<?xml version="1.0" standalone="no"?>
<!DOCTYPE svg PUBLIC "-//W3C//DTD SVG 1.1//EN" "http://www.w3.org/Graphics/SVG/1.1/DTD/svg11.dtd">
<svg width="90mm" height="104mm" viewBox="-45 -52 90 104" xmlns="http://www.w3.org/2000/svg" version="1.1">
<title>OpenSCAD Model</title>
<path d="
M 40.4369,51.9114 L 41.0451,51.7553 L 41.6289,51.5241 L 42.1791,51.2216 L 42.6871,50.8526 L 43.1448,50.4227
 L 43.5451,49.9389 L 43.8815,49.4088 L 44.1489,48.8406 L 44.3429,48.2434 L 44.4606,47.6267 L 44.5,47
 L 44.5,-47 L 44.4606,-47.6267 L 44.3429,-48.2434 L 44.1489,-48.8406 L 43.8815,-49.4088 L 43.5451,-49.9389
 L 43.1448,-50.4227 L 42.6871,-50.8526 L 42.1791,-51.2216 L 41.6289,-51.5241 L 41.0451,-51.7553 L 40.4369,-51.9114
 L 39.8139,-51.9901 L -39.8139,-51.9901 L -40.4369,-51.9114 L -41.0451,-51.7553 L -41.6289,-51.5241 L -42.1791,-51.2216
 L -42.6871,-50.8526 L -43.1448,-50.4227 L -43.5451,-49.9389 L -43.8815,-49.4088 L -44.1489,-48.8406 L -44.3429,-48.2434
 L -44.4606,-47.6267 L -44.5,-47 L -44.5,47 L -44.4606,47.6267 L -44.3429,48.2434 L -44.1489,48.8406
 L -43.8815,49.4088 L -43.5451,49.9389 L -43.1448,50.4227 L -42.6871,50.8526 L -42.1791,51.2216 L -41.6289,51.5241
 L -41.0451,51.7553 L -40.4369,51.9114 L -39.8139,51.9901 L 39.8139,51.9901 z
M 37.3116,-42.0059 L 36.9379,-42.0531 L 36.5729,-42.1468 L 36.2227,-42.2855 L 35.8925,-42.467 L 35.5877,-42.6885
 L 35.3131,-42.9464 L 35.0729,-43.2366 L 34.8711,-43.5547 L 34.7107,-43.8956 L 34.5942,-44.2539 L 34.5237,-44.624
 L 34.5,-45 L 34.5237,-45.376 L 34.5942,-45.7461 L 34.7107,-46.1044 L 34.8711,-46.4453 L 35.0729,-46.7634
 L 35.3131,-47.0536 L 35.5877,-47.3115 L 35.8925,-47.533 L 36.2227,-47.7145 L 36.5729,-47.8532 L 36.9379,-47.9469
 L 37.3116,-47.9941 L 37.6884,-47.9941 L 38.0621,-47.9469 L 38.427,-47.8532 L 38.7773,-47.7145 L 39.1075,-47.533
 L 39.4123,-47.3115 L 39.6869,-47.0536 L 39.927,-46.7634 L 40.1289,-46.4453 L 40.2893,-46.1044 L 40.4057,-45.7461
 L 40.4763,-45.376 L 40.5,-45 L 40.4763,-44.624 L 40.4057,-44.2539 L 40.2893,-43.8956 L 40.1289,-43.5547
 L 39.927,-43.2366 L 39.6869,-42.9464 L 39.4123,-42.6885 L 39.1075,-42.467 L 38.7773,-42.2855 L 38.427,-42.1468
 L 38.0621,-42.0531 L 37.6884,-42.0059 z
M -37.6884,-42.0059 L -38.0621,-42.0531 L -38.427,-42.1468 L -38.7773,-42.2855 L -39.1075,-42.467 L -39.4123,-42.6885
 L -39.6869,-42.9464 L -39.927,-43.2366 L -40.1289,-43.5547 L -40.2893,-43.8956 L -40.4057,-44.2539 L -40.4763,-44.624
 L -40.5,-45 L -40.4763,-45.376 L -40.4057,-45.7461 L -40.2893,-46.1044 L -40.1289,-46.4453 L -39.927,-46.7634
 L -39.6869,-47.0536 L -39.4123,-47.3115 L -39.1075,-47.533 L -38.7773,-47.7145 L -38.427,-47.8532 L -38.0621,-47.9469
 L -37.6884,-47.9941 L -37.3116,-47.9941 L -36.9379,-47.9469 L -36.5729,-47.8532 L -36.2227,-47.7145 L -35.8925,-47.533
 L -35.5877,-47.3115 L -35.3131,-47.0536 L -35.0729,-46.7634 L -34.8711,-46.4453 L -34.7107,-46.1044 L -34.5942,-45.7461
 L -34.5237,-45.376 L -34.5,-45 L -34.5237,-44.624 L -34.5942,-44.2539 L -34.7107,-43.8956 L -34.8711,-43.5547
 L -35.0729,-43.2366 L -35.3131,-42.9464 L -35.5877,-42.6885 L -35.8925,-42.467 L -36.2227,-42.2855 L -36.5729,-42.1468
 L -36.9379,-42.0531 L -37.3116,-42.0059 z
M -22.6884,-42.0059 L -23.0621,-42.0531 L -23.427,-42.1468 L -23.7773,-42.2855 L -24.1075,-42.467 L -24.4123,-42.6885
 L -24.6869,-42.9464 L -24.927,-43.2366 L -25.1289,-43.5547 L -25.2893,-43.8956 L -25.4057,-44.2539 L -25.4763,-44.624
 L -25.5,-45 L -25.4763,-45.376 L -25.4057,-45.7461 L -25.2893,-46.1044 L -25.1289,-46.4453 L -24.927,-46.7634
 L -24.6869,-47.0536 L -24.4123,-47.3115 L -24.1075,-47.533 L -23.7773,-47.7145 L -23.427,-47.8532 L -23.0621,-47.9469
 L -22.6884,-47.9941 L -22.3116,-47.9941 L -21.9379,-47.9469 L -21.5729,-47.8532 L -21.2227,-47.7145 L -20.8925,-47.533
 L -20.5877,-47.3115 L -20.3131,-47.0536 L -20.0729,-46.7634 L -19.8711,-46.4453 L -19.7107,-46.1044 L -19.5942,-45.7461
 L -19.5237,-45.376 L -19.5,-45 L -19.5237,-44.624 L -19.5942,-44.2539 L -19.7107,-43.8956 L -19.8711,-43.5547
 L -20.0729,-43.2366 L -20.3131,-42.9464 L -20.5877,-42.6885 L -20.8925,-42.467 L -21.2227,-42.2855 L -21.5729,-42.1468
 L -21.9379,-42.0531 L -22.3116,-42.0059 z
M -7.68837,-42.0059 L -8.06213,-42.0531 L -8.42705,-42.1468 L -8.77733,-42.2855 L -9.10747,-42.467 L -9.41226,-42.6885
 L -9.6869,-42.9464 L -9.92705,-43.2366 L -10.1289,-43.5547 L -10.2893,-43.8956 L -10.4057,-44.2539 L -10.4763,-44.624
 L -10.5,-45 L -10.4763,-45.376 L -10.4057,-45.7461 L -10.2893,-46.1044 L -10.1289,-46.4453 L -9.92705,-46.7634
 L -9.6869,-47.0536 L -9.41226,-47.3115 L -9.10747,-47.533 L -8.77733,-47.7145 L -8.42705,-47.8532 L -8.06213,-47.9469
 L -7.68837,-47.9941 L -7.31161,-47.9941 L -6.93785,-47.9469 L -6.57294,-47.8532 L -6.22266,-47.7145 L -5.89252,-47.533
 L -5.58772,-47.3115 L -5.31308,-47.0536 L -5.07294,-46.7634 L -4.87108,-46.4453 L -4.71066,-46.1044 L -4.59424,-45.7461
 L -4.52365,-45.376 L -4.5,-45 L -4.52365,-44.624 L -4.59424,-44.2539 L -4.71066,-43.8956 L -4.87108,-43.5547
 L -5.07294,-43.2366 L -5.31308,-42.9464 L -5.58772,-42.6885 L -5.89252,-42.467 L -6.22266,-42.2855 L -6.57294,-42.1468
 L -6.93785,-42.0531 L -7.31161,-42.0059 z
M 7.31161,-42.0059 L 6.93785,-42.0531 L 6.57294,-42.1468 L 6.22266,-42.2855 L 5.89252,-42.467 L 5.58772,-42.6885
 L 5.31308,-42.9464 L 5.07294,-43.2366 L 4.87108,-43.5547 L 4.71066,-43.8956 L 4.59424,-44.2539 L 4.52365,-44.624
 L 4.5,-45 L 4.52365,-45.376 L 4.59424,-45.7461 L 4.71066,-46.1044 L 4.87108,-46.4453 L 5.07294,-46.7634
 L 5.31308,-47.0536 L 5.58772,-47.3115 L 5.89252,-47.533 L 6.22266,-47.7145 L 6.57294,-47.8532 L 6.93785,-47.9469
 L 7.31161,-47.9941 L 7.68837,-47.9941 L 8.06213,-47.9469 L 8.42705,-47.8532 L 8.77733,-47.7145 L 9.10747,-47.533
 L 9.41226,-47.3115 L 9.6869,-47.0536 L 9.92705,-46.7634 L 10.1289,-46.4453 L 10.2893,-46.1044 L 10.4057,-45.7461
 L 10.4763,-45.376 L 10.5,-45 L 10.4763,-44.624 L 10.4057,-44.2539 L 10.2893,-43.8956 L 10.1289,-43.5547
 L 9.92705,-43.2366 L 9.6869,-42.9464 L 9.41226,-42.6885 L 9.10747,-42.467 L 8.77733,-42.2855 L 8.42705,-42.1468
 L 8.06213,-42.0531 L 7.68837,-42.0059 z
M 22.3116,-42.0059 L 21.9379,-42.0531 L 21.5729,-42.1468 L 21.2227,-42.2855 L 20.8925,-42.467 L 20.5877,-42.6885
 L 20.3131,-42.9464 L 20.0729,-43.2366 L 19.8711,-43.5547 L 19.7107,-43.8956 L 19.5942,-44.2539 L 19.5237,-44.624
 L 19.5,-45 L 19.5237,-45.376 L 19.5942,-45.7461 L 19.7107,-46.1044 L 19.8711,-46.4453 L 20.0729,-46.7634
 L 20.3131,-47.0536 L 20.5877,-47.3115 L 20.8925,-47.533 L 21.2227,-47.7145 L 21.5729,-47.8532 L 21.9379,-47.9469
 L 22.3116,-47.9941 L 22.6884,-47.9941 L 23.0621,-47.9469 L 23.427,-47.8532 L 23.7773,-47.7145 L 24.1075,-47.533
 L 24.4123,-47.3115 L 24.6869,-47.0536 L 24.927,-46.7634 L 25.1289,-46.4453 L 25.2893,-46.1044 L 25.4057,-45.7461
 L 25.4763,-45.376 L 25.5,-45 L 25.4763,-44.624 L 25.4057,-44.2539 L 25.2893,-43.8956 L 25.1289,-43.5547
 L 24.927,-43.2366 L 24.6869,-42.9464 L 24.4123,-42.6885 L 24.1075,-42.467 L 23.7773,-42.2855 L 23.427,-42.1468
 L 23.0621,-42.0531 L 22.6884,-42.0059 z
M 29.9058,-43.503 L 29.7189,-43.5266 L 29.5365,-43.5734 L 29.3613,-43.6428 L 29.1963,-43.7335 L 29.0439,-43.8442
 L 28.9065,-43.9732 L 28.7865,-44.1183 L 28.6855,-44.2774 L 28.6053,-44.4478 L 28.5471,-44.627 L 28.5118,-44.812
 L 28.5,-45 L 28.5118,-45.188 L 28.5471,-45.373 L 28.6053,-45.5522 L 28.6855,-45.7226 L 28.7865,-45.8817
 L 28.9065,-46.0268 L 29.0439,-46.1558 L 29.1963,-46.2665 L 29.3613,-46.3572 L 29.5365,-46.4266 L 29.7189,-46.4734
 L 29.9058,-46.497 L 30.0942,-46.497 L 30.2811,-46.4734 L 30.4635,-46.4266 L 30.6387,-46.3572 L 30.8037,-46.2665
 L 30.9561,-46.1558 L 31.0934,-46.0268 L 31.2135,-45.8817 L 31.3145,-45.7226 L 31.3947,-45.5522 L 31.4529,-45.373
 L 31.4882,-45.188 L 31.5,-45 L 31.4882,-44.812 L 31.4529,-44.627 L 31.3947,-44.4478 L 31.3145,-44.2774
 L 31.2135,-44.1183 L 31.0934,-43.9732 L 30.9561,-43.8442 L 30.8037,-43.7335 L 30.6387,-43.6428 L 30.4635,-43.5734
 L 30.2811,-43.5266 L 30.0942,-43.503 z
M -15.0942,-43.503 L -15.2811,-43.5266 L -15.4635,-43.5734 L -15.6387,-43.6428 L -15.8037,-43.7335 L -15.9561,-43.8442
 L -16.0934,-43.9732 L -16.2135,-44.1183 L -16.3145,-44.2774 L -16.3947,-44.4478 L -16.4529,-44.627 L -16.4882,-44.812
 L -16.5,-45 L -16.4882,-45.188 L -16.4529,-45.373 L -16.3947,-45.5522 L -16.3145,-45.7226 L -16.2135,-45.8817
 L -16.0934,-46.0268 L -15.9561,-46.1558 L -15.8037,-46.2665 L -15.6387,-46.3572 L -15.4635,-46.4266 L -15.2811,-46.4734
 L -15.0942,-46.497 L -14.9058,-46.497 L -14.7189,-46.4734 L -14.5365,-46.4266 L -14.3613,-46.3572 L -14.1963,-46.2665
 L -14.0439,-46.1558 L -13.9065,-46.0268 L -13.7865,-45.8817 L -13.6855,-45.7226 L -13.6053,-45.5522 L -13.5471,-45.373
 L -13.5118,-45.188 L -13.5,-45 L -13.5118,-44.812 L -13.5471,-44.627 L -13.6053,-44.4478 L -13.6855,-44.2774
 L -13.7865,-44.1183 L -13.9065,-43.9732 L -14.0439,-43.8442 L -14.1963,-43.7335 L -14.3613,-43.6428 L -14.5365,-43.5734
 L -14.7189,-43.5266 L -14.9058,-43.503 z
M -30.0942,-43.503 L -30.2811,-43.5266 L -30.4635,-43.5734 L -30.6387,-43.6428 L -30.8037,-43.7335 L -30.9561,-43.8442
 L -31.0934,-43.9732 L -31.2135,-44.1183 L -31.3145,-44.2774 L -31.3947,-44.4478 L -31.4529,-44.627 L -31.4882,-44.812
 L -31.5,-45 L -31.4882,-45.188 L -31.4529,-45.373 L -31.3947,-45.5522 L -31.3145,-45.7226 L -31.2135,-45.8817
 L -31.0934,-46.0268 L -30.9561,-46.1558 L -30.8037,-46.2665 L -30.6387,-46.3572 L -30.4635,-46.4266 L -30.2811,-46.4734
 L -30.0942,-46.497 L -29.9058,-46.497 L -29.7189,-46.4734 L -29.5365,-46.4266 L -29.3613,-46.3572 L -29.1963,-46.2665
 L -29.0439,-46.1558 L -28.9065,-46.0268 L -28.7865,-45.8817 L -28.6855,-45.7226 L -28.6053,-45.5522 L -28.5471,-45.373
 L -28.5118,-45.188 L -28.5,-45 L -28.5118,-44.812 L -28.5471,-44.627 L -28.6053,-44.4478 L -28.6855,-44.2774
 L -28.7865,-44.1183 L -28.9065,-43.9732 L -29.0439,-43.8442 L -29.1963,-43.7335 L -29.3613,-43.6428 L -29.5365,-43.5734
 L -29.7189,-43.5266 L -29.9058,-43.503 z
M 14.9058,-43.503 L 14.7189,-43.5266 L 14.5365,-43.5734 L 14.3613,-43.6428 L 14.1963,-43.7335 L 14.0439,-43.8442
 L 13.9065,-43.9732 L 13.7865,-44.1183 L 13.6855,-44.2774 L 13.6053,-44.4478 L 13.5471,-44.627 L 13.5118,-44.812
 L 13.5,-45 L 13.5118,-45.188 L 13.5471,-45.373 L 13.6053,-45.5522 L 13.6855,-45.7226 L 13.7865,-45.8817
 L 13.9065,-46.0268 L 14.0439,-46.1558 L 14.1963,-46.2665 L 14.3613,-46.3572 L 14.5365,-46.4266 L 14.7189,-46.4734
 L 14.9058,-46.497 L 15.0942,-46.497 L 15.2811,-46.4734 L 15.4635,-46.4266 L 15.6387,-46.3572 L 15.8037,-46.2665
 L 15.9561,-46.1558 L 16.0934,-46.0268 L 16.2135,-45.8817 L 16.3145,-45.7226 L 16.3947,-45.5522 L 16.4529,-45.373
 L 16.4882,-45.188 L 16.5,-45 L 16.4882,-44.812 L 16.4529,-44.627 L 16.3947,-44.4478 L 16.3145,-44.2774
 L 16.2135,-44.1183 L 16.0934,-43.9732 L 15.9561,-43.8442 L 15.8037,-43.7335 L 15.6387,-43.6428 L 15.4635,-43.5734
 L 15.2811,-43.5266 L 15.0942,-43.503 z
M -0.0941772,-43.503 L -0.281067,-43.5266 L -0.463516,-43.5734 L -0.638657,-43.6428 L -0.803726,-43.7335 L -0.956131,-43.8442
 L -1.09344,-43.9732 L -1.21352,-44.1183 L -1.31445,-44.2774 L -1.39465,-44.4478 L -1.45287,-44.627 L -1.48816,-44.812
 L -1.5,-45 L -1.48816,-45.188 L -1.45287,-45.373 L -1.39465,-45.5522 L -1.31445,-45.7226 L -1.21352,-45.8817
 L -1.09344,-46.0268 L -0.956131,-46.1558 L -0.803726,-46.2665 L -0.638657,-46.3572 L -0.463516,-46.4266 L -0.281067,-46.4734
 L -0.0941772,-46.497 L 0.0941772,-46.497 L 0.281067,-46.4734 L 0.463516,-46.4266 L 0.638657,-46.3572 L 0.803726,-46.2665
 L 0.956131,-46.1558 L 1.09344,-46.0268 L 1.21352,-45.8817 L 1.31445,-45.7226 L 1.39465,-45.5522 L 1.45287,-45.373
 L 1.48816,-45.188 L 1.5,-45 L 1.48816,-44.812 L 1.45287,-44.627 L 1.39465,-44.4478 L 1.31445,-44.2774
 L 1.21352,-44.1183 L 1.09344,-43.9732 L 0.956131,-43.8442 L 0.803726,-43.7335 L 0.638657,-43.6428 L 0.463516,-43.5734
 L 0.281067,-43.5266 L 0.0941772,-43.503 z
M -2.26045,35.929 L -6.74571,35.3623 L -11.1246,34.238 L -15.328,32.5738 L -19.2898,30.3958 L -22.9473,27.7385
 L -26.2429,24.6437 L -29.1246,21.1603 L -31.547,17.3431 L -33.472,13.2525 L -34.869,8.95284 L -35.7161,4.51199
 L -36,-0 L -35.7161,-4.51199 L -34.869,-8.95284 L -33.472,-13.2525 L -31.547,-17.3431 L -29.1246,-21.1603
 L -26.2429,-24.6437 L -22.9473,-27.7385 L -19.2898,-30.3958 L -15.328,-32.5738 L -11.1246,-34.238 L -6.74571,-35.3623
 L -2.26045,-35.929 L 2.26045,-35.929 L 6.74571,-35.3623 L 11.1246,-34.238 L 15.328,-32.5738 L 19.2898,-30.3958
 L 22.9473,-27.7385 L 26.2429,-24.6437 L 29.1246,-21.1603 L 31.547,-17.3431 L 33.472,-13.2525 L 34.869,-8.95284
 L 35.7161,-4.51199 L 36,-0 L 35.7161,4.51199 L 34.869,8.95284 L 33.472,13.2525 L 31.547,17.3431
 L 29.1246,21.1603 L 26.2429,24.6437 L 22.9473,27.7385 L 19.2898,30.3958 L 15.328,32.5738 L 11.1246,34.238
 L 6.74571,35.3623 L 2.26045,35.929 z
M 37.3116,47.9941 L 36.9379,47.9469 L 36.5729,47.8532 L 36.2227,47.7145 L 35.8925,47.533 L 35.5877,47.3115
 L 35.3131,47.0536 L 35.0729,46.7634 L 34.8711,46.4453 L 34.7107,46.1044 L 34.5942,45.7461 L 34.5237,45.376
 L 34.5,45 L 34.5237,44.624 L 34.5942,44.2539 L 34.7107,43.8956 L 34.8711,43.5547 L 35.0729,43.2366
 L 35.3131,42.9464 L 35.5877,42.6885 L 35.8925,42.467 L 36.2227,42.2855 L 36.5729,42.1468 L 36.9379,42.0531
 L 37.3116,42.0059 L 37.6884,42.0059 L 38.0621,42.0531 L 38.427,42.1468 L 38.7773,42.2855 L 39.1075,42.467
 L 39.4123,42.6885 L 39.6869,42.9464 L 39.927,43.2366 L 40.1289,43.5547 L 40.2893,43.8956 L 40.4057,44.2539
 L 40.4763,44.624 L 40.5,45 L 40.4763,45.376 L 40.4057,45.7461 L 40.2893,46.1044 L 40.1289,46.4453
 L 39.927,46.7634 L 39.6869,47.0536 L 39.4123,47.3115 L 39.1075,47.533 L 38.7773,47.7145 L 38.427,47.8532
 L 38.0621,47.9469 L 37.6884,47.9941 z
M 22.3116,47.9941 L 21.9379,47.9469 L 21.5729,47.8532 L 21.2227,47.7145 L 20.8925,47.533 L 20.5877,47.3115
 L 20.3131,47.0536 L 20.0729,46.7634 L 19.8711,46.4453 L 19.7107,46.1044 L 19.5942,45.7461 L 19.5237,45.376
 L 19.5,45 L 19.5237,44.624 L 19.5942,44.2539 L 19.7107,43.8956 L 19.8711,43.5547 L 20.0729,43.2366
 L 20.3131,42.9464 L 20.5877,42.6885 L 20.8925,42.467 L 21.2227,42.2855 L 21.5729,42.1468 L 21.9379,42.0531
 L 22.3116,42.0059 L 22.6884,42.0059 L 23.0621,42.0531 L 23.427,42.1468 L 23.7773,42.2855 L 24.1075,42.467
 L 24.4123,42.6885 L 24.6869,42.9464 L 24.927,43.2366 L 25.1289,43.5547 L 25.2893,43.8956 L 25.4057,44.2539
 L 25.4763,44.624 L 25.5,45 L 25.4763,45.376 L 25.4057,45.7461 L 25.2893,46.1044 L 25.1289,46.4453
 L 24.927,46.7634 L 24.6869,47.0536 L 24.4123,47.3115 L 24.1075,47.533 L 23.7773,47.7145 L 23.427,47.8532
 L 23.0621,47.9469 L 22.6884,47.9941 z
M -37.6884,47.9941 L -38.0621,47.9469 L -38.427,47.8532 L -38.7773,47.7145 L -39.1075,47.533 L -39.4123,47.3115
 L -39.6869,47.0536 L -39.927,46.7634 L -40.1289,46.4453 L -40.2893,46.1044 L -40.4057,45.7461 L -40.4763,45.376
 L -40.5,45 L -40.4763,44.624 L -40.4057,44.2539 L -40.2893,43.8956 L -40.1289,43.5547 L -39.927,43.2366
 L -39.6869,42.9464 L -39.4123,42.6885 L -39.1075,42.467 L -38.7773,42.2855 L -38.427,42.1468 L -38.0621,42.0531
 L -37.6884,42.0059 L -37.3116,42.0059 L -36.9379,42.0531 L -36.5729,42.1468 L -36.2227,42.2855 L -35.8925,42.467
 L -35.5877,42.6885 L -35.3131,42.9464 L -35.0729,43.2366 L -34.8711,43.5547 L -34.7107,43.8956 L -34.5942,44.2539
 L -34.5237,44.624 L -34.5,45 L -34.5237,45.376 L -34.5942,45.7461 L -34.7107,46.1044 L -34.8711,46.4453
 L -35.0729,46.7634 L -35.3131,47.0536 L -35.5877,47.3115 L -35.8925,47.533 L -36.2227,47.7145 L -36.5729,47.8532
 L -36.9379,47.9469 L -37.3116,47.9941 z
M 7.31161,47.9941 L 6.93785,47.9469 L 6.57294,47.8532 L 6.22266,47.7145 L 5.89252,47.533 L 5.58772,47.3115
 L 5.31308,47.0536 L 5.07294,46.7634 L 4.87108,46.4453 L 4.71066,46.1044 L 4.59424,45.7461 L 4.52365,45.376
 L 4.5,45 L 4.52365,44.624 L 4.59424,44.2539 L 4.71066,43.8956 L 4.87108,43.5547 L 5.07294,43.2366
 L 5.31308,42.9464 L 5.58772,42.6885 L 5.89252,42.467 L 6.22266,42.2855 L 6.57294,42.1468 L 6.93785,42.0531
 L 7.31161,42.0059 L 7.68837,42.0059 L 8.06213,42.0531 L 8.42705,42.1468 L 8.77733,42.2855 L 9.10747,42.467
 L 9.41226,42.6885 L 9.6869,42.9464 L 9.92705,43.2366 L 10.1289,43.5547 L 10.2893,43.8956 L 10.4057,44.2539
 L 10.4763,44.624 L 10.5,45 L 10.4763,45.376 L 10.4057,45.7461 L 10.2893,46.1044 L 10.1289,46.4453
 L 9.92705,46.7634 L 9.6869,47.0536 L 9.41226,47.3115 L 9.10747,47.533 L 8.77733,47.7145 L 8.42705,47.8532
 L 8.06213,47.9469 L 7.68837,47.9941 z
M -7.68837,47.9941 L -8.06213,47.9469 L -8.42705,47.8532 L -8.77733,47.7145 L -9.10747,47.533 L -9.41226,47.3115
 L -9.6869,47.0536 L -9.92705,46.7634 L -10.1289,46.4453 L -10.2893,46.1044 L -10.4057,45.7461 L -10.4763,45.376
 L -10.5,45 L -10.4763,44.624 L -10.4057,44.2539 L -10.2893,43.8956 L -10.1289,43.5547 L -9.92705,43.2366
 L -9.6869,42.9464 L -9.41226,42.6885 L -9.10747,42.467 L -8.77733,42.2855 L -8.42705,42.1468 L -8.06213,42.0531
 L -7.68837,42.0059 L -7.31161,42.0059 L -6.93785,42.0531 L -6.57294,42.1468 L -6.22266,42.2855 L -5.89252,42.467
 L -5.58772,42.6885 L -5.31308,42.9464 L -5.07294,43.2366 L -4.87108,43.5547 L -4.71066,43.8956 L -4.59424,44.2539
 L -4.52365,44.624 L -4.5,45 L -4.52365,45.376 L -4.59424,45.7461 L -4.71066,46.1044 L -4.87108,46.4453
 L -5.07294,46.7634 L -5.31308,47.0536 L -5.58772,47.3115 L -5.89252,47.533 L -6.22266,47.7145 L -6.57294,47.8532
 L -6.93785,47.9469 L -7.31161,47.9941 z
M -22.6884,47.9941 L -23.0621,47.9469 L -23.427,47.8532 L -23.7773,47.7145 L -24.1075,47.533 L -24.4123,47.3115
 L -24.6869,47.0536 L -24.927,46.7634 L -25.1289,46.4453 L -25.2893,46.1044 L -25.4057,45.7461 L -25.4763,45.376
 L -25.5,45 L -25.4763,44.624 L -25.4057,44.2539 L -25.2893,43.8956 L -25.1289,43.5547 L -24.927,43.2366
 L -24.6869,42.9464 L -24.4123,42.6885 L -24.1075,42.467 L -23.7773,42.2855 L -23.427,42.1468 L -23.0621,42.0531
 L -22.6884,42.0059 L -22.3116,42.0059 L -21.9379,42.0531 L -21.5729,42.1468 L -21.2227,42.2855 L -20.8925,42.467
 L -20.5877,42.6885 L -20.3131,42.9464 L -20.0729,43.2366 L -19.8711,43.5547 L -19.7107,43.8956 L -19.5942,44.2539
 L -19.5237,44.624 L -19.5,45 L -19.5237,45.376 L -19.5942,45.7461 L -19.7107,46.1044 L -19.8711,46.4453
 L -20.0729,46.7634 L -20.3131,47.0536 L -20.5877,47.3115 L -20.8925,47.533 L -21.2227,47.7145 L -21.5729,47.8532
 L -21.9379,47.9469 L -22.3116,47.9941 z
M -30.0942,46.497 L -30.2811,46.4734 L -30.4635,46.4266 L -30.6387,46.3572 L -30.8037,46.2665 L -30.9561,46.1558
 L -31.0934,46.0268 L -31.2135,45.8817 L -31.3145,45.7226 L -31.3947,45.5522 L -31.4529,45.373 L -31.4882,45.188
 L -31.5,45 L -31.4882,44.812 L -31.4529,44.627 L -31.3947,44.4478 L -31.3145,44.2774 L -31.2135,44.1183
 L -31.0934,43.9732 L -30.9561,43.8442 L -30.8037,43.7335 L -30.6387,43.6428 L -30.4635,43.5734 L -30.2811,43.5266
 L -30.0942,43.503 L -29.9058,43.503 L -29.7189,43.5266 L -29.5365,43.5734 L -29.3613,43.6428 L -29.1963,43.7335
 L -29.0439,43.8442 L -28.9065,43.9732 L -28.7865,44.1183 L -28.6855,44.2774 L -28.6053,44.4478 L -28.5471,44.627
 L -28.5118,44.812 L -28.5,45 L -28.5118,45.188 L -28.5471,45.373 L -28.6053,45.5522 L -28.6855,45.7226
 L -28.7865,45.8817 L -28.9065,46.0268 L -29.0439,46.1558 L -29.1963,46.2665 L -29.3613,46.3572 L -29.5365,46.4266
 L -29.7189,46.4734 L -29.9058,46.497 z
M 29.9058,46.497 L 29.7189,46.4734 L 29.5365,46.4266 L 29.3613,46.3572 L 29.1963,46.2665 L 29.0439,46.1558
 L 28.9065,46.0268 L 28.7865,45.8817 L 28.6855,45.7226 L 28.6053,45.5522 L 28.5471,45.373 L 28.5118,45.188
 L 28.5,45 L 28.5118,44.812 L 28.5471,44.627 L 28.6053,44.4478 L 28.6855,44.2774 L 28.7865,44.1183
 L 28.9065,43.9732 L 29.0439,43.8442 L 29.1963,43.7335 L 29.3613,43.6428 L 29.5365,43.5734 L 29.7189,43.5266
 L 29.9058,43.503 L 30.0942,43.503 L 30.2811,43.5266 L 30.4635,43.5734 L 30.6387,43.6428 L 30.8037,43.7335
 L 30.9561,43.8442 L 31.0934,43.9732 L 31.2135,44.1183 L 31.3145,44.2774 L 31.3947,44.4478 L 31.4529,44.627
 L 31.4882,44.812 L 31.5,45 L 31.4882,45.188 L 31.4529,45.373 L 31.3947,45.5522 L 31.3145,45.7226
 L 31.2135,45.8817 L 31.0934,46.0268 L 30.9561,46.1558 L 30.8037,46.2665 L 30.6387,46.3572 L 30.4635,46.4266
 L 30.2811,46.4734 L 30.0942,46.497 z
M -15.0942,46.497 L -15.2811,46.4734 L -15.4635,46.4266 L -15.6387,46.3572 L -15.8037,46.2665 L -15.9561,46.1558
 L -16.0934,46.0268 L -16.2135,45.8817 L -16.3145,45.7226 L -16.3947,45.5522 L -16.4529,45.373 L -16.4882,45.188
 L -16.5,45 L -16.4882,44.812 L -16.4529,44.627 L -16.3947,44.4478 L -16.3145,44.2774 L -16.2135,44.1183
 L -16.0934,43.9732 L -15.9561,43.8442 L -15.8037,43.7335 L -15.6387,43.6428 L -15.4635,43.5734 L -15.2811,43.5266
 L -15.0942,43.503 L -14.9058,43.503 L -14.7189,43.5266 L -14.5365,43.5734 L -14.3613,43.6428 L -14.1963,43.7335
 L -14.0439,43.8442 L -13.9065,43.9732 L -13.7865,44.1183 L -13.6855,44.2774 L -13.6053,44.4478 L -13.5471,44.627
 L -13.5118,44.812 L -13.5,45 L -13.5118,45.188 L -13.5471,45.373 L -13.6053,45.5522 L -13.6855,45.7226
 L -13.7865,45.8817 L -13.9065,46.0268 L -14.0439,46.1558 L -14.1963,46.2665 L -14.3613,46.3572 L -14.5365,46.4266
 L -14.7189,46.4734 L -14.9058,46.497 z
M -0.0941772,46.497 L -0.281067,46.4734 L -0.463516,46.4266 L -0.638657,46.3572 L -0.803726,46.2665 L -0.956131,46.1558
 L -1.09344,46.0268 L -1.21352,45.8817 L -1.31445,45.7226 L -1.39465,45.5522 L -1.45287,45.373 L -1.48816,45.188
 L -1.5,45 L -1.48816,44.812 L -1.45287,44.627 L -1.39465,44.4478 L -1.31445,44.2774 L -1.21352,44.1183
 L -1.09344,43.9732 L -0.956131,43.8442 L -0.803726,43.7335 L -0.638657,43.6428 L -0.463516,43.5734 L -0.281067,43.5266
 L -0.0941772,43.503 L 0.0941772,43.503 L 0.281067,43.5266 L 0.463516,43.5734 L 0.638657,43.6428 L 0.803726,43.7335
 L 0.956131,43.8442 L 1.09344,43.9732 L 1.21352,44.1183 L 1.31445,44.2774 L 1.39465,44.4478 L 1.45287,44.627
 L 1.48816,44.812 L 1.5,45 L 1.48816,45.188 L 1.45287,45.373 L 1.39465,45.5522 L 1.31445,45.7226
 L 1.21352,45.8817 L 1.09344,46.0268 L 0.956131,46.1558 L 0.803726,46.2665 L 0.638657,46.3572 L 0.463516,46.4266
 L 0.281067,46.4734 L 0.0941772,46.497 z
M 14.9058,46.497 L 14.7189,46.4734 L 14.5365,46.4266 L 14.3613,46.3572 L 14.1963,46.2665 L 14.0439,46.1558
 L 13.9065,46.0268 L 13.7865,45.8817 L 13.6855,45.7226 L 13.6053,45.5522 L 13.5471,45.373 L 13.5118,45.188
 L 13.5,45 L 13.5118,44.812 L 13.5471,44.627 L 13.6053,44.4478 L 13.6855,44.2774 L 13.7865,44.1183
 L 13.9065,43.9732 L 14.0439,43.8442 L 14.1963,43.7335 L 14.3613,43.6428 L 14.5365,43.5734 L 14.7189,43.5266
 L 14.9058,43.503 L 15.0942,43.503 L 15.2811,43.5266 L 15.4635,43.5734 L 15.6387,43.6428 L 15.8037,43.7335
 L 15.9561,43.8442 L 16.0934,43.9732 L 16.2135,44.1183 L 16.3145,44.2774 L 16.3947,44.4478 L 16.4529,44.627
 L 16.4882,44.812 L 16.5,45 L 16.4882,45.188 L 16.4529,45.373 L 16.3947,45.5522 L 16.3145,45.7226
 L 16.2135,45.8817 L 16.0934,46.0268 L 15.9561,46.1558 L 15.8037,46.2665 L 15.6387,46.3572 L 15.4635,46.4266
 L 15.2811,46.4734 L 15.0942,46.497 z
" stroke="black" fill="lightgray" stroke-width="0.5"/>
</svg>
