  0
SECTION
  2
BLOCKS
  0
ENDSEC
  0
SECTION
  2
ENTITIES
  0
LINE
  8
0
 10
85.4369
 20
-29.4114
 11
86.0451
 21
-29.2553
  0
LINE
  8
0
 10
86.0451
 20
-29.2553
 11
86.6289
 21
-29.0241
  0
LINE
  8
0
 10
86.6289
 20
-29.0241
 11
87.1791
 21
-28.7216
  0
LINE
  8
0
 10
87.1791
 20
-28.7216
 11
87.6871
 21
-28.3526
  0
LINE
  8
0
 10
87.6871
 20
-28.3526
 11
88.1448
 21
-27.9227
  0
LINE
  8
0
 10
88.1448
 20
-27.9227
 11
88.5451
 21
-27.4389
  0
LINE
  8
0
 10
88.5451
 20
-27.4389
 11
88.8815
 21
-26.9088
  0
LINE
  8
0
 10
88.8815
 20
-26.9088
 11
89.1489
 21
-26.3406
  0
LINE
  8
0
 10
89.1489
 20
-26.3406
 11
89.3429
 21
-25.7434
  0
LINE
  8
0
 10
89.3429
 20
-25.7434
 11
89.4606
 21
-25.1267
  0
LINE
  8
0
 10
89.4606
 20
-25.1267
 11
89.5
 21
-24.5
  0
LINE
  8
0
 10
89.5
 20
-24.5
 11
89.5
 21
24.5
  0
LINE
  8
0
 10
89.5
 20
24.5
 11
89.4606
 21
25.1267
  0
LINE
  8
0
 10
89.4606
 20
25.1267
 11
89.3429
 21
25.7434
  0
LINE
  8
0
 10
89.3429
 20
25.7434
 11
89.1489
 21
26.3406
  0
LINE
  8
0
 10
89.1489
 20
26.3406
 11
88.8815
 21
26.9088
  0
LINE
  8
0
 10
88.8815
 20
26.9088
 11
88.5451
 21
27.4389
  0
LINE
  8
0
 10
88.5451
 20
27.4389
 11
88.1448
 21
27.9227
  0
LINE
  8
0
 10
88.1448
 20
27.9227
 11
87.6871
 21
28.3526
  0
LINE
  8
0
 10
87.6871
 20
28.3526
 11
87.1791
 21
28.7216
  0
LINE
  8
0
 10
87.1791
 20
28.7216
 11
86.6289
 21
29.0241
  0
LINE
  8
0
 10
86.6289
 20
29.0241
 11
86.0451
 21
29.2553
  0
LINE
  8
0
 10
86.0451
 20
29.2553
 11
85.4369
 21
29.4114
  0
LINE
  8
0
 10
85.4369
 20
29.4114
 11
84.8139
 21
29.4901
  0
LINE
  8
0
 10
84.8139
 20
29.4901
 11
-84.8139
 21
29.4901
  0
LINE
  8
0
 10
-84.8139
 20
29.4901
 11
-85.4369
 21
29.4114
  0
LINE
  8
0
 10
-85.4369
 20
29.4114
 11
-86.0451
 21
29.2553
  0
LINE
  8
0
 10
-86.0451
 20
29.2553
 11
-86.6289
 21
29.0241
  0
LINE
  8
0
 10
-86.6289
 20
29.0241
 11
-87.1791
 21
28.7216
  0
LINE
  8
0
 10
-87.1791
 20
28.7216
 11
-87.6871
 21
28.3526
  0
LINE
  8
0
 10
-87.6871
 20
28.3526
 11
-88.1448
 21
27.9227
  0
LINE
  8
0
 10
-88.1448
 20
27.9227
 11
-88.5451
 21
27.4389
  0
LINE
  8
0
 10
-88.5451
 20
27.4389
 11
-88.8815
 21
26.9088
  0
LINE
  8
0
 10
-88.8815
 20
26.9088
 11
-89.1489
 21
26.3406
  0
LINE
  8
0
 10
-89.1489
 20
26.3406
 11
-89.3429
 21
25.7434
  0
LINE
  8
0
 10
-89.3429
 20
25.7434
 11
-89.4606
 21
25.1267
  0
LINE
  8
0
 10
-89.4606
 20
25.1267
 11
-89.5
 21
24.5
  0
LINE
  8
0
 10
-89.5
 20
24.5
 11
-89.5
 21
-24.5
  0
LINE
  8
0
 10
-89.5
 20
-24.5
 11
-89.4606
 21
-25.1267
  0
LINE
  8
0
 10
-89.4606
 20
-25.1267
 11
-89.3429
 21
-25.7434
  0
LINE
  8
0
 10
-89.3429
 20
-25.7434
 11
-89.1489
 21
-26.3406
  0
LINE
  8
0
 10
-89.1489
 20
-26.3406
 11
-88.8815
 21
-26.9088
  0
LINE
  8
0
 10
-88.8815
 20
-26.9088
 11
-88.5451
 21
-27.4389
  0
LINE
  8
0
 10
-88.5451
 20
-27.4389
 11
-88.1448
 21
-27.9227
  0
LINE
  8
0
 10
-88.1448
 20
-27.9227
 11
-87.6871
 21
-28.3526
  0
LINE
  8
0
 10
-87.6871
 20
-28.3526
 11
-87.1791
 21
-28.7216
  0
LINE
  8
0
 10
-87.1791
 20
-28.7216
 11
-86.6289
 21
-29.0241
  0
LINE
  8
0
 10
-86.6289
 20
-29.0241
 11
-86.0451
 21
-29.2553
  0
LINE
  8
0
 10
-86.0451
 20
-29.2553
 11
-85.4369
 21
-29.4114
  0
LINE
  8
0
 10
-85.4369
 20
-29.4114
 11
-84.8139
 21
-29.4901
  0
LINE
  8
0
 10
-84.8139
 20
-29.4901
 11
84.8139
 21
-29.4901
  0
LINE
  8
0
 10
84.8139
 20
-29.4901
 11
85.4369
 21
-29.4114
  0
LINE
  8
0
 10
82.3116
 20
19.5059
 11
81.9379
 21
19.5531
  0
LINE
  8
0
 10
81.9379
 20
19.5531
 11
81.573
 21
19.6468
  0
LINE
  8
0
 10
81.573
 20
19.6468
 11
81.2227
 21
19.7855
  0
LINE
  8
0
 10
81.2227
 20
19.7855
 11
80.8925
 21
19.967
  0
LINE
  8
0
 10
80.8925
 20
19.967
 11
80.5877
 21
20.1884
  0
LINE
  8
0
 10
80.5877
 20
20.1884
 11
80.3131
 21
20.4464
  0
LINE
  8
0
 10
80.3131
 20
20.4464
 11
80.073
 21
20.7366
  0
LINE
  8
0
 10
80.073
 20
20.7366
 11
79.8711
 21
21.0547
  0
LINE
  8
0
 10
79.8711
 20
21.0547
 11
79.7107
 21
21.3956
  0
LINE
  8
0
 10
79.7107
 20
21.3956
 11
79.5943
 21
21.7539
  0
LINE
  8
0
 10
79.5943
 20
21.7539
 11
79.5237
 21
22.124
  0
LINE
  8
0
 10
79.5237
 20
22.124
 11
79.5
 21
22.5
  0
LINE
  8
0
 10
79.5
 20
22.5
 11
79.5237
 21
22.876
  0
LINE
  8
0
 10
79.5237
 20
22.876
 11
79.5943
 21
23.2461
  0
LINE
  8
0
 10
79.5943
 20
23.2461
 11
79.7107
 21
23.6044
  0
LINE
  8
0
 10
79.7107
 20
23.6044
 11
79.8711
 21
23.9453
  0
LINE
  8
0
 10
79.8711
 20
23.9453
 11
80.073
 21
24.2634
  0
LINE
  8
0
 10
80.073
 20
24.2634
 11
80.3131
 21
24.5536
  0
LINE
  8
0
 10
80.3131
 20
24.5536
 11
80.5877
 21
24.8115
  0
LINE
  8
0
 10
80.5877
 20
24.8115
 11
80.8925
 21
25.033
  0
LINE
  8
0
 10
80.8925
 20
25.033
 11
81.2227
 21
25.2145
  0
LINE
  8
0
 10
81.2227
 20
25.2145
 11
81.573
 21
25.3532
  0
LINE
  8
0
 10
81.573
 20
25.3532
 11
81.9379
 21
25.4469
  0
LINE
  8
0
 10
81.9379
 20
25.4469
 11
82.3116
 21
25.4941
  0
LINE
  8
0
 10
82.3116
 20
25.4941
 11
82.6884
 21
25.4941
  0
LINE
  8
0
 10
82.6884
 20
25.4941
 11
83.0621
 21
25.4469
  0
LINE
  8
0
 10
83.0621
 20
25.4469
 11
83.427
 21
25.3532
  0
LINE
  8
0
 10
83.427
 20
25.3532
 11
83.7773
 21
25.2145
  0
LINE
  8
0
 10
83.7773
 20
25.2145
 11
84.1075
 21
25.033
  0
LINE
  8
0
 10
84.1075
 20
25.033
 11
84.4123
 21
24.8115
  0
LINE
  8
0
 10
84.4123
 20
24.8115
 11
84.6869
 21
24.5536
  0
LINE
  8
0
 10
84.6869
 20
24.5536
 11
84.927
 21
24.2634
  0
LINE
  8
0
 10
84.927
 20
24.2634
 11
85.1289
 21
23.9453
  0
LINE
  8
0
 10
85.1289
 20
23.9453
 11
85.2893
 21
23.6044
  0
LINE
  8
0
 10
85.2893
 20
23.6044
 11
85.4057
 21
23.2461
  0
LINE
  8
0
 10
85.4057
 20
23.2461
 11
85.4763
 21
22.876
  0
LINE
  8
0
 10
85.4763
 20
22.876
 11
85.5
 21
22.5
  0
LINE
  8
0
 10
85.5
 20
22.5
 11
85.4763
 21
22.124
  0
LINE
  8
0
 10
85.4763
 20
22.124
 11
85.4057
 21
21.7539
  0
LINE
  8
0
 10
85.4057
 20
21.7539
 11
85.2893
 21
21.3956
  0
LINE
  8
0
 10
85.2893
 20
21.3956
 11
85.1289
 21
21.0547
  0
LINE
  8
0
 10
85.1289
 20
21.0547
 11
84.927
 21
20.7366
  0
LINE
  8
0
 10
84.927
 20
20.7366
 11
84.6869
 21
20.4464
  0
LINE
  8
0
 10
84.6869
 20
20.4464
 11
84.4123
 21
20.1884
  0
LINE
  8
0
 10
84.4123
 20
20.1884
 11
84.1075
 21
19.967
  0
LINE
  8
0
 10
84.1075
 20
19.967
 11
83.7773
 21
19.7855
  0
LINE
  8
0
 10
83.7773
 20
19.7855
 11
83.427
 21
19.6468
  0
LINE
  8
0
 10
83.427
 20
19.6468
 11
83.0621
 21
19.5531
  0
LINE
  8
0
 10
83.0621
 20
19.5531
 11
82.6884
 21
19.5059
  0
LINE
  8
0
 10
82.6884
 20
19.5059
 11
82.3116
 21
19.5059
  0
LINE
  8
0
 10
-82.6884
 20
19.5059
 11
-83.0621
 21
19.5531
  0
LINE
  8
0
 10
-83.0621
 20
19.5531
 11
-83.427
 21
19.6468
  0
LINE
  8
0
 10
-83.427
 20
19.6468
 11
-83.7773
 21
19.7855
  0
LINE
  8
0
 10
-83.7773
 20
19.7855
 11
-84.1075
 21
19.967
  0
LINE
  8
0
 10
-84.1075
 20
19.967
 11
-84.4123
 21
20.1884
  0
LINE
  8
0
 10
-84.4123
 20
20.1884
 11
-84.6869
 21
20.4464
  0
LINE
  8
0
 10
-84.6869
 20
20.4464
 11
-84.927
 21
20.7366
  0
LINE
  8
0
 10
-84.927
 20
20.7366
 11
-85.1289
 21
21.0547
  0
LINE
  8
0
 10
-85.1289
 20
21.0547
 11
-85.2893
 21
21.3956
  0
LINE
  8
0
 10
-85.2893
 20
21.3956
 11
-85.4057
 21
21.7539
  0
LINE
  8
0
 10
-85.4057
 20
21.7539
 11
-85.4763
 21
22.124
  0
LINE
  8
0
 10
-85.4763
 20
22.124
 11
-85.5
 21
22.5
  0
LINE
  8
0
 10
-85.5
 20
22.5
 11
-85.4763
 21
22.876
  0
LINE
  8
0
 10
-85.4763
 20
22.876
 11
-85.4057
 21
23.2461
  0
LINE
  8
0
 10
-85.4057
 20
23.2461
 11
-85.2893
 21
23.6044
  0
LINE
  8
0
 10
-85.2893
 20
23.6044
 11
-85.1289
 21
23.9453
  0
LINE
  8
0
 10
-85.1289
 20
23.9453
 11
-84.927
 21
24.2634
  0
LINE
  8
0
 10
-84.927
 20
24.2634
 11
-84.6869
 21
24.5536
  0
LINE
  8
0
 10
-84.6869
 20
24.5536
 11
-84.4123
 21
24.8115
  0
LINE
  8
0
 10
-84.4123
 20
24.8115
 11
-84.1075
 21
25.033
  0
LINE
  8
0
 10
-84.1075
 20
25.033
 11
-83.7773
 21
25.2145
  0
LINE
  8
0
 10
-83.7773
 20
25.2145
 11
-83.427
 21
25.3532
  0
LINE
  8
0
 10
-83.427
 20
25.3532
 11
-83.0621
 21
25.4469
  0
LINE
  8
0
 10
-83.0621
 20
25.4469
 11
-82.6884
 21
25.4941
  0
LINE
  8
0
 10
-82.6884
 20
25.4941
 11
-82.3116
 21
25.4941
  0
LINE
  8
0
 10
-82.3116
 20
25.4941
 11
-81.9379
 21
25.4469
  0
LINE
  8
0
 10
-81.9379
 20
25.4469
 11
-81.573
 21
25.3532
  0
LINE
  8
0
 10
-81.573
 20
25.3532
 11
-81.2227
 21
25.2145
  0
LINE
  8
0
 10
-81.2227
 20
25.2145
 11
-80.8925
 21
25.033
  0
LINE
  8
0
 10
-80.8925
 20
25.033
 11
-80.5877
 21
24.8115
  0
LINE
  8
0
 10
-80.5877
 20
24.8115
 11
-80.3131
 21
24.5536
  0
LINE
  8
0
 10
-80.3131
 20
24.5536
 11
-80.073
 21
24.2634
  0
LINE
  8
0
 10
-80.073
 20
24.2634
 11
-79.8711
 21
23.9453
  0
LINE
  8
0
 10
-79.8711
 20
23.9453
 11
-79.7107
 21
23.6044
  0
LINE
  8
0
 10
-79.7107
 20
23.6044
 11
-79.5943
 21
23.2461
  0
LINE
  8
0
 10
-79.5943
 20
23.2461
 11
-79.5237
 21
22.876
  0
LINE
  8
0
 10
-79.5237
 20
22.876
 11
-79.5
 21
22.5
  0
LINE
  8
0
 10
-79.5
 20
22.5
 11
-79.5237
 21
22.124
  0
LINE
  8
0
 10
-79.5237
 20
22.124
 11
-79.5943
 21
21.7539
  0
LINE
  8
0
 10
-79.5943
 20
21.7539
 11
-79.7107
 21
21.3956
  0
LINE
  8
0
 10
-79.7107
 20
21.3956
 11
-79.8711
 21
21.0547
  0
LINE
  8
0
 10
-79.8711
 20
21.0547
 11
-80.073
 21
20.7366
  0
LINE
  8
0
 10
-80.073
 20
20.7366
 11
-80.3131
 21
20.4464
  0
LINE
  8
0
 10
-80.3131
 20
20.4464
 11
-80.5877
 21
20.1884
  0
LINE
  8
0
 10
-80.5877
 20
20.1884
 11
-80.8925
 21
19.967
  0
LINE
  8
0
 10
-80.8925
 20
19.967
 11
-81.2227
 21
19.7855
  0
LINE
  8
0
 10
-81.2227
 20
19.7855
 11
-81.573
 21
19.6468
  0
LINE
  8
0
 10
-81.573
 20
19.6468
 11
-81.9379
 21
19.5531
  0
LINE
  8
0
 10
-81.9379
 20
19.5531
 11
-82.3116
 21
19.5059
  0
LINE
  8
0
 10
-82.3116
 20
19.5059
 11
-82.6884
 21
19.5059
  0
LINE
  8
0
 10
20.7756
 20
-19.4615
 11
18.3461
 21
-19.1546
  0
LINE
  8
0
 10
18.3461
 20
-19.1546
 11
15.9742
 21
-18.5456
  0
LINE
  8
0
 10
15.9742
 20
-18.5456
 11
13.6973
 21
-17.6441
  0
LINE
  8
0
 10
13.6973
 20
-17.6441
 11
11.5514
 21
-16.4644
  0
LINE
  8
0
 10
11.5514
 20
-16.4644
 11
9.57022
 21
-15.025
  0
LINE
  8
0
 10
9.57022
 20
-15.025
 11
7.78511
 21
-13.3487
  0
LINE
  8
0
 10
7.78511
 20
-13.3487
 11
6.22417
 21
-11.4618
  0
LINE
  8
0
 10
6.22417
 20
-11.4618
 11
4.91202
 21
-9.3942
  0
LINE
  8
0
 10
4.91202
 20
-9.3942
 11
3.86935
 21
-7.17842
  0
LINE
  8
0
 10
3.86935
 20
-7.17842
 11
3.11263
 21
-4.84944
  0
LINE
  8
0
 10
3.11263
 20
-4.84944
 11
2.65376
 21
-2.44398
  0
LINE
  8
0
 10
2.65376
 20
-2.44398
 11
2.5
 21
0
  0
LINE
  8
0
 10
2.5
 20
0
 11
2.65376
 21
2.44398
  0
LINE
  8
0
 10
2.65376
 20
2.44398
 11
3.11263
 21
4.84944
  0
LINE
  8
0
 10
3.11263
 20
4.84944
 11
3.86935
 21
7.17842
  0
LINE
  8
0
 10
3.86935
 20
7.17842
 11
4.91202
 21
9.3942
  0
LINE
  8
0
 10
4.91202
 20
9.3942
 11
6.22417
 21
11.4618
  0
LINE
  8
0
 10
6.22417
 20
11.4618
 11
7.78511
 21
13.3487
  0
LINE
  8
0
 10
7.78511
 20
13.3487
 11
9.57022
 21
15.025
  0
LINE
  8
0
 10
9.57022
 20
15.025
 11
11.5514
 21
16.4644
  0
LINE
  8
0
 10
11.5514
 20
16.4644
 11
13.6973
 21
17.6441
  0
LINE
  8
0
 10
13.6973
 20
17.6441
 11
15.9742
 21
18.5456
  0
LINE
  8
0
 10
15.9742
 20
18.5456
 11
18.3461
 21
19.1546
  0
LINE
  8
0
 10
18.3461
 20
19.1546
 11
20.7756
 21
19.4615
  0
LINE
  8
0
 10
20.7756
 20
19.4615
 11
23.2244
 21
19.4615
  0
LINE
  8
0
 10
23.2244
 20
19.4615
 11
25.6539
 21
19.1546
  0
LINE
  8
0
 10
25.6539
 20
19.1546
 11
28.0258
 21
18.5456
  0
LINE
  8
0
 10
28.0258
 20
18.5456
 11
30.3027
 21
17.6441
  0
LINE
  8
0
 10
30.3027
 20
17.6441
 11
32.4486
 21
16.4644
  0
LINE
  8
0
 10
32.4486
 20
16.4644
 11
34.4298
 21
15.025
  0
LINE
  8
0
 10
34.4298
 20
15.025
 11
36.2149
 21
13.3487
  0
LINE
  8
0
 10
36.2149
 20
13.3487
 11
37.7758
 21
11.4618
  0
LINE
  8
0
 10
37.7758
 20
11.4618
 11
39.088
 21
9.3942
  0
LINE
  8
0
 10
39.088
 20
9.3942
 11
40.1306
 21
7.17842
  0
LINE
  8
0
 10
40.1306
 20
7.17842
 11
40.8874
 21
4.84944
  0
LINE
  8
0
 10
40.8874
 20
4.84944
 11
41.3462
 21
2.44398
  0
LINE
  8
0
 10
41.3462
 20
2.44398
 11
41.5
 21
0
  0
LINE
  8
0
 10
41.5
 20
0
 11
41.3462
 21
-2.44398
  0
LINE
  8
0
 10
41.3462
 20
-2.44398
 11
40.8874
 21
-4.84944
  0
LINE
  8
0
 10
40.8874
 20
-4.84944
 11
40.1306
 21
-7.17842
  0
LINE
  8
0
 10
40.1306
 20
-7.17842
 11
39.088
 21
-9.3942
  0
LINE
  8
0
 10
39.088
 20
-9.3942
 11
37.7758
 21
-11.4618
  0
LINE
  8
0
 10
37.7758
 20
-11.4618
 11
36.2149
 21
-13.3487
  0
LINE
  8
0
 10
36.2149
 20
-13.3487
 11
34.4298
 21
-15.025
  0
LINE
  8
0
 10
34.4298
 20
-15.025
 11
32.4486
 21
-16.4644
  0
LINE
  8
0
 10
32.4486
 20
-16.4644
 11
30.3027
 21
-17.6441
  0
LINE
  8
0
 10
30.3027
 20
-17.6441
 11
28.0258
 21
-18.5456
  0
LINE
  8
0
 10
28.0258
 20
-18.5456
 11
25.6539
 21
-19.1546
  0
LINE
  8
0
 10
25.6539
 20
-19.1546
 11
23.2244
 21
-19.4615
  0
LINE
  8
0
 10
23.2244
 20
-19.4615
 11
20.7756
 21
-19.4615
  0
LINE
  8
0
 10
-23.2244
 20
-19.4615
 11
-25.6539
 21
-19.1546
  0
LINE
  8
0
 10
-25.6539
 20
-19.1546
 11
-28.0258
 21
-18.5456
  0
LINE
  8
0
 10
-28.0258
 20
-18.5456
 11
-30.3027
 21
-17.6441
  0
LINE
  8
0
 10
-30.3027
 20
-17.6441
 11
-32.4486
 21
-16.4644
  0
LINE
  8
0
 10
-32.4486
 20
-16.4644
 11
-34.4298
 21
-15.025
  0
LINE
  8
0
 10
-34.4298
 20
-15.025
 11
-36.2149
 21
-13.3487
  0
LINE
  8
0
 10
-36.2149
 20
-13.3487
 11
-37.7758
 21
-11.4618
  0
LINE
  8
0
 10
-37.7758
 20
-11.4618
 11
-39.088
 21
-9.3942
  0
LINE
  8
0
 10
-39.088
 20
-9.3942
 11
-40.1306
 21
-7.17842
  0
LINE
  8
0
 10
-40.1306
 20
-7.17842
 11
-40.8874
 21
-4.84944
  0
LINE
  8
0
 10
-40.8874
 20
-4.84944
 11
-41.3462
 21
-2.44398
  0
LINE
  8
0
 10
-41.3462
 20
-2.44398
 11
-41.5
 21
0
  0
LINE
  8
0
 10
-41.5
 20
0
 11
-41.3462
 21
2.44398
  0
LINE
  8
0
 10
-41.3462
 20
2.44398
 11
-40.8874
 21
4.84944
  0
LINE
  8
0
 10
-40.8874
 20
4.84944
 11
-40.1306
 21
7.17842
  0
LINE
  8
0
 10
-40.1306
 20
7.17842
 11
-39.088
 21
9.3942
  0
LINE
  8
0
 10
-39.088
 20
9.3942
 11
-37.7758
 21
11.4618
  0
LINE
  8
0
 10
-37.7758
 20
11.4618
 11
-36.2149
 21
13.3487
  0
LINE
  8
0
 10
-36.2149
 20
13.3487
 11
-34.4298
 21
15.025
  0
LINE
  8
0
 10
-34.4298
 20
15.025
 11
-32.4486
 21
16.4644
  0
LINE
  8
0
 10
-32.4486
 20
16.4644
 11
-30.3027
 21
17.6441
  0
LINE
  8
0
 10
-30.3027
 20
17.6441
 11
-28.0258
 21
18.5456
  0
LINE
  8
0
 10
-28.0258
 20
18.5456
 11
-25.6539
 21
19.1546
  0
LINE
  8
0
 10
-25.6539
 20
19.1546
 11
-23.2244
 21
19.4615
  0
LINE
  8
0
 10
-23.2244
 20
19.4615
 11
-20.7756
 21
19.4615
  0
LINE
  8
0
 10
-20.7756
 20
19.4615
 11
-18.3461
 21
19.1546
  0
LINE
  8
0
 10
-18.3461
 20
19.1546
 11
-15.9742
 21
18.5456
  0
LINE
  8
0
 10
-15.9742
 20
18.5456
 11
-13.6973
 21
17.6441
  0
LINE
  8
0
 10
-13.6973
 20
17.6441
 11
-11.5514
 21
16.4644
  0
LINE
  8
0
 10
-11.5514
 20
16.4644
 11
-9.57022
 21
15.025
  0
LINE
  8
0
 10
-9.57022
 20
15.025
 11
-7.78511
 21
13.3487
  0
LINE
  8
0
 10
-7.78511
 20
13.3487
 11
-6.22417
 21
11.4618
  0
LINE
  8
0
 10
-6.22417
 20
11.4618
 11
-4.91202
 21
9.3942
  0
LINE
  8
0
 10
-4.91202
 20
9.3942
 11
-3.86935
 21
7.17842
  0
LINE
  8
0
 10
-3.86935
 20
7.17842
 11
-3.11263
 21
4.84944
  0
LINE
  8
0
 10
-3.11263
 20
4.84944
 11
-2.65376
 21
2.44398
  0
LINE
  8
0
 10
-2.65376
 20
2.44398
 11
-2.5
 21
0
  0
LINE
  8
0
 10
-2.5
 20
0
 11
-2.65376
 21
-2.44398
  0
LINE
  8
0
 10
-2.65376
 20
-2.44398
 11
-3.11263
 21
-4.84944
  0
LINE
  8
0
 10
-3.11263
 20
-4.84944
 11
-3.86935
 21
-7.17842
  0
LINE
  8
0
 10
-3.86935
 20
-7.17842
 11
-4.91202
 21
-9.3942
  0
LINE
  8
0
 10
-4.91202
 20
-9.3942
 11
-6.22417
 21
-11.4618
  0
LINE
  8
0
 10
-6.22417
 20
-11.4618
 11
-7.78511
 21
-13.3487
  0
LINE
  8
0
 10
-7.78511
 20
-13.3487
 11
-9.57022
 21
-15.025
  0
LINE
  8
0
 10
-9.57022
 20
-15.025
 11
-11.5514
 21
-16.4644
  0
LINE
  8
0
 10
-11.5514
 20
-16.4644
 11
-13.6973
 21
-17.6441
  0
LINE
  8
0
 10
-13.6973
 20
-17.6441
 11
-15.9742
 21
-18.5456
  0
LINE
  8
0
 10
-15.9742
 20
-18.5456
 11
-18.3461
 21
-19.1546
  0
LINE
  8
0
 10
-18.3461
 20
-19.1546
 11
-20.7756
 21
-19.4615
  0
LINE
  8
0
 10
-20.7756
 20
-19.4615
 11
-23.2244
 21
-19.4615
  0
LINE
  8
0
 10
-67.2244
 20
-19.4615
 11
-69.6539
 21
-19.1546
  0
LINE
  8
0
 10
-69.6539
 20
-19.1546
 11
-72.0258
 21
-18.5456
  0
LINE
  8
0
 10
-72.0258
 20
-18.5456
 11
-74.3027
 21
-17.6441
  0
LINE
  8
0
 10
-74.3027
 20
-17.6441
 11
-76.4486
 21
-16.4644
  0
LINE
  8
0
 10
-76.4486
 20
-16.4644
 11
-78.4298
 21
-15.025
  0
LINE
  8
0
 10
-78.4298
 20
-15.025
 11
-80.2149
 21
-13.3487
  0
LINE
  8
0
 10
-80.2149
 20
-13.3487
 11
-81.7758
 21
-11.4618
  0
LINE
  8
0
 10
-81.7758
 20
-11.4618
 11
-83.088
 21
-9.3942
  0
LINE
  8
0
 10
-83.088
 20
-9.3942
 11
-84.1306
 21
-7.17842
  0
LINE
  8
0
 10
-84.1306
 20
-7.17842
 11
-84.8874
 21
-4.84944
  0
LINE
  8
0
 10
-84.8874
 20
-4.84944
 11
-85.3462
 21
-2.44398
  0
LINE
  8
0
 10
-85.3462
 20
-2.44398
 11
-85.5
 21
0
  0
LINE
  8
0
 10
-85.5
 20
0
 11
-85.3462
 21
2.44398
  0
LINE
  8
0
 10
-85.3462
 20
2.44398
 11
-84.8874
 21
4.84944
  0
LINE
  8
0
 10
-84.8874
 20
4.84944
 11
-84.1306
 21
7.17842
  0
LINE
  8
0
 10
-84.1306
 20
7.17842
 11
-83.088
 21
9.3942
  0
LINE
  8
0
 10
-83.088
 20
9.3942
 11
-81.7758
 21
11.4618
  0
LINE
  8
0
 10
-81.7758
 20
11.4618
 11
-80.2149
 21
13.3487
  0
LINE
  8
0
 10
-80.2149
 20
13.3487
 11
-78.4298
 21
15.025
  0
LINE
  8
0
 10
-78.4298
 20
15.025
 11
-76.4486
 21
16.4644
  0
LINE
  8
0
 10
-76.4486
 20
16.4644
 11
-74.3027
 21
17.6441
  0
LINE
  8
0
 10
-74.3027
 20
17.6441
 11
-72.0258
 21
18.5456
  0
LINE
  8
0
 10
-72.0258
 20
18.5456
 11
-69.6539
 21
19.1546
  0
LINE
  8
0
 10
-69.6539
 20
19.1546
 11
-67.2244
 21
19.4615
  0
LINE
  8
0
 10
-67.2244
 20
19.4615
 11
-64.7756
 21
19.4615
  0
LINE
  8
0
 10
-64.7756
 20
19.4615
 11
-62.3461
 21
19.1546
  0
LINE
  8
0
 10
-62.3461
 20
19.1546
 11
-59.9742
 21
18.5456
  0
LINE
  8
0
 10
-59.9742
 20
18.5456
 11
-57.6973
 21
17.6441
  0
LINE
  8
0
 10
-57.6973
 20
17.6441
 11
-55.5514
 21
16.4644
  0
LINE
  8
0
 10
-55.5514
 20
16.4644
 11
-53.5702
 21
15.025
  0
LINE
  8
0
 10
-53.5702
 20
15.025
 11
-51.7851
 21
13.3487
  0
LINE
  8
0
 10
-51.7851
 20
13.3487
 11
-50.2242
 21
11.4618
  0
LINE
  8
0
 10
-50.2242
 20
11.4618
 11
-48.912
 21
9.3942
  0
LINE
  8
0
 10
-48.912
 20
9.3942
 11
-47.8694
 21
7.17842
  0
LINE
  8
0
 10
-47.8694
 20
7.17842
 11
-47.1126
 21
4.84944
  0
LINE
  8
0
 10
-47.1126
 20
4.84944
 11
-46.6538
 21
2.44398
  0
LINE
  8
0
 10
-46.6538
 20
2.44398
 11
-46.5
 21
0
  0
LINE
  8
0
 10
-46.5
 20
0
 11
-46.6538
 21
-2.44398
  0
LINE
  8
0
 10
-46.6538
 20
-2.44398
 11
-47.1126
 21
-4.84944
  0
LINE
  8
0
 10
-47.1126
 20
-4.84944
 11
-47.8694
 21
-7.17842
  0
LINE
  8
0
 10
-47.8694
 20
-7.17842
 11
-48.912
 21
-9.3942
  0
LINE
  8
0
 10
-48.912
 20
-9.3942
 11
-50.2242
 21
-11.4618
  0
LINE
  8
0
 10
-50.2242
 20
-11.4618
 11
-51.7851
 21
-13.3487
  0
LINE
  8
0
 10
-51.7851
 20
-13.3487
 11
-53.5702
 21
-15.025
  0
LINE
  8
0
 10
-53.5702
 20
-15.025
 11
-55.5514
 21
-16.4644
  0
LINE
  8
0
 10
-55.5514
 20
-16.4644
 11
-57.6973
 21
-17.6441
  0
LINE
  8
0
 10
-57.6973
 20
-17.6441
 11
-59.9742
 21
-18.5456
  0
LINE
  8
0
 10
-59.9742
 20
-18.5456
 11
-62.3461
 21
-19.1546
  0
LINE
  8
0
 10
-62.3461
 20
-19.1546
 11
-64.7756
 21
-19.4615
  0
LINE
  8
0
 10
-64.7756
 20
-19.4615
 11
-67.2244
 21
-19.4615
  0
LINE
  8
0
 10
64.7756
 20
-19.4615
 11
62.3461
 21
-19.1546
  0
LINE
  8
0
 10
62.3461
 20
-19.1546
 11
59.9742
 21
-18.5456
  0
LINE
  8
0
 10
59.9742
 20
-18.5456
 11
57.6973
 21
-17.6441
  0
LINE
  8
0
 10
57.6973
 20
-17.6441
 11
55.5514
 21
-16.4644
  0
LINE
  8
0
 10
55.5514
 20
-16.4644
 11
53.5702
 21
-15.025
  0
LINE
  8
0
 10
53.5702
 20
-15.025
 11
51.7851
 21
-13.3487
  0
LINE
  8
0
 10
51.7851
 20
-13.3487
 11
50.2242
 21
-11.4618
  0
LINE
  8
0
 10
50.2242
 20
-11.4618
 11
48.912
 21
-9.3942
  0
LINE
  8
0
 10
48.912
 20
-9.3942
 11
47.8694
 21
-7.17842
  0
LINE
  8
0
 10
47.8694
 20
-7.17842
 11
47.1126
 21
-4.84944
  0
LINE
  8
0
 10
47.1126
 20
-4.84944
 11
46.6538
 21
-2.44398
  0
LINE
  8
0
 10
46.6538
 20
-2.44398
 11
46.5
 21
0
  0
LINE
  8
0
 10
46.5
 20
0
 11
46.6538
 21
2.44398
  0
LINE
  8
0
 10
46.6538
 20
2.44398
 11
47.1126
 21
4.84944
  0
LINE
  8
0
 10
47.1126
 20
4.84944
 11
47.8694
 21
7.17842
  0
LINE
  8
0
 10
47.8694
 20
7.17842
 11
48.912
 21
9.3942
  0
LINE
  8
0
 10
48.912
 20
9.3942
 11
50.2242
 21
11.4618
  0
LINE
  8
0
 10
50.2242
 20
11.4618
 11
51.7851
 21
13.3487
  0
LINE
  8
0
 10
51.7851
 20
13.3487
 11
53.5702
 21
15.025
  0
LINE
  8
0
 10
53.5702
 20
15.025
 11
55.5514
 21
16.4644
  0
LINE
  8
0
 10
55.5514
 20
16.4644
 11
57.6973
 21
17.6441
  0
LINE
  8
0
 10
57.6973
 20
17.6441
 11
59.9742
 21
18.5456
  0
LINE
  8
0
 10
59.9742
 20
18.5456
 11
62.3461
 21
19.1546
  0
LINE
  8
0
 10
62.3461
 20
19.1546
 11
64.7756
 21
19.4615
  0
LINE
  8
0
 10
64.7756
 20
19.4615
 11
67.2244
 21
19.4615
  0
LINE
  8
0
 10
67.2244
 20
19.4615
 11
69.6539
 21
19.1546
  0
LINE
  8
0
 10
69.6539
 20
19.1546
 11
72.0258
 21
18.5456
  0
LINE
  8
0
 10
72.0258
 20
18.5456
 11
74.3027
 21
17.6441
  0
LINE
  8
0
 10
74.3027
 20
17.6441
 11
76.4486
 21
16.4644
  0
LINE
  8
0
 10
76.4486
 20
16.4644
 11
78.4298
 21
15.025
  0
LINE
  8
0
 10
78.4298
 20
15.025
 11
80.2149
 21
13.3487
  0
LINE
  8
0
 10
80.2149
 20
13.3487
 11
81.7758
 21
11.4618
  0
LINE
  8
0
 10
81.7758
 20
11.4618
 11
83.088
 21
9.3942
  0
LINE
  8
0
 10
83.088
 20
9.3942
 11
84.1306
 21
7.17842
  0
LINE
  8
0
 10
84.1306
 20
7.17842
 11
84.8874
 21
4.84944
  0
LINE
  8
0
 10
84.8874
 20
4.84944
 11
85.3462
 21
2.44398
  0
LINE
  8
0
 10
85.3462
 20
2.44398
 11
85.5
 21
0
  0
LINE
  8
0
 10
85.5
 20
0
 11
85.3462
 21
-2.44398
  0
LINE
  8
0
 10
85.3462
 20
-2.44398
 11
84.8874
 21
-4.84944
  0
LINE
  8
0
 10
84.8874
 20
-4.84944
 11
84.1306
 21
-7.17842
  0
LINE
  8
0
 10
84.1306
 20
-7.17842
 11
83.088
 21
-9.3942
  0
LINE
  8
0
 10
83.088
 20
-9.3942
 11
81.7758
 21
-11.4618
  0
LINE
  8
0
 10
81.7758
 20
-11.4618
 11
80.2149
 21
-13.3487
  0
LINE
  8
0
 10
80.2149
 20
-13.3487
 11
78.4298
 21
-15.025
  0
LINE
  8
0
 10
78.4298
 20
-15.025
 11
76.4486
 21
-16.4644
  0
LINE
  8
0
 10
76.4486
 20
-16.4644
 11
74.3027
 21
-17.6441
  0
LINE
  8
0
 10
74.3027
 20
-17.6441
 11
72.0258
 21
-18.5456
  0
LINE
  8
0
 10
72.0258
 20
-18.5456
 11
69.6539
 21
-19.1546
  0
LINE
  8
0
 10
69.6539
 20
-19.1546
 11
67.2244
 21
-19.4615
  0
LINE
  8
0
 10
67.2244
 20
-19.4615
 11
64.7756
 21
-19.4615
  0
LINE
  8
0
 10
82.3116
 20
-25.4941
 11
81.9379
 21
-25.4469
  0
LINE
  8
0
 10
81.9379
 20
-25.4469
 11
81.573
 21
-25.3532
  0
LINE
  8
0
 10
81.573
 20
-25.3532
 11
81.2227
 21
-25.2145
  0
LINE
  8
0
 10
81.2227
 20
-25.2145
 11
80.8925
 21
-25.033
  0
LINE
  8
0
 10
80.8925
 20
-25.033
 11
80.5877
 21
-24.8115
  0
LINE
  8
0
 10
80.5877
 20
-24.8115
 11
80.3131
 21
-24.5536
  0
LINE
  8
0
 10
80.3131
 20
-24.5536
 11
80.073
 21
-24.2634
  0
LINE
  8
0
 10
80.073
 20
-24.2634
 11
79.8711
 21
-23.9453
  0
LINE
  8
0
 10
79.8711
 20
-23.9453
 11
79.7107
 21
-23.6044
  0
LINE
  8
0
 10
79.7107
 20
-23.6044
 11
79.5943
 21
-23.2461
  0
LINE
  8
0
 10
79.5943
 20
-23.2461
 11
79.5237
 21
-22.876
  0
LINE
  8
0
 10
79.5237
 20
-22.876
 11
79.5
 21
-22.5
  0
LINE
  8
0
 10
79.5
 20
-22.5
 11
79.5237
 21
-22.124
  0
LINE
  8
0
 10
79.5237
 20
-22.124
 11
79.5943
 21
-21.7539
  0
LINE
  8
0
 10
79.5943
 20
-21.7539
 11
79.7107
 21
-21.3956
  0
LINE
  8
0
 10
79.7107
 20
-21.3956
 11
79.8711
 21
-21.0547
  0
LINE
  8
0
 10
79.8711
 20
-21.0547
 11
80.073
 21
-20.7366
  0
LINE
  8
0
 10
80.073
 20
-20.7366
 11
80.3131
 21
-20.4464
  0
LINE
  8
0
 10
80.3131
 20
-20.4464
 11
80.5877
 21
-20.1884
  0
LINE
  8
0
 10
80.5877
 20
-20.1884
 11
80.8925
 21
-19.967
  0
LINE
  8
0
 10
80.8925
 20
-19.967
 11
81.2227
 21
-19.7855
  0
LINE
  8
0
 10
81.2227
 20
-19.7855
 11
81.573
 21
-19.6468
  0
LINE
  8
0
 10
81.573
 20
-19.6468
 11
81.9379
 21
-19.5531
  0
LINE
  8
0
 10
81.9379
 20
-19.5531
 11
82.3116
 21
-19.5059
  0
LINE
  8
0
 10
82.3116
 20
-19.5059
 11
82.6884
 21
-19.5059
  0
LINE
  8
0
 10
82.6884
 20
-19.5059
 11
83.0621
 21
-19.5531
  0
LINE
  8
0
 10
83.0621
 20
-19.5531
 11
83.427
 21
-19.6468
  0
LINE
  8
0
 10
83.427
 20
-19.6468
 11
83.7773
 21
-19.7855
  0
LINE
  8
0
 10
83.7773
 20
-19.7855
 11
84.1075
 21
-19.967
  0
LINE
  8
0
 10
84.1075
 20
-19.967
 11
84.4123
 21
-20.1884
  0
LINE
  8
0
 10
84.4123
 20
-20.1884
 11
84.6869
 21
-20.4464
  0
LINE
  8
0
 10
84.6869
 20
-20.4464
 11
84.927
 21
-20.7366
  0
LINE
  8
0
 10
84.927
 20
-20.7366
 11
85.1289
 21
-21.0547
  0
LINE
  8
0
 10
85.1289
 20
-21.0547
 11
85.2893
 21
-21.3956
  0
LINE
  8
0
 10
85.2893
 20
-21.3956
 11
85.4057
 21
-21.7539
  0
LINE
  8
0
 10
85.4057
 20
-21.7539
 11
85.4763
 21
-22.124
  0
LINE
  8
0
 10
85.4763
 20
-22.124
 11
85.5
 21
-22.5
  0
LINE
  8
0
 10
85.5
 20
-22.5
 11
85.4763
 21
-22.876
  0
LINE
  8
0
 10
85.4763
 20
-22.876
 11
85.4057
 21
-23.2461
  0
LINE
  8
0
 10
85.4057
 20
-23.2461
 11
85.2893
 21
-23.6044
  0
LINE
  8
0
 10
85.2893
 20
-23.6044
 11
85.1289
 21
-23.9453
  0
LINE
  8
0
 10
85.1289
 20
-23.9453
 11
84.927
 21
-24.2634
  0
LINE
  8
0
 10
84.927
 20
-24.2634
 11
84.6869
 21
-24.5536
  0
LINE
  8
0
 10
84.6869
 20
-24.5536
 11
84.4123
 21
-24.8115
  0
LINE
  8
0
 10
84.4123
 20
-24.8115
 11
84.1075
 21
-25.033
  0
LINE
  8
0
 10
84.1075
 20
-25.033
 11
83.7773
 21
-25.2145
  0
LINE
  8
0
 10
83.7773
 20
-25.2145
 11
83.427
 21
-25.3532
  0
LINE
  8
0
 10
83.427
 20
-25.3532
 11
83.0621
 21
-25.4469
  0
LINE
  8
0
 10
83.0621
 20
-25.4469
 11
82.6884
 21
-25.4941
  0
LINE
  8
0
 10
82.6884
 20
-25.4941
 11
82.3116
 21
-25.4941
  0
LINE
  8
0
 10
-82.6884
 20
-25.4941
 11
-83.0621
 21
-25.4469
  0
LINE
  8
0
 10
-83.0621
 20
-25.4469
 11
-83.427
 21
-25.3532
  0
LINE
  8
0
 10
-83.427
 20
-25.3532
 11
-83.7773
 21
-25.2145
  0
LINE
  8
0
 10
-83.7773
 20
-25.2145
 11
-84.1075
 21
-25.033
  0
LINE
  8
0
 10
-84.1075
 20
-25.033
 11
-84.4123
 21
-24.8115
  0
LINE
  8
0
 10
-84.4123
 20
-24.8115
 11
-84.6869
 21
-24.5536
  0
LINE
  8
0
 10
-84.6869
 20
-24.5536
 11
-84.927
 21
-24.2634
  0
LINE
  8
0
 10
-84.927
 20
-24.2634
 11
-85.1289
 21
-23.9453
  0
LINE
  8
0
 10
-85.1289
 20
-23.9453
 11
-85.2893
 21
-23.6044
  0
LINE
  8
0
 10
-85.2893
 20
-23.6044
 11
-85.4057
 21
-23.2461
  0
LINE
  8
0
 10
-85.4057
 20
-23.2461
 11
-85.4763
 21
-22.876
  0
LINE
  8
0
 10
-85.4763
 20
-22.876
 11
-85.5
 21
-22.5
  0
LINE
  8
0
 10
-85.5
 20
-22.5
 11
-85.4763
 21
-22.124
  0
LINE
  8
0
 10
-85.4763
 20
-22.124
 11
-85.4057
 21
-21.7539
  0
LINE
  8
0
 10
-85.4057
 20
-21.7539
 11
-85.2893
 21
-21.3956
  0
LINE
  8
0
 10
-85.2893
 20
-21.3956
 11
-85.1289
 21
-21.0547
  0
LINE
  8
0
 10
-85.1289
 20
-21.0547
 11
-84.927
 21
-20.7366
  0
LINE
  8
0
 10
-84.927
 20
-20.7366
 11
-84.6869
 21
-20.4464
  0
LINE
  8
0
 10
-84.6869
 20
-20.4464
 11
-84.4123
 21
-20.1884
  0
LINE
  8
0
 10
-84.4123
 20
-20.1884
 11
-84.1075
 21
-19.967
  0
LINE
  8
0
 10
-84.1075
 20
-19.967
 11
-83.7773
 21
-19.7855
  0
LINE
  8
0
 10
-83.7773
 20
-19.7855
 11
-83.427
 21
-19.6468
  0
LINE
  8
0
 10
-83.427
 20
-19.6468
 11
-83.0621
 21
-19.5531
  0
LINE
  8
0
 10
-83.0621
 20
-19.5531
 11
-82.6884
 21
-19.5059
  0
LINE
  8
0
 10
-82.6884
 20
-19.5059
 11
-82.3116
 21
-19.5059
  0
LINE
  8
0
 10
-82.3116
 20
-19.5059
 11
-81.9379
 21
-19.5531
  0
LINE
  8
0
 10
-81.9379
 20
-19.5531
 11
-81.573
 21
-19.6468
  0
LINE
  8
0
 10
-81.573
 20
-19.6468
 11
-81.2227
 21
-19.7855
  0
LINE
  8
0
 10
-81.2227
 20
-19.7855
 11
-80.8925
 21
-19.967
  0
LINE
  8
0
 10
-80.8925
 20
-19.967
 11
-80.5877
 21
-20.1884
  0
LINE
  8
0
 10
-80.5877
 20
-20.1884
 11
-80.3131
 21
-20.4464
  0
LINE
  8
0
 10
-80.3131
 20
-20.4464
 11
-80.073
 21
-20.7366
  0
LINE
  8
0
 10
-80.073
 20
-20.7366
 11
-79.8711
 21
-21.0547
  0
LINE
  8
0
 10
-79.8711
 20
-21.0547
 11
-79.7107
 21
-21.3956
  0
LINE
  8
0
 10
-79.7107
 20
-21.3956
 11
-79.5943
 21
-21.7539
  0
LINE
  8
0
 10
-79.5943
 20
-21.7539
 11
-79.5237
 21
-22.124
  0
LINE
  8
0
 10
-79.5237
 20
-22.124
 11
-79.5
 21
-22.5
  0
LINE
  8
0
 10
-79.5
 20
-22.5
 11
-79.5237
 21
-22.876
  0
LINE
  8
0
 10
-79.5237
 20
-22.876
 11
-79.5943
 21
-23.2461
  0
LINE
  8
0
 10
-79.5943
 20
-23.2461
 11
-79.7107
 21
-23.6044
  0
LINE
  8
0
 10
-79.7107
 20
-23.6044
 11
-79.8711
 21
-23.9453
  0
LINE
  8
0
 10
-79.8711
 20
-23.9453
 11
-80.073
 21
-24.2634
  0
LINE
  8
0
 10
-80.073
 20
-24.2634
 11
-80.3131
 21
-24.5536
  0
LINE
  8
0
 10
-80.3131
 20
-24.5536
 11
-80.5877
 21
-24.8115
  0
LINE
  8
0
 10
-80.5877
 20
-24.8115
 11
-80.8925
 21
-25.033
  0
LINE
  8
0
 10
-80.8925
 20
-25.033
 11
-81.2227
 21
-25.2145
  0
LINE
  8
0
 10
-81.2227
 20
-25.2145
 11
-81.573
 21
-25.3532
  0
LINE
  8
0
 10
-81.573
 20
-25.3532
 11
-81.9379
 21
-25.4469
  0
LINE
  8
0
 10
-81.9379
 20
-25.4469
 11
-82.3116
 21
-25.4941
  0
LINE
  8
0
 10
-82.3116
 20
-25.4941
 11
-82.6884
 21
-25.4941
  0
ENDSEC
  0
SECTION
  2
OBJECTS
  0
DICTIONARY
  0
ENDSEC
  0
EOF
