<?xml version="1.0" standalone="no"?>
<!DOCTYPE svg PUBLIC "-//W3C//DTD SVG 1.1//EN" "http://www.w3.org/Graphics/SVG/1.1/DTD/svg11.dtd">
<svg width="180mm" height="60mm" viewBox="-90 -30 180 60" xmlns="http://www.w3.org/2000/svg" version="1.1">
<title>OpenSCAD Model</title>
<path d="
M 85.4369,29.4114 L 86.0451,29.2553 L 86.6289,29.0241 L 87.1791,28.7216 L 87.6871,28.3526 L 88.1448,27.9227
 L 88.5451,27.4389 L 88.8815,26.9088 L 89.1489,26.3406 L 89.3429,25.7434 L 89.4606,25.1267 L 89.5,24.5
 L 89.5,-24.5 L 89.4606,-25.1267 L 89.3429,-25.7434 L 89.1489,-26.3406 L 88.8815,-26.9088 L 88.5451,-27.4389
 L 88.1448,-27.9227 L 87.6871,-28.3526 L 87.1791,-28.7216 L 86.6289,-29.0241 L 86.0451,-29.2553 L 85.4369,-29.4114
 L 84.8139,-29.4901 L -84.8139,-29.4901 L -85.4369,-29.4114 L -86.0451,-29.2553 L -86.6289,-29.0241 L -87.1791,-28.7216
 L -87.6871,-28.3526 L -88.1448,-27.9227 L -88.5451,-27.4389 L -88.8815,-26.9088 L -89.1489,-26.3406 L -89.3429,-25.7434
 L -89.4606,-25.1267 L -89.5,-24.5 L -89.5,24.5 L -89.4606,25.1267 L -89.3429,25.7434 L -89.1489,26.3406
 L -88.8815,26.9088 L -88.5451,27.4389 L -88.1448,27.9227 L -87.6871,28.3526 L -87.1791,28.7216 L -86.6289,29.0241
 L -86.0451,29.2553 L -85.4369,29.4114 L -84.8139,29.4901 L 84.8139,29.4901 z
M 82.3116,-19.5059 L 81.9379,-19.5531 L 81.573,-19.6468 L 81.2227,-19.7855 L 80.8925,-19.967 L 80.5877,-20.1884
 L 80.3131,-20.4464 L 80.073,-20.7366 L 79.8711,-21.0547 L 79.7107,-21.3956 L 79.5943,-21.7539 L 79.5237,-22.124
 L 79.5,-22.5 L 79.5237,-22.876 L 79.5943,-23.2461 L 79.7107,-23.6044 L 79.8711,-23.9453 L 80.073,-24.2634
 L 80.3131,-24.5536 L 80.5877,-24.8115 L 80.8925,-25.033 L 81.2227,-25.2145 L 81.573,-25.3532 L 81.9379,-25.4469
 L 82.3116,-25.4941 L 82.6884,-25.4941 L 83.0621,-25.4469 L 83.427,-25.3532 L 83.7773,-25.2145 L 84.1075,-25.033
 L 84.4123,-24.8115 L 84.6869,-24.5536 L 84.927,-24.2634 L 85.1289,-23.9453 L 85.2893,-23.6044 L 85.4057,-23.2461
 L 85.4763,-22.876 L 85.5,-22.5 L 85.4763,-22.124 L 85.4057,-21.7539 L 85.2893,-21.3956 L 85.1289,-21.0547
 L 84.927,-20.7366 L 84.6869,-20.4464 L 84.4123,-20.1884 L 84.1075,-19.967 L 83.7773,-19.7855 L 83.427,-19.6468
 L 83.0621,-19.5531 L 82.6884,-19.5059 z
M -82.6884,-19.5059 L -83.0621,-19.5531 L -83.427,-19.6468 L -83.7773,-19.7855 L -84.1075,-19.967 L -84.4123,-20.1884
 L -84.6869,-20.4464 L -84.927,-20.7366 L -85.1289,-21.0547 L -85.2893,-21.3956 L -85.4057,-21.7539 L -85.4763,-22.124
 L -85.5,-22.5 L -85.4763,-22.876 L -85.4057,-23.2461 L -85.2893,-23.6044 L -85.1289,-23.9453 L -84.927,-24.2634
 L -84.6869,-24.5536 L -84.4123,-24.8115 L -84.1075,-25.033 L -83.7773,-25.2145 L -83.427,-25.3532 L -83.0621,-25.4469
 L -82.6884,-25.4941 L -82.3116,-25.4941 L -81.9379,-25.4469 L -81.573,-25.3532 L -81.2227,-25.2145 L -80.8925,-25.033
 L -80.5877,-24.8115 L -80.3131,-24.5536 L -80.073,-24.2634 L -79.8711,-23.9453 L -79.7107,-23.6044 L -79.5943,-23.2461
 L -79.5237,-22.876 L -79.5,-22.5 L -79.5237,-22.124 L -79.5943,-21.7539 L -79.7107,-21.3956 L -79.8711,-21.0547
 L -80.073,-20.7366 L -80.3131,-20.4464 L -80.5877,-20.1884 L -80.8925,-19.967 L -81.2227,-19.7855 L -81.573,-19.6468
 L -81.9379,-19.5531 L -82.3116,-19.5059 z
M 20.7756,19.4615 L 18.3461,19.1546 L 15.9742,18.5456 L 13.6973,17.6441 L 11.5514,16.4644 L 9.57022,15.025
 L 7.78511,13.3487 L 6.22417,11.4618 L 4.91202,9.3942 L 3.86935,7.17842 L 3.11263,4.84944 L 2.65376,2.44398
 L 2.5,-0 L 2.65376,-2.44398 L 3.11263,-4.84944 L 3.86935,-7.17842 L 4.91202,-9.3942 L 6.22417,-11.4618
 L 7.78511,-13.3487 L 9.57022,-15.025 L 11.5514,-16.4644 L 13.6973,-17.6441 L 15.9742,-18.5456 L 18.3461,-19.1546
 L 20.7756,-19.4615 L 23.2244,-19.4615 L 25.6539,-19.1546 L 28.0258,-18.5456 L 30.3027,-17.6441 L 32.4486,-16.4644
 L 34.4298,-15.025 L 36.2149,-13.3487 L 37.7758,-11.4618 L 39.088,-9.3942 L 40.1306,-7.17842 L 40.8874,-4.84944
 L 41.3462,-2.44398 L 41.5,-0 L 41.3462,2.44398 L 40.8874,4.84944 L 40.1306,7.17842 L 39.088,9.3942
 L 37.7758,11.4618 L 36.2149,13.3487 L 34.4298,15.025 L 32.4486,16.4644 L 30.3027,17.6441 L 28.0258,18.5456
 L 25.6539,19.1546 L 23.2244,19.4615 z
M -23.2244,19.4615 L -25.6539,19.1546 L -28.0258,18.5456 L -30.3027,17.6441 L -32.4486,16.4644 L -34.4298,15.025
 L -36.2149,13.3487 L -37.7758,11.4618 L -39.088,9.3942 L -40.1306,7.17842 L -40.8874,4.84944 L -41.3462,2.44398
 L -41.5,-0 L -41.3462,-2.44398 L -40.8874,-4.84944 L -40.1306,-7.17842 L -39.088,-9.3942 L -37.7758,-11.4618
 L -36.2149,-13.3487 L -34.4298,-15.025 L -32.4486,-16.4644 L -30.3027,-17.6441 L -28.0258,-18.5456 L -25.6539,-19.1546
 L -23.2244,-19.4615 L -20.7756,-19.4615 L -18.3461,-19.1546 L -15.9742,-18.5456 L -13.6973,-17.6441 L -11.5514,-16.4644
 L -9.57022,-15.025 L -7.78511,-13.3487 L -6.22417,-11.4618 L -4.91202,-9.3942 L -3.86935,-7.17842 L -3.11263,-4.84944
 L -2.65376,-2.44398 L -2.5,-0 L -2.65376,2.44398 L -3.11263,4.84944 L -3.86935,7.17842 L -4.91202,9.3942
 L -6.22417,11.4618 L -7.78511,13.3487 L -9.57022,15.025 L -11.5514,16.4644 L -13.6973,17.6441 L -15.9742,18.5456
 L -18.3461,19.1546 L -20.7756,19.4615 z
M -67.2244,19.4615 L -69.6539,19.1546 L -72.0258,18.5456 L -74.3027,17.6441 L -76.4486,16.4644 L -78.4298,15.025
 L -80.2149,13.3487 L -81.7758,11.4618 L -83.088,9.3942 L -84.1306,7.17842 L -84.8874,4.84944 L -85.3462,2.44398
 L -85.5,-0 L -85.3462,-2.44398 L -84.8874,-4.84944 L -84.1306,-7.17842 L -83.088,-9.3942 L -81.7758,-11.4618
 L -80.2149,-13.3487 L -78.4298,-15.025 L -76.4486,-16.4644 L -74.3027,-17.6441 L -72.0258,-18.5456 L -69.6539,-19.1546
 L -67.2244,-19.4615 L -64.7756,-19.4615 L -62.3461,-19.1546 L -59.9742,-18.5456 L -57.6973,-17.6441 L -55.5514,-16.4644
 L -53.5702,-15.025 L -51.7851,-13.3487 L -50.2242,-11.4618 L -48.912,-9.3942 L -47.8694,-7.17842 L -47.1126,-4.84944
 L -46.6538,-2.44398 L -46.5,-0 L -46.6538,2.44398 L -47.1126,4.84944 L -47.8694,7.17842 L -48.912,9.3942
 L -50.2242,11.4618 L -51.7851,13.3487 L -53.5702,15.025 L -55.5514,16.4644 L -57.6973,17.6441 L -59.9742,18.5456
 L -62.3461,19.1546 L -64.7756,19.4615 z
M 64.7756,19.4615 L 62.3461,19.1546 L 59.9742,18.5456 L 57.6973,17.6441 L 55.5514,16.4644 L 53.5702,15.025
 L 51.7851,13.3487 L 50.2242,11.4618 L 48.912,9.3942 L 47.8694,7.17842 L 47.1126,4.84944 L 46.6538,2.44398
 L 46.5,-0 L 46.6538,-2.44398 L 47.1126,-4.84944 L 47.8694,-7.17842 L 48.912,-9.3942 L 50.2242,-11.4618
 L 51.7851,-13.3487 L 53.5702,-15.025 L 55.5514,-16.4644 L 57.6973,-17.6441 L 59.9742,-18.5456 L 62.3461,-19.1546
 L 64.7756,-19.4615 L 67.2244,-19.4615 L 69.6539,-19.1546 L 72.0258,-18.5456 L 74.3027,-17.6441 L 76.4486,-16.4644
 L 78.4298,-15.025 L 80.2149,-13.3487 L 81.7758,-11.4618 L 83.088,-9.3942 L 84.1306,-7.17842 L 84.8874,-4.84944
 L 85.3462,-2.44398 L 85.5,-0 L 85.3462,2.44398 L 84.8874,4.84944 L 84.1306,7.17842 L 83.088,9.3942
 L 81.7758,11.4618 L 80.2149,13.3487 L 78.4298,15.025 L 76.4486,16.4644 L 74.3027,17.6441 L 72.0258,18.5456
 L 69.6539,19.1546 L 67.2244,19.4615 z
M 82.3116,25.4941 L 81.9379,25.4469 L 81.573,25.3532 L 81.2227,25.2145 L 80.8925,25.033 L 80.5877,24.8115
 L 80.3131,24.5536 L 80.073,24.2634 L 79.8711,23.9453 L 79.7107,23.6044 L 79.5943,23.2461 L 79.5237,22.876
 L 79.5,22.5 L 79.5237,22.124 L 79.5943,21.7539 L 79.7107,21.3956 L 79.8711,21.0547 L 80.073,20.7366
 L 80.3131,20.4464 L 80.5877,20.1884 L 80.8925,19.967 L 81.2227,19.7855 L 81.573,19.6468 L 81.9379,19.5531
 L 82.3116,19.5059 L 82.6884,19.5059 L 83.0621,19.5531 L 83.427,19.6468 L 83.7773,19.7855 L 84.1075,19.967
 L 84.4123,20.1884 L 84.6869,20.4464 L 84.927,20.7366 L 85.1289,21.0547 L 85.2893,21.3956 L 85.4057,21.7539
 L 85.4763,22.124 L 85.5,22.5 L 85.4763,22.876 L 85.4057,23.2461 L 85.2893,23.6044 L 85.1289,23.9453
 L 84.927,24.2634 L 84.6869,24.5536 L 84.4123,24.8115 L 84.1075,25.033 L 83.7773,25.2145 L 83.427,25.3532
 L 83.0621,25.4469 L 82.6884,25.4941 z
M -82.6884,25.4941 L -83.0621,25.4469 L -83.427,25.3532 L -83.7773,25.2145 L -84.1075,25.033 L -84.4123,24.8115
 L -84.6869,24.5536 L -84.927,24.2634 L -85.1289,23.9453 L -85.2893,23.6044 L -85.4057,23.2461 L -85.4763,22.876
 L -85.5,22.5 L -85.4763,22.124 L -85.4057,21.7539 L -85.2893,21.3956 L -85.1289,21.0547 L -84.927,20.7366
 L -84.6869,20.4464 L -84.4123,20.1884 L -84.1075,19.967 L -83.7773,19.7855 L -83.427,19.6468 L -83.0621,19.5531
 L -82.6884,19.5059 L -82.3116,19.5059 L -81.9379,19.5531 L -81.573,19.6468 L -81.2227,19.7855 L -80.8925,19.967
 L -80.5877,20.1884 L -80.3131,20.4464 L -80.073,20.7366 L -79.8711,21.0547 L -79.7107,21.3956 L -79.5943,21.7539
 L -79.5237,22.124 L -79.5,22.5 L -79.5237,22.876 L -79.5943,23.2461 L -79.7107,23.6044 L -79.8711,23.9453
 L -80.073,24.2634 L -80.3131,24.5536 L -80.5877,24.8115 L -80.8925,25.033 L -81.2227,25.2145 L -81.573,25.3532
 L -81.9379,25.4469 L -82.3116,25.4941 z
" stroke="black" fill="lightgray" stroke-width="0.5"/>
</svg>
