<?xml version="1.0" standalone="no"?>
<!DOCTYPE svg PUBLIC "-//W3C//DTD SVG 1.1//EN" "http://www.w3.org/Graphics/SVG/1.1/DTD/svg11.dtd">
<svg width="284mm" height="74mm" viewBox="-142 -37 284 74" xmlns="http://www.w3.org/2000/svg" version="1.1">
<title>OpenSCAD Model</title>
<path d="
M 137.937,36.9114 L 138.545,36.7553 L 139.129,36.5241 L 139.679,36.2216 L 140.187,35.8526 L 140.645,35.4227
 L 141.045,34.9389 L 141.382,34.4088 L 141.649,33.8406 L 141.843,33.2434 L 141.961,32.6267 L 142,32
 L 142,-32 L 141.961,-32.6267 L 141.843,-33.2434 L 141.649,-33.8406 L 141.382,-34.4088 L 141.045,-34.9389
 L 140.645,-35.4227 L 140.187,-35.8526 L 139.679,-36.2216 L 139.129,-36.5241 L 138.545,-36.7553 L 137.937,-36.9114
 L 137.314,-36.9901 L -137.314,-36.9901 L -137.937,-36.9114 L -138.545,-36.7553 L -139.129,-36.5241 L -139.679,-36.2216
 L -140.187,-35.8526 L -140.645,-35.4227 L -141.045,-34.9389 L -141.382,-34.4088 L -141.649,-33.8406 L -141.843,-33.2434
 L -141.961,-32.6267 L -142,-32 L -142,32 L -141.961,32.6267 L -141.843,33.2434 L -141.649,33.8406
 L -141.382,34.4088 L -141.045,34.9389 L -140.645,35.4227 L -140.187,35.8526 L -139.679,36.2216 L -139.129,36.5241
 L -138.545,36.7553 L -137.937,36.9114 L -137.314,36.9901 L 137.314,36.9901 z
M -135.188,-27.0059 L -135.562,-27.0531 L -135.927,-27.1468 L -136.277,-27.2855 L -136.607,-27.467 L -136.912,-27.6884
 L -137.187,-27.9464 L -137.427,-28.2366 L -137.629,-28.5547 L -137.789,-28.8956 L -137.906,-29.2539 L -137.976,-29.624
 L -138,-30 L -137.976,-30.376 L -137.906,-30.7461 L -137.789,-31.1044 L -137.629,-31.4453 L -137.427,-31.7634
 L -137.187,-32.0536 L -136.912,-32.3115 L -136.607,-32.533 L -136.277,-32.7145 L -135.927,-32.8532 L -135.562,-32.9469
 L -135.188,-32.9941 L -134.812,-32.9941 L -134.438,-32.9469 L -134.073,-32.8532 L -133.723,-32.7145 L -133.393,-32.533
 L -133.088,-32.3115 L -132.813,-32.0536 L -132.573,-31.7634 L -132.371,-31.4453 L -132.211,-31.1044 L -132.094,-30.7461
 L -132.024,-30.376 L -132,-30 L -132.024,-29.624 L -132.094,-29.2539 L -132.211,-28.8956 L -132.371,-28.5547
 L -132.573,-28.2366 L -132.813,-27.9464 L -133.088,-27.6884 L -133.393,-27.467 L -133.723,-27.2855 L -134.073,-27.1468
 L -134.438,-27.0531 L -134.812,-27.0059 z
M 134.812,-27.0059 L 134.438,-27.0531 L 134.073,-27.1468 L 133.723,-27.2855 L 133.393,-27.467 L 133.088,-27.6884
 L 132.813,-27.9464 L 132.573,-28.2366 L 132.371,-28.5547 L 132.211,-28.8956 L 132.094,-29.2539 L 132.024,-29.624
 L 132,-30 L 132.024,-30.376 L 132.094,-30.7461 L 132.211,-31.1044 L 132.371,-31.4453 L 132.573,-31.7634
 L 132.813,-32.0536 L 133.088,-32.3115 L 133.393,-32.533 L 133.723,-32.7145 L 134.073,-32.8532 L 134.438,-32.9469
 L 134.812,-32.9941 L 135.188,-32.9941 L 135.562,-32.9469 L 135.927,-32.8532 L 136.277,-32.7145 L 136.607,-32.533
 L 136.912,-32.3115 L 137.187,-32.0536 L 137.427,-31.7634 L 137.629,-31.4453 L 137.789,-31.1044 L 137.906,-30.7461
 L 137.976,-30.376 L 138,-30 L 137.976,-29.624 L 137.906,-29.2539 L 137.789,-28.8956 L 137.629,-28.5547
 L 137.427,-28.2366 L 137.187,-27.9464 L 136.912,-27.6884 L 136.607,-27.467 L 136.277,-27.2855 L 135.927,-27.1468
 L 135.562,-27.0531 L 135.188,-27.0059 z
M -99.3837,29.9408 L -103.121,29.4686 L -106.771,28.5317 L -110.273,27.1448 L -113.575,25.3298 L -116.623,23.1154
 L -119.369,20.5364 L -121.771,17.6335 L -123.789,14.4526 L -125.393,11.0437 L -126.557,7.46069 L -127.263,3.75999
 L -127.5,-0 L -127.263,-3.75999 L -126.557,-7.46069 L -125.393,-11.0437 L -123.789,-14.4526 L -121.771,-17.6335
 L -119.369,-20.5364 L -116.623,-23.1154 L -113.575,-25.3298 L -110.273,-27.1448 L -106.771,-28.5317 L -103.121,-29.4686
 L -99.3837,-29.9408 L -95.6163,-29.9408 L -91.8786,-29.4686 L -88.2295,-28.5317 L -84.7266,-27.1448 L -81.4252,-25.3298
 L -78.3773,-23.1154 L -75.6309,-20.5364 L -73.2295,-17.6335 L -71.2108,-14.4526 L -69.6067,-11.0437 L -68.4425,-7.46069
 L -67.7366,-3.75999 L -67.5,-0 L -67.7366,3.75999 L -68.4425,7.46069 L -69.6067,11.0437 L -71.2108,14.4526
 L -73.2295,17.6335 L -75.6309,20.5364 L -78.3773,23.1154 L -81.4252,25.3298 L -84.7266,27.1448 L -88.2295,28.5317
 L -91.8786,29.4686 L -95.6163,29.9408 z
M -34.3837,29.9408 L -38.1214,29.4686 L -41.7705,28.5317 L -45.2734,27.1448 L -48.5748,25.3298 L -51.6227,23.1154
 L -54.369,20.5364 L -56.7705,17.6335 L -58.7892,14.4526 L -60.3933,11.0437 L -61.5575,7.46069 L -62.2634,3.75999
 L -62.5,-0 L -62.2634,-3.75999 L -61.5575,-7.46069 L -60.3933,-11.0437 L -58.7892,-14.4526 L -56.7705,-17.6335
 L -54.369,-20.5364 L -51.6227,-23.1154 L -48.5748,-25.3298 L -45.2734,-27.1448 L -41.7705,-28.5317 L -38.1214,-29.4686
 L -34.3837,-29.9408 L -30.6163,-29.9408 L -26.8786,-29.4686 L -23.2295,-28.5317 L -19.7266,-27.1448 L -16.4252,-25.3298
 L -13.3773,-23.1154 L -10.6309,-20.5364 L -8.22948,-17.6335 L -6.21078,-14.4526 L -4.6067,-11.0437 L -3.4425,-7.46069
 L -2.73656,-3.75999 L -2.5,-0 L -2.73656,3.75999 L -3.4425,7.46069 L -4.6067,11.0437 L -6.21078,14.4526
 L -8.22948,17.6335 L -10.6309,20.5364 L -13.3773,23.1154 L -16.4252,25.3298 L -19.7266,27.1448 L -23.2295,28.5317
 L -26.8786,29.4686 L -30.6163,29.9408 z
M 30.6163,29.9408 L 26.8786,29.4686 L 23.2295,28.5317 L 19.7266,27.1448 L 16.4252,25.3298 L 13.3773,23.1154
 L 10.6309,20.5364 L 8.22948,17.6335 L 6.21078,14.4526 L 4.6067,11.0437 L 3.4425,7.46069 L 2.73656,3.75999
 L 2.5,-0 L 2.73656,-3.75999 L 3.4425,-7.46069 L 4.6067,-11.0437 L 6.21078,-14.4526 L 8.22948,-17.6335
 L 10.6309,-20.5364 L 13.3773,-23.1154 L 16.4252,-25.3298 L 19.7266,-27.1448 L 23.2295,-28.5317 L 26.8786,-29.4686
 L 30.6163,-29.9408 L 34.3837,-29.9408 L 38.1214,-29.4686 L 41.7705,-28.5317 L 45.2734,-27.1448 L 48.5748,-25.3298
 L 51.6227,-23.1154 L 54.369,-20.5364 L 56.7705,-17.6335 L 58.7892,-14.4526 L 60.3933,-11.0437 L 61.5575,-7.46069
 L 62.2634,-3.75999 L 62.5,-0 L 62.2634,3.75999 L 61.5575,7.46069 L 60.3933,11.0437 L 58.7892,14.4526
 L 56.7705,17.6335 L 54.369,20.5364 L 51.6227,23.1154 L 48.5748,25.3298 L 45.2734,27.1448 L 41.7705,28.5317
 L 38.1214,29.4686 L 34.3837,29.9408 z
M 95.6163,29.9408 L 91.8786,29.4686 L 88.2295,28.5317 L 84.7266,27.1448 L 81.4252,25.3298 L 78.3773,23.1154
 L 75.6309,20.5364 L 73.2295,17.6335 L 71.2108,14.4526 L 69.6067,11.0437 L 68.4425,7.46069 L 67.7366,3.75999
 L 67.5,-0 L 67.7366,-3.75999 L 68.4425,-7.46069 L 69.6067,-11.0437 L 71.2108,-14.4526 L 73.2295,-17.6335
 L 75.6309,-20.5364 L 78.3773,-23.1154 L 81.4252,-25.3298 L 84.7266,-27.1448 L 88.2295,-28.5317 L 91.8786,-29.4686
 L 95.6163,-29.9408 L 99.3837,-29.9408 L 103.121,-29.4686 L 106.771,-28.5317 L 110.273,-27.1448 L 113.575,-25.3298
 L 116.623,-23.1154 L 119.369,-20.5364 L 121.771,-17.6335 L 123.789,-14.4526 L 125.393,-11.0437 L 126.557,-7.46069
 L 127.263,-3.75999 L 127.5,-0 L 127.263,3.75999 L 126.557,7.46069 L 125.393,11.0437 L 123.789,14.4526
 L 121.771,17.6335 L 119.369,20.5364 L 116.623,23.1154 L 113.575,25.3298 L 110.273,27.1448 L 106.771,28.5317
 L 103.121,29.4686 L 99.3837,29.9408 z
M -135.094,-21.003 L -135.281,-21.0266 L -135.464,-21.0734 L -135.639,-21.1427 L -135.804,-21.2335 L -135.956,-21.3442
 L -136.093,-21.4732 L -136.214,-21.6183 L -136.314,-21.7774 L -136.395,-21.9478 L -136.453,-22.127 L -136.488,-22.312
 L -136.5,-22.5 L -136.488,-22.688 L -136.453,-22.873 L -136.395,-23.0522 L -136.314,-23.2226 L -136.214,-23.3817
 L -136.093,-23.5268 L -135.956,-23.6558 L -135.804,-23.7665 L -135.639,-23.8572 L -135.464,-23.9266 L -135.281,-23.9734
 L -135.094,-23.997 L -134.906,-23.997 L -134.719,-23.9734 L -134.536,-23.9266 L -134.361,-23.8572 L -134.196,-23.7665
 L -134.044,-23.6558 L -133.907,-23.5268 L -133.786,-23.3817 L -133.686,-23.2226 L -133.605,-23.0522 L -133.547,-22.873
 L -133.512,-22.688 L -133.5,-22.5 L -133.512,-22.312 L -133.547,-22.127 L -133.605,-21.9478 L -133.686,-21.7774
 L -133.786,-21.6183 L -133.907,-21.4732 L -134.044,-21.3442 L -134.196,-21.2335 L -134.361,-21.1427 L -134.536,-21.0734
 L -134.719,-21.0266 L -134.906,-21.003 z
M 134.906,-21.003 L 134.719,-21.0266 L 134.536,-21.0734 L 134.361,-21.1427 L 134.196,-21.2335 L 134.044,-21.3442
 L 133.907,-21.4732 L 133.786,-21.6183 L 133.686,-21.7774 L 133.605,-21.9478 L 133.547,-22.127 L 133.512,-22.312
 L 133.5,-22.5 L 133.512,-22.688 L 133.547,-22.873 L 133.605,-23.0522 L 133.686,-23.2226 L 133.786,-23.3817
 L 133.907,-23.5268 L 134.044,-23.6558 L 134.196,-23.7665 L 134.361,-23.8572 L 134.536,-23.9266 L 134.719,-23.9734
 L 134.906,-23.997 L 135.094,-23.997 L 135.281,-23.9734 L 135.464,-23.9266 L 135.639,-23.8572 L 135.804,-23.7665
 L 135.956,-23.6558 L 136.093,-23.5268 L 136.214,-23.3817 L 136.314,-23.2226 L 136.395,-23.0522 L 136.453,-22.873
 L 136.488,-22.688 L 136.5,-22.5 L 136.488,-22.312 L 136.453,-22.127 L 136.395,-21.9478 L 136.314,-21.7774
 L 136.214,-21.6183 L 136.093,-21.4732 L 135.956,-21.3442 L 135.804,-21.2335 L 135.639,-21.1427 L 135.464,-21.0734
 L 135.281,-21.0266 L 135.094,-21.003 z
M -135.188,-12.0059 L -135.562,-12.0531 L -135.927,-12.1468 L -136.277,-12.2855 L -136.607,-12.467 L -136.912,-12.6884
 L -137.187,-12.9464 L -137.427,-13.2366 L -137.629,-13.5547 L -137.789,-13.8956 L -137.906,-14.2539 L -137.976,-14.624
 L -138,-15 L -137.976,-15.376 L -137.906,-15.7461 L -137.789,-16.1044 L -137.629,-16.4453 L -137.427,-16.7634
 L -137.187,-17.0536 L -136.912,-17.3115 L -136.607,-17.533 L -136.277,-17.7145 L -135.927,-17.8532 L -135.562,-17.9469
 L -135.188,-17.9941 L -134.812,-17.9941 L -134.438,-17.9469 L -134.073,-17.8532 L -133.723,-17.7145 L -133.393,-17.533
 L -133.088,-17.3115 L -132.813,-17.0536 L -132.573,-16.7634 L -132.371,-16.4453 L -132.211,-16.1044 L -132.094,-15.7461
 L -132.024,-15.376 L -132,-15 L -132.024,-14.624 L -132.094,-14.2539 L -132.211,-13.8956 L -132.371,-13.5547
 L -132.573,-13.2366 L -132.813,-12.9464 L -133.088,-12.6884 L -133.393,-12.467 L -133.723,-12.2855 L -134.073,-12.1468
 L -134.438,-12.0531 L -134.812,-12.0059 z
M 134.812,-12.0059 L 134.438,-12.0531 L 134.073,-12.1468 L 133.723,-12.2855 L 133.393,-12.467 L 133.088,-12.6884
 L 132.813,-12.9464 L 132.573,-13.2366 L 132.371,-13.5547 L 132.211,-13.8956 L 132.094,-14.2539 L 132.024,-14.624
 L 132,-15 L 132.024,-15.376 L 132.094,-15.7461 L 132.211,-16.1044 L 132.371,-16.4453 L 132.573,-16.7634
 L 132.813,-17.0536 L 133.088,-17.3115 L 133.393,-17.533 L 133.723,-17.7145 L 134.073,-17.8532 L 134.438,-17.9469
 L 134.812,-17.9941 L 135.188,-17.9941 L 135.562,-17.9469 L 135.927,-17.8532 L 136.277,-17.7145 L 136.607,-17.533
 L 136.912,-17.3115 L 137.187,-17.0536 L 137.427,-16.7634 L 137.629,-16.4453 L 137.789,-16.1044 L 137.906,-15.7461
 L 137.976,-15.376 L 138,-15 L 137.976,-14.624 L 137.906,-14.2539 L 137.789,-13.8956 L 137.629,-13.5547
 L 137.427,-13.2366 L 137.187,-12.9464 L 136.912,-12.6884 L 136.607,-12.467 L 136.277,-12.2855 L 135.927,-12.1468
 L 135.562,-12.0531 L 135.188,-12.0059 z
M -135.094,-6.00294 L -135.281,-6.02657 L -135.464,-6.07341 L -135.639,-6.14275 L -135.804,-6.23351 L -135.956,-6.34422
 L -136.093,-6.47318 L -136.214,-6.61832 L -136.314,-6.77736 L -136.395,-6.9478 L -136.453,-7.12695 L -136.488,-7.312
 L -136.5,-7.5 L -136.488,-7.68799 L -136.453,-7.87303 L -136.395,-8.05219 L -136.314,-8.22263 L -136.214,-8.38167
 L -136.093,-8.52681 L -135.956,-8.65576 L -135.804,-8.76648 L -135.639,-8.85724 L -135.464,-8.92657 L -135.281,-8.97342
 L -135.094,-8.99704 L -134.906,-8.99704 L -134.719,-8.97342 L -134.536,-8.92657 L -134.361,-8.85724 L -134.196,-8.76648
 L -134.044,-8.65576 L -133.907,-8.52681 L -133.786,-8.38167 L -133.686,-8.22263 L -133.605,-8.05219 L -133.547,-7.87303
 L -133.512,-7.68799 L -133.5,-7.5 L -133.512,-7.312 L -133.547,-7.12695 L -133.605,-6.9478 L -133.686,-6.77736
 L -133.786,-6.61832 L -133.907,-6.47318 L -134.044,-6.34422 L -134.196,-6.23351 L -134.361,-6.14275 L -134.536,-6.07341
 L -134.719,-6.02657 L -134.906,-6.00294 z
M 134.906,-6.00294 L 134.719,-6.02657 L 134.536,-6.07341 L 134.361,-6.14275 L 134.196,-6.23351 L 134.044,-6.34422
 L 133.907,-6.47318 L 133.786,-6.61832 L 133.686,-6.77736 L 133.605,-6.9478 L 133.547,-7.12695 L 133.512,-7.312
 L 133.5,-7.5 L 133.512,-7.68799 L 133.547,-7.87303 L 133.605,-8.05219 L 133.686,-8.22263 L 133.786,-8.38167
 L 133.907,-8.52681 L 134.044,-8.65576 L 134.196,-8.76648 L 134.361,-8.85724 L 134.536,-8.92657 L 134.719,-8.97342
 L 134.906,-8.99704 L 135.094,-8.99704 L 135.281,-8.97342 L 135.464,-8.92657 L 135.639,-8.85724 L 135.804,-8.76648
 L 135.956,-8.65576 L 136.093,-8.52681 L 136.214,-8.38167 L 136.314,-8.22263 L 136.395,-8.05219 L 136.453,-7.87303
 L 136.488,-7.68799 L 136.5,-7.5 L 136.488,-7.312 L 136.453,-7.12695 L 136.395,-6.9478 L 136.314,-6.77736
 L 136.214,-6.61832 L 136.093,-6.47318 L 135.956,-6.34422 L 135.804,-6.23351 L 135.639,-6.14275 L 135.464,-6.07341
 L 135.281,-6.02657 L 135.094,-6.00294 z
M -135.188,2.99408 L -135.562,2.94685 L -135.927,2.85316 L -136.277,2.71448 L -136.607,2.53297 L -136.912,2.31154
 L -137.187,2.05363 L -137.427,1.76335 L -137.629,1.44525 L -137.789,1.10437 L -137.906,0.746063 L -137.976,0.375992
 L -138,-0 L -137.976,-0.375992 L -137.906,-0.746063 L -137.789,-1.10437 L -137.629,-1.44525 L -137.427,-1.76335
 L -137.187,-2.05363 L -136.912,-2.31154 L -136.607,-2.53297 L -136.277,-2.71448 L -135.927,-2.85316 L -135.562,-2.94685
 L -135.188,-2.99408 L -134.812,-2.99408 L -134.438,-2.94685 L -134.073,-2.85316 L -133.723,-2.71448 L -133.393,-2.53297
 L -133.088,-2.31154 L -132.813,-2.05363 L -132.573,-1.76335 L -132.371,-1.44525 L -132.211,-1.10437 L -132.094,-0.746063
 L -132.024,-0.375992 L -132,-0 L -132.024,0.375992 L -132.094,0.746063 L -132.211,1.10437 L -132.371,1.44525
 L -132.573,1.76335 L -132.813,2.05363 L -133.088,2.31154 L -133.393,2.53297 L -133.723,2.71448 L -134.073,2.85316
 L -134.438,2.94685 L -134.812,2.99408 z
M 134.812,2.99408 L 134.438,2.94685 L 134.073,2.85316 L 133.723,2.71448 L 133.393,2.53297 L 133.088,2.31154
 L 132.813,2.05363 L 132.573,1.76335 L 132.371,1.44525 L 132.211,1.10437 L 132.094,0.746063 L 132.024,0.375992
 L 132,-0 L 132.024,-0.375992 L 132.094,-0.746063 L 132.211,-1.10437 L 132.371,-1.44525 L 132.573,-1.76335
 L 132.813,-2.05363 L 133.088,-2.31154 L 133.393,-2.53297 L 133.723,-2.71448 L 134.073,-2.85316 L 134.438,-2.94685
 L 134.812,-2.99408 L 135.188,-2.99408 L 135.562,-2.94685 L 135.927,-2.85316 L 136.277,-2.71448 L 136.607,-2.53297
 L 136.912,-2.31154 L 137.187,-2.05363 L 137.427,-1.76335 L 137.629,-1.44525 L 137.789,-1.10437 L 137.906,-0.746063
 L 137.976,-0.375992 L 138,-0 L 137.976,0.375992 L 137.906,0.746063 L 137.789,1.10437 L 137.629,1.44525
 L 137.427,1.76335 L 137.187,2.05363 L 136.912,2.31154 L 136.607,2.53297 L 136.277,2.71448 L 135.927,2.85316
 L 135.562,2.94685 L 135.188,2.99408 z
M -135.094,8.99704 L -135.281,8.97342 L -135.464,8.92657 L -135.639,8.85724 L -135.804,8.76648 L -135.956,8.65576
 L -136.093,8.52681 L -136.214,8.38167 L -136.314,8.22263 L -136.395,8.05219 L -136.453,7.87303 L -136.488,7.68799
 L -136.5,7.5 L -136.488,7.312 L -136.453,7.12695 L -136.395,6.9478 L -136.314,6.77736 L -136.214,6.61832
 L -136.093,6.47318 L -135.956,6.34422 L -135.804,6.23351 L -135.639,6.14275 L -135.464,6.07341 L -135.281,6.02657
 L -135.094,6.00294 L -134.906,6.00294 L -134.719,6.02657 L -134.536,6.07341 L -134.361,6.14275 L -134.196,6.23351
 L -134.044,6.34422 L -133.907,6.47318 L -133.786,6.61832 L -133.686,6.77736 L -133.605,6.9478 L -133.547,7.12695
 L -133.512,7.312 L -133.5,7.5 L -133.512,7.68799 L -133.547,7.87303 L -133.605,8.05219 L -133.686,8.22263
 L -133.786,8.38167 L -133.907,8.52681 L -134.044,8.65576 L -134.196,8.76648 L -134.361,8.85724 L -134.536,8.92657
 L -134.719,8.97342 L -134.906,8.99704 z
M 134.906,8.99704 L 134.719,8.97342 L 134.536,8.92657 L 134.361,8.85724 L 134.196,8.76648 L 134.044,8.65576
 L 133.907,8.52681 L 133.786,8.38167 L 133.686,8.22263 L 133.605,8.05219 L 133.547,7.87303 L 133.512,7.68799
 L 133.5,7.5 L 133.512,7.312 L 133.547,7.12695 L 133.605,6.9478 L 133.686,6.77736 L 133.786,6.61832
 L 133.907,6.47318 L 134.044,6.34422 L 134.196,6.23351 L 134.361,6.14275 L 134.536,6.07341 L 134.719,6.02657
 L 134.906,6.00294 L 135.094,6.00294 L 135.281,6.02657 L 135.464,6.07341 L 135.639,6.14275 L 135.804,6.23351
 L 135.956,6.34422 L 136.093,6.47318 L 136.214,6.61832 L 136.314,6.77736 L 136.395,6.9478 L 136.453,7.12695
 L 136.488,7.312 L 136.5,7.5 L 136.488,7.68799 L 136.453,7.87303 L 136.395,8.05219 L 136.314,8.22263
 L 136.214,8.38167 L 136.093,8.52681 L 135.956,8.65576 L 135.804,8.76648 L 135.639,8.85724 L 135.464,8.92657
 L 135.281,8.97342 L 135.094,8.99704 z
M 134.812,17.9941 L 134.438,17.9469 L 134.073,17.8532 L 133.723,17.7145 L 133.393,17.533 L 133.088,17.3115
 L 132.813,17.0536 L 132.573,16.7634 L 132.371,16.4453 L 132.211,16.1044 L 132.094,15.7461 L 132.024,15.376
 L 132,15 L 132.024,14.624 L 132.094,14.2539 L 132.211,13.8956 L 132.371,13.5547 L 132.573,13.2366
 L 132.813,12.9464 L 133.088,12.6884 L 133.393,12.467 L 133.723,12.2855 L 134.073,12.1468 L 134.438,12.0531
 L 134.812,12.0059 L 135.188,12.0059 L 135.562,12.0531 L 135.927,12.1468 L 136.277,12.2855 L 136.607,12.467
 L 136.912,12.6884 L 137.187,12.9464 L 137.427,13.2366 L 137.629,13.5547 L 137.789,13.8956 L 137.906,14.2539
 L 137.976,14.624 L 138,15 L 137.976,15.376 L 137.906,15.7461 L 137.789,16.1044 L 137.629,16.4453
 L 137.427,16.7634 L 137.187,17.0536 L 136.912,17.3115 L 136.607,17.533 L 136.277,17.7145 L 135.927,17.8532
 L 135.562,17.9469 L 135.188,17.9941 z
M -135.188,17.9941 L -135.562,17.9469 L -135.927,17.8532 L -136.277,17.7145 L -136.607,17.533 L -136.912,17.3115
 L -137.187,17.0536 L -137.427,16.7634 L -137.629,16.4453 L -137.789,16.1044 L -137.906,15.7461 L -137.976,15.376
 L -138,15 L -137.976,14.624 L -137.906,14.2539 L -137.789,13.8956 L -137.629,13.5547 L -137.427,13.2366
 L -137.187,12.9464 L -136.912,12.6884 L -136.607,12.467 L -136.277,12.2855 L -135.927,12.1468 L -135.562,12.0531
 L -135.188,12.0059 L -134.812,12.0059 L -134.438,12.0531 L -134.073,12.1468 L -133.723,12.2855 L -133.393,12.467
 L -133.088,12.6884 L -132.813,12.9464 L -132.573,13.2366 L -132.371,13.5547 L -132.211,13.8956 L -132.094,14.2539
 L -132.024,14.624 L -132,15 L -132.024,15.376 L -132.094,15.7461 L -132.211,16.1044 L -132.371,16.4453
 L -132.573,16.7634 L -132.813,17.0536 L -133.088,17.3115 L -133.393,17.533 L -133.723,17.7145 L -134.073,17.8532
 L -134.438,17.9469 L -134.812,17.9941 z
M -135.094,23.997 L -135.281,23.9734 L -135.464,23.9266 L -135.639,23.8572 L -135.804,23.7665 L -135.956,23.6558
 L -136.093,23.5268 L -136.214,23.3817 L -136.314,23.2226 L -136.395,23.0522 L -136.453,22.873 L -136.488,22.688
 L -136.5,22.5 L -136.488,22.312 L -136.453,22.127 L -136.395,21.9478 L -136.314,21.7774 L -136.214,21.6183
 L -136.093,21.4732 L -135.956,21.3442 L -135.804,21.2335 L -135.639,21.1427 L -135.464,21.0734 L -135.281,21.0266
 L -135.094,21.003 L -134.906,21.003 L -134.719,21.0266 L -134.536,21.0734 L -134.361,21.1427 L -134.196,21.2335
 L -134.044,21.3442 L -133.907,21.4732 L -133.786,21.6183 L -133.686,21.7774 L -133.605,21.9478 L -133.547,22.127
 L -133.512,22.312 L -133.5,22.5 L -133.512,22.688 L -133.547,22.873 L -133.605,23.0522 L -133.686,23.2226
 L -133.786,23.3817 L -133.907,23.5268 L -134.044,23.6558 L -134.196,23.7665 L -134.361,23.8572 L -134.536,23.9266
 L -134.719,23.9734 L -134.906,23.997 z
M 134.906,23.997 L 134.719,23.9734 L 134.536,23.9266 L 134.361,23.8572 L 134.196,23.7665 L 134.044,23.6558
 L 133.907,23.5268 L 133.786,23.3817 L 133.686,23.2226 L 133.605,23.0522 L 133.547,22.873 L 133.512,22.688
 L 133.5,22.5 L 133.512,22.312 L 133.547,22.127 L 133.605,21.9478 L 133.686,21.7774 L 133.786,21.6183
 L 133.907,21.4732 L 134.044,21.3442 L 134.196,21.2335 L 134.361,21.1427 L 134.536,21.0734 L 134.719,21.0266
 L 134.906,21.003 L 135.094,21.003 L 135.281,21.0266 L 135.464,21.0734 L 135.639,21.1427 L 135.804,21.2335
 L 135.956,21.3442 L 136.093,21.4732 L 136.214,21.6183 L 136.314,21.7774 L 136.395,21.9478 L 136.453,22.127
 L 136.488,22.312 L 136.5,22.5 L 136.488,22.688 L 136.453,22.873 L 136.395,23.0522 L 136.314,23.2226
 L 136.214,23.3817 L 136.093,23.5268 L 135.956,23.6558 L 135.804,23.7665 L 135.639,23.8572 L 135.464,23.9266
 L 135.281,23.9734 L 135.094,23.997 z
M -135.188,32.9941 L -135.562,32.9469 L -135.927,32.8532 L -136.277,32.7145 L -136.607,32.533 L -136.912,32.3115
 L -137.187,32.0536 L -137.427,31.7634 L -137.629,31.4453 L -137.789,31.1044 L -137.906,30.7461 L -137.976,30.376
 L -138,30 L -137.976,29.624 L -137.906,29.2539 L -137.789,28.8956 L -137.629,28.5547 L -137.427,28.2366
 L -137.187,27.9464 L -136.912,27.6884 L -136.607,27.467 L -136.277,27.2855 L -135.927,27.1468 L -135.562,27.0531
 L -135.188,27.0059 L -134.812,27.0059 L -134.438,27.0531 L -134.073,27.1468 L -133.723,27.2855 L -133.393,27.467
 L -133.088,27.6884 L -132.813,27.9464 L -132.573,28.2366 L -132.371,28.5547 L -132.211,28.8956 L -132.094,29.2539
 L -132.024,29.624 L -132,30 L -132.024,30.376 L -132.094,30.7461 L -132.211,31.1044 L -132.371,31.4453
 L -132.573,31.7634 L -132.813,32.0536 L -133.088,32.3115 L -133.393,32.533 L -133.723,32.7145 L -134.073,32.8532
 L -134.438,32.9469 L -134.812,32.9941 z
M 134.812,32.9941 L 134.438,32.9469 L 134.073,32.8532 L 133.723,32.7145 L 133.393,32.533 L 133.088,32.3115
 L 132.813,32.0536 L 132.573,31.7634 L 132.371,31.4453 L 132.211,31.1044 L 132.094,30.7461 L 132.024,30.376
 L 132,30 L 132.024,29.624 L 132.094,29.2539 L 132.211,28.8956 L 132.371,28.5547 L 132.573,28.2366
 L 132.813,27.9464 L 133.088,27.6884 L 133.393,27.467 L 133.723,27.2855 L 134.073,27.1468 L 134.438,27.0531
 L 134.812,27.0059 L 135.188,27.0059 L 135.562,27.0531 L 135.927,27.1468 L 136.277,27.2855 L 136.607,27.467
 L 136.912,27.6884 L 137.187,27.9464 L 137.427,28.2366 L 137.629,28.5547 L 137.789,28.8956 L 137.906,29.2539
 L 137.976,29.624 L 138,30 L 137.976,30.376 L 137.906,30.7461 L 137.789,31.1044 L 137.629,31.4453
 L 137.427,31.7634 L 137.187,32.0536 L 136.912,32.3115 L 136.607,32.533 L 136.277,32.7145 L 135.927,32.8532
 L 135.562,32.9469 L 135.188,32.9941 z
" stroke="black" fill="lightgray" stroke-width="0.5"/>
</svg>
