<?xml version="1.0" standalone="no"?>
<!DOCTYPE svg PUBLIC "-//W3C//DTD SVG 1.1//EN" "http://www.w3.org/Graphics/SVG/1.1/DTD/svg11.dtd">
<svg width="314mm" height="90mm" viewBox="-157 -45 314 90" xmlns="http://www.w3.org/2000/svg" version="1.1">
<title>OpenSCAD Model</title>
<path d="
M 152.937,44.4114 L 153.545,44.2553 L 154.129,44.0241 L 154.679,43.7216 L 155.187,43.3526 L 155.645,42.9227
 L 156.045,42.4389 L 156.382,41.9088 L 156.649,41.3406 L 156.843,40.7434 L 156.961,40.1267 L 157,39.5
 L 157,-39.5 L 156.961,-40.1267 L 156.843,-40.7434 L 156.649,-41.3406 L 156.382,-41.9088 L 156.045,-42.4389
 L 155.645,-42.9227 L 155.187,-43.3526 L 154.679,-43.7216 L 154.129,-44.0241 L 153.545,-44.2553 L 152.937,-44.4114
 L 152.314,-44.4901 L -152.314,-44.4901 L -152.937,-44.4114 L -153.545,-44.2553 L -154.129,-44.0241 L -154.679,-43.7216
 L -155.187,-43.3526 L -155.645,-42.9227 L -156.045,-42.4389 L -156.382,-41.9088 L -156.649,-41.3406 L -156.843,-40.7434
 L -156.961,-40.1267 L -157,-39.5 L -157,39.5 L -156.961,40.1267 L -156.843,40.7434 L -156.649,41.3406
 L -156.382,41.9088 L -156.045,42.4389 L -155.645,42.9227 L -155.187,43.3526 L -154.679,43.7216 L -154.129,44.0241
 L -153.545,44.2553 L -152.937,44.4114 L -152.314,44.4901 L 152.314,44.4901 z
M -150.188,-34.5059 L -150.562,-34.5531 L -150.927,-34.6468 L -151.277,-34.7855 L -151.607,-34.967 L -151.912,-35.1885
 L -152.187,-35.4464 L -152.427,-35.7366 L -152.629,-36.0547 L -152.789,-36.3956 L -152.906,-36.7539 L -152.976,-37.124
 L -153,-37.5 L -152.976,-37.876 L -152.906,-38.2461 L -152.789,-38.6044 L -152.629,-38.9453 L -152.427,-39.2634
 L -152.187,-39.5536 L -151.912,-39.8115 L -151.607,-40.033 L -151.277,-40.2145 L -150.927,-40.3532 L -150.562,-40.4469
 L -150.188,-40.4941 L -149.812,-40.4941 L -149.438,-40.4469 L -149.073,-40.3532 L -148.723,-40.2145 L -148.393,-40.033
 L -148.088,-39.8115 L -147.813,-39.5536 L -147.573,-39.2634 L -147.371,-38.9453 L -147.211,-38.6044 L -147.094,-38.2461
 L -147.024,-37.876 L -147,-37.5 L -147.024,-37.124 L -147.094,-36.7539 L -147.211,-36.3956 L -147.371,-36.0547
 L -147.573,-35.7366 L -147.813,-35.4464 L -148.088,-35.1885 L -148.393,-34.967 L -148.723,-34.7855 L -149.073,-34.6468
 L -149.438,-34.5531 L -149.812,-34.5059 z
M 149.812,-34.5059 L 149.438,-34.5531 L 149.073,-34.6468 L 148.723,-34.7855 L 148.393,-34.967 L 148.088,-35.1885
 L 147.813,-35.4464 L 147.573,-35.7366 L 147.371,-36.0547 L 147.211,-36.3956 L 147.094,-36.7539 L 147.024,-37.124
 L 147,-37.5 L 147.024,-37.876 L 147.094,-38.2461 L 147.211,-38.6044 L 147.371,-38.9453 L 147.573,-39.2634
 L 147.813,-39.5536 L 148.088,-39.8115 L 148.393,-40.033 L 148.723,-40.2145 L 149.073,-40.3532 L 149.438,-40.4469
 L 149.812,-40.4941 L 150.188,-40.4941 L 150.562,-40.4469 L 150.927,-40.3532 L 151.277,-40.2145 L 151.607,-40.033
 L 151.912,-39.8115 L 152.187,-39.5536 L 152.427,-39.2634 L 152.629,-38.9453 L 152.789,-38.6044 L 152.906,-38.2461
 L 152.976,-37.876 L 153,-37.5 L 152.976,-37.124 L 152.906,-36.7539 L 152.789,-36.3956 L 152.629,-36.0547
 L 152.427,-35.7366 L 152.187,-35.4464 L 151.912,-35.1885 L 151.607,-34.967 L 151.277,-34.7855 L 150.927,-34.6468
 L 150.562,-34.5531 L 150.188,-34.5059 z
M -114.698,34.9309 L -119.058,34.3801 L -123.316,33.287 L -127.402,31.6689 L -131.254,29.5515 L -134.81,26.968
 L -138.014,23.9591 L -140.816,20.5725 L -143.171,16.8614 L -145.042,12.8844 L -146.4,8.70413 L -147.224,4.38666
 L -147.5,-0 L -147.224,-4.38666 L -146.4,-8.70413 L -145.042,-12.8844 L -143.171,-16.8614 L -140.816,-20.5725
 L -138.014,-23.9591 L -134.81,-26.968 L -131.254,-29.5515 L -127.402,-31.6689 L -123.316,-33.287 L -119.058,-34.3801
 L -114.698,-34.9309 L -110.302,-34.9309 L -105.942,-34.3801 L -101.684,-33.287 L -97.5977,-31.6689 L -93.7461,-29.5515
 L -90.1902,-26.968 L -86.9861,-23.9591 L -84.1844,-20.5725 L -81.8293,-16.8614 L -79.9578,-12.8844 L -78.5996,-8.70413
 L -77.776,-4.38666 L -77.5,-0 L -77.776,4.38666 L -78.5996,8.70413 L -79.9578,12.8844 L -81.8293,16.8614
 L -84.1844,20.5725 L -86.9861,23.9591 L -90.1902,26.968 L -93.7461,29.5515 L -97.5977,31.6689 L -101.684,33.287
 L -105.942,34.3801 L -110.302,34.9309 z
M 35.3023,34.9309 L 30.9417,34.3801 L 26.6844,33.287 L 22.5977,31.6689 L 18.746,29.5515 L 15.1902,26.968
 L 11.9861,23.9591 L 9.1844,20.5725 L 6.82925,16.8614 L 4.95781,12.8844 L 3.59958,8.70413 L 2.77597,4.38666
 L 2.5,-0 L 2.77597,-4.38666 L 3.59958,-8.70413 L 4.95781,-12.8844 L 6.82925,-16.8614 L 9.1844,-20.5725
 L 11.9861,-23.9591 L 15.1902,-26.968 L 18.746,-29.5515 L 22.5977,-31.6689 L 26.6844,-33.287 L 30.9417,-34.3801
 L 35.3023,-34.9309 L 39.6977,-34.9309 L 44.0583,-34.3801 L 48.3156,-33.287 L 52.4023,-31.6689 L 56.2539,-29.5515
 L 59.8098,-26.968 L 63.0139,-23.9591 L 65.8156,-20.5725 L 68.1707,-16.8614 L 70.0422,-12.8844 L 71.4004,-8.70413
 L 72.224,-4.38666 L 72.5,-0 L 72.224,4.38666 L 71.4004,8.70413 L 70.0422,12.8844 L 68.1707,16.8614
 L 65.8156,20.5725 L 63.0139,23.9591 L 59.8098,26.968 L 56.2539,29.5515 L 52.4023,31.6689 L 48.3156,33.287
 L 44.0583,34.3801 L 39.6977,34.9309 z
M -39.6977,34.9309 L -44.0583,34.3801 L -48.3156,33.287 L -52.4023,31.6689 L -56.2539,29.5515 L -59.8098,26.968
 L -63.0139,23.9591 L -65.8156,20.5725 L -68.1707,16.8614 L -70.0422,12.8844 L -71.4004,8.70413 L -72.224,4.38666
 L -72.5,-0 L -72.224,-4.38666 L -71.4004,-8.70413 L -70.0422,-12.8844 L -68.1707,-16.8614 L -65.8156,-20.5725
 L -63.0139,-23.9591 L -59.8098,-26.968 L -56.2539,-29.5515 L -52.4023,-31.6689 L -48.3156,-33.287 L -44.0583,-34.3801
 L -39.6977,-34.9309 L -35.3023,-34.9309 L -30.9417,-34.3801 L -26.6844,-33.287 L -22.5977,-31.6689 L -18.746,-29.5515
 L -15.1902,-26.968 L -11.9861,-23.9591 L -9.1844,-20.5725 L -6.82925,-16.8614 L -4.95781,-12.8844 L -3.59958,-8.70413
 L -2.77597,-4.38666 L -2.5,-0 L -2.77597,4.38666 L -3.59958,8.70413 L -4.95781,12.8844 L -6.82925,16.8614
 L -9.1844,20.5725 L -11.9861,23.9591 L -15.1902,26.968 L -18.746,29.5515 L -22.5977,31.6689 L -26.6844,33.287
 L -30.9417,34.3801 L -35.3023,34.9309 z
M 110.302,34.9309 L 105.942,34.3801 L 101.684,33.287 L 97.5977,31.6689 L 93.7461,29.5515 L 90.1902,26.968
 L 86.9861,23.9591 L 84.1844,20.5725 L 81.8293,16.8614 L 79.9578,12.8844 L 78.5996,8.70413 L 77.776,4.38666
 L 77.5,-0 L 77.776,-4.38666 L 78.5996,-8.70413 L 79.9578,-12.8844 L 81.8293,-16.8614 L 84.1844,-20.5725
 L 86.9861,-23.9591 L 90.1902,-26.968 L 93.7461,-29.5515 L 97.5977,-31.6689 L 101.684,-33.287 L 105.942,-34.3801
 L 110.302,-34.9309 L 114.698,-34.9309 L 119.058,-34.3801 L 123.316,-33.287 L 127.402,-31.6689 L 131.254,-29.5515
 L 134.81,-26.968 L 138.014,-23.9591 L 140.816,-20.5725 L 143.171,-16.8614 L 145.042,-12.8844 L 146.4,-8.70413
 L 147.224,-4.38666 L 147.5,-0 L 147.224,4.38666 L 146.4,8.70413 L 145.042,12.8844 L 143.171,16.8614
 L 140.816,20.5725 L 138.014,23.9591 L 134.81,26.968 L 131.254,29.5515 L 127.402,31.6689 L 123.316,33.287
 L 119.058,34.3801 L 114.698,34.9309 z
M 149.812,40.4941 L 149.438,40.4469 L 149.073,40.3532 L 148.723,40.2145 L 148.393,40.033 L 148.088,39.8115
 L 147.813,39.5536 L 147.573,39.2634 L 147.371,38.9453 L 147.211,38.6044 L 147.094,38.2461 L 147.024,37.876
 L 147,37.5 L 147.024,37.124 L 147.094,36.7539 L 147.211,36.3956 L 147.371,36.0547 L 147.573,35.7366
 L 147.813,35.4464 L 148.088,35.1885 L 148.393,34.967 L 148.723,34.7855 L 149.073,34.6468 L 149.438,34.5531
 L 149.812,34.5059 L 150.188,34.5059 L 150.562,34.5531 L 150.927,34.6468 L 151.277,34.7855 L 151.607,34.967
 L 151.912,35.1885 L 152.187,35.4464 L 152.427,35.7366 L 152.629,36.0547 L 152.789,36.3956 L 152.906,36.7539
 L 152.976,37.124 L 153,37.5 L 152.976,37.876 L 152.906,38.2461 L 152.789,38.6044 L 152.629,38.9453
 L 152.427,39.2634 L 152.187,39.5536 L 151.912,39.8115 L 151.607,40.033 L 151.277,40.2145 L 150.927,40.3532
 L 150.562,40.4469 L 150.188,40.4941 z
M -150.188,40.4941 L -150.562,40.4469 L -150.927,40.3532 L -151.277,40.2145 L -151.607,40.033 L -151.912,39.8115
 L -152.187,39.5536 L -152.427,39.2634 L -152.629,38.9453 L -152.789,38.6044 L -152.906,38.2461 L -152.976,37.876
 L -153,37.5 L -152.976,37.124 L -152.906,36.7539 L -152.789,36.3956 L -152.629,36.0547 L -152.427,35.7366
 L -152.187,35.4464 L -151.912,35.1885 L -151.607,34.967 L -151.277,34.7855 L -150.927,34.6468 L -150.562,34.5531
 L -150.188,34.5059 L -149.812,34.5059 L -149.438,34.5531 L -149.073,34.6468 L -148.723,34.7855 L -148.393,34.967
 L -148.088,35.1885 L -147.813,35.4464 L -147.573,35.7366 L -147.371,36.0547 L -147.211,36.3956 L -147.094,36.7539
 L -147.024,37.124 L -147,37.5 L -147.024,37.876 L -147.094,38.2461 L -147.211,38.6044 L -147.371,38.9453
 L -147.573,39.2634 L -147.813,39.5536 L -148.088,39.8115 L -148.393,40.033 L -148.723,40.2145 L -149.073,40.3532
 L -149.438,40.4469 L -149.812,40.4941 z
" stroke="black" fill="lightgray" stroke-width="0.5"/>
</svg>
