<?xml version="1.0" standalone="no"?>
<!DOCTYPE svg PUBLIC "-//W3C//DTD SVG 1.1//EN" "http://www.w3.org/Graphics/SVG/1.1/DTD/svg11.dtd">
<svg width="180mm" height="44mm" viewBox="-90 -76 180 44" xmlns="http://www.w3.org/2000/svg" version="1.1">
<title>OpenSCAD Model</title>
<path d="
M 85.4369,-32.0886 L 86.0451,-32.2447 L 86.6289,-32.4759 L 87.1791,-32.7784 L 87.6871,-33.1474 L 88.1448,-33.5773
 L 88.5451,-34.0611 L 88.8815,-34.5912 L 89.1489,-35.1594 L 89.3429,-35.7566 L 89.4606,-36.3733 L 89.5,-37
 L 89.5,-71 L 89.4606,-71.6267 L 89.3429,-72.2434 L 89.1489,-72.8406 L 88.8815,-73.4088 L 88.5451,-73.9389
 L 88.1448,-74.4227 L 87.6871,-74.8526 L 87.1791,-75.2216 L 86.6289,-75.5241 L 86.0451,-75.7553 L 85.4369,-75.9114
 L 84.8139,-75.9901 L -84.8139,-75.9901 L -85.4369,-75.9114 L -86.0451,-75.7553 L -86.6289,-75.5241 L -87.1791,-75.2216
 L -87.6871,-74.8526 L -88.1448,-74.4227 L -88.5451,-73.9389 L -88.8815,-73.4088 L -89.1489,-72.8406 L -89.3429,-72.2434
 L -89.4606,-71.6267 L -89.5,-71 L -89.5,-37 L -89.4606,-36.3733 L -89.3429,-35.7566 L -89.1489,-35.1594
 L -88.8815,-34.5912 L -88.5451,-34.0611 L -88.1448,-33.5773 L -87.6871,-33.1474 L -87.1791,-32.7784 L -86.6289,-32.4759
 L -86.0451,-32.2447 L -85.4369,-32.0886 L -84.8139,-32.0099 L 84.8139,-32.0099 z
M 82.3116,-66.0059 L 81.9379,-66.0531 L 81.573,-66.1468 L 81.2227,-66.2855 L 80.8925,-66.467 L 80.5877,-66.6884
 L 80.3131,-66.9464 L 80.073,-67.2366 L 79.8711,-67.5547 L 79.7107,-67.8956 L 79.5943,-68.2539 L 79.5237,-68.624
 L 79.5,-69 L 79.5237,-69.376 L 79.5943,-69.7461 L 79.7107,-70.1044 L 79.8711,-70.4453 L 80.073,-70.7634
 L 80.3131,-71.0536 L 80.5877,-71.3115 L 80.8925,-71.533 L 81.2227,-71.7145 L 81.573,-71.8532 L 81.9379,-71.9469
 L 82.3116,-71.9941 L 82.6884,-71.9941 L 83.0621,-71.9469 L 83.427,-71.8532 L 83.7773,-71.7145 L 84.1075,-71.533
 L 84.4123,-71.3115 L 84.6869,-71.0536 L 84.927,-70.7634 L 85.1289,-70.4453 L 85.2893,-70.1044 L 85.4057,-69.7461
 L 85.4763,-69.376 L 85.5,-69 L 85.4763,-68.624 L 85.4057,-68.2539 L 85.2893,-67.8956 L 85.1289,-67.5547
 L 84.927,-67.2366 L 84.6869,-66.9464 L 84.4123,-66.6884 L 84.1075,-66.467 L 83.7773,-66.2855 L 83.427,-66.1468
 L 83.0621,-66.0531 L 82.6884,-66.0059 z
M -82.6884,-66.0059 L -83.0621,-66.0531 L -83.427,-66.1468 L -83.7773,-66.2855 L -84.1075,-66.467 L -84.4123,-66.6884
 L -84.6869,-66.9464 L -84.927,-67.2366 L -85.1289,-67.5547 L -85.2893,-67.8956 L -85.4057,-68.2539 L -85.4763,-68.624
 L -85.5,-69 L -85.4763,-69.376 L -85.4057,-69.7461 L -85.2893,-70.1044 L -85.1289,-70.4453 L -84.927,-70.7634
 L -84.6869,-71.0536 L -84.4123,-71.3115 L -84.1075,-71.533 L -83.7773,-71.7145 L -83.427,-71.8532 L -83.0621,-71.9469
 L -82.6884,-71.9941 L -82.3116,-71.9941 L -81.9379,-71.9469 L -81.573,-71.8532 L -81.2227,-71.7145 L -80.8925,-71.533
 L -80.5877,-71.3115 L -80.3131,-71.0536 L -80.073,-70.7634 L -79.8711,-70.4453 L -79.7107,-70.1044 L -79.5943,-69.7461
 L -79.5237,-69.376 L -79.5,-69 L -79.5237,-68.624 L -79.5943,-68.2539 L -79.7107,-67.8956 L -79.8711,-67.5547
 L -80.073,-67.2366 L -80.3131,-66.9464 L -80.5877,-66.6884 L -80.8925,-66.467 L -81.2227,-66.2855 L -81.573,-66.1468
 L -81.9379,-66.0531 L -82.3116,-66.0059 z
M 30.1837,-41.0257 L 28.564,-41.2303 L 26.9828,-41.6363 L 25.4649,-42.2373 L 24.0342,-43.0237 L 22.7135,-43.9833
 L 21.5234,-45.1009 L 20.4828,-46.3588 L 19.608,-47.7372 L 18.9129,-49.2144 L 18.4084,-50.767 L 18.1025,-52.3707
 L 18,-54 L 18.1025,-55.6293 L 18.4084,-57.233 L 18.9129,-58.7856 L 19.608,-60.2628 L 20.4828,-61.6412
 L 21.5234,-62.8991 L 22.7135,-64.0167 L 24.0342,-64.9763 L 25.4649,-65.7627 L 26.9828,-66.3637 L 28.564,-66.7697
 L 30.1837,-66.9743 L 31.8163,-66.9743 L 33.436,-66.7697 L 35.0172,-66.3637 L 36.5351,-65.7627 L 37.9657,-64.9763
 L 39.2865,-64.0167 L 40.4766,-62.8991 L 41.5172,-61.6412 L 42.392,-60.2628 L 43.0871,-58.7856 L 43.5916,-57.233
 L 43.8975,-55.6293 L 44,-54 L 43.8975,-52.3707 L 43.5916,-50.767 L 43.0871,-49.2144 L 42.392,-47.7372
 L 41.5172,-46.3588 L 40.4766,-45.1009 L 39.2865,-43.9833 L 37.9657,-43.0237 L 36.5351,-42.2373 L 35.0172,-41.6363
 L 33.436,-41.2303 L 31.8163,-41.0257 z
M -31.8163,-41.0257 L -33.436,-41.2303 L -35.0172,-41.6363 L -36.5351,-42.2373 L -37.9657,-43.0237 L -39.2865,-43.9833
 L -40.4766,-45.1009 L -41.5172,-46.3588 L -42.392,-47.7372 L -43.0871,-49.2144 L -43.5916,-50.767 L -43.8975,-52.3707
 L -44,-54 L -43.8975,-55.6293 L -43.5916,-57.233 L -43.0871,-58.7856 L -42.392,-60.2628 L -41.5172,-61.6412
 L -40.4766,-62.8991 L -39.2865,-64.0167 L -37.9657,-64.9763 L -36.5351,-65.7627 L -35.0172,-66.3637 L -33.436,-66.7697
 L -31.8163,-66.9743 L -30.1837,-66.9743 L -28.564,-66.7697 L -26.9828,-66.3637 L -25.4649,-65.7627 L -24.0342,-64.9763
 L -22.7135,-64.0167 L -21.5234,-62.8991 L -20.4828,-61.6412 L -19.608,-60.2628 L -18.9129,-58.7856 L -18.4084,-57.233
 L -18.1025,-55.6293 L -18,-54 L -18.1025,-52.3707 L -18.4084,-50.767 L -18.9129,-49.2144 L -19.608,-47.7372
 L -20.4828,-46.3588 L -21.5234,-45.1009 L -22.7135,-43.9833 L -24.0342,-43.0237 L -25.4649,-42.2373 L -26.9828,-41.6363
 L -28.564,-41.2303 L -30.1837,-41.0257 z
M 61.1837,-41.0257 L 59.564,-41.2303 L 57.9828,-41.6363 L 56.4649,-42.2373 L 55.0342,-43.0237 L 53.7135,-43.9833
 L 52.5234,-45.1009 L 51.4828,-46.3588 L 50.608,-47.7372 L 49.9129,-49.2144 L 49.4084,-50.767 L 49.1025,-52.3707
 L 49,-54 L 49.1025,-55.6293 L 49.4084,-57.233 L 49.9129,-58.7856 L 50.608,-60.2628 L 51.4828,-61.6412
 L 52.5234,-62.8991 L 53.7135,-64.0167 L 55.0342,-64.9763 L 56.4649,-65.7627 L 57.9828,-66.3637 L 59.564,-66.7697
 L 61.1837,-66.9743 L 62.8163,-66.9743 L 64.436,-66.7697 L 66.0172,-66.3637 L 67.5351,-65.7627 L 68.9657,-64.9763
 L 70.2865,-64.0167 L 71.4766,-62.8991 L 72.5172,-61.6412 L 73.392,-60.2628 L 74.0871,-58.7856 L 74.5916,-57.233
 L 74.8975,-55.6293 L 75,-54 L 74.8975,-52.3707 L 74.5916,-50.767 L 74.0871,-49.2144 L 73.392,-47.7372
 L 72.5172,-46.3588 L 71.4766,-45.1009 L 70.2865,-43.9833 L 68.9657,-43.0237 L 67.5351,-42.2373 L 66.0172,-41.6363
 L 64.436,-41.2303 L 62.8163,-41.0257 z
M -62.8163,-41.0257 L -64.436,-41.2303 L -66.0172,-41.6363 L -67.5351,-42.2373 L -68.9657,-43.0237 L -70.2865,-43.9833
 L -71.4766,-45.1009 L -72.5172,-46.3588 L -73.392,-47.7372 L -74.0871,-49.2144 L -74.5916,-50.767 L -74.8975,-52.3707
 L -75,-54 L -74.8975,-55.6293 L -74.5916,-57.233 L -74.0871,-58.7856 L -73.392,-60.2628 L -72.5172,-61.6412
 L -71.4766,-62.8991 L -70.2865,-64.0167 L -68.9657,-64.9763 L -67.5351,-65.7627 L -66.0172,-66.3637 L -64.436,-66.7697
 L -62.8163,-66.9743 L -61.1837,-66.9743 L -59.564,-66.7697 L -57.9828,-66.3637 L -56.4649,-65.7627 L -55.0342,-64.9763
 L -53.7135,-64.0167 L -52.5234,-62.8991 L -51.4828,-61.6412 L -50.608,-60.2628 L -49.9129,-58.7856 L -49.4084,-57.233
 L -49.1025,-55.6293 L -49,-54 L -49.1025,-52.3707 L -49.4084,-50.767 L -49.9129,-49.2144 L -50.608,-47.7372
 L -51.4828,-46.3588 L -52.5234,-45.1009 L -53.7135,-43.9833 L -55.0342,-43.0237 L -56.4649,-42.2373 L -57.9828,-41.6363
 L -59.564,-41.2303 L -61.1837,-41.0257 z
M -0.816269,-41.0257 L -2.43594,-41.2303 L -4.01721,-41.6363 L -5.53513,-42.2373 L -6.96574,-43.0237 L -8.2865,-43.9833
 L -9.47658,-45.1009 L -10.5172,-46.3588 L -11.392,-47.7372 L -12.0871,-49.2144 L -12.5916,-50.767 L -12.8975,-52.3707
 L -13,-54 L -12.8975,-55.6293 L -12.5916,-57.233 L -12.0871,-58.7856 L -11.392,-60.2628 L -10.5172,-61.6412
 L -9.47658,-62.8991 L -8.2865,-64.0167 L -6.96574,-64.9763 L -5.53513,-65.7627 L -4.01721,-66.3637 L -2.43594,-66.7697
 L -0.816269,-66.9743 L 0.816269,-66.9743 L 2.43594,-66.7697 L 4.01721,-66.3637 L 5.53513,-65.7627 L 6.96574,-64.9763
 L 8.2865,-64.0167 L 9.47658,-62.8991 L 10.5172,-61.6412 L 11.392,-60.2628 L 12.0871,-58.7856 L 12.5916,-57.233
 L 12.8975,-55.6293 L 13,-54 L 12.8975,-52.3707 L 12.5916,-50.767 L 12.0871,-49.2144 L 11.392,-47.7372
 L 10.5172,-46.3588 L 9.47658,-45.1009 L 8.2865,-43.9833 L 6.96574,-43.0237 L 5.53513,-42.2373 L 4.01721,-41.6363
 L 2.43594,-41.2303 L 0.816269,-41.0257 z
M -82.5942,-60.0029 L -82.7811,-60.0266 L -82.9635,-60.0734 L -83.1387,-60.1427 L -83.3037,-60.2335 L -83.4561,-60.3442
 L -83.5934,-60.4732 L -83.7135,-60.6183 L -83.8145,-60.7774 L -83.8947,-60.9478 L -83.9529,-61.127 L -83.9882,-61.312
 L -84,-61.5 L -83.9882,-61.688 L -83.9529,-61.873 L -83.8947,-62.0522 L -83.8145,-62.2226 L -83.7135,-62.3817
 L -83.5934,-62.5268 L -83.4561,-62.6558 L -83.3037,-62.7665 L -83.1387,-62.8572 L -82.9635,-62.9266 L -82.7811,-62.9734
 L -82.5942,-62.997 L -82.4058,-62.997 L -82.2189,-62.9734 L -82.0365,-62.9266 L -81.8613,-62.8572 L -81.6963,-62.7665
 L -81.5439,-62.6558 L -81.4065,-62.5268 L -81.2865,-62.3817 L -81.1855,-62.2226 L -81.1053,-62.0522 L -81.0471,-61.873
 L -81.0118,-61.688 L -81,-61.5 L -81.0118,-61.312 L -81.0471,-61.127 L -81.1053,-60.9478 L -81.1855,-60.7774
 L -81.2865,-60.6183 L -81.4065,-60.4732 L -81.5439,-60.3442 L -81.6963,-60.2335 L -81.8613,-60.1427 L -82.0365,-60.0734
 L -82.2189,-60.0266 L -82.4058,-60.0029 z
M 82.4058,-60.0029 L 82.2189,-60.0266 L 82.0365,-60.0734 L 81.8613,-60.1427 L 81.6963,-60.2335 L 81.5439,-60.3442
 L 81.4065,-60.4732 L 81.2865,-60.6183 L 81.1855,-60.7774 L 81.1053,-60.9478 L 81.0471,-61.127 L 81.0118,-61.312
 L 81,-61.5 L 81.0118,-61.688 L 81.0471,-61.873 L 81.1053,-62.0522 L 81.1855,-62.2226 L 81.2865,-62.3817
 L 81.4065,-62.5268 L 81.5439,-62.6558 L 81.6963,-62.7665 L 81.8613,-62.8572 L 82.0365,-62.9266 L 82.2189,-62.9734
 L 82.4058,-62.997 L 82.5942,-62.997 L 82.7811,-62.9734 L 82.9635,-62.9266 L 83.1387,-62.8572 L 83.3037,-62.7665
 L 83.4561,-62.6558 L 83.5934,-62.5268 L 83.7135,-62.3817 L 83.8145,-62.2226 L 83.8947,-62.0522 L 83.9529,-61.873
 L 83.9882,-61.688 L 84,-61.5 L 83.9882,-61.312 L 83.9529,-61.127 L 83.8947,-60.9478 L 83.8145,-60.7774
 L 83.7135,-60.6183 L 83.5934,-60.4732 L 83.4561,-60.3442 L 83.3037,-60.2335 L 83.1387,-60.1427 L 82.9635,-60.0734
 L 82.7811,-60.0266 L 82.5942,-60.0029 z
M 82.3116,-51.0059 L 81.9379,-51.0531 L 81.573,-51.1468 L 81.2227,-51.2855 L 80.8925,-51.467 L 80.5877,-51.6885
 L 80.3131,-51.9464 L 80.073,-52.2366 L 79.8711,-52.5547 L 79.7107,-52.8956 L 79.5943,-53.2539 L 79.5237,-53.624
 L 79.5,-54 L 79.5237,-54.376 L 79.5943,-54.7461 L 79.7107,-55.1044 L 79.8711,-55.4453 L 80.073,-55.7634
 L 80.3131,-56.0536 L 80.5877,-56.3115 L 80.8925,-56.533 L 81.2227,-56.7145 L 81.573,-56.8532 L 81.9379,-56.9469
 L 82.3116,-56.9941 L 82.6884,-56.9941 L 83.0621,-56.9469 L 83.427,-56.8532 L 83.7773,-56.7145 L 84.1075,-56.533
 L 84.4123,-56.3115 L 84.6869,-56.0536 L 84.927,-55.7634 L 85.1289,-55.4453 L 85.2893,-55.1044 L 85.4057,-54.7461
 L 85.4763,-54.376 L 85.5,-54 L 85.4763,-53.624 L 85.4057,-53.2539 L 85.2893,-52.8956 L 85.1289,-52.5547
 L 84.927,-52.2366 L 84.6869,-51.9464 L 84.4123,-51.6885 L 84.1075,-51.467 L 83.7773,-51.2855 L 83.427,-51.1468
 L 83.0621,-51.0531 L 82.6884,-51.0059 z
M -82.6884,-51.0059 L -83.0621,-51.0531 L -83.427,-51.1468 L -83.7773,-51.2855 L -84.1075,-51.467 L -84.4123,-51.6885
 L -84.6869,-51.9464 L -84.927,-52.2366 L -85.1289,-52.5547 L -85.2893,-52.8956 L -85.4057,-53.2539 L -85.4763,-53.624
 L -85.5,-54 L -85.4763,-54.376 L -85.4057,-54.7461 L -85.2893,-55.1044 L -85.1289,-55.4453 L -84.927,-55.7634
 L -84.6869,-56.0536 L -84.4123,-56.3115 L -84.1075,-56.533 L -83.7773,-56.7145 L -83.427,-56.8532 L -83.0621,-56.9469
 L -82.6884,-56.9941 L -82.3116,-56.9941 L -81.9379,-56.9469 L -81.573,-56.8532 L -81.2227,-56.7145 L -80.8925,-56.533
 L -80.5877,-56.3115 L -80.3131,-56.0536 L -80.073,-55.7634 L -79.8711,-55.4453 L -79.7107,-55.1044 L -79.5943,-54.7461
 L -79.5237,-54.376 L -79.5,-54 L -79.5237,-53.624 L -79.5943,-53.2539 L -79.7107,-52.8956 L -79.8711,-52.5547
 L -80.073,-52.2366 L -80.3131,-51.9464 L -80.5877,-51.6885 L -80.8925,-51.467 L -81.2227,-51.2855 L -81.573,-51.1468
 L -81.9379,-51.0531 L -82.3116,-51.0059 z
M -82.5942,-45.003 L -82.7811,-45.0266 L -82.9635,-45.0734 L -83.1387,-45.1428 L -83.3037,-45.2335 L -83.4561,-45.3442
 L -83.5934,-45.4732 L -83.7135,-45.6183 L -83.8145,-45.7774 L -83.8947,-45.9478 L -83.9529,-46.127 L -83.9882,-46.312
 L -84,-46.5 L -83.9882,-46.688 L -83.9529,-46.873 L -83.8947,-47.0522 L -83.8145,-47.2226 L -83.7135,-47.3817
 L -83.5934,-47.5268 L -83.4561,-47.6558 L -83.3037,-47.7665 L -83.1387,-47.8573 L -82.9635,-47.9266 L -82.7811,-47.9734
 L -82.5942,-47.9971 L -82.4058,-47.9971 L -82.2189,-47.9734 L -82.0365,-47.9266 L -81.8613,-47.8573 L -81.6963,-47.7665
 L -81.5439,-47.6558 L -81.4065,-47.5268 L -81.2865,-47.3817 L -81.1855,-47.2226 L -81.1053,-47.0522 L -81.0471,-46.873
 L -81.0118,-46.688 L -81,-46.5 L -81.0118,-46.312 L -81.0471,-46.127 L -81.1053,-45.9478 L -81.1855,-45.7774
 L -81.2865,-45.6183 L -81.4065,-45.4732 L -81.5439,-45.3442 L -81.6963,-45.2335 L -81.8613,-45.1428 L -82.0365,-45.0734
 L -82.2189,-45.0266 L -82.4058,-45.003 z
M 82.4058,-45.003 L 82.2189,-45.0266 L 82.0365,-45.0734 L 81.8613,-45.1428 L 81.6963,-45.2335 L 81.5439,-45.3442
 L 81.4065,-45.4732 L 81.2865,-45.6183 L 81.1855,-45.7774 L 81.1053,-45.9478 L 81.0471,-46.127 L 81.0118,-46.312
 L 81,-46.5 L 81.0118,-46.688 L 81.0471,-46.873 L 81.1053,-47.0522 L 81.1855,-47.2226 L 81.2865,-47.3817
 L 81.4065,-47.5268 L 81.5439,-47.6558 L 81.6963,-47.7665 L 81.8613,-47.8573 L 82.0365,-47.9266 L 82.2189,-47.9734
 L 82.4058,-47.9971 L 82.5942,-47.9971 L 82.7811,-47.9734 L 82.9635,-47.9266 L 83.1387,-47.8573 L 83.3037,-47.7665
 L 83.4561,-47.6558 L 83.5934,-47.5268 L 83.7135,-47.3817 L 83.8145,-47.2226 L 83.8947,-47.0522 L 83.9529,-46.873
 L 83.9882,-46.688 L 84,-46.5 L 83.9882,-46.312 L 83.9529,-46.127 L 83.8947,-45.9478 L 83.8145,-45.7774
 L 83.7135,-45.6183 L 83.5934,-45.4732 L 83.4561,-45.3442 L 83.3037,-45.2335 L 83.1387,-45.1428 L 82.9635,-45.0734
 L 82.7811,-45.0266 L 82.5942,-45.003 z
M 82.3116,-36.0059 L 81.9379,-36.0531 L 81.573,-36.1468 L 81.2227,-36.2855 L 80.8925,-36.467 L 80.5877,-36.6885
 L 80.3131,-36.9464 L 80.073,-37.2366 L 79.8711,-37.5547 L 79.7107,-37.8956 L 79.5943,-38.2539 L 79.5237,-38.624
 L 79.5,-39 L 79.5237,-39.376 L 79.5943,-39.7461 L 79.7107,-40.1044 L 79.8711,-40.4453 L 80.073,-40.7634
 L 80.3131,-41.0536 L 80.5877,-41.3116 L 80.8925,-41.533 L 81.2227,-41.7145 L 81.573,-41.8532 L 81.9379,-41.9469
 L 82.3116,-41.9941 L 82.6884,-41.9941 L 83.0621,-41.9469 L 83.427,-41.8532 L 83.7773,-41.7145 L 84.1075,-41.533
 L 84.4123,-41.3116 L 84.6869,-41.0536 L 84.927,-40.7634 L 85.1289,-40.4453 L 85.2893,-40.1044 L 85.4057,-39.7461
 L 85.4763,-39.376 L 85.5,-39 L 85.4763,-38.624 L 85.4057,-38.2539 L 85.2893,-37.8956 L 85.1289,-37.5547
 L 84.927,-37.2366 L 84.6869,-36.9464 L 84.4123,-36.6885 L 84.1075,-36.467 L 83.7773,-36.2855 L 83.427,-36.1468
 L 83.0621,-36.0531 L 82.6884,-36.0059 z
M -82.6884,-36.0059 L -83.0621,-36.0531 L -83.427,-36.1468 L -83.7773,-36.2855 L -84.1075,-36.467 L -84.4123,-36.6885
 L -84.6869,-36.9464 L -84.927,-37.2366 L -85.1289,-37.5547 L -85.2893,-37.8956 L -85.4057,-38.2539 L -85.4763,-38.624
 L -85.5,-39 L -85.4763,-39.376 L -85.4057,-39.7461 L -85.2893,-40.1044 L -85.1289,-40.4453 L -84.927,-40.7634
 L -84.6869,-41.0536 L -84.4123,-41.3116 L -84.1075,-41.533 L -83.7773,-41.7145 L -83.427,-41.8532 L -83.0621,-41.9469
 L -82.6884,-41.9941 L -82.3116,-41.9941 L -81.9379,-41.9469 L -81.573,-41.8532 L -81.2227,-41.7145 L -80.8925,-41.533
 L -80.5877,-41.3116 L -80.3131,-41.0536 L -80.073,-40.7634 L -79.8711,-40.4453 L -79.7107,-40.1044 L -79.5943,-39.7461
 L -79.5237,-39.376 L -79.5,-39 L -79.5237,-38.624 L -79.5943,-38.2539 L -79.7107,-37.8956 L -79.8711,-37.5547
 L -80.073,-37.2366 L -80.3131,-36.9464 L -80.5877,-36.6885 L -80.8925,-36.467 L -81.2227,-36.2855 L -81.573,-36.1468
 L -81.9379,-36.0531 L -82.3116,-36.0059 z
" stroke="black" fill="lightgray" stroke-width="0.5"/>
</svg>
