<?xml version="1.0" standalone="no"?>
<!DOCTYPE svg PUBLIC "-//W3C//DTD SVG 1.1//EN" "http://www.w3.org/Graphics/SVG/1.1/DTD/svg11.dtd">
<svg width="104mm" height="30mm" viewBox="-52 -15 104 30" xmlns="http://www.w3.org/2000/svg" version="1.1">
<title>OpenSCAD Model</title>
<path d="
M 47.9369,14.4114 L 48.5451,14.2553 L 49.1289,14.0241 L 49.6791,13.7216 L 50.1871,13.3526 L 50.6448,12.9227
 L 51.0451,12.4389 L 51.3815,11.9088 L 51.6489,11.3406 L 51.8429,10.7434 L 51.9606,10.1267 L 52,9.5
 L 52,-9.5 L 51.9606,-10.1267 L 51.8429,-10.7434 L 51.6489,-11.3406 L 51.3815,-11.9088 L 51.0451,-12.4389
 L 50.6448,-12.9227 L 50.1871,-13.3526 L 49.6791,-13.7216 L 49.1289,-14.0241 L 48.5451,-14.2553 L 47.9369,-14.4114
 L 47.3139,-14.4901 L -47.3139,-14.4901 L -47.9369,-14.4114 L -48.5451,-14.2553 L -49.1289,-14.0241 L -49.6791,-13.7216
 L -50.1871,-13.3526 L -50.6448,-12.9227 L -51.0451,-12.4389 L -51.3815,-11.9088 L -51.6489,-11.3406 L -51.8429,-10.7434
 L -51.9606,-10.1267 L -52,-9.5 L -52,9.5 L -51.9606,10.1267 L -51.8429,10.7434 L -51.6489,11.3406
 L -51.3815,11.9088 L -51.0451,12.4389 L -50.6448,12.9227 L -50.1871,13.3526 L -49.6791,13.7216 L -49.1289,14.0241
 L -48.5451,14.2553 L -47.9369,14.4114 L -47.3139,14.4901 L 47.3139,14.4901 z
M -45.1884,-4.50591 L -45.5621,-4.55313 L -45.927,-4.64682 L -46.2773,-4.78551 L -46.6075,-4.96701 L -46.9123,-5.18845
 L -47.1869,-5.44635 L -47.427,-5.73663 L -47.6289,-6.05473 L -47.7893,-6.39561 L -47.9057,-6.75392 L -47.9763,-7.12399
 L -48,-7.5 L -47.9763,-7.87599 L -47.9057,-8.24606 L -47.7893,-8.60437 L -47.6289,-8.94525 L -47.427,-9.26335
 L -47.1869,-9.55363 L -46.9123,-9.81154 L -46.6075,-10.033 L -46.2773,-10.2145 L -45.927,-10.3532 L -45.5621,-10.4469
 L -45.1884,-10.4941 L -44.8116,-10.4941 L -44.4379,-10.4469 L -44.0729,-10.3532 L -43.7227,-10.2145 L -43.3925,-10.033
 L -43.0877,-9.81154 L -42.8131,-9.55363 L -42.5729,-9.26335 L -42.3711,-8.94525 L -42.2107,-8.60437 L -42.0942,-8.24606
 L -42.0237,-7.87599 L -42,-7.5 L -42.0237,-7.12399 L -42.0942,-6.75392 L -42.2107,-6.39561 L -42.3711,-6.05473
 L -42.5729,-5.73663 L -42.8131,-5.44635 L -43.0877,-5.18845 L -43.3925,-4.96701 L -43.7227,-4.78551 L -44.0729,-4.64682
 L -44.4379,-4.55313 L -44.8116,-4.50591 z
M 44.8116,-4.50591 L 44.4379,-4.55313 L 44.0729,-4.64682 L 43.7227,-4.78551 L 43.3925,-4.96701 L 43.0877,-5.18845
 L 42.8131,-5.44635 L 42.5729,-5.73663 L 42.3711,-6.05473 L 42.2107,-6.39561 L 42.0942,-6.75392 L 42.0237,-7.12399
 L 42,-7.5 L 42.0237,-7.87599 L 42.0942,-8.24606 L 42.2107,-8.60437 L 42.3711,-8.94525 L 42.5729,-9.26335
 L 42.8131,-9.55363 L 43.0877,-9.81154 L 43.3925,-10.033 L 43.7227,-10.2145 L 44.0729,-10.3532 L 44.4379,-10.4469
 L 44.8116,-10.4941 L 45.1884,-10.4941 L 45.5621,-10.4469 L 45.927,-10.3532 L 46.2773,-10.2145 L 46.6075,-10.033
 L 46.9123,-9.81154 L 47.1869,-9.55363 L 47.427,-9.26335 L 47.6289,-8.94525 L 47.7893,-8.60437 L 47.9057,-8.24606
 L 47.9763,-7.87599 L 48,-7.5 L 47.9763,-7.12399 L 47.9057,-6.75392 L 47.7893,-6.39561 L 47.6289,-6.05473
 L 47.427,-5.73663 L 47.1869,-5.44635 L 46.9123,-5.18845 L 46.6075,-4.96701 L 46.2773,-4.78551 L 45.927,-4.64682
 L 45.5621,-4.55313 L 45.1884,-4.50591 z
M 24.3721,9.98026 L 23.1262,9.82286 L 21.9098,9.51056 L 20.7422,9.04826 L 19.6417,8.44327 L 18.6257,7.70512
 L 17.7103,6.84546 L 16.9098,5.87784 L 16.2369,4.81754 L 15.7022,3.68124 L 15.3142,2.48689 L 15.0788,1.25333
 L 15,-0 L 15.0788,-1.25333 L 15.3142,-2.48689 L 15.7022,-3.68124 L 16.2369,-4.81754 L 16.9098,-5.87784
 L 17.7103,-6.84546 L 18.6257,-7.70512 L 19.6417,-8.44327 L 20.7422,-9.04826 L 21.9098,-9.51056 L 23.1262,-9.82286
 L 24.3721,-9.98026 L 25.6279,-9.98026 L 26.8738,-9.82286 L 28.0902,-9.51056 L 29.2578,-9.04826 L 30.3583,-8.44327
 L 31.3742,-7.70512 L 32.2897,-6.84546 L 33.0902,-5.87784 L 33.7631,-4.81754 L 34.2978,-3.68124 L 34.6858,-2.48689
 L 34.9211,-1.25333 L 35,-0 L 34.9211,1.25333 L 34.6858,2.48689 L 34.2978,3.68124 L 33.7631,4.81754
 L 33.0902,5.87784 L 32.2897,6.84546 L 31.3742,7.70512 L 30.3583,8.44327 L 29.2578,9.04826 L 28.0902,9.51056
 L 26.8738,9.82286 L 25.6279,9.98026 z
M -25.6279,9.98026 L -26.8738,9.82286 L -28.0902,9.51056 L -29.2578,9.04826 L -30.3583,8.44327 L -31.3742,7.70512
 L -32.2897,6.84546 L -33.0902,5.87784 L -33.7631,4.81754 L -34.2978,3.68124 L -34.6858,2.48689 L -34.9211,1.25333
 L -35,-0 L -34.9211,-1.25333 L -34.6858,-2.48689 L -34.2978,-3.68124 L -33.7631,-4.81754 L -33.0902,-5.87784
 L -32.2897,-6.84546 L -31.3742,-7.70512 L -30.3583,-8.44327 L -29.2578,-9.04826 L -28.0902,-9.51056 L -26.8738,-9.82286
 L -25.6279,-9.98026 L -24.3721,-9.98026 L -23.1262,-9.82286 L -21.9098,-9.51056 L -20.7422,-9.04826 L -19.6417,-8.44327
 L -18.6257,-7.70512 L -17.7103,-6.84546 L -16.9098,-5.87784 L -16.2369,-4.81754 L -15.7022,-3.68124 L -15.3142,-2.48689
 L -15.0788,-1.25333 L -15,-0 L -15.0788,1.25333 L -15.3142,2.48689 L -15.7022,3.68124 L -16.2369,4.81754
 L -16.9098,5.87784 L -17.7103,6.84546 L -18.6257,7.70512 L -19.6417,8.44327 L -20.7422,9.04826 L -21.9098,9.51056
 L -23.1262,9.82286 L -24.3721,9.98026 z
M -0.627899,9.98026 L -1.87381,9.82286 L -3.09016,9.51056 L -4.25778,9.04826 L -5.35826,8.44327 L -6.37424,7.70512
 L -7.28967,6.84546 L -8.09016,5.87784 L -8.76306,4.81754 L -9.29776,3.68124 L -9.68582,2.48689 L -9.92114,1.25333
 L -10,-0 L -9.92114,-1.25333 L -9.68582,-2.48689 L -9.29776,-3.68124 L -8.76306,-4.81754 L -8.09016,-5.87784
 L -7.28967,-6.84546 L -6.37424,-7.70512 L -5.35826,-8.44327 L -4.25778,-9.04826 L -3.09016,-9.51056 L -1.87381,-9.82286
 L -0.627899,-9.98026 L 0.627899,-9.98026 L 1.87381,-9.82286 L 3.09016,-9.51056 L 4.25778,-9.04826 L 5.35826,-8.44327
 L 6.37424,-7.70512 L 7.28967,-6.84546 L 8.09016,-5.87784 L 8.76306,-4.81754 L 9.29776,-3.68124 L 9.68582,-2.48689
 L 9.92114,-1.25333 L 10,-0 L 9.92114,1.25333 L 9.68582,2.48689 L 9.29776,3.68124 L 8.76306,4.81754
 L 8.09016,5.87784 L 7.28967,6.84546 L 6.37424,7.70512 L 5.35826,8.44327 L 4.25778,9.04826 L 3.09016,9.51056
 L 1.87381,9.82286 L 0.627899,9.98026 z
M -45.0942,1.49704 L -45.2811,1.47342 L -45.4635,1.42657 L -45.6387,1.35724 L -45.8037,1.26648 L -45.9561,1.15576
 L -46.0934,1.02681 L -46.2135,0.881668 L -46.3145,0.722626 L -46.3947,0.552185 L -46.4529,0.373032 L -46.4882,0.187988
 L -46.5,-0 L -46.4882,-0.187988 L -46.4529,-0.373032 L -46.3947,-0.552185 L -46.3145,-0.722626 L -46.2135,-0.881668
 L -46.0934,-1.02681 L -45.9561,-1.15576 L -45.8037,-1.26648 L -45.6387,-1.35724 L -45.4635,-1.42657 L -45.2811,-1.47342
 L -45.0942,-1.49704 L -44.9058,-1.49704 L -44.7189,-1.47342 L -44.5365,-1.42657 L -44.3613,-1.35724 L -44.1963,-1.26648
 L -44.0439,-1.15576 L -43.9065,-1.02681 L -43.7865,-0.881668 L -43.6855,-0.722626 L -43.6053,-0.552185 L -43.5471,-0.373032
 L -43.5118,-0.187988 L -43.5,-0 L -43.5118,0.187988 L -43.5471,0.373032 L -43.6053,0.552185 L -43.6855,0.722626
 L -43.7865,0.881668 L -43.9065,1.02681 L -44.0439,1.15576 L -44.1963,1.26648 L -44.3613,1.35724 L -44.5365,1.42657
 L -44.7189,1.47342 L -44.9058,1.49704 z
M 44.9058,1.49704 L 44.7189,1.47342 L 44.5365,1.42657 L 44.3613,1.35724 L 44.1963,1.26648 L 44.0439,1.15576
 L 43.9065,1.02681 L 43.7865,0.881668 L 43.6855,0.722626 L 43.6053,0.552185 L 43.5471,0.373032 L 43.5118,0.187988
 L 43.5,-0 L 43.5118,-0.187988 L 43.5471,-0.373032 L 43.6053,-0.552185 L 43.6855,-0.722626 L 43.7865,-0.881668
 L 43.9065,-1.02681 L 44.0439,-1.15576 L 44.1963,-1.26648 L 44.3613,-1.35724 L 44.5365,-1.42657 L 44.7189,-1.47342
 L 44.9058,-1.49704 L 45.0942,-1.49704 L 45.2811,-1.47342 L 45.4635,-1.42657 L 45.6387,-1.35724 L 45.8037,-1.26648
 L 45.9561,-1.15576 L 46.0934,-1.02681 L 46.2135,-0.881668 L 46.3145,-0.722626 L 46.3947,-0.552185 L 46.4529,-0.373032
 L 46.4882,-0.187988 L 46.5,-0 L 46.4882,0.187988 L 46.4529,0.373032 L 46.3947,0.552185 L 46.3145,0.722626
 L 46.2135,0.881668 L 46.0934,1.02681 L 45.9561,1.15576 L 45.8037,1.26648 L 45.6387,1.35724 L 45.4635,1.42657
 L 45.2811,1.47342 L 45.0942,1.49704 z
M 44.8116,10.4941 L 44.4379,10.4469 L 44.0729,10.3532 L 43.7227,10.2145 L 43.3925,10.033 L 43.0877,9.81154
 L 42.8131,9.55363 L 42.5729,9.26335 L 42.3711,8.94525 L 42.2107,8.60437 L 42.0942,8.24606 L 42.0237,7.87599
 L 42,7.5 L 42.0237,7.12399 L 42.0942,6.75392 L 42.2107,6.39561 L 42.3711,6.05473 L 42.5729,5.73663
 L 42.8131,5.44635 L 43.0877,5.18845 L 43.3925,4.96701 L 43.7227,4.78551 L 44.0729,4.64682 L 44.4379,4.55313
 L 44.8116,4.50591 L 45.1884,4.50591 L 45.5621,4.55313 L 45.927,4.64682 L 46.2773,4.78551 L 46.6075,4.96701
 L 46.9123,5.18845 L 47.1869,5.44635 L 47.427,5.73663 L 47.6289,6.05473 L 47.7893,6.39561 L 47.9057,6.75392
 L 47.9763,7.12399 L 48,7.5 L 47.9763,7.87599 L 47.9057,8.24606 L 47.7893,8.60437 L 47.6289,8.94525
 L 47.427,9.26335 L 47.1869,9.55363 L 46.9123,9.81154 L 46.6075,10.033 L 46.2773,10.2145 L 45.927,10.3532
 L 45.5621,10.4469 L 45.1884,10.4941 z
M -45.1884,10.4941 L -45.5621,10.4469 L -45.927,10.3532 L -46.2773,10.2145 L -46.6075,10.033 L -46.9123,9.81154
 L -47.1869,9.55363 L -47.427,9.26335 L -47.6289,8.94525 L -47.7893,8.60437 L -47.9057,8.24606 L -47.9763,7.87599
 L -48,7.5 L -47.9763,7.12399 L -47.9057,6.75392 L -47.7893,6.39561 L -47.6289,6.05473 L -47.427,5.73663
 L -47.1869,5.44635 L -46.9123,5.18845 L -46.6075,4.96701 L -46.2773,4.78551 L -45.927,4.64682 L -45.5621,4.55313
 L -45.1884,4.50591 L -44.8116,4.50591 L -44.4379,4.55313 L -44.0729,4.64682 L -43.7227,4.78551 L -43.3925,4.96701
 L -43.0877,5.18845 L -42.8131,5.44635 L -42.5729,5.73663 L -42.3711,6.05473 L -42.2107,6.39561 L -42.0942,6.75392
 L -42.0237,7.12399 L -42,7.5 L -42.0237,7.87599 L -42.0942,8.24606 L -42.2107,8.60437 L -42.3711,8.94525
 L -42.5729,9.26335 L -42.8131,9.55363 L -43.0877,9.81154 L -43.3925,10.033 L -43.7227,10.2145 L -44.0729,10.3532
 L -44.4379,10.4469 L -44.8116,10.4941 z
" stroke="black" fill="lightgray" stroke-width="0.5"/>
</svg>
