<?xml version="1.0" standalone="no"?>
<!DOCTYPE svg PUBLIC "-//W3C//DTD SVG 1.1//EN" "http://www.w3.org/Graphics/SVG/1.1/DTD/svg11.dtd">
<svg width="60mm" height="30mm" viewBox="-30 -54 60 30" xmlns="http://www.w3.org/2000/svg" version="1.1">
<title>OpenSCAD Model</title>
<path d="
M 25.4369,-24.5886 L 26.0451,-24.7447 L 26.6289,-24.9759 L 27.1791,-25.2784 L 27.6871,-25.6474 L 28.1448,-26.0773
 L 28.5451,-26.5611 L 28.8815,-27.0912 L 29.1489,-27.6594 L 29.3429,-28.2566 L 29.4606,-28.8733 L 29.5,-29.5
 L 29.5,-48.5 L 29.4606,-49.1267 L 29.3429,-49.7434 L 29.1489,-50.3406 L 28.8815,-50.9088 L 28.5451,-51.4389
 L 28.1448,-51.9227 L 27.6871,-52.3526 L 27.1791,-52.7216 L 26.6289,-53.0241 L 26.0451,-53.2553 L 25.4369,-53.4114
 L 24.8139,-53.4901 L -24.8139,-53.4901 L -25.4369,-53.4114 L -26.0451,-53.2553 L -26.6289,-53.0241 L -27.1791,-52.7216
 L -27.6871,-52.3526 L -28.1448,-51.9227 L -28.5451,-51.4389 L -28.8815,-50.9088 L -29.1489,-50.3406 L -29.3429,-49.7434
 L -29.4606,-49.1267 L -29.5,-48.5 L -29.5,-29.5 L -29.4606,-28.8733 L -29.3429,-28.2566 L -29.1489,-27.6594
 L -28.8815,-27.0912 L -28.5451,-26.5611 L -28.1448,-26.0773 L -27.6871,-25.6474 L -27.1791,-25.2784 L -26.6289,-24.9759
 L -26.0451,-24.7447 L -25.4369,-24.5886 L -24.8139,-24.5099 L 24.8139,-24.5099 z
M -22.6884,-43.5059 L -23.0621,-43.5531 L -23.427,-43.6468 L -23.7773,-43.7855 L -24.1075,-43.967 L -24.4123,-44.1884
 L -24.6869,-44.4464 L -24.927,-44.7366 L -25.1289,-45.0547 L -25.2893,-45.3956 L -25.4057,-45.7539 L -25.4763,-46.124
 L -25.5,-46.5 L -25.4763,-46.876 L -25.4057,-47.2461 L -25.2893,-47.6044 L -25.1289,-47.9453 L -24.927,-48.2634
 L -24.6869,-48.5536 L -24.4123,-48.8115 L -24.1075,-49.033 L -23.7773,-49.2145 L -23.427,-49.3532 L -23.0621,-49.4469
 L -22.6884,-49.4941 L -22.3116,-49.4941 L -21.9379,-49.4469 L -21.5729,-49.3532 L -21.2227,-49.2145 L -20.8925,-49.033
 L -20.5877,-48.8115 L -20.3131,-48.5536 L -20.0729,-48.2634 L -19.8711,-47.9453 L -19.7107,-47.6044 L -19.5942,-47.2461
 L -19.5237,-46.876 L -19.5,-46.5 L -19.5237,-46.124 L -19.5942,-45.7539 L -19.7107,-45.3956 L -19.8711,-45.0547
 L -20.0729,-44.7366 L -20.3131,-44.4464 L -20.5877,-44.1884 L -20.8925,-43.967 L -21.2227,-43.7855 L -21.5729,-43.6468
 L -21.9379,-43.5531 L -22.3116,-43.5059 z
M 22.3116,-43.5059 L 21.9379,-43.5531 L 21.5729,-43.6468 L 21.2227,-43.7855 L 20.8925,-43.967 L 20.5877,-44.1884
 L 20.3131,-44.4464 L 20.0729,-44.7366 L 19.8711,-45.0547 L 19.7107,-45.3956 L 19.5942,-45.7539 L 19.5237,-46.124
 L 19.5,-46.5 L 19.5237,-46.876 L 19.5942,-47.2461 L 19.7107,-47.6044 L 19.8711,-47.9453 L 20.0729,-48.2634
 L 20.3131,-48.5536 L 20.5877,-48.8115 L 20.8925,-49.033 L 21.2227,-49.2145 L 21.5729,-49.3532 L 21.9379,-49.4469
 L 22.3116,-49.4941 L 22.6884,-49.4941 L 23.0621,-49.4469 L 23.427,-49.3532 L 23.7773,-49.2145 L 24.1075,-49.033
 L 24.4123,-48.8115 L 24.6869,-48.5536 L 24.927,-48.2634 L 25.1289,-47.9453 L 25.2893,-47.6044 L 25.4057,-47.2461
 L 25.4763,-46.876 L 25.5,-46.5 L 25.4763,-46.124 L 25.4057,-45.7539 L 25.2893,-45.3956 L 25.1289,-45.0547
 L 24.927,-44.7366 L 24.6869,-44.4464 L 24.4123,-44.1884 L 24.1075,-43.967 L 23.7773,-43.7855 L 23.427,-43.6468
 L 23.0621,-43.5531 L 22.6884,-43.5059 z
M -7.28255,-34.5089 L -7.8432,-34.5797 L -8.39056,-34.7203 L -8.916,-34.9283 L -9.41121,-35.2005 L -9.86839,-35.5327
 L -10.2803,-35.9195 L -10.6406,-36.355 L -10.9434,-36.8321 L -11.184,-37.3434 L -11.3586,-37.8809 L -11.4645,-38.436
 L -11.5,-39 L -11.4645,-39.564 L -11.3586,-40.1191 L -11.184,-40.6566 L -10.9434,-41.1679 L -10.6406,-41.645
 L -10.2803,-42.0805 L -9.86839,-42.4673 L -9.41121,-42.7995 L -8.916,-43.0717 L -8.39056,-43.2797 L -7.8432,-43.4203
 L -7.28255,-43.4911 L -6.71744,-43.4911 L -6.15678,-43.4203 L -5.60942,-43.2797 L -5.08398,-43.0717 L -4.58878,-42.7995
 L -4.13159,-42.4673 L -3.71964,-42.0805 L -3.35942,-41.645 L -3.05661,-41.1679 L -2.81599,-40.6566 L -2.64137,-40.1191
 L -2.53548,-39.564 L -2.5,-39 L -2.53548,-38.436 L -2.64137,-37.8809 L -2.81599,-37.3434 L -3.05661,-36.8321
 L -3.35942,-36.355 L -3.71964,-35.9195 L -4.13159,-35.5327 L -4.58878,-35.2005 L -5.08398,-34.9283 L -5.60942,-34.7203
 L -6.15678,-34.5797 L -6.71744,-34.5089 z
M 20.7174,-34.5089 L 20.1568,-34.5797 L 19.6094,-34.7203 L 19.084,-34.9283 L 18.5888,-35.2005 L 18.1316,-35.5327
 L 17.7196,-35.9195 L 17.3594,-36.355 L 17.0566,-36.8321 L 16.816,-37.3434 L 16.6414,-37.8809 L 16.5355,-38.436
 L 16.5,-39 L 16.5355,-39.564 L 16.6414,-40.1191 L 16.816,-40.6566 L 17.0566,-41.1679 L 17.3594,-41.645
 L 17.7196,-42.0805 L 18.1316,-42.4673 L 18.5888,-42.7995 L 19.084,-43.0717 L 19.6094,-43.2797 L 20.1568,-43.4203
 L 20.7174,-43.4911 L 21.2825,-43.4911 L 21.8432,-43.4203 L 22.3906,-43.2797 L 22.916,-43.0717 L 23.4112,-42.7995
 L 23.8684,-42.4673 L 24.2803,-42.0805 L 24.6406,-41.645 L 24.9434,-41.1679 L 25.184,-40.6566 L 25.3586,-40.1191
 L 25.4645,-39.564 L 25.5,-39 L 25.4645,-38.436 L 25.3586,-37.8809 L 25.184,-37.3434 L 24.9434,-36.8321
 L 24.6406,-36.355 L 24.2803,-35.9195 L 23.8684,-35.5327 L 23.4112,-35.2005 L 22.916,-34.9283 L 22.3906,-34.7203
 L 21.8432,-34.5797 L 21.2825,-34.5089 z
M 6.71744,-34.5089 L 6.15678,-34.5797 L 5.60942,-34.7203 L 5.08398,-34.9283 L 4.58878,-35.2005 L 4.13159,-35.5327
 L 3.71964,-35.9195 L 3.35942,-36.355 L 3.05661,-36.8321 L 2.81599,-37.3434 L 2.64137,-37.8809 L 2.53548,-38.436
 L 2.5,-39 L 2.53548,-39.564 L 2.64137,-40.1191 L 2.81599,-40.6566 L 3.05661,-41.1679 L 3.35942,-41.645
 L 3.71964,-42.0805 L 4.13159,-42.4673 L 4.58878,-42.7995 L 5.08398,-43.0717 L 5.60942,-43.2797 L 6.15678,-43.4203
 L 6.71744,-43.4911 L 7.28255,-43.4911 L 7.8432,-43.4203 L 8.39056,-43.2797 L 8.916,-43.0717 L 9.41121,-42.7995
 L 9.86839,-42.4673 L 10.2803,-42.0805 L 10.6406,-41.645 L 10.9434,-41.1679 L 11.184,-40.6566 L 11.3586,-40.1191
 L 11.4645,-39.564 L 11.5,-39 L 11.4645,-38.436 L 11.3586,-37.8809 L 11.184,-37.3434 L 10.9434,-36.8321
 L 10.6406,-36.355 L 10.2803,-35.9195 L 9.86839,-35.5327 L 9.41121,-35.2005 L 8.916,-34.9283 L 8.39056,-34.7203
 L 7.8432,-34.5797 L 7.28255,-34.5089 z
M -21.2825,-34.5089 L -21.8432,-34.5797 L -22.3906,-34.7203 L -22.916,-34.9283 L -23.4112,-35.2005 L -23.8684,-35.5327
 L -24.2803,-35.9195 L -24.6406,-36.355 L -24.9434,-36.8321 L -25.184,-37.3434 L -25.3586,-37.8809 L -25.4645,-38.436
 L -25.5,-39 L -25.4645,-39.564 L -25.3586,-40.1191 L -25.184,-40.6566 L -24.9434,-41.1679 L -24.6406,-41.645
 L -24.2803,-42.0805 L -23.8684,-42.4673 L -23.4112,-42.7995 L -22.916,-43.0717 L -22.3906,-43.2797 L -21.8432,-43.4203
 L -21.2825,-43.4911 L -20.7174,-43.4911 L -20.1568,-43.4203 L -19.6094,-43.2797 L -19.084,-43.0717 L -18.5888,-42.7995
 L -18.1316,-42.4673 L -17.7196,-42.0805 L -17.3594,-41.645 L -17.0566,-41.1679 L -16.816,-40.6566 L -16.6414,-40.1191
 L -16.5355,-39.564 L -16.5,-39 L -16.5355,-38.436 L -16.6414,-37.8809 L -16.816,-37.3434 L -17.0566,-36.8321
 L -17.3594,-36.355 L -17.7196,-35.9195 L -18.1316,-35.5327 L -18.5888,-35.2005 L -19.084,-34.9283 L -19.6094,-34.7203
 L -20.1568,-34.5797 L -20.7174,-34.5089 z
M -22.6884,-28.5059 L -23.0621,-28.5531 L -23.427,-28.6468 L -23.7773,-28.7855 L -24.1075,-28.967 L -24.4123,-29.1885
 L -24.6869,-29.4464 L -24.927,-29.7366 L -25.1289,-30.0547 L -25.2893,-30.3956 L -25.4057,-30.7539 L -25.4763,-31.124
 L -25.5,-31.5 L -25.4763,-31.876 L -25.4057,-32.2461 L -25.2893,-32.6044 L -25.1289,-32.9453 L -24.927,-33.2634
 L -24.6869,-33.5536 L -24.4123,-33.8116 L -24.1075,-34.033 L -23.7773,-34.2145 L -23.427,-34.3532 L -23.0621,-34.4469
 L -22.6884,-34.4941 L -22.3116,-34.4941 L -21.9379,-34.4469 L -21.5729,-34.3532 L -21.2227,-34.2145 L -20.8925,-34.033
 L -20.5877,-33.8116 L -20.3131,-33.5536 L -20.0729,-33.2634 L -19.8711,-32.9453 L -19.7107,-32.6044 L -19.5942,-32.2461
 L -19.5237,-31.876 L -19.5,-31.5 L -19.5237,-31.124 L -19.5942,-30.7539 L -19.7107,-30.3956 L -19.8711,-30.0547
 L -20.0729,-29.7366 L -20.3131,-29.4464 L -20.5877,-29.1885 L -20.8925,-28.967 L -21.2227,-28.7855 L -21.5729,-28.6468
 L -21.9379,-28.5531 L -22.3116,-28.5059 z
M 22.3116,-28.5059 L 21.9379,-28.5531 L 21.5729,-28.6468 L 21.2227,-28.7855 L 20.8925,-28.967 L 20.5877,-29.1885
 L 20.3131,-29.4464 L 20.0729,-29.7366 L 19.8711,-30.0547 L 19.7107,-30.3956 L 19.5942,-30.7539 L 19.5237,-31.124
 L 19.5,-31.5 L 19.5237,-31.876 L 19.5942,-32.2461 L 19.7107,-32.6044 L 19.8711,-32.9453 L 20.0729,-33.2634
 L 20.3131,-33.5536 L 20.5877,-33.8116 L 20.8925,-34.033 L 21.2227,-34.2145 L 21.5729,-34.3532 L 21.9379,-34.4469
 L 22.3116,-34.4941 L 22.6884,-34.4941 L 23.0621,-34.4469 L 23.427,-34.3532 L 23.7773,-34.2145 L 24.1075,-34.033
 L 24.4123,-33.8116 L 24.6869,-33.5536 L 24.927,-33.2634 L 25.1289,-32.9453 L 25.2893,-32.6044 L 25.4057,-32.2461
 L 25.4763,-31.876 L 25.5,-31.5 L 25.4763,-31.124 L 25.4057,-30.7539 L 25.2893,-30.3956 L 25.1289,-30.0547
 L 24.927,-29.7366 L 24.6869,-29.4464 L 24.4123,-29.1885 L 24.1075,-28.967 L 23.7773,-28.7855 L 23.427,-28.6468
 L 23.0621,-28.5531 L 22.6884,-28.5059 z
" stroke="black" fill="lightgray" stroke-width="0.5"/>
</svg>
