<?xml version="1.0" standalone="no"?>
<!DOCTYPE svg PUBLIC "-//W3C//DTD SVG 1.1//EN" "http://www.w3.org/Graphics/SVG/1.1/DTD/svg11.dtd">
<svg width="194mm" height="44mm" viewBox="-97 -76 194 44" xmlns="http://www.w3.org/2000/svg" version="1.1">
<title>OpenSCAD Model</title>
<path d="
M 92.9369,-32.0886 L 93.5451,-32.2447 L 94.1289,-32.4759 L 94.6791,-32.7784 L 95.1871,-33.1474 L 95.6448,-33.5773
 L 96.0451,-34.0611 L 96.3815,-34.5912 L 96.6489,-35.1594 L 96.8429,-35.7566 L 96.9606,-36.3733 L 97,-37
 L 97,-71 L 96.9606,-71.6267 L 96.8429,-72.2434 L 96.6489,-72.8406 L 96.3815,-73.4088 L 96.0451,-73.9389
 L 95.6448,-74.4227 L 95.1871,-74.8526 L 94.6791,-75.2216 L 94.1289,-75.5241 L 93.5451,-75.7553 L 92.9369,-75.9114
 L 92.3139,-75.9901 L -92.3139,-75.9901 L -92.9369,-75.9114 L -93.5451,-75.7553 L -94.1289,-75.5241 L -94.6791,-75.2216
 L -95.1871,-74.8526 L -95.6448,-74.4227 L -96.0451,-73.9389 L -96.3815,-73.4088 L -96.6489,-72.8406 L -96.8429,-72.2434
 L -96.9606,-71.6267 L -97,-71 L -97,-37 L -96.9606,-36.3733 L -96.8429,-35.7566 L -96.6489,-35.1594
 L -96.3815,-34.5912 L -96.0451,-34.0611 L -95.6448,-33.5773 L -95.1871,-33.1474 L -94.6791,-32.7784 L -94.1289,-32.4759
 L -93.5451,-32.2447 L -92.9369,-32.0886 L -92.3139,-32.0099 L 92.3139,-32.0099 z
M -90.1884,-66.0059 L -90.5621,-66.0531 L -90.927,-66.1468 L -91.2773,-66.2855 L -91.6075,-66.467 L -91.9123,-66.6884
 L -92.1869,-66.9464 L -92.427,-67.2366 L -92.6289,-67.5547 L -92.7893,-67.8956 L -92.9057,-68.2539 L -92.9763,-68.624
 L -93,-69 L -92.9763,-69.376 L -92.9057,-69.7461 L -92.7893,-70.1044 L -92.6289,-70.4453 L -92.427,-70.7634
 L -92.1869,-71.0536 L -91.9123,-71.3115 L -91.6075,-71.533 L -91.2773,-71.7145 L -90.927,-71.8532 L -90.5621,-71.9469
 L -90.1884,-71.9941 L -89.8116,-71.9941 L -89.4379,-71.9469 L -89.073,-71.8532 L -88.7227,-71.7145 L -88.3925,-71.533
 L -88.0877,-71.3115 L -87.8131,-71.0536 L -87.573,-70.7634 L -87.3711,-70.4453 L -87.2107,-70.1044 L -87.0943,-69.7461
 L -87.0237,-69.376 L -87,-69 L -87.0237,-68.624 L -87.0943,-68.2539 L -87.2107,-67.8956 L -87.3711,-67.5547
 L -87.573,-67.2366 L -87.8131,-66.9464 L -88.0877,-66.6884 L -88.3925,-66.467 L -88.7227,-66.2855 L -89.073,-66.1468
 L -89.4379,-66.0531 L -89.8116,-66.0059 z
M 89.8116,-66.0059 L 89.4379,-66.0531 L 89.073,-66.1468 L 88.7227,-66.2855 L 88.3925,-66.467 L 88.0877,-66.6884
 L 87.8131,-66.9464 L 87.573,-67.2366 L 87.3711,-67.5547 L 87.2107,-67.8956 L 87.0943,-68.2539 L 87.0237,-68.624
 L 87,-69 L 87.0237,-69.376 L 87.0943,-69.7461 L 87.2107,-70.1044 L 87.3711,-70.4453 L 87.573,-70.7634
 L 87.8131,-71.0536 L 88.0877,-71.3115 L 88.3925,-71.533 L 88.7227,-71.7145 L 89.073,-71.8532 L 89.4379,-71.9469
 L 89.8116,-71.9941 L 90.1884,-71.9941 L 90.5621,-71.9469 L 90.927,-71.8532 L 91.2773,-71.7145 L 91.6075,-71.533
 L 91.9123,-71.3115 L 92.1869,-71.0536 L 92.427,-70.7634 L 92.6289,-70.4453 L 92.7893,-70.1044 L 92.9057,-69.7461
 L 92.9763,-69.376 L 93,-69 L 92.9763,-68.624 L 92.9057,-68.2539 L 92.7893,-67.8956 L 92.6289,-67.5547
 L 92.427,-67.2366 L 92.1869,-66.9464 L 91.9123,-66.6884 L 91.6075,-66.467 L 91.2773,-66.2855 L 90.927,-66.1468
 L 90.5621,-66.0531 L 90.1884,-66.0059 z
M -66.8791,-40.0276 L -68.6233,-40.248 L -70.3262,-40.6852 L -71.9609,-41.3324 L -73.5016,-42.1794 L -74.9239,-43.2128
 L -76.2056,-44.4164 L -77.3262,-45.771 L -78.2683,-47.2555 L -79.0169,-48.8463 L -79.5602,-50.5184 L -79.8896,-52.2453
 L -80,-54 L -79.8896,-55.7547 L -79.5602,-57.4816 L -79.0169,-59.1537 L -78.2683,-60.7445 L -77.3262,-62.229
 L -76.2056,-63.5836 L -74.9239,-64.7872 L -73.5016,-65.8206 L -71.9609,-66.6676 L -70.3262,-67.3148 L -68.6233,-67.752
 L -66.8791,-67.9724 L -65.1209,-67.9724 L -63.3767,-67.752 L -61.6738,-67.3148 L -60.0391,-66.6676 L -58.4984,-65.8206
 L -57.0761,-64.7872 L -55.7944,-63.5836 L -54.6738,-62.229 L -53.7317,-60.7445 L -52.9831,-59.1537 L -52.4398,-57.4816
 L -52.1104,-55.7547 L -52,-54 L -52.1104,-52.2453 L -52.4398,-50.5184 L -52.9831,-48.8463 L -53.7317,-47.2555
 L -54.6738,-45.771 L -55.7944,-44.4164 L -57.0761,-43.2128 L -58.4984,-42.1794 L -60.0391,-41.3324 L -61.6738,-40.6852
 L -63.3767,-40.248 L -65.1209,-40.0276 z
M 65.1209,-40.0276 L 63.3767,-40.248 L 61.6738,-40.6852 L 60.0391,-41.3324 L 58.4984,-42.1794 L 57.0761,-43.2128
 L 55.7944,-44.4164 L 54.6738,-45.771 L 53.7317,-47.2555 L 52.9831,-48.8463 L 52.4398,-50.5184 L 52.1104,-52.2453
 L 52,-54 L 52.1104,-55.7547 L 52.4398,-57.4816 L 52.9831,-59.1537 L 53.7317,-60.7445 L 54.6738,-62.229
 L 55.7944,-63.5836 L 57.0761,-64.7872 L 58.4984,-65.8206 L 60.0391,-66.6676 L 61.6738,-67.3148 L 63.3767,-67.752
 L 65.1209,-67.9724 L 66.8791,-67.9724 L 68.6233,-67.752 L 70.3262,-67.3148 L 71.9609,-66.6676 L 73.5016,-65.8206
 L 74.9239,-64.7872 L 76.2056,-63.5836 L 77.3262,-62.229 L 78.2683,-60.7445 L 79.0169,-59.1537 L 79.5602,-57.4816
 L 79.8896,-55.7547 L 80,-54 L 79.8896,-52.2453 L 79.5602,-50.5184 L 79.0169,-48.8463 L 78.2683,-47.2555
 L 77.3262,-45.771 L 76.2056,-44.4164 L 74.9239,-43.2128 L 73.5016,-42.1794 L 71.9609,-41.3324 L 70.3262,-40.6852
 L 68.6233,-40.248 L 66.8791,-40.0276 z
M 32.1209,-40.0276 L 30.3766,-40.248 L 28.6738,-40.6852 L 27.0391,-41.3324 L 25.4984,-42.1794 L 24.0761,-43.2128
 L 22.7944,-44.4164 L 21.6738,-45.771 L 20.7317,-47.2555 L 19.9831,-48.8463 L 19.4398,-50.5184 L 19.1104,-52.2453
 L 19,-54 L 19.1104,-55.7547 L 19.4398,-57.4816 L 19.9831,-59.1537 L 20.7317,-60.7445 L 21.6738,-62.229
 L 22.7944,-63.5836 L 24.0761,-64.7872 L 25.4984,-65.8206 L 27.0391,-66.6676 L 28.6738,-67.3148 L 30.3766,-67.752
 L 32.1209,-67.9724 L 33.8791,-67.9724 L 35.6233,-67.752 L 37.3262,-67.3148 L 38.9609,-66.6676 L 40.5016,-65.8206
 L 41.9239,-64.7872 L 43.2056,-63.5836 L 44.3262,-62.229 L 45.2683,-60.7445 L 46.0169,-59.1537 L 46.5602,-57.4816
 L 46.8896,-55.7547 L 47,-54 L 46.8896,-52.2453 L 46.5602,-50.5184 L 46.0169,-48.8463 L 45.2683,-47.2555
 L 44.3262,-45.771 L 43.2056,-44.4164 L 41.9239,-43.2128 L 40.5016,-42.1794 L 38.9609,-41.3324 L 37.3262,-40.6852
 L 35.6233,-40.248 L 33.8791,-40.0276 z
M -33.8791,-40.0276 L -35.6233,-40.248 L -37.3262,-40.6852 L -38.9609,-41.3324 L -40.5016,-42.1794 L -41.9239,-43.2128
 L -43.2056,-44.4164 L -44.3262,-45.771 L -45.2683,-47.2555 L -46.0169,-48.8463 L -46.5602,-50.5184 L -46.8896,-52.2453
 L -47,-54 L -46.8896,-55.7547 L -46.5602,-57.4816 L -46.0169,-59.1537 L -45.2683,-60.7445 L -44.3262,-62.229
 L -43.2056,-63.5836 L -41.9239,-64.7872 L -40.5016,-65.8206 L -38.9609,-66.6676 L -37.3262,-67.3148 L -35.6233,-67.752
 L -33.8791,-67.9724 L -32.1209,-67.9724 L -30.3766,-67.752 L -28.6738,-67.3148 L -27.0391,-66.6676 L -25.4984,-65.8206
 L -24.0761,-64.7872 L -22.7944,-63.5836 L -21.6738,-62.229 L -20.7317,-60.7445 L -19.9831,-59.1537 L -19.4398,-57.4816
 L -19.1104,-55.7547 L -19,-54 L -19.1104,-52.2453 L -19.4398,-50.5184 L -19.9831,-48.8463 L -20.7317,-47.2555
 L -21.6738,-45.771 L -22.7944,-44.4164 L -24.0761,-43.2128 L -25.4984,-42.1794 L -27.0391,-41.3324 L -28.6738,-40.6852
 L -30.3766,-40.248 L -32.1209,-40.0276 z
M -0.879059,-40.0276 L -2.62334,-40.248 L -4.32623,-40.6852 L -5.96091,-41.3324 L -7.50157,-42.1794 L -8.92393,-43.2128
 L -10.2056,-44.4164 L -11.3262,-45.771 L -12.2683,-47.2555 L -13.0169,-48.8463 L -13.5602,-50.5184 L -13.8896,-52.2453
 L -14,-54 L -13.8896,-55.7547 L -13.5602,-57.4816 L -13.0169,-59.1537 L -12.2683,-60.7445 L -11.3262,-62.229
 L -10.2056,-63.5836 L -8.92393,-64.7872 L -7.50157,-65.8206 L -5.96091,-66.6676 L -4.32623,-67.3148 L -2.62334,-67.752
 L -0.879059,-67.9724 L 0.879059,-67.9724 L 2.62334,-67.752 L 4.32623,-67.3148 L 5.96091,-66.6676 L 7.50157,-65.8206
 L 8.92393,-64.7872 L 10.2056,-63.5836 L 11.3262,-62.229 L 12.2683,-60.7445 L 13.0169,-59.1537 L 13.5602,-57.4816
 L 13.8896,-55.7547 L 14,-54 L 13.8896,-52.2453 L 13.5602,-50.5184 L 13.0169,-48.8463 L 12.2683,-47.2555
 L 11.3262,-45.771 L 10.2056,-44.4164 L 8.92393,-43.2128 L 7.50157,-42.1794 L 5.96091,-41.3324 L 4.32623,-40.6852
 L 2.62334,-40.248 L 0.879059,-40.0276 z
M 89.9058,-60.0029 L 89.7189,-60.0266 L 89.5365,-60.0734 L 89.3613,-60.1427 L 89.1963,-60.2335 L 89.0439,-60.3442
 L 88.9065,-60.4732 L 88.7865,-60.6183 L 88.6855,-60.7774 L 88.6053,-60.9478 L 88.5471,-61.127 L 88.5118,-61.312
 L 88.5,-61.5 L 88.5118,-61.688 L 88.5471,-61.873 L 88.6053,-62.0522 L 88.6855,-62.2226 L 88.7865,-62.3817
 L 88.9065,-62.5268 L 89.0439,-62.6558 L 89.1963,-62.7665 L 89.3613,-62.8572 L 89.5365,-62.9266 L 89.7189,-62.9734
 L 89.9058,-62.997 L 90.0942,-62.997 L 90.2811,-62.9734 L 90.4635,-62.9266 L 90.6387,-62.8572 L 90.8037,-62.7665
 L 90.9561,-62.6558 L 91.0934,-62.5268 L 91.2135,-62.3817 L 91.3145,-62.2226 L 91.3947,-62.0522 L 91.4529,-61.873
 L 91.4882,-61.688 L 91.5,-61.5 L 91.4882,-61.312 L 91.4529,-61.127 L 91.3947,-60.9478 L 91.3145,-60.7774
 L 91.2135,-60.6183 L 91.0934,-60.4732 L 90.9561,-60.3442 L 90.8037,-60.2335 L 90.6387,-60.1427 L 90.4635,-60.0734
 L 90.2811,-60.0266 L 90.0942,-60.0029 z
M -90.0942,-60.0029 L -90.2811,-60.0266 L -90.4635,-60.0734 L -90.6387,-60.1427 L -90.8037,-60.2335 L -90.9561,-60.3442
 L -91.0934,-60.4732 L -91.2135,-60.6183 L -91.3145,-60.7774 L -91.3947,-60.9478 L -91.4529,-61.127 L -91.4882,-61.312
 L -91.5,-61.5 L -91.4882,-61.688 L -91.4529,-61.873 L -91.3947,-62.0522 L -91.3145,-62.2226 L -91.2135,-62.3817
 L -91.0934,-62.5268 L -90.9561,-62.6558 L -90.8037,-62.7665 L -90.6387,-62.8572 L -90.4635,-62.9266 L -90.2811,-62.9734
 L -90.0942,-62.997 L -89.9058,-62.997 L -89.7189,-62.9734 L -89.5365,-62.9266 L -89.3613,-62.8572 L -89.1963,-62.7665
 L -89.0439,-62.6558 L -88.9065,-62.5268 L -88.7865,-62.3817 L -88.6855,-62.2226 L -88.6053,-62.0522 L -88.5471,-61.873
 L -88.5118,-61.688 L -88.5,-61.5 L -88.5118,-61.312 L -88.5471,-61.127 L -88.6053,-60.9478 L -88.6855,-60.7774
 L -88.7865,-60.6183 L -88.9065,-60.4732 L -89.0439,-60.3442 L -89.1963,-60.2335 L -89.3613,-60.1427 L -89.5365,-60.0734
 L -89.7189,-60.0266 L -89.9058,-60.0029 z
M 89.8116,-51.0059 L 89.4379,-51.0531 L 89.073,-51.1468 L 88.7227,-51.2855 L 88.3925,-51.467 L 88.0877,-51.6885
 L 87.8131,-51.9464 L 87.573,-52.2366 L 87.3711,-52.5547 L 87.2107,-52.8956 L 87.0943,-53.2539 L 87.0237,-53.624
 L 87,-54 L 87.0237,-54.376 L 87.0943,-54.7461 L 87.2107,-55.1044 L 87.3711,-55.4453 L 87.573,-55.7634
 L 87.8131,-56.0536 L 88.0877,-56.3115 L 88.3925,-56.533 L 88.7227,-56.7145 L 89.073,-56.8532 L 89.4379,-56.9469
 L 89.8116,-56.9941 L 90.1884,-56.9941 L 90.5621,-56.9469 L 90.927,-56.8532 L 91.2773,-56.7145 L 91.6075,-56.533
 L 91.9123,-56.3115 L 92.1869,-56.0536 L 92.427,-55.7634 L 92.6289,-55.4453 L 92.7893,-55.1044 L 92.9057,-54.7461
 L 92.9763,-54.376 L 93,-54 L 92.9763,-53.624 L 92.9057,-53.2539 L 92.7893,-52.8956 L 92.6289,-52.5547
 L 92.427,-52.2366 L 92.1869,-51.9464 L 91.9123,-51.6885 L 91.6075,-51.467 L 91.2773,-51.2855 L 90.927,-51.1468
 L 90.5621,-51.0531 L 90.1884,-51.0059 z
M -90.1884,-51.0059 L -90.5621,-51.0531 L -90.927,-51.1468 L -91.2773,-51.2855 L -91.6075,-51.467 L -91.9123,-51.6885
 L -92.1869,-51.9464 L -92.427,-52.2366 L -92.6289,-52.5547 L -92.7893,-52.8956 L -92.9057,-53.2539 L -92.9763,-53.624
 L -93,-54 L -92.9763,-54.376 L -92.9057,-54.7461 L -92.7893,-55.1044 L -92.6289,-55.4453 L -92.427,-55.7634
 L -92.1869,-56.0536 L -91.9123,-56.3115 L -91.6075,-56.533 L -91.2773,-56.7145 L -90.927,-56.8532 L -90.5621,-56.9469
 L -90.1884,-56.9941 L -89.8116,-56.9941 L -89.4379,-56.9469 L -89.073,-56.8532 L -88.7227,-56.7145 L -88.3925,-56.533
 L -88.0877,-56.3115 L -87.8131,-56.0536 L -87.573,-55.7634 L -87.3711,-55.4453 L -87.2107,-55.1044 L -87.0943,-54.7461
 L -87.0237,-54.376 L -87,-54 L -87.0237,-53.624 L -87.0943,-53.2539 L -87.2107,-52.8956 L -87.3711,-52.5547
 L -87.573,-52.2366 L -87.8131,-51.9464 L -88.0877,-51.6885 L -88.3925,-51.467 L -88.7227,-51.2855 L -89.073,-51.1468
 L -89.4379,-51.0531 L -89.8116,-51.0059 z
M 89.9058,-45.003 L 89.7189,-45.0266 L 89.5365,-45.0734 L 89.3613,-45.1428 L 89.1963,-45.2335 L 89.0439,-45.3442
 L 88.9065,-45.4732 L 88.7865,-45.6183 L 88.6855,-45.7774 L 88.6053,-45.9478 L 88.5471,-46.127 L 88.5118,-46.312
 L 88.5,-46.5 L 88.5118,-46.688 L 88.5471,-46.873 L 88.6053,-47.0522 L 88.6855,-47.2226 L 88.7865,-47.3817
 L 88.9065,-47.5268 L 89.0439,-47.6558 L 89.1963,-47.7665 L 89.3613,-47.8573 L 89.5365,-47.9266 L 89.7189,-47.9734
 L 89.9058,-47.9971 L 90.0942,-47.9971 L 90.2811,-47.9734 L 90.4635,-47.9266 L 90.6387,-47.8573 L 90.8037,-47.7665
 L 90.9561,-47.6558 L 91.0934,-47.5268 L 91.2135,-47.3817 L 91.3145,-47.2226 L 91.3947,-47.0522 L 91.4529,-46.873
 L 91.4882,-46.688 L 91.5,-46.5 L 91.4882,-46.312 L 91.4529,-46.127 L 91.3947,-45.9478 L 91.3145,-45.7774
 L 91.2135,-45.6183 L 91.0934,-45.4732 L 90.9561,-45.3442 L 90.8037,-45.2335 L 90.6387,-45.1428 L 90.4635,-45.0734
 L 90.2811,-45.0266 L 90.0942,-45.003 z
M -90.0942,-45.003 L -90.2811,-45.0266 L -90.4635,-45.0734 L -90.6387,-45.1428 L -90.8037,-45.2335 L -90.9561,-45.3442
 L -91.0934,-45.4732 L -91.2135,-45.6183 L -91.3145,-45.7774 L -91.3947,-45.9478 L -91.4529,-46.127 L -91.4882,-46.312
 L -91.5,-46.5 L -91.4882,-46.688 L -91.4529,-46.873 L -91.3947,-47.0522 L -91.3145,-47.2226 L -91.2135,-47.3817
 L -91.0934,-47.5268 L -90.9561,-47.6558 L -90.8037,-47.7665 L -90.6387,-47.8573 L -90.4635,-47.9266 L -90.2811,-47.9734
 L -90.0942,-47.9971 L -89.9058,-47.9971 L -89.7189,-47.9734 L -89.5365,-47.9266 L -89.3613,-47.8573 L -89.1963,-47.7665
 L -89.0439,-47.6558 L -88.9065,-47.5268 L -88.7865,-47.3817 L -88.6855,-47.2226 L -88.6053,-47.0522 L -88.5471,-46.873
 L -88.5118,-46.688 L -88.5,-46.5 L -88.5118,-46.312 L -88.5471,-46.127 L -88.6053,-45.9478 L -88.6855,-45.7774
 L -88.7865,-45.6183 L -88.9065,-45.4732 L -89.0439,-45.3442 L -89.1963,-45.2335 L -89.3613,-45.1428 L -89.5365,-45.0734
 L -89.7189,-45.0266 L -89.9058,-45.003 z
M 89.8116,-36.0059 L 89.4379,-36.0531 L 89.073,-36.1468 L 88.7227,-36.2855 L 88.3925,-36.467 L 88.0877,-36.6885
 L 87.8131,-36.9464 L 87.573,-37.2366 L 87.3711,-37.5547 L 87.2107,-37.8956 L 87.0943,-38.2539 L 87.0237,-38.624
 L 87,-39 L 87.0237,-39.376 L 87.0943,-39.7461 L 87.2107,-40.1044 L 87.3711,-40.4453 L 87.573,-40.7634
 L 87.8131,-41.0536 L 88.0877,-41.3116 L 88.3925,-41.533 L 88.7227,-41.7145 L 89.073,-41.8532 L 89.4379,-41.9469
 L 89.8116,-41.9941 L 90.1884,-41.9941 L 90.5621,-41.9469 L 90.927,-41.8532 L 91.2773,-41.7145 L 91.6075,-41.533
 L 91.9123,-41.3116 L 92.1869,-41.0536 L 92.427,-40.7634 L 92.6289,-40.4453 L 92.7893,-40.1044 L 92.9057,-39.7461
 L 92.9763,-39.376 L 93,-39 L 92.9763,-38.624 L 92.9057,-38.2539 L 92.7893,-37.8956 L 92.6289,-37.5547
 L 92.427,-37.2366 L 92.1869,-36.9464 L 91.9123,-36.6885 L 91.6075,-36.467 L 91.2773,-36.2855 L 90.927,-36.1468
 L 90.5621,-36.0531 L 90.1884,-36.0059 z
M -90.1884,-36.0059 L -90.5621,-36.0531 L -90.927,-36.1468 L -91.2773,-36.2855 L -91.6075,-36.467 L -91.9123,-36.6885
 L -92.1869,-36.9464 L -92.427,-37.2366 L -92.6289,-37.5547 L -92.7893,-37.8956 L -92.9057,-38.2539 L -92.9763,-38.624
 L -93,-39 L -92.9763,-39.376 L -92.9057,-39.7461 L -92.7893,-40.1044 L -92.6289,-40.4453 L -92.427,-40.7634
 L -92.1869,-41.0536 L -91.9123,-41.3116 L -91.6075,-41.533 L -91.2773,-41.7145 L -90.927,-41.8532 L -90.5621,-41.9469
 L -90.1884,-41.9941 L -89.8116,-41.9941 L -89.4379,-41.9469 L -89.073,-41.8532 L -88.7227,-41.7145 L -88.3925,-41.533
 L -88.0877,-41.3116 L -87.8131,-41.0536 L -87.573,-40.7634 L -87.3711,-40.4453 L -87.2107,-40.1044 L -87.0943,-39.7461
 L -87.0237,-39.376 L -87,-39 L -87.0237,-38.624 L -87.0943,-38.2539 L -87.2107,-37.8956 L -87.3711,-37.5547
 L -87.573,-37.2366 L -87.8131,-36.9464 L -88.0877,-36.6885 L -88.3925,-36.467 L -88.7227,-36.2855 L -89.073,-36.1468
 L -89.4379,-36.0531 L -89.8116,-36.0059 z
" stroke="black" fill="lightgray" stroke-width="0.5"/>
</svg>
