  0
SECTION
  2
BLOCKS
  0
ENDSEC
  0
SECTION
  2
ENTITIES
  0
LINE
  8
0
 10
25.4369
 20
17.0886
 11
26.0451
 21
17.2447
  0
LINE
  8
0
 10
26.0451
 20
17.2447
 11
26.6289
 21
17.4759
  0
LINE
  8
0
 10
26.6289
 20
17.4759
 11
27.1791
 21
17.7784
  0
LINE
  8
0
 10
27.1791
 20
17.7784
 11
27.6871
 21
18.1474
  0
LINE
  8
0
 10
27.6871
 20
18.1474
 11
28.1448
 21
18.5773
  0
LINE
  8
0
 10
28.1448
 20
18.5773
 11
28.5451
 21
19.0611
  0
LINE
  8
0
 10
28.5451
 20
19.0611
 11
28.8815
 21
19.5912
  0
LINE
  8
0
 10
28.8815
 20
19.5912
 11
29.1489
 21
20.1594
  0
LINE
  8
0
 10
29.1489
 20
20.1594
 11
29.3429
 21
20.7566
  0
LINE
  8
0
 10
29.3429
 20
20.7566
 11
29.4606
 21
21.3733
  0
LINE
  8
0
 10
29.4606
 20
21.3733
 11
29.5
 21
22
  0
LINE
  8
0
 10
29.5
 20
22
 11
29.5
 21
26
  0
LINE
  8
0
 10
29.5
 20
26
 11
29.4606
 21
26.6267
  0
LINE
  8
0
 10
29.4606
 20
26.6267
 11
29.3429
 21
27.2434
  0
LINE
  8
0
 10
29.3429
 20
27.2434
 11
29.1489
 21
27.8406
  0
LINE
  8
0
 10
29.1489
 20
27.8406
 11
28.8815
 21
28.4088
  0
LINE
  8
0
 10
28.8815
 20
28.4088
 11
28.5451
 21
28.9389
  0
LINE
  8
0
 10
28.5451
 20
28.9389
 11
28.1448
 21
29.4227
  0
LINE
  8
0
 10
28.1448
 20
29.4227
 11
27.6871
 21
29.8526
  0
LINE
  8
0
 10
27.6871
 20
29.8526
 11
27.1791
 21
30.2216
  0
LINE
  8
0
 10
27.1791
 20
30.2216
 11
26.6289
 21
30.5241
  0
LINE
  8
0
 10
26.6289
 20
30.5241
 11
26.0451
 21
30.7553
  0
LINE
  8
0
 10
26.0451
 20
30.7553
 11
25.4369
 21
30.9114
  0
LINE
  8
0
 10
25.4369
 20
30.9114
 11
24.8139
 21
30.9901
  0
LINE
  8
0
 10
24.8139
 20
30.9901
 11
-24.8139
 21
30.9901
  0
LINE
  8
0
 10
-24.8139
 20
30.9901
 11
-25.4369
 21
30.9114
  0
LINE
  8
0
 10
-25.4369
 20
30.9114
 11
-26.0451
 21
30.7553
  0
LINE
  8
0
 10
-26.0451
 20
30.7553
 11
-26.6289
 21
30.5241
  0
LINE
  8
0
 10
-26.6289
 20
30.5241
 11
-27.1791
 21
30.2216
  0
LINE
  8
0
 10
-27.1791
 20
30.2216
 11
-27.6871
 21
29.8526
  0
LINE
  8
0
 10
-27.6871
 20
29.8526
 11
-28.1448
 21
29.4227
  0
LINE
  8
0
 10
-28.1448
 20
29.4227
 11
-28.5451
 21
28.9389
  0
LINE
  8
0
 10
-28.5451
 20
28.9389
 11
-28.8815
 21
28.4088
  0
LINE
  8
0
 10
-28.8815
 20
28.4088
 11
-29.1489
 21
27.8406
  0
LINE
  8
0
 10
-29.1489
 20
27.8406
 11
-29.3429
 21
27.2434
  0
LINE
  8
0
 10
-29.3429
 20
27.2434
 11
-29.4606
 21
26.6267
  0
LINE
  8
0
 10
-29.4606
 20
26.6267
 11
-29.5
 21
26
  0
LINE
  8
0
 10
-29.5
 20
26
 11
-29.5
 21
22
  0
LINE
  8
0
 10
-29.5
 20
22
 11
-29.4606
 21
21.3733
  0
LINE
  8
0
 10
-29.4606
 20
21.3733
 11
-29.3429
 21
20.7566
  0
LINE
  8
0
 10
-29.3429
 20
20.7566
 11
-29.1489
 21
20.1594
  0
LINE
  8
0
 10
-29.1489
 20
20.1594
 11
-28.8815
 21
19.5912
  0
LINE
  8
0
 10
-28.8815
 20
19.5912
 11
-28.5451
 21
19.0611
  0
LINE
  8
0
 10
-28.5451
 20
19.0611
 11
-28.1448
 21
18.5773
  0
LINE
  8
0
 10
-28.1448
 20
18.5773
 11
-27.6871
 21
18.1474
  0
LINE
  8
0
 10
-27.6871
 20
18.1474
 11
-27.1791
 21
17.7784
  0
LINE
  8
0
 10
-27.1791
 20
17.7784
 11
-26.6289
 21
17.4759
  0
LINE
  8
0
 10
-26.6289
 20
17.4759
 11
-26.0451
 21
17.2447
  0
LINE
  8
0
 10
-26.0451
 20
17.2447
 11
-25.4369
 21
17.0886
  0
LINE
  8
0
 10
-25.4369
 20
17.0886
 11
-24.8139
 21
17.0099
  0
LINE
  8
0
 10
-24.8139
 20
17.0099
 11
24.8139
 21
17.0099
  0
LINE
  8
0
 10
24.8139
 20
17.0099
 11
25.4369
 21
17.0886
  0
LINE
  8
0
 10
10.8116
 20
21.0059
 11
10.4379
 21
21.0531
  0
LINE
  8
0
 10
10.4379
 20
21.0531
 11
10.0729
 21
21.1468
  0
LINE
  8
0
 10
10.0729
 20
21.1468
 11
9.72266
 21
21.2855
  0
LINE
  8
0
 10
9.72266
 20
21.2855
 11
9.39252
 21
21.467
  0
LINE
  8
0
 10
9.39252
 20
21.467
 11
9.08772
 21
21.6885
  0
LINE
  8
0
 10
9.08772
 20
21.6885
 11
8.81308
 21
21.9464
  0
LINE
  8
0
 10
8.81308
 20
21.9464
 11
8.57294
 21
22.2366
  0
LINE
  8
0
 10
8.57294
 20
22.2366
 11
8.37108
 21
22.5547
  0
LINE
  8
0
 10
8.37108
 20
22.5547
 11
8.21066
 21
22.8956
  0
LINE
  8
0
 10
8.21066
 20
22.8956
 11
8.09424
 21
23.2539
  0
LINE
  8
0
 10
8.09424
 20
23.2539
 11
8.02365
 21
23.624
  0
LINE
  8
0
 10
8.02365
 20
23.624
 11
8
 21
24
  0
LINE
  8
0
 10
8
 20
24
 11
8.02365
 21
24.376
  0
LINE
  8
0
 10
8.02365
 20
24.376
 11
8.09424
 21
24.7461
  0
LINE
  8
0
 10
8.09424
 20
24.7461
 11
8.21066
 21
25.1044
  0
LINE
  8
0
 10
8.21066
 20
25.1044
 11
8.37108
 21
25.4453
  0
LINE
  8
0
 10
8.37108
 20
25.4453
 11
8.57294
 21
25.7634
  0
LINE
  8
0
 10
8.57294
 20
25.7634
 11
8.81308
 21
26.0536
  0
LINE
  8
0
 10
8.81308
 20
26.0536
 11
9.08772
 21
26.3115
  0
LINE
  8
0
 10
9.08772
 20
26.3115
 11
9.39252
 21
26.533
  0
LINE
  8
0
 10
9.39252
 20
26.533
 11
9.72266
 21
26.7145
  0
LINE
  8
0
 10
9.72266
 20
26.7145
 11
10.0729
 21
26.8532
  0
LINE
  8
0
 10
10.0729
 20
26.8532
 11
10.4379
 21
26.9469
  0
LINE
  8
0
 10
10.4379
 20
26.9469
 11
10.8116
 21
26.9941
  0
LINE
  8
0
 10
10.8116
 20
26.9941
 11
11.1884
 21
26.9941
  0
LINE
  8
0
 10
11.1884
 20
26.9941
 11
11.5621
 21
26.9469
  0
LINE
  8
0
 10
11.5621
 20
26.9469
 11
11.927
 21
26.8532
  0
LINE
  8
0
 10
11.927
 20
26.8532
 11
12.2773
 21
26.7145
  0
LINE
  8
0
 10
12.2773
 20
26.7145
 11
12.6075
 21
26.533
  0
LINE
  8
0
 10
12.6075
 20
26.533
 11
12.9123
 21
26.3115
  0
LINE
  8
0
 10
12.9123
 20
26.3115
 11
13.1869
 21
26.0536
  0
LINE
  8
0
 10
13.1869
 20
26.0536
 11
13.427
 21
25.7634
  0
LINE
  8
0
 10
13.427
 20
25.7634
 11
13.6289
 21
25.4453
  0
LINE
  8
0
 10
13.6289
 20
25.4453
 11
13.7893
 21
25.1044
  0
LINE
  8
0
 10
13.7893
 20
25.1044
 11
13.9057
 21
24.7461
  0
LINE
  8
0
 10
13.9057
 20
24.7461
 11
13.9763
 21
24.376
  0
LINE
  8
0
 10
13.9763
 20
24.376
 11
14
 21
24
  0
LINE
  8
0
 10
14
 20
24
 11
13.9763
 21
23.624
  0
LINE
  8
0
 10
13.9763
 20
23.624
 11
13.9057
 21
23.2539
  0
LINE
  8
0
 10
13.9057
 20
23.2539
 11
13.7893
 21
22.8956
  0
LINE
  8
0
 10
13.7893
 20
22.8956
 11
13.6289
 21
22.5547
  0
LINE
  8
0
 10
13.6289
 20
22.5547
 11
13.427
 21
22.2366
  0
LINE
  8
0
 10
13.427
 20
22.2366
 11
13.1869
 21
21.9464
  0
LINE
  8
0
 10
13.1869
 20
21.9464
 11
12.9123
 21
21.6885
  0
LINE
  8
0
 10
12.9123
 20
21.6885
 11
12.6075
 21
21.467
  0
LINE
  8
0
 10
12.6075
 20
21.467
 11
12.2773
 21
21.2855
  0
LINE
  8
0
 10
12.2773
 20
21.2855
 11
11.927
 21
21.1468
  0
LINE
  8
0
 10
11.927
 20
21.1468
 11
11.5621
 21
21.0531
  0
LINE
  8
0
 10
11.5621
 20
21.0531
 11
11.1884
 21
21.0059
  0
LINE
  8
0
 10
11.1884
 20
21.0059
 11
10.8116
 21
21.0059
  0
LINE
  8
0
 10
21.8116
 20
21.0059
 11
21.4379
 21
21.0531
  0
LINE
  8
0
 10
21.4379
 20
21.0531
 11
21.0729
 21
21.1468
  0
LINE
  8
0
 10
21.0729
 20
21.1468
 11
20.7227
 21
21.2855
  0
LINE
  8
0
 10
20.7227
 20
21.2855
 11
20.3925
 21
21.467
  0
LINE
  8
0
 10
20.3925
 20
21.467
 11
20.0877
 21
21.6885
  0
LINE
  8
0
 10
20.0877
 20
21.6885
 11
19.8131
 21
21.9464
  0
LINE
  8
0
 10
19.8131
 20
21.9464
 11
19.5729
 21
22.2366
  0
LINE
  8
0
 10
19.5729
 20
22.2366
 11
19.3711
 21
22.5547
  0
LINE
  8
0
 10
19.3711
 20
22.5547
 11
19.2107
 21
22.8956
  0
LINE
  8
0
 10
19.2107
 20
22.8956
 11
19.0942
 21
23.2539
  0
LINE
  8
0
 10
19.0942
 20
23.2539
 11
19.0237
 21
23.624
  0
LINE
  8
0
 10
19.0237
 20
23.624
 11
19
 21
24
  0
LINE
  8
0
 10
19
 20
24
 11
19.0237
 21
24.376
  0
LINE
  8
0
 10
19.0237
 20
24.376
 11
19.0942
 21
24.7461
  0
LINE
  8
0
 10
19.0942
 20
24.7461
 11
19.2107
 21
25.1044
  0
LINE
  8
0
 10
19.2107
 20
25.1044
 11
19.3711
 21
25.4453
  0
LINE
  8
0
 10
19.3711
 20
25.4453
 11
19.5729
 21
25.7634
  0
LINE
  8
0
 10
19.5729
 20
25.7634
 11
19.8131
 21
26.0536
  0
LINE
  8
0
 10
19.8131
 20
26.0536
 11
20.0877
 21
26.3115
  0
LINE
  8
0
 10
20.0877
 20
26.3115
 11
20.3925
 21
26.533
  0
LINE
  8
0
 10
20.3925
 20
26.533
 11
20.7227
 21
26.7145
  0
LINE
  8
0
 10
20.7227
 20
26.7145
 11
21.0729
 21
26.8532
  0
LINE
  8
0
 10
21.0729
 20
26.8532
 11
21.4379
 21
26.9469
  0
LINE
  8
0
 10
21.4379
 20
26.9469
 11
21.8116
 21
26.9941
  0
LINE
  8
0
 10
21.8116
 20
26.9941
 11
22.1884
 21
26.9941
  0
LINE
  8
0
 10
22.1884
 20
26.9941
 11
22.25
 21
26.9863
  0
LINE
  8
0
 10
22.25
 20
26.9863
 11
22.3116
 21
26.9941
  0
LINE
  8
0
 10
22.3116
 20
26.9941
 11
22.6884
 21
26.9941
  0
LINE
  8
0
 10
22.6884
 20
26.9941
 11
23.0621
 21
26.9469
  0
LINE
  8
0
 10
23.0621
 20
26.9469
 11
23.427
 21
26.8532
  0
LINE
  8
0
 10
23.427
 20
26.8532
 11
23.7773
 21
26.7145
  0
LINE
  8
0
 10
23.7773
 20
26.7145
 11
24.1075
 21
26.533
  0
LINE
  8
0
 10
24.1075
 20
26.533
 11
24.4123
 21
26.3115
  0
LINE
  8
0
 10
24.4123
 20
26.3115
 11
24.6869
 21
26.0536
  0
LINE
  8
0
 10
24.6869
 20
26.0536
 11
24.927
 21
25.7634
  0
LINE
  8
0
 10
24.927
 20
25.7634
 11
25.1289
 21
25.4453
  0
LINE
  8
0
 10
25.1289
 20
25.4453
 11
25.2893
 21
25.1044
  0
LINE
  8
0
 10
25.2893
 20
25.1044
 11
25.4057
 21
24.7461
  0
LINE
  8
0
 10
25.4057
 20
24.7461
 11
25.4763
 21
24.376
  0
LINE
  8
0
 10
25.4763
 20
24.376
 11
25.5
 21
24
  0
LINE
  8
0
 10
25.5
 20
24
 11
25.4763
 21
23.624
  0
LINE
  8
0
 10
25.4763
 20
23.624
 11
25.4057
 21
23.2539
  0
LINE
  8
0
 10
25.4057
 20
23.2539
 11
25.2893
 21
22.8956
  0
LINE
  8
0
 10
25.2893
 20
22.8956
 11
25.1289
 21
22.5547
  0
LINE
  8
0
 10
25.1289
 20
22.5547
 11
24.927
 21
22.2366
  0
LINE
  8
0
 10
24.927
 20
22.2366
 11
24.6869
 21
21.9464
  0
LINE
  8
0
 10
24.6869
 20
21.9464
 11
24.4123
 21
21.6885
  0
LINE
  8
0
 10
24.4123
 20
21.6885
 11
24.1075
 21
21.467
  0
LINE
  8
0
 10
24.1075
 20
21.467
 11
23.7773
 21
21.2855
  0
LINE
  8
0
 10
23.7773
 20
21.2855
 11
23.427
 21
21.1468
  0
LINE
  8
0
 10
23.427
 20
21.1468
 11
23.0621
 21
21.0531
  0
LINE
  8
0
 10
23.0621
 20
21.0531
 11
22.6884
 21
21.0059
  0
LINE
  8
0
 10
22.6884
 20
21.0059
 11
22.3116
 21
21.0059
  0
LINE
  8
0
 10
22.3116
 20
21.0059
 11
22.25
 21
21.0137
  0
LINE
  8
0
 10
22.25
 20
21.0137
 11
22.1884
 21
21.0059
  0
LINE
  8
0
 10
22.1884
 20
21.0059
 11
21.8116
 21
21.0059
  0
LINE
  8
0
 10
-0.18837
 20
21.0059
 11
-0.562134
 21
21.0531
  0
LINE
  8
0
 10
-0.562134
 20
21.0531
 11
-0.927048
 21
21.1468
  0
LINE
  8
0
 10
-0.927048
 20
21.1468
 11
-1.27733
 21
21.2855
  0
LINE
  8
0
 10
-1.27733
 20
21.2855
 11
-1.60747
 21
21.467
  0
LINE
  8
0
 10
-1.60747
 20
21.467
 11
-1.91226
 21
21.6885
  0
LINE
  8
0
 10
-1.91226
 20
21.6885
 11
-2.1869
 21
21.9464
  0
LINE
  8
0
 10
-2.1869
 20
21.9464
 11
-2.42705
 21
22.2366
  0
LINE
  8
0
 10
-2.42705
 20
22.2366
 11
-2.62891
 21
22.5547
  0
LINE
  8
0
 10
-2.62891
 20
22.5547
 11
-2.78932
 21
22.8956
  0
LINE
  8
0
 10
-2.78932
 20
22.8956
 11
-2.90575
 21
23.2539
  0
LINE
  8
0
 10
-2.90575
 20
23.2539
 11
-2.97633
 21
23.624
  0
LINE
  8
0
 10
-2.97633
 20
23.624
 11
-3
 21
24
  0
LINE
  8
0
 10
-3
 20
24
 11
-2.97633
 21
24.376
  0
LINE
  8
0
 10
-2.97633
 20
24.376
 11
-2.90575
 21
24.7461
  0
LINE
  8
0
 10
-2.90575
 20
24.7461
 11
-2.78932
 21
25.1044
  0
LINE
  8
0
 10
-2.78932
 20
25.1044
 11
-2.62891
 21
25.4453
  0
LINE
  8
0
 10
-2.62891
 20
25.4453
 11
-2.42705
 21
25.7634
  0
LINE
  8
0
 10
-2.42705
 20
25.7634
 11
-2.1869
 21
26.0536
  0
LINE
  8
0
 10
-2.1869
 20
26.0536
 11
-1.91226
 21
26.3115
  0
LINE
  8
0
 10
-1.91226
 20
26.3115
 11
-1.60747
 21
26.533
  0
LINE
  8
0
 10
-1.60747
 20
26.533
 11
-1.27733
 21
26.7145
  0
LINE
  8
0
 10
-1.27733
 20
26.7145
 11
-0.927048
 21
26.8532
  0
LINE
  8
0
 10
-0.927048
 20
26.8532
 11
-0.562134
 21
26.9469
  0
LINE
  8
0
 10
-0.562134
 20
26.9469
 11
-0.18837
 21
26.9941
  0
LINE
  8
0
 10
-0.18837
 20
26.9941
 11
0.18837
 21
26.9941
  0
LINE
  8
0
 10
0.18837
 20
26.9941
 11
0.562134
 21
26.9469
  0
LINE
  8
0
 10
0.562134
 20
26.9469
 11
0.927048
 21
26.8532
  0
LINE
  8
0
 10
0.927048
 20
26.8532
 11
1.27733
 21
26.7145
  0
LINE
  8
0
 10
1.27733
 20
26.7145
 11
1.60747
 21
26.533
  0
LINE
  8
0
 10
1.60747
 20
26.533
 11
1.91226
 21
26.3115
  0
LINE
  8
0
 10
1.91226
 20
26.3115
 11
2.1869
 21
26.0536
  0
LINE
  8
0
 10
2.1869
 20
26.0536
 11
2.42705
 21
25.7634
  0
LINE
  8
0
 10
2.42705
 20
25.7634
 11
2.62891
 21
25.4453
  0
LINE
  8
0
 10
2.62891
 20
25.4453
 11
2.78932
 21
25.1044
  0
LINE
  8
0
 10
2.78932
 20
25.1044
 11
2.90575
 21
24.7461
  0
LINE
  8
0
 10
2.90575
 20
24.7461
 11
2.97633
 21
24.376
  0
LINE
  8
0
 10
2.97633
 20
24.376
 11
3
 21
24
  0
LINE
  8
0
 10
3
 20
24
 11
2.97633
 21
23.624
  0
LINE
  8
0
 10
2.97633
 20
23.624
 11
2.90575
 21
23.2539
  0
LINE
  8
0
 10
2.90575
 20
23.2539
 11
2.78932
 21
22.8956
  0
LINE
  8
0
 10
2.78932
 20
22.8956
 11
2.62891
 21
22.5547
  0
LINE
  8
0
 10
2.62891
 20
22.5547
 11
2.42705
 21
22.2366
  0
LINE
  8
0
 10
2.42705
 20
22.2366
 11
2.1869
 21
21.9464
  0
LINE
  8
0
 10
2.1869
 20
21.9464
 11
1.91226
 21
21.6885
  0
LINE
  8
0
 10
1.91226
 20
21.6885
 11
1.60747
 21
21.467
  0
LINE
  8
0
 10
1.60747
 20
21.467
 11
1.27733
 21
21.2855
  0
LINE
  8
0
 10
1.27733
 20
21.2855
 11
0.927048
 21
21.1468
  0
LINE
  8
0
 10
0.927048
 20
21.1468
 11
0.562134
 21
21.0531
  0
LINE
  8
0
 10
0.562134
 20
21.0531
 11
0.18837
 21
21.0059
  0
LINE
  8
0
 10
0.18837
 20
21.0059
 11
-0.18837
 21
21.0059
  0
LINE
  8
0
 10
-11.1884
 20
21.0059
 11
-11.5621
 21
21.0531
  0
LINE
  8
0
 10
-11.5621
 20
21.0531
 11
-11.927
 21
21.1468
  0
LINE
  8
0
 10
-11.927
 20
21.1468
 11
-12.2773
 21
21.2855
  0
LINE
  8
0
 10
-12.2773
 20
21.2855
 11
-12.6075
 21
21.467
  0
LINE
  8
0
 10
-12.6075
 20
21.467
 11
-12.9123
 21
21.6885
  0
LINE
  8
0
 10
-12.9123
 20
21.6885
 11
-13.1869
 21
21.9464
  0
LINE
  8
0
 10
-13.1869
 20
21.9464
 11
-13.427
 21
22.2366
  0
LINE
  8
0
 10
-13.427
 20
22.2366
 11
-13.6289
 21
22.5547
  0
LINE
  8
0
 10
-13.6289
 20
22.5547
 11
-13.7893
 21
22.8956
  0
LINE
  8
0
 10
-13.7893
 20
22.8956
 11
-13.9057
 21
23.2539
  0
LINE
  8
0
 10
-13.9057
 20
23.2539
 11
-13.9763
 21
23.624
  0
LINE
  8
0
 10
-13.9763
 20
23.624
 11
-14
 21
24
  0
LINE
  8
0
 10
-14
 20
24
 11
-13.9763
 21
24.376
  0
LINE
  8
0
 10
-13.9763
 20
24.376
 11
-13.9057
 21
24.7461
  0
LINE
  8
0
 10
-13.9057
 20
24.7461
 11
-13.7893
 21
25.1044
  0
LINE
  8
0
 10
-13.7893
 20
25.1044
 11
-13.6289
 21
25.4453
  0
LINE
  8
0
 10
-13.6289
 20
25.4453
 11
-13.427
 21
25.7634
  0
LINE
  8
0
 10
-13.427
 20
25.7634
 11
-13.1869
 21
26.0536
  0
LINE
  8
0
 10
-13.1869
 20
26.0536
 11
-12.9123
 21
26.3115
  0
LINE
  8
0
 10
-12.9123
 20
26.3115
 11
-12.6075
 21
26.533
  0
LINE
  8
0
 10
-12.6075
 20
26.533
 11
-12.2773
 21
26.7145
  0
LINE
  8
0
 10
-12.2773
 20
26.7145
 11
-11.927
 21
26.8532
  0
LINE
  8
0
 10
-11.927
 20
26.8532
 11
-11.5621
 21
26.9469
  0
LINE
  8
0
 10
-11.5621
 20
26.9469
 11
-11.1884
 21
26.9941
  0
LINE
  8
0
 10
-11.1884
 20
26.9941
 11
-10.8116
 21
26.9941
  0
LINE
  8
0
 10
-10.8116
 20
26.9941
 11
-10.4379
 21
26.9469
  0
LINE
  8
0
 10
-10.4379
 20
26.9469
 11
-10.0729
 21
26.8532
  0
LINE
  8
0
 10
-10.0729
 20
26.8532
 11
-9.72266
 21
26.7145
  0
LINE
  8
0
 10
-9.72266
 20
26.7145
 11
-9.39252
 21
26.533
  0
LINE
  8
0
 10
-9.39252
 20
26.533
 11
-9.08772
 21
26.3115
  0
LINE
  8
0
 10
-9.08772
 20
26.3115
 11
-8.81308
 21
26.0536
  0
LINE
  8
0
 10
-8.81308
 20
26.0536
 11
-8.57294
 21
25.7634
  0
LINE
  8
0
 10
-8.57294
 20
25.7634
 11
-8.37108
 21
25.4453
  0
LINE
  8
0
 10
-8.37108
 20
25.4453
 11
-8.21066
 21
25.1044
  0
LINE
  8
0
 10
-8.21066
 20
25.1044
 11
-8.09424
 21
24.7461
  0
LINE
  8
0
 10
-8.09424
 20
24.7461
 11
-8.02365
 21
24.376
  0
LINE
  8
0
 10
-8.02365
 20
24.376
 11
-8
 21
24
  0
LINE
  8
0
 10
-8
 20
24
 11
-8.02365
 21
23.624
  0
LINE
  8
0
 10
-8.02365
 20
23.624
 11
-8.09424
 21
23.2539
  0
LINE
  8
0
 10
-8.09424
 20
23.2539
 11
-8.21066
 21
22.8956
  0
LINE
  8
0
 10
-8.21066
 20
22.8956
 11
-8.37108
 21
22.5547
  0
LINE
  8
0
 10
-8.37108
 20
22.5547
 11
-8.57294
 21
22.2366
  0
LINE
  8
0
 10
-8.57294
 20
22.2366
 11
-8.81308
 21
21.9464
  0
LINE
  8
0
 10
-8.81308
 20
21.9464
 11
-9.08772
 21
21.6885
  0
LINE
  8
0
 10
-9.08772
 20
21.6885
 11
-9.39252
 21
21.467
  0
LINE
  8
0
 10
-9.39252
 20
21.467
 11
-9.72266
 21
21.2855
  0
LINE
  8
0
 10
-9.72266
 20
21.2855
 11
-10.0729
 21
21.1468
  0
LINE
  8
0
 10
-10.0729
 20
21.1468
 11
-10.4379
 21
21.0531
  0
LINE
  8
0
 10
-10.4379
 20
21.0531
 11
-10.8116
 21
21.0059
  0
LINE
  8
0
 10
-10.8116
 20
21.0059
 11
-11.1884
 21
21.0059
  0
LINE
  8
0
 10
-22.6884
 20
21.0059
 11
-23.0621
 21
21.0531
  0
LINE
  8
0
 10
-23.0621
 20
21.0531
 11
-23.427
 21
21.1468
  0
LINE
  8
0
 10
-23.427
 20
21.1468
 11
-23.7773
 21
21.2855
  0
LINE
  8
0
 10
-23.7773
 20
21.2855
 11
-24.1075
 21
21.467
  0
LINE
  8
0
 10
-24.1075
 20
21.467
 11
-24.4123
 21
21.6885
  0
LINE
  8
0
 10
-24.4123
 20
21.6885
 11
-24.6869
 21
21.9464
  0
LINE
  8
0
 10
-24.6869
 20
21.9464
 11
-24.927
 21
22.2366
  0
LINE
  8
0
 10
-24.927
 20
22.2366
 11
-25.1289
 21
22.5547
  0
LINE
  8
0
 10
-25.1289
 20
22.5547
 11
-25.2893
 21
22.8956
  0
LINE
  8
0
 10
-25.2893
 20
22.8956
 11
-25.4057
 21
23.2539
  0
LINE
  8
0
 10
-25.4057
 20
23.2539
 11
-25.4763
 21
23.624
  0
LINE
  8
0
 10
-25.4763
 20
23.624
 11
-25.5
 21
24
  0
LINE
  8
0
 10
-25.5
 20
24
 11
-25.4763
 21
24.376
  0
LINE
  8
0
 10
-25.4763
 20
24.376
 11
-25.4057
 21
24.7461
  0
LINE
  8
0
 10
-25.4057
 20
24.7461
 11
-25.2893
 21
25.1044
  0
LINE
  8
0
 10
-25.2893
 20
25.1044
 11
-25.1289
 21
25.4453
  0
LINE
  8
0
 10
-25.1289
 20
25.4453
 11
-24.927
 21
25.7634
  0
LINE
  8
0
 10
-24.927
 20
25.7634
 11
-24.6869
 21
26.0536
  0
LINE
  8
0
 10
-24.6869
 20
26.0536
 11
-24.4123
 21
26.3115
  0
LINE
  8
0
 10
-24.4123
 20
26.3115
 11
-24.1075
 21
26.533
  0
LINE
  8
0
 10
-24.1075
 20
26.533
 11
-23.7773
 21
26.7145
  0
LINE
  8
0
 10
-23.7773
 20
26.7145
 11
-23.427
 21
26.8532
  0
LINE
  8
0
 10
-23.427
 20
26.8532
 11
-23.0621
 21
26.9469
  0
LINE
  8
0
 10
-23.0621
 20
26.9469
 11
-22.6884
 21
26.9941
  0
LINE
  8
0
 10
-22.6884
 20
26.9941
 11
-22.3116
 21
26.9941
  0
LINE
  8
0
 10
-22.3116
 20
26.9941
 11
-22.25
 21
26.9863
  0
LINE
  8
0
 10
-22.25
 20
26.9863
 11
-22.1884
 21
26.9941
  0
LINE
  8
0
 10
-22.1884
 20
26.9941
 11
-21.8116
 21
26.9941
  0
LINE
  8
0
 10
-21.8116
 20
26.9941
 11
-21.4379
 21
26.9469
  0
LINE
  8
0
 10
-21.4379
 20
26.9469
 11
-21.0729
 21
26.8532
  0
LINE
  8
0
 10
-21.0729
 20
26.8532
 11
-20.7227
 21
26.7145
  0
LINE
  8
0
 10
-20.7227
 20
26.7145
 11
-20.3925
 21
26.533
  0
LINE
  8
0
 10
-20.3925
 20
26.533
 11
-20.0877
 21
26.3115
  0
LINE
  8
0
 10
-20.0877
 20
26.3115
 11
-19.8131
 21
26.0536
  0
LINE
  8
0
 10
-19.8131
 20
26.0536
 11
-19.5729
 21
25.7634
  0
LINE
  8
0
 10
-19.5729
 20
25.7634
 11
-19.3711
 21
25.4453
  0
LINE
  8
0
 10
-19.3711
 20
25.4453
 11
-19.2107
 21
25.1044
  0
LINE
  8
0
 10
-19.2107
 20
25.1044
 11
-19.0942
 21
24.7461
  0
LINE
  8
0
 10
-19.0942
 20
24.7461
 11
-19.0237
 21
24.376
  0
LINE
  8
0
 10
-19.0237
 20
24.376
 11
-19
 21
24
  0
LINE
  8
0
 10
-19
 20
24
 11
-19.0237
 21
23.624
  0
LINE
  8
0
 10
-19.0237
 20
23.624
 11
-19.0942
 21
23.2539
  0
LINE
  8
0
 10
-19.0942
 20
23.2539
 11
-19.2107
 21
22.8956
  0
LINE
  8
0
 10
-19.2107
 20
22.8956
 11
-19.3711
 21
22.5547
  0
LINE
  8
0
 10
-19.3711
 20
22.5547
 11
-19.5729
 21
22.2366
  0
LINE
  8
0
 10
-19.5729
 20
22.2366
 11
-19.8131
 21
21.9464
  0
LINE
  8
0
 10
-19.8131
 20
21.9464
 11
-20.0877
 21
21.6885
  0
LINE
  8
0
 10
-20.0877
 20
21.6885
 11
-20.3925
 21
21.467
  0
LINE
  8
0
 10
-20.3925
 20
21.467
 11
-20.7227
 21
21.2855
  0
LINE
  8
0
 10
-20.7227
 20
21.2855
 11
-21.0729
 21
21.1468
  0
LINE
  8
0
 10
-21.0729
 20
21.1468
 11
-21.4379
 21
21.0531
  0
LINE
  8
0
 10
-21.4379
 20
21.0531
 11
-21.8116
 21
21.0059
  0
LINE
  8
0
 10
-21.8116
 20
21.0059
 11
-22.1884
 21
21.0059
  0
LINE
  8
0
 10
-22.1884
 20
21.0059
 11
-22.25
 21
21.0137
  0
LINE
  8
0
 10
-22.25
 20
21.0137
 11
-22.3116
 21
21.0059
  0
LINE
  8
0
 10
-22.3116
 20
21.0059
 11
-22.6884
 21
21.0059
  0
ENDSEC
  0
SECTION
  2
OBJECTS
  0
DICTIONARY
  0
ENDSEC
  0
EOF
