<?xml version="1.0" standalone="no"?>
<!DOCTYPE svg PUBLIC "-//W3C//DTD SVG 1.1//EN" "http://www.w3.org/Graphics/SVG/1.1/DTD/svg11.dtd">
<svg width="180mm" height="44mm" viewBox="-90 -22 180 44" xmlns="http://www.w3.org/2000/svg" version="1.1">
<title>OpenSCAD Model</title>
<path d="
M 85.4369,21.9114 L 86.0451,21.7553 L 86.6289,21.5241 L 87.1791,21.2216 L 87.6871,20.8526 L 88.1448,20.4227
 L 88.5451,19.9389 L 88.8815,19.4088 L 89.1489,18.8406 L 89.3429,18.2434 L 89.4606,17.6267 L 89.5,17
 L 89.5,-17 L 89.4606,-17.6267 L 89.3429,-18.2434 L 89.1489,-18.8406 L 88.8815,-19.4088 L 88.5451,-19.9389
 L 88.1448,-20.4227 L 87.6871,-20.8526 L 87.1791,-21.2216 L 86.6289,-21.5241 L 86.0451,-21.7553 L 85.4369,-21.9114
 L 84.8139,-21.9901 L -84.8139,-21.9901 L -85.4369,-21.9114 L -86.0451,-21.7553 L -86.6289,-21.5241 L -87.1791,-21.2216
 L -87.6871,-20.8526 L -88.1448,-20.4227 L -88.5451,-19.9389 L -88.8815,-19.4088 L -89.1489,-18.8406 L -89.3429,-18.2434
 L -89.4606,-17.6267 L -89.5,-17 L -89.5,17 L -89.4606,17.6267 L -89.3429,18.2434 L -89.1489,18.8406
 L -88.8815,19.4088 L -88.5451,19.9389 L -88.1448,20.4227 L -87.6871,20.8526 L -87.1791,21.2216 L -86.6289,21.5241
 L -86.0451,21.7553 L -85.4369,21.9114 L -84.8139,21.9901 L 84.8139,21.9901 z
M -82.6884,-12.0059 L -83.0621,-12.0531 L -83.427,-12.1468 L -83.7773,-12.2855 L -84.1075,-12.467 L -84.4123,-12.6884
 L -84.6869,-12.9464 L -84.927,-13.2366 L -85.1289,-13.5547 L -85.2893,-13.8956 L -85.4057,-14.2539 L -85.4763,-14.624
 L -85.5,-15 L -85.4763,-15.376 L -85.4057,-15.7461 L -85.2893,-16.1044 L -85.1289,-16.4453 L -84.927,-16.7634
 L -84.6869,-17.0536 L -84.4123,-17.3115 L -84.1075,-17.533 L -83.7773,-17.7145 L -83.427,-17.8532 L -83.0621,-17.9469
 L -82.6884,-17.9941 L -82.3116,-17.9941 L -81.9379,-17.9469 L -81.573,-17.8532 L -81.2227,-17.7145 L -80.8925,-17.533
 L -80.5877,-17.3115 L -80.3131,-17.0536 L -80.073,-16.7634 L -79.8711,-16.4453 L -79.7107,-16.1044 L -79.5943,-15.7461
 L -79.5237,-15.376 L -79.5,-15 L -79.5237,-14.624 L -79.5943,-14.2539 L -79.7107,-13.8956 L -79.8711,-13.5547
 L -80.073,-13.2366 L -80.3131,-12.9464 L -80.5877,-12.6884 L -80.8925,-12.467 L -81.2227,-12.2855 L -81.573,-12.1468
 L -81.9379,-12.0531 L -82.3116,-12.0059 z
M 82.3116,-12.0059 L 81.9379,-12.0531 L 81.573,-12.1468 L 81.2227,-12.2855 L 80.8925,-12.467 L 80.5877,-12.6884
 L 80.3131,-12.9464 L 80.073,-13.2366 L 79.8711,-13.5547 L 79.7107,-13.8956 L 79.5943,-14.2539 L 79.5237,-14.624
 L 79.5,-15 L 79.5237,-15.376 L 79.5943,-15.7461 L 79.7107,-16.1044 L 79.8711,-16.4453 L 80.073,-16.7634
 L 80.3131,-17.0536 L 80.5877,-17.3115 L 80.8925,-17.533 L 81.2227,-17.7145 L 81.573,-17.8532 L 81.9379,-17.9469
 L 82.3116,-17.9941 L 82.6884,-17.9941 L 83.0621,-17.9469 L 83.427,-17.8532 L 83.7773,-17.7145 L 84.1075,-17.533
 L 84.4123,-17.3115 L 84.6869,-17.0536 L 84.927,-16.7634 L 85.1289,-16.4453 L 85.2893,-16.1044 L 85.4057,-15.7461
 L 85.4763,-15.376 L 85.5,-15 L 85.4763,-14.624 L 85.4057,-14.2539 L 85.2893,-13.8956 L 85.1289,-13.5547
 L 84.927,-13.2366 L 84.6869,-12.9464 L 84.4123,-12.6884 L 84.1075,-12.467 L 83.7773,-12.2855 L 83.427,-12.1468
 L 83.0621,-12.0531 L 82.6884,-12.0059 z
M 57.4326,16.9664 L 55.3145,16.6989 L 53.2467,16.168 L 51.2617,15.382 L 49.3909,14.3536 L 47.6638,13.0987
 L 46.1075,11.6373 L 44.7467,9.99234 L 43.6028,8.1898 L 42.6938,6.2581 L 42.0341,4.22772 L 41.634,2.13066
 L 41.5,-0 L 41.634,-2.13066 L 42.0341,-4.22772 L 42.6938,-6.2581 L 43.6028,-8.1898 L 44.7467,-9.99234
 L 46.1075,-11.6373 L 47.6638,-13.0987 L 49.3909,-14.3536 L 51.2617,-15.382 L 53.2467,-16.168 L 55.3145,-16.6989
 L 57.4326,-16.9664 L 59.5674,-16.9664 L 61.6855,-16.6989 L 63.7533,-16.168 L 65.7383,-15.382 L 67.6091,-14.3536
 L 69.3362,-13.0987 L 70.8925,-11.6373 L 72.2533,-9.99234 L 73.3972,-8.1898 L 74.3062,-6.2581 L 74.9659,-4.22772
 L 75.366,-2.13066 L 75.5,-0 L 75.366,2.13066 L 74.9659,4.22772 L 74.3062,6.2581 L 73.3972,8.1898
 L 72.2533,9.99234 L 70.8925,11.6373 L 69.3362,13.0987 L 67.6091,14.3536 L 65.7383,15.382 L 63.7533,16.168
 L 61.6855,16.6989 L 59.5674,16.9664 z
M -20.5674,16.9664 L -22.6855,16.6989 L -24.7533,16.168 L -26.7382,15.382 L -28.6091,14.3536 L -30.3362,13.0987
 L -31.8925,11.6373 L -33.2533,9.99234 L -34.3972,8.1898 L -35.3062,6.2581 L -35.9659,4.22772 L -36.366,2.13066
 L -36.5,-0 L -36.366,-2.13066 L -35.9659,-4.22772 L -35.3062,-6.2581 L -34.3972,-8.1898 L -33.2533,-9.99234
 L -31.8925,-11.6373 L -30.3362,-13.0987 L -28.6091,-14.3536 L -26.7382,-15.382 L -24.7533,-16.168 L -22.6855,-16.6989
 L -20.5674,-16.9664 L -18.4326,-16.9664 L -16.3145,-16.6989 L -14.2467,-16.168 L -12.2617,-15.382 L -10.3909,-14.3536
 L -8.66379,-13.0987 L -7.10753,-11.6373 L -5.7467,-9.99234 L -4.60278,-8.1898 L -3.69379,-6.2581 L -3.03407,-4.22772
 L -2.63405,-2.13066 L -2.5,-0 L -2.63405,2.13066 L -3.03407,4.22772 L -3.69379,6.2581 L -4.60278,8.1898
 L -5.7467,9.99234 L -7.10753,11.6373 L -8.66379,13.0987 L -10.3909,14.3536 L -12.2617,15.382 L -14.2467,16.168
 L -16.3145,16.6989 L -18.4326,16.9664 z
M 18.4326,16.9664 L 16.3145,16.6989 L 14.2467,16.168 L 12.2617,15.382 L 10.3909,14.3536 L 8.66379,13.0987
 L 7.10753,11.6373 L 5.7467,9.99234 L 4.60278,8.1898 L 3.69379,6.2581 L 3.03407,4.22772 L 2.63405,2.13066
 L 2.5,-0 L 2.63405,-2.13066 L 3.03407,-4.22772 L 3.69379,-6.2581 L 4.60278,-8.1898 L 5.7467,-9.99234
 L 7.10753,-11.6373 L 8.66379,-13.0987 L 10.3909,-14.3536 L 12.2617,-15.382 L 14.2467,-16.168 L 16.3145,-16.6989
 L 18.4326,-16.9664 L 20.5674,-16.9664 L 22.6855,-16.6989 L 24.7533,-16.168 L 26.7382,-15.382 L 28.6091,-14.3536
 L 30.3362,-13.0987 L 31.8925,-11.6373 L 33.2533,-9.99234 L 34.3972,-8.1898 L 35.3062,-6.2581 L 35.9659,-4.22772
 L 36.366,-2.13066 L 36.5,-0 L 36.366,2.13066 L 35.9659,4.22772 L 35.3062,6.2581 L 34.3972,8.1898
 L 33.2533,9.99234 L 31.8925,11.6373 L 30.3362,13.0987 L 28.6091,14.3536 L 26.7382,15.382 L 24.7533,16.168
 L 22.6855,16.6989 L 20.5674,16.9664 z
M -59.5674,16.9664 L -61.6855,16.6989 L -63.7533,16.168 L -65.7383,15.382 L -67.6091,14.3536 L -69.3362,13.0987
 L -70.8925,11.6373 L -72.2533,9.99234 L -73.3972,8.1898 L -74.3062,6.2581 L -74.9659,4.22772 L -75.366,2.13066
 L -75.5,-0 L -75.366,-2.13066 L -74.9659,-4.22772 L -74.3062,-6.2581 L -73.3972,-8.1898 L -72.2533,-9.99234
 L -70.8925,-11.6373 L -69.3362,-13.0987 L -67.6091,-14.3536 L -65.7383,-15.382 L -63.7533,-16.168 L -61.6855,-16.6989
 L -59.5674,-16.9664 L -57.4326,-16.9664 L -55.3145,-16.6989 L -53.2467,-16.168 L -51.2617,-15.382 L -49.3909,-14.3536
 L -47.6638,-13.0987 L -46.1075,-11.6373 L -44.7467,-9.99234 L -43.6028,-8.1898 L -42.6938,-6.2581 L -42.0341,-4.22772
 L -41.634,-2.13066 L -41.5,-0 L -41.634,2.13066 L -42.0341,4.22772 L -42.6938,6.2581 L -43.6028,8.1898
 L -44.7467,9.99234 L -46.1075,11.6373 L -47.6638,13.0987 L -49.3909,14.3536 L -51.2617,15.382 L -53.2467,16.168
 L -55.3145,16.6989 L -57.4326,16.9664 z
M 82.4058,-6.00294 L 82.2189,-6.02657 L 82.0365,-6.07341 L 81.8613,-6.14275 L 81.6963,-6.23351 L 81.5439,-6.34422
 L 81.4065,-6.47318 L 81.2865,-6.61832 L 81.1855,-6.77736 L 81.1053,-6.9478 L 81.0471,-7.12695 L 81.0118,-7.312
 L 81,-7.5 L 81.0118,-7.68799 L 81.0471,-7.87303 L 81.1053,-8.05219 L 81.1855,-8.22263 L 81.2865,-8.38167
 L 81.4065,-8.52681 L 81.5439,-8.65576 L 81.6963,-8.76648 L 81.8613,-8.85724 L 82.0365,-8.92657 L 82.2189,-8.97342
 L 82.4058,-8.99704 L 82.5942,-8.99704 L 82.7811,-8.97342 L 82.9635,-8.92657 L 83.1387,-8.85724 L 83.3037,-8.76648
 L 83.4561,-8.65576 L 83.5934,-8.52681 L 83.7135,-8.38167 L 83.8145,-8.22263 L 83.8947,-8.05219 L 83.9529,-7.87303
 L 83.9882,-7.68799 L 84,-7.5 L 83.9882,-7.312 L 83.9529,-7.12695 L 83.8947,-6.9478 L 83.8145,-6.77736
 L 83.7135,-6.61832 L 83.5934,-6.47318 L 83.4561,-6.34422 L 83.3037,-6.23351 L 83.1387,-6.14275 L 82.9635,-6.07341
 L 82.7811,-6.02657 L 82.5942,-6.00294 z
M -82.5942,-6.00294 L -82.7811,-6.02657 L -82.9635,-6.07341 L -83.1387,-6.14275 L -83.3037,-6.23351 L -83.4561,-6.34422
 L -83.5934,-6.47318 L -83.7135,-6.61832 L -83.8145,-6.77736 L -83.8947,-6.9478 L -83.9529,-7.12695 L -83.9882,-7.312
 L -84,-7.5 L -83.9882,-7.68799 L -83.9529,-7.87303 L -83.8947,-8.05219 L -83.8145,-8.22263 L -83.7135,-8.38167
 L -83.5934,-8.52681 L -83.4561,-8.65576 L -83.3037,-8.76648 L -83.1387,-8.85724 L -82.9635,-8.92657 L -82.7811,-8.97342
 L -82.5942,-8.99704 L -82.4058,-8.99704 L -82.2189,-8.97342 L -82.0365,-8.92657 L -81.8613,-8.85724 L -81.6963,-8.76648
 L -81.5439,-8.65576 L -81.4065,-8.52681 L -81.2865,-8.38167 L -81.1855,-8.22263 L -81.1053,-8.05219 L -81.0471,-7.87303
 L -81.0118,-7.68799 L -81,-7.5 L -81.0118,-7.312 L -81.0471,-7.12695 L -81.1053,-6.9478 L -81.1855,-6.77736
 L -81.2865,-6.61832 L -81.4065,-6.47318 L -81.5439,-6.34422 L -81.6963,-6.23351 L -81.8613,-6.14275 L -82.0365,-6.07341
 L -82.2189,-6.02657 L -82.4058,-6.00294 z
M -82.6884,2.99408 L -83.0621,2.94685 L -83.427,2.85316 L -83.7773,2.71448 L -84.1075,2.53297 L -84.4123,2.31154
 L -84.6869,2.05363 L -84.927,1.76335 L -85.1289,1.44525 L -85.2893,1.10437 L -85.4057,0.746063 L -85.4763,0.375992
 L -85.5,-0 L -85.4763,-0.375992 L -85.4057,-0.746063 L -85.2893,-1.10437 L -85.1289,-1.44525 L -84.927,-1.76335
 L -84.6869,-2.05363 L -84.4123,-2.31154 L -84.1075,-2.53297 L -83.7773,-2.71448 L -83.427,-2.85316 L -83.0621,-2.94685
 L -82.6884,-2.99408 L -82.3116,-2.99408 L -81.9379,-2.94685 L -81.573,-2.85316 L -81.2227,-2.71448 L -80.8925,-2.53297
 L -80.5877,-2.31154 L -80.3131,-2.05363 L -80.073,-1.76335 L -79.8711,-1.44525 L -79.7107,-1.10437 L -79.5943,-0.746063
 L -79.5237,-0.375992 L -79.5,-0 L -79.5237,0.375992 L -79.5943,0.746063 L -79.7107,1.10437 L -79.8711,1.44525
 L -80.073,1.76335 L -80.3131,2.05363 L -80.5877,2.31154 L -80.8925,2.53297 L -81.2227,2.71448 L -81.573,2.85316
 L -81.9379,2.94685 L -82.3116,2.99408 z
M 82.3116,2.99408 L 81.9379,2.94685 L 81.573,2.85316 L 81.2227,2.71448 L 80.8925,2.53297 L 80.5877,2.31154
 L 80.3131,2.05363 L 80.073,1.76335 L 79.8711,1.44525 L 79.7107,1.10437 L 79.5943,0.746063 L 79.5237,0.375992
 L 79.5,-0 L 79.5237,-0.375992 L 79.5943,-0.746063 L 79.7107,-1.10437 L 79.8711,-1.44525 L 80.073,-1.76335
 L 80.3131,-2.05363 L 80.5877,-2.31154 L 80.8925,-2.53297 L 81.2227,-2.71448 L 81.573,-2.85316 L 81.9379,-2.94685
 L 82.3116,-2.99408 L 82.6884,-2.99408 L 83.0621,-2.94685 L 83.427,-2.85316 L 83.7773,-2.71448 L 84.1075,-2.53297
 L 84.4123,-2.31154 L 84.6869,-2.05363 L 84.927,-1.76335 L 85.1289,-1.44525 L 85.2893,-1.10437 L 85.4057,-0.746063
 L 85.4763,-0.375992 L 85.5,-0 L 85.4763,0.375992 L 85.4057,0.746063 L 85.2893,1.10437 L 85.1289,1.44525
 L 84.927,1.76335 L 84.6869,2.05363 L 84.4123,2.31154 L 84.1075,2.53297 L 83.7773,2.71448 L 83.427,2.85316
 L 83.0621,2.94685 L 82.6884,2.99408 z
M 82.4058,8.99704 L 82.2189,8.97342 L 82.0365,8.92657 L 81.8613,8.85724 L 81.6963,8.76648 L 81.5439,8.65576
 L 81.4065,8.52681 L 81.2865,8.38167 L 81.1855,8.22263 L 81.1053,8.05219 L 81.0471,7.87303 L 81.0118,7.68799
 L 81,7.5 L 81.0118,7.312 L 81.0471,7.12695 L 81.1053,6.9478 L 81.1855,6.77736 L 81.2865,6.61832
 L 81.4065,6.47318 L 81.5439,6.34422 L 81.6963,6.23351 L 81.8613,6.14275 L 82.0365,6.07341 L 82.2189,6.02657
 L 82.4058,6.00294 L 82.5942,6.00294 L 82.7811,6.02657 L 82.9635,6.07341 L 83.1387,6.14275 L 83.3037,6.23351
 L 83.4561,6.34422 L 83.5934,6.47318 L 83.7135,6.61832 L 83.8145,6.77736 L 83.8947,6.9478 L 83.9529,7.12695
 L 83.9882,7.312 L 84,7.5 L 83.9882,7.68799 L 83.9529,7.87303 L 83.8947,8.05219 L 83.8145,8.22263
 L 83.7135,8.38167 L 83.5934,8.52681 L 83.4561,8.65576 L 83.3037,8.76648 L 83.1387,8.85724 L 82.9635,8.92657
 L 82.7811,8.97342 L 82.5942,8.99704 z
M -82.5942,8.99704 L -82.7811,8.97342 L -82.9635,8.92657 L -83.1387,8.85724 L -83.3037,8.76648 L -83.4561,8.65576
 L -83.5934,8.52681 L -83.7135,8.38167 L -83.8145,8.22263 L -83.8947,8.05219 L -83.9529,7.87303 L -83.9882,7.68799
 L -84,7.5 L -83.9882,7.312 L -83.9529,7.12695 L -83.8947,6.9478 L -83.8145,6.77736 L -83.7135,6.61832
 L -83.5934,6.47318 L -83.4561,6.34422 L -83.3037,6.23351 L -83.1387,6.14275 L -82.9635,6.07341 L -82.7811,6.02657
 L -82.5942,6.00294 L -82.4058,6.00294 L -82.2189,6.02657 L -82.0365,6.07341 L -81.8613,6.14275 L -81.6963,6.23351
 L -81.5439,6.34422 L -81.4065,6.47318 L -81.2865,6.61832 L -81.1855,6.77736 L -81.1053,6.9478 L -81.0471,7.12695
 L -81.0118,7.312 L -81,7.5 L -81.0118,7.68799 L -81.0471,7.87303 L -81.1053,8.05219 L -81.1855,8.22263
 L -81.2865,8.38167 L -81.4065,8.52681 L -81.5439,8.65576 L -81.6963,8.76648 L -81.8613,8.85724 L -82.0365,8.92657
 L -82.2189,8.97342 L -82.4058,8.99704 z
M -82.6884,17.9941 L -83.0621,17.9469 L -83.427,17.8532 L -83.7773,17.7145 L -84.1075,17.533 L -84.4123,17.3115
 L -84.6869,17.0536 L -84.927,16.7634 L -85.1289,16.4453 L -85.2893,16.1044 L -85.4057,15.7461 L -85.4763,15.376
 L -85.5,15 L -85.4763,14.624 L -85.4057,14.2539 L -85.2893,13.8956 L -85.1289,13.5547 L -84.927,13.2366
 L -84.6869,12.9464 L -84.4123,12.6884 L -84.1075,12.467 L -83.7773,12.2855 L -83.427,12.1468 L -83.0621,12.0531
 L -82.6884,12.0059 L -82.3116,12.0059 L -81.9379,12.0531 L -81.573,12.1468 L -81.2227,12.2855 L -80.8925,12.467
 L -80.5877,12.6884 L -80.3131,12.9464 L -80.073,13.2366 L -79.8711,13.5547 L -79.7107,13.8956 L -79.5943,14.2539
 L -79.5237,14.624 L -79.5,15 L -79.5237,15.376 L -79.5943,15.7461 L -79.7107,16.1044 L -79.8711,16.4453
 L -80.073,16.7634 L -80.3131,17.0536 L -80.5877,17.3115 L -80.8925,17.533 L -81.2227,17.7145 L -81.573,17.8532
 L -81.9379,17.9469 L -82.3116,17.9941 z
M 82.3116,17.9941 L 81.9379,17.9469 L 81.573,17.8532 L 81.2227,17.7145 L 80.8925,17.533 L 80.5877,17.3115
 L 80.3131,17.0536 L 80.073,16.7634 L 79.8711,16.4453 L 79.7107,16.1044 L 79.5943,15.7461 L 79.5237,15.376
 L 79.5,15 L 79.5237,14.624 L 79.5943,14.2539 L 79.7107,13.8956 L 79.8711,13.5547 L 80.073,13.2366
 L 80.3131,12.9464 L 80.5877,12.6884 L 80.8925,12.467 L 81.2227,12.2855 L 81.573,12.1468 L 81.9379,12.0531
 L 82.3116,12.0059 L 82.6884,12.0059 L 83.0621,12.0531 L 83.427,12.1468 L 83.7773,12.2855 L 84.1075,12.467
 L 84.4123,12.6884 L 84.6869,12.9464 L 84.927,13.2366 L 85.1289,13.5547 L 85.2893,13.8956 L 85.4057,14.2539
 L 85.4763,14.624 L 85.5,15 L 85.4763,15.376 L 85.4057,15.7461 L 85.2893,16.1044 L 85.1289,16.4453
 L 84.927,16.7634 L 84.6869,17.0536 L 84.4123,17.3115 L 84.1075,17.533 L 83.7773,17.7145 L 83.427,17.8532
 L 83.0621,17.9469 L 82.6884,17.9941 z
" stroke="black" fill="lightgray" stroke-width="0.5"/>
</svg>
