<?xml version="1.0" standalone="no"?>
<!DOCTYPE svg PUBLIC "-//W3C//DTD SVG 1.1//EN" "http://www.w3.org/Graphics/SVG/1.1/DTD/svg11.dtd">
<svg width="44mm" height="14mm" viewBox="-22 -7 44 14" xmlns="http://www.w3.org/2000/svg" version="1.1">
<title>OpenSCAD Model</title>
<path d="
M 17.9369,6.91142 L 18.5451,6.75528 L 19.1289,6.52412 L 19.6791,6.22163 L 20.1871,5.85255 L 20.6448,5.42273
 L 21.0451,4.93892 L 21.3815,4.40877 L 21.6489,3.84062 L 21.8429,3.24344 L 21.9606,2.62666 L 22,2
 L 22,-2 L 21.9606,-2.62666 L 21.8429,-3.24344 L 21.6489,-3.84062 L 21.3815,-4.40877 L 21.0451,-4.93892
 L 20.6448,-5.42273 L 20.1871,-5.85255 L 19.6791,-6.22163 L 19.1289,-6.52412 L 18.5451,-6.75528 L 17.9369,-6.91142
 L 17.3139,-6.99013 L -17.3139,-6.99013 L -17.9369,-6.91142 L -18.5451,-6.75528 L -19.1289,-6.52412 L -19.6791,-6.22163
 L -20.1871,-5.85255 L -20.6448,-5.42273 L -21.0451,-4.93892 L -21.3815,-4.40877 L -21.6489,-3.84062 L -21.8429,-3.24344
 L -21.9606,-2.62666 L -22,-2 L -22,2 L -21.9606,2.62666 L -21.8429,3.24344 L -21.6489,3.84062
 L -21.3815,4.40877 L -21.0451,4.93892 L -20.6448,5.42273 L -20.1871,5.85255 L -19.6791,6.22163 L -19.1289,6.52412
 L -18.5451,6.75528 L -17.9369,6.91142 L -17.3139,6.99013 L 17.3139,6.99013 z
M 14.8116,2.99408 L 14.4379,2.94685 L 14.0729,2.85316 L 13.7227,2.71448 L 13.3925,2.53297 L 13.0877,2.31154
 L 12.8131,2.05363 L 12.5802,1.77214 L 12.4283,1.68864 L 12.2251,1.54102 L 12.0421,1.36908 L 11.882,1.17557
 L 11.7474,0.963501 L 11.6404,0.736237 L 11.5628,0.497375 L 11.5158,0.250656 L 11.5,-0 L 11.5158,-0.250656
 L 11.5628,-0.497375 L 11.6404,-0.736237 L 11.7474,-0.963501 L 11.882,-1.17557 L 12.0421,-1.36908 L 12.2251,-1.54102
 L 12.4283,-1.68864 L 12.5802,-1.77214 L 12.8131,-2.05363 L 13.0877,-2.31154 L 13.3925,-2.53297 L 13.7227,-2.71448
 L 14.0729,-2.85316 L 14.4379,-2.94685 L 14.8116,-2.99408 L 15.1884,-2.99408 L 15.5621,-2.94685 L 15.927,-2.85316
 L 16.2773,-2.71448 L 16.6075,-2.53297 L 16.9123,-2.31154 L 17.1869,-2.05363 L 17.427,-1.76335 L 17.6289,-1.44525
 L 17.7893,-1.10437 L 17.9057,-0.746063 L 17.9763,-0.375992 L 18,-0 L 17.9763,0.375992 L 17.9057,0.746063
 L 17.7893,1.10437 L 17.6289,1.44525 L 17.427,1.76335 L 17.1869,2.05363 L 16.9123,2.31154 L 16.6075,2.53297
 L 16.2773,2.71448 L 15.927,2.85316 L 15.5621,2.94685 L 15.1884,2.99408 z
M -15.1884,2.99408 L -15.5621,2.94685 L -15.927,2.85316 L -16.2773,2.71448 L -16.6075,2.53297 L -16.9123,2.31154
 L -17.1869,2.05363 L -17.427,1.76335 L -17.6289,1.44525 L -17.7893,1.10437 L -17.9057,0.746063 L -17.9763,0.375992
 L -18,-0 L -17.9763,-0.375992 L -17.9057,-0.746063 L -17.7893,-1.10437 L -17.6289,-1.44525 L -17.427,-1.76335
 L -17.1869,-2.05363 L -16.9123,-2.31154 L -16.6075,-2.53297 L -16.2773,-2.71448 L -15.927,-2.85316 L -15.5621,-2.94685
 L -15.1884,-2.99408 L -14.8116,-2.99408 L -14.4379,-2.94685 L -14.0729,-2.85316 L -13.7227,-2.71448 L -13.3925,-2.53297
 L -13.0877,-2.31154 L -12.8131,-2.05363 L -12.5802,-1.77214 L -12.4283,-1.68864 L -12.2251,-1.54102 L -12.0421,-1.36908
 L -11.882,-1.17557 L -11.7474,-0.963501 L -11.6404,-0.736237 L -11.5628,-0.497375 L -11.5158,-0.250656 L -11.5,-0
 L -11.5158,0.250656 L -11.5628,0.497375 L -11.6404,0.736237 L -11.7474,0.963501 L -11.882,1.17557 L -12.0421,1.36908
 L -12.2251,1.54102 L -12.4283,1.68864 L -12.5802,1.77214 L -12.8131,2.05363 L -13.0877,2.31154 L -13.3925,2.53297
 L -13.7227,2.71448 L -14.0729,2.85316 L -14.4379,2.94685 L -14.8116,2.99408 z
M -4.62558,1.99605 L -4.87476,1.96457 L -5.11803,1.9021 L -5.35155,1.80965 L -5.57164,1.68864 L -5.77484,1.54102
 L -5.95793,1.36908 L -6.11803,1.17557 L -6.25261,0.963501 L -6.35954,0.736237 L -6.43716,0.497375 L -6.48422,0.250656
 L -6.5,-0 L -6.48422,-0.250656 L -6.43716,-0.497375 L -6.35954,-0.736237 L -6.25261,-0.963501 L -6.11803,-1.17557
 L -5.95793,-1.36908 L -5.77484,-1.54102 L -5.57164,-1.68864 L -5.35155,-1.80965 L -5.11803,-1.9021 L -4.87476,-1.96457
 L -4.62558,-1.99605 L -4.3744,-1.99605 L -4.12523,-1.96457 L -3.88196,-1.9021 L -3.64844,-1.80965 L -3.42834,-1.68864
 L -3.22514,-1.54102 L -3.04205,-1.36908 L -2.88196,-1.17557 L -2.74738,-0.963501 L -2.64044,-0.736237 L -2.56282,-0.497375
 L -2.51576,-0.250656 L -2.5,-0 L -2.51576,0.250656 L -2.56282,0.497375 L -2.64044,0.736237 L -2.74738,0.963501
 L -2.88196,1.17557 L -3.04205,1.36908 L -3.22514,1.54102 L -3.42834,1.68864 L -3.64844,1.80965 L -3.88196,1.9021
 L -4.12523,1.96457 L -4.3744,1.99605 z
M 4.3744,1.99605 L 4.12523,1.96457 L 3.88196,1.9021 L 3.64844,1.80965 L 3.42834,1.68864 L 3.22514,1.54102
 L 3.04205,1.36908 L 2.88196,1.17557 L 2.74738,0.963501 L 2.64044,0.736237 L 2.56282,0.497375 L 2.51576,0.250656
 L 2.5,-0 L 2.51576,-0.250656 L 2.56282,-0.497375 L 2.64044,-0.736237 L 2.74738,-0.963501 L 2.88196,-1.17557
 L 3.04205,-1.36908 L 3.22514,-1.54102 L 3.42834,-1.68864 L 3.64844,-1.80965 L 3.88196,-1.9021 L 4.12523,-1.96457
 L 4.3744,-1.99605 L 4.62558,-1.99605 L 4.87476,-1.96457 L 5.11803,-1.9021 L 5.35155,-1.80965 L 5.57164,-1.68864
 L 5.77484,-1.54102 L 5.95793,-1.36908 L 6.11803,-1.17557 L 6.25261,-0.963501 L 6.35954,-0.736237 L 6.43716,-0.497375
 L 6.48422,-0.250656 L 6.5,-0 L 6.48422,0.250656 L 6.43716,0.497375 L 6.35954,0.736237 L 6.25261,0.963501
 L 6.11803,1.17557 L 5.95793,1.36908 L 5.77484,1.54102 L 5.57164,1.68864 L 5.35155,1.80965 L 5.11803,1.9021
 L 4.87476,1.96457 L 4.62558,1.99605 z
" stroke="black" fill="lightgray" stroke-width="0.5"/>
</svg>
