<?xml version="1.0" standalone="no"?>
<!DOCTYPE svg PUBLIC "-//W3C//DTD SVG 1.1//EN" "http://www.w3.org/Graphics/SVG/1.1/DTD/svg11.dtd">
<svg width="30mm" height="44mm" viewBox="-15 -76 30 44" xmlns="http://www.w3.org/2000/svg" version="1.1">
<title>OpenSCAD Model</title>
<path d="
M 10.4369,-32.0886 L 11.0451,-32.2447 L 11.6289,-32.4759 L 12.1791,-32.7784 L 12.6871,-33.1474 L 13.1448,-33.5773
 L 13.5451,-34.0611 L 13.8815,-34.5912 L 14.1489,-35.1594 L 14.3429,-35.7566 L 14.4606,-36.3733 L 14.5,-37
 L 14.5,-71 L 14.4606,-71.6267 L 14.3429,-72.2434 L 14.1489,-72.8406 L 13.8815,-73.4088 L 13.5451,-73.9389
 L 13.1448,-74.4227 L 12.6871,-74.8526 L 12.1791,-75.2216 L 11.6289,-75.5241 L 11.0451,-75.7553 L 10.4369,-75.9114
 L 9.81395,-75.9901 L -9.81395,-75.9901 L -10.4369,-75.9114 L -11.0451,-75.7553 L -11.6289,-75.5241 L -12.1791,-75.2216
 L -12.6871,-74.8526 L -13.1448,-74.4227 L -13.5451,-73.9389 L -13.8815,-73.4088 L -14.1489,-72.8406 L -14.3429,-72.2434
 L -14.4606,-71.6267 L -14.5,-71 L -14.5,-37 L -14.4606,-36.3733 L -14.3429,-35.7566 L -14.1489,-35.1594
 L -13.8815,-34.5912 L -13.5451,-34.0611 L -13.1448,-33.5773 L -12.6871,-33.1474 L -12.1791,-32.7784 L -11.6289,-32.4759
 L -11.0451,-32.2447 L -10.4369,-32.0886 L -9.81395,-32.0099 L 9.81395,-32.0099 z
M 7.31161,-66.0059 L 6.93785,-66.0531 L 6.57294,-66.1468 L 6.22266,-66.2855 L 5.89252,-66.467 L 5.58772,-66.6884
 L 5.31308,-66.9464 L 5.07294,-67.2366 L 4.87108,-67.5547 L 4.71066,-67.8956 L 4.59424,-68.2539 L 4.52365,-68.624
 L 4.5,-69 L 4.52365,-69.376 L 4.59424,-69.7461 L 4.71066,-70.1044 L 4.87108,-70.4453 L 5.07294,-70.7634
 L 5.31308,-71.0536 L 5.58772,-71.3115 L 5.89252,-71.533 L 6.22266,-71.7145 L 6.57294,-71.8532 L 6.93785,-71.9469
 L 7.31161,-71.9941 L 7.68837,-71.9941 L 8.06213,-71.9469 L 8.42705,-71.8532 L 8.77733,-71.7145 L 9.10747,-71.533
 L 9.41226,-71.3115 L 9.6869,-71.0536 L 9.92705,-70.7634 L 10.1289,-70.4453 L 10.2893,-70.1044 L 10.4057,-69.7461
 L 10.4763,-69.376 L 10.5,-69 L 10.4763,-68.624 L 10.4057,-68.2539 L 10.2893,-67.8956 L 10.1289,-67.5547
 L 9.92705,-67.2366 L 9.6869,-66.9464 L 9.41226,-66.6884 L 9.10747,-66.467 L 8.77733,-66.2855 L 8.42705,-66.1468
 L 8.06213,-66.0531 L 7.68837,-66.0059 z
M -7.68837,-66.0059 L -8.06213,-66.0531 L -8.42705,-66.1468 L -8.77733,-66.2855 L -9.10747,-66.467 L -9.41226,-66.6884
 L -9.6869,-66.9464 L -9.92705,-67.2366 L -10.1289,-67.5547 L -10.2893,-67.8956 L -10.4057,-68.2539 L -10.4763,-68.624
 L -10.5,-69 L -10.4763,-69.376 L -10.4057,-69.7461 L -10.2893,-70.1044 L -10.1289,-70.4453 L -9.92705,-70.7634
 L -9.6869,-71.0536 L -9.41226,-71.3115 L -9.10747,-71.533 L -8.77733,-71.7145 L -8.42705,-71.8532 L -8.06213,-71.9469
 L -7.68837,-71.9941 L -7.31161,-71.9941 L -6.93785,-71.9469 L -6.57294,-71.8532 L -6.22266,-71.7145 L -5.89252,-71.533
 L -5.58772,-71.3115 L -5.31308,-71.0536 L -5.07294,-70.7634 L -4.87108,-70.4453 L -4.71066,-70.1044 L -4.59424,-69.7461
 L -4.52365,-69.376 L -4.5,-69 L -4.52365,-68.624 L -4.59424,-68.2539 L -4.71066,-67.8956 L -4.87108,-67.5547
 L -5.07294,-67.2366 L -5.31308,-66.9464 L -5.58772,-66.6884 L -5.89252,-66.467 L -6.22266,-66.2855 L -6.57294,-66.1468
 L -6.93785,-66.0531 L -7.31161,-66.0059 z
M -0.0941772,-67.5029 L -0.281067,-67.5266 L -0.463516,-67.5734 L -0.638657,-67.6427 L -0.803726,-67.7335 L -0.956131,-67.8442
 L -1.09344,-67.9732 L -1.21352,-68.1183 L -1.31445,-68.2774 L -1.39465,-68.4478 L -1.45287,-68.627 L -1.48816,-68.812
 L -1.5,-69 L -1.48816,-69.188 L -1.45287,-69.373 L -1.39465,-69.5522 L -1.31445,-69.7226 L -1.21352,-69.8817
 L -1.09344,-70.0268 L -0.956131,-70.1558 L -0.803726,-70.2665 L -0.638657,-70.3572 L -0.463516,-70.4266 L -0.281067,-70.4734
 L -0.0941772,-70.497 L 0.0941772,-70.497 L 0.281067,-70.4734 L 0.463516,-70.4266 L 0.638657,-70.3572 L 0.803726,-70.2665
 L 0.956131,-70.1558 L 1.09344,-70.0268 L 1.21352,-69.8817 L 1.31445,-69.7226 L 1.39465,-69.5522 L 1.45287,-69.373
 L 1.48816,-69.188 L 1.5,-69 L 1.48816,-68.812 L 1.45287,-68.627 L 1.39465,-68.4478 L 1.31445,-68.2774
 L 1.21352,-68.1183 L 1.09344,-67.9732 L 0.956131,-67.8442 L 0.803726,-67.7335 L 0.638657,-67.6427 L 0.463516,-67.5734
 L 0.281067,-67.5266 L 0.0941772,-67.5029 z
M -0.627899,-44.0197 L -1.87381,-44.1771 L -3.09016,-44.4894 L -4.25778,-44.9517 L -5.35826,-45.5567 L -6.37424,-46.2949
 L -7.28967,-47.1545 L -8.09016,-48.1222 L -8.76306,-49.1825 L -9.29776,-50.3188 L -9.68582,-51.5131 L -9.92114,-52.7467
 L -10,-54 L -9.92114,-55.2533 L -9.68582,-56.4869 L -9.29776,-57.6812 L -8.76306,-58.8175 L -8.09016,-59.8778
 L -7.28967,-60.8455 L -6.37424,-61.7051 L -5.35826,-62.4433 L -4.25778,-63.0483 L -3.09016,-63.5106 L -1.87381,-63.8229
 L -0.627899,-63.9803 L 0.627899,-63.9803 L 1.87381,-63.8229 L 3.09016,-63.5106 L 4.25778,-63.0483 L 5.35826,-62.4433
 L 6.37424,-61.7051 L 7.28967,-60.8455 L 8.09016,-59.8778 L 8.76306,-58.8175 L 9.29776,-57.6812 L 9.68582,-56.4869
 L 9.92114,-55.2533 L 10,-54 L 9.92114,-52.7467 L 9.68582,-51.5131 L 9.29776,-50.3188 L 8.76306,-49.1825
 L 8.09016,-48.1222 L 7.28967,-47.1545 L 6.37424,-46.2949 L 5.35826,-45.5567 L 4.25778,-44.9517 L 3.09016,-44.4894
 L 1.87381,-44.1771 L 0.627899,-44.0197 z
M -7.68837,-36.0059 L -8.06213,-36.0531 L -8.42705,-36.1468 L -8.77733,-36.2855 L -9.10747,-36.467 L -9.41226,-36.6885
 L -9.6869,-36.9464 L -9.92705,-37.2366 L -10.1289,-37.5547 L -10.2893,-37.8956 L -10.4057,-38.2539 L -10.4763,-38.624
 L -10.5,-39 L -10.4763,-39.376 L -10.4057,-39.7461 L -10.2893,-40.1044 L -10.1289,-40.4453 L -9.92705,-40.7634
 L -9.6869,-41.0536 L -9.41226,-41.3116 L -9.10747,-41.533 L -8.77733,-41.7145 L -8.42705,-41.8532 L -8.06213,-41.9469
 L -7.68837,-41.9941 L -7.31161,-41.9941 L -6.93785,-41.9469 L -6.57294,-41.8532 L -6.22266,-41.7145 L -5.89252,-41.533
 L -5.58772,-41.3116 L -5.31308,-41.0536 L -5.07294,-40.7634 L -4.87108,-40.4453 L -4.71066,-40.1044 L -4.59424,-39.7461
 L -4.52365,-39.376 L -4.5,-39 L -4.52365,-38.624 L -4.59424,-38.2539 L -4.71066,-37.8956 L -4.87108,-37.5547
 L -5.07294,-37.2366 L -5.31308,-36.9464 L -5.58772,-36.6885 L -5.89252,-36.467 L -6.22266,-36.2855 L -6.57294,-36.1468
 L -6.93785,-36.0531 L -7.31161,-36.0059 z
M 7.31161,-36.0059 L 6.93785,-36.0531 L 6.57294,-36.1468 L 6.22266,-36.2855 L 5.89252,-36.467 L 5.58772,-36.6885
 L 5.31308,-36.9464 L 5.07294,-37.2366 L 4.87108,-37.5547 L 4.71066,-37.8956 L 4.59424,-38.2539 L 4.52365,-38.624
 L 4.5,-39 L 4.52365,-39.376 L 4.59424,-39.7461 L 4.71066,-40.1044 L 4.87108,-40.4453 L 5.07294,-40.7634
 L 5.31308,-41.0536 L 5.58772,-41.3116 L 5.89252,-41.533 L 6.22266,-41.7145 L 6.57294,-41.8532 L 6.93785,-41.9469
 L 7.31161,-41.9941 L 7.68837,-41.9941 L 8.06213,-41.9469 L 8.42705,-41.8532 L 8.77733,-41.7145 L 9.10747,-41.533
 L 9.41226,-41.3116 L 9.6869,-41.0536 L 9.92705,-40.7634 L 10.1289,-40.4453 L 10.2893,-40.1044 L 10.4057,-39.7461
 L 10.4763,-39.376 L 10.5,-39 L 10.4763,-38.624 L 10.4057,-38.2539 L 10.2893,-37.8956 L 10.1289,-37.5547
 L 9.92705,-37.2366 L 9.6869,-36.9464 L 9.41226,-36.6885 L 9.10747,-36.467 L 8.77733,-36.2855 L 8.42705,-36.1468
 L 8.06213,-36.0531 L 7.68837,-36.0059 z
M -0.0941772,-37.503 L -0.281067,-37.5266 L -0.463516,-37.5734 L -0.638657,-37.6428 L -0.803726,-37.7335 L -0.956131,-37.8442
 L -1.09344,-37.9732 L -1.21352,-38.1183 L -1.31445,-38.2774 L -1.39465,-38.4478 L -1.45287,-38.627 L -1.48816,-38.812
 L -1.5,-39 L -1.48816,-39.188 L -1.45287,-39.373 L -1.39465,-39.5522 L -1.31445,-39.7226 L -1.21352,-39.8817
 L -1.09344,-40.0268 L -0.956131,-40.1558 L -0.803726,-40.2665 L -0.638657,-40.3573 L -0.463516,-40.4266 L -0.281067,-40.4734
 L -0.0941772,-40.4971 L 0.0941772,-40.4971 L 0.281067,-40.4734 L 0.463516,-40.4266 L 0.638657,-40.3573 L 0.803726,-40.2665
 L 0.956131,-40.1558 L 1.09344,-40.0268 L 1.21352,-39.8817 L 1.31445,-39.7226 L 1.39465,-39.5522 L 1.45287,-39.373
 L 1.48816,-39.188 L 1.5,-39 L 1.48816,-38.812 L 1.45287,-38.627 L 1.39465,-38.4478 L 1.31445,-38.2774
 L 1.21352,-38.1183 L 1.09344,-37.9732 L 0.956131,-37.8442 L 0.803726,-37.7335 L 0.638657,-37.6428 L 0.463516,-37.5734
 L 0.281067,-37.5266 L 0.0941772,-37.503 z
" stroke="black" fill="lightgray" stroke-width="0.5"/>
</svg>
