<?xml version="1.0" standalone="no"?>
<!DOCTYPE svg PUBLIC "-//W3C//DTD SVG 1.1//EN" "http://www.w3.org/Graphics/SVG/1.1/DTD/svg11.dtd">
<svg width="224mm" height="60mm" viewBox="-112 -30 224 60" xmlns="http://www.w3.org/2000/svg" version="1.1">
<title>OpenSCAD Model</title>
<path d="
M 107.937,29.4114 L 108.545,29.2553 L 109.129,29.0241 L 109.679,28.7216 L 110.187,28.3526 L 110.645,27.9227
 L 111.045,27.4389 L 111.382,26.9088 L 111.649,26.3406 L 111.843,25.7434 L 111.961,25.1267 L 112,24.5
 L 112,-24.5 L 111.961,-25.1267 L 111.843,-25.7434 L 111.649,-26.3406 L 111.382,-26.9088 L 111.045,-27.4389
 L 110.645,-27.9227 L 110.187,-28.3526 L 109.679,-28.7216 L 109.129,-29.0241 L 108.545,-29.2553 L 107.937,-29.4114
 L 107.314,-29.4901 L -107.314,-29.4901 L -107.937,-29.4114 L -108.545,-29.2553 L -109.129,-29.0241 L -109.679,-28.7216
 L -110.187,-28.3526 L -110.645,-27.9227 L -111.045,-27.4389 L -111.382,-26.9088 L -111.649,-26.3406 L -111.843,-25.7434
 L -111.961,-25.1267 L -112,-24.5 L -112,24.5 L -111.961,25.1267 L -111.843,25.7434 L -111.649,26.3406
 L -111.382,26.9088 L -111.045,27.4389 L -110.645,27.9227 L -110.187,28.3526 L -109.679,28.7216 L -109.129,29.0241
 L -108.545,29.2553 L -107.937,29.4114 L -107.314,29.4901 L 107.314,29.4901 z
M -105.188,-19.5059 L -105.562,-19.5531 L -105.927,-19.6468 L -106.277,-19.7855 L -106.607,-19.967 L -106.912,-20.1884
 L -107.187,-20.4464 L -107.427,-20.7366 L -107.629,-21.0547 L -107.789,-21.3956 L -107.906,-21.7539 L -107.976,-22.124
 L -108,-22.5 L -107.976,-22.876 L -107.906,-23.2461 L -107.789,-23.6044 L -107.629,-23.9453 L -107.427,-24.2634
 L -107.187,-24.5536 L -106.912,-24.8115 L -106.607,-25.033 L -106.277,-25.2145 L -105.927,-25.3532 L -105.562,-25.4469
 L -105.188,-25.4941 L -104.812,-25.4941 L -104.438,-25.4469 L -104.073,-25.3532 L -103.723,-25.2145 L -103.393,-25.033
 L -103.088,-24.8115 L -102.813,-24.5536 L -102.573,-24.2634 L -102.371,-23.9453 L -102.211,-23.6044 L -102.094,-23.2461
 L -102.024,-22.876 L -102,-22.5 L -102.024,-22.124 L -102.094,-21.7539 L -102.211,-21.3956 L -102.371,-21.0547
 L -102.573,-20.7366 L -102.813,-20.4464 L -103.088,-20.1884 L -103.393,-19.967 L -103.723,-19.7855 L -104.073,-19.6468
 L -104.438,-19.5531 L -104.812,-19.5059 z
M 104.812,-19.5059 L 104.438,-19.5531 L 104.073,-19.6468 L 103.723,-19.7855 L 103.393,-19.967 L 103.088,-20.1884
 L 102.813,-20.4464 L 102.573,-20.7366 L 102.371,-21.0547 L 102.211,-21.3956 L 102.094,-21.7539 L 102.024,-22.124
 L 102,-22.5 L 102.024,-22.876 L 102.094,-23.2461 L 102.211,-23.6044 L 102.371,-23.9453 L 102.573,-24.2634
 L 102.813,-24.5536 L 103.088,-24.8115 L 103.393,-25.033 L 103.723,-25.2145 L 104.073,-25.3532 L 104.438,-25.4469
 L 104.812,-25.4941 L 105.188,-25.4941 L 105.562,-25.4469 L 105.927,-25.3532 L 106.277,-25.2145 L 106.607,-25.033
 L 106.912,-24.8115 L 107.187,-24.5536 L 107.427,-24.2634 L 107.629,-23.9453 L 107.789,-23.6044 L 107.906,-23.2461
 L 107.976,-22.876 L 108,-22.5 L 107.976,-22.124 L 107.906,-21.7539 L 107.789,-21.3956 L 107.629,-21.0547
 L 107.427,-20.7366 L 107.187,-20.4464 L 106.912,-20.1884 L 106.607,-19.967 L 106.277,-19.7855 L 105.927,-19.6468
 L 105.562,-19.5531 L 105.188,-19.5059 z
M 80.9302,24.9507 L 77.8155,24.5572 L 74.7746,23.7764 L 71.8555,22.6207 L 69.1043,21.1082 L 66.5644,19.2628
 L 64.2758,17.1137 L 62.2746,14.6946 L 60.5923,12.0438 L 59.2556,9.20311 L 58.2854,6.21724 L 57.6971,3.13332
 L 57.5,-0 L 57.6971,-3.13332 L 58.2854,-6.21724 L 59.2556,-9.20311 L 60.5923,-12.0438 L 62.2746,-14.6946
 L 64.2758,-17.1137 L 66.5644,-19.2628 L 69.1043,-21.1082 L 71.8555,-22.6207 L 74.7746,-23.7764 L 77.8155,-24.5572
 L 80.9302,-24.9507 L 84.0698,-24.9507 L 87.1845,-24.5572 L 90.2254,-23.7764 L 93.1445,-22.6207 L 95.8957,-21.1082
 L 98.4356,-19.2628 L 100.724,-17.1137 L 102.725,-14.6946 L 104.408,-12.0438 L 105.744,-9.20311 L 106.715,-6.21724
 L 107.303,-3.13332 L 107.5,-0 L 107.303,3.13332 L 106.715,6.21724 L 105.744,9.20311 L 104.408,12.0438
 L 102.725,14.6946 L 100.724,17.1137 L 98.4356,19.2628 L 95.8957,21.1082 L 93.1445,22.6207 L 90.2254,23.7764
 L 87.1845,24.5572 L 84.0698,24.9507 z
M -84.0698,24.9507 L -87.1845,24.5572 L -90.2254,23.7764 L -93.1445,22.6207 L -95.8957,21.1082 L -98.4356,19.2628
 L -100.724,17.1137 L -102.725,14.6946 L -104.408,12.0438 L -105.744,9.20311 L -106.715,6.21724 L -107.303,3.13332
 L -107.5,-0 L -107.303,-3.13332 L -106.715,-6.21724 L -105.744,-9.20311 L -104.408,-12.0438 L -102.725,-14.6946
 L -100.724,-17.1137 L -98.4356,-19.2628 L -95.8957,-21.1082 L -93.1445,-22.6207 L -90.2254,-23.7764 L -87.1845,-24.5572
 L -84.0698,-24.9507 L -80.9302,-24.9507 L -77.8155,-24.5572 L -74.7746,-23.7764 L -71.8555,-22.6207 L -69.1043,-21.1082
 L -66.5644,-19.2628 L -64.2758,-17.1137 L -62.2746,-14.6946 L -60.5923,-12.0438 L -59.2556,-9.20311 L -58.2854,-6.21724
 L -57.6971,-3.13332 L -57.5,-0 L -57.6971,3.13332 L -58.2854,6.21724 L -59.2556,9.20311 L -60.5923,12.0438
 L -62.2746,14.6946 L -64.2758,17.1137 L -66.5644,19.2628 L -69.1043,21.1082 L -71.8555,22.6207 L -74.7746,23.7764
 L -77.8155,24.5572 L -80.9302,24.9507 z
M -29.0698,24.9507 L -32.1845,24.5572 L -35.2254,23.7764 L -38.1445,22.6207 L -40.8957,21.1082 L -43.4356,19.2628
 L -45.7242,17.1137 L -47.7254,14.6946 L -49.4077,12.0438 L -50.7444,9.20311 L -51.7146,6.21724 L -52.3029,3.13332
 L -52.5,-0 L -52.3029,-3.13332 L -51.7146,-6.21724 L -50.7444,-9.20311 L -49.4077,-12.0438 L -47.7254,-14.6946
 L -45.7242,-17.1137 L -43.4356,-19.2628 L -40.8957,-21.1082 L -38.1445,-22.6207 L -35.2254,-23.7764 L -32.1845,-24.5572
 L -29.0698,-24.9507 L -25.9302,-24.9507 L -22.8155,-24.5572 L -19.7746,-23.7764 L -16.8555,-22.6207 L -14.1043,-21.1082
 L -11.5644,-19.2628 L -9.27577,-17.1137 L -7.27457,-14.6946 L -5.59233,-12.0438 L -4.25558,-9.20311 L -3.28542,-6.21724
 L -2.69713,-3.13332 L -2.5,-0 L -2.69713,3.13332 L -3.28542,6.21724 L -4.25558,9.20311 L -5.59233,12.0438
 L -7.27457,14.6946 L -9.27577,17.1137 L -11.5644,19.2628 L -14.1043,21.1082 L -16.8555,22.6207 L -19.7746,23.7764
 L -22.8155,24.5572 L -25.9302,24.9507 z
M 25.9302,24.9507 L 22.8155,24.5572 L 19.7746,23.7764 L 16.8555,22.6207 L 14.1043,21.1082 L 11.5644,19.2628
 L 9.27577,17.1137 L 7.27457,14.6946 L 5.59233,12.0438 L 4.25558,9.20311 L 3.28542,6.21724 L 2.69713,3.13332
 L 2.5,-0 L 2.69713,-3.13332 L 3.28542,-6.21724 L 4.25558,-9.20311 L 5.59233,-12.0438 L 7.27457,-14.6946
 L 9.27577,-17.1137 L 11.5644,-19.2628 L 14.1043,-21.1082 L 16.8555,-22.6207 L 19.7746,-23.7764 L 22.8155,-24.5572
 L 25.9302,-24.9507 L 29.0698,-24.9507 L 32.1845,-24.5572 L 35.2254,-23.7764 L 38.1445,-22.6207 L 40.8957,-21.1082
 L 43.4356,-19.2628 L 45.7242,-17.1137 L 47.7254,-14.6946 L 49.4077,-12.0438 L 50.7444,-9.20311 L 51.7146,-6.21724
 L 52.3029,-3.13332 L 52.5,-0 L 52.3029,3.13332 L 51.7146,6.21724 L 50.7444,9.20311 L 49.4077,12.0438
 L 47.7254,14.6946 L 45.7242,17.1137 L 43.4356,19.2628 L 40.8957,21.1082 L 38.1445,22.6207 L 35.2254,23.7764
 L 32.1845,24.5572 L 29.0698,24.9507 z
M 104.812,25.4941 L 104.438,25.4469 L 104.073,25.3532 L 103.723,25.2145 L 103.393,25.033 L 103.088,24.8115
 L 102.813,24.5536 L 102.573,24.2634 L 102.371,23.9453 L 102.211,23.6044 L 102.094,23.2461 L 102.024,22.876
 L 102,22.5 L 102.024,22.124 L 102.094,21.7539 L 102.211,21.3956 L 102.371,21.0547 L 102.573,20.7366
 L 102.813,20.4464 L 103.088,20.1884 L 103.393,19.967 L 103.723,19.7855 L 104.073,19.6468 L 104.438,19.5531
 L 104.812,19.5059 L 105.188,19.5059 L 105.562,19.5531 L 105.927,19.6468 L 106.277,19.7855 L 106.607,19.967
 L 106.912,20.1884 L 107.187,20.4464 L 107.427,20.7366 L 107.629,21.0547 L 107.789,21.3956 L 107.906,21.7539
 L 107.976,22.124 L 108,22.5 L 107.976,22.876 L 107.906,23.2461 L 107.789,23.6044 L 107.629,23.9453
 L 107.427,24.2634 L 107.187,24.5536 L 106.912,24.8115 L 106.607,25.033 L 106.277,25.2145 L 105.927,25.3532
 L 105.562,25.4469 L 105.188,25.4941 z
M -105.188,25.4941 L -105.562,25.4469 L -105.927,25.3532 L -106.277,25.2145 L -106.607,25.033 L -106.912,24.8115
 L -107.187,24.5536 L -107.427,24.2634 L -107.629,23.9453 L -107.789,23.6044 L -107.906,23.2461 L -107.976,22.876
 L -108,22.5 L -107.976,22.124 L -107.906,21.7539 L -107.789,21.3956 L -107.629,21.0547 L -107.427,20.7366
 L -107.187,20.4464 L -106.912,20.1884 L -106.607,19.967 L -106.277,19.7855 L -105.927,19.6468 L -105.562,19.5531
 L -105.188,19.5059 L -104.812,19.5059 L -104.438,19.5531 L -104.073,19.6468 L -103.723,19.7855 L -103.393,19.967
 L -103.088,20.1884 L -102.813,20.4464 L -102.573,20.7366 L -102.371,21.0547 L -102.211,21.3956 L -102.094,21.7539
 L -102.024,22.124 L -102,22.5 L -102.024,22.876 L -102.094,23.2461 L -102.211,23.6044 L -102.371,23.9453
 L -102.573,24.2634 L -102.813,24.5536 L -103.088,24.8115 L -103.393,25.033 L -103.723,25.2145 L -104.073,25.3532
 L -104.438,25.4469 L -104.812,25.4941 z
" stroke="black" fill="lightgray" stroke-width="0.5"/>
</svg>
