  0
SECTION
  2
BLOCKS
  0
ENDSEC
  0
SECTION
  2
ENTITIES
  0
LINE
  8
0
 10
100.437
 20
32.0886
 11
101.045
 21
32.2447
  0
LINE
  8
0
 10
101.045
 20
32.2447
 11
101.629
 21
32.4759
  0
LINE
  8
0
 10
101.629
 20
32.4759
 11
102.179
 21
32.7784
  0
LINE
  8
0
 10
102.179
 20
32.7784
 11
102.687
 21
33.1474
  0
LINE
  8
0
 10
102.687
 20
33.1474
 11
103.145
 21
33.5773
  0
LINE
  8
0
 10
103.145
 20
33.5773
 11
103.545
 21
34.0611
  0
LINE
  8
0
 10
103.545
 20
34.0611
 11
103.882
 21
34.5912
  0
LINE
  8
0
 10
103.882
 20
34.5912
 11
104.149
 21
35.1594
  0
LINE
  8
0
 10
104.149
 20
35.1594
 11
104.343
 21
35.7566
  0
LINE
  8
0
 10
104.343
 20
35.7566
 11
104.461
 21
36.3733
  0
LINE
  8
0
 10
104.461
 20
36.3733
 11
104.5
 21
37
  0
LINE
  8
0
 10
104.5
 20
37
 11
104.5
 21
71
  0
LINE
  8
0
 10
104.5
 20
71
 11
104.461
 21
71.6267
  0
LINE
  8
0
 10
104.461
 20
71.6267
 11
104.343
 21
72.2434
  0
LINE
  8
0
 10
104.343
 20
72.2434
 11
104.149
 21
72.8406
  0
LINE
  8
0
 10
104.149
 20
72.8406
 11
103.882
 21
73.4088
  0
LINE
  8
0
 10
103.882
 20
73.4088
 11
103.545
 21
73.9389
  0
LINE
  8
0
 10
103.545
 20
73.9389
 11
103.145
 21
74.4227
  0
LINE
  8
0
 10
103.145
 20
74.4227
 11
102.687
 21
74.8526
  0
LINE
  8
0
 10
102.687
 20
74.8526
 11
102.179
 21
75.2216
  0
LINE
  8
0
 10
102.179
 20
75.2216
 11
101.629
 21
75.5241
  0
LINE
  8
0
 10
101.629
 20
75.5241
 11
101.045
 21
75.7553
  0
LINE
  8
0
 10
101.045
 20
75.7553
 11
100.437
 21
75.9114
  0
LINE
  8
0
 10
100.437
 20
75.9114
 11
99.8139
 21
75.9901
  0
LINE
  8
0
 10
99.8139
 20
75.9901
 11
-99.8139
 21
75.9901
  0
LINE
  8
0
 10
-99.8139
 20
75.9901
 11
-100.437
 21
75.9114
  0
LINE
  8
0
 10
-100.437
 20
75.9114
 11
-101.045
 21
75.7553
  0
LINE
  8
0
 10
-101.045
 20
75.7553
 11
-101.629
 21
75.5241
  0
LINE
  8
0
 10
-101.629
 20
75.5241
 11
-102.179
 21
75.2216
  0
LINE
  8
0
 10
-102.179
 20
75.2216
 11
-102.687
 21
74.8526
  0
LINE
  8
0
 10
-102.687
 20
74.8526
 11
-103.145
 21
74.4227
  0
LINE
  8
0
 10
-103.145
 20
74.4227
 11
-103.545
 21
73.9389
  0
LINE
  8
0
 10
-103.545
 20
73.9389
 11
-103.882
 21
73.4088
  0
LINE
  8
0
 10
-103.882
 20
73.4088
 11
-104.149
 21
72.8406
  0
LINE
  8
0
 10
-104.149
 20
72.8406
 11
-104.343
 21
72.2434
  0
LINE
  8
0
 10
-104.343
 20
72.2434
 11
-104.461
 21
71.6267
  0
LINE
  8
0
 10
-104.461
 20
71.6267
 11
-104.5
 21
71
  0
LINE
  8
0
 10
-104.5
 20
71
 11
-104.5
 21
37
  0
LINE
  8
0
 10
-104.5
 20
37
 11
-104.461
 21
36.3733
  0
LINE
  8
0
 10
-104.461
 20
36.3733
 11
-104.343
 21
35.7566
  0
LINE
  8
0
 10
-104.343
 20
35.7566
 11
-104.149
 21
35.1594
  0
LINE
  8
0
 10
-104.149
 20
35.1594
 11
-103.882
 21
34.5912
  0
LINE
  8
0
 10
-103.882
 20
34.5912
 11
-103.545
 21
34.0611
  0
LINE
  8
0
 10
-103.545
 20
34.0611
 11
-103.145
 21
33.5773
  0
LINE
  8
0
 10
-103.145
 20
33.5773
 11
-102.687
 21
33.1474
  0
LINE
  8
0
 10
-102.687
 20
33.1474
 11
-102.179
 21
32.7784
  0
LINE
  8
0
 10
-102.179
 20
32.7784
 11
-101.629
 21
32.4759
  0
LINE
  8
0
 10
-101.629
 20
32.4759
 11
-101.045
 21
32.2447
  0
LINE
  8
0
 10
-101.045
 20
32.2447
 11
-100.437
 21
32.0886
  0
LINE
  8
0
 10
-100.437
 20
32.0886
 11
-99.8139
 21
32.0099
  0
LINE
  8
0
 10
-99.8139
 20
32.0099
 11
99.8139
 21
32.0099
  0
LINE
  8
0
 10
99.8139
 20
32.0099
 11
100.437
 21
32.0886
  0
LINE
  8
0
 10
-97.6884
 20
66.0059
 11
-98.0621
 21
66.0531
  0
LINE
  8
0
 10
-98.0621
 20
66.0531
 11
-98.427
 21
66.1468
  0
LINE
  8
0
 10
-98.427
 20
66.1468
 11
-98.7773
 21
66.2855
  0
LINE
  8
0
 10
-98.7773
 20
66.2855
 11
-99.1075
 21
66.467
  0
LINE
  8
0
 10
-99.1075
 20
66.467
 11
-99.4123
 21
66.6884
  0
LINE
  8
0
 10
-99.4123
 20
66.6884
 11
-99.6869
 21
66.9464
  0
LINE
  8
0
 10
-99.6869
 20
66.9464
 11
-99.927
 21
67.2366
  0
LINE
  8
0
 10
-99.927
 20
67.2366
 11
-100.129
 21
67.5547
  0
LINE
  8
0
 10
-100.129
 20
67.5547
 11
-100.289
 21
67.8956
  0
LINE
  8
0
 10
-100.289
 20
67.8956
 11
-100.406
 21
68.2539
  0
LINE
  8
0
 10
-100.406
 20
68.2539
 11
-100.476
 21
68.624
  0
LINE
  8
0
 10
-100.476
 20
68.624
 11
-100.5
 21
69
  0
LINE
  8
0
 10
-100.5
 20
69
 11
-100.476
 21
69.376
  0
LINE
  8
0
 10
-100.476
 20
69.376
 11
-100.406
 21
69.7461
  0
LINE
  8
0
 10
-100.406
 20
69.7461
 11
-100.289
 21
70.1044
  0
LINE
  8
0
 10
-100.289
 20
70.1044
 11
-100.129
 21
70.4453
  0
LINE
  8
0
 10
-100.129
 20
70.4453
 11
-99.927
 21
70.7634
  0
LINE
  8
0
 10
-99.927
 20
70.7634
 11
-99.6869
 21
71.0536
  0
LINE
  8
0
 10
-99.6869
 20
71.0536
 11
-99.4123
 21
71.3115
  0
LINE
  8
0
 10
-99.4123
 20
71.3115
 11
-99.1075
 21
71.533
  0
LINE
  8
0
 10
-99.1075
 20
71.533
 11
-98.7773
 21
71.7145
  0
LINE
  8
0
 10
-98.7773
 20
71.7145
 11
-98.427
 21
71.8532
  0
LINE
  8
0
 10
-98.427
 20
71.8532
 11
-98.0621
 21
71.9469
  0
LINE
  8
0
 10
-98.0621
 20
71.9469
 11
-97.6884
 21
71.9941
  0
LINE
  8
0
 10
-97.6884
 20
71.9941
 11
-97.3116
 21
71.9941
  0
LINE
  8
0
 10
-97.3116
 20
71.9941
 11
-96.9379
 21
71.9469
  0
LINE
  8
0
 10
-96.9379
 20
71.9469
 11
-96.573
 21
71.8532
  0
LINE
  8
0
 10
-96.573
 20
71.8532
 11
-96.2227
 21
71.7145
  0
LINE
  8
0
 10
-96.2227
 20
71.7145
 11
-95.8925
 21
71.533
  0
LINE
  8
0
 10
-95.8925
 20
71.533
 11
-95.5877
 21
71.3115
  0
LINE
  8
0
 10
-95.5877
 20
71.3115
 11
-95.3131
 21
71.0536
  0
LINE
  8
0
 10
-95.3131
 20
71.0536
 11
-95.073
 21
70.7634
  0
LINE
  8
0
 10
-95.073
 20
70.7634
 11
-94.8711
 21
70.4453
  0
LINE
  8
0
 10
-94.8711
 20
70.4453
 11
-94.7107
 21
70.1044
  0
LINE
  8
0
 10
-94.7107
 20
70.1044
 11
-94.5943
 21
69.7461
  0
LINE
  8
0
 10
-94.5943
 20
69.7461
 11
-94.5237
 21
69.376
  0
LINE
  8
0
 10
-94.5237
 20
69.376
 11
-94.5
 21
69
  0
LINE
  8
0
 10
-94.5
 20
69
 11
-94.5237
 21
68.624
  0
LINE
  8
0
 10
-94.5237
 20
68.624
 11
-94.5943
 21
68.2539
  0
LINE
  8
0
 10
-94.5943
 20
68.2539
 11
-94.7107
 21
67.8956
  0
LINE
  8
0
 10
-94.7107
 20
67.8956
 11
-94.8711
 21
67.5547
  0
LINE
  8
0
 10
-94.8711
 20
67.5547
 11
-95.073
 21
67.2366
  0
LINE
  8
0
 10
-95.073
 20
67.2366
 11
-95.3131
 21
66.9464
  0
LINE
  8
0
 10
-95.3131
 20
66.9464
 11
-95.5877
 21
66.6884
  0
LINE
  8
0
 10
-95.5877
 20
66.6884
 11
-95.8925
 21
66.467
  0
LINE
  8
0
 10
-95.8925
 20
66.467
 11
-96.2227
 21
66.2855
  0
LINE
  8
0
 10
-96.2227
 20
66.2855
 11
-96.573
 21
66.1468
  0
LINE
  8
0
 10
-96.573
 20
66.1468
 11
-96.9379
 21
66.0531
  0
LINE
  8
0
 10
-96.9379
 20
66.0531
 11
-97.3116
 21
66.0059
  0
LINE
  8
0
 10
-97.3116
 20
66.0059
 11
-97.6884
 21
66.0059
  0
LINE
  8
0
 10
97.3116
 20
66.0059
 11
96.9379
 21
66.0531
  0
LINE
  8
0
 10
96.9379
 20
66.0531
 11
96.573
 21
66.1468
  0
LINE
  8
0
 10
96.573
 20
66.1468
 11
96.2227
 21
66.2855
  0
LINE
  8
0
 10
96.2227
 20
66.2855
 11
95.8925
 21
66.467
  0
LINE
  8
0
 10
95.8925
 20
66.467
 11
95.5877
 21
66.6884
  0
LINE
  8
0
 10
95.5877
 20
66.6884
 11
95.3131
 21
66.9464
  0
LINE
  8
0
 10
95.3131
 20
66.9464
 11
95.073
 21
67.2366
  0
LINE
  8
0
 10
95.073
 20
67.2366
 11
94.8711
 21
67.5547
  0
LINE
  8
0
 10
94.8711
 20
67.5547
 11
94.7107
 21
67.8956
  0
LINE
  8
0
 10
94.7107
 20
67.8956
 11
94.5943
 21
68.2539
  0
LINE
  8
0
 10
94.5943
 20
68.2539
 11
94.5237
 21
68.624
  0
LINE
  8
0
 10
94.5237
 20
68.624
 11
94.5
 21
69
  0
LINE
  8
0
 10
94.5
 20
69
 11
94.5237
 21
69.376
  0
LINE
  8
0
 10
94.5237
 20
69.376
 11
94.5943
 21
69.7461
  0
LINE
  8
0
 10
94.5943
 20
69.7461
 11
94.7107
 21
70.1044
  0
LINE
  8
0
 10
94.7107
 20
70.1044
 11
94.8711
 21
70.4453
  0
LINE
  8
0
 10
94.8711
 20
70.4453
 11
95.073
 21
70.7634
  0
LINE
  8
0
 10
95.073
 20
70.7634
 11
95.3131
 21
71.0536
  0
LINE
  8
0
 10
95.3131
 20
71.0536
 11
95.5877
 21
71.3115
  0
LINE
  8
0
 10
95.5877
 20
71.3115
 11
95.8925
 21
71.533
  0
LINE
  8
0
 10
95.8925
 20
71.533
 11
96.2227
 21
71.7145
  0
LINE
  8
0
 10
96.2227
 20
71.7145
 11
96.573
 21
71.8532
  0
LINE
  8
0
 10
96.573
 20
71.8532
 11
96.9379
 21
71.9469
  0
LINE
  8
0
 10
96.9379
 20
71.9469
 11
97.3116
 21
71.9941
  0
LINE
  8
0
 10
97.3116
 20
71.9941
 11
97.6884
 21
71.9941
  0
LINE
  8
0
 10
97.6884
 20
71.9941
 11
98.0621
 21
71.9469
  0
LINE
  8
0
 10
98.0621
 20
71.9469
 11
98.427
 21
71.8532
  0
LINE
  8
0
 10
98.427
 20
71.8532
 11
98.7773
 21
71.7145
  0
LINE
  8
0
 10
98.7773
 20
71.7145
 11
99.1075
 21
71.533
  0
LINE
  8
0
 10
99.1075
 20
71.533
 11
99.4123
 21
71.3115
  0
LINE
  8
0
 10
99.4123
 20
71.3115
 11
99.6869
 21
71.0536
  0
LINE
  8
0
 10
99.6869
 20
71.0536
 11
99.927
 21
70.7634
  0
LINE
  8
0
 10
99.927
 20
70.7634
 11
100.129
 21
70.4453
  0
LINE
  8
0
 10
100.129
 20
70.4453
 11
100.289
 21
70.1044
  0
LINE
  8
0
 10
100.289
 20
70.1044
 11
100.406
 21
69.7461
  0
LINE
  8
0
 10
100.406
 20
69.7461
 11
100.476
 21
69.376
  0
LINE
  8
0
 10
100.476
 20
69.376
 11
100.5
 21
69
  0
LINE
  8
0
 10
100.5
 20
69
 11
100.476
 21
68.624
  0
LINE
  8
0
 10
100.476
 20
68.624
 11
100.406
 21
68.2539
  0
LINE
  8
0
 10
100.406
 20
68.2539
 11
100.289
 21
67.8956
  0
LINE
  8
0
 10
100.289
 20
67.8956
 11
100.129
 21
67.5547
  0
LINE
  8
0
 10
100.129
 20
67.5547
 11
99.927
 21
67.2366
  0
LINE
  8
0
 10
99.927
 20
67.2366
 11
99.6869
 21
66.9464
  0
LINE
  8
0
 10
99.6869
 20
66.9464
 11
99.4123
 21
66.6884
  0
LINE
  8
0
 10
99.4123
 20
66.6884
 11
99.1075
 21
66.467
  0
LINE
  8
0
 10
99.1075
 20
66.467
 11
98.7773
 21
66.2855
  0
LINE
  8
0
 10
98.7773
 20
66.2855
 11
98.427
 21
66.1468
  0
LINE
  8
0
 10
98.427
 20
66.1468
 11
98.0621
 21
66.0531
  0
LINE
  8
0
 10
98.0621
 20
66.0531
 11
97.6884
 21
66.0059
  0
LINE
  8
0
 10
97.6884
 20
66.0059
 11
97.3116
 21
66.0059
  0
LINE
  8
0
 10
-75.0046
 20
38.0316
 11
-76.9981
 21
38.2834
  0
LINE
  8
0
 10
-76.9981
 20
38.2834
 11
-78.9443
 21
38.7831
  0
LINE
  8
0
 10
-78.9443
 20
38.7831
 11
-80.8125
 21
39.5228
  0
LINE
  8
0
 10
-80.8125
 20
39.5228
 11
-82.5732
 21
40.4908
  0
LINE
  8
0
 10
-82.5732
 20
40.4908
 11
-84.1988
 21
41.6718
  0
LINE
  8
0
 10
-84.1988
 20
41.6718
 11
-85.6635
 21
43.0473
  0
LINE
  8
0
 10
-85.6635
 20
43.0473
 11
-86.9443
 21
44.5954
  0
LINE
  8
0
 10
-86.9443
 20
44.5954
 11
-88.0209
 21
46.2919
  0
LINE
  8
0
 10
-88.0209
 20
46.2919
 11
-88.8764
 21
48.11
  0
LINE
  8
0
 10
-88.8764
 20
48.11
 11
-89.4973
 21
50.021
  0
LINE
  8
0
 10
-89.4973
 20
50.021
 11
-89.8738
 21
51.9947
  0
LINE
  8
0
 10
-89.8738
 20
51.9947
 11
-90
 21
54
  0
LINE
  8
0
 10
-90
 20
54
 11
-89.8738
 21
56.0053
  0
LINE
  8
0
 10
-89.8738
 20
56.0053
 11
-89.4973
 21
57.979
  0
LINE
  8
0
 10
-89.4973
 20
57.979
 11
-88.8764
 21
59.89
  0
LINE
  8
0
 10
-88.8764
 20
59.89
 11
-88.0209
 21
61.7081
  0
LINE
  8
0
 10
-88.0209
 20
61.7081
 11
-86.9443
 21
63.4046
  0
LINE
  8
0
 10
-86.9443
 20
63.4046
 11
-85.6635
 21
64.9527
  0
LINE
  8
0
 10
-85.6635
 20
64.9527
 11
-84.1988
 21
66.3282
  0
LINE
  8
0
 10
-84.1988
 20
66.3282
 11
-82.5732
 21
67.5092
  0
LINE
  8
0
 10
-82.5732
 20
67.5092
 11
-80.8125
 21
68.4772
  0
LINE
  8
0
 10
-80.8125
 20
68.4772
 11
-78.9443
 21
69.2169
  0
LINE
  8
0
 10
-78.9443
 20
69.2169
 11
-76.9981
 21
69.7166
  0
LINE
  8
0
 10
-76.9981
 20
69.7166
 11
-75.0046
 21
69.9684
  0
LINE
  8
0
 10
-75.0046
 20
69.9684
 11
-72.9953
 21
69.9684
  0
LINE
  8
0
 10
-72.9953
 20
69.9684
 11
-71.0019
 21
69.7166
  0
LINE
  8
0
 10
-71.0019
 20
69.7166
 11
-69.0557
 21
69.2169
  0
LINE
  8
0
 10
-69.0557
 20
69.2169
 11
-67.1875
 21
68.4772
  0
LINE
  8
0
 10
-67.1875
 20
68.4772
 11
-65.4268
 21
67.5092
  0
LINE
  8
0
 10
-65.4268
 20
67.5092
 11
-63.8012
 21
66.3282
  0
LINE
  8
0
 10
-63.8012
 20
66.3282
 11
-62.3365
 21
64.9527
  0
LINE
  8
0
 10
-62.3365
 20
64.9527
 11
-61.0557
 21
63.4046
  0
LINE
  8
0
 10
-61.0557
 20
63.4046
 11
-59.9791
 21
61.7081
  0
LINE
  8
0
 10
-59.9791
 20
61.7081
 11
-59.1236
 21
59.89
  0
LINE
  8
0
 10
-59.1236
 20
59.89
 11
-58.5027
 21
57.979
  0
LINE
  8
0
 10
-58.5027
 20
57.979
 11
-58.1262
 21
56.0053
  0
LINE
  8
0
 10
-58.1262
 20
56.0053
 11
-58
 21
54
  0
LINE
  8
0
 10
-58
 20
54
 11
-58.1262
 21
51.9947
  0
LINE
  8
0
 10
-58.1262
 20
51.9947
 11
-58.5027
 21
50.021
  0
LINE
  8
0
 10
-58.5027
 20
50.021
 11
-59.1236
 21
48.11
  0
LINE
  8
0
 10
-59.1236
 20
48.11
 11
-59.9791
 21
46.2919
  0
LINE
  8
0
 10
-59.9791
 20
46.2919
 11
-61.0557
 21
44.5954
  0
LINE
  8
0
 10
-61.0557
 20
44.5954
 11
-62.3365
 21
43.0473
  0
LINE
  8
0
 10
-62.3365
 20
43.0473
 11
-63.8012
 21
41.6718
  0
LINE
  8
0
 10
-63.8012
 20
41.6718
 11
-65.4268
 21
40.4908
  0
LINE
  8
0
 10
-65.4268
 20
40.4908
 11
-67.1875
 21
39.5228
  0
LINE
  8
0
 10
-67.1875
 20
39.5228
 11
-69.0557
 21
38.7831
  0
LINE
  8
0
 10
-69.0557
 20
38.7831
 11
-71.0019
 21
38.2834
  0
LINE
  8
0
 10
-71.0019
 20
38.2834
 11
-72.9953
 21
38.0316
  0
LINE
  8
0
 10
-72.9953
 20
38.0316
 11
-75.0046
 21
38.0316
  0
LINE
  8
0
 10
35.9953
 20
38.0316
 11
34.0019
 21
38.2834
  0
LINE
  8
0
 10
34.0019
 20
38.2834
 11
32.0557
 21
38.7831
  0
LINE
  8
0
 10
32.0557
 20
38.7831
 11
30.1875
 21
39.5228
  0
LINE
  8
0
 10
30.1875
 20
39.5228
 11
28.4268
 21
40.4908
  0
LINE
  8
0
 10
28.4268
 20
40.4908
 11
26.8012
 21
41.6718
  0
LINE
  8
0
 10
26.8012
 20
41.6718
 11
25.3365
 21
43.0473
  0
LINE
  8
0
 10
25.3365
 20
43.0473
 11
24.0557
 21
44.5954
  0
LINE
  8
0
 10
24.0557
 20
44.5954
 11
22.9791
 21
46.2919
  0
LINE
  8
0
 10
22.9791
 20
46.2919
 11
22.1236
 21
48.11
  0
LINE
  8
0
 10
22.1236
 20
48.11
 11
21.5027
 21
50.021
  0
LINE
  8
0
 10
21.5027
 20
50.021
 11
21.1262
 21
51.9947
  0
LINE
  8
0
 10
21.1262
 20
51.9947
 11
21
 21
54
  0
LINE
  8
0
 10
21
 20
54
 11
21.1262
 21
56.0053
  0
LINE
  8
0
 10
21.1262
 20
56.0053
 11
21.5027
 21
57.979
  0
LINE
  8
0
 10
21.5027
 20
57.979
 11
22.1236
 21
59.89
  0
LINE
  8
0
 10
22.1236
 20
59.89
 11
22.9791
 21
61.7081
  0
LINE
  8
0
 10
22.9791
 20
61.7081
 11
24.0557
 21
63.4046
  0
LINE
  8
0
 10
24.0557
 20
63.4046
 11
25.3365
 21
64.9527
  0
LINE
  8
0
 10
25.3365
 20
64.9527
 11
26.8012
 21
66.3282
  0
LINE
  8
0
 10
26.8012
 20
66.3282
 11
28.4268
 21
67.5092
  0
LINE
  8
0
 10
28.4268
 20
67.5092
 11
30.1875
 21
68.4772
  0
LINE
  8
0
 10
30.1875
 20
68.4772
 11
32.0557
 21
69.2169
  0
LINE
  8
0
 10
32.0557
 20
69.2169
 11
34.0019
 21
69.7166
  0
LINE
  8
0
 10
34.0019
 20
69.7166
 11
35.9953
 21
69.9684
  0
LINE
  8
0
 10
35.9953
 20
69.9684
 11
38.0046
 21
69.9684
  0
LINE
  8
0
 10
38.0046
 20
69.9684
 11
39.9981
 21
69.7166
  0
LINE
  8
0
 10
39.9981
 20
69.7166
 11
41.9443
 21
69.2169
  0
LINE
  8
0
 10
41.9443
 20
69.2169
 11
43.8125
 21
68.4772
  0
LINE
  8
0
 10
43.8125
 20
68.4772
 11
45.5732
 21
67.5092
  0
LINE
  8
0
 10
45.5732
 20
67.5092
 11
47.1988
 21
66.3282
  0
LINE
  8
0
 10
47.1988
 20
66.3282
 11
48.6635
 21
64.9527
  0
LINE
  8
0
 10
48.6635
 20
64.9527
 11
49.9443
 21
63.4046
  0
LINE
  8
0
 10
49.9443
 20
63.4046
 11
51.0209
 21
61.7081
  0
LINE
  8
0
 10
51.0209
 20
61.7081
 11
51.8764
 21
59.89
  0
LINE
  8
0
 10
51.8764
 20
59.89
 11
52.4973
 21
57.979
  0
LINE
  8
0
 10
52.4973
 20
57.979
 11
52.8738
 21
56.0053
  0
LINE
  8
0
 10
52.8738
 20
56.0053
 11
53
 21
54
  0
LINE
  8
0
 10
53
 20
54
 11
52.8738
 21
51.9947
  0
LINE
  8
0
 10
52.8738
 20
51.9947
 11
52.4973
 21
50.021
  0
LINE
  8
0
 10
52.4973
 20
50.021
 11
51.8764
 21
48.11
  0
LINE
  8
0
 10
51.8764
 20
48.11
 11
51.0209
 21
46.2919
  0
LINE
  8
0
 10
51.0209
 20
46.2919
 11
49.9443
 21
44.5954
  0
LINE
  8
0
 10
49.9443
 20
44.5954
 11
48.6635
 21
43.0473
  0
LINE
  8
0
 10
48.6635
 20
43.0473
 11
47.1988
 21
41.6718
  0
LINE
  8
0
 10
47.1988
 20
41.6718
 11
45.5732
 21
40.4908
  0
LINE
  8
0
 10
45.5732
 20
40.4908
 11
43.8125
 21
39.5228
  0
LINE
  8
0
 10
43.8125
 20
39.5228
 11
41.9443
 21
38.7831
  0
LINE
  8
0
 10
41.9443
 20
38.7831
 11
39.9981
 21
38.2834
  0
LINE
  8
0
 10
39.9981
 20
38.2834
 11
38.0046
 21
38.0316
  0
LINE
  8
0
 10
38.0046
 20
38.0316
 11
35.9953
 21
38.0316
  0
LINE
  8
0
 10
-38.0046
 20
38.0316
 11
-39.9981
 21
38.2834
  0
LINE
  8
0
 10
-39.9981
 20
38.2834
 11
-41.9443
 21
38.7831
  0
LINE
  8
0
 10
-41.9443
 20
38.7831
 11
-43.8125
 21
39.5228
  0
LINE
  8
0
 10
-43.8125
 20
39.5228
 11
-45.5732
 21
40.4908
  0
LINE
  8
0
 10
-45.5732
 20
40.4908
 11
-47.1988
 21
41.6718
  0
LINE
  8
0
 10
-47.1988
 20
41.6718
 11
-48.6635
 21
43.0473
  0
LINE
  8
0
 10
-48.6635
 20
43.0473
 11
-49.9443
 21
44.5954
  0
LINE
  8
0
 10
-49.9443
 20
44.5954
 11
-51.0209
 21
46.2919
  0
LINE
  8
0
 10
-51.0209
 20
46.2919
 11
-51.8764
 21
48.11
  0
LINE
  8
0
 10
-51.8764
 20
48.11
 11
-52.4973
 21
50.021
  0
LINE
  8
0
 10
-52.4973
 20
50.021
 11
-52.8738
 21
51.9947
  0
LINE
  8
0
 10
-52.8738
 20
51.9947
 11
-53
 21
54
  0
LINE
  8
0
 10
-53
 20
54
 11
-52.8738
 21
56.0053
  0
LINE
  8
0
 10
-52.8738
 20
56.0053
 11
-52.4973
 21
57.979
  0
LINE
  8
0
 10
-52.4973
 20
57.979
 11
-51.8764
 21
59.89
  0
LINE
  8
0
 10
-51.8764
 20
59.89
 11
-51.0209
 21
61.7081
  0
LINE
  8
0
 10
-51.0209
 20
61.7081
 11
-49.9443
 21
63.4046
  0
LINE
  8
0
 10
-49.9443
 20
63.4046
 11
-48.6635
 21
64.9527
  0
LINE
  8
0
 10
-48.6635
 20
64.9527
 11
-47.1988
 21
66.3282
  0
LINE
  8
0
 10
-47.1988
 20
66.3282
 11
-45.5732
 21
67.5092
  0
LINE
  8
0
 10
-45.5732
 20
67.5092
 11
-43.8125
 21
68.4772
  0
LINE
  8
0
 10
-43.8125
 20
68.4772
 11
-41.9443
 21
69.2169
  0
LINE
  8
0
 10
-41.9443
 20
69.2169
 11
-39.9981
 21
69.7166
  0
LINE
  8
0
 10
-39.9981
 20
69.7166
 11
-38.0046
 21
69.9684
  0
LINE
  8
0
 10
-38.0046
 20
69.9684
 11
-35.9953
 21
69.9684
  0
LINE
  8
0
 10
-35.9953
 20
69.9684
 11
-34.0019
 21
69.7166
  0
LINE
  8
0
 10
-34.0019
 20
69.7166
 11
-32.0557
 21
69.2169
  0
LINE
  8
0
 10
-32.0557
 20
69.2169
 11
-30.1875
 21
68.4772
  0
LINE
  8
0
 10
-30.1875
 20
68.4772
 11
-28.4268
 21
67.5092
  0
LINE
  8
0
 10
-28.4268
 20
67.5092
 11
-26.8012
 21
66.3282
  0
LINE
  8
0
 10
-26.8012
 20
66.3282
 11
-25.3365
 21
64.9527
  0
LINE
  8
0
 10
-25.3365
 20
64.9527
 11
-24.0557
 21
63.4046
  0
LINE
  8
0
 10
-24.0557
 20
63.4046
 11
-22.9791
 21
61.7081
  0
LINE
  8
0
 10
-22.9791
 20
61.7081
 11
-22.1236
 21
59.89
  0
LINE
  8
0
 10
-22.1236
 20
59.89
 11
-21.5027
 21
57.979
  0
LINE
  8
0
 10
-21.5027
 20
57.979
 11
-21.1262
 21
56.0053
  0
LINE
  8
0
 10
-21.1262
 20
56.0053
 11
-21
 21
54
  0
LINE
  8
0
 10
-21
 20
54
 11
-21.1262
 21
51.9947
  0
LINE
  8
0
 10
-21.1262
 20
51.9947
 11
-21.5027
 21
50.021
  0
LINE
  8
0
 10
-21.5027
 20
50.021
 11
-22.1236
 21
48.11
  0
LINE
  8
0
 10
-22.1236
 20
48.11
 11
-22.9791
 21
46.2919
  0
LINE
  8
0
 10
-22.9791
 20
46.2919
 11
-24.0557
 21
44.5954
  0
LINE
  8
0
 10
-24.0557
 20
44.5954
 11
-25.3365
 21
43.0473
  0
LINE
  8
0
 10
-25.3365
 20
43.0473
 11
-26.8012
 21
41.6718
  0
LINE
  8
0
 10
-26.8012
 20
41.6718
 11
-28.4268
 21
40.4908
  0
LINE
  8
0
 10
-28.4268
 20
40.4908
 11
-30.1875
 21
39.5228
  0
LINE
  8
0
 10
-30.1875
 20
39.5228
 11
-32.0557
 21
38.7831
  0
LINE
  8
0
 10
-32.0557
 20
38.7831
 11
-34.0019
 21
38.2834
  0
LINE
  8
0
 10
-34.0019
 20
38.2834
 11
-35.9953
 21
38.0316
  0
LINE
  8
0
 10
-35.9953
 20
38.0316
 11
-38.0046
 21
38.0316
  0
LINE
  8
0
 10
72.9953
 20
38.0316
 11
71.0019
 21
38.2834
  0
LINE
  8
0
 10
71.0019
 20
38.2834
 11
69.0557
 21
38.7831
  0
LINE
  8
0
 10
69.0557
 20
38.7831
 11
67.1875
 21
39.5228
  0
LINE
  8
0
 10
67.1875
 20
39.5228
 11
65.4268
 21
40.4908
  0
LINE
  8
0
 10
65.4268
 20
40.4908
 11
63.8012
 21
41.6718
  0
LINE
  8
0
 10
63.8012
 20
41.6718
 11
62.3365
 21
43.0473
  0
LINE
  8
0
 10
62.3365
 20
43.0473
 11
61.0557
 21
44.5954
  0
LINE
  8
0
 10
61.0557
 20
44.5954
 11
59.9791
 21
46.2919
  0
LINE
  8
0
 10
59.9791
 20
46.2919
 11
59.1236
 21
48.11
  0
LINE
  8
0
 10
59.1236
 20
48.11
 11
58.5027
 21
50.021
  0
LINE
  8
0
 10
58.5027
 20
50.021
 11
58.1262
 21
51.9947
  0
LINE
  8
0
 10
58.1262
 20
51.9947
 11
58
 21
54
  0
LINE
  8
0
 10
58
 20
54
 11
58.1262
 21
56.0053
  0
LINE
  8
0
 10
58.1262
 20
56.0053
 11
58.5027
 21
57.979
  0
LINE
  8
0
 10
58.5027
 20
57.979
 11
59.1236
 21
59.89
  0
LINE
  8
0
 10
59.1236
 20
59.89
 11
59.9791
 21
61.7081
  0
LINE
  8
0
 10
59.9791
 20
61.7081
 11
61.0557
 21
63.4046
  0
LINE
  8
0
 10
61.0557
 20
63.4046
 11
62.3365
 21
64.9527
  0
LINE
  8
0
 10
62.3365
 20
64.9527
 11
63.8012
 21
66.3282
  0
LINE
  8
0
 10
63.8012
 20
66.3282
 11
65.4268
 21
67.5092
  0
LINE
  8
0
 10
65.4268
 20
67.5092
 11
67.1875
 21
68.4772
  0
LINE
  8
0
 10
67.1875
 20
68.4772
 11
69.0557
 21
69.2169
  0
LINE
  8
0
 10
69.0557
 20
69.2169
 11
71.0019
 21
69.7166
  0
LINE
  8
0
 10
71.0019
 20
69.7166
 11
72.9953
 21
69.9684
  0
LINE
  8
0
 10
72.9953
 20
69.9684
 11
75.0046
 21
69.9684
  0
LINE
  8
0
 10
75.0046
 20
69.9684
 11
76.9981
 21
69.7166
  0
LINE
  8
0
 10
76.9981
 20
69.7166
 11
78.9443
 21
69.2169
  0
LINE
  8
0
 10
78.9443
 20
69.2169
 11
80.8125
 21
68.4772
  0
LINE
  8
0
 10
80.8125
 20
68.4772
 11
82.5732
 21
67.5092
  0
LINE
  8
0
 10
82.5732
 20
67.5092
 11
84.1988
 21
66.3282
  0
LINE
  8
0
 10
84.1988
 20
66.3282
 11
85.6635
 21
64.9527
  0
LINE
  8
0
 10
85.6635
 20
64.9527
 11
86.9443
 21
63.4046
  0
LINE
  8
0
 10
86.9443
 20
63.4046
 11
88.0209
 21
61.7081
  0
LINE
  8
0
 10
88.0209
 20
61.7081
 11
88.8764
 21
59.89
  0
LINE
  8
0
 10
88.8764
 20
59.89
 11
89.4973
 21
57.979
  0
LINE
  8
0
 10
89.4973
 20
57.979
 11
89.8738
 21
56.0053
  0
LINE
  8
0
 10
89.8738
 20
56.0053
 11
90
 21
54
  0
LINE
  8
0
 10
90
 20
54
 11
89.8738
 21
51.9947
  0
LINE
  8
0
 10
89.8738
 20
51.9947
 11
89.4973
 21
50.021
  0
LINE
  8
0
 10
89.4973
 20
50.021
 11
88.8764
 21
48.11
  0
LINE
  8
0
 10
88.8764
 20
48.11
 11
88.0209
 21
46.2919
  0
LINE
  8
0
 10
88.0209
 20
46.2919
 11
86.9443
 21
44.5954
  0
LINE
  8
0
 10
86.9443
 20
44.5954
 11
85.6635
 21
43.0473
  0
LINE
  8
0
 10
85.6635
 20
43.0473
 11
84.1988
 21
41.6718
  0
LINE
  8
0
 10
84.1988
 20
41.6718
 11
82.5732
 21
40.4908
  0
LINE
  8
0
 10
82.5732
 20
40.4908
 11
80.8125
 21
39.5228
  0
LINE
  8
0
 10
80.8125
 20
39.5228
 11
78.9443
 21
38.7831
  0
LINE
  8
0
 10
78.9443
 20
38.7831
 11
76.9981
 21
38.2834
  0
LINE
  8
0
 10
76.9981
 20
38.2834
 11
75.0046
 21
38.0316
  0
LINE
  8
0
 10
75.0046
 20
38.0316
 11
72.9953
 21
38.0316
  0
LINE
  8
0
 10
-1.00464
 20
38.0316
 11
-2.99809
 21
38.2834
  0
LINE
  8
0
 10
-2.99809
 20
38.2834
 11
-4.94426
 21
38.7831
  0
LINE
  8
0
 10
-4.94426
 20
38.7831
 11
-6.81245
 21
39.5228
  0
LINE
  8
0
 10
-6.81245
 20
39.5228
 11
-8.57323
 21
40.4908
  0
LINE
  8
0
 10
-8.57323
 20
40.4908
 11
-10.1988
 21
41.6718
  0
LINE
  8
0
 10
-10.1988
 20
41.6718
 11
-11.6635
 21
43.0473
  0
LINE
  8
0
 10
-11.6635
 20
43.0473
 11
-12.9443
 21
44.5954
  0
LINE
  8
0
 10
-12.9443
 20
44.5954
 11
-14.0209
 21
46.2919
  0
LINE
  8
0
 10
-14.0209
 20
46.2919
 11
-14.8764
 21
48.11
  0
LINE
  8
0
 10
-14.8764
 20
48.11
 11
-15.4973
 21
50.021
  0
LINE
  8
0
 10
-15.4973
 20
50.021
 11
-15.8738
 21
51.9947
  0
LINE
  8
0
 10
-15.8738
 20
51.9947
 11
-16
 21
54
  0
LINE
  8
0
 10
-16
 20
54
 11
-15.8738
 21
56.0053
  0
LINE
  8
0
 10
-15.8738
 20
56.0053
 11
-15.4973
 21
57.979
  0
LINE
  8
0
 10
-15.4973
 20
57.979
 11
-14.8764
 21
59.89
  0
LINE
  8
0
 10
-14.8764
 20
59.89
 11
-14.0209
 21
61.7081
  0
LINE
  8
0
 10
-14.0209
 20
61.7081
 11
-12.9443
 21
63.4046
  0
LINE
  8
0
 10
-12.9443
 20
63.4046
 11
-11.6635
 21
64.9527
  0
LINE
  8
0
 10
-11.6635
 20
64.9527
 11
-10.1988
 21
66.3282
  0
LINE
  8
0
 10
-10.1988
 20
66.3282
 11
-8.57323
 21
67.5092
  0
LINE
  8
0
 10
-8.57323
 20
67.5092
 11
-6.81245
 21
68.4772
  0
LINE
  8
0
 10
-6.81245
 20
68.4772
 11
-4.94426
 21
69.2169
  0
LINE
  8
0
 10
-4.94426
 20
69.2169
 11
-2.99809
 21
69.7166
  0
LINE
  8
0
 10
-2.99809
 20
69.7166
 11
-1.00464
 21
69.9684
  0
LINE
  8
0
 10
-1.00464
 20
69.9684
 11
1.00464
 21
69.9684
  0
LINE
  8
0
 10
1.00464
 20
69.9684
 11
2.99809
 21
69.7166
  0
LINE
  8
0
 10
2.99809
 20
69.7166
 11
4.94426
 21
69.2169
  0
LINE
  8
0
 10
4.94426
 20
69.2169
 11
6.81245
 21
68.4772
  0
LINE
  8
0
 10
6.81245
 20
68.4772
 11
8.57323
 21
67.5092
  0
LINE
  8
0
 10
8.57323
 20
67.5092
 11
10.1988
 21
66.3282
  0
LINE
  8
0
 10
10.1988
 20
66.3282
 11
11.6635
 21
64.9527
  0
LINE
  8
0
 10
11.6635
 20
64.9527
 11
12.9443
 21
63.4046
  0
LINE
  8
0
 10
12.9443
 20
63.4046
 11
14.0209
 21
61.7081
  0
LINE
  8
0
 10
14.0209
 20
61.7081
 11
14.8764
 21
59.89
  0
LINE
  8
0
 10
14.8764
 20
59.89
 11
15.4973
 21
57.979
  0
LINE
  8
0
 10
15.4973
 20
57.979
 11
15.8738
 21
56.0053
  0
LINE
  8
0
 10
15.8738
 20
56.0053
 11
16
 21
54
  0
LINE
  8
0
 10
16
 20
54
 11
15.8738
 21
51.9947
  0
LINE
  8
0
 10
15.8738
 20
51.9947
 11
15.4973
 21
50.021
  0
LINE
  8
0
 10
15.4973
 20
50.021
 11
14.8764
 21
48.11
  0
LINE
  8
0
 10
14.8764
 20
48.11
 11
14.0209
 21
46.2919
  0
LINE
  8
0
 10
14.0209
 20
46.2919
 11
12.9443
 21
44.5954
  0
LINE
  8
0
 10
12.9443
 20
44.5954
 11
11.6635
 21
43.0473
  0
LINE
  8
0
 10
11.6635
 20
43.0473
 11
10.1988
 21
41.6718
  0
LINE
  8
0
 10
10.1988
 20
41.6718
 11
8.57323
 21
40.4908
  0
LINE
  8
0
 10
8.57323
 20
40.4908
 11
6.81245
 21
39.5228
  0
LINE
  8
0
 10
6.81245
 20
39.5228
 11
4.94426
 21
38.7831
  0
LINE
  8
0
 10
4.94426
 20
38.7831
 11
2.99809
 21
38.2834
  0
LINE
  8
0
 10
2.99809
 20
38.2834
 11
1.00464
 21
38.0316
  0
LINE
  8
0
 10
1.00464
 20
38.0316
 11
-1.00464
 21
38.0316
  0
LINE
  8
0
 10
97.4058
 20
60.0029
 11
97.2189
 21
60.0266
  0
LINE
  8
0
 10
97.2189
 20
60.0266
 11
97.0365
 21
60.0734
  0
LINE
  8
0
 10
97.0365
 20
60.0734
 11
96.8613
 21
60.1427
  0
LINE
  8
0
 10
96.8613
 20
60.1427
 11
96.6963
 21
60.2335
  0
LINE
  8
0
 10
96.6963
 20
60.2335
 11
96.5439
 21
60.3442
  0
LINE
  8
0
 10
96.5439
 20
60.3442
 11
96.4065
 21
60.4732
  0
LINE
  8
0
 10
96.4065
 20
60.4732
 11
96.2865
 21
60.6183
  0
LINE
  8
0
 10
96.2865
 20
60.6183
 11
96.1855
 21
60.7774
  0
LINE
  8
0
 10
96.1855
 20
60.7774
 11
96.1053
 21
60.9478
  0
LINE
  8
0
 10
96.1053
 20
60.9478
 11
96.0471
 21
61.127
  0
LINE
  8
0
 10
96.0471
 20
61.127
 11
96.0118
 21
61.312
  0
LINE
  8
0
 10
96.0118
 20
61.312
 11
96
 21
61.5
  0
LINE
  8
0
 10
96
 20
61.5
 11
96.0118
 21
61.688
  0
LINE
  8
0
 10
96.0118
 20
61.688
 11
96.0471
 21
61.873
  0
LINE
  8
0
 10
96.0471
 20
61.873
 11
96.1053
 21
62.0522
  0
LINE
  8
0
 10
96.1053
 20
62.0522
 11
96.1855
 21
62.2226
  0
LINE
  8
0
 10
96.1855
 20
62.2226
 11
96.2865
 21
62.3817
  0
LINE
  8
0
 10
96.2865
 20
62.3817
 11
96.4065
 21
62.5268
  0
LINE
  8
0
 10
96.4065
 20
62.5268
 11
96.5439
 21
62.6558
  0
LINE
  8
0
 10
96.5439
 20
62.6558
 11
96.6963
 21
62.7665
  0
LINE
  8
0
 10
96.6963
 20
62.7665
 11
96.8613
 21
62.8572
  0
LINE
  8
0
 10
96.8613
 20
62.8572
 11
97.0365
 21
62.9266
  0
LINE
  8
0
 10
97.0365
 20
62.9266
 11
97.2189
 21
62.9734
  0
LINE
  8
0
 10
97.2189
 20
62.9734
 11
97.4058
 21
62.997
  0
LINE
  8
0
 10
97.4058
 20
62.997
 11
97.5942
 21
62.997
  0
LINE
  8
0
 10
97.5942
 20
62.997
 11
97.7811
 21
62.9734
  0
LINE
  8
0
 10
97.7811
 20
62.9734
 11
97.9635
 21
62.9266
  0
LINE
  8
0
 10
97.9635
 20
62.9266
 11
98.1387
 21
62.8572
  0
LINE
  8
0
 10
98.1387
 20
62.8572
 11
98.3037
 21
62.7665
  0
LINE
  8
0
 10
98.3037
 20
62.7665
 11
98.4561
 21
62.6558
  0
LINE
  8
0
 10
98.4561
 20
62.6558
 11
98.5934
 21
62.5268
  0
LINE
  8
0
 10
98.5934
 20
62.5268
 11
98.7135
 21
62.3817
  0
LINE
  8
0
 10
98.7135
 20
62.3817
 11
98.8145
 21
62.2226
  0
LINE
  8
0
 10
98.8145
 20
62.2226
 11
98.8947
 21
62.0522
  0
LINE
  8
0
 10
98.8947
 20
62.0522
 11
98.9529
 21
61.873
  0
LINE
  8
0
 10
98.9529
 20
61.873
 11
98.9882
 21
61.688
  0
LINE
  8
0
 10
98.9882
 20
61.688
 11
99
 21
61.5
  0
LINE
  8
0
 10
99
 20
61.5
 11
98.9882
 21
61.312
  0
LINE
  8
0
 10
98.9882
 20
61.312
 11
98.9529
 21
61.127
  0
LINE
  8
0
 10
98.9529
 20
61.127
 11
98.8947
 21
60.9478
  0
LINE
  8
0
 10
98.8947
 20
60.9478
 11
98.8145
 21
60.7774
  0
LINE
  8
0
 10
98.8145
 20
60.7774
 11
98.7135
 21
60.6183
  0
LINE
  8
0
 10
98.7135
 20
60.6183
 11
98.5934
 21
60.4732
  0
LINE
  8
0
 10
98.5934
 20
60.4732
 11
98.4561
 21
60.3442
  0
LINE
  8
0
 10
98.4561
 20
60.3442
 11
98.3037
 21
60.2335
  0
LINE
  8
0
 10
98.3037
 20
60.2335
 11
98.1387
 21
60.1427
  0
LINE
  8
0
 10
98.1387
 20
60.1427
 11
97.9635
 21
60.0734
  0
LINE
  8
0
 10
97.9635
 20
60.0734
 11
97.7811
 21
60.0266
  0
LINE
  8
0
 10
97.7811
 20
60.0266
 11
97.5942
 21
60.0029
  0
LINE
  8
0
 10
97.5942
 20
60.0029
 11
97.4058
 21
60.0029
  0
LINE
  8
0
 10
-97.5942
 20
60.0029
 11
-97.7811
 21
60.0266
  0
LINE
  8
0
 10
-97.7811
 20
60.0266
 11
-97.9635
 21
60.0734
  0
LINE
  8
0
 10
-97.9635
 20
60.0734
 11
-98.1387
 21
60.1427
  0
LINE
  8
0
 10
-98.1387
 20
60.1427
 11
-98.3037
 21
60.2335
  0
LINE
  8
0
 10
-98.3037
 20
60.2335
 11
-98.4561
 21
60.3442
  0
LINE
  8
0
 10
-98.4561
 20
60.3442
 11
-98.5934
 21
60.4732
  0
LINE
  8
0
 10
-98.5934
 20
60.4732
 11
-98.7135
 21
60.6183
  0
LINE
  8
0
 10
-98.7135
 20
60.6183
 11
-98.8145
 21
60.7774
  0
LINE
  8
0
 10
-98.8145
 20
60.7774
 11
-98.8947
 21
60.9478
  0
LINE
  8
0
 10
-98.8947
 20
60.9478
 11
-98.9529
 21
61.127
  0
LINE
  8
0
 10
-98.9529
 20
61.127
 11
-98.9882
 21
61.312
  0
LINE
  8
0
 10
-98.9882
 20
61.312
 11
-99
 21
61.5
  0
LINE
  8
0
 10
-99
 20
61.5
 11
-98.9882
 21
61.688
  0
LINE
  8
0
 10
-98.9882
 20
61.688
 11
-98.9529
 21
61.873
  0
LINE
  8
0
 10
-98.9529
 20
61.873
 11
-98.8947
 21
62.0522
  0
LINE
  8
0
 10
-98.8947
 20
62.0522
 11
-98.8145
 21
62.2226
  0
LINE
  8
0
 10
-98.8145
 20
62.2226
 11
-98.7135
 21
62.3817
  0
LINE
  8
0
 10
-98.7135
 20
62.3817
 11
-98.5934
 21
62.5268
  0
LINE
  8
0
 10
-98.5934
 20
62.5268
 11
-98.4561
 21
62.6558
  0
LINE
  8
0
 10
-98.4561
 20
62.6558
 11
-98.3037
 21
62.7665
  0
LINE
  8
0
 10
-98.3037
 20
62.7665
 11
-98.1387
 21
62.8572
  0
LINE
  8
0
 10
-98.1387
 20
62.8572
 11
-97.9635
 21
62.9266
  0
LINE
  8
0
 10
-97.9635
 20
62.9266
 11
-97.7811
 21
62.9734
  0
LINE
  8
0
 10
-97.7811
 20
62.9734
 11
-97.5942
 21
62.997
  0
LINE
  8
0
 10
-97.5942
 20
62.997
 11
-97.4058
 21
62.997
  0
LINE
  8
0
 10
-97.4058
 20
62.997
 11
-97.2189
 21
62.9734
  0
LINE
  8
0
 10
-97.2189
 20
62.9734
 11
-97.0365
 21
62.9266
  0
LINE
  8
0
 10
-97.0365
 20
62.9266
 11
-96.8613
 21
62.8572
  0
LINE
  8
0
 10
-96.8613
 20
62.8572
 11
-96.6963
 21
62.7665
  0
LINE
  8
0
 10
-96.6963
 20
62.7665
 11
-96.5439
 21
62.6558
  0
LINE
  8
0
 10
-96.5439
 20
62.6558
 11
-96.4065
 21
62.5268
  0
LINE
  8
0
 10
-96.4065
 20
62.5268
 11
-96.2865
 21
62.3817
  0
LINE
  8
0
 10
-96.2865
 20
62.3817
 11
-96.1855
 21
62.2226
  0
LINE
  8
0
 10
-96.1855
 20
62.2226
 11
-96.1053
 21
62.0522
  0
LINE
  8
0
 10
-96.1053
 20
62.0522
 11
-96.0471
 21
61.873
  0
LINE
  8
0
 10
-96.0471
 20
61.873
 11
-96.0118
 21
61.688
  0
LINE
  8
0
 10
-96.0118
 20
61.688
 11
-96
 21
61.5
  0
LINE
  8
0
 10
-96
 20
61.5
 11
-96.0118
 21
61.312
  0
LINE
  8
0
 10
-96.0118
 20
61.312
 11
-96.0471
 21
61.127
  0
LINE
  8
0
 10
-96.0471
 20
61.127
 11
-96.1053
 21
60.9478
  0
LINE
  8
0
 10
-96.1053
 20
60.9478
 11
-96.1855
 21
60.7774
  0
LINE
  8
0
 10
-96.1855
 20
60.7774
 11
-96.2865
 21
60.6183
  0
LINE
  8
0
 10
-96.2865
 20
60.6183
 11
-96.4065
 21
60.4732
  0
LINE
  8
0
 10
-96.4065
 20
60.4732
 11
-96.5439
 21
60.3442
  0
LINE
  8
0
 10
-96.5439
 20
60.3442
 11
-96.6963
 21
60.2335
  0
LINE
  8
0
 10
-96.6963
 20
60.2335
 11
-96.8613
 21
60.1427
  0
LINE
  8
0
 10
-96.8613
 20
60.1427
 11
-97.0365
 21
60.0734
  0
LINE
  8
0
 10
-97.0365
 20
60.0734
 11
-97.2189
 21
60.0266
  0
LINE
  8
0
 10
-97.2189
 20
60.0266
 11
-97.4058
 21
60.0029
  0
LINE
  8
0
 10
-97.4058
 20
60.0029
 11
-97.5942
 21
60.0029
  0
LINE
  8
0
 10
-97.6884
 20
51.0059
 11
-98.0621
 21
51.0531
  0
LINE
  8
0
 10
-98.0621
 20
51.0531
 11
-98.427
 21
51.1468
  0
LINE
  8
0
 10
-98.427
 20
51.1468
 11
-98.7773
 21
51.2855
  0
LINE
  8
0
 10
-98.7773
 20
51.2855
 11
-99.1075
 21
51.467
  0
LINE
  8
0
 10
-99.1075
 20
51.467
 11
-99.4123
 21
51.6885
  0
LINE
  8
0
 10
-99.4123
 20
51.6885
 11
-99.6869
 21
51.9464
  0
LINE
  8
0
 10
-99.6869
 20
51.9464
 11
-99.927
 21
52.2366
  0
LINE
  8
0
 10
-99.927
 20
52.2366
 11
-100.129
 21
52.5547
  0
LINE
  8
0
 10
-100.129
 20
52.5547
 11
-100.289
 21
52.8956
  0
LINE
  8
0
 10
-100.289
 20
52.8956
 11
-100.406
 21
53.2539
  0
LINE
  8
0
 10
-100.406
 20
53.2539
 11
-100.476
 21
53.624
  0
LINE
  8
0
 10
-100.476
 20
53.624
 11
-100.5
 21
54
  0
LINE
  8
0
 10
-100.5
 20
54
 11
-100.476
 21
54.376
  0
LINE
  8
0
 10
-100.476
 20
54.376
 11
-100.406
 21
54.7461
  0
LINE
  8
0
 10
-100.406
 20
54.7461
 11
-100.289
 21
55.1044
  0
LINE
  8
0
 10
-100.289
 20
55.1044
 11
-100.129
 21
55.4453
  0
LINE
  8
0
 10
-100.129
 20
55.4453
 11
-99.927
 21
55.7634
  0
LINE
  8
0
 10
-99.927
 20
55.7634
 11
-99.6869
 21
56.0536
  0
LINE
  8
0
 10
-99.6869
 20
56.0536
 11
-99.4123
 21
56.3115
  0
LINE
  8
0
 10
-99.4123
 20
56.3115
 11
-99.1075
 21
56.533
  0
LINE
  8
0
 10
-99.1075
 20
56.533
 11
-98.7773
 21
56.7145
  0
LINE
  8
0
 10
-98.7773
 20
56.7145
 11
-98.427
 21
56.8532
  0
LINE
  8
0
 10
-98.427
 20
56.8532
 11
-98.0621
 21
56.9469
  0
LINE
  8
0
 10
-98.0621
 20
56.9469
 11
-97.6884
 21
56.9941
  0
LINE
  8
0
 10
-97.6884
 20
56.9941
 11
-97.3116
 21
56.9941
  0
LINE
  8
0
 10
-97.3116
 20
56.9941
 11
-96.9379
 21
56.9469
  0
LINE
  8
0
 10
-96.9379
 20
56.9469
 11
-96.573
 21
56.8532
  0
LINE
  8
0
 10
-96.573
 20
56.8532
 11
-96.2227
 21
56.7145
  0
LINE
  8
0
 10
-96.2227
 20
56.7145
 11
-95.8925
 21
56.533
  0
LINE
  8
0
 10
-95.8925
 20
56.533
 11
-95.5877
 21
56.3115
  0
LINE
  8
0
 10
-95.5877
 20
56.3115
 11
-95.3131
 21
56.0536
  0
LINE
  8
0
 10
-95.3131
 20
56.0536
 11
-95.073
 21
55.7634
  0
LINE
  8
0
 10
-95.073
 20
55.7634
 11
-94.8711
 21
55.4453
  0
LINE
  8
0
 10
-94.8711
 20
55.4453
 11
-94.7107
 21
55.1044
  0
LINE
  8
0
 10
-94.7107
 20
55.1044
 11
-94.5943
 21
54.7461
  0
LINE
  8
0
 10
-94.5943
 20
54.7461
 11
-94.5237
 21
54.376
  0
LINE
  8
0
 10
-94.5237
 20
54.376
 11
-94.5
 21
54
  0
LINE
  8
0
 10
-94.5
 20
54
 11
-94.5237
 21
53.624
  0
LINE
  8
0
 10
-94.5237
 20
53.624
 11
-94.5943
 21
53.2539
  0
LINE
  8
0
 10
-94.5943
 20
53.2539
 11
-94.7107
 21
52.8956
  0
LINE
  8
0
 10
-94.7107
 20
52.8956
 11
-94.8711
 21
52.5547
  0
LINE
  8
0
 10
-94.8711
 20
52.5547
 11
-95.073
 21
52.2366
  0
LINE
  8
0
 10
-95.073
 20
52.2366
 11
-95.3131
 21
51.9464
  0
LINE
  8
0
 10
-95.3131
 20
51.9464
 11
-95.5877
 21
51.6885
  0
LINE
  8
0
 10
-95.5877
 20
51.6885
 11
-95.8925
 21
51.467
  0
LINE
  8
0
 10
-95.8925
 20
51.467
 11
-96.2227
 21
51.2855
  0
LINE
  8
0
 10
-96.2227
 20
51.2855
 11
-96.573
 21
51.1468
  0
LINE
  8
0
 10
-96.573
 20
51.1468
 11
-96.9379
 21
51.0531
  0
LINE
  8
0
 10
-96.9379
 20
51.0531
 11
-97.3116
 21
51.0059
  0
LINE
  8
0
 10
-97.3116
 20
51.0059
 11
-97.6884
 21
51.0059
  0
LINE
  8
0
 10
97.3116
 20
51.0059
 11
96.9379
 21
51.0531
  0
LINE
  8
0
 10
96.9379
 20
51.0531
 11
96.573
 21
51.1468
  0
LINE
  8
0
 10
96.573
 20
51.1468
 11
96.2227
 21
51.2855
  0
LINE
  8
0
 10
96.2227
 20
51.2855
 11
95.8925
 21
51.467
  0
LINE
  8
0
 10
95.8925
 20
51.467
 11
95.5877
 21
51.6885
  0
LINE
  8
0
 10
95.5877
 20
51.6885
 11
95.3131
 21
51.9464
  0
LINE
  8
0
 10
95.3131
 20
51.9464
 11
95.073
 21
52.2366
  0
LINE
  8
0
 10
95.073
 20
52.2366
 11
94.8711
 21
52.5547
  0
LINE
  8
0
 10
94.8711
 20
52.5547
 11
94.7107
 21
52.8956
  0
LINE
  8
0
 10
94.7107
 20
52.8956
 11
94.5943
 21
53.2539
  0
LINE
  8
0
 10
94.5943
 20
53.2539
 11
94.5237
 21
53.624
  0
LINE
  8
0
 10
94.5237
 20
53.624
 11
94.5
 21
54
  0
LINE
  8
0
 10
94.5
 20
54
 11
94.5237
 21
54.376
  0
LINE
  8
0
 10
94.5237
 20
54.376
 11
94.5943
 21
54.7461
  0
LINE
  8
0
 10
94.5943
 20
54.7461
 11
94.7107
 21
55.1044
  0
LINE
  8
0
 10
94.7107
 20
55.1044
 11
94.8711
 21
55.4453
  0
LINE
  8
0
 10
94.8711
 20
55.4453
 11
95.073
 21
55.7634
  0
LINE
  8
0
 10
95.073
 20
55.7634
 11
95.3131
 21
56.0536
  0
LINE
  8
0
 10
95.3131
 20
56.0536
 11
95.5877
 21
56.3115
  0
LINE
  8
0
 10
95.5877
 20
56.3115
 11
95.8925
 21
56.533
  0
LINE
  8
0
 10
95.8925
 20
56.533
 11
96.2227
 21
56.7145
  0
LINE
  8
0
 10
96.2227
 20
56.7145
 11
96.573
 21
56.8532
  0
LINE
  8
0
 10
96.573
 20
56.8532
 11
96.9379
 21
56.9469
  0
LINE
  8
0
 10
96.9379
 20
56.9469
 11
97.3116
 21
56.9941
  0
LINE
  8
0
 10
97.3116
 20
56.9941
 11
97.6884
 21
56.9941
  0
LINE
  8
0
 10
97.6884
 20
56.9941
 11
98.0621
 21
56.9469
  0
LINE
  8
0
 10
98.0621
 20
56.9469
 11
98.427
 21
56.8532
  0
LINE
  8
0
 10
98.427
 20
56.8532
 11
98.7773
 21
56.7145
  0
LINE
  8
0
 10
98.7773
 20
56.7145
 11
99.1075
 21
56.533
  0
LINE
  8
0
 10
99.1075
 20
56.533
 11
99.4123
 21
56.3115
  0
LINE
  8
0
 10
99.4123
 20
56.3115
 11
99.6869
 21
56.0536
  0
LINE
  8
0
 10
99.6869
 20
56.0536
 11
99.927
 21
55.7634
  0
LINE
  8
0
 10
99.927
 20
55.7634
 11
100.129
 21
55.4453
  0
LINE
  8
0
 10
100.129
 20
55.4453
 11
100.289
 21
55.1044
  0
LINE
  8
0
 10
100.289
 20
55.1044
 11
100.406
 21
54.7461
  0
LINE
  8
0
 10
100.406
 20
54.7461
 11
100.476
 21
54.376
  0
LINE
  8
0
 10
100.476
 20
54.376
 11
100.5
 21
54
  0
LINE
  8
0
 10
100.5
 20
54
 11
100.476
 21
53.624
  0
LINE
  8
0
 10
100.476
 20
53.624
 11
100.406
 21
53.2539
  0
LINE
  8
0
 10
100.406
 20
53.2539
 11
100.289
 21
52.8956
  0
LINE
  8
0
 10
100.289
 20
52.8956
 11
100.129
 21
52.5547
  0
LINE
  8
0
 10
100.129
 20
52.5547
 11
99.927
 21
52.2366
  0
LINE
  8
0
 10
99.927
 20
52.2366
 11
99.6869
 21
51.9464
  0
LINE
  8
0
 10
99.6869
 20
51.9464
 11
99.4123
 21
51.6885
  0
LINE
  8
0
 10
99.4123
 20
51.6885
 11
99.1075
 21
51.467
  0
LINE
  8
0
 10
99.1075
 20
51.467
 11
98.7773
 21
51.2855
  0
LINE
  8
0
 10
98.7773
 20
51.2855
 11
98.427
 21
51.1468
  0
LINE
  8
0
 10
98.427
 20
51.1468
 11
98.0621
 21
51.0531
  0
LINE
  8
0
 10
98.0621
 20
51.0531
 11
97.6884
 21
51.0059
  0
LINE
  8
0
 10
97.6884
 20
51.0059
 11
97.3116
 21
51.0059
  0
LINE
  8
0
 10
-97.5942
 20
45.003
 11
-97.7811
 21
45.0266
  0
LINE
  8
0
 10
-97.7811
 20
45.0266
 11
-97.9635
 21
45.0734
  0
LINE
  8
0
 10
-97.9635
 20
45.0734
 11
-98.1387
 21
45.1428
  0
LINE
  8
0
 10
-98.1387
 20
45.1428
 11
-98.3037
 21
45.2335
  0
LINE
  8
0
 10
-98.3037
 20
45.2335
 11
-98.4561
 21
45.3442
  0
LINE
  8
0
 10
-98.4561
 20
45.3442
 11
-98.5934
 21
45.4732
  0
LINE
  8
0
 10
-98.5934
 20
45.4732
 11
-98.7135
 21
45.6183
  0
LINE
  8
0
 10
-98.7135
 20
45.6183
 11
-98.8145
 21
45.7774
  0
LINE
  8
0
 10
-98.8145
 20
45.7774
 11
-98.8947
 21
45.9478
  0
LINE
  8
0
 10
-98.8947
 20
45.9478
 11
-98.9529
 21
46.127
  0
LINE
  8
0
 10
-98.9529
 20
46.127
 11
-98.9882
 21
46.312
  0
LINE
  8
0
 10
-98.9882
 20
46.312
 11
-99
 21
46.5
  0
LINE
  8
0
 10
-99
 20
46.5
 11
-98.9882
 21
46.688
  0
LINE
  8
0
 10
-98.9882
 20
46.688
 11
-98.9529
 21
46.873
  0
LINE
  8
0
 10
-98.9529
 20
46.873
 11
-98.8947
 21
47.0522
  0
LINE
  8
0
 10
-98.8947
 20
47.0522
 11
-98.8145
 21
47.2226
  0
LINE
  8
0
 10
-98.8145
 20
47.2226
 11
-98.7135
 21
47.3817
  0
LINE
  8
0
 10
-98.7135
 20
47.3817
 11
-98.5934
 21
47.5268
  0
LINE
  8
0
 10
-98.5934
 20
47.5268
 11
-98.4561
 21
47.6558
  0
LINE
  8
0
 10
-98.4561
 20
47.6558
 11
-98.3037
 21
47.7665
  0
LINE
  8
0
 10
-98.3037
 20
47.7665
 11
-98.1387
 21
47.8573
  0
LINE
  8
0
 10
-98.1387
 20
47.8573
 11
-97.9635
 21
47.9266
  0
LINE
  8
0
 10
-97.9635
 20
47.9266
 11
-97.7811
 21
47.9734
  0
LINE
  8
0
 10
-97.7811
 20
47.9734
 11
-97.5942
 21
47.9971
  0
LINE
  8
0
 10
-97.5942
 20
47.9971
 11
-97.4058
 21
47.9971
  0
LINE
  8
0
 10
-97.4058
 20
47.9971
 11
-97.2189
 21
47.9734
  0
LINE
  8
0
 10
-97.2189
 20
47.9734
 11
-97.0365
 21
47.9266
  0
LINE
  8
0
 10
-97.0365
 20
47.9266
 11
-96.8613
 21
47.8573
  0
LINE
  8
0
 10
-96.8613
 20
47.8573
 11
-96.6963
 21
47.7665
  0
LINE
  8
0
 10
-96.6963
 20
47.7665
 11
-96.5439
 21
47.6558
  0
LINE
  8
0
 10
-96.5439
 20
47.6558
 11
-96.4065
 21
47.5268
  0
LINE
  8
0
 10
-96.4065
 20
47.5268
 11
-96.2865
 21
47.3817
  0
LINE
  8
0
 10
-96.2865
 20
47.3817
 11
-96.1855
 21
47.2226
  0
LINE
  8
0
 10
-96.1855
 20
47.2226
 11
-96.1053
 21
47.0522
  0
LINE
  8
0
 10
-96.1053
 20
47.0522
 11
-96.0471
 21
46.873
  0
LINE
  8
0
 10
-96.0471
 20
46.873
 11
-96.0118
 21
46.688
  0
LINE
  8
0
 10
-96.0118
 20
46.688
 11
-96
 21
46.5
  0
LINE
  8
0
 10
-96
 20
46.5
 11
-96.0118
 21
46.312
  0
LINE
  8
0
 10
-96.0118
 20
46.312
 11
-96.0471
 21
46.127
  0
LINE
  8
0
 10
-96.0471
 20
46.127
 11
-96.1053
 21
45.9478
  0
LINE
  8
0
 10
-96.1053
 20
45.9478
 11
-96.1855
 21
45.7774
  0
LINE
  8
0
 10
-96.1855
 20
45.7774
 11
-96.2865
 21
45.6183
  0
LINE
  8
0
 10
-96.2865
 20
45.6183
 11
-96.4065
 21
45.4732
  0
LINE
  8
0
 10
-96.4065
 20
45.4732
 11
-96.5439
 21
45.3442
  0
LINE
  8
0
 10
-96.5439
 20
45.3442
 11
-96.6963
 21
45.2335
  0
LINE
  8
0
 10
-96.6963
 20
45.2335
 11
-96.8613
 21
45.1428
  0
LINE
  8
0
 10
-96.8613
 20
45.1428
 11
-97.0365
 21
45.0734
  0
LINE
  8
0
 10
-97.0365
 20
45.0734
 11
-97.2189
 21
45.0266
  0
LINE
  8
0
 10
-97.2189
 20
45.0266
 11
-97.4058
 21
45.003
  0
LINE
  8
0
 10
-97.4058
 20
45.003
 11
-97.5942
 21
45.003
  0
LINE
  8
0
 10
97.4058
 20
45.003
 11
97.2189
 21
45.0266
  0
LINE
  8
0
 10
97.2189
 20
45.0266
 11
97.0365
 21
45.0734
  0
LINE
  8
0
 10
97.0365
 20
45.0734
 11
96.8613
 21
45.1428
  0
LINE
  8
0
 10
96.8613
 20
45.1428
 11
96.6963
 21
45.2335
  0
LINE
  8
0
 10
96.6963
 20
45.2335
 11
96.5439
 21
45.3442
  0
LINE
  8
0
 10
96.5439
 20
45.3442
 11
96.4065
 21
45.4732
  0
LINE
  8
0
 10
96.4065
 20
45.4732
 11
96.2865
 21
45.6183
  0
LINE
  8
0
 10
96.2865
 20
45.6183
 11
96.1855
 21
45.7774
  0
LINE
  8
0
 10
96.1855
 20
45.7774
 11
96.1053
 21
45.9478
  0
LINE
  8
0
 10
96.1053
 20
45.9478
 11
96.0471
 21
46.127
  0
LINE
  8
0
 10
96.0471
 20
46.127
 11
96.0118
 21
46.312
  0
LINE
  8
0
 10
96.0118
 20
46.312
 11
96
 21
46.5
  0
LINE
  8
0
 10
96
 20
46.5
 11
96.0118
 21
46.688
  0
LINE
  8
0
 10
96.0118
 20
46.688
 11
96.0471
 21
46.873
  0
LINE
  8
0
 10
96.0471
 20
46.873
 11
96.1053
 21
47.0522
  0
LINE
  8
0
 10
96.1053
 20
47.0522
 11
96.1855
 21
47.2226
  0
LINE
  8
0
 10
96.1855
 20
47.2226
 11
96.2865
 21
47.3817
  0
LINE
  8
0
 10
96.2865
 20
47.3817
 11
96.4065
 21
47.5268
  0
LINE
  8
0
 10
96.4065
 20
47.5268
 11
96.5439
 21
47.6558
  0
LINE
  8
0
 10
96.5439
 20
47.6558
 11
96.6963
 21
47.7665
  0
LINE
  8
0
 10
96.6963
 20
47.7665
 11
96.8613
 21
47.8573
  0
LINE
  8
0
 10
96.8613
 20
47.8573
 11
97.0365
 21
47.9266
  0
LINE
  8
0
 10
97.0365
 20
47.9266
 11
97.2189
 21
47.9734
  0
LINE
  8
0
 10
97.2189
 20
47.9734
 11
97.4058
 21
47.9971
  0
LINE
  8
0
 10
97.4058
 20
47.9971
 11
97.5942
 21
47.9971
  0
LINE
  8
0
 10
97.5942
 20
47.9971
 11
97.7811
 21
47.9734
  0
LINE
  8
0
 10
97.7811
 20
47.9734
 11
97.9635
 21
47.9266
  0
LINE
  8
0
 10
97.9635
 20
47.9266
 11
98.1387
 21
47.8573
  0
LINE
  8
0
 10
98.1387
 20
47.8573
 11
98.3037
 21
47.7665
  0
LINE
  8
0
 10
98.3037
 20
47.7665
 11
98.4561
 21
47.6558
  0
LINE
  8
0
 10
98.4561
 20
47.6558
 11
98.5934
 21
47.5268
  0
LINE
  8
0
 10
98.5934
 20
47.5268
 11
98.7135
 21
47.3817
  0
LINE
  8
0
 10
98.7135
 20
47.3817
 11
98.8145
 21
47.2226
  0
LINE
  8
0
 10
98.8145
 20
47.2226
 11
98.8947
 21
47.0522
  0
LINE
  8
0
 10
98.8947
 20
47.0522
 11
98.9529
 21
46.873
  0
LINE
  8
0
 10
98.9529
 20
46.873
 11
98.9882
 21
46.688
  0
LINE
  8
0
 10
98.9882
 20
46.688
 11
99
 21
46.5
  0
LINE
  8
0
 10
99
 20
46.5
 11
98.9882
 21
46.312
  0
LINE
  8
0
 10
98.9882
 20
46.312
 11
98.9529
 21
46.127
  0
LINE
  8
0
 10
98.9529
 20
46.127
 11
98.8947
 21
45.9478
  0
LINE
  8
0
 10
98.8947
 20
45.9478
 11
98.8145
 21
45.7774
  0
LINE
  8
0
 10
98.8145
 20
45.7774
 11
98.7135
 21
45.6183
  0
LINE
  8
0
 10
98.7135
 20
45.6183
 11
98.5934
 21
45.4732
  0
LINE
  8
0
 10
98.5934
 20
45.4732
 11
98.4561
 21
45.3442
  0
LINE
  8
0
 10
98.4561
 20
45.3442
 11
98.3037
 21
45.2335
  0
LINE
  8
0
 10
98.3037
 20
45.2335
 11
98.1387
 21
45.1428
  0
LINE
  8
0
 10
98.1387
 20
45.1428
 11
97.9635
 21
45.0734
  0
LINE
  8
0
 10
97.9635
 20
45.0734
 11
97.7811
 21
45.0266
  0
LINE
  8
0
 10
97.7811
 20
45.0266
 11
97.5942
 21
45.003
  0
LINE
  8
0
 10
97.5942
 20
45.003
 11
97.4058
 21
45.003
  0
LINE
  8
0
 10
97.3116
 20
36.0059
 11
96.9379
 21
36.0531
  0
LINE
  8
0
 10
96.9379
 20
36.0531
 11
96.573
 21
36.1468
  0
LINE
  8
0
 10
96.573
 20
36.1468
 11
96.2227
 21
36.2855
  0
LINE
  8
0
 10
96.2227
 20
36.2855
 11
95.8925
 21
36.467
  0
LINE
  8
0
 10
95.8925
 20
36.467
 11
95.5877
 21
36.6885
  0
LINE
  8
0
 10
95.5877
 20
36.6885
 11
95.3131
 21
36.9464
  0
LINE
  8
0
 10
95.3131
 20
36.9464
 11
95.073
 21
37.2366
  0
LINE
  8
0
 10
95.073
 20
37.2366
 11
94.8711
 21
37.5547
  0
LINE
  8
0
 10
94.8711
 20
37.5547
 11
94.7107
 21
37.8956
  0
LINE
  8
0
 10
94.7107
 20
37.8956
 11
94.5943
 21
38.2539
  0
LINE
  8
0
 10
94.5943
 20
38.2539
 11
94.5237
 21
38.624
  0
LINE
  8
0
 10
94.5237
 20
38.624
 11
94.5
 21
39
  0
LINE
  8
0
 10
94.5
 20
39
 11
94.5237
 21
39.376
  0
LINE
  8
0
 10
94.5237
 20
39.376
 11
94.5943
 21
39.7461
  0
LINE
  8
0
 10
94.5943
 20
39.7461
 11
94.7107
 21
40.1044
  0
LINE
  8
0
 10
94.7107
 20
40.1044
 11
94.8711
 21
40.4453
  0
LINE
  8
0
 10
94.8711
 20
40.4453
 11
95.073
 21
40.7634
  0
LINE
  8
0
 10
95.073
 20
40.7634
 11
95.3131
 21
41.0536
  0
LINE
  8
0
 10
95.3131
 20
41.0536
 11
95.5877
 21
41.3116
  0
LINE
  8
0
 10
95.5877
 20
41.3116
 11
95.8925
 21
41.533
  0
LINE
  8
0
 10
95.8925
 20
41.533
 11
96.2227
 21
41.7145
  0
LINE
  8
0
 10
96.2227
 20
41.7145
 11
96.573
 21
41.8532
  0
LINE
  8
0
 10
96.573
 20
41.8532
 11
96.9379
 21
41.9469
  0
LINE
  8
0
 10
96.9379
 20
41.9469
 11
97.3116
 21
41.9941
  0
LINE
  8
0
 10
97.3116
 20
41.9941
 11
97.6884
 21
41.9941
  0
LINE
  8
0
 10
97.6884
 20
41.9941
 11
98.0621
 21
41.9469
  0
LINE
  8
0
 10
98.0621
 20
41.9469
 11
98.427
 21
41.8532
  0
LINE
  8
0
 10
98.427
 20
41.8532
 11
98.7773
 21
41.7145
  0
LINE
  8
0
 10
98.7773
 20
41.7145
 11
99.1075
 21
41.533
  0
LINE
  8
0
 10
99.1075
 20
41.533
 11
99.4123
 21
41.3116
  0
LINE
  8
0
 10
99.4123
 20
41.3116
 11
99.6869
 21
41.0536
  0
LINE
  8
0
 10
99.6869
 20
41.0536
 11
99.927
 21
40.7634
  0
LINE
  8
0
 10
99.927
 20
40.7634
 11
100.129
 21
40.4453
  0
LINE
  8
0
 10
100.129
 20
40.4453
 11
100.289
 21
40.1044
  0
LINE
  8
0
 10
100.289
 20
40.1044
 11
100.406
 21
39.7461
  0
LINE
  8
0
 10
100.406
 20
39.7461
 11
100.476
 21
39.376
  0
LINE
  8
0
 10
100.476
 20
39.376
 11
100.5
 21
39
  0
LINE
  8
0
 10
100.5
 20
39
 11
100.476
 21
38.624
  0
LINE
  8
0
 10
100.476
 20
38.624
 11
100.406
 21
38.2539
  0
LINE
  8
0
 10
100.406
 20
38.2539
 11
100.289
 21
37.8956
  0
LINE
  8
0
 10
100.289
 20
37.8956
 11
100.129
 21
37.5547
  0
LINE
  8
0
 10
100.129
 20
37.5547
 11
99.927
 21
37.2366
  0
LINE
  8
0
 10
99.927
 20
37.2366
 11
99.6869
 21
36.9464
  0
LINE
  8
0
 10
99.6869
 20
36.9464
 11
99.4123
 21
36.6885
  0
LINE
  8
0
 10
99.4123
 20
36.6885
 11
99.1075
 21
36.467
  0
LINE
  8
0
 10
99.1075
 20
36.467
 11
98.7773
 21
36.2855
  0
LINE
  8
0
 10
98.7773
 20
36.2855
 11
98.427
 21
36.1468
  0
LINE
  8
0
 10
98.427
 20
36.1468
 11
98.0621
 21
36.0531
  0
LINE
  8
0
 10
98.0621
 20
36.0531
 11
97.6884
 21
36.0059
  0
LINE
  8
0
 10
97.6884
 20
36.0059
 11
97.3116
 21
36.0059
  0
LINE
  8
0
 10
-97.6884
 20
36.0059
 11
-98.0621
 21
36.0531
  0
LINE
  8
0
 10
-98.0621
 20
36.0531
 11
-98.427
 21
36.1468
  0
LINE
  8
0
 10
-98.427
 20
36.1468
 11
-98.7773
 21
36.2855
  0
LINE
  8
0
 10
-98.7773
 20
36.2855
 11
-99.1075
 21
36.467
  0
LINE
  8
0
 10
-99.1075
 20
36.467
 11
-99.4123
 21
36.6885
  0
LINE
  8
0
 10
-99.4123
 20
36.6885
 11
-99.6869
 21
36.9464
  0
LINE
  8
0
 10
-99.6869
 20
36.9464
 11
-99.927
 21
37.2366
  0
LINE
  8
0
 10
-99.927
 20
37.2366
 11
-100.129
 21
37.5547
  0
LINE
  8
0
 10
-100.129
 20
37.5547
 11
-100.289
 21
37.8956
  0
LINE
  8
0
 10
-100.289
 20
37.8956
 11
-100.406
 21
38.2539
  0
LINE
  8
0
 10
-100.406
 20
38.2539
 11
-100.476
 21
38.624
  0
LINE
  8
0
 10
-100.476
 20
38.624
 11
-100.5
 21
39
  0
LINE
  8
0
 10
-100.5
 20
39
 11
-100.476
 21
39.376
  0
LINE
  8
0
 10
-100.476
 20
39.376
 11
-100.406
 21
39.7461
  0
LINE
  8
0
 10
-100.406
 20
39.7461
 11
-100.289
 21
40.1044
  0
LINE
  8
0
 10
-100.289
 20
40.1044
 11
-100.129
 21
40.4453
  0
LINE
  8
0
 10
-100.129
 20
40.4453
 11
-99.927
 21
40.7634
  0
LINE
  8
0
 10
-99.927
 20
40.7634
 11
-99.6869
 21
41.0536
  0
LINE
  8
0
 10
-99.6869
 20
41.0536
 11
-99.4123
 21
41.3116
  0
LINE
  8
0
 10
-99.4123
 20
41.3116
 11
-99.1075
 21
41.533
  0
LINE
  8
0
 10
-99.1075
 20
41.533
 11
-98.7773
 21
41.7145
  0
LINE
  8
0
 10
-98.7773
 20
41.7145
 11
-98.427
 21
41.8532
  0
LINE
  8
0
 10
-98.427
 20
41.8532
 11
-98.0621
 21
41.9469
  0
LINE
  8
0
 10
-98.0621
 20
41.9469
 11
-97.6884
 21
41.9941
  0
LINE
  8
0
 10
-97.6884
 20
41.9941
 11
-97.3116
 21
41.9941
  0
LINE
  8
0
 10
-97.3116
 20
41.9941
 11
-96.9379
 21
41.9469
  0
LINE
  8
0
 10
-96.9379
 20
41.9469
 11
-96.573
 21
41.8532
  0
LINE
  8
0
 10
-96.573
 20
41.8532
 11
-96.2227
 21
41.7145
  0
LINE
  8
0
 10
-96.2227
 20
41.7145
 11
-95.8925
 21
41.533
  0
LINE
  8
0
 10
-95.8925
 20
41.533
 11
-95.5877
 21
41.3116
  0
LINE
  8
0
 10
-95.5877
 20
41.3116
 11
-95.3131
 21
41.0536
  0
LINE
  8
0
 10
-95.3131
 20
41.0536
 11
-95.073
 21
40.7634
  0
LINE
  8
0
 10
-95.073
 20
40.7634
 11
-94.8711
 21
40.4453
  0
LINE
  8
0
 10
-94.8711
 20
40.4453
 11
-94.7107
 21
40.1044
  0
LINE
  8
0
 10
-94.7107
 20
40.1044
 11
-94.5943
 21
39.7461
  0
LINE
  8
0
 10
-94.5943
 20
39.7461
 11
-94.5237
 21
39.376
  0
LINE
  8
0
 10
-94.5237
 20
39.376
 11
-94.5
 21
39
  0
LINE
  8
0
 10
-94.5
 20
39
 11
-94.5237
 21
38.624
  0
LINE
  8
0
 10
-94.5237
 20
38.624
 11
-94.5943
 21
38.2539
  0
LINE
  8
0
 10
-94.5943
 20
38.2539
 11
-94.7107
 21
37.8956
  0
LINE
  8
0
 10
-94.7107
 20
37.8956
 11
-94.8711
 21
37.5547
  0
LINE
  8
0
 10
-94.8711
 20
37.5547
 11
-95.073
 21
37.2366
  0
LINE
  8
0
 10
-95.073
 20
37.2366
 11
-95.3131
 21
36.9464
  0
LINE
  8
0
 10
-95.3131
 20
36.9464
 11
-95.5877
 21
36.6885
  0
LINE
  8
0
 10
-95.5877
 20
36.6885
 11
-95.8925
 21
36.467
  0
LINE
  8
0
 10
-95.8925
 20
36.467
 11
-96.2227
 21
36.2855
  0
LINE
  8
0
 10
-96.2227
 20
36.2855
 11
-96.573
 21
36.1468
  0
LINE
  8
0
 10
-96.573
 20
36.1468
 11
-96.9379
 21
36.0531
  0
LINE
  8
0
 10
-96.9379
 20
36.0531
 11
-97.3116
 21
36.0059
  0
LINE
  8
0
 10
-97.3116
 20
36.0059
 11
-97.6884
 21
36.0059
  0
ENDSEC
  0
SECTION
  2
OBJECTS
  0
DICTIONARY
  0
ENDSEC
  0
EOF
