<?xml version="1.0" standalone="no"?>
<!DOCTYPE svg PUBLIC "-//W3C//DTD SVG 1.1//EN" "http://www.w3.org/Graphics/SVG/1.1/DTD/svg11.dtd">
<svg width="464mm" height="104mm" viewBox="-232 -52 464 104" xmlns="http://www.w3.org/2000/svg" version="1.1">
<title>OpenSCAD Model</title>
<path d="
M 227.937,51.9114 L 228.545,51.7553 L 229.129,51.5241 L 229.679,51.2216 L 230.187,50.8526 L 230.645,50.4227
 L 231.045,49.9389 L 231.382,49.4088 L 231.649,48.8406 L 231.843,48.2434 L 231.961,47.6267 L 232,47
 L 232,-47 L 231.961,-47.6267 L 231.843,-48.2434 L 231.649,-48.8406 L 231.382,-49.4088 L 231.045,-49.9389
 L 230.645,-50.4227 L 230.187,-50.8526 L 229.679,-51.2216 L 229.129,-51.5241 L 228.545,-51.7553 L 227.937,-51.9114
 L 227.314,-51.9901 L -227.314,-51.9901 L -227.937,-51.9114 L -228.545,-51.7553 L -229.129,-51.5241 L -229.679,-51.2216
 L -230.187,-50.8526 L -230.645,-50.4227 L -231.045,-49.9389 L -231.382,-49.4088 L -231.649,-48.8406 L -231.843,-48.2434
 L -231.961,-47.6267 L -232,-47 L -232,47 L -231.961,47.6267 L -231.843,48.2434 L -231.649,48.8406
 L -231.382,49.4088 L -231.045,49.9389 L -230.645,50.4227 L -230.187,50.8526 L -229.679,51.2216 L -229.129,51.5241
 L -228.545,51.7553 L -227.937,51.9114 L -227.314,51.9901 L 227.314,51.9901 z
M -225.188,-42.0059 L -225.562,-42.0531 L -225.927,-42.1468 L -226.277,-42.2855 L -226.607,-42.467 L -226.912,-42.6885
 L -227.187,-42.9464 L -227.427,-43.2366 L -227.629,-43.5547 L -227.789,-43.8956 L -227.906,-44.2539 L -227.976,-44.624
 L -228,-45 L -227.976,-45.376 L -227.906,-45.7461 L -227.789,-46.1044 L -227.629,-46.4453 L -227.427,-46.7634
 L -227.187,-47.0536 L -226.912,-47.3115 L -226.607,-47.533 L -226.277,-47.7145 L -225.927,-47.8532 L -225.562,-47.9469
 L -225.188,-47.9941 L -224.812,-47.9941 L -224.438,-47.9469 L -224.073,-47.8532 L -223.723,-47.7145 L -223.393,-47.533
 L -223.088,-47.3115 L -222.813,-47.0536 L -222.573,-46.7634 L -222.371,-46.4453 L -222.211,-46.1044 L -222.094,-45.7461
 L -222.024,-45.376 L -222,-45 L -222.024,-44.624 L -222.094,-44.2539 L -222.211,-43.8956 L -222.371,-43.5547
 L -222.573,-43.2366 L -222.813,-42.9464 L -223.088,-42.6885 L -223.393,-42.467 L -223.723,-42.2855 L -224.073,-42.1468
 L -224.438,-42.0531 L -224.812,-42.0059 z
M 224.812,-42.0059 L 224.438,-42.0531 L 224.073,-42.1468 L 223.723,-42.2855 L 223.393,-42.467 L 223.088,-42.6885
 L 222.813,-42.9464 L 222.573,-43.2366 L 222.371,-43.5547 L 222.211,-43.8956 L 222.094,-44.2539 L 222.024,-44.624
 L 222,-45 L 222.024,-45.376 L 222.094,-45.7461 L 222.211,-46.1044 L 222.371,-46.4453 L 222.573,-46.7634
 L 222.813,-47.0536 L 223.088,-47.3115 L 223.393,-47.533 L 223.723,-47.7145 L 224.073,-47.8532 L 224.438,-47.9469
 L 224.812,-47.9941 L 225.188,-47.9941 L 225.562,-47.9469 L 225.927,-47.8532 L 226.277,-47.7145 L 226.607,-47.533
 L 226.912,-47.3115 L 227.187,-47.0536 L 227.427,-46.7634 L 227.629,-46.4453 L 227.789,-46.1044 L 227.906,-45.7461
 L 227.976,-45.376 L 228,-45 L 227.976,-44.624 L 227.906,-44.2539 L 227.789,-43.8956 L 227.629,-43.5547
 L 227.427,-43.2366 L 227.187,-42.9464 L 226.912,-42.6885 L 226.607,-42.467 L 226.277,-42.2855 L 225.927,-42.1468
 L 225.562,-42.0531 L 225.188,-42.0059 z
M 177.331,42.4161 L 172.036,41.7472 L 166.867,40.4199 L 161.904,38.4551 L 157.227,35.8839 L 152.909,32.7468
 L 149.019,29.0932 L 145.617,24.9809 L 142.757,20.4745 L 140.484,15.6453 L 138.835,10.5693 L 137.835,5.32666
 L 137.5,-0 L 137.835,-5.32666 L 138.835,-10.5693 L 140.484,-15.6453 L 142.757,-20.4745 L 145.617,-24.9809
 L 149.019,-29.0932 L 152.909,-32.7468 L 157.227,-35.8839 L 161.904,-38.4551 L 166.867,-40.4199 L 172.036,-41.7472
 L 177.331,-42.4161 L 182.669,-42.4161 L 187.964,-41.7472 L 193.133,-40.4199 L 198.096,-38.4551 L 202.773,-35.8839
 L 207.091,-32.7468 L 210.981,-29.0932 L 214.383,-24.9809 L 217.243,-20.4745 L 219.516,-15.6453 L 221.165,-10.5693
 L 222.165,-5.32666 L 222.5,-0 L 222.165,5.32666 L 221.165,10.5693 L 219.516,15.6453 L 217.243,20.4745
 L 214.383,24.9809 L 210.981,29.0932 L 207.091,32.7468 L 202.773,35.8839 L 198.096,38.4551 L 193.133,40.4199
 L 187.964,41.7472 L 182.669,42.4161 z
M 87.3314,42.4161 L 82.0363,41.7472 L 76.8668,40.4199 L 71.9044,38.4551 L 67.2274,35.8839 L 62.9095,32.7468
 L 59.0188,29.0932 L 55.6168,24.9809 L 52.757,20.4745 L 50.4845,15.6453 L 48.8352,10.5693 L 47.8351,5.32666
 L 47.5,-0 L 47.8351,-5.32666 L 48.8352,-10.5693 L 50.4845,-15.6453 L 52.757,-20.4745 L 55.6168,-24.9809
 L 59.0188,-29.0932 L 62.9095,-32.7468 L 67.2274,-35.8839 L 71.9044,-38.4551 L 76.8668,-40.4199 L 82.0363,-41.7472
 L 87.3314,-42.4161 L 92.6686,-42.4161 L 97.9637,-41.7472 L 103.133,-40.4199 L 108.096,-38.4551 L 112.773,-35.8839
 L 117.091,-32.7468 L 120.981,-29.0932 L 124.383,-24.9809 L 127.243,-20.4745 L 129.516,-15.6453 L 131.165,-10.5693
 L 132.165,-5.32666 L 132.5,-0 L 132.165,5.32666 L 131.165,10.5693 L 129.516,15.6453 L 127.243,20.4745
 L 124.383,24.9809 L 120.981,29.0932 L 117.091,32.7468 L 112.773,35.8839 L 108.096,38.4551 L 103.133,40.4199
 L 97.9637,41.7472 L 92.6686,42.4161 z
M -2.66859,42.4161 L -7.9637,41.7472 L -13.1332,40.4199 L -18.0956,38.4551 L -22.7726,35.8839 L -27.0905,32.7468
 L -30.9812,29.0932 L -34.3832,24.9809 L -37.243,20.4745 L -39.5155,15.6453 L -41.1648,10.5693 L -42.1649,5.32666
 L -42.5,-0 L -42.1649,-5.32666 L -41.1648,-10.5693 L -39.5155,-15.6453 L -37.243,-20.4745 L -34.3832,-24.9809
 L -30.9812,-29.0932 L -27.0905,-32.7468 L -22.7726,-35.8839 L -18.0956,-38.4551 L -13.1332,-40.4199 L -7.9637,-41.7472
 L -2.66859,-42.4161 L 2.66859,-42.4161 L 7.9637,-41.7472 L 13.1332,-40.4199 L 18.0956,-38.4551 L 22.7726,-35.8839
 L 27.0905,-32.7468 L 30.9812,-29.0932 L 34.3832,-24.9809 L 37.243,-20.4745 L 39.5155,-15.6453 L 41.1648,-10.5693
 L 42.1649,-5.32666 L 42.5,-0 L 42.1649,5.32666 L 41.1648,10.5693 L 39.5155,15.6453 L 37.243,20.4745
 L 34.3832,24.9809 L 30.9812,29.0932 L 27.0905,32.7468 L 22.7726,35.8839 L 18.0956,38.4551 L 13.1332,40.4199
 L 7.9637,41.7472 L 2.66859,42.4161 z
M -92.6686,42.4161 L -97.9637,41.7472 L -103.133,40.4199 L -108.096,38.4551 L -112.773,35.8839 L -117.091,32.7468
 L -120.981,29.0932 L -124.383,24.9809 L -127.243,20.4745 L -129.516,15.6453 L -131.165,10.5693 L -132.165,5.32666
 L -132.5,-0 L -132.165,-5.32666 L -131.165,-10.5693 L -129.516,-15.6453 L -127.243,-20.4745 L -124.383,-24.9809
 L -120.981,-29.0932 L -117.091,-32.7468 L -112.773,-35.8839 L -108.096,-38.4551 L -103.133,-40.4199 L -97.9637,-41.7472
 L -92.6686,-42.4161 L -87.3314,-42.4161 L -82.0363,-41.7472 L -76.8668,-40.4199 L -71.9044,-38.4551 L -67.2274,-35.8839
 L -62.9095,-32.7468 L -59.0188,-29.0932 L -55.6168,-24.9809 L -52.757,-20.4745 L -50.4845,-15.6453 L -48.8352,-10.5693
 L -47.8351,-5.32666 L -47.5,-0 L -47.8351,5.32666 L -48.8352,10.5693 L -50.4845,15.6453 L -52.757,20.4745
 L -55.6168,24.9809 L -59.0188,29.0932 L -62.9095,32.7468 L -67.2274,35.8839 L -71.9044,38.4551 L -76.8668,40.4199
 L -82.0363,41.7472 L -87.3314,42.4161 z
M -182.669,42.4161 L -187.964,41.7472 L -193.133,40.4199 L -198.096,38.4551 L -202.773,35.8839 L -207.091,32.7468
 L -210.981,29.0932 L -214.383,24.9809 L -217.243,20.4745 L -219.516,15.6453 L -221.165,10.5693 L -222.165,5.32666
 L -222.5,-0 L -222.165,-5.32666 L -221.165,-10.5693 L -219.516,-15.6453 L -217.243,-20.4745 L -214.383,-24.9809
 L -210.981,-29.0932 L -207.091,-32.7468 L -202.773,-35.8839 L -198.096,-38.4551 L -193.133,-40.4199 L -187.964,-41.7472
 L -182.669,-42.4161 L -177.331,-42.4161 L -172.036,-41.7472 L -166.867,-40.4199 L -161.904,-38.4551 L -157.227,-35.8839
 L -152.909,-32.7468 L -149.019,-29.0932 L -145.617,-24.9809 L -142.757,-20.4745 L -140.484,-15.6453 L -138.835,-10.5693
 L -137.835,-5.32666 L -137.5,-0 L -137.835,5.32666 L -138.835,10.5693 L -140.484,15.6453 L -142.757,20.4745
 L -145.617,24.9809 L -149.019,29.0932 L -152.909,32.7468 L -157.227,35.8839 L -161.904,38.4551 L -166.867,40.4199
 L -172.036,41.7472 L -177.331,42.4161 z
M -225.188,47.9941 L -225.562,47.9469 L -225.927,47.8532 L -226.277,47.7145 L -226.607,47.533 L -226.912,47.3115
 L -227.187,47.0536 L -227.427,46.7634 L -227.629,46.4453 L -227.789,46.1044 L -227.906,45.7461 L -227.976,45.376
 L -228,45 L -227.976,44.624 L -227.906,44.2539 L -227.789,43.8956 L -227.629,43.5547 L -227.427,43.2366
 L -227.187,42.9464 L -226.912,42.6885 L -226.607,42.467 L -226.277,42.2855 L -225.927,42.1468 L -225.562,42.0531
 L -225.188,42.0059 L -224.812,42.0059 L -224.438,42.0531 L -224.073,42.1468 L -223.723,42.2855 L -223.393,42.467
 L -223.088,42.6885 L -222.813,42.9464 L -222.573,43.2366 L -222.371,43.5547 L -222.211,43.8956 L -222.094,44.2539
 L -222.024,44.624 L -222,45 L -222.024,45.376 L -222.094,45.7461 L -222.211,46.1044 L -222.371,46.4453
 L -222.573,46.7634 L -222.813,47.0536 L -223.088,47.3115 L -223.393,47.533 L -223.723,47.7145 L -224.073,47.8532
 L -224.438,47.9469 L -224.812,47.9941 z
M 224.812,47.9941 L 224.438,47.9469 L 224.073,47.8532 L 223.723,47.7145 L 223.393,47.533 L 223.088,47.3115
 L 222.813,47.0536 L 222.573,46.7634 L 222.371,46.4453 L 222.211,46.1044 L 222.094,45.7461 L 222.024,45.376
 L 222,45 L 222.024,44.624 L 222.094,44.2539 L 222.211,43.8956 L 222.371,43.5547 L 222.573,43.2366
 L 222.813,42.9464 L 223.088,42.6885 L 223.393,42.467 L 223.723,42.2855 L 224.073,42.1468 L 224.438,42.0531
 L 224.812,42.0059 L 225.188,42.0059 L 225.562,42.0531 L 225.927,42.1468 L 226.277,42.2855 L 226.607,42.467
 L 226.912,42.6885 L 227.187,42.9464 L 227.427,43.2366 L 227.629,43.5547 L 227.789,43.8956 L 227.906,44.2539
 L 227.976,44.624 L 228,45 L 227.976,45.376 L 227.906,45.7461 L 227.789,46.1044 L 227.629,46.4453
 L 227.427,46.7634 L 227.187,47.0536 L 226.912,47.3115 L 226.607,47.533 L 226.277,47.7145 L 225.927,47.8532
 L 225.562,47.9469 L 225.188,47.9941 z
" stroke="black" fill="lightgray" stroke-width="0.5"/>
</svg>
