  0
SECTION
  2
BLOCKS
  0
ENDSEC
  0
SECTION
  2
ENTITIES
  0
LINE
  8
0
 10
25.4369
 20
17.0886
 11
26.0451
 21
17.2447
  0
LINE
  8
0
 10
26.0451
 20
17.2447
 11
26.6289
 21
17.4759
  0
LINE
  8
0
 10
26.6289
 20
17.4759
 11
27.1791
 21
17.7784
  0
LINE
  8
0
 10
27.1791
 20
17.7784
 11
27.6871
 21
18.1474
  0
LINE
  8
0
 10
27.6871
 20
18.1474
 11
28.1448
 21
18.5773
  0
LINE
  8
0
 10
28.1448
 20
18.5773
 11
28.5451
 21
19.0611
  0
LINE
  8
0
 10
28.5451
 20
19.0611
 11
28.8815
 21
19.5912
  0
LINE
  8
0
 10
28.8815
 20
19.5912
 11
29.1489
 21
20.1594
  0
LINE
  8
0
 10
29.1489
 20
20.1594
 11
29.3429
 21
20.7566
  0
LINE
  8
0
 10
29.3429
 20
20.7566
 11
29.4606
 21
21.3733
  0
LINE
  8
0
 10
29.4606
 20
21.3733
 11
29.5
 21
22
  0
LINE
  8
0
 10
29.5
 20
22
 11
29.5
 21
26
  0
LINE
  8
0
 10
29.5
 20
26
 11
29.4606
 21
26.6267
  0
LINE
  8
0
 10
29.4606
 20
26.6267
 11
29.3429
 21
27.2434
  0
LINE
  8
0
 10
29.3429
 20
27.2434
 11
29.1489
 21
27.8406
  0
LINE
  8
0
 10
29.1489
 20
27.8406
 11
28.8815
 21
28.4088
  0
LINE
  8
0
 10
28.8815
 20
28.4088
 11
28.5451
 21
28.9389
  0
LINE
  8
0
 10
28.5451
 20
28.9389
 11
28.1448
 21
29.4227
  0
LINE
  8
0
 10
28.1448
 20
29.4227
 11
27.6871
 21
29.8526
  0
LINE
  8
0
 10
27.6871
 20
29.8526
 11
27.1791
 21
30.2216
  0
LINE
  8
0
 10
27.1791
 20
30.2216
 11
26.6289
 21
30.5241
  0
LINE
  8
0
 10
26.6289
 20
30.5241
 11
26.0451
 21
30.7553
  0
LINE
  8
0
 10
26.0451
 20
30.7553
 11
25.4369
 21
30.9114
  0
LINE
  8
0
 10
25.4369
 20
30.9114
 11
24.8139
 21
30.9901
  0
LINE
  8
0
 10
24.8139
 20
30.9901
 11
-24.8139
 21
30.9901
  0
LINE
  8
0
 10
-24.8139
 20
30.9901
 11
-25.4369
 21
30.9114
  0
LINE
  8
0
 10
-25.4369
 20
30.9114
 11
-26.0451
 21
30.7553
  0
LINE
  8
0
 10
-26.0451
 20
30.7553
 11
-26.6289
 21
30.5241
  0
LINE
  8
0
 10
-26.6289
 20
30.5241
 11
-27.1791
 21
30.2216
  0
LINE
  8
0
 10
-27.1791
 20
30.2216
 11
-27.6871
 21
29.8526
  0
LINE
  8
0
 10
-27.6871
 20
29.8526
 11
-28.1448
 21
29.4227
  0
LINE
  8
0
 10
-28.1448
 20
29.4227
 11
-28.5451
 21
28.9389
  0
LINE
  8
0
 10
-28.5451
 20
28.9389
 11
-28.8815
 21
28.4088
  0
LINE
  8
0
 10
-28.8815
 20
28.4088
 11
-29.1489
 21
27.8406
  0
LINE
  8
0
 10
-29.1489
 20
27.8406
 11
-29.3429
 21
27.2434
  0
LINE
  8
0
 10
-29.3429
 20
27.2434
 11
-29.4606
 21
26.6267
  0
LINE
  8
0
 10
-29.4606
 20
26.6267
 11
-29.5
 21
26
  0
LINE
  8
0
 10
-29.5
 20
26
 11
-29.5
 21
22
  0
LINE
  8
0
 10
-29.5
 20
22
 11
-29.4606
 21
21.3733
  0
LINE
  8
0
 10
-29.4606
 20
21.3733
 11
-29.3429
 21
20.7566
  0
LINE
  8
0
 10
-29.3429
 20
20.7566
 11
-29.1489
 21
20.1594
  0
LINE
  8
0
 10
-29.1489
 20
20.1594
 11
-28.8815
 21
19.5912
  0
LINE
  8
0
 10
-28.8815
 20
19.5912
 11
-28.5451
 21
19.0611
  0
LINE
  8
0
 10
-28.5451
 20
19.0611
 11
-28.1448
 21
18.5773
  0
LINE
  8
0
 10
-28.1448
 20
18.5773
 11
-27.6871
 21
18.1474
  0
LINE
  8
0
 10
-27.6871
 20
18.1474
 11
-27.1791
 21
17.7784
  0
LINE
  8
0
 10
-27.1791
 20
17.7784
 11
-26.6289
 21
17.4759
  0
LINE
  8
0
 10
-26.6289
 20
17.4759
 11
-26.0451
 21
17.2447
  0
LINE
  8
0
 10
-26.0451
 20
17.2447
 11
-25.4369
 21
17.0886
  0
LINE
  8
0
 10
-25.4369
 20
17.0886
 11
-24.8139
 21
17.0099
  0
LINE
  8
0
 10
-24.8139
 20
17.0099
 11
24.8139
 21
17.0099
  0
LINE
  8
0
 10
24.8139
 20
17.0099
 11
25.4369
 21
17.0886
  0
LINE
  8
0
 10
-12.2198
 20
20.5069
 11
-12.6558
 21
20.562
  0
LINE
  8
0
 10
-12.6558
 20
20.562
 11
-13.0816
 21
20.6713
  0
LINE
  8
0
 10
-13.0816
 20
20.6713
 11
-13.4902
 21
20.8331
  0
LINE
  8
0
 10
-13.4902
 20
20.8331
 11
-13.8754
 21
21.0449
  0
LINE
  8
0
 10
-13.8754
 20
21.0449
 11
-14.231
 21
21.3032
  0
LINE
  8
0
 10
-14.231
 20
21.3032
 11
-14.5514
 21
21.6041
  0
LINE
  8
0
 10
-14.5514
 20
21.6041
 11
-14.8316
 21
21.9428
  0
LINE
  8
0
 10
-14.8316
 20
21.9428
 11
-15.0671
 21
22.3139
  0
LINE
  8
0
 10
-15.0671
 20
22.3139
 11
-15.2542
 21
22.7116
  0
LINE
  8
0
 10
-15.2542
 20
22.7116
 11
-15.39
 21
23.1296
  0
LINE
  8
0
 10
-15.39
 20
23.1296
 11
-15.4724
 21
23.5613
  0
LINE
  8
0
 10
-15.4724
 20
23.5613
 11
-15.5
 21
24
  0
LINE
  8
0
 10
-15.5
 20
24
 11
-15.4724
 21
24.4387
  0
LINE
  8
0
 10
-15.4724
 20
24.4387
 11
-15.39
 21
24.8704
  0
LINE
  8
0
 10
-15.39
 20
24.8704
 11
-15.2542
 21
25.2884
  0
LINE
  8
0
 10
-15.2542
 20
25.2884
 11
-15.0671
 21
25.6861
  0
LINE
  8
0
 10
-15.0671
 20
25.6861
 11
-14.8316
 21
26.0572
  0
LINE
  8
0
 10
-14.8316
 20
26.0572
 11
-14.5514
 21
26.3959
  0
LINE
  8
0
 10
-14.5514
 20
26.3959
 11
-14.231
 21
26.6968
  0
LINE
  8
0
 10
-14.231
 20
26.6968
 11
-13.8754
 21
26.9551
  0
LINE
  8
0
 10
-13.8754
 20
26.9551
 11
-13.4902
 21
27.1669
  0
LINE
  8
0
 10
-13.4902
 20
27.1669
 11
-13.0816
 21
27.3287
  0
LINE
  8
0
 10
-13.0816
 20
27.3287
 11
-12.6558
 21
27.438
  0
LINE
  8
0
 10
-12.6558
 20
27.438
 11
-12.2198
 21
27.4931
  0
LINE
  8
0
 10
-12.2198
 20
27.4931
 11
-11.7802
 21
27.4931
  0
LINE
  8
0
 10
-11.7802
 20
27.4931
 11
-11.3442
 21
27.438
  0
LINE
  8
0
 10
-11.3442
 20
27.438
 11
-10.9184
 21
27.3287
  0
LINE
  8
0
 10
-10.9184
 20
27.3287
 11
-10.5098
 21
27.1669
  0
LINE
  8
0
 10
-10.5098
 20
27.1669
 11
-10.1246
 21
26.9551
  0
LINE
  8
0
 10
-10.1246
 20
26.9551
 11
-9.76901
 21
26.6968
  0
LINE
  8
0
 10
-9.76901
 20
26.6968
 11
-9.44861
 21
26.3959
  0
LINE
  8
0
 10
-9.44861
 20
26.3959
 11
-9.16843
 21
26.0572
  0
LINE
  8
0
 10
-9.16843
 20
26.0572
 11
-8.93292
 21
25.6861
  0
LINE
  8
0
 10
-8.93292
 20
25.6861
 11
-8.74577
 21
25.2884
  0
LINE
  8
0
 10
-8.74577
 20
25.2884
 11
-8.60995
 21
24.8704
  0
LINE
  8
0
 10
-8.60995
 20
24.8704
 11
-8.52759
 21
24.4387
  0
LINE
  8
0
 10
-8.52759
 20
24.4387
 11
-8.5
 21
24
  0
LINE
  8
0
 10
-8.5
 20
24
 11
-8.52759
 21
23.5613
  0
LINE
  8
0
 10
-8.52759
 20
23.5613
 11
-8.60995
 21
23.1296
  0
LINE
  8
0
 10
-8.60995
 20
23.1296
 11
-8.74577
 21
22.7116
  0
LINE
  8
0
 10
-8.74577
 20
22.7116
 11
-8.93292
 21
22.3139
  0
LINE
  8
0
 10
-8.93292
 20
22.3139
 11
-9.16843
 21
21.9428
  0
LINE
  8
0
 10
-9.16843
 20
21.9428
 11
-9.44861
 21
21.6041
  0
LINE
  8
0
 10
-9.44861
 20
21.6041
 11
-9.76901
 21
21.3032
  0
LINE
  8
0
 10
-9.76901
 20
21.3032
 11
-10.1246
 21
21.0449
  0
LINE
  8
0
 10
-10.1246
 20
21.0449
 11
-10.5098
 21
20.8331
  0
LINE
  8
0
 10
-10.5098
 20
20.8331
 11
-10.9184
 21
20.6713
  0
LINE
  8
0
 10
-10.9184
 20
20.6713
 11
-11.3442
 21
20.562
  0
LINE
  8
0
 10
-11.3442
 20
20.562
 11
-11.7802
 21
20.5069
  0
LINE
  8
0
 10
-11.7802
 20
20.5069
 11
-12.2198
 21
20.5069
  0
LINE
  8
0
 10
-0.219757
 20
20.5069
 11
-0.655823
 21
20.562
  0
LINE
  8
0
 10
-0.655823
 20
20.562
 11
-1.08156
 21
20.6713
  0
LINE
  8
0
 10
-1.08156
 20
20.6713
 11
-1.49022
 21
20.8331
  0
LINE
  8
0
 10
-1.49022
 20
20.8331
 11
-1.87538
 21
21.0449
  0
LINE
  8
0
 10
-1.87538
 20
21.0449
 11
-2.23097
 21
21.3032
  0
LINE
  8
0
 10
-2.23097
 20
21.3032
 11
-2.55138
 21
21.6041
  0
LINE
  8
0
 10
-2.55138
 20
21.6041
 11
-2.83156
 21
21.9428
  0
LINE
  8
0
 10
-2.83156
 20
21.9428
 11
-3.06706
 21
22.3139
  0
LINE
  8
0
 10
-3.06706
 20
22.3139
 11
-3.25421
 21
22.7116
  0
LINE
  8
0
 10
-3.25421
 20
22.7116
 11
-3.39003
 21
23.1296
  0
LINE
  8
0
 10
-3.39003
 20
23.1296
 11
-3.4724
 21
23.5613
  0
LINE
  8
0
 10
-3.4724
 20
23.5613
 11
-3.5
 21
24
  0
LINE
  8
0
 10
-3.5
 20
24
 11
-3.4724
 21
24.4387
  0
LINE
  8
0
 10
-3.4724
 20
24.4387
 11
-3.39003
 21
24.8704
  0
LINE
  8
0
 10
-3.39003
 20
24.8704
 11
-3.25421
 21
25.2884
  0
LINE
  8
0
 10
-3.25421
 20
25.2884
 11
-3.06706
 21
25.6861
  0
LINE
  8
0
 10
-3.06706
 20
25.6861
 11
-2.83156
 21
26.0572
  0
LINE
  8
0
 10
-2.83156
 20
26.0572
 11
-2.55138
 21
26.3959
  0
LINE
  8
0
 10
-2.55138
 20
26.3959
 11
-2.23097
 21
26.6968
  0
LINE
  8
0
 10
-2.23097
 20
26.6968
 11
-1.87538
 21
26.9551
  0
LINE
  8
0
 10
-1.87538
 20
26.9551
 11
-1.49022
 21
27.1669
  0
LINE
  8
0
 10
-1.49022
 20
27.1669
 11
-1.08156
 21
27.3287
  0
LINE
  8
0
 10
-1.08156
 20
27.3287
 11
-0.655823
 21
27.438
  0
LINE
  8
0
 10
-0.655823
 20
27.438
 11
-0.219757
 21
27.4931
  0
LINE
  8
0
 10
-0.219757
 20
27.4931
 11
0.219757
 21
27.4931
  0
LINE
  8
0
 10
0.219757
 20
27.4931
 11
0.655823
 21
27.438
  0
LINE
  8
0
 10
0.655823
 20
27.438
 11
1.08156
 21
27.3287
  0
LINE
  8
0
 10
1.08156
 20
27.3287
 11
1.49022
 21
27.1669
  0
LINE
  8
0
 10
1.49022
 20
27.1669
 11
1.87538
 21
26.9551
  0
LINE
  8
0
 10
1.87538
 20
26.9551
 11
2.23097
 21
26.6968
  0
LINE
  8
0
 10
2.23097
 20
26.6968
 11
2.55138
 21
26.3959
  0
LINE
  8
0
 10
2.55138
 20
26.3959
 11
2.83156
 21
26.0572
  0
LINE
  8
0
 10
2.83156
 20
26.0572
 11
3.06706
 21
25.6861
  0
LINE
  8
0
 10
3.06706
 20
25.6861
 11
3.25421
 21
25.2884
  0
LINE
  8
0
 10
3.25421
 20
25.2884
 11
3.39003
 21
24.8704
  0
LINE
  8
0
 10
3.39003
 20
24.8704
 11
3.4724
 21
24.4387
  0
LINE
  8
0
 10
3.4724
 20
24.4387
 11
3.5
 21
24
  0
LINE
  8
0
 10
3.5
 20
24
 11
3.4724
 21
23.5613
  0
LINE
  8
0
 10
3.4724
 20
23.5613
 11
3.39003
 21
23.1296
  0
LINE
  8
0
 10
3.39003
 20
23.1296
 11
3.25421
 21
22.7116
  0
LINE
  8
0
 10
3.25421
 20
22.7116
 11
3.06706
 21
22.3139
  0
LINE
  8
0
 10
3.06706
 20
22.3139
 11
2.83156
 21
21.9428
  0
LINE
  8
0
 10
2.83156
 20
21.9428
 11
2.55138
 21
21.6041
  0
LINE
  8
0
 10
2.55138
 20
21.6041
 11
2.23097
 21
21.3032
  0
LINE
  8
0
 10
2.23097
 20
21.3032
 11
1.87538
 21
21.0449
  0
LINE
  8
0
 10
1.87538
 20
21.0449
 11
1.49022
 21
20.8331
  0
LINE
  8
0
 10
1.49022
 20
20.8331
 11
1.08156
 21
20.6713
  0
LINE
  8
0
 10
1.08156
 20
20.6713
 11
0.655823
 21
20.562
  0
LINE
  8
0
 10
0.655823
 20
20.562
 11
0.219757
 21
20.5069
  0
LINE
  8
0
 10
0.219757
 20
20.5069
 11
-0.219757
 21
20.5069
  0
LINE
  8
0
 10
11.7802
 20
20.5069
 11
11.3442
 21
20.562
  0
LINE
  8
0
 10
11.3442
 20
20.562
 11
10.9184
 21
20.6713
  0
LINE
  8
0
 10
10.9184
 20
20.6713
 11
10.5098
 21
20.8331
  0
LINE
  8
0
 10
10.5098
 20
20.8331
 11
10.1246
 21
21.0449
  0
LINE
  8
0
 10
10.1246
 20
21.0449
 11
9.76901
 21
21.3032
  0
LINE
  8
0
 10
9.76901
 20
21.3032
 11
9.44861
 21
21.6041
  0
LINE
  8
0
 10
9.44861
 20
21.6041
 11
9.16843
 21
21.9428
  0
LINE
  8
0
 10
9.16843
 20
21.9428
 11
8.93292
 21
22.3139
  0
LINE
  8
0
 10
8.93292
 20
22.3139
 11
8.74577
 21
22.7116
  0
LINE
  8
0
 10
8.74577
 20
22.7116
 11
8.60995
 21
23.1296
  0
LINE
  8
0
 10
8.60995
 20
23.1296
 11
8.52759
 21
23.5613
  0
LINE
  8
0
 10
8.52759
 20
23.5613
 11
8.5
 21
24
  0
LINE
  8
0
 10
8.5
 20
24
 11
8.52759
 21
24.4387
  0
LINE
  8
0
 10
8.52759
 20
24.4387
 11
8.60995
 21
24.8704
  0
LINE
  8
0
 10
8.60995
 20
24.8704
 11
8.74577
 21
25.2884
  0
LINE
  8
0
 10
8.74577
 20
25.2884
 11
8.93292
 21
25.6861
  0
LINE
  8
0
 10
8.93292
 20
25.6861
 11
9.16843
 21
26.0572
  0
LINE
  8
0
 10
9.16843
 20
26.0572
 11
9.44861
 21
26.3959
  0
LINE
  8
0
 10
9.44861
 20
26.3959
 11
9.76901
 21
26.6968
  0
LINE
  8
0
 10
9.76901
 20
26.6968
 11
10.1246
 21
26.9551
  0
LINE
  8
0
 10
10.1246
 20
26.9551
 11
10.5098
 21
27.1669
  0
LINE
  8
0
 10
10.5098
 20
27.1669
 11
10.9184
 21
27.3287
  0
LINE
  8
0
 10
10.9184
 20
27.3287
 11
11.3442
 21
27.438
  0
LINE
  8
0
 10
11.3442
 20
27.438
 11
11.7802
 21
27.4931
  0
LINE
  8
0
 10
11.7802
 20
27.4931
 11
12.2198
 21
27.4931
  0
LINE
  8
0
 10
12.2198
 20
27.4931
 11
12.6558
 21
27.438
  0
LINE
  8
0
 10
12.6558
 20
27.438
 11
13.0816
 21
27.3287
  0
LINE
  8
0
 10
13.0816
 20
27.3287
 11
13.4902
 21
27.1669
  0
LINE
  8
0
 10
13.4902
 20
27.1669
 11
13.8754
 21
26.9551
  0
LINE
  8
0
 10
13.8754
 20
26.9551
 11
14.231
 21
26.6968
  0
LINE
  8
0
 10
14.231
 20
26.6968
 11
14.5514
 21
26.3959
  0
LINE
  8
0
 10
14.5514
 20
26.3959
 11
14.8316
 21
26.0572
  0
LINE
  8
0
 10
14.8316
 20
26.0572
 11
15.0671
 21
25.6861
  0
LINE
  8
0
 10
15.0671
 20
25.6861
 11
15.2542
 21
25.2884
  0
LINE
  8
0
 10
15.2542
 20
25.2884
 11
15.39
 21
24.8704
  0
LINE
  8
0
 10
15.39
 20
24.8704
 11
15.4724
 21
24.4387
  0
LINE
  8
0
 10
15.4724
 20
24.4387
 11
15.5
 21
24
  0
LINE
  8
0
 10
15.5
 20
24
 11
15.4724
 21
23.5613
  0
LINE
  8
0
 10
15.4724
 20
23.5613
 11
15.39
 21
23.1296
  0
LINE
  8
0
 10
15.39
 20
23.1296
 11
15.2542
 21
22.7116
  0
LINE
  8
0
 10
15.2542
 20
22.7116
 11
15.0671
 21
22.3139
  0
LINE
  8
0
 10
15.0671
 20
22.3139
 11
14.8316
 21
21.9428
  0
LINE
  8
0
 10
14.8316
 20
21.9428
 11
14.5514
 21
21.6041
  0
LINE
  8
0
 10
14.5514
 20
21.6041
 11
14.231
 21
21.3032
  0
LINE
  8
0
 10
14.231
 20
21.3032
 11
13.8754
 21
21.0449
  0
LINE
  8
0
 10
13.8754
 20
21.0449
 11
13.4902
 21
20.8331
  0
LINE
  8
0
 10
13.4902
 20
20.8331
 11
13.0816
 21
20.6713
  0
LINE
  8
0
 10
13.0816
 20
20.6713
 11
12.6558
 21
20.562
  0
LINE
  8
0
 10
12.6558
 20
20.562
 11
12.2198
 21
20.5069
  0
LINE
  8
0
 10
12.2198
 20
20.5069
 11
11.7802
 21
20.5069
  0
LINE
  8
0
 10
-22.6884
 20
21.0059
 11
-23.0621
 21
21.0531
  0
LINE
  8
0
 10
-23.0621
 20
21.0531
 11
-23.427
 21
21.1468
  0
LINE
  8
0
 10
-23.427
 20
21.1468
 11
-23.7773
 21
21.2855
  0
LINE
  8
0
 10
-23.7773
 20
21.2855
 11
-24.1075
 21
21.467
  0
LINE
  8
0
 10
-24.1075
 20
21.467
 11
-24.4123
 21
21.6885
  0
LINE
  8
0
 10
-24.4123
 20
21.6885
 11
-24.6869
 21
21.9464
  0
LINE
  8
0
 10
-24.6869
 20
21.9464
 11
-24.927
 21
22.2366
  0
LINE
  8
0
 10
-24.927
 20
22.2366
 11
-25.1289
 21
22.5547
  0
LINE
  8
0
 10
-25.1289
 20
22.5547
 11
-25.2893
 21
22.8956
  0
LINE
  8
0
 10
-25.2893
 20
22.8956
 11
-25.4057
 21
23.2539
  0
LINE
  8
0
 10
-25.4057
 20
23.2539
 11
-25.4763
 21
23.624
  0
LINE
  8
0
 10
-25.4763
 20
23.624
 11
-25.5
 21
24
  0
LINE
  8
0
 10
-25.5
 20
24
 11
-25.4763
 21
24.376
  0
LINE
  8
0
 10
-25.4763
 20
24.376
 11
-25.4057
 21
24.7461
  0
LINE
  8
0
 10
-25.4057
 20
24.7461
 11
-25.2893
 21
25.1044
  0
LINE
  8
0
 10
-25.2893
 20
25.1044
 11
-25.1289
 21
25.4453
  0
LINE
  8
0
 10
-25.1289
 20
25.4453
 11
-24.927
 21
25.7634
  0
LINE
  8
0
 10
-24.927
 20
25.7634
 11
-24.6869
 21
26.0536
  0
LINE
  8
0
 10
-24.6869
 20
26.0536
 11
-24.4123
 21
26.3115
  0
LINE
  8
0
 10
-24.4123
 20
26.3115
 11
-24.1075
 21
26.533
  0
LINE
  8
0
 10
-24.1075
 20
26.533
 11
-23.7773
 21
26.7145
  0
LINE
  8
0
 10
-23.7773
 20
26.7145
 11
-23.427
 21
26.8532
  0
LINE
  8
0
 10
-23.427
 20
26.8532
 11
-23.0621
 21
26.9469
  0
LINE
  8
0
 10
-23.0621
 20
26.9469
 11
-22.6884
 21
26.9941
  0
LINE
  8
0
 10
-22.6884
 20
26.9941
 11
-22.3116
 21
26.9941
  0
LINE
  8
0
 10
-22.3116
 20
26.9941
 11
-21.9379
 21
26.9469
  0
LINE
  8
0
 10
-21.9379
 20
26.9469
 11
-21.5729
 21
26.8532
  0
LINE
  8
0
 10
-21.5729
 20
26.8532
 11
-21.2227
 21
26.7145
  0
LINE
  8
0
 10
-21.2227
 20
26.7145
 11
-20.8925
 21
26.533
  0
LINE
  8
0
 10
-20.8925
 20
26.533
 11
-20.5877
 21
26.3115
  0
LINE
  8
0
 10
-20.5877
 20
26.3115
 11
-20.3131
 21
26.0536
  0
LINE
  8
0
 10
-20.3131
 20
26.0536
 11
-20.0729
 21
25.7634
  0
LINE
  8
0
 10
-20.0729
 20
25.7634
 11
-19.8711
 21
25.4453
  0
LINE
  8
0
 10
-19.8711
 20
25.4453
 11
-19.7107
 21
25.1044
  0
LINE
  8
0
 10
-19.7107
 20
25.1044
 11
-19.5942
 21
24.7461
  0
LINE
  8
0
 10
-19.5942
 20
24.7461
 11
-19.5237
 21
24.376
  0
LINE
  8
0
 10
-19.5237
 20
24.376
 11
-19.5
 21
24
  0
LINE
  8
0
 10
-19.5
 20
24
 11
-19.5237
 21
23.624
  0
LINE
  8
0
 10
-19.5237
 20
23.624
 11
-19.5942
 21
23.2539
  0
LINE
  8
0
 10
-19.5942
 20
23.2539
 11
-19.7107
 21
22.8956
  0
LINE
  8
0
 10
-19.7107
 20
22.8956
 11
-19.8711
 21
22.5547
  0
LINE
  8
0
 10
-19.8711
 20
22.5547
 11
-20.0729
 21
22.2366
  0
LINE
  8
0
 10
-20.0729
 20
22.2366
 11
-20.3131
 21
21.9464
  0
LINE
  8
0
 10
-20.3131
 20
21.9464
 11
-20.5877
 21
21.6885
  0
LINE
  8
0
 10
-20.5877
 20
21.6885
 11
-20.8925
 21
21.467
  0
LINE
  8
0
 10
-20.8925
 20
21.467
 11
-21.2227
 21
21.2855
  0
LINE
  8
0
 10
-21.2227
 20
21.2855
 11
-21.5729
 21
21.1468
  0
LINE
  8
0
 10
-21.5729
 20
21.1468
 11
-21.9379
 21
21.0531
  0
LINE
  8
0
 10
-21.9379
 20
21.0531
 11
-22.3116
 21
21.0059
  0
LINE
  8
0
 10
-22.3116
 20
21.0059
 11
-22.6884
 21
21.0059
  0
LINE
  8
0
 10
22.3116
 20
21.0059
 11
21.9379
 21
21.0531
  0
LINE
  8
0
 10
21.9379
 20
21.0531
 11
21.5729
 21
21.1468
  0
LINE
  8
0
 10
21.5729
 20
21.1468
 11
21.2227
 21
21.2855
  0
LINE
  8
0
 10
21.2227
 20
21.2855
 11
20.8925
 21
21.467
  0
LINE
  8
0
 10
20.8925
 20
21.467
 11
20.5877
 21
21.6885
  0
LINE
  8
0
 10
20.5877
 20
21.6885
 11
20.3131
 21
21.9464
  0
LINE
  8
0
 10
20.3131
 20
21.9464
 11
20.0729
 21
22.2366
  0
LINE
  8
0
 10
20.0729
 20
22.2366
 11
19.8711
 21
22.5547
  0
LINE
  8
0
 10
19.8711
 20
22.5547
 11
19.7107
 21
22.8956
  0
LINE
  8
0
 10
19.7107
 20
22.8956
 11
19.5942
 21
23.2539
  0
LINE
  8
0
 10
19.5942
 20
23.2539
 11
19.5237
 21
23.624
  0
LINE
  8
0
 10
19.5237
 20
23.624
 11
19.5
 21
24
  0
LINE
  8
0
 10
19.5
 20
24
 11
19.5237
 21
24.376
  0
LINE
  8
0
 10
19.5237
 20
24.376
 11
19.5942
 21
24.7461
  0
LINE
  8
0
 10
19.5942
 20
24.7461
 11
19.7107
 21
25.1044
  0
LINE
  8
0
 10
19.7107
 20
25.1044
 11
19.8711
 21
25.4453
  0
LINE
  8
0
 10
19.8711
 20
25.4453
 11
20.0729
 21
25.7634
  0
LINE
  8
0
 10
20.0729
 20
25.7634
 11
20.3131
 21
26.0536
  0
LINE
  8
0
 10
20.3131
 20
26.0536
 11
20.5877
 21
26.3115
  0
LINE
  8
0
 10
20.5877
 20
26.3115
 11
20.8925
 21
26.533
  0
LINE
  8
0
 10
20.8925
 20
26.533
 11
21.2227
 21
26.7145
  0
LINE
  8
0
 10
21.2227
 20
26.7145
 11
21.5729
 21
26.8532
  0
LINE
  8
0
 10
21.5729
 20
26.8532
 11
21.9379
 21
26.9469
  0
LINE
  8
0
 10
21.9379
 20
26.9469
 11
22.3116
 21
26.9941
  0
LINE
  8
0
 10
22.3116
 20
26.9941
 11
22.6884
 21
26.9941
  0
LINE
  8
0
 10
22.6884
 20
26.9941
 11
23.0621
 21
26.9469
  0
LINE
  8
0
 10
23.0621
 20
26.9469
 11
23.427
 21
26.8532
  0
LINE
  8
0
 10
23.427
 20
26.8532
 11
23.7773
 21
26.7145
  0
LINE
  8
0
 10
23.7773
 20
26.7145
 11
24.1075
 21
26.533
  0
LINE
  8
0
 10
24.1075
 20
26.533
 11
24.4123
 21
26.3115
  0
LINE
  8
0
 10
24.4123
 20
26.3115
 11
24.6869
 21
26.0536
  0
LINE
  8
0
 10
24.6869
 20
26.0536
 11
24.927
 21
25.7634
  0
LINE
  8
0
 10
24.927
 20
25.7634
 11
25.1289
 21
25.4453
  0
LINE
  8
0
 10
25.1289
 20
25.4453
 11
25.2893
 21
25.1044
  0
LINE
  8
0
 10
25.2893
 20
25.1044
 11
25.4057
 21
24.7461
  0
LINE
  8
0
 10
25.4057
 20
24.7461
 11
25.4763
 21
24.376
  0
LINE
  8
0
 10
25.4763
 20
24.376
 11
25.5
 21
24
  0
LINE
  8
0
 10
25.5
 20
24
 11
25.4763
 21
23.624
  0
LINE
  8
0
 10
25.4763
 20
23.624
 11
25.4057
 21
23.2539
  0
LINE
  8
0
 10
25.4057
 20
23.2539
 11
25.2893
 21
22.8956
  0
LINE
  8
0
 10
25.2893
 20
22.8956
 11
25.1289
 21
22.5547
  0
LINE
  8
0
 10
25.1289
 20
22.5547
 11
24.927
 21
22.2366
  0
LINE
  8
0
 10
24.927
 20
22.2366
 11
24.6869
 21
21.9464
  0
LINE
  8
0
 10
24.6869
 20
21.9464
 11
24.4123
 21
21.6885
  0
LINE
  8
0
 10
24.4123
 20
21.6885
 11
24.1075
 21
21.467
  0
LINE
  8
0
 10
24.1075
 20
21.467
 11
23.7773
 21
21.2855
  0
LINE
  8
0
 10
23.7773
 20
21.2855
 11
23.427
 21
21.1468
  0
LINE
  8
0
 10
23.427
 20
21.1468
 11
23.0621
 21
21.0531
  0
LINE
  8
0
 10
23.0621
 20
21.0531
 11
22.6884
 21
21.0059
  0
LINE
  8
0
 10
22.6884
 20
21.0059
 11
22.3116
 21
21.0059
  0
ENDSEC
  0
SECTION
  2
OBJECTS
  0
DICTIONARY
  0
ENDSEC
  0
EOF
