  0
SECTION
  2
BLOCKS
  0
ENDSEC
  0
SECTION
  2
ENTITIES
  0
LINE
  8
0
 10
47.9369
 20
-21.9114
 11
48.5451
 21
-21.7553
  0
LINE
  8
0
 10
48.5451
 20
-21.7553
 11
49.1289
 21
-21.5241
  0
LINE
  8
0
 10
49.1289
 20
-21.5241
 11
49.6791
 21
-21.2216
  0
LINE
  8
0
 10
49.6791
 20
-21.2216
 11
50.1871
 21
-20.8526
  0
LINE
  8
0
 10
50.1871
 20
-20.8526
 11
50.6448
 21
-20.4227
  0
LINE
  8
0
 10
50.6448
 20
-20.4227
 11
51.0451
 21
-19.9389
  0
LINE
  8
0
 10
51.0451
 20
-19.9389
 11
51.3815
 21
-19.4088
  0
LINE
  8
0
 10
51.3815
 20
-19.4088
 11
51.6489
 21
-18.8406
  0
LINE
  8
0
 10
51.6489
 20
-18.8406
 11
51.8429
 21
-18.2434
  0
LINE
  8
0
 10
51.8429
 20
-18.2434
 11
51.9606
 21
-17.6267
  0
LINE
  8
0
 10
51.9606
 20
-17.6267
 11
52
 21
-17
  0
LINE
  8
0
 10
52
 20
-17
 11
52
 21
17
  0
LINE
  8
0
 10
52
 20
17
 11
51.9606
 21
17.6267
  0
LINE
  8
0
 10
51.9606
 20
17.6267
 11
51.8429
 21
18.2434
  0
LINE
  8
0
 10
51.8429
 20
18.2434
 11
51.6489
 21
18.8406
  0
LINE
  8
0
 10
51.6489
 20
18.8406
 11
51.3815
 21
19.4088
  0
LINE
  8
0
 10
51.3815
 20
19.4088
 11
51.0451
 21
19.9389
  0
LINE
  8
0
 10
51.0451
 20
19.9389
 11
50.6448
 21
20.4227
  0
LINE
  8
0
 10
50.6448
 20
20.4227
 11
50.1871
 21
20.8526
  0
LINE
  8
0
 10
50.1871
 20
20.8526
 11
49.6791
 21
21.2216
  0
LINE
  8
0
 10
49.6791
 20
21.2216
 11
49.1289
 21
21.5241
  0
LINE
  8
0
 10
49.1289
 20
21.5241
 11
48.5451
 21
21.7553
  0
LINE
  8
0
 10
48.5451
 20
21.7553
 11
47.9369
 21
21.9114
  0
LINE
  8
0
 10
47.9369
 20
21.9114
 11
47.3139
 21
21.9901
  0
LINE
  8
0
 10
47.3139
 20
21.9901
 11
-47.3139
 21
21.9901
  0
LINE
  8
0
 10
-47.3139
 20
21.9901
 11
-47.9369
 21
21.9114
  0
LINE
  8
0
 10
-47.9369
 20
21.9114
 11
-48.5451
 21
21.7553
  0
LINE
  8
0
 10
-48.5451
 20
21.7553
 11
-49.1289
 21
21.5241
  0
LINE
  8
0
 10
-49.1289
 20
21.5241
 11
-49.6791
 21
21.2216
  0
LINE
  8
0
 10
-49.6791
 20
21.2216
 11
-50.1871
 21
20.8526
  0
LINE
  8
0
 10
-50.1871
 20
20.8526
 11
-50.6448
 21
20.4227
  0
LINE
  8
0
 10
-50.6448
 20
20.4227
 11
-51.0451
 21
19.9389
  0
LINE
  8
0
 10
-51.0451
 20
19.9389
 11
-51.3815
 21
19.4088
  0
LINE
  8
0
 10
-51.3815
 20
19.4088
 11
-51.6489
 21
18.8406
  0
LINE
  8
0
 10
-51.6489
 20
18.8406
 11
-51.8429
 21
18.2434
  0
LINE
  8
0
 10
-51.8429
 20
18.2434
 11
-51.9606
 21
17.6267
  0
LINE
  8
0
 10
-51.9606
 20
17.6267
 11
-52
 21
17
  0
LINE
  8
0
 10
-52
 20
17
 11
-52
 21
-17
  0
LINE
  8
0
 10
-52
 20
-17
 11
-51.9606
 21
-17.6267
  0
LINE
  8
0
 10
-51.9606
 20
-17.6267
 11
-51.8429
 21
-18.2434
  0
LINE
  8
0
 10
-51.8429
 20
-18.2434
 11
-51.6489
 21
-18.8406
  0
LINE
  8
0
 10
-51.6489
 20
-18.8406
 11
-51.3815
 21
-19.4088
  0
LINE
  8
0
 10
-51.3815
 20
-19.4088
 11
-51.0451
 21
-19.9389
  0
LINE
  8
0
 10
-51.0451
 20
-19.9389
 11
-50.6448
 21
-20.4227
  0
LINE
  8
0
 10
-50.6448
 20
-20.4227
 11
-50.1871
 21
-20.8526
  0
LINE
  8
0
 10
-50.1871
 20
-20.8526
 11
-49.6791
 21
-21.2216
  0
LINE
  8
0
 10
-49.6791
 20
-21.2216
 11
-49.1289
 21
-21.5241
  0
LINE
  8
0
 10
-49.1289
 20
-21.5241
 11
-48.5451
 21
-21.7553
  0
LINE
  8
0
 10
-48.5451
 20
-21.7553
 11
-47.9369
 21
-21.9114
  0
LINE
  8
0
 10
-47.9369
 20
-21.9114
 11
-47.3139
 21
-21.9901
  0
LINE
  8
0
 10
-47.3139
 20
-21.9901
 11
47.3139
 21
-21.9901
  0
LINE
  8
0
 10
47.3139
 20
-21.9901
 11
47.9369
 21
-21.9114
  0
LINE
  8
0
 10
20.307
 20
-18.9625
 11
17.9397
 21
-18.6635
  0
LINE
  8
0
 10
17.9397
 20
-18.6635
 11
15.6287
 21
-18.0701
  0
LINE
  8
0
 10
15.6287
 20
-18.0701
 11
13.4102
 21
-17.1917
  0
LINE
  8
0
 10
13.4102
 20
-17.1917
 11
11.3193
 21
-16.0422
  0
LINE
  8
0
 10
11.3193
 20
-16.0422
 11
9.38893
 21
-14.6397
  0
LINE
  8
0
 10
9.38893
 20
-14.6397
 11
7.64958
 21
-13.0064
  0
LINE
  8
0
 10
7.64958
 20
-13.0064
 11
6.12866
 21
-11.1679
  0
LINE
  8
0
 10
6.12866
 20
-11.1679
 11
4.85016
 21
-9.15331
  0
LINE
  8
0
 10
4.85016
 20
-9.15331
 11
3.83424
 21
-6.99435
  0
LINE
  8
0
 10
3.83424
 20
-6.99435
 11
3.09691
 21
-4.7251
  0
LINE
  8
0
 10
3.09691
 20
-4.7251
 11
2.64981
 21
-2.38132
  0
LINE
  8
0
 10
2.64981
 20
-2.38132
 11
2.5
 21
0
  0
LINE
  8
0
 10
2.5
 20
0
 11
2.64981
 21
2.38132
  0
LINE
  8
0
 10
2.64981
 20
2.38132
 11
3.09691
 21
4.7251
  0
LINE
  8
0
 10
3.09691
 20
4.7251
 11
3.83424
 21
6.99435
  0
LINE
  8
0
 10
3.83424
 20
6.99435
 11
4.85016
 21
9.15331
  0
LINE
  8
0
 10
4.85016
 20
9.15331
 11
6.12866
 21
11.1679
  0
LINE
  8
0
 10
6.12866
 20
11.1679
 11
7.64958
 21
13.0064
  0
LINE
  8
0
 10
7.64958
 20
13.0064
 11
9.38893
 21
14.6397
  0
LINE
  8
0
 10
9.38893
 20
14.6397
 11
11.3193
 21
16.0422
  0
LINE
  8
0
 10
11.3193
 20
16.0422
 11
13.4102
 21
17.1917
  0
LINE
  8
0
 10
13.4102
 20
17.1917
 11
15.6287
 21
18.0701
  0
LINE
  8
0
 10
15.6287
 20
18.0701
 11
17.9397
 21
18.6635
  0
LINE
  8
0
 10
17.9397
 20
18.6635
 11
20.307
 21
18.9625
  0
LINE
  8
0
 10
20.307
 20
18.9625
 11
22.693
 21
18.9625
  0
LINE
  8
0
 10
22.693
 20
18.9625
 11
25.0602
 21
18.6635
  0
LINE
  8
0
 10
25.0602
 20
18.6635
 11
27.3713
 21
18.0701
  0
LINE
  8
0
 10
27.3713
 20
18.0701
 11
29.5898
 21
17.1917
  0
LINE
  8
0
 10
29.5898
 20
17.1917
 11
31.6807
 21
16.0422
  0
LINE
  8
0
 10
31.6807
 20
16.0422
 11
33.6111
 21
14.6397
  0
LINE
  8
0
 10
33.6111
 20
14.6397
 11
35.3504
 21
13.0064
  0
LINE
  8
0
 10
35.3504
 20
13.0064
 11
36.8713
 21
11.1679
  0
LINE
  8
0
 10
36.8713
 20
11.1679
 11
38.1498
 21
9.15331
  0
LINE
  8
0
 10
38.1498
 20
9.15331
 11
39.1657
 21
6.99435
  0
LINE
  8
0
 10
39.1657
 20
6.99435
 11
39.9031
 21
4.7251
  0
LINE
  8
0
 10
39.9031
 20
4.7251
 11
40.3502
 21
2.38132
  0
LINE
  8
0
 10
40.3502
 20
2.38132
 11
40.5
 21
0
  0
LINE
  8
0
 10
40.5
 20
0
 11
40.3502
 21
-2.38132
  0
LINE
  8
0
 10
40.3502
 20
-2.38132
 11
39.9031
 21
-4.7251
  0
LINE
  8
0
 10
39.9031
 20
-4.7251
 11
39.1657
 21
-6.99435
  0
LINE
  8
0
 10
39.1657
 20
-6.99435
 11
38.1498
 21
-9.15331
  0
LINE
  8
0
 10
38.1498
 20
-9.15331
 11
36.8713
 21
-11.1679
  0
LINE
  8
0
 10
36.8713
 20
-11.1679
 11
35.3504
 21
-13.0064
  0
LINE
  8
0
 10
35.3504
 20
-13.0064
 11
33.6111
 21
-14.6397
  0
LINE
  8
0
 10
33.6111
 20
-14.6397
 11
31.6807
 21
-16.0422
  0
LINE
  8
0
 10
31.6807
 20
-16.0422
 11
29.5898
 21
-17.1917
  0
LINE
  8
0
 10
29.5898
 20
-17.1917
 11
27.3713
 21
-18.0701
  0
LINE
  8
0
 10
27.3713
 20
-18.0701
 11
25.0602
 21
-18.6635
  0
LINE
  8
0
 10
25.0602
 20
-18.6635
 11
22.693
 21
-18.9625
  0
LINE
  8
0
 10
22.693
 20
-18.9625
 11
20.307
 21
-18.9625
  0
LINE
  8
0
 10
-22.693
 20
-18.9625
 11
-25.0602
 21
-18.6635
  0
LINE
  8
0
 10
-25.0602
 20
-18.6635
 11
-27.3713
 21
-18.0701
  0
LINE
  8
0
 10
-27.3713
 20
-18.0701
 11
-29.5898
 21
-17.1917
  0
LINE
  8
0
 10
-29.5898
 20
-17.1917
 11
-31.6807
 21
-16.0422
  0
LINE
  8
0
 10
-31.6807
 20
-16.0422
 11
-33.6111
 21
-14.6397
  0
LINE
  8
0
 10
-33.6111
 20
-14.6397
 11
-35.3504
 21
-13.0064
  0
LINE
  8
0
 10
-35.3504
 20
-13.0064
 11
-36.8713
 21
-11.1679
  0
LINE
  8
0
 10
-36.8713
 20
-11.1679
 11
-38.1498
 21
-9.15331
  0
LINE
  8
0
 10
-38.1498
 20
-9.15331
 11
-39.1657
 21
-6.99435
  0
LINE
  8
0
 10
-39.1657
 20
-6.99435
 11
-39.9031
 21
-4.7251
  0
LINE
  8
0
 10
-39.9031
 20
-4.7251
 11
-40.3502
 21
-2.38132
  0
LINE
  8
0
 10
-40.3502
 20
-2.38132
 11
-40.5
 21
0
  0
LINE
  8
0
 10
-40.5
 20
0
 11
-40.3502
 21
2.38132
  0
LINE
  8
0
 10
-40.3502
 20
2.38132
 11
-39.9031
 21
4.7251
  0
LINE
  8
0
 10
-39.9031
 20
4.7251
 11
-39.1657
 21
6.99435
  0
LINE
  8
0
 10
-39.1657
 20
6.99435
 11
-38.1498
 21
9.15331
  0
LINE
  8
0
 10
-38.1498
 20
9.15331
 11
-36.8713
 21
11.1679
  0
LINE
  8
0
 10
-36.8713
 20
11.1679
 11
-35.3504
 21
13.0064
  0
LINE
  8
0
 10
-35.3504
 20
13.0064
 11
-33.6111
 21
14.6397
  0
LINE
  8
0
 10
-33.6111
 20
14.6397
 11
-31.6807
 21
16.0422
  0
LINE
  8
0
 10
-31.6807
 20
16.0422
 11
-29.5898
 21
17.1917
  0
LINE
  8
0
 10
-29.5898
 20
17.1917
 11
-27.3713
 21
18.0701
  0
LINE
  8
0
 10
-27.3713
 20
18.0701
 11
-25.0602
 21
18.6635
  0
LINE
  8
0
 10
-25.0602
 20
18.6635
 11
-22.693
 21
18.9625
  0
LINE
  8
0
 10
-22.693
 20
18.9625
 11
-20.307
 21
18.9625
  0
LINE
  8
0
 10
-20.307
 20
18.9625
 11
-17.9397
 21
18.6635
  0
LINE
  8
0
 10
-17.9397
 20
18.6635
 11
-15.6287
 21
18.0701
  0
LINE
  8
0
 10
-15.6287
 20
18.0701
 11
-13.4102
 21
17.1917
  0
LINE
  8
0
 10
-13.4102
 20
17.1917
 11
-11.3193
 21
16.0422
  0
LINE
  8
0
 10
-11.3193
 20
16.0422
 11
-9.38893
 21
14.6397
  0
LINE
  8
0
 10
-9.38893
 20
14.6397
 11
-7.64958
 21
13.0064
  0
LINE
  8
0
 10
-7.64958
 20
13.0064
 11
-6.12866
 21
11.1679
  0
LINE
  8
0
 10
-6.12866
 20
11.1679
 11
-4.85016
 21
9.15331
  0
LINE
  8
0
 10
-4.85016
 20
9.15331
 11
-3.83424
 21
6.99435
  0
LINE
  8
0
 10
-3.83424
 20
6.99435
 11
-3.09691
 21
4.7251
  0
LINE
  8
0
 10
-3.09691
 20
4.7251
 11
-2.64981
 21
2.38132
  0
LINE
  8
0
 10
-2.64981
 20
2.38132
 11
-2.5
 21
0
  0
LINE
  8
0
 10
-2.5
 20
0
 11
-2.64981
 21
-2.38132
  0
LINE
  8
0
 10
-2.64981
 20
-2.38132
 11
-3.09691
 21
-4.7251
  0
LINE
  8
0
 10
-3.09691
 20
-4.7251
 11
-3.83424
 21
-6.99435
  0
LINE
  8
0
 10
-3.83424
 20
-6.99435
 11
-4.85016
 21
-9.15331
  0
LINE
  8
0
 10
-4.85016
 20
-9.15331
 11
-6.12866
 21
-11.1679
  0
LINE
  8
0
 10
-6.12866
 20
-11.1679
 11
-7.64958
 21
-13.0064
  0
LINE
  8
0
 10
-7.64958
 20
-13.0064
 11
-9.38893
 21
-14.6397
  0
LINE
  8
0
 10
-9.38893
 20
-14.6397
 11
-11.3193
 21
-16.0422
  0
LINE
  8
0
 10
-11.3193
 20
-16.0422
 11
-13.4102
 21
-17.1917
  0
LINE
  8
0
 10
-13.4102
 20
-17.1917
 11
-15.6287
 21
-18.0701
  0
LINE
  8
0
 10
-15.6287
 20
-18.0701
 11
-17.9397
 21
-18.6635
  0
LINE
  8
0
 10
-17.9397
 20
-18.6635
 11
-20.307
 21
-18.9625
  0
LINE
  8
0
 10
-20.307
 20
-18.9625
 11
-22.693
 21
-18.9625
  0
LINE
  8
0
 10
44.8116
 20
12.0059
 11
44.4379
 21
12.0531
  0
LINE
  8
0
 10
44.4379
 20
12.0531
 11
44.0729
 21
12.1468
  0
LINE
  8
0
 10
44.0729
 20
12.1468
 11
43.7227
 21
12.2855
  0
LINE
  8
0
 10
43.7227
 20
12.2855
 11
43.3925
 21
12.467
  0
LINE
  8
0
 10
43.3925
 20
12.467
 11
43.0877
 21
12.6884
  0
LINE
  8
0
 10
43.0877
 20
12.6884
 11
42.8131
 21
12.9464
  0
LINE
  8
0
 10
42.8131
 20
12.9464
 11
42.5729
 21
13.2366
  0
LINE
  8
0
 10
42.5729
 20
13.2366
 11
42.3711
 21
13.5547
  0
LINE
  8
0
 10
42.3711
 20
13.5547
 11
42.2107
 21
13.8956
  0
LINE
  8
0
 10
42.2107
 20
13.8956
 11
42.0942
 21
14.2539
  0
LINE
  8
0
 10
42.0942
 20
14.2539
 11
42.0237
 21
14.624
  0
LINE
  8
0
 10
42.0237
 20
14.624
 11
42
 21
15
  0
LINE
  8
0
 10
42
 20
15
 11
42.0237
 21
15.376
  0
LINE
  8
0
 10
42.0237
 20
15.376
 11
42.0942
 21
15.7461
  0
LINE
  8
0
 10
42.0942
 20
15.7461
 11
42.2107
 21
16.1044
  0
LINE
  8
0
 10
42.2107
 20
16.1044
 11
42.3711
 21
16.4453
  0
LINE
  8
0
 10
42.3711
 20
16.4453
 11
42.5729
 21
16.7634
  0
LINE
  8
0
 10
42.5729
 20
16.7634
 11
42.8131
 21
17.0536
  0
LINE
  8
0
 10
42.8131
 20
17.0536
 11
43.0877
 21
17.3115
  0
LINE
  8
0
 10
43.0877
 20
17.3115
 11
43.3925
 21
17.533
  0
LINE
  8
0
 10
43.3925
 20
17.533
 11
43.7227
 21
17.7145
  0
LINE
  8
0
 10
43.7227
 20
17.7145
 11
44.0729
 21
17.8532
  0
LINE
  8
0
 10
44.0729
 20
17.8532
 11
44.4379
 21
17.9469
  0
LINE
  8
0
 10
44.4379
 20
17.9469
 11
44.8116
 21
17.9941
  0
LINE
  8
0
 10
44.8116
 20
17.9941
 11
45.1884
 21
17.9941
  0
LINE
  8
0
 10
45.1884
 20
17.9941
 11
45.5621
 21
17.9469
  0
LINE
  8
0
 10
45.5621
 20
17.9469
 11
45.927
 21
17.8532
  0
LINE
  8
0
 10
45.927
 20
17.8532
 11
46.2773
 21
17.7145
  0
LINE
  8
0
 10
46.2773
 20
17.7145
 11
46.6075
 21
17.533
  0
LINE
  8
0
 10
46.6075
 20
17.533
 11
46.9123
 21
17.3115
  0
LINE
  8
0
 10
46.9123
 20
17.3115
 11
47.1869
 21
17.0536
  0
LINE
  8
0
 10
47.1869
 20
17.0536
 11
47.427
 21
16.7634
  0
LINE
  8
0
 10
47.427
 20
16.7634
 11
47.6289
 21
16.4453
  0
LINE
  8
0
 10
47.6289
 20
16.4453
 11
47.7893
 21
16.1044
  0
LINE
  8
0
 10
47.7893
 20
16.1044
 11
47.9057
 21
15.7461
  0
LINE
  8
0
 10
47.9057
 20
15.7461
 11
47.9763
 21
15.376
  0
LINE
  8
0
 10
47.9763
 20
15.376
 11
48
 21
15
  0
LINE
  8
0
 10
48
 20
15
 11
47.9763
 21
14.624
  0
LINE
  8
0
 10
47.9763
 20
14.624
 11
47.9057
 21
14.2539
  0
LINE
  8
0
 10
47.9057
 20
14.2539
 11
47.7893
 21
13.8956
  0
LINE
  8
0
 10
47.7893
 20
13.8956
 11
47.6289
 21
13.5547
  0
LINE
  8
0
 10
47.6289
 20
13.5547
 11
47.427
 21
13.2366
  0
LINE
  8
0
 10
47.427
 20
13.2366
 11
47.1869
 21
12.9464
  0
LINE
  8
0
 10
47.1869
 20
12.9464
 11
46.9123
 21
12.6884
  0
LINE
  8
0
 10
46.9123
 20
12.6884
 11
46.6075
 21
12.467
  0
LINE
  8
0
 10
46.6075
 20
12.467
 11
46.2773
 21
12.2855
  0
LINE
  8
0
 10
46.2773
 20
12.2855
 11
45.927
 21
12.1468
  0
LINE
  8
0
 10
45.927
 20
12.1468
 11
45.5621
 21
12.0531
  0
LINE
  8
0
 10
45.5621
 20
12.0531
 11
45.1884
 21
12.0059
  0
LINE
  8
0
 10
45.1884
 20
12.0059
 11
44.8116
 21
12.0059
  0
LINE
  8
0
 10
-45.1884
 20
12.0059
 11
-45.5621
 21
12.0531
  0
LINE
  8
0
 10
-45.5621
 20
12.0531
 11
-45.927
 21
12.1468
  0
LINE
  8
0
 10
-45.927
 20
12.1468
 11
-46.2773
 21
12.2855
  0
LINE
  8
0
 10
-46.2773
 20
12.2855
 11
-46.6075
 21
12.467
  0
LINE
  8
0
 10
-46.6075
 20
12.467
 11
-46.9123
 21
12.6884
  0
LINE
  8
0
 10
-46.9123
 20
12.6884
 11
-47.1869
 21
12.9464
  0
LINE
  8
0
 10
-47.1869
 20
12.9464
 11
-47.427
 21
13.2366
  0
LINE
  8
0
 10
-47.427
 20
13.2366
 11
-47.6289
 21
13.5547
  0
LINE
  8
0
 10
-47.6289
 20
13.5547
 11
-47.7893
 21
13.8956
  0
LINE
  8
0
 10
-47.7893
 20
13.8956
 11
-47.9057
 21
14.2539
  0
LINE
  8
0
 10
-47.9057
 20
14.2539
 11
-47.9763
 21
14.624
  0
LINE
  8
0
 10
-47.9763
 20
14.624
 11
-48
 21
15
  0
LINE
  8
0
 10
-48
 20
15
 11
-47.9763
 21
15.376
  0
LINE
  8
0
 10
-47.9763
 20
15.376
 11
-47.9057
 21
15.7461
  0
LINE
  8
0
 10
-47.9057
 20
15.7461
 11
-47.7893
 21
16.1044
  0
LINE
  8
0
 10
-47.7893
 20
16.1044
 11
-47.6289
 21
16.4453
  0
LINE
  8
0
 10
-47.6289
 20
16.4453
 11
-47.427
 21
16.7634
  0
LINE
  8
0
 10
-47.427
 20
16.7634
 11
-47.1869
 21
17.0536
  0
LINE
  8
0
 10
-47.1869
 20
17.0536
 11
-46.9123
 21
17.3115
  0
LINE
  8
0
 10
-46.9123
 20
17.3115
 11
-46.6075
 21
17.533
  0
LINE
  8
0
 10
-46.6075
 20
17.533
 11
-46.2773
 21
17.7145
  0
LINE
  8
0
 10
-46.2773
 20
17.7145
 11
-45.927
 21
17.8532
  0
LINE
  8
0
 10
-45.927
 20
17.8532
 11
-45.5621
 21
17.9469
  0
LINE
  8
0
 10
-45.5621
 20
17.9469
 11
-45.1884
 21
17.9941
  0
LINE
  8
0
 10
-45.1884
 20
17.9941
 11
-44.8116
 21
17.9941
  0
LINE
  8
0
 10
-44.8116
 20
17.9941
 11
-44.4379
 21
17.9469
  0
LINE
  8
0
 10
-44.4379
 20
17.9469
 11
-44.0729
 21
17.8532
  0
LINE
  8
0
 10
-44.0729
 20
17.8532
 11
-43.7227
 21
17.7145
  0
LINE
  8
0
 10
-43.7227
 20
17.7145
 11
-43.3925
 21
17.533
  0
LINE
  8
0
 10
-43.3925
 20
17.533
 11
-43.0877
 21
17.3115
  0
LINE
  8
0
 10
-43.0877
 20
17.3115
 11
-42.8131
 21
17.0536
  0
LINE
  8
0
 10
-42.8131
 20
17.0536
 11
-42.5729
 21
16.7634
  0
LINE
  8
0
 10
-42.5729
 20
16.7634
 11
-42.3711
 21
16.4453
  0
LINE
  8
0
 10
-42.3711
 20
16.4453
 11
-42.2107
 21
16.1044
  0
LINE
  8
0
 10
-42.2107
 20
16.1044
 11
-42.0942
 21
15.7461
  0
LINE
  8
0
 10
-42.0942
 20
15.7461
 11
-42.0237
 21
15.376
  0
LINE
  8
0
 10
-42.0237
 20
15.376
 11
-42
 21
15
  0
LINE
  8
0
 10
-42
 20
15
 11
-42.0237
 21
14.624
  0
LINE
  8
0
 10
-42.0237
 20
14.624
 11
-42.0942
 21
14.2539
  0
LINE
  8
0
 10
-42.0942
 20
14.2539
 11
-42.2107
 21
13.8956
  0
LINE
  8
0
 10
-42.2107
 20
13.8956
 11
-42.3711
 21
13.5547
  0
LINE
  8
0
 10
-42.3711
 20
13.5547
 11
-42.5729
 21
13.2366
  0
LINE
  8
0
 10
-42.5729
 20
13.2366
 11
-42.8131
 21
12.9464
  0
LINE
  8
0
 10
-42.8131
 20
12.9464
 11
-43.0877
 21
12.6884
  0
LINE
  8
0
 10
-43.0877
 20
12.6884
 11
-43.3925
 21
12.467
  0
LINE
  8
0
 10
-43.3925
 20
12.467
 11
-43.7227
 21
12.2855
  0
LINE
  8
0
 10
-43.7227
 20
12.2855
 11
-44.0729
 21
12.1468
  0
LINE
  8
0
 10
-44.0729
 20
12.1468
 11
-44.4379
 21
12.0531
  0
LINE
  8
0
 10
-44.4379
 20
12.0531
 11
-44.8116
 21
12.0059
  0
LINE
  8
0
 10
-44.8116
 20
12.0059
 11
-45.1884
 21
12.0059
  0
LINE
  8
0
 10
-45.0942
 20
6.00294
 11
-45.2811
 21
6.02657
  0
LINE
  8
0
 10
-45.2811
 20
6.02657
 11
-45.4635
 21
6.07341
  0
LINE
  8
0
 10
-45.4635
 20
6.07341
 11
-45.6387
 21
6.14275
  0
LINE
  8
0
 10
-45.6387
 20
6.14275
 11
-45.8037
 21
6.23351
  0
LINE
  8
0
 10
-45.8037
 20
6.23351
 11
-45.9561
 21
6.34422
  0
LINE
  8
0
 10
-45.9561
 20
6.34422
 11
-46.0934
 21
6.47318
  0
LINE
  8
0
 10
-46.0934
 20
6.47318
 11
-46.2135
 21
6.61832
  0
LINE
  8
0
 10
-46.2135
 20
6.61832
 11
-46.3145
 21
6.77736
  0
LINE
  8
0
 10
-46.3145
 20
6.77736
 11
-46.3947
 21
6.9478
  0
LINE
  8
0
 10
-46.3947
 20
6.9478
 11
-46.4529
 21
7.12695
  0
LINE
  8
0
 10
-46.4529
 20
7.12695
 11
-46.4882
 21
7.312
  0
LINE
  8
0
 10
-46.4882
 20
7.312
 11
-46.5
 21
7.5
  0
LINE
  8
0
 10
-46.5
 20
7.5
 11
-46.4882
 21
7.68799
  0
LINE
  8
0
 10
-46.4882
 20
7.68799
 11
-46.4529
 21
7.87303
  0
LINE
  8
0
 10
-46.4529
 20
7.87303
 11
-46.3947
 21
8.05219
  0
LINE
  8
0
 10
-46.3947
 20
8.05219
 11
-46.3145
 21
8.22263
  0
LINE
  8
0
 10
-46.3145
 20
8.22263
 11
-46.2135
 21
8.38167
  0
LINE
  8
0
 10
-46.2135
 20
8.38167
 11
-46.0934
 21
8.52681
  0
LINE
  8
0
 10
-46.0934
 20
8.52681
 11
-45.9561
 21
8.65576
  0
LINE
  8
0
 10
-45.9561
 20
8.65576
 11
-45.8037
 21
8.76648
  0
LINE
  8
0
 10
-45.8037
 20
8.76648
 11
-45.6387
 21
8.85724
  0
LINE
  8
0
 10
-45.6387
 20
8.85724
 11
-45.4635
 21
8.92657
  0
LINE
  8
0
 10
-45.4635
 20
8.92657
 11
-45.2811
 21
8.97342
  0
LINE
  8
0
 10
-45.2811
 20
8.97342
 11
-45.0942
 21
8.99704
  0
LINE
  8
0
 10
-45.0942
 20
8.99704
 11
-44.9058
 21
8.99704
  0
LINE
  8
0
 10
-44.9058
 20
8.99704
 11
-44.7189
 21
8.97342
  0
LINE
  8
0
 10
-44.7189
 20
8.97342
 11
-44.5365
 21
8.92657
  0
LINE
  8
0
 10
-44.5365
 20
8.92657
 11
-44.3613
 21
8.85724
  0
LINE
  8
0
 10
-44.3613
 20
8.85724
 11
-44.1963
 21
8.76648
  0
LINE
  8
0
 10
-44.1963
 20
8.76648
 11
-44.0439
 21
8.65576
  0
LINE
  8
0
 10
-44.0439
 20
8.65576
 11
-43.9065
 21
8.52681
  0
LINE
  8
0
 10
-43.9065
 20
8.52681
 11
-43.7865
 21
8.38167
  0
LINE
  8
0
 10
-43.7865
 20
8.38167
 11
-43.6855
 21
8.22263
  0
LINE
  8
0
 10
-43.6855
 20
8.22263
 11
-43.6053
 21
8.05219
  0
LINE
  8
0
 10
-43.6053
 20
8.05219
 11
-43.5471
 21
7.87303
  0
LINE
  8
0
 10
-43.5471
 20
7.87303
 11
-43.5118
 21
7.68799
  0
LINE
  8
0
 10
-43.5118
 20
7.68799
 11
-43.5
 21
7.5
  0
LINE
  8
0
 10
-43.5
 20
7.5
 11
-43.5118
 21
7.312
  0
LINE
  8
0
 10
-43.5118
 20
7.312
 11
-43.5471
 21
7.12695
  0
LINE
  8
0
 10
-43.5471
 20
7.12695
 11
-43.6053
 21
6.9478
  0
LINE
  8
0
 10
-43.6053
 20
6.9478
 11
-43.6855
 21
6.77736
  0
LINE
  8
0
 10
-43.6855
 20
6.77736
 11
-43.7865
 21
6.61832
  0
LINE
  8
0
 10
-43.7865
 20
6.61832
 11
-43.9065
 21
6.47318
  0
LINE
  8
0
 10
-43.9065
 20
6.47318
 11
-44.0439
 21
6.34422
  0
LINE
  8
0
 10
-44.0439
 20
6.34422
 11
-44.1963
 21
6.23351
  0
LINE
  8
0
 10
-44.1963
 20
6.23351
 11
-44.3613
 21
6.14275
  0
LINE
  8
0
 10
-44.3613
 20
6.14275
 11
-44.5365
 21
6.07341
  0
LINE
  8
0
 10
-44.5365
 20
6.07341
 11
-44.7189
 21
6.02657
  0
LINE
  8
0
 10
-44.7189
 20
6.02657
 11
-44.9058
 21
6.00294
  0
LINE
  8
0
 10
-44.9058
 20
6.00294
 11
-45.0942
 21
6.00294
  0
LINE
  8
0
 10
44.9058
 20
6.00294
 11
44.7189
 21
6.02657
  0
LINE
  8
0
 10
44.7189
 20
6.02657
 11
44.5365
 21
6.07341
  0
LINE
  8
0
 10
44.5365
 20
6.07341
 11
44.3613
 21
6.14275
  0
LINE
  8
0
 10
44.3613
 20
6.14275
 11
44.1963
 21
6.23351
  0
LINE
  8
0
 10
44.1963
 20
6.23351
 11
44.0439
 21
6.34422
  0
LINE
  8
0
 10
44.0439
 20
6.34422
 11
43.9065
 21
6.47318
  0
LINE
  8
0
 10
43.9065
 20
6.47318
 11
43.7865
 21
6.61832
  0
LINE
  8
0
 10
43.7865
 20
6.61832
 11
43.6855
 21
6.77736
  0
LINE
  8
0
 10
43.6855
 20
6.77736
 11
43.6053
 21
6.9478
  0
LINE
  8
0
 10
43.6053
 20
6.9478
 11
43.5471
 21
7.12695
  0
LINE
  8
0
 10
43.5471
 20
7.12695
 11
43.5118
 21
7.312
  0
LINE
  8
0
 10
43.5118
 20
7.312
 11
43.5
 21
7.5
  0
LINE
  8
0
 10
43.5
 20
7.5
 11
43.5118
 21
7.68799
  0
LINE
  8
0
 10
43.5118
 20
7.68799
 11
43.5471
 21
7.87303
  0
LINE
  8
0
 10
43.5471
 20
7.87303
 11
43.6053
 21
8.05219
  0
LINE
  8
0
 10
43.6053
 20
8.05219
 11
43.6855
 21
8.22263
  0
LINE
  8
0
 10
43.6855
 20
8.22263
 11
43.7865
 21
8.38167
  0
LINE
  8
0
 10
43.7865
 20
8.38167
 11
43.9065
 21
8.52681
  0
LINE
  8
0
 10
43.9065
 20
8.52681
 11
44.0439
 21
8.65576
  0
LINE
  8
0
 10
44.0439
 20
8.65576
 11
44.1963
 21
8.76648
  0
LINE
  8
0
 10
44.1963
 20
8.76648
 11
44.3613
 21
8.85724
  0
LINE
  8
0
 10
44.3613
 20
8.85724
 11
44.5365
 21
8.92657
  0
LINE
  8
0
 10
44.5365
 20
8.92657
 11
44.7189
 21
8.97342
  0
LINE
  8
0
 10
44.7189
 20
8.97342
 11
44.9058
 21
8.99704
  0
LINE
  8
0
 10
44.9058
 20
8.99704
 11
45.0942
 21
8.99704
  0
LINE
  8
0
 10
45.0942
 20
8.99704
 11
45.2811
 21
8.97342
  0
LINE
  8
0
 10
45.2811
 20
8.97342
 11
45.4635
 21
8.92657
  0
LINE
  8
0
 10
45.4635
 20
8.92657
 11
45.6387
 21
8.85724
  0
LINE
  8
0
 10
45.6387
 20
8.85724
 11
45.8037
 21
8.76648
  0
LINE
  8
0
 10
45.8037
 20
8.76648
 11
45.9561
 21
8.65576
  0
LINE
  8
0
 10
45.9561
 20
8.65576
 11
46.0934
 21
8.52681
  0
LINE
  8
0
 10
46.0934
 20
8.52681
 11
46.2135
 21
8.38167
  0
LINE
  8
0
 10
46.2135
 20
8.38167
 11
46.3145
 21
8.22263
  0
LINE
  8
0
 10
46.3145
 20
8.22263
 11
46.3947
 21
8.05219
  0
LINE
  8
0
 10
46.3947
 20
8.05219
 11
46.4529
 21
7.87303
  0
LINE
  8
0
 10
46.4529
 20
7.87303
 11
46.4882
 21
7.68799
  0
LINE
  8
0
 10
46.4882
 20
7.68799
 11
46.5
 21
7.5
  0
LINE
  8
0
 10
46.5
 20
7.5
 11
46.4882
 21
7.312
  0
LINE
  8
0
 10
46.4882
 20
7.312
 11
46.4529
 21
7.12695
  0
LINE
  8
0
 10
46.4529
 20
7.12695
 11
46.3947
 21
6.9478
  0
LINE
  8
0
 10
46.3947
 20
6.9478
 11
46.3145
 21
6.77736
  0
LINE
  8
0
 10
46.3145
 20
6.77736
 11
46.2135
 21
6.61832
  0
LINE
  8
0
 10
46.2135
 20
6.61832
 11
46.0934
 21
6.47318
  0
LINE
  8
0
 10
46.0934
 20
6.47318
 11
45.9561
 21
6.34422
  0
LINE
  8
0
 10
45.9561
 20
6.34422
 11
45.8037
 21
6.23351
  0
LINE
  8
0
 10
45.8037
 20
6.23351
 11
45.6387
 21
6.14275
  0
LINE
  8
0
 10
45.6387
 20
6.14275
 11
45.4635
 21
6.07341
  0
LINE
  8
0
 10
45.4635
 20
6.07341
 11
45.2811
 21
6.02657
  0
LINE
  8
0
 10
45.2811
 20
6.02657
 11
45.0942
 21
6.00294
  0
LINE
  8
0
 10
45.0942
 20
6.00294
 11
44.9058
 21
6.00294
  0
LINE
  8
0
 10
-45.1884
 20
-2.99408
 11
-45.5621
 21
-2.94685
  0
LINE
  8
0
 10
-45.5621
 20
-2.94685
 11
-45.927
 21
-2.85316
  0
LINE
  8
0
 10
-45.927
 20
-2.85316
 11
-46.2773
 21
-2.71448
  0
LINE
  8
0
 10
-46.2773
 20
-2.71448
 11
-46.6075
 21
-2.53297
  0
LINE
  8
0
 10
-46.6075
 20
-2.53297
 11
-46.9123
 21
-2.31154
  0
LINE
  8
0
 10
-46.9123
 20
-2.31154
 11
-47.1869
 21
-2.05363
  0
LINE
  8
0
 10
-47.1869
 20
-2.05363
 11
-47.427
 21
-1.76335
  0
LINE
  8
0
 10
-47.427
 20
-1.76335
 11
-47.6289
 21
-1.44525
  0
LINE
  8
0
 10
-47.6289
 20
-1.44525
 11
-47.7893
 21
-1.10437
  0
LINE
  8
0
 10
-47.7893
 20
-1.10437
 11
-47.9057
 21
-0.746063
  0
LINE
  8
0
 10
-47.9057
 20
-0.746063
 11
-47.9763
 21
-0.375992
  0
LINE
  8
0
 10
-47.9763
 20
-0.375992
 11
-48
 21
0
  0
LINE
  8
0
 10
-48
 20
0
 11
-47.9763
 21
0.375992
  0
LINE
  8
0
 10
-47.9763
 20
0.375992
 11
-47.9057
 21
0.746063
  0
LINE
  8
0
 10
-47.9057
 20
0.746063
 11
-47.7893
 21
1.10437
  0
LINE
  8
0
 10
-47.7893
 20
1.10437
 11
-47.6289
 21
1.44525
  0
LINE
  8
0
 10
-47.6289
 20
1.44525
 11
-47.427
 21
1.76335
  0
LINE
  8
0
 10
-47.427
 20
1.76335
 11
-47.1869
 21
2.05363
  0
LINE
  8
0
 10
-47.1869
 20
2.05363
 11
-46.9123
 21
2.31154
  0
LINE
  8
0
 10
-46.9123
 20
2.31154
 11
-46.6075
 21
2.53297
  0
LINE
  8
0
 10
-46.6075
 20
2.53297
 11
-46.2773
 21
2.71448
  0
LINE
  8
0
 10
-46.2773
 20
2.71448
 11
-45.927
 21
2.85316
  0
LINE
  8
0
 10
-45.927
 20
2.85316
 11
-45.5621
 21
2.94685
  0
LINE
  8
0
 10
-45.5621
 20
2.94685
 11
-45.1884
 21
2.99408
  0
LINE
  8
0
 10
-45.1884
 20
2.99408
 11
-44.8116
 21
2.99408
  0
LINE
  8
0
 10
-44.8116
 20
2.99408
 11
-44.4379
 21
2.94685
  0
LINE
  8
0
 10
-44.4379
 20
2.94685
 11
-44.0729
 21
2.85316
  0
LINE
  8
0
 10
-44.0729
 20
2.85316
 11
-43.7227
 21
2.71448
  0
LINE
  8
0
 10
-43.7227
 20
2.71448
 11
-43.3925
 21
2.53297
  0
LINE
  8
0
 10
-43.3925
 20
2.53297
 11
-43.0877
 21
2.31154
  0
LINE
  8
0
 10
-43.0877
 20
2.31154
 11
-42.8131
 21
2.05363
  0
LINE
  8
0
 10
-42.8131
 20
2.05363
 11
-42.5729
 21
1.76335
  0
LINE
  8
0
 10
-42.5729
 20
1.76335
 11
-42.3711
 21
1.44525
  0
LINE
  8
0
 10
-42.3711
 20
1.44525
 11
-42.2107
 21
1.10437
  0
LINE
  8
0
 10
-42.2107
 20
1.10437
 11
-42.0942
 21
0.746063
  0
LINE
  8
0
 10
-42.0942
 20
0.746063
 11
-42.0237
 21
0.375992
  0
LINE
  8
0
 10
-42.0237
 20
0.375992
 11
-42
 21
0
  0
LINE
  8
0
 10
-42
 20
0
 11
-42.0237
 21
-0.375992
  0
LINE
  8
0
 10
-42.0237
 20
-0.375992
 11
-42.0942
 21
-0.746063
  0
LINE
  8
0
 10
-42.0942
 20
-0.746063
 11
-42.2107
 21
-1.10437
  0
LINE
  8
0
 10
-42.2107
 20
-1.10437
 11
-42.3711
 21
-1.44525
  0
LINE
  8
0
 10
-42.3711
 20
-1.44525
 11
-42.5729
 21
-1.76335
  0
LINE
  8
0
 10
-42.5729
 20
-1.76335
 11
-42.8131
 21
-2.05363
  0
LINE
  8
0
 10
-42.8131
 20
-2.05363
 11
-43.0877
 21
-2.31154
  0
LINE
  8
0
 10
-43.0877
 20
-2.31154
 11
-43.3925
 21
-2.53297
  0
LINE
  8
0
 10
-43.3925
 20
-2.53297
 11
-43.7227
 21
-2.71448
  0
LINE
  8
0
 10
-43.7227
 20
-2.71448
 11
-44.0729
 21
-2.85316
  0
LINE
  8
0
 10
-44.0729
 20
-2.85316
 11
-44.4379
 21
-2.94685
  0
LINE
  8
0
 10
-44.4379
 20
-2.94685
 11
-44.8116
 21
-2.99408
  0
LINE
  8
0
 10
-44.8116
 20
-2.99408
 11
-45.1884
 21
-2.99408
  0
LINE
  8
0
 10
44.8116
 20
-2.99408
 11
44.4379
 21
-2.94685
  0
LINE
  8
0
 10
44.4379
 20
-2.94685
 11
44.0729
 21
-2.85316
  0
LINE
  8
0
 10
44.0729
 20
-2.85316
 11
43.7227
 21
-2.71448
  0
LINE
  8
0
 10
43.7227
 20
-2.71448
 11
43.3925
 21
-2.53297
  0
LINE
  8
0
 10
43.3925
 20
-2.53297
 11
43.0877
 21
-2.31154
  0
LINE
  8
0
 10
43.0877
 20
-2.31154
 11
42.8131
 21
-2.05363
  0
LINE
  8
0
 10
42.8131
 20
-2.05363
 11
42.5729
 21
-1.76335
  0
LINE
  8
0
 10
42.5729
 20
-1.76335
 11
42.3711
 21
-1.44525
  0
LINE
  8
0
 10
42.3711
 20
-1.44525
 11
42.2107
 21
-1.10437
  0
LINE
  8
0
 10
42.2107
 20
-1.10437
 11
42.0942
 21
-0.746063
  0
LINE
  8
0
 10
42.0942
 20
-0.746063
 11
42.0237
 21
-0.375992
  0
LINE
  8
0
 10
42.0237
 20
-0.375992
 11
42
 21
0
  0
LINE
  8
0
 10
42
 20
0
 11
42.0237
 21
0.375992
  0
LINE
  8
0
 10
42.0237
 20
0.375992
 11
42.0942
 21
0.746063
  0
LINE
  8
0
 10
42.0942
 20
0.746063
 11
42.2107
 21
1.10437
  0
LINE
  8
0
 10
42.2107
 20
1.10437
 11
42.3711
 21
1.44525
  0
LINE
  8
0
 10
42.3711
 20
1.44525
 11
42.5729
 21
1.76335
  0
LINE
  8
0
 10
42.5729
 20
1.76335
 11
42.8131
 21
2.05363
  0
LINE
  8
0
 10
42.8131
 20
2.05363
 11
43.0877
 21
2.31154
  0
LINE
  8
0
 10
43.0877
 20
2.31154
 11
43.3925
 21
2.53297
  0
LINE
  8
0
 10
43.3925
 20
2.53297
 11
43.7227
 21
2.71448
  0
LINE
  8
0
 10
43.7227
 20
2.71448
 11
44.0729
 21
2.85316
  0
LINE
  8
0
 10
44.0729
 20
2.85316
 11
44.4379
 21
2.94685
  0
LINE
  8
0
 10
44.4379
 20
2.94685
 11
44.8116
 21
2.99408
  0
LINE
  8
0
 10
44.8116
 20
2.99408
 11
45.1884
 21
2.99408
  0
LINE
  8
0
 10
45.1884
 20
2.99408
 11
45.5621
 21
2.94685
  0
LINE
  8
0
 10
45.5621
 20
2.94685
 11
45.927
 21
2.85316
  0
LINE
  8
0
 10
45.927
 20
2.85316
 11
46.2773
 21
2.71448
  0
LINE
  8
0
 10
46.2773
 20
2.71448
 11
46.6075
 21
2.53297
  0
LINE
  8
0
 10
46.6075
 20
2.53297
 11
46.9123
 21
2.31154
  0
LINE
  8
0
 10
46.9123
 20
2.31154
 11
47.1869
 21
2.05363
  0
LINE
  8
0
 10
47.1869
 20
2.05363
 11
47.427
 21
1.76335
  0
LINE
  8
0
 10
47.427
 20
1.76335
 11
47.6289
 21
1.44525
  0
LINE
  8
0
 10
47.6289
 20
1.44525
 11
47.7893
 21
1.10437
  0
LINE
  8
0
 10
47.7893
 20
1.10437
 11
47.9057
 21
0.746063
  0
LINE
  8
0
 10
47.9057
 20
0.746063
 11
47.9763
 21
0.375992
  0
LINE
  8
0
 10
47.9763
 20
0.375992
 11
48
 21
0
  0
LINE
  8
0
 10
48
 20
0
 11
47.9763
 21
-0.375992
  0
LINE
  8
0
 10
47.9763
 20
-0.375992
 11
47.9057
 21
-0.746063
  0
LINE
  8
0
 10
47.9057
 20
-0.746063
 11
47.7893
 21
-1.10437
  0
LINE
  8
0
 10
47.7893
 20
-1.10437
 11
47.6289
 21
-1.44525
  0
LINE
  8
0
 10
47.6289
 20
-1.44525
 11
47.427
 21
-1.76335
  0
LINE
  8
0
 10
47.427
 20
-1.76335
 11
47.1869
 21
-2.05363
  0
LINE
  8
0
 10
47.1869
 20
-2.05363
 11
46.9123
 21
-2.31154
  0
LINE
  8
0
 10
46.9123
 20
-2.31154
 11
46.6075
 21
-2.53297
  0
LINE
  8
0
 10
46.6075
 20
-2.53297
 11
46.2773
 21
-2.71448
  0
LINE
  8
0
 10
46.2773
 20
-2.71448
 11
45.927
 21
-2.85316
  0
LINE
  8
0
 10
45.927
 20
-2.85316
 11
45.5621
 21
-2.94685
  0
LINE
  8
0
 10
45.5621
 20
-2.94685
 11
45.1884
 21
-2.99408
  0
LINE
  8
0
 10
45.1884
 20
-2.99408
 11
44.8116
 21
-2.99408
  0
LINE
  8
0
 10
-45.0942
 20
-8.99704
 11
-45.2811
 21
-8.97342
  0
LINE
  8
0
 10
-45.2811
 20
-8.97342
 11
-45.4635
 21
-8.92657
  0
LINE
  8
0
 10
-45.4635
 20
-8.92657
 11
-45.6387
 21
-8.85724
  0
LINE
  8
0
 10
-45.6387
 20
-8.85724
 11
-45.8037
 21
-8.76648
  0
LINE
  8
0
 10
-45.8037
 20
-8.76648
 11
-45.9561
 21
-8.65576
  0
LINE
  8
0
 10
-45.9561
 20
-8.65576
 11
-46.0934
 21
-8.52681
  0
LINE
  8
0
 10
-46.0934
 20
-8.52681
 11
-46.2135
 21
-8.38167
  0
LINE
  8
0
 10
-46.2135
 20
-8.38167
 11
-46.3145
 21
-8.22263
  0
LINE
  8
0
 10
-46.3145
 20
-8.22263
 11
-46.3947
 21
-8.05219
  0
LINE
  8
0
 10
-46.3947
 20
-8.05219
 11
-46.4529
 21
-7.87303
  0
LINE
  8
0
 10
-46.4529
 20
-7.87303
 11
-46.4882
 21
-7.68799
  0
LINE
  8
0
 10
-46.4882
 20
-7.68799
 11
-46.5
 21
-7.5
  0
LINE
  8
0
 10
-46.5
 20
-7.5
 11
-46.4882
 21
-7.312
  0
LINE
  8
0
 10
-46.4882
 20
-7.312
 11
-46.4529
 21
-7.12695
  0
LINE
  8
0
 10
-46.4529
 20
-7.12695
 11
-46.3947
 21
-6.9478
  0
LINE
  8
0
 10
-46.3947
 20
-6.9478
 11
-46.3145
 21
-6.77736
  0
LINE
  8
0
 10
-46.3145
 20
-6.77736
 11
-46.2135
 21
-6.61832
  0
LINE
  8
0
 10
-46.2135
 20
-6.61832
 11
-46.0934
 21
-6.47318
  0
LINE
  8
0
 10
-46.0934
 20
-6.47318
 11
-45.9561
 21
-6.34422
  0
LINE
  8
0
 10
-45.9561
 20
-6.34422
 11
-45.8037
 21
-6.23351
  0
LINE
  8
0
 10
-45.8037
 20
-6.23351
 11
-45.6387
 21
-6.14275
  0
LINE
  8
0
 10
-45.6387
 20
-6.14275
 11
-45.4635
 21
-6.07341
  0
LINE
  8
0
 10
-45.4635
 20
-6.07341
 11
-45.2811
 21
-6.02657
  0
LINE
  8
0
 10
-45.2811
 20
-6.02657
 11
-45.0942
 21
-6.00294
  0
LINE
  8
0
 10
-45.0942
 20
-6.00294
 11
-44.9058
 21
-6.00294
  0
LINE
  8
0
 10
-44.9058
 20
-6.00294
 11
-44.7189
 21
-6.02657
  0
LINE
  8
0
 10
-44.7189
 20
-6.02657
 11
-44.5365
 21
-6.07341
  0
LINE
  8
0
 10
-44.5365
 20
-6.07341
 11
-44.3613
 21
-6.14275
  0
LINE
  8
0
 10
-44.3613
 20
-6.14275
 11
-44.1963
 21
-6.23351
  0
LINE
  8
0
 10
-44.1963
 20
-6.23351
 11
-44.0439
 21
-6.34422
  0
LINE
  8
0
 10
-44.0439
 20
-6.34422
 11
-43.9065
 21
-6.47318
  0
LINE
  8
0
 10
-43.9065
 20
-6.47318
 11
-43.7865
 21
-6.61832
  0
LINE
  8
0
 10
-43.7865
 20
-6.61832
 11
-43.6855
 21
-6.77736
  0
LINE
  8
0
 10
-43.6855
 20
-6.77736
 11
-43.6053
 21
-6.9478
  0
LINE
  8
0
 10
-43.6053
 20
-6.9478
 11
-43.5471
 21
-7.12695
  0
LINE
  8
0
 10
-43.5471
 20
-7.12695
 11
-43.5118
 21
-7.312
  0
LINE
  8
0
 10
-43.5118
 20
-7.312
 11
-43.5
 21
-7.5
  0
LINE
  8
0
 10
-43.5
 20
-7.5
 11
-43.5118
 21
-7.68799
  0
LINE
  8
0
 10
-43.5118
 20
-7.68799
 11
-43.5471
 21
-7.87303
  0
LINE
  8
0
 10
-43.5471
 20
-7.87303
 11
-43.6053
 21
-8.05219
  0
LINE
  8
0
 10
-43.6053
 20
-8.05219
 11
-43.6855
 21
-8.22263
  0
LINE
  8
0
 10
-43.6855
 20
-8.22263
 11
-43.7865
 21
-8.38167
  0
LINE
  8
0
 10
-43.7865
 20
-8.38167
 11
-43.9065
 21
-8.52681
  0
LINE
  8
0
 10
-43.9065
 20
-8.52681
 11
-44.0439
 21
-8.65576
  0
LINE
  8
0
 10
-44.0439
 20
-8.65576
 11
-44.1963
 21
-8.76648
  0
LINE
  8
0
 10
-44.1963
 20
-8.76648
 11
-44.3613
 21
-8.85724
  0
LINE
  8
0
 10
-44.3613
 20
-8.85724
 11
-44.5365
 21
-8.92657
  0
LINE
  8
0
 10
-44.5365
 20
-8.92657
 11
-44.7189
 21
-8.97342
  0
LINE
  8
0
 10
-44.7189
 20
-8.97342
 11
-44.9058
 21
-8.99704
  0
LINE
  8
0
 10
-44.9058
 20
-8.99704
 11
-45.0942
 21
-8.99704
  0
LINE
  8
0
 10
44.9058
 20
-8.99704
 11
44.7189
 21
-8.97342
  0
LINE
  8
0
 10
44.7189
 20
-8.97342
 11
44.5365
 21
-8.92657
  0
LINE
  8
0
 10
44.5365
 20
-8.92657
 11
44.3613
 21
-8.85724
  0
LINE
  8
0
 10
44.3613
 20
-8.85724
 11
44.1963
 21
-8.76648
  0
LINE
  8
0
 10
44.1963
 20
-8.76648
 11
44.0439
 21
-8.65576
  0
LINE
  8
0
 10
44.0439
 20
-8.65576
 11
43.9065
 21
-8.52681
  0
LINE
  8
0
 10
43.9065
 20
-8.52681
 11
43.7865
 21
-8.38167
  0
LINE
  8
0
 10
43.7865
 20
-8.38167
 11
43.6855
 21
-8.22263
  0
LINE
  8
0
 10
43.6855
 20
-8.22263
 11
43.6053
 21
-8.05219
  0
LINE
  8
0
 10
43.6053
 20
-8.05219
 11
43.5471
 21
-7.87303
  0
LINE
  8
0
 10
43.5471
 20
-7.87303
 11
43.5118
 21
-7.68799
  0
LINE
  8
0
 10
43.5118
 20
-7.68799
 11
43.5
 21
-7.5
  0
LINE
  8
0
 10
43.5
 20
-7.5
 11
43.5118
 21
-7.312
  0
LINE
  8
0
 10
43.5118
 20
-7.312
 11
43.5471
 21
-7.12695
  0
LINE
  8
0
 10
43.5471
 20
-7.12695
 11
43.6053
 21
-6.9478
  0
LINE
  8
0
 10
43.6053
 20
-6.9478
 11
43.6855
 21
-6.77736
  0
LINE
  8
0
 10
43.6855
 20
-6.77736
 11
43.7865
 21
-6.61832
  0
LINE
  8
0
 10
43.7865
 20
-6.61832
 11
43.9065
 21
-6.47318
  0
LINE
  8
0
 10
43.9065
 20
-6.47318
 11
44.0439
 21
-6.34422
  0
LINE
  8
0
 10
44.0439
 20
-6.34422
 11
44.1963
 21
-6.23351
  0
LINE
  8
0
 10
44.1963
 20
-6.23351
 11
44.3613
 21
-6.14275
  0
LINE
  8
0
 10
44.3613
 20
-6.14275
 11
44.5365
 21
-6.07341
  0
LINE
  8
0
 10
44.5365
 20
-6.07341
 11
44.7189
 21
-6.02657
  0
LINE
  8
0
 10
44.7189
 20
-6.02657
 11
44.9058
 21
-6.00294
  0
LINE
  8
0
 10
44.9058
 20
-6.00294
 11
45.0942
 21
-6.00294
  0
LINE
  8
0
 10
45.0942
 20
-6.00294
 11
45.2811
 21
-6.02657
  0
LINE
  8
0
 10
45.2811
 20
-6.02657
 11
45.4635
 21
-6.07341
  0
LINE
  8
0
 10
45.4635
 20
-6.07341
 11
45.6387
 21
-6.14275
  0
LINE
  8
0
 10
45.6387
 20
-6.14275
 11
45.8037
 21
-6.23351
  0
LINE
  8
0
 10
45.8037
 20
-6.23351
 11
45.9561
 21
-6.34422
  0
LINE
  8
0
 10
45.9561
 20
-6.34422
 11
46.0934
 21
-6.47318
  0
LINE
  8
0
 10
46.0934
 20
-6.47318
 11
46.2135
 21
-6.61832
  0
LINE
  8
0
 10
46.2135
 20
-6.61832
 11
46.3145
 21
-6.77736
  0
LINE
  8
0
 10
46.3145
 20
-6.77736
 11
46.3947
 21
-6.9478
  0
LINE
  8
0
 10
46.3947
 20
-6.9478
 11
46.4529
 21
-7.12695
  0
LINE
  8
0
 10
46.4529
 20
-7.12695
 11
46.4882
 21
-7.312
  0
LINE
  8
0
 10
46.4882
 20
-7.312
 11
46.5
 21
-7.5
  0
LINE
  8
0
 10
46.5
 20
-7.5
 11
46.4882
 21
-7.68799
  0
LINE
  8
0
 10
46.4882
 20
-7.68799
 11
46.4529
 21
-7.87303
  0
LINE
  8
0
 10
46.4529
 20
-7.87303
 11
46.3947
 21
-8.05219
  0
LINE
  8
0
 10
46.3947
 20
-8.05219
 11
46.3145
 21
-8.22263
  0
LINE
  8
0
 10
46.3145
 20
-8.22263
 11
46.2135
 21
-8.38167
  0
LINE
  8
0
 10
46.2135
 20
-8.38167
 11
46.0934
 21
-8.52681
  0
LINE
  8
0
 10
46.0934
 20
-8.52681
 11
45.9561
 21
-8.65576
  0
LINE
  8
0
 10
45.9561
 20
-8.65576
 11
45.8037
 21
-8.76648
  0
LINE
  8
0
 10
45.8037
 20
-8.76648
 11
45.6387
 21
-8.85724
  0
LINE
  8
0
 10
45.6387
 20
-8.85724
 11
45.4635
 21
-8.92657
  0
LINE
  8
0
 10
45.4635
 20
-8.92657
 11
45.2811
 21
-8.97342
  0
LINE
  8
0
 10
45.2811
 20
-8.97342
 11
45.0942
 21
-8.99704
  0
LINE
  8
0
 10
45.0942
 20
-8.99704
 11
44.9058
 21
-8.99704
  0
LINE
  8
0
 10
-45.1884
 20
-17.9941
 11
-45.5621
 21
-17.9469
  0
LINE
  8
0
 10
-45.5621
 20
-17.9469
 11
-45.927
 21
-17.8532
  0
LINE
  8
0
 10
-45.927
 20
-17.8532
 11
-46.2773
 21
-17.7145
  0
LINE
  8
0
 10
-46.2773
 20
-17.7145
 11
-46.6075
 21
-17.533
  0
LINE
  8
0
 10
-46.6075
 20
-17.533
 11
-46.9123
 21
-17.3115
  0
LINE
  8
0
 10
-46.9123
 20
-17.3115
 11
-47.1869
 21
-17.0536
  0
LINE
  8
0
 10
-47.1869
 20
-17.0536
 11
-47.427
 21
-16.7634
  0
LINE
  8
0
 10
-47.427
 20
-16.7634
 11
-47.6289
 21
-16.4453
  0
LINE
  8
0
 10
-47.6289
 20
-16.4453
 11
-47.7893
 21
-16.1044
  0
LINE
  8
0
 10
-47.7893
 20
-16.1044
 11
-47.9057
 21
-15.7461
  0
LINE
  8
0
 10
-47.9057
 20
-15.7461
 11
-47.9763
 21
-15.376
  0
LINE
  8
0
 10
-47.9763
 20
-15.376
 11
-48
 21
-15
  0
LINE
  8
0
 10
-48
 20
-15
 11
-47.9763
 21
-14.624
  0
LINE
  8
0
 10
-47.9763
 20
-14.624
 11
-47.9057
 21
-14.2539
  0
LINE
  8
0
 10
-47.9057
 20
-14.2539
 11
-47.7893
 21
-13.8956
  0
LINE
  8
0
 10
-47.7893
 20
-13.8956
 11
-47.6289
 21
-13.5547
  0
LINE
  8
0
 10
-47.6289
 20
-13.5547
 11
-47.427
 21
-13.2366
  0
LINE
  8
0
 10
-47.427
 20
-13.2366
 11
-47.1869
 21
-12.9464
  0
LINE
  8
0
 10
-47.1869
 20
-12.9464
 11
-46.9123
 21
-12.6884
  0
LINE
  8
0
 10
-46.9123
 20
-12.6884
 11
-46.6075
 21
-12.467
  0
LINE
  8
0
 10
-46.6075
 20
-12.467
 11
-46.2773
 21
-12.2855
  0
LINE
  8
0
 10
-46.2773
 20
-12.2855
 11
-45.927
 21
-12.1468
  0
LINE
  8
0
 10
-45.927
 20
-12.1468
 11
-45.5621
 21
-12.0531
  0
LINE
  8
0
 10
-45.5621
 20
-12.0531
 11
-45.1884
 21
-12.0059
  0
LINE
  8
0
 10
-45.1884
 20
-12.0059
 11
-44.8116
 21
-12.0059
  0
LINE
  8
0
 10
-44.8116
 20
-12.0059
 11
-44.4379
 21
-12.0531
  0
LINE
  8
0
 10
-44.4379
 20
-12.0531
 11
-44.0729
 21
-12.1468
  0
LINE
  8
0
 10
-44.0729
 20
-12.1468
 11
-43.7227
 21
-12.2855
  0
LINE
  8
0
 10
-43.7227
 20
-12.2855
 11
-43.3925
 21
-12.467
  0
LINE
  8
0
 10
-43.3925
 20
-12.467
 11
-43.0877
 21
-12.6884
  0
LINE
  8
0
 10
-43.0877
 20
-12.6884
 11
-42.8131
 21
-12.9464
  0
LINE
  8
0
 10
-42.8131
 20
-12.9464
 11
-42.5729
 21
-13.2366
  0
LINE
  8
0
 10
-42.5729
 20
-13.2366
 11
-42.3711
 21
-13.5547
  0
LINE
  8
0
 10
-42.3711
 20
-13.5547
 11
-42.2107
 21
-13.8956
  0
LINE
  8
0
 10
-42.2107
 20
-13.8956
 11
-42.0942
 21
-14.2539
  0
LINE
  8
0
 10
-42.0942
 20
-14.2539
 11
-42.0237
 21
-14.624
  0
LINE
  8
0
 10
-42.0237
 20
-14.624
 11
-42
 21
-15
  0
LINE
  8
0
 10
-42
 20
-15
 11
-42.0237
 21
-15.376
  0
LINE
  8
0
 10
-42.0237
 20
-15.376
 11
-42.0942
 21
-15.7461
  0
LINE
  8
0
 10
-42.0942
 20
-15.7461
 11
-42.2107
 21
-16.1044
  0
LINE
  8
0
 10
-42.2107
 20
-16.1044
 11
-42.3711
 21
-16.4453
  0
LINE
  8
0
 10
-42.3711
 20
-16.4453
 11
-42.5729
 21
-16.7634
  0
LINE
  8
0
 10
-42.5729
 20
-16.7634
 11
-42.8131
 21
-17.0536
  0
LINE
  8
0
 10
-42.8131
 20
-17.0536
 11
-43.0877
 21
-17.3115
  0
LINE
  8
0
 10
-43.0877
 20
-17.3115
 11
-43.3925
 21
-17.533
  0
LINE
  8
0
 10
-43.3925
 20
-17.533
 11
-43.7227
 21
-17.7145
  0
LINE
  8
0
 10
-43.7227
 20
-17.7145
 11
-44.0729
 21
-17.8532
  0
LINE
  8
0
 10
-44.0729
 20
-17.8532
 11
-44.4379
 21
-17.9469
  0
LINE
  8
0
 10
-44.4379
 20
-17.9469
 11
-44.8116
 21
-17.9941
  0
LINE
  8
0
 10
-44.8116
 20
-17.9941
 11
-45.1884
 21
-17.9941
  0
LINE
  8
0
 10
44.8116
 20
-17.9941
 11
44.4379
 21
-17.9469
  0
LINE
  8
0
 10
44.4379
 20
-17.9469
 11
44.0729
 21
-17.8532
  0
LINE
  8
0
 10
44.0729
 20
-17.8532
 11
43.7227
 21
-17.7145
  0
LINE
  8
0
 10
43.7227
 20
-17.7145
 11
43.3925
 21
-17.533
  0
LINE
  8
0
 10
43.3925
 20
-17.533
 11
43.0877
 21
-17.3115
  0
LINE
  8
0
 10
43.0877
 20
-17.3115
 11
42.8131
 21
-17.0536
  0
LINE
  8
0
 10
42.8131
 20
-17.0536
 11
42.5729
 21
-16.7634
  0
LINE
  8
0
 10
42.5729
 20
-16.7634
 11
42.3711
 21
-16.4453
  0
LINE
  8
0
 10
42.3711
 20
-16.4453
 11
42.2107
 21
-16.1044
  0
LINE
  8
0
 10
42.2107
 20
-16.1044
 11
42.0942
 21
-15.7461
  0
LINE
  8
0
 10
42.0942
 20
-15.7461
 11
42.0237
 21
-15.376
  0
LINE
  8
0
 10
42.0237
 20
-15.376
 11
42
 21
-15
  0
LINE
  8
0
 10
42
 20
-15
 11
42.0237
 21
-14.624
  0
LINE
  8
0
 10
42.0237
 20
-14.624
 11
42.0942
 21
-14.2539
  0
LINE
  8
0
 10
42.0942
 20
-14.2539
 11
42.2107
 21
-13.8956
  0
LINE
  8
0
 10
42.2107
 20
-13.8956
 11
42.3711
 21
-13.5547
  0
LINE
  8
0
 10
42.3711
 20
-13.5547
 11
42.5729
 21
-13.2366
  0
LINE
  8
0
 10
42.5729
 20
-13.2366
 11
42.8131
 21
-12.9464
  0
LINE
  8
0
 10
42.8131
 20
-12.9464
 11
43.0877
 21
-12.6884
  0
LINE
  8
0
 10
43.0877
 20
-12.6884
 11
43.3925
 21
-12.467
  0
LINE
  8
0
 10
43.3925
 20
-12.467
 11
43.7227
 21
-12.2855
  0
LINE
  8
0
 10
43.7227
 20
-12.2855
 11
44.0729
 21
-12.1468
  0
LINE
  8
0
 10
44.0729
 20
-12.1468
 11
44.4379
 21
-12.0531
  0
LINE
  8
0
 10
44.4379
 20
-12.0531
 11
44.8116
 21
-12.0059
  0
LINE
  8
0
 10
44.8116
 20
-12.0059
 11
45.1884
 21
-12.0059
  0
LINE
  8
0
 10
45.1884
 20
-12.0059
 11
45.5621
 21
-12.0531
  0
LINE
  8
0
 10
45.5621
 20
-12.0531
 11
45.927
 21
-12.1468
  0
LINE
  8
0
 10
45.927
 20
-12.1468
 11
46.2773
 21
-12.2855
  0
LINE
  8
0
 10
46.2773
 20
-12.2855
 11
46.6075
 21
-12.467
  0
LINE
  8
0
 10
46.6075
 20
-12.467
 11
46.9123
 21
-12.6884
  0
LINE
  8
0
 10
46.9123
 20
-12.6884
 11
47.1869
 21
-12.9464
  0
LINE
  8
0
 10
47.1869
 20
-12.9464
 11
47.427
 21
-13.2366
  0
LINE
  8
0
 10
47.427
 20
-13.2366
 11
47.6289
 21
-13.5547
  0
LINE
  8
0
 10
47.6289
 20
-13.5547
 11
47.7893
 21
-13.8956
  0
LINE
  8
0
 10
47.7893
 20
-13.8956
 11
47.9057
 21
-14.2539
  0
LINE
  8
0
 10
47.9057
 20
-14.2539
 11
47.9763
 21
-14.624
  0
LINE
  8
0
 10
47.9763
 20
-14.624
 11
48
 21
-15
  0
LINE
  8
0
 10
48
 20
-15
 11
47.9763
 21
-15.376
  0
LINE
  8
0
 10
47.9763
 20
-15.376
 11
47.9057
 21
-15.7461
  0
LINE
  8
0
 10
47.9057
 20
-15.7461
 11
47.7893
 21
-16.1044
  0
LINE
  8
0
 10
47.7893
 20
-16.1044
 11
47.6289
 21
-16.4453
  0
LINE
  8
0
 10
47.6289
 20
-16.4453
 11
47.427
 21
-16.7634
  0
LINE
  8
0
 10
47.427
 20
-16.7634
 11
47.1869
 21
-17.0536
  0
LINE
  8
0
 10
47.1869
 20
-17.0536
 11
46.9123
 21
-17.3115
  0
LINE
  8
0
 10
46.9123
 20
-17.3115
 11
46.6075
 21
-17.533
  0
LINE
  8
0
 10
46.6075
 20
-17.533
 11
46.2773
 21
-17.7145
  0
LINE
  8
0
 10
46.2773
 20
-17.7145
 11
45.927
 21
-17.8532
  0
LINE
  8
0
 10
45.927
 20
-17.8532
 11
45.5621
 21
-17.9469
  0
LINE
  8
0
 10
45.5621
 20
-17.9469
 11
45.1884
 21
-17.9941
  0
LINE
  8
0
 10
45.1884
 20
-17.9941
 11
44.8116
 21
-17.9941
  0
ENDSEC
  0
SECTION
  2
OBJECTS
  0
DICTIONARY
  0
ENDSEC
  0
EOF
