<?xml version="1.0" standalone="no"?>
<!DOCTYPE svg PUBLIC "-//W3C//DTD SVG 1.1//EN" "http://www.w3.org/Graphics/SVG/1.1/DTD/svg11.dtd">
<svg width="104mm" height="44mm" viewBox="-52 -76 104 44" xmlns="http://www.w3.org/2000/svg" version="1.1">
<title>OpenSCAD Model</title>
<path d="
M 47.9369,-32.0886 L 48.5451,-32.2447 L 49.1289,-32.4759 L 49.6791,-32.7784 L 50.1871,-33.1474 L 50.6448,-33.5773
 L 51.0451,-34.0611 L 51.3815,-34.5912 L 51.6489,-35.1594 L 51.8429,-35.7566 L 51.9606,-36.3733 L 52,-37
 L 52,-71 L 51.9606,-71.6267 L 51.8429,-72.2434 L 51.6489,-72.8406 L 51.3815,-73.4088 L 51.0451,-73.9389
 L 50.6448,-74.4227 L 50.1871,-74.8526 L 49.6791,-75.2216 L 49.1289,-75.5241 L 48.5451,-75.7553 L 47.9369,-75.9114
 L 47.3139,-75.9901 L -47.3139,-75.9901 L -47.9369,-75.9114 L -48.5451,-75.7553 L -49.1289,-75.5241 L -49.6791,-75.2216
 L -50.1871,-74.8526 L -50.6448,-74.4227 L -51.0451,-73.9389 L -51.3815,-73.4088 L -51.6489,-72.8406 L -51.8429,-72.2434
 L -51.9606,-71.6267 L -52,-71 L -52,-37 L -51.9606,-36.3733 L -51.8429,-35.7566 L -51.6489,-35.1594
 L -51.3815,-34.5912 L -51.0451,-34.0611 L -50.6448,-33.5773 L -50.1871,-33.1474 L -49.6791,-32.7784 L -49.1289,-32.4759
 L -48.5451,-32.2447 L -47.9369,-32.0886 L -47.3139,-32.0099 L 47.3139,-32.0099 z
M 44.8116,-66.0059 L 44.4379,-66.0531 L 44.0729,-66.1468 L 43.7227,-66.2855 L 43.3925,-66.467 L 43.0877,-66.6884
 L 42.8131,-66.9464 L 42.5729,-67.2366 L 42.3711,-67.5547 L 42.2107,-67.8956 L 42.0942,-68.2539 L 42.0237,-68.624
 L 42,-69 L 42.0237,-69.376 L 42.0942,-69.7461 L 42.2107,-70.1044 L 42.3711,-70.4453 L 42.5729,-70.7634
 L 42.8131,-71.0536 L 43.0877,-71.3115 L 43.3925,-71.533 L 43.7227,-71.7145 L 44.0729,-71.8532 L 44.4379,-71.9469
 L 44.8116,-71.9941 L 45.1884,-71.9941 L 45.5621,-71.9469 L 45.927,-71.8532 L 46.2773,-71.7145 L 46.6075,-71.533
 L 46.9123,-71.3115 L 47.1869,-71.0536 L 47.427,-70.7634 L 47.6289,-70.4453 L 47.7893,-70.1044 L 47.9057,-69.7461
 L 47.9763,-69.376 L 48,-69 L 47.9763,-68.624 L 47.9057,-68.2539 L 47.7893,-67.8956 L 47.6289,-67.5547
 L 47.427,-67.2366 L 47.1869,-66.9464 L 46.9123,-66.6884 L 46.6075,-66.467 L 46.2773,-66.2855 L 45.927,-66.1468
 L 45.5621,-66.0531 L 45.1884,-66.0059 z
M -45.1884,-66.0059 L -45.5621,-66.0531 L -45.927,-66.1468 L -46.2773,-66.2855 L -46.6075,-66.467 L -46.9123,-66.6884
 L -47.1869,-66.9464 L -47.427,-67.2366 L -47.6289,-67.5547 L -47.7893,-67.8956 L -47.9057,-68.2539 L -47.9763,-68.624
 L -48,-69 L -47.9763,-69.376 L -47.9057,-69.7461 L -47.7893,-70.1044 L -47.6289,-70.4453 L -47.427,-70.7634
 L -47.1869,-71.0536 L -46.9123,-71.3115 L -46.6075,-71.533 L -46.2773,-71.7145 L -45.927,-71.8532 L -45.5621,-71.9469
 L -45.1884,-71.9941 L -44.8116,-71.9941 L -44.4379,-71.9469 L -44.0729,-71.8532 L -43.7227,-71.7145 L -43.3925,-71.533
 L -43.0877,-71.3115 L -42.8131,-71.0536 L -42.5729,-70.7634 L -42.3711,-70.4453 L -42.2107,-70.1044 L -42.0942,-69.7461
 L -42.0237,-69.376 L -42,-69 L -42.0237,-68.624 L -42.0942,-68.2539 L -42.2107,-67.8956 L -42.3711,-67.5547
 L -42.5729,-67.2366 L -42.8131,-66.9464 L -43.0877,-66.6884 L -43.3925,-66.467 L -43.7227,-66.2855 L -44.0729,-66.1468
 L -44.4379,-66.0531 L -44.8116,-66.0059 z
M 14.8116,-66.0059 L 14.4379,-66.0531 L 14.0729,-66.1468 L 13.7227,-66.2855 L 13.3925,-66.467 L 13.0877,-66.6884
 L 12.8131,-66.9464 L 12.5729,-67.2366 L 12.3711,-67.5547 L 12.2107,-67.8956 L 12.0942,-68.2539 L 12.0237,-68.624
 L 12,-69 L 12.0237,-69.376 L 12.0942,-69.7461 L 12.2107,-70.1044 L 12.3711,-70.4453 L 12.5729,-70.7634
 L 12.8131,-71.0536 L 13.0877,-71.3115 L 13.3925,-71.533 L 13.7227,-71.7145 L 14.0729,-71.8532 L 14.4379,-71.9469
 L 14.8116,-71.9941 L 15.1884,-71.9941 L 15.5621,-71.9469 L 15.927,-71.8532 L 16.2773,-71.7145 L 16.6075,-71.533
 L 16.9123,-71.3115 L 17.1869,-71.0536 L 17.427,-70.7634 L 17.6289,-70.4453 L 17.7893,-70.1044 L 17.9057,-69.7461
 L 17.9763,-69.376 L 18,-69 L 17.9763,-68.624 L 17.9057,-68.2539 L 17.7893,-67.8956 L 17.6289,-67.5547
 L 17.427,-67.2366 L 17.1869,-66.9464 L 16.9123,-66.6884 L 16.6075,-66.467 L 16.2773,-66.2855 L 15.927,-66.1468
 L 15.5621,-66.0531 L 15.1884,-66.0059 z
M -0.18837,-66.0059 L -0.562134,-66.0531 L -0.927048,-66.1468 L -1.27733,-66.2855 L -1.60747,-66.467 L -1.91226,-66.6884
 L -2.1869,-66.9464 L -2.42705,-67.2366 L -2.62891,-67.5547 L -2.78932,-67.8956 L -2.90575,-68.2539 L -2.97633,-68.624
 L -3,-69 L -2.97633,-69.376 L -2.90575,-69.7461 L -2.78932,-70.1044 L -2.62891,-70.4453 L -2.42705,-70.7634
 L -2.1869,-71.0536 L -1.91226,-71.3115 L -1.60747,-71.533 L -1.27733,-71.7145 L -0.927048,-71.8532 L -0.562134,-71.9469
 L -0.18837,-71.9941 L 0.18837,-71.9941 L 0.562134,-71.9469 L 0.927048,-71.8532 L 1.27733,-71.7145 L 1.60747,-71.533
 L 1.91226,-71.3115 L 2.1869,-71.0536 L 2.42705,-70.7634 L 2.62891,-70.4453 L 2.78932,-70.1044 L 2.90575,-69.7461
 L 2.97633,-69.376 L 3,-69 L 2.97633,-68.624 L 2.90575,-68.2539 L 2.78932,-67.8956 L 2.62891,-67.5547
 L 2.42705,-67.2366 L 2.1869,-66.9464 L 1.91226,-66.6884 L 1.60747,-66.467 L 1.27733,-66.2855 L 0.927048,-66.1468
 L 0.562134,-66.0531 L 0.18837,-66.0059 z
M -30.1884,-66.0059 L -30.5621,-66.0531 L -30.927,-66.1468 L -31.2773,-66.2855 L -31.6075,-66.467 L -31.9123,-66.6884
 L -32.1869,-66.9464 L -32.427,-67.2366 L -32.6289,-67.5547 L -32.7893,-67.8956 L -32.9057,-68.2539 L -32.9763,-68.624
 L -33,-69 L -32.9763,-69.376 L -32.9057,-69.7461 L -32.7893,-70.1044 L -32.6289,-70.4453 L -32.427,-70.7634
 L -32.1869,-71.0536 L -31.9123,-71.3115 L -31.6075,-71.533 L -31.2773,-71.7145 L -30.927,-71.8532 L -30.5621,-71.9469
 L -30.1884,-71.9941 L -29.8116,-71.9941 L -29.4379,-71.9469 L -29.0729,-71.8532 L -28.7227,-71.7145 L -28.3925,-71.533
 L -28.0877,-71.3115 L -27.8131,-71.0536 L -27.5729,-70.7634 L -27.3711,-70.4453 L -27.2107,-70.1044 L -27.0942,-69.7461
 L -27.0237,-69.376 L -27,-69 L -27.0237,-68.624 L -27.0942,-68.2539 L -27.2107,-67.8956 L -27.3711,-67.5547
 L -27.5729,-67.2366 L -27.8131,-66.9464 L -28.0877,-66.6884 L -28.3925,-66.467 L -28.7227,-66.2855 L -29.0729,-66.1468
 L -29.4379,-66.0531 L -29.8116,-66.0059 z
M -15.1884,-66.0059 L -15.5621,-66.0531 L -15.927,-66.1468 L -16.2773,-66.2855 L -16.6075,-66.467 L -16.9123,-66.6884
 L -17.1869,-66.9464 L -17.427,-67.2366 L -17.6289,-67.5547 L -17.7893,-67.8956 L -17.9057,-68.2539 L -17.9763,-68.624
 L -18,-69 L -17.9763,-69.376 L -17.9057,-69.7461 L -17.7893,-70.1044 L -17.6289,-70.4453 L -17.427,-70.7634
 L -17.1869,-71.0536 L -16.9123,-71.3115 L -16.6075,-71.533 L -16.2773,-71.7145 L -15.927,-71.8532 L -15.5621,-71.9469
 L -15.1884,-71.9941 L -14.8116,-71.9941 L -14.4379,-71.9469 L -14.0729,-71.8532 L -13.7227,-71.7145 L -13.3925,-71.533
 L -13.0877,-71.3115 L -12.8131,-71.0536 L -12.5729,-70.7634 L -12.3711,-70.4453 L -12.2107,-70.1044 L -12.0942,-69.7461
 L -12.0237,-69.376 L -12,-69 L -12.0237,-68.624 L -12.0942,-68.2539 L -12.2107,-67.8956 L -12.3711,-67.5547
 L -12.5729,-67.2366 L -12.8131,-66.9464 L -13.0877,-66.6884 L -13.3925,-66.467 L -13.7227,-66.2855 L -14.0729,-66.1468
 L -14.4379,-66.0531 L -14.8116,-66.0059 z
M 29.8116,-66.0059 L 29.4379,-66.0531 L 29.0729,-66.1468 L 28.7227,-66.2855 L 28.3925,-66.467 L 28.0877,-66.6884
 L 27.8131,-66.9464 L 27.5729,-67.2366 L 27.3711,-67.5547 L 27.2107,-67.8956 L 27.0942,-68.2539 L 27.0237,-68.624
 L 27,-69 L 27.0237,-69.376 L 27.0942,-69.7461 L 27.2107,-70.1044 L 27.3711,-70.4453 L 27.5729,-70.7634
 L 27.8131,-71.0536 L 28.0877,-71.3115 L 28.3925,-71.533 L 28.7227,-71.7145 L 29.0729,-71.8532 L 29.4379,-71.9469
 L 29.8116,-71.9941 L 30.1884,-71.9941 L 30.5621,-71.9469 L 30.927,-71.8532 L 31.2773,-71.7145 L 31.6075,-71.533
 L 31.9123,-71.3115 L 32.1869,-71.0536 L 32.427,-70.7634 L 32.6289,-70.4453 L 32.7893,-70.1044 L 32.9057,-69.7461
 L 32.9763,-69.376 L 33,-69 L 32.9763,-68.624 L 32.9057,-68.2539 L 32.7893,-67.8956 L 32.6289,-67.5547
 L 32.427,-67.2366 L 32.1869,-66.9464 L 31.9123,-66.6884 L 31.6075,-66.467 L 31.2773,-66.2855 L 30.927,-66.1468
 L 30.5621,-66.0531 L 30.1884,-66.0059 z
M 22.4058,-67.5029 L 22.2189,-67.5266 L 22.0365,-67.5734 L 21.8613,-67.6427 L 21.6963,-67.7335 L 21.5439,-67.8442
 L 21.4065,-67.9732 L 21.2865,-68.1183 L 21.1855,-68.2774 L 21.1053,-68.4478 L 21.0471,-68.627 L 21.0118,-68.812
 L 21,-69 L 21.0118,-69.188 L 21.0471,-69.373 L 21.1053,-69.5522 L 21.1855,-69.7226 L 21.2865,-69.8817
 L 21.4065,-70.0268 L 21.5439,-70.1558 L 21.6963,-70.2665 L 21.8613,-70.3572 L 22.0365,-70.4266 L 22.2189,-70.4734
 L 22.4058,-70.497 L 22.5942,-70.497 L 22.7811,-70.4734 L 22.9635,-70.4266 L 23.1387,-70.3572 L 23.3037,-70.2665
 L 23.4561,-70.1558 L 23.5934,-70.0268 L 23.7135,-69.8817 L 23.8145,-69.7226 L 23.8947,-69.5522 L 23.9529,-69.373
 L 23.9882,-69.188 L 24,-69 L 23.9882,-68.812 L 23.9529,-68.627 L 23.8947,-68.4478 L 23.8145,-68.2774
 L 23.7135,-68.1183 L 23.5934,-67.9732 L 23.4561,-67.8442 L 23.3037,-67.7335 L 23.1387,-67.6427 L 22.9635,-67.5734
 L 22.7811,-67.5266 L 22.5942,-67.5029 z
M 37.4058,-67.5029 L 37.2189,-67.5266 L 37.0365,-67.5734 L 36.8613,-67.6427 L 36.6963,-67.7335 L 36.5439,-67.8442
 L 36.4065,-67.9732 L 36.2865,-68.1183 L 36.1855,-68.2774 L 36.1053,-68.4478 L 36.0471,-68.627 L 36.0118,-68.812
 L 36,-69 L 36.0118,-69.188 L 36.0471,-69.373 L 36.1053,-69.5522 L 36.1855,-69.7226 L 36.2865,-69.8817
 L 36.4065,-70.0268 L 36.5439,-70.1558 L 36.6963,-70.2665 L 36.8613,-70.3572 L 37.0365,-70.4266 L 37.2189,-70.4734
 L 37.4058,-70.497 L 37.5942,-70.497 L 37.7811,-70.4734 L 37.9635,-70.4266 L 38.1387,-70.3572 L 38.3037,-70.2665
 L 38.4561,-70.1558 L 38.5934,-70.0268 L 38.7135,-69.8817 L 38.8145,-69.7226 L 38.8947,-69.5522 L 38.9529,-69.373
 L 38.9882,-69.188 L 39,-69 L 38.9882,-68.812 L 38.9529,-68.627 L 38.8947,-68.4478 L 38.8145,-68.2774
 L 38.7135,-68.1183 L 38.5934,-67.9732 L 38.4561,-67.8442 L 38.3037,-67.7335 L 38.1387,-67.6427 L 37.9635,-67.5734
 L 37.7811,-67.5266 L 37.5942,-67.5029 z
M -37.5942,-67.5029 L -37.7811,-67.5266 L -37.9635,-67.5734 L -38.1387,-67.6427 L -38.3037,-67.7335 L -38.4561,-67.8442
 L -38.5934,-67.9732 L -38.7135,-68.1183 L -38.8145,-68.2774 L -38.8947,-68.4478 L -38.9529,-68.627 L -38.9882,-68.812
 L -39,-69 L -38.9882,-69.188 L -38.9529,-69.373 L -38.8947,-69.5522 L -38.8145,-69.7226 L -38.7135,-69.8817
 L -38.5934,-70.0268 L -38.4561,-70.1558 L -38.3037,-70.2665 L -38.1387,-70.3572 L -37.9635,-70.4266 L -37.7811,-70.4734
 L -37.5942,-70.497 L -37.4058,-70.497 L -37.2189,-70.4734 L -37.0365,-70.4266 L -36.8613,-70.3572 L -36.6963,-70.2665
 L -36.5439,-70.1558 L -36.4065,-70.0268 L -36.2865,-69.8817 L -36.1855,-69.7226 L -36.1053,-69.5522 L -36.0471,-69.373
 L -36.0118,-69.188 L -36,-69 L -36.0118,-68.812 L -36.0471,-68.627 L -36.1053,-68.4478 L -36.1855,-68.2774
 L -36.2865,-68.1183 L -36.4065,-67.9732 L -36.5439,-67.8442 L -36.6963,-67.7335 L -36.8613,-67.6427 L -37.0365,-67.5734
 L -37.2189,-67.5266 L -37.4058,-67.5029 z
M 7.40581,-67.5029 L 7.21892,-67.5266 L 7.03647,-67.5734 L 6.86133,-67.6427 L 6.69626,-67.7335 L 6.54385,-67.8442
 L 6.40654,-67.9732 L 6.28647,-68.1183 L 6.18553,-68.2774 L 6.10533,-68.4478 L 6.04712,-68.627 L 6.01183,-68.812
 L 6,-69 L 6.01183,-69.188 L 6.04712,-69.373 L 6.10533,-69.5522 L 6.18553,-69.7226 L 6.28647,-69.8817
 L 6.40654,-70.0268 L 6.54385,-70.1558 L 6.69626,-70.2665 L 6.86133,-70.3572 L 7.03647,-70.4266 L 7.21892,-70.4734
 L 7.40581,-70.497 L 7.59418,-70.497 L 7.78107,-70.4734 L 7.96352,-70.4266 L 8.13866,-70.3572 L 8.30373,-70.2665
 L 8.45613,-70.1558 L 8.59344,-70.0268 L 8.71352,-69.8817 L 8.81445,-69.7226 L 8.89465,-69.5522 L 8.95287,-69.373
 L 8.98816,-69.188 L 9,-69 L 8.98816,-68.812 L 8.95287,-68.627 L 8.89465,-68.4478 L 8.81445,-68.2774
 L 8.71352,-68.1183 L 8.59344,-67.9732 L 8.45613,-67.8442 L 8.30373,-67.7335 L 8.13866,-67.6427 L 7.96352,-67.5734
 L 7.78107,-67.5266 L 7.59418,-67.5029 z
M -7.59418,-67.5029 L -7.78107,-67.5266 L -7.96352,-67.5734 L -8.13866,-67.6427 L -8.30373,-67.7335 L -8.45613,-67.8442
 L -8.59344,-67.9732 L -8.71352,-68.1183 L -8.81445,-68.2774 L -8.89465,-68.4478 L -8.95287,-68.627 L -8.98816,-68.812
 L -9,-69 L -8.98816,-69.188 L -8.95287,-69.373 L -8.89465,-69.5522 L -8.81445,-69.7226 L -8.71352,-69.8817
 L -8.59344,-70.0268 L -8.45613,-70.1558 L -8.30373,-70.2665 L -8.13866,-70.3572 L -7.96352,-70.4266 L -7.78107,-70.4734
 L -7.59418,-70.497 L -7.40581,-70.497 L -7.21892,-70.4734 L -7.03647,-70.4266 L -6.86133,-70.3572 L -6.69626,-70.2665
 L -6.54385,-70.1558 L -6.40654,-70.0268 L -6.28647,-69.8817 L -6.18553,-69.7226 L -6.10533,-69.5522 L -6.04712,-69.373
 L -6.01183,-69.188 L -6,-69 L -6.01183,-68.812 L -6.04712,-68.627 L -6.10533,-68.4478 L -6.18553,-68.2774
 L -6.28647,-68.1183 L -6.40654,-67.9732 L -6.54385,-67.8442 L -6.69626,-67.7335 L -6.86133,-67.6427 L -7.03647,-67.5734
 L -7.21892,-67.5266 L -7.40581,-67.5029 z
M -22.5942,-67.5029 L -22.7811,-67.5266 L -22.9635,-67.5734 L -23.1387,-67.6427 L -23.3037,-67.7335 L -23.4561,-67.8442
 L -23.5934,-67.9732 L -23.7135,-68.1183 L -23.8145,-68.2774 L -23.8947,-68.4478 L -23.9529,-68.627 L -23.9882,-68.812
 L -24,-69 L -23.9882,-69.188 L -23.9529,-69.373 L -23.8947,-69.5522 L -23.8145,-69.7226 L -23.7135,-69.8817
 L -23.5934,-70.0268 L -23.4561,-70.1558 L -23.3037,-70.2665 L -23.1387,-70.3572 L -22.9635,-70.4266 L -22.7811,-70.4734
 L -22.5942,-70.497 L -22.4058,-70.497 L -22.2189,-70.4734 L -22.0365,-70.4266 L -21.8613,-70.3572 L -21.6963,-70.2665
 L -21.5439,-70.1558 L -21.4065,-70.0268 L -21.2865,-69.8817 L -21.1855,-69.7226 L -21.1053,-69.5522 L -21.0471,-69.373
 L -21.0118,-69.188 L -21,-69 L -21.0118,-68.812 L -21.0471,-68.627 L -21.1053,-68.4478 L -21.1855,-68.2774
 L -21.2865,-68.1183 L -21.4065,-67.9732 L -21.5439,-67.8442 L -21.6963,-67.7335 L -21.8613,-67.6427 L -22.0365,-67.5734
 L -22.2189,-67.5266 L -22.4058,-67.5029 z
M 44.9058,-60.0029 L 44.7189,-60.0266 L 44.5365,-60.0734 L 44.3613,-60.1427 L 44.1963,-60.2335 L 44.0439,-60.3442
 L 43.9065,-60.4732 L 43.7865,-60.6183 L 43.6855,-60.7774 L 43.6053,-60.9478 L 43.5471,-61.127 L 43.5118,-61.312
 L 43.5,-61.5 L 43.5118,-61.688 L 43.5471,-61.873 L 43.6053,-62.0522 L 43.6855,-62.2226 L 43.7865,-62.3817
 L 43.9065,-62.5268 L 44.0439,-62.6558 L 44.1963,-62.7665 L 44.3613,-62.8572 L 44.5365,-62.9266 L 44.7189,-62.9734
 L 44.9058,-62.997 L 45.0942,-62.997 L 45.2811,-62.9734 L 45.4635,-62.9266 L 45.6387,-62.8572 L 45.8037,-62.7665
 L 45.9561,-62.6558 L 46.0934,-62.5268 L 46.2135,-62.3817 L 46.3145,-62.2226 L 46.3947,-62.0522 L 46.4529,-61.873
 L 46.4882,-61.688 L 46.5,-61.5 L 46.4882,-61.312 L 46.4529,-61.127 L 46.3947,-60.9478 L 46.3145,-60.7774
 L 46.2135,-60.6183 L 46.0934,-60.4732 L 45.9561,-60.3442 L 45.8037,-60.2335 L 45.6387,-60.1427 L 45.4635,-60.0734
 L 45.2811,-60.0266 L 45.0942,-60.0029 z
M -45.0942,-60.0029 L -45.2811,-60.0266 L -45.4635,-60.0734 L -45.6387,-60.1427 L -45.8037,-60.2335 L -45.9561,-60.3442
 L -46.0934,-60.4732 L -46.2135,-60.6183 L -46.3145,-60.7774 L -46.3947,-60.9478 L -46.4529,-61.127 L -46.4882,-61.312
 L -46.5,-61.5 L -46.4882,-61.688 L -46.4529,-61.873 L -46.3947,-62.0522 L -46.3145,-62.2226 L -46.2135,-62.3817
 L -46.0934,-62.5268 L -45.9561,-62.6558 L -45.8037,-62.7665 L -45.6387,-62.8572 L -45.4635,-62.9266 L -45.2811,-62.9734
 L -45.0942,-62.997 L -44.9058,-62.997 L -44.7189,-62.9734 L -44.5365,-62.9266 L -44.3613,-62.8572 L -44.1963,-62.7665
 L -44.0439,-62.6558 L -43.9065,-62.5268 L -43.7865,-62.3817 L -43.6855,-62.2226 L -43.6053,-62.0522 L -43.5471,-61.873
 L -43.5118,-61.688 L -43.5,-61.5 L -43.5118,-61.312 L -43.5471,-61.127 L -43.6053,-60.9478 L -43.6855,-60.7774
 L -43.7865,-60.6183 L -43.9065,-60.4732 L -44.0439,-60.3442 L -44.1963,-60.2335 L -44.3613,-60.1427 L -44.5365,-60.0734
 L -44.7189,-60.0266 L -44.9058,-60.0029 z
M 16.6232,-48.0118 L 15.8757,-48.1063 L 15.1459,-48.2937 L 14.4453,-48.571 L 13.785,-48.934 L 13.1754,-49.3769
 L 12.6262,-49.8927 L 12.1459,-50.4733 L 11.7422,-51.1095 L 11.4213,-51.7913 L 11.1885,-52.5079 L 11.0473,-53.248
 L 11,-54 L 11.0473,-54.752 L 11.1885,-55.4921 L 11.4213,-56.2087 L 11.7422,-56.8905 L 12.1459,-57.5267
 L 12.6262,-58.1073 L 13.1754,-58.6231 L 13.785,-59.066 L 14.4453,-59.429 L 15.1459,-59.7063 L 15.8757,-59.8937
 L 16.6232,-59.9882 L 17.3767,-59.9882 L 18.1243,-59.8937 L 18.8541,-59.7063 L 19.5547,-59.429 L 20.215,-59.066
 L 20.8245,-58.6231 L 21.3738,-58.1073 L 21.8541,-57.5267 L 22.2578,-56.8905 L 22.5787,-56.2087 L 22.8115,-55.4921
 L 22.9527,-54.752 L 23,-54 L 22.9527,-53.248 L 22.8115,-52.5079 L 22.5787,-51.7913 L 22.2578,-51.1095
 L 21.8541,-50.4733 L 21.3738,-49.8927 L 20.8245,-49.3769 L 20.215,-48.934 L 19.5547,-48.571 L 18.8541,-48.2937
 L 18.1243,-48.1063 L 17.3767,-48.0118 z
M -17.3767,-48.0118 L -18.1243,-48.1063 L -18.8541,-48.2937 L -19.5547,-48.571 L -20.215,-48.934 L -20.8245,-49.3769
 L -21.3738,-49.8927 L -21.8541,-50.4733 L -22.2578,-51.1095 L -22.5787,-51.7913 L -22.8115,-52.5079 L -22.9527,-53.248
 L -23,-54 L -22.9527,-54.752 L -22.8115,-55.4921 L -22.5787,-56.2087 L -22.2578,-56.8905 L -21.8541,-57.5267
 L -21.3738,-58.1073 L -20.8245,-58.6231 L -20.215,-59.066 L -19.5547,-59.429 L -18.8541,-59.7063 L -18.1243,-59.8937
 L -17.3767,-59.9882 L -16.6232,-59.9882 L -15.8757,-59.8937 L -15.1459,-59.7063 L -14.4453,-59.429 L -13.785,-59.066
 L -13.1754,-58.6231 L -12.6262,-58.1073 L -12.1459,-57.5267 L -11.7422,-56.8905 L -11.4213,-56.2087 L -11.1885,-55.4921
 L -11.0473,-54.752 L -11,-54 L -11.0473,-53.248 L -11.1885,-52.5079 L -11.4213,-51.7913 L -11.7422,-51.1095
 L -12.1459,-50.4733 L -12.6262,-49.8927 L -13.1754,-49.3769 L -13.785,-48.934 L -14.4453,-48.571 L -15.1459,-48.2937
 L -15.8757,-48.1063 L -16.6232,-48.0118 z
M -34.3767,-48.0118 L -35.1243,-48.1063 L -35.8541,-48.2937 L -36.5547,-48.571 L -37.215,-48.934 L -37.8245,-49.3769
 L -38.3738,-49.8927 L -38.8541,-50.4733 L -39.2578,-51.1095 L -39.5787,-51.7913 L -39.8115,-52.5079 L -39.9527,-53.248
 L -40,-54 L -39.9527,-54.752 L -39.8115,-55.4921 L -39.5787,-56.2087 L -39.2578,-56.8905 L -38.8541,-57.5267
 L -38.3738,-58.1073 L -37.8245,-58.6231 L -37.215,-59.066 L -36.5547,-59.429 L -35.8541,-59.7063 L -35.1243,-59.8937
 L -34.3767,-59.9882 L -33.6232,-59.9882 L -32.8757,-59.8937 L -32.1459,-59.7063 L -31.4453,-59.429 L -30.785,-59.066
 L -30.1754,-58.6231 L -29.6262,-58.1073 L -29.1459,-57.5267 L -28.7422,-56.8905 L -28.4213,-56.2087 L -28.1885,-55.4921
 L -28.0473,-54.752 L -28,-54 L -28.0473,-53.248 L -28.1885,-52.5079 L -28.4213,-51.7913 L -28.7422,-51.1095
 L -29.1459,-50.4733 L -29.6262,-49.8927 L -30.1754,-49.3769 L -30.785,-48.934 L -31.4453,-48.571 L -32.1459,-48.2937
 L -32.8757,-48.1063 L -33.6232,-48.0118 z
M 33.6232,-48.0118 L 32.8757,-48.1063 L 32.1459,-48.2937 L 31.4453,-48.571 L 30.785,-48.934 L 30.1754,-49.3769
 L 29.6262,-49.8927 L 29.1459,-50.4733 L 28.7422,-51.1095 L 28.4213,-51.7913 L 28.1885,-52.5079 L 28.0473,-53.248
 L 28,-54 L 28.0473,-54.752 L 28.1885,-55.4921 L 28.4213,-56.2087 L 28.7422,-56.8905 L 29.1459,-57.5267
 L 29.6262,-58.1073 L 30.1754,-58.6231 L 30.785,-59.066 L 31.4453,-59.429 L 32.1459,-59.7063 L 32.8757,-59.8937
 L 33.6232,-59.9882 L 34.3767,-59.9882 L 35.1243,-59.8937 L 35.8541,-59.7063 L 36.5547,-59.429 L 37.215,-59.066
 L 37.8245,-58.6231 L 38.3738,-58.1073 L 38.8541,-57.5267 L 39.2578,-56.8905 L 39.5787,-56.2087 L 39.8115,-55.4921
 L 39.9527,-54.752 L 40,-54 L 39.9527,-53.248 L 39.8115,-52.5079 L 39.5787,-51.7913 L 39.2578,-51.1095
 L 38.8541,-50.4733 L 38.3738,-49.8927 L 37.8245,-49.3769 L 37.215,-48.934 L 36.5547,-48.571 L 35.8541,-48.2937
 L 35.1243,-48.1063 L 34.3767,-48.0118 z
M -0.37674,-48.0118 L -1.12428,-48.1063 L -1.8541,-48.2937 L -2.55467,-48.571 L -3.21495,-48.934 L -3.82454,-49.3769
 L -4.37381,-49.8927 L -4.8541,-50.4733 L -5.25783,-51.1095 L -5.57864,-51.7913 L -5.81149,-52.5079 L -5.95268,-53.248
 L -6,-54 L -5.95268,-54.752 L -5.81149,-55.4921 L -5.57864,-56.2087 L -5.25783,-56.8905 L -4.8541,-57.5267
 L -4.37381,-58.1073 L -3.82454,-58.6231 L -3.21495,-59.066 L -2.55467,-59.429 L -1.8541,-59.7063 L -1.12428,-59.8937
 L -0.37674,-59.9882 L 0.37674,-59.9882 L 1.12428,-59.8937 L 1.8541,-59.7063 L 2.55467,-59.429 L 3.21495,-59.066
 L 3.82454,-58.6231 L 4.37381,-58.1073 L 4.8541,-57.5267 L 5.25783,-56.8905 L 5.57864,-56.2087 L 5.81149,-55.4921
 L 5.95268,-54.752 L 6,-54 L 5.95268,-53.248 L 5.81149,-52.5079 L 5.57864,-51.7913 L 5.25783,-51.1095
 L 4.8541,-50.4733 L 4.37381,-49.8927 L 3.82454,-49.3769 L 3.21495,-48.934 L 2.55467,-48.571 L 1.8541,-48.2937
 L 1.12428,-48.1063 L 0.37674,-48.0118 z
M 44.8116,-51.0059 L 44.4379,-51.0531 L 44.0729,-51.1468 L 43.7227,-51.2855 L 43.3925,-51.467 L 43.0877,-51.6885
 L 42.8131,-51.9464 L 42.5729,-52.2366 L 42.3711,-52.5547 L 42.2107,-52.8956 L 42.0942,-53.2539 L 42.0237,-53.624
 L 42,-54 L 42.0237,-54.376 L 42.0942,-54.7461 L 42.2107,-55.1044 L 42.3711,-55.4453 L 42.5729,-55.7634
 L 42.8131,-56.0536 L 43.0877,-56.3115 L 43.3925,-56.533 L 43.7227,-56.7145 L 44.0729,-56.8532 L 44.4379,-56.9469
 L 44.8116,-56.9941 L 45.1884,-56.9941 L 45.5621,-56.9469 L 45.927,-56.8532 L 46.2773,-56.7145 L 46.6075,-56.533
 L 46.9123,-56.3115 L 47.1869,-56.0536 L 47.427,-55.7634 L 47.6289,-55.4453 L 47.7893,-55.1044 L 47.9057,-54.7461
 L 47.9763,-54.376 L 48,-54 L 47.9763,-53.624 L 47.9057,-53.2539 L 47.7893,-52.8956 L 47.6289,-52.5547
 L 47.427,-52.2366 L 47.1869,-51.9464 L 46.9123,-51.6885 L 46.6075,-51.467 L 46.2773,-51.2855 L 45.927,-51.1468
 L 45.5621,-51.0531 L 45.1884,-51.0059 z
M -45.1884,-51.0059 L -45.5621,-51.0531 L -45.927,-51.1468 L -46.2773,-51.2855 L -46.6075,-51.467 L -46.9123,-51.6885
 L -47.1869,-51.9464 L -47.427,-52.2366 L -47.6289,-52.5547 L -47.7893,-52.8956 L -47.9057,-53.2539 L -47.9763,-53.624
 L -48,-54 L -47.9763,-54.376 L -47.9057,-54.7461 L -47.7893,-55.1044 L -47.6289,-55.4453 L -47.427,-55.7634
 L -47.1869,-56.0536 L -46.9123,-56.3115 L -46.6075,-56.533 L -46.2773,-56.7145 L -45.927,-56.8532 L -45.5621,-56.9469
 L -45.1884,-56.9941 L -44.8116,-56.9941 L -44.4379,-56.9469 L -44.0729,-56.8532 L -43.7227,-56.7145 L -43.3925,-56.533
 L -43.0877,-56.3115 L -42.8131,-56.0536 L -42.5729,-55.7634 L -42.3711,-55.4453 L -42.2107,-55.1044 L -42.0942,-54.7461
 L -42.0237,-54.376 L -42,-54 L -42.0237,-53.624 L -42.0942,-53.2539 L -42.2107,-52.8956 L -42.3711,-52.5547
 L -42.5729,-52.2366 L -42.8131,-51.9464 L -43.0877,-51.6885 L -43.3925,-51.467 L -43.7227,-51.2855 L -44.0729,-51.1468
 L -44.4379,-51.0531 L -44.8116,-51.0059 z
M -45.0942,-45.003 L -45.2811,-45.0266 L -45.4635,-45.0734 L -45.6387,-45.1428 L -45.8037,-45.2335 L -45.9561,-45.3442
 L -46.0934,-45.4732 L -46.2135,-45.6183 L -46.3145,-45.7774 L -46.3947,-45.9478 L -46.4529,-46.127 L -46.4882,-46.312
 L -46.5,-46.5 L -46.4882,-46.688 L -46.4529,-46.873 L -46.3947,-47.0522 L -46.3145,-47.2226 L -46.2135,-47.3817
 L -46.0934,-47.5268 L -45.9561,-47.6558 L -45.8037,-47.7665 L -45.6387,-47.8573 L -45.4635,-47.9266 L -45.2811,-47.9734
 L -45.0942,-47.9971 L -44.9058,-47.9971 L -44.7189,-47.9734 L -44.5365,-47.9266 L -44.3613,-47.8573 L -44.1963,-47.7665
 L -44.0439,-47.6558 L -43.9065,-47.5268 L -43.7865,-47.3817 L -43.6855,-47.2226 L -43.6053,-47.0522 L -43.5471,-46.873
 L -43.5118,-46.688 L -43.5,-46.5 L -43.5118,-46.312 L -43.5471,-46.127 L -43.6053,-45.9478 L -43.6855,-45.7774
 L -43.7865,-45.6183 L -43.9065,-45.4732 L -44.0439,-45.3442 L -44.1963,-45.2335 L -44.3613,-45.1428 L -44.5365,-45.0734
 L -44.7189,-45.0266 L -44.9058,-45.003 z
M 44.9058,-45.003 L 44.7189,-45.0266 L 44.5365,-45.0734 L 44.3613,-45.1428 L 44.1963,-45.2335 L 44.0439,-45.3442
 L 43.9065,-45.4732 L 43.7865,-45.6183 L 43.6855,-45.7774 L 43.6053,-45.9478 L 43.5471,-46.127 L 43.5118,-46.312
 L 43.5,-46.5 L 43.5118,-46.688 L 43.5471,-46.873 L 43.6053,-47.0522 L 43.6855,-47.2226 L 43.7865,-47.3817
 L 43.9065,-47.5268 L 44.0439,-47.6558 L 44.1963,-47.7665 L 44.3613,-47.8573 L 44.5365,-47.9266 L 44.7189,-47.9734
 L 44.9058,-47.9971 L 45.0942,-47.9971 L 45.2811,-47.9734 L 45.4635,-47.9266 L 45.6387,-47.8573 L 45.8037,-47.7665
 L 45.9561,-47.6558 L 46.0934,-47.5268 L 46.2135,-47.3817 L 46.3145,-47.2226 L 46.3947,-47.0522 L 46.4529,-46.873
 L 46.4882,-46.688 L 46.5,-46.5 L 46.4882,-46.312 L 46.4529,-46.127 L 46.3947,-45.9478 L 46.3145,-45.7774
 L 46.2135,-45.6183 L 46.0934,-45.4732 L 45.9561,-45.3442 L 45.8037,-45.2335 L 45.6387,-45.1428 L 45.4635,-45.0734
 L 45.2811,-45.0266 L 45.0942,-45.003 z
M 29.8116,-36.0059 L 29.4379,-36.0531 L 29.0729,-36.1468 L 28.7227,-36.2855 L 28.3925,-36.467 L 28.0877,-36.6885
 L 27.8131,-36.9464 L 27.5729,-37.2366 L 27.3711,-37.5547 L 27.2107,-37.8956 L 27.0942,-38.2539 L 27.0237,-38.624
 L 27,-39 L 27.0237,-39.376 L 27.0942,-39.7461 L 27.2107,-40.1044 L 27.3711,-40.4453 L 27.5729,-40.7634
 L 27.8131,-41.0536 L 28.0877,-41.3116 L 28.3925,-41.533 L 28.7227,-41.7145 L 29.0729,-41.8532 L 29.4379,-41.9469
 L 29.8116,-41.9941 L 30.1884,-41.9941 L 30.5621,-41.9469 L 30.927,-41.8532 L 31.2773,-41.7145 L 31.6075,-41.533
 L 31.9123,-41.3116 L 32.1869,-41.0536 L 32.427,-40.7634 L 32.6289,-40.4453 L 32.7893,-40.1044 L 32.9057,-39.7461
 L 32.9763,-39.376 L 33,-39 L 32.9763,-38.624 L 32.9057,-38.2539 L 32.7893,-37.8956 L 32.6289,-37.5547
 L 32.427,-37.2366 L 32.1869,-36.9464 L 31.9123,-36.6885 L 31.6075,-36.467 L 31.2773,-36.2855 L 30.927,-36.1468
 L 30.5621,-36.0531 L 30.1884,-36.0059 z
M 14.8116,-36.0059 L 14.4379,-36.0531 L 14.0729,-36.1468 L 13.7227,-36.2855 L 13.3925,-36.467 L 13.0877,-36.6885
 L 12.8131,-36.9464 L 12.5729,-37.2366 L 12.3711,-37.5547 L 12.2107,-37.8956 L 12.0942,-38.2539 L 12.0237,-38.624
 L 12,-39 L 12.0237,-39.376 L 12.0942,-39.7461 L 12.2107,-40.1044 L 12.3711,-40.4453 L 12.5729,-40.7634
 L 12.8131,-41.0536 L 13.0877,-41.3116 L 13.3925,-41.533 L 13.7227,-41.7145 L 14.0729,-41.8532 L 14.4379,-41.9469
 L 14.8116,-41.9941 L 15.1884,-41.9941 L 15.5621,-41.9469 L 15.927,-41.8532 L 16.2773,-41.7145 L 16.6075,-41.533
 L 16.9123,-41.3116 L 17.1869,-41.0536 L 17.427,-40.7634 L 17.6289,-40.4453 L 17.7893,-40.1044 L 17.9057,-39.7461
 L 17.9763,-39.376 L 18,-39 L 17.9763,-38.624 L 17.9057,-38.2539 L 17.7893,-37.8956 L 17.6289,-37.5547
 L 17.427,-37.2366 L 17.1869,-36.9464 L 16.9123,-36.6885 L 16.6075,-36.467 L 16.2773,-36.2855 L 15.927,-36.1468
 L 15.5621,-36.0531 L 15.1884,-36.0059 z
M -45.1884,-36.0059 L -45.5621,-36.0531 L -45.927,-36.1468 L -46.2773,-36.2855 L -46.6075,-36.467 L -46.9123,-36.6885
 L -47.1869,-36.9464 L -47.427,-37.2366 L -47.6289,-37.5547 L -47.7893,-37.8956 L -47.9057,-38.2539 L -47.9763,-38.624
 L -48,-39 L -47.9763,-39.376 L -47.9057,-39.7461 L -47.7893,-40.1044 L -47.6289,-40.4453 L -47.427,-40.7634
 L -47.1869,-41.0536 L -46.9123,-41.3116 L -46.6075,-41.533 L -46.2773,-41.7145 L -45.927,-41.8532 L -45.5621,-41.9469
 L -45.1884,-41.9941 L -44.8116,-41.9941 L -44.4379,-41.9469 L -44.0729,-41.8532 L -43.7227,-41.7145 L -43.3925,-41.533
 L -43.0877,-41.3116 L -42.8131,-41.0536 L -42.5729,-40.7634 L -42.3711,-40.4453 L -42.2107,-40.1044 L -42.0942,-39.7461
 L -42.0237,-39.376 L -42,-39 L -42.0237,-38.624 L -42.0942,-38.2539 L -42.2107,-37.8956 L -42.3711,-37.5547
 L -42.5729,-37.2366 L -42.8131,-36.9464 L -43.0877,-36.6885 L -43.3925,-36.467 L -43.7227,-36.2855 L -44.0729,-36.1468
 L -44.4379,-36.0531 L -44.8116,-36.0059 z
M -15.1884,-36.0059 L -15.5621,-36.0531 L -15.927,-36.1468 L -16.2773,-36.2855 L -16.6075,-36.467 L -16.9123,-36.6885
 L -17.1869,-36.9464 L -17.427,-37.2366 L -17.6289,-37.5547 L -17.7893,-37.8956 L -17.9057,-38.2539 L -17.9763,-38.624
 L -18,-39 L -17.9763,-39.376 L -17.9057,-39.7461 L -17.7893,-40.1044 L -17.6289,-40.4453 L -17.427,-40.7634
 L -17.1869,-41.0536 L -16.9123,-41.3116 L -16.6075,-41.533 L -16.2773,-41.7145 L -15.927,-41.8532 L -15.5621,-41.9469
 L -15.1884,-41.9941 L -14.8116,-41.9941 L -14.4379,-41.9469 L -14.0729,-41.8532 L -13.7227,-41.7145 L -13.3925,-41.533
 L -13.0877,-41.3116 L -12.8131,-41.0536 L -12.5729,-40.7634 L -12.3711,-40.4453 L -12.2107,-40.1044 L -12.0942,-39.7461
 L -12.0237,-39.376 L -12,-39 L -12.0237,-38.624 L -12.0942,-38.2539 L -12.2107,-37.8956 L -12.3711,-37.5547
 L -12.5729,-37.2366 L -12.8131,-36.9464 L -13.0877,-36.6885 L -13.3925,-36.467 L -13.7227,-36.2855 L -14.0729,-36.1468
 L -14.4379,-36.0531 L -14.8116,-36.0059 z
M 44.8116,-36.0059 L 44.4379,-36.0531 L 44.0729,-36.1468 L 43.7227,-36.2855 L 43.3925,-36.467 L 43.0877,-36.6885
 L 42.8131,-36.9464 L 42.5729,-37.2366 L 42.3711,-37.5547 L 42.2107,-37.8956 L 42.0942,-38.2539 L 42.0237,-38.624
 L 42,-39 L 42.0237,-39.376 L 42.0942,-39.7461 L 42.2107,-40.1044 L 42.3711,-40.4453 L 42.5729,-40.7634
 L 42.8131,-41.0536 L 43.0877,-41.3116 L 43.3925,-41.533 L 43.7227,-41.7145 L 44.0729,-41.8532 L 44.4379,-41.9469
 L 44.8116,-41.9941 L 45.1884,-41.9941 L 45.5621,-41.9469 L 45.927,-41.8532 L 46.2773,-41.7145 L 46.6075,-41.533
 L 46.9123,-41.3116 L 47.1869,-41.0536 L 47.427,-40.7634 L 47.6289,-40.4453 L 47.7893,-40.1044 L 47.9057,-39.7461
 L 47.9763,-39.376 L 48,-39 L 47.9763,-38.624 L 47.9057,-38.2539 L 47.7893,-37.8956 L 47.6289,-37.5547
 L 47.427,-37.2366 L 47.1869,-36.9464 L 46.9123,-36.6885 L 46.6075,-36.467 L 46.2773,-36.2855 L 45.927,-36.1468
 L 45.5621,-36.0531 L 45.1884,-36.0059 z
M -30.1884,-36.0059 L -30.5621,-36.0531 L -30.927,-36.1468 L -31.2773,-36.2855 L -31.6075,-36.467 L -31.9123,-36.6885
 L -32.1869,-36.9464 L -32.427,-37.2366 L -32.6289,-37.5547 L -32.7893,-37.8956 L -32.9057,-38.2539 L -32.9763,-38.624
 L -33,-39 L -32.9763,-39.376 L -32.9057,-39.7461 L -32.7893,-40.1044 L -32.6289,-40.4453 L -32.427,-40.7634
 L -32.1869,-41.0536 L -31.9123,-41.3116 L -31.6075,-41.533 L -31.2773,-41.7145 L -30.927,-41.8532 L -30.5621,-41.9469
 L -30.1884,-41.9941 L -29.8116,-41.9941 L -29.4379,-41.9469 L -29.0729,-41.8532 L -28.7227,-41.7145 L -28.3925,-41.533
 L -28.0877,-41.3116 L -27.8131,-41.0536 L -27.5729,-40.7634 L -27.3711,-40.4453 L -27.2107,-40.1044 L -27.0942,-39.7461
 L -27.0237,-39.376 L -27,-39 L -27.0237,-38.624 L -27.0942,-38.2539 L -27.2107,-37.8956 L -27.3711,-37.5547
 L -27.5729,-37.2366 L -27.8131,-36.9464 L -28.0877,-36.6885 L -28.3925,-36.467 L -28.7227,-36.2855 L -29.0729,-36.1468
 L -29.4379,-36.0531 L -29.8116,-36.0059 z
M -0.18837,-36.0059 L -0.562134,-36.0531 L -0.927048,-36.1468 L -1.27733,-36.2855 L -1.60747,-36.467 L -1.91226,-36.6885
 L -2.1869,-36.9464 L -2.42705,-37.2366 L -2.62891,-37.5547 L -2.78932,-37.8956 L -2.90575,-38.2539 L -2.97633,-38.624
 L -3,-39 L -2.97633,-39.376 L -2.90575,-39.7461 L -2.78932,-40.1044 L -2.62891,-40.4453 L -2.42705,-40.7634
 L -2.1869,-41.0536 L -1.91226,-41.3116 L -1.60747,-41.533 L -1.27733,-41.7145 L -0.927048,-41.8532 L -0.562134,-41.9469
 L -0.18837,-41.9941 L 0.18837,-41.9941 L 0.562134,-41.9469 L 0.927048,-41.8532 L 1.27733,-41.7145 L 1.60747,-41.533
 L 1.91226,-41.3116 L 2.1869,-41.0536 L 2.42705,-40.7634 L 2.62891,-40.4453 L 2.78932,-40.1044 L 2.90575,-39.7461
 L 2.97633,-39.376 L 3,-39 L 2.97633,-38.624 L 2.90575,-38.2539 L 2.78932,-37.8956 L 2.62891,-37.5547
 L 2.42705,-37.2366 L 2.1869,-36.9464 L 1.91226,-36.6885 L 1.60747,-36.467 L 1.27733,-36.2855 L 0.927048,-36.1468
 L 0.562134,-36.0531 L 0.18837,-36.0059 z
M 22.4058,-37.503 L 22.2189,-37.5266 L 22.0365,-37.5734 L 21.8613,-37.6428 L 21.6963,-37.7335 L 21.5439,-37.8442
 L 21.4065,-37.9732 L 21.2865,-38.1183 L 21.1855,-38.2774 L 21.1053,-38.4478 L 21.0471,-38.627 L 21.0118,-38.812
 L 21,-39 L 21.0118,-39.188 L 21.0471,-39.373 L 21.1053,-39.5522 L 21.1855,-39.7226 L 21.2865,-39.8817
 L 21.4065,-40.0268 L 21.5439,-40.1558 L 21.6963,-40.2665 L 21.8613,-40.3573 L 22.0365,-40.4266 L 22.2189,-40.4734
 L 22.4058,-40.4971 L 22.5942,-40.4971 L 22.7811,-40.4734 L 22.9635,-40.4266 L 23.1387,-40.3573 L 23.3037,-40.2665
 L 23.4561,-40.1558 L 23.5934,-40.0268 L 23.7135,-39.8817 L 23.8145,-39.7226 L 23.8947,-39.5522 L 23.9529,-39.373
 L 23.9882,-39.188 L 24,-39 L 23.9882,-38.812 L 23.9529,-38.627 L 23.8947,-38.4478 L 23.8145,-38.2774
 L 23.7135,-38.1183 L 23.5934,-37.9732 L 23.4561,-37.8442 L 23.3037,-37.7335 L 23.1387,-37.6428 L 22.9635,-37.5734
 L 22.7811,-37.5266 L 22.5942,-37.503 z
M 37.4058,-37.503 L 37.2189,-37.5266 L 37.0365,-37.5734 L 36.8613,-37.6428 L 36.6963,-37.7335 L 36.5439,-37.8442
 L 36.4065,-37.9732 L 36.2865,-38.1183 L 36.1855,-38.2774 L 36.1053,-38.4478 L 36.0471,-38.627 L 36.0118,-38.812
 L 36,-39 L 36.0118,-39.188 L 36.0471,-39.373 L 36.1053,-39.5522 L 36.1855,-39.7226 L 36.2865,-39.8817
 L 36.4065,-40.0268 L 36.5439,-40.1558 L 36.6963,-40.2665 L 36.8613,-40.3573 L 37.0365,-40.4266 L 37.2189,-40.4734
 L 37.4058,-40.4971 L 37.5942,-40.4971 L 37.7811,-40.4734 L 37.9635,-40.4266 L 38.1387,-40.3573 L 38.3037,-40.2665
 L 38.4561,-40.1558 L 38.5934,-40.0268 L 38.7135,-39.8817 L 38.8145,-39.7226 L 38.8947,-39.5522 L 38.9529,-39.373
 L 38.9882,-39.188 L 39,-39 L 38.9882,-38.812 L 38.9529,-38.627 L 38.8947,-38.4478 L 38.8145,-38.2774
 L 38.7135,-38.1183 L 38.5934,-37.9732 L 38.4561,-37.8442 L 38.3037,-37.7335 L 38.1387,-37.6428 L 37.9635,-37.5734
 L 37.7811,-37.5266 L 37.5942,-37.503 z
M 7.40581,-37.503 L 7.21892,-37.5266 L 7.03647,-37.5734 L 6.86133,-37.6428 L 6.69626,-37.7335 L 6.54385,-37.8442
 L 6.40654,-37.9732 L 6.28647,-38.1183 L 6.18553,-38.2774 L 6.10533,-38.4478 L 6.04712,-38.627 L 6.01183,-38.812
 L 6,-39 L 6.01183,-39.188 L 6.04712,-39.373 L 6.10533,-39.5522 L 6.18553,-39.7226 L 6.28647,-39.8817
 L 6.40654,-40.0268 L 6.54385,-40.1558 L 6.69626,-40.2665 L 6.86133,-40.3573 L 7.03647,-40.4266 L 7.21892,-40.4734
 L 7.40581,-40.4971 L 7.59418,-40.4971 L 7.78107,-40.4734 L 7.96352,-40.4266 L 8.13866,-40.3573 L 8.30373,-40.2665
 L 8.45613,-40.1558 L 8.59344,-40.0268 L 8.71352,-39.8817 L 8.81445,-39.7226 L 8.89465,-39.5522 L 8.95287,-39.373
 L 8.98816,-39.188 L 9,-39 L 8.98816,-38.812 L 8.95287,-38.627 L 8.89465,-38.4478 L 8.81445,-38.2774
 L 8.71352,-38.1183 L 8.59344,-37.9732 L 8.45613,-37.8442 L 8.30373,-37.7335 L 8.13866,-37.6428 L 7.96352,-37.5734
 L 7.78107,-37.5266 L 7.59418,-37.503 z
M -7.59418,-37.503 L -7.78107,-37.5266 L -7.96352,-37.5734 L -8.13866,-37.6428 L -8.30373,-37.7335 L -8.45613,-37.8442
 L -8.59344,-37.9732 L -8.71352,-38.1183 L -8.81445,-38.2774 L -8.89465,-38.4478 L -8.95287,-38.627 L -8.98816,-38.812
 L -9,-39 L -8.98816,-39.188 L -8.95287,-39.373 L -8.89465,-39.5522 L -8.81445,-39.7226 L -8.71352,-39.8817
 L -8.59344,-40.0268 L -8.45613,-40.1558 L -8.30373,-40.2665 L -8.13866,-40.3573 L -7.96352,-40.4266 L -7.78107,-40.4734
 L -7.59418,-40.4971 L -7.40581,-40.4971 L -7.21892,-40.4734 L -7.03647,-40.4266 L -6.86133,-40.3573 L -6.69626,-40.2665
 L -6.54385,-40.1558 L -6.40654,-40.0268 L -6.28647,-39.8817 L -6.18553,-39.7226 L -6.10533,-39.5522 L -6.04712,-39.373
 L -6.01183,-39.188 L -6,-39 L -6.01183,-38.812 L -6.04712,-38.627 L -6.10533,-38.4478 L -6.18553,-38.2774
 L -6.28647,-38.1183 L -6.40654,-37.9732 L -6.54385,-37.8442 L -6.69626,-37.7335 L -6.86133,-37.6428 L -7.03647,-37.5734
 L -7.21892,-37.5266 L -7.40581,-37.503 z
M -22.5942,-37.503 L -22.7811,-37.5266 L -22.9635,-37.5734 L -23.1387,-37.6428 L -23.3037,-37.7335 L -23.4561,-37.8442
 L -23.5934,-37.9732 L -23.7135,-38.1183 L -23.8145,-38.2774 L -23.8947,-38.4478 L -23.9529,-38.627 L -23.9882,-38.812
 L -24,-39 L -23.9882,-39.188 L -23.9529,-39.373 L -23.8947,-39.5522 L -23.8145,-39.7226 L -23.7135,-39.8817
 L -23.5934,-40.0268 L -23.4561,-40.1558 L -23.3037,-40.2665 L -23.1387,-40.3573 L -22.9635,-40.4266 L -22.7811,-40.4734
 L -22.5942,-40.4971 L -22.4058,-40.4971 L -22.2189,-40.4734 L -22.0365,-40.4266 L -21.8613,-40.3573 L -21.6963,-40.2665
 L -21.5439,-40.1558 L -21.4065,-40.0268 L -21.2865,-39.8817 L -21.1855,-39.7226 L -21.1053,-39.5522 L -21.0471,-39.373
 L -21.0118,-39.188 L -21,-39 L -21.0118,-38.812 L -21.0471,-38.627 L -21.1053,-38.4478 L -21.1855,-38.2774
 L -21.2865,-38.1183 L -21.4065,-37.9732 L -21.5439,-37.8442 L -21.6963,-37.7335 L -21.8613,-37.6428 L -22.0365,-37.5734
 L -22.2189,-37.5266 L -22.4058,-37.503 z
M -37.5942,-37.503 L -37.7811,-37.5266 L -37.9635,-37.5734 L -38.1387,-37.6428 L -38.3037,-37.7335 L -38.4561,-37.8442
 L -38.5934,-37.9732 L -38.7135,-38.1183 L -38.8145,-38.2774 L -38.8947,-38.4478 L -38.9529,-38.627 L -38.9882,-38.812
 L -39,-39 L -38.9882,-39.188 L -38.9529,-39.373 L -38.8947,-39.5522 L -38.8145,-39.7226 L -38.7135,-39.8817
 L -38.5934,-40.0268 L -38.4561,-40.1558 L -38.3037,-40.2665 L -38.1387,-40.3573 L -37.9635,-40.4266 L -37.7811,-40.4734
 L -37.5942,-40.4971 L -37.4058,-40.4971 L -37.2189,-40.4734 L -37.0365,-40.4266 L -36.8613,-40.3573 L -36.6963,-40.2665
 L -36.5439,-40.1558 L -36.4065,-40.0268 L -36.2865,-39.8817 L -36.1855,-39.7226 L -36.1053,-39.5522 L -36.0471,-39.373
 L -36.0118,-39.188 L -36,-39 L -36.0118,-38.812 L -36.0471,-38.627 L -36.1053,-38.4478 L -36.1855,-38.2774
 L -36.2865,-38.1183 L -36.4065,-37.9732 L -36.5439,-37.8442 L -36.6963,-37.7335 L -36.8613,-37.6428 L -37.0365,-37.5734
 L -37.2189,-37.5266 L -37.4058,-37.503 z
" stroke="black" fill="lightgray" stroke-width="0.5"/>
</svg>
