<?xml version="1.0" standalone="no"?>
<!DOCTYPE svg PUBLIC "-//W3C//DTD SVG 1.1//EN" "http://www.w3.org/Graphics/SVG/1.1/DTD/svg11.dtd">
<svg width="554mm" height="150mm" viewBox="-277 -75 554 150" xmlns="http://www.w3.org/2000/svg" version="1.1">
<title>OpenSCAD Model</title>
<path d="
M 272.937,74.4114 L 273.545,74.2553 L 274.129,74.0241 L 274.679,73.7216 L 275.187,73.3526 L 275.645,72.9227
 L 276.045,72.4389 L 276.382,71.9088 L 276.649,71.3406 L 276.843,70.7434 L 276.961,70.1267 L 277,69.5
 L 277,-69.5 L 276.961,-70.1267 L 276.843,-70.7434 L 276.649,-71.3406 L 276.382,-71.9088 L 276.045,-72.4389
 L 275.645,-72.9227 L 275.187,-73.3526 L 274.679,-73.7216 L 274.129,-74.0241 L 273.545,-74.2553 L 272.937,-74.4114
 L 272.314,-74.4901 L -272.314,-74.4901 L -272.937,-74.4114 L -273.545,-74.2553 L -274.129,-74.0241 L -274.679,-73.7216
 L -275.187,-73.3526 L -275.645,-72.9227 L -276.045,-72.4389 L -276.382,-71.9088 L -276.649,-71.3406 L -276.843,-70.7434
 L -276.961,-70.1267 L -277,-69.5 L -277,69.5 L -276.961,70.1267 L -276.843,70.7434 L -276.649,71.3406
 L -276.382,71.9088 L -276.045,72.4389 L -275.645,72.9227 L -275.187,73.3526 L -274.679,73.7216 L -274.129,74.0241
 L -273.545,74.2553 L -272.937,74.4114 L -272.314,74.4901 L 272.314,74.4901 z
M -270.188,-64.5059 L -270.562,-64.5531 L -270.927,-64.6468 L -271.277,-64.7855 L -271.607,-64.967 L -271.912,-65.1885
 L -272.187,-65.4464 L -272.427,-65.7366 L -272.629,-66.0547 L -272.789,-66.3956 L -272.906,-66.7539 L -272.976,-67.124
 L -273,-67.5 L -272.976,-67.876 L -272.906,-68.2461 L -272.789,-68.6044 L -272.629,-68.9453 L -272.427,-69.2634
 L -272.187,-69.5536 L -271.912,-69.8115 L -271.607,-70.033 L -271.277,-70.2145 L -270.927,-70.3532 L -270.562,-70.4469
 L -270.188,-70.4941 L -269.812,-70.4941 L -269.438,-70.4469 L -269.073,-70.3532 L -268.723,-70.2145 L -268.393,-70.033
 L -268.088,-69.8115 L -267.813,-69.5536 L -267.573,-69.2634 L -267.371,-68.9453 L -267.211,-68.6044 L -267.094,-68.2461
 L -267.024,-67.876 L -267,-67.5 L -267.024,-67.124 L -267.094,-66.7539 L -267.211,-66.3956 L -267.371,-66.0547
 L -267.573,-65.7366 L -267.813,-65.4464 L -268.088,-65.1885 L -268.393,-64.967 L -268.723,-64.7855 L -269.073,-64.6468
 L -269.438,-64.5531 L -269.812,-64.5059 z
M 269.812,-64.5059 L 269.438,-64.5531 L 269.073,-64.6468 L 268.723,-64.7855 L 268.393,-64.967 L 268.088,-65.1885
 L 267.813,-65.4464 L 267.573,-65.7366 L 267.371,-66.0547 L 267.211,-66.3956 L 267.094,-66.7539 L 267.024,-67.124
 L 267,-67.5 L 267.024,-67.876 L 267.094,-68.2461 L 267.211,-68.6044 L 267.371,-68.9453 L 267.573,-69.2634
 L 267.813,-69.5536 L 268.088,-69.8115 L 268.393,-70.033 L 268.723,-70.2145 L 269.073,-70.3532 L 269.438,-70.4469
 L 269.812,-70.4941 L 270.188,-70.4941 L 270.562,-70.4469 L 270.927,-70.3532 L 271.277,-70.2145 L 271.607,-70.033
 L 271.912,-69.8115 L 272.187,-69.5536 L 272.427,-69.2634 L 272.629,-68.9453 L 272.789,-68.6044 L 272.906,-68.2461
 L 272.976,-67.876 L 273,-67.5 L 272.976,-67.124 L 272.906,-66.7539 L 272.789,-66.3956 L 272.629,-66.0547
 L 272.427,-65.7366 L 272.187,-65.4464 L 271.912,-65.1885 L 271.607,-64.967 L 271.277,-64.7855 L 270.927,-64.6468
 L 270.562,-64.5531 L 270.188,-64.5059 z
M 198.419,64.8717 L 190.32,63.8487 L 182.414,61.8187 L 174.824,58.8138 L 167.671,54.8813 L 161.067,50.0834
 L 155.117,44.4956 L 149.914,38.206 L 145.54,31.314 L 142.065,23.9281 L 139.542,16.1648 L 138.013,8.14665
 L 137.5,-0 L 138.013,-8.14665 L 139.542,-16.1648 L 142.065,-23.9281 L 145.54,-31.314 L 149.914,-38.206
 L 155.117,-44.4956 L 161.067,-50.0834 L 167.671,-54.8813 L 174.824,-58.8138 L 182.414,-61.8187 L 190.32,-63.8487
 L 198.419,-64.8717 L 206.581,-64.8717 L 214.68,-63.8487 L 222.586,-61.8187 L 230.176,-58.8138 L 237.329,-54.8813
 L 243.933,-50.0834 L 249.883,-44.4956 L 255.086,-38.206 L 259.46,-31.314 L 262.935,-23.9281 L 265.458,-16.1648
 L 266.987,-8.14665 L 267.5,-0 L 266.987,8.14665 L 265.458,16.1648 L 262.935,23.9281 L 259.46,31.314
 L 255.086,38.206 L 249.883,44.4956 L 243.933,50.0834 L 237.329,54.8813 L 230.176,58.8138 L 222.586,61.8187
 L 214.68,63.8487 L 206.581,64.8717 z
M 63.4186,64.8717 L 55.3202,63.8487 L 47.4139,61.8187 L 39.8243,58.8138 L 32.6712,54.8813 L 26.0674,50.0834
 L 20.117,44.4956 L 14.9139,38.206 L 10.5401,31.314 L 7.06451,23.9281 L 4.54208,16.1648 L 3.01254,8.14665
 L 2.5,-0 L 3.01254,-8.14665 L 4.54208,-16.1648 L 7.06451,-23.9281 L 10.5401,-31.314 L 14.9139,-38.206
 L 20.117,-44.4956 L 26.0674,-50.0834 L 32.6712,-54.8813 L 39.8243,-58.8138 L 47.4139,-61.8187 L 55.3202,-63.8487
 L 63.4186,-64.8717 L 71.5814,-64.8717 L 79.6798,-63.8487 L 87.5861,-61.8187 L 95.1756,-58.8138 L 102.329,-54.8813
 L 108.933,-50.0834 L 114.883,-44.4956 L 120.086,-38.206 L 124.46,-31.314 L 127.935,-23.9281 L 130.458,-16.1648
 L 131.987,-8.14665 L 132.5,-0 L 131.987,8.14665 L 130.458,16.1648 L 127.935,23.9281 L 124.46,31.314
 L 120.086,38.206 L 114.883,44.4956 L 108.933,50.0834 L 102.329,54.8813 L 95.1756,58.8138 L 87.5861,61.8187
 L 79.6798,63.8487 L 71.5814,64.8717 z
M -71.5814,64.8717 L -79.6798,63.8487 L -87.5861,61.8187 L -95.1756,58.8138 L -102.329,54.8813 L -108.933,50.0834
 L -114.883,44.4956 L -120.086,38.206 L -124.46,31.314 L -127.935,23.9281 L -130.458,16.1648 L -131.987,8.14665
 L -132.5,-0 L -131.987,-8.14665 L -130.458,-16.1648 L -127.935,-23.9281 L -124.46,-31.314 L -120.086,-38.206
 L -114.883,-44.4956 L -108.933,-50.0834 L -102.329,-54.8813 L -95.1756,-58.8138 L -87.5861,-61.8187 L -79.6798,-63.8487
 L -71.5814,-64.8717 L -63.4186,-64.8717 L -55.3202,-63.8487 L -47.4139,-61.8187 L -39.8243,-58.8138 L -32.6712,-54.8813
 L -26.0674,-50.0834 L -20.117,-44.4956 L -14.9139,-38.206 L -10.5401,-31.314 L -7.06451,-23.9281 L -4.54208,-16.1648
 L -3.01254,-8.14665 L -2.5,-0 L -3.01254,8.14665 L -4.54208,16.1648 L -7.06451,23.9281 L -10.5401,31.314
 L -14.9139,38.206 L -20.117,44.4956 L -26.0674,50.0834 L -32.6712,54.8813 L -39.8243,58.8138 L -47.4139,61.8187
 L -55.3202,63.8487 L -63.4186,64.8717 z
M -206.581,64.8717 L -214.68,63.8487 L -222.586,61.8187 L -230.176,58.8138 L -237.329,54.8813 L -243.933,50.0834
 L -249.883,44.4956 L -255.086,38.206 L -259.46,31.314 L -262.935,23.9281 L -265.458,16.1648 L -266.987,8.14665
 L -267.5,-0 L -266.987,-8.14665 L -265.458,-16.1648 L -262.935,-23.9281 L -259.46,-31.314 L -255.086,-38.206
 L -249.883,-44.4956 L -243.933,-50.0834 L -237.329,-54.8813 L -230.176,-58.8138 L -222.586,-61.8187 L -214.68,-63.8487
 L -206.581,-64.8717 L -198.419,-64.8717 L -190.32,-63.8487 L -182.414,-61.8187 L -174.824,-58.8138 L -167.671,-54.8813
 L -161.067,-50.0834 L -155.117,-44.4956 L -149.914,-38.206 L -145.54,-31.314 L -142.065,-23.9281 L -139.542,-16.1648
 L -138.013,-8.14665 L -137.5,-0 L -138.013,8.14665 L -139.542,16.1648 L -142.065,23.9281 L -145.54,31.314
 L -149.914,38.206 L -155.117,44.4956 L -161.067,50.0834 L -167.671,54.8813 L -174.824,58.8138 L -182.414,61.8187
 L -190.32,63.8487 L -198.419,64.8717 z
M 269.812,70.4941 L 269.438,70.4469 L 269.073,70.3532 L 268.723,70.2145 L 268.393,70.033 L 268.088,69.8115
 L 267.813,69.5536 L 267.573,69.2634 L 267.371,68.9453 L 267.211,68.6044 L 267.094,68.2461 L 267.024,67.876
 L 267,67.5 L 267.024,67.124 L 267.094,66.7539 L 267.211,66.3956 L 267.371,66.0547 L 267.573,65.7366
 L 267.813,65.4464 L 268.088,65.1885 L 268.393,64.967 L 268.723,64.7855 L 269.073,64.6468 L 269.438,64.5531
 L 269.812,64.5059 L 270.188,64.5059 L 270.562,64.5531 L 270.927,64.6468 L 271.277,64.7855 L 271.607,64.967
 L 271.912,65.1885 L 272.187,65.4464 L 272.427,65.7366 L 272.629,66.0547 L 272.789,66.3956 L 272.906,66.7539
 L 272.976,67.124 L 273,67.5 L 272.976,67.876 L 272.906,68.2461 L 272.789,68.6044 L 272.629,68.9453
 L 272.427,69.2634 L 272.187,69.5536 L 271.912,69.8115 L 271.607,70.033 L 271.277,70.2145 L 270.927,70.3532
 L 270.562,70.4469 L 270.188,70.4941 z
M -270.188,70.4941 L -270.562,70.4469 L -270.927,70.3532 L -271.277,70.2145 L -271.607,70.033 L -271.912,69.8115
 L -272.187,69.5536 L -272.427,69.2634 L -272.629,68.9453 L -272.789,68.6044 L -272.906,68.2461 L -272.976,67.876
 L -273,67.5 L -272.976,67.124 L -272.906,66.7539 L -272.789,66.3956 L -272.629,66.0547 L -272.427,65.7366
 L -272.187,65.4464 L -271.912,65.1885 L -271.607,64.967 L -271.277,64.7855 L -270.927,64.6468 L -270.562,64.5531
 L -270.188,64.5059 L -269.812,64.5059 L -269.438,64.5531 L -269.073,64.6468 L -268.723,64.7855 L -268.393,64.967
 L -268.088,65.1885 L -267.813,65.4464 L -267.573,65.7366 L -267.371,66.0547 L -267.211,66.3956 L -267.094,66.7539
 L -267.024,67.124 L -267,67.5 L -267.024,67.876 L -267.094,68.2461 L -267.211,68.6044 L -267.371,68.9453
 L -267.573,69.2634 L -267.813,69.5536 L -268.088,69.8115 L -268.393,70.033 L -268.723,70.2145 L -269.073,70.3532
 L -269.438,70.4469 L -269.812,70.4941 z
" stroke="black" fill="lightgray" stroke-width="0.5"/>
</svg>
