<?xml version="1.0" standalone="no"?>
<!DOCTYPE svg PUBLIC "-//W3C//DTD SVG 1.1//EN" "http://www.w3.org/Graphics/SVG/1.1/DTD/svg11.dtd">
<svg width="194mm" height="44mm" viewBox="-97 -22 194 44" xmlns="http://www.w3.org/2000/svg" version="1.1">
<title>OpenSCAD Model</title>
<path d="
M 92.9369,21.9114 L 93.5451,21.7553 L 94.1289,21.5241 L 94.6791,21.2216 L 95.1871,20.8526 L 95.6448,20.4227
 L 96.0451,19.9389 L 96.3815,19.4088 L 96.6489,18.8406 L 96.8429,18.2434 L 96.9606,17.6267 L 97,17
 L 97,-17 L 96.9606,-17.6267 L 96.8429,-18.2434 L 96.6489,-18.8406 L 96.3815,-19.4088 L 96.0451,-19.9389
 L 95.6448,-20.4227 L 95.1871,-20.8526 L 94.6791,-21.2216 L 94.1289,-21.5241 L 93.5451,-21.7553 L 92.9369,-21.9114
 L 92.3139,-21.9901 L -92.3139,-21.9901 L -92.9369,-21.9114 L -93.5451,-21.7553 L -94.1289,-21.5241 L -94.6791,-21.2216
 L -95.1871,-20.8526 L -95.6448,-20.4227 L -96.0451,-19.9389 L -96.3815,-19.4088 L -96.6489,-18.8406 L -96.8429,-18.2434
 L -96.9606,-17.6267 L -97,-17 L -97,17 L -96.9606,17.6267 L -96.8429,18.2434 L -96.6489,18.8406
 L -96.3815,19.4088 L -96.0451,19.9389 L -95.6448,20.4227 L -95.1871,20.8526 L -94.6791,21.2216 L -94.1289,21.5241
 L -93.5451,21.7553 L -92.9369,21.9114 L -92.3139,21.9901 L 92.3139,21.9901 z
M 89.8116,-12.0059 L 89.4379,-12.0531 L 89.073,-12.1468 L 88.7227,-12.2855 L 88.3925,-12.467 L 88.0877,-12.6884
 L 87.8131,-12.9464 L 87.573,-13.2366 L 87.3711,-13.5547 L 87.2107,-13.8956 L 87.0943,-14.2539 L 87.0237,-14.624
 L 87,-15 L 87.0237,-15.376 L 87.0943,-15.7461 L 87.2107,-16.1044 L 87.3711,-16.4453 L 87.573,-16.7634
 L 87.8131,-17.0536 L 88.0877,-17.3115 L 88.3925,-17.533 L 88.7227,-17.7145 L 89.073,-17.8532 L 89.4379,-17.9469
 L 89.8116,-17.9941 L 90.1884,-17.9941 L 90.5621,-17.9469 L 90.927,-17.8532 L 91.2773,-17.7145 L 91.6075,-17.533
 L 91.9123,-17.3115 L 92.1869,-17.0536 L 92.427,-16.7634 L 92.6289,-16.4453 L 92.7893,-16.1044 L 92.9057,-15.7461
 L 92.9763,-15.376 L 93,-15 L 92.9763,-14.624 L 92.9057,-14.2539 L 92.7893,-13.8956 L 92.6289,-13.5547
 L 92.427,-13.2366 L 92.1869,-12.9464 L 91.9123,-12.6884 L 91.6075,-12.467 L 91.2773,-12.2855 L 90.927,-12.1468
 L 90.5621,-12.0531 L 90.1884,-12.0059 z
M -90.1884,-12.0059 L -90.5621,-12.0531 L -90.927,-12.1468 L -91.2773,-12.2855 L -91.6075,-12.467 L -91.9123,-12.6884
 L -92.1869,-12.9464 L -92.427,-13.2366 L -92.6289,-13.5547 L -92.7893,-13.8956 L -92.9057,-14.2539 L -92.9763,-14.624
 L -93,-15 L -92.9763,-15.376 L -92.9057,-15.7461 L -92.7893,-16.1044 L -92.6289,-16.4453 L -92.427,-16.7634
 L -92.1869,-17.0536 L -91.9123,-17.3115 L -91.6075,-17.533 L -91.2773,-17.7145 L -90.927,-17.8532 L -90.5621,-17.9469
 L -90.1884,-17.9941 L -89.8116,-17.9941 L -89.4379,-17.9469 L -89.073,-17.8532 L -88.7227,-17.7145 L -88.3925,-17.533
 L -88.0877,-17.3115 L -87.8131,-17.0536 L -87.573,-16.7634 L -87.3711,-16.4453 L -87.2107,-16.1044 L -87.0943,-15.7461
 L -87.0237,-15.376 L -87,-15 L -87.0237,-14.624 L -87.0943,-14.2539 L -87.2107,-13.8956 L -87.3711,-13.5547
 L -87.573,-13.2366 L -87.8131,-12.9464 L -88.0877,-12.6884 L -88.3925,-12.467 L -88.7227,-12.2855 L -89.073,-12.1468
 L -89.4379,-12.0531 L -89.8116,-12.0059 z
M 72.9953,15.9684 L 71.0019,15.7166 L 69.0557,15.2169 L 67.1875,14.4772 L 65.4268,13.5092 L 63.8012,12.3282
 L 62.3365,10.9527 L 61.0557,9.40456 L 59.9791,7.70805 L 59.1236,5.88998 L 58.5027,3.97903 L 58.1262,2.00533
 L 58,-0 L 58.1262,-2.00533 L 58.5027,-3.97903 L 59.1236,-5.88998 L 59.9791,-7.70805 L 61.0557,-9.40456
 L 62.3365,-10.9527 L 63.8012,-12.3282 L 65.4268,-13.5092 L 67.1875,-14.4772 L 69.0557,-15.2169 L 71.0019,-15.7166
 L 72.9953,-15.9684 L 75.0046,-15.9684 L 76.9981,-15.7166 L 78.9443,-15.2169 L 80.8125,-14.4772 L 82.5732,-13.5092
 L 84.1988,-12.3282 L 85.6635,-10.9527 L 86.9443,-9.40456 L 88.0209,-7.70805 L 88.8764,-5.88998 L 89.4973,-3.97903
 L 89.8738,-2.00533 L 90,-0 L 89.8738,2.00533 L 89.4973,3.97903 L 88.8764,5.88998 L 88.0209,7.70805
 L 86.9443,9.40456 L 85.6635,10.9527 L 84.1988,12.3282 L 82.5732,13.5092 L 80.8125,14.4772 L 78.9443,15.2169
 L 76.9981,15.7166 L 75.0046,15.9684 z
M 35.9953,15.9684 L 34.0019,15.7166 L 32.0557,15.2169 L 30.1875,14.4772 L 28.4268,13.5092 L 26.8012,12.3282
 L 25.3365,10.9527 L 24.0557,9.40456 L 22.9791,7.70805 L 22.1236,5.88998 L 21.5027,3.97903 L 21.1262,2.00533
 L 21,-0 L 21.1262,-2.00533 L 21.5027,-3.97903 L 22.1236,-5.88998 L 22.9791,-7.70805 L 24.0557,-9.40456
 L 25.3365,-10.9527 L 26.8012,-12.3282 L 28.4268,-13.5092 L 30.1875,-14.4772 L 32.0557,-15.2169 L 34.0019,-15.7166
 L 35.9953,-15.9684 L 38.0046,-15.9684 L 39.9981,-15.7166 L 41.9443,-15.2169 L 43.8125,-14.4772 L 45.5732,-13.5092
 L 47.1988,-12.3282 L 48.6635,-10.9527 L 49.9443,-9.40456 L 51.0209,-7.70805 L 51.8764,-5.88998 L 52.4973,-3.97903
 L 52.8738,-2.00533 L 53,-0 L 52.8738,2.00533 L 52.4973,3.97903 L 51.8764,5.88998 L 51.0209,7.70805
 L 49.9443,9.40456 L 48.6635,10.9527 L 47.1988,12.3282 L 45.5732,13.5092 L 43.8125,14.4772 L 41.9443,15.2169
 L 39.9981,15.7166 L 38.0046,15.9684 z
M -75.0046,15.9684 L -76.9981,15.7166 L -78.9443,15.2169 L -80.8125,14.4772 L -82.5732,13.5092 L -84.1988,12.3282
 L -85.6635,10.9527 L -86.9443,9.40456 L -88.0209,7.70805 L -88.8764,5.88998 L -89.4973,3.97903 L -89.8738,2.00533
 L -90,-0 L -89.8738,-2.00533 L -89.4973,-3.97903 L -88.8764,-5.88998 L -88.0209,-7.70805 L -86.9443,-9.40456
 L -85.6635,-10.9527 L -84.1988,-12.3282 L -82.5732,-13.5092 L -80.8125,-14.4772 L -78.9443,-15.2169 L -76.9981,-15.7166
 L -75.0046,-15.9684 L -72.9953,-15.9684 L -71.0019,-15.7166 L -69.0557,-15.2169 L -67.1875,-14.4772 L -65.4268,-13.5092
 L -63.8012,-12.3282 L -62.3365,-10.9527 L -61.0557,-9.40456 L -59.9791,-7.70805 L -59.1236,-5.88998 L -58.5027,-3.97903
 L -58.1262,-2.00533 L -58,-0 L -58.1262,2.00533 L -58.5027,3.97903 L -59.1236,5.88998 L -59.9791,7.70805
 L -61.0557,9.40456 L -62.3365,10.9527 L -63.8012,12.3282 L -65.4268,13.5092 L -67.1875,14.4772 L -69.0557,15.2169
 L -71.0019,15.7166 L -72.9953,15.9684 z
M -38.0046,15.9684 L -39.9981,15.7166 L -41.9443,15.2169 L -43.8125,14.4772 L -45.5732,13.5092 L -47.1988,12.3282
 L -48.6635,10.9527 L -49.9443,9.40456 L -51.0209,7.70805 L -51.8764,5.88998 L -52.4973,3.97903 L -52.8738,2.00533
 L -53,-0 L -52.8738,-2.00533 L -52.4973,-3.97903 L -51.8764,-5.88998 L -51.0209,-7.70805 L -49.9443,-9.40456
 L -48.6635,-10.9527 L -47.1988,-12.3282 L -45.5732,-13.5092 L -43.8125,-14.4772 L -41.9443,-15.2169 L -39.9981,-15.7166
 L -38.0046,-15.9684 L -35.9953,-15.9684 L -34.0019,-15.7166 L -32.0557,-15.2169 L -30.1875,-14.4772 L -28.4268,-13.5092
 L -26.8012,-12.3282 L -25.3365,-10.9527 L -24.0557,-9.40456 L -22.9791,-7.70805 L -22.1236,-5.88998 L -21.5027,-3.97903
 L -21.1262,-2.00533 L -21,-0 L -21.1262,2.00533 L -21.5027,3.97903 L -22.1236,5.88998 L -22.9791,7.70805
 L -24.0557,9.40456 L -25.3365,10.9527 L -26.8012,12.3282 L -28.4268,13.5092 L -30.1875,14.4772 L -32.0557,15.2169
 L -34.0019,15.7166 L -35.9953,15.9684 z
M -1.00464,15.9684 L -2.99809,15.7166 L -4.94426,15.2169 L -6.81245,14.4772 L -8.57323,13.5092 L -10.1988,12.3282
 L -11.6635,10.9527 L -12.9443,9.40456 L -14.0209,7.70805 L -14.8764,5.88998 L -15.4973,3.97903 L -15.8738,2.00533
 L -16,-0 L -15.8738,-2.00533 L -15.4973,-3.97903 L -14.8764,-5.88998 L -14.0209,-7.70805 L -12.9443,-9.40456
 L -11.6635,-10.9527 L -10.1988,-12.3282 L -8.57323,-13.5092 L -6.81245,-14.4772 L -4.94426,-15.2169 L -2.99809,-15.7166
 L -1.00464,-15.9684 L 1.00464,-15.9684 L 2.99809,-15.7166 L 4.94426,-15.2169 L 6.81245,-14.4772 L 8.57323,-13.5092
 L 10.1988,-12.3282 L 11.6635,-10.9527 L 12.9443,-9.40456 L 14.0209,-7.70805 L 14.8764,-5.88998 L 15.4973,-3.97903
 L 15.8738,-2.00533 L 16,-0 L 15.8738,2.00533 L 15.4973,3.97903 L 14.8764,5.88998 L 14.0209,7.70805
 L 12.9443,9.40456 L 11.6635,10.9527 L 10.1988,12.3282 L 8.57323,13.5092 L 6.81245,14.4772 L 4.94426,15.2169
 L 2.99809,15.7166 L 1.00464,15.9684 z
M 89.8116,17.9941 L 89.4379,17.9469 L 89.073,17.8532 L 88.7227,17.7145 L 88.3925,17.533 L 88.0877,17.3115
 L 87.8131,17.0536 L 87.573,16.7634 L 87.3711,16.4453 L 87.2107,16.1044 L 87.0943,15.7461 L 87.0237,15.376
 L 87,15 L 87.0237,14.624 L 87.0943,14.2539 L 87.2107,13.8956 L 87.3711,13.5547 L 87.573,13.2366
 L 87.8131,12.9464 L 88.0877,12.6884 L 88.3925,12.467 L 88.7227,12.2855 L 89.073,12.1468 L 89.4379,12.0531
 L 89.8116,12.0059 L 90.1884,12.0059 L 90.5621,12.0531 L 90.927,12.1468 L 91.2773,12.2855 L 91.6075,12.467
 L 91.9123,12.6884 L 92.1869,12.9464 L 92.427,13.2366 L 92.6289,13.5547 L 92.7893,13.8956 L 92.9057,14.2539
 L 92.9763,14.624 L 93,15 L 92.9763,15.376 L 92.9057,15.7461 L 92.7893,16.1044 L 92.6289,16.4453
 L 92.427,16.7634 L 92.1869,17.0536 L 91.9123,17.3115 L 91.6075,17.533 L 91.2773,17.7145 L 90.927,17.8532
 L 90.5621,17.9469 L 90.1884,17.9941 z
M -90.1884,17.9941 L -90.5621,17.9469 L -90.927,17.8532 L -91.2773,17.7145 L -91.6075,17.533 L -91.9123,17.3115
 L -92.1869,17.0536 L -92.427,16.7634 L -92.6289,16.4453 L -92.7893,16.1044 L -92.9057,15.7461 L -92.9763,15.376
 L -93,15 L -92.9763,14.624 L -92.9057,14.2539 L -92.7893,13.8956 L -92.6289,13.5547 L -92.427,13.2366
 L -92.1869,12.9464 L -91.9123,12.6884 L -91.6075,12.467 L -91.2773,12.2855 L -90.927,12.1468 L -90.5621,12.0531
 L -90.1884,12.0059 L -89.8116,12.0059 L -89.4379,12.0531 L -89.073,12.1468 L -88.7227,12.2855 L -88.3925,12.467
 L -88.0877,12.6884 L -87.8131,12.9464 L -87.573,13.2366 L -87.3711,13.5547 L -87.2107,13.8956 L -87.0943,14.2539
 L -87.0237,14.624 L -87,15 L -87.0237,15.376 L -87.0943,15.7461 L -87.2107,16.1044 L -87.3711,16.4453
 L -87.573,16.7634 L -87.8131,17.0536 L -88.0877,17.3115 L -88.3925,17.533 L -88.7227,17.7145 L -89.073,17.8532
 L -89.4379,17.9469 L -89.8116,17.9941 z
" stroke="black" fill="lightgray" stroke-width="0.5"/>
</svg>
