  0
SECTION
  2
BLOCKS
  0
ENDSEC
  0
SECTION
  2
ENTITIES
  0
LINE
  8
0
 10
17.9369
 20
24.5886
 11
18.5451
 21
24.7447
  0
LINE
  8
0
 10
18.5451
 20
24.7447
 11
19.1289
 21
24.9759
  0
LINE
  8
0
 10
19.1289
 20
24.9759
 11
19.6791
 21
25.2784
  0
LINE
  8
0
 10
19.6791
 20
25.2784
 11
20.1871
 21
25.6474
  0
LINE
  8
0
 10
20.1871
 20
25.6474
 11
20.6448
 21
26.0773
  0
LINE
  8
0
 10
20.6448
 20
26.0773
 11
21.0451
 21
26.5611
  0
LINE
  8
0
 10
21.0451
 20
26.5611
 11
21.3815
 21
27.0912
  0
LINE
  8
0
 10
21.3815
 20
27.0912
 11
21.6489
 21
27.6594
  0
LINE
  8
0
 10
21.6489
 20
27.6594
 11
21.8429
 21
28.2566
  0
LINE
  8
0
 10
21.8429
 20
28.2566
 11
21.9606
 21
28.8733
  0
LINE
  8
0
 10
21.9606
 20
28.8733
 11
22
 21
29.5
  0
LINE
  8
0
 10
22
 20
29.5
 11
22
 21
48.5
  0
LINE
  8
0
 10
22
 20
48.5
 11
21.9606
 21
49.1267
  0
LINE
  8
0
 10
21.9606
 20
49.1267
 11
21.8429
 21
49.7434
  0
LINE
  8
0
 10
21.8429
 20
49.7434
 11
21.6489
 21
50.3406
  0
LINE
  8
0
 10
21.6489
 20
50.3406
 11
21.3815
 21
50.9088
  0
LINE
  8
0
 10
21.3815
 20
50.9088
 11
21.0451
 21
51.4389
  0
LINE
  8
0
 10
21.0451
 20
51.4389
 11
20.6448
 21
51.9227
  0
LINE
  8
0
 10
20.6448
 20
51.9227
 11
20.1871
 21
52.3526
  0
LINE
  8
0
 10
20.1871
 20
52.3526
 11
19.6791
 21
52.7216
  0
LINE
  8
0
 10
19.6791
 20
52.7216
 11
19.1289
 21
53.0241
  0
LINE
  8
0
 10
19.1289
 20
53.0241
 11
18.5451
 21
53.2553
  0
LINE
  8
0
 10
18.5451
 20
53.2553
 11
17.9369
 21
53.4114
  0
LINE
  8
0
 10
17.9369
 20
53.4114
 11
17.3139
 21
53.4901
  0
LINE
  8
0
 10
17.3139
 20
53.4901
 11
-17.3139
 21
53.4901
  0
LINE
  8
0
 10
-17.3139
 20
53.4901
 11
-17.9369
 21
53.4114
  0
LINE
  8
0
 10
-17.9369
 20
53.4114
 11
-18.5451
 21
53.2553
  0
LINE
  8
0
 10
-18.5451
 20
53.2553
 11
-19.1289
 21
53.0241
  0
LINE
  8
0
 10
-19.1289
 20
53.0241
 11
-19.6791
 21
52.7216
  0
LINE
  8
0
 10
-19.6791
 20
52.7216
 11
-20.1871
 21
52.3526
  0
LINE
  8
0
 10
-20.1871
 20
52.3526
 11
-20.6448
 21
51.9227
  0
LINE
  8
0
 10
-20.6448
 20
51.9227
 11
-21.0451
 21
51.4389
  0
LINE
  8
0
 10
-21.0451
 20
51.4389
 11
-21.3815
 21
50.9088
  0
LINE
  8
0
 10
-21.3815
 20
50.9088
 11
-21.6489
 21
50.3406
  0
LINE
  8
0
 10
-21.6489
 20
50.3406
 11
-21.8429
 21
49.7434
  0
LINE
  8
0
 10
-21.8429
 20
49.7434
 11
-21.9606
 21
49.1267
  0
LINE
  8
0
 10
-21.9606
 20
49.1267
 11
-22
 21
48.5
  0
LINE
  8
0
 10
-22
 20
48.5
 11
-22
 21
29.5
  0
LINE
  8
0
 10
-22
 20
29.5
 11
-21.9606
 21
28.8733
  0
LINE
  8
0
 10
-21.9606
 20
28.8733
 11
-21.8429
 21
28.2566
  0
LINE
  8
0
 10
-21.8429
 20
28.2566
 11
-21.6489
 21
27.6594
  0
LINE
  8
0
 10
-21.6489
 20
27.6594
 11
-21.3815
 21
27.0912
  0
LINE
  8
0
 10
-21.3815
 20
27.0912
 11
-21.0451
 21
26.5611
  0
LINE
  8
0
 10
-21.0451
 20
26.5611
 11
-20.6448
 21
26.0773
  0
LINE
  8
0
 10
-20.6448
 20
26.0773
 11
-20.1871
 21
25.6474
  0
LINE
  8
0
 10
-20.1871
 20
25.6474
 11
-19.6791
 21
25.2784
  0
LINE
  8
0
 10
-19.6791
 20
25.2784
 11
-19.1289
 21
24.9759
  0
LINE
  8
0
 10
-19.1289
 20
24.9759
 11
-18.5451
 21
24.7447
  0
LINE
  8
0
 10
-18.5451
 20
24.7447
 11
-17.9369
 21
24.5886
  0
LINE
  8
0
 10
-17.9369
 20
24.5886
 11
-17.3139
 21
24.5099
  0
LINE
  8
0
 10
-17.3139
 20
24.5099
 11
17.3139
 21
24.5099
  0
LINE
  8
0
 10
17.3139
 20
24.5099
 11
17.9369
 21
24.5886
  0
LINE
  8
0
 10
-15.1884
 20
43.5059
 11
-15.5621
 21
43.5531
  0
LINE
  8
0
 10
-15.5621
 20
43.5531
 11
-15.927
 21
43.6468
  0
LINE
  8
0
 10
-15.927
 20
43.6468
 11
-16.2773
 21
43.7855
  0
LINE
  8
0
 10
-16.2773
 20
43.7855
 11
-16.6075
 21
43.967
  0
LINE
  8
0
 10
-16.6075
 20
43.967
 11
-16.9123
 21
44.1884
  0
LINE
  8
0
 10
-16.9123
 20
44.1884
 11
-17.1869
 21
44.4464
  0
LINE
  8
0
 10
-17.1869
 20
44.4464
 11
-17.427
 21
44.7366
  0
LINE
  8
0
 10
-17.427
 20
44.7366
 11
-17.6289
 21
45.0547
  0
LINE
  8
0
 10
-17.6289
 20
45.0547
 11
-17.7893
 21
45.3956
  0
LINE
  8
0
 10
-17.7893
 20
45.3956
 11
-17.9057
 21
45.7539
  0
LINE
  8
0
 10
-17.9057
 20
45.7539
 11
-17.9763
 21
46.124
  0
LINE
  8
0
 10
-17.9763
 20
46.124
 11
-18
 21
46.5
  0
LINE
  8
0
 10
-18
 20
46.5
 11
-17.9763
 21
46.876
  0
LINE
  8
0
 10
-17.9763
 20
46.876
 11
-17.9057
 21
47.2461
  0
LINE
  8
0
 10
-17.9057
 20
47.2461
 11
-17.7893
 21
47.6044
  0
LINE
  8
0
 10
-17.7893
 20
47.6044
 11
-17.6289
 21
47.9453
  0
LINE
  8
0
 10
-17.6289
 20
47.9453
 11
-17.427
 21
48.2634
  0
LINE
  8
0
 10
-17.427
 20
48.2634
 11
-17.1869
 21
48.5536
  0
LINE
  8
0
 10
-17.1869
 20
48.5536
 11
-16.9123
 21
48.8115
  0
LINE
  8
0
 10
-16.9123
 20
48.8115
 11
-16.6075
 21
49.033
  0
LINE
  8
0
 10
-16.6075
 20
49.033
 11
-16.2773
 21
49.2145
  0
LINE
  8
0
 10
-16.2773
 20
49.2145
 11
-15.927
 21
49.3532
  0
LINE
  8
0
 10
-15.927
 20
49.3532
 11
-15.5621
 21
49.4469
  0
LINE
  8
0
 10
-15.5621
 20
49.4469
 11
-15.1884
 21
49.4941
  0
LINE
  8
0
 10
-15.1884
 20
49.4941
 11
-14.8116
 21
49.4941
  0
LINE
  8
0
 10
-14.8116
 20
49.4941
 11
-14.4379
 21
49.4469
  0
LINE
  8
0
 10
-14.4379
 20
49.4469
 11
-14.0729
 21
49.3532
  0
LINE
  8
0
 10
-14.0729
 20
49.3532
 11
-13.7227
 21
49.2145
  0
LINE
  8
0
 10
-13.7227
 20
49.2145
 11
-13.3925
 21
49.033
  0
LINE
  8
0
 10
-13.3925
 20
49.033
 11
-13.0877
 21
48.8115
  0
LINE
  8
0
 10
-13.0877
 20
48.8115
 11
-12.8131
 21
48.5536
  0
LINE
  8
0
 10
-12.8131
 20
48.5536
 11
-12.5729
 21
48.2634
  0
LINE
  8
0
 10
-12.5729
 20
48.2634
 11
-12.3711
 21
47.9453
  0
LINE
  8
0
 10
-12.3711
 20
47.9453
 11
-12.2107
 21
47.6044
  0
LINE
  8
0
 10
-12.2107
 20
47.6044
 11
-12.0942
 21
47.2461
  0
LINE
  8
0
 10
-12.0942
 20
47.2461
 11
-12.0237
 21
46.876
  0
LINE
  8
0
 10
-12.0237
 20
46.876
 11
-12
 21
46.5
  0
LINE
  8
0
 10
-12
 20
46.5
 11
-12.0237
 21
46.124
  0
LINE
  8
0
 10
-12.0237
 20
46.124
 11
-12.0942
 21
45.7539
  0
LINE
  8
0
 10
-12.0942
 20
45.7539
 11
-12.2107
 21
45.3956
  0
LINE
  8
0
 10
-12.2107
 20
45.3956
 11
-12.3711
 21
45.0547
  0
LINE
  8
0
 10
-12.3711
 20
45.0547
 11
-12.5729
 21
44.7366
  0
LINE
  8
0
 10
-12.5729
 20
44.7366
 11
-12.8131
 21
44.4464
  0
LINE
  8
0
 10
-12.8131
 20
44.4464
 11
-13.0877
 21
44.1884
  0
LINE
  8
0
 10
-13.0877
 20
44.1884
 11
-13.3925
 21
43.967
  0
LINE
  8
0
 10
-13.3925
 20
43.967
 11
-13.7227
 21
43.7855
  0
LINE
  8
0
 10
-13.7227
 20
43.7855
 11
-14.0729
 21
43.6468
  0
LINE
  8
0
 10
-14.0729
 20
43.6468
 11
-14.4379
 21
43.5531
  0
LINE
  8
0
 10
-14.4379
 20
43.5531
 11
-14.8116
 21
43.5059
  0
LINE
  8
0
 10
-14.8116
 20
43.5059
 11
-15.1884
 21
43.5059
  0
LINE
  8
0
 10
-0.18837
 20
43.5059
 11
-0.562134
 21
43.5531
  0
LINE
  8
0
 10
-0.562134
 20
43.5531
 11
-0.927048
 21
43.6468
  0
LINE
  8
0
 10
-0.927048
 20
43.6468
 11
-1.27733
 21
43.7855
  0
LINE
  8
0
 10
-1.27733
 20
43.7855
 11
-1.60747
 21
43.967
  0
LINE
  8
0
 10
-1.60747
 20
43.967
 11
-1.91226
 21
44.1884
  0
LINE
  8
0
 10
-1.91226
 20
44.1884
 11
-2.1869
 21
44.4464
  0
LINE
  8
0
 10
-2.1869
 20
44.4464
 11
-2.42705
 21
44.7366
  0
LINE
  8
0
 10
-2.42705
 20
44.7366
 11
-2.62891
 21
45.0547
  0
LINE
  8
0
 10
-2.62891
 20
45.0547
 11
-2.78932
 21
45.3956
  0
LINE
  8
0
 10
-2.78932
 20
45.3956
 11
-2.90575
 21
45.7539
  0
LINE
  8
0
 10
-2.90575
 20
45.7539
 11
-2.97633
 21
46.124
  0
LINE
  8
0
 10
-2.97633
 20
46.124
 11
-3
 21
46.5
  0
LINE
  8
0
 10
-3
 20
46.5
 11
-2.97633
 21
46.876
  0
LINE
  8
0
 10
-2.97633
 20
46.876
 11
-2.90575
 21
47.2461
  0
LINE
  8
0
 10
-2.90575
 20
47.2461
 11
-2.78932
 21
47.6044
  0
LINE
  8
0
 10
-2.78932
 20
47.6044
 11
-2.62891
 21
47.9453
  0
LINE
  8
0
 10
-2.62891
 20
47.9453
 11
-2.42705
 21
48.2634
  0
LINE
  8
0
 10
-2.42705
 20
48.2634
 11
-2.1869
 21
48.5536
  0
LINE
  8
0
 10
-2.1869
 20
48.5536
 11
-1.91226
 21
48.8115
  0
LINE
  8
0
 10
-1.91226
 20
48.8115
 11
-1.60747
 21
49.033
  0
LINE
  8
0
 10
-1.60747
 20
49.033
 11
-1.27733
 21
49.2145
  0
LINE
  8
0
 10
-1.27733
 20
49.2145
 11
-0.927048
 21
49.3532
  0
LINE
  8
0
 10
-0.927048
 20
49.3532
 11
-0.562134
 21
49.4469
  0
LINE
  8
0
 10
-0.562134
 20
49.4469
 11
-0.18837
 21
49.4941
  0
LINE
  8
0
 10
-0.18837
 20
49.4941
 11
0.18837
 21
49.4941
  0
LINE
  8
0
 10
0.18837
 20
49.4941
 11
0.562134
 21
49.4469
  0
LINE
  8
0
 10
0.562134
 20
49.4469
 11
0.927048
 21
49.3532
  0
LINE
  8
0
 10
0.927048
 20
49.3532
 11
1.27733
 21
49.2145
  0
LINE
  8
0
 10
1.27733
 20
49.2145
 11
1.60747
 21
49.033
  0
LINE
  8
0
 10
1.60747
 20
49.033
 11
1.91226
 21
48.8115
  0
LINE
  8
0
 10
1.91226
 20
48.8115
 11
2.1869
 21
48.5536
  0
LINE
  8
0
 10
2.1869
 20
48.5536
 11
2.42705
 21
48.2634
  0
LINE
  8
0
 10
2.42705
 20
48.2634
 11
2.62891
 21
47.9453
  0
LINE
  8
0
 10
2.62891
 20
47.9453
 11
2.78932
 21
47.6044
  0
LINE
  8
0
 10
2.78932
 20
47.6044
 11
2.90575
 21
47.2461
  0
LINE
  8
0
 10
2.90575
 20
47.2461
 11
2.97633
 21
46.876
  0
LINE
  8
0
 10
2.97633
 20
46.876
 11
3
 21
46.5
  0
LINE
  8
0
 10
3
 20
46.5
 11
2.97633
 21
46.124
  0
LINE
  8
0
 10
2.97633
 20
46.124
 11
2.90575
 21
45.7539
  0
LINE
  8
0
 10
2.90575
 20
45.7539
 11
2.78932
 21
45.3956
  0
LINE
  8
0
 10
2.78932
 20
45.3956
 11
2.62891
 21
45.0547
  0
LINE
  8
0
 10
2.62891
 20
45.0547
 11
2.42705
 21
44.7366
  0
LINE
  8
0
 10
2.42705
 20
44.7366
 11
2.1869
 21
44.4464
  0
LINE
  8
0
 10
2.1869
 20
44.4464
 11
1.91226
 21
44.1884
  0
LINE
  8
0
 10
1.91226
 20
44.1884
 11
1.60747
 21
43.967
  0
LINE
  8
0
 10
1.60747
 20
43.967
 11
1.27733
 21
43.7855
  0
LINE
  8
0
 10
1.27733
 20
43.7855
 11
0.927048
 21
43.6468
  0
LINE
  8
0
 10
0.927048
 20
43.6468
 11
0.562134
 21
43.5531
  0
LINE
  8
0
 10
0.562134
 20
43.5531
 11
0.18837
 21
43.5059
  0
LINE
  8
0
 10
0.18837
 20
43.5059
 11
-0.18837
 21
43.5059
  0
LINE
  8
0
 10
14.8116
 20
43.5059
 11
14.4379
 21
43.5531
  0
LINE
  8
0
 10
14.4379
 20
43.5531
 11
14.0729
 21
43.6468
  0
LINE
  8
0
 10
14.0729
 20
43.6468
 11
13.7227
 21
43.7855
  0
LINE
  8
0
 10
13.7227
 20
43.7855
 11
13.3925
 21
43.967
  0
LINE
  8
0
 10
13.3925
 20
43.967
 11
13.0877
 21
44.1884
  0
LINE
  8
0
 10
13.0877
 20
44.1884
 11
12.8131
 21
44.4464
  0
LINE
  8
0
 10
12.8131
 20
44.4464
 11
12.5729
 21
44.7366
  0
LINE
  8
0
 10
12.5729
 20
44.7366
 11
12.3711
 21
45.0547
  0
LINE
  8
0
 10
12.3711
 20
45.0547
 11
12.2107
 21
45.3956
  0
LINE
  8
0
 10
12.2107
 20
45.3956
 11
12.0942
 21
45.7539
  0
LINE
  8
0
 10
12.0942
 20
45.7539
 11
12.0237
 21
46.124
  0
LINE
  8
0
 10
12.0237
 20
46.124
 11
12
 21
46.5
  0
LINE
  8
0
 10
12
 20
46.5
 11
12.0237
 21
46.876
  0
LINE
  8
0
 10
12.0237
 20
46.876
 11
12.0942
 21
47.2461
  0
LINE
  8
0
 10
12.0942
 20
47.2461
 11
12.2107
 21
47.6044
  0
LINE
  8
0
 10
12.2107
 20
47.6044
 11
12.3711
 21
47.9453
  0
LINE
  8
0
 10
12.3711
 20
47.9453
 11
12.5729
 21
48.2634
  0
LINE
  8
0
 10
12.5729
 20
48.2634
 11
12.8131
 21
48.5536
  0
LINE
  8
0
 10
12.8131
 20
48.5536
 11
13.0877
 21
48.8115
  0
LINE
  8
0
 10
13.0877
 20
48.8115
 11
13.3925
 21
49.033
  0
LINE
  8
0
 10
13.3925
 20
49.033
 11
13.7227
 21
49.2145
  0
LINE
  8
0
 10
13.7227
 20
49.2145
 11
14.0729
 21
49.3532
  0
LINE
  8
0
 10
14.0729
 20
49.3532
 11
14.4379
 21
49.4469
  0
LINE
  8
0
 10
14.4379
 20
49.4469
 11
14.8116
 21
49.4941
  0
LINE
  8
0
 10
14.8116
 20
49.4941
 11
15.1884
 21
49.4941
  0
LINE
  8
0
 10
15.1884
 20
49.4941
 11
15.5621
 21
49.4469
  0
LINE
  8
0
 10
15.5621
 20
49.4469
 11
15.927
 21
49.3532
  0
LINE
  8
0
 10
15.927
 20
49.3532
 11
16.2773
 21
49.2145
  0
LINE
  8
0
 10
16.2773
 20
49.2145
 11
16.6075
 21
49.033
  0
LINE
  8
0
 10
16.6075
 20
49.033
 11
16.9123
 21
48.8115
  0
LINE
  8
0
 10
16.9123
 20
48.8115
 11
17.1869
 21
48.5536
  0
LINE
  8
0
 10
17.1869
 20
48.5536
 11
17.427
 21
48.2634
  0
LINE
  8
0
 10
17.427
 20
48.2634
 11
17.6289
 21
47.9453
  0
LINE
  8
0
 10
17.6289
 20
47.9453
 11
17.7893
 21
47.6044
  0
LINE
  8
0
 10
17.7893
 20
47.6044
 11
17.9057
 21
47.2461
  0
LINE
  8
0
 10
17.9057
 20
47.2461
 11
17.9763
 21
46.876
  0
LINE
  8
0
 10
17.9763
 20
46.876
 11
18
 21
46.5
  0
LINE
  8
0
 10
18
 20
46.5
 11
17.9763
 21
46.124
  0
LINE
  8
0
 10
17.9763
 20
46.124
 11
17.9057
 21
45.7539
  0
LINE
  8
0
 10
17.9057
 20
45.7539
 11
17.7893
 21
45.3956
  0
LINE
  8
0
 10
17.7893
 20
45.3956
 11
17.6289
 21
45.0547
  0
LINE
  8
0
 10
17.6289
 20
45.0547
 11
17.427
 21
44.7366
  0
LINE
  8
0
 10
17.427
 20
44.7366
 11
17.1869
 21
44.4464
  0
LINE
  8
0
 10
17.1869
 20
44.4464
 11
16.9123
 21
44.1884
  0
LINE
  8
0
 10
16.9123
 20
44.1884
 11
16.6075
 21
43.967
  0
LINE
  8
0
 10
16.6075
 20
43.967
 11
16.2773
 21
43.7855
  0
LINE
  8
0
 10
16.2773
 20
43.7855
 11
15.927
 21
43.6468
  0
LINE
  8
0
 10
15.927
 20
43.6468
 11
15.5621
 21
43.5531
  0
LINE
  8
0
 10
15.5621
 20
43.5531
 11
15.1884
 21
43.5059
  0
LINE
  8
0
 10
15.1884
 20
43.5059
 11
14.8116
 21
43.5059
  0
LINE
  8
0
 10
-7.59418
 20
45.0029
 11
-7.78107
 21
45.0266
  0
LINE
  8
0
 10
-7.78107
 20
45.0266
 11
-7.96352
 21
45.0734
  0
LINE
  8
0
 10
-7.96352
 20
45.0734
 11
-8.13866
 21
45.1427
  0
LINE
  8
0
 10
-8.13866
 20
45.1427
 11
-8.30373
 21
45.2335
  0
LINE
  8
0
 10
-8.30373
 20
45.2335
 11
-8.45613
 21
45.3442
  0
LINE
  8
0
 10
-8.45613
 20
45.3442
 11
-8.59344
 21
45.4732
  0
LINE
  8
0
 10
-8.59344
 20
45.4732
 11
-8.71352
 21
45.6183
  0
LINE
  8
0
 10
-8.71352
 20
45.6183
 11
-8.81445
 21
45.7774
  0
LINE
  8
0
 10
-8.81445
 20
45.7774
 11
-8.89465
 21
45.9478
  0
LINE
  8
0
 10
-8.89465
 20
45.9478
 11
-8.95287
 21
46.127
  0
LINE
  8
0
 10
-8.95287
 20
46.127
 11
-8.98816
 21
46.312
  0
LINE
  8
0
 10
-8.98816
 20
46.312
 11
-9
 21
46.5
  0
LINE
  8
0
 10
-9
 20
46.5
 11
-8.98816
 21
46.688
  0
LINE
  8
0
 10
-8.98816
 20
46.688
 11
-8.95287
 21
46.873
  0
LINE
  8
0
 10
-8.95287
 20
46.873
 11
-8.89465
 21
47.0522
  0
LINE
  8
0
 10
-8.89465
 20
47.0522
 11
-8.81445
 21
47.2226
  0
LINE
  8
0
 10
-8.81445
 20
47.2226
 11
-8.71352
 21
47.3817
  0
LINE
  8
0
 10
-8.71352
 20
47.3817
 11
-8.59344
 21
47.5268
  0
LINE
  8
0
 10
-8.59344
 20
47.5268
 11
-8.45613
 21
47.6558
  0
LINE
  8
0
 10
-8.45613
 20
47.6558
 11
-8.30373
 21
47.7665
  0
LINE
  8
0
 10
-8.30373
 20
47.7665
 11
-8.13866
 21
47.8572
  0
LINE
  8
0
 10
-8.13866
 20
47.8572
 11
-7.96352
 21
47.9266
  0
LINE
  8
0
 10
-7.96352
 20
47.9266
 11
-7.78107
 21
47.9734
  0
LINE
  8
0
 10
-7.78107
 20
47.9734
 11
-7.59418
 21
47.997
  0
LINE
  8
0
 10
-7.59418
 20
47.997
 11
-7.40581
 21
47.997
  0
LINE
  8
0
 10
-7.40581
 20
47.997
 11
-7.21892
 21
47.9734
  0
LINE
  8
0
 10
-7.21892
 20
47.9734
 11
-7.03647
 21
47.9266
  0
LINE
  8
0
 10
-7.03647
 20
47.9266
 11
-6.86133
 21
47.8572
  0
LINE
  8
0
 10
-6.86133
 20
47.8572
 11
-6.69626
 21
47.7665
  0
LINE
  8
0
 10
-6.69626
 20
47.7665
 11
-6.54385
 21
47.6558
  0
LINE
  8
0
 10
-6.54385
 20
47.6558
 11
-6.40654
 21
47.5268
  0
LINE
  8
0
 10
-6.40654
 20
47.5268
 11
-6.28647
 21
47.3817
  0
LINE
  8
0
 10
-6.28647
 20
47.3817
 11
-6.18553
 21
47.2226
  0
LINE
  8
0
 10
-6.18553
 20
47.2226
 11
-6.10533
 21
47.0522
  0
LINE
  8
0
 10
-6.10533
 20
47.0522
 11
-6.04712
 21
46.873
  0
LINE
  8
0
 10
-6.04712
 20
46.873
 11
-6.01183
 21
46.688
  0
LINE
  8
0
 10
-6.01183
 20
46.688
 11
-6
 21
46.5
  0
LINE
  8
0
 10
-6
 20
46.5
 11
-6.01183
 21
46.312
  0
LINE
  8
0
 10
-6.01183
 20
46.312
 11
-6.04712
 21
46.127
  0
LINE
  8
0
 10
-6.04712
 20
46.127
 11
-6.10533
 21
45.9478
  0
LINE
  8
0
 10
-6.10533
 20
45.9478
 11
-6.18553
 21
45.7774
  0
LINE
  8
0
 10
-6.18553
 20
45.7774
 11
-6.28647
 21
45.6183
  0
LINE
  8
0
 10
-6.28647
 20
45.6183
 11
-6.40654
 21
45.4732
  0
LINE
  8
0
 10
-6.40654
 20
45.4732
 11
-6.54385
 21
45.3442
  0
LINE
  8
0
 10
-6.54385
 20
45.3442
 11
-6.69626
 21
45.2335
  0
LINE
  8
0
 10
-6.69626
 20
45.2335
 11
-6.86133
 21
45.1427
  0
LINE
  8
0
 10
-6.86133
 20
45.1427
 11
-7.03647
 21
45.0734
  0
LINE
  8
0
 10
-7.03647
 20
45.0734
 11
-7.21892
 21
45.0266
  0
LINE
  8
0
 10
-7.21892
 20
45.0266
 11
-7.40581
 21
45.0029
  0
LINE
  8
0
 10
-7.40581
 20
45.0029
 11
-7.59418
 21
45.0029
  0
LINE
  8
0
 10
7.40581
 20
45.0029
 11
7.21892
 21
45.0266
  0
LINE
  8
0
 10
7.21892
 20
45.0266
 11
7.03647
 21
45.0734
  0
LINE
  8
0
 10
7.03647
 20
45.0734
 11
6.86133
 21
45.1427
  0
LINE
  8
0
 10
6.86133
 20
45.1427
 11
6.69626
 21
45.2335
  0
LINE
  8
0
 10
6.69626
 20
45.2335
 11
6.54385
 21
45.3442
  0
LINE
  8
0
 10
6.54385
 20
45.3442
 11
6.40654
 21
45.4732
  0
LINE
  8
0
 10
6.40654
 20
45.4732
 11
6.28647
 21
45.6183
  0
LINE
  8
0
 10
6.28647
 20
45.6183
 11
6.18553
 21
45.7774
  0
LINE
  8
0
 10
6.18553
 20
45.7774
 11
6.10533
 21
45.9478
  0
LINE
  8
0
 10
6.10533
 20
45.9478
 11
6.04712
 21
46.127
  0
LINE
  8
0
 10
6.04712
 20
46.127
 11
6.01183
 21
46.312
  0
LINE
  8
0
 10
6.01183
 20
46.312
 11
6
 21
46.5
  0
LINE
  8
0
 10
6
 20
46.5
 11
6.01183
 21
46.688
  0
LINE
  8
0
 10
6.01183
 20
46.688
 11
6.04712
 21
46.873
  0
LINE
  8
0
 10
6.04712
 20
46.873
 11
6.10533
 21
47.0522
  0
LINE
  8
0
 10
6.10533
 20
47.0522
 11
6.18553
 21
47.2226
  0
LINE
  8
0
 10
6.18553
 20
47.2226
 11
6.28647
 21
47.3817
  0
LINE
  8
0
 10
6.28647
 20
47.3817
 11
6.40654
 21
47.5268
  0
LINE
  8
0
 10
6.40654
 20
47.5268
 11
6.54385
 21
47.6558
  0
LINE
  8
0
 10
6.54385
 20
47.6558
 11
6.69626
 21
47.7665
  0
LINE
  8
0
 10
6.69626
 20
47.7665
 11
6.86133
 21
47.8572
  0
LINE
  8
0
 10
6.86133
 20
47.8572
 11
7.03647
 21
47.9266
  0
LINE
  8
0
 10
7.03647
 20
47.9266
 11
7.21892
 21
47.9734
  0
LINE
  8
0
 10
7.21892
 20
47.9734
 11
7.40581
 21
47.997
  0
LINE
  8
0
 10
7.40581
 20
47.997
 11
7.59418
 21
47.997
  0
LINE
  8
0
 10
7.59418
 20
47.997
 11
7.78107
 21
47.9734
  0
LINE
  8
0
 10
7.78107
 20
47.9734
 11
7.96352
 21
47.9266
  0
LINE
  8
0
 10
7.96352
 20
47.9266
 11
8.13866
 21
47.8572
  0
LINE
  8
0
 10
8.13866
 20
47.8572
 11
8.30373
 21
47.7665
  0
LINE
  8
0
 10
8.30373
 20
47.7665
 11
8.45613
 21
47.6558
  0
LINE
  8
0
 10
8.45613
 20
47.6558
 11
8.59344
 21
47.5268
  0
LINE
  8
0
 10
8.59344
 20
47.5268
 11
8.71352
 21
47.3817
  0
LINE
  8
0
 10
8.71352
 20
47.3817
 11
8.81445
 21
47.2226
  0
LINE
  8
0
 10
8.81445
 20
47.2226
 11
8.89465
 21
47.0522
  0
LINE
  8
0
 10
8.89465
 20
47.0522
 11
8.95287
 21
46.873
  0
LINE
  8
0
 10
8.95287
 20
46.873
 11
8.98816
 21
46.688
  0
LINE
  8
0
 10
8.98816
 20
46.688
 11
9
 21
46.5
  0
LINE
  8
0
 10
9
 20
46.5
 11
8.98816
 21
46.312
  0
LINE
  8
0
 10
8.98816
 20
46.312
 11
8.95287
 21
46.127
  0
LINE
  8
0
 10
8.95287
 20
46.127
 11
8.89465
 21
45.9478
  0
LINE
  8
0
 10
8.89465
 20
45.9478
 11
8.81445
 21
45.7774
  0
LINE
  8
0
 10
8.81445
 20
45.7774
 11
8.71352
 21
45.6183
  0
LINE
  8
0
 10
8.71352
 20
45.6183
 11
8.59344
 21
45.4732
  0
LINE
  8
0
 10
8.59344
 20
45.4732
 11
8.45613
 21
45.3442
  0
LINE
  8
0
 10
8.45613
 20
45.3442
 11
8.30373
 21
45.2335
  0
LINE
  8
0
 10
8.30373
 20
45.2335
 11
8.13866
 21
45.1427
  0
LINE
  8
0
 10
8.13866
 20
45.1427
 11
7.96352
 21
45.0734
  0
LINE
  8
0
 10
7.96352
 20
45.0734
 11
7.78107
 21
45.0266
  0
LINE
  8
0
 10
7.78107
 20
45.0266
 11
7.59418
 21
45.0029
  0
LINE
  8
0
 10
7.59418
 20
45.0029
 11
7.40581
 21
45.0029
  0
LINE
  8
0
 10
4.3744
 20
37.004
 11
4.12523
 21
37.0354
  0
LINE
  8
0
 10
4.12523
 20
37.0354
 11
3.88196
 21
37.0979
  0
LINE
  8
0
 10
3.88196
 20
37.0979
 11
3.64844
 21
37.1904
  0
LINE
  8
0
 10
3.64844
 20
37.1904
 11
3.42834
 21
37.3114
  0
LINE
  8
0
 10
3.42834
 20
37.3114
 11
3.22514
 21
37.459
  0
LINE
  8
0
 10
3.22514
 20
37.459
 11
3.04205
 21
37.6309
  0
LINE
  8
0
 10
3.04205
 20
37.6309
 11
2.88196
 21
37.8244
  0
LINE
  8
0
 10
2.88196
 20
37.8244
 11
2.74738
 21
38.0365
  0
LINE
  8
0
 10
2.74738
 20
38.0365
 11
2.64044
 21
38.2638
  0
LINE
  8
0
 10
2.64044
 20
38.2638
 11
2.56282
 21
38.5026
  0
LINE
  8
0
 10
2.56282
 20
38.5026
 11
2.51576
 21
38.7493
  0
LINE
  8
0
 10
2.51576
 20
38.7493
 11
2.5
 21
39
  0
LINE
  8
0
 10
2.5
 20
39
 11
2.51576
 21
39.2507
  0
LINE
  8
0
 10
2.51576
 20
39.2507
 11
2.56282
 21
39.4974
  0
LINE
  8
0
 10
2.56282
 20
39.4974
 11
2.64044
 21
39.7362
  0
LINE
  8
0
 10
2.64044
 20
39.7362
 11
2.74738
 21
39.9635
  0
LINE
  8
0
 10
2.74738
 20
39.9635
 11
2.88196
 21
40.1756
  0
LINE
  8
0
 10
2.88196
 20
40.1756
 11
3.04205
 21
40.3691
  0
LINE
  8
0
 10
3.04205
 20
40.3691
 11
3.22514
 21
40.541
  0
LINE
  8
0
 10
3.22514
 20
40.541
 11
3.42834
 21
40.6886
  0
LINE
  8
0
 10
3.42834
 20
40.6886
 11
3.64844
 21
40.8096
  0
LINE
  8
0
 10
3.64844
 20
40.8096
 11
3.88196
 21
40.9021
  0
LINE
  8
0
 10
3.88196
 20
40.9021
 11
4.12523
 21
40.9646
  0
LINE
  8
0
 10
4.12523
 20
40.9646
 11
4.3744
 21
40.996
  0
LINE
  8
0
 10
4.3744
 20
40.996
 11
4.62558
 21
40.996
  0
LINE
  8
0
 10
4.62558
 20
40.996
 11
4.87476
 21
40.9646
  0
LINE
  8
0
 10
4.87476
 20
40.9646
 11
5.11803
 21
40.9021
  0
LINE
  8
0
 10
5.11803
 20
40.9021
 11
5.35155
 21
40.8096
  0
LINE
  8
0
 10
5.35155
 20
40.8096
 11
5.57164
 21
40.6886
  0
LINE
  8
0
 10
5.57164
 20
40.6886
 11
5.77484
 21
40.541
  0
LINE
  8
0
 10
5.77484
 20
40.541
 11
5.95793
 21
40.3691
  0
LINE
  8
0
 10
5.95793
 20
40.3691
 11
6.11803
 21
40.1756
  0
LINE
  8
0
 10
6.11803
 20
40.1756
 11
6.25261
 21
39.9635
  0
LINE
  8
0
 10
6.25261
 20
39.9635
 11
6.35954
 21
39.7362
  0
LINE
  8
0
 10
6.35954
 20
39.7362
 11
6.43716
 21
39.4974
  0
LINE
  8
0
 10
6.43716
 20
39.4974
 11
6.48422
 21
39.2507
  0
LINE
  8
0
 10
6.48422
 20
39.2507
 11
6.5
 21
39
  0
LINE
  8
0
 10
6.5
 20
39
 11
6.48422
 21
38.7493
  0
LINE
  8
0
 10
6.48422
 20
38.7493
 11
6.43716
 21
38.5026
  0
LINE
  8
0
 10
6.43716
 20
38.5026
 11
6.35954
 21
38.2638
  0
LINE
  8
0
 10
6.35954
 20
38.2638
 11
6.25261
 21
38.0365
  0
LINE
  8
0
 10
6.25261
 20
38.0365
 11
6.11803
 21
37.8244
  0
LINE
  8
0
 10
6.11803
 20
37.8244
 11
5.95793
 21
37.6309
  0
LINE
  8
0
 10
5.95793
 20
37.6309
 11
5.77484
 21
37.459
  0
LINE
  8
0
 10
5.77484
 20
37.459
 11
5.57164
 21
37.3114
  0
LINE
  8
0
 10
5.57164
 20
37.3114
 11
5.35155
 21
37.1904
  0
LINE
  8
0
 10
5.35155
 20
37.1904
 11
5.11803
 21
37.0979
  0
LINE
  8
0
 10
5.11803
 20
37.0979
 11
4.87476
 21
37.0354
  0
LINE
  8
0
 10
4.87476
 20
37.0354
 11
4.62558
 21
37.004
  0
LINE
  8
0
 10
4.62558
 20
37.004
 11
4.3744
 21
37.004
  0
LINE
  8
0
 10
-13.6256
 20
37.004
 11
-13.8748
 21
37.0354
  0
LINE
  8
0
 10
-13.8748
 20
37.0354
 11
-14.118
 21
37.0979
  0
LINE
  8
0
 10
-14.118
 20
37.0979
 11
-14.3515
 21
37.1904
  0
LINE
  8
0
 10
-14.3515
 20
37.1904
 11
-14.5716
 21
37.3114
  0
LINE
  8
0
 10
-14.5716
 20
37.3114
 11
-14.7748
 21
37.459
  0
LINE
  8
0
 10
-14.7748
 20
37.459
 11
-14.9579
 21
37.6309
  0
LINE
  8
0
 10
-14.9579
 20
37.6309
 11
-15.118
 21
37.8244
  0
LINE
  8
0
 10
-15.118
 20
37.8244
 11
-15.2526
 21
38.0365
  0
LINE
  8
0
 10
-15.2526
 20
38.0365
 11
-15.3595
 21
38.2638
  0
LINE
  8
0
 10
-15.3595
 20
38.2638
 11
-15.4372
 21
38.5026
  0
LINE
  8
0
 10
-15.4372
 20
38.5026
 11
-15.4842
 21
38.7493
  0
LINE
  8
0
 10
-15.4842
 20
38.7493
 11
-15.5
 21
39
  0
LINE
  8
0
 10
-15.5
 20
39
 11
-15.4842
 21
39.2507
  0
LINE
  8
0
 10
-15.4842
 20
39.2507
 11
-15.4372
 21
39.4974
  0
LINE
  8
0
 10
-15.4372
 20
39.4974
 11
-15.3595
 21
39.7362
  0
LINE
  8
0
 10
-15.3595
 20
39.7362
 11
-15.2526
 21
39.9635
  0
LINE
  8
0
 10
-15.2526
 20
39.9635
 11
-15.118
 21
40.1756
  0
LINE
  8
0
 10
-15.118
 20
40.1756
 11
-14.9579
 21
40.3691
  0
LINE
  8
0
 10
-14.9579
 20
40.3691
 11
-14.7748
 21
40.541
  0
LINE
  8
0
 10
-14.7748
 20
40.541
 11
-14.5716
 21
40.6886
  0
LINE
  8
0
 10
-14.5716
 20
40.6886
 11
-14.3515
 21
40.8096
  0
LINE
  8
0
 10
-14.3515
 20
40.8096
 11
-14.118
 21
40.9021
  0
LINE
  8
0
 10
-14.118
 20
40.9021
 11
-13.8748
 21
40.9646
  0
LINE
  8
0
 10
-13.8748
 20
40.9646
 11
-13.6256
 21
40.996
  0
LINE
  8
0
 10
-13.6256
 20
40.996
 11
-13.3744
 21
40.996
  0
LINE
  8
0
 10
-13.3744
 20
40.996
 11
-13.1252
 21
40.9646
  0
LINE
  8
0
 10
-13.1252
 20
40.9646
 11
-12.882
 21
40.9021
  0
LINE
  8
0
 10
-12.882
 20
40.9021
 11
-12.6484
 21
40.8096
  0
LINE
  8
0
 10
-12.6484
 20
40.8096
 11
-12.4283
 21
40.6886
  0
LINE
  8
0
 10
-12.4283
 20
40.6886
 11
-12.2251
 21
40.541
  0
LINE
  8
0
 10
-12.2251
 20
40.541
 11
-12.0421
 21
40.3691
  0
LINE
  8
0
 10
-12.0421
 20
40.3691
 11
-11.882
 21
40.1756
  0
LINE
  8
0
 10
-11.882
 20
40.1756
 11
-11.7474
 21
39.9635
  0
LINE
  8
0
 10
-11.7474
 20
39.9635
 11
-11.6404
 21
39.7362
  0
LINE
  8
0
 10
-11.6404
 20
39.7362
 11
-11.5628
 21
39.4974
  0
LINE
  8
0
 10
-11.5628
 20
39.4974
 11
-11.5158
 21
39.2507
  0
LINE
  8
0
 10
-11.5158
 20
39.2507
 11
-11.5
 21
39
  0
LINE
  8
0
 10
-11.5
 20
39
 11
-11.5158
 21
38.7493
  0
LINE
  8
0
 10
-11.5158
 20
38.7493
 11
-11.5628
 21
38.5026
  0
LINE
  8
0
 10
-11.5628
 20
38.5026
 11
-11.6404
 21
38.2638
  0
LINE
  8
0
 10
-11.6404
 20
38.2638
 11
-11.7474
 21
38.0365
  0
LINE
  8
0
 10
-11.7474
 20
38.0365
 11
-11.882
 21
37.8244
  0
LINE
  8
0
 10
-11.882
 20
37.8244
 11
-12.0421
 21
37.6309
  0
LINE
  8
0
 10
-12.0421
 20
37.6309
 11
-12.2251
 21
37.459
  0
LINE
  8
0
 10
-12.2251
 20
37.459
 11
-12.4283
 21
37.3114
  0
LINE
  8
0
 10
-12.4283
 20
37.3114
 11
-12.6484
 21
37.1904
  0
LINE
  8
0
 10
-12.6484
 20
37.1904
 11
-12.882
 21
37.0979
  0
LINE
  8
0
 10
-12.882
 20
37.0979
 11
-13.1252
 21
37.0354
  0
LINE
  8
0
 10
-13.1252
 20
37.0354
 11
-13.3744
 21
37.004
  0
LINE
  8
0
 10
-13.3744
 20
37.004
 11
-13.6256
 21
37.004
  0
LINE
  8
0
 10
13.3744
 20
37.004
 11
13.1252
 21
37.0354
  0
LINE
  8
0
 10
13.1252
 20
37.0354
 11
12.882
 21
37.0979
  0
LINE
  8
0
 10
12.882
 20
37.0979
 11
12.6484
 21
37.1904
  0
LINE
  8
0
 10
12.6484
 20
37.1904
 11
12.4283
 21
37.3114
  0
LINE
  8
0
 10
12.4283
 20
37.3114
 11
12.2251
 21
37.459
  0
LINE
  8
0
 10
12.2251
 20
37.459
 11
12.0421
 21
37.6309
  0
LINE
  8
0
 10
12.0421
 20
37.6309
 11
11.882
 21
37.8244
  0
LINE
  8
0
 10
11.882
 20
37.8244
 11
11.7474
 21
38.0365
  0
LINE
  8
0
 10
11.7474
 20
38.0365
 11
11.6404
 21
38.2638
  0
LINE
  8
0
 10
11.6404
 20
38.2638
 11
11.5628
 21
38.5026
  0
LINE
  8
0
 10
11.5628
 20
38.5026
 11
11.5158
 21
38.7493
  0
LINE
  8
0
 10
11.5158
 20
38.7493
 11
11.5
 21
39
  0
LINE
  8
0
 10
11.5
 20
39
 11
11.5158
 21
39.2507
  0
LINE
  8
0
 10
11.5158
 20
39.2507
 11
11.5628
 21
39.4974
  0
LINE
  8
0
 10
11.5628
 20
39.4974
 11
11.6404
 21
39.7362
  0
LINE
  8
0
 10
11.6404
 20
39.7362
 11
11.7474
 21
39.9635
  0
LINE
  8
0
 10
11.7474
 20
39.9635
 11
11.882
 21
40.1756
  0
LINE
  8
0
 10
11.882
 20
40.1756
 11
12.0421
 21
40.3691
  0
LINE
  8
0
 10
12.0421
 20
40.3691
 11
12.2251
 21
40.541
  0
LINE
  8
0
 10
12.2251
 20
40.541
 11
12.4283
 21
40.6886
  0
LINE
  8
0
 10
12.4283
 20
40.6886
 11
12.6484
 21
40.8096
  0
LINE
  8
0
 10
12.6484
 20
40.8096
 11
12.882
 21
40.9021
  0
LINE
  8
0
 10
12.882
 20
40.9021
 11
13.1252
 21
40.9646
  0
LINE
  8
0
 10
13.1252
 20
40.9646
 11
13.3744
 21
40.996
  0
LINE
  8
0
 10
13.3744
 20
40.996
 11
13.6256
 21
40.996
  0
LINE
  8
0
 10
13.6256
 20
40.996
 11
13.8748
 21
40.9646
  0
LINE
  8
0
 10
13.8748
 20
40.9646
 11
14.118
 21
40.9021
  0
LINE
  8
0
 10
14.118
 20
40.9021
 11
14.3515
 21
40.8096
  0
LINE
  8
0
 10
14.3515
 20
40.8096
 11
14.5716
 21
40.6886
  0
LINE
  8
0
 10
14.5716
 20
40.6886
 11
14.7748
 21
40.541
  0
LINE
  8
0
 10
14.7748
 20
40.541
 11
14.9579
 21
40.3691
  0
LINE
  8
0
 10
14.9579
 20
40.3691
 11
15.118
 21
40.1756
  0
LINE
  8
0
 10
15.118
 20
40.1756
 11
15.2526
 21
39.9635
  0
LINE
  8
0
 10
15.2526
 20
39.9635
 11
15.3595
 21
39.7362
  0
LINE
  8
0
 10
15.3595
 20
39.7362
 11
15.4372
 21
39.4974
  0
LINE
  8
0
 10
15.4372
 20
39.4974
 11
15.4842
 21
39.2507
  0
LINE
  8
0
 10
15.4842
 20
39.2507
 11
15.5
 21
39
  0
LINE
  8
0
 10
15.5
 20
39
 11
15.4842
 21
38.7493
  0
LINE
  8
0
 10
15.4842
 20
38.7493
 11
15.4372
 21
38.5026
  0
LINE
  8
0
 10
15.4372
 20
38.5026
 11
15.3595
 21
38.2638
  0
LINE
  8
0
 10
15.3595
 20
38.2638
 11
15.2526
 21
38.0365
  0
LINE
  8
0
 10
15.2526
 20
38.0365
 11
15.118
 21
37.8244
  0
LINE
  8
0
 10
15.118
 20
37.8244
 11
14.9579
 21
37.6309
  0
LINE
  8
0
 10
14.9579
 20
37.6309
 11
14.7748
 21
37.459
  0
LINE
  8
0
 10
14.7748
 20
37.459
 11
14.5716
 21
37.3114
  0
LINE
  8
0
 10
14.5716
 20
37.3114
 11
14.3515
 21
37.1904
  0
LINE
  8
0
 10
14.3515
 20
37.1904
 11
14.118
 21
37.0979
  0
LINE
  8
0
 10
14.118
 20
37.0979
 11
13.8748
 21
37.0354
  0
LINE
  8
0
 10
13.8748
 20
37.0354
 11
13.6256
 21
37.004
  0
LINE
  8
0
 10
13.6256
 20
37.004
 11
13.3744
 21
37.004
  0
LINE
  8
0
 10
-4.62558
 20
37.004
 11
-4.87476
 21
37.0354
  0
LINE
  8
0
 10
-4.87476
 20
37.0354
 11
-5.11803
 21
37.0979
  0
LINE
  8
0
 10
-5.11803
 20
37.0979
 11
-5.35155
 21
37.1904
  0
LINE
  8
0
 10
-5.35155
 20
37.1904
 11
-5.57164
 21
37.3114
  0
LINE
  8
0
 10
-5.57164
 20
37.3114
 11
-5.77484
 21
37.459
  0
LINE
  8
0
 10
-5.77484
 20
37.459
 11
-5.95793
 21
37.6309
  0
LINE
  8
0
 10
-5.95793
 20
37.6309
 11
-6.11803
 21
37.8244
  0
LINE
  8
0
 10
-6.11803
 20
37.8244
 11
-6.25261
 21
38.0365
  0
LINE
  8
0
 10
-6.25261
 20
38.0365
 11
-6.35954
 21
38.2638
  0
LINE
  8
0
 10
-6.35954
 20
38.2638
 11
-6.43716
 21
38.5026
  0
LINE
  8
0
 10
-6.43716
 20
38.5026
 11
-6.48422
 21
38.7493
  0
LINE
  8
0
 10
-6.48422
 20
38.7493
 11
-6.5
 21
39
  0
LINE
  8
0
 10
-6.5
 20
39
 11
-6.48422
 21
39.2507
  0
LINE
  8
0
 10
-6.48422
 20
39.2507
 11
-6.43716
 21
39.4974
  0
LINE
  8
0
 10
-6.43716
 20
39.4974
 11
-6.35954
 21
39.7362
  0
LINE
  8
0
 10
-6.35954
 20
39.7362
 11
-6.25261
 21
39.9635
  0
LINE
  8
0
 10
-6.25261
 20
39.9635
 11
-6.11803
 21
40.1756
  0
LINE
  8
0
 10
-6.11803
 20
40.1756
 11
-5.95793
 21
40.3691
  0
LINE
  8
0
 10
-5.95793
 20
40.3691
 11
-5.77484
 21
40.541
  0
LINE
  8
0
 10
-5.77484
 20
40.541
 11
-5.57164
 21
40.6886
  0
LINE
  8
0
 10
-5.57164
 20
40.6886
 11
-5.35155
 21
40.8096
  0
LINE
  8
0
 10
-5.35155
 20
40.8096
 11
-5.11803
 21
40.9021
  0
LINE
  8
0
 10
-5.11803
 20
40.9021
 11
-4.87476
 21
40.9646
  0
LINE
  8
0
 10
-4.87476
 20
40.9646
 11
-4.62558
 21
40.996
  0
LINE
  8
0
 10
-4.62558
 20
40.996
 11
-4.3744
 21
40.996
  0
LINE
  8
0
 10
-4.3744
 20
40.996
 11
-4.12523
 21
40.9646
  0
LINE
  8
0
 10
-4.12523
 20
40.9646
 11
-3.88196
 21
40.9021
  0
LINE
  8
0
 10
-3.88196
 20
40.9021
 11
-3.64844
 21
40.8096
  0
LINE
  8
0
 10
-3.64844
 20
40.8096
 11
-3.42834
 21
40.6886
  0
LINE
  8
0
 10
-3.42834
 20
40.6886
 11
-3.22514
 21
40.541
  0
LINE
  8
0
 10
-3.22514
 20
40.541
 11
-3.04205
 21
40.3691
  0
LINE
  8
0
 10
-3.04205
 20
40.3691
 11
-2.88196
 21
40.1756
  0
LINE
  8
0
 10
-2.88196
 20
40.1756
 11
-2.74738
 21
39.9635
  0
LINE
  8
0
 10
-2.74738
 20
39.9635
 11
-2.64044
 21
39.7362
  0
LINE
  8
0
 10
-2.64044
 20
39.7362
 11
-2.56282
 21
39.4974
  0
LINE
  8
0
 10
-2.56282
 20
39.4974
 11
-2.51576
 21
39.2507
  0
LINE
  8
0
 10
-2.51576
 20
39.2507
 11
-2.5
 21
39
  0
LINE
  8
0
 10
-2.5
 20
39
 11
-2.51576
 21
38.7493
  0
LINE
  8
0
 10
-2.51576
 20
38.7493
 11
-2.56282
 21
38.5026
  0
LINE
  8
0
 10
-2.56282
 20
38.5026
 11
-2.64044
 21
38.2638
  0
LINE
  8
0
 10
-2.64044
 20
38.2638
 11
-2.74738
 21
38.0365
  0
LINE
  8
0
 10
-2.74738
 20
38.0365
 11
-2.88196
 21
37.8244
  0
LINE
  8
0
 10
-2.88196
 20
37.8244
 11
-3.04205
 21
37.6309
  0
LINE
  8
0
 10
-3.04205
 20
37.6309
 11
-3.22514
 21
37.459
  0
LINE
  8
0
 10
-3.22514
 20
37.459
 11
-3.42834
 21
37.3114
  0
LINE
  8
0
 10
-3.42834
 20
37.3114
 11
-3.64844
 21
37.1904
  0
LINE
  8
0
 10
-3.64844
 20
37.1904
 11
-3.88196
 21
37.0979
  0
LINE
  8
0
 10
-3.88196
 20
37.0979
 11
-4.12523
 21
37.0354
  0
LINE
  8
0
 10
-4.12523
 20
37.0354
 11
-4.3744
 21
37.004
  0
LINE
  8
0
 10
-4.3744
 20
37.004
 11
-4.62558
 21
37.004
  0
LINE
  8
0
 10
14.8116
 20
28.5059
 11
14.4379
 21
28.5531
  0
LINE
  8
0
 10
14.4379
 20
28.5531
 11
14.0729
 21
28.6468
  0
LINE
  8
0
 10
14.0729
 20
28.6468
 11
13.7227
 21
28.7855
  0
LINE
  8
0
 10
13.7227
 20
28.7855
 11
13.3925
 21
28.967
  0
LINE
  8
0
 10
13.3925
 20
28.967
 11
13.0877
 21
29.1885
  0
LINE
  8
0
 10
13.0877
 20
29.1885
 11
12.8131
 21
29.4464
  0
LINE
  8
0
 10
12.8131
 20
29.4464
 11
12.5729
 21
29.7366
  0
LINE
  8
0
 10
12.5729
 20
29.7366
 11
12.3711
 21
30.0547
  0
LINE
  8
0
 10
12.3711
 20
30.0547
 11
12.2107
 21
30.3956
  0
LINE
  8
0
 10
12.2107
 20
30.3956
 11
12.0942
 21
30.7539
  0
LINE
  8
0
 10
12.0942
 20
30.7539
 11
12.0237
 21
31.124
  0
LINE
  8
0
 10
12.0237
 20
31.124
 11
12
 21
31.5
  0
LINE
  8
0
 10
12
 20
31.5
 11
12.0237
 21
31.876
  0
LINE
  8
0
 10
12.0237
 20
31.876
 11
12.0942
 21
32.2461
  0
LINE
  8
0
 10
12.0942
 20
32.2461
 11
12.2107
 21
32.6044
  0
LINE
  8
0
 10
12.2107
 20
32.6044
 11
12.3711
 21
32.9453
  0
LINE
  8
0
 10
12.3711
 20
32.9453
 11
12.5729
 21
33.2634
  0
LINE
  8
0
 10
12.5729
 20
33.2634
 11
12.8131
 21
33.5536
  0
LINE
  8
0
 10
12.8131
 20
33.5536
 11
13.0877
 21
33.8116
  0
LINE
  8
0
 10
13.0877
 20
33.8116
 11
13.3925
 21
34.033
  0
LINE
  8
0
 10
13.3925
 20
34.033
 11
13.7227
 21
34.2145
  0
LINE
  8
0
 10
13.7227
 20
34.2145
 11
14.0729
 21
34.3532
  0
LINE
  8
0
 10
14.0729
 20
34.3532
 11
14.4379
 21
34.4469
  0
LINE
  8
0
 10
14.4379
 20
34.4469
 11
14.8116
 21
34.4941
  0
LINE
  8
0
 10
14.8116
 20
34.4941
 11
15.1884
 21
34.4941
  0
LINE
  8
0
 10
15.1884
 20
34.4941
 11
15.5621
 21
34.4469
  0
LINE
  8
0
 10
15.5621
 20
34.4469
 11
15.927
 21
34.3532
  0
LINE
  8
0
 10
15.927
 20
34.3532
 11
16.2773
 21
34.2145
  0
LINE
  8
0
 10
16.2773
 20
34.2145
 11
16.6075
 21
34.033
  0
LINE
  8
0
 10
16.6075
 20
34.033
 11
16.9123
 21
33.8116
  0
LINE
  8
0
 10
16.9123
 20
33.8116
 11
17.1869
 21
33.5536
  0
LINE
  8
0
 10
17.1869
 20
33.5536
 11
17.427
 21
33.2634
  0
LINE
  8
0
 10
17.427
 20
33.2634
 11
17.6289
 21
32.9453
  0
LINE
  8
0
 10
17.6289
 20
32.9453
 11
17.7893
 21
32.6044
  0
LINE
  8
0
 10
17.7893
 20
32.6044
 11
17.9057
 21
32.2461
  0
LINE
  8
0
 10
17.9057
 20
32.2461
 11
17.9763
 21
31.876
  0
LINE
  8
0
 10
17.9763
 20
31.876
 11
18
 21
31.5
  0
LINE
  8
0
 10
18
 20
31.5
 11
17.9763
 21
31.124
  0
LINE
  8
0
 10
17.9763
 20
31.124
 11
17.9057
 21
30.7539
  0
LINE
  8
0
 10
17.9057
 20
30.7539
 11
17.7893
 21
30.3956
  0
LINE
  8
0
 10
17.7893
 20
30.3956
 11
17.6289
 21
30.0547
  0
LINE
  8
0
 10
17.6289
 20
30.0547
 11
17.427
 21
29.7366
  0
LINE
  8
0
 10
17.427
 20
29.7366
 11
17.1869
 21
29.4464
  0
LINE
  8
0
 10
17.1869
 20
29.4464
 11
16.9123
 21
29.1885
  0
LINE
  8
0
 10
16.9123
 20
29.1885
 11
16.6075
 21
28.967
  0
LINE
  8
0
 10
16.6075
 20
28.967
 11
16.2773
 21
28.7855
  0
LINE
  8
0
 10
16.2773
 20
28.7855
 11
15.927
 21
28.6468
  0
LINE
  8
0
 10
15.927
 20
28.6468
 11
15.5621
 21
28.5531
  0
LINE
  8
0
 10
15.5621
 20
28.5531
 11
15.1884
 21
28.5059
  0
LINE
  8
0
 10
15.1884
 20
28.5059
 11
14.8116
 21
28.5059
  0
LINE
  8
0
 10
-15.1884
 20
28.5059
 11
-15.5621
 21
28.5531
  0
LINE
  8
0
 10
-15.5621
 20
28.5531
 11
-15.927
 21
28.6468
  0
LINE
  8
0
 10
-15.927
 20
28.6468
 11
-16.2773
 21
28.7855
  0
LINE
  8
0
 10
-16.2773
 20
28.7855
 11
-16.6075
 21
28.967
  0
LINE
  8
0
 10
-16.6075
 20
28.967
 11
-16.9123
 21
29.1885
  0
LINE
  8
0
 10
-16.9123
 20
29.1885
 11
-17.1869
 21
29.4464
  0
LINE
  8
0
 10
-17.1869
 20
29.4464
 11
-17.427
 21
29.7366
  0
LINE
  8
0
 10
-17.427
 20
29.7366
 11
-17.6289
 21
30.0547
  0
LINE
  8
0
 10
-17.6289
 20
30.0547
 11
-17.7893
 21
30.3956
  0
LINE
  8
0
 10
-17.7893
 20
30.3956
 11
-17.9057
 21
30.7539
  0
LINE
  8
0
 10
-17.9057
 20
30.7539
 11
-17.9763
 21
31.124
  0
LINE
  8
0
 10
-17.9763
 20
31.124
 11
-18
 21
31.5
  0
LINE
  8
0
 10
-18
 20
31.5
 11
-17.9763
 21
31.876
  0
LINE
  8
0
 10
-17.9763
 20
31.876
 11
-17.9057
 21
32.2461
  0
LINE
  8
0
 10
-17.9057
 20
32.2461
 11
-17.7893
 21
32.6044
  0
LINE
  8
0
 10
-17.7893
 20
32.6044
 11
-17.6289
 21
32.9453
  0
LINE
  8
0
 10
-17.6289
 20
32.9453
 11
-17.427
 21
33.2634
  0
LINE
  8
0
 10
-17.427
 20
33.2634
 11
-17.1869
 21
33.5536
  0
LINE
  8
0
 10
-17.1869
 20
33.5536
 11
-16.9123
 21
33.8116
  0
LINE
  8
0
 10
-16.9123
 20
33.8116
 11
-16.6075
 21
34.033
  0
LINE
  8
0
 10
-16.6075
 20
34.033
 11
-16.2773
 21
34.2145
  0
LINE
  8
0
 10
-16.2773
 20
34.2145
 11
-15.927
 21
34.3532
  0
LINE
  8
0
 10
-15.927
 20
34.3532
 11
-15.5621
 21
34.4469
  0
LINE
  8
0
 10
-15.5621
 20
34.4469
 11
-15.1884
 21
34.4941
  0
LINE
  8
0
 10
-15.1884
 20
34.4941
 11
-14.8116
 21
34.4941
  0
LINE
  8
0
 10
-14.8116
 20
34.4941
 11
-14.4379
 21
34.4469
  0
LINE
  8
0
 10
-14.4379
 20
34.4469
 11
-14.0729
 21
34.3532
  0
LINE
  8
0
 10
-14.0729
 20
34.3532
 11
-13.7227
 21
34.2145
  0
LINE
  8
0
 10
-13.7227
 20
34.2145
 11
-13.3925
 21
34.033
  0
LINE
  8
0
 10
-13.3925
 20
34.033
 11
-13.0877
 21
33.8116
  0
LINE
  8
0
 10
-13.0877
 20
33.8116
 11
-12.8131
 21
33.5536
  0
LINE
  8
0
 10
-12.8131
 20
33.5536
 11
-12.5729
 21
33.2634
  0
LINE
  8
0
 10
-12.5729
 20
33.2634
 11
-12.3711
 21
32.9453
  0
LINE
  8
0
 10
-12.3711
 20
32.9453
 11
-12.2107
 21
32.6044
  0
LINE
  8
0
 10
-12.2107
 20
32.6044
 11
-12.0942
 21
32.2461
  0
LINE
  8
0
 10
-12.0942
 20
32.2461
 11
-12.0237
 21
31.876
  0
LINE
  8
0
 10
-12.0237
 20
31.876
 11
-12
 21
31.5
  0
LINE
  8
0
 10
-12
 20
31.5
 11
-12.0237
 21
31.124
  0
LINE
  8
0
 10
-12.0237
 20
31.124
 11
-12.0942
 21
30.7539
  0
LINE
  8
0
 10
-12.0942
 20
30.7539
 11
-12.2107
 21
30.3956
  0
LINE
  8
0
 10
-12.2107
 20
30.3956
 11
-12.3711
 21
30.0547
  0
LINE
  8
0
 10
-12.3711
 20
30.0547
 11
-12.5729
 21
29.7366
  0
LINE
  8
0
 10
-12.5729
 20
29.7366
 11
-12.8131
 21
29.4464
  0
LINE
  8
0
 10
-12.8131
 20
29.4464
 11
-13.0877
 21
29.1885
  0
LINE
  8
0
 10
-13.0877
 20
29.1885
 11
-13.3925
 21
28.967
  0
LINE
  8
0
 10
-13.3925
 20
28.967
 11
-13.7227
 21
28.7855
  0
LINE
  8
0
 10
-13.7227
 20
28.7855
 11
-14.0729
 21
28.6468
  0
LINE
  8
0
 10
-14.0729
 20
28.6468
 11
-14.4379
 21
28.5531
  0
LINE
  8
0
 10
-14.4379
 20
28.5531
 11
-14.8116
 21
28.5059
  0
LINE
  8
0
 10
-14.8116
 20
28.5059
 11
-15.1884
 21
28.5059
  0
LINE
  8
0
 10
-0.18837
 20
28.5059
 11
-0.562134
 21
28.5531
  0
LINE
  8
0
 10
-0.562134
 20
28.5531
 11
-0.927048
 21
28.6468
  0
LINE
  8
0
 10
-0.927048
 20
28.6468
 11
-1.27733
 21
28.7855
  0
LINE
  8
0
 10
-1.27733
 20
28.7855
 11
-1.60747
 21
28.967
  0
LINE
  8
0
 10
-1.60747
 20
28.967
 11
-1.91226
 21
29.1885
  0
LINE
  8
0
 10
-1.91226
 20
29.1885
 11
-2.1869
 21
29.4464
  0
LINE
  8
0
 10
-2.1869
 20
29.4464
 11
-2.42705
 21
29.7366
  0
LINE
  8
0
 10
-2.42705
 20
29.7366
 11
-2.62891
 21
30.0547
  0
LINE
  8
0
 10
-2.62891
 20
30.0547
 11
-2.78932
 21
30.3956
  0
LINE
  8
0
 10
-2.78932
 20
30.3956
 11
-2.90575
 21
30.7539
  0
LINE
  8
0
 10
-2.90575
 20
30.7539
 11
-2.97633
 21
31.124
  0
LINE
  8
0
 10
-2.97633
 20
31.124
 11
-3
 21
31.5
  0
LINE
  8
0
 10
-3
 20
31.5
 11
-2.97633
 21
31.876
  0
LINE
  8
0
 10
-2.97633
 20
31.876
 11
-2.90575
 21
32.2461
  0
LINE
  8
0
 10
-2.90575
 20
32.2461
 11
-2.78932
 21
32.6044
  0
LINE
  8
0
 10
-2.78932
 20
32.6044
 11
-2.62891
 21
32.9453
  0
LINE
  8
0
 10
-2.62891
 20
32.9453
 11
-2.42705
 21
33.2634
  0
LINE
  8
0
 10
-2.42705
 20
33.2634
 11
-2.1869
 21
33.5536
  0
LINE
  8
0
 10
-2.1869
 20
33.5536
 11
-1.91226
 21
33.8116
  0
LINE
  8
0
 10
-1.91226
 20
33.8116
 11
-1.60747
 21
34.033
  0
LINE
  8
0
 10
-1.60747
 20
34.033
 11
-1.27733
 21
34.2145
  0
LINE
  8
0
 10
-1.27733
 20
34.2145
 11
-0.927048
 21
34.3532
  0
LINE
  8
0
 10
-0.927048
 20
34.3532
 11
-0.562134
 21
34.4469
  0
LINE
  8
0
 10
-0.562134
 20
34.4469
 11
-0.18837
 21
34.4941
  0
LINE
  8
0
 10
-0.18837
 20
34.4941
 11
0.18837
 21
34.4941
  0
LINE
  8
0
 10
0.18837
 20
34.4941
 11
0.562134
 21
34.4469
  0
LINE
  8
0
 10
0.562134
 20
34.4469
 11
0.927048
 21
34.3532
  0
LINE
  8
0
 10
0.927048
 20
34.3532
 11
1.27733
 21
34.2145
  0
LINE
  8
0
 10
1.27733
 20
34.2145
 11
1.60747
 21
34.033
  0
LINE
  8
0
 10
1.60747
 20
34.033
 11
1.91226
 21
33.8116
  0
LINE
  8
0
 10
1.91226
 20
33.8116
 11
2.1869
 21
33.5536
  0
LINE
  8
0
 10
2.1869
 20
33.5536
 11
2.42705
 21
33.2634
  0
LINE
  8
0
 10
2.42705
 20
33.2634
 11
2.62891
 21
32.9453
  0
LINE
  8
0
 10
2.62891
 20
32.9453
 11
2.78932
 21
32.6044
  0
LINE
  8
0
 10
2.78932
 20
32.6044
 11
2.90575
 21
32.2461
  0
LINE
  8
0
 10
2.90575
 20
32.2461
 11
2.97633
 21
31.876
  0
LINE
  8
0
 10
2.97633
 20
31.876
 11
3
 21
31.5
  0
LINE
  8
0
 10
3
 20
31.5
 11
2.97633
 21
31.124
  0
LINE
  8
0
 10
2.97633
 20
31.124
 11
2.90575
 21
30.7539
  0
LINE
  8
0
 10
2.90575
 20
30.7539
 11
2.78932
 21
30.3956
  0
LINE
  8
0
 10
2.78932
 20
30.3956
 11
2.62891
 21
30.0547
  0
LINE
  8
0
 10
2.62891
 20
30.0547
 11
2.42705
 21
29.7366
  0
LINE
  8
0
 10
2.42705
 20
29.7366
 11
2.1869
 21
29.4464
  0
LINE
  8
0
 10
2.1869
 20
29.4464
 11
1.91226
 21
29.1885
  0
LINE
  8
0
 10
1.91226
 20
29.1885
 11
1.60747
 21
28.967
  0
LINE
  8
0
 10
1.60747
 20
28.967
 11
1.27733
 21
28.7855
  0
LINE
  8
0
 10
1.27733
 20
28.7855
 11
0.927048
 21
28.6468
  0
LINE
  8
0
 10
0.927048
 20
28.6468
 11
0.562134
 21
28.5531
  0
LINE
  8
0
 10
0.562134
 20
28.5531
 11
0.18837
 21
28.5059
  0
LINE
  8
0
 10
0.18837
 20
28.5059
 11
-0.18837
 21
28.5059
  0
LINE
  8
0
 10
7.40581
 20
30.003
 11
7.21892
 21
30.0266
  0
LINE
  8
0
 10
7.21892
 20
30.0266
 11
7.03647
 21
30.0734
  0
LINE
  8
0
 10
7.03647
 20
30.0734
 11
6.86133
 21
30.1428
  0
LINE
  8
0
 10
6.86133
 20
30.1428
 11
6.69626
 21
30.2335
  0
LINE
  8
0
 10
6.69626
 20
30.2335
 11
6.54385
 21
30.3442
  0
LINE
  8
0
 10
6.54385
 20
30.3442
 11
6.40654
 21
30.4732
  0
LINE
  8
0
 10
6.40654
 20
30.4732
 11
6.28647
 21
30.6183
  0
LINE
  8
0
 10
6.28647
 20
30.6183
 11
6.18553
 21
30.7774
  0
LINE
  8
0
 10
6.18553
 20
30.7774
 11
6.10533
 21
30.9478
  0
LINE
  8
0
 10
6.10533
 20
30.9478
 11
6.04712
 21
31.127
  0
LINE
  8
0
 10
6.04712
 20
31.127
 11
6.01183
 21
31.312
  0
LINE
  8
0
 10
6.01183
 20
31.312
 11
6
 21
31.5
  0
LINE
  8
0
 10
6
 20
31.5
 11
6.01183
 21
31.688
  0
LINE
  8
0
 10
6.01183
 20
31.688
 11
6.04712
 21
31.873
  0
LINE
  8
0
 10
6.04712
 20
31.873
 11
6.10533
 21
32.0522
  0
LINE
  8
0
 10
6.10533
 20
32.0522
 11
6.18553
 21
32.2226
  0
LINE
  8
0
 10
6.18553
 20
32.2226
 11
6.28647
 21
32.3817
  0
LINE
  8
0
 10
6.28647
 20
32.3817
 11
6.40654
 21
32.5268
  0
LINE
  8
0
 10
6.40654
 20
32.5268
 11
6.54385
 21
32.6558
  0
LINE
  8
0
 10
6.54385
 20
32.6558
 11
6.69626
 21
32.7665
  0
LINE
  8
0
 10
6.69626
 20
32.7665
 11
6.86133
 21
32.8573
  0
LINE
  8
0
 10
6.86133
 20
32.8573
 11
7.03647
 21
32.9266
  0
LINE
  8
0
 10
7.03647
 20
32.9266
 11
7.21892
 21
32.9734
  0
LINE
  8
0
 10
7.21892
 20
32.9734
 11
7.40581
 21
32.9971
  0
LINE
  8
0
 10
7.40581
 20
32.9971
 11
7.59418
 21
32.9971
  0
LINE
  8
0
 10
7.59418
 20
32.9971
 11
7.78107
 21
32.9734
  0
LINE
  8
0
 10
7.78107
 20
32.9734
 11
7.96352
 21
32.9266
  0
LINE
  8
0
 10
7.96352
 20
32.9266
 11
8.13866
 21
32.8573
  0
LINE
  8
0
 10
8.13866
 20
32.8573
 11
8.30373
 21
32.7665
  0
LINE
  8
0
 10
8.30373
 20
32.7665
 11
8.45613
 21
32.6558
  0
LINE
  8
0
 10
8.45613
 20
32.6558
 11
8.59344
 21
32.5268
  0
LINE
  8
0
 10
8.59344
 20
32.5268
 11
8.71352
 21
32.3817
  0
LINE
  8
0
 10
8.71352
 20
32.3817
 11
8.81445
 21
32.2226
  0
LINE
  8
0
 10
8.81445
 20
32.2226
 11
8.89465
 21
32.0522
  0
LINE
  8
0
 10
8.89465
 20
32.0522
 11
8.95287
 21
31.873
  0
LINE
  8
0
 10
8.95287
 20
31.873
 11
8.98816
 21
31.688
  0
LINE
  8
0
 10
8.98816
 20
31.688
 11
9
 21
31.5
  0
LINE
  8
0
 10
9
 20
31.5
 11
8.98816
 21
31.312
  0
LINE
  8
0
 10
8.98816
 20
31.312
 11
8.95287
 21
31.127
  0
LINE
  8
0
 10
8.95287
 20
31.127
 11
8.89465
 21
30.9478
  0
LINE
  8
0
 10
8.89465
 20
30.9478
 11
8.81445
 21
30.7774
  0
LINE
  8
0
 10
8.81445
 20
30.7774
 11
8.71352
 21
30.6183
  0
LINE
  8
0
 10
8.71352
 20
30.6183
 11
8.59344
 21
30.4732
  0
LINE
  8
0
 10
8.59344
 20
30.4732
 11
8.45613
 21
30.3442
  0
LINE
  8
0
 10
8.45613
 20
30.3442
 11
8.30373
 21
30.2335
  0
LINE
  8
0
 10
8.30373
 20
30.2335
 11
8.13866
 21
30.1428
  0
LINE
  8
0
 10
8.13866
 20
30.1428
 11
7.96352
 21
30.0734
  0
LINE
  8
0
 10
7.96352
 20
30.0734
 11
7.78107
 21
30.0266
  0
LINE
  8
0
 10
7.78107
 20
30.0266
 11
7.59418
 21
30.003
  0
LINE
  8
0
 10
7.59418
 20
30.003
 11
7.40581
 21
30.003
  0
LINE
  8
0
 10
-7.59418
 20
30.003
 11
-7.78107
 21
30.0266
  0
LINE
  8
0
 10
-7.78107
 20
30.0266
 11
-7.96352
 21
30.0734
  0
LINE
  8
0
 10
-7.96352
 20
30.0734
 11
-8.13866
 21
30.1428
  0
LINE
  8
0
 10
-8.13866
 20
30.1428
 11
-8.30373
 21
30.2335
  0
LINE
  8
0
 10
-8.30373
 20
30.2335
 11
-8.45613
 21
30.3442
  0
LINE
  8
0
 10
-8.45613
 20
30.3442
 11
-8.59344
 21
30.4732
  0
LINE
  8
0
 10
-8.59344
 20
30.4732
 11
-8.71352
 21
30.6183
  0
LINE
  8
0
 10
-8.71352
 20
30.6183
 11
-8.81445
 21
30.7774
  0
LINE
  8
0
 10
-8.81445
 20
30.7774
 11
-8.89465
 21
30.9478
  0
LINE
  8
0
 10
-8.89465
 20
30.9478
 11
-8.95287
 21
31.127
  0
LINE
  8
0
 10
-8.95287
 20
31.127
 11
-8.98816
 21
31.312
  0
LINE
  8
0
 10
-8.98816
 20
31.312
 11
-9
 21
31.5
  0
LINE
  8
0
 10
-9
 20
31.5
 11
-8.98816
 21
31.688
  0
LINE
  8
0
 10
-8.98816
 20
31.688
 11
-8.95287
 21
31.873
  0
LINE
  8
0
 10
-8.95287
 20
31.873
 11
-8.89465
 21
32.0522
  0
LINE
  8
0
 10
-8.89465
 20
32.0522
 11
-8.81445
 21
32.2226
  0
LINE
  8
0
 10
-8.81445
 20
32.2226
 11
-8.71352
 21
32.3817
  0
LINE
  8
0
 10
-8.71352
 20
32.3817
 11
-8.59344
 21
32.5268
  0
LINE
  8
0
 10
-8.59344
 20
32.5268
 11
-8.45613
 21
32.6558
  0
LINE
  8
0
 10
-8.45613
 20
32.6558
 11
-8.30373
 21
32.7665
  0
LINE
  8
0
 10
-8.30373
 20
32.7665
 11
-8.13866
 21
32.8573
  0
LINE
  8
0
 10
-8.13866
 20
32.8573
 11
-7.96352
 21
32.9266
  0
LINE
  8
0
 10
-7.96352
 20
32.9266
 11
-7.78107
 21
32.9734
  0
LINE
  8
0
 10
-7.78107
 20
32.9734
 11
-7.59418
 21
32.9971
  0
LINE
  8
0
 10
-7.59418
 20
32.9971
 11
-7.40581
 21
32.9971
  0
LINE
  8
0
 10
-7.40581
 20
32.9971
 11
-7.21892
 21
32.9734
  0
LINE
  8
0
 10
-7.21892
 20
32.9734
 11
-7.03647
 21
32.9266
  0
LINE
  8
0
 10
-7.03647
 20
32.9266
 11
-6.86133
 21
32.8573
  0
LINE
  8
0
 10
-6.86133
 20
32.8573
 11
-6.69626
 21
32.7665
  0
LINE
  8
0
 10
-6.69626
 20
32.7665
 11
-6.54385
 21
32.6558
  0
LINE
  8
0
 10
-6.54385
 20
32.6558
 11
-6.40654
 21
32.5268
  0
LINE
  8
0
 10
-6.40654
 20
32.5268
 11
-6.28647
 21
32.3817
  0
LINE
  8
0
 10
-6.28647
 20
32.3817
 11
-6.18553
 21
32.2226
  0
LINE
  8
0
 10
-6.18553
 20
32.2226
 11
-6.10533
 21
32.0522
  0
LINE
  8
0
 10
-6.10533
 20
32.0522
 11
-6.04712
 21
31.873
  0
LINE
  8
0
 10
-6.04712
 20
31.873
 11
-6.01183
 21
31.688
  0
LINE
  8
0
 10
-6.01183
 20
31.688
 11
-6
 21
31.5
  0
LINE
  8
0
 10
-6
 20
31.5
 11
-6.01183
 21
31.312
  0
LINE
  8
0
 10
-6.01183
 20
31.312
 11
-6.04712
 21
31.127
  0
LINE
  8
0
 10
-6.04712
 20
31.127
 11
-6.10533
 21
30.9478
  0
LINE
  8
0
 10
-6.10533
 20
30.9478
 11
-6.18553
 21
30.7774
  0
LINE
  8
0
 10
-6.18553
 20
30.7774
 11
-6.28647
 21
30.6183
  0
LINE
  8
0
 10
-6.28647
 20
30.6183
 11
-6.40654
 21
30.4732
  0
LINE
  8
0
 10
-6.40654
 20
30.4732
 11
-6.54385
 21
30.3442
  0
LINE
  8
0
 10
-6.54385
 20
30.3442
 11
-6.69626
 21
30.2335
  0
LINE
  8
0
 10
-6.69626
 20
30.2335
 11
-6.86133
 21
30.1428
  0
LINE
  8
0
 10
-6.86133
 20
30.1428
 11
-7.03647
 21
30.0734
  0
LINE
  8
0
 10
-7.03647
 20
30.0734
 11
-7.21892
 21
30.0266
  0
LINE
  8
0
 10
-7.21892
 20
30.0266
 11
-7.40581
 21
30.003
  0
LINE
  8
0
 10
-7.40581
 20
30.003
 11
-7.59418
 21
30.003
  0
ENDSEC
  0
SECTION
  2
OBJECTS
  0
DICTIONARY
  0
ENDSEC
  0
EOF
