<?xml version="1.0" standalone="no"?>
<!DOCTYPE svg PUBLIC "-//W3C//DTD SVG 1.1//EN" "http://www.w3.org/Graphics/SVG/1.1/DTD/svg11.dtd">
<svg width="180mm" height="44mm" viewBox="-90 -22 180 44" xmlns="http://www.w3.org/2000/svg" version="1.1">
<title>OpenSCAD Model</title>
<path d="
M 85.4369,21.9114 L 86.0451,21.7553 L 86.6289,21.5241 L 87.1791,21.2216 L 87.6871,20.8526 L 88.1448,20.4227
 L 88.5451,19.9389 L 88.8815,19.4088 L 89.1489,18.8406 L 89.3429,18.2434 L 89.4606,17.6267 L 89.5,17
 L 89.5,-17 L 89.4606,-17.6267 L 89.3429,-18.2434 L 89.1489,-18.8406 L 88.8815,-19.4088 L 88.5451,-19.9389
 L 88.1448,-20.4227 L 87.6871,-20.8526 L 87.1791,-21.2216 L 86.6289,-21.5241 L 86.0451,-21.7553 L 85.4369,-21.9114
 L 84.8139,-21.9901 L -84.8139,-21.9901 L -85.4369,-21.9114 L -86.0451,-21.7553 L -86.6289,-21.5241 L -87.1791,-21.2216
 L -87.6871,-20.8526 L -88.1448,-20.4227 L -88.5451,-19.9389 L -88.8815,-19.4088 L -89.1489,-18.8406 L -89.3429,-18.2434
 L -89.4606,-17.6267 L -89.5,-17 L -89.5,17 L -89.4606,17.6267 L -89.3429,18.2434 L -89.1489,18.8406
 L -88.8815,19.4088 L -88.5451,19.9389 L -88.1448,20.4227 L -87.6871,20.8526 L -87.1791,21.2216 L -86.6289,21.5241
 L -86.0451,21.7553 L -85.4369,21.9114 L -84.8139,21.9901 L 84.8139,21.9901 z
M 63.307,18.9625 L 60.9397,18.6635 L 58.6287,18.0701 L 56.4102,17.1917 L 54.3193,16.0422 L 52.3889,14.6397
 L 50.6496,13.0064 L 49.1287,11.1679 L 47.8502,9.15331 L 46.8342,6.99435 L 46.0969,4.7251 L 45.6498,2.38132
 L 45.5,-0 L 45.6498,-2.38132 L 46.0969,-4.7251 L 46.8342,-6.99435 L 47.8502,-9.15331 L 49.1287,-11.1679
 L 50.6496,-13.0064 L 52.3889,-14.6397 L 54.3193,-16.0422 L 56.4102,-17.1917 L 58.6287,-18.0701 L 60.9397,-18.6635
 L 63.307,-18.9625 L 65.693,-18.9625 L 68.0602,-18.6635 L 70.3713,-18.0701 L 72.5898,-17.1917 L 74.6807,-16.0422
 L 76.6111,-14.6397 L 78.3504,-13.0064 L 79.8713,-11.1679 L 81.1498,-9.15331 L 82.1658,-6.99435 L 82.9031,-4.7251
 L 83.3502,-2.38132 L 83.5,-0 L 83.3502,2.38132 L 82.9031,4.7251 L 82.1658,6.99435 L 81.1498,9.15331
 L 79.8713,11.1679 L 78.3504,13.0064 L 76.6111,14.6397 L 74.6807,16.0422 L 72.5898,17.1917 L 70.3713,18.0701
 L 68.0602,18.6635 L 65.693,18.9625 z
M 20.307,18.9625 L 17.9397,18.6635 L 15.6287,18.0701 L 13.4102,17.1917 L 11.3193,16.0422 L 9.38893,14.6397
 L 7.64958,13.0064 L 6.12866,11.1679 L 4.85016,9.15331 L 3.83424,6.99435 L 3.09691,4.7251 L 2.64981,2.38132
 L 2.5,-0 L 2.64981,-2.38132 L 3.09691,-4.7251 L 3.83424,-6.99435 L 4.85016,-9.15331 L 6.12866,-11.1679
 L 7.64958,-13.0064 L 9.38893,-14.6397 L 11.3193,-16.0422 L 13.4102,-17.1917 L 15.6287,-18.0701 L 17.9397,-18.6635
 L 20.307,-18.9625 L 22.693,-18.9625 L 25.0602,-18.6635 L 27.3713,-18.0701 L 29.5898,-17.1917 L 31.6807,-16.0422
 L 33.6111,-14.6397 L 35.3504,-13.0064 L 36.8713,-11.1679 L 38.1498,-9.15331 L 39.1657,-6.99435 L 39.9031,-4.7251
 L 40.3502,-2.38132 L 40.5,-0 L 40.3502,2.38132 L 39.9031,4.7251 L 39.1657,6.99435 L 38.1498,9.15331
 L 36.8713,11.1679 L 35.3504,13.0064 L 33.6111,14.6397 L 31.6807,16.0422 L 29.5898,17.1917 L 27.3713,18.0701
 L 25.0602,18.6635 L 22.693,18.9625 z
M -22.693,18.9625 L -25.0602,18.6635 L -27.3713,18.0701 L -29.5898,17.1917 L -31.6807,16.0422 L -33.6111,14.6397
 L -35.3504,13.0064 L -36.8713,11.1679 L -38.1498,9.15331 L -39.1657,6.99435 L -39.9031,4.7251 L -40.3502,2.38132
 L -40.5,-0 L -40.3502,-2.38132 L -39.9031,-4.7251 L -39.1657,-6.99435 L -38.1498,-9.15331 L -36.8713,-11.1679
 L -35.3504,-13.0064 L -33.6111,-14.6397 L -31.6807,-16.0422 L -29.5898,-17.1917 L -27.3713,-18.0701 L -25.0602,-18.6635
 L -22.693,-18.9625 L -20.307,-18.9625 L -17.9397,-18.6635 L -15.6287,-18.0701 L -13.4102,-17.1917 L -11.3193,-16.0422
 L -9.38893,-14.6397 L -7.64958,-13.0064 L -6.12866,-11.1679 L -4.85016,-9.15331 L -3.83424,-6.99435 L -3.09691,-4.7251
 L -2.64981,-2.38132 L -2.5,-0 L -2.64981,2.38132 L -3.09691,4.7251 L -3.83424,6.99435 L -4.85016,9.15331
 L -6.12866,11.1679 L -7.64958,13.0064 L -9.38893,14.6397 L -11.3193,16.0422 L -13.4102,17.1917 L -15.6287,18.0701
 L -17.9397,18.6635 L -20.307,18.9625 z
M -65.693,18.9625 L -68.0602,18.6635 L -70.3713,18.0701 L -72.5898,17.1917 L -74.6807,16.0422 L -76.6111,14.6397
 L -78.3504,13.0064 L -79.8713,11.1679 L -81.1498,9.15331 L -82.1658,6.99435 L -82.9031,4.7251 L -83.3502,2.38132
 L -83.5,-0 L -83.3502,-2.38132 L -82.9031,-4.7251 L -82.1658,-6.99435 L -81.1498,-9.15331 L -79.8713,-11.1679
 L -78.3504,-13.0064 L -76.6111,-14.6397 L -74.6807,-16.0422 L -72.5898,-17.1917 L -70.3713,-18.0701 L -68.0602,-18.6635
 L -65.693,-18.9625 L -63.307,-18.9625 L -60.9397,-18.6635 L -58.6287,-18.0701 L -56.4102,-17.1917 L -54.3193,-16.0422
 L -52.3889,-14.6397 L -50.6496,-13.0064 L -49.1287,-11.1679 L -47.8502,-9.15331 L -46.8342,-6.99435 L -46.0969,-4.7251
 L -45.6498,-2.38132 L -45.5,-0 L -45.6498,2.38132 L -46.0969,4.7251 L -46.8342,6.99435 L -47.8502,9.15331
 L -49.1287,11.1679 L -50.6496,13.0064 L -52.3889,14.6397 L -54.3193,16.0422 L -56.4102,17.1917 L -58.6287,18.0701
 L -60.9397,18.6635 L -63.307,18.9625 z
M 82.3116,-12.0059 L 81.9379,-12.0531 L 81.573,-12.1468 L 81.2227,-12.2855 L 80.8925,-12.467 L 80.5877,-12.6884
 L 80.3131,-12.9464 L 80.073,-13.2366 L 79.8711,-13.5547 L 79.7107,-13.8956 L 79.5943,-14.2539 L 79.5237,-14.624
 L 79.5,-15 L 79.5237,-15.376 L 79.5943,-15.7461 L 79.7107,-16.1044 L 79.8711,-16.4453 L 80.073,-16.7634
 L 80.3131,-17.0536 L 80.5877,-17.3115 L 80.8925,-17.533 L 81.2227,-17.7145 L 81.573,-17.8532 L 81.9379,-17.9469
 L 82.3116,-17.9941 L 82.6884,-17.9941 L 83.0621,-17.9469 L 83.427,-17.8532 L 83.7773,-17.7145 L 84.1075,-17.533
 L 84.4123,-17.3115 L 84.6869,-17.0536 L 84.927,-16.7634 L 85.1289,-16.4453 L 85.2893,-16.1044 L 85.4057,-15.7461
 L 85.4763,-15.376 L 85.5,-15 L 85.4763,-14.624 L 85.4057,-14.2539 L 85.2893,-13.8956 L 85.1289,-13.5547
 L 84.927,-13.2366 L 84.6869,-12.9464 L 84.4123,-12.6884 L 84.1075,-12.467 L 83.7773,-12.2855 L 83.427,-12.1468
 L 83.0621,-12.0531 L 82.6884,-12.0059 z
M -82.6884,-12.0059 L -83.0621,-12.0531 L -83.427,-12.1468 L -83.7773,-12.2855 L -84.1075,-12.467 L -84.4123,-12.6884
 L -84.6869,-12.9464 L -84.927,-13.2366 L -85.1289,-13.5547 L -85.2893,-13.8956 L -85.4057,-14.2539 L -85.4763,-14.624
 L -85.5,-15 L -85.4763,-15.376 L -85.4057,-15.7461 L -85.2893,-16.1044 L -85.1289,-16.4453 L -84.927,-16.7634
 L -84.6869,-17.0536 L -84.4123,-17.3115 L -84.1075,-17.533 L -83.7773,-17.7145 L -83.427,-17.8532 L -83.0621,-17.9469
 L -82.6884,-17.9941 L -82.3116,-17.9941 L -81.9379,-17.9469 L -81.573,-17.8532 L -81.2227,-17.7145 L -80.8925,-17.533
 L -80.5877,-17.3115 L -80.3131,-17.0536 L -80.073,-16.7634 L -79.8711,-16.4453 L -79.7107,-16.1044 L -79.5943,-15.7461
 L -79.5237,-15.376 L -79.5,-15 L -79.5237,-14.624 L -79.5943,-14.2539 L -79.7107,-13.8956 L -79.8711,-13.5547
 L -80.073,-13.2366 L -80.3131,-12.9464 L -80.5877,-12.6884 L -80.8925,-12.467 L -81.2227,-12.2855 L -81.573,-12.1468
 L -81.9379,-12.0531 L -82.3116,-12.0059 z
M 82.3116,17.9941 L 81.9379,17.9469 L 81.573,17.8532 L 81.2227,17.7145 L 80.8925,17.533 L 80.5877,17.3115
 L 80.3131,17.0536 L 80.073,16.7634 L 79.8711,16.4453 L 79.7107,16.1044 L 79.5943,15.7461 L 79.5237,15.376
 L 79.5,15 L 79.5237,14.624 L 79.5943,14.2539 L 79.7107,13.8956 L 79.8711,13.5547 L 80.073,13.2366
 L 80.3131,12.9464 L 80.5877,12.6884 L 80.8925,12.467 L 81.2227,12.2855 L 81.573,12.1468 L 81.9379,12.0531
 L 82.3116,12.0059 L 82.6884,12.0059 L 83.0621,12.0531 L 83.427,12.1468 L 83.7773,12.2855 L 84.1075,12.467
 L 84.4123,12.6884 L 84.6869,12.9464 L 84.927,13.2366 L 85.1289,13.5547 L 85.2893,13.8956 L 85.4057,14.2539
 L 85.4763,14.624 L 85.5,15 L 85.4763,15.376 L 85.4057,15.7461 L 85.2893,16.1044 L 85.1289,16.4453
 L 84.927,16.7634 L 84.6869,17.0536 L 84.4123,17.3115 L 84.1075,17.533 L 83.7773,17.7145 L 83.427,17.8532
 L 83.0621,17.9469 L 82.6884,17.9941 z
M -82.6884,17.9941 L -83.0621,17.9469 L -83.427,17.8532 L -83.7773,17.7145 L -84.1075,17.533 L -84.4123,17.3115
 L -84.6869,17.0536 L -84.927,16.7634 L -85.1289,16.4453 L -85.2893,16.1044 L -85.4057,15.7461 L -85.4763,15.376
 L -85.5,15 L -85.4763,14.624 L -85.4057,14.2539 L -85.2893,13.8956 L -85.1289,13.5547 L -84.927,13.2366
 L -84.6869,12.9464 L -84.4123,12.6884 L -84.1075,12.467 L -83.7773,12.2855 L -83.427,12.1468 L -83.0621,12.0531
 L -82.6884,12.0059 L -82.3116,12.0059 L -81.9379,12.0531 L -81.573,12.1468 L -81.2227,12.2855 L -80.8925,12.467
 L -80.5877,12.6884 L -80.3131,12.9464 L -80.073,13.2366 L -79.8711,13.5547 L -79.7107,13.8956 L -79.5943,14.2539
 L -79.5237,14.624 L -79.5,15 L -79.5237,15.376 L -79.5943,15.7461 L -79.7107,16.1044 L -79.8711,16.4453
 L -80.073,16.7634 L -80.3131,17.0536 L -80.5877,17.3115 L -80.8925,17.533 L -81.2227,17.7145 L -81.573,17.8532
 L -81.9379,17.9469 L -82.3116,17.9941 z
" stroke="black" fill="lightgray" stroke-width="0.5"/>
</svg>
