<?xml version="1.0" standalone="no"?>
<!DOCTYPE svg PUBLIC "-//W3C//DTD SVG 1.1//EN" "http://www.w3.org/Graphics/SVG/1.1/DTD/svg11.dtd">
<svg width="494mm" height="104mm" viewBox="-247 -52 494 104" xmlns="http://www.w3.org/2000/svg" version="1.1">
<title>OpenSCAD Model</title>
<path d="
M 242.937,51.9114 L 243.545,51.7553 L 244.129,51.5241 L 244.679,51.2216 L 245.187,50.8526 L 245.645,50.4227
 L 246.045,49.9389 L 246.382,49.4088 L 246.649,48.8406 L 246.843,48.2434 L 246.961,47.6267 L 247,47
 L 247,-47 L 246.961,-47.6267 L 246.843,-48.2434 L 246.649,-48.8406 L 246.382,-49.4088 L 246.045,-49.9389
 L 245.645,-50.4227 L 245.187,-50.8526 L 244.679,-51.2216 L 244.129,-51.5241 L 243.545,-51.7553 L 242.937,-51.9114
 L 242.314,-51.9901 L -242.314,-51.9901 L -242.937,-51.9114 L -243.545,-51.7553 L -244.129,-51.5241 L -244.679,-51.2216
 L -245.187,-50.8526 L -245.645,-50.4227 L -246.045,-49.9389 L -246.382,-49.4088 L -246.649,-48.8406 L -246.843,-48.2434
 L -246.961,-47.6267 L -247,-47 L -247,47 L -246.961,47.6267 L -246.843,48.2434 L -246.649,48.8406
 L -246.382,49.4088 L -246.045,49.9389 L -245.645,50.4227 L -245.187,50.8526 L -244.679,51.2216 L -244.129,51.5241
 L -243.545,51.7553 L -242.937,51.9114 L -242.314,51.9901 L 242.314,51.9901 z
M 239.812,-42.0059 L 239.438,-42.0531 L 239.073,-42.1468 L 238.723,-42.2855 L 238.393,-42.467 L 238.088,-42.6885
 L 237.813,-42.9464 L 237.573,-43.2366 L 237.371,-43.5547 L 237.211,-43.8956 L 237.094,-44.2539 L 237.024,-44.624
 L 237,-45 L 237.024,-45.376 L 237.094,-45.7461 L 237.211,-46.1044 L 237.371,-46.4453 L 237.573,-46.7634
 L 237.813,-47.0536 L 238.088,-47.3115 L 238.393,-47.533 L 238.723,-47.7145 L 239.073,-47.8532 L 239.438,-47.9469
 L 239.812,-47.9941 L 240.188,-47.9941 L 240.562,-47.9469 L 240.927,-47.8532 L 241.277,-47.7145 L 241.607,-47.533
 L 241.912,-47.3115 L 242.187,-47.0536 L 242.427,-46.7634 L 242.629,-46.4453 L 242.789,-46.1044 L 242.906,-45.7461
 L 242.976,-45.376 L 243,-45 L 242.976,-44.624 L 242.906,-44.2539 L 242.789,-43.8956 L 242.629,-43.5547
 L 242.427,-43.2366 L 242.187,-42.9464 L 241.912,-42.6885 L 241.607,-42.467 L 241.277,-42.2855 L 240.927,-42.1468
 L 240.562,-42.0531 L 240.188,-42.0059 z
M -240.188,-42.0059 L -240.562,-42.0531 L -240.927,-42.1468 L -241.277,-42.2855 L -241.607,-42.467 L -241.912,-42.6885
 L -242.187,-42.9464 L -242.427,-43.2366 L -242.629,-43.5547 L -242.789,-43.8956 L -242.906,-44.2539 L -242.976,-44.624
 L -243,-45 L -242.976,-45.376 L -242.906,-45.7461 L -242.789,-46.1044 L -242.629,-46.4453 L -242.427,-46.7634
 L -242.187,-47.0536 L -241.912,-47.3115 L -241.607,-47.533 L -241.277,-47.7145 L -240.927,-47.8532 L -240.562,-47.9469
 L -240.188,-47.9941 L -239.812,-47.9941 L -239.438,-47.9469 L -239.073,-47.8532 L -238.723,-47.7145 L -238.393,-47.533
 L -238.088,-47.3115 L -237.813,-47.0536 L -237.573,-46.7634 L -237.371,-46.4453 L -237.211,-46.1044 L -237.094,-45.7461
 L -237.024,-45.376 L -237,-45 L -237.024,-44.624 L -237.094,-44.2539 L -237.211,-43.8956 L -237.371,-43.5547
 L -237.573,-43.2366 L -237.813,-42.9464 L -238.088,-42.6885 L -238.393,-42.467 L -238.723,-42.2855 L -239.073,-42.1468
 L -239.438,-42.0531 L -239.812,-42.0059 z
M -2.82556,44.9112 L -8.43214,44.2029 L -13.9058,42.7975 L -19.1601,40.7172 L -24.1122,37.9948 L -28.6841,34.6731
 L -32.8036,30.8046 L -36.4058,26.4503 L -39.4338,21.6789 L -41.8399,16.5656 L -43.5862,11.191 L -44.6452,5.63998
 L -45,-0 L -44.6452,-5.63998 L -43.5862,-11.191 L -41.8399,-16.5656 L -39.4338,-21.6789 L -36.4058,-26.4503
 L -32.8036,-30.8046 L -28.6841,-34.6731 L -24.1122,-37.9948 L -19.1601,-40.7172 L -13.9058,-42.7975 L -8.43214,-44.2029
 L -2.82556,-44.9112 L 2.82556,-44.9112 L 8.43214,-44.2029 L 13.9058,-42.7975 L 19.1601,-40.7172 L 24.1122,-37.9948
 L 28.6841,-34.6731 L 32.8036,-30.8046 L 36.4058,-26.4503 L 39.4338,-21.6789 L 41.8399,-16.5656 L 43.5862,-11.191
 L 44.6452,-5.63998 L 45,-0 L 44.6452,5.63998 L 43.5862,11.191 L 41.8399,16.5656 L 39.4338,21.6789
 L 36.4058,26.4503 L 32.8036,30.8046 L 28.6841,34.6731 L 24.1122,37.9948 L 19.1601,40.7172 L 13.9058,42.7975
 L 8.43214,44.2029 L 2.82556,44.9112 z
M 92.1744,44.9112 L 86.5678,44.2029 L 81.0942,42.7975 L 75.8399,40.7172 L 70.8878,37.9948 L 66.3159,34.6731
 L 62.1964,30.8046 L 58.5942,26.4503 L 55.5662,21.6789 L 53.16,16.5656 L 51.4138,11.191 L 50.3548,5.63998
 L 50,-0 L 50.3548,-5.63998 L 51.4138,-11.191 L 53.16,-16.5656 L 55.5662,-21.6789 L 58.5942,-26.4503
 L 62.1964,-30.8046 L 66.3159,-34.6731 L 70.8878,-37.9948 L 75.8399,-40.7172 L 81.0942,-42.7975 L 86.5678,-44.2029
 L 92.1744,-44.9112 L 97.8256,-44.9112 L 103.432,-44.2029 L 108.906,-42.7975 L 114.16,-40.7172 L 119.112,-37.9948
 L 123.684,-34.6731 L 127.804,-30.8046 L 131.406,-26.4503 L 134.434,-21.6789 L 136.84,-16.5656 L 138.586,-11.191
 L 139.645,-5.63998 L 140,-0 L 139.645,5.63998 L 138.586,11.191 L 136.84,16.5656 L 134.434,21.6789
 L 131.406,26.4503 L 127.804,30.8046 L 123.684,34.6731 L 119.112,37.9948 L 114.16,40.7172 L 108.906,42.7975
 L 103.432,44.2029 L 97.8256,44.9112 z
M -192.826,44.9112 L -198.432,44.2029 L -203.906,42.7975 L -209.16,40.7172 L -214.112,37.9948 L -218.684,34.6731
 L -222.804,30.8046 L -226.406,26.4503 L -229.434,21.6789 L -231.84,16.5656 L -233.586,11.191 L -234.645,5.63998
 L -235,-0 L -234.645,-5.63998 L -233.586,-11.191 L -231.84,-16.5656 L -229.434,-21.6789 L -226.406,-26.4503
 L -222.804,-30.8046 L -218.684,-34.6731 L -214.112,-37.9948 L -209.16,-40.7172 L -203.906,-42.7975 L -198.432,-44.2029
 L -192.826,-44.9112 L -187.174,-44.9112 L -181.568,-44.2029 L -176.094,-42.7975 L -170.84,-40.7172 L -165.888,-37.9948
 L -161.316,-34.6731 L -157.196,-30.8046 L -153.594,-26.4503 L -150.566,-21.6789 L -148.16,-16.5656 L -146.414,-11.191
 L -145.355,-5.63998 L -145,-0 L -145.355,5.63998 L -146.414,11.191 L -148.16,16.5656 L -150.566,21.6789
 L -153.594,26.4503 L -157.196,30.8046 L -161.316,34.6731 L -165.888,37.9948 L -170.84,40.7172 L -176.094,42.7975
 L -181.568,44.2029 L -187.174,44.9112 z
M -97.8256,44.9112 L -103.432,44.2029 L -108.906,42.7975 L -114.16,40.7172 L -119.112,37.9948 L -123.684,34.6731
 L -127.804,30.8046 L -131.406,26.4503 L -134.434,21.6789 L -136.84,16.5656 L -138.586,11.191 L -139.645,5.63998
 L -140,-0 L -139.645,-5.63998 L -138.586,-11.191 L -136.84,-16.5656 L -134.434,-21.6789 L -131.406,-26.4503
 L -127.804,-30.8046 L -123.684,-34.6731 L -119.112,-37.9948 L -114.16,-40.7172 L -108.906,-42.7975 L -103.432,-44.2029
 L -97.8256,-44.9112 L -92.1744,-44.9112 L -86.5678,-44.2029 L -81.0942,-42.7975 L -75.8399,-40.7172 L -70.8878,-37.9948
 L -66.3159,-34.6731 L -62.1964,-30.8046 L -58.5942,-26.4503 L -55.5662,-21.6789 L -53.16,-16.5656 L -51.4138,-11.191
 L -50.3548,-5.63998 L -50,-0 L -50.3548,5.63998 L -51.4138,11.191 L -53.16,16.5656 L -55.5662,21.6789
 L -58.5942,26.4503 L -62.1964,30.8046 L -66.3159,34.6731 L -70.8878,37.9948 L -75.8399,40.7172 L -81.0942,42.7975
 L -86.5678,44.2029 L -92.1744,44.9112 z
M 187.174,44.9112 L 181.568,44.2029 L 176.094,42.7975 L 170.84,40.7172 L 165.888,37.9948 L 161.316,34.6731
 L 157.196,30.8046 L 153.594,26.4503 L 150.566,21.6789 L 148.16,16.5656 L 146.414,11.191 L 145.355,5.63998
 L 145,-0 L 145.355,-5.63998 L 146.414,-11.191 L 148.16,-16.5656 L 150.566,-21.6789 L 153.594,-26.4503
 L 157.196,-30.8046 L 161.316,-34.6731 L 165.888,-37.9948 L 170.84,-40.7172 L 176.094,-42.7975 L 181.568,-44.2029
 L 187.174,-44.9112 L 192.826,-44.9112 L 198.432,-44.2029 L 203.906,-42.7975 L 209.16,-40.7172 L 214.112,-37.9948
 L 218.684,-34.6731 L 222.804,-30.8046 L 226.406,-26.4503 L 229.434,-21.6789 L 231.84,-16.5656 L 233.586,-11.191
 L 234.645,-5.63998 L 235,-0 L 234.645,5.63998 L 233.586,11.191 L 231.84,16.5656 L 229.434,21.6789
 L 226.406,26.4503 L 222.804,30.8046 L 218.684,34.6731 L 214.112,37.9948 L 209.16,40.7172 L 203.906,42.7975
 L 198.432,44.2029 L 192.826,44.9112 z
M 239.906,-36.003 L 239.719,-36.0266 L 239.536,-36.0734 L 239.361,-36.1428 L 239.196,-36.2335 L 239.044,-36.3442
 L 238.907,-36.4732 L 238.786,-36.6183 L 238.686,-36.7774 L 238.605,-36.9478 L 238.547,-37.127 L 238.512,-37.312
 L 238.5,-37.5 L 238.512,-37.688 L 238.547,-37.873 L 238.605,-38.0522 L 238.686,-38.2226 L 238.786,-38.3817
 L 238.907,-38.5268 L 239.044,-38.6558 L 239.196,-38.7665 L 239.361,-38.8572 L 239.536,-38.9266 L 239.719,-38.9734
 L 239.906,-38.997 L 240.094,-38.997 L 240.281,-38.9734 L 240.464,-38.9266 L 240.639,-38.8572 L 240.804,-38.7665
 L 240.956,-38.6558 L 241.093,-38.5268 L 241.214,-38.3817 L 241.314,-38.2226 L 241.395,-38.0522 L 241.453,-37.873
 L 241.488,-37.688 L 241.5,-37.5 L 241.488,-37.312 L 241.453,-37.127 L 241.395,-36.9478 L 241.314,-36.7774
 L 241.214,-36.6183 L 241.093,-36.4732 L 240.956,-36.3442 L 240.804,-36.2335 L 240.639,-36.1428 L 240.464,-36.0734
 L 240.281,-36.0266 L 240.094,-36.003 z
M -240.094,-36.003 L -240.281,-36.0266 L -240.464,-36.0734 L -240.639,-36.1428 L -240.804,-36.2335 L -240.956,-36.3442
 L -241.093,-36.4732 L -241.214,-36.6183 L -241.314,-36.7774 L -241.395,-36.9478 L -241.453,-37.127 L -241.488,-37.312
 L -241.5,-37.5 L -241.488,-37.688 L -241.453,-37.873 L -241.395,-38.0522 L -241.314,-38.2226 L -241.214,-38.3817
 L -241.093,-38.5268 L -240.956,-38.6558 L -240.804,-38.7665 L -240.639,-38.8572 L -240.464,-38.9266 L -240.281,-38.9734
 L -240.094,-38.997 L -239.906,-38.997 L -239.719,-38.9734 L -239.536,-38.9266 L -239.361,-38.8572 L -239.196,-38.7665
 L -239.044,-38.6558 L -238.907,-38.5268 L -238.786,-38.3817 L -238.686,-38.2226 L -238.605,-38.0522 L -238.547,-37.873
 L -238.512,-37.688 L -238.5,-37.5 L -238.512,-37.312 L -238.547,-37.127 L -238.605,-36.9478 L -238.686,-36.7774
 L -238.786,-36.6183 L -238.907,-36.4732 L -239.044,-36.3442 L -239.196,-36.2335 L -239.361,-36.1428 L -239.536,-36.0734
 L -239.719,-36.0266 L -239.906,-36.003 z
M 239.812,-27.0059 L 239.438,-27.0531 L 239.073,-27.1468 L 238.723,-27.2855 L 238.393,-27.467 L 238.088,-27.6884
 L 237.813,-27.9464 L 237.573,-28.2366 L 237.371,-28.5547 L 237.211,-28.8956 L 237.094,-29.2539 L 237.024,-29.624
 L 237,-30 L 237.024,-30.376 L 237.094,-30.7461 L 237.211,-31.1044 L 237.371,-31.4453 L 237.573,-31.7634
 L 237.813,-32.0536 L 238.088,-32.3115 L 238.393,-32.533 L 238.723,-32.7145 L 239.073,-32.8532 L 239.438,-32.9469
 L 239.812,-32.9941 L 240.188,-32.9941 L 240.562,-32.9469 L 240.927,-32.8532 L 241.277,-32.7145 L 241.607,-32.533
 L 241.912,-32.3115 L 242.187,-32.0536 L 242.427,-31.7634 L 242.629,-31.4453 L 242.789,-31.1044 L 242.906,-30.7461
 L 242.976,-30.376 L 243,-30 L 242.976,-29.624 L 242.906,-29.2539 L 242.789,-28.8956 L 242.629,-28.5547
 L 242.427,-28.2366 L 242.187,-27.9464 L 241.912,-27.6884 L 241.607,-27.467 L 241.277,-27.2855 L 240.927,-27.1468
 L 240.562,-27.0531 L 240.188,-27.0059 z
M -240.188,-27.0059 L -240.562,-27.0531 L -240.927,-27.1468 L -241.277,-27.2855 L -241.607,-27.467 L -241.912,-27.6884
 L -242.187,-27.9464 L -242.427,-28.2366 L -242.629,-28.5547 L -242.789,-28.8956 L -242.906,-29.2539 L -242.976,-29.624
 L -243,-30 L -242.976,-30.376 L -242.906,-30.7461 L -242.789,-31.1044 L -242.629,-31.4453 L -242.427,-31.7634
 L -242.187,-32.0536 L -241.912,-32.3115 L -241.607,-32.533 L -241.277,-32.7145 L -240.927,-32.8532 L -240.562,-32.9469
 L -240.188,-32.9941 L -239.812,-32.9941 L -239.438,-32.9469 L -239.073,-32.8532 L -238.723,-32.7145 L -238.393,-32.533
 L -238.088,-32.3115 L -237.813,-32.0536 L -237.573,-31.7634 L -237.371,-31.4453 L -237.211,-31.1044 L -237.094,-30.7461
 L -237.024,-30.376 L -237,-30 L -237.024,-29.624 L -237.094,-29.2539 L -237.211,-28.8956 L -237.371,-28.5547
 L -237.573,-28.2366 L -237.813,-27.9464 L -238.088,-27.6884 L -238.393,-27.467 L -238.723,-27.2855 L -239.073,-27.1468
 L -239.438,-27.0531 L -239.812,-27.0059 z
M -240.094,-21.003 L -240.281,-21.0266 L -240.464,-21.0734 L -240.639,-21.1427 L -240.804,-21.2335 L -240.956,-21.3442
 L -241.093,-21.4732 L -241.214,-21.6183 L -241.314,-21.7774 L -241.395,-21.9478 L -241.453,-22.127 L -241.488,-22.312
 L -241.5,-22.5 L -241.488,-22.688 L -241.453,-22.873 L -241.395,-23.0522 L -241.314,-23.2226 L -241.214,-23.3817
 L -241.093,-23.5268 L -240.956,-23.6558 L -240.804,-23.7665 L -240.639,-23.8572 L -240.464,-23.9266 L -240.281,-23.9734
 L -240.094,-23.997 L -239.906,-23.997 L -239.719,-23.9734 L -239.536,-23.9266 L -239.361,-23.8572 L -239.196,-23.7665
 L -239.044,-23.6558 L -238.907,-23.5268 L -238.786,-23.3817 L -238.686,-23.2226 L -238.605,-23.0522 L -238.547,-22.873
 L -238.512,-22.688 L -238.5,-22.5 L -238.512,-22.312 L -238.547,-22.127 L -238.605,-21.9478 L -238.686,-21.7774
 L -238.786,-21.6183 L -238.907,-21.4732 L -239.044,-21.3442 L -239.196,-21.2335 L -239.361,-21.1427 L -239.536,-21.0734
 L -239.719,-21.0266 L -239.906,-21.003 z
M 239.906,-21.003 L 239.719,-21.0266 L 239.536,-21.0734 L 239.361,-21.1427 L 239.196,-21.2335 L 239.044,-21.3442
 L 238.907,-21.4732 L 238.786,-21.6183 L 238.686,-21.7774 L 238.605,-21.9478 L 238.547,-22.127 L 238.512,-22.312
 L 238.5,-22.5 L 238.512,-22.688 L 238.547,-22.873 L 238.605,-23.0522 L 238.686,-23.2226 L 238.786,-23.3817
 L 238.907,-23.5268 L 239.044,-23.6558 L 239.196,-23.7665 L 239.361,-23.8572 L 239.536,-23.9266 L 239.719,-23.9734
 L 239.906,-23.997 L 240.094,-23.997 L 240.281,-23.9734 L 240.464,-23.9266 L 240.639,-23.8572 L 240.804,-23.7665
 L 240.956,-23.6558 L 241.093,-23.5268 L 241.214,-23.3817 L 241.314,-23.2226 L 241.395,-23.0522 L 241.453,-22.873
 L 241.488,-22.688 L 241.5,-22.5 L 241.488,-22.312 L 241.453,-22.127 L 241.395,-21.9478 L 241.314,-21.7774
 L 241.214,-21.6183 L 241.093,-21.4732 L 240.956,-21.3442 L 240.804,-21.2335 L 240.639,-21.1427 L 240.464,-21.0734
 L 240.281,-21.0266 L 240.094,-21.003 z
M 239.812,-12.0059 L 239.438,-12.0531 L 239.073,-12.1468 L 238.723,-12.2855 L 238.393,-12.467 L 238.088,-12.6884
 L 237.813,-12.9464 L 237.573,-13.2366 L 237.371,-13.5547 L 237.211,-13.8956 L 237.094,-14.2539 L 237.024,-14.624
 L 237,-15 L 237.024,-15.376 L 237.094,-15.7461 L 237.211,-16.1044 L 237.371,-16.4453 L 237.573,-16.7634
 L 237.813,-17.0536 L 238.088,-17.3115 L 238.393,-17.533 L 238.723,-17.7145 L 239.073,-17.8532 L 239.438,-17.9469
 L 239.812,-17.9941 L 240.188,-17.9941 L 240.562,-17.9469 L 240.927,-17.8532 L 241.277,-17.7145 L 241.607,-17.533
 L 241.912,-17.3115 L 242.187,-17.0536 L 242.427,-16.7634 L 242.629,-16.4453 L 242.789,-16.1044 L 242.906,-15.7461
 L 242.976,-15.376 L 243,-15 L 242.976,-14.624 L 242.906,-14.2539 L 242.789,-13.8956 L 242.629,-13.5547
 L 242.427,-13.2366 L 242.187,-12.9464 L 241.912,-12.6884 L 241.607,-12.467 L 241.277,-12.2855 L 240.927,-12.1468
 L 240.562,-12.0531 L 240.188,-12.0059 z
M -240.188,-12.0059 L -240.562,-12.0531 L -240.927,-12.1468 L -241.277,-12.2855 L -241.607,-12.467 L -241.912,-12.6884
 L -242.187,-12.9464 L -242.427,-13.2366 L -242.629,-13.5547 L -242.789,-13.8956 L -242.906,-14.2539 L -242.976,-14.624
 L -243,-15 L -242.976,-15.376 L -242.906,-15.7461 L -242.789,-16.1044 L -242.629,-16.4453 L -242.427,-16.7634
 L -242.187,-17.0536 L -241.912,-17.3115 L -241.607,-17.533 L -241.277,-17.7145 L -240.927,-17.8532 L -240.562,-17.9469
 L -240.188,-17.9941 L -239.812,-17.9941 L -239.438,-17.9469 L -239.073,-17.8532 L -238.723,-17.7145 L -238.393,-17.533
 L -238.088,-17.3115 L -237.813,-17.0536 L -237.573,-16.7634 L -237.371,-16.4453 L -237.211,-16.1044 L -237.094,-15.7461
 L -237.024,-15.376 L -237,-15 L -237.024,-14.624 L -237.094,-14.2539 L -237.211,-13.8956 L -237.371,-13.5547
 L -237.573,-13.2366 L -237.813,-12.9464 L -238.088,-12.6884 L -238.393,-12.467 L -238.723,-12.2855 L -239.073,-12.1468
 L -239.438,-12.0531 L -239.812,-12.0059 z
M -240.094,-6.00294 L -240.281,-6.02657 L -240.464,-6.07341 L -240.639,-6.14275 L -240.804,-6.23351 L -240.956,-6.34422
 L -241.093,-6.47318 L -241.214,-6.61832 L -241.314,-6.77736 L -241.395,-6.9478 L -241.453,-7.12695 L -241.488,-7.312
 L -241.5,-7.5 L -241.488,-7.68799 L -241.453,-7.87303 L -241.395,-8.05219 L -241.314,-8.22263 L -241.214,-8.38167
 L -241.093,-8.52681 L -240.956,-8.65576 L -240.804,-8.76648 L -240.639,-8.85724 L -240.464,-8.92657 L -240.281,-8.97342
 L -240.094,-8.99704 L -239.906,-8.99704 L -239.719,-8.97342 L -239.536,-8.92657 L -239.361,-8.85724 L -239.196,-8.76648
 L -239.044,-8.65576 L -238.907,-8.52681 L -238.786,-8.38167 L -238.686,-8.22263 L -238.605,-8.05219 L -238.547,-7.87303
 L -238.512,-7.68799 L -238.5,-7.5 L -238.512,-7.312 L -238.547,-7.12695 L -238.605,-6.9478 L -238.686,-6.77736
 L -238.786,-6.61832 L -238.907,-6.47318 L -239.044,-6.34422 L -239.196,-6.23351 L -239.361,-6.14275 L -239.536,-6.07341
 L -239.719,-6.02657 L -239.906,-6.00294 z
M 239.906,-6.00294 L 239.719,-6.02657 L 239.536,-6.07341 L 239.361,-6.14275 L 239.196,-6.23351 L 239.044,-6.34422
 L 238.907,-6.47318 L 238.786,-6.61832 L 238.686,-6.77736 L 238.605,-6.9478 L 238.547,-7.12695 L 238.512,-7.312
 L 238.5,-7.5 L 238.512,-7.68799 L 238.547,-7.87303 L 238.605,-8.05219 L 238.686,-8.22263 L 238.786,-8.38167
 L 238.907,-8.52681 L 239.044,-8.65576 L 239.196,-8.76648 L 239.361,-8.85724 L 239.536,-8.92657 L 239.719,-8.97342
 L 239.906,-8.99704 L 240.094,-8.99704 L 240.281,-8.97342 L 240.464,-8.92657 L 240.639,-8.85724 L 240.804,-8.76648
 L 240.956,-8.65576 L 241.093,-8.52681 L 241.214,-8.38167 L 241.314,-8.22263 L 241.395,-8.05219 L 241.453,-7.87303
 L 241.488,-7.68799 L 241.5,-7.5 L 241.488,-7.312 L 241.453,-7.12695 L 241.395,-6.9478 L 241.314,-6.77736
 L 241.214,-6.61832 L 241.093,-6.47318 L 240.956,-6.34422 L 240.804,-6.23351 L 240.639,-6.14275 L 240.464,-6.07341
 L 240.281,-6.02657 L 240.094,-6.00294 z
M 239.812,2.99408 L 239.438,2.94685 L 239.073,2.85316 L 238.723,2.71448 L 238.393,2.53297 L 238.088,2.31154
 L 237.813,2.05363 L 237.573,1.76335 L 237.371,1.44525 L 237.211,1.10437 L 237.094,0.746063 L 237.024,0.375992
 L 237,-0 L 237.024,-0.375992 L 237.094,-0.746063 L 237.211,-1.10437 L 237.371,-1.44525 L 237.573,-1.76335
 L 237.813,-2.05363 L 238.088,-2.31154 L 238.393,-2.53297 L 238.723,-2.71448 L 239.073,-2.85316 L 239.438,-2.94685
 L 239.812,-2.99408 L 240.188,-2.99408 L 240.562,-2.94685 L 240.927,-2.85316 L 241.277,-2.71448 L 241.607,-2.53297
 L 241.912,-2.31154 L 242.187,-2.05363 L 242.427,-1.76335 L 242.629,-1.44525 L 242.789,-1.10437 L 242.906,-0.746063
 L 242.976,-0.375992 L 243,-0 L 242.976,0.375992 L 242.906,0.746063 L 242.789,1.10437 L 242.629,1.44525
 L 242.427,1.76335 L 242.187,2.05363 L 241.912,2.31154 L 241.607,2.53297 L 241.277,2.71448 L 240.927,2.85316
 L 240.562,2.94685 L 240.188,2.99408 z
M -240.188,2.99408 L -240.562,2.94685 L -240.927,2.85316 L -241.277,2.71448 L -241.607,2.53297 L -241.912,2.31154
 L -242.187,2.05363 L -242.427,1.76335 L -242.629,1.44525 L -242.789,1.10437 L -242.906,0.746063 L -242.976,0.375992
 L -243,-0 L -242.976,-0.375992 L -242.906,-0.746063 L -242.789,-1.10437 L -242.629,-1.44525 L -242.427,-1.76335
 L -242.187,-2.05363 L -241.912,-2.31154 L -241.607,-2.53297 L -241.277,-2.71448 L -240.927,-2.85316 L -240.562,-2.94685
 L -240.188,-2.99408 L -239.812,-2.99408 L -239.438,-2.94685 L -239.073,-2.85316 L -238.723,-2.71448 L -238.393,-2.53297
 L -238.088,-2.31154 L -237.813,-2.05363 L -237.573,-1.76335 L -237.371,-1.44525 L -237.211,-1.10437 L -237.094,-0.746063
 L -237.024,-0.375992 L -237,-0 L -237.024,0.375992 L -237.094,0.746063 L -237.211,1.10437 L -237.371,1.44525
 L -237.573,1.76335 L -237.813,2.05363 L -238.088,2.31154 L -238.393,2.53297 L -238.723,2.71448 L -239.073,2.85316
 L -239.438,2.94685 L -239.812,2.99408 z
M 239.906,8.99704 L 239.719,8.97342 L 239.536,8.92657 L 239.361,8.85724 L 239.196,8.76648 L 239.044,8.65576
 L 238.907,8.52681 L 238.786,8.38167 L 238.686,8.22263 L 238.605,8.05219 L 238.547,7.87303 L 238.512,7.68799
 L 238.5,7.5 L 238.512,7.312 L 238.547,7.12695 L 238.605,6.9478 L 238.686,6.77736 L 238.786,6.61832
 L 238.907,6.47318 L 239.044,6.34422 L 239.196,6.23351 L 239.361,6.14275 L 239.536,6.07341 L 239.719,6.02657
 L 239.906,6.00294 L 240.094,6.00294 L 240.281,6.02657 L 240.464,6.07341 L 240.639,6.14275 L 240.804,6.23351
 L 240.956,6.34422 L 241.093,6.47318 L 241.214,6.61832 L 241.314,6.77736 L 241.395,6.9478 L 241.453,7.12695
 L 241.488,7.312 L 241.5,7.5 L 241.488,7.68799 L 241.453,7.87303 L 241.395,8.05219 L 241.314,8.22263
 L 241.214,8.38167 L 241.093,8.52681 L 240.956,8.65576 L 240.804,8.76648 L 240.639,8.85724 L 240.464,8.92657
 L 240.281,8.97342 L 240.094,8.99704 z
M -240.094,8.99704 L -240.281,8.97342 L -240.464,8.92657 L -240.639,8.85724 L -240.804,8.76648 L -240.956,8.65576
 L -241.093,8.52681 L -241.214,8.38167 L -241.314,8.22263 L -241.395,8.05219 L -241.453,7.87303 L -241.488,7.68799
 L -241.5,7.5 L -241.488,7.312 L -241.453,7.12695 L -241.395,6.9478 L -241.314,6.77736 L -241.214,6.61832
 L -241.093,6.47318 L -240.956,6.34422 L -240.804,6.23351 L -240.639,6.14275 L -240.464,6.07341 L -240.281,6.02657
 L -240.094,6.00294 L -239.906,6.00294 L -239.719,6.02657 L -239.536,6.07341 L -239.361,6.14275 L -239.196,6.23351
 L -239.044,6.34422 L -238.907,6.47318 L -238.786,6.61832 L -238.686,6.77736 L -238.605,6.9478 L -238.547,7.12695
 L -238.512,7.312 L -238.5,7.5 L -238.512,7.68799 L -238.547,7.87303 L -238.605,8.05219 L -238.686,8.22263
 L -238.786,8.38167 L -238.907,8.52681 L -239.044,8.65576 L -239.196,8.76648 L -239.361,8.85724 L -239.536,8.92657
 L -239.719,8.97342 L -239.906,8.99704 z
M -240.188,17.9941 L -240.562,17.9469 L -240.927,17.8532 L -241.277,17.7145 L -241.607,17.533 L -241.912,17.3115
 L -242.187,17.0536 L -242.427,16.7634 L -242.629,16.4453 L -242.789,16.1044 L -242.906,15.7461 L -242.976,15.376
 L -243,15 L -242.976,14.624 L -242.906,14.2539 L -242.789,13.8956 L -242.629,13.5547 L -242.427,13.2366
 L -242.187,12.9464 L -241.912,12.6884 L -241.607,12.467 L -241.277,12.2855 L -240.927,12.1468 L -240.562,12.0531
 L -240.188,12.0059 L -239.812,12.0059 L -239.438,12.0531 L -239.073,12.1468 L -238.723,12.2855 L -238.393,12.467
 L -238.088,12.6884 L -237.813,12.9464 L -237.573,13.2366 L -237.371,13.5547 L -237.211,13.8956 L -237.094,14.2539
 L -237.024,14.624 L -237,15 L -237.024,15.376 L -237.094,15.7461 L -237.211,16.1044 L -237.371,16.4453
 L -237.573,16.7634 L -237.813,17.0536 L -238.088,17.3115 L -238.393,17.533 L -238.723,17.7145 L -239.073,17.8532
 L -239.438,17.9469 L -239.812,17.9941 z
M 239.812,17.9941 L 239.438,17.9469 L 239.073,17.8532 L 238.723,17.7145 L 238.393,17.533 L 238.088,17.3115
 L 237.813,17.0536 L 237.573,16.7634 L 237.371,16.4453 L 237.211,16.1044 L 237.094,15.7461 L 237.024,15.376
 L 237,15 L 237.024,14.624 L 237.094,14.2539 L 237.211,13.8956 L 237.371,13.5547 L 237.573,13.2366
 L 237.813,12.9464 L 238.088,12.6884 L 238.393,12.467 L 238.723,12.2855 L 239.073,12.1468 L 239.438,12.0531
 L 239.812,12.0059 L 240.188,12.0059 L 240.562,12.0531 L 240.927,12.1468 L 241.277,12.2855 L 241.607,12.467
 L 241.912,12.6884 L 242.187,12.9464 L 242.427,13.2366 L 242.629,13.5547 L 242.789,13.8956 L 242.906,14.2539
 L 242.976,14.624 L 243,15 L 242.976,15.376 L 242.906,15.7461 L 242.789,16.1044 L 242.629,16.4453
 L 242.427,16.7634 L 242.187,17.0536 L 241.912,17.3115 L 241.607,17.533 L 241.277,17.7145 L 240.927,17.8532
 L 240.562,17.9469 L 240.188,17.9941 z
M 239.906,23.997 L 239.719,23.9734 L 239.536,23.9266 L 239.361,23.8572 L 239.196,23.7665 L 239.044,23.6558
 L 238.907,23.5268 L 238.786,23.3817 L 238.686,23.2226 L 238.605,23.0522 L 238.547,22.873 L 238.512,22.688
 L 238.5,22.5 L 238.512,22.312 L 238.547,22.127 L 238.605,21.9478 L 238.686,21.7774 L 238.786,21.6183
 L 238.907,21.4732 L 239.044,21.3442 L 239.196,21.2335 L 239.361,21.1427 L 239.536,21.0734 L 239.719,21.0266
 L 239.906,21.003 L 240.094,21.003 L 240.281,21.0266 L 240.464,21.0734 L 240.639,21.1427 L 240.804,21.2335
 L 240.956,21.3442 L 241.093,21.4732 L 241.214,21.6183 L 241.314,21.7774 L 241.395,21.9478 L 241.453,22.127
 L 241.488,22.312 L 241.5,22.5 L 241.488,22.688 L 241.453,22.873 L 241.395,23.0522 L 241.314,23.2226
 L 241.214,23.3817 L 241.093,23.5268 L 240.956,23.6558 L 240.804,23.7665 L 240.639,23.8572 L 240.464,23.9266
 L 240.281,23.9734 L 240.094,23.997 z
M -240.094,23.997 L -240.281,23.9734 L -240.464,23.9266 L -240.639,23.8572 L -240.804,23.7665 L -240.956,23.6558
 L -241.093,23.5268 L -241.214,23.3817 L -241.314,23.2226 L -241.395,23.0522 L -241.453,22.873 L -241.488,22.688
 L -241.5,22.5 L -241.488,22.312 L -241.453,22.127 L -241.395,21.9478 L -241.314,21.7774 L -241.214,21.6183
 L -241.093,21.4732 L -240.956,21.3442 L -240.804,21.2335 L -240.639,21.1427 L -240.464,21.0734 L -240.281,21.0266
 L -240.094,21.003 L -239.906,21.003 L -239.719,21.0266 L -239.536,21.0734 L -239.361,21.1427 L -239.196,21.2335
 L -239.044,21.3442 L -238.907,21.4732 L -238.786,21.6183 L -238.686,21.7774 L -238.605,21.9478 L -238.547,22.127
 L -238.512,22.312 L -238.5,22.5 L -238.512,22.688 L -238.547,22.873 L -238.605,23.0522 L -238.686,23.2226
 L -238.786,23.3817 L -238.907,23.5268 L -239.044,23.6558 L -239.196,23.7665 L -239.361,23.8572 L -239.536,23.9266
 L -239.719,23.9734 L -239.906,23.997 z
M -240.188,32.9941 L -240.562,32.9469 L -240.927,32.8532 L -241.277,32.7145 L -241.607,32.533 L -241.912,32.3115
 L -242.187,32.0536 L -242.427,31.7634 L -242.629,31.4453 L -242.789,31.1044 L -242.906,30.7461 L -242.976,30.376
 L -243,30 L -242.976,29.624 L -242.906,29.2539 L -242.789,28.8956 L -242.629,28.5547 L -242.427,28.2366
 L -242.187,27.9464 L -241.912,27.6884 L -241.607,27.467 L -241.277,27.2855 L -240.927,27.1468 L -240.562,27.0531
 L -240.188,27.0059 L -239.812,27.0059 L -239.438,27.0531 L -239.073,27.1468 L -238.723,27.2855 L -238.393,27.467
 L -238.088,27.6884 L -237.813,27.9464 L -237.573,28.2366 L -237.371,28.5547 L -237.211,28.8956 L -237.094,29.2539
 L -237.024,29.624 L -237,30 L -237.024,30.376 L -237.094,30.7461 L -237.211,31.1044 L -237.371,31.4453
 L -237.573,31.7634 L -237.813,32.0536 L -238.088,32.3115 L -238.393,32.533 L -238.723,32.7145 L -239.073,32.8532
 L -239.438,32.9469 L -239.812,32.9941 z
M 239.812,32.9941 L 239.438,32.9469 L 239.073,32.8532 L 238.723,32.7145 L 238.393,32.533 L 238.088,32.3115
 L 237.813,32.0536 L 237.573,31.7634 L 237.371,31.4453 L 237.211,31.1044 L 237.094,30.7461 L 237.024,30.376
 L 237,30 L 237.024,29.624 L 237.094,29.2539 L 237.211,28.8956 L 237.371,28.5547 L 237.573,28.2366
 L 237.813,27.9464 L 238.088,27.6884 L 238.393,27.467 L 238.723,27.2855 L 239.073,27.1468 L 239.438,27.0531
 L 239.812,27.0059 L 240.188,27.0059 L 240.562,27.0531 L 240.927,27.1468 L 241.277,27.2855 L 241.607,27.467
 L 241.912,27.6884 L 242.187,27.9464 L 242.427,28.2366 L 242.629,28.5547 L 242.789,28.8956 L 242.906,29.2539
 L 242.976,29.624 L 243,30 L 242.976,30.376 L 242.906,30.7461 L 242.789,31.1044 L 242.629,31.4453
 L 242.427,31.7634 L 242.187,32.0536 L 241.912,32.3115 L 241.607,32.533 L 241.277,32.7145 L 240.927,32.8532
 L 240.562,32.9469 L 240.188,32.9941 z
M -240.094,38.997 L -240.281,38.9734 L -240.464,38.9266 L -240.639,38.8572 L -240.804,38.7665 L -240.956,38.6558
 L -241.093,38.5268 L -241.214,38.3817 L -241.314,38.2226 L -241.395,38.0522 L -241.453,37.873 L -241.488,37.688
 L -241.5,37.5 L -241.488,37.312 L -241.453,37.127 L -241.395,36.9478 L -241.314,36.7774 L -241.214,36.6183
 L -241.093,36.4732 L -240.956,36.3442 L -240.804,36.2335 L -240.639,36.1428 L -240.464,36.0734 L -240.281,36.0266
 L -240.094,36.003 L -239.906,36.003 L -239.719,36.0266 L -239.536,36.0734 L -239.361,36.1428 L -239.196,36.2335
 L -239.044,36.3442 L -238.907,36.4732 L -238.786,36.6183 L -238.686,36.7774 L -238.605,36.9478 L -238.547,37.127
 L -238.512,37.312 L -238.5,37.5 L -238.512,37.688 L -238.547,37.873 L -238.605,38.0522 L -238.686,38.2226
 L -238.786,38.3817 L -238.907,38.5268 L -239.044,38.6558 L -239.196,38.7665 L -239.361,38.8572 L -239.536,38.9266
 L -239.719,38.9734 L -239.906,38.997 z
M 239.906,38.997 L 239.719,38.9734 L 239.536,38.9266 L 239.361,38.8572 L 239.196,38.7665 L 239.044,38.6558
 L 238.907,38.5268 L 238.786,38.3817 L 238.686,38.2226 L 238.605,38.0522 L 238.547,37.873 L 238.512,37.688
 L 238.5,37.5 L 238.512,37.312 L 238.547,37.127 L 238.605,36.9478 L 238.686,36.7774 L 238.786,36.6183
 L 238.907,36.4732 L 239.044,36.3442 L 239.196,36.2335 L 239.361,36.1428 L 239.536,36.0734 L 239.719,36.0266
 L 239.906,36.003 L 240.094,36.003 L 240.281,36.0266 L 240.464,36.0734 L 240.639,36.1428 L 240.804,36.2335
 L 240.956,36.3442 L 241.093,36.4732 L 241.214,36.6183 L 241.314,36.7774 L 241.395,36.9478 L 241.453,37.127
 L 241.488,37.312 L 241.5,37.5 L 241.488,37.688 L 241.453,37.873 L 241.395,38.0522 L 241.314,38.2226
 L 241.214,38.3817 L 241.093,38.5268 L 240.956,38.6558 L 240.804,38.7665 L 240.639,38.8572 L 240.464,38.9266
 L 240.281,38.9734 L 240.094,38.997 z
M -240.188,47.9941 L -240.562,47.9469 L -240.927,47.8532 L -241.277,47.7145 L -241.607,47.533 L -241.912,47.3115
 L -242.187,47.0536 L -242.427,46.7634 L -242.629,46.4453 L -242.789,46.1044 L -242.906,45.7461 L -242.976,45.376
 L -243,45 L -242.976,44.624 L -242.906,44.2539 L -242.789,43.8956 L -242.629,43.5547 L -242.427,43.2366
 L -242.187,42.9464 L -241.912,42.6885 L -241.607,42.467 L -241.277,42.2855 L -240.927,42.1468 L -240.562,42.0531
 L -240.188,42.0059 L -239.812,42.0059 L -239.438,42.0531 L -239.073,42.1468 L -238.723,42.2855 L -238.393,42.467
 L -238.088,42.6885 L -237.813,42.9464 L -237.573,43.2366 L -237.371,43.5547 L -237.211,43.8956 L -237.094,44.2539
 L -237.024,44.624 L -237,45 L -237.024,45.376 L -237.094,45.7461 L -237.211,46.1044 L -237.371,46.4453
 L -237.573,46.7634 L -237.813,47.0536 L -238.088,47.3115 L -238.393,47.533 L -238.723,47.7145 L -239.073,47.8532
 L -239.438,47.9469 L -239.812,47.9941 z
M 239.812,47.9941 L 239.438,47.9469 L 239.073,47.8532 L 238.723,47.7145 L 238.393,47.533 L 238.088,47.3115
 L 237.813,47.0536 L 237.573,46.7634 L 237.371,46.4453 L 237.211,46.1044 L 237.094,45.7461 L 237.024,45.376
 L 237,45 L 237.024,44.624 L 237.094,44.2539 L 237.211,43.8956 L 237.371,43.5547 L 237.573,43.2366
 L 237.813,42.9464 L 238.088,42.6885 L 238.393,42.467 L 238.723,42.2855 L 239.073,42.1468 L 239.438,42.0531
 L 239.812,42.0059 L 240.188,42.0059 L 240.562,42.0531 L 240.927,42.1468 L 241.277,42.2855 L 241.607,42.467
 L 241.912,42.6885 L 242.187,42.9464 L 242.427,43.2366 L 242.629,43.5547 L 242.789,43.8956 L 242.906,44.2539
 L 242.976,44.624 L 243,45 L 242.976,45.376 L 242.906,45.7461 L 242.789,46.1044 L 242.629,46.4453
 L 242.427,46.7634 L 242.187,47.0536 L 241.912,47.3115 L 241.607,47.533 L 241.277,47.7145 L 240.927,47.8532
 L 240.562,47.9469 L 240.188,47.9941 z
" stroke="black" fill="lightgray" stroke-width="0.5"/>
</svg>
