<?xml version="1.0" standalone="no"?>
<!DOCTYPE svg PUBLIC "-//W3C//DTD SVG 1.1//EN" "http://www.w3.org/Graphics/SVG/1.1/DTD/svg11.dtd">
<svg width="194mm" height="44mm" viewBox="-97 -22 194 44" xmlns="http://www.w3.org/2000/svg" version="1.1">
<title>OpenSCAD Model</title>
<path d="
M 92.9369,21.9114 L 93.5451,21.7553 L 94.1289,21.5241 L 94.6791,21.2216 L 95.1871,20.8526 L 95.6448,20.4227
 L 96.0451,19.9389 L 96.3815,19.4088 L 96.6489,18.8406 L 96.8429,18.2434 L 96.9606,17.6267 L 97,17
 L 97,-17 L 96.9606,-17.6267 L 96.8429,-18.2434 L 96.6489,-18.8406 L 96.3815,-19.4088 L 96.0451,-19.9389
 L 95.6448,-20.4227 L 95.1871,-20.8526 L 94.6791,-21.2216 L 94.1289,-21.5241 L 93.5451,-21.7553 L 92.9369,-21.9114
 L 92.3139,-21.9901 L -92.3139,-21.9901 L -92.9369,-21.9114 L -93.5451,-21.7553 L -94.1289,-21.5241 L -94.6791,-21.2216
 L -95.1871,-20.8526 L -95.6448,-20.4227 L -96.0451,-19.9389 L -96.3815,-19.4088 L -96.6489,-18.8406 L -96.8429,-18.2434
 L -96.9606,-17.6267 L -97,-17 L -97,17 L -96.9606,17.6267 L -96.8429,18.2434 L -96.6489,18.8406
 L -96.3815,19.4088 L -96.0451,19.9389 L -95.6448,20.4227 L -95.1871,20.8526 L -94.6791,21.2216 L -94.1289,21.5241
 L -93.5451,21.7553 L -92.9369,21.9114 L -92.3139,21.9901 L 92.3139,21.9901 z
M -90.1884,-12.0059 L -90.5621,-12.0531 L -90.927,-12.1468 L -91.2773,-12.2855 L -91.6075,-12.467 L -91.9123,-12.6884
 L -92.1869,-12.9464 L -92.427,-13.2366 L -92.6289,-13.5547 L -92.7893,-13.8956 L -92.9057,-14.2539 L -92.9763,-14.624
 L -93,-15 L -92.9763,-15.376 L -92.9057,-15.7461 L -92.7893,-16.1044 L -92.6289,-16.4453 L -92.427,-16.7634
 L -92.1869,-17.0536 L -91.9123,-17.3115 L -91.6075,-17.533 L -91.2773,-17.7145 L -90.927,-17.8532 L -90.5621,-17.9469
 L -90.1884,-17.9941 L -89.8116,-17.9941 L -89.4379,-17.9469 L -89.073,-17.8532 L -88.7227,-17.7145 L -88.3925,-17.533
 L -88.0877,-17.3115 L -87.8131,-17.0536 L -87.573,-16.7634 L -87.3711,-16.4453 L -87.2107,-16.1044 L -87.0943,-15.7461
 L -87.0237,-15.376 L -87,-15 L -87.0237,-14.624 L -87.0943,-14.2539 L -87.2107,-13.8956 L -87.3711,-13.5547
 L -87.573,-13.2366 L -87.8131,-12.9464 L -88.0877,-12.6884 L -88.3925,-12.467 L -88.7227,-12.2855 L -89.073,-12.1468
 L -89.4379,-12.0531 L -89.8116,-12.0059 z
M 89.8116,-12.0059 L 89.4379,-12.0531 L 89.073,-12.1468 L 88.7227,-12.2855 L 88.3925,-12.467 L 88.0877,-12.6884
 L 87.8131,-12.9464 L 87.573,-13.2366 L 87.3711,-13.5547 L 87.2107,-13.8956 L 87.0943,-14.2539 L 87.0237,-14.624
 L 87,-15 L 87.0237,-15.376 L 87.0943,-15.7461 L 87.2107,-16.1044 L 87.3711,-16.4453 L 87.573,-16.7634
 L 87.8131,-17.0536 L 88.0877,-17.3115 L 88.3925,-17.533 L 88.7227,-17.7145 L 89.073,-17.8532 L 89.4379,-17.9469
 L 89.8116,-17.9941 L 90.1884,-17.9941 L 90.5621,-17.9469 L 90.927,-17.8532 L 91.2773,-17.7145 L 91.6075,-17.533
 L 91.9123,-17.3115 L 92.1869,-17.0536 L 92.427,-16.7634 L 92.6289,-16.4453 L 92.7893,-16.1044 L 92.9057,-15.7461
 L 92.9763,-15.376 L 93,-15 L 92.9763,-14.624 L 92.9057,-14.2539 L 92.7893,-13.8956 L 92.6289,-13.5547
 L 92.427,-13.2366 L 92.1869,-12.9464 L 91.9123,-12.6884 L 91.6075,-12.467 L 91.2773,-12.2855 L 90.927,-12.1468
 L 90.5621,-12.0531 L 90.1884,-12.0059 z
M 74.964,16.4674 L 72.9082,16.2077 L 70.9012,15.6924 L 68.9746,14.9296 L 67.1589,13.9314 L 65.4825,12.7135
 L 63.972,11.295 L 62.6512,9.69846 L 61.5409,7.94893 L 60.6587,6.07405 L 60.0184,4.10338 L 59.6301,2.06799
 L 59.5,-0 L 59.6301,-2.06799 L 60.0184,-4.10338 L 60.6587,-6.07405 L 61.5409,-7.94893 L 62.6512,-9.69846
 L 63.972,-11.295 L 65.4825,-12.7135 L 67.1589,-13.9314 L 68.9746,-14.9296 L 70.9012,-15.6924 L 72.9082,-16.2077
 L 74.964,-16.4674 L 77.036,-16.4674 L 79.0918,-16.2077 L 81.0988,-15.6924 L 83.0254,-14.9296 L 84.8411,-13.9314
 L 86.5175,-12.7135 L 88.028,-11.295 L 89.3488,-9.69846 L 90.4591,-7.94893 L 91.3413,-6.07405 L 91.9816,-4.10338
 L 92.3699,-2.06799 L 92.5,-0 L 92.3699,2.06799 L 91.9816,4.10338 L 91.3413,6.07405 L 90.4591,7.94893
 L 89.3488,9.69846 L 88.028,11.295 L 86.5175,12.7135 L 84.8411,13.9314 L 83.0254,14.9296 L 81.0988,15.6924
 L 79.0918,16.2077 L 77.036,16.4674 z
M 36.9639,16.4674 L 34.9082,16.2077 L 32.9012,15.6924 L 30.9746,14.9296 L 29.1588,13.9314 L 27.4825,12.7135
 L 25.972,11.295 L 24.6512,9.69846 L 23.5409,7.94893 L 22.6587,6.07405 L 22.0184,4.10338 L 21.6301,2.06799
 L 21.5,-0 L 21.6301,-2.06799 L 22.0184,-4.10338 L 22.6587,-6.07405 L 23.5409,-7.94893 L 24.6512,-9.69846
 L 25.972,-11.295 L 27.4825,-12.7135 L 29.1588,-13.9314 L 30.9746,-14.9296 L 32.9012,-15.6924 L 34.9082,-16.2077
 L 36.9639,-16.4674 L 39.036,-16.4674 L 41.0918,-16.2077 L 43.0988,-15.6924 L 45.0254,-14.9296 L 46.8411,-13.9314
 L 48.5175,-12.7135 L 50.028,-11.295 L 51.3488,-9.69846 L 52.4591,-7.94893 L 53.3413,-6.07405 L 53.9816,-4.10338
 L 54.3699,-2.06799 L 54.5,-0 L 54.3699,2.06799 L 53.9816,4.10338 L 53.3413,6.07405 L 52.4591,7.94893
 L 51.3488,9.69846 L 50.028,11.295 L 48.5175,12.7135 L 46.8411,13.9314 L 45.0254,14.9296 L 43.0988,15.6924
 L 41.0918,16.2077 L 39.036,16.4674 z
M -77.036,16.4674 L -79.0918,16.2077 L -81.0988,15.6924 L -83.0254,14.9296 L -84.8411,13.9314 L -86.5175,12.7135
 L -88.028,11.295 L -89.3488,9.69846 L -90.4591,7.94893 L -91.3413,6.07405 L -91.9816,4.10338 L -92.3699,2.06799
 L -92.5,-0 L -92.3699,-2.06799 L -91.9816,-4.10338 L -91.3413,-6.07405 L -90.4591,-7.94893 L -89.3488,-9.69846
 L -88.028,-11.295 L -86.5175,-12.7135 L -84.8411,-13.9314 L -83.0254,-14.9296 L -81.0988,-15.6924 L -79.0918,-16.2077
 L -77.036,-16.4674 L -74.964,-16.4674 L -72.9082,-16.2077 L -70.9012,-15.6924 L -68.9746,-14.9296 L -67.1589,-13.9314
 L -65.4825,-12.7135 L -63.972,-11.295 L -62.6512,-9.69846 L -61.5409,-7.94893 L -60.6587,-6.07405 L -60.0184,-4.10338
 L -59.6301,-2.06799 L -59.5,-0 L -59.6301,2.06799 L -60.0184,4.10338 L -60.6587,6.07405 L -61.5409,7.94893
 L -62.6512,9.69846 L -63.972,11.295 L -65.4825,12.7135 L -67.1589,13.9314 L -68.9746,14.9296 L -70.9012,15.6924
 L -72.9082,16.2077 L -74.964,16.4674 z
M -1.03604,16.4674 L -3.09178,16.2077 L -5.09877,15.6924 L -7.02534,14.9296 L -8.84114,13.9314 L -10.5175,12.7135
 L -12.028,11.295 L -13.3488,9.69846 L -14.459,7.94893 L -15.3413,6.07405 L -15.9816,4.10338 L -16.3699,2.06799
 L -16.5,-0 L -16.3699,-2.06799 L -15.9816,-4.10338 L -15.3413,-6.07405 L -14.459,-7.94893 L -13.3488,-9.69846
 L -12.028,-11.295 L -10.5175,-12.7135 L -8.84114,-13.9314 L -7.02534,-14.9296 L -5.09877,-15.6924 L -3.09178,-16.2077
 L -1.03604,-16.4674 L 1.03604,-16.4674 L 3.09178,-16.2077 L 5.09877,-15.6924 L 7.02534,-14.9296 L 8.84114,-13.9314
 L 10.5175,-12.7135 L 12.028,-11.295 L 13.3488,-9.69846 L 14.459,-7.94893 L 15.3413,-6.07405 L 15.9816,-4.10338
 L 16.3699,-2.06799 L 16.5,-0 L 16.3699,2.06799 L 15.9816,4.10338 L 15.3413,6.07405 L 14.459,7.94893
 L 13.3488,9.69846 L 12.028,11.295 L 10.5175,12.7135 L 8.84114,13.9314 L 7.02534,14.9296 L 5.09877,15.6924
 L 3.09178,16.2077 L 1.03604,16.4674 z
M -39.036,16.4674 L -41.0918,16.2077 L -43.0988,15.6924 L -45.0254,14.9296 L -46.8411,13.9314 L -48.5175,12.7135
 L -50.028,11.295 L -51.3488,9.69846 L -52.4591,7.94893 L -53.3413,6.07405 L -53.9816,4.10338 L -54.3699,2.06799
 L -54.5,-0 L -54.3699,-2.06799 L -53.9816,-4.10338 L -53.3413,-6.07405 L -52.4591,-7.94893 L -51.3488,-9.69846
 L -50.028,-11.295 L -48.5175,-12.7135 L -46.8411,-13.9314 L -45.0254,-14.9296 L -43.0988,-15.6924 L -41.0918,-16.2077
 L -39.036,-16.4674 L -36.9639,-16.4674 L -34.9082,-16.2077 L -32.9012,-15.6924 L -30.9746,-14.9296 L -29.1588,-13.9314
 L -27.4825,-12.7135 L -25.972,-11.295 L -24.6512,-9.69846 L -23.5409,-7.94893 L -22.6587,-6.07405 L -22.0184,-4.10338
 L -21.6301,-2.06799 L -21.5,-0 L -21.6301,2.06799 L -22.0184,4.10338 L -22.6587,6.07405 L -23.5409,7.94893
 L -24.6512,9.69846 L -25.972,11.295 L -27.4825,12.7135 L -29.1588,13.9314 L -30.9746,14.9296 L -32.9012,15.6924
 L -34.9082,16.2077 L -36.9639,16.4674 z
M 89.8116,17.9941 L 89.4379,17.9469 L 89.073,17.8532 L 88.7227,17.7145 L 88.3925,17.533 L 88.0877,17.3115
 L 87.8131,17.0536 L 87.573,16.7634 L 87.3711,16.4453 L 87.2107,16.1044 L 87.0943,15.7461 L 87.0237,15.376
 L 87,15 L 87.0237,14.624 L 87.0943,14.2539 L 87.2107,13.8956 L 87.3711,13.5547 L 87.573,13.2366
 L 87.8131,12.9464 L 88.0877,12.6884 L 88.3925,12.467 L 88.7227,12.2855 L 89.073,12.1468 L 89.4379,12.0531
 L 89.8116,12.0059 L 90.1884,12.0059 L 90.5621,12.0531 L 90.927,12.1468 L 91.2773,12.2855 L 91.6075,12.467
 L 91.9123,12.6884 L 92.1869,12.9464 L 92.427,13.2366 L 92.6289,13.5547 L 92.7893,13.8956 L 92.9057,14.2539
 L 92.9763,14.624 L 93,15 L 92.9763,15.376 L 92.9057,15.7461 L 92.7893,16.1044 L 92.6289,16.4453
 L 92.427,16.7634 L 92.1869,17.0536 L 91.9123,17.3115 L 91.6075,17.533 L 91.2773,17.7145 L 90.927,17.8532
 L 90.5621,17.9469 L 90.1884,17.9941 z
M -90.1884,17.9941 L -90.5621,17.9469 L -90.927,17.8532 L -91.2773,17.7145 L -91.6075,17.533 L -91.9123,17.3115
 L -92.1869,17.0536 L -92.427,16.7634 L -92.6289,16.4453 L -92.7893,16.1044 L -92.9057,15.7461 L -92.9763,15.376
 L -93,15 L -92.9763,14.624 L -92.9057,14.2539 L -92.7893,13.8956 L -92.6289,13.5547 L -92.427,13.2366
 L -92.1869,12.9464 L -91.9123,12.6884 L -91.6075,12.467 L -91.2773,12.2855 L -90.927,12.1468 L -90.5621,12.0531
 L -90.1884,12.0059 L -89.8116,12.0059 L -89.4379,12.0531 L -89.073,12.1468 L -88.7227,12.2855 L -88.3925,12.467
 L -88.0877,12.6884 L -87.8131,12.9464 L -87.573,13.2366 L -87.3711,13.5547 L -87.2107,13.8956 L -87.0943,14.2539
 L -87.0237,14.624 L -87,15 L -87.0237,15.376 L -87.0943,15.7461 L -87.2107,16.1044 L -87.3711,16.4453
 L -87.573,16.7634 L -87.8131,17.0536 L -88.0877,17.3115 L -88.3925,17.533 L -88.7227,17.7145 L -89.073,17.8532
 L -89.4379,17.9469 L -89.8116,17.9941 z
" stroke="black" fill="lightgray" stroke-width="0.5"/>
</svg>
