  0
SECTION
  2
BLOCKS
  0
ENDSEC
  0
SECTION
  2
ENTITIES
  0
LINE
  8
0
 10
92.9369
 20
-21.9114
 11
93.5451
 21
-21.7553
  0
LINE
  8
0
 10
93.5451
 20
-21.7553
 11
94.1289
 21
-21.5241
  0
LINE
  8
0
 10
94.1289
 20
-21.5241
 11
94.6791
 21
-21.2216
  0
LINE
  8
0
 10
94.6791
 20
-21.2216
 11
95.1871
 21
-20.8526
  0
LINE
  8
0
 10
95.1871
 20
-20.8526
 11
95.6448
 21
-20.4227
  0
LINE
  8
0
 10
95.6448
 20
-20.4227
 11
96.0451
 21
-19.9389
  0
LINE
  8
0
 10
96.0451
 20
-19.9389
 11
96.3815
 21
-19.4088
  0
LINE
  8
0
 10
96.3815
 20
-19.4088
 11
96.6489
 21
-18.8406
  0
LINE
  8
0
 10
96.6489
 20
-18.8406
 11
96.8429
 21
-18.2434
  0
LINE
  8
0
 10
96.8429
 20
-18.2434
 11
96.9606
 21
-17.6267
  0
LINE
  8
0
 10
96.9606
 20
-17.6267
 11
97
 21
-17
  0
LINE
  8
0
 10
97
 20
-17
 11
97
 21
17
  0
LINE
  8
0
 10
97
 20
17
 11
96.9606
 21
17.6267
  0
LINE
  8
0
 10
96.9606
 20
17.6267
 11
96.8429
 21
18.2434
  0
LINE
  8
0
 10
96.8429
 20
18.2434
 11
96.6489
 21
18.8406
  0
LINE
  8
0
 10
96.6489
 20
18.8406
 11
96.3815
 21
19.4088
  0
LINE
  8
0
 10
96.3815
 20
19.4088
 11
96.0451
 21
19.9389
  0
LINE
  8
0
 10
96.0451
 20
19.9389
 11
95.6448
 21
20.4227
  0
LINE
  8
0
 10
95.6448
 20
20.4227
 11
95.1871
 21
20.8526
  0
LINE
  8
0
 10
95.1871
 20
20.8526
 11
94.6791
 21
21.2216
  0
LINE
  8
0
 10
94.6791
 20
21.2216
 11
94.1289
 21
21.5241
  0
LINE
  8
0
 10
94.1289
 20
21.5241
 11
93.5451
 21
21.7553
  0
LINE
  8
0
 10
93.5451
 20
21.7553
 11
92.9369
 21
21.9114
  0
LINE
  8
0
 10
92.9369
 20
21.9114
 11
92.3139
 21
21.9901
  0
LINE
  8
0
 10
92.3139
 20
21.9901
 11
-92.3139
 21
21.9901
  0
LINE
  8
0
 10
-92.3139
 20
21.9901
 11
-92.9369
 21
21.9114
  0
LINE
  8
0
 10
-92.9369
 20
21.9114
 11
-93.5451
 21
21.7553
  0
LINE
  8
0
 10
-93.5451
 20
21.7553
 11
-94.1289
 21
21.5241
  0
LINE
  8
0
 10
-94.1289
 20
21.5241
 11
-94.6791
 21
21.2216
  0
LINE
  8
0
 10
-94.6791
 20
21.2216
 11
-95.1871
 21
20.8526
  0
LINE
  8
0
 10
-95.1871
 20
20.8526
 11
-95.6448
 21
20.4227
  0
LINE
  8
0
 10
-95.6448
 20
20.4227
 11
-96.0451
 21
19.9389
  0
LINE
  8
0
 10
-96.0451
 20
19.9389
 11
-96.3815
 21
19.4088
  0
LINE
  8
0
 10
-96.3815
 20
19.4088
 11
-96.6489
 21
18.8406
  0
LINE
  8
0
 10
-96.6489
 20
18.8406
 11
-96.8429
 21
18.2434
  0
LINE
  8
0
 10
-96.8429
 20
18.2434
 11
-96.9606
 21
17.6267
  0
LINE
  8
0
 10
-96.9606
 20
17.6267
 11
-97
 21
17
  0
LINE
  8
0
 10
-97
 20
17
 11
-97
 21
-17
  0
LINE
  8
0
 10
-97
 20
-17
 11
-96.9606
 21
-17.6267
  0
LINE
  8
0
 10
-96.9606
 20
-17.6267
 11
-96.8429
 21
-18.2434
  0
LINE
  8
0
 10
-96.8429
 20
-18.2434
 11
-96.6489
 21
-18.8406
  0
LINE
  8
0
 10
-96.6489
 20
-18.8406
 11
-96.3815
 21
-19.4088
  0
LINE
  8
0
 10
-96.3815
 20
-19.4088
 11
-96.0451
 21
-19.9389
  0
LINE
  8
0
 10
-96.0451
 20
-19.9389
 11
-95.6448
 21
-20.4227
  0
LINE
  8
0
 10
-95.6448
 20
-20.4227
 11
-95.1871
 21
-20.8526
  0
LINE
  8
0
 10
-95.1871
 20
-20.8526
 11
-94.6791
 21
-21.2216
  0
LINE
  8
0
 10
-94.6791
 20
-21.2216
 11
-94.1289
 21
-21.5241
  0
LINE
  8
0
 10
-94.1289
 20
-21.5241
 11
-93.5451
 21
-21.7553
  0
LINE
  8
0
 10
-93.5451
 20
-21.7553
 11
-92.9369
 21
-21.9114
  0
LINE
  8
0
 10
-92.9369
 20
-21.9114
 11
-92.3139
 21
-21.9901
  0
LINE
  8
0
 10
-92.3139
 20
-21.9901
 11
92.3139
 21
-21.9901
  0
LINE
  8
0
 10
92.3139
 20
-21.9901
 11
92.9369
 21
-21.9114
  0
LINE
  8
0
 10
-90.1884
 20
12.0059
 11
-90.5621
 21
12.0531
  0
LINE
  8
0
 10
-90.5621
 20
12.0531
 11
-90.927
 21
12.1468
  0
LINE
  8
0
 10
-90.927
 20
12.1468
 11
-91.2773
 21
12.2855
  0
LINE
  8
0
 10
-91.2773
 20
12.2855
 11
-91.6075
 21
12.467
  0
LINE
  8
0
 10
-91.6075
 20
12.467
 11
-91.9123
 21
12.6884
  0
LINE
  8
0
 10
-91.9123
 20
12.6884
 11
-92.1869
 21
12.9464
  0
LINE
  8
0
 10
-92.1869
 20
12.9464
 11
-92.427
 21
13.2366
  0
LINE
  8
0
 10
-92.427
 20
13.2366
 11
-92.6289
 21
13.5547
  0
LINE
  8
0
 10
-92.6289
 20
13.5547
 11
-92.7893
 21
13.8956
  0
LINE
  8
0
 10
-92.7893
 20
13.8956
 11
-92.9057
 21
14.2539
  0
LINE
  8
0
 10
-92.9057
 20
14.2539
 11
-92.9763
 21
14.624
  0
LINE
  8
0
 10
-92.9763
 20
14.624
 11
-93
 21
15
  0
LINE
  8
0
 10
-93
 20
15
 11
-92.9763
 21
15.376
  0
LINE
  8
0
 10
-92.9763
 20
15.376
 11
-92.9057
 21
15.7461
  0
LINE
  8
0
 10
-92.9057
 20
15.7461
 11
-92.7893
 21
16.1044
  0
LINE
  8
0
 10
-92.7893
 20
16.1044
 11
-92.6289
 21
16.4453
  0
LINE
  8
0
 10
-92.6289
 20
16.4453
 11
-92.427
 21
16.7634
  0
LINE
  8
0
 10
-92.427
 20
16.7634
 11
-92.1869
 21
17.0536
  0
LINE
  8
0
 10
-92.1869
 20
17.0536
 11
-91.9123
 21
17.3115
  0
LINE
  8
0
 10
-91.9123
 20
17.3115
 11
-91.6075
 21
17.533
  0
LINE
  8
0
 10
-91.6075
 20
17.533
 11
-91.2773
 21
17.7145
  0
LINE
  8
0
 10
-91.2773
 20
17.7145
 11
-90.927
 21
17.8532
  0
LINE
  8
0
 10
-90.927
 20
17.8532
 11
-90.5621
 21
17.9469
  0
LINE
  8
0
 10
-90.5621
 20
17.9469
 11
-90.1884
 21
17.9941
  0
LINE
  8
0
 10
-90.1884
 20
17.9941
 11
-89.8116
 21
17.9941
  0
LINE
  8
0
 10
-89.8116
 20
17.9941
 11
-89.4379
 21
17.9469
  0
LINE
  8
0
 10
-89.4379
 20
17.9469
 11
-89.073
 21
17.8532
  0
LINE
  8
0
 10
-89.073
 20
17.8532
 11
-88.7227
 21
17.7145
  0
LINE
  8
0
 10
-88.7227
 20
17.7145
 11
-88.3925
 21
17.533
  0
LINE
  8
0
 10
-88.3925
 20
17.533
 11
-88.0877
 21
17.3115
  0
LINE
  8
0
 10
-88.0877
 20
17.3115
 11
-87.8131
 21
17.0536
  0
LINE
  8
0
 10
-87.8131
 20
17.0536
 11
-87.573
 21
16.7634
  0
LINE
  8
0
 10
-87.573
 20
16.7634
 11
-87.3711
 21
16.4453
  0
LINE
  8
0
 10
-87.3711
 20
16.4453
 11
-87.2107
 21
16.1044
  0
LINE
  8
0
 10
-87.2107
 20
16.1044
 11
-87.0943
 21
15.7461
  0
LINE
  8
0
 10
-87.0943
 20
15.7461
 11
-87.0237
 21
15.376
  0
LINE
  8
0
 10
-87.0237
 20
15.376
 11
-87
 21
15
  0
LINE
  8
0
 10
-87
 20
15
 11
-87.0237
 21
14.624
  0
LINE
  8
0
 10
-87.0237
 20
14.624
 11
-87.0943
 21
14.2539
  0
LINE
  8
0
 10
-87.0943
 20
14.2539
 11
-87.2107
 21
13.8956
  0
LINE
  8
0
 10
-87.2107
 20
13.8956
 11
-87.3711
 21
13.5547
  0
LINE
  8
0
 10
-87.3711
 20
13.5547
 11
-87.573
 21
13.2366
  0
LINE
  8
0
 10
-87.573
 20
13.2366
 11
-87.8131
 21
12.9464
  0
LINE
  8
0
 10
-87.8131
 20
12.9464
 11
-88.0877
 21
12.6884
  0
LINE
  8
0
 10
-88.0877
 20
12.6884
 11
-88.3925
 21
12.467
  0
LINE
  8
0
 10
-88.3925
 20
12.467
 11
-88.7227
 21
12.2855
  0
LINE
  8
0
 10
-88.7227
 20
12.2855
 11
-89.073
 21
12.1468
  0
LINE
  8
0
 10
-89.073
 20
12.1468
 11
-89.4379
 21
12.0531
  0
LINE
  8
0
 10
-89.4379
 20
12.0531
 11
-89.8116
 21
12.0059
  0
LINE
  8
0
 10
-89.8116
 20
12.0059
 11
-90.1884
 21
12.0059
  0
LINE
  8
0
 10
89.8116
 20
12.0059
 11
89.4379
 21
12.0531
  0
LINE
  8
0
 10
89.4379
 20
12.0531
 11
89.073
 21
12.1468
  0
LINE
  8
0
 10
89.073
 20
12.1468
 11
88.7227
 21
12.2855
  0
LINE
  8
0
 10
88.7227
 20
12.2855
 11
88.3925
 21
12.467
  0
LINE
  8
0
 10
88.3925
 20
12.467
 11
88.0877
 21
12.6884
  0
LINE
  8
0
 10
88.0877
 20
12.6884
 11
87.8131
 21
12.9464
  0
LINE
  8
0
 10
87.8131
 20
12.9464
 11
87.573
 21
13.2366
  0
LINE
  8
0
 10
87.573
 20
13.2366
 11
87.3711
 21
13.5547
  0
LINE
  8
0
 10
87.3711
 20
13.5547
 11
87.2107
 21
13.8956
  0
LINE
  8
0
 10
87.2107
 20
13.8956
 11
87.0943
 21
14.2539
  0
LINE
  8
0
 10
87.0943
 20
14.2539
 11
87.0237
 21
14.624
  0
LINE
  8
0
 10
87.0237
 20
14.624
 11
87
 21
15
  0
LINE
  8
0
 10
87
 20
15
 11
87.0237
 21
15.376
  0
LINE
  8
0
 10
87.0237
 20
15.376
 11
87.0943
 21
15.7461
  0
LINE
  8
0
 10
87.0943
 20
15.7461
 11
87.2107
 21
16.1044
  0
LINE
  8
0
 10
87.2107
 20
16.1044
 11
87.3711
 21
16.4453
  0
LINE
  8
0
 10
87.3711
 20
16.4453
 11
87.573
 21
16.7634
  0
LINE
  8
0
 10
87.573
 20
16.7634
 11
87.8131
 21
17.0536
  0
LINE
  8
0
 10
87.8131
 20
17.0536
 11
88.0877
 21
17.3115
  0
LINE
  8
0
 10
88.0877
 20
17.3115
 11
88.3925
 21
17.533
  0
LINE
  8
0
 10
88.3925
 20
17.533
 11
88.7227
 21
17.7145
  0
LINE
  8
0
 10
88.7227
 20
17.7145
 11
89.073
 21
17.8532
  0
LINE
  8
0
 10
89.073
 20
17.8532
 11
89.4379
 21
17.9469
  0
LINE
  8
0
 10
89.4379
 20
17.9469
 11
89.8116
 21
17.9941
  0
LINE
  8
0
 10
89.8116
 20
17.9941
 11
90.1884
 21
17.9941
  0
LINE
  8
0
 10
90.1884
 20
17.9941
 11
90.5621
 21
17.9469
  0
LINE
  8
0
 10
90.5621
 20
17.9469
 11
90.927
 21
17.8532
  0
LINE
  8
0
 10
90.927
 20
17.8532
 11
91.2773
 21
17.7145
  0
LINE
  8
0
 10
91.2773
 20
17.7145
 11
91.6075
 21
17.533
  0
LINE
  8
0
 10
91.6075
 20
17.533
 11
91.9123
 21
17.3115
  0
LINE
  8
0
 10
91.9123
 20
17.3115
 11
92.1869
 21
17.0536
  0
LINE
  8
0
 10
92.1869
 20
17.0536
 11
92.427
 21
16.7634
  0
LINE
  8
0
 10
92.427
 20
16.7634
 11
92.6289
 21
16.4453
  0
LINE
  8
0
 10
92.6289
 20
16.4453
 11
92.7893
 21
16.1044
  0
LINE
  8
0
 10
92.7893
 20
16.1044
 11
92.9057
 21
15.7461
  0
LINE
  8
0
 10
92.9057
 20
15.7461
 11
92.9763
 21
15.376
  0
LINE
  8
0
 10
92.9763
 20
15.376
 11
93
 21
15
  0
LINE
  8
0
 10
93
 20
15
 11
92.9763
 21
14.624
  0
LINE
  8
0
 10
92.9763
 20
14.624
 11
92.9057
 21
14.2539
  0
LINE
  8
0
 10
92.9057
 20
14.2539
 11
92.7893
 21
13.8956
  0
LINE
  8
0
 10
92.7893
 20
13.8956
 11
92.6289
 21
13.5547
  0
LINE
  8
0
 10
92.6289
 20
13.5547
 11
92.427
 21
13.2366
  0
LINE
  8
0
 10
92.427
 20
13.2366
 11
92.1869
 21
12.9464
  0
LINE
  8
0
 10
92.1869
 20
12.9464
 11
91.9123
 21
12.6884
  0
LINE
  8
0
 10
91.9123
 20
12.6884
 11
91.6075
 21
12.467
  0
LINE
  8
0
 10
91.6075
 20
12.467
 11
91.2773
 21
12.2855
  0
LINE
  8
0
 10
91.2773
 20
12.2855
 11
90.927
 21
12.1468
  0
LINE
  8
0
 10
90.927
 20
12.1468
 11
90.5621
 21
12.0531
  0
LINE
  8
0
 10
90.5621
 20
12.0531
 11
90.1884
 21
12.0059
  0
LINE
  8
0
 10
90.1884
 20
12.0059
 11
89.8116
 21
12.0059
  0
LINE
  8
0
 10
74.964
 20
-16.4674
 11
72.9082
 21
-16.2077
  0
LINE
  8
0
 10
72.9082
 20
-16.2077
 11
70.9012
 21
-15.6924
  0
LINE
  8
0
 10
70.9012
 20
-15.6924
 11
68.9746
 21
-14.9296
  0
LINE
  8
0
 10
68.9746
 20
-14.9296
 11
67.1589
 21
-13.9314
  0
LINE
  8
0
 10
67.1589
 20
-13.9314
 11
65.4825
 21
-12.7135
  0
LINE
  8
0
 10
65.4825
 20
-12.7135
 11
63.972
 21
-11.295
  0
LINE
  8
0
 10
63.972
 20
-11.295
 11
62.6512
 21
-9.69846
  0
LINE
  8
0
 10
62.6512
 20
-9.69846
 11
61.5409
 21
-7.94893
  0
LINE
  8
0
 10
61.5409
 20
-7.94893
 11
60.6587
 21
-6.07405
  0
LINE
  8
0
 10
60.6587
 20
-6.07405
 11
60.0184
 21
-4.10338
  0
LINE
  8
0
 10
60.0184
 20
-4.10338
 11
59.6301
 21
-2.06799
  0
LINE
  8
0
 10
59.6301
 20
-2.06799
 11
59.5
 21
0
  0
LINE
  8
0
 10
59.5
 20
0
 11
59.6301
 21
2.06799
  0
LINE
  8
0
 10
59.6301
 20
2.06799
 11
60.0184
 21
4.10338
  0
LINE
  8
0
 10
60.0184
 20
4.10338
 11
60.6587
 21
6.07405
  0
LINE
  8
0
 10
60.6587
 20
6.07405
 11
61.5409
 21
7.94893
  0
LINE
  8
0
 10
61.5409
 20
7.94893
 11
62.6512
 21
9.69846
  0
LINE
  8
0
 10
62.6512
 20
9.69846
 11
63.972
 21
11.295
  0
LINE
  8
0
 10
63.972
 20
11.295
 11
65.4825
 21
12.7135
  0
LINE
  8
0
 10
65.4825
 20
12.7135
 11
67.1589
 21
13.9314
  0
LINE
  8
0
 10
67.1589
 20
13.9314
 11
68.9746
 21
14.9296
  0
LINE
  8
0
 10
68.9746
 20
14.9296
 11
70.9012
 21
15.6924
  0
LINE
  8
0
 10
70.9012
 20
15.6924
 11
72.9082
 21
16.2077
  0
LINE
  8
0
 10
72.9082
 20
16.2077
 11
74.964
 21
16.4674
  0
LINE
  8
0
 10
74.964
 20
16.4674
 11
77.036
 21
16.4674
  0
LINE
  8
0
 10
77.036
 20
16.4674
 11
79.0918
 21
16.2077
  0
LINE
  8
0
 10
79.0918
 20
16.2077
 11
81.0988
 21
15.6924
  0
LINE
  8
0
 10
81.0988
 20
15.6924
 11
83.0254
 21
14.9296
  0
LINE
  8
0
 10
83.0254
 20
14.9296
 11
84.8411
 21
13.9314
  0
LINE
  8
0
 10
84.8411
 20
13.9314
 11
86.5175
 21
12.7135
  0
LINE
  8
0
 10
86.5175
 20
12.7135
 11
88.028
 21
11.295
  0
LINE
  8
0
 10
88.028
 20
11.295
 11
89.3488
 21
9.69846
  0
LINE
  8
0
 10
89.3488
 20
9.69846
 11
90.4591
 21
7.94893
  0
LINE
  8
0
 10
90.4591
 20
7.94893
 11
91.3413
 21
6.07405
  0
LINE
  8
0
 10
91.3413
 20
6.07405
 11
91.9816
 21
4.10338
  0
LINE
  8
0
 10
91.9816
 20
4.10338
 11
92.3699
 21
2.06799
  0
LINE
  8
0
 10
92.3699
 20
2.06799
 11
92.5
 21
0
  0
LINE
  8
0
 10
92.5
 20
0
 11
92.3699
 21
-2.06799
  0
LINE
  8
0
 10
92.3699
 20
-2.06799
 11
91.9816
 21
-4.10338
  0
LINE
  8
0
 10
91.9816
 20
-4.10338
 11
91.3413
 21
-6.07405
  0
LINE
  8
0
 10
91.3413
 20
-6.07405
 11
90.4591
 21
-7.94893
  0
LINE
  8
0
 10
90.4591
 20
-7.94893
 11
89.3488
 21
-9.69846
  0
LINE
  8
0
 10
89.3488
 20
-9.69846
 11
88.028
 21
-11.295
  0
LINE
  8
0
 10
88.028
 20
-11.295
 11
86.5175
 21
-12.7135
  0
LINE
  8
0
 10
86.5175
 20
-12.7135
 11
84.8411
 21
-13.9314
  0
LINE
  8
0
 10
84.8411
 20
-13.9314
 11
83.0254
 21
-14.9296
  0
LINE
  8
0
 10
83.0254
 20
-14.9296
 11
81.0988
 21
-15.6924
  0
LINE
  8
0
 10
81.0988
 20
-15.6924
 11
79.0918
 21
-16.2077
  0
LINE
  8
0
 10
79.0918
 20
-16.2077
 11
77.036
 21
-16.4674
  0
LINE
  8
0
 10
77.036
 20
-16.4674
 11
74.964
 21
-16.4674
  0
LINE
  8
0
 10
36.9639
 20
-16.4674
 11
34.9082
 21
-16.2077
  0
LINE
  8
0
 10
34.9082
 20
-16.2077
 11
32.9012
 21
-15.6924
  0
LINE
  8
0
 10
32.9012
 20
-15.6924
 11
30.9746
 21
-14.9296
  0
LINE
  8
0
 10
30.9746
 20
-14.9296
 11
29.1588
 21
-13.9314
  0
LINE
  8
0
 10
29.1588
 20
-13.9314
 11
27.4825
 21
-12.7135
  0
LINE
  8
0
 10
27.4825
 20
-12.7135
 11
25.972
 21
-11.295
  0
LINE
  8
0
 10
25.972
 20
-11.295
 11
24.6512
 21
-9.69846
  0
LINE
  8
0
 10
24.6512
 20
-9.69846
 11
23.5409
 21
-7.94893
  0
LINE
  8
0
 10
23.5409
 20
-7.94893
 11
22.6587
 21
-6.07405
  0
LINE
  8
0
 10
22.6587
 20
-6.07405
 11
22.0184
 21
-4.10338
  0
LINE
  8
0
 10
22.0184
 20
-4.10338
 11
21.6301
 21
-2.06799
  0
LINE
  8
0
 10
21.6301
 20
-2.06799
 11
21.5
 21
0
  0
LINE
  8
0
 10
21.5
 20
0
 11
21.6301
 21
2.06799
  0
LINE
  8
0
 10
21.6301
 20
2.06799
 11
22.0184
 21
4.10338
  0
LINE
  8
0
 10
22.0184
 20
4.10338
 11
22.6587
 21
6.07405
  0
LINE
  8
0
 10
22.6587
 20
6.07405
 11
23.5409
 21
7.94893
  0
LINE
  8
0
 10
23.5409
 20
7.94893
 11
24.6512
 21
9.69846
  0
LINE
  8
0
 10
24.6512
 20
9.69846
 11
25.972
 21
11.295
  0
LINE
  8
0
 10
25.972
 20
11.295
 11
27.4825
 21
12.7135
  0
LINE
  8
0
 10
27.4825
 20
12.7135
 11
29.1588
 21
13.9314
  0
LINE
  8
0
 10
29.1588
 20
13.9314
 11
30.9746
 21
14.9296
  0
LINE
  8
0
 10
30.9746
 20
14.9296
 11
32.9012
 21
15.6924
  0
LINE
  8
0
 10
32.9012
 20
15.6924
 11
34.9082
 21
16.2077
  0
LINE
  8
0
 10
34.9082
 20
16.2077
 11
36.9639
 21
16.4674
  0
LINE
  8
0
 10
36.9639
 20
16.4674
 11
39.036
 21
16.4674
  0
LINE
  8
0
 10
39.036
 20
16.4674
 11
41.0918
 21
16.2077
  0
LINE
  8
0
 10
41.0918
 20
16.2077
 11
43.0988
 21
15.6924
  0
LINE
  8
0
 10
43.0988
 20
15.6924
 11
45.0254
 21
14.9296
  0
LINE
  8
0
 10
45.0254
 20
14.9296
 11
46.8411
 21
13.9314
  0
LINE
  8
0
 10
46.8411
 20
13.9314
 11
48.5175
 21
12.7135
  0
LINE
  8
0
 10
48.5175
 20
12.7135
 11
50.028
 21
11.295
  0
LINE
  8
0
 10
50.028
 20
11.295
 11
51.3488
 21
9.69846
  0
LINE
  8
0
 10
51.3488
 20
9.69846
 11
52.4591
 21
7.94893
  0
LINE
  8
0
 10
52.4591
 20
7.94893
 11
53.3413
 21
6.07405
  0
LINE
  8
0
 10
53.3413
 20
6.07405
 11
53.9816
 21
4.10338
  0
LINE
  8
0
 10
53.9816
 20
4.10338
 11
54.3699
 21
2.06799
  0
LINE
  8
0
 10
54.3699
 20
2.06799
 11
54.5
 21
0
  0
LINE
  8
0
 10
54.5
 20
0
 11
54.3699
 21
-2.06799
  0
LINE
  8
0
 10
54.3699
 20
-2.06799
 11
53.9816
 21
-4.10338
  0
LINE
  8
0
 10
53.9816
 20
-4.10338
 11
53.3413
 21
-6.07405
  0
LINE
  8
0
 10
53.3413
 20
-6.07405
 11
52.4591
 21
-7.94893
  0
LINE
  8
0
 10
52.4591
 20
-7.94893
 11
51.3488
 21
-9.69846
  0
LINE
  8
0
 10
51.3488
 20
-9.69846
 11
50.028
 21
-11.295
  0
LINE
  8
0
 10
50.028
 20
-11.295
 11
48.5175
 21
-12.7135
  0
LINE
  8
0
 10
48.5175
 20
-12.7135
 11
46.8411
 21
-13.9314
  0
LINE
  8
0
 10
46.8411
 20
-13.9314
 11
45.0254
 21
-14.9296
  0
LINE
  8
0
 10
45.0254
 20
-14.9296
 11
43.0988
 21
-15.6924
  0
LINE
  8
0
 10
43.0988
 20
-15.6924
 11
41.0918
 21
-16.2077
  0
LINE
  8
0
 10
41.0918
 20
-16.2077
 11
39.036
 21
-16.4674
  0
LINE
  8
0
 10
39.036
 20
-16.4674
 11
36.9639
 21
-16.4674
  0
LINE
  8
0
 10
-77.036
 20
-16.4674
 11
-79.0918
 21
-16.2077
  0
LINE
  8
0
 10
-79.0918
 20
-16.2077
 11
-81.0988
 21
-15.6924
  0
LINE
  8
0
 10
-81.0988
 20
-15.6924
 11
-83.0254
 21
-14.9296
  0
LINE
  8
0
 10
-83.0254
 20
-14.9296
 11
-84.8411
 21
-13.9314
  0
LINE
  8
0
 10
-84.8411
 20
-13.9314
 11
-86.5175
 21
-12.7135
  0
LINE
  8
0
 10
-86.5175
 20
-12.7135
 11
-88.028
 21
-11.295
  0
LINE
  8
0
 10
-88.028
 20
-11.295
 11
-89.3488
 21
-9.69846
  0
LINE
  8
0
 10
-89.3488
 20
-9.69846
 11
-90.4591
 21
-7.94893
  0
LINE
  8
0
 10
-90.4591
 20
-7.94893
 11
-91.3413
 21
-6.07405
  0
LINE
  8
0
 10
-91.3413
 20
-6.07405
 11
-91.9816
 21
-4.10338
  0
LINE
  8
0
 10
-91.9816
 20
-4.10338
 11
-92.3699
 21
-2.06799
  0
LINE
  8
0
 10
-92.3699
 20
-2.06799
 11
-92.5
 21
0
  0
LINE
  8
0
 10
-92.5
 20
0
 11
-92.3699
 21
2.06799
  0
LINE
  8
0
 10
-92.3699
 20
2.06799
 11
-91.9816
 21
4.10338
  0
LINE
  8
0
 10
-91.9816
 20
4.10338
 11
-91.3413
 21
6.07405
  0
LINE
  8
0
 10
-91.3413
 20
6.07405
 11
-90.4591
 21
7.94893
  0
LINE
  8
0
 10
-90.4591
 20
7.94893
 11
-89.3488
 21
9.69846
  0
LINE
  8
0
 10
-89.3488
 20
9.69846
 11
-88.028
 21
11.295
  0
LINE
  8
0
 10
-88.028
 20
11.295
 11
-86.5175
 21
12.7135
  0
LINE
  8
0
 10
-86.5175
 20
12.7135
 11
-84.8411
 21
13.9314
  0
LINE
  8
0
 10
-84.8411
 20
13.9314
 11
-83.0254
 21
14.9296
  0
LINE
  8
0
 10
-83.0254
 20
14.9296
 11
-81.0988
 21
15.6924
  0
LINE
  8
0
 10
-81.0988
 20
15.6924
 11
-79.0918
 21
16.2077
  0
LINE
  8
0
 10
-79.0918
 20
16.2077
 11
-77.036
 21
16.4674
  0
LINE
  8
0
 10
-77.036
 20
16.4674
 11
-74.964
 21
16.4674
  0
LINE
  8
0
 10
-74.964
 20
16.4674
 11
-72.9082
 21
16.2077
  0
LINE
  8
0
 10
-72.9082
 20
16.2077
 11
-70.9012
 21
15.6924
  0
LINE
  8
0
 10
-70.9012
 20
15.6924
 11
-68.9746
 21
14.9296
  0
LINE
  8
0
 10
-68.9746
 20
14.9296
 11
-67.1589
 21
13.9314
  0
LINE
  8
0
 10
-67.1589
 20
13.9314
 11
-65.4825
 21
12.7135
  0
LINE
  8
0
 10
-65.4825
 20
12.7135
 11
-63.972
 21
11.295
  0
LINE
  8
0
 10
-63.972
 20
11.295
 11
-62.6512
 21
9.69846
  0
LINE
  8
0
 10
-62.6512
 20
9.69846
 11
-61.5409
 21
7.94893
  0
LINE
  8
0
 10
-61.5409
 20
7.94893
 11
-60.6587
 21
6.07405
  0
LINE
  8
0
 10
-60.6587
 20
6.07405
 11
-60.0184
 21
4.10338
  0
LINE
  8
0
 10
-60.0184
 20
4.10338
 11
-59.6301
 21
2.06799
  0
LINE
  8
0
 10
-59.6301
 20
2.06799
 11
-59.5
 21
0
  0
LINE
  8
0
 10
-59.5
 20
0
 11
-59.6301
 21
-2.06799
  0
LINE
  8
0
 10
-59.6301
 20
-2.06799
 11
-60.0184
 21
-4.10338
  0
LINE
  8
0
 10
-60.0184
 20
-4.10338
 11
-60.6587
 21
-6.07405
  0
LINE
  8
0
 10
-60.6587
 20
-6.07405
 11
-61.5409
 21
-7.94893
  0
LINE
  8
0
 10
-61.5409
 20
-7.94893
 11
-62.6512
 21
-9.69846
  0
LINE
  8
0
 10
-62.6512
 20
-9.69846
 11
-63.972
 21
-11.295
  0
LINE
  8
0
 10
-63.972
 20
-11.295
 11
-65.4825
 21
-12.7135
  0
LINE
  8
0
 10
-65.4825
 20
-12.7135
 11
-67.1589
 21
-13.9314
  0
LINE
  8
0
 10
-67.1589
 20
-13.9314
 11
-68.9746
 21
-14.9296
  0
LINE
  8
0
 10
-68.9746
 20
-14.9296
 11
-70.9012
 21
-15.6924
  0
LINE
  8
0
 10
-70.9012
 20
-15.6924
 11
-72.9082
 21
-16.2077
  0
LINE
  8
0
 10
-72.9082
 20
-16.2077
 11
-74.964
 21
-16.4674
  0
LINE
  8
0
 10
-74.964
 20
-16.4674
 11
-77.036
 21
-16.4674
  0
LINE
  8
0
 10
-1.03604
 20
-16.4674
 11
-3.09178
 21
-16.2077
  0
LINE
  8
0
 10
-3.09178
 20
-16.2077
 11
-5.09877
 21
-15.6924
  0
LINE
  8
0
 10
-5.09877
 20
-15.6924
 11
-7.02534
 21
-14.9296
  0
LINE
  8
0
 10
-7.02534
 20
-14.9296
 11
-8.84114
 21
-13.9314
  0
LINE
  8
0
 10
-8.84114
 20
-13.9314
 11
-10.5175
 21
-12.7135
  0
LINE
  8
0
 10
-10.5175
 20
-12.7135
 11
-12.028
 21
-11.295
  0
LINE
  8
0
 10
-12.028
 20
-11.295
 11
-13.3488
 21
-9.69846
  0
LINE
  8
0
 10
-13.3488
 20
-9.69846
 11
-14.459
 21
-7.94893
  0
LINE
  8
0
 10
-14.459
 20
-7.94893
 11
-15.3413
 21
-6.07405
  0
LINE
  8
0
 10
-15.3413
 20
-6.07405
 11
-15.9816
 21
-4.10338
  0
LINE
  8
0
 10
-15.9816
 20
-4.10338
 11
-16.3699
 21
-2.06799
  0
LINE
  8
0
 10
-16.3699
 20
-2.06799
 11
-16.5
 21
0
  0
LINE
  8
0
 10
-16.5
 20
0
 11
-16.3699
 21
2.06799
  0
LINE
  8
0
 10
-16.3699
 20
2.06799
 11
-15.9816
 21
4.10338
  0
LINE
  8
0
 10
-15.9816
 20
4.10338
 11
-15.3413
 21
6.07405
  0
LINE
  8
0
 10
-15.3413
 20
6.07405
 11
-14.459
 21
7.94893
  0
LINE
  8
0
 10
-14.459
 20
7.94893
 11
-13.3488
 21
9.69846
  0
LINE
  8
0
 10
-13.3488
 20
9.69846
 11
-12.028
 21
11.295
  0
LINE
  8
0
 10
-12.028
 20
11.295
 11
-10.5175
 21
12.7135
  0
LINE
  8
0
 10
-10.5175
 20
12.7135
 11
-8.84114
 21
13.9314
  0
LINE
  8
0
 10
-8.84114
 20
13.9314
 11
-7.02534
 21
14.9296
  0
LINE
  8
0
 10
-7.02534
 20
14.9296
 11
-5.09877
 21
15.6924
  0
LINE
  8
0
 10
-5.09877
 20
15.6924
 11
-3.09178
 21
16.2077
  0
LINE
  8
0
 10
-3.09178
 20
16.2077
 11
-1.03604
 21
16.4674
  0
LINE
  8
0
 10
-1.03604
 20
16.4674
 11
1.03604
 21
16.4674
  0
LINE
  8
0
 10
1.03604
 20
16.4674
 11
3.09178
 21
16.2077
  0
LINE
  8
0
 10
3.09178
 20
16.2077
 11
5.09877
 21
15.6924
  0
LINE
  8
0
 10
5.09877
 20
15.6924
 11
7.02534
 21
14.9296
  0
LINE
  8
0
 10
7.02534
 20
14.9296
 11
8.84114
 21
13.9314
  0
LINE
  8
0
 10
8.84114
 20
13.9314
 11
10.5175
 21
12.7135
  0
LINE
  8
0
 10
10.5175
 20
12.7135
 11
12.028
 21
11.295
  0
LINE
  8
0
 10
12.028
 20
11.295
 11
13.3488
 21
9.69846
  0
LINE
  8
0
 10
13.3488
 20
9.69846
 11
14.459
 21
7.94893
  0
LINE
  8
0
 10
14.459
 20
7.94893
 11
15.3413
 21
6.07405
  0
LINE
  8
0
 10
15.3413
 20
6.07405
 11
15.9816
 21
4.10338
  0
LINE
  8
0
 10
15.9816
 20
4.10338
 11
16.3699
 21
2.06799
  0
LINE
  8
0
 10
16.3699
 20
2.06799
 11
16.5
 21
0
  0
LINE
  8
0
 10
16.5
 20
0
 11
16.3699
 21
-2.06799
  0
LINE
  8
0
 10
16.3699
 20
-2.06799
 11
15.9816
 21
-4.10338
  0
LINE
  8
0
 10
15.9816
 20
-4.10338
 11
15.3413
 21
-6.07405
  0
LINE
  8
0
 10
15.3413
 20
-6.07405
 11
14.459
 21
-7.94893
  0
LINE
  8
0
 10
14.459
 20
-7.94893
 11
13.3488
 21
-9.69846
  0
LINE
  8
0
 10
13.3488
 20
-9.69846
 11
12.028
 21
-11.295
  0
LINE
  8
0
 10
12.028
 20
-11.295
 11
10.5175
 21
-12.7135
  0
LINE
  8
0
 10
10.5175
 20
-12.7135
 11
8.84114
 21
-13.9314
  0
LINE
  8
0
 10
8.84114
 20
-13.9314
 11
7.02534
 21
-14.9296
  0
LINE
  8
0
 10
7.02534
 20
-14.9296
 11
5.09877
 21
-15.6924
  0
LINE
  8
0
 10
5.09877
 20
-15.6924
 11
3.09178
 21
-16.2077
  0
LINE
  8
0
 10
3.09178
 20
-16.2077
 11
1.03604
 21
-16.4674
  0
LINE
  8
0
 10
1.03604
 20
-16.4674
 11
-1.03604
 21
-16.4674
  0
LINE
  8
0
 10
-39.036
 20
-16.4674
 11
-41.0918
 21
-16.2077
  0
LINE
  8
0
 10
-41.0918
 20
-16.2077
 11
-43.0988
 21
-15.6924
  0
LINE
  8
0
 10
-43.0988
 20
-15.6924
 11
-45.0254
 21
-14.9296
  0
LINE
  8
0
 10
-45.0254
 20
-14.9296
 11
-46.8411
 21
-13.9314
  0
LINE
  8
0
 10
-46.8411
 20
-13.9314
 11
-48.5175
 21
-12.7135
  0
LINE
  8
0
 10
-48.5175
 20
-12.7135
 11
-50.028
 21
-11.295
  0
LINE
  8
0
 10
-50.028
 20
-11.295
 11
-51.3488
 21
-9.69846
  0
LINE
  8
0
 10
-51.3488
 20
-9.69846
 11
-52.4591
 21
-7.94893
  0
LINE
  8
0
 10
-52.4591
 20
-7.94893
 11
-53.3413
 21
-6.07405
  0
LINE
  8
0
 10
-53.3413
 20
-6.07405
 11
-53.9816
 21
-4.10338
  0
LINE
  8
0
 10
-53.9816
 20
-4.10338
 11
-54.3699
 21
-2.06799
  0
LINE
  8
0
 10
-54.3699
 20
-2.06799
 11
-54.5
 21
0
  0
LINE
  8
0
 10
-54.5
 20
0
 11
-54.3699
 21
2.06799
  0
LINE
  8
0
 10
-54.3699
 20
2.06799
 11
-53.9816
 21
4.10338
  0
LINE
  8
0
 10
-53.9816
 20
4.10338
 11
-53.3413
 21
6.07405
  0
LINE
  8
0
 10
-53.3413
 20
6.07405
 11
-52.4591
 21
7.94893
  0
LINE
  8
0
 10
-52.4591
 20
7.94893
 11
-51.3488
 21
9.69846
  0
LINE
  8
0
 10
-51.3488
 20
9.69846
 11
-50.028
 21
11.295
  0
LINE
  8
0
 10
-50.028
 20
11.295
 11
-48.5175
 21
12.7135
  0
LINE
  8
0
 10
-48.5175
 20
12.7135
 11
-46.8411
 21
13.9314
  0
LINE
  8
0
 10
-46.8411
 20
13.9314
 11
-45.0254
 21
14.9296
  0
LINE
  8
0
 10
-45.0254
 20
14.9296
 11
-43.0988
 21
15.6924
  0
LINE
  8
0
 10
-43.0988
 20
15.6924
 11
-41.0918
 21
16.2077
  0
LINE
  8
0
 10
-41.0918
 20
16.2077
 11
-39.036
 21
16.4674
  0
LINE
  8
0
 10
-39.036
 20
16.4674
 11
-36.9639
 21
16.4674
  0
LINE
  8
0
 10
-36.9639
 20
16.4674
 11
-34.9082
 21
16.2077
  0
LINE
  8
0
 10
-34.9082
 20
16.2077
 11
-32.9012
 21
15.6924
  0
LINE
  8
0
 10
-32.9012
 20
15.6924
 11
-30.9746
 21
14.9296
  0
LINE
  8
0
 10
-30.9746
 20
14.9296
 11
-29.1588
 21
13.9314
  0
LINE
  8
0
 10
-29.1588
 20
13.9314
 11
-27.4825
 21
12.7135
  0
LINE
  8
0
 10
-27.4825
 20
12.7135
 11
-25.972
 21
11.295
  0
LINE
  8
0
 10
-25.972
 20
11.295
 11
-24.6512
 21
9.69846
  0
LINE
  8
0
 10
-24.6512
 20
9.69846
 11
-23.5409
 21
7.94893
  0
LINE
  8
0
 10
-23.5409
 20
7.94893
 11
-22.6587
 21
6.07405
  0
LINE
  8
0
 10
-22.6587
 20
6.07405
 11
-22.0184
 21
4.10338
  0
LINE
  8
0
 10
-22.0184
 20
4.10338
 11
-21.6301
 21
2.06799
  0
LINE
  8
0
 10
-21.6301
 20
2.06799
 11
-21.5
 21
0
  0
LINE
  8
0
 10
-21.5
 20
0
 11
-21.6301
 21
-2.06799
  0
LINE
  8
0
 10
-21.6301
 20
-2.06799
 11
-22.0184
 21
-4.10338
  0
LINE
  8
0
 10
-22.0184
 20
-4.10338
 11
-22.6587
 21
-6.07405
  0
LINE
  8
0
 10
-22.6587
 20
-6.07405
 11
-23.5409
 21
-7.94893
  0
LINE
  8
0
 10
-23.5409
 20
-7.94893
 11
-24.6512
 21
-9.69846
  0
LINE
  8
0
 10
-24.6512
 20
-9.69846
 11
-25.972
 21
-11.295
  0
LINE
  8
0
 10
-25.972
 20
-11.295
 11
-27.4825
 21
-12.7135
  0
LINE
  8
0
 10
-27.4825
 20
-12.7135
 11
-29.1588
 21
-13.9314
  0
LINE
  8
0
 10
-29.1588
 20
-13.9314
 11
-30.9746
 21
-14.9296
  0
LINE
  8
0
 10
-30.9746
 20
-14.9296
 11
-32.9012
 21
-15.6924
  0
LINE
  8
0
 10
-32.9012
 20
-15.6924
 11
-34.9082
 21
-16.2077
  0
LINE
  8
0
 10
-34.9082
 20
-16.2077
 11
-36.9639
 21
-16.4674
  0
LINE
  8
0
 10
-36.9639
 20
-16.4674
 11
-39.036
 21
-16.4674
  0
LINE
  8
0
 10
89.8116
 20
-17.9941
 11
89.4379
 21
-17.9469
  0
LINE
  8
0
 10
89.4379
 20
-17.9469
 11
89.073
 21
-17.8532
  0
LINE
  8
0
 10
89.073
 20
-17.8532
 11
88.7227
 21
-17.7145
  0
LINE
  8
0
 10
88.7227
 20
-17.7145
 11
88.3925
 21
-17.533
  0
LINE
  8
0
 10
88.3925
 20
-17.533
 11
88.0877
 21
-17.3115
  0
LINE
  8
0
 10
88.0877
 20
-17.3115
 11
87.8131
 21
-17.0536
  0
LINE
  8
0
 10
87.8131
 20
-17.0536
 11
87.573
 21
-16.7634
  0
LINE
  8
0
 10
87.573
 20
-16.7634
 11
87.3711
 21
-16.4453
  0
LINE
  8
0
 10
87.3711
 20
-16.4453
 11
87.2107
 21
-16.1044
  0
LINE
  8
0
 10
87.2107
 20
-16.1044
 11
87.0943
 21
-15.7461
  0
LINE
  8
0
 10
87.0943
 20
-15.7461
 11
87.0237
 21
-15.376
  0
LINE
  8
0
 10
87.0237
 20
-15.376
 11
87
 21
-15
  0
LINE
  8
0
 10
87
 20
-15
 11
87.0237
 21
-14.624
  0
LINE
  8
0
 10
87.0237
 20
-14.624
 11
87.0943
 21
-14.2539
  0
LINE
  8
0
 10
87.0943
 20
-14.2539
 11
87.2107
 21
-13.8956
  0
LINE
  8
0
 10
87.2107
 20
-13.8956
 11
87.3711
 21
-13.5547
  0
LINE
  8
0
 10
87.3711
 20
-13.5547
 11
87.573
 21
-13.2366
  0
LINE
  8
0
 10
87.573
 20
-13.2366
 11
87.8131
 21
-12.9464
  0
LINE
  8
0
 10
87.8131
 20
-12.9464
 11
88.0877
 21
-12.6884
  0
LINE
  8
0
 10
88.0877
 20
-12.6884
 11
88.3925
 21
-12.467
  0
LINE
  8
0
 10
88.3925
 20
-12.467
 11
88.7227
 21
-12.2855
  0
LINE
  8
0
 10
88.7227
 20
-12.2855
 11
89.073
 21
-12.1468
  0
LINE
  8
0
 10
89.073
 20
-12.1468
 11
89.4379
 21
-12.0531
  0
LINE
  8
0
 10
89.4379
 20
-12.0531
 11
89.8116
 21
-12.0059
  0
LINE
  8
0
 10
89.8116
 20
-12.0059
 11
90.1884
 21
-12.0059
  0
LINE
  8
0
 10
90.1884
 20
-12.0059
 11
90.5621
 21
-12.0531
  0
LINE
  8
0
 10
90.5621
 20
-12.0531
 11
90.927
 21
-12.1468
  0
LINE
  8
0
 10
90.927
 20
-12.1468
 11
91.2773
 21
-12.2855
  0
LINE
  8
0
 10
91.2773
 20
-12.2855
 11
91.6075
 21
-12.467
  0
LINE
  8
0
 10
91.6075
 20
-12.467
 11
91.9123
 21
-12.6884
  0
LINE
  8
0
 10
91.9123
 20
-12.6884
 11
92.1869
 21
-12.9464
  0
LINE
  8
0
 10
92.1869
 20
-12.9464
 11
92.427
 21
-13.2366
  0
LINE
  8
0
 10
92.427
 20
-13.2366
 11
92.6289
 21
-13.5547
  0
LINE
  8
0
 10
92.6289
 20
-13.5547
 11
92.7893
 21
-13.8956
  0
LINE
  8
0
 10
92.7893
 20
-13.8956
 11
92.9057
 21
-14.2539
  0
LINE
  8
0
 10
92.9057
 20
-14.2539
 11
92.9763
 21
-14.624
  0
LINE
  8
0
 10
92.9763
 20
-14.624
 11
93
 21
-15
  0
LINE
  8
0
 10
93
 20
-15
 11
92.9763
 21
-15.376
  0
LINE
  8
0
 10
92.9763
 20
-15.376
 11
92.9057
 21
-15.7461
  0
LINE
  8
0
 10
92.9057
 20
-15.7461
 11
92.7893
 21
-16.1044
  0
LINE
  8
0
 10
92.7893
 20
-16.1044
 11
92.6289
 21
-16.4453
  0
LINE
  8
0
 10
92.6289
 20
-16.4453
 11
92.427
 21
-16.7634
  0
LINE
  8
0
 10
92.427
 20
-16.7634
 11
92.1869
 21
-17.0536
  0
LINE
  8
0
 10
92.1869
 20
-17.0536
 11
91.9123
 21
-17.3115
  0
LINE
  8
0
 10
91.9123
 20
-17.3115
 11
91.6075
 21
-17.533
  0
LINE
  8
0
 10
91.6075
 20
-17.533
 11
91.2773
 21
-17.7145
  0
LINE
  8
0
 10
91.2773
 20
-17.7145
 11
90.927
 21
-17.8532
  0
LINE
  8
0
 10
90.927
 20
-17.8532
 11
90.5621
 21
-17.9469
  0
LINE
  8
0
 10
90.5621
 20
-17.9469
 11
90.1884
 21
-17.9941
  0
LINE
  8
0
 10
90.1884
 20
-17.9941
 11
89.8116
 21
-17.9941
  0
LINE
  8
0
 10
-90.1884
 20
-17.9941
 11
-90.5621
 21
-17.9469
  0
LINE
  8
0
 10
-90.5621
 20
-17.9469
 11
-90.927
 21
-17.8532
  0
LINE
  8
0
 10
-90.927
 20
-17.8532
 11
-91.2773
 21
-17.7145
  0
LINE
  8
0
 10
-91.2773
 20
-17.7145
 11
-91.6075
 21
-17.533
  0
LINE
  8
0
 10
-91.6075
 20
-17.533
 11
-91.9123
 21
-17.3115
  0
LINE
  8
0
 10
-91.9123
 20
-17.3115
 11
-92.1869
 21
-17.0536
  0
LINE
  8
0
 10
-92.1869
 20
-17.0536
 11
-92.427
 21
-16.7634
  0
LINE
  8
0
 10
-92.427
 20
-16.7634
 11
-92.6289
 21
-16.4453
  0
LINE
  8
0
 10
-92.6289
 20
-16.4453
 11
-92.7893
 21
-16.1044
  0
LINE
  8
0
 10
-92.7893
 20
-16.1044
 11
-92.9057
 21
-15.7461
  0
LINE
  8
0
 10
-92.9057
 20
-15.7461
 11
-92.9763
 21
-15.376
  0
LINE
  8
0
 10
-92.9763
 20
-15.376
 11
-93
 21
-15
  0
LINE
  8
0
 10
-93
 20
-15
 11
-92.9763
 21
-14.624
  0
LINE
  8
0
 10
-92.9763
 20
-14.624
 11
-92.9057
 21
-14.2539
  0
LINE
  8
0
 10
-92.9057
 20
-14.2539
 11
-92.7893
 21
-13.8956
  0
LINE
  8
0
 10
-92.7893
 20
-13.8956
 11
-92.6289
 21
-13.5547
  0
LINE
  8
0
 10
-92.6289
 20
-13.5547
 11
-92.427
 21
-13.2366
  0
LINE
  8
0
 10
-92.427
 20
-13.2366
 11
-92.1869
 21
-12.9464
  0
LINE
  8
0
 10
-92.1869
 20
-12.9464
 11
-91.9123
 21
-12.6884
  0
LINE
  8
0
 10
-91.9123
 20
-12.6884
 11
-91.6075
 21
-12.467
  0
LINE
  8
0
 10
-91.6075
 20
-12.467
 11
-91.2773
 21
-12.2855
  0
LINE
  8
0
 10
-91.2773
 20
-12.2855
 11
-90.927
 21
-12.1468
  0
LINE
  8
0
 10
-90.927
 20
-12.1468
 11
-90.5621
 21
-12.0531
  0
LINE
  8
0
 10
-90.5621
 20
-12.0531
 11
-90.1884
 21
-12.0059
  0
LINE
  8
0
 10
-90.1884
 20
-12.0059
 11
-89.8116
 21
-12.0059
  0
LINE
  8
0
 10
-89.8116
 20
-12.0059
 11
-89.4379
 21
-12.0531
  0
LINE
  8
0
 10
-89.4379
 20
-12.0531
 11
-89.073
 21
-12.1468
  0
LINE
  8
0
 10
-89.073
 20
-12.1468
 11
-88.7227
 21
-12.2855
  0
LINE
  8
0
 10
-88.7227
 20
-12.2855
 11
-88.3925
 21
-12.467
  0
LINE
  8
0
 10
-88.3925
 20
-12.467
 11
-88.0877
 21
-12.6884
  0
LINE
  8
0
 10
-88.0877
 20
-12.6884
 11
-87.8131
 21
-12.9464
  0
LINE
  8
0
 10
-87.8131
 20
-12.9464
 11
-87.573
 21
-13.2366
  0
LINE
  8
0
 10
-87.573
 20
-13.2366
 11
-87.3711
 21
-13.5547
  0
LINE
  8
0
 10
-87.3711
 20
-13.5547
 11
-87.2107
 21
-13.8956
  0
LINE
  8
0
 10
-87.2107
 20
-13.8956
 11
-87.0943
 21
-14.2539
  0
LINE
  8
0
 10
-87.0943
 20
-14.2539
 11
-87.0237
 21
-14.624
  0
LINE
  8
0
 10
-87.0237
 20
-14.624
 11
-87
 21
-15
  0
LINE
  8
0
 10
-87
 20
-15
 11
-87.0237
 21
-15.376
  0
LINE
  8
0
 10
-87.0237
 20
-15.376
 11
-87.0943
 21
-15.7461
  0
LINE
  8
0
 10
-87.0943
 20
-15.7461
 11
-87.2107
 21
-16.1044
  0
LINE
  8
0
 10
-87.2107
 20
-16.1044
 11
-87.3711
 21
-16.4453
  0
LINE
  8
0
 10
-87.3711
 20
-16.4453
 11
-87.573
 21
-16.7634
  0
LINE
  8
0
 10
-87.573
 20
-16.7634
 11
-87.8131
 21
-17.0536
  0
LINE
  8
0
 10
-87.8131
 20
-17.0536
 11
-88.0877
 21
-17.3115
  0
LINE
  8
0
 10
-88.0877
 20
-17.3115
 11
-88.3925
 21
-17.533
  0
LINE
  8
0
 10
-88.3925
 20
-17.533
 11
-88.7227
 21
-17.7145
  0
LINE
  8
0
 10
-88.7227
 20
-17.7145
 11
-89.073
 21
-17.8532
  0
LINE
  8
0
 10
-89.073
 20
-17.8532
 11
-89.4379
 21
-17.9469
  0
LINE
  8
0
 10
-89.4379
 20
-17.9469
 11
-89.8116
 21
-17.9941
  0
LINE
  8
0
 10
-89.8116
 20
-17.9941
 11
-90.1884
 21
-17.9941
  0
ENDSEC
  0
SECTION
  2
OBJECTS
  0
DICTIONARY
  0
ENDSEC
  0
EOF
