<?xml version="1.0" standalone="no"?>
<!DOCTYPE svg PUBLIC "-//W3C//DTD SVG 1.1//EN" "http://www.w3.org/Graphics/SVG/1.1/DTD/svg11.dtd">
<svg width="254mm" height="120mm" viewBox="-127 -60 254 120" xmlns="http://www.w3.org/2000/svg" version="1.1">
<title>OpenSCAD Model</title>
<path d="
M 122.937,59.4114 L 123.545,59.2553 L 124.129,59.0241 L 124.679,58.7216 L 125.187,58.3526 L 125.645,57.9227
 L 126.045,57.4389 L 126.382,56.9088 L 126.649,56.3406 L 126.843,55.7434 L 126.961,55.1267 L 127,54.5
 L 127,-54.5 L 126.961,-55.1267 L 126.843,-55.7434 L 126.649,-56.3406 L 126.382,-56.9088 L 126.045,-57.4389
 L 125.645,-57.9227 L 125.187,-58.3526 L 124.679,-58.7216 L 124.129,-59.0241 L 123.545,-59.2553 L 122.937,-59.4114
 L 122.314,-59.4901 L -122.314,-59.4901 L -122.937,-59.4114 L -123.545,-59.2553 L -124.129,-59.0241 L -124.679,-58.7216
 L -125.187,-58.3526 L -125.645,-57.9227 L -126.045,-57.4389 L -126.382,-56.9088 L -126.649,-56.3406 L -126.843,-55.7434
 L -126.961,-55.1267 L -127,-54.5 L -127,54.5 L -126.961,55.1267 L -126.843,55.7434 L -126.649,56.3406
 L -126.382,56.9088 L -126.045,57.4389 L -125.645,57.9227 L -125.187,58.3526 L -124.679,58.7216 L -124.129,59.0241
 L -123.545,59.2553 L -122.937,59.4114 L -122.314,59.4901 L 122.314,59.4901 z
M -120.188,-49.5059 L -120.562,-49.5531 L -120.927,-49.6468 L -121.277,-49.7855 L -121.607,-49.967 L -121.912,-50.1885
 L -122.187,-50.4464 L -122.427,-50.7366 L -122.629,-51.0547 L -122.789,-51.3956 L -122.906,-51.7539 L -122.976,-52.124
 L -123,-52.5 L -122.976,-52.876 L -122.906,-53.2461 L -122.789,-53.6044 L -122.629,-53.9453 L -122.427,-54.2634
 L -122.187,-54.5536 L -121.912,-54.8115 L -121.607,-55.033 L -121.277,-55.2145 L -120.927,-55.3532 L -120.562,-55.4469
 L -120.188,-55.4941 L -119.812,-55.4941 L -119.438,-55.4469 L -119.073,-55.3532 L -118.723,-55.2145 L -118.393,-55.033
 L -118.088,-54.8115 L -117.813,-54.5536 L -117.573,-54.2634 L -117.371,-53.9453 L -117.211,-53.6044 L -117.094,-53.2461
 L -117.024,-52.876 L -117,-52.5 L -117.024,-52.124 L -117.094,-51.7539 L -117.211,-51.3956 L -117.371,-51.0547
 L -117.573,-50.7366 L -117.813,-50.4464 L -118.088,-50.1885 L -118.393,-49.967 L -118.723,-49.7855 L -119.073,-49.6468
 L -119.438,-49.5531 L -119.812,-49.5059 z
M 119.812,-49.5059 L 119.438,-49.5531 L 119.073,-49.6468 L 118.723,-49.7855 L 118.393,-49.967 L 118.088,-50.1885
 L 117.813,-50.4464 L 117.573,-50.7366 L 117.371,-51.0547 L 117.211,-51.3956 L 117.094,-51.7539 L 117.024,-52.124
 L 117,-52.5 L 117.024,-52.876 L 117.094,-53.2461 L 117.211,-53.6044 L 117.371,-53.9453 L 117.573,-54.2634
 L 117.813,-54.5536 L 118.088,-54.8115 L 118.393,-55.033 L 118.723,-55.2145 L 119.073,-55.3532 L 119.438,-55.4469
 L 119.812,-55.4941 L 120.188,-55.4941 L 120.562,-55.4469 L 120.927,-55.3532 L 121.277,-55.2145 L 121.607,-55.033
 L 121.912,-54.8115 L 122.187,-54.5536 L 122.427,-54.2634 L 122.629,-53.9453 L 122.789,-53.6044 L 122.906,-53.2461
 L 122.976,-52.876 L 123,-52.5 L 122.976,-52.124 L 122.906,-51.7539 L 122.789,-51.3956 L 122.629,-51.0547
 L 122.427,-50.7366 L 122.187,-50.4464 L 121.912,-50.1885 L 121.607,-49.967 L 121.277,-49.7855 L 120.927,-49.6468
 L 120.562,-49.5531 L 120.188,-49.5059 z
M -60.9535,54.8915 L -67.806,54.0258 L -74.4959,52.3081 L -80.9179,49.7655 L -86.9705,46.438 L -92.5583,42.3782
 L -97.5933,37.6501 L -101.996,32.3282 L -105.697,26.4964 L -108.638,20.2468 L -110.772,13.6779 L -112.066,6.89333
 L -112.5,-0 L -112.066,-6.89333 L -110.772,-13.6779 L -108.638,-20.2468 L -105.697,-26.4964 L -101.996,-32.3282
 L -97.5933,-37.6501 L -92.5583,-42.3782 L -86.9705,-46.438 L -80.9179,-49.7655 L -74.4959,-52.3081 L -67.806,-54.0258
 L -60.9535,-54.8915 L -54.0465,-54.8915 L -47.194,-54.0258 L -40.5041,-52.3081 L -34.0821,-49.7655 L -28.0295,-46.438
 L -22.4417,-42.3782 L -17.4067,-37.6501 L -13.0041,-32.3282 L -9.30313,-26.4964 L -6.36229,-20.2468 L -4.22792,-13.6779
 L -2.93369,-6.89333 L -2.5,-0 L -2.93369,6.89333 L -4.22792,13.6779 L -6.36229,20.2468 L -9.30313,26.4964
 L -13.0041,32.3282 L -17.4067,37.6501 L -22.4417,42.3782 L -28.0295,46.438 L -34.0821,49.7655 L -40.5041,52.3081
 L -47.194,54.0258 L -54.0465,54.8915 z
M 54.0465,54.8915 L 47.194,54.0258 L 40.5041,52.3081 L 34.0821,49.7655 L 28.0295,46.438 L 22.4417,42.3782
 L 17.4067,37.6501 L 13.0041,32.3282 L 9.30313,26.4964 L 6.36229,20.2468 L 4.22792,13.6779 L 2.93369,6.89333
 L 2.5,-0 L 2.93369,-6.89333 L 4.22792,-13.6779 L 6.36229,-20.2468 L 9.30313,-26.4964 L 13.0041,-32.3282
 L 17.4067,-37.6501 L 22.4417,-42.3782 L 28.0295,-46.438 L 34.0821,-49.7655 L 40.5041,-52.3081 L 47.194,-54.0258
 L 54.0465,-54.8915 L 60.9535,-54.8915 L 67.806,-54.0258 L 74.4959,-52.3081 L 80.9179,-49.7655 L 86.9705,-46.438
 L 92.5583,-42.3782 L 97.5933,-37.6501 L 101.996,-32.3282 L 105.697,-26.4964 L 108.638,-20.2468 L 110.772,-13.6779
 L 112.066,-6.89333 L 112.5,-0 L 112.066,6.89333 L 110.772,13.6779 L 108.638,20.2468 L 105.697,26.4964
 L 101.996,32.3282 L 97.5933,37.6501 L 92.5583,42.3782 L 86.9705,46.438 L 80.9179,49.7655 L 74.4959,52.3081
 L 67.806,54.0258 L 60.9535,54.8915 z
M -120.094,-43.503 L -120.281,-43.5266 L -120.464,-43.5734 L -120.639,-43.6428 L -120.804,-43.7335 L -120.956,-43.8442
 L -121.093,-43.9732 L -121.214,-44.1183 L -121.314,-44.2774 L -121.395,-44.4478 L -121.453,-44.627 L -121.488,-44.812
 L -121.5,-45 L -121.488,-45.188 L -121.453,-45.373 L -121.395,-45.5522 L -121.314,-45.7226 L -121.214,-45.8817
 L -121.093,-46.0268 L -120.956,-46.1558 L -120.804,-46.2665 L -120.639,-46.3572 L -120.464,-46.4266 L -120.281,-46.4734
 L -120.094,-46.497 L -119.906,-46.497 L -119.719,-46.4734 L -119.536,-46.4266 L -119.361,-46.3572 L -119.196,-46.2665
 L -119.044,-46.1558 L -118.907,-46.0268 L -118.786,-45.8817 L -118.686,-45.7226 L -118.605,-45.5522 L -118.547,-45.373
 L -118.512,-45.188 L -118.5,-45 L -118.512,-44.812 L -118.547,-44.627 L -118.605,-44.4478 L -118.686,-44.2774
 L -118.786,-44.1183 L -118.907,-43.9732 L -119.044,-43.8442 L -119.196,-43.7335 L -119.361,-43.6428 L -119.536,-43.5734
 L -119.719,-43.5266 L -119.906,-43.503 z
M 119.906,-43.503 L 119.719,-43.5266 L 119.536,-43.5734 L 119.361,-43.6428 L 119.196,-43.7335 L 119.044,-43.8442
 L 118.907,-43.9732 L 118.786,-44.1183 L 118.686,-44.2774 L 118.605,-44.4478 L 118.547,-44.627 L 118.512,-44.812
 L 118.5,-45 L 118.512,-45.188 L 118.547,-45.373 L 118.605,-45.5522 L 118.686,-45.7226 L 118.786,-45.8817
 L 118.907,-46.0268 L 119.044,-46.1558 L 119.196,-46.2665 L 119.361,-46.3572 L 119.536,-46.4266 L 119.719,-46.4734
 L 119.906,-46.497 L 120.094,-46.497 L 120.281,-46.4734 L 120.464,-46.4266 L 120.639,-46.3572 L 120.804,-46.2665
 L 120.956,-46.1558 L 121.093,-46.0268 L 121.214,-45.8817 L 121.314,-45.7226 L 121.395,-45.5522 L 121.453,-45.373
 L 121.488,-45.188 L 121.5,-45 L 121.488,-44.812 L 121.453,-44.627 L 121.395,-44.4478 L 121.314,-44.2774
 L 121.214,-44.1183 L 121.093,-43.9732 L 120.956,-43.8442 L 120.804,-43.7335 L 120.639,-43.6428 L 120.464,-43.5734
 L 120.281,-43.5266 L 120.094,-43.503 z
M -120.188,-34.5059 L -120.562,-34.5531 L -120.927,-34.6468 L -121.277,-34.7855 L -121.607,-34.967 L -121.912,-35.1885
 L -122.187,-35.4464 L -122.427,-35.7366 L -122.629,-36.0547 L -122.789,-36.3956 L -122.906,-36.7539 L -122.976,-37.124
 L -123,-37.5 L -122.976,-37.876 L -122.906,-38.2461 L -122.789,-38.6044 L -122.629,-38.9453 L -122.427,-39.2634
 L -122.187,-39.5536 L -121.912,-39.8115 L -121.607,-40.033 L -121.277,-40.2145 L -120.927,-40.3532 L -120.562,-40.4469
 L -120.188,-40.4941 L -119.812,-40.4941 L -119.438,-40.4469 L -119.073,-40.3532 L -118.723,-40.2145 L -118.393,-40.033
 L -118.088,-39.8115 L -117.813,-39.5536 L -117.573,-39.2634 L -117.371,-38.9453 L -117.211,-38.6044 L -117.094,-38.2461
 L -117.024,-37.876 L -117,-37.5 L -117.024,-37.124 L -117.094,-36.7539 L -117.211,-36.3956 L -117.371,-36.0547
 L -117.573,-35.7366 L -117.813,-35.4464 L -118.088,-35.1885 L -118.393,-34.967 L -118.723,-34.7855 L -119.073,-34.6468
 L -119.438,-34.5531 L -119.812,-34.5059 z
M 119.812,-34.5059 L 119.438,-34.5531 L 119.073,-34.6468 L 118.723,-34.7855 L 118.393,-34.967 L 118.088,-35.1885
 L 117.813,-35.4464 L 117.573,-35.7366 L 117.371,-36.0547 L 117.211,-36.3956 L 117.094,-36.7539 L 117.024,-37.124
 L 117,-37.5 L 117.024,-37.876 L 117.094,-38.2461 L 117.211,-38.6044 L 117.371,-38.9453 L 117.573,-39.2634
 L 117.813,-39.5536 L 118.088,-39.8115 L 118.393,-40.033 L 118.723,-40.2145 L 119.073,-40.3532 L 119.438,-40.4469
 L 119.812,-40.4941 L 120.188,-40.4941 L 120.562,-40.4469 L 120.927,-40.3532 L 121.277,-40.2145 L 121.607,-40.033
 L 121.912,-39.8115 L 122.187,-39.5536 L 122.427,-39.2634 L 122.629,-38.9453 L 122.789,-38.6044 L 122.906,-38.2461
 L 122.976,-37.876 L 123,-37.5 L 122.976,-37.124 L 122.906,-36.7539 L 122.789,-36.3956 L 122.629,-36.0547
 L 122.427,-35.7366 L 122.187,-35.4464 L 121.912,-35.1885 L 121.607,-34.967 L 121.277,-34.7855 L 120.927,-34.6468
 L 120.562,-34.5531 L 120.188,-34.5059 z
M 119.906,-28.503 L 119.719,-28.5266 L 119.536,-28.5734 L 119.361,-28.6427 L 119.196,-28.7335 L 119.044,-28.8442
 L 118.907,-28.9732 L 118.786,-29.1183 L 118.686,-29.2774 L 118.605,-29.4478 L 118.547,-29.627 L 118.512,-29.812
 L 118.5,-30 L 118.512,-30.188 L 118.547,-30.373 L 118.605,-30.5522 L 118.686,-30.7226 L 118.786,-30.8817
 L 118.907,-31.0268 L 119.044,-31.1558 L 119.196,-31.2665 L 119.361,-31.3572 L 119.536,-31.4266 L 119.719,-31.4734
 L 119.906,-31.497 L 120.094,-31.497 L 120.281,-31.4734 L 120.464,-31.4266 L 120.639,-31.3572 L 120.804,-31.2665
 L 120.956,-31.1558 L 121.093,-31.0268 L 121.214,-30.8817 L 121.314,-30.7226 L 121.395,-30.5522 L 121.453,-30.373
 L 121.488,-30.188 L 121.5,-30 L 121.488,-29.812 L 121.453,-29.627 L 121.395,-29.4478 L 121.314,-29.2774
 L 121.214,-29.1183 L 121.093,-28.9732 L 120.956,-28.8442 L 120.804,-28.7335 L 120.639,-28.6427 L 120.464,-28.5734
 L 120.281,-28.5266 L 120.094,-28.503 z
M -120.094,-28.503 L -120.281,-28.5266 L -120.464,-28.5734 L -120.639,-28.6427 L -120.804,-28.7335 L -120.956,-28.8442
 L -121.093,-28.9732 L -121.214,-29.1183 L -121.314,-29.2774 L -121.395,-29.4478 L -121.453,-29.627 L -121.488,-29.812
 L -121.5,-30 L -121.488,-30.188 L -121.453,-30.373 L -121.395,-30.5522 L -121.314,-30.7226 L -121.214,-30.8817
 L -121.093,-31.0268 L -120.956,-31.1558 L -120.804,-31.2665 L -120.639,-31.3572 L -120.464,-31.4266 L -120.281,-31.4734
 L -120.094,-31.497 L -119.906,-31.497 L -119.719,-31.4734 L -119.536,-31.4266 L -119.361,-31.3572 L -119.196,-31.2665
 L -119.044,-31.1558 L -118.907,-31.0268 L -118.786,-30.8817 L -118.686,-30.7226 L -118.605,-30.5522 L -118.547,-30.373
 L -118.512,-30.188 L -118.5,-30 L -118.512,-29.812 L -118.547,-29.627 L -118.605,-29.4478 L -118.686,-29.2774
 L -118.786,-29.1183 L -118.907,-28.9732 L -119.044,-28.8442 L -119.196,-28.7335 L -119.361,-28.6427 L -119.536,-28.5734
 L -119.719,-28.5266 L -119.906,-28.503 z
M -120.188,-19.5059 L -120.562,-19.5531 L -120.927,-19.6468 L -121.277,-19.7855 L -121.607,-19.967 L -121.912,-20.1884
 L -122.187,-20.4464 L -122.427,-20.7366 L -122.629,-21.0547 L -122.789,-21.3956 L -122.906,-21.7539 L -122.976,-22.124
 L -123,-22.5 L -122.976,-22.876 L -122.906,-23.2461 L -122.789,-23.6044 L -122.629,-23.9453 L -122.427,-24.2634
 L -122.187,-24.5536 L -121.912,-24.8115 L -121.607,-25.033 L -121.277,-25.2145 L -120.927,-25.3532 L -120.562,-25.4469
 L -120.188,-25.4941 L -119.812,-25.4941 L -119.438,-25.4469 L -119.073,-25.3532 L -118.723,-25.2145 L -118.393,-25.033
 L -118.088,-24.8115 L -117.813,-24.5536 L -117.573,-24.2634 L -117.371,-23.9453 L -117.211,-23.6044 L -117.094,-23.2461
 L -117.024,-22.876 L -117,-22.5 L -117.024,-22.124 L -117.094,-21.7539 L -117.211,-21.3956 L -117.371,-21.0547
 L -117.573,-20.7366 L -117.813,-20.4464 L -118.088,-20.1884 L -118.393,-19.967 L -118.723,-19.7855 L -119.073,-19.6468
 L -119.438,-19.5531 L -119.812,-19.5059 z
M 119.812,-19.5059 L 119.438,-19.5531 L 119.073,-19.6468 L 118.723,-19.7855 L 118.393,-19.967 L 118.088,-20.1884
 L 117.813,-20.4464 L 117.573,-20.7366 L 117.371,-21.0547 L 117.211,-21.3956 L 117.094,-21.7539 L 117.024,-22.124
 L 117,-22.5 L 117.024,-22.876 L 117.094,-23.2461 L 117.211,-23.6044 L 117.371,-23.9453 L 117.573,-24.2634
 L 117.813,-24.5536 L 118.088,-24.8115 L 118.393,-25.033 L 118.723,-25.2145 L 119.073,-25.3532 L 119.438,-25.4469
 L 119.812,-25.4941 L 120.188,-25.4941 L 120.562,-25.4469 L 120.927,-25.3532 L 121.277,-25.2145 L 121.607,-25.033
 L 121.912,-24.8115 L 122.187,-24.5536 L 122.427,-24.2634 L 122.629,-23.9453 L 122.789,-23.6044 L 122.906,-23.2461
 L 122.976,-22.876 L 123,-22.5 L 122.976,-22.124 L 122.906,-21.7539 L 122.789,-21.3956 L 122.629,-21.0547
 L 122.427,-20.7366 L 122.187,-20.4464 L 121.912,-20.1884 L 121.607,-19.967 L 121.277,-19.7855 L 120.927,-19.6468
 L 120.562,-19.5531 L 120.188,-19.5059 z
M 119.906,-13.5029 L 119.719,-13.5266 L 119.536,-13.5734 L 119.361,-13.6427 L 119.196,-13.7335 L 119.044,-13.8442
 L 118.907,-13.9732 L 118.786,-14.1183 L 118.686,-14.2774 L 118.605,-14.4478 L 118.547,-14.627 L 118.512,-14.812
 L 118.5,-15 L 118.512,-15.188 L 118.547,-15.373 L 118.605,-15.5522 L 118.686,-15.7226 L 118.786,-15.8817
 L 118.907,-16.0268 L 119.044,-16.1558 L 119.196,-16.2665 L 119.361,-16.3572 L 119.536,-16.4266 L 119.719,-16.4734
 L 119.906,-16.497 L 120.094,-16.497 L 120.281,-16.4734 L 120.464,-16.4266 L 120.639,-16.3572 L 120.804,-16.2665
 L 120.956,-16.1558 L 121.093,-16.0268 L 121.214,-15.8817 L 121.314,-15.7226 L 121.395,-15.5522 L 121.453,-15.373
 L 121.488,-15.188 L 121.5,-15 L 121.488,-14.812 L 121.453,-14.627 L 121.395,-14.4478 L 121.314,-14.2774
 L 121.214,-14.1183 L 121.093,-13.9732 L 120.956,-13.8442 L 120.804,-13.7335 L 120.639,-13.6427 L 120.464,-13.5734
 L 120.281,-13.5266 L 120.094,-13.5029 z
M -120.094,-13.5029 L -120.281,-13.5266 L -120.464,-13.5734 L -120.639,-13.6427 L -120.804,-13.7335 L -120.956,-13.8442
 L -121.093,-13.9732 L -121.214,-14.1183 L -121.314,-14.2774 L -121.395,-14.4478 L -121.453,-14.627 L -121.488,-14.812
 L -121.5,-15 L -121.488,-15.188 L -121.453,-15.373 L -121.395,-15.5522 L -121.314,-15.7226 L -121.214,-15.8817
 L -121.093,-16.0268 L -120.956,-16.1558 L -120.804,-16.2665 L -120.639,-16.3572 L -120.464,-16.4266 L -120.281,-16.4734
 L -120.094,-16.497 L -119.906,-16.497 L -119.719,-16.4734 L -119.536,-16.4266 L -119.361,-16.3572 L -119.196,-16.2665
 L -119.044,-16.1558 L -118.907,-16.0268 L -118.786,-15.8817 L -118.686,-15.7226 L -118.605,-15.5522 L -118.547,-15.373
 L -118.512,-15.188 L -118.5,-15 L -118.512,-14.812 L -118.547,-14.627 L -118.605,-14.4478 L -118.686,-14.2774
 L -118.786,-14.1183 L -118.907,-13.9732 L -119.044,-13.8442 L -119.196,-13.7335 L -119.361,-13.6427 L -119.536,-13.5734
 L -119.719,-13.5266 L -119.906,-13.5029 z
M 119.812,-4.50591 L 119.438,-4.55313 L 119.073,-4.64682 L 118.723,-4.78551 L 118.393,-4.96701 L 118.088,-5.18845
 L 117.813,-5.44635 L 117.573,-5.73663 L 117.371,-6.05473 L 117.211,-6.39561 L 117.094,-6.75392 L 117.024,-7.12399
 L 117,-7.5 L 117.024,-7.87599 L 117.094,-8.24606 L 117.211,-8.60437 L 117.371,-8.94525 L 117.573,-9.26335
 L 117.813,-9.55363 L 118.088,-9.81154 L 118.393,-10.033 L 118.723,-10.2145 L 119.073,-10.3532 L 119.438,-10.4469
 L 119.812,-10.4941 L 120.188,-10.4941 L 120.562,-10.4469 L 120.927,-10.3532 L 121.277,-10.2145 L 121.607,-10.033
 L 121.912,-9.81154 L 122.187,-9.55363 L 122.427,-9.26335 L 122.629,-8.94525 L 122.789,-8.60437 L 122.906,-8.24606
 L 122.976,-7.87599 L 123,-7.5 L 122.976,-7.12399 L 122.906,-6.75392 L 122.789,-6.39561 L 122.629,-6.05473
 L 122.427,-5.73663 L 122.187,-5.44635 L 121.912,-5.18845 L 121.607,-4.96701 L 121.277,-4.78551 L 120.927,-4.64682
 L 120.562,-4.55313 L 120.188,-4.50591 z
M -120.188,-4.50591 L -120.562,-4.55313 L -120.927,-4.64682 L -121.277,-4.78551 L -121.607,-4.96701 L -121.912,-5.18845
 L -122.187,-5.44635 L -122.427,-5.73663 L -122.629,-6.05473 L -122.789,-6.39561 L -122.906,-6.75392 L -122.976,-7.12399
 L -123,-7.5 L -122.976,-7.87599 L -122.906,-8.24606 L -122.789,-8.60437 L -122.629,-8.94525 L -122.427,-9.26335
 L -122.187,-9.55363 L -121.912,-9.81154 L -121.607,-10.033 L -121.277,-10.2145 L -120.927,-10.3532 L -120.562,-10.4469
 L -120.188,-10.4941 L -119.812,-10.4941 L -119.438,-10.4469 L -119.073,-10.3532 L -118.723,-10.2145 L -118.393,-10.033
 L -118.088,-9.81154 L -117.813,-9.55363 L -117.573,-9.26335 L -117.371,-8.94525 L -117.211,-8.60437 L -117.094,-8.24606
 L -117.024,-7.87599 L -117,-7.5 L -117.024,-7.12399 L -117.094,-6.75392 L -117.211,-6.39561 L -117.371,-6.05473
 L -117.573,-5.73663 L -117.813,-5.44635 L -118.088,-5.18845 L -118.393,-4.96701 L -118.723,-4.78551 L -119.073,-4.64682
 L -119.438,-4.55313 L -119.812,-4.50591 z
M 119.906,1.49704 L 119.719,1.47342 L 119.536,1.42657 L 119.361,1.35724 L 119.196,1.26648 L 119.044,1.15576
 L 118.907,1.02681 L 118.786,0.881668 L 118.686,0.722626 L 118.605,0.552185 L 118.547,0.373032 L 118.512,0.187988
 L 118.5,-0 L 118.512,-0.187988 L 118.547,-0.373032 L 118.605,-0.552185 L 118.686,-0.722626 L 118.786,-0.881668
 L 118.907,-1.02681 L 119.044,-1.15576 L 119.196,-1.26648 L 119.361,-1.35724 L 119.536,-1.42657 L 119.719,-1.47342
 L 119.906,-1.49704 L 120.094,-1.49704 L 120.281,-1.47342 L 120.464,-1.42657 L 120.639,-1.35724 L 120.804,-1.26648
 L 120.956,-1.15576 L 121.093,-1.02681 L 121.214,-0.881668 L 121.314,-0.722626 L 121.395,-0.552185 L 121.453,-0.373032
 L 121.488,-0.187988 L 121.5,-0 L 121.488,0.187988 L 121.453,0.373032 L 121.395,0.552185 L 121.314,0.722626
 L 121.214,0.881668 L 121.093,1.02681 L 120.956,1.15576 L 120.804,1.26648 L 120.639,1.35724 L 120.464,1.42657
 L 120.281,1.47342 L 120.094,1.49704 z
M -120.094,1.49704 L -120.281,1.47342 L -120.464,1.42657 L -120.639,1.35724 L -120.804,1.26648 L -120.956,1.15576
 L -121.093,1.02681 L -121.214,0.881668 L -121.314,0.722626 L -121.395,0.552185 L -121.453,0.373032 L -121.488,0.187988
 L -121.5,-0 L -121.488,-0.187988 L -121.453,-0.373032 L -121.395,-0.552185 L -121.314,-0.722626 L -121.214,-0.881668
 L -121.093,-1.02681 L -120.956,-1.15576 L -120.804,-1.26648 L -120.639,-1.35724 L -120.464,-1.42657 L -120.281,-1.47342
 L -120.094,-1.49704 L -119.906,-1.49704 L -119.719,-1.47342 L -119.536,-1.42657 L -119.361,-1.35724 L -119.196,-1.26648
 L -119.044,-1.15576 L -118.907,-1.02681 L -118.786,-0.881668 L -118.686,-0.722626 L -118.605,-0.552185 L -118.547,-0.373032
 L -118.512,-0.187988 L -118.5,-0 L -118.512,0.187988 L -118.547,0.373032 L -118.605,0.552185 L -118.686,0.722626
 L -118.786,0.881668 L -118.907,1.02681 L -119.044,1.15576 L -119.196,1.26648 L -119.361,1.35724 L -119.536,1.42657
 L -119.719,1.47342 L -119.906,1.49704 z
M 119.812,10.4941 L 119.438,10.4469 L 119.073,10.3532 L 118.723,10.2145 L 118.393,10.033 L 118.088,9.81154
 L 117.813,9.55363 L 117.573,9.26335 L 117.371,8.94525 L 117.211,8.60437 L 117.094,8.24606 L 117.024,7.87599
 L 117,7.5 L 117.024,7.12399 L 117.094,6.75392 L 117.211,6.39561 L 117.371,6.05473 L 117.573,5.73663
 L 117.813,5.44635 L 118.088,5.18845 L 118.393,4.96701 L 118.723,4.78551 L 119.073,4.64682 L 119.438,4.55313
 L 119.812,4.50591 L 120.188,4.50591 L 120.562,4.55313 L 120.927,4.64682 L 121.277,4.78551 L 121.607,4.96701
 L 121.912,5.18845 L 122.187,5.44635 L 122.427,5.73663 L 122.629,6.05473 L 122.789,6.39561 L 122.906,6.75392
 L 122.976,7.12399 L 123,7.5 L 122.976,7.87599 L 122.906,8.24606 L 122.789,8.60437 L 122.629,8.94525
 L 122.427,9.26335 L 122.187,9.55363 L 121.912,9.81154 L 121.607,10.033 L 121.277,10.2145 L 120.927,10.3532
 L 120.562,10.4469 L 120.188,10.4941 z
M -120.188,10.4941 L -120.562,10.4469 L -120.927,10.3532 L -121.277,10.2145 L -121.607,10.033 L -121.912,9.81154
 L -122.187,9.55363 L -122.427,9.26335 L -122.629,8.94525 L -122.789,8.60437 L -122.906,8.24606 L -122.976,7.87599
 L -123,7.5 L -122.976,7.12399 L -122.906,6.75392 L -122.789,6.39561 L -122.629,6.05473 L -122.427,5.73663
 L -122.187,5.44635 L -121.912,5.18845 L -121.607,4.96701 L -121.277,4.78551 L -120.927,4.64682 L -120.562,4.55313
 L -120.188,4.50591 L -119.812,4.50591 L -119.438,4.55313 L -119.073,4.64682 L -118.723,4.78551 L -118.393,4.96701
 L -118.088,5.18845 L -117.813,5.44635 L -117.573,5.73663 L -117.371,6.05473 L -117.211,6.39561 L -117.094,6.75392
 L -117.024,7.12399 L -117,7.5 L -117.024,7.87599 L -117.094,8.24606 L -117.211,8.60437 L -117.371,8.94525
 L -117.573,9.26335 L -117.813,9.55363 L -118.088,9.81154 L -118.393,10.033 L -118.723,10.2145 L -119.073,10.3532
 L -119.438,10.4469 L -119.812,10.4941 z
M 119.906,16.497 L 119.719,16.4734 L 119.536,16.4266 L 119.361,16.3572 L 119.196,16.2665 L 119.044,16.1558
 L 118.907,16.0268 L 118.786,15.8817 L 118.686,15.7226 L 118.605,15.5522 L 118.547,15.373 L 118.512,15.188
 L 118.5,15 L 118.512,14.812 L 118.547,14.627 L 118.605,14.4478 L 118.686,14.2774 L 118.786,14.1183
 L 118.907,13.9732 L 119.044,13.8442 L 119.196,13.7335 L 119.361,13.6427 L 119.536,13.5734 L 119.719,13.5266
 L 119.906,13.5029 L 120.094,13.5029 L 120.281,13.5266 L 120.464,13.5734 L 120.639,13.6427 L 120.804,13.7335
 L 120.956,13.8442 L 121.093,13.9732 L 121.214,14.1183 L 121.314,14.2774 L 121.395,14.4478 L 121.453,14.627
 L 121.488,14.812 L 121.5,15 L 121.488,15.188 L 121.453,15.373 L 121.395,15.5522 L 121.314,15.7226
 L 121.214,15.8817 L 121.093,16.0268 L 120.956,16.1558 L 120.804,16.2665 L 120.639,16.3572 L 120.464,16.4266
 L 120.281,16.4734 L 120.094,16.497 z
M -120.094,16.497 L -120.281,16.4734 L -120.464,16.4266 L -120.639,16.3572 L -120.804,16.2665 L -120.956,16.1558
 L -121.093,16.0268 L -121.214,15.8817 L -121.314,15.7226 L -121.395,15.5522 L -121.453,15.373 L -121.488,15.188
 L -121.5,15 L -121.488,14.812 L -121.453,14.627 L -121.395,14.4478 L -121.314,14.2774 L -121.214,14.1183
 L -121.093,13.9732 L -120.956,13.8442 L -120.804,13.7335 L -120.639,13.6427 L -120.464,13.5734 L -120.281,13.5266
 L -120.094,13.5029 L -119.906,13.5029 L -119.719,13.5266 L -119.536,13.5734 L -119.361,13.6427 L -119.196,13.7335
 L -119.044,13.8442 L -118.907,13.9732 L -118.786,14.1183 L -118.686,14.2774 L -118.605,14.4478 L -118.547,14.627
 L -118.512,14.812 L -118.5,15 L -118.512,15.188 L -118.547,15.373 L -118.605,15.5522 L -118.686,15.7226
 L -118.786,15.8817 L -118.907,16.0268 L -119.044,16.1558 L -119.196,16.2665 L -119.361,16.3572 L -119.536,16.4266
 L -119.719,16.4734 L -119.906,16.497 z
M -120.188,25.4941 L -120.562,25.4469 L -120.927,25.3532 L -121.277,25.2145 L -121.607,25.033 L -121.912,24.8115
 L -122.187,24.5536 L -122.427,24.2634 L -122.629,23.9453 L -122.789,23.6044 L -122.906,23.2461 L -122.976,22.876
 L -123,22.5 L -122.976,22.124 L -122.906,21.7539 L -122.789,21.3956 L -122.629,21.0547 L -122.427,20.7366
 L -122.187,20.4464 L -121.912,20.1884 L -121.607,19.967 L -121.277,19.7855 L -120.927,19.6468 L -120.562,19.5531
 L -120.188,19.5059 L -119.812,19.5059 L -119.438,19.5531 L -119.073,19.6468 L -118.723,19.7855 L -118.393,19.967
 L -118.088,20.1884 L -117.813,20.4464 L -117.573,20.7366 L -117.371,21.0547 L -117.211,21.3956 L -117.094,21.7539
 L -117.024,22.124 L -117,22.5 L -117.024,22.876 L -117.094,23.2461 L -117.211,23.6044 L -117.371,23.9453
 L -117.573,24.2634 L -117.813,24.5536 L -118.088,24.8115 L -118.393,25.033 L -118.723,25.2145 L -119.073,25.3532
 L -119.438,25.4469 L -119.812,25.4941 z
M 119.812,25.4941 L 119.438,25.4469 L 119.073,25.3532 L 118.723,25.2145 L 118.393,25.033 L 118.088,24.8115
 L 117.813,24.5536 L 117.573,24.2634 L 117.371,23.9453 L 117.211,23.6044 L 117.094,23.2461 L 117.024,22.876
 L 117,22.5 L 117.024,22.124 L 117.094,21.7539 L 117.211,21.3956 L 117.371,21.0547 L 117.573,20.7366
 L 117.813,20.4464 L 118.088,20.1884 L 118.393,19.967 L 118.723,19.7855 L 119.073,19.6468 L 119.438,19.5531
 L 119.812,19.5059 L 120.188,19.5059 L 120.562,19.5531 L 120.927,19.6468 L 121.277,19.7855 L 121.607,19.967
 L 121.912,20.1884 L 122.187,20.4464 L 122.427,20.7366 L 122.629,21.0547 L 122.789,21.3956 L 122.906,21.7539
 L 122.976,22.124 L 123,22.5 L 122.976,22.876 L 122.906,23.2461 L 122.789,23.6044 L 122.629,23.9453
 L 122.427,24.2634 L 122.187,24.5536 L 121.912,24.8115 L 121.607,25.033 L 121.277,25.2145 L 120.927,25.3532
 L 120.562,25.4469 L 120.188,25.4941 z
M -120.094,31.497 L -120.281,31.4734 L -120.464,31.4266 L -120.639,31.3572 L -120.804,31.2665 L -120.956,31.1558
 L -121.093,31.0268 L -121.214,30.8817 L -121.314,30.7226 L -121.395,30.5522 L -121.453,30.373 L -121.488,30.188
 L -121.5,30 L -121.488,29.812 L -121.453,29.627 L -121.395,29.4478 L -121.314,29.2774 L -121.214,29.1183
 L -121.093,28.9732 L -120.956,28.8442 L -120.804,28.7335 L -120.639,28.6427 L -120.464,28.5734 L -120.281,28.5266
 L -120.094,28.503 L -119.906,28.503 L -119.719,28.5266 L -119.536,28.5734 L -119.361,28.6427 L -119.196,28.7335
 L -119.044,28.8442 L -118.907,28.9732 L -118.786,29.1183 L -118.686,29.2774 L -118.605,29.4478 L -118.547,29.627
 L -118.512,29.812 L -118.5,30 L -118.512,30.188 L -118.547,30.373 L -118.605,30.5522 L -118.686,30.7226
 L -118.786,30.8817 L -118.907,31.0268 L -119.044,31.1558 L -119.196,31.2665 L -119.361,31.3572 L -119.536,31.4266
 L -119.719,31.4734 L -119.906,31.497 z
M 119.906,31.497 L 119.719,31.4734 L 119.536,31.4266 L 119.361,31.3572 L 119.196,31.2665 L 119.044,31.1558
 L 118.907,31.0268 L 118.786,30.8817 L 118.686,30.7226 L 118.605,30.5522 L 118.547,30.373 L 118.512,30.188
 L 118.5,30 L 118.512,29.812 L 118.547,29.627 L 118.605,29.4478 L 118.686,29.2774 L 118.786,29.1183
 L 118.907,28.9732 L 119.044,28.8442 L 119.196,28.7335 L 119.361,28.6427 L 119.536,28.5734 L 119.719,28.5266
 L 119.906,28.503 L 120.094,28.503 L 120.281,28.5266 L 120.464,28.5734 L 120.639,28.6427 L 120.804,28.7335
 L 120.956,28.8442 L 121.093,28.9732 L 121.214,29.1183 L 121.314,29.2774 L 121.395,29.4478 L 121.453,29.627
 L 121.488,29.812 L 121.5,30 L 121.488,30.188 L 121.453,30.373 L 121.395,30.5522 L 121.314,30.7226
 L 121.214,30.8817 L 121.093,31.0268 L 120.956,31.1558 L 120.804,31.2665 L 120.639,31.3572 L 120.464,31.4266
 L 120.281,31.4734 L 120.094,31.497 z
M 119.812,40.4941 L 119.438,40.4469 L 119.073,40.3532 L 118.723,40.2145 L 118.393,40.033 L 118.088,39.8115
 L 117.813,39.5536 L 117.573,39.2634 L 117.371,38.9453 L 117.211,38.6044 L 117.094,38.2461 L 117.024,37.876
 L 117,37.5 L 117.024,37.124 L 117.094,36.7539 L 117.211,36.3956 L 117.371,36.0547 L 117.573,35.7366
 L 117.813,35.4464 L 118.088,35.1885 L 118.393,34.967 L 118.723,34.7855 L 119.073,34.6468 L 119.438,34.5531
 L 119.812,34.5059 L 120.188,34.5059 L 120.562,34.5531 L 120.927,34.6468 L 121.277,34.7855 L 121.607,34.967
 L 121.912,35.1885 L 122.187,35.4464 L 122.427,35.7366 L 122.629,36.0547 L 122.789,36.3956 L 122.906,36.7539
 L 122.976,37.124 L 123,37.5 L 122.976,37.876 L 122.906,38.2461 L 122.789,38.6044 L 122.629,38.9453
 L 122.427,39.2634 L 122.187,39.5536 L 121.912,39.8115 L 121.607,40.033 L 121.277,40.2145 L 120.927,40.3532
 L 120.562,40.4469 L 120.188,40.4941 z
M -120.188,40.4941 L -120.562,40.4469 L -120.927,40.3532 L -121.277,40.2145 L -121.607,40.033 L -121.912,39.8115
 L -122.187,39.5536 L -122.427,39.2634 L -122.629,38.9453 L -122.789,38.6044 L -122.906,38.2461 L -122.976,37.876
 L -123,37.5 L -122.976,37.124 L -122.906,36.7539 L -122.789,36.3956 L -122.629,36.0547 L -122.427,35.7366
 L -122.187,35.4464 L -121.912,35.1885 L -121.607,34.967 L -121.277,34.7855 L -120.927,34.6468 L -120.562,34.5531
 L -120.188,34.5059 L -119.812,34.5059 L -119.438,34.5531 L -119.073,34.6468 L -118.723,34.7855 L -118.393,34.967
 L -118.088,35.1885 L -117.813,35.4464 L -117.573,35.7366 L -117.371,36.0547 L -117.211,36.3956 L -117.094,36.7539
 L -117.024,37.124 L -117,37.5 L -117.024,37.876 L -117.094,38.2461 L -117.211,38.6044 L -117.371,38.9453
 L -117.573,39.2634 L -117.813,39.5536 L -118.088,39.8115 L -118.393,40.033 L -118.723,40.2145 L -119.073,40.3532
 L -119.438,40.4469 L -119.812,40.4941 z
M -120.094,46.497 L -120.281,46.4734 L -120.464,46.4266 L -120.639,46.3572 L -120.804,46.2665 L -120.956,46.1558
 L -121.093,46.0268 L -121.214,45.8817 L -121.314,45.7226 L -121.395,45.5522 L -121.453,45.373 L -121.488,45.188
 L -121.5,45 L -121.488,44.812 L -121.453,44.627 L -121.395,44.4478 L -121.314,44.2774 L -121.214,44.1183
 L -121.093,43.9732 L -120.956,43.8442 L -120.804,43.7335 L -120.639,43.6428 L -120.464,43.5734 L -120.281,43.5266
 L -120.094,43.503 L -119.906,43.503 L -119.719,43.5266 L -119.536,43.5734 L -119.361,43.6428 L -119.196,43.7335
 L -119.044,43.8442 L -118.907,43.9732 L -118.786,44.1183 L -118.686,44.2774 L -118.605,44.4478 L -118.547,44.627
 L -118.512,44.812 L -118.5,45 L -118.512,45.188 L -118.547,45.373 L -118.605,45.5522 L -118.686,45.7226
 L -118.786,45.8817 L -118.907,46.0268 L -119.044,46.1558 L -119.196,46.2665 L -119.361,46.3572 L -119.536,46.4266
 L -119.719,46.4734 L -119.906,46.497 z
M 119.906,46.497 L 119.719,46.4734 L 119.536,46.4266 L 119.361,46.3572 L 119.196,46.2665 L 119.044,46.1558
 L 118.907,46.0268 L 118.786,45.8817 L 118.686,45.7226 L 118.605,45.5522 L 118.547,45.373 L 118.512,45.188
 L 118.5,45 L 118.512,44.812 L 118.547,44.627 L 118.605,44.4478 L 118.686,44.2774 L 118.786,44.1183
 L 118.907,43.9732 L 119.044,43.8442 L 119.196,43.7335 L 119.361,43.6428 L 119.536,43.5734 L 119.719,43.5266
 L 119.906,43.503 L 120.094,43.503 L 120.281,43.5266 L 120.464,43.5734 L 120.639,43.6428 L 120.804,43.7335
 L 120.956,43.8442 L 121.093,43.9732 L 121.214,44.1183 L 121.314,44.2774 L 121.395,44.4478 L 121.453,44.627
 L 121.488,44.812 L 121.5,45 L 121.488,45.188 L 121.453,45.373 L 121.395,45.5522 L 121.314,45.7226
 L 121.214,45.8817 L 121.093,46.0268 L 120.956,46.1558 L 120.804,46.2665 L 120.639,46.3572 L 120.464,46.4266
 L 120.281,46.4734 L 120.094,46.497 z
M -120.188,55.4941 L -120.562,55.4469 L -120.927,55.3532 L -121.277,55.2145 L -121.607,55.033 L -121.912,54.8115
 L -122.187,54.5536 L -122.427,54.2634 L -122.629,53.9453 L -122.789,53.6044 L -122.906,53.2461 L -122.976,52.876
 L -123,52.5 L -122.976,52.124 L -122.906,51.7539 L -122.789,51.3956 L -122.629,51.0547 L -122.427,50.7366
 L -122.187,50.4464 L -121.912,50.1885 L -121.607,49.967 L -121.277,49.7855 L -120.927,49.6468 L -120.562,49.5531
 L -120.188,49.5059 L -119.812,49.5059 L -119.438,49.5531 L -119.073,49.6468 L -118.723,49.7855 L -118.393,49.967
 L -118.088,50.1885 L -117.813,50.4464 L -117.573,50.7366 L -117.371,51.0547 L -117.211,51.3956 L -117.094,51.7539
 L -117.024,52.124 L -117,52.5 L -117.024,52.876 L -117.094,53.2461 L -117.211,53.6044 L -117.371,53.9453
 L -117.573,54.2634 L -117.813,54.5536 L -118.088,54.8115 L -118.393,55.033 L -118.723,55.2145 L -119.073,55.3532
 L -119.438,55.4469 L -119.812,55.4941 z
M 119.812,55.4941 L 119.438,55.4469 L 119.073,55.3532 L 118.723,55.2145 L 118.393,55.033 L 118.088,54.8115
 L 117.813,54.5536 L 117.573,54.2634 L 117.371,53.9453 L 117.211,53.6044 L 117.094,53.2461 L 117.024,52.876
 L 117,52.5 L 117.024,52.124 L 117.094,51.7539 L 117.211,51.3956 L 117.371,51.0547 L 117.573,50.7366
 L 117.813,50.4464 L 118.088,50.1885 L 118.393,49.967 L 118.723,49.7855 L 119.073,49.6468 L 119.438,49.5531
 L 119.812,49.5059 L 120.188,49.5059 L 120.562,49.5531 L 120.927,49.6468 L 121.277,49.7855 L 121.607,49.967
 L 121.912,50.1885 L 122.187,50.4464 L 122.427,50.7366 L 122.629,51.0547 L 122.789,51.3956 L 122.906,51.7539
 L 122.976,52.124 L 123,52.5 L 122.976,52.876 L 122.906,53.2461 L 122.789,53.6044 L 122.629,53.9453
 L 122.427,54.2634 L 122.187,54.5536 L 121.912,54.8115 L 121.607,55.033 L 121.277,55.2145 L 120.927,55.3532
 L 120.562,55.4469 L 120.188,55.4941 z
" stroke="black" fill="lightgray" stroke-width="0.5"/>
</svg>
