<?xml version="1.0" standalone="no"?>
<!DOCTYPE svg PUBLIC "-//W3C//DTD SVG 1.1//EN" "http://www.w3.org/Graphics/SVG/1.1/DTD/svg11.dtd">
<svg width="74mm" height="30mm" viewBox="-37 -15 74 30" xmlns="http://www.w3.org/2000/svg" version="1.1">
<title>OpenSCAD Model</title>
<path d="
M 32.9369,14.4114 L 33.5451,14.2553 L 34.1289,14.0241 L 34.6791,13.7216 L 35.1871,13.3526 L 35.6448,12.9227
 L 36.0451,12.4389 L 36.3815,11.9088 L 36.6489,11.3406 L 36.8429,10.7434 L 36.9606,10.1267 L 37,9.5
 L 37,-9.5 L 36.9606,-10.1267 L 36.8429,-10.7434 L 36.6489,-11.3406 L 36.3815,-11.9088 L 36.0451,-12.4389
 L 35.6448,-12.9227 L 35.1871,-13.3526 L 34.6791,-13.7216 L 34.1289,-14.0241 L 33.5451,-14.2553 L 32.9369,-14.4114
 L 32.3139,-14.4901 L -32.3139,-14.4901 L -32.9369,-14.4114 L -33.5451,-14.2553 L -34.1289,-14.0241 L -34.6791,-13.7216
 L -35.1871,-13.3526 L -35.6448,-12.9227 L -36.0451,-12.4389 L -36.3815,-11.9088 L -36.6489,-11.3406 L -36.8429,-10.7434
 L -36.9606,-10.1267 L -37,-9.5 L -37,9.5 L -36.9606,10.1267 L -36.8429,10.7434 L -36.6489,11.3406
 L -36.3815,11.9088 L -36.0451,12.4389 L -35.6448,12.9227 L -35.1871,13.3526 L -34.6791,13.7216 L -34.1289,14.0241
 L -33.5451,14.2553 L -32.9369,14.4114 L -32.3139,14.4901 L 32.3139,14.4901 z
M -30.1884,-4.50591 L -30.5621,-4.55313 L -30.927,-4.64682 L -31.2773,-4.78551 L -31.6075,-4.96701 L -31.9123,-5.18845
 L -32.1869,-5.44635 L -32.427,-5.73663 L -32.6289,-6.05473 L -32.7893,-6.39561 L -32.9057,-6.75392 L -32.9763,-7.12399
 L -33,-7.5 L -32.9763,-7.87599 L -32.9057,-8.24606 L -32.7893,-8.60437 L -32.6289,-8.94525 L -32.427,-9.26335
 L -32.1869,-9.55363 L -31.9123,-9.81154 L -31.6075,-10.033 L -31.2773,-10.2145 L -30.927,-10.3532 L -30.5621,-10.4469
 L -30.1884,-10.4941 L -29.8116,-10.4941 L -29.4379,-10.4469 L -29.0729,-10.3532 L -28.7227,-10.2145 L -28.3925,-10.033
 L -28.0877,-9.81154 L -27.8131,-9.55363 L -27.5729,-9.26335 L -27.3711,-8.94525 L -27.2107,-8.60437 L -27.0942,-8.24606
 L -27.0237,-7.87599 L -27,-7.5 L -27.0237,-7.12399 L -27.0942,-6.75392 L -27.2107,-6.39561 L -27.3711,-6.05473
 L -27.5729,-5.73663 L -27.8131,-5.44635 L -28.0877,-5.18845 L -28.3925,-4.96701 L -28.7227,-4.78551 L -29.0729,-4.64682
 L -29.4379,-4.55313 L -29.8116,-4.50591 z
M 29.8116,-4.50591 L 29.4379,-4.55313 L 29.0729,-4.64682 L 28.7227,-4.78551 L 28.3925,-4.96701 L 28.0877,-5.18845
 L 27.8131,-5.44635 L 27.5729,-5.73663 L 27.3711,-6.05473 L 27.2107,-6.39561 L 27.0942,-6.75392 L 27.0237,-7.12399
 L 27,-7.5 L 27.0237,-7.87599 L 27.0942,-8.24606 L 27.2107,-8.60437 L 27.3711,-8.94525 L 27.5729,-9.26335
 L 27.8131,-9.55363 L 28.0877,-9.81154 L 28.3925,-10.033 L 28.7227,-10.2145 L 29.0729,-10.3532 L 29.4379,-10.4469
 L 29.8116,-10.4941 L 30.1884,-10.4941 L 30.5621,-10.4469 L 30.927,-10.3532 L 31.2773,-10.2145 L 31.6075,-10.033
 L 31.9123,-9.81154 L 32.1869,-9.55363 L 32.427,-9.26335 L 32.6289,-8.94525 L 32.7893,-8.60437 L 32.9057,-8.24606
 L 32.9763,-7.87599 L 33,-7.5 L 32.9763,-7.12399 L 32.9057,-6.75392 L 32.7893,-6.39561 L 32.6289,-6.05473
 L 32.427,-5.73663 L 32.1869,-5.44635 L 31.9123,-5.18845 L 31.6075,-4.96701 L 31.2773,-4.78551 L 30.927,-4.64682
 L 30.5621,-4.55313 L 30.1884,-4.50591 z
M -0.470917,7.4852 L -1.40535,7.36714 L -2.31763,7.13292 L -3.19334,6.78619 L -4.01869,6.33246 L -4.78067,5.77884
 L -5.46725,5.13409 L -6.06763,4.40839 L -6.5723,3.61314 L -6.97331,2.76093 L -7.26436,1.86517 L -7.44086,0.939987
 L -7.5,-0 L -7.44086,-0.939987 L -7.26436,-1.86517 L -6.97331,-2.76093 L -6.5723,-3.61314 L -6.06763,-4.40839
 L -5.46725,-5.13409 L -4.78067,-5.77884 L -4.01869,-6.33246 L -3.19334,-6.78619 L -2.31763,-7.13292 L -1.40535,-7.36714
 L -0.470917,-7.4852 L 0.470917,-7.4852 L 1.40535,-7.36714 L 2.31763,-7.13292 L 3.19334,-6.78619 L 4.01869,-6.33246
 L 4.78067,-5.77884 L 5.46725,-5.13409 L 6.06763,-4.40839 L 6.5723,-3.61314 L 6.97331,-2.76093 L 7.26436,-1.86517
 L 7.44086,-0.939987 L 7.5,-0 L 7.44086,0.939987 L 7.26436,1.86517 L 6.97331,2.76093 L 6.5723,3.61314
 L 6.06763,4.40839 L 5.46725,5.13409 L 4.78067,5.77884 L 4.01869,6.33246 L 3.19334,6.78619 L 2.31763,7.13292
 L 1.40535,7.36714 L 0.470917,7.4852 z
M -20.4709,7.4852 L -21.4053,7.36714 L -22.3176,7.13292 L -23.1933,6.78619 L -24.0187,6.33246 L -24.7807,5.77884
 L -25.4673,5.13409 L -26.0676,4.40839 L -26.5723,3.61314 L -26.9733,2.76093 L -27.2644,1.86517 L -27.4409,0.939987
 L -27.5,-0 L -27.4409,-0.939987 L -27.2644,-1.86517 L -26.9733,-2.76093 L -26.5723,-3.61314 L -26.0676,-4.40839
 L -25.4673,-5.13409 L -24.7807,-5.77884 L -24.0187,-6.33246 L -23.1933,-6.78619 L -22.3176,-7.13292 L -21.4053,-7.36714
 L -20.4709,-7.4852 L -19.5291,-7.4852 L -18.5946,-7.36714 L -17.6824,-7.13292 L -16.8067,-6.78619 L -15.9813,-6.33246
 L -15.2193,-5.77884 L -14.5327,-5.13409 L -13.9324,-4.40839 L -13.4277,-3.61314 L -13.0267,-2.76093 L -12.7356,-1.86517
 L -12.5591,-0.939987 L -12.5,-0 L -12.5591,0.939987 L -12.7356,1.86517 L -13.0267,2.76093 L -13.4277,3.61314
 L -13.9324,4.40839 L -14.5327,5.13409 L -15.2193,5.77884 L -15.9813,6.33246 L -16.8067,6.78619 L -17.6824,7.13292
 L -18.5946,7.36714 L -19.5291,7.4852 z
M 19.5291,7.4852 L 18.5946,7.36714 L 17.6824,7.13292 L 16.8067,6.78619 L 15.9813,6.33246 L 15.2193,5.77884
 L 14.5327,5.13409 L 13.9324,4.40839 L 13.4277,3.61314 L 13.0267,2.76093 L 12.7356,1.86517 L 12.5591,0.939987
 L 12.5,-0 L 12.5591,-0.939987 L 12.7356,-1.86517 L 13.0267,-2.76093 L 13.4277,-3.61314 L 13.9324,-4.40839
 L 14.5327,-5.13409 L 15.2193,-5.77884 L 15.9813,-6.33246 L 16.8067,-6.78619 L 17.6824,-7.13292 L 18.5946,-7.36714
 L 19.5291,-7.4852 L 20.4709,-7.4852 L 21.4053,-7.36714 L 22.3176,-7.13292 L 23.1933,-6.78619 L 24.0187,-6.33246
 L 24.7807,-5.77884 L 25.4673,-5.13409 L 26.0676,-4.40839 L 26.5723,-3.61314 L 26.9733,-2.76093 L 27.2644,-1.86517
 L 27.4409,-0.939987 L 27.5,-0 L 27.4409,0.939987 L 27.2644,1.86517 L 26.9733,2.76093 L 26.5723,3.61314
 L 26.0676,4.40839 L 25.4673,5.13409 L 24.7807,5.77884 L 24.0187,6.33246 L 23.1933,6.78619 L 22.3176,7.13292
 L 21.4053,7.36714 L 20.4709,7.4852 z
M -30.1884,10.4941 L -30.5621,10.4469 L -30.927,10.3532 L -31.2773,10.2145 L -31.6075,10.033 L -31.9123,9.81154
 L -32.1869,9.55363 L -32.427,9.26335 L -32.6289,8.94525 L -32.7893,8.60437 L -32.9057,8.24606 L -32.9763,7.87599
 L -33,7.5 L -32.9763,7.12399 L -32.9057,6.75392 L -32.7893,6.39561 L -32.6289,6.05473 L -32.427,5.73663
 L -32.1869,5.44635 L -31.9123,5.18845 L -31.6075,4.96701 L -31.2773,4.78551 L -30.927,4.64682 L -30.5621,4.55313
 L -30.1884,4.50591 L -29.8116,4.50591 L -29.4379,4.55313 L -29.0729,4.64682 L -28.7227,4.78551 L -28.3925,4.96701
 L -28.0877,5.18845 L -27.8131,5.44635 L -27.5729,5.73663 L -27.3711,6.05473 L -27.2107,6.39561 L -27.0942,6.75392
 L -27.0237,7.12399 L -27,7.5 L -27.0237,7.87599 L -27.0942,8.24606 L -27.2107,8.60437 L -27.3711,8.94525
 L -27.5729,9.26335 L -27.8131,9.55363 L -28.0877,9.81154 L -28.3925,10.033 L -28.7227,10.2145 L -29.0729,10.3532
 L -29.4379,10.4469 L -29.8116,10.4941 z
M 29.8116,10.4941 L 29.4379,10.4469 L 29.0729,10.3532 L 28.7227,10.2145 L 28.3925,10.033 L 28.0877,9.81154
 L 27.8131,9.55363 L 27.5729,9.26335 L 27.3711,8.94525 L 27.2107,8.60437 L 27.0942,8.24606 L 27.0237,7.87599
 L 27,7.5 L 27.0237,7.12399 L 27.0942,6.75392 L 27.2107,6.39561 L 27.3711,6.05473 L 27.5729,5.73663
 L 27.8131,5.44635 L 28.0877,5.18845 L 28.3925,4.96701 L 28.7227,4.78551 L 29.0729,4.64682 L 29.4379,4.55313
 L 29.8116,4.50591 L 30.1884,4.50591 L 30.5621,4.55313 L 30.927,4.64682 L 31.2773,4.78551 L 31.6075,4.96701
 L 31.9123,5.18845 L 32.1869,5.44635 L 32.427,5.73663 L 32.6289,6.05473 L 32.7893,6.39561 L 32.9057,6.75392
 L 32.9763,7.12399 L 33,7.5 L 32.9763,7.87599 L 32.9057,8.24606 L 32.7893,8.60437 L 32.6289,8.94525
 L 32.427,9.26335 L 32.1869,9.55363 L 31.9123,9.81154 L 31.6075,10.033 L 31.2773,10.2145 L 30.927,10.3532
 L 30.5621,10.4469 L 30.1884,10.4941 z
" stroke="black" fill="lightgray" stroke-width="0.5"/>
</svg>
