<?xml version="1.0" standalone="no"?>
<!DOCTYPE svg PUBLIC "-//W3C//DTD SVG 1.1//EN" "http://www.w3.org/Graphics/SVG/1.1/DTD/svg11.dtd">
<svg width="314mm" height="74mm" viewBox="-157 -37 314 74" xmlns="http://www.w3.org/2000/svg" version="1.1">
<title>OpenSCAD Model</title>
<path d="
M 152.937,36.9114 L 153.545,36.7553 L 154.129,36.5241 L 154.679,36.2216 L 155.187,35.8526 L 155.645,35.4227
 L 156.045,34.9389 L 156.382,34.4088 L 156.649,33.8406 L 156.843,33.2434 L 156.961,32.6267 L 157,32
 L 157,-32 L 156.961,-32.6267 L 156.843,-33.2434 L 156.649,-33.8406 L 156.382,-34.4088 L 156.045,-34.9389
 L 155.645,-35.4227 L 155.187,-35.8526 L 154.679,-36.2216 L 154.129,-36.5241 L 153.545,-36.7553 L 152.937,-36.9114
 L 152.314,-36.9901 L -152.314,-36.9901 L -152.937,-36.9114 L -153.545,-36.7553 L -154.129,-36.5241 L -154.679,-36.2216
 L -155.187,-35.8526 L -155.645,-35.4227 L -156.045,-34.9389 L -156.382,-34.4088 L -156.649,-33.8406 L -156.843,-33.2434
 L -156.961,-32.6267 L -157,-32 L -157,32 L -156.961,32.6267 L -156.843,33.2434 L -156.649,33.8406
 L -156.382,34.4088 L -156.045,34.9389 L -155.645,35.4227 L -155.187,35.8526 L -154.679,36.2216 L -154.129,36.5241
 L -153.545,36.7553 L -152.937,36.9114 L -152.314,36.9901 L 152.314,36.9901 z
M 107.365,33.9329 L 103.129,33.3978 L 98.9934,32.3359 L 95.0235,30.7641 L 91.2819,28.7071 L 87.8276,26.1974
 L 84.7151,23.2746 L 81.9934,19.9847 L 79.7056,16.3796 L 77.8876,12.5162 L 76.5682,8.45544 L 75.7681,4.26132
 L 75.5,-0 L 75.7681,-4.26132 L 76.5682,-8.45544 L 77.8876,-12.5162 L 79.7056,-16.3796 L 81.9934,-19.9847
 L 84.7151,-23.2746 L 87.8276,-26.1974 L 91.2819,-28.7071 L 95.0235,-30.7641 L 98.9934,-32.3359 L 103.129,-33.3978
 L 107.365,-33.9329 L 111.635,-33.9329 L 115.871,-33.3978 L 120.007,-32.3359 L 123.976,-30.7641 L 127.718,-28.7071
 L 131.172,-26.1974 L 134.285,-23.2746 L 137.007,-19.9847 L 139.294,-16.3796 L 141.112,-12.5162 L 142.432,-8.45544
 L 143.232,-4.26132 L 143.5,-0 L 143.232,4.26132 L 142.432,8.45544 L 141.112,12.5162 L 139.294,16.3796
 L 137.007,19.9847 L 134.285,23.2746 L 131.172,26.1974 L 127.718,28.7071 L 123.976,30.7641 L 120.007,32.3359
 L 115.871,33.3978 L 111.635,33.9329 z
M -38.6349,33.9329 L -42.871,33.3978 L -47.0066,32.3359 L -50.9765,30.7641 L -54.7181,28.7071 L -58.1724,26.1974
 L -61.2849,23.2746 L -64.0066,19.9847 L -66.2944,16.3796 L -68.1124,12.5162 L -69.4318,8.45544 L -70.2319,4.26132
 L -70.5,-0 L -70.2319,-4.26132 L -69.4318,-8.45544 L -68.1124,-12.5162 L -66.2944,-16.3796 L -64.0066,-19.9847
 L -61.2849,-23.2746 L -58.1724,-26.1974 L -54.7181,-28.7071 L -50.9765,-30.7641 L -47.0066,-32.3359 L -42.871,-33.3978
 L -38.6349,-33.9329 L -34.3651,-33.9329 L -30.129,-33.3978 L -25.9934,-32.3359 L -22.0235,-30.7641 L -18.2819,-28.7071
 L -14.8276,-26.1974 L -11.7151,-23.2746 L -8.99341,-19.9847 L -6.70557,-16.3796 L -4.88759,-12.5162 L -3.56816,-8.45544
 L -2.7681,-4.26132 L -2.5,-0 L -2.7681,4.26132 L -3.56816,8.45544 L -4.88759,12.5162 L -6.70557,16.3796
 L -8.99341,19.9847 L -11.7151,23.2746 L -14.8276,26.1974 L -18.2819,28.7071 L -22.0235,30.7641 L -25.9934,32.3359
 L -30.129,33.3978 L -34.3651,33.9329 z
M 34.3651,33.9329 L 30.129,33.3978 L 25.9934,32.3359 L 22.0235,30.7641 L 18.2819,28.7071 L 14.8276,26.1974
 L 11.7151,23.2746 L 8.99341,19.9847 L 6.70557,16.3796 L 4.88759,12.5162 L 3.56816,8.45544 L 2.7681,4.26132
 L 2.5,-0 L 2.7681,-4.26132 L 3.56816,-8.45544 L 4.88759,-12.5162 L 6.70557,-16.3796 L 8.99341,-19.9847
 L 11.7151,-23.2746 L 14.8276,-26.1974 L 18.2819,-28.7071 L 22.0235,-30.7641 L 25.9934,-32.3359 L 30.129,-33.3978
 L 34.3651,-33.9329 L 38.6349,-33.9329 L 42.871,-33.3978 L 47.0066,-32.3359 L 50.9765,-30.7641 L 54.7181,-28.7071
 L 58.1724,-26.1974 L 61.2849,-23.2746 L 64.0066,-19.9847 L 66.2944,-16.3796 L 68.1124,-12.5162 L 69.4318,-8.45544
 L 70.2319,-4.26132 L 70.5,-0 L 70.2319,4.26132 L 69.4318,8.45544 L 68.1124,12.5162 L 66.2944,16.3796
 L 64.0066,19.9847 L 61.2849,23.2746 L 58.1724,26.1974 L 54.7181,28.7071 L 50.9765,30.7641 L 47.0066,32.3359
 L 42.871,33.3978 L 38.6349,33.9329 z
M -111.635,33.9329 L -115.871,33.3978 L -120.007,32.3359 L -123.976,30.7641 L -127.718,28.7071 L -131.172,26.1974
 L -134.285,23.2746 L -137.007,19.9847 L -139.294,16.3796 L -141.112,12.5162 L -142.432,8.45544 L -143.232,4.26132
 L -143.5,-0 L -143.232,-4.26132 L -142.432,-8.45544 L -141.112,-12.5162 L -139.294,-16.3796 L -137.007,-19.9847
 L -134.285,-23.2746 L -131.172,-26.1974 L -127.718,-28.7071 L -123.976,-30.7641 L -120.007,-32.3359 L -115.871,-33.3978
 L -111.635,-33.9329 L -107.365,-33.9329 L -103.129,-33.3978 L -98.9934,-32.3359 L -95.0235,-30.7641 L -91.2819,-28.7071
 L -87.8276,-26.1974 L -84.7151,-23.2746 L -81.9934,-19.9847 L -79.7056,-16.3796 L -77.8876,-12.5162 L -76.5682,-8.45544
 L -75.7681,-4.26132 L -75.5,-0 L -75.7681,4.26132 L -76.5682,8.45544 L -77.8876,12.5162 L -79.7056,16.3796
 L -81.9934,19.9847 L -84.7151,23.2746 L -87.8276,26.1974 L -91.2819,28.7071 L -95.0235,30.7641 L -98.9934,32.3359
 L -103.129,33.3978 L -107.365,33.9329 z
M 149.812,-27.0059 L 149.438,-27.0531 L 149.073,-27.1468 L 148.723,-27.2855 L 148.393,-27.467 L 148.088,-27.6884
 L 147.813,-27.9464 L 147.573,-28.2366 L 147.371,-28.5547 L 147.211,-28.8956 L 147.094,-29.2539 L 147.024,-29.624
 L 147,-30 L 147.024,-30.376 L 147.094,-30.7461 L 147.211,-31.1044 L 147.371,-31.4453 L 147.573,-31.7634
 L 147.813,-32.0536 L 148.088,-32.3115 L 148.393,-32.533 L 148.723,-32.7145 L 149.073,-32.8532 L 149.438,-32.9469
 L 149.812,-32.9941 L 150.188,-32.9941 L 150.562,-32.9469 L 150.927,-32.8532 L 151.277,-32.7145 L 151.607,-32.533
 L 151.912,-32.3115 L 152.187,-32.0536 L 152.427,-31.7634 L 152.629,-31.4453 L 152.789,-31.1044 L 152.906,-30.7461
 L 152.976,-30.376 L 153,-30 L 152.976,-29.624 L 152.906,-29.2539 L 152.789,-28.8956 L 152.629,-28.5547
 L 152.427,-28.2366 L 152.187,-27.9464 L 151.912,-27.6884 L 151.607,-27.467 L 151.277,-27.2855 L 150.927,-27.1468
 L 150.562,-27.0531 L 150.188,-27.0059 z
M -150.188,-27.0059 L -150.562,-27.0531 L -150.927,-27.1468 L -151.277,-27.2855 L -151.607,-27.467 L -151.912,-27.6884
 L -152.187,-27.9464 L -152.427,-28.2366 L -152.629,-28.5547 L -152.789,-28.8956 L -152.906,-29.2539 L -152.976,-29.624
 L -153,-30 L -152.976,-30.376 L -152.906,-30.7461 L -152.789,-31.1044 L -152.629,-31.4453 L -152.427,-31.7634
 L -152.187,-32.0536 L -151.912,-32.3115 L -151.607,-32.533 L -151.277,-32.7145 L -150.927,-32.8532 L -150.562,-32.9469
 L -150.188,-32.9941 L -149.812,-32.9941 L -149.438,-32.9469 L -149.073,-32.8532 L -148.723,-32.7145 L -148.393,-32.533
 L -148.088,-32.3115 L -147.813,-32.0536 L -147.573,-31.7634 L -147.371,-31.4453 L -147.211,-31.1044 L -147.094,-30.7461
 L -147.024,-30.376 L -147,-30 L -147.024,-29.624 L -147.094,-29.2539 L -147.211,-28.8956 L -147.371,-28.5547
 L -147.573,-28.2366 L -147.813,-27.9464 L -148.088,-27.6884 L -148.393,-27.467 L -148.723,-27.2855 L -149.073,-27.1468
 L -149.438,-27.0531 L -149.812,-27.0059 z
M 149.906,-21.003 L 149.719,-21.0266 L 149.536,-21.0734 L 149.361,-21.1427 L 149.196,-21.2335 L 149.044,-21.3442
 L 148.907,-21.4732 L 148.786,-21.6183 L 148.686,-21.7774 L 148.605,-21.9478 L 148.547,-22.127 L 148.512,-22.312
 L 148.5,-22.5 L 148.512,-22.688 L 148.547,-22.873 L 148.605,-23.0522 L 148.686,-23.2226 L 148.786,-23.3817
 L 148.907,-23.5268 L 149.044,-23.6558 L 149.196,-23.7665 L 149.361,-23.8572 L 149.536,-23.9266 L 149.719,-23.9734
 L 149.906,-23.997 L 150.094,-23.997 L 150.281,-23.9734 L 150.464,-23.9266 L 150.639,-23.8572 L 150.804,-23.7665
 L 150.956,-23.6558 L 151.093,-23.5268 L 151.214,-23.3817 L 151.314,-23.2226 L 151.395,-23.0522 L 151.453,-22.873
 L 151.488,-22.688 L 151.5,-22.5 L 151.488,-22.312 L 151.453,-22.127 L 151.395,-21.9478 L 151.314,-21.7774
 L 151.214,-21.6183 L 151.093,-21.4732 L 150.956,-21.3442 L 150.804,-21.2335 L 150.639,-21.1427 L 150.464,-21.0734
 L 150.281,-21.0266 L 150.094,-21.003 z
M -150.094,-21.003 L -150.281,-21.0266 L -150.464,-21.0734 L -150.639,-21.1427 L -150.804,-21.2335 L -150.956,-21.3442
 L -151.093,-21.4732 L -151.214,-21.6183 L -151.314,-21.7774 L -151.395,-21.9478 L -151.453,-22.127 L -151.488,-22.312
 L -151.5,-22.5 L -151.488,-22.688 L -151.453,-22.873 L -151.395,-23.0522 L -151.314,-23.2226 L -151.214,-23.3817
 L -151.093,-23.5268 L -150.956,-23.6558 L -150.804,-23.7665 L -150.639,-23.8572 L -150.464,-23.9266 L -150.281,-23.9734
 L -150.094,-23.997 L -149.906,-23.997 L -149.719,-23.9734 L -149.536,-23.9266 L -149.361,-23.8572 L -149.196,-23.7665
 L -149.044,-23.6558 L -148.907,-23.5268 L -148.786,-23.3817 L -148.686,-23.2226 L -148.605,-23.0522 L -148.547,-22.873
 L -148.512,-22.688 L -148.5,-22.5 L -148.512,-22.312 L -148.547,-22.127 L -148.605,-21.9478 L -148.686,-21.7774
 L -148.786,-21.6183 L -148.907,-21.4732 L -149.044,-21.3442 L -149.196,-21.2335 L -149.361,-21.1427 L -149.536,-21.0734
 L -149.719,-21.0266 L -149.906,-21.003 z
M 149.812,-12.0059 L 149.438,-12.0531 L 149.073,-12.1468 L 148.723,-12.2855 L 148.393,-12.467 L 148.088,-12.6884
 L 147.813,-12.9464 L 147.573,-13.2366 L 147.371,-13.5547 L 147.211,-13.8956 L 147.094,-14.2539 L 147.024,-14.624
 L 147,-15 L 147.024,-15.376 L 147.094,-15.7461 L 147.211,-16.1044 L 147.371,-16.4453 L 147.573,-16.7634
 L 147.813,-17.0536 L 148.088,-17.3115 L 148.393,-17.533 L 148.723,-17.7145 L 149.073,-17.8532 L 149.438,-17.9469
 L 149.812,-17.9941 L 150.188,-17.9941 L 150.562,-17.9469 L 150.927,-17.8532 L 151.277,-17.7145 L 151.607,-17.533
 L 151.912,-17.3115 L 152.187,-17.0536 L 152.427,-16.7634 L 152.629,-16.4453 L 152.789,-16.1044 L 152.906,-15.7461
 L 152.976,-15.376 L 153,-15 L 152.976,-14.624 L 152.906,-14.2539 L 152.789,-13.8956 L 152.629,-13.5547
 L 152.427,-13.2366 L 152.187,-12.9464 L 151.912,-12.6884 L 151.607,-12.467 L 151.277,-12.2855 L 150.927,-12.1468
 L 150.562,-12.0531 L 150.188,-12.0059 z
M -150.188,-12.0059 L -150.562,-12.0531 L -150.927,-12.1468 L -151.277,-12.2855 L -151.607,-12.467 L -151.912,-12.6884
 L -152.187,-12.9464 L -152.427,-13.2366 L -152.629,-13.5547 L -152.789,-13.8956 L -152.906,-14.2539 L -152.976,-14.624
 L -153,-15 L -152.976,-15.376 L -152.906,-15.7461 L -152.789,-16.1044 L -152.629,-16.4453 L -152.427,-16.7634
 L -152.187,-17.0536 L -151.912,-17.3115 L -151.607,-17.533 L -151.277,-17.7145 L -150.927,-17.8532 L -150.562,-17.9469
 L -150.188,-17.9941 L -149.812,-17.9941 L -149.438,-17.9469 L -149.073,-17.8532 L -148.723,-17.7145 L -148.393,-17.533
 L -148.088,-17.3115 L -147.813,-17.0536 L -147.573,-16.7634 L -147.371,-16.4453 L -147.211,-16.1044 L -147.094,-15.7461
 L -147.024,-15.376 L -147,-15 L -147.024,-14.624 L -147.094,-14.2539 L -147.211,-13.8956 L -147.371,-13.5547
 L -147.573,-13.2366 L -147.813,-12.9464 L -148.088,-12.6884 L -148.393,-12.467 L -148.723,-12.2855 L -149.073,-12.1468
 L -149.438,-12.0531 L -149.812,-12.0059 z
M -150.094,-6.00294 L -150.281,-6.02657 L -150.464,-6.07341 L -150.639,-6.14275 L -150.804,-6.23351 L -150.956,-6.34422
 L -151.093,-6.47318 L -151.214,-6.61832 L -151.314,-6.77736 L -151.395,-6.9478 L -151.453,-7.12695 L -151.488,-7.312
 L -151.5,-7.5 L -151.488,-7.68799 L -151.453,-7.87303 L -151.395,-8.05219 L -151.314,-8.22263 L -151.214,-8.38167
 L -151.093,-8.52681 L -150.956,-8.65576 L -150.804,-8.76648 L -150.639,-8.85724 L -150.464,-8.92657 L -150.281,-8.97342
 L -150.094,-8.99704 L -149.906,-8.99704 L -149.719,-8.97342 L -149.536,-8.92657 L -149.361,-8.85724 L -149.196,-8.76648
 L -149.044,-8.65576 L -148.907,-8.52681 L -148.786,-8.38167 L -148.686,-8.22263 L -148.605,-8.05219 L -148.547,-7.87303
 L -148.512,-7.68799 L -148.5,-7.5 L -148.512,-7.312 L -148.547,-7.12695 L -148.605,-6.9478 L -148.686,-6.77736
 L -148.786,-6.61832 L -148.907,-6.47318 L -149.044,-6.34422 L -149.196,-6.23351 L -149.361,-6.14275 L -149.536,-6.07341
 L -149.719,-6.02657 L -149.906,-6.00294 z
M 149.906,-6.00294 L 149.719,-6.02657 L 149.536,-6.07341 L 149.361,-6.14275 L 149.196,-6.23351 L 149.044,-6.34422
 L 148.907,-6.47318 L 148.786,-6.61832 L 148.686,-6.77736 L 148.605,-6.9478 L 148.547,-7.12695 L 148.512,-7.312
 L 148.5,-7.5 L 148.512,-7.68799 L 148.547,-7.87303 L 148.605,-8.05219 L 148.686,-8.22263 L 148.786,-8.38167
 L 148.907,-8.52681 L 149.044,-8.65576 L 149.196,-8.76648 L 149.361,-8.85724 L 149.536,-8.92657 L 149.719,-8.97342
 L 149.906,-8.99704 L 150.094,-8.99704 L 150.281,-8.97342 L 150.464,-8.92657 L 150.639,-8.85724 L 150.804,-8.76648
 L 150.956,-8.65576 L 151.093,-8.52681 L 151.214,-8.38167 L 151.314,-8.22263 L 151.395,-8.05219 L 151.453,-7.87303
 L 151.488,-7.68799 L 151.5,-7.5 L 151.488,-7.312 L 151.453,-7.12695 L 151.395,-6.9478 L 151.314,-6.77736
 L 151.214,-6.61832 L 151.093,-6.47318 L 150.956,-6.34422 L 150.804,-6.23351 L 150.639,-6.14275 L 150.464,-6.07341
 L 150.281,-6.02657 L 150.094,-6.00294 z
M 149.812,2.99408 L 149.438,2.94685 L 149.073,2.85316 L 148.723,2.71448 L 148.393,2.53297 L 148.088,2.31154
 L 147.813,2.05363 L 147.573,1.76335 L 147.371,1.44525 L 147.211,1.10437 L 147.094,0.746063 L 147.024,0.375992
 L 147,-0 L 147.024,-0.375992 L 147.094,-0.746063 L 147.211,-1.10437 L 147.371,-1.44525 L 147.573,-1.76335
 L 147.813,-2.05363 L 148.088,-2.31154 L 148.393,-2.53297 L 148.723,-2.71448 L 149.073,-2.85316 L 149.438,-2.94685
 L 149.812,-2.99408 L 150.188,-2.99408 L 150.562,-2.94685 L 150.927,-2.85316 L 151.277,-2.71448 L 151.607,-2.53297
 L 151.912,-2.31154 L 152.187,-2.05363 L 152.427,-1.76335 L 152.629,-1.44525 L 152.789,-1.10437 L 152.906,-0.746063
 L 152.976,-0.375992 L 153,-0 L 152.976,0.375992 L 152.906,0.746063 L 152.789,1.10437 L 152.629,1.44525
 L 152.427,1.76335 L 152.187,2.05363 L 151.912,2.31154 L 151.607,2.53297 L 151.277,2.71448 L 150.927,2.85316
 L 150.562,2.94685 L 150.188,2.99408 z
M -150.188,2.99408 L -150.562,2.94685 L -150.927,2.85316 L -151.277,2.71448 L -151.607,2.53297 L -151.912,2.31154
 L -152.187,2.05363 L -152.427,1.76335 L -152.629,1.44525 L -152.789,1.10437 L -152.906,0.746063 L -152.976,0.375992
 L -153,-0 L -152.976,-0.375992 L -152.906,-0.746063 L -152.789,-1.10437 L -152.629,-1.44525 L -152.427,-1.76335
 L -152.187,-2.05363 L -151.912,-2.31154 L -151.607,-2.53297 L -151.277,-2.71448 L -150.927,-2.85316 L -150.562,-2.94685
 L -150.188,-2.99408 L -149.812,-2.99408 L -149.438,-2.94685 L -149.073,-2.85316 L -148.723,-2.71448 L -148.393,-2.53297
 L -148.088,-2.31154 L -147.813,-2.05363 L -147.573,-1.76335 L -147.371,-1.44525 L -147.211,-1.10437 L -147.094,-0.746063
 L -147.024,-0.375992 L -147,-0 L -147.024,0.375992 L -147.094,0.746063 L -147.211,1.10437 L -147.371,1.44525
 L -147.573,1.76335 L -147.813,2.05363 L -148.088,2.31154 L -148.393,2.53297 L -148.723,2.71448 L -149.073,2.85316
 L -149.438,2.94685 L -149.812,2.99408 z
M 149.906,8.99704 L 149.719,8.97342 L 149.536,8.92657 L 149.361,8.85724 L 149.196,8.76648 L 149.044,8.65576
 L 148.907,8.52681 L 148.786,8.38167 L 148.686,8.22263 L 148.605,8.05219 L 148.547,7.87303 L 148.512,7.68799
 L 148.5,7.5 L 148.512,7.312 L 148.547,7.12695 L 148.605,6.9478 L 148.686,6.77736 L 148.786,6.61832
 L 148.907,6.47318 L 149.044,6.34422 L 149.196,6.23351 L 149.361,6.14275 L 149.536,6.07341 L 149.719,6.02657
 L 149.906,6.00294 L 150.094,6.00294 L 150.281,6.02657 L 150.464,6.07341 L 150.639,6.14275 L 150.804,6.23351
 L 150.956,6.34422 L 151.093,6.47318 L 151.214,6.61832 L 151.314,6.77736 L 151.395,6.9478 L 151.453,7.12695
 L 151.488,7.312 L 151.5,7.5 L 151.488,7.68799 L 151.453,7.87303 L 151.395,8.05219 L 151.314,8.22263
 L 151.214,8.38167 L 151.093,8.52681 L 150.956,8.65576 L 150.804,8.76648 L 150.639,8.85724 L 150.464,8.92657
 L 150.281,8.97342 L 150.094,8.99704 z
M -150.094,8.99704 L -150.281,8.97342 L -150.464,8.92657 L -150.639,8.85724 L -150.804,8.76648 L -150.956,8.65576
 L -151.093,8.52681 L -151.214,8.38167 L -151.314,8.22263 L -151.395,8.05219 L -151.453,7.87303 L -151.488,7.68799
 L -151.5,7.5 L -151.488,7.312 L -151.453,7.12695 L -151.395,6.9478 L -151.314,6.77736 L -151.214,6.61832
 L -151.093,6.47318 L -150.956,6.34422 L -150.804,6.23351 L -150.639,6.14275 L -150.464,6.07341 L -150.281,6.02657
 L -150.094,6.00294 L -149.906,6.00294 L -149.719,6.02657 L -149.536,6.07341 L -149.361,6.14275 L -149.196,6.23351
 L -149.044,6.34422 L -148.907,6.47318 L -148.786,6.61832 L -148.686,6.77736 L -148.605,6.9478 L -148.547,7.12695
 L -148.512,7.312 L -148.5,7.5 L -148.512,7.68799 L -148.547,7.87303 L -148.605,8.05219 L -148.686,8.22263
 L -148.786,8.38167 L -148.907,8.52681 L -149.044,8.65576 L -149.196,8.76648 L -149.361,8.85724 L -149.536,8.92657
 L -149.719,8.97342 L -149.906,8.99704 z
M -150.188,17.9941 L -150.562,17.9469 L -150.927,17.8532 L -151.277,17.7145 L -151.607,17.533 L -151.912,17.3115
 L -152.187,17.0536 L -152.427,16.7634 L -152.629,16.4453 L -152.789,16.1044 L -152.906,15.7461 L -152.976,15.376
 L -153,15 L -152.976,14.624 L -152.906,14.2539 L -152.789,13.8956 L -152.629,13.5547 L -152.427,13.2366
 L -152.187,12.9464 L -151.912,12.6884 L -151.607,12.467 L -151.277,12.2855 L -150.927,12.1468 L -150.562,12.0531
 L -150.188,12.0059 L -149.812,12.0059 L -149.438,12.0531 L -149.073,12.1468 L -148.723,12.2855 L -148.393,12.467
 L -148.088,12.6884 L -147.813,12.9464 L -147.573,13.2366 L -147.371,13.5547 L -147.211,13.8956 L -147.094,14.2539
 L -147.024,14.624 L -147,15 L -147.024,15.376 L -147.094,15.7461 L -147.211,16.1044 L -147.371,16.4453
 L -147.573,16.7634 L -147.813,17.0536 L -148.088,17.3115 L -148.393,17.533 L -148.723,17.7145 L -149.073,17.8532
 L -149.438,17.9469 L -149.812,17.9941 z
M 149.812,17.9941 L 149.438,17.9469 L 149.073,17.8532 L 148.723,17.7145 L 148.393,17.533 L 148.088,17.3115
 L 147.813,17.0536 L 147.573,16.7634 L 147.371,16.4453 L 147.211,16.1044 L 147.094,15.7461 L 147.024,15.376
 L 147,15 L 147.024,14.624 L 147.094,14.2539 L 147.211,13.8956 L 147.371,13.5547 L 147.573,13.2366
 L 147.813,12.9464 L 148.088,12.6884 L 148.393,12.467 L 148.723,12.2855 L 149.073,12.1468 L 149.438,12.0531
 L 149.812,12.0059 L 150.188,12.0059 L 150.562,12.0531 L 150.927,12.1468 L 151.277,12.2855 L 151.607,12.467
 L 151.912,12.6884 L 152.187,12.9464 L 152.427,13.2366 L 152.629,13.5547 L 152.789,13.8956 L 152.906,14.2539
 L 152.976,14.624 L 153,15 L 152.976,15.376 L 152.906,15.7461 L 152.789,16.1044 L 152.629,16.4453
 L 152.427,16.7634 L 152.187,17.0536 L 151.912,17.3115 L 151.607,17.533 L 151.277,17.7145 L 150.927,17.8532
 L 150.562,17.9469 L 150.188,17.9941 z
M -150.094,23.997 L -150.281,23.9734 L -150.464,23.9266 L -150.639,23.8572 L -150.804,23.7665 L -150.956,23.6558
 L -151.093,23.5268 L -151.214,23.3817 L -151.314,23.2226 L -151.395,23.0522 L -151.453,22.873 L -151.488,22.688
 L -151.5,22.5 L -151.488,22.312 L -151.453,22.127 L -151.395,21.9478 L -151.314,21.7774 L -151.214,21.6183
 L -151.093,21.4732 L -150.956,21.3442 L -150.804,21.2335 L -150.639,21.1427 L -150.464,21.0734 L -150.281,21.0266
 L -150.094,21.003 L -149.906,21.003 L -149.719,21.0266 L -149.536,21.0734 L -149.361,21.1427 L -149.196,21.2335
 L -149.044,21.3442 L -148.907,21.4732 L -148.786,21.6183 L -148.686,21.7774 L -148.605,21.9478 L -148.547,22.127
 L -148.512,22.312 L -148.5,22.5 L -148.512,22.688 L -148.547,22.873 L -148.605,23.0522 L -148.686,23.2226
 L -148.786,23.3817 L -148.907,23.5268 L -149.044,23.6558 L -149.196,23.7665 L -149.361,23.8572 L -149.536,23.9266
 L -149.719,23.9734 L -149.906,23.997 z
M 149.906,23.997 L 149.719,23.9734 L 149.536,23.9266 L 149.361,23.8572 L 149.196,23.7665 L 149.044,23.6558
 L 148.907,23.5268 L 148.786,23.3817 L 148.686,23.2226 L 148.605,23.0522 L 148.547,22.873 L 148.512,22.688
 L 148.5,22.5 L 148.512,22.312 L 148.547,22.127 L 148.605,21.9478 L 148.686,21.7774 L 148.786,21.6183
 L 148.907,21.4732 L 149.044,21.3442 L 149.196,21.2335 L 149.361,21.1427 L 149.536,21.0734 L 149.719,21.0266
 L 149.906,21.003 L 150.094,21.003 L 150.281,21.0266 L 150.464,21.0734 L 150.639,21.1427 L 150.804,21.2335
 L 150.956,21.3442 L 151.093,21.4732 L 151.214,21.6183 L 151.314,21.7774 L 151.395,21.9478 L 151.453,22.127
 L 151.488,22.312 L 151.5,22.5 L 151.488,22.688 L 151.453,22.873 L 151.395,23.0522 L 151.314,23.2226
 L 151.214,23.3817 L 151.093,23.5268 L 150.956,23.6558 L 150.804,23.7665 L 150.639,23.8572 L 150.464,23.9266
 L 150.281,23.9734 L 150.094,23.997 z
M -150.188,32.9941 L -150.562,32.9469 L -150.927,32.8532 L -151.277,32.7145 L -151.607,32.533 L -151.912,32.3115
 L -152.187,32.0536 L -152.427,31.7634 L -152.629,31.4453 L -152.789,31.1044 L -152.906,30.7461 L -152.976,30.376
 L -153,30 L -152.976,29.624 L -152.906,29.2539 L -152.789,28.8956 L -152.629,28.5547 L -152.427,28.2366
 L -152.187,27.9464 L -151.912,27.6884 L -151.607,27.467 L -151.277,27.2855 L -150.927,27.1468 L -150.562,27.0531
 L -150.188,27.0059 L -149.812,27.0059 L -149.438,27.0531 L -149.073,27.1468 L -148.723,27.2855 L -148.393,27.467
 L -148.088,27.6884 L -147.813,27.9464 L -147.573,28.2366 L -147.371,28.5547 L -147.211,28.8956 L -147.094,29.2539
 L -147.024,29.624 L -147,30 L -147.024,30.376 L -147.094,30.7461 L -147.211,31.1044 L -147.371,31.4453
 L -147.573,31.7634 L -147.813,32.0536 L -148.088,32.3115 L -148.393,32.533 L -148.723,32.7145 L -149.073,32.8532
 L -149.438,32.9469 L -149.812,32.9941 z
M 149.812,32.9941 L 149.438,32.9469 L 149.073,32.8532 L 148.723,32.7145 L 148.393,32.533 L 148.088,32.3115
 L 147.813,32.0536 L 147.573,31.7634 L 147.371,31.4453 L 147.211,31.1044 L 147.094,30.7461 L 147.024,30.376
 L 147,30 L 147.024,29.624 L 147.094,29.2539 L 147.211,28.8956 L 147.371,28.5547 L 147.573,28.2366
 L 147.813,27.9464 L 148.088,27.6884 L 148.393,27.467 L 148.723,27.2855 L 149.073,27.1468 L 149.438,27.0531
 L 149.812,27.0059 L 150.188,27.0059 L 150.562,27.0531 L 150.927,27.1468 L 151.277,27.2855 L 151.607,27.467
 L 151.912,27.6884 L 152.187,27.9464 L 152.427,28.2366 L 152.629,28.5547 L 152.789,28.8956 L 152.906,29.2539
 L 152.976,29.624 L 153,30 L 152.976,30.376 L 152.906,30.7461 L 152.789,31.1044 L 152.629,31.4453
 L 152.427,31.7634 L 152.187,32.0536 L 151.912,32.3115 L 151.607,32.533 L 151.277,32.7145 L 150.927,32.8532
 L 150.562,32.9469 L 150.188,32.9941 z
" stroke="black" fill="lightgray" stroke-width="0.5"/>
</svg>
