<?xml version="1.0" standalone="no"?>
<!DOCTYPE svg PUBLIC "-//W3C//DTD SVG 1.1//EN" "http://www.w3.org/Graphics/SVG/1.1/DTD/svg11.dtd">
<svg width="60mm" height="14mm" viewBox="-30 -31 60 14" xmlns="http://www.w3.org/2000/svg" version="1.1">
<title>OpenSCAD Model</title>
<path d="
M 25.4369,-17.0886 L 26.0451,-17.2447 L 26.6289,-17.4759 L 27.1791,-17.7784 L 27.6871,-18.1474 L 28.1448,-18.5773
 L 28.5451,-19.0611 L 28.8815,-19.5912 L 29.1489,-20.1594 L 29.3429,-20.7566 L 29.4606,-21.3733 L 29.5,-22
 L 29.5,-26 L 29.4606,-26.6267 L 29.3429,-27.2434 L 29.1489,-27.8406 L 28.8815,-28.4088 L 28.5451,-28.9389
 L 28.1448,-29.4227 L 27.6871,-29.8526 L 27.1791,-30.2216 L 26.6289,-30.5241 L 26.0451,-30.7553 L 25.4369,-30.9114
 L 24.8139,-30.9901 L -24.8139,-30.9901 L -25.4369,-30.9114 L -26.0451,-30.7553 L -26.6289,-30.5241 L -27.1791,-30.2216
 L -27.6871,-29.8526 L -28.1448,-29.4227 L -28.5451,-28.9389 L -28.8815,-28.4088 L -29.1489,-27.8406 L -29.3429,-27.2434
 L -29.4606,-26.6267 L -29.5,-26 L -29.5,-22 L -29.4606,-21.3733 L -29.3429,-20.7566 L -29.1489,-20.1594
 L -28.8815,-19.5912 L -28.5451,-19.0611 L -28.1448,-18.5773 L -27.6871,-18.1474 L -27.1791,-17.7784 L -26.6289,-17.4759
 L -26.0451,-17.2447 L -25.4369,-17.0886 L -24.8139,-17.0099 L 24.8139,-17.0099 z
M 6.24883,-20.0079 L 5.75047,-20.0709 L 5.26393,-20.1958 L 4.79688,-20.3807 L 4.35669,-20.6227 L 3.9503,-20.918
 L 3.58412,-21.2618 L 3.26393,-21.6489 L 2.99477,-22.073 L 2.78088,-22.5275 L 2.62566,-23.0052 L 2.53154,-23.4987
 L 2.5,-24 L 2.53154,-24.5013 L 2.62566,-24.9948 L 2.78088,-25.4725 L 2.99477,-25.927 L 3.26393,-26.3511
 L 3.58412,-26.7382 L 3.9503,-27.082 L 4.35669,-27.3773 L 4.79688,-27.6193 L 5.26393,-27.8042 L 5.75047,-27.9291
 L 6.24883,-27.9921 L 6.75116,-27.9921 L 7.24951,-27.9291 L 7.73605,-27.8042 L 8.20311,-27.6193 L 8.6433,-27.3773
 L 9.04968,-27.082 L 9.41586,-26.7382 L 9.73605,-26.3511 L 10.0052,-25.927 L 10.2191,-25.4725 L 10.3743,-24.9948
 L 10.4684,-24.5013 L 10.5,-24 L 10.4684,-23.4987 L 10.3743,-23.0052 L 10.2191,-22.5275 L 10.0052,-22.073
 L 9.73605,-21.6489 L 9.41586,-21.2618 L 9.04968,-20.918 L 8.6433,-20.6227 L 8.20311,-20.3807 L 7.73605,-20.1958
 L 7.24951,-20.0709 L 6.75116,-20.0079 z
M -19.7512,-20.0079 L -20.2495,-20.0709 L -20.7361,-20.1958 L -21.2031,-20.3807 L -21.6433,-20.6227 L -22.0497,-20.918
 L -22.1633,-21.0247 L -22.3116,-21.0059 L -22.6884,-21.0059 L -23.0621,-21.0531 L -23.427,-21.1468 L -23.7773,-21.2855
 L -24.1075,-21.467 L -24.4123,-21.6885 L -24.6869,-21.9464 L -24.927,-22.2366 L -25.1289,-22.5547 L -25.2893,-22.8956
 L -25.4057,-23.2539 L -25.4763,-23.624 L -25.5,-24 L -25.4763,-24.376 L -25.4057,-24.7461 L -25.2893,-25.1044
 L -25.1289,-25.4453 L -24.927,-25.7634 L -24.6869,-26.0536 L -24.4123,-26.3115 L -24.1075,-26.533 L -23.7773,-26.7145
 L -23.427,-26.8532 L -23.0621,-26.9469 L -22.6884,-26.9941 L -22.3116,-26.9941 L -22.1633,-26.9753 L -22.0497,-27.082
 L -21.6433,-27.3773 L -21.2031,-27.6193 L -20.7361,-27.8042 L -20.2495,-27.9291 L -19.7512,-27.9921 L -19.2488,-27.9921
 L -18.7505,-27.9291 L -18.2639,-27.8042 L -17.7969,-27.6193 L -17.3567,-27.3773 L -16.9503,-27.082 L -16.5841,-26.7382
 L -16.2639,-26.3511 L -15.9948,-25.927 L -15.7809,-25.4725 L -15.6257,-24.9948 L -15.5315,-24.5013 L -15.5,-24
 L -15.5315,-23.4987 L -15.6257,-23.0052 L -15.7809,-22.5275 L -15.9948,-22.073 L -16.2639,-21.6489 L -16.5841,-21.2618
 L -16.9503,-20.918 L -17.3567,-20.6227 L -17.7969,-20.3807 L -18.2639,-20.1958 L -18.7505,-20.0709 L -19.2488,-20.0079
 z
M 19.2488,-20.0079 L 18.7505,-20.0709 L 18.2639,-20.1958 L 17.7969,-20.3807 L 17.3567,-20.6227 L 16.9503,-20.918
 L 16.5841,-21.2618 L 16.2639,-21.6489 L 15.9948,-22.073 L 15.7809,-22.5275 L 15.6257,-23.0052 L 15.5315,-23.4987
 L 15.5,-24 L 15.5315,-24.5013 L 15.6257,-24.9948 L 15.7809,-25.4725 L 15.9948,-25.927 L 16.2639,-26.3511
 L 16.5841,-26.7382 L 16.9503,-27.082 L 17.3567,-27.3773 L 17.7969,-27.6193 L 18.2639,-27.8042 L 18.7505,-27.9291
 L 19.2488,-27.9921 L 19.7512,-27.9921 L 20.2495,-27.9291 L 20.7361,-27.8042 L 21.2031,-27.6193 L 21.6433,-27.3773
 L 22.0497,-27.082 L 22.1633,-26.9753 L 22.3116,-26.9941 L 22.6884,-26.9941 L 23.0621,-26.9469 L 23.427,-26.8532
 L 23.7773,-26.7145 L 24.1075,-26.533 L 24.4123,-26.3115 L 24.6869,-26.0536 L 24.927,-25.7634 L 25.1289,-25.4453
 L 25.2893,-25.1044 L 25.4057,-24.7461 L 25.4763,-24.376 L 25.5,-24 L 25.4763,-23.624 L 25.4057,-23.2539
 L 25.2893,-22.8956 L 25.1289,-22.5547 L 24.927,-22.2366 L 24.6869,-21.9464 L 24.4123,-21.6885 L 24.1075,-21.467
 L 23.7773,-21.2855 L 23.427,-21.1468 L 23.0621,-21.0531 L 22.6884,-21.0059 L 22.3116,-21.0059 L 22.1633,-21.0247
 L 22.0497,-20.918 L 21.6433,-20.6227 L 21.2031,-20.3807 L 20.7361,-20.1958 L 20.2495,-20.0709 L 19.7512,-20.0079
 z
M -6.75116,-20.0079 L -7.24951,-20.0709 L -7.73605,-20.1958 L -8.20311,-20.3807 L -8.6433,-20.6227 L -9.04968,-20.918
 L -9.41586,-21.2618 L -9.73605,-21.6489 L -10.0052,-22.073 L -10.2191,-22.5275 L -10.3743,-23.0052 L -10.4684,-23.4987
 L -10.5,-24 L -10.4684,-24.5013 L -10.3743,-24.9948 L -10.2191,-25.4725 L -10.0052,-25.927 L -9.73605,-26.3511
 L -9.41586,-26.7382 L -9.04968,-27.082 L -8.6433,-27.3773 L -8.20311,-27.6193 L -7.73605,-27.8042 L -7.24951,-27.9291
 L -6.75116,-27.9921 L -6.24883,-27.9921 L -5.75047,-27.9291 L -5.26393,-27.8042 L -4.79688,-27.6193 L -4.35669,-27.3773
 L -3.9503,-27.082 L -3.58412,-26.7382 L -3.26393,-26.3511 L -2.99477,-25.927 L -2.78088,-25.4725 L -2.62566,-24.9948
 L -2.53154,-24.5013 L -2.5,-24 L -2.53154,-23.4987 L -2.62566,-23.0052 L -2.78088,-22.5275 L -2.99477,-22.073
 L -3.26393,-21.6489 L -3.58412,-21.2618 L -3.9503,-20.918 L -4.35669,-20.6227 L -4.79688,-20.3807 L -5.26393,-20.1958
 L -5.75047,-20.0709 L -6.24883,-20.0079 z
" stroke="black" fill="lightgray" stroke-width="0.5"/>
</svg>
