<?xml version="1.0" standalone="no"?>
<!DOCTYPE svg PUBLIC "-//W3C//DTD SVG 1.1//EN" "http://www.w3.org/Graphics/SVG/1.1/DTD/svg11.dtd">
<svg width="224mm" height="74mm" viewBox="-112 -37 224 74" xmlns="http://www.w3.org/2000/svg" version="1.1">
<title>OpenSCAD Model</title>
<path d="
M 107.937,36.9114 L 108.545,36.7553 L 109.129,36.5241 L 109.679,36.2216 L 110.187,35.8526 L 110.645,35.4227
 L 111.045,34.9389 L 111.382,34.4088 L 111.649,33.8406 L 111.843,33.2434 L 111.961,32.6267 L 112,32
 L 112,-32 L 111.961,-32.6267 L 111.843,-33.2434 L 111.649,-33.8406 L 111.382,-34.4088 L 111.045,-34.9389
 L 110.645,-35.4227 L 110.187,-35.8526 L 109.679,-36.2216 L 109.129,-36.5241 L 108.545,-36.7553 L 107.937,-36.9114
 L 107.314,-36.9901 L -107.314,-36.9901 L -107.937,-36.9114 L -108.545,-36.7553 L -109.129,-36.5241 L -109.679,-36.2216
 L -110.187,-35.8526 L -110.645,-35.4227 L -111.045,-34.9389 L -111.382,-34.4088 L -111.649,-33.8406 L -111.843,-33.2434
 L -111.961,-32.6267 L -112,-32 L -112,32 L -111.961,32.6267 L -111.843,33.2434 L -111.649,33.8406
 L -111.382,34.4088 L -111.045,34.9389 L -110.645,35.4227 L -110.187,35.8526 L -109.679,36.2216 L -109.129,36.5241
 L -108.545,36.7553 L -107.937,36.9114 L -107.314,36.9901 L 107.314,36.9901 z
M 104.812,-27.0059 L 104.438,-27.0531 L 104.073,-27.1468 L 103.723,-27.2855 L 103.393,-27.467 L 103.088,-27.6884
 L 102.813,-27.9464 L 102.573,-28.2366 L 102.371,-28.5547 L 102.211,-28.8956 L 102.094,-29.2539 L 102.024,-29.624
 L 102,-30 L 102.024,-30.376 L 102.094,-30.7461 L 102.211,-31.1044 L 102.371,-31.4453 L 102.573,-31.7634
 L 102.813,-32.0536 L 103.088,-32.3115 L 103.393,-32.533 L 103.723,-32.7145 L 104.073,-32.8532 L 104.438,-32.9469
 L 104.812,-32.9941 L 105.188,-32.9941 L 105.562,-32.9469 L 105.927,-32.8532 L 106.277,-32.7145 L 106.607,-32.533
 L 106.912,-32.3115 L 107.187,-32.0536 L 107.427,-31.7634 L 107.629,-31.4453 L 107.789,-31.1044 L 107.906,-30.7461
 L 107.976,-30.376 L 108,-30 L 107.976,-29.624 L 107.906,-29.2539 L 107.789,-28.8956 L 107.629,-28.5547
 L 107.427,-28.2366 L 107.187,-27.9464 L 106.912,-27.6884 L 106.607,-27.467 L 106.277,-27.2855 L 105.927,-27.1468
 L 105.562,-27.0531 L 105.188,-27.0059 z
M -105.188,-27.0059 L -105.562,-27.0531 L -105.927,-27.1468 L -106.277,-27.2855 L -106.607,-27.467 L -106.912,-27.6884
 L -107.187,-27.9464 L -107.427,-28.2366 L -107.629,-28.5547 L -107.789,-28.8956 L -107.906,-29.2539 L -107.976,-29.624
 L -108,-30 L -107.976,-30.376 L -107.906,-30.7461 L -107.789,-31.1044 L -107.629,-31.4453 L -107.427,-31.7634
 L -107.187,-32.0536 L -106.912,-32.3115 L -106.607,-32.533 L -106.277,-32.7145 L -105.927,-32.8532 L -105.562,-32.9469
 L -105.188,-32.9941 L -104.812,-32.9941 L -104.438,-32.9469 L -104.073,-32.8532 L -103.723,-32.7145 L -103.393,-32.533
 L -103.088,-32.3115 L -102.813,-32.0536 L -102.573,-31.7634 L -102.371,-31.4453 L -102.211,-31.1044 L -102.094,-30.7461
 L -102.024,-30.376 L -102,-30 L -102.024,-29.624 L -102.094,-29.2539 L -102.211,-28.8956 L -102.371,-28.5547
 L -102.573,-28.2366 L -102.813,-27.9464 L -103.088,-27.6884 L -103.393,-27.467 L -103.723,-27.2855 L -104.073,-27.1468
 L -104.438,-27.0531 L -104.812,-27.0059 z
M -97.0261,-7.70938 L -95.8231,-11.4118 L -94.1655,-14.9344 L -92.0795,-18.2213 L -89.598,-21.2209 L -86.7601,-23.8859
 L -83.6106,-26.1742 L -80.1992,-28.0496 L -76.5795,-29.4827 L -72.8088,-30.4509 L -68.9465,-30.9388 L -65.0535,-30.9388
 L -61.1912,-30.4509 L -57.4205,-29.4827 L -53.8008,-28.0496 L -50.3894,-26.1742 L -47.2399,-23.8859 L -44.402,-21.2209
 L -41.9205,-18.2213 L -39.8345,-14.9344 L -38.1769,-11.4118 L -36.9739,-7.70938 L -36.2444,-3.88533 L -36,-0
 L -36.2444,3.88533 L -36.9739,7.70938 L -38.1769,11.4118 L -39.8345,14.9344 L -41.9205,18.2213 L -44.402,21.2209
 L -47.2399,23.8859 L -50.3894,26.1742 L -53.8008,28.0496 L -57.4205,29.4827 L -61.1912,30.4509 L -65.0535,30.9388
 L -68.9465,30.9388 L -72.8088,30.4509 L -76.5795,29.4827 L -80.1992,28.0496 L -83.6106,26.1742 L -86.7601,23.8859
 L -89.598,21.2209 L -92.0795,18.2213 L -94.1655,14.9344 L -95.8231,11.4118 L -97.0261,7.70938 L -97.7556,3.88533
 L -98,-0 L -97.7556,-3.88533 z
M -1.9465,30.9388 L -5.80881,30.4509 L -9.57951,29.4827 L -13.1992,28.0496 L -16.6106,26.1742 L -19.7601,23.8859
 L -22.598,21.2209 L -25.0795,18.2213 L -27.1655,14.9344 L -28.8231,11.4118 L -30.0261,7.70938 L -30.7556,3.88533
 L -31,-0 L -30.7556,-3.88533 L -30.0261,-7.70938 L -28.8231,-11.4118 L -27.1655,-14.9344 L -25.0795,-18.2213
 L -22.598,-21.2209 L -19.7601,-23.8859 L -16.6106,-26.1742 L -13.1992,-28.0496 L -9.57951,-29.4827 L -5.80881,-30.4509
 L -1.9465,-30.9388 L 1.9465,-30.9388 L 5.80881,-30.4509 L 9.57951,-29.4827 L 13.1992,-28.0496 L 16.6106,-26.1742
 L 19.7601,-23.8859 L 22.598,-21.2209 L 25.0795,-18.2213 L 27.1655,-14.9344 L 28.8231,-11.4118 L 30.0261,-7.70938
 L 30.7556,-3.88533 L 31,-0 L 30.7556,3.88533 L 30.0261,7.70938 L 28.8231,11.4118 L 27.1655,14.9344
 L 25.0795,18.2213 L 22.598,21.2209 L 19.7601,23.8859 L 16.6106,26.1742 L 13.1992,28.0496 L 9.57951,29.4827
 L 5.80881,30.4509 L 1.9465,30.9388 z
M 65.0535,30.9388 L 61.1912,30.4509 L 57.4205,29.4827 L 53.8008,28.0496 L 50.3894,26.1742 L 47.2399,23.8859
 L 44.402,21.2209 L 41.9205,18.2213 L 39.8345,14.9344 L 38.1769,11.4118 L 36.9739,7.70938 L 36.2444,3.88533
 L 36,-0 L 36.2444,-3.88533 L 36.9739,-7.70938 L 38.1769,-11.4118 L 39.8345,-14.9344 L 41.9205,-18.2213
 L 44.402,-21.2209 L 47.2399,-23.8859 L 50.3894,-26.1742 L 53.8008,-28.0496 L 57.4205,-29.4827 L 61.1912,-30.4509
 L 65.0535,-30.9388 L 68.9465,-30.9388 L 72.8088,-30.4509 L 76.5795,-29.4827 L 80.1992,-28.0496 L 83.6106,-26.1742
 L 86.7601,-23.8859 L 89.598,-21.2209 L 92.0795,-18.2213 L 94.1655,-14.9344 L 95.8231,-11.4118 L 97.0261,-7.70938
 L 97.7556,-3.88533 L 98,-0 L 97.7556,3.88533 L 97.0261,7.70938 L 95.8231,11.4118 L 94.1655,14.9344
 L 92.0795,18.2213 L 89.598,21.2209 L 86.7601,23.8859 L 83.6106,26.1742 L 80.1992,28.0496 L 76.5795,29.4827
 L 72.8088,30.4509 L 68.9465,30.9388 z
M -105.094,-21.003 L -105.281,-21.0266 L -105.464,-21.0734 L -105.639,-21.1427 L -105.804,-21.2335 L -105.956,-21.3442
 L -106.093,-21.4732 L -106.214,-21.6183 L -106.314,-21.7774 L -106.395,-21.9478 L -106.453,-22.127 L -106.488,-22.312
 L -106.5,-22.5 L -106.488,-22.688 L -106.453,-22.873 L -106.395,-23.0522 L -106.314,-23.2226 L -106.214,-23.3817
 L -106.093,-23.5268 L -105.956,-23.6558 L -105.804,-23.7665 L -105.639,-23.8572 L -105.464,-23.9266 L -105.281,-23.9734
 L -105.094,-23.997 L -104.906,-23.997 L -104.719,-23.9734 L -104.536,-23.9266 L -104.361,-23.8572 L -104.196,-23.7665
 L -104.044,-23.6558 L -103.907,-23.5268 L -103.786,-23.3817 L -103.686,-23.2226 L -103.605,-23.0522 L -103.547,-22.873
 L -103.512,-22.688 L -103.5,-22.5 L -103.512,-22.312 L -103.547,-22.127 L -103.605,-21.9478 L -103.686,-21.7774
 L -103.786,-21.6183 L -103.907,-21.4732 L -104.044,-21.3442 L -104.196,-21.2335 L -104.361,-21.1427 L -104.536,-21.0734
 L -104.719,-21.0266 L -104.906,-21.003 z
M 104.906,-21.003 L 104.719,-21.0266 L 104.536,-21.0734 L 104.361,-21.1427 L 104.196,-21.2335 L 104.044,-21.3442
 L 103.907,-21.4732 L 103.786,-21.6183 L 103.686,-21.7774 L 103.605,-21.9478 L 103.547,-22.127 L 103.512,-22.312
 L 103.5,-22.5 L 103.512,-22.688 L 103.547,-22.873 L 103.605,-23.0522 L 103.686,-23.2226 L 103.786,-23.3817
 L 103.907,-23.5268 L 104.044,-23.6558 L 104.196,-23.7665 L 104.361,-23.8572 L 104.536,-23.9266 L 104.719,-23.9734
 L 104.906,-23.997 L 105.094,-23.997 L 105.281,-23.9734 L 105.464,-23.9266 L 105.639,-23.8572 L 105.804,-23.7665
 L 105.956,-23.6558 L 106.093,-23.5268 L 106.214,-23.3817 L 106.314,-23.2226 L 106.395,-23.0522 L 106.453,-22.873
 L 106.488,-22.688 L 106.5,-22.5 L 106.488,-22.312 L 106.453,-22.127 L 106.395,-21.9478 L 106.314,-21.7774
 L 106.214,-21.6183 L 106.093,-21.4732 L 105.956,-21.3442 L 105.804,-21.2335 L 105.639,-21.1427 L 105.464,-21.0734
 L 105.281,-21.0266 L 105.094,-21.003 z
M 104.812,-12.0059 L 104.438,-12.0531 L 104.073,-12.1468 L 103.723,-12.2855 L 103.393,-12.467 L 103.088,-12.6884
 L 102.813,-12.9464 L 102.573,-13.2366 L 102.371,-13.5547 L 102.211,-13.8956 L 102.094,-14.2539 L 102.024,-14.624
 L 102,-15 L 102.024,-15.376 L 102.094,-15.7461 L 102.211,-16.1044 L 102.371,-16.4453 L 102.573,-16.7634
 L 102.813,-17.0536 L 103.088,-17.3115 L 103.393,-17.533 L 103.723,-17.7145 L 104.073,-17.8532 L 104.438,-17.9469
 L 104.812,-17.9941 L 105.188,-17.9941 L 105.562,-17.9469 L 105.927,-17.8532 L 106.277,-17.7145 L 106.607,-17.533
 L 106.912,-17.3115 L 107.187,-17.0536 L 107.427,-16.7634 L 107.629,-16.4453 L 107.789,-16.1044 L 107.906,-15.7461
 L 107.976,-15.376 L 108,-15 L 107.976,-14.624 L 107.906,-14.2539 L 107.789,-13.8956 L 107.629,-13.5547
 L 107.427,-13.2366 L 107.187,-12.9464 L 106.912,-12.6884 L 106.607,-12.467 L 106.277,-12.2855 L 105.927,-12.1468
 L 105.562,-12.0531 L 105.188,-12.0059 z
M -105.188,-12.0059 L -105.562,-12.0531 L -105.927,-12.1468 L -106.277,-12.2855 L -106.607,-12.467 L -106.912,-12.6884
 L -107.187,-12.9464 L -107.427,-13.2366 L -107.629,-13.5547 L -107.789,-13.8956 L -107.906,-14.2539 L -107.976,-14.624
 L -108,-15 L -107.976,-15.376 L -107.906,-15.7461 L -107.789,-16.1044 L -107.629,-16.4453 L -107.427,-16.7634
 L -107.187,-17.0536 L -106.912,-17.3115 L -106.607,-17.533 L -106.277,-17.7145 L -105.927,-17.8532 L -105.562,-17.9469
 L -105.188,-17.9941 L -104.812,-17.9941 L -104.438,-17.9469 L -104.073,-17.8532 L -103.723,-17.7145 L -103.393,-17.533
 L -103.088,-17.3115 L -102.813,-17.0536 L -102.573,-16.7634 L -102.371,-16.4453 L -102.211,-16.1044 L -102.094,-15.7461
 L -102.024,-15.376 L -102,-15 L -102.024,-14.624 L -102.094,-14.2539 L -102.211,-13.8956 L -102.371,-13.5547
 L -102.573,-13.2366 L -102.813,-12.9464 L -103.088,-12.6884 L -103.393,-12.467 L -103.723,-12.2855 L -104.073,-12.1468
 L -104.438,-12.0531 L -104.812,-12.0059 z
M 104.906,-6.00294 L 104.719,-6.02657 L 104.536,-6.07341 L 104.361,-6.14275 L 104.196,-6.23351 L 104.044,-6.34422
 L 103.907,-6.47318 L 103.786,-6.61832 L 103.686,-6.77736 L 103.605,-6.9478 L 103.547,-7.12695 L 103.512,-7.312
 L 103.5,-7.5 L 103.512,-7.68799 L 103.547,-7.87303 L 103.605,-8.05219 L 103.686,-8.22263 L 103.786,-8.38167
 L 103.907,-8.52681 L 104.044,-8.65576 L 104.196,-8.76648 L 104.361,-8.85724 L 104.536,-8.92657 L 104.719,-8.97342
 L 104.906,-8.99704 L 105.094,-8.99704 L 105.281,-8.97342 L 105.464,-8.92657 L 105.639,-8.85724 L 105.804,-8.76648
 L 105.956,-8.65576 L 106.093,-8.52681 L 106.214,-8.38167 L 106.314,-8.22263 L 106.395,-8.05219 L 106.453,-7.87303
 L 106.488,-7.68799 L 106.5,-7.5 L 106.488,-7.312 L 106.453,-7.12695 L 106.395,-6.9478 L 106.314,-6.77736
 L 106.214,-6.61832 L 106.093,-6.47318 L 105.956,-6.34422 L 105.804,-6.23351 L 105.639,-6.14275 L 105.464,-6.07341
 L 105.281,-6.02657 L 105.094,-6.00294 z
M -105.094,-6.00294 L -105.281,-6.02657 L -105.464,-6.07341 L -105.639,-6.14275 L -105.804,-6.23351 L -105.956,-6.34422
 L -106.093,-6.47318 L -106.214,-6.61832 L -106.314,-6.77736 L -106.395,-6.9478 L -106.453,-7.12695 L -106.488,-7.312
 L -106.5,-7.5 L -106.488,-7.68799 L -106.453,-7.87303 L -106.395,-8.05219 L -106.314,-8.22263 L -106.214,-8.38167
 L -106.093,-8.52681 L -105.956,-8.65576 L -105.804,-8.76648 L -105.639,-8.85724 L -105.464,-8.92657 L -105.281,-8.97342
 L -105.094,-8.99704 L -104.906,-8.99704 L -104.719,-8.97342 L -104.536,-8.92657 L -104.361,-8.85724 L -104.196,-8.76648
 L -104.044,-8.65576 L -103.907,-8.52681 L -103.786,-8.38167 L -103.686,-8.22263 L -103.605,-8.05219 L -103.547,-7.87303
 L -103.512,-7.68799 L -103.5,-7.5 L -103.512,-7.312 L -103.547,-7.12695 L -103.605,-6.9478 L -103.686,-6.77736
 L -103.786,-6.61832 L -103.907,-6.47318 L -104.044,-6.34422 L -104.196,-6.23351 L -104.361,-6.14275 L -104.536,-6.07341
 L -104.719,-6.02657 L -104.906,-6.00294 z
M 104.812,2.99408 L 104.438,2.94685 L 104.073,2.85316 L 103.723,2.71448 L 103.393,2.53297 L 103.088,2.31154
 L 102.813,2.05363 L 102.573,1.76335 L 102.371,1.44525 L 102.211,1.10437 L 102.094,0.746063 L 102.024,0.375992
 L 102,-0 L 102.024,-0.375992 L 102.094,-0.746063 L 102.211,-1.10437 L 102.371,-1.44525 L 102.573,-1.76335
 L 102.813,-2.05363 L 103.088,-2.31154 L 103.393,-2.53297 L 103.723,-2.71448 L 104.073,-2.85316 L 104.438,-2.94685
 L 104.812,-2.99408 L 105.188,-2.99408 L 105.562,-2.94685 L 105.927,-2.85316 L 106.277,-2.71448 L 106.607,-2.53297
 L 106.912,-2.31154 L 107.187,-2.05363 L 107.427,-1.76335 L 107.629,-1.44525 L 107.789,-1.10437 L 107.906,-0.746063
 L 107.976,-0.375992 L 108,-0 L 107.976,0.375992 L 107.906,0.746063 L 107.789,1.10437 L 107.629,1.44525
 L 107.427,1.76335 L 107.187,2.05363 L 106.912,2.31154 L 106.607,2.53297 L 106.277,2.71448 L 105.927,2.85316
 L 105.562,2.94685 L 105.188,2.99408 z
M 104.906,8.99704 L 104.719,8.97342 L 104.536,8.92657 L 104.361,8.85724 L 104.196,8.76648 L 104.044,8.65576
 L 103.907,8.52681 L 103.786,8.38167 L 103.686,8.22263 L 103.605,8.05219 L 103.547,7.87303 L 103.512,7.68799
 L 103.5,7.5 L 103.512,7.312 L 103.547,7.12695 L 103.605,6.9478 L 103.686,6.77736 L 103.786,6.61832
 L 103.907,6.47318 L 104.044,6.34422 L 104.196,6.23351 L 104.361,6.14275 L 104.536,6.07341 L 104.719,6.02657
 L 104.906,6.00294 L 105.094,6.00294 L 105.281,6.02657 L 105.464,6.07341 L 105.639,6.14275 L 105.804,6.23351
 L 105.956,6.34422 L 106.093,6.47318 L 106.214,6.61832 L 106.314,6.77736 L 106.395,6.9478 L 106.453,7.12695
 L 106.488,7.312 L 106.5,7.5 L 106.488,7.68799 L 106.453,7.87303 L 106.395,8.05219 L 106.314,8.22263
 L 106.214,8.38167 L 106.093,8.52681 L 105.956,8.65576 L 105.804,8.76648 L 105.639,8.85724 L 105.464,8.92657
 L 105.281,8.97342 L 105.094,8.99704 z
M -105.094,8.99704 L -105.281,8.97342 L -105.464,8.92657 L -105.639,8.85724 L -105.804,8.76648 L -105.956,8.65576
 L -106.093,8.52681 L -106.214,8.38167 L -106.314,8.22263 L -106.395,8.05219 L -106.453,7.87303 L -106.488,7.68799
 L -106.5,7.5 L -106.488,7.312 L -106.453,7.12695 L -106.395,6.9478 L -106.314,6.77736 L -106.214,6.61832
 L -106.093,6.47318 L -105.956,6.34422 L -105.804,6.23351 L -105.639,6.14275 L -105.464,6.07341 L -105.281,6.02657
 L -105.094,6.00294 L -104.906,6.00294 L -104.719,6.02657 L -104.536,6.07341 L -104.361,6.14275 L -104.196,6.23351
 L -104.044,6.34422 L -103.907,6.47318 L -103.786,6.61832 L -103.686,6.77736 L -103.605,6.9478 L -103.547,7.12695
 L -103.512,7.312 L -103.5,7.5 L -103.512,7.68799 L -103.547,7.87303 L -103.605,8.05219 L -103.686,8.22263
 L -103.786,8.38167 L -103.907,8.52681 L -104.044,8.65576 L -104.196,8.76648 L -104.361,8.85724 L -104.536,8.92657
 L -104.719,8.97342 L -104.906,8.99704 z
M -105.188,17.9941 L -105.562,17.9469 L -105.927,17.8532 L -106.277,17.7145 L -106.607,17.533 L -106.912,17.3115
 L -107.187,17.0536 L -107.427,16.7634 L -107.629,16.4453 L -107.789,16.1044 L -107.906,15.7461 L -107.976,15.376
 L -108,15 L -107.976,14.624 L -107.906,14.2539 L -107.789,13.8956 L -107.629,13.5547 L -107.427,13.2366
 L -107.187,12.9464 L -106.912,12.6884 L -106.607,12.467 L -106.277,12.2855 L -105.927,12.1468 L -105.562,12.0531
 L -105.188,12.0059 L -104.812,12.0059 L -104.438,12.0531 L -104.073,12.1468 L -103.723,12.2855 L -103.393,12.467
 L -103.088,12.6884 L -102.813,12.9464 L -102.573,13.2366 L -102.371,13.5547 L -102.211,13.8956 L -102.094,14.2539
 L -102.024,14.624 L -102,15 L -102.024,15.376 L -102.094,15.7461 L -102.211,16.1044 L -102.371,16.4453
 L -102.573,16.7634 L -102.813,17.0536 L -103.088,17.3115 L -103.393,17.533 L -103.723,17.7145 L -104.073,17.8532
 L -104.438,17.9469 L -104.812,17.9941 z
M 104.812,17.9941 L 104.438,17.9469 L 104.073,17.8532 L 103.723,17.7145 L 103.393,17.533 L 103.088,17.3115
 L 102.813,17.0536 L 102.573,16.7634 L 102.371,16.4453 L 102.211,16.1044 L 102.094,15.7461 L 102.024,15.376
 L 102,15 L 102.024,14.624 L 102.094,14.2539 L 102.211,13.8956 L 102.371,13.5547 L 102.573,13.2366
 L 102.813,12.9464 L 103.088,12.6884 L 103.393,12.467 L 103.723,12.2855 L 104.073,12.1468 L 104.438,12.0531
 L 104.812,12.0059 L 105.188,12.0059 L 105.562,12.0531 L 105.927,12.1468 L 106.277,12.2855 L 106.607,12.467
 L 106.912,12.6884 L 107.187,12.9464 L 107.427,13.2366 L 107.629,13.5547 L 107.789,13.8956 L 107.906,14.2539
 L 107.976,14.624 L 108,15 L 107.976,15.376 L 107.906,15.7461 L 107.789,16.1044 L 107.629,16.4453
 L 107.427,16.7634 L 107.187,17.0536 L 106.912,17.3115 L 106.607,17.533 L 106.277,17.7145 L 105.927,17.8532
 L 105.562,17.9469 L 105.188,17.9941 z
M 104.906,23.997 L 104.719,23.9734 L 104.536,23.9266 L 104.361,23.8572 L 104.196,23.7665 L 104.044,23.6558
 L 103.907,23.5268 L 103.786,23.3817 L 103.686,23.2226 L 103.605,23.0522 L 103.547,22.873 L 103.512,22.688
 L 103.5,22.5 L 103.512,22.312 L 103.547,22.127 L 103.605,21.9478 L 103.686,21.7774 L 103.786,21.6183
 L 103.907,21.4732 L 104.044,21.3442 L 104.196,21.2335 L 104.361,21.1427 L 104.536,21.0734 L 104.719,21.0266
 L 104.906,21.003 L 105.094,21.003 L 105.281,21.0266 L 105.464,21.0734 L 105.639,21.1427 L 105.804,21.2335
 L 105.956,21.3442 L 106.093,21.4732 L 106.214,21.6183 L 106.314,21.7774 L 106.395,21.9478 L 106.453,22.127
 L 106.488,22.312 L 106.5,22.5 L 106.488,22.688 L 106.453,22.873 L 106.395,23.0522 L 106.314,23.2226
 L 106.214,23.3817 L 106.093,23.5268 L 105.956,23.6558 L 105.804,23.7665 L 105.639,23.8572 L 105.464,23.9266
 L 105.281,23.9734 L 105.094,23.997 z
M -105.094,23.997 L -105.281,23.9734 L -105.464,23.9266 L -105.639,23.8572 L -105.804,23.7665 L -105.956,23.6558
 L -106.093,23.5268 L -106.214,23.3817 L -106.314,23.2226 L -106.395,23.0522 L -106.453,22.873 L -106.488,22.688
 L -106.5,22.5 L -106.488,22.312 L -106.453,22.127 L -106.395,21.9478 L -106.314,21.7774 L -106.214,21.6183
 L -106.093,21.4732 L -105.956,21.3442 L -105.804,21.2335 L -105.639,21.1427 L -105.464,21.0734 L -105.281,21.0266
 L -105.094,21.003 L -104.906,21.003 L -104.719,21.0266 L -104.536,21.0734 L -104.361,21.1427 L -104.196,21.2335
 L -104.044,21.3442 L -103.907,21.4732 L -103.786,21.6183 L -103.686,21.7774 L -103.605,21.9478 L -103.547,22.127
 L -103.512,22.312 L -103.5,22.5 L -103.512,22.688 L -103.547,22.873 L -103.605,23.0522 L -103.686,23.2226
 L -103.786,23.3817 L -103.907,23.5268 L -104.044,23.6558 L -104.196,23.7665 L -104.361,23.8572 L -104.536,23.9266
 L -104.719,23.9734 L -104.906,23.997 z
M -105.188,32.9941 L -105.562,32.9469 L -105.927,32.8532 L -106.277,32.7145 L -106.607,32.533 L -106.912,32.3115
 L -107.187,32.0536 L -107.427,31.7634 L -107.629,31.4453 L -107.789,31.1044 L -107.906,30.7461 L -107.976,30.376
 L -108,30 L -107.976,29.624 L -107.906,29.2539 L -107.789,28.8956 L -107.629,28.5547 L -107.427,28.2366
 L -107.187,27.9464 L -106.912,27.6884 L -106.607,27.467 L -106.277,27.2855 L -105.927,27.1468 L -105.562,27.0531
 L -105.188,27.0059 L -104.812,27.0059 L -104.438,27.0531 L -104.073,27.1468 L -103.723,27.2855 L -103.393,27.467
 L -103.088,27.6884 L -102.813,27.9464 L -102.573,28.2366 L -102.371,28.5547 L -102.211,28.8956 L -102.094,29.2539
 L -102.024,29.624 L -102,30 L -102.024,30.376 L -102.094,30.7461 L -102.211,31.1044 L -102.371,31.4453
 L -102.573,31.7634 L -102.813,32.0536 L -103.088,32.3115 L -103.393,32.533 L -103.723,32.7145 L -104.073,32.8532
 L -104.438,32.9469 L -104.812,32.9941 z
M 104.812,32.9941 L 104.438,32.9469 L 104.073,32.8532 L 103.723,32.7145 L 103.393,32.533 L 103.088,32.3115
 L 102.813,32.0536 L 102.573,31.7634 L 102.371,31.4453 L 102.211,31.1044 L 102.094,30.7461 L 102.024,30.376
 L 102,30 L 102.024,29.624 L 102.094,29.2539 L 102.211,28.8956 L 102.371,28.5547 L 102.573,28.2366
 L 102.813,27.9464 L 103.088,27.6884 L 103.393,27.467 L 103.723,27.2855 L 104.073,27.1468 L 104.438,27.0531
 L 104.812,27.0059 L 105.188,27.0059 L 105.562,27.0531 L 105.927,27.1468 L 106.277,27.2855 L 106.607,27.467
 L 106.912,27.6884 L 107.187,27.9464 L 107.427,28.2366 L 107.629,28.5547 L 107.789,28.8956 L 107.906,29.2539
 L 107.976,29.624 L 108,30 L 107.976,30.376 L 107.906,30.7461 L 107.789,31.1044 L 107.629,31.4453
 L 107.427,31.7634 L 107.187,32.0536 L 106.912,32.3115 L 106.607,32.533 L 106.277,32.7145 L 105.927,32.8532
 L 105.562,32.9469 L 105.188,32.9941 z
M -102.094,0.746063 L -102.211,1.10437 L -102.371,1.44525 L -102.573,1.76335 L -102.813,2.05363 L -103.088,2.31154
 L -103.393,2.53297 L -103.723,2.71448 L -104.073,2.85316 L -104.438,2.94685 L -104.812,2.99408 L -105.188,2.99408
 L -105.562,2.94685 L -105.927,2.85316 L -106.277,2.71448 L -106.607,2.53297 L -106.912,2.31154 L -107.187,2.05363
 L -107.427,1.76335 L -107.629,1.44525 L -107.789,1.10437 L -107.906,0.746063 L -107.976,0.375992 L -108,-0
 L -107.976,-0.375992 L -107.906,-0.746063 L -107.789,-1.10437 L -107.629,-1.44525 L -107.427,-1.76335 L -107.187,-2.05363
 L -106.912,-2.31154 L -106.607,-2.53297 L -106.277,-2.71448 L -105.927,-2.85316 L -105.562,-2.94685 L -105.188,-2.99408
 L -104.812,-2.99408 L -104.438,-2.94685 L -104.073,-2.85316 L -103.723,-2.71448 L -103.393,-2.53297 L -103.088,-2.31154
 L -102.813,-2.05363 L -102.573,-1.76335 L -102.371,-1.44525 L -102.211,-1.10437 L -102.094,-0.746063 L -102.024,-0.375992
 L -102,-0 L -102.024,0.375992 z
" stroke="black" fill="lightgray" stroke-width="0.5"/>
</svg>
