<?xml version="1.0" standalone="no"?>
<!DOCTYPE svg PUBLIC "-//W3C//DTD SVG 1.1//EN" "http://www.w3.org/Graphics/SVG/1.1/DTD/svg11.dtd">
<svg width="90mm" height="44mm" viewBox="-45 -22 90 44" xmlns="http://www.w3.org/2000/svg" version="1.1">
<title>OpenSCAD Model</title>
<path d="
M 40.4369,21.9114 L 41.0451,21.7553 L 41.6289,21.5241 L 42.1791,21.2216 L 42.6871,20.8526 L 43.1448,20.4227
 L 43.5451,19.9389 L 43.8815,19.4088 L 44.1489,18.8406 L 44.3429,18.2434 L 44.4606,17.6267 L 44.5,17
 L 44.5,-17 L 44.4606,-17.6267 L 44.3429,-18.2434 L 44.1489,-18.8406 L 43.8815,-19.4088 L 43.5451,-19.9389
 L 43.1448,-20.4227 L 42.6871,-20.8526 L 42.1791,-21.2216 L 41.6289,-21.5241 L 41.0451,-21.7553 L 40.4369,-21.9114
 L 39.8139,-21.9901 L -39.8139,-21.9901 L -40.4369,-21.9114 L -41.0451,-21.7553 L -41.6289,-21.5241 L -42.1791,-21.2216
 L -42.6871,-20.8526 L -43.1448,-20.4227 L -43.5451,-19.9389 L -43.8815,-19.4088 L -44.1489,-18.8406 L -44.3429,-18.2434
 L -44.4606,-17.6267 L -44.5,-17 L -44.5,17 L -44.4606,17.6267 L -44.3429,18.2434 L -44.1489,18.8406
 L -43.8815,19.4088 L -43.5451,19.9389 L -43.1448,20.4227 L -42.6871,20.8526 L -42.1791,21.2216 L -41.6289,21.5241
 L -41.0451,21.7553 L -40.4369,21.9114 L -39.8139,21.9901 L 39.8139,21.9901 z
M 37.3116,-12.0059 L 36.9379,-12.0531 L 36.5729,-12.1468 L 36.2227,-12.2855 L 35.8925,-12.467 L 35.5877,-12.6884
 L 35.3131,-12.9464 L 35.0729,-13.2366 L 34.8711,-13.5547 L 34.7107,-13.8956 L 34.5942,-14.2539 L 34.5237,-14.624
 L 34.5,-15 L 34.5237,-15.376 L 34.5942,-15.7461 L 34.7107,-16.1044 L 34.8711,-16.4453 L 35.0729,-16.7634
 L 35.3131,-17.0536 L 35.5877,-17.3115 L 35.8925,-17.533 L 36.2227,-17.7145 L 36.5729,-17.8532 L 36.9379,-17.9469
 L 37.3116,-17.9941 L 37.6884,-17.9941 L 38.0621,-17.9469 L 38.427,-17.8532 L 38.7773,-17.7145 L 39.1075,-17.533
 L 39.4123,-17.3115 L 39.6869,-17.0536 L 39.927,-16.7634 L 40.1289,-16.4453 L 40.2893,-16.1044 L 40.4057,-15.7461
 L 40.4763,-15.376 L 40.5,-15 L 40.4763,-14.624 L 40.4057,-14.2539 L 40.2893,-13.8956 L 40.1289,-13.5547
 L 39.927,-13.2366 L 39.6869,-12.9464 L 39.4123,-12.6884 L 39.1075,-12.467 L 38.7773,-12.2855 L 38.427,-12.1468
 L 38.0621,-12.0531 L 37.6884,-12.0059 z
M -37.6884,-12.0059 L -38.0621,-12.0531 L -38.427,-12.1468 L -38.7773,-12.2855 L -39.1075,-12.467 L -39.4123,-12.6884
 L -39.6869,-12.9464 L -39.927,-13.2366 L -40.1289,-13.5547 L -40.2893,-13.8956 L -40.4057,-14.2539 L -40.4763,-14.624
 L -40.5,-15 L -40.4763,-15.376 L -40.4057,-15.7461 L -40.2893,-16.1044 L -40.1289,-16.4453 L -39.927,-16.7634
 L -39.6869,-17.0536 L -39.4123,-17.3115 L -39.1075,-17.533 L -38.7773,-17.7145 L -38.427,-17.8532 L -38.0621,-17.9469
 L -37.6884,-17.9941 L -37.3116,-17.9941 L -36.9379,-17.9469 L -36.5729,-17.8532 L -36.2227,-17.7145 L -35.8925,-17.533
 L -35.5877,-17.3115 L -35.3131,-17.0536 L -35.0729,-16.7634 L -34.8711,-16.4453 L -34.7107,-16.1044 L -34.5942,-15.7461
 L -34.5237,-15.376 L -34.5,-15 L -34.5237,-14.624 L -34.5942,-14.2539 L -34.7107,-13.8956 L -34.8711,-13.5547
 L -35.0729,-13.2366 L -35.3131,-12.9464 L -35.5877,-12.6884 L -35.8925,-12.467 L -36.2227,-12.2855 L -36.5729,-12.1468
 L -36.9379,-12.0531 L -37.3116,-12.0059 z
M -21.0988,17.4655 L -23.2792,17.19 L -25.4078,16.6435 L -27.4511,15.8345 L -29.377,14.7757 L -31.1549,13.484
 L -32.7569,11.9796 L -34.1578,10.2862 L -35.3354,8.43068 L -36.2711,6.44217 L -36.9502,4.35207 L -37.362,2.19333
 L -37.5,-0 L -37.362,-2.19333 L -36.9502,-4.35207 L -36.2711,-6.44217 L -35.3354,-8.43068 L -34.1578,-10.2862
 L -32.7569,-11.9796 L -31.1549,-13.484 L -29.377,-14.7757 L -27.4511,-15.8345 L -25.4078,-16.6435 L -23.2792,-17.19
 L -21.0988,-17.4655 L -18.9012,-17.4655 L -16.7208,-17.19 L -14.5922,-16.6435 L -12.5489,-15.8345 L -10.623,-14.7757
 L -8.84508,-13.484 L -7.24304,-11.9796 L -5.84219,-10.2862 L -4.66463,-8.43068 L -3.7289,-6.44217 L -3.04979,-4.35207
 L -2.63799,-2.19333 L -2.5,-0 L -2.63799,2.19333 L -3.04979,4.35207 L -3.7289,6.44217 L -4.66463,8.43068
 L -5.84219,10.2862 L -7.24304,11.9796 L -8.84508,13.484 L -10.623,14.7757 L -12.5489,15.8345 L -14.5922,16.6435
 L -16.7208,17.19 L -18.9012,17.4655 z
M 18.9012,17.4655 L 16.7208,17.19 L 14.5922,16.6435 L 12.5489,15.8345 L 10.623,14.7757 L 8.84508,13.484
 L 7.24304,11.9796 L 5.84219,10.2862 L 4.66463,8.43068 L 3.7289,6.44217 L 3.04979,4.35207 L 2.63799,2.19333
 L 2.5,-0 L 2.63799,-2.19333 L 3.04979,-4.35207 L 3.7289,-6.44217 L 4.66463,-8.43068 L 5.84219,-10.2862
 L 7.24304,-11.9796 L 8.84508,-13.484 L 10.623,-14.7757 L 12.5489,-15.8345 L 14.5922,-16.6435 L 16.7208,-17.19
 L 18.9012,-17.4655 L 21.0988,-17.4655 L 23.2792,-17.19 L 25.4078,-16.6435 L 27.4511,-15.8345 L 29.377,-14.7757
 L 31.1549,-13.484 L 32.7569,-11.9796 L 34.1578,-10.2862 L 35.3354,-8.43068 L 36.2711,-6.44217 L 36.9502,-4.35207
 L 37.362,-2.19333 L 37.5,-0 L 37.362,2.19333 L 36.9502,4.35207 L 36.2711,6.44217 L 35.3354,8.43068
 L 34.1578,10.2862 L 32.7569,11.9796 L 31.1549,13.484 L 29.377,14.7757 L 27.4511,15.8345 L 25.4078,16.6435
 L 23.2792,17.19 L 21.0988,17.4655 z
M -37.6884,17.9941 L -38.0621,17.9469 L -38.427,17.8532 L -38.7773,17.7145 L -39.1075,17.533 L -39.4123,17.3115
 L -39.6869,17.0536 L -39.927,16.7634 L -40.1289,16.4453 L -40.2893,16.1044 L -40.4057,15.7461 L -40.4763,15.376
 L -40.5,15 L -40.4763,14.624 L -40.4057,14.2539 L -40.2893,13.8956 L -40.1289,13.5547 L -39.927,13.2366
 L -39.6869,12.9464 L -39.4123,12.6884 L -39.1075,12.467 L -38.7773,12.2855 L -38.427,12.1468 L -38.0621,12.0531
 L -37.6884,12.0059 L -37.3116,12.0059 L -36.9379,12.0531 L -36.5729,12.1468 L -36.2227,12.2855 L -35.8925,12.467
 L -35.5877,12.6884 L -35.3131,12.9464 L -35.0729,13.2366 L -34.8711,13.5547 L -34.7107,13.8956 L -34.5942,14.2539
 L -34.5237,14.624 L -34.5,15 L -34.5237,15.376 L -34.5942,15.7461 L -34.7107,16.1044 L -34.8711,16.4453
 L -35.0729,16.7634 L -35.3131,17.0536 L -35.5877,17.3115 L -35.8925,17.533 L -36.2227,17.7145 L -36.5729,17.8532
 L -36.9379,17.9469 L -37.3116,17.9941 z
M 37.3116,17.9941 L 36.9379,17.9469 L 36.5729,17.8532 L 36.2227,17.7145 L 35.8925,17.533 L 35.5877,17.3115
 L 35.3131,17.0536 L 35.0729,16.7634 L 34.8711,16.4453 L 34.7107,16.1044 L 34.5942,15.7461 L 34.5237,15.376
 L 34.5,15 L 34.5237,14.624 L 34.5942,14.2539 L 34.7107,13.8956 L 34.8711,13.5547 L 35.0729,13.2366
 L 35.3131,12.9464 L 35.5877,12.6884 L 35.8925,12.467 L 36.2227,12.2855 L 36.5729,12.1468 L 36.9379,12.0531
 L 37.3116,12.0059 L 37.6884,12.0059 L 38.0621,12.0531 L 38.427,12.1468 L 38.7773,12.2855 L 39.1075,12.467
 L 39.4123,12.6884 L 39.6869,12.9464 L 39.927,13.2366 L 40.1289,13.5547 L 40.2893,13.8956 L 40.4057,14.2539
 L 40.4763,14.624 L 40.5,15 L 40.4763,15.376 L 40.4057,15.7461 L 40.2893,16.1044 L 40.1289,16.4453
 L 39.927,16.7634 L 39.6869,17.0536 L 39.4123,17.3115 L 39.1075,17.533 L 38.7773,17.7145 L 38.427,17.8532
 L 38.0621,17.9469 L 37.6884,17.9941 z
" stroke="black" fill="lightgray" stroke-width="0.5"/>
</svg>
