  0
SECTION
  2
BLOCKS
  0
ENDSEC
  0
SECTION
  2
ENTITIES
  0
LINE
  8
0
 10
77.9369
 20
-51.9114
 11
78.5451
 21
-51.7553
  0
LINE
  8
0
 10
78.5451
 20
-51.7553
 11
79.1289
 21
-51.5241
  0
LINE
  8
0
 10
79.1289
 20
-51.5241
 11
79.6791
 21
-51.2216
  0
LINE
  8
0
 10
79.6791
 20
-51.2216
 11
80.1871
 21
-50.8526
  0
LINE
  8
0
 10
80.1871
 20
-50.8526
 11
80.6448
 21
-50.4227
  0
LINE
  8
0
 10
80.6448
 20
-50.4227
 11
81.0451
 21
-49.9389
  0
LINE
  8
0
 10
81.0451
 20
-49.9389
 11
81.3815
 21
-49.4088
  0
LINE
  8
0
 10
81.3815
 20
-49.4088
 11
81.6489
 21
-48.8406
  0
LINE
  8
0
 10
81.6489
 20
-48.8406
 11
81.8429
 21
-48.2434
  0
LINE
  8
0
 10
81.8429
 20
-48.2434
 11
81.9606
 21
-47.6267
  0
LINE
  8
0
 10
81.9606
 20
-47.6267
 11
82
 21
-47
  0
LINE
  8
0
 10
82
 20
-47
 11
82
 21
47
  0
LINE
  8
0
 10
82
 20
47
 11
81.9606
 21
47.6267
  0
LINE
  8
0
 10
81.9606
 20
47.6267
 11
81.8429
 21
48.2434
  0
LINE
  8
0
 10
81.8429
 20
48.2434
 11
81.6489
 21
48.8406
  0
LINE
  8
0
 10
81.6489
 20
48.8406
 11
81.3815
 21
49.4088
  0
LINE
  8
0
 10
81.3815
 20
49.4088
 11
81.0451
 21
49.9389
  0
LINE
  8
0
 10
81.0451
 20
49.9389
 11
80.6448
 21
50.4227
  0
LINE
  8
0
 10
80.6448
 20
50.4227
 11
80.1871
 21
50.8526
  0
LINE
  8
0
 10
80.1871
 20
50.8526
 11
79.6791
 21
51.2216
  0
LINE
  8
0
 10
79.6791
 20
51.2216
 11
79.1289
 21
51.5241
  0
LINE
  8
0
 10
79.1289
 20
51.5241
 11
78.5451
 21
51.7553
  0
LINE
  8
0
 10
78.5451
 20
51.7553
 11
77.9369
 21
51.9114
  0
LINE
  8
0
 10
77.9369
 20
51.9114
 11
77.3139
 21
51.9901
  0
LINE
  8
0
 10
77.3139
 20
51.9901
 11
-77.3139
 21
51.9901
  0
LINE
  8
0
 10
-77.3139
 20
51.9901
 11
-77.9369
 21
51.9114
  0
LINE
  8
0
 10
-77.9369
 20
51.9114
 11
-78.5451
 21
51.7553
  0
LINE
  8
0
 10
-78.5451
 20
51.7553
 11
-79.1289
 21
51.5241
  0
LINE
  8
0
 10
-79.1289
 20
51.5241
 11
-79.6791
 21
51.2216
  0
LINE
  8
0
 10
-79.6791
 20
51.2216
 11
-80.1871
 21
50.8526
  0
LINE
  8
0
 10
-80.1871
 20
50.8526
 11
-80.6448
 21
50.4227
  0
LINE
  8
0
 10
-80.6448
 20
50.4227
 11
-81.0451
 21
49.9389
  0
LINE
  8
0
 10
-81.0451
 20
49.9389
 11
-81.3815
 21
49.4088
  0
LINE
  8
0
 10
-81.3815
 20
49.4088
 11
-81.6489
 21
48.8406
  0
LINE
  8
0
 10
-81.6489
 20
48.8406
 11
-81.8429
 21
48.2434
  0
LINE
  8
0
 10
-81.8429
 20
48.2434
 11
-81.9606
 21
47.6267
  0
LINE
  8
0
 10
-81.9606
 20
47.6267
 11
-82
 21
47
  0
LINE
  8
0
 10
-82
 20
47
 11
-82
 21
-47
  0
LINE
  8
0
 10
-82
 20
-47
 11
-81.9606
 21
-47.6267
  0
LINE
  8
0
 10
-81.9606
 20
-47.6267
 11
-81.8429
 21
-48.2434
  0
LINE
  8
0
 10
-81.8429
 20
-48.2434
 11
-81.6489
 21
-48.8406
  0
LINE
  8
0
 10
-81.6489
 20
-48.8406
 11
-81.3815
 21
-49.4088
  0
LINE
  8
0
 10
-81.3815
 20
-49.4088
 11
-81.0451
 21
-49.9389
  0
LINE
  8
0
 10
-81.0451
 20
-49.9389
 11
-80.6448
 21
-50.4227
  0
LINE
  8
0
 10
-80.6448
 20
-50.4227
 11
-80.1871
 21
-50.8526
  0
LINE
  8
0
 10
-80.1871
 20
-50.8526
 11
-79.6791
 21
-51.2216
  0
LINE
  8
0
 10
-79.6791
 20
-51.2216
 11
-79.1289
 21
-51.5241
  0
LINE
  8
0
 10
-79.1289
 20
-51.5241
 11
-78.5451
 21
-51.7553
  0
LINE
  8
0
 10
-78.5451
 20
-51.7553
 11
-77.9369
 21
-51.9114
  0
LINE
  8
0
 10
-77.9369
 20
-51.9114
 11
-77.3139
 21
-51.9901
  0
LINE
  8
0
 10
-77.3139
 20
-51.9901
 11
77.3139
 21
-51.9901
  0
LINE
  8
0
 10
77.3139
 20
-51.9901
 11
77.9369
 21
-51.9114
  0
LINE
  8
0
 10
74.8116
 20
42.0059
 11
74.4379
 21
42.0531
  0
LINE
  8
0
 10
74.4379
 20
42.0531
 11
74.073
 21
42.1468
  0
LINE
  8
0
 10
74.073
 20
42.1468
 11
73.7227
 21
42.2855
  0
LINE
  8
0
 10
73.7227
 20
42.2855
 11
73.3925
 21
42.467
  0
LINE
  8
0
 10
73.3925
 20
42.467
 11
73.0877
 21
42.6885
  0
LINE
  8
0
 10
73.0877
 20
42.6885
 11
72.8131
 21
42.9464
  0
LINE
  8
0
 10
72.8131
 20
42.9464
 11
72.573
 21
43.2366
  0
LINE
  8
0
 10
72.573
 20
43.2366
 11
72.3711
 21
43.5547
  0
LINE
  8
0
 10
72.3711
 20
43.5547
 11
72.2107
 21
43.8956
  0
LINE
  8
0
 10
72.2107
 20
43.8956
 11
72.0943
 21
44.2539
  0
LINE
  8
0
 10
72.0943
 20
44.2539
 11
72.0237
 21
44.624
  0
LINE
  8
0
 10
72.0237
 20
44.624
 11
72
 21
45
  0
LINE
  8
0
 10
72
 20
45
 11
72.0237
 21
45.376
  0
LINE
  8
0
 10
72.0237
 20
45.376
 11
72.0943
 21
45.7461
  0
LINE
  8
0
 10
72.0943
 20
45.7461
 11
72.2107
 21
46.1044
  0
LINE
  8
0
 10
72.2107
 20
46.1044
 11
72.3711
 21
46.4453
  0
LINE
  8
0
 10
72.3711
 20
46.4453
 11
72.573
 21
46.7634
  0
LINE
  8
0
 10
72.573
 20
46.7634
 11
72.8131
 21
47.0536
  0
LINE
  8
0
 10
72.8131
 20
47.0536
 11
73.0877
 21
47.3115
  0
LINE
  8
0
 10
73.0877
 20
47.3115
 11
73.3925
 21
47.533
  0
LINE
  8
0
 10
73.3925
 20
47.533
 11
73.7227
 21
47.7145
  0
LINE
  8
0
 10
73.7227
 20
47.7145
 11
74.073
 21
47.8532
  0
LINE
  8
0
 10
74.073
 20
47.8532
 11
74.4379
 21
47.9469
  0
LINE
  8
0
 10
74.4379
 20
47.9469
 11
74.8116
 21
47.9941
  0
LINE
  8
0
 10
74.8116
 20
47.9941
 11
75.1884
 21
47.9941
  0
LINE
  8
0
 10
75.1884
 20
47.9941
 11
75.5621
 21
47.9469
  0
LINE
  8
0
 10
75.5621
 20
47.9469
 11
75.927
 21
47.8532
  0
LINE
  8
0
 10
75.927
 20
47.8532
 11
76.2773
 21
47.7145
  0
LINE
  8
0
 10
76.2773
 20
47.7145
 11
76.6075
 21
47.533
  0
LINE
  8
0
 10
76.6075
 20
47.533
 11
76.9123
 21
47.3115
  0
LINE
  8
0
 10
76.9123
 20
47.3115
 11
77.1869
 21
47.0536
  0
LINE
  8
0
 10
77.1869
 20
47.0536
 11
77.427
 21
46.7634
  0
LINE
  8
0
 10
77.427
 20
46.7634
 11
77.6289
 21
46.4453
  0
LINE
  8
0
 10
77.6289
 20
46.4453
 11
77.7893
 21
46.1044
  0
LINE
  8
0
 10
77.7893
 20
46.1044
 11
77.9057
 21
45.7461
  0
LINE
  8
0
 10
77.9057
 20
45.7461
 11
77.9763
 21
45.376
  0
LINE
  8
0
 10
77.9763
 20
45.376
 11
78
 21
45
  0
LINE
  8
0
 10
78
 20
45
 11
77.9763
 21
44.624
  0
LINE
  8
0
 10
77.9763
 20
44.624
 11
77.9057
 21
44.2539
  0
LINE
  8
0
 10
77.9057
 20
44.2539
 11
77.7893
 21
43.8956
  0
LINE
  8
0
 10
77.7893
 20
43.8956
 11
77.6289
 21
43.5547
  0
LINE
  8
0
 10
77.6289
 20
43.5547
 11
77.427
 21
43.2366
  0
LINE
  8
0
 10
77.427
 20
43.2366
 11
77.1869
 21
42.9464
  0
LINE
  8
0
 10
77.1869
 20
42.9464
 11
76.9123
 21
42.6885
  0
LINE
  8
0
 10
76.9123
 20
42.6885
 11
76.6075
 21
42.467
  0
LINE
  8
0
 10
76.6075
 20
42.467
 11
76.2773
 21
42.2855
  0
LINE
  8
0
 10
76.2773
 20
42.2855
 11
75.927
 21
42.1468
  0
LINE
  8
0
 10
75.927
 20
42.1468
 11
75.5621
 21
42.0531
  0
LINE
  8
0
 10
75.5621
 20
42.0531
 11
75.1884
 21
42.0059
  0
LINE
  8
0
 10
75.1884
 20
42.0059
 11
74.8116
 21
42.0059
  0
LINE
  8
0
 10
-30.1884
 20
42.0059
 11
-30.5621
 21
42.0531
  0
LINE
  8
0
 10
-30.5621
 20
42.0531
 11
-30.927
 21
42.1468
  0
LINE
  8
0
 10
-30.927
 20
42.1468
 11
-31.2773
 21
42.2855
  0
LINE
  8
0
 10
-31.2773
 20
42.2855
 11
-31.6075
 21
42.467
  0
LINE
  8
0
 10
-31.6075
 20
42.467
 11
-31.9123
 21
42.6885
  0
LINE
  8
0
 10
-31.9123
 20
42.6885
 11
-32.1869
 21
42.9464
  0
LINE
  8
0
 10
-32.1869
 20
42.9464
 11
-32.427
 21
43.2366
  0
LINE
  8
0
 10
-32.427
 20
43.2366
 11
-32.6289
 21
43.5547
  0
LINE
  8
0
 10
-32.6289
 20
43.5547
 11
-32.7893
 21
43.8956
  0
LINE
  8
0
 10
-32.7893
 20
43.8956
 11
-32.9057
 21
44.2539
  0
LINE
  8
0
 10
-32.9057
 20
44.2539
 11
-32.9763
 21
44.624
  0
LINE
  8
0
 10
-32.9763
 20
44.624
 11
-33
 21
45
  0
LINE
  8
0
 10
-33
 20
45
 11
-32.9763
 21
45.376
  0
LINE
  8
0
 10
-32.9763
 20
45.376
 11
-32.9057
 21
45.7461
  0
LINE
  8
0
 10
-32.9057
 20
45.7461
 11
-32.7893
 21
46.1044
  0
LINE
  8
0
 10
-32.7893
 20
46.1044
 11
-32.6289
 21
46.4453
  0
LINE
  8
0
 10
-32.6289
 20
46.4453
 11
-32.427
 21
46.7634
  0
LINE
  8
0
 10
-32.427
 20
46.7634
 11
-32.1869
 21
47.0536
  0
LINE
  8
0
 10
-32.1869
 20
47.0536
 11
-31.9123
 21
47.3115
  0
LINE
  8
0
 10
-31.9123
 20
47.3115
 11
-31.6075
 21
47.533
  0
LINE
  8
0
 10
-31.6075
 20
47.533
 11
-31.2773
 21
47.7145
  0
LINE
  8
0
 10
-31.2773
 20
47.7145
 11
-30.927
 21
47.8532
  0
LINE
  8
0
 10
-30.927
 20
47.8532
 11
-30.5621
 21
47.9469
  0
LINE
  8
0
 10
-30.5621
 20
47.9469
 11
-30.1884
 21
47.9941
  0
LINE
  8
0
 10
-30.1884
 20
47.9941
 11
-29.8116
 21
47.9941
  0
LINE
  8
0
 10
-29.8116
 20
47.9941
 11
-29.4379
 21
47.9469
  0
LINE
  8
0
 10
-29.4379
 20
47.9469
 11
-29.0729
 21
47.8532
  0
LINE
  8
0
 10
-29.0729
 20
47.8532
 11
-28.7227
 21
47.7145
  0
LINE
  8
0
 10
-28.7227
 20
47.7145
 11
-28.3925
 21
47.533
  0
LINE
  8
0
 10
-28.3925
 20
47.533
 11
-28.0877
 21
47.3115
  0
LINE
  8
0
 10
-28.0877
 20
47.3115
 11
-27.8131
 21
47.0536
  0
LINE
  8
0
 10
-27.8131
 20
47.0536
 11
-27.5729
 21
46.7634
  0
LINE
  8
0
 10
-27.5729
 20
46.7634
 11
-27.3711
 21
46.4453
  0
LINE
  8
0
 10
-27.3711
 20
46.4453
 11
-27.2107
 21
46.1044
  0
LINE
  8
0
 10
-27.2107
 20
46.1044
 11
-27.0942
 21
45.7461
  0
LINE
  8
0
 10
-27.0942
 20
45.7461
 11
-27.0237
 21
45.376
  0
LINE
  8
0
 10
-27.0237
 20
45.376
 11
-27
 21
45
  0
LINE
  8
0
 10
-27
 20
45
 11
-27.0237
 21
44.624
  0
LINE
  8
0
 10
-27.0237
 20
44.624
 11
-27.0942
 21
44.2539
  0
LINE
  8
0
 10
-27.0942
 20
44.2539
 11
-27.2107
 21
43.8956
  0
LINE
  8
0
 10
-27.2107
 20
43.8956
 11
-27.3711
 21
43.5547
  0
LINE
  8
0
 10
-27.3711
 20
43.5547
 11
-27.5729
 21
43.2366
  0
LINE
  8
0
 10
-27.5729
 20
43.2366
 11
-27.8131
 21
42.9464
  0
LINE
  8
0
 10
-27.8131
 20
42.9464
 11
-28.0877
 21
42.6885
  0
LINE
  8
0
 10
-28.0877
 20
42.6885
 11
-28.3925
 21
42.467
  0
LINE
  8
0
 10
-28.3925
 20
42.467
 11
-28.7227
 21
42.2855
  0
LINE
  8
0
 10
-28.7227
 20
42.2855
 11
-29.0729
 21
42.1468
  0
LINE
  8
0
 10
-29.0729
 20
42.1468
 11
-29.4379
 21
42.0531
  0
LINE
  8
0
 10
-29.4379
 20
42.0531
 11
-29.8116
 21
42.0059
  0
LINE
  8
0
 10
-29.8116
 20
42.0059
 11
-30.1884
 21
42.0059
  0
LINE
  8
0
 10
-75.1884
 20
42.0059
 11
-75.5621
 21
42.0531
  0
LINE
  8
0
 10
-75.5621
 20
42.0531
 11
-75.927
 21
42.1468
  0
LINE
  8
0
 10
-75.927
 20
42.1468
 11
-76.2773
 21
42.2855
  0
LINE
  8
0
 10
-76.2773
 20
42.2855
 11
-76.6075
 21
42.467
  0
LINE
  8
0
 10
-76.6075
 20
42.467
 11
-76.9123
 21
42.6885
  0
LINE
  8
0
 10
-76.9123
 20
42.6885
 11
-77.1869
 21
42.9464
  0
LINE
  8
0
 10
-77.1869
 20
42.9464
 11
-77.427
 21
43.2366
  0
LINE
  8
0
 10
-77.427
 20
43.2366
 11
-77.6289
 21
43.5547
  0
LINE
  8
0
 10
-77.6289
 20
43.5547
 11
-77.7893
 21
43.8956
  0
LINE
  8
0
 10
-77.7893
 20
43.8956
 11
-77.9057
 21
44.2539
  0
LINE
  8
0
 10
-77.9057
 20
44.2539
 11
-77.9763
 21
44.624
  0
LINE
  8
0
 10
-77.9763
 20
44.624
 11
-78
 21
45
  0
LINE
  8
0
 10
-78
 20
45
 11
-77.9763
 21
45.376
  0
LINE
  8
0
 10
-77.9763
 20
45.376
 11
-77.9057
 21
45.7461
  0
LINE
  8
0
 10
-77.9057
 20
45.7461
 11
-77.7893
 21
46.1044
  0
LINE
  8
0
 10
-77.7893
 20
46.1044
 11
-77.6289
 21
46.4453
  0
LINE
  8
0
 10
-77.6289
 20
46.4453
 11
-77.427
 21
46.7634
  0
LINE
  8
0
 10
-77.427
 20
46.7634
 11
-77.1869
 21
47.0536
  0
LINE
  8
0
 10
-77.1869
 20
47.0536
 11
-76.9123
 21
47.3115
  0
LINE
  8
0
 10
-76.9123
 20
47.3115
 11
-76.6075
 21
47.533
  0
LINE
  8
0
 10
-76.6075
 20
47.533
 11
-76.2773
 21
47.7145
  0
LINE
  8
0
 10
-76.2773
 20
47.7145
 11
-75.927
 21
47.8532
  0
LINE
  8
0
 10
-75.927
 20
47.8532
 11
-75.5621
 21
47.9469
  0
LINE
  8
0
 10
-75.5621
 20
47.9469
 11
-75.1884
 21
47.9941
  0
LINE
  8
0
 10
-75.1884
 20
47.9941
 11
-74.8116
 21
47.9941
  0
LINE
  8
0
 10
-74.8116
 20
47.9941
 11
-74.4379
 21
47.9469
  0
LINE
  8
0
 10
-74.4379
 20
47.9469
 11
-74.073
 21
47.8532
  0
LINE
  8
0
 10
-74.073
 20
47.8532
 11
-73.7227
 21
47.7145
  0
LINE
  8
0
 10
-73.7227
 20
47.7145
 11
-73.3925
 21
47.533
  0
LINE
  8
0
 10
-73.3925
 20
47.533
 11
-73.0877
 21
47.3115
  0
LINE
  8
0
 10
-73.0877
 20
47.3115
 11
-72.8131
 21
47.0536
  0
LINE
  8
0
 10
-72.8131
 20
47.0536
 11
-72.573
 21
46.7634
  0
LINE
  8
0
 10
-72.573
 20
46.7634
 11
-72.3711
 21
46.4453
  0
LINE
  8
0
 10
-72.3711
 20
46.4453
 11
-72.2107
 21
46.1044
  0
LINE
  8
0
 10
-72.2107
 20
46.1044
 11
-72.0943
 21
45.7461
  0
LINE
  8
0
 10
-72.0943
 20
45.7461
 11
-72.0237
 21
45.376
  0
LINE
  8
0
 10
-72.0237
 20
45.376
 11
-72
 21
45
  0
LINE
  8
0
 10
-72
 20
45
 11
-72.0237
 21
44.624
  0
LINE
  8
0
 10
-72.0237
 20
44.624
 11
-72.0943
 21
44.2539
  0
LINE
  8
0
 10
-72.0943
 20
44.2539
 11
-72.2107
 21
43.8956
  0
LINE
  8
0
 10
-72.2107
 20
43.8956
 11
-72.3711
 21
43.5547
  0
LINE
  8
0
 10
-72.3711
 20
43.5547
 11
-72.573
 21
43.2366
  0
LINE
  8
0
 10
-72.573
 20
43.2366
 11
-72.8131
 21
42.9464
  0
LINE
  8
0
 10
-72.8131
 20
42.9464
 11
-73.0877
 21
42.6885
  0
LINE
  8
0
 10
-73.0877
 20
42.6885
 11
-73.3925
 21
42.467
  0
LINE
  8
0
 10
-73.3925
 20
42.467
 11
-73.7227
 21
42.2855
  0
LINE
  8
0
 10
-73.7227
 20
42.2855
 11
-74.073
 21
42.1468
  0
LINE
  8
0
 10
-74.073
 20
42.1468
 11
-74.4379
 21
42.0531
  0
LINE
  8
0
 10
-74.4379
 20
42.0531
 11
-74.8116
 21
42.0059
  0
LINE
  8
0
 10
-74.8116
 20
42.0059
 11
-75.1884
 21
42.0059
  0
LINE
  8
0
 10
44.8116
 20
42.0059
 11
44.4379
 21
42.0531
  0
LINE
  8
0
 10
44.4379
 20
42.0531
 11
44.0729
 21
42.1468
  0
LINE
  8
0
 10
44.0729
 20
42.1468
 11
43.7227
 21
42.2855
  0
LINE
  8
0
 10
43.7227
 20
42.2855
 11
43.3925
 21
42.467
  0
LINE
  8
0
 10
43.3925
 20
42.467
 11
43.0877
 21
42.6885
  0
LINE
  8
0
 10
43.0877
 20
42.6885
 11
42.8131
 21
42.9464
  0
LINE
  8
0
 10
42.8131
 20
42.9464
 11
42.5729
 21
43.2366
  0
LINE
  8
0
 10
42.5729
 20
43.2366
 11
42.3711
 21
43.5547
  0
LINE
  8
0
 10
42.3711
 20
43.5547
 11
42.2107
 21
43.8956
  0
LINE
  8
0
 10
42.2107
 20
43.8956
 11
42.0942
 21
44.2539
  0
LINE
  8
0
 10
42.0942
 20
44.2539
 11
42.0237
 21
44.624
  0
LINE
  8
0
 10
42.0237
 20
44.624
 11
42
 21
45
  0
LINE
  8
0
 10
42
 20
45
 11
42.0237
 21
45.376
  0
LINE
  8
0
 10
42.0237
 20
45.376
 11
42.0942
 21
45.7461
  0
LINE
  8
0
 10
42.0942
 20
45.7461
 11
42.2107
 21
46.1044
  0
LINE
  8
0
 10
42.2107
 20
46.1044
 11
42.3711
 21
46.4453
  0
LINE
  8
0
 10
42.3711
 20
46.4453
 11
42.5729
 21
46.7634
  0
LINE
  8
0
 10
42.5729
 20
46.7634
 11
42.8131
 21
47.0536
  0
LINE
  8
0
 10
42.8131
 20
47.0536
 11
43.0877
 21
47.3115
  0
LINE
  8
0
 10
43.0877
 20
47.3115
 11
43.3925
 21
47.533
  0
LINE
  8
0
 10
43.3925
 20
47.533
 11
43.7227
 21
47.7145
  0
LINE
  8
0
 10
43.7227
 20
47.7145
 11
44.0729
 21
47.8532
  0
LINE
  8
0
 10
44.0729
 20
47.8532
 11
44.4379
 21
47.9469
  0
LINE
  8
0
 10
44.4379
 20
47.9469
 11
44.8116
 21
47.9941
  0
LINE
  8
0
 10
44.8116
 20
47.9941
 11
45.1884
 21
47.9941
  0
LINE
  8
0
 10
45.1884
 20
47.9941
 11
45.5621
 21
47.9469
  0
LINE
  8
0
 10
45.5621
 20
47.9469
 11
45.927
 21
47.8532
  0
LINE
  8
0
 10
45.927
 20
47.8532
 11
46.2773
 21
47.7145
  0
LINE
  8
0
 10
46.2773
 20
47.7145
 11
46.6075
 21
47.533
  0
LINE
  8
0
 10
46.6075
 20
47.533
 11
46.9123
 21
47.3115
  0
LINE
  8
0
 10
46.9123
 20
47.3115
 11
47.1869
 21
47.0536
  0
LINE
  8
0
 10
47.1869
 20
47.0536
 11
47.427
 21
46.7634
  0
LINE
  8
0
 10
47.427
 20
46.7634
 11
47.6289
 21
46.4453
  0
LINE
  8
0
 10
47.6289
 20
46.4453
 11
47.7893
 21
46.1044
  0
LINE
  8
0
 10
47.7893
 20
46.1044
 11
47.9057
 21
45.7461
  0
LINE
  8
0
 10
47.9057
 20
45.7461
 11
47.9763
 21
45.376
  0
LINE
  8
0
 10
47.9763
 20
45.376
 11
48
 21
45
  0
LINE
  8
0
 10
48
 20
45
 11
47.9763
 21
44.624
  0
LINE
  8
0
 10
47.9763
 20
44.624
 11
47.9057
 21
44.2539
  0
LINE
  8
0
 10
47.9057
 20
44.2539
 11
47.7893
 21
43.8956
  0
LINE
  8
0
 10
47.7893
 20
43.8956
 11
47.6289
 21
43.5547
  0
LINE
  8
0
 10
47.6289
 20
43.5547
 11
47.427
 21
43.2366
  0
LINE
  8
0
 10
47.427
 20
43.2366
 11
47.1869
 21
42.9464
  0
LINE
  8
0
 10
47.1869
 20
42.9464
 11
46.9123
 21
42.6885
  0
LINE
  8
0
 10
46.9123
 20
42.6885
 11
46.6075
 21
42.467
  0
LINE
  8
0
 10
46.6075
 20
42.467
 11
46.2773
 21
42.2855
  0
LINE
  8
0
 10
46.2773
 20
42.2855
 11
45.927
 21
42.1468
  0
LINE
  8
0
 10
45.927
 20
42.1468
 11
45.5621
 21
42.0531
  0
LINE
  8
0
 10
45.5621
 20
42.0531
 11
45.1884
 21
42.0059
  0
LINE
  8
0
 10
45.1884
 20
42.0059
 11
44.8116
 21
42.0059
  0
LINE
  8
0
 10
-60.1884
 20
42.0059
 11
-60.5621
 21
42.0531
  0
LINE
  8
0
 10
-60.5621
 20
42.0531
 11
-60.927
 21
42.1468
  0
LINE
  8
0
 10
-60.927
 20
42.1468
 11
-61.2773
 21
42.2855
  0
LINE
  8
0
 10
-61.2773
 20
42.2855
 11
-61.6075
 21
42.467
  0
LINE
  8
0
 10
-61.6075
 20
42.467
 11
-61.9123
 21
42.6885
  0
LINE
  8
0
 10
-61.9123
 20
42.6885
 11
-62.1869
 21
42.9464
  0
LINE
  8
0
 10
-62.1869
 20
42.9464
 11
-62.427
 21
43.2366
  0
LINE
  8
0
 10
-62.427
 20
43.2366
 11
-62.6289
 21
43.5547
  0
LINE
  8
0
 10
-62.6289
 20
43.5547
 11
-62.7893
 21
43.8956
  0
LINE
  8
0
 10
-62.7893
 20
43.8956
 11
-62.9057
 21
44.2539
  0
LINE
  8
0
 10
-62.9057
 20
44.2539
 11
-62.9763
 21
44.624
  0
LINE
  8
0
 10
-62.9763
 20
44.624
 11
-63
 21
45
  0
LINE
  8
0
 10
-63
 20
45
 11
-62.9763
 21
45.376
  0
LINE
  8
0
 10
-62.9763
 20
45.376
 11
-62.9057
 21
45.7461
  0
LINE
  8
0
 10
-62.9057
 20
45.7461
 11
-62.7893
 21
46.1044
  0
LINE
  8
0
 10
-62.7893
 20
46.1044
 11
-62.6289
 21
46.4453
  0
LINE
  8
0
 10
-62.6289
 20
46.4453
 11
-62.427
 21
46.7634
  0
LINE
  8
0
 10
-62.427
 20
46.7634
 11
-62.1869
 21
47.0536
  0
LINE
  8
0
 10
-62.1869
 20
47.0536
 11
-61.9123
 21
47.3115
  0
LINE
  8
0
 10
-61.9123
 20
47.3115
 11
-61.6075
 21
47.533
  0
LINE
  8
0
 10
-61.6075
 20
47.533
 11
-61.2773
 21
47.7145
  0
LINE
  8
0
 10
-61.2773
 20
47.7145
 11
-60.927
 21
47.8532
  0
LINE
  8
0
 10
-60.927
 20
47.8532
 11
-60.5621
 21
47.9469
  0
LINE
  8
0
 10
-60.5621
 20
47.9469
 11
-60.1884
 21
47.9941
  0
LINE
  8
0
 10
-60.1884
 20
47.9941
 11
-59.8116
 21
47.9941
  0
LINE
  8
0
 10
-59.8116
 20
47.9941
 11
-59.4379
 21
47.9469
  0
LINE
  8
0
 10
-59.4379
 20
47.9469
 11
-59.0729
 21
47.8532
  0
LINE
  8
0
 10
-59.0729
 20
47.8532
 11
-58.7227
 21
47.7145
  0
LINE
  8
0
 10
-58.7227
 20
47.7145
 11
-58.3925
 21
47.533
  0
LINE
  8
0
 10
-58.3925
 20
47.533
 11
-58.0877
 21
47.3115
  0
LINE
  8
0
 10
-58.0877
 20
47.3115
 11
-57.8131
 21
47.0536
  0
LINE
  8
0
 10
-57.8131
 20
47.0536
 11
-57.5729
 21
46.7634
  0
LINE
  8
0
 10
-57.5729
 20
46.7634
 11
-57.3711
 21
46.4453
  0
LINE
  8
0
 10
-57.3711
 20
46.4453
 11
-57.2107
 21
46.1044
  0
LINE
  8
0
 10
-57.2107
 20
46.1044
 11
-57.0942
 21
45.7461
  0
LINE
  8
0
 10
-57.0942
 20
45.7461
 11
-57.0237
 21
45.376
  0
LINE
  8
0
 10
-57.0237
 20
45.376
 11
-57
 21
45
  0
LINE
  8
0
 10
-57
 20
45
 11
-57.0237
 21
44.624
  0
LINE
  8
0
 10
-57.0237
 20
44.624
 11
-57.0942
 21
44.2539
  0
LINE
  8
0
 10
-57.0942
 20
44.2539
 11
-57.2107
 21
43.8956
  0
LINE
  8
0
 10
-57.2107
 20
43.8956
 11
-57.3711
 21
43.5547
  0
LINE
  8
0
 10
-57.3711
 20
43.5547
 11
-57.5729
 21
43.2366
  0
LINE
  8
0
 10
-57.5729
 20
43.2366
 11
-57.8131
 21
42.9464
  0
LINE
  8
0
 10
-57.8131
 20
42.9464
 11
-58.0877
 21
42.6885
  0
LINE
  8
0
 10
-58.0877
 20
42.6885
 11
-58.3925
 21
42.467
  0
LINE
  8
0
 10
-58.3925
 20
42.467
 11
-58.7227
 21
42.2855
  0
LINE
  8
0
 10
-58.7227
 20
42.2855
 11
-59.0729
 21
42.1468
  0
LINE
  8
0
 10
-59.0729
 20
42.1468
 11
-59.4379
 21
42.0531
  0
LINE
  8
0
 10
-59.4379
 20
42.0531
 11
-59.8116
 21
42.0059
  0
LINE
  8
0
 10
-59.8116
 20
42.0059
 11
-60.1884
 21
42.0059
  0
LINE
  8
0
 10
-45.1884
 20
42.0059
 11
-45.5621
 21
42.0531
  0
LINE
  8
0
 10
-45.5621
 20
42.0531
 11
-45.927
 21
42.1468
  0
LINE
  8
0
 10
-45.927
 20
42.1468
 11
-46.2773
 21
42.2855
  0
LINE
  8
0
 10
-46.2773
 20
42.2855
 11
-46.6075
 21
42.467
  0
LINE
  8
0
 10
-46.6075
 20
42.467
 11
-46.9123
 21
42.6885
  0
LINE
  8
0
 10
-46.9123
 20
42.6885
 11
-47.1869
 21
42.9464
  0
LINE
  8
0
 10
-47.1869
 20
42.9464
 11
-47.427
 21
43.2366
  0
LINE
  8
0
 10
-47.427
 20
43.2366
 11
-47.6289
 21
43.5547
  0
LINE
  8
0
 10
-47.6289
 20
43.5547
 11
-47.7893
 21
43.8956
  0
LINE
  8
0
 10
-47.7893
 20
43.8956
 11
-47.9057
 21
44.2539
  0
LINE
  8
0
 10
-47.9057
 20
44.2539
 11
-47.9763
 21
44.624
  0
LINE
  8
0
 10
-47.9763
 20
44.624
 11
-48
 21
45
  0
LINE
  8
0
 10
-48
 20
45
 11
-47.9763
 21
45.376
  0
LINE
  8
0
 10
-47.9763
 20
45.376
 11
-47.9057
 21
45.7461
  0
LINE
  8
0
 10
-47.9057
 20
45.7461
 11
-47.7893
 21
46.1044
  0
LINE
  8
0
 10
-47.7893
 20
46.1044
 11
-47.6289
 21
46.4453
  0
LINE
  8
0
 10
-47.6289
 20
46.4453
 11
-47.427
 21
46.7634
  0
LINE
  8
0
 10
-47.427
 20
46.7634
 11
-47.1869
 21
47.0536
  0
LINE
  8
0
 10
-47.1869
 20
47.0536
 11
-46.9123
 21
47.3115
  0
LINE
  8
0
 10
-46.9123
 20
47.3115
 11
-46.6075
 21
47.533
  0
LINE
  8
0
 10
-46.6075
 20
47.533
 11
-46.2773
 21
47.7145
  0
LINE
  8
0
 10
-46.2773
 20
47.7145
 11
-45.927
 21
47.8532
  0
LINE
  8
0
 10
-45.927
 20
47.8532
 11
-45.5621
 21
47.9469
  0
LINE
  8
0
 10
-45.5621
 20
47.9469
 11
-45.1884
 21
47.9941
  0
LINE
  8
0
 10
-45.1884
 20
47.9941
 11
-44.8116
 21
47.9941
  0
LINE
  8
0
 10
-44.8116
 20
47.9941
 11
-44.4379
 21
47.9469
  0
LINE
  8
0
 10
-44.4379
 20
47.9469
 11
-44.0729
 21
47.8532
  0
LINE
  8
0
 10
-44.0729
 20
47.8532
 11
-43.7227
 21
47.7145
  0
LINE
  8
0
 10
-43.7227
 20
47.7145
 11
-43.3925
 21
47.533
  0
LINE
  8
0
 10
-43.3925
 20
47.533
 11
-43.0877
 21
47.3115
  0
LINE
  8
0
 10
-43.0877
 20
47.3115
 11
-42.8131
 21
47.0536
  0
LINE
  8
0
 10
-42.8131
 20
47.0536
 11
-42.5729
 21
46.7634
  0
LINE
  8
0
 10
-42.5729
 20
46.7634
 11
-42.3711
 21
46.4453
  0
LINE
  8
0
 10
-42.3711
 20
46.4453
 11
-42.2107
 21
46.1044
  0
LINE
  8
0
 10
-42.2107
 20
46.1044
 11
-42.0942
 21
45.7461
  0
LINE
  8
0
 10
-42.0942
 20
45.7461
 11
-42.0237
 21
45.376
  0
LINE
  8
0
 10
-42.0237
 20
45.376
 11
-42
 21
45
  0
LINE
  8
0
 10
-42
 20
45
 11
-42.0237
 21
44.624
  0
LINE
  8
0
 10
-42.0237
 20
44.624
 11
-42.0942
 21
44.2539
  0
LINE
  8
0
 10
-42.0942
 20
44.2539
 11
-42.2107
 21
43.8956
  0
LINE
  8
0
 10
-42.2107
 20
43.8956
 11
-42.3711
 21
43.5547
  0
LINE
  8
0
 10
-42.3711
 20
43.5547
 11
-42.5729
 21
43.2366
  0
LINE
  8
0
 10
-42.5729
 20
43.2366
 11
-42.8131
 21
42.9464
  0
LINE
  8
0
 10
-42.8131
 20
42.9464
 11
-43.0877
 21
42.6885
  0
LINE
  8
0
 10
-43.0877
 20
42.6885
 11
-43.3925
 21
42.467
  0
LINE
  8
0
 10
-43.3925
 20
42.467
 11
-43.7227
 21
42.2855
  0
LINE
  8
0
 10
-43.7227
 20
42.2855
 11
-44.0729
 21
42.1468
  0
LINE
  8
0
 10
-44.0729
 20
42.1468
 11
-44.4379
 21
42.0531
  0
LINE
  8
0
 10
-44.4379
 20
42.0531
 11
-44.8116
 21
42.0059
  0
LINE
  8
0
 10
-44.8116
 20
42.0059
 11
-45.1884
 21
42.0059
  0
LINE
  8
0
 10
-15.1884
 20
42.0059
 11
-15.5621
 21
42.0531
  0
LINE
  8
0
 10
-15.5621
 20
42.0531
 11
-15.927
 21
42.1468
  0
LINE
  8
0
 10
-15.927
 20
42.1468
 11
-16.2773
 21
42.2855
  0
LINE
  8
0
 10
-16.2773
 20
42.2855
 11
-16.6075
 21
42.467
  0
LINE
  8
0
 10
-16.6075
 20
42.467
 11
-16.9123
 21
42.6885
  0
LINE
  8
0
 10
-16.9123
 20
42.6885
 11
-17.1869
 21
42.9464
  0
LINE
  8
0
 10
-17.1869
 20
42.9464
 11
-17.427
 21
43.2366
  0
LINE
  8
0
 10
-17.427
 20
43.2366
 11
-17.6289
 21
43.5547
  0
LINE
  8
0
 10
-17.6289
 20
43.5547
 11
-17.7893
 21
43.8956
  0
LINE
  8
0
 10
-17.7893
 20
43.8956
 11
-17.9057
 21
44.2539
  0
LINE
  8
0
 10
-17.9057
 20
44.2539
 11
-17.9763
 21
44.624
  0
LINE
  8
0
 10
-17.9763
 20
44.624
 11
-18
 21
45
  0
LINE
  8
0
 10
-18
 20
45
 11
-17.9763
 21
45.376
  0
LINE
  8
0
 10
-17.9763
 20
45.376
 11
-17.9057
 21
45.7461
  0
LINE
  8
0
 10
-17.9057
 20
45.7461
 11
-17.7893
 21
46.1044
  0
LINE
  8
0
 10
-17.7893
 20
46.1044
 11
-17.6289
 21
46.4453
  0
LINE
  8
0
 10
-17.6289
 20
46.4453
 11
-17.427
 21
46.7634
  0
LINE
  8
0
 10
-17.427
 20
46.7634
 11
-17.1869
 21
47.0536
  0
LINE
  8
0
 10
-17.1869
 20
47.0536
 11
-16.9123
 21
47.3115
  0
LINE
  8
0
 10
-16.9123
 20
47.3115
 11
-16.6075
 21
47.533
  0
LINE
  8
0
 10
-16.6075
 20
47.533
 11
-16.2773
 21
47.7145
  0
LINE
  8
0
 10
-16.2773
 20
47.7145
 11
-15.927
 21
47.8532
  0
LINE
  8
0
 10
-15.927
 20
47.8532
 11
-15.5621
 21
47.9469
  0
LINE
  8
0
 10
-15.5621
 20
47.9469
 11
-15.1884
 21
47.9941
  0
LINE
  8
0
 10
-15.1884
 20
47.9941
 11
-14.8116
 21
47.9941
  0
LINE
  8
0
 10
-14.8116
 20
47.9941
 11
-14.4379
 21
47.9469
  0
LINE
  8
0
 10
-14.4379
 20
47.9469
 11
-14.0729
 21
47.8532
  0
LINE
  8
0
 10
-14.0729
 20
47.8532
 11
-13.7227
 21
47.7145
  0
LINE
  8
0
 10
-13.7227
 20
47.7145
 11
-13.3925
 21
47.533
  0
LINE
  8
0
 10
-13.3925
 20
47.533
 11
-13.0877
 21
47.3115
  0
LINE
  8
0
 10
-13.0877
 20
47.3115
 11
-12.8131
 21
47.0536
  0
LINE
  8
0
 10
-12.8131
 20
47.0536
 11
-12.5729
 21
46.7634
  0
LINE
  8
0
 10
-12.5729
 20
46.7634
 11
-12.3711
 21
46.4453
  0
LINE
  8
0
 10
-12.3711
 20
46.4453
 11
-12.2107
 21
46.1044
  0
LINE
  8
0
 10
-12.2107
 20
46.1044
 11
-12.0942
 21
45.7461
  0
LINE
  8
0
 10
-12.0942
 20
45.7461
 11
-12.0237
 21
45.376
  0
LINE
  8
0
 10
-12.0237
 20
45.376
 11
-12
 21
45
  0
LINE
  8
0
 10
-12
 20
45
 11
-12.0237
 21
44.624
  0
LINE
  8
0
 10
-12.0237
 20
44.624
 11
-12.0942
 21
44.2539
  0
LINE
  8
0
 10
-12.0942
 20
44.2539
 11
-12.2107
 21
43.8956
  0
LINE
  8
0
 10
-12.2107
 20
43.8956
 11
-12.3711
 21
43.5547
  0
LINE
  8
0
 10
-12.3711
 20
43.5547
 11
-12.5729
 21
43.2366
  0
LINE
  8
0
 10
-12.5729
 20
43.2366
 11
-12.8131
 21
42.9464
  0
LINE
  8
0
 10
-12.8131
 20
42.9464
 11
-13.0877
 21
42.6885
  0
LINE
  8
0
 10
-13.0877
 20
42.6885
 11
-13.3925
 21
42.467
  0
LINE
  8
0
 10
-13.3925
 20
42.467
 11
-13.7227
 21
42.2855
  0
LINE
  8
0
 10
-13.7227
 20
42.2855
 11
-14.0729
 21
42.1468
  0
LINE
  8
0
 10
-14.0729
 20
42.1468
 11
-14.4379
 21
42.0531
  0
LINE
  8
0
 10
-14.4379
 20
42.0531
 11
-14.8116
 21
42.0059
  0
LINE
  8
0
 10
-14.8116
 20
42.0059
 11
-15.1884
 21
42.0059
  0
LINE
  8
0
 10
14.8116
 20
42.0059
 11
14.4379
 21
42.0531
  0
LINE
  8
0
 10
14.4379
 20
42.0531
 11
14.0729
 21
42.1468
  0
LINE
  8
0
 10
14.0729
 20
42.1468
 11
13.7227
 21
42.2855
  0
LINE
  8
0
 10
13.7227
 20
42.2855
 11
13.3925
 21
42.467
  0
LINE
  8
0
 10
13.3925
 20
42.467
 11
13.0877
 21
42.6885
  0
LINE
  8
0
 10
13.0877
 20
42.6885
 11
12.8131
 21
42.9464
  0
LINE
  8
0
 10
12.8131
 20
42.9464
 11
12.5729
 21
43.2366
  0
LINE
  8
0
 10
12.5729
 20
43.2366
 11
12.3711
 21
43.5547
  0
LINE
  8
0
 10
12.3711
 20
43.5547
 11
12.2107
 21
43.8956
  0
LINE
  8
0
 10
12.2107
 20
43.8956
 11
12.0942
 21
44.2539
  0
LINE
  8
0
 10
12.0942
 20
44.2539
 11
12.0237
 21
44.624
  0
LINE
  8
0
 10
12.0237
 20
44.624
 11
12
 21
45
  0
LINE
  8
0
 10
12
 20
45
 11
12.0237
 21
45.376
  0
LINE
  8
0
 10
12.0237
 20
45.376
 11
12.0942
 21
45.7461
  0
LINE
  8
0
 10
12.0942
 20
45.7461
 11
12.2107
 21
46.1044
  0
LINE
  8
0
 10
12.2107
 20
46.1044
 11
12.3711
 21
46.4453
  0
LINE
  8
0
 10
12.3711
 20
46.4453
 11
12.5729
 21
46.7634
  0
LINE
  8
0
 10
12.5729
 20
46.7634
 11
12.8131
 21
47.0536
  0
LINE
  8
0
 10
12.8131
 20
47.0536
 11
13.0877
 21
47.3115
  0
LINE
  8
0
 10
13.0877
 20
47.3115
 11
13.3925
 21
47.533
  0
LINE
  8
0
 10
13.3925
 20
47.533
 11
13.7227
 21
47.7145
  0
LINE
  8
0
 10
13.7227
 20
47.7145
 11
14.0729
 21
47.8532
  0
LINE
  8
0
 10
14.0729
 20
47.8532
 11
14.4379
 21
47.9469
  0
LINE
  8
0
 10
14.4379
 20
47.9469
 11
14.8116
 21
47.9941
  0
LINE
  8
0
 10
14.8116
 20
47.9941
 11
15.1884
 21
47.9941
  0
LINE
  8
0
 10
15.1884
 20
47.9941
 11
15.5621
 21
47.9469
  0
LINE
  8
0
 10
15.5621
 20
47.9469
 11
15.927
 21
47.8532
  0
LINE
  8
0
 10
15.927
 20
47.8532
 11
16.2773
 21
47.7145
  0
LINE
  8
0
 10
16.2773
 20
47.7145
 11
16.6075
 21
47.533
  0
LINE
  8
0
 10
16.6075
 20
47.533
 11
16.9123
 21
47.3115
  0
LINE
  8
0
 10
16.9123
 20
47.3115
 11
17.1869
 21
47.0536
  0
LINE
  8
0
 10
17.1869
 20
47.0536
 11
17.427
 21
46.7634
  0
LINE
  8
0
 10
17.427
 20
46.7634
 11
17.6289
 21
46.4453
  0
LINE
  8
0
 10
17.6289
 20
46.4453
 11
17.7893
 21
46.1044
  0
LINE
  8
0
 10
17.7893
 20
46.1044
 11
17.9057
 21
45.7461
  0
LINE
  8
0
 10
17.9057
 20
45.7461
 11
17.9763
 21
45.376
  0
LINE
  8
0
 10
17.9763
 20
45.376
 11
18
 21
45
  0
LINE
  8
0
 10
18
 20
45
 11
17.9763
 21
44.624
  0
LINE
  8
0
 10
17.9763
 20
44.624
 11
17.9057
 21
44.2539
  0
LINE
  8
0
 10
17.9057
 20
44.2539
 11
17.7893
 21
43.8956
  0
LINE
  8
0
 10
17.7893
 20
43.8956
 11
17.6289
 21
43.5547
  0
LINE
  8
0
 10
17.6289
 20
43.5547
 11
17.427
 21
43.2366
  0
LINE
  8
0
 10
17.427
 20
43.2366
 11
17.1869
 21
42.9464
  0
LINE
  8
0
 10
17.1869
 20
42.9464
 11
16.9123
 21
42.6885
  0
LINE
  8
0
 10
16.9123
 20
42.6885
 11
16.6075
 21
42.467
  0
LINE
  8
0
 10
16.6075
 20
42.467
 11
16.2773
 21
42.2855
  0
LINE
  8
0
 10
16.2773
 20
42.2855
 11
15.927
 21
42.1468
  0
LINE
  8
0
 10
15.927
 20
42.1468
 11
15.5621
 21
42.0531
  0
LINE
  8
0
 10
15.5621
 20
42.0531
 11
15.1884
 21
42.0059
  0
LINE
  8
0
 10
15.1884
 20
42.0059
 11
14.8116
 21
42.0059
  0
LINE
  8
0
 10
29.8116
 20
42.0059
 11
29.4379
 21
42.0531
  0
LINE
  8
0
 10
29.4379
 20
42.0531
 11
29.0729
 21
42.1468
  0
LINE
  8
0
 10
29.0729
 20
42.1468
 11
28.7227
 21
42.2855
  0
LINE
  8
0
 10
28.7227
 20
42.2855
 11
28.3925
 21
42.467
  0
LINE
  8
0
 10
28.3925
 20
42.467
 11
28.0877
 21
42.6885
  0
LINE
  8
0
 10
28.0877
 20
42.6885
 11
27.8131
 21
42.9464
  0
LINE
  8
0
 10
27.8131
 20
42.9464
 11
27.5729
 21
43.2366
  0
LINE
  8
0
 10
27.5729
 20
43.2366
 11
27.3711
 21
43.5547
  0
LINE
  8
0
 10
27.3711
 20
43.5547
 11
27.2107
 21
43.8956
  0
LINE
  8
0
 10
27.2107
 20
43.8956
 11
27.0942
 21
44.2539
  0
LINE
  8
0
 10
27.0942
 20
44.2539
 11
27.0237
 21
44.624
  0
LINE
  8
0
 10
27.0237
 20
44.624
 11
27
 21
45
  0
LINE
  8
0
 10
27
 20
45
 11
27.0237
 21
45.376
  0
LINE
  8
0
 10
27.0237
 20
45.376
 11
27.0942
 21
45.7461
  0
LINE
  8
0
 10
27.0942
 20
45.7461
 11
27.2107
 21
46.1044
  0
LINE
  8
0
 10
27.2107
 20
46.1044
 11
27.3711
 21
46.4453
  0
LINE
  8
0
 10
27.3711
 20
46.4453
 11
27.5729
 21
46.7634
  0
LINE
  8
0
 10
27.5729
 20
46.7634
 11
27.8131
 21
47.0536
  0
LINE
  8
0
 10
27.8131
 20
47.0536
 11
28.0877
 21
47.3115
  0
LINE
  8
0
 10
28.0877
 20
47.3115
 11
28.3925
 21
47.533
  0
LINE
  8
0
 10
28.3925
 20
47.533
 11
28.7227
 21
47.7145
  0
LINE
  8
0
 10
28.7227
 20
47.7145
 11
29.0729
 21
47.8532
  0
LINE
  8
0
 10
29.0729
 20
47.8532
 11
29.4379
 21
47.9469
  0
LINE
  8
0
 10
29.4379
 20
47.9469
 11
29.8116
 21
47.9941
  0
LINE
  8
0
 10
29.8116
 20
47.9941
 11
30.1884
 21
47.9941
  0
LINE
  8
0
 10
30.1884
 20
47.9941
 11
30.5621
 21
47.9469
  0
LINE
  8
0
 10
30.5621
 20
47.9469
 11
30.927
 21
47.8532
  0
LINE
  8
0
 10
30.927
 20
47.8532
 11
31.2773
 21
47.7145
  0
LINE
  8
0
 10
31.2773
 20
47.7145
 11
31.6075
 21
47.533
  0
LINE
  8
0
 10
31.6075
 20
47.533
 11
31.9123
 21
47.3115
  0
LINE
  8
0
 10
31.9123
 20
47.3115
 11
32.1869
 21
47.0536
  0
LINE
  8
0
 10
32.1869
 20
47.0536
 11
32.427
 21
46.7634
  0
LINE
  8
0
 10
32.427
 20
46.7634
 11
32.6289
 21
46.4453
  0
LINE
  8
0
 10
32.6289
 20
46.4453
 11
32.7893
 21
46.1044
  0
LINE
  8
0
 10
32.7893
 20
46.1044
 11
32.9057
 21
45.7461
  0
LINE
  8
0
 10
32.9057
 20
45.7461
 11
32.9763
 21
45.376
  0
LINE
  8
0
 10
32.9763
 20
45.376
 11
33
 21
45
  0
LINE
  8
0
 10
33
 20
45
 11
32.9763
 21
44.624
  0
LINE
  8
0
 10
32.9763
 20
44.624
 11
32.9057
 21
44.2539
  0
LINE
  8
0
 10
32.9057
 20
44.2539
 11
32.7893
 21
43.8956
  0
LINE
  8
0
 10
32.7893
 20
43.8956
 11
32.6289
 21
43.5547
  0
LINE
  8
0
 10
32.6289
 20
43.5547
 11
32.427
 21
43.2366
  0
LINE
  8
0
 10
32.427
 20
43.2366
 11
32.1869
 21
42.9464
  0
LINE
  8
0
 10
32.1869
 20
42.9464
 11
31.9123
 21
42.6885
  0
LINE
  8
0
 10
31.9123
 20
42.6885
 11
31.6075
 21
42.467
  0
LINE
  8
0
 10
31.6075
 20
42.467
 11
31.2773
 21
42.2855
  0
LINE
  8
0
 10
31.2773
 20
42.2855
 11
30.927
 21
42.1468
  0
LINE
  8
0
 10
30.927
 20
42.1468
 11
30.5621
 21
42.0531
  0
LINE
  8
0
 10
30.5621
 20
42.0531
 11
30.1884
 21
42.0059
  0
LINE
  8
0
 10
30.1884
 20
42.0059
 11
29.8116
 21
42.0059
  0
LINE
  8
0
 10
-0.18837
 20
42.0059
 11
-0.562134
 21
42.0531
  0
LINE
  8
0
 10
-0.562134
 20
42.0531
 11
-0.927048
 21
42.1468
  0
LINE
  8
0
 10
-0.927048
 20
42.1468
 11
-1.27733
 21
42.2855
  0
LINE
  8
0
 10
-1.27733
 20
42.2855
 11
-1.60747
 21
42.467
  0
LINE
  8
0
 10
-1.60747
 20
42.467
 11
-1.91226
 21
42.6885
  0
LINE
  8
0
 10
-1.91226
 20
42.6885
 11
-2.1869
 21
42.9464
  0
LINE
  8
0
 10
-2.1869
 20
42.9464
 11
-2.42705
 21
43.2366
  0
LINE
  8
0
 10
-2.42705
 20
43.2366
 11
-2.62891
 21
43.5547
  0
LINE
  8
0
 10
-2.62891
 20
43.5547
 11
-2.78932
 21
43.8956
  0
LINE
  8
0
 10
-2.78932
 20
43.8956
 11
-2.90575
 21
44.2539
  0
LINE
  8
0
 10
-2.90575
 20
44.2539
 11
-2.97633
 21
44.624
  0
LINE
  8
0
 10
-2.97633
 20
44.624
 11
-3
 21
45
  0
LINE
  8
0
 10
-3
 20
45
 11
-2.97633
 21
45.376
  0
LINE
  8
0
 10
-2.97633
 20
45.376
 11
-2.90575
 21
45.7461
  0
LINE
  8
0
 10
-2.90575
 20
45.7461
 11
-2.78932
 21
46.1044
  0
LINE
  8
0
 10
-2.78932
 20
46.1044
 11
-2.62891
 21
46.4453
  0
LINE
  8
0
 10
-2.62891
 20
46.4453
 11
-2.42705
 21
46.7634
  0
LINE
  8
0
 10
-2.42705
 20
46.7634
 11
-2.1869
 21
47.0536
  0
LINE
  8
0
 10
-2.1869
 20
47.0536
 11
-1.91226
 21
47.3115
  0
LINE
  8
0
 10
-1.91226
 20
47.3115
 11
-1.60747
 21
47.533
  0
LINE
  8
0
 10
-1.60747
 20
47.533
 11
-1.27733
 21
47.7145
  0
LINE
  8
0
 10
-1.27733
 20
47.7145
 11
-0.927048
 21
47.8532
  0
LINE
  8
0
 10
-0.927048
 20
47.8532
 11
-0.562134
 21
47.9469
  0
LINE
  8
0
 10
-0.562134
 20
47.9469
 11
-0.18837
 21
47.9941
  0
LINE
  8
0
 10
-0.18837
 20
47.9941
 11
0.18837
 21
47.9941
  0
LINE
  8
0
 10
0.18837
 20
47.9941
 11
0.562134
 21
47.9469
  0
LINE
  8
0
 10
0.562134
 20
47.9469
 11
0.927048
 21
47.8532
  0
LINE
  8
0
 10
0.927048
 20
47.8532
 11
1.27733
 21
47.7145
  0
LINE
  8
0
 10
1.27733
 20
47.7145
 11
1.60747
 21
47.533
  0
LINE
  8
0
 10
1.60747
 20
47.533
 11
1.91226
 21
47.3115
  0
LINE
  8
0
 10
1.91226
 20
47.3115
 11
2.1869
 21
47.0536
  0
LINE
  8
0
 10
2.1869
 20
47.0536
 11
2.42705
 21
46.7634
  0
LINE
  8
0
 10
2.42705
 20
46.7634
 11
2.62891
 21
46.4453
  0
LINE
  8
0
 10
2.62891
 20
46.4453
 11
2.78932
 21
46.1044
  0
LINE
  8
0
 10
2.78932
 20
46.1044
 11
2.90575
 21
45.7461
  0
LINE
  8
0
 10
2.90575
 20
45.7461
 11
2.97633
 21
45.376
  0
LINE
  8
0
 10
2.97633
 20
45.376
 11
3
 21
45
  0
LINE
  8
0
 10
3
 20
45
 11
2.97633
 21
44.624
  0
LINE
  8
0
 10
2.97633
 20
44.624
 11
2.90575
 21
44.2539
  0
LINE
  8
0
 10
2.90575
 20
44.2539
 11
2.78932
 21
43.8956
  0
LINE
  8
0
 10
2.78932
 20
43.8956
 11
2.62891
 21
43.5547
  0
LINE
  8
0
 10
2.62891
 20
43.5547
 11
2.42705
 21
43.2366
  0
LINE
  8
0
 10
2.42705
 20
43.2366
 11
2.1869
 21
42.9464
  0
LINE
  8
0
 10
2.1869
 20
42.9464
 11
1.91226
 21
42.6885
  0
LINE
  8
0
 10
1.91226
 20
42.6885
 11
1.60747
 21
42.467
  0
LINE
  8
0
 10
1.60747
 20
42.467
 11
1.27733
 21
42.2855
  0
LINE
  8
0
 10
1.27733
 20
42.2855
 11
0.927048
 21
42.1468
  0
LINE
  8
0
 10
0.927048
 20
42.1468
 11
0.562134
 21
42.0531
  0
LINE
  8
0
 10
0.562134
 20
42.0531
 11
0.18837
 21
42.0059
  0
LINE
  8
0
 10
0.18837
 20
42.0059
 11
-0.18837
 21
42.0059
  0
LINE
  8
0
 10
59.8116
 20
42.0059
 11
59.4379
 21
42.0531
  0
LINE
  8
0
 10
59.4379
 20
42.0531
 11
59.0729
 21
42.1468
  0
LINE
  8
0
 10
59.0729
 20
42.1468
 11
58.7227
 21
42.2855
  0
LINE
  8
0
 10
58.7227
 20
42.2855
 11
58.3925
 21
42.467
  0
LINE
  8
0
 10
58.3925
 20
42.467
 11
58.0877
 21
42.6885
  0
LINE
  8
0
 10
58.0877
 20
42.6885
 11
57.8131
 21
42.9464
  0
LINE
  8
0
 10
57.8131
 20
42.9464
 11
57.5729
 21
43.2366
  0
LINE
  8
0
 10
57.5729
 20
43.2366
 11
57.3711
 21
43.5547
  0
LINE
  8
0
 10
57.3711
 20
43.5547
 11
57.2107
 21
43.8956
  0
LINE
  8
0
 10
57.2107
 20
43.8956
 11
57.0942
 21
44.2539
  0
LINE
  8
0
 10
57.0942
 20
44.2539
 11
57.0237
 21
44.624
  0
LINE
  8
0
 10
57.0237
 20
44.624
 11
57
 21
45
  0
LINE
  8
0
 10
57
 20
45
 11
57.0237
 21
45.376
  0
LINE
  8
0
 10
57.0237
 20
45.376
 11
57.0942
 21
45.7461
  0
LINE
  8
0
 10
57.0942
 20
45.7461
 11
57.2107
 21
46.1044
  0
LINE
  8
0
 10
57.2107
 20
46.1044
 11
57.3711
 21
46.4453
  0
LINE
  8
0
 10
57.3711
 20
46.4453
 11
57.5729
 21
46.7634
  0
LINE
  8
0
 10
57.5729
 20
46.7634
 11
57.8131
 21
47.0536
  0
LINE
  8
0
 10
57.8131
 20
47.0536
 11
58.0877
 21
47.3115
  0
LINE
  8
0
 10
58.0877
 20
47.3115
 11
58.3925
 21
47.533
  0
LINE
  8
0
 10
58.3925
 20
47.533
 11
58.7227
 21
47.7145
  0
LINE
  8
0
 10
58.7227
 20
47.7145
 11
59.0729
 21
47.8532
  0
LINE
  8
0
 10
59.0729
 20
47.8532
 11
59.4379
 21
47.9469
  0
LINE
  8
0
 10
59.4379
 20
47.9469
 11
59.8116
 21
47.9941
  0
LINE
  8
0
 10
59.8116
 20
47.9941
 11
60.1884
 21
47.9941
  0
LINE
  8
0
 10
60.1884
 20
47.9941
 11
60.5621
 21
47.9469
  0
LINE
  8
0
 10
60.5621
 20
47.9469
 11
60.927
 21
47.8532
  0
LINE
  8
0
 10
60.927
 20
47.8532
 11
61.2773
 21
47.7145
  0
LINE
  8
0
 10
61.2773
 20
47.7145
 11
61.6075
 21
47.533
  0
LINE
  8
0
 10
61.6075
 20
47.533
 11
61.9123
 21
47.3115
  0
LINE
  8
0
 10
61.9123
 20
47.3115
 11
62.1869
 21
47.0536
  0
LINE
  8
0
 10
62.1869
 20
47.0536
 11
62.427
 21
46.7634
  0
LINE
  8
0
 10
62.427
 20
46.7634
 11
62.6289
 21
46.4453
  0
LINE
  8
0
 10
62.6289
 20
46.4453
 11
62.7893
 21
46.1044
  0
LINE
  8
0
 10
62.7893
 20
46.1044
 11
62.9057
 21
45.7461
  0
LINE
  8
0
 10
62.9057
 20
45.7461
 11
62.9763
 21
45.376
  0
LINE
  8
0
 10
62.9763
 20
45.376
 11
63
 21
45
  0
LINE
  8
0
 10
63
 20
45
 11
62.9763
 21
44.624
  0
LINE
  8
0
 10
62.9763
 20
44.624
 11
62.9057
 21
44.2539
  0
LINE
  8
0
 10
62.9057
 20
44.2539
 11
62.7893
 21
43.8956
  0
LINE
  8
0
 10
62.7893
 20
43.8956
 11
62.6289
 21
43.5547
  0
LINE
  8
0
 10
62.6289
 20
43.5547
 11
62.427
 21
43.2366
  0
LINE
  8
0
 10
62.427
 20
43.2366
 11
62.1869
 21
42.9464
  0
LINE
  8
0
 10
62.1869
 20
42.9464
 11
61.9123
 21
42.6885
  0
LINE
  8
0
 10
61.9123
 20
42.6885
 11
61.6075
 21
42.467
  0
LINE
  8
0
 10
61.6075
 20
42.467
 11
61.2773
 21
42.2855
  0
LINE
  8
0
 10
61.2773
 20
42.2855
 11
60.927
 21
42.1468
  0
LINE
  8
0
 10
60.927
 20
42.1468
 11
60.5621
 21
42.0531
  0
LINE
  8
0
 10
60.5621
 20
42.0531
 11
60.1884
 21
42.0059
  0
LINE
  8
0
 10
60.1884
 20
42.0059
 11
59.8116
 21
42.0059
  0
LINE
  8
0
 10
67.4058
 20
43.503
 11
67.2189
 21
43.5266
  0
LINE
  8
0
 10
67.2189
 20
43.5266
 11
67.0365
 21
43.5734
  0
LINE
  8
0
 10
67.0365
 20
43.5734
 11
66.8613
 21
43.6428
  0
LINE
  8
0
 10
66.8613
 20
43.6428
 11
66.6963
 21
43.7335
  0
LINE
  8
0
 10
66.6963
 20
43.7335
 11
66.5439
 21
43.8442
  0
LINE
  8
0
 10
66.5439
 20
43.8442
 11
66.4065
 21
43.9732
  0
LINE
  8
0
 10
66.4065
 20
43.9732
 11
66.2865
 21
44.1183
  0
LINE
  8
0
 10
66.2865
 20
44.1183
 11
66.1855
 21
44.2774
  0
LINE
  8
0
 10
66.1855
 20
44.2774
 11
66.1053
 21
44.4478
  0
LINE
  8
0
 10
66.1053
 20
44.4478
 11
66.0471
 21
44.627
  0
LINE
  8
0
 10
66.0471
 20
44.627
 11
66.0118
 21
44.812
  0
LINE
  8
0
 10
66.0118
 20
44.812
 11
66
 21
45
  0
LINE
  8
0
 10
66
 20
45
 11
66.0118
 21
45.188
  0
LINE
  8
0
 10
66.0118
 20
45.188
 11
66.0471
 21
45.373
  0
LINE
  8
0
 10
66.0471
 20
45.373
 11
66.1053
 21
45.5522
  0
LINE
  8
0
 10
66.1053
 20
45.5522
 11
66.1855
 21
45.7226
  0
LINE
  8
0
 10
66.1855
 20
45.7226
 11
66.2865
 21
45.8817
  0
LINE
  8
0
 10
66.2865
 20
45.8817
 11
66.4065
 21
46.0268
  0
LINE
  8
0
 10
66.4065
 20
46.0268
 11
66.5439
 21
46.1558
  0
LINE
  8
0
 10
66.5439
 20
46.1558
 11
66.6963
 21
46.2665
  0
LINE
  8
0
 10
66.6963
 20
46.2665
 11
66.8613
 21
46.3572
  0
LINE
  8
0
 10
66.8613
 20
46.3572
 11
67.0365
 21
46.4266
  0
LINE
  8
0
 10
67.0365
 20
46.4266
 11
67.2189
 21
46.4734
  0
LINE
  8
0
 10
67.2189
 20
46.4734
 11
67.4058
 21
46.497
  0
LINE
  8
0
 10
67.4058
 20
46.497
 11
67.5942
 21
46.497
  0
LINE
  8
0
 10
67.5942
 20
46.497
 11
67.7811
 21
46.4734
  0
LINE
  8
0
 10
67.7811
 20
46.4734
 11
67.9635
 21
46.4266
  0
LINE
  8
0
 10
67.9635
 20
46.4266
 11
68.1387
 21
46.3572
  0
LINE
  8
0
 10
68.1387
 20
46.3572
 11
68.3037
 21
46.2665
  0
LINE
  8
0
 10
68.3037
 20
46.2665
 11
68.4561
 21
46.1558
  0
LINE
  8
0
 10
68.4561
 20
46.1558
 11
68.5934
 21
46.0268
  0
LINE
  8
0
 10
68.5934
 20
46.0268
 11
68.7135
 21
45.8817
  0
LINE
  8
0
 10
68.7135
 20
45.8817
 11
68.8145
 21
45.7226
  0
LINE
  8
0
 10
68.8145
 20
45.7226
 11
68.8947
 21
45.5522
  0
LINE
  8
0
 10
68.8947
 20
45.5522
 11
68.9529
 21
45.373
  0
LINE
  8
0
 10
68.9529
 20
45.373
 11
68.9882
 21
45.188
  0
LINE
  8
0
 10
68.9882
 20
45.188
 11
69
 21
45
  0
LINE
  8
0
 10
69
 20
45
 11
68.9882
 21
44.812
  0
LINE
  8
0
 10
68.9882
 20
44.812
 11
68.9529
 21
44.627
  0
LINE
  8
0
 10
68.9529
 20
44.627
 11
68.8947
 21
44.4478
  0
LINE
  8
0
 10
68.8947
 20
44.4478
 11
68.8145
 21
44.2774
  0
LINE
  8
0
 10
68.8145
 20
44.2774
 11
68.7135
 21
44.1183
  0
LINE
  8
0
 10
68.7135
 20
44.1183
 11
68.5934
 21
43.9732
  0
LINE
  8
0
 10
68.5934
 20
43.9732
 11
68.4561
 21
43.8442
  0
LINE
  8
0
 10
68.4561
 20
43.8442
 11
68.3037
 21
43.7335
  0
LINE
  8
0
 10
68.3037
 20
43.7335
 11
68.1387
 21
43.6428
  0
LINE
  8
0
 10
68.1387
 20
43.6428
 11
67.9635
 21
43.5734
  0
LINE
  8
0
 10
67.9635
 20
43.5734
 11
67.7811
 21
43.5266
  0
LINE
  8
0
 10
67.7811
 20
43.5266
 11
67.5942
 21
43.503
  0
LINE
  8
0
 10
67.5942
 20
43.503
 11
67.4058
 21
43.503
  0
LINE
  8
0
 10
52.4058
 20
43.503
 11
52.2189
 21
43.5266
  0
LINE
  8
0
 10
52.2189
 20
43.5266
 11
52.0365
 21
43.5734
  0
LINE
  8
0
 10
52.0365
 20
43.5734
 11
51.8613
 21
43.6428
  0
LINE
  8
0
 10
51.8613
 20
43.6428
 11
51.6963
 21
43.7335
  0
LINE
  8
0
 10
51.6963
 20
43.7335
 11
51.5439
 21
43.8442
  0
LINE
  8
0
 10
51.5439
 20
43.8442
 11
51.4065
 21
43.9732
  0
LINE
  8
0
 10
51.4065
 20
43.9732
 11
51.2865
 21
44.1183
  0
LINE
  8
0
 10
51.2865
 20
44.1183
 11
51.1855
 21
44.2774
  0
LINE
  8
0
 10
51.1855
 20
44.2774
 11
51.1053
 21
44.4478
  0
LINE
  8
0
 10
51.1053
 20
44.4478
 11
51.0471
 21
44.627
  0
LINE
  8
0
 10
51.0471
 20
44.627
 11
51.0118
 21
44.812
  0
LINE
  8
0
 10
51.0118
 20
44.812
 11
51
 21
45
  0
LINE
  8
0
 10
51
 20
45
 11
51.0118
 21
45.188
  0
LINE
  8
0
 10
51.0118
 20
45.188
 11
51.0471
 21
45.373
  0
LINE
  8
0
 10
51.0471
 20
45.373
 11
51.1053
 21
45.5522
  0
LINE
  8
0
 10
51.1053
 20
45.5522
 11
51.1855
 21
45.7226
  0
LINE
  8
0
 10
51.1855
 20
45.7226
 11
51.2865
 21
45.8817
  0
LINE
  8
0
 10
51.2865
 20
45.8817
 11
51.4065
 21
46.0268
  0
LINE
  8
0
 10
51.4065
 20
46.0268
 11
51.5439
 21
46.1558
  0
LINE
  8
0
 10
51.5439
 20
46.1558
 11
51.6963
 21
46.2665
  0
LINE
  8
0
 10
51.6963
 20
46.2665
 11
51.8613
 21
46.3572
  0
LINE
  8
0
 10
51.8613
 20
46.3572
 11
52.0365
 21
46.4266
  0
LINE
  8
0
 10
52.0365
 20
46.4266
 11
52.2189
 21
46.4734
  0
LINE
  8
0
 10
52.2189
 20
46.4734
 11
52.4058
 21
46.497
  0
LINE
  8
0
 10
52.4058
 20
46.497
 11
52.5942
 21
46.497
  0
LINE
  8
0
 10
52.5942
 20
46.497
 11
52.7811
 21
46.4734
  0
LINE
  8
0
 10
52.7811
 20
46.4734
 11
52.9635
 21
46.4266
  0
LINE
  8
0
 10
52.9635
 20
46.4266
 11
53.1387
 21
46.3572
  0
LINE
  8
0
 10
53.1387
 20
46.3572
 11
53.3037
 21
46.2665
  0
LINE
  8
0
 10
53.3037
 20
46.2665
 11
53.4561
 21
46.1558
  0
LINE
  8
0
 10
53.4561
 20
46.1558
 11
53.5934
 21
46.0268
  0
LINE
  8
0
 10
53.5934
 20
46.0268
 11
53.7135
 21
45.8817
  0
LINE
  8
0
 10
53.7135
 20
45.8817
 11
53.8145
 21
45.7226
  0
LINE
  8
0
 10
53.8145
 20
45.7226
 11
53.8947
 21
45.5522
  0
LINE
  8
0
 10
53.8947
 20
45.5522
 11
53.9529
 21
45.373
  0
LINE
  8
0
 10
53.9529
 20
45.373
 11
53.9882
 21
45.188
  0
LINE
  8
0
 10
53.9882
 20
45.188
 11
54
 21
45
  0
LINE
  8
0
 10
54
 20
45
 11
53.9882
 21
44.812
  0
LINE
  8
0
 10
53.9882
 20
44.812
 11
53.9529
 21
44.627
  0
LINE
  8
0
 10
53.9529
 20
44.627
 11
53.8947
 21
44.4478
  0
LINE
  8
0
 10
53.8947
 20
44.4478
 11
53.8145
 21
44.2774
  0
LINE
  8
0
 10
53.8145
 20
44.2774
 11
53.7135
 21
44.1183
  0
LINE
  8
0
 10
53.7135
 20
44.1183
 11
53.5934
 21
43.9732
  0
LINE
  8
0
 10
53.5934
 20
43.9732
 11
53.4561
 21
43.8442
  0
LINE
  8
0
 10
53.4561
 20
43.8442
 11
53.3037
 21
43.7335
  0
LINE
  8
0
 10
53.3037
 20
43.7335
 11
53.1387
 21
43.6428
  0
LINE
  8
0
 10
53.1387
 20
43.6428
 11
52.9635
 21
43.5734
  0
LINE
  8
0
 10
52.9635
 20
43.5734
 11
52.7811
 21
43.5266
  0
LINE
  8
0
 10
52.7811
 20
43.5266
 11
52.5942
 21
43.503
  0
LINE
  8
0
 10
52.5942
 20
43.503
 11
52.4058
 21
43.503
  0
LINE
  8
0
 10
-52.5942
 20
43.503
 11
-52.7811
 21
43.5266
  0
LINE
  8
0
 10
-52.7811
 20
43.5266
 11
-52.9635
 21
43.5734
  0
LINE
  8
0
 10
-52.9635
 20
43.5734
 11
-53.1387
 21
43.6428
  0
LINE
  8
0
 10
-53.1387
 20
43.6428
 11
-53.3037
 21
43.7335
  0
LINE
  8
0
 10
-53.3037
 20
43.7335
 11
-53.4561
 21
43.8442
  0
LINE
  8
0
 10
-53.4561
 20
43.8442
 11
-53.5934
 21
43.9732
  0
LINE
  8
0
 10
-53.5934
 20
43.9732
 11
-53.7135
 21
44.1183
  0
LINE
  8
0
 10
-53.7135
 20
44.1183
 11
-53.8145
 21
44.2774
  0
LINE
  8
0
 10
-53.8145
 20
44.2774
 11
-53.8947
 21
44.4478
  0
LINE
  8
0
 10
-53.8947
 20
44.4478
 11
-53.9529
 21
44.627
  0
LINE
  8
0
 10
-53.9529
 20
44.627
 11
-53.9882
 21
44.812
  0
LINE
  8
0
 10
-53.9882
 20
44.812
 11
-54
 21
45
  0
LINE
  8
0
 10
-54
 20
45
 11
-53.9882
 21
45.188
  0
LINE
  8
0
 10
-53.9882
 20
45.188
 11
-53.9529
 21
45.373
  0
LINE
  8
0
 10
-53.9529
 20
45.373
 11
-53.8947
 21
45.5522
  0
LINE
  8
0
 10
-53.8947
 20
45.5522
 11
-53.8145
 21
45.7226
  0
LINE
  8
0
 10
-53.8145
 20
45.7226
 11
-53.7135
 21
45.8817
  0
LINE
  8
0
 10
-53.7135
 20
45.8817
 11
-53.5934
 21
46.0268
  0
LINE
  8
0
 10
-53.5934
 20
46.0268
 11
-53.4561
 21
46.1558
  0
LINE
  8
0
 10
-53.4561
 20
46.1558
 11
-53.3037
 21
46.2665
  0
LINE
  8
0
 10
-53.3037
 20
46.2665
 11
-53.1387
 21
46.3572
  0
LINE
  8
0
 10
-53.1387
 20
46.3572
 11
-52.9635
 21
46.4266
  0
LINE
  8
0
 10
-52.9635
 20
46.4266
 11
-52.7811
 21
46.4734
  0
LINE
  8
0
 10
-52.7811
 20
46.4734
 11
-52.5942
 21
46.497
  0
LINE
  8
0
 10
-52.5942
 20
46.497
 11
-52.4058
 21
46.497
  0
LINE
  8
0
 10
-52.4058
 20
46.497
 11
-52.2189
 21
46.4734
  0
LINE
  8
0
 10
-52.2189
 20
46.4734
 11
-52.0365
 21
46.4266
  0
LINE
  8
0
 10
-52.0365
 20
46.4266
 11
-51.8613
 21
46.3572
  0
LINE
  8
0
 10
-51.8613
 20
46.3572
 11
-51.6963
 21
46.2665
  0
LINE
  8
0
 10
-51.6963
 20
46.2665
 11
-51.5439
 21
46.1558
  0
LINE
  8
0
 10
-51.5439
 20
46.1558
 11
-51.4065
 21
46.0268
  0
LINE
  8
0
 10
-51.4065
 20
46.0268
 11
-51.2865
 21
45.8817
  0
LINE
  8
0
 10
-51.2865
 20
45.8817
 11
-51.1855
 21
45.7226
  0
LINE
  8
0
 10
-51.1855
 20
45.7226
 11
-51.1053
 21
45.5522
  0
LINE
  8
0
 10
-51.1053
 20
45.5522
 11
-51.0471
 21
45.373
  0
LINE
  8
0
 10
-51.0471
 20
45.373
 11
-51.0118
 21
45.188
  0
LINE
  8
0
 10
-51.0118
 20
45.188
 11
-51
 21
45
  0
LINE
  8
0
 10
-51
 20
45
 11
-51.0118
 21
44.812
  0
LINE
  8
0
 10
-51.0118
 20
44.812
 11
-51.0471
 21
44.627
  0
LINE
  8
0
 10
-51.0471
 20
44.627
 11
-51.1053
 21
44.4478
  0
LINE
  8
0
 10
-51.1053
 20
44.4478
 11
-51.1855
 21
44.2774
  0
LINE
  8
0
 10
-51.1855
 20
44.2774
 11
-51.2865
 21
44.1183
  0
LINE
  8
0
 10
-51.2865
 20
44.1183
 11
-51.4065
 21
43.9732
  0
LINE
  8
0
 10
-51.4065
 20
43.9732
 11
-51.5439
 21
43.8442
  0
LINE
  8
0
 10
-51.5439
 20
43.8442
 11
-51.6963
 21
43.7335
  0
LINE
  8
0
 10
-51.6963
 20
43.7335
 11
-51.8613
 21
43.6428
  0
LINE
  8
0
 10
-51.8613
 20
43.6428
 11
-52.0365
 21
43.5734
  0
LINE
  8
0
 10
-52.0365
 20
43.5734
 11
-52.2189
 21
43.5266
  0
LINE
  8
0
 10
-52.2189
 20
43.5266
 11
-52.4058
 21
43.503
  0
LINE
  8
0
 10
-52.4058
 20
43.503
 11
-52.5942
 21
43.503
  0
LINE
  8
0
 10
7.40581
 20
43.503
 11
7.21892
 21
43.5266
  0
LINE
  8
0
 10
7.21892
 20
43.5266
 11
7.03647
 21
43.5734
  0
LINE
  8
0
 10
7.03647
 20
43.5734
 11
6.86133
 21
43.6428
  0
LINE
  8
0
 10
6.86133
 20
43.6428
 11
6.69626
 21
43.7335
  0
LINE
  8
0
 10
6.69626
 20
43.7335
 11
6.54385
 21
43.8442
  0
LINE
  8
0
 10
6.54385
 20
43.8442
 11
6.40654
 21
43.9732
  0
LINE
  8
0
 10
6.40654
 20
43.9732
 11
6.28647
 21
44.1183
  0
LINE
  8
0
 10
6.28647
 20
44.1183
 11
6.18553
 21
44.2774
  0
LINE
  8
0
 10
6.18553
 20
44.2774
 11
6.10533
 21
44.4478
  0
LINE
  8
0
 10
6.10533
 20
44.4478
 11
6.04712
 21
44.627
  0
LINE
  8
0
 10
6.04712
 20
44.627
 11
6.01183
 21
44.812
  0
LINE
  8
0
 10
6.01183
 20
44.812
 11
6
 21
45
  0
LINE
  8
0
 10
6
 20
45
 11
6.01183
 21
45.188
  0
LINE
  8
0
 10
6.01183
 20
45.188
 11
6.04712
 21
45.373
  0
LINE
  8
0
 10
6.04712
 20
45.373
 11
6.10533
 21
45.5522
  0
LINE
  8
0
 10
6.10533
 20
45.5522
 11
6.18553
 21
45.7226
  0
LINE
  8
0
 10
6.18553
 20
45.7226
 11
6.28647
 21
45.8817
  0
LINE
  8
0
 10
6.28647
 20
45.8817
 11
6.40654
 21
46.0268
  0
LINE
  8
0
 10
6.40654
 20
46.0268
 11
6.54385
 21
46.1558
  0
LINE
  8
0
 10
6.54385
 20
46.1558
 11
6.69626
 21
46.2665
  0
LINE
  8
0
 10
6.69626
 20
46.2665
 11
6.86133
 21
46.3572
  0
LINE
  8
0
 10
6.86133
 20
46.3572
 11
7.03647
 21
46.4266
  0
LINE
  8
0
 10
7.03647
 20
46.4266
 11
7.21892
 21
46.4734
  0
LINE
  8
0
 10
7.21892
 20
46.4734
 11
7.40581
 21
46.497
  0
LINE
  8
0
 10
7.40581
 20
46.497
 11
7.59418
 21
46.497
  0
LINE
  8
0
 10
7.59418
 20
46.497
 11
7.78107
 21
46.4734
  0
LINE
  8
0
 10
7.78107
 20
46.4734
 11
7.96352
 21
46.4266
  0
LINE
  8
0
 10
7.96352
 20
46.4266
 11
8.13866
 21
46.3572
  0
LINE
  8
0
 10
8.13866
 20
46.3572
 11
8.30373
 21
46.2665
  0
LINE
  8
0
 10
8.30373
 20
46.2665
 11
8.45613
 21
46.1558
  0
LINE
  8
0
 10
8.45613
 20
46.1558
 11
8.59344
 21
46.0268
  0
LINE
  8
0
 10
8.59344
 20
46.0268
 11
8.71352
 21
45.8817
  0
LINE
  8
0
 10
8.71352
 20
45.8817
 11
8.81445
 21
45.7226
  0
LINE
  8
0
 10
8.81445
 20
45.7226
 11
8.89465
 21
45.5522
  0
LINE
  8
0
 10
8.89465
 20
45.5522
 11
8.95287
 21
45.373
  0
LINE
  8
0
 10
8.95287
 20
45.373
 11
8.98816
 21
45.188
  0
LINE
  8
0
 10
8.98816
 20
45.188
 11
9
 21
45
  0
LINE
  8
0
 10
9
 20
45
 11
8.98816
 21
44.812
  0
LINE
  8
0
 10
8.98816
 20
44.812
 11
8.95287
 21
44.627
  0
LINE
  8
0
 10
8.95287
 20
44.627
 11
8.89465
 21
44.4478
  0
LINE
  8
0
 10
8.89465
 20
44.4478
 11
8.81445
 21
44.2774
  0
LINE
  8
0
 10
8.81445
 20
44.2774
 11
8.71352
 21
44.1183
  0
LINE
  8
0
 10
8.71352
 20
44.1183
 11
8.59344
 21
43.9732
  0
LINE
  8
0
 10
8.59344
 20
43.9732
 11
8.45613
 21
43.8442
  0
LINE
  8
0
 10
8.45613
 20
43.8442
 11
8.30373
 21
43.7335
  0
LINE
  8
0
 10
8.30373
 20
43.7335
 11
8.13866
 21
43.6428
  0
LINE
  8
0
 10
8.13866
 20
43.6428
 11
7.96352
 21
43.5734
  0
LINE
  8
0
 10
7.96352
 20
43.5734
 11
7.78107
 21
43.5266
  0
LINE
  8
0
 10
7.78107
 20
43.5266
 11
7.59418
 21
43.503
  0
LINE
  8
0
 10
7.59418
 20
43.503
 11
7.40581
 21
43.503
  0
LINE
  8
0
 10
-22.5942
 20
43.503
 11
-22.7811
 21
43.5266
  0
LINE
  8
0
 10
-22.7811
 20
43.5266
 11
-22.9635
 21
43.5734
  0
LINE
  8
0
 10
-22.9635
 20
43.5734
 11
-23.1387
 21
43.6428
  0
LINE
  8
0
 10
-23.1387
 20
43.6428
 11
-23.3037
 21
43.7335
  0
LINE
  8
0
 10
-23.3037
 20
43.7335
 11
-23.4561
 21
43.8442
  0
LINE
  8
0
 10
-23.4561
 20
43.8442
 11
-23.5934
 21
43.9732
  0
LINE
  8
0
 10
-23.5934
 20
43.9732
 11
-23.7135
 21
44.1183
  0
LINE
  8
0
 10
-23.7135
 20
44.1183
 11
-23.8145
 21
44.2774
  0
LINE
  8
0
 10
-23.8145
 20
44.2774
 11
-23.8947
 21
44.4478
  0
LINE
  8
0
 10
-23.8947
 20
44.4478
 11
-23.9529
 21
44.627
  0
LINE
  8
0
 10
-23.9529
 20
44.627
 11
-23.9882
 21
44.812
  0
LINE
  8
0
 10
-23.9882
 20
44.812
 11
-24
 21
45
  0
LINE
  8
0
 10
-24
 20
45
 11
-23.9882
 21
45.188
  0
LINE
  8
0
 10
-23.9882
 20
45.188
 11
-23.9529
 21
45.373
  0
LINE
  8
0
 10
-23.9529
 20
45.373
 11
-23.8947
 21
45.5522
  0
LINE
  8
0
 10
-23.8947
 20
45.5522
 11
-23.8145
 21
45.7226
  0
LINE
  8
0
 10
-23.8145
 20
45.7226
 11
-23.7135
 21
45.8817
  0
LINE
  8
0
 10
-23.7135
 20
45.8817
 11
-23.5934
 21
46.0268
  0
LINE
  8
0
 10
-23.5934
 20
46.0268
 11
-23.4561
 21
46.1558
  0
LINE
  8
0
 10
-23.4561
 20
46.1558
 11
-23.3037
 21
46.2665
  0
LINE
  8
0
 10
-23.3037
 20
46.2665
 11
-23.1387
 21
46.3572
  0
LINE
  8
0
 10
-23.1387
 20
46.3572
 11
-22.9635
 21
46.4266
  0
LINE
  8
0
 10
-22.9635
 20
46.4266
 11
-22.7811
 21
46.4734
  0
LINE
  8
0
 10
-22.7811
 20
46.4734
 11
-22.5942
 21
46.497
  0
LINE
  8
0
 10
-22.5942
 20
46.497
 11
-22.4058
 21
46.497
  0
LINE
  8
0
 10
-22.4058
 20
46.497
 11
-22.2189
 21
46.4734
  0
LINE
  8
0
 10
-22.2189
 20
46.4734
 11
-22.0365
 21
46.4266
  0
LINE
  8
0
 10
-22.0365
 20
46.4266
 11
-21.8613
 21
46.3572
  0
LINE
  8
0
 10
-21.8613
 20
46.3572
 11
-21.6963
 21
46.2665
  0
LINE
  8
0
 10
-21.6963
 20
46.2665
 11
-21.5439
 21
46.1558
  0
LINE
  8
0
 10
-21.5439
 20
46.1558
 11
-21.4065
 21
46.0268
  0
LINE
  8
0
 10
-21.4065
 20
46.0268
 11
-21.2865
 21
45.8817
  0
LINE
  8
0
 10
-21.2865
 20
45.8817
 11
-21.1855
 21
45.7226
  0
LINE
  8
0
 10
-21.1855
 20
45.7226
 11
-21.1053
 21
45.5522
  0
LINE
  8
0
 10
-21.1053
 20
45.5522
 11
-21.0471
 21
45.373
  0
LINE
  8
0
 10
-21.0471
 20
45.373
 11
-21.0118
 21
45.188
  0
LINE
  8
0
 10
-21.0118
 20
45.188
 11
-21
 21
45
  0
LINE
  8
0
 10
-21
 20
45
 11
-21.0118
 21
44.812
  0
LINE
  8
0
 10
-21.0118
 20
44.812
 11
-21.0471
 21
44.627
  0
LINE
  8
0
 10
-21.0471
 20
44.627
 11
-21.1053
 21
44.4478
  0
LINE
  8
0
 10
-21.1053
 20
44.4478
 11
-21.1855
 21
44.2774
  0
LINE
  8
0
 10
-21.1855
 20
44.2774
 11
-21.2865
 21
44.1183
  0
LINE
  8
0
 10
-21.2865
 20
44.1183
 11
-21.4065
 21
43.9732
  0
LINE
  8
0
 10
-21.4065
 20
43.9732
 11
-21.5439
 21
43.8442
  0
LINE
  8
0
 10
-21.5439
 20
43.8442
 11
-21.6963
 21
43.7335
  0
LINE
  8
0
 10
-21.6963
 20
43.7335
 11
-21.8613
 21
43.6428
  0
LINE
  8
0
 10
-21.8613
 20
43.6428
 11
-22.0365
 21
43.5734
  0
LINE
  8
0
 10
-22.0365
 20
43.5734
 11
-22.2189
 21
43.5266
  0
LINE
  8
0
 10
-22.2189
 20
43.5266
 11
-22.4058
 21
43.503
  0
LINE
  8
0
 10
-22.4058
 20
43.503
 11
-22.5942
 21
43.503
  0
LINE
  8
0
 10
-7.59418
 20
43.503
 11
-7.78107
 21
43.5266
  0
LINE
  8
0
 10
-7.78107
 20
43.5266
 11
-7.96352
 21
43.5734
  0
LINE
  8
0
 10
-7.96352
 20
43.5734
 11
-8.13866
 21
43.6428
  0
LINE
  8
0
 10
-8.13866
 20
43.6428
 11
-8.30373
 21
43.7335
  0
LINE
  8
0
 10
-8.30373
 20
43.7335
 11
-8.45613
 21
43.8442
  0
LINE
  8
0
 10
-8.45613
 20
43.8442
 11
-8.59344
 21
43.9732
  0
LINE
  8
0
 10
-8.59344
 20
43.9732
 11
-8.71352
 21
44.1183
  0
LINE
  8
0
 10
-8.71352
 20
44.1183
 11
-8.81445
 21
44.2774
  0
LINE
  8
0
 10
-8.81445
 20
44.2774
 11
-8.89465
 21
44.4478
  0
LINE
  8
0
 10
-8.89465
 20
44.4478
 11
-8.95287
 21
44.627
  0
LINE
  8
0
 10
-8.95287
 20
44.627
 11
-8.98816
 21
44.812
  0
LINE
  8
0
 10
-8.98816
 20
44.812
 11
-9
 21
45
  0
LINE
  8
0
 10
-9
 20
45
 11
-8.98816
 21
45.188
  0
LINE
  8
0
 10
-8.98816
 20
45.188
 11
-8.95287
 21
45.373
  0
LINE
  8
0
 10
-8.95287
 20
45.373
 11
-8.89465
 21
45.5522
  0
LINE
  8
0
 10
-8.89465
 20
45.5522
 11
-8.81445
 21
45.7226
  0
LINE
  8
0
 10
-8.81445
 20
45.7226
 11
-8.71352
 21
45.8817
  0
LINE
  8
0
 10
-8.71352
 20
45.8817
 11
-8.59344
 21
46.0268
  0
LINE
  8
0
 10
-8.59344
 20
46.0268
 11
-8.45613
 21
46.1558
  0
LINE
  8
0
 10
-8.45613
 20
46.1558
 11
-8.30373
 21
46.2665
  0
LINE
  8
0
 10
-8.30373
 20
46.2665
 11
-8.13866
 21
46.3572
  0
LINE
  8
0
 10
-8.13866
 20
46.3572
 11
-7.96352
 21
46.4266
  0
LINE
  8
0
 10
-7.96352
 20
46.4266
 11
-7.78107
 21
46.4734
  0
LINE
  8
0
 10
-7.78107
 20
46.4734
 11
-7.59418
 21
46.497
  0
LINE
  8
0
 10
-7.59418
 20
46.497
 11
-7.40581
 21
46.497
  0
LINE
  8
0
 10
-7.40581
 20
46.497
 11
-7.21892
 21
46.4734
  0
LINE
  8
0
 10
-7.21892
 20
46.4734
 11
-7.03647
 21
46.4266
  0
LINE
  8
0
 10
-7.03647
 20
46.4266
 11
-6.86133
 21
46.3572
  0
LINE
  8
0
 10
-6.86133
 20
46.3572
 11
-6.69626
 21
46.2665
  0
LINE
  8
0
 10
-6.69626
 20
46.2665
 11
-6.54385
 21
46.1558
  0
LINE
  8
0
 10
-6.54385
 20
46.1558
 11
-6.40654
 21
46.0268
  0
LINE
  8
0
 10
-6.40654
 20
46.0268
 11
-6.28647
 21
45.8817
  0
LINE
  8
0
 10
-6.28647
 20
45.8817
 11
-6.18553
 21
45.7226
  0
LINE
  8
0
 10
-6.18553
 20
45.7226
 11
-6.10533
 21
45.5522
  0
LINE
  8
0
 10
-6.10533
 20
45.5522
 11
-6.04712
 21
45.373
  0
LINE
  8
0
 10
-6.04712
 20
45.373
 11
-6.01183
 21
45.188
  0
LINE
  8
0
 10
-6.01183
 20
45.188
 11
-6
 21
45
  0
LINE
  8
0
 10
-6
 20
45
 11
-6.01183
 21
44.812
  0
LINE
  8
0
 10
-6.01183
 20
44.812
 11
-6.04712
 21
44.627
  0
LINE
  8
0
 10
-6.04712
 20
44.627
 11
-6.10533
 21
44.4478
  0
LINE
  8
0
 10
-6.10533
 20
44.4478
 11
-6.18553
 21
44.2774
  0
LINE
  8
0
 10
-6.18553
 20
44.2774
 11
-6.28647
 21
44.1183
  0
LINE
  8
0
 10
-6.28647
 20
44.1183
 11
-6.40654
 21
43.9732
  0
LINE
  8
0
 10
-6.40654
 20
43.9732
 11
-6.54385
 21
43.8442
  0
LINE
  8
0
 10
-6.54385
 20
43.8442
 11
-6.69626
 21
43.7335
  0
LINE
  8
0
 10
-6.69626
 20
43.7335
 11
-6.86133
 21
43.6428
  0
LINE
  8
0
 10
-6.86133
 20
43.6428
 11
-7.03647
 21
43.5734
  0
LINE
  8
0
 10
-7.03647
 20
43.5734
 11
-7.21892
 21
43.5266
  0
LINE
  8
0
 10
-7.21892
 20
43.5266
 11
-7.40581
 21
43.503
  0
LINE
  8
0
 10
-7.40581
 20
43.503
 11
-7.59418
 21
43.503
  0
LINE
  8
0
 10
22.4058
 20
43.503
 11
22.2189
 21
43.5266
  0
LINE
  8
0
 10
22.2189
 20
43.5266
 11
22.0365
 21
43.5734
  0
LINE
  8
0
 10
22.0365
 20
43.5734
 11
21.8613
 21
43.6428
  0
LINE
  8
0
 10
21.8613
 20
43.6428
 11
21.6963
 21
43.7335
  0
LINE
  8
0
 10
21.6963
 20
43.7335
 11
21.5439
 21
43.8442
  0
LINE
  8
0
 10
21.5439
 20
43.8442
 11
21.4065
 21
43.9732
  0
LINE
  8
0
 10
21.4065
 20
43.9732
 11
21.2865
 21
44.1183
  0
LINE
  8
0
 10
21.2865
 20
44.1183
 11
21.1855
 21
44.2774
  0
LINE
  8
0
 10
21.1855
 20
44.2774
 11
21.1053
 21
44.4478
  0
LINE
  8
0
 10
21.1053
 20
44.4478
 11
21.0471
 21
44.627
  0
LINE
  8
0
 10
21.0471
 20
44.627
 11
21.0118
 21
44.812
  0
LINE
  8
0
 10
21.0118
 20
44.812
 11
21
 21
45
  0
LINE
  8
0
 10
21
 20
45
 11
21.0118
 21
45.188
  0
LINE
  8
0
 10
21.0118
 20
45.188
 11
21.0471
 21
45.373
  0
LINE
  8
0
 10
21.0471
 20
45.373
 11
21.1053
 21
45.5522
  0
LINE
  8
0
 10
21.1053
 20
45.5522
 11
21.1855
 21
45.7226
  0
LINE
  8
0
 10
21.1855
 20
45.7226
 11
21.2865
 21
45.8817
  0
LINE
  8
0
 10
21.2865
 20
45.8817
 11
21.4065
 21
46.0268
  0
LINE
  8
0
 10
21.4065
 20
46.0268
 11
21.5439
 21
46.1558
  0
LINE
  8
0
 10
21.5439
 20
46.1558
 11
21.6963
 21
46.2665
  0
LINE
  8
0
 10
21.6963
 20
46.2665
 11
21.8613
 21
46.3572
  0
LINE
  8
0
 10
21.8613
 20
46.3572
 11
22.0365
 21
46.4266
  0
LINE
  8
0
 10
22.0365
 20
46.4266
 11
22.2189
 21
46.4734
  0
LINE
  8
0
 10
22.2189
 20
46.4734
 11
22.4058
 21
46.497
  0
LINE
  8
0
 10
22.4058
 20
46.497
 11
22.5942
 21
46.497
  0
LINE
  8
0
 10
22.5942
 20
46.497
 11
22.7811
 21
46.4734
  0
LINE
  8
0
 10
22.7811
 20
46.4734
 11
22.9635
 21
46.4266
  0
LINE
  8
0
 10
22.9635
 20
46.4266
 11
23.1387
 21
46.3572
  0
LINE
  8
0
 10
23.1387
 20
46.3572
 11
23.3037
 21
46.2665
  0
LINE
  8
0
 10
23.3037
 20
46.2665
 11
23.4561
 21
46.1558
  0
LINE
  8
0
 10
23.4561
 20
46.1558
 11
23.5934
 21
46.0268
  0
LINE
  8
0
 10
23.5934
 20
46.0268
 11
23.7135
 21
45.8817
  0
LINE
  8
0
 10
23.7135
 20
45.8817
 11
23.8145
 21
45.7226
  0
LINE
  8
0
 10
23.8145
 20
45.7226
 11
23.8947
 21
45.5522
  0
LINE
  8
0
 10
23.8947
 20
45.5522
 11
23.9529
 21
45.373
  0
LINE
  8
0
 10
23.9529
 20
45.373
 11
23.9882
 21
45.188
  0
LINE
  8
0
 10
23.9882
 20
45.188
 11
24
 21
45
  0
LINE
  8
0
 10
24
 20
45
 11
23.9882
 21
44.812
  0
LINE
  8
0
 10
23.9882
 20
44.812
 11
23.9529
 21
44.627
  0
LINE
  8
0
 10
23.9529
 20
44.627
 11
23.8947
 21
44.4478
  0
LINE
  8
0
 10
23.8947
 20
44.4478
 11
23.8145
 21
44.2774
  0
LINE
  8
0
 10
23.8145
 20
44.2774
 11
23.7135
 21
44.1183
  0
LINE
  8
0
 10
23.7135
 20
44.1183
 11
23.5934
 21
43.9732
  0
LINE
  8
0
 10
23.5934
 20
43.9732
 11
23.4561
 21
43.8442
  0
LINE
  8
0
 10
23.4561
 20
43.8442
 11
23.3037
 21
43.7335
  0
LINE
  8
0
 10
23.3037
 20
43.7335
 11
23.1387
 21
43.6428
  0
LINE
  8
0
 10
23.1387
 20
43.6428
 11
22.9635
 21
43.5734
  0
LINE
  8
0
 10
22.9635
 20
43.5734
 11
22.7811
 21
43.5266
  0
LINE
  8
0
 10
22.7811
 20
43.5266
 11
22.5942
 21
43.503
  0
LINE
  8
0
 10
22.5942
 20
43.503
 11
22.4058
 21
43.503
  0
LINE
  8
0
 10
37.4058
 20
43.503
 11
37.2189
 21
43.5266
  0
LINE
  8
0
 10
37.2189
 20
43.5266
 11
37.0365
 21
43.5734
  0
LINE
  8
0
 10
37.0365
 20
43.5734
 11
36.8613
 21
43.6428
  0
LINE
  8
0
 10
36.8613
 20
43.6428
 11
36.6963
 21
43.7335
  0
LINE
  8
0
 10
36.6963
 20
43.7335
 11
36.5439
 21
43.8442
  0
LINE
  8
0
 10
36.5439
 20
43.8442
 11
36.4065
 21
43.9732
  0
LINE
  8
0
 10
36.4065
 20
43.9732
 11
36.2865
 21
44.1183
  0
LINE
  8
0
 10
36.2865
 20
44.1183
 11
36.1855
 21
44.2774
  0
LINE
  8
0
 10
36.1855
 20
44.2774
 11
36.1053
 21
44.4478
  0
LINE
  8
0
 10
36.1053
 20
44.4478
 11
36.0471
 21
44.627
  0
LINE
  8
0
 10
36.0471
 20
44.627
 11
36.0118
 21
44.812
  0
LINE
  8
0
 10
36.0118
 20
44.812
 11
36
 21
45
  0
LINE
  8
0
 10
36
 20
45
 11
36.0118
 21
45.188
  0
LINE
  8
0
 10
36.0118
 20
45.188
 11
36.0471
 21
45.373
  0
LINE
  8
0
 10
36.0471
 20
45.373
 11
36.1053
 21
45.5522
  0
LINE
  8
0
 10
36.1053
 20
45.5522
 11
36.1855
 21
45.7226
  0
LINE
  8
0
 10
36.1855
 20
45.7226
 11
36.2865
 21
45.8817
  0
LINE
  8
0
 10
36.2865
 20
45.8817
 11
36.4065
 21
46.0268
  0
LINE
  8
0
 10
36.4065
 20
46.0268
 11
36.5439
 21
46.1558
  0
LINE
  8
0
 10
36.5439
 20
46.1558
 11
36.6963
 21
46.2665
  0
LINE
  8
0
 10
36.6963
 20
46.2665
 11
36.8613
 21
46.3572
  0
LINE
  8
0
 10
36.8613
 20
46.3572
 11
37.0365
 21
46.4266
  0
LINE
  8
0
 10
37.0365
 20
46.4266
 11
37.2189
 21
46.4734
  0
LINE
  8
0
 10
37.2189
 20
46.4734
 11
37.4058
 21
46.497
  0
LINE
  8
0
 10
37.4058
 20
46.497
 11
37.5942
 21
46.497
  0
LINE
  8
0
 10
37.5942
 20
46.497
 11
37.7811
 21
46.4734
  0
LINE
  8
0
 10
37.7811
 20
46.4734
 11
37.9635
 21
46.4266
  0
LINE
  8
0
 10
37.9635
 20
46.4266
 11
38.1387
 21
46.3572
  0
LINE
  8
0
 10
38.1387
 20
46.3572
 11
38.3037
 21
46.2665
  0
LINE
  8
0
 10
38.3037
 20
46.2665
 11
38.4561
 21
46.1558
  0
LINE
  8
0
 10
38.4561
 20
46.1558
 11
38.5934
 21
46.0268
  0
LINE
  8
0
 10
38.5934
 20
46.0268
 11
38.7135
 21
45.8817
  0
LINE
  8
0
 10
38.7135
 20
45.8817
 11
38.8145
 21
45.7226
  0
LINE
  8
0
 10
38.8145
 20
45.7226
 11
38.8947
 21
45.5522
  0
LINE
  8
0
 10
38.8947
 20
45.5522
 11
38.9529
 21
45.373
  0
LINE
  8
0
 10
38.9529
 20
45.373
 11
38.9882
 21
45.188
  0
LINE
  8
0
 10
38.9882
 20
45.188
 11
39
 21
45
  0
LINE
  8
0
 10
39
 20
45
 11
38.9882
 21
44.812
  0
LINE
  8
0
 10
38.9882
 20
44.812
 11
38.9529
 21
44.627
  0
LINE
  8
0
 10
38.9529
 20
44.627
 11
38.8947
 21
44.4478
  0
LINE
  8
0
 10
38.8947
 20
44.4478
 11
38.8145
 21
44.2774
  0
LINE
  8
0
 10
38.8145
 20
44.2774
 11
38.7135
 21
44.1183
  0
LINE
  8
0
 10
38.7135
 20
44.1183
 11
38.5934
 21
43.9732
  0
LINE
  8
0
 10
38.5934
 20
43.9732
 11
38.4561
 21
43.8442
  0
LINE
  8
0
 10
38.4561
 20
43.8442
 11
38.3037
 21
43.7335
  0
LINE
  8
0
 10
38.3037
 20
43.7335
 11
38.1387
 21
43.6428
  0
LINE
  8
0
 10
38.1387
 20
43.6428
 11
37.9635
 21
43.5734
  0
LINE
  8
0
 10
37.9635
 20
43.5734
 11
37.7811
 21
43.5266
  0
LINE
  8
0
 10
37.7811
 20
43.5266
 11
37.5942
 21
43.503
  0
LINE
  8
0
 10
37.5942
 20
43.503
 11
37.4058
 21
43.503
  0
LINE
  8
0
 10
-67.5942
 20
43.503
 11
-67.7811
 21
43.5266
  0
LINE
  8
0
 10
-67.7811
 20
43.5266
 11
-67.9635
 21
43.5734
  0
LINE
  8
0
 10
-67.9635
 20
43.5734
 11
-68.1387
 21
43.6428
  0
LINE
  8
0
 10
-68.1387
 20
43.6428
 11
-68.3037
 21
43.7335
  0
LINE
  8
0
 10
-68.3037
 20
43.7335
 11
-68.4561
 21
43.8442
  0
LINE
  8
0
 10
-68.4561
 20
43.8442
 11
-68.5934
 21
43.9732
  0
LINE
  8
0
 10
-68.5934
 20
43.9732
 11
-68.7135
 21
44.1183
  0
LINE
  8
0
 10
-68.7135
 20
44.1183
 11
-68.8145
 21
44.2774
  0
LINE
  8
0
 10
-68.8145
 20
44.2774
 11
-68.8947
 21
44.4478
  0
LINE
  8
0
 10
-68.8947
 20
44.4478
 11
-68.9529
 21
44.627
  0
LINE
  8
0
 10
-68.9529
 20
44.627
 11
-68.9882
 21
44.812
  0
LINE
  8
0
 10
-68.9882
 20
44.812
 11
-69
 21
45
  0
LINE
  8
0
 10
-69
 20
45
 11
-68.9882
 21
45.188
  0
LINE
  8
0
 10
-68.9882
 20
45.188
 11
-68.9529
 21
45.373
  0
LINE
  8
0
 10
-68.9529
 20
45.373
 11
-68.8947
 21
45.5522
  0
LINE
  8
0
 10
-68.8947
 20
45.5522
 11
-68.8145
 21
45.7226
  0
LINE
  8
0
 10
-68.8145
 20
45.7226
 11
-68.7135
 21
45.8817
  0
LINE
  8
0
 10
-68.7135
 20
45.8817
 11
-68.5934
 21
46.0268
  0
LINE
  8
0
 10
-68.5934
 20
46.0268
 11
-68.4561
 21
46.1558
  0
LINE
  8
0
 10
-68.4561
 20
46.1558
 11
-68.3037
 21
46.2665
  0
LINE
  8
0
 10
-68.3037
 20
46.2665
 11
-68.1387
 21
46.3572
  0
LINE
  8
0
 10
-68.1387
 20
46.3572
 11
-67.9635
 21
46.4266
  0
LINE
  8
0
 10
-67.9635
 20
46.4266
 11
-67.7811
 21
46.4734
  0
LINE
  8
0
 10
-67.7811
 20
46.4734
 11
-67.5942
 21
46.497
  0
LINE
  8
0
 10
-67.5942
 20
46.497
 11
-67.4058
 21
46.497
  0
LINE
  8
0
 10
-67.4058
 20
46.497
 11
-67.2189
 21
46.4734
  0
LINE
  8
0
 10
-67.2189
 20
46.4734
 11
-67.0365
 21
46.4266
  0
LINE
  8
0
 10
-67.0365
 20
46.4266
 11
-66.8613
 21
46.3572
  0
LINE
  8
0
 10
-66.8613
 20
46.3572
 11
-66.6963
 21
46.2665
  0
LINE
  8
0
 10
-66.6963
 20
46.2665
 11
-66.5439
 21
46.1558
  0
LINE
  8
0
 10
-66.5439
 20
46.1558
 11
-66.4065
 21
46.0268
  0
LINE
  8
0
 10
-66.4065
 20
46.0268
 11
-66.2865
 21
45.8817
  0
LINE
  8
0
 10
-66.2865
 20
45.8817
 11
-66.1855
 21
45.7226
  0
LINE
  8
0
 10
-66.1855
 20
45.7226
 11
-66.1053
 21
45.5522
  0
LINE
  8
0
 10
-66.1053
 20
45.5522
 11
-66.0471
 21
45.373
  0
LINE
  8
0
 10
-66.0471
 20
45.373
 11
-66.0118
 21
45.188
  0
LINE
  8
0
 10
-66.0118
 20
45.188
 11
-66
 21
45
  0
LINE
  8
0
 10
-66
 20
45
 11
-66.0118
 21
44.812
  0
LINE
  8
0
 10
-66.0118
 20
44.812
 11
-66.0471
 21
44.627
  0
LINE
  8
0
 10
-66.0471
 20
44.627
 11
-66.1053
 21
44.4478
  0
LINE
  8
0
 10
-66.1053
 20
44.4478
 11
-66.1855
 21
44.2774
  0
LINE
  8
0
 10
-66.1855
 20
44.2774
 11
-66.2865
 21
44.1183
  0
LINE
  8
0
 10
-66.2865
 20
44.1183
 11
-66.4065
 21
43.9732
  0
LINE
  8
0
 10
-66.4065
 20
43.9732
 11
-66.5439
 21
43.8442
  0
LINE
  8
0
 10
-66.5439
 20
43.8442
 11
-66.6963
 21
43.7335
  0
LINE
  8
0
 10
-66.6963
 20
43.7335
 11
-66.8613
 21
43.6428
  0
LINE
  8
0
 10
-66.8613
 20
43.6428
 11
-67.0365
 21
43.5734
  0
LINE
  8
0
 10
-67.0365
 20
43.5734
 11
-67.2189
 21
43.5266
  0
LINE
  8
0
 10
-67.2189
 20
43.5266
 11
-67.4058
 21
43.503
  0
LINE
  8
0
 10
-67.4058
 20
43.503
 11
-67.5942
 21
43.503
  0
LINE
  8
0
 10
-37.5942
 20
43.503
 11
-37.7811
 21
43.5266
  0
LINE
  8
0
 10
-37.7811
 20
43.5266
 11
-37.9635
 21
43.5734
  0
LINE
  8
0
 10
-37.9635
 20
43.5734
 11
-38.1387
 21
43.6428
  0
LINE
  8
0
 10
-38.1387
 20
43.6428
 11
-38.3037
 21
43.7335
  0
LINE
  8
0
 10
-38.3037
 20
43.7335
 11
-38.4561
 21
43.8442
  0
LINE
  8
0
 10
-38.4561
 20
43.8442
 11
-38.5934
 21
43.9732
  0
LINE
  8
0
 10
-38.5934
 20
43.9732
 11
-38.7135
 21
44.1183
  0
LINE
  8
0
 10
-38.7135
 20
44.1183
 11
-38.8145
 21
44.2774
  0
LINE
  8
0
 10
-38.8145
 20
44.2774
 11
-38.8947
 21
44.4478
  0
LINE
  8
0
 10
-38.8947
 20
44.4478
 11
-38.9529
 21
44.627
  0
LINE
  8
0
 10
-38.9529
 20
44.627
 11
-38.9882
 21
44.812
  0
LINE
  8
0
 10
-38.9882
 20
44.812
 11
-39
 21
45
  0
LINE
  8
0
 10
-39
 20
45
 11
-38.9882
 21
45.188
  0
LINE
  8
0
 10
-38.9882
 20
45.188
 11
-38.9529
 21
45.373
  0
LINE
  8
0
 10
-38.9529
 20
45.373
 11
-38.8947
 21
45.5522
  0
LINE
  8
0
 10
-38.8947
 20
45.5522
 11
-38.8145
 21
45.7226
  0
LINE
  8
0
 10
-38.8145
 20
45.7226
 11
-38.7135
 21
45.8817
  0
LINE
  8
0
 10
-38.7135
 20
45.8817
 11
-38.5934
 21
46.0268
  0
LINE
  8
0
 10
-38.5934
 20
46.0268
 11
-38.4561
 21
46.1558
  0
LINE
  8
0
 10
-38.4561
 20
46.1558
 11
-38.3037
 21
46.2665
  0
LINE
  8
0
 10
-38.3037
 20
46.2665
 11
-38.1387
 21
46.3572
  0
LINE
  8
0
 10
-38.1387
 20
46.3572
 11
-37.9635
 21
46.4266
  0
LINE
  8
0
 10
-37.9635
 20
46.4266
 11
-37.7811
 21
46.4734
  0
LINE
  8
0
 10
-37.7811
 20
46.4734
 11
-37.5942
 21
46.497
  0
LINE
  8
0
 10
-37.5942
 20
46.497
 11
-37.4058
 21
46.497
  0
LINE
  8
0
 10
-37.4058
 20
46.497
 11
-37.2189
 21
46.4734
  0
LINE
  8
0
 10
-37.2189
 20
46.4734
 11
-37.0365
 21
46.4266
  0
LINE
  8
0
 10
-37.0365
 20
46.4266
 11
-36.8613
 21
46.3572
  0
LINE
  8
0
 10
-36.8613
 20
46.3572
 11
-36.6963
 21
46.2665
  0
LINE
  8
0
 10
-36.6963
 20
46.2665
 11
-36.5439
 21
46.1558
  0
LINE
  8
0
 10
-36.5439
 20
46.1558
 11
-36.4065
 21
46.0268
  0
LINE
  8
0
 10
-36.4065
 20
46.0268
 11
-36.2865
 21
45.8817
  0
LINE
  8
0
 10
-36.2865
 20
45.8817
 11
-36.1855
 21
45.7226
  0
LINE
  8
0
 10
-36.1855
 20
45.7226
 11
-36.1053
 21
45.5522
  0
LINE
  8
0
 10
-36.1053
 20
45.5522
 11
-36.0471
 21
45.373
  0
LINE
  8
0
 10
-36.0471
 20
45.373
 11
-36.0118
 21
45.188
  0
LINE
  8
0
 10
-36.0118
 20
45.188
 11
-36
 21
45
  0
LINE
  8
0
 10
-36
 20
45
 11
-36.0118
 21
44.812
  0
LINE
  8
0
 10
-36.0118
 20
44.812
 11
-36.0471
 21
44.627
  0
LINE
  8
0
 10
-36.0471
 20
44.627
 11
-36.1053
 21
44.4478
  0
LINE
  8
0
 10
-36.1053
 20
44.4478
 11
-36.1855
 21
44.2774
  0
LINE
  8
0
 10
-36.1855
 20
44.2774
 11
-36.2865
 21
44.1183
  0
LINE
  8
0
 10
-36.2865
 20
44.1183
 11
-36.4065
 21
43.9732
  0
LINE
  8
0
 10
-36.4065
 20
43.9732
 11
-36.5439
 21
43.8442
  0
LINE
  8
0
 10
-36.5439
 20
43.8442
 11
-36.6963
 21
43.7335
  0
LINE
  8
0
 10
-36.6963
 20
43.7335
 11
-36.8613
 21
43.6428
  0
LINE
  8
0
 10
-36.8613
 20
43.6428
 11
-37.0365
 21
43.5734
  0
LINE
  8
0
 10
-37.0365
 20
43.5734
 11
-37.2189
 21
43.5266
  0
LINE
  8
0
 10
-37.2189
 20
43.5266
 11
-37.4058
 21
43.503
  0
LINE
  8
0
 10
-37.4058
 20
43.503
 11
-37.5942
 21
43.503
  0
LINE
  8
0
 10
2.78386
 20
-4.51199
 11
2.5
 21
0
  0
LINE
  8
0
 10
2.5
 20
0
 11
2.78386
 21
4.51199
  0
LINE
  8
0
 10
2.78386
 20
4.51199
 11
3.631
 21
8.95284
  0
LINE
  8
0
 10
3.631
 20
8.95284
 11
5.02805
 21
13.2525
  0
LINE
  8
0
 10
5.02805
 20
13.2525
 11
6.95296
 21
17.3431
  0
LINE
  8
0
 10
6.95296
 20
17.3431
 11
9.37538
 21
21.1603
  0
LINE
  8
0
 10
9.37538
 20
21.1603
 11
12.2571
 21
24.6437
  0
LINE
  8
0
 10
12.2571
 20
24.6437
 11
15.5527
 21
27.7385
  0
LINE
  8
0
 10
15.5527
 20
27.7385
 11
19.2102
 21
30.3958
  0
LINE
  8
0
 10
19.2102
 20
30.3958
 11
23.1719
 21
32.5738
  0
LINE
  8
0
 10
23.1719
 20
32.5738
 11
27.3754
 21
34.238
  0
LINE
  8
0
 10
27.3754
 20
34.238
 11
31.7543
 21
35.3623
  0
LINE
  8
0
 10
31.7543
 20
35.3623
 11
36.2395
 21
35.929
  0
LINE
  8
0
 10
36.2395
 20
35.929
 11
40.7605
 21
35.929
  0
LINE
  8
0
 10
40.7605
 20
35.929
 11
45.2457
 21
35.3623
  0
LINE
  8
0
 10
45.2457
 20
35.3623
 11
49.6246
 21
34.238
  0
LINE
  8
0
 10
49.6246
 20
34.238
 11
53.828
 21
32.5738
  0
LINE
  8
0
 10
53.828
 20
32.5738
 11
57.7898
 21
30.3958
  0
LINE
  8
0
 10
57.7898
 20
30.3958
 11
61.4473
 21
27.7385
  0
LINE
  8
0
 10
61.4473
 20
27.7385
 11
64.7429
 21
24.6437
  0
LINE
  8
0
 10
64.7429
 20
24.6437
 11
67.6246
 21
21.1603
  0
LINE
  8
0
 10
67.6246
 20
21.1603
 11
70.047
 21
17.3431
  0
LINE
  8
0
 10
70.047
 20
17.3431
 11
71.972
 21
13.2525
  0
LINE
  8
0
 10
71.972
 20
13.2525
 11
73.369
 21
8.95284
  0
LINE
  8
0
 10
73.369
 20
8.95284
 11
74.2161
 21
4.51199
  0
LINE
  8
0
 10
74.2161
 20
4.51199
 11
74.5
 21
0
  0
LINE
  8
0
 10
74.5
 20
0
 11
74.2161
 21
-4.51199
  0
LINE
  8
0
 10
74.2161
 20
-4.51199
 11
73.369
 21
-8.95284
  0
LINE
  8
0
 10
73.369
 20
-8.95284
 11
71.972
 21
-13.2525
  0
LINE
  8
0
 10
71.972
 20
-13.2525
 11
70.047
 21
-17.3431
  0
LINE
  8
0
 10
70.047
 20
-17.3431
 11
67.6246
 21
-21.1603
  0
LINE
  8
0
 10
67.6246
 20
-21.1603
 11
64.7429
 21
-24.6437
  0
LINE
  8
0
 10
64.7429
 20
-24.6437
 11
61.4473
 21
-27.7385
  0
LINE
  8
0
 10
61.4473
 20
-27.7385
 11
57.7898
 21
-30.3958
  0
LINE
  8
0
 10
57.7898
 20
-30.3958
 11
53.828
 21
-32.5738
  0
LINE
  8
0
 10
53.828
 20
-32.5738
 11
49.6246
 21
-34.238
  0
LINE
  8
0
 10
49.6246
 20
-34.238
 11
45.2457
 21
-35.3623
  0
LINE
  8
0
 10
45.2457
 20
-35.3623
 11
40.7605
 21
-35.929
  0
LINE
  8
0
 10
40.7605
 20
-35.929
 11
36.2395
 21
-35.929
  0
LINE
  8
0
 10
36.2395
 20
-35.929
 11
31.7543
 21
-35.3623
  0
LINE
  8
0
 10
31.7543
 20
-35.3623
 11
27.3754
 21
-34.238
  0
LINE
  8
0
 10
27.3754
 20
-34.238
 11
23.1719
 21
-32.5738
  0
LINE
  8
0
 10
23.1719
 20
-32.5738
 11
19.2102
 21
-30.3958
  0
LINE
  8
0
 10
19.2102
 20
-30.3958
 11
15.5527
 21
-27.7385
  0
LINE
  8
0
 10
15.5527
 20
-27.7385
 11
12.2571
 21
-24.6437
  0
LINE
  8
0
 10
12.2571
 20
-24.6437
 11
9.37538
 21
-21.1603
  0
LINE
  8
0
 10
9.37538
 20
-21.1603
 11
6.95296
 21
-17.3431
  0
LINE
  8
0
 10
6.95296
 20
-17.3431
 11
5.02805
 21
-13.2525
  0
LINE
  8
0
 10
5.02805
 20
-13.2525
 11
3.631
 21
-8.95284
  0
LINE
  8
0
 10
3.631
 20
-8.95284
 11
2.78386
 21
-4.51199
  0
LINE
  8
0
 10
-45.1884
 20
-47.9941
 11
-45.5621
 21
-47.9469
  0
LINE
  8
0
 10
-45.5621
 20
-47.9469
 11
-45.927
 21
-47.8532
  0
LINE
  8
0
 10
-45.927
 20
-47.8532
 11
-46.2773
 21
-47.7145
  0
LINE
  8
0
 10
-46.2773
 20
-47.7145
 11
-46.6075
 21
-47.533
  0
LINE
  8
0
 10
-46.6075
 20
-47.533
 11
-46.9123
 21
-47.3115
  0
LINE
  8
0
 10
-46.9123
 20
-47.3115
 11
-47.1869
 21
-47.0536
  0
LINE
  8
0
 10
-47.1869
 20
-47.0536
 11
-47.427
 21
-46.7634
  0
LINE
  8
0
 10
-47.427
 20
-46.7634
 11
-47.6289
 21
-46.4453
  0
LINE
  8
0
 10
-47.6289
 20
-46.4453
 11
-47.7893
 21
-46.1044
  0
LINE
  8
0
 10
-47.7893
 20
-46.1044
 11
-47.9057
 21
-45.7461
  0
LINE
  8
0
 10
-47.9057
 20
-45.7461
 11
-47.9763
 21
-45.376
  0
LINE
  8
0
 10
-47.9763
 20
-45.376
 11
-48
 21
-45
  0
LINE
  8
0
 10
-48
 20
-45
 11
-47.9763
 21
-44.624
  0
LINE
  8
0
 10
-47.9763
 20
-44.624
 11
-47.9057
 21
-44.2539
  0
LINE
  8
0
 10
-47.9057
 20
-44.2539
 11
-47.7893
 21
-43.8956
  0
LINE
  8
0
 10
-47.7893
 20
-43.8956
 11
-47.6289
 21
-43.5547
  0
LINE
  8
0
 10
-47.6289
 20
-43.5547
 11
-47.427
 21
-43.2366
  0
LINE
  8
0
 10
-47.427
 20
-43.2366
 11
-47.1869
 21
-42.9464
  0
LINE
  8
0
 10
-47.1869
 20
-42.9464
 11
-46.9123
 21
-42.6885
  0
LINE
  8
0
 10
-46.9123
 20
-42.6885
 11
-46.6075
 21
-42.467
  0
LINE
  8
0
 10
-46.6075
 20
-42.467
 11
-46.2773
 21
-42.2855
  0
LINE
  8
0
 10
-46.2773
 20
-42.2855
 11
-45.927
 21
-42.1468
  0
LINE
  8
0
 10
-45.927
 20
-42.1468
 11
-45.5621
 21
-42.0531
  0
LINE
  8
0
 10
-45.5621
 20
-42.0531
 11
-45.1884
 21
-42.0059
  0
LINE
  8
0
 10
-45.1884
 20
-42.0059
 11
-44.8116
 21
-42.0059
  0
LINE
  8
0
 10
-44.8116
 20
-42.0059
 11
-44.4379
 21
-42.0531
  0
LINE
  8
0
 10
-44.4379
 20
-42.0531
 11
-44.0729
 21
-42.1468
  0
LINE
  8
0
 10
-44.0729
 20
-42.1468
 11
-43.7227
 21
-42.2855
  0
LINE
  8
0
 10
-43.7227
 20
-42.2855
 11
-43.3925
 21
-42.467
  0
LINE
  8
0
 10
-43.3925
 20
-42.467
 11
-43.0877
 21
-42.6885
  0
LINE
  8
0
 10
-43.0877
 20
-42.6885
 11
-42.8131
 21
-42.9464
  0
LINE
  8
0
 10
-42.8131
 20
-42.9464
 11
-42.5729
 21
-43.2366
  0
LINE
  8
0
 10
-42.5729
 20
-43.2366
 11
-42.3711
 21
-43.5547
  0
LINE
  8
0
 10
-42.3711
 20
-43.5547
 11
-42.2107
 21
-43.8956
  0
LINE
  8
0
 10
-42.2107
 20
-43.8956
 11
-42.0942
 21
-44.2539
  0
LINE
  8
0
 10
-42.0942
 20
-44.2539
 11
-42.0237
 21
-44.624
  0
LINE
  8
0
 10
-42.0237
 20
-44.624
 11
-42
 21
-45
  0
LINE
  8
0
 10
-42
 20
-45
 11
-42.0237
 21
-45.376
  0
LINE
  8
0
 10
-42.0237
 20
-45.376
 11
-42.0942
 21
-45.7461
  0
LINE
  8
0
 10
-42.0942
 20
-45.7461
 11
-42.2107
 21
-46.1044
  0
LINE
  8
0
 10
-42.2107
 20
-46.1044
 11
-42.3711
 21
-46.4453
  0
LINE
  8
0
 10
-42.3711
 20
-46.4453
 11
-42.5729
 21
-46.7634
  0
LINE
  8
0
 10
-42.5729
 20
-46.7634
 11
-42.8131
 21
-47.0536
  0
LINE
  8
0
 10
-42.8131
 20
-47.0536
 11
-43.0877
 21
-47.3115
  0
LINE
  8
0
 10
-43.0877
 20
-47.3115
 11
-43.3925
 21
-47.533
  0
LINE
  8
0
 10
-43.3925
 20
-47.533
 11
-43.7227
 21
-47.7145
  0
LINE
  8
0
 10
-43.7227
 20
-47.7145
 11
-44.0729
 21
-47.8532
  0
LINE
  8
0
 10
-44.0729
 20
-47.8532
 11
-44.4379
 21
-47.9469
  0
LINE
  8
0
 10
-44.4379
 20
-47.9469
 11
-44.8116
 21
-47.9941
  0
LINE
  8
0
 10
-44.8116
 20
-47.9941
 11
-45.1884
 21
-47.9941
  0
LINE
  8
0
 10
44.8116
 20
-47.9941
 11
44.4379
 21
-47.9469
  0
LINE
  8
0
 10
44.4379
 20
-47.9469
 11
44.0729
 21
-47.8532
  0
LINE
  8
0
 10
44.0729
 20
-47.8532
 11
43.7227
 21
-47.7145
  0
LINE
  8
0
 10
43.7227
 20
-47.7145
 11
43.3925
 21
-47.533
  0
LINE
  8
0
 10
43.3925
 20
-47.533
 11
43.0877
 21
-47.3115
  0
LINE
  8
0
 10
43.0877
 20
-47.3115
 11
42.8131
 21
-47.0536
  0
LINE
  8
0
 10
42.8131
 20
-47.0536
 11
42.5729
 21
-46.7634
  0
LINE
  8
0
 10
42.5729
 20
-46.7634
 11
42.3711
 21
-46.4453
  0
LINE
  8
0
 10
42.3711
 20
-46.4453
 11
42.2107
 21
-46.1044
  0
LINE
  8
0
 10
42.2107
 20
-46.1044
 11
42.0942
 21
-45.7461
  0
LINE
  8
0
 10
42.0942
 20
-45.7461
 11
42.0237
 21
-45.376
  0
LINE
  8
0
 10
42.0237
 20
-45.376
 11
42
 21
-45
  0
LINE
  8
0
 10
42
 20
-45
 11
42.0237
 21
-44.624
  0
LINE
  8
0
 10
42.0237
 20
-44.624
 11
42.0942
 21
-44.2539
  0
LINE
  8
0
 10
42.0942
 20
-44.2539
 11
42.2107
 21
-43.8956
  0
LINE
  8
0
 10
42.2107
 20
-43.8956
 11
42.3711
 21
-43.5547
  0
LINE
  8
0
 10
42.3711
 20
-43.5547
 11
42.5729
 21
-43.2366
  0
LINE
  8
0
 10
42.5729
 20
-43.2366
 11
42.8131
 21
-42.9464
  0
LINE
  8
0
 10
42.8131
 20
-42.9464
 11
43.0877
 21
-42.6885
  0
LINE
  8
0
 10
43.0877
 20
-42.6885
 11
43.3925
 21
-42.467
  0
LINE
  8
0
 10
43.3925
 20
-42.467
 11
43.7227
 21
-42.2855
  0
LINE
  8
0
 10
43.7227
 20
-42.2855
 11
44.0729
 21
-42.1468
  0
LINE
  8
0
 10
44.0729
 20
-42.1468
 11
44.4379
 21
-42.0531
  0
LINE
  8
0
 10
44.4379
 20
-42.0531
 11
44.8116
 21
-42.0059
  0
LINE
  8
0
 10
44.8116
 20
-42.0059
 11
45.1884
 21
-42.0059
  0
LINE
  8
0
 10
45.1884
 20
-42.0059
 11
45.5621
 21
-42.0531
  0
LINE
  8
0
 10
45.5621
 20
-42.0531
 11
45.927
 21
-42.1468
  0
LINE
  8
0
 10
45.927
 20
-42.1468
 11
46.2773
 21
-42.2855
  0
LINE
  8
0
 10
46.2773
 20
-42.2855
 11
46.6075
 21
-42.467
  0
LINE
  8
0
 10
46.6075
 20
-42.467
 11
46.9123
 21
-42.6885
  0
LINE
  8
0
 10
46.9123
 20
-42.6885
 11
47.1869
 21
-42.9464
  0
LINE
  8
0
 10
47.1869
 20
-42.9464
 11
47.427
 21
-43.2366
  0
LINE
  8
0
 10
47.427
 20
-43.2366
 11
47.6289
 21
-43.5547
  0
LINE
  8
0
 10
47.6289
 20
-43.5547
 11
47.7893
 21
-43.8956
  0
LINE
  8
0
 10
47.7893
 20
-43.8956
 11
47.9057
 21
-44.2539
  0
LINE
  8
0
 10
47.9057
 20
-44.2539
 11
47.9763
 21
-44.624
  0
LINE
  8
0
 10
47.9763
 20
-44.624
 11
48
 21
-45
  0
LINE
  8
0
 10
48
 20
-45
 11
47.9763
 21
-45.376
  0
LINE
  8
0
 10
47.9763
 20
-45.376
 11
47.9057
 21
-45.7461
  0
LINE
  8
0
 10
47.9057
 20
-45.7461
 11
47.7893
 21
-46.1044
  0
LINE
  8
0
 10
47.7893
 20
-46.1044
 11
47.6289
 21
-46.4453
  0
LINE
  8
0
 10
47.6289
 20
-46.4453
 11
47.427
 21
-46.7634
  0
LINE
  8
0
 10
47.427
 20
-46.7634
 11
47.1869
 21
-47.0536
  0
LINE
  8
0
 10
47.1869
 20
-47.0536
 11
46.9123
 21
-47.3115
  0
LINE
  8
0
 10
46.9123
 20
-47.3115
 11
46.6075
 21
-47.533
  0
LINE
  8
0
 10
46.6075
 20
-47.533
 11
46.2773
 21
-47.7145
  0
LINE
  8
0
 10
46.2773
 20
-47.7145
 11
45.927
 21
-47.8532
  0
LINE
  8
0
 10
45.927
 20
-47.8532
 11
45.5621
 21
-47.9469
  0
LINE
  8
0
 10
45.5621
 20
-47.9469
 11
45.1884
 21
-47.9941
  0
LINE
  8
0
 10
45.1884
 20
-47.9941
 11
44.8116
 21
-47.9941
  0
LINE
  8
0
 10
-60.1884
 20
-47.9941
 11
-60.5621
 21
-47.9469
  0
LINE
  8
0
 10
-60.5621
 20
-47.9469
 11
-60.927
 21
-47.8532
  0
LINE
  8
0
 10
-60.927
 20
-47.8532
 11
-61.2773
 21
-47.7145
  0
LINE
  8
0
 10
-61.2773
 20
-47.7145
 11
-61.6075
 21
-47.533
  0
LINE
  8
0
 10
-61.6075
 20
-47.533
 11
-61.9123
 21
-47.3115
  0
LINE
  8
0
 10
-61.9123
 20
-47.3115
 11
-62.1869
 21
-47.0536
  0
LINE
  8
0
 10
-62.1869
 20
-47.0536
 11
-62.427
 21
-46.7634
  0
LINE
  8
0
 10
-62.427
 20
-46.7634
 11
-62.6289
 21
-46.4453
  0
LINE
  8
0
 10
-62.6289
 20
-46.4453
 11
-62.7893
 21
-46.1044
  0
LINE
  8
0
 10
-62.7893
 20
-46.1044
 11
-62.9057
 21
-45.7461
  0
LINE
  8
0
 10
-62.9057
 20
-45.7461
 11
-62.9763
 21
-45.376
  0
LINE
  8
0
 10
-62.9763
 20
-45.376
 11
-63
 21
-45
  0
LINE
  8
0
 10
-63
 20
-45
 11
-62.9763
 21
-44.624
  0
LINE
  8
0
 10
-62.9763
 20
-44.624
 11
-62.9057
 21
-44.2539
  0
LINE
  8
0
 10
-62.9057
 20
-44.2539
 11
-62.7893
 21
-43.8956
  0
LINE
  8
0
 10
-62.7893
 20
-43.8956
 11
-62.6289
 21
-43.5547
  0
LINE
  8
0
 10
-62.6289
 20
-43.5547
 11
-62.427
 21
-43.2366
  0
LINE
  8
0
 10
-62.427
 20
-43.2366
 11
-62.1869
 21
-42.9464
  0
LINE
  8
0
 10
-62.1869
 20
-42.9464
 11
-61.9123
 21
-42.6885
  0
LINE
  8
0
 10
-61.9123
 20
-42.6885
 11
-61.6075
 21
-42.467
  0
LINE
  8
0
 10
-61.6075
 20
-42.467
 11
-61.2773
 21
-42.2855
  0
LINE
  8
0
 10
-61.2773
 20
-42.2855
 11
-60.927
 21
-42.1468
  0
LINE
  8
0
 10
-60.927
 20
-42.1468
 11
-60.5621
 21
-42.0531
  0
LINE
  8
0
 10
-60.5621
 20
-42.0531
 11
-60.1884
 21
-42.0059
  0
LINE
  8
0
 10
-60.1884
 20
-42.0059
 11
-59.8116
 21
-42.0059
  0
LINE
  8
0
 10
-59.8116
 20
-42.0059
 11
-59.4379
 21
-42.0531
  0
LINE
  8
0
 10
-59.4379
 20
-42.0531
 11
-59.0729
 21
-42.1468
  0
LINE
  8
0
 10
-59.0729
 20
-42.1468
 11
-58.7227
 21
-42.2855
  0
LINE
  8
0
 10
-58.7227
 20
-42.2855
 11
-58.3925
 21
-42.467
  0
LINE
  8
0
 10
-58.3925
 20
-42.467
 11
-58.0877
 21
-42.6885
  0
LINE
  8
0
 10
-58.0877
 20
-42.6885
 11
-57.8131
 21
-42.9464
  0
LINE
  8
0
 10
-57.8131
 20
-42.9464
 11
-57.5729
 21
-43.2366
  0
LINE
  8
0
 10
-57.5729
 20
-43.2366
 11
-57.3711
 21
-43.5547
  0
LINE
  8
0
 10
-57.3711
 20
-43.5547
 11
-57.2107
 21
-43.8956
  0
LINE
  8
0
 10
-57.2107
 20
-43.8956
 11
-57.0942
 21
-44.2539
  0
LINE
  8
0
 10
-57.0942
 20
-44.2539
 11
-57.0237
 21
-44.624
  0
LINE
  8
0
 10
-57.0237
 20
-44.624
 11
-57
 21
-45
  0
LINE
  8
0
 10
-57
 20
-45
 11
-57.0237
 21
-45.376
  0
LINE
  8
0
 10
-57.0237
 20
-45.376
 11
-57.0942
 21
-45.7461
  0
LINE
  8
0
 10
-57.0942
 20
-45.7461
 11
-57.2107
 21
-46.1044
  0
LINE
  8
0
 10
-57.2107
 20
-46.1044
 11
-57.3711
 21
-46.4453
  0
LINE
  8
0
 10
-57.3711
 20
-46.4453
 11
-57.5729
 21
-46.7634
  0
LINE
  8
0
 10
-57.5729
 20
-46.7634
 11
-57.8131
 21
-47.0536
  0
LINE
  8
0
 10
-57.8131
 20
-47.0536
 11
-58.0877
 21
-47.3115
  0
LINE
  8
0
 10
-58.0877
 20
-47.3115
 11
-58.3925
 21
-47.533
  0
LINE
  8
0
 10
-58.3925
 20
-47.533
 11
-58.7227
 21
-47.7145
  0
LINE
  8
0
 10
-58.7227
 20
-47.7145
 11
-59.0729
 21
-47.8532
  0
LINE
  8
0
 10
-59.0729
 20
-47.8532
 11
-59.4379
 21
-47.9469
  0
LINE
  8
0
 10
-59.4379
 20
-47.9469
 11
-59.8116
 21
-47.9941
  0
LINE
  8
0
 10
-59.8116
 20
-47.9941
 11
-60.1884
 21
-47.9941
  0
LINE
  8
0
 10
74.8116
 20
-47.9941
 11
74.4379
 21
-47.9469
  0
LINE
  8
0
 10
74.4379
 20
-47.9469
 11
74.073
 21
-47.8532
  0
LINE
  8
0
 10
74.073
 20
-47.8532
 11
73.7227
 21
-47.7145
  0
LINE
  8
0
 10
73.7227
 20
-47.7145
 11
73.3925
 21
-47.533
  0
LINE
  8
0
 10
73.3925
 20
-47.533
 11
73.0877
 21
-47.3115
  0
LINE
  8
0
 10
73.0877
 20
-47.3115
 11
72.8131
 21
-47.0536
  0
LINE
  8
0
 10
72.8131
 20
-47.0536
 11
72.573
 21
-46.7634
  0
LINE
  8
0
 10
72.573
 20
-46.7634
 11
72.3711
 21
-46.4453
  0
LINE
  8
0
 10
72.3711
 20
-46.4453
 11
72.2107
 21
-46.1044
  0
LINE
  8
0
 10
72.2107
 20
-46.1044
 11
72.0943
 21
-45.7461
  0
LINE
  8
0
 10
72.0943
 20
-45.7461
 11
72.0237
 21
-45.376
  0
LINE
  8
0
 10
72.0237
 20
-45.376
 11
72
 21
-45
  0
LINE
  8
0
 10
72
 20
-45
 11
72.0237
 21
-44.624
  0
LINE
  8
0
 10
72.0237
 20
-44.624
 11
72.0943
 21
-44.2539
  0
LINE
  8
0
 10
72.0943
 20
-44.2539
 11
72.2107
 21
-43.8956
  0
LINE
  8
0
 10
72.2107
 20
-43.8956
 11
72.3711
 21
-43.5547
  0
LINE
  8
0
 10
72.3711
 20
-43.5547
 11
72.573
 21
-43.2366
  0
LINE
  8
0
 10
72.573
 20
-43.2366
 11
72.8131
 21
-42.9464
  0
LINE
  8
0
 10
72.8131
 20
-42.9464
 11
73.0877
 21
-42.6885
  0
LINE
  8
0
 10
73.0877
 20
-42.6885
 11
73.3925
 21
-42.467
  0
LINE
  8
0
 10
73.3925
 20
-42.467
 11
73.7227
 21
-42.2855
  0
LINE
  8
0
 10
73.7227
 20
-42.2855
 11
74.073
 21
-42.1468
  0
LINE
  8
0
 10
74.073
 20
-42.1468
 11
74.4379
 21
-42.0531
  0
LINE
  8
0
 10
74.4379
 20
-42.0531
 11
74.8116
 21
-42.0059
  0
LINE
  8
0
 10
74.8116
 20
-42.0059
 11
75.1884
 21
-42.0059
  0
LINE
  8
0
 10
75.1884
 20
-42.0059
 11
75.5621
 21
-42.0531
  0
LINE
  8
0
 10
75.5621
 20
-42.0531
 11
75.927
 21
-42.1468
  0
LINE
  8
0
 10
75.927
 20
-42.1468
 11
76.2773
 21
-42.2855
  0
LINE
  8
0
 10
76.2773
 20
-42.2855
 11
76.6075
 21
-42.467
  0
LINE
  8
0
 10
76.6075
 20
-42.467
 11
76.9123
 21
-42.6885
  0
LINE
  8
0
 10
76.9123
 20
-42.6885
 11
77.1869
 21
-42.9464
  0
LINE
  8
0
 10
77.1869
 20
-42.9464
 11
77.427
 21
-43.2366
  0
LINE
  8
0
 10
77.427
 20
-43.2366
 11
77.6289
 21
-43.5547
  0
LINE
  8
0
 10
77.6289
 20
-43.5547
 11
77.7893
 21
-43.8956
  0
LINE
  8
0
 10
77.7893
 20
-43.8956
 11
77.9057
 21
-44.2539
  0
LINE
  8
0
 10
77.9057
 20
-44.2539
 11
77.9763
 21
-44.624
  0
LINE
  8
0
 10
77.9763
 20
-44.624
 11
78
 21
-45
  0
LINE
  8
0
 10
78
 20
-45
 11
77.9763
 21
-45.376
  0
LINE
  8
0
 10
77.9763
 20
-45.376
 11
77.9057
 21
-45.7461
  0
LINE
  8
0
 10
77.9057
 20
-45.7461
 11
77.7893
 21
-46.1044
  0
LINE
  8
0
 10
77.7893
 20
-46.1044
 11
77.6289
 21
-46.4453
  0
LINE
  8
0
 10
77.6289
 20
-46.4453
 11
77.427
 21
-46.7634
  0
LINE
  8
0
 10
77.427
 20
-46.7634
 11
77.1869
 21
-47.0536
  0
LINE
  8
0
 10
77.1869
 20
-47.0536
 11
76.9123
 21
-47.3115
  0
LINE
  8
0
 10
76.9123
 20
-47.3115
 11
76.6075
 21
-47.533
  0
LINE
  8
0
 10
76.6075
 20
-47.533
 11
76.2773
 21
-47.7145
  0
LINE
  8
0
 10
76.2773
 20
-47.7145
 11
75.927
 21
-47.8532
  0
LINE
  8
0
 10
75.927
 20
-47.8532
 11
75.5621
 21
-47.9469
  0
LINE
  8
0
 10
75.5621
 20
-47.9469
 11
75.1884
 21
-47.9941
  0
LINE
  8
0
 10
75.1884
 20
-47.9941
 11
74.8116
 21
-47.9941
  0
LINE
  8
0
 10
-30.1884
 20
-47.9941
 11
-30.5621
 21
-47.9469
  0
LINE
  8
0
 10
-30.5621
 20
-47.9469
 11
-30.927
 21
-47.8532
  0
LINE
  8
0
 10
-30.927
 20
-47.8532
 11
-31.2773
 21
-47.7145
  0
LINE
  8
0
 10
-31.2773
 20
-47.7145
 11
-31.6075
 21
-47.533
  0
LINE
  8
0
 10
-31.6075
 20
-47.533
 11
-31.9123
 21
-47.3115
  0
LINE
  8
0
 10
-31.9123
 20
-47.3115
 11
-32.1869
 21
-47.0536
  0
LINE
  8
0
 10
-32.1869
 20
-47.0536
 11
-32.427
 21
-46.7634
  0
LINE
  8
0
 10
-32.427
 20
-46.7634
 11
-32.6289
 21
-46.4453
  0
LINE
  8
0
 10
-32.6289
 20
-46.4453
 11
-32.7893
 21
-46.1044
  0
LINE
  8
0
 10
-32.7893
 20
-46.1044
 11
-32.9057
 21
-45.7461
  0
LINE
  8
0
 10
-32.9057
 20
-45.7461
 11
-32.9763
 21
-45.376
  0
LINE
  8
0
 10
-32.9763
 20
-45.376
 11
-33
 21
-45
  0
LINE
  8
0
 10
-33
 20
-45
 11
-32.9763
 21
-44.624
  0
LINE
  8
0
 10
-32.9763
 20
-44.624
 11
-32.9057
 21
-44.2539
  0
LINE
  8
0
 10
-32.9057
 20
-44.2539
 11
-32.7893
 21
-43.8956
  0
LINE
  8
0
 10
-32.7893
 20
-43.8956
 11
-32.6289
 21
-43.5547
  0
LINE
  8
0
 10
-32.6289
 20
-43.5547
 11
-32.427
 21
-43.2366
  0
LINE
  8
0
 10
-32.427
 20
-43.2366
 11
-32.1869
 21
-42.9464
  0
LINE
  8
0
 10
-32.1869
 20
-42.9464
 11
-31.9123
 21
-42.6885
  0
LINE
  8
0
 10
-31.9123
 20
-42.6885
 11
-31.6075
 21
-42.467
  0
LINE
  8
0
 10
-31.6075
 20
-42.467
 11
-31.2773
 21
-42.2855
  0
LINE
  8
0
 10
-31.2773
 20
-42.2855
 11
-30.927
 21
-42.1468
  0
LINE
  8
0
 10
-30.927
 20
-42.1468
 11
-30.5621
 21
-42.0531
  0
LINE
  8
0
 10
-30.5621
 20
-42.0531
 11
-30.1884
 21
-42.0059
  0
LINE
  8
0
 10
-30.1884
 20
-42.0059
 11
-29.8116
 21
-42.0059
  0
LINE
  8
0
 10
-29.8116
 20
-42.0059
 11
-29.4379
 21
-42.0531
  0
LINE
  8
0
 10
-29.4379
 20
-42.0531
 11
-29.0729
 21
-42.1468
  0
LINE
  8
0
 10
-29.0729
 20
-42.1468
 11
-28.7227
 21
-42.2855
  0
LINE
  8
0
 10
-28.7227
 20
-42.2855
 11
-28.3925
 21
-42.467
  0
LINE
  8
0
 10
-28.3925
 20
-42.467
 11
-28.0877
 21
-42.6885
  0
LINE
  8
0
 10
-28.0877
 20
-42.6885
 11
-27.8131
 21
-42.9464
  0
LINE
  8
0
 10
-27.8131
 20
-42.9464
 11
-27.5729
 21
-43.2366
  0
LINE
  8
0
 10
-27.5729
 20
-43.2366
 11
-27.3711
 21
-43.5547
  0
LINE
  8
0
 10
-27.3711
 20
-43.5547
 11
-27.2107
 21
-43.8956
  0
LINE
  8
0
 10
-27.2107
 20
-43.8956
 11
-27.0942
 21
-44.2539
  0
LINE
  8
0
 10
-27.0942
 20
-44.2539
 11
-27.0237
 21
-44.624
  0
LINE
  8
0
 10
-27.0237
 20
-44.624
 11
-27
 21
-45
  0
LINE
  8
0
 10
-27
 20
-45
 11
-27.0237
 21
-45.376
  0
LINE
  8
0
 10
-27.0237
 20
-45.376
 11
-27.0942
 21
-45.7461
  0
LINE
  8
0
 10
-27.0942
 20
-45.7461
 11
-27.2107
 21
-46.1044
  0
LINE
  8
0
 10
-27.2107
 20
-46.1044
 11
-27.3711
 21
-46.4453
  0
LINE
  8
0
 10
-27.3711
 20
-46.4453
 11
-27.5729
 21
-46.7634
  0
LINE
  8
0
 10
-27.5729
 20
-46.7634
 11
-27.8131
 21
-47.0536
  0
LINE
  8
0
 10
-27.8131
 20
-47.0536
 11
-28.0877
 21
-47.3115
  0
LINE
  8
0
 10
-28.0877
 20
-47.3115
 11
-28.3925
 21
-47.533
  0
LINE
  8
0
 10
-28.3925
 20
-47.533
 11
-28.7227
 21
-47.7145
  0
LINE
  8
0
 10
-28.7227
 20
-47.7145
 11
-29.0729
 21
-47.8532
  0
LINE
  8
0
 10
-29.0729
 20
-47.8532
 11
-29.4379
 21
-47.9469
  0
LINE
  8
0
 10
-29.4379
 20
-47.9469
 11
-29.8116
 21
-47.9941
  0
LINE
  8
0
 10
-29.8116
 20
-47.9941
 11
-30.1884
 21
-47.9941
  0
LINE
  8
0
 10
14.8116
 20
-47.9941
 11
14.4379
 21
-47.9469
  0
LINE
  8
0
 10
14.4379
 20
-47.9469
 11
14.0729
 21
-47.8532
  0
LINE
  8
0
 10
14.0729
 20
-47.8532
 11
13.7227
 21
-47.7145
  0
LINE
  8
0
 10
13.7227
 20
-47.7145
 11
13.3925
 21
-47.533
  0
LINE
  8
0
 10
13.3925
 20
-47.533
 11
13.0877
 21
-47.3115
  0
LINE
  8
0
 10
13.0877
 20
-47.3115
 11
12.8131
 21
-47.0536
  0
LINE
  8
0
 10
12.8131
 20
-47.0536
 11
12.5729
 21
-46.7634
  0
LINE
  8
0
 10
12.5729
 20
-46.7634
 11
12.3711
 21
-46.4453
  0
LINE
  8
0
 10
12.3711
 20
-46.4453
 11
12.2107
 21
-46.1044
  0
LINE
  8
0
 10
12.2107
 20
-46.1044
 11
12.0942
 21
-45.7461
  0
LINE
  8
0
 10
12.0942
 20
-45.7461
 11
12.0237
 21
-45.376
  0
LINE
  8
0
 10
12.0237
 20
-45.376
 11
12
 21
-45
  0
LINE
  8
0
 10
12
 20
-45
 11
12.0237
 21
-44.624
  0
LINE
  8
0
 10
12.0237
 20
-44.624
 11
12.0942
 21
-44.2539
  0
LINE
  8
0
 10
12.0942
 20
-44.2539
 11
12.2107
 21
-43.8956
  0
LINE
  8
0
 10
12.2107
 20
-43.8956
 11
12.3711
 21
-43.5547
  0
LINE
  8
0
 10
12.3711
 20
-43.5547
 11
12.5729
 21
-43.2366
  0
LINE
  8
0
 10
12.5729
 20
-43.2366
 11
12.8131
 21
-42.9464
  0
LINE
  8
0
 10
12.8131
 20
-42.9464
 11
13.0877
 21
-42.6885
  0
LINE
  8
0
 10
13.0877
 20
-42.6885
 11
13.3925
 21
-42.467
  0
LINE
  8
0
 10
13.3925
 20
-42.467
 11
13.7227
 21
-42.2855
  0
LINE
  8
0
 10
13.7227
 20
-42.2855
 11
14.0729
 21
-42.1468
  0
LINE
  8
0
 10
14.0729
 20
-42.1468
 11
14.4379
 21
-42.0531
  0
LINE
  8
0
 10
14.4379
 20
-42.0531
 11
14.8116
 21
-42.0059
  0
LINE
  8
0
 10
14.8116
 20
-42.0059
 11
15.1884
 21
-42.0059
  0
LINE
  8
0
 10
15.1884
 20
-42.0059
 11
15.5621
 21
-42.0531
  0
LINE
  8
0
 10
15.5621
 20
-42.0531
 11
15.927
 21
-42.1468
  0
LINE
  8
0
 10
15.927
 20
-42.1468
 11
16.2773
 21
-42.2855
  0
LINE
  8
0
 10
16.2773
 20
-42.2855
 11
16.6075
 21
-42.467
  0
LINE
  8
0
 10
16.6075
 20
-42.467
 11
16.9123
 21
-42.6885
  0
LINE
  8
0
 10
16.9123
 20
-42.6885
 11
17.1869
 21
-42.9464
  0
LINE
  8
0
 10
17.1869
 20
-42.9464
 11
17.427
 21
-43.2366
  0
LINE
  8
0
 10
17.427
 20
-43.2366
 11
17.6289
 21
-43.5547
  0
LINE
  8
0
 10
17.6289
 20
-43.5547
 11
17.7893
 21
-43.8956
  0
LINE
  8
0
 10
17.7893
 20
-43.8956
 11
17.9057
 21
-44.2539
  0
LINE
  8
0
 10
17.9057
 20
-44.2539
 11
17.9763
 21
-44.624
  0
LINE
  8
0
 10
17.9763
 20
-44.624
 11
18
 21
-45
  0
LINE
  8
0
 10
18
 20
-45
 11
17.9763
 21
-45.376
  0
LINE
  8
0
 10
17.9763
 20
-45.376
 11
17.9057
 21
-45.7461
  0
LINE
  8
0
 10
17.9057
 20
-45.7461
 11
17.7893
 21
-46.1044
  0
LINE
  8
0
 10
17.7893
 20
-46.1044
 11
17.6289
 21
-46.4453
  0
LINE
  8
0
 10
17.6289
 20
-46.4453
 11
17.427
 21
-46.7634
  0
LINE
  8
0
 10
17.427
 20
-46.7634
 11
17.1869
 21
-47.0536
  0
LINE
  8
0
 10
17.1869
 20
-47.0536
 11
16.9123
 21
-47.3115
  0
LINE
  8
0
 10
16.9123
 20
-47.3115
 11
16.6075
 21
-47.533
  0
LINE
  8
0
 10
16.6075
 20
-47.533
 11
16.2773
 21
-47.7145
  0
LINE
  8
0
 10
16.2773
 20
-47.7145
 11
15.927
 21
-47.8532
  0
LINE
  8
0
 10
15.927
 20
-47.8532
 11
15.5621
 21
-47.9469
  0
LINE
  8
0
 10
15.5621
 20
-47.9469
 11
15.1884
 21
-47.9941
  0
LINE
  8
0
 10
15.1884
 20
-47.9941
 11
14.8116
 21
-47.9941
  0
LINE
  8
0
 10
-15.1884
 20
-47.9941
 11
-15.5621
 21
-47.9469
  0
LINE
  8
0
 10
-15.5621
 20
-47.9469
 11
-15.927
 21
-47.8532
  0
LINE
  8
0
 10
-15.927
 20
-47.8532
 11
-16.2773
 21
-47.7145
  0
LINE
  8
0
 10
-16.2773
 20
-47.7145
 11
-16.6075
 21
-47.533
  0
LINE
  8
0
 10
-16.6075
 20
-47.533
 11
-16.9123
 21
-47.3115
  0
LINE
  8
0
 10
-16.9123
 20
-47.3115
 11
-17.1869
 21
-47.0536
  0
LINE
  8
0
 10
-17.1869
 20
-47.0536
 11
-17.427
 21
-46.7634
  0
LINE
  8
0
 10
-17.427
 20
-46.7634
 11
-17.6289
 21
-46.4453
  0
LINE
  8
0
 10
-17.6289
 20
-46.4453
 11
-17.7893
 21
-46.1044
  0
LINE
  8
0
 10
-17.7893
 20
-46.1044
 11
-17.9057
 21
-45.7461
  0
LINE
  8
0
 10
-17.9057
 20
-45.7461
 11
-17.9763
 21
-45.376
  0
LINE
  8
0
 10
-17.9763
 20
-45.376
 11
-18
 21
-45
  0
LINE
  8
0
 10
-18
 20
-45
 11
-17.9763
 21
-44.624
  0
LINE
  8
0
 10
-17.9763
 20
-44.624
 11
-17.9057
 21
-44.2539
  0
LINE
  8
0
 10
-17.9057
 20
-44.2539
 11
-17.7893
 21
-43.8956
  0
LINE
  8
0
 10
-17.7893
 20
-43.8956
 11
-17.6289
 21
-43.5547
  0
LINE
  8
0
 10
-17.6289
 20
-43.5547
 11
-17.427
 21
-43.2366
  0
LINE
  8
0
 10
-17.427
 20
-43.2366
 11
-17.1869
 21
-42.9464
  0
LINE
  8
0
 10
-17.1869
 20
-42.9464
 11
-16.9123
 21
-42.6885
  0
LINE
  8
0
 10
-16.9123
 20
-42.6885
 11
-16.6075
 21
-42.467
  0
LINE
  8
0
 10
-16.6075
 20
-42.467
 11
-16.2773
 21
-42.2855
  0
LINE
  8
0
 10
-16.2773
 20
-42.2855
 11
-15.927
 21
-42.1468
  0
LINE
  8
0
 10
-15.927
 20
-42.1468
 11
-15.5621
 21
-42.0531
  0
LINE
  8
0
 10
-15.5621
 20
-42.0531
 11
-15.1884
 21
-42.0059
  0
LINE
  8
0
 10
-15.1884
 20
-42.0059
 11
-14.8116
 21
-42.0059
  0
LINE
  8
0
 10
-14.8116
 20
-42.0059
 11
-14.4379
 21
-42.0531
  0
LINE
  8
0
 10
-14.4379
 20
-42.0531
 11
-14.0729
 21
-42.1468
  0
LINE
  8
0
 10
-14.0729
 20
-42.1468
 11
-13.7227
 21
-42.2855
  0
LINE
  8
0
 10
-13.7227
 20
-42.2855
 11
-13.3925
 21
-42.467
  0
LINE
  8
0
 10
-13.3925
 20
-42.467
 11
-13.0877
 21
-42.6885
  0
LINE
  8
0
 10
-13.0877
 20
-42.6885
 11
-12.8131
 21
-42.9464
  0
LINE
  8
0
 10
-12.8131
 20
-42.9464
 11
-12.5729
 21
-43.2366
  0
LINE
  8
0
 10
-12.5729
 20
-43.2366
 11
-12.3711
 21
-43.5547
  0
LINE
  8
0
 10
-12.3711
 20
-43.5547
 11
-12.2107
 21
-43.8956
  0
LINE
  8
0
 10
-12.2107
 20
-43.8956
 11
-12.0942
 21
-44.2539
  0
LINE
  8
0
 10
-12.0942
 20
-44.2539
 11
-12.0237
 21
-44.624
  0
LINE
  8
0
 10
-12.0237
 20
-44.624
 11
-12
 21
-45
  0
LINE
  8
0
 10
-12
 20
-45
 11
-12.0237
 21
-45.376
  0
LINE
  8
0
 10
-12.0237
 20
-45.376
 11
-12.0942
 21
-45.7461
  0
LINE
  8
0
 10
-12.0942
 20
-45.7461
 11
-12.2107
 21
-46.1044
  0
LINE
  8
0
 10
-12.2107
 20
-46.1044
 11
-12.3711
 21
-46.4453
  0
LINE
  8
0
 10
-12.3711
 20
-46.4453
 11
-12.5729
 21
-46.7634
  0
LINE
  8
0
 10
-12.5729
 20
-46.7634
 11
-12.8131
 21
-47.0536
  0
LINE
  8
0
 10
-12.8131
 20
-47.0536
 11
-13.0877
 21
-47.3115
  0
LINE
  8
0
 10
-13.0877
 20
-47.3115
 11
-13.3925
 21
-47.533
  0
LINE
  8
0
 10
-13.3925
 20
-47.533
 11
-13.7227
 21
-47.7145
  0
LINE
  8
0
 10
-13.7227
 20
-47.7145
 11
-14.0729
 21
-47.8532
  0
LINE
  8
0
 10
-14.0729
 20
-47.8532
 11
-14.4379
 21
-47.9469
  0
LINE
  8
0
 10
-14.4379
 20
-47.9469
 11
-14.8116
 21
-47.9941
  0
LINE
  8
0
 10
-14.8116
 20
-47.9941
 11
-15.1884
 21
-47.9941
  0
LINE
  8
0
 10
-0.18837
 20
-47.9941
 11
-0.562134
 21
-47.9469
  0
LINE
  8
0
 10
-0.562134
 20
-47.9469
 11
-0.927048
 21
-47.8532
  0
LINE
  8
0
 10
-0.927048
 20
-47.8532
 11
-1.27733
 21
-47.7145
  0
LINE
  8
0
 10
-1.27733
 20
-47.7145
 11
-1.60747
 21
-47.533
  0
LINE
  8
0
 10
-1.60747
 20
-47.533
 11
-1.91226
 21
-47.3115
  0
LINE
  8
0
 10
-1.91226
 20
-47.3115
 11
-2.1869
 21
-47.0536
  0
LINE
  8
0
 10
-2.1869
 20
-47.0536
 11
-2.42705
 21
-46.7634
  0
LINE
  8
0
 10
-2.42705
 20
-46.7634
 11
-2.62891
 21
-46.4453
  0
LINE
  8
0
 10
-2.62891
 20
-46.4453
 11
-2.78932
 21
-46.1044
  0
LINE
  8
0
 10
-2.78932
 20
-46.1044
 11
-2.90575
 21
-45.7461
  0
LINE
  8
0
 10
-2.90575
 20
-45.7461
 11
-2.97633
 21
-45.376
  0
LINE
  8
0
 10
-2.97633
 20
-45.376
 11
-3
 21
-45
  0
LINE
  8
0
 10
-3
 20
-45
 11
-2.97633
 21
-44.624
  0
LINE
  8
0
 10
-2.97633
 20
-44.624
 11
-2.90575
 21
-44.2539
  0
LINE
  8
0
 10
-2.90575
 20
-44.2539
 11
-2.78932
 21
-43.8956
  0
LINE
  8
0
 10
-2.78932
 20
-43.8956
 11
-2.62891
 21
-43.5547
  0
LINE
  8
0
 10
-2.62891
 20
-43.5547
 11
-2.42705
 21
-43.2366
  0
LINE
  8
0
 10
-2.42705
 20
-43.2366
 11
-2.1869
 21
-42.9464
  0
LINE
  8
0
 10
-2.1869
 20
-42.9464
 11
-1.91226
 21
-42.6885
  0
LINE
  8
0
 10
-1.91226
 20
-42.6885
 11
-1.60747
 21
-42.467
  0
LINE
  8
0
 10
-1.60747
 20
-42.467
 11
-1.27733
 21
-42.2855
  0
LINE
  8
0
 10
-1.27733
 20
-42.2855
 11
-0.927048
 21
-42.1468
  0
LINE
  8
0
 10
-0.927048
 20
-42.1468
 11
-0.562134
 21
-42.0531
  0
LINE
  8
0
 10
-0.562134
 20
-42.0531
 11
-0.18837
 21
-42.0059
  0
LINE
  8
0
 10
-0.18837
 20
-42.0059
 11
0.18837
 21
-42.0059
  0
LINE
  8
0
 10
0.18837
 20
-42.0059
 11
0.562134
 21
-42.0531
  0
LINE
  8
0
 10
0.562134
 20
-42.0531
 11
0.927048
 21
-42.1468
  0
LINE
  8
0
 10
0.927048
 20
-42.1468
 11
1.27733
 21
-42.2855
  0
LINE
  8
0
 10
1.27733
 20
-42.2855
 11
1.60747
 21
-42.467
  0
LINE
  8
0
 10
1.60747
 20
-42.467
 11
1.91226
 21
-42.6885
  0
LINE
  8
0
 10
1.91226
 20
-42.6885
 11
2.1869
 21
-42.9464
  0
LINE
  8
0
 10
2.1869
 20
-42.9464
 11
2.42705
 21
-43.2366
  0
LINE
  8
0
 10
2.42705
 20
-43.2366
 11
2.62891
 21
-43.5547
  0
LINE
  8
0
 10
2.62891
 20
-43.5547
 11
2.78932
 21
-43.8956
  0
LINE
  8
0
 10
2.78932
 20
-43.8956
 11
2.90575
 21
-44.2539
  0
LINE
  8
0
 10
2.90575
 20
-44.2539
 11
2.97633
 21
-44.624
  0
LINE
  8
0
 10
2.97633
 20
-44.624
 11
3
 21
-45
  0
LINE
  8
0
 10
3
 20
-45
 11
2.97633
 21
-45.376
  0
LINE
  8
0
 10
2.97633
 20
-45.376
 11
2.90575
 21
-45.7461
  0
LINE
  8
0
 10
2.90575
 20
-45.7461
 11
2.78932
 21
-46.1044
  0
LINE
  8
0
 10
2.78932
 20
-46.1044
 11
2.62891
 21
-46.4453
  0
LINE
  8
0
 10
2.62891
 20
-46.4453
 11
2.42705
 21
-46.7634
  0
LINE
  8
0
 10
2.42705
 20
-46.7634
 11
2.1869
 21
-47.0536
  0
LINE
  8
0
 10
2.1869
 20
-47.0536
 11
1.91226
 21
-47.3115
  0
LINE
  8
0
 10
1.91226
 20
-47.3115
 11
1.60747
 21
-47.533
  0
LINE
  8
0
 10
1.60747
 20
-47.533
 11
1.27733
 21
-47.7145
  0
LINE
  8
0
 10
1.27733
 20
-47.7145
 11
0.927048
 21
-47.8532
  0
LINE
  8
0
 10
0.927048
 20
-47.8532
 11
0.562134
 21
-47.9469
  0
LINE
  8
0
 10
0.562134
 20
-47.9469
 11
0.18837
 21
-47.9941
  0
LINE
  8
0
 10
0.18837
 20
-47.9941
 11
-0.18837
 21
-47.9941
  0
LINE
  8
0
 10
29.8116
 20
-47.9941
 11
29.4379
 21
-47.9469
  0
LINE
  8
0
 10
29.4379
 20
-47.9469
 11
29.0729
 21
-47.8532
  0
LINE
  8
0
 10
29.0729
 20
-47.8532
 11
28.7227
 21
-47.7145
  0
LINE
  8
0
 10
28.7227
 20
-47.7145
 11
28.3925
 21
-47.533
  0
LINE
  8
0
 10
28.3925
 20
-47.533
 11
28.0877
 21
-47.3115
  0
LINE
  8
0
 10
28.0877
 20
-47.3115
 11
27.8131
 21
-47.0536
  0
LINE
  8
0
 10
27.8131
 20
-47.0536
 11
27.5729
 21
-46.7634
  0
LINE
  8
0
 10
27.5729
 20
-46.7634
 11
27.3711
 21
-46.4453
  0
LINE
  8
0
 10
27.3711
 20
-46.4453
 11
27.2107
 21
-46.1044
  0
LINE
  8
0
 10
27.2107
 20
-46.1044
 11
27.0942
 21
-45.7461
  0
LINE
  8
0
 10
27.0942
 20
-45.7461
 11
27.0237
 21
-45.376
  0
LINE
  8
0
 10
27.0237
 20
-45.376
 11
27
 21
-45
  0
LINE
  8
0
 10
27
 20
-45
 11
27.0237
 21
-44.624
  0
LINE
  8
0
 10
27.0237
 20
-44.624
 11
27.0942
 21
-44.2539
  0
LINE
  8
0
 10
27.0942
 20
-44.2539
 11
27.2107
 21
-43.8956
  0
LINE
  8
0
 10
27.2107
 20
-43.8956
 11
27.3711
 21
-43.5547
  0
LINE
  8
0
 10
27.3711
 20
-43.5547
 11
27.5729
 21
-43.2366
  0
LINE
  8
0
 10
27.5729
 20
-43.2366
 11
27.8131
 21
-42.9464
  0
LINE
  8
0
 10
27.8131
 20
-42.9464
 11
28.0877
 21
-42.6885
  0
LINE
  8
0
 10
28.0877
 20
-42.6885
 11
28.3925
 21
-42.467
  0
LINE
  8
0
 10
28.3925
 20
-42.467
 11
28.7227
 21
-42.2855
  0
LINE
  8
0
 10
28.7227
 20
-42.2855
 11
29.0729
 21
-42.1468
  0
LINE
  8
0
 10
29.0729
 20
-42.1468
 11
29.4379
 21
-42.0531
  0
LINE
  8
0
 10
29.4379
 20
-42.0531
 11
29.8116
 21
-42.0059
  0
LINE
  8
0
 10
29.8116
 20
-42.0059
 11
30.1884
 21
-42.0059
  0
LINE
  8
0
 10
30.1884
 20
-42.0059
 11
30.5621
 21
-42.0531
  0
LINE
  8
0
 10
30.5621
 20
-42.0531
 11
30.927
 21
-42.1468
  0
LINE
  8
0
 10
30.927
 20
-42.1468
 11
31.2773
 21
-42.2855
  0
LINE
  8
0
 10
31.2773
 20
-42.2855
 11
31.6075
 21
-42.467
  0
LINE
  8
0
 10
31.6075
 20
-42.467
 11
31.9123
 21
-42.6885
  0
LINE
  8
0
 10
31.9123
 20
-42.6885
 11
32.1869
 21
-42.9464
  0
LINE
  8
0
 10
32.1869
 20
-42.9464
 11
32.427
 21
-43.2366
  0
LINE
  8
0
 10
32.427
 20
-43.2366
 11
32.6289
 21
-43.5547
  0
LINE
  8
0
 10
32.6289
 20
-43.5547
 11
32.7893
 21
-43.8956
  0
LINE
  8
0
 10
32.7893
 20
-43.8956
 11
32.9057
 21
-44.2539
  0
LINE
  8
0
 10
32.9057
 20
-44.2539
 11
32.9763
 21
-44.624
  0
LINE
  8
0
 10
32.9763
 20
-44.624
 11
33
 21
-45
  0
LINE
  8
0
 10
33
 20
-45
 11
32.9763
 21
-45.376
  0
LINE
  8
0
 10
32.9763
 20
-45.376
 11
32.9057
 21
-45.7461
  0
LINE
  8
0
 10
32.9057
 20
-45.7461
 11
32.7893
 21
-46.1044
  0
LINE
  8
0
 10
32.7893
 20
-46.1044
 11
32.6289
 21
-46.4453
  0
LINE
  8
0
 10
32.6289
 20
-46.4453
 11
32.427
 21
-46.7634
  0
LINE
  8
0
 10
32.427
 20
-46.7634
 11
32.1869
 21
-47.0536
  0
LINE
  8
0
 10
32.1869
 20
-47.0536
 11
31.9123
 21
-47.3115
  0
LINE
  8
0
 10
31.9123
 20
-47.3115
 11
31.6075
 21
-47.533
  0
LINE
  8
0
 10
31.6075
 20
-47.533
 11
31.2773
 21
-47.7145
  0
LINE
  8
0
 10
31.2773
 20
-47.7145
 11
30.927
 21
-47.8532
  0
LINE
  8
0
 10
30.927
 20
-47.8532
 11
30.5621
 21
-47.9469
  0
LINE
  8
0
 10
30.5621
 20
-47.9469
 11
30.1884
 21
-47.9941
  0
LINE
  8
0
 10
30.1884
 20
-47.9941
 11
29.8116
 21
-47.9941
  0
LINE
  8
0
 10
-75.1884
 20
-47.9941
 11
-75.5621
 21
-47.9469
  0
LINE
  8
0
 10
-75.5621
 20
-47.9469
 11
-75.927
 21
-47.8532
  0
LINE
  8
0
 10
-75.927
 20
-47.8532
 11
-76.2773
 21
-47.7145
  0
LINE
  8
0
 10
-76.2773
 20
-47.7145
 11
-76.6075
 21
-47.533
  0
LINE
  8
0
 10
-76.6075
 20
-47.533
 11
-76.9123
 21
-47.3115
  0
LINE
  8
0
 10
-76.9123
 20
-47.3115
 11
-77.1869
 21
-47.0536
  0
LINE
  8
0
 10
-77.1869
 20
-47.0536
 11
-77.427
 21
-46.7634
  0
LINE
  8
0
 10
-77.427
 20
-46.7634
 11
-77.6289
 21
-46.4453
  0
LINE
  8
0
 10
-77.6289
 20
-46.4453
 11
-77.7893
 21
-46.1044
  0
LINE
  8
0
 10
-77.7893
 20
-46.1044
 11
-77.9057
 21
-45.7461
  0
LINE
  8
0
 10
-77.9057
 20
-45.7461
 11
-77.9763
 21
-45.376
  0
LINE
  8
0
 10
-77.9763
 20
-45.376
 11
-78
 21
-45
  0
LINE
  8
0
 10
-78
 20
-45
 11
-77.9763
 21
-44.624
  0
LINE
  8
0
 10
-77.9763
 20
-44.624
 11
-77.9057
 21
-44.2539
  0
LINE
  8
0
 10
-77.9057
 20
-44.2539
 11
-77.7893
 21
-43.8956
  0
LINE
  8
0
 10
-77.7893
 20
-43.8956
 11
-77.6289
 21
-43.5547
  0
LINE
  8
0
 10
-77.6289
 20
-43.5547
 11
-77.427
 21
-43.2366
  0
LINE
  8
0
 10
-77.427
 20
-43.2366
 11
-77.1869
 21
-42.9464
  0
LINE
  8
0
 10
-77.1869
 20
-42.9464
 11
-76.9123
 21
-42.6885
  0
LINE
  8
0
 10
-76.9123
 20
-42.6885
 11
-76.6075
 21
-42.467
  0
LINE
  8
0
 10
-76.6075
 20
-42.467
 11
-76.2773
 21
-42.2855
  0
LINE
  8
0
 10
-76.2773
 20
-42.2855
 11
-75.927
 21
-42.1468
  0
LINE
  8
0
 10
-75.927
 20
-42.1468
 11
-75.5621
 21
-42.0531
  0
LINE
  8
0
 10
-75.5621
 20
-42.0531
 11
-75.1884
 21
-42.0059
  0
LINE
  8
0
 10
-75.1884
 20
-42.0059
 11
-74.8116
 21
-42.0059
  0
LINE
  8
0
 10
-74.8116
 20
-42.0059
 11
-74.4379
 21
-42.0531
  0
LINE
  8
0
 10
-74.4379
 20
-42.0531
 11
-74.073
 21
-42.1468
  0
LINE
  8
0
 10
-74.073
 20
-42.1468
 11
-73.7227
 21
-42.2855
  0
LINE
  8
0
 10
-73.7227
 20
-42.2855
 11
-73.3925
 21
-42.467
  0
LINE
  8
0
 10
-73.3925
 20
-42.467
 11
-73.0877
 21
-42.6885
  0
LINE
  8
0
 10
-73.0877
 20
-42.6885
 11
-72.8131
 21
-42.9464
  0
LINE
  8
0
 10
-72.8131
 20
-42.9464
 11
-72.573
 21
-43.2366
  0
LINE
  8
0
 10
-72.573
 20
-43.2366
 11
-72.3711
 21
-43.5547
  0
LINE
  8
0
 10
-72.3711
 20
-43.5547
 11
-72.2107
 21
-43.8956
  0
LINE
  8
0
 10
-72.2107
 20
-43.8956
 11
-72.0943
 21
-44.2539
  0
LINE
  8
0
 10
-72.0943
 20
-44.2539
 11
-72.0237
 21
-44.624
  0
LINE
  8
0
 10
-72.0237
 20
-44.624
 11
-72
 21
-45
  0
LINE
  8
0
 10
-72
 20
-45
 11
-72.0237
 21
-45.376
  0
LINE
  8
0
 10
-72.0237
 20
-45.376
 11
-72.0943
 21
-45.7461
  0
LINE
  8
0
 10
-72.0943
 20
-45.7461
 11
-72.2107
 21
-46.1044
  0
LINE
  8
0
 10
-72.2107
 20
-46.1044
 11
-72.3711
 21
-46.4453
  0
LINE
  8
0
 10
-72.3711
 20
-46.4453
 11
-72.573
 21
-46.7634
  0
LINE
  8
0
 10
-72.573
 20
-46.7634
 11
-72.8131
 21
-47.0536
  0
LINE
  8
0
 10
-72.8131
 20
-47.0536
 11
-73.0877
 21
-47.3115
  0
LINE
  8
0
 10
-73.0877
 20
-47.3115
 11
-73.3925
 21
-47.533
  0
LINE
  8
0
 10
-73.3925
 20
-47.533
 11
-73.7227
 21
-47.7145
  0
LINE
  8
0
 10
-73.7227
 20
-47.7145
 11
-74.073
 21
-47.8532
  0
LINE
  8
0
 10
-74.073
 20
-47.8532
 11
-74.4379
 21
-47.9469
  0
LINE
  8
0
 10
-74.4379
 20
-47.9469
 11
-74.8116
 21
-47.9941
  0
LINE
  8
0
 10
-74.8116
 20
-47.9941
 11
-75.1884
 21
-47.9941
  0
LINE
  8
0
 10
59.8116
 20
-47.9941
 11
59.4379
 21
-47.9469
  0
LINE
  8
0
 10
59.4379
 20
-47.9469
 11
59.0729
 21
-47.8532
  0
LINE
  8
0
 10
59.0729
 20
-47.8532
 11
58.7227
 21
-47.7145
  0
LINE
  8
0
 10
58.7227
 20
-47.7145
 11
58.3925
 21
-47.533
  0
LINE
  8
0
 10
58.3925
 20
-47.533
 11
58.0877
 21
-47.3115
  0
LINE
  8
0
 10
58.0877
 20
-47.3115
 11
57.8131
 21
-47.0536
  0
LINE
  8
0
 10
57.8131
 20
-47.0536
 11
57.5729
 21
-46.7634
  0
LINE
  8
0
 10
57.5729
 20
-46.7634
 11
57.3711
 21
-46.4453
  0
LINE
  8
0
 10
57.3711
 20
-46.4453
 11
57.2107
 21
-46.1044
  0
LINE
  8
0
 10
57.2107
 20
-46.1044
 11
57.0942
 21
-45.7461
  0
LINE
  8
0
 10
57.0942
 20
-45.7461
 11
57.0237
 21
-45.376
  0
LINE
  8
0
 10
57.0237
 20
-45.376
 11
57
 21
-45
  0
LINE
  8
0
 10
57
 20
-45
 11
57.0237
 21
-44.624
  0
LINE
  8
0
 10
57.0237
 20
-44.624
 11
57.0942
 21
-44.2539
  0
LINE
  8
0
 10
57.0942
 20
-44.2539
 11
57.2107
 21
-43.8956
  0
LINE
  8
0
 10
57.2107
 20
-43.8956
 11
57.3711
 21
-43.5547
  0
LINE
  8
0
 10
57.3711
 20
-43.5547
 11
57.5729
 21
-43.2366
  0
LINE
  8
0
 10
57.5729
 20
-43.2366
 11
57.8131
 21
-42.9464
  0
LINE
  8
0
 10
57.8131
 20
-42.9464
 11
58.0877
 21
-42.6885
  0
LINE
  8
0
 10
58.0877
 20
-42.6885
 11
58.3925
 21
-42.467
  0
LINE
  8
0
 10
58.3925
 20
-42.467
 11
58.7227
 21
-42.2855
  0
LINE
  8
0
 10
58.7227
 20
-42.2855
 11
59.0729
 21
-42.1468
  0
LINE
  8
0
 10
59.0729
 20
-42.1468
 11
59.4379
 21
-42.0531
  0
LINE
  8
0
 10
59.4379
 20
-42.0531
 11
59.8116
 21
-42.0059
  0
LINE
  8
0
 10
59.8116
 20
-42.0059
 11
60.1884
 21
-42.0059
  0
LINE
  8
0
 10
60.1884
 20
-42.0059
 11
60.5621
 21
-42.0531
  0
LINE
  8
0
 10
60.5621
 20
-42.0531
 11
60.927
 21
-42.1468
  0
LINE
  8
0
 10
60.927
 20
-42.1468
 11
61.2773
 21
-42.2855
  0
LINE
  8
0
 10
61.2773
 20
-42.2855
 11
61.6075
 21
-42.467
  0
LINE
  8
0
 10
61.6075
 20
-42.467
 11
61.9123
 21
-42.6885
  0
LINE
  8
0
 10
61.9123
 20
-42.6885
 11
62.1869
 21
-42.9464
  0
LINE
  8
0
 10
62.1869
 20
-42.9464
 11
62.427
 21
-43.2366
  0
LINE
  8
0
 10
62.427
 20
-43.2366
 11
62.6289
 21
-43.5547
  0
LINE
  8
0
 10
62.6289
 20
-43.5547
 11
62.7893
 21
-43.8956
  0
LINE
  8
0
 10
62.7893
 20
-43.8956
 11
62.9057
 21
-44.2539
  0
LINE
  8
0
 10
62.9057
 20
-44.2539
 11
62.9763
 21
-44.624
  0
LINE
  8
0
 10
62.9763
 20
-44.624
 11
63
 21
-45
  0
LINE
  8
0
 10
63
 20
-45
 11
62.9763
 21
-45.376
  0
LINE
  8
0
 10
62.9763
 20
-45.376
 11
62.9057
 21
-45.7461
  0
LINE
  8
0
 10
62.9057
 20
-45.7461
 11
62.7893
 21
-46.1044
  0
LINE
  8
0
 10
62.7893
 20
-46.1044
 11
62.6289
 21
-46.4453
  0
LINE
  8
0
 10
62.6289
 20
-46.4453
 11
62.427
 21
-46.7634
  0
LINE
  8
0
 10
62.427
 20
-46.7634
 11
62.1869
 21
-47.0536
  0
LINE
  8
0
 10
62.1869
 20
-47.0536
 11
61.9123
 21
-47.3115
  0
LINE
  8
0
 10
61.9123
 20
-47.3115
 11
61.6075
 21
-47.533
  0
LINE
  8
0
 10
61.6075
 20
-47.533
 11
61.2773
 21
-47.7145
  0
LINE
  8
0
 10
61.2773
 20
-47.7145
 11
60.927
 21
-47.8532
  0
LINE
  8
0
 10
60.927
 20
-47.8532
 11
60.5621
 21
-47.9469
  0
LINE
  8
0
 10
60.5621
 20
-47.9469
 11
60.1884
 21
-47.9941
  0
LINE
  8
0
 10
60.1884
 20
-47.9941
 11
59.8116
 21
-47.9941
  0
LINE
  8
0
 10
67.4058
 20
-46.497
 11
67.2189
 21
-46.4734
  0
LINE
  8
0
 10
67.2189
 20
-46.4734
 11
67.0365
 21
-46.4266
  0
LINE
  8
0
 10
67.0365
 20
-46.4266
 11
66.8613
 21
-46.3572
  0
LINE
  8
0
 10
66.8613
 20
-46.3572
 11
66.6963
 21
-46.2665
  0
LINE
  8
0
 10
66.6963
 20
-46.2665
 11
66.5439
 21
-46.1558
  0
LINE
  8
0
 10
66.5439
 20
-46.1558
 11
66.4065
 21
-46.0268
  0
LINE
  8
0
 10
66.4065
 20
-46.0268
 11
66.2865
 21
-45.8817
  0
LINE
  8
0
 10
66.2865
 20
-45.8817
 11
66.1855
 21
-45.7226
  0
LINE
  8
0
 10
66.1855
 20
-45.7226
 11
66.1053
 21
-45.5522
  0
LINE
  8
0
 10
66.1053
 20
-45.5522
 11
66.0471
 21
-45.373
  0
LINE
  8
0
 10
66.0471
 20
-45.373
 11
66.0118
 21
-45.188
  0
LINE
  8
0
 10
66.0118
 20
-45.188
 11
66
 21
-45
  0
LINE
  8
0
 10
66
 20
-45
 11
66.0118
 21
-44.812
  0
LINE
  8
0
 10
66.0118
 20
-44.812
 11
66.0471
 21
-44.627
  0
LINE
  8
0
 10
66.0471
 20
-44.627
 11
66.1053
 21
-44.4478
  0
LINE
  8
0
 10
66.1053
 20
-44.4478
 11
66.1855
 21
-44.2774
  0
LINE
  8
0
 10
66.1855
 20
-44.2774
 11
66.2865
 21
-44.1183
  0
LINE
  8
0
 10
66.2865
 20
-44.1183
 11
66.4065
 21
-43.9732
  0
LINE
  8
0
 10
66.4065
 20
-43.9732
 11
66.5439
 21
-43.8442
  0
LINE
  8
0
 10
66.5439
 20
-43.8442
 11
66.6963
 21
-43.7335
  0
LINE
  8
0
 10
66.6963
 20
-43.7335
 11
66.8613
 21
-43.6428
  0
LINE
  8
0
 10
66.8613
 20
-43.6428
 11
67.0365
 21
-43.5734
  0
LINE
  8
0
 10
67.0365
 20
-43.5734
 11
67.2189
 21
-43.5266
  0
LINE
  8
0
 10
67.2189
 20
-43.5266
 11
67.4058
 21
-43.503
  0
LINE
  8
0
 10
67.4058
 20
-43.503
 11
67.5942
 21
-43.503
  0
LINE
  8
0
 10
67.5942
 20
-43.503
 11
67.7811
 21
-43.5266
  0
LINE
  8
0
 10
67.7811
 20
-43.5266
 11
67.9635
 21
-43.5734
  0
LINE
  8
0
 10
67.9635
 20
-43.5734
 11
68.1387
 21
-43.6428
  0
LINE
  8
0
 10
68.1387
 20
-43.6428
 11
68.3037
 21
-43.7335
  0
LINE
  8
0
 10
68.3037
 20
-43.7335
 11
68.4561
 21
-43.8442
  0
LINE
  8
0
 10
68.4561
 20
-43.8442
 11
68.5934
 21
-43.9732
  0
LINE
  8
0
 10
68.5934
 20
-43.9732
 11
68.7135
 21
-44.1183
  0
LINE
  8
0
 10
68.7135
 20
-44.1183
 11
68.8145
 21
-44.2774
  0
LINE
  8
0
 10
68.8145
 20
-44.2774
 11
68.8947
 21
-44.4478
  0
LINE
  8
0
 10
68.8947
 20
-44.4478
 11
68.9529
 21
-44.627
  0
LINE
  8
0
 10
68.9529
 20
-44.627
 11
68.9882
 21
-44.812
  0
LINE
  8
0
 10
68.9882
 20
-44.812
 11
69
 21
-45
  0
LINE
  8
0
 10
69
 20
-45
 11
68.9882
 21
-45.188
  0
LINE
  8
0
 10
68.9882
 20
-45.188
 11
68.9529
 21
-45.373
  0
LINE
  8
0
 10
68.9529
 20
-45.373
 11
68.8947
 21
-45.5522
  0
LINE
  8
0
 10
68.8947
 20
-45.5522
 11
68.8145
 21
-45.7226
  0
LINE
  8
0
 10
68.8145
 20
-45.7226
 11
68.7135
 21
-45.8817
  0
LINE
  8
0
 10
68.7135
 20
-45.8817
 11
68.5934
 21
-46.0268
  0
LINE
  8
0
 10
68.5934
 20
-46.0268
 11
68.4561
 21
-46.1558
  0
LINE
  8
0
 10
68.4561
 20
-46.1558
 11
68.3037
 21
-46.2665
  0
LINE
  8
0
 10
68.3037
 20
-46.2665
 11
68.1387
 21
-46.3572
  0
LINE
  8
0
 10
68.1387
 20
-46.3572
 11
67.9635
 21
-46.4266
  0
LINE
  8
0
 10
67.9635
 20
-46.4266
 11
67.7811
 21
-46.4734
  0
LINE
  8
0
 10
67.7811
 20
-46.4734
 11
67.5942
 21
-46.497
  0
LINE
  8
0
 10
67.5942
 20
-46.497
 11
67.4058
 21
-46.497
  0
LINE
  8
0
 10
52.4058
 20
-46.497
 11
52.2189
 21
-46.4734
  0
LINE
  8
0
 10
52.2189
 20
-46.4734
 11
52.0365
 21
-46.4266
  0
LINE
  8
0
 10
52.0365
 20
-46.4266
 11
51.8613
 21
-46.3572
  0
LINE
  8
0
 10
51.8613
 20
-46.3572
 11
51.6963
 21
-46.2665
  0
LINE
  8
0
 10
51.6963
 20
-46.2665
 11
51.5439
 21
-46.1558
  0
LINE
  8
0
 10
51.5439
 20
-46.1558
 11
51.4065
 21
-46.0268
  0
LINE
  8
0
 10
51.4065
 20
-46.0268
 11
51.2865
 21
-45.8817
  0
LINE
  8
0
 10
51.2865
 20
-45.8817
 11
51.1855
 21
-45.7226
  0
LINE
  8
0
 10
51.1855
 20
-45.7226
 11
51.1053
 21
-45.5522
  0
LINE
  8
0
 10
51.1053
 20
-45.5522
 11
51.0471
 21
-45.373
  0
LINE
  8
0
 10
51.0471
 20
-45.373
 11
51.0118
 21
-45.188
  0
LINE
  8
0
 10
51.0118
 20
-45.188
 11
51
 21
-45
  0
LINE
  8
0
 10
51
 20
-45
 11
51.0118
 21
-44.812
  0
LINE
  8
0
 10
51.0118
 20
-44.812
 11
51.0471
 21
-44.627
  0
LINE
  8
0
 10
51.0471
 20
-44.627
 11
51.1053
 21
-44.4478
  0
LINE
  8
0
 10
51.1053
 20
-44.4478
 11
51.1855
 21
-44.2774
  0
LINE
  8
0
 10
51.1855
 20
-44.2774
 11
51.2865
 21
-44.1183
  0
LINE
  8
0
 10
51.2865
 20
-44.1183
 11
51.4065
 21
-43.9732
  0
LINE
  8
0
 10
51.4065
 20
-43.9732
 11
51.5439
 21
-43.8442
  0
LINE
  8
0
 10
51.5439
 20
-43.8442
 11
51.6963
 21
-43.7335
  0
LINE
  8
0
 10
51.6963
 20
-43.7335
 11
51.8613
 21
-43.6428
  0
LINE
  8
0
 10
51.8613
 20
-43.6428
 11
52.0365
 21
-43.5734
  0
LINE
  8
0
 10
52.0365
 20
-43.5734
 11
52.2189
 21
-43.5266
  0
LINE
  8
0
 10
52.2189
 20
-43.5266
 11
52.4058
 21
-43.503
  0
LINE
  8
0
 10
52.4058
 20
-43.503
 11
52.5942
 21
-43.503
  0
LINE
  8
0
 10
52.5942
 20
-43.503
 11
52.7811
 21
-43.5266
  0
LINE
  8
0
 10
52.7811
 20
-43.5266
 11
52.9635
 21
-43.5734
  0
LINE
  8
0
 10
52.9635
 20
-43.5734
 11
53.1387
 21
-43.6428
  0
LINE
  8
0
 10
53.1387
 20
-43.6428
 11
53.3037
 21
-43.7335
  0
LINE
  8
0
 10
53.3037
 20
-43.7335
 11
53.4561
 21
-43.8442
  0
LINE
  8
0
 10
53.4561
 20
-43.8442
 11
53.5934
 21
-43.9732
  0
LINE
  8
0
 10
53.5934
 20
-43.9732
 11
53.7135
 21
-44.1183
  0
LINE
  8
0
 10
53.7135
 20
-44.1183
 11
53.8145
 21
-44.2774
  0
LINE
  8
0
 10
53.8145
 20
-44.2774
 11
53.8947
 21
-44.4478
  0
LINE
  8
0
 10
53.8947
 20
-44.4478
 11
53.9529
 21
-44.627
  0
LINE
  8
0
 10
53.9529
 20
-44.627
 11
53.9882
 21
-44.812
  0
LINE
  8
0
 10
53.9882
 20
-44.812
 11
54
 21
-45
  0
LINE
  8
0
 10
54
 20
-45
 11
53.9882
 21
-45.188
  0
LINE
  8
0
 10
53.9882
 20
-45.188
 11
53.9529
 21
-45.373
  0
LINE
  8
0
 10
53.9529
 20
-45.373
 11
53.8947
 21
-45.5522
  0
LINE
  8
0
 10
53.8947
 20
-45.5522
 11
53.8145
 21
-45.7226
  0
LINE
  8
0
 10
53.8145
 20
-45.7226
 11
53.7135
 21
-45.8817
  0
LINE
  8
0
 10
53.7135
 20
-45.8817
 11
53.5934
 21
-46.0268
  0
LINE
  8
0
 10
53.5934
 20
-46.0268
 11
53.4561
 21
-46.1558
  0
LINE
  8
0
 10
53.4561
 20
-46.1558
 11
53.3037
 21
-46.2665
  0
LINE
  8
0
 10
53.3037
 20
-46.2665
 11
53.1387
 21
-46.3572
  0
LINE
  8
0
 10
53.1387
 20
-46.3572
 11
52.9635
 21
-46.4266
  0
LINE
  8
0
 10
52.9635
 20
-46.4266
 11
52.7811
 21
-46.4734
  0
LINE
  8
0
 10
52.7811
 20
-46.4734
 11
52.5942
 21
-46.497
  0
LINE
  8
0
 10
52.5942
 20
-46.497
 11
52.4058
 21
-46.497
  0
LINE
  8
0
 10
22.4058
 20
-46.497
 11
22.2189
 21
-46.4734
  0
LINE
  8
0
 10
22.2189
 20
-46.4734
 11
22.0365
 21
-46.4266
  0
LINE
  8
0
 10
22.0365
 20
-46.4266
 11
21.8613
 21
-46.3572
  0
LINE
  8
0
 10
21.8613
 20
-46.3572
 11
21.6963
 21
-46.2665
  0
LINE
  8
0
 10
21.6963
 20
-46.2665
 11
21.5439
 21
-46.1558
  0
LINE
  8
0
 10
21.5439
 20
-46.1558
 11
21.4065
 21
-46.0268
  0
LINE
  8
0
 10
21.4065
 20
-46.0268
 11
21.2865
 21
-45.8817
  0
LINE
  8
0
 10
21.2865
 20
-45.8817
 11
21.1855
 21
-45.7226
  0
LINE
  8
0
 10
21.1855
 20
-45.7226
 11
21.1053
 21
-45.5522
  0
LINE
  8
0
 10
21.1053
 20
-45.5522
 11
21.0471
 21
-45.373
  0
LINE
  8
0
 10
21.0471
 20
-45.373
 11
21.0118
 21
-45.188
  0
LINE
  8
0
 10
21.0118
 20
-45.188
 11
21
 21
-45
  0
LINE
  8
0
 10
21
 20
-45
 11
21.0118
 21
-44.812
  0
LINE
  8
0
 10
21.0118
 20
-44.812
 11
21.0471
 21
-44.627
  0
LINE
  8
0
 10
21.0471
 20
-44.627
 11
21.1053
 21
-44.4478
  0
LINE
  8
0
 10
21.1053
 20
-44.4478
 11
21.1855
 21
-44.2774
  0
LINE
  8
0
 10
21.1855
 20
-44.2774
 11
21.2865
 21
-44.1183
  0
LINE
  8
0
 10
21.2865
 20
-44.1183
 11
21.4065
 21
-43.9732
  0
LINE
  8
0
 10
21.4065
 20
-43.9732
 11
21.5439
 21
-43.8442
  0
LINE
  8
0
 10
21.5439
 20
-43.8442
 11
21.6963
 21
-43.7335
  0
LINE
  8
0
 10
21.6963
 20
-43.7335
 11
21.8613
 21
-43.6428
  0
LINE
  8
0
 10
21.8613
 20
-43.6428
 11
22.0365
 21
-43.5734
  0
LINE
  8
0
 10
22.0365
 20
-43.5734
 11
22.2189
 21
-43.5266
  0
LINE
  8
0
 10
22.2189
 20
-43.5266
 11
22.4058
 21
-43.503
  0
LINE
  8
0
 10
22.4058
 20
-43.503
 11
22.5942
 21
-43.503
  0
LINE
  8
0
 10
22.5942
 20
-43.503
 11
22.7811
 21
-43.5266
  0
LINE
  8
0
 10
22.7811
 20
-43.5266
 11
22.9635
 21
-43.5734
  0
LINE
  8
0
 10
22.9635
 20
-43.5734
 11
23.1387
 21
-43.6428
  0
LINE
  8
0
 10
23.1387
 20
-43.6428
 11
23.3037
 21
-43.7335
  0
LINE
  8
0
 10
23.3037
 20
-43.7335
 11
23.4561
 21
-43.8442
  0
LINE
  8
0
 10
23.4561
 20
-43.8442
 11
23.5934
 21
-43.9732
  0
LINE
  8
0
 10
23.5934
 20
-43.9732
 11
23.7135
 21
-44.1183
  0
LINE
  8
0
 10
23.7135
 20
-44.1183
 11
23.8145
 21
-44.2774
  0
LINE
  8
0
 10
23.8145
 20
-44.2774
 11
23.8947
 21
-44.4478
  0
LINE
  8
0
 10
23.8947
 20
-44.4478
 11
23.9529
 21
-44.627
  0
LINE
  8
0
 10
23.9529
 20
-44.627
 11
23.9882
 21
-44.812
  0
LINE
  8
0
 10
23.9882
 20
-44.812
 11
24
 21
-45
  0
LINE
  8
0
 10
24
 20
-45
 11
23.9882
 21
-45.188
  0
LINE
  8
0
 10
23.9882
 20
-45.188
 11
23.9529
 21
-45.373
  0
LINE
  8
0
 10
23.9529
 20
-45.373
 11
23.8947
 21
-45.5522
  0
LINE
  8
0
 10
23.8947
 20
-45.5522
 11
23.8145
 21
-45.7226
  0
LINE
  8
0
 10
23.8145
 20
-45.7226
 11
23.7135
 21
-45.8817
  0
LINE
  8
0
 10
23.7135
 20
-45.8817
 11
23.5934
 21
-46.0268
  0
LINE
  8
0
 10
23.5934
 20
-46.0268
 11
23.4561
 21
-46.1558
  0
LINE
  8
0
 10
23.4561
 20
-46.1558
 11
23.3037
 21
-46.2665
  0
LINE
  8
0
 10
23.3037
 20
-46.2665
 11
23.1387
 21
-46.3572
  0
LINE
  8
0
 10
23.1387
 20
-46.3572
 11
22.9635
 21
-46.4266
  0
LINE
  8
0
 10
22.9635
 20
-46.4266
 11
22.7811
 21
-46.4734
  0
LINE
  8
0
 10
22.7811
 20
-46.4734
 11
22.5942
 21
-46.497
  0
LINE
  8
0
 10
22.5942
 20
-46.497
 11
22.4058
 21
-46.497
  0
LINE
  8
0
 10
7.40581
 20
-46.497
 11
7.21892
 21
-46.4734
  0
LINE
  8
0
 10
7.21892
 20
-46.4734
 11
7.03647
 21
-46.4266
  0
LINE
  8
0
 10
7.03647
 20
-46.4266
 11
6.86133
 21
-46.3572
  0
LINE
  8
0
 10
6.86133
 20
-46.3572
 11
6.69626
 21
-46.2665
  0
LINE
  8
0
 10
6.69626
 20
-46.2665
 11
6.54385
 21
-46.1558
  0
LINE
  8
0
 10
6.54385
 20
-46.1558
 11
6.40654
 21
-46.0268
  0
LINE
  8
0
 10
6.40654
 20
-46.0268
 11
6.28647
 21
-45.8817
  0
LINE
  8
0
 10
6.28647
 20
-45.8817
 11
6.18553
 21
-45.7226
  0
LINE
  8
0
 10
6.18553
 20
-45.7226
 11
6.10533
 21
-45.5522
  0
LINE
  8
0
 10
6.10533
 20
-45.5522
 11
6.04712
 21
-45.373
  0
LINE
  8
0
 10
6.04712
 20
-45.373
 11
6.01183
 21
-45.188
  0
LINE
  8
0
 10
6.01183
 20
-45.188
 11
6
 21
-45
  0
LINE
  8
0
 10
6
 20
-45
 11
6.01183
 21
-44.812
  0
LINE
  8
0
 10
6.01183
 20
-44.812
 11
6.04712
 21
-44.627
  0
LINE
  8
0
 10
6.04712
 20
-44.627
 11
6.10533
 21
-44.4478
  0
LINE
  8
0
 10
6.10533
 20
-44.4478
 11
6.18553
 21
-44.2774
  0
LINE
  8
0
 10
6.18553
 20
-44.2774
 11
6.28647
 21
-44.1183
  0
LINE
  8
0
 10
6.28647
 20
-44.1183
 11
6.40654
 21
-43.9732
  0
LINE
  8
0
 10
6.40654
 20
-43.9732
 11
6.54385
 21
-43.8442
  0
LINE
  8
0
 10
6.54385
 20
-43.8442
 11
6.69626
 21
-43.7335
  0
LINE
  8
0
 10
6.69626
 20
-43.7335
 11
6.86133
 21
-43.6428
  0
LINE
  8
0
 10
6.86133
 20
-43.6428
 11
7.03647
 21
-43.5734
  0
LINE
  8
0
 10
7.03647
 20
-43.5734
 11
7.21892
 21
-43.5266
  0
LINE
  8
0
 10
7.21892
 20
-43.5266
 11
7.40581
 21
-43.503
  0
LINE
  8
0
 10
7.40581
 20
-43.503
 11
7.59418
 21
-43.503
  0
LINE
  8
0
 10
7.59418
 20
-43.503
 11
7.78107
 21
-43.5266
  0
LINE
  8
0
 10
7.78107
 20
-43.5266
 11
7.96352
 21
-43.5734
  0
LINE
  8
0
 10
7.96352
 20
-43.5734
 11
8.13866
 21
-43.6428
  0
LINE
  8
0
 10
8.13866
 20
-43.6428
 11
8.30373
 21
-43.7335
  0
LINE
  8
0
 10
8.30373
 20
-43.7335
 11
8.45613
 21
-43.8442
  0
LINE
  8
0
 10
8.45613
 20
-43.8442
 11
8.59344
 21
-43.9732
  0
LINE
  8
0
 10
8.59344
 20
-43.9732
 11
8.71352
 21
-44.1183
  0
LINE
  8
0
 10
8.71352
 20
-44.1183
 11
8.81445
 21
-44.2774
  0
LINE
  8
0
 10
8.81445
 20
-44.2774
 11
8.89465
 21
-44.4478
  0
LINE
  8
0
 10
8.89465
 20
-44.4478
 11
8.95287
 21
-44.627
  0
LINE
  8
0
 10
8.95287
 20
-44.627
 11
8.98816
 21
-44.812
  0
LINE
  8
0
 10
8.98816
 20
-44.812
 11
9
 21
-45
  0
LINE
  8
0
 10
9
 20
-45
 11
8.98816
 21
-45.188
  0
LINE
  8
0
 10
8.98816
 20
-45.188
 11
8.95287
 21
-45.373
  0
LINE
  8
0
 10
8.95287
 20
-45.373
 11
8.89465
 21
-45.5522
  0
LINE
  8
0
 10
8.89465
 20
-45.5522
 11
8.81445
 21
-45.7226
  0
LINE
  8
0
 10
8.81445
 20
-45.7226
 11
8.71352
 21
-45.8817
  0
LINE
  8
0
 10
8.71352
 20
-45.8817
 11
8.59344
 21
-46.0268
  0
LINE
  8
0
 10
8.59344
 20
-46.0268
 11
8.45613
 21
-46.1558
  0
LINE
  8
0
 10
8.45613
 20
-46.1558
 11
8.30373
 21
-46.2665
  0
LINE
  8
0
 10
8.30373
 20
-46.2665
 11
8.13866
 21
-46.3572
  0
LINE
  8
0
 10
8.13866
 20
-46.3572
 11
7.96352
 21
-46.4266
  0
LINE
  8
0
 10
7.96352
 20
-46.4266
 11
7.78107
 21
-46.4734
  0
LINE
  8
0
 10
7.78107
 20
-46.4734
 11
7.59418
 21
-46.497
  0
LINE
  8
0
 10
7.59418
 20
-46.497
 11
7.40581
 21
-46.497
  0
LINE
  8
0
 10
-52.5942
 20
-46.497
 11
-52.7811
 21
-46.4734
  0
LINE
  8
0
 10
-52.7811
 20
-46.4734
 11
-52.9635
 21
-46.4266
  0
LINE
  8
0
 10
-52.9635
 20
-46.4266
 11
-53.1387
 21
-46.3572
  0
LINE
  8
0
 10
-53.1387
 20
-46.3572
 11
-53.3037
 21
-46.2665
  0
LINE
  8
0
 10
-53.3037
 20
-46.2665
 11
-53.4561
 21
-46.1558
  0
LINE
  8
0
 10
-53.4561
 20
-46.1558
 11
-53.5934
 21
-46.0268
  0
LINE
  8
0
 10
-53.5934
 20
-46.0268
 11
-53.7135
 21
-45.8817
  0
LINE
  8
0
 10
-53.7135
 20
-45.8817
 11
-53.8145
 21
-45.7226
  0
LINE
  8
0
 10
-53.8145
 20
-45.7226
 11
-53.8947
 21
-45.5522
  0
LINE
  8
0
 10
-53.8947
 20
-45.5522
 11
-53.9529
 21
-45.373
  0
LINE
  8
0
 10
-53.9529
 20
-45.373
 11
-53.9882
 21
-45.188
  0
LINE
  8
0
 10
-53.9882
 20
-45.188
 11
-54
 21
-45
  0
LINE
  8
0
 10
-54
 20
-45
 11
-53.9882
 21
-44.812
  0
LINE
  8
0
 10
-53.9882
 20
-44.812
 11
-53.9529
 21
-44.627
  0
LINE
  8
0
 10
-53.9529
 20
-44.627
 11
-53.8947
 21
-44.4478
  0
LINE
  8
0
 10
-53.8947
 20
-44.4478
 11
-53.8145
 21
-44.2774
  0
LINE
  8
0
 10
-53.8145
 20
-44.2774
 11
-53.7135
 21
-44.1183
  0
LINE
  8
0
 10
-53.7135
 20
-44.1183
 11
-53.5934
 21
-43.9732
  0
LINE
  8
0
 10
-53.5934
 20
-43.9732
 11
-53.4561
 21
-43.8442
  0
LINE
  8
0
 10
-53.4561
 20
-43.8442
 11
-53.3037
 21
-43.7335
  0
LINE
  8
0
 10
-53.3037
 20
-43.7335
 11
-53.1387
 21
-43.6428
  0
LINE
  8
0
 10
-53.1387
 20
-43.6428
 11
-52.9635
 21
-43.5734
  0
LINE
  8
0
 10
-52.9635
 20
-43.5734
 11
-52.7811
 21
-43.5266
  0
LINE
  8
0
 10
-52.7811
 20
-43.5266
 11
-52.5942
 21
-43.503
  0
LINE
  8
0
 10
-52.5942
 20
-43.503
 11
-52.4058
 21
-43.503
  0
LINE
  8
0
 10
-52.4058
 20
-43.503
 11
-52.2189
 21
-43.5266
  0
LINE
  8
0
 10
-52.2189
 20
-43.5266
 11
-52.0365
 21
-43.5734
  0
LINE
  8
0
 10
-52.0365
 20
-43.5734
 11
-51.8613
 21
-43.6428
  0
LINE
  8
0
 10
-51.8613
 20
-43.6428
 11
-51.6963
 21
-43.7335
  0
LINE
  8
0
 10
-51.6963
 20
-43.7335
 11
-51.5439
 21
-43.8442
  0
LINE
  8
0
 10
-51.5439
 20
-43.8442
 11
-51.4065
 21
-43.9732
  0
LINE
  8
0
 10
-51.4065
 20
-43.9732
 11
-51.2865
 21
-44.1183
  0
LINE
  8
0
 10
-51.2865
 20
-44.1183
 11
-51.1855
 21
-44.2774
  0
LINE
  8
0
 10
-51.1855
 20
-44.2774
 11
-51.1053
 21
-44.4478
  0
LINE
  8
0
 10
-51.1053
 20
-44.4478
 11
-51.0471
 21
-44.627
  0
LINE
  8
0
 10
-51.0471
 20
-44.627
 11
-51.0118
 21
-44.812
  0
LINE
  8
0
 10
-51.0118
 20
-44.812
 11
-51
 21
-45
  0
LINE
  8
0
 10
-51
 20
-45
 11
-51.0118
 21
-45.188
  0
LINE
  8
0
 10
-51.0118
 20
-45.188
 11
-51.0471
 21
-45.373
  0
LINE
  8
0
 10
-51.0471
 20
-45.373
 11
-51.1053
 21
-45.5522
  0
LINE
  8
0
 10
-51.1053
 20
-45.5522
 11
-51.1855
 21
-45.7226
  0
LINE
  8
0
 10
-51.1855
 20
-45.7226
 11
-51.2865
 21
-45.8817
  0
LINE
  8
0
 10
-51.2865
 20
-45.8817
 11
-51.4065
 21
-46.0268
  0
LINE
  8
0
 10
-51.4065
 20
-46.0268
 11
-51.5439
 21
-46.1558
  0
LINE
  8
0
 10
-51.5439
 20
-46.1558
 11
-51.6963
 21
-46.2665
  0
LINE
  8
0
 10
-51.6963
 20
-46.2665
 11
-51.8613
 21
-46.3572
  0
LINE
  8
0
 10
-51.8613
 20
-46.3572
 11
-52.0365
 21
-46.4266
  0
LINE
  8
0
 10
-52.0365
 20
-46.4266
 11
-52.2189
 21
-46.4734
  0
LINE
  8
0
 10
-52.2189
 20
-46.4734
 11
-52.4058
 21
-46.497
  0
LINE
  8
0
 10
-52.4058
 20
-46.497
 11
-52.5942
 21
-46.497
  0
LINE
  8
0
 10
-67.5942
 20
-46.497
 11
-67.7811
 21
-46.4734
  0
LINE
  8
0
 10
-67.7811
 20
-46.4734
 11
-67.9635
 21
-46.4266
  0
LINE
  8
0
 10
-67.9635
 20
-46.4266
 11
-68.1387
 21
-46.3572
  0
LINE
  8
0
 10
-68.1387
 20
-46.3572
 11
-68.3037
 21
-46.2665
  0
LINE
  8
0
 10
-68.3037
 20
-46.2665
 11
-68.4561
 21
-46.1558
  0
LINE
  8
0
 10
-68.4561
 20
-46.1558
 11
-68.5934
 21
-46.0268
  0
LINE
  8
0
 10
-68.5934
 20
-46.0268
 11
-68.7135
 21
-45.8817
  0
LINE
  8
0
 10
-68.7135
 20
-45.8817
 11
-68.8145
 21
-45.7226
  0
LINE
  8
0
 10
-68.8145
 20
-45.7226
 11
-68.8947
 21
-45.5522
  0
LINE
  8
0
 10
-68.8947
 20
-45.5522
 11
-68.9529
 21
-45.373
  0
LINE
  8
0
 10
-68.9529
 20
-45.373
 11
-68.9882
 21
-45.188
  0
LINE
  8
0
 10
-68.9882
 20
-45.188
 11
-69
 21
-45
  0
LINE
  8
0
 10
-69
 20
-45
 11
-68.9882
 21
-44.812
  0
LINE
  8
0
 10
-68.9882
 20
-44.812
 11
-68.9529
 21
-44.627
  0
LINE
  8
0
 10
-68.9529
 20
-44.627
 11
-68.8947
 21
-44.4478
  0
LINE
  8
0
 10
-68.8947
 20
-44.4478
 11
-68.8145
 21
-44.2774
  0
LINE
  8
0
 10
-68.8145
 20
-44.2774
 11
-68.7135
 21
-44.1183
  0
LINE
  8
0
 10
-68.7135
 20
-44.1183
 11
-68.5934
 21
-43.9732
  0
LINE
  8
0
 10
-68.5934
 20
-43.9732
 11
-68.4561
 21
-43.8442
  0
LINE
  8
0
 10
-68.4561
 20
-43.8442
 11
-68.3037
 21
-43.7335
  0
LINE
  8
0
 10
-68.3037
 20
-43.7335
 11
-68.1387
 21
-43.6428
  0
LINE
  8
0
 10
-68.1387
 20
-43.6428
 11
-67.9635
 21
-43.5734
  0
LINE
  8
0
 10
-67.9635
 20
-43.5734
 11
-67.7811
 21
-43.5266
  0
LINE
  8
0
 10
-67.7811
 20
-43.5266
 11
-67.5942
 21
-43.503
  0
LINE
  8
0
 10
-67.5942
 20
-43.503
 11
-67.4058
 21
-43.503
  0
LINE
  8
0
 10
-67.4058
 20
-43.503
 11
-67.2189
 21
-43.5266
  0
LINE
  8
0
 10
-67.2189
 20
-43.5266
 11
-67.0365
 21
-43.5734
  0
LINE
  8
0
 10
-67.0365
 20
-43.5734
 11
-66.8613
 21
-43.6428
  0
LINE
  8
0
 10
-66.8613
 20
-43.6428
 11
-66.6963
 21
-43.7335
  0
LINE
  8
0
 10
-66.6963
 20
-43.7335
 11
-66.5439
 21
-43.8442
  0
LINE
  8
0
 10
-66.5439
 20
-43.8442
 11
-66.4065
 21
-43.9732
  0
LINE
  8
0
 10
-66.4065
 20
-43.9732
 11
-66.2865
 21
-44.1183
  0
LINE
  8
0
 10
-66.2865
 20
-44.1183
 11
-66.1855
 21
-44.2774
  0
LINE
  8
0
 10
-66.1855
 20
-44.2774
 11
-66.1053
 21
-44.4478
  0
LINE
  8
0
 10
-66.1053
 20
-44.4478
 11
-66.0471
 21
-44.627
  0
LINE
  8
0
 10
-66.0471
 20
-44.627
 11
-66.0118
 21
-44.812
  0
LINE
  8
0
 10
-66.0118
 20
-44.812
 11
-66
 21
-45
  0
LINE
  8
0
 10
-66
 20
-45
 11
-66.0118
 21
-45.188
  0
LINE
  8
0
 10
-66.0118
 20
-45.188
 11
-66.0471
 21
-45.373
  0
LINE
  8
0
 10
-66.0471
 20
-45.373
 11
-66.1053
 21
-45.5522
  0
LINE
  8
0
 10
-66.1053
 20
-45.5522
 11
-66.1855
 21
-45.7226
  0
LINE
  8
0
 10
-66.1855
 20
-45.7226
 11
-66.2865
 21
-45.8817
  0
LINE
  8
0
 10
-66.2865
 20
-45.8817
 11
-66.4065
 21
-46.0268
  0
LINE
  8
0
 10
-66.4065
 20
-46.0268
 11
-66.5439
 21
-46.1558
  0
LINE
  8
0
 10
-66.5439
 20
-46.1558
 11
-66.6963
 21
-46.2665
  0
LINE
  8
0
 10
-66.6963
 20
-46.2665
 11
-66.8613
 21
-46.3572
  0
LINE
  8
0
 10
-66.8613
 20
-46.3572
 11
-67.0365
 21
-46.4266
  0
LINE
  8
0
 10
-67.0365
 20
-46.4266
 11
-67.2189
 21
-46.4734
  0
LINE
  8
0
 10
-67.2189
 20
-46.4734
 11
-67.4058
 21
-46.497
  0
LINE
  8
0
 10
-67.4058
 20
-46.497
 11
-67.5942
 21
-46.497
  0
LINE
  8
0
 10
37.4058
 20
-46.497
 11
37.2189
 21
-46.4734
  0
LINE
  8
0
 10
37.2189
 20
-46.4734
 11
37.0365
 21
-46.4266
  0
LINE
  8
0
 10
37.0365
 20
-46.4266
 11
36.8613
 21
-46.3572
  0
LINE
  8
0
 10
36.8613
 20
-46.3572
 11
36.6963
 21
-46.2665
  0
LINE
  8
0
 10
36.6963
 20
-46.2665
 11
36.5439
 21
-46.1558
  0
LINE
  8
0
 10
36.5439
 20
-46.1558
 11
36.4065
 21
-46.0268
  0
LINE
  8
0
 10
36.4065
 20
-46.0268
 11
36.2865
 21
-45.8817
  0
LINE
  8
0
 10
36.2865
 20
-45.8817
 11
36.1855
 21
-45.7226
  0
LINE
  8
0
 10
36.1855
 20
-45.7226
 11
36.1053
 21
-45.5522
  0
LINE
  8
0
 10
36.1053
 20
-45.5522
 11
36.0471
 21
-45.373
  0
LINE
  8
0
 10
36.0471
 20
-45.373
 11
36.0118
 21
-45.188
  0
LINE
  8
0
 10
36.0118
 20
-45.188
 11
36
 21
-45
  0
LINE
  8
0
 10
36
 20
-45
 11
36.0118
 21
-44.812
  0
LINE
  8
0
 10
36.0118
 20
-44.812
 11
36.0471
 21
-44.627
  0
LINE
  8
0
 10
36.0471
 20
-44.627
 11
36.1053
 21
-44.4478
  0
LINE
  8
0
 10
36.1053
 20
-44.4478
 11
36.1855
 21
-44.2774
  0
LINE
  8
0
 10
36.1855
 20
-44.2774
 11
36.2865
 21
-44.1183
  0
LINE
  8
0
 10
36.2865
 20
-44.1183
 11
36.4065
 21
-43.9732
  0
LINE
  8
0
 10
36.4065
 20
-43.9732
 11
36.5439
 21
-43.8442
  0
LINE
  8
0
 10
36.5439
 20
-43.8442
 11
36.6963
 21
-43.7335
  0
LINE
  8
0
 10
36.6963
 20
-43.7335
 11
36.8613
 21
-43.6428
  0
LINE
  8
0
 10
36.8613
 20
-43.6428
 11
37.0365
 21
-43.5734
  0
LINE
  8
0
 10
37.0365
 20
-43.5734
 11
37.2189
 21
-43.5266
  0
LINE
  8
0
 10
37.2189
 20
-43.5266
 11
37.4058
 21
-43.503
  0
LINE
  8
0
 10
37.4058
 20
-43.503
 11
37.5942
 21
-43.503
  0
LINE
  8
0
 10
37.5942
 20
-43.503
 11
37.7811
 21
-43.5266
  0
LINE
  8
0
 10
37.7811
 20
-43.5266
 11
37.9635
 21
-43.5734
  0
LINE
  8
0
 10
37.9635
 20
-43.5734
 11
38.1387
 21
-43.6428
  0
LINE
  8
0
 10
38.1387
 20
-43.6428
 11
38.3037
 21
-43.7335
  0
LINE
  8
0
 10
38.3037
 20
-43.7335
 11
38.4561
 21
-43.8442
  0
LINE
  8
0
 10
38.4561
 20
-43.8442
 11
38.5934
 21
-43.9732
  0
LINE
  8
0
 10
38.5934
 20
-43.9732
 11
38.7135
 21
-44.1183
  0
LINE
  8
0
 10
38.7135
 20
-44.1183
 11
38.8145
 21
-44.2774
  0
LINE
  8
0
 10
38.8145
 20
-44.2774
 11
38.8947
 21
-44.4478
  0
LINE
  8
0
 10
38.8947
 20
-44.4478
 11
38.9529
 21
-44.627
  0
LINE
  8
0
 10
38.9529
 20
-44.627
 11
38.9882
 21
-44.812
  0
LINE
  8
0
 10
38.9882
 20
-44.812
 11
39
 21
-45
  0
LINE
  8
0
 10
39
 20
-45
 11
38.9882
 21
-45.188
  0
LINE
  8
0
 10
38.9882
 20
-45.188
 11
38.9529
 21
-45.373
  0
LINE
  8
0
 10
38.9529
 20
-45.373
 11
38.8947
 21
-45.5522
  0
LINE
  8
0
 10
38.8947
 20
-45.5522
 11
38.8145
 21
-45.7226
  0
LINE
  8
0
 10
38.8145
 20
-45.7226
 11
38.7135
 21
-45.8817
  0
LINE
  8
0
 10
38.7135
 20
-45.8817
 11
38.5934
 21
-46.0268
  0
LINE
  8
0
 10
38.5934
 20
-46.0268
 11
38.4561
 21
-46.1558
  0
LINE
  8
0
 10
38.4561
 20
-46.1558
 11
38.3037
 21
-46.2665
  0
LINE
  8
0
 10
38.3037
 20
-46.2665
 11
38.1387
 21
-46.3572
  0
LINE
  8
0
 10
38.1387
 20
-46.3572
 11
37.9635
 21
-46.4266
  0
LINE
  8
0
 10
37.9635
 20
-46.4266
 11
37.7811
 21
-46.4734
  0
LINE
  8
0
 10
37.7811
 20
-46.4734
 11
37.5942
 21
-46.497
  0
LINE
  8
0
 10
37.5942
 20
-46.497
 11
37.4058
 21
-46.497
  0
LINE
  8
0
 10
-22.5942
 20
-46.497
 11
-22.7811
 21
-46.4734
  0
LINE
  8
0
 10
-22.7811
 20
-46.4734
 11
-22.9635
 21
-46.4266
  0
LINE
  8
0
 10
-22.9635
 20
-46.4266
 11
-23.1387
 21
-46.3572
  0
LINE
  8
0
 10
-23.1387
 20
-46.3572
 11
-23.3037
 21
-46.2665
  0
LINE
  8
0
 10
-23.3037
 20
-46.2665
 11
-23.4561
 21
-46.1558
  0
LINE
  8
0
 10
-23.4561
 20
-46.1558
 11
-23.5934
 21
-46.0268
  0
LINE
  8
0
 10
-23.5934
 20
-46.0268
 11
-23.7135
 21
-45.8817
  0
LINE
  8
0
 10
-23.7135
 20
-45.8817
 11
-23.8145
 21
-45.7226
  0
LINE
  8
0
 10
-23.8145
 20
-45.7226
 11
-23.8947
 21
-45.5522
  0
LINE
  8
0
 10
-23.8947
 20
-45.5522
 11
-23.9529
 21
-45.373
  0
LINE
  8
0
 10
-23.9529
 20
-45.373
 11
-23.9882
 21
-45.188
  0
LINE
  8
0
 10
-23.9882
 20
-45.188
 11
-24
 21
-45
  0
LINE
  8
0
 10
-24
 20
-45
 11
-23.9882
 21
-44.812
  0
LINE
  8
0
 10
-23.9882
 20
-44.812
 11
-23.9529
 21
-44.627
  0
LINE
  8
0
 10
-23.9529
 20
-44.627
 11
-23.8947
 21
-44.4478
  0
LINE
  8
0
 10
-23.8947
 20
-44.4478
 11
-23.8145
 21
-44.2774
  0
LINE
  8
0
 10
-23.8145
 20
-44.2774
 11
-23.7135
 21
-44.1183
  0
LINE
  8
0
 10
-23.7135
 20
-44.1183
 11
-23.5934
 21
-43.9732
  0
LINE
  8
0
 10
-23.5934
 20
-43.9732
 11
-23.4561
 21
-43.8442
  0
LINE
  8
0
 10
-23.4561
 20
-43.8442
 11
-23.3037
 21
-43.7335
  0
LINE
  8
0
 10
-23.3037
 20
-43.7335
 11
-23.1387
 21
-43.6428
  0
LINE
  8
0
 10
-23.1387
 20
-43.6428
 11
-22.9635
 21
-43.5734
  0
LINE
  8
0
 10
-22.9635
 20
-43.5734
 11
-22.7811
 21
-43.5266
  0
LINE
  8
0
 10
-22.7811
 20
-43.5266
 11
-22.5942
 21
-43.503
  0
LINE
  8
0
 10
-22.5942
 20
-43.503
 11
-22.4058
 21
-43.503
  0
LINE
  8
0
 10
-22.4058
 20
-43.503
 11
-22.2189
 21
-43.5266
  0
LINE
  8
0
 10
-22.2189
 20
-43.5266
 11
-22.0365
 21
-43.5734
  0
LINE
  8
0
 10
-22.0365
 20
-43.5734
 11
-21.8613
 21
-43.6428
  0
LINE
  8
0
 10
-21.8613
 20
-43.6428
 11
-21.6963
 21
-43.7335
  0
LINE
  8
0
 10
-21.6963
 20
-43.7335
 11
-21.5439
 21
-43.8442
  0
LINE
  8
0
 10
-21.5439
 20
-43.8442
 11
-21.4065
 21
-43.9732
  0
LINE
  8
0
 10
-21.4065
 20
-43.9732
 11
-21.2865
 21
-44.1183
  0
LINE
  8
0
 10
-21.2865
 20
-44.1183
 11
-21.1855
 21
-44.2774
  0
LINE
  8
0
 10
-21.1855
 20
-44.2774
 11
-21.1053
 21
-44.4478
  0
LINE
  8
0
 10
-21.1053
 20
-44.4478
 11
-21.0471
 21
-44.627
  0
LINE
  8
0
 10
-21.0471
 20
-44.627
 11
-21.0118
 21
-44.812
  0
LINE
  8
0
 10
-21.0118
 20
-44.812
 11
-21
 21
-45
  0
LINE
  8
0
 10
-21
 20
-45
 11
-21.0118
 21
-45.188
  0
LINE
  8
0
 10
-21.0118
 20
-45.188
 11
-21.0471
 21
-45.373
  0
LINE
  8
0
 10
-21.0471
 20
-45.373
 11
-21.1053
 21
-45.5522
  0
LINE
  8
0
 10
-21.1053
 20
-45.5522
 11
-21.1855
 21
-45.7226
  0
LINE
  8
0
 10
-21.1855
 20
-45.7226
 11
-21.2865
 21
-45.8817
  0
LINE
  8
0
 10
-21.2865
 20
-45.8817
 11
-21.4065
 21
-46.0268
  0
LINE
  8
0
 10
-21.4065
 20
-46.0268
 11
-21.5439
 21
-46.1558
  0
LINE
  8
0
 10
-21.5439
 20
-46.1558
 11
-21.6963
 21
-46.2665
  0
LINE
  8
0
 10
-21.6963
 20
-46.2665
 11
-21.8613
 21
-46.3572
  0
LINE
  8
0
 10
-21.8613
 20
-46.3572
 11
-22.0365
 21
-46.4266
  0
LINE
  8
0
 10
-22.0365
 20
-46.4266
 11
-22.2189
 21
-46.4734
  0
LINE
  8
0
 10
-22.2189
 20
-46.4734
 11
-22.4058
 21
-46.497
  0
LINE
  8
0
 10
-22.4058
 20
-46.497
 11
-22.5942
 21
-46.497
  0
LINE
  8
0
 10
-7.59418
 20
-46.497
 11
-7.78107
 21
-46.4734
  0
LINE
  8
0
 10
-7.78107
 20
-46.4734
 11
-7.96352
 21
-46.4266
  0
LINE
  8
0
 10
-7.96352
 20
-46.4266
 11
-8.13866
 21
-46.3572
  0
LINE
  8
0
 10
-8.13866
 20
-46.3572
 11
-8.30373
 21
-46.2665
  0
LINE
  8
0
 10
-8.30373
 20
-46.2665
 11
-8.45613
 21
-46.1558
  0
LINE
  8
0
 10
-8.45613
 20
-46.1558
 11
-8.59344
 21
-46.0268
  0
LINE
  8
0
 10
-8.59344
 20
-46.0268
 11
-8.71352
 21
-45.8817
  0
LINE
  8
0
 10
-8.71352
 20
-45.8817
 11
-8.81445
 21
-45.7226
  0
LINE
  8
0
 10
-8.81445
 20
-45.7226
 11
-8.89465
 21
-45.5522
  0
LINE
  8
0
 10
-8.89465
 20
-45.5522
 11
-8.95287
 21
-45.373
  0
LINE
  8
0
 10
-8.95287
 20
-45.373
 11
-8.98816
 21
-45.188
  0
LINE
  8
0
 10
-8.98816
 20
-45.188
 11
-9
 21
-45
  0
LINE
  8
0
 10
-9
 20
-45
 11
-8.98816
 21
-44.812
  0
LINE
  8
0
 10
-8.98816
 20
-44.812
 11
-8.95287
 21
-44.627
  0
LINE
  8
0
 10
-8.95287
 20
-44.627
 11
-8.89465
 21
-44.4478
  0
LINE
  8
0
 10
-8.89465
 20
-44.4478
 11
-8.81445
 21
-44.2774
  0
LINE
  8
0
 10
-8.81445
 20
-44.2774
 11
-8.71352
 21
-44.1183
  0
LINE
  8
0
 10
-8.71352
 20
-44.1183
 11
-8.59344
 21
-43.9732
  0
LINE
  8
0
 10
-8.59344
 20
-43.9732
 11
-8.45613
 21
-43.8442
  0
LINE
  8
0
 10
-8.45613
 20
-43.8442
 11
-8.30373
 21
-43.7335
  0
LINE
  8
0
 10
-8.30373
 20
-43.7335
 11
-8.13866
 21
-43.6428
  0
LINE
  8
0
 10
-8.13866
 20
-43.6428
 11
-7.96352
 21
-43.5734
  0
LINE
  8
0
 10
-7.96352
 20
-43.5734
 11
-7.78107
 21
-43.5266
  0
LINE
  8
0
 10
-7.78107
 20
-43.5266
 11
-7.59418
 21
-43.503
  0
LINE
  8
0
 10
-7.59418
 20
-43.503
 11
-7.40581
 21
-43.503
  0
LINE
  8
0
 10
-7.40581
 20
-43.503
 11
-7.21892
 21
-43.5266
  0
LINE
  8
0
 10
-7.21892
 20
-43.5266
 11
-7.03647
 21
-43.5734
  0
LINE
  8
0
 10
-7.03647
 20
-43.5734
 11
-6.86133
 21
-43.6428
  0
LINE
  8
0
 10
-6.86133
 20
-43.6428
 11
-6.69626
 21
-43.7335
  0
LINE
  8
0
 10
-6.69626
 20
-43.7335
 11
-6.54385
 21
-43.8442
  0
LINE
  8
0
 10
-6.54385
 20
-43.8442
 11
-6.40654
 21
-43.9732
  0
LINE
  8
0
 10
-6.40654
 20
-43.9732
 11
-6.28647
 21
-44.1183
  0
LINE
  8
0
 10
-6.28647
 20
-44.1183
 11
-6.18553
 21
-44.2774
  0
LINE
  8
0
 10
-6.18553
 20
-44.2774
 11
-6.10533
 21
-44.4478
  0
LINE
  8
0
 10
-6.10533
 20
-44.4478
 11
-6.04712
 21
-44.627
  0
LINE
  8
0
 10
-6.04712
 20
-44.627
 11
-6.01183
 21
-44.812
  0
LINE
  8
0
 10
-6.01183
 20
-44.812
 11
-6
 21
-45
  0
LINE
  8
0
 10
-6
 20
-45
 11
-6.01183
 21
-45.188
  0
LINE
  8
0
 10
-6.01183
 20
-45.188
 11
-6.04712
 21
-45.373
  0
LINE
  8
0
 10
-6.04712
 20
-45.373
 11
-6.10533
 21
-45.5522
  0
LINE
  8
0
 10
-6.10533
 20
-45.5522
 11
-6.18553
 21
-45.7226
  0
LINE
  8
0
 10
-6.18553
 20
-45.7226
 11
-6.28647
 21
-45.8817
  0
LINE
  8
0
 10
-6.28647
 20
-45.8817
 11
-6.40654
 21
-46.0268
  0
LINE
  8
0
 10
-6.40654
 20
-46.0268
 11
-6.54385
 21
-46.1558
  0
LINE
  8
0
 10
-6.54385
 20
-46.1558
 11
-6.69626
 21
-46.2665
  0
LINE
  8
0
 10
-6.69626
 20
-46.2665
 11
-6.86133
 21
-46.3572
  0
LINE
  8
0
 10
-6.86133
 20
-46.3572
 11
-7.03647
 21
-46.4266
  0
LINE
  8
0
 10
-7.03647
 20
-46.4266
 11
-7.21892
 21
-46.4734
  0
LINE
  8
0
 10
-7.21892
 20
-46.4734
 11
-7.40581
 21
-46.497
  0
LINE
  8
0
 10
-7.40581
 20
-46.497
 11
-7.59418
 21
-46.497
  0
LINE
  8
0
 10
-37.5942
 20
-46.497
 11
-37.7811
 21
-46.4734
  0
LINE
  8
0
 10
-37.7811
 20
-46.4734
 11
-37.9635
 21
-46.4266
  0
LINE
  8
0
 10
-37.9635
 20
-46.4266
 11
-38.1387
 21
-46.3572
  0
LINE
  8
0
 10
-38.1387
 20
-46.3572
 11
-38.3037
 21
-46.2665
  0
LINE
  8
0
 10
-38.3037
 20
-46.2665
 11
-38.4561
 21
-46.1558
  0
LINE
  8
0
 10
-38.4561
 20
-46.1558
 11
-38.5934
 21
-46.0268
  0
LINE
  8
0
 10
-38.5934
 20
-46.0268
 11
-38.7135
 21
-45.8817
  0
LINE
  8
0
 10
-38.7135
 20
-45.8817
 11
-38.8145
 21
-45.7226
  0
LINE
  8
0
 10
-38.8145
 20
-45.7226
 11
-38.8947
 21
-45.5522
  0
LINE
  8
0
 10
-38.8947
 20
-45.5522
 11
-38.9529
 21
-45.373
  0
LINE
  8
0
 10
-38.9529
 20
-45.373
 11
-38.9882
 21
-45.188
  0
LINE
  8
0
 10
-38.9882
 20
-45.188
 11
-39
 21
-45
  0
LINE
  8
0
 10
-39
 20
-45
 11
-38.9882
 21
-44.812
  0
LINE
  8
0
 10
-38.9882
 20
-44.812
 11
-38.9529
 21
-44.627
  0
LINE
  8
0
 10
-38.9529
 20
-44.627
 11
-38.8947
 21
-44.4478
  0
LINE
  8
0
 10
-38.8947
 20
-44.4478
 11
-38.8145
 21
-44.2774
  0
LINE
  8
0
 10
-38.8145
 20
-44.2774
 11
-38.7135
 21
-44.1183
  0
LINE
  8
0
 10
-38.7135
 20
-44.1183
 11
-38.5934
 21
-43.9732
  0
LINE
  8
0
 10
-38.5934
 20
-43.9732
 11
-38.4561
 21
-43.8442
  0
LINE
  8
0
 10
-38.4561
 20
-43.8442
 11
-38.3037
 21
-43.7335
  0
LINE
  8
0
 10
-38.3037
 20
-43.7335
 11
-38.1387
 21
-43.6428
  0
LINE
  8
0
 10
-38.1387
 20
-43.6428
 11
-37.9635
 21
-43.5734
  0
LINE
  8
0
 10
-37.9635
 20
-43.5734
 11
-37.7811
 21
-43.5266
  0
LINE
  8
0
 10
-37.7811
 20
-43.5266
 11
-37.5942
 21
-43.503
  0
LINE
  8
0
 10
-37.5942
 20
-43.503
 11
-37.4058
 21
-43.503
  0
LINE
  8
0
 10
-37.4058
 20
-43.503
 11
-37.2189
 21
-43.5266
  0
LINE
  8
0
 10
-37.2189
 20
-43.5266
 11
-37.0365
 21
-43.5734
  0
LINE
  8
0
 10
-37.0365
 20
-43.5734
 11
-36.8613
 21
-43.6428
  0
LINE
  8
0
 10
-36.8613
 20
-43.6428
 11
-36.6963
 21
-43.7335
  0
LINE
  8
0
 10
-36.6963
 20
-43.7335
 11
-36.5439
 21
-43.8442
  0
LINE
  8
0
 10
-36.5439
 20
-43.8442
 11
-36.4065
 21
-43.9732
  0
LINE
  8
0
 10
-36.4065
 20
-43.9732
 11
-36.2865
 21
-44.1183
  0
LINE
  8
0
 10
-36.2865
 20
-44.1183
 11
-36.1855
 21
-44.2774
  0
LINE
  8
0
 10
-36.1855
 20
-44.2774
 11
-36.1053
 21
-44.4478
  0
LINE
  8
0
 10
-36.1053
 20
-44.4478
 11
-36.0471
 21
-44.627
  0
LINE
  8
0
 10
-36.0471
 20
-44.627
 11
-36.0118
 21
-44.812
  0
LINE
  8
0
 10
-36.0118
 20
-44.812
 11
-36
 21
-45
  0
LINE
  8
0
 10
-36
 20
-45
 11
-36.0118
 21
-45.188
  0
LINE
  8
0
 10
-36.0118
 20
-45.188
 11
-36.0471
 21
-45.373
  0
LINE
  8
0
 10
-36.0471
 20
-45.373
 11
-36.1053
 21
-45.5522
  0
LINE
  8
0
 10
-36.1053
 20
-45.5522
 11
-36.1855
 21
-45.7226
  0
LINE
  8
0
 10
-36.1855
 20
-45.7226
 11
-36.2865
 21
-45.8817
  0
LINE
  8
0
 10
-36.2865
 20
-45.8817
 11
-36.4065
 21
-46.0268
  0
LINE
  8
0
 10
-36.4065
 20
-46.0268
 11
-36.5439
 21
-46.1558
  0
LINE
  8
0
 10
-36.5439
 20
-46.1558
 11
-36.6963
 21
-46.2665
  0
LINE
  8
0
 10
-36.6963
 20
-46.2665
 11
-36.8613
 21
-46.3572
  0
LINE
  8
0
 10
-36.8613
 20
-46.3572
 11
-37.0365
 21
-46.4266
  0
LINE
  8
0
 10
-37.0365
 20
-46.4266
 11
-37.2189
 21
-46.4734
  0
LINE
  8
0
 10
-37.2189
 20
-46.4734
 11
-37.4058
 21
-46.497
  0
LINE
  8
0
 10
-37.4058
 20
-46.497
 11
-37.5942
 21
-46.497
  0
LINE
  8
0
 10
-9.37538
 20
-21.1603
 11
-12.2571
 21
-24.6437
  0
LINE
  8
0
 10
-12.2571
 20
-24.6437
 11
-15.5527
 21
-27.7385
  0
LINE
  8
0
 10
-15.5527
 20
-27.7385
 11
-19.2102
 21
-30.3958
  0
LINE
  8
0
 10
-19.2102
 20
-30.3958
 11
-23.1719
 21
-32.5738
  0
LINE
  8
0
 10
-23.1719
 20
-32.5738
 11
-27.3754
 21
-34.238
  0
LINE
  8
0
 10
-27.3754
 20
-34.238
 11
-31.7543
 21
-35.3623
  0
LINE
  8
0
 10
-31.7543
 20
-35.3623
 11
-36.2395
 21
-35.929
  0
LINE
  8
0
 10
-36.2395
 20
-35.929
 11
-40.7605
 21
-35.929
  0
LINE
  8
0
 10
-40.7605
 20
-35.929
 11
-45.2457
 21
-35.3623
  0
LINE
  8
0
 10
-45.2457
 20
-35.3623
 11
-49.6246
 21
-34.238
  0
LINE
  8
0
 10
-49.6246
 20
-34.238
 11
-53.828
 21
-32.5738
  0
LINE
  8
0
 10
-53.828
 20
-32.5738
 11
-57.7898
 21
-30.3958
  0
LINE
  8
0
 10
-57.7898
 20
-30.3958
 11
-61.4473
 21
-27.7385
  0
LINE
  8
0
 10
-61.4473
 20
-27.7385
 11
-64.7429
 21
-24.6437
  0
LINE
  8
0
 10
-64.7429
 20
-24.6437
 11
-67.6246
 21
-21.1603
  0
LINE
  8
0
 10
-67.6246
 20
-21.1603
 11
-70.047
 21
-17.3431
  0
LINE
  8
0
 10
-70.047
 20
-17.3431
 11
-71.972
 21
-13.2525
  0
LINE
  8
0
 10
-71.972
 20
-13.2525
 11
-73.369
 21
-8.95284
  0
LINE
  8
0
 10
-73.369
 20
-8.95284
 11
-74.2161
 21
-4.51199
  0
LINE
  8
0
 10
-74.2161
 20
-4.51199
 11
-74.5
 21
0
  0
LINE
  8
0
 10
-74.5
 20
0
 11
-74.2161
 21
4.51199
  0
LINE
  8
0
 10
-74.2161
 20
4.51199
 11
-73.369
 21
8.95284
  0
LINE
  8
0
 10
-73.369
 20
8.95284
 11
-71.972
 21
13.2525
  0
LINE
  8
0
 10
-71.972
 20
13.2525
 11
-70.047
 21
17.3431
  0
LINE
  8
0
 10
-70.047
 20
17.3431
 11
-67.6246
 21
21.1603
  0
LINE
  8
0
 10
-67.6246
 20
21.1603
 11
-64.7429
 21
24.6437
  0
LINE
  8
0
 10
-64.7429
 20
24.6437
 11
-61.4473
 21
27.7385
  0
LINE
  8
0
 10
-61.4473
 20
27.7385
 11
-57.7898
 21
30.3958
  0
LINE
  8
0
 10
-57.7898
 20
30.3958
 11
-53.828
 21
32.5738
  0
LINE
  8
0
 10
-53.828
 20
32.5738
 11
-49.6246
 21
34.238
  0
LINE
  8
0
 10
-49.6246
 20
34.238
 11
-45.2457
 21
35.3623
  0
LINE
  8
0
 10
-45.2457
 20
35.3623
 11
-40.7605
 21
35.929
  0
LINE
  8
0
 10
-40.7605
 20
35.929
 11
-36.2395
 21
35.929
  0
LINE
  8
0
 10
-36.2395
 20
35.929
 11
-31.7543
 21
35.3623
  0
LINE
  8
0
 10
-31.7543
 20
35.3623
 11
-27.3754
 21
34.238
  0
LINE
  8
0
 10
-27.3754
 20
34.238
 11
-23.1719
 21
32.5738
  0
LINE
  8
0
 10
-23.1719
 20
32.5738
 11
-19.2102
 21
30.3958
  0
LINE
  8
0
 10
-19.2102
 20
30.3958
 11
-15.5527
 21
27.7385
  0
LINE
  8
0
 10
-15.5527
 20
27.7385
 11
-12.2571
 21
24.6437
  0
LINE
  8
0
 10
-12.2571
 20
24.6437
 11
-9.37538
 21
21.1603
  0
LINE
  8
0
 10
-9.37538
 20
21.1603
 11
-6.95296
 21
17.3431
  0
LINE
  8
0
 10
-6.95296
 20
17.3431
 11
-5.02805
 21
13.2525
  0
LINE
  8
0
 10
-5.02805
 20
13.2525
 11
-3.631
 21
8.95284
  0
LINE
  8
0
 10
-3.631
 20
8.95284
 11
-2.78386
 21
4.51199
  0
LINE
  8
0
 10
-2.78386
 20
4.51199
 11
-2.5
 21
0
  0
LINE
  8
0
 10
-2.5
 20
0
 11
-2.78386
 21
-4.51199
  0
LINE
  8
0
 10
-2.78386
 20
-4.51199
 11
-3.631
 21
-8.95284
  0
LINE
  8
0
 10
-3.631
 20
-8.95284
 11
-5.02805
 21
-13.2525
  0
LINE
  8
0
 10
-5.02805
 20
-13.2525
 11
-6.95296
 21
-17.3431
  0
LINE
  8
0
 10
-6.95296
 20
-17.3431
 11
-9.37538
 21
-21.1603
  0
ENDSEC
  0
SECTION
  2
OBJECTS
  0
DICTIONARY
  0
ENDSEC
  0
EOF
