<?xml version="1.0" standalone="no"?>
<!DOCTYPE svg PUBLIC "-//W3C//DTD SVG 1.1//EN" "http://www.w3.org/Graphics/SVG/1.1/DTD/svg11.dtd">
<svg width="44mm" height="30mm" viewBox="-22 -54 44 30" xmlns="http://www.w3.org/2000/svg" version="1.1">
<title>OpenSCAD Model</title>
<path d="
M 17.9369,-24.5886 L 18.5451,-24.7447 L 19.1289,-24.9759 L 19.6791,-25.2784 L 20.1871,-25.6474 L 20.6448,-26.0773
 L 21.0451,-26.5611 L 21.3815,-27.0912 L 21.6489,-27.6594 L 21.8429,-28.2566 L 21.9606,-28.8733 L 22,-29.5
 L 22,-48.5 L 21.9606,-49.1267 L 21.8429,-49.7434 L 21.6489,-50.3406 L 21.3815,-50.9088 L 21.0451,-51.4389
 L 20.6448,-51.9227 L 20.1871,-52.3526 L 19.6791,-52.7216 L 19.1289,-53.0241 L 18.5451,-53.2553 L 17.9369,-53.4114
 L 17.3139,-53.4901 L -17.3139,-53.4901 L -17.9369,-53.4114 L -18.5451,-53.2553 L -19.1289,-53.0241 L -19.6791,-52.7216
 L -20.1871,-52.3526 L -20.6448,-51.9227 L -21.0451,-51.4389 L -21.3815,-50.9088 L -21.6489,-50.3406 L -21.8429,-49.7434
 L -21.9606,-49.1267 L -22,-48.5 L -22,-29.5 L -21.9606,-28.8733 L -21.8429,-28.2566 L -21.6489,-27.6594
 L -21.3815,-27.0912 L -21.0451,-26.5611 L -20.6448,-26.0773 L -20.1871,-25.6474 L -19.6791,-25.2784 L -19.1289,-24.9759
 L -18.5451,-24.7447 L -17.9369,-24.5886 L -17.3139,-24.5099 L 17.3139,-24.5099 z
M -15.1884,-43.5059 L -15.5621,-43.5531 L -15.927,-43.6468 L -16.2773,-43.7855 L -16.6075,-43.967 L -16.9123,-44.1884
 L -17.1869,-44.4464 L -17.427,-44.7366 L -17.6289,-45.0547 L -17.7893,-45.3956 L -17.9057,-45.7539 L -17.9763,-46.124
 L -18,-46.5 L -17.9763,-46.876 L -17.9057,-47.2461 L -17.7893,-47.6044 L -17.6289,-47.9453 L -17.427,-48.2634
 L -17.1869,-48.5536 L -16.9123,-48.8115 L -16.6075,-49.033 L -16.2773,-49.2145 L -15.927,-49.3532 L -15.5621,-49.4469
 L -15.1884,-49.4941 L -14.8116,-49.4941 L -14.4379,-49.4469 L -14.0729,-49.3532 L -13.7227,-49.2145 L -13.3925,-49.033
 L -13.0877,-48.8115 L -12.8131,-48.5536 L -12.5729,-48.2634 L -12.3711,-47.9453 L -12.2107,-47.6044 L -12.0942,-47.2461
 L -12.0237,-46.876 L -12,-46.5 L -12.0237,-46.124 L -12.0942,-45.7539 L -12.2107,-45.3956 L -12.3711,-45.0547
 L -12.5729,-44.7366 L -12.8131,-44.4464 L -13.0877,-44.1884 L -13.3925,-43.967 L -13.7227,-43.7855 L -14.0729,-43.6468
 L -14.4379,-43.5531 L -14.8116,-43.5059 z
M -0.18837,-43.5059 L -0.562134,-43.5531 L -0.927048,-43.6468 L -1.27733,-43.7855 L -1.60747,-43.967 L -1.91226,-44.1884
 L -2.1869,-44.4464 L -2.42705,-44.7366 L -2.62891,-45.0547 L -2.78932,-45.3956 L -2.90575,-45.7539 L -2.97633,-46.124
 L -3,-46.5 L -2.97633,-46.876 L -2.90575,-47.2461 L -2.78932,-47.6044 L -2.62891,-47.9453 L -2.42705,-48.2634
 L -2.1869,-48.5536 L -1.91226,-48.8115 L -1.60747,-49.033 L -1.27733,-49.2145 L -0.927048,-49.3532 L -0.562134,-49.4469
 L -0.18837,-49.4941 L 0.18837,-49.4941 L 0.562134,-49.4469 L 0.927048,-49.3532 L 1.27733,-49.2145 L 1.60747,-49.033
 L 1.91226,-48.8115 L 2.1869,-48.5536 L 2.42705,-48.2634 L 2.62891,-47.9453 L 2.78932,-47.6044 L 2.90575,-47.2461
 L 2.97633,-46.876 L 3,-46.5 L 2.97633,-46.124 L 2.90575,-45.7539 L 2.78932,-45.3956 L 2.62891,-45.0547
 L 2.42705,-44.7366 L 2.1869,-44.4464 L 1.91226,-44.1884 L 1.60747,-43.967 L 1.27733,-43.7855 L 0.927048,-43.6468
 L 0.562134,-43.5531 L 0.18837,-43.5059 z
M 14.8116,-43.5059 L 14.4379,-43.5531 L 14.0729,-43.6468 L 13.7227,-43.7855 L 13.3925,-43.967 L 13.0877,-44.1884
 L 12.8131,-44.4464 L 12.5729,-44.7366 L 12.3711,-45.0547 L 12.2107,-45.3956 L 12.0942,-45.7539 L 12.0237,-46.124
 L 12,-46.5 L 12.0237,-46.876 L 12.0942,-47.2461 L 12.2107,-47.6044 L 12.3711,-47.9453 L 12.5729,-48.2634
 L 12.8131,-48.5536 L 13.0877,-48.8115 L 13.3925,-49.033 L 13.7227,-49.2145 L 14.0729,-49.3532 L 14.4379,-49.4469
 L 14.8116,-49.4941 L 15.1884,-49.4941 L 15.5621,-49.4469 L 15.927,-49.3532 L 16.2773,-49.2145 L 16.6075,-49.033
 L 16.9123,-48.8115 L 17.1869,-48.5536 L 17.427,-48.2634 L 17.6289,-47.9453 L 17.7893,-47.6044 L 17.9057,-47.2461
 L 17.9763,-46.876 L 18,-46.5 L 17.9763,-46.124 L 17.9057,-45.7539 L 17.7893,-45.3956 L 17.6289,-45.0547
 L 17.427,-44.7366 L 17.1869,-44.4464 L 16.9123,-44.1884 L 16.6075,-43.967 L 16.2773,-43.7855 L 15.927,-43.6468
 L 15.5621,-43.5531 L 15.1884,-43.5059 z
M -7.59418,-45.0029 L -7.78107,-45.0266 L -7.96352,-45.0734 L -8.13866,-45.1427 L -8.30373,-45.2335 L -8.45613,-45.3442
 L -8.59344,-45.4732 L -8.71352,-45.6183 L -8.81445,-45.7774 L -8.89465,-45.9478 L -8.95287,-46.127 L -8.98816,-46.312
 L -9,-46.5 L -8.98816,-46.688 L -8.95287,-46.873 L -8.89465,-47.0522 L -8.81445,-47.2226 L -8.71352,-47.3817
 L -8.59344,-47.5268 L -8.45613,-47.6558 L -8.30373,-47.7665 L -8.13866,-47.8572 L -7.96352,-47.9266 L -7.78107,-47.9734
 L -7.59418,-47.997 L -7.40581,-47.997 L -7.21892,-47.9734 L -7.03647,-47.9266 L -6.86133,-47.8572 L -6.69626,-47.7665
 L -6.54385,-47.6558 L -6.40654,-47.5268 L -6.28647,-47.3817 L -6.18553,-47.2226 L -6.10533,-47.0522 L -6.04712,-46.873
 L -6.01183,-46.688 L -6,-46.5 L -6.01183,-46.312 L -6.04712,-46.127 L -6.10533,-45.9478 L -6.18553,-45.7774
 L -6.28647,-45.6183 L -6.40654,-45.4732 L -6.54385,-45.3442 L -6.69626,-45.2335 L -6.86133,-45.1427 L -7.03647,-45.0734
 L -7.21892,-45.0266 L -7.40581,-45.0029 z
M 7.40581,-45.0029 L 7.21892,-45.0266 L 7.03647,-45.0734 L 6.86133,-45.1427 L 6.69626,-45.2335 L 6.54385,-45.3442
 L 6.40654,-45.4732 L 6.28647,-45.6183 L 6.18553,-45.7774 L 6.10533,-45.9478 L 6.04712,-46.127 L 6.01183,-46.312
 L 6,-46.5 L 6.01183,-46.688 L 6.04712,-46.873 L 6.10533,-47.0522 L 6.18553,-47.2226 L 6.28647,-47.3817
 L 6.40654,-47.5268 L 6.54385,-47.6558 L 6.69626,-47.7665 L 6.86133,-47.8572 L 7.03647,-47.9266 L 7.21892,-47.9734
 L 7.40581,-47.997 L 7.59418,-47.997 L 7.78107,-47.9734 L 7.96352,-47.9266 L 8.13866,-47.8572 L 8.30373,-47.7665
 L 8.45613,-47.6558 L 8.59344,-47.5268 L 8.71352,-47.3817 L 8.81445,-47.2226 L 8.89465,-47.0522 L 8.95287,-46.873
 L 8.98816,-46.688 L 9,-46.5 L 8.98816,-46.312 L 8.95287,-46.127 L 8.89465,-45.9478 L 8.81445,-45.7774
 L 8.71352,-45.6183 L 8.59344,-45.4732 L 8.45613,-45.3442 L 8.30373,-45.2335 L 8.13866,-45.1427 L 7.96352,-45.0734
 L 7.78107,-45.0266 L 7.59418,-45.0029 z
M 4.3744,-37.004 L 4.12523,-37.0354 L 3.88196,-37.0979 L 3.64844,-37.1904 L 3.42834,-37.3114 L 3.22514,-37.459
 L 3.04205,-37.6309 L 2.88196,-37.8244 L 2.74738,-38.0365 L 2.64044,-38.2638 L 2.56282,-38.5026 L 2.51576,-38.7493
 L 2.5,-39 L 2.51576,-39.2507 L 2.56282,-39.4974 L 2.64044,-39.7362 L 2.74738,-39.9635 L 2.88196,-40.1756
 L 3.04205,-40.3691 L 3.22514,-40.541 L 3.42834,-40.6886 L 3.64844,-40.8096 L 3.88196,-40.9021 L 4.12523,-40.9646
 L 4.3744,-40.996 L 4.62558,-40.996 L 4.87476,-40.9646 L 5.11803,-40.9021 L 5.35155,-40.8096 L 5.57164,-40.6886
 L 5.77484,-40.541 L 5.95793,-40.3691 L 6.11803,-40.1756 L 6.25261,-39.9635 L 6.35954,-39.7362 L 6.43716,-39.4974
 L 6.48422,-39.2507 L 6.5,-39 L 6.48422,-38.7493 L 6.43716,-38.5026 L 6.35954,-38.2638 L 6.25261,-38.0365
 L 6.11803,-37.8244 L 5.95793,-37.6309 L 5.77484,-37.459 L 5.57164,-37.3114 L 5.35155,-37.1904 L 5.11803,-37.0979
 L 4.87476,-37.0354 L 4.62558,-37.004 z
M -13.6256,-37.004 L -13.8748,-37.0354 L -14.118,-37.0979 L -14.3515,-37.1904 L -14.5716,-37.3114 L -14.7748,-37.459
 L -14.9579,-37.6309 L -15.118,-37.8244 L -15.2526,-38.0365 L -15.3595,-38.2638 L -15.4372,-38.5026 L -15.4842,-38.7493
 L -15.5,-39 L -15.4842,-39.2507 L -15.4372,-39.4974 L -15.3595,-39.7362 L -15.2526,-39.9635 L -15.118,-40.1756
 L -14.9579,-40.3691 L -14.7748,-40.541 L -14.5716,-40.6886 L -14.3515,-40.8096 L -14.118,-40.9021 L -13.8748,-40.9646
 L -13.6256,-40.996 L -13.3744,-40.996 L -13.1252,-40.9646 L -12.882,-40.9021 L -12.6484,-40.8096 L -12.4283,-40.6886
 L -12.2251,-40.541 L -12.0421,-40.3691 L -11.882,-40.1756 L -11.7474,-39.9635 L -11.6404,-39.7362 L -11.5628,-39.4974
 L -11.5158,-39.2507 L -11.5,-39 L -11.5158,-38.7493 L -11.5628,-38.5026 L -11.6404,-38.2638 L -11.7474,-38.0365
 L -11.882,-37.8244 L -12.0421,-37.6309 L -12.2251,-37.459 L -12.4283,-37.3114 L -12.6484,-37.1904 L -12.882,-37.0979
 L -13.1252,-37.0354 L -13.3744,-37.004 z
M 13.3744,-37.004 L 13.1252,-37.0354 L 12.882,-37.0979 L 12.6484,-37.1904 L 12.4283,-37.3114 L 12.2251,-37.459
 L 12.0421,-37.6309 L 11.882,-37.8244 L 11.7474,-38.0365 L 11.6404,-38.2638 L 11.5628,-38.5026 L 11.5158,-38.7493
 L 11.5,-39 L 11.5158,-39.2507 L 11.5628,-39.4974 L 11.6404,-39.7362 L 11.7474,-39.9635 L 11.882,-40.1756
 L 12.0421,-40.3691 L 12.2251,-40.541 L 12.4283,-40.6886 L 12.6484,-40.8096 L 12.882,-40.9021 L 13.1252,-40.9646
 L 13.3744,-40.996 L 13.6256,-40.996 L 13.8748,-40.9646 L 14.118,-40.9021 L 14.3515,-40.8096 L 14.5716,-40.6886
 L 14.7748,-40.541 L 14.9579,-40.3691 L 15.118,-40.1756 L 15.2526,-39.9635 L 15.3595,-39.7362 L 15.4372,-39.4974
 L 15.4842,-39.2507 L 15.5,-39 L 15.4842,-38.7493 L 15.4372,-38.5026 L 15.3595,-38.2638 L 15.2526,-38.0365
 L 15.118,-37.8244 L 14.9579,-37.6309 L 14.7748,-37.459 L 14.5716,-37.3114 L 14.3515,-37.1904 L 14.118,-37.0979
 L 13.8748,-37.0354 L 13.6256,-37.004 z
M -4.62558,-37.004 L -4.87476,-37.0354 L -5.11803,-37.0979 L -5.35155,-37.1904 L -5.57164,-37.3114 L -5.77484,-37.459
 L -5.95793,-37.6309 L -6.11803,-37.8244 L -6.25261,-38.0365 L -6.35954,-38.2638 L -6.43716,-38.5026 L -6.48422,-38.7493
 L -6.5,-39 L -6.48422,-39.2507 L -6.43716,-39.4974 L -6.35954,-39.7362 L -6.25261,-39.9635 L -6.11803,-40.1756
 L -5.95793,-40.3691 L -5.77484,-40.541 L -5.57164,-40.6886 L -5.35155,-40.8096 L -5.11803,-40.9021 L -4.87476,-40.9646
 L -4.62558,-40.996 L -4.3744,-40.996 L -4.12523,-40.9646 L -3.88196,-40.9021 L -3.64844,-40.8096 L -3.42834,-40.6886
 L -3.22514,-40.541 L -3.04205,-40.3691 L -2.88196,-40.1756 L -2.74738,-39.9635 L -2.64044,-39.7362 L -2.56282,-39.4974
 L -2.51576,-39.2507 L -2.5,-39 L -2.51576,-38.7493 L -2.56282,-38.5026 L -2.64044,-38.2638 L -2.74738,-38.0365
 L -2.88196,-37.8244 L -3.04205,-37.6309 L -3.22514,-37.459 L -3.42834,-37.3114 L -3.64844,-37.1904 L -3.88196,-37.0979
 L -4.12523,-37.0354 L -4.3744,-37.004 z
M 14.8116,-28.5059 L 14.4379,-28.5531 L 14.0729,-28.6468 L 13.7227,-28.7855 L 13.3925,-28.967 L 13.0877,-29.1885
 L 12.8131,-29.4464 L 12.5729,-29.7366 L 12.3711,-30.0547 L 12.2107,-30.3956 L 12.0942,-30.7539 L 12.0237,-31.124
 L 12,-31.5 L 12.0237,-31.876 L 12.0942,-32.2461 L 12.2107,-32.6044 L 12.3711,-32.9453 L 12.5729,-33.2634
 L 12.8131,-33.5536 L 13.0877,-33.8116 L 13.3925,-34.033 L 13.7227,-34.2145 L 14.0729,-34.3532 L 14.4379,-34.4469
 L 14.8116,-34.4941 L 15.1884,-34.4941 L 15.5621,-34.4469 L 15.927,-34.3532 L 16.2773,-34.2145 L 16.6075,-34.033
 L 16.9123,-33.8116 L 17.1869,-33.5536 L 17.427,-33.2634 L 17.6289,-32.9453 L 17.7893,-32.6044 L 17.9057,-32.2461
 L 17.9763,-31.876 L 18,-31.5 L 17.9763,-31.124 L 17.9057,-30.7539 L 17.7893,-30.3956 L 17.6289,-30.0547
 L 17.427,-29.7366 L 17.1869,-29.4464 L 16.9123,-29.1885 L 16.6075,-28.967 L 16.2773,-28.7855 L 15.927,-28.6468
 L 15.5621,-28.5531 L 15.1884,-28.5059 z
M -15.1884,-28.5059 L -15.5621,-28.5531 L -15.927,-28.6468 L -16.2773,-28.7855 L -16.6075,-28.967 L -16.9123,-29.1885
 L -17.1869,-29.4464 L -17.427,-29.7366 L -17.6289,-30.0547 L -17.7893,-30.3956 L -17.9057,-30.7539 L -17.9763,-31.124
 L -18,-31.5 L -17.9763,-31.876 L -17.9057,-32.2461 L -17.7893,-32.6044 L -17.6289,-32.9453 L -17.427,-33.2634
 L -17.1869,-33.5536 L -16.9123,-33.8116 L -16.6075,-34.033 L -16.2773,-34.2145 L -15.927,-34.3532 L -15.5621,-34.4469
 L -15.1884,-34.4941 L -14.8116,-34.4941 L -14.4379,-34.4469 L -14.0729,-34.3532 L -13.7227,-34.2145 L -13.3925,-34.033
 L -13.0877,-33.8116 L -12.8131,-33.5536 L -12.5729,-33.2634 L -12.3711,-32.9453 L -12.2107,-32.6044 L -12.0942,-32.2461
 L -12.0237,-31.876 L -12,-31.5 L -12.0237,-31.124 L -12.0942,-30.7539 L -12.2107,-30.3956 L -12.3711,-30.0547
 L -12.5729,-29.7366 L -12.8131,-29.4464 L -13.0877,-29.1885 L -13.3925,-28.967 L -13.7227,-28.7855 L -14.0729,-28.6468
 L -14.4379,-28.5531 L -14.8116,-28.5059 z
M -0.18837,-28.5059 L -0.562134,-28.5531 L -0.927048,-28.6468 L -1.27733,-28.7855 L -1.60747,-28.967 L -1.91226,-29.1885
 L -2.1869,-29.4464 L -2.42705,-29.7366 L -2.62891,-30.0547 L -2.78932,-30.3956 L -2.90575,-30.7539 L -2.97633,-31.124
 L -3,-31.5 L -2.97633,-31.876 L -2.90575,-32.2461 L -2.78932,-32.6044 L -2.62891,-32.9453 L -2.42705,-33.2634
 L -2.1869,-33.5536 L -1.91226,-33.8116 L -1.60747,-34.033 L -1.27733,-34.2145 L -0.927048,-34.3532 L -0.562134,-34.4469
 L -0.18837,-34.4941 L 0.18837,-34.4941 L 0.562134,-34.4469 L 0.927048,-34.3532 L 1.27733,-34.2145 L 1.60747,-34.033
 L 1.91226,-33.8116 L 2.1869,-33.5536 L 2.42705,-33.2634 L 2.62891,-32.9453 L 2.78932,-32.6044 L 2.90575,-32.2461
 L 2.97633,-31.876 L 3,-31.5 L 2.97633,-31.124 L 2.90575,-30.7539 L 2.78932,-30.3956 L 2.62891,-30.0547
 L 2.42705,-29.7366 L 2.1869,-29.4464 L 1.91226,-29.1885 L 1.60747,-28.967 L 1.27733,-28.7855 L 0.927048,-28.6468
 L 0.562134,-28.5531 L 0.18837,-28.5059 z
M 7.40581,-30.003 L 7.21892,-30.0266 L 7.03647,-30.0734 L 6.86133,-30.1428 L 6.69626,-30.2335 L 6.54385,-30.3442
 L 6.40654,-30.4732 L 6.28647,-30.6183 L 6.18553,-30.7774 L 6.10533,-30.9478 L 6.04712,-31.127 L 6.01183,-31.312
 L 6,-31.5 L 6.01183,-31.688 L 6.04712,-31.873 L 6.10533,-32.0522 L 6.18553,-32.2226 L 6.28647,-32.3817
 L 6.40654,-32.5268 L 6.54385,-32.6558 L 6.69626,-32.7665 L 6.86133,-32.8573 L 7.03647,-32.9266 L 7.21892,-32.9734
 L 7.40581,-32.9971 L 7.59418,-32.9971 L 7.78107,-32.9734 L 7.96352,-32.9266 L 8.13866,-32.8573 L 8.30373,-32.7665
 L 8.45613,-32.6558 L 8.59344,-32.5268 L 8.71352,-32.3817 L 8.81445,-32.2226 L 8.89465,-32.0522 L 8.95287,-31.873
 L 8.98816,-31.688 L 9,-31.5 L 8.98816,-31.312 L 8.95287,-31.127 L 8.89465,-30.9478 L 8.81445,-30.7774
 L 8.71352,-30.6183 L 8.59344,-30.4732 L 8.45613,-30.3442 L 8.30373,-30.2335 L 8.13866,-30.1428 L 7.96352,-30.0734
 L 7.78107,-30.0266 L 7.59418,-30.003 z
M -7.59418,-30.003 L -7.78107,-30.0266 L -7.96352,-30.0734 L -8.13866,-30.1428 L -8.30373,-30.2335 L -8.45613,-30.3442
 L -8.59344,-30.4732 L -8.71352,-30.6183 L -8.81445,-30.7774 L -8.89465,-30.9478 L -8.95287,-31.127 L -8.98816,-31.312
 L -9,-31.5 L -8.98816,-31.688 L -8.95287,-31.873 L -8.89465,-32.0522 L -8.81445,-32.2226 L -8.71352,-32.3817
 L -8.59344,-32.5268 L -8.45613,-32.6558 L -8.30373,-32.7665 L -8.13866,-32.8573 L -7.96352,-32.9266 L -7.78107,-32.9734
 L -7.59418,-32.9971 L -7.40581,-32.9971 L -7.21892,-32.9734 L -7.03647,-32.9266 L -6.86133,-32.8573 L -6.69626,-32.7665
 L -6.54385,-32.6558 L -6.40654,-32.5268 L -6.28647,-32.3817 L -6.18553,-32.2226 L -6.10533,-32.0522 L -6.04712,-31.873
 L -6.01183,-31.688 L -6,-31.5 L -6.01183,-31.312 L -6.04712,-31.127 L -6.10533,-30.9478 L -6.18553,-30.7774
 L -6.28647,-30.6183 L -6.40654,-30.4732 L -6.54385,-30.3442 L -6.69626,-30.2335 L -6.86133,-30.1428 L -7.03647,-30.0734
 L -7.21892,-30.0266 L -7.40581,-30.003 z
" stroke="black" fill="lightgray" stroke-width="0.5"/>
</svg>
