<?xml version="1.0" standalone="no"?>
<!DOCTYPE svg PUBLIC "-//W3C//DTD SVG 1.1//EN" "http://www.w3.org/Graphics/SVG/1.1/DTD/svg11.dtd">
<svg width="90mm" height="44mm" viewBox="-45 -22 90 44" xmlns="http://www.w3.org/2000/svg" version="1.1">
<title>OpenSCAD Model</title>
<path d="
M 40.4369,21.9114 L 41.0451,21.7553 L 41.6289,21.5241 L 42.1791,21.2216 L 42.6871,20.8526 L 43.1448,20.4227
 L 43.5451,19.9389 L 43.8815,19.4088 L 44.1489,18.8406 L 44.3429,18.2434 L 44.4606,17.6267 L 44.5,17
 L 44.5,-17 L 44.4606,-17.6267 L 44.3429,-18.2434 L 44.1489,-18.8406 L 43.8815,-19.4088 L 43.5451,-19.9389
 L 43.1448,-20.4227 L 42.6871,-20.8526 L 42.1791,-21.2216 L 41.6289,-21.5241 L 41.0451,-21.7553 L 40.4369,-21.9114
 L 39.8139,-21.9901 L -39.8139,-21.9901 L -40.4369,-21.9114 L -41.0451,-21.7553 L -41.6289,-21.5241 L -42.1791,-21.2216
 L -42.6871,-20.8526 L -43.1448,-20.4227 L -43.5451,-19.9389 L -43.8815,-19.4088 L -44.1489,-18.8406 L -44.3429,-18.2434
 L -44.4606,-17.6267 L -44.5,-17 L -44.5,17 L -44.4606,17.6267 L -44.3429,18.2434 L -44.1489,18.8406
 L -43.8815,19.4088 L -43.5451,19.9389 L -43.1448,20.4227 L -42.6871,20.8526 L -42.1791,21.2216 L -41.6289,21.5241
 L -41.0451,21.7553 L -40.4369,21.9114 L -39.8139,21.9901 L 39.8139,21.9901 z
M 20.307,18.9625 L 17.9397,18.6635 L 15.6287,18.0701 L 13.4102,17.1917 L 11.3193,16.0422 L 9.38893,14.6397
 L 7.64958,13.0064 L 6.12866,11.1679 L 4.85016,9.15331 L 3.83424,6.99435 L 3.09691,4.7251 L 2.64981,2.38132
 L 2.5,-0 L 2.64981,-2.38132 L 3.09691,-4.7251 L 3.83424,-6.99435 L 4.85016,-9.15331 L 6.12866,-11.1679
 L 7.64958,-13.0064 L 9.38893,-14.6397 L 11.3193,-16.0422 L 13.4102,-17.1917 L 15.6287,-18.0701 L 17.9397,-18.6635
 L 20.307,-18.9625 L 22.693,-18.9625 L 25.0602,-18.6635 L 27.3713,-18.0701 L 29.5898,-17.1917 L 31.6807,-16.0422
 L 33.6111,-14.6397 L 35.0254,-13.3116 L 34.8711,-13.5547 L 34.7107,-13.8956 L 34.5942,-14.2539 L 34.5237,-14.624
 L 34.5,-15 L 34.5237,-15.376 L 34.5942,-15.7461 L 34.7107,-16.1044 L 34.8711,-16.4453 L 35.0729,-16.7634
 L 35.3131,-17.0536 L 35.5877,-17.3115 L 35.8925,-17.533 L 36.2227,-17.7145 L 36.5729,-17.8532 L 36.9379,-17.9469
 L 37.3116,-17.9941 L 37.6884,-17.9941 L 38.0621,-17.9469 L 38.427,-17.8532 L 38.7773,-17.7145 L 39.1075,-17.533
 L 39.4123,-17.3115 L 39.6869,-17.0536 L 39.927,-16.7634 L 40.1289,-16.4453 L 40.2893,-16.1044 L 40.4057,-15.7461
 L 40.4763,-15.376 L 40.5,-15 L 40.4763,-14.624 L 40.4057,-14.2539 L 40.2893,-13.8956 L 40.1289,-13.5547
 L 39.927,-13.2366 L 39.6869,-12.9464 L 39.4123,-12.6884 L 39.1075,-12.467 L 38.7773,-12.2855 L 38.427,-12.1468
 L 38.0621,-12.0531 L 37.6884,-12.0059 L 37.3116,-12.0059 L 36.9379,-12.0531 L 36.5729,-12.1468 L 36.2227,-12.2855
 L 35.8925,-12.467 L 35.6521,-12.6417 L 36.8713,-11.1679 L 38.1498,-9.15331 L 39.1657,-6.99435 L 39.9031,-4.7251
 L 40.3502,-2.38132 L 40.5,-0 L 40.3502,2.38132 L 39.9031,4.7251 L 39.1657,6.99435 L 38.1498,9.15331
 L 36.8713,11.1679 L 35.6521,12.6417 L 35.8925,12.467 L 36.2227,12.2855 L 36.5729,12.1468 L 36.9379,12.0531
 L 37.3116,12.0059 L 37.6884,12.0059 L 38.0621,12.0531 L 38.427,12.1468 L 38.7773,12.2855 L 39.1075,12.467
 L 39.4123,12.6884 L 39.6869,12.9464 L 39.927,13.2366 L 40.1289,13.5547 L 40.2893,13.8956 L 40.4057,14.2539
 L 40.4763,14.624 L 40.5,15 L 40.4763,15.376 L 40.4057,15.7461 L 40.2893,16.1044 L 40.1289,16.4453
 L 39.927,16.7634 L 39.6869,17.0536 L 39.4123,17.3115 L 39.1075,17.533 L 38.7773,17.7145 L 38.427,17.8532
 L 38.0621,17.9469 L 37.6884,17.9941 L 37.3116,17.9941 L 36.9379,17.9469 L 36.5729,17.8532 L 36.2227,17.7145
 L 35.8925,17.533 L 35.5877,17.3115 L 35.3131,17.0536 L 35.0729,16.7634 L 34.8711,16.4453 L 34.7107,16.1044
 L 34.5942,15.7461 L 34.5237,15.376 L 34.5,15 L 34.5237,14.624 L 34.5942,14.2539 L 34.7107,13.8956
 L 34.8711,13.5547 L 35.0254,13.3116 L 33.6111,14.6397 L 31.6807,16.0422 L 29.5898,17.1917 L 27.3713,18.0701
 L 25.0602,18.6635 L 22.693,18.9625 z
M -22.693,18.9625 L -25.0602,18.6635 L -27.3713,18.0701 L -29.5898,17.1917 L -31.6807,16.0422 L -33.6111,14.6397
 L -35.0254,13.3116 L -34.8711,13.5547 L -34.7107,13.8956 L -34.5942,14.2539 L -34.5237,14.624 L -34.5,15
 L -34.5237,15.376 L -34.5942,15.7461 L -34.7107,16.1044 L -34.8711,16.4453 L -35.0729,16.7634 L -35.3131,17.0536
 L -35.5877,17.3115 L -35.8925,17.533 L -36.2227,17.7145 L -36.5729,17.8532 L -36.9379,17.9469 L -37.3116,17.9941
 L -37.6884,17.9941 L -38.0621,17.9469 L -38.427,17.8532 L -38.7773,17.7145 L -39.1075,17.533 L -39.4123,17.3115
 L -39.6869,17.0536 L -39.927,16.7634 L -40.1289,16.4453 L -40.2893,16.1044 L -40.4057,15.7461 L -40.4763,15.376
 L -40.5,15 L -40.4763,14.624 L -40.4057,14.2539 L -40.2893,13.8956 L -40.1289,13.5547 L -39.927,13.2366
 L -39.6869,12.9464 L -39.4123,12.6884 L -39.1075,12.467 L -38.7773,12.2855 L -38.427,12.1468 L -38.0621,12.0531
 L -37.6884,12.0059 L -37.3116,12.0059 L -36.9379,12.0531 L -36.5729,12.1468 L -36.2227,12.2855 L -35.8925,12.467
 L -35.6521,12.6417 L -36.8713,11.1679 L -38.1498,9.15331 L -39.1657,6.99435 L -39.9031,4.7251 L -40.3502,2.38132
 L -40.5,-0 L -40.3502,-2.38132 L -39.9031,-4.7251 L -39.1657,-6.99435 L -38.1498,-9.15331 L -36.8713,-11.1679
 L -35.6521,-12.6417 L -35.8925,-12.467 L -36.2227,-12.2855 L -36.5729,-12.1468 L -36.9379,-12.0531 L -37.3116,-12.0059
 L -37.6884,-12.0059 L -38.0621,-12.0531 L -38.427,-12.1468 L -38.7773,-12.2855 L -39.1075,-12.467 L -39.4123,-12.6884
 L -39.6869,-12.9464 L -39.927,-13.2366 L -40.1289,-13.5547 L -40.2893,-13.8956 L -40.4057,-14.2539 L -40.4763,-14.624
 L -40.5,-15 L -40.4763,-15.376 L -40.4057,-15.7461 L -40.2893,-16.1044 L -40.1289,-16.4453 L -39.927,-16.7634
 L -39.6869,-17.0536 L -39.4123,-17.3115 L -39.1075,-17.533 L -38.7773,-17.7145 L -38.427,-17.8532 L -38.0621,-17.9469
 L -37.6884,-17.9941 L -37.3116,-17.9941 L -36.9379,-17.9469 L -36.5729,-17.8532 L -36.2227,-17.7145 L -35.8925,-17.533
 L -35.5877,-17.3115 L -35.3131,-17.0536 L -35.0729,-16.7634 L -34.8711,-16.4453 L -34.7107,-16.1044 L -34.5942,-15.7461
 L -34.5237,-15.376 L -34.5,-15 L -34.5237,-14.624 L -34.5942,-14.2539 L -34.7107,-13.8956 L -34.8711,-13.5547
 L -35.0254,-13.3116 L -33.6111,-14.6397 L -31.6807,-16.0422 L -29.5898,-17.1917 L -27.3713,-18.0701 L -25.0602,-18.6635
 L -22.693,-18.9625 L -20.307,-18.9625 L -17.9397,-18.6635 L -15.6287,-18.0701 L -13.4102,-17.1917 L -11.3193,-16.0422
 L -9.38893,-14.6397 L -7.64958,-13.0064 L -6.12866,-11.1679 L -4.85016,-9.15331 L -3.83424,-6.99435 L -3.09691,-4.7251
 L -2.64981,-2.38132 L -2.5,-0 L -2.64981,2.38132 L -3.09691,4.7251 L -3.83424,6.99435 L -4.85016,9.15331
 L -6.12866,11.1679 L -7.64958,13.0064 L -9.38893,14.6397 L -11.3193,16.0422 L -13.4102,17.1917 L -15.6287,18.0701
 L -17.9397,18.6635 L -20.307,18.9625 z
" stroke="black" fill="lightgray" stroke-width="0.5"/>
</svg>
