<?xml version="1.0" standalone="no"?>
<!DOCTYPE svg PUBLIC "-//W3C//DTD SVG 1.1//EN" "http://www.w3.org/Graphics/SVG/1.1/DTD/svg11.dtd">
<svg width="74mm" height="14mm" viewBox="-37 -7 74 14" xmlns="http://www.w3.org/2000/svg" version="1.1">
<title>OpenSCAD Model</title>
<path d="
M 32.9369,6.91142 L 33.5451,6.75528 L 34.1289,6.52412 L 34.6791,6.22163 L 35.1871,5.85255 L 35.6448,5.42273
 L 36.0451,4.93892 L 36.3815,4.40877 L 36.6489,3.84062 L 36.8429,3.24344 L 36.9606,2.62666 L 37,2
 L 37,-2 L 36.9606,-2.62666 L 36.8429,-3.24344 L 36.6489,-3.84062 L 36.3815,-4.40877 L 36.0451,-4.93892
 L 35.6448,-5.42273 L 35.1871,-5.85255 L 34.6791,-6.22163 L 34.1289,-6.52412 L 33.5451,-6.75528 L 32.9369,-6.91142
 L 32.3139,-6.99013 L -32.3139,-6.99013 L -32.9369,-6.91142 L -33.5451,-6.75528 L -34.1289,-6.52412 L -34.6791,-6.22163
 L -35.1871,-5.85255 L -35.6448,-5.42273 L -36.0451,-4.93892 L -36.3815,-4.40877 L -36.6489,-3.84062 L -36.8429,-3.24344
 L -36.9606,-2.62666 L -37,-2 L -37,2 L -36.9606,2.62666 L -36.8429,3.24344 L -36.6489,3.84062
 L -36.3815,4.40877 L -36.0451,4.93892 L -35.6448,5.42273 L -35.1871,5.85255 L -34.6791,6.22163 L -34.1289,6.52412
 L -33.5451,6.75528 L -32.9369,6.91142 L -32.3139,6.99013 L 32.3139,6.99013 z
M 11.7802,3.49309 L 11.3442,3.438 L 10.9184,3.32869 L 10.5098,3.16689 L 10.1246,2.95514 L 9.76901,2.69679
 L 9.44861,2.3959 L 9.16843,2.05724 L 8.93292,1.68613 L 8.74577,1.28842 L 8.60995,0.870407 L 8.52759,0.43866
 L 8.5,-0 L 8.52759,-0.43866 L 8.60995,-0.870407 L 8.74577,-1.28842 L 8.93292,-1.68613 L 9.16843,-2.05724
 L 9.44861,-2.3959 L 9.76901,-2.69679 L 10.1246,-2.95514 L 10.5098,-3.16689 L 10.9184,-3.32869 L 11.3442,-3.438
 L 11.7802,-3.49309 L 12.2198,-3.49309 L 12.6558,-3.438 L 13.0816,-3.32869 L 13.4902,-3.16689 L 13.8754,-2.95514
 L 14.231,-2.69679 L 14.5514,-2.3959 L 14.8316,-2.05724 L 15.0671,-1.68613 L 15.2542,-1.28842 L 15.39,-0.870407
 L 15.4724,-0.43866 L 15.5,-0 L 15.4724,0.43866 L 15.39,0.870407 L 15.2542,1.28842 L 15.0671,1.68613
 L 14.8316,2.05724 L 14.5514,2.3959 L 14.231,2.69679 L 13.8754,2.95514 L 13.4902,3.16689 L 13.0816,3.32869
 L 12.6558,3.438 L 12.2198,3.49309 z
M -24.2198,3.49309 L -24.6558,3.438 L -25.0816,3.32869 L -25.4902,3.16689 L -25.8754,2.95514 L -26.231,2.69679
 L -26.5514,2.3959 L -26.8316,2.05724 L -27.0671,1.68613 L -27.2542,1.28842 L -27.2718,1.23428 L -27.3711,1.44525
 L -27.5729,1.76335 L -27.8131,2.05363 L -28.0877,2.31154 L -28.3925,2.53297 L -28.7227,2.71448 L -29.0729,2.85316
 L -29.4379,2.94685 L -29.8116,2.99408 L -30.1884,2.99408 L -30.5621,2.94685 L -30.927,2.85316 L -31.2773,2.71448
 L -31.6075,2.53297 L -31.9123,2.31154 L -32.1869,2.05363 L -32.427,1.76335 L -32.6289,1.44525 L -32.7893,1.10437
 L -32.9057,0.746063 L -32.9763,0.375992 L -33,-0 L -32.9763,-0.375992 L -32.9057,-0.746063 L -32.7893,-1.10437
 L -32.6289,-1.44525 L -32.427,-1.76335 L -32.1869,-2.05363 L -31.9123,-2.31154 L -31.6075,-2.53297 L -31.2773,-2.71448
 L -30.927,-2.85316 L -30.5621,-2.94685 L -30.1884,-2.99408 L -29.8116,-2.99408 L -29.4379,-2.94685 L -29.0729,-2.85316
 L -28.7227,-2.71448 L -28.3925,-2.53297 L -28.0877,-2.31154 L -27.8131,-2.05363 L -27.5729,-1.76335 L -27.3711,-1.44525
 L -27.2718,-1.23428 L -27.2542,-1.28842 L -27.0671,-1.68613 L -26.8316,-2.05724 L -26.5514,-2.3959 L -26.231,-2.69679
 L -25.8754,-2.95514 L -25.4902,-3.16689 L -25.0816,-3.32869 L -24.6558,-3.438 L -24.2198,-3.49309 L -23.7802,-3.49309
 L -23.3442,-3.438 L -22.9184,-3.32869 L -22.5098,-3.16689 L -22.1246,-2.95514 L -21.769,-2.69679 L -21.4486,-2.3959
 L -21.1684,-2.05724 L -20.9329,-1.68613 L -20.7458,-1.28842 L -20.61,-0.870407 L -20.5276,-0.43866 L -20.5,-0
 L -20.5276,0.43866 L -20.61,0.870407 L -20.7458,1.28842 L -20.9329,1.68613 L -21.1684,2.05724 L -21.4486,2.3959
 L -21.769,2.69679 L -22.1246,2.95514 L -22.5098,3.16689 L -22.9184,3.32869 L -23.3442,3.438 L -23.7802,3.49309
 z
M -0.219757,3.49309 L -0.655823,3.438 L -1.08156,3.32869 L -1.49022,3.16689 L -1.87538,2.95514 L -2.23097,2.69679
 L -2.55138,2.3959 L -2.83156,2.05724 L -3.06706,1.68613 L -3.25421,1.28842 L -3.39003,0.870407 L -3.4724,0.43866
 L -3.5,-0 L -3.4724,-0.43866 L -3.39003,-0.870407 L -3.25421,-1.28842 L -3.06706,-1.68613 L -2.83156,-2.05724
 L -2.55138,-2.3959 L -2.23097,-2.69679 L -1.87538,-2.95514 L -1.49022,-3.16689 L -1.08156,-3.32869 L -0.655823,-3.438
 L -0.219757,-3.49309 L 0.219757,-3.49309 L 0.655823,-3.438 L 1.08156,-3.32869 L 1.49022,-3.16689 L 1.87538,-2.95514
 L 2.23097,-2.69679 L 2.55138,-2.3959 L 2.83156,-2.05724 L 3.06706,-1.68613 L 3.25421,-1.28842 L 3.39003,-0.870407
 L 3.4724,-0.43866 L 3.5,-0 L 3.4724,0.43866 L 3.39003,0.870407 L 3.25421,1.28842 L 3.06706,1.68613
 L 2.83156,2.05724 L 2.55138,2.3959 L 2.23097,2.69679 L 1.87538,2.95514 L 1.49022,3.16689 L 1.08156,3.32869
 L 0.655823,3.438 L 0.219757,3.49309 z
M -12.2198,3.49309 L -12.6558,3.438 L -13.0816,3.32869 L -13.4902,3.16689 L -13.8754,2.95514 L -14.231,2.69679
 L -14.5514,2.3959 L -14.8316,2.05724 L -15.0671,1.68613 L -15.2542,1.28842 L -15.39,0.870407 L -15.4724,0.43866
 L -15.5,-0 L -15.4724,-0.43866 L -15.39,-0.870407 L -15.2542,-1.28842 L -15.0671,-1.68613 L -14.8316,-2.05724
 L -14.5514,-2.3959 L -14.231,-2.69679 L -13.8754,-2.95514 L -13.4902,-3.16689 L -13.0816,-3.32869 L -12.6558,-3.438
 L -12.2198,-3.49309 L -11.7802,-3.49309 L -11.3442,-3.438 L -10.9184,-3.32869 L -10.5098,-3.16689 L -10.1246,-2.95514
 L -9.76901,-2.69679 L -9.44861,-2.3959 L -9.16843,-2.05724 L -8.93292,-1.68613 L -8.74577,-1.28842 L -8.60995,-0.870407
 L -8.52759,-0.43866 L -8.5,-0 L -8.52759,0.43866 L -8.60995,0.870407 L -8.74577,1.28842 L -8.93292,1.68613
 L -9.16843,2.05724 L -9.44861,2.3959 L -9.76901,2.69679 L -10.1246,2.95514 L -10.5098,3.16689 L -10.9184,3.32869
 L -11.3442,3.438 L -11.7802,3.49309 z
M 23.7802,3.49309 L 23.3442,3.438 L 22.9184,3.32869 L 22.5098,3.16689 L 22.1246,2.95514 L 21.769,2.69679
 L 21.4486,2.3959 L 21.1684,2.05724 L 20.9329,1.68613 L 20.7458,1.28842 L 20.61,0.870407 L 20.5276,0.43866
 L 20.5,-0 L 20.5276,-0.43866 L 20.61,-0.870407 L 20.7458,-1.28842 L 20.9329,-1.68613 L 21.1684,-2.05724
 L 21.4486,-2.3959 L 21.769,-2.69679 L 22.1246,-2.95514 L 22.5098,-3.16689 L 22.9184,-3.32869 L 23.3442,-3.438
 L 23.7802,-3.49309 L 24.2198,-3.49309 L 24.6558,-3.438 L 25.0816,-3.32869 L 25.4902,-3.16689 L 25.8754,-2.95514
 L 26.231,-2.69679 L 26.5514,-2.3959 L 26.8316,-2.05724 L 27.0671,-1.68613 L 27.2542,-1.28842 L 27.2718,-1.23428
 L 27.3711,-1.44525 L 27.5729,-1.76335 L 27.8131,-2.05363 L 28.0877,-2.31154 L 28.3925,-2.53297 L 28.7227,-2.71448
 L 29.0729,-2.85316 L 29.4379,-2.94685 L 29.8116,-2.99408 L 30.1884,-2.99408 L 30.5621,-2.94685 L 30.927,-2.85316
 L 31.2773,-2.71448 L 31.6075,-2.53297 L 31.9123,-2.31154 L 32.1869,-2.05363 L 32.427,-1.76335 L 32.6289,-1.44525
 L 32.7893,-1.10437 L 32.9057,-0.746063 L 32.9763,-0.375992 L 33,-0 L 32.9763,0.375992 L 32.9057,0.746063
 L 32.7893,1.10437 L 32.6289,1.44525 L 32.427,1.76335 L 32.1869,2.05363 L 31.9123,2.31154 L 31.6075,2.53297
 L 31.2773,2.71448 L 30.927,2.85316 L 30.5621,2.94685 L 30.1884,2.99408 L 29.8116,2.99408 L 29.4379,2.94685
 L 29.0729,2.85316 L 28.7227,2.71448 L 28.3925,2.53297 L 28.0877,2.31154 L 27.8131,2.05363 L 27.5729,1.76335
 L 27.3711,1.44525 L 27.2718,1.23428 L 27.2542,1.28842 L 27.0671,1.68613 L 26.8316,2.05724 L 26.5514,2.3959
 L 26.231,2.69679 L 25.8754,2.95514 L 25.4902,3.16689 L 25.0816,3.32869 L 24.6558,3.438 L 24.2198,3.49309
 z
" stroke="black" fill="lightgray" stroke-width="0.5"/>
</svg>
