<?xml version="1.0" standalone="no"?>
<!DOCTYPE svg PUBLIC "-//W3C//DTD SVG 1.1//EN" "http://www.w3.org/Graphics/SVG/1.1/DTD/svg11.dtd">
<svg width="104mm" height="30mm" viewBox="-52 -54 104 30" xmlns="http://www.w3.org/2000/svg" version="1.1">
<title>OpenSCAD Model</title>
<path d="
M 47.9369,-24.5886 L 48.5451,-24.7447 L 49.1289,-24.9759 L 49.6791,-25.2784 L 50.1871,-25.6474 L 50.6448,-26.0773
 L 51.0451,-26.5611 L 51.3815,-27.0912 L 51.6489,-27.6594 L 51.8429,-28.2566 L 51.9606,-28.8733 L 52,-29.5
 L 52,-48.5 L 51.9606,-49.1267 L 51.8429,-49.7434 L 51.6489,-50.3406 L 51.3815,-50.9088 L 51.0451,-51.4389
 L 50.6448,-51.9227 L 50.1871,-52.3526 L 49.6791,-52.7216 L 49.1289,-53.0241 L 48.5451,-53.2553 L 47.9369,-53.4114
 L 47.3139,-53.4901 L -47.3139,-53.4901 L -47.9369,-53.4114 L -48.5451,-53.2553 L -49.1289,-53.0241 L -49.6791,-52.7216
 L -50.1871,-52.3526 L -50.6448,-51.9227 L -51.0451,-51.4389 L -51.3815,-50.9088 L -51.6489,-50.3406 L -51.8429,-49.7434
 L -51.9606,-49.1267 L -52,-48.5 L -52,-29.5 L -51.9606,-28.8733 L -51.8429,-28.2566 L -51.6489,-27.6594
 L -51.3815,-27.0912 L -51.0451,-26.5611 L -50.6448,-26.0773 L -50.1871,-25.6474 L -49.6791,-25.2784 L -49.1289,-24.9759
 L -48.5451,-24.7447 L -47.9369,-24.5886 L -47.3139,-24.5099 L 47.3139,-24.5099 z
M 44.8116,-28.5059 L 44.4379,-28.5531 L 44.0729,-28.6468 L 43.7227,-28.7855 L 43.3925,-28.967 L 43.0877,-29.1885
 L 42.8131,-29.4464 L 42.5729,-29.7366 L 42.3711,-30.0547 L 42.2107,-30.3956 L 42.0942,-30.7539 L 42.0237,-31.124
 L 42,-31.5 L 42.0182,-31.7902 L 41.4053,-31.6329 L 40.4709,-31.5148 L 39.5291,-31.5148 L 38.5946,-31.6329
 L 37.6824,-31.8671 L 36.8067,-32.2138 L 35.9813,-32.6675 L 35.2193,-33.2212 L 34.5327,-33.8659 L 33.9324,-34.5916
 L 33.4277,-35.3869 L 33.0267,-36.2391 L 32.7356,-37.1348 L 32.5591,-38.06 L 32.5,-39 L 32.5591,-39.94
 L 32.7356,-40.8652 L 33.0267,-41.7609 L 33.4277,-42.6131 L 33.9324,-43.4084 L 34.5327,-44.1341 L 35.2193,-44.7788
 L 35.9813,-45.3325 L 36.8067,-45.7862 L 37.6824,-46.1329 L 38.5946,-46.3671 L 39.5291,-46.4852 L 40.4709,-46.4852
 L 41.4053,-46.3671 L 42.0182,-46.2098 L 42,-46.5 L 42.0237,-46.876 L 42.0942,-47.2461 L 42.2107,-47.6044
 L 42.3711,-47.9453 L 42.5729,-48.2634 L 42.8131,-48.5536 L 43.0877,-48.8115 L 43.3925,-49.033 L 43.7227,-49.2145
 L 44.0729,-49.3532 L 44.4379,-49.4469 L 44.8116,-49.4941 L 45.1884,-49.4941 L 45.5621,-49.4469 L 45.927,-49.3532
 L 46.2773,-49.2145 L 46.6075,-49.033 L 46.9123,-48.8115 L 47.1869,-48.5536 L 47.427,-48.2634 L 47.6289,-47.9453
 L 47.7893,-47.6044 L 47.9057,-47.2461 L 47.9763,-46.876 L 48,-46.5 L 47.9763,-46.124 L 47.9057,-45.7539
 L 47.7893,-45.3956 L 47.6289,-45.0547 L 47.427,-44.7366 L 47.1869,-44.4464 L 46.9123,-44.1884 L 46.6075,-43.967
 L 46.2773,-43.7855 L 45.927,-43.6468 L 45.8803,-43.6348 L 46.0676,-43.4084 L 46.5723,-42.6131 L 46.9733,-41.7609
 L 47.2644,-40.8652 L 47.4409,-39.94 L 47.5,-39 L 47.4409,-38.06 L 47.2644,-37.1348 L 46.9733,-36.2391
 L 46.5723,-35.3869 L 46.0676,-34.5916 L 45.8803,-34.3652 L 45.927,-34.3532 L 46.2773,-34.2145 L 46.6075,-34.033
 L 46.9123,-33.8116 L 47.1869,-33.5536 L 47.427,-33.2634 L 47.6289,-32.9453 L 47.7893,-32.6044 L 47.9057,-32.2461
 L 47.9763,-31.876 L 48,-31.5 L 47.9763,-31.124 L 47.9057,-30.7539 L 47.7893,-30.3956 L 47.6289,-30.0547
 L 47.427,-29.7366 L 47.1869,-29.4464 L 46.9123,-29.1885 L 46.6075,-28.967 L 46.2773,-28.7855 L 45.927,-28.6468
 L 45.5621,-28.5531 L 45.1884,-28.5059 z
M -45.1884,-28.5059 L -45.5621,-28.5531 L -45.927,-28.6468 L -46.2773,-28.7855 L -46.6075,-28.967 L -46.9123,-29.1885
 L -47.1869,-29.4464 L -47.427,-29.7366 L -47.6289,-30.0547 L -47.7893,-30.3956 L -47.9057,-30.7539 L -47.9763,-31.124
 L -48,-31.5 L -47.9763,-31.876 L -47.9057,-32.2461 L -47.7893,-32.6044 L -47.6289,-32.9453 L -47.427,-33.2634
 L -47.1869,-33.5536 L -46.9123,-33.8116 L -46.6075,-34.033 L -46.2773,-34.2145 L -45.927,-34.3532 L -45.8803,-34.3652
 L -46.0676,-34.5916 L -46.5723,-35.3869 L -46.9733,-36.2391 L -47.2644,-37.1348 L -47.4409,-38.06 L -47.5,-39
 L -47.4409,-39.94 L -47.2644,-40.8652 L -46.9733,-41.7609 L -46.5723,-42.6131 L -46.0676,-43.4084 L -45.8803,-43.6348
 L -45.927,-43.6468 L -46.2773,-43.7855 L -46.6075,-43.967 L -46.9123,-44.1884 L -47.1869,-44.4464 L -47.427,-44.7366
 L -47.6289,-45.0547 L -47.7893,-45.3956 L -47.9057,-45.7539 L -47.9763,-46.124 L -48,-46.5 L -47.9763,-46.876
 L -47.9057,-47.2461 L -47.7893,-47.6044 L -47.6289,-47.9453 L -47.427,-48.2634 L -47.1869,-48.5536 L -46.9123,-48.8115
 L -46.6075,-49.033 L -46.2773,-49.2145 L -45.927,-49.3532 L -45.5621,-49.4469 L -45.1884,-49.4941 L -44.8116,-49.4941
 L -44.4379,-49.4469 L -44.0729,-49.3532 L -43.7227,-49.2145 L -43.3925,-49.033 L -43.0877,-48.8115 L -42.8131,-48.5536
 L -42.5729,-48.2634 L -42.3711,-47.9453 L -42.2107,-47.6044 L -42.0942,-47.2461 L -42.0237,-46.876 L -42,-46.5
 L -42.0182,-46.2098 L -41.4053,-46.3671 L -40.4709,-46.4852 L -39.5291,-46.4852 L -38.5946,-46.3671 L -37.6824,-46.1329
 L -36.8067,-45.7862 L -35.9813,-45.3325 L -35.2193,-44.7788 L -34.5327,-44.1341 L -33.9324,-43.4084 L -33.4277,-42.6131
 L -33.0267,-41.7609 L -32.7356,-40.8652 L -32.5591,-39.94 L -32.5,-39 L -32.5591,-38.06 L -32.7356,-37.1348
 L -33.0267,-36.2391 L -33.4277,-35.3869 L -33.9324,-34.5916 L -34.5327,-33.8659 L -35.2193,-33.2212 L -35.9813,-32.6675
 L -36.8067,-32.2138 L -37.6824,-31.8671 L -38.5946,-31.6329 L -39.5291,-31.5148 L -40.4709,-31.5148 L -41.4053,-31.6329
 L -42.0182,-31.7902 L -42,-31.5 L -42.0237,-31.124 L -42.0942,-30.7539 L -42.2107,-30.3956 L -42.3711,-30.0547
 L -42.5729,-29.7366 L -42.8131,-29.4464 L -43.0877,-29.1885 L -43.3925,-28.967 L -43.7227,-28.7855 L -44.0729,-28.6468
 L -44.4379,-28.5531 L -44.8116,-28.5059 z
M 19.5291,-31.5148 L 18.5946,-31.6329 L 17.6824,-31.8671 L 16.8067,-32.2138 L 15.9813,-32.6675 L 15.2193,-33.2212
 L 14.5327,-33.8659 L 13.9324,-34.5916 L 13.4277,-35.3869 L 13.0267,-36.2391 L 12.7356,-37.1348 L 12.5591,-38.06
 L 12.5,-39 L 12.5591,-39.94 L 12.7356,-40.8652 L 13.0267,-41.7609 L 13.4277,-42.6131 L 13.9324,-43.4084
 L 14.5327,-44.1341 L 15.2193,-44.7788 L 15.9813,-45.3325 L 16.8067,-45.7862 L 17.6824,-46.1329 L 18.5946,-46.3671
 L 19.5291,-46.4852 L 20.4709,-46.4852 L 21.4053,-46.3671 L 22.3176,-46.1329 L 23.1933,-45.7862 L 24.0187,-45.3325
 L 24.7807,-44.7788 L 25.4673,-44.1341 L 26.0676,-43.4084 L 26.5723,-42.6131 L 26.9733,-41.7609 L 27.2644,-40.8652
 L 27.4409,-39.94 L 27.5,-39 L 27.4409,-38.06 L 27.2644,-37.1348 L 26.9733,-36.2391 L 26.5723,-35.3869
 L 26.0676,-34.5916 L 25.4673,-33.8659 L 24.7807,-33.2212 L 24.0187,-32.6675 L 23.1933,-32.2138 L 22.3176,-31.8671
 L 21.4053,-31.6329 L 20.4709,-31.5148 z
M -20.4709,-31.5148 L -21.4053,-31.6329 L -22.3176,-31.8671 L -23.1933,-32.2138 L -24.0187,-32.6675 L -24.7807,-33.2212
 L -25.4673,-33.8659 L -26.0676,-34.5916 L -26.5723,-35.3869 L -26.9733,-36.2391 L -27.2644,-37.1348 L -27.4409,-38.06
 L -27.5,-39 L -27.4409,-39.94 L -27.2644,-40.8652 L -26.9733,-41.7609 L -26.5723,-42.6131 L -26.0676,-43.4084
 L -25.4673,-44.1341 L -24.7807,-44.7788 L -24.0187,-45.3325 L -23.1933,-45.7862 L -22.3176,-46.1329 L -21.4053,-46.3671
 L -20.4709,-46.4852 L -19.5291,-46.4852 L -18.5946,-46.3671 L -17.6824,-46.1329 L -16.8067,-45.7862 L -15.9813,-45.3325
 L -15.2193,-44.7788 L -14.5327,-44.1341 L -13.9324,-43.4084 L -13.4277,-42.6131 L -13.0267,-41.7609 L -12.7356,-40.8652
 L -12.5591,-39.94 L -12.5,-39 L -12.5591,-38.06 L -12.7356,-37.1348 L -13.0267,-36.2391 L -13.4277,-35.3869
 L -13.9324,-34.5916 L -14.5327,-33.8659 L -15.2193,-33.2212 L -15.9813,-32.6675 L -16.8067,-32.2138 L -17.6824,-31.8671
 L -18.5946,-31.6329 L -19.5291,-31.5148 z
M -0.470917,-31.5148 L -1.40535,-31.6329 L -2.31763,-31.8671 L -3.19334,-32.2138 L -4.01869,-32.6675 L -4.78067,-33.2212
 L -5.46725,-33.8659 L -6.06763,-34.5916 L -6.5723,-35.3869 L -6.97331,-36.2391 L -7.26436,-37.1348 L -7.44086,-38.06
 L -7.5,-39 L -7.44086,-39.94 L -7.26436,-40.8652 L -6.97331,-41.7609 L -6.5723,-42.6131 L -6.06763,-43.4084
 L -5.46725,-44.1341 L -4.78067,-44.7788 L -4.01869,-45.3325 L -3.19334,-45.7862 L -2.31763,-46.1329 L -1.40535,-46.3671
 L -0.470917,-46.4852 L 0.470917,-46.4852 L 1.40535,-46.3671 L 2.31763,-46.1329 L 3.19334,-45.7862 L 4.01869,-45.3325
 L 4.78067,-44.7788 L 5.46725,-44.1341 L 6.06763,-43.4084 L 6.5723,-42.6131 L 6.97331,-41.7609 L 7.26436,-40.8652
 L 7.44086,-39.94 L 7.5,-39 L 7.44086,-38.06 L 7.26436,-37.1348 L 6.97331,-36.2391 L 6.5723,-35.3869
 L 6.06763,-34.5916 L 5.46725,-33.8659 L 4.78067,-33.2212 L 4.01869,-32.6675 L 3.19334,-32.2138 L 2.31763,-31.8671
 L 1.40535,-31.6329 L 0.470917,-31.5148 z
" stroke="black" fill="lightgray" stroke-width="0.5"/>
</svg>
