<?xml version="1.0" standalone="no"?>
<!DOCTYPE svg PUBLIC "-//W3C//DTD SVG 1.1//EN" "http://www.w3.org/Graphics/SVG/1.1/DTD/svg11.dtd">
<svg width="420mm" height="104mm" viewBox="-210 -52 420 104" xmlns="http://www.w3.org/2000/svg" version="1.1">
<title>OpenSCAD Model</title>
<path d="
M 205.437,51.9114 L 206.045,51.7553 L 206.629,51.5241 L 207.179,51.2216 L 207.687,50.8526 L 208.145,50.4227
 L 208.545,49.9389 L 208.882,49.4088 L 209.149,48.8406 L 209.343,48.2434 L 209.461,47.6267 L 209.5,47
 L 209.5,-47 L 209.461,-47.6267 L 209.343,-48.2434 L 209.149,-48.8406 L 208.882,-49.4088 L 208.545,-49.9389
 L 208.145,-50.4227 L 207.687,-50.8526 L 207.179,-51.2216 L 206.629,-51.5241 L 206.045,-51.7553 L 205.437,-51.9114
 L 204.814,-51.9901 L -204.814,-51.9901 L -205.437,-51.9114 L -206.045,-51.7553 L -206.629,-51.5241 L -207.179,-51.2216
 L -207.687,-50.8526 L -208.145,-50.4227 L -208.545,-49.9389 L -208.882,-49.4088 L -209.149,-48.8406 L -209.343,-48.2434
 L -209.461,-47.6267 L -209.5,-47 L -209.5,47 L -209.461,47.6267 L -209.343,48.2434 L -209.149,48.8406
 L -208.882,49.4088 L -208.545,49.9389 L -208.145,50.4227 L -207.687,50.8526 L -207.179,51.2216 L -206.629,51.5241
 L -206.045,51.7553 L -205.437,51.9114 L -204.814,51.9901 L 204.814,51.9901 z
M -202.688,-42.0059 L -203.062,-42.0531 L -203.427,-42.1468 L -203.777,-42.2855 L -204.107,-42.467 L -204.412,-42.6885
 L -204.687,-42.9464 L -204.927,-43.2366 L -205.129,-43.5547 L -205.289,-43.8956 L -205.406,-44.2539 L -205.476,-44.624
 L -205.5,-45 L -205.476,-45.376 L -205.406,-45.7461 L -205.289,-46.1044 L -205.129,-46.4453 L -204.927,-46.7634
 L -204.687,-47.0536 L -204.412,-47.3115 L -204.107,-47.533 L -203.777,-47.7145 L -203.427,-47.8532 L -203.062,-47.9469
 L -202.688,-47.9941 L -202.312,-47.9941 L -201.938,-47.9469 L -201.573,-47.8532 L -201.223,-47.7145 L -200.893,-47.533
 L -200.588,-47.3115 L -200.313,-47.0536 L -200.073,-46.7634 L -199.871,-46.4453 L -199.711,-46.1044 L -199.594,-45.7461
 L -199.524,-45.376 L -199.5,-45 L -199.524,-44.624 L -199.594,-44.2539 L -199.711,-43.8956 L -199.871,-43.5547
 L -200.073,-43.2366 L -200.313,-42.9464 L -200.588,-42.6885 L -200.893,-42.467 L -201.223,-42.2855 L -201.573,-42.1468
 L -201.938,-42.0531 L -202.312,-42.0059 z
M 202.312,-42.0059 L 201.938,-42.0531 L 201.573,-42.1468 L 201.223,-42.2855 L 200.893,-42.467 L 200.588,-42.6885
 L 200.313,-42.9464 L 200.073,-43.2366 L 199.871,-43.5547 L 199.711,-43.8956 L 199.594,-44.2539 L 199.524,-44.624
 L 199.5,-45 L 199.524,-45.376 L 199.594,-45.7461 L 199.711,-46.1044 L 199.871,-46.4453 L 200.073,-46.7634
 L 200.313,-47.0536 L 200.588,-47.3115 L 200.893,-47.533 L 201.223,-47.7145 L 201.573,-47.8532 L 201.938,-47.9469
 L 202.312,-47.9941 L 202.688,-47.9941 L 203.062,-47.9469 L 203.427,-47.8532 L 203.777,-47.7145 L 204.107,-47.533
 L 204.412,-47.3115 L 204.687,-47.0536 L 204.927,-46.7634 L 205.129,-46.4453 L 205.289,-46.1044 L 205.406,-45.7461
 L 205.476,-45.376 L 205.5,-45 L 205.476,-44.624 L 205.406,-44.2539 L 205.289,-43.8956 L 205.129,-43.5547
 L 204.927,-43.2366 L 204.687,-42.9464 L 204.412,-42.6885 L 204.107,-42.467 L 203.777,-42.2855 L 203.427,-42.1468
 L 203.062,-42.0531 L 202.688,-42.0059 z
M -152.983,47.4063 L -158.901,46.6586 L -164.678,45.1752 L -170.225,42.9793 L -175.452,40.1056 L -180.278,36.5994
 L -184.626,32.516 L -188.428,27.9198 L -191.625,22.8833 L -194.164,17.4859 L -196.008,11.8128 L -197.125,5.95332
 L -197.5,-0 L -197.125,-5.95332 L -196.008,-11.8128 L -194.164,-17.4859 L -191.625,-22.8833 L -188.428,-27.9198
 L -184.626,-32.516 L -180.278,-36.5994 L -175.452,-40.1056 L -170.225,-42.9793 L -164.678,-45.1752 L -158.901,-46.6586
 L -152.983,-47.4063 L -147.017,-47.4063 L -141.099,-46.6586 L -135.322,-45.1752 L -129.775,-42.9793 L -124.548,-40.1056
 L -119.722,-36.5994 L -115.374,-32.516 L -111.572,-27.9198 L -108.375,-22.8833 L -105.836,-17.4859 L -103.992,-11.8128
 L -102.875,-5.95332 L -102.5,-0 L -102.875,5.95332 L -103.992,11.8128 L -105.836,17.4859 L -108.375,22.8833
 L -111.572,27.9198 L -115.374,32.516 L -119.722,36.5994 L -124.548,40.1056 L -129.775,42.9793 L -135.322,45.1752
 L -141.099,46.6586 L -147.017,47.4063 z
M 47.0174,47.4063 L 41.0994,46.6586 L 35.3217,45.1752 L 29.7755,42.9793 L 24.5482,40.1056 L 19.7224,36.5994
 L 15.374,32.516 L 11.5717,27.9198 L 8.37543,22.8833 L 5.8356,17.4859 L 3.99229,11.8128 L 2.87454,5.95332
 L 2.5,-0 L 2.87454,-5.95332 L 3.99229,-11.8128 L 5.8356,-17.4859 L 8.37543,-22.8833 L 11.5717,-27.9198
 L 15.374,-32.516 L 19.7224,-36.5994 L 24.5482,-40.1056 L 29.7755,-42.9793 L 35.3217,-45.1752 L 41.0994,-46.6586
 L 47.0174,-47.4063 L 52.9825,-47.4063 L 58.9006,-46.6586 L 64.6783,-45.1752 L 70.2245,-42.9793 L 75.4518,-40.1056
 L 80.2776,-36.5994 L 84.626,-32.516 L 88.4283,-27.9198 L 91.6246,-22.8833 L 94.1644,-17.4859 L 96.0077,-11.8128
 L 97.1254,-5.95332 L 97.5,-0 L 97.1254,5.95332 L 96.0077,11.8128 L 94.1644,17.4859 L 91.6246,22.8833
 L 88.4283,27.9198 L 84.626,32.516 L 80.2776,36.5994 L 75.4518,40.1056 L 70.2245,42.9793 L 64.6783,45.1752
 L 58.9006,46.6586 L 52.9825,47.4063 z
M -52.9825,47.4063 L -58.9006,46.6586 L -64.6783,45.1752 L -70.2245,42.9793 L -75.4518,40.1056 L -80.2776,36.5994
 L -84.626,32.516 L -88.4283,27.9198 L -91.6246,22.8833 L -94.1644,17.4859 L -96.0077,11.8128 L -97.1254,5.95332
 L -97.5,-0 L -97.1254,-5.95332 L -96.0077,-11.8128 L -94.1644,-17.4859 L -91.6246,-22.8833 L -88.4283,-27.9198
 L -84.626,-32.516 L -80.2776,-36.5994 L -75.4518,-40.1056 L -70.2245,-42.9793 L -64.6783,-45.1752 L -58.9006,-46.6586
 L -52.9825,-47.4063 L -47.0174,-47.4063 L -41.0994,-46.6586 L -35.3217,-45.1752 L -29.7755,-42.9793 L -24.5482,-40.1056
 L -19.7224,-36.5994 L -15.374,-32.516 L -11.5717,-27.9198 L -8.37543,-22.8833 L -5.8356,-17.4859 L -3.99229,-11.8128
 L -2.87454,-5.95332 L -2.5,-0 L -2.87454,5.95332 L -3.99229,11.8128 L -5.8356,17.4859 L -8.37543,22.8833
 L -11.5717,27.9198 L -15.374,32.516 L -19.7224,36.5994 L -24.5482,40.1056 L -29.7755,42.9793 L -35.3217,45.1752
 L -41.0994,46.6586 L -47.0174,47.4063 z
M 147.017,47.4063 L 141.099,46.6586 L 135.322,45.1752 L 129.775,42.9793 L 124.548,40.1056 L 119.722,36.5994
 L 115.374,32.516 L 111.572,27.9198 L 108.375,22.8833 L 105.836,17.4859 L 103.992,11.8128 L 102.875,5.95332
 L 102.5,-0 L 102.875,-5.95332 L 103.992,-11.8128 L 105.836,-17.4859 L 108.375,-22.8833 L 111.572,-27.9198
 L 115.374,-32.516 L 119.722,-36.5994 L 124.548,-40.1056 L 129.775,-42.9793 L 135.322,-45.1752 L 141.099,-46.6586
 L 147.017,-47.4063 L 152.983,-47.4063 L 158.901,-46.6586 L 164.678,-45.1752 L 170.225,-42.9793 L 175.452,-40.1056
 L 180.278,-36.5994 L 184.626,-32.516 L 188.428,-27.9198 L 191.625,-22.8833 L 194.164,-17.4859 L 196.008,-11.8128
 L 197.125,-5.95332 L 197.5,-0 L 197.125,5.95332 L 196.008,11.8128 L 194.164,17.4859 L 191.625,22.8833
 L 188.428,27.9198 L 184.626,32.516 L 180.278,36.5994 L 175.452,40.1056 L 170.225,42.9793 L 164.678,45.1752
 L 158.901,46.6586 L 152.983,47.4063 z
M 202.406,-36.003 L 202.219,-36.0266 L 202.036,-36.0734 L 201.861,-36.1428 L 201.696,-36.2335 L 201.544,-36.3442
 L 201.407,-36.4732 L 201.286,-36.6183 L 201.186,-36.7774 L 201.105,-36.9478 L 201.047,-37.127 L 201.012,-37.312
 L 201,-37.5 L 201.012,-37.688 L 201.047,-37.873 L 201.105,-38.0522 L 201.186,-38.2226 L 201.286,-38.3817
 L 201.407,-38.5268 L 201.544,-38.6558 L 201.696,-38.7665 L 201.861,-38.8572 L 202.036,-38.9266 L 202.219,-38.9734
 L 202.406,-38.997 L 202.594,-38.997 L 202.781,-38.9734 L 202.964,-38.9266 L 203.139,-38.8572 L 203.304,-38.7665
 L 203.456,-38.6558 L 203.593,-38.5268 L 203.714,-38.3817 L 203.814,-38.2226 L 203.895,-38.0522 L 203.953,-37.873
 L 203.988,-37.688 L 204,-37.5 L 203.988,-37.312 L 203.953,-37.127 L 203.895,-36.9478 L 203.814,-36.7774
 L 203.714,-36.6183 L 203.593,-36.4732 L 203.456,-36.3442 L 203.304,-36.2335 L 203.139,-36.1428 L 202.964,-36.0734
 L 202.781,-36.0266 L 202.594,-36.003 z
M -202.594,-36.003 L -202.781,-36.0266 L -202.964,-36.0734 L -203.139,-36.1428 L -203.304,-36.2335 L -203.456,-36.3442
 L -203.593,-36.4732 L -203.714,-36.6183 L -203.814,-36.7774 L -203.895,-36.9478 L -203.953,-37.127 L -203.988,-37.312
 L -204,-37.5 L -203.988,-37.688 L -203.953,-37.873 L -203.895,-38.0522 L -203.814,-38.2226 L -203.714,-38.3817
 L -203.593,-38.5268 L -203.456,-38.6558 L -203.304,-38.7665 L -203.139,-38.8572 L -202.964,-38.9266 L -202.781,-38.9734
 L -202.594,-38.997 L -202.406,-38.997 L -202.219,-38.9734 L -202.036,-38.9266 L -201.861,-38.8572 L -201.696,-38.7665
 L -201.544,-38.6558 L -201.407,-38.5268 L -201.286,-38.3817 L -201.186,-38.2226 L -201.105,-38.0522 L -201.047,-37.873
 L -201.012,-37.688 L -201,-37.5 L -201.012,-37.312 L -201.047,-37.127 L -201.105,-36.9478 L -201.186,-36.7774
 L -201.286,-36.6183 L -201.407,-36.4732 L -201.544,-36.3442 L -201.696,-36.2335 L -201.861,-36.1428 L -202.036,-36.0734
 L -202.219,-36.0266 L -202.406,-36.003 z
M -202.688,-27.0059 L -203.062,-27.0531 L -203.427,-27.1468 L -203.777,-27.2855 L -204.107,-27.467 L -204.412,-27.6884
 L -204.687,-27.9464 L -204.927,-28.2366 L -205.129,-28.5547 L -205.289,-28.8956 L -205.406,-29.2539 L -205.476,-29.624
 L -205.5,-30 L -205.476,-30.376 L -205.406,-30.7461 L -205.289,-31.1044 L -205.129,-31.4453 L -204.927,-31.7634
 L -204.687,-32.0536 L -204.412,-32.3115 L -204.107,-32.533 L -203.777,-32.7145 L -203.427,-32.8532 L -203.062,-32.9469
 L -202.688,-32.9941 L -202.312,-32.9941 L -201.938,-32.9469 L -201.573,-32.8532 L -201.223,-32.7145 L -200.893,-32.533
 L -200.588,-32.3115 L -200.313,-32.0536 L -200.073,-31.7634 L -199.871,-31.4453 L -199.711,-31.1044 L -199.594,-30.7461
 L -199.524,-30.376 L -199.5,-30 L -199.524,-29.624 L -199.594,-29.2539 L -199.711,-28.8956 L -199.871,-28.5547
 L -200.073,-28.2366 L -200.313,-27.9464 L -200.588,-27.6884 L -200.893,-27.467 L -201.223,-27.2855 L -201.573,-27.1468
 L -201.938,-27.0531 L -202.312,-27.0059 z
M 202.312,-27.0059 L 201.938,-27.0531 L 201.573,-27.1468 L 201.223,-27.2855 L 200.893,-27.467 L 200.588,-27.6884
 L 200.313,-27.9464 L 200.073,-28.2366 L 199.871,-28.5547 L 199.711,-28.8956 L 199.594,-29.2539 L 199.524,-29.624
 L 199.5,-30 L 199.524,-30.376 L 199.594,-30.7461 L 199.711,-31.1044 L 199.871,-31.4453 L 200.073,-31.7634
 L 200.313,-32.0536 L 200.588,-32.3115 L 200.893,-32.533 L 201.223,-32.7145 L 201.573,-32.8532 L 201.938,-32.9469
 L 202.312,-32.9941 L 202.688,-32.9941 L 203.062,-32.9469 L 203.427,-32.8532 L 203.777,-32.7145 L 204.107,-32.533
 L 204.412,-32.3115 L 204.687,-32.0536 L 204.927,-31.7634 L 205.129,-31.4453 L 205.289,-31.1044 L 205.406,-30.7461
 L 205.476,-30.376 L 205.5,-30 L 205.476,-29.624 L 205.406,-29.2539 L 205.289,-28.8956 L 205.129,-28.5547
 L 204.927,-28.2366 L 204.687,-27.9464 L 204.412,-27.6884 L 204.107,-27.467 L 203.777,-27.2855 L 203.427,-27.1468
 L 203.062,-27.0531 L 202.688,-27.0059 z
M 202.406,-21.003 L 202.219,-21.0266 L 202.036,-21.0734 L 201.861,-21.1427 L 201.696,-21.2335 L 201.544,-21.3442
 L 201.407,-21.4732 L 201.286,-21.6183 L 201.186,-21.7774 L 201.105,-21.9478 L 201.047,-22.127 L 201.012,-22.312
 L 201,-22.5 L 201.012,-22.688 L 201.047,-22.873 L 201.105,-23.0522 L 201.186,-23.2226 L 201.286,-23.3817
 L 201.407,-23.5268 L 201.544,-23.6558 L 201.696,-23.7665 L 201.861,-23.8572 L 202.036,-23.9266 L 202.219,-23.9734
 L 202.406,-23.997 L 202.594,-23.997 L 202.781,-23.9734 L 202.964,-23.9266 L 203.139,-23.8572 L 203.304,-23.7665
 L 203.456,-23.6558 L 203.593,-23.5268 L 203.714,-23.3817 L 203.814,-23.2226 L 203.895,-23.0522 L 203.953,-22.873
 L 203.988,-22.688 L 204,-22.5 L 203.988,-22.312 L 203.953,-22.127 L 203.895,-21.9478 L 203.814,-21.7774
 L 203.714,-21.6183 L 203.593,-21.4732 L 203.456,-21.3442 L 203.304,-21.2335 L 203.139,-21.1427 L 202.964,-21.0734
 L 202.781,-21.0266 L 202.594,-21.003 z
M -202.594,-21.003 L -202.781,-21.0266 L -202.964,-21.0734 L -203.139,-21.1427 L -203.304,-21.2335 L -203.456,-21.3442
 L -203.593,-21.4732 L -203.714,-21.6183 L -203.814,-21.7774 L -203.895,-21.9478 L -203.953,-22.127 L -203.988,-22.312
 L -204,-22.5 L -203.988,-22.688 L -203.953,-22.873 L -203.895,-23.0522 L -203.814,-23.2226 L -203.714,-23.3817
 L -203.593,-23.5268 L -203.456,-23.6558 L -203.304,-23.7665 L -203.139,-23.8572 L -202.964,-23.9266 L -202.781,-23.9734
 L -202.594,-23.997 L -202.406,-23.997 L -202.219,-23.9734 L -202.036,-23.9266 L -201.861,-23.8572 L -201.696,-23.7665
 L -201.544,-23.6558 L -201.407,-23.5268 L -201.286,-23.3817 L -201.186,-23.2226 L -201.105,-23.0522 L -201.047,-22.873
 L -201.012,-22.688 L -201,-22.5 L -201.012,-22.312 L -201.047,-22.127 L -201.105,-21.9478 L -201.186,-21.7774
 L -201.286,-21.6183 L -201.407,-21.4732 L -201.544,-21.3442 L -201.696,-21.2335 L -201.861,-21.1427 L -202.036,-21.0734
 L -202.219,-21.0266 L -202.406,-21.003 z
M 202.312,-12.0059 L 201.938,-12.0531 L 201.573,-12.1468 L 201.223,-12.2855 L 200.893,-12.467 L 200.588,-12.6884
 L 200.313,-12.9464 L 200.073,-13.2366 L 199.871,-13.5547 L 199.711,-13.8956 L 199.594,-14.2539 L 199.524,-14.624
 L 199.5,-15 L 199.524,-15.376 L 199.594,-15.7461 L 199.711,-16.1044 L 199.871,-16.4453 L 200.073,-16.7634
 L 200.313,-17.0536 L 200.588,-17.3115 L 200.893,-17.533 L 201.223,-17.7145 L 201.573,-17.8532 L 201.938,-17.9469
 L 202.312,-17.9941 L 202.688,-17.9941 L 203.062,-17.9469 L 203.427,-17.8532 L 203.777,-17.7145 L 204.107,-17.533
 L 204.412,-17.3115 L 204.687,-17.0536 L 204.927,-16.7634 L 205.129,-16.4453 L 205.289,-16.1044 L 205.406,-15.7461
 L 205.476,-15.376 L 205.5,-15 L 205.476,-14.624 L 205.406,-14.2539 L 205.289,-13.8956 L 205.129,-13.5547
 L 204.927,-13.2366 L 204.687,-12.9464 L 204.412,-12.6884 L 204.107,-12.467 L 203.777,-12.2855 L 203.427,-12.1468
 L 203.062,-12.0531 L 202.688,-12.0059 z
M -202.688,-12.0059 L -203.062,-12.0531 L -203.427,-12.1468 L -203.777,-12.2855 L -204.107,-12.467 L -204.412,-12.6884
 L -204.687,-12.9464 L -204.927,-13.2366 L -205.129,-13.5547 L -205.289,-13.8956 L -205.406,-14.2539 L -205.476,-14.624
 L -205.5,-15 L -205.476,-15.376 L -205.406,-15.7461 L -205.289,-16.1044 L -205.129,-16.4453 L -204.927,-16.7634
 L -204.687,-17.0536 L -204.412,-17.3115 L -204.107,-17.533 L -203.777,-17.7145 L -203.427,-17.8532 L -203.062,-17.9469
 L -202.688,-17.9941 L -202.312,-17.9941 L -201.938,-17.9469 L -201.573,-17.8532 L -201.223,-17.7145 L -200.893,-17.533
 L -200.588,-17.3115 L -200.313,-17.0536 L -200.073,-16.7634 L -199.871,-16.4453 L -199.711,-16.1044 L -199.594,-15.7461
 L -199.524,-15.376 L -199.5,-15 L -199.524,-14.624 L -199.594,-14.2539 L -199.711,-13.8956 L -199.871,-13.5547
 L -200.073,-13.2366 L -200.313,-12.9464 L -200.588,-12.6884 L -200.893,-12.467 L -201.223,-12.2855 L -201.573,-12.1468
 L -201.938,-12.0531 L -202.312,-12.0059 z
M 202.406,-6.00294 L 202.219,-6.02657 L 202.036,-6.07341 L 201.861,-6.14275 L 201.696,-6.23351 L 201.544,-6.34422
 L 201.407,-6.47318 L 201.286,-6.61832 L 201.186,-6.77736 L 201.105,-6.9478 L 201.047,-7.12695 L 201.012,-7.312
 L 201,-7.5 L 201.012,-7.68799 L 201.047,-7.87303 L 201.105,-8.05219 L 201.186,-8.22263 L 201.286,-8.38167
 L 201.407,-8.52681 L 201.544,-8.65576 L 201.696,-8.76648 L 201.861,-8.85724 L 202.036,-8.92657 L 202.219,-8.97342
 L 202.406,-8.99704 L 202.594,-8.99704 L 202.781,-8.97342 L 202.964,-8.92657 L 203.139,-8.85724 L 203.304,-8.76648
 L 203.456,-8.65576 L 203.593,-8.52681 L 203.714,-8.38167 L 203.814,-8.22263 L 203.895,-8.05219 L 203.953,-7.87303
 L 203.988,-7.68799 L 204,-7.5 L 203.988,-7.312 L 203.953,-7.12695 L 203.895,-6.9478 L 203.814,-6.77736
 L 203.714,-6.61832 L 203.593,-6.47318 L 203.456,-6.34422 L 203.304,-6.23351 L 203.139,-6.14275 L 202.964,-6.07341
 L 202.781,-6.02657 L 202.594,-6.00294 z
M -202.594,-6.00294 L -202.781,-6.02657 L -202.964,-6.07341 L -203.139,-6.14275 L -203.304,-6.23351 L -203.456,-6.34422
 L -203.593,-6.47318 L -203.714,-6.61832 L -203.814,-6.77736 L -203.895,-6.9478 L -203.953,-7.12695 L -203.988,-7.312
 L -204,-7.5 L -203.988,-7.68799 L -203.953,-7.87303 L -203.895,-8.05219 L -203.814,-8.22263 L -203.714,-8.38167
 L -203.593,-8.52681 L -203.456,-8.65576 L -203.304,-8.76648 L -203.139,-8.85724 L -202.964,-8.92657 L -202.781,-8.97342
 L -202.594,-8.99704 L -202.406,-8.99704 L -202.219,-8.97342 L -202.036,-8.92657 L -201.861,-8.85724 L -201.696,-8.76648
 L -201.544,-8.65576 L -201.407,-8.52681 L -201.286,-8.38167 L -201.186,-8.22263 L -201.105,-8.05219 L -201.047,-7.87303
 L -201.012,-7.68799 L -201,-7.5 L -201.012,-7.312 L -201.047,-7.12695 L -201.105,-6.9478 L -201.186,-6.77736
 L -201.286,-6.61832 L -201.407,-6.47318 L -201.544,-6.34422 L -201.696,-6.23351 L -201.861,-6.14275 L -202.036,-6.07341
 L -202.219,-6.02657 L -202.406,-6.00294 z
M 202.312,2.99408 L 201.938,2.94685 L 201.573,2.85316 L 201.223,2.71448 L 200.893,2.53297 L 200.588,2.31154
 L 200.313,2.05363 L 200.073,1.76335 L 199.871,1.44525 L 199.711,1.10437 L 199.594,0.746063 L 199.524,0.375992
 L 199.5,-0 L 199.524,-0.375992 L 199.594,-0.746063 L 199.711,-1.10437 L 199.871,-1.44525 L 200.073,-1.76335
 L 200.313,-2.05363 L 200.588,-2.31154 L 200.893,-2.53297 L 201.223,-2.71448 L 201.573,-2.85316 L 201.938,-2.94685
 L 202.312,-2.99408 L 202.688,-2.99408 L 203.062,-2.94685 L 203.427,-2.85316 L 203.777,-2.71448 L 204.107,-2.53297
 L 204.412,-2.31154 L 204.687,-2.05363 L 204.927,-1.76335 L 205.129,-1.44525 L 205.289,-1.10437 L 205.406,-0.746063
 L 205.476,-0.375992 L 205.5,-0 L 205.476,0.375992 L 205.406,0.746063 L 205.289,1.10437 L 205.129,1.44525
 L 204.927,1.76335 L 204.687,2.05363 L 204.412,2.31154 L 204.107,2.53297 L 203.777,2.71448 L 203.427,2.85316
 L 203.062,2.94685 L 202.688,2.99408 z
M -202.688,2.99408 L -203.062,2.94685 L -203.427,2.85316 L -203.777,2.71448 L -204.107,2.53297 L -204.412,2.31154
 L -204.687,2.05363 L -204.927,1.76335 L -205.129,1.44525 L -205.289,1.10437 L -205.406,0.746063 L -205.476,0.375992
 L -205.5,-0 L -205.476,-0.375992 L -205.406,-0.746063 L -205.289,-1.10437 L -205.129,-1.44525 L -204.927,-1.76335
 L -204.687,-2.05363 L -204.412,-2.31154 L -204.107,-2.53297 L -203.777,-2.71448 L -203.427,-2.85316 L -203.062,-2.94685
 L -202.688,-2.99408 L -202.312,-2.99408 L -201.938,-2.94685 L -201.573,-2.85316 L -201.223,-2.71448 L -200.893,-2.53297
 L -200.588,-2.31154 L -200.313,-2.05363 L -200.073,-1.76335 L -199.871,-1.44525 L -199.711,-1.10437 L -199.594,-0.746063
 L -199.524,-0.375992 L -199.5,-0 L -199.524,0.375992 L -199.594,0.746063 L -199.711,1.10437 L -199.871,1.44525
 L -200.073,1.76335 L -200.313,2.05363 L -200.588,2.31154 L -200.893,2.53297 L -201.223,2.71448 L -201.573,2.85316
 L -201.938,2.94685 L -202.312,2.99408 z
M 202.406,8.99704 L 202.219,8.97342 L 202.036,8.92657 L 201.861,8.85724 L 201.696,8.76648 L 201.544,8.65576
 L 201.407,8.52681 L 201.286,8.38167 L 201.186,8.22263 L 201.105,8.05219 L 201.047,7.87303 L 201.012,7.68799
 L 201,7.5 L 201.012,7.312 L 201.047,7.12695 L 201.105,6.9478 L 201.186,6.77736 L 201.286,6.61832
 L 201.407,6.47318 L 201.544,6.34422 L 201.696,6.23351 L 201.861,6.14275 L 202.036,6.07341 L 202.219,6.02657
 L 202.406,6.00294 L 202.594,6.00294 L 202.781,6.02657 L 202.964,6.07341 L 203.139,6.14275 L 203.304,6.23351
 L 203.456,6.34422 L 203.593,6.47318 L 203.714,6.61832 L 203.814,6.77736 L 203.895,6.9478 L 203.953,7.12695
 L 203.988,7.312 L 204,7.5 L 203.988,7.68799 L 203.953,7.87303 L 203.895,8.05219 L 203.814,8.22263
 L 203.714,8.38167 L 203.593,8.52681 L 203.456,8.65576 L 203.304,8.76648 L 203.139,8.85724 L 202.964,8.92657
 L 202.781,8.97342 L 202.594,8.99704 z
M -202.594,8.99704 L -202.781,8.97342 L -202.964,8.92657 L -203.139,8.85724 L -203.304,8.76648 L -203.456,8.65576
 L -203.593,8.52681 L -203.714,8.38167 L -203.814,8.22263 L -203.895,8.05219 L -203.953,7.87303 L -203.988,7.68799
 L -204,7.5 L -203.988,7.312 L -203.953,7.12695 L -203.895,6.9478 L -203.814,6.77736 L -203.714,6.61832
 L -203.593,6.47318 L -203.456,6.34422 L -203.304,6.23351 L -203.139,6.14275 L -202.964,6.07341 L -202.781,6.02657
 L -202.594,6.00294 L -202.406,6.00294 L -202.219,6.02657 L -202.036,6.07341 L -201.861,6.14275 L -201.696,6.23351
 L -201.544,6.34422 L -201.407,6.47318 L -201.286,6.61832 L -201.186,6.77736 L -201.105,6.9478 L -201.047,7.12695
 L -201.012,7.312 L -201,7.5 L -201.012,7.68799 L -201.047,7.87303 L -201.105,8.05219 L -201.186,8.22263
 L -201.286,8.38167 L -201.407,8.52681 L -201.544,8.65576 L -201.696,8.76648 L -201.861,8.85724 L -202.036,8.92657
 L -202.219,8.97342 L -202.406,8.99704 z
M 202.312,17.9941 L 201.938,17.9469 L 201.573,17.8532 L 201.223,17.7145 L 200.893,17.533 L 200.588,17.3115
 L 200.313,17.0536 L 200.073,16.7634 L 199.871,16.4453 L 199.711,16.1044 L 199.594,15.7461 L 199.524,15.376
 L 199.5,15 L 199.524,14.624 L 199.594,14.2539 L 199.711,13.8956 L 199.871,13.5547 L 200.073,13.2366
 L 200.313,12.9464 L 200.588,12.6884 L 200.893,12.467 L 201.223,12.2855 L 201.573,12.1468 L 201.938,12.0531
 L 202.312,12.0059 L 202.688,12.0059 L 203.062,12.0531 L 203.427,12.1468 L 203.777,12.2855 L 204.107,12.467
 L 204.412,12.6884 L 204.687,12.9464 L 204.927,13.2366 L 205.129,13.5547 L 205.289,13.8956 L 205.406,14.2539
 L 205.476,14.624 L 205.5,15 L 205.476,15.376 L 205.406,15.7461 L 205.289,16.1044 L 205.129,16.4453
 L 204.927,16.7634 L 204.687,17.0536 L 204.412,17.3115 L 204.107,17.533 L 203.777,17.7145 L 203.427,17.8532
 L 203.062,17.9469 L 202.688,17.9941 z
M -202.688,17.9941 L -203.062,17.9469 L -203.427,17.8532 L -203.777,17.7145 L -204.107,17.533 L -204.412,17.3115
 L -204.687,17.0536 L -204.927,16.7634 L -205.129,16.4453 L -205.289,16.1044 L -205.406,15.7461 L -205.476,15.376
 L -205.5,15 L -205.476,14.624 L -205.406,14.2539 L -205.289,13.8956 L -205.129,13.5547 L -204.927,13.2366
 L -204.687,12.9464 L -204.412,12.6884 L -204.107,12.467 L -203.777,12.2855 L -203.427,12.1468 L -203.062,12.0531
 L -202.688,12.0059 L -202.312,12.0059 L -201.938,12.0531 L -201.573,12.1468 L -201.223,12.2855 L -200.893,12.467
 L -200.588,12.6884 L -200.313,12.9464 L -200.073,13.2366 L -199.871,13.5547 L -199.711,13.8956 L -199.594,14.2539
 L -199.524,14.624 L -199.5,15 L -199.524,15.376 L -199.594,15.7461 L -199.711,16.1044 L -199.871,16.4453
 L -200.073,16.7634 L -200.313,17.0536 L -200.588,17.3115 L -200.893,17.533 L -201.223,17.7145 L -201.573,17.8532
 L -201.938,17.9469 L -202.312,17.9941 z
M 202.406,23.997 L 202.219,23.9734 L 202.036,23.9266 L 201.861,23.8572 L 201.696,23.7665 L 201.544,23.6558
 L 201.407,23.5268 L 201.286,23.3817 L 201.186,23.2226 L 201.105,23.0522 L 201.047,22.873 L 201.012,22.688
 L 201,22.5 L 201.012,22.312 L 201.047,22.127 L 201.105,21.9478 L 201.186,21.7774 L 201.286,21.6183
 L 201.407,21.4732 L 201.544,21.3442 L 201.696,21.2335 L 201.861,21.1427 L 202.036,21.0734 L 202.219,21.0266
 L 202.406,21.003 L 202.594,21.003 L 202.781,21.0266 L 202.964,21.0734 L 203.139,21.1427 L 203.304,21.2335
 L 203.456,21.3442 L 203.593,21.4732 L 203.714,21.6183 L 203.814,21.7774 L 203.895,21.9478 L 203.953,22.127
 L 203.988,22.312 L 204,22.5 L 203.988,22.688 L 203.953,22.873 L 203.895,23.0522 L 203.814,23.2226
 L 203.714,23.3817 L 203.593,23.5268 L 203.456,23.6558 L 203.304,23.7665 L 203.139,23.8572 L 202.964,23.9266
 L 202.781,23.9734 L 202.594,23.997 z
M -202.594,23.997 L -202.781,23.9734 L -202.964,23.9266 L -203.139,23.8572 L -203.304,23.7665 L -203.456,23.6558
 L -203.593,23.5268 L -203.714,23.3817 L -203.814,23.2226 L -203.895,23.0522 L -203.953,22.873 L -203.988,22.688
 L -204,22.5 L -203.988,22.312 L -203.953,22.127 L -203.895,21.9478 L -203.814,21.7774 L -203.714,21.6183
 L -203.593,21.4732 L -203.456,21.3442 L -203.304,21.2335 L -203.139,21.1427 L -202.964,21.0734 L -202.781,21.0266
 L -202.594,21.003 L -202.406,21.003 L -202.219,21.0266 L -202.036,21.0734 L -201.861,21.1427 L -201.696,21.2335
 L -201.544,21.3442 L -201.407,21.4732 L -201.286,21.6183 L -201.186,21.7774 L -201.105,21.9478 L -201.047,22.127
 L -201.012,22.312 L -201,22.5 L -201.012,22.688 L -201.047,22.873 L -201.105,23.0522 L -201.186,23.2226
 L -201.286,23.3817 L -201.407,23.5268 L -201.544,23.6558 L -201.696,23.7665 L -201.861,23.8572 L -202.036,23.9266
 L -202.219,23.9734 L -202.406,23.997 z
M 202.312,32.9941 L 201.938,32.9469 L 201.573,32.8532 L 201.223,32.7145 L 200.893,32.533 L 200.588,32.3115
 L 200.313,32.0536 L 200.073,31.7634 L 199.871,31.4453 L 199.711,31.1044 L 199.594,30.7461 L 199.524,30.376
 L 199.5,30 L 199.524,29.624 L 199.594,29.2539 L 199.711,28.8956 L 199.871,28.5547 L 200.073,28.2366
 L 200.313,27.9464 L 200.588,27.6884 L 200.893,27.467 L 201.223,27.2855 L 201.573,27.1468 L 201.938,27.0531
 L 202.312,27.0059 L 202.688,27.0059 L 203.062,27.0531 L 203.427,27.1468 L 203.777,27.2855 L 204.107,27.467
 L 204.412,27.6884 L 204.687,27.9464 L 204.927,28.2366 L 205.129,28.5547 L 205.289,28.8956 L 205.406,29.2539
 L 205.476,29.624 L 205.5,30 L 205.476,30.376 L 205.406,30.7461 L 205.289,31.1044 L 205.129,31.4453
 L 204.927,31.7634 L 204.687,32.0536 L 204.412,32.3115 L 204.107,32.533 L 203.777,32.7145 L 203.427,32.8532
 L 203.062,32.9469 L 202.688,32.9941 z
M -202.688,32.9941 L -203.062,32.9469 L -203.427,32.8532 L -203.777,32.7145 L -204.107,32.533 L -204.412,32.3115
 L -204.687,32.0536 L -204.927,31.7634 L -205.129,31.4453 L -205.289,31.1044 L -205.406,30.7461 L -205.476,30.376
 L -205.5,30 L -205.476,29.624 L -205.406,29.2539 L -205.289,28.8956 L -205.129,28.5547 L -204.927,28.2366
 L -204.687,27.9464 L -204.412,27.6884 L -204.107,27.467 L -203.777,27.2855 L -203.427,27.1468 L -203.062,27.0531
 L -202.688,27.0059 L -202.312,27.0059 L -201.938,27.0531 L -201.573,27.1468 L -201.223,27.2855 L -200.893,27.467
 L -200.588,27.6884 L -200.313,27.9464 L -200.073,28.2366 L -199.871,28.5547 L -199.711,28.8956 L -199.594,29.2539
 L -199.524,29.624 L -199.5,30 L -199.524,30.376 L -199.594,30.7461 L -199.711,31.1044 L -199.871,31.4453
 L -200.073,31.7634 L -200.313,32.0536 L -200.588,32.3115 L -200.893,32.533 L -201.223,32.7145 L -201.573,32.8532
 L -201.938,32.9469 L -202.312,32.9941 z
M 202.406,38.997 L 202.219,38.9734 L 202.036,38.9266 L 201.861,38.8572 L 201.696,38.7665 L 201.544,38.6558
 L 201.407,38.5268 L 201.286,38.3817 L 201.186,38.2226 L 201.105,38.0522 L 201.047,37.873 L 201.012,37.688
 L 201,37.5 L 201.012,37.312 L 201.047,37.127 L 201.105,36.9478 L 201.186,36.7774 L 201.286,36.6183
 L 201.407,36.4732 L 201.544,36.3442 L 201.696,36.2335 L 201.861,36.1428 L 202.036,36.0734 L 202.219,36.0266
 L 202.406,36.003 L 202.594,36.003 L 202.781,36.0266 L 202.964,36.0734 L 203.139,36.1428 L 203.304,36.2335
 L 203.456,36.3442 L 203.593,36.4732 L 203.714,36.6183 L 203.814,36.7774 L 203.895,36.9478 L 203.953,37.127
 L 203.988,37.312 L 204,37.5 L 203.988,37.688 L 203.953,37.873 L 203.895,38.0522 L 203.814,38.2226
 L 203.714,38.3817 L 203.593,38.5268 L 203.456,38.6558 L 203.304,38.7665 L 203.139,38.8572 L 202.964,38.9266
 L 202.781,38.9734 L 202.594,38.997 z
M -202.594,38.997 L -202.781,38.9734 L -202.964,38.9266 L -203.139,38.8572 L -203.304,38.7665 L -203.456,38.6558
 L -203.593,38.5268 L -203.714,38.3817 L -203.814,38.2226 L -203.895,38.0522 L -203.953,37.873 L -203.988,37.688
 L -204,37.5 L -203.988,37.312 L -203.953,37.127 L -203.895,36.9478 L -203.814,36.7774 L -203.714,36.6183
 L -203.593,36.4732 L -203.456,36.3442 L -203.304,36.2335 L -203.139,36.1428 L -202.964,36.0734 L -202.781,36.0266
 L -202.594,36.003 L -202.406,36.003 L -202.219,36.0266 L -202.036,36.0734 L -201.861,36.1428 L -201.696,36.2335
 L -201.544,36.3442 L -201.407,36.4732 L -201.286,36.6183 L -201.186,36.7774 L -201.105,36.9478 L -201.047,37.127
 L -201.012,37.312 L -201,37.5 L -201.012,37.688 L -201.047,37.873 L -201.105,38.0522 L -201.186,38.2226
 L -201.286,38.3817 L -201.407,38.5268 L -201.544,38.6558 L -201.696,38.7665 L -201.861,38.8572 L -202.036,38.9266
 L -202.219,38.9734 L -202.406,38.997 z
M -202.688,47.9941 L -203.062,47.9469 L -203.427,47.8532 L -203.777,47.7145 L -204.107,47.533 L -204.412,47.3115
 L -204.687,47.0536 L -204.927,46.7634 L -205.129,46.4453 L -205.289,46.1044 L -205.406,45.7461 L -205.476,45.376
 L -205.5,45 L -205.476,44.624 L -205.406,44.2539 L -205.289,43.8956 L -205.129,43.5547 L -204.927,43.2366
 L -204.687,42.9464 L -204.412,42.6885 L -204.107,42.467 L -203.777,42.2855 L -203.427,42.1468 L -203.062,42.0531
 L -202.688,42.0059 L -202.312,42.0059 L -201.938,42.0531 L -201.573,42.1468 L -201.223,42.2855 L -200.893,42.467
 L -200.588,42.6885 L -200.313,42.9464 L -200.073,43.2366 L -199.871,43.5547 L -199.711,43.8956 L -199.594,44.2539
 L -199.524,44.624 L -199.5,45 L -199.524,45.376 L -199.594,45.7461 L -199.711,46.1044 L -199.871,46.4453
 L -200.073,46.7634 L -200.313,47.0536 L -200.588,47.3115 L -200.893,47.533 L -201.223,47.7145 L -201.573,47.8532
 L -201.938,47.9469 L -202.312,47.9941 z
M 202.312,47.9941 L 201.938,47.9469 L 201.573,47.8532 L 201.223,47.7145 L 200.893,47.533 L 200.588,47.3115
 L 200.313,47.0536 L 200.073,46.7634 L 199.871,46.4453 L 199.711,46.1044 L 199.594,45.7461 L 199.524,45.376
 L 199.5,45 L 199.524,44.624 L 199.594,44.2539 L 199.711,43.8956 L 199.871,43.5547 L 200.073,43.2366
 L 200.313,42.9464 L 200.588,42.6885 L 200.893,42.467 L 201.223,42.2855 L 201.573,42.1468 L 201.938,42.0531
 L 202.312,42.0059 L 202.688,42.0059 L 203.062,42.0531 L 203.427,42.1468 L 203.777,42.2855 L 204.107,42.467
 L 204.412,42.6885 L 204.687,42.9464 L 204.927,43.2366 L 205.129,43.5547 L 205.289,43.8956 L 205.406,44.2539
 L 205.476,44.624 L 205.5,45 L 205.476,45.376 L 205.406,45.7461 L 205.289,46.1044 L 205.129,46.4453
 L 204.927,46.7634 L 204.687,47.0536 L 204.412,47.3115 L 204.107,47.533 L 203.777,47.7145 L 203.427,47.8532
 L 203.062,47.9469 L 202.688,47.9941 z
" stroke="black" fill="lightgray" stroke-width="0.5"/>
</svg>
