  0
SECTION
  2
BLOCKS
  0
ENDSEC
  0
SECTION
  2
ENTITIES
  0
LINE
  8
0
 10
32.9369
 20
-36.9114
 11
33.5451
 21
-36.7553
  0
LINE
  8
0
 10
33.5451
 20
-36.7553
 11
34.1289
 21
-36.5241
  0
LINE
  8
0
 10
34.1289
 20
-36.5241
 11
34.6791
 21
-36.2216
  0
LINE
  8
0
 10
34.6791
 20
-36.2216
 11
35.1871
 21
-35.8526
  0
LINE
  8
0
 10
35.1871
 20
-35.8526
 11
35.6448
 21
-35.4227
  0
LINE
  8
0
 10
35.6448
 20
-35.4227
 11
36.0451
 21
-34.9389
  0
LINE
  8
0
 10
36.0451
 20
-34.9389
 11
36.3815
 21
-34.4088
  0
LINE
  8
0
 10
36.3815
 20
-34.4088
 11
36.6489
 21
-33.8406
  0
LINE
  8
0
 10
36.6489
 20
-33.8406
 11
36.8429
 21
-33.2434
  0
LINE
  8
0
 10
36.8429
 20
-33.2434
 11
36.9606
 21
-32.6267
  0
LINE
  8
0
 10
36.9606
 20
-32.6267
 11
37
 21
-32
  0
LINE
  8
0
 10
37
 20
-32
 11
37
 21
32
  0
LINE
  8
0
 10
37
 20
32
 11
36.9606
 21
32.6267
  0
LINE
  8
0
 10
36.9606
 20
32.6267
 11
36.8429
 21
33.2434
  0
LINE
  8
0
 10
36.8429
 20
33.2434
 11
36.6489
 21
33.8406
  0
LINE
  8
0
 10
36.6489
 20
33.8406
 11
36.3815
 21
34.4088
  0
LINE
  8
0
 10
36.3815
 20
34.4088
 11
36.0451
 21
34.9389
  0
LINE
  8
0
 10
36.0451
 20
34.9389
 11
35.6448
 21
35.4227
  0
LINE
  8
0
 10
35.6448
 20
35.4227
 11
35.1871
 21
35.8526
  0
LINE
  8
0
 10
35.1871
 20
35.8526
 11
34.6791
 21
36.2216
  0
LINE
  8
0
 10
34.6791
 20
36.2216
 11
34.1289
 21
36.5241
  0
LINE
  8
0
 10
34.1289
 20
36.5241
 11
33.5451
 21
36.7553
  0
LINE
  8
0
 10
33.5451
 20
36.7553
 11
32.9369
 21
36.9114
  0
LINE
  8
0
 10
32.9369
 20
36.9114
 11
32.3139
 21
36.9901
  0
LINE
  8
0
 10
32.3139
 20
36.9901
 11
-32.3139
 21
36.9901
  0
LINE
  8
0
 10
-32.3139
 20
36.9901
 11
-32.9369
 21
36.9114
  0
LINE
  8
0
 10
-32.9369
 20
36.9114
 11
-33.5451
 21
36.7553
  0
LINE
  8
0
 10
-33.5451
 20
36.7553
 11
-34.1289
 21
36.5241
  0
LINE
  8
0
 10
-34.1289
 20
36.5241
 11
-34.6791
 21
36.2216
  0
LINE
  8
0
 10
-34.6791
 20
36.2216
 11
-35.1871
 21
35.8526
  0
LINE
  8
0
 10
-35.1871
 20
35.8526
 11
-35.6448
 21
35.4227
  0
LINE
  8
0
 10
-35.6448
 20
35.4227
 11
-36.0451
 21
34.9389
  0
LINE
  8
0
 10
-36.0451
 20
34.9389
 11
-36.3815
 21
34.4088
  0
LINE
  8
0
 10
-36.3815
 20
34.4088
 11
-36.6489
 21
33.8406
  0
LINE
  8
0
 10
-36.6489
 20
33.8406
 11
-36.8429
 21
33.2434
  0
LINE
  8
0
 10
-36.8429
 20
33.2434
 11
-36.9606
 21
32.6267
  0
LINE
  8
0
 10
-36.9606
 20
32.6267
 11
-37
 21
32
  0
LINE
  8
0
 10
-37
 20
32
 11
-37
 21
-32
  0
LINE
  8
0
 10
-37
 20
-32
 11
-36.9606
 21
-32.6267
  0
LINE
  8
0
 10
-36.9606
 20
-32.6267
 11
-36.8429
 21
-33.2434
  0
LINE
  8
0
 10
-36.8429
 20
-33.2434
 11
-36.6489
 21
-33.8406
  0
LINE
  8
0
 10
-36.6489
 20
-33.8406
 11
-36.3815
 21
-34.4088
  0
LINE
  8
0
 10
-36.3815
 20
-34.4088
 11
-36.0451
 21
-34.9389
  0
LINE
  8
0
 10
-36.0451
 20
-34.9389
 11
-35.6448
 21
-35.4227
  0
LINE
  8
0
 10
-35.6448
 20
-35.4227
 11
-35.1871
 21
-35.8526
  0
LINE
  8
0
 10
-35.1871
 20
-35.8526
 11
-34.6791
 21
-36.2216
  0
LINE
  8
0
 10
-34.6791
 20
-36.2216
 11
-34.1289
 21
-36.5241
  0
LINE
  8
0
 10
-34.1289
 20
-36.5241
 11
-33.5451
 21
-36.7553
  0
LINE
  8
0
 10
-33.5451
 20
-36.7553
 11
-32.9369
 21
-36.9114
  0
LINE
  8
0
 10
-32.9369
 20
-36.9114
 11
-32.3139
 21
-36.9901
  0
LINE
  8
0
 10
-32.3139
 20
-36.9901
 11
32.3139
 21
-36.9901
  0
LINE
  8
0
 10
32.3139
 20
-36.9901
 11
32.9369
 21
-36.9114
  0
LINE
  8
0
 10
-30.1884
 20
27.0059
 11
-30.5621
 21
27.0531
  0
LINE
  8
0
 10
-30.5621
 20
27.0531
 11
-30.927
 21
27.1468
  0
LINE
  8
0
 10
-30.927
 20
27.1468
 11
-31.2773
 21
27.2855
  0
LINE
  8
0
 10
-31.2773
 20
27.2855
 11
-31.6075
 21
27.467
  0
LINE
  8
0
 10
-31.6075
 20
27.467
 11
-31.9123
 21
27.6884
  0
LINE
  8
0
 10
-31.9123
 20
27.6884
 11
-32.1869
 21
27.9464
  0
LINE
  8
0
 10
-32.1869
 20
27.9464
 11
-32.427
 21
28.2366
  0
LINE
  8
0
 10
-32.427
 20
28.2366
 11
-32.6289
 21
28.5547
  0
LINE
  8
0
 10
-32.6289
 20
28.5547
 11
-32.7893
 21
28.8956
  0
LINE
  8
0
 10
-32.7893
 20
28.8956
 11
-32.9057
 21
29.2539
  0
LINE
  8
0
 10
-32.9057
 20
29.2539
 11
-32.9763
 21
29.624
  0
LINE
  8
0
 10
-32.9763
 20
29.624
 11
-33
 21
30
  0
LINE
  8
0
 10
-33
 20
30
 11
-32.9763
 21
30.376
  0
LINE
  8
0
 10
-32.9763
 20
30.376
 11
-32.9057
 21
30.7461
  0
LINE
  8
0
 10
-32.9057
 20
30.7461
 11
-32.7893
 21
31.1044
  0
LINE
  8
0
 10
-32.7893
 20
31.1044
 11
-32.6289
 21
31.4453
  0
LINE
  8
0
 10
-32.6289
 20
31.4453
 11
-32.427
 21
31.7634
  0
LINE
  8
0
 10
-32.427
 20
31.7634
 11
-32.1869
 21
32.0536
  0
LINE
  8
0
 10
-32.1869
 20
32.0536
 11
-31.9123
 21
32.3115
  0
LINE
  8
0
 10
-31.9123
 20
32.3115
 11
-31.6075
 21
32.533
  0
LINE
  8
0
 10
-31.6075
 20
32.533
 11
-31.2773
 21
32.7145
  0
LINE
  8
0
 10
-31.2773
 20
32.7145
 11
-30.927
 21
32.8532
  0
LINE
  8
0
 10
-30.927
 20
32.8532
 11
-30.5621
 21
32.9469
  0
LINE
  8
0
 10
-30.5621
 20
32.9469
 11
-30.1884
 21
32.9941
  0
LINE
  8
0
 10
-30.1884
 20
32.9941
 11
-29.8116
 21
32.9941
  0
LINE
  8
0
 10
-29.8116
 20
32.9941
 11
-29.4379
 21
32.9469
  0
LINE
  8
0
 10
-29.4379
 20
32.9469
 11
-29.0729
 21
32.8532
  0
LINE
  8
0
 10
-29.0729
 20
32.8532
 11
-28.7227
 21
32.7145
  0
LINE
  8
0
 10
-28.7227
 20
32.7145
 11
-28.3925
 21
32.533
  0
LINE
  8
0
 10
-28.3925
 20
32.533
 11
-28.0877
 21
32.3115
  0
LINE
  8
0
 10
-28.0877
 20
32.3115
 11
-27.8131
 21
32.0536
  0
LINE
  8
0
 10
-27.8131
 20
32.0536
 11
-27.5729
 21
31.7634
  0
LINE
  8
0
 10
-27.5729
 20
31.7634
 11
-27.3711
 21
31.4453
  0
LINE
  8
0
 10
-27.3711
 20
31.4453
 11
-27.2107
 21
31.1044
  0
LINE
  8
0
 10
-27.2107
 20
31.1044
 11
-27.0942
 21
30.7461
  0
LINE
  8
0
 10
-27.0942
 20
30.7461
 11
-27.0237
 21
30.376
  0
LINE
  8
0
 10
-27.0237
 20
30.376
 11
-27
 21
30
  0
LINE
  8
0
 10
-27
 20
30
 11
-27.0237
 21
29.624
  0
LINE
  8
0
 10
-27.0237
 20
29.624
 11
-27.0942
 21
29.2539
  0
LINE
  8
0
 10
-27.0942
 20
29.2539
 11
-27.2107
 21
28.8956
  0
LINE
  8
0
 10
-27.2107
 20
28.8956
 11
-27.3711
 21
28.5547
  0
LINE
  8
0
 10
-27.3711
 20
28.5547
 11
-27.5729
 21
28.2366
  0
LINE
  8
0
 10
-27.5729
 20
28.2366
 11
-27.8131
 21
27.9464
  0
LINE
  8
0
 10
-27.8131
 20
27.9464
 11
-28.0877
 21
27.6884
  0
LINE
  8
0
 10
-28.0877
 20
27.6884
 11
-28.3925
 21
27.467
  0
LINE
  8
0
 10
-28.3925
 20
27.467
 11
-28.7227
 21
27.2855
  0
LINE
  8
0
 10
-28.7227
 20
27.2855
 11
-29.0729
 21
27.1468
  0
LINE
  8
0
 10
-29.0729
 20
27.1468
 11
-29.4379
 21
27.0531
  0
LINE
  8
0
 10
-29.4379
 20
27.0531
 11
-29.8116
 21
27.0059
  0
LINE
  8
0
 10
-29.8116
 20
27.0059
 11
-30.1884
 21
27.0059
  0
LINE
  8
0
 10
29.8116
 20
27.0059
 11
29.4379
 21
27.0531
  0
LINE
  8
0
 10
29.4379
 20
27.0531
 11
29.0729
 21
27.1468
  0
LINE
  8
0
 10
29.0729
 20
27.1468
 11
28.7227
 21
27.2855
  0
LINE
  8
0
 10
28.7227
 20
27.2855
 11
28.3925
 21
27.467
  0
LINE
  8
0
 10
28.3925
 20
27.467
 11
28.0877
 21
27.6884
  0
LINE
  8
0
 10
28.0877
 20
27.6884
 11
27.8131
 21
27.9464
  0
LINE
  8
0
 10
27.8131
 20
27.9464
 11
27.5729
 21
28.2366
  0
LINE
  8
0
 10
27.5729
 20
28.2366
 11
27.3711
 21
28.5547
  0
LINE
  8
0
 10
27.3711
 20
28.5547
 11
27.2107
 21
28.8956
  0
LINE
  8
0
 10
27.2107
 20
28.8956
 11
27.0942
 21
29.2539
  0
LINE
  8
0
 10
27.0942
 20
29.2539
 11
27.0237
 21
29.624
  0
LINE
  8
0
 10
27.0237
 20
29.624
 11
27
 21
30
  0
LINE
  8
0
 10
27
 20
30
 11
27.0237
 21
30.376
  0
LINE
  8
0
 10
27.0237
 20
30.376
 11
27.0942
 21
30.7461
  0
LINE
  8
0
 10
27.0942
 20
30.7461
 11
27.2107
 21
31.1044
  0
LINE
  8
0
 10
27.2107
 20
31.1044
 11
27.3711
 21
31.4453
  0
LINE
  8
0
 10
27.3711
 20
31.4453
 11
27.5729
 21
31.7634
  0
LINE
  8
0
 10
27.5729
 20
31.7634
 11
27.8131
 21
32.0536
  0
LINE
  8
0
 10
27.8131
 20
32.0536
 11
28.0877
 21
32.3115
  0
LINE
  8
0
 10
28.0877
 20
32.3115
 11
28.3925
 21
32.533
  0
LINE
  8
0
 10
28.3925
 20
32.533
 11
28.7227
 21
32.7145
  0
LINE
  8
0
 10
28.7227
 20
32.7145
 11
29.0729
 21
32.8532
  0
LINE
  8
0
 10
29.0729
 20
32.8532
 11
29.4379
 21
32.9469
  0
LINE
  8
0
 10
29.4379
 20
32.9469
 11
29.8116
 21
32.9941
  0
LINE
  8
0
 10
29.8116
 20
32.9941
 11
30.1884
 21
32.9941
  0
LINE
  8
0
 10
30.1884
 20
32.9941
 11
30.5621
 21
32.9469
  0
LINE
  8
0
 10
30.5621
 20
32.9469
 11
30.927
 21
32.8532
  0
LINE
  8
0
 10
30.927
 20
32.8532
 11
31.2773
 21
32.7145
  0
LINE
  8
0
 10
31.2773
 20
32.7145
 11
31.6075
 21
32.533
  0
LINE
  8
0
 10
31.6075
 20
32.533
 11
31.9123
 21
32.3115
  0
LINE
  8
0
 10
31.9123
 20
32.3115
 11
32.1869
 21
32.0536
  0
LINE
  8
0
 10
32.1869
 20
32.0536
 11
32.427
 21
31.7634
  0
LINE
  8
0
 10
32.427
 20
31.7634
 11
32.6289
 21
31.4453
  0
LINE
  8
0
 10
32.6289
 20
31.4453
 11
32.7893
 21
31.1044
  0
LINE
  8
0
 10
32.7893
 20
31.1044
 11
32.9057
 21
30.7461
  0
LINE
  8
0
 10
32.9057
 20
30.7461
 11
32.9763
 21
30.376
  0
LINE
  8
0
 10
32.9763
 20
30.376
 11
33
 21
30
  0
LINE
  8
0
 10
33
 20
30
 11
32.9763
 21
29.624
  0
LINE
  8
0
 10
32.9763
 20
29.624
 11
32.9057
 21
29.2539
  0
LINE
  8
0
 10
32.9057
 20
29.2539
 11
32.7893
 21
28.8956
  0
LINE
  8
0
 10
32.7893
 20
28.8956
 11
32.6289
 21
28.5547
  0
LINE
  8
0
 10
32.6289
 20
28.5547
 11
32.427
 21
28.2366
  0
LINE
  8
0
 10
32.427
 20
28.2366
 11
32.1869
 21
27.9464
  0
LINE
  8
0
 10
32.1869
 20
27.9464
 11
31.9123
 21
27.6884
  0
LINE
  8
0
 10
31.9123
 20
27.6884
 11
31.6075
 21
27.467
  0
LINE
  8
0
 10
31.6075
 20
27.467
 11
31.2773
 21
27.2855
  0
LINE
  8
0
 10
31.2773
 20
27.2855
 11
30.927
 21
27.1468
  0
LINE
  8
0
 10
30.927
 20
27.1468
 11
30.5621
 21
27.0531
  0
LINE
  8
0
 10
30.5621
 20
27.0531
 11
30.1884
 21
27.0059
  0
LINE
  8
0
 10
30.1884
 20
27.0059
 11
29.8116
 21
27.0059
  0
LINE
  8
0
 10
-2.00929
 20
-31.9368
 11
-5.9962
 21
-31.4332
  0
LINE
  8
0
 10
-5.9962
 20
-31.4332
 11
-9.88853
 21
-30.4338
  0
LINE
  8
0
 10
-9.88853
 20
-30.4338
 11
-13.6249
 21
-28.9545
  0
LINE
  8
0
 10
-13.6249
 20
-28.9545
 11
-17.1465
 21
-27.0185
  0
LINE
  8
0
 10
-17.1465
 20
-27.0185
 11
-20.3976
 21
-24.6564
  0
LINE
  8
0
 10
-20.3976
 20
-24.6564
 11
-23.327
 21
-21.9055
  0
LINE
  8
0
 10
-23.327
 20
-21.9055
 11
-25.8885
 21
-18.8091
  0
LINE
  8
0
 10
-25.8885
 20
-18.8091
 11
-28.0418
 21
-15.4161
  0
LINE
  8
0
 10
-28.0418
 20
-15.4161
 11
-29.7528
 21
-11.78
  0
LINE
  8
0
 10
-29.7528
 20
-11.78
 11
-30.9947
 21
-7.95807
  0
LINE
  8
0
 10
-30.9947
 20
-7.95807
 11
-31.7477
 21
-4.01065
  0
LINE
  8
0
 10
-31.7477
 20
-4.01065
 11
-32
 21
0
  0
LINE
  8
0
 10
-32
 20
0
 11
-31.7477
 21
4.01065
  0
LINE
  8
0
 10
-31.7477
 20
4.01065
 11
-30.9947
 21
7.95807
  0
LINE
  8
0
 10
-30.9947
 20
7.95807
 11
-29.7528
 21
11.78
  0
LINE
  8
0
 10
-29.7528
 20
11.78
 11
-28.0418
 21
15.4161
  0
LINE
  8
0
 10
-28.0418
 20
15.4161
 11
-25.8885
 21
18.8091
  0
LINE
  8
0
 10
-25.8885
 20
18.8091
 11
-23.327
 21
21.9055
  0
LINE
  8
0
 10
-23.327
 20
21.9055
 11
-20.3976
 21
24.6564
  0
LINE
  8
0
 10
-20.3976
 20
24.6564
 11
-17.1465
 21
27.0185
  0
LINE
  8
0
 10
-17.1465
 20
27.0185
 11
-13.6249
 21
28.9545
  0
LINE
  8
0
 10
-13.6249
 20
28.9545
 11
-9.88853
 21
30.4338
  0
LINE
  8
0
 10
-9.88853
 20
30.4338
 11
-5.9962
 21
31.4332
  0
LINE
  8
0
 10
-5.9962
 20
31.4332
 11
-2.00929
 21
31.9368
  0
LINE
  8
0
 10
-2.00929
 20
31.9368
 11
2.00929
 21
31.9368
  0
LINE
  8
0
 10
2.00929
 20
31.9368
 11
5.9962
 21
31.4332
  0
LINE
  8
0
 10
5.9962
 20
31.4332
 11
9.88853
 21
30.4338
  0
LINE
  8
0
 10
9.88853
 20
30.4338
 11
13.6249
 21
28.9545
  0
LINE
  8
0
 10
13.6249
 20
28.9545
 11
17.1465
 21
27.0185
  0
LINE
  8
0
 10
17.1465
 20
27.0185
 11
20.3976
 21
24.6564
  0
LINE
  8
0
 10
20.3976
 20
24.6564
 11
23.327
 21
21.9055
  0
LINE
  8
0
 10
23.327
 20
21.9055
 11
25.8885
 21
18.8091
  0
LINE
  8
0
 10
25.8885
 20
18.8091
 11
28.0418
 21
15.4161
  0
LINE
  8
0
 10
28.0418
 20
15.4161
 11
29.7528
 21
11.78
  0
LINE
  8
0
 10
29.7528
 20
11.78
 11
30.9947
 21
7.95807
  0
LINE
  8
0
 10
30.9947
 20
7.95807
 11
31.7477
 21
4.01065
  0
LINE
  8
0
 10
31.7477
 20
4.01065
 11
32
 21
0
  0
LINE
  8
0
 10
32
 20
0
 11
31.7477
 21
-4.01065
  0
LINE
  8
0
 10
31.7477
 20
-4.01065
 11
30.9947
 21
-7.95807
  0
LINE
  8
0
 10
30.9947
 20
-7.95807
 11
29.7528
 21
-11.78
  0
LINE
  8
0
 10
29.7528
 20
-11.78
 11
28.0418
 21
-15.4161
  0
LINE
  8
0
 10
28.0418
 20
-15.4161
 11
25.8885
 21
-18.8091
  0
LINE
  8
0
 10
25.8885
 20
-18.8091
 11
23.327
 21
-21.9055
  0
LINE
  8
0
 10
23.327
 20
-21.9055
 11
20.3976
 21
-24.6564
  0
LINE
  8
0
 10
20.3976
 20
-24.6564
 11
17.1465
 21
-27.0185
  0
LINE
  8
0
 10
17.1465
 20
-27.0185
 11
13.6249
 21
-28.9545
  0
LINE
  8
0
 10
13.6249
 20
-28.9545
 11
9.88853
 21
-30.4338
  0
LINE
  8
0
 10
9.88853
 20
-30.4338
 11
5.9962
 21
-31.4332
  0
LINE
  8
0
 10
5.9962
 20
-31.4332
 11
2.00929
 21
-31.9368
  0
LINE
  8
0
 10
2.00929
 20
-31.9368
 11
-2.00929
 21
-31.9368
  0
LINE
  8
0
 10
29.8116
 20
-32.9941
 11
29.4379
 21
-32.9469
  0
LINE
  8
0
 10
29.4379
 20
-32.9469
 11
29.0729
 21
-32.8532
  0
LINE
  8
0
 10
29.0729
 20
-32.8532
 11
28.7227
 21
-32.7145
  0
LINE
  8
0
 10
28.7227
 20
-32.7145
 11
28.3925
 21
-32.533
  0
LINE
  8
0
 10
28.3925
 20
-32.533
 11
28.0877
 21
-32.3115
  0
LINE
  8
0
 10
28.0877
 20
-32.3115
 11
27.8131
 21
-32.0536
  0
LINE
  8
0
 10
27.8131
 20
-32.0536
 11
27.5729
 21
-31.7634
  0
LINE
  8
0
 10
27.5729
 20
-31.7634
 11
27.3711
 21
-31.4453
  0
LINE
  8
0
 10
27.3711
 20
-31.4453
 11
27.2107
 21
-31.1044
  0
LINE
  8
0
 10
27.2107
 20
-31.1044
 11
27.0942
 21
-30.7461
  0
LINE
  8
0
 10
27.0942
 20
-30.7461
 11
27.0237
 21
-30.376
  0
LINE
  8
0
 10
27.0237
 20
-30.376
 11
27
 21
-30
  0
LINE
  8
0
 10
27
 20
-30
 11
27.0237
 21
-29.624
  0
LINE
  8
0
 10
27.0237
 20
-29.624
 11
27.0942
 21
-29.2539
  0
LINE
  8
0
 10
27.0942
 20
-29.2539
 11
27.2107
 21
-28.8956
  0
LINE
  8
0
 10
27.2107
 20
-28.8956
 11
27.3711
 21
-28.5547
  0
LINE
  8
0
 10
27.3711
 20
-28.5547
 11
27.5729
 21
-28.2366
  0
LINE
  8
0
 10
27.5729
 20
-28.2366
 11
27.8131
 21
-27.9464
  0
LINE
  8
0
 10
27.8131
 20
-27.9464
 11
28.0877
 21
-27.6884
  0
LINE
  8
0
 10
28.0877
 20
-27.6884
 11
28.3925
 21
-27.467
  0
LINE
  8
0
 10
28.3925
 20
-27.467
 11
28.7227
 21
-27.2855
  0
LINE
  8
0
 10
28.7227
 20
-27.2855
 11
29.0729
 21
-27.1468
  0
LINE
  8
0
 10
29.0729
 20
-27.1468
 11
29.4379
 21
-27.0531
  0
LINE
  8
0
 10
29.4379
 20
-27.0531
 11
29.8116
 21
-27.0059
  0
LINE
  8
0
 10
29.8116
 20
-27.0059
 11
30.1884
 21
-27.0059
  0
LINE
  8
0
 10
30.1884
 20
-27.0059
 11
30.5621
 21
-27.0531
  0
LINE
  8
0
 10
30.5621
 20
-27.0531
 11
30.927
 21
-27.1468
  0
LINE
  8
0
 10
30.927
 20
-27.1468
 11
31.2773
 21
-27.2855
  0
LINE
  8
0
 10
31.2773
 20
-27.2855
 11
31.6075
 21
-27.467
  0
LINE
  8
0
 10
31.6075
 20
-27.467
 11
31.9123
 21
-27.6884
  0
LINE
  8
0
 10
31.9123
 20
-27.6884
 11
32.1869
 21
-27.9464
  0
LINE
  8
0
 10
32.1869
 20
-27.9464
 11
32.427
 21
-28.2366
  0
LINE
  8
0
 10
32.427
 20
-28.2366
 11
32.6289
 21
-28.5547
  0
LINE
  8
0
 10
32.6289
 20
-28.5547
 11
32.7893
 21
-28.8956
  0
LINE
  8
0
 10
32.7893
 20
-28.8956
 11
32.9057
 21
-29.2539
  0
LINE
  8
0
 10
32.9057
 20
-29.2539
 11
32.9763
 21
-29.624
  0
LINE
  8
0
 10
32.9763
 20
-29.624
 11
33
 21
-30
  0
LINE
  8
0
 10
33
 20
-30
 11
32.9763
 21
-30.376
  0
LINE
  8
0
 10
32.9763
 20
-30.376
 11
32.9057
 21
-30.7461
  0
LINE
  8
0
 10
32.9057
 20
-30.7461
 11
32.7893
 21
-31.1044
  0
LINE
  8
0
 10
32.7893
 20
-31.1044
 11
32.6289
 21
-31.4453
  0
LINE
  8
0
 10
32.6289
 20
-31.4453
 11
32.427
 21
-31.7634
  0
LINE
  8
0
 10
32.427
 20
-31.7634
 11
32.1869
 21
-32.0536
  0
LINE
  8
0
 10
32.1869
 20
-32.0536
 11
31.9123
 21
-32.3115
  0
LINE
  8
0
 10
31.9123
 20
-32.3115
 11
31.6075
 21
-32.533
  0
LINE
  8
0
 10
31.6075
 20
-32.533
 11
31.2773
 21
-32.7145
  0
LINE
  8
0
 10
31.2773
 20
-32.7145
 11
30.927
 21
-32.8532
  0
LINE
  8
0
 10
30.927
 20
-32.8532
 11
30.5621
 21
-32.9469
  0
LINE
  8
0
 10
30.5621
 20
-32.9469
 11
30.1884
 21
-32.9941
  0
LINE
  8
0
 10
30.1884
 20
-32.9941
 11
29.8116
 21
-32.9941
  0
LINE
  8
0
 10
-30.1884
 20
-32.9941
 11
-30.5621
 21
-32.9469
  0
LINE
  8
0
 10
-30.5621
 20
-32.9469
 11
-30.927
 21
-32.8532
  0
LINE
  8
0
 10
-30.927
 20
-32.8532
 11
-31.2773
 21
-32.7145
  0
LINE
  8
0
 10
-31.2773
 20
-32.7145
 11
-31.6075
 21
-32.533
  0
LINE
  8
0
 10
-31.6075
 20
-32.533
 11
-31.9123
 21
-32.3115
  0
LINE
  8
0
 10
-31.9123
 20
-32.3115
 11
-32.1869
 21
-32.0536
  0
LINE
  8
0
 10
-32.1869
 20
-32.0536
 11
-32.427
 21
-31.7634
  0
LINE
  8
0
 10
-32.427
 20
-31.7634
 11
-32.6289
 21
-31.4453
  0
LINE
  8
0
 10
-32.6289
 20
-31.4453
 11
-32.7893
 21
-31.1044
  0
LINE
  8
0
 10
-32.7893
 20
-31.1044
 11
-32.9057
 21
-30.7461
  0
LINE
  8
0
 10
-32.9057
 20
-30.7461
 11
-32.9763
 21
-30.376
  0
LINE
  8
0
 10
-32.9763
 20
-30.376
 11
-33
 21
-30
  0
LINE
  8
0
 10
-33
 20
-30
 11
-32.9763
 21
-29.624
  0
LINE
  8
0
 10
-32.9763
 20
-29.624
 11
-32.9057
 21
-29.2539
  0
LINE
  8
0
 10
-32.9057
 20
-29.2539
 11
-32.7893
 21
-28.8956
  0
LINE
  8
0
 10
-32.7893
 20
-28.8956
 11
-32.6289
 21
-28.5547
  0
LINE
  8
0
 10
-32.6289
 20
-28.5547
 11
-32.427
 21
-28.2366
  0
LINE
  8
0
 10
-32.427
 20
-28.2366
 11
-32.1869
 21
-27.9464
  0
LINE
  8
0
 10
-32.1869
 20
-27.9464
 11
-31.9123
 21
-27.6884
  0
LINE
  8
0
 10
-31.9123
 20
-27.6884
 11
-31.6075
 21
-27.467
  0
LINE
  8
0
 10
-31.6075
 20
-27.467
 11
-31.2773
 21
-27.2855
  0
LINE
  8
0
 10
-31.2773
 20
-27.2855
 11
-30.927
 21
-27.1468
  0
LINE
  8
0
 10
-30.927
 20
-27.1468
 11
-30.5621
 21
-27.0531
  0
LINE
  8
0
 10
-30.5621
 20
-27.0531
 11
-30.1884
 21
-27.0059
  0
LINE
  8
0
 10
-30.1884
 20
-27.0059
 11
-29.8116
 21
-27.0059
  0
LINE
  8
0
 10
-29.8116
 20
-27.0059
 11
-29.4379
 21
-27.0531
  0
LINE
  8
0
 10
-29.4379
 20
-27.0531
 11
-29.0729
 21
-27.1468
  0
LINE
  8
0
 10
-29.0729
 20
-27.1468
 11
-28.7227
 21
-27.2855
  0
LINE
  8
0
 10
-28.7227
 20
-27.2855
 11
-28.3925
 21
-27.467
  0
LINE
  8
0
 10
-28.3925
 20
-27.467
 11
-28.0877
 21
-27.6884
  0
LINE
  8
0
 10
-28.0877
 20
-27.6884
 11
-27.8131
 21
-27.9464
  0
LINE
  8
0
 10
-27.8131
 20
-27.9464
 11
-27.5729
 21
-28.2366
  0
LINE
  8
0
 10
-27.5729
 20
-28.2366
 11
-27.3711
 21
-28.5547
  0
LINE
  8
0
 10
-27.3711
 20
-28.5547
 11
-27.2107
 21
-28.8956
  0
LINE
  8
0
 10
-27.2107
 20
-28.8956
 11
-27.0942
 21
-29.2539
  0
LINE
  8
0
 10
-27.0942
 20
-29.2539
 11
-27.0237
 21
-29.624
  0
LINE
  8
0
 10
-27.0237
 20
-29.624
 11
-27
 21
-30
  0
LINE
  8
0
 10
-27
 20
-30
 11
-27.0237
 21
-30.376
  0
LINE
  8
0
 10
-27.0237
 20
-30.376
 11
-27.0942
 21
-30.7461
  0
LINE
  8
0
 10
-27.0942
 20
-30.7461
 11
-27.2107
 21
-31.1044
  0
LINE
  8
0
 10
-27.2107
 20
-31.1044
 11
-27.3711
 21
-31.4453
  0
LINE
  8
0
 10
-27.3711
 20
-31.4453
 11
-27.5729
 21
-31.7634
  0
LINE
  8
0
 10
-27.5729
 20
-31.7634
 11
-27.8131
 21
-32.0536
  0
LINE
  8
0
 10
-27.8131
 20
-32.0536
 11
-28.0877
 21
-32.3115
  0
LINE
  8
0
 10
-28.0877
 20
-32.3115
 11
-28.3925
 21
-32.533
  0
LINE
  8
0
 10
-28.3925
 20
-32.533
 11
-28.7227
 21
-32.7145
  0
LINE
  8
0
 10
-28.7227
 20
-32.7145
 11
-29.0729
 21
-32.8532
  0
LINE
  8
0
 10
-29.0729
 20
-32.8532
 11
-29.4379
 21
-32.9469
  0
LINE
  8
0
 10
-29.4379
 20
-32.9469
 11
-29.8116
 21
-32.9941
  0
LINE
  8
0
 10
-29.8116
 20
-32.9941
 11
-30.1884
 21
-32.9941
  0
ENDSEC
  0
SECTION
  2
OBJECTS
  0
DICTIONARY
  0
ENDSEC
  0
EOF
