<?xml version="1.0" standalone="no"?>
<!DOCTYPE svg PUBLIC "-//W3C//DTD SVG 1.1//EN" "http://www.w3.org/Graphics/SVG/1.1/DTD/svg11.dtd">
<svg width="134mm" height="150mm" viewBox="-67 -75 134 150" xmlns="http://www.w3.org/2000/svg" version="1.1">
<title>OpenSCAD Model</title>
<path d="
M 62.9369,74.4114 L 63.5451,74.2553 L 64.1289,74.0241 L 64.6791,73.7216 L 65.1871,73.3526 L 65.6448,72.9227
 L 66.0451,72.4389 L 66.3815,71.9088 L 66.6489,71.3406 L 66.8429,70.7434 L 66.9606,70.1267 L 67,69.5
 L 67,-69.5 L 66.9606,-70.1267 L 66.8429,-70.7434 L 66.6489,-71.3406 L 66.3815,-71.9088 L 66.0451,-72.4389
 L 65.6448,-72.9227 L 65.1871,-73.3526 L 64.6791,-73.7216 L 64.1289,-74.0241 L 63.5451,-74.2553 L 62.9369,-74.4114
 L 62.3139,-74.4901 L -62.3139,-74.4901 L -62.9369,-74.4114 L -63.5451,-74.2553 L -64.1289,-74.0241 L -64.6791,-73.7216
 L -65.1871,-73.3526 L -65.6448,-72.9227 L -66.0451,-72.4389 L -66.3815,-71.9088 L -66.6489,-71.3406 L -66.8429,-70.7434
 L -66.9606,-70.1267 L -67,-69.5 L -67,69.5 L -66.9606,70.1267 L -66.8429,70.7434 L -66.6489,71.3406
 L -66.3815,71.9088 L -66.0451,72.4389 L -65.6448,72.9227 L -65.1871,73.3526 L -64.6791,73.7216 L -64.1289,74.0241
 L -63.5451,74.2553 L -62.9369,74.4114 L -62.3139,74.4901 L 62.3139,74.4901 z
M 59.8116,-64.5059 L 59.4379,-64.5531 L 59.0729,-64.6468 L 58.7227,-64.7855 L 58.3925,-64.967 L 58.0877,-65.1885
 L 57.8131,-65.4464 L 57.5729,-65.7366 L 57.3711,-66.0547 L 57.2107,-66.3956 L 57.0942,-66.7539 L 57.0237,-67.124
 L 57,-67.5 L 57.0237,-67.876 L 57.0942,-68.2461 L 57.2107,-68.6044 L 57.3711,-68.9453 L 57.5729,-69.2634
 L 57.8131,-69.5536 L 58.0877,-69.8115 L 58.3925,-70.033 L 58.7227,-70.2145 L 59.0729,-70.3532 L 59.4379,-70.4469
 L 59.8116,-70.4941 L 60.1884,-70.4941 L 60.5621,-70.4469 L 60.927,-70.3532 L 61.2773,-70.2145 L 61.6075,-70.033
 L 61.9123,-69.8115 L 62.1869,-69.5536 L 62.427,-69.2634 L 62.6289,-68.9453 L 62.7893,-68.6044 L 62.9057,-68.2461
 L 62.9763,-67.876 L 63,-67.5 L 62.9763,-67.124 L 62.9057,-66.7539 L 62.7893,-66.3956 L 62.6289,-66.0547
 L 62.427,-65.7366 L 62.1869,-65.4464 L 61.9123,-65.1885 L 61.6075,-64.967 L 61.2773,-64.7855 L 60.927,-64.6468
 L 60.5621,-64.5531 L 60.1884,-64.5059 z
M 29.8116,-64.5059 L 29.4379,-64.5531 L 29.0729,-64.6468 L 28.7227,-64.7855 L 28.3925,-64.967 L 28.0877,-65.1885
 L 27.8131,-65.4464 L 27.5729,-65.7366 L 27.3711,-66.0547 L 27.2107,-66.3956 L 27.0942,-66.7539 L 27.0237,-67.124
 L 27,-67.5 L 27.0237,-67.876 L 27.0942,-68.2461 L 27.2107,-68.6044 L 27.3711,-68.9453 L 27.5729,-69.2634
 L 27.8131,-69.5536 L 28.0877,-69.8115 L 28.3925,-70.033 L 28.7227,-70.2145 L 29.0729,-70.3532 L 29.4379,-70.4469
 L 29.8116,-70.4941 L 30.1884,-70.4941 L 30.5621,-70.4469 L 30.927,-70.3532 L 31.2773,-70.2145 L 31.6075,-70.033
 L 31.9123,-69.8115 L 32.1869,-69.5536 L 32.427,-69.2634 L 32.6289,-68.9453 L 32.7893,-68.6044 L 32.9057,-68.2461
 L 32.9763,-67.876 L 33,-67.5 L 32.9763,-67.124 L 32.9057,-66.7539 L 32.7893,-66.3956 L 32.6289,-66.0547
 L 32.427,-65.7366 L 32.1869,-65.4464 L 31.9123,-65.1885 L 31.6075,-64.967 L 31.2773,-64.7855 L 30.927,-64.6468
 L 30.5621,-64.5531 L 30.1884,-64.5059 z
M -60.1884,-64.5059 L -60.5621,-64.5531 L -60.927,-64.6468 L -61.2773,-64.7855 L -61.6075,-64.967 L -61.9123,-65.1885
 L -62.1869,-65.4464 L -62.427,-65.7366 L -62.6289,-66.0547 L -62.7893,-66.3956 L -62.9057,-66.7539 L -62.9763,-67.124
 L -63,-67.5 L -62.9763,-67.876 L -62.9057,-68.2461 L -62.7893,-68.6044 L -62.6289,-68.9453 L -62.427,-69.2634
 L -62.1869,-69.5536 L -61.9123,-69.8115 L -61.6075,-70.033 L -61.2773,-70.2145 L -60.927,-70.3532 L -60.5621,-70.4469
 L -60.1884,-70.4941 L -59.8116,-70.4941 L -59.4379,-70.4469 L -59.0729,-70.3532 L -58.7227,-70.2145 L -58.3925,-70.033
 L -58.0877,-69.8115 L -57.8131,-69.5536 L -57.5729,-69.2634 L -57.3711,-68.9453 L -57.2107,-68.6044 L -57.0942,-68.2461
 L -57.0237,-67.876 L -57,-67.5 L -57.0237,-67.124 L -57.0942,-66.7539 L -57.2107,-66.3956 L -57.3711,-66.0547
 L -57.5729,-65.7366 L -57.8131,-65.4464 L -58.0877,-65.1885 L -58.3925,-64.967 L -58.7227,-64.7855 L -59.0729,-64.6468
 L -59.4379,-64.5531 L -59.8116,-64.5059 z
M -30.1884,-64.5059 L -30.5621,-64.5531 L -30.927,-64.6468 L -31.2773,-64.7855 L -31.6075,-64.967 L -31.9123,-65.1885
 L -32.1869,-65.4464 L -32.427,-65.7366 L -32.6289,-66.0547 L -32.7893,-66.3956 L -32.9057,-66.7539 L -32.9763,-67.124
 L -33,-67.5 L -32.9763,-67.876 L -32.9057,-68.2461 L -32.7893,-68.6044 L -32.6289,-68.9453 L -32.427,-69.2634
 L -32.1869,-69.5536 L -31.9123,-69.8115 L -31.6075,-70.033 L -31.2773,-70.2145 L -30.927,-70.3532 L -30.5621,-70.4469
 L -30.1884,-70.4941 L -29.8116,-70.4941 L -29.4379,-70.4469 L -29.0729,-70.3532 L -28.7227,-70.2145 L -28.3925,-70.033
 L -28.0877,-69.8115 L -27.8131,-69.5536 L -27.5729,-69.2634 L -27.3711,-68.9453 L -27.2107,-68.6044 L -27.0942,-68.2461
 L -27.0237,-67.876 L -27,-67.5 L -27.0237,-67.124 L -27.0942,-66.7539 L -27.2107,-66.3956 L -27.3711,-66.0547
 L -27.5729,-65.7366 L -27.8131,-65.4464 L -28.0877,-65.1885 L -28.3925,-64.967 L -28.7227,-64.7855 L -29.0729,-64.6468
 L -29.4379,-64.5531 L -29.8116,-64.5059 z
M -15.1884,-64.5059 L -15.5621,-64.5531 L -15.927,-64.6468 L -16.2773,-64.7855 L -16.6075,-64.967 L -16.9123,-65.1885
 L -17.1869,-65.4464 L -17.427,-65.7366 L -17.6289,-66.0547 L -17.7893,-66.3956 L -17.9057,-66.7539 L -17.9763,-67.124
 L -18,-67.5 L -17.9763,-67.876 L -17.9057,-68.2461 L -17.7893,-68.6044 L -17.6289,-68.9453 L -17.427,-69.2634
 L -17.1869,-69.5536 L -16.9123,-69.8115 L -16.6075,-70.033 L -16.2773,-70.2145 L -15.927,-70.3532 L -15.5621,-70.4469
 L -15.1884,-70.4941 L -14.8116,-70.4941 L -14.4379,-70.4469 L -14.0729,-70.3532 L -13.7227,-70.2145 L -13.3925,-70.033
 L -13.0877,-69.8115 L -12.8131,-69.5536 L -12.5729,-69.2634 L -12.3711,-68.9453 L -12.2107,-68.6044 L -12.0942,-68.2461
 L -12.0237,-67.876 L -12,-67.5 L -12.0237,-67.124 L -12.0942,-66.7539 L -12.2107,-66.3956 L -12.3711,-66.0547
 L -12.5729,-65.7366 L -12.8131,-65.4464 L -13.0877,-65.1885 L -13.3925,-64.967 L -13.7227,-64.7855 L -14.0729,-64.6468
 L -14.4379,-64.5531 L -14.8116,-64.5059 z
M -0.18837,-64.5059 L -0.562134,-64.5531 L -0.927048,-64.6468 L -1.27733,-64.7855 L -1.60747,-64.967 L -1.91226,-65.1885
 L -2.1869,-65.4464 L -2.42705,-65.7366 L -2.62891,-66.0547 L -2.78932,-66.3956 L -2.90575,-66.7539 L -2.97633,-67.124
 L -3,-67.5 L -2.97633,-67.876 L -2.90575,-68.2461 L -2.78932,-68.6044 L -2.62891,-68.9453 L -2.42705,-69.2634
 L -2.1869,-69.5536 L -1.91226,-69.8115 L -1.60747,-70.033 L -1.27733,-70.2145 L -0.927048,-70.3532 L -0.562134,-70.4469
 L -0.18837,-70.4941 L 0.18837,-70.4941 L 0.562134,-70.4469 L 0.927048,-70.3532 L 1.27733,-70.2145 L 1.60747,-70.033
 L 1.91226,-69.8115 L 2.1869,-69.5536 L 2.42705,-69.2634 L 2.62891,-68.9453 L 2.78932,-68.6044 L 2.90575,-68.2461
 L 2.97633,-67.876 L 3,-67.5 L 2.97633,-67.124 L 2.90575,-66.7539 L 2.78932,-66.3956 L 2.62891,-66.0547
 L 2.42705,-65.7366 L 2.1869,-65.4464 L 1.91226,-65.1885 L 1.60747,-64.967 L 1.27733,-64.7855 L 0.927048,-64.6468
 L 0.562134,-64.5531 L 0.18837,-64.5059 z
M 14.8116,-64.5059 L 14.4379,-64.5531 L 14.0729,-64.6468 L 13.7227,-64.7855 L 13.3925,-64.967 L 13.0877,-65.1885
 L 12.8131,-65.4464 L 12.5729,-65.7366 L 12.3711,-66.0547 L 12.2107,-66.3956 L 12.0942,-66.7539 L 12.0237,-67.124
 L 12,-67.5 L 12.0237,-67.876 L 12.0942,-68.2461 L 12.2107,-68.6044 L 12.3711,-68.9453 L 12.5729,-69.2634
 L 12.8131,-69.5536 L 13.0877,-69.8115 L 13.3925,-70.033 L 13.7227,-70.2145 L 14.0729,-70.3532 L 14.4379,-70.4469
 L 14.8116,-70.4941 L 15.1884,-70.4941 L 15.5621,-70.4469 L 15.927,-70.3532 L 16.2773,-70.2145 L 16.6075,-70.033
 L 16.9123,-69.8115 L 17.1869,-69.5536 L 17.427,-69.2634 L 17.6289,-68.9453 L 17.7893,-68.6044 L 17.9057,-68.2461
 L 17.9763,-67.876 L 18,-67.5 L 17.9763,-67.124 L 17.9057,-66.7539 L 17.7893,-66.3956 L 17.6289,-66.0547
 L 17.427,-65.7366 L 17.1869,-65.4464 L 16.9123,-65.1885 L 16.6075,-64.967 L 16.2773,-64.7855 L 15.927,-64.6468
 L 15.5621,-64.5531 L 15.1884,-64.5059 z
M 44.8116,-64.5059 L 44.4379,-64.5531 L 44.0729,-64.6468 L 43.7227,-64.7855 L 43.3925,-64.967 L 43.0877,-65.1885
 L 42.8131,-65.4464 L 42.5729,-65.7366 L 42.3711,-66.0547 L 42.2107,-66.3956 L 42.0942,-66.7539 L 42.0237,-67.124
 L 42,-67.5 L 42.0237,-67.876 L 42.0942,-68.2461 L 42.2107,-68.6044 L 42.3711,-68.9453 L 42.5729,-69.2634
 L 42.8131,-69.5536 L 43.0877,-69.8115 L 43.3925,-70.033 L 43.7227,-70.2145 L 44.0729,-70.3532 L 44.4379,-70.4469
 L 44.8116,-70.4941 L 45.1884,-70.4941 L 45.5621,-70.4469 L 45.927,-70.3532 L 46.2773,-70.2145 L 46.6075,-70.033
 L 46.9123,-69.8115 L 47.1869,-69.5536 L 47.427,-69.2634 L 47.6289,-68.9453 L 47.7893,-68.6044 L 47.9057,-68.2461
 L 47.9763,-67.876 L 48,-67.5 L 47.9763,-67.124 L 47.9057,-66.7539 L 47.7893,-66.3956 L 47.6289,-66.0547
 L 47.427,-65.7366 L 47.1869,-65.4464 L 46.9123,-65.1885 L 46.6075,-64.967 L 46.2773,-64.7855 L 45.927,-64.6468
 L 45.5621,-64.5531 L 45.1884,-64.5059 z
M -45.1884,-64.5059 L -45.5621,-64.5531 L -45.927,-64.6468 L -46.2773,-64.7855 L -46.6075,-64.967 L -46.9123,-65.1885
 L -47.1869,-65.4464 L -47.427,-65.7366 L -47.6289,-66.0547 L -47.7893,-66.3956 L -47.9057,-66.7539 L -47.9763,-67.124
 L -48,-67.5 L -47.9763,-67.876 L -47.9057,-68.2461 L -47.7893,-68.6044 L -47.6289,-68.9453 L -47.427,-69.2634
 L -47.1869,-69.5536 L -46.9123,-69.8115 L -46.6075,-70.033 L -46.2773,-70.2145 L -45.927,-70.3532 L -45.5621,-70.4469
 L -45.1884,-70.4941 L -44.8116,-70.4941 L -44.4379,-70.4469 L -44.0729,-70.3532 L -43.7227,-70.2145 L -43.3925,-70.033
 L -43.0877,-69.8115 L -42.8131,-69.5536 L -42.5729,-69.2634 L -42.3711,-68.9453 L -42.2107,-68.6044 L -42.0942,-68.2461
 L -42.0237,-67.876 L -42,-67.5 L -42.0237,-67.124 L -42.0942,-66.7539 L -42.2107,-66.3956 L -42.3711,-66.0547
 L -42.5729,-65.7366 L -42.8131,-65.4464 L -43.0877,-65.1885 L -43.3925,-64.967 L -43.7227,-64.7855 L -44.0729,-64.6468
 L -44.4379,-64.5531 L -44.8116,-64.5059 z
M 52.4058,-66.003 L 52.2189,-66.0266 L 52.0365,-66.0734 L 51.8613,-66.1428 L 51.6963,-66.2335 L 51.5439,-66.3442
 L 51.4065,-66.4732 L 51.2865,-66.6183 L 51.1855,-66.7774 L 51.1053,-66.9478 L 51.0471,-67.127 L 51.0118,-67.312
 L 51,-67.5 L 51.0118,-67.688 L 51.0471,-67.873 L 51.1053,-68.0522 L 51.1855,-68.2226 L 51.2865,-68.3817
 L 51.4065,-68.5268 L 51.5439,-68.6558 L 51.6963,-68.7665 L 51.8613,-68.8572 L 52.0365,-68.9266 L 52.2189,-68.9734
 L 52.4058,-68.997 L 52.5942,-68.997 L 52.7811,-68.9734 L 52.9635,-68.9266 L 53.1387,-68.8572 L 53.3037,-68.7665
 L 53.4561,-68.6558 L 53.5934,-68.5268 L 53.7135,-68.3817 L 53.8145,-68.2226 L 53.8947,-68.0522 L 53.9529,-67.873
 L 53.9882,-67.688 L 54,-67.5 L 53.9882,-67.312 L 53.9529,-67.127 L 53.8947,-66.9478 L 53.8145,-66.7774
 L 53.7135,-66.6183 L 53.5934,-66.4732 L 53.4561,-66.3442 L 53.3037,-66.2335 L 53.1387,-66.1428 L 52.9635,-66.0734
 L 52.7811,-66.0266 L 52.5942,-66.003 z
M -22.5942,-66.003 L -22.7811,-66.0266 L -22.9635,-66.0734 L -23.1387,-66.1428 L -23.3037,-66.2335 L -23.4561,-66.3442
 L -23.5934,-66.4732 L -23.7135,-66.6183 L -23.8145,-66.7774 L -23.8947,-66.9478 L -23.9529,-67.127 L -23.9882,-67.312
 L -24,-67.5 L -23.9882,-67.688 L -23.9529,-67.873 L -23.8947,-68.0522 L -23.8145,-68.2226 L -23.7135,-68.3817
 L -23.5934,-68.5268 L -23.4561,-68.6558 L -23.3037,-68.7665 L -23.1387,-68.8572 L -22.9635,-68.9266 L -22.7811,-68.9734
 L -22.5942,-68.997 L -22.4058,-68.997 L -22.2189,-68.9734 L -22.0365,-68.9266 L -21.8613,-68.8572 L -21.6963,-68.7665
 L -21.5439,-68.6558 L -21.4065,-68.5268 L -21.2865,-68.3817 L -21.1855,-68.2226 L -21.1053,-68.0522 L -21.0471,-67.873
 L -21.0118,-67.688 L -21,-67.5 L -21.0118,-67.312 L -21.0471,-67.127 L -21.1053,-66.9478 L -21.1855,-66.7774
 L -21.2865,-66.6183 L -21.4065,-66.4732 L -21.5439,-66.3442 L -21.6963,-66.2335 L -21.8613,-66.1428 L -22.0365,-66.0734
 L -22.2189,-66.0266 L -22.4058,-66.003 z
M 7.40581,-66.003 L 7.21892,-66.0266 L 7.03647,-66.0734 L 6.86133,-66.1428 L 6.69626,-66.2335 L 6.54385,-66.3442
 L 6.40654,-66.4732 L 6.28647,-66.6183 L 6.18553,-66.7774 L 6.10533,-66.9478 L 6.04712,-67.127 L 6.01183,-67.312
 L 6,-67.5 L 6.01183,-67.688 L 6.04712,-67.873 L 6.10533,-68.0522 L 6.18553,-68.2226 L 6.28647,-68.3817
 L 6.40654,-68.5268 L 6.54385,-68.6558 L 6.69626,-68.7665 L 6.86133,-68.8572 L 7.03647,-68.9266 L 7.21892,-68.9734
 L 7.40581,-68.997 L 7.59418,-68.997 L 7.78107,-68.9734 L 7.96352,-68.9266 L 8.13866,-68.8572 L 8.30373,-68.7665
 L 8.45613,-68.6558 L 8.59344,-68.5268 L 8.71352,-68.3817 L 8.81445,-68.2226 L 8.89465,-68.0522 L 8.95287,-67.873
 L 8.98816,-67.688 L 9,-67.5 L 8.98816,-67.312 L 8.95287,-67.127 L 8.89465,-66.9478 L 8.81445,-66.7774
 L 8.71352,-66.6183 L 8.59344,-66.4732 L 8.45613,-66.3442 L 8.30373,-66.2335 L 8.13866,-66.1428 L 7.96352,-66.0734
 L 7.78107,-66.0266 L 7.59418,-66.003 z
M -7.59418,-66.003 L -7.78107,-66.0266 L -7.96352,-66.0734 L -8.13866,-66.1428 L -8.30373,-66.2335 L -8.45613,-66.3442
 L -8.59344,-66.4732 L -8.71352,-66.6183 L -8.81445,-66.7774 L -8.89465,-66.9478 L -8.95287,-67.127 L -8.98816,-67.312
 L -9,-67.5 L -8.98816,-67.688 L -8.95287,-67.873 L -8.89465,-68.0522 L -8.81445,-68.2226 L -8.71352,-68.3817
 L -8.59344,-68.5268 L -8.45613,-68.6558 L -8.30373,-68.7665 L -8.13866,-68.8572 L -7.96352,-68.9266 L -7.78107,-68.9734
 L -7.59418,-68.997 L -7.40581,-68.997 L -7.21892,-68.9734 L -7.03647,-68.9266 L -6.86133,-68.8572 L -6.69626,-68.7665
 L -6.54385,-68.6558 L -6.40654,-68.5268 L -6.28647,-68.3817 L -6.18553,-68.2226 L -6.10533,-68.0522 L -6.04712,-67.873
 L -6.01183,-67.688 L -6,-67.5 L -6.01183,-67.312 L -6.04712,-67.127 L -6.10533,-66.9478 L -6.18553,-66.7774
 L -6.28647,-66.6183 L -6.40654,-66.4732 L -6.54385,-66.3442 L -6.69626,-66.2335 L -6.86133,-66.1428 L -7.03647,-66.0734
 L -7.21892,-66.0266 L -7.40581,-66.003 z
M -37.5942,-66.003 L -37.7811,-66.0266 L -37.9635,-66.0734 L -38.1387,-66.1428 L -38.3037,-66.2335 L -38.4561,-66.3442
 L -38.5934,-66.4732 L -38.7135,-66.6183 L -38.8145,-66.7774 L -38.8947,-66.9478 L -38.9529,-67.127 L -38.9882,-67.312
 L -39,-67.5 L -38.9882,-67.688 L -38.9529,-67.873 L -38.8947,-68.0522 L -38.8145,-68.2226 L -38.7135,-68.3817
 L -38.5934,-68.5268 L -38.4561,-68.6558 L -38.3037,-68.7665 L -38.1387,-68.8572 L -37.9635,-68.9266 L -37.7811,-68.9734
 L -37.5942,-68.997 L -37.4058,-68.997 L -37.2189,-68.9734 L -37.0365,-68.9266 L -36.8613,-68.8572 L -36.6963,-68.7665
 L -36.5439,-68.6558 L -36.4065,-68.5268 L -36.2865,-68.3817 L -36.1855,-68.2226 L -36.1053,-68.0522 L -36.0471,-67.873
 L -36.0118,-67.688 L -36,-67.5 L -36.0118,-67.312 L -36.0471,-67.127 L -36.1053,-66.9478 L -36.1855,-66.7774
 L -36.2865,-66.6183 L -36.4065,-66.4732 L -36.5439,-66.3442 L -36.6963,-66.2335 L -36.8613,-66.1428 L -37.0365,-66.0734
 L -37.2189,-66.0266 L -37.4058,-66.003 z
M 37.4058,-66.003 L 37.2189,-66.0266 L 37.0365,-66.0734 L 36.8613,-66.1428 L 36.6963,-66.2335 L 36.5439,-66.3442
 L 36.4065,-66.4732 L 36.2865,-66.6183 L 36.1855,-66.7774 L 36.1053,-66.9478 L 36.0471,-67.127 L 36.0118,-67.312
 L 36,-67.5 L 36.0118,-67.688 L 36.0471,-67.873 L 36.1053,-68.0522 L 36.1855,-68.2226 L 36.2865,-68.3817
 L 36.4065,-68.5268 L 36.5439,-68.6558 L 36.6963,-68.7665 L 36.8613,-68.8572 L 37.0365,-68.9266 L 37.2189,-68.9734
 L 37.4058,-68.997 L 37.5942,-68.997 L 37.7811,-68.9734 L 37.9635,-68.9266 L 38.1387,-68.8572 L 38.3037,-68.7665
 L 38.4561,-68.6558 L 38.5934,-68.5268 L 38.7135,-68.3817 L 38.8145,-68.2226 L 38.8947,-68.0522 L 38.9529,-67.873
 L 38.9882,-67.688 L 39,-67.5 L 38.9882,-67.312 L 38.9529,-67.127 L 38.8947,-66.9478 L 38.8145,-66.7774
 L 38.7135,-66.6183 L 38.5934,-66.4732 L 38.4561,-66.3442 L 38.3037,-66.2335 L 38.1387,-66.1428 L 37.9635,-66.0734
 L 37.7811,-66.0266 L 37.5942,-66.003 z
M 22.4058,-66.003 L 22.2189,-66.0266 L 22.0365,-66.0734 L 21.8613,-66.1428 L 21.6963,-66.2335 L 21.5439,-66.3442
 L 21.4065,-66.4732 L 21.2865,-66.6183 L 21.1855,-66.7774 L 21.1053,-66.9478 L 21.0471,-67.127 L 21.0118,-67.312
 L 21,-67.5 L 21.0118,-67.688 L 21.0471,-67.873 L 21.1053,-68.0522 L 21.1855,-68.2226 L 21.2865,-68.3817
 L 21.4065,-68.5268 L 21.5439,-68.6558 L 21.6963,-68.7665 L 21.8613,-68.8572 L 22.0365,-68.9266 L 22.2189,-68.9734
 L 22.4058,-68.997 L 22.5942,-68.997 L 22.7811,-68.9734 L 22.9635,-68.9266 L 23.1387,-68.8572 L 23.3037,-68.7665
 L 23.4561,-68.6558 L 23.5934,-68.5268 L 23.7135,-68.3817 L 23.8145,-68.2226 L 23.8947,-68.0522 L 23.9529,-67.873
 L 23.9882,-67.688 L 24,-67.5 L 23.9882,-67.312 L 23.9529,-67.127 L 23.8947,-66.9478 L 23.8145,-66.7774
 L 23.7135,-66.6183 L 23.5934,-66.4732 L 23.4561,-66.3442 L 23.3037,-66.2335 L 23.1387,-66.1428 L 22.9635,-66.0734
 L 22.7811,-66.0266 L 22.5942,-66.003 z
M -52.5942,-66.003 L -52.7811,-66.0266 L -52.9635,-66.0734 L -53.1387,-66.1428 L -53.3037,-66.2335 L -53.4561,-66.3442
 L -53.5934,-66.4732 L -53.7135,-66.6183 L -53.8145,-66.7774 L -53.8947,-66.9478 L -53.9529,-67.127 L -53.9882,-67.312
 L -54,-67.5 L -53.9882,-67.688 L -53.9529,-67.873 L -53.8947,-68.0522 L -53.8145,-68.2226 L -53.7135,-68.3817
 L -53.5934,-68.5268 L -53.4561,-68.6558 L -53.3037,-68.7665 L -53.1387,-68.8572 L -52.9635,-68.9266 L -52.7811,-68.9734
 L -52.5942,-68.997 L -52.4058,-68.997 L -52.2189,-68.9734 L -52.0365,-68.9266 L -51.8613,-68.8572 L -51.6963,-68.7665
 L -51.5439,-68.6558 L -51.4065,-68.5268 L -51.2865,-68.3817 L -51.1855,-68.2226 L -51.1053,-68.0522 L -51.0471,-67.873
 L -51.0118,-67.688 L -51,-67.5 L -51.0118,-67.312 L -51.0471,-67.127 L -51.1053,-66.9478 L -51.1855,-66.7774
 L -51.2865,-66.6183 L -51.4065,-66.4732 L -51.5439,-66.3442 L -51.6963,-66.2335 L -51.8613,-66.1428 L -52.0365,-66.0734
 L -52.2189,-66.0266 L -52.4058,-66.003 z
M -3.61044,57.3865 L -10.7744,56.4815 L -17.7685,54.6857 L -24.4823,52.0276 L -30.81,48.5488 L -36.6519,44.3045
 L -41.9157,39.3615 L -46.5185,33.7977 L -50.3876,27.7008 L -53.4621,21.1672 L -55.6935,14.2997 L -57.0466,7.20665
 L -57.5,-0 L -57.0466,-7.20665 L -55.6935,-14.2997 L -53.4621,-21.1672 L -50.3876,-27.7008 L -46.5185,-33.7977
 L -41.9157,-39.3615 L -36.6519,-44.3045 L -30.81,-48.5488 L -24.4823,-52.0276 L -17.7685,-54.6857 L -10.7744,-56.4815
 L -3.61044,-57.3865 L 3.61044,-57.3865 L 10.7744,-56.4815 L 17.7685,-54.6857 L 24.4823,-52.0276 L 30.81,-48.5488
 L 36.6519,-44.3045 L 41.9157,-39.3615 L 46.5185,-33.7977 L 50.3876,-27.7008 L 53.4621,-21.1672 L 55.6935,-14.2997
 L 57.0466,-7.20665 L 57.5,-0 L 57.0466,7.20665 L 55.6935,14.2997 L 53.4621,21.1672 L 50.3876,27.7008
 L 46.5185,33.7977 L 41.9157,39.3615 L 36.6519,44.3045 L 30.81,48.5488 L 24.4823,52.0276 L 17.7685,54.6857
 L 10.7744,56.4815 L 3.61044,57.3865 z
M 29.8116,70.4941 L 29.4379,70.4469 L 29.0729,70.3532 L 28.7227,70.2145 L 28.3925,70.033 L 28.0877,69.8115
 L 27.8131,69.5536 L 27.5729,69.2634 L 27.3711,68.9453 L 27.2107,68.6044 L 27.0942,68.2461 L 27.0237,67.876
 L 27,67.5 L 27.0237,67.124 L 27.0942,66.7539 L 27.2107,66.3956 L 27.3711,66.0547 L 27.5729,65.7366
 L 27.8131,65.4464 L 28.0877,65.1885 L 28.3925,64.967 L 28.7227,64.7855 L 29.0729,64.6468 L 29.4379,64.5531
 L 29.8116,64.5059 L 30.1884,64.5059 L 30.5621,64.5531 L 30.927,64.6468 L 31.2773,64.7855 L 31.6075,64.967
 L 31.9123,65.1885 L 32.1869,65.4464 L 32.427,65.7366 L 32.6289,66.0547 L 32.7893,66.3956 L 32.9057,66.7539
 L 32.9763,67.124 L 33,67.5 L 32.9763,67.876 L 32.9057,68.2461 L 32.7893,68.6044 L 32.6289,68.9453
 L 32.427,69.2634 L 32.1869,69.5536 L 31.9123,69.8115 L 31.6075,70.033 L 31.2773,70.2145 L 30.927,70.3532
 L 30.5621,70.4469 L 30.1884,70.4941 z
M -30.1884,70.4941 L -30.5621,70.4469 L -30.927,70.3532 L -31.2773,70.2145 L -31.6075,70.033 L -31.9123,69.8115
 L -32.1869,69.5536 L -32.427,69.2634 L -32.6289,68.9453 L -32.7893,68.6044 L -32.9057,68.2461 L -32.9763,67.876
 L -33,67.5 L -32.9763,67.124 L -32.9057,66.7539 L -32.7893,66.3956 L -32.6289,66.0547 L -32.427,65.7366
 L -32.1869,65.4464 L -31.9123,65.1885 L -31.6075,64.967 L -31.2773,64.7855 L -30.927,64.6468 L -30.5621,64.5531
 L -30.1884,64.5059 L -29.8116,64.5059 L -29.4379,64.5531 L -29.0729,64.6468 L -28.7227,64.7855 L -28.3925,64.967
 L -28.0877,65.1885 L -27.8131,65.4464 L -27.5729,65.7366 L -27.3711,66.0547 L -27.2107,66.3956 L -27.0942,66.7539
 L -27.0237,67.124 L -27,67.5 L -27.0237,67.876 L -27.0942,68.2461 L -27.2107,68.6044 L -27.3711,68.9453
 L -27.5729,69.2634 L -27.8131,69.5536 L -28.0877,69.8115 L -28.3925,70.033 L -28.7227,70.2145 L -29.0729,70.3532
 L -29.4379,70.4469 L -29.8116,70.4941 z
M -0.18837,70.4941 L -0.562134,70.4469 L -0.927048,70.3532 L -1.27733,70.2145 L -1.60747,70.033 L -1.91226,69.8115
 L -2.1869,69.5536 L -2.42705,69.2634 L -2.62891,68.9453 L -2.78932,68.6044 L -2.90575,68.2461 L -2.97633,67.876
 L -3,67.5 L -2.97633,67.124 L -2.90575,66.7539 L -2.78932,66.3956 L -2.62891,66.0547 L -2.42705,65.7366
 L -2.1869,65.4464 L -1.91226,65.1885 L -1.60747,64.967 L -1.27733,64.7855 L -0.927048,64.6468 L -0.562134,64.5531
 L -0.18837,64.5059 L 0.18837,64.5059 L 0.562134,64.5531 L 0.927048,64.6468 L 1.27733,64.7855 L 1.60747,64.967
 L 1.91226,65.1885 L 2.1869,65.4464 L 2.42705,65.7366 L 2.62891,66.0547 L 2.78932,66.3956 L 2.90575,66.7539
 L 2.97633,67.124 L 3,67.5 L 2.97633,67.876 L 2.90575,68.2461 L 2.78932,68.6044 L 2.62891,68.9453
 L 2.42705,69.2634 L 2.1869,69.5536 L 1.91226,69.8115 L 1.60747,70.033 L 1.27733,70.2145 L 0.927048,70.3532
 L 0.562134,70.4469 L 0.18837,70.4941 z
M 14.8116,70.4941 L 14.4379,70.4469 L 14.0729,70.3532 L 13.7227,70.2145 L 13.3925,70.033 L 13.0877,69.8115
 L 12.8131,69.5536 L 12.5729,69.2634 L 12.3711,68.9453 L 12.2107,68.6044 L 12.0942,68.2461 L 12.0237,67.876
 L 12,67.5 L 12.0237,67.124 L 12.0942,66.7539 L 12.2107,66.3956 L 12.3711,66.0547 L 12.5729,65.7366
 L 12.8131,65.4464 L 13.0877,65.1885 L 13.3925,64.967 L 13.7227,64.7855 L 14.0729,64.6468 L 14.4379,64.5531
 L 14.8116,64.5059 L 15.1884,64.5059 L 15.5621,64.5531 L 15.927,64.6468 L 16.2773,64.7855 L 16.6075,64.967
 L 16.9123,65.1885 L 17.1869,65.4464 L 17.427,65.7366 L 17.6289,66.0547 L 17.7893,66.3956 L 17.9057,66.7539
 L 17.9763,67.124 L 18,67.5 L 17.9763,67.876 L 17.9057,68.2461 L 17.7893,68.6044 L 17.6289,68.9453
 L 17.427,69.2634 L 17.1869,69.5536 L 16.9123,69.8115 L 16.6075,70.033 L 16.2773,70.2145 L 15.927,70.3532
 L 15.5621,70.4469 L 15.1884,70.4941 z
M -45.1884,70.4941 L -45.5621,70.4469 L -45.927,70.3532 L -46.2773,70.2145 L -46.6075,70.033 L -46.9123,69.8115
 L -47.1869,69.5536 L -47.427,69.2634 L -47.6289,68.9453 L -47.7893,68.6044 L -47.9057,68.2461 L -47.9763,67.876
 L -48,67.5 L -47.9763,67.124 L -47.9057,66.7539 L -47.7893,66.3956 L -47.6289,66.0547 L -47.427,65.7366
 L -47.1869,65.4464 L -46.9123,65.1885 L -46.6075,64.967 L -46.2773,64.7855 L -45.927,64.6468 L -45.5621,64.5531
 L -45.1884,64.5059 L -44.8116,64.5059 L -44.4379,64.5531 L -44.0729,64.6468 L -43.7227,64.7855 L -43.3925,64.967
 L -43.0877,65.1885 L -42.8131,65.4464 L -42.5729,65.7366 L -42.3711,66.0547 L -42.2107,66.3956 L -42.0942,66.7539
 L -42.0237,67.124 L -42,67.5 L -42.0237,67.876 L -42.0942,68.2461 L -42.2107,68.6044 L -42.3711,68.9453
 L -42.5729,69.2634 L -42.8131,69.5536 L -43.0877,69.8115 L -43.3925,70.033 L -43.7227,70.2145 L -44.0729,70.3532
 L -44.4379,70.4469 L -44.8116,70.4941 z
M -15.1884,70.4941 L -15.5621,70.4469 L -15.927,70.3532 L -16.2773,70.2145 L -16.6075,70.033 L -16.9123,69.8115
 L -17.1869,69.5536 L -17.427,69.2634 L -17.6289,68.9453 L -17.7893,68.6044 L -17.9057,68.2461 L -17.9763,67.876
 L -18,67.5 L -17.9763,67.124 L -17.9057,66.7539 L -17.7893,66.3956 L -17.6289,66.0547 L -17.427,65.7366
 L -17.1869,65.4464 L -16.9123,65.1885 L -16.6075,64.967 L -16.2773,64.7855 L -15.927,64.6468 L -15.5621,64.5531
 L -15.1884,64.5059 L -14.8116,64.5059 L -14.4379,64.5531 L -14.0729,64.6468 L -13.7227,64.7855 L -13.3925,64.967
 L -13.0877,65.1885 L -12.8131,65.4464 L -12.5729,65.7366 L -12.3711,66.0547 L -12.2107,66.3956 L -12.0942,66.7539
 L -12.0237,67.124 L -12,67.5 L -12.0237,67.876 L -12.0942,68.2461 L -12.2107,68.6044 L -12.3711,68.9453
 L -12.5729,69.2634 L -12.8131,69.5536 L -13.0877,69.8115 L -13.3925,70.033 L -13.7227,70.2145 L -14.0729,70.3532
 L -14.4379,70.4469 L -14.8116,70.4941 z
M -60.1884,70.4941 L -60.5621,70.4469 L -60.927,70.3532 L -61.2773,70.2145 L -61.6075,70.033 L -61.9123,69.8115
 L -62.1869,69.5536 L -62.427,69.2634 L -62.6289,68.9453 L -62.7893,68.6044 L -62.9057,68.2461 L -62.9763,67.876
 L -63,67.5 L -62.9763,67.124 L -62.9057,66.7539 L -62.7893,66.3956 L -62.6289,66.0547 L -62.427,65.7366
 L -62.1869,65.4464 L -61.9123,65.1885 L -61.6075,64.967 L -61.2773,64.7855 L -60.927,64.6468 L -60.5621,64.5531
 L -60.1884,64.5059 L -59.8116,64.5059 L -59.4379,64.5531 L -59.0729,64.6468 L -58.7227,64.7855 L -58.3925,64.967
 L -58.0877,65.1885 L -57.8131,65.4464 L -57.5729,65.7366 L -57.3711,66.0547 L -57.2107,66.3956 L -57.0942,66.7539
 L -57.0237,67.124 L -57,67.5 L -57.0237,67.876 L -57.0942,68.2461 L -57.2107,68.6044 L -57.3711,68.9453
 L -57.5729,69.2634 L -57.8131,69.5536 L -58.0877,69.8115 L -58.3925,70.033 L -58.7227,70.2145 L -59.0729,70.3532
 L -59.4379,70.4469 L -59.8116,70.4941 z
M 59.8116,70.4941 L 59.4379,70.4469 L 59.0729,70.3532 L 58.7227,70.2145 L 58.3925,70.033 L 58.0877,69.8115
 L 57.8131,69.5536 L 57.5729,69.2634 L 57.3711,68.9453 L 57.2107,68.6044 L 57.0942,68.2461 L 57.0237,67.876
 L 57,67.5 L 57.0237,67.124 L 57.0942,66.7539 L 57.2107,66.3956 L 57.3711,66.0547 L 57.5729,65.7366
 L 57.8131,65.4464 L 58.0877,65.1885 L 58.3925,64.967 L 58.7227,64.7855 L 59.0729,64.6468 L 59.4379,64.5531
 L 59.8116,64.5059 L 60.1884,64.5059 L 60.5621,64.5531 L 60.927,64.6468 L 61.2773,64.7855 L 61.6075,64.967
 L 61.9123,65.1885 L 62.1869,65.4464 L 62.427,65.7366 L 62.6289,66.0547 L 62.7893,66.3956 L 62.9057,66.7539
 L 62.9763,67.124 L 63,67.5 L 62.9763,67.876 L 62.9057,68.2461 L 62.7893,68.6044 L 62.6289,68.9453
 L 62.427,69.2634 L 62.1869,69.5536 L 61.9123,69.8115 L 61.6075,70.033 L 61.2773,70.2145 L 60.927,70.3532
 L 60.5621,70.4469 L 60.1884,70.4941 z
M 44.8116,70.4941 L 44.4379,70.4469 L 44.0729,70.3532 L 43.7227,70.2145 L 43.3925,70.033 L 43.0877,69.8115
 L 42.8131,69.5536 L 42.5729,69.2634 L 42.3711,68.9453 L 42.2107,68.6044 L 42.0942,68.2461 L 42.0237,67.876
 L 42,67.5 L 42.0237,67.124 L 42.0942,66.7539 L 42.2107,66.3956 L 42.3711,66.0547 L 42.5729,65.7366
 L 42.8131,65.4464 L 43.0877,65.1885 L 43.3925,64.967 L 43.7227,64.7855 L 44.0729,64.6468 L 44.4379,64.5531
 L 44.8116,64.5059 L 45.1884,64.5059 L 45.5621,64.5531 L 45.927,64.6468 L 46.2773,64.7855 L 46.6075,64.967
 L 46.9123,65.1885 L 47.1869,65.4464 L 47.427,65.7366 L 47.6289,66.0547 L 47.7893,66.3956 L 47.9057,66.7539
 L 47.9763,67.124 L 48,67.5 L 47.9763,67.876 L 47.9057,68.2461 L 47.7893,68.6044 L 47.6289,68.9453
 L 47.427,69.2634 L 47.1869,69.5536 L 46.9123,69.8115 L 46.6075,70.033 L 46.2773,70.2145 L 45.927,70.3532
 L 45.5621,70.4469 L 45.1884,70.4941 z
M -7.59418,68.997 L -7.78107,68.9734 L -7.96352,68.9266 L -8.13866,68.8572 L -8.30373,68.7665 L -8.45613,68.6558
 L -8.59344,68.5268 L -8.71352,68.3817 L -8.81445,68.2226 L -8.89465,68.0522 L -8.95287,67.873 L -8.98816,67.688
 L -9,67.5 L -8.98816,67.312 L -8.95287,67.127 L -8.89465,66.9478 L -8.81445,66.7774 L -8.71352,66.6183
 L -8.59344,66.4732 L -8.45613,66.3442 L -8.30373,66.2335 L -8.13866,66.1428 L -7.96352,66.0734 L -7.78107,66.0266
 L -7.59418,66.003 L -7.40581,66.003 L -7.21892,66.0266 L -7.03647,66.0734 L -6.86133,66.1428 L -6.69626,66.2335
 L -6.54385,66.3442 L -6.40654,66.4732 L -6.28647,66.6183 L -6.18553,66.7774 L -6.10533,66.9478 L -6.04712,67.127
 L -6.01183,67.312 L -6,67.5 L -6.01183,67.688 L -6.04712,67.873 L -6.10533,68.0522 L -6.18553,68.2226
 L -6.28647,68.3817 L -6.40654,68.5268 L -6.54385,68.6558 L -6.69626,68.7665 L -6.86133,68.8572 L -7.03647,68.9266
 L -7.21892,68.9734 L -7.40581,68.997 z
M -37.5942,68.997 L -37.7811,68.9734 L -37.9635,68.9266 L -38.1387,68.8572 L -38.3037,68.7665 L -38.4561,68.6558
 L -38.5934,68.5268 L -38.7135,68.3817 L -38.8145,68.2226 L -38.8947,68.0522 L -38.9529,67.873 L -38.9882,67.688
 L -39,67.5 L -38.9882,67.312 L -38.9529,67.127 L -38.8947,66.9478 L -38.8145,66.7774 L -38.7135,66.6183
 L -38.5934,66.4732 L -38.4561,66.3442 L -38.3037,66.2335 L -38.1387,66.1428 L -37.9635,66.0734 L -37.7811,66.0266
 L -37.5942,66.003 L -37.4058,66.003 L -37.2189,66.0266 L -37.0365,66.0734 L -36.8613,66.1428 L -36.6963,66.2335
 L -36.5439,66.3442 L -36.4065,66.4732 L -36.2865,66.6183 L -36.1855,66.7774 L -36.1053,66.9478 L -36.0471,67.127
 L -36.0118,67.312 L -36,67.5 L -36.0118,67.688 L -36.0471,67.873 L -36.1053,68.0522 L -36.1855,68.2226
 L -36.2865,68.3817 L -36.4065,68.5268 L -36.5439,68.6558 L -36.6963,68.7665 L -36.8613,68.8572 L -37.0365,68.9266
 L -37.2189,68.9734 L -37.4058,68.997 z
M 37.4058,68.997 L 37.2189,68.9734 L 37.0365,68.9266 L 36.8613,68.8572 L 36.6963,68.7665 L 36.5439,68.6558
 L 36.4065,68.5268 L 36.2865,68.3817 L 36.1855,68.2226 L 36.1053,68.0522 L 36.0471,67.873 L 36.0118,67.688
 L 36,67.5 L 36.0118,67.312 L 36.0471,67.127 L 36.1053,66.9478 L 36.1855,66.7774 L 36.2865,66.6183
 L 36.4065,66.4732 L 36.5439,66.3442 L 36.6963,66.2335 L 36.8613,66.1428 L 37.0365,66.0734 L 37.2189,66.0266
 L 37.4058,66.003 L 37.5942,66.003 L 37.7811,66.0266 L 37.9635,66.0734 L 38.1387,66.1428 L 38.3037,66.2335
 L 38.4561,66.3442 L 38.5934,66.4732 L 38.7135,66.6183 L 38.8145,66.7774 L 38.8947,66.9478 L 38.9529,67.127
 L 38.9882,67.312 L 39,67.5 L 38.9882,67.688 L 38.9529,67.873 L 38.8947,68.0522 L 38.8145,68.2226
 L 38.7135,68.3817 L 38.5934,68.5268 L 38.4561,68.6558 L 38.3037,68.7665 L 38.1387,68.8572 L 37.9635,68.9266
 L 37.7811,68.9734 L 37.5942,68.997 z
M 7.40581,68.997 L 7.21892,68.9734 L 7.03647,68.9266 L 6.86133,68.8572 L 6.69626,68.7665 L 6.54385,68.6558
 L 6.40654,68.5268 L 6.28647,68.3817 L 6.18553,68.2226 L 6.10533,68.0522 L 6.04712,67.873 L 6.01183,67.688
 L 6,67.5 L 6.01183,67.312 L 6.04712,67.127 L 6.10533,66.9478 L 6.18553,66.7774 L 6.28647,66.6183
 L 6.40654,66.4732 L 6.54385,66.3442 L 6.69626,66.2335 L 6.86133,66.1428 L 7.03647,66.0734 L 7.21892,66.0266
 L 7.40581,66.003 L 7.59418,66.003 L 7.78107,66.0266 L 7.96352,66.0734 L 8.13866,66.1428 L 8.30373,66.2335
 L 8.45613,66.3442 L 8.59344,66.4732 L 8.71352,66.6183 L 8.81445,66.7774 L 8.89465,66.9478 L 8.95287,67.127
 L 8.98816,67.312 L 9,67.5 L 8.98816,67.688 L 8.95287,67.873 L 8.89465,68.0522 L 8.81445,68.2226
 L 8.71352,68.3817 L 8.59344,68.5268 L 8.45613,68.6558 L 8.30373,68.7665 L 8.13866,68.8572 L 7.96352,68.9266
 L 7.78107,68.9734 L 7.59418,68.997 z
M -52.5942,68.997 L -52.7811,68.9734 L -52.9635,68.9266 L -53.1387,68.8572 L -53.3037,68.7665 L -53.4561,68.6558
 L -53.5934,68.5268 L -53.7135,68.3817 L -53.8145,68.2226 L -53.8947,68.0522 L -53.9529,67.873 L -53.9882,67.688
 L -54,67.5 L -53.9882,67.312 L -53.9529,67.127 L -53.8947,66.9478 L -53.8145,66.7774 L -53.7135,66.6183
 L -53.5934,66.4732 L -53.4561,66.3442 L -53.3037,66.2335 L -53.1387,66.1428 L -52.9635,66.0734 L -52.7811,66.0266
 L -52.5942,66.003 L -52.4058,66.003 L -52.2189,66.0266 L -52.0365,66.0734 L -51.8613,66.1428 L -51.6963,66.2335
 L -51.5439,66.3442 L -51.4065,66.4732 L -51.2865,66.6183 L -51.1855,66.7774 L -51.1053,66.9478 L -51.0471,67.127
 L -51.0118,67.312 L -51,67.5 L -51.0118,67.688 L -51.0471,67.873 L -51.1053,68.0522 L -51.1855,68.2226
 L -51.2865,68.3817 L -51.4065,68.5268 L -51.5439,68.6558 L -51.6963,68.7665 L -51.8613,68.8572 L -52.0365,68.9266
 L -52.2189,68.9734 L -52.4058,68.997 z
M 22.4058,68.997 L 22.2189,68.9734 L 22.0365,68.9266 L 21.8613,68.8572 L 21.6963,68.7665 L 21.5439,68.6558
 L 21.4065,68.5268 L 21.2865,68.3817 L 21.1855,68.2226 L 21.1053,68.0522 L 21.0471,67.873 L 21.0118,67.688
 L 21,67.5 L 21.0118,67.312 L 21.0471,67.127 L 21.1053,66.9478 L 21.1855,66.7774 L 21.2865,66.6183
 L 21.4065,66.4732 L 21.5439,66.3442 L 21.6963,66.2335 L 21.8613,66.1428 L 22.0365,66.0734 L 22.2189,66.0266
 L 22.4058,66.003 L 22.5942,66.003 L 22.7811,66.0266 L 22.9635,66.0734 L 23.1387,66.1428 L 23.3037,66.2335
 L 23.4561,66.3442 L 23.5934,66.4732 L 23.7135,66.6183 L 23.8145,66.7774 L 23.8947,66.9478 L 23.9529,67.127
 L 23.9882,67.312 L 24,67.5 L 23.9882,67.688 L 23.9529,67.873 L 23.8947,68.0522 L 23.8145,68.2226
 L 23.7135,68.3817 L 23.5934,68.5268 L 23.4561,68.6558 L 23.3037,68.7665 L 23.1387,68.8572 L 22.9635,68.9266
 L 22.7811,68.9734 L 22.5942,68.997 z
M 52.4058,68.997 L 52.2189,68.9734 L 52.0365,68.9266 L 51.8613,68.8572 L 51.6963,68.7665 L 51.5439,68.6558
 L 51.4065,68.5268 L 51.2865,68.3817 L 51.1855,68.2226 L 51.1053,68.0522 L 51.0471,67.873 L 51.0118,67.688
 L 51,67.5 L 51.0118,67.312 L 51.0471,67.127 L 51.1053,66.9478 L 51.1855,66.7774 L 51.2865,66.6183
 L 51.4065,66.4732 L 51.5439,66.3442 L 51.6963,66.2335 L 51.8613,66.1428 L 52.0365,66.0734 L 52.2189,66.0266
 L 52.4058,66.003 L 52.5942,66.003 L 52.7811,66.0266 L 52.9635,66.0734 L 53.1387,66.1428 L 53.3037,66.2335
 L 53.4561,66.3442 L 53.5934,66.4732 L 53.7135,66.6183 L 53.8145,66.7774 L 53.8947,66.9478 L 53.9529,67.127
 L 53.9882,67.312 L 54,67.5 L 53.9882,67.688 L 53.9529,67.873 L 53.8947,68.0522 L 53.8145,68.2226
 L 53.7135,68.3817 L 53.5934,68.5268 L 53.4561,68.6558 L 53.3037,68.7665 L 53.1387,68.8572 L 52.9635,68.9266
 L 52.7811,68.9734 L 52.5942,68.997 z
M -22.5942,68.997 L -22.7811,68.9734 L -22.9635,68.9266 L -23.1387,68.8572 L -23.3037,68.7665 L -23.4561,68.6558
 L -23.5934,68.5268 L -23.7135,68.3817 L -23.8145,68.2226 L -23.8947,68.0522 L -23.9529,67.873 L -23.9882,67.688
 L -24,67.5 L -23.9882,67.312 L -23.9529,67.127 L -23.8947,66.9478 L -23.8145,66.7774 L -23.7135,66.6183
 L -23.5934,66.4732 L -23.4561,66.3442 L -23.3037,66.2335 L -23.1387,66.1428 L -22.9635,66.0734 L -22.7811,66.0266
 L -22.5942,66.003 L -22.4058,66.003 L -22.2189,66.0266 L -22.0365,66.0734 L -21.8613,66.1428 L -21.6963,66.2335
 L -21.5439,66.3442 L -21.4065,66.4732 L -21.2865,66.6183 L -21.1855,66.7774 L -21.1053,66.9478 L -21.0471,67.127
 L -21.0118,67.312 L -21,67.5 L -21.0118,67.688 L -21.0471,67.873 L -21.1053,68.0522 L -21.1855,68.2226
 L -21.2865,68.3817 L -21.4065,68.5268 L -21.5439,68.6558 L -21.6963,68.7665 L -21.8613,68.8572 L -22.0365,68.9266
 L -22.2189,68.9734 L -22.4058,68.997 z
" stroke="black" fill="lightgray" stroke-width="0.5"/>
</svg>
