<?xml version="1.0" standalone="no"?>
<!DOCTYPE svg PUBLIC "-//W3C//DTD SVG 1.1//EN" "http://www.w3.org/Graphics/SVG/1.1/DTD/svg11.dtd">
<svg width="60mm" height="30mm" viewBox="-30 -54 60 30" xmlns="http://www.w3.org/2000/svg" version="1.1">
<title>OpenSCAD Model</title>
<path d="
M 25.4369,-24.5886 L 26.0451,-24.7447 L 26.6289,-24.9759 L 27.1791,-25.2784 L 27.6871,-25.6474 L 28.1448,-26.0773
 L 28.5451,-26.5611 L 28.8815,-27.0912 L 29.1489,-27.6594 L 29.3429,-28.2566 L 29.4606,-28.8733 L 29.5,-29.5
 L 29.5,-48.5 L 29.4606,-49.1267 L 29.3429,-49.7434 L 29.1489,-50.3406 L 28.8815,-50.9088 L 28.5451,-51.4389
 L 28.1448,-51.9227 L 27.6871,-52.3526 L 27.1791,-52.7216 L 26.6289,-53.0241 L 26.0451,-53.2553 L 25.4369,-53.4114
 L 24.8139,-53.4901 L -24.8139,-53.4901 L -25.4369,-53.4114 L -26.0451,-53.2553 L -26.6289,-53.0241 L -27.1791,-52.7216
 L -27.6871,-52.3526 L -28.1448,-51.9227 L -28.5451,-51.4389 L -28.8815,-50.9088 L -29.1489,-50.3406 L -29.3429,-49.7434
 L -29.4606,-49.1267 L -29.5,-48.5 L -29.5,-29.5 L -29.4606,-28.8733 L -29.3429,-28.2566 L -29.1489,-27.6594
 L -28.8815,-27.0912 L -28.5451,-26.5611 L -28.1448,-26.0773 L -27.6871,-25.6474 L -27.1791,-25.2784 L -26.6289,-24.9759
 L -26.0451,-24.7447 L -25.4369,-24.5886 L -24.8139,-24.5099 L 24.8139,-24.5099 z
M 7.31161,-43.5059 L 6.93785,-43.5531 L 6.57294,-43.6468 L 6.22266,-43.7855 L 5.89252,-43.967 L 5.58772,-44.1884
 L 5.31308,-44.4464 L 5.07294,-44.7366 L 4.87108,-45.0547 L 4.71066,-45.3956 L 4.59424,-45.7539 L 4.52365,-46.124
 L 4.5,-46.5 L 4.52365,-46.876 L 4.59424,-47.2461 L 4.71066,-47.6044 L 4.87108,-47.9453 L 5.07294,-48.2634
 L 5.31308,-48.5536 L 5.58772,-48.8115 L 5.89252,-49.033 L 6.22266,-49.2145 L 6.57294,-49.3532 L 6.93785,-49.4469
 L 7.31161,-49.4941 L 7.68837,-49.4941 L 8.06213,-49.4469 L 8.42705,-49.3532 L 8.77733,-49.2145 L 9.10747,-49.033
 L 9.41226,-48.8115 L 9.6869,-48.5536 L 9.92705,-48.2634 L 10.1289,-47.9453 L 10.2893,-47.6044 L 10.4057,-47.2461
 L 10.4763,-46.876 L 10.5,-46.5 L 10.4763,-46.124 L 10.4057,-45.7539 L 10.2893,-45.3956 L 10.1289,-45.0547
 L 9.92705,-44.7366 L 9.6869,-44.4464 L 9.41226,-44.1884 L 9.10747,-43.967 L 8.77733,-43.7855 L 8.42705,-43.6468
 L 8.06213,-43.5531 L 7.68837,-43.5059 z
M 22.3116,-43.5059 L 21.9379,-43.5531 L 21.5729,-43.6468 L 21.2227,-43.7855 L 20.8925,-43.967 L 20.5877,-44.1884
 L 20.3131,-44.4464 L 20.0729,-44.7366 L 19.8711,-45.0547 L 19.7107,-45.3956 L 19.5942,-45.7539 L 19.5237,-46.124
 L 19.5,-46.5 L 19.5237,-46.876 L 19.5942,-47.2461 L 19.7107,-47.6044 L 19.8711,-47.9453 L 20.0729,-48.2634
 L 20.3131,-48.5536 L 20.5877,-48.8115 L 20.8925,-49.033 L 21.2227,-49.2145 L 21.5729,-49.3532 L 21.9379,-49.4469
 L 22.3116,-49.4941 L 22.6884,-49.4941 L 23.0621,-49.4469 L 23.427,-49.3532 L 23.7773,-49.2145 L 24.1075,-49.033
 L 24.4123,-48.8115 L 24.6869,-48.5536 L 24.927,-48.2634 L 25.1289,-47.9453 L 25.2893,-47.6044 L 25.4057,-47.2461
 L 25.4763,-46.876 L 25.5,-46.5 L 25.4763,-46.124 L 25.4057,-45.7539 L 25.2893,-45.3956 L 25.1289,-45.0547
 L 24.927,-44.7366 L 24.6869,-44.4464 L 24.4123,-44.1884 L 24.1075,-43.967 L 23.7773,-43.7855 L 23.427,-43.6468
 L 23.0621,-43.5531 L 22.6884,-43.5059 z
M -7.68837,-43.5059 L -8.06213,-43.5531 L -8.42705,-43.6468 L -8.77733,-43.7855 L -9.10747,-43.967 L -9.41226,-44.1884
 L -9.6869,-44.4464 L -9.92705,-44.7366 L -10.1289,-45.0547 L -10.2893,-45.3956 L -10.4057,-45.7539 L -10.4763,-46.124
 L -10.5,-46.5 L -10.4763,-46.876 L -10.4057,-47.2461 L -10.2893,-47.6044 L -10.1289,-47.9453 L -9.92705,-48.2634
 L -9.6869,-48.5536 L -9.41226,-48.8115 L -9.10747,-49.033 L -8.77733,-49.2145 L -8.42705,-49.3532 L -8.06213,-49.4469
 L -7.68837,-49.4941 L -7.31161,-49.4941 L -6.93785,-49.4469 L -6.57294,-49.3532 L -6.22266,-49.2145 L -5.89252,-49.033
 L -5.58772,-48.8115 L -5.31308,-48.5536 L -5.07294,-48.2634 L -4.87108,-47.9453 L -4.71066,-47.6044 L -4.59424,-47.2461
 L -4.52365,-46.876 L -4.5,-46.5 L -4.52365,-46.124 L -4.59424,-45.7539 L -4.71066,-45.3956 L -4.87108,-45.0547
 L -5.07294,-44.7366 L -5.31308,-44.4464 L -5.58772,-44.1884 L -5.89252,-43.967 L -6.22266,-43.7855 L -6.57294,-43.6468
 L -6.93785,-43.5531 L -7.31161,-43.5059 z
M -22.6884,-43.5059 L -23.0621,-43.5531 L -23.427,-43.6468 L -23.7773,-43.7855 L -24.1075,-43.967 L -24.4123,-44.1884
 L -24.6869,-44.4464 L -24.927,-44.7366 L -25.1289,-45.0547 L -25.2893,-45.3956 L -25.4057,-45.7539 L -25.4763,-46.124
 L -25.5,-46.5 L -25.4763,-46.876 L -25.4057,-47.2461 L -25.2893,-47.6044 L -25.1289,-47.9453 L -24.927,-48.2634
 L -24.6869,-48.5536 L -24.4123,-48.8115 L -24.1075,-49.033 L -23.7773,-49.2145 L -23.427,-49.3532 L -23.0621,-49.4469
 L -22.6884,-49.4941 L -22.3116,-49.4941 L -21.9379,-49.4469 L -21.5729,-49.3532 L -21.2227,-49.2145 L -20.8925,-49.033
 L -20.5877,-48.8115 L -20.3131,-48.5536 L -20.0729,-48.2634 L -19.8711,-47.9453 L -19.7107,-47.6044 L -19.5942,-47.2461
 L -19.5237,-46.876 L -19.5,-46.5 L -19.5237,-46.124 L -19.5942,-45.7539 L -19.7107,-45.3956 L -19.8711,-45.0547
 L -20.0729,-44.7366 L -20.3131,-44.4464 L -20.5877,-44.1884 L -20.8925,-43.967 L -21.2227,-43.7855 L -21.5729,-43.6468
 L -21.9379,-43.5531 L -22.3116,-43.5059 z
M -15.0942,-45.0029 L -15.2811,-45.0266 L -15.4635,-45.0734 L -15.6387,-45.1427 L -15.8037,-45.2335 L -15.9561,-45.3442
 L -16.0934,-45.4732 L -16.2135,-45.6183 L -16.3145,-45.7774 L -16.3947,-45.9478 L -16.4529,-46.127 L -16.4882,-46.312
 L -16.5,-46.5 L -16.4882,-46.688 L -16.4529,-46.873 L -16.3947,-47.0522 L -16.3145,-47.2226 L -16.2135,-47.3817
 L -16.0934,-47.5268 L -15.9561,-47.6558 L -15.8037,-47.7665 L -15.6387,-47.8572 L -15.4635,-47.9266 L -15.2811,-47.9734
 L -15.0942,-47.997 L -14.9058,-47.997 L -14.7189,-47.9734 L -14.5365,-47.9266 L -14.3613,-47.8572 L -14.1963,-47.7665
 L -14.0439,-47.6558 L -13.9065,-47.5268 L -13.7865,-47.3817 L -13.6855,-47.2226 L -13.6053,-47.0522 L -13.5471,-46.873
 L -13.5118,-46.688 L -13.5,-46.5 L -13.5118,-46.312 L -13.5471,-46.127 L -13.6053,-45.9478 L -13.6855,-45.7774
 L -13.7865,-45.6183 L -13.9065,-45.4732 L -14.0439,-45.3442 L -14.1963,-45.2335 L -14.3613,-45.1427 L -14.5365,-45.0734
 L -14.7189,-45.0266 L -14.9058,-45.0029 z
M -0.0941772,-45.0029 L -0.281067,-45.0266 L -0.463516,-45.0734 L -0.638657,-45.1427 L -0.803726,-45.2335 L -0.956131,-45.3442
 L -1.09344,-45.4732 L -1.21352,-45.6183 L -1.31445,-45.7774 L -1.39465,-45.9478 L -1.45287,-46.127 L -1.48816,-46.312
 L -1.5,-46.5 L -1.48816,-46.688 L -1.45287,-46.873 L -1.39465,-47.0522 L -1.31445,-47.2226 L -1.21352,-47.3817
 L -1.09344,-47.5268 L -0.956131,-47.6558 L -0.803726,-47.7665 L -0.638657,-47.8572 L -0.463516,-47.9266 L -0.281067,-47.9734
 L -0.0941772,-47.997 L 0.0941772,-47.997 L 0.281067,-47.9734 L 0.463516,-47.9266 L 0.638657,-47.8572 L 0.803726,-47.7665
 L 0.956131,-47.6558 L 1.09344,-47.5268 L 1.21352,-47.3817 L 1.31445,-47.2226 L 1.39465,-47.0522 L 1.45287,-46.873
 L 1.48816,-46.688 L 1.5,-46.5 L 1.48816,-46.312 L 1.45287,-46.127 L 1.39465,-45.9478 L 1.31445,-45.7774
 L 1.21352,-45.6183 L 1.09344,-45.4732 L 0.956131,-45.3442 L 0.803726,-45.2335 L 0.638657,-45.1427 L 0.463516,-45.0734
 L 0.281067,-45.0266 L 0.0941772,-45.0029 z
M 14.9058,-45.0029 L 14.7189,-45.0266 L 14.5365,-45.0734 L 14.3613,-45.1427 L 14.1963,-45.2335 L 14.0439,-45.3442
 L 13.9065,-45.4732 L 13.7865,-45.6183 L 13.6855,-45.7774 L 13.6053,-45.9478 L 13.5471,-46.127 L 13.5118,-46.312
 L 13.5,-46.5 L 13.5118,-46.688 L 13.5471,-46.873 L 13.6053,-47.0522 L 13.6855,-47.2226 L 13.7865,-47.3817
 L 13.9065,-47.5268 L 14.0439,-47.6558 L 14.1963,-47.7665 L 14.3613,-47.8572 L 14.5365,-47.9266 L 14.7189,-47.9734
 L 14.9058,-47.997 L 15.0942,-47.997 L 15.2811,-47.9734 L 15.4635,-47.9266 L 15.6387,-47.8572 L 15.8037,-47.7665
 L 15.9561,-47.6558 L 16.0934,-47.5268 L 16.2135,-47.3817 L 16.3145,-47.2226 L 16.3947,-47.0522 L 16.4529,-46.873
 L 16.4882,-46.688 L 16.5,-46.5 L 16.4882,-46.312 L 16.4529,-46.127 L 16.3947,-45.9478 L 16.3145,-45.7774
 L 16.2135,-45.6183 L 16.0934,-45.4732 L 15.9561,-45.3442 L 15.8037,-45.2335 L 15.6387,-45.1427 L 15.4635,-45.0734
 L 15.2811,-45.0266 L 15.0942,-45.0029 z
M 4.3744,-37.004 L 4.12523,-37.0354 L 3.88196,-37.0979 L 3.64844,-37.1904 L 3.42834,-37.3114 L 3.22514,-37.459
 L 3.04205,-37.6309 L 2.88196,-37.8244 L 2.74738,-38.0365 L 2.64044,-38.2638 L 2.56282,-38.5026 L 2.51576,-38.7493
 L 2.5,-39 L 2.51576,-39.2507 L 2.56282,-39.4974 L 2.64044,-39.7362 L 2.74738,-39.9635 L 2.88196,-40.1756
 L 3.04205,-40.3691 L 3.22514,-40.541 L 3.42834,-40.6886 L 3.64844,-40.8096 L 3.88196,-40.9021 L 4.12523,-40.9646
 L 4.3744,-40.996 L 4.62558,-40.996 L 4.87476,-40.9646 L 5.11803,-40.9021 L 5.35155,-40.8096 L 5.57164,-40.6886
 L 5.77484,-40.541 L 5.95793,-40.3691 L 6.11803,-40.1756 L 6.25261,-39.9635 L 6.35954,-39.7362 L 6.43716,-39.4974
 L 6.48422,-39.2507 L 6.5,-39 L 6.48422,-38.7493 L 6.43716,-38.5026 L 6.35954,-38.2638 L 6.25261,-38.0365
 L 6.11803,-37.8244 L 5.95793,-37.6309 L 5.77484,-37.459 L 5.57164,-37.3114 L 5.35155,-37.1904 L 5.11803,-37.0979
 L 4.87476,-37.0354 L 4.62558,-37.004 z
M 13.3744,-37.004 L 13.1252,-37.0354 L 12.882,-37.0979 L 12.6484,-37.1904 L 12.4283,-37.3114 L 12.2251,-37.459
 L 12.0421,-37.6309 L 11.882,-37.8244 L 11.7474,-38.0365 L 11.6404,-38.2638 L 11.5628,-38.5026 L 11.5158,-38.7493
 L 11.5,-39 L 11.5158,-39.2507 L 11.5628,-39.4974 L 11.6404,-39.7362 L 11.7474,-39.9635 L 11.882,-40.1756
 L 12.0421,-40.3691 L 12.2251,-40.541 L 12.4283,-40.6886 L 12.6484,-40.8096 L 12.882,-40.9021 L 13.1252,-40.9646
 L 13.3744,-40.996 L 13.6256,-40.996 L 13.8748,-40.9646 L 14.118,-40.9021 L 14.3515,-40.8096 L 14.5716,-40.6886
 L 14.7748,-40.541 L 14.9579,-40.3691 L 15.118,-40.1756 L 15.2526,-39.9635 L 15.3595,-39.7362 L 15.4372,-39.4974
 L 15.4842,-39.2507 L 15.5,-39 L 15.4842,-38.7493 L 15.4372,-38.5026 L 15.3595,-38.2638 L 15.2526,-38.0365
 L 15.118,-37.8244 L 14.9579,-37.6309 L 14.7748,-37.459 L 14.5716,-37.3114 L 14.3515,-37.1904 L 14.118,-37.0979
 L 13.8748,-37.0354 L 13.6256,-37.004 z
M -13.6256,-37.004 L -13.8748,-37.0354 L -14.118,-37.0979 L -14.3515,-37.1904 L -14.5716,-37.3114 L -14.7748,-37.459
 L -14.9579,-37.6309 L -15.118,-37.8244 L -15.2526,-38.0365 L -15.3595,-38.2638 L -15.4372,-38.5026 L -15.4842,-38.7493
 L -15.5,-39 L -15.4842,-39.2507 L -15.4372,-39.4974 L -15.3595,-39.7362 L -15.2526,-39.9635 L -15.118,-40.1756
 L -14.9579,-40.3691 L -14.7748,-40.541 L -14.5716,-40.6886 L -14.3515,-40.8096 L -14.118,-40.9021 L -13.8748,-40.9646
 L -13.6256,-40.996 L -13.3744,-40.996 L -13.1252,-40.9646 L -12.882,-40.9021 L -12.6484,-40.8096 L -12.4283,-40.6886
 L -12.2251,-40.541 L -12.0421,-40.3691 L -11.882,-40.1756 L -11.7474,-39.9635 L -11.6404,-39.7362 L -11.5628,-39.4974
 L -11.5158,-39.2507 L -11.5,-39 L -11.5158,-38.7493 L -11.5628,-38.5026 L -11.6404,-38.2638 L -11.7474,-38.0365
 L -11.882,-37.8244 L -12.0421,-37.6309 L -12.2251,-37.459 L -12.4283,-37.3114 L -12.6484,-37.1904 L -12.882,-37.0979
 L -13.1252,-37.0354 L -13.3744,-37.004 z
M -4.62558,-37.004 L -4.87476,-37.0354 L -5.11803,-37.0979 L -5.35155,-37.1904 L -5.57164,-37.3114 L -5.77484,-37.459
 L -5.95793,-37.6309 L -6.11803,-37.8244 L -6.25261,-38.0365 L -6.35954,-38.2638 L -6.43716,-38.5026 L -6.48422,-38.7493
 L -6.5,-39 L -6.48422,-39.2507 L -6.43716,-39.4974 L -6.35954,-39.7362 L -6.25261,-39.9635 L -6.11803,-40.1756
 L -5.95793,-40.3691 L -5.77484,-40.541 L -5.57164,-40.6886 L -5.35155,-40.8096 L -5.11803,-40.9021 L -4.87476,-40.9646
 L -4.62558,-40.996 L -4.3744,-40.996 L -4.12523,-40.9646 L -3.88196,-40.9021 L -3.64844,-40.8096 L -3.42834,-40.6886
 L -3.22514,-40.541 L -3.04205,-40.3691 L -2.88196,-40.1756 L -2.74738,-39.9635 L -2.64044,-39.7362 L -2.56282,-39.4974
 L -2.51576,-39.2507 L -2.5,-39 L -2.51576,-38.7493 L -2.56282,-38.5026 L -2.64044,-38.2638 L -2.74738,-38.0365
 L -2.88196,-37.8244 L -3.04205,-37.6309 L -3.22514,-37.459 L -3.42834,-37.3114 L -3.64844,-37.1904 L -3.88196,-37.0979
 L -4.12523,-37.0354 L -4.3744,-37.004 z
M -22.5942,-37.503 L -22.7811,-37.5266 L -22.9635,-37.5734 L -23.1387,-37.6428 L -23.3037,-37.7335 L -23.4561,-37.8442
 L -23.5934,-37.9732 L -23.7135,-38.1183 L -23.8145,-38.2774 L -23.8947,-38.4478 L -23.9529,-38.627 L -23.9882,-38.812
 L -24,-39 L -23.9882,-39.188 L -23.9529,-39.373 L -23.8947,-39.5522 L -23.8145,-39.7226 L -23.7135,-39.8817
 L -23.5934,-40.0268 L -23.4561,-40.1558 L -23.3037,-40.2665 L -23.1387,-40.3572 L -22.9635,-40.4266 L -22.7811,-40.4734
 L -22.5942,-40.497 L -22.4058,-40.497 L -22.2189,-40.4734 L -22.0365,-40.4266 L -21.8613,-40.3572 L -21.6963,-40.2665
 L -21.5439,-40.1558 L -21.4065,-40.0268 L -21.2865,-39.8817 L -21.1855,-39.7226 L -21.1053,-39.5522 L -21.0471,-39.373
 L -21.0118,-39.188 L -21,-39 L -21.0118,-38.812 L -21.0471,-38.627 L -21.1053,-38.4478 L -21.1855,-38.2774
 L -21.2865,-38.1183 L -21.4065,-37.9732 L -21.5439,-37.8442 L -21.6963,-37.7335 L -21.8613,-37.6428 L -22.0365,-37.5734
 L -22.2189,-37.5266 L -22.4058,-37.503 z
M 22.4058,-37.503 L 22.2189,-37.5266 L 22.0365,-37.5734 L 21.8613,-37.6428 L 21.6963,-37.7335 L 21.5439,-37.8442
 L 21.4065,-37.9732 L 21.2865,-38.1183 L 21.1855,-38.2774 L 21.1053,-38.4478 L 21.0471,-38.627 L 21.0118,-38.812
 L 21,-39 L 21.0118,-39.188 L 21.0471,-39.373 L 21.1053,-39.5522 L 21.1855,-39.7226 L 21.2865,-39.8817
 L 21.4065,-40.0268 L 21.5439,-40.1558 L 21.6963,-40.2665 L 21.8613,-40.3572 L 22.0365,-40.4266 L 22.2189,-40.4734
 L 22.4058,-40.497 L 22.5942,-40.497 L 22.7811,-40.4734 L 22.9635,-40.4266 L 23.1387,-40.3572 L 23.3037,-40.2665
 L 23.4561,-40.1558 L 23.5934,-40.0268 L 23.7135,-39.8817 L 23.8145,-39.7226 L 23.8947,-39.5522 L 23.9529,-39.373
 L 23.9882,-39.188 L 24,-39 L 23.9882,-38.812 L 23.9529,-38.627 L 23.8947,-38.4478 L 23.8145,-38.2774
 L 23.7135,-38.1183 L 23.5934,-37.9732 L 23.4561,-37.8442 L 23.3037,-37.7335 L 23.1387,-37.6428 L 22.9635,-37.5734
 L 22.7811,-37.5266 L 22.5942,-37.503 z
M 22.3116,-28.5059 L 21.9379,-28.5531 L 21.5729,-28.6468 L 21.2227,-28.7855 L 20.8925,-28.967 L 20.5877,-29.1885
 L 20.3131,-29.4464 L 20.0729,-29.7366 L 19.8711,-30.0547 L 19.7107,-30.3956 L 19.5942,-30.7539 L 19.5237,-31.124
 L 19.5,-31.5 L 19.5237,-31.876 L 19.5942,-32.2461 L 19.7107,-32.6044 L 19.8711,-32.9453 L 20.0729,-33.2634
 L 20.3131,-33.5536 L 20.5877,-33.8116 L 20.8925,-34.033 L 21.2227,-34.2145 L 21.5729,-34.3532 L 21.9379,-34.4469
 L 22.3116,-34.4941 L 22.6884,-34.4941 L 23.0621,-34.4469 L 23.427,-34.3532 L 23.7773,-34.2145 L 24.1075,-34.033
 L 24.4123,-33.8116 L 24.6869,-33.5536 L 24.927,-33.2634 L 25.1289,-32.9453 L 25.2893,-32.6044 L 25.4057,-32.2461
 L 25.4763,-31.876 L 25.5,-31.5 L 25.4763,-31.124 L 25.4057,-30.7539 L 25.2893,-30.3956 L 25.1289,-30.0547
 L 24.927,-29.7366 L 24.6869,-29.4464 L 24.4123,-29.1885 L 24.1075,-28.967 L 23.7773,-28.7855 L 23.427,-28.6468
 L 23.0621,-28.5531 L 22.6884,-28.5059 z
M -22.6884,-28.5059 L -23.0621,-28.5531 L -23.427,-28.6468 L -23.7773,-28.7855 L -24.1075,-28.967 L -24.4123,-29.1885
 L -24.6869,-29.4464 L -24.927,-29.7366 L -25.1289,-30.0547 L -25.2893,-30.3956 L -25.4057,-30.7539 L -25.4763,-31.124
 L -25.5,-31.5 L -25.4763,-31.876 L -25.4057,-32.2461 L -25.2893,-32.6044 L -25.1289,-32.9453 L -24.927,-33.2634
 L -24.6869,-33.5536 L -24.4123,-33.8116 L -24.1075,-34.033 L -23.7773,-34.2145 L -23.427,-34.3532 L -23.0621,-34.4469
 L -22.6884,-34.4941 L -22.3116,-34.4941 L -21.9379,-34.4469 L -21.5729,-34.3532 L -21.2227,-34.2145 L -20.8925,-34.033
 L -20.5877,-33.8116 L -20.3131,-33.5536 L -20.0729,-33.2634 L -19.8711,-32.9453 L -19.7107,-32.6044 L -19.5942,-32.2461
 L -19.5237,-31.876 L -19.5,-31.5 L -19.5237,-31.124 L -19.5942,-30.7539 L -19.7107,-30.3956 L -19.8711,-30.0547
 L -20.0729,-29.7366 L -20.3131,-29.4464 L -20.5877,-29.1885 L -20.8925,-28.967 L -21.2227,-28.7855 L -21.5729,-28.6468
 L -21.9379,-28.5531 L -22.3116,-28.5059 z
M 7.31161,-28.5059 L 6.93785,-28.5531 L 6.57294,-28.6468 L 6.22266,-28.7855 L 5.89252,-28.967 L 5.58772,-29.1885
 L 5.31308,-29.4464 L 5.07294,-29.7366 L 4.87108,-30.0547 L 4.71066,-30.3956 L 4.59424,-30.7539 L 4.52365,-31.124
 L 4.5,-31.5 L 4.52365,-31.876 L 4.59424,-32.2461 L 4.71066,-32.6044 L 4.87108,-32.9453 L 5.07294,-33.2634
 L 5.31308,-33.5536 L 5.58772,-33.8116 L 5.89252,-34.033 L 6.22266,-34.2145 L 6.57294,-34.3532 L 6.93785,-34.4469
 L 7.31161,-34.4941 L 7.68837,-34.4941 L 8.06213,-34.4469 L 8.42705,-34.3532 L 8.77733,-34.2145 L 9.10747,-34.033
 L 9.41226,-33.8116 L 9.6869,-33.5536 L 9.92705,-33.2634 L 10.1289,-32.9453 L 10.2893,-32.6044 L 10.4057,-32.2461
 L 10.4763,-31.876 L 10.5,-31.5 L 10.4763,-31.124 L 10.4057,-30.7539 L 10.2893,-30.3956 L 10.1289,-30.0547
 L 9.92705,-29.7366 L 9.6869,-29.4464 L 9.41226,-29.1885 L 9.10747,-28.967 L 8.77733,-28.7855 L 8.42705,-28.6468
 L 8.06213,-28.5531 L 7.68837,-28.5059 z
M -7.68837,-28.5059 L -8.06213,-28.5531 L -8.42705,-28.6468 L -8.77733,-28.7855 L -9.10747,-28.967 L -9.41226,-29.1885
 L -9.6869,-29.4464 L -9.92705,-29.7366 L -10.1289,-30.0547 L -10.2893,-30.3956 L -10.4057,-30.7539 L -10.4763,-31.124
 L -10.5,-31.5 L -10.4763,-31.876 L -10.4057,-32.2461 L -10.2893,-32.6044 L -10.1289,-32.9453 L -9.92705,-33.2634
 L -9.6869,-33.5536 L -9.41226,-33.8116 L -9.10747,-34.033 L -8.77733,-34.2145 L -8.42705,-34.3532 L -8.06213,-34.4469
 L -7.68837,-34.4941 L -7.31161,-34.4941 L -6.93785,-34.4469 L -6.57294,-34.3532 L -6.22266,-34.2145 L -5.89252,-34.033
 L -5.58772,-33.8116 L -5.31308,-33.5536 L -5.07294,-33.2634 L -4.87108,-32.9453 L -4.71066,-32.6044 L -4.59424,-32.2461
 L -4.52365,-31.876 L -4.5,-31.5 L -4.52365,-31.124 L -4.59424,-30.7539 L -4.71066,-30.3956 L -4.87108,-30.0547
 L -5.07294,-29.7366 L -5.31308,-29.4464 L -5.58772,-29.1885 L -5.89252,-28.967 L -6.22266,-28.7855 L -6.57294,-28.6468
 L -6.93785,-28.5531 L -7.31161,-28.5059 z
M -0.0941772,-30.003 L -0.281067,-30.0266 L -0.463516,-30.0734 L -0.638657,-30.1428 L -0.803726,-30.2335 L -0.956131,-30.3442
 L -1.09344,-30.4732 L -1.21352,-30.6183 L -1.31445,-30.7774 L -1.39465,-30.9478 L -1.45287,-31.127 L -1.48816,-31.312
 L -1.5,-31.5 L -1.48816,-31.688 L -1.45287,-31.873 L -1.39465,-32.0522 L -1.31445,-32.2226 L -1.21352,-32.3817
 L -1.09344,-32.5268 L -0.956131,-32.6558 L -0.803726,-32.7665 L -0.638657,-32.8573 L -0.463516,-32.9266 L -0.281067,-32.9734
 L -0.0941772,-32.9971 L 0.0941772,-32.9971 L 0.281067,-32.9734 L 0.463516,-32.9266 L 0.638657,-32.8573 L 0.803726,-32.7665
 L 0.956131,-32.6558 L 1.09344,-32.5268 L 1.21352,-32.3817 L 1.31445,-32.2226 L 1.39465,-32.0522 L 1.45287,-31.873
 L 1.48816,-31.688 L 1.5,-31.5 L 1.48816,-31.312 L 1.45287,-31.127 L 1.39465,-30.9478 L 1.31445,-30.7774
 L 1.21352,-30.6183 L 1.09344,-30.4732 L 0.956131,-30.3442 L 0.803726,-30.2335 L 0.638657,-30.1428 L 0.463516,-30.0734
 L 0.281067,-30.0266 L 0.0941772,-30.003 z
M 14.9058,-30.003 L 14.7189,-30.0266 L 14.5365,-30.0734 L 14.3613,-30.1428 L 14.1963,-30.2335 L 14.0439,-30.3442
 L 13.9065,-30.4732 L 13.7865,-30.6183 L 13.6855,-30.7774 L 13.6053,-30.9478 L 13.5471,-31.127 L 13.5118,-31.312
 L 13.5,-31.5 L 13.5118,-31.688 L 13.5471,-31.873 L 13.6053,-32.0522 L 13.6855,-32.2226 L 13.7865,-32.3817
 L 13.9065,-32.5268 L 14.0439,-32.6558 L 14.1963,-32.7665 L 14.3613,-32.8573 L 14.5365,-32.9266 L 14.7189,-32.9734
 L 14.9058,-32.9971 L 15.0942,-32.9971 L 15.2811,-32.9734 L 15.4635,-32.9266 L 15.6387,-32.8573 L 15.8037,-32.7665
 L 15.9561,-32.6558 L 16.0934,-32.5268 L 16.2135,-32.3817 L 16.3145,-32.2226 L 16.3947,-32.0522 L 16.4529,-31.873
 L 16.4882,-31.688 L 16.5,-31.5 L 16.4882,-31.312 L 16.4529,-31.127 L 16.3947,-30.9478 L 16.3145,-30.7774
 L 16.2135,-30.6183 L 16.0934,-30.4732 L 15.9561,-30.3442 L 15.8037,-30.2335 L 15.6387,-30.1428 L 15.4635,-30.0734
 L 15.2811,-30.0266 L 15.0942,-30.003 z
M -15.0942,-30.003 L -15.2811,-30.0266 L -15.4635,-30.0734 L -15.6387,-30.1428 L -15.8037,-30.2335 L -15.9561,-30.3442
 L -16.0934,-30.4732 L -16.2135,-30.6183 L -16.3145,-30.7774 L -16.3947,-30.9478 L -16.4529,-31.127 L -16.4882,-31.312
 L -16.5,-31.5 L -16.4882,-31.688 L -16.4529,-31.873 L -16.3947,-32.0522 L -16.3145,-32.2226 L -16.2135,-32.3817
 L -16.0934,-32.5268 L -15.9561,-32.6558 L -15.8037,-32.7665 L -15.6387,-32.8573 L -15.4635,-32.9266 L -15.2811,-32.9734
 L -15.0942,-32.9971 L -14.9058,-32.9971 L -14.7189,-32.9734 L -14.5365,-32.9266 L -14.3613,-32.8573 L -14.1963,-32.7665
 L -14.0439,-32.6558 L -13.9065,-32.5268 L -13.7865,-32.3817 L -13.6855,-32.2226 L -13.6053,-32.0522 L -13.5471,-31.873
 L -13.5118,-31.688 L -13.5,-31.5 L -13.5118,-31.312 L -13.5471,-31.127 L -13.6053,-30.9478 L -13.6855,-30.7774
 L -13.7865,-30.6183 L -13.9065,-30.4732 L -14.0439,-30.3442 L -14.1963,-30.2335 L -14.3613,-30.1428 L -14.5365,-30.0734
 L -14.7189,-30.0266 L -14.9058,-30.003 z
" stroke="black" fill="lightgray" stroke-width="0.5"/>
</svg>
