<?xml version="1.0" standalone="no"?>
<!DOCTYPE svg PUBLIC "-//W3C//DTD SVG 1.1//EN" "http://www.w3.org/Graphics/SVG/1.1/DTD/svg11.dtd">
<svg width="150mm" height="30mm" viewBox="-75 -15 150 30" xmlns="http://www.w3.org/2000/svg" version="1.1">
<title>OpenSCAD Model</title>
<path d="
M 70.4369,14.4114 L 71.0451,14.2553 L 71.6289,14.0241 L 72.1791,13.7216 L 72.6871,13.3526 L 73.1448,12.9227
 L 73.5451,12.4389 L 73.8815,11.9088 L 74.1489,11.3406 L 74.3429,10.7434 L 74.4606,10.1267 L 74.5,9.5
 L 74.5,-9.5 L 74.4606,-10.1267 L 74.3429,-10.7434 L 74.1489,-11.3406 L 73.8815,-11.9088 L 73.5451,-12.4389
 L 73.1448,-12.9227 L 72.6871,-13.3526 L 72.1791,-13.7216 L 71.6289,-14.0241 L 71.0451,-14.2553 L 70.4369,-14.4114
 L 69.8139,-14.4901 L -69.8139,-14.4901 L -70.4369,-14.4114 L -71.0451,-14.2553 L -71.6289,-14.0241 L -72.1791,-13.7216
 L -72.6871,-13.3526 L -73.1448,-12.9227 L -73.5451,-12.4389 L -73.8815,-11.9088 L -74.1489,-11.3406 L -74.3429,-10.7434
 L -74.4606,-10.1267 L -74.5,-9.5 L -74.5,9.5 L -74.4606,10.1267 L -74.3429,10.7434 L -74.1489,11.3406
 L -73.8815,11.9088 L -73.5451,12.4389 L -73.1448,12.9227 L -72.6871,13.3526 L -72.1791,13.7216 L -71.6289,14.0241
 L -71.0451,14.2553 L -70.4369,14.4114 L -69.8139,14.4901 L 69.8139,14.4901 z
M 67.3116,-4.50591 L 66.9379,-4.55313 L 66.573,-4.64682 L 66.2227,-4.78551 L 65.8925,-4.96701 L 65.5877,-5.18845
 L 65.3131,-5.44635 L 65.073,-5.73663 L 64.8711,-6.05473 L 64.7107,-6.39561 L 64.5943,-6.75392 L 64.5237,-7.12399
 L 64.5,-7.5 L 64.5237,-7.87599 L 64.5943,-8.24606 L 64.7107,-8.60437 L 64.8711,-8.94525 L 65.073,-9.26335
 L 65.3131,-9.55363 L 65.5877,-9.81154 L 65.8925,-10.033 L 66.2227,-10.2145 L 66.573,-10.3532 L 66.9379,-10.4469
 L 67.3116,-10.4941 L 67.6884,-10.4941 L 68.0621,-10.4469 L 68.427,-10.3532 L 68.7773,-10.2145 L 69.1075,-10.033
 L 69.4123,-9.81154 L 69.6869,-9.55363 L 69.927,-9.26335 L 70.1289,-8.94525 L 70.2893,-8.60437 L 70.4057,-8.24606
 L 70.4763,-7.87599 L 70.5,-7.5 L 70.4763,-7.12399 L 70.4057,-6.75392 L 70.2893,-6.39561 L 70.1289,-6.05473
 L 69.927,-5.73663 L 69.6869,-5.44635 L 69.4123,-5.18845 L 69.1075,-4.96701 L 68.7773,-4.78551 L 68.427,-4.64682
 L 68.0621,-4.55313 L 67.6884,-4.50591 z
M -67.6884,-4.50591 L -68.0621,-4.55313 L -68.427,-4.64682 L -68.7773,-4.78551 L -69.1075,-4.96701 L -69.4123,-5.18845
 L -69.6869,-5.44635 L -69.927,-5.73663 L -70.1289,-6.05473 L -70.2893,-6.39561 L -70.4057,-6.75392 L -70.4763,-7.12399
 L -70.5,-7.5 L -70.4763,-7.87599 L -70.4057,-8.24606 L -70.2893,-8.60437 L -70.1289,-8.94525 L -69.927,-9.26335
 L -69.6869,-9.55363 L -69.4123,-9.81154 L -69.1075,-10.033 L -68.7773,-10.2145 L -68.427,-10.3532 L -68.0621,-10.4469
 L -67.6884,-10.4941 L -67.3116,-10.4941 L -66.9379,-10.4469 L -66.573,-10.3532 L -66.2227,-10.2145 L -65.8925,-10.033
 L -65.5877,-9.81154 L -65.3131,-9.55363 L -65.073,-9.26335 L -64.8711,-8.94525 L -64.7107,-8.60437 L -64.5943,-8.24606
 L -64.5237,-7.87599 L -64.5,-7.5 L -64.5237,-7.12399 L -64.5943,-6.75392 L -64.7107,-6.39561 L -64.8711,-6.05473
 L -65.073,-5.73663 L -65.3131,-5.44635 L -65.5877,-5.18845 L -65.8925,-4.96701 L -66.2227,-4.78551 L -66.573,-4.64682
 L -66.9379,-4.55313 L -67.3116,-4.50591 z
M 49.3721,9.98026 L 48.1262,9.82286 L 46.9098,9.51056 L 45.7422,9.04826 L 44.6417,8.44327 L 43.6257,7.70512
 L 42.7103,6.84546 L 41.9098,5.87784 L 41.2369,4.81754 L 40.7022,3.68124 L 40.3142,2.48689 L 40.0788,1.25333
 L 40,-0 L 40.0788,-1.25333 L 40.3142,-2.48689 L 40.7022,-3.68124 L 41.2369,-4.81754 L 41.9098,-5.87784
 L 42.7103,-6.84546 L 43.6257,-7.70512 L 44.6417,-8.44327 L 45.7422,-9.04826 L 46.9098,-9.51056 L 48.1262,-9.82286
 L 49.3721,-9.98026 L 50.6279,-9.98026 L 51.8738,-9.82286 L 53.0902,-9.51056 L 54.2578,-9.04826 L 55.3583,-8.44327
 L 56.3742,-7.70512 L 57.2897,-6.84546 L 58.0902,-5.87784 L 58.7631,-4.81754 L 59.2978,-3.68124 L 59.6858,-2.48689
 L 59.9211,-1.25333 L 60,-0 L 59.9211,1.25333 L 59.6858,2.48689 L 59.2978,3.68124 L 58.7631,4.81754
 L 58.0902,5.87784 L 57.2897,6.84546 L 56.3742,7.70512 L 55.3583,8.44327 L 54.2578,9.04826 L 53.0902,9.51056
 L 51.8738,9.82286 L 50.6279,9.98026 z
M -0.627899,9.98026 L -1.87381,9.82286 L -3.09016,9.51056 L -4.25778,9.04826 L -5.35826,8.44327 L -6.37424,7.70512
 L -7.28967,6.84546 L -8.09016,5.87784 L -8.76306,4.81754 L -9.29776,3.68124 L -9.68582,2.48689 L -9.92114,1.25333
 L -10,-0 L -9.92114,-1.25333 L -9.68582,-2.48689 L -9.29776,-3.68124 L -8.76306,-4.81754 L -8.09016,-5.87784
 L -7.28967,-6.84546 L -6.37424,-7.70512 L -5.35826,-8.44327 L -4.25778,-9.04826 L -3.09016,-9.51056 L -1.87381,-9.82286
 L -0.627899,-9.98026 L 0.627899,-9.98026 L 1.87381,-9.82286 L 3.09016,-9.51056 L 4.25778,-9.04826 L 5.35826,-8.44327
 L 6.37424,-7.70512 L 7.28967,-6.84546 L 8.09016,-5.87784 L 8.76306,-4.81754 L 9.29776,-3.68124 L 9.68582,-2.48689
 L 9.92114,-1.25333 L 10,-0 L 9.92114,1.25333 L 9.68582,2.48689 L 9.29776,3.68124 L 8.76306,4.81754
 L 8.09016,5.87784 L 7.28967,6.84546 L 6.37424,7.70512 L 5.35826,8.44327 L 4.25778,9.04826 L 3.09016,9.51056
 L 1.87381,9.82286 L 0.627899,9.98026 z
M -25.6279,9.98026 L -26.8738,9.82286 L -28.0902,9.51056 L -29.2578,9.04826 L -30.3583,8.44327 L -31.3742,7.70512
 L -32.2897,6.84546 L -33.0902,5.87784 L -33.7631,4.81754 L -34.2978,3.68124 L -34.6858,2.48689 L -34.9211,1.25333
 L -35,-0 L -34.9211,-1.25333 L -34.6858,-2.48689 L -34.2978,-3.68124 L -33.7631,-4.81754 L -33.0902,-5.87784
 L -32.2897,-6.84546 L -31.3742,-7.70512 L -30.3583,-8.44327 L -29.2578,-9.04826 L -28.0902,-9.51056 L -26.8738,-9.82286
 L -25.6279,-9.98026 L -24.3721,-9.98026 L -23.1262,-9.82286 L -21.9098,-9.51056 L -20.7422,-9.04826 L -19.6417,-8.44327
 L -18.6257,-7.70512 L -17.7103,-6.84546 L -16.9098,-5.87784 L -16.2369,-4.81754 L -15.7022,-3.68124 L -15.3142,-2.48689
 L -15.0788,-1.25333 L -15,-0 L -15.0788,1.25333 L -15.3142,2.48689 L -15.7022,3.68124 L -16.2369,4.81754
 L -16.9098,5.87784 L -17.7103,6.84546 L -18.6257,7.70512 L -19.6417,8.44327 L -20.7422,9.04826 L -21.9098,9.51056
 L -23.1262,9.82286 L -24.3721,9.98026 z
M -50.6279,9.98026 L -51.8738,9.82286 L -53.0902,9.51056 L -54.2578,9.04826 L -55.3583,8.44327 L -56.3742,7.70512
 L -57.2897,6.84546 L -58.0902,5.87784 L -58.7631,4.81754 L -59.2978,3.68124 L -59.6858,2.48689 L -59.9211,1.25333
 L -60,-0 L -59.9211,-1.25333 L -59.6858,-2.48689 L -59.2978,-3.68124 L -58.7631,-4.81754 L -58.0902,-5.87784
 L -57.2897,-6.84546 L -56.3742,-7.70512 L -55.3583,-8.44327 L -54.2578,-9.04826 L -53.0902,-9.51056 L -51.8738,-9.82286
 L -50.6279,-9.98026 L -49.3721,-9.98026 L -48.1262,-9.82286 L -46.9098,-9.51056 L -45.7422,-9.04826 L -44.6417,-8.44327
 L -43.6257,-7.70512 L -42.7103,-6.84546 L -41.9098,-5.87784 L -41.2369,-4.81754 L -40.7022,-3.68124 L -40.3142,-2.48689
 L -40.0788,-1.25333 L -40,-0 L -40.0788,1.25333 L -40.3142,2.48689 L -40.7022,3.68124 L -41.2369,4.81754
 L -41.9098,5.87784 L -42.7103,6.84546 L -43.6257,7.70512 L -44.6417,8.44327 L -45.7422,9.04826 L -46.9098,9.51056
 L -48.1262,9.82286 L -49.3721,9.98026 z
M 24.3721,9.98026 L 23.1262,9.82286 L 21.9098,9.51056 L 20.7422,9.04826 L 19.6417,8.44327 L 18.6257,7.70512
 L 17.7103,6.84546 L 16.9098,5.87784 L 16.2369,4.81754 L 15.7022,3.68124 L 15.3142,2.48689 L 15.0788,1.25333
 L 15,-0 L 15.0788,-1.25333 L 15.3142,-2.48689 L 15.7022,-3.68124 L 16.2369,-4.81754 L 16.9098,-5.87784
 L 17.7103,-6.84546 L 18.6257,-7.70512 L 19.6417,-8.44327 L 20.7422,-9.04826 L 21.9098,-9.51056 L 23.1262,-9.82286
 L 24.3721,-9.98026 L 25.6279,-9.98026 L 26.8738,-9.82286 L 28.0902,-9.51056 L 29.2578,-9.04826 L 30.3583,-8.44327
 L 31.3742,-7.70512 L 32.2897,-6.84546 L 33.0902,-5.87784 L 33.7631,-4.81754 L 34.2978,-3.68124 L 34.6858,-2.48689
 L 34.9211,-1.25333 L 35,-0 L 34.9211,1.25333 L 34.6858,2.48689 L 34.2978,3.68124 L 33.7631,4.81754
 L 33.0902,5.87784 L 32.2897,6.84546 L 31.3742,7.70512 L 30.3583,8.44327 L 29.2578,9.04826 L 28.0902,9.51056
 L 26.8738,9.82286 L 25.6279,9.98026 z
M 67.4058,1.49704 L 67.2189,1.47342 L 67.0365,1.42657 L 66.8613,1.35724 L 66.6963,1.26648 L 66.5439,1.15576
 L 66.4065,1.02681 L 66.2865,0.881668 L 66.1855,0.722626 L 66.1053,0.552185 L 66.0471,0.373032 L 66.0118,0.187988
 L 66,-0 L 66.0118,-0.187988 L 66.0471,-0.373032 L 66.1053,-0.552185 L 66.1855,-0.722626 L 66.2865,-0.881668
 L 66.4065,-1.02681 L 66.5439,-1.15576 L 66.6963,-1.26648 L 66.8613,-1.35724 L 67.0365,-1.42657 L 67.2189,-1.47342
 L 67.4058,-1.49704 L 67.5942,-1.49704 L 67.7811,-1.47342 L 67.9635,-1.42657 L 68.1387,-1.35724 L 68.3037,-1.26648
 L 68.4561,-1.15576 L 68.5934,-1.02681 L 68.7135,-0.881668 L 68.8145,-0.722626 L 68.8947,-0.552185 L 68.9529,-0.373032
 L 68.9882,-0.187988 L 69,-0 L 68.9882,0.187988 L 68.9529,0.373032 L 68.8947,0.552185 L 68.8145,0.722626
 L 68.7135,0.881668 L 68.5934,1.02681 L 68.4561,1.15576 L 68.3037,1.26648 L 68.1387,1.35724 L 67.9635,1.42657
 L 67.7811,1.47342 L 67.5942,1.49704 z
M -67.5942,1.49704 L -67.7811,1.47342 L -67.9635,1.42657 L -68.1387,1.35724 L -68.3037,1.26648 L -68.4561,1.15576
 L -68.5934,1.02681 L -68.7135,0.881668 L -68.8145,0.722626 L -68.8947,0.552185 L -68.9529,0.373032 L -68.9882,0.187988
 L -69,-0 L -68.9882,-0.187988 L -68.9529,-0.373032 L -68.8947,-0.552185 L -68.8145,-0.722626 L -68.7135,-0.881668
 L -68.5934,-1.02681 L -68.4561,-1.15576 L -68.3037,-1.26648 L -68.1387,-1.35724 L -67.9635,-1.42657 L -67.7811,-1.47342
 L -67.5942,-1.49704 L -67.4058,-1.49704 L -67.2189,-1.47342 L -67.0365,-1.42657 L -66.8613,-1.35724 L -66.6963,-1.26648
 L -66.5439,-1.15576 L -66.4065,-1.02681 L -66.2865,-0.881668 L -66.1855,-0.722626 L -66.1053,-0.552185 L -66.0471,-0.373032
 L -66.0118,-0.187988 L -66,-0 L -66.0118,0.187988 L -66.0471,0.373032 L -66.1053,0.552185 L -66.1855,0.722626
 L -66.2865,0.881668 L -66.4065,1.02681 L -66.5439,1.15576 L -66.6963,1.26648 L -66.8613,1.35724 L -67.0365,1.42657
 L -67.2189,1.47342 L -67.4058,1.49704 z
M -67.6884,10.4941 L -68.0621,10.4469 L -68.427,10.3532 L -68.7773,10.2145 L -69.1075,10.033 L -69.4123,9.81154
 L -69.6869,9.55363 L -69.927,9.26335 L -70.1289,8.94525 L -70.2893,8.60437 L -70.4057,8.24606 L -70.4763,7.87599
 L -70.5,7.5 L -70.4763,7.12399 L -70.4057,6.75392 L -70.2893,6.39561 L -70.1289,6.05473 L -69.927,5.73663
 L -69.6869,5.44635 L -69.4123,5.18845 L -69.1075,4.96701 L -68.7773,4.78551 L -68.427,4.64682 L -68.0621,4.55313
 L -67.6884,4.50591 L -67.3116,4.50591 L -66.9379,4.55313 L -66.573,4.64682 L -66.2227,4.78551 L -65.8925,4.96701
 L -65.5877,5.18845 L -65.3131,5.44635 L -65.073,5.73663 L -64.8711,6.05473 L -64.7107,6.39561 L -64.5943,6.75392
 L -64.5237,7.12399 L -64.5,7.5 L -64.5237,7.87599 L -64.5943,8.24606 L -64.7107,8.60437 L -64.8711,8.94525
 L -65.073,9.26335 L -65.3131,9.55363 L -65.5877,9.81154 L -65.8925,10.033 L -66.2227,10.2145 L -66.573,10.3532
 L -66.9379,10.4469 L -67.3116,10.4941 z
M 67.3116,10.4941 L 66.9379,10.4469 L 66.573,10.3532 L 66.2227,10.2145 L 65.8925,10.033 L 65.5877,9.81154
 L 65.3131,9.55363 L 65.073,9.26335 L 64.8711,8.94525 L 64.7107,8.60437 L 64.5943,8.24606 L 64.5237,7.87599
 L 64.5,7.5 L 64.5237,7.12399 L 64.5943,6.75392 L 64.7107,6.39561 L 64.8711,6.05473 L 65.073,5.73663
 L 65.3131,5.44635 L 65.5877,5.18845 L 65.8925,4.96701 L 66.2227,4.78551 L 66.573,4.64682 L 66.9379,4.55313
 L 67.3116,4.50591 L 67.6884,4.50591 L 68.0621,4.55313 L 68.427,4.64682 L 68.7773,4.78551 L 69.1075,4.96701
 L 69.4123,5.18845 L 69.6869,5.44635 L 69.927,5.73663 L 70.1289,6.05473 L 70.2893,6.39561 L 70.4057,6.75392
 L 70.4763,7.12399 L 70.5,7.5 L 70.4763,7.87599 L 70.4057,8.24606 L 70.2893,8.60437 L 70.1289,8.94525
 L 69.927,9.26335 L 69.6869,9.55363 L 69.4123,9.81154 L 69.1075,10.033 L 68.7773,10.2145 L 68.427,10.3532
 L 68.0621,10.4469 L 67.6884,10.4941 z
" stroke="black" fill="lightgray" stroke-width="0.5"/>
</svg>
