<?xml version="1.0" standalone="no"?>
<!DOCTYPE svg PUBLIC "-//W3C//DTD SVG 1.1//EN" "http://www.w3.org/Graphics/SVG/1.1/DTD/svg11.dtd">
<svg width="74mm" height="44mm" viewBox="-37 -76 74 44" xmlns="http://www.w3.org/2000/svg" version="1.1">
<title>OpenSCAD Model</title>
<path d="
M 32.9369,-32.0886 L 33.5451,-32.2447 L 34.1289,-32.4759 L 34.6791,-32.7784 L 35.1871,-33.1474 L 35.6448,-33.5773
 L 36.0451,-34.0611 L 36.3815,-34.5912 L 36.6489,-35.1594 L 36.8429,-35.7566 L 36.9606,-36.3733 L 37,-37
 L 37,-71 L 36.9606,-71.6267 L 36.8429,-72.2434 L 36.6489,-72.8406 L 36.3815,-73.4088 L 36.0451,-73.9389
 L 35.6448,-74.4227 L 35.1871,-74.8526 L 34.6791,-75.2216 L 34.1289,-75.5241 L 33.5451,-75.7553 L 32.9369,-75.9114
 L 32.3139,-75.9901 L -32.3139,-75.9901 L -32.9369,-75.9114 L -33.5451,-75.7553 L -34.1289,-75.5241 L -34.6791,-75.2216
 L -35.1871,-74.8526 L -35.6448,-74.4227 L -36.0451,-73.9389 L -36.3815,-73.4088 L -36.6489,-72.8406 L -36.8429,-72.2434
 L -36.9606,-71.6267 L -37,-71 L -37,-37 L -36.9606,-36.3733 L -36.8429,-35.7566 L -36.6489,-35.1594
 L -36.3815,-34.5912 L -36.0451,-34.0611 L -35.6448,-33.5773 L -35.1871,-33.1474 L -34.6791,-32.7784 L -34.1289,-32.4759
 L -33.5451,-32.2447 L -32.9369,-32.0886 L -32.3139,-32.0099 L 32.3139,-32.0099 z
M 29.8116,-66.0059 L 29.4379,-66.0531 L 29.0729,-66.1468 L 28.7227,-66.2855 L 28.3925,-66.467 L 28.0877,-66.6884
 L 27.8131,-66.9464 L 27.5729,-67.2366 L 27.3711,-67.5547 L 27.2107,-67.8956 L 27.0942,-68.2539 L 27.0237,-68.624
 L 27,-69 L 27.0237,-69.376 L 27.0942,-69.7461 L 27.2107,-70.1044 L 27.3711,-70.4453 L 27.5729,-70.7634
 L 27.8131,-71.0536 L 28.0877,-71.3115 L 28.3925,-71.533 L 28.7227,-71.7145 L 29.0729,-71.8532 L 29.4379,-71.9469
 L 29.8116,-71.9941 L 30.1884,-71.9941 L 30.5621,-71.9469 L 30.927,-71.8532 L 31.2773,-71.7145 L 31.6075,-71.533
 L 31.9123,-71.3115 L 32.1869,-71.0536 L 32.427,-70.7634 L 32.6289,-70.4453 L 32.7893,-70.1044 L 32.9057,-69.7461
 L 32.9763,-69.376 L 33,-69 L 32.9763,-68.624 L 32.9057,-68.2539 L 32.7893,-67.8956 L 32.6289,-67.5547
 L 32.427,-67.2366 L 32.1869,-66.9464 L 31.9123,-66.6884 L 31.6075,-66.467 L 31.2773,-66.2855 L 30.927,-66.1468
 L 30.5621,-66.0531 L 30.1884,-66.0059 z
M -30.1884,-66.0059 L -30.5621,-66.0531 L -30.927,-66.1468 L -31.2773,-66.2855 L -31.6075,-66.467 L -31.9123,-66.6884
 L -32.1869,-66.9464 L -32.427,-67.2366 L -32.6289,-67.5547 L -32.7893,-67.8956 L -32.9057,-68.2539 L -32.9763,-68.624
 L -33,-69 L -32.9763,-69.376 L -32.9057,-69.7461 L -32.7893,-70.1044 L -32.6289,-70.4453 L -32.427,-70.7634
 L -32.1869,-71.0536 L -31.9123,-71.3115 L -31.6075,-71.533 L -31.2773,-71.7145 L -30.927,-71.8532 L -30.5621,-71.9469
 L -30.1884,-71.9941 L -29.8116,-71.9941 L -29.4379,-71.9469 L -29.0729,-71.8532 L -28.7227,-71.7145 L -28.3925,-71.533
 L -28.0877,-71.3115 L -27.8131,-71.0536 L -27.5729,-70.7634 L -27.3711,-70.4453 L -27.2107,-70.1044 L -27.0942,-69.7461
 L -27.0237,-69.376 L -27,-69 L -27.0237,-68.624 L -27.0942,-68.2539 L -27.2107,-67.8956 L -27.3711,-67.5547
 L -27.5729,-67.2366 L -27.8131,-66.9464 L -28.0877,-66.6884 L -28.3925,-66.467 L -28.7227,-66.2855 L -29.0729,-66.1468
 L -29.4379,-66.0531 L -29.8116,-66.0059 z
M -17.3791,-40.0276 L -19.1233,-40.248 L -20.8262,-40.6852 L -22.4609,-41.3324 L -24.0016,-42.1794 L -25.4239,-43.2128
 L -26.7056,-44.4164 L -27.8262,-45.771 L -28.7683,-47.2555 L -29.5169,-48.8463 L -30.0602,-50.5184 L -30.3896,-52.2453
 L -30.5,-54 L -30.3896,-55.7547 L -30.0602,-57.4816 L -29.5169,-59.1537 L -28.7683,-60.7445 L -27.8262,-62.229
 L -26.7056,-63.5836 L -25.4239,-64.7872 L -24.0016,-65.8206 L -22.4609,-66.6676 L -20.8262,-67.3148 L -19.1233,-67.752
 L -17.3791,-67.9724 L -15.6209,-67.9724 L -13.8766,-67.752 L -12.1738,-67.3148 L -10.5391,-66.6676 L -8.99841,-65.8206
 L -7.57605,-64.7872 L -6.29443,-63.5836 L -5.17375,-62.229 L -4.2317,-60.7445 L -3.48312,-59.1537 L -2.93983,-57.4816
 L -2.61038,-55.7547 L -2.5,-54 L -2.61038,-52.2453 L -2.93983,-50.5184 L -3.48312,-48.8463 L -4.2317,-47.2555
 L -5.17375,-45.771 L -6.29443,-44.4164 L -7.57605,-43.2128 L -8.99841,-42.1794 L -10.5391,-41.3324 L -12.1738,-40.6852
 L -13.8766,-40.248 L -15.6209,-40.0276 z
M 15.6209,-40.0276 L 13.8766,-40.248 L 12.1738,-40.6852 L 10.5391,-41.3324 L 8.99841,-42.1794 L 7.57605,-43.2128
 L 6.29443,-44.4164 L 5.17375,-45.771 L 4.2317,-47.2555 L 3.48312,-48.8463 L 2.93983,-50.5184 L 2.61038,-52.2453
 L 2.5,-54 L 2.61038,-55.7547 L 2.93983,-57.4816 L 3.48312,-59.1537 L 4.2317,-60.7445 L 5.17375,-62.229
 L 6.29443,-63.5836 L 7.57605,-64.7872 L 8.99841,-65.8206 L 10.5391,-66.6676 L 12.1738,-67.3148 L 13.8766,-67.752
 L 15.6209,-67.9724 L 17.3791,-67.9724 L 19.1233,-67.752 L 20.8262,-67.3148 L 22.4609,-66.6676 L 24.0016,-65.8206
 L 25.4239,-64.7872 L 26.7056,-63.5836 L 27.8262,-62.229 L 28.7683,-60.7445 L 29.5169,-59.1537 L 30.0602,-57.4816
 L 30.3896,-55.7547 L 30.5,-54 L 30.3896,-52.2453 L 30.0602,-50.5184 L 29.5169,-48.8463 L 28.7683,-47.2555
 L 27.8262,-45.771 L 26.7056,-44.4164 L 25.4239,-43.2128 L 24.0016,-42.1794 L 22.4609,-41.3324 L 20.8262,-40.6852
 L 19.1233,-40.248 L 17.3791,-40.0276 z
M -30.1884,-36.0059 L -30.5621,-36.0531 L -30.927,-36.1468 L -31.2773,-36.2855 L -31.6075,-36.467 L -31.9123,-36.6885
 L -32.1869,-36.9464 L -32.427,-37.2366 L -32.6289,-37.5547 L -32.7893,-37.8956 L -32.9057,-38.2539 L -32.9763,-38.624
 L -33,-39 L -32.9763,-39.376 L -32.9057,-39.7461 L -32.7893,-40.1044 L -32.6289,-40.4453 L -32.427,-40.7634
 L -32.1869,-41.0536 L -31.9123,-41.3116 L -31.6075,-41.533 L -31.2773,-41.7145 L -30.927,-41.8532 L -30.5621,-41.9469
 L -30.1884,-41.9941 L -29.8116,-41.9941 L -29.4379,-41.9469 L -29.0729,-41.8532 L -28.7227,-41.7145 L -28.3925,-41.533
 L -28.0877,-41.3116 L -27.8131,-41.0536 L -27.5729,-40.7634 L -27.3711,-40.4453 L -27.2107,-40.1044 L -27.0942,-39.7461
 L -27.0237,-39.376 L -27,-39 L -27.0237,-38.624 L -27.0942,-38.2539 L -27.2107,-37.8956 L -27.3711,-37.5547
 L -27.5729,-37.2366 L -27.8131,-36.9464 L -28.0877,-36.6885 L -28.3925,-36.467 L -28.7227,-36.2855 L -29.0729,-36.1468
 L -29.4379,-36.0531 L -29.8116,-36.0059 z
M 29.8116,-36.0059 L 29.4379,-36.0531 L 29.0729,-36.1468 L 28.7227,-36.2855 L 28.3925,-36.467 L 28.0877,-36.6885
 L 27.8131,-36.9464 L 27.5729,-37.2366 L 27.3711,-37.5547 L 27.2107,-37.8956 L 27.0942,-38.2539 L 27.0237,-38.624
 L 27,-39 L 27.0237,-39.376 L 27.0942,-39.7461 L 27.2107,-40.1044 L 27.3711,-40.4453 L 27.5729,-40.7634
 L 27.8131,-41.0536 L 28.0877,-41.3116 L 28.3925,-41.533 L 28.7227,-41.7145 L 29.0729,-41.8532 L 29.4379,-41.9469
 L 29.8116,-41.9941 L 30.1884,-41.9941 L 30.5621,-41.9469 L 30.927,-41.8532 L 31.2773,-41.7145 L 31.6075,-41.533
 L 31.9123,-41.3116 L 32.1869,-41.0536 L 32.427,-40.7634 L 32.6289,-40.4453 L 32.7893,-40.1044 L 32.9057,-39.7461
 L 32.9763,-39.376 L 33,-39 L 32.9763,-38.624 L 32.9057,-38.2539 L 32.7893,-37.8956 L 32.6289,-37.5547
 L 32.427,-37.2366 L 32.1869,-36.9464 L 31.9123,-36.6885 L 31.6075,-36.467 L 31.2773,-36.2855 L 30.927,-36.1468
 L 30.5621,-36.0531 L 30.1884,-36.0059 z
" stroke="black" fill="lightgray" stroke-width="0.5"/>
</svg>
