<?xml version="1.0" standalone="no"?>
<!DOCTYPE svg PUBLIC "-//W3C//DTD SVG 1.1//EN" "http://www.w3.org/Graphics/SVG/1.1/DTD/svg11.dtd">
<svg width="14mm" height="30mm" viewBox="-7 -54 14 30" xmlns="http://www.w3.org/2000/svg" version="1.1">
<title>OpenSCAD Model</title>
<path d="
M 2.9369,-24.5886 L 3.54507,-24.7447 L 4.12889,-24.9759 L 4.67912,-25.2784 L 5.18712,-25.6474 L 5.64484,-26.0773
 L 6.04507,-26.5611 L 6.38153,-27.0912 L 6.64888,-27.6594 L 6.84291,-28.2566 L 6.96057,-28.8733 L 7,-29.5
 L 7,-48.5 L 6.96057,-49.1267 L 6.84291,-49.7434 L 6.64888,-50.3406 L 6.38153,-50.9088 L 6.04507,-51.4389
 L 5.64484,-51.9227 L 5.18712,-52.3526 L 4.67912,-52.7216 L 4.12889,-53.0241 L 3.54507,-53.2553 L 2.9369,-53.4114
 L 2.31395,-53.4901 L -2.31395,-53.4901 L -2.9369,-53.4114 L -3.54507,-53.2553 L -4.12889,-53.0241 L -4.67912,-52.7216
 L -5.18712,-52.3526 L -5.64484,-51.9227 L -6.04507,-51.4389 L -6.38153,-50.9088 L -6.64888,-50.3406 L -6.84291,-49.7434
 L -6.96057,-49.1267 L -7,-48.5 L -7,-29.5 L -6.96057,-28.8733 L -6.84291,-28.2566 L -6.64888,-27.6594
 L -6.38153,-27.0912 L -6.04507,-26.5611 L -5.64484,-26.0773 L -5.18712,-25.6474 L -4.67912,-25.2784 L -4.12889,-24.9759
 L -3.54507,-24.7447 L -2.9369,-24.5886 L -2.31395,-24.5099 L 2.31395,-24.5099 z
M -0.18837,-43.5059 L -0.562134,-43.5531 L -0.927048,-43.6468 L -1.27733,-43.7855 L -1.60747,-43.967 L -1.91226,-44.1884
 L -2.1869,-44.4464 L -2.42705,-44.7366 L -2.62891,-45.0547 L -2.78932,-45.3956 L -2.90575,-45.7539 L -2.97633,-46.124
 L -3,-46.5 L -2.97633,-46.876 L -2.90575,-47.2461 L -2.78932,-47.6044 L -2.62891,-47.9453 L -2.42705,-48.2634
 L -2.1869,-48.5536 L -1.91226,-48.8115 L -1.60747,-49.033 L -1.27733,-49.2145 L -0.927048,-49.3532 L -0.562134,-49.4469
 L -0.18837,-49.4941 L 0.18837,-49.4941 L 0.562134,-49.4469 L 0.927048,-49.3532 L 1.27733,-49.2145 L 1.60747,-49.033
 L 1.91226,-48.8115 L 2.1869,-48.5536 L 2.42705,-48.2634 L 2.62891,-47.9453 L 2.78932,-47.6044 L 2.90575,-47.2461
 L 2.97633,-46.876 L 3,-46.5 L 2.97633,-46.124 L 2.90575,-45.7539 L 2.78932,-45.3956 L 2.62891,-45.0547
 L 2.42705,-44.7366 L 2.1869,-44.4464 L 1.91226,-44.1884 L 1.60747,-43.967 L 1.27733,-43.7855 L 0.927048,-43.6468
 L 0.562134,-43.5531 L 0.18837,-43.5059 z
M -0.12558,-37.004 L -0.374756,-37.0354 L -0.618027,-37.0979 L -0.851547,-37.1904 L -1.07164,-37.3114 L -1.27484,-37.459
 L -1.45793,-37.6309 L -1.61803,-37.8244 L -1.75261,-38.0365 L -1.85954,-38.2638 L -1.93716,-38.5026 L -1.98422,-38.7493
 L -2,-39 L -1.98422,-39.2507 L -1.93716,-39.4974 L -1.85954,-39.7362 L -1.75261,-39.9635 L -1.61803,-40.1756
 L -1.45793,-40.3691 L -1.27484,-40.541 L -1.07164,-40.6886 L -0.851547,-40.8096 L -0.618027,-40.9021 L -0.374756,-40.9646
 L -0.12558,-40.996 L 0.12558,-40.996 L 0.374756,-40.9646 L 0.618027,-40.9021 L 0.851547,-40.8096 L 1.07164,-40.6886
 L 1.27484,-40.541 L 1.45793,-40.3691 L 1.61803,-40.1756 L 1.75261,-39.9635 L 1.85954,-39.7362 L 1.93716,-39.4974
 L 1.98422,-39.2507 L 2,-39 L 1.98422,-38.7493 L 1.93716,-38.5026 L 1.85954,-38.2638 L 1.75261,-38.0365
 L 1.61803,-37.8244 L 1.45793,-37.6309 L 1.27484,-37.459 L 1.07164,-37.3114 L 0.851547,-37.1904 L 0.618027,-37.0979
 L 0.374756,-37.0354 L 0.12558,-37.004 z
M -0.18837,-28.5059 L -0.562134,-28.5531 L -0.927048,-28.6468 L -1.27733,-28.7855 L -1.60747,-28.967 L -1.91226,-29.1885
 L -2.1869,-29.4464 L -2.42705,-29.7366 L -2.62891,-30.0547 L -2.78932,-30.3956 L -2.90575,-30.7539 L -2.97633,-31.124
 L -3,-31.5 L -2.97633,-31.876 L -2.90575,-32.2461 L -2.78932,-32.6044 L -2.62891,-32.9453 L -2.42705,-33.2634
 L -2.1869,-33.5536 L -1.91226,-33.8116 L -1.60747,-34.033 L -1.27733,-34.2145 L -0.927048,-34.3532 L -0.562134,-34.4469
 L -0.18837,-34.4941 L 0.18837,-34.4941 L 0.562134,-34.4469 L 0.927048,-34.3532 L 1.27733,-34.2145 L 1.60747,-34.033
 L 1.91226,-33.8116 L 2.1869,-33.5536 L 2.42705,-33.2634 L 2.62891,-32.9453 L 2.78932,-32.6044 L 2.90575,-32.2461
 L 2.97633,-31.876 L 3,-31.5 L 2.97633,-31.124 L 2.90575,-30.7539 L 2.78932,-30.3956 L 2.62891,-30.0547
 L 2.42705,-29.7366 L 2.1869,-29.4464 L 1.91226,-29.1885 L 1.60747,-28.967 L 1.27733,-28.7855 L 0.927048,-28.6468
 L 0.562134,-28.5531 L 0.18837,-28.5059 z
" stroke="black" fill="lightgray" stroke-width="0.5"/>
</svg>
