<?xml version="1.0" standalone="no"?>
<!DOCTYPE svg PUBLIC "-//W3C//DTD SVG 1.1//EN" "http://www.w3.org/Graphics/SVG/1.1/DTD/svg11.dtd">
<svg width="60mm" height="30mm" viewBox="-30 -15 60 30" xmlns="http://www.w3.org/2000/svg" version="1.1">
<title>OpenSCAD Model</title>
<path d="
M 25.4369,14.4114 L 26.0451,14.2553 L 26.6289,14.0241 L 27.1791,13.7216 L 27.6871,13.3526 L 28.1448,12.9227
 L 28.5451,12.4389 L 28.8815,11.9088 L 29.1489,11.3406 L 29.3429,10.7434 L 29.4606,10.1267 L 29.5,9.5
 L 29.5,-9.5 L 29.4606,-10.1267 L 29.3429,-10.7434 L 29.1489,-11.3406 L 28.8815,-11.9088 L 28.5451,-12.4389
 L 28.1448,-12.9227 L 27.6871,-13.3526 L 27.1791,-13.7216 L 26.6289,-14.0241 L 26.0451,-14.2553 L 25.4369,-14.4114
 L 24.8139,-14.4901 L -24.8139,-14.4901 L -25.4369,-14.4114 L -26.0451,-14.2553 L -26.6289,-14.0241 L -27.1791,-13.7216
 L -27.6871,-13.3526 L -28.1448,-12.9227 L -28.5451,-12.4389 L -28.8815,-11.9088 L -29.1489,-11.3406 L -29.3429,-10.7434
 L -29.4606,-10.1267 L -29.5,-9.5 L -29.5,9.5 L -29.4606,10.1267 L -29.3429,10.7434 L -29.1489,11.3406
 L -28.8815,11.9088 L -28.5451,12.4389 L -28.1448,12.9227 L -27.6871,13.3526 L -27.1791,13.7216 L -26.6289,14.0241
 L -26.0451,14.2553 L -25.4369,14.4114 L -24.8139,14.4901 L 24.8139,14.4901 z
M 22.3116,-4.50591 L 21.9379,-4.55313 L 21.5729,-4.64682 L 21.2227,-4.78551 L 20.8925,-4.96701 L 20.5877,-5.18845
 L 20.3131,-5.44635 L 20.0729,-5.73663 L 19.8711,-6.05473 L 19.7107,-6.39561 L 19.5942,-6.75392 L 19.5237,-7.12399
 L 19.5,-7.5 L 19.5237,-7.87599 L 19.5942,-8.24606 L 19.7107,-8.60437 L 19.8711,-8.94525 L 20.0729,-9.26335
 L 20.3131,-9.55363 L 20.5877,-9.81154 L 20.8925,-10.033 L 21.2227,-10.2145 L 21.5729,-10.3532 L 21.9379,-10.4469
 L 22.3116,-10.4941 L 22.6884,-10.4941 L 23.0621,-10.4469 L 23.427,-10.3532 L 23.7773,-10.2145 L 24.1075,-10.033
 L 24.4123,-9.81154 L 24.6869,-9.55363 L 24.927,-9.26335 L 25.1289,-8.94525 L 25.2893,-8.60437 L 25.4057,-8.24606
 L 25.4763,-7.87599 L 25.5,-7.5 L 25.4763,-7.12399 L 25.4057,-6.75392 L 25.2893,-6.39561 L 25.1289,-6.05473
 L 24.927,-5.73663 L 24.6869,-5.44635 L 24.4123,-5.18845 L 24.1075,-4.96701 L 23.7773,-4.78551 L 23.427,-4.64682
 L 23.0621,-4.55313 L 22.6884,-4.50591 z
M -22.6884,-4.50591 L -23.0621,-4.55313 L -23.427,-4.64682 L -23.7773,-4.78551 L -24.1075,-4.96701 L -24.4123,-5.18845
 L -24.6869,-5.44635 L -24.927,-5.73663 L -25.1289,-6.05473 L -25.2893,-6.39561 L -25.4057,-6.75392 L -25.4763,-7.12399
 L -25.5,-7.5 L -25.4763,-7.87599 L -25.4057,-8.24606 L -25.2893,-8.60437 L -25.1289,-8.94525 L -24.927,-9.26335
 L -24.6869,-9.55363 L -24.4123,-9.81154 L -24.1075,-10.033 L -23.7773,-10.2145 L -23.427,-10.3532 L -23.0621,-10.4469
 L -22.6884,-10.4941 L -22.3116,-10.4941 L -21.9379,-10.4469 L -21.5729,-10.3532 L -21.2227,-10.2145 L -20.8925,-10.033
 L -20.5877,-9.81154 L -20.3131,-9.55363 L -20.0729,-9.26335 L -19.8711,-8.94525 L -19.7107,-8.60437 L -19.5942,-8.24606
 L -19.5237,-7.87599 L -19.5,-7.5 L -19.5237,-7.12399 L -19.5942,-6.75392 L -19.7107,-6.39561 L -19.8711,-6.05473
 L -20.0729,-5.73663 L -20.3131,-5.44635 L -20.5877,-5.18845 L -20.8925,-4.96701 L -21.2227,-4.78551 L -21.5729,-4.64682
 L -21.9379,-4.55313 L -22.3116,-4.50591 z
M -11.0023,7.98421 L -11.999,7.85829 L -12.9721,7.60844 L -13.9062,7.2386 L -14.7866,6.75461 L -15.5994,6.16409
 L -16.3317,5.47636 L -16.9721,4.70227 L -17.5105,3.85402 L -17.9382,2.94499 L -18.2487,1.98952 L -18.4369,1.00266
 L -18.5,-0 L -18.4369,-1.00266 L -18.2487,-1.98952 L -17.9382,-2.94499 L -17.5105,-3.85402 L -16.9721,-4.70227
 L -16.3317,-5.47636 L -15.5994,-6.16409 L -14.7866,-6.75461 L -13.9062,-7.2386 L -12.9721,-7.60844 L -11.999,-7.85829
 L -11.0023,-7.98421 L -9.99767,-7.98421 L -9.00095,-7.85829 L -8.02786,-7.60844 L -7.09377,-7.2386 L -6.21338,-6.75461
 L -5.4006,-6.16409 L -4.66824,-5.47636 L -4.02786,-4.70227 L -3.48953,-3.85402 L -3.06178,-2.94499 L -2.75133,-1.98952
 L -2.56308,-1.00266 L -2.5,-0 L -2.56308,1.00266 L -2.75133,1.98952 L -3.06178,2.94499 L -3.48953,3.85402
 L -4.02786,4.70227 L -4.66824,5.47636 L -5.4006,6.16409 L -6.21338,6.75461 L -7.09377,7.2386 L -8.02786,7.60844
 L -9.00095,7.85829 L -9.99767,7.98421 z
M 9.99767,7.98421 L 9.00095,7.85829 L 8.02786,7.60844 L 7.09377,7.2386 L 6.21338,6.75461 L 5.4006,6.16409
 L 4.66824,5.47636 L 4.02786,4.70227 L 3.48953,3.85402 L 3.06178,2.94499 L 2.75133,1.98952 L 2.56308,1.00266
 L 2.5,-0 L 2.56308,-1.00266 L 2.75133,-1.98952 L 3.06178,-2.94499 L 3.48953,-3.85402 L 4.02786,-4.70227
 L 4.66824,-5.47636 L 5.4006,-6.16409 L 6.21338,-6.75461 L 7.09377,-7.2386 L 8.02786,-7.60844 L 9.00095,-7.85829
 L 9.99767,-7.98421 L 11.0023,-7.98421 L 11.999,-7.85829 L 12.9721,-7.60844 L 13.9062,-7.2386 L 14.7866,-6.75461
 L 15.5994,-6.16409 L 16.3317,-5.47636 L 16.9721,-4.70227 L 17.5105,-3.85402 L 17.9382,-2.94499 L 18.2487,-1.98952
 L 18.4369,-1.00266 L 18.5,-0 L 18.4369,1.00266 L 18.2487,1.98952 L 17.9382,2.94499 L 17.5105,3.85402
 L 16.9721,4.70227 L 16.3317,5.47636 L 15.5994,6.16409 L 14.7866,6.75461 L 13.9062,7.2386 L 12.9721,7.60844
 L 11.999,7.85829 L 11.0023,7.98421 z
M -22.5942,1.49704 L -22.7811,1.47342 L -22.9635,1.42657 L -23.1387,1.35724 L -23.3037,1.26648 L -23.4561,1.15576
 L -23.5934,1.02681 L -23.7135,0.881668 L -23.8145,0.722626 L -23.8947,0.552185 L -23.9529,0.373032 L -23.9882,0.187988
 L -24,-0 L -23.9882,-0.187988 L -23.9529,-0.373032 L -23.8947,-0.552185 L -23.8145,-0.722626 L -23.7135,-0.881668
 L -23.5934,-1.02681 L -23.4561,-1.15576 L -23.3037,-1.26648 L -23.1387,-1.35724 L -22.9635,-1.42657 L -22.7811,-1.47342
 L -22.5942,-1.49704 L -22.4058,-1.49704 L -22.2189,-1.47342 L -22.0365,-1.42657 L -21.8613,-1.35724 L -21.6963,-1.26648
 L -21.5439,-1.15576 L -21.4065,-1.02681 L -21.2865,-0.881668 L -21.1855,-0.722626 L -21.1053,-0.552185 L -21.0471,-0.373032
 L -21.0118,-0.187988 L -21,-0 L -21.0118,0.187988 L -21.0471,0.373032 L -21.1053,0.552185 L -21.1855,0.722626
 L -21.2865,0.881668 L -21.4065,1.02681 L -21.5439,1.15576 L -21.6963,1.26648 L -21.8613,1.35724 L -22.0365,1.42657
 L -22.2189,1.47342 L -22.4058,1.49704 z
M 22.4058,1.49704 L 22.2189,1.47342 L 22.0365,1.42657 L 21.8613,1.35724 L 21.6963,1.26648 L 21.5439,1.15576
 L 21.4065,1.02681 L 21.2865,0.881668 L 21.1855,0.722626 L 21.1053,0.552185 L 21.0471,0.373032 L 21.0118,0.187988
 L 21,-0 L 21.0118,-0.187988 L 21.0471,-0.373032 L 21.1053,-0.552185 L 21.1855,-0.722626 L 21.2865,-0.881668
 L 21.4065,-1.02681 L 21.5439,-1.15576 L 21.6963,-1.26648 L 21.8613,-1.35724 L 22.0365,-1.42657 L 22.2189,-1.47342
 L 22.4058,-1.49704 L 22.5942,-1.49704 L 22.7811,-1.47342 L 22.9635,-1.42657 L 23.1387,-1.35724 L 23.3037,-1.26648
 L 23.4561,-1.15576 L 23.5934,-1.02681 L 23.7135,-0.881668 L 23.8145,-0.722626 L 23.8947,-0.552185 L 23.9529,-0.373032
 L 23.9882,-0.187988 L 24,-0 L 23.9882,0.187988 L 23.9529,0.373032 L 23.8947,0.552185 L 23.8145,0.722626
 L 23.7135,0.881668 L 23.5934,1.02681 L 23.4561,1.15576 L 23.3037,1.26648 L 23.1387,1.35724 L 22.9635,1.42657
 L 22.7811,1.47342 L 22.5942,1.49704 z
M -22.6884,10.4941 L -23.0621,10.4469 L -23.427,10.3532 L -23.7773,10.2145 L -24.1075,10.033 L -24.4123,9.81154
 L -24.6869,9.55363 L -24.927,9.26335 L -25.1289,8.94525 L -25.2893,8.60437 L -25.4057,8.24606 L -25.4763,7.87599
 L -25.5,7.5 L -25.4763,7.12399 L -25.4057,6.75392 L -25.2893,6.39561 L -25.1289,6.05473 L -24.927,5.73663
 L -24.6869,5.44635 L -24.4123,5.18845 L -24.1075,4.96701 L -23.7773,4.78551 L -23.427,4.64682 L -23.0621,4.55313
 L -22.6884,4.50591 L -22.3116,4.50591 L -21.9379,4.55313 L -21.5729,4.64682 L -21.2227,4.78551 L -20.8925,4.96701
 L -20.5877,5.18845 L -20.3131,5.44635 L -20.0729,5.73663 L -19.8711,6.05473 L -19.7107,6.39561 L -19.5942,6.75392
 L -19.5237,7.12399 L -19.5,7.5 L -19.5237,7.87599 L -19.5942,8.24606 L -19.7107,8.60437 L -19.8711,8.94525
 L -20.0729,9.26335 L -20.3131,9.55363 L -20.5877,9.81154 L -20.8925,10.033 L -21.2227,10.2145 L -21.5729,10.3532
 L -21.9379,10.4469 L -22.3116,10.4941 z
M 22.3116,10.4941 L 21.9379,10.4469 L 21.5729,10.3532 L 21.2227,10.2145 L 20.8925,10.033 L 20.5877,9.81154
 L 20.3131,9.55363 L 20.0729,9.26335 L 19.8711,8.94525 L 19.7107,8.60437 L 19.5942,8.24606 L 19.5237,7.87599
 L 19.5,7.5 L 19.5237,7.12399 L 19.5942,6.75392 L 19.7107,6.39561 L 19.8711,6.05473 L 20.0729,5.73663
 L 20.3131,5.44635 L 20.5877,5.18845 L 20.8925,4.96701 L 21.2227,4.78551 L 21.5729,4.64682 L 21.9379,4.55313
 L 22.3116,4.50591 L 22.6884,4.50591 L 23.0621,4.55313 L 23.427,4.64682 L 23.7773,4.78551 L 24.1075,4.96701
 L 24.4123,5.18845 L 24.6869,5.44635 L 24.927,5.73663 L 25.1289,6.05473 L 25.2893,6.39561 L 25.4057,6.75392
 L 25.4763,7.12399 L 25.5,7.5 L 25.4763,7.87599 L 25.4057,8.24606 L 25.2893,8.60437 L 25.1289,8.94525
 L 24.927,9.26335 L 24.6869,9.55363 L 24.4123,9.81154 L 24.1075,10.033 L 23.7773,10.2145 L 23.427,10.3532
 L 23.0621,10.4469 L 22.6884,10.4941 z
" stroke="black" fill="lightgray" stroke-width="0.5"/>
</svg>
