<?xml version="1.0" standalone="no"?>
<!DOCTYPE svg PUBLIC "-//W3C//DTD SVG 1.1//EN" "http://www.w3.org/Graphics/SVG/1.1/DTD/svg11.dtd">
<svg width="254mm" height="90mm" viewBox="-127 -45 254 90" xmlns="http://www.w3.org/2000/svg" version="1.1">
<title>OpenSCAD Model</title>
<path d="
M 122.937,44.4114 L 123.545,44.2553 L 124.129,44.0241 L 124.679,43.7216 L 125.187,43.3526 L 125.645,42.9227
 L 126.045,42.4389 L 126.382,41.9088 L 126.649,41.3406 L 126.843,40.7434 L 126.961,40.1267 L 127,39.5
 L 127,-39.5 L 126.961,-40.1267 L 126.843,-40.7434 L 126.649,-41.3406 L 126.382,-41.9088 L 126.045,-42.4389
 L 125.645,-42.9227 L 125.187,-43.3526 L 124.679,-43.7216 L 124.129,-44.0241 L 123.545,-44.2553 L 122.937,-44.4114
 L 122.314,-44.4901 L -122.314,-44.4901 L -122.937,-44.4114 L -123.545,-44.2553 L -124.129,-44.0241 L -124.679,-43.7216
 L -125.187,-43.3526 L -125.645,-42.9227 L -126.045,-42.4389 L -126.382,-41.9088 L -126.649,-41.3406 L -126.843,-40.7434
 L -126.961,-40.1267 L -127,-39.5 L -127,39.5 L -126.961,40.1267 L -126.843,40.7434 L -126.649,41.3406
 L -126.382,41.9088 L -126.045,42.4389 L -125.645,42.9227 L -125.187,43.3526 L -124.679,43.7216 L -124.129,44.0241
 L -123.545,44.2553 L -122.937,44.4114 L -122.314,44.4901 L 122.314,44.4901 z
M -120.188,-34.5059 L -120.562,-34.5531 L -120.927,-34.6468 L -121.277,-34.7855 L -121.607,-34.967 L -121.912,-35.1885
 L -122.187,-35.4464 L -122.427,-35.7366 L -122.629,-36.0547 L -122.789,-36.3956 L -122.906,-36.7539 L -122.976,-37.124
 L -123,-37.5 L -122.976,-37.876 L -122.906,-38.2461 L -122.789,-38.6044 L -122.629,-38.9453 L -122.427,-39.2634
 L -122.187,-39.5536 L -121.912,-39.8115 L -121.607,-40.033 L -121.277,-40.2145 L -120.927,-40.3532 L -120.562,-40.4469
 L -120.188,-40.4941 L -119.812,-40.4941 L -119.438,-40.4469 L -119.073,-40.3532 L -118.723,-40.2145 L -118.393,-40.033
 L -118.088,-39.8115 L -117.813,-39.5536 L -117.573,-39.2634 L -117.371,-38.9453 L -117.211,-38.6044 L -117.094,-38.2461
 L -117.024,-37.876 L -117,-37.5 L -117.024,-37.124 L -117.094,-36.7539 L -117.211,-36.3956 L -117.371,-36.0547
 L -117.573,-35.7366 L -117.813,-35.4464 L -118.088,-35.1885 L -118.393,-34.967 L -118.723,-34.7855 L -119.073,-34.6468
 L -119.438,-34.5531 L -119.812,-34.5059 z
M 119.812,-34.5059 L 119.438,-34.5531 L 119.073,-34.6468 L 118.723,-34.7855 L 118.393,-34.967 L 118.088,-35.1885
 L 117.813,-35.4464 L 117.573,-35.7366 L 117.371,-36.0547 L 117.211,-36.3956 L 117.094,-36.7539 L 117.024,-37.124
 L 117,-37.5 L 117.024,-37.876 L 117.094,-38.2461 L 117.211,-38.6044 L 117.371,-38.9453 L 117.573,-39.2634
 L 117.813,-39.5536 L 118.088,-39.8115 L 118.393,-40.033 L 118.723,-40.2145 L 119.073,-40.3532 L 119.438,-40.4469
 L 119.812,-40.4941 L 120.188,-40.4941 L 120.562,-40.4469 L 120.927,-40.3532 L 121.277,-40.2145 L 121.607,-40.033
 L 121.912,-39.8115 L 122.187,-39.5536 L 122.427,-39.2634 L 122.629,-38.9453 L 122.789,-38.6044 L 122.906,-38.2461
 L 122.976,-37.876 L 123,-37.5 L 122.976,-37.124 L 122.906,-36.7539 L 122.789,-36.3956 L 122.629,-36.0547
 L 122.427,-35.7366 L 122.187,-35.4464 L 121.912,-35.1885 L 121.607,-34.967 L 121.277,-34.7855 L 120.927,-34.6468
 L 120.562,-34.5531 L 120.188,-34.5059 z
M -2.26045,35.929 L -6.74571,35.3623 L -11.1246,34.238 L -15.328,32.5738 L -19.2898,30.3958 L -22.9473,27.7385
 L -26.2429,24.6437 L -29.1246,21.1603 L -31.547,17.3431 L -33.472,13.2525 L -34.869,8.95284 L -35.7161,4.51199
 L -36,-0 L -35.7161,-4.51199 L -34.869,-8.95284 L -33.472,-13.2525 L -31.547,-17.3431 L -29.1246,-21.1603
 L -26.2429,-24.6437 L -22.9473,-27.7385 L -19.2898,-30.3958 L -15.328,-32.5738 L -11.1246,-34.238 L -6.74571,-35.3623
 L -2.26045,-35.929 L 2.26045,-35.929 L 6.74571,-35.3623 L 11.1246,-34.238 L 15.328,-32.5738 L 19.2898,-30.3958
 L 22.9473,-27.7385 L 26.2429,-24.6437 L 29.1246,-21.1603 L 31.547,-17.3431 L 33.472,-13.2525 L 34.869,-8.95284
 L 35.7161,-4.51199 L 36,-0 L 35.7161,4.51199 L 34.869,8.95284 L 33.472,13.2525 L 31.547,17.3431
 L 29.1246,21.1603 L 26.2429,24.6437 L 22.9473,27.7385 L 19.2898,30.3958 L 15.328,32.5738 L 11.1246,34.238
 L 6.74571,35.3623 L 2.26045,35.929 z
M -79.2605,35.929 L -83.7457,35.3623 L -88.1246,34.238 L -92.328,32.5738 L -96.2898,30.3958 L -99.9473,27.7385
 L -103.243,24.6437 L -106.125,21.1603 L -108.547,17.3431 L -110.472,13.2525 L -111.869,8.95284 L -112.716,4.51199
 L -113,-0 L -112.716,-4.51199 L -111.869,-8.95284 L -110.472,-13.2525 L -108.547,-17.3431 L -106.125,-21.1603
 L -103.243,-24.6437 L -99.9473,-27.7385 L -96.2898,-30.3958 L -92.328,-32.5738 L -88.1246,-34.238 L -83.7457,-35.3623
 L -79.2605,-35.929 L -74.7395,-35.929 L -70.2543,-35.3623 L -65.8754,-34.238 L -61.6719,-32.5738 L -57.7102,-30.3958
 L -54.0527,-27.7385 L -50.7571,-24.6437 L -47.8754,-21.1603 L -45.453,-17.3431 L -43.528,-13.2525 L -42.131,-8.95284
 L -41.2839,-4.51199 L -41,-0 L -41.2839,4.51199 L -42.131,8.95284 L -43.528,13.2525 L -45.453,17.3431
 L -47.8754,21.1603 L -50.7571,24.6437 L -54.0527,27.7385 L -57.7102,30.3958 L -61.6719,32.5738 L -65.8754,34.238
 L -70.2543,35.3623 L -74.7395,35.929 z
M 74.7395,35.929 L 70.2543,35.3623 L 65.8754,34.238 L 61.6719,32.5738 L 57.7102,30.3958 L 54.0527,27.7385
 L 50.7571,24.6437 L 47.8754,21.1603 L 45.453,17.3431 L 43.528,13.2525 L 42.131,8.95284 L 41.2839,4.51199
 L 41,-0 L 41.2839,-4.51199 L 42.131,-8.95284 L 43.528,-13.2525 L 45.453,-17.3431 L 47.8754,-21.1603
 L 50.7571,-24.6437 L 54.0527,-27.7385 L 57.7102,-30.3958 L 61.6719,-32.5738 L 65.8754,-34.238 L 70.2543,-35.3623
 L 74.7395,-35.929 L 79.2605,-35.929 L 83.7457,-35.3623 L 88.1246,-34.238 L 92.328,-32.5738 L 96.2898,-30.3958
 L 99.9473,-27.7385 L 103.243,-24.6437 L 106.125,-21.1603 L 108.547,-17.3431 L 110.472,-13.2525 L 111.869,-8.95284
 L 112.716,-4.51199 L 113,-0 L 112.716,4.51199 L 111.869,8.95284 L 110.472,13.2525 L 108.547,17.3431
 L 106.125,21.1603 L 103.243,24.6437 L 99.9473,27.7385 L 96.2898,30.3958 L 92.328,32.5738 L 88.1246,34.238
 L 83.7457,35.3623 L 79.2605,35.929 z
M -120.094,-28.503 L -120.281,-28.5266 L -120.464,-28.5734 L -120.639,-28.6427 L -120.804,-28.7335 L -120.956,-28.8442
 L -121.093,-28.9732 L -121.214,-29.1183 L -121.314,-29.2774 L -121.395,-29.4478 L -121.453,-29.627 L -121.488,-29.812
 L -121.5,-30 L -121.488,-30.188 L -121.453,-30.373 L -121.395,-30.5522 L -121.314,-30.7226 L -121.214,-30.8817
 L -121.093,-31.0268 L -120.956,-31.1558 L -120.804,-31.2665 L -120.639,-31.3572 L -120.464,-31.4266 L -120.281,-31.4734
 L -120.094,-31.497 L -119.906,-31.497 L -119.719,-31.4734 L -119.536,-31.4266 L -119.361,-31.3572 L -119.196,-31.2665
 L -119.044,-31.1558 L -118.907,-31.0268 L -118.786,-30.8817 L -118.686,-30.7226 L -118.605,-30.5522 L -118.547,-30.373
 L -118.512,-30.188 L -118.5,-30 L -118.512,-29.812 L -118.547,-29.627 L -118.605,-29.4478 L -118.686,-29.2774
 L -118.786,-29.1183 L -118.907,-28.9732 L -119.044,-28.8442 L -119.196,-28.7335 L -119.361,-28.6427 L -119.536,-28.5734
 L -119.719,-28.5266 L -119.906,-28.503 z
M 119.906,-28.503 L 119.719,-28.5266 L 119.536,-28.5734 L 119.361,-28.6427 L 119.196,-28.7335 L 119.044,-28.8442
 L 118.907,-28.9732 L 118.786,-29.1183 L 118.686,-29.2774 L 118.605,-29.4478 L 118.547,-29.627 L 118.512,-29.812
 L 118.5,-30 L 118.512,-30.188 L 118.547,-30.373 L 118.605,-30.5522 L 118.686,-30.7226 L 118.786,-30.8817
 L 118.907,-31.0268 L 119.044,-31.1558 L 119.196,-31.2665 L 119.361,-31.3572 L 119.536,-31.4266 L 119.719,-31.4734
 L 119.906,-31.497 L 120.094,-31.497 L 120.281,-31.4734 L 120.464,-31.4266 L 120.639,-31.3572 L 120.804,-31.2665
 L 120.956,-31.1558 L 121.093,-31.0268 L 121.214,-30.8817 L 121.314,-30.7226 L 121.395,-30.5522 L 121.453,-30.373
 L 121.488,-30.188 L 121.5,-30 L 121.488,-29.812 L 121.453,-29.627 L 121.395,-29.4478 L 121.314,-29.2774
 L 121.214,-29.1183 L 121.093,-28.9732 L 120.956,-28.8442 L 120.804,-28.7335 L 120.639,-28.6427 L 120.464,-28.5734
 L 120.281,-28.5266 L 120.094,-28.503 z
M 119.812,-19.5059 L 119.438,-19.5531 L 119.073,-19.6468 L 118.723,-19.7855 L 118.393,-19.967 L 118.088,-20.1884
 L 117.813,-20.4464 L 117.573,-20.7366 L 117.371,-21.0547 L 117.211,-21.3956 L 117.094,-21.7539 L 117.024,-22.124
 L 117,-22.5 L 117.024,-22.876 L 117.094,-23.2461 L 117.211,-23.6044 L 117.371,-23.9453 L 117.573,-24.2634
 L 117.813,-24.5536 L 118.088,-24.8115 L 118.393,-25.033 L 118.723,-25.2145 L 119.073,-25.3532 L 119.438,-25.4469
 L 119.812,-25.4941 L 120.188,-25.4941 L 120.562,-25.4469 L 120.927,-25.3532 L 121.277,-25.2145 L 121.607,-25.033
 L 121.912,-24.8115 L 122.187,-24.5536 L 122.427,-24.2634 L 122.629,-23.9453 L 122.789,-23.6044 L 122.906,-23.2461
 L 122.976,-22.876 L 123,-22.5 L 122.976,-22.124 L 122.906,-21.7539 L 122.789,-21.3956 L 122.629,-21.0547
 L 122.427,-20.7366 L 122.187,-20.4464 L 121.912,-20.1884 L 121.607,-19.967 L 121.277,-19.7855 L 120.927,-19.6468
 L 120.562,-19.5531 L 120.188,-19.5059 z
M -120.188,-19.5059 L -120.562,-19.5531 L -120.927,-19.6468 L -121.277,-19.7855 L -121.607,-19.967 L -121.912,-20.1884
 L -122.187,-20.4464 L -122.427,-20.7366 L -122.629,-21.0547 L -122.789,-21.3956 L -122.906,-21.7539 L -122.976,-22.124
 L -123,-22.5 L -122.976,-22.876 L -122.906,-23.2461 L -122.789,-23.6044 L -122.629,-23.9453 L -122.427,-24.2634
 L -122.187,-24.5536 L -121.912,-24.8115 L -121.607,-25.033 L -121.277,-25.2145 L -120.927,-25.3532 L -120.562,-25.4469
 L -120.188,-25.4941 L -119.812,-25.4941 L -119.438,-25.4469 L -119.073,-25.3532 L -118.723,-25.2145 L -118.393,-25.033
 L -118.088,-24.8115 L -117.813,-24.5536 L -117.573,-24.2634 L -117.371,-23.9453 L -117.211,-23.6044 L -117.094,-23.2461
 L -117.024,-22.876 L -117,-22.5 L -117.024,-22.124 L -117.094,-21.7539 L -117.211,-21.3956 L -117.371,-21.0547
 L -117.573,-20.7366 L -117.813,-20.4464 L -118.088,-20.1884 L -118.393,-19.967 L -118.723,-19.7855 L -119.073,-19.6468
 L -119.438,-19.5531 L -119.812,-19.5059 z
M -120.094,-13.5029 L -120.281,-13.5266 L -120.464,-13.5734 L -120.639,-13.6427 L -120.804,-13.7335 L -120.956,-13.8442
 L -121.093,-13.9732 L -121.214,-14.1183 L -121.314,-14.2774 L -121.395,-14.4478 L -121.453,-14.627 L -121.488,-14.812
 L -121.5,-15 L -121.488,-15.188 L -121.453,-15.373 L -121.395,-15.5522 L -121.314,-15.7226 L -121.214,-15.8817
 L -121.093,-16.0268 L -120.956,-16.1558 L -120.804,-16.2665 L -120.639,-16.3572 L -120.464,-16.4266 L -120.281,-16.4734
 L -120.094,-16.497 L -119.906,-16.497 L -119.719,-16.4734 L -119.536,-16.4266 L -119.361,-16.3572 L -119.196,-16.2665
 L -119.044,-16.1558 L -118.907,-16.0268 L -118.786,-15.8817 L -118.686,-15.7226 L -118.605,-15.5522 L -118.547,-15.373
 L -118.512,-15.188 L -118.5,-15 L -118.512,-14.812 L -118.547,-14.627 L -118.605,-14.4478 L -118.686,-14.2774
 L -118.786,-14.1183 L -118.907,-13.9732 L -119.044,-13.8442 L -119.196,-13.7335 L -119.361,-13.6427 L -119.536,-13.5734
 L -119.719,-13.5266 L -119.906,-13.5029 z
M 119.906,-13.5029 L 119.719,-13.5266 L 119.536,-13.5734 L 119.361,-13.6427 L 119.196,-13.7335 L 119.044,-13.8442
 L 118.907,-13.9732 L 118.786,-14.1183 L 118.686,-14.2774 L 118.605,-14.4478 L 118.547,-14.627 L 118.512,-14.812
 L 118.5,-15 L 118.512,-15.188 L 118.547,-15.373 L 118.605,-15.5522 L 118.686,-15.7226 L 118.786,-15.8817
 L 118.907,-16.0268 L 119.044,-16.1558 L 119.196,-16.2665 L 119.361,-16.3572 L 119.536,-16.4266 L 119.719,-16.4734
 L 119.906,-16.497 L 120.094,-16.497 L 120.281,-16.4734 L 120.464,-16.4266 L 120.639,-16.3572 L 120.804,-16.2665
 L 120.956,-16.1558 L 121.093,-16.0268 L 121.214,-15.8817 L 121.314,-15.7226 L 121.395,-15.5522 L 121.453,-15.373
 L 121.488,-15.188 L 121.5,-15 L 121.488,-14.812 L 121.453,-14.627 L 121.395,-14.4478 L 121.314,-14.2774
 L 121.214,-14.1183 L 121.093,-13.9732 L 120.956,-13.8442 L 120.804,-13.7335 L 120.639,-13.6427 L 120.464,-13.5734
 L 120.281,-13.5266 L 120.094,-13.5029 z
M 119.812,-4.50591 L 119.438,-4.55313 L 119.073,-4.64682 L 118.723,-4.78551 L 118.393,-4.96701 L 118.088,-5.18845
 L 117.813,-5.44635 L 117.573,-5.73663 L 117.371,-6.05473 L 117.211,-6.39561 L 117.094,-6.75392 L 117.024,-7.12399
 L 117,-7.5 L 117.024,-7.87599 L 117.094,-8.24606 L 117.211,-8.60437 L 117.371,-8.94525 L 117.573,-9.26335
 L 117.813,-9.55363 L 118.088,-9.81154 L 118.393,-10.033 L 118.723,-10.2145 L 119.073,-10.3532 L 119.438,-10.4469
 L 119.812,-10.4941 L 120.188,-10.4941 L 120.562,-10.4469 L 120.927,-10.3532 L 121.277,-10.2145 L 121.607,-10.033
 L 121.912,-9.81154 L 122.187,-9.55363 L 122.427,-9.26335 L 122.629,-8.94525 L 122.789,-8.60437 L 122.906,-8.24606
 L 122.976,-7.87599 L 123,-7.5 L 122.976,-7.12399 L 122.906,-6.75392 L 122.789,-6.39561 L 122.629,-6.05473
 L 122.427,-5.73663 L 122.187,-5.44635 L 121.912,-5.18845 L 121.607,-4.96701 L 121.277,-4.78551 L 120.927,-4.64682
 L 120.562,-4.55313 L 120.188,-4.50591 z
M -120.188,-4.50591 L -120.562,-4.55313 L -120.927,-4.64682 L -121.277,-4.78551 L -121.607,-4.96701 L -121.912,-5.18845
 L -122.187,-5.44635 L -122.427,-5.73663 L -122.629,-6.05473 L -122.789,-6.39561 L -122.906,-6.75392 L -122.976,-7.12399
 L -123,-7.5 L -122.976,-7.87599 L -122.906,-8.24606 L -122.789,-8.60437 L -122.629,-8.94525 L -122.427,-9.26335
 L -122.187,-9.55363 L -121.912,-9.81154 L -121.607,-10.033 L -121.277,-10.2145 L -120.927,-10.3532 L -120.562,-10.4469
 L -120.188,-10.4941 L -119.812,-10.4941 L -119.438,-10.4469 L -119.073,-10.3532 L -118.723,-10.2145 L -118.393,-10.033
 L -118.088,-9.81154 L -117.813,-9.55363 L -117.573,-9.26335 L -117.371,-8.94525 L -117.211,-8.60437 L -117.094,-8.24606
 L -117.024,-7.87599 L -117,-7.5 L -117.024,-7.12399 L -117.094,-6.75392 L -117.211,-6.39561 L -117.371,-6.05473
 L -117.573,-5.73663 L -117.813,-5.44635 L -118.088,-5.18845 L -118.393,-4.96701 L -118.723,-4.78551 L -119.073,-4.64682
 L -119.438,-4.55313 L -119.812,-4.50591 z
M 119.906,1.49704 L 119.719,1.47342 L 119.536,1.42657 L 119.361,1.35724 L 119.196,1.26648 L 119.044,1.15576
 L 118.907,1.02681 L 118.786,0.881668 L 118.686,0.722626 L 118.605,0.552185 L 118.547,0.373032 L 118.512,0.187988
 L 118.5,-0 L 118.512,-0.187988 L 118.547,-0.373032 L 118.605,-0.552185 L 118.686,-0.722626 L 118.786,-0.881668
 L 118.907,-1.02681 L 119.044,-1.15576 L 119.196,-1.26648 L 119.361,-1.35724 L 119.536,-1.42657 L 119.719,-1.47342
 L 119.906,-1.49704 L 120.094,-1.49704 L 120.281,-1.47342 L 120.464,-1.42657 L 120.639,-1.35724 L 120.804,-1.26648
 L 120.956,-1.15576 L 121.093,-1.02681 L 121.214,-0.881668 L 121.314,-0.722626 L 121.395,-0.552185 L 121.453,-0.373032
 L 121.488,-0.187988 L 121.5,-0 L 121.488,0.187988 L 121.453,0.373032 L 121.395,0.552185 L 121.314,0.722626
 L 121.214,0.881668 L 121.093,1.02681 L 120.956,1.15576 L 120.804,1.26648 L 120.639,1.35724 L 120.464,1.42657
 L 120.281,1.47342 L 120.094,1.49704 z
M -120.094,1.49704 L -120.281,1.47342 L -120.464,1.42657 L -120.639,1.35724 L -120.804,1.26648 L -120.956,1.15576
 L -121.093,1.02681 L -121.214,0.881668 L -121.314,0.722626 L -121.395,0.552185 L -121.453,0.373032 L -121.488,0.187988
 L -121.5,-0 L -121.488,-0.187988 L -121.453,-0.373032 L -121.395,-0.552185 L -121.314,-0.722626 L -121.214,-0.881668
 L -121.093,-1.02681 L -120.956,-1.15576 L -120.804,-1.26648 L -120.639,-1.35724 L -120.464,-1.42657 L -120.281,-1.47342
 L -120.094,-1.49704 L -119.906,-1.49704 L -119.719,-1.47342 L -119.536,-1.42657 L -119.361,-1.35724 L -119.196,-1.26648
 L -119.044,-1.15576 L -118.907,-1.02681 L -118.786,-0.881668 L -118.686,-0.722626 L -118.605,-0.552185 L -118.547,-0.373032
 L -118.512,-0.187988 L -118.5,-0 L -118.512,0.187988 L -118.547,0.373032 L -118.605,0.552185 L -118.686,0.722626
 L -118.786,0.881668 L -118.907,1.02681 L -119.044,1.15576 L -119.196,1.26648 L -119.361,1.35724 L -119.536,1.42657
 L -119.719,1.47342 L -119.906,1.49704 z
M 119.812,10.4941 L 119.438,10.4469 L 119.073,10.3532 L 118.723,10.2145 L 118.393,10.033 L 118.088,9.81154
 L 117.813,9.55363 L 117.573,9.26335 L 117.371,8.94525 L 117.211,8.60437 L 117.094,8.24606 L 117.024,7.87599
 L 117,7.5 L 117.024,7.12399 L 117.094,6.75392 L 117.211,6.39561 L 117.371,6.05473 L 117.573,5.73663
 L 117.813,5.44635 L 118.088,5.18845 L 118.393,4.96701 L 118.723,4.78551 L 119.073,4.64682 L 119.438,4.55313
 L 119.812,4.50591 L 120.188,4.50591 L 120.562,4.55313 L 120.927,4.64682 L 121.277,4.78551 L 121.607,4.96701
 L 121.912,5.18845 L 122.187,5.44635 L 122.427,5.73663 L 122.629,6.05473 L 122.789,6.39561 L 122.906,6.75392
 L 122.976,7.12399 L 123,7.5 L 122.976,7.87599 L 122.906,8.24606 L 122.789,8.60437 L 122.629,8.94525
 L 122.427,9.26335 L 122.187,9.55363 L 121.912,9.81154 L 121.607,10.033 L 121.277,10.2145 L 120.927,10.3532
 L 120.562,10.4469 L 120.188,10.4941 z
M -120.188,10.4941 L -120.562,10.4469 L -120.927,10.3532 L -121.277,10.2145 L -121.607,10.033 L -121.912,9.81154
 L -122.187,9.55363 L -122.427,9.26335 L -122.629,8.94525 L -122.789,8.60437 L -122.906,8.24606 L -122.976,7.87599
 L -123,7.5 L -122.976,7.12399 L -122.906,6.75392 L -122.789,6.39561 L -122.629,6.05473 L -122.427,5.73663
 L -122.187,5.44635 L -121.912,5.18845 L -121.607,4.96701 L -121.277,4.78551 L -120.927,4.64682 L -120.562,4.55313
 L -120.188,4.50591 L -119.812,4.50591 L -119.438,4.55313 L -119.073,4.64682 L -118.723,4.78551 L -118.393,4.96701
 L -118.088,5.18845 L -117.813,5.44635 L -117.573,5.73663 L -117.371,6.05473 L -117.211,6.39561 L -117.094,6.75392
 L -117.024,7.12399 L -117,7.5 L -117.024,7.87599 L -117.094,8.24606 L -117.211,8.60437 L -117.371,8.94525
 L -117.573,9.26335 L -117.813,9.55363 L -118.088,9.81154 L -118.393,10.033 L -118.723,10.2145 L -119.073,10.3532
 L -119.438,10.4469 L -119.812,10.4941 z
M 119.906,16.497 L 119.719,16.4734 L 119.536,16.4266 L 119.361,16.3572 L 119.196,16.2665 L 119.044,16.1558
 L 118.907,16.0268 L 118.786,15.8817 L 118.686,15.7226 L 118.605,15.5522 L 118.547,15.373 L 118.512,15.188
 L 118.5,15 L 118.512,14.812 L 118.547,14.627 L 118.605,14.4478 L 118.686,14.2774 L 118.786,14.1183
 L 118.907,13.9732 L 119.044,13.8442 L 119.196,13.7335 L 119.361,13.6427 L 119.536,13.5734 L 119.719,13.5266
 L 119.906,13.5029 L 120.094,13.5029 L 120.281,13.5266 L 120.464,13.5734 L 120.639,13.6427 L 120.804,13.7335
 L 120.956,13.8442 L 121.093,13.9732 L 121.214,14.1183 L 121.314,14.2774 L 121.395,14.4478 L 121.453,14.627
 L 121.488,14.812 L 121.5,15 L 121.488,15.188 L 121.453,15.373 L 121.395,15.5522 L 121.314,15.7226
 L 121.214,15.8817 L 121.093,16.0268 L 120.956,16.1558 L 120.804,16.2665 L 120.639,16.3572 L 120.464,16.4266
 L 120.281,16.4734 L 120.094,16.497 z
M -120.094,16.497 L -120.281,16.4734 L -120.464,16.4266 L -120.639,16.3572 L -120.804,16.2665 L -120.956,16.1558
 L -121.093,16.0268 L -121.214,15.8817 L -121.314,15.7226 L -121.395,15.5522 L -121.453,15.373 L -121.488,15.188
 L -121.5,15 L -121.488,14.812 L -121.453,14.627 L -121.395,14.4478 L -121.314,14.2774 L -121.214,14.1183
 L -121.093,13.9732 L -120.956,13.8442 L -120.804,13.7335 L -120.639,13.6427 L -120.464,13.5734 L -120.281,13.5266
 L -120.094,13.5029 L -119.906,13.5029 L -119.719,13.5266 L -119.536,13.5734 L -119.361,13.6427 L -119.196,13.7335
 L -119.044,13.8442 L -118.907,13.9732 L -118.786,14.1183 L -118.686,14.2774 L -118.605,14.4478 L -118.547,14.627
 L -118.512,14.812 L -118.5,15 L -118.512,15.188 L -118.547,15.373 L -118.605,15.5522 L -118.686,15.7226
 L -118.786,15.8817 L -118.907,16.0268 L -119.044,16.1558 L -119.196,16.2665 L -119.361,16.3572 L -119.536,16.4266
 L -119.719,16.4734 L -119.906,16.497 z
M -120.188,25.4941 L -120.562,25.4469 L -120.927,25.3532 L -121.277,25.2145 L -121.607,25.033 L -121.912,24.8115
 L -122.187,24.5536 L -122.427,24.2634 L -122.629,23.9453 L -122.789,23.6044 L -122.906,23.2461 L -122.976,22.876
 L -123,22.5 L -122.976,22.124 L -122.906,21.7539 L -122.789,21.3956 L -122.629,21.0547 L -122.427,20.7366
 L -122.187,20.4464 L -121.912,20.1884 L -121.607,19.967 L -121.277,19.7855 L -120.927,19.6468 L -120.562,19.5531
 L -120.188,19.5059 L -119.812,19.5059 L -119.438,19.5531 L -119.073,19.6468 L -118.723,19.7855 L -118.393,19.967
 L -118.088,20.1884 L -117.813,20.4464 L -117.573,20.7366 L -117.371,21.0547 L -117.211,21.3956 L -117.094,21.7539
 L -117.024,22.124 L -117,22.5 L -117.024,22.876 L -117.094,23.2461 L -117.211,23.6044 L -117.371,23.9453
 L -117.573,24.2634 L -117.813,24.5536 L -118.088,24.8115 L -118.393,25.033 L -118.723,25.2145 L -119.073,25.3532
 L -119.438,25.4469 L -119.812,25.4941 z
M 119.812,25.4941 L 119.438,25.4469 L 119.073,25.3532 L 118.723,25.2145 L 118.393,25.033 L 118.088,24.8115
 L 117.813,24.5536 L 117.573,24.2634 L 117.371,23.9453 L 117.211,23.6044 L 117.094,23.2461 L 117.024,22.876
 L 117,22.5 L 117.024,22.124 L 117.094,21.7539 L 117.211,21.3956 L 117.371,21.0547 L 117.573,20.7366
 L 117.813,20.4464 L 118.088,20.1884 L 118.393,19.967 L 118.723,19.7855 L 119.073,19.6468 L 119.438,19.5531
 L 119.812,19.5059 L 120.188,19.5059 L 120.562,19.5531 L 120.927,19.6468 L 121.277,19.7855 L 121.607,19.967
 L 121.912,20.1884 L 122.187,20.4464 L 122.427,20.7366 L 122.629,21.0547 L 122.789,21.3956 L 122.906,21.7539
 L 122.976,22.124 L 123,22.5 L 122.976,22.876 L 122.906,23.2461 L 122.789,23.6044 L 122.629,23.9453
 L 122.427,24.2634 L 122.187,24.5536 L 121.912,24.8115 L 121.607,25.033 L 121.277,25.2145 L 120.927,25.3532
 L 120.562,25.4469 L 120.188,25.4941 z
M -120.094,31.497 L -120.281,31.4734 L -120.464,31.4266 L -120.639,31.3572 L -120.804,31.2665 L -120.956,31.1558
 L -121.093,31.0268 L -121.214,30.8817 L -121.314,30.7226 L -121.395,30.5522 L -121.453,30.373 L -121.488,30.188
 L -121.5,30 L -121.488,29.812 L -121.453,29.627 L -121.395,29.4478 L -121.314,29.2774 L -121.214,29.1183
 L -121.093,28.9732 L -120.956,28.8442 L -120.804,28.7335 L -120.639,28.6427 L -120.464,28.5734 L -120.281,28.5266
 L -120.094,28.503 L -119.906,28.503 L -119.719,28.5266 L -119.536,28.5734 L -119.361,28.6427 L -119.196,28.7335
 L -119.044,28.8442 L -118.907,28.9732 L -118.786,29.1183 L -118.686,29.2774 L -118.605,29.4478 L -118.547,29.627
 L -118.512,29.812 L -118.5,30 L -118.512,30.188 L -118.547,30.373 L -118.605,30.5522 L -118.686,30.7226
 L -118.786,30.8817 L -118.907,31.0268 L -119.044,31.1558 L -119.196,31.2665 L -119.361,31.3572 L -119.536,31.4266
 L -119.719,31.4734 L -119.906,31.497 z
M 119.906,31.497 L 119.719,31.4734 L 119.536,31.4266 L 119.361,31.3572 L 119.196,31.2665 L 119.044,31.1558
 L 118.907,31.0268 L 118.786,30.8817 L 118.686,30.7226 L 118.605,30.5522 L 118.547,30.373 L 118.512,30.188
 L 118.5,30 L 118.512,29.812 L 118.547,29.627 L 118.605,29.4478 L 118.686,29.2774 L 118.786,29.1183
 L 118.907,28.9732 L 119.044,28.8442 L 119.196,28.7335 L 119.361,28.6427 L 119.536,28.5734 L 119.719,28.5266
 L 119.906,28.503 L 120.094,28.503 L 120.281,28.5266 L 120.464,28.5734 L 120.639,28.6427 L 120.804,28.7335
 L 120.956,28.8442 L 121.093,28.9732 L 121.214,29.1183 L 121.314,29.2774 L 121.395,29.4478 L 121.453,29.627
 L 121.488,29.812 L 121.5,30 L 121.488,30.188 L 121.453,30.373 L 121.395,30.5522 L 121.314,30.7226
 L 121.214,30.8817 L 121.093,31.0268 L 120.956,31.1558 L 120.804,31.2665 L 120.639,31.3572 L 120.464,31.4266
 L 120.281,31.4734 L 120.094,31.497 z
M 119.812,40.4941 L 119.438,40.4469 L 119.073,40.3532 L 118.723,40.2145 L 118.393,40.033 L 118.088,39.8115
 L 117.813,39.5536 L 117.573,39.2634 L 117.371,38.9453 L 117.211,38.6044 L 117.094,38.2461 L 117.024,37.876
 L 117,37.5 L 117.024,37.124 L 117.094,36.7539 L 117.211,36.3956 L 117.371,36.0547 L 117.573,35.7366
 L 117.813,35.4464 L 118.088,35.1885 L 118.393,34.967 L 118.723,34.7855 L 119.073,34.6468 L 119.438,34.5531
 L 119.812,34.5059 L 120.188,34.5059 L 120.562,34.5531 L 120.927,34.6468 L 121.277,34.7855 L 121.607,34.967
 L 121.912,35.1885 L 122.187,35.4464 L 122.427,35.7366 L 122.629,36.0547 L 122.789,36.3956 L 122.906,36.7539
 L 122.976,37.124 L 123,37.5 L 122.976,37.876 L 122.906,38.2461 L 122.789,38.6044 L 122.629,38.9453
 L 122.427,39.2634 L 122.187,39.5536 L 121.912,39.8115 L 121.607,40.033 L 121.277,40.2145 L 120.927,40.3532
 L 120.562,40.4469 L 120.188,40.4941 z
M -120.188,40.4941 L -120.562,40.4469 L -120.927,40.3532 L -121.277,40.2145 L -121.607,40.033 L -121.912,39.8115
 L -122.187,39.5536 L -122.427,39.2634 L -122.629,38.9453 L -122.789,38.6044 L -122.906,38.2461 L -122.976,37.876
 L -123,37.5 L -122.976,37.124 L -122.906,36.7539 L -122.789,36.3956 L -122.629,36.0547 L -122.427,35.7366
 L -122.187,35.4464 L -121.912,35.1885 L -121.607,34.967 L -121.277,34.7855 L -120.927,34.6468 L -120.562,34.5531
 L -120.188,34.5059 L -119.812,34.5059 L -119.438,34.5531 L -119.073,34.6468 L -118.723,34.7855 L -118.393,34.967
 L -118.088,35.1885 L -117.813,35.4464 L -117.573,35.7366 L -117.371,36.0547 L -117.211,36.3956 L -117.094,36.7539
 L -117.024,37.124 L -117,37.5 L -117.024,37.876 L -117.094,38.2461 L -117.211,38.6044 L -117.371,38.9453
 L -117.573,39.2634 L -117.813,39.5536 L -118.088,39.8115 L -118.393,40.033 L -118.723,40.2145 L -119.073,40.3532
 L -119.438,40.4469 L -119.812,40.4941 z
" stroke="black" fill="lightgray" stroke-width="0.5"/>
</svg>
