  0
SECTION
  2
BLOCKS
  0
ENDSEC
  0
SECTION
  2
ENTITIES
  0
LINE
  8
0
 10
122.937
 20
-44.4114
 11
123.545
 21
-44.2553
  0
LINE
  8
0
 10
123.545
 20
-44.2553
 11
124.129
 21
-44.0241
  0
LINE
  8
0
 10
124.129
 20
-44.0241
 11
124.679
 21
-43.7216
  0
LINE
  8
0
 10
124.679
 20
-43.7216
 11
125.187
 21
-43.3526
  0
LINE
  8
0
 10
125.187
 20
-43.3526
 11
125.645
 21
-42.9227
  0
LINE
  8
0
 10
125.645
 20
-42.9227
 11
126.045
 21
-42.4389
  0
LINE
  8
0
 10
126.045
 20
-42.4389
 11
126.382
 21
-41.9088
  0
LINE
  8
0
 10
126.382
 20
-41.9088
 11
126.649
 21
-41.3406
  0
LINE
  8
0
 10
126.649
 20
-41.3406
 11
126.843
 21
-40.7434
  0
LINE
  8
0
 10
126.843
 20
-40.7434
 11
126.961
 21
-40.1267
  0
LINE
  8
0
 10
126.961
 20
-40.1267
 11
127
 21
-39.5
  0
LINE
  8
0
 10
127
 20
-39.5
 11
127
 21
39.5
  0
LINE
  8
0
 10
127
 20
39.5
 11
126.961
 21
40.1267
  0
LINE
  8
0
 10
126.961
 20
40.1267
 11
126.843
 21
40.7434
  0
LINE
  8
0
 10
126.843
 20
40.7434
 11
126.649
 21
41.3406
  0
LINE
  8
0
 10
126.649
 20
41.3406
 11
126.382
 21
41.9088
  0
LINE
  8
0
 10
126.382
 20
41.9088
 11
126.045
 21
42.4389
  0
LINE
  8
0
 10
126.045
 20
42.4389
 11
125.645
 21
42.9227
  0
LINE
  8
0
 10
125.645
 20
42.9227
 11
125.187
 21
43.3526
  0
LINE
  8
0
 10
125.187
 20
43.3526
 11
124.679
 21
43.7216
  0
LINE
  8
0
 10
124.679
 20
43.7216
 11
124.129
 21
44.0241
  0
LINE
  8
0
 10
124.129
 20
44.0241
 11
123.545
 21
44.2553
  0
LINE
  8
0
 10
123.545
 20
44.2553
 11
122.937
 21
44.4114
  0
LINE
  8
0
 10
122.937
 20
44.4114
 11
122.314
 21
44.4901
  0
LINE
  8
0
 10
122.314
 20
44.4901
 11
-122.314
 21
44.4901
  0
LINE
  8
0
 10
-122.314
 20
44.4901
 11
-122.937
 21
44.4114
  0
LINE
  8
0
 10
-122.937
 20
44.4114
 11
-123.545
 21
44.2553
  0
LINE
  8
0
 10
-123.545
 20
44.2553
 11
-124.129
 21
44.0241
  0
LINE
  8
0
 10
-124.129
 20
44.0241
 11
-124.679
 21
43.7216
  0
LINE
  8
0
 10
-124.679
 20
43.7216
 11
-125.187
 21
43.3526
  0
LINE
  8
0
 10
-125.187
 20
43.3526
 11
-125.645
 21
42.9227
  0
LINE
  8
0
 10
-125.645
 20
42.9227
 11
-126.045
 21
42.4389
  0
LINE
  8
0
 10
-126.045
 20
42.4389
 11
-126.382
 21
41.9088
  0
LINE
  8
0
 10
-126.382
 20
41.9088
 11
-126.649
 21
41.3406
  0
LINE
  8
0
 10
-126.649
 20
41.3406
 11
-126.843
 21
40.7434
  0
LINE
  8
0
 10
-126.843
 20
40.7434
 11
-126.961
 21
40.1267
  0
LINE
  8
0
 10
-126.961
 20
40.1267
 11
-127
 21
39.5
  0
LINE
  8
0
 10
-127
 20
39.5
 11
-127
 21
-39.5
  0
LINE
  8
0
 10
-127
 20
-39.5
 11
-126.961
 21
-40.1267
  0
LINE
  8
0
 10
-126.961
 20
-40.1267
 11
-126.843
 21
-40.7434
  0
LINE
  8
0
 10
-126.843
 20
-40.7434
 11
-126.649
 21
-41.3406
  0
LINE
  8
0
 10
-126.649
 20
-41.3406
 11
-126.382
 21
-41.9088
  0
LINE
  8
0
 10
-126.382
 20
-41.9088
 11
-126.045
 21
-42.4389
  0
LINE
  8
0
 10
-126.045
 20
-42.4389
 11
-125.645
 21
-42.9227
  0
LINE
  8
0
 10
-125.645
 20
-42.9227
 11
-125.187
 21
-43.3526
  0
LINE
  8
0
 10
-125.187
 20
-43.3526
 11
-124.679
 21
-43.7216
  0
LINE
  8
0
 10
-124.679
 20
-43.7216
 11
-124.129
 21
-44.0241
  0
LINE
  8
0
 10
-124.129
 20
-44.0241
 11
-123.545
 21
-44.2553
  0
LINE
  8
0
 10
-123.545
 20
-44.2553
 11
-122.937
 21
-44.4114
  0
LINE
  8
0
 10
-122.937
 20
-44.4114
 11
-122.314
 21
-44.4901
  0
LINE
  8
0
 10
-122.314
 20
-44.4901
 11
122.314
 21
-44.4901
  0
LINE
  8
0
 10
122.314
 20
-44.4901
 11
122.937
 21
-44.4114
  0
LINE
  8
0
 10
-120.188
 20
34.5059
 11
-120.562
 21
34.5531
  0
LINE
  8
0
 10
-120.562
 20
34.5531
 11
-120.927
 21
34.6468
  0
LINE
  8
0
 10
-120.927
 20
34.6468
 11
-121.277
 21
34.7855
  0
LINE
  8
0
 10
-121.277
 20
34.7855
 11
-121.607
 21
34.967
  0
LINE
  8
0
 10
-121.607
 20
34.967
 11
-121.912
 21
35.1885
  0
LINE
  8
0
 10
-121.912
 20
35.1885
 11
-122.187
 21
35.4464
  0
LINE
  8
0
 10
-122.187
 20
35.4464
 11
-122.427
 21
35.7366
  0
LINE
  8
0
 10
-122.427
 20
35.7366
 11
-122.629
 21
36.0547
  0
LINE
  8
0
 10
-122.629
 20
36.0547
 11
-122.789
 21
36.3956
  0
LINE
  8
0
 10
-122.789
 20
36.3956
 11
-122.906
 21
36.7539
  0
LINE
  8
0
 10
-122.906
 20
36.7539
 11
-122.976
 21
37.124
  0
LINE
  8
0
 10
-122.976
 20
37.124
 11
-123
 21
37.5
  0
LINE
  8
0
 10
-123
 20
37.5
 11
-122.976
 21
37.876
  0
LINE
  8
0
 10
-122.976
 20
37.876
 11
-122.906
 21
38.2461
  0
LINE
  8
0
 10
-122.906
 20
38.2461
 11
-122.789
 21
38.6044
  0
LINE
  8
0
 10
-122.789
 20
38.6044
 11
-122.629
 21
38.9453
  0
LINE
  8
0
 10
-122.629
 20
38.9453
 11
-122.427
 21
39.2634
  0
LINE
  8
0
 10
-122.427
 20
39.2634
 11
-122.187
 21
39.5536
  0
LINE
  8
0
 10
-122.187
 20
39.5536
 11
-121.912
 21
39.8115
  0
LINE
  8
0
 10
-121.912
 20
39.8115
 11
-121.607
 21
40.033
  0
LINE
  8
0
 10
-121.607
 20
40.033
 11
-121.277
 21
40.2145
  0
LINE
  8
0
 10
-121.277
 20
40.2145
 11
-120.927
 21
40.3532
  0
LINE
  8
0
 10
-120.927
 20
40.3532
 11
-120.562
 21
40.4469
  0
LINE
  8
0
 10
-120.562
 20
40.4469
 11
-120.188
 21
40.4941
  0
LINE
  8
0
 10
-120.188
 20
40.4941
 11
-119.812
 21
40.4941
  0
LINE
  8
0
 10
-119.812
 20
40.4941
 11
-119.438
 21
40.4469
  0
LINE
  8
0
 10
-119.438
 20
40.4469
 11
-119.073
 21
40.3532
  0
LINE
  8
0
 10
-119.073
 20
40.3532
 11
-118.723
 21
40.2145
  0
LINE
  8
0
 10
-118.723
 20
40.2145
 11
-118.393
 21
40.033
  0
LINE
  8
0
 10
-118.393
 20
40.033
 11
-118.088
 21
39.8115
  0
LINE
  8
0
 10
-118.088
 20
39.8115
 11
-117.813
 21
39.5536
  0
LINE
  8
0
 10
-117.813
 20
39.5536
 11
-117.573
 21
39.2634
  0
LINE
  8
0
 10
-117.573
 20
39.2634
 11
-117.371
 21
38.9453
  0
LINE
  8
0
 10
-117.371
 20
38.9453
 11
-117.211
 21
38.6044
  0
LINE
  8
0
 10
-117.211
 20
38.6044
 11
-117.094
 21
38.2461
  0
LINE
  8
0
 10
-117.094
 20
38.2461
 11
-117.024
 21
37.876
  0
LINE
  8
0
 10
-117.024
 20
37.876
 11
-117
 21
37.5
  0
LINE
  8
0
 10
-117
 20
37.5
 11
-117.024
 21
37.124
  0
LINE
  8
0
 10
-117.024
 20
37.124
 11
-117.094
 21
36.7539
  0
LINE
  8
0
 10
-117.094
 20
36.7539
 11
-117.211
 21
36.3956
  0
LINE
  8
0
 10
-117.211
 20
36.3956
 11
-117.371
 21
36.0547
  0
LINE
  8
0
 10
-117.371
 20
36.0547
 11
-117.573
 21
35.7366
  0
LINE
  8
0
 10
-117.573
 20
35.7366
 11
-117.813
 21
35.4464
  0
LINE
  8
0
 10
-117.813
 20
35.4464
 11
-118.088
 21
35.1885
  0
LINE
  8
0
 10
-118.088
 20
35.1885
 11
-118.393
 21
34.967
  0
LINE
  8
0
 10
-118.393
 20
34.967
 11
-118.723
 21
34.7855
  0
LINE
  8
0
 10
-118.723
 20
34.7855
 11
-119.073
 21
34.6468
  0
LINE
  8
0
 10
-119.073
 20
34.6468
 11
-119.438
 21
34.5531
  0
LINE
  8
0
 10
-119.438
 20
34.5531
 11
-119.812
 21
34.5059
  0
LINE
  8
0
 10
-119.812
 20
34.5059
 11
-120.188
 21
34.5059
  0
LINE
  8
0
 10
119.812
 20
34.5059
 11
119.438
 21
34.5531
  0
LINE
  8
0
 10
119.438
 20
34.5531
 11
119.073
 21
34.6468
  0
LINE
  8
0
 10
119.073
 20
34.6468
 11
118.723
 21
34.7855
  0
LINE
  8
0
 10
118.723
 20
34.7855
 11
118.393
 21
34.967
  0
LINE
  8
0
 10
118.393
 20
34.967
 11
118.088
 21
35.1885
  0
LINE
  8
0
 10
118.088
 20
35.1885
 11
117.813
 21
35.4464
  0
LINE
  8
0
 10
117.813
 20
35.4464
 11
117.573
 21
35.7366
  0
LINE
  8
0
 10
117.573
 20
35.7366
 11
117.371
 21
36.0547
  0
LINE
  8
0
 10
117.371
 20
36.0547
 11
117.211
 21
36.3956
  0
LINE
  8
0
 10
117.211
 20
36.3956
 11
117.094
 21
36.7539
  0
LINE
  8
0
 10
117.094
 20
36.7539
 11
117.024
 21
37.124
  0
LINE
  8
0
 10
117.024
 20
37.124
 11
117
 21
37.5
  0
LINE
  8
0
 10
117
 20
37.5
 11
117.024
 21
37.876
  0
LINE
  8
0
 10
117.024
 20
37.876
 11
117.094
 21
38.2461
  0
LINE
  8
0
 10
117.094
 20
38.2461
 11
117.211
 21
38.6044
  0
LINE
  8
0
 10
117.211
 20
38.6044
 11
117.371
 21
38.9453
  0
LINE
  8
0
 10
117.371
 20
38.9453
 11
117.573
 21
39.2634
  0
LINE
  8
0
 10
117.573
 20
39.2634
 11
117.813
 21
39.5536
  0
LINE
  8
0
 10
117.813
 20
39.5536
 11
118.088
 21
39.8115
  0
LINE
  8
0
 10
118.088
 20
39.8115
 11
118.393
 21
40.033
  0
LINE
  8
0
 10
118.393
 20
40.033
 11
118.723
 21
40.2145
  0
LINE
  8
0
 10
118.723
 20
40.2145
 11
119.073
 21
40.3532
  0
LINE
  8
0
 10
119.073
 20
40.3532
 11
119.438
 21
40.4469
  0
LINE
  8
0
 10
119.438
 20
40.4469
 11
119.812
 21
40.4941
  0
LINE
  8
0
 10
119.812
 20
40.4941
 11
120.188
 21
40.4941
  0
LINE
  8
0
 10
120.188
 20
40.4941
 11
120.562
 21
40.4469
  0
LINE
  8
0
 10
120.562
 20
40.4469
 11
120.927
 21
40.3532
  0
LINE
  8
0
 10
120.927
 20
40.3532
 11
121.277
 21
40.2145
  0
LINE
  8
0
 10
121.277
 20
40.2145
 11
121.607
 21
40.033
  0
LINE
  8
0
 10
121.607
 20
40.033
 11
121.912
 21
39.8115
  0
LINE
  8
0
 10
121.912
 20
39.8115
 11
122.187
 21
39.5536
  0
LINE
  8
0
 10
122.187
 20
39.5536
 11
122.427
 21
39.2634
  0
LINE
  8
0
 10
122.427
 20
39.2634
 11
122.629
 21
38.9453
  0
LINE
  8
0
 10
122.629
 20
38.9453
 11
122.789
 21
38.6044
  0
LINE
  8
0
 10
122.789
 20
38.6044
 11
122.906
 21
38.2461
  0
LINE
  8
0
 10
122.906
 20
38.2461
 11
122.976
 21
37.876
  0
LINE
  8
0
 10
122.976
 20
37.876
 11
123
 21
37.5
  0
LINE
  8
0
 10
123
 20
37.5
 11
122.976
 21
37.124
  0
LINE
  8
0
 10
122.976
 20
37.124
 11
122.906
 21
36.7539
  0
LINE
  8
0
 10
122.906
 20
36.7539
 11
122.789
 21
36.3956
  0
LINE
  8
0
 10
122.789
 20
36.3956
 11
122.629
 21
36.0547
  0
LINE
  8
0
 10
122.629
 20
36.0547
 11
122.427
 21
35.7366
  0
LINE
  8
0
 10
122.427
 20
35.7366
 11
122.187
 21
35.4464
  0
LINE
  8
0
 10
122.187
 20
35.4464
 11
121.912
 21
35.1885
  0
LINE
  8
0
 10
121.912
 20
35.1885
 11
121.607
 21
34.967
  0
LINE
  8
0
 10
121.607
 20
34.967
 11
121.277
 21
34.7855
  0
LINE
  8
0
 10
121.277
 20
34.7855
 11
120.927
 21
34.6468
  0
LINE
  8
0
 10
120.927
 20
34.6468
 11
120.562
 21
34.5531
  0
LINE
  8
0
 10
120.562
 20
34.5531
 11
120.188
 21
34.5059
  0
LINE
  8
0
 10
120.188
 20
34.5059
 11
119.812
 21
34.5059
  0
LINE
  8
0
 10
-2.26045
 20
-35.929
 11
-6.74571
 21
-35.3623
  0
LINE
  8
0
 10
-6.74571
 20
-35.3623
 11
-11.1246
 21
-34.238
  0
LINE
  8
0
 10
-11.1246
 20
-34.238
 11
-15.328
 21
-32.5738
  0
LINE
  8
0
 10
-15.328
 20
-32.5738
 11
-19.2898
 21
-30.3958
  0
LINE
  8
0
 10
-19.2898
 20
-30.3958
 11
-22.9473
 21
-27.7385
  0
LINE
  8
0
 10
-22.9473
 20
-27.7385
 11
-26.2429
 21
-24.6437
  0
LINE
  8
0
 10
-26.2429
 20
-24.6437
 11
-29.1246
 21
-21.1603
  0
LINE
  8
0
 10
-29.1246
 20
-21.1603
 11
-31.547
 21
-17.3431
  0
LINE
  8
0
 10
-31.547
 20
-17.3431
 11
-33.472
 21
-13.2525
  0
LINE
  8
0
 10
-33.472
 20
-13.2525
 11
-34.869
 21
-8.95284
  0
LINE
  8
0
 10
-34.869
 20
-8.95284
 11
-35.7161
 21
-4.51199
  0
LINE
  8
0
 10
-35.7161
 20
-4.51199
 11
-36
 21
0
  0
LINE
  8
0
 10
-36
 20
0
 11
-35.7161
 21
4.51199
  0
LINE
  8
0
 10
-35.7161
 20
4.51199
 11
-34.869
 21
8.95284
  0
LINE
  8
0
 10
-34.869
 20
8.95284
 11
-33.472
 21
13.2525
  0
LINE
  8
0
 10
-33.472
 20
13.2525
 11
-31.547
 21
17.3431
  0
LINE
  8
0
 10
-31.547
 20
17.3431
 11
-29.1246
 21
21.1603
  0
LINE
  8
0
 10
-29.1246
 20
21.1603
 11
-26.2429
 21
24.6437
  0
LINE
  8
0
 10
-26.2429
 20
24.6437
 11
-22.9473
 21
27.7385
  0
LINE
  8
0
 10
-22.9473
 20
27.7385
 11
-19.2898
 21
30.3958
  0
LINE
  8
0
 10
-19.2898
 20
30.3958
 11
-15.328
 21
32.5738
  0
LINE
  8
0
 10
-15.328
 20
32.5738
 11
-11.1246
 21
34.238
  0
LINE
  8
0
 10
-11.1246
 20
34.238
 11
-6.74571
 21
35.3623
  0
LINE
  8
0
 10
-6.74571
 20
35.3623
 11
-2.26045
 21
35.929
  0
LINE
  8
0
 10
-2.26045
 20
35.929
 11
2.26045
 21
35.929
  0
LINE
  8
0
 10
2.26045
 20
35.929
 11
6.74571
 21
35.3623
  0
LINE
  8
0
 10
6.74571
 20
35.3623
 11
11.1246
 21
34.238
  0
LINE
  8
0
 10
11.1246
 20
34.238
 11
15.328
 21
32.5738
  0
LINE
  8
0
 10
15.328
 20
32.5738
 11
19.2898
 21
30.3958
  0
LINE
  8
0
 10
19.2898
 20
30.3958
 11
22.9473
 21
27.7385
  0
LINE
  8
0
 10
22.9473
 20
27.7385
 11
26.2429
 21
24.6437
  0
LINE
  8
0
 10
26.2429
 20
24.6437
 11
29.1246
 21
21.1603
  0
LINE
  8
0
 10
29.1246
 20
21.1603
 11
31.547
 21
17.3431
  0
LINE
  8
0
 10
31.547
 20
17.3431
 11
33.472
 21
13.2525
  0
LINE
  8
0
 10
33.472
 20
13.2525
 11
34.869
 21
8.95284
  0
LINE
  8
0
 10
34.869
 20
8.95284
 11
35.7161
 21
4.51199
  0
LINE
  8
0
 10
35.7161
 20
4.51199
 11
36
 21
0
  0
LINE
  8
0
 10
36
 20
0
 11
35.7161
 21
-4.51199
  0
LINE
  8
0
 10
35.7161
 20
-4.51199
 11
34.869
 21
-8.95284
  0
LINE
  8
0
 10
34.869
 20
-8.95284
 11
33.472
 21
-13.2525
  0
LINE
  8
0
 10
33.472
 20
-13.2525
 11
31.547
 21
-17.3431
  0
LINE
  8
0
 10
31.547
 20
-17.3431
 11
29.1246
 21
-21.1603
  0
LINE
  8
0
 10
29.1246
 20
-21.1603
 11
26.2429
 21
-24.6437
  0
LINE
  8
0
 10
26.2429
 20
-24.6437
 11
22.9473
 21
-27.7385
  0
LINE
  8
0
 10
22.9473
 20
-27.7385
 11
19.2898
 21
-30.3958
  0
LINE
  8
0
 10
19.2898
 20
-30.3958
 11
15.328
 21
-32.5738
  0
LINE
  8
0
 10
15.328
 20
-32.5738
 11
11.1246
 21
-34.238
  0
LINE
  8
0
 10
11.1246
 20
-34.238
 11
6.74571
 21
-35.3623
  0
LINE
  8
0
 10
6.74571
 20
-35.3623
 11
2.26045
 21
-35.929
  0
LINE
  8
0
 10
2.26045
 20
-35.929
 11
-2.26045
 21
-35.929
  0
LINE
  8
0
 10
-79.2605
 20
-35.929
 11
-83.7457
 21
-35.3623
  0
LINE
  8
0
 10
-83.7457
 20
-35.3623
 11
-88.1246
 21
-34.238
  0
LINE
  8
0
 10
-88.1246
 20
-34.238
 11
-92.328
 21
-32.5738
  0
LINE
  8
0
 10
-92.328
 20
-32.5738
 11
-96.2898
 21
-30.3958
  0
LINE
  8
0
 10
-96.2898
 20
-30.3958
 11
-99.9473
 21
-27.7385
  0
LINE
  8
0
 10
-99.9473
 20
-27.7385
 11
-103.243
 21
-24.6437
  0
LINE
  8
0
 10
-103.243
 20
-24.6437
 11
-106.125
 21
-21.1603
  0
LINE
  8
0
 10
-106.125
 20
-21.1603
 11
-108.547
 21
-17.3431
  0
LINE
  8
0
 10
-108.547
 20
-17.3431
 11
-110.472
 21
-13.2525
  0
LINE
  8
0
 10
-110.472
 20
-13.2525
 11
-111.869
 21
-8.95284
  0
LINE
  8
0
 10
-111.869
 20
-8.95284
 11
-112.716
 21
-4.51199
  0
LINE
  8
0
 10
-112.716
 20
-4.51199
 11
-113
 21
0
  0
LINE
  8
0
 10
-113
 20
0
 11
-112.716
 21
4.51199
  0
LINE
  8
0
 10
-112.716
 20
4.51199
 11
-111.869
 21
8.95284
  0
LINE
  8
0
 10
-111.869
 20
8.95284
 11
-110.472
 21
13.2525
  0
LINE
  8
0
 10
-110.472
 20
13.2525
 11
-108.547
 21
17.3431
  0
LINE
  8
0
 10
-108.547
 20
17.3431
 11
-106.125
 21
21.1603
  0
LINE
  8
0
 10
-106.125
 20
21.1603
 11
-103.243
 21
24.6437
  0
LINE
  8
0
 10
-103.243
 20
24.6437
 11
-99.9473
 21
27.7385
  0
LINE
  8
0
 10
-99.9473
 20
27.7385
 11
-96.2898
 21
30.3958
  0
LINE
  8
0
 10
-96.2898
 20
30.3958
 11
-92.328
 21
32.5738
  0
LINE
  8
0
 10
-92.328
 20
32.5738
 11
-88.1246
 21
34.238
  0
LINE
  8
0
 10
-88.1246
 20
34.238
 11
-83.7457
 21
35.3623
  0
LINE
  8
0
 10
-83.7457
 20
35.3623
 11
-79.2605
 21
35.929
  0
LINE
  8
0
 10
-79.2605
 20
35.929
 11
-74.7395
 21
35.929
  0
LINE
  8
0
 10
-74.7395
 20
35.929
 11
-70.2543
 21
35.3623
  0
LINE
  8
0
 10
-70.2543
 20
35.3623
 11
-65.8754
 21
34.238
  0
LINE
  8
0
 10
-65.8754
 20
34.238
 11
-61.6719
 21
32.5738
  0
LINE
  8
0
 10
-61.6719
 20
32.5738
 11
-57.7102
 21
30.3958
  0
LINE
  8
0
 10
-57.7102
 20
30.3958
 11
-54.0527
 21
27.7385
  0
LINE
  8
0
 10
-54.0527
 20
27.7385
 11
-50.7571
 21
24.6437
  0
LINE
  8
0
 10
-50.7571
 20
24.6437
 11
-47.8754
 21
21.1603
  0
LINE
  8
0
 10
-47.8754
 20
21.1603
 11
-45.453
 21
17.3431
  0
LINE
  8
0
 10
-45.453
 20
17.3431
 11
-43.528
 21
13.2525
  0
LINE
  8
0
 10
-43.528
 20
13.2525
 11
-42.131
 21
8.95284
  0
LINE
  8
0
 10
-42.131
 20
8.95284
 11
-41.2839
 21
4.51199
  0
LINE
  8
0
 10
-41.2839
 20
4.51199
 11
-41
 21
0
  0
LINE
  8
0
 10
-41
 20
0
 11
-41.2839
 21
-4.51199
  0
LINE
  8
0
 10
-41.2839
 20
-4.51199
 11
-42.131
 21
-8.95284
  0
LINE
  8
0
 10
-42.131
 20
-8.95284
 11
-43.528
 21
-13.2525
  0
LINE
  8
0
 10
-43.528
 20
-13.2525
 11
-45.453
 21
-17.3431
  0
LINE
  8
0
 10
-45.453
 20
-17.3431
 11
-47.8754
 21
-21.1603
  0
LINE
  8
0
 10
-47.8754
 20
-21.1603
 11
-50.7571
 21
-24.6437
  0
LINE
  8
0
 10
-50.7571
 20
-24.6437
 11
-54.0527
 21
-27.7385
  0
LINE
  8
0
 10
-54.0527
 20
-27.7385
 11
-57.7102
 21
-30.3958
  0
LINE
  8
0
 10
-57.7102
 20
-30.3958
 11
-61.6719
 21
-32.5738
  0
LINE
  8
0
 10
-61.6719
 20
-32.5738
 11
-65.8754
 21
-34.238
  0
LINE
  8
0
 10
-65.8754
 20
-34.238
 11
-70.2543
 21
-35.3623
  0
LINE
  8
0
 10
-70.2543
 20
-35.3623
 11
-74.7395
 21
-35.929
  0
LINE
  8
0
 10
-74.7395
 20
-35.929
 11
-79.2605
 21
-35.929
  0
LINE
  8
0
 10
74.7395
 20
-35.929
 11
70.2543
 21
-35.3623
  0
LINE
  8
0
 10
70.2543
 20
-35.3623
 11
65.8754
 21
-34.238
  0
LINE
  8
0
 10
65.8754
 20
-34.238
 11
61.6719
 21
-32.5738
  0
LINE
  8
0
 10
61.6719
 20
-32.5738
 11
57.7102
 21
-30.3958
  0
LINE
  8
0
 10
57.7102
 20
-30.3958
 11
54.0527
 21
-27.7385
  0
LINE
  8
0
 10
54.0527
 20
-27.7385
 11
50.7571
 21
-24.6437
  0
LINE
  8
0
 10
50.7571
 20
-24.6437
 11
47.8754
 21
-21.1603
  0
LINE
  8
0
 10
47.8754
 20
-21.1603
 11
45.453
 21
-17.3431
  0
LINE
  8
0
 10
45.453
 20
-17.3431
 11
43.528
 21
-13.2525
  0
LINE
  8
0
 10
43.528
 20
-13.2525
 11
42.131
 21
-8.95284
  0
LINE
  8
0
 10
42.131
 20
-8.95284
 11
41.2839
 21
-4.51199
  0
LINE
  8
0
 10
41.2839
 20
-4.51199
 11
41
 21
0
  0
LINE
  8
0
 10
41
 20
0
 11
41.2839
 21
4.51199
  0
LINE
  8
0
 10
41.2839
 20
4.51199
 11
42.131
 21
8.95284
  0
LINE
  8
0
 10
42.131
 20
8.95284
 11
43.528
 21
13.2525
  0
LINE
  8
0
 10
43.528
 20
13.2525
 11
45.453
 21
17.3431
  0
LINE
  8
0
 10
45.453
 20
17.3431
 11
47.8754
 21
21.1603
  0
LINE
  8
0
 10
47.8754
 20
21.1603
 11
50.7571
 21
24.6437
  0
LINE
  8
0
 10
50.7571
 20
24.6437
 11
54.0527
 21
27.7385
  0
LINE
  8
0
 10
54.0527
 20
27.7385
 11
57.7102
 21
30.3958
  0
LINE
  8
0
 10
57.7102
 20
30.3958
 11
61.6719
 21
32.5738
  0
LINE
  8
0
 10
61.6719
 20
32.5738
 11
65.8754
 21
34.238
  0
LINE
  8
0
 10
65.8754
 20
34.238
 11
70.2543
 21
35.3623
  0
LINE
  8
0
 10
70.2543
 20
35.3623
 11
74.7395
 21
35.929
  0
LINE
  8
0
 10
74.7395
 20
35.929
 11
79.2605
 21
35.929
  0
LINE
  8
0
 10
79.2605
 20
35.929
 11
83.7457
 21
35.3623
  0
LINE
  8
0
 10
83.7457
 20
35.3623
 11
88.1246
 21
34.238
  0
LINE
  8
0
 10
88.1246
 20
34.238
 11
92.328
 21
32.5738
  0
LINE
  8
0
 10
92.328
 20
32.5738
 11
96.2898
 21
30.3958
  0
LINE
  8
0
 10
96.2898
 20
30.3958
 11
99.9473
 21
27.7385
  0
LINE
  8
0
 10
99.9473
 20
27.7385
 11
103.243
 21
24.6437
  0
LINE
  8
0
 10
103.243
 20
24.6437
 11
106.125
 21
21.1603
  0
LINE
  8
0
 10
106.125
 20
21.1603
 11
108.547
 21
17.3431
  0
LINE
  8
0
 10
108.547
 20
17.3431
 11
110.472
 21
13.2525
  0
LINE
  8
0
 10
110.472
 20
13.2525
 11
111.869
 21
8.95284
  0
LINE
  8
0
 10
111.869
 20
8.95284
 11
112.716
 21
4.51199
  0
LINE
  8
0
 10
112.716
 20
4.51199
 11
113
 21
0
  0
LINE
  8
0
 10
113
 20
0
 11
112.716
 21
-4.51199
  0
LINE
  8
0
 10
112.716
 20
-4.51199
 11
111.869
 21
-8.95284
  0
LINE
  8
0
 10
111.869
 20
-8.95284
 11
110.472
 21
-13.2525
  0
LINE
  8
0
 10
110.472
 20
-13.2525
 11
108.547
 21
-17.3431
  0
LINE
  8
0
 10
108.547
 20
-17.3431
 11
106.125
 21
-21.1603
  0
LINE
  8
0
 10
106.125
 20
-21.1603
 11
103.243
 21
-24.6437
  0
LINE
  8
0
 10
103.243
 20
-24.6437
 11
99.9473
 21
-27.7385
  0
LINE
  8
0
 10
99.9473
 20
-27.7385
 11
96.2898
 21
-30.3958
  0
LINE
  8
0
 10
96.2898
 20
-30.3958
 11
92.328
 21
-32.5738
  0
LINE
  8
0
 10
92.328
 20
-32.5738
 11
88.1246
 21
-34.238
  0
LINE
  8
0
 10
88.1246
 20
-34.238
 11
83.7457
 21
-35.3623
  0
LINE
  8
0
 10
83.7457
 20
-35.3623
 11
79.2605
 21
-35.929
  0
LINE
  8
0
 10
79.2605
 20
-35.929
 11
74.7395
 21
-35.929
  0
LINE
  8
0
 10
-120.094
 20
28.503
 11
-120.281
 21
28.5266
  0
LINE
  8
0
 10
-120.281
 20
28.5266
 11
-120.464
 21
28.5734
  0
LINE
  8
0
 10
-120.464
 20
28.5734
 11
-120.639
 21
28.6427
  0
LINE
  8
0
 10
-120.639
 20
28.6427
 11
-120.804
 21
28.7335
  0
LINE
  8
0
 10
-120.804
 20
28.7335
 11
-120.956
 21
28.8442
  0
LINE
  8
0
 10
-120.956
 20
28.8442
 11
-121.093
 21
28.9732
  0
LINE
  8
0
 10
-121.093
 20
28.9732
 11
-121.214
 21
29.1183
  0
LINE
  8
0
 10
-121.214
 20
29.1183
 11
-121.314
 21
29.2774
  0
LINE
  8
0
 10
-121.314
 20
29.2774
 11
-121.395
 21
29.4478
  0
LINE
  8
0
 10
-121.395
 20
29.4478
 11
-121.453
 21
29.627
  0
LINE
  8
0
 10
-121.453
 20
29.627
 11
-121.488
 21
29.812
  0
LINE
  8
0
 10
-121.488
 20
29.812
 11
-121.5
 21
30
  0
LINE
  8
0
 10
-121.5
 20
30
 11
-121.488
 21
30.188
  0
LINE
  8
0
 10
-121.488
 20
30.188
 11
-121.453
 21
30.373
  0
LINE
  8
0
 10
-121.453
 20
30.373
 11
-121.395
 21
30.5522
  0
LINE
  8
0
 10
-121.395
 20
30.5522
 11
-121.314
 21
30.7226
  0
LINE
  8
0
 10
-121.314
 20
30.7226
 11
-121.214
 21
30.8817
  0
LINE
  8
0
 10
-121.214
 20
30.8817
 11
-121.093
 21
31.0268
  0
LINE
  8
0
 10
-121.093
 20
31.0268
 11
-120.956
 21
31.1558
  0
LINE
  8
0
 10
-120.956
 20
31.1558
 11
-120.804
 21
31.2665
  0
LINE
  8
0
 10
-120.804
 20
31.2665
 11
-120.639
 21
31.3572
  0
LINE
  8
0
 10
-120.639
 20
31.3572
 11
-120.464
 21
31.4266
  0
LINE
  8
0
 10
-120.464
 20
31.4266
 11
-120.281
 21
31.4734
  0
LINE
  8
0
 10
-120.281
 20
31.4734
 11
-120.094
 21
31.497
  0
LINE
  8
0
 10
-120.094
 20
31.497
 11
-119.906
 21
31.497
  0
LINE
  8
0
 10
-119.906
 20
31.497
 11
-119.719
 21
31.4734
  0
LINE
  8
0
 10
-119.719
 20
31.4734
 11
-119.536
 21
31.4266
  0
LINE
  8
0
 10
-119.536
 20
31.4266
 11
-119.361
 21
31.3572
  0
LINE
  8
0
 10
-119.361
 20
31.3572
 11
-119.196
 21
31.2665
  0
LINE
  8
0
 10
-119.196
 20
31.2665
 11
-119.044
 21
31.1558
  0
LINE
  8
0
 10
-119.044
 20
31.1558
 11
-118.907
 21
31.0268
  0
LINE
  8
0
 10
-118.907
 20
31.0268
 11
-118.786
 21
30.8817
  0
LINE
  8
0
 10
-118.786
 20
30.8817
 11
-118.686
 21
30.7226
  0
LINE
  8
0
 10
-118.686
 20
30.7226
 11
-118.605
 21
30.5522
  0
LINE
  8
0
 10
-118.605
 20
30.5522
 11
-118.547
 21
30.373
  0
LINE
  8
0
 10
-118.547
 20
30.373
 11
-118.512
 21
30.188
  0
LINE
  8
0
 10
-118.512
 20
30.188
 11
-118.5
 21
30
  0
LINE
  8
0
 10
-118.5
 20
30
 11
-118.512
 21
29.812
  0
LINE
  8
0
 10
-118.512
 20
29.812
 11
-118.547
 21
29.627
  0
LINE
  8
0
 10
-118.547
 20
29.627
 11
-118.605
 21
29.4478
  0
LINE
  8
0
 10
-118.605
 20
29.4478
 11
-118.686
 21
29.2774
  0
LINE
  8
0
 10
-118.686
 20
29.2774
 11
-118.786
 21
29.1183
  0
LINE
  8
0
 10
-118.786
 20
29.1183
 11
-118.907
 21
28.9732
  0
LINE
  8
0
 10
-118.907
 20
28.9732
 11
-119.044
 21
28.8442
  0
LINE
  8
0
 10
-119.044
 20
28.8442
 11
-119.196
 21
28.7335
  0
LINE
  8
0
 10
-119.196
 20
28.7335
 11
-119.361
 21
28.6427
  0
LINE
  8
0
 10
-119.361
 20
28.6427
 11
-119.536
 21
28.5734
  0
LINE
  8
0
 10
-119.536
 20
28.5734
 11
-119.719
 21
28.5266
  0
LINE
  8
0
 10
-119.719
 20
28.5266
 11
-119.906
 21
28.503
  0
LINE
  8
0
 10
-119.906
 20
28.503
 11
-120.094
 21
28.503
  0
LINE
  8
0
 10
119.906
 20
28.503
 11
119.719
 21
28.5266
  0
LINE
  8
0
 10
119.719
 20
28.5266
 11
119.536
 21
28.5734
  0
LINE
  8
0
 10
119.536
 20
28.5734
 11
119.361
 21
28.6427
  0
LINE
  8
0
 10
119.361
 20
28.6427
 11
119.196
 21
28.7335
  0
LINE
  8
0
 10
119.196
 20
28.7335
 11
119.044
 21
28.8442
  0
LINE
  8
0
 10
119.044
 20
28.8442
 11
118.907
 21
28.9732
  0
LINE
  8
0
 10
118.907
 20
28.9732
 11
118.786
 21
29.1183
  0
LINE
  8
0
 10
118.786
 20
29.1183
 11
118.686
 21
29.2774
  0
LINE
  8
0
 10
118.686
 20
29.2774
 11
118.605
 21
29.4478
  0
LINE
  8
0
 10
118.605
 20
29.4478
 11
118.547
 21
29.627
  0
LINE
  8
0
 10
118.547
 20
29.627
 11
118.512
 21
29.812
  0
LINE
  8
0
 10
118.512
 20
29.812
 11
118.5
 21
30
  0
LINE
  8
0
 10
118.5
 20
30
 11
118.512
 21
30.188
  0
LINE
  8
0
 10
118.512
 20
30.188
 11
118.547
 21
30.373
  0
LINE
  8
0
 10
118.547
 20
30.373
 11
118.605
 21
30.5522
  0
LINE
  8
0
 10
118.605
 20
30.5522
 11
118.686
 21
30.7226
  0
LINE
  8
0
 10
118.686
 20
30.7226
 11
118.786
 21
30.8817
  0
LINE
  8
0
 10
118.786
 20
30.8817
 11
118.907
 21
31.0268
  0
LINE
  8
0
 10
118.907
 20
31.0268
 11
119.044
 21
31.1558
  0
LINE
  8
0
 10
119.044
 20
31.1558
 11
119.196
 21
31.2665
  0
LINE
  8
0
 10
119.196
 20
31.2665
 11
119.361
 21
31.3572
  0
LINE
  8
0
 10
119.361
 20
31.3572
 11
119.536
 21
31.4266
  0
LINE
  8
0
 10
119.536
 20
31.4266
 11
119.719
 21
31.4734
  0
LINE
  8
0
 10
119.719
 20
31.4734
 11
119.906
 21
31.497
  0
LINE
  8
0
 10
119.906
 20
31.497
 11
120.094
 21
31.497
  0
LINE
  8
0
 10
120.094
 20
31.497
 11
120.281
 21
31.4734
  0
LINE
  8
0
 10
120.281
 20
31.4734
 11
120.464
 21
31.4266
  0
LINE
  8
0
 10
120.464
 20
31.4266
 11
120.639
 21
31.3572
  0
LINE
  8
0
 10
120.639
 20
31.3572
 11
120.804
 21
31.2665
  0
LINE
  8
0
 10
120.804
 20
31.2665
 11
120.956
 21
31.1558
  0
LINE
  8
0
 10
120.956
 20
31.1558
 11
121.093
 21
31.0268
  0
LINE
  8
0
 10
121.093
 20
31.0268
 11
121.214
 21
30.8817
  0
LINE
  8
0
 10
121.214
 20
30.8817
 11
121.314
 21
30.7226
  0
LINE
  8
0
 10
121.314
 20
30.7226
 11
121.395
 21
30.5522
  0
LINE
  8
0
 10
121.395
 20
30.5522
 11
121.453
 21
30.373
  0
LINE
  8
0
 10
121.453
 20
30.373
 11
121.488
 21
30.188
  0
LINE
  8
0
 10
121.488
 20
30.188
 11
121.5
 21
30
  0
LINE
  8
0
 10
121.5
 20
30
 11
121.488
 21
29.812
  0
LINE
  8
0
 10
121.488
 20
29.812
 11
121.453
 21
29.627
  0
LINE
  8
0
 10
121.453
 20
29.627
 11
121.395
 21
29.4478
  0
LINE
  8
0
 10
121.395
 20
29.4478
 11
121.314
 21
29.2774
  0
LINE
  8
0
 10
121.314
 20
29.2774
 11
121.214
 21
29.1183
  0
LINE
  8
0
 10
121.214
 20
29.1183
 11
121.093
 21
28.9732
  0
LINE
  8
0
 10
121.093
 20
28.9732
 11
120.956
 21
28.8442
  0
LINE
  8
0
 10
120.956
 20
28.8442
 11
120.804
 21
28.7335
  0
LINE
  8
0
 10
120.804
 20
28.7335
 11
120.639
 21
28.6427
  0
LINE
  8
0
 10
120.639
 20
28.6427
 11
120.464
 21
28.5734
  0
LINE
  8
0
 10
120.464
 20
28.5734
 11
120.281
 21
28.5266
  0
LINE
  8
0
 10
120.281
 20
28.5266
 11
120.094
 21
28.503
  0
LINE
  8
0
 10
120.094
 20
28.503
 11
119.906
 21
28.503
  0
LINE
  8
0
 10
119.812
 20
19.5059
 11
119.438
 21
19.5531
  0
LINE
  8
0
 10
119.438
 20
19.5531
 11
119.073
 21
19.6468
  0
LINE
  8
0
 10
119.073
 20
19.6468
 11
118.723
 21
19.7855
  0
LINE
  8
0
 10
118.723
 20
19.7855
 11
118.393
 21
19.967
  0
LINE
  8
0
 10
118.393
 20
19.967
 11
118.088
 21
20.1884
  0
LINE
  8
0
 10
118.088
 20
20.1884
 11
117.813
 21
20.4464
  0
LINE
  8
0
 10
117.813
 20
20.4464
 11
117.573
 21
20.7366
  0
LINE
  8
0
 10
117.573
 20
20.7366
 11
117.371
 21
21.0547
  0
LINE
  8
0
 10
117.371
 20
21.0547
 11
117.211
 21
21.3956
  0
LINE
  8
0
 10
117.211
 20
21.3956
 11
117.094
 21
21.7539
  0
LINE
  8
0
 10
117.094
 20
21.7539
 11
117.024
 21
22.124
  0
LINE
  8
0
 10
117.024
 20
22.124
 11
117
 21
22.5
  0
LINE
  8
0
 10
117
 20
22.5
 11
117.024
 21
22.876
  0
LINE
  8
0
 10
117.024
 20
22.876
 11
117.094
 21
23.2461
  0
LINE
  8
0
 10
117.094
 20
23.2461
 11
117.211
 21
23.6044
  0
LINE
  8
0
 10
117.211
 20
23.6044
 11
117.371
 21
23.9453
  0
LINE
  8
0
 10
117.371
 20
23.9453
 11
117.573
 21
24.2634
  0
LINE
  8
0
 10
117.573
 20
24.2634
 11
117.813
 21
24.5536
  0
LINE
  8
0
 10
117.813
 20
24.5536
 11
118.088
 21
24.8115
  0
LINE
  8
0
 10
118.088
 20
24.8115
 11
118.393
 21
25.033
  0
LINE
  8
0
 10
118.393
 20
25.033
 11
118.723
 21
25.2145
  0
LINE
  8
0
 10
118.723
 20
25.2145
 11
119.073
 21
25.3532
  0
LINE
  8
0
 10
119.073
 20
25.3532
 11
119.438
 21
25.4469
  0
LINE
  8
0
 10
119.438
 20
25.4469
 11
119.812
 21
25.4941
  0
LINE
  8
0
 10
119.812
 20
25.4941
 11
120.188
 21
25.4941
  0
LINE
  8
0
 10
120.188
 20
25.4941
 11
120.562
 21
25.4469
  0
LINE
  8
0
 10
120.562
 20
25.4469
 11
120.927
 21
25.3532
  0
LINE
  8
0
 10
120.927
 20
25.3532
 11
121.277
 21
25.2145
  0
LINE
  8
0
 10
121.277
 20
25.2145
 11
121.607
 21
25.033
  0
LINE
  8
0
 10
121.607
 20
25.033
 11
121.912
 21
24.8115
  0
LINE
  8
0
 10
121.912
 20
24.8115
 11
122.187
 21
24.5536
  0
LINE
  8
0
 10
122.187
 20
24.5536
 11
122.427
 21
24.2634
  0
LINE
  8
0
 10
122.427
 20
24.2634
 11
122.629
 21
23.9453
  0
LINE
  8
0
 10
122.629
 20
23.9453
 11
122.789
 21
23.6044
  0
LINE
  8
0
 10
122.789
 20
23.6044
 11
122.906
 21
23.2461
  0
LINE
  8
0
 10
122.906
 20
23.2461
 11
122.976
 21
22.876
  0
LINE
  8
0
 10
122.976
 20
22.876
 11
123
 21
22.5
  0
LINE
  8
0
 10
123
 20
22.5
 11
122.976
 21
22.124
  0
LINE
  8
0
 10
122.976
 20
22.124
 11
122.906
 21
21.7539
  0
LINE
  8
0
 10
122.906
 20
21.7539
 11
122.789
 21
21.3956
  0
LINE
  8
0
 10
122.789
 20
21.3956
 11
122.629
 21
21.0547
  0
LINE
  8
0
 10
122.629
 20
21.0547
 11
122.427
 21
20.7366
  0
LINE
  8
0
 10
122.427
 20
20.7366
 11
122.187
 21
20.4464
  0
LINE
  8
0
 10
122.187
 20
20.4464
 11
121.912
 21
20.1884
  0
LINE
  8
0
 10
121.912
 20
20.1884
 11
121.607
 21
19.967
  0
LINE
  8
0
 10
121.607
 20
19.967
 11
121.277
 21
19.7855
  0
LINE
  8
0
 10
121.277
 20
19.7855
 11
120.927
 21
19.6468
  0
LINE
  8
0
 10
120.927
 20
19.6468
 11
120.562
 21
19.5531
  0
LINE
  8
0
 10
120.562
 20
19.5531
 11
120.188
 21
19.5059
  0
LINE
  8
0
 10
120.188
 20
19.5059
 11
119.812
 21
19.5059
  0
LINE
  8
0
 10
-120.188
 20
19.5059
 11
-120.562
 21
19.5531
  0
LINE
  8
0
 10
-120.562
 20
19.5531
 11
-120.927
 21
19.6468
  0
LINE
  8
0
 10
-120.927
 20
19.6468
 11
-121.277
 21
19.7855
  0
LINE
  8
0
 10
-121.277
 20
19.7855
 11
-121.607
 21
19.967
  0
LINE
  8
0
 10
-121.607
 20
19.967
 11
-121.912
 21
20.1884
  0
LINE
  8
0
 10
-121.912
 20
20.1884
 11
-122.187
 21
20.4464
  0
LINE
  8
0
 10
-122.187
 20
20.4464
 11
-122.427
 21
20.7366
  0
LINE
  8
0
 10
-122.427
 20
20.7366
 11
-122.629
 21
21.0547
  0
LINE
  8
0
 10
-122.629
 20
21.0547
 11
-122.789
 21
21.3956
  0
LINE
  8
0
 10
-122.789
 20
21.3956
 11
-122.906
 21
21.7539
  0
LINE
  8
0
 10
-122.906
 20
21.7539
 11
-122.976
 21
22.124
  0
LINE
  8
0
 10
-122.976
 20
22.124
 11
-123
 21
22.5
  0
LINE
  8
0
 10
-123
 20
22.5
 11
-122.976
 21
22.876
  0
LINE
  8
0
 10
-122.976
 20
22.876
 11
-122.906
 21
23.2461
  0
LINE
  8
0
 10
-122.906
 20
23.2461
 11
-122.789
 21
23.6044
  0
LINE
  8
0
 10
-122.789
 20
23.6044
 11
-122.629
 21
23.9453
  0
LINE
  8
0
 10
-122.629
 20
23.9453
 11
-122.427
 21
24.2634
  0
LINE
  8
0
 10
-122.427
 20
24.2634
 11
-122.187
 21
24.5536
  0
LINE
  8
0
 10
-122.187
 20
24.5536
 11
-121.912
 21
24.8115
  0
LINE
  8
0
 10
-121.912
 20
24.8115
 11
-121.607
 21
25.033
  0
LINE
  8
0
 10
-121.607
 20
25.033
 11
-121.277
 21
25.2145
  0
LINE
  8
0
 10
-121.277
 20
25.2145
 11
-120.927
 21
25.3532
  0
LINE
  8
0
 10
-120.927
 20
25.3532
 11
-120.562
 21
25.4469
  0
LINE
  8
0
 10
-120.562
 20
25.4469
 11
-120.188
 21
25.4941
  0
LINE
  8
0
 10
-120.188
 20
25.4941
 11
-119.812
 21
25.4941
  0
LINE
  8
0
 10
-119.812
 20
25.4941
 11
-119.438
 21
25.4469
  0
LINE
  8
0
 10
-119.438
 20
25.4469
 11
-119.073
 21
25.3532
  0
LINE
  8
0
 10
-119.073
 20
25.3532
 11
-118.723
 21
25.2145
  0
LINE
  8
0
 10
-118.723
 20
25.2145
 11
-118.393
 21
25.033
  0
LINE
  8
0
 10
-118.393
 20
25.033
 11
-118.088
 21
24.8115
  0
LINE
  8
0
 10
-118.088
 20
24.8115
 11
-117.813
 21
24.5536
  0
LINE
  8
0
 10
-117.813
 20
24.5536
 11
-117.573
 21
24.2634
  0
LINE
  8
0
 10
-117.573
 20
24.2634
 11
-117.371
 21
23.9453
  0
LINE
  8
0
 10
-117.371
 20
23.9453
 11
-117.211
 21
23.6044
  0
LINE
  8
0
 10
-117.211
 20
23.6044
 11
-117.094
 21
23.2461
  0
LINE
  8
0
 10
-117.094
 20
23.2461
 11
-117.024
 21
22.876
  0
LINE
  8
0
 10
-117.024
 20
22.876
 11
-117
 21
22.5
  0
LINE
  8
0
 10
-117
 20
22.5
 11
-117.024
 21
22.124
  0
LINE
  8
0
 10
-117.024
 20
22.124
 11
-117.094
 21
21.7539
  0
LINE
  8
0
 10
-117.094
 20
21.7539
 11
-117.211
 21
21.3956
  0
LINE
  8
0
 10
-117.211
 20
21.3956
 11
-117.371
 21
21.0547
  0
LINE
  8
0
 10
-117.371
 20
21.0547
 11
-117.573
 21
20.7366
  0
LINE
  8
0
 10
-117.573
 20
20.7366
 11
-117.813
 21
20.4464
  0
LINE
  8
0
 10
-117.813
 20
20.4464
 11
-118.088
 21
20.1884
  0
LINE
  8
0
 10
-118.088
 20
20.1884
 11
-118.393
 21
19.967
  0
LINE
  8
0
 10
-118.393
 20
19.967
 11
-118.723
 21
19.7855
  0
LINE
  8
0
 10
-118.723
 20
19.7855
 11
-119.073
 21
19.6468
  0
LINE
  8
0
 10
-119.073
 20
19.6468
 11
-119.438
 21
19.5531
  0
LINE
  8
0
 10
-119.438
 20
19.5531
 11
-119.812
 21
19.5059
  0
LINE
  8
0
 10
-119.812
 20
19.5059
 11
-120.188
 21
19.5059
  0
LINE
  8
0
 10
-120.094
 20
13.5029
 11
-120.281
 21
13.5266
  0
LINE
  8
0
 10
-120.281
 20
13.5266
 11
-120.464
 21
13.5734
  0
LINE
  8
0
 10
-120.464
 20
13.5734
 11
-120.639
 21
13.6427
  0
LINE
  8
0
 10
-120.639
 20
13.6427
 11
-120.804
 21
13.7335
  0
LINE
  8
0
 10
-120.804
 20
13.7335
 11
-120.956
 21
13.8442
  0
LINE
  8
0
 10
-120.956
 20
13.8442
 11
-121.093
 21
13.9732
  0
LINE
  8
0
 10
-121.093
 20
13.9732
 11
-121.214
 21
14.1183
  0
LINE
  8
0
 10
-121.214
 20
14.1183
 11
-121.314
 21
14.2774
  0
LINE
  8
0
 10
-121.314
 20
14.2774
 11
-121.395
 21
14.4478
  0
LINE
  8
0
 10
-121.395
 20
14.4478
 11
-121.453
 21
14.627
  0
LINE
  8
0
 10
-121.453
 20
14.627
 11
-121.488
 21
14.812
  0
LINE
  8
0
 10
-121.488
 20
14.812
 11
-121.5
 21
15
  0
LINE
  8
0
 10
-121.5
 20
15
 11
-121.488
 21
15.188
  0
LINE
  8
0
 10
-121.488
 20
15.188
 11
-121.453
 21
15.373
  0
LINE
  8
0
 10
-121.453
 20
15.373
 11
-121.395
 21
15.5522
  0
LINE
  8
0
 10
-121.395
 20
15.5522
 11
-121.314
 21
15.7226
  0
LINE
  8
0
 10
-121.314
 20
15.7226
 11
-121.214
 21
15.8817
  0
LINE
  8
0
 10
-121.214
 20
15.8817
 11
-121.093
 21
16.0268
  0
LINE
  8
0
 10
-121.093
 20
16.0268
 11
-120.956
 21
16.1558
  0
LINE
  8
0
 10
-120.956
 20
16.1558
 11
-120.804
 21
16.2665
  0
LINE
  8
0
 10
-120.804
 20
16.2665
 11
-120.639
 21
16.3572
  0
LINE
  8
0
 10
-120.639
 20
16.3572
 11
-120.464
 21
16.4266
  0
LINE
  8
0
 10
-120.464
 20
16.4266
 11
-120.281
 21
16.4734
  0
LINE
  8
0
 10
-120.281
 20
16.4734
 11
-120.094
 21
16.497
  0
LINE
  8
0
 10
-120.094
 20
16.497
 11
-119.906
 21
16.497
  0
LINE
  8
0
 10
-119.906
 20
16.497
 11
-119.719
 21
16.4734
  0
LINE
  8
0
 10
-119.719
 20
16.4734
 11
-119.536
 21
16.4266
  0
LINE
  8
0
 10
-119.536
 20
16.4266
 11
-119.361
 21
16.3572
  0
LINE
  8
0
 10
-119.361
 20
16.3572
 11
-119.196
 21
16.2665
  0
LINE
  8
0
 10
-119.196
 20
16.2665
 11
-119.044
 21
16.1558
  0
LINE
  8
0
 10
-119.044
 20
16.1558
 11
-118.907
 21
16.0268
  0
LINE
  8
0
 10
-118.907
 20
16.0268
 11
-118.786
 21
15.8817
  0
LINE
  8
0
 10
-118.786
 20
15.8817
 11
-118.686
 21
15.7226
  0
LINE
  8
0
 10
-118.686
 20
15.7226
 11
-118.605
 21
15.5522
  0
LINE
  8
0
 10
-118.605
 20
15.5522
 11
-118.547
 21
15.373
  0
LINE
  8
0
 10
-118.547
 20
15.373
 11
-118.512
 21
15.188
  0
LINE
  8
0
 10
-118.512
 20
15.188
 11
-118.5
 21
15
  0
LINE
  8
0
 10
-118.5
 20
15
 11
-118.512
 21
14.812
  0
LINE
  8
0
 10
-118.512
 20
14.812
 11
-118.547
 21
14.627
  0
LINE
  8
0
 10
-118.547
 20
14.627
 11
-118.605
 21
14.4478
  0
LINE
  8
0
 10
-118.605
 20
14.4478
 11
-118.686
 21
14.2774
  0
LINE
  8
0
 10
-118.686
 20
14.2774
 11
-118.786
 21
14.1183
  0
LINE
  8
0
 10
-118.786
 20
14.1183
 11
-118.907
 21
13.9732
  0
LINE
  8
0
 10
-118.907
 20
13.9732
 11
-119.044
 21
13.8442
  0
LINE
  8
0
 10
-119.044
 20
13.8442
 11
-119.196
 21
13.7335
  0
LINE
  8
0
 10
-119.196
 20
13.7335
 11
-119.361
 21
13.6427
  0
LINE
  8
0
 10
-119.361
 20
13.6427
 11
-119.536
 21
13.5734
  0
LINE
  8
0
 10
-119.536
 20
13.5734
 11
-119.719
 21
13.5266
  0
LINE
  8
0
 10
-119.719
 20
13.5266
 11
-119.906
 21
13.5029
  0
LINE
  8
0
 10
-119.906
 20
13.5029
 11
-120.094
 21
13.5029
  0
LINE
  8
0
 10
119.906
 20
13.5029
 11
119.719
 21
13.5266
  0
LINE
  8
0
 10
119.719
 20
13.5266
 11
119.536
 21
13.5734
  0
LINE
  8
0
 10
119.536
 20
13.5734
 11
119.361
 21
13.6427
  0
LINE
  8
0
 10
119.361
 20
13.6427
 11
119.196
 21
13.7335
  0
LINE
  8
0
 10
119.196
 20
13.7335
 11
119.044
 21
13.8442
  0
LINE
  8
0
 10
119.044
 20
13.8442
 11
118.907
 21
13.9732
  0
LINE
  8
0
 10
118.907
 20
13.9732
 11
118.786
 21
14.1183
  0
LINE
  8
0
 10
118.786
 20
14.1183
 11
118.686
 21
14.2774
  0
LINE
  8
0
 10
118.686
 20
14.2774
 11
118.605
 21
14.4478
  0
LINE
  8
0
 10
118.605
 20
14.4478
 11
118.547
 21
14.627
  0
LINE
  8
0
 10
118.547
 20
14.627
 11
118.512
 21
14.812
  0
LINE
  8
0
 10
118.512
 20
14.812
 11
118.5
 21
15
  0
LINE
  8
0
 10
118.5
 20
15
 11
118.512
 21
15.188
  0
LINE
  8
0
 10
118.512
 20
15.188
 11
118.547
 21
15.373
  0
LINE
  8
0
 10
118.547
 20
15.373
 11
118.605
 21
15.5522
  0
LINE
  8
0
 10
118.605
 20
15.5522
 11
118.686
 21
15.7226
  0
LINE
  8
0
 10
118.686
 20
15.7226
 11
118.786
 21
15.8817
  0
LINE
  8
0
 10
118.786
 20
15.8817
 11
118.907
 21
16.0268
  0
LINE
  8
0
 10
118.907
 20
16.0268
 11
119.044
 21
16.1558
  0
LINE
  8
0
 10
119.044
 20
16.1558
 11
119.196
 21
16.2665
  0
LINE
  8
0
 10
119.196
 20
16.2665
 11
119.361
 21
16.3572
  0
LINE
  8
0
 10
119.361
 20
16.3572
 11
119.536
 21
16.4266
  0
LINE
  8
0
 10
119.536
 20
16.4266
 11
119.719
 21
16.4734
  0
LINE
  8
0
 10
119.719
 20
16.4734
 11
119.906
 21
16.497
  0
LINE
  8
0
 10
119.906
 20
16.497
 11
120.094
 21
16.497
  0
LINE
  8
0
 10
120.094
 20
16.497
 11
120.281
 21
16.4734
  0
LINE
  8
0
 10
120.281
 20
16.4734
 11
120.464
 21
16.4266
  0
LINE
  8
0
 10
120.464
 20
16.4266
 11
120.639
 21
16.3572
  0
LINE
  8
0
 10
120.639
 20
16.3572
 11
120.804
 21
16.2665
  0
LINE
  8
0
 10
120.804
 20
16.2665
 11
120.956
 21
16.1558
  0
LINE
  8
0
 10
120.956
 20
16.1558
 11
121.093
 21
16.0268
  0
LINE
  8
0
 10
121.093
 20
16.0268
 11
121.214
 21
15.8817
  0
LINE
  8
0
 10
121.214
 20
15.8817
 11
121.314
 21
15.7226
  0
LINE
  8
0
 10
121.314
 20
15.7226
 11
121.395
 21
15.5522
  0
LINE
  8
0
 10
121.395
 20
15.5522
 11
121.453
 21
15.373
  0
LINE
  8
0
 10
121.453
 20
15.373
 11
121.488
 21
15.188
  0
LINE
  8
0
 10
121.488
 20
15.188
 11
121.5
 21
15
  0
LINE
  8
0
 10
121.5
 20
15
 11
121.488
 21
14.812
  0
LINE
  8
0
 10
121.488
 20
14.812
 11
121.453
 21
14.627
  0
LINE
  8
0
 10
121.453
 20
14.627
 11
121.395
 21
14.4478
  0
LINE
  8
0
 10
121.395
 20
14.4478
 11
121.314
 21
14.2774
  0
LINE
  8
0
 10
121.314
 20
14.2774
 11
121.214
 21
14.1183
  0
LINE
  8
0
 10
121.214
 20
14.1183
 11
121.093
 21
13.9732
  0
LINE
  8
0
 10
121.093
 20
13.9732
 11
120.956
 21
13.8442
  0
LINE
  8
0
 10
120.956
 20
13.8442
 11
120.804
 21
13.7335
  0
LINE
  8
0
 10
120.804
 20
13.7335
 11
120.639
 21
13.6427
  0
LINE
  8
0
 10
120.639
 20
13.6427
 11
120.464
 21
13.5734
  0
LINE
  8
0
 10
120.464
 20
13.5734
 11
120.281
 21
13.5266
  0
LINE
  8
0
 10
120.281
 20
13.5266
 11
120.094
 21
13.5029
  0
LINE
  8
0
 10
120.094
 20
13.5029
 11
119.906
 21
13.5029
  0
LINE
  8
0
 10
119.812
 20
4.50591
 11
119.438
 21
4.55313
  0
LINE
  8
0
 10
119.438
 20
4.55313
 11
119.073
 21
4.64682
  0
LINE
  8
0
 10
119.073
 20
4.64682
 11
118.723
 21
4.78551
  0
LINE
  8
0
 10
118.723
 20
4.78551
 11
118.393
 21
4.96701
  0
LINE
  8
0
 10
118.393
 20
4.96701
 11
118.088
 21
5.18845
  0
LINE
  8
0
 10
118.088
 20
5.18845
 11
117.813
 21
5.44635
  0
LINE
  8
0
 10
117.813
 20
5.44635
 11
117.573
 21
5.73663
  0
LINE
  8
0
 10
117.573
 20
5.73663
 11
117.371
 21
6.05473
  0
LINE
  8
0
 10
117.371
 20
6.05473
 11
117.211
 21
6.39561
  0
LINE
  8
0
 10
117.211
 20
6.39561
 11
117.094
 21
6.75392
  0
LINE
  8
0
 10
117.094
 20
6.75392
 11
117.024
 21
7.12399
  0
LINE
  8
0
 10
117.024
 20
7.12399
 11
117
 21
7.5
  0
LINE
  8
0
 10
117
 20
7.5
 11
117.024
 21
7.87599
  0
LINE
  8
0
 10
117.024
 20
7.87599
 11
117.094
 21
8.24606
  0
LINE
  8
0
 10
117.094
 20
8.24606
 11
117.211
 21
8.60437
  0
LINE
  8
0
 10
117.211
 20
8.60437
 11
117.371
 21
8.94525
  0
LINE
  8
0
 10
117.371
 20
8.94525
 11
117.573
 21
9.26335
  0
LINE
  8
0
 10
117.573
 20
9.26335
 11
117.813
 21
9.55363
  0
LINE
  8
0
 10
117.813
 20
9.55363
 11
118.088
 21
9.81154
  0
LINE
  8
0
 10
118.088
 20
9.81154
 11
118.393
 21
10.033
  0
LINE
  8
0
 10
118.393
 20
10.033
 11
118.723
 21
10.2145
  0
LINE
  8
0
 10
118.723
 20
10.2145
 11
119.073
 21
10.3532
  0
LINE
  8
0
 10
119.073
 20
10.3532
 11
119.438
 21
10.4469
  0
LINE
  8
0
 10
119.438
 20
10.4469
 11
119.812
 21
10.4941
  0
LINE
  8
0
 10
119.812
 20
10.4941
 11
120.188
 21
10.4941
  0
LINE
  8
0
 10
120.188
 20
10.4941
 11
120.562
 21
10.4469
  0
LINE
  8
0
 10
120.562
 20
10.4469
 11
120.927
 21
10.3532
  0
LINE
  8
0
 10
120.927
 20
10.3532
 11
121.277
 21
10.2145
  0
LINE
  8
0
 10
121.277
 20
10.2145
 11
121.607
 21
10.033
  0
LINE
  8
0
 10
121.607
 20
10.033
 11
121.912
 21
9.81154
  0
LINE
  8
0
 10
121.912
 20
9.81154
 11
122.187
 21
9.55363
  0
LINE
  8
0
 10
122.187
 20
9.55363
 11
122.427
 21
9.26335
  0
LINE
  8
0
 10
122.427
 20
9.26335
 11
122.629
 21
8.94525
  0
LINE
  8
0
 10
122.629
 20
8.94525
 11
122.789
 21
8.60437
  0
LINE
  8
0
 10
122.789
 20
8.60437
 11
122.906
 21
8.24606
  0
LINE
  8
0
 10
122.906
 20
8.24606
 11
122.976
 21
7.87599
  0
LINE
  8
0
 10
122.976
 20
7.87599
 11
123
 21
7.5
  0
LINE
  8
0
 10
123
 20
7.5
 11
122.976
 21
7.12399
  0
LINE
  8
0
 10
122.976
 20
7.12399
 11
122.906
 21
6.75392
  0
LINE
  8
0
 10
122.906
 20
6.75392
 11
122.789
 21
6.39561
  0
LINE
  8
0
 10
122.789
 20
6.39561
 11
122.629
 21
6.05473
  0
LINE
  8
0
 10
122.629
 20
6.05473
 11
122.427
 21
5.73663
  0
LINE
  8
0
 10
122.427
 20
5.73663
 11
122.187
 21
5.44635
  0
LINE
  8
0
 10
122.187
 20
5.44635
 11
121.912
 21
5.18845
  0
LINE
  8
0
 10
121.912
 20
5.18845
 11
121.607
 21
4.96701
  0
LINE
  8
0
 10
121.607
 20
4.96701
 11
121.277
 21
4.78551
  0
LINE
  8
0
 10
121.277
 20
4.78551
 11
120.927
 21
4.64682
  0
LINE
  8
0
 10
120.927
 20
4.64682
 11
120.562
 21
4.55313
  0
LINE
  8
0
 10
120.562
 20
4.55313
 11
120.188
 21
4.50591
  0
LINE
  8
0
 10
120.188
 20
4.50591
 11
119.812
 21
4.50591
  0
LINE
  8
0
 10
-120.188
 20
4.50591
 11
-120.562
 21
4.55313
  0
LINE
  8
0
 10
-120.562
 20
4.55313
 11
-120.927
 21
4.64682
  0
LINE
  8
0
 10
-120.927
 20
4.64682
 11
-121.277
 21
4.78551
  0
LINE
  8
0
 10
-121.277
 20
4.78551
 11
-121.607
 21
4.96701
  0
LINE
  8
0
 10
-121.607
 20
4.96701
 11
-121.912
 21
5.18845
  0
LINE
  8
0
 10
-121.912
 20
5.18845
 11
-122.187
 21
5.44635
  0
LINE
  8
0
 10
-122.187
 20
5.44635
 11
-122.427
 21
5.73663
  0
LINE
  8
0
 10
-122.427
 20
5.73663
 11
-122.629
 21
6.05473
  0
LINE
  8
0
 10
-122.629
 20
6.05473
 11
-122.789
 21
6.39561
  0
LINE
  8
0
 10
-122.789
 20
6.39561
 11
-122.906
 21
6.75392
  0
LINE
  8
0
 10
-122.906
 20
6.75392
 11
-122.976
 21
7.12399
  0
LINE
  8
0
 10
-122.976
 20
7.12399
 11
-123
 21
7.5
  0
LINE
  8
0
 10
-123
 20
7.5
 11
-122.976
 21
7.87599
  0
LINE
  8
0
 10
-122.976
 20
7.87599
 11
-122.906
 21
8.24606
  0
LINE
  8
0
 10
-122.906
 20
8.24606
 11
-122.789
 21
8.60437
  0
LINE
  8
0
 10
-122.789
 20
8.60437
 11
-122.629
 21
8.94525
  0
LINE
  8
0
 10
-122.629
 20
8.94525
 11
-122.427
 21
9.26335
  0
LINE
  8
0
 10
-122.427
 20
9.26335
 11
-122.187
 21
9.55363
  0
LINE
  8
0
 10
-122.187
 20
9.55363
 11
-121.912
 21
9.81154
  0
LINE
  8
0
 10
-121.912
 20
9.81154
 11
-121.607
 21
10.033
  0
LINE
  8
0
 10
-121.607
 20
10.033
 11
-121.277
 21
10.2145
  0
LINE
  8
0
 10
-121.277
 20
10.2145
 11
-120.927
 21
10.3532
  0
LINE
  8
0
 10
-120.927
 20
10.3532
 11
-120.562
 21
10.4469
  0
LINE
  8
0
 10
-120.562
 20
10.4469
 11
-120.188
 21
10.4941
  0
LINE
  8
0
 10
-120.188
 20
10.4941
 11
-119.812
 21
10.4941
  0
LINE
  8
0
 10
-119.812
 20
10.4941
 11
-119.438
 21
10.4469
  0
LINE
  8
0
 10
-119.438
 20
10.4469
 11
-119.073
 21
10.3532
  0
LINE
  8
0
 10
-119.073
 20
10.3532
 11
-118.723
 21
10.2145
  0
LINE
  8
0
 10
-118.723
 20
10.2145
 11
-118.393
 21
10.033
  0
LINE
  8
0
 10
-118.393
 20
10.033
 11
-118.088
 21
9.81154
  0
LINE
  8
0
 10
-118.088
 20
9.81154
 11
-117.813
 21
9.55363
  0
LINE
  8
0
 10
-117.813
 20
9.55363
 11
-117.573
 21
9.26335
  0
LINE
  8
0
 10
-117.573
 20
9.26335
 11
-117.371
 21
8.94525
  0
LINE
  8
0
 10
-117.371
 20
8.94525
 11
-117.211
 21
8.60437
  0
LINE
  8
0
 10
-117.211
 20
8.60437
 11
-117.094
 21
8.24606
  0
LINE
  8
0
 10
-117.094
 20
8.24606
 11
-117.024
 21
7.87599
  0
LINE
  8
0
 10
-117.024
 20
7.87599
 11
-117
 21
7.5
  0
LINE
  8
0
 10
-117
 20
7.5
 11
-117.024
 21
7.12399
  0
LINE
  8
0
 10
-117.024
 20
7.12399
 11
-117.094
 21
6.75392
  0
LINE
  8
0
 10
-117.094
 20
6.75392
 11
-117.211
 21
6.39561
  0
LINE
  8
0
 10
-117.211
 20
6.39561
 11
-117.371
 21
6.05473
  0
LINE
  8
0
 10
-117.371
 20
6.05473
 11
-117.573
 21
5.73663
  0
LINE
  8
0
 10
-117.573
 20
5.73663
 11
-117.813
 21
5.44635
  0
LINE
  8
0
 10
-117.813
 20
5.44635
 11
-118.088
 21
5.18845
  0
LINE
  8
0
 10
-118.088
 20
5.18845
 11
-118.393
 21
4.96701
  0
LINE
  8
0
 10
-118.393
 20
4.96701
 11
-118.723
 21
4.78551
  0
LINE
  8
0
 10
-118.723
 20
4.78551
 11
-119.073
 21
4.64682
  0
LINE
  8
0
 10
-119.073
 20
4.64682
 11
-119.438
 21
4.55313
  0
LINE
  8
0
 10
-119.438
 20
4.55313
 11
-119.812
 21
4.50591
  0
LINE
  8
0
 10
-119.812
 20
4.50591
 11
-120.188
 21
4.50591
  0
LINE
  8
0
 10
119.906
 20
-1.49704
 11
119.719
 21
-1.47342
  0
LINE
  8
0
 10
119.719
 20
-1.47342
 11
119.536
 21
-1.42657
  0
LINE
  8
0
 10
119.536
 20
-1.42657
 11
119.361
 21
-1.35724
  0
LINE
  8
0
 10
119.361
 20
-1.35724
 11
119.196
 21
-1.26648
  0
LINE
  8
0
 10
119.196
 20
-1.26648
 11
119.044
 21
-1.15576
  0
LINE
  8
0
 10
119.044
 20
-1.15576
 11
118.907
 21
-1.02681
  0
LINE
  8
0
 10
118.907
 20
-1.02681
 11
118.786
 21
-0.881668
  0
LINE
  8
0
 10
118.786
 20
-0.881668
 11
118.686
 21
-0.722626
  0
LINE
  8
0
 10
118.686
 20
-0.722626
 11
118.605
 21
-0.552185
  0
LINE
  8
0
 10
118.605
 20
-0.552185
 11
118.547
 21
-0.373032
  0
LINE
  8
0
 10
118.547
 20
-0.373032
 11
118.512
 21
-0.187988
  0
LINE
  8
0
 10
118.512
 20
-0.187988
 11
118.5
 21
0
  0
LINE
  8
0
 10
118.5
 20
0
 11
118.512
 21
0.187988
  0
LINE
  8
0
 10
118.512
 20
0.187988
 11
118.547
 21
0.373032
  0
LINE
  8
0
 10
118.547
 20
0.373032
 11
118.605
 21
0.552185
  0
LINE
  8
0
 10
118.605
 20
0.552185
 11
118.686
 21
0.722626
  0
LINE
  8
0
 10
118.686
 20
0.722626
 11
118.786
 21
0.881668
  0
LINE
  8
0
 10
118.786
 20
0.881668
 11
118.907
 21
1.02681
  0
LINE
  8
0
 10
118.907
 20
1.02681
 11
119.044
 21
1.15576
  0
LINE
  8
0
 10
119.044
 20
1.15576
 11
119.196
 21
1.26648
  0
LINE
  8
0
 10
119.196
 20
1.26648
 11
119.361
 21
1.35724
  0
LINE
  8
0
 10
119.361
 20
1.35724
 11
119.536
 21
1.42657
  0
LINE
  8
0
 10
119.536
 20
1.42657
 11
119.719
 21
1.47342
  0
LINE
  8
0
 10
119.719
 20
1.47342
 11
119.906
 21
1.49704
  0
LINE
  8
0
 10
119.906
 20
1.49704
 11
120.094
 21
1.49704
  0
LINE
  8
0
 10
120.094
 20
1.49704
 11
120.281
 21
1.47342
  0
LINE
  8
0
 10
120.281
 20
1.47342
 11
120.464
 21
1.42657
  0
LINE
  8
0
 10
120.464
 20
1.42657
 11
120.639
 21
1.35724
  0
LINE
  8
0
 10
120.639
 20
1.35724
 11
120.804
 21
1.26648
  0
LINE
  8
0
 10
120.804
 20
1.26648
 11
120.956
 21
1.15576
  0
LINE
  8
0
 10
120.956
 20
1.15576
 11
121.093
 21
1.02681
  0
LINE
  8
0
 10
121.093
 20
1.02681
 11
121.214
 21
0.881668
  0
LINE
  8
0
 10
121.214
 20
0.881668
 11
121.314
 21
0.722626
  0
LINE
  8
0
 10
121.314
 20
0.722626
 11
121.395
 21
0.552185
  0
LINE
  8
0
 10
121.395
 20
0.552185
 11
121.453
 21
0.373032
  0
LINE
  8
0
 10
121.453
 20
0.373032
 11
121.488
 21
0.187988
  0
LINE
  8
0
 10
121.488
 20
0.187988
 11
121.5
 21
0
  0
LINE
  8
0
 10
121.5
 20
0
 11
121.488
 21
-0.187988
  0
LINE
  8
0
 10
121.488
 20
-0.187988
 11
121.453
 21
-0.373032
  0
LINE
  8
0
 10
121.453
 20
-0.373032
 11
121.395
 21
-0.552185
  0
LINE
  8
0
 10
121.395
 20
-0.552185
 11
121.314
 21
-0.722626
  0
LINE
  8
0
 10
121.314
 20
-0.722626
 11
121.214
 21
-0.881668
  0
LINE
  8
0
 10
121.214
 20
-0.881668
 11
121.093
 21
-1.02681
  0
LINE
  8
0
 10
121.093
 20
-1.02681
 11
120.956
 21
-1.15576
  0
LINE
  8
0
 10
120.956
 20
-1.15576
 11
120.804
 21
-1.26648
  0
LINE
  8
0
 10
120.804
 20
-1.26648
 11
120.639
 21
-1.35724
  0
LINE
  8
0
 10
120.639
 20
-1.35724
 11
120.464
 21
-1.42657
  0
LINE
  8
0
 10
120.464
 20
-1.42657
 11
120.281
 21
-1.47342
  0
LINE
  8
0
 10
120.281
 20
-1.47342
 11
120.094
 21
-1.49704
  0
LINE
  8
0
 10
120.094
 20
-1.49704
 11
119.906
 21
-1.49704
  0
LINE
  8
0
 10
-120.094
 20
-1.49704
 11
-120.281
 21
-1.47342
  0
LINE
  8
0
 10
-120.281
 20
-1.47342
 11
-120.464
 21
-1.42657
  0
LINE
  8
0
 10
-120.464
 20
-1.42657
 11
-120.639
 21
-1.35724
  0
LINE
  8
0
 10
-120.639
 20
-1.35724
 11
-120.804
 21
-1.26648
  0
LINE
  8
0
 10
-120.804
 20
-1.26648
 11
-120.956
 21
-1.15576
  0
LINE
  8
0
 10
-120.956
 20
-1.15576
 11
-121.093
 21
-1.02681
  0
LINE
  8
0
 10
-121.093
 20
-1.02681
 11
-121.214
 21
-0.881668
  0
LINE
  8
0
 10
-121.214
 20
-0.881668
 11
-121.314
 21
-0.722626
  0
LINE
  8
0
 10
-121.314
 20
-0.722626
 11
-121.395
 21
-0.552185
  0
LINE
  8
0
 10
-121.395
 20
-0.552185
 11
-121.453
 21
-0.373032
  0
LINE
  8
0
 10
-121.453
 20
-0.373032
 11
-121.488
 21
-0.187988
  0
LINE
  8
0
 10
-121.488
 20
-0.187988
 11
-121.5
 21
0
  0
LINE
  8
0
 10
-121.5
 20
0
 11
-121.488
 21
0.187988
  0
LINE
  8
0
 10
-121.488
 20
0.187988
 11
-121.453
 21
0.373032
  0
LINE
  8
0
 10
-121.453
 20
0.373032
 11
-121.395
 21
0.552185
  0
LINE
  8
0
 10
-121.395
 20
0.552185
 11
-121.314
 21
0.722626
  0
LINE
  8
0
 10
-121.314
 20
0.722626
 11
-121.214
 21
0.881668
  0
LINE
  8
0
 10
-121.214
 20
0.881668
 11
-121.093
 21
1.02681
  0
LINE
  8
0
 10
-121.093
 20
1.02681
 11
-120.956
 21
1.15576
  0
LINE
  8
0
 10
-120.956
 20
1.15576
 11
-120.804
 21
1.26648
  0
LINE
  8
0
 10
-120.804
 20
1.26648
 11
-120.639
 21
1.35724
  0
LINE
  8
0
 10
-120.639
 20
1.35724
 11
-120.464
 21
1.42657
  0
LINE
  8
0
 10
-120.464
 20
1.42657
 11
-120.281
 21
1.47342
  0
LINE
  8
0
 10
-120.281
 20
1.47342
 11
-120.094
 21
1.49704
  0
LINE
  8
0
 10
-120.094
 20
1.49704
 11
-119.906
 21
1.49704
  0
LINE
  8
0
 10
-119.906
 20
1.49704
 11
-119.719
 21
1.47342
  0
LINE
  8
0
 10
-119.719
 20
1.47342
 11
-119.536
 21
1.42657
  0
LINE
  8
0
 10
-119.536
 20
1.42657
 11
-119.361
 21
1.35724
  0
LINE
  8
0
 10
-119.361
 20
1.35724
 11
-119.196
 21
1.26648
  0
LINE
  8
0
 10
-119.196
 20
1.26648
 11
-119.044
 21
1.15576
  0
LINE
  8
0
 10
-119.044
 20
1.15576
 11
-118.907
 21
1.02681
  0
LINE
  8
0
 10
-118.907
 20
1.02681
 11
-118.786
 21
0.881668
  0
LINE
  8
0
 10
-118.786
 20
0.881668
 11
-118.686
 21
0.722626
  0
LINE
  8
0
 10
-118.686
 20
0.722626
 11
-118.605
 21
0.552185
  0
LINE
  8
0
 10
-118.605
 20
0.552185
 11
-118.547
 21
0.373032
  0
LINE
  8
0
 10
-118.547
 20
0.373032
 11
-118.512
 21
0.187988
  0
LINE
  8
0
 10
-118.512
 20
0.187988
 11
-118.5
 21
0
  0
LINE
  8
0
 10
-118.5
 20
0
 11
-118.512
 21
-0.187988
  0
LINE
  8
0
 10
-118.512
 20
-0.187988
 11
-118.547
 21
-0.373032
  0
LINE
  8
0
 10
-118.547
 20
-0.373032
 11
-118.605
 21
-0.552185
  0
LINE
  8
0
 10
-118.605
 20
-0.552185
 11
-118.686
 21
-0.722626
  0
LINE
  8
0
 10
-118.686
 20
-0.722626
 11
-118.786
 21
-0.881668
  0
LINE
  8
0
 10
-118.786
 20
-0.881668
 11
-118.907
 21
-1.02681
  0
LINE
  8
0
 10
-118.907
 20
-1.02681
 11
-119.044
 21
-1.15576
  0
LINE
  8
0
 10
-119.044
 20
-1.15576
 11
-119.196
 21
-1.26648
  0
LINE
  8
0
 10
-119.196
 20
-1.26648
 11
-119.361
 21
-1.35724
  0
LINE
  8
0
 10
-119.361
 20
-1.35724
 11
-119.536
 21
-1.42657
  0
LINE
  8
0
 10
-119.536
 20
-1.42657
 11
-119.719
 21
-1.47342
  0
LINE
  8
0
 10
-119.719
 20
-1.47342
 11
-119.906
 21
-1.49704
  0
LINE
  8
0
 10
-119.906
 20
-1.49704
 11
-120.094
 21
-1.49704
  0
LINE
  8
0
 10
119.812
 20
-10.4941
 11
119.438
 21
-10.4469
  0
LINE
  8
0
 10
119.438
 20
-10.4469
 11
119.073
 21
-10.3532
  0
LINE
  8
0
 10
119.073
 20
-10.3532
 11
118.723
 21
-10.2145
  0
LINE
  8
0
 10
118.723
 20
-10.2145
 11
118.393
 21
-10.033
  0
LINE
  8
0
 10
118.393
 20
-10.033
 11
118.088
 21
-9.81154
  0
LINE
  8
0
 10
118.088
 20
-9.81154
 11
117.813
 21
-9.55363
  0
LINE
  8
0
 10
117.813
 20
-9.55363
 11
117.573
 21
-9.26335
  0
LINE
  8
0
 10
117.573
 20
-9.26335
 11
117.371
 21
-8.94525
  0
LINE
  8
0
 10
117.371
 20
-8.94525
 11
117.211
 21
-8.60437
  0
LINE
  8
0
 10
117.211
 20
-8.60437
 11
117.094
 21
-8.24606
  0
LINE
  8
0
 10
117.094
 20
-8.24606
 11
117.024
 21
-7.87599
  0
LINE
  8
0
 10
117.024
 20
-7.87599
 11
117
 21
-7.5
  0
LINE
  8
0
 10
117
 20
-7.5
 11
117.024
 21
-7.12399
  0
LINE
  8
0
 10
117.024
 20
-7.12399
 11
117.094
 21
-6.75392
  0
LINE
  8
0
 10
117.094
 20
-6.75392
 11
117.211
 21
-6.39561
  0
LINE
  8
0
 10
117.211
 20
-6.39561
 11
117.371
 21
-6.05473
  0
LINE
  8
0
 10
117.371
 20
-6.05473
 11
117.573
 21
-5.73663
  0
LINE
  8
0
 10
117.573
 20
-5.73663
 11
117.813
 21
-5.44635
  0
LINE
  8
0
 10
117.813
 20
-5.44635
 11
118.088
 21
-5.18845
  0
LINE
  8
0
 10
118.088
 20
-5.18845
 11
118.393
 21
-4.96701
  0
LINE
  8
0
 10
118.393
 20
-4.96701
 11
118.723
 21
-4.78551
  0
LINE
  8
0
 10
118.723
 20
-4.78551
 11
119.073
 21
-4.64682
  0
LINE
  8
0
 10
119.073
 20
-4.64682
 11
119.438
 21
-4.55313
  0
LINE
  8
0
 10
119.438
 20
-4.55313
 11
119.812
 21
-4.50591
  0
LINE
  8
0
 10
119.812
 20
-4.50591
 11
120.188
 21
-4.50591
  0
LINE
  8
0
 10
120.188
 20
-4.50591
 11
120.562
 21
-4.55313
  0
LINE
  8
0
 10
120.562
 20
-4.55313
 11
120.927
 21
-4.64682
  0
LINE
  8
0
 10
120.927
 20
-4.64682
 11
121.277
 21
-4.78551
  0
LINE
  8
0
 10
121.277
 20
-4.78551
 11
121.607
 21
-4.96701
  0
LINE
  8
0
 10
121.607
 20
-4.96701
 11
121.912
 21
-5.18845
  0
LINE
  8
0
 10
121.912
 20
-5.18845
 11
122.187
 21
-5.44635
  0
LINE
  8
0
 10
122.187
 20
-5.44635
 11
122.427
 21
-5.73663
  0
LINE
  8
0
 10
122.427
 20
-5.73663
 11
122.629
 21
-6.05473
  0
LINE
  8
0
 10
122.629
 20
-6.05473
 11
122.789
 21
-6.39561
  0
LINE
  8
0
 10
122.789
 20
-6.39561
 11
122.906
 21
-6.75392
  0
LINE
  8
0
 10
122.906
 20
-6.75392
 11
122.976
 21
-7.12399
  0
LINE
  8
0
 10
122.976
 20
-7.12399
 11
123
 21
-7.5
  0
LINE
  8
0
 10
123
 20
-7.5
 11
122.976
 21
-7.87599
  0
LINE
  8
0
 10
122.976
 20
-7.87599
 11
122.906
 21
-8.24606
  0
LINE
  8
0
 10
122.906
 20
-8.24606
 11
122.789
 21
-8.60437
  0
LINE
  8
0
 10
122.789
 20
-8.60437
 11
122.629
 21
-8.94525
  0
LINE
  8
0
 10
122.629
 20
-8.94525
 11
122.427
 21
-9.26335
  0
LINE
  8
0
 10
122.427
 20
-9.26335
 11
122.187
 21
-9.55363
  0
LINE
  8
0
 10
122.187
 20
-9.55363
 11
121.912
 21
-9.81154
  0
LINE
  8
0
 10
121.912
 20
-9.81154
 11
121.607
 21
-10.033
  0
LINE
  8
0
 10
121.607
 20
-10.033
 11
121.277
 21
-10.2145
  0
LINE
  8
0
 10
121.277
 20
-10.2145
 11
120.927
 21
-10.3532
  0
LINE
  8
0
 10
120.927
 20
-10.3532
 11
120.562
 21
-10.4469
  0
LINE
  8
0
 10
120.562
 20
-10.4469
 11
120.188
 21
-10.4941
  0
LINE
  8
0
 10
120.188
 20
-10.4941
 11
119.812
 21
-10.4941
  0
LINE
  8
0
 10
-120.188
 20
-10.4941
 11
-120.562
 21
-10.4469
  0
LINE
  8
0
 10
-120.562
 20
-10.4469
 11
-120.927
 21
-10.3532
  0
LINE
  8
0
 10
-120.927
 20
-10.3532
 11
-121.277
 21
-10.2145
  0
LINE
  8
0
 10
-121.277
 20
-10.2145
 11
-121.607
 21
-10.033
  0
LINE
  8
0
 10
-121.607
 20
-10.033
 11
-121.912
 21
-9.81154
  0
LINE
  8
0
 10
-121.912
 20
-9.81154
 11
-122.187
 21
-9.55363
  0
LINE
  8
0
 10
-122.187
 20
-9.55363
 11
-122.427
 21
-9.26335
  0
LINE
  8
0
 10
-122.427
 20
-9.26335
 11
-122.629
 21
-8.94525
  0
LINE
  8
0
 10
-122.629
 20
-8.94525
 11
-122.789
 21
-8.60437
  0
LINE
  8
0
 10
-122.789
 20
-8.60437
 11
-122.906
 21
-8.24606
  0
LINE
  8
0
 10
-122.906
 20
-8.24606
 11
-122.976
 21
-7.87599
  0
LINE
  8
0
 10
-122.976
 20
-7.87599
 11
-123
 21
-7.5
  0
LINE
  8
0
 10
-123
 20
-7.5
 11
-122.976
 21
-7.12399
  0
LINE
  8
0
 10
-122.976
 20
-7.12399
 11
-122.906
 21
-6.75392
  0
LINE
  8
0
 10
-122.906
 20
-6.75392
 11
-122.789
 21
-6.39561
  0
LINE
  8
0
 10
-122.789
 20
-6.39561
 11
-122.629
 21
-6.05473
  0
LINE
  8
0
 10
-122.629
 20
-6.05473
 11
-122.427
 21
-5.73663
  0
LINE
  8
0
 10
-122.427
 20
-5.73663
 11
-122.187
 21
-5.44635
  0
LINE
  8
0
 10
-122.187
 20
-5.44635
 11
-121.912
 21
-5.18845
  0
LINE
  8
0
 10
-121.912
 20
-5.18845
 11
-121.607
 21
-4.96701
  0
LINE
  8
0
 10
-121.607
 20
-4.96701
 11
-121.277
 21
-4.78551
  0
LINE
  8
0
 10
-121.277
 20
-4.78551
 11
-120.927
 21
-4.64682
  0
LINE
  8
0
 10
-120.927
 20
-4.64682
 11
-120.562
 21
-4.55313
  0
LINE
  8
0
 10
-120.562
 20
-4.55313
 11
-120.188
 21
-4.50591
  0
LINE
  8
0
 10
-120.188
 20
-4.50591
 11
-119.812
 21
-4.50591
  0
LINE
  8
0
 10
-119.812
 20
-4.50591
 11
-119.438
 21
-4.55313
  0
LINE
  8
0
 10
-119.438
 20
-4.55313
 11
-119.073
 21
-4.64682
  0
LINE
  8
0
 10
-119.073
 20
-4.64682
 11
-118.723
 21
-4.78551
  0
LINE
  8
0
 10
-118.723
 20
-4.78551
 11
-118.393
 21
-4.96701
  0
LINE
  8
0
 10
-118.393
 20
-4.96701
 11
-118.088
 21
-5.18845
  0
LINE
  8
0
 10
-118.088
 20
-5.18845
 11
-117.813
 21
-5.44635
  0
LINE
  8
0
 10
-117.813
 20
-5.44635
 11
-117.573
 21
-5.73663
  0
LINE
  8
0
 10
-117.573
 20
-5.73663
 11
-117.371
 21
-6.05473
  0
LINE
  8
0
 10
-117.371
 20
-6.05473
 11
-117.211
 21
-6.39561
  0
LINE
  8
0
 10
-117.211
 20
-6.39561
 11
-117.094
 21
-6.75392
  0
LINE
  8
0
 10
-117.094
 20
-6.75392
 11
-117.024
 21
-7.12399
  0
LINE
  8
0
 10
-117.024
 20
-7.12399
 11
-117
 21
-7.5
  0
LINE
  8
0
 10
-117
 20
-7.5
 11
-117.024
 21
-7.87599
  0
LINE
  8
0
 10
-117.024
 20
-7.87599
 11
-117.094
 21
-8.24606
  0
LINE
  8
0
 10
-117.094
 20
-8.24606
 11
-117.211
 21
-8.60437
  0
LINE
  8
0
 10
-117.211
 20
-8.60437
 11
-117.371
 21
-8.94525
  0
LINE
  8
0
 10
-117.371
 20
-8.94525
 11
-117.573
 21
-9.26335
  0
LINE
  8
0
 10
-117.573
 20
-9.26335
 11
-117.813
 21
-9.55363
  0
LINE
  8
0
 10
-117.813
 20
-9.55363
 11
-118.088
 21
-9.81154
  0
LINE
  8
0
 10
-118.088
 20
-9.81154
 11
-118.393
 21
-10.033
  0
LINE
  8
0
 10
-118.393
 20
-10.033
 11
-118.723
 21
-10.2145
  0
LINE
  8
0
 10
-118.723
 20
-10.2145
 11
-119.073
 21
-10.3532
  0
LINE
  8
0
 10
-119.073
 20
-10.3532
 11
-119.438
 21
-10.4469
  0
LINE
  8
0
 10
-119.438
 20
-10.4469
 11
-119.812
 21
-10.4941
  0
LINE
  8
0
 10
-119.812
 20
-10.4941
 11
-120.188
 21
-10.4941
  0
LINE
  8
0
 10
119.906
 20
-16.497
 11
119.719
 21
-16.4734
  0
LINE
  8
0
 10
119.719
 20
-16.4734
 11
119.536
 21
-16.4266
  0
LINE
  8
0
 10
119.536
 20
-16.4266
 11
119.361
 21
-16.3572
  0
LINE
  8
0
 10
119.361
 20
-16.3572
 11
119.196
 21
-16.2665
  0
LINE
  8
0
 10
119.196
 20
-16.2665
 11
119.044
 21
-16.1558
  0
LINE
  8
0
 10
119.044
 20
-16.1558
 11
118.907
 21
-16.0268
  0
LINE
  8
0
 10
118.907
 20
-16.0268
 11
118.786
 21
-15.8817
  0
LINE
  8
0
 10
118.786
 20
-15.8817
 11
118.686
 21
-15.7226
  0
LINE
  8
0
 10
118.686
 20
-15.7226
 11
118.605
 21
-15.5522
  0
LINE
  8
0
 10
118.605
 20
-15.5522
 11
118.547
 21
-15.373
  0
LINE
  8
0
 10
118.547
 20
-15.373
 11
118.512
 21
-15.188
  0
LINE
  8
0
 10
118.512
 20
-15.188
 11
118.5
 21
-15
  0
LINE
  8
0
 10
118.5
 20
-15
 11
118.512
 21
-14.812
  0
LINE
  8
0
 10
118.512
 20
-14.812
 11
118.547
 21
-14.627
  0
LINE
  8
0
 10
118.547
 20
-14.627
 11
118.605
 21
-14.4478
  0
LINE
  8
0
 10
118.605
 20
-14.4478
 11
118.686
 21
-14.2774
  0
LINE
  8
0
 10
118.686
 20
-14.2774
 11
118.786
 21
-14.1183
  0
LINE
  8
0
 10
118.786
 20
-14.1183
 11
118.907
 21
-13.9732
  0
LINE
  8
0
 10
118.907
 20
-13.9732
 11
119.044
 21
-13.8442
  0
LINE
  8
0
 10
119.044
 20
-13.8442
 11
119.196
 21
-13.7335
  0
LINE
  8
0
 10
119.196
 20
-13.7335
 11
119.361
 21
-13.6427
  0
LINE
  8
0
 10
119.361
 20
-13.6427
 11
119.536
 21
-13.5734
  0
LINE
  8
0
 10
119.536
 20
-13.5734
 11
119.719
 21
-13.5266
  0
LINE
  8
0
 10
119.719
 20
-13.5266
 11
119.906
 21
-13.5029
  0
LINE
  8
0
 10
119.906
 20
-13.5029
 11
120.094
 21
-13.5029
  0
LINE
  8
0
 10
120.094
 20
-13.5029
 11
120.281
 21
-13.5266
  0
LINE
  8
0
 10
120.281
 20
-13.5266
 11
120.464
 21
-13.5734
  0
LINE
  8
0
 10
120.464
 20
-13.5734
 11
120.639
 21
-13.6427
  0
LINE
  8
0
 10
120.639
 20
-13.6427
 11
120.804
 21
-13.7335
  0
LINE
  8
0
 10
120.804
 20
-13.7335
 11
120.956
 21
-13.8442
  0
LINE
  8
0
 10
120.956
 20
-13.8442
 11
121.093
 21
-13.9732
  0
LINE
  8
0
 10
121.093
 20
-13.9732
 11
121.214
 21
-14.1183
  0
LINE
  8
0
 10
121.214
 20
-14.1183
 11
121.314
 21
-14.2774
  0
LINE
  8
0
 10
121.314
 20
-14.2774
 11
121.395
 21
-14.4478
  0
LINE
  8
0
 10
121.395
 20
-14.4478
 11
121.453
 21
-14.627
  0
LINE
  8
0
 10
121.453
 20
-14.627
 11
121.488
 21
-14.812
  0
LINE
  8
0
 10
121.488
 20
-14.812
 11
121.5
 21
-15
  0
LINE
  8
0
 10
121.5
 20
-15
 11
121.488
 21
-15.188
  0
LINE
  8
0
 10
121.488
 20
-15.188
 11
121.453
 21
-15.373
  0
LINE
  8
0
 10
121.453
 20
-15.373
 11
121.395
 21
-15.5522
  0
LINE
  8
0
 10
121.395
 20
-15.5522
 11
121.314
 21
-15.7226
  0
LINE
  8
0
 10
121.314
 20
-15.7226
 11
121.214
 21
-15.8817
  0
LINE
  8
0
 10
121.214
 20
-15.8817
 11
121.093
 21
-16.0268
  0
LINE
  8
0
 10
121.093
 20
-16.0268
 11
120.956
 21
-16.1558
  0
LINE
  8
0
 10
120.956
 20
-16.1558
 11
120.804
 21
-16.2665
  0
LINE
  8
0
 10
120.804
 20
-16.2665
 11
120.639
 21
-16.3572
  0
LINE
  8
0
 10
120.639
 20
-16.3572
 11
120.464
 21
-16.4266
  0
LINE
  8
0
 10
120.464
 20
-16.4266
 11
120.281
 21
-16.4734
  0
LINE
  8
0
 10
120.281
 20
-16.4734
 11
120.094
 21
-16.497
  0
LINE
  8
0
 10
120.094
 20
-16.497
 11
119.906
 21
-16.497
  0
LINE
  8
0
 10
-120.094
 20
-16.497
 11
-120.281
 21
-16.4734
  0
LINE
  8
0
 10
-120.281
 20
-16.4734
 11
-120.464
 21
-16.4266
  0
LINE
  8
0
 10
-120.464
 20
-16.4266
 11
-120.639
 21
-16.3572
  0
LINE
  8
0
 10
-120.639
 20
-16.3572
 11
-120.804
 21
-16.2665
  0
LINE
  8
0
 10
-120.804
 20
-16.2665
 11
-120.956
 21
-16.1558
  0
LINE
  8
0
 10
-120.956
 20
-16.1558
 11
-121.093
 21
-16.0268
  0
LINE
  8
0
 10
-121.093
 20
-16.0268
 11
-121.214
 21
-15.8817
  0
LINE
  8
0
 10
-121.214
 20
-15.8817
 11
-121.314
 21
-15.7226
  0
LINE
  8
0
 10
-121.314
 20
-15.7226
 11
-121.395
 21
-15.5522
  0
LINE
  8
0
 10
-121.395
 20
-15.5522
 11
-121.453
 21
-15.373
  0
LINE
  8
0
 10
-121.453
 20
-15.373
 11
-121.488
 21
-15.188
  0
LINE
  8
0
 10
-121.488
 20
-15.188
 11
-121.5
 21
-15
  0
LINE
  8
0
 10
-121.5
 20
-15
 11
-121.488
 21
-14.812
  0
LINE
  8
0
 10
-121.488
 20
-14.812
 11
-121.453
 21
-14.627
  0
LINE
  8
0
 10
-121.453
 20
-14.627
 11
-121.395
 21
-14.4478
  0
LINE
  8
0
 10
-121.395
 20
-14.4478
 11
-121.314
 21
-14.2774
  0
LINE
  8
0
 10
-121.314
 20
-14.2774
 11
-121.214
 21
-14.1183
  0
LINE
  8
0
 10
-121.214
 20
-14.1183
 11
-121.093
 21
-13.9732
  0
LINE
  8
0
 10
-121.093
 20
-13.9732
 11
-120.956
 21
-13.8442
  0
LINE
  8
0
 10
-120.956
 20
-13.8442
 11
-120.804
 21
-13.7335
  0
LINE
  8
0
 10
-120.804
 20
-13.7335
 11
-120.639
 21
-13.6427
  0
LINE
  8
0
 10
-120.639
 20
-13.6427
 11
-120.464
 21
-13.5734
  0
LINE
  8
0
 10
-120.464
 20
-13.5734
 11
-120.281
 21
-13.5266
  0
LINE
  8
0
 10
-120.281
 20
-13.5266
 11
-120.094
 21
-13.5029
  0
LINE
  8
0
 10
-120.094
 20
-13.5029
 11
-119.906
 21
-13.5029
  0
LINE
  8
0
 10
-119.906
 20
-13.5029
 11
-119.719
 21
-13.5266
  0
LINE
  8
0
 10
-119.719
 20
-13.5266
 11
-119.536
 21
-13.5734
  0
LINE
  8
0
 10
-119.536
 20
-13.5734
 11
-119.361
 21
-13.6427
  0
LINE
  8
0
 10
-119.361
 20
-13.6427
 11
-119.196
 21
-13.7335
  0
LINE
  8
0
 10
-119.196
 20
-13.7335
 11
-119.044
 21
-13.8442
  0
LINE
  8
0
 10
-119.044
 20
-13.8442
 11
-118.907
 21
-13.9732
  0
LINE
  8
0
 10
-118.907
 20
-13.9732
 11
-118.786
 21
-14.1183
  0
LINE
  8
0
 10
-118.786
 20
-14.1183
 11
-118.686
 21
-14.2774
  0
LINE
  8
0
 10
-118.686
 20
-14.2774
 11
-118.605
 21
-14.4478
  0
LINE
  8
0
 10
-118.605
 20
-14.4478
 11
-118.547
 21
-14.627
  0
LINE
  8
0
 10
-118.547
 20
-14.627
 11
-118.512
 21
-14.812
  0
LINE
  8
0
 10
-118.512
 20
-14.812
 11
-118.5
 21
-15
  0
LINE
  8
0
 10
-118.5
 20
-15
 11
-118.512
 21
-15.188
  0
LINE
  8
0
 10
-118.512
 20
-15.188
 11
-118.547
 21
-15.373
  0
LINE
  8
0
 10
-118.547
 20
-15.373
 11
-118.605
 21
-15.5522
  0
LINE
  8
0
 10
-118.605
 20
-15.5522
 11
-118.686
 21
-15.7226
  0
LINE
  8
0
 10
-118.686
 20
-15.7226
 11
-118.786
 21
-15.8817
  0
LINE
  8
0
 10
-118.786
 20
-15.8817
 11
-118.907
 21
-16.0268
  0
LINE
  8
0
 10
-118.907
 20
-16.0268
 11
-119.044
 21
-16.1558
  0
LINE
  8
0
 10
-119.044
 20
-16.1558
 11
-119.196
 21
-16.2665
  0
LINE
  8
0
 10
-119.196
 20
-16.2665
 11
-119.361
 21
-16.3572
  0
LINE
  8
0
 10
-119.361
 20
-16.3572
 11
-119.536
 21
-16.4266
  0
LINE
  8
0
 10
-119.536
 20
-16.4266
 11
-119.719
 21
-16.4734
  0
LINE
  8
0
 10
-119.719
 20
-16.4734
 11
-119.906
 21
-16.497
  0
LINE
  8
0
 10
-119.906
 20
-16.497
 11
-120.094
 21
-16.497
  0
LINE
  8
0
 10
-120.188
 20
-25.4941
 11
-120.562
 21
-25.4469
  0
LINE
  8
0
 10
-120.562
 20
-25.4469
 11
-120.927
 21
-25.3532
  0
LINE
  8
0
 10
-120.927
 20
-25.3532
 11
-121.277
 21
-25.2145
  0
LINE
  8
0
 10
-121.277
 20
-25.2145
 11
-121.607
 21
-25.033
  0
LINE
  8
0
 10
-121.607
 20
-25.033
 11
-121.912
 21
-24.8115
  0
LINE
  8
0
 10
-121.912
 20
-24.8115
 11
-122.187
 21
-24.5536
  0
LINE
  8
0
 10
-122.187
 20
-24.5536
 11
-122.427
 21
-24.2634
  0
LINE
  8
0
 10
-122.427
 20
-24.2634
 11
-122.629
 21
-23.9453
  0
LINE
  8
0
 10
-122.629
 20
-23.9453
 11
-122.789
 21
-23.6044
  0
LINE
  8
0
 10
-122.789
 20
-23.6044
 11
-122.906
 21
-23.2461
  0
LINE
  8
0
 10
-122.906
 20
-23.2461
 11
-122.976
 21
-22.876
  0
LINE
  8
0
 10
-122.976
 20
-22.876
 11
-123
 21
-22.5
  0
LINE
  8
0
 10
-123
 20
-22.5
 11
-122.976
 21
-22.124
  0
LINE
  8
0
 10
-122.976
 20
-22.124
 11
-122.906
 21
-21.7539
  0
LINE
  8
0
 10
-122.906
 20
-21.7539
 11
-122.789
 21
-21.3956
  0
LINE
  8
0
 10
-122.789
 20
-21.3956
 11
-122.629
 21
-21.0547
  0
LINE
  8
0
 10
-122.629
 20
-21.0547
 11
-122.427
 21
-20.7366
  0
LINE
  8
0
 10
-122.427
 20
-20.7366
 11
-122.187
 21
-20.4464
  0
LINE
  8
0
 10
-122.187
 20
-20.4464
 11
-121.912
 21
-20.1884
  0
LINE
  8
0
 10
-121.912
 20
-20.1884
 11
-121.607
 21
-19.967
  0
LINE
  8
0
 10
-121.607
 20
-19.967
 11
-121.277
 21
-19.7855
  0
LINE
  8
0
 10
-121.277
 20
-19.7855
 11
-120.927
 21
-19.6468
  0
LINE
  8
0
 10
-120.927
 20
-19.6468
 11
-120.562
 21
-19.5531
  0
LINE
  8
0
 10
-120.562
 20
-19.5531
 11
-120.188
 21
-19.5059
  0
LINE
  8
0
 10
-120.188
 20
-19.5059
 11
-119.812
 21
-19.5059
  0
LINE
  8
0
 10
-119.812
 20
-19.5059
 11
-119.438
 21
-19.5531
  0
LINE
  8
0
 10
-119.438
 20
-19.5531
 11
-119.073
 21
-19.6468
  0
LINE
  8
0
 10
-119.073
 20
-19.6468
 11
-118.723
 21
-19.7855
  0
LINE
  8
0
 10
-118.723
 20
-19.7855
 11
-118.393
 21
-19.967
  0
LINE
  8
0
 10
-118.393
 20
-19.967
 11
-118.088
 21
-20.1884
  0
LINE
  8
0
 10
-118.088
 20
-20.1884
 11
-117.813
 21
-20.4464
  0
LINE
  8
0
 10
-117.813
 20
-20.4464
 11
-117.573
 21
-20.7366
  0
LINE
  8
0
 10
-117.573
 20
-20.7366
 11
-117.371
 21
-21.0547
  0
LINE
  8
0
 10
-117.371
 20
-21.0547
 11
-117.211
 21
-21.3956
  0
LINE
  8
0
 10
-117.211
 20
-21.3956
 11
-117.094
 21
-21.7539
  0
LINE
  8
0
 10
-117.094
 20
-21.7539
 11
-117.024
 21
-22.124
  0
LINE
  8
0
 10
-117.024
 20
-22.124
 11
-117
 21
-22.5
  0
LINE
  8
0
 10
-117
 20
-22.5
 11
-117.024
 21
-22.876
  0
LINE
  8
0
 10
-117.024
 20
-22.876
 11
-117.094
 21
-23.2461
  0
LINE
  8
0
 10
-117.094
 20
-23.2461
 11
-117.211
 21
-23.6044
  0
LINE
  8
0
 10
-117.211
 20
-23.6044
 11
-117.371
 21
-23.9453
  0
LINE
  8
0
 10
-117.371
 20
-23.9453
 11
-117.573
 21
-24.2634
  0
LINE
  8
0
 10
-117.573
 20
-24.2634
 11
-117.813
 21
-24.5536
  0
LINE
  8
0
 10
-117.813
 20
-24.5536
 11
-118.088
 21
-24.8115
  0
LINE
  8
0
 10
-118.088
 20
-24.8115
 11
-118.393
 21
-25.033
  0
LINE
  8
0
 10
-118.393
 20
-25.033
 11
-118.723
 21
-25.2145
  0
LINE
  8
0
 10
-118.723
 20
-25.2145
 11
-119.073
 21
-25.3532
  0
LINE
  8
0
 10
-119.073
 20
-25.3532
 11
-119.438
 21
-25.4469
  0
LINE
  8
0
 10
-119.438
 20
-25.4469
 11
-119.812
 21
-25.4941
  0
LINE
  8
0
 10
-119.812
 20
-25.4941
 11
-120.188
 21
-25.4941
  0
LINE
  8
0
 10
119.812
 20
-25.4941
 11
119.438
 21
-25.4469
  0
LINE
  8
0
 10
119.438
 20
-25.4469
 11
119.073
 21
-25.3532
  0
LINE
  8
0
 10
119.073
 20
-25.3532
 11
118.723
 21
-25.2145
  0
LINE
  8
0
 10
118.723
 20
-25.2145
 11
118.393
 21
-25.033
  0
LINE
  8
0
 10
118.393
 20
-25.033
 11
118.088
 21
-24.8115
  0
LINE
  8
0
 10
118.088
 20
-24.8115
 11
117.813
 21
-24.5536
  0
LINE
  8
0
 10
117.813
 20
-24.5536
 11
117.573
 21
-24.2634
  0
LINE
  8
0
 10
117.573
 20
-24.2634
 11
117.371
 21
-23.9453
  0
LINE
  8
0
 10
117.371
 20
-23.9453
 11
117.211
 21
-23.6044
  0
LINE
  8
0
 10
117.211
 20
-23.6044
 11
117.094
 21
-23.2461
  0
LINE
  8
0
 10
117.094
 20
-23.2461
 11
117.024
 21
-22.876
  0
LINE
  8
0
 10
117.024
 20
-22.876
 11
117
 21
-22.5
  0
LINE
  8
0
 10
117
 20
-22.5
 11
117.024
 21
-22.124
  0
LINE
  8
0
 10
117.024
 20
-22.124
 11
117.094
 21
-21.7539
  0
LINE
  8
0
 10
117.094
 20
-21.7539
 11
117.211
 21
-21.3956
  0
LINE
  8
0
 10
117.211
 20
-21.3956
 11
117.371
 21
-21.0547
  0
LINE
  8
0
 10
117.371
 20
-21.0547
 11
117.573
 21
-20.7366
  0
LINE
  8
0
 10
117.573
 20
-20.7366
 11
117.813
 21
-20.4464
  0
LINE
  8
0
 10
117.813
 20
-20.4464
 11
118.088
 21
-20.1884
  0
LINE
  8
0
 10
118.088
 20
-20.1884
 11
118.393
 21
-19.967
  0
LINE
  8
0
 10
118.393
 20
-19.967
 11
118.723
 21
-19.7855
  0
LINE
  8
0
 10
118.723
 20
-19.7855
 11
119.073
 21
-19.6468
  0
LINE
  8
0
 10
119.073
 20
-19.6468
 11
119.438
 21
-19.5531
  0
LINE
  8
0
 10
119.438
 20
-19.5531
 11
119.812
 21
-19.5059
  0
LINE
  8
0
 10
119.812
 20
-19.5059
 11
120.188
 21
-19.5059
  0
LINE
  8
0
 10
120.188
 20
-19.5059
 11
120.562
 21
-19.5531
  0
LINE
  8
0
 10
120.562
 20
-19.5531
 11
120.927
 21
-19.6468
  0
LINE
  8
0
 10
120.927
 20
-19.6468
 11
121.277
 21
-19.7855
  0
LINE
  8
0
 10
121.277
 20
-19.7855
 11
121.607
 21
-19.967
  0
LINE
  8
0
 10
121.607
 20
-19.967
 11
121.912
 21
-20.1884
  0
LINE
  8
0
 10
121.912
 20
-20.1884
 11
122.187
 21
-20.4464
  0
LINE
  8
0
 10
122.187
 20
-20.4464
 11
122.427
 21
-20.7366
  0
LINE
  8
0
 10
122.427
 20
-20.7366
 11
122.629
 21
-21.0547
  0
LINE
  8
0
 10
122.629
 20
-21.0547
 11
122.789
 21
-21.3956
  0
LINE
  8
0
 10
122.789
 20
-21.3956
 11
122.906
 21
-21.7539
  0
LINE
  8
0
 10
122.906
 20
-21.7539
 11
122.976
 21
-22.124
  0
LINE
  8
0
 10
122.976
 20
-22.124
 11
123
 21
-22.5
  0
LINE
  8
0
 10
123
 20
-22.5
 11
122.976
 21
-22.876
  0
LINE
  8
0
 10
122.976
 20
-22.876
 11
122.906
 21
-23.2461
  0
LINE
  8
0
 10
122.906
 20
-23.2461
 11
122.789
 21
-23.6044
  0
LINE
  8
0
 10
122.789
 20
-23.6044
 11
122.629
 21
-23.9453
  0
LINE
  8
0
 10
122.629
 20
-23.9453
 11
122.427
 21
-24.2634
  0
LINE
  8
0
 10
122.427
 20
-24.2634
 11
122.187
 21
-24.5536
  0
LINE
  8
0
 10
122.187
 20
-24.5536
 11
121.912
 21
-24.8115
  0
LINE
  8
0
 10
121.912
 20
-24.8115
 11
121.607
 21
-25.033
  0
LINE
  8
0
 10
121.607
 20
-25.033
 11
121.277
 21
-25.2145
  0
LINE
  8
0
 10
121.277
 20
-25.2145
 11
120.927
 21
-25.3532
  0
LINE
  8
0
 10
120.927
 20
-25.3532
 11
120.562
 21
-25.4469
  0
LINE
  8
0
 10
120.562
 20
-25.4469
 11
120.188
 21
-25.4941
  0
LINE
  8
0
 10
120.188
 20
-25.4941
 11
119.812
 21
-25.4941
  0
LINE
  8
0
 10
-120.094
 20
-31.497
 11
-120.281
 21
-31.4734
  0
LINE
  8
0
 10
-120.281
 20
-31.4734
 11
-120.464
 21
-31.4266
  0
LINE
  8
0
 10
-120.464
 20
-31.4266
 11
-120.639
 21
-31.3572
  0
LINE
  8
0
 10
-120.639
 20
-31.3572
 11
-120.804
 21
-31.2665
  0
LINE
  8
0
 10
-120.804
 20
-31.2665
 11
-120.956
 21
-31.1558
  0
LINE
  8
0
 10
-120.956
 20
-31.1558
 11
-121.093
 21
-31.0268
  0
LINE
  8
0
 10
-121.093
 20
-31.0268
 11
-121.214
 21
-30.8817
  0
LINE
  8
0
 10
-121.214
 20
-30.8817
 11
-121.314
 21
-30.7226
  0
LINE
  8
0
 10
-121.314
 20
-30.7226
 11
-121.395
 21
-30.5522
  0
LINE
  8
0
 10
-121.395
 20
-30.5522
 11
-121.453
 21
-30.373
  0
LINE
  8
0
 10
-121.453
 20
-30.373
 11
-121.488
 21
-30.188
  0
LINE
  8
0
 10
-121.488
 20
-30.188
 11
-121.5
 21
-30
  0
LINE
  8
0
 10
-121.5
 20
-30
 11
-121.488
 21
-29.812
  0
LINE
  8
0
 10
-121.488
 20
-29.812
 11
-121.453
 21
-29.627
  0
LINE
  8
0
 10
-121.453
 20
-29.627
 11
-121.395
 21
-29.4478
  0
LINE
  8
0
 10
-121.395
 20
-29.4478
 11
-121.314
 21
-29.2774
  0
LINE
  8
0
 10
-121.314
 20
-29.2774
 11
-121.214
 21
-29.1183
  0
LINE
  8
0
 10
-121.214
 20
-29.1183
 11
-121.093
 21
-28.9732
  0
LINE
  8
0
 10
-121.093
 20
-28.9732
 11
-120.956
 21
-28.8442
  0
LINE
  8
0
 10
-120.956
 20
-28.8442
 11
-120.804
 21
-28.7335
  0
LINE
  8
0
 10
-120.804
 20
-28.7335
 11
-120.639
 21
-28.6427
  0
LINE
  8
0
 10
-120.639
 20
-28.6427
 11
-120.464
 21
-28.5734
  0
LINE
  8
0
 10
-120.464
 20
-28.5734
 11
-120.281
 21
-28.5266
  0
LINE
  8
0
 10
-120.281
 20
-28.5266
 11
-120.094
 21
-28.503
  0
LINE
  8
0
 10
-120.094
 20
-28.503
 11
-119.906
 21
-28.503
  0
LINE
  8
0
 10
-119.906
 20
-28.503
 11
-119.719
 21
-28.5266
  0
LINE
  8
0
 10
-119.719
 20
-28.5266
 11
-119.536
 21
-28.5734
  0
LINE
  8
0
 10
-119.536
 20
-28.5734
 11
-119.361
 21
-28.6427
  0
LINE
  8
0
 10
-119.361
 20
-28.6427
 11
-119.196
 21
-28.7335
  0
LINE
  8
0
 10
-119.196
 20
-28.7335
 11
-119.044
 21
-28.8442
  0
LINE
  8
0
 10
-119.044
 20
-28.8442
 11
-118.907
 21
-28.9732
  0
LINE
  8
0
 10
-118.907
 20
-28.9732
 11
-118.786
 21
-29.1183
  0
LINE
  8
0
 10
-118.786
 20
-29.1183
 11
-118.686
 21
-29.2774
  0
LINE
  8
0
 10
-118.686
 20
-29.2774
 11
-118.605
 21
-29.4478
  0
LINE
  8
0
 10
-118.605
 20
-29.4478
 11
-118.547
 21
-29.627
  0
LINE
  8
0
 10
-118.547
 20
-29.627
 11
-118.512
 21
-29.812
  0
LINE
  8
0
 10
-118.512
 20
-29.812
 11
-118.5
 21
-30
  0
LINE
  8
0
 10
-118.5
 20
-30
 11
-118.512
 21
-30.188
  0
LINE
  8
0
 10
-118.512
 20
-30.188
 11
-118.547
 21
-30.373
  0
LINE
  8
0
 10
-118.547
 20
-30.373
 11
-118.605
 21
-30.5522
  0
LINE
  8
0
 10
-118.605
 20
-30.5522
 11
-118.686
 21
-30.7226
  0
LINE
  8
0
 10
-118.686
 20
-30.7226
 11
-118.786
 21
-30.8817
  0
LINE
  8
0
 10
-118.786
 20
-30.8817
 11
-118.907
 21
-31.0268
  0
LINE
  8
0
 10
-118.907
 20
-31.0268
 11
-119.044
 21
-31.1558
  0
LINE
  8
0
 10
-119.044
 20
-31.1558
 11
-119.196
 21
-31.2665
  0
LINE
  8
0
 10
-119.196
 20
-31.2665
 11
-119.361
 21
-31.3572
  0
LINE
  8
0
 10
-119.361
 20
-31.3572
 11
-119.536
 21
-31.4266
  0
LINE
  8
0
 10
-119.536
 20
-31.4266
 11
-119.719
 21
-31.4734
  0
LINE
  8
0
 10
-119.719
 20
-31.4734
 11
-119.906
 21
-31.497
  0
LINE
  8
0
 10
-119.906
 20
-31.497
 11
-120.094
 21
-31.497
  0
LINE
  8
0
 10
119.906
 20
-31.497
 11
119.719
 21
-31.4734
  0
LINE
  8
0
 10
119.719
 20
-31.4734
 11
119.536
 21
-31.4266
  0
LINE
  8
0
 10
119.536
 20
-31.4266
 11
119.361
 21
-31.3572
  0
LINE
  8
0
 10
119.361
 20
-31.3572
 11
119.196
 21
-31.2665
  0
LINE
  8
0
 10
119.196
 20
-31.2665
 11
119.044
 21
-31.1558
  0
LINE
  8
0
 10
119.044
 20
-31.1558
 11
118.907
 21
-31.0268
  0
LINE
  8
0
 10
118.907
 20
-31.0268
 11
118.786
 21
-30.8817
  0
LINE
  8
0
 10
118.786
 20
-30.8817
 11
118.686
 21
-30.7226
  0
LINE
  8
0
 10
118.686
 20
-30.7226
 11
118.605
 21
-30.5522
  0
LINE
  8
0
 10
118.605
 20
-30.5522
 11
118.547
 21
-30.373
  0
LINE
  8
0
 10
118.547
 20
-30.373
 11
118.512
 21
-30.188
  0
LINE
  8
0
 10
118.512
 20
-30.188
 11
118.5
 21
-30
  0
LINE
  8
0
 10
118.5
 20
-30
 11
118.512
 21
-29.812
  0
LINE
  8
0
 10
118.512
 20
-29.812
 11
118.547
 21
-29.627
  0
LINE
  8
0
 10
118.547
 20
-29.627
 11
118.605
 21
-29.4478
  0
LINE
  8
0
 10
118.605
 20
-29.4478
 11
118.686
 21
-29.2774
  0
LINE
  8
0
 10
118.686
 20
-29.2774
 11
118.786
 21
-29.1183
  0
LINE
  8
0
 10
118.786
 20
-29.1183
 11
118.907
 21
-28.9732
  0
LINE
  8
0
 10
118.907
 20
-28.9732
 11
119.044
 21
-28.8442
  0
LINE
  8
0
 10
119.044
 20
-28.8442
 11
119.196
 21
-28.7335
  0
LINE
  8
0
 10
119.196
 20
-28.7335
 11
119.361
 21
-28.6427
  0
LINE
  8
0
 10
119.361
 20
-28.6427
 11
119.536
 21
-28.5734
  0
LINE
  8
0
 10
119.536
 20
-28.5734
 11
119.719
 21
-28.5266
  0
LINE
  8
0
 10
119.719
 20
-28.5266
 11
119.906
 21
-28.503
  0
LINE
  8
0
 10
119.906
 20
-28.503
 11
120.094
 21
-28.503
  0
LINE
  8
0
 10
120.094
 20
-28.503
 11
120.281
 21
-28.5266
  0
LINE
  8
0
 10
120.281
 20
-28.5266
 11
120.464
 21
-28.5734
  0
LINE
  8
0
 10
120.464
 20
-28.5734
 11
120.639
 21
-28.6427
  0
LINE
  8
0
 10
120.639
 20
-28.6427
 11
120.804
 21
-28.7335
  0
LINE
  8
0
 10
120.804
 20
-28.7335
 11
120.956
 21
-28.8442
  0
LINE
  8
0
 10
120.956
 20
-28.8442
 11
121.093
 21
-28.9732
  0
LINE
  8
0
 10
121.093
 20
-28.9732
 11
121.214
 21
-29.1183
  0
LINE
  8
0
 10
121.214
 20
-29.1183
 11
121.314
 21
-29.2774
  0
LINE
  8
0
 10
121.314
 20
-29.2774
 11
121.395
 21
-29.4478
  0
LINE
  8
0
 10
121.395
 20
-29.4478
 11
121.453
 21
-29.627
  0
LINE
  8
0
 10
121.453
 20
-29.627
 11
121.488
 21
-29.812
  0
LINE
  8
0
 10
121.488
 20
-29.812
 11
121.5
 21
-30
  0
LINE
  8
0
 10
121.5
 20
-30
 11
121.488
 21
-30.188
  0
LINE
  8
0
 10
121.488
 20
-30.188
 11
121.453
 21
-30.373
  0
LINE
  8
0
 10
121.453
 20
-30.373
 11
121.395
 21
-30.5522
  0
LINE
  8
0
 10
121.395
 20
-30.5522
 11
121.314
 21
-30.7226
  0
LINE
  8
0
 10
121.314
 20
-30.7226
 11
121.214
 21
-30.8817
  0
LINE
  8
0
 10
121.214
 20
-30.8817
 11
121.093
 21
-31.0268
  0
LINE
  8
0
 10
121.093
 20
-31.0268
 11
120.956
 21
-31.1558
  0
LINE
  8
0
 10
120.956
 20
-31.1558
 11
120.804
 21
-31.2665
  0
LINE
  8
0
 10
120.804
 20
-31.2665
 11
120.639
 21
-31.3572
  0
LINE
  8
0
 10
120.639
 20
-31.3572
 11
120.464
 21
-31.4266
  0
LINE
  8
0
 10
120.464
 20
-31.4266
 11
120.281
 21
-31.4734
  0
LINE
  8
0
 10
120.281
 20
-31.4734
 11
120.094
 21
-31.497
  0
LINE
  8
0
 10
120.094
 20
-31.497
 11
119.906
 21
-31.497
  0
LINE
  8
0
 10
119.812
 20
-40.4941
 11
119.438
 21
-40.4469
  0
LINE
  8
0
 10
119.438
 20
-40.4469
 11
119.073
 21
-40.3532
  0
LINE
  8
0
 10
119.073
 20
-40.3532
 11
118.723
 21
-40.2145
  0
LINE
  8
0
 10
118.723
 20
-40.2145
 11
118.393
 21
-40.033
  0
LINE
  8
0
 10
118.393
 20
-40.033
 11
118.088
 21
-39.8115
  0
LINE
  8
0
 10
118.088
 20
-39.8115
 11
117.813
 21
-39.5536
  0
LINE
  8
0
 10
117.813
 20
-39.5536
 11
117.573
 21
-39.2634
  0
LINE
  8
0
 10
117.573
 20
-39.2634
 11
117.371
 21
-38.9453
  0
LINE
  8
0
 10
117.371
 20
-38.9453
 11
117.211
 21
-38.6044
  0
LINE
  8
0
 10
117.211
 20
-38.6044
 11
117.094
 21
-38.2461
  0
LINE
  8
0
 10
117.094
 20
-38.2461
 11
117.024
 21
-37.876
  0
LINE
  8
0
 10
117.024
 20
-37.876
 11
117
 21
-37.5
  0
LINE
  8
0
 10
117
 20
-37.5
 11
117.024
 21
-37.124
  0
LINE
  8
0
 10
117.024
 20
-37.124
 11
117.094
 21
-36.7539
  0
LINE
  8
0
 10
117.094
 20
-36.7539
 11
117.211
 21
-36.3956
  0
LINE
  8
0
 10
117.211
 20
-36.3956
 11
117.371
 21
-36.0547
  0
LINE
  8
0
 10
117.371
 20
-36.0547
 11
117.573
 21
-35.7366
  0
LINE
  8
0
 10
117.573
 20
-35.7366
 11
117.813
 21
-35.4464
  0
LINE
  8
0
 10
117.813
 20
-35.4464
 11
118.088
 21
-35.1885
  0
LINE
  8
0
 10
118.088
 20
-35.1885
 11
118.393
 21
-34.967
  0
LINE
  8
0
 10
118.393
 20
-34.967
 11
118.723
 21
-34.7855
  0
LINE
  8
0
 10
118.723
 20
-34.7855
 11
119.073
 21
-34.6468
  0
LINE
  8
0
 10
119.073
 20
-34.6468
 11
119.438
 21
-34.5531
  0
LINE
  8
0
 10
119.438
 20
-34.5531
 11
119.812
 21
-34.5059
  0
LINE
  8
0
 10
119.812
 20
-34.5059
 11
120.188
 21
-34.5059
  0
LINE
  8
0
 10
120.188
 20
-34.5059
 11
120.562
 21
-34.5531
  0
LINE
  8
0
 10
120.562
 20
-34.5531
 11
120.927
 21
-34.6468
  0
LINE
  8
0
 10
120.927
 20
-34.6468
 11
121.277
 21
-34.7855
  0
LINE
  8
0
 10
121.277
 20
-34.7855
 11
121.607
 21
-34.967
  0
LINE
  8
0
 10
121.607
 20
-34.967
 11
121.912
 21
-35.1885
  0
LINE
  8
0
 10
121.912
 20
-35.1885
 11
122.187
 21
-35.4464
  0
LINE
  8
0
 10
122.187
 20
-35.4464
 11
122.427
 21
-35.7366
  0
LINE
  8
0
 10
122.427
 20
-35.7366
 11
122.629
 21
-36.0547
  0
LINE
  8
0
 10
122.629
 20
-36.0547
 11
122.789
 21
-36.3956
  0
LINE
  8
0
 10
122.789
 20
-36.3956
 11
122.906
 21
-36.7539
  0
LINE
  8
0
 10
122.906
 20
-36.7539
 11
122.976
 21
-37.124
  0
LINE
  8
0
 10
122.976
 20
-37.124
 11
123
 21
-37.5
  0
LINE
  8
0
 10
123
 20
-37.5
 11
122.976
 21
-37.876
  0
LINE
  8
0
 10
122.976
 20
-37.876
 11
122.906
 21
-38.2461
  0
LINE
  8
0
 10
122.906
 20
-38.2461
 11
122.789
 21
-38.6044
  0
LINE
  8
0
 10
122.789
 20
-38.6044
 11
122.629
 21
-38.9453
  0
LINE
  8
0
 10
122.629
 20
-38.9453
 11
122.427
 21
-39.2634
  0
LINE
  8
0
 10
122.427
 20
-39.2634
 11
122.187
 21
-39.5536
  0
LINE
  8
0
 10
122.187
 20
-39.5536
 11
121.912
 21
-39.8115
  0
LINE
  8
0
 10
121.912
 20
-39.8115
 11
121.607
 21
-40.033
  0
LINE
  8
0
 10
121.607
 20
-40.033
 11
121.277
 21
-40.2145
  0
LINE
  8
0
 10
121.277
 20
-40.2145
 11
120.927
 21
-40.3532
  0
LINE
  8
0
 10
120.927
 20
-40.3532
 11
120.562
 21
-40.4469
  0
LINE
  8
0
 10
120.562
 20
-40.4469
 11
120.188
 21
-40.4941
  0
LINE
  8
0
 10
120.188
 20
-40.4941
 11
119.812
 21
-40.4941
  0
LINE
  8
0
 10
-120.188
 20
-40.4941
 11
-120.562
 21
-40.4469
  0
LINE
  8
0
 10
-120.562
 20
-40.4469
 11
-120.927
 21
-40.3532
  0
LINE
  8
0
 10
-120.927
 20
-40.3532
 11
-121.277
 21
-40.2145
  0
LINE
  8
0
 10
-121.277
 20
-40.2145
 11
-121.607
 21
-40.033
  0
LINE
  8
0
 10
-121.607
 20
-40.033
 11
-121.912
 21
-39.8115
  0
LINE
  8
0
 10
-121.912
 20
-39.8115
 11
-122.187
 21
-39.5536
  0
LINE
  8
0
 10
-122.187
 20
-39.5536
 11
-122.427
 21
-39.2634
  0
LINE
  8
0
 10
-122.427
 20
-39.2634
 11
-122.629
 21
-38.9453
  0
LINE
  8
0
 10
-122.629
 20
-38.9453
 11
-122.789
 21
-38.6044
  0
LINE
  8
0
 10
-122.789
 20
-38.6044
 11
-122.906
 21
-38.2461
  0
LINE
  8
0
 10
-122.906
 20
-38.2461
 11
-122.976
 21
-37.876
  0
LINE
  8
0
 10
-122.976
 20
-37.876
 11
-123
 21
-37.5
  0
LINE
  8
0
 10
-123
 20
-37.5
 11
-122.976
 21
-37.124
  0
LINE
  8
0
 10
-122.976
 20
-37.124
 11
-122.906
 21
-36.7539
  0
LINE
  8
0
 10
-122.906
 20
-36.7539
 11
-122.789
 21
-36.3956
  0
LINE
  8
0
 10
-122.789
 20
-36.3956
 11
-122.629
 21
-36.0547
  0
LINE
  8
0
 10
-122.629
 20
-36.0547
 11
-122.427
 21
-35.7366
  0
LINE
  8
0
 10
-122.427
 20
-35.7366
 11
-122.187
 21
-35.4464
  0
LINE
  8
0
 10
-122.187
 20
-35.4464
 11
-121.912
 21
-35.1885
  0
LINE
  8
0
 10
-121.912
 20
-35.1885
 11
-121.607
 21
-34.967
  0
LINE
  8
0
 10
-121.607
 20
-34.967
 11
-121.277
 21
-34.7855
  0
LINE
  8
0
 10
-121.277
 20
-34.7855
 11
-120.927
 21
-34.6468
  0
LINE
  8
0
 10
-120.927
 20
-34.6468
 11
-120.562
 21
-34.5531
  0
LINE
  8
0
 10
-120.562
 20
-34.5531
 11
-120.188
 21
-34.5059
  0
LINE
  8
0
 10
-120.188
 20
-34.5059
 11
-119.812
 21
-34.5059
  0
LINE
  8
0
 10
-119.812
 20
-34.5059
 11
-119.438
 21
-34.5531
  0
LINE
  8
0
 10
-119.438
 20
-34.5531
 11
-119.073
 21
-34.6468
  0
LINE
  8
0
 10
-119.073
 20
-34.6468
 11
-118.723
 21
-34.7855
  0
LINE
  8
0
 10
-118.723
 20
-34.7855
 11
-118.393
 21
-34.967
  0
LINE
  8
0
 10
-118.393
 20
-34.967
 11
-118.088
 21
-35.1885
  0
LINE
  8
0
 10
-118.088
 20
-35.1885
 11
-117.813
 21
-35.4464
  0
LINE
  8
0
 10
-117.813
 20
-35.4464
 11
-117.573
 21
-35.7366
  0
LINE
  8
0
 10
-117.573
 20
-35.7366
 11
-117.371
 21
-36.0547
  0
LINE
  8
0
 10
-117.371
 20
-36.0547
 11
-117.211
 21
-36.3956
  0
LINE
  8
0
 10
-117.211
 20
-36.3956
 11
-117.094
 21
-36.7539
  0
LINE
  8
0
 10
-117.094
 20
-36.7539
 11
-117.024
 21
-37.124
  0
LINE
  8
0
 10
-117.024
 20
-37.124
 11
-117
 21
-37.5
  0
LINE
  8
0
 10
-117
 20
-37.5
 11
-117.024
 21
-37.876
  0
LINE
  8
0
 10
-117.024
 20
-37.876
 11
-117.094
 21
-38.2461
  0
LINE
  8
0
 10
-117.094
 20
-38.2461
 11
-117.211
 21
-38.6044
  0
LINE
  8
0
 10
-117.211
 20
-38.6044
 11
-117.371
 21
-38.9453
  0
LINE
  8
0
 10
-117.371
 20
-38.9453
 11
-117.573
 21
-39.2634
  0
LINE
  8
0
 10
-117.573
 20
-39.2634
 11
-117.813
 21
-39.5536
  0
LINE
  8
0
 10
-117.813
 20
-39.5536
 11
-118.088
 21
-39.8115
  0
LINE
  8
0
 10
-118.088
 20
-39.8115
 11
-118.393
 21
-40.033
  0
LINE
  8
0
 10
-118.393
 20
-40.033
 11
-118.723
 21
-40.2145
  0
LINE
  8
0
 10
-118.723
 20
-40.2145
 11
-119.073
 21
-40.3532
  0
LINE
  8
0
 10
-119.073
 20
-40.3532
 11
-119.438
 21
-40.4469
  0
LINE
  8
0
 10
-119.438
 20
-40.4469
 11
-119.812
 21
-40.4941
  0
LINE
  8
0
 10
-119.812
 20
-40.4941
 11
-120.188
 21
-40.4941
  0
ENDSEC
  0
SECTION
  2
OBJECTS
  0
DICTIONARY
  0
ENDSEC
  0
EOF
