  0
SECTION
  2
BLOCKS
  0
ENDSEC
  0
SECTION
  2
ENTITIES
  0
LINE
  8
0
 10
182.937
 20
-36.9114
 11
183.545
 21
-36.7553
  0
LINE
  8
0
 10
183.545
 20
-36.7553
 11
184.129
 21
-36.5241
  0
LINE
  8
0
 10
184.129
 20
-36.5241
 11
184.679
 21
-36.2216
  0
LINE
  8
0
 10
184.679
 20
-36.2216
 11
185.187
 21
-35.8526
  0
LINE
  8
0
 10
185.187
 20
-35.8526
 11
185.645
 21
-35.4227
  0
LINE
  8
0
 10
185.645
 20
-35.4227
 11
186.045
 21
-34.9389
  0
LINE
  8
0
 10
186.045
 20
-34.9389
 11
186.382
 21
-34.4088
  0
LINE
  8
0
 10
186.382
 20
-34.4088
 11
186.649
 21
-33.8406
  0
LINE
  8
0
 10
186.649
 20
-33.8406
 11
186.843
 21
-33.2434
  0
LINE
  8
0
 10
186.843
 20
-33.2434
 11
186.961
 21
-32.6267
  0
LINE
  8
0
 10
186.961
 20
-32.6267
 11
187
 21
-32
  0
LINE
  8
0
 10
187
 20
-32
 11
187
 21
32
  0
LINE
  8
0
 10
187
 20
32
 11
186.961
 21
32.6267
  0
LINE
  8
0
 10
186.961
 20
32.6267
 11
186.843
 21
33.2434
  0
LINE
  8
0
 10
186.843
 20
33.2434
 11
186.649
 21
33.8406
  0
LINE
  8
0
 10
186.649
 20
33.8406
 11
186.382
 21
34.4088
  0
LINE
  8
0
 10
186.382
 20
34.4088
 11
186.045
 21
34.9389
  0
LINE
  8
0
 10
186.045
 20
34.9389
 11
185.645
 21
35.4227
  0
LINE
  8
0
 10
185.645
 20
35.4227
 11
185.187
 21
35.8526
  0
LINE
  8
0
 10
185.187
 20
35.8526
 11
184.679
 21
36.2216
  0
LINE
  8
0
 10
184.679
 20
36.2216
 11
184.129
 21
36.5241
  0
LINE
  8
0
 10
184.129
 20
36.5241
 11
183.545
 21
36.7553
  0
LINE
  8
0
 10
183.545
 20
36.7553
 11
182.937
 21
36.9114
  0
LINE
  8
0
 10
182.937
 20
36.9114
 11
182.314
 21
36.9901
  0
LINE
  8
0
 10
182.314
 20
36.9901
 11
-182.314
 21
36.9901
  0
LINE
  8
0
 10
-182.314
 20
36.9901
 11
-182.937
 21
36.9114
  0
LINE
  8
0
 10
-182.937
 20
36.9114
 11
-183.545
 21
36.7553
  0
LINE
  8
0
 10
-183.545
 20
36.7553
 11
-184.129
 21
36.5241
  0
LINE
  8
0
 10
-184.129
 20
36.5241
 11
-184.679
 21
36.2216
  0
LINE
  8
0
 10
-184.679
 20
36.2216
 11
-185.187
 21
35.8526
  0
LINE
  8
0
 10
-185.187
 20
35.8526
 11
-185.645
 21
35.4227
  0
LINE
  8
0
 10
-185.645
 20
35.4227
 11
-186.045
 21
34.9389
  0
LINE
  8
0
 10
-186.045
 20
34.9389
 11
-186.382
 21
34.4088
  0
LINE
  8
0
 10
-186.382
 20
34.4088
 11
-186.649
 21
33.8406
  0
LINE
  8
0
 10
-186.649
 20
33.8406
 11
-186.843
 21
33.2434
  0
LINE
  8
0
 10
-186.843
 20
33.2434
 11
-186.961
 21
32.6267
  0
LINE
  8
0
 10
-186.961
 20
32.6267
 11
-187
 21
32
  0
LINE
  8
0
 10
-187
 20
32
 11
-187
 21
-32
  0
LINE
  8
0
 10
-187
 20
-32
 11
-186.961
 21
-32.6267
  0
LINE
  8
0
 10
-186.961
 20
-32.6267
 11
-186.843
 21
-33.2434
  0
LINE
  8
0
 10
-186.843
 20
-33.2434
 11
-186.649
 21
-33.8406
  0
LINE
  8
0
 10
-186.649
 20
-33.8406
 11
-186.382
 21
-34.4088
  0
LINE
  8
0
 10
-186.382
 20
-34.4088
 11
-186.045
 21
-34.9389
  0
LINE
  8
0
 10
-186.045
 20
-34.9389
 11
-185.645
 21
-35.4227
  0
LINE
  8
0
 10
-185.645
 20
-35.4227
 11
-185.187
 21
-35.8526
  0
LINE
  8
0
 10
-185.187
 20
-35.8526
 11
-184.679
 21
-36.2216
  0
LINE
  8
0
 10
-184.679
 20
-36.2216
 11
-184.129
 21
-36.5241
  0
LINE
  8
0
 10
-184.129
 20
-36.5241
 11
-183.545
 21
-36.7553
  0
LINE
  8
0
 10
-183.545
 20
-36.7553
 11
-182.937
 21
-36.9114
  0
LINE
  8
0
 10
-182.937
 20
-36.9114
 11
-182.314
 21
-36.9901
  0
LINE
  8
0
 10
-182.314
 20
-36.9901
 11
182.314
 21
-36.9901
  0
LINE
  8
0
 10
182.314
 20
-36.9901
 11
182.937
 21
-36.9114
  0
LINE
  8
0
 10
179.812
 20
27.0059
 11
179.438
 21
27.0531
  0
LINE
  8
0
 10
179.438
 20
27.0531
 11
179.073
 21
27.1468
  0
LINE
  8
0
 10
179.073
 20
27.1468
 11
178.723
 21
27.2855
  0
LINE
  8
0
 10
178.723
 20
27.2855
 11
178.393
 21
27.467
  0
LINE
  8
0
 10
178.393
 20
27.467
 11
178.088
 21
27.6884
  0
LINE
  8
0
 10
178.088
 20
27.6884
 11
177.813
 21
27.9464
  0
LINE
  8
0
 10
177.813
 20
27.9464
 11
177.573
 21
28.2366
  0
LINE
  8
0
 10
177.573
 20
28.2366
 11
177.371
 21
28.5547
  0
LINE
  8
0
 10
177.371
 20
28.5547
 11
177.211
 21
28.8956
  0
LINE
  8
0
 10
177.211
 20
28.8956
 11
177.094
 21
29.2539
  0
LINE
  8
0
 10
177.094
 20
29.2539
 11
177.024
 21
29.624
  0
LINE
  8
0
 10
177.024
 20
29.624
 11
177
 21
30
  0
LINE
  8
0
 10
177
 20
30
 11
177.024
 21
30.376
  0
LINE
  8
0
 10
177.024
 20
30.376
 11
177.094
 21
30.7461
  0
LINE
  8
0
 10
177.094
 20
30.7461
 11
177.211
 21
31.1044
  0
LINE
  8
0
 10
177.211
 20
31.1044
 11
177.371
 21
31.4453
  0
LINE
  8
0
 10
177.371
 20
31.4453
 11
177.573
 21
31.7634
  0
LINE
  8
0
 10
177.573
 20
31.7634
 11
177.813
 21
32.0536
  0
LINE
  8
0
 10
177.813
 20
32.0536
 11
178.088
 21
32.3115
  0
LINE
  8
0
 10
178.088
 20
32.3115
 11
178.393
 21
32.533
  0
LINE
  8
0
 10
178.393
 20
32.533
 11
178.723
 21
32.7145
  0
LINE
  8
0
 10
178.723
 20
32.7145
 11
179.073
 21
32.8532
  0
LINE
  8
0
 10
179.073
 20
32.8532
 11
179.438
 21
32.9469
  0
LINE
  8
0
 10
179.438
 20
32.9469
 11
179.812
 21
32.9941
  0
LINE
  8
0
 10
179.812
 20
32.9941
 11
180.188
 21
32.9941
  0
LINE
  8
0
 10
180.188
 20
32.9941
 11
180.562
 21
32.9469
  0
LINE
  8
0
 10
180.562
 20
32.9469
 11
180.927
 21
32.8532
  0
LINE
  8
0
 10
180.927
 20
32.8532
 11
181.277
 21
32.7145
  0
LINE
  8
0
 10
181.277
 20
32.7145
 11
181.607
 21
32.533
  0
LINE
  8
0
 10
181.607
 20
32.533
 11
181.912
 21
32.3115
  0
LINE
  8
0
 10
181.912
 20
32.3115
 11
182.187
 21
32.0536
  0
LINE
  8
0
 10
182.187
 20
32.0536
 11
182.427
 21
31.7634
  0
LINE
  8
0
 10
182.427
 20
31.7634
 11
182.629
 21
31.4453
  0
LINE
  8
0
 10
182.629
 20
31.4453
 11
182.789
 21
31.1044
  0
LINE
  8
0
 10
182.789
 20
31.1044
 11
182.906
 21
30.7461
  0
LINE
  8
0
 10
182.906
 20
30.7461
 11
182.976
 21
30.376
  0
LINE
  8
0
 10
182.976
 20
30.376
 11
183
 21
30
  0
LINE
  8
0
 10
183
 20
30
 11
182.976
 21
29.624
  0
LINE
  8
0
 10
182.976
 20
29.624
 11
182.906
 21
29.2539
  0
LINE
  8
0
 10
182.906
 20
29.2539
 11
182.789
 21
28.8956
  0
LINE
  8
0
 10
182.789
 20
28.8956
 11
182.629
 21
28.5547
  0
LINE
  8
0
 10
182.629
 20
28.5547
 11
182.427
 21
28.2366
  0
LINE
  8
0
 10
182.427
 20
28.2366
 11
182.187
 21
27.9464
  0
LINE
  8
0
 10
182.187
 20
27.9464
 11
181.912
 21
27.6884
  0
LINE
  8
0
 10
181.912
 20
27.6884
 11
181.607
 21
27.467
  0
LINE
  8
0
 10
181.607
 20
27.467
 11
181.277
 21
27.2855
  0
LINE
  8
0
 10
181.277
 20
27.2855
 11
180.927
 21
27.1468
  0
LINE
  8
0
 10
180.927
 20
27.1468
 11
180.562
 21
27.0531
  0
LINE
  8
0
 10
180.562
 20
27.0531
 11
180.188
 21
27.0059
  0
LINE
  8
0
 10
180.188
 20
27.0059
 11
179.812
 21
27.0059
  0
LINE
  8
0
 10
-180.188
 20
27.0059
 11
-180.562
 21
27.0531
  0
LINE
  8
0
 10
-180.562
 20
27.0531
 11
-180.927
 21
27.1468
  0
LINE
  8
0
 10
-180.927
 20
27.1468
 11
-181.277
 21
27.2855
  0
LINE
  8
0
 10
-181.277
 20
27.2855
 11
-181.607
 21
27.467
  0
LINE
  8
0
 10
-181.607
 20
27.467
 11
-181.912
 21
27.6884
  0
LINE
  8
0
 10
-181.912
 20
27.6884
 11
-182.187
 21
27.9464
  0
LINE
  8
0
 10
-182.187
 20
27.9464
 11
-182.427
 21
28.2366
  0
LINE
  8
0
 10
-182.427
 20
28.2366
 11
-182.629
 21
28.5547
  0
LINE
  8
0
 10
-182.629
 20
28.5547
 11
-182.789
 21
28.8956
  0
LINE
  8
0
 10
-182.789
 20
28.8956
 11
-182.906
 21
29.2539
  0
LINE
  8
0
 10
-182.906
 20
29.2539
 11
-182.976
 21
29.624
  0
LINE
  8
0
 10
-182.976
 20
29.624
 11
-183
 21
30
  0
LINE
  8
0
 10
-183
 20
30
 11
-182.976
 21
30.376
  0
LINE
  8
0
 10
-182.976
 20
30.376
 11
-182.906
 21
30.7461
  0
LINE
  8
0
 10
-182.906
 20
30.7461
 11
-182.789
 21
31.1044
  0
LINE
  8
0
 10
-182.789
 20
31.1044
 11
-182.629
 21
31.4453
  0
LINE
  8
0
 10
-182.629
 20
31.4453
 11
-182.427
 21
31.7634
  0
LINE
  8
0
 10
-182.427
 20
31.7634
 11
-182.187
 21
32.0536
  0
LINE
  8
0
 10
-182.187
 20
32.0536
 11
-181.912
 21
32.3115
  0
LINE
  8
0
 10
-181.912
 20
32.3115
 11
-181.607
 21
32.533
  0
LINE
  8
0
 10
-181.607
 20
32.533
 11
-181.277
 21
32.7145
  0
LINE
  8
0
 10
-181.277
 20
32.7145
 11
-180.927
 21
32.8532
  0
LINE
  8
0
 10
-180.927
 20
32.8532
 11
-180.562
 21
32.9469
  0
LINE
  8
0
 10
-180.562
 20
32.9469
 11
-180.188
 21
32.9941
  0
LINE
  8
0
 10
-180.188
 20
32.9941
 11
-179.812
 21
32.9941
  0
LINE
  8
0
 10
-179.812
 20
32.9941
 11
-179.438
 21
32.9469
  0
LINE
  8
0
 10
-179.438
 20
32.9469
 11
-179.073
 21
32.8532
  0
LINE
  8
0
 10
-179.073
 20
32.8532
 11
-178.723
 21
32.7145
  0
LINE
  8
0
 10
-178.723
 20
32.7145
 11
-178.393
 21
32.533
  0
LINE
  8
0
 10
-178.393
 20
32.533
 11
-178.088
 21
32.3115
  0
LINE
  8
0
 10
-178.088
 20
32.3115
 11
-177.813
 21
32.0536
  0
LINE
  8
0
 10
-177.813
 20
32.0536
 11
-177.573
 21
31.7634
  0
LINE
  8
0
 10
-177.573
 20
31.7634
 11
-177.371
 21
31.4453
  0
LINE
  8
0
 10
-177.371
 20
31.4453
 11
-177.211
 21
31.1044
  0
LINE
  8
0
 10
-177.211
 20
31.1044
 11
-177.094
 21
30.7461
  0
LINE
  8
0
 10
-177.094
 20
30.7461
 11
-177.024
 21
30.376
  0
LINE
  8
0
 10
-177.024
 20
30.376
 11
-177
 21
30
  0
LINE
  8
0
 10
-177
 20
30
 11
-177.024
 21
29.624
  0
LINE
  8
0
 10
-177.024
 20
29.624
 11
-177.094
 21
29.2539
  0
LINE
  8
0
 10
-177.094
 20
29.2539
 11
-177.211
 21
28.8956
  0
LINE
  8
0
 10
-177.211
 20
28.8956
 11
-177.371
 21
28.5547
  0
LINE
  8
0
 10
-177.371
 20
28.5547
 11
-177.573
 21
28.2366
  0
LINE
  8
0
 10
-177.573
 20
28.2366
 11
-177.813
 21
27.9464
  0
LINE
  8
0
 10
-177.813
 20
27.9464
 11
-178.088
 21
27.6884
  0
LINE
  8
0
 10
-178.088
 20
27.6884
 11
-178.393
 21
27.467
  0
LINE
  8
0
 10
-178.393
 20
27.467
 11
-178.723
 21
27.2855
  0
LINE
  8
0
 10
-178.723
 20
27.2855
 11
-179.073
 21
27.1468
  0
LINE
  8
0
 10
-179.073
 20
27.1468
 11
-179.438
 21
27.0531
  0
LINE
  8
0
 10
-179.438
 20
27.0531
 11
-179.812
 21
27.0059
  0
LINE
  8
0
 10
-179.812
 20
27.0059
 11
-180.188
 21
27.0059
  0
LINE
  8
0
 10
-71.0093
 20
-31.9368
 11
-74.9962
 21
-31.4332
  0
LINE
  8
0
 10
-74.9962
 20
-31.4332
 11
-78.8885
 21
-30.4338
  0
LINE
  8
0
 10
-78.8885
 20
-30.4338
 11
-82.6249
 21
-28.9545
  0
LINE
  8
0
 10
-82.6249
 20
-28.9545
 11
-86.1465
 21
-27.0185
  0
LINE
  8
0
 10
-86.1465
 20
-27.0185
 11
-89.3976
 21
-24.6564
  0
LINE
  8
0
 10
-89.3976
 20
-24.6564
 11
-92.327
 21
-21.9055
  0
LINE
  8
0
 10
-92.327
 20
-21.9055
 11
-94.8885
 21
-18.8091
  0
LINE
  8
0
 10
-94.8885
 20
-18.8091
 11
-97.0418
 21
-15.4161
  0
LINE
  8
0
 10
-97.0418
 20
-15.4161
 11
-98.7528
 21
-11.78
  0
LINE
  8
0
 10
-98.7528
 20
-11.78
 11
-99.9947
 21
-7.95807
  0
LINE
  8
0
 10
-99.9947
 20
-7.95807
 11
-100.748
 21
-4.01065
  0
LINE
  8
0
 10
-100.748
 20
-4.01065
 11
-101
 21
0
  0
LINE
  8
0
 10
-101
 20
0
 11
-100.748
 21
4.01065
  0
LINE
  8
0
 10
-100.748
 20
4.01065
 11
-99.9947
 21
7.95807
  0
LINE
  8
0
 10
-99.9947
 20
7.95807
 11
-98.7528
 21
11.78
  0
LINE
  8
0
 10
-98.7528
 20
11.78
 11
-97.0418
 21
15.4161
  0
LINE
  8
0
 10
-97.0418
 20
15.4161
 11
-94.8885
 21
18.8091
  0
LINE
  8
0
 10
-94.8885
 20
18.8091
 11
-92.327
 21
21.9055
  0
LINE
  8
0
 10
-92.327
 20
21.9055
 11
-89.3976
 21
24.6564
  0
LINE
  8
0
 10
-89.3976
 20
24.6564
 11
-86.1465
 21
27.0185
  0
LINE
  8
0
 10
-86.1465
 20
27.0185
 11
-82.6249
 21
28.9545
  0
LINE
  8
0
 10
-82.6249
 20
28.9545
 11
-78.8885
 21
30.4338
  0
LINE
  8
0
 10
-78.8885
 20
30.4338
 11
-74.9962
 21
31.4332
  0
LINE
  8
0
 10
-74.9962
 20
31.4332
 11
-71.0093
 21
31.9368
  0
LINE
  8
0
 10
-71.0093
 20
31.9368
 11
-66.9907
 21
31.9368
  0
LINE
  8
0
 10
-66.9907
 20
31.9368
 11
-63.0038
 21
31.4332
  0
LINE
  8
0
 10
-63.0038
 20
31.4332
 11
-59.1115
 21
30.4338
  0
LINE
  8
0
 10
-59.1115
 20
30.4338
 11
-55.3751
 21
28.9545
  0
LINE
  8
0
 10
-55.3751
 20
28.9545
 11
-51.8535
 21
27.0185
  0
LINE
  8
0
 10
-51.8535
 20
27.0185
 11
-48.6024
 21
24.6564
  0
LINE
  8
0
 10
-48.6024
 20
24.6564
 11
-45.673
 21
21.9055
  0
LINE
  8
0
 10
-45.673
 20
21.9055
 11
-43.1115
 21
18.8091
  0
LINE
  8
0
 10
-43.1115
 20
18.8091
 11
-40.9582
 21
15.4161
  0
LINE
  8
0
 10
-40.9582
 20
15.4161
 11
-39.2471
 21
11.78
  0
LINE
  8
0
 10
-39.2471
 20
11.78
 11
-38.0053
 21
7.95807
  0
LINE
  8
0
 10
-38.0053
 20
7.95807
 11
-37.2523
 21
4.01065
  0
LINE
  8
0
 10
-37.2523
 20
4.01065
 11
-37
 21
0
  0
LINE
  8
0
 10
-37
 20
0
 11
-37.2523
 21
-4.01065
  0
LINE
  8
0
 10
-37.2523
 20
-4.01065
 11
-38.0053
 21
-7.95807
  0
LINE
  8
0
 10
-38.0053
 20
-7.95807
 11
-39.2471
 21
-11.78
  0
LINE
  8
0
 10
-39.2471
 20
-11.78
 11
-40.9582
 21
-15.4161
  0
LINE
  8
0
 10
-40.9582
 20
-15.4161
 11
-43.1115
 21
-18.8091
  0
LINE
  8
0
 10
-43.1115
 20
-18.8091
 11
-45.673
 21
-21.9055
  0
LINE
  8
0
 10
-45.673
 20
-21.9055
 11
-48.6024
 21
-24.6564
  0
LINE
  8
0
 10
-48.6024
 20
-24.6564
 11
-51.8535
 21
-27.0185
  0
LINE
  8
0
 10
-51.8535
 20
-27.0185
 11
-55.3751
 21
-28.9545
  0
LINE
  8
0
 10
-55.3751
 20
-28.9545
 11
-59.1115
 21
-30.4338
  0
LINE
  8
0
 10
-59.1115
 20
-30.4338
 11
-63.0038
 21
-31.4332
  0
LINE
  8
0
 10
-63.0038
 20
-31.4332
 11
-66.9907
 21
-31.9368
  0
LINE
  8
0
 10
-66.9907
 20
-31.9368
 11
-71.0093
 21
-31.9368
  0
LINE
  8
0
 10
66.9907
 20
-31.9368
 11
63.0038
 21
-31.4332
  0
LINE
  8
0
 10
63.0038
 20
-31.4332
 11
59.1115
 21
-30.4338
  0
LINE
  8
0
 10
59.1115
 20
-30.4338
 11
55.3751
 21
-28.9545
  0
LINE
  8
0
 10
55.3751
 20
-28.9545
 11
51.8535
 21
-27.0185
  0
LINE
  8
0
 10
51.8535
 20
-27.0185
 11
48.6024
 21
-24.6564
  0
LINE
  8
0
 10
48.6024
 20
-24.6564
 11
45.673
 21
-21.9055
  0
LINE
  8
0
 10
45.673
 20
-21.9055
 11
43.1115
 21
-18.8091
  0
LINE
  8
0
 10
43.1115
 20
-18.8091
 11
40.9582
 21
-15.4161
  0
LINE
  8
0
 10
40.9582
 20
-15.4161
 11
39.2471
 21
-11.78
  0
LINE
  8
0
 10
39.2471
 20
-11.78
 11
38.0053
 21
-7.95807
  0
LINE
  8
0
 10
38.0053
 20
-7.95807
 11
37.2523
 21
-4.01065
  0
LINE
  8
0
 10
37.2523
 20
-4.01065
 11
37
 21
0
  0
LINE
  8
0
 10
37
 20
0
 11
37.2523
 21
4.01065
  0
LINE
  8
0
 10
37.2523
 20
4.01065
 11
38.0053
 21
7.95807
  0
LINE
  8
0
 10
38.0053
 20
7.95807
 11
39.2471
 21
11.78
  0
LINE
  8
0
 10
39.2471
 20
11.78
 11
40.9582
 21
15.4161
  0
LINE
  8
0
 10
40.9582
 20
15.4161
 11
43.1115
 21
18.8091
  0
LINE
  8
0
 10
43.1115
 20
18.8091
 11
45.673
 21
21.9055
  0
LINE
  8
0
 10
45.673
 20
21.9055
 11
48.6024
 21
24.6564
  0
LINE
  8
0
 10
48.6024
 20
24.6564
 11
51.8535
 21
27.0185
  0
LINE
  8
0
 10
51.8535
 20
27.0185
 11
55.3751
 21
28.9545
  0
LINE
  8
0
 10
55.3751
 20
28.9545
 11
59.1115
 21
30.4338
  0
LINE
  8
0
 10
59.1115
 20
30.4338
 11
63.0038
 21
31.4332
  0
LINE
  8
0
 10
63.0038
 20
31.4332
 11
66.9907
 21
31.9368
  0
LINE
  8
0
 10
66.9907
 20
31.9368
 11
71.0093
 21
31.9368
  0
LINE
  8
0
 10
71.0093
 20
31.9368
 11
74.9962
 21
31.4332
  0
LINE
  8
0
 10
74.9962
 20
31.4332
 11
78.8885
 21
30.4338
  0
LINE
  8
0
 10
78.8885
 20
30.4338
 11
82.6249
 21
28.9545
  0
LINE
  8
0
 10
82.6249
 20
28.9545
 11
86.1465
 21
27.0185
  0
LINE
  8
0
 10
86.1465
 20
27.0185
 11
89.3976
 21
24.6564
  0
LINE
  8
0
 10
89.3976
 20
24.6564
 11
92.327
 21
21.9055
  0
LINE
  8
0
 10
92.327
 20
21.9055
 11
94.8885
 21
18.8091
  0
LINE
  8
0
 10
94.8885
 20
18.8091
 11
97.0418
 21
15.4161
  0
LINE
  8
0
 10
97.0418
 20
15.4161
 11
98.7528
 21
11.78
  0
LINE
  8
0
 10
98.7528
 20
11.78
 11
99.9947
 21
7.95807
  0
LINE
  8
0
 10
99.9947
 20
7.95807
 11
100.748
 21
4.01065
  0
LINE
  8
0
 10
100.748
 20
4.01065
 11
101
 21
0
  0
LINE
  8
0
 10
101
 20
0
 11
100.748
 21
-4.01065
  0
LINE
  8
0
 10
100.748
 20
-4.01065
 11
99.9947
 21
-7.95807
  0
LINE
  8
0
 10
99.9947
 20
-7.95807
 11
98.7528
 21
-11.78
  0
LINE
  8
0
 10
98.7528
 20
-11.78
 11
97.0418
 21
-15.4161
  0
LINE
  8
0
 10
97.0418
 20
-15.4161
 11
94.8885
 21
-18.8091
  0
LINE
  8
0
 10
94.8885
 20
-18.8091
 11
92.327
 21
-21.9055
  0
LINE
  8
0
 10
92.327
 20
-21.9055
 11
89.3976
 21
-24.6564
  0
LINE
  8
0
 10
89.3976
 20
-24.6564
 11
86.1465
 21
-27.0185
  0
LINE
  8
0
 10
86.1465
 20
-27.0185
 11
82.6249
 21
-28.9545
  0
LINE
  8
0
 10
82.6249
 20
-28.9545
 11
78.8885
 21
-30.4338
  0
LINE
  8
0
 10
78.8885
 20
-30.4338
 11
74.9962
 21
-31.4332
  0
LINE
  8
0
 10
74.9962
 20
-31.4332
 11
71.0093
 21
-31.9368
  0
LINE
  8
0
 10
71.0093
 20
-31.9368
 11
66.9907
 21
-31.9368
  0
LINE
  8
0
 10
-140.009
 20
-31.9368
 11
-143.996
 21
-31.4332
  0
LINE
  8
0
 10
-143.996
 20
-31.4332
 11
-147.889
 21
-30.4338
  0
LINE
  8
0
 10
-147.889
 20
-30.4338
 11
-151.625
 21
-28.9545
  0
LINE
  8
0
 10
-151.625
 20
-28.9545
 11
-155.146
 21
-27.0185
  0
LINE
  8
0
 10
-155.146
 20
-27.0185
 11
-158.398
 21
-24.6564
  0
LINE
  8
0
 10
-158.398
 20
-24.6564
 11
-161.327
 21
-21.9055
  0
LINE
  8
0
 10
-161.327
 20
-21.9055
 11
-163.889
 21
-18.8091
  0
LINE
  8
0
 10
-163.889
 20
-18.8091
 11
-166.042
 21
-15.4161
  0
LINE
  8
0
 10
-166.042
 20
-15.4161
 11
-167.753
 21
-11.78
  0
LINE
  8
0
 10
-167.753
 20
-11.78
 11
-168.995
 21
-7.95807
  0
LINE
  8
0
 10
-168.995
 20
-7.95807
 11
-169.748
 21
-4.01065
  0
LINE
  8
0
 10
-169.748
 20
-4.01065
 11
-170
 21
0
  0
LINE
  8
0
 10
-170
 20
0
 11
-169.748
 21
4.01065
  0
LINE
  8
0
 10
-169.748
 20
4.01065
 11
-168.995
 21
7.95807
  0
LINE
  8
0
 10
-168.995
 20
7.95807
 11
-167.753
 21
11.78
  0
LINE
  8
0
 10
-167.753
 20
11.78
 11
-166.042
 21
15.4161
  0
LINE
  8
0
 10
-166.042
 20
15.4161
 11
-163.889
 21
18.8091
  0
LINE
  8
0
 10
-163.889
 20
18.8091
 11
-161.327
 21
21.9055
  0
LINE
  8
0
 10
-161.327
 20
21.9055
 11
-158.398
 21
24.6564
  0
LINE
  8
0
 10
-158.398
 20
24.6564
 11
-155.146
 21
27.0185
  0
LINE
  8
0
 10
-155.146
 20
27.0185
 11
-151.625
 21
28.9545
  0
LINE
  8
0
 10
-151.625
 20
28.9545
 11
-147.889
 21
30.4338
  0
LINE
  8
0
 10
-147.889
 20
30.4338
 11
-143.996
 21
31.4332
  0
LINE
  8
0
 10
-143.996
 20
31.4332
 11
-140.009
 21
31.9368
  0
LINE
  8
0
 10
-140.009
 20
31.9368
 11
-135.991
 21
31.9368
  0
LINE
  8
0
 10
-135.991
 20
31.9368
 11
-132.004
 21
31.4332
  0
LINE
  8
0
 10
-132.004
 20
31.4332
 11
-128.111
 21
30.4338
  0
LINE
  8
0
 10
-128.111
 20
30.4338
 11
-124.375
 21
28.9545
  0
LINE
  8
0
 10
-124.375
 20
28.9545
 11
-120.854
 21
27.0185
  0
LINE
  8
0
 10
-120.854
 20
27.0185
 11
-117.602
 21
24.6564
  0
LINE
  8
0
 10
-117.602
 20
24.6564
 11
-114.673
 21
21.9055
  0
LINE
  8
0
 10
-114.673
 20
21.9055
 11
-112.111
 21
18.8091
  0
LINE
  8
0
 10
-112.111
 20
18.8091
 11
-109.958
 21
15.4161
  0
LINE
  8
0
 10
-109.958
 20
15.4161
 11
-108.247
 21
11.78
  0
LINE
  8
0
 10
-108.247
 20
11.78
 11
-107.005
 21
7.95807
  0
LINE
  8
0
 10
-107.005
 20
7.95807
 11
-106.252
 21
4.01065
  0
LINE
  8
0
 10
-106.252
 20
4.01065
 11
-106
 21
0
  0
LINE
  8
0
 10
-106
 20
0
 11
-106.252
 21
-4.01065
  0
LINE
  8
0
 10
-106.252
 20
-4.01065
 11
-107.005
 21
-7.95807
  0
LINE
  8
0
 10
-107.005
 20
-7.95807
 11
-108.247
 21
-11.78
  0
LINE
  8
0
 10
-108.247
 20
-11.78
 11
-109.958
 21
-15.4161
  0
LINE
  8
0
 10
-109.958
 20
-15.4161
 11
-112.111
 21
-18.8091
  0
LINE
  8
0
 10
-112.111
 20
-18.8091
 11
-114.673
 21
-21.9055
  0
LINE
  8
0
 10
-114.673
 20
-21.9055
 11
-117.602
 21
-24.6564
  0
LINE
  8
0
 10
-117.602
 20
-24.6564
 11
-120.854
 21
-27.0185
  0
LINE
  8
0
 10
-120.854
 20
-27.0185
 11
-124.375
 21
-28.9545
  0
LINE
  8
0
 10
-124.375
 20
-28.9545
 11
-128.111
 21
-30.4338
  0
LINE
  8
0
 10
-128.111
 20
-30.4338
 11
-132.004
 21
-31.4332
  0
LINE
  8
0
 10
-132.004
 20
-31.4332
 11
-135.991
 21
-31.9368
  0
LINE
  8
0
 10
-135.991
 20
-31.9368
 11
-140.009
 21
-31.9368
  0
LINE
  8
0
 10
-2.00929
 20
-31.9368
 11
-5.9962
 21
-31.4332
  0
LINE
  8
0
 10
-5.9962
 20
-31.4332
 11
-9.88853
 21
-30.4338
  0
LINE
  8
0
 10
-9.88853
 20
-30.4338
 11
-13.6249
 21
-28.9545
  0
LINE
  8
0
 10
-13.6249
 20
-28.9545
 11
-17.1465
 21
-27.0185
  0
LINE
  8
0
 10
-17.1465
 20
-27.0185
 11
-20.3976
 21
-24.6564
  0
LINE
  8
0
 10
-20.3976
 20
-24.6564
 11
-23.327
 21
-21.9055
  0
LINE
  8
0
 10
-23.327
 20
-21.9055
 11
-25.8885
 21
-18.8091
  0
LINE
  8
0
 10
-25.8885
 20
-18.8091
 11
-28.0418
 21
-15.4161
  0
LINE
  8
0
 10
-28.0418
 20
-15.4161
 11
-29.7528
 21
-11.78
  0
LINE
  8
0
 10
-29.7528
 20
-11.78
 11
-30.9947
 21
-7.95807
  0
LINE
  8
0
 10
-30.9947
 20
-7.95807
 11
-31.7477
 21
-4.01065
  0
LINE
  8
0
 10
-31.7477
 20
-4.01065
 11
-32
 21
0
  0
LINE
  8
0
 10
-32
 20
0
 11
-31.7477
 21
4.01065
  0
LINE
  8
0
 10
-31.7477
 20
4.01065
 11
-30.9947
 21
7.95807
  0
LINE
  8
0
 10
-30.9947
 20
7.95807
 11
-29.7528
 21
11.78
  0
LINE
  8
0
 10
-29.7528
 20
11.78
 11
-28.0418
 21
15.4161
  0
LINE
  8
0
 10
-28.0418
 20
15.4161
 11
-25.8885
 21
18.8091
  0
LINE
  8
0
 10
-25.8885
 20
18.8091
 11
-23.327
 21
21.9055
  0
LINE
  8
0
 10
-23.327
 20
21.9055
 11
-20.3976
 21
24.6564
  0
LINE
  8
0
 10
-20.3976
 20
24.6564
 11
-17.1465
 21
27.0185
  0
LINE
  8
0
 10
-17.1465
 20
27.0185
 11
-13.6249
 21
28.9545
  0
LINE
  8
0
 10
-13.6249
 20
28.9545
 11
-9.88853
 21
30.4338
  0
LINE
  8
0
 10
-9.88853
 20
30.4338
 11
-5.9962
 21
31.4332
  0
LINE
  8
0
 10
-5.9962
 20
31.4332
 11
-2.00929
 21
31.9368
  0
LINE
  8
0
 10
-2.00929
 20
31.9368
 11
2.00929
 21
31.9368
  0
LINE
  8
0
 10
2.00929
 20
31.9368
 11
5.9962
 21
31.4332
  0
LINE
  8
0
 10
5.9962
 20
31.4332
 11
9.88853
 21
30.4338
  0
LINE
  8
0
 10
9.88853
 20
30.4338
 11
13.6249
 21
28.9545
  0
LINE
  8
0
 10
13.6249
 20
28.9545
 11
17.1465
 21
27.0185
  0
LINE
  8
0
 10
17.1465
 20
27.0185
 11
20.3976
 21
24.6564
  0
LINE
  8
0
 10
20.3976
 20
24.6564
 11
23.327
 21
21.9055
  0
LINE
  8
0
 10
23.327
 20
21.9055
 11
25.8885
 21
18.8091
  0
LINE
  8
0
 10
25.8885
 20
18.8091
 11
28.0418
 21
15.4161
  0
LINE
  8
0
 10
28.0418
 20
15.4161
 11
29.7528
 21
11.78
  0
LINE
  8
0
 10
29.7528
 20
11.78
 11
30.9947
 21
7.95807
  0
LINE
  8
0
 10
30.9947
 20
7.95807
 11
31.7477
 21
4.01065
  0
LINE
  8
0
 10
31.7477
 20
4.01065
 11
32
 21
0
  0
LINE
  8
0
 10
32
 20
0
 11
31.7477
 21
-4.01065
  0
LINE
  8
0
 10
31.7477
 20
-4.01065
 11
30.9947
 21
-7.95807
  0
LINE
  8
0
 10
30.9947
 20
-7.95807
 11
29.7528
 21
-11.78
  0
LINE
  8
0
 10
29.7528
 20
-11.78
 11
28.0418
 21
-15.4161
  0
LINE
  8
0
 10
28.0418
 20
-15.4161
 11
25.8885
 21
-18.8091
  0
LINE
  8
0
 10
25.8885
 20
-18.8091
 11
23.327
 21
-21.9055
  0
LINE
  8
0
 10
23.327
 20
-21.9055
 11
20.3976
 21
-24.6564
  0
LINE
  8
0
 10
20.3976
 20
-24.6564
 11
17.1465
 21
-27.0185
  0
LINE
  8
0
 10
17.1465
 20
-27.0185
 11
13.6249
 21
-28.9545
  0
LINE
  8
0
 10
13.6249
 20
-28.9545
 11
9.88853
 21
-30.4338
  0
LINE
  8
0
 10
9.88853
 20
-30.4338
 11
5.9962
 21
-31.4332
  0
LINE
  8
0
 10
5.9962
 20
-31.4332
 11
2.00929
 21
-31.9368
  0
LINE
  8
0
 10
2.00929
 20
-31.9368
 11
-2.00929
 21
-31.9368
  0
LINE
  8
0
 10
135.991
 20
-31.9368
 11
132.004
 21
-31.4332
  0
LINE
  8
0
 10
132.004
 20
-31.4332
 11
128.111
 21
-30.4338
  0
LINE
  8
0
 10
128.111
 20
-30.4338
 11
124.375
 21
-28.9545
  0
LINE
  8
0
 10
124.375
 20
-28.9545
 11
120.854
 21
-27.0185
  0
LINE
  8
0
 10
120.854
 20
-27.0185
 11
117.602
 21
-24.6564
  0
LINE
  8
0
 10
117.602
 20
-24.6564
 11
114.673
 21
-21.9055
  0
LINE
  8
0
 10
114.673
 20
-21.9055
 11
112.111
 21
-18.8091
  0
LINE
  8
0
 10
112.111
 20
-18.8091
 11
109.958
 21
-15.4161
  0
LINE
  8
0
 10
109.958
 20
-15.4161
 11
108.247
 21
-11.78
  0
LINE
  8
0
 10
108.247
 20
-11.78
 11
107.005
 21
-7.95807
  0
LINE
  8
0
 10
107.005
 20
-7.95807
 11
106.252
 21
-4.01065
  0
LINE
  8
0
 10
106.252
 20
-4.01065
 11
106
 21
0
  0
LINE
  8
0
 10
106
 20
0
 11
106.252
 21
4.01065
  0
LINE
  8
0
 10
106.252
 20
4.01065
 11
107.005
 21
7.95807
  0
LINE
  8
0
 10
107.005
 20
7.95807
 11
108.247
 21
11.78
  0
LINE
  8
0
 10
108.247
 20
11.78
 11
109.958
 21
15.4161
  0
LINE
  8
0
 10
109.958
 20
15.4161
 11
112.111
 21
18.8091
  0
LINE
  8
0
 10
112.111
 20
18.8091
 11
114.673
 21
21.9055
  0
LINE
  8
0
 10
114.673
 20
21.9055
 11
117.602
 21
24.6564
  0
LINE
  8
0
 10
117.602
 20
24.6564
 11
120.854
 21
27.0185
  0
LINE
  8
0
 10
120.854
 20
27.0185
 11
124.375
 21
28.9545
  0
LINE
  8
0
 10
124.375
 20
28.9545
 11
128.111
 21
30.4338
  0
LINE
  8
0
 10
128.111
 20
30.4338
 11
132.004
 21
31.4332
  0
LINE
  8
0
 10
132.004
 20
31.4332
 11
135.991
 21
31.9368
  0
LINE
  8
0
 10
135.991
 20
31.9368
 11
140.009
 21
31.9368
  0
LINE
  8
0
 10
140.009
 20
31.9368
 11
143.996
 21
31.4332
  0
LINE
  8
0
 10
143.996
 20
31.4332
 11
147.889
 21
30.4338
  0
LINE
  8
0
 10
147.889
 20
30.4338
 11
151.625
 21
28.9545
  0
LINE
  8
0
 10
151.625
 20
28.9545
 11
155.146
 21
27.0185
  0
LINE
  8
0
 10
155.146
 20
27.0185
 11
158.398
 21
24.6564
  0
LINE
  8
0
 10
158.398
 20
24.6564
 11
161.327
 21
21.9055
  0
LINE
  8
0
 10
161.327
 20
21.9055
 11
163.889
 21
18.8091
  0
LINE
  8
0
 10
163.889
 20
18.8091
 11
166.042
 21
15.4161
  0
LINE
  8
0
 10
166.042
 20
15.4161
 11
167.753
 21
11.78
  0
LINE
  8
0
 10
167.753
 20
11.78
 11
168.995
 21
7.95807
  0
LINE
  8
0
 10
168.995
 20
7.95807
 11
169.748
 21
4.01065
  0
LINE
  8
0
 10
169.748
 20
4.01065
 11
170
 21
0
  0
LINE
  8
0
 10
170
 20
0
 11
169.748
 21
-4.01065
  0
LINE
  8
0
 10
169.748
 20
-4.01065
 11
168.995
 21
-7.95807
  0
LINE
  8
0
 10
168.995
 20
-7.95807
 11
167.753
 21
-11.78
  0
LINE
  8
0
 10
167.753
 20
-11.78
 11
166.042
 21
-15.4161
  0
LINE
  8
0
 10
166.042
 20
-15.4161
 11
163.889
 21
-18.8091
  0
LINE
  8
0
 10
163.889
 20
-18.8091
 11
161.327
 21
-21.9055
  0
LINE
  8
0
 10
161.327
 20
-21.9055
 11
158.398
 21
-24.6564
  0
LINE
  8
0
 10
158.398
 20
-24.6564
 11
155.146
 21
-27.0185
  0
LINE
  8
0
 10
155.146
 20
-27.0185
 11
151.625
 21
-28.9545
  0
LINE
  8
0
 10
151.625
 20
-28.9545
 11
147.889
 21
-30.4338
  0
LINE
  8
0
 10
147.889
 20
-30.4338
 11
143.996
 21
-31.4332
  0
LINE
  8
0
 10
143.996
 20
-31.4332
 11
140.009
 21
-31.9368
  0
LINE
  8
0
 10
140.009
 20
-31.9368
 11
135.991
 21
-31.9368
  0
LINE
  8
0
 10
-180.094
 20
21.003
 11
-180.281
 21
21.0266
  0
LINE
  8
0
 10
-180.281
 20
21.0266
 11
-180.464
 21
21.0734
  0
LINE
  8
0
 10
-180.464
 20
21.0734
 11
-180.639
 21
21.1427
  0
LINE
  8
0
 10
-180.639
 20
21.1427
 11
-180.804
 21
21.2335
  0
LINE
  8
0
 10
-180.804
 20
21.2335
 11
-180.956
 21
21.3442
  0
LINE
  8
0
 10
-180.956
 20
21.3442
 11
-181.093
 21
21.4732
  0
LINE
  8
0
 10
-181.093
 20
21.4732
 11
-181.214
 21
21.6183
  0
LINE
  8
0
 10
-181.214
 20
21.6183
 11
-181.314
 21
21.7774
  0
LINE
  8
0
 10
-181.314
 20
21.7774
 11
-181.395
 21
21.9478
  0
LINE
  8
0
 10
-181.395
 20
21.9478
 11
-181.453
 21
22.127
  0
LINE
  8
0
 10
-181.453
 20
22.127
 11
-181.488
 21
22.312
  0
LINE
  8
0
 10
-181.488
 20
22.312
 11
-181.5
 21
22.5
  0
LINE
  8
0
 10
-181.5
 20
22.5
 11
-181.488
 21
22.688
  0
LINE
  8
0
 10
-181.488
 20
22.688
 11
-181.453
 21
22.873
  0
LINE
  8
0
 10
-181.453
 20
22.873
 11
-181.395
 21
23.0522
  0
LINE
  8
0
 10
-181.395
 20
23.0522
 11
-181.314
 21
23.2226
  0
LINE
  8
0
 10
-181.314
 20
23.2226
 11
-181.214
 21
23.3817
  0
LINE
  8
0
 10
-181.214
 20
23.3817
 11
-181.093
 21
23.5268
  0
LINE
  8
0
 10
-181.093
 20
23.5268
 11
-180.956
 21
23.6558
  0
LINE
  8
0
 10
-180.956
 20
23.6558
 11
-180.804
 21
23.7665
  0
LINE
  8
0
 10
-180.804
 20
23.7665
 11
-180.639
 21
23.8572
  0
LINE
  8
0
 10
-180.639
 20
23.8572
 11
-180.464
 21
23.9266
  0
LINE
  8
0
 10
-180.464
 20
23.9266
 11
-180.281
 21
23.9734
  0
LINE
  8
0
 10
-180.281
 20
23.9734
 11
-180.094
 21
23.997
  0
LINE
  8
0
 10
-180.094
 20
23.997
 11
-179.906
 21
23.997
  0
LINE
  8
0
 10
-179.906
 20
23.997
 11
-179.719
 21
23.9734
  0
LINE
  8
0
 10
-179.719
 20
23.9734
 11
-179.536
 21
23.9266
  0
LINE
  8
0
 10
-179.536
 20
23.9266
 11
-179.361
 21
23.8572
  0
LINE
  8
0
 10
-179.361
 20
23.8572
 11
-179.196
 21
23.7665
  0
LINE
  8
0
 10
-179.196
 20
23.7665
 11
-179.044
 21
23.6558
  0
LINE
  8
0
 10
-179.044
 20
23.6558
 11
-178.907
 21
23.5268
  0
LINE
  8
0
 10
-178.907
 20
23.5268
 11
-178.786
 21
23.3817
  0
LINE
  8
0
 10
-178.786
 20
23.3817
 11
-178.686
 21
23.2226
  0
LINE
  8
0
 10
-178.686
 20
23.2226
 11
-178.605
 21
23.0522
  0
LINE
  8
0
 10
-178.605
 20
23.0522
 11
-178.547
 21
22.873
  0
LINE
  8
0
 10
-178.547
 20
22.873
 11
-178.512
 21
22.688
  0
LINE
  8
0
 10
-178.512
 20
22.688
 11
-178.5
 21
22.5
  0
LINE
  8
0
 10
-178.5
 20
22.5
 11
-178.512
 21
22.312
  0
LINE
  8
0
 10
-178.512
 20
22.312
 11
-178.547
 21
22.127
  0
LINE
  8
0
 10
-178.547
 20
22.127
 11
-178.605
 21
21.9478
  0
LINE
  8
0
 10
-178.605
 20
21.9478
 11
-178.686
 21
21.7774
  0
LINE
  8
0
 10
-178.686
 20
21.7774
 11
-178.786
 21
21.6183
  0
LINE
  8
0
 10
-178.786
 20
21.6183
 11
-178.907
 21
21.4732
  0
LINE
  8
0
 10
-178.907
 20
21.4732
 11
-179.044
 21
21.3442
  0
LINE
  8
0
 10
-179.044
 20
21.3442
 11
-179.196
 21
21.2335
  0
LINE
  8
0
 10
-179.196
 20
21.2335
 11
-179.361
 21
21.1427
  0
LINE
  8
0
 10
-179.361
 20
21.1427
 11
-179.536
 21
21.0734
  0
LINE
  8
0
 10
-179.536
 20
21.0734
 11
-179.719
 21
21.0266
  0
LINE
  8
0
 10
-179.719
 20
21.0266
 11
-179.906
 21
21.003
  0
LINE
  8
0
 10
-179.906
 20
21.003
 11
-180.094
 21
21.003
  0
LINE
  8
0
 10
179.906
 20
21.003
 11
179.719
 21
21.0266
  0
LINE
  8
0
 10
179.719
 20
21.0266
 11
179.536
 21
21.0734
  0
LINE
  8
0
 10
179.536
 20
21.0734
 11
179.361
 21
21.1427
  0
LINE
  8
0
 10
179.361
 20
21.1427
 11
179.196
 21
21.2335
  0
LINE
  8
0
 10
179.196
 20
21.2335
 11
179.044
 21
21.3442
  0
LINE
  8
0
 10
179.044
 20
21.3442
 11
178.907
 21
21.4732
  0
LINE
  8
0
 10
178.907
 20
21.4732
 11
178.786
 21
21.6183
  0
LINE
  8
0
 10
178.786
 20
21.6183
 11
178.686
 21
21.7774
  0
LINE
  8
0
 10
178.686
 20
21.7774
 11
178.605
 21
21.9478
  0
LINE
  8
0
 10
178.605
 20
21.9478
 11
178.547
 21
22.127
  0
LINE
  8
0
 10
178.547
 20
22.127
 11
178.512
 21
22.312
  0
LINE
  8
0
 10
178.512
 20
22.312
 11
178.5
 21
22.5
  0
LINE
  8
0
 10
178.5
 20
22.5
 11
178.512
 21
22.688
  0
LINE
  8
0
 10
178.512
 20
22.688
 11
178.547
 21
22.873
  0
LINE
  8
0
 10
178.547
 20
22.873
 11
178.605
 21
23.0522
  0
LINE
  8
0
 10
178.605
 20
23.0522
 11
178.686
 21
23.2226
  0
LINE
  8
0
 10
178.686
 20
23.2226
 11
178.786
 21
23.3817
  0
LINE
  8
0
 10
178.786
 20
23.3817
 11
178.907
 21
23.5268
  0
LINE
  8
0
 10
178.907
 20
23.5268
 11
179.044
 21
23.6558
  0
LINE
  8
0
 10
179.044
 20
23.6558
 11
179.196
 21
23.7665
  0
LINE
  8
0
 10
179.196
 20
23.7665
 11
179.361
 21
23.8572
  0
LINE
  8
0
 10
179.361
 20
23.8572
 11
179.536
 21
23.9266
  0
LINE
  8
0
 10
179.536
 20
23.9266
 11
179.719
 21
23.9734
  0
LINE
  8
0
 10
179.719
 20
23.9734
 11
179.906
 21
23.997
  0
LINE
  8
0
 10
179.906
 20
23.997
 11
180.094
 21
23.997
  0
LINE
  8
0
 10
180.094
 20
23.997
 11
180.281
 21
23.9734
  0
LINE
  8
0
 10
180.281
 20
23.9734
 11
180.464
 21
23.9266
  0
LINE
  8
0
 10
180.464
 20
23.9266
 11
180.639
 21
23.8572
  0
LINE
  8
0
 10
180.639
 20
23.8572
 11
180.804
 21
23.7665
  0
LINE
  8
0
 10
180.804
 20
23.7665
 11
180.956
 21
23.6558
  0
LINE
  8
0
 10
180.956
 20
23.6558
 11
181.093
 21
23.5268
  0
LINE
  8
0
 10
181.093
 20
23.5268
 11
181.214
 21
23.3817
  0
LINE
  8
0
 10
181.214
 20
23.3817
 11
181.314
 21
23.2226
  0
LINE
  8
0
 10
181.314
 20
23.2226
 11
181.395
 21
23.0522
  0
LINE
  8
0
 10
181.395
 20
23.0522
 11
181.453
 21
22.873
  0
LINE
  8
0
 10
181.453
 20
22.873
 11
181.488
 21
22.688
  0
LINE
  8
0
 10
181.488
 20
22.688
 11
181.5
 21
22.5
  0
LINE
  8
0
 10
181.5
 20
22.5
 11
181.488
 21
22.312
  0
LINE
  8
0
 10
181.488
 20
22.312
 11
181.453
 21
22.127
  0
LINE
  8
0
 10
181.453
 20
22.127
 11
181.395
 21
21.9478
  0
LINE
  8
0
 10
181.395
 20
21.9478
 11
181.314
 21
21.7774
  0
LINE
  8
0
 10
181.314
 20
21.7774
 11
181.214
 21
21.6183
  0
LINE
  8
0
 10
181.214
 20
21.6183
 11
181.093
 21
21.4732
  0
LINE
  8
0
 10
181.093
 20
21.4732
 11
180.956
 21
21.3442
  0
LINE
  8
0
 10
180.956
 20
21.3442
 11
180.804
 21
21.2335
  0
LINE
  8
0
 10
180.804
 20
21.2335
 11
180.639
 21
21.1427
  0
LINE
  8
0
 10
180.639
 20
21.1427
 11
180.464
 21
21.0734
  0
LINE
  8
0
 10
180.464
 20
21.0734
 11
180.281
 21
21.0266
  0
LINE
  8
0
 10
180.281
 20
21.0266
 11
180.094
 21
21.003
  0
LINE
  8
0
 10
180.094
 20
21.003
 11
179.906
 21
21.003
  0
LINE
  8
0
 10
179.812
 20
12.0059
 11
179.438
 21
12.0531
  0
LINE
  8
0
 10
179.438
 20
12.0531
 11
179.073
 21
12.1468
  0
LINE
  8
0
 10
179.073
 20
12.1468
 11
178.723
 21
12.2855
  0
LINE
  8
0
 10
178.723
 20
12.2855
 11
178.393
 21
12.467
  0
LINE
  8
0
 10
178.393
 20
12.467
 11
178.088
 21
12.6884
  0
LINE
  8
0
 10
178.088
 20
12.6884
 11
177.813
 21
12.9464
  0
LINE
  8
0
 10
177.813
 20
12.9464
 11
177.573
 21
13.2366
  0
LINE
  8
0
 10
177.573
 20
13.2366
 11
177.371
 21
13.5547
  0
LINE
  8
0
 10
177.371
 20
13.5547
 11
177.211
 21
13.8956
  0
LINE
  8
0
 10
177.211
 20
13.8956
 11
177.094
 21
14.2539
  0
LINE
  8
0
 10
177.094
 20
14.2539
 11
177.024
 21
14.624
  0
LINE
  8
0
 10
177.024
 20
14.624
 11
177
 21
15
  0
LINE
  8
0
 10
177
 20
15
 11
177.024
 21
15.376
  0
LINE
  8
0
 10
177.024
 20
15.376
 11
177.094
 21
15.7461
  0
LINE
  8
0
 10
177.094
 20
15.7461
 11
177.211
 21
16.1044
  0
LINE
  8
0
 10
177.211
 20
16.1044
 11
177.371
 21
16.4453
  0
LINE
  8
0
 10
177.371
 20
16.4453
 11
177.573
 21
16.7634
  0
LINE
  8
0
 10
177.573
 20
16.7634
 11
177.813
 21
17.0536
  0
LINE
  8
0
 10
177.813
 20
17.0536
 11
178.088
 21
17.3115
  0
LINE
  8
0
 10
178.088
 20
17.3115
 11
178.393
 21
17.533
  0
LINE
  8
0
 10
178.393
 20
17.533
 11
178.723
 21
17.7145
  0
LINE
  8
0
 10
178.723
 20
17.7145
 11
179.073
 21
17.8532
  0
LINE
  8
0
 10
179.073
 20
17.8532
 11
179.438
 21
17.9469
  0
LINE
  8
0
 10
179.438
 20
17.9469
 11
179.812
 21
17.9941
  0
LINE
  8
0
 10
179.812
 20
17.9941
 11
180.188
 21
17.9941
  0
LINE
  8
0
 10
180.188
 20
17.9941
 11
180.562
 21
17.9469
  0
LINE
  8
0
 10
180.562
 20
17.9469
 11
180.927
 21
17.8532
  0
LINE
  8
0
 10
180.927
 20
17.8532
 11
181.277
 21
17.7145
  0
LINE
  8
0
 10
181.277
 20
17.7145
 11
181.607
 21
17.533
  0
LINE
  8
0
 10
181.607
 20
17.533
 11
181.912
 21
17.3115
  0
LINE
  8
0
 10
181.912
 20
17.3115
 11
182.187
 21
17.0536
  0
LINE
  8
0
 10
182.187
 20
17.0536
 11
182.427
 21
16.7634
  0
LINE
  8
0
 10
182.427
 20
16.7634
 11
182.629
 21
16.4453
  0
LINE
  8
0
 10
182.629
 20
16.4453
 11
182.789
 21
16.1044
  0
LINE
  8
0
 10
182.789
 20
16.1044
 11
182.906
 21
15.7461
  0
LINE
  8
0
 10
182.906
 20
15.7461
 11
182.976
 21
15.376
  0
LINE
  8
0
 10
182.976
 20
15.376
 11
183
 21
15
  0
LINE
  8
0
 10
183
 20
15
 11
182.976
 21
14.624
  0
LINE
  8
0
 10
182.976
 20
14.624
 11
182.906
 21
14.2539
  0
LINE
  8
0
 10
182.906
 20
14.2539
 11
182.789
 21
13.8956
  0
LINE
  8
0
 10
182.789
 20
13.8956
 11
182.629
 21
13.5547
  0
LINE
  8
0
 10
182.629
 20
13.5547
 11
182.427
 21
13.2366
  0
LINE
  8
0
 10
182.427
 20
13.2366
 11
182.187
 21
12.9464
  0
LINE
  8
0
 10
182.187
 20
12.9464
 11
181.912
 21
12.6884
  0
LINE
  8
0
 10
181.912
 20
12.6884
 11
181.607
 21
12.467
  0
LINE
  8
0
 10
181.607
 20
12.467
 11
181.277
 21
12.2855
  0
LINE
  8
0
 10
181.277
 20
12.2855
 11
180.927
 21
12.1468
  0
LINE
  8
0
 10
180.927
 20
12.1468
 11
180.562
 21
12.0531
  0
LINE
  8
0
 10
180.562
 20
12.0531
 11
180.188
 21
12.0059
  0
LINE
  8
0
 10
180.188
 20
12.0059
 11
179.812
 21
12.0059
  0
LINE
  8
0
 10
-180.188
 20
12.0059
 11
-180.562
 21
12.0531
  0
LINE
  8
0
 10
-180.562
 20
12.0531
 11
-180.927
 21
12.1468
  0
LINE
  8
0
 10
-180.927
 20
12.1468
 11
-181.277
 21
12.2855
  0
LINE
  8
0
 10
-181.277
 20
12.2855
 11
-181.607
 21
12.467
  0
LINE
  8
0
 10
-181.607
 20
12.467
 11
-181.912
 21
12.6884
  0
LINE
  8
0
 10
-181.912
 20
12.6884
 11
-182.187
 21
12.9464
  0
LINE
  8
0
 10
-182.187
 20
12.9464
 11
-182.427
 21
13.2366
  0
LINE
  8
0
 10
-182.427
 20
13.2366
 11
-182.629
 21
13.5547
  0
LINE
  8
0
 10
-182.629
 20
13.5547
 11
-182.789
 21
13.8956
  0
LINE
  8
0
 10
-182.789
 20
13.8956
 11
-182.906
 21
14.2539
  0
LINE
  8
0
 10
-182.906
 20
14.2539
 11
-182.976
 21
14.624
  0
LINE
  8
0
 10
-182.976
 20
14.624
 11
-183
 21
15
  0
LINE
  8
0
 10
-183
 20
15
 11
-182.976
 21
15.376
  0
LINE
  8
0
 10
-182.976
 20
15.376
 11
-182.906
 21
15.7461
  0
LINE
  8
0
 10
-182.906
 20
15.7461
 11
-182.789
 21
16.1044
  0
LINE
  8
0
 10
-182.789
 20
16.1044
 11
-182.629
 21
16.4453
  0
LINE
  8
0
 10
-182.629
 20
16.4453
 11
-182.427
 21
16.7634
  0
LINE
  8
0
 10
-182.427
 20
16.7634
 11
-182.187
 21
17.0536
  0
LINE
  8
0
 10
-182.187
 20
17.0536
 11
-181.912
 21
17.3115
  0
LINE
  8
0
 10
-181.912
 20
17.3115
 11
-181.607
 21
17.533
  0
LINE
  8
0
 10
-181.607
 20
17.533
 11
-181.277
 21
17.7145
  0
LINE
  8
0
 10
-181.277
 20
17.7145
 11
-180.927
 21
17.8532
  0
LINE
  8
0
 10
-180.927
 20
17.8532
 11
-180.562
 21
17.9469
  0
LINE
  8
0
 10
-180.562
 20
17.9469
 11
-180.188
 21
17.9941
  0
LINE
  8
0
 10
-180.188
 20
17.9941
 11
-179.812
 21
17.9941
  0
LINE
  8
0
 10
-179.812
 20
17.9941
 11
-179.438
 21
17.9469
  0
LINE
  8
0
 10
-179.438
 20
17.9469
 11
-179.073
 21
17.8532
  0
LINE
  8
0
 10
-179.073
 20
17.8532
 11
-178.723
 21
17.7145
  0
LINE
  8
0
 10
-178.723
 20
17.7145
 11
-178.393
 21
17.533
  0
LINE
  8
0
 10
-178.393
 20
17.533
 11
-178.088
 21
17.3115
  0
LINE
  8
0
 10
-178.088
 20
17.3115
 11
-177.813
 21
17.0536
  0
LINE
  8
0
 10
-177.813
 20
17.0536
 11
-177.573
 21
16.7634
  0
LINE
  8
0
 10
-177.573
 20
16.7634
 11
-177.371
 21
16.4453
  0
LINE
  8
0
 10
-177.371
 20
16.4453
 11
-177.211
 21
16.1044
  0
LINE
  8
0
 10
-177.211
 20
16.1044
 11
-177.094
 21
15.7461
  0
LINE
  8
0
 10
-177.094
 20
15.7461
 11
-177.024
 21
15.376
  0
LINE
  8
0
 10
-177.024
 20
15.376
 11
-177
 21
15
  0
LINE
  8
0
 10
-177
 20
15
 11
-177.024
 21
14.624
  0
LINE
  8
0
 10
-177.024
 20
14.624
 11
-177.094
 21
14.2539
  0
LINE
  8
0
 10
-177.094
 20
14.2539
 11
-177.211
 21
13.8956
  0
LINE
  8
0
 10
-177.211
 20
13.8956
 11
-177.371
 21
13.5547
  0
LINE
  8
0
 10
-177.371
 20
13.5547
 11
-177.573
 21
13.2366
  0
LINE
  8
0
 10
-177.573
 20
13.2366
 11
-177.813
 21
12.9464
  0
LINE
  8
0
 10
-177.813
 20
12.9464
 11
-178.088
 21
12.6884
  0
LINE
  8
0
 10
-178.088
 20
12.6884
 11
-178.393
 21
12.467
  0
LINE
  8
0
 10
-178.393
 20
12.467
 11
-178.723
 21
12.2855
  0
LINE
  8
0
 10
-178.723
 20
12.2855
 11
-179.073
 21
12.1468
  0
LINE
  8
0
 10
-179.073
 20
12.1468
 11
-179.438
 21
12.0531
  0
LINE
  8
0
 10
-179.438
 20
12.0531
 11
-179.812
 21
12.0059
  0
LINE
  8
0
 10
-179.812
 20
12.0059
 11
-180.188
 21
12.0059
  0
LINE
  8
0
 10
-180.094
 20
6.00294
 11
-180.281
 21
6.02657
  0
LINE
  8
0
 10
-180.281
 20
6.02657
 11
-180.464
 21
6.07341
  0
LINE
  8
0
 10
-180.464
 20
6.07341
 11
-180.639
 21
6.14275
  0
LINE
  8
0
 10
-180.639
 20
6.14275
 11
-180.804
 21
6.23351
  0
LINE
  8
0
 10
-180.804
 20
6.23351
 11
-180.956
 21
6.34422
  0
LINE
  8
0
 10
-180.956
 20
6.34422
 11
-181.093
 21
6.47318
  0
LINE
  8
0
 10
-181.093
 20
6.47318
 11
-181.214
 21
6.61832
  0
LINE
  8
0
 10
-181.214
 20
6.61832
 11
-181.314
 21
6.77736
  0
LINE
  8
0
 10
-181.314
 20
6.77736
 11
-181.395
 21
6.9478
  0
LINE
  8
0
 10
-181.395
 20
6.9478
 11
-181.453
 21
7.12695
  0
LINE
  8
0
 10
-181.453
 20
7.12695
 11
-181.488
 21
7.312
  0
LINE
  8
0
 10
-181.488
 20
7.312
 11
-181.5
 21
7.5
  0
LINE
  8
0
 10
-181.5
 20
7.5
 11
-181.488
 21
7.68799
  0
LINE
  8
0
 10
-181.488
 20
7.68799
 11
-181.453
 21
7.87303
  0
LINE
  8
0
 10
-181.453
 20
7.87303
 11
-181.395
 21
8.05219
  0
LINE
  8
0
 10
-181.395
 20
8.05219
 11
-181.314
 21
8.22263
  0
LINE
  8
0
 10
-181.314
 20
8.22263
 11
-181.214
 21
8.38167
  0
LINE
  8
0
 10
-181.214
 20
8.38167
 11
-181.093
 21
8.52681
  0
LINE
  8
0
 10
-181.093
 20
8.52681
 11
-180.956
 21
8.65576
  0
LINE
  8
0
 10
-180.956
 20
8.65576
 11
-180.804
 21
8.76648
  0
LINE
  8
0
 10
-180.804
 20
8.76648
 11
-180.639
 21
8.85724
  0
LINE
  8
0
 10
-180.639
 20
8.85724
 11
-180.464
 21
8.92657
  0
LINE
  8
0
 10
-180.464
 20
8.92657
 11
-180.281
 21
8.97342
  0
LINE
  8
0
 10
-180.281
 20
8.97342
 11
-180.094
 21
8.99704
  0
LINE
  8
0
 10
-180.094
 20
8.99704
 11
-179.906
 21
8.99704
  0
LINE
  8
0
 10
-179.906
 20
8.99704
 11
-179.719
 21
8.97342
  0
LINE
  8
0
 10
-179.719
 20
8.97342
 11
-179.536
 21
8.92657
  0
LINE
  8
0
 10
-179.536
 20
8.92657
 11
-179.361
 21
8.85724
  0
LINE
  8
0
 10
-179.361
 20
8.85724
 11
-179.196
 21
8.76648
  0
LINE
  8
0
 10
-179.196
 20
8.76648
 11
-179.044
 21
8.65576
  0
LINE
  8
0
 10
-179.044
 20
8.65576
 11
-178.907
 21
8.52681
  0
LINE
  8
0
 10
-178.907
 20
8.52681
 11
-178.786
 21
8.38167
  0
LINE
  8
0
 10
-178.786
 20
8.38167
 11
-178.686
 21
8.22263
  0
LINE
  8
0
 10
-178.686
 20
8.22263
 11
-178.605
 21
8.05219
  0
LINE
  8
0
 10
-178.605
 20
8.05219
 11
-178.547
 21
7.87303
  0
LINE
  8
0
 10
-178.547
 20
7.87303
 11
-178.512
 21
7.68799
  0
LINE
  8
0
 10
-178.512
 20
7.68799
 11
-178.5
 21
7.5
  0
LINE
  8
0
 10
-178.5
 20
7.5
 11
-178.512
 21
7.312
  0
LINE
  8
0
 10
-178.512
 20
7.312
 11
-178.547
 21
7.12695
  0
LINE
  8
0
 10
-178.547
 20
7.12695
 11
-178.605
 21
6.9478
  0
LINE
  8
0
 10
-178.605
 20
6.9478
 11
-178.686
 21
6.77736
  0
LINE
  8
0
 10
-178.686
 20
6.77736
 11
-178.786
 21
6.61832
  0
LINE
  8
0
 10
-178.786
 20
6.61832
 11
-178.907
 21
6.47318
  0
LINE
  8
0
 10
-178.907
 20
6.47318
 11
-179.044
 21
6.34422
  0
LINE
  8
0
 10
-179.044
 20
6.34422
 11
-179.196
 21
6.23351
  0
LINE
  8
0
 10
-179.196
 20
6.23351
 11
-179.361
 21
6.14275
  0
LINE
  8
0
 10
-179.361
 20
6.14275
 11
-179.536
 21
6.07341
  0
LINE
  8
0
 10
-179.536
 20
6.07341
 11
-179.719
 21
6.02657
  0
LINE
  8
0
 10
-179.719
 20
6.02657
 11
-179.906
 21
6.00294
  0
LINE
  8
0
 10
-179.906
 20
6.00294
 11
-180.094
 21
6.00294
  0
LINE
  8
0
 10
179.906
 20
6.00294
 11
179.719
 21
6.02657
  0
LINE
  8
0
 10
179.719
 20
6.02657
 11
179.536
 21
6.07341
  0
LINE
  8
0
 10
179.536
 20
6.07341
 11
179.361
 21
6.14275
  0
LINE
  8
0
 10
179.361
 20
6.14275
 11
179.196
 21
6.23351
  0
LINE
  8
0
 10
179.196
 20
6.23351
 11
179.044
 21
6.34422
  0
LINE
  8
0
 10
179.044
 20
6.34422
 11
178.907
 21
6.47318
  0
LINE
  8
0
 10
178.907
 20
6.47318
 11
178.786
 21
6.61832
  0
LINE
  8
0
 10
178.786
 20
6.61832
 11
178.686
 21
6.77736
  0
LINE
  8
0
 10
178.686
 20
6.77736
 11
178.605
 21
6.9478
  0
LINE
  8
0
 10
178.605
 20
6.9478
 11
178.547
 21
7.12695
  0
LINE
  8
0
 10
178.547
 20
7.12695
 11
178.512
 21
7.312
  0
LINE
  8
0
 10
178.512
 20
7.312
 11
178.5
 21
7.5
  0
LINE
  8
0
 10
178.5
 20
7.5
 11
178.512
 21
7.68799
  0
LINE
  8
0
 10
178.512
 20
7.68799
 11
178.547
 21
7.87303
  0
LINE
  8
0
 10
178.547
 20
7.87303
 11
178.605
 21
8.05219
  0
LINE
  8
0
 10
178.605
 20
8.05219
 11
178.686
 21
8.22263
  0
LINE
  8
0
 10
178.686
 20
8.22263
 11
178.786
 21
8.38167
  0
LINE
  8
0
 10
178.786
 20
8.38167
 11
178.907
 21
8.52681
  0
LINE
  8
0
 10
178.907
 20
8.52681
 11
179.044
 21
8.65576
  0
LINE
  8
0
 10
179.044
 20
8.65576
 11
179.196
 21
8.76648
  0
LINE
  8
0
 10
179.196
 20
8.76648
 11
179.361
 21
8.85724
  0
LINE
  8
0
 10
179.361
 20
8.85724
 11
179.536
 21
8.92657
  0
LINE
  8
0
 10
179.536
 20
8.92657
 11
179.719
 21
8.97342
  0
LINE
  8
0
 10
179.719
 20
8.97342
 11
179.906
 21
8.99704
  0
LINE
  8
0
 10
179.906
 20
8.99704
 11
180.094
 21
8.99704
  0
LINE
  8
0
 10
180.094
 20
8.99704
 11
180.281
 21
8.97342
  0
LINE
  8
0
 10
180.281
 20
8.97342
 11
180.464
 21
8.92657
  0
LINE
  8
0
 10
180.464
 20
8.92657
 11
180.639
 21
8.85724
  0
LINE
  8
0
 10
180.639
 20
8.85724
 11
180.804
 21
8.76648
  0
LINE
  8
0
 10
180.804
 20
8.76648
 11
180.956
 21
8.65576
  0
LINE
  8
0
 10
180.956
 20
8.65576
 11
181.093
 21
8.52681
  0
LINE
  8
0
 10
181.093
 20
8.52681
 11
181.214
 21
8.38167
  0
LINE
  8
0
 10
181.214
 20
8.38167
 11
181.314
 21
8.22263
  0
LINE
  8
0
 10
181.314
 20
8.22263
 11
181.395
 21
8.05219
  0
LINE
  8
0
 10
181.395
 20
8.05219
 11
181.453
 21
7.87303
  0
LINE
  8
0
 10
181.453
 20
7.87303
 11
181.488
 21
7.68799
  0
LINE
  8
0
 10
181.488
 20
7.68799
 11
181.5
 21
7.5
  0
LINE
  8
0
 10
181.5
 20
7.5
 11
181.488
 21
7.312
  0
LINE
  8
0
 10
181.488
 20
7.312
 11
181.453
 21
7.12695
  0
LINE
  8
0
 10
181.453
 20
7.12695
 11
181.395
 21
6.9478
  0
LINE
  8
0
 10
181.395
 20
6.9478
 11
181.314
 21
6.77736
  0
LINE
  8
0
 10
181.314
 20
6.77736
 11
181.214
 21
6.61832
  0
LINE
  8
0
 10
181.214
 20
6.61832
 11
181.093
 21
6.47318
  0
LINE
  8
0
 10
181.093
 20
6.47318
 11
180.956
 21
6.34422
  0
LINE
  8
0
 10
180.956
 20
6.34422
 11
180.804
 21
6.23351
  0
LINE
  8
0
 10
180.804
 20
6.23351
 11
180.639
 21
6.14275
  0
LINE
  8
0
 10
180.639
 20
6.14275
 11
180.464
 21
6.07341
  0
LINE
  8
0
 10
180.464
 20
6.07341
 11
180.281
 21
6.02657
  0
LINE
  8
0
 10
180.281
 20
6.02657
 11
180.094
 21
6.00294
  0
LINE
  8
0
 10
180.094
 20
6.00294
 11
179.906
 21
6.00294
  0
LINE
  8
0
 10
179.812
 20
-2.99408
 11
179.438
 21
-2.94685
  0
LINE
  8
0
 10
179.438
 20
-2.94685
 11
179.073
 21
-2.85316
  0
LINE
  8
0
 10
179.073
 20
-2.85316
 11
178.723
 21
-2.71448
  0
LINE
  8
0
 10
178.723
 20
-2.71448
 11
178.393
 21
-2.53297
  0
LINE
  8
0
 10
178.393
 20
-2.53297
 11
178.088
 21
-2.31154
  0
LINE
  8
0
 10
178.088
 20
-2.31154
 11
177.813
 21
-2.05363
  0
LINE
  8
0
 10
177.813
 20
-2.05363
 11
177.573
 21
-1.76335
  0
LINE
  8
0
 10
177.573
 20
-1.76335
 11
177.371
 21
-1.44525
  0
LINE
  8
0
 10
177.371
 20
-1.44525
 11
177.211
 21
-1.10437
  0
LINE
  8
0
 10
177.211
 20
-1.10437
 11
177.094
 21
-0.746063
  0
LINE
  8
0
 10
177.094
 20
-0.746063
 11
177.024
 21
-0.375992
  0
LINE
  8
0
 10
177.024
 20
-0.375992
 11
177
 21
0
  0
LINE
  8
0
 10
177
 20
0
 11
177.024
 21
0.375992
  0
LINE
  8
0
 10
177.024
 20
0.375992
 11
177.094
 21
0.746063
  0
LINE
  8
0
 10
177.094
 20
0.746063
 11
177.211
 21
1.10437
  0
LINE
  8
0
 10
177.211
 20
1.10437
 11
177.371
 21
1.44525
  0
LINE
  8
0
 10
177.371
 20
1.44525
 11
177.573
 21
1.76335
  0
LINE
  8
0
 10
177.573
 20
1.76335
 11
177.813
 21
2.05363
  0
LINE
  8
0
 10
177.813
 20
2.05363
 11
178.088
 21
2.31154
  0
LINE
  8
0
 10
178.088
 20
2.31154
 11
178.393
 21
2.53297
  0
LINE
  8
0
 10
178.393
 20
2.53297
 11
178.723
 21
2.71448
  0
LINE
  8
0
 10
178.723
 20
2.71448
 11
179.073
 21
2.85316
  0
LINE
  8
0
 10
179.073
 20
2.85316
 11
179.438
 21
2.94685
  0
LINE
  8
0
 10
179.438
 20
2.94685
 11
179.812
 21
2.99408
  0
LINE
  8
0
 10
179.812
 20
2.99408
 11
180.188
 21
2.99408
  0
LINE
  8
0
 10
180.188
 20
2.99408
 11
180.562
 21
2.94685
  0
LINE
  8
0
 10
180.562
 20
2.94685
 11
180.927
 21
2.85316
  0
LINE
  8
0
 10
180.927
 20
2.85316
 11
181.277
 21
2.71448
  0
LINE
  8
0
 10
181.277
 20
2.71448
 11
181.607
 21
2.53297
  0
LINE
  8
0
 10
181.607
 20
2.53297
 11
181.912
 21
2.31154
  0
LINE
  8
0
 10
181.912
 20
2.31154
 11
182.187
 21
2.05363
  0
LINE
  8
0
 10
182.187
 20
2.05363
 11
182.427
 21
1.76335
  0
LINE
  8
0
 10
182.427
 20
1.76335
 11
182.629
 21
1.44525
  0
LINE
  8
0
 10
182.629
 20
1.44525
 11
182.789
 21
1.10437
  0
LINE
  8
0
 10
182.789
 20
1.10437
 11
182.906
 21
0.746063
  0
LINE
  8
0
 10
182.906
 20
0.746063
 11
182.976
 21
0.375992
  0
LINE
  8
0
 10
182.976
 20
0.375992
 11
183
 21
0
  0
LINE
  8
0
 10
183
 20
0
 11
182.976
 21
-0.375992
  0
LINE
  8
0
 10
182.976
 20
-0.375992
 11
182.906
 21
-0.746063
  0
LINE
  8
0
 10
182.906
 20
-0.746063
 11
182.789
 21
-1.10437
  0
LINE
  8
0
 10
182.789
 20
-1.10437
 11
182.629
 21
-1.44525
  0
LINE
  8
0
 10
182.629
 20
-1.44525
 11
182.427
 21
-1.76335
  0
LINE
  8
0
 10
182.427
 20
-1.76335
 11
182.187
 21
-2.05363
  0
LINE
  8
0
 10
182.187
 20
-2.05363
 11
181.912
 21
-2.31154
  0
LINE
  8
0
 10
181.912
 20
-2.31154
 11
181.607
 21
-2.53297
  0
LINE
  8
0
 10
181.607
 20
-2.53297
 11
181.277
 21
-2.71448
  0
LINE
  8
0
 10
181.277
 20
-2.71448
 11
180.927
 21
-2.85316
  0
LINE
  8
0
 10
180.927
 20
-2.85316
 11
180.562
 21
-2.94685
  0
LINE
  8
0
 10
180.562
 20
-2.94685
 11
180.188
 21
-2.99408
  0
LINE
  8
0
 10
180.188
 20
-2.99408
 11
179.812
 21
-2.99408
  0
LINE
  8
0
 10
-180.188
 20
-2.99408
 11
-180.562
 21
-2.94685
  0
LINE
  8
0
 10
-180.562
 20
-2.94685
 11
-180.927
 21
-2.85316
  0
LINE
  8
0
 10
-180.927
 20
-2.85316
 11
-181.277
 21
-2.71448
  0
LINE
  8
0
 10
-181.277
 20
-2.71448
 11
-181.607
 21
-2.53297
  0
LINE
  8
0
 10
-181.607
 20
-2.53297
 11
-181.912
 21
-2.31154
  0
LINE
  8
0
 10
-181.912
 20
-2.31154
 11
-182.187
 21
-2.05363
  0
LINE
  8
0
 10
-182.187
 20
-2.05363
 11
-182.427
 21
-1.76335
  0
LINE
  8
0
 10
-182.427
 20
-1.76335
 11
-182.629
 21
-1.44525
  0
LINE
  8
0
 10
-182.629
 20
-1.44525
 11
-182.789
 21
-1.10437
  0
LINE
  8
0
 10
-182.789
 20
-1.10437
 11
-182.906
 21
-0.746063
  0
LINE
  8
0
 10
-182.906
 20
-0.746063
 11
-182.976
 21
-0.375992
  0
LINE
  8
0
 10
-182.976
 20
-0.375992
 11
-183
 21
0
  0
LINE
  8
0
 10
-183
 20
0
 11
-182.976
 21
0.375992
  0
LINE
  8
0
 10
-182.976
 20
0.375992
 11
-182.906
 21
0.746063
  0
LINE
  8
0
 10
-182.906
 20
0.746063
 11
-182.789
 21
1.10437
  0
LINE
  8
0
 10
-182.789
 20
1.10437
 11
-182.629
 21
1.44525
  0
LINE
  8
0
 10
-182.629
 20
1.44525
 11
-182.427
 21
1.76335
  0
LINE
  8
0
 10
-182.427
 20
1.76335
 11
-182.187
 21
2.05363
  0
LINE
  8
0
 10
-182.187
 20
2.05363
 11
-181.912
 21
2.31154
  0
LINE
  8
0
 10
-181.912
 20
2.31154
 11
-181.607
 21
2.53297
  0
LINE
  8
0
 10
-181.607
 20
2.53297
 11
-181.277
 21
2.71448
  0
LINE
  8
0
 10
-181.277
 20
2.71448
 11
-180.927
 21
2.85316
  0
LINE
  8
0
 10
-180.927
 20
2.85316
 11
-180.562
 21
2.94685
  0
LINE
  8
0
 10
-180.562
 20
2.94685
 11
-180.188
 21
2.99408
  0
LINE
  8
0
 10
-180.188
 20
2.99408
 11
-179.812
 21
2.99408
  0
LINE
  8
0
 10
-179.812
 20
2.99408
 11
-179.438
 21
2.94685
  0
LINE
  8
0
 10
-179.438
 20
2.94685
 11
-179.073
 21
2.85316
  0
LINE
  8
0
 10
-179.073
 20
2.85316
 11
-178.723
 21
2.71448
  0
LINE
  8
0
 10
-178.723
 20
2.71448
 11
-178.393
 21
2.53297
  0
LINE
  8
0
 10
-178.393
 20
2.53297
 11
-178.088
 21
2.31154
  0
LINE
  8
0
 10
-178.088
 20
2.31154
 11
-177.813
 21
2.05363
  0
LINE
  8
0
 10
-177.813
 20
2.05363
 11
-177.573
 21
1.76335
  0
LINE
  8
0
 10
-177.573
 20
1.76335
 11
-177.371
 21
1.44525
  0
LINE
  8
0
 10
-177.371
 20
1.44525
 11
-177.211
 21
1.10437
  0
LINE
  8
0
 10
-177.211
 20
1.10437
 11
-177.094
 21
0.746063
  0
LINE
  8
0
 10
-177.094
 20
0.746063
 11
-177.024
 21
0.375992
  0
LINE
  8
0
 10
-177.024
 20
0.375992
 11
-177
 21
0
  0
LINE
  8
0
 10
-177
 20
0
 11
-177.024
 21
-0.375992
  0
LINE
  8
0
 10
-177.024
 20
-0.375992
 11
-177.094
 21
-0.746063
  0
LINE
  8
0
 10
-177.094
 20
-0.746063
 11
-177.211
 21
-1.10437
  0
LINE
  8
0
 10
-177.211
 20
-1.10437
 11
-177.371
 21
-1.44525
  0
LINE
  8
0
 10
-177.371
 20
-1.44525
 11
-177.573
 21
-1.76335
  0
LINE
  8
0
 10
-177.573
 20
-1.76335
 11
-177.813
 21
-2.05363
  0
LINE
  8
0
 10
-177.813
 20
-2.05363
 11
-178.088
 21
-2.31154
  0
LINE
  8
0
 10
-178.088
 20
-2.31154
 11
-178.393
 21
-2.53297
  0
LINE
  8
0
 10
-178.393
 20
-2.53297
 11
-178.723
 21
-2.71448
  0
LINE
  8
0
 10
-178.723
 20
-2.71448
 11
-179.073
 21
-2.85316
  0
LINE
  8
0
 10
-179.073
 20
-2.85316
 11
-179.438
 21
-2.94685
  0
LINE
  8
0
 10
-179.438
 20
-2.94685
 11
-179.812
 21
-2.99408
  0
LINE
  8
0
 10
-179.812
 20
-2.99408
 11
-180.188
 21
-2.99408
  0
LINE
  8
0
 10
-180.094
 20
-8.99704
 11
-180.281
 21
-8.97342
  0
LINE
  8
0
 10
-180.281
 20
-8.97342
 11
-180.464
 21
-8.92657
  0
LINE
  8
0
 10
-180.464
 20
-8.92657
 11
-180.639
 21
-8.85724
  0
LINE
  8
0
 10
-180.639
 20
-8.85724
 11
-180.804
 21
-8.76648
  0
LINE
  8
0
 10
-180.804
 20
-8.76648
 11
-180.956
 21
-8.65576
  0
LINE
  8
0
 10
-180.956
 20
-8.65576
 11
-181.093
 21
-8.52681
  0
LINE
  8
0
 10
-181.093
 20
-8.52681
 11
-181.214
 21
-8.38167
  0
LINE
  8
0
 10
-181.214
 20
-8.38167
 11
-181.314
 21
-8.22263
  0
LINE
  8
0
 10
-181.314
 20
-8.22263
 11
-181.395
 21
-8.05219
  0
LINE
  8
0
 10
-181.395
 20
-8.05219
 11
-181.453
 21
-7.87303
  0
LINE
  8
0
 10
-181.453
 20
-7.87303
 11
-181.488
 21
-7.68799
  0
LINE
  8
0
 10
-181.488
 20
-7.68799
 11
-181.5
 21
-7.5
  0
LINE
  8
0
 10
-181.5
 20
-7.5
 11
-181.488
 21
-7.312
  0
LINE
  8
0
 10
-181.488
 20
-7.312
 11
-181.453
 21
-7.12695
  0
LINE
  8
0
 10
-181.453
 20
-7.12695
 11
-181.395
 21
-6.9478
  0
LINE
  8
0
 10
-181.395
 20
-6.9478
 11
-181.314
 21
-6.77736
  0
LINE
  8
0
 10
-181.314
 20
-6.77736
 11
-181.214
 21
-6.61832
  0
LINE
  8
0
 10
-181.214
 20
-6.61832
 11
-181.093
 21
-6.47318
  0
LINE
  8
0
 10
-181.093
 20
-6.47318
 11
-180.956
 21
-6.34422
  0
LINE
  8
0
 10
-180.956
 20
-6.34422
 11
-180.804
 21
-6.23351
  0
LINE
  8
0
 10
-180.804
 20
-6.23351
 11
-180.639
 21
-6.14275
  0
LINE
  8
0
 10
-180.639
 20
-6.14275
 11
-180.464
 21
-6.07341
  0
LINE
  8
0
 10
-180.464
 20
-6.07341
 11
-180.281
 21
-6.02657
  0
LINE
  8
0
 10
-180.281
 20
-6.02657
 11
-180.094
 21
-6.00294
  0
LINE
  8
0
 10
-180.094
 20
-6.00294
 11
-179.906
 21
-6.00294
  0
LINE
  8
0
 10
-179.906
 20
-6.00294
 11
-179.719
 21
-6.02657
  0
LINE
  8
0
 10
-179.719
 20
-6.02657
 11
-179.536
 21
-6.07341
  0
LINE
  8
0
 10
-179.536
 20
-6.07341
 11
-179.361
 21
-6.14275
  0
LINE
  8
0
 10
-179.361
 20
-6.14275
 11
-179.196
 21
-6.23351
  0
LINE
  8
0
 10
-179.196
 20
-6.23351
 11
-179.044
 21
-6.34422
  0
LINE
  8
0
 10
-179.044
 20
-6.34422
 11
-178.907
 21
-6.47318
  0
LINE
  8
0
 10
-178.907
 20
-6.47318
 11
-178.786
 21
-6.61832
  0
LINE
  8
0
 10
-178.786
 20
-6.61832
 11
-178.686
 21
-6.77736
  0
LINE
  8
0
 10
-178.686
 20
-6.77736
 11
-178.605
 21
-6.9478
  0
LINE
  8
0
 10
-178.605
 20
-6.9478
 11
-178.547
 21
-7.12695
  0
LINE
  8
0
 10
-178.547
 20
-7.12695
 11
-178.512
 21
-7.312
  0
LINE
  8
0
 10
-178.512
 20
-7.312
 11
-178.5
 21
-7.5
  0
LINE
  8
0
 10
-178.5
 20
-7.5
 11
-178.512
 21
-7.68799
  0
LINE
  8
0
 10
-178.512
 20
-7.68799
 11
-178.547
 21
-7.87303
  0
LINE
  8
0
 10
-178.547
 20
-7.87303
 11
-178.605
 21
-8.05219
  0
LINE
  8
0
 10
-178.605
 20
-8.05219
 11
-178.686
 21
-8.22263
  0
LINE
  8
0
 10
-178.686
 20
-8.22263
 11
-178.786
 21
-8.38167
  0
LINE
  8
0
 10
-178.786
 20
-8.38167
 11
-178.907
 21
-8.52681
  0
LINE
  8
0
 10
-178.907
 20
-8.52681
 11
-179.044
 21
-8.65576
  0
LINE
  8
0
 10
-179.044
 20
-8.65576
 11
-179.196
 21
-8.76648
  0
LINE
  8
0
 10
-179.196
 20
-8.76648
 11
-179.361
 21
-8.85724
  0
LINE
  8
0
 10
-179.361
 20
-8.85724
 11
-179.536
 21
-8.92657
  0
LINE
  8
0
 10
-179.536
 20
-8.92657
 11
-179.719
 21
-8.97342
  0
LINE
  8
0
 10
-179.719
 20
-8.97342
 11
-179.906
 21
-8.99704
  0
LINE
  8
0
 10
-179.906
 20
-8.99704
 11
-180.094
 21
-8.99704
  0
LINE
  8
0
 10
179.906
 20
-8.99704
 11
179.719
 21
-8.97342
  0
LINE
  8
0
 10
179.719
 20
-8.97342
 11
179.536
 21
-8.92657
  0
LINE
  8
0
 10
179.536
 20
-8.92657
 11
179.361
 21
-8.85724
  0
LINE
  8
0
 10
179.361
 20
-8.85724
 11
179.196
 21
-8.76648
  0
LINE
  8
0
 10
179.196
 20
-8.76648
 11
179.044
 21
-8.65576
  0
LINE
  8
0
 10
179.044
 20
-8.65576
 11
178.907
 21
-8.52681
  0
LINE
  8
0
 10
178.907
 20
-8.52681
 11
178.786
 21
-8.38167
  0
LINE
  8
0
 10
178.786
 20
-8.38167
 11
178.686
 21
-8.22263
  0
LINE
  8
0
 10
178.686
 20
-8.22263
 11
178.605
 21
-8.05219
  0
LINE
  8
0
 10
178.605
 20
-8.05219
 11
178.547
 21
-7.87303
  0
LINE
  8
0
 10
178.547
 20
-7.87303
 11
178.512
 21
-7.68799
  0
LINE
  8
0
 10
178.512
 20
-7.68799
 11
178.5
 21
-7.5
  0
LINE
  8
0
 10
178.5
 20
-7.5
 11
178.512
 21
-7.312
  0
LINE
  8
0
 10
178.512
 20
-7.312
 11
178.547
 21
-7.12695
  0
LINE
  8
0
 10
178.547
 20
-7.12695
 11
178.605
 21
-6.9478
  0
LINE
  8
0
 10
178.605
 20
-6.9478
 11
178.686
 21
-6.77736
  0
LINE
  8
0
 10
178.686
 20
-6.77736
 11
178.786
 21
-6.61832
  0
LINE
  8
0
 10
178.786
 20
-6.61832
 11
178.907
 21
-6.47318
  0
LINE
  8
0
 10
178.907
 20
-6.47318
 11
179.044
 21
-6.34422
  0
LINE
  8
0
 10
179.044
 20
-6.34422
 11
179.196
 21
-6.23351
  0
LINE
  8
0
 10
179.196
 20
-6.23351
 11
179.361
 21
-6.14275
  0
LINE
  8
0
 10
179.361
 20
-6.14275
 11
179.536
 21
-6.07341
  0
LINE
  8
0
 10
179.536
 20
-6.07341
 11
179.719
 21
-6.02657
  0
LINE
  8
0
 10
179.719
 20
-6.02657
 11
179.906
 21
-6.00294
  0
LINE
  8
0
 10
179.906
 20
-6.00294
 11
180.094
 21
-6.00294
  0
LINE
  8
0
 10
180.094
 20
-6.00294
 11
180.281
 21
-6.02657
  0
LINE
  8
0
 10
180.281
 20
-6.02657
 11
180.464
 21
-6.07341
  0
LINE
  8
0
 10
180.464
 20
-6.07341
 11
180.639
 21
-6.14275
  0
LINE
  8
0
 10
180.639
 20
-6.14275
 11
180.804
 21
-6.23351
  0
LINE
  8
0
 10
180.804
 20
-6.23351
 11
180.956
 21
-6.34422
  0
LINE
  8
0
 10
180.956
 20
-6.34422
 11
181.093
 21
-6.47318
  0
LINE
  8
0
 10
181.093
 20
-6.47318
 11
181.214
 21
-6.61832
  0
LINE
  8
0
 10
181.214
 20
-6.61832
 11
181.314
 21
-6.77736
  0
LINE
  8
0
 10
181.314
 20
-6.77736
 11
181.395
 21
-6.9478
  0
LINE
  8
0
 10
181.395
 20
-6.9478
 11
181.453
 21
-7.12695
  0
LINE
  8
0
 10
181.453
 20
-7.12695
 11
181.488
 21
-7.312
  0
LINE
  8
0
 10
181.488
 20
-7.312
 11
181.5
 21
-7.5
  0
LINE
  8
0
 10
181.5
 20
-7.5
 11
181.488
 21
-7.68799
  0
LINE
  8
0
 10
181.488
 20
-7.68799
 11
181.453
 21
-7.87303
  0
LINE
  8
0
 10
181.453
 20
-7.87303
 11
181.395
 21
-8.05219
  0
LINE
  8
0
 10
181.395
 20
-8.05219
 11
181.314
 21
-8.22263
  0
LINE
  8
0
 10
181.314
 20
-8.22263
 11
181.214
 21
-8.38167
  0
LINE
  8
0
 10
181.214
 20
-8.38167
 11
181.093
 21
-8.52681
  0
LINE
  8
0
 10
181.093
 20
-8.52681
 11
180.956
 21
-8.65576
  0
LINE
  8
0
 10
180.956
 20
-8.65576
 11
180.804
 21
-8.76648
  0
LINE
  8
0
 10
180.804
 20
-8.76648
 11
180.639
 21
-8.85724
  0
LINE
  8
0
 10
180.639
 20
-8.85724
 11
180.464
 21
-8.92657
  0
LINE
  8
0
 10
180.464
 20
-8.92657
 11
180.281
 21
-8.97342
  0
LINE
  8
0
 10
180.281
 20
-8.97342
 11
180.094
 21
-8.99704
  0
LINE
  8
0
 10
180.094
 20
-8.99704
 11
179.906
 21
-8.99704
  0
LINE
  8
0
 10
179.812
 20
-17.9941
 11
179.438
 21
-17.9469
  0
LINE
  8
0
 10
179.438
 20
-17.9469
 11
179.073
 21
-17.8532
  0
LINE
  8
0
 10
179.073
 20
-17.8532
 11
178.723
 21
-17.7145
  0
LINE
  8
0
 10
178.723
 20
-17.7145
 11
178.393
 21
-17.533
  0
LINE
  8
0
 10
178.393
 20
-17.533
 11
178.088
 21
-17.3115
  0
LINE
  8
0
 10
178.088
 20
-17.3115
 11
177.813
 21
-17.0536
  0
LINE
  8
0
 10
177.813
 20
-17.0536
 11
177.573
 21
-16.7634
  0
LINE
  8
0
 10
177.573
 20
-16.7634
 11
177.371
 21
-16.4453
  0
LINE
  8
0
 10
177.371
 20
-16.4453
 11
177.211
 21
-16.1044
  0
LINE
  8
0
 10
177.211
 20
-16.1044
 11
177.094
 21
-15.7461
  0
LINE
  8
0
 10
177.094
 20
-15.7461
 11
177.024
 21
-15.376
  0
LINE
  8
0
 10
177.024
 20
-15.376
 11
177
 21
-15
  0
LINE
  8
0
 10
177
 20
-15
 11
177.024
 21
-14.624
  0
LINE
  8
0
 10
177.024
 20
-14.624
 11
177.094
 21
-14.2539
  0
LINE
  8
0
 10
177.094
 20
-14.2539
 11
177.211
 21
-13.8956
  0
LINE
  8
0
 10
177.211
 20
-13.8956
 11
177.371
 21
-13.5547
  0
LINE
  8
0
 10
177.371
 20
-13.5547
 11
177.573
 21
-13.2366
  0
LINE
  8
0
 10
177.573
 20
-13.2366
 11
177.813
 21
-12.9464
  0
LINE
  8
0
 10
177.813
 20
-12.9464
 11
178.088
 21
-12.6884
  0
LINE
  8
0
 10
178.088
 20
-12.6884
 11
178.393
 21
-12.467
  0
LINE
  8
0
 10
178.393
 20
-12.467
 11
178.723
 21
-12.2855
  0
LINE
  8
0
 10
178.723
 20
-12.2855
 11
179.073
 21
-12.1468
  0
LINE
  8
0
 10
179.073
 20
-12.1468
 11
179.438
 21
-12.0531
  0
LINE
  8
0
 10
179.438
 20
-12.0531
 11
179.812
 21
-12.0059
  0
LINE
  8
0
 10
179.812
 20
-12.0059
 11
180.188
 21
-12.0059
  0
LINE
  8
0
 10
180.188
 20
-12.0059
 11
180.562
 21
-12.0531
  0
LINE
  8
0
 10
180.562
 20
-12.0531
 11
180.927
 21
-12.1468
  0
LINE
  8
0
 10
180.927
 20
-12.1468
 11
181.277
 21
-12.2855
  0
LINE
  8
0
 10
181.277
 20
-12.2855
 11
181.607
 21
-12.467
  0
LINE
  8
0
 10
181.607
 20
-12.467
 11
181.912
 21
-12.6884
  0
LINE
  8
0
 10
181.912
 20
-12.6884
 11
182.187
 21
-12.9464
  0
LINE
  8
0
 10
182.187
 20
-12.9464
 11
182.427
 21
-13.2366
  0
LINE
  8
0
 10
182.427
 20
-13.2366
 11
182.629
 21
-13.5547
  0
LINE
  8
0
 10
182.629
 20
-13.5547
 11
182.789
 21
-13.8956
  0
LINE
  8
0
 10
182.789
 20
-13.8956
 11
182.906
 21
-14.2539
  0
LINE
  8
0
 10
182.906
 20
-14.2539
 11
182.976
 21
-14.624
  0
LINE
  8
0
 10
182.976
 20
-14.624
 11
183
 21
-15
  0
LINE
  8
0
 10
183
 20
-15
 11
182.976
 21
-15.376
  0
LINE
  8
0
 10
182.976
 20
-15.376
 11
182.906
 21
-15.7461
  0
LINE
  8
0
 10
182.906
 20
-15.7461
 11
182.789
 21
-16.1044
  0
LINE
  8
0
 10
182.789
 20
-16.1044
 11
182.629
 21
-16.4453
  0
LINE
  8
0
 10
182.629
 20
-16.4453
 11
182.427
 21
-16.7634
  0
LINE
  8
0
 10
182.427
 20
-16.7634
 11
182.187
 21
-17.0536
  0
LINE
  8
0
 10
182.187
 20
-17.0536
 11
181.912
 21
-17.3115
  0
LINE
  8
0
 10
181.912
 20
-17.3115
 11
181.607
 21
-17.533
  0
LINE
  8
0
 10
181.607
 20
-17.533
 11
181.277
 21
-17.7145
  0
LINE
  8
0
 10
181.277
 20
-17.7145
 11
180.927
 21
-17.8532
  0
LINE
  8
0
 10
180.927
 20
-17.8532
 11
180.562
 21
-17.9469
  0
LINE
  8
0
 10
180.562
 20
-17.9469
 11
180.188
 21
-17.9941
  0
LINE
  8
0
 10
180.188
 20
-17.9941
 11
179.812
 21
-17.9941
  0
LINE
  8
0
 10
-180.188
 20
-17.9941
 11
-180.562
 21
-17.9469
  0
LINE
  8
0
 10
-180.562
 20
-17.9469
 11
-180.927
 21
-17.8532
  0
LINE
  8
0
 10
-180.927
 20
-17.8532
 11
-181.277
 21
-17.7145
  0
LINE
  8
0
 10
-181.277
 20
-17.7145
 11
-181.607
 21
-17.533
  0
LINE
  8
0
 10
-181.607
 20
-17.533
 11
-181.912
 21
-17.3115
  0
LINE
  8
0
 10
-181.912
 20
-17.3115
 11
-182.187
 21
-17.0536
  0
LINE
  8
0
 10
-182.187
 20
-17.0536
 11
-182.427
 21
-16.7634
  0
LINE
  8
0
 10
-182.427
 20
-16.7634
 11
-182.629
 21
-16.4453
  0
LINE
  8
0
 10
-182.629
 20
-16.4453
 11
-182.789
 21
-16.1044
  0
LINE
  8
0
 10
-182.789
 20
-16.1044
 11
-182.906
 21
-15.7461
  0
LINE
  8
0
 10
-182.906
 20
-15.7461
 11
-182.976
 21
-15.376
  0
LINE
  8
0
 10
-182.976
 20
-15.376
 11
-183
 21
-15
  0
LINE
  8
0
 10
-183
 20
-15
 11
-182.976
 21
-14.624
  0
LINE
  8
0
 10
-182.976
 20
-14.624
 11
-182.906
 21
-14.2539
  0
LINE
  8
0
 10
-182.906
 20
-14.2539
 11
-182.789
 21
-13.8956
  0
LINE
  8
0
 10
-182.789
 20
-13.8956
 11
-182.629
 21
-13.5547
  0
LINE
  8
0
 10
-182.629
 20
-13.5547
 11
-182.427
 21
-13.2366
  0
LINE
  8
0
 10
-182.427
 20
-13.2366
 11
-182.187
 21
-12.9464
  0
LINE
  8
0
 10
-182.187
 20
-12.9464
 11
-181.912
 21
-12.6884
  0
LINE
  8
0
 10
-181.912
 20
-12.6884
 11
-181.607
 21
-12.467
  0
LINE
  8
0
 10
-181.607
 20
-12.467
 11
-181.277
 21
-12.2855
  0
LINE
  8
0
 10
-181.277
 20
-12.2855
 11
-180.927
 21
-12.1468
  0
LINE
  8
0
 10
-180.927
 20
-12.1468
 11
-180.562
 21
-12.0531
  0
LINE
  8
0
 10
-180.562
 20
-12.0531
 11
-180.188
 21
-12.0059
  0
LINE
  8
0
 10
-180.188
 20
-12.0059
 11
-179.812
 21
-12.0059
  0
LINE
  8
0
 10
-179.812
 20
-12.0059
 11
-179.438
 21
-12.0531
  0
LINE
  8
0
 10
-179.438
 20
-12.0531
 11
-179.073
 21
-12.1468
  0
LINE
  8
0
 10
-179.073
 20
-12.1468
 11
-178.723
 21
-12.2855
  0
LINE
  8
0
 10
-178.723
 20
-12.2855
 11
-178.393
 21
-12.467
  0
LINE
  8
0
 10
-178.393
 20
-12.467
 11
-178.088
 21
-12.6884
  0
LINE
  8
0
 10
-178.088
 20
-12.6884
 11
-177.813
 21
-12.9464
  0
LINE
  8
0
 10
-177.813
 20
-12.9464
 11
-177.573
 21
-13.2366
  0
LINE
  8
0
 10
-177.573
 20
-13.2366
 11
-177.371
 21
-13.5547
  0
LINE
  8
0
 10
-177.371
 20
-13.5547
 11
-177.211
 21
-13.8956
  0
LINE
  8
0
 10
-177.211
 20
-13.8956
 11
-177.094
 21
-14.2539
  0
LINE
  8
0
 10
-177.094
 20
-14.2539
 11
-177.024
 21
-14.624
  0
LINE
  8
0
 10
-177.024
 20
-14.624
 11
-177
 21
-15
  0
LINE
  8
0
 10
-177
 20
-15
 11
-177.024
 21
-15.376
  0
LINE
  8
0
 10
-177.024
 20
-15.376
 11
-177.094
 21
-15.7461
  0
LINE
  8
0
 10
-177.094
 20
-15.7461
 11
-177.211
 21
-16.1044
  0
LINE
  8
0
 10
-177.211
 20
-16.1044
 11
-177.371
 21
-16.4453
  0
LINE
  8
0
 10
-177.371
 20
-16.4453
 11
-177.573
 21
-16.7634
  0
LINE
  8
0
 10
-177.573
 20
-16.7634
 11
-177.813
 21
-17.0536
  0
LINE
  8
0
 10
-177.813
 20
-17.0536
 11
-178.088
 21
-17.3115
  0
LINE
  8
0
 10
-178.088
 20
-17.3115
 11
-178.393
 21
-17.533
  0
LINE
  8
0
 10
-178.393
 20
-17.533
 11
-178.723
 21
-17.7145
  0
LINE
  8
0
 10
-178.723
 20
-17.7145
 11
-179.073
 21
-17.8532
  0
LINE
  8
0
 10
-179.073
 20
-17.8532
 11
-179.438
 21
-17.9469
  0
LINE
  8
0
 10
-179.438
 20
-17.9469
 11
-179.812
 21
-17.9941
  0
LINE
  8
0
 10
-179.812
 20
-17.9941
 11
-180.188
 21
-17.9941
  0
LINE
  8
0
 10
-180.094
 20
-23.997
 11
-180.281
 21
-23.9734
  0
LINE
  8
0
 10
-180.281
 20
-23.9734
 11
-180.464
 21
-23.9266
  0
LINE
  8
0
 10
-180.464
 20
-23.9266
 11
-180.639
 21
-23.8572
  0
LINE
  8
0
 10
-180.639
 20
-23.8572
 11
-180.804
 21
-23.7665
  0
LINE
  8
0
 10
-180.804
 20
-23.7665
 11
-180.956
 21
-23.6558
  0
LINE
  8
0
 10
-180.956
 20
-23.6558
 11
-181.093
 21
-23.5268
  0
LINE
  8
0
 10
-181.093
 20
-23.5268
 11
-181.214
 21
-23.3817
  0
LINE
  8
0
 10
-181.214
 20
-23.3817
 11
-181.314
 21
-23.2226
  0
LINE
  8
0
 10
-181.314
 20
-23.2226
 11
-181.395
 21
-23.0522
  0
LINE
  8
0
 10
-181.395
 20
-23.0522
 11
-181.453
 21
-22.873
  0
LINE
  8
0
 10
-181.453
 20
-22.873
 11
-181.488
 21
-22.688
  0
LINE
  8
0
 10
-181.488
 20
-22.688
 11
-181.5
 21
-22.5
  0
LINE
  8
0
 10
-181.5
 20
-22.5
 11
-181.488
 21
-22.312
  0
LINE
  8
0
 10
-181.488
 20
-22.312
 11
-181.453
 21
-22.127
  0
LINE
  8
0
 10
-181.453
 20
-22.127
 11
-181.395
 21
-21.9478
  0
LINE
  8
0
 10
-181.395
 20
-21.9478
 11
-181.314
 21
-21.7774
  0
LINE
  8
0
 10
-181.314
 20
-21.7774
 11
-181.214
 21
-21.6183
  0
LINE
  8
0
 10
-181.214
 20
-21.6183
 11
-181.093
 21
-21.4732
  0
LINE
  8
0
 10
-181.093
 20
-21.4732
 11
-180.956
 21
-21.3442
  0
LINE
  8
0
 10
-180.956
 20
-21.3442
 11
-180.804
 21
-21.2335
  0
LINE
  8
0
 10
-180.804
 20
-21.2335
 11
-180.639
 21
-21.1427
  0
LINE
  8
0
 10
-180.639
 20
-21.1427
 11
-180.464
 21
-21.0734
  0
LINE
  8
0
 10
-180.464
 20
-21.0734
 11
-180.281
 21
-21.0266
  0
LINE
  8
0
 10
-180.281
 20
-21.0266
 11
-180.094
 21
-21.003
  0
LINE
  8
0
 10
-180.094
 20
-21.003
 11
-179.906
 21
-21.003
  0
LINE
  8
0
 10
-179.906
 20
-21.003
 11
-179.719
 21
-21.0266
  0
LINE
  8
0
 10
-179.719
 20
-21.0266
 11
-179.536
 21
-21.0734
  0
LINE
  8
0
 10
-179.536
 20
-21.0734
 11
-179.361
 21
-21.1427
  0
LINE
  8
0
 10
-179.361
 20
-21.1427
 11
-179.196
 21
-21.2335
  0
LINE
  8
0
 10
-179.196
 20
-21.2335
 11
-179.044
 21
-21.3442
  0
LINE
  8
0
 10
-179.044
 20
-21.3442
 11
-178.907
 21
-21.4732
  0
LINE
  8
0
 10
-178.907
 20
-21.4732
 11
-178.786
 21
-21.6183
  0
LINE
  8
0
 10
-178.786
 20
-21.6183
 11
-178.686
 21
-21.7774
  0
LINE
  8
0
 10
-178.686
 20
-21.7774
 11
-178.605
 21
-21.9478
  0
LINE
  8
0
 10
-178.605
 20
-21.9478
 11
-178.547
 21
-22.127
  0
LINE
  8
0
 10
-178.547
 20
-22.127
 11
-178.512
 21
-22.312
  0
LINE
  8
0
 10
-178.512
 20
-22.312
 11
-178.5
 21
-22.5
  0
LINE
  8
0
 10
-178.5
 20
-22.5
 11
-178.512
 21
-22.688
  0
LINE
  8
0
 10
-178.512
 20
-22.688
 11
-178.547
 21
-22.873
  0
LINE
  8
0
 10
-178.547
 20
-22.873
 11
-178.605
 21
-23.0522
  0
LINE
  8
0
 10
-178.605
 20
-23.0522
 11
-178.686
 21
-23.2226
  0
LINE
  8
0
 10
-178.686
 20
-23.2226
 11
-178.786
 21
-23.3817
  0
LINE
  8
0
 10
-178.786
 20
-23.3817
 11
-178.907
 21
-23.5268
  0
LINE
  8
0
 10
-178.907
 20
-23.5268
 11
-179.044
 21
-23.6558
  0
LINE
  8
0
 10
-179.044
 20
-23.6558
 11
-179.196
 21
-23.7665
  0
LINE
  8
0
 10
-179.196
 20
-23.7665
 11
-179.361
 21
-23.8572
  0
LINE
  8
0
 10
-179.361
 20
-23.8572
 11
-179.536
 21
-23.9266
  0
LINE
  8
0
 10
-179.536
 20
-23.9266
 11
-179.719
 21
-23.9734
  0
LINE
  8
0
 10
-179.719
 20
-23.9734
 11
-179.906
 21
-23.997
  0
LINE
  8
0
 10
-179.906
 20
-23.997
 11
-180.094
 21
-23.997
  0
LINE
  8
0
 10
179.906
 20
-23.997
 11
179.719
 21
-23.9734
  0
LINE
  8
0
 10
179.719
 20
-23.9734
 11
179.536
 21
-23.9266
  0
LINE
  8
0
 10
179.536
 20
-23.9266
 11
179.361
 21
-23.8572
  0
LINE
  8
0
 10
179.361
 20
-23.8572
 11
179.196
 21
-23.7665
  0
LINE
  8
0
 10
179.196
 20
-23.7665
 11
179.044
 21
-23.6558
  0
LINE
  8
0
 10
179.044
 20
-23.6558
 11
178.907
 21
-23.5268
  0
LINE
  8
0
 10
178.907
 20
-23.5268
 11
178.786
 21
-23.3817
  0
LINE
  8
0
 10
178.786
 20
-23.3817
 11
178.686
 21
-23.2226
  0
LINE
  8
0
 10
178.686
 20
-23.2226
 11
178.605
 21
-23.0522
  0
LINE
  8
0
 10
178.605
 20
-23.0522
 11
178.547
 21
-22.873
  0
LINE
  8
0
 10
178.547
 20
-22.873
 11
178.512
 21
-22.688
  0
LINE
  8
0
 10
178.512
 20
-22.688
 11
178.5
 21
-22.5
  0
LINE
  8
0
 10
178.5
 20
-22.5
 11
178.512
 21
-22.312
  0
LINE
  8
0
 10
178.512
 20
-22.312
 11
178.547
 21
-22.127
  0
LINE
  8
0
 10
178.547
 20
-22.127
 11
178.605
 21
-21.9478
  0
LINE
  8
0
 10
178.605
 20
-21.9478
 11
178.686
 21
-21.7774
  0
LINE
  8
0
 10
178.686
 20
-21.7774
 11
178.786
 21
-21.6183
  0
LINE
  8
0
 10
178.786
 20
-21.6183
 11
178.907
 21
-21.4732
  0
LINE
  8
0
 10
178.907
 20
-21.4732
 11
179.044
 21
-21.3442
  0
LINE
  8
0
 10
179.044
 20
-21.3442
 11
179.196
 21
-21.2335
  0
LINE
  8
0
 10
179.196
 20
-21.2335
 11
179.361
 21
-21.1427
  0
LINE
  8
0
 10
179.361
 20
-21.1427
 11
179.536
 21
-21.0734
  0
LINE
  8
0
 10
179.536
 20
-21.0734
 11
179.719
 21
-21.0266
  0
LINE
  8
0
 10
179.719
 20
-21.0266
 11
179.906
 21
-21.003
  0
LINE
  8
0
 10
179.906
 20
-21.003
 11
180.094
 21
-21.003
  0
LINE
  8
0
 10
180.094
 20
-21.003
 11
180.281
 21
-21.0266
  0
LINE
  8
0
 10
180.281
 20
-21.0266
 11
180.464
 21
-21.0734
  0
LINE
  8
0
 10
180.464
 20
-21.0734
 11
180.639
 21
-21.1427
  0
LINE
  8
0
 10
180.639
 20
-21.1427
 11
180.804
 21
-21.2335
  0
LINE
  8
0
 10
180.804
 20
-21.2335
 11
180.956
 21
-21.3442
  0
LINE
  8
0
 10
180.956
 20
-21.3442
 11
181.093
 21
-21.4732
  0
LINE
  8
0
 10
181.093
 20
-21.4732
 11
181.214
 21
-21.6183
  0
LINE
  8
0
 10
181.214
 20
-21.6183
 11
181.314
 21
-21.7774
  0
LINE
  8
0
 10
181.314
 20
-21.7774
 11
181.395
 21
-21.9478
  0
LINE
  8
0
 10
181.395
 20
-21.9478
 11
181.453
 21
-22.127
  0
LINE
  8
0
 10
181.453
 20
-22.127
 11
181.488
 21
-22.312
  0
LINE
  8
0
 10
181.488
 20
-22.312
 11
181.5
 21
-22.5
  0
LINE
  8
0
 10
181.5
 20
-22.5
 11
181.488
 21
-22.688
  0
LINE
  8
0
 10
181.488
 20
-22.688
 11
181.453
 21
-22.873
  0
LINE
  8
0
 10
181.453
 20
-22.873
 11
181.395
 21
-23.0522
  0
LINE
  8
0
 10
181.395
 20
-23.0522
 11
181.314
 21
-23.2226
  0
LINE
  8
0
 10
181.314
 20
-23.2226
 11
181.214
 21
-23.3817
  0
LINE
  8
0
 10
181.214
 20
-23.3817
 11
181.093
 21
-23.5268
  0
LINE
  8
0
 10
181.093
 20
-23.5268
 11
180.956
 21
-23.6558
  0
LINE
  8
0
 10
180.956
 20
-23.6558
 11
180.804
 21
-23.7665
  0
LINE
  8
0
 10
180.804
 20
-23.7665
 11
180.639
 21
-23.8572
  0
LINE
  8
0
 10
180.639
 20
-23.8572
 11
180.464
 21
-23.9266
  0
LINE
  8
0
 10
180.464
 20
-23.9266
 11
180.281
 21
-23.9734
  0
LINE
  8
0
 10
180.281
 20
-23.9734
 11
180.094
 21
-23.997
  0
LINE
  8
0
 10
180.094
 20
-23.997
 11
179.906
 21
-23.997
  0
LINE
  8
0
 10
-180.188
 20
-32.9941
 11
-180.562
 21
-32.9469
  0
LINE
  8
0
 10
-180.562
 20
-32.9469
 11
-180.927
 21
-32.8532
  0
LINE
  8
0
 10
-180.927
 20
-32.8532
 11
-181.277
 21
-32.7145
  0
LINE
  8
0
 10
-181.277
 20
-32.7145
 11
-181.607
 21
-32.533
  0
LINE
  8
0
 10
-181.607
 20
-32.533
 11
-181.912
 21
-32.3115
  0
LINE
  8
0
 10
-181.912
 20
-32.3115
 11
-182.187
 21
-32.0536
  0
LINE
  8
0
 10
-182.187
 20
-32.0536
 11
-182.427
 21
-31.7634
  0
LINE
  8
0
 10
-182.427
 20
-31.7634
 11
-182.629
 21
-31.4453
  0
LINE
  8
0
 10
-182.629
 20
-31.4453
 11
-182.789
 21
-31.1044
  0
LINE
  8
0
 10
-182.789
 20
-31.1044
 11
-182.906
 21
-30.7461
  0
LINE
  8
0
 10
-182.906
 20
-30.7461
 11
-182.976
 21
-30.376
  0
LINE
  8
0
 10
-182.976
 20
-30.376
 11
-183
 21
-30
  0
LINE
  8
0
 10
-183
 20
-30
 11
-182.976
 21
-29.624
  0
LINE
  8
0
 10
-182.976
 20
-29.624
 11
-182.906
 21
-29.2539
  0
LINE
  8
0
 10
-182.906
 20
-29.2539
 11
-182.789
 21
-28.8956
  0
LINE
  8
0
 10
-182.789
 20
-28.8956
 11
-182.629
 21
-28.5547
  0
LINE
  8
0
 10
-182.629
 20
-28.5547
 11
-182.427
 21
-28.2366
  0
LINE
  8
0
 10
-182.427
 20
-28.2366
 11
-182.187
 21
-27.9464
  0
LINE
  8
0
 10
-182.187
 20
-27.9464
 11
-181.912
 21
-27.6884
  0
LINE
  8
0
 10
-181.912
 20
-27.6884
 11
-181.607
 21
-27.467
  0
LINE
  8
0
 10
-181.607
 20
-27.467
 11
-181.277
 21
-27.2855
  0
LINE
  8
0
 10
-181.277
 20
-27.2855
 11
-180.927
 21
-27.1468
  0
LINE
  8
0
 10
-180.927
 20
-27.1468
 11
-180.562
 21
-27.0531
  0
LINE
  8
0
 10
-180.562
 20
-27.0531
 11
-180.188
 21
-27.0059
  0
LINE
  8
0
 10
-180.188
 20
-27.0059
 11
-179.812
 21
-27.0059
  0
LINE
  8
0
 10
-179.812
 20
-27.0059
 11
-179.438
 21
-27.0531
  0
LINE
  8
0
 10
-179.438
 20
-27.0531
 11
-179.073
 21
-27.1468
  0
LINE
  8
0
 10
-179.073
 20
-27.1468
 11
-178.723
 21
-27.2855
  0
LINE
  8
0
 10
-178.723
 20
-27.2855
 11
-178.393
 21
-27.467
  0
LINE
  8
0
 10
-178.393
 20
-27.467
 11
-178.088
 21
-27.6884
  0
LINE
  8
0
 10
-178.088
 20
-27.6884
 11
-177.813
 21
-27.9464
  0
LINE
  8
0
 10
-177.813
 20
-27.9464
 11
-177.573
 21
-28.2366
  0
LINE
  8
0
 10
-177.573
 20
-28.2366
 11
-177.371
 21
-28.5547
  0
LINE
  8
0
 10
-177.371
 20
-28.5547
 11
-177.211
 21
-28.8956
  0
LINE
  8
0
 10
-177.211
 20
-28.8956
 11
-177.094
 21
-29.2539
  0
LINE
  8
0
 10
-177.094
 20
-29.2539
 11
-177.024
 21
-29.624
  0
LINE
  8
0
 10
-177.024
 20
-29.624
 11
-177
 21
-30
  0
LINE
  8
0
 10
-177
 20
-30
 11
-177.024
 21
-30.376
  0
LINE
  8
0
 10
-177.024
 20
-30.376
 11
-177.094
 21
-30.7461
  0
LINE
  8
0
 10
-177.094
 20
-30.7461
 11
-177.211
 21
-31.1044
  0
LINE
  8
0
 10
-177.211
 20
-31.1044
 11
-177.371
 21
-31.4453
  0
LINE
  8
0
 10
-177.371
 20
-31.4453
 11
-177.573
 21
-31.7634
  0
LINE
  8
0
 10
-177.573
 20
-31.7634
 11
-177.813
 21
-32.0536
  0
LINE
  8
0
 10
-177.813
 20
-32.0536
 11
-178.088
 21
-32.3115
  0
LINE
  8
0
 10
-178.088
 20
-32.3115
 11
-178.393
 21
-32.533
  0
LINE
  8
0
 10
-178.393
 20
-32.533
 11
-178.723
 21
-32.7145
  0
LINE
  8
0
 10
-178.723
 20
-32.7145
 11
-179.073
 21
-32.8532
  0
LINE
  8
0
 10
-179.073
 20
-32.8532
 11
-179.438
 21
-32.9469
  0
LINE
  8
0
 10
-179.438
 20
-32.9469
 11
-179.812
 21
-32.9941
  0
LINE
  8
0
 10
-179.812
 20
-32.9941
 11
-180.188
 21
-32.9941
  0
LINE
  8
0
 10
179.812
 20
-32.9941
 11
179.438
 21
-32.9469
  0
LINE
  8
0
 10
179.438
 20
-32.9469
 11
179.073
 21
-32.8532
  0
LINE
  8
0
 10
179.073
 20
-32.8532
 11
178.723
 21
-32.7145
  0
LINE
  8
0
 10
178.723
 20
-32.7145
 11
178.393
 21
-32.533
  0
LINE
  8
0
 10
178.393
 20
-32.533
 11
178.088
 21
-32.3115
  0
LINE
  8
0
 10
178.088
 20
-32.3115
 11
177.813
 21
-32.0536
  0
LINE
  8
0
 10
177.813
 20
-32.0536
 11
177.573
 21
-31.7634
  0
LINE
  8
0
 10
177.573
 20
-31.7634
 11
177.371
 21
-31.4453
  0
LINE
  8
0
 10
177.371
 20
-31.4453
 11
177.211
 21
-31.1044
  0
LINE
  8
0
 10
177.211
 20
-31.1044
 11
177.094
 21
-30.7461
  0
LINE
  8
0
 10
177.094
 20
-30.7461
 11
177.024
 21
-30.376
  0
LINE
  8
0
 10
177.024
 20
-30.376
 11
177
 21
-30
  0
LINE
  8
0
 10
177
 20
-30
 11
177.024
 21
-29.624
  0
LINE
  8
0
 10
177.024
 20
-29.624
 11
177.094
 21
-29.2539
  0
LINE
  8
0
 10
177.094
 20
-29.2539
 11
177.211
 21
-28.8956
  0
LINE
  8
0
 10
177.211
 20
-28.8956
 11
177.371
 21
-28.5547
  0
LINE
  8
0
 10
177.371
 20
-28.5547
 11
177.573
 21
-28.2366
  0
LINE
  8
0
 10
177.573
 20
-28.2366
 11
177.813
 21
-27.9464
  0
LINE
  8
0
 10
177.813
 20
-27.9464
 11
178.088
 21
-27.6884
  0
LINE
  8
0
 10
178.088
 20
-27.6884
 11
178.393
 21
-27.467
  0
LINE
  8
0
 10
178.393
 20
-27.467
 11
178.723
 21
-27.2855
  0
LINE
  8
0
 10
178.723
 20
-27.2855
 11
179.073
 21
-27.1468
  0
LINE
  8
0
 10
179.073
 20
-27.1468
 11
179.438
 21
-27.0531
  0
LINE
  8
0
 10
179.438
 20
-27.0531
 11
179.812
 21
-27.0059
  0
LINE
  8
0
 10
179.812
 20
-27.0059
 11
180.188
 21
-27.0059
  0
LINE
  8
0
 10
180.188
 20
-27.0059
 11
180.562
 21
-27.0531
  0
LINE
  8
0
 10
180.562
 20
-27.0531
 11
180.927
 21
-27.1468
  0
LINE
  8
0
 10
180.927
 20
-27.1468
 11
181.277
 21
-27.2855
  0
LINE
  8
0
 10
181.277
 20
-27.2855
 11
181.607
 21
-27.467
  0
LINE
  8
0
 10
181.607
 20
-27.467
 11
181.912
 21
-27.6884
  0
LINE
  8
0
 10
181.912
 20
-27.6884
 11
182.187
 21
-27.9464
  0
LINE
  8
0
 10
182.187
 20
-27.9464
 11
182.427
 21
-28.2366
  0
LINE
  8
0
 10
182.427
 20
-28.2366
 11
182.629
 21
-28.5547
  0
LINE
  8
0
 10
182.629
 20
-28.5547
 11
182.789
 21
-28.8956
  0
LINE
  8
0
 10
182.789
 20
-28.8956
 11
182.906
 21
-29.2539
  0
LINE
  8
0
 10
182.906
 20
-29.2539
 11
182.976
 21
-29.624
  0
LINE
  8
0
 10
182.976
 20
-29.624
 11
183
 21
-30
  0
LINE
  8
0
 10
183
 20
-30
 11
182.976
 21
-30.376
  0
LINE
  8
0
 10
182.976
 20
-30.376
 11
182.906
 21
-30.7461
  0
LINE
  8
0
 10
182.906
 20
-30.7461
 11
182.789
 21
-31.1044
  0
LINE
  8
0
 10
182.789
 20
-31.1044
 11
182.629
 21
-31.4453
  0
LINE
  8
0
 10
182.629
 20
-31.4453
 11
182.427
 21
-31.7634
  0
LINE
  8
0
 10
182.427
 20
-31.7634
 11
182.187
 21
-32.0536
  0
LINE
  8
0
 10
182.187
 20
-32.0536
 11
181.912
 21
-32.3115
  0
LINE
  8
0
 10
181.912
 20
-32.3115
 11
181.607
 21
-32.533
  0
LINE
  8
0
 10
181.607
 20
-32.533
 11
181.277
 21
-32.7145
  0
LINE
  8
0
 10
181.277
 20
-32.7145
 11
180.927
 21
-32.8532
  0
LINE
  8
0
 10
180.927
 20
-32.8532
 11
180.562
 21
-32.9469
  0
LINE
  8
0
 10
180.562
 20
-32.9469
 11
180.188
 21
-32.9941
  0
LINE
  8
0
 10
180.188
 20
-32.9941
 11
179.812
 21
-32.9941
  0
ENDSEC
  0
SECTION
  2
OBJECTS
  0
DICTIONARY
  0
ENDSEC
  0
EOF
