<?xml version="1.0" standalone="no"?>
<!DOCTYPE svg PUBLIC "-//W3C//DTD SVG 1.1//EN" "http://www.w3.org/Graphics/SVG/1.1/DTD/svg11.dtd">
<svg width="374mm" height="74mm" viewBox="-187 -37 374 74" xmlns="http://www.w3.org/2000/svg" version="1.1">
<title>OpenSCAD Model</title>
<path d="
M 182.937,36.9114 L 183.545,36.7553 L 184.129,36.5241 L 184.679,36.2216 L 185.187,35.8526 L 185.645,35.4227
 L 186.045,34.9389 L 186.382,34.4088 L 186.649,33.8406 L 186.843,33.2434 L 186.961,32.6267 L 187,32
 L 187,-32 L 186.961,-32.6267 L 186.843,-33.2434 L 186.649,-33.8406 L 186.382,-34.4088 L 186.045,-34.9389
 L 185.645,-35.4227 L 185.187,-35.8526 L 184.679,-36.2216 L 184.129,-36.5241 L 183.545,-36.7553 L 182.937,-36.9114
 L 182.314,-36.9901 L -182.314,-36.9901 L -182.937,-36.9114 L -183.545,-36.7553 L -184.129,-36.5241 L -184.679,-36.2216
 L -185.187,-35.8526 L -185.645,-35.4227 L -186.045,-34.9389 L -186.382,-34.4088 L -186.649,-33.8406 L -186.843,-33.2434
 L -186.961,-32.6267 L -187,-32 L -187,32 L -186.961,32.6267 L -186.843,33.2434 L -186.649,33.8406
 L -186.382,34.4088 L -186.045,34.9389 L -185.645,35.4227 L -185.187,35.8526 L -184.679,36.2216 L -184.129,36.5241
 L -183.545,36.7553 L -182.937,36.9114 L -182.314,36.9901 L 182.314,36.9901 z
M 179.812,-27.0059 L 179.438,-27.0531 L 179.073,-27.1468 L 178.723,-27.2855 L 178.393,-27.467 L 178.088,-27.6884
 L 177.813,-27.9464 L 177.573,-28.2366 L 177.371,-28.5547 L 177.211,-28.8956 L 177.094,-29.2539 L 177.024,-29.624
 L 177,-30 L 177.024,-30.376 L 177.094,-30.7461 L 177.211,-31.1044 L 177.371,-31.4453 L 177.573,-31.7634
 L 177.813,-32.0536 L 178.088,-32.3115 L 178.393,-32.533 L 178.723,-32.7145 L 179.073,-32.8532 L 179.438,-32.9469
 L 179.812,-32.9941 L 180.188,-32.9941 L 180.562,-32.9469 L 180.927,-32.8532 L 181.277,-32.7145 L 181.607,-32.533
 L 181.912,-32.3115 L 182.187,-32.0536 L 182.427,-31.7634 L 182.629,-31.4453 L 182.789,-31.1044 L 182.906,-30.7461
 L 182.976,-30.376 L 183,-30 L 182.976,-29.624 L 182.906,-29.2539 L 182.789,-28.8956 L 182.629,-28.5547
 L 182.427,-28.2366 L 182.187,-27.9464 L 181.912,-27.6884 L 181.607,-27.467 L 181.277,-27.2855 L 180.927,-27.1468
 L 180.562,-27.0531 L 180.188,-27.0059 z
M -180.188,-27.0059 L -180.562,-27.0531 L -180.927,-27.1468 L -181.277,-27.2855 L -181.607,-27.467 L -181.912,-27.6884
 L -182.187,-27.9464 L -182.427,-28.2366 L -182.629,-28.5547 L -182.789,-28.8956 L -182.906,-29.2539 L -182.976,-29.624
 L -183,-30 L -182.976,-30.376 L -182.906,-30.7461 L -182.789,-31.1044 L -182.629,-31.4453 L -182.427,-31.7634
 L -182.187,-32.0536 L -181.912,-32.3115 L -181.607,-32.533 L -181.277,-32.7145 L -180.927,-32.8532 L -180.562,-32.9469
 L -180.188,-32.9941 L -179.812,-32.9941 L -179.438,-32.9469 L -179.073,-32.8532 L -178.723,-32.7145 L -178.393,-32.533
 L -178.088,-32.3115 L -177.813,-32.0536 L -177.573,-31.7634 L -177.371,-31.4453 L -177.211,-31.1044 L -177.094,-30.7461
 L -177.024,-30.376 L -177,-30 L -177.024,-29.624 L -177.094,-29.2539 L -177.211,-28.8956 L -177.371,-28.5547
 L -177.573,-28.2366 L -177.813,-27.9464 L -178.088,-27.6884 L -178.393,-27.467 L -178.723,-27.2855 L -179.073,-27.1468
 L -179.438,-27.0531 L -179.812,-27.0059 z
M -71.0093,31.9368 L -74.9962,31.4332 L -78.8885,30.4338 L -82.6249,28.9545 L -86.1465,27.0185 L -89.3976,24.6564
 L -92.327,21.9055 L -94.8885,18.8091 L -97.0418,15.4161 L -98.7528,11.78 L -99.9947,7.95807 L -100.748,4.01065
 L -101,-0 L -100.748,-4.01065 L -99.9947,-7.95807 L -98.7528,-11.78 L -97.0418,-15.4161 L -94.8885,-18.8091
 L -92.327,-21.9055 L -89.3976,-24.6564 L -86.1465,-27.0185 L -82.6249,-28.9545 L -78.8885,-30.4338 L -74.9962,-31.4332
 L -71.0093,-31.9368 L -66.9907,-31.9368 L -63.0038,-31.4332 L -59.1115,-30.4338 L -55.3751,-28.9545 L -51.8535,-27.0185
 L -48.6024,-24.6564 L -45.673,-21.9055 L -43.1115,-18.8091 L -40.9582,-15.4161 L -39.2471,-11.78 L -38.0053,-7.95807
 L -37.2523,-4.01065 L -37,-0 L -37.2523,4.01065 L -38.0053,7.95807 L -39.2471,11.78 L -40.9582,15.4161
 L -43.1115,18.8091 L -45.673,21.9055 L -48.6024,24.6564 L -51.8535,27.0185 L -55.3751,28.9545 L -59.1115,30.4338
 L -63.0038,31.4332 L -66.9907,31.9368 z
M 66.9907,31.9368 L 63.0038,31.4332 L 59.1115,30.4338 L 55.3751,28.9545 L 51.8535,27.0185 L 48.6024,24.6564
 L 45.673,21.9055 L 43.1115,18.8091 L 40.9582,15.4161 L 39.2471,11.78 L 38.0053,7.95807 L 37.2523,4.01065
 L 37,-0 L 37.2523,-4.01065 L 38.0053,-7.95807 L 39.2471,-11.78 L 40.9582,-15.4161 L 43.1115,-18.8091
 L 45.673,-21.9055 L 48.6024,-24.6564 L 51.8535,-27.0185 L 55.3751,-28.9545 L 59.1115,-30.4338 L 63.0038,-31.4332
 L 66.9907,-31.9368 L 71.0093,-31.9368 L 74.9962,-31.4332 L 78.8885,-30.4338 L 82.6249,-28.9545 L 86.1465,-27.0185
 L 89.3976,-24.6564 L 92.327,-21.9055 L 94.8885,-18.8091 L 97.0418,-15.4161 L 98.7528,-11.78 L 99.9947,-7.95807
 L 100.748,-4.01065 L 101,-0 L 100.748,4.01065 L 99.9947,7.95807 L 98.7528,11.78 L 97.0418,15.4161
 L 94.8885,18.8091 L 92.327,21.9055 L 89.3976,24.6564 L 86.1465,27.0185 L 82.6249,28.9545 L 78.8885,30.4338
 L 74.9962,31.4332 L 71.0093,31.9368 z
M -140.009,31.9368 L -143.996,31.4332 L -147.889,30.4338 L -151.625,28.9545 L -155.146,27.0185 L -158.398,24.6564
 L -161.327,21.9055 L -163.889,18.8091 L -166.042,15.4161 L -167.753,11.78 L -168.995,7.95807 L -169.748,4.01065
 L -170,-0 L -169.748,-4.01065 L -168.995,-7.95807 L -167.753,-11.78 L -166.042,-15.4161 L -163.889,-18.8091
 L -161.327,-21.9055 L -158.398,-24.6564 L -155.146,-27.0185 L -151.625,-28.9545 L -147.889,-30.4338 L -143.996,-31.4332
 L -140.009,-31.9368 L -135.991,-31.9368 L -132.004,-31.4332 L -128.111,-30.4338 L -124.375,-28.9545 L -120.854,-27.0185
 L -117.602,-24.6564 L -114.673,-21.9055 L -112.111,-18.8091 L -109.958,-15.4161 L -108.247,-11.78 L -107.005,-7.95807
 L -106.252,-4.01065 L -106,-0 L -106.252,4.01065 L -107.005,7.95807 L -108.247,11.78 L -109.958,15.4161
 L -112.111,18.8091 L -114.673,21.9055 L -117.602,24.6564 L -120.854,27.0185 L -124.375,28.9545 L -128.111,30.4338
 L -132.004,31.4332 L -135.991,31.9368 z
M -2.00929,31.9368 L -5.9962,31.4332 L -9.88853,30.4338 L -13.6249,28.9545 L -17.1465,27.0185 L -20.3976,24.6564
 L -23.327,21.9055 L -25.8885,18.8091 L -28.0418,15.4161 L -29.7528,11.78 L -30.9947,7.95807 L -31.7477,4.01065
 L -32,-0 L -31.7477,-4.01065 L -30.9947,-7.95807 L -29.7528,-11.78 L -28.0418,-15.4161 L -25.8885,-18.8091
 L -23.327,-21.9055 L -20.3976,-24.6564 L -17.1465,-27.0185 L -13.6249,-28.9545 L -9.88853,-30.4338 L -5.9962,-31.4332
 L -2.00929,-31.9368 L 2.00929,-31.9368 L 5.9962,-31.4332 L 9.88853,-30.4338 L 13.6249,-28.9545 L 17.1465,-27.0185
 L 20.3976,-24.6564 L 23.327,-21.9055 L 25.8885,-18.8091 L 28.0418,-15.4161 L 29.7528,-11.78 L 30.9947,-7.95807
 L 31.7477,-4.01065 L 32,-0 L 31.7477,4.01065 L 30.9947,7.95807 L 29.7528,11.78 L 28.0418,15.4161
 L 25.8885,18.8091 L 23.327,21.9055 L 20.3976,24.6564 L 17.1465,27.0185 L 13.6249,28.9545 L 9.88853,30.4338
 L 5.9962,31.4332 L 2.00929,31.9368 z
M 135.991,31.9368 L 132.004,31.4332 L 128.111,30.4338 L 124.375,28.9545 L 120.854,27.0185 L 117.602,24.6564
 L 114.673,21.9055 L 112.111,18.8091 L 109.958,15.4161 L 108.247,11.78 L 107.005,7.95807 L 106.252,4.01065
 L 106,-0 L 106.252,-4.01065 L 107.005,-7.95807 L 108.247,-11.78 L 109.958,-15.4161 L 112.111,-18.8091
 L 114.673,-21.9055 L 117.602,-24.6564 L 120.854,-27.0185 L 124.375,-28.9545 L 128.111,-30.4338 L 132.004,-31.4332
 L 135.991,-31.9368 L 140.009,-31.9368 L 143.996,-31.4332 L 147.889,-30.4338 L 151.625,-28.9545 L 155.146,-27.0185
 L 158.398,-24.6564 L 161.327,-21.9055 L 163.889,-18.8091 L 166.042,-15.4161 L 167.753,-11.78 L 168.995,-7.95807
 L 169.748,-4.01065 L 170,-0 L 169.748,4.01065 L 168.995,7.95807 L 167.753,11.78 L 166.042,15.4161
 L 163.889,18.8091 L 161.327,21.9055 L 158.398,24.6564 L 155.146,27.0185 L 151.625,28.9545 L 147.889,30.4338
 L 143.996,31.4332 L 140.009,31.9368 z
M -180.094,-21.003 L -180.281,-21.0266 L -180.464,-21.0734 L -180.639,-21.1427 L -180.804,-21.2335 L -180.956,-21.3442
 L -181.093,-21.4732 L -181.214,-21.6183 L -181.314,-21.7774 L -181.395,-21.9478 L -181.453,-22.127 L -181.488,-22.312
 L -181.5,-22.5 L -181.488,-22.688 L -181.453,-22.873 L -181.395,-23.0522 L -181.314,-23.2226 L -181.214,-23.3817
 L -181.093,-23.5268 L -180.956,-23.6558 L -180.804,-23.7665 L -180.639,-23.8572 L -180.464,-23.9266 L -180.281,-23.9734
 L -180.094,-23.997 L -179.906,-23.997 L -179.719,-23.9734 L -179.536,-23.9266 L -179.361,-23.8572 L -179.196,-23.7665
 L -179.044,-23.6558 L -178.907,-23.5268 L -178.786,-23.3817 L -178.686,-23.2226 L -178.605,-23.0522 L -178.547,-22.873
 L -178.512,-22.688 L -178.5,-22.5 L -178.512,-22.312 L -178.547,-22.127 L -178.605,-21.9478 L -178.686,-21.7774
 L -178.786,-21.6183 L -178.907,-21.4732 L -179.044,-21.3442 L -179.196,-21.2335 L -179.361,-21.1427 L -179.536,-21.0734
 L -179.719,-21.0266 L -179.906,-21.003 z
M 179.906,-21.003 L 179.719,-21.0266 L 179.536,-21.0734 L 179.361,-21.1427 L 179.196,-21.2335 L 179.044,-21.3442
 L 178.907,-21.4732 L 178.786,-21.6183 L 178.686,-21.7774 L 178.605,-21.9478 L 178.547,-22.127 L 178.512,-22.312
 L 178.5,-22.5 L 178.512,-22.688 L 178.547,-22.873 L 178.605,-23.0522 L 178.686,-23.2226 L 178.786,-23.3817
 L 178.907,-23.5268 L 179.044,-23.6558 L 179.196,-23.7665 L 179.361,-23.8572 L 179.536,-23.9266 L 179.719,-23.9734
 L 179.906,-23.997 L 180.094,-23.997 L 180.281,-23.9734 L 180.464,-23.9266 L 180.639,-23.8572 L 180.804,-23.7665
 L 180.956,-23.6558 L 181.093,-23.5268 L 181.214,-23.3817 L 181.314,-23.2226 L 181.395,-23.0522 L 181.453,-22.873
 L 181.488,-22.688 L 181.5,-22.5 L 181.488,-22.312 L 181.453,-22.127 L 181.395,-21.9478 L 181.314,-21.7774
 L 181.214,-21.6183 L 181.093,-21.4732 L 180.956,-21.3442 L 180.804,-21.2335 L 180.639,-21.1427 L 180.464,-21.0734
 L 180.281,-21.0266 L 180.094,-21.003 z
M 179.812,-12.0059 L 179.438,-12.0531 L 179.073,-12.1468 L 178.723,-12.2855 L 178.393,-12.467 L 178.088,-12.6884
 L 177.813,-12.9464 L 177.573,-13.2366 L 177.371,-13.5547 L 177.211,-13.8956 L 177.094,-14.2539 L 177.024,-14.624
 L 177,-15 L 177.024,-15.376 L 177.094,-15.7461 L 177.211,-16.1044 L 177.371,-16.4453 L 177.573,-16.7634
 L 177.813,-17.0536 L 178.088,-17.3115 L 178.393,-17.533 L 178.723,-17.7145 L 179.073,-17.8532 L 179.438,-17.9469
 L 179.812,-17.9941 L 180.188,-17.9941 L 180.562,-17.9469 L 180.927,-17.8532 L 181.277,-17.7145 L 181.607,-17.533
 L 181.912,-17.3115 L 182.187,-17.0536 L 182.427,-16.7634 L 182.629,-16.4453 L 182.789,-16.1044 L 182.906,-15.7461
 L 182.976,-15.376 L 183,-15 L 182.976,-14.624 L 182.906,-14.2539 L 182.789,-13.8956 L 182.629,-13.5547
 L 182.427,-13.2366 L 182.187,-12.9464 L 181.912,-12.6884 L 181.607,-12.467 L 181.277,-12.2855 L 180.927,-12.1468
 L 180.562,-12.0531 L 180.188,-12.0059 z
M -180.188,-12.0059 L -180.562,-12.0531 L -180.927,-12.1468 L -181.277,-12.2855 L -181.607,-12.467 L -181.912,-12.6884
 L -182.187,-12.9464 L -182.427,-13.2366 L -182.629,-13.5547 L -182.789,-13.8956 L -182.906,-14.2539 L -182.976,-14.624
 L -183,-15 L -182.976,-15.376 L -182.906,-15.7461 L -182.789,-16.1044 L -182.629,-16.4453 L -182.427,-16.7634
 L -182.187,-17.0536 L -181.912,-17.3115 L -181.607,-17.533 L -181.277,-17.7145 L -180.927,-17.8532 L -180.562,-17.9469
 L -180.188,-17.9941 L -179.812,-17.9941 L -179.438,-17.9469 L -179.073,-17.8532 L -178.723,-17.7145 L -178.393,-17.533
 L -178.088,-17.3115 L -177.813,-17.0536 L -177.573,-16.7634 L -177.371,-16.4453 L -177.211,-16.1044 L -177.094,-15.7461
 L -177.024,-15.376 L -177,-15 L -177.024,-14.624 L -177.094,-14.2539 L -177.211,-13.8956 L -177.371,-13.5547
 L -177.573,-13.2366 L -177.813,-12.9464 L -178.088,-12.6884 L -178.393,-12.467 L -178.723,-12.2855 L -179.073,-12.1468
 L -179.438,-12.0531 L -179.812,-12.0059 z
M -180.094,-6.00294 L -180.281,-6.02657 L -180.464,-6.07341 L -180.639,-6.14275 L -180.804,-6.23351 L -180.956,-6.34422
 L -181.093,-6.47318 L -181.214,-6.61832 L -181.314,-6.77736 L -181.395,-6.9478 L -181.453,-7.12695 L -181.488,-7.312
 L -181.5,-7.5 L -181.488,-7.68799 L -181.453,-7.87303 L -181.395,-8.05219 L -181.314,-8.22263 L -181.214,-8.38167
 L -181.093,-8.52681 L -180.956,-8.65576 L -180.804,-8.76648 L -180.639,-8.85724 L -180.464,-8.92657 L -180.281,-8.97342
 L -180.094,-8.99704 L -179.906,-8.99704 L -179.719,-8.97342 L -179.536,-8.92657 L -179.361,-8.85724 L -179.196,-8.76648
 L -179.044,-8.65576 L -178.907,-8.52681 L -178.786,-8.38167 L -178.686,-8.22263 L -178.605,-8.05219 L -178.547,-7.87303
 L -178.512,-7.68799 L -178.5,-7.5 L -178.512,-7.312 L -178.547,-7.12695 L -178.605,-6.9478 L -178.686,-6.77736
 L -178.786,-6.61832 L -178.907,-6.47318 L -179.044,-6.34422 L -179.196,-6.23351 L -179.361,-6.14275 L -179.536,-6.07341
 L -179.719,-6.02657 L -179.906,-6.00294 z
M 179.906,-6.00294 L 179.719,-6.02657 L 179.536,-6.07341 L 179.361,-6.14275 L 179.196,-6.23351 L 179.044,-6.34422
 L 178.907,-6.47318 L 178.786,-6.61832 L 178.686,-6.77736 L 178.605,-6.9478 L 178.547,-7.12695 L 178.512,-7.312
 L 178.5,-7.5 L 178.512,-7.68799 L 178.547,-7.87303 L 178.605,-8.05219 L 178.686,-8.22263 L 178.786,-8.38167
 L 178.907,-8.52681 L 179.044,-8.65576 L 179.196,-8.76648 L 179.361,-8.85724 L 179.536,-8.92657 L 179.719,-8.97342
 L 179.906,-8.99704 L 180.094,-8.99704 L 180.281,-8.97342 L 180.464,-8.92657 L 180.639,-8.85724 L 180.804,-8.76648
 L 180.956,-8.65576 L 181.093,-8.52681 L 181.214,-8.38167 L 181.314,-8.22263 L 181.395,-8.05219 L 181.453,-7.87303
 L 181.488,-7.68799 L 181.5,-7.5 L 181.488,-7.312 L 181.453,-7.12695 L 181.395,-6.9478 L 181.314,-6.77736
 L 181.214,-6.61832 L 181.093,-6.47318 L 180.956,-6.34422 L 180.804,-6.23351 L 180.639,-6.14275 L 180.464,-6.07341
 L 180.281,-6.02657 L 180.094,-6.00294 z
M 179.812,2.99408 L 179.438,2.94685 L 179.073,2.85316 L 178.723,2.71448 L 178.393,2.53297 L 178.088,2.31154
 L 177.813,2.05363 L 177.573,1.76335 L 177.371,1.44525 L 177.211,1.10437 L 177.094,0.746063 L 177.024,0.375992
 L 177,-0 L 177.024,-0.375992 L 177.094,-0.746063 L 177.211,-1.10437 L 177.371,-1.44525 L 177.573,-1.76335
 L 177.813,-2.05363 L 178.088,-2.31154 L 178.393,-2.53297 L 178.723,-2.71448 L 179.073,-2.85316 L 179.438,-2.94685
 L 179.812,-2.99408 L 180.188,-2.99408 L 180.562,-2.94685 L 180.927,-2.85316 L 181.277,-2.71448 L 181.607,-2.53297
 L 181.912,-2.31154 L 182.187,-2.05363 L 182.427,-1.76335 L 182.629,-1.44525 L 182.789,-1.10437 L 182.906,-0.746063
 L 182.976,-0.375992 L 183,-0 L 182.976,0.375992 L 182.906,0.746063 L 182.789,1.10437 L 182.629,1.44525
 L 182.427,1.76335 L 182.187,2.05363 L 181.912,2.31154 L 181.607,2.53297 L 181.277,2.71448 L 180.927,2.85316
 L 180.562,2.94685 L 180.188,2.99408 z
M -180.188,2.99408 L -180.562,2.94685 L -180.927,2.85316 L -181.277,2.71448 L -181.607,2.53297 L -181.912,2.31154
 L -182.187,2.05363 L -182.427,1.76335 L -182.629,1.44525 L -182.789,1.10437 L -182.906,0.746063 L -182.976,0.375992
 L -183,-0 L -182.976,-0.375992 L -182.906,-0.746063 L -182.789,-1.10437 L -182.629,-1.44525 L -182.427,-1.76335
 L -182.187,-2.05363 L -181.912,-2.31154 L -181.607,-2.53297 L -181.277,-2.71448 L -180.927,-2.85316 L -180.562,-2.94685
 L -180.188,-2.99408 L -179.812,-2.99408 L -179.438,-2.94685 L -179.073,-2.85316 L -178.723,-2.71448 L -178.393,-2.53297
 L -178.088,-2.31154 L -177.813,-2.05363 L -177.573,-1.76335 L -177.371,-1.44525 L -177.211,-1.10437 L -177.094,-0.746063
 L -177.024,-0.375992 L -177,-0 L -177.024,0.375992 L -177.094,0.746063 L -177.211,1.10437 L -177.371,1.44525
 L -177.573,1.76335 L -177.813,2.05363 L -178.088,2.31154 L -178.393,2.53297 L -178.723,2.71448 L -179.073,2.85316
 L -179.438,2.94685 L -179.812,2.99408 z
M -180.094,8.99704 L -180.281,8.97342 L -180.464,8.92657 L -180.639,8.85724 L -180.804,8.76648 L -180.956,8.65576
 L -181.093,8.52681 L -181.214,8.38167 L -181.314,8.22263 L -181.395,8.05219 L -181.453,7.87303 L -181.488,7.68799
 L -181.5,7.5 L -181.488,7.312 L -181.453,7.12695 L -181.395,6.9478 L -181.314,6.77736 L -181.214,6.61832
 L -181.093,6.47318 L -180.956,6.34422 L -180.804,6.23351 L -180.639,6.14275 L -180.464,6.07341 L -180.281,6.02657
 L -180.094,6.00294 L -179.906,6.00294 L -179.719,6.02657 L -179.536,6.07341 L -179.361,6.14275 L -179.196,6.23351
 L -179.044,6.34422 L -178.907,6.47318 L -178.786,6.61832 L -178.686,6.77736 L -178.605,6.9478 L -178.547,7.12695
 L -178.512,7.312 L -178.5,7.5 L -178.512,7.68799 L -178.547,7.87303 L -178.605,8.05219 L -178.686,8.22263
 L -178.786,8.38167 L -178.907,8.52681 L -179.044,8.65576 L -179.196,8.76648 L -179.361,8.85724 L -179.536,8.92657
 L -179.719,8.97342 L -179.906,8.99704 z
M 179.906,8.99704 L 179.719,8.97342 L 179.536,8.92657 L 179.361,8.85724 L 179.196,8.76648 L 179.044,8.65576
 L 178.907,8.52681 L 178.786,8.38167 L 178.686,8.22263 L 178.605,8.05219 L 178.547,7.87303 L 178.512,7.68799
 L 178.5,7.5 L 178.512,7.312 L 178.547,7.12695 L 178.605,6.9478 L 178.686,6.77736 L 178.786,6.61832
 L 178.907,6.47318 L 179.044,6.34422 L 179.196,6.23351 L 179.361,6.14275 L 179.536,6.07341 L 179.719,6.02657
 L 179.906,6.00294 L 180.094,6.00294 L 180.281,6.02657 L 180.464,6.07341 L 180.639,6.14275 L 180.804,6.23351
 L 180.956,6.34422 L 181.093,6.47318 L 181.214,6.61832 L 181.314,6.77736 L 181.395,6.9478 L 181.453,7.12695
 L 181.488,7.312 L 181.5,7.5 L 181.488,7.68799 L 181.453,7.87303 L 181.395,8.05219 L 181.314,8.22263
 L 181.214,8.38167 L 181.093,8.52681 L 180.956,8.65576 L 180.804,8.76648 L 180.639,8.85724 L 180.464,8.92657
 L 180.281,8.97342 L 180.094,8.99704 z
M 179.812,17.9941 L 179.438,17.9469 L 179.073,17.8532 L 178.723,17.7145 L 178.393,17.533 L 178.088,17.3115
 L 177.813,17.0536 L 177.573,16.7634 L 177.371,16.4453 L 177.211,16.1044 L 177.094,15.7461 L 177.024,15.376
 L 177,15 L 177.024,14.624 L 177.094,14.2539 L 177.211,13.8956 L 177.371,13.5547 L 177.573,13.2366
 L 177.813,12.9464 L 178.088,12.6884 L 178.393,12.467 L 178.723,12.2855 L 179.073,12.1468 L 179.438,12.0531
 L 179.812,12.0059 L 180.188,12.0059 L 180.562,12.0531 L 180.927,12.1468 L 181.277,12.2855 L 181.607,12.467
 L 181.912,12.6884 L 182.187,12.9464 L 182.427,13.2366 L 182.629,13.5547 L 182.789,13.8956 L 182.906,14.2539
 L 182.976,14.624 L 183,15 L 182.976,15.376 L 182.906,15.7461 L 182.789,16.1044 L 182.629,16.4453
 L 182.427,16.7634 L 182.187,17.0536 L 181.912,17.3115 L 181.607,17.533 L 181.277,17.7145 L 180.927,17.8532
 L 180.562,17.9469 L 180.188,17.9941 z
M -180.188,17.9941 L -180.562,17.9469 L -180.927,17.8532 L -181.277,17.7145 L -181.607,17.533 L -181.912,17.3115
 L -182.187,17.0536 L -182.427,16.7634 L -182.629,16.4453 L -182.789,16.1044 L -182.906,15.7461 L -182.976,15.376
 L -183,15 L -182.976,14.624 L -182.906,14.2539 L -182.789,13.8956 L -182.629,13.5547 L -182.427,13.2366
 L -182.187,12.9464 L -181.912,12.6884 L -181.607,12.467 L -181.277,12.2855 L -180.927,12.1468 L -180.562,12.0531
 L -180.188,12.0059 L -179.812,12.0059 L -179.438,12.0531 L -179.073,12.1468 L -178.723,12.2855 L -178.393,12.467
 L -178.088,12.6884 L -177.813,12.9464 L -177.573,13.2366 L -177.371,13.5547 L -177.211,13.8956 L -177.094,14.2539
 L -177.024,14.624 L -177,15 L -177.024,15.376 L -177.094,15.7461 L -177.211,16.1044 L -177.371,16.4453
 L -177.573,16.7634 L -177.813,17.0536 L -178.088,17.3115 L -178.393,17.533 L -178.723,17.7145 L -179.073,17.8532
 L -179.438,17.9469 L -179.812,17.9941 z
M -180.094,23.997 L -180.281,23.9734 L -180.464,23.9266 L -180.639,23.8572 L -180.804,23.7665 L -180.956,23.6558
 L -181.093,23.5268 L -181.214,23.3817 L -181.314,23.2226 L -181.395,23.0522 L -181.453,22.873 L -181.488,22.688
 L -181.5,22.5 L -181.488,22.312 L -181.453,22.127 L -181.395,21.9478 L -181.314,21.7774 L -181.214,21.6183
 L -181.093,21.4732 L -180.956,21.3442 L -180.804,21.2335 L -180.639,21.1427 L -180.464,21.0734 L -180.281,21.0266
 L -180.094,21.003 L -179.906,21.003 L -179.719,21.0266 L -179.536,21.0734 L -179.361,21.1427 L -179.196,21.2335
 L -179.044,21.3442 L -178.907,21.4732 L -178.786,21.6183 L -178.686,21.7774 L -178.605,21.9478 L -178.547,22.127
 L -178.512,22.312 L -178.5,22.5 L -178.512,22.688 L -178.547,22.873 L -178.605,23.0522 L -178.686,23.2226
 L -178.786,23.3817 L -178.907,23.5268 L -179.044,23.6558 L -179.196,23.7665 L -179.361,23.8572 L -179.536,23.9266
 L -179.719,23.9734 L -179.906,23.997 z
M 179.906,23.997 L 179.719,23.9734 L 179.536,23.9266 L 179.361,23.8572 L 179.196,23.7665 L 179.044,23.6558
 L 178.907,23.5268 L 178.786,23.3817 L 178.686,23.2226 L 178.605,23.0522 L 178.547,22.873 L 178.512,22.688
 L 178.5,22.5 L 178.512,22.312 L 178.547,22.127 L 178.605,21.9478 L 178.686,21.7774 L 178.786,21.6183
 L 178.907,21.4732 L 179.044,21.3442 L 179.196,21.2335 L 179.361,21.1427 L 179.536,21.0734 L 179.719,21.0266
 L 179.906,21.003 L 180.094,21.003 L 180.281,21.0266 L 180.464,21.0734 L 180.639,21.1427 L 180.804,21.2335
 L 180.956,21.3442 L 181.093,21.4732 L 181.214,21.6183 L 181.314,21.7774 L 181.395,21.9478 L 181.453,22.127
 L 181.488,22.312 L 181.5,22.5 L 181.488,22.688 L 181.453,22.873 L 181.395,23.0522 L 181.314,23.2226
 L 181.214,23.3817 L 181.093,23.5268 L 180.956,23.6558 L 180.804,23.7665 L 180.639,23.8572 L 180.464,23.9266
 L 180.281,23.9734 L 180.094,23.997 z
M -180.188,32.9941 L -180.562,32.9469 L -180.927,32.8532 L -181.277,32.7145 L -181.607,32.533 L -181.912,32.3115
 L -182.187,32.0536 L -182.427,31.7634 L -182.629,31.4453 L -182.789,31.1044 L -182.906,30.7461 L -182.976,30.376
 L -183,30 L -182.976,29.624 L -182.906,29.2539 L -182.789,28.8956 L -182.629,28.5547 L -182.427,28.2366
 L -182.187,27.9464 L -181.912,27.6884 L -181.607,27.467 L -181.277,27.2855 L -180.927,27.1468 L -180.562,27.0531
 L -180.188,27.0059 L -179.812,27.0059 L -179.438,27.0531 L -179.073,27.1468 L -178.723,27.2855 L -178.393,27.467
 L -178.088,27.6884 L -177.813,27.9464 L -177.573,28.2366 L -177.371,28.5547 L -177.211,28.8956 L -177.094,29.2539
 L -177.024,29.624 L -177,30 L -177.024,30.376 L -177.094,30.7461 L -177.211,31.1044 L -177.371,31.4453
 L -177.573,31.7634 L -177.813,32.0536 L -178.088,32.3115 L -178.393,32.533 L -178.723,32.7145 L -179.073,32.8532
 L -179.438,32.9469 L -179.812,32.9941 z
M 179.812,32.9941 L 179.438,32.9469 L 179.073,32.8532 L 178.723,32.7145 L 178.393,32.533 L 178.088,32.3115
 L 177.813,32.0536 L 177.573,31.7634 L 177.371,31.4453 L 177.211,31.1044 L 177.094,30.7461 L 177.024,30.376
 L 177,30 L 177.024,29.624 L 177.094,29.2539 L 177.211,28.8956 L 177.371,28.5547 L 177.573,28.2366
 L 177.813,27.9464 L 178.088,27.6884 L 178.393,27.467 L 178.723,27.2855 L 179.073,27.1468 L 179.438,27.0531
 L 179.812,27.0059 L 180.188,27.0059 L 180.562,27.0531 L 180.927,27.1468 L 181.277,27.2855 L 181.607,27.467
 L 181.912,27.6884 L 182.187,27.9464 L 182.427,28.2366 L 182.629,28.5547 L 182.789,28.8956 L 182.906,29.2539
 L 182.976,29.624 L 183,30 L 182.976,30.376 L 182.906,30.7461 L 182.789,31.1044 L 182.629,31.4453
 L 182.427,31.7634 L 182.187,32.0536 L 181.912,32.3115 L 181.607,32.533 L 181.277,32.7145 L 180.927,32.8532
 L 180.562,32.9469 L 180.188,32.9941 z
" stroke="black" fill="lightgray" stroke-width="0.5"/>
</svg>
