<?xml version="1.0" standalone="no"?>
<!DOCTYPE svg PUBLIC "-//W3C//DTD SVG 1.1//EN" "http://www.w3.org/Graphics/SVG/1.1/DTD/svg11.dtd">
<svg width="194mm" height="104mm" viewBox="-97 -52 194 104" xmlns="http://www.w3.org/2000/svg" version="1.1">
<title>OpenSCAD Model</title>
<path d="
M 92.9369,51.9114 L 93.5451,51.7553 L 94.1289,51.5241 L 94.6791,51.2216 L 95.1871,50.8526 L 95.6448,50.4227
 L 96.0451,49.9389 L 96.3815,49.4088 L 96.6489,48.8406 L 96.8429,48.2434 L 96.9606,47.6267 L 97,47
 L 97,-47 L 96.9606,-47.6267 L 96.8429,-48.2434 L 96.6489,-48.8406 L 96.3815,-49.4088 L 96.0451,-49.9389
 L 95.6448,-50.4227 L 95.1871,-50.8526 L 94.6791,-51.2216 L 94.1289,-51.5241 L 93.5451,-51.7553 L 92.9369,-51.9114
 L 92.3139,-51.9901 L -92.3139,-51.9901 L -92.9369,-51.9114 L -93.5451,-51.7553 L -94.1289,-51.5241 L -94.6791,-51.2216
 L -95.1871,-50.8526 L -95.6448,-50.4227 L -96.0451,-49.9389 L -96.3815,-49.4088 L -96.6489,-48.8406 L -96.8429,-48.2434
 L -96.9606,-47.6267 L -97,-47 L -97,47 L -96.9606,47.6267 L -96.8429,48.2434 L -96.6489,48.8406
 L -96.3815,49.4088 L -96.0451,49.9389 L -95.6448,50.4227 L -95.1871,50.8526 L -94.6791,51.2216 L -94.1289,51.5241
 L -93.5451,51.7553 L -92.9369,51.9114 L -92.3139,51.9901 L 92.3139,51.9901 z
M 89.8116,-42.0059 L 89.4379,-42.0531 L 89.073,-42.1468 L 88.7227,-42.2855 L 88.3925,-42.467 L 88.0877,-42.6885
 L 87.8131,-42.9464 L 87.573,-43.2366 L 87.3711,-43.5547 L 87.2107,-43.8956 L 87.0943,-44.2539 L 87.0237,-44.624
 L 87,-45 L 87.0237,-45.376 L 87.0943,-45.7461 L 87.2107,-46.1044 L 87.3711,-46.4453 L 87.573,-46.7634
 L 87.8131,-47.0536 L 88.0877,-47.3115 L 88.3925,-47.533 L 88.7227,-47.7145 L 89.073,-47.8532 L 89.4379,-47.9469
 L 89.8116,-47.9941 L 90.1884,-47.9941 L 90.5621,-47.9469 L 90.927,-47.8532 L 91.2773,-47.7145 L 91.6075,-47.533
 L 91.9123,-47.3115 L 92.1869,-47.0536 L 92.427,-46.7634 L 92.6289,-46.4453 L 92.7893,-46.1044 L 92.9057,-45.7461
 L 92.9763,-45.376 L 93,-45 L 92.9763,-44.624 L 92.9057,-44.2539 L 92.7893,-43.8956 L 92.6289,-43.5547
 L 92.427,-43.2366 L 92.1869,-42.9464 L 91.9123,-42.6885 L 91.6075,-42.467 L 91.2773,-42.2855 L 90.927,-42.1468
 L 90.5621,-42.0531 L 90.1884,-42.0059 z
M -90.1884,-42.0059 L -90.5621,-42.0531 L -90.927,-42.1468 L -91.2773,-42.2855 L -91.6075,-42.467 L -91.9123,-42.6885
 L -92.1869,-42.9464 L -92.427,-43.2366 L -92.6289,-43.5547 L -92.7893,-43.8956 L -92.9057,-44.2539 L -92.9763,-44.624
 L -93,-45 L -92.9763,-45.376 L -92.9057,-45.7461 L -92.7893,-46.1044 L -92.6289,-46.4453 L -92.427,-46.7634
 L -92.1869,-47.0536 L -91.9123,-47.3115 L -91.6075,-47.533 L -91.2773,-47.7145 L -90.927,-47.8532 L -90.5621,-47.9469
 L -90.1884,-47.9941 L -89.8116,-47.9941 L -89.4379,-47.9469 L -89.073,-47.8532 L -88.7227,-47.7145 L -88.3925,-47.533
 L -88.0877,-47.3115 L -87.8131,-47.0536 L -87.573,-46.7634 L -87.3711,-46.4453 L -87.2107,-46.1044 L -87.0943,-45.7461
 L -87.0237,-45.376 L -87,-45 L -87.0237,-44.624 L -87.0943,-44.2539 L -87.2107,-43.8956 L -87.3711,-43.5547
 L -87.573,-43.2366 L -87.8131,-42.9464 L -88.0877,-42.6885 L -88.3925,-42.467 L -88.7227,-42.2855 L -89.073,-42.1468
 L -89.4379,-42.0531 L -89.8116,-42.0059 z
M 44.6744,44.9112 L 39.0678,44.2029 L 33.5942,42.7975 L 28.3399,40.7172 L 23.3878,37.9948 L 18.8159,34.6731
 L 14.6964,30.8046 L 11.0942,26.4503 L 8.06619,21.6789 L 5.66005,16.5656 L 3.91376,11.191 L 2.85483,5.63998
 L 2.5,-0 L 2.85483,-5.63998 L 3.91376,-11.191 L 5.66005,-16.5656 L 8.06619,-21.6789 L 11.0942,-26.4503
 L 14.6964,-30.8046 L 18.8159,-34.6731 L 23.3878,-37.9948 L 28.3399,-40.7172 L 33.5942,-42.7975 L 39.0678,-44.2029
 L 44.6744,-44.9112 L 50.3256,-44.9112 L 55.9322,-44.2029 L 61.4058,-42.7975 L 66.6601,-40.7172 L 71.6122,-37.9948
 L 76.1841,-34.6731 L 80.3036,-30.8046 L 83.9058,-26.4503 L 86.9338,-21.6789 L 89.3399,-16.5656 L 91.0862,-11.191
 L 92.1452,-5.63998 L 92.5,-0 L 92.1452,5.63998 L 91.0862,11.191 L 89.3399,16.5656 L 86.9338,21.6789
 L 83.9058,26.4503 L 80.3036,30.8046 L 76.1841,34.6731 L 71.6122,37.9948 L 66.6601,40.7172 L 61.4058,42.7975
 L 55.9322,44.2029 L 50.3256,44.9112 z
M -50.3256,44.9112 L -55.9322,44.2029 L -61.4058,42.7975 L -66.6601,40.7172 L -71.6122,37.9948 L -76.1841,34.6731
 L -80.3036,30.8046 L -83.9058,26.4503 L -86.9338,21.6789 L -89.3399,16.5656 L -91.0862,11.191 L -92.1452,5.63998
 L -92.5,-0 L -92.1452,-5.63998 L -91.0862,-11.191 L -89.3399,-16.5656 L -86.9338,-21.6789 L -83.9058,-26.4503
 L -80.3036,-30.8046 L -76.1841,-34.6731 L -71.6122,-37.9948 L -66.6601,-40.7172 L -61.4058,-42.7975 L -55.9322,-44.2029
 L -50.3256,-44.9112 L -44.6744,-44.9112 L -39.0678,-44.2029 L -33.5942,-42.7975 L -28.3399,-40.7172 L -23.3878,-37.9948
 L -18.8159,-34.6731 L -14.6964,-30.8046 L -11.0942,-26.4503 L -8.06619,-21.6789 L -5.66005,-16.5656 L -3.91376,-11.191
 L -2.85483,-5.63998 L -2.5,-0 L -2.85483,5.63998 L -3.91376,11.191 L -5.66005,16.5656 L -8.06619,21.6789
 L -11.0942,26.4503 L -14.6964,30.8046 L -18.8159,34.6731 L -23.3878,37.9948 L -28.3399,40.7172 L -33.5942,42.7975
 L -39.0678,44.2029 L -44.6744,44.9112 z
M 89.8116,47.9941 L 89.4379,47.9469 L 89.073,47.8532 L 88.7227,47.7145 L 88.3925,47.533 L 88.0877,47.3115
 L 87.8131,47.0536 L 87.573,46.7634 L 87.3711,46.4453 L 87.2107,46.1044 L 87.0943,45.7461 L 87.0237,45.376
 L 87,45 L 87.0237,44.624 L 87.0943,44.2539 L 87.2107,43.8956 L 87.3711,43.5547 L 87.573,43.2366
 L 87.8131,42.9464 L 88.0877,42.6885 L 88.3925,42.467 L 88.7227,42.2855 L 89.073,42.1468 L 89.4379,42.0531
 L 89.8116,42.0059 L 90.1884,42.0059 L 90.5621,42.0531 L 90.927,42.1468 L 91.2773,42.2855 L 91.6075,42.467
 L 91.9123,42.6885 L 92.1869,42.9464 L 92.427,43.2366 L 92.6289,43.5547 L 92.7893,43.8956 L 92.9057,44.2539
 L 92.9763,44.624 L 93,45 L 92.9763,45.376 L 92.9057,45.7461 L 92.7893,46.1044 L 92.6289,46.4453
 L 92.427,46.7634 L 92.1869,47.0536 L 91.9123,47.3115 L 91.6075,47.533 L 91.2773,47.7145 L 90.927,47.8532
 L 90.5621,47.9469 L 90.1884,47.9941 z
M -90.1884,47.9941 L -90.5621,47.9469 L -90.927,47.8532 L -91.2773,47.7145 L -91.6075,47.533 L -91.9123,47.3115
 L -92.1869,47.0536 L -92.427,46.7634 L -92.6289,46.4453 L -92.7893,46.1044 L -92.9057,45.7461 L -92.9763,45.376
 L -93,45 L -92.9763,44.624 L -92.9057,44.2539 L -92.7893,43.8956 L -92.6289,43.5547 L -92.427,43.2366
 L -92.1869,42.9464 L -91.9123,42.6885 L -91.6075,42.467 L -91.2773,42.2855 L -90.927,42.1468 L -90.5621,42.0531
 L -90.1884,42.0059 L -89.8116,42.0059 L -89.4379,42.0531 L -89.073,42.1468 L -88.7227,42.2855 L -88.3925,42.467
 L -88.0877,42.6885 L -87.8131,42.9464 L -87.573,43.2366 L -87.3711,43.5547 L -87.2107,43.8956 L -87.0943,44.2539
 L -87.0237,44.624 L -87,45 L -87.0237,45.376 L -87.0943,45.7461 L -87.2107,46.1044 L -87.3711,46.4453
 L -87.573,46.7634 L -87.8131,47.0536 L -88.0877,47.3115 L -88.3925,47.533 L -88.7227,47.7145 L -89.073,47.8532
 L -89.4379,47.9469 L -89.8116,47.9941 z
" stroke="black" fill="lightgray" stroke-width="0.5"/>
</svg>
