  0
SECTION
  2
BLOCKS
  0
ENDSEC
  0
SECTION
  2
ENTITIES
  0
LINE
  8
0
 10
115.437
 20
-44.4114
 11
116.045
 21
-44.2553
  0
LINE
  8
0
 10
116.045
 20
-44.2553
 11
116.629
 21
-44.0241
  0
LINE
  8
0
 10
116.629
 20
-44.0241
 11
117.179
 21
-43.7216
  0
LINE
  8
0
 10
117.179
 20
-43.7216
 11
117.687
 21
-43.3526
  0
LINE
  8
0
 10
117.687
 20
-43.3526
 11
118.145
 21
-42.9227
  0
LINE
  8
0
 10
118.145
 20
-42.9227
 11
118.545
 21
-42.4389
  0
LINE
  8
0
 10
118.545
 20
-42.4389
 11
118.882
 21
-41.9088
  0
LINE
  8
0
 10
118.882
 20
-41.9088
 11
119.149
 21
-41.3406
  0
LINE
  8
0
 10
119.149
 20
-41.3406
 11
119.343
 21
-40.7434
  0
LINE
  8
0
 10
119.343
 20
-40.7434
 11
119.461
 21
-40.1267
  0
LINE
  8
0
 10
119.461
 20
-40.1267
 11
119.5
 21
-39.5
  0
LINE
  8
0
 10
119.5
 20
-39.5
 11
119.5
 21
39.5
  0
LINE
  8
0
 10
119.5
 20
39.5
 11
119.461
 21
40.1267
  0
LINE
  8
0
 10
119.461
 20
40.1267
 11
119.343
 21
40.7434
  0
LINE
  8
0
 10
119.343
 20
40.7434
 11
119.149
 21
41.3406
  0
LINE
  8
0
 10
119.149
 20
41.3406
 11
118.882
 21
41.9088
  0
LINE
  8
0
 10
118.882
 20
41.9088
 11
118.545
 21
42.4389
  0
LINE
  8
0
 10
118.545
 20
42.4389
 11
118.145
 21
42.9227
  0
LINE
  8
0
 10
118.145
 20
42.9227
 11
117.687
 21
43.3526
  0
LINE
  8
0
 10
117.687
 20
43.3526
 11
117.179
 21
43.7216
  0
LINE
  8
0
 10
117.179
 20
43.7216
 11
116.629
 21
44.0241
  0
LINE
  8
0
 10
116.629
 20
44.0241
 11
116.045
 21
44.2553
  0
LINE
  8
0
 10
116.045
 20
44.2553
 11
115.437
 21
44.4114
  0
LINE
  8
0
 10
115.437
 20
44.4114
 11
114.814
 21
44.4901
  0
LINE
  8
0
 10
114.814
 20
44.4901
 11
-114.814
 21
44.4901
  0
LINE
  8
0
 10
-114.814
 20
44.4901
 11
-115.437
 21
44.4114
  0
LINE
  8
0
 10
-115.437
 20
44.4114
 11
-116.045
 21
44.2553
  0
LINE
  8
0
 10
-116.045
 20
44.2553
 11
-116.629
 21
44.0241
  0
LINE
  8
0
 10
-116.629
 20
44.0241
 11
-117.179
 21
43.7216
  0
LINE
  8
0
 10
-117.179
 20
43.7216
 11
-117.687
 21
43.3526
  0
LINE
  8
0
 10
-117.687
 20
43.3526
 11
-118.145
 21
42.9227
  0
LINE
  8
0
 10
-118.145
 20
42.9227
 11
-118.545
 21
42.4389
  0
LINE
  8
0
 10
-118.545
 20
42.4389
 11
-118.882
 21
41.9088
  0
LINE
  8
0
 10
-118.882
 20
41.9088
 11
-119.149
 21
41.3406
  0
LINE
  8
0
 10
-119.149
 20
41.3406
 11
-119.343
 21
40.7434
  0
LINE
  8
0
 10
-119.343
 20
40.7434
 11
-119.461
 21
40.1267
  0
LINE
  8
0
 10
-119.461
 20
40.1267
 11
-119.5
 21
39.5
  0
LINE
  8
0
 10
-119.5
 20
39.5
 11
-119.5
 21
-39.5
  0
LINE
  8
0
 10
-119.5
 20
-39.5
 11
-119.461
 21
-40.1267
  0
LINE
  8
0
 10
-119.461
 20
-40.1267
 11
-119.343
 21
-40.7434
  0
LINE
  8
0
 10
-119.343
 20
-40.7434
 11
-119.149
 21
-41.3406
  0
LINE
  8
0
 10
-119.149
 20
-41.3406
 11
-118.882
 21
-41.9088
  0
LINE
  8
0
 10
-118.882
 20
-41.9088
 11
-118.545
 21
-42.4389
  0
LINE
  8
0
 10
-118.545
 20
-42.4389
 11
-118.145
 21
-42.9227
  0
LINE
  8
0
 10
-118.145
 20
-42.9227
 11
-117.687
 21
-43.3526
  0
LINE
  8
0
 10
-117.687
 20
-43.3526
 11
-117.179
 21
-43.7216
  0
LINE
  8
0
 10
-117.179
 20
-43.7216
 11
-116.629
 21
-44.0241
  0
LINE
  8
0
 10
-116.629
 20
-44.0241
 11
-116.045
 21
-44.2553
  0
LINE
  8
0
 10
-116.045
 20
-44.2553
 11
-115.437
 21
-44.4114
  0
LINE
  8
0
 10
-115.437
 20
-44.4114
 11
-114.814
 21
-44.4901
  0
LINE
  8
0
 10
-114.814
 20
-44.4901
 11
114.814
 21
-44.4901
  0
LINE
  8
0
 10
114.814
 20
-44.4901
 11
115.437
 21
-44.4114
  0
LINE
  8
0
 10
-112.688
 20
34.5059
 11
-113.062
 21
34.5531
  0
LINE
  8
0
 10
-113.062
 20
34.5531
 11
-113.427
 21
34.6468
  0
LINE
  8
0
 10
-113.427
 20
34.6468
 11
-113.777
 21
34.7855
  0
LINE
  8
0
 10
-113.777
 20
34.7855
 11
-114.107
 21
34.967
  0
LINE
  8
0
 10
-114.107
 20
34.967
 11
-114.412
 21
35.1885
  0
LINE
  8
0
 10
-114.412
 20
35.1885
 11
-114.687
 21
35.4464
  0
LINE
  8
0
 10
-114.687
 20
35.4464
 11
-114.927
 21
35.7366
  0
LINE
  8
0
 10
-114.927
 20
35.7366
 11
-115.129
 21
36.0547
  0
LINE
  8
0
 10
-115.129
 20
36.0547
 11
-115.289
 21
36.3956
  0
LINE
  8
0
 10
-115.289
 20
36.3956
 11
-115.406
 21
36.7539
  0
LINE
  8
0
 10
-115.406
 20
36.7539
 11
-115.476
 21
37.124
  0
LINE
  8
0
 10
-115.476
 20
37.124
 11
-115.5
 21
37.5
  0
LINE
  8
0
 10
-115.5
 20
37.5
 11
-115.476
 21
37.876
  0
LINE
  8
0
 10
-115.476
 20
37.876
 11
-115.406
 21
38.2461
  0
LINE
  8
0
 10
-115.406
 20
38.2461
 11
-115.289
 21
38.6044
  0
LINE
  8
0
 10
-115.289
 20
38.6044
 11
-115.129
 21
38.9453
  0
LINE
  8
0
 10
-115.129
 20
38.9453
 11
-114.927
 21
39.2634
  0
LINE
  8
0
 10
-114.927
 20
39.2634
 11
-114.687
 21
39.5536
  0
LINE
  8
0
 10
-114.687
 20
39.5536
 11
-114.412
 21
39.8115
  0
LINE
  8
0
 10
-114.412
 20
39.8115
 11
-114.107
 21
40.033
  0
LINE
  8
0
 10
-114.107
 20
40.033
 11
-113.777
 21
40.2145
  0
LINE
  8
0
 10
-113.777
 20
40.2145
 11
-113.427
 21
40.3532
  0
LINE
  8
0
 10
-113.427
 20
40.3532
 11
-113.062
 21
40.4469
  0
LINE
  8
0
 10
-113.062
 20
40.4469
 11
-112.688
 21
40.4941
  0
LINE
  8
0
 10
-112.688
 20
40.4941
 11
-112.312
 21
40.4941
  0
LINE
  8
0
 10
-112.312
 20
40.4941
 11
-111.938
 21
40.4469
  0
LINE
  8
0
 10
-111.938
 20
40.4469
 11
-111.573
 21
40.3532
  0
LINE
  8
0
 10
-111.573
 20
40.3532
 11
-111.223
 21
40.2145
  0
LINE
  8
0
 10
-111.223
 20
40.2145
 11
-110.893
 21
40.033
  0
LINE
  8
0
 10
-110.893
 20
40.033
 11
-110.588
 21
39.8115
  0
LINE
  8
0
 10
-110.588
 20
39.8115
 11
-110.313
 21
39.5536
  0
LINE
  8
0
 10
-110.313
 20
39.5536
 11
-110.073
 21
39.2634
  0
LINE
  8
0
 10
-110.073
 20
39.2634
 11
-109.871
 21
38.9453
  0
LINE
  8
0
 10
-109.871
 20
38.9453
 11
-109.711
 21
38.6044
  0
LINE
  8
0
 10
-109.711
 20
38.6044
 11
-109.594
 21
38.2461
  0
LINE
  8
0
 10
-109.594
 20
38.2461
 11
-109.524
 21
37.876
  0
LINE
  8
0
 10
-109.524
 20
37.876
 11
-109.5
 21
37.5
  0
LINE
  8
0
 10
-109.5
 20
37.5
 11
-109.524
 21
37.124
  0
LINE
  8
0
 10
-109.524
 20
37.124
 11
-109.594
 21
36.7539
  0
LINE
  8
0
 10
-109.594
 20
36.7539
 11
-109.711
 21
36.3956
  0
LINE
  8
0
 10
-109.711
 20
36.3956
 11
-109.871
 21
36.0547
  0
LINE
  8
0
 10
-109.871
 20
36.0547
 11
-110.073
 21
35.7366
  0
LINE
  8
0
 10
-110.073
 20
35.7366
 11
-110.313
 21
35.4464
  0
LINE
  8
0
 10
-110.313
 20
35.4464
 11
-110.588
 21
35.1885
  0
LINE
  8
0
 10
-110.588
 20
35.1885
 11
-110.893
 21
34.967
  0
LINE
  8
0
 10
-110.893
 20
34.967
 11
-111.223
 21
34.7855
  0
LINE
  8
0
 10
-111.223
 20
34.7855
 11
-111.573
 21
34.6468
  0
LINE
  8
0
 10
-111.573
 20
34.6468
 11
-111.938
 21
34.5531
  0
LINE
  8
0
 10
-111.938
 20
34.5531
 11
-112.312
 21
34.5059
  0
LINE
  8
0
 10
-112.312
 20
34.5059
 11
-112.688
 21
34.5059
  0
LINE
  8
0
 10
112.312
 20
34.5059
 11
111.938
 21
34.5531
  0
LINE
  8
0
 10
111.938
 20
34.5531
 11
111.573
 21
34.6468
  0
LINE
  8
0
 10
111.573
 20
34.6468
 11
111.223
 21
34.7855
  0
LINE
  8
0
 10
111.223
 20
34.7855
 11
110.893
 21
34.967
  0
LINE
  8
0
 10
110.893
 20
34.967
 11
110.588
 21
35.1885
  0
LINE
  8
0
 10
110.588
 20
35.1885
 11
110.313
 21
35.4464
  0
LINE
  8
0
 10
110.313
 20
35.4464
 11
110.073
 21
35.7366
  0
LINE
  8
0
 10
110.073
 20
35.7366
 11
109.871
 21
36.0547
  0
LINE
  8
0
 10
109.871
 20
36.0547
 11
109.711
 21
36.3956
  0
LINE
  8
0
 10
109.711
 20
36.3956
 11
109.594
 21
36.7539
  0
LINE
  8
0
 10
109.594
 20
36.7539
 11
109.524
 21
37.124
  0
LINE
  8
0
 10
109.524
 20
37.124
 11
109.5
 21
37.5
  0
LINE
  8
0
 10
109.5
 20
37.5
 11
109.524
 21
37.876
  0
LINE
  8
0
 10
109.524
 20
37.876
 11
109.594
 21
38.2461
  0
LINE
  8
0
 10
109.594
 20
38.2461
 11
109.711
 21
38.6044
  0
LINE
  8
0
 10
109.711
 20
38.6044
 11
109.871
 21
38.9453
  0
LINE
  8
0
 10
109.871
 20
38.9453
 11
110.073
 21
39.2634
  0
LINE
  8
0
 10
110.073
 20
39.2634
 11
110.313
 21
39.5536
  0
LINE
  8
0
 10
110.313
 20
39.5536
 11
110.588
 21
39.8115
  0
LINE
  8
0
 10
110.588
 20
39.8115
 11
110.893
 21
40.033
  0
LINE
  8
0
 10
110.893
 20
40.033
 11
111.223
 21
40.2145
  0
LINE
  8
0
 10
111.223
 20
40.2145
 11
111.573
 21
40.3532
  0
LINE
  8
0
 10
111.573
 20
40.3532
 11
111.938
 21
40.4469
  0
LINE
  8
0
 10
111.938
 20
40.4469
 11
112.312
 21
40.4941
  0
LINE
  8
0
 10
112.312
 20
40.4941
 11
112.688
 21
40.4941
  0
LINE
  8
0
 10
112.688
 20
40.4941
 11
113.062
 21
40.4469
  0
LINE
  8
0
 10
113.062
 20
40.4469
 11
113.427
 21
40.3532
  0
LINE
  8
0
 10
113.427
 20
40.3532
 11
113.777
 21
40.2145
  0
LINE
  8
0
 10
113.777
 20
40.2145
 11
114.107
 21
40.033
  0
LINE
  8
0
 10
114.107
 20
40.033
 11
114.412
 21
39.8115
  0
LINE
  8
0
 10
114.412
 20
39.8115
 11
114.687
 21
39.5536
  0
LINE
  8
0
 10
114.687
 20
39.5536
 11
114.927
 21
39.2634
  0
LINE
  8
0
 10
114.927
 20
39.2634
 11
115.129
 21
38.9453
  0
LINE
  8
0
 10
115.129
 20
38.9453
 11
115.289
 21
38.6044
  0
LINE
  8
0
 10
115.289
 20
38.6044
 11
115.406
 21
38.2461
  0
LINE
  8
0
 10
115.406
 20
38.2461
 11
115.476
 21
37.876
  0
LINE
  8
0
 10
115.476
 20
37.876
 11
115.5
 21
37.5
  0
LINE
  8
0
 10
115.5
 20
37.5
 11
115.476
 21
37.124
  0
LINE
  8
0
 10
115.476
 20
37.124
 11
115.406
 21
36.7539
  0
LINE
  8
0
 10
115.406
 20
36.7539
 11
115.289
 21
36.3956
  0
LINE
  8
0
 10
115.289
 20
36.3956
 11
115.129
 21
36.0547
  0
LINE
  8
0
 10
115.129
 20
36.0547
 11
114.927
 21
35.7366
  0
LINE
  8
0
 10
114.927
 20
35.7366
 11
114.687
 21
35.4464
  0
LINE
  8
0
 10
114.687
 20
35.4464
 11
114.412
 21
35.1885
  0
LINE
  8
0
 10
114.412
 20
35.1885
 11
114.107
 21
34.967
  0
LINE
  8
0
 10
114.107
 20
34.967
 11
113.777
 21
34.7855
  0
LINE
  8
0
 10
113.777
 20
34.7855
 11
113.427
 21
34.6468
  0
LINE
  8
0
 10
113.427
 20
34.6468
 11
113.062
 21
34.5531
  0
LINE
  8
0
 10
113.062
 20
34.5531
 11
112.688
 21
34.5059
  0
LINE
  8
0
 10
112.688
 20
34.5059
 11
112.312
 21
34.5059
  0
LINE
  8
0
 10
-2.19766
 20
-34.9309
 11
-6.55833
 21
-34.3801
  0
LINE
  8
0
 10
-6.55833
 20
-34.3801
 11
-10.8156
 21
-33.287
  0
LINE
  8
0
 10
-10.8156
 20
-33.287
 11
-14.9023
 21
-31.6689
  0
LINE
  8
0
 10
-14.9023
 20
-31.6689
 11
-18.7539
 21
-29.5515
  0
LINE
  8
0
 10
-18.7539
 20
-29.5515
 11
-22.3098
 21
-26.968
  0
LINE
  8
0
 10
-22.3098
 20
-26.968
 11
-25.5139
 21
-23.9591
  0
LINE
  8
0
 10
-25.5139
 20
-23.9591
 11
-28.3156
 21
-20.5725
  0
LINE
  8
0
 10
-28.3156
 20
-20.5725
 11
-30.6707
 21
-16.8614
  0
LINE
  8
0
 10
-30.6707
 20
-16.8614
 11
-32.5422
 21
-12.8844
  0
LINE
  8
0
 10
-32.5422
 20
-12.8844
 11
-33.9004
 21
-8.70413
  0
LINE
  8
0
 10
-33.9004
 20
-8.70413
 11
-34.724
 21
-4.38666
  0
LINE
  8
0
 10
-34.724
 20
-4.38666
 11
-35
 21
0
  0
LINE
  8
0
 10
-35
 20
0
 11
-34.724
 21
4.38666
  0
LINE
  8
0
 10
-34.724
 20
4.38666
 11
-33.9004
 21
8.70413
  0
LINE
  8
0
 10
-33.9004
 20
8.70413
 11
-32.5422
 21
12.8844
  0
LINE
  8
0
 10
-32.5422
 20
12.8844
 11
-30.6707
 21
16.8614
  0
LINE
  8
0
 10
-30.6707
 20
16.8614
 11
-28.3156
 21
20.5725
  0
LINE
  8
0
 10
-28.3156
 20
20.5725
 11
-25.5139
 21
23.9591
  0
LINE
  8
0
 10
-25.5139
 20
23.9591
 11
-22.3098
 21
26.968
  0
LINE
  8
0
 10
-22.3098
 20
26.968
 11
-18.7539
 21
29.5515
  0
LINE
  8
0
 10
-18.7539
 20
29.5515
 11
-14.9023
 21
31.6689
  0
LINE
  8
0
 10
-14.9023
 20
31.6689
 11
-10.8156
 21
33.287
  0
LINE
  8
0
 10
-10.8156
 20
33.287
 11
-6.55833
 21
34.3801
  0
LINE
  8
0
 10
-6.55833
 20
34.3801
 11
-2.19766
 21
34.9309
  0
LINE
  8
0
 10
-2.19766
 20
34.9309
 11
2.19766
 21
34.9309
  0
LINE
  8
0
 10
2.19766
 20
34.9309
 11
6.55833
 21
34.3801
  0
LINE
  8
0
 10
6.55833
 20
34.3801
 11
10.8156
 21
33.287
  0
LINE
  8
0
 10
10.8156
 20
33.287
 11
14.9023
 21
31.6689
  0
LINE
  8
0
 10
14.9023
 20
31.6689
 11
18.7539
 21
29.5515
  0
LINE
  8
0
 10
18.7539
 20
29.5515
 11
22.3098
 21
26.968
  0
LINE
  8
0
 10
22.3098
 20
26.968
 11
25.5139
 21
23.9591
  0
LINE
  8
0
 10
25.5139
 20
23.9591
 11
28.3156
 21
20.5725
  0
LINE
  8
0
 10
28.3156
 20
20.5725
 11
30.6707
 21
16.8614
  0
LINE
  8
0
 10
30.6707
 20
16.8614
 11
32.5422
 21
12.8844
  0
LINE
  8
0
 10
32.5422
 20
12.8844
 11
33.9004
 21
8.70413
  0
LINE
  8
0
 10
33.9004
 20
8.70413
 11
34.724
 21
4.38666
  0
LINE
  8
0
 10
34.724
 20
4.38666
 11
35
 21
0
  0
LINE
  8
0
 10
35
 20
0
 11
34.724
 21
-4.38666
  0
LINE
  8
0
 10
34.724
 20
-4.38666
 11
33.9004
 21
-8.70413
  0
LINE
  8
0
 10
33.9004
 20
-8.70413
 11
32.5422
 21
-12.8844
  0
LINE
  8
0
 10
32.5422
 20
-12.8844
 11
30.6707
 21
-16.8614
  0
LINE
  8
0
 10
30.6707
 20
-16.8614
 11
28.3156
 21
-20.5725
  0
LINE
  8
0
 10
28.3156
 20
-20.5725
 11
25.5139
 21
-23.9591
  0
LINE
  8
0
 10
25.5139
 20
-23.9591
 11
22.3098
 21
-26.968
  0
LINE
  8
0
 10
22.3098
 20
-26.968
 11
18.7539
 21
-29.5515
  0
LINE
  8
0
 10
18.7539
 20
-29.5515
 11
14.9023
 21
-31.6689
  0
LINE
  8
0
 10
14.9023
 20
-31.6689
 11
10.8156
 21
-33.287
  0
LINE
  8
0
 10
10.8156
 20
-33.287
 11
6.55833
 21
-34.3801
  0
LINE
  8
0
 10
6.55833
 20
-34.3801
 11
2.19766
 21
-34.9309
  0
LINE
  8
0
 10
2.19766
 20
-34.9309
 11
-2.19766
 21
-34.9309
  0
LINE
  8
0
 10
72.8023
 20
-34.9309
 11
68.4417
 21
-34.3801
  0
LINE
  8
0
 10
68.4417
 20
-34.3801
 11
64.1844
 21
-33.287
  0
LINE
  8
0
 10
64.1844
 20
-33.287
 11
60.0977
 21
-31.6689
  0
LINE
  8
0
 10
60.0977
 20
-31.6689
 11
56.2461
 21
-29.5515
  0
LINE
  8
0
 10
56.2461
 20
-29.5515
 11
52.6902
 21
-26.968
  0
LINE
  8
0
 10
52.6902
 20
-26.968
 11
49.4861
 21
-23.9591
  0
LINE
  8
0
 10
49.4861
 20
-23.9591
 11
46.6844
 21
-20.5725
  0
LINE
  8
0
 10
46.6844
 20
-20.5725
 11
44.3293
 21
-16.8614
  0
LINE
  8
0
 10
44.3293
 20
-16.8614
 11
42.4578
 21
-12.8844
  0
LINE
  8
0
 10
42.4578
 20
-12.8844
 11
41.0996
 21
-8.70413
  0
LINE
  8
0
 10
41.0996
 20
-8.70413
 11
40.276
 21
-4.38666
  0
LINE
  8
0
 10
40.276
 20
-4.38666
 11
40
 21
0
  0
LINE
  8
0
 10
40
 20
0
 11
40.276
 21
4.38666
  0
LINE
  8
0
 10
40.276
 20
4.38666
 11
41.0996
 21
8.70413
  0
LINE
  8
0
 10
41.0996
 20
8.70413
 11
42.4578
 21
12.8844
  0
LINE
  8
0
 10
42.4578
 20
12.8844
 11
44.3293
 21
16.8614
  0
LINE
  8
0
 10
44.3293
 20
16.8614
 11
46.6844
 21
20.5725
  0
LINE
  8
0
 10
46.6844
 20
20.5725
 11
49.4861
 21
23.9591
  0
LINE
  8
0
 10
49.4861
 20
23.9591
 11
52.6902
 21
26.968
  0
LINE
  8
0
 10
52.6902
 20
26.968
 11
56.2461
 21
29.5515
  0
LINE
  8
0
 10
56.2461
 20
29.5515
 11
60.0977
 21
31.6689
  0
LINE
  8
0
 10
60.0977
 20
31.6689
 11
64.1844
 21
33.287
  0
LINE
  8
0
 10
64.1844
 20
33.287
 11
68.4417
 21
34.3801
  0
LINE
  8
0
 10
68.4417
 20
34.3801
 11
72.8023
 21
34.9309
  0
LINE
  8
0
 10
72.8023
 20
34.9309
 11
77.1977
 21
34.9309
  0
LINE
  8
0
 10
77.1977
 20
34.9309
 11
81.5583
 21
34.3801
  0
LINE
  8
0
 10
81.5583
 20
34.3801
 11
85.8156
 21
33.287
  0
LINE
  8
0
 10
85.8156
 20
33.287
 11
89.9023
 21
31.6689
  0
LINE
  8
0
 10
89.9023
 20
31.6689
 11
93.7539
 21
29.5515
  0
LINE
  8
0
 10
93.7539
 20
29.5515
 11
97.3098
 21
26.968
  0
LINE
  8
0
 10
97.3098
 20
26.968
 11
100.514
 21
23.9591
  0
LINE
  8
0
 10
100.514
 20
23.9591
 11
103.316
 21
20.5725
  0
LINE
  8
0
 10
103.316
 20
20.5725
 11
105.671
 21
16.8614
  0
LINE
  8
0
 10
105.671
 20
16.8614
 11
107.542
 21
12.8844
  0
LINE
  8
0
 10
107.542
 20
12.8844
 11
108.9
 21
8.70413
  0
LINE
  8
0
 10
108.9
 20
8.70413
 11
109.724
 21
4.38666
  0
LINE
  8
0
 10
109.724
 20
4.38666
 11
110
 21
0
  0
LINE
  8
0
 10
110
 20
0
 11
109.724
 21
-4.38666
  0
LINE
  8
0
 10
109.724
 20
-4.38666
 11
108.9
 21
-8.70413
  0
LINE
  8
0
 10
108.9
 20
-8.70413
 11
107.542
 21
-12.8844
  0
LINE
  8
0
 10
107.542
 20
-12.8844
 11
105.671
 21
-16.8614
  0
LINE
  8
0
 10
105.671
 20
-16.8614
 11
103.316
 21
-20.5725
  0
LINE
  8
0
 10
103.316
 20
-20.5725
 11
100.514
 21
-23.9591
  0
LINE
  8
0
 10
100.514
 20
-23.9591
 11
97.3098
 21
-26.968
  0
LINE
  8
0
 10
97.3098
 20
-26.968
 11
93.7539
 21
-29.5515
  0
LINE
  8
0
 10
93.7539
 20
-29.5515
 11
89.9023
 21
-31.6689
  0
LINE
  8
0
 10
89.9023
 20
-31.6689
 11
85.8156
 21
-33.287
  0
LINE
  8
0
 10
85.8156
 20
-33.287
 11
81.5583
 21
-34.3801
  0
LINE
  8
0
 10
81.5583
 20
-34.3801
 11
77.1977
 21
-34.9309
  0
LINE
  8
0
 10
77.1977
 20
-34.9309
 11
72.8023
 21
-34.9309
  0
LINE
  8
0
 10
-77.1977
 20
-34.9309
 11
-81.5583
 21
-34.3801
  0
LINE
  8
0
 10
-81.5583
 20
-34.3801
 11
-85.8156
 21
-33.287
  0
LINE
  8
0
 10
-85.8156
 20
-33.287
 11
-89.9023
 21
-31.6689
  0
LINE
  8
0
 10
-89.9023
 20
-31.6689
 11
-93.7539
 21
-29.5515
  0
LINE
  8
0
 10
-93.7539
 20
-29.5515
 11
-97.3098
 21
-26.968
  0
LINE
  8
0
 10
-97.3098
 20
-26.968
 11
-100.514
 21
-23.9591
  0
LINE
  8
0
 10
-100.514
 20
-23.9591
 11
-103.316
 21
-20.5725
  0
LINE
  8
0
 10
-103.316
 20
-20.5725
 11
-105.671
 21
-16.8614
  0
LINE
  8
0
 10
-105.671
 20
-16.8614
 11
-107.542
 21
-12.8844
  0
LINE
  8
0
 10
-107.542
 20
-12.8844
 11
-108.9
 21
-8.70413
  0
LINE
  8
0
 10
-108.9
 20
-8.70413
 11
-109.724
 21
-4.38666
  0
LINE
  8
0
 10
-109.724
 20
-4.38666
 11
-110
 21
0
  0
LINE
  8
0
 10
-110
 20
0
 11
-109.724
 21
4.38666
  0
LINE
  8
0
 10
-109.724
 20
4.38666
 11
-108.9
 21
8.70413
  0
LINE
  8
0
 10
-108.9
 20
8.70413
 11
-107.542
 21
12.8844
  0
LINE
  8
0
 10
-107.542
 20
12.8844
 11
-105.671
 21
16.8614
  0
LINE
  8
0
 10
-105.671
 20
16.8614
 11
-103.316
 21
20.5725
  0
LINE
  8
0
 10
-103.316
 20
20.5725
 11
-100.514
 21
23.9591
  0
LINE
  8
0
 10
-100.514
 20
23.9591
 11
-97.3098
 21
26.968
  0
LINE
  8
0
 10
-97.3098
 20
26.968
 11
-93.7539
 21
29.5515
  0
LINE
  8
0
 10
-93.7539
 20
29.5515
 11
-89.9023
 21
31.6689
  0
LINE
  8
0
 10
-89.9023
 20
31.6689
 11
-85.8156
 21
33.287
  0
LINE
  8
0
 10
-85.8156
 20
33.287
 11
-81.5583
 21
34.3801
  0
LINE
  8
0
 10
-81.5583
 20
34.3801
 11
-77.1977
 21
34.9309
  0
LINE
  8
0
 10
-77.1977
 20
34.9309
 11
-72.8023
 21
34.9309
  0
LINE
  8
0
 10
-72.8023
 20
34.9309
 11
-68.4417
 21
34.3801
  0
LINE
  8
0
 10
-68.4417
 20
34.3801
 11
-64.1844
 21
33.287
  0
LINE
  8
0
 10
-64.1844
 20
33.287
 11
-60.0977
 21
31.6689
  0
LINE
  8
0
 10
-60.0977
 20
31.6689
 11
-56.2461
 21
29.5515
  0
LINE
  8
0
 10
-56.2461
 20
29.5515
 11
-52.6902
 21
26.968
  0
LINE
  8
0
 10
-52.6902
 20
26.968
 11
-49.4861
 21
23.9591
  0
LINE
  8
0
 10
-49.4861
 20
23.9591
 11
-46.6844
 21
20.5725
  0
LINE
  8
0
 10
-46.6844
 20
20.5725
 11
-44.3293
 21
16.8614
  0
LINE
  8
0
 10
-44.3293
 20
16.8614
 11
-42.4578
 21
12.8844
  0
LINE
  8
0
 10
-42.4578
 20
12.8844
 11
-41.0996
 21
8.70413
  0
LINE
  8
0
 10
-41.0996
 20
8.70413
 11
-40.276
 21
4.38666
  0
LINE
  8
0
 10
-40.276
 20
4.38666
 11
-40
 21
0
  0
LINE
  8
0
 10
-40
 20
0
 11
-40.276
 21
-4.38666
  0
LINE
  8
0
 10
-40.276
 20
-4.38666
 11
-41.0996
 21
-8.70413
  0
LINE
  8
0
 10
-41.0996
 20
-8.70413
 11
-42.4578
 21
-12.8844
  0
LINE
  8
0
 10
-42.4578
 20
-12.8844
 11
-44.3293
 21
-16.8614
  0
LINE
  8
0
 10
-44.3293
 20
-16.8614
 11
-46.6844
 21
-20.5725
  0
LINE
  8
0
 10
-46.6844
 20
-20.5725
 11
-49.4861
 21
-23.9591
  0
LINE
  8
0
 10
-49.4861
 20
-23.9591
 11
-52.6902
 21
-26.968
  0
LINE
  8
0
 10
-52.6902
 20
-26.968
 11
-56.2461
 21
-29.5515
  0
LINE
  8
0
 10
-56.2461
 20
-29.5515
 11
-60.0977
 21
-31.6689
  0
LINE
  8
0
 10
-60.0977
 20
-31.6689
 11
-64.1844
 21
-33.287
  0
LINE
  8
0
 10
-64.1844
 20
-33.287
 11
-68.4417
 21
-34.3801
  0
LINE
  8
0
 10
-68.4417
 20
-34.3801
 11
-72.8023
 21
-34.9309
  0
LINE
  8
0
 10
-72.8023
 20
-34.9309
 11
-77.1977
 21
-34.9309
  0
LINE
  8
0
 10
112.312
 20
-40.4941
 11
111.938
 21
-40.4469
  0
LINE
  8
0
 10
111.938
 20
-40.4469
 11
111.573
 21
-40.3532
  0
LINE
  8
0
 10
111.573
 20
-40.3532
 11
111.223
 21
-40.2145
  0
LINE
  8
0
 10
111.223
 20
-40.2145
 11
110.893
 21
-40.033
  0
LINE
  8
0
 10
110.893
 20
-40.033
 11
110.588
 21
-39.8115
  0
LINE
  8
0
 10
110.588
 20
-39.8115
 11
110.313
 21
-39.5536
  0
LINE
  8
0
 10
110.313
 20
-39.5536
 11
110.073
 21
-39.2634
  0
LINE
  8
0
 10
110.073
 20
-39.2634
 11
109.871
 21
-38.9453
  0
LINE
  8
0
 10
109.871
 20
-38.9453
 11
109.711
 21
-38.6044
  0
LINE
  8
0
 10
109.711
 20
-38.6044
 11
109.594
 21
-38.2461
  0
LINE
  8
0
 10
109.594
 20
-38.2461
 11
109.524
 21
-37.876
  0
LINE
  8
0
 10
109.524
 20
-37.876
 11
109.5
 21
-37.5
  0
LINE
  8
0
 10
109.5
 20
-37.5
 11
109.524
 21
-37.124
  0
LINE
  8
0
 10
109.524
 20
-37.124
 11
109.594
 21
-36.7539
  0
LINE
  8
0
 10
109.594
 20
-36.7539
 11
109.711
 21
-36.3956
  0
LINE
  8
0
 10
109.711
 20
-36.3956
 11
109.871
 21
-36.0547
  0
LINE
  8
0
 10
109.871
 20
-36.0547
 11
110.073
 21
-35.7366
  0
LINE
  8
0
 10
110.073
 20
-35.7366
 11
110.313
 21
-35.4464
  0
LINE
  8
0
 10
110.313
 20
-35.4464
 11
110.588
 21
-35.1885
  0
LINE
  8
0
 10
110.588
 20
-35.1885
 11
110.893
 21
-34.967
  0
LINE
  8
0
 10
110.893
 20
-34.967
 11
111.223
 21
-34.7855
  0
LINE
  8
0
 10
111.223
 20
-34.7855
 11
111.573
 21
-34.6468
  0
LINE
  8
0
 10
111.573
 20
-34.6468
 11
111.938
 21
-34.5531
  0
LINE
  8
0
 10
111.938
 20
-34.5531
 11
112.312
 21
-34.5059
  0
LINE
  8
0
 10
112.312
 20
-34.5059
 11
112.688
 21
-34.5059
  0
LINE
  8
0
 10
112.688
 20
-34.5059
 11
113.062
 21
-34.5531
  0
LINE
  8
0
 10
113.062
 20
-34.5531
 11
113.427
 21
-34.6468
  0
LINE
  8
0
 10
113.427
 20
-34.6468
 11
113.777
 21
-34.7855
  0
LINE
  8
0
 10
113.777
 20
-34.7855
 11
114.107
 21
-34.967
  0
LINE
  8
0
 10
114.107
 20
-34.967
 11
114.412
 21
-35.1885
  0
LINE
  8
0
 10
114.412
 20
-35.1885
 11
114.687
 21
-35.4464
  0
LINE
  8
0
 10
114.687
 20
-35.4464
 11
114.927
 21
-35.7366
  0
LINE
  8
0
 10
114.927
 20
-35.7366
 11
115.129
 21
-36.0547
  0
LINE
  8
0
 10
115.129
 20
-36.0547
 11
115.289
 21
-36.3956
  0
LINE
  8
0
 10
115.289
 20
-36.3956
 11
115.406
 21
-36.7539
  0
LINE
  8
0
 10
115.406
 20
-36.7539
 11
115.476
 21
-37.124
  0
LINE
  8
0
 10
115.476
 20
-37.124
 11
115.5
 21
-37.5
  0
LINE
  8
0
 10
115.5
 20
-37.5
 11
115.476
 21
-37.876
  0
LINE
  8
0
 10
115.476
 20
-37.876
 11
115.406
 21
-38.2461
  0
LINE
  8
0
 10
115.406
 20
-38.2461
 11
115.289
 21
-38.6044
  0
LINE
  8
0
 10
115.289
 20
-38.6044
 11
115.129
 21
-38.9453
  0
LINE
  8
0
 10
115.129
 20
-38.9453
 11
114.927
 21
-39.2634
  0
LINE
  8
0
 10
114.927
 20
-39.2634
 11
114.687
 21
-39.5536
  0
LINE
  8
0
 10
114.687
 20
-39.5536
 11
114.412
 21
-39.8115
  0
LINE
  8
0
 10
114.412
 20
-39.8115
 11
114.107
 21
-40.033
  0
LINE
  8
0
 10
114.107
 20
-40.033
 11
113.777
 21
-40.2145
  0
LINE
  8
0
 10
113.777
 20
-40.2145
 11
113.427
 21
-40.3532
  0
LINE
  8
0
 10
113.427
 20
-40.3532
 11
113.062
 21
-40.4469
  0
LINE
  8
0
 10
113.062
 20
-40.4469
 11
112.688
 21
-40.4941
  0
LINE
  8
0
 10
112.688
 20
-40.4941
 11
112.312
 21
-40.4941
  0
LINE
  8
0
 10
-112.688
 20
-40.4941
 11
-113.062
 21
-40.4469
  0
LINE
  8
0
 10
-113.062
 20
-40.4469
 11
-113.427
 21
-40.3532
  0
LINE
  8
0
 10
-113.427
 20
-40.3532
 11
-113.777
 21
-40.2145
  0
LINE
  8
0
 10
-113.777
 20
-40.2145
 11
-114.107
 21
-40.033
  0
LINE
  8
0
 10
-114.107
 20
-40.033
 11
-114.412
 21
-39.8115
  0
LINE
  8
0
 10
-114.412
 20
-39.8115
 11
-114.687
 21
-39.5536
  0
LINE
  8
0
 10
-114.687
 20
-39.5536
 11
-114.927
 21
-39.2634
  0
LINE
  8
0
 10
-114.927
 20
-39.2634
 11
-115.129
 21
-38.9453
  0
LINE
  8
0
 10
-115.129
 20
-38.9453
 11
-115.289
 21
-38.6044
  0
LINE
  8
0
 10
-115.289
 20
-38.6044
 11
-115.406
 21
-38.2461
  0
LINE
  8
0
 10
-115.406
 20
-38.2461
 11
-115.476
 21
-37.876
  0
LINE
  8
0
 10
-115.476
 20
-37.876
 11
-115.5
 21
-37.5
  0
LINE
  8
0
 10
-115.5
 20
-37.5
 11
-115.476
 21
-37.124
  0
LINE
  8
0
 10
-115.476
 20
-37.124
 11
-115.406
 21
-36.7539
  0
LINE
  8
0
 10
-115.406
 20
-36.7539
 11
-115.289
 21
-36.3956
  0
LINE
  8
0
 10
-115.289
 20
-36.3956
 11
-115.129
 21
-36.0547
  0
LINE
  8
0
 10
-115.129
 20
-36.0547
 11
-114.927
 21
-35.7366
  0
LINE
  8
0
 10
-114.927
 20
-35.7366
 11
-114.687
 21
-35.4464
  0
LINE
  8
0
 10
-114.687
 20
-35.4464
 11
-114.412
 21
-35.1885
  0
LINE
  8
0
 10
-114.412
 20
-35.1885
 11
-114.107
 21
-34.967
  0
LINE
  8
0
 10
-114.107
 20
-34.967
 11
-113.777
 21
-34.7855
  0
LINE
  8
0
 10
-113.777
 20
-34.7855
 11
-113.427
 21
-34.6468
  0
LINE
  8
0
 10
-113.427
 20
-34.6468
 11
-113.062
 21
-34.5531
  0
LINE
  8
0
 10
-113.062
 20
-34.5531
 11
-112.688
 21
-34.5059
  0
LINE
  8
0
 10
-112.688
 20
-34.5059
 11
-112.312
 21
-34.5059
  0
LINE
  8
0
 10
-112.312
 20
-34.5059
 11
-111.938
 21
-34.5531
  0
LINE
  8
0
 10
-111.938
 20
-34.5531
 11
-111.573
 21
-34.6468
  0
LINE
  8
0
 10
-111.573
 20
-34.6468
 11
-111.223
 21
-34.7855
  0
LINE
  8
0
 10
-111.223
 20
-34.7855
 11
-110.893
 21
-34.967
  0
LINE
  8
0
 10
-110.893
 20
-34.967
 11
-110.588
 21
-35.1885
  0
LINE
  8
0
 10
-110.588
 20
-35.1885
 11
-110.313
 21
-35.4464
  0
LINE
  8
0
 10
-110.313
 20
-35.4464
 11
-110.073
 21
-35.7366
  0
LINE
  8
0
 10
-110.073
 20
-35.7366
 11
-109.871
 21
-36.0547
  0
LINE
  8
0
 10
-109.871
 20
-36.0547
 11
-109.711
 21
-36.3956
  0
LINE
  8
0
 10
-109.711
 20
-36.3956
 11
-109.594
 21
-36.7539
  0
LINE
  8
0
 10
-109.594
 20
-36.7539
 11
-109.524
 21
-37.124
  0
LINE
  8
0
 10
-109.524
 20
-37.124
 11
-109.5
 21
-37.5
  0
LINE
  8
0
 10
-109.5
 20
-37.5
 11
-109.524
 21
-37.876
  0
LINE
  8
0
 10
-109.524
 20
-37.876
 11
-109.594
 21
-38.2461
  0
LINE
  8
0
 10
-109.594
 20
-38.2461
 11
-109.711
 21
-38.6044
  0
LINE
  8
0
 10
-109.711
 20
-38.6044
 11
-109.871
 21
-38.9453
  0
LINE
  8
0
 10
-109.871
 20
-38.9453
 11
-110.073
 21
-39.2634
  0
LINE
  8
0
 10
-110.073
 20
-39.2634
 11
-110.313
 21
-39.5536
  0
LINE
  8
0
 10
-110.313
 20
-39.5536
 11
-110.588
 21
-39.8115
  0
LINE
  8
0
 10
-110.588
 20
-39.8115
 11
-110.893
 21
-40.033
  0
LINE
  8
0
 10
-110.893
 20
-40.033
 11
-111.223
 21
-40.2145
  0
LINE
  8
0
 10
-111.223
 20
-40.2145
 11
-111.573
 21
-40.3532
  0
LINE
  8
0
 10
-111.573
 20
-40.3532
 11
-111.938
 21
-40.4469
  0
LINE
  8
0
 10
-111.938
 20
-40.4469
 11
-112.312
 21
-40.4941
  0
LINE
  8
0
 10
-112.312
 20
-40.4941
 11
-112.688
 21
-40.4941
  0
ENDSEC
  0
SECTION
  2
OBJECTS
  0
DICTIONARY
  0
ENDSEC
  0
EOF
