<?xml version="1.0" standalone="no"?>
<!DOCTYPE svg PUBLIC "-//W3C//DTD SVG 1.1//EN" "http://www.w3.org/Graphics/SVG/1.1/DTD/svg11.dtd">
<svg width="90mm" height="30mm" viewBox="-45 -15 90 30" xmlns="http://www.w3.org/2000/svg" version="1.1">
<title>OpenSCAD Model</title>
<path d="
M 40.4369,14.4114 L 41.0451,14.2553 L 41.6289,14.0241 L 42.1791,13.7216 L 42.6871,13.3526 L 43.1448,12.9227
 L 43.5451,12.4389 L 43.8815,11.9088 L 44.1489,11.3406 L 44.3429,10.7434 L 44.4606,10.1267 L 44.5,9.5
 L 44.5,-9.5 L 44.4606,-10.1267 L 44.3429,-10.7434 L 44.1489,-11.3406 L 43.8815,-11.9088 L 43.5451,-12.4389
 L 43.1448,-12.9227 L 42.6871,-13.3526 L 42.1791,-13.7216 L 41.6289,-14.0241 L 41.0451,-14.2553 L 40.4369,-14.4114
 L 39.8139,-14.4901 L -39.8139,-14.4901 L -40.4369,-14.4114 L -41.0451,-14.2553 L -41.6289,-14.0241 L -42.1791,-13.7216
 L -42.6871,-13.3526 L -43.1448,-12.9227 L -43.5451,-12.4389 L -43.8815,-11.9088 L -44.1489,-11.3406 L -44.3429,-10.7434
 L -44.4606,-10.1267 L -44.5,-9.5 L -44.5,9.5 L -44.4606,10.1267 L -44.3429,10.7434 L -44.1489,11.3406
 L -43.8815,11.9088 L -43.5451,12.4389 L -43.1448,12.9227 L -42.6871,13.3526 L -42.1791,13.7216 L -41.6289,14.0241
 L -41.0451,14.2553 L -40.4369,14.4114 L -39.8139,14.4901 L 39.8139,14.4901 z
M -37.6884,-4.50591 L -38.0621,-4.55313 L -38.427,-4.64682 L -38.7773,-4.78551 L -39.1075,-4.96701 L -39.4123,-5.18845
 L -39.6869,-5.44635 L -39.927,-5.73663 L -40.1289,-6.05473 L -40.2893,-6.39561 L -40.4057,-6.75392 L -40.4763,-7.12399
 L -40.5,-7.5 L -40.4763,-7.87599 L -40.4057,-8.24606 L -40.2893,-8.60437 L -40.1289,-8.94525 L -39.927,-9.26335
 L -39.6869,-9.55363 L -39.4123,-9.81154 L -39.1075,-10.033 L -38.7773,-10.2145 L -38.427,-10.3532 L -38.0621,-10.4469
 L -37.6884,-10.4941 L -37.3116,-10.4941 L -36.9379,-10.4469 L -36.5729,-10.3532 L -36.2227,-10.2145 L -35.8925,-10.033
 L -35.5877,-9.81154 L -35.3131,-9.55363 L -35.0729,-9.26335 L -34.8711,-8.94525 L -34.7107,-8.60437 L -34.5942,-8.24606
 L -34.5237,-7.87599 L -34.5,-7.5 L -34.5237,-7.12399 L -34.5942,-6.75392 L -34.7107,-6.39561 L -34.8711,-6.05473
 L -35.0729,-5.73663 L -35.3131,-5.44635 L -35.5877,-5.18845 L -35.8925,-4.96701 L -36.2227,-4.78551 L -36.5729,-4.64682
 L -36.9379,-4.55313 L -37.3116,-4.50591 z
M 37.3116,-4.50591 L 36.9379,-4.55313 L 36.5729,-4.64682 L 36.2227,-4.78551 L 35.8925,-4.96701 L 35.5877,-5.18845
 L 35.3131,-5.44635 L 35.0729,-5.73663 L 34.8711,-6.05473 L 34.7107,-6.39561 L 34.5942,-6.75392 L 34.5237,-7.12399
 L 34.5,-7.5 L 34.5237,-7.87599 L 34.5942,-8.24606 L 34.7107,-8.60437 L 34.8711,-8.94525 L 35.0729,-9.26335
 L 35.3131,-9.55363 L 35.5877,-9.81154 L 35.8925,-10.033 L 36.2227,-10.2145 L 36.5729,-10.3532 L 36.9379,-10.4469
 L 37.3116,-10.4941 L 37.6884,-10.4941 L 38.0621,-10.4469 L 38.427,-10.3532 L 38.7773,-10.2145 L 39.1075,-10.033
 L 39.4123,-9.81154 L 39.6869,-9.55363 L 39.927,-9.26335 L 40.1289,-8.94525 L 40.2893,-8.60437 L 40.4057,-8.24606
 L 40.4763,-7.87599 L 40.5,-7.5 L 40.4763,-7.12399 L 40.4057,-6.75392 L 40.2893,-6.39561 L 40.1289,-6.05473
 L 39.927,-5.73663 L 39.6869,-5.44635 L 39.4123,-5.18845 L 39.1075,-4.96701 L 38.7773,-4.78551 L 38.427,-4.64682
 L 38.0621,-4.55313 L 37.6884,-4.50591 z
M -30.3139,4.99013 L -30.9369,4.91142 L -31.5451,4.75528 L -32.1289,4.52412 L -32.6791,4.22163 L -33.1871,3.85255
 L -33.6448,3.42273 L -34.0451,2.93892 L -34.3815,2.40877 L -34.6489,1.84062 L -34.8429,1.24344 L -34.9606,0.626663
 L -35,-0 L -34.9606,-0.626663 L -34.8429,-1.24344 L -34.6489,-1.84062 L -34.3815,-2.40877 L -34.0451,-2.93892
 L -33.6448,-3.42273 L -33.1871,-3.85255 L -32.6791,-4.22163 L -32.1289,-4.52412 L -31.5451,-4.75528 L -30.9369,-4.91142
 L -30.3139,-4.99013 L -29.686,-4.99013 L -29.0631,-4.91142 L -28.4549,-4.75528 L -27.8711,-4.52412 L -27.3209,-4.22163
 L -26.8129,-3.85255 L -26.3551,-3.42273 L -25.9549,-2.93892 L -25.6185,-2.40877 L -25.3511,-1.84062 L -25.1571,-1.24344
 L -25.0394,-0.626663 L -25,-0 L -25.0394,0.626663 L -25.1571,1.24344 L -25.3511,1.84062 L -25.6185,2.40877
 L -25.9549,2.93892 L -26.3551,3.42273 L -26.8129,3.85255 L -27.3209,4.22163 L -27.8711,4.52412 L -28.4549,4.75528
 L -29.0631,4.91142 L -29.686,4.99013 z
M 14.686,4.99013 L 14.0631,4.91142 L 13.4549,4.75528 L 12.8711,4.52412 L 12.3209,4.22163 L 11.8129,3.85255
 L 11.3551,3.42273 L 10.9549,2.93892 L 10.6185,2.40877 L 10.3511,1.84062 L 10.1571,1.24344 L 10.0394,0.626663
 L 10,-0 L 10.0394,-0.626663 L 10.1571,-1.24344 L 10.3511,-1.84062 L 10.6185,-2.40877 L 10.9549,-2.93892
 L 11.3551,-3.42273 L 11.8129,-3.85255 L 12.3209,-4.22163 L 12.8711,-4.52412 L 13.4549,-4.75528 L 14.0631,-4.91142
 L 14.686,-4.99013 L 15.3139,-4.99013 L 15.9369,-4.91142 L 16.5451,-4.75528 L 17.1289,-4.52412 L 17.6791,-4.22163
 L 18.1871,-3.85255 L 18.6448,-3.42273 L 19.0451,-2.93892 L 19.3815,-2.40877 L 19.6489,-1.84062 L 19.8429,-1.24344
 L 19.9606,-0.626663 L 20,-0 L 19.9606,0.626663 L 19.8429,1.24344 L 19.6489,1.84062 L 19.3815,2.40877
 L 19.0451,2.93892 L 18.6448,3.42273 L 18.1871,3.85255 L 17.6791,4.22163 L 17.1289,4.52412 L 16.5451,4.75528
 L 15.9369,4.91142 L 15.3139,4.99013 z
M -0.31395,4.99013 L -0.936905,4.91142 L -1.54507,4.75528 L -2.12889,4.52412 L -2.67912,4.22163 L -3.18712,3.85255
 L -3.64484,3.42273 L -4.04507,2.93892 L -4.38153,2.40877 L -4.64888,1.84062 L -4.84291,1.24344 L -4.96057,0.626663
 L -5,-0 L -4.96057,-0.626663 L -4.84291,-1.24344 L -4.64888,-1.84062 L -4.38153,-2.40877 L -4.04507,-2.93892
 L -3.64484,-3.42273 L -3.18712,-3.85255 L -2.67912,-4.22163 L -2.12889,-4.52412 L -1.54507,-4.75528 L -0.936905,-4.91142
 L -0.31395,-4.99013 L 0.31395,-4.99013 L 0.936905,-4.91142 L 1.54507,-4.75528 L 2.12889,-4.52412 L 2.67912,-4.22163
 L 3.18712,-3.85255 L 3.64484,-3.42273 L 4.04507,-2.93892 L 4.38153,-2.40877 L 4.64888,-1.84062 L 4.84291,-1.24344
 L 4.96057,-0.626663 L 5,-0 L 4.96057,0.626663 L 4.84291,1.24344 L 4.64888,1.84062 L 4.38153,2.40877
 L 4.04507,2.93892 L 3.64484,3.42273 L 3.18712,3.85255 L 2.67912,4.22163 L 2.12889,4.52412 L 1.54507,4.75528
 L 0.936905,4.91142 L 0.31395,4.99013 z
M 29.686,4.99013 L 29.0631,4.91142 L 28.4549,4.75528 L 27.8711,4.52412 L 27.3209,4.22163 L 26.8129,3.85255
 L 26.3551,3.42273 L 25.9549,2.93892 L 25.6185,2.40877 L 25.3511,1.84062 L 25.1571,1.24344 L 25.0394,0.626663
 L 25,-0 L 25.0394,-0.626663 L 25.1571,-1.24344 L 25.3511,-1.84062 L 25.6185,-2.40877 L 25.9549,-2.93892
 L 26.3551,-3.42273 L 26.8129,-3.85255 L 27.3209,-4.22163 L 27.8711,-4.52412 L 28.4549,-4.75528 L 29.0631,-4.91142
 L 29.686,-4.99013 L 30.3139,-4.99013 L 30.9369,-4.91142 L 31.5451,-4.75528 L 32.1289,-4.52412 L 32.6791,-4.22163
 L 33.1871,-3.85255 L 33.6448,-3.42273 L 34.0451,-2.93892 L 34.3815,-2.40877 L 34.6489,-1.84062 L 34.8429,-1.24344
 L 34.9606,-0.626663 L 35,-0 L 34.9606,0.626663 L 34.8429,1.24344 L 34.6489,1.84062 L 34.3815,2.40877
 L 34.0451,2.93892 L 33.6448,3.42273 L 33.1871,3.85255 L 32.6791,4.22163 L 32.1289,4.52412 L 31.5451,4.75528
 L 30.9369,4.91142 L 30.3139,4.99013 z
M -15.3139,4.99013 L -15.9369,4.91142 L -16.5451,4.75528 L -17.1289,4.52412 L -17.6791,4.22163 L -18.1871,3.85255
 L -18.6448,3.42273 L -19.0451,2.93892 L -19.3815,2.40877 L -19.6489,1.84062 L -19.8429,1.24344 L -19.9606,0.626663
 L -20,-0 L -19.9606,-0.626663 L -19.8429,-1.24344 L -19.6489,-1.84062 L -19.3815,-2.40877 L -19.0451,-2.93892
 L -18.6448,-3.42273 L -18.1871,-3.85255 L -17.6791,-4.22163 L -17.1289,-4.52412 L -16.5451,-4.75528 L -15.9369,-4.91142
 L -15.3139,-4.99013 L -14.686,-4.99013 L -14.0631,-4.91142 L -13.4549,-4.75528 L -12.8711,-4.52412 L -12.3209,-4.22163
 L -11.8129,-3.85255 L -11.3551,-3.42273 L -10.9549,-2.93892 L -10.6185,-2.40877 L -10.3511,-1.84062 L -10.1571,-1.24344
 L -10.0394,-0.626663 L -10,-0 L -10.0394,0.626663 L -10.1571,1.24344 L -10.3511,1.84062 L -10.6185,2.40877
 L -10.9549,2.93892 L -11.3551,3.42273 L -11.8129,3.85255 L -12.3209,4.22163 L -12.8711,4.52412 L -13.4549,4.75528
 L -14.0631,4.91142 L -14.686,4.99013 z
M 37.3116,10.4941 L 36.9379,10.4469 L 36.5729,10.3532 L 36.2227,10.2145 L 35.8925,10.033 L 35.5877,9.81154
 L 35.3131,9.55363 L 35.0729,9.26335 L 34.8711,8.94525 L 34.7107,8.60437 L 34.5942,8.24606 L 34.5237,7.87599
 L 34.5,7.5 L 34.5237,7.12399 L 34.5942,6.75392 L 34.7107,6.39561 L 34.8711,6.05473 L 35.0729,5.73663
 L 35.3131,5.44635 L 35.5877,5.18845 L 35.8925,4.96701 L 36.2227,4.78551 L 36.5729,4.64682 L 36.9379,4.55313
 L 37.3116,4.50591 L 37.6884,4.50591 L 38.0621,4.55313 L 38.427,4.64682 L 38.7773,4.78551 L 39.1075,4.96701
 L 39.4123,5.18845 L 39.6869,5.44635 L 39.927,5.73663 L 40.1289,6.05473 L 40.2893,6.39561 L 40.4057,6.75392
 L 40.4763,7.12399 L 40.5,7.5 L 40.4763,7.87599 L 40.4057,8.24606 L 40.2893,8.60437 L 40.1289,8.94525
 L 39.927,9.26335 L 39.6869,9.55363 L 39.4123,9.81154 L 39.1075,10.033 L 38.7773,10.2145 L 38.427,10.3532
 L 38.0621,10.4469 L 37.6884,10.4941 z
M -37.6884,10.4941 L -38.0621,10.4469 L -38.427,10.3532 L -38.7773,10.2145 L -39.1075,10.033 L -39.4123,9.81154
 L -39.6869,9.55363 L -39.927,9.26335 L -40.1289,8.94525 L -40.2893,8.60437 L -40.4057,8.24606 L -40.4763,7.87599
 L -40.5,7.5 L -40.4763,7.12399 L -40.4057,6.75392 L -40.2893,6.39561 L -40.1289,6.05473 L -39.927,5.73663
 L -39.6869,5.44635 L -39.4123,5.18845 L -39.1075,4.96701 L -38.7773,4.78551 L -38.427,4.64682 L -38.0621,4.55313
 L -37.6884,4.50591 L -37.3116,4.50591 L -36.9379,4.55313 L -36.5729,4.64682 L -36.2227,4.78551 L -35.8925,4.96701
 L -35.5877,5.18845 L -35.3131,5.44635 L -35.0729,5.73663 L -34.8711,6.05473 L -34.7107,6.39561 L -34.5942,6.75392
 L -34.5237,7.12399 L -34.5,7.5 L -34.5237,7.87599 L -34.5942,8.24606 L -34.7107,8.60437 L -34.8711,8.94525
 L -35.0729,9.26335 L -35.3131,9.55363 L -35.5877,9.81154 L -35.8925,10.033 L -36.2227,10.2145 L -36.5729,10.3532
 L -36.9379,10.4469 L -37.3116,10.4941 z
" stroke="black" fill="lightgray" stroke-width="0.5"/>
</svg>
