  0
SECTION
  2
BLOCKS
  0
ENDSEC
  0
SECTION
  2
ENTITIES
  0
LINE
  8
0
 10
212.937
 20
-44.4114
 11
213.545
 21
-44.2553
  0
LINE
  8
0
 10
213.545
 20
-44.2553
 11
214.129
 21
-44.0241
  0
LINE
  8
0
 10
214.129
 20
-44.0241
 11
214.679
 21
-43.7216
  0
LINE
  8
0
 10
214.679
 20
-43.7216
 11
215.187
 21
-43.3526
  0
LINE
  8
0
 10
215.187
 20
-43.3526
 11
215.645
 21
-42.9227
  0
LINE
  8
0
 10
215.645
 20
-42.9227
 11
216.045
 21
-42.4389
  0
LINE
  8
0
 10
216.045
 20
-42.4389
 11
216.382
 21
-41.9088
  0
LINE
  8
0
 10
216.382
 20
-41.9088
 11
216.649
 21
-41.3406
  0
LINE
  8
0
 10
216.649
 20
-41.3406
 11
216.843
 21
-40.7434
  0
LINE
  8
0
 10
216.843
 20
-40.7434
 11
216.961
 21
-40.1267
  0
LINE
  8
0
 10
216.961
 20
-40.1267
 11
217
 21
-39.5
  0
LINE
  8
0
 10
217
 20
-39.5
 11
217
 21
39.5
  0
LINE
  8
0
 10
217
 20
39.5
 11
216.961
 21
40.1267
  0
LINE
  8
0
 10
216.961
 20
40.1267
 11
216.843
 21
40.7434
  0
LINE
  8
0
 10
216.843
 20
40.7434
 11
216.649
 21
41.3406
  0
LINE
  8
0
 10
216.649
 20
41.3406
 11
216.382
 21
41.9088
  0
LINE
  8
0
 10
216.382
 20
41.9088
 11
216.045
 21
42.4389
  0
LINE
  8
0
 10
216.045
 20
42.4389
 11
215.645
 21
42.9227
  0
LINE
  8
0
 10
215.645
 20
42.9227
 11
215.187
 21
43.3526
  0
LINE
  8
0
 10
215.187
 20
43.3526
 11
214.679
 21
43.7216
  0
LINE
  8
0
 10
214.679
 20
43.7216
 11
214.129
 21
44.0241
  0
LINE
  8
0
 10
214.129
 20
44.0241
 11
213.545
 21
44.2553
  0
LINE
  8
0
 10
213.545
 20
44.2553
 11
212.937
 21
44.4114
  0
LINE
  8
0
 10
212.937
 20
44.4114
 11
212.314
 21
44.4901
  0
LINE
  8
0
 10
212.314
 20
44.4901
 11
-212.314
 21
44.4901
  0
LINE
  8
0
 10
-212.314
 20
44.4901
 11
-212.937
 21
44.4114
  0
LINE
  8
0
 10
-212.937
 20
44.4114
 11
-213.545
 21
44.2553
  0
LINE
  8
0
 10
-213.545
 20
44.2553
 11
-214.129
 21
44.0241
  0
LINE
  8
0
 10
-214.129
 20
44.0241
 11
-214.679
 21
43.7216
  0
LINE
  8
0
 10
-214.679
 20
43.7216
 11
-215.187
 21
43.3526
  0
LINE
  8
0
 10
-215.187
 20
43.3526
 11
-215.645
 21
42.9227
  0
LINE
  8
0
 10
-215.645
 20
42.9227
 11
-216.045
 21
42.4389
  0
LINE
  8
0
 10
-216.045
 20
42.4389
 11
-216.382
 21
41.9088
  0
LINE
  8
0
 10
-216.382
 20
41.9088
 11
-216.649
 21
41.3406
  0
LINE
  8
0
 10
-216.649
 20
41.3406
 11
-216.843
 21
40.7434
  0
LINE
  8
0
 10
-216.843
 20
40.7434
 11
-216.961
 21
40.1267
  0
LINE
  8
0
 10
-216.961
 20
40.1267
 11
-217
 21
39.5
  0
LINE
  8
0
 10
-217
 20
39.5
 11
-217
 21
-39.5
  0
LINE
  8
0
 10
-217
 20
-39.5
 11
-216.961
 21
-40.1267
  0
LINE
  8
0
 10
-216.961
 20
-40.1267
 11
-216.843
 21
-40.7434
  0
LINE
  8
0
 10
-216.843
 20
-40.7434
 11
-216.649
 21
-41.3406
  0
LINE
  8
0
 10
-216.649
 20
-41.3406
 11
-216.382
 21
-41.9088
  0
LINE
  8
0
 10
-216.382
 20
-41.9088
 11
-216.045
 21
-42.4389
  0
LINE
  8
0
 10
-216.045
 20
-42.4389
 11
-215.645
 21
-42.9227
  0
LINE
  8
0
 10
-215.645
 20
-42.9227
 11
-215.187
 21
-43.3526
  0
LINE
  8
0
 10
-215.187
 20
-43.3526
 11
-214.679
 21
-43.7216
  0
LINE
  8
0
 10
-214.679
 20
-43.7216
 11
-214.129
 21
-44.0241
  0
LINE
  8
0
 10
-214.129
 20
-44.0241
 11
-213.545
 21
-44.2553
  0
LINE
  8
0
 10
-213.545
 20
-44.2553
 11
-212.937
 21
-44.4114
  0
LINE
  8
0
 10
-212.937
 20
-44.4114
 11
-212.314
 21
-44.4901
  0
LINE
  8
0
 10
-212.314
 20
-44.4901
 11
212.314
 21
-44.4901
  0
LINE
  8
0
 10
212.314
 20
-44.4901
 11
212.937
 21
-44.4114
  0
LINE
  8
0
 10
209.812
 20
34.5059
 11
209.438
 21
34.5531
  0
LINE
  8
0
 10
209.438
 20
34.5531
 11
209.073
 21
34.6468
  0
LINE
  8
0
 10
209.073
 20
34.6468
 11
208.723
 21
34.7855
  0
LINE
  8
0
 10
208.723
 20
34.7855
 11
208.393
 21
34.967
  0
LINE
  8
0
 10
208.393
 20
34.967
 11
208.088
 21
35.1885
  0
LINE
  8
0
 10
208.088
 20
35.1885
 11
207.813
 21
35.4464
  0
LINE
  8
0
 10
207.813
 20
35.4464
 11
207.573
 21
35.7366
  0
LINE
  8
0
 10
207.573
 20
35.7366
 11
207.371
 21
36.0547
  0
LINE
  8
0
 10
207.371
 20
36.0547
 11
207.211
 21
36.3956
  0
LINE
  8
0
 10
207.211
 20
36.3956
 11
207.094
 21
36.7539
  0
LINE
  8
0
 10
207.094
 20
36.7539
 11
207.024
 21
37.124
  0
LINE
  8
0
 10
207.024
 20
37.124
 11
207
 21
37.5
  0
LINE
  8
0
 10
207
 20
37.5
 11
207.024
 21
37.876
  0
LINE
  8
0
 10
207.024
 20
37.876
 11
207.094
 21
38.2461
  0
LINE
  8
0
 10
207.094
 20
38.2461
 11
207.211
 21
38.6044
  0
LINE
  8
0
 10
207.211
 20
38.6044
 11
207.371
 21
38.9453
  0
LINE
  8
0
 10
207.371
 20
38.9453
 11
207.573
 21
39.2634
  0
LINE
  8
0
 10
207.573
 20
39.2634
 11
207.813
 21
39.5536
  0
LINE
  8
0
 10
207.813
 20
39.5536
 11
208.088
 21
39.8115
  0
LINE
  8
0
 10
208.088
 20
39.8115
 11
208.393
 21
40.033
  0
LINE
  8
0
 10
208.393
 20
40.033
 11
208.723
 21
40.2145
  0
LINE
  8
0
 10
208.723
 20
40.2145
 11
209.073
 21
40.3532
  0
LINE
  8
0
 10
209.073
 20
40.3532
 11
209.438
 21
40.4469
  0
LINE
  8
0
 10
209.438
 20
40.4469
 11
209.812
 21
40.4941
  0
LINE
  8
0
 10
209.812
 20
40.4941
 11
210.188
 21
40.4941
  0
LINE
  8
0
 10
210.188
 20
40.4941
 11
210.562
 21
40.4469
  0
LINE
  8
0
 10
210.562
 20
40.4469
 11
210.927
 21
40.3532
  0
LINE
  8
0
 10
210.927
 20
40.3532
 11
211.277
 21
40.2145
  0
LINE
  8
0
 10
211.277
 20
40.2145
 11
211.607
 21
40.033
  0
LINE
  8
0
 10
211.607
 20
40.033
 11
211.912
 21
39.8115
  0
LINE
  8
0
 10
211.912
 20
39.8115
 11
212.187
 21
39.5536
  0
LINE
  8
0
 10
212.187
 20
39.5536
 11
212.427
 21
39.2634
  0
LINE
  8
0
 10
212.427
 20
39.2634
 11
212.629
 21
38.9453
  0
LINE
  8
0
 10
212.629
 20
38.9453
 11
212.789
 21
38.6044
  0
LINE
  8
0
 10
212.789
 20
38.6044
 11
212.906
 21
38.2461
  0
LINE
  8
0
 10
212.906
 20
38.2461
 11
212.976
 21
37.876
  0
LINE
  8
0
 10
212.976
 20
37.876
 11
213
 21
37.5
  0
LINE
  8
0
 10
213
 20
37.5
 11
212.976
 21
37.124
  0
LINE
  8
0
 10
212.976
 20
37.124
 11
212.906
 21
36.7539
  0
LINE
  8
0
 10
212.906
 20
36.7539
 11
212.789
 21
36.3956
  0
LINE
  8
0
 10
212.789
 20
36.3956
 11
212.629
 21
36.0547
  0
LINE
  8
0
 10
212.629
 20
36.0547
 11
212.427
 21
35.7366
  0
LINE
  8
0
 10
212.427
 20
35.7366
 11
212.187
 21
35.4464
  0
LINE
  8
0
 10
212.187
 20
35.4464
 11
211.912
 21
35.1885
  0
LINE
  8
0
 10
211.912
 20
35.1885
 11
211.607
 21
34.967
  0
LINE
  8
0
 10
211.607
 20
34.967
 11
211.277
 21
34.7855
  0
LINE
  8
0
 10
211.277
 20
34.7855
 11
210.927
 21
34.6468
  0
LINE
  8
0
 10
210.927
 20
34.6468
 11
210.562
 21
34.5531
  0
LINE
  8
0
 10
210.562
 20
34.5531
 11
210.188
 21
34.5059
  0
LINE
  8
0
 10
210.188
 20
34.5059
 11
209.812
 21
34.5059
  0
LINE
  8
0
 10
-210.188
 20
34.5059
 11
-210.562
 21
34.5531
  0
LINE
  8
0
 10
-210.562
 20
34.5531
 11
-210.927
 21
34.6468
  0
LINE
  8
0
 10
-210.927
 20
34.6468
 11
-211.277
 21
34.7855
  0
LINE
  8
0
 10
-211.277
 20
34.7855
 11
-211.607
 21
34.967
  0
LINE
  8
0
 10
-211.607
 20
34.967
 11
-211.912
 21
35.1885
  0
LINE
  8
0
 10
-211.912
 20
35.1885
 11
-212.187
 21
35.4464
  0
LINE
  8
0
 10
-212.187
 20
35.4464
 11
-212.427
 21
35.7366
  0
LINE
  8
0
 10
-212.427
 20
35.7366
 11
-212.629
 21
36.0547
  0
LINE
  8
0
 10
-212.629
 20
36.0547
 11
-212.789
 21
36.3956
  0
LINE
  8
0
 10
-212.789
 20
36.3956
 11
-212.906
 21
36.7539
  0
LINE
  8
0
 10
-212.906
 20
36.7539
 11
-212.976
 21
37.124
  0
LINE
  8
0
 10
-212.976
 20
37.124
 11
-213
 21
37.5
  0
LINE
  8
0
 10
-213
 20
37.5
 11
-212.976
 21
37.876
  0
LINE
  8
0
 10
-212.976
 20
37.876
 11
-212.906
 21
38.2461
  0
LINE
  8
0
 10
-212.906
 20
38.2461
 11
-212.789
 21
38.6044
  0
LINE
  8
0
 10
-212.789
 20
38.6044
 11
-212.629
 21
38.9453
  0
LINE
  8
0
 10
-212.629
 20
38.9453
 11
-212.427
 21
39.2634
  0
LINE
  8
0
 10
-212.427
 20
39.2634
 11
-212.187
 21
39.5536
  0
LINE
  8
0
 10
-212.187
 20
39.5536
 11
-211.912
 21
39.8115
  0
LINE
  8
0
 10
-211.912
 20
39.8115
 11
-211.607
 21
40.033
  0
LINE
  8
0
 10
-211.607
 20
40.033
 11
-211.277
 21
40.2145
  0
LINE
  8
0
 10
-211.277
 20
40.2145
 11
-210.927
 21
40.3532
  0
LINE
  8
0
 10
-210.927
 20
40.3532
 11
-210.562
 21
40.4469
  0
LINE
  8
0
 10
-210.562
 20
40.4469
 11
-210.188
 21
40.4941
  0
LINE
  8
0
 10
-210.188
 20
40.4941
 11
-209.812
 21
40.4941
  0
LINE
  8
0
 10
-209.812
 20
40.4941
 11
-209.438
 21
40.4469
  0
LINE
  8
0
 10
-209.438
 20
40.4469
 11
-209.073
 21
40.3532
  0
LINE
  8
0
 10
-209.073
 20
40.3532
 11
-208.723
 21
40.2145
  0
LINE
  8
0
 10
-208.723
 20
40.2145
 11
-208.393
 21
40.033
  0
LINE
  8
0
 10
-208.393
 20
40.033
 11
-208.088
 21
39.8115
  0
LINE
  8
0
 10
-208.088
 20
39.8115
 11
-207.813
 21
39.5536
  0
LINE
  8
0
 10
-207.813
 20
39.5536
 11
-207.573
 21
39.2634
  0
LINE
  8
0
 10
-207.573
 20
39.2634
 11
-207.371
 21
38.9453
  0
LINE
  8
0
 10
-207.371
 20
38.9453
 11
-207.211
 21
38.6044
  0
LINE
  8
0
 10
-207.211
 20
38.6044
 11
-207.094
 21
38.2461
  0
LINE
  8
0
 10
-207.094
 20
38.2461
 11
-207.024
 21
37.876
  0
LINE
  8
0
 10
-207.024
 20
37.876
 11
-207
 21
37.5
  0
LINE
  8
0
 10
-207
 20
37.5
 11
-207.024
 21
37.124
  0
LINE
  8
0
 10
-207.024
 20
37.124
 11
-207.094
 21
36.7539
  0
LINE
  8
0
 10
-207.094
 20
36.7539
 11
-207.211
 21
36.3956
  0
LINE
  8
0
 10
-207.211
 20
36.3956
 11
-207.371
 21
36.0547
  0
LINE
  8
0
 10
-207.371
 20
36.0547
 11
-207.573
 21
35.7366
  0
LINE
  8
0
 10
-207.573
 20
35.7366
 11
-207.813
 21
35.4464
  0
LINE
  8
0
 10
-207.813
 20
35.4464
 11
-208.088
 21
35.1885
  0
LINE
  8
0
 10
-208.088
 20
35.1885
 11
-208.393
 21
34.967
  0
LINE
  8
0
 10
-208.393
 20
34.967
 11
-208.723
 21
34.7855
  0
LINE
  8
0
 10
-208.723
 20
34.7855
 11
-209.073
 21
34.6468
  0
LINE
  8
0
 10
-209.073
 20
34.6468
 11
-209.438
 21
34.5531
  0
LINE
  8
0
 10
-209.438
 20
34.5531
 11
-209.812
 21
34.5059
  0
LINE
  8
0
 10
-209.812
 20
34.5059
 11
-210.188
 21
34.5059
  0
LINE
  8
0
 10
-168.449
 20
-38.923
 11
-173.308
 21
-38.3092
  0
LINE
  8
0
 10
-173.308
 20
-38.3092
 11
-178.052
 21
-37.0912
  0
LINE
  8
0
 10
-178.052
 20
-37.0912
 11
-182.605
 21
-35.2883
  0
LINE
  8
0
 10
-182.605
 20
-35.2883
 11
-186.897
 21
-32.9288
  0
LINE
  8
0
 10
-186.897
 20
-32.9288
 11
-190.86
 21
-30.05
  0
LINE
  8
0
 10
-190.86
 20
-30.05
 11
-194.43
 21
-26.6973
  0
LINE
  8
0
 10
-194.43
 20
-26.6973
 11
-197.552
 21
-22.9236
  0
LINE
  8
0
 10
-197.552
 20
-22.9236
 11
-200.176
 21
-18.7884
  0
LINE
  8
0
 10
-200.176
 20
-18.7884
 11
-202.261
 21
-14.3569
  0
LINE
  8
0
 10
-202.261
 20
-14.3569
 11
-203.775
 21
-9.6989
  0
LINE
  8
0
 10
-203.775
 20
-9.6989
 11
-204.692
 21
-4.88799
  0
LINE
  8
0
 10
-204.692
 20
-4.88799
 11
-205
 21
0
  0
LINE
  8
0
 10
-205
 20
0
 11
-204.692
 21
4.88799
  0
LINE
  8
0
 10
-204.692
 20
4.88799
 11
-203.775
 21
9.6989
  0
LINE
  8
0
 10
-203.775
 20
9.6989
 11
-202.261
 21
14.3569
  0
LINE
  8
0
 10
-202.261
 20
14.3569
 11
-200.176
 21
18.7884
  0
LINE
  8
0
 10
-200.176
 20
18.7884
 11
-197.552
 21
22.9236
  0
LINE
  8
0
 10
-197.552
 20
22.9236
 11
-194.43
 21
26.6973
  0
LINE
  8
0
 10
-194.43
 20
26.6973
 11
-190.86
 21
30.05
  0
LINE
  8
0
 10
-190.86
 20
30.05
 11
-186.897
 21
32.9288
  0
LINE
  8
0
 10
-186.897
 20
32.9288
 11
-182.605
 21
35.2883
  0
LINE
  8
0
 10
-182.605
 20
35.2883
 11
-178.052
 21
37.0912
  0
LINE
  8
0
 10
-178.052
 20
37.0912
 11
-173.308
 21
38.3092
  0
LINE
  8
0
 10
-173.308
 20
38.3092
 11
-168.449
 21
38.923
  0
LINE
  8
0
 10
-168.449
 20
38.923
 11
-163.551
 21
38.923
  0
LINE
  8
0
 10
-163.551
 20
38.923
 11
-158.692
 21
38.3092
  0
LINE
  8
0
 10
-158.692
 20
38.3092
 11
-153.948
 21
37.0912
  0
LINE
  8
0
 10
-153.948
 20
37.0912
 11
-149.395
 21
35.2883
  0
LINE
  8
0
 10
-149.395
 20
35.2883
 11
-145.103
 21
32.9288
  0
LINE
  8
0
 10
-145.103
 20
32.9288
 11
-141.14
 21
30.05
  0
LINE
  8
0
 10
-141.14
 20
30.05
 11
-137.57
 21
26.6973
  0
LINE
  8
0
 10
-137.57
 20
26.6973
 11
-134.448
 21
22.9236
  0
LINE
  8
0
 10
-134.448
 20
22.9236
 11
-131.824
 21
18.7884
  0
LINE
  8
0
 10
-131.824
 20
18.7884
 11
-129.739
 21
14.3569
  0
LINE
  8
0
 10
-129.739
 20
14.3569
 11
-128.225
 21
9.6989
  0
LINE
  8
0
 10
-128.225
 20
9.6989
 11
-127.308
 21
4.88799
  0
LINE
  8
0
 10
-127.308
 20
4.88799
 11
-127
 21
0
  0
LINE
  8
0
 10
-127
 20
0
 11
-127.308
 21
-4.88799
  0
LINE
  8
0
 10
-127.308
 20
-4.88799
 11
-128.225
 21
-9.6989
  0
LINE
  8
0
 10
-128.225
 20
-9.6989
 11
-129.739
 21
-14.3569
  0
LINE
  8
0
 10
-129.739
 20
-14.3569
 11
-131.824
 21
-18.7884
  0
LINE
  8
0
 10
-131.824
 20
-18.7884
 11
-134.448
 21
-22.9236
  0
LINE
  8
0
 10
-134.448
 20
-22.9236
 11
-137.57
 21
-26.6973
  0
LINE
  8
0
 10
-137.57
 20
-26.6973
 11
-141.14
 21
-30.05
  0
LINE
  8
0
 10
-141.14
 20
-30.05
 11
-145.103
 21
-32.9288
  0
LINE
  8
0
 10
-145.103
 20
-32.9288
 11
-149.395
 21
-35.2883
  0
LINE
  8
0
 10
-149.395
 20
-35.2883
 11
-153.948
 21
-37.0912
  0
LINE
  8
0
 10
-153.948
 20
-37.0912
 11
-158.692
 21
-38.3092
  0
LINE
  8
0
 10
-158.692
 20
-38.3092
 11
-163.551
 21
-38.923
  0
LINE
  8
0
 10
-163.551
 20
-38.923
 11
-168.449
 21
-38.923
  0
LINE
  8
0
 10
-2.44882
 20
-38.923
 11
-7.30786
 21
-38.3092
  0
LINE
  8
0
 10
-7.30786
 20
-38.3092
 11
-12.0517
 21
-37.0912
  0
LINE
  8
0
 10
-12.0517
 20
-37.0912
 11
-16.6054
 21
-35.2883
  0
LINE
  8
0
 10
-16.6054
 20
-35.2883
 11
-20.8972
 21
-32.9288
  0
LINE
  8
0
 10
-20.8972
 20
-32.9288
 11
-24.8595
 21
-30.05
  0
LINE
  8
0
 10
-24.8595
 20
-30.05
 11
-28.4298
 21
-26.6973
  0
LINE
  8
0
 10
-28.4298
 20
-26.6973
 11
-31.5517
 21
-22.9236
  0
LINE
  8
0
 10
-31.5517
 20
-22.9236
 11
-34.1759
 21
-18.7884
  0
LINE
  8
0
 10
-34.1759
 20
-18.7884
 11
-36.2613
 21
-14.3569
  0
LINE
  8
0
 10
-36.2613
 20
-14.3569
 11
-37.7747
 21
-9.6989
  0
LINE
  8
0
 10
-37.7747
 20
-9.6989
 11
-38.6925
 21
-4.88799
  0
LINE
  8
0
 10
-38.6925
 20
-4.88799
 11
-39
 21
0
  0
LINE
  8
0
 10
-39
 20
0
 11
-38.6925
 21
4.88799
  0
LINE
  8
0
 10
-38.6925
 20
4.88799
 11
-37.7747
 21
9.6989
  0
LINE
  8
0
 10
-37.7747
 20
9.6989
 11
-36.2613
 21
14.3569
  0
LINE
  8
0
 10
-36.2613
 20
14.3569
 11
-34.1759
 21
18.7884
  0
LINE
  8
0
 10
-34.1759
 20
18.7884
 11
-31.5517
 21
22.9236
  0
LINE
  8
0
 10
-31.5517
 20
22.9236
 11
-28.4298
 21
26.6973
  0
LINE
  8
0
 10
-28.4298
 20
26.6973
 11
-24.8595
 21
30.05
  0
LINE
  8
0
 10
-24.8595
 20
30.05
 11
-20.8972
 21
32.9288
  0
LINE
  8
0
 10
-20.8972
 20
32.9288
 11
-16.6054
 21
35.2883
  0
LINE
  8
0
 10
-16.6054
 20
35.2883
 11
-12.0517
 21
37.0912
  0
LINE
  8
0
 10
-12.0517
 20
37.0912
 11
-7.30786
 21
38.3092
  0
LINE
  8
0
 10
-7.30786
 20
38.3092
 11
-2.44882
 21
38.923
  0
LINE
  8
0
 10
-2.44882
 20
38.923
 11
2.44882
 21
38.923
  0
LINE
  8
0
 10
2.44882
 20
38.923
 11
7.30786
 21
38.3092
  0
LINE
  8
0
 10
7.30786
 20
38.3092
 11
12.0517
 21
37.0912
  0
LINE
  8
0
 10
12.0517
 20
37.0912
 11
16.6054
 21
35.2883
  0
LINE
  8
0
 10
16.6054
 20
35.2883
 11
20.8972
 21
32.9288
  0
LINE
  8
0
 10
20.8972
 20
32.9288
 11
24.8595
 21
30.05
  0
LINE
  8
0
 10
24.8595
 20
30.05
 11
28.4298
 21
26.6973
  0
LINE
  8
0
 10
28.4298
 20
26.6973
 11
31.5517
 21
22.9236
  0
LINE
  8
0
 10
31.5517
 20
22.9236
 11
34.1759
 21
18.7884
  0
LINE
  8
0
 10
34.1759
 20
18.7884
 11
36.2613
 21
14.3569
  0
LINE
  8
0
 10
36.2613
 20
14.3569
 11
37.7747
 21
9.6989
  0
LINE
  8
0
 10
37.7747
 20
9.6989
 11
38.6925
 21
4.88799
  0
LINE
  8
0
 10
38.6925
 20
4.88799
 11
39
 21
0
  0
LINE
  8
0
 10
39
 20
0
 11
38.6925
 21
-4.88799
  0
LINE
  8
0
 10
38.6925
 20
-4.88799
 11
37.7747
 21
-9.6989
  0
LINE
  8
0
 10
37.7747
 20
-9.6989
 11
36.2613
 21
-14.3569
  0
LINE
  8
0
 10
36.2613
 20
-14.3569
 11
34.1759
 21
-18.7884
  0
LINE
  8
0
 10
34.1759
 20
-18.7884
 11
31.5517
 21
-22.9236
  0
LINE
  8
0
 10
31.5517
 20
-22.9236
 11
28.4298
 21
-26.6973
  0
LINE
  8
0
 10
28.4298
 20
-26.6973
 11
24.8595
 21
-30.05
  0
LINE
  8
0
 10
24.8595
 20
-30.05
 11
20.8972
 21
-32.9288
  0
LINE
  8
0
 10
20.8972
 20
-32.9288
 11
16.6054
 21
-35.2883
  0
LINE
  8
0
 10
16.6054
 20
-35.2883
 11
12.0517
 21
-37.0912
  0
LINE
  8
0
 10
12.0517
 20
-37.0912
 11
7.30786
 21
-38.3092
  0
LINE
  8
0
 10
7.30786
 20
-38.3092
 11
2.44882
 21
-38.923
  0
LINE
  8
0
 10
2.44882
 20
-38.923
 11
-2.44882
 21
-38.923
  0
LINE
  8
0
 10
-85.4488
 20
-38.923
 11
-90.3079
 21
-38.3092
  0
LINE
  8
0
 10
-90.3079
 20
-38.3092
 11
-95.0517
 21
-37.0912
  0
LINE
  8
0
 10
-95.0517
 20
-37.0912
 11
-99.6054
 21
-35.2883
  0
LINE
  8
0
 10
-99.6054
 20
-35.2883
 11
-103.897
 21
-32.9288
  0
LINE
  8
0
 10
-103.897
 20
-32.9288
 11
-107.86
 21
-30.05
  0
LINE
  8
0
 10
-107.86
 20
-30.05
 11
-111.43
 21
-26.6973
  0
LINE
  8
0
 10
-111.43
 20
-26.6973
 11
-114.552
 21
-22.9236
  0
LINE
  8
0
 10
-114.552
 20
-22.9236
 11
-117.176
 21
-18.7884
  0
LINE
  8
0
 10
-117.176
 20
-18.7884
 11
-119.261
 21
-14.3569
  0
LINE
  8
0
 10
-119.261
 20
-14.3569
 11
-120.775
 21
-9.6989
  0
LINE
  8
0
 10
-120.775
 20
-9.6989
 11
-121.692
 21
-4.88799
  0
LINE
  8
0
 10
-121.692
 20
-4.88799
 11
-122
 21
0
  0
LINE
  8
0
 10
-122
 20
0
 11
-121.692
 21
4.88799
  0
LINE
  8
0
 10
-121.692
 20
4.88799
 11
-120.775
 21
9.6989
  0
LINE
  8
0
 10
-120.775
 20
9.6989
 11
-119.261
 21
14.3569
  0
LINE
  8
0
 10
-119.261
 20
14.3569
 11
-117.176
 21
18.7884
  0
LINE
  8
0
 10
-117.176
 20
18.7884
 11
-114.552
 21
22.9236
  0
LINE
  8
0
 10
-114.552
 20
22.9236
 11
-111.43
 21
26.6973
  0
LINE
  8
0
 10
-111.43
 20
26.6973
 11
-107.86
 21
30.05
  0
LINE
  8
0
 10
-107.86
 20
30.05
 11
-103.897
 21
32.9288
  0
LINE
  8
0
 10
-103.897
 20
32.9288
 11
-99.6054
 21
35.2883
  0
LINE
  8
0
 10
-99.6054
 20
35.2883
 11
-95.0517
 21
37.0912
  0
LINE
  8
0
 10
-95.0517
 20
37.0912
 11
-90.3079
 21
38.3092
  0
LINE
  8
0
 10
-90.3079
 20
38.3092
 11
-85.4488
 21
38.923
  0
LINE
  8
0
 10
-85.4488
 20
38.923
 11
-80.5512
 21
38.923
  0
LINE
  8
0
 10
-80.5512
 20
38.923
 11
-75.6921
 21
38.3092
  0
LINE
  8
0
 10
-75.6921
 20
38.3092
 11
-70.9483
 21
37.0912
  0
LINE
  8
0
 10
-70.9483
 20
37.0912
 11
-66.3946
 21
35.2883
  0
LINE
  8
0
 10
-66.3946
 20
35.2883
 11
-62.1028
 21
32.9288
  0
LINE
  8
0
 10
-62.1028
 20
32.9288
 11
-58.1405
 21
30.05
  0
LINE
  8
0
 10
-58.1405
 20
30.05
 11
-54.5702
 21
26.6973
  0
LINE
  8
0
 10
-54.5702
 20
26.6973
 11
-51.4483
 21
22.9236
  0
LINE
  8
0
 10
-51.4483
 20
22.9236
 11
-48.824
 21
18.7884
  0
LINE
  8
0
 10
-48.824
 20
18.7884
 11
-46.7387
 21
14.3569
  0
LINE
  8
0
 10
-46.7387
 20
14.3569
 11
-45.2253
 21
9.6989
  0
LINE
  8
0
 10
-45.2253
 20
9.6989
 11
-44.3075
 21
4.88799
  0
LINE
  8
0
 10
-44.3075
 20
4.88799
 11
-44
 21
0
  0
LINE
  8
0
 10
-44
 20
0
 11
-44.3075
 21
-4.88799
  0
LINE
  8
0
 10
-44.3075
 20
-4.88799
 11
-45.2253
 21
-9.6989
  0
LINE
  8
0
 10
-45.2253
 20
-9.6989
 11
-46.7387
 21
-14.3569
  0
LINE
  8
0
 10
-46.7387
 20
-14.3569
 11
-48.824
 21
-18.7884
  0
LINE
  8
0
 10
-48.824
 20
-18.7884
 11
-51.4483
 21
-22.9236
  0
LINE
  8
0
 10
-51.4483
 20
-22.9236
 11
-54.5702
 21
-26.6973
  0
LINE
  8
0
 10
-54.5702
 20
-26.6973
 11
-58.1405
 21
-30.05
  0
LINE
  8
0
 10
-58.1405
 20
-30.05
 11
-62.1028
 21
-32.9288
  0
LINE
  8
0
 10
-62.1028
 20
-32.9288
 11
-66.3946
 21
-35.2883
  0
LINE
  8
0
 10
-66.3946
 20
-35.2883
 11
-70.9483
 21
-37.0912
  0
LINE
  8
0
 10
-70.9483
 20
-37.0912
 11
-75.6921
 21
-38.3092
  0
LINE
  8
0
 10
-75.6921
 20
-38.3092
 11
-80.5512
 21
-38.923
  0
LINE
  8
0
 10
-80.5512
 20
-38.923
 11
-85.4488
 21
-38.923
  0
LINE
  8
0
 10
80.5512
 20
-38.923
 11
75.6921
 21
-38.3092
  0
LINE
  8
0
 10
75.6921
 20
-38.3092
 11
70.9483
 21
-37.0912
  0
LINE
  8
0
 10
70.9483
 20
-37.0912
 11
66.3946
 21
-35.2883
  0
LINE
  8
0
 10
66.3946
 20
-35.2883
 11
62.1028
 21
-32.9288
  0
LINE
  8
0
 10
62.1028
 20
-32.9288
 11
58.1405
 21
-30.05
  0
LINE
  8
0
 10
58.1405
 20
-30.05
 11
54.5702
 21
-26.6973
  0
LINE
  8
0
 10
54.5702
 20
-26.6973
 11
51.4483
 21
-22.9236
  0
LINE
  8
0
 10
51.4483
 20
-22.9236
 11
48.824
 21
-18.7884
  0
LINE
  8
0
 10
48.824
 20
-18.7884
 11
46.7387
 21
-14.3569
  0
LINE
  8
0
 10
46.7387
 20
-14.3569
 11
45.2253
 21
-9.6989
  0
LINE
  8
0
 10
45.2253
 20
-9.6989
 11
44.3075
 21
-4.88799
  0
LINE
  8
0
 10
44.3075
 20
-4.88799
 11
44
 21
0
  0
LINE
  8
0
 10
44
 20
0
 11
44.3075
 21
4.88799
  0
LINE
  8
0
 10
44.3075
 20
4.88799
 11
45.2253
 21
9.6989
  0
LINE
  8
0
 10
45.2253
 20
9.6989
 11
46.7387
 21
14.3569
  0
LINE
  8
0
 10
46.7387
 20
14.3569
 11
48.824
 21
18.7884
  0
LINE
  8
0
 10
48.824
 20
18.7884
 11
51.4483
 21
22.9236
  0
LINE
  8
0
 10
51.4483
 20
22.9236
 11
54.5702
 21
26.6973
  0
LINE
  8
0
 10
54.5702
 20
26.6973
 11
58.1405
 21
30.05
  0
LINE
  8
0
 10
58.1405
 20
30.05
 11
62.1028
 21
32.9288
  0
LINE
  8
0
 10
62.1028
 20
32.9288
 11
66.3946
 21
35.2883
  0
LINE
  8
0
 10
66.3946
 20
35.2883
 11
70.9483
 21
37.0912
  0
LINE
  8
0
 10
70.9483
 20
37.0912
 11
75.6921
 21
38.3092
  0
LINE
  8
0
 10
75.6921
 20
38.3092
 11
80.5512
 21
38.923
  0
LINE
  8
0
 10
80.5512
 20
38.923
 11
85.4488
 21
38.923
  0
LINE
  8
0
 10
85.4488
 20
38.923
 11
90.3079
 21
38.3092
  0
LINE
  8
0
 10
90.3079
 20
38.3092
 11
95.0517
 21
37.0912
  0
LINE
  8
0
 10
95.0517
 20
37.0912
 11
99.6054
 21
35.2883
  0
LINE
  8
0
 10
99.6054
 20
35.2883
 11
103.897
 21
32.9288
  0
LINE
  8
0
 10
103.897
 20
32.9288
 11
107.86
 21
30.05
  0
LINE
  8
0
 10
107.86
 20
30.05
 11
111.43
 21
26.6973
  0
LINE
  8
0
 10
111.43
 20
26.6973
 11
114.552
 21
22.9236
  0
LINE
  8
0
 10
114.552
 20
22.9236
 11
117.176
 21
18.7884
  0
LINE
  8
0
 10
117.176
 20
18.7884
 11
119.261
 21
14.3569
  0
LINE
  8
0
 10
119.261
 20
14.3569
 11
120.775
 21
9.6989
  0
LINE
  8
0
 10
120.775
 20
9.6989
 11
121.692
 21
4.88799
  0
LINE
  8
0
 10
121.692
 20
4.88799
 11
122
 21
0
  0
LINE
  8
0
 10
122
 20
0
 11
121.692
 21
-4.88799
  0
LINE
  8
0
 10
121.692
 20
-4.88799
 11
120.775
 21
-9.6989
  0
LINE
  8
0
 10
120.775
 20
-9.6989
 11
119.261
 21
-14.3569
  0
LINE
  8
0
 10
119.261
 20
-14.3569
 11
117.176
 21
-18.7884
  0
LINE
  8
0
 10
117.176
 20
-18.7884
 11
114.552
 21
-22.9236
  0
LINE
  8
0
 10
114.552
 20
-22.9236
 11
111.43
 21
-26.6973
  0
LINE
  8
0
 10
111.43
 20
-26.6973
 11
107.86
 21
-30.05
  0
LINE
  8
0
 10
107.86
 20
-30.05
 11
103.897
 21
-32.9288
  0
LINE
  8
0
 10
103.897
 20
-32.9288
 11
99.6054
 21
-35.2883
  0
LINE
  8
0
 10
99.6054
 20
-35.2883
 11
95.0517
 21
-37.0912
  0
LINE
  8
0
 10
95.0517
 20
-37.0912
 11
90.3079
 21
-38.3092
  0
LINE
  8
0
 10
90.3079
 20
-38.3092
 11
85.4488
 21
-38.923
  0
LINE
  8
0
 10
85.4488
 20
-38.923
 11
80.5512
 21
-38.923
  0
LINE
  8
0
 10
163.551
 20
-38.923
 11
158.692
 21
-38.3092
  0
LINE
  8
0
 10
158.692
 20
-38.3092
 11
153.948
 21
-37.0912
  0
LINE
  8
0
 10
153.948
 20
-37.0912
 11
149.395
 21
-35.2883
  0
LINE
  8
0
 10
149.395
 20
-35.2883
 11
145.103
 21
-32.9288
  0
LINE
  8
0
 10
145.103
 20
-32.9288
 11
141.14
 21
-30.05
  0
LINE
  8
0
 10
141.14
 20
-30.05
 11
137.57
 21
-26.6973
  0
LINE
  8
0
 10
137.57
 20
-26.6973
 11
134.448
 21
-22.9236
  0
LINE
  8
0
 10
134.448
 20
-22.9236
 11
131.824
 21
-18.7884
  0
LINE
  8
0
 10
131.824
 20
-18.7884
 11
129.739
 21
-14.3569
  0
LINE
  8
0
 10
129.739
 20
-14.3569
 11
128.225
 21
-9.6989
  0
LINE
  8
0
 10
128.225
 20
-9.6989
 11
127.308
 21
-4.88799
  0
LINE
  8
0
 10
127.308
 20
-4.88799
 11
127
 21
0
  0
LINE
  8
0
 10
127
 20
0
 11
127.308
 21
4.88799
  0
LINE
  8
0
 10
127.308
 20
4.88799
 11
128.225
 21
9.6989
  0
LINE
  8
0
 10
128.225
 20
9.6989
 11
129.739
 21
14.3569
  0
LINE
  8
0
 10
129.739
 20
14.3569
 11
131.824
 21
18.7884
  0
LINE
  8
0
 10
131.824
 20
18.7884
 11
134.448
 21
22.9236
  0
LINE
  8
0
 10
134.448
 20
22.9236
 11
137.57
 21
26.6973
  0
LINE
  8
0
 10
137.57
 20
26.6973
 11
141.14
 21
30.05
  0
LINE
  8
0
 10
141.14
 20
30.05
 11
145.103
 21
32.9288
  0
LINE
  8
0
 10
145.103
 20
32.9288
 11
149.395
 21
35.2883
  0
LINE
  8
0
 10
149.395
 20
35.2883
 11
153.948
 21
37.0912
  0
LINE
  8
0
 10
153.948
 20
37.0912
 11
158.692
 21
38.3092
  0
LINE
  8
0
 10
158.692
 20
38.3092
 11
163.551
 21
38.923
  0
LINE
  8
0
 10
163.551
 20
38.923
 11
168.449
 21
38.923
  0
LINE
  8
0
 10
168.449
 20
38.923
 11
173.308
 21
38.3092
  0
LINE
  8
0
 10
173.308
 20
38.3092
 11
178.052
 21
37.0912
  0
LINE
  8
0
 10
178.052
 20
37.0912
 11
182.605
 21
35.2883
  0
LINE
  8
0
 10
182.605
 20
35.2883
 11
186.897
 21
32.9288
  0
LINE
  8
0
 10
186.897
 20
32.9288
 11
190.86
 21
30.05
  0
LINE
  8
0
 10
190.86
 20
30.05
 11
194.43
 21
26.6973
  0
LINE
  8
0
 10
194.43
 20
26.6973
 11
197.552
 21
22.9236
  0
LINE
  8
0
 10
197.552
 20
22.9236
 11
200.176
 21
18.7884
  0
LINE
  8
0
 10
200.176
 20
18.7884
 11
202.261
 21
14.3569
  0
LINE
  8
0
 10
202.261
 20
14.3569
 11
203.775
 21
9.6989
  0
LINE
  8
0
 10
203.775
 20
9.6989
 11
204.692
 21
4.88799
  0
LINE
  8
0
 10
204.692
 20
4.88799
 11
205
 21
0
  0
LINE
  8
0
 10
205
 20
0
 11
204.692
 21
-4.88799
  0
LINE
  8
0
 10
204.692
 20
-4.88799
 11
203.775
 21
-9.6989
  0
LINE
  8
0
 10
203.775
 20
-9.6989
 11
202.261
 21
-14.3569
  0
LINE
  8
0
 10
202.261
 20
-14.3569
 11
200.176
 21
-18.7884
  0
LINE
  8
0
 10
200.176
 20
-18.7884
 11
197.552
 21
-22.9236
  0
LINE
  8
0
 10
197.552
 20
-22.9236
 11
194.43
 21
-26.6973
  0
LINE
  8
0
 10
194.43
 20
-26.6973
 11
190.86
 21
-30.05
  0
LINE
  8
0
 10
190.86
 20
-30.05
 11
186.897
 21
-32.9288
  0
LINE
  8
0
 10
186.897
 20
-32.9288
 11
182.605
 21
-35.2883
  0
LINE
  8
0
 10
182.605
 20
-35.2883
 11
178.052
 21
-37.0912
  0
LINE
  8
0
 10
178.052
 20
-37.0912
 11
173.308
 21
-38.3092
  0
LINE
  8
0
 10
173.308
 20
-38.3092
 11
168.449
 21
-38.923
  0
LINE
  8
0
 10
168.449
 20
-38.923
 11
163.551
 21
-38.923
  0
LINE
  8
0
 10
209.906
 20
28.503
 11
209.719
 21
28.5266
  0
LINE
  8
0
 10
209.719
 20
28.5266
 11
209.536
 21
28.5734
  0
LINE
  8
0
 10
209.536
 20
28.5734
 11
209.361
 21
28.6427
  0
LINE
  8
0
 10
209.361
 20
28.6427
 11
209.196
 21
28.7335
  0
LINE
  8
0
 10
209.196
 20
28.7335
 11
209.044
 21
28.8442
  0
LINE
  8
0
 10
209.044
 20
28.8442
 11
208.907
 21
28.9732
  0
LINE
  8
0
 10
208.907
 20
28.9732
 11
208.786
 21
29.1183
  0
LINE
  8
0
 10
208.786
 20
29.1183
 11
208.686
 21
29.2774
  0
LINE
  8
0
 10
208.686
 20
29.2774
 11
208.605
 21
29.4478
  0
LINE
  8
0
 10
208.605
 20
29.4478
 11
208.547
 21
29.627
  0
LINE
  8
0
 10
208.547
 20
29.627
 11
208.512
 21
29.812
  0
LINE
  8
0
 10
208.512
 20
29.812
 11
208.5
 21
30
  0
LINE
  8
0
 10
208.5
 20
30
 11
208.512
 21
30.188
  0
LINE
  8
0
 10
208.512
 20
30.188
 11
208.547
 21
30.373
  0
LINE
  8
0
 10
208.547
 20
30.373
 11
208.605
 21
30.5522
  0
LINE
  8
0
 10
208.605
 20
30.5522
 11
208.686
 21
30.7226
  0
LINE
  8
0
 10
208.686
 20
30.7226
 11
208.786
 21
30.8817
  0
LINE
  8
0
 10
208.786
 20
30.8817
 11
208.907
 21
31.0268
  0
LINE
  8
0
 10
208.907
 20
31.0268
 11
209.044
 21
31.1558
  0
LINE
  8
0
 10
209.044
 20
31.1558
 11
209.196
 21
31.2665
  0
LINE
  8
0
 10
209.196
 20
31.2665
 11
209.361
 21
31.3572
  0
LINE
  8
0
 10
209.361
 20
31.3572
 11
209.536
 21
31.4266
  0
LINE
  8
0
 10
209.536
 20
31.4266
 11
209.719
 21
31.4734
  0
LINE
  8
0
 10
209.719
 20
31.4734
 11
209.906
 21
31.497
  0
LINE
  8
0
 10
209.906
 20
31.497
 11
210.094
 21
31.497
  0
LINE
  8
0
 10
210.094
 20
31.497
 11
210.281
 21
31.4734
  0
LINE
  8
0
 10
210.281
 20
31.4734
 11
210.464
 21
31.4266
  0
LINE
  8
0
 10
210.464
 20
31.4266
 11
210.639
 21
31.3572
  0
LINE
  8
0
 10
210.639
 20
31.3572
 11
210.804
 21
31.2665
  0
LINE
  8
0
 10
210.804
 20
31.2665
 11
210.956
 21
31.1558
  0
LINE
  8
0
 10
210.956
 20
31.1558
 11
211.093
 21
31.0268
  0
LINE
  8
0
 10
211.093
 20
31.0268
 11
211.214
 21
30.8817
  0
LINE
  8
0
 10
211.214
 20
30.8817
 11
211.314
 21
30.7226
  0
LINE
  8
0
 10
211.314
 20
30.7226
 11
211.395
 21
30.5522
  0
LINE
  8
0
 10
211.395
 20
30.5522
 11
211.453
 21
30.373
  0
LINE
  8
0
 10
211.453
 20
30.373
 11
211.488
 21
30.188
  0
LINE
  8
0
 10
211.488
 20
30.188
 11
211.5
 21
30
  0
LINE
  8
0
 10
211.5
 20
30
 11
211.488
 21
29.812
  0
LINE
  8
0
 10
211.488
 20
29.812
 11
211.453
 21
29.627
  0
LINE
  8
0
 10
211.453
 20
29.627
 11
211.395
 21
29.4478
  0
LINE
  8
0
 10
211.395
 20
29.4478
 11
211.314
 21
29.2774
  0
LINE
  8
0
 10
211.314
 20
29.2774
 11
211.214
 21
29.1183
  0
LINE
  8
0
 10
211.214
 20
29.1183
 11
211.093
 21
28.9732
  0
LINE
  8
0
 10
211.093
 20
28.9732
 11
210.956
 21
28.8442
  0
LINE
  8
0
 10
210.956
 20
28.8442
 11
210.804
 21
28.7335
  0
LINE
  8
0
 10
210.804
 20
28.7335
 11
210.639
 21
28.6427
  0
LINE
  8
0
 10
210.639
 20
28.6427
 11
210.464
 21
28.5734
  0
LINE
  8
0
 10
210.464
 20
28.5734
 11
210.281
 21
28.5266
  0
LINE
  8
0
 10
210.281
 20
28.5266
 11
210.094
 21
28.503
  0
LINE
  8
0
 10
210.094
 20
28.503
 11
209.906
 21
28.503
  0
LINE
  8
0
 10
-210.094
 20
28.503
 11
-210.281
 21
28.5266
  0
LINE
  8
0
 10
-210.281
 20
28.5266
 11
-210.464
 21
28.5734
  0
LINE
  8
0
 10
-210.464
 20
28.5734
 11
-210.639
 21
28.6427
  0
LINE
  8
0
 10
-210.639
 20
28.6427
 11
-210.804
 21
28.7335
  0
LINE
  8
0
 10
-210.804
 20
28.7335
 11
-210.956
 21
28.8442
  0
LINE
  8
0
 10
-210.956
 20
28.8442
 11
-211.093
 21
28.9732
  0
LINE
  8
0
 10
-211.093
 20
28.9732
 11
-211.214
 21
29.1183
  0
LINE
  8
0
 10
-211.214
 20
29.1183
 11
-211.314
 21
29.2774
  0
LINE
  8
0
 10
-211.314
 20
29.2774
 11
-211.395
 21
29.4478
  0
LINE
  8
0
 10
-211.395
 20
29.4478
 11
-211.453
 21
29.627
  0
LINE
  8
0
 10
-211.453
 20
29.627
 11
-211.488
 21
29.812
  0
LINE
  8
0
 10
-211.488
 20
29.812
 11
-211.5
 21
30
  0
LINE
  8
0
 10
-211.5
 20
30
 11
-211.488
 21
30.188
  0
LINE
  8
0
 10
-211.488
 20
30.188
 11
-211.453
 21
30.373
  0
LINE
  8
0
 10
-211.453
 20
30.373
 11
-211.395
 21
30.5522
  0
LINE
  8
0
 10
-211.395
 20
30.5522
 11
-211.314
 21
30.7226
  0
LINE
  8
0
 10
-211.314
 20
30.7226
 11
-211.214
 21
30.8817
  0
LINE
  8
0
 10
-211.214
 20
30.8817
 11
-211.093
 21
31.0268
  0
LINE
  8
0
 10
-211.093
 20
31.0268
 11
-210.956
 21
31.1558
  0
LINE
  8
0
 10
-210.956
 20
31.1558
 11
-210.804
 21
31.2665
  0
LINE
  8
0
 10
-210.804
 20
31.2665
 11
-210.639
 21
31.3572
  0
LINE
  8
0
 10
-210.639
 20
31.3572
 11
-210.464
 21
31.4266
  0
LINE
  8
0
 10
-210.464
 20
31.4266
 11
-210.281
 21
31.4734
  0
LINE
  8
0
 10
-210.281
 20
31.4734
 11
-210.094
 21
31.497
  0
LINE
  8
0
 10
-210.094
 20
31.497
 11
-209.906
 21
31.497
  0
LINE
  8
0
 10
-209.906
 20
31.497
 11
-209.719
 21
31.4734
  0
LINE
  8
0
 10
-209.719
 20
31.4734
 11
-209.536
 21
31.4266
  0
LINE
  8
0
 10
-209.536
 20
31.4266
 11
-209.361
 21
31.3572
  0
LINE
  8
0
 10
-209.361
 20
31.3572
 11
-209.196
 21
31.2665
  0
LINE
  8
0
 10
-209.196
 20
31.2665
 11
-209.044
 21
31.1558
  0
LINE
  8
0
 10
-209.044
 20
31.1558
 11
-208.907
 21
31.0268
  0
LINE
  8
0
 10
-208.907
 20
31.0268
 11
-208.786
 21
30.8817
  0
LINE
  8
0
 10
-208.786
 20
30.8817
 11
-208.686
 21
30.7226
  0
LINE
  8
0
 10
-208.686
 20
30.7226
 11
-208.605
 21
30.5522
  0
LINE
  8
0
 10
-208.605
 20
30.5522
 11
-208.547
 21
30.373
  0
LINE
  8
0
 10
-208.547
 20
30.373
 11
-208.512
 21
30.188
  0
LINE
  8
0
 10
-208.512
 20
30.188
 11
-208.5
 21
30
  0
LINE
  8
0
 10
-208.5
 20
30
 11
-208.512
 21
29.812
  0
LINE
  8
0
 10
-208.512
 20
29.812
 11
-208.547
 21
29.627
  0
LINE
  8
0
 10
-208.547
 20
29.627
 11
-208.605
 21
29.4478
  0
LINE
  8
0
 10
-208.605
 20
29.4478
 11
-208.686
 21
29.2774
  0
LINE
  8
0
 10
-208.686
 20
29.2774
 11
-208.786
 21
29.1183
  0
LINE
  8
0
 10
-208.786
 20
29.1183
 11
-208.907
 21
28.9732
  0
LINE
  8
0
 10
-208.907
 20
28.9732
 11
-209.044
 21
28.8442
  0
LINE
  8
0
 10
-209.044
 20
28.8442
 11
-209.196
 21
28.7335
  0
LINE
  8
0
 10
-209.196
 20
28.7335
 11
-209.361
 21
28.6427
  0
LINE
  8
0
 10
-209.361
 20
28.6427
 11
-209.536
 21
28.5734
  0
LINE
  8
0
 10
-209.536
 20
28.5734
 11
-209.719
 21
28.5266
  0
LINE
  8
0
 10
-209.719
 20
28.5266
 11
-209.906
 21
28.503
  0
LINE
  8
0
 10
-209.906
 20
28.503
 11
-210.094
 21
28.503
  0
LINE
  8
0
 10
-210.188
 20
19.5059
 11
-210.562
 21
19.5531
  0
LINE
  8
0
 10
-210.562
 20
19.5531
 11
-210.927
 21
19.6468
  0
LINE
  8
0
 10
-210.927
 20
19.6468
 11
-211.277
 21
19.7855
  0
LINE
  8
0
 10
-211.277
 20
19.7855
 11
-211.607
 21
19.967
  0
LINE
  8
0
 10
-211.607
 20
19.967
 11
-211.912
 21
20.1884
  0
LINE
  8
0
 10
-211.912
 20
20.1884
 11
-212.187
 21
20.4464
  0
LINE
  8
0
 10
-212.187
 20
20.4464
 11
-212.427
 21
20.7366
  0
LINE
  8
0
 10
-212.427
 20
20.7366
 11
-212.629
 21
21.0547
  0
LINE
  8
0
 10
-212.629
 20
21.0547
 11
-212.789
 21
21.3956
  0
LINE
  8
0
 10
-212.789
 20
21.3956
 11
-212.906
 21
21.7539
  0
LINE
  8
0
 10
-212.906
 20
21.7539
 11
-212.976
 21
22.124
  0
LINE
  8
0
 10
-212.976
 20
22.124
 11
-213
 21
22.5
  0
LINE
  8
0
 10
-213
 20
22.5
 11
-212.976
 21
22.876
  0
LINE
  8
0
 10
-212.976
 20
22.876
 11
-212.906
 21
23.2461
  0
LINE
  8
0
 10
-212.906
 20
23.2461
 11
-212.789
 21
23.6044
  0
LINE
  8
0
 10
-212.789
 20
23.6044
 11
-212.629
 21
23.9453
  0
LINE
  8
0
 10
-212.629
 20
23.9453
 11
-212.427
 21
24.2634
  0
LINE
  8
0
 10
-212.427
 20
24.2634
 11
-212.187
 21
24.5536
  0
LINE
  8
0
 10
-212.187
 20
24.5536
 11
-211.912
 21
24.8115
  0
LINE
  8
0
 10
-211.912
 20
24.8115
 11
-211.607
 21
25.033
  0
LINE
  8
0
 10
-211.607
 20
25.033
 11
-211.277
 21
25.2145
  0
LINE
  8
0
 10
-211.277
 20
25.2145
 11
-210.927
 21
25.3532
  0
LINE
  8
0
 10
-210.927
 20
25.3532
 11
-210.562
 21
25.4469
  0
LINE
  8
0
 10
-210.562
 20
25.4469
 11
-210.188
 21
25.4941
  0
LINE
  8
0
 10
-210.188
 20
25.4941
 11
-209.812
 21
25.4941
  0
LINE
  8
0
 10
-209.812
 20
25.4941
 11
-209.438
 21
25.4469
  0
LINE
  8
0
 10
-209.438
 20
25.4469
 11
-209.073
 21
25.3532
  0
LINE
  8
0
 10
-209.073
 20
25.3532
 11
-208.723
 21
25.2145
  0
LINE
  8
0
 10
-208.723
 20
25.2145
 11
-208.393
 21
25.033
  0
LINE
  8
0
 10
-208.393
 20
25.033
 11
-208.088
 21
24.8115
  0
LINE
  8
0
 10
-208.088
 20
24.8115
 11
-207.813
 21
24.5536
  0
LINE
  8
0
 10
-207.813
 20
24.5536
 11
-207.573
 21
24.2634
  0
LINE
  8
0
 10
-207.573
 20
24.2634
 11
-207.371
 21
23.9453
  0
LINE
  8
0
 10
-207.371
 20
23.9453
 11
-207.211
 21
23.6044
  0
LINE
  8
0
 10
-207.211
 20
23.6044
 11
-207.094
 21
23.2461
  0
LINE
  8
0
 10
-207.094
 20
23.2461
 11
-207.024
 21
22.876
  0
LINE
  8
0
 10
-207.024
 20
22.876
 11
-207
 21
22.5
  0
LINE
  8
0
 10
-207
 20
22.5
 11
-207.024
 21
22.124
  0
LINE
  8
0
 10
-207.024
 20
22.124
 11
-207.094
 21
21.7539
  0
LINE
  8
0
 10
-207.094
 20
21.7539
 11
-207.211
 21
21.3956
  0
LINE
  8
0
 10
-207.211
 20
21.3956
 11
-207.371
 21
21.0547
  0
LINE
  8
0
 10
-207.371
 20
21.0547
 11
-207.573
 21
20.7366
  0
LINE
  8
0
 10
-207.573
 20
20.7366
 11
-207.813
 21
20.4464
  0
LINE
  8
0
 10
-207.813
 20
20.4464
 11
-208.088
 21
20.1884
  0
LINE
  8
0
 10
-208.088
 20
20.1884
 11
-208.393
 21
19.967
  0
LINE
  8
0
 10
-208.393
 20
19.967
 11
-208.723
 21
19.7855
  0
LINE
  8
0
 10
-208.723
 20
19.7855
 11
-209.073
 21
19.6468
  0
LINE
  8
0
 10
-209.073
 20
19.6468
 11
-209.438
 21
19.5531
  0
LINE
  8
0
 10
-209.438
 20
19.5531
 11
-209.812
 21
19.5059
  0
LINE
  8
0
 10
-209.812
 20
19.5059
 11
-210.188
 21
19.5059
  0
LINE
  8
0
 10
209.812
 20
19.5059
 11
209.438
 21
19.5531
  0
LINE
  8
0
 10
209.438
 20
19.5531
 11
209.073
 21
19.6468
  0
LINE
  8
0
 10
209.073
 20
19.6468
 11
208.723
 21
19.7855
  0
LINE
  8
0
 10
208.723
 20
19.7855
 11
208.393
 21
19.967
  0
LINE
  8
0
 10
208.393
 20
19.967
 11
208.088
 21
20.1884
  0
LINE
  8
0
 10
208.088
 20
20.1884
 11
207.813
 21
20.4464
  0
LINE
  8
0
 10
207.813
 20
20.4464
 11
207.573
 21
20.7366
  0
LINE
  8
0
 10
207.573
 20
20.7366
 11
207.371
 21
21.0547
  0
LINE
  8
0
 10
207.371
 20
21.0547
 11
207.211
 21
21.3956
  0
LINE
  8
0
 10
207.211
 20
21.3956
 11
207.094
 21
21.7539
  0
LINE
  8
0
 10
207.094
 20
21.7539
 11
207.024
 21
22.124
  0
LINE
  8
0
 10
207.024
 20
22.124
 11
207
 21
22.5
  0
LINE
  8
0
 10
207
 20
22.5
 11
207.024
 21
22.876
  0
LINE
  8
0
 10
207.024
 20
22.876
 11
207.094
 21
23.2461
  0
LINE
  8
0
 10
207.094
 20
23.2461
 11
207.211
 21
23.6044
  0
LINE
  8
0
 10
207.211
 20
23.6044
 11
207.371
 21
23.9453
  0
LINE
  8
0
 10
207.371
 20
23.9453
 11
207.573
 21
24.2634
  0
LINE
  8
0
 10
207.573
 20
24.2634
 11
207.813
 21
24.5536
  0
LINE
  8
0
 10
207.813
 20
24.5536
 11
208.088
 21
24.8115
  0
LINE
  8
0
 10
208.088
 20
24.8115
 11
208.393
 21
25.033
  0
LINE
  8
0
 10
208.393
 20
25.033
 11
208.723
 21
25.2145
  0
LINE
  8
0
 10
208.723
 20
25.2145
 11
209.073
 21
25.3532
  0
LINE
  8
0
 10
209.073
 20
25.3532
 11
209.438
 21
25.4469
  0
LINE
  8
0
 10
209.438
 20
25.4469
 11
209.812
 21
25.4941
  0
LINE
  8
0
 10
209.812
 20
25.4941
 11
210.188
 21
25.4941
  0
LINE
  8
0
 10
210.188
 20
25.4941
 11
210.562
 21
25.4469
  0
LINE
  8
0
 10
210.562
 20
25.4469
 11
210.927
 21
25.3532
  0
LINE
  8
0
 10
210.927
 20
25.3532
 11
211.277
 21
25.2145
  0
LINE
  8
0
 10
211.277
 20
25.2145
 11
211.607
 21
25.033
  0
LINE
  8
0
 10
211.607
 20
25.033
 11
211.912
 21
24.8115
  0
LINE
  8
0
 10
211.912
 20
24.8115
 11
212.187
 21
24.5536
  0
LINE
  8
0
 10
212.187
 20
24.5536
 11
212.427
 21
24.2634
  0
LINE
  8
0
 10
212.427
 20
24.2634
 11
212.629
 21
23.9453
  0
LINE
  8
0
 10
212.629
 20
23.9453
 11
212.789
 21
23.6044
  0
LINE
  8
0
 10
212.789
 20
23.6044
 11
212.906
 21
23.2461
  0
LINE
  8
0
 10
212.906
 20
23.2461
 11
212.976
 21
22.876
  0
LINE
  8
0
 10
212.976
 20
22.876
 11
213
 21
22.5
  0
LINE
  8
0
 10
213
 20
22.5
 11
212.976
 21
22.124
  0
LINE
  8
0
 10
212.976
 20
22.124
 11
212.906
 21
21.7539
  0
LINE
  8
0
 10
212.906
 20
21.7539
 11
212.789
 21
21.3956
  0
LINE
  8
0
 10
212.789
 20
21.3956
 11
212.629
 21
21.0547
  0
LINE
  8
0
 10
212.629
 20
21.0547
 11
212.427
 21
20.7366
  0
LINE
  8
0
 10
212.427
 20
20.7366
 11
212.187
 21
20.4464
  0
LINE
  8
0
 10
212.187
 20
20.4464
 11
211.912
 21
20.1884
  0
LINE
  8
0
 10
211.912
 20
20.1884
 11
211.607
 21
19.967
  0
LINE
  8
0
 10
211.607
 20
19.967
 11
211.277
 21
19.7855
  0
LINE
  8
0
 10
211.277
 20
19.7855
 11
210.927
 21
19.6468
  0
LINE
  8
0
 10
210.927
 20
19.6468
 11
210.562
 21
19.5531
  0
LINE
  8
0
 10
210.562
 20
19.5531
 11
210.188
 21
19.5059
  0
LINE
  8
0
 10
210.188
 20
19.5059
 11
209.812
 21
19.5059
  0
LINE
  8
0
 10
209.906
 20
13.5029
 11
209.719
 21
13.5266
  0
LINE
  8
0
 10
209.719
 20
13.5266
 11
209.536
 21
13.5734
  0
LINE
  8
0
 10
209.536
 20
13.5734
 11
209.361
 21
13.6427
  0
LINE
  8
0
 10
209.361
 20
13.6427
 11
209.196
 21
13.7335
  0
LINE
  8
0
 10
209.196
 20
13.7335
 11
209.044
 21
13.8442
  0
LINE
  8
0
 10
209.044
 20
13.8442
 11
208.907
 21
13.9732
  0
LINE
  8
0
 10
208.907
 20
13.9732
 11
208.786
 21
14.1183
  0
LINE
  8
0
 10
208.786
 20
14.1183
 11
208.686
 21
14.2774
  0
LINE
  8
0
 10
208.686
 20
14.2774
 11
208.605
 21
14.4478
  0
LINE
  8
0
 10
208.605
 20
14.4478
 11
208.547
 21
14.627
  0
LINE
  8
0
 10
208.547
 20
14.627
 11
208.512
 21
14.812
  0
LINE
  8
0
 10
208.512
 20
14.812
 11
208.5
 21
15
  0
LINE
  8
0
 10
208.5
 20
15
 11
208.512
 21
15.188
  0
LINE
  8
0
 10
208.512
 20
15.188
 11
208.547
 21
15.373
  0
LINE
  8
0
 10
208.547
 20
15.373
 11
208.605
 21
15.5522
  0
LINE
  8
0
 10
208.605
 20
15.5522
 11
208.686
 21
15.7226
  0
LINE
  8
0
 10
208.686
 20
15.7226
 11
208.786
 21
15.8817
  0
LINE
  8
0
 10
208.786
 20
15.8817
 11
208.907
 21
16.0268
  0
LINE
  8
0
 10
208.907
 20
16.0268
 11
209.044
 21
16.1558
  0
LINE
  8
0
 10
209.044
 20
16.1558
 11
209.196
 21
16.2665
  0
LINE
  8
0
 10
209.196
 20
16.2665
 11
209.361
 21
16.3572
  0
LINE
  8
0
 10
209.361
 20
16.3572
 11
209.536
 21
16.4266
  0
LINE
  8
0
 10
209.536
 20
16.4266
 11
209.719
 21
16.4734
  0
LINE
  8
0
 10
209.719
 20
16.4734
 11
209.906
 21
16.497
  0
LINE
  8
0
 10
209.906
 20
16.497
 11
210.094
 21
16.497
  0
LINE
  8
0
 10
210.094
 20
16.497
 11
210.281
 21
16.4734
  0
LINE
  8
0
 10
210.281
 20
16.4734
 11
210.464
 21
16.4266
  0
LINE
  8
0
 10
210.464
 20
16.4266
 11
210.639
 21
16.3572
  0
LINE
  8
0
 10
210.639
 20
16.3572
 11
210.804
 21
16.2665
  0
LINE
  8
0
 10
210.804
 20
16.2665
 11
210.956
 21
16.1558
  0
LINE
  8
0
 10
210.956
 20
16.1558
 11
211.093
 21
16.0268
  0
LINE
  8
0
 10
211.093
 20
16.0268
 11
211.214
 21
15.8817
  0
LINE
  8
0
 10
211.214
 20
15.8817
 11
211.314
 21
15.7226
  0
LINE
  8
0
 10
211.314
 20
15.7226
 11
211.395
 21
15.5522
  0
LINE
  8
0
 10
211.395
 20
15.5522
 11
211.453
 21
15.373
  0
LINE
  8
0
 10
211.453
 20
15.373
 11
211.488
 21
15.188
  0
LINE
  8
0
 10
211.488
 20
15.188
 11
211.5
 21
15
  0
LINE
  8
0
 10
211.5
 20
15
 11
211.488
 21
14.812
  0
LINE
  8
0
 10
211.488
 20
14.812
 11
211.453
 21
14.627
  0
LINE
  8
0
 10
211.453
 20
14.627
 11
211.395
 21
14.4478
  0
LINE
  8
0
 10
211.395
 20
14.4478
 11
211.314
 21
14.2774
  0
LINE
  8
0
 10
211.314
 20
14.2774
 11
211.214
 21
14.1183
  0
LINE
  8
0
 10
211.214
 20
14.1183
 11
211.093
 21
13.9732
  0
LINE
  8
0
 10
211.093
 20
13.9732
 11
210.956
 21
13.8442
  0
LINE
  8
0
 10
210.956
 20
13.8442
 11
210.804
 21
13.7335
  0
LINE
  8
0
 10
210.804
 20
13.7335
 11
210.639
 21
13.6427
  0
LINE
  8
0
 10
210.639
 20
13.6427
 11
210.464
 21
13.5734
  0
LINE
  8
0
 10
210.464
 20
13.5734
 11
210.281
 21
13.5266
  0
LINE
  8
0
 10
210.281
 20
13.5266
 11
210.094
 21
13.5029
  0
LINE
  8
0
 10
210.094
 20
13.5029
 11
209.906
 21
13.5029
  0
LINE
  8
0
 10
-210.094
 20
13.5029
 11
-210.281
 21
13.5266
  0
LINE
  8
0
 10
-210.281
 20
13.5266
 11
-210.464
 21
13.5734
  0
LINE
  8
0
 10
-210.464
 20
13.5734
 11
-210.639
 21
13.6427
  0
LINE
  8
0
 10
-210.639
 20
13.6427
 11
-210.804
 21
13.7335
  0
LINE
  8
0
 10
-210.804
 20
13.7335
 11
-210.956
 21
13.8442
  0
LINE
  8
0
 10
-210.956
 20
13.8442
 11
-211.093
 21
13.9732
  0
LINE
  8
0
 10
-211.093
 20
13.9732
 11
-211.214
 21
14.1183
  0
LINE
  8
0
 10
-211.214
 20
14.1183
 11
-211.314
 21
14.2774
  0
LINE
  8
0
 10
-211.314
 20
14.2774
 11
-211.395
 21
14.4478
  0
LINE
  8
0
 10
-211.395
 20
14.4478
 11
-211.453
 21
14.627
  0
LINE
  8
0
 10
-211.453
 20
14.627
 11
-211.488
 21
14.812
  0
LINE
  8
0
 10
-211.488
 20
14.812
 11
-211.5
 21
15
  0
LINE
  8
0
 10
-211.5
 20
15
 11
-211.488
 21
15.188
  0
LINE
  8
0
 10
-211.488
 20
15.188
 11
-211.453
 21
15.373
  0
LINE
  8
0
 10
-211.453
 20
15.373
 11
-211.395
 21
15.5522
  0
LINE
  8
0
 10
-211.395
 20
15.5522
 11
-211.314
 21
15.7226
  0
LINE
  8
0
 10
-211.314
 20
15.7226
 11
-211.214
 21
15.8817
  0
LINE
  8
0
 10
-211.214
 20
15.8817
 11
-211.093
 21
16.0268
  0
LINE
  8
0
 10
-211.093
 20
16.0268
 11
-210.956
 21
16.1558
  0
LINE
  8
0
 10
-210.956
 20
16.1558
 11
-210.804
 21
16.2665
  0
LINE
  8
0
 10
-210.804
 20
16.2665
 11
-210.639
 21
16.3572
  0
LINE
  8
0
 10
-210.639
 20
16.3572
 11
-210.464
 21
16.4266
  0
LINE
  8
0
 10
-210.464
 20
16.4266
 11
-210.281
 21
16.4734
  0
LINE
  8
0
 10
-210.281
 20
16.4734
 11
-210.094
 21
16.497
  0
LINE
  8
0
 10
-210.094
 20
16.497
 11
-209.906
 21
16.497
  0
LINE
  8
0
 10
-209.906
 20
16.497
 11
-209.719
 21
16.4734
  0
LINE
  8
0
 10
-209.719
 20
16.4734
 11
-209.536
 21
16.4266
  0
LINE
  8
0
 10
-209.536
 20
16.4266
 11
-209.361
 21
16.3572
  0
LINE
  8
0
 10
-209.361
 20
16.3572
 11
-209.196
 21
16.2665
  0
LINE
  8
0
 10
-209.196
 20
16.2665
 11
-209.044
 21
16.1558
  0
LINE
  8
0
 10
-209.044
 20
16.1558
 11
-208.907
 21
16.0268
  0
LINE
  8
0
 10
-208.907
 20
16.0268
 11
-208.786
 21
15.8817
  0
LINE
  8
0
 10
-208.786
 20
15.8817
 11
-208.686
 21
15.7226
  0
LINE
  8
0
 10
-208.686
 20
15.7226
 11
-208.605
 21
15.5522
  0
LINE
  8
0
 10
-208.605
 20
15.5522
 11
-208.547
 21
15.373
  0
LINE
  8
0
 10
-208.547
 20
15.373
 11
-208.512
 21
15.188
  0
LINE
  8
0
 10
-208.512
 20
15.188
 11
-208.5
 21
15
  0
LINE
  8
0
 10
-208.5
 20
15
 11
-208.512
 21
14.812
  0
LINE
  8
0
 10
-208.512
 20
14.812
 11
-208.547
 21
14.627
  0
LINE
  8
0
 10
-208.547
 20
14.627
 11
-208.605
 21
14.4478
  0
LINE
  8
0
 10
-208.605
 20
14.4478
 11
-208.686
 21
14.2774
  0
LINE
  8
0
 10
-208.686
 20
14.2774
 11
-208.786
 21
14.1183
  0
LINE
  8
0
 10
-208.786
 20
14.1183
 11
-208.907
 21
13.9732
  0
LINE
  8
0
 10
-208.907
 20
13.9732
 11
-209.044
 21
13.8442
  0
LINE
  8
0
 10
-209.044
 20
13.8442
 11
-209.196
 21
13.7335
  0
LINE
  8
0
 10
-209.196
 20
13.7335
 11
-209.361
 21
13.6427
  0
LINE
  8
0
 10
-209.361
 20
13.6427
 11
-209.536
 21
13.5734
  0
LINE
  8
0
 10
-209.536
 20
13.5734
 11
-209.719
 21
13.5266
  0
LINE
  8
0
 10
-209.719
 20
13.5266
 11
-209.906
 21
13.5029
  0
LINE
  8
0
 10
-209.906
 20
13.5029
 11
-210.094
 21
13.5029
  0
LINE
  8
0
 10
209.812
 20
4.50591
 11
209.438
 21
4.55313
  0
LINE
  8
0
 10
209.438
 20
4.55313
 11
209.073
 21
4.64682
  0
LINE
  8
0
 10
209.073
 20
4.64682
 11
208.723
 21
4.78551
  0
LINE
  8
0
 10
208.723
 20
4.78551
 11
208.393
 21
4.96701
  0
LINE
  8
0
 10
208.393
 20
4.96701
 11
208.088
 21
5.18845
  0
LINE
  8
0
 10
208.088
 20
5.18845
 11
207.813
 21
5.44635
  0
LINE
  8
0
 10
207.813
 20
5.44635
 11
207.573
 21
5.73663
  0
LINE
  8
0
 10
207.573
 20
5.73663
 11
207.371
 21
6.05473
  0
LINE
  8
0
 10
207.371
 20
6.05473
 11
207.211
 21
6.39561
  0
LINE
  8
0
 10
207.211
 20
6.39561
 11
207.094
 21
6.75392
  0
LINE
  8
0
 10
207.094
 20
6.75392
 11
207.024
 21
7.12399
  0
LINE
  8
0
 10
207.024
 20
7.12399
 11
207
 21
7.5
  0
LINE
  8
0
 10
207
 20
7.5
 11
207.024
 21
7.87599
  0
LINE
  8
0
 10
207.024
 20
7.87599
 11
207.094
 21
8.24606
  0
LINE
  8
0
 10
207.094
 20
8.24606
 11
207.211
 21
8.60437
  0
LINE
  8
0
 10
207.211
 20
8.60437
 11
207.371
 21
8.94525
  0
LINE
  8
0
 10
207.371
 20
8.94525
 11
207.573
 21
9.26335
  0
LINE
  8
0
 10
207.573
 20
9.26335
 11
207.813
 21
9.55363
  0
LINE
  8
0
 10
207.813
 20
9.55363
 11
208.088
 21
9.81154
  0
LINE
  8
0
 10
208.088
 20
9.81154
 11
208.393
 21
10.033
  0
LINE
  8
0
 10
208.393
 20
10.033
 11
208.723
 21
10.2145
  0
LINE
  8
0
 10
208.723
 20
10.2145
 11
209.073
 21
10.3532
  0
LINE
  8
0
 10
209.073
 20
10.3532
 11
209.438
 21
10.4469
  0
LINE
  8
0
 10
209.438
 20
10.4469
 11
209.812
 21
10.4941
  0
LINE
  8
0
 10
209.812
 20
10.4941
 11
210.188
 21
10.4941
  0
LINE
  8
0
 10
210.188
 20
10.4941
 11
210.562
 21
10.4469
  0
LINE
  8
0
 10
210.562
 20
10.4469
 11
210.927
 21
10.3532
  0
LINE
  8
0
 10
210.927
 20
10.3532
 11
211.277
 21
10.2145
  0
LINE
  8
0
 10
211.277
 20
10.2145
 11
211.607
 21
10.033
  0
LINE
  8
0
 10
211.607
 20
10.033
 11
211.912
 21
9.81154
  0
LINE
  8
0
 10
211.912
 20
9.81154
 11
212.187
 21
9.55363
  0
LINE
  8
0
 10
212.187
 20
9.55363
 11
212.427
 21
9.26335
  0
LINE
  8
0
 10
212.427
 20
9.26335
 11
212.629
 21
8.94525
  0
LINE
  8
0
 10
212.629
 20
8.94525
 11
212.789
 21
8.60437
  0
LINE
  8
0
 10
212.789
 20
8.60437
 11
212.906
 21
8.24606
  0
LINE
  8
0
 10
212.906
 20
8.24606
 11
212.976
 21
7.87599
  0
LINE
  8
0
 10
212.976
 20
7.87599
 11
213
 21
7.5
  0
LINE
  8
0
 10
213
 20
7.5
 11
212.976
 21
7.12399
  0
LINE
  8
0
 10
212.976
 20
7.12399
 11
212.906
 21
6.75392
  0
LINE
  8
0
 10
212.906
 20
6.75392
 11
212.789
 21
6.39561
  0
LINE
  8
0
 10
212.789
 20
6.39561
 11
212.629
 21
6.05473
  0
LINE
  8
0
 10
212.629
 20
6.05473
 11
212.427
 21
5.73663
  0
LINE
  8
0
 10
212.427
 20
5.73663
 11
212.187
 21
5.44635
  0
LINE
  8
0
 10
212.187
 20
5.44635
 11
211.912
 21
5.18845
  0
LINE
  8
0
 10
211.912
 20
5.18845
 11
211.607
 21
4.96701
  0
LINE
  8
0
 10
211.607
 20
4.96701
 11
211.277
 21
4.78551
  0
LINE
  8
0
 10
211.277
 20
4.78551
 11
210.927
 21
4.64682
  0
LINE
  8
0
 10
210.927
 20
4.64682
 11
210.562
 21
4.55313
  0
LINE
  8
0
 10
210.562
 20
4.55313
 11
210.188
 21
4.50591
  0
LINE
  8
0
 10
210.188
 20
4.50591
 11
209.812
 21
4.50591
  0
LINE
  8
0
 10
-210.188
 20
4.50591
 11
-210.562
 21
4.55313
  0
LINE
  8
0
 10
-210.562
 20
4.55313
 11
-210.927
 21
4.64682
  0
LINE
  8
0
 10
-210.927
 20
4.64682
 11
-211.277
 21
4.78551
  0
LINE
  8
0
 10
-211.277
 20
4.78551
 11
-211.607
 21
4.96701
  0
LINE
  8
0
 10
-211.607
 20
4.96701
 11
-211.912
 21
5.18845
  0
LINE
  8
0
 10
-211.912
 20
5.18845
 11
-212.187
 21
5.44635
  0
LINE
  8
0
 10
-212.187
 20
5.44635
 11
-212.427
 21
5.73663
  0
LINE
  8
0
 10
-212.427
 20
5.73663
 11
-212.629
 21
6.05473
  0
LINE
  8
0
 10
-212.629
 20
6.05473
 11
-212.789
 21
6.39561
  0
LINE
  8
0
 10
-212.789
 20
6.39561
 11
-212.906
 21
6.75392
  0
LINE
  8
0
 10
-212.906
 20
6.75392
 11
-212.976
 21
7.12399
  0
LINE
  8
0
 10
-212.976
 20
7.12399
 11
-213
 21
7.5
  0
LINE
  8
0
 10
-213
 20
7.5
 11
-212.976
 21
7.87599
  0
LINE
  8
0
 10
-212.976
 20
7.87599
 11
-212.906
 21
8.24606
  0
LINE
  8
0
 10
-212.906
 20
8.24606
 11
-212.789
 21
8.60437
  0
LINE
  8
0
 10
-212.789
 20
8.60437
 11
-212.629
 21
8.94525
  0
LINE
  8
0
 10
-212.629
 20
8.94525
 11
-212.427
 21
9.26335
  0
LINE
  8
0
 10
-212.427
 20
9.26335
 11
-212.187
 21
9.55363
  0
LINE
  8
0
 10
-212.187
 20
9.55363
 11
-211.912
 21
9.81154
  0
LINE
  8
0
 10
-211.912
 20
9.81154
 11
-211.607
 21
10.033
  0
LINE
  8
0
 10
-211.607
 20
10.033
 11
-211.277
 21
10.2145
  0
LINE
  8
0
 10
-211.277
 20
10.2145
 11
-210.927
 21
10.3532
  0
LINE
  8
0
 10
-210.927
 20
10.3532
 11
-210.562
 21
10.4469
  0
LINE
  8
0
 10
-210.562
 20
10.4469
 11
-210.188
 21
10.4941
  0
LINE
  8
0
 10
-210.188
 20
10.4941
 11
-209.812
 21
10.4941
  0
LINE
  8
0
 10
-209.812
 20
10.4941
 11
-209.438
 21
10.4469
  0
LINE
  8
0
 10
-209.438
 20
10.4469
 11
-209.073
 21
10.3532
  0
LINE
  8
0
 10
-209.073
 20
10.3532
 11
-208.723
 21
10.2145
  0
LINE
  8
0
 10
-208.723
 20
10.2145
 11
-208.393
 21
10.033
  0
LINE
  8
0
 10
-208.393
 20
10.033
 11
-208.088
 21
9.81154
  0
LINE
  8
0
 10
-208.088
 20
9.81154
 11
-207.813
 21
9.55363
  0
LINE
  8
0
 10
-207.813
 20
9.55363
 11
-207.573
 21
9.26335
  0
LINE
  8
0
 10
-207.573
 20
9.26335
 11
-207.371
 21
8.94525
  0
LINE
  8
0
 10
-207.371
 20
8.94525
 11
-207.211
 21
8.60437
  0
LINE
  8
0
 10
-207.211
 20
8.60437
 11
-207.094
 21
8.24606
  0
LINE
  8
0
 10
-207.094
 20
8.24606
 11
-207.024
 21
7.87599
  0
LINE
  8
0
 10
-207.024
 20
7.87599
 11
-207
 21
7.5
  0
LINE
  8
0
 10
-207
 20
7.5
 11
-207.024
 21
7.12399
  0
LINE
  8
0
 10
-207.024
 20
7.12399
 11
-207.094
 21
6.75392
  0
LINE
  8
0
 10
-207.094
 20
6.75392
 11
-207.211
 21
6.39561
  0
LINE
  8
0
 10
-207.211
 20
6.39561
 11
-207.371
 21
6.05473
  0
LINE
  8
0
 10
-207.371
 20
6.05473
 11
-207.573
 21
5.73663
  0
LINE
  8
0
 10
-207.573
 20
5.73663
 11
-207.813
 21
5.44635
  0
LINE
  8
0
 10
-207.813
 20
5.44635
 11
-208.088
 21
5.18845
  0
LINE
  8
0
 10
-208.088
 20
5.18845
 11
-208.393
 21
4.96701
  0
LINE
  8
0
 10
-208.393
 20
4.96701
 11
-208.723
 21
4.78551
  0
LINE
  8
0
 10
-208.723
 20
4.78551
 11
-209.073
 21
4.64682
  0
LINE
  8
0
 10
-209.073
 20
4.64682
 11
-209.438
 21
4.55313
  0
LINE
  8
0
 10
-209.438
 20
4.55313
 11
-209.812
 21
4.50591
  0
LINE
  8
0
 10
-209.812
 20
4.50591
 11
-210.188
 21
4.50591
  0
LINE
  8
0
 10
209.906
 20
-1.49704
 11
209.719
 21
-1.47342
  0
LINE
  8
0
 10
209.719
 20
-1.47342
 11
209.536
 21
-1.42657
  0
LINE
  8
0
 10
209.536
 20
-1.42657
 11
209.361
 21
-1.35724
  0
LINE
  8
0
 10
209.361
 20
-1.35724
 11
209.196
 21
-1.26648
  0
LINE
  8
0
 10
209.196
 20
-1.26648
 11
209.044
 21
-1.15576
  0
LINE
  8
0
 10
209.044
 20
-1.15576
 11
208.907
 21
-1.02681
  0
LINE
  8
0
 10
208.907
 20
-1.02681
 11
208.786
 21
-0.881668
  0
LINE
  8
0
 10
208.786
 20
-0.881668
 11
208.686
 21
-0.722626
  0
LINE
  8
0
 10
208.686
 20
-0.722626
 11
208.605
 21
-0.552185
  0
LINE
  8
0
 10
208.605
 20
-0.552185
 11
208.547
 21
-0.373032
  0
LINE
  8
0
 10
208.547
 20
-0.373032
 11
208.512
 21
-0.187988
  0
LINE
  8
0
 10
208.512
 20
-0.187988
 11
208.5
 21
0
  0
LINE
  8
0
 10
208.5
 20
0
 11
208.512
 21
0.187988
  0
LINE
  8
0
 10
208.512
 20
0.187988
 11
208.547
 21
0.373032
  0
LINE
  8
0
 10
208.547
 20
0.373032
 11
208.605
 21
0.552185
  0
LINE
  8
0
 10
208.605
 20
0.552185
 11
208.686
 21
0.722626
  0
LINE
  8
0
 10
208.686
 20
0.722626
 11
208.786
 21
0.881668
  0
LINE
  8
0
 10
208.786
 20
0.881668
 11
208.907
 21
1.02681
  0
LINE
  8
0
 10
208.907
 20
1.02681
 11
209.044
 21
1.15576
  0
LINE
  8
0
 10
209.044
 20
1.15576
 11
209.196
 21
1.26648
  0
LINE
  8
0
 10
209.196
 20
1.26648
 11
209.361
 21
1.35724
  0
LINE
  8
0
 10
209.361
 20
1.35724
 11
209.536
 21
1.42657
  0
LINE
  8
0
 10
209.536
 20
1.42657
 11
209.719
 21
1.47342
  0
LINE
  8
0
 10
209.719
 20
1.47342
 11
209.906
 21
1.49704
  0
LINE
  8
0
 10
209.906
 20
1.49704
 11
210.094
 21
1.49704
  0
LINE
  8
0
 10
210.094
 20
1.49704
 11
210.281
 21
1.47342
  0
LINE
  8
0
 10
210.281
 20
1.47342
 11
210.464
 21
1.42657
  0
LINE
  8
0
 10
210.464
 20
1.42657
 11
210.639
 21
1.35724
  0
LINE
  8
0
 10
210.639
 20
1.35724
 11
210.804
 21
1.26648
  0
LINE
  8
0
 10
210.804
 20
1.26648
 11
210.956
 21
1.15576
  0
LINE
  8
0
 10
210.956
 20
1.15576
 11
211.093
 21
1.02681
  0
LINE
  8
0
 10
211.093
 20
1.02681
 11
211.214
 21
0.881668
  0
LINE
  8
0
 10
211.214
 20
0.881668
 11
211.314
 21
0.722626
  0
LINE
  8
0
 10
211.314
 20
0.722626
 11
211.395
 21
0.552185
  0
LINE
  8
0
 10
211.395
 20
0.552185
 11
211.453
 21
0.373032
  0
LINE
  8
0
 10
211.453
 20
0.373032
 11
211.488
 21
0.187988
  0
LINE
  8
0
 10
211.488
 20
0.187988
 11
211.5
 21
0
  0
LINE
  8
0
 10
211.5
 20
0
 11
211.488
 21
-0.187988
  0
LINE
  8
0
 10
211.488
 20
-0.187988
 11
211.453
 21
-0.373032
  0
LINE
  8
0
 10
211.453
 20
-0.373032
 11
211.395
 21
-0.552185
  0
LINE
  8
0
 10
211.395
 20
-0.552185
 11
211.314
 21
-0.722626
  0
LINE
  8
0
 10
211.314
 20
-0.722626
 11
211.214
 21
-0.881668
  0
LINE
  8
0
 10
211.214
 20
-0.881668
 11
211.093
 21
-1.02681
  0
LINE
  8
0
 10
211.093
 20
-1.02681
 11
210.956
 21
-1.15576
  0
LINE
  8
0
 10
210.956
 20
-1.15576
 11
210.804
 21
-1.26648
  0
LINE
  8
0
 10
210.804
 20
-1.26648
 11
210.639
 21
-1.35724
  0
LINE
  8
0
 10
210.639
 20
-1.35724
 11
210.464
 21
-1.42657
  0
LINE
  8
0
 10
210.464
 20
-1.42657
 11
210.281
 21
-1.47342
  0
LINE
  8
0
 10
210.281
 20
-1.47342
 11
210.094
 21
-1.49704
  0
LINE
  8
0
 10
210.094
 20
-1.49704
 11
209.906
 21
-1.49704
  0
LINE
  8
0
 10
-210.094
 20
-1.49704
 11
-210.281
 21
-1.47342
  0
LINE
  8
0
 10
-210.281
 20
-1.47342
 11
-210.464
 21
-1.42657
  0
LINE
  8
0
 10
-210.464
 20
-1.42657
 11
-210.639
 21
-1.35724
  0
LINE
  8
0
 10
-210.639
 20
-1.35724
 11
-210.804
 21
-1.26648
  0
LINE
  8
0
 10
-210.804
 20
-1.26648
 11
-210.956
 21
-1.15576
  0
LINE
  8
0
 10
-210.956
 20
-1.15576
 11
-211.093
 21
-1.02681
  0
LINE
  8
0
 10
-211.093
 20
-1.02681
 11
-211.214
 21
-0.881668
  0
LINE
  8
0
 10
-211.214
 20
-0.881668
 11
-211.314
 21
-0.722626
  0
LINE
  8
0
 10
-211.314
 20
-0.722626
 11
-211.395
 21
-0.552185
  0
LINE
  8
0
 10
-211.395
 20
-0.552185
 11
-211.453
 21
-0.373032
  0
LINE
  8
0
 10
-211.453
 20
-0.373032
 11
-211.488
 21
-0.187988
  0
LINE
  8
0
 10
-211.488
 20
-0.187988
 11
-211.5
 21
0
  0
LINE
  8
0
 10
-211.5
 20
0
 11
-211.488
 21
0.187988
  0
LINE
  8
0
 10
-211.488
 20
0.187988
 11
-211.453
 21
0.373032
  0
LINE
  8
0
 10
-211.453
 20
0.373032
 11
-211.395
 21
0.552185
  0
LINE
  8
0
 10
-211.395
 20
0.552185
 11
-211.314
 21
0.722626
  0
LINE
  8
0
 10
-211.314
 20
0.722626
 11
-211.214
 21
0.881668
  0
LINE
  8
0
 10
-211.214
 20
0.881668
 11
-211.093
 21
1.02681
  0
LINE
  8
0
 10
-211.093
 20
1.02681
 11
-210.956
 21
1.15576
  0
LINE
  8
0
 10
-210.956
 20
1.15576
 11
-210.804
 21
1.26648
  0
LINE
  8
0
 10
-210.804
 20
1.26648
 11
-210.639
 21
1.35724
  0
LINE
  8
0
 10
-210.639
 20
1.35724
 11
-210.464
 21
1.42657
  0
LINE
  8
0
 10
-210.464
 20
1.42657
 11
-210.281
 21
1.47342
  0
LINE
  8
0
 10
-210.281
 20
1.47342
 11
-210.094
 21
1.49704
  0
LINE
  8
0
 10
-210.094
 20
1.49704
 11
-209.906
 21
1.49704
  0
LINE
  8
0
 10
-209.906
 20
1.49704
 11
-209.719
 21
1.47342
  0
LINE
  8
0
 10
-209.719
 20
1.47342
 11
-209.536
 21
1.42657
  0
LINE
  8
0
 10
-209.536
 20
1.42657
 11
-209.361
 21
1.35724
  0
LINE
  8
0
 10
-209.361
 20
1.35724
 11
-209.196
 21
1.26648
  0
LINE
  8
0
 10
-209.196
 20
1.26648
 11
-209.044
 21
1.15576
  0
LINE
  8
0
 10
-209.044
 20
1.15576
 11
-208.907
 21
1.02681
  0
LINE
  8
0
 10
-208.907
 20
1.02681
 11
-208.786
 21
0.881668
  0
LINE
  8
0
 10
-208.786
 20
0.881668
 11
-208.686
 21
0.722626
  0
LINE
  8
0
 10
-208.686
 20
0.722626
 11
-208.605
 21
0.552185
  0
LINE
  8
0
 10
-208.605
 20
0.552185
 11
-208.547
 21
0.373032
  0
LINE
  8
0
 10
-208.547
 20
0.373032
 11
-208.512
 21
0.187988
  0
LINE
  8
0
 10
-208.512
 20
0.187988
 11
-208.5
 21
0
  0
LINE
  8
0
 10
-208.5
 20
0
 11
-208.512
 21
-0.187988
  0
LINE
  8
0
 10
-208.512
 20
-0.187988
 11
-208.547
 21
-0.373032
  0
LINE
  8
0
 10
-208.547
 20
-0.373032
 11
-208.605
 21
-0.552185
  0
LINE
  8
0
 10
-208.605
 20
-0.552185
 11
-208.686
 21
-0.722626
  0
LINE
  8
0
 10
-208.686
 20
-0.722626
 11
-208.786
 21
-0.881668
  0
LINE
  8
0
 10
-208.786
 20
-0.881668
 11
-208.907
 21
-1.02681
  0
LINE
  8
0
 10
-208.907
 20
-1.02681
 11
-209.044
 21
-1.15576
  0
LINE
  8
0
 10
-209.044
 20
-1.15576
 11
-209.196
 21
-1.26648
  0
LINE
  8
0
 10
-209.196
 20
-1.26648
 11
-209.361
 21
-1.35724
  0
LINE
  8
0
 10
-209.361
 20
-1.35724
 11
-209.536
 21
-1.42657
  0
LINE
  8
0
 10
-209.536
 20
-1.42657
 11
-209.719
 21
-1.47342
  0
LINE
  8
0
 10
-209.719
 20
-1.47342
 11
-209.906
 21
-1.49704
  0
LINE
  8
0
 10
-209.906
 20
-1.49704
 11
-210.094
 21
-1.49704
  0
LINE
  8
0
 10
-210.188
 20
-10.4941
 11
-210.562
 21
-10.4469
  0
LINE
  8
0
 10
-210.562
 20
-10.4469
 11
-210.927
 21
-10.3532
  0
LINE
  8
0
 10
-210.927
 20
-10.3532
 11
-211.277
 21
-10.2145
  0
LINE
  8
0
 10
-211.277
 20
-10.2145
 11
-211.607
 21
-10.033
  0
LINE
  8
0
 10
-211.607
 20
-10.033
 11
-211.912
 21
-9.81154
  0
LINE
  8
0
 10
-211.912
 20
-9.81154
 11
-212.187
 21
-9.55363
  0
LINE
  8
0
 10
-212.187
 20
-9.55363
 11
-212.427
 21
-9.26335
  0
LINE
  8
0
 10
-212.427
 20
-9.26335
 11
-212.629
 21
-8.94525
  0
LINE
  8
0
 10
-212.629
 20
-8.94525
 11
-212.789
 21
-8.60437
  0
LINE
  8
0
 10
-212.789
 20
-8.60437
 11
-212.906
 21
-8.24606
  0
LINE
  8
0
 10
-212.906
 20
-8.24606
 11
-212.976
 21
-7.87599
  0
LINE
  8
0
 10
-212.976
 20
-7.87599
 11
-213
 21
-7.5
  0
LINE
  8
0
 10
-213
 20
-7.5
 11
-212.976
 21
-7.12399
  0
LINE
  8
0
 10
-212.976
 20
-7.12399
 11
-212.906
 21
-6.75392
  0
LINE
  8
0
 10
-212.906
 20
-6.75392
 11
-212.789
 21
-6.39561
  0
LINE
  8
0
 10
-212.789
 20
-6.39561
 11
-212.629
 21
-6.05473
  0
LINE
  8
0
 10
-212.629
 20
-6.05473
 11
-212.427
 21
-5.73663
  0
LINE
  8
0
 10
-212.427
 20
-5.73663
 11
-212.187
 21
-5.44635
  0
LINE
  8
0
 10
-212.187
 20
-5.44635
 11
-211.912
 21
-5.18845
  0
LINE
  8
0
 10
-211.912
 20
-5.18845
 11
-211.607
 21
-4.96701
  0
LINE
  8
0
 10
-211.607
 20
-4.96701
 11
-211.277
 21
-4.78551
  0
LINE
  8
0
 10
-211.277
 20
-4.78551
 11
-210.927
 21
-4.64682
  0
LINE
  8
0
 10
-210.927
 20
-4.64682
 11
-210.562
 21
-4.55313
  0
LINE
  8
0
 10
-210.562
 20
-4.55313
 11
-210.188
 21
-4.50591
  0
LINE
  8
0
 10
-210.188
 20
-4.50591
 11
-209.812
 21
-4.50591
  0
LINE
  8
0
 10
-209.812
 20
-4.50591
 11
-209.438
 21
-4.55313
  0
LINE
  8
0
 10
-209.438
 20
-4.55313
 11
-209.073
 21
-4.64682
  0
LINE
  8
0
 10
-209.073
 20
-4.64682
 11
-208.723
 21
-4.78551
  0
LINE
  8
0
 10
-208.723
 20
-4.78551
 11
-208.393
 21
-4.96701
  0
LINE
  8
0
 10
-208.393
 20
-4.96701
 11
-208.088
 21
-5.18845
  0
LINE
  8
0
 10
-208.088
 20
-5.18845
 11
-207.813
 21
-5.44635
  0
LINE
  8
0
 10
-207.813
 20
-5.44635
 11
-207.573
 21
-5.73663
  0
LINE
  8
0
 10
-207.573
 20
-5.73663
 11
-207.371
 21
-6.05473
  0
LINE
  8
0
 10
-207.371
 20
-6.05473
 11
-207.211
 21
-6.39561
  0
LINE
  8
0
 10
-207.211
 20
-6.39561
 11
-207.094
 21
-6.75392
  0
LINE
  8
0
 10
-207.094
 20
-6.75392
 11
-207.024
 21
-7.12399
  0
LINE
  8
0
 10
-207.024
 20
-7.12399
 11
-207
 21
-7.5
  0
LINE
  8
0
 10
-207
 20
-7.5
 11
-207.024
 21
-7.87599
  0
LINE
  8
0
 10
-207.024
 20
-7.87599
 11
-207.094
 21
-8.24606
  0
LINE
  8
0
 10
-207.094
 20
-8.24606
 11
-207.211
 21
-8.60437
  0
LINE
  8
0
 10
-207.211
 20
-8.60437
 11
-207.371
 21
-8.94525
  0
LINE
  8
0
 10
-207.371
 20
-8.94525
 11
-207.573
 21
-9.26335
  0
LINE
  8
0
 10
-207.573
 20
-9.26335
 11
-207.813
 21
-9.55363
  0
LINE
  8
0
 10
-207.813
 20
-9.55363
 11
-208.088
 21
-9.81154
  0
LINE
  8
0
 10
-208.088
 20
-9.81154
 11
-208.393
 21
-10.033
  0
LINE
  8
0
 10
-208.393
 20
-10.033
 11
-208.723
 21
-10.2145
  0
LINE
  8
0
 10
-208.723
 20
-10.2145
 11
-209.073
 21
-10.3532
  0
LINE
  8
0
 10
-209.073
 20
-10.3532
 11
-209.438
 21
-10.4469
  0
LINE
  8
0
 10
-209.438
 20
-10.4469
 11
-209.812
 21
-10.4941
  0
LINE
  8
0
 10
-209.812
 20
-10.4941
 11
-210.188
 21
-10.4941
  0
LINE
  8
0
 10
209.812
 20
-10.4941
 11
209.438
 21
-10.4469
  0
LINE
  8
0
 10
209.438
 20
-10.4469
 11
209.073
 21
-10.3532
  0
LINE
  8
0
 10
209.073
 20
-10.3532
 11
208.723
 21
-10.2145
  0
LINE
  8
0
 10
208.723
 20
-10.2145
 11
208.393
 21
-10.033
  0
LINE
  8
0
 10
208.393
 20
-10.033
 11
208.088
 21
-9.81154
  0
LINE
  8
0
 10
208.088
 20
-9.81154
 11
207.813
 21
-9.55363
  0
LINE
  8
0
 10
207.813
 20
-9.55363
 11
207.573
 21
-9.26335
  0
LINE
  8
0
 10
207.573
 20
-9.26335
 11
207.371
 21
-8.94525
  0
LINE
  8
0
 10
207.371
 20
-8.94525
 11
207.211
 21
-8.60437
  0
LINE
  8
0
 10
207.211
 20
-8.60437
 11
207.094
 21
-8.24606
  0
LINE
  8
0
 10
207.094
 20
-8.24606
 11
207.024
 21
-7.87599
  0
LINE
  8
0
 10
207.024
 20
-7.87599
 11
207
 21
-7.5
  0
LINE
  8
0
 10
207
 20
-7.5
 11
207.024
 21
-7.12399
  0
LINE
  8
0
 10
207.024
 20
-7.12399
 11
207.094
 21
-6.75392
  0
LINE
  8
0
 10
207.094
 20
-6.75392
 11
207.211
 21
-6.39561
  0
LINE
  8
0
 10
207.211
 20
-6.39561
 11
207.371
 21
-6.05473
  0
LINE
  8
0
 10
207.371
 20
-6.05473
 11
207.573
 21
-5.73663
  0
LINE
  8
0
 10
207.573
 20
-5.73663
 11
207.813
 21
-5.44635
  0
LINE
  8
0
 10
207.813
 20
-5.44635
 11
208.088
 21
-5.18845
  0
LINE
  8
0
 10
208.088
 20
-5.18845
 11
208.393
 21
-4.96701
  0
LINE
  8
0
 10
208.393
 20
-4.96701
 11
208.723
 21
-4.78551
  0
LINE
  8
0
 10
208.723
 20
-4.78551
 11
209.073
 21
-4.64682
  0
LINE
  8
0
 10
209.073
 20
-4.64682
 11
209.438
 21
-4.55313
  0
LINE
  8
0
 10
209.438
 20
-4.55313
 11
209.812
 21
-4.50591
  0
LINE
  8
0
 10
209.812
 20
-4.50591
 11
210.188
 21
-4.50591
  0
LINE
  8
0
 10
210.188
 20
-4.50591
 11
210.562
 21
-4.55313
  0
LINE
  8
0
 10
210.562
 20
-4.55313
 11
210.927
 21
-4.64682
  0
LINE
  8
0
 10
210.927
 20
-4.64682
 11
211.277
 21
-4.78551
  0
LINE
  8
0
 10
211.277
 20
-4.78551
 11
211.607
 21
-4.96701
  0
LINE
  8
0
 10
211.607
 20
-4.96701
 11
211.912
 21
-5.18845
  0
LINE
  8
0
 10
211.912
 20
-5.18845
 11
212.187
 21
-5.44635
  0
LINE
  8
0
 10
212.187
 20
-5.44635
 11
212.427
 21
-5.73663
  0
LINE
  8
0
 10
212.427
 20
-5.73663
 11
212.629
 21
-6.05473
  0
LINE
  8
0
 10
212.629
 20
-6.05473
 11
212.789
 21
-6.39561
  0
LINE
  8
0
 10
212.789
 20
-6.39561
 11
212.906
 21
-6.75392
  0
LINE
  8
0
 10
212.906
 20
-6.75392
 11
212.976
 21
-7.12399
  0
LINE
  8
0
 10
212.976
 20
-7.12399
 11
213
 21
-7.5
  0
LINE
  8
0
 10
213
 20
-7.5
 11
212.976
 21
-7.87599
  0
LINE
  8
0
 10
212.976
 20
-7.87599
 11
212.906
 21
-8.24606
  0
LINE
  8
0
 10
212.906
 20
-8.24606
 11
212.789
 21
-8.60437
  0
LINE
  8
0
 10
212.789
 20
-8.60437
 11
212.629
 21
-8.94525
  0
LINE
  8
0
 10
212.629
 20
-8.94525
 11
212.427
 21
-9.26335
  0
LINE
  8
0
 10
212.427
 20
-9.26335
 11
212.187
 21
-9.55363
  0
LINE
  8
0
 10
212.187
 20
-9.55363
 11
211.912
 21
-9.81154
  0
LINE
  8
0
 10
211.912
 20
-9.81154
 11
211.607
 21
-10.033
  0
LINE
  8
0
 10
211.607
 20
-10.033
 11
211.277
 21
-10.2145
  0
LINE
  8
0
 10
211.277
 20
-10.2145
 11
210.927
 21
-10.3532
  0
LINE
  8
0
 10
210.927
 20
-10.3532
 11
210.562
 21
-10.4469
  0
LINE
  8
0
 10
210.562
 20
-10.4469
 11
210.188
 21
-10.4941
  0
LINE
  8
0
 10
210.188
 20
-10.4941
 11
209.812
 21
-10.4941
  0
LINE
  8
0
 10
-210.094
 20
-16.497
 11
-210.281
 21
-16.4734
  0
LINE
  8
0
 10
-210.281
 20
-16.4734
 11
-210.464
 21
-16.4266
  0
LINE
  8
0
 10
-210.464
 20
-16.4266
 11
-210.639
 21
-16.3572
  0
LINE
  8
0
 10
-210.639
 20
-16.3572
 11
-210.804
 21
-16.2665
  0
LINE
  8
0
 10
-210.804
 20
-16.2665
 11
-210.956
 21
-16.1558
  0
LINE
  8
0
 10
-210.956
 20
-16.1558
 11
-211.093
 21
-16.0268
  0
LINE
  8
0
 10
-211.093
 20
-16.0268
 11
-211.214
 21
-15.8817
  0
LINE
  8
0
 10
-211.214
 20
-15.8817
 11
-211.314
 21
-15.7226
  0
LINE
  8
0
 10
-211.314
 20
-15.7226
 11
-211.395
 21
-15.5522
  0
LINE
  8
0
 10
-211.395
 20
-15.5522
 11
-211.453
 21
-15.373
  0
LINE
  8
0
 10
-211.453
 20
-15.373
 11
-211.488
 21
-15.188
  0
LINE
  8
0
 10
-211.488
 20
-15.188
 11
-211.5
 21
-15
  0
LINE
  8
0
 10
-211.5
 20
-15
 11
-211.488
 21
-14.812
  0
LINE
  8
0
 10
-211.488
 20
-14.812
 11
-211.453
 21
-14.627
  0
LINE
  8
0
 10
-211.453
 20
-14.627
 11
-211.395
 21
-14.4478
  0
LINE
  8
0
 10
-211.395
 20
-14.4478
 11
-211.314
 21
-14.2774
  0
LINE
  8
0
 10
-211.314
 20
-14.2774
 11
-211.214
 21
-14.1183
  0
LINE
  8
0
 10
-211.214
 20
-14.1183
 11
-211.093
 21
-13.9732
  0
LINE
  8
0
 10
-211.093
 20
-13.9732
 11
-210.956
 21
-13.8442
  0
LINE
  8
0
 10
-210.956
 20
-13.8442
 11
-210.804
 21
-13.7335
  0
LINE
  8
0
 10
-210.804
 20
-13.7335
 11
-210.639
 21
-13.6427
  0
LINE
  8
0
 10
-210.639
 20
-13.6427
 11
-210.464
 21
-13.5734
  0
LINE
  8
0
 10
-210.464
 20
-13.5734
 11
-210.281
 21
-13.5266
  0
LINE
  8
0
 10
-210.281
 20
-13.5266
 11
-210.094
 21
-13.5029
  0
LINE
  8
0
 10
-210.094
 20
-13.5029
 11
-209.906
 21
-13.5029
  0
LINE
  8
0
 10
-209.906
 20
-13.5029
 11
-209.719
 21
-13.5266
  0
LINE
  8
0
 10
-209.719
 20
-13.5266
 11
-209.536
 21
-13.5734
  0
LINE
  8
0
 10
-209.536
 20
-13.5734
 11
-209.361
 21
-13.6427
  0
LINE
  8
0
 10
-209.361
 20
-13.6427
 11
-209.196
 21
-13.7335
  0
LINE
  8
0
 10
-209.196
 20
-13.7335
 11
-209.044
 21
-13.8442
  0
LINE
  8
0
 10
-209.044
 20
-13.8442
 11
-208.907
 21
-13.9732
  0
LINE
  8
0
 10
-208.907
 20
-13.9732
 11
-208.786
 21
-14.1183
  0
LINE
  8
0
 10
-208.786
 20
-14.1183
 11
-208.686
 21
-14.2774
  0
LINE
  8
0
 10
-208.686
 20
-14.2774
 11
-208.605
 21
-14.4478
  0
LINE
  8
0
 10
-208.605
 20
-14.4478
 11
-208.547
 21
-14.627
  0
LINE
  8
0
 10
-208.547
 20
-14.627
 11
-208.512
 21
-14.812
  0
LINE
  8
0
 10
-208.512
 20
-14.812
 11
-208.5
 21
-15
  0
LINE
  8
0
 10
-208.5
 20
-15
 11
-208.512
 21
-15.188
  0
LINE
  8
0
 10
-208.512
 20
-15.188
 11
-208.547
 21
-15.373
  0
LINE
  8
0
 10
-208.547
 20
-15.373
 11
-208.605
 21
-15.5522
  0
LINE
  8
0
 10
-208.605
 20
-15.5522
 11
-208.686
 21
-15.7226
  0
LINE
  8
0
 10
-208.686
 20
-15.7226
 11
-208.786
 21
-15.8817
  0
LINE
  8
0
 10
-208.786
 20
-15.8817
 11
-208.907
 21
-16.0268
  0
LINE
  8
0
 10
-208.907
 20
-16.0268
 11
-209.044
 21
-16.1558
  0
LINE
  8
0
 10
-209.044
 20
-16.1558
 11
-209.196
 21
-16.2665
  0
LINE
  8
0
 10
-209.196
 20
-16.2665
 11
-209.361
 21
-16.3572
  0
LINE
  8
0
 10
-209.361
 20
-16.3572
 11
-209.536
 21
-16.4266
  0
LINE
  8
0
 10
-209.536
 20
-16.4266
 11
-209.719
 21
-16.4734
  0
LINE
  8
0
 10
-209.719
 20
-16.4734
 11
-209.906
 21
-16.497
  0
LINE
  8
0
 10
-209.906
 20
-16.497
 11
-210.094
 21
-16.497
  0
LINE
  8
0
 10
209.906
 20
-16.497
 11
209.719
 21
-16.4734
  0
LINE
  8
0
 10
209.719
 20
-16.4734
 11
209.536
 21
-16.4266
  0
LINE
  8
0
 10
209.536
 20
-16.4266
 11
209.361
 21
-16.3572
  0
LINE
  8
0
 10
209.361
 20
-16.3572
 11
209.196
 21
-16.2665
  0
LINE
  8
0
 10
209.196
 20
-16.2665
 11
209.044
 21
-16.1558
  0
LINE
  8
0
 10
209.044
 20
-16.1558
 11
208.907
 21
-16.0268
  0
LINE
  8
0
 10
208.907
 20
-16.0268
 11
208.786
 21
-15.8817
  0
LINE
  8
0
 10
208.786
 20
-15.8817
 11
208.686
 21
-15.7226
  0
LINE
  8
0
 10
208.686
 20
-15.7226
 11
208.605
 21
-15.5522
  0
LINE
  8
0
 10
208.605
 20
-15.5522
 11
208.547
 21
-15.373
  0
LINE
  8
0
 10
208.547
 20
-15.373
 11
208.512
 21
-15.188
  0
LINE
  8
0
 10
208.512
 20
-15.188
 11
208.5
 21
-15
  0
LINE
  8
0
 10
208.5
 20
-15
 11
208.512
 21
-14.812
  0
LINE
  8
0
 10
208.512
 20
-14.812
 11
208.547
 21
-14.627
  0
LINE
  8
0
 10
208.547
 20
-14.627
 11
208.605
 21
-14.4478
  0
LINE
  8
0
 10
208.605
 20
-14.4478
 11
208.686
 21
-14.2774
  0
LINE
  8
0
 10
208.686
 20
-14.2774
 11
208.786
 21
-14.1183
  0
LINE
  8
0
 10
208.786
 20
-14.1183
 11
208.907
 21
-13.9732
  0
LINE
  8
0
 10
208.907
 20
-13.9732
 11
209.044
 21
-13.8442
  0
LINE
  8
0
 10
209.044
 20
-13.8442
 11
209.196
 21
-13.7335
  0
LINE
  8
0
 10
209.196
 20
-13.7335
 11
209.361
 21
-13.6427
  0
LINE
  8
0
 10
209.361
 20
-13.6427
 11
209.536
 21
-13.5734
  0
LINE
  8
0
 10
209.536
 20
-13.5734
 11
209.719
 21
-13.5266
  0
LINE
  8
0
 10
209.719
 20
-13.5266
 11
209.906
 21
-13.5029
  0
LINE
  8
0
 10
209.906
 20
-13.5029
 11
210.094
 21
-13.5029
  0
LINE
  8
0
 10
210.094
 20
-13.5029
 11
210.281
 21
-13.5266
  0
LINE
  8
0
 10
210.281
 20
-13.5266
 11
210.464
 21
-13.5734
  0
LINE
  8
0
 10
210.464
 20
-13.5734
 11
210.639
 21
-13.6427
  0
LINE
  8
0
 10
210.639
 20
-13.6427
 11
210.804
 21
-13.7335
  0
LINE
  8
0
 10
210.804
 20
-13.7335
 11
210.956
 21
-13.8442
  0
LINE
  8
0
 10
210.956
 20
-13.8442
 11
211.093
 21
-13.9732
  0
LINE
  8
0
 10
211.093
 20
-13.9732
 11
211.214
 21
-14.1183
  0
LINE
  8
0
 10
211.214
 20
-14.1183
 11
211.314
 21
-14.2774
  0
LINE
  8
0
 10
211.314
 20
-14.2774
 11
211.395
 21
-14.4478
  0
LINE
  8
0
 10
211.395
 20
-14.4478
 11
211.453
 21
-14.627
  0
LINE
  8
0
 10
211.453
 20
-14.627
 11
211.488
 21
-14.812
  0
LINE
  8
0
 10
211.488
 20
-14.812
 11
211.5
 21
-15
  0
LINE
  8
0
 10
211.5
 20
-15
 11
211.488
 21
-15.188
  0
LINE
  8
0
 10
211.488
 20
-15.188
 11
211.453
 21
-15.373
  0
LINE
  8
0
 10
211.453
 20
-15.373
 11
211.395
 21
-15.5522
  0
LINE
  8
0
 10
211.395
 20
-15.5522
 11
211.314
 21
-15.7226
  0
LINE
  8
0
 10
211.314
 20
-15.7226
 11
211.214
 21
-15.8817
  0
LINE
  8
0
 10
211.214
 20
-15.8817
 11
211.093
 21
-16.0268
  0
LINE
  8
0
 10
211.093
 20
-16.0268
 11
210.956
 21
-16.1558
  0
LINE
  8
0
 10
210.956
 20
-16.1558
 11
210.804
 21
-16.2665
  0
LINE
  8
0
 10
210.804
 20
-16.2665
 11
210.639
 21
-16.3572
  0
LINE
  8
0
 10
210.639
 20
-16.3572
 11
210.464
 21
-16.4266
  0
LINE
  8
0
 10
210.464
 20
-16.4266
 11
210.281
 21
-16.4734
  0
LINE
  8
0
 10
210.281
 20
-16.4734
 11
210.094
 21
-16.497
  0
LINE
  8
0
 10
210.094
 20
-16.497
 11
209.906
 21
-16.497
  0
LINE
  8
0
 10
-210.188
 20
-25.4941
 11
-210.562
 21
-25.4469
  0
LINE
  8
0
 10
-210.562
 20
-25.4469
 11
-210.927
 21
-25.3532
  0
LINE
  8
0
 10
-210.927
 20
-25.3532
 11
-211.277
 21
-25.2145
  0
LINE
  8
0
 10
-211.277
 20
-25.2145
 11
-211.607
 21
-25.033
  0
LINE
  8
0
 10
-211.607
 20
-25.033
 11
-211.912
 21
-24.8115
  0
LINE
  8
0
 10
-211.912
 20
-24.8115
 11
-212.187
 21
-24.5536
  0
LINE
  8
0
 10
-212.187
 20
-24.5536
 11
-212.427
 21
-24.2634
  0
LINE
  8
0
 10
-212.427
 20
-24.2634
 11
-212.629
 21
-23.9453
  0
LINE
  8
0
 10
-212.629
 20
-23.9453
 11
-212.789
 21
-23.6044
  0
LINE
  8
0
 10
-212.789
 20
-23.6044
 11
-212.906
 21
-23.2461
  0
LINE
  8
0
 10
-212.906
 20
-23.2461
 11
-212.976
 21
-22.876
  0
LINE
  8
0
 10
-212.976
 20
-22.876
 11
-213
 21
-22.5
  0
LINE
  8
0
 10
-213
 20
-22.5
 11
-212.976
 21
-22.124
  0
LINE
  8
0
 10
-212.976
 20
-22.124
 11
-212.906
 21
-21.7539
  0
LINE
  8
0
 10
-212.906
 20
-21.7539
 11
-212.789
 21
-21.3956
  0
LINE
  8
0
 10
-212.789
 20
-21.3956
 11
-212.629
 21
-21.0547
  0
LINE
  8
0
 10
-212.629
 20
-21.0547
 11
-212.427
 21
-20.7366
  0
LINE
  8
0
 10
-212.427
 20
-20.7366
 11
-212.187
 21
-20.4464
  0
LINE
  8
0
 10
-212.187
 20
-20.4464
 11
-211.912
 21
-20.1884
  0
LINE
  8
0
 10
-211.912
 20
-20.1884
 11
-211.607
 21
-19.967
  0
LINE
  8
0
 10
-211.607
 20
-19.967
 11
-211.277
 21
-19.7855
  0
LINE
  8
0
 10
-211.277
 20
-19.7855
 11
-210.927
 21
-19.6468
  0
LINE
  8
0
 10
-210.927
 20
-19.6468
 11
-210.562
 21
-19.5531
  0
LINE
  8
0
 10
-210.562
 20
-19.5531
 11
-210.188
 21
-19.5059
  0
LINE
  8
0
 10
-210.188
 20
-19.5059
 11
-209.812
 21
-19.5059
  0
LINE
  8
0
 10
-209.812
 20
-19.5059
 11
-209.438
 21
-19.5531
  0
LINE
  8
0
 10
-209.438
 20
-19.5531
 11
-209.073
 21
-19.6468
  0
LINE
  8
0
 10
-209.073
 20
-19.6468
 11
-208.723
 21
-19.7855
  0
LINE
  8
0
 10
-208.723
 20
-19.7855
 11
-208.393
 21
-19.967
  0
LINE
  8
0
 10
-208.393
 20
-19.967
 11
-208.088
 21
-20.1884
  0
LINE
  8
0
 10
-208.088
 20
-20.1884
 11
-207.813
 21
-20.4464
  0
LINE
  8
0
 10
-207.813
 20
-20.4464
 11
-207.573
 21
-20.7366
  0
LINE
  8
0
 10
-207.573
 20
-20.7366
 11
-207.371
 21
-21.0547
  0
LINE
  8
0
 10
-207.371
 20
-21.0547
 11
-207.211
 21
-21.3956
  0
LINE
  8
0
 10
-207.211
 20
-21.3956
 11
-207.094
 21
-21.7539
  0
LINE
  8
0
 10
-207.094
 20
-21.7539
 11
-207.024
 21
-22.124
  0
LINE
  8
0
 10
-207.024
 20
-22.124
 11
-207
 21
-22.5
  0
LINE
  8
0
 10
-207
 20
-22.5
 11
-207.024
 21
-22.876
  0
LINE
  8
0
 10
-207.024
 20
-22.876
 11
-207.094
 21
-23.2461
  0
LINE
  8
0
 10
-207.094
 20
-23.2461
 11
-207.211
 21
-23.6044
  0
LINE
  8
0
 10
-207.211
 20
-23.6044
 11
-207.371
 21
-23.9453
  0
LINE
  8
0
 10
-207.371
 20
-23.9453
 11
-207.573
 21
-24.2634
  0
LINE
  8
0
 10
-207.573
 20
-24.2634
 11
-207.813
 21
-24.5536
  0
LINE
  8
0
 10
-207.813
 20
-24.5536
 11
-208.088
 21
-24.8115
  0
LINE
  8
0
 10
-208.088
 20
-24.8115
 11
-208.393
 21
-25.033
  0
LINE
  8
0
 10
-208.393
 20
-25.033
 11
-208.723
 21
-25.2145
  0
LINE
  8
0
 10
-208.723
 20
-25.2145
 11
-209.073
 21
-25.3532
  0
LINE
  8
0
 10
-209.073
 20
-25.3532
 11
-209.438
 21
-25.4469
  0
LINE
  8
0
 10
-209.438
 20
-25.4469
 11
-209.812
 21
-25.4941
  0
LINE
  8
0
 10
-209.812
 20
-25.4941
 11
-210.188
 21
-25.4941
  0
LINE
  8
0
 10
209.812
 20
-25.4941
 11
209.438
 21
-25.4469
  0
LINE
  8
0
 10
209.438
 20
-25.4469
 11
209.073
 21
-25.3532
  0
LINE
  8
0
 10
209.073
 20
-25.3532
 11
208.723
 21
-25.2145
  0
LINE
  8
0
 10
208.723
 20
-25.2145
 11
208.393
 21
-25.033
  0
LINE
  8
0
 10
208.393
 20
-25.033
 11
208.088
 21
-24.8115
  0
LINE
  8
0
 10
208.088
 20
-24.8115
 11
207.813
 21
-24.5536
  0
LINE
  8
0
 10
207.813
 20
-24.5536
 11
207.573
 21
-24.2634
  0
LINE
  8
0
 10
207.573
 20
-24.2634
 11
207.371
 21
-23.9453
  0
LINE
  8
0
 10
207.371
 20
-23.9453
 11
207.211
 21
-23.6044
  0
LINE
  8
0
 10
207.211
 20
-23.6044
 11
207.094
 21
-23.2461
  0
LINE
  8
0
 10
207.094
 20
-23.2461
 11
207.024
 21
-22.876
  0
LINE
  8
0
 10
207.024
 20
-22.876
 11
207
 21
-22.5
  0
LINE
  8
0
 10
207
 20
-22.5
 11
207.024
 21
-22.124
  0
LINE
  8
0
 10
207.024
 20
-22.124
 11
207.094
 21
-21.7539
  0
LINE
  8
0
 10
207.094
 20
-21.7539
 11
207.211
 21
-21.3956
  0
LINE
  8
0
 10
207.211
 20
-21.3956
 11
207.371
 21
-21.0547
  0
LINE
  8
0
 10
207.371
 20
-21.0547
 11
207.573
 21
-20.7366
  0
LINE
  8
0
 10
207.573
 20
-20.7366
 11
207.813
 21
-20.4464
  0
LINE
  8
0
 10
207.813
 20
-20.4464
 11
208.088
 21
-20.1884
  0
LINE
  8
0
 10
208.088
 20
-20.1884
 11
208.393
 21
-19.967
  0
LINE
  8
0
 10
208.393
 20
-19.967
 11
208.723
 21
-19.7855
  0
LINE
  8
0
 10
208.723
 20
-19.7855
 11
209.073
 21
-19.6468
  0
LINE
  8
0
 10
209.073
 20
-19.6468
 11
209.438
 21
-19.5531
  0
LINE
  8
0
 10
209.438
 20
-19.5531
 11
209.812
 21
-19.5059
  0
LINE
  8
0
 10
209.812
 20
-19.5059
 11
210.188
 21
-19.5059
  0
LINE
  8
0
 10
210.188
 20
-19.5059
 11
210.562
 21
-19.5531
  0
LINE
  8
0
 10
210.562
 20
-19.5531
 11
210.927
 21
-19.6468
  0
LINE
  8
0
 10
210.927
 20
-19.6468
 11
211.277
 21
-19.7855
  0
LINE
  8
0
 10
211.277
 20
-19.7855
 11
211.607
 21
-19.967
  0
LINE
  8
0
 10
211.607
 20
-19.967
 11
211.912
 21
-20.1884
  0
LINE
  8
0
 10
211.912
 20
-20.1884
 11
212.187
 21
-20.4464
  0
LINE
  8
0
 10
212.187
 20
-20.4464
 11
212.427
 21
-20.7366
  0
LINE
  8
0
 10
212.427
 20
-20.7366
 11
212.629
 21
-21.0547
  0
LINE
  8
0
 10
212.629
 20
-21.0547
 11
212.789
 21
-21.3956
  0
LINE
  8
0
 10
212.789
 20
-21.3956
 11
212.906
 21
-21.7539
  0
LINE
  8
0
 10
212.906
 20
-21.7539
 11
212.976
 21
-22.124
  0
LINE
  8
0
 10
212.976
 20
-22.124
 11
213
 21
-22.5
  0
LINE
  8
0
 10
213
 20
-22.5
 11
212.976
 21
-22.876
  0
LINE
  8
0
 10
212.976
 20
-22.876
 11
212.906
 21
-23.2461
  0
LINE
  8
0
 10
212.906
 20
-23.2461
 11
212.789
 21
-23.6044
  0
LINE
  8
0
 10
212.789
 20
-23.6044
 11
212.629
 21
-23.9453
  0
LINE
  8
0
 10
212.629
 20
-23.9453
 11
212.427
 21
-24.2634
  0
LINE
  8
0
 10
212.427
 20
-24.2634
 11
212.187
 21
-24.5536
  0
LINE
  8
0
 10
212.187
 20
-24.5536
 11
211.912
 21
-24.8115
  0
LINE
  8
0
 10
211.912
 20
-24.8115
 11
211.607
 21
-25.033
  0
LINE
  8
0
 10
211.607
 20
-25.033
 11
211.277
 21
-25.2145
  0
LINE
  8
0
 10
211.277
 20
-25.2145
 11
210.927
 21
-25.3532
  0
LINE
  8
0
 10
210.927
 20
-25.3532
 11
210.562
 21
-25.4469
  0
LINE
  8
0
 10
210.562
 20
-25.4469
 11
210.188
 21
-25.4941
  0
LINE
  8
0
 10
210.188
 20
-25.4941
 11
209.812
 21
-25.4941
  0
LINE
  8
0
 10
-210.094
 20
-31.497
 11
-210.281
 21
-31.4734
  0
LINE
  8
0
 10
-210.281
 20
-31.4734
 11
-210.464
 21
-31.4266
  0
LINE
  8
0
 10
-210.464
 20
-31.4266
 11
-210.639
 21
-31.3572
  0
LINE
  8
0
 10
-210.639
 20
-31.3572
 11
-210.804
 21
-31.2665
  0
LINE
  8
0
 10
-210.804
 20
-31.2665
 11
-210.956
 21
-31.1558
  0
LINE
  8
0
 10
-210.956
 20
-31.1558
 11
-211.093
 21
-31.0268
  0
LINE
  8
0
 10
-211.093
 20
-31.0268
 11
-211.214
 21
-30.8817
  0
LINE
  8
0
 10
-211.214
 20
-30.8817
 11
-211.314
 21
-30.7226
  0
LINE
  8
0
 10
-211.314
 20
-30.7226
 11
-211.395
 21
-30.5522
  0
LINE
  8
0
 10
-211.395
 20
-30.5522
 11
-211.453
 21
-30.373
  0
LINE
  8
0
 10
-211.453
 20
-30.373
 11
-211.488
 21
-30.188
  0
LINE
  8
0
 10
-211.488
 20
-30.188
 11
-211.5
 21
-30
  0
LINE
  8
0
 10
-211.5
 20
-30
 11
-211.488
 21
-29.812
  0
LINE
  8
0
 10
-211.488
 20
-29.812
 11
-211.453
 21
-29.627
  0
LINE
  8
0
 10
-211.453
 20
-29.627
 11
-211.395
 21
-29.4478
  0
LINE
  8
0
 10
-211.395
 20
-29.4478
 11
-211.314
 21
-29.2774
  0
LINE
  8
0
 10
-211.314
 20
-29.2774
 11
-211.214
 21
-29.1183
  0
LINE
  8
0
 10
-211.214
 20
-29.1183
 11
-211.093
 21
-28.9732
  0
LINE
  8
0
 10
-211.093
 20
-28.9732
 11
-210.956
 21
-28.8442
  0
LINE
  8
0
 10
-210.956
 20
-28.8442
 11
-210.804
 21
-28.7335
  0
LINE
  8
0
 10
-210.804
 20
-28.7335
 11
-210.639
 21
-28.6427
  0
LINE
  8
0
 10
-210.639
 20
-28.6427
 11
-210.464
 21
-28.5734
  0
LINE
  8
0
 10
-210.464
 20
-28.5734
 11
-210.281
 21
-28.5266
  0
LINE
  8
0
 10
-210.281
 20
-28.5266
 11
-210.094
 21
-28.503
  0
LINE
  8
0
 10
-210.094
 20
-28.503
 11
-209.906
 21
-28.503
  0
LINE
  8
0
 10
-209.906
 20
-28.503
 11
-209.719
 21
-28.5266
  0
LINE
  8
0
 10
-209.719
 20
-28.5266
 11
-209.536
 21
-28.5734
  0
LINE
  8
0
 10
-209.536
 20
-28.5734
 11
-209.361
 21
-28.6427
  0
LINE
  8
0
 10
-209.361
 20
-28.6427
 11
-209.196
 21
-28.7335
  0
LINE
  8
0
 10
-209.196
 20
-28.7335
 11
-209.044
 21
-28.8442
  0
LINE
  8
0
 10
-209.044
 20
-28.8442
 11
-208.907
 21
-28.9732
  0
LINE
  8
0
 10
-208.907
 20
-28.9732
 11
-208.786
 21
-29.1183
  0
LINE
  8
0
 10
-208.786
 20
-29.1183
 11
-208.686
 21
-29.2774
  0
LINE
  8
0
 10
-208.686
 20
-29.2774
 11
-208.605
 21
-29.4478
  0
LINE
  8
0
 10
-208.605
 20
-29.4478
 11
-208.547
 21
-29.627
  0
LINE
  8
0
 10
-208.547
 20
-29.627
 11
-208.512
 21
-29.812
  0
LINE
  8
0
 10
-208.512
 20
-29.812
 11
-208.5
 21
-30
  0
LINE
  8
0
 10
-208.5
 20
-30
 11
-208.512
 21
-30.188
  0
LINE
  8
0
 10
-208.512
 20
-30.188
 11
-208.547
 21
-30.373
  0
LINE
  8
0
 10
-208.547
 20
-30.373
 11
-208.605
 21
-30.5522
  0
LINE
  8
0
 10
-208.605
 20
-30.5522
 11
-208.686
 21
-30.7226
  0
LINE
  8
0
 10
-208.686
 20
-30.7226
 11
-208.786
 21
-30.8817
  0
LINE
  8
0
 10
-208.786
 20
-30.8817
 11
-208.907
 21
-31.0268
  0
LINE
  8
0
 10
-208.907
 20
-31.0268
 11
-209.044
 21
-31.1558
  0
LINE
  8
0
 10
-209.044
 20
-31.1558
 11
-209.196
 21
-31.2665
  0
LINE
  8
0
 10
-209.196
 20
-31.2665
 11
-209.361
 21
-31.3572
  0
LINE
  8
0
 10
-209.361
 20
-31.3572
 11
-209.536
 21
-31.4266
  0
LINE
  8
0
 10
-209.536
 20
-31.4266
 11
-209.719
 21
-31.4734
  0
LINE
  8
0
 10
-209.719
 20
-31.4734
 11
-209.906
 21
-31.497
  0
LINE
  8
0
 10
-209.906
 20
-31.497
 11
-210.094
 21
-31.497
  0
LINE
  8
0
 10
209.906
 20
-31.497
 11
209.719
 21
-31.4734
  0
LINE
  8
0
 10
209.719
 20
-31.4734
 11
209.536
 21
-31.4266
  0
LINE
  8
0
 10
209.536
 20
-31.4266
 11
209.361
 21
-31.3572
  0
LINE
  8
0
 10
209.361
 20
-31.3572
 11
209.196
 21
-31.2665
  0
LINE
  8
0
 10
209.196
 20
-31.2665
 11
209.044
 21
-31.1558
  0
LINE
  8
0
 10
209.044
 20
-31.1558
 11
208.907
 21
-31.0268
  0
LINE
  8
0
 10
208.907
 20
-31.0268
 11
208.786
 21
-30.8817
  0
LINE
  8
0
 10
208.786
 20
-30.8817
 11
208.686
 21
-30.7226
  0
LINE
  8
0
 10
208.686
 20
-30.7226
 11
208.605
 21
-30.5522
  0
LINE
  8
0
 10
208.605
 20
-30.5522
 11
208.547
 21
-30.373
  0
LINE
  8
0
 10
208.547
 20
-30.373
 11
208.512
 21
-30.188
  0
LINE
  8
0
 10
208.512
 20
-30.188
 11
208.5
 21
-30
  0
LINE
  8
0
 10
208.5
 20
-30
 11
208.512
 21
-29.812
  0
LINE
  8
0
 10
208.512
 20
-29.812
 11
208.547
 21
-29.627
  0
LINE
  8
0
 10
208.547
 20
-29.627
 11
208.605
 21
-29.4478
  0
LINE
  8
0
 10
208.605
 20
-29.4478
 11
208.686
 21
-29.2774
  0
LINE
  8
0
 10
208.686
 20
-29.2774
 11
208.786
 21
-29.1183
  0
LINE
  8
0
 10
208.786
 20
-29.1183
 11
208.907
 21
-28.9732
  0
LINE
  8
0
 10
208.907
 20
-28.9732
 11
209.044
 21
-28.8442
  0
LINE
  8
0
 10
209.044
 20
-28.8442
 11
209.196
 21
-28.7335
  0
LINE
  8
0
 10
209.196
 20
-28.7335
 11
209.361
 21
-28.6427
  0
LINE
  8
0
 10
209.361
 20
-28.6427
 11
209.536
 21
-28.5734
  0
LINE
  8
0
 10
209.536
 20
-28.5734
 11
209.719
 21
-28.5266
  0
LINE
  8
0
 10
209.719
 20
-28.5266
 11
209.906
 21
-28.503
  0
LINE
  8
0
 10
209.906
 20
-28.503
 11
210.094
 21
-28.503
  0
LINE
  8
0
 10
210.094
 20
-28.503
 11
210.281
 21
-28.5266
  0
LINE
  8
0
 10
210.281
 20
-28.5266
 11
210.464
 21
-28.5734
  0
LINE
  8
0
 10
210.464
 20
-28.5734
 11
210.639
 21
-28.6427
  0
LINE
  8
0
 10
210.639
 20
-28.6427
 11
210.804
 21
-28.7335
  0
LINE
  8
0
 10
210.804
 20
-28.7335
 11
210.956
 21
-28.8442
  0
LINE
  8
0
 10
210.956
 20
-28.8442
 11
211.093
 21
-28.9732
  0
LINE
  8
0
 10
211.093
 20
-28.9732
 11
211.214
 21
-29.1183
  0
LINE
  8
0
 10
211.214
 20
-29.1183
 11
211.314
 21
-29.2774
  0
LINE
  8
0
 10
211.314
 20
-29.2774
 11
211.395
 21
-29.4478
  0
LINE
  8
0
 10
211.395
 20
-29.4478
 11
211.453
 21
-29.627
  0
LINE
  8
0
 10
211.453
 20
-29.627
 11
211.488
 21
-29.812
  0
LINE
  8
0
 10
211.488
 20
-29.812
 11
211.5
 21
-30
  0
LINE
  8
0
 10
211.5
 20
-30
 11
211.488
 21
-30.188
  0
LINE
  8
0
 10
211.488
 20
-30.188
 11
211.453
 21
-30.373
  0
LINE
  8
0
 10
211.453
 20
-30.373
 11
211.395
 21
-30.5522
  0
LINE
  8
0
 10
211.395
 20
-30.5522
 11
211.314
 21
-30.7226
  0
LINE
  8
0
 10
211.314
 20
-30.7226
 11
211.214
 21
-30.8817
  0
LINE
  8
0
 10
211.214
 20
-30.8817
 11
211.093
 21
-31.0268
  0
LINE
  8
0
 10
211.093
 20
-31.0268
 11
210.956
 21
-31.1558
  0
LINE
  8
0
 10
210.956
 20
-31.1558
 11
210.804
 21
-31.2665
  0
LINE
  8
0
 10
210.804
 20
-31.2665
 11
210.639
 21
-31.3572
  0
LINE
  8
0
 10
210.639
 20
-31.3572
 11
210.464
 21
-31.4266
  0
LINE
  8
0
 10
210.464
 20
-31.4266
 11
210.281
 21
-31.4734
  0
LINE
  8
0
 10
210.281
 20
-31.4734
 11
210.094
 21
-31.497
  0
LINE
  8
0
 10
210.094
 20
-31.497
 11
209.906
 21
-31.497
  0
LINE
  8
0
 10
-210.188
 20
-40.4941
 11
-210.562
 21
-40.4469
  0
LINE
  8
0
 10
-210.562
 20
-40.4469
 11
-210.927
 21
-40.3532
  0
LINE
  8
0
 10
-210.927
 20
-40.3532
 11
-211.277
 21
-40.2145
  0
LINE
  8
0
 10
-211.277
 20
-40.2145
 11
-211.607
 21
-40.033
  0
LINE
  8
0
 10
-211.607
 20
-40.033
 11
-211.912
 21
-39.8115
  0
LINE
  8
0
 10
-211.912
 20
-39.8115
 11
-212.187
 21
-39.5536
  0
LINE
  8
0
 10
-212.187
 20
-39.5536
 11
-212.427
 21
-39.2634
  0
LINE
  8
0
 10
-212.427
 20
-39.2634
 11
-212.629
 21
-38.9453
  0
LINE
  8
0
 10
-212.629
 20
-38.9453
 11
-212.789
 21
-38.6044
  0
LINE
  8
0
 10
-212.789
 20
-38.6044
 11
-212.906
 21
-38.2461
  0
LINE
  8
0
 10
-212.906
 20
-38.2461
 11
-212.976
 21
-37.876
  0
LINE
  8
0
 10
-212.976
 20
-37.876
 11
-213
 21
-37.5
  0
LINE
  8
0
 10
-213
 20
-37.5
 11
-212.976
 21
-37.124
  0
LINE
  8
0
 10
-212.976
 20
-37.124
 11
-212.906
 21
-36.7539
  0
LINE
  8
0
 10
-212.906
 20
-36.7539
 11
-212.789
 21
-36.3956
  0
LINE
  8
0
 10
-212.789
 20
-36.3956
 11
-212.629
 21
-36.0547
  0
LINE
  8
0
 10
-212.629
 20
-36.0547
 11
-212.427
 21
-35.7366
  0
LINE
  8
0
 10
-212.427
 20
-35.7366
 11
-212.187
 21
-35.4464
  0
LINE
  8
0
 10
-212.187
 20
-35.4464
 11
-211.912
 21
-35.1885
  0
LINE
  8
0
 10
-211.912
 20
-35.1885
 11
-211.607
 21
-34.967
  0
LINE
  8
0
 10
-211.607
 20
-34.967
 11
-211.277
 21
-34.7855
  0
LINE
  8
0
 10
-211.277
 20
-34.7855
 11
-210.927
 21
-34.6468
  0
LINE
  8
0
 10
-210.927
 20
-34.6468
 11
-210.562
 21
-34.5531
  0
LINE
  8
0
 10
-210.562
 20
-34.5531
 11
-210.188
 21
-34.5059
  0
LINE
  8
0
 10
-210.188
 20
-34.5059
 11
-209.812
 21
-34.5059
  0
LINE
  8
0
 10
-209.812
 20
-34.5059
 11
-209.438
 21
-34.5531
  0
LINE
  8
0
 10
-209.438
 20
-34.5531
 11
-209.073
 21
-34.6468
  0
LINE
  8
0
 10
-209.073
 20
-34.6468
 11
-208.723
 21
-34.7855
  0
LINE
  8
0
 10
-208.723
 20
-34.7855
 11
-208.393
 21
-34.967
  0
LINE
  8
0
 10
-208.393
 20
-34.967
 11
-208.088
 21
-35.1885
  0
LINE
  8
0
 10
-208.088
 20
-35.1885
 11
-207.813
 21
-35.4464
  0
LINE
  8
0
 10
-207.813
 20
-35.4464
 11
-207.573
 21
-35.7366
  0
LINE
  8
0
 10
-207.573
 20
-35.7366
 11
-207.371
 21
-36.0547
  0
LINE
  8
0
 10
-207.371
 20
-36.0547
 11
-207.211
 21
-36.3956
  0
LINE
  8
0
 10
-207.211
 20
-36.3956
 11
-207.094
 21
-36.7539
  0
LINE
  8
0
 10
-207.094
 20
-36.7539
 11
-207.024
 21
-37.124
  0
LINE
  8
0
 10
-207.024
 20
-37.124
 11
-207
 21
-37.5
  0
LINE
  8
0
 10
-207
 20
-37.5
 11
-207.024
 21
-37.876
  0
LINE
  8
0
 10
-207.024
 20
-37.876
 11
-207.094
 21
-38.2461
  0
LINE
  8
0
 10
-207.094
 20
-38.2461
 11
-207.211
 21
-38.6044
  0
LINE
  8
0
 10
-207.211
 20
-38.6044
 11
-207.371
 21
-38.9453
  0
LINE
  8
0
 10
-207.371
 20
-38.9453
 11
-207.573
 21
-39.2634
  0
LINE
  8
0
 10
-207.573
 20
-39.2634
 11
-207.813
 21
-39.5536
  0
LINE
  8
0
 10
-207.813
 20
-39.5536
 11
-208.088
 21
-39.8115
  0
LINE
  8
0
 10
-208.088
 20
-39.8115
 11
-208.393
 21
-40.033
  0
LINE
  8
0
 10
-208.393
 20
-40.033
 11
-208.723
 21
-40.2145
  0
LINE
  8
0
 10
-208.723
 20
-40.2145
 11
-209.073
 21
-40.3532
  0
LINE
  8
0
 10
-209.073
 20
-40.3532
 11
-209.438
 21
-40.4469
  0
LINE
  8
0
 10
-209.438
 20
-40.4469
 11
-209.812
 21
-40.4941
  0
LINE
  8
0
 10
-209.812
 20
-40.4941
 11
-210.188
 21
-40.4941
  0
LINE
  8
0
 10
209.812
 20
-40.4941
 11
209.438
 21
-40.4469
  0
LINE
  8
0
 10
209.438
 20
-40.4469
 11
209.073
 21
-40.3532
  0
LINE
  8
0
 10
209.073
 20
-40.3532
 11
208.723
 21
-40.2145
  0
LINE
  8
0
 10
208.723
 20
-40.2145
 11
208.393
 21
-40.033
  0
LINE
  8
0
 10
208.393
 20
-40.033
 11
208.088
 21
-39.8115
  0
LINE
  8
0
 10
208.088
 20
-39.8115
 11
207.813
 21
-39.5536
  0
LINE
  8
0
 10
207.813
 20
-39.5536
 11
207.573
 21
-39.2634
  0
LINE
  8
0
 10
207.573
 20
-39.2634
 11
207.371
 21
-38.9453
  0
LINE
  8
0
 10
207.371
 20
-38.9453
 11
207.211
 21
-38.6044
  0
LINE
  8
0
 10
207.211
 20
-38.6044
 11
207.094
 21
-38.2461
  0
LINE
  8
0
 10
207.094
 20
-38.2461
 11
207.024
 21
-37.876
  0
LINE
  8
0
 10
207.024
 20
-37.876
 11
207
 21
-37.5
  0
LINE
  8
0
 10
207
 20
-37.5
 11
207.024
 21
-37.124
  0
LINE
  8
0
 10
207.024
 20
-37.124
 11
207.094
 21
-36.7539
  0
LINE
  8
0
 10
207.094
 20
-36.7539
 11
207.211
 21
-36.3956
  0
LINE
  8
0
 10
207.211
 20
-36.3956
 11
207.371
 21
-36.0547
  0
LINE
  8
0
 10
207.371
 20
-36.0547
 11
207.573
 21
-35.7366
  0
LINE
  8
0
 10
207.573
 20
-35.7366
 11
207.813
 21
-35.4464
  0
LINE
  8
0
 10
207.813
 20
-35.4464
 11
208.088
 21
-35.1885
  0
LINE
  8
0
 10
208.088
 20
-35.1885
 11
208.393
 21
-34.967
  0
LINE
  8
0
 10
208.393
 20
-34.967
 11
208.723
 21
-34.7855
  0
LINE
  8
0
 10
208.723
 20
-34.7855
 11
209.073
 21
-34.6468
  0
LINE
  8
0
 10
209.073
 20
-34.6468
 11
209.438
 21
-34.5531
  0
LINE
  8
0
 10
209.438
 20
-34.5531
 11
209.812
 21
-34.5059
  0
LINE
  8
0
 10
209.812
 20
-34.5059
 11
210.188
 21
-34.5059
  0
LINE
  8
0
 10
210.188
 20
-34.5059
 11
210.562
 21
-34.5531
  0
LINE
  8
0
 10
210.562
 20
-34.5531
 11
210.927
 21
-34.6468
  0
LINE
  8
0
 10
210.927
 20
-34.6468
 11
211.277
 21
-34.7855
  0
LINE
  8
0
 10
211.277
 20
-34.7855
 11
211.607
 21
-34.967
  0
LINE
  8
0
 10
211.607
 20
-34.967
 11
211.912
 21
-35.1885
  0
LINE
  8
0
 10
211.912
 20
-35.1885
 11
212.187
 21
-35.4464
  0
LINE
  8
0
 10
212.187
 20
-35.4464
 11
212.427
 21
-35.7366
  0
LINE
  8
0
 10
212.427
 20
-35.7366
 11
212.629
 21
-36.0547
  0
LINE
  8
0
 10
212.629
 20
-36.0547
 11
212.789
 21
-36.3956
  0
LINE
  8
0
 10
212.789
 20
-36.3956
 11
212.906
 21
-36.7539
  0
LINE
  8
0
 10
212.906
 20
-36.7539
 11
212.976
 21
-37.124
  0
LINE
  8
0
 10
212.976
 20
-37.124
 11
213
 21
-37.5
  0
LINE
  8
0
 10
213
 20
-37.5
 11
212.976
 21
-37.876
  0
LINE
  8
0
 10
212.976
 20
-37.876
 11
212.906
 21
-38.2461
  0
LINE
  8
0
 10
212.906
 20
-38.2461
 11
212.789
 21
-38.6044
  0
LINE
  8
0
 10
212.789
 20
-38.6044
 11
212.629
 21
-38.9453
  0
LINE
  8
0
 10
212.629
 20
-38.9453
 11
212.427
 21
-39.2634
  0
LINE
  8
0
 10
212.427
 20
-39.2634
 11
212.187
 21
-39.5536
  0
LINE
  8
0
 10
212.187
 20
-39.5536
 11
211.912
 21
-39.8115
  0
LINE
  8
0
 10
211.912
 20
-39.8115
 11
211.607
 21
-40.033
  0
LINE
  8
0
 10
211.607
 20
-40.033
 11
211.277
 21
-40.2145
  0
LINE
  8
0
 10
211.277
 20
-40.2145
 11
210.927
 21
-40.3532
  0
LINE
  8
0
 10
210.927
 20
-40.3532
 11
210.562
 21
-40.4469
  0
LINE
  8
0
 10
210.562
 20
-40.4469
 11
210.188
 21
-40.4941
  0
LINE
  8
0
 10
210.188
 20
-40.4941
 11
209.812
 21
-40.4941
  0
ENDSEC
  0
SECTION
  2
OBJECTS
  0
DICTIONARY
  0
ENDSEC
  0
EOF
