  0
SECTION
  2
BLOCKS
  0
ENDSEC
  0
SECTION
  2
ENTITIES
  0
LINE
  8
0
 10
92.9369
 20
-21.9114
 11
93.5451
 21
-21.7553
  0
LINE
  8
0
 10
93.5451
 20
-21.7553
 11
94.1289
 21
-21.5241
  0
LINE
  8
0
 10
94.1289
 20
-21.5241
 11
94.6791
 21
-21.2216
  0
LINE
  8
0
 10
94.6791
 20
-21.2216
 11
95.1871
 21
-20.8526
  0
LINE
  8
0
 10
95.1871
 20
-20.8526
 11
95.6448
 21
-20.4227
  0
LINE
  8
0
 10
95.6448
 20
-20.4227
 11
96.0451
 21
-19.9389
  0
LINE
  8
0
 10
96.0451
 20
-19.9389
 11
96.3815
 21
-19.4088
  0
LINE
  8
0
 10
96.3815
 20
-19.4088
 11
96.6489
 21
-18.8406
  0
LINE
  8
0
 10
96.6489
 20
-18.8406
 11
96.8429
 21
-18.2434
  0
LINE
  8
0
 10
96.8429
 20
-18.2434
 11
96.9606
 21
-17.6267
  0
LINE
  8
0
 10
96.9606
 20
-17.6267
 11
97
 21
-17
  0
LINE
  8
0
 10
97
 20
-17
 11
97
 21
17
  0
LINE
  8
0
 10
97
 20
17
 11
96.9606
 21
17.6267
  0
LINE
  8
0
 10
96.9606
 20
17.6267
 11
96.8429
 21
18.2434
  0
LINE
  8
0
 10
96.8429
 20
18.2434
 11
96.6489
 21
18.8406
  0
LINE
  8
0
 10
96.6489
 20
18.8406
 11
96.3815
 21
19.4088
  0
LINE
  8
0
 10
96.3815
 20
19.4088
 11
96.0451
 21
19.9389
  0
LINE
  8
0
 10
96.0451
 20
19.9389
 11
95.6448
 21
20.4227
  0
LINE
  8
0
 10
95.6448
 20
20.4227
 11
95.1871
 21
20.8526
  0
LINE
  8
0
 10
95.1871
 20
20.8526
 11
94.6791
 21
21.2216
  0
LINE
  8
0
 10
94.6791
 20
21.2216
 11
94.1289
 21
21.5241
  0
LINE
  8
0
 10
94.1289
 20
21.5241
 11
93.5451
 21
21.7553
  0
LINE
  8
0
 10
93.5451
 20
21.7553
 11
92.9369
 21
21.9114
  0
LINE
  8
0
 10
92.9369
 20
21.9114
 11
92.3139
 21
21.9901
  0
LINE
  8
0
 10
92.3139
 20
21.9901
 11
-92.3139
 21
21.9901
  0
LINE
  8
0
 10
-92.3139
 20
21.9901
 11
-92.9369
 21
21.9114
  0
LINE
  8
0
 10
-92.9369
 20
21.9114
 11
-93.5451
 21
21.7553
  0
LINE
  8
0
 10
-93.5451
 20
21.7553
 11
-94.1289
 21
21.5241
  0
LINE
  8
0
 10
-94.1289
 20
21.5241
 11
-94.6791
 21
21.2216
  0
LINE
  8
0
 10
-94.6791
 20
21.2216
 11
-95.1871
 21
20.8526
  0
LINE
  8
0
 10
-95.1871
 20
20.8526
 11
-95.6448
 21
20.4227
  0
LINE
  8
0
 10
-95.6448
 20
20.4227
 11
-96.0451
 21
19.9389
  0
LINE
  8
0
 10
-96.0451
 20
19.9389
 11
-96.3815
 21
19.4088
  0
LINE
  8
0
 10
-96.3815
 20
19.4088
 11
-96.6489
 21
18.8406
  0
LINE
  8
0
 10
-96.6489
 20
18.8406
 11
-96.8429
 21
18.2434
  0
LINE
  8
0
 10
-96.8429
 20
18.2434
 11
-96.9606
 21
17.6267
  0
LINE
  8
0
 10
-96.9606
 20
17.6267
 11
-97
 21
17
  0
LINE
  8
0
 10
-97
 20
17
 11
-97
 21
-17
  0
LINE
  8
0
 10
-97
 20
-17
 11
-96.9606
 21
-17.6267
  0
LINE
  8
0
 10
-96.9606
 20
-17.6267
 11
-96.8429
 21
-18.2434
  0
LINE
  8
0
 10
-96.8429
 20
-18.2434
 11
-96.6489
 21
-18.8406
  0
LINE
  8
0
 10
-96.6489
 20
-18.8406
 11
-96.3815
 21
-19.4088
  0
LINE
  8
0
 10
-96.3815
 20
-19.4088
 11
-96.0451
 21
-19.9389
  0
LINE
  8
0
 10
-96.0451
 20
-19.9389
 11
-95.6448
 21
-20.4227
  0
LINE
  8
0
 10
-95.6448
 20
-20.4227
 11
-95.1871
 21
-20.8526
  0
LINE
  8
0
 10
-95.1871
 20
-20.8526
 11
-94.6791
 21
-21.2216
  0
LINE
  8
0
 10
-94.6791
 20
-21.2216
 11
-94.1289
 21
-21.5241
  0
LINE
  8
0
 10
-94.1289
 20
-21.5241
 11
-93.5451
 21
-21.7553
  0
LINE
  8
0
 10
-93.5451
 20
-21.7553
 11
-92.9369
 21
-21.9114
  0
LINE
  8
0
 10
-92.9369
 20
-21.9114
 11
-92.3139
 21
-21.9901
  0
LINE
  8
0
 10
-92.3139
 20
-21.9901
 11
92.3139
 21
-21.9901
  0
LINE
  8
0
 10
92.3139
 20
-21.9901
 11
92.9369
 21
-21.9114
  0
LINE
  8
0
 10
89.8116
 20
12.0059
 11
89.4379
 21
12.0531
  0
LINE
  8
0
 10
89.4379
 20
12.0531
 11
89.073
 21
12.1468
  0
LINE
  8
0
 10
89.073
 20
12.1468
 11
88.7227
 21
12.2855
  0
LINE
  8
0
 10
88.7227
 20
12.2855
 11
88.3925
 21
12.467
  0
LINE
  8
0
 10
88.3925
 20
12.467
 11
88.0877
 21
12.6884
  0
LINE
  8
0
 10
88.0877
 20
12.6884
 11
87.8131
 21
12.9464
  0
LINE
  8
0
 10
87.8131
 20
12.9464
 11
87.573
 21
13.2366
  0
LINE
  8
0
 10
87.573
 20
13.2366
 11
87.3711
 21
13.5547
  0
LINE
  8
0
 10
87.3711
 20
13.5547
 11
87.2107
 21
13.8956
  0
LINE
  8
0
 10
87.2107
 20
13.8956
 11
87.0943
 21
14.2539
  0
LINE
  8
0
 10
87.0943
 20
14.2539
 11
87.0237
 21
14.624
  0
LINE
  8
0
 10
87.0237
 20
14.624
 11
87
 21
15
  0
LINE
  8
0
 10
87
 20
15
 11
87.0237
 21
15.376
  0
LINE
  8
0
 10
87.0237
 20
15.376
 11
87.0943
 21
15.7461
  0
LINE
  8
0
 10
87.0943
 20
15.7461
 11
87.2107
 21
16.1044
  0
LINE
  8
0
 10
87.2107
 20
16.1044
 11
87.3711
 21
16.4453
  0
LINE
  8
0
 10
87.3711
 20
16.4453
 11
87.573
 21
16.7634
  0
LINE
  8
0
 10
87.573
 20
16.7634
 11
87.8131
 21
17.0536
  0
LINE
  8
0
 10
87.8131
 20
17.0536
 11
88.0877
 21
17.3115
  0
LINE
  8
0
 10
88.0877
 20
17.3115
 11
88.3925
 21
17.533
  0
LINE
  8
0
 10
88.3925
 20
17.533
 11
88.7227
 21
17.7145
  0
LINE
  8
0
 10
88.7227
 20
17.7145
 11
89.073
 21
17.8532
  0
LINE
  8
0
 10
89.073
 20
17.8532
 11
89.4379
 21
17.9469
  0
LINE
  8
0
 10
89.4379
 20
17.9469
 11
89.8116
 21
17.9941
  0
LINE
  8
0
 10
89.8116
 20
17.9941
 11
90.1884
 21
17.9941
  0
LINE
  8
0
 10
90.1884
 20
17.9941
 11
90.5621
 21
17.9469
  0
LINE
  8
0
 10
90.5621
 20
17.9469
 11
90.927
 21
17.8532
  0
LINE
  8
0
 10
90.927
 20
17.8532
 11
91.2773
 21
17.7145
  0
LINE
  8
0
 10
91.2773
 20
17.7145
 11
91.6075
 21
17.533
  0
LINE
  8
0
 10
91.6075
 20
17.533
 11
91.9123
 21
17.3115
  0
LINE
  8
0
 10
91.9123
 20
17.3115
 11
92.1869
 21
17.0536
  0
LINE
  8
0
 10
92.1869
 20
17.0536
 11
92.427
 21
16.7634
  0
LINE
  8
0
 10
92.427
 20
16.7634
 11
92.6289
 21
16.4453
  0
LINE
  8
0
 10
92.6289
 20
16.4453
 11
92.7893
 21
16.1044
  0
LINE
  8
0
 10
92.7893
 20
16.1044
 11
92.9057
 21
15.7461
  0
LINE
  8
0
 10
92.9057
 20
15.7461
 11
92.9763
 21
15.376
  0
LINE
  8
0
 10
92.9763
 20
15.376
 11
93
 21
15
  0
LINE
  8
0
 10
93
 20
15
 11
92.9763
 21
14.624
  0
LINE
  8
0
 10
92.9763
 20
14.624
 11
92.9057
 21
14.2539
  0
LINE
  8
0
 10
92.9057
 20
14.2539
 11
92.7893
 21
13.8956
  0
LINE
  8
0
 10
92.7893
 20
13.8956
 11
92.6289
 21
13.5547
  0
LINE
  8
0
 10
92.6289
 20
13.5547
 11
92.427
 21
13.2366
  0
LINE
  8
0
 10
92.427
 20
13.2366
 11
92.1869
 21
12.9464
  0
LINE
  8
0
 10
92.1869
 20
12.9464
 11
91.9123
 21
12.6884
  0
LINE
  8
0
 10
91.9123
 20
12.6884
 11
91.6075
 21
12.467
  0
LINE
  8
0
 10
91.6075
 20
12.467
 11
91.2773
 21
12.2855
  0
LINE
  8
0
 10
91.2773
 20
12.2855
 11
90.927
 21
12.1468
  0
LINE
  8
0
 10
90.927
 20
12.1468
 11
90.5621
 21
12.0531
  0
LINE
  8
0
 10
90.5621
 20
12.0531
 11
90.1884
 21
12.0059
  0
LINE
  8
0
 10
90.1884
 20
12.0059
 11
89.8116
 21
12.0059
  0
LINE
  8
0
 10
-90.1884
 20
12.0059
 11
-90.5621
 21
12.0531
  0
LINE
  8
0
 10
-90.5621
 20
12.0531
 11
-90.927
 21
12.1468
  0
LINE
  8
0
 10
-90.927
 20
12.1468
 11
-91.2773
 21
12.2855
  0
LINE
  8
0
 10
-91.2773
 20
12.2855
 11
-91.6075
 21
12.467
  0
LINE
  8
0
 10
-91.6075
 20
12.467
 11
-91.9123
 21
12.6884
  0
LINE
  8
0
 10
-91.9123
 20
12.6884
 11
-92.1869
 21
12.9464
  0
LINE
  8
0
 10
-92.1869
 20
12.9464
 11
-92.427
 21
13.2366
  0
LINE
  8
0
 10
-92.427
 20
13.2366
 11
-92.6289
 21
13.5547
  0
LINE
  8
0
 10
-92.6289
 20
13.5547
 11
-92.7893
 21
13.8956
  0
LINE
  8
0
 10
-92.7893
 20
13.8956
 11
-92.9057
 21
14.2539
  0
LINE
  8
0
 10
-92.9057
 20
14.2539
 11
-92.9763
 21
14.624
  0
LINE
  8
0
 10
-92.9763
 20
14.624
 11
-93
 21
15
  0
LINE
  8
0
 10
-93
 20
15
 11
-92.9763
 21
15.376
  0
LINE
  8
0
 10
-92.9763
 20
15.376
 11
-92.9057
 21
15.7461
  0
LINE
  8
0
 10
-92.9057
 20
15.7461
 11
-92.7893
 21
16.1044
  0
LINE
  8
0
 10
-92.7893
 20
16.1044
 11
-92.6289
 21
16.4453
  0
LINE
  8
0
 10
-92.6289
 20
16.4453
 11
-92.427
 21
16.7634
  0
LINE
  8
0
 10
-92.427
 20
16.7634
 11
-92.1869
 21
17.0536
  0
LINE
  8
0
 10
-92.1869
 20
17.0536
 11
-91.9123
 21
17.3115
  0
LINE
  8
0
 10
-91.9123
 20
17.3115
 11
-91.6075
 21
17.533
  0
LINE
  8
0
 10
-91.6075
 20
17.533
 11
-91.2773
 21
17.7145
  0
LINE
  8
0
 10
-91.2773
 20
17.7145
 11
-90.927
 21
17.8532
  0
LINE
  8
0
 10
-90.927
 20
17.8532
 11
-90.5621
 21
17.9469
  0
LINE
  8
0
 10
-90.5621
 20
17.9469
 11
-90.1884
 21
17.9941
  0
LINE
  8
0
 10
-90.1884
 20
17.9941
 11
-89.8116
 21
17.9941
  0
LINE
  8
0
 10
-89.8116
 20
17.9941
 11
-89.4379
 21
17.9469
  0
LINE
  8
0
 10
-89.4379
 20
17.9469
 11
-89.073
 21
17.8532
  0
LINE
  8
0
 10
-89.073
 20
17.8532
 11
-88.7227
 21
17.7145
  0
LINE
  8
0
 10
-88.7227
 20
17.7145
 11
-88.3925
 21
17.533
  0
LINE
  8
0
 10
-88.3925
 20
17.533
 11
-88.0877
 21
17.3115
  0
LINE
  8
0
 10
-88.0877
 20
17.3115
 11
-87.8131
 21
17.0536
  0
LINE
  8
0
 10
-87.8131
 20
17.0536
 11
-87.573
 21
16.7634
  0
LINE
  8
0
 10
-87.573
 20
16.7634
 11
-87.3711
 21
16.4453
  0
LINE
  8
0
 10
-87.3711
 20
16.4453
 11
-87.2107
 21
16.1044
  0
LINE
  8
0
 10
-87.2107
 20
16.1044
 11
-87.0943
 21
15.7461
  0
LINE
  8
0
 10
-87.0943
 20
15.7461
 11
-87.0237
 21
15.376
  0
LINE
  8
0
 10
-87.0237
 20
15.376
 11
-87
 21
15
  0
LINE
  8
0
 10
-87
 20
15
 11
-87.0237
 21
14.624
  0
LINE
  8
0
 10
-87.0237
 20
14.624
 11
-87.0943
 21
14.2539
  0
LINE
  8
0
 10
-87.0943
 20
14.2539
 11
-87.2107
 21
13.8956
  0
LINE
  8
0
 10
-87.2107
 20
13.8956
 11
-87.3711
 21
13.5547
  0
LINE
  8
0
 10
-87.3711
 20
13.5547
 11
-87.573
 21
13.2366
  0
LINE
  8
0
 10
-87.573
 20
13.2366
 11
-87.8131
 21
12.9464
  0
LINE
  8
0
 10
-87.8131
 20
12.9464
 11
-88.0877
 21
12.6884
  0
LINE
  8
0
 10
-88.0877
 20
12.6884
 11
-88.3925
 21
12.467
  0
LINE
  8
0
 10
-88.3925
 20
12.467
 11
-88.7227
 21
12.2855
  0
LINE
  8
0
 10
-88.7227
 20
12.2855
 11
-89.073
 21
12.1468
  0
LINE
  8
0
 10
-89.073
 20
12.1468
 11
-89.4379
 21
12.0531
  0
LINE
  8
0
 10
-89.4379
 20
12.0531
 11
-89.8116
 21
12.0059
  0
LINE
  8
0
 10
-89.8116
 20
12.0059
 11
-90.1884
 21
12.0059
  0
LINE
  8
0
 10
72.9953
 20
-15.9684
 11
71.0019
 21
-15.7166
  0
LINE
  8
0
 10
71.0019
 20
-15.7166
 11
69.0557
 21
-15.2169
  0
LINE
  8
0
 10
69.0557
 20
-15.2169
 11
67.1875
 21
-14.4772
  0
LINE
  8
0
 10
67.1875
 20
-14.4772
 11
65.4268
 21
-13.5092
  0
LINE
  8
0
 10
65.4268
 20
-13.5092
 11
63.8012
 21
-12.3282
  0
LINE
  8
0
 10
63.8012
 20
-12.3282
 11
62.3365
 21
-10.9527
  0
LINE
  8
0
 10
62.3365
 20
-10.9527
 11
61.0557
 21
-9.40456
  0
LINE
  8
0
 10
61.0557
 20
-9.40456
 11
59.9791
 21
-7.70805
  0
LINE
  8
0
 10
59.9791
 20
-7.70805
 11
59.1236
 21
-5.88998
  0
LINE
  8
0
 10
59.1236
 20
-5.88998
 11
58.5027
 21
-3.97903
  0
LINE
  8
0
 10
58.5027
 20
-3.97903
 11
58.1262
 21
-2.00533
  0
LINE
  8
0
 10
58.1262
 20
-2.00533
 11
58
 21
0
  0
LINE
  8
0
 10
58
 20
0
 11
58.1262
 21
2.00533
  0
LINE
  8
0
 10
58.1262
 20
2.00533
 11
58.5027
 21
3.97903
  0
LINE
  8
0
 10
58.5027
 20
3.97903
 11
59.1236
 21
5.88998
  0
LINE
  8
0
 10
59.1236
 20
5.88998
 11
59.9791
 21
7.70805
  0
LINE
  8
0
 10
59.9791
 20
7.70805
 11
61.0557
 21
9.40456
  0
LINE
  8
0
 10
61.0557
 20
9.40456
 11
62.3365
 21
10.9527
  0
LINE
  8
0
 10
62.3365
 20
10.9527
 11
63.8012
 21
12.3282
  0
LINE
  8
0
 10
63.8012
 20
12.3282
 11
65.4268
 21
13.5092
  0
LINE
  8
0
 10
65.4268
 20
13.5092
 11
67.1875
 21
14.4772
  0
LINE
  8
0
 10
67.1875
 20
14.4772
 11
69.0557
 21
15.2169
  0
LINE
  8
0
 10
69.0557
 20
15.2169
 11
71.0019
 21
15.7166
  0
LINE
  8
0
 10
71.0019
 20
15.7166
 11
72.9953
 21
15.9684
  0
LINE
  8
0
 10
72.9953
 20
15.9684
 11
75.0046
 21
15.9684
  0
LINE
  8
0
 10
75.0046
 20
15.9684
 11
76.9981
 21
15.7166
  0
LINE
  8
0
 10
76.9981
 20
15.7166
 11
78.9443
 21
15.2169
  0
LINE
  8
0
 10
78.9443
 20
15.2169
 11
80.8125
 21
14.4772
  0
LINE
  8
0
 10
80.8125
 20
14.4772
 11
82.5732
 21
13.5092
  0
LINE
  8
0
 10
82.5732
 20
13.5092
 11
84.1988
 21
12.3282
  0
LINE
  8
0
 10
84.1988
 20
12.3282
 11
85.6635
 21
10.9527
  0
LINE
  8
0
 10
85.6635
 20
10.9527
 11
86.9443
 21
9.40456
  0
LINE
  8
0
 10
86.9443
 20
9.40456
 11
88.0209
 21
7.70805
  0
LINE
  8
0
 10
88.0209
 20
7.70805
 11
88.8764
 21
5.88998
  0
LINE
  8
0
 10
88.8764
 20
5.88998
 11
89.4973
 21
3.97903
  0
LINE
  8
0
 10
89.4973
 20
3.97903
 11
89.8738
 21
2.00533
  0
LINE
  8
0
 10
89.8738
 20
2.00533
 11
90
 21
0
  0
LINE
  8
0
 10
90
 20
0
 11
89.8738
 21
-2.00533
  0
LINE
  8
0
 10
89.8738
 20
-2.00533
 11
89.4973
 21
-3.97903
  0
LINE
  8
0
 10
89.4973
 20
-3.97903
 11
88.8764
 21
-5.88998
  0
LINE
  8
0
 10
88.8764
 20
-5.88998
 11
88.0209
 21
-7.70805
  0
LINE
  8
0
 10
88.0209
 20
-7.70805
 11
86.9443
 21
-9.40456
  0
LINE
  8
0
 10
86.9443
 20
-9.40456
 11
85.6635
 21
-10.9527
  0
LINE
  8
0
 10
85.6635
 20
-10.9527
 11
84.1988
 21
-12.3282
  0
LINE
  8
0
 10
84.1988
 20
-12.3282
 11
82.5732
 21
-13.5092
  0
LINE
  8
0
 10
82.5732
 20
-13.5092
 11
80.8125
 21
-14.4772
  0
LINE
  8
0
 10
80.8125
 20
-14.4772
 11
78.9443
 21
-15.2169
  0
LINE
  8
0
 10
78.9443
 20
-15.2169
 11
76.9981
 21
-15.7166
  0
LINE
  8
0
 10
76.9981
 20
-15.7166
 11
75.0046
 21
-15.9684
  0
LINE
  8
0
 10
75.0046
 20
-15.9684
 11
72.9953
 21
-15.9684
  0
LINE
  8
0
 10
35.9953
 20
-15.9684
 11
34.0019
 21
-15.7166
  0
LINE
  8
0
 10
34.0019
 20
-15.7166
 11
32.0557
 21
-15.2169
  0
LINE
  8
0
 10
32.0557
 20
-15.2169
 11
30.1875
 21
-14.4772
  0
LINE
  8
0
 10
30.1875
 20
-14.4772
 11
28.4268
 21
-13.5092
  0
LINE
  8
0
 10
28.4268
 20
-13.5092
 11
26.8012
 21
-12.3282
  0
LINE
  8
0
 10
26.8012
 20
-12.3282
 11
25.3365
 21
-10.9527
  0
LINE
  8
0
 10
25.3365
 20
-10.9527
 11
24.0557
 21
-9.40456
  0
LINE
  8
0
 10
24.0557
 20
-9.40456
 11
22.9791
 21
-7.70805
  0
LINE
  8
0
 10
22.9791
 20
-7.70805
 11
22.1236
 21
-5.88998
  0
LINE
  8
0
 10
22.1236
 20
-5.88998
 11
21.5027
 21
-3.97903
  0
LINE
  8
0
 10
21.5027
 20
-3.97903
 11
21.1262
 21
-2.00533
  0
LINE
  8
0
 10
21.1262
 20
-2.00533
 11
21
 21
0
  0
LINE
  8
0
 10
21
 20
0
 11
21.1262
 21
2.00533
  0
LINE
  8
0
 10
21.1262
 20
2.00533
 11
21.5027
 21
3.97903
  0
LINE
  8
0
 10
21.5027
 20
3.97903
 11
22.1236
 21
5.88998
  0
LINE
  8
0
 10
22.1236
 20
5.88998
 11
22.9791
 21
7.70805
  0
LINE
  8
0
 10
22.9791
 20
7.70805
 11
24.0557
 21
9.40456
  0
LINE
  8
0
 10
24.0557
 20
9.40456
 11
25.3365
 21
10.9527
  0
LINE
  8
0
 10
25.3365
 20
10.9527
 11
26.8012
 21
12.3282
  0
LINE
  8
0
 10
26.8012
 20
12.3282
 11
28.4268
 21
13.5092
  0
LINE
  8
0
 10
28.4268
 20
13.5092
 11
30.1875
 21
14.4772
  0
LINE
  8
0
 10
30.1875
 20
14.4772
 11
32.0557
 21
15.2169
  0
LINE
  8
0
 10
32.0557
 20
15.2169
 11
34.0019
 21
15.7166
  0
LINE
  8
0
 10
34.0019
 20
15.7166
 11
35.9953
 21
15.9684
  0
LINE
  8
0
 10
35.9953
 20
15.9684
 11
38.0046
 21
15.9684
  0
LINE
  8
0
 10
38.0046
 20
15.9684
 11
39.9981
 21
15.7166
  0
LINE
  8
0
 10
39.9981
 20
15.7166
 11
41.9443
 21
15.2169
  0
LINE
  8
0
 10
41.9443
 20
15.2169
 11
43.8125
 21
14.4772
  0
LINE
  8
0
 10
43.8125
 20
14.4772
 11
45.5732
 21
13.5092
  0
LINE
  8
0
 10
45.5732
 20
13.5092
 11
47.1988
 21
12.3282
  0
LINE
  8
0
 10
47.1988
 20
12.3282
 11
48.6635
 21
10.9527
  0
LINE
  8
0
 10
48.6635
 20
10.9527
 11
49.9443
 21
9.40456
  0
LINE
  8
0
 10
49.9443
 20
9.40456
 11
51.0209
 21
7.70805
  0
LINE
  8
0
 10
51.0209
 20
7.70805
 11
51.8764
 21
5.88998
  0
LINE
  8
0
 10
51.8764
 20
5.88998
 11
52.4973
 21
3.97903
  0
LINE
  8
0
 10
52.4973
 20
3.97903
 11
52.8738
 21
2.00533
  0
LINE
  8
0
 10
52.8738
 20
2.00533
 11
53
 21
0
  0
LINE
  8
0
 10
53
 20
0
 11
52.8738
 21
-2.00533
  0
LINE
  8
0
 10
52.8738
 20
-2.00533
 11
52.4973
 21
-3.97903
  0
LINE
  8
0
 10
52.4973
 20
-3.97903
 11
51.8764
 21
-5.88998
  0
LINE
  8
0
 10
51.8764
 20
-5.88998
 11
51.0209
 21
-7.70805
  0
LINE
  8
0
 10
51.0209
 20
-7.70805
 11
49.9443
 21
-9.40456
  0
LINE
  8
0
 10
49.9443
 20
-9.40456
 11
48.6635
 21
-10.9527
  0
LINE
  8
0
 10
48.6635
 20
-10.9527
 11
47.1988
 21
-12.3282
  0
LINE
  8
0
 10
47.1988
 20
-12.3282
 11
45.5732
 21
-13.5092
  0
LINE
  8
0
 10
45.5732
 20
-13.5092
 11
43.8125
 21
-14.4772
  0
LINE
  8
0
 10
43.8125
 20
-14.4772
 11
41.9443
 21
-15.2169
  0
LINE
  8
0
 10
41.9443
 20
-15.2169
 11
39.9981
 21
-15.7166
  0
LINE
  8
0
 10
39.9981
 20
-15.7166
 11
38.0046
 21
-15.9684
  0
LINE
  8
0
 10
38.0046
 20
-15.9684
 11
35.9953
 21
-15.9684
  0
LINE
  8
0
 10
-75.0046
 20
-15.9684
 11
-76.9981
 21
-15.7166
  0
LINE
  8
0
 10
-76.9981
 20
-15.7166
 11
-78.9443
 21
-15.2169
  0
LINE
  8
0
 10
-78.9443
 20
-15.2169
 11
-80.8125
 21
-14.4772
  0
LINE
  8
0
 10
-80.8125
 20
-14.4772
 11
-82.5732
 21
-13.5092
  0
LINE
  8
0
 10
-82.5732
 20
-13.5092
 11
-84.1988
 21
-12.3282
  0
LINE
  8
0
 10
-84.1988
 20
-12.3282
 11
-85.6635
 21
-10.9527
  0
LINE
  8
0
 10
-85.6635
 20
-10.9527
 11
-86.9443
 21
-9.40456
  0
LINE
  8
0
 10
-86.9443
 20
-9.40456
 11
-88.0209
 21
-7.70805
  0
LINE
  8
0
 10
-88.0209
 20
-7.70805
 11
-88.8764
 21
-5.88998
  0
LINE
  8
0
 10
-88.8764
 20
-5.88998
 11
-89.4973
 21
-3.97903
  0
LINE
  8
0
 10
-89.4973
 20
-3.97903
 11
-89.8738
 21
-2.00533
  0
LINE
  8
0
 10
-89.8738
 20
-2.00533
 11
-90
 21
0
  0
LINE
  8
0
 10
-90
 20
0
 11
-89.8738
 21
2.00533
  0
LINE
  8
0
 10
-89.8738
 20
2.00533
 11
-89.4973
 21
3.97903
  0
LINE
  8
0
 10
-89.4973
 20
3.97903
 11
-88.8764
 21
5.88998
  0
LINE
  8
0
 10
-88.8764
 20
5.88998
 11
-88.0209
 21
7.70805
  0
LINE
  8
0
 10
-88.0209
 20
7.70805
 11
-86.9443
 21
9.40456
  0
LINE
  8
0
 10
-86.9443
 20
9.40456
 11
-85.6635
 21
10.9527
  0
LINE
  8
0
 10
-85.6635
 20
10.9527
 11
-84.1988
 21
12.3282
  0
LINE
  8
0
 10
-84.1988
 20
12.3282
 11
-82.5732
 21
13.5092
  0
LINE
  8
0
 10
-82.5732
 20
13.5092
 11
-80.8125
 21
14.4772
  0
LINE
  8
0
 10
-80.8125
 20
14.4772
 11
-78.9443
 21
15.2169
  0
LINE
  8
0
 10
-78.9443
 20
15.2169
 11
-76.9981
 21
15.7166
  0
LINE
  8
0
 10
-76.9981
 20
15.7166
 11
-75.0046
 21
15.9684
  0
LINE
  8
0
 10
-75.0046
 20
15.9684
 11
-72.9953
 21
15.9684
  0
LINE
  8
0
 10
-72.9953
 20
15.9684
 11
-71.0019
 21
15.7166
  0
LINE
  8
0
 10
-71.0019
 20
15.7166
 11
-69.0557
 21
15.2169
  0
LINE
  8
0
 10
-69.0557
 20
15.2169
 11
-67.1875
 21
14.4772
  0
LINE
  8
0
 10
-67.1875
 20
14.4772
 11
-65.4268
 21
13.5092
  0
LINE
  8
0
 10
-65.4268
 20
13.5092
 11
-63.8012
 21
12.3282
  0
LINE
  8
0
 10
-63.8012
 20
12.3282
 11
-62.3365
 21
10.9527
  0
LINE
  8
0
 10
-62.3365
 20
10.9527
 11
-61.0557
 21
9.40456
  0
LINE
  8
0
 10
-61.0557
 20
9.40456
 11
-59.9791
 21
7.70805
  0
LINE
  8
0
 10
-59.9791
 20
7.70805
 11
-59.1236
 21
5.88998
  0
LINE
  8
0
 10
-59.1236
 20
5.88998
 11
-58.5027
 21
3.97903
  0
LINE
  8
0
 10
-58.5027
 20
3.97903
 11
-58.1262
 21
2.00533
  0
LINE
  8
0
 10
-58.1262
 20
2.00533
 11
-58
 21
0
  0
LINE
  8
0
 10
-58
 20
0
 11
-58.1262
 21
-2.00533
  0
LINE
  8
0
 10
-58.1262
 20
-2.00533
 11
-58.5027
 21
-3.97903
  0
LINE
  8
0
 10
-58.5027
 20
-3.97903
 11
-59.1236
 21
-5.88998
  0
LINE
  8
0
 10
-59.1236
 20
-5.88998
 11
-59.9791
 21
-7.70805
  0
LINE
  8
0
 10
-59.9791
 20
-7.70805
 11
-61.0557
 21
-9.40456
  0
LINE
  8
0
 10
-61.0557
 20
-9.40456
 11
-62.3365
 21
-10.9527
  0
LINE
  8
0
 10
-62.3365
 20
-10.9527
 11
-63.8012
 21
-12.3282
  0
LINE
  8
0
 10
-63.8012
 20
-12.3282
 11
-65.4268
 21
-13.5092
  0
LINE
  8
0
 10
-65.4268
 20
-13.5092
 11
-67.1875
 21
-14.4772
  0
LINE
  8
0
 10
-67.1875
 20
-14.4772
 11
-69.0557
 21
-15.2169
  0
LINE
  8
0
 10
-69.0557
 20
-15.2169
 11
-71.0019
 21
-15.7166
  0
LINE
  8
0
 10
-71.0019
 20
-15.7166
 11
-72.9953
 21
-15.9684
  0
LINE
  8
0
 10
-72.9953
 20
-15.9684
 11
-75.0046
 21
-15.9684
  0
LINE
  8
0
 10
-38.0046
 20
-15.9684
 11
-39.9981
 21
-15.7166
  0
LINE
  8
0
 10
-39.9981
 20
-15.7166
 11
-41.9443
 21
-15.2169
  0
LINE
  8
0
 10
-41.9443
 20
-15.2169
 11
-43.8125
 21
-14.4772
  0
LINE
  8
0
 10
-43.8125
 20
-14.4772
 11
-45.5732
 21
-13.5092
  0
LINE
  8
0
 10
-45.5732
 20
-13.5092
 11
-47.1988
 21
-12.3282
  0
LINE
  8
0
 10
-47.1988
 20
-12.3282
 11
-48.6635
 21
-10.9527
  0
LINE
  8
0
 10
-48.6635
 20
-10.9527
 11
-49.9443
 21
-9.40456
  0
LINE
  8
0
 10
-49.9443
 20
-9.40456
 11
-51.0209
 21
-7.70805
  0
LINE
  8
0
 10
-51.0209
 20
-7.70805
 11
-51.8764
 21
-5.88998
  0
LINE
  8
0
 10
-51.8764
 20
-5.88998
 11
-52.4973
 21
-3.97903
  0
LINE
  8
0
 10
-52.4973
 20
-3.97903
 11
-52.8738
 21
-2.00533
  0
LINE
  8
0
 10
-52.8738
 20
-2.00533
 11
-53
 21
0
  0
LINE
  8
0
 10
-53
 20
0
 11
-52.8738
 21
2.00533
  0
LINE
  8
0
 10
-52.8738
 20
2.00533
 11
-52.4973
 21
3.97903
  0
LINE
  8
0
 10
-52.4973
 20
3.97903
 11
-51.8764
 21
5.88998
  0
LINE
  8
0
 10
-51.8764
 20
5.88998
 11
-51.0209
 21
7.70805
  0
LINE
  8
0
 10
-51.0209
 20
7.70805
 11
-49.9443
 21
9.40456
  0
LINE
  8
0
 10
-49.9443
 20
9.40456
 11
-48.6635
 21
10.9527
  0
LINE
  8
0
 10
-48.6635
 20
10.9527
 11
-47.1988
 21
12.3282
  0
LINE
  8
0
 10
-47.1988
 20
12.3282
 11
-45.5732
 21
13.5092
  0
LINE
  8
0
 10
-45.5732
 20
13.5092
 11
-43.8125
 21
14.4772
  0
LINE
  8
0
 10
-43.8125
 20
14.4772
 11
-41.9443
 21
15.2169
  0
LINE
  8
0
 10
-41.9443
 20
15.2169
 11
-39.9981
 21
15.7166
  0
LINE
  8
0
 10
-39.9981
 20
15.7166
 11
-38.0046
 21
15.9684
  0
LINE
  8
0
 10
-38.0046
 20
15.9684
 11
-35.9953
 21
15.9684
  0
LINE
  8
0
 10
-35.9953
 20
15.9684
 11
-34.0019
 21
15.7166
  0
LINE
  8
0
 10
-34.0019
 20
15.7166
 11
-32.0557
 21
15.2169
  0
LINE
  8
0
 10
-32.0557
 20
15.2169
 11
-30.1875
 21
14.4772
  0
LINE
  8
0
 10
-30.1875
 20
14.4772
 11
-28.4268
 21
13.5092
  0
LINE
  8
0
 10
-28.4268
 20
13.5092
 11
-26.8012
 21
12.3282
  0
LINE
  8
0
 10
-26.8012
 20
12.3282
 11
-25.3365
 21
10.9527
  0
LINE
  8
0
 10
-25.3365
 20
10.9527
 11
-24.0557
 21
9.40456
  0
LINE
  8
0
 10
-24.0557
 20
9.40456
 11
-22.9791
 21
7.70805
  0
LINE
  8
0
 10
-22.9791
 20
7.70805
 11
-22.1236
 21
5.88998
  0
LINE
  8
0
 10
-22.1236
 20
5.88998
 11
-21.5027
 21
3.97903
  0
LINE
  8
0
 10
-21.5027
 20
3.97903
 11
-21.1262
 21
2.00533
  0
LINE
  8
0
 10
-21.1262
 20
2.00533
 11
-21
 21
0
  0
LINE
  8
0
 10
-21
 20
0
 11
-21.1262
 21
-2.00533
  0
LINE
  8
0
 10
-21.1262
 20
-2.00533
 11
-21.5027
 21
-3.97903
  0
LINE
  8
0
 10
-21.5027
 20
-3.97903
 11
-22.1236
 21
-5.88998
  0
LINE
  8
0
 10
-22.1236
 20
-5.88998
 11
-22.9791
 21
-7.70805
  0
LINE
  8
0
 10
-22.9791
 20
-7.70805
 11
-24.0557
 21
-9.40456
  0
LINE
  8
0
 10
-24.0557
 20
-9.40456
 11
-25.3365
 21
-10.9527
  0
LINE
  8
0
 10
-25.3365
 20
-10.9527
 11
-26.8012
 21
-12.3282
  0
LINE
  8
0
 10
-26.8012
 20
-12.3282
 11
-28.4268
 21
-13.5092
  0
LINE
  8
0
 10
-28.4268
 20
-13.5092
 11
-30.1875
 21
-14.4772
  0
LINE
  8
0
 10
-30.1875
 20
-14.4772
 11
-32.0557
 21
-15.2169
  0
LINE
  8
0
 10
-32.0557
 20
-15.2169
 11
-34.0019
 21
-15.7166
  0
LINE
  8
0
 10
-34.0019
 20
-15.7166
 11
-35.9953
 21
-15.9684
  0
LINE
  8
0
 10
-35.9953
 20
-15.9684
 11
-38.0046
 21
-15.9684
  0
LINE
  8
0
 10
-1.00464
 20
-15.9684
 11
-2.99809
 21
-15.7166
  0
LINE
  8
0
 10
-2.99809
 20
-15.7166
 11
-4.94426
 21
-15.2169
  0
LINE
  8
0
 10
-4.94426
 20
-15.2169
 11
-6.81245
 21
-14.4772
  0
LINE
  8
0
 10
-6.81245
 20
-14.4772
 11
-8.57323
 21
-13.5092
  0
LINE
  8
0
 10
-8.57323
 20
-13.5092
 11
-10.1988
 21
-12.3282
  0
LINE
  8
0
 10
-10.1988
 20
-12.3282
 11
-11.6635
 21
-10.9527
  0
LINE
  8
0
 10
-11.6635
 20
-10.9527
 11
-12.9443
 21
-9.40456
  0
LINE
  8
0
 10
-12.9443
 20
-9.40456
 11
-14.0209
 21
-7.70805
  0
LINE
  8
0
 10
-14.0209
 20
-7.70805
 11
-14.8764
 21
-5.88998
  0
LINE
  8
0
 10
-14.8764
 20
-5.88998
 11
-15.4973
 21
-3.97903
  0
LINE
  8
0
 10
-15.4973
 20
-3.97903
 11
-15.8738
 21
-2.00533
  0
LINE
  8
0
 10
-15.8738
 20
-2.00533
 11
-16
 21
0
  0
LINE
  8
0
 10
-16
 20
0
 11
-15.8738
 21
2.00533
  0
LINE
  8
0
 10
-15.8738
 20
2.00533
 11
-15.4973
 21
3.97903
  0
LINE
  8
0
 10
-15.4973
 20
3.97903
 11
-14.8764
 21
5.88998
  0
LINE
  8
0
 10
-14.8764
 20
5.88998
 11
-14.0209
 21
7.70805
  0
LINE
  8
0
 10
-14.0209
 20
7.70805
 11
-12.9443
 21
9.40456
  0
LINE
  8
0
 10
-12.9443
 20
9.40456
 11
-11.6635
 21
10.9527
  0
LINE
  8
0
 10
-11.6635
 20
10.9527
 11
-10.1988
 21
12.3282
  0
LINE
  8
0
 10
-10.1988
 20
12.3282
 11
-8.57323
 21
13.5092
  0
LINE
  8
0
 10
-8.57323
 20
13.5092
 11
-6.81245
 21
14.4772
  0
LINE
  8
0
 10
-6.81245
 20
14.4772
 11
-4.94426
 21
15.2169
  0
LINE
  8
0
 10
-4.94426
 20
15.2169
 11
-2.99809
 21
15.7166
  0
LINE
  8
0
 10
-2.99809
 20
15.7166
 11
-1.00464
 21
15.9684
  0
LINE
  8
0
 10
-1.00464
 20
15.9684
 11
1.00464
 21
15.9684
  0
LINE
  8
0
 10
1.00464
 20
15.9684
 11
2.99809
 21
15.7166
  0
LINE
  8
0
 10
2.99809
 20
15.7166
 11
4.94426
 21
15.2169
  0
LINE
  8
0
 10
4.94426
 20
15.2169
 11
6.81245
 21
14.4772
  0
LINE
  8
0
 10
6.81245
 20
14.4772
 11
8.57323
 21
13.5092
  0
LINE
  8
0
 10
8.57323
 20
13.5092
 11
10.1988
 21
12.3282
  0
LINE
  8
0
 10
10.1988
 20
12.3282
 11
11.6635
 21
10.9527
  0
LINE
  8
0
 10
11.6635
 20
10.9527
 11
12.9443
 21
9.40456
  0
LINE
  8
0
 10
12.9443
 20
9.40456
 11
14.0209
 21
7.70805
  0
LINE
  8
0
 10
14.0209
 20
7.70805
 11
14.8764
 21
5.88998
  0
LINE
  8
0
 10
14.8764
 20
5.88998
 11
15.4973
 21
3.97903
  0
LINE
  8
0
 10
15.4973
 20
3.97903
 11
15.8738
 21
2.00533
  0
LINE
  8
0
 10
15.8738
 20
2.00533
 11
16
 21
0
  0
LINE
  8
0
 10
16
 20
0
 11
15.8738
 21
-2.00533
  0
LINE
  8
0
 10
15.8738
 20
-2.00533
 11
15.4973
 21
-3.97903
  0
LINE
  8
0
 10
15.4973
 20
-3.97903
 11
14.8764
 21
-5.88998
  0
LINE
  8
0
 10
14.8764
 20
-5.88998
 11
14.0209
 21
-7.70805
  0
LINE
  8
0
 10
14.0209
 20
-7.70805
 11
12.9443
 21
-9.40456
  0
LINE
  8
0
 10
12.9443
 20
-9.40456
 11
11.6635
 21
-10.9527
  0
LINE
  8
0
 10
11.6635
 20
-10.9527
 11
10.1988
 21
-12.3282
  0
LINE
  8
0
 10
10.1988
 20
-12.3282
 11
8.57323
 21
-13.5092
  0
LINE
  8
0
 10
8.57323
 20
-13.5092
 11
6.81245
 21
-14.4772
  0
LINE
  8
0
 10
6.81245
 20
-14.4772
 11
4.94426
 21
-15.2169
  0
LINE
  8
0
 10
4.94426
 20
-15.2169
 11
2.99809
 21
-15.7166
  0
LINE
  8
0
 10
2.99809
 20
-15.7166
 11
1.00464
 21
-15.9684
  0
LINE
  8
0
 10
1.00464
 20
-15.9684
 11
-1.00464
 21
-15.9684
  0
LINE
  8
0
 10
89.8116
 20
-17.9941
 11
89.4379
 21
-17.9469
  0
LINE
  8
0
 10
89.4379
 20
-17.9469
 11
89.073
 21
-17.8532
  0
LINE
  8
0
 10
89.073
 20
-17.8532
 11
88.7227
 21
-17.7145
  0
LINE
  8
0
 10
88.7227
 20
-17.7145
 11
88.3925
 21
-17.533
  0
LINE
  8
0
 10
88.3925
 20
-17.533
 11
88.0877
 21
-17.3115
  0
LINE
  8
0
 10
88.0877
 20
-17.3115
 11
87.8131
 21
-17.0536
  0
LINE
  8
0
 10
87.8131
 20
-17.0536
 11
87.573
 21
-16.7634
  0
LINE
  8
0
 10
87.573
 20
-16.7634
 11
87.3711
 21
-16.4453
  0
LINE
  8
0
 10
87.3711
 20
-16.4453
 11
87.2107
 21
-16.1044
  0
LINE
  8
0
 10
87.2107
 20
-16.1044
 11
87.0943
 21
-15.7461
  0
LINE
  8
0
 10
87.0943
 20
-15.7461
 11
87.0237
 21
-15.376
  0
LINE
  8
0
 10
87.0237
 20
-15.376
 11
87
 21
-15
  0
LINE
  8
0
 10
87
 20
-15
 11
87.0237
 21
-14.624
  0
LINE
  8
0
 10
87.0237
 20
-14.624
 11
87.0943
 21
-14.2539
  0
LINE
  8
0
 10
87.0943
 20
-14.2539
 11
87.2107
 21
-13.8956
  0
LINE
  8
0
 10
87.2107
 20
-13.8956
 11
87.3711
 21
-13.5547
  0
LINE
  8
0
 10
87.3711
 20
-13.5547
 11
87.573
 21
-13.2366
  0
LINE
  8
0
 10
87.573
 20
-13.2366
 11
87.8131
 21
-12.9464
  0
LINE
  8
0
 10
87.8131
 20
-12.9464
 11
88.0877
 21
-12.6884
  0
LINE
  8
0
 10
88.0877
 20
-12.6884
 11
88.3925
 21
-12.467
  0
LINE
  8
0
 10
88.3925
 20
-12.467
 11
88.7227
 21
-12.2855
  0
LINE
  8
0
 10
88.7227
 20
-12.2855
 11
89.073
 21
-12.1468
  0
LINE
  8
0
 10
89.073
 20
-12.1468
 11
89.4379
 21
-12.0531
  0
LINE
  8
0
 10
89.4379
 20
-12.0531
 11
89.8116
 21
-12.0059
  0
LINE
  8
0
 10
89.8116
 20
-12.0059
 11
90.1884
 21
-12.0059
  0
LINE
  8
0
 10
90.1884
 20
-12.0059
 11
90.5621
 21
-12.0531
  0
LINE
  8
0
 10
90.5621
 20
-12.0531
 11
90.927
 21
-12.1468
  0
LINE
  8
0
 10
90.927
 20
-12.1468
 11
91.2773
 21
-12.2855
  0
LINE
  8
0
 10
91.2773
 20
-12.2855
 11
91.6075
 21
-12.467
  0
LINE
  8
0
 10
91.6075
 20
-12.467
 11
91.9123
 21
-12.6884
  0
LINE
  8
0
 10
91.9123
 20
-12.6884
 11
92.1869
 21
-12.9464
  0
LINE
  8
0
 10
92.1869
 20
-12.9464
 11
92.427
 21
-13.2366
  0
LINE
  8
0
 10
92.427
 20
-13.2366
 11
92.6289
 21
-13.5547
  0
LINE
  8
0
 10
92.6289
 20
-13.5547
 11
92.7893
 21
-13.8956
  0
LINE
  8
0
 10
92.7893
 20
-13.8956
 11
92.9057
 21
-14.2539
  0
LINE
  8
0
 10
92.9057
 20
-14.2539
 11
92.9763
 21
-14.624
  0
LINE
  8
0
 10
92.9763
 20
-14.624
 11
93
 21
-15
  0
LINE
  8
0
 10
93
 20
-15
 11
92.9763
 21
-15.376
  0
LINE
  8
0
 10
92.9763
 20
-15.376
 11
92.9057
 21
-15.7461
  0
LINE
  8
0
 10
92.9057
 20
-15.7461
 11
92.7893
 21
-16.1044
  0
LINE
  8
0
 10
92.7893
 20
-16.1044
 11
92.6289
 21
-16.4453
  0
LINE
  8
0
 10
92.6289
 20
-16.4453
 11
92.427
 21
-16.7634
  0
LINE
  8
0
 10
92.427
 20
-16.7634
 11
92.1869
 21
-17.0536
  0
LINE
  8
0
 10
92.1869
 20
-17.0536
 11
91.9123
 21
-17.3115
  0
LINE
  8
0
 10
91.9123
 20
-17.3115
 11
91.6075
 21
-17.533
  0
LINE
  8
0
 10
91.6075
 20
-17.533
 11
91.2773
 21
-17.7145
  0
LINE
  8
0
 10
91.2773
 20
-17.7145
 11
90.927
 21
-17.8532
  0
LINE
  8
0
 10
90.927
 20
-17.8532
 11
90.5621
 21
-17.9469
  0
LINE
  8
0
 10
90.5621
 20
-17.9469
 11
90.1884
 21
-17.9941
  0
LINE
  8
0
 10
90.1884
 20
-17.9941
 11
89.8116
 21
-17.9941
  0
LINE
  8
0
 10
-90.1884
 20
-17.9941
 11
-90.5621
 21
-17.9469
  0
LINE
  8
0
 10
-90.5621
 20
-17.9469
 11
-90.927
 21
-17.8532
  0
LINE
  8
0
 10
-90.927
 20
-17.8532
 11
-91.2773
 21
-17.7145
  0
LINE
  8
0
 10
-91.2773
 20
-17.7145
 11
-91.6075
 21
-17.533
  0
LINE
  8
0
 10
-91.6075
 20
-17.533
 11
-91.9123
 21
-17.3115
  0
LINE
  8
0
 10
-91.9123
 20
-17.3115
 11
-92.1869
 21
-17.0536
  0
LINE
  8
0
 10
-92.1869
 20
-17.0536
 11
-92.427
 21
-16.7634
  0
LINE
  8
0
 10
-92.427
 20
-16.7634
 11
-92.6289
 21
-16.4453
  0
LINE
  8
0
 10
-92.6289
 20
-16.4453
 11
-92.7893
 21
-16.1044
  0
LINE
  8
0
 10
-92.7893
 20
-16.1044
 11
-92.9057
 21
-15.7461
  0
LINE
  8
0
 10
-92.9057
 20
-15.7461
 11
-92.9763
 21
-15.376
  0
LINE
  8
0
 10
-92.9763
 20
-15.376
 11
-93
 21
-15
  0
LINE
  8
0
 10
-93
 20
-15
 11
-92.9763
 21
-14.624
  0
LINE
  8
0
 10
-92.9763
 20
-14.624
 11
-92.9057
 21
-14.2539
  0
LINE
  8
0
 10
-92.9057
 20
-14.2539
 11
-92.7893
 21
-13.8956
  0
LINE
  8
0
 10
-92.7893
 20
-13.8956
 11
-92.6289
 21
-13.5547
  0
LINE
  8
0
 10
-92.6289
 20
-13.5547
 11
-92.427
 21
-13.2366
  0
LINE
  8
0
 10
-92.427
 20
-13.2366
 11
-92.1869
 21
-12.9464
  0
LINE
  8
0
 10
-92.1869
 20
-12.9464
 11
-91.9123
 21
-12.6884
  0
LINE
  8
0
 10
-91.9123
 20
-12.6884
 11
-91.6075
 21
-12.467
  0
LINE
  8
0
 10
-91.6075
 20
-12.467
 11
-91.2773
 21
-12.2855
  0
LINE
  8
0
 10
-91.2773
 20
-12.2855
 11
-90.927
 21
-12.1468
  0
LINE
  8
0
 10
-90.927
 20
-12.1468
 11
-90.5621
 21
-12.0531
  0
LINE
  8
0
 10
-90.5621
 20
-12.0531
 11
-90.1884
 21
-12.0059
  0
LINE
  8
0
 10
-90.1884
 20
-12.0059
 11
-89.8116
 21
-12.0059
  0
LINE
  8
0
 10
-89.8116
 20
-12.0059
 11
-89.4379
 21
-12.0531
  0
LINE
  8
0
 10
-89.4379
 20
-12.0531
 11
-89.073
 21
-12.1468
  0
LINE
  8
0
 10
-89.073
 20
-12.1468
 11
-88.7227
 21
-12.2855
  0
LINE
  8
0
 10
-88.7227
 20
-12.2855
 11
-88.3925
 21
-12.467
  0
LINE
  8
0
 10
-88.3925
 20
-12.467
 11
-88.0877
 21
-12.6884
  0
LINE
  8
0
 10
-88.0877
 20
-12.6884
 11
-87.8131
 21
-12.9464
  0
LINE
  8
0
 10
-87.8131
 20
-12.9464
 11
-87.573
 21
-13.2366
  0
LINE
  8
0
 10
-87.573
 20
-13.2366
 11
-87.3711
 21
-13.5547
  0
LINE
  8
0
 10
-87.3711
 20
-13.5547
 11
-87.2107
 21
-13.8956
  0
LINE
  8
0
 10
-87.2107
 20
-13.8956
 11
-87.0943
 21
-14.2539
  0
LINE
  8
0
 10
-87.0943
 20
-14.2539
 11
-87.0237
 21
-14.624
  0
LINE
  8
0
 10
-87.0237
 20
-14.624
 11
-87
 21
-15
  0
LINE
  8
0
 10
-87
 20
-15
 11
-87.0237
 21
-15.376
  0
LINE
  8
0
 10
-87.0237
 20
-15.376
 11
-87.0943
 21
-15.7461
  0
LINE
  8
0
 10
-87.0943
 20
-15.7461
 11
-87.2107
 21
-16.1044
  0
LINE
  8
0
 10
-87.2107
 20
-16.1044
 11
-87.3711
 21
-16.4453
  0
LINE
  8
0
 10
-87.3711
 20
-16.4453
 11
-87.573
 21
-16.7634
  0
LINE
  8
0
 10
-87.573
 20
-16.7634
 11
-87.8131
 21
-17.0536
  0
LINE
  8
0
 10
-87.8131
 20
-17.0536
 11
-88.0877
 21
-17.3115
  0
LINE
  8
0
 10
-88.0877
 20
-17.3115
 11
-88.3925
 21
-17.533
  0
LINE
  8
0
 10
-88.3925
 20
-17.533
 11
-88.7227
 21
-17.7145
  0
LINE
  8
0
 10
-88.7227
 20
-17.7145
 11
-89.073
 21
-17.8532
  0
LINE
  8
0
 10
-89.073
 20
-17.8532
 11
-89.4379
 21
-17.9469
  0
LINE
  8
0
 10
-89.4379
 20
-17.9469
 11
-89.8116
 21
-17.9941
  0
LINE
  8
0
 10
-89.8116
 20
-17.9941
 11
-90.1884
 21
-17.9941
  0
ENDSEC
  0
SECTION
  2
OBJECTS
  0
DICTIONARY
  0
ENDSEC
  0
EOF
