<?xml version="1.0" standalone="no"?>
<!DOCTYPE svg PUBLIC "-//W3C//DTD SVG 1.1//EN" "http://www.w3.org/Graphics/SVG/1.1/DTD/svg11.dtd">
<svg width="134mm" height="30mm" viewBox="-67 -54 134 30" xmlns="http://www.w3.org/2000/svg" version="1.1">
<title>OpenSCAD Model</title>
<path d="
M 62.9369,-24.5886 L 63.5451,-24.7447 L 64.1289,-24.9759 L 64.6791,-25.2784 L 65.1871,-25.6474 L 65.6448,-26.0773
 L 66.0451,-26.5611 L 66.3815,-27.0912 L 66.6489,-27.6594 L 66.8429,-28.2566 L 66.9606,-28.8733 L 67,-29.5
 L 67,-48.5 L 66.9606,-49.1267 L 66.8429,-49.7434 L 66.6489,-50.3406 L 66.3815,-50.9088 L 66.0451,-51.4389
 L 65.6448,-51.9227 L 65.1871,-52.3526 L 64.6791,-52.7216 L 64.1289,-53.0241 L 63.5451,-53.2553 L 62.9369,-53.4114
 L 62.3139,-53.4901 L -62.3139,-53.4901 L -62.9369,-53.4114 L -63.5451,-53.2553 L -64.1289,-53.0241 L -64.6791,-52.7216
 L -65.1871,-52.3526 L -65.6448,-51.9227 L -66.0451,-51.4389 L -66.3815,-50.9088 L -66.6489,-50.3406 L -66.8429,-49.7434
 L -66.9606,-49.1267 L -67,-48.5 L -67,-29.5 L -66.9606,-28.8733 L -66.8429,-28.2566 L -66.6489,-27.6594
 L -66.3815,-27.0912 L -66.0451,-26.5611 L -65.6448,-26.0773 L -65.1871,-25.6474 L -64.6791,-25.2784 L -64.1289,-24.9759
 L -63.5451,-24.7447 L -62.9369,-24.5886 L -62.3139,-24.5099 L 62.3139,-24.5099 z
M 59.8116,-28.5059 L 59.4379,-28.5531 L 59.0729,-28.6468 L 58.7227,-28.7855 L 58.3925,-28.967 L 58.0877,-29.1885
 L 57.8131,-29.4464 L 57.5729,-29.7366 L 57.3995,-30.0099 L 56.4707,-29.4993 L 55.2447,-29.0139 L 53.9675,-28.686
 L 52.6593,-28.5207 L 51.3407,-28.5207 L 50.0325,-28.686 L 48.7553,-29.0139 L 47.5293,-29.4993 L 46.3738,-30.1346
 L 45.307,-30.9096 L 44.3458,-31.8123 L 43.5053,-32.8283 L 42.7988,-33.9416 L 42.2373,-35.1347 L 41.8299,-36.3888
 L 41.5828,-37.684 L 41.5,-39 L 41.5828,-40.316 L 41.8299,-41.6112 L 42.2373,-42.8653 L 42.7988,-44.0584
 L 43.5053,-45.1717 L 44.3458,-46.1877 L 45.307,-47.0904 L 46.3738,-47.8654 L 47.5293,-48.5007 L 48.7553,-48.9861
 L 50.0325,-49.314 L 51.3407,-49.4793 L 52.6593,-49.4793 L 53.9675,-49.314 L 55.2447,-48.9861 L 56.4707,-48.5007
 L 57.3995,-47.9901 L 57.5729,-48.2634 L 57.8131,-48.5536 L 58.0877,-48.8115 L 58.3925,-49.033 L 58.7227,-49.2145
 L 59.0729,-49.3532 L 59.4379,-49.4469 L 59.8116,-49.4941 L 60.1884,-49.4941 L 60.5621,-49.4469 L 60.927,-49.3532
 L 61.2773,-49.2145 L 61.6075,-49.033 L 61.9123,-48.8115 L 62.1869,-48.5536 L 62.427,-48.2634 L 62.6289,-47.9453
 L 62.7893,-47.6044 L 62.9057,-47.2461 L 62.9763,-46.876 L 63,-46.5 L 62.9763,-46.124 L 62.9057,-45.7539
 L 62.7893,-45.3956 L 62.6289,-45.0547 L 62.427,-44.7366 L 62.1869,-44.4464 L 61.9123,-44.1884 L 61.6075,-43.967
 L 61.3189,-43.8083 L 61.7626,-42.8653 L 62.1701,-41.6112 L 62.4172,-40.316 L 62.5,-39 L 62.4172,-37.684
 L 62.1701,-36.3888 L 61.7626,-35.1347 L 61.3189,-34.1917 L 61.6075,-34.033 L 61.9123,-33.8116 L 62.1869,-33.5536
 L 62.427,-33.2634 L 62.6289,-32.9453 L 62.7893,-32.6044 L 62.9057,-32.2461 L 62.9763,-31.876 L 63,-31.5
 L 62.9763,-31.124 L 62.9057,-30.7539 L 62.7893,-30.3956 L 62.6289,-30.0547 L 62.427,-29.7366 L 62.1869,-29.4464
 L 61.9123,-29.1885 L 61.6075,-28.967 L 61.2773,-28.7855 L 60.927,-28.6468 L 60.5621,-28.5531 L 60.1884,-28.5059
 z
M -60.1884,-28.5059 L -60.5621,-28.5531 L -60.927,-28.6468 L -61.2773,-28.7855 L -61.6075,-28.967 L -61.9123,-29.1885
 L -62.1869,-29.4464 L -62.427,-29.7366 L -62.6289,-30.0547 L -62.7893,-30.3956 L -62.9057,-30.7539 L -62.9763,-31.124
 L -63,-31.5 L -62.9763,-31.876 L -62.9057,-32.2461 L -62.7893,-32.6044 L -62.6289,-32.9453 L -62.427,-33.2634
 L -62.1869,-33.5536 L -61.9123,-33.8116 L -61.6075,-34.033 L -61.3189,-34.1917 L -61.7626,-35.1347 L -62.1701,-36.3888
 L -62.4172,-37.684 L -62.5,-39 L -62.4172,-40.316 L -62.1701,-41.6112 L -61.7626,-42.8653 L -61.3189,-43.8083
 L -61.6075,-43.967 L -61.9123,-44.1884 L -62.1869,-44.4464 L -62.427,-44.7366 L -62.6289,-45.0547 L -62.7893,-45.3956
 L -62.9057,-45.7539 L -62.9763,-46.124 L -63,-46.5 L -62.9763,-46.876 L -62.9057,-47.2461 L -62.7893,-47.6044
 L -62.6289,-47.9453 L -62.427,-48.2634 L -62.1869,-48.5536 L -61.9123,-48.8115 L -61.6075,-49.033 L -61.2773,-49.2145
 L -60.927,-49.3532 L -60.5621,-49.4469 L -60.1884,-49.4941 L -59.8116,-49.4941 L -59.4379,-49.4469 L -59.0729,-49.3532
 L -58.7227,-49.2145 L -58.3925,-49.033 L -58.0877,-48.8115 L -57.8131,-48.5536 L -57.5729,-48.2634 L -57.3995,-47.9901
 L -56.4707,-48.5007 L -55.2447,-48.9861 L -53.9675,-49.314 L -52.6593,-49.4793 L -51.3407,-49.4793 L -50.0325,-49.314
 L -48.7553,-48.9861 L -47.5293,-48.5007 L -46.3738,-47.8654 L -45.307,-47.0904 L -44.3458,-46.1877 L -43.5053,-45.1717
 L -42.7988,-44.0584 L -42.2373,-42.8653 L -41.8299,-41.6112 L -41.5828,-40.316 L -41.5,-39 L -41.5828,-37.684
 L -41.8299,-36.3888 L -42.2373,-35.1347 L -42.7988,-33.9416 L -43.5053,-32.8283 L -44.3458,-31.8123 L -45.307,-30.9096
 L -46.3738,-30.1346 L -47.5293,-29.4993 L -48.7553,-29.0139 L -50.0325,-28.686 L -51.3407,-28.5207 L -52.6593,-28.5207
 L -53.9675,-28.686 L -55.2447,-29.0139 L -56.4707,-29.4993 L -57.3995,-30.0099 L -57.5729,-29.7366 L -57.8131,-29.4464
 L -58.0877,-29.1885 L -58.3925,-28.967 L -58.7227,-28.7855 L -59.0729,-28.6468 L -59.4379,-28.5531 L -59.8116,-28.5059
 z
M 25.3407,-28.5207 L 24.0325,-28.686 L 22.7553,-29.0139 L 21.5293,-29.4993 L 20.3738,-30.1346 L 19.307,-30.9096
 L 18.3458,-31.8123 L 17.5053,-32.8283 L 16.7988,-33.9416 L 16.2373,-35.1347 L 15.8299,-36.3888 L 15.5828,-37.684
 L 15.5,-39 L 15.5828,-40.316 L 15.8299,-41.6112 L 16.2373,-42.8653 L 16.7988,-44.0584 L 17.5053,-45.1717
 L 18.3458,-46.1877 L 19.307,-47.0904 L 20.3738,-47.8654 L 21.5293,-48.5007 L 22.7553,-48.9861 L 24.0325,-49.314
 L 25.3407,-49.4793 L 26.6593,-49.4793 L 27.9675,-49.314 L 29.2447,-48.9861 L 30.4707,-48.5007 L 31.6262,-47.8654
 L 32.6929,-47.0904 L 33.6542,-46.1877 L 34.4947,-45.1717 L 35.2012,-44.0584 L 35.7626,-42.8653 L 36.1701,-41.6112
 L 36.4172,-40.316 L 36.5,-39 L 36.4172,-37.684 L 36.1701,-36.3888 L 35.7626,-35.1347 L 35.2012,-33.9416
 L 34.4947,-32.8283 L 33.6542,-31.8123 L 32.6929,-30.9096 L 31.6262,-30.1346 L 30.4707,-29.4993 L 29.2447,-29.0139
 L 27.9675,-28.686 L 26.6593,-28.5207 z
M -0.659286,-28.5207 L -1.9675,-28.686 L -3.24467,-29.0139 L -4.47067,-29.4993 L -5.62617,-30.1346 L -6.69295,-30.9096
 L -7.65416,-31.8123 L -8.49467,-32.8283 L -9.20122,-33.9416 L -9.76265,-35.1347 L -10.1701,-36.3888 L -10.4172,-37.684
 L -10.5,-39 L -10.4172,-40.316 L -10.1701,-41.6112 L -9.76265,-42.8653 L -9.20122,-44.0584 L -8.49467,-45.1717
 L -7.65416,-46.1877 L -6.69295,-47.0904 L -5.62617,-47.8654 L -4.47067,-48.5007 L -3.24467,-48.9861 L -1.9675,-49.314
 L -0.659286,-49.4793 L 0.659286,-49.4793 L 1.9675,-49.314 L 3.24467,-48.9861 L 4.47067,-48.5007 L 5.62617,-47.8654
 L 6.69295,-47.0904 L 7.65416,-46.1877 L 8.49467,-45.1717 L 9.20122,-44.0584 L 9.76265,-42.8653 L 10.1701,-41.6112
 L 10.4172,-40.316 L 10.5,-39 L 10.4172,-37.684 L 10.1701,-36.3888 L 9.76265,-35.1347 L 9.20122,-33.9416
 L 8.49467,-32.8283 L 7.65416,-31.8123 L 6.69295,-30.9096 L 5.62617,-30.1346 L 4.47067,-29.4993 L 3.24467,-29.0139
 L 1.9675,-28.686 L 0.659286,-28.5207 z
M -26.6593,-28.5207 L -27.9675,-28.686 L -29.2447,-29.0139 L -30.4707,-29.4993 L -31.6262,-30.1346 L -32.6929,-30.9096
 L -33.6542,-31.8123 L -34.4947,-32.8283 L -35.2012,-33.9416 L -35.7626,-35.1347 L -36.1701,-36.3888 L -36.4172,-37.684
 L -36.5,-39 L -36.4172,-40.316 L -36.1701,-41.6112 L -35.7626,-42.8653 L -35.2012,-44.0584 L -34.4947,-45.1717
 L -33.6542,-46.1877 L -32.6929,-47.0904 L -31.6262,-47.8654 L -30.4707,-48.5007 L -29.2447,-48.9861 L -27.9675,-49.314
 L -26.6593,-49.4793 L -25.3407,-49.4793 L -24.0325,-49.314 L -22.7553,-48.9861 L -21.5293,-48.5007 L -20.3738,-47.8654
 L -19.307,-47.0904 L -18.3458,-46.1877 L -17.5053,-45.1717 L -16.7988,-44.0584 L -16.2373,-42.8653 L -15.8299,-41.6112
 L -15.5828,-40.316 L -15.5,-39 L -15.5828,-37.684 L -15.8299,-36.3888 L -16.2373,-35.1347 L -16.7988,-33.9416
 L -17.5053,-32.8283 L -18.3458,-31.8123 L -19.307,-30.9096 L -20.3738,-30.1346 L -21.5293,-29.4993 L -22.7553,-29.0139
 L -24.0325,-28.686 L -25.3407,-28.5207 z
" stroke="black" fill="lightgray" stroke-width="0.5"/>
</svg>
