<?xml version="1.0" standalone="no"?>
<!DOCTYPE svg PUBLIC "-//W3C//DTD SVG 1.1//EN" "http://www.w3.org/Graphics/SVG/1.1/DTD/svg11.dtd">
<svg width="404mm" height="134mm" viewBox="-202 -67 404 134" xmlns="http://www.w3.org/2000/svg" version="1.1">
<title>OpenSCAD Model</title>
<path d="
M 197.937,66.9114 L 198.545,66.7553 L 199.129,66.5241 L 199.679,66.2216 L 200.187,65.8526 L 200.645,65.4227
 L 201.045,64.9389 L 201.382,64.4088 L 201.649,63.8406 L 201.843,63.2434 L 201.961,62.6267 L 202,62
 L 202,-62 L 201.961,-62.6267 L 201.843,-63.2434 L 201.649,-63.8406 L 201.382,-64.4088 L 201.045,-64.9389
 L 200.645,-65.4227 L 200.187,-65.8526 L 199.679,-66.2216 L 199.129,-66.5241 L 198.545,-66.7553 L 197.937,-66.9114
 L 197.314,-66.9901 L -197.314,-66.9901 L -197.937,-66.9114 L -198.545,-66.7553 L -199.129,-66.5241 L -199.679,-66.2216
 L -200.187,-65.8526 L -200.645,-65.4227 L -201.045,-64.9389 L -201.382,-64.4088 L -201.649,-63.8406 L -201.843,-63.2434
 L -201.961,-62.6267 L -202,-62 L -202,62 L -201.961,62.6267 L -201.843,63.2434 L -201.649,63.8406
 L -201.382,64.4088 L -201.045,64.9389 L -200.645,65.4227 L -200.187,65.8526 L -199.679,66.2216 L -199.129,66.5241
 L -198.545,66.7553 L -197.937,66.9114 L -197.314,66.9901 L 197.314,66.9901 z
M -195.188,-57.0059 L -195.562,-57.0531 L -195.927,-57.1468 L -196.277,-57.2855 L -196.607,-57.467 L -196.912,-57.6885
 L -197.187,-57.9464 L -197.427,-58.2366 L -197.629,-58.5547 L -197.789,-58.8956 L -197.906,-59.2539 L -197.976,-59.624
 L -198,-60 L -197.976,-60.376 L -197.906,-60.7461 L -197.789,-61.1044 L -197.629,-61.4453 L -197.427,-61.7634
 L -197.187,-62.0536 L -196.912,-62.3115 L -196.607,-62.533 L -196.277,-62.7145 L -195.927,-62.8532 L -195.562,-62.9469
 L -195.188,-62.9941 L -194.812,-62.9941 L -194.438,-62.9469 L -194.073,-62.8532 L -193.723,-62.7145 L -193.393,-62.533
 L -193.088,-62.3115 L -192.813,-62.0536 L -192.573,-61.7634 L -192.371,-61.4453 L -192.211,-61.1044 L -192.094,-60.7461
 L -192.024,-60.376 L -192,-60 L -192.024,-59.624 L -192.094,-59.2539 L -192.211,-58.8956 L -192.371,-58.5547
 L -192.573,-58.2366 L -192.813,-57.9464 L -193.088,-57.6885 L -193.393,-57.467 L -193.723,-57.2855 L -194.073,-57.1468
 L -194.438,-57.0531 L -194.812,-57.0059 z
M 194.812,-57.0059 L 194.438,-57.0531 L 194.073,-57.1468 L 193.723,-57.2855 L 193.393,-57.467 L 193.088,-57.6885
 L 192.813,-57.9464 L 192.573,-58.2366 L 192.371,-58.5547 L 192.211,-58.8956 L 192.094,-59.2539 L 192.024,-59.624
 L 192,-60 L 192.024,-60.376 L 192.094,-60.7461 L 192.211,-61.1044 L 192.371,-61.4453 L 192.573,-61.7634
 L 192.813,-62.0536 L 193.088,-62.3115 L 193.393,-62.533 L 193.723,-62.7145 L 194.073,-62.8532 L 194.438,-62.9469
 L 194.812,-62.9941 L 195.188,-62.9941 L 195.562,-62.9469 L 195.927,-62.8532 L 196.277,-62.7145 L 196.607,-62.533
 L 196.912,-62.3115 L 197.187,-62.0536 L 197.427,-61.7634 L 197.629,-61.4453 L 197.789,-61.1044 L 197.906,-60.7461
 L 197.976,-60.376 L 198,-60 L 197.976,-59.624 L 197.906,-59.2539 L 197.789,-58.8956 L 197.629,-58.5547
 L 197.427,-58.2366 L 197.187,-57.9464 L 196.912,-57.6885 L 196.607,-57.467 L 196.277,-57.2855 L 195.927,-57.1468
 L 195.562,-57.0531 L 195.188,-57.0059 z
M 126.076,62.3767 L 118.289,61.3929 L 110.686,59.441 L 103.389,56.5517 L 96.5108,52.7705 L 90.161,48.1571
 L 84.4395,42.7842 L 79.4364,36.7366 L 75.2308,30.1096 L 71.889,23.0078 L 69.4635,15.5431 L 67.9928,7.83331
 L 67.5,-0 L 67.9928,-7.83331 L 69.4635,-15.5431 L 71.889,-23.0078 L 75.2308,-30.1096 L 79.4364,-36.7366
 L 84.4395,-42.7842 L 90.161,-48.1571 L 96.5108,-52.7705 L 103.389,-56.5517 L 110.686,-59.441 L 118.289,-61.3929
 L 126.076,-62.3767 L 133.924,-62.3767 L 141.711,-61.3929 L 149.314,-59.441 L 156.611,-56.5517 L 163.489,-52.7705
 L 169.839,-48.1571 L 175.561,-42.7842 L 180.564,-36.7366 L 184.769,-30.1096 L 188.111,-23.0078 L 190.536,-15.5431
 L 192.007,-7.83331 L 192.5,-0 L 192.007,7.83331 L 190.536,15.5431 L 188.111,23.0078 L 184.769,30.1096
 L 180.564,36.7366 L 175.561,42.7842 L 169.839,48.1571 L 163.489,52.7705 L 156.611,56.5517 L 149.314,59.441
 L 141.711,61.3929 L 133.924,62.3767 z
M -3.92439,62.3767 L -11.7113,61.3929 L -19.3136,59.441 L -26.6112,56.5517 L -33.4892,52.7705 L -39.839,48.1571
 L -45.5605,42.7842 L -50.5636,36.7366 L -54.7692,30.1096 L -58.111,23.0078 L -60.5364,15.5431 L -62.0072,7.83331
 L -62.5,-0 L -62.0072,-7.83331 L -60.5364,-15.5431 L -58.111,-23.0078 L -54.7692,-30.1096 L -50.5636,-36.7366
 L -45.5605,-42.7842 L -39.839,-48.1571 L -33.4892,-52.7705 L -26.6112,-56.5517 L -19.3136,-59.441 L -11.7113,-61.3929
 L -3.92439,-62.3767 L 3.92439,-62.3767 L 11.7113,-61.3929 L 19.3136,-59.441 L 26.6112,-56.5517 L 33.4892,-52.7705
 L 39.839,-48.1571 L 45.5605,-42.7842 L 50.5636,-36.7366 L 54.7692,-30.1096 L 58.111,-23.0078 L 60.5364,-15.5431
 L 62.0072,-7.83331 L 62.5,-0 L 62.0072,7.83331 L 60.5364,15.5431 L 58.111,23.0078 L 54.7692,30.1096
 L 50.5636,36.7366 L 45.5605,42.7842 L 39.839,48.1571 L 33.4892,52.7705 L 26.6112,56.5517 L 19.3136,59.441
 L 11.7113,61.3929 L 3.92439,62.3767 z
M -133.924,62.3767 L -141.711,61.3929 L -149.314,59.441 L -156.611,56.5517 L -163.489,52.7705 L -169.839,48.1571
 L -175.561,42.7842 L -180.564,36.7366 L -184.769,30.1096 L -188.111,23.0078 L -190.536,15.5431 L -192.007,7.83331
 L -192.5,-0 L -192.007,-7.83331 L -190.536,-15.5431 L -188.111,-23.0078 L -184.769,-30.1096 L -180.564,-36.7366
 L -175.561,-42.7842 L -169.839,-48.1571 L -163.489,-52.7705 L -156.611,-56.5517 L -149.314,-59.441 L -141.711,-61.3929
 L -133.924,-62.3767 L -126.076,-62.3767 L -118.289,-61.3929 L -110.686,-59.441 L -103.389,-56.5517 L -96.5108,-52.7705
 L -90.161,-48.1571 L -84.4395,-42.7842 L -79.4364,-36.7366 L -75.2308,-30.1096 L -71.889,-23.0078 L -69.4635,-15.5431
 L -67.9928,-7.83331 L -67.5,-0 L -67.9928,7.83331 L -69.4635,15.5431 L -71.889,23.0078 L -75.2308,30.1096
 L -79.4364,36.7366 L -84.4395,42.7842 L -90.161,48.1571 L -96.5108,52.7705 L -103.389,56.5517 L -110.686,59.441
 L -118.289,61.3929 L -126.076,62.3767 z
M 194.812,62.9941 L 194.438,62.9469 L 194.073,62.8532 L 193.723,62.7145 L 193.393,62.533 L 193.088,62.3115
 L 192.813,62.0536 L 192.573,61.7634 L 192.371,61.4453 L 192.211,61.1044 L 192.094,60.7461 L 192.024,60.376
 L 192,60 L 192.024,59.624 L 192.094,59.2539 L 192.211,58.8956 L 192.371,58.5547 L 192.573,58.2366
 L 192.813,57.9464 L 193.088,57.6885 L 193.393,57.467 L 193.723,57.2855 L 194.073,57.1468 L 194.438,57.0531
 L 194.812,57.0059 L 195.188,57.0059 L 195.562,57.0531 L 195.927,57.1468 L 196.277,57.2855 L 196.607,57.467
 L 196.912,57.6885 L 197.187,57.9464 L 197.427,58.2366 L 197.629,58.5547 L 197.789,58.8956 L 197.906,59.2539
 L 197.976,59.624 L 198,60 L 197.976,60.376 L 197.906,60.7461 L 197.789,61.1044 L 197.629,61.4453
 L 197.427,61.7634 L 197.187,62.0536 L 196.912,62.3115 L 196.607,62.533 L 196.277,62.7145 L 195.927,62.8532
 L 195.562,62.9469 L 195.188,62.9941 z
M -195.188,62.9941 L -195.562,62.9469 L -195.927,62.8532 L -196.277,62.7145 L -196.607,62.533 L -196.912,62.3115
 L -197.187,62.0536 L -197.427,61.7634 L -197.629,61.4453 L -197.789,61.1044 L -197.906,60.7461 L -197.976,60.376
 L -198,60 L -197.976,59.624 L -197.906,59.2539 L -197.789,58.8956 L -197.629,58.5547 L -197.427,58.2366
 L -197.187,57.9464 L -196.912,57.6885 L -196.607,57.467 L -196.277,57.2855 L -195.927,57.1468 L -195.562,57.0531
 L -195.188,57.0059 L -194.812,57.0059 L -194.438,57.0531 L -194.073,57.1468 L -193.723,57.2855 L -193.393,57.467
 L -193.088,57.6885 L -192.813,57.9464 L -192.573,58.2366 L -192.371,58.5547 L -192.211,58.8956 L -192.094,59.2539
 L -192.024,59.624 L -192,60 L -192.024,60.376 L -192.094,60.7461 L -192.211,61.1044 L -192.371,61.4453
 L -192.573,61.7634 L -192.813,62.0536 L -193.088,62.3115 L -193.393,62.533 L -193.723,62.7145 L -194.073,62.8532
 L -194.438,62.9469 L -194.812,62.9941 z
" stroke="black" fill="lightgray" stroke-width="0.5"/>
</svg>
