<?xml version="1.0" standalone="no"?>
<!DOCTYPE svg PUBLIC "-//W3C//DTD SVG 1.1//EN" "http://www.w3.org/Graphics/SVG/1.1/DTD/svg11.dtd">
<svg width="300mm" height="120mm" viewBox="-150 -60 300 120" xmlns="http://www.w3.org/2000/svg" version="1.1">
<title>OpenSCAD Model</title>
<path d="
M 145.437,59.4114 L 146.045,59.2553 L 146.629,59.0241 L 147.179,58.7216 L 147.687,58.3526 L 148.145,57.9227
 L 148.545,57.4389 L 148.882,56.9088 L 149.149,56.3406 L 149.343,55.7434 L 149.461,55.1267 L 149.5,54.5
 L 149.5,-54.5 L 149.461,-55.1267 L 149.343,-55.7434 L 149.149,-56.3406 L 148.882,-56.9088 L 148.545,-57.4389
 L 148.145,-57.9227 L 147.687,-58.3526 L 147.179,-58.7216 L 146.629,-59.0241 L 146.045,-59.2553 L 145.437,-59.4114
 L 144.814,-59.4901 L -144.814,-59.4901 L -145.437,-59.4114 L -146.045,-59.2553 L -146.629,-59.0241 L -147.179,-58.7216
 L -147.687,-58.3526 L -148.145,-57.9227 L -148.545,-57.4389 L -148.882,-56.9088 L -149.149,-56.3406 L -149.343,-55.7434
 L -149.461,-55.1267 L -149.5,-54.5 L -149.5,54.5 L -149.461,55.1267 L -149.343,55.7434 L -149.149,56.3406
 L -148.882,56.9088 L -148.545,57.4389 L -148.145,57.9227 L -147.687,58.3526 L -147.179,58.7216 L -146.629,59.0241
 L -146.045,59.2553 L -145.437,59.4114 L -144.814,59.4901 L 144.814,59.4901 z
M 22.3116,-49.5059 L 21.9379,-49.5531 L 21.5729,-49.6468 L 21.2227,-49.7855 L 20.8925,-49.967 L 20.5877,-50.1885
 L 20.3131,-50.4464 L 20.0729,-50.7366 L 19.8711,-51.0547 L 19.7107,-51.3956 L 19.5942,-51.7539 L 19.5237,-52.124
 L 19.5,-52.5 L 19.5237,-52.876 L 19.5942,-53.2461 L 19.7107,-53.6044 L 19.8711,-53.9453 L 20.0729,-54.2634
 L 20.3131,-54.5536 L 20.5877,-54.8115 L 20.8925,-55.033 L 21.2227,-55.2145 L 21.5729,-55.3532 L 21.9379,-55.4469
 L 22.3116,-55.4941 L 22.6884,-55.4941 L 23.0621,-55.4469 L 23.427,-55.3532 L 23.7773,-55.2145 L 24.1075,-55.033
 L 24.4123,-54.8115 L 24.6869,-54.5536 L 24.927,-54.2634 L 25.1289,-53.9453 L 25.2893,-53.6044 L 25.4057,-53.2461
 L 25.4763,-52.876 L 25.5,-52.5 L 25.4763,-52.124 L 25.4057,-51.7539 L 25.2893,-51.3956 L 25.1289,-51.0547
 L 24.927,-50.7366 L 24.6869,-50.4464 L 24.4123,-50.1885 L 24.1075,-49.967 L 23.7773,-49.7855 L 23.427,-49.6468
 L 23.0621,-49.5531 L 22.6884,-49.5059 z
M -22.6884,-49.5059 L -23.0621,-49.5531 L -23.427,-49.6468 L -23.7773,-49.7855 L -24.1075,-49.967 L -24.4123,-50.1885
 L -24.6869,-50.4464 L -24.927,-50.7366 L -25.1289,-51.0547 L -25.2893,-51.3956 L -25.4057,-51.7539 L -25.4763,-52.124
 L -25.5,-52.5 L -25.4763,-52.876 L -25.4057,-53.2461 L -25.2893,-53.6044 L -25.1289,-53.9453 L -24.927,-54.2634
 L -24.6869,-54.5536 L -24.4123,-54.8115 L -24.1075,-55.033 L -23.7773,-55.2145 L -23.427,-55.3532 L -23.0621,-55.4469
 L -22.6884,-55.4941 L -22.3116,-55.4941 L -21.9379,-55.4469 L -21.5729,-55.3532 L -21.2227,-55.2145 L -20.8925,-55.033
 L -20.5877,-54.8115 L -20.3131,-54.5536 L -20.0729,-54.2634 L -19.8711,-53.9453 L -19.7107,-53.6044 L -19.5942,-53.2461
 L -19.5237,-52.876 L -19.5,-52.5 L -19.5237,-52.124 L -19.5942,-51.7539 L -19.7107,-51.3956 L -19.8711,-51.0547
 L -20.0729,-50.7366 L -20.3131,-50.4464 L -20.5877,-50.1885 L -20.8925,-49.967 L -21.2227,-49.7855 L -21.5729,-49.6468
 L -21.9379,-49.5531 L -22.3116,-49.5059 z
M -97.6884,-49.5059 L -98.0621,-49.5531 L -98.427,-49.6468 L -98.7773,-49.7855 L -99.1075,-49.967 L -99.4123,-50.1885
 L -99.6869,-50.4464 L -99.927,-50.7366 L -100.129,-51.0547 L -100.289,-51.3956 L -100.406,-51.7539 L -100.476,-52.124
 L -100.5,-52.5 L -100.476,-52.876 L -100.406,-53.2461 L -100.289,-53.6044 L -100.129,-53.9453 L -99.927,-54.2634
 L -99.6869,-54.5536 L -99.4123,-54.8115 L -99.1075,-55.033 L -98.7773,-55.2145 L -98.427,-55.3532 L -98.0621,-55.4469
 L -97.6884,-55.4941 L -97.3116,-55.4941 L -96.9379,-55.4469 L -96.573,-55.3532 L -96.2227,-55.2145 L -95.8925,-55.033
 L -95.5877,-54.8115 L -95.3131,-54.5536 L -95.073,-54.2634 L -94.8711,-53.9453 L -94.7107,-53.6044 L -94.5943,-53.2461
 L -94.5237,-52.876 L -94.5,-52.5 L -94.5237,-52.124 L -94.5943,-51.7539 L -94.7107,-51.3956 L -94.8711,-51.0547
 L -95.073,-50.7366 L -95.3131,-50.4464 L -95.5877,-50.1885 L -95.8925,-49.967 L -96.2227,-49.7855 L -96.573,-49.6468
 L -96.9379,-49.5531 L -97.3116,-49.5059 z
M 112.312,-49.5059 L 111.938,-49.5531 L 111.573,-49.6468 L 111.223,-49.7855 L 110.893,-49.967 L 110.588,-50.1885
 L 110.313,-50.4464 L 110.073,-50.7366 L 109.871,-51.0547 L 109.711,-51.3956 L 109.594,-51.7539 L 109.524,-52.124
 L 109.5,-52.5 L 109.524,-52.876 L 109.594,-53.2461 L 109.711,-53.6044 L 109.871,-53.9453 L 110.073,-54.2634
 L 110.313,-54.5536 L 110.588,-54.8115 L 110.893,-55.033 L 111.223,-55.2145 L 111.573,-55.3532 L 111.938,-55.4469
 L 112.312,-55.4941 L 112.688,-55.4941 L 113.062,-55.4469 L 113.427,-55.3532 L 113.777,-55.2145 L 114.107,-55.033
 L 114.412,-54.8115 L 114.687,-54.5536 L 114.927,-54.2634 L 115.129,-53.9453 L 115.289,-53.6044 L 115.406,-53.2461
 L 115.476,-52.876 L 115.5,-52.5 L 115.476,-52.124 L 115.406,-51.7539 L 115.289,-51.3956 L 115.129,-51.0547
 L 114.927,-50.7366 L 114.687,-50.4464 L 114.412,-50.1885 L 114.107,-49.967 L 113.777,-49.7855 L 113.427,-49.6468
 L 113.062,-49.5531 L 112.688,-49.5059 z
M 82.3116,-49.5059 L 81.9379,-49.5531 L 81.573,-49.6468 L 81.2227,-49.7855 L 80.8925,-49.967 L 80.5877,-50.1885
 L 80.3131,-50.4464 L 80.073,-50.7366 L 79.8711,-51.0547 L 79.7107,-51.3956 L 79.5943,-51.7539 L 79.5237,-52.124
 L 79.5,-52.5 L 79.5237,-52.876 L 79.5943,-53.2461 L 79.7107,-53.6044 L 79.8711,-53.9453 L 80.073,-54.2634
 L 80.3131,-54.5536 L 80.5877,-54.8115 L 80.8925,-55.033 L 81.2227,-55.2145 L 81.573,-55.3532 L 81.9379,-55.4469
 L 82.3116,-55.4941 L 82.6884,-55.4941 L 83.0621,-55.4469 L 83.427,-55.3532 L 83.7773,-55.2145 L 84.1075,-55.033
 L 84.4123,-54.8115 L 84.6869,-54.5536 L 84.927,-54.2634 L 85.1289,-53.9453 L 85.2893,-53.6044 L 85.4057,-53.2461
 L 85.4763,-52.876 L 85.5,-52.5 L 85.4763,-52.124 L 85.4057,-51.7539 L 85.2893,-51.3956 L 85.1289,-51.0547
 L 84.927,-50.7366 L 84.6869,-50.4464 L 84.4123,-50.1885 L 84.1075,-49.967 L 83.7773,-49.7855 L 83.427,-49.6468
 L 83.0621,-49.5531 L 82.6884,-49.5059 z
M 97.3116,-49.5059 L 96.9379,-49.5531 L 96.573,-49.6468 L 96.2227,-49.7855 L 95.8925,-49.967 L 95.5877,-50.1885
 L 95.3131,-50.4464 L 95.073,-50.7366 L 94.8711,-51.0547 L 94.7107,-51.3956 L 94.5943,-51.7539 L 94.5237,-52.124
 L 94.5,-52.5 L 94.5237,-52.876 L 94.5943,-53.2461 L 94.7107,-53.6044 L 94.8711,-53.9453 L 95.073,-54.2634
 L 95.3131,-54.5536 L 95.5877,-54.8115 L 95.8925,-55.033 L 96.2227,-55.2145 L 96.573,-55.3532 L 96.9379,-55.4469
 L 97.3116,-55.4941 L 97.6884,-55.4941 L 98.0621,-55.4469 L 98.427,-55.3532 L 98.7773,-55.2145 L 99.1075,-55.033
 L 99.4123,-54.8115 L 99.6869,-54.5536 L 99.927,-54.2634 L 100.129,-53.9453 L 100.289,-53.6044 L 100.406,-53.2461
 L 100.476,-52.876 L 100.5,-52.5 L 100.476,-52.124 L 100.406,-51.7539 L 100.289,-51.3956 L 100.129,-51.0547
 L 99.927,-50.7366 L 99.6869,-50.4464 L 99.4123,-50.1885 L 99.1075,-49.967 L 98.7773,-49.7855 L 98.427,-49.6468
 L 98.0621,-49.5531 L 97.6884,-49.5059 z
M 37.3116,-49.5059 L 36.9379,-49.5531 L 36.5729,-49.6468 L 36.2227,-49.7855 L 35.8925,-49.967 L 35.5877,-50.1885
 L 35.3131,-50.4464 L 35.0729,-50.7366 L 34.8711,-51.0547 L 34.7107,-51.3956 L 34.5942,-51.7539 L 34.5237,-52.124
 L 34.5,-52.5 L 34.5237,-52.876 L 34.5942,-53.2461 L 34.7107,-53.6044 L 34.8711,-53.9453 L 35.0729,-54.2634
 L 35.3131,-54.5536 L 35.5877,-54.8115 L 35.8925,-55.033 L 36.2227,-55.2145 L 36.5729,-55.3532 L 36.9379,-55.4469
 L 37.3116,-55.4941 L 37.6884,-55.4941 L 38.0621,-55.4469 L 38.427,-55.3532 L 38.7773,-55.2145 L 39.1075,-55.033
 L 39.4123,-54.8115 L 39.6869,-54.5536 L 39.927,-54.2634 L 40.1289,-53.9453 L 40.2893,-53.6044 L 40.4057,-53.2461
 L 40.4763,-52.876 L 40.5,-52.5 L 40.4763,-52.124 L 40.4057,-51.7539 L 40.2893,-51.3956 L 40.1289,-51.0547
 L 39.927,-50.7366 L 39.6869,-50.4464 L 39.4123,-50.1885 L 39.1075,-49.967 L 38.7773,-49.7855 L 38.427,-49.6468
 L 38.0621,-49.5531 L 37.6884,-49.5059 z
M -7.68837,-49.5059 L -8.06213,-49.5531 L -8.42705,-49.6468 L -8.77733,-49.7855 L -9.10747,-49.967 L -9.41226,-50.1885
 L -9.6869,-50.4464 L -9.92705,-50.7366 L -10.1289,-51.0547 L -10.2893,-51.3956 L -10.4057,-51.7539 L -10.4763,-52.124
 L -10.5,-52.5 L -10.4763,-52.876 L -10.4057,-53.2461 L -10.2893,-53.6044 L -10.1289,-53.9453 L -9.92705,-54.2634
 L -9.6869,-54.5536 L -9.41226,-54.8115 L -9.10747,-55.033 L -8.77733,-55.2145 L -8.42705,-55.3532 L -8.06213,-55.4469
 L -7.68837,-55.4941 L -7.31161,-55.4941 L -6.93785,-55.4469 L -6.57294,-55.3532 L -6.22266,-55.2145 L -5.89252,-55.033
 L -5.58772,-54.8115 L -5.31308,-54.5536 L -5.07294,-54.2634 L -4.87108,-53.9453 L -4.71066,-53.6044 L -4.59424,-53.2461
 L -4.52365,-52.876 L -4.5,-52.5 L -4.52365,-52.124 L -4.59424,-51.7539 L -4.71066,-51.3956 L -4.87108,-51.0547
 L -5.07294,-50.7366 L -5.31308,-50.4464 L -5.58772,-50.1885 L -5.89252,-49.967 L -6.22266,-49.7855 L -6.57294,-49.6468
 L -6.93785,-49.5531 L -7.31161,-49.5059 z
M 142.312,-49.5059 L 141.938,-49.5531 L 141.573,-49.6468 L 141.223,-49.7855 L 140.893,-49.967 L 140.588,-50.1885
 L 140.313,-50.4464 L 140.073,-50.7366 L 139.871,-51.0547 L 139.711,-51.3956 L 139.594,-51.7539 L 139.524,-52.124
 L 139.5,-52.5 L 139.524,-52.876 L 139.594,-53.2461 L 139.711,-53.6044 L 139.871,-53.9453 L 140.073,-54.2634
 L 140.313,-54.5536 L 140.588,-54.8115 L 140.893,-55.033 L 141.223,-55.2145 L 141.573,-55.3532 L 141.938,-55.4469
 L 142.312,-55.4941 L 142.688,-55.4941 L 143.062,-55.4469 L 143.427,-55.3532 L 143.777,-55.2145 L 144.107,-55.033
 L 144.412,-54.8115 L 144.687,-54.5536 L 144.927,-54.2634 L 145.129,-53.9453 L 145.289,-53.6044 L 145.406,-53.2461
 L 145.476,-52.876 L 145.5,-52.5 L 145.476,-52.124 L 145.406,-51.7539 L 145.289,-51.3956 L 145.129,-51.0547
 L 144.927,-50.7366 L 144.687,-50.4464 L 144.412,-50.1885 L 144.107,-49.967 L 143.777,-49.7855 L 143.427,-49.6468
 L 143.062,-49.5531 L 142.688,-49.5059 z
M -52.6884,-49.5059 L -53.0621,-49.5531 L -53.427,-49.6468 L -53.7773,-49.7855 L -54.1075,-49.967 L -54.4123,-50.1885
 L -54.6869,-50.4464 L -54.927,-50.7366 L -55.1289,-51.0547 L -55.2893,-51.3956 L -55.4057,-51.7539 L -55.4763,-52.124
 L -55.5,-52.5 L -55.4763,-52.876 L -55.4057,-53.2461 L -55.2893,-53.6044 L -55.1289,-53.9453 L -54.927,-54.2634
 L -54.6869,-54.5536 L -54.4123,-54.8115 L -54.1075,-55.033 L -53.7773,-55.2145 L -53.427,-55.3532 L -53.0621,-55.4469
 L -52.6884,-55.4941 L -52.3116,-55.4941 L -51.9379,-55.4469 L -51.5729,-55.3532 L -51.2227,-55.2145 L -50.8925,-55.033
 L -50.5877,-54.8115 L -50.3131,-54.5536 L -50.0729,-54.2634 L -49.8711,-53.9453 L -49.7107,-53.6044 L -49.5942,-53.2461
 L -49.5237,-52.876 L -49.5,-52.5 L -49.5237,-52.124 L -49.5942,-51.7539 L -49.7107,-51.3956 L -49.8711,-51.0547
 L -50.0729,-50.7366 L -50.3131,-50.4464 L -50.5877,-50.1885 L -50.8925,-49.967 L -51.2227,-49.7855 L -51.5729,-49.6468
 L -51.9379,-49.5531 L -52.3116,-49.5059 z
M -82.6884,-49.5059 L -83.0621,-49.5531 L -83.427,-49.6468 L -83.7773,-49.7855 L -84.1075,-49.967 L -84.4123,-50.1885
 L -84.6869,-50.4464 L -84.927,-50.7366 L -85.1289,-51.0547 L -85.2893,-51.3956 L -85.4057,-51.7539 L -85.4763,-52.124
 L -85.5,-52.5 L -85.4763,-52.876 L -85.4057,-53.2461 L -85.2893,-53.6044 L -85.1289,-53.9453 L -84.927,-54.2634
 L -84.6869,-54.5536 L -84.4123,-54.8115 L -84.1075,-55.033 L -83.7773,-55.2145 L -83.427,-55.3532 L -83.0621,-55.4469
 L -82.6884,-55.4941 L -82.3116,-55.4941 L -81.9379,-55.4469 L -81.573,-55.3532 L -81.2227,-55.2145 L -80.8925,-55.033
 L -80.5877,-54.8115 L -80.3131,-54.5536 L -80.073,-54.2634 L -79.8711,-53.9453 L -79.7107,-53.6044 L -79.5943,-53.2461
 L -79.5237,-52.876 L -79.5,-52.5 L -79.5237,-52.124 L -79.5943,-51.7539 L -79.7107,-51.3956 L -79.8711,-51.0547
 L -80.073,-50.7366 L -80.3131,-50.4464 L -80.5877,-50.1885 L -80.8925,-49.967 L -81.2227,-49.7855 L -81.573,-49.6468
 L -81.9379,-49.5531 L -82.3116,-49.5059 z
M 52.3116,-49.5059 L 51.9379,-49.5531 L 51.5729,-49.6468 L 51.2227,-49.7855 L 50.8925,-49.967 L 50.5877,-50.1885
 L 50.3131,-50.4464 L 50.0729,-50.7366 L 49.8711,-51.0547 L 49.7107,-51.3956 L 49.5942,-51.7539 L 49.5237,-52.124
 L 49.5,-52.5 L 49.5237,-52.876 L 49.5942,-53.2461 L 49.7107,-53.6044 L 49.8711,-53.9453 L 50.0729,-54.2634
 L 50.3131,-54.5536 L 50.5877,-54.8115 L 50.8925,-55.033 L 51.2227,-55.2145 L 51.5729,-55.3532 L 51.9379,-55.4469
 L 52.3116,-55.4941 L 52.6884,-55.4941 L 53.0621,-55.4469 L 53.427,-55.3532 L 53.7773,-55.2145 L 54.1075,-55.033
 L 54.4123,-54.8115 L 54.6869,-54.5536 L 54.927,-54.2634 L 55.1289,-53.9453 L 55.2893,-53.6044 L 55.4057,-53.2461
 L 55.4763,-52.876 L 55.5,-52.5 L 55.4763,-52.124 L 55.4057,-51.7539 L 55.2893,-51.3956 L 55.1289,-51.0547
 L 54.927,-50.7366 L 54.6869,-50.4464 L 54.4123,-50.1885 L 54.1075,-49.967 L 53.7773,-49.7855 L 53.427,-49.6468
 L 53.0621,-49.5531 L 52.6884,-49.5059 z
M 127.312,-49.5059 L 126.938,-49.5531 L 126.573,-49.6468 L 126.223,-49.7855 L 125.893,-49.967 L 125.588,-50.1885
 L 125.313,-50.4464 L 125.073,-50.7366 L 124.871,-51.0547 L 124.711,-51.3956 L 124.594,-51.7539 L 124.524,-52.124
 L 124.5,-52.5 L 124.524,-52.876 L 124.594,-53.2461 L 124.711,-53.6044 L 124.871,-53.9453 L 125.073,-54.2634
 L 125.313,-54.5536 L 125.588,-54.8115 L 125.893,-55.033 L 126.223,-55.2145 L 126.573,-55.3532 L 126.938,-55.4469
 L 127.312,-55.4941 L 127.688,-55.4941 L 128.062,-55.4469 L 128.427,-55.3532 L 128.777,-55.2145 L 129.107,-55.033
 L 129.412,-54.8115 L 129.687,-54.5536 L 129.927,-54.2634 L 130.129,-53.9453 L 130.289,-53.6044 L 130.406,-53.2461
 L 130.476,-52.876 L 130.5,-52.5 L 130.476,-52.124 L 130.406,-51.7539 L 130.289,-51.3956 L 130.129,-51.0547
 L 129.927,-50.7366 L 129.687,-50.4464 L 129.412,-50.1885 L 129.107,-49.967 L 128.777,-49.7855 L 128.427,-49.6468
 L 128.062,-49.5531 L 127.688,-49.5059 z
M -37.6884,-49.5059 L -38.0621,-49.5531 L -38.427,-49.6468 L -38.7773,-49.7855 L -39.1075,-49.967 L -39.4123,-50.1885
 L -39.6869,-50.4464 L -39.927,-50.7366 L -40.1289,-51.0547 L -40.2893,-51.3956 L -40.4057,-51.7539 L -40.4763,-52.124
 L -40.5,-52.5 L -40.4763,-52.876 L -40.4057,-53.2461 L -40.2893,-53.6044 L -40.1289,-53.9453 L -39.927,-54.2634
 L -39.6869,-54.5536 L -39.4123,-54.8115 L -39.1075,-55.033 L -38.7773,-55.2145 L -38.427,-55.3532 L -38.0621,-55.4469
 L -37.6884,-55.4941 L -37.3116,-55.4941 L -36.9379,-55.4469 L -36.5729,-55.3532 L -36.2227,-55.2145 L -35.8925,-55.033
 L -35.5877,-54.8115 L -35.3131,-54.5536 L -35.0729,-54.2634 L -34.8711,-53.9453 L -34.7107,-53.6044 L -34.5942,-53.2461
 L -34.5237,-52.876 L -34.5,-52.5 L -34.5237,-52.124 L -34.5942,-51.7539 L -34.7107,-51.3956 L -34.8711,-51.0547
 L -35.0729,-50.7366 L -35.3131,-50.4464 L -35.5877,-50.1885 L -35.8925,-49.967 L -36.2227,-49.7855 L -36.5729,-49.6468
 L -36.9379,-49.5531 L -37.3116,-49.5059 z
M -142.688,-49.5059 L -143.062,-49.5531 L -143.427,-49.6468 L -143.777,-49.7855 L -144.107,-49.967 L -144.412,-50.1885
 L -144.687,-50.4464 L -144.927,-50.7366 L -145.129,-51.0547 L -145.289,-51.3956 L -145.406,-51.7539 L -145.476,-52.124
 L -145.5,-52.5 L -145.476,-52.876 L -145.406,-53.2461 L -145.289,-53.6044 L -145.129,-53.9453 L -144.927,-54.2634
 L -144.687,-54.5536 L -144.412,-54.8115 L -144.107,-55.033 L -143.777,-55.2145 L -143.427,-55.3532 L -143.062,-55.4469
 L -142.688,-55.4941 L -142.312,-55.4941 L -141.938,-55.4469 L -141.573,-55.3532 L -141.223,-55.2145 L -140.893,-55.033
 L -140.588,-54.8115 L -140.313,-54.5536 L -140.073,-54.2634 L -139.871,-53.9453 L -139.711,-53.6044 L -139.594,-53.2461
 L -139.524,-52.876 L -139.5,-52.5 L -139.524,-52.124 L -139.594,-51.7539 L -139.711,-51.3956 L -139.871,-51.0547
 L -140.073,-50.7366 L -140.313,-50.4464 L -140.588,-50.1885 L -140.893,-49.967 L -141.223,-49.7855 L -141.573,-49.6468
 L -141.938,-49.5531 L -142.312,-49.5059 z
M -112.688,-49.5059 L -113.062,-49.5531 L -113.427,-49.6468 L -113.777,-49.7855 L -114.107,-49.967 L -114.412,-50.1885
 L -114.687,-50.4464 L -114.927,-50.7366 L -115.129,-51.0547 L -115.289,-51.3956 L -115.406,-51.7539 L -115.476,-52.124
 L -115.5,-52.5 L -115.476,-52.876 L -115.406,-53.2461 L -115.289,-53.6044 L -115.129,-53.9453 L -114.927,-54.2634
 L -114.687,-54.5536 L -114.412,-54.8115 L -114.107,-55.033 L -113.777,-55.2145 L -113.427,-55.3532 L -113.062,-55.4469
 L -112.688,-55.4941 L -112.312,-55.4941 L -111.938,-55.4469 L -111.573,-55.3532 L -111.223,-55.2145 L -110.893,-55.033
 L -110.588,-54.8115 L -110.313,-54.5536 L -110.073,-54.2634 L -109.871,-53.9453 L -109.711,-53.6044 L -109.594,-53.2461
 L -109.524,-52.876 L -109.5,-52.5 L -109.524,-52.124 L -109.594,-51.7539 L -109.711,-51.3956 L -109.871,-51.0547
 L -110.073,-50.7366 L -110.313,-50.4464 L -110.588,-50.1885 L -110.893,-49.967 L -111.223,-49.7855 L -111.573,-49.6468
 L -111.938,-49.5531 L -112.312,-49.5059 z
M -67.6884,-49.5059 L -68.0621,-49.5531 L -68.427,-49.6468 L -68.7773,-49.7855 L -69.1075,-49.967 L -69.4123,-50.1885
 L -69.6869,-50.4464 L -69.927,-50.7366 L -70.1289,-51.0547 L -70.2893,-51.3956 L -70.4057,-51.7539 L -70.4763,-52.124
 L -70.5,-52.5 L -70.4763,-52.876 L -70.4057,-53.2461 L -70.2893,-53.6044 L -70.1289,-53.9453 L -69.927,-54.2634
 L -69.6869,-54.5536 L -69.4123,-54.8115 L -69.1075,-55.033 L -68.7773,-55.2145 L -68.427,-55.3532 L -68.0621,-55.4469
 L -67.6884,-55.4941 L -67.3116,-55.4941 L -66.9379,-55.4469 L -66.573,-55.3532 L -66.2227,-55.2145 L -65.8925,-55.033
 L -65.5877,-54.8115 L -65.3131,-54.5536 L -65.073,-54.2634 L -64.8711,-53.9453 L -64.7107,-53.6044 L -64.5943,-53.2461
 L -64.5237,-52.876 L -64.5,-52.5 L -64.5237,-52.124 L -64.5943,-51.7539 L -64.7107,-51.3956 L -64.8711,-51.0547
 L -65.073,-50.7366 L -65.3131,-50.4464 L -65.5877,-50.1885 L -65.8925,-49.967 L -66.2227,-49.7855 L -66.573,-49.6468
 L -66.9379,-49.5531 L -67.3116,-49.5059 z
M -127.688,-49.5059 L -128.062,-49.5531 L -128.427,-49.6468 L -128.777,-49.7855 L -129.107,-49.967 L -129.412,-50.1885
 L -129.687,-50.4464 L -129.927,-50.7366 L -130.129,-51.0547 L -130.289,-51.3956 L -130.406,-51.7539 L -130.476,-52.124
 L -130.5,-52.5 L -130.476,-52.876 L -130.406,-53.2461 L -130.289,-53.6044 L -130.129,-53.9453 L -129.927,-54.2634
 L -129.687,-54.5536 L -129.412,-54.8115 L -129.107,-55.033 L -128.777,-55.2145 L -128.427,-55.3532 L -128.062,-55.4469
 L -127.688,-55.4941 L -127.312,-55.4941 L -126.938,-55.4469 L -126.573,-55.3532 L -126.223,-55.2145 L -125.893,-55.033
 L -125.588,-54.8115 L -125.313,-54.5536 L -125.073,-54.2634 L -124.871,-53.9453 L -124.711,-53.6044 L -124.594,-53.2461
 L -124.524,-52.876 L -124.5,-52.5 L -124.524,-52.124 L -124.594,-51.7539 L -124.711,-51.3956 L -124.871,-51.0547
 L -125.073,-50.7366 L -125.313,-50.4464 L -125.588,-50.1885 L -125.893,-49.967 L -126.223,-49.7855 L -126.573,-49.6468
 L -126.938,-49.5531 L -127.312,-49.5059 z
M 7.31161,-49.5059 L 6.93785,-49.5531 L 6.57294,-49.6468 L 6.22266,-49.7855 L 5.89252,-49.967 L 5.58772,-50.1885
 L 5.31308,-50.4464 L 5.07294,-50.7366 L 4.87108,-51.0547 L 4.71066,-51.3956 L 4.59424,-51.7539 L 4.52365,-52.124
 L 4.5,-52.5 L 4.52365,-52.876 L 4.59424,-53.2461 L 4.71066,-53.6044 L 4.87108,-53.9453 L 5.07294,-54.2634
 L 5.31308,-54.5536 L 5.58772,-54.8115 L 5.89252,-55.033 L 6.22266,-55.2145 L 6.57294,-55.3532 L 6.93785,-55.4469
 L 7.31161,-55.4941 L 7.68837,-55.4941 L 8.06213,-55.4469 L 8.42705,-55.3532 L 8.77733,-55.2145 L 9.10747,-55.033
 L 9.41226,-54.8115 L 9.6869,-54.5536 L 9.92705,-54.2634 L 10.1289,-53.9453 L 10.2893,-53.6044 L 10.4057,-53.2461
 L 10.4763,-52.876 L 10.5,-52.5 L 10.4763,-52.124 L 10.4057,-51.7539 L 10.2893,-51.3956 L 10.1289,-51.0547
 L 9.92705,-50.7366 L 9.6869,-50.4464 L 9.41226,-50.1885 L 9.10747,-49.967 L 8.77733,-49.7855 L 8.42705,-49.6468
 L 8.06213,-49.5531 L 7.68837,-49.5059 z
M 68.0621,-55.4469 L 68.427,-55.3532 L 68.7773,-55.2145 L 69.1075,-55.033 L 69.4123,-54.8115 L 69.6869,-54.5536
 L 69.927,-54.2634 L 70.1289,-53.9453 L 70.2893,-53.6044 L 70.4057,-53.2461 L 70.4763,-52.876 L 70.5,-52.5
 L 70.4763,-52.124 L 70.4057,-51.7539 L 70.2893,-51.3956 L 70.1289,-51.0547 L 69.927,-50.7366 L 69.6869,-50.4464
 L 69.4123,-50.1885 L 69.1075,-49.967 L 68.7773,-49.7855 L 68.427,-49.6468 L 68.0621,-49.5531 L 67.6884,-49.5059
 L 67.3116,-49.5059 L 66.9379,-49.5531 L 66.573,-49.6468 L 66.2227,-49.7855 L 65.8925,-49.967 L 65.5877,-50.1885
 L 65.3131,-50.4464 L 65.073,-50.7366 L 64.8711,-51.0547 L 64.7107,-51.3956 L 64.5943,-51.7539 L 64.5237,-52.124
 L 64.5,-52.5 L 64.5237,-52.876 L 64.5943,-53.2461 L 64.7107,-53.6044 L 64.8711,-53.9453 L 65.073,-54.2634
 L 65.3131,-54.5536 L 65.5877,-54.8115 L 65.8925,-55.033 L 66.2227,-55.2145 L 66.573,-55.3532 L 66.9379,-55.4469
 L 67.3116,-55.4941 L 67.6884,-55.4941 z
M -60.0942,-51.003 L -60.2811,-51.0266 L -60.4635,-51.0734 L -60.6387,-51.1428 L -60.8037,-51.2335 L -60.9561,-51.3442
 L -61.0934,-51.4732 L -61.2135,-51.6183 L -61.3145,-51.7774 L -61.3947,-51.9478 L -61.4529,-52.127 L -61.4882,-52.312
 L -61.5,-52.5 L -61.4882,-52.688 L -61.4529,-52.873 L -61.3947,-53.0522 L -61.3145,-53.2226 L -61.2135,-53.3817
 L -61.0934,-53.5268 L -60.9561,-53.6558 L -60.8037,-53.7665 L -60.6387,-53.8572 L -60.4635,-53.9266 L -60.2811,-53.9734
 L -60.0942,-53.997 L -59.9058,-53.997 L -59.7189,-53.9734 L -59.5365,-53.9266 L -59.3613,-53.8572 L -59.1963,-53.7665
 L -59.0439,-53.6558 L -58.9065,-53.5268 L -58.7865,-53.3817 L -58.6855,-53.2226 L -58.6053,-53.0522 L -58.5471,-52.873
 L -58.5118,-52.688 L -58.5,-52.5 L -58.5118,-52.312 L -58.5471,-52.127 L -58.6053,-51.9478 L -58.6855,-51.7774
 L -58.7865,-51.6183 L -58.9065,-51.4732 L -59.0439,-51.3442 L -59.1963,-51.2335 L -59.3613,-51.1428 L -59.5365,-51.0734
 L -59.7189,-51.0266 L -59.9058,-51.003 z
M 14.9058,-51.003 L 14.7189,-51.0266 L 14.5365,-51.0734 L 14.3613,-51.1428 L 14.1963,-51.2335 L 14.0439,-51.3442
 L 13.9065,-51.4732 L 13.7865,-51.6183 L 13.6855,-51.7774 L 13.6053,-51.9478 L 13.5471,-52.127 L 13.5118,-52.312
 L 13.5,-52.5 L 13.5118,-52.688 L 13.5471,-52.873 L 13.6053,-53.0522 L 13.6855,-53.2226 L 13.7865,-53.3817
 L 13.9065,-53.5268 L 14.0439,-53.6558 L 14.1963,-53.7665 L 14.3613,-53.8572 L 14.5365,-53.9266 L 14.7189,-53.9734
 L 14.9058,-53.997 L 15.0942,-53.997 L 15.2811,-53.9734 L 15.4635,-53.9266 L 15.6387,-53.8572 L 15.8037,-53.7665
 L 15.9561,-53.6558 L 16.0934,-53.5268 L 16.2135,-53.3817 L 16.3145,-53.2226 L 16.3947,-53.0522 L 16.4529,-52.873
 L 16.4882,-52.688 L 16.5,-52.5 L 16.4882,-52.312 L 16.4529,-52.127 L 16.3947,-51.9478 L 16.3145,-51.7774
 L 16.2135,-51.6183 L 16.0934,-51.4732 L 15.9561,-51.3442 L 15.8037,-51.2335 L 15.6387,-51.1428 L 15.4635,-51.0734
 L 15.2811,-51.0266 L 15.0942,-51.003 z
M 89.9058,-51.003 L 89.7189,-51.0266 L 89.5365,-51.0734 L 89.3613,-51.1428 L 89.1963,-51.2335 L 89.0439,-51.3442
 L 88.9065,-51.4732 L 88.7865,-51.6183 L 88.6855,-51.7774 L 88.6053,-51.9478 L 88.5471,-52.127 L 88.5118,-52.312
 L 88.5,-52.5 L 88.5118,-52.688 L 88.5471,-52.873 L 88.6053,-53.0522 L 88.6855,-53.2226 L 88.7865,-53.3817
 L 88.9065,-53.5268 L 89.0439,-53.6558 L 89.1963,-53.7665 L 89.3613,-53.8572 L 89.5365,-53.9266 L 89.7189,-53.9734
 L 89.9058,-53.997 L 90.0942,-53.997 L 90.2811,-53.9734 L 90.4635,-53.9266 L 90.6387,-53.8572 L 90.8037,-53.7665
 L 90.9561,-53.6558 L 91.0934,-53.5268 L 91.2135,-53.3817 L 91.3145,-53.2226 L 91.3947,-53.0522 L 91.4529,-52.873
 L 91.4882,-52.688 L 91.5,-52.5 L 91.4882,-52.312 L 91.4529,-52.127 L 91.3947,-51.9478 L 91.3145,-51.7774
 L 91.2135,-51.6183 L 91.0934,-51.4732 L 90.9561,-51.3442 L 90.8037,-51.2335 L 90.6387,-51.1428 L 90.4635,-51.0734
 L 90.2811,-51.0266 L 90.0942,-51.003 z
M -15.0942,-51.003 L -15.2811,-51.0266 L -15.4635,-51.0734 L -15.6387,-51.1428 L -15.8037,-51.2335 L -15.9561,-51.3442
 L -16.0934,-51.4732 L -16.2135,-51.6183 L -16.3145,-51.7774 L -16.3947,-51.9478 L -16.4529,-52.127 L -16.4882,-52.312
 L -16.5,-52.5 L -16.4882,-52.688 L -16.4529,-52.873 L -16.3947,-53.0522 L -16.3145,-53.2226 L -16.2135,-53.3817
 L -16.0934,-53.5268 L -15.9561,-53.6558 L -15.8037,-53.7665 L -15.6387,-53.8572 L -15.4635,-53.9266 L -15.2811,-53.9734
 L -15.0942,-53.997 L -14.9058,-53.997 L -14.7189,-53.9734 L -14.5365,-53.9266 L -14.3613,-53.8572 L -14.1963,-53.7665
 L -14.0439,-53.6558 L -13.9065,-53.5268 L -13.7865,-53.3817 L -13.6855,-53.2226 L -13.6053,-53.0522 L -13.5471,-52.873
 L -13.5118,-52.688 L -13.5,-52.5 L -13.5118,-52.312 L -13.5471,-52.127 L -13.6053,-51.9478 L -13.6855,-51.7774
 L -13.7865,-51.6183 L -13.9065,-51.4732 L -14.0439,-51.3442 L -14.1963,-51.2335 L -14.3613,-51.1428 L -14.5365,-51.0734
 L -14.7189,-51.0266 L -14.9058,-51.003 z
M -120.094,-51.003 L -120.281,-51.0266 L -120.464,-51.0734 L -120.639,-51.1428 L -120.804,-51.2335 L -120.956,-51.3442
 L -121.093,-51.4732 L -121.214,-51.6183 L -121.314,-51.7774 L -121.395,-51.9478 L -121.453,-52.127 L -121.488,-52.312
 L -121.5,-52.5 L -121.488,-52.688 L -121.453,-52.873 L -121.395,-53.0522 L -121.314,-53.2226 L -121.214,-53.3817
 L -121.093,-53.5268 L -120.956,-53.6558 L -120.804,-53.7665 L -120.639,-53.8572 L -120.464,-53.9266 L -120.281,-53.9734
 L -120.094,-53.997 L -119.906,-53.997 L -119.719,-53.9734 L -119.536,-53.9266 L -119.361,-53.8572 L -119.196,-53.7665
 L -119.044,-53.6558 L -118.907,-53.5268 L -118.786,-53.3817 L -118.686,-53.2226 L -118.605,-53.0522 L -118.547,-52.873
 L -118.512,-52.688 L -118.5,-52.5 L -118.512,-52.312 L -118.547,-52.127 L -118.605,-51.9478 L -118.686,-51.7774
 L -118.786,-51.6183 L -118.907,-51.4732 L -119.044,-51.3442 L -119.196,-51.2335 L -119.361,-51.1428 L -119.536,-51.0734
 L -119.719,-51.0266 L -119.906,-51.003 z
M -105.094,-51.003 L -105.281,-51.0266 L -105.464,-51.0734 L -105.639,-51.1428 L -105.804,-51.2335 L -105.956,-51.3442
 L -106.093,-51.4732 L -106.214,-51.6183 L -106.314,-51.7774 L -106.395,-51.9478 L -106.453,-52.127 L -106.488,-52.312
 L -106.5,-52.5 L -106.488,-52.688 L -106.453,-52.873 L -106.395,-53.0522 L -106.314,-53.2226 L -106.214,-53.3817
 L -106.093,-53.5268 L -105.956,-53.6558 L -105.804,-53.7665 L -105.639,-53.8572 L -105.464,-53.9266 L -105.281,-53.9734
 L -105.094,-53.997 L -104.906,-53.997 L -104.719,-53.9734 L -104.536,-53.9266 L -104.361,-53.8572 L -104.196,-53.7665
 L -104.044,-53.6558 L -103.907,-53.5268 L -103.786,-53.3817 L -103.686,-53.2226 L -103.605,-53.0522 L -103.547,-52.873
 L -103.512,-52.688 L -103.5,-52.5 L -103.512,-52.312 L -103.547,-52.127 L -103.605,-51.9478 L -103.686,-51.7774
 L -103.786,-51.6183 L -103.907,-51.4732 L -104.044,-51.3442 L -104.196,-51.2335 L -104.361,-51.1428 L -104.536,-51.0734
 L -104.719,-51.0266 L -104.906,-51.003 z
M -75.0942,-51.003 L -75.2811,-51.0266 L -75.4635,-51.0734 L -75.6387,-51.1428 L -75.8037,-51.2335 L -75.9561,-51.3442
 L -76.0934,-51.4732 L -76.2135,-51.6183 L -76.3145,-51.7774 L -76.3947,-51.9478 L -76.4529,-52.127 L -76.4882,-52.312
 L -76.5,-52.5 L -76.4882,-52.688 L -76.4529,-52.873 L -76.3947,-53.0522 L -76.3145,-53.2226 L -76.2135,-53.3817
 L -76.0934,-53.5268 L -75.9561,-53.6558 L -75.8037,-53.7665 L -75.6387,-53.8572 L -75.4635,-53.9266 L -75.2811,-53.9734
 L -75.0942,-53.997 L -74.9058,-53.997 L -74.7189,-53.9734 L -74.5365,-53.9266 L -74.3613,-53.8572 L -74.1963,-53.7665
 L -74.0439,-53.6558 L -73.9065,-53.5268 L -73.7865,-53.3817 L -73.6855,-53.2226 L -73.6053,-53.0522 L -73.5471,-52.873
 L -73.5118,-52.688 L -73.5,-52.5 L -73.5118,-52.312 L -73.5471,-52.127 L -73.6053,-51.9478 L -73.6855,-51.7774
 L -73.7865,-51.6183 L -73.9065,-51.4732 L -74.0439,-51.3442 L -74.1963,-51.2335 L -74.3613,-51.1428 L -74.5365,-51.0734
 L -74.7189,-51.0266 L -74.9058,-51.003 z
M 104.906,-51.003 L 104.719,-51.0266 L 104.536,-51.0734 L 104.361,-51.1428 L 104.196,-51.2335 L 104.044,-51.3442
 L 103.907,-51.4732 L 103.786,-51.6183 L 103.686,-51.7774 L 103.605,-51.9478 L 103.547,-52.127 L 103.512,-52.312
 L 103.5,-52.5 L 103.512,-52.688 L 103.547,-52.873 L 103.605,-53.0522 L 103.686,-53.2226 L 103.786,-53.3817
 L 103.907,-53.5268 L 104.044,-53.6558 L 104.196,-53.7665 L 104.361,-53.8572 L 104.536,-53.9266 L 104.719,-53.9734
 L 104.906,-53.997 L 105.094,-53.997 L 105.281,-53.9734 L 105.464,-53.9266 L 105.639,-53.8572 L 105.804,-53.7665
 L 105.956,-53.6558 L 106.093,-53.5268 L 106.214,-53.3817 L 106.314,-53.2226 L 106.395,-53.0522 L 106.453,-52.873
 L 106.488,-52.688 L 106.5,-52.5 L 106.488,-52.312 L 106.453,-52.127 L 106.395,-51.9478 L 106.314,-51.7774
 L 106.214,-51.6183 L 106.093,-51.4732 L 105.956,-51.3442 L 105.804,-51.2335 L 105.639,-51.1428 L 105.464,-51.0734
 L 105.281,-51.0266 L 105.094,-51.003 z
M -0.0941772,-51.003 L -0.281067,-51.0266 L -0.463516,-51.0734 L -0.638657,-51.1428 L -0.803726,-51.2335 L -0.956131,-51.3442
 L -1.09344,-51.4732 L -1.21352,-51.6183 L -1.31445,-51.7774 L -1.39465,-51.9478 L -1.45287,-52.127 L -1.48816,-52.312
 L -1.5,-52.5 L -1.48816,-52.688 L -1.45287,-52.873 L -1.39465,-53.0522 L -1.31445,-53.2226 L -1.21352,-53.3817
 L -1.09344,-53.5268 L -0.956131,-53.6558 L -0.803726,-53.7665 L -0.638657,-53.8572 L -0.463516,-53.9266 L -0.281067,-53.9734
 L -0.0941772,-53.997 L 0.0941772,-53.997 L 0.281067,-53.9734 L 0.463516,-53.9266 L 0.638657,-53.8572 L 0.803726,-53.7665
 L 0.956131,-53.6558 L 1.09344,-53.5268 L 1.21352,-53.3817 L 1.31445,-53.2226 L 1.39465,-53.0522 L 1.45287,-52.873
 L 1.48816,-52.688 L 1.5,-52.5 L 1.48816,-52.312 L 1.45287,-52.127 L 1.39465,-51.9478 L 1.31445,-51.7774
 L 1.21352,-51.6183 L 1.09344,-51.4732 L 0.956131,-51.3442 L 0.803726,-51.2335 L 0.638657,-51.1428 L 0.463516,-51.0734
 L 0.281067,-51.0266 L 0.0941772,-51.003 z
M 74.9058,-51.003 L 74.7189,-51.0266 L 74.5365,-51.0734 L 74.3613,-51.1428 L 74.1963,-51.2335 L 74.0439,-51.3442
 L 73.9065,-51.4732 L 73.7865,-51.6183 L 73.6855,-51.7774 L 73.6053,-51.9478 L 73.5471,-52.127 L 73.5118,-52.312
 L 73.5,-52.5 L 73.5118,-52.688 L 73.5471,-52.873 L 73.6053,-53.0522 L 73.6855,-53.2226 L 73.7865,-53.3817
 L 73.9065,-53.5268 L 74.0439,-53.6558 L 74.1963,-53.7665 L 74.3613,-53.8572 L 74.5365,-53.9266 L 74.7189,-53.9734
 L 74.9058,-53.997 L 75.0942,-53.997 L 75.2811,-53.9734 L 75.4635,-53.9266 L 75.6387,-53.8572 L 75.8037,-53.7665
 L 75.9561,-53.6558 L 76.0934,-53.5268 L 76.2135,-53.3817 L 76.3145,-53.2226 L 76.3947,-53.0522 L 76.4529,-52.873
 L 76.4882,-52.688 L 76.5,-52.5 L 76.4882,-52.312 L 76.4529,-52.127 L 76.3947,-51.9478 L 76.3145,-51.7774
 L 76.2135,-51.6183 L 76.0934,-51.4732 L 75.9561,-51.3442 L 75.8037,-51.2335 L 75.6387,-51.1428 L 75.4635,-51.0734
 L 75.2811,-51.0266 L 75.0942,-51.003 z
M 29.9058,-51.003 L 29.7189,-51.0266 L 29.5365,-51.0734 L 29.3613,-51.1428 L 29.1963,-51.2335 L 29.0439,-51.3442
 L 28.9065,-51.4732 L 28.7865,-51.6183 L 28.6855,-51.7774 L 28.6053,-51.9478 L 28.5471,-52.127 L 28.5118,-52.312
 L 28.5,-52.5 L 28.5118,-52.688 L 28.5471,-52.873 L 28.6053,-53.0522 L 28.6855,-53.2226 L 28.7865,-53.3817
 L 28.9065,-53.5268 L 29.0439,-53.6558 L 29.1963,-53.7665 L 29.3613,-53.8572 L 29.5365,-53.9266 L 29.7189,-53.9734
 L 29.9058,-53.997 L 30.0942,-53.997 L 30.2811,-53.9734 L 30.4635,-53.9266 L 30.6387,-53.8572 L 30.8037,-53.7665
 L 30.9561,-53.6558 L 31.0934,-53.5268 L 31.2135,-53.3817 L 31.3145,-53.2226 L 31.3947,-53.0522 L 31.4529,-52.873
 L 31.4882,-52.688 L 31.5,-52.5 L 31.4882,-52.312 L 31.4529,-52.127 L 31.3947,-51.9478 L 31.3145,-51.7774
 L 31.2135,-51.6183 L 31.0934,-51.4732 L 30.9561,-51.3442 L 30.8037,-51.2335 L 30.6387,-51.1428 L 30.4635,-51.0734
 L 30.2811,-51.0266 L 30.0942,-51.003 z
M 119.906,-51.003 L 119.719,-51.0266 L 119.536,-51.0734 L 119.361,-51.1428 L 119.196,-51.2335 L 119.044,-51.3442
 L 118.907,-51.4732 L 118.786,-51.6183 L 118.686,-51.7774 L 118.605,-51.9478 L 118.547,-52.127 L 118.512,-52.312
 L 118.5,-52.5 L 118.512,-52.688 L 118.547,-52.873 L 118.605,-53.0522 L 118.686,-53.2226 L 118.786,-53.3817
 L 118.907,-53.5268 L 119.044,-53.6558 L 119.196,-53.7665 L 119.361,-53.8572 L 119.536,-53.9266 L 119.719,-53.9734
 L 119.906,-53.997 L 120.094,-53.997 L 120.281,-53.9734 L 120.464,-53.9266 L 120.639,-53.8572 L 120.804,-53.7665
 L 120.956,-53.6558 L 121.093,-53.5268 L 121.214,-53.3817 L 121.314,-53.2226 L 121.395,-53.0522 L 121.453,-52.873
 L 121.488,-52.688 L 121.5,-52.5 L 121.488,-52.312 L 121.453,-52.127 L 121.395,-51.9478 L 121.314,-51.7774
 L 121.214,-51.6183 L 121.093,-51.4732 L 120.956,-51.3442 L 120.804,-51.2335 L 120.639,-51.1428 L 120.464,-51.0734
 L 120.281,-51.0266 L 120.094,-51.003 z
M -45.0942,-51.003 L -45.2811,-51.0266 L -45.4635,-51.0734 L -45.6387,-51.1428 L -45.8037,-51.2335 L -45.9561,-51.3442
 L -46.0934,-51.4732 L -46.2135,-51.6183 L -46.3145,-51.7774 L -46.3947,-51.9478 L -46.4529,-52.127 L -46.4882,-52.312
 L -46.5,-52.5 L -46.4882,-52.688 L -46.4529,-52.873 L -46.3947,-53.0522 L -46.3145,-53.2226 L -46.2135,-53.3817
 L -46.0934,-53.5268 L -45.9561,-53.6558 L -45.8037,-53.7665 L -45.6387,-53.8572 L -45.4635,-53.9266 L -45.2811,-53.9734
 L -45.0942,-53.997 L -44.9058,-53.997 L -44.7189,-53.9734 L -44.5365,-53.9266 L -44.3613,-53.8572 L -44.1963,-53.7665
 L -44.0439,-53.6558 L -43.9065,-53.5268 L -43.7865,-53.3817 L -43.6855,-53.2226 L -43.6053,-53.0522 L -43.5471,-52.873
 L -43.5118,-52.688 L -43.5,-52.5 L -43.5118,-52.312 L -43.5471,-52.127 L -43.6053,-51.9478 L -43.6855,-51.7774
 L -43.7865,-51.6183 L -43.9065,-51.4732 L -44.0439,-51.3442 L -44.1963,-51.2335 L -44.3613,-51.1428 L -44.5365,-51.0734
 L -44.7189,-51.0266 L -44.9058,-51.003 z
M -30.0942,-51.003 L -30.2811,-51.0266 L -30.4635,-51.0734 L -30.6387,-51.1428 L -30.8037,-51.2335 L -30.9561,-51.3442
 L -31.0934,-51.4732 L -31.2135,-51.6183 L -31.3145,-51.7774 L -31.3947,-51.9478 L -31.4529,-52.127 L -31.4882,-52.312
 L -31.5,-52.5 L -31.4882,-52.688 L -31.4529,-52.873 L -31.3947,-53.0522 L -31.3145,-53.2226 L -31.2135,-53.3817
 L -31.0934,-53.5268 L -30.9561,-53.6558 L -30.8037,-53.7665 L -30.6387,-53.8572 L -30.4635,-53.9266 L -30.2811,-53.9734
 L -30.0942,-53.997 L -29.9058,-53.997 L -29.7189,-53.9734 L -29.5365,-53.9266 L -29.3613,-53.8572 L -29.1963,-53.7665
 L -29.0439,-53.6558 L -28.9065,-53.5268 L -28.7865,-53.3817 L -28.6855,-53.2226 L -28.6053,-53.0522 L -28.5471,-52.873
 L -28.5118,-52.688 L -28.5,-52.5 L -28.5118,-52.312 L -28.5471,-52.127 L -28.6053,-51.9478 L -28.6855,-51.7774
 L -28.7865,-51.6183 L -28.9065,-51.4732 L -29.0439,-51.3442 L -29.1963,-51.2335 L -29.3613,-51.1428 L -29.5365,-51.0734
 L -29.7189,-51.0266 L -29.9058,-51.003 z
M 44.9058,-51.003 L 44.7189,-51.0266 L 44.5365,-51.0734 L 44.3613,-51.1428 L 44.1963,-51.2335 L 44.0439,-51.3442
 L 43.9065,-51.4732 L 43.7865,-51.6183 L 43.6855,-51.7774 L 43.6053,-51.9478 L 43.5471,-52.127 L 43.5118,-52.312
 L 43.5,-52.5 L 43.5118,-52.688 L 43.5471,-52.873 L 43.6053,-53.0522 L 43.6855,-53.2226 L 43.7865,-53.3817
 L 43.9065,-53.5268 L 44.0439,-53.6558 L 44.1963,-53.7665 L 44.3613,-53.8572 L 44.5365,-53.9266 L 44.7189,-53.9734
 L 44.9058,-53.997 L 45.0942,-53.997 L 45.2811,-53.9734 L 45.4635,-53.9266 L 45.6387,-53.8572 L 45.8037,-53.7665
 L 45.9561,-53.6558 L 46.0934,-53.5268 L 46.2135,-53.3817 L 46.3145,-53.2226 L 46.3947,-53.0522 L 46.4529,-52.873
 L 46.4882,-52.688 L 46.5,-52.5 L 46.4882,-52.312 L 46.4529,-52.127 L 46.3947,-51.9478 L 46.3145,-51.7774
 L 46.2135,-51.6183 L 46.0934,-51.4732 L 45.9561,-51.3442 L 45.8037,-51.2335 L 45.6387,-51.1428 L 45.4635,-51.0734
 L 45.2811,-51.0266 L 45.0942,-51.003 z
M -135.094,-51.003 L -135.281,-51.0266 L -135.464,-51.0734 L -135.639,-51.1428 L -135.804,-51.2335 L -135.956,-51.3442
 L -136.093,-51.4732 L -136.214,-51.6183 L -136.314,-51.7774 L -136.395,-51.9478 L -136.453,-52.127 L -136.488,-52.312
 L -136.5,-52.5 L -136.488,-52.688 L -136.453,-52.873 L -136.395,-53.0522 L -136.314,-53.2226 L -136.214,-53.3817
 L -136.093,-53.5268 L -135.956,-53.6558 L -135.804,-53.7665 L -135.639,-53.8572 L -135.464,-53.9266 L -135.281,-53.9734
 L -135.094,-53.997 L -134.906,-53.997 L -134.719,-53.9734 L -134.536,-53.9266 L -134.361,-53.8572 L -134.196,-53.7665
 L -134.044,-53.6558 L -133.907,-53.5268 L -133.786,-53.3817 L -133.686,-53.2226 L -133.605,-53.0522 L -133.547,-52.873
 L -133.512,-52.688 L -133.5,-52.5 L -133.512,-52.312 L -133.547,-52.127 L -133.605,-51.9478 L -133.686,-51.7774
 L -133.786,-51.6183 L -133.907,-51.4732 L -134.044,-51.3442 L -134.196,-51.2335 L -134.361,-51.1428 L -134.536,-51.0734
 L -134.719,-51.0266 L -134.906,-51.003 z
M 134.906,-51.003 L 134.719,-51.0266 L 134.536,-51.0734 L 134.361,-51.1428 L 134.196,-51.2335 L 134.044,-51.3442
 L 133.907,-51.4732 L 133.786,-51.6183 L 133.686,-51.7774 L 133.605,-51.9478 L 133.547,-52.127 L 133.512,-52.312
 L 133.5,-52.5 L 133.512,-52.688 L 133.547,-52.873 L 133.605,-53.0522 L 133.686,-53.2226 L 133.786,-53.3817
 L 133.907,-53.5268 L 134.044,-53.6558 L 134.196,-53.7665 L 134.361,-53.8572 L 134.536,-53.9266 L 134.719,-53.9734
 L 134.906,-53.997 L 135.094,-53.997 L 135.281,-53.9734 L 135.464,-53.9266 L 135.639,-53.8572 L 135.804,-53.7665
 L 135.956,-53.6558 L 136.093,-53.5268 L 136.214,-53.3817 L 136.314,-53.2226 L 136.395,-53.0522 L 136.453,-52.873
 L 136.488,-52.688 L 136.5,-52.5 L 136.488,-52.312 L 136.453,-52.127 L 136.395,-51.9478 L 136.314,-51.7774
 L 136.214,-51.6183 L 136.093,-51.4732 L 135.956,-51.3442 L 135.804,-51.2335 L 135.639,-51.1428 L 135.464,-51.0734
 L 135.281,-51.0266 L 135.094,-51.003 z
M -90.0942,-51.003 L -90.2811,-51.0266 L -90.4635,-51.0734 L -90.6387,-51.1428 L -90.8037,-51.2335 L -90.9561,-51.3442
 L -91.0934,-51.4732 L -91.2135,-51.6183 L -91.3145,-51.7774 L -91.3947,-51.9478 L -91.4529,-52.127 L -91.4882,-52.312
 L -91.5,-52.5 L -91.4882,-52.688 L -91.4529,-52.873 L -91.3947,-53.0522 L -91.3145,-53.2226 L -91.2135,-53.3817
 L -91.0934,-53.5268 L -90.9561,-53.6558 L -90.8037,-53.7665 L -90.6387,-53.8572 L -90.4635,-53.9266 L -90.2811,-53.9734
 L -90.0942,-53.997 L -89.9058,-53.997 L -89.7189,-53.9734 L -89.5365,-53.9266 L -89.3613,-53.8572 L -89.1963,-53.7665
 L -89.0439,-53.6558 L -88.9065,-53.5268 L -88.7865,-53.3817 L -88.6855,-53.2226 L -88.6053,-53.0522 L -88.5471,-52.873
 L -88.5118,-52.688 L -88.5,-52.5 L -88.5118,-52.312 L -88.5471,-52.127 L -88.6053,-51.9478 L -88.6855,-51.7774
 L -88.7865,-51.6183 L -88.9065,-51.4732 L -89.0439,-51.3442 L -89.1963,-51.2335 L -89.3613,-51.1428 L -89.5365,-51.0734
 L -89.7189,-51.0266 L -89.9058,-51.003 z
M 59.9058,-51.003 L 59.7189,-51.0266 L 59.5365,-51.0734 L 59.3613,-51.1428 L 59.1963,-51.2335 L 59.0439,-51.3442
 L 58.9065,-51.4732 L 58.7865,-51.6183 L 58.6855,-51.7774 L 58.6053,-51.9478 L 58.5471,-52.127 L 58.5118,-52.312
 L 58.5,-52.5 L 58.5118,-52.688 L 58.5471,-52.873 L 58.6053,-53.0522 L 58.6855,-53.2226 L 58.7865,-53.3817
 L 58.9065,-53.5268 L 59.0439,-53.6558 L 59.1963,-53.7665 L 59.3613,-53.8572 L 59.5365,-53.9266 L 59.7189,-53.9734
 L 59.9058,-53.997 L 60.0942,-53.997 L 60.2811,-53.9734 L 60.4635,-53.9266 L 60.6387,-53.8572 L 60.8037,-53.7665
 L 60.9561,-53.6558 L 61.0934,-53.5268 L 61.2135,-53.3817 L 61.3145,-53.2226 L 61.3947,-53.0522 L 61.4529,-52.873
 L 61.4882,-52.688 L 61.5,-52.5 L 61.4882,-52.312 L 61.4529,-52.127 L 61.3947,-51.9478 L 61.3145,-51.7774
 L 61.2135,-51.6183 L 61.0934,-51.4732 L 60.9561,-51.3442 L 60.8037,-51.2335 L 60.6387,-51.1428 L 60.4635,-51.0734
 L 60.2811,-51.0266 L 60.0942,-51.003 z
M -97.8256,44.9112 L -103.432,44.2029 L -108.906,42.7975 L -114.16,40.7172 L -119.112,37.9948 L -123.684,34.6731
 L -127.804,30.8046 L -131.406,26.4503 L -134.434,21.6789 L -136.84,16.5656 L -138.586,11.191 L -139.645,5.63998
 L -140,-0 L -139.645,-5.63998 L -138.586,-11.191 L -136.84,-16.5656 L -134.434,-21.6789 L -131.406,-26.4503
 L -127.804,-30.8046 L -123.684,-34.6731 L -119.112,-37.9948 L -114.16,-40.7172 L -108.906,-42.7975 L -103.432,-44.2029
 L -97.8256,-44.9112 L -92.1744,-44.9112 L -86.5678,-44.2029 L -81.0942,-42.7975 L -75.8399,-40.7172 L -70.8878,-37.9948
 L -66.3159,-34.6731 L -62.1964,-30.8046 L -58.5942,-26.4503 L -55.5662,-21.6789 L -53.16,-16.5656 L -51.4138,-11.191
 L -50.3548,-5.63998 L -50,-0 L -50.3548,5.63998 L -51.4138,11.191 L -53.16,16.5656 L -55.5662,21.6789
 L -58.5942,26.4503 L -62.1964,30.8046 L -66.3159,34.6731 L -70.8878,37.9948 L -75.8399,40.7172 L -81.0942,42.7975
 L -86.5678,44.2029 L -92.1744,44.9112 z
M 92.1744,44.9112 L 86.5678,44.2029 L 81.0942,42.7975 L 75.8399,40.7172 L 70.8878,37.9948 L 66.3159,34.6731
 L 62.1964,30.8046 L 58.5942,26.4503 L 55.5662,21.6789 L 53.16,16.5656 L 51.4138,11.191 L 50.3548,5.63998
 L 50,-0 L 50.3548,-5.63998 L 51.4138,-11.191 L 53.16,-16.5656 L 55.5662,-21.6789 L 58.5942,-26.4503
 L 62.1964,-30.8046 L 66.3159,-34.6731 L 70.8878,-37.9948 L 75.8399,-40.7172 L 81.0942,-42.7975 L 86.5678,-44.2029
 L 92.1744,-44.9112 L 97.8256,-44.9112 L 103.432,-44.2029 L 108.906,-42.7975 L 114.16,-40.7172 L 119.112,-37.9948
 L 123.684,-34.6731 L 127.804,-30.8046 L 131.406,-26.4503 L 134.434,-21.6789 L 136.84,-16.5656 L 138.586,-11.191
 L 139.645,-5.63998 L 140,-0 L 139.645,5.63998 L 138.586,11.191 L 136.84,16.5656 L 134.434,21.6789
 L 131.406,26.4503 L 127.804,30.8046 L 123.684,34.6731 L 119.112,37.9948 L 114.16,40.7172 L 108.906,42.7975
 L 103.432,44.2029 L 97.8256,44.9112 z
M -2.82556,44.9112 L -8.43214,44.2029 L -13.9058,42.7975 L -19.1601,40.7172 L -24.1122,37.9948 L -28.6841,34.6731
 L -32.8036,30.8046 L -36.4058,26.4503 L -39.4338,21.6789 L -41.8399,16.5656 L -43.5862,11.191 L -44.6452,5.63998
 L -45,-0 L -44.6452,-5.63998 L -43.5862,-11.191 L -41.8399,-16.5656 L -39.4338,-21.6789 L -36.4058,-26.4503
 L -32.8036,-30.8046 L -28.6841,-34.6731 L -24.1122,-37.9948 L -19.1601,-40.7172 L -13.9058,-42.7975 L -8.43214,-44.2029
 L -2.82556,-44.9112 L 2.82556,-44.9112 L 8.43214,-44.2029 L 13.9058,-42.7975 L 19.1601,-40.7172 L 24.1122,-37.9948
 L 28.6841,-34.6731 L 32.8036,-30.8046 L 36.4058,-26.4503 L 39.4338,-21.6789 L 41.8399,-16.5656 L 43.5862,-11.191
 L 44.6452,-5.63998 L 45,-0 L 44.6452,5.63998 L 43.5862,11.191 L 41.8399,16.5656 L 39.4338,21.6789
 L 36.4058,26.4503 L 32.8036,30.8046 L 28.6841,34.6731 L 24.1122,37.9948 L 19.1601,40.7172 L 13.9058,42.7975
 L 8.43214,44.2029 L 2.82556,44.9112 z
M 82.3116,55.4941 L 81.9379,55.4469 L 81.573,55.3532 L 81.2227,55.2145 L 80.8925,55.033 L 80.5877,54.8115
 L 80.3131,54.5536 L 80.073,54.2634 L 79.8711,53.9453 L 79.7107,53.6044 L 79.5943,53.2461 L 79.5237,52.876
 L 79.5,52.5 L 79.5237,52.124 L 79.5943,51.7539 L 79.7107,51.3956 L 79.8711,51.0547 L 80.073,50.7366
 L 80.3131,50.4464 L 80.5877,50.1885 L 80.8925,49.967 L 81.2227,49.7855 L 81.573,49.6468 L 81.9379,49.5531
 L 82.3116,49.5059 L 82.6884,49.5059 L 83.0621,49.5531 L 83.427,49.6468 L 83.7773,49.7855 L 84.1075,49.967
 L 84.4123,50.1885 L 84.6869,50.4464 L 84.927,50.7366 L 85.1289,51.0547 L 85.2893,51.3956 L 85.4057,51.7539
 L 85.4763,52.124 L 85.5,52.5 L 85.4763,52.876 L 85.4057,53.2461 L 85.2893,53.6044 L 85.1289,53.9453
 L 84.927,54.2634 L 84.6869,54.5536 L 84.4123,54.8115 L 84.1075,55.033 L 83.7773,55.2145 L 83.427,55.3532
 L 83.0621,55.4469 L 82.6884,55.4941 z
M 67.3116,55.4941 L 66.9379,55.4469 L 66.573,55.3532 L 66.2227,55.2145 L 65.8925,55.033 L 65.5877,54.8115
 L 65.3131,54.5536 L 65.073,54.2634 L 64.8711,53.9453 L 64.7107,53.6044 L 64.5943,53.2461 L 64.5237,52.876
 L 64.5,52.5 L 64.5237,52.124 L 64.5943,51.7539 L 64.7107,51.3956 L 64.8711,51.0547 L 65.073,50.7366
 L 65.3131,50.4464 L 65.5877,50.1885 L 65.8925,49.967 L 66.2227,49.7855 L 66.573,49.6468 L 66.9379,49.5531
 L 67.3116,49.5059 L 67.6884,49.5059 L 68.0621,49.5531 L 68.427,49.6468 L 68.7773,49.7855 L 69.1075,49.967
 L 69.4123,50.1885 L 69.6869,50.4464 L 69.927,50.7366 L 70.1289,51.0547 L 70.2893,51.3956 L 70.4057,51.7539
 L 70.4763,52.124 L 70.5,52.5 L 70.4763,52.876 L 70.4057,53.2461 L 70.2893,53.6044 L 70.1289,53.9453
 L 69.927,54.2634 L 69.6869,54.5536 L 69.4123,54.8115 L 69.1075,55.033 L 68.7773,55.2145 L 68.427,55.3532
 L 68.0621,55.4469 L 67.6884,55.4941 z
M 22.3116,55.4941 L 21.9379,55.4469 L 21.5729,55.3532 L 21.2227,55.2145 L 20.8925,55.033 L 20.5877,54.8115
 L 20.3131,54.5536 L 20.0729,54.2634 L 19.8711,53.9453 L 19.7107,53.6044 L 19.5942,53.2461 L 19.5237,52.876
 L 19.5,52.5 L 19.5237,52.124 L 19.5942,51.7539 L 19.7107,51.3956 L 19.8711,51.0547 L 20.0729,50.7366
 L 20.3131,50.4464 L 20.5877,50.1885 L 20.8925,49.967 L 21.2227,49.7855 L 21.5729,49.6468 L 21.9379,49.5531
 L 22.3116,49.5059 L 22.6884,49.5059 L 23.0621,49.5531 L 23.427,49.6468 L 23.7773,49.7855 L 24.1075,49.967
 L 24.4123,50.1885 L 24.6869,50.4464 L 24.927,50.7366 L 25.1289,51.0547 L 25.2893,51.3956 L 25.4057,51.7539
 L 25.4763,52.124 L 25.5,52.5 L 25.4763,52.876 L 25.4057,53.2461 L 25.2893,53.6044 L 25.1289,53.9453
 L 24.927,54.2634 L 24.6869,54.5536 L 24.4123,54.8115 L 24.1075,55.033 L 23.7773,55.2145 L 23.427,55.3532
 L 23.0621,55.4469 L 22.6884,55.4941 z
M -22.6884,55.4941 L -23.0621,55.4469 L -23.427,55.3532 L -23.7773,55.2145 L -24.1075,55.033 L -24.4123,54.8115
 L -24.6869,54.5536 L -24.927,54.2634 L -25.1289,53.9453 L -25.2893,53.6044 L -25.4057,53.2461 L -25.4763,52.876
 L -25.5,52.5 L -25.4763,52.124 L -25.4057,51.7539 L -25.2893,51.3956 L -25.1289,51.0547 L -24.927,50.7366
 L -24.6869,50.4464 L -24.4123,50.1885 L -24.1075,49.967 L -23.7773,49.7855 L -23.427,49.6468 L -23.0621,49.5531
 L -22.6884,49.5059 L -22.3116,49.5059 L -21.9379,49.5531 L -21.5729,49.6468 L -21.2227,49.7855 L -20.8925,49.967
 L -20.5877,50.1885 L -20.3131,50.4464 L -20.0729,50.7366 L -19.8711,51.0547 L -19.7107,51.3956 L -19.5942,51.7539
 L -19.5237,52.124 L -19.5,52.5 L -19.5237,52.876 L -19.5942,53.2461 L -19.7107,53.6044 L -19.8711,53.9453
 L -20.0729,54.2634 L -20.3131,54.5536 L -20.5877,54.8115 L -20.8925,55.033 L -21.2227,55.2145 L -21.5729,55.3532
 L -21.9379,55.4469 L -22.3116,55.4941 z
M 97.3116,55.4941 L 96.9379,55.4469 L 96.573,55.3532 L 96.2227,55.2145 L 95.8925,55.033 L 95.5877,54.8115
 L 95.3131,54.5536 L 95.073,54.2634 L 94.8711,53.9453 L 94.7107,53.6044 L 94.5943,53.2461 L 94.5237,52.876
 L 94.5,52.5 L 94.5237,52.124 L 94.5943,51.7539 L 94.7107,51.3956 L 94.8711,51.0547 L 95.073,50.7366
 L 95.3131,50.4464 L 95.5877,50.1885 L 95.8925,49.967 L 96.2227,49.7855 L 96.573,49.6468 L 96.9379,49.5531
 L 97.3116,49.5059 L 97.6884,49.5059 L 98.0621,49.5531 L 98.427,49.6468 L 98.7773,49.7855 L 99.1075,49.967
 L 99.4123,50.1885 L 99.6869,50.4464 L 99.927,50.7366 L 100.129,51.0547 L 100.289,51.3956 L 100.406,51.7539
 L 100.476,52.124 L 100.5,52.5 L 100.476,52.876 L 100.406,53.2461 L 100.289,53.6044 L 100.129,53.9453
 L 99.927,54.2634 L 99.6869,54.5536 L 99.4123,54.8115 L 99.1075,55.033 L 98.7773,55.2145 L 98.427,55.3532
 L 98.0621,55.4469 L 97.6884,55.4941 z
M 7.31161,55.4941 L 6.93785,55.4469 L 6.57294,55.3532 L 6.22266,55.2145 L 5.89252,55.033 L 5.58772,54.8115
 L 5.31308,54.5536 L 5.07294,54.2634 L 4.87108,53.9453 L 4.71066,53.6044 L 4.59424,53.2461 L 4.52365,52.876
 L 4.5,52.5 L 4.52365,52.124 L 4.59424,51.7539 L 4.71066,51.3956 L 4.87108,51.0547 L 5.07294,50.7366
 L 5.31308,50.4464 L 5.58772,50.1885 L 5.89252,49.967 L 6.22266,49.7855 L 6.57294,49.6468 L 6.93785,49.5531
 L 7.31161,49.5059 L 7.68837,49.5059 L 8.06213,49.5531 L 8.42705,49.6468 L 8.77733,49.7855 L 9.10747,49.967
 L 9.41226,50.1885 L 9.6869,50.4464 L 9.92705,50.7366 L 10.1289,51.0547 L 10.2893,51.3956 L 10.4057,51.7539
 L 10.4763,52.124 L 10.5,52.5 L 10.4763,52.876 L 10.4057,53.2461 L 10.2893,53.6044 L 10.1289,53.9453
 L 9.92705,54.2634 L 9.6869,54.5536 L 9.41226,54.8115 L 9.10747,55.033 L 8.77733,55.2145 L 8.42705,55.3532
 L 8.06213,55.4469 L 7.68837,55.4941 z
M 37.3116,55.4941 L 36.9379,55.4469 L 36.5729,55.3532 L 36.2227,55.2145 L 35.8925,55.033 L 35.5877,54.8115
 L 35.3131,54.5536 L 35.0729,54.2634 L 34.8711,53.9453 L 34.7107,53.6044 L 34.5942,53.2461 L 34.5237,52.876
 L 34.5,52.5 L 34.5237,52.124 L 34.5942,51.7539 L 34.7107,51.3956 L 34.8711,51.0547 L 35.0729,50.7366
 L 35.3131,50.4464 L 35.5877,50.1885 L 35.8925,49.967 L 36.2227,49.7855 L 36.5729,49.6468 L 36.9379,49.5531
 L 37.3116,49.5059 L 37.6884,49.5059 L 38.0621,49.5531 L 38.427,49.6468 L 38.7773,49.7855 L 39.1075,49.967
 L 39.4123,50.1885 L 39.6869,50.4464 L 39.927,50.7366 L 40.1289,51.0547 L 40.2893,51.3956 L 40.4057,51.7539
 L 40.4763,52.124 L 40.5,52.5 L 40.4763,52.876 L 40.4057,53.2461 L 40.2893,53.6044 L 40.1289,53.9453
 L 39.927,54.2634 L 39.6869,54.5536 L 39.4123,54.8115 L 39.1075,55.033 L 38.7773,55.2145 L 38.427,55.3532
 L 38.0621,55.4469 L 37.6884,55.4941 z
M -82.6884,55.4941 L -83.0621,55.4469 L -83.427,55.3532 L -83.7773,55.2145 L -84.1075,55.033 L -84.4123,54.8115
 L -84.6869,54.5536 L -84.927,54.2634 L -85.1289,53.9453 L -85.2893,53.6044 L -85.4057,53.2461 L -85.4763,52.876
 L -85.5,52.5 L -85.4763,52.124 L -85.4057,51.7539 L -85.2893,51.3956 L -85.1289,51.0547 L -84.927,50.7366
 L -84.6869,50.4464 L -84.4123,50.1885 L -84.1075,49.967 L -83.7773,49.7855 L -83.427,49.6468 L -83.0621,49.5531
 L -82.6884,49.5059 L -82.3116,49.5059 L -81.9379,49.5531 L -81.573,49.6468 L -81.2227,49.7855 L -80.8925,49.967
 L -80.5877,50.1885 L -80.3131,50.4464 L -80.073,50.7366 L -79.8711,51.0547 L -79.7107,51.3956 L -79.5943,51.7539
 L -79.5237,52.124 L -79.5,52.5 L -79.5237,52.876 L -79.5943,53.2461 L -79.7107,53.6044 L -79.8711,53.9453
 L -80.073,54.2634 L -80.3131,54.5536 L -80.5877,54.8115 L -80.8925,55.033 L -81.2227,55.2145 L -81.573,55.3532
 L -81.9379,55.4469 L -82.3116,55.4941 z
M -7.68837,55.4941 L -8.06213,55.4469 L -8.42705,55.3532 L -8.77733,55.2145 L -9.10747,55.033 L -9.41226,54.8115
 L -9.6869,54.5536 L -9.92705,54.2634 L -10.1289,53.9453 L -10.2893,53.6044 L -10.4057,53.2461 L -10.4763,52.876
 L -10.5,52.5 L -10.4763,52.124 L -10.4057,51.7539 L -10.2893,51.3956 L -10.1289,51.0547 L -9.92705,50.7366
 L -9.6869,50.4464 L -9.41226,50.1885 L -9.10747,49.967 L -8.77733,49.7855 L -8.42705,49.6468 L -8.06213,49.5531
 L -7.68837,49.5059 L -7.31161,49.5059 L -6.93785,49.5531 L -6.57294,49.6468 L -6.22266,49.7855 L -5.89252,49.967
 L -5.58772,50.1885 L -5.31308,50.4464 L -5.07294,50.7366 L -4.87108,51.0547 L -4.71066,51.3956 L -4.59424,51.7539
 L -4.52365,52.124 L -4.5,52.5 L -4.52365,52.876 L -4.59424,53.2461 L -4.71066,53.6044 L -4.87108,53.9453
 L -5.07294,54.2634 L -5.31308,54.5536 L -5.58772,54.8115 L -5.89252,55.033 L -6.22266,55.2145 L -6.57294,55.3532
 L -6.93785,55.4469 L -7.31161,55.4941 z
M 52.3116,55.4941 L 51.9379,55.4469 L 51.5729,55.3532 L 51.2227,55.2145 L 50.8925,55.033 L 50.5877,54.8115
 L 50.3131,54.5536 L 50.0729,54.2634 L 49.8711,53.9453 L 49.7107,53.6044 L 49.5942,53.2461 L 49.5237,52.876
 L 49.5,52.5 L 49.5237,52.124 L 49.5942,51.7539 L 49.7107,51.3956 L 49.8711,51.0547 L 50.0729,50.7366
 L 50.3131,50.4464 L 50.5877,50.1885 L 50.8925,49.967 L 51.2227,49.7855 L 51.5729,49.6468 L 51.9379,49.5531
 L 52.3116,49.5059 L 52.6884,49.5059 L 53.0621,49.5531 L 53.427,49.6468 L 53.7773,49.7855 L 54.1075,49.967
 L 54.4123,50.1885 L 54.6869,50.4464 L 54.927,50.7366 L 55.1289,51.0547 L 55.2893,51.3956 L 55.4057,51.7539
 L 55.4763,52.124 L 55.5,52.5 L 55.4763,52.876 L 55.4057,53.2461 L 55.2893,53.6044 L 55.1289,53.9453
 L 54.927,54.2634 L 54.6869,54.5536 L 54.4123,54.8115 L 54.1075,55.033 L 53.7773,55.2145 L 53.427,55.3532
 L 53.0621,55.4469 L 52.6884,55.4941 z
M -37.6884,55.4941 L -38.0621,55.4469 L -38.427,55.3532 L -38.7773,55.2145 L -39.1075,55.033 L -39.4123,54.8115
 L -39.6869,54.5536 L -39.927,54.2634 L -40.1289,53.9453 L -40.2893,53.6044 L -40.4057,53.2461 L -40.4763,52.876
 L -40.5,52.5 L -40.4763,52.124 L -40.4057,51.7539 L -40.2893,51.3956 L -40.1289,51.0547 L -39.927,50.7366
 L -39.6869,50.4464 L -39.4123,50.1885 L -39.1075,49.967 L -38.7773,49.7855 L -38.427,49.6468 L -38.0621,49.5531
 L -37.6884,49.5059 L -37.3116,49.5059 L -36.9379,49.5531 L -36.5729,49.6468 L -36.2227,49.7855 L -35.8925,49.967
 L -35.5877,50.1885 L -35.3131,50.4464 L -35.0729,50.7366 L -34.8711,51.0547 L -34.7107,51.3956 L -34.5942,51.7539
 L -34.5237,52.124 L -34.5,52.5 L -34.5237,52.876 L -34.5942,53.2461 L -34.7107,53.6044 L -34.8711,53.9453
 L -35.0729,54.2634 L -35.3131,54.5536 L -35.5877,54.8115 L -35.8925,55.033 L -36.2227,55.2145 L -36.5729,55.3532
 L -36.9379,55.4469 L -37.3116,55.4941 z
M -67.6884,55.4941 L -68.0621,55.4469 L -68.427,55.3532 L -68.7773,55.2145 L -69.1075,55.033 L -69.4123,54.8115
 L -69.6869,54.5536 L -69.927,54.2634 L -70.1289,53.9453 L -70.2893,53.6044 L -70.4057,53.2461 L -70.4763,52.876
 L -70.5,52.5 L -70.4763,52.124 L -70.4057,51.7539 L -70.2893,51.3956 L -70.1289,51.0547 L -69.927,50.7366
 L -69.6869,50.4464 L -69.4123,50.1885 L -69.1075,49.967 L -68.7773,49.7855 L -68.427,49.6468 L -68.0621,49.5531
 L -67.6884,49.5059 L -67.3116,49.5059 L -66.9379,49.5531 L -66.573,49.6468 L -66.2227,49.7855 L -65.8925,49.967
 L -65.5877,50.1885 L -65.3131,50.4464 L -65.073,50.7366 L -64.8711,51.0547 L -64.7107,51.3956 L -64.5943,51.7539
 L -64.5237,52.124 L -64.5,52.5 L -64.5237,52.876 L -64.5943,53.2461 L -64.7107,53.6044 L -64.8711,53.9453
 L -65.073,54.2634 L -65.3131,54.5536 L -65.5877,54.8115 L -65.8925,55.033 L -66.2227,55.2145 L -66.573,55.3532
 L -66.9379,55.4469 L -67.3116,55.4941 z
M -52.6884,55.4941 L -53.0621,55.4469 L -53.427,55.3532 L -53.7773,55.2145 L -54.1075,55.033 L -54.4123,54.8115
 L -54.6869,54.5536 L -54.927,54.2634 L -55.1289,53.9453 L -55.2893,53.6044 L -55.4057,53.2461 L -55.4763,52.876
 L -55.5,52.5 L -55.4763,52.124 L -55.4057,51.7539 L -55.2893,51.3956 L -55.1289,51.0547 L -54.927,50.7366
 L -54.6869,50.4464 L -54.4123,50.1885 L -54.1075,49.967 L -53.7773,49.7855 L -53.427,49.6468 L -53.0621,49.5531
 L -52.6884,49.5059 L -52.3116,49.5059 L -51.9379,49.5531 L -51.5729,49.6468 L -51.2227,49.7855 L -50.8925,49.967
 L -50.5877,50.1885 L -50.3131,50.4464 L -50.0729,50.7366 L -49.8711,51.0547 L -49.7107,51.3956 L -49.5942,51.7539
 L -49.5237,52.124 L -49.5,52.5 L -49.5237,52.876 L -49.5942,53.2461 L -49.7107,53.6044 L -49.8711,53.9453
 L -50.0729,54.2634 L -50.3131,54.5536 L -50.5877,54.8115 L -50.8925,55.033 L -51.2227,55.2145 L -51.5729,55.3532
 L -51.9379,55.4469 L -52.3116,55.4941 z
M 142.312,55.4941 L 141.938,55.4469 L 141.573,55.3532 L 141.223,55.2145 L 140.893,55.033 L 140.588,54.8115
 L 140.313,54.5536 L 140.073,54.2634 L 139.871,53.9453 L 139.711,53.6044 L 139.594,53.2461 L 139.524,52.876
 L 139.5,52.5 L 139.524,52.124 L 139.594,51.7539 L 139.711,51.3956 L 139.871,51.0547 L 140.073,50.7366
 L 140.313,50.4464 L 140.588,50.1885 L 140.893,49.967 L 141.223,49.7855 L 141.573,49.6468 L 141.938,49.5531
 L 142.312,49.5059 L 142.688,49.5059 L 143.062,49.5531 L 143.427,49.6468 L 143.777,49.7855 L 144.107,49.967
 L 144.412,50.1885 L 144.687,50.4464 L 144.927,50.7366 L 145.129,51.0547 L 145.289,51.3956 L 145.406,51.7539
 L 145.476,52.124 L 145.5,52.5 L 145.476,52.876 L 145.406,53.2461 L 145.289,53.6044 L 145.129,53.9453
 L 144.927,54.2634 L 144.687,54.5536 L 144.412,54.8115 L 144.107,55.033 L 143.777,55.2145 L 143.427,55.3532
 L 143.062,55.4469 L 142.688,55.4941 z
M -127.688,55.4941 L -128.062,55.4469 L -128.427,55.3532 L -128.777,55.2145 L -129.107,55.033 L -129.412,54.8115
 L -129.687,54.5536 L -129.927,54.2634 L -130.129,53.9453 L -130.289,53.6044 L -130.406,53.2461 L -130.476,52.876
 L -130.5,52.5 L -130.476,52.124 L -130.406,51.7539 L -130.289,51.3956 L -130.129,51.0547 L -129.927,50.7366
 L -129.687,50.4464 L -129.412,50.1885 L -129.107,49.967 L -128.777,49.7855 L -128.427,49.6468 L -128.062,49.5531
 L -127.688,49.5059 L -127.312,49.5059 L -126.938,49.5531 L -126.573,49.6468 L -126.223,49.7855 L -125.893,49.967
 L -125.588,50.1885 L -125.313,50.4464 L -125.073,50.7366 L -124.871,51.0547 L -124.711,51.3956 L -124.594,51.7539
 L -124.524,52.124 L -124.5,52.5 L -124.524,52.876 L -124.594,53.2461 L -124.711,53.6044 L -124.871,53.9453
 L -125.073,54.2634 L -125.313,54.5536 L -125.588,54.8115 L -125.893,55.033 L -126.223,55.2145 L -126.573,55.3532
 L -126.938,55.4469 L -127.312,55.4941 z
M -142.688,55.4941 L -143.062,55.4469 L -143.427,55.3532 L -143.777,55.2145 L -144.107,55.033 L -144.412,54.8115
 L -144.687,54.5536 L -144.927,54.2634 L -145.129,53.9453 L -145.289,53.6044 L -145.406,53.2461 L -145.476,52.876
 L -145.5,52.5 L -145.476,52.124 L -145.406,51.7539 L -145.289,51.3956 L -145.129,51.0547 L -144.927,50.7366
 L -144.687,50.4464 L -144.412,50.1885 L -144.107,49.967 L -143.777,49.7855 L -143.427,49.6468 L -143.062,49.5531
 L -142.688,49.5059 L -142.312,49.5059 L -141.938,49.5531 L -141.573,49.6468 L -141.223,49.7855 L -140.893,49.967
 L -140.588,50.1885 L -140.313,50.4464 L -140.073,50.7366 L -139.871,51.0547 L -139.711,51.3956 L -139.594,51.7539
 L -139.524,52.124 L -139.5,52.5 L -139.524,52.876 L -139.594,53.2461 L -139.711,53.6044 L -139.871,53.9453
 L -140.073,54.2634 L -140.313,54.5536 L -140.588,54.8115 L -140.893,55.033 L -141.223,55.2145 L -141.573,55.3532
 L -141.938,55.4469 L -142.312,55.4941 z
M -97.6884,55.4941 L -98.0621,55.4469 L -98.427,55.3532 L -98.7773,55.2145 L -99.1075,55.033 L -99.4123,54.8115
 L -99.6869,54.5536 L -99.927,54.2634 L -100.129,53.9453 L -100.289,53.6044 L -100.406,53.2461 L -100.476,52.876
 L -100.5,52.5 L -100.476,52.124 L -100.406,51.7539 L -100.289,51.3956 L -100.129,51.0547 L -99.927,50.7366
 L -99.6869,50.4464 L -99.4123,50.1885 L -99.1075,49.967 L -98.7773,49.7855 L -98.427,49.6468 L -98.0621,49.5531
 L -97.6884,49.5059 L -97.3116,49.5059 L -96.9379,49.5531 L -96.573,49.6468 L -96.2227,49.7855 L -95.8925,49.967
 L -95.5877,50.1885 L -95.3131,50.4464 L -95.073,50.7366 L -94.8711,51.0547 L -94.7107,51.3956 L -94.5943,51.7539
 L -94.5237,52.124 L -94.5,52.5 L -94.5237,52.876 L -94.5943,53.2461 L -94.7107,53.6044 L -94.8711,53.9453
 L -95.073,54.2634 L -95.3131,54.5536 L -95.5877,54.8115 L -95.8925,55.033 L -96.2227,55.2145 L -96.573,55.3532
 L -96.9379,55.4469 L -97.3116,55.4941 z
M -112.688,55.4941 L -113.062,55.4469 L -113.427,55.3532 L -113.777,55.2145 L -114.107,55.033 L -114.412,54.8115
 L -114.687,54.5536 L -114.927,54.2634 L -115.129,53.9453 L -115.289,53.6044 L -115.406,53.2461 L -115.476,52.876
 L -115.5,52.5 L -115.476,52.124 L -115.406,51.7539 L -115.289,51.3956 L -115.129,51.0547 L -114.927,50.7366
 L -114.687,50.4464 L -114.412,50.1885 L -114.107,49.967 L -113.777,49.7855 L -113.427,49.6468 L -113.062,49.5531
 L -112.688,49.5059 L -112.312,49.5059 L -111.938,49.5531 L -111.573,49.6468 L -111.223,49.7855 L -110.893,49.967
 L -110.588,50.1885 L -110.313,50.4464 L -110.073,50.7366 L -109.871,51.0547 L -109.711,51.3956 L -109.594,51.7539
 L -109.524,52.124 L -109.5,52.5 L -109.524,52.876 L -109.594,53.2461 L -109.711,53.6044 L -109.871,53.9453
 L -110.073,54.2634 L -110.313,54.5536 L -110.588,54.8115 L -110.893,55.033 L -111.223,55.2145 L -111.573,55.3532
 L -111.938,55.4469 L -112.312,55.4941 z
M 112.312,55.4941 L 111.938,55.4469 L 111.573,55.3532 L 111.223,55.2145 L 110.893,55.033 L 110.588,54.8115
 L 110.313,54.5536 L 110.073,54.2634 L 109.871,53.9453 L 109.711,53.6044 L 109.594,53.2461 L 109.524,52.876
 L 109.5,52.5 L 109.524,52.124 L 109.594,51.7539 L 109.711,51.3956 L 109.871,51.0547 L 110.073,50.7366
 L 110.313,50.4464 L 110.588,50.1885 L 110.893,49.967 L 111.223,49.7855 L 111.573,49.6468 L 111.938,49.5531
 L 112.312,49.5059 L 112.688,49.5059 L 113.062,49.5531 L 113.427,49.6468 L 113.777,49.7855 L 114.107,49.967
 L 114.412,50.1885 L 114.687,50.4464 L 114.927,50.7366 L 115.129,51.0547 L 115.289,51.3956 L 115.406,51.7539
 L 115.476,52.124 L 115.5,52.5 L 115.476,52.876 L 115.406,53.2461 L 115.289,53.6044 L 115.129,53.9453
 L 114.927,54.2634 L 114.687,54.5536 L 114.412,54.8115 L 114.107,55.033 L 113.777,55.2145 L 113.427,55.3532
 L 113.062,55.4469 L 112.688,55.4941 z
M 127.312,55.4941 L 126.938,55.4469 L 126.573,55.3532 L 126.223,55.2145 L 125.893,55.033 L 125.588,54.8115
 L 125.313,54.5536 L 125.073,54.2634 L 124.871,53.9453 L 124.711,53.6044 L 124.594,53.2461 L 124.524,52.876
 L 124.5,52.5 L 124.524,52.124 L 124.594,51.7539 L 124.711,51.3956 L 124.871,51.0547 L 125.073,50.7366
 L 125.313,50.4464 L 125.588,50.1885 L 125.893,49.967 L 126.223,49.7855 L 126.573,49.6468 L 126.938,49.5531
 L 127.312,49.5059 L 127.688,49.5059 L 128.062,49.5531 L 128.427,49.6468 L 128.777,49.7855 L 129.107,49.967
 L 129.412,50.1885 L 129.687,50.4464 L 129.927,50.7366 L 130.129,51.0547 L 130.289,51.3956 L 130.406,51.7539
 L 130.476,52.124 L 130.5,52.5 L 130.476,52.876 L 130.406,53.2461 L 130.289,53.6044 L 130.129,53.9453
 L 129.927,54.2634 L 129.687,54.5536 L 129.412,54.8115 L 129.107,55.033 L 128.777,55.2145 L 128.427,55.3532
 L 128.062,55.4469 L 127.688,55.4941 z
M 119.906,53.997 L 119.719,53.9734 L 119.536,53.9266 L 119.361,53.8572 L 119.196,53.7665 L 119.044,53.6558
 L 118.907,53.5268 L 118.786,53.3817 L 118.686,53.2226 L 118.605,53.0522 L 118.547,52.873 L 118.512,52.688
 L 118.5,52.5 L 118.512,52.312 L 118.547,52.127 L 118.605,51.9478 L 118.686,51.7774 L 118.786,51.6183
 L 118.907,51.4732 L 119.044,51.3442 L 119.196,51.2335 L 119.361,51.1428 L 119.536,51.0734 L 119.719,51.0266
 L 119.906,51.003 L 120.094,51.003 L 120.281,51.0266 L 120.464,51.0734 L 120.639,51.1428 L 120.804,51.2335
 L 120.956,51.3442 L 121.093,51.4732 L 121.214,51.6183 L 121.314,51.7774 L 121.395,51.9478 L 121.453,52.127
 L 121.488,52.312 L 121.5,52.5 L 121.488,52.688 L 121.453,52.873 L 121.395,53.0522 L 121.314,53.2226
 L 121.214,53.3817 L 121.093,53.5268 L 120.956,53.6558 L 120.804,53.7665 L 120.639,53.8572 L 120.464,53.9266
 L 120.281,53.9734 L 120.094,53.997 z
M -75.0942,53.997 L -75.2811,53.9734 L -75.4635,53.9266 L -75.6387,53.8572 L -75.8037,53.7665 L -75.9561,53.6558
 L -76.0934,53.5268 L -76.2135,53.3817 L -76.3145,53.2226 L -76.3947,53.0522 L -76.4529,52.873 L -76.4882,52.688
 L -76.5,52.5 L -76.4882,52.312 L -76.4529,52.127 L -76.3947,51.9478 L -76.3145,51.7774 L -76.2135,51.6183
 L -76.0934,51.4732 L -75.9561,51.3442 L -75.8037,51.2335 L -75.6387,51.1428 L -75.4635,51.0734 L -75.2811,51.0266
 L -75.0942,51.003 L -74.9058,51.003 L -74.7189,51.0266 L -74.5365,51.0734 L -74.3613,51.1428 L -74.1963,51.2335
 L -74.0439,51.3442 L -73.9065,51.4732 L -73.7865,51.6183 L -73.6855,51.7774 L -73.6053,51.9478 L -73.5471,52.127
 L -73.5118,52.312 L -73.5,52.5 L -73.5118,52.688 L -73.5471,52.873 L -73.6053,53.0522 L -73.6855,53.2226
 L -73.7865,53.3817 L -73.9065,53.5268 L -74.0439,53.6558 L -74.1963,53.7665 L -74.3613,53.8572 L -74.5365,53.9266
 L -74.7189,53.9734 L -74.9058,53.997 z
M 74.9058,53.997 L 74.7189,53.9734 L 74.5365,53.9266 L 74.3613,53.8572 L 74.1963,53.7665 L 74.0439,53.6558
 L 73.9065,53.5268 L 73.7865,53.3817 L 73.6855,53.2226 L 73.6053,53.0522 L 73.5471,52.873 L 73.5118,52.688
 L 73.5,52.5 L 73.5118,52.312 L 73.5471,52.127 L 73.6053,51.9478 L 73.6855,51.7774 L 73.7865,51.6183
 L 73.9065,51.4732 L 74.0439,51.3442 L 74.1963,51.2335 L 74.3613,51.1428 L 74.5365,51.0734 L 74.7189,51.0266
 L 74.9058,51.003 L 75.0942,51.003 L 75.2811,51.0266 L 75.4635,51.0734 L 75.6387,51.1428 L 75.8037,51.2335
 L 75.9561,51.3442 L 76.0934,51.4732 L 76.2135,51.6183 L 76.3145,51.7774 L 76.3947,51.9478 L 76.4529,52.127
 L 76.4882,52.312 L 76.5,52.5 L 76.4882,52.688 L 76.4529,52.873 L 76.3947,53.0522 L 76.3145,53.2226
 L 76.2135,53.3817 L 76.0934,53.5268 L 75.9561,53.6558 L 75.8037,53.7665 L 75.6387,53.8572 L 75.4635,53.9266
 L 75.2811,53.9734 L 75.0942,53.997 z
M -105.094,53.997 L -105.281,53.9734 L -105.464,53.9266 L -105.639,53.8572 L -105.804,53.7665 L -105.956,53.6558
 L -106.093,53.5268 L -106.214,53.3817 L -106.314,53.2226 L -106.395,53.0522 L -106.453,52.873 L -106.488,52.688
 L -106.5,52.5 L -106.488,52.312 L -106.453,52.127 L -106.395,51.9478 L -106.314,51.7774 L -106.214,51.6183
 L -106.093,51.4732 L -105.956,51.3442 L -105.804,51.2335 L -105.639,51.1428 L -105.464,51.0734 L -105.281,51.0266
 L -105.094,51.003 L -104.906,51.003 L -104.719,51.0266 L -104.536,51.0734 L -104.361,51.1428 L -104.196,51.2335
 L -104.044,51.3442 L -103.907,51.4732 L -103.786,51.6183 L -103.686,51.7774 L -103.605,51.9478 L -103.547,52.127
 L -103.512,52.312 L -103.5,52.5 L -103.512,52.688 L -103.547,52.873 L -103.605,53.0522 L -103.686,53.2226
 L -103.786,53.3817 L -103.907,53.5268 L -104.044,53.6558 L -104.196,53.7665 L -104.361,53.8572 L -104.536,53.9266
 L -104.719,53.9734 L -104.906,53.997 z
M 104.906,53.997 L 104.719,53.9734 L 104.536,53.9266 L 104.361,53.8572 L 104.196,53.7665 L 104.044,53.6558
 L 103.907,53.5268 L 103.786,53.3817 L 103.686,53.2226 L 103.605,53.0522 L 103.547,52.873 L 103.512,52.688
 L 103.5,52.5 L 103.512,52.312 L 103.547,52.127 L 103.605,51.9478 L 103.686,51.7774 L 103.786,51.6183
 L 103.907,51.4732 L 104.044,51.3442 L 104.196,51.2335 L 104.361,51.1428 L 104.536,51.0734 L 104.719,51.0266
 L 104.906,51.003 L 105.094,51.003 L 105.281,51.0266 L 105.464,51.0734 L 105.639,51.1428 L 105.804,51.2335
 L 105.956,51.3442 L 106.093,51.4732 L 106.214,51.6183 L 106.314,51.7774 L 106.395,51.9478 L 106.453,52.127
 L 106.488,52.312 L 106.5,52.5 L 106.488,52.688 L 106.453,52.873 L 106.395,53.0522 L 106.314,53.2226
 L 106.214,53.3817 L 106.093,53.5268 L 105.956,53.6558 L 105.804,53.7665 L 105.639,53.8572 L 105.464,53.9266
 L 105.281,53.9734 L 105.094,53.997 z
M -135.094,53.997 L -135.281,53.9734 L -135.464,53.9266 L -135.639,53.8572 L -135.804,53.7665 L -135.956,53.6558
 L -136.093,53.5268 L -136.214,53.3817 L -136.314,53.2226 L -136.395,53.0522 L -136.453,52.873 L -136.488,52.688
 L -136.5,52.5 L -136.488,52.312 L -136.453,52.127 L -136.395,51.9478 L -136.314,51.7774 L -136.214,51.6183
 L -136.093,51.4732 L -135.956,51.3442 L -135.804,51.2335 L -135.639,51.1428 L -135.464,51.0734 L -135.281,51.0266
 L -135.094,51.003 L -134.906,51.003 L -134.719,51.0266 L -134.536,51.0734 L -134.361,51.1428 L -134.196,51.2335
 L -134.044,51.3442 L -133.907,51.4732 L -133.786,51.6183 L -133.686,51.7774 L -133.605,51.9478 L -133.547,52.127
 L -133.512,52.312 L -133.5,52.5 L -133.512,52.688 L -133.547,52.873 L -133.605,53.0522 L -133.686,53.2226
 L -133.786,53.3817 L -133.907,53.5268 L -134.044,53.6558 L -134.196,53.7665 L -134.361,53.8572 L -134.536,53.9266
 L -134.719,53.9734 L -134.906,53.997 z
M -120.094,53.997 L -120.281,53.9734 L -120.464,53.9266 L -120.639,53.8572 L -120.804,53.7665 L -120.956,53.6558
 L -121.093,53.5268 L -121.214,53.3817 L -121.314,53.2226 L -121.395,53.0522 L -121.453,52.873 L -121.488,52.688
 L -121.5,52.5 L -121.488,52.312 L -121.453,52.127 L -121.395,51.9478 L -121.314,51.7774 L -121.214,51.6183
 L -121.093,51.4732 L -120.956,51.3442 L -120.804,51.2335 L -120.639,51.1428 L -120.464,51.0734 L -120.281,51.0266
 L -120.094,51.003 L -119.906,51.003 L -119.719,51.0266 L -119.536,51.0734 L -119.361,51.1428 L -119.196,51.2335
 L -119.044,51.3442 L -118.907,51.4732 L -118.786,51.6183 L -118.686,51.7774 L -118.605,51.9478 L -118.547,52.127
 L -118.512,52.312 L -118.5,52.5 L -118.512,52.688 L -118.547,52.873 L -118.605,53.0522 L -118.686,53.2226
 L -118.786,53.3817 L -118.907,53.5268 L -119.044,53.6558 L -119.196,53.7665 L -119.361,53.8572 L -119.536,53.9266
 L -119.719,53.9734 L -119.906,53.997 z
M -15.0942,53.997 L -15.2811,53.9734 L -15.4635,53.9266 L -15.6387,53.8572 L -15.8037,53.7665 L -15.9561,53.6558
 L -16.0934,53.5268 L -16.2135,53.3817 L -16.3145,53.2226 L -16.3947,53.0522 L -16.4529,52.873 L -16.4882,52.688
 L -16.5,52.5 L -16.4882,52.312 L -16.4529,52.127 L -16.3947,51.9478 L -16.3145,51.7774 L -16.2135,51.6183
 L -16.0934,51.4732 L -15.9561,51.3442 L -15.8037,51.2335 L -15.6387,51.1428 L -15.4635,51.0734 L -15.2811,51.0266
 L -15.0942,51.003 L -14.9058,51.003 L -14.7189,51.0266 L -14.5365,51.0734 L -14.3613,51.1428 L -14.1963,51.2335
 L -14.0439,51.3442 L -13.9065,51.4732 L -13.7865,51.6183 L -13.6855,51.7774 L -13.6053,51.9478 L -13.5471,52.127
 L -13.5118,52.312 L -13.5,52.5 L -13.5118,52.688 L -13.5471,52.873 L -13.6053,53.0522 L -13.6855,53.2226
 L -13.7865,53.3817 L -13.9065,53.5268 L -14.0439,53.6558 L -14.1963,53.7665 L -14.3613,53.8572 L -14.5365,53.9266
 L -14.7189,53.9734 L -14.9058,53.997 z
M -90.0942,53.997 L -90.2811,53.9734 L -90.4635,53.9266 L -90.6387,53.8572 L -90.8037,53.7665 L -90.9561,53.6558
 L -91.0934,53.5268 L -91.2135,53.3817 L -91.3145,53.2226 L -91.3947,53.0522 L -91.4529,52.873 L -91.4882,52.688
 L -91.5,52.5 L -91.4882,52.312 L -91.4529,52.127 L -91.3947,51.9478 L -91.3145,51.7774 L -91.2135,51.6183
 L -91.0934,51.4732 L -90.9561,51.3442 L -90.8037,51.2335 L -90.6387,51.1428 L -90.4635,51.0734 L -90.2811,51.0266
 L -90.0942,51.003 L -89.9058,51.003 L -89.7189,51.0266 L -89.5365,51.0734 L -89.3613,51.1428 L -89.1963,51.2335
 L -89.0439,51.3442 L -88.9065,51.4732 L -88.7865,51.6183 L -88.6855,51.7774 L -88.6053,51.9478 L -88.5471,52.127
 L -88.5118,52.312 L -88.5,52.5 L -88.5118,52.688 L -88.5471,52.873 L -88.6053,53.0522 L -88.6855,53.2226
 L -88.7865,53.3817 L -88.9065,53.5268 L -89.0439,53.6558 L -89.1963,53.7665 L -89.3613,53.8572 L -89.5365,53.9266
 L -89.7189,53.9734 L -89.9058,53.997 z
M 134.906,53.997 L 134.719,53.9734 L 134.536,53.9266 L 134.361,53.8572 L 134.196,53.7665 L 134.044,53.6558
 L 133.907,53.5268 L 133.786,53.3817 L 133.686,53.2226 L 133.605,53.0522 L 133.547,52.873 L 133.512,52.688
 L 133.5,52.5 L 133.512,52.312 L 133.547,52.127 L 133.605,51.9478 L 133.686,51.7774 L 133.786,51.6183
 L 133.907,51.4732 L 134.044,51.3442 L 134.196,51.2335 L 134.361,51.1428 L 134.536,51.0734 L 134.719,51.0266
 L 134.906,51.003 L 135.094,51.003 L 135.281,51.0266 L 135.464,51.0734 L 135.639,51.1428 L 135.804,51.2335
 L 135.956,51.3442 L 136.093,51.4732 L 136.214,51.6183 L 136.314,51.7774 L 136.395,51.9478 L 136.453,52.127
 L 136.488,52.312 L 136.5,52.5 L 136.488,52.688 L 136.453,52.873 L 136.395,53.0522 L 136.314,53.2226
 L 136.214,53.3817 L 136.093,53.5268 L 135.956,53.6558 L 135.804,53.7665 L 135.639,53.8572 L 135.464,53.9266
 L 135.281,53.9734 L 135.094,53.997 z
M -30.0942,53.997 L -30.2811,53.9734 L -30.4635,53.9266 L -30.6387,53.8572 L -30.8037,53.7665 L -30.9561,53.6558
 L -31.0934,53.5268 L -31.2135,53.3817 L -31.3145,53.2226 L -31.3947,53.0522 L -31.4529,52.873 L -31.4882,52.688
 L -31.5,52.5 L -31.4882,52.312 L -31.4529,52.127 L -31.3947,51.9478 L -31.3145,51.7774 L -31.2135,51.6183
 L -31.0934,51.4732 L -30.9561,51.3442 L -30.8037,51.2335 L -30.6387,51.1428 L -30.4635,51.0734 L -30.2811,51.0266
 L -30.0942,51.003 L -29.9058,51.003 L -29.7189,51.0266 L -29.5365,51.0734 L -29.3613,51.1428 L -29.1963,51.2335
 L -29.0439,51.3442 L -28.9065,51.4732 L -28.7865,51.6183 L -28.6855,51.7774 L -28.6053,51.9478 L -28.5471,52.127
 L -28.5118,52.312 L -28.5,52.5 L -28.5118,52.688 L -28.5471,52.873 L -28.6053,53.0522 L -28.6855,53.2226
 L -28.7865,53.3817 L -28.9065,53.5268 L -29.0439,53.6558 L -29.1963,53.7665 L -29.3613,53.8572 L -29.5365,53.9266
 L -29.7189,53.9734 L -29.9058,53.997 z
M 29.9058,53.997 L 29.7189,53.9734 L 29.5365,53.9266 L 29.3613,53.8572 L 29.1963,53.7665 L 29.0439,53.6558
 L 28.9065,53.5268 L 28.7865,53.3817 L 28.6855,53.2226 L 28.6053,53.0522 L 28.5471,52.873 L 28.5118,52.688
 L 28.5,52.5 L 28.5118,52.312 L 28.5471,52.127 L 28.6053,51.9478 L 28.6855,51.7774 L 28.7865,51.6183
 L 28.9065,51.4732 L 29.0439,51.3442 L 29.1963,51.2335 L 29.3613,51.1428 L 29.5365,51.0734 L 29.7189,51.0266
 L 29.9058,51.003 L 30.0942,51.003 L 30.2811,51.0266 L 30.4635,51.0734 L 30.6387,51.1428 L 30.8037,51.2335
 L 30.9561,51.3442 L 31.0934,51.4732 L 31.2135,51.6183 L 31.3145,51.7774 L 31.3947,51.9478 L 31.4529,52.127
 L 31.4882,52.312 L 31.5,52.5 L 31.4882,52.688 L 31.4529,52.873 L 31.3947,53.0522 L 31.3145,53.2226
 L 31.2135,53.3817 L 31.0934,53.5268 L 30.9561,53.6558 L 30.8037,53.7665 L 30.6387,53.8572 L 30.4635,53.9266
 L 30.2811,53.9734 L 30.0942,53.997 z
M -45.0942,53.997 L -45.2811,53.9734 L -45.4635,53.9266 L -45.6387,53.8572 L -45.8037,53.7665 L -45.9561,53.6558
 L -46.0934,53.5268 L -46.2135,53.3817 L -46.3145,53.2226 L -46.3947,53.0522 L -46.4529,52.873 L -46.4882,52.688
 L -46.5,52.5 L -46.4882,52.312 L -46.4529,52.127 L -46.3947,51.9478 L -46.3145,51.7774 L -46.2135,51.6183
 L -46.0934,51.4732 L -45.9561,51.3442 L -45.8037,51.2335 L -45.6387,51.1428 L -45.4635,51.0734 L -45.2811,51.0266
 L -45.0942,51.003 L -44.9058,51.003 L -44.7189,51.0266 L -44.5365,51.0734 L -44.3613,51.1428 L -44.1963,51.2335
 L -44.0439,51.3442 L -43.9065,51.4732 L -43.7865,51.6183 L -43.6855,51.7774 L -43.6053,51.9478 L -43.5471,52.127
 L -43.5118,52.312 L -43.5,52.5 L -43.5118,52.688 L -43.5471,52.873 L -43.6053,53.0522 L -43.6855,53.2226
 L -43.7865,53.3817 L -43.9065,53.5268 L -44.0439,53.6558 L -44.1963,53.7665 L -44.3613,53.8572 L -44.5365,53.9266
 L -44.7189,53.9734 L -44.9058,53.997 z
M -0.0941772,53.997 L -0.281067,53.9734 L -0.463516,53.9266 L -0.638657,53.8572 L -0.803726,53.7665 L -0.956131,53.6558
 L -1.09344,53.5268 L -1.21352,53.3817 L -1.31445,53.2226 L -1.39465,53.0522 L -1.45287,52.873 L -1.48816,52.688
 L -1.5,52.5 L -1.48816,52.312 L -1.45287,52.127 L -1.39465,51.9478 L -1.31445,51.7774 L -1.21352,51.6183
 L -1.09344,51.4732 L -0.956131,51.3442 L -0.803726,51.2335 L -0.638657,51.1428 L -0.463516,51.0734 L -0.281067,51.0266
 L -0.0941772,51.003 L 0.0941772,51.003 L 0.281067,51.0266 L 0.463516,51.0734 L 0.638657,51.1428 L 0.803726,51.2335
 L 0.956131,51.3442 L 1.09344,51.4732 L 1.21352,51.6183 L 1.31445,51.7774 L 1.39465,51.9478 L 1.45287,52.127
 L 1.48816,52.312 L 1.5,52.5 L 1.48816,52.688 L 1.45287,52.873 L 1.39465,53.0522 L 1.31445,53.2226
 L 1.21352,53.3817 L 1.09344,53.5268 L 0.956131,53.6558 L 0.803726,53.7665 L 0.638657,53.8572 L 0.463516,53.9266
 L 0.281067,53.9734 L 0.0941772,53.997 z
M 44.9058,53.997 L 44.7189,53.9734 L 44.5365,53.9266 L 44.3613,53.8572 L 44.1963,53.7665 L 44.0439,53.6558
 L 43.9065,53.5268 L 43.7865,53.3817 L 43.6855,53.2226 L 43.6053,53.0522 L 43.5471,52.873 L 43.5118,52.688
 L 43.5,52.5 L 43.5118,52.312 L 43.5471,52.127 L 43.6053,51.9478 L 43.6855,51.7774 L 43.7865,51.6183
 L 43.9065,51.4732 L 44.0439,51.3442 L 44.1963,51.2335 L 44.3613,51.1428 L 44.5365,51.0734 L 44.7189,51.0266
 L 44.9058,51.003 L 45.0942,51.003 L 45.2811,51.0266 L 45.4635,51.0734 L 45.6387,51.1428 L 45.8037,51.2335
 L 45.9561,51.3442 L 46.0934,51.4732 L 46.2135,51.6183 L 46.3145,51.7774 L 46.3947,51.9478 L 46.4529,52.127
 L 46.4882,52.312 L 46.5,52.5 L 46.4882,52.688 L 46.4529,52.873 L 46.3947,53.0522 L 46.3145,53.2226
 L 46.2135,53.3817 L 46.0934,53.5268 L 45.9561,53.6558 L 45.8037,53.7665 L 45.6387,53.8572 L 45.4635,53.9266
 L 45.2811,53.9734 L 45.0942,53.997 z
M 14.9058,53.997 L 14.7189,53.9734 L 14.5365,53.9266 L 14.3613,53.8572 L 14.1963,53.7665 L 14.0439,53.6558
 L 13.9065,53.5268 L 13.7865,53.3817 L 13.6855,53.2226 L 13.6053,53.0522 L 13.5471,52.873 L 13.5118,52.688
 L 13.5,52.5 L 13.5118,52.312 L 13.5471,52.127 L 13.6053,51.9478 L 13.6855,51.7774 L 13.7865,51.6183
 L 13.9065,51.4732 L 14.0439,51.3442 L 14.1963,51.2335 L 14.3613,51.1428 L 14.5365,51.0734 L 14.7189,51.0266
 L 14.9058,51.003 L 15.0942,51.003 L 15.2811,51.0266 L 15.4635,51.0734 L 15.6387,51.1428 L 15.8037,51.2335
 L 15.9561,51.3442 L 16.0934,51.4732 L 16.2135,51.6183 L 16.3145,51.7774 L 16.3947,51.9478 L 16.4529,52.127
 L 16.4882,52.312 L 16.5,52.5 L 16.4882,52.688 L 16.4529,52.873 L 16.3947,53.0522 L 16.3145,53.2226
 L 16.2135,53.3817 L 16.0934,53.5268 L 15.9561,53.6558 L 15.8037,53.7665 L 15.6387,53.8572 L 15.4635,53.9266
 L 15.2811,53.9734 L 15.0942,53.997 z
M -60.0942,53.997 L -60.2811,53.9734 L -60.4635,53.9266 L -60.6387,53.8572 L -60.8037,53.7665 L -60.9561,53.6558
 L -61.0934,53.5268 L -61.2135,53.3817 L -61.3145,53.2226 L -61.3947,53.0522 L -61.4529,52.873 L -61.4882,52.688
 L -61.5,52.5 L -61.4882,52.312 L -61.4529,52.127 L -61.3947,51.9478 L -61.3145,51.7774 L -61.2135,51.6183
 L -61.0934,51.4732 L -60.9561,51.3442 L -60.8037,51.2335 L -60.6387,51.1428 L -60.4635,51.0734 L -60.2811,51.0266
 L -60.0942,51.003 L -59.9058,51.003 L -59.7189,51.0266 L -59.5365,51.0734 L -59.3613,51.1428 L -59.1963,51.2335
 L -59.0439,51.3442 L -58.9065,51.4732 L -58.7865,51.6183 L -58.6855,51.7774 L -58.6053,51.9478 L -58.5471,52.127
 L -58.5118,52.312 L -58.5,52.5 L -58.5118,52.688 L -58.5471,52.873 L -58.6053,53.0522 L -58.6855,53.2226
 L -58.7865,53.3817 L -58.9065,53.5268 L -59.0439,53.6558 L -59.1963,53.7665 L -59.3613,53.8572 L -59.5365,53.9266
 L -59.7189,53.9734 L -59.9058,53.997 z
M 89.9058,53.997 L 89.7189,53.9734 L 89.5365,53.9266 L 89.3613,53.8572 L 89.1963,53.7665 L 89.0439,53.6558
 L 88.9065,53.5268 L 88.7865,53.3817 L 88.6855,53.2226 L 88.6053,53.0522 L 88.5471,52.873 L 88.5118,52.688
 L 88.5,52.5 L 88.5118,52.312 L 88.5471,52.127 L 88.6053,51.9478 L 88.6855,51.7774 L 88.7865,51.6183
 L 88.9065,51.4732 L 89.0439,51.3442 L 89.1963,51.2335 L 89.3613,51.1428 L 89.5365,51.0734 L 89.7189,51.0266
 L 89.9058,51.003 L 90.0942,51.003 L 90.2811,51.0266 L 90.4635,51.0734 L 90.6387,51.1428 L 90.8037,51.2335
 L 90.9561,51.3442 L 91.0934,51.4732 L 91.2135,51.6183 L 91.3145,51.7774 L 91.3947,51.9478 L 91.4529,52.127
 L 91.4882,52.312 L 91.5,52.5 L 91.4882,52.688 L 91.4529,52.873 L 91.3947,53.0522 L 91.3145,53.2226
 L 91.2135,53.3817 L 91.0934,53.5268 L 90.9561,53.6558 L 90.8037,53.7665 L 90.6387,53.8572 L 90.4635,53.9266
 L 90.2811,53.9734 L 90.0942,53.997 z
M 59.9058,53.997 L 59.7189,53.9734 L 59.5365,53.9266 L 59.3613,53.8572 L 59.1963,53.7665 L 59.0439,53.6558
 L 58.9065,53.5268 L 58.7865,53.3817 L 58.6855,53.2226 L 58.6053,53.0522 L 58.5471,52.873 L 58.5118,52.688
 L 58.5,52.5 L 58.5118,52.312 L 58.5471,52.127 L 58.6053,51.9478 L 58.6855,51.7774 L 58.7865,51.6183
 L 58.9065,51.4732 L 59.0439,51.3442 L 59.1963,51.2335 L 59.3613,51.1428 L 59.5365,51.0734 L 59.7189,51.0266
 L 59.9058,51.003 L 60.0942,51.003 L 60.2811,51.0266 L 60.4635,51.0734 L 60.6387,51.1428 L 60.8037,51.2335
 L 60.9561,51.3442 L 61.0934,51.4732 L 61.2135,51.6183 L 61.3145,51.7774 L 61.3947,51.9478 L 61.4529,52.127
 L 61.4882,52.312 L 61.5,52.5 L 61.4882,52.688 L 61.4529,52.873 L 61.3947,53.0522 L 61.3145,53.2226
 L 61.2135,53.3817 L 61.0934,53.5268 L 60.9561,53.6558 L 60.8037,53.7665 L 60.6387,53.8572 L 60.4635,53.9266
 L 60.2811,53.9734 L 60.0942,53.997 z
" stroke="black" fill="lightgray" stroke-width="0.5"/>
</svg>
