  0
SECTION
  2
BLOCKS
  0
ENDSEC
  0
SECTION
  2
ENTITIES
  0
LINE
  8
0
 10
85.4369
 20
-29.4114
 11
86.0451
 21
-29.2553
  0
LINE
  8
0
 10
86.0451
 20
-29.2553
 11
86.6289
 21
-29.0241
  0
LINE
  8
0
 10
86.6289
 20
-29.0241
 11
87.1791
 21
-28.7216
  0
LINE
  8
0
 10
87.1791
 20
-28.7216
 11
87.6871
 21
-28.3526
  0
LINE
  8
0
 10
87.6871
 20
-28.3526
 11
88.1448
 21
-27.9227
  0
LINE
  8
0
 10
88.1448
 20
-27.9227
 11
88.5451
 21
-27.4389
  0
LINE
  8
0
 10
88.5451
 20
-27.4389
 11
88.8815
 21
-26.9088
  0
LINE
  8
0
 10
88.8815
 20
-26.9088
 11
89.1489
 21
-26.3406
  0
LINE
  8
0
 10
89.1489
 20
-26.3406
 11
89.3429
 21
-25.7434
  0
LINE
  8
0
 10
89.3429
 20
-25.7434
 11
89.4606
 21
-25.1267
  0
LINE
  8
0
 10
89.4606
 20
-25.1267
 11
89.5
 21
-24.5
  0
LINE
  8
0
 10
89.5
 20
-24.5
 11
89.5
 21
24.5
  0
LINE
  8
0
 10
89.5
 20
24.5
 11
89.4606
 21
25.1267
  0
LINE
  8
0
 10
89.4606
 20
25.1267
 11
89.3429
 21
25.7434
  0
LINE
  8
0
 10
89.3429
 20
25.7434
 11
89.1489
 21
26.3406
  0
LINE
  8
0
 10
89.1489
 20
26.3406
 11
88.8815
 21
26.9088
  0
LINE
  8
0
 10
88.8815
 20
26.9088
 11
88.5451
 21
27.4389
  0
LINE
  8
0
 10
88.5451
 20
27.4389
 11
88.1448
 21
27.9227
  0
LINE
  8
0
 10
88.1448
 20
27.9227
 11
87.6871
 21
28.3526
  0
LINE
  8
0
 10
87.6871
 20
28.3526
 11
87.1791
 21
28.7216
  0
LINE
  8
0
 10
87.1791
 20
28.7216
 11
86.6289
 21
29.0241
  0
LINE
  8
0
 10
86.6289
 20
29.0241
 11
86.0451
 21
29.2553
  0
LINE
  8
0
 10
86.0451
 20
29.2553
 11
85.4369
 21
29.4114
  0
LINE
  8
0
 10
85.4369
 20
29.4114
 11
84.8139
 21
29.4901
  0
LINE
  8
0
 10
84.8139
 20
29.4901
 11
-84.8139
 21
29.4901
  0
LINE
  8
0
 10
-84.8139
 20
29.4901
 11
-85.4369
 21
29.4114
  0
LINE
  8
0
 10
-85.4369
 20
29.4114
 11
-86.0451
 21
29.2553
  0
LINE
  8
0
 10
-86.0451
 20
29.2553
 11
-86.6289
 21
29.0241
  0
LINE
  8
0
 10
-86.6289
 20
29.0241
 11
-87.1791
 21
28.7216
  0
LINE
  8
0
 10
-87.1791
 20
28.7216
 11
-87.6871
 21
28.3526
  0
LINE
  8
0
 10
-87.6871
 20
28.3526
 11
-88.1448
 21
27.9227
  0
LINE
  8
0
 10
-88.1448
 20
27.9227
 11
-88.5451
 21
27.4389
  0
LINE
  8
0
 10
-88.5451
 20
27.4389
 11
-88.8815
 21
26.9088
  0
LINE
  8
0
 10
-88.8815
 20
26.9088
 11
-89.1489
 21
26.3406
  0
LINE
  8
0
 10
-89.1489
 20
26.3406
 11
-89.3429
 21
25.7434
  0
LINE
  8
0
 10
-89.3429
 20
25.7434
 11
-89.4606
 21
25.1267
  0
LINE
  8
0
 10
-89.4606
 20
25.1267
 11
-89.5
 21
24.5
  0
LINE
  8
0
 10
-89.5
 20
24.5
 11
-89.5
 21
-24.5
  0
LINE
  8
0
 10
-89.5
 20
-24.5
 11
-89.4606
 21
-25.1267
  0
LINE
  8
0
 10
-89.4606
 20
-25.1267
 11
-89.3429
 21
-25.7434
  0
LINE
  8
0
 10
-89.3429
 20
-25.7434
 11
-89.1489
 21
-26.3406
  0
LINE
  8
0
 10
-89.1489
 20
-26.3406
 11
-88.8815
 21
-26.9088
  0
LINE
  8
0
 10
-88.8815
 20
-26.9088
 11
-88.5451
 21
-27.4389
  0
LINE
  8
0
 10
-88.5451
 20
-27.4389
 11
-88.1448
 21
-27.9227
  0
LINE
  8
0
 10
-88.1448
 20
-27.9227
 11
-87.6871
 21
-28.3526
  0
LINE
  8
0
 10
-87.6871
 20
-28.3526
 11
-87.1791
 21
-28.7216
  0
LINE
  8
0
 10
-87.1791
 20
-28.7216
 11
-86.6289
 21
-29.0241
  0
LINE
  8
0
 10
-86.6289
 20
-29.0241
 11
-86.0451
 21
-29.2553
  0
LINE
  8
0
 10
-86.0451
 20
-29.2553
 11
-85.4369
 21
-29.4114
  0
LINE
  8
0
 10
-85.4369
 20
-29.4114
 11
-84.8139
 21
-29.4901
  0
LINE
  8
0
 10
-84.8139
 20
-29.4901
 11
84.8139
 21
-29.4901
  0
LINE
  8
0
 10
84.8139
 20
-29.4901
 11
85.4369
 21
-29.4114
  0
LINE
  8
0
 10
82.3116
 20
19.5059
 11
81.9379
 21
19.5531
  0
LINE
  8
0
 10
81.9379
 20
19.5531
 11
81.573
 21
19.6468
  0
LINE
  8
0
 10
81.573
 20
19.6468
 11
81.2227
 21
19.7855
  0
LINE
  8
0
 10
81.2227
 20
19.7855
 11
80.8925
 21
19.967
  0
LINE
  8
0
 10
80.8925
 20
19.967
 11
80.5877
 21
20.1884
  0
LINE
  8
0
 10
80.5877
 20
20.1884
 11
80.3131
 21
20.4464
  0
LINE
  8
0
 10
80.3131
 20
20.4464
 11
80.073
 21
20.7366
  0
LINE
  8
0
 10
80.073
 20
20.7366
 11
79.8711
 21
21.0547
  0
LINE
  8
0
 10
79.8711
 20
21.0547
 11
79.7107
 21
21.3956
  0
LINE
  8
0
 10
79.7107
 20
21.3956
 11
79.5943
 21
21.7539
  0
LINE
  8
0
 10
79.5943
 20
21.7539
 11
79.5237
 21
22.124
  0
LINE
  8
0
 10
79.5237
 20
22.124
 11
79.5
 21
22.5
  0
LINE
  8
0
 10
79.5
 20
22.5
 11
79.5237
 21
22.876
  0
LINE
  8
0
 10
79.5237
 20
22.876
 11
79.5943
 21
23.2461
  0
LINE
  8
0
 10
79.5943
 20
23.2461
 11
79.7107
 21
23.6044
  0
LINE
  8
0
 10
79.7107
 20
23.6044
 11
79.8711
 21
23.9453
  0
LINE
  8
0
 10
79.8711
 20
23.9453
 11
80.073
 21
24.2634
  0
LINE
  8
0
 10
80.073
 20
24.2634
 11
80.3131
 21
24.5536
  0
LINE
  8
0
 10
80.3131
 20
24.5536
 11
80.5877
 21
24.8115
  0
LINE
  8
0
 10
80.5877
 20
24.8115
 11
80.8925
 21
25.033
  0
LINE
  8
0
 10
80.8925
 20
25.033
 11
81.2227
 21
25.2145
  0
LINE
  8
0
 10
81.2227
 20
25.2145
 11
81.573
 21
25.3532
  0
LINE
  8
0
 10
81.573
 20
25.3532
 11
81.9379
 21
25.4469
  0
LINE
  8
0
 10
81.9379
 20
25.4469
 11
82.3116
 21
25.4941
  0
LINE
  8
0
 10
82.3116
 20
25.4941
 11
82.6884
 21
25.4941
  0
LINE
  8
0
 10
82.6884
 20
25.4941
 11
83.0621
 21
25.4469
  0
LINE
  8
0
 10
83.0621
 20
25.4469
 11
83.427
 21
25.3532
  0
LINE
  8
0
 10
83.427
 20
25.3532
 11
83.7773
 21
25.2145
  0
LINE
  8
0
 10
83.7773
 20
25.2145
 11
84.1075
 21
25.033
  0
LINE
  8
0
 10
84.1075
 20
25.033
 11
84.4123
 21
24.8115
  0
LINE
  8
0
 10
84.4123
 20
24.8115
 11
84.6869
 21
24.5536
  0
LINE
  8
0
 10
84.6869
 20
24.5536
 11
84.927
 21
24.2634
  0
LINE
  8
0
 10
84.927
 20
24.2634
 11
85.1289
 21
23.9453
  0
LINE
  8
0
 10
85.1289
 20
23.9453
 11
85.2893
 21
23.6044
  0
LINE
  8
0
 10
85.2893
 20
23.6044
 11
85.4057
 21
23.2461
  0
LINE
  8
0
 10
85.4057
 20
23.2461
 11
85.4763
 21
22.876
  0
LINE
  8
0
 10
85.4763
 20
22.876
 11
85.5
 21
22.5
  0
LINE
  8
0
 10
85.5
 20
22.5
 11
85.4763
 21
22.124
  0
LINE
  8
0
 10
85.4763
 20
22.124
 11
85.4057
 21
21.7539
  0
LINE
  8
0
 10
85.4057
 20
21.7539
 11
85.2893
 21
21.3956
  0
LINE
  8
0
 10
85.2893
 20
21.3956
 11
85.1289
 21
21.0547
  0
LINE
  8
0
 10
85.1289
 20
21.0547
 11
84.927
 21
20.7366
  0
LINE
  8
0
 10
84.927
 20
20.7366
 11
84.6869
 21
20.4464
  0
LINE
  8
0
 10
84.6869
 20
20.4464
 11
84.4123
 21
20.1884
  0
LINE
  8
0
 10
84.4123
 20
20.1884
 11
84.1075
 21
19.967
  0
LINE
  8
0
 10
84.1075
 20
19.967
 11
83.7773
 21
19.7855
  0
LINE
  8
0
 10
83.7773
 20
19.7855
 11
83.427
 21
19.6468
  0
LINE
  8
0
 10
83.427
 20
19.6468
 11
83.0621
 21
19.5531
  0
LINE
  8
0
 10
83.0621
 20
19.5531
 11
82.6884
 21
19.5059
  0
LINE
  8
0
 10
82.6884
 20
19.5059
 11
82.3116
 21
19.5059
  0
LINE
  8
0
 10
-82.6884
 20
19.5059
 11
-83.0621
 21
19.5531
  0
LINE
  8
0
 10
-83.0621
 20
19.5531
 11
-83.427
 21
19.6468
  0
LINE
  8
0
 10
-83.427
 20
19.6468
 11
-83.7773
 21
19.7855
  0
LINE
  8
0
 10
-83.7773
 20
19.7855
 11
-84.1075
 21
19.967
  0
LINE
  8
0
 10
-84.1075
 20
19.967
 11
-84.4123
 21
20.1884
  0
LINE
  8
0
 10
-84.4123
 20
20.1884
 11
-84.6869
 21
20.4464
  0
LINE
  8
0
 10
-84.6869
 20
20.4464
 11
-84.927
 21
20.7366
  0
LINE
  8
0
 10
-84.927
 20
20.7366
 11
-85.1289
 21
21.0547
  0
LINE
  8
0
 10
-85.1289
 20
21.0547
 11
-85.2893
 21
21.3956
  0
LINE
  8
0
 10
-85.2893
 20
21.3956
 11
-85.4057
 21
21.7539
  0
LINE
  8
0
 10
-85.4057
 20
21.7539
 11
-85.4763
 21
22.124
  0
LINE
  8
0
 10
-85.4763
 20
22.124
 11
-85.5
 21
22.5
  0
LINE
  8
0
 10
-85.5
 20
22.5
 11
-85.4763
 21
22.876
  0
LINE
  8
0
 10
-85.4763
 20
22.876
 11
-85.4057
 21
23.2461
  0
LINE
  8
0
 10
-85.4057
 20
23.2461
 11
-85.2893
 21
23.6044
  0
LINE
  8
0
 10
-85.2893
 20
23.6044
 11
-85.1289
 21
23.9453
  0
LINE
  8
0
 10
-85.1289
 20
23.9453
 11
-84.927
 21
24.2634
  0
LINE
  8
0
 10
-84.927
 20
24.2634
 11
-84.6869
 21
24.5536
  0
LINE
  8
0
 10
-84.6869
 20
24.5536
 11
-84.4123
 21
24.8115
  0
LINE
  8
0
 10
-84.4123
 20
24.8115
 11
-84.1075
 21
25.033
  0
LINE
  8
0
 10
-84.1075
 20
25.033
 11
-83.7773
 21
25.2145
  0
LINE
  8
0
 10
-83.7773
 20
25.2145
 11
-83.427
 21
25.3532
  0
LINE
  8
0
 10
-83.427
 20
25.3532
 11
-83.0621
 21
25.4469
  0
LINE
  8
0
 10
-83.0621
 20
25.4469
 11
-82.6884
 21
25.4941
  0
LINE
  8
0
 10
-82.6884
 20
25.4941
 11
-82.3116
 21
25.4941
  0
LINE
  8
0
 10
-82.3116
 20
25.4941
 11
-81.9379
 21
25.4469
  0
LINE
  8
0
 10
-81.9379
 20
25.4469
 11
-81.573
 21
25.3532
  0
LINE
  8
0
 10
-81.573
 20
25.3532
 11
-81.2227
 21
25.2145
  0
LINE
  8
0
 10
-81.2227
 20
25.2145
 11
-80.8925
 21
25.033
  0
LINE
  8
0
 10
-80.8925
 20
25.033
 11
-80.5877
 21
24.8115
  0
LINE
  8
0
 10
-80.5877
 20
24.8115
 11
-80.3131
 21
24.5536
  0
LINE
  8
0
 10
-80.3131
 20
24.5536
 11
-80.073
 21
24.2634
  0
LINE
  8
0
 10
-80.073
 20
24.2634
 11
-79.8711
 21
23.9453
  0
LINE
  8
0
 10
-79.8711
 20
23.9453
 11
-79.7107
 21
23.6044
  0
LINE
  8
0
 10
-79.7107
 20
23.6044
 11
-79.5943
 21
23.2461
  0
LINE
  8
0
 10
-79.5943
 20
23.2461
 11
-79.5237
 21
22.876
  0
LINE
  8
0
 10
-79.5237
 20
22.876
 11
-79.5
 21
22.5
  0
LINE
  8
0
 10
-79.5
 20
22.5
 11
-79.5237
 21
22.124
  0
LINE
  8
0
 10
-79.5237
 20
22.124
 11
-79.5943
 21
21.7539
  0
LINE
  8
0
 10
-79.5943
 20
21.7539
 11
-79.7107
 21
21.3956
  0
LINE
  8
0
 10
-79.7107
 20
21.3956
 11
-79.8711
 21
21.0547
  0
LINE
  8
0
 10
-79.8711
 20
21.0547
 11
-80.073
 21
20.7366
  0
LINE
  8
0
 10
-80.073
 20
20.7366
 11
-80.3131
 21
20.4464
  0
LINE
  8
0
 10
-80.3131
 20
20.4464
 11
-80.5877
 21
20.1884
  0
LINE
  8
0
 10
-80.5877
 20
20.1884
 11
-80.8925
 21
19.967
  0
LINE
  8
0
 10
-80.8925
 20
19.967
 11
-81.2227
 21
19.7855
  0
LINE
  8
0
 10
-81.2227
 20
19.7855
 11
-81.573
 21
19.6468
  0
LINE
  8
0
 10
-81.573
 20
19.6468
 11
-81.9379
 21
19.5531
  0
LINE
  8
0
 10
-81.9379
 20
19.5531
 11
-82.3116
 21
19.5059
  0
LINE
  8
0
 10
-82.3116
 20
19.5059
 11
-82.6884
 21
19.5059
  0
LINE
  8
0
 10
53.4302
 20
-24.9507
 11
50.3155
 21
-24.5572
  0
LINE
  8
0
 10
50.3155
 20
-24.5572
 11
47.2746
 21
-23.7764
  0
LINE
  8
0
 10
47.2746
 20
-23.7764
 11
44.3555
 21
-22.6207
  0
LINE
  8
0
 10
44.3555
 20
-22.6207
 11
41.6043
 21
-21.1082
  0
LINE
  8
0
 10
41.6043
 20
-21.1082
 11
39.0644
 21
-19.2628
  0
LINE
  8
0
 10
39.0644
 20
-19.2628
 11
36.7758
 21
-17.1137
  0
LINE
  8
0
 10
36.7758
 20
-17.1137
 11
34.7746
 21
-14.6946
  0
LINE
  8
0
 10
34.7746
 20
-14.6946
 11
33.0923
 21
-12.0438
  0
LINE
  8
0
 10
33.0923
 20
-12.0438
 11
31.7556
 21
-9.20311
  0
LINE
  8
0
 10
31.7556
 20
-9.20311
 11
30.7854
 21
-6.21724
  0
LINE
  8
0
 10
30.7854
 20
-6.21724
 11
30.1971
 21
-3.13332
  0
LINE
  8
0
 10
30.1971
 20
-3.13332
 11
30
 21
0
  0
LINE
  8
0
 10
30
 20
0
 11
30.1971
 21
3.13332
  0
LINE
  8
0
 10
30.1971
 20
3.13332
 11
30.7854
 21
6.21724
  0
LINE
  8
0
 10
30.7854
 20
6.21724
 11
31.7556
 21
9.20311
  0
LINE
  8
0
 10
31.7556
 20
9.20311
 11
33.0923
 21
12.0438
  0
LINE
  8
0
 10
33.0923
 20
12.0438
 11
34.7746
 21
14.6946
  0
LINE
  8
0
 10
34.7746
 20
14.6946
 11
36.7758
 21
17.1137
  0
LINE
  8
0
 10
36.7758
 20
17.1137
 11
39.0644
 21
19.2628
  0
LINE
  8
0
 10
39.0644
 20
19.2628
 11
41.6043
 21
21.1082
  0
LINE
  8
0
 10
41.6043
 20
21.1082
 11
44.3555
 21
22.6207
  0
LINE
  8
0
 10
44.3555
 20
22.6207
 11
47.2746
 21
23.7764
  0
LINE
  8
0
 10
47.2746
 20
23.7764
 11
50.3155
 21
24.5572
  0
LINE
  8
0
 10
50.3155
 20
24.5572
 11
53.4302
 21
24.9507
  0
LINE
  8
0
 10
53.4302
 20
24.9507
 11
56.5698
 21
24.9507
  0
LINE
  8
0
 10
56.5698
 20
24.9507
 11
59.6845
 21
24.5572
  0
LINE
  8
0
 10
59.6845
 20
24.5572
 11
62.7254
 21
23.7764
  0
LINE
  8
0
 10
62.7254
 20
23.7764
 11
65.6445
 21
22.6207
  0
LINE
  8
0
 10
65.6445
 20
22.6207
 11
68.3957
 21
21.1082
  0
LINE
  8
0
 10
68.3957
 20
21.1082
 11
70.9356
 21
19.2628
  0
LINE
  8
0
 10
70.9356
 20
19.2628
 11
73.2242
 21
17.1137
  0
LINE
  8
0
 10
73.2242
 20
17.1137
 11
75.2254
 21
14.6946
  0
LINE
  8
0
 10
75.2254
 20
14.6946
 11
76.9077
 21
12.0438
  0
LINE
  8
0
 10
76.9077
 20
12.0438
 11
78.2444
 21
9.20311
  0
LINE
  8
0
 10
78.2444
 20
9.20311
 11
79.2146
 21
6.21724
  0
LINE
  8
0
 10
79.2146
 20
6.21724
 11
79.8029
 21
3.13332
  0
LINE
  8
0
 10
79.8029
 20
3.13332
 11
80
 21
0
  0
LINE
  8
0
 10
80
 20
0
 11
79.8029
 21
-3.13332
  0
LINE
  8
0
 10
79.8029
 20
-3.13332
 11
79.2146
 21
-6.21724
  0
LINE
  8
0
 10
79.2146
 20
-6.21724
 11
78.2444
 21
-9.20311
  0
LINE
  8
0
 10
78.2444
 20
-9.20311
 11
76.9077
 21
-12.0438
  0
LINE
  8
0
 10
76.9077
 20
-12.0438
 11
75.2254
 21
-14.6946
  0
LINE
  8
0
 10
75.2254
 20
-14.6946
 11
73.2242
 21
-17.1137
  0
LINE
  8
0
 10
73.2242
 20
-17.1137
 11
70.9356
 21
-19.2628
  0
LINE
  8
0
 10
70.9356
 20
-19.2628
 11
68.3957
 21
-21.1082
  0
LINE
  8
0
 10
68.3957
 20
-21.1082
 11
65.6445
 21
-22.6207
  0
LINE
  8
0
 10
65.6445
 20
-22.6207
 11
62.7254
 21
-23.7764
  0
LINE
  8
0
 10
62.7254
 20
-23.7764
 11
59.6845
 21
-24.5572
  0
LINE
  8
0
 10
59.6845
 20
-24.5572
 11
56.5698
 21
-24.9507
  0
LINE
  8
0
 10
56.5698
 20
-24.9507
 11
53.4302
 21
-24.9507
  0
LINE
  8
0
 10
-1.56975
 20
-24.9507
 11
-4.68452
 21
-24.5572
  0
LINE
  8
0
 10
-4.68452
 20
-24.5572
 11
-7.72542
 21
-23.7764
  0
LINE
  8
0
 10
-7.72542
 20
-23.7764
 11
-10.6445
 21
-22.6207
  0
LINE
  8
0
 10
-10.6445
 20
-22.6207
 11
-13.3957
 21
-21.1082
  0
LINE
  8
0
 10
-13.3957
 20
-21.1082
 11
-15.9356
 21
-19.2628
  0
LINE
  8
0
 10
-15.9356
 20
-19.2628
 11
-18.2242
 21
-17.1137
  0
LINE
  8
0
 10
-18.2242
 20
-17.1137
 11
-20.2254
 21
-14.6946
  0
LINE
  8
0
 10
-20.2254
 20
-14.6946
 11
-21.9077
 21
-12.0438
  0
LINE
  8
0
 10
-21.9077
 20
-12.0438
 11
-23.2444
 21
-9.20311
  0
LINE
  8
0
 10
-23.2444
 20
-9.20311
 11
-24.2146
 21
-6.21724
  0
LINE
  8
0
 10
-24.2146
 20
-6.21724
 11
-24.8029
 21
-3.13332
  0
LINE
  8
0
 10
-24.8029
 20
-3.13332
 11
-25
 21
0
  0
LINE
  8
0
 10
-25
 20
0
 11
-24.8029
 21
3.13332
  0
LINE
  8
0
 10
-24.8029
 20
3.13332
 11
-24.2146
 21
6.21724
  0
LINE
  8
0
 10
-24.2146
 20
6.21724
 11
-23.2444
 21
9.20311
  0
LINE
  8
0
 10
-23.2444
 20
9.20311
 11
-21.9077
 21
12.0438
  0
LINE
  8
0
 10
-21.9077
 20
12.0438
 11
-20.2254
 21
14.6946
  0
LINE
  8
0
 10
-20.2254
 20
14.6946
 11
-18.2242
 21
17.1137
  0
LINE
  8
0
 10
-18.2242
 20
17.1137
 11
-15.9356
 21
19.2628
  0
LINE
  8
0
 10
-15.9356
 20
19.2628
 11
-13.3957
 21
21.1082
  0
LINE
  8
0
 10
-13.3957
 20
21.1082
 11
-10.6445
 21
22.6207
  0
LINE
  8
0
 10
-10.6445
 20
22.6207
 11
-7.72542
 21
23.7764
  0
LINE
  8
0
 10
-7.72542
 20
23.7764
 11
-4.68452
 21
24.5572
  0
LINE
  8
0
 10
-4.68452
 20
24.5572
 11
-1.56975
 21
24.9507
  0
LINE
  8
0
 10
-1.56975
 20
24.9507
 11
1.56975
 21
24.9507
  0
LINE
  8
0
 10
1.56975
 20
24.9507
 11
4.68452
 21
24.5572
  0
LINE
  8
0
 10
4.68452
 20
24.5572
 11
7.72542
 21
23.7764
  0
LINE
  8
0
 10
7.72542
 20
23.7764
 11
10.6445
 21
22.6207
  0
LINE
  8
0
 10
10.6445
 20
22.6207
 11
13.3957
 21
21.1082
  0
LINE
  8
0
 10
13.3957
 20
21.1082
 11
15.9356
 21
19.2628
  0
LINE
  8
0
 10
15.9356
 20
19.2628
 11
18.2242
 21
17.1137
  0
LINE
  8
0
 10
18.2242
 20
17.1137
 11
20.2254
 21
14.6946
  0
LINE
  8
0
 10
20.2254
 20
14.6946
 11
21.9077
 21
12.0438
  0
LINE
  8
0
 10
21.9077
 20
12.0438
 11
23.2444
 21
9.20311
  0
LINE
  8
0
 10
23.2444
 20
9.20311
 11
24.2146
 21
6.21724
  0
LINE
  8
0
 10
24.2146
 20
6.21724
 11
24.8029
 21
3.13332
  0
LINE
  8
0
 10
24.8029
 20
3.13332
 11
25
 21
0
  0
LINE
  8
0
 10
25
 20
0
 11
24.8029
 21
-3.13332
  0
LINE
  8
0
 10
24.8029
 20
-3.13332
 11
24.2146
 21
-6.21724
  0
LINE
  8
0
 10
24.2146
 20
-6.21724
 11
23.2444
 21
-9.20311
  0
LINE
  8
0
 10
23.2444
 20
-9.20311
 11
21.9077
 21
-12.0438
  0
LINE
  8
0
 10
21.9077
 20
-12.0438
 11
20.2254
 21
-14.6946
  0
LINE
  8
0
 10
20.2254
 20
-14.6946
 11
18.2242
 21
-17.1137
  0
LINE
  8
0
 10
18.2242
 20
-17.1137
 11
15.9356
 21
-19.2628
  0
LINE
  8
0
 10
15.9356
 20
-19.2628
 11
13.3957
 21
-21.1082
  0
LINE
  8
0
 10
13.3957
 20
-21.1082
 11
10.6445
 21
-22.6207
  0
LINE
  8
0
 10
10.6445
 20
-22.6207
 11
7.72542
 21
-23.7764
  0
LINE
  8
0
 10
7.72542
 20
-23.7764
 11
4.68452
 21
-24.5572
  0
LINE
  8
0
 10
4.68452
 20
-24.5572
 11
1.56975
 21
-24.9507
  0
LINE
  8
0
 10
1.56975
 20
-24.9507
 11
-1.56975
 21
-24.9507
  0
LINE
  8
0
 10
-56.5698
 20
-24.9507
 11
-59.6845
 21
-24.5572
  0
LINE
  8
0
 10
-59.6845
 20
-24.5572
 11
-62.7254
 21
-23.7764
  0
LINE
  8
0
 10
-62.7254
 20
-23.7764
 11
-65.6445
 21
-22.6207
  0
LINE
  8
0
 10
-65.6445
 20
-22.6207
 11
-68.3957
 21
-21.1082
  0
LINE
  8
0
 10
-68.3957
 20
-21.1082
 11
-70.9356
 21
-19.2628
  0
LINE
  8
0
 10
-70.9356
 20
-19.2628
 11
-73.2242
 21
-17.1137
  0
LINE
  8
0
 10
-73.2242
 20
-17.1137
 11
-75.2254
 21
-14.6946
  0
LINE
  8
0
 10
-75.2254
 20
-14.6946
 11
-76.9077
 21
-12.0438
  0
LINE
  8
0
 10
-76.9077
 20
-12.0438
 11
-78.2444
 21
-9.20311
  0
LINE
  8
0
 10
-78.2444
 20
-9.20311
 11
-79.2146
 21
-6.21724
  0
LINE
  8
0
 10
-79.2146
 20
-6.21724
 11
-79.8029
 21
-3.13332
  0
LINE
  8
0
 10
-79.8029
 20
-3.13332
 11
-80
 21
0
  0
LINE
  8
0
 10
-80
 20
0
 11
-79.8029
 21
3.13332
  0
LINE
  8
0
 10
-79.8029
 20
3.13332
 11
-79.2146
 21
6.21724
  0
LINE
  8
0
 10
-79.2146
 20
6.21724
 11
-78.2444
 21
9.20311
  0
LINE
  8
0
 10
-78.2444
 20
9.20311
 11
-76.9077
 21
12.0438
  0
LINE
  8
0
 10
-76.9077
 20
12.0438
 11
-75.2254
 21
14.6946
  0
LINE
  8
0
 10
-75.2254
 20
14.6946
 11
-73.2242
 21
17.1137
  0
LINE
  8
0
 10
-73.2242
 20
17.1137
 11
-70.9356
 21
19.2628
  0
LINE
  8
0
 10
-70.9356
 20
19.2628
 11
-68.3957
 21
21.1082
  0
LINE
  8
0
 10
-68.3957
 20
21.1082
 11
-65.6445
 21
22.6207
  0
LINE
  8
0
 10
-65.6445
 20
22.6207
 11
-62.7254
 21
23.7764
  0
LINE
  8
0
 10
-62.7254
 20
23.7764
 11
-59.6845
 21
24.5572
  0
LINE
  8
0
 10
-59.6845
 20
24.5572
 11
-56.5698
 21
24.9507
  0
LINE
  8
0
 10
-56.5698
 20
24.9507
 11
-53.4302
 21
24.9507
  0
LINE
  8
0
 10
-53.4302
 20
24.9507
 11
-50.3155
 21
24.5572
  0
LINE
  8
0
 10
-50.3155
 20
24.5572
 11
-47.2746
 21
23.7764
  0
LINE
  8
0
 10
-47.2746
 20
23.7764
 11
-44.3555
 21
22.6207
  0
LINE
  8
0
 10
-44.3555
 20
22.6207
 11
-41.6043
 21
21.1082
  0
LINE
  8
0
 10
-41.6043
 20
21.1082
 11
-39.0644
 21
19.2628
  0
LINE
  8
0
 10
-39.0644
 20
19.2628
 11
-36.7758
 21
17.1137
  0
LINE
  8
0
 10
-36.7758
 20
17.1137
 11
-34.7746
 21
14.6946
  0
LINE
  8
0
 10
-34.7746
 20
14.6946
 11
-33.0923
 21
12.0438
  0
LINE
  8
0
 10
-33.0923
 20
12.0438
 11
-31.7556
 21
9.20311
  0
LINE
  8
0
 10
-31.7556
 20
9.20311
 11
-30.7854
 21
6.21724
  0
LINE
  8
0
 10
-30.7854
 20
6.21724
 11
-30.1971
 21
3.13332
  0
LINE
  8
0
 10
-30.1971
 20
3.13332
 11
-30
 21
0
  0
LINE
  8
0
 10
-30
 20
0
 11
-30.1971
 21
-3.13332
  0
LINE
  8
0
 10
-30.1971
 20
-3.13332
 11
-30.7854
 21
-6.21724
  0
LINE
  8
0
 10
-30.7854
 20
-6.21724
 11
-31.7556
 21
-9.20311
  0
LINE
  8
0
 10
-31.7556
 20
-9.20311
 11
-33.0923
 21
-12.0438
  0
LINE
  8
0
 10
-33.0923
 20
-12.0438
 11
-34.7746
 21
-14.6946
  0
LINE
  8
0
 10
-34.7746
 20
-14.6946
 11
-36.7758
 21
-17.1137
  0
LINE
  8
0
 10
-36.7758
 20
-17.1137
 11
-39.0644
 21
-19.2628
  0
LINE
  8
0
 10
-39.0644
 20
-19.2628
 11
-41.6043
 21
-21.1082
  0
LINE
  8
0
 10
-41.6043
 20
-21.1082
 11
-44.3555
 21
-22.6207
  0
LINE
  8
0
 10
-44.3555
 20
-22.6207
 11
-47.2746
 21
-23.7764
  0
LINE
  8
0
 10
-47.2746
 20
-23.7764
 11
-50.3155
 21
-24.5572
  0
LINE
  8
0
 10
-50.3155
 20
-24.5572
 11
-53.4302
 21
-24.9507
  0
LINE
  8
0
 10
-53.4302
 20
-24.9507
 11
-56.5698
 21
-24.9507
  0
LINE
  8
0
 10
-82.6884
 20
-25.4941
 11
-83.0621
 21
-25.4469
  0
LINE
  8
0
 10
-83.0621
 20
-25.4469
 11
-83.427
 21
-25.3532
  0
LINE
  8
0
 10
-83.427
 20
-25.3532
 11
-83.7773
 21
-25.2145
  0
LINE
  8
0
 10
-83.7773
 20
-25.2145
 11
-84.1075
 21
-25.033
  0
LINE
  8
0
 10
-84.1075
 20
-25.033
 11
-84.4123
 21
-24.8115
  0
LINE
  8
0
 10
-84.4123
 20
-24.8115
 11
-84.6869
 21
-24.5536
  0
LINE
  8
0
 10
-84.6869
 20
-24.5536
 11
-84.927
 21
-24.2634
  0
LINE
  8
0
 10
-84.927
 20
-24.2634
 11
-85.1289
 21
-23.9453
  0
LINE
  8
0
 10
-85.1289
 20
-23.9453
 11
-85.2893
 21
-23.6044
  0
LINE
  8
0
 10
-85.2893
 20
-23.6044
 11
-85.4057
 21
-23.2461
  0
LINE
  8
0
 10
-85.4057
 20
-23.2461
 11
-85.4763
 21
-22.876
  0
LINE
  8
0
 10
-85.4763
 20
-22.876
 11
-85.5
 21
-22.5
  0
LINE
  8
0
 10
-85.5
 20
-22.5
 11
-85.4763
 21
-22.124
  0
LINE
  8
0
 10
-85.4763
 20
-22.124
 11
-85.4057
 21
-21.7539
  0
LINE
  8
0
 10
-85.4057
 20
-21.7539
 11
-85.2893
 21
-21.3956
  0
LINE
  8
0
 10
-85.2893
 20
-21.3956
 11
-85.1289
 21
-21.0547
  0
LINE
  8
0
 10
-85.1289
 20
-21.0547
 11
-84.927
 21
-20.7366
  0
LINE
  8
0
 10
-84.927
 20
-20.7366
 11
-84.6869
 21
-20.4464
  0
LINE
  8
0
 10
-84.6869
 20
-20.4464
 11
-84.4123
 21
-20.1884
  0
LINE
  8
0
 10
-84.4123
 20
-20.1884
 11
-84.1075
 21
-19.967
  0
LINE
  8
0
 10
-84.1075
 20
-19.967
 11
-83.7773
 21
-19.7855
  0
LINE
  8
0
 10
-83.7773
 20
-19.7855
 11
-83.427
 21
-19.6468
  0
LINE
  8
0
 10
-83.427
 20
-19.6468
 11
-83.0621
 21
-19.5531
  0
LINE
  8
0
 10
-83.0621
 20
-19.5531
 11
-82.6884
 21
-19.5059
  0
LINE
  8
0
 10
-82.6884
 20
-19.5059
 11
-82.3116
 21
-19.5059
  0
LINE
  8
0
 10
-82.3116
 20
-19.5059
 11
-81.9379
 21
-19.5531
  0
LINE
  8
0
 10
-81.9379
 20
-19.5531
 11
-81.573
 21
-19.6468
  0
LINE
  8
0
 10
-81.573
 20
-19.6468
 11
-81.2227
 21
-19.7855
  0
LINE
  8
0
 10
-81.2227
 20
-19.7855
 11
-80.8925
 21
-19.967
  0
LINE
  8
0
 10
-80.8925
 20
-19.967
 11
-80.5877
 21
-20.1884
  0
LINE
  8
0
 10
-80.5877
 20
-20.1884
 11
-80.3131
 21
-20.4464
  0
LINE
  8
0
 10
-80.3131
 20
-20.4464
 11
-80.073
 21
-20.7366
  0
LINE
  8
0
 10
-80.073
 20
-20.7366
 11
-79.8711
 21
-21.0547
  0
LINE
  8
0
 10
-79.8711
 20
-21.0547
 11
-79.7107
 21
-21.3956
  0
LINE
  8
0
 10
-79.7107
 20
-21.3956
 11
-79.5943
 21
-21.7539
  0
LINE
  8
0
 10
-79.5943
 20
-21.7539
 11
-79.5237
 21
-22.124
  0
LINE
  8
0
 10
-79.5237
 20
-22.124
 11
-79.5
 21
-22.5
  0
LINE
  8
0
 10
-79.5
 20
-22.5
 11
-79.5237
 21
-22.876
  0
LINE
  8
0
 10
-79.5237
 20
-22.876
 11
-79.5943
 21
-23.2461
  0
LINE
  8
0
 10
-79.5943
 20
-23.2461
 11
-79.7107
 21
-23.6044
  0
LINE
  8
0
 10
-79.7107
 20
-23.6044
 11
-79.8711
 21
-23.9453
  0
LINE
  8
0
 10
-79.8711
 20
-23.9453
 11
-80.073
 21
-24.2634
  0
LINE
  8
0
 10
-80.073
 20
-24.2634
 11
-80.3131
 21
-24.5536
  0
LINE
  8
0
 10
-80.3131
 20
-24.5536
 11
-80.5877
 21
-24.8115
  0
LINE
  8
0
 10
-80.5877
 20
-24.8115
 11
-80.8925
 21
-25.033
  0
LINE
  8
0
 10
-80.8925
 20
-25.033
 11
-81.2227
 21
-25.2145
  0
LINE
  8
0
 10
-81.2227
 20
-25.2145
 11
-81.573
 21
-25.3532
  0
LINE
  8
0
 10
-81.573
 20
-25.3532
 11
-81.9379
 21
-25.4469
  0
LINE
  8
0
 10
-81.9379
 20
-25.4469
 11
-82.3116
 21
-25.4941
  0
LINE
  8
0
 10
-82.3116
 20
-25.4941
 11
-82.6884
 21
-25.4941
  0
LINE
  8
0
 10
82.3116
 20
-25.4941
 11
81.9379
 21
-25.4469
  0
LINE
  8
0
 10
81.9379
 20
-25.4469
 11
81.573
 21
-25.3532
  0
LINE
  8
0
 10
81.573
 20
-25.3532
 11
81.2227
 21
-25.2145
  0
LINE
  8
0
 10
81.2227
 20
-25.2145
 11
80.8925
 21
-25.033
  0
LINE
  8
0
 10
80.8925
 20
-25.033
 11
80.5877
 21
-24.8115
  0
LINE
  8
0
 10
80.5877
 20
-24.8115
 11
80.3131
 21
-24.5536
  0
LINE
  8
0
 10
80.3131
 20
-24.5536
 11
80.073
 21
-24.2634
  0
LINE
  8
0
 10
80.073
 20
-24.2634
 11
79.8711
 21
-23.9453
  0
LINE
  8
0
 10
79.8711
 20
-23.9453
 11
79.7107
 21
-23.6044
  0
LINE
  8
0
 10
79.7107
 20
-23.6044
 11
79.5943
 21
-23.2461
  0
LINE
  8
0
 10
79.5943
 20
-23.2461
 11
79.5237
 21
-22.876
  0
LINE
  8
0
 10
79.5237
 20
-22.876
 11
79.5
 21
-22.5
  0
LINE
  8
0
 10
79.5
 20
-22.5
 11
79.5237
 21
-22.124
  0
LINE
  8
0
 10
79.5237
 20
-22.124
 11
79.5943
 21
-21.7539
  0
LINE
  8
0
 10
79.5943
 20
-21.7539
 11
79.7107
 21
-21.3956
  0
LINE
  8
0
 10
79.7107
 20
-21.3956
 11
79.8711
 21
-21.0547
  0
LINE
  8
0
 10
79.8711
 20
-21.0547
 11
80.073
 21
-20.7366
  0
LINE
  8
0
 10
80.073
 20
-20.7366
 11
80.3131
 21
-20.4464
  0
LINE
  8
0
 10
80.3131
 20
-20.4464
 11
80.5877
 21
-20.1884
  0
LINE
  8
0
 10
80.5877
 20
-20.1884
 11
80.8925
 21
-19.967
  0
LINE
  8
0
 10
80.8925
 20
-19.967
 11
81.2227
 21
-19.7855
  0
LINE
  8
0
 10
81.2227
 20
-19.7855
 11
81.573
 21
-19.6468
  0
LINE
  8
0
 10
81.573
 20
-19.6468
 11
81.9379
 21
-19.5531
  0
LINE
  8
0
 10
81.9379
 20
-19.5531
 11
82.3116
 21
-19.5059
  0
LINE
  8
0
 10
82.3116
 20
-19.5059
 11
82.6884
 21
-19.5059
  0
LINE
  8
0
 10
82.6884
 20
-19.5059
 11
83.0621
 21
-19.5531
  0
LINE
  8
0
 10
83.0621
 20
-19.5531
 11
83.427
 21
-19.6468
  0
LINE
  8
0
 10
83.427
 20
-19.6468
 11
83.7773
 21
-19.7855
  0
LINE
  8
0
 10
83.7773
 20
-19.7855
 11
84.1075
 21
-19.967
  0
LINE
  8
0
 10
84.1075
 20
-19.967
 11
84.4123
 21
-20.1884
  0
LINE
  8
0
 10
84.4123
 20
-20.1884
 11
84.6869
 21
-20.4464
  0
LINE
  8
0
 10
84.6869
 20
-20.4464
 11
84.927
 21
-20.7366
  0
LINE
  8
0
 10
84.927
 20
-20.7366
 11
85.1289
 21
-21.0547
  0
LINE
  8
0
 10
85.1289
 20
-21.0547
 11
85.2893
 21
-21.3956
  0
LINE
  8
0
 10
85.2893
 20
-21.3956
 11
85.4057
 21
-21.7539
  0
LINE
  8
0
 10
85.4057
 20
-21.7539
 11
85.4763
 21
-22.124
  0
LINE
  8
0
 10
85.4763
 20
-22.124
 11
85.5
 21
-22.5
  0
LINE
  8
0
 10
85.5
 20
-22.5
 11
85.4763
 21
-22.876
  0
LINE
  8
0
 10
85.4763
 20
-22.876
 11
85.4057
 21
-23.2461
  0
LINE
  8
0
 10
85.4057
 20
-23.2461
 11
85.2893
 21
-23.6044
  0
LINE
  8
0
 10
85.2893
 20
-23.6044
 11
85.1289
 21
-23.9453
  0
LINE
  8
0
 10
85.1289
 20
-23.9453
 11
84.927
 21
-24.2634
  0
LINE
  8
0
 10
84.927
 20
-24.2634
 11
84.6869
 21
-24.5536
  0
LINE
  8
0
 10
84.6869
 20
-24.5536
 11
84.4123
 21
-24.8115
  0
LINE
  8
0
 10
84.4123
 20
-24.8115
 11
84.1075
 21
-25.033
  0
LINE
  8
0
 10
84.1075
 20
-25.033
 11
83.7773
 21
-25.2145
  0
LINE
  8
0
 10
83.7773
 20
-25.2145
 11
83.427
 21
-25.3532
  0
LINE
  8
0
 10
83.427
 20
-25.3532
 11
83.0621
 21
-25.4469
  0
LINE
  8
0
 10
83.0621
 20
-25.4469
 11
82.6884
 21
-25.4941
  0
LINE
  8
0
 10
82.6884
 20
-25.4941
 11
82.3116
 21
-25.4941
  0
ENDSEC
  0
SECTION
  2
OBJECTS
  0
DICTIONARY
  0
ENDSEC
  0
EOF
