<?xml version="1.0" standalone="no"?>
<!DOCTYPE svg PUBLIC "-//W3C//DTD SVG 1.1//EN" "http://www.w3.org/Graphics/SVG/1.1/DTD/svg11.dtd">
<svg width="74mm" height="30mm" viewBox="-37 -54 74 30" xmlns="http://www.w3.org/2000/svg" version="1.1">
<title>OpenSCAD Model</title>
<path d="
M 32.9369,-24.5886 L 33.5451,-24.7447 L 34.1289,-24.9759 L 34.6791,-25.2784 L 35.1871,-25.6474 L 35.6448,-26.0773
 L 36.0451,-26.5611 L 36.3815,-27.0912 L 36.6489,-27.6594 L 36.8429,-28.2566 L 36.9606,-28.8733 L 37,-29.5
 L 37,-48.5 L 36.9606,-49.1267 L 36.8429,-49.7434 L 36.6489,-50.3406 L 36.3815,-50.9088 L 36.0451,-51.4389
 L 35.6448,-51.9227 L 35.1871,-52.3526 L 34.6791,-52.7216 L 34.1289,-53.0241 L 33.5451,-53.2553 L 32.9369,-53.4114
 L 32.3139,-53.4901 L -32.3139,-53.4901 L -32.9369,-53.4114 L -33.5451,-53.2553 L -34.1289,-53.0241 L -34.6791,-52.7216
 L -35.1871,-52.3526 L -35.6448,-51.9227 L -36.0451,-51.4389 L -36.3815,-50.9088 L -36.6489,-50.3406 L -36.8429,-49.7434
 L -36.9606,-49.1267 L -37,-48.5 L -37,-29.5 L -36.9606,-28.8733 L -36.8429,-28.2566 L -36.6489,-27.6594
 L -36.3815,-27.0912 L -36.0451,-26.5611 L -35.6448,-26.0773 L -35.1871,-25.6474 L -34.6791,-25.2784 L -34.1289,-24.9759
 L -33.5451,-24.7447 L -32.9369,-24.5886 L -32.3139,-24.5099 L 32.3139,-24.5099 z
M -30.1884,-43.5059 L -30.5621,-43.5531 L -30.927,-43.6468 L -31.2773,-43.7855 L -31.6075,-43.967 L -31.9123,-44.1884
 L -32.1869,-44.4464 L -32.427,-44.7366 L -32.6289,-45.0547 L -32.7893,-45.3956 L -32.9057,-45.7539 L -32.9763,-46.124
 L -33,-46.5 L -32.9763,-46.876 L -32.9057,-47.2461 L -32.7893,-47.6044 L -32.6289,-47.9453 L -32.427,-48.2634
 L -32.1869,-48.5536 L -31.9123,-48.8115 L -31.6075,-49.033 L -31.2773,-49.2145 L -30.927,-49.3532 L -30.5621,-49.4469
 L -30.1884,-49.4941 L -29.8116,-49.4941 L -29.4379,-49.4469 L -29.0729,-49.3532 L -28.7227,-49.2145 L -28.3925,-49.033
 L -28.0877,-48.8115 L -27.8131,-48.5536 L -27.5729,-48.2634 L -27.3711,-47.9453 L -27.2107,-47.6044 L -27.0942,-47.2461
 L -27.0237,-46.876 L -27,-46.5 L -27.0237,-46.124 L -27.0942,-45.7539 L -27.2107,-45.3956 L -27.3711,-45.0547
 L -27.5729,-44.7366 L -27.8131,-44.4464 L -28.0877,-44.1884 L -28.3925,-43.967 L -28.7227,-43.7855 L -29.0729,-43.6468
 L -29.4379,-43.5531 L -29.8116,-43.5059 z
M 14.8116,-43.5059 L 14.4379,-43.5531 L 14.0729,-43.6468 L 13.7227,-43.7855 L 13.3925,-43.967 L 13.0877,-44.1884
 L 12.8131,-44.4464 L 12.5729,-44.7366 L 12.3711,-45.0547 L 12.2107,-45.3956 L 12.0942,-45.7539 L 12.0237,-46.124
 L 12,-46.5 L 12.0237,-46.876 L 12.0942,-47.2461 L 12.2107,-47.6044 L 12.3711,-47.9453 L 12.5729,-48.2634
 L 12.8131,-48.5536 L 13.0877,-48.8115 L 13.3925,-49.033 L 13.7227,-49.2145 L 14.0729,-49.3532 L 14.4379,-49.4469
 L 14.8116,-49.4941 L 15.1884,-49.4941 L 15.5621,-49.4469 L 15.927,-49.3532 L 16.2773,-49.2145 L 16.6075,-49.033
 L 16.9123,-48.8115 L 17.1869,-48.5536 L 17.427,-48.2634 L 17.6289,-47.9453 L 17.7893,-47.6044 L 17.9057,-47.2461
 L 17.9763,-46.876 L 18,-46.5 L 17.9763,-46.124 L 17.9057,-45.7539 L 17.7893,-45.3956 L 17.6289,-45.0547
 L 17.427,-44.7366 L 17.1869,-44.4464 L 16.9123,-44.1884 L 16.6075,-43.967 L 16.2773,-43.7855 L 15.927,-43.6468
 L 15.5621,-43.5531 L 15.1884,-43.5059 z
M 29.8116,-43.5059 L 29.4379,-43.5531 L 29.0729,-43.6468 L 28.7227,-43.7855 L 28.3925,-43.967 L 28.0877,-44.1884
 L 27.8131,-44.4464 L 27.5729,-44.7366 L 27.3711,-45.0547 L 27.2107,-45.3956 L 27.0942,-45.7539 L 27.0237,-46.124
 L 27,-46.5 L 27.0237,-46.876 L 27.0942,-47.2461 L 27.2107,-47.6044 L 27.3711,-47.9453 L 27.5729,-48.2634
 L 27.8131,-48.5536 L 28.0877,-48.8115 L 28.3925,-49.033 L 28.7227,-49.2145 L 29.0729,-49.3532 L 29.4379,-49.4469
 L 29.8116,-49.4941 L 30.1884,-49.4941 L 30.5621,-49.4469 L 30.927,-49.3532 L 31.2773,-49.2145 L 31.6075,-49.033
 L 31.9123,-48.8115 L 32.1869,-48.5536 L 32.427,-48.2634 L 32.6289,-47.9453 L 32.7893,-47.6044 L 32.9057,-47.2461
 L 32.9763,-46.876 L 33,-46.5 L 32.9763,-46.124 L 32.9057,-45.7539 L 32.7893,-45.3956 L 32.6289,-45.0547
 L 32.427,-44.7366 L 32.1869,-44.4464 L 31.9123,-44.1884 L 31.6075,-43.967 L 31.2773,-43.7855 L 30.927,-43.6468
 L 30.5621,-43.5531 L 30.1884,-43.5059 z
M -15.1884,-43.5059 L -15.5621,-43.5531 L -15.927,-43.6468 L -16.2773,-43.7855 L -16.6075,-43.967 L -16.9123,-44.1884
 L -17.1869,-44.4464 L -17.427,-44.7366 L -17.6289,-45.0547 L -17.7893,-45.3956 L -17.9057,-45.7539 L -17.9763,-46.124
 L -18,-46.5 L -17.9763,-46.876 L -17.9057,-47.2461 L -17.7893,-47.6044 L -17.6289,-47.9453 L -17.427,-48.2634
 L -17.1869,-48.5536 L -16.9123,-48.8115 L -16.6075,-49.033 L -16.2773,-49.2145 L -15.927,-49.3532 L -15.5621,-49.4469
 L -15.1884,-49.4941 L -14.8116,-49.4941 L -14.4379,-49.4469 L -14.0729,-49.3532 L -13.7227,-49.2145 L -13.3925,-49.033
 L -13.0877,-48.8115 L -12.8131,-48.5536 L -12.5729,-48.2634 L -12.3711,-47.9453 L -12.2107,-47.6044 L -12.0942,-47.2461
 L -12.0237,-46.876 L -12,-46.5 L -12.0237,-46.124 L -12.0942,-45.7539 L -12.2107,-45.3956 L -12.3711,-45.0547
 L -12.5729,-44.7366 L -12.8131,-44.4464 L -13.0877,-44.1884 L -13.3925,-43.967 L -13.7227,-43.7855 L -14.0729,-43.6468
 L -14.4379,-43.5531 L -14.8116,-43.5059 z
M -0.18837,-43.5059 L -0.562134,-43.5531 L -0.927048,-43.6468 L -1.27733,-43.7855 L -1.60747,-43.967 L -1.91226,-44.1884
 L -2.1869,-44.4464 L -2.42705,-44.7366 L -2.62891,-45.0547 L -2.78932,-45.3956 L -2.90575,-45.7539 L -2.97633,-46.124
 L -3,-46.5 L -2.97633,-46.876 L -2.90575,-47.2461 L -2.78932,-47.6044 L -2.62891,-47.9453 L -2.42705,-48.2634
 L -2.1869,-48.5536 L -1.91226,-48.8115 L -1.60747,-49.033 L -1.27733,-49.2145 L -0.927048,-49.3532 L -0.562134,-49.4469
 L -0.18837,-49.4941 L 0.18837,-49.4941 L 0.562134,-49.4469 L 0.927048,-49.3532 L 1.27733,-49.2145 L 1.60747,-49.033
 L 1.91226,-48.8115 L 2.1869,-48.5536 L 2.42705,-48.2634 L 2.62891,-47.9453 L 2.78932,-47.6044 L 2.90575,-47.2461
 L 2.97633,-46.876 L 3,-46.5 L 2.97633,-46.124 L 2.90575,-45.7539 L 2.78932,-45.3956 L 2.62891,-45.0547
 L 2.42705,-44.7366 L 2.1869,-44.4464 L 1.91226,-44.1884 L 1.60747,-43.967 L 1.27733,-43.7855 L 0.927048,-43.6468
 L 0.562134,-43.5531 L 0.18837,-43.5059 z
M -22.5942,-45.0029 L -22.7811,-45.0266 L -22.9635,-45.0734 L -23.1387,-45.1427 L -23.3037,-45.2335 L -23.4561,-45.3442
 L -23.5934,-45.4732 L -23.7135,-45.6183 L -23.8145,-45.7774 L -23.8947,-45.9478 L -23.9529,-46.127 L -23.9882,-46.312
 L -24,-46.5 L -23.9882,-46.688 L -23.9529,-46.873 L -23.8947,-47.0522 L -23.8145,-47.2226 L -23.7135,-47.3817
 L -23.5934,-47.5268 L -23.4561,-47.6558 L -23.3037,-47.7665 L -23.1387,-47.8572 L -22.9635,-47.9266 L -22.7811,-47.9734
 L -22.5942,-47.997 L -22.4058,-47.997 L -22.2189,-47.9734 L -22.0365,-47.9266 L -21.8613,-47.8572 L -21.6963,-47.7665
 L -21.5439,-47.6558 L -21.4065,-47.5268 L -21.2865,-47.3817 L -21.1855,-47.2226 L -21.1053,-47.0522 L -21.0471,-46.873
 L -21.0118,-46.688 L -21,-46.5 L -21.0118,-46.312 L -21.0471,-46.127 L -21.1053,-45.9478 L -21.1855,-45.7774
 L -21.2865,-45.6183 L -21.4065,-45.4732 L -21.5439,-45.3442 L -21.6963,-45.2335 L -21.8613,-45.1427 L -22.0365,-45.0734
 L -22.2189,-45.0266 L -22.4058,-45.0029 z
M 7.40581,-45.0029 L 7.21892,-45.0266 L 7.03647,-45.0734 L 6.86133,-45.1427 L 6.69626,-45.2335 L 6.54385,-45.3442
 L 6.40654,-45.4732 L 6.28647,-45.6183 L 6.18553,-45.7774 L 6.10533,-45.9478 L 6.04712,-46.127 L 6.01183,-46.312
 L 6,-46.5 L 6.01183,-46.688 L 6.04712,-46.873 L 6.10533,-47.0522 L 6.18553,-47.2226 L 6.28647,-47.3817
 L 6.40654,-47.5268 L 6.54385,-47.6558 L 6.69626,-47.7665 L 6.86133,-47.8572 L 7.03647,-47.9266 L 7.21892,-47.9734
 L 7.40581,-47.997 L 7.59418,-47.997 L 7.78107,-47.9734 L 7.96352,-47.9266 L 8.13866,-47.8572 L 8.30373,-47.7665
 L 8.45613,-47.6558 L 8.59344,-47.5268 L 8.71352,-47.3817 L 8.81445,-47.2226 L 8.89465,-47.0522 L 8.95287,-46.873
 L 8.98816,-46.688 L 9,-46.5 L 8.98816,-46.312 L 8.95287,-46.127 L 8.89465,-45.9478 L 8.81445,-45.7774
 L 8.71352,-45.6183 L 8.59344,-45.4732 L 8.45613,-45.3442 L 8.30373,-45.2335 L 8.13866,-45.1427 L 7.96352,-45.0734
 L 7.78107,-45.0266 L 7.59418,-45.0029 z
M -7.59418,-45.0029 L -7.78107,-45.0266 L -7.96352,-45.0734 L -8.13866,-45.1427 L -8.30373,-45.2335 L -8.45613,-45.3442
 L -8.59344,-45.4732 L -8.71352,-45.6183 L -8.81445,-45.7774 L -8.89465,-45.9478 L -8.95287,-46.127 L -8.98816,-46.312
 L -9,-46.5 L -8.98816,-46.688 L -8.95287,-46.873 L -8.89465,-47.0522 L -8.81445,-47.2226 L -8.71352,-47.3817
 L -8.59344,-47.5268 L -8.45613,-47.6558 L -8.30373,-47.7665 L -8.13866,-47.8572 L -7.96352,-47.9266 L -7.78107,-47.9734
 L -7.59418,-47.997 L -7.40581,-47.997 L -7.21892,-47.9734 L -7.03647,-47.9266 L -6.86133,-47.8572 L -6.69626,-47.7665
 L -6.54385,-47.6558 L -6.40654,-47.5268 L -6.28647,-47.3817 L -6.18553,-47.2226 L -6.10533,-47.0522 L -6.04712,-46.873
 L -6.01183,-46.688 L -6,-46.5 L -6.01183,-46.312 L -6.04712,-46.127 L -6.10533,-45.9478 L -6.18553,-45.7774
 L -6.28647,-45.6183 L -6.40654,-45.4732 L -6.54385,-45.3442 L -6.69626,-45.2335 L -6.86133,-45.1427 L -7.03647,-45.0734
 L -7.21892,-45.0266 L -7.40581,-45.0029 z
M 22.4058,-45.0029 L 22.2189,-45.0266 L 22.0365,-45.0734 L 21.8613,-45.1427 L 21.6963,-45.2335 L 21.5439,-45.3442
 L 21.4065,-45.4732 L 21.2865,-45.6183 L 21.1855,-45.7774 L 21.1053,-45.9478 L 21.0471,-46.127 L 21.0118,-46.312
 L 21,-46.5 L 21.0118,-46.688 L 21.0471,-46.873 L 21.1053,-47.0522 L 21.1855,-47.2226 L 21.2865,-47.3817
 L 21.4065,-47.5268 L 21.5439,-47.6558 L 21.6963,-47.7665 L 21.8613,-47.8572 L 22.0365,-47.9266 L 22.2189,-47.9734
 L 22.4058,-47.997 L 22.5942,-47.997 L 22.7811,-47.9734 L 22.9635,-47.9266 L 23.1387,-47.8572 L 23.3037,-47.7665
 L 23.4561,-47.6558 L 23.5934,-47.5268 L 23.7135,-47.3817 L 23.8145,-47.2226 L 23.8947,-47.0522 L 23.9529,-46.873
 L 23.9882,-46.688 L 24,-46.5 L 23.9882,-46.312 L 23.9529,-46.127 L 23.8947,-45.9478 L 23.8145,-45.7774
 L 23.7135,-45.6183 L 23.5934,-45.4732 L 23.4561,-45.3442 L 23.3037,-45.2335 L 23.1387,-45.1427 L 22.9635,-45.0734
 L 22.7811,-45.0266 L 22.5942,-45.0029 z
M 9.84302,-36.5049 L 9.53154,-36.5443 L 9.22745,-36.6224 L 8.93555,-36.7379 L 8.66043,-36.8892 L 8.40643,-37.0737
 L 8.17757,-37.2886 L 7.97745,-37.5305 L 7.80922,-37.7956 L 7.67555,-38.0797 L 7.57854,-38.3783 L 7.5197,-38.6867
 L 7.5,-39 L 7.5197,-39.3133 L 7.57854,-39.6217 L 7.67555,-39.9203 L 7.80922,-40.2044 L 7.97745,-40.4695
 L 8.17757,-40.7114 L 8.40643,-40.9263 L 8.66043,-41.1108 L 8.93555,-41.2621 L 9.22745,-41.3776 L 9.53154,-41.4557
 L 9.84302,-41.4951 L 10.157,-41.4951 L 10.4684,-41.4557 L 10.7725,-41.3776 L 11.0644,-41.2621 L 11.3396,-41.1108
 L 11.5936,-40.9263 L 11.8224,-40.7114 L 12.0225,-40.4695 L 12.1908,-40.2044 L 12.3244,-39.9203 L 12.4214,-39.6217
 L 12.4803,-39.3133 L 12.5,-39 L 12.4803,-38.6867 L 12.4214,-38.3783 L 12.3244,-38.0797 L 12.1908,-37.7956
 L 12.0225,-37.5305 L 11.8224,-37.2886 L 11.5936,-37.0737 L 11.3396,-36.8892 L 11.0644,-36.7379 L 10.7725,-36.6224
 L 10.4684,-36.5443 L 10.157,-36.5049 z
M 19.843,-36.5049 L 19.5315,-36.5443 L 19.2274,-36.6224 L 18.9355,-36.7379 L 18.6604,-36.8892 L 18.4064,-37.0737
 L 18.1776,-37.2886 L 17.9774,-37.5305 L 17.8092,-37.7956 L 17.6756,-38.0797 L 17.5785,-38.3783 L 17.5197,-38.6867
 L 17.5,-39 L 17.5197,-39.3133 L 17.5785,-39.6217 L 17.6756,-39.9203 L 17.8092,-40.2044 L 17.9774,-40.4695
 L 18.1776,-40.7114 L 18.4064,-40.9263 L 18.6604,-41.1108 L 18.9355,-41.2621 L 19.2274,-41.3776 L 19.5315,-41.4557
 L 19.843,-41.4951 L 20.157,-41.4951 L 20.4684,-41.4557 L 20.7725,-41.3776 L 21.0644,-41.2621 L 21.3396,-41.1108
 L 21.5936,-40.9263 L 21.8224,-40.7114 L 22.0225,-40.4695 L 22.1908,-40.2044 L 22.3244,-39.9203 L 22.4214,-39.6217
 L 22.4803,-39.3133 L 22.5,-39 L 22.4803,-38.6867 L 22.4214,-38.3783 L 22.3244,-38.0797 L 22.1908,-37.7956
 L 22.0225,-37.5305 L 21.8224,-37.2886 L 21.5936,-37.0737 L 21.3396,-36.8892 L 21.0644,-36.7379 L 20.7725,-36.6224
 L 20.4684,-36.5443 L 20.157,-36.5049 z
M -10.157,-36.5049 L -10.4684,-36.5443 L -10.7725,-36.6224 L -11.0644,-36.7379 L -11.3396,-36.8892 L -11.5936,-37.0737
 L -11.8224,-37.2886 L -12.0225,-37.5305 L -12.1908,-37.7956 L -12.3244,-38.0797 L -12.4214,-38.3783 L -12.4803,-38.6867
 L -12.5,-39 L -12.4803,-39.3133 L -12.4214,-39.6217 L -12.3244,-39.9203 L -12.1908,-40.2044 L -12.0225,-40.4695
 L -11.8224,-40.7114 L -11.5936,-40.9263 L -11.3396,-41.1108 L -11.0644,-41.2621 L -10.7725,-41.3776 L -10.4684,-41.4557
 L -10.157,-41.4951 L -9.84302,-41.4951 L -9.53154,-41.4557 L -9.22745,-41.3776 L -8.93555,-41.2621 L -8.66043,-41.1108
 L -8.40643,-40.9263 L -8.17757,-40.7114 L -7.97745,-40.4695 L -7.80922,-40.2044 L -7.67555,-39.9203 L -7.57854,-39.6217
 L -7.5197,-39.3133 L -7.5,-39 L -7.5197,-38.6867 L -7.57854,-38.3783 L -7.67555,-38.0797 L -7.80922,-37.7956
 L -7.97745,-37.5305 L -8.17757,-37.2886 L -8.40643,-37.0737 L -8.66043,-36.8892 L -8.93555,-36.7379 L -9.22745,-36.6224
 L -9.53154,-36.5443 L -9.84302,-36.5049 z
M -0.156967,-36.5049 L -0.468445,-36.5443 L -0.772537,-36.6224 L -1.06444,-36.7379 L -1.33955,-36.8892 L -1.59355,-37.0737
 L -1.82242,-37.2886 L -2.02254,-37.5305 L -2.19077,-37.7956 L -2.32443,-38.0797 L -2.42145,-38.3783 L -2.48029,-38.6867
 L -2.5,-39 L -2.48029,-39.3133 L -2.42145,-39.6217 L -2.32443,-39.9203 L -2.19077,-40.2044 L -2.02254,-40.4695
 L -1.82242,-40.7114 L -1.59355,-40.9263 L -1.33955,-41.1108 L -1.06444,-41.2621 L -0.772537,-41.3776 L -0.468445,-41.4557
 L -0.156967,-41.4951 L 0.156967,-41.4951 L 0.468445,-41.4557 L 0.772537,-41.3776 L 1.06444,-41.2621 L 1.33955,-41.1108
 L 1.59355,-40.9263 L 1.82242,-40.7114 L 2.02254,-40.4695 L 2.19077,-40.2044 L 2.32443,-39.9203 L 2.42145,-39.6217
 L 2.48029,-39.3133 L 2.5,-39 L 2.48029,-38.6867 L 2.42145,-38.3783 L 2.32443,-38.0797 L 2.19077,-37.7956
 L 2.02254,-37.5305 L 1.82242,-37.2886 L 1.59355,-37.0737 L 1.33955,-36.8892 L 1.06444,-36.7379 L 0.772537,-36.6224
 L 0.468445,-36.5443 L 0.156967,-36.5049 z
M -20.157,-36.5049 L -20.4684,-36.5443 L -20.7725,-36.6224 L -21.0644,-36.7379 L -21.3396,-36.8892 L -21.5936,-37.0737
 L -21.8224,-37.2886 L -22.0225,-37.5305 L -22.1908,-37.7956 L -22.3244,-38.0797 L -22.4214,-38.3783 L -22.4803,-38.6867
 L -22.5,-39 L -22.4803,-39.3133 L -22.4214,-39.6217 L -22.3244,-39.9203 L -22.1908,-40.2044 L -22.0225,-40.4695
 L -21.8224,-40.7114 L -21.5936,-40.9263 L -21.3396,-41.1108 L -21.0644,-41.2621 L -20.7725,-41.3776 L -20.4684,-41.4557
 L -20.157,-41.4951 L -19.843,-41.4951 L -19.5315,-41.4557 L -19.2274,-41.3776 L -18.9355,-41.2621 L -18.6604,-41.1108
 L -18.4064,-40.9263 L -18.1776,-40.7114 L -17.9774,-40.4695 L -17.8092,-40.2044 L -17.6756,-39.9203 L -17.5785,-39.6217
 L -17.5197,-39.3133 L -17.5,-39 L -17.5197,-38.6867 L -17.5785,-38.3783 L -17.6756,-38.0797 L -17.8092,-37.7956
 L -17.9774,-37.5305 L -18.1776,-37.2886 L -18.4064,-37.0737 L -18.6604,-36.8892 L -18.9355,-36.7379 L -19.2274,-36.6224
 L -19.5315,-36.5443 L -19.843,-36.5049 z
M 29.9058,-37.503 L 29.7189,-37.5266 L 29.5365,-37.5734 L 29.3613,-37.6428 L 29.1963,-37.7335 L 29.0439,-37.8442
 L 28.9065,-37.9732 L 28.7865,-38.1183 L 28.6855,-38.2774 L 28.6053,-38.4478 L 28.5471,-38.627 L 28.5118,-38.812
 L 28.5,-39 L 28.5118,-39.188 L 28.5471,-39.373 L 28.6053,-39.5522 L 28.6855,-39.7226 L 28.7865,-39.8817
 L 28.9065,-40.0268 L 29.0439,-40.1558 L 29.1963,-40.2665 L 29.3613,-40.3572 L 29.5365,-40.4266 L 29.7189,-40.4734
 L 29.9058,-40.497 L 30.0942,-40.497 L 30.2811,-40.4734 L 30.4635,-40.4266 L 30.6387,-40.3572 L 30.8037,-40.2665
 L 30.9561,-40.1558 L 31.0934,-40.0268 L 31.2135,-39.8817 L 31.3145,-39.7226 L 31.3947,-39.5522 L 31.4529,-39.373
 L 31.4882,-39.188 L 31.5,-39 L 31.4882,-38.812 L 31.4529,-38.627 L 31.3947,-38.4478 L 31.3145,-38.2774
 L 31.2135,-38.1183 L 31.0934,-37.9732 L 30.9561,-37.8442 L 30.8037,-37.7335 L 30.6387,-37.6428 L 30.4635,-37.5734
 L 30.2811,-37.5266 L 30.0942,-37.503 z
M -30.0942,-37.503 L -30.2811,-37.5266 L -30.4635,-37.5734 L -30.6387,-37.6428 L -30.8037,-37.7335 L -30.9561,-37.8442
 L -31.0934,-37.9732 L -31.2135,-38.1183 L -31.3145,-38.2774 L -31.3947,-38.4478 L -31.4529,-38.627 L -31.4882,-38.812
 L -31.5,-39 L -31.4882,-39.188 L -31.4529,-39.373 L -31.3947,-39.5522 L -31.3145,-39.7226 L -31.2135,-39.8817
 L -31.0934,-40.0268 L -30.9561,-40.1558 L -30.8037,-40.2665 L -30.6387,-40.3572 L -30.4635,-40.4266 L -30.2811,-40.4734
 L -30.0942,-40.497 L -29.9058,-40.497 L -29.7189,-40.4734 L -29.5365,-40.4266 L -29.3613,-40.3572 L -29.1963,-40.2665
 L -29.0439,-40.1558 L -28.9065,-40.0268 L -28.7865,-39.8817 L -28.6855,-39.7226 L -28.6053,-39.5522 L -28.5471,-39.373
 L -28.5118,-39.188 L -28.5,-39 L -28.5118,-38.812 L -28.5471,-38.627 L -28.6053,-38.4478 L -28.6855,-38.2774
 L -28.7865,-38.1183 L -28.9065,-37.9732 L -29.0439,-37.8442 L -29.1963,-37.7335 L -29.3613,-37.6428 L -29.5365,-37.5734
 L -29.7189,-37.5266 L -29.9058,-37.503 z
M 14.8116,-28.5059 L 14.4379,-28.5531 L 14.0729,-28.6468 L 13.7227,-28.7855 L 13.3925,-28.967 L 13.0877,-29.1885
 L 12.8131,-29.4464 L 12.5729,-29.7366 L 12.3711,-30.0547 L 12.2107,-30.3956 L 12.0942,-30.7539 L 12.0237,-31.124
 L 12,-31.5 L 12.0237,-31.876 L 12.0942,-32.2461 L 12.2107,-32.6044 L 12.3711,-32.9453 L 12.5729,-33.2634
 L 12.8131,-33.5536 L 13.0877,-33.8116 L 13.3925,-34.033 L 13.7227,-34.2145 L 14.0729,-34.3532 L 14.4379,-34.4469
 L 14.8116,-34.4941 L 15.1884,-34.4941 L 15.5621,-34.4469 L 15.927,-34.3532 L 16.2773,-34.2145 L 16.6075,-34.033
 L 16.9123,-33.8116 L 17.1869,-33.5536 L 17.427,-33.2634 L 17.6289,-32.9453 L 17.7893,-32.6044 L 17.9057,-32.2461
 L 17.9763,-31.876 L 18,-31.5 L 17.9763,-31.124 L 17.9057,-30.7539 L 17.7893,-30.3956 L 17.6289,-30.0547
 L 17.427,-29.7366 L 17.1869,-29.4464 L 16.9123,-29.1885 L 16.6075,-28.967 L 16.2773,-28.7855 L 15.927,-28.6468
 L 15.5621,-28.5531 L 15.1884,-28.5059 z
M 29.8116,-28.5059 L 29.4379,-28.5531 L 29.0729,-28.6468 L 28.7227,-28.7855 L 28.3925,-28.967 L 28.0877,-29.1885
 L 27.8131,-29.4464 L 27.5729,-29.7366 L 27.3711,-30.0547 L 27.2107,-30.3956 L 27.0942,-30.7539 L 27.0237,-31.124
 L 27,-31.5 L 27.0237,-31.876 L 27.0942,-32.2461 L 27.2107,-32.6044 L 27.3711,-32.9453 L 27.5729,-33.2634
 L 27.8131,-33.5536 L 28.0877,-33.8116 L 28.3925,-34.033 L 28.7227,-34.2145 L 29.0729,-34.3532 L 29.4379,-34.4469
 L 29.8116,-34.4941 L 30.1884,-34.4941 L 30.5621,-34.4469 L 30.927,-34.3532 L 31.2773,-34.2145 L 31.6075,-34.033
 L 31.9123,-33.8116 L 32.1869,-33.5536 L 32.427,-33.2634 L 32.6289,-32.9453 L 32.7893,-32.6044 L 32.9057,-32.2461
 L 32.9763,-31.876 L 33,-31.5 L 32.9763,-31.124 L 32.9057,-30.7539 L 32.7893,-30.3956 L 32.6289,-30.0547
 L 32.427,-29.7366 L 32.1869,-29.4464 L 31.9123,-29.1885 L 31.6075,-28.967 L 31.2773,-28.7855 L 30.927,-28.6468
 L 30.5621,-28.5531 L 30.1884,-28.5059 z
M -15.1884,-28.5059 L -15.5621,-28.5531 L -15.927,-28.6468 L -16.2773,-28.7855 L -16.6075,-28.967 L -16.9123,-29.1885
 L -17.1869,-29.4464 L -17.427,-29.7366 L -17.6289,-30.0547 L -17.7893,-30.3956 L -17.9057,-30.7539 L -17.9763,-31.124
 L -18,-31.5 L -17.9763,-31.876 L -17.9057,-32.2461 L -17.7893,-32.6044 L -17.6289,-32.9453 L -17.427,-33.2634
 L -17.1869,-33.5536 L -16.9123,-33.8116 L -16.6075,-34.033 L -16.2773,-34.2145 L -15.927,-34.3532 L -15.5621,-34.4469
 L -15.1884,-34.4941 L -14.8116,-34.4941 L -14.4379,-34.4469 L -14.0729,-34.3532 L -13.7227,-34.2145 L -13.3925,-34.033
 L -13.0877,-33.8116 L -12.8131,-33.5536 L -12.5729,-33.2634 L -12.3711,-32.9453 L -12.2107,-32.6044 L -12.0942,-32.2461
 L -12.0237,-31.876 L -12,-31.5 L -12.0237,-31.124 L -12.0942,-30.7539 L -12.2107,-30.3956 L -12.3711,-30.0547
 L -12.5729,-29.7366 L -12.8131,-29.4464 L -13.0877,-29.1885 L -13.3925,-28.967 L -13.7227,-28.7855 L -14.0729,-28.6468
 L -14.4379,-28.5531 L -14.8116,-28.5059 z
M -30.1884,-28.5059 L -30.5621,-28.5531 L -30.927,-28.6468 L -31.2773,-28.7855 L -31.6075,-28.967 L -31.9123,-29.1885
 L -32.1869,-29.4464 L -32.427,-29.7366 L -32.6289,-30.0547 L -32.7893,-30.3956 L -32.9057,-30.7539 L -32.9763,-31.124
 L -33,-31.5 L -32.9763,-31.876 L -32.9057,-32.2461 L -32.7893,-32.6044 L -32.6289,-32.9453 L -32.427,-33.2634
 L -32.1869,-33.5536 L -31.9123,-33.8116 L -31.6075,-34.033 L -31.2773,-34.2145 L -30.927,-34.3532 L -30.5621,-34.4469
 L -30.1884,-34.4941 L -29.8116,-34.4941 L -29.4379,-34.4469 L -29.0729,-34.3532 L -28.7227,-34.2145 L -28.3925,-34.033
 L -28.0877,-33.8116 L -27.8131,-33.5536 L -27.5729,-33.2634 L -27.3711,-32.9453 L -27.2107,-32.6044 L -27.0942,-32.2461
 L -27.0237,-31.876 L -27,-31.5 L -27.0237,-31.124 L -27.0942,-30.7539 L -27.2107,-30.3956 L -27.3711,-30.0547
 L -27.5729,-29.7366 L -27.8131,-29.4464 L -28.0877,-29.1885 L -28.3925,-28.967 L -28.7227,-28.7855 L -29.0729,-28.6468
 L -29.4379,-28.5531 L -29.8116,-28.5059 z
M -0.18837,-28.5059 L -0.562134,-28.5531 L -0.927048,-28.6468 L -1.27733,-28.7855 L -1.60747,-28.967 L -1.91226,-29.1885
 L -2.1869,-29.4464 L -2.42705,-29.7366 L -2.62891,-30.0547 L -2.78932,-30.3956 L -2.90575,-30.7539 L -2.97633,-31.124
 L -3,-31.5 L -2.97633,-31.876 L -2.90575,-32.2461 L -2.78932,-32.6044 L -2.62891,-32.9453 L -2.42705,-33.2634
 L -2.1869,-33.5536 L -1.91226,-33.8116 L -1.60747,-34.033 L -1.27733,-34.2145 L -0.927048,-34.3532 L -0.562134,-34.4469
 L -0.18837,-34.4941 L 0.18837,-34.4941 L 0.562134,-34.4469 L 0.927048,-34.3532 L 1.27733,-34.2145 L 1.60747,-34.033
 L 1.91226,-33.8116 L 2.1869,-33.5536 L 2.42705,-33.2634 L 2.62891,-32.9453 L 2.78932,-32.6044 L 2.90575,-32.2461
 L 2.97633,-31.876 L 3,-31.5 L 2.97633,-31.124 L 2.90575,-30.7539 L 2.78932,-30.3956 L 2.62891,-30.0547
 L 2.42705,-29.7366 L 2.1869,-29.4464 L 1.91226,-29.1885 L 1.60747,-28.967 L 1.27733,-28.7855 L 0.927048,-28.6468
 L 0.562134,-28.5531 L 0.18837,-28.5059 z
M 22.4058,-30.003 L 22.2189,-30.0266 L 22.0365,-30.0734 L 21.8613,-30.1428 L 21.6963,-30.2335 L 21.5439,-30.3442
 L 21.4065,-30.4732 L 21.2865,-30.6183 L 21.1855,-30.7774 L 21.1053,-30.9478 L 21.0471,-31.127 L 21.0118,-31.312
 L 21,-31.5 L 21.0118,-31.688 L 21.0471,-31.873 L 21.1053,-32.0522 L 21.1855,-32.2226 L 21.2865,-32.3817
 L 21.4065,-32.5268 L 21.5439,-32.6558 L 21.6963,-32.7665 L 21.8613,-32.8573 L 22.0365,-32.9266 L 22.2189,-32.9734
 L 22.4058,-32.9971 L 22.5942,-32.9971 L 22.7811,-32.9734 L 22.9635,-32.9266 L 23.1387,-32.8573 L 23.3037,-32.7665
 L 23.4561,-32.6558 L 23.5934,-32.5268 L 23.7135,-32.3817 L 23.8145,-32.2226 L 23.8947,-32.0522 L 23.9529,-31.873
 L 23.9882,-31.688 L 24,-31.5 L 23.9882,-31.312 L 23.9529,-31.127 L 23.8947,-30.9478 L 23.8145,-30.7774
 L 23.7135,-30.6183 L 23.5934,-30.4732 L 23.4561,-30.3442 L 23.3037,-30.2335 L 23.1387,-30.1428 L 22.9635,-30.0734
 L 22.7811,-30.0266 L 22.5942,-30.003 z
M 7.40581,-30.003 L 7.21892,-30.0266 L 7.03647,-30.0734 L 6.86133,-30.1428 L 6.69626,-30.2335 L 6.54385,-30.3442
 L 6.40654,-30.4732 L 6.28647,-30.6183 L 6.18553,-30.7774 L 6.10533,-30.9478 L 6.04712,-31.127 L 6.01183,-31.312
 L 6,-31.5 L 6.01183,-31.688 L 6.04712,-31.873 L 6.10533,-32.0522 L 6.18553,-32.2226 L 6.28647,-32.3817
 L 6.40654,-32.5268 L 6.54385,-32.6558 L 6.69626,-32.7665 L 6.86133,-32.8573 L 7.03647,-32.9266 L 7.21892,-32.9734
 L 7.40581,-32.9971 L 7.59418,-32.9971 L 7.78107,-32.9734 L 7.96352,-32.9266 L 8.13866,-32.8573 L 8.30373,-32.7665
 L 8.45613,-32.6558 L 8.59344,-32.5268 L 8.71352,-32.3817 L 8.81445,-32.2226 L 8.89465,-32.0522 L 8.95287,-31.873
 L 8.98816,-31.688 L 9,-31.5 L 8.98816,-31.312 L 8.95287,-31.127 L 8.89465,-30.9478 L 8.81445,-30.7774
 L 8.71352,-30.6183 L 8.59344,-30.4732 L 8.45613,-30.3442 L 8.30373,-30.2335 L 8.13866,-30.1428 L 7.96352,-30.0734
 L 7.78107,-30.0266 L 7.59418,-30.003 z
M -7.59418,-30.003 L -7.78107,-30.0266 L -7.96352,-30.0734 L -8.13866,-30.1428 L -8.30373,-30.2335 L -8.45613,-30.3442
 L -8.59344,-30.4732 L -8.71352,-30.6183 L -8.81445,-30.7774 L -8.89465,-30.9478 L -8.95287,-31.127 L -8.98816,-31.312
 L -9,-31.5 L -8.98816,-31.688 L -8.95287,-31.873 L -8.89465,-32.0522 L -8.81445,-32.2226 L -8.71352,-32.3817
 L -8.59344,-32.5268 L -8.45613,-32.6558 L -8.30373,-32.7665 L -8.13866,-32.8573 L -7.96352,-32.9266 L -7.78107,-32.9734
 L -7.59418,-32.9971 L -7.40581,-32.9971 L -7.21892,-32.9734 L -7.03647,-32.9266 L -6.86133,-32.8573 L -6.69626,-32.7665
 L -6.54385,-32.6558 L -6.40654,-32.5268 L -6.28647,-32.3817 L -6.18553,-32.2226 L -6.10533,-32.0522 L -6.04712,-31.873
 L -6.01183,-31.688 L -6,-31.5 L -6.01183,-31.312 L -6.04712,-31.127 L -6.10533,-30.9478 L -6.18553,-30.7774
 L -6.28647,-30.6183 L -6.40654,-30.4732 L -6.54385,-30.3442 L -6.69626,-30.2335 L -6.86133,-30.1428 L -7.03647,-30.0734
 L -7.21892,-30.0266 L -7.40581,-30.003 z
M -22.5942,-30.003 L -22.7811,-30.0266 L -22.9635,-30.0734 L -23.1387,-30.1428 L -23.3037,-30.2335 L -23.4561,-30.3442
 L -23.5934,-30.4732 L -23.7135,-30.6183 L -23.8145,-30.7774 L -23.8947,-30.9478 L -23.9529,-31.127 L -23.9882,-31.312
 L -24,-31.5 L -23.9882,-31.688 L -23.9529,-31.873 L -23.8947,-32.0522 L -23.8145,-32.2226 L -23.7135,-32.3817
 L -23.5934,-32.5268 L -23.4561,-32.6558 L -23.3037,-32.7665 L -23.1387,-32.8573 L -22.9635,-32.9266 L -22.7811,-32.9734
 L -22.5942,-32.9971 L -22.4058,-32.9971 L -22.2189,-32.9734 L -22.0365,-32.9266 L -21.8613,-32.8573 L -21.6963,-32.7665
 L -21.5439,-32.6558 L -21.4065,-32.5268 L -21.2865,-32.3817 L -21.1855,-32.2226 L -21.1053,-32.0522 L -21.0471,-31.873
 L -21.0118,-31.688 L -21,-31.5 L -21.0118,-31.312 L -21.0471,-31.127 L -21.1053,-30.9478 L -21.1855,-30.7774
 L -21.2865,-30.6183 L -21.4065,-30.4732 L -21.5439,-30.3442 L -21.6963,-30.2335 L -21.8613,-30.1428 L -22.0365,-30.0734
 L -22.2189,-30.0266 L -22.4058,-30.003 z
" stroke="black" fill="lightgray" stroke-width="0.5"/>
</svg>
