<?xml version="1.0" standalone="no"?>
<!DOCTYPE svg PUBLIC "-//W3C//DTD SVG 1.1//EN" "http://www.w3.org/Graphics/SVG/1.1/DTD/svg11.dtd">
<svg width="330mm" height="90mm" viewBox="-165 -45 330 90" xmlns="http://www.w3.org/2000/svg" version="1.1">
<title>OpenSCAD Model</title>
<path d="
M 160.437,44.4114 L 161.045,44.2553 L 161.629,44.0241 L 162.179,43.7216 L 162.687,43.3526 L 163.145,42.9227
 L 163.545,42.4389 L 163.882,41.9088 L 164.149,41.3406 L 164.343,40.7434 L 164.461,40.1267 L 164.5,39.5
 L 164.5,-39.5 L 164.461,-40.1267 L 164.343,-40.7434 L 164.149,-41.3406 L 163.882,-41.9088 L 163.545,-42.4389
 L 163.145,-42.9227 L 162.687,-43.3526 L 162.179,-43.7216 L 161.629,-44.0241 L 161.045,-44.2553 L 160.437,-44.4114
 L 159.814,-44.4901 L -159.814,-44.4901 L -160.437,-44.4114 L -161.045,-44.2553 L -161.629,-44.0241 L -162.179,-43.7216
 L -162.687,-43.3526 L -163.145,-42.9227 L -163.545,-42.4389 L -163.882,-41.9088 L -164.149,-41.3406 L -164.343,-40.7434
 L -164.461,-40.1267 L -164.5,-39.5 L -164.5,39.5 L -164.461,40.1267 L -164.343,40.7434 L -164.149,41.3406
 L -163.882,41.9088 L -163.545,42.4389 L -163.145,42.9227 L -162.687,43.3526 L -162.179,43.7216 L -161.629,44.0241
 L -161.045,44.2553 L -160.437,44.4114 L -159.814,44.4901 L 159.814,44.4901 z
M -157.688,-34.5059 L -158.062,-34.5531 L -158.427,-34.6468 L -158.777,-34.7855 L -159.107,-34.967 L -159.412,-35.1885
 L -159.687,-35.4464 L -159.927,-35.7366 L -160.129,-36.0547 L -160.289,-36.3956 L -160.406,-36.7539 L -160.476,-37.124
 L -160.5,-37.5 L -160.476,-37.876 L -160.406,-38.2461 L -160.289,-38.6044 L -160.129,-38.9453 L -159.927,-39.2634
 L -159.687,-39.5536 L -159.412,-39.8115 L -159.107,-40.033 L -158.777,-40.2145 L -158.427,-40.3532 L -158.062,-40.4469
 L -157.688,-40.4941 L -157.312,-40.4941 L -156.938,-40.4469 L -156.573,-40.3532 L -156.223,-40.2145 L -155.893,-40.033
 L -155.588,-39.8115 L -155.313,-39.5536 L -155.073,-39.2634 L -154.871,-38.9453 L -154.711,-38.6044 L -154.594,-38.2461
 L -154.524,-37.876 L -154.5,-37.5 L -154.524,-37.124 L -154.594,-36.7539 L -154.711,-36.3956 L -154.871,-36.0547
 L -155.073,-35.7366 L -155.313,-35.4464 L -155.588,-35.1885 L -155.893,-34.967 L -156.223,-34.7855 L -156.573,-34.6468
 L -156.938,-34.5531 L -157.312,-34.5059 z
M 157.312,-34.5059 L 156.938,-34.5531 L 156.573,-34.6468 L 156.223,-34.7855 L 155.893,-34.967 L 155.588,-35.1885
 L 155.313,-35.4464 L 155.073,-35.7366 L 154.871,-36.0547 L 154.711,-36.3956 L 154.594,-36.7539 L 154.524,-37.124
 L 154.5,-37.5 L 154.524,-37.876 L 154.594,-38.2461 L 154.711,-38.6044 L 154.871,-38.9453 L 155.073,-39.2634
 L 155.313,-39.5536 L 155.588,-39.8115 L 155.893,-40.033 L 156.223,-40.2145 L 156.573,-40.3532 L 156.938,-40.4469
 L 157.312,-40.4941 L 157.688,-40.4941 L 158.062,-40.4469 L 158.427,-40.3532 L 158.777,-40.2145 L 159.107,-40.033
 L 159.412,-39.8115 L 159.687,-39.5536 L 159.927,-39.2634 L 160.129,-38.9453 L 160.289,-38.6044 L 160.406,-38.2461
 L 160.476,-37.876 L 160.5,-37.5 L 160.476,-37.124 L 160.406,-36.7539 L 160.289,-36.3956 L 160.129,-36.0547
 L 159.927,-35.7366 L 159.687,-35.4464 L 159.412,-35.1885 L 159.107,-34.967 L 158.777,-34.7855 L 158.427,-34.6468
 L 158.062,-34.5531 L 157.688,-34.5059 z
M -40.7605,35.929 L -45.2457,35.3623 L -49.6246,34.238 L -53.828,32.5738 L -57.7898,30.3958 L -61.4473,27.7385
 L -64.7429,24.6437 L -67.6246,21.1603 L -70.047,17.3431 L -71.972,13.2525 L -73.369,8.95284 L -74.2161,4.51199
 L -74.5,-0 L -74.2161,-4.51199 L -73.369,-8.95284 L -71.972,-13.2525 L -70.047,-17.3431 L -67.6246,-21.1603
 L -64.7429,-24.6437 L -61.4473,-27.7385 L -57.7898,-30.3958 L -53.828,-32.5738 L -49.6246,-34.238 L -45.2457,-35.3623
 L -40.7605,-35.929 L -36.2395,-35.929 L -31.7543,-35.3623 L -27.3754,-34.238 L -23.1719,-32.5738 L -19.2102,-30.3958
 L -15.5527,-27.7385 L -12.2571,-24.6437 L -9.37538,-21.1603 L -6.95296,-17.3431 L -5.02805,-13.2525 L -3.631,-8.95284
 L -2.78386,-4.51199 L -2.5,-0 L -2.78386,4.51199 L -3.631,8.95284 L -5.02805,13.2525 L -6.95296,17.3431
 L -9.37538,21.1603 L -12.2571,24.6437 L -15.5527,27.7385 L -19.2102,30.3958 L -23.1719,32.5738 L -27.3754,34.238
 L -31.7543,35.3623 L -36.2395,35.929 z
M -117.76,35.929 L -122.246,35.3623 L -126.625,34.238 L -130.828,32.5738 L -134.79,30.3958 L -138.447,27.7385
 L -141.743,24.6437 L -144.625,21.1603 L -147.047,17.3431 L -148.972,13.2525 L -150.369,8.95284 L -151.216,4.51199
 L -151.5,-0 L -151.216,-4.51199 L -150.369,-8.95284 L -148.972,-13.2525 L -147.047,-17.3431 L -144.625,-21.1603
 L -141.743,-24.6437 L -138.447,-27.7385 L -134.79,-30.3958 L -130.828,-32.5738 L -126.625,-34.238 L -122.246,-35.3623
 L -117.76,-35.929 L -113.24,-35.929 L -108.754,-35.3623 L -104.375,-34.238 L -100.172,-32.5738 L -96.2102,-30.3958
 L -92.5527,-27.7385 L -89.2571,-24.6437 L -86.3754,-21.1603 L -83.953,-17.3431 L -82.028,-13.2525 L -80.631,-8.95284
 L -79.7839,-4.51199 L -79.5,-0 L -79.7839,4.51199 L -80.631,8.95284 L -82.028,13.2525 L -83.953,17.3431
 L -86.3754,21.1603 L -89.2571,24.6437 L -92.5527,27.7385 L -96.2102,30.3958 L -100.172,32.5738 L -104.375,34.238
 L -108.754,35.3623 L -113.24,35.929 z
M 36.2395,35.929 L 31.7543,35.3623 L 27.3754,34.238 L 23.1719,32.5738 L 19.2102,30.3958 L 15.5527,27.7385
 L 12.2571,24.6437 L 9.37538,21.1603 L 6.95296,17.3431 L 5.02805,13.2525 L 3.631,8.95284 L 2.78386,4.51199
 L 2.5,-0 L 2.78386,-4.51199 L 3.631,-8.95284 L 5.02805,-13.2525 L 6.95296,-17.3431 L 9.37538,-21.1603
 L 12.2571,-24.6437 L 15.5527,-27.7385 L 19.2102,-30.3958 L 23.1719,-32.5738 L 27.3754,-34.238 L 31.7543,-35.3623
 L 36.2395,-35.929 L 40.7605,-35.929 L 45.2457,-35.3623 L 49.6246,-34.238 L 53.828,-32.5738 L 57.7898,-30.3958
 L 61.4473,-27.7385 L 64.7429,-24.6437 L 67.6246,-21.1603 L 70.047,-17.3431 L 71.972,-13.2525 L 73.369,-8.95284
 L 74.2161,-4.51199 L 74.5,-0 L 74.2161,4.51199 L 73.369,8.95284 L 71.972,13.2525 L 70.047,17.3431
 L 67.6246,21.1603 L 64.7429,24.6437 L 61.4473,27.7385 L 57.7898,30.3958 L 53.828,32.5738 L 49.6246,34.238
 L 45.2457,35.3623 L 40.7605,35.929 z
M 113.24,35.929 L 108.754,35.3623 L 104.375,34.238 L 100.172,32.5738 L 96.2102,30.3958 L 92.5527,27.7385
 L 89.2571,24.6437 L 86.3754,21.1603 L 83.953,17.3431 L 82.028,13.2525 L 80.631,8.95284 L 79.7839,4.51199
 L 79.5,-0 L 79.7839,-4.51199 L 80.631,-8.95284 L 82.028,-13.2525 L 83.953,-17.3431 L 86.3754,-21.1603
 L 89.2571,-24.6437 L 92.5527,-27.7385 L 96.2102,-30.3958 L 100.172,-32.5738 L 104.375,-34.238 L 108.754,-35.3623
 L 113.24,-35.929 L 117.76,-35.929 L 122.246,-35.3623 L 126.625,-34.238 L 130.828,-32.5738 L 134.79,-30.3958
 L 138.447,-27.7385 L 141.743,-24.6437 L 144.625,-21.1603 L 147.047,-17.3431 L 148.972,-13.2525 L 150.369,-8.95284
 L 151.216,-4.51199 L 151.5,-0 L 151.216,4.51199 L 150.369,8.95284 L 148.972,13.2525 L 147.047,17.3431
 L 144.625,21.1603 L 141.743,24.6437 L 138.447,27.7385 L 134.79,30.3958 L 130.828,32.5738 L 126.625,34.238
 L 122.246,35.3623 L 117.76,35.929 z
M -157.594,-28.503 L -157.781,-28.5266 L -157.964,-28.5734 L -158.139,-28.6427 L -158.304,-28.7335 L -158.456,-28.8442
 L -158.593,-28.9732 L -158.714,-29.1183 L -158.814,-29.2774 L -158.895,-29.4478 L -158.953,-29.627 L -158.988,-29.812
 L -159,-30 L -158.988,-30.188 L -158.953,-30.373 L -158.895,-30.5522 L -158.814,-30.7226 L -158.714,-30.8817
 L -158.593,-31.0268 L -158.456,-31.1558 L -158.304,-31.2665 L -158.139,-31.3572 L -157.964,-31.4266 L -157.781,-31.4734
 L -157.594,-31.497 L -157.406,-31.497 L -157.219,-31.4734 L -157.036,-31.4266 L -156.861,-31.3572 L -156.696,-31.2665
 L -156.544,-31.1558 L -156.407,-31.0268 L -156.286,-30.8817 L -156.186,-30.7226 L -156.105,-30.5522 L -156.047,-30.373
 L -156.012,-30.188 L -156,-30 L -156.012,-29.812 L -156.047,-29.627 L -156.105,-29.4478 L -156.186,-29.2774
 L -156.286,-29.1183 L -156.407,-28.9732 L -156.544,-28.8442 L -156.696,-28.7335 L -156.861,-28.6427 L -157.036,-28.5734
 L -157.219,-28.5266 L -157.406,-28.503 z
M 157.406,-28.503 L 157.219,-28.5266 L 157.036,-28.5734 L 156.861,-28.6427 L 156.696,-28.7335 L 156.544,-28.8442
 L 156.407,-28.9732 L 156.286,-29.1183 L 156.186,-29.2774 L 156.105,-29.4478 L 156.047,-29.627 L 156.012,-29.812
 L 156,-30 L 156.012,-30.188 L 156.047,-30.373 L 156.105,-30.5522 L 156.186,-30.7226 L 156.286,-30.8817
 L 156.407,-31.0268 L 156.544,-31.1558 L 156.696,-31.2665 L 156.861,-31.3572 L 157.036,-31.4266 L 157.219,-31.4734
 L 157.406,-31.497 L 157.594,-31.497 L 157.781,-31.4734 L 157.964,-31.4266 L 158.139,-31.3572 L 158.304,-31.2665
 L 158.456,-31.1558 L 158.593,-31.0268 L 158.714,-30.8817 L 158.814,-30.7226 L 158.895,-30.5522 L 158.953,-30.373
 L 158.988,-30.188 L 159,-30 L 158.988,-29.812 L 158.953,-29.627 L 158.895,-29.4478 L 158.814,-29.2774
 L 158.714,-29.1183 L 158.593,-28.9732 L 158.456,-28.8442 L 158.304,-28.7335 L 158.139,-28.6427 L 157.964,-28.5734
 L 157.781,-28.5266 L 157.594,-28.503 z
M -157.688,-19.5059 L -158.062,-19.5531 L -158.427,-19.6468 L -158.777,-19.7855 L -159.107,-19.967 L -159.412,-20.1884
 L -159.687,-20.4464 L -159.927,-20.7366 L -160.129,-21.0547 L -160.289,-21.3956 L -160.406,-21.7539 L -160.476,-22.124
 L -160.5,-22.5 L -160.476,-22.876 L -160.406,-23.2461 L -160.289,-23.6044 L -160.129,-23.9453 L -159.927,-24.2634
 L -159.687,-24.5536 L -159.412,-24.8115 L -159.107,-25.033 L -158.777,-25.2145 L -158.427,-25.3532 L -158.062,-25.4469
 L -157.688,-25.4941 L -157.312,-25.4941 L -156.938,-25.4469 L -156.573,-25.3532 L -156.223,-25.2145 L -155.893,-25.033
 L -155.588,-24.8115 L -155.313,-24.5536 L -155.073,-24.2634 L -154.871,-23.9453 L -154.711,-23.6044 L -154.594,-23.2461
 L -154.524,-22.876 L -154.5,-22.5 L -154.524,-22.124 L -154.594,-21.7539 L -154.711,-21.3956 L -154.871,-21.0547
 L -155.073,-20.7366 L -155.313,-20.4464 L -155.588,-20.1884 L -155.893,-19.967 L -156.223,-19.7855 L -156.573,-19.6468
 L -156.938,-19.5531 L -157.312,-19.5059 z
M 157.312,-19.5059 L 156.938,-19.5531 L 156.573,-19.6468 L 156.223,-19.7855 L 155.893,-19.967 L 155.588,-20.1884
 L 155.313,-20.4464 L 155.073,-20.7366 L 154.871,-21.0547 L 154.711,-21.3956 L 154.594,-21.7539 L 154.524,-22.124
 L 154.5,-22.5 L 154.524,-22.876 L 154.594,-23.2461 L 154.711,-23.6044 L 154.871,-23.9453 L 155.073,-24.2634
 L 155.313,-24.5536 L 155.588,-24.8115 L 155.893,-25.033 L 156.223,-25.2145 L 156.573,-25.3532 L 156.938,-25.4469
 L 157.312,-25.4941 L 157.688,-25.4941 L 158.062,-25.4469 L 158.427,-25.3532 L 158.777,-25.2145 L 159.107,-25.033
 L 159.412,-24.8115 L 159.687,-24.5536 L 159.927,-24.2634 L 160.129,-23.9453 L 160.289,-23.6044 L 160.406,-23.2461
 L 160.476,-22.876 L 160.5,-22.5 L 160.476,-22.124 L 160.406,-21.7539 L 160.289,-21.3956 L 160.129,-21.0547
 L 159.927,-20.7366 L 159.687,-20.4464 L 159.412,-20.1884 L 159.107,-19.967 L 158.777,-19.7855 L 158.427,-19.6468
 L 158.062,-19.5531 L 157.688,-19.5059 z
M -157.594,-13.5029 L -157.781,-13.5266 L -157.964,-13.5734 L -158.139,-13.6427 L -158.304,-13.7335 L -158.456,-13.8442
 L -158.593,-13.9732 L -158.714,-14.1183 L -158.814,-14.2774 L -158.895,-14.4478 L -158.953,-14.627 L -158.988,-14.812
 L -159,-15 L -158.988,-15.188 L -158.953,-15.373 L -158.895,-15.5522 L -158.814,-15.7226 L -158.714,-15.8817
 L -158.593,-16.0268 L -158.456,-16.1558 L -158.304,-16.2665 L -158.139,-16.3572 L -157.964,-16.4266 L -157.781,-16.4734
 L -157.594,-16.497 L -157.406,-16.497 L -157.219,-16.4734 L -157.036,-16.4266 L -156.861,-16.3572 L -156.696,-16.2665
 L -156.544,-16.1558 L -156.407,-16.0268 L -156.286,-15.8817 L -156.186,-15.7226 L -156.105,-15.5522 L -156.047,-15.373
 L -156.012,-15.188 L -156,-15 L -156.012,-14.812 L -156.047,-14.627 L -156.105,-14.4478 L -156.186,-14.2774
 L -156.286,-14.1183 L -156.407,-13.9732 L -156.544,-13.8442 L -156.696,-13.7335 L -156.861,-13.6427 L -157.036,-13.5734
 L -157.219,-13.5266 L -157.406,-13.5029 z
M 157.406,-13.5029 L 157.219,-13.5266 L 157.036,-13.5734 L 156.861,-13.6427 L 156.696,-13.7335 L 156.544,-13.8442
 L 156.407,-13.9732 L 156.286,-14.1183 L 156.186,-14.2774 L 156.105,-14.4478 L 156.047,-14.627 L 156.012,-14.812
 L 156,-15 L 156.012,-15.188 L 156.047,-15.373 L 156.105,-15.5522 L 156.186,-15.7226 L 156.286,-15.8817
 L 156.407,-16.0268 L 156.544,-16.1558 L 156.696,-16.2665 L 156.861,-16.3572 L 157.036,-16.4266 L 157.219,-16.4734
 L 157.406,-16.497 L 157.594,-16.497 L 157.781,-16.4734 L 157.964,-16.4266 L 158.139,-16.3572 L 158.304,-16.2665
 L 158.456,-16.1558 L 158.593,-16.0268 L 158.714,-15.8817 L 158.814,-15.7226 L 158.895,-15.5522 L 158.953,-15.373
 L 158.988,-15.188 L 159,-15 L 158.988,-14.812 L 158.953,-14.627 L 158.895,-14.4478 L 158.814,-14.2774
 L 158.714,-14.1183 L 158.593,-13.9732 L 158.456,-13.8442 L 158.304,-13.7335 L 158.139,-13.6427 L 157.964,-13.5734
 L 157.781,-13.5266 L 157.594,-13.5029 z
M 157.312,-4.50591 L 156.938,-4.55313 L 156.573,-4.64682 L 156.223,-4.78551 L 155.893,-4.96701 L 155.588,-5.18845
 L 155.313,-5.44635 L 155.073,-5.73663 L 154.871,-6.05473 L 154.711,-6.39561 L 154.594,-6.75392 L 154.524,-7.12399
 L 154.5,-7.5 L 154.524,-7.87599 L 154.594,-8.24606 L 154.711,-8.60437 L 154.871,-8.94525 L 155.073,-9.26335
 L 155.313,-9.55363 L 155.588,-9.81154 L 155.893,-10.033 L 156.223,-10.2145 L 156.573,-10.3532 L 156.938,-10.4469
 L 157.312,-10.4941 L 157.688,-10.4941 L 158.062,-10.4469 L 158.427,-10.3532 L 158.777,-10.2145 L 159.107,-10.033
 L 159.412,-9.81154 L 159.687,-9.55363 L 159.927,-9.26335 L 160.129,-8.94525 L 160.289,-8.60437 L 160.406,-8.24606
 L 160.476,-7.87599 L 160.5,-7.5 L 160.476,-7.12399 L 160.406,-6.75392 L 160.289,-6.39561 L 160.129,-6.05473
 L 159.927,-5.73663 L 159.687,-5.44635 L 159.412,-5.18845 L 159.107,-4.96701 L 158.777,-4.78551 L 158.427,-4.64682
 L 158.062,-4.55313 L 157.688,-4.50591 z
M -157.688,-4.50591 L -158.062,-4.55313 L -158.427,-4.64682 L -158.777,-4.78551 L -159.107,-4.96701 L -159.412,-5.18845
 L -159.687,-5.44635 L -159.927,-5.73663 L -160.129,-6.05473 L -160.289,-6.39561 L -160.406,-6.75392 L -160.476,-7.12399
 L -160.5,-7.5 L -160.476,-7.87599 L -160.406,-8.24606 L -160.289,-8.60437 L -160.129,-8.94525 L -159.927,-9.26335
 L -159.687,-9.55363 L -159.412,-9.81154 L -159.107,-10.033 L -158.777,-10.2145 L -158.427,-10.3532 L -158.062,-10.4469
 L -157.688,-10.4941 L -157.312,-10.4941 L -156.938,-10.4469 L -156.573,-10.3532 L -156.223,-10.2145 L -155.893,-10.033
 L -155.588,-9.81154 L -155.313,-9.55363 L -155.073,-9.26335 L -154.871,-8.94525 L -154.711,-8.60437 L -154.594,-8.24606
 L -154.524,-7.87599 L -154.5,-7.5 L -154.524,-7.12399 L -154.594,-6.75392 L -154.711,-6.39561 L -154.871,-6.05473
 L -155.073,-5.73663 L -155.313,-5.44635 L -155.588,-5.18845 L -155.893,-4.96701 L -156.223,-4.78551 L -156.573,-4.64682
 L -156.938,-4.55313 L -157.312,-4.50591 z
M -157.594,1.49704 L -157.781,1.47342 L -157.964,1.42657 L -158.139,1.35724 L -158.304,1.26648 L -158.456,1.15576
 L -158.593,1.02681 L -158.714,0.881668 L -158.814,0.722626 L -158.895,0.552185 L -158.953,0.373032 L -158.988,0.187988
 L -159,-0 L -158.988,-0.187988 L -158.953,-0.373032 L -158.895,-0.552185 L -158.814,-0.722626 L -158.714,-0.881668
 L -158.593,-1.02681 L -158.456,-1.15576 L -158.304,-1.26648 L -158.139,-1.35724 L -157.964,-1.42657 L -157.781,-1.47342
 L -157.594,-1.49704 L -157.406,-1.49704 L -157.219,-1.47342 L -157.036,-1.42657 L -156.861,-1.35724 L -156.696,-1.26648
 L -156.544,-1.15576 L -156.407,-1.02681 L -156.286,-0.881668 L -156.186,-0.722626 L -156.105,-0.552185 L -156.047,-0.373032
 L -156.012,-0.187988 L -156,-0 L -156.012,0.187988 L -156.047,0.373032 L -156.105,0.552185 L -156.186,0.722626
 L -156.286,0.881668 L -156.407,1.02681 L -156.544,1.15576 L -156.696,1.26648 L -156.861,1.35724 L -157.036,1.42657
 L -157.219,1.47342 L -157.406,1.49704 z
M 157.406,1.49704 L 157.219,1.47342 L 157.036,1.42657 L 156.861,1.35724 L 156.696,1.26648 L 156.544,1.15576
 L 156.407,1.02681 L 156.286,0.881668 L 156.186,0.722626 L 156.105,0.552185 L 156.047,0.373032 L 156.012,0.187988
 L 156,-0 L 156.012,-0.187988 L 156.047,-0.373032 L 156.105,-0.552185 L 156.186,-0.722626 L 156.286,-0.881668
 L 156.407,-1.02681 L 156.544,-1.15576 L 156.696,-1.26648 L 156.861,-1.35724 L 157.036,-1.42657 L 157.219,-1.47342
 L 157.406,-1.49704 L 157.594,-1.49704 L 157.781,-1.47342 L 157.964,-1.42657 L 158.139,-1.35724 L 158.304,-1.26648
 L 158.456,-1.15576 L 158.593,-1.02681 L 158.714,-0.881668 L 158.814,-0.722626 L 158.895,-0.552185 L 158.953,-0.373032
 L 158.988,-0.187988 L 159,-0 L 158.988,0.187988 L 158.953,0.373032 L 158.895,0.552185 L 158.814,0.722626
 L 158.714,0.881668 L 158.593,1.02681 L 158.456,1.15576 L 158.304,1.26648 L 158.139,1.35724 L 157.964,1.42657
 L 157.781,1.47342 L 157.594,1.49704 z
M 157.312,10.4941 L 156.938,10.4469 L 156.573,10.3532 L 156.223,10.2145 L 155.893,10.033 L 155.588,9.81154
 L 155.313,9.55363 L 155.073,9.26335 L 154.871,8.94525 L 154.711,8.60437 L 154.594,8.24606 L 154.524,7.87599
 L 154.5,7.5 L 154.524,7.12399 L 154.594,6.75392 L 154.711,6.39561 L 154.871,6.05473 L 155.073,5.73663
 L 155.313,5.44635 L 155.588,5.18845 L 155.893,4.96701 L 156.223,4.78551 L 156.573,4.64682 L 156.938,4.55313
 L 157.312,4.50591 L 157.688,4.50591 L 158.062,4.55313 L 158.427,4.64682 L 158.777,4.78551 L 159.107,4.96701
 L 159.412,5.18845 L 159.687,5.44635 L 159.927,5.73663 L 160.129,6.05473 L 160.289,6.39561 L 160.406,6.75392
 L 160.476,7.12399 L 160.5,7.5 L 160.476,7.87599 L 160.406,8.24606 L 160.289,8.60437 L 160.129,8.94525
 L 159.927,9.26335 L 159.687,9.55363 L 159.412,9.81154 L 159.107,10.033 L 158.777,10.2145 L 158.427,10.3532
 L 158.062,10.4469 L 157.688,10.4941 z
M -157.688,10.4941 L -158.062,10.4469 L -158.427,10.3532 L -158.777,10.2145 L -159.107,10.033 L -159.412,9.81154
 L -159.687,9.55363 L -159.927,9.26335 L -160.129,8.94525 L -160.289,8.60437 L -160.406,8.24606 L -160.476,7.87599
 L -160.5,7.5 L -160.476,7.12399 L -160.406,6.75392 L -160.289,6.39561 L -160.129,6.05473 L -159.927,5.73663
 L -159.687,5.44635 L -159.412,5.18845 L -159.107,4.96701 L -158.777,4.78551 L -158.427,4.64682 L -158.062,4.55313
 L -157.688,4.50591 L -157.312,4.50591 L -156.938,4.55313 L -156.573,4.64682 L -156.223,4.78551 L -155.893,4.96701
 L -155.588,5.18845 L -155.313,5.44635 L -155.073,5.73663 L -154.871,6.05473 L -154.711,6.39561 L -154.594,6.75392
 L -154.524,7.12399 L -154.5,7.5 L -154.524,7.87599 L -154.594,8.24606 L -154.711,8.60437 L -154.871,8.94525
 L -155.073,9.26335 L -155.313,9.55363 L -155.588,9.81154 L -155.893,10.033 L -156.223,10.2145 L -156.573,10.3532
 L -156.938,10.4469 L -157.312,10.4941 z
M 157.406,16.497 L 157.219,16.4734 L 157.036,16.4266 L 156.861,16.3572 L 156.696,16.2665 L 156.544,16.1558
 L 156.407,16.0268 L 156.286,15.8817 L 156.186,15.7226 L 156.105,15.5522 L 156.047,15.373 L 156.012,15.188
 L 156,15 L 156.012,14.812 L 156.047,14.627 L 156.105,14.4478 L 156.186,14.2774 L 156.286,14.1183
 L 156.407,13.9732 L 156.544,13.8442 L 156.696,13.7335 L 156.861,13.6427 L 157.036,13.5734 L 157.219,13.5266
 L 157.406,13.5029 L 157.594,13.5029 L 157.781,13.5266 L 157.964,13.5734 L 158.139,13.6427 L 158.304,13.7335
 L 158.456,13.8442 L 158.593,13.9732 L 158.714,14.1183 L 158.814,14.2774 L 158.895,14.4478 L 158.953,14.627
 L 158.988,14.812 L 159,15 L 158.988,15.188 L 158.953,15.373 L 158.895,15.5522 L 158.814,15.7226
 L 158.714,15.8817 L 158.593,16.0268 L 158.456,16.1558 L 158.304,16.2665 L 158.139,16.3572 L 157.964,16.4266
 L 157.781,16.4734 L 157.594,16.497 z
M -157.594,16.497 L -157.781,16.4734 L -157.964,16.4266 L -158.139,16.3572 L -158.304,16.2665 L -158.456,16.1558
 L -158.593,16.0268 L -158.714,15.8817 L -158.814,15.7226 L -158.895,15.5522 L -158.953,15.373 L -158.988,15.188
 L -159,15 L -158.988,14.812 L -158.953,14.627 L -158.895,14.4478 L -158.814,14.2774 L -158.714,14.1183
 L -158.593,13.9732 L -158.456,13.8442 L -158.304,13.7335 L -158.139,13.6427 L -157.964,13.5734 L -157.781,13.5266
 L -157.594,13.5029 L -157.406,13.5029 L -157.219,13.5266 L -157.036,13.5734 L -156.861,13.6427 L -156.696,13.7335
 L -156.544,13.8442 L -156.407,13.9732 L -156.286,14.1183 L -156.186,14.2774 L -156.105,14.4478 L -156.047,14.627
 L -156.012,14.812 L -156,15 L -156.012,15.188 L -156.047,15.373 L -156.105,15.5522 L -156.186,15.7226
 L -156.286,15.8817 L -156.407,16.0268 L -156.544,16.1558 L -156.696,16.2665 L -156.861,16.3572 L -157.036,16.4266
 L -157.219,16.4734 L -157.406,16.497 z
M -157.688,25.4941 L -158.062,25.4469 L -158.427,25.3532 L -158.777,25.2145 L -159.107,25.033 L -159.412,24.8115
 L -159.687,24.5536 L -159.927,24.2634 L -160.129,23.9453 L -160.289,23.6044 L -160.406,23.2461 L -160.476,22.876
 L -160.5,22.5 L -160.476,22.124 L -160.406,21.7539 L -160.289,21.3956 L -160.129,21.0547 L -159.927,20.7366
 L -159.687,20.4464 L -159.412,20.1884 L -159.107,19.967 L -158.777,19.7855 L -158.427,19.6468 L -158.062,19.5531
 L -157.688,19.5059 L -157.312,19.5059 L -156.938,19.5531 L -156.573,19.6468 L -156.223,19.7855 L -155.893,19.967
 L -155.588,20.1884 L -155.313,20.4464 L -155.073,20.7366 L -154.871,21.0547 L -154.711,21.3956 L -154.594,21.7539
 L -154.524,22.124 L -154.5,22.5 L -154.524,22.876 L -154.594,23.2461 L -154.711,23.6044 L -154.871,23.9453
 L -155.073,24.2634 L -155.313,24.5536 L -155.588,24.8115 L -155.893,25.033 L -156.223,25.2145 L -156.573,25.3532
 L -156.938,25.4469 L -157.312,25.4941 z
M 157.312,25.4941 L 156.938,25.4469 L 156.573,25.3532 L 156.223,25.2145 L 155.893,25.033 L 155.588,24.8115
 L 155.313,24.5536 L 155.073,24.2634 L 154.871,23.9453 L 154.711,23.6044 L 154.594,23.2461 L 154.524,22.876
 L 154.5,22.5 L 154.524,22.124 L 154.594,21.7539 L 154.711,21.3956 L 154.871,21.0547 L 155.073,20.7366
 L 155.313,20.4464 L 155.588,20.1884 L 155.893,19.967 L 156.223,19.7855 L 156.573,19.6468 L 156.938,19.5531
 L 157.312,19.5059 L 157.688,19.5059 L 158.062,19.5531 L 158.427,19.6468 L 158.777,19.7855 L 159.107,19.967
 L 159.412,20.1884 L 159.687,20.4464 L 159.927,20.7366 L 160.129,21.0547 L 160.289,21.3956 L 160.406,21.7539
 L 160.476,22.124 L 160.5,22.5 L 160.476,22.876 L 160.406,23.2461 L 160.289,23.6044 L 160.129,23.9453
 L 159.927,24.2634 L 159.687,24.5536 L 159.412,24.8115 L 159.107,25.033 L 158.777,25.2145 L 158.427,25.3532
 L 158.062,25.4469 L 157.688,25.4941 z
M 157.406,31.497 L 157.219,31.4734 L 157.036,31.4266 L 156.861,31.3572 L 156.696,31.2665 L 156.544,31.1558
 L 156.407,31.0268 L 156.286,30.8817 L 156.186,30.7226 L 156.105,30.5522 L 156.047,30.373 L 156.012,30.188
 L 156,30 L 156.012,29.812 L 156.047,29.627 L 156.105,29.4478 L 156.186,29.2774 L 156.286,29.1183
 L 156.407,28.9732 L 156.544,28.8442 L 156.696,28.7335 L 156.861,28.6427 L 157.036,28.5734 L 157.219,28.5266
 L 157.406,28.503 L 157.594,28.503 L 157.781,28.5266 L 157.964,28.5734 L 158.139,28.6427 L 158.304,28.7335
 L 158.456,28.8442 L 158.593,28.9732 L 158.714,29.1183 L 158.814,29.2774 L 158.895,29.4478 L 158.953,29.627
 L 158.988,29.812 L 159,30 L 158.988,30.188 L 158.953,30.373 L 158.895,30.5522 L 158.814,30.7226
 L 158.714,30.8817 L 158.593,31.0268 L 158.456,31.1558 L 158.304,31.2665 L 158.139,31.3572 L 157.964,31.4266
 L 157.781,31.4734 L 157.594,31.497 z
M -157.594,31.497 L -157.781,31.4734 L -157.964,31.4266 L -158.139,31.3572 L -158.304,31.2665 L -158.456,31.1558
 L -158.593,31.0268 L -158.714,30.8817 L -158.814,30.7226 L -158.895,30.5522 L -158.953,30.373 L -158.988,30.188
 L -159,30 L -158.988,29.812 L -158.953,29.627 L -158.895,29.4478 L -158.814,29.2774 L -158.714,29.1183
 L -158.593,28.9732 L -158.456,28.8442 L -158.304,28.7335 L -158.139,28.6427 L -157.964,28.5734 L -157.781,28.5266
 L -157.594,28.503 L -157.406,28.503 L -157.219,28.5266 L -157.036,28.5734 L -156.861,28.6427 L -156.696,28.7335
 L -156.544,28.8442 L -156.407,28.9732 L -156.286,29.1183 L -156.186,29.2774 L -156.105,29.4478 L -156.047,29.627
 L -156.012,29.812 L -156,30 L -156.012,30.188 L -156.047,30.373 L -156.105,30.5522 L -156.186,30.7226
 L -156.286,30.8817 L -156.407,31.0268 L -156.544,31.1558 L -156.696,31.2665 L -156.861,31.3572 L -157.036,31.4266
 L -157.219,31.4734 L -157.406,31.497 z
M -157.688,40.4941 L -158.062,40.4469 L -158.427,40.3532 L -158.777,40.2145 L -159.107,40.033 L -159.412,39.8115
 L -159.687,39.5536 L -159.927,39.2634 L -160.129,38.9453 L -160.289,38.6044 L -160.406,38.2461 L -160.476,37.876
 L -160.5,37.5 L -160.476,37.124 L -160.406,36.7539 L -160.289,36.3956 L -160.129,36.0547 L -159.927,35.7366
 L -159.687,35.4464 L -159.412,35.1885 L -159.107,34.967 L -158.777,34.7855 L -158.427,34.6468 L -158.062,34.5531
 L -157.688,34.5059 L -157.312,34.5059 L -156.938,34.5531 L -156.573,34.6468 L -156.223,34.7855 L -155.893,34.967
 L -155.588,35.1885 L -155.313,35.4464 L -155.073,35.7366 L -154.871,36.0547 L -154.711,36.3956 L -154.594,36.7539
 L -154.524,37.124 L -154.5,37.5 L -154.524,37.876 L -154.594,38.2461 L -154.711,38.6044 L -154.871,38.9453
 L -155.073,39.2634 L -155.313,39.5536 L -155.588,39.8115 L -155.893,40.033 L -156.223,40.2145 L -156.573,40.3532
 L -156.938,40.4469 L -157.312,40.4941 z
M 157.312,40.4941 L 156.938,40.4469 L 156.573,40.3532 L 156.223,40.2145 L 155.893,40.033 L 155.588,39.8115
 L 155.313,39.5536 L 155.073,39.2634 L 154.871,38.9453 L 154.711,38.6044 L 154.594,38.2461 L 154.524,37.876
 L 154.5,37.5 L 154.524,37.124 L 154.594,36.7539 L 154.711,36.3956 L 154.871,36.0547 L 155.073,35.7366
 L 155.313,35.4464 L 155.588,35.1885 L 155.893,34.967 L 156.223,34.7855 L 156.573,34.6468 L 156.938,34.5531
 L 157.312,34.5059 L 157.688,34.5059 L 158.062,34.5531 L 158.427,34.6468 L 158.777,34.7855 L 159.107,34.967
 L 159.412,35.1885 L 159.687,35.4464 L 159.927,35.7366 L 160.129,36.0547 L 160.289,36.3956 L 160.406,36.7539
 L 160.476,37.124 L 160.5,37.5 L 160.476,37.876 L 160.406,38.2461 L 160.289,38.6044 L 160.129,38.9453
 L 159.927,39.2634 L 159.687,39.5536 L 159.412,39.8115 L 159.107,40.033 L 158.777,40.2145 L 158.427,40.3532
 L 158.062,40.4469 L 157.688,40.4941 z
" stroke="black" fill="lightgray" stroke-width="0.5"/>
</svg>
