  0
SECTION
  2
BLOCKS
  0
ENDSEC
  0
SECTION
  2
ENTITIES
  0
LINE
  8
0
 10
160.437
 20
-44.4114
 11
161.045
 21
-44.2553
  0
LINE
  8
0
 10
161.045
 20
-44.2553
 11
161.629
 21
-44.0241
  0
LINE
  8
0
 10
161.629
 20
-44.0241
 11
162.179
 21
-43.7216
  0
LINE
  8
0
 10
162.179
 20
-43.7216
 11
162.687
 21
-43.3526
  0
LINE
  8
0
 10
162.687
 20
-43.3526
 11
163.145
 21
-42.9227
  0
LINE
  8
0
 10
163.145
 20
-42.9227
 11
163.545
 21
-42.4389
  0
LINE
  8
0
 10
163.545
 20
-42.4389
 11
163.882
 21
-41.9088
  0
LINE
  8
0
 10
163.882
 20
-41.9088
 11
164.149
 21
-41.3406
  0
LINE
  8
0
 10
164.149
 20
-41.3406
 11
164.343
 21
-40.7434
  0
LINE
  8
0
 10
164.343
 20
-40.7434
 11
164.461
 21
-40.1267
  0
LINE
  8
0
 10
164.461
 20
-40.1267
 11
164.5
 21
-39.5
  0
LINE
  8
0
 10
164.5
 20
-39.5
 11
164.5
 21
39.5
  0
LINE
  8
0
 10
164.5
 20
39.5
 11
164.461
 21
40.1267
  0
LINE
  8
0
 10
164.461
 20
40.1267
 11
164.343
 21
40.7434
  0
LINE
  8
0
 10
164.343
 20
40.7434
 11
164.149
 21
41.3406
  0
LINE
  8
0
 10
164.149
 20
41.3406
 11
163.882
 21
41.9088
  0
LINE
  8
0
 10
163.882
 20
41.9088
 11
163.545
 21
42.4389
  0
LINE
  8
0
 10
163.545
 20
42.4389
 11
163.145
 21
42.9227
  0
LINE
  8
0
 10
163.145
 20
42.9227
 11
162.687
 21
43.3526
  0
LINE
  8
0
 10
162.687
 20
43.3526
 11
162.179
 21
43.7216
  0
LINE
  8
0
 10
162.179
 20
43.7216
 11
161.629
 21
44.0241
  0
LINE
  8
0
 10
161.629
 20
44.0241
 11
161.045
 21
44.2553
  0
LINE
  8
0
 10
161.045
 20
44.2553
 11
160.437
 21
44.4114
  0
LINE
  8
0
 10
160.437
 20
44.4114
 11
159.814
 21
44.4901
  0
LINE
  8
0
 10
159.814
 20
44.4901
 11
-159.814
 21
44.4901
  0
LINE
  8
0
 10
-159.814
 20
44.4901
 11
-160.437
 21
44.4114
  0
LINE
  8
0
 10
-160.437
 20
44.4114
 11
-161.045
 21
44.2553
  0
LINE
  8
0
 10
-161.045
 20
44.2553
 11
-161.629
 21
44.0241
  0
LINE
  8
0
 10
-161.629
 20
44.0241
 11
-162.179
 21
43.7216
  0
LINE
  8
0
 10
-162.179
 20
43.7216
 11
-162.687
 21
43.3526
  0
LINE
  8
0
 10
-162.687
 20
43.3526
 11
-163.145
 21
42.9227
  0
LINE
  8
0
 10
-163.145
 20
42.9227
 11
-163.545
 21
42.4389
  0
LINE
  8
0
 10
-163.545
 20
42.4389
 11
-163.882
 21
41.9088
  0
LINE
  8
0
 10
-163.882
 20
41.9088
 11
-164.149
 21
41.3406
  0
LINE
  8
0
 10
-164.149
 20
41.3406
 11
-164.343
 21
40.7434
  0
LINE
  8
0
 10
-164.343
 20
40.7434
 11
-164.461
 21
40.1267
  0
LINE
  8
0
 10
-164.461
 20
40.1267
 11
-164.5
 21
39.5
  0
LINE
  8
0
 10
-164.5
 20
39.5
 11
-164.5
 21
-39.5
  0
LINE
  8
0
 10
-164.5
 20
-39.5
 11
-164.461
 21
-40.1267
  0
LINE
  8
0
 10
-164.461
 20
-40.1267
 11
-164.343
 21
-40.7434
  0
LINE
  8
0
 10
-164.343
 20
-40.7434
 11
-164.149
 21
-41.3406
  0
LINE
  8
0
 10
-164.149
 20
-41.3406
 11
-163.882
 21
-41.9088
  0
LINE
  8
0
 10
-163.882
 20
-41.9088
 11
-163.545
 21
-42.4389
  0
LINE
  8
0
 10
-163.545
 20
-42.4389
 11
-163.145
 21
-42.9227
  0
LINE
  8
0
 10
-163.145
 20
-42.9227
 11
-162.687
 21
-43.3526
  0
LINE
  8
0
 10
-162.687
 20
-43.3526
 11
-162.179
 21
-43.7216
  0
LINE
  8
0
 10
-162.179
 20
-43.7216
 11
-161.629
 21
-44.0241
  0
LINE
  8
0
 10
-161.629
 20
-44.0241
 11
-161.045
 21
-44.2553
  0
LINE
  8
0
 10
-161.045
 20
-44.2553
 11
-160.437
 21
-44.4114
  0
LINE
  8
0
 10
-160.437
 20
-44.4114
 11
-159.814
 21
-44.4901
  0
LINE
  8
0
 10
-159.814
 20
-44.4901
 11
159.814
 21
-44.4901
  0
LINE
  8
0
 10
159.814
 20
-44.4901
 11
160.437
 21
-44.4114
  0
LINE
  8
0
 10
-157.688
 20
34.5059
 11
-158.062
 21
34.5531
  0
LINE
  8
0
 10
-158.062
 20
34.5531
 11
-158.427
 21
34.6468
  0
LINE
  8
0
 10
-158.427
 20
34.6468
 11
-158.777
 21
34.7855
  0
LINE
  8
0
 10
-158.777
 20
34.7855
 11
-159.107
 21
34.967
  0
LINE
  8
0
 10
-159.107
 20
34.967
 11
-159.412
 21
35.1885
  0
LINE
  8
0
 10
-159.412
 20
35.1885
 11
-159.687
 21
35.4464
  0
LINE
  8
0
 10
-159.687
 20
35.4464
 11
-159.927
 21
35.7366
  0
LINE
  8
0
 10
-159.927
 20
35.7366
 11
-160.129
 21
36.0547
  0
LINE
  8
0
 10
-160.129
 20
36.0547
 11
-160.289
 21
36.3956
  0
LINE
  8
0
 10
-160.289
 20
36.3956
 11
-160.406
 21
36.7539
  0
LINE
  8
0
 10
-160.406
 20
36.7539
 11
-160.476
 21
37.124
  0
LINE
  8
0
 10
-160.476
 20
37.124
 11
-160.5
 21
37.5
  0
LINE
  8
0
 10
-160.5
 20
37.5
 11
-160.476
 21
37.876
  0
LINE
  8
0
 10
-160.476
 20
37.876
 11
-160.406
 21
38.2461
  0
LINE
  8
0
 10
-160.406
 20
38.2461
 11
-160.289
 21
38.6044
  0
LINE
  8
0
 10
-160.289
 20
38.6044
 11
-160.129
 21
38.9453
  0
LINE
  8
0
 10
-160.129
 20
38.9453
 11
-159.927
 21
39.2634
  0
LINE
  8
0
 10
-159.927
 20
39.2634
 11
-159.687
 21
39.5536
  0
LINE
  8
0
 10
-159.687
 20
39.5536
 11
-159.412
 21
39.8115
  0
LINE
  8
0
 10
-159.412
 20
39.8115
 11
-159.107
 21
40.033
  0
LINE
  8
0
 10
-159.107
 20
40.033
 11
-158.777
 21
40.2145
  0
LINE
  8
0
 10
-158.777
 20
40.2145
 11
-158.427
 21
40.3532
  0
LINE
  8
0
 10
-158.427
 20
40.3532
 11
-158.062
 21
40.4469
  0
LINE
  8
0
 10
-158.062
 20
40.4469
 11
-157.688
 21
40.4941
  0
LINE
  8
0
 10
-157.688
 20
40.4941
 11
-157.312
 21
40.4941
  0
LINE
  8
0
 10
-157.312
 20
40.4941
 11
-156.938
 21
40.4469
  0
LINE
  8
0
 10
-156.938
 20
40.4469
 11
-156.573
 21
40.3532
  0
LINE
  8
0
 10
-156.573
 20
40.3532
 11
-156.223
 21
40.2145
  0
LINE
  8
0
 10
-156.223
 20
40.2145
 11
-155.893
 21
40.033
  0
LINE
  8
0
 10
-155.893
 20
40.033
 11
-155.588
 21
39.8115
  0
LINE
  8
0
 10
-155.588
 20
39.8115
 11
-155.313
 21
39.5536
  0
LINE
  8
0
 10
-155.313
 20
39.5536
 11
-155.073
 21
39.2634
  0
LINE
  8
0
 10
-155.073
 20
39.2634
 11
-154.871
 21
38.9453
  0
LINE
  8
0
 10
-154.871
 20
38.9453
 11
-154.711
 21
38.6044
  0
LINE
  8
0
 10
-154.711
 20
38.6044
 11
-154.594
 21
38.2461
  0
LINE
  8
0
 10
-154.594
 20
38.2461
 11
-154.524
 21
37.876
  0
LINE
  8
0
 10
-154.524
 20
37.876
 11
-154.5
 21
37.5
  0
LINE
  8
0
 10
-154.5
 20
37.5
 11
-154.524
 21
37.124
  0
LINE
  8
0
 10
-154.524
 20
37.124
 11
-154.594
 21
36.7539
  0
LINE
  8
0
 10
-154.594
 20
36.7539
 11
-154.711
 21
36.3956
  0
LINE
  8
0
 10
-154.711
 20
36.3956
 11
-154.871
 21
36.0547
  0
LINE
  8
0
 10
-154.871
 20
36.0547
 11
-155.073
 21
35.7366
  0
LINE
  8
0
 10
-155.073
 20
35.7366
 11
-155.313
 21
35.4464
  0
LINE
  8
0
 10
-155.313
 20
35.4464
 11
-155.588
 21
35.1885
  0
LINE
  8
0
 10
-155.588
 20
35.1885
 11
-155.893
 21
34.967
  0
LINE
  8
0
 10
-155.893
 20
34.967
 11
-156.223
 21
34.7855
  0
LINE
  8
0
 10
-156.223
 20
34.7855
 11
-156.573
 21
34.6468
  0
LINE
  8
0
 10
-156.573
 20
34.6468
 11
-156.938
 21
34.5531
  0
LINE
  8
0
 10
-156.938
 20
34.5531
 11
-157.312
 21
34.5059
  0
LINE
  8
0
 10
-157.312
 20
34.5059
 11
-157.688
 21
34.5059
  0
LINE
  8
0
 10
157.312
 20
34.5059
 11
156.938
 21
34.5531
  0
LINE
  8
0
 10
156.938
 20
34.5531
 11
156.573
 21
34.6468
  0
LINE
  8
0
 10
156.573
 20
34.6468
 11
156.223
 21
34.7855
  0
LINE
  8
0
 10
156.223
 20
34.7855
 11
155.893
 21
34.967
  0
LINE
  8
0
 10
155.893
 20
34.967
 11
155.588
 21
35.1885
  0
LINE
  8
0
 10
155.588
 20
35.1885
 11
155.313
 21
35.4464
  0
LINE
  8
0
 10
155.313
 20
35.4464
 11
155.073
 21
35.7366
  0
LINE
  8
0
 10
155.073
 20
35.7366
 11
154.871
 21
36.0547
  0
LINE
  8
0
 10
154.871
 20
36.0547
 11
154.711
 21
36.3956
  0
LINE
  8
0
 10
154.711
 20
36.3956
 11
154.594
 21
36.7539
  0
LINE
  8
0
 10
154.594
 20
36.7539
 11
154.524
 21
37.124
  0
LINE
  8
0
 10
154.524
 20
37.124
 11
154.5
 21
37.5
  0
LINE
  8
0
 10
154.5
 20
37.5
 11
154.524
 21
37.876
  0
LINE
  8
0
 10
154.524
 20
37.876
 11
154.594
 21
38.2461
  0
LINE
  8
0
 10
154.594
 20
38.2461
 11
154.711
 21
38.6044
  0
LINE
  8
0
 10
154.711
 20
38.6044
 11
154.871
 21
38.9453
  0
LINE
  8
0
 10
154.871
 20
38.9453
 11
155.073
 21
39.2634
  0
LINE
  8
0
 10
155.073
 20
39.2634
 11
155.313
 21
39.5536
  0
LINE
  8
0
 10
155.313
 20
39.5536
 11
155.588
 21
39.8115
  0
LINE
  8
0
 10
155.588
 20
39.8115
 11
155.893
 21
40.033
  0
LINE
  8
0
 10
155.893
 20
40.033
 11
156.223
 21
40.2145
  0
LINE
  8
0
 10
156.223
 20
40.2145
 11
156.573
 21
40.3532
  0
LINE
  8
0
 10
156.573
 20
40.3532
 11
156.938
 21
40.4469
  0
LINE
  8
0
 10
156.938
 20
40.4469
 11
157.312
 21
40.4941
  0
LINE
  8
0
 10
157.312
 20
40.4941
 11
157.688
 21
40.4941
  0
LINE
  8
0
 10
157.688
 20
40.4941
 11
158.062
 21
40.4469
  0
LINE
  8
0
 10
158.062
 20
40.4469
 11
158.427
 21
40.3532
  0
LINE
  8
0
 10
158.427
 20
40.3532
 11
158.777
 21
40.2145
  0
LINE
  8
0
 10
158.777
 20
40.2145
 11
159.107
 21
40.033
  0
LINE
  8
0
 10
159.107
 20
40.033
 11
159.412
 21
39.8115
  0
LINE
  8
0
 10
159.412
 20
39.8115
 11
159.687
 21
39.5536
  0
LINE
  8
0
 10
159.687
 20
39.5536
 11
159.927
 21
39.2634
  0
LINE
  8
0
 10
159.927
 20
39.2634
 11
160.129
 21
38.9453
  0
LINE
  8
0
 10
160.129
 20
38.9453
 11
160.289
 21
38.6044
  0
LINE
  8
0
 10
160.289
 20
38.6044
 11
160.406
 21
38.2461
  0
LINE
  8
0
 10
160.406
 20
38.2461
 11
160.476
 21
37.876
  0
LINE
  8
0
 10
160.476
 20
37.876
 11
160.5
 21
37.5
  0
LINE
  8
0
 10
160.5
 20
37.5
 11
160.476
 21
37.124
  0
LINE
  8
0
 10
160.476
 20
37.124
 11
160.406
 21
36.7539
  0
LINE
  8
0
 10
160.406
 20
36.7539
 11
160.289
 21
36.3956
  0
LINE
  8
0
 10
160.289
 20
36.3956
 11
160.129
 21
36.0547
  0
LINE
  8
0
 10
160.129
 20
36.0547
 11
159.927
 21
35.7366
  0
LINE
  8
0
 10
159.927
 20
35.7366
 11
159.687
 21
35.4464
  0
LINE
  8
0
 10
159.687
 20
35.4464
 11
159.412
 21
35.1885
  0
LINE
  8
0
 10
159.412
 20
35.1885
 11
159.107
 21
34.967
  0
LINE
  8
0
 10
159.107
 20
34.967
 11
158.777
 21
34.7855
  0
LINE
  8
0
 10
158.777
 20
34.7855
 11
158.427
 21
34.6468
  0
LINE
  8
0
 10
158.427
 20
34.6468
 11
158.062
 21
34.5531
  0
LINE
  8
0
 10
158.062
 20
34.5531
 11
157.688
 21
34.5059
  0
LINE
  8
0
 10
157.688
 20
34.5059
 11
157.312
 21
34.5059
  0
LINE
  8
0
 10
-40.7605
 20
-35.929
 11
-45.2457
 21
-35.3623
  0
LINE
  8
0
 10
-45.2457
 20
-35.3623
 11
-49.6246
 21
-34.238
  0
LINE
  8
0
 10
-49.6246
 20
-34.238
 11
-53.828
 21
-32.5738
  0
LINE
  8
0
 10
-53.828
 20
-32.5738
 11
-57.7898
 21
-30.3958
  0
LINE
  8
0
 10
-57.7898
 20
-30.3958
 11
-61.4473
 21
-27.7385
  0
LINE
  8
0
 10
-61.4473
 20
-27.7385
 11
-64.7429
 21
-24.6437
  0
LINE
  8
0
 10
-64.7429
 20
-24.6437
 11
-67.6246
 21
-21.1603
  0
LINE
  8
0
 10
-67.6246
 20
-21.1603
 11
-70.047
 21
-17.3431
  0
LINE
  8
0
 10
-70.047
 20
-17.3431
 11
-71.972
 21
-13.2525
  0
LINE
  8
0
 10
-71.972
 20
-13.2525
 11
-73.369
 21
-8.95284
  0
LINE
  8
0
 10
-73.369
 20
-8.95284
 11
-74.2161
 21
-4.51199
  0
LINE
  8
0
 10
-74.2161
 20
-4.51199
 11
-74.5
 21
0
  0
LINE
  8
0
 10
-74.5
 20
0
 11
-74.2161
 21
4.51199
  0
LINE
  8
0
 10
-74.2161
 20
4.51199
 11
-73.369
 21
8.95284
  0
LINE
  8
0
 10
-73.369
 20
8.95284
 11
-71.972
 21
13.2525
  0
LINE
  8
0
 10
-71.972
 20
13.2525
 11
-70.047
 21
17.3431
  0
LINE
  8
0
 10
-70.047
 20
17.3431
 11
-67.6246
 21
21.1603
  0
LINE
  8
0
 10
-67.6246
 20
21.1603
 11
-64.7429
 21
24.6437
  0
LINE
  8
0
 10
-64.7429
 20
24.6437
 11
-61.4473
 21
27.7385
  0
LINE
  8
0
 10
-61.4473
 20
27.7385
 11
-57.7898
 21
30.3958
  0
LINE
  8
0
 10
-57.7898
 20
30.3958
 11
-53.828
 21
32.5738
  0
LINE
  8
0
 10
-53.828
 20
32.5738
 11
-49.6246
 21
34.238
  0
LINE
  8
0
 10
-49.6246
 20
34.238
 11
-45.2457
 21
35.3623
  0
LINE
  8
0
 10
-45.2457
 20
35.3623
 11
-40.7605
 21
35.929
  0
LINE
  8
0
 10
-40.7605
 20
35.929
 11
-36.2395
 21
35.929
  0
LINE
  8
0
 10
-36.2395
 20
35.929
 11
-31.7543
 21
35.3623
  0
LINE
  8
0
 10
-31.7543
 20
35.3623
 11
-27.3754
 21
34.238
  0
LINE
  8
0
 10
-27.3754
 20
34.238
 11
-23.1719
 21
32.5738
  0
LINE
  8
0
 10
-23.1719
 20
32.5738
 11
-19.2102
 21
30.3958
  0
LINE
  8
0
 10
-19.2102
 20
30.3958
 11
-15.5527
 21
27.7385
  0
LINE
  8
0
 10
-15.5527
 20
27.7385
 11
-12.2571
 21
24.6437
  0
LINE
  8
0
 10
-12.2571
 20
24.6437
 11
-9.37538
 21
21.1603
  0
LINE
  8
0
 10
-9.37538
 20
21.1603
 11
-6.95296
 21
17.3431
  0
LINE
  8
0
 10
-6.95296
 20
17.3431
 11
-5.02805
 21
13.2525
  0
LINE
  8
0
 10
-5.02805
 20
13.2525
 11
-3.631
 21
8.95284
  0
LINE
  8
0
 10
-3.631
 20
8.95284
 11
-2.78386
 21
4.51199
  0
LINE
  8
0
 10
-2.78386
 20
4.51199
 11
-2.5
 21
0
  0
LINE
  8
0
 10
-2.5
 20
0
 11
-2.78386
 21
-4.51199
  0
LINE
  8
0
 10
-2.78386
 20
-4.51199
 11
-3.631
 21
-8.95284
  0
LINE
  8
0
 10
-3.631
 20
-8.95284
 11
-5.02805
 21
-13.2525
  0
LINE
  8
0
 10
-5.02805
 20
-13.2525
 11
-6.95296
 21
-17.3431
  0
LINE
  8
0
 10
-6.95296
 20
-17.3431
 11
-9.37538
 21
-21.1603
  0
LINE
  8
0
 10
-9.37538
 20
-21.1603
 11
-12.2571
 21
-24.6437
  0
LINE
  8
0
 10
-12.2571
 20
-24.6437
 11
-15.5527
 21
-27.7385
  0
LINE
  8
0
 10
-15.5527
 20
-27.7385
 11
-19.2102
 21
-30.3958
  0
LINE
  8
0
 10
-19.2102
 20
-30.3958
 11
-23.1719
 21
-32.5738
  0
LINE
  8
0
 10
-23.1719
 20
-32.5738
 11
-27.3754
 21
-34.238
  0
LINE
  8
0
 10
-27.3754
 20
-34.238
 11
-31.7543
 21
-35.3623
  0
LINE
  8
0
 10
-31.7543
 20
-35.3623
 11
-36.2395
 21
-35.929
  0
LINE
  8
0
 10
-36.2395
 20
-35.929
 11
-40.7605
 21
-35.929
  0
LINE
  8
0
 10
-117.76
 20
-35.929
 11
-122.246
 21
-35.3623
  0
LINE
  8
0
 10
-122.246
 20
-35.3623
 11
-126.625
 21
-34.238
  0
LINE
  8
0
 10
-126.625
 20
-34.238
 11
-130.828
 21
-32.5738
  0
LINE
  8
0
 10
-130.828
 20
-32.5738
 11
-134.79
 21
-30.3958
  0
LINE
  8
0
 10
-134.79
 20
-30.3958
 11
-138.447
 21
-27.7385
  0
LINE
  8
0
 10
-138.447
 20
-27.7385
 11
-141.743
 21
-24.6437
  0
LINE
  8
0
 10
-141.743
 20
-24.6437
 11
-144.625
 21
-21.1603
  0
LINE
  8
0
 10
-144.625
 20
-21.1603
 11
-147.047
 21
-17.3431
  0
LINE
  8
0
 10
-147.047
 20
-17.3431
 11
-148.972
 21
-13.2525
  0
LINE
  8
0
 10
-148.972
 20
-13.2525
 11
-150.369
 21
-8.95284
  0
LINE
  8
0
 10
-150.369
 20
-8.95284
 11
-151.216
 21
-4.51199
  0
LINE
  8
0
 10
-151.216
 20
-4.51199
 11
-151.5
 21
0
  0
LINE
  8
0
 10
-151.5
 20
0
 11
-151.216
 21
4.51199
  0
LINE
  8
0
 10
-151.216
 20
4.51199
 11
-150.369
 21
8.95284
  0
LINE
  8
0
 10
-150.369
 20
8.95284
 11
-148.972
 21
13.2525
  0
LINE
  8
0
 10
-148.972
 20
13.2525
 11
-147.047
 21
17.3431
  0
LINE
  8
0
 10
-147.047
 20
17.3431
 11
-144.625
 21
21.1603
  0
LINE
  8
0
 10
-144.625
 20
21.1603
 11
-141.743
 21
24.6437
  0
LINE
  8
0
 10
-141.743
 20
24.6437
 11
-138.447
 21
27.7385
  0
LINE
  8
0
 10
-138.447
 20
27.7385
 11
-134.79
 21
30.3958
  0
LINE
  8
0
 10
-134.79
 20
30.3958
 11
-130.828
 21
32.5738
  0
LINE
  8
0
 10
-130.828
 20
32.5738
 11
-126.625
 21
34.238
  0
LINE
  8
0
 10
-126.625
 20
34.238
 11
-122.246
 21
35.3623
  0
LINE
  8
0
 10
-122.246
 20
35.3623
 11
-117.76
 21
35.929
  0
LINE
  8
0
 10
-117.76
 20
35.929
 11
-113.24
 21
35.929
  0
LINE
  8
0
 10
-113.24
 20
35.929
 11
-108.754
 21
35.3623
  0
LINE
  8
0
 10
-108.754
 20
35.3623
 11
-104.375
 21
34.238
  0
LINE
  8
0
 10
-104.375
 20
34.238
 11
-100.172
 21
32.5738
  0
LINE
  8
0
 10
-100.172
 20
32.5738
 11
-96.2102
 21
30.3958
  0
LINE
  8
0
 10
-96.2102
 20
30.3958
 11
-92.5527
 21
27.7385
  0
LINE
  8
0
 10
-92.5527
 20
27.7385
 11
-89.2571
 21
24.6437
  0
LINE
  8
0
 10
-89.2571
 20
24.6437
 11
-86.3754
 21
21.1603
  0
LINE
  8
0
 10
-86.3754
 20
21.1603
 11
-83.953
 21
17.3431
  0
LINE
  8
0
 10
-83.953
 20
17.3431
 11
-82.028
 21
13.2525
  0
LINE
  8
0
 10
-82.028
 20
13.2525
 11
-80.631
 21
8.95284
  0
LINE
  8
0
 10
-80.631
 20
8.95284
 11
-79.7839
 21
4.51199
  0
LINE
  8
0
 10
-79.7839
 20
4.51199
 11
-79.5
 21
0
  0
LINE
  8
0
 10
-79.5
 20
0
 11
-79.7839
 21
-4.51199
  0
LINE
  8
0
 10
-79.7839
 20
-4.51199
 11
-80.631
 21
-8.95284
  0
LINE
  8
0
 10
-80.631
 20
-8.95284
 11
-82.028
 21
-13.2525
  0
LINE
  8
0
 10
-82.028
 20
-13.2525
 11
-83.953
 21
-17.3431
  0
LINE
  8
0
 10
-83.953
 20
-17.3431
 11
-86.3754
 21
-21.1603
  0
LINE
  8
0
 10
-86.3754
 20
-21.1603
 11
-89.2571
 21
-24.6437
  0
LINE
  8
0
 10
-89.2571
 20
-24.6437
 11
-92.5527
 21
-27.7385
  0
LINE
  8
0
 10
-92.5527
 20
-27.7385
 11
-96.2102
 21
-30.3958
  0
LINE
  8
0
 10
-96.2102
 20
-30.3958
 11
-100.172
 21
-32.5738
  0
LINE
  8
0
 10
-100.172
 20
-32.5738
 11
-104.375
 21
-34.238
  0
LINE
  8
0
 10
-104.375
 20
-34.238
 11
-108.754
 21
-35.3623
  0
LINE
  8
0
 10
-108.754
 20
-35.3623
 11
-113.24
 21
-35.929
  0
LINE
  8
0
 10
-113.24
 20
-35.929
 11
-117.76
 21
-35.929
  0
LINE
  8
0
 10
36.2395
 20
-35.929
 11
31.7543
 21
-35.3623
  0
LINE
  8
0
 10
31.7543
 20
-35.3623
 11
27.3754
 21
-34.238
  0
LINE
  8
0
 10
27.3754
 20
-34.238
 11
23.1719
 21
-32.5738
  0
LINE
  8
0
 10
23.1719
 20
-32.5738
 11
19.2102
 21
-30.3958
  0
LINE
  8
0
 10
19.2102
 20
-30.3958
 11
15.5527
 21
-27.7385
  0
LINE
  8
0
 10
15.5527
 20
-27.7385
 11
12.2571
 21
-24.6437
  0
LINE
  8
0
 10
12.2571
 20
-24.6437
 11
9.37538
 21
-21.1603
  0
LINE
  8
0
 10
9.37538
 20
-21.1603
 11
6.95296
 21
-17.3431
  0
LINE
  8
0
 10
6.95296
 20
-17.3431
 11
5.02805
 21
-13.2525
  0
LINE
  8
0
 10
5.02805
 20
-13.2525
 11
3.631
 21
-8.95284
  0
LINE
  8
0
 10
3.631
 20
-8.95284
 11
2.78386
 21
-4.51199
  0
LINE
  8
0
 10
2.78386
 20
-4.51199
 11
2.5
 21
0
  0
LINE
  8
0
 10
2.5
 20
0
 11
2.78386
 21
4.51199
  0
LINE
  8
0
 10
2.78386
 20
4.51199
 11
3.631
 21
8.95284
  0
LINE
  8
0
 10
3.631
 20
8.95284
 11
5.02805
 21
13.2525
  0
LINE
  8
0
 10
5.02805
 20
13.2525
 11
6.95296
 21
17.3431
  0
LINE
  8
0
 10
6.95296
 20
17.3431
 11
9.37538
 21
21.1603
  0
LINE
  8
0
 10
9.37538
 20
21.1603
 11
12.2571
 21
24.6437
  0
LINE
  8
0
 10
12.2571
 20
24.6437
 11
15.5527
 21
27.7385
  0
LINE
  8
0
 10
15.5527
 20
27.7385
 11
19.2102
 21
30.3958
  0
LINE
  8
0
 10
19.2102
 20
30.3958
 11
23.1719
 21
32.5738
  0
LINE
  8
0
 10
23.1719
 20
32.5738
 11
27.3754
 21
34.238
  0
LINE
  8
0
 10
27.3754
 20
34.238
 11
31.7543
 21
35.3623
  0
LINE
  8
0
 10
31.7543
 20
35.3623
 11
36.2395
 21
35.929
  0
LINE
  8
0
 10
36.2395
 20
35.929
 11
40.7605
 21
35.929
  0
LINE
  8
0
 10
40.7605
 20
35.929
 11
45.2457
 21
35.3623
  0
LINE
  8
0
 10
45.2457
 20
35.3623
 11
49.6246
 21
34.238
  0
LINE
  8
0
 10
49.6246
 20
34.238
 11
53.828
 21
32.5738
  0
LINE
  8
0
 10
53.828
 20
32.5738
 11
57.7898
 21
30.3958
  0
LINE
  8
0
 10
57.7898
 20
30.3958
 11
61.4473
 21
27.7385
  0
LINE
  8
0
 10
61.4473
 20
27.7385
 11
64.7429
 21
24.6437
  0
LINE
  8
0
 10
64.7429
 20
24.6437
 11
67.6246
 21
21.1603
  0
LINE
  8
0
 10
67.6246
 20
21.1603
 11
70.047
 21
17.3431
  0
LINE
  8
0
 10
70.047
 20
17.3431
 11
71.972
 21
13.2525
  0
LINE
  8
0
 10
71.972
 20
13.2525
 11
73.369
 21
8.95284
  0
LINE
  8
0
 10
73.369
 20
8.95284
 11
74.2161
 21
4.51199
  0
LINE
  8
0
 10
74.2161
 20
4.51199
 11
74.5
 21
0
  0
LINE
  8
0
 10
74.5
 20
0
 11
74.2161
 21
-4.51199
  0
LINE
  8
0
 10
74.2161
 20
-4.51199
 11
73.369
 21
-8.95284
  0
LINE
  8
0
 10
73.369
 20
-8.95284
 11
71.972
 21
-13.2525
  0
LINE
  8
0
 10
71.972
 20
-13.2525
 11
70.047
 21
-17.3431
  0
LINE
  8
0
 10
70.047
 20
-17.3431
 11
67.6246
 21
-21.1603
  0
LINE
  8
0
 10
67.6246
 20
-21.1603
 11
64.7429
 21
-24.6437
  0
LINE
  8
0
 10
64.7429
 20
-24.6437
 11
61.4473
 21
-27.7385
  0
LINE
  8
0
 10
61.4473
 20
-27.7385
 11
57.7898
 21
-30.3958
  0
LINE
  8
0
 10
57.7898
 20
-30.3958
 11
53.828
 21
-32.5738
  0
LINE
  8
0
 10
53.828
 20
-32.5738
 11
49.6246
 21
-34.238
  0
LINE
  8
0
 10
49.6246
 20
-34.238
 11
45.2457
 21
-35.3623
  0
LINE
  8
0
 10
45.2457
 20
-35.3623
 11
40.7605
 21
-35.929
  0
LINE
  8
0
 10
40.7605
 20
-35.929
 11
36.2395
 21
-35.929
  0
LINE
  8
0
 10
113.24
 20
-35.929
 11
108.754
 21
-35.3623
  0
LINE
  8
0
 10
108.754
 20
-35.3623
 11
104.375
 21
-34.238
  0
LINE
  8
0
 10
104.375
 20
-34.238
 11
100.172
 21
-32.5738
  0
LINE
  8
0
 10
100.172
 20
-32.5738
 11
96.2102
 21
-30.3958
  0
LINE
  8
0
 10
96.2102
 20
-30.3958
 11
92.5527
 21
-27.7385
  0
LINE
  8
0
 10
92.5527
 20
-27.7385
 11
89.2571
 21
-24.6437
  0
LINE
  8
0
 10
89.2571
 20
-24.6437
 11
86.3754
 21
-21.1603
  0
LINE
  8
0
 10
86.3754
 20
-21.1603
 11
83.953
 21
-17.3431
  0
LINE
  8
0
 10
83.953
 20
-17.3431
 11
82.028
 21
-13.2525
  0
LINE
  8
0
 10
82.028
 20
-13.2525
 11
80.631
 21
-8.95284
  0
LINE
  8
0
 10
80.631
 20
-8.95284
 11
79.7839
 21
-4.51199
  0
LINE
  8
0
 10
79.7839
 20
-4.51199
 11
79.5
 21
0
  0
LINE
  8
0
 10
79.5
 20
0
 11
79.7839
 21
4.51199
  0
LINE
  8
0
 10
79.7839
 20
4.51199
 11
80.631
 21
8.95284
  0
LINE
  8
0
 10
80.631
 20
8.95284
 11
82.028
 21
13.2525
  0
LINE
  8
0
 10
82.028
 20
13.2525
 11
83.953
 21
17.3431
  0
LINE
  8
0
 10
83.953
 20
17.3431
 11
86.3754
 21
21.1603
  0
LINE
  8
0
 10
86.3754
 20
21.1603
 11
89.2571
 21
24.6437
  0
LINE
  8
0
 10
89.2571
 20
24.6437
 11
92.5527
 21
27.7385
  0
LINE
  8
0
 10
92.5527
 20
27.7385
 11
96.2102
 21
30.3958
  0
LINE
  8
0
 10
96.2102
 20
30.3958
 11
100.172
 21
32.5738
  0
LINE
  8
0
 10
100.172
 20
32.5738
 11
104.375
 21
34.238
  0
LINE
  8
0
 10
104.375
 20
34.238
 11
108.754
 21
35.3623
  0
LINE
  8
0
 10
108.754
 20
35.3623
 11
113.24
 21
35.929
  0
LINE
  8
0
 10
113.24
 20
35.929
 11
117.76
 21
35.929
  0
LINE
  8
0
 10
117.76
 20
35.929
 11
122.246
 21
35.3623
  0
LINE
  8
0
 10
122.246
 20
35.3623
 11
126.625
 21
34.238
  0
LINE
  8
0
 10
126.625
 20
34.238
 11
130.828
 21
32.5738
  0
LINE
  8
0
 10
130.828
 20
32.5738
 11
134.79
 21
30.3958
  0
LINE
  8
0
 10
134.79
 20
30.3958
 11
138.447
 21
27.7385
  0
LINE
  8
0
 10
138.447
 20
27.7385
 11
141.743
 21
24.6437
  0
LINE
  8
0
 10
141.743
 20
24.6437
 11
144.625
 21
21.1603
  0
LINE
  8
0
 10
144.625
 20
21.1603
 11
147.047
 21
17.3431
  0
LINE
  8
0
 10
147.047
 20
17.3431
 11
148.972
 21
13.2525
  0
LINE
  8
0
 10
148.972
 20
13.2525
 11
150.369
 21
8.95284
  0
LINE
  8
0
 10
150.369
 20
8.95284
 11
151.216
 21
4.51199
  0
LINE
  8
0
 10
151.216
 20
4.51199
 11
151.5
 21
0
  0
LINE
  8
0
 10
151.5
 20
0
 11
151.216
 21
-4.51199
  0
LINE
  8
0
 10
151.216
 20
-4.51199
 11
150.369
 21
-8.95284
  0
LINE
  8
0
 10
150.369
 20
-8.95284
 11
148.972
 21
-13.2525
  0
LINE
  8
0
 10
148.972
 20
-13.2525
 11
147.047
 21
-17.3431
  0
LINE
  8
0
 10
147.047
 20
-17.3431
 11
144.625
 21
-21.1603
  0
LINE
  8
0
 10
144.625
 20
-21.1603
 11
141.743
 21
-24.6437
  0
LINE
  8
0
 10
141.743
 20
-24.6437
 11
138.447
 21
-27.7385
  0
LINE
  8
0
 10
138.447
 20
-27.7385
 11
134.79
 21
-30.3958
  0
LINE
  8
0
 10
134.79
 20
-30.3958
 11
130.828
 21
-32.5738
  0
LINE
  8
0
 10
130.828
 20
-32.5738
 11
126.625
 21
-34.238
  0
LINE
  8
0
 10
126.625
 20
-34.238
 11
122.246
 21
-35.3623
  0
LINE
  8
0
 10
122.246
 20
-35.3623
 11
117.76
 21
-35.929
  0
LINE
  8
0
 10
117.76
 20
-35.929
 11
113.24
 21
-35.929
  0
LINE
  8
0
 10
-157.594
 20
28.503
 11
-157.781
 21
28.5266
  0
LINE
  8
0
 10
-157.781
 20
28.5266
 11
-157.964
 21
28.5734
  0
LINE
  8
0
 10
-157.964
 20
28.5734
 11
-158.139
 21
28.6427
  0
LINE
  8
0
 10
-158.139
 20
28.6427
 11
-158.304
 21
28.7335
  0
LINE
  8
0
 10
-158.304
 20
28.7335
 11
-158.456
 21
28.8442
  0
LINE
  8
0
 10
-158.456
 20
28.8442
 11
-158.593
 21
28.9732
  0
LINE
  8
0
 10
-158.593
 20
28.9732
 11
-158.714
 21
29.1183
  0
LINE
  8
0
 10
-158.714
 20
29.1183
 11
-158.814
 21
29.2774
  0
LINE
  8
0
 10
-158.814
 20
29.2774
 11
-158.895
 21
29.4478
  0
LINE
  8
0
 10
-158.895
 20
29.4478
 11
-158.953
 21
29.627
  0
LINE
  8
0
 10
-158.953
 20
29.627
 11
-158.988
 21
29.812
  0
LINE
  8
0
 10
-158.988
 20
29.812
 11
-159
 21
30
  0
LINE
  8
0
 10
-159
 20
30
 11
-158.988
 21
30.188
  0
LINE
  8
0
 10
-158.988
 20
30.188
 11
-158.953
 21
30.373
  0
LINE
  8
0
 10
-158.953
 20
30.373
 11
-158.895
 21
30.5522
  0
LINE
  8
0
 10
-158.895
 20
30.5522
 11
-158.814
 21
30.7226
  0
LINE
  8
0
 10
-158.814
 20
30.7226
 11
-158.714
 21
30.8817
  0
LINE
  8
0
 10
-158.714
 20
30.8817
 11
-158.593
 21
31.0268
  0
LINE
  8
0
 10
-158.593
 20
31.0268
 11
-158.456
 21
31.1558
  0
LINE
  8
0
 10
-158.456
 20
31.1558
 11
-158.304
 21
31.2665
  0
LINE
  8
0
 10
-158.304
 20
31.2665
 11
-158.139
 21
31.3572
  0
LINE
  8
0
 10
-158.139
 20
31.3572
 11
-157.964
 21
31.4266
  0
LINE
  8
0
 10
-157.964
 20
31.4266
 11
-157.781
 21
31.4734
  0
LINE
  8
0
 10
-157.781
 20
31.4734
 11
-157.594
 21
31.497
  0
LINE
  8
0
 10
-157.594
 20
31.497
 11
-157.406
 21
31.497
  0
LINE
  8
0
 10
-157.406
 20
31.497
 11
-157.219
 21
31.4734
  0
LINE
  8
0
 10
-157.219
 20
31.4734
 11
-157.036
 21
31.4266
  0
LINE
  8
0
 10
-157.036
 20
31.4266
 11
-156.861
 21
31.3572
  0
LINE
  8
0
 10
-156.861
 20
31.3572
 11
-156.696
 21
31.2665
  0
LINE
  8
0
 10
-156.696
 20
31.2665
 11
-156.544
 21
31.1558
  0
LINE
  8
0
 10
-156.544
 20
31.1558
 11
-156.407
 21
31.0268
  0
LINE
  8
0
 10
-156.407
 20
31.0268
 11
-156.286
 21
30.8817
  0
LINE
  8
0
 10
-156.286
 20
30.8817
 11
-156.186
 21
30.7226
  0
LINE
  8
0
 10
-156.186
 20
30.7226
 11
-156.105
 21
30.5522
  0
LINE
  8
0
 10
-156.105
 20
30.5522
 11
-156.047
 21
30.373
  0
LINE
  8
0
 10
-156.047
 20
30.373
 11
-156.012
 21
30.188
  0
LINE
  8
0
 10
-156.012
 20
30.188
 11
-156
 21
30
  0
LINE
  8
0
 10
-156
 20
30
 11
-156.012
 21
29.812
  0
LINE
  8
0
 10
-156.012
 20
29.812
 11
-156.047
 21
29.627
  0
LINE
  8
0
 10
-156.047
 20
29.627
 11
-156.105
 21
29.4478
  0
LINE
  8
0
 10
-156.105
 20
29.4478
 11
-156.186
 21
29.2774
  0
LINE
  8
0
 10
-156.186
 20
29.2774
 11
-156.286
 21
29.1183
  0
LINE
  8
0
 10
-156.286
 20
29.1183
 11
-156.407
 21
28.9732
  0
LINE
  8
0
 10
-156.407
 20
28.9732
 11
-156.544
 21
28.8442
  0
LINE
  8
0
 10
-156.544
 20
28.8442
 11
-156.696
 21
28.7335
  0
LINE
  8
0
 10
-156.696
 20
28.7335
 11
-156.861
 21
28.6427
  0
LINE
  8
0
 10
-156.861
 20
28.6427
 11
-157.036
 21
28.5734
  0
LINE
  8
0
 10
-157.036
 20
28.5734
 11
-157.219
 21
28.5266
  0
LINE
  8
0
 10
-157.219
 20
28.5266
 11
-157.406
 21
28.503
  0
LINE
  8
0
 10
-157.406
 20
28.503
 11
-157.594
 21
28.503
  0
LINE
  8
0
 10
157.406
 20
28.503
 11
157.219
 21
28.5266
  0
LINE
  8
0
 10
157.219
 20
28.5266
 11
157.036
 21
28.5734
  0
LINE
  8
0
 10
157.036
 20
28.5734
 11
156.861
 21
28.6427
  0
LINE
  8
0
 10
156.861
 20
28.6427
 11
156.696
 21
28.7335
  0
LINE
  8
0
 10
156.696
 20
28.7335
 11
156.544
 21
28.8442
  0
LINE
  8
0
 10
156.544
 20
28.8442
 11
156.407
 21
28.9732
  0
LINE
  8
0
 10
156.407
 20
28.9732
 11
156.286
 21
29.1183
  0
LINE
  8
0
 10
156.286
 20
29.1183
 11
156.186
 21
29.2774
  0
LINE
  8
0
 10
156.186
 20
29.2774
 11
156.105
 21
29.4478
  0
LINE
  8
0
 10
156.105
 20
29.4478
 11
156.047
 21
29.627
  0
LINE
  8
0
 10
156.047
 20
29.627
 11
156.012
 21
29.812
  0
LINE
  8
0
 10
156.012
 20
29.812
 11
156
 21
30
  0
LINE
  8
0
 10
156
 20
30
 11
156.012
 21
30.188
  0
LINE
  8
0
 10
156.012
 20
30.188
 11
156.047
 21
30.373
  0
LINE
  8
0
 10
156.047
 20
30.373
 11
156.105
 21
30.5522
  0
LINE
  8
0
 10
156.105
 20
30.5522
 11
156.186
 21
30.7226
  0
LINE
  8
0
 10
156.186
 20
30.7226
 11
156.286
 21
30.8817
  0
LINE
  8
0
 10
156.286
 20
30.8817
 11
156.407
 21
31.0268
  0
LINE
  8
0
 10
156.407
 20
31.0268
 11
156.544
 21
31.1558
  0
LINE
  8
0
 10
156.544
 20
31.1558
 11
156.696
 21
31.2665
  0
LINE
  8
0
 10
156.696
 20
31.2665
 11
156.861
 21
31.3572
  0
LINE
  8
0
 10
156.861
 20
31.3572
 11
157.036
 21
31.4266
  0
LINE
  8
0
 10
157.036
 20
31.4266
 11
157.219
 21
31.4734
  0
LINE
  8
0
 10
157.219
 20
31.4734
 11
157.406
 21
31.497
  0
LINE
  8
0
 10
157.406
 20
31.497
 11
157.594
 21
31.497
  0
LINE
  8
0
 10
157.594
 20
31.497
 11
157.781
 21
31.4734
  0
LINE
  8
0
 10
157.781
 20
31.4734
 11
157.964
 21
31.4266
  0
LINE
  8
0
 10
157.964
 20
31.4266
 11
158.139
 21
31.3572
  0
LINE
  8
0
 10
158.139
 20
31.3572
 11
158.304
 21
31.2665
  0
LINE
  8
0
 10
158.304
 20
31.2665
 11
158.456
 21
31.1558
  0
LINE
  8
0
 10
158.456
 20
31.1558
 11
158.593
 21
31.0268
  0
LINE
  8
0
 10
158.593
 20
31.0268
 11
158.714
 21
30.8817
  0
LINE
  8
0
 10
158.714
 20
30.8817
 11
158.814
 21
30.7226
  0
LINE
  8
0
 10
158.814
 20
30.7226
 11
158.895
 21
30.5522
  0
LINE
  8
0
 10
158.895
 20
30.5522
 11
158.953
 21
30.373
  0
LINE
  8
0
 10
158.953
 20
30.373
 11
158.988
 21
30.188
  0
LINE
  8
0
 10
158.988
 20
30.188
 11
159
 21
30
  0
LINE
  8
0
 10
159
 20
30
 11
158.988
 21
29.812
  0
LINE
  8
0
 10
158.988
 20
29.812
 11
158.953
 21
29.627
  0
LINE
  8
0
 10
158.953
 20
29.627
 11
158.895
 21
29.4478
  0
LINE
  8
0
 10
158.895
 20
29.4478
 11
158.814
 21
29.2774
  0
LINE
  8
0
 10
158.814
 20
29.2774
 11
158.714
 21
29.1183
  0
LINE
  8
0
 10
158.714
 20
29.1183
 11
158.593
 21
28.9732
  0
LINE
  8
0
 10
158.593
 20
28.9732
 11
158.456
 21
28.8442
  0
LINE
  8
0
 10
158.456
 20
28.8442
 11
158.304
 21
28.7335
  0
LINE
  8
0
 10
158.304
 20
28.7335
 11
158.139
 21
28.6427
  0
LINE
  8
0
 10
158.139
 20
28.6427
 11
157.964
 21
28.5734
  0
LINE
  8
0
 10
157.964
 20
28.5734
 11
157.781
 21
28.5266
  0
LINE
  8
0
 10
157.781
 20
28.5266
 11
157.594
 21
28.503
  0
LINE
  8
0
 10
157.594
 20
28.503
 11
157.406
 21
28.503
  0
LINE
  8
0
 10
-157.688
 20
19.5059
 11
-158.062
 21
19.5531
  0
LINE
  8
0
 10
-158.062
 20
19.5531
 11
-158.427
 21
19.6468
  0
LINE
  8
0
 10
-158.427
 20
19.6468
 11
-158.777
 21
19.7855
  0
LINE
  8
0
 10
-158.777
 20
19.7855
 11
-159.107
 21
19.967
  0
LINE
  8
0
 10
-159.107
 20
19.967
 11
-159.412
 21
20.1884
  0
LINE
  8
0
 10
-159.412
 20
20.1884
 11
-159.687
 21
20.4464
  0
LINE
  8
0
 10
-159.687
 20
20.4464
 11
-159.927
 21
20.7366
  0
LINE
  8
0
 10
-159.927
 20
20.7366
 11
-160.129
 21
21.0547
  0
LINE
  8
0
 10
-160.129
 20
21.0547
 11
-160.289
 21
21.3956
  0
LINE
  8
0
 10
-160.289
 20
21.3956
 11
-160.406
 21
21.7539
  0
LINE
  8
0
 10
-160.406
 20
21.7539
 11
-160.476
 21
22.124
  0
LINE
  8
0
 10
-160.476
 20
22.124
 11
-160.5
 21
22.5
  0
LINE
  8
0
 10
-160.5
 20
22.5
 11
-160.476
 21
22.876
  0
LINE
  8
0
 10
-160.476
 20
22.876
 11
-160.406
 21
23.2461
  0
LINE
  8
0
 10
-160.406
 20
23.2461
 11
-160.289
 21
23.6044
  0
LINE
  8
0
 10
-160.289
 20
23.6044
 11
-160.129
 21
23.9453
  0
LINE
  8
0
 10
-160.129
 20
23.9453
 11
-159.927
 21
24.2634
  0
LINE
  8
0
 10
-159.927
 20
24.2634
 11
-159.687
 21
24.5536
  0
LINE
  8
0
 10
-159.687
 20
24.5536
 11
-159.412
 21
24.8115
  0
LINE
  8
0
 10
-159.412
 20
24.8115
 11
-159.107
 21
25.033
  0
LINE
  8
0
 10
-159.107
 20
25.033
 11
-158.777
 21
25.2145
  0
LINE
  8
0
 10
-158.777
 20
25.2145
 11
-158.427
 21
25.3532
  0
LINE
  8
0
 10
-158.427
 20
25.3532
 11
-158.062
 21
25.4469
  0
LINE
  8
0
 10
-158.062
 20
25.4469
 11
-157.688
 21
25.4941
  0
LINE
  8
0
 10
-157.688
 20
25.4941
 11
-157.312
 21
25.4941
  0
LINE
  8
0
 10
-157.312
 20
25.4941
 11
-156.938
 21
25.4469
  0
LINE
  8
0
 10
-156.938
 20
25.4469
 11
-156.573
 21
25.3532
  0
LINE
  8
0
 10
-156.573
 20
25.3532
 11
-156.223
 21
25.2145
  0
LINE
  8
0
 10
-156.223
 20
25.2145
 11
-155.893
 21
25.033
  0
LINE
  8
0
 10
-155.893
 20
25.033
 11
-155.588
 21
24.8115
  0
LINE
  8
0
 10
-155.588
 20
24.8115
 11
-155.313
 21
24.5536
  0
LINE
  8
0
 10
-155.313
 20
24.5536
 11
-155.073
 21
24.2634
  0
LINE
  8
0
 10
-155.073
 20
24.2634
 11
-154.871
 21
23.9453
  0
LINE
  8
0
 10
-154.871
 20
23.9453
 11
-154.711
 21
23.6044
  0
LINE
  8
0
 10
-154.711
 20
23.6044
 11
-154.594
 21
23.2461
  0
LINE
  8
0
 10
-154.594
 20
23.2461
 11
-154.524
 21
22.876
  0
LINE
  8
0
 10
-154.524
 20
22.876
 11
-154.5
 21
22.5
  0
LINE
  8
0
 10
-154.5
 20
22.5
 11
-154.524
 21
22.124
  0
LINE
  8
0
 10
-154.524
 20
22.124
 11
-154.594
 21
21.7539
  0
LINE
  8
0
 10
-154.594
 20
21.7539
 11
-154.711
 21
21.3956
  0
LINE
  8
0
 10
-154.711
 20
21.3956
 11
-154.871
 21
21.0547
  0
LINE
  8
0
 10
-154.871
 20
21.0547
 11
-155.073
 21
20.7366
  0
LINE
  8
0
 10
-155.073
 20
20.7366
 11
-155.313
 21
20.4464
  0
LINE
  8
0
 10
-155.313
 20
20.4464
 11
-155.588
 21
20.1884
  0
LINE
  8
0
 10
-155.588
 20
20.1884
 11
-155.893
 21
19.967
  0
LINE
  8
0
 10
-155.893
 20
19.967
 11
-156.223
 21
19.7855
  0
LINE
  8
0
 10
-156.223
 20
19.7855
 11
-156.573
 21
19.6468
  0
LINE
  8
0
 10
-156.573
 20
19.6468
 11
-156.938
 21
19.5531
  0
LINE
  8
0
 10
-156.938
 20
19.5531
 11
-157.312
 21
19.5059
  0
LINE
  8
0
 10
-157.312
 20
19.5059
 11
-157.688
 21
19.5059
  0
LINE
  8
0
 10
157.312
 20
19.5059
 11
156.938
 21
19.5531
  0
LINE
  8
0
 10
156.938
 20
19.5531
 11
156.573
 21
19.6468
  0
LINE
  8
0
 10
156.573
 20
19.6468
 11
156.223
 21
19.7855
  0
LINE
  8
0
 10
156.223
 20
19.7855
 11
155.893
 21
19.967
  0
LINE
  8
0
 10
155.893
 20
19.967
 11
155.588
 21
20.1884
  0
LINE
  8
0
 10
155.588
 20
20.1884
 11
155.313
 21
20.4464
  0
LINE
  8
0
 10
155.313
 20
20.4464
 11
155.073
 21
20.7366
  0
LINE
  8
0
 10
155.073
 20
20.7366
 11
154.871
 21
21.0547
  0
LINE
  8
0
 10
154.871
 20
21.0547
 11
154.711
 21
21.3956
  0
LINE
  8
0
 10
154.711
 20
21.3956
 11
154.594
 21
21.7539
  0
LINE
  8
0
 10
154.594
 20
21.7539
 11
154.524
 21
22.124
  0
LINE
  8
0
 10
154.524
 20
22.124
 11
154.5
 21
22.5
  0
LINE
  8
0
 10
154.5
 20
22.5
 11
154.524
 21
22.876
  0
LINE
  8
0
 10
154.524
 20
22.876
 11
154.594
 21
23.2461
  0
LINE
  8
0
 10
154.594
 20
23.2461
 11
154.711
 21
23.6044
  0
LINE
  8
0
 10
154.711
 20
23.6044
 11
154.871
 21
23.9453
  0
LINE
  8
0
 10
154.871
 20
23.9453
 11
155.073
 21
24.2634
  0
LINE
  8
0
 10
155.073
 20
24.2634
 11
155.313
 21
24.5536
  0
LINE
  8
0
 10
155.313
 20
24.5536
 11
155.588
 21
24.8115
  0
LINE
  8
0
 10
155.588
 20
24.8115
 11
155.893
 21
25.033
  0
LINE
  8
0
 10
155.893
 20
25.033
 11
156.223
 21
25.2145
  0
LINE
  8
0
 10
156.223
 20
25.2145
 11
156.573
 21
25.3532
  0
LINE
  8
0
 10
156.573
 20
25.3532
 11
156.938
 21
25.4469
  0
LINE
  8
0
 10
156.938
 20
25.4469
 11
157.312
 21
25.4941
  0
LINE
  8
0
 10
157.312
 20
25.4941
 11
157.688
 21
25.4941
  0
LINE
  8
0
 10
157.688
 20
25.4941
 11
158.062
 21
25.4469
  0
LINE
  8
0
 10
158.062
 20
25.4469
 11
158.427
 21
25.3532
  0
LINE
  8
0
 10
158.427
 20
25.3532
 11
158.777
 21
25.2145
  0
LINE
  8
0
 10
158.777
 20
25.2145
 11
159.107
 21
25.033
  0
LINE
  8
0
 10
159.107
 20
25.033
 11
159.412
 21
24.8115
  0
LINE
  8
0
 10
159.412
 20
24.8115
 11
159.687
 21
24.5536
  0
LINE
  8
0
 10
159.687
 20
24.5536
 11
159.927
 21
24.2634
  0
LINE
  8
0
 10
159.927
 20
24.2634
 11
160.129
 21
23.9453
  0
LINE
  8
0
 10
160.129
 20
23.9453
 11
160.289
 21
23.6044
  0
LINE
  8
0
 10
160.289
 20
23.6044
 11
160.406
 21
23.2461
  0
LINE
  8
0
 10
160.406
 20
23.2461
 11
160.476
 21
22.876
  0
LINE
  8
0
 10
160.476
 20
22.876
 11
160.5
 21
22.5
  0
LINE
  8
0
 10
160.5
 20
22.5
 11
160.476
 21
22.124
  0
LINE
  8
0
 10
160.476
 20
22.124
 11
160.406
 21
21.7539
  0
LINE
  8
0
 10
160.406
 20
21.7539
 11
160.289
 21
21.3956
  0
LINE
  8
0
 10
160.289
 20
21.3956
 11
160.129
 21
21.0547
  0
LINE
  8
0
 10
160.129
 20
21.0547
 11
159.927
 21
20.7366
  0
LINE
  8
0
 10
159.927
 20
20.7366
 11
159.687
 21
20.4464
  0
LINE
  8
0
 10
159.687
 20
20.4464
 11
159.412
 21
20.1884
  0
LINE
  8
0
 10
159.412
 20
20.1884
 11
159.107
 21
19.967
  0
LINE
  8
0
 10
159.107
 20
19.967
 11
158.777
 21
19.7855
  0
LINE
  8
0
 10
158.777
 20
19.7855
 11
158.427
 21
19.6468
  0
LINE
  8
0
 10
158.427
 20
19.6468
 11
158.062
 21
19.5531
  0
LINE
  8
0
 10
158.062
 20
19.5531
 11
157.688
 21
19.5059
  0
LINE
  8
0
 10
157.688
 20
19.5059
 11
157.312
 21
19.5059
  0
LINE
  8
0
 10
-157.594
 20
13.5029
 11
-157.781
 21
13.5266
  0
LINE
  8
0
 10
-157.781
 20
13.5266
 11
-157.964
 21
13.5734
  0
LINE
  8
0
 10
-157.964
 20
13.5734
 11
-158.139
 21
13.6427
  0
LINE
  8
0
 10
-158.139
 20
13.6427
 11
-158.304
 21
13.7335
  0
LINE
  8
0
 10
-158.304
 20
13.7335
 11
-158.456
 21
13.8442
  0
LINE
  8
0
 10
-158.456
 20
13.8442
 11
-158.593
 21
13.9732
  0
LINE
  8
0
 10
-158.593
 20
13.9732
 11
-158.714
 21
14.1183
  0
LINE
  8
0
 10
-158.714
 20
14.1183
 11
-158.814
 21
14.2774
  0
LINE
  8
0
 10
-158.814
 20
14.2774
 11
-158.895
 21
14.4478
  0
LINE
  8
0
 10
-158.895
 20
14.4478
 11
-158.953
 21
14.627
  0
LINE
  8
0
 10
-158.953
 20
14.627
 11
-158.988
 21
14.812
  0
LINE
  8
0
 10
-158.988
 20
14.812
 11
-159
 21
15
  0
LINE
  8
0
 10
-159
 20
15
 11
-158.988
 21
15.188
  0
LINE
  8
0
 10
-158.988
 20
15.188
 11
-158.953
 21
15.373
  0
LINE
  8
0
 10
-158.953
 20
15.373
 11
-158.895
 21
15.5522
  0
LINE
  8
0
 10
-158.895
 20
15.5522
 11
-158.814
 21
15.7226
  0
LINE
  8
0
 10
-158.814
 20
15.7226
 11
-158.714
 21
15.8817
  0
LINE
  8
0
 10
-158.714
 20
15.8817
 11
-158.593
 21
16.0268
  0
LINE
  8
0
 10
-158.593
 20
16.0268
 11
-158.456
 21
16.1558
  0
LINE
  8
0
 10
-158.456
 20
16.1558
 11
-158.304
 21
16.2665
  0
LINE
  8
0
 10
-158.304
 20
16.2665
 11
-158.139
 21
16.3572
  0
LINE
  8
0
 10
-158.139
 20
16.3572
 11
-157.964
 21
16.4266
  0
LINE
  8
0
 10
-157.964
 20
16.4266
 11
-157.781
 21
16.4734
  0
LINE
  8
0
 10
-157.781
 20
16.4734
 11
-157.594
 21
16.497
  0
LINE
  8
0
 10
-157.594
 20
16.497
 11
-157.406
 21
16.497
  0
LINE
  8
0
 10
-157.406
 20
16.497
 11
-157.219
 21
16.4734
  0
LINE
  8
0
 10
-157.219
 20
16.4734
 11
-157.036
 21
16.4266
  0
LINE
  8
0
 10
-157.036
 20
16.4266
 11
-156.861
 21
16.3572
  0
LINE
  8
0
 10
-156.861
 20
16.3572
 11
-156.696
 21
16.2665
  0
LINE
  8
0
 10
-156.696
 20
16.2665
 11
-156.544
 21
16.1558
  0
LINE
  8
0
 10
-156.544
 20
16.1558
 11
-156.407
 21
16.0268
  0
LINE
  8
0
 10
-156.407
 20
16.0268
 11
-156.286
 21
15.8817
  0
LINE
  8
0
 10
-156.286
 20
15.8817
 11
-156.186
 21
15.7226
  0
LINE
  8
0
 10
-156.186
 20
15.7226
 11
-156.105
 21
15.5522
  0
LINE
  8
0
 10
-156.105
 20
15.5522
 11
-156.047
 21
15.373
  0
LINE
  8
0
 10
-156.047
 20
15.373
 11
-156.012
 21
15.188
  0
LINE
  8
0
 10
-156.012
 20
15.188
 11
-156
 21
15
  0
LINE
  8
0
 10
-156
 20
15
 11
-156.012
 21
14.812
  0
LINE
  8
0
 10
-156.012
 20
14.812
 11
-156.047
 21
14.627
  0
LINE
  8
0
 10
-156.047
 20
14.627
 11
-156.105
 21
14.4478
  0
LINE
  8
0
 10
-156.105
 20
14.4478
 11
-156.186
 21
14.2774
  0
LINE
  8
0
 10
-156.186
 20
14.2774
 11
-156.286
 21
14.1183
  0
LINE
  8
0
 10
-156.286
 20
14.1183
 11
-156.407
 21
13.9732
  0
LINE
  8
0
 10
-156.407
 20
13.9732
 11
-156.544
 21
13.8442
  0
LINE
  8
0
 10
-156.544
 20
13.8442
 11
-156.696
 21
13.7335
  0
LINE
  8
0
 10
-156.696
 20
13.7335
 11
-156.861
 21
13.6427
  0
LINE
  8
0
 10
-156.861
 20
13.6427
 11
-157.036
 21
13.5734
  0
LINE
  8
0
 10
-157.036
 20
13.5734
 11
-157.219
 21
13.5266
  0
LINE
  8
0
 10
-157.219
 20
13.5266
 11
-157.406
 21
13.5029
  0
LINE
  8
0
 10
-157.406
 20
13.5029
 11
-157.594
 21
13.5029
  0
LINE
  8
0
 10
157.406
 20
13.5029
 11
157.219
 21
13.5266
  0
LINE
  8
0
 10
157.219
 20
13.5266
 11
157.036
 21
13.5734
  0
LINE
  8
0
 10
157.036
 20
13.5734
 11
156.861
 21
13.6427
  0
LINE
  8
0
 10
156.861
 20
13.6427
 11
156.696
 21
13.7335
  0
LINE
  8
0
 10
156.696
 20
13.7335
 11
156.544
 21
13.8442
  0
LINE
  8
0
 10
156.544
 20
13.8442
 11
156.407
 21
13.9732
  0
LINE
  8
0
 10
156.407
 20
13.9732
 11
156.286
 21
14.1183
  0
LINE
  8
0
 10
156.286
 20
14.1183
 11
156.186
 21
14.2774
  0
LINE
  8
0
 10
156.186
 20
14.2774
 11
156.105
 21
14.4478
  0
LINE
  8
0
 10
156.105
 20
14.4478
 11
156.047
 21
14.627
  0
LINE
  8
0
 10
156.047
 20
14.627
 11
156.012
 21
14.812
  0
LINE
  8
0
 10
156.012
 20
14.812
 11
156
 21
15
  0
LINE
  8
0
 10
156
 20
15
 11
156.012
 21
15.188
  0
LINE
  8
0
 10
156.012
 20
15.188
 11
156.047
 21
15.373
  0
LINE
  8
0
 10
156.047
 20
15.373
 11
156.105
 21
15.5522
  0
LINE
  8
0
 10
156.105
 20
15.5522
 11
156.186
 21
15.7226
  0
LINE
  8
0
 10
156.186
 20
15.7226
 11
156.286
 21
15.8817
  0
LINE
  8
0
 10
156.286
 20
15.8817
 11
156.407
 21
16.0268
  0
LINE
  8
0
 10
156.407
 20
16.0268
 11
156.544
 21
16.1558
  0
LINE
  8
0
 10
156.544
 20
16.1558
 11
156.696
 21
16.2665
  0
LINE
  8
0
 10
156.696
 20
16.2665
 11
156.861
 21
16.3572
  0
LINE
  8
0
 10
156.861
 20
16.3572
 11
157.036
 21
16.4266
  0
LINE
  8
0
 10
157.036
 20
16.4266
 11
157.219
 21
16.4734
  0
LINE
  8
0
 10
157.219
 20
16.4734
 11
157.406
 21
16.497
  0
LINE
  8
0
 10
157.406
 20
16.497
 11
157.594
 21
16.497
  0
LINE
  8
0
 10
157.594
 20
16.497
 11
157.781
 21
16.4734
  0
LINE
  8
0
 10
157.781
 20
16.4734
 11
157.964
 21
16.4266
  0
LINE
  8
0
 10
157.964
 20
16.4266
 11
158.139
 21
16.3572
  0
LINE
  8
0
 10
158.139
 20
16.3572
 11
158.304
 21
16.2665
  0
LINE
  8
0
 10
158.304
 20
16.2665
 11
158.456
 21
16.1558
  0
LINE
  8
0
 10
158.456
 20
16.1558
 11
158.593
 21
16.0268
  0
LINE
  8
0
 10
158.593
 20
16.0268
 11
158.714
 21
15.8817
  0
LINE
  8
0
 10
158.714
 20
15.8817
 11
158.814
 21
15.7226
  0
LINE
  8
0
 10
158.814
 20
15.7226
 11
158.895
 21
15.5522
  0
LINE
  8
0
 10
158.895
 20
15.5522
 11
158.953
 21
15.373
  0
LINE
  8
0
 10
158.953
 20
15.373
 11
158.988
 21
15.188
  0
LINE
  8
0
 10
158.988
 20
15.188
 11
159
 21
15
  0
LINE
  8
0
 10
159
 20
15
 11
158.988
 21
14.812
  0
LINE
  8
0
 10
158.988
 20
14.812
 11
158.953
 21
14.627
  0
LINE
  8
0
 10
158.953
 20
14.627
 11
158.895
 21
14.4478
  0
LINE
  8
0
 10
158.895
 20
14.4478
 11
158.814
 21
14.2774
  0
LINE
  8
0
 10
158.814
 20
14.2774
 11
158.714
 21
14.1183
  0
LINE
  8
0
 10
158.714
 20
14.1183
 11
158.593
 21
13.9732
  0
LINE
  8
0
 10
158.593
 20
13.9732
 11
158.456
 21
13.8442
  0
LINE
  8
0
 10
158.456
 20
13.8442
 11
158.304
 21
13.7335
  0
LINE
  8
0
 10
158.304
 20
13.7335
 11
158.139
 21
13.6427
  0
LINE
  8
0
 10
158.139
 20
13.6427
 11
157.964
 21
13.5734
  0
LINE
  8
0
 10
157.964
 20
13.5734
 11
157.781
 21
13.5266
  0
LINE
  8
0
 10
157.781
 20
13.5266
 11
157.594
 21
13.5029
  0
LINE
  8
0
 10
157.594
 20
13.5029
 11
157.406
 21
13.5029
  0
LINE
  8
0
 10
157.312
 20
4.50591
 11
156.938
 21
4.55313
  0
LINE
  8
0
 10
156.938
 20
4.55313
 11
156.573
 21
4.64682
  0
LINE
  8
0
 10
156.573
 20
4.64682
 11
156.223
 21
4.78551
  0
LINE
  8
0
 10
156.223
 20
4.78551
 11
155.893
 21
4.96701
  0
LINE
  8
0
 10
155.893
 20
4.96701
 11
155.588
 21
5.18845
  0
LINE
  8
0
 10
155.588
 20
5.18845
 11
155.313
 21
5.44635
  0
LINE
  8
0
 10
155.313
 20
5.44635
 11
155.073
 21
5.73663
  0
LINE
  8
0
 10
155.073
 20
5.73663
 11
154.871
 21
6.05473
  0
LINE
  8
0
 10
154.871
 20
6.05473
 11
154.711
 21
6.39561
  0
LINE
  8
0
 10
154.711
 20
6.39561
 11
154.594
 21
6.75392
  0
LINE
  8
0
 10
154.594
 20
6.75392
 11
154.524
 21
7.12399
  0
LINE
  8
0
 10
154.524
 20
7.12399
 11
154.5
 21
7.5
  0
LINE
  8
0
 10
154.5
 20
7.5
 11
154.524
 21
7.87599
  0
LINE
  8
0
 10
154.524
 20
7.87599
 11
154.594
 21
8.24606
  0
LINE
  8
0
 10
154.594
 20
8.24606
 11
154.711
 21
8.60437
  0
LINE
  8
0
 10
154.711
 20
8.60437
 11
154.871
 21
8.94525
  0
LINE
  8
0
 10
154.871
 20
8.94525
 11
155.073
 21
9.26335
  0
LINE
  8
0
 10
155.073
 20
9.26335
 11
155.313
 21
9.55363
  0
LINE
  8
0
 10
155.313
 20
9.55363
 11
155.588
 21
9.81154
  0
LINE
  8
0
 10
155.588
 20
9.81154
 11
155.893
 21
10.033
  0
LINE
  8
0
 10
155.893
 20
10.033
 11
156.223
 21
10.2145
  0
LINE
  8
0
 10
156.223
 20
10.2145
 11
156.573
 21
10.3532
  0
LINE
  8
0
 10
156.573
 20
10.3532
 11
156.938
 21
10.4469
  0
LINE
  8
0
 10
156.938
 20
10.4469
 11
157.312
 21
10.4941
  0
LINE
  8
0
 10
157.312
 20
10.4941
 11
157.688
 21
10.4941
  0
LINE
  8
0
 10
157.688
 20
10.4941
 11
158.062
 21
10.4469
  0
LINE
  8
0
 10
158.062
 20
10.4469
 11
158.427
 21
10.3532
  0
LINE
  8
0
 10
158.427
 20
10.3532
 11
158.777
 21
10.2145
  0
LINE
  8
0
 10
158.777
 20
10.2145
 11
159.107
 21
10.033
  0
LINE
  8
0
 10
159.107
 20
10.033
 11
159.412
 21
9.81154
  0
LINE
  8
0
 10
159.412
 20
9.81154
 11
159.687
 21
9.55363
  0
LINE
  8
0
 10
159.687
 20
9.55363
 11
159.927
 21
9.26335
  0
LINE
  8
0
 10
159.927
 20
9.26335
 11
160.129
 21
8.94525
  0
LINE
  8
0
 10
160.129
 20
8.94525
 11
160.289
 21
8.60437
  0
LINE
  8
0
 10
160.289
 20
8.60437
 11
160.406
 21
8.24606
  0
LINE
  8
0
 10
160.406
 20
8.24606
 11
160.476
 21
7.87599
  0
LINE
  8
0
 10
160.476
 20
7.87599
 11
160.5
 21
7.5
  0
LINE
  8
0
 10
160.5
 20
7.5
 11
160.476
 21
7.12399
  0
LINE
  8
0
 10
160.476
 20
7.12399
 11
160.406
 21
6.75392
  0
LINE
  8
0
 10
160.406
 20
6.75392
 11
160.289
 21
6.39561
  0
LINE
  8
0
 10
160.289
 20
6.39561
 11
160.129
 21
6.05473
  0
LINE
  8
0
 10
160.129
 20
6.05473
 11
159.927
 21
5.73663
  0
LINE
  8
0
 10
159.927
 20
5.73663
 11
159.687
 21
5.44635
  0
LINE
  8
0
 10
159.687
 20
5.44635
 11
159.412
 21
5.18845
  0
LINE
  8
0
 10
159.412
 20
5.18845
 11
159.107
 21
4.96701
  0
LINE
  8
0
 10
159.107
 20
4.96701
 11
158.777
 21
4.78551
  0
LINE
  8
0
 10
158.777
 20
4.78551
 11
158.427
 21
4.64682
  0
LINE
  8
0
 10
158.427
 20
4.64682
 11
158.062
 21
4.55313
  0
LINE
  8
0
 10
158.062
 20
4.55313
 11
157.688
 21
4.50591
  0
LINE
  8
0
 10
157.688
 20
4.50591
 11
157.312
 21
4.50591
  0
LINE
  8
0
 10
-157.688
 20
4.50591
 11
-158.062
 21
4.55313
  0
LINE
  8
0
 10
-158.062
 20
4.55313
 11
-158.427
 21
4.64682
  0
LINE
  8
0
 10
-158.427
 20
4.64682
 11
-158.777
 21
4.78551
  0
LINE
  8
0
 10
-158.777
 20
4.78551
 11
-159.107
 21
4.96701
  0
LINE
  8
0
 10
-159.107
 20
4.96701
 11
-159.412
 21
5.18845
  0
LINE
  8
0
 10
-159.412
 20
5.18845
 11
-159.687
 21
5.44635
  0
LINE
  8
0
 10
-159.687
 20
5.44635
 11
-159.927
 21
5.73663
  0
LINE
  8
0
 10
-159.927
 20
5.73663
 11
-160.129
 21
6.05473
  0
LINE
  8
0
 10
-160.129
 20
6.05473
 11
-160.289
 21
6.39561
  0
LINE
  8
0
 10
-160.289
 20
6.39561
 11
-160.406
 21
6.75392
  0
LINE
  8
0
 10
-160.406
 20
6.75392
 11
-160.476
 21
7.12399
  0
LINE
  8
0
 10
-160.476
 20
7.12399
 11
-160.5
 21
7.5
  0
LINE
  8
0
 10
-160.5
 20
7.5
 11
-160.476
 21
7.87599
  0
LINE
  8
0
 10
-160.476
 20
7.87599
 11
-160.406
 21
8.24606
  0
LINE
  8
0
 10
-160.406
 20
8.24606
 11
-160.289
 21
8.60437
  0
LINE
  8
0
 10
-160.289
 20
8.60437
 11
-160.129
 21
8.94525
  0
LINE
  8
0
 10
-160.129
 20
8.94525
 11
-159.927
 21
9.26335
  0
LINE
  8
0
 10
-159.927
 20
9.26335
 11
-159.687
 21
9.55363
  0
LINE
  8
0
 10
-159.687
 20
9.55363
 11
-159.412
 21
9.81154
  0
LINE
  8
0
 10
-159.412
 20
9.81154
 11
-159.107
 21
10.033
  0
LINE
  8
0
 10
-159.107
 20
10.033
 11
-158.777
 21
10.2145
  0
LINE
  8
0
 10
-158.777
 20
10.2145
 11
-158.427
 21
10.3532
  0
LINE
  8
0
 10
-158.427
 20
10.3532
 11
-158.062
 21
10.4469
  0
LINE
  8
0
 10
-158.062
 20
10.4469
 11
-157.688
 21
10.4941
  0
LINE
  8
0
 10
-157.688
 20
10.4941
 11
-157.312
 21
10.4941
  0
LINE
  8
0
 10
-157.312
 20
10.4941
 11
-156.938
 21
10.4469
  0
LINE
  8
0
 10
-156.938
 20
10.4469
 11
-156.573
 21
10.3532
  0
LINE
  8
0
 10
-156.573
 20
10.3532
 11
-156.223
 21
10.2145
  0
LINE
  8
0
 10
-156.223
 20
10.2145
 11
-155.893
 21
10.033
  0
LINE
  8
0
 10
-155.893
 20
10.033
 11
-155.588
 21
9.81154
  0
LINE
  8
0
 10
-155.588
 20
9.81154
 11
-155.313
 21
9.55363
  0
LINE
  8
0
 10
-155.313
 20
9.55363
 11
-155.073
 21
9.26335
  0
LINE
  8
0
 10
-155.073
 20
9.26335
 11
-154.871
 21
8.94525
  0
LINE
  8
0
 10
-154.871
 20
8.94525
 11
-154.711
 21
8.60437
  0
LINE
  8
0
 10
-154.711
 20
8.60437
 11
-154.594
 21
8.24606
  0
LINE
  8
0
 10
-154.594
 20
8.24606
 11
-154.524
 21
7.87599
  0
LINE
  8
0
 10
-154.524
 20
7.87599
 11
-154.5
 21
7.5
  0
LINE
  8
0
 10
-154.5
 20
7.5
 11
-154.524
 21
7.12399
  0
LINE
  8
0
 10
-154.524
 20
7.12399
 11
-154.594
 21
6.75392
  0
LINE
  8
0
 10
-154.594
 20
6.75392
 11
-154.711
 21
6.39561
  0
LINE
  8
0
 10
-154.711
 20
6.39561
 11
-154.871
 21
6.05473
  0
LINE
  8
0
 10
-154.871
 20
6.05473
 11
-155.073
 21
5.73663
  0
LINE
  8
0
 10
-155.073
 20
5.73663
 11
-155.313
 21
5.44635
  0
LINE
  8
0
 10
-155.313
 20
5.44635
 11
-155.588
 21
5.18845
  0
LINE
  8
0
 10
-155.588
 20
5.18845
 11
-155.893
 21
4.96701
  0
LINE
  8
0
 10
-155.893
 20
4.96701
 11
-156.223
 21
4.78551
  0
LINE
  8
0
 10
-156.223
 20
4.78551
 11
-156.573
 21
4.64682
  0
LINE
  8
0
 10
-156.573
 20
4.64682
 11
-156.938
 21
4.55313
  0
LINE
  8
0
 10
-156.938
 20
4.55313
 11
-157.312
 21
4.50591
  0
LINE
  8
0
 10
-157.312
 20
4.50591
 11
-157.688
 21
4.50591
  0
LINE
  8
0
 10
-157.594
 20
-1.49704
 11
-157.781
 21
-1.47342
  0
LINE
  8
0
 10
-157.781
 20
-1.47342
 11
-157.964
 21
-1.42657
  0
LINE
  8
0
 10
-157.964
 20
-1.42657
 11
-158.139
 21
-1.35724
  0
LINE
  8
0
 10
-158.139
 20
-1.35724
 11
-158.304
 21
-1.26648
  0
LINE
  8
0
 10
-158.304
 20
-1.26648
 11
-158.456
 21
-1.15576
  0
LINE
  8
0
 10
-158.456
 20
-1.15576
 11
-158.593
 21
-1.02681
  0
LINE
  8
0
 10
-158.593
 20
-1.02681
 11
-158.714
 21
-0.881668
  0
LINE
  8
0
 10
-158.714
 20
-0.881668
 11
-158.814
 21
-0.722626
  0
LINE
  8
0
 10
-158.814
 20
-0.722626
 11
-158.895
 21
-0.552185
  0
LINE
  8
0
 10
-158.895
 20
-0.552185
 11
-158.953
 21
-0.373032
  0
LINE
  8
0
 10
-158.953
 20
-0.373032
 11
-158.988
 21
-0.187988
  0
LINE
  8
0
 10
-158.988
 20
-0.187988
 11
-159
 21
0
  0
LINE
  8
0
 10
-159
 20
0
 11
-158.988
 21
0.187988
  0
LINE
  8
0
 10
-158.988
 20
0.187988
 11
-158.953
 21
0.373032
  0
LINE
  8
0
 10
-158.953
 20
0.373032
 11
-158.895
 21
0.552185
  0
LINE
  8
0
 10
-158.895
 20
0.552185
 11
-158.814
 21
0.722626
  0
LINE
  8
0
 10
-158.814
 20
0.722626
 11
-158.714
 21
0.881668
  0
LINE
  8
0
 10
-158.714
 20
0.881668
 11
-158.593
 21
1.02681
  0
LINE
  8
0
 10
-158.593
 20
1.02681
 11
-158.456
 21
1.15576
  0
LINE
  8
0
 10
-158.456
 20
1.15576
 11
-158.304
 21
1.26648
  0
LINE
  8
0
 10
-158.304
 20
1.26648
 11
-158.139
 21
1.35724
  0
LINE
  8
0
 10
-158.139
 20
1.35724
 11
-157.964
 21
1.42657
  0
LINE
  8
0
 10
-157.964
 20
1.42657
 11
-157.781
 21
1.47342
  0
LINE
  8
0
 10
-157.781
 20
1.47342
 11
-157.594
 21
1.49704
  0
LINE
  8
0
 10
-157.594
 20
1.49704
 11
-157.406
 21
1.49704
  0
LINE
  8
0
 10
-157.406
 20
1.49704
 11
-157.219
 21
1.47342
  0
LINE
  8
0
 10
-157.219
 20
1.47342
 11
-157.036
 21
1.42657
  0
LINE
  8
0
 10
-157.036
 20
1.42657
 11
-156.861
 21
1.35724
  0
LINE
  8
0
 10
-156.861
 20
1.35724
 11
-156.696
 21
1.26648
  0
LINE
  8
0
 10
-156.696
 20
1.26648
 11
-156.544
 21
1.15576
  0
LINE
  8
0
 10
-156.544
 20
1.15576
 11
-156.407
 21
1.02681
  0
LINE
  8
0
 10
-156.407
 20
1.02681
 11
-156.286
 21
0.881668
  0
LINE
  8
0
 10
-156.286
 20
0.881668
 11
-156.186
 21
0.722626
  0
LINE
  8
0
 10
-156.186
 20
0.722626
 11
-156.105
 21
0.552185
  0
LINE
  8
0
 10
-156.105
 20
0.552185
 11
-156.047
 21
0.373032
  0
LINE
  8
0
 10
-156.047
 20
0.373032
 11
-156.012
 21
0.187988
  0
LINE
  8
0
 10
-156.012
 20
0.187988
 11
-156
 21
0
  0
LINE
  8
0
 10
-156
 20
0
 11
-156.012
 21
-0.187988
  0
LINE
  8
0
 10
-156.012
 20
-0.187988
 11
-156.047
 21
-0.373032
  0
LINE
  8
0
 10
-156.047
 20
-0.373032
 11
-156.105
 21
-0.552185
  0
LINE
  8
0
 10
-156.105
 20
-0.552185
 11
-156.186
 21
-0.722626
  0
LINE
  8
0
 10
-156.186
 20
-0.722626
 11
-156.286
 21
-0.881668
  0
LINE
  8
0
 10
-156.286
 20
-0.881668
 11
-156.407
 21
-1.02681
  0
LINE
  8
0
 10
-156.407
 20
-1.02681
 11
-156.544
 21
-1.15576
  0
LINE
  8
0
 10
-156.544
 20
-1.15576
 11
-156.696
 21
-1.26648
  0
LINE
  8
0
 10
-156.696
 20
-1.26648
 11
-156.861
 21
-1.35724
  0
LINE
  8
0
 10
-156.861
 20
-1.35724
 11
-157.036
 21
-1.42657
  0
LINE
  8
0
 10
-157.036
 20
-1.42657
 11
-157.219
 21
-1.47342
  0
LINE
  8
0
 10
-157.219
 20
-1.47342
 11
-157.406
 21
-1.49704
  0
LINE
  8
0
 10
-157.406
 20
-1.49704
 11
-157.594
 21
-1.49704
  0
LINE
  8
0
 10
157.406
 20
-1.49704
 11
157.219
 21
-1.47342
  0
LINE
  8
0
 10
157.219
 20
-1.47342
 11
157.036
 21
-1.42657
  0
LINE
  8
0
 10
157.036
 20
-1.42657
 11
156.861
 21
-1.35724
  0
LINE
  8
0
 10
156.861
 20
-1.35724
 11
156.696
 21
-1.26648
  0
LINE
  8
0
 10
156.696
 20
-1.26648
 11
156.544
 21
-1.15576
  0
LINE
  8
0
 10
156.544
 20
-1.15576
 11
156.407
 21
-1.02681
  0
LINE
  8
0
 10
156.407
 20
-1.02681
 11
156.286
 21
-0.881668
  0
LINE
  8
0
 10
156.286
 20
-0.881668
 11
156.186
 21
-0.722626
  0
LINE
  8
0
 10
156.186
 20
-0.722626
 11
156.105
 21
-0.552185
  0
LINE
  8
0
 10
156.105
 20
-0.552185
 11
156.047
 21
-0.373032
  0
LINE
  8
0
 10
156.047
 20
-0.373032
 11
156.012
 21
-0.187988
  0
LINE
  8
0
 10
156.012
 20
-0.187988
 11
156
 21
0
  0
LINE
  8
0
 10
156
 20
0
 11
156.012
 21
0.187988
  0
LINE
  8
0
 10
156.012
 20
0.187988
 11
156.047
 21
0.373032
  0
LINE
  8
0
 10
156.047
 20
0.373032
 11
156.105
 21
0.552185
  0
LINE
  8
0
 10
156.105
 20
0.552185
 11
156.186
 21
0.722626
  0
LINE
  8
0
 10
156.186
 20
0.722626
 11
156.286
 21
0.881668
  0
LINE
  8
0
 10
156.286
 20
0.881668
 11
156.407
 21
1.02681
  0
LINE
  8
0
 10
156.407
 20
1.02681
 11
156.544
 21
1.15576
  0
LINE
  8
0
 10
156.544
 20
1.15576
 11
156.696
 21
1.26648
  0
LINE
  8
0
 10
156.696
 20
1.26648
 11
156.861
 21
1.35724
  0
LINE
  8
0
 10
156.861
 20
1.35724
 11
157.036
 21
1.42657
  0
LINE
  8
0
 10
157.036
 20
1.42657
 11
157.219
 21
1.47342
  0
LINE
  8
0
 10
157.219
 20
1.47342
 11
157.406
 21
1.49704
  0
LINE
  8
0
 10
157.406
 20
1.49704
 11
157.594
 21
1.49704
  0
LINE
  8
0
 10
157.594
 20
1.49704
 11
157.781
 21
1.47342
  0
LINE
  8
0
 10
157.781
 20
1.47342
 11
157.964
 21
1.42657
  0
LINE
  8
0
 10
157.964
 20
1.42657
 11
158.139
 21
1.35724
  0
LINE
  8
0
 10
158.139
 20
1.35724
 11
158.304
 21
1.26648
  0
LINE
  8
0
 10
158.304
 20
1.26648
 11
158.456
 21
1.15576
  0
LINE
  8
0
 10
158.456
 20
1.15576
 11
158.593
 21
1.02681
  0
LINE
  8
0
 10
158.593
 20
1.02681
 11
158.714
 21
0.881668
  0
LINE
  8
0
 10
158.714
 20
0.881668
 11
158.814
 21
0.722626
  0
LINE
  8
0
 10
158.814
 20
0.722626
 11
158.895
 21
0.552185
  0
LINE
  8
0
 10
158.895
 20
0.552185
 11
158.953
 21
0.373032
  0
LINE
  8
0
 10
158.953
 20
0.373032
 11
158.988
 21
0.187988
  0
LINE
  8
0
 10
158.988
 20
0.187988
 11
159
 21
0
  0
LINE
  8
0
 10
159
 20
0
 11
158.988
 21
-0.187988
  0
LINE
  8
0
 10
158.988
 20
-0.187988
 11
158.953
 21
-0.373032
  0
LINE
  8
0
 10
158.953
 20
-0.373032
 11
158.895
 21
-0.552185
  0
LINE
  8
0
 10
158.895
 20
-0.552185
 11
158.814
 21
-0.722626
  0
LINE
  8
0
 10
158.814
 20
-0.722626
 11
158.714
 21
-0.881668
  0
LINE
  8
0
 10
158.714
 20
-0.881668
 11
158.593
 21
-1.02681
  0
LINE
  8
0
 10
158.593
 20
-1.02681
 11
158.456
 21
-1.15576
  0
LINE
  8
0
 10
158.456
 20
-1.15576
 11
158.304
 21
-1.26648
  0
LINE
  8
0
 10
158.304
 20
-1.26648
 11
158.139
 21
-1.35724
  0
LINE
  8
0
 10
158.139
 20
-1.35724
 11
157.964
 21
-1.42657
  0
LINE
  8
0
 10
157.964
 20
-1.42657
 11
157.781
 21
-1.47342
  0
LINE
  8
0
 10
157.781
 20
-1.47342
 11
157.594
 21
-1.49704
  0
LINE
  8
0
 10
157.594
 20
-1.49704
 11
157.406
 21
-1.49704
  0
LINE
  8
0
 10
157.312
 20
-10.4941
 11
156.938
 21
-10.4469
  0
LINE
  8
0
 10
156.938
 20
-10.4469
 11
156.573
 21
-10.3532
  0
LINE
  8
0
 10
156.573
 20
-10.3532
 11
156.223
 21
-10.2145
  0
LINE
  8
0
 10
156.223
 20
-10.2145
 11
155.893
 21
-10.033
  0
LINE
  8
0
 10
155.893
 20
-10.033
 11
155.588
 21
-9.81154
  0
LINE
  8
0
 10
155.588
 20
-9.81154
 11
155.313
 21
-9.55363
  0
LINE
  8
0
 10
155.313
 20
-9.55363
 11
155.073
 21
-9.26335
  0
LINE
  8
0
 10
155.073
 20
-9.26335
 11
154.871
 21
-8.94525
  0
LINE
  8
0
 10
154.871
 20
-8.94525
 11
154.711
 21
-8.60437
  0
LINE
  8
0
 10
154.711
 20
-8.60437
 11
154.594
 21
-8.24606
  0
LINE
  8
0
 10
154.594
 20
-8.24606
 11
154.524
 21
-7.87599
  0
LINE
  8
0
 10
154.524
 20
-7.87599
 11
154.5
 21
-7.5
  0
LINE
  8
0
 10
154.5
 20
-7.5
 11
154.524
 21
-7.12399
  0
LINE
  8
0
 10
154.524
 20
-7.12399
 11
154.594
 21
-6.75392
  0
LINE
  8
0
 10
154.594
 20
-6.75392
 11
154.711
 21
-6.39561
  0
LINE
  8
0
 10
154.711
 20
-6.39561
 11
154.871
 21
-6.05473
  0
LINE
  8
0
 10
154.871
 20
-6.05473
 11
155.073
 21
-5.73663
  0
LINE
  8
0
 10
155.073
 20
-5.73663
 11
155.313
 21
-5.44635
  0
LINE
  8
0
 10
155.313
 20
-5.44635
 11
155.588
 21
-5.18845
  0
LINE
  8
0
 10
155.588
 20
-5.18845
 11
155.893
 21
-4.96701
  0
LINE
  8
0
 10
155.893
 20
-4.96701
 11
156.223
 21
-4.78551
  0
LINE
  8
0
 10
156.223
 20
-4.78551
 11
156.573
 21
-4.64682
  0
LINE
  8
0
 10
156.573
 20
-4.64682
 11
156.938
 21
-4.55313
  0
LINE
  8
0
 10
156.938
 20
-4.55313
 11
157.312
 21
-4.50591
  0
LINE
  8
0
 10
157.312
 20
-4.50591
 11
157.688
 21
-4.50591
  0
LINE
  8
0
 10
157.688
 20
-4.50591
 11
158.062
 21
-4.55313
  0
LINE
  8
0
 10
158.062
 20
-4.55313
 11
158.427
 21
-4.64682
  0
LINE
  8
0
 10
158.427
 20
-4.64682
 11
158.777
 21
-4.78551
  0
LINE
  8
0
 10
158.777
 20
-4.78551
 11
159.107
 21
-4.96701
  0
LINE
  8
0
 10
159.107
 20
-4.96701
 11
159.412
 21
-5.18845
  0
LINE
  8
0
 10
159.412
 20
-5.18845
 11
159.687
 21
-5.44635
  0
LINE
  8
0
 10
159.687
 20
-5.44635
 11
159.927
 21
-5.73663
  0
LINE
  8
0
 10
159.927
 20
-5.73663
 11
160.129
 21
-6.05473
  0
LINE
  8
0
 10
160.129
 20
-6.05473
 11
160.289
 21
-6.39561
  0
LINE
  8
0
 10
160.289
 20
-6.39561
 11
160.406
 21
-6.75392
  0
LINE
  8
0
 10
160.406
 20
-6.75392
 11
160.476
 21
-7.12399
  0
LINE
  8
0
 10
160.476
 20
-7.12399
 11
160.5
 21
-7.5
  0
LINE
  8
0
 10
160.5
 20
-7.5
 11
160.476
 21
-7.87599
  0
LINE
  8
0
 10
160.476
 20
-7.87599
 11
160.406
 21
-8.24606
  0
LINE
  8
0
 10
160.406
 20
-8.24606
 11
160.289
 21
-8.60437
  0
LINE
  8
0
 10
160.289
 20
-8.60437
 11
160.129
 21
-8.94525
  0
LINE
  8
0
 10
160.129
 20
-8.94525
 11
159.927
 21
-9.26335
  0
LINE
  8
0
 10
159.927
 20
-9.26335
 11
159.687
 21
-9.55363
  0
LINE
  8
0
 10
159.687
 20
-9.55363
 11
159.412
 21
-9.81154
  0
LINE
  8
0
 10
159.412
 20
-9.81154
 11
159.107
 21
-10.033
  0
LINE
  8
0
 10
159.107
 20
-10.033
 11
158.777
 21
-10.2145
  0
LINE
  8
0
 10
158.777
 20
-10.2145
 11
158.427
 21
-10.3532
  0
LINE
  8
0
 10
158.427
 20
-10.3532
 11
158.062
 21
-10.4469
  0
LINE
  8
0
 10
158.062
 20
-10.4469
 11
157.688
 21
-10.4941
  0
LINE
  8
0
 10
157.688
 20
-10.4941
 11
157.312
 21
-10.4941
  0
LINE
  8
0
 10
-157.688
 20
-10.4941
 11
-158.062
 21
-10.4469
  0
LINE
  8
0
 10
-158.062
 20
-10.4469
 11
-158.427
 21
-10.3532
  0
LINE
  8
0
 10
-158.427
 20
-10.3532
 11
-158.777
 21
-10.2145
  0
LINE
  8
0
 10
-158.777
 20
-10.2145
 11
-159.107
 21
-10.033
  0
LINE
  8
0
 10
-159.107
 20
-10.033
 11
-159.412
 21
-9.81154
  0
LINE
  8
0
 10
-159.412
 20
-9.81154
 11
-159.687
 21
-9.55363
  0
LINE
  8
0
 10
-159.687
 20
-9.55363
 11
-159.927
 21
-9.26335
  0
LINE
  8
0
 10
-159.927
 20
-9.26335
 11
-160.129
 21
-8.94525
  0
LINE
  8
0
 10
-160.129
 20
-8.94525
 11
-160.289
 21
-8.60437
  0
LINE
  8
0
 10
-160.289
 20
-8.60437
 11
-160.406
 21
-8.24606
  0
LINE
  8
0
 10
-160.406
 20
-8.24606
 11
-160.476
 21
-7.87599
  0
LINE
  8
0
 10
-160.476
 20
-7.87599
 11
-160.5
 21
-7.5
  0
LINE
  8
0
 10
-160.5
 20
-7.5
 11
-160.476
 21
-7.12399
  0
LINE
  8
0
 10
-160.476
 20
-7.12399
 11
-160.406
 21
-6.75392
  0
LINE
  8
0
 10
-160.406
 20
-6.75392
 11
-160.289
 21
-6.39561
  0
LINE
  8
0
 10
-160.289
 20
-6.39561
 11
-160.129
 21
-6.05473
  0
LINE
  8
0
 10
-160.129
 20
-6.05473
 11
-159.927
 21
-5.73663
  0
LINE
  8
0
 10
-159.927
 20
-5.73663
 11
-159.687
 21
-5.44635
  0
LINE
  8
0
 10
-159.687
 20
-5.44635
 11
-159.412
 21
-5.18845
  0
LINE
  8
0
 10
-159.412
 20
-5.18845
 11
-159.107
 21
-4.96701
  0
LINE
  8
0
 10
-159.107
 20
-4.96701
 11
-158.777
 21
-4.78551
  0
LINE
  8
0
 10
-158.777
 20
-4.78551
 11
-158.427
 21
-4.64682
  0
LINE
  8
0
 10
-158.427
 20
-4.64682
 11
-158.062
 21
-4.55313
  0
LINE
  8
0
 10
-158.062
 20
-4.55313
 11
-157.688
 21
-4.50591
  0
LINE
  8
0
 10
-157.688
 20
-4.50591
 11
-157.312
 21
-4.50591
  0
LINE
  8
0
 10
-157.312
 20
-4.50591
 11
-156.938
 21
-4.55313
  0
LINE
  8
0
 10
-156.938
 20
-4.55313
 11
-156.573
 21
-4.64682
  0
LINE
  8
0
 10
-156.573
 20
-4.64682
 11
-156.223
 21
-4.78551
  0
LINE
  8
0
 10
-156.223
 20
-4.78551
 11
-155.893
 21
-4.96701
  0
LINE
  8
0
 10
-155.893
 20
-4.96701
 11
-155.588
 21
-5.18845
  0
LINE
  8
0
 10
-155.588
 20
-5.18845
 11
-155.313
 21
-5.44635
  0
LINE
  8
0
 10
-155.313
 20
-5.44635
 11
-155.073
 21
-5.73663
  0
LINE
  8
0
 10
-155.073
 20
-5.73663
 11
-154.871
 21
-6.05473
  0
LINE
  8
0
 10
-154.871
 20
-6.05473
 11
-154.711
 21
-6.39561
  0
LINE
  8
0
 10
-154.711
 20
-6.39561
 11
-154.594
 21
-6.75392
  0
LINE
  8
0
 10
-154.594
 20
-6.75392
 11
-154.524
 21
-7.12399
  0
LINE
  8
0
 10
-154.524
 20
-7.12399
 11
-154.5
 21
-7.5
  0
LINE
  8
0
 10
-154.5
 20
-7.5
 11
-154.524
 21
-7.87599
  0
LINE
  8
0
 10
-154.524
 20
-7.87599
 11
-154.594
 21
-8.24606
  0
LINE
  8
0
 10
-154.594
 20
-8.24606
 11
-154.711
 21
-8.60437
  0
LINE
  8
0
 10
-154.711
 20
-8.60437
 11
-154.871
 21
-8.94525
  0
LINE
  8
0
 10
-154.871
 20
-8.94525
 11
-155.073
 21
-9.26335
  0
LINE
  8
0
 10
-155.073
 20
-9.26335
 11
-155.313
 21
-9.55363
  0
LINE
  8
0
 10
-155.313
 20
-9.55363
 11
-155.588
 21
-9.81154
  0
LINE
  8
0
 10
-155.588
 20
-9.81154
 11
-155.893
 21
-10.033
  0
LINE
  8
0
 10
-155.893
 20
-10.033
 11
-156.223
 21
-10.2145
  0
LINE
  8
0
 10
-156.223
 20
-10.2145
 11
-156.573
 21
-10.3532
  0
LINE
  8
0
 10
-156.573
 20
-10.3532
 11
-156.938
 21
-10.4469
  0
LINE
  8
0
 10
-156.938
 20
-10.4469
 11
-157.312
 21
-10.4941
  0
LINE
  8
0
 10
-157.312
 20
-10.4941
 11
-157.688
 21
-10.4941
  0
LINE
  8
0
 10
157.406
 20
-16.497
 11
157.219
 21
-16.4734
  0
LINE
  8
0
 10
157.219
 20
-16.4734
 11
157.036
 21
-16.4266
  0
LINE
  8
0
 10
157.036
 20
-16.4266
 11
156.861
 21
-16.3572
  0
LINE
  8
0
 10
156.861
 20
-16.3572
 11
156.696
 21
-16.2665
  0
LINE
  8
0
 10
156.696
 20
-16.2665
 11
156.544
 21
-16.1558
  0
LINE
  8
0
 10
156.544
 20
-16.1558
 11
156.407
 21
-16.0268
  0
LINE
  8
0
 10
156.407
 20
-16.0268
 11
156.286
 21
-15.8817
  0
LINE
  8
0
 10
156.286
 20
-15.8817
 11
156.186
 21
-15.7226
  0
LINE
  8
0
 10
156.186
 20
-15.7226
 11
156.105
 21
-15.5522
  0
LINE
  8
0
 10
156.105
 20
-15.5522
 11
156.047
 21
-15.373
  0
LINE
  8
0
 10
156.047
 20
-15.373
 11
156.012
 21
-15.188
  0
LINE
  8
0
 10
156.012
 20
-15.188
 11
156
 21
-15
  0
LINE
  8
0
 10
156
 20
-15
 11
156.012
 21
-14.812
  0
LINE
  8
0
 10
156.012
 20
-14.812
 11
156.047
 21
-14.627
  0
LINE
  8
0
 10
156.047
 20
-14.627
 11
156.105
 21
-14.4478
  0
LINE
  8
0
 10
156.105
 20
-14.4478
 11
156.186
 21
-14.2774
  0
LINE
  8
0
 10
156.186
 20
-14.2774
 11
156.286
 21
-14.1183
  0
LINE
  8
0
 10
156.286
 20
-14.1183
 11
156.407
 21
-13.9732
  0
LINE
  8
0
 10
156.407
 20
-13.9732
 11
156.544
 21
-13.8442
  0
LINE
  8
0
 10
156.544
 20
-13.8442
 11
156.696
 21
-13.7335
  0
LINE
  8
0
 10
156.696
 20
-13.7335
 11
156.861
 21
-13.6427
  0
LINE
  8
0
 10
156.861
 20
-13.6427
 11
157.036
 21
-13.5734
  0
LINE
  8
0
 10
157.036
 20
-13.5734
 11
157.219
 21
-13.5266
  0
LINE
  8
0
 10
157.219
 20
-13.5266
 11
157.406
 21
-13.5029
  0
LINE
  8
0
 10
157.406
 20
-13.5029
 11
157.594
 21
-13.5029
  0
LINE
  8
0
 10
157.594
 20
-13.5029
 11
157.781
 21
-13.5266
  0
LINE
  8
0
 10
157.781
 20
-13.5266
 11
157.964
 21
-13.5734
  0
LINE
  8
0
 10
157.964
 20
-13.5734
 11
158.139
 21
-13.6427
  0
LINE
  8
0
 10
158.139
 20
-13.6427
 11
158.304
 21
-13.7335
  0
LINE
  8
0
 10
158.304
 20
-13.7335
 11
158.456
 21
-13.8442
  0
LINE
  8
0
 10
158.456
 20
-13.8442
 11
158.593
 21
-13.9732
  0
LINE
  8
0
 10
158.593
 20
-13.9732
 11
158.714
 21
-14.1183
  0
LINE
  8
0
 10
158.714
 20
-14.1183
 11
158.814
 21
-14.2774
  0
LINE
  8
0
 10
158.814
 20
-14.2774
 11
158.895
 21
-14.4478
  0
LINE
  8
0
 10
158.895
 20
-14.4478
 11
158.953
 21
-14.627
  0
LINE
  8
0
 10
158.953
 20
-14.627
 11
158.988
 21
-14.812
  0
LINE
  8
0
 10
158.988
 20
-14.812
 11
159
 21
-15
  0
LINE
  8
0
 10
159
 20
-15
 11
158.988
 21
-15.188
  0
LINE
  8
0
 10
158.988
 20
-15.188
 11
158.953
 21
-15.373
  0
LINE
  8
0
 10
158.953
 20
-15.373
 11
158.895
 21
-15.5522
  0
LINE
  8
0
 10
158.895
 20
-15.5522
 11
158.814
 21
-15.7226
  0
LINE
  8
0
 10
158.814
 20
-15.7226
 11
158.714
 21
-15.8817
  0
LINE
  8
0
 10
158.714
 20
-15.8817
 11
158.593
 21
-16.0268
  0
LINE
  8
0
 10
158.593
 20
-16.0268
 11
158.456
 21
-16.1558
  0
LINE
  8
0
 10
158.456
 20
-16.1558
 11
158.304
 21
-16.2665
  0
LINE
  8
0
 10
158.304
 20
-16.2665
 11
158.139
 21
-16.3572
  0
LINE
  8
0
 10
158.139
 20
-16.3572
 11
157.964
 21
-16.4266
  0
LINE
  8
0
 10
157.964
 20
-16.4266
 11
157.781
 21
-16.4734
  0
LINE
  8
0
 10
157.781
 20
-16.4734
 11
157.594
 21
-16.497
  0
LINE
  8
0
 10
157.594
 20
-16.497
 11
157.406
 21
-16.497
  0
LINE
  8
0
 10
-157.594
 20
-16.497
 11
-157.781
 21
-16.4734
  0
LINE
  8
0
 10
-157.781
 20
-16.4734
 11
-157.964
 21
-16.4266
  0
LINE
  8
0
 10
-157.964
 20
-16.4266
 11
-158.139
 21
-16.3572
  0
LINE
  8
0
 10
-158.139
 20
-16.3572
 11
-158.304
 21
-16.2665
  0
LINE
  8
0
 10
-158.304
 20
-16.2665
 11
-158.456
 21
-16.1558
  0
LINE
  8
0
 10
-158.456
 20
-16.1558
 11
-158.593
 21
-16.0268
  0
LINE
  8
0
 10
-158.593
 20
-16.0268
 11
-158.714
 21
-15.8817
  0
LINE
  8
0
 10
-158.714
 20
-15.8817
 11
-158.814
 21
-15.7226
  0
LINE
  8
0
 10
-158.814
 20
-15.7226
 11
-158.895
 21
-15.5522
  0
LINE
  8
0
 10
-158.895
 20
-15.5522
 11
-158.953
 21
-15.373
  0
LINE
  8
0
 10
-158.953
 20
-15.373
 11
-158.988
 21
-15.188
  0
LINE
  8
0
 10
-158.988
 20
-15.188
 11
-159
 21
-15
  0
LINE
  8
0
 10
-159
 20
-15
 11
-158.988
 21
-14.812
  0
LINE
  8
0
 10
-158.988
 20
-14.812
 11
-158.953
 21
-14.627
  0
LINE
  8
0
 10
-158.953
 20
-14.627
 11
-158.895
 21
-14.4478
  0
LINE
  8
0
 10
-158.895
 20
-14.4478
 11
-158.814
 21
-14.2774
  0
LINE
  8
0
 10
-158.814
 20
-14.2774
 11
-158.714
 21
-14.1183
  0
LINE
  8
0
 10
-158.714
 20
-14.1183
 11
-158.593
 21
-13.9732
  0
LINE
  8
0
 10
-158.593
 20
-13.9732
 11
-158.456
 21
-13.8442
  0
LINE
  8
0
 10
-158.456
 20
-13.8442
 11
-158.304
 21
-13.7335
  0
LINE
  8
0
 10
-158.304
 20
-13.7335
 11
-158.139
 21
-13.6427
  0
LINE
  8
0
 10
-158.139
 20
-13.6427
 11
-157.964
 21
-13.5734
  0
LINE
  8
0
 10
-157.964
 20
-13.5734
 11
-157.781
 21
-13.5266
  0
LINE
  8
0
 10
-157.781
 20
-13.5266
 11
-157.594
 21
-13.5029
  0
LINE
  8
0
 10
-157.594
 20
-13.5029
 11
-157.406
 21
-13.5029
  0
LINE
  8
0
 10
-157.406
 20
-13.5029
 11
-157.219
 21
-13.5266
  0
LINE
  8
0
 10
-157.219
 20
-13.5266
 11
-157.036
 21
-13.5734
  0
LINE
  8
0
 10
-157.036
 20
-13.5734
 11
-156.861
 21
-13.6427
  0
LINE
  8
0
 10
-156.861
 20
-13.6427
 11
-156.696
 21
-13.7335
  0
LINE
  8
0
 10
-156.696
 20
-13.7335
 11
-156.544
 21
-13.8442
  0
LINE
  8
0
 10
-156.544
 20
-13.8442
 11
-156.407
 21
-13.9732
  0
LINE
  8
0
 10
-156.407
 20
-13.9732
 11
-156.286
 21
-14.1183
  0
LINE
  8
0
 10
-156.286
 20
-14.1183
 11
-156.186
 21
-14.2774
  0
LINE
  8
0
 10
-156.186
 20
-14.2774
 11
-156.105
 21
-14.4478
  0
LINE
  8
0
 10
-156.105
 20
-14.4478
 11
-156.047
 21
-14.627
  0
LINE
  8
0
 10
-156.047
 20
-14.627
 11
-156.012
 21
-14.812
  0
LINE
  8
0
 10
-156.012
 20
-14.812
 11
-156
 21
-15
  0
LINE
  8
0
 10
-156
 20
-15
 11
-156.012
 21
-15.188
  0
LINE
  8
0
 10
-156.012
 20
-15.188
 11
-156.047
 21
-15.373
  0
LINE
  8
0
 10
-156.047
 20
-15.373
 11
-156.105
 21
-15.5522
  0
LINE
  8
0
 10
-156.105
 20
-15.5522
 11
-156.186
 21
-15.7226
  0
LINE
  8
0
 10
-156.186
 20
-15.7226
 11
-156.286
 21
-15.8817
  0
LINE
  8
0
 10
-156.286
 20
-15.8817
 11
-156.407
 21
-16.0268
  0
LINE
  8
0
 10
-156.407
 20
-16.0268
 11
-156.544
 21
-16.1558
  0
LINE
  8
0
 10
-156.544
 20
-16.1558
 11
-156.696
 21
-16.2665
  0
LINE
  8
0
 10
-156.696
 20
-16.2665
 11
-156.861
 21
-16.3572
  0
LINE
  8
0
 10
-156.861
 20
-16.3572
 11
-157.036
 21
-16.4266
  0
LINE
  8
0
 10
-157.036
 20
-16.4266
 11
-157.219
 21
-16.4734
  0
LINE
  8
0
 10
-157.219
 20
-16.4734
 11
-157.406
 21
-16.497
  0
LINE
  8
0
 10
-157.406
 20
-16.497
 11
-157.594
 21
-16.497
  0
LINE
  8
0
 10
-157.688
 20
-25.4941
 11
-158.062
 21
-25.4469
  0
LINE
  8
0
 10
-158.062
 20
-25.4469
 11
-158.427
 21
-25.3532
  0
LINE
  8
0
 10
-158.427
 20
-25.3532
 11
-158.777
 21
-25.2145
  0
LINE
  8
0
 10
-158.777
 20
-25.2145
 11
-159.107
 21
-25.033
  0
LINE
  8
0
 10
-159.107
 20
-25.033
 11
-159.412
 21
-24.8115
  0
LINE
  8
0
 10
-159.412
 20
-24.8115
 11
-159.687
 21
-24.5536
  0
LINE
  8
0
 10
-159.687
 20
-24.5536
 11
-159.927
 21
-24.2634
  0
LINE
  8
0
 10
-159.927
 20
-24.2634
 11
-160.129
 21
-23.9453
  0
LINE
  8
0
 10
-160.129
 20
-23.9453
 11
-160.289
 21
-23.6044
  0
LINE
  8
0
 10
-160.289
 20
-23.6044
 11
-160.406
 21
-23.2461
  0
LINE
  8
0
 10
-160.406
 20
-23.2461
 11
-160.476
 21
-22.876
  0
LINE
  8
0
 10
-160.476
 20
-22.876
 11
-160.5
 21
-22.5
  0
LINE
  8
0
 10
-160.5
 20
-22.5
 11
-160.476
 21
-22.124
  0
LINE
  8
0
 10
-160.476
 20
-22.124
 11
-160.406
 21
-21.7539
  0
LINE
  8
0
 10
-160.406
 20
-21.7539
 11
-160.289
 21
-21.3956
  0
LINE
  8
0
 10
-160.289
 20
-21.3956
 11
-160.129
 21
-21.0547
  0
LINE
  8
0
 10
-160.129
 20
-21.0547
 11
-159.927
 21
-20.7366
  0
LINE
  8
0
 10
-159.927
 20
-20.7366
 11
-159.687
 21
-20.4464
  0
LINE
  8
0
 10
-159.687
 20
-20.4464
 11
-159.412
 21
-20.1884
  0
LINE
  8
0
 10
-159.412
 20
-20.1884
 11
-159.107
 21
-19.967
  0
LINE
  8
0
 10
-159.107
 20
-19.967
 11
-158.777
 21
-19.7855
  0
LINE
  8
0
 10
-158.777
 20
-19.7855
 11
-158.427
 21
-19.6468
  0
LINE
  8
0
 10
-158.427
 20
-19.6468
 11
-158.062
 21
-19.5531
  0
LINE
  8
0
 10
-158.062
 20
-19.5531
 11
-157.688
 21
-19.5059
  0
LINE
  8
0
 10
-157.688
 20
-19.5059
 11
-157.312
 21
-19.5059
  0
LINE
  8
0
 10
-157.312
 20
-19.5059
 11
-156.938
 21
-19.5531
  0
LINE
  8
0
 10
-156.938
 20
-19.5531
 11
-156.573
 21
-19.6468
  0
LINE
  8
0
 10
-156.573
 20
-19.6468
 11
-156.223
 21
-19.7855
  0
LINE
  8
0
 10
-156.223
 20
-19.7855
 11
-155.893
 21
-19.967
  0
LINE
  8
0
 10
-155.893
 20
-19.967
 11
-155.588
 21
-20.1884
  0
LINE
  8
0
 10
-155.588
 20
-20.1884
 11
-155.313
 21
-20.4464
  0
LINE
  8
0
 10
-155.313
 20
-20.4464
 11
-155.073
 21
-20.7366
  0
LINE
  8
0
 10
-155.073
 20
-20.7366
 11
-154.871
 21
-21.0547
  0
LINE
  8
0
 10
-154.871
 20
-21.0547
 11
-154.711
 21
-21.3956
  0
LINE
  8
0
 10
-154.711
 20
-21.3956
 11
-154.594
 21
-21.7539
  0
LINE
  8
0
 10
-154.594
 20
-21.7539
 11
-154.524
 21
-22.124
  0
LINE
  8
0
 10
-154.524
 20
-22.124
 11
-154.5
 21
-22.5
  0
LINE
  8
0
 10
-154.5
 20
-22.5
 11
-154.524
 21
-22.876
  0
LINE
  8
0
 10
-154.524
 20
-22.876
 11
-154.594
 21
-23.2461
  0
LINE
  8
0
 10
-154.594
 20
-23.2461
 11
-154.711
 21
-23.6044
  0
LINE
  8
0
 10
-154.711
 20
-23.6044
 11
-154.871
 21
-23.9453
  0
LINE
  8
0
 10
-154.871
 20
-23.9453
 11
-155.073
 21
-24.2634
  0
LINE
  8
0
 10
-155.073
 20
-24.2634
 11
-155.313
 21
-24.5536
  0
LINE
  8
0
 10
-155.313
 20
-24.5536
 11
-155.588
 21
-24.8115
  0
LINE
  8
0
 10
-155.588
 20
-24.8115
 11
-155.893
 21
-25.033
  0
LINE
  8
0
 10
-155.893
 20
-25.033
 11
-156.223
 21
-25.2145
  0
LINE
  8
0
 10
-156.223
 20
-25.2145
 11
-156.573
 21
-25.3532
  0
LINE
  8
0
 10
-156.573
 20
-25.3532
 11
-156.938
 21
-25.4469
  0
LINE
  8
0
 10
-156.938
 20
-25.4469
 11
-157.312
 21
-25.4941
  0
LINE
  8
0
 10
-157.312
 20
-25.4941
 11
-157.688
 21
-25.4941
  0
LINE
  8
0
 10
157.312
 20
-25.4941
 11
156.938
 21
-25.4469
  0
LINE
  8
0
 10
156.938
 20
-25.4469
 11
156.573
 21
-25.3532
  0
LINE
  8
0
 10
156.573
 20
-25.3532
 11
156.223
 21
-25.2145
  0
LINE
  8
0
 10
156.223
 20
-25.2145
 11
155.893
 21
-25.033
  0
LINE
  8
0
 10
155.893
 20
-25.033
 11
155.588
 21
-24.8115
  0
LINE
  8
0
 10
155.588
 20
-24.8115
 11
155.313
 21
-24.5536
  0
LINE
  8
0
 10
155.313
 20
-24.5536
 11
155.073
 21
-24.2634
  0
LINE
  8
0
 10
155.073
 20
-24.2634
 11
154.871
 21
-23.9453
  0
LINE
  8
0
 10
154.871
 20
-23.9453
 11
154.711
 21
-23.6044
  0
LINE
  8
0
 10
154.711
 20
-23.6044
 11
154.594
 21
-23.2461
  0
LINE
  8
0
 10
154.594
 20
-23.2461
 11
154.524
 21
-22.876
  0
LINE
  8
0
 10
154.524
 20
-22.876
 11
154.5
 21
-22.5
  0
LINE
  8
0
 10
154.5
 20
-22.5
 11
154.524
 21
-22.124
  0
LINE
  8
0
 10
154.524
 20
-22.124
 11
154.594
 21
-21.7539
  0
LINE
  8
0
 10
154.594
 20
-21.7539
 11
154.711
 21
-21.3956
  0
LINE
  8
0
 10
154.711
 20
-21.3956
 11
154.871
 21
-21.0547
  0
LINE
  8
0
 10
154.871
 20
-21.0547
 11
155.073
 21
-20.7366
  0
LINE
  8
0
 10
155.073
 20
-20.7366
 11
155.313
 21
-20.4464
  0
LINE
  8
0
 10
155.313
 20
-20.4464
 11
155.588
 21
-20.1884
  0
LINE
  8
0
 10
155.588
 20
-20.1884
 11
155.893
 21
-19.967
  0
LINE
  8
0
 10
155.893
 20
-19.967
 11
156.223
 21
-19.7855
  0
LINE
  8
0
 10
156.223
 20
-19.7855
 11
156.573
 21
-19.6468
  0
LINE
  8
0
 10
156.573
 20
-19.6468
 11
156.938
 21
-19.5531
  0
LINE
  8
0
 10
156.938
 20
-19.5531
 11
157.312
 21
-19.5059
  0
LINE
  8
0
 10
157.312
 20
-19.5059
 11
157.688
 21
-19.5059
  0
LINE
  8
0
 10
157.688
 20
-19.5059
 11
158.062
 21
-19.5531
  0
LINE
  8
0
 10
158.062
 20
-19.5531
 11
158.427
 21
-19.6468
  0
LINE
  8
0
 10
158.427
 20
-19.6468
 11
158.777
 21
-19.7855
  0
LINE
  8
0
 10
158.777
 20
-19.7855
 11
159.107
 21
-19.967
  0
LINE
  8
0
 10
159.107
 20
-19.967
 11
159.412
 21
-20.1884
  0
LINE
  8
0
 10
159.412
 20
-20.1884
 11
159.687
 21
-20.4464
  0
LINE
  8
0
 10
159.687
 20
-20.4464
 11
159.927
 21
-20.7366
  0
LINE
  8
0
 10
159.927
 20
-20.7366
 11
160.129
 21
-21.0547
  0
LINE
  8
0
 10
160.129
 20
-21.0547
 11
160.289
 21
-21.3956
  0
LINE
  8
0
 10
160.289
 20
-21.3956
 11
160.406
 21
-21.7539
  0
LINE
  8
0
 10
160.406
 20
-21.7539
 11
160.476
 21
-22.124
  0
LINE
  8
0
 10
160.476
 20
-22.124
 11
160.5
 21
-22.5
  0
LINE
  8
0
 10
160.5
 20
-22.5
 11
160.476
 21
-22.876
  0
LINE
  8
0
 10
160.476
 20
-22.876
 11
160.406
 21
-23.2461
  0
LINE
  8
0
 10
160.406
 20
-23.2461
 11
160.289
 21
-23.6044
  0
LINE
  8
0
 10
160.289
 20
-23.6044
 11
160.129
 21
-23.9453
  0
LINE
  8
0
 10
160.129
 20
-23.9453
 11
159.927
 21
-24.2634
  0
LINE
  8
0
 10
159.927
 20
-24.2634
 11
159.687
 21
-24.5536
  0
LINE
  8
0
 10
159.687
 20
-24.5536
 11
159.412
 21
-24.8115
  0
LINE
  8
0
 10
159.412
 20
-24.8115
 11
159.107
 21
-25.033
  0
LINE
  8
0
 10
159.107
 20
-25.033
 11
158.777
 21
-25.2145
  0
LINE
  8
0
 10
158.777
 20
-25.2145
 11
158.427
 21
-25.3532
  0
LINE
  8
0
 10
158.427
 20
-25.3532
 11
158.062
 21
-25.4469
  0
LINE
  8
0
 10
158.062
 20
-25.4469
 11
157.688
 21
-25.4941
  0
LINE
  8
0
 10
157.688
 20
-25.4941
 11
157.312
 21
-25.4941
  0
LINE
  8
0
 10
157.406
 20
-31.497
 11
157.219
 21
-31.4734
  0
LINE
  8
0
 10
157.219
 20
-31.4734
 11
157.036
 21
-31.4266
  0
LINE
  8
0
 10
157.036
 20
-31.4266
 11
156.861
 21
-31.3572
  0
LINE
  8
0
 10
156.861
 20
-31.3572
 11
156.696
 21
-31.2665
  0
LINE
  8
0
 10
156.696
 20
-31.2665
 11
156.544
 21
-31.1558
  0
LINE
  8
0
 10
156.544
 20
-31.1558
 11
156.407
 21
-31.0268
  0
LINE
  8
0
 10
156.407
 20
-31.0268
 11
156.286
 21
-30.8817
  0
LINE
  8
0
 10
156.286
 20
-30.8817
 11
156.186
 21
-30.7226
  0
LINE
  8
0
 10
156.186
 20
-30.7226
 11
156.105
 21
-30.5522
  0
LINE
  8
0
 10
156.105
 20
-30.5522
 11
156.047
 21
-30.373
  0
LINE
  8
0
 10
156.047
 20
-30.373
 11
156.012
 21
-30.188
  0
LINE
  8
0
 10
156.012
 20
-30.188
 11
156
 21
-30
  0
LINE
  8
0
 10
156
 20
-30
 11
156.012
 21
-29.812
  0
LINE
  8
0
 10
156.012
 20
-29.812
 11
156.047
 21
-29.627
  0
LINE
  8
0
 10
156.047
 20
-29.627
 11
156.105
 21
-29.4478
  0
LINE
  8
0
 10
156.105
 20
-29.4478
 11
156.186
 21
-29.2774
  0
LINE
  8
0
 10
156.186
 20
-29.2774
 11
156.286
 21
-29.1183
  0
LINE
  8
0
 10
156.286
 20
-29.1183
 11
156.407
 21
-28.9732
  0
LINE
  8
0
 10
156.407
 20
-28.9732
 11
156.544
 21
-28.8442
  0
LINE
  8
0
 10
156.544
 20
-28.8442
 11
156.696
 21
-28.7335
  0
LINE
  8
0
 10
156.696
 20
-28.7335
 11
156.861
 21
-28.6427
  0
LINE
  8
0
 10
156.861
 20
-28.6427
 11
157.036
 21
-28.5734
  0
LINE
  8
0
 10
157.036
 20
-28.5734
 11
157.219
 21
-28.5266
  0
LINE
  8
0
 10
157.219
 20
-28.5266
 11
157.406
 21
-28.503
  0
LINE
  8
0
 10
157.406
 20
-28.503
 11
157.594
 21
-28.503
  0
LINE
  8
0
 10
157.594
 20
-28.503
 11
157.781
 21
-28.5266
  0
LINE
  8
0
 10
157.781
 20
-28.5266
 11
157.964
 21
-28.5734
  0
LINE
  8
0
 10
157.964
 20
-28.5734
 11
158.139
 21
-28.6427
  0
LINE
  8
0
 10
158.139
 20
-28.6427
 11
158.304
 21
-28.7335
  0
LINE
  8
0
 10
158.304
 20
-28.7335
 11
158.456
 21
-28.8442
  0
LINE
  8
0
 10
158.456
 20
-28.8442
 11
158.593
 21
-28.9732
  0
LINE
  8
0
 10
158.593
 20
-28.9732
 11
158.714
 21
-29.1183
  0
LINE
  8
0
 10
158.714
 20
-29.1183
 11
158.814
 21
-29.2774
  0
LINE
  8
0
 10
158.814
 20
-29.2774
 11
158.895
 21
-29.4478
  0
LINE
  8
0
 10
158.895
 20
-29.4478
 11
158.953
 21
-29.627
  0
LINE
  8
0
 10
158.953
 20
-29.627
 11
158.988
 21
-29.812
  0
LINE
  8
0
 10
158.988
 20
-29.812
 11
159
 21
-30
  0
LINE
  8
0
 10
159
 20
-30
 11
158.988
 21
-30.188
  0
LINE
  8
0
 10
158.988
 20
-30.188
 11
158.953
 21
-30.373
  0
LINE
  8
0
 10
158.953
 20
-30.373
 11
158.895
 21
-30.5522
  0
LINE
  8
0
 10
158.895
 20
-30.5522
 11
158.814
 21
-30.7226
  0
LINE
  8
0
 10
158.814
 20
-30.7226
 11
158.714
 21
-30.8817
  0
LINE
  8
0
 10
158.714
 20
-30.8817
 11
158.593
 21
-31.0268
  0
LINE
  8
0
 10
158.593
 20
-31.0268
 11
158.456
 21
-31.1558
  0
LINE
  8
0
 10
158.456
 20
-31.1558
 11
158.304
 21
-31.2665
  0
LINE
  8
0
 10
158.304
 20
-31.2665
 11
158.139
 21
-31.3572
  0
LINE
  8
0
 10
158.139
 20
-31.3572
 11
157.964
 21
-31.4266
  0
LINE
  8
0
 10
157.964
 20
-31.4266
 11
157.781
 21
-31.4734
  0
LINE
  8
0
 10
157.781
 20
-31.4734
 11
157.594
 21
-31.497
  0
LINE
  8
0
 10
157.594
 20
-31.497
 11
157.406
 21
-31.497
  0
LINE
  8
0
 10
-157.594
 20
-31.497
 11
-157.781
 21
-31.4734
  0
LINE
  8
0
 10
-157.781
 20
-31.4734
 11
-157.964
 21
-31.4266
  0
LINE
  8
0
 10
-157.964
 20
-31.4266
 11
-158.139
 21
-31.3572
  0
LINE
  8
0
 10
-158.139
 20
-31.3572
 11
-158.304
 21
-31.2665
  0
LINE
  8
0
 10
-158.304
 20
-31.2665
 11
-158.456
 21
-31.1558
  0
LINE
  8
0
 10
-158.456
 20
-31.1558
 11
-158.593
 21
-31.0268
  0
LINE
  8
0
 10
-158.593
 20
-31.0268
 11
-158.714
 21
-30.8817
  0
LINE
  8
0
 10
-158.714
 20
-30.8817
 11
-158.814
 21
-30.7226
  0
LINE
  8
0
 10
-158.814
 20
-30.7226
 11
-158.895
 21
-30.5522
  0
LINE
  8
0
 10
-158.895
 20
-30.5522
 11
-158.953
 21
-30.373
  0
LINE
  8
0
 10
-158.953
 20
-30.373
 11
-158.988
 21
-30.188
  0
LINE
  8
0
 10
-158.988
 20
-30.188
 11
-159
 21
-30
  0
LINE
  8
0
 10
-159
 20
-30
 11
-158.988
 21
-29.812
  0
LINE
  8
0
 10
-158.988
 20
-29.812
 11
-158.953
 21
-29.627
  0
LINE
  8
0
 10
-158.953
 20
-29.627
 11
-158.895
 21
-29.4478
  0
LINE
  8
0
 10
-158.895
 20
-29.4478
 11
-158.814
 21
-29.2774
  0
LINE
  8
0
 10
-158.814
 20
-29.2774
 11
-158.714
 21
-29.1183
  0
LINE
  8
0
 10
-158.714
 20
-29.1183
 11
-158.593
 21
-28.9732
  0
LINE
  8
0
 10
-158.593
 20
-28.9732
 11
-158.456
 21
-28.8442
  0
LINE
  8
0
 10
-158.456
 20
-28.8442
 11
-158.304
 21
-28.7335
  0
LINE
  8
0
 10
-158.304
 20
-28.7335
 11
-158.139
 21
-28.6427
  0
LINE
  8
0
 10
-158.139
 20
-28.6427
 11
-157.964
 21
-28.5734
  0
LINE
  8
0
 10
-157.964
 20
-28.5734
 11
-157.781
 21
-28.5266
  0
LINE
  8
0
 10
-157.781
 20
-28.5266
 11
-157.594
 21
-28.503
  0
LINE
  8
0
 10
-157.594
 20
-28.503
 11
-157.406
 21
-28.503
  0
LINE
  8
0
 10
-157.406
 20
-28.503
 11
-157.219
 21
-28.5266
  0
LINE
  8
0
 10
-157.219
 20
-28.5266
 11
-157.036
 21
-28.5734
  0
LINE
  8
0
 10
-157.036
 20
-28.5734
 11
-156.861
 21
-28.6427
  0
LINE
  8
0
 10
-156.861
 20
-28.6427
 11
-156.696
 21
-28.7335
  0
LINE
  8
0
 10
-156.696
 20
-28.7335
 11
-156.544
 21
-28.8442
  0
LINE
  8
0
 10
-156.544
 20
-28.8442
 11
-156.407
 21
-28.9732
  0
LINE
  8
0
 10
-156.407
 20
-28.9732
 11
-156.286
 21
-29.1183
  0
LINE
  8
0
 10
-156.286
 20
-29.1183
 11
-156.186
 21
-29.2774
  0
LINE
  8
0
 10
-156.186
 20
-29.2774
 11
-156.105
 21
-29.4478
  0
LINE
  8
0
 10
-156.105
 20
-29.4478
 11
-156.047
 21
-29.627
  0
LINE
  8
0
 10
-156.047
 20
-29.627
 11
-156.012
 21
-29.812
  0
LINE
  8
0
 10
-156.012
 20
-29.812
 11
-156
 21
-30
  0
LINE
  8
0
 10
-156
 20
-30
 11
-156.012
 21
-30.188
  0
LINE
  8
0
 10
-156.012
 20
-30.188
 11
-156.047
 21
-30.373
  0
LINE
  8
0
 10
-156.047
 20
-30.373
 11
-156.105
 21
-30.5522
  0
LINE
  8
0
 10
-156.105
 20
-30.5522
 11
-156.186
 21
-30.7226
  0
LINE
  8
0
 10
-156.186
 20
-30.7226
 11
-156.286
 21
-30.8817
  0
LINE
  8
0
 10
-156.286
 20
-30.8817
 11
-156.407
 21
-31.0268
  0
LINE
  8
0
 10
-156.407
 20
-31.0268
 11
-156.544
 21
-31.1558
  0
LINE
  8
0
 10
-156.544
 20
-31.1558
 11
-156.696
 21
-31.2665
  0
LINE
  8
0
 10
-156.696
 20
-31.2665
 11
-156.861
 21
-31.3572
  0
LINE
  8
0
 10
-156.861
 20
-31.3572
 11
-157.036
 21
-31.4266
  0
LINE
  8
0
 10
-157.036
 20
-31.4266
 11
-157.219
 21
-31.4734
  0
LINE
  8
0
 10
-157.219
 20
-31.4734
 11
-157.406
 21
-31.497
  0
LINE
  8
0
 10
-157.406
 20
-31.497
 11
-157.594
 21
-31.497
  0
LINE
  8
0
 10
-157.688
 20
-40.4941
 11
-158.062
 21
-40.4469
  0
LINE
  8
0
 10
-158.062
 20
-40.4469
 11
-158.427
 21
-40.3532
  0
LINE
  8
0
 10
-158.427
 20
-40.3532
 11
-158.777
 21
-40.2145
  0
LINE
  8
0
 10
-158.777
 20
-40.2145
 11
-159.107
 21
-40.033
  0
LINE
  8
0
 10
-159.107
 20
-40.033
 11
-159.412
 21
-39.8115
  0
LINE
  8
0
 10
-159.412
 20
-39.8115
 11
-159.687
 21
-39.5536
  0
LINE
  8
0
 10
-159.687
 20
-39.5536
 11
-159.927
 21
-39.2634
  0
LINE
  8
0
 10
-159.927
 20
-39.2634
 11
-160.129
 21
-38.9453
  0
LINE
  8
0
 10
-160.129
 20
-38.9453
 11
-160.289
 21
-38.6044
  0
LINE
  8
0
 10
-160.289
 20
-38.6044
 11
-160.406
 21
-38.2461
  0
LINE
  8
0
 10
-160.406
 20
-38.2461
 11
-160.476
 21
-37.876
  0
LINE
  8
0
 10
-160.476
 20
-37.876
 11
-160.5
 21
-37.5
  0
LINE
  8
0
 10
-160.5
 20
-37.5
 11
-160.476
 21
-37.124
  0
LINE
  8
0
 10
-160.476
 20
-37.124
 11
-160.406
 21
-36.7539
  0
LINE
  8
0
 10
-160.406
 20
-36.7539
 11
-160.289
 21
-36.3956
  0
LINE
  8
0
 10
-160.289
 20
-36.3956
 11
-160.129
 21
-36.0547
  0
LINE
  8
0
 10
-160.129
 20
-36.0547
 11
-159.927
 21
-35.7366
  0
LINE
  8
0
 10
-159.927
 20
-35.7366
 11
-159.687
 21
-35.4464
  0
LINE
  8
0
 10
-159.687
 20
-35.4464
 11
-159.412
 21
-35.1885
  0
LINE
  8
0
 10
-159.412
 20
-35.1885
 11
-159.107
 21
-34.967
  0
LINE
  8
0
 10
-159.107
 20
-34.967
 11
-158.777
 21
-34.7855
  0
LINE
  8
0
 10
-158.777
 20
-34.7855
 11
-158.427
 21
-34.6468
  0
LINE
  8
0
 10
-158.427
 20
-34.6468
 11
-158.062
 21
-34.5531
  0
LINE
  8
0
 10
-158.062
 20
-34.5531
 11
-157.688
 21
-34.5059
  0
LINE
  8
0
 10
-157.688
 20
-34.5059
 11
-157.312
 21
-34.5059
  0
LINE
  8
0
 10
-157.312
 20
-34.5059
 11
-156.938
 21
-34.5531
  0
LINE
  8
0
 10
-156.938
 20
-34.5531
 11
-156.573
 21
-34.6468
  0
LINE
  8
0
 10
-156.573
 20
-34.6468
 11
-156.223
 21
-34.7855
  0
LINE
  8
0
 10
-156.223
 20
-34.7855
 11
-155.893
 21
-34.967
  0
LINE
  8
0
 10
-155.893
 20
-34.967
 11
-155.588
 21
-35.1885
  0
LINE
  8
0
 10
-155.588
 20
-35.1885
 11
-155.313
 21
-35.4464
  0
LINE
  8
0
 10
-155.313
 20
-35.4464
 11
-155.073
 21
-35.7366
  0
LINE
  8
0
 10
-155.073
 20
-35.7366
 11
-154.871
 21
-36.0547
  0
LINE
  8
0
 10
-154.871
 20
-36.0547
 11
-154.711
 21
-36.3956
  0
LINE
  8
0
 10
-154.711
 20
-36.3956
 11
-154.594
 21
-36.7539
  0
LINE
  8
0
 10
-154.594
 20
-36.7539
 11
-154.524
 21
-37.124
  0
LINE
  8
0
 10
-154.524
 20
-37.124
 11
-154.5
 21
-37.5
  0
LINE
  8
0
 10
-154.5
 20
-37.5
 11
-154.524
 21
-37.876
  0
LINE
  8
0
 10
-154.524
 20
-37.876
 11
-154.594
 21
-38.2461
  0
LINE
  8
0
 10
-154.594
 20
-38.2461
 11
-154.711
 21
-38.6044
  0
LINE
  8
0
 10
-154.711
 20
-38.6044
 11
-154.871
 21
-38.9453
  0
LINE
  8
0
 10
-154.871
 20
-38.9453
 11
-155.073
 21
-39.2634
  0
LINE
  8
0
 10
-155.073
 20
-39.2634
 11
-155.313
 21
-39.5536
  0
LINE
  8
0
 10
-155.313
 20
-39.5536
 11
-155.588
 21
-39.8115
  0
LINE
  8
0
 10
-155.588
 20
-39.8115
 11
-155.893
 21
-40.033
  0
LINE
  8
0
 10
-155.893
 20
-40.033
 11
-156.223
 21
-40.2145
  0
LINE
  8
0
 10
-156.223
 20
-40.2145
 11
-156.573
 21
-40.3532
  0
LINE
  8
0
 10
-156.573
 20
-40.3532
 11
-156.938
 21
-40.4469
  0
LINE
  8
0
 10
-156.938
 20
-40.4469
 11
-157.312
 21
-40.4941
  0
LINE
  8
0
 10
-157.312
 20
-40.4941
 11
-157.688
 21
-40.4941
  0
LINE
  8
0
 10
157.312
 20
-40.4941
 11
156.938
 21
-40.4469
  0
LINE
  8
0
 10
156.938
 20
-40.4469
 11
156.573
 21
-40.3532
  0
LINE
  8
0
 10
156.573
 20
-40.3532
 11
156.223
 21
-40.2145
  0
LINE
  8
0
 10
156.223
 20
-40.2145
 11
155.893
 21
-40.033
  0
LINE
  8
0
 10
155.893
 20
-40.033
 11
155.588
 21
-39.8115
  0
LINE
  8
0
 10
155.588
 20
-39.8115
 11
155.313
 21
-39.5536
  0
LINE
  8
0
 10
155.313
 20
-39.5536
 11
155.073
 21
-39.2634
  0
LINE
  8
0
 10
155.073
 20
-39.2634
 11
154.871
 21
-38.9453
  0
LINE
  8
0
 10
154.871
 20
-38.9453
 11
154.711
 21
-38.6044
  0
LINE
  8
0
 10
154.711
 20
-38.6044
 11
154.594
 21
-38.2461
  0
LINE
  8
0
 10
154.594
 20
-38.2461
 11
154.524
 21
-37.876
  0
LINE
  8
0
 10
154.524
 20
-37.876
 11
154.5
 21
-37.5
  0
LINE
  8
0
 10
154.5
 20
-37.5
 11
154.524
 21
-37.124
  0
LINE
  8
0
 10
154.524
 20
-37.124
 11
154.594
 21
-36.7539
  0
LINE
  8
0
 10
154.594
 20
-36.7539
 11
154.711
 21
-36.3956
  0
LINE
  8
0
 10
154.711
 20
-36.3956
 11
154.871
 21
-36.0547
  0
LINE
  8
0
 10
154.871
 20
-36.0547
 11
155.073
 21
-35.7366
  0
LINE
  8
0
 10
155.073
 20
-35.7366
 11
155.313
 21
-35.4464
  0
LINE
  8
0
 10
155.313
 20
-35.4464
 11
155.588
 21
-35.1885
  0
LINE
  8
0
 10
155.588
 20
-35.1885
 11
155.893
 21
-34.967
  0
LINE
  8
0
 10
155.893
 20
-34.967
 11
156.223
 21
-34.7855
  0
LINE
  8
0
 10
156.223
 20
-34.7855
 11
156.573
 21
-34.6468
  0
LINE
  8
0
 10
156.573
 20
-34.6468
 11
156.938
 21
-34.5531
  0
LINE
  8
0
 10
156.938
 20
-34.5531
 11
157.312
 21
-34.5059
  0
LINE
  8
0
 10
157.312
 20
-34.5059
 11
157.688
 21
-34.5059
  0
LINE
  8
0
 10
157.688
 20
-34.5059
 11
158.062
 21
-34.5531
  0
LINE
  8
0
 10
158.062
 20
-34.5531
 11
158.427
 21
-34.6468
  0
LINE
  8
0
 10
158.427
 20
-34.6468
 11
158.777
 21
-34.7855
  0
LINE
  8
0
 10
158.777
 20
-34.7855
 11
159.107
 21
-34.967
  0
LINE
  8
0
 10
159.107
 20
-34.967
 11
159.412
 21
-35.1885
  0
LINE
  8
0
 10
159.412
 20
-35.1885
 11
159.687
 21
-35.4464
  0
LINE
  8
0
 10
159.687
 20
-35.4464
 11
159.927
 21
-35.7366
  0
LINE
  8
0
 10
159.927
 20
-35.7366
 11
160.129
 21
-36.0547
  0
LINE
  8
0
 10
160.129
 20
-36.0547
 11
160.289
 21
-36.3956
  0
LINE
  8
0
 10
160.289
 20
-36.3956
 11
160.406
 21
-36.7539
  0
LINE
  8
0
 10
160.406
 20
-36.7539
 11
160.476
 21
-37.124
  0
LINE
  8
0
 10
160.476
 20
-37.124
 11
160.5
 21
-37.5
  0
LINE
  8
0
 10
160.5
 20
-37.5
 11
160.476
 21
-37.876
  0
LINE
  8
0
 10
160.476
 20
-37.876
 11
160.406
 21
-38.2461
  0
LINE
  8
0
 10
160.406
 20
-38.2461
 11
160.289
 21
-38.6044
  0
LINE
  8
0
 10
160.289
 20
-38.6044
 11
160.129
 21
-38.9453
  0
LINE
  8
0
 10
160.129
 20
-38.9453
 11
159.927
 21
-39.2634
  0
LINE
  8
0
 10
159.927
 20
-39.2634
 11
159.687
 21
-39.5536
  0
LINE
  8
0
 10
159.687
 20
-39.5536
 11
159.412
 21
-39.8115
  0
LINE
  8
0
 10
159.412
 20
-39.8115
 11
159.107
 21
-40.033
  0
LINE
  8
0
 10
159.107
 20
-40.033
 11
158.777
 21
-40.2145
  0
LINE
  8
0
 10
158.777
 20
-40.2145
 11
158.427
 21
-40.3532
  0
LINE
  8
0
 10
158.427
 20
-40.3532
 11
158.062
 21
-40.4469
  0
LINE
  8
0
 10
158.062
 20
-40.4469
 11
157.688
 21
-40.4941
  0
LINE
  8
0
 10
157.688
 20
-40.4941
 11
157.312
 21
-40.4941
  0
ENDSEC
  0
SECTION
  2
OBJECTS
  0
DICTIONARY
  0
ENDSEC
  0
EOF
