<?xml version="1.0" standalone="no"?>
<!DOCTYPE svg PUBLIC "-//W3C//DTD SVG 1.1//EN" "http://www.w3.org/Graphics/SVG/1.1/DTD/svg11.dtd">
<svg width="74mm" height="30mm" viewBox="-37 -15 74 30" xmlns="http://www.w3.org/2000/svg" version="1.1">
<title>OpenSCAD Model</title>
<path d="
M 32.9369,14.4114 L 33.5451,14.2553 L 34.1289,14.0241 L 34.6791,13.7216 L 35.1871,13.3526 L 35.6448,12.9227
 L 36.0451,12.4389 L 36.3815,11.9088 L 36.6489,11.3406 L 36.8429,10.7434 L 36.9606,10.1267 L 37,9.5
 L 37,-9.5 L 36.9606,-10.1267 L 36.8429,-10.7434 L 36.6489,-11.3406 L 36.3815,-11.9088 L 36.0451,-12.4389
 L 35.6448,-12.9227 L 35.1871,-13.3526 L 34.6791,-13.7216 L 34.1289,-14.0241 L 33.5451,-14.2553 L 32.9369,-14.4114
 L 32.3139,-14.4901 L -32.3139,-14.4901 L -32.9369,-14.4114 L -33.5451,-14.2553 L -34.1289,-14.0241 L -34.6791,-13.7216
 L -35.1871,-13.3526 L -35.6448,-12.9227 L -36.0451,-12.4389 L -36.3815,-11.9088 L -36.6489,-11.3406 L -36.8429,-10.7434
 L -36.9606,-10.1267 L -37,-9.5 L -37,9.5 L -36.9606,10.1267 L -36.8429,10.7434 L -36.6489,11.3406
 L -36.3815,11.9088 L -36.0451,12.4389 L -35.6448,12.9227 L -35.1871,13.3526 L -34.6791,13.7216 L -34.1289,14.0241
 L -33.5451,14.2553 L -32.9369,14.4114 L -32.3139,14.4901 L 32.3139,14.4901 z
M -30.1884,10.4941 L -30.5621,10.4469 L -30.927,10.3532 L -31.2773,10.2145 L -31.6075,10.033 L -31.9123,9.81154
 L -32.1869,9.55363 L -32.427,9.26335 L -32.6289,8.94525 L -32.7893,8.60437 L -32.9057,8.24606 L -32.9763,7.87599
 L -33,7.5 L -32.9763,7.12399 L -32.9057,6.75392 L -32.7893,6.39561 L -32.6289,6.05473 L -32.427,5.73663
 L -32.1869,5.44635 L -31.9275,5.2028 L -32.3249,4.57664 L -32.8329,3.49718 L -33.2015,2.36255 L -33.4251,1.19066
 L -33.5,-0 L -33.4251,-1.19066 L -33.2015,-2.36255 L -32.8329,-3.49718 L -32.3249,-4.57664 L -31.9275,-5.2028
 L -32.1869,-5.44635 L -32.427,-5.73663 L -32.6289,-6.05473 L -32.7893,-6.39561 L -32.9057,-6.75392 L -32.9763,-7.12399
 L -33,-7.5 L -32.9763,-7.87599 L -32.9057,-8.24606 L -32.7893,-8.60437 L -32.6289,-8.94525 L -32.427,-9.26335
 L -32.1869,-9.55363 L -31.9123,-9.81154 L -31.6075,-10.033 L -31.2773,-10.2145 L -30.927,-10.3532 L -30.5621,-10.4469
 L -30.1884,-10.4941 L -29.8116,-10.4941 L -29.4379,-10.4469 L -29.0729,-10.3532 L -28.7227,-10.2145 L -28.3925,-10.033
 L -28.0877,-9.81154 L -27.8131,-9.55363 L -27.5729,-9.26335 L -27.3711,-8.94525 L -27.3383,-8.87561 L -26.9357,-9.03503
 L -25.7801,-9.33173 L -24.5965,-9.48125 L -23.4035,-9.48125 L -22.2199,-9.33173 L -21.0643,-9.03503 L -19.9551,-8.59586
 L -18.9096,-8.0211 L -17.9445,-7.31987 L -17.0748,-6.50319 L -16.3143,-5.58395 L -15.6751,-4.57664 L -15.1671,-3.49718
 L -14.7984,-2.36255 L -14.5749,-1.19066 L -14.5,-0 L -14.5749,1.19066 L -14.7984,2.36255 L -15.1671,3.49718
 L -15.6751,4.57664 L -16.3143,5.58395 L -17.0748,6.50319 L -17.9445,7.31987 L -18.9096,8.0211 L -19.9551,8.59586
 L -21.0643,9.03503 L -22.2199,9.33173 L -23.4035,9.48125 L -24.5965,9.48125 L -25.7801,9.33173 L -26.9357,9.03503
 L -27.3383,8.87561 L -27.3711,8.94525 L -27.5729,9.26335 L -27.8131,9.55363 L -28.0877,9.81154 L -28.3925,10.033
 L -28.7227,10.2145 L -29.0729,10.3532 L -29.4379,10.4469 L -29.8116,10.4941 z
M 29.8116,10.4941 L 29.4379,10.4469 L 29.0729,10.3532 L 28.7227,10.2145 L 28.3925,10.033 L 28.0877,9.81154
 L 27.8131,9.55363 L 27.5729,9.26335 L 27.3711,8.94525 L 27.3383,8.87561 L 26.9357,9.03503 L 25.7801,9.33173
 L 24.5965,9.48125 L 23.4035,9.48125 L 22.2199,9.33173 L 21.0643,9.03503 L 19.9551,8.59586 L 18.9096,8.0211
 L 17.9445,7.31987 L 17.0748,6.50319 L 16.3143,5.58395 L 15.6751,4.57664 L 15.1671,3.49718 L 14.7984,2.36255
 L 14.5749,1.19066 L 14.5,-0 L 14.5749,-1.19066 L 14.7984,-2.36255 L 15.1671,-3.49718 L 15.6751,-4.57664
 L 16.3143,-5.58395 L 17.0748,-6.50319 L 17.9445,-7.31987 L 18.9096,-8.0211 L 19.9551,-8.59586 L 21.0643,-9.03503
 L 22.2199,-9.33173 L 23.4035,-9.48125 L 24.5965,-9.48125 L 25.7801,-9.33173 L 26.9357,-9.03503 L 27.3383,-8.87561
 L 27.3711,-8.94525 L 27.5729,-9.26335 L 27.8131,-9.55363 L 28.0877,-9.81154 L 28.3925,-10.033 L 28.7227,-10.2145
 L 29.0729,-10.3532 L 29.4379,-10.4469 L 29.8116,-10.4941 L 30.1884,-10.4941 L 30.5621,-10.4469 L 30.927,-10.3532
 L 31.2773,-10.2145 L 31.6075,-10.033 L 31.9123,-9.81154 L 32.1869,-9.55363 L 32.427,-9.26335 L 32.6289,-8.94525
 L 32.7893,-8.60437 L 32.9057,-8.24606 L 32.9763,-7.87599 L 33,-7.5 L 32.9763,-7.12399 L 32.9057,-6.75392
 L 32.7893,-6.39561 L 32.6289,-6.05473 L 32.427,-5.73663 L 32.1869,-5.44635 L 31.9275,-5.2028 L 32.3249,-4.57664
 L 32.8329,-3.49718 L 33.2015,-2.36255 L 33.4251,-1.19066 L 33.5,-0 L 33.4251,1.19066 L 33.2015,2.36255
 L 32.8329,3.49718 L 32.3249,4.57664 L 31.9275,5.2028 L 32.1869,5.44635 L 32.427,5.73663 L 32.6289,6.05473
 L 32.7893,6.39561 L 32.9057,6.75392 L 32.9763,7.12399 L 33,7.5 L 32.9763,7.87599 L 32.9057,8.24606
 L 32.7893,8.60437 L 32.6289,8.94525 L 32.427,9.26335 L 32.1869,9.55363 L 31.9123,9.81154 L 31.6075,10.033
 L 31.2773,10.2145 L 30.927,10.3532 L 30.5621,10.4469 L 30.1884,10.4941 z
M -0.596497,9.48125 L -1.78012,9.33173 L -2.93565,9.03503 L -4.04489,8.59586 L -5.09035,8.0211 L -6.05553,7.31987
 L -6.9252,6.50319 L -7.68565,5.58395 L -8.32491,4.57664 L -8.83287,3.49718 L -9.20154,2.36255 L -9.42508,1.19066
 L -9.5,-0 L -9.42508,-1.19066 L -9.20154,-2.36255 L -8.83287,-3.49718 L -8.32491,-4.57664 L -7.68565,-5.58395
 L -6.9252,-6.50319 L -6.05553,-7.31987 L -5.09035,-8.0211 L -4.04489,-8.59586 L -2.93565,-9.03503 L -1.78012,-9.33173
 L -0.596497,-9.48125 L 0.596497,-9.48125 L 1.78012,-9.33173 L 2.93565,-9.03503 L 4.04489,-8.59586 L 5.09035,-8.0211
 L 6.05553,-7.31987 L 6.9252,-6.50319 L 7.68565,-5.58395 L 8.32491,-4.57664 L 8.83287,-3.49718 L 9.20154,-2.36255
 L 9.42508,-1.19066 L 9.5,-0 L 9.42508,1.19066 L 9.20154,2.36255 L 8.83287,3.49718 L 8.32491,4.57664
 L 7.68565,5.58395 L 6.9252,6.50319 L 6.05553,7.31987 L 5.09035,8.0211 L 4.04489,8.59586 L 2.93565,9.03503
 L 1.78012,9.33173 L 0.596497,9.48125 z
" stroke="black" fill="lightgray" stroke-width="0.5"/>
</svg>
