<?xml version="1.0" standalone="no"?>
<!DOCTYPE svg PUBLIC "-//W3C//DTD SVG 1.1//EN" "http://www.w3.org/Graphics/SVG/1.1/DTD/svg11.dtd">
<svg width="404mm" height="90mm" viewBox="-202 -45 404 90" xmlns="http://www.w3.org/2000/svg" version="1.1">
<title>OpenSCAD Model</title>
<path d="
M 197.937,44.4114 L 198.545,44.2553 L 199.129,44.0241 L 199.679,43.7216 L 200.187,43.3526 L 200.645,42.9227
 L 201.045,42.4389 L 201.382,41.9088 L 201.649,41.3406 L 201.843,40.7434 L 201.961,40.1267 L 202,39.5
 L 202,-39.5 L 201.961,-40.1267 L 201.843,-40.7434 L 201.649,-41.3406 L 201.382,-41.9088 L 201.045,-42.4389
 L 200.645,-42.9227 L 200.187,-43.3526 L 199.679,-43.7216 L 199.129,-44.0241 L 198.545,-44.2553 L 197.937,-44.4114
 L 197.314,-44.4901 L -197.314,-44.4901 L -197.937,-44.4114 L -198.545,-44.2553 L -199.129,-44.0241 L -199.679,-43.7216
 L -200.187,-43.3526 L -200.645,-42.9227 L -201.045,-42.4389 L -201.382,-41.9088 L -201.649,-41.3406 L -201.843,-40.7434
 L -201.961,-40.1267 L -202,-39.5 L -202,39.5 L -201.961,40.1267 L -201.843,40.7434 L -201.649,41.3406
 L -201.382,41.9088 L -201.045,42.4389 L -200.645,42.9227 L -200.187,43.3526 L -199.679,43.7216 L -199.129,44.0241
 L -198.545,44.2553 L -197.937,44.4114 L -197.314,44.4901 L 197.314,44.4901 z
M -195.188,-34.5059 L -195.562,-34.5531 L -195.927,-34.6468 L -196.277,-34.7855 L -196.607,-34.967 L -196.912,-35.1885
 L -197.187,-35.4464 L -197.427,-35.7366 L -197.629,-36.0547 L -197.789,-36.3956 L -197.906,-36.7539 L -197.976,-37.124
 L -198,-37.5 L -197.976,-37.876 L -197.906,-38.2461 L -197.789,-38.6044 L -197.629,-38.9453 L -197.427,-39.2634
 L -197.187,-39.5536 L -196.912,-39.8115 L -196.607,-40.033 L -196.277,-40.2145 L -195.927,-40.3532 L -195.562,-40.4469
 L -195.188,-40.4941 L -194.812,-40.4941 L -194.438,-40.4469 L -194.073,-40.3532 L -193.723,-40.2145 L -193.393,-40.033
 L -193.088,-39.8115 L -192.813,-39.5536 L -192.573,-39.2634 L -192.371,-38.9453 L -192.211,-38.6044 L -192.094,-38.2461
 L -192.024,-37.876 L -192,-37.5 L -192.024,-37.124 L -192.094,-36.7539 L -192.211,-36.3956 L -192.371,-36.0547
 L -192.573,-35.7366 L -192.813,-35.4464 L -193.088,-35.1885 L -193.393,-34.967 L -193.723,-34.7855 L -194.073,-34.6468
 L -194.438,-34.5531 L -194.812,-34.5059 z
M 194.812,-34.5059 L 194.438,-34.5531 L 194.073,-34.6468 L 193.723,-34.7855 L 193.393,-34.967 L 193.088,-35.1885
 L 192.813,-35.4464 L 192.573,-35.7366 L 192.371,-36.0547 L 192.211,-36.3956 L 192.094,-36.7539 L 192.024,-37.124
 L 192,-37.5 L 192.024,-37.876 L 192.094,-38.2461 L 192.211,-38.6044 L 192.371,-38.9453 L 192.573,-39.2634
 L 192.813,-39.5536 L 193.088,-39.8115 L 193.393,-40.033 L 193.723,-40.2145 L 194.073,-40.3532 L 194.438,-40.4469
 L 194.812,-40.4941 L 195.188,-40.4941 L 195.562,-40.4469 L 195.927,-40.3532 L 196.277,-40.2145 L 196.607,-40.033
 L 196.912,-39.8115 L 197.187,-39.5536 L 197.427,-39.2634 L 197.629,-38.9453 L 197.789,-38.6044 L 197.906,-38.2461
 L 197.976,-37.876 L 198,-37.5 L 197.976,-37.124 L 197.906,-36.7539 L 197.789,-36.3956 L 197.629,-36.0547
 L 197.427,-35.7366 L 197.187,-35.4464 L 196.912,-35.1885 L 196.607,-34.967 L 196.277,-34.7855 L 195.927,-34.6468
 L 195.562,-34.5531 L 195.188,-34.5059 z
M 155.677,36.927 L 151.067,36.3446 L 146.566,35.1891 L 142.246,33.4786 L 138.174,31.2401 L 134.415,28.509
 L 131.028,25.3282 L 128.066,21.748 L 125.577,17.8249 L 123.598,13.6206 L 122.162,9.20152 L 121.292,4.63733
 L 121,-0 L 121.292,-4.63733 L 122.162,-9.20152 L 123.598,-13.6206 L 125.577,-17.8249 L 128.066,-21.748
 L 131.028,-25.3282 L 134.415,-28.509 L 138.174,-31.2401 L 142.246,-33.4786 L 146.566,-35.1891 L 151.067,-36.3446
 L 155.677,-36.927 L 160.323,-36.927 L 164.933,-36.3446 L 169.434,-35.1891 L 173.754,-33.4786 L 177.826,-31.2401
 L 181.585,-28.509 L 184.972,-25.3282 L 187.934,-21.748 L 190.423,-17.8249 L 192.402,-13.6206 L 193.838,-9.20152
 L 194.708,-4.63733 L 195,-0 L 194.708,4.63733 L 193.838,9.20152 L 192.402,13.6206 L 190.423,17.8249
 L 187.934,21.748 L 184.972,25.3282 L 181.585,28.509 L 177.826,31.2401 L 173.754,33.4786 L 169.434,35.1891
 L 164.933,36.3446 L 160.323,36.927 z
M -2.32324,36.927 L -6.93311,36.3446 L -11.4336,35.1891 L -15.7538,33.4786 L -19.8256,31.2401 L -23.5847,28.509
 L -26.9718,25.3282 L -29.9336,21.748 L -32.4233,17.8249 L -34.4017,13.6206 L -35.8376,9.20152 L -36.7082,4.63733
 L -37,-0 L -36.7082,-4.63733 L -35.8376,-9.20152 L -34.4017,-13.6206 L -32.4233,-17.8249 L -29.9336,-21.748
 L -26.9718,-25.3282 L -23.5847,-28.509 L -19.8256,-31.2401 L -15.7538,-33.4786 L -11.4336,-35.1891 L -6.93311,-36.3446
 L -2.32324,-36.927 L 2.32324,-36.927 L 6.93311,-36.3446 L 11.4336,-35.1891 L 15.7538,-33.4786 L 19.8256,-31.2401
 L 23.5847,-28.509 L 26.9718,-25.3282 L 29.9336,-21.748 L 32.4233,-17.8249 L 34.4017,-13.6206 L 35.8376,-9.20152
 L 36.7082,-4.63733 L 37,-0 L 36.7082,4.63733 L 35.8376,9.20152 L 34.4017,13.6206 L 32.4233,17.8249
 L 29.9336,21.748 L 26.9718,25.3282 L 23.5847,28.509 L 19.8256,31.2401 L 15.7538,33.4786 L 11.4336,35.1891
 L 6.93311,36.3446 L 2.32324,36.927 z
M -160.323,36.927 L -164.933,36.3446 L -169.434,35.1891 L -173.754,33.4786 L -177.826,31.2401 L -181.585,28.509
 L -184.972,25.3282 L -187.934,21.748 L -190.423,17.8249 L -192.402,13.6206 L -193.838,9.20152 L -194.708,4.63733
 L -195,-0 L -194.708,-4.63733 L -193.838,-9.20152 L -192.402,-13.6206 L -190.423,-17.8249 L -187.934,-21.748
 L -184.972,-25.3282 L -181.585,-28.509 L -177.826,-31.2401 L -173.754,-33.4786 L -169.434,-35.1891 L -164.933,-36.3446
 L -160.323,-36.927 L -155.677,-36.927 L -151.067,-36.3446 L -146.566,-35.1891 L -142.246,-33.4786 L -138.174,-31.2401
 L -134.415,-28.509 L -131.028,-25.3282 L -128.066,-21.748 L -125.577,-17.8249 L -123.598,-13.6206 L -122.162,-9.20152
 L -121.292,-4.63733 L -121,-0 L -121.292,4.63733 L -122.162,9.20152 L -123.598,13.6206 L -125.577,17.8249
 L -128.066,21.748 L -131.028,25.3282 L -134.415,28.509 L -138.174,31.2401 L -142.246,33.4786 L -146.566,35.1891
 L -151.067,36.3446 L -155.677,36.927 z
M 76.6767,36.927 L 72.0669,36.3446 L 67.5664,35.1891 L 63.2462,33.4786 L 59.1744,31.2401 L 55.4153,28.509
 L 52.0282,25.3282 L 49.0664,21.748 L 46.5766,17.8249 L 44.5983,13.6206 L 43.1624,9.20152 L 42.2917,4.63733
 L 42,-0 L 42.2917,-4.63733 L 43.1624,-9.20152 L 44.5983,-13.6206 L 46.5766,-17.8249 L 49.0664,-21.748
 L 52.0282,-25.3282 L 55.4153,-28.509 L 59.1744,-31.2401 L 63.2462,-33.4786 L 67.5664,-35.1891 L 72.0669,-36.3446
 L 76.6767,-36.927 L 81.3232,-36.927 L 85.9331,-36.3446 L 90.4336,-35.1891 L 94.7538,-33.4786 L 98.8256,-31.2401
 L 102.585,-28.509 L 105.972,-25.3282 L 108.934,-21.748 L 111.423,-17.8249 L 113.402,-13.6206 L 114.838,-9.20152
 L 115.708,-4.63733 L 116,-0 L 115.708,4.63733 L 114.838,9.20152 L 113.402,13.6206 L 111.423,17.8249
 L 108.934,21.748 L 105.972,25.3282 L 102.585,28.509 L 98.8256,31.2401 L 94.7538,33.4786 L 90.4336,35.1891
 L 85.9331,36.3446 L 81.3232,36.927 z
M -81.3232,36.927 L -85.9331,36.3446 L -90.4336,35.1891 L -94.7538,33.4786 L -98.8256,31.2401 L -102.585,28.509
 L -105.972,25.3282 L -108.934,21.748 L -111.423,17.8249 L -113.402,13.6206 L -114.838,9.20152 L -115.708,4.63733
 L -116,-0 L -115.708,-4.63733 L -114.838,-9.20152 L -113.402,-13.6206 L -111.423,-17.8249 L -108.934,-21.748
 L -105.972,-25.3282 L -102.585,-28.509 L -98.8256,-31.2401 L -94.7538,-33.4786 L -90.4336,-35.1891 L -85.9331,-36.3446
 L -81.3232,-36.927 L -76.6767,-36.927 L -72.0669,-36.3446 L -67.5664,-35.1891 L -63.2462,-33.4786 L -59.1744,-31.2401
 L -55.4153,-28.509 L -52.0282,-25.3282 L -49.0664,-21.748 L -46.5766,-17.8249 L -44.5983,-13.6206 L -43.1624,-9.20152
 L -42.2917,-4.63733 L -42,-0 L -42.2917,4.63733 L -43.1624,9.20152 L -44.5983,13.6206 L -46.5766,17.8249
 L -49.0664,21.748 L -52.0282,25.3282 L -55.4153,28.509 L -59.1744,31.2401 L -63.2462,33.4786 L -67.5664,35.1891
 L -72.0669,36.3446 L -76.6767,36.927 z
M 194.812,40.4941 L 194.438,40.4469 L 194.073,40.3532 L 193.723,40.2145 L 193.393,40.033 L 193.088,39.8115
 L 192.813,39.5536 L 192.573,39.2634 L 192.371,38.9453 L 192.211,38.6044 L 192.094,38.2461 L 192.024,37.876
 L 192,37.5 L 192.024,37.124 L 192.094,36.7539 L 192.211,36.3956 L 192.371,36.0547 L 192.573,35.7366
 L 192.813,35.4464 L 193.088,35.1885 L 193.393,34.967 L 193.723,34.7855 L 194.073,34.6468 L 194.438,34.5531
 L 194.812,34.5059 L 195.188,34.5059 L 195.562,34.5531 L 195.927,34.6468 L 196.277,34.7855 L 196.607,34.967
 L 196.912,35.1885 L 197.187,35.4464 L 197.427,35.7366 L 197.629,36.0547 L 197.789,36.3956 L 197.906,36.7539
 L 197.976,37.124 L 198,37.5 L 197.976,37.876 L 197.906,38.2461 L 197.789,38.6044 L 197.629,38.9453
 L 197.427,39.2634 L 197.187,39.5536 L 196.912,39.8115 L 196.607,40.033 L 196.277,40.2145 L 195.927,40.3532
 L 195.562,40.4469 L 195.188,40.4941 z
M -195.188,40.4941 L -195.562,40.4469 L -195.927,40.3532 L -196.277,40.2145 L -196.607,40.033 L -196.912,39.8115
 L -197.187,39.5536 L -197.427,39.2634 L -197.629,38.9453 L -197.789,38.6044 L -197.906,38.2461 L -197.976,37.876
 L -198,37.5 L -197.976,37.124 L -197.906,36.7539 L -197.789,36.3956 L -197.629,36.0547 L -197.427,35.7366
 L -197.187,35.4464 L -196.912,35.1885 L -196.607,34.967 L -196.277,34.7855 L -195.927,34.6468 L -195.562,34.5531
 L -195.188,34.5059 L -194.812,34.5059 L -194.438,34.5531 L -194.073,34.6468 L -193.723,34.7855 L -193.393,34.967
 L -193.088,35.1885 L -192.813,35.4464 L -192.573,35.7366 L -192.371,36.0547 L -192.211,36.3956 L -192.094,36.7539
 L -192.024,37.124 L -192,37.5 L -192.024,37.876 L -192.094,38.2461 L -192.211,38.6044 L -192.371,38.9453
 L -192.573,39.2634 L -192.813,39.5536 L -193.088,39.8115 L -193.393,40.033 L -193.723,40.2145 L -194.073,40.3532
 L -194.438,40.4469 L -194.812,40.4941 z
" stroke="black" fill="lightgray" stroke-width="0.5"/>
</svg>
