<?xml version="1.0" standalone="no"?>
<!DOCTYPE svg PUBLIC "-//W3C//DTD SVG 1.1//EN" "http://www.w3.org/Graphics/SVG/1.1/DTD/svg11.dtd">
<svg width="240mm" height="74mm" viewBox="-120 -37 240 74" xmlns="http://www.w3.org/2000/svg" version="1.1">
<title>OpenSCAD Model</title>
<path d="
M 115.437,36.9114 L 116.045,36.7553 L 116.629,36.5241 L 117.179,36.2216 L 117.687,35.8526 L 118.145,35.4227
 L 118.545,34.9389 L 118.882,34.4088 L 119.149,33.8406 L 119.343,33.2434 L 119.461,32.6267 L 119.5,32
 L 119.5,-32 L 119.461,-32.6267 L 119.343,-33.2434 L 119.149,-33.8406 L 118.882,-34.4088 L 118.545,-34.9389
 L 118.145,-35.4227 L 117.687,-35.8526 L 117.179,-36.2216 L 116.629,-36.5241 L 116.045,-36.7553 L 115.437,-36.9114
 L 114.814,-36.9901 L -114.814,-36.9901 L -115.437,-36.9114 L -116.045,-36.7553 L -116.629,-36.5241 L -117.179,-36.2216
 L -117.687,-35.8526 L -118.145,-35.4227 L -118.545,-34.9389 L -118.882,-34.4088 L -119.149,-33.8406 L -119.343,-33.2434
 L -119.461,-32.6267 L -119.5,-32 L -119.5,32 L -119.461,32.6267 L -119.343,33.2434 L -119.149,33.8406
 L -118.882,34.4088 L -118.545,34.9389 L -118.145,35.4227 L -117.687,35.8526 L -117.179,36.2216 L -116.629,36.5241
 L -116.045,36.7553 L -115.437,36.9114 L -114.814,36.9901 L 114.814,36.9901 z
M 70.8651,33.9329 L 66.629,33.3978 L 62.4934,32.3359 L 58.5235,30.7641 L 54.7819,28.7071 L 51.3276,26.1974
 L 48.2151,23.2746 L 45.4934,19.9847 L 43.2056,16.3796 L 41.3876,12.5162 L 40.0682,8.45544 L 39.2681,4.26132
 L 39,-0 L 39.2681,-4.26132 L 40.0682,-8.45544 L 41.3876,-12.5162 L 43.2056,-16.3796 L 45.4934,-19.9847
 L 48.2151,-23.2746 L 51.3276,-26.1974 L 54.7819,-28.7071 L 58.5235,-30.7641 L 62.4934,-32.3359 L 66.629,-33.3978
 L 70.8651,-33.9329 L 75.1349,-33.9329 L 79.371,-33.3978 L 83.5066,-32.3359 L 87.4765,-30.7641 L 91.2181,-28.7071
 L 94.6724,-26.1974 L 97.7849,-23.2746 L 100.507,-19.9847 L 102.794,-16.3796 L 104.612,-12.5162 L 105.932,-8.45544
 L 106.732,-4.26132 L 107,-0 L 106.732,4.26132 L 105.932,8.45544 L 104.612,12.5162 L 102.794,16.3796
 L 100.507,19.9847 L 97.7849,23.2746 L 94.6724,26.1974 L 91.2181,28.7071 L 87.4765,30.7641 L 83.5066,32.3359
 L 79.371,33.3978 L 75.1349,33.9329 z
M -75.1349,33.9329 L -79.371,33.3978 L -83.5066,32.3359 L -87.4765,30.7641 L -91.2181,28.7071 L -94.6724,26.1974
 L -97.7849,23.2746 L -100.507,19.9847 L -102.794,16.3796 L -104.612,12.5162 L -105.932,8.45544 L -106.732,4.26132
 L -107,-0 L -106.732,-4.26132 L -105.932,-8.45544 L -104.612,-12.5162 L -102.794,-16.3796 L -100.507,-19.9847
 L -97.7849,-23.2746 L -94.6724,-26.1974 L -91.2181,-28.7071 L -87.4765,-30.7641 L -83.5066,-32.3359 L -79.371,-33.3978
 L -75.1349,-33.9329 L -70.8651,-33.9329 L -66.629,-33.3978 L -62.4934,-32.3359 L -58.5235,-30.7641 L -54.7819,-28.7071
 L -51.3276,-26.1974 L -48.2151,-23.2746 L -45.4934,-19.9847 L -43.2056,-16.3796 L -41.3876,-12.5162 L -40.0682,-8.45544
 L -39.2681,-4.26132 L -39,-0 L -39.2681,4.26132 L -40.0682,8.45544 L -41.3876,12.5162 L -43.2056,16.3796
 L -45.4934,19.9847 L -48.2151,23.2746 L -51.3276,26.1974 L -54.7819,28.7071 L -58.5235,30.7641 L -62.4934,32.3359
 L -66.629,33.3978 L -70.8651,33.9329 z
M -2.13487,33.9329 L -6.37096,33.3978 L -10.5066,32.3359 L -14.4765,30.7641 L -18.2181,28.7071 L -21.6724,26.1974
 L -24.7849,23.2746 L -27.5066,19.9847 L -29.7944,16.3796 L -31.6124,12.5162 L -32.9318,8.45544 L -33.7319,4.26132
 L -34,-0 L -33.7319,-4.26132 L -32.9318,-8.45544 L -31.6124,-12.5162 L -29.7944,-16.3796 L -27.5066,-19.9847
 L -24.7849,-23.2746 L -21.6724,-26.1974 L -18.2181,-28.7071 L -14.4765,-30.7641 L -10.5066,-32.3359 L -6.37096,-33.3978
 L -2.13487,-33.9329 L 2.13487,-33.9329 L 6.37096,-33.3978 L 10.5066,-32.3359 L 14.4765,-30.7641 L 18.2181,-28.7071
 L 21.6724,-26.1974 L 24.7849,-23.2746 L 27.5066,-19.9847 L 29.7944,-16.3796 L 31.6124,-12.5162 L 32.9318,-8.45544
 L 33.7319,-4.26132 L 34,-0 L 33.7319,4.26132 L 32.9318,8.45544 L 31.6124,12.5162 L 29.7944,16.3796
 L 27.5066,19.9847 L 24.7849,23.2746 L 21.6724,26.1974 L 18.2181,28.7071 L 14.4765,30.7641 L 10.5066,32.3359
 L 6.37096,33.3978 L 2.13487,33.9329 z
M 112.312,-27.0059 L 111.938,-27.0531 L 111.573,-27.1468 L 111.223,-27.2855 L 110.893,-27.467 L 110.588,-27.6884
 L 110.313,-27.9464 L 110.073,-28.2366 L 109.871,-28.5547 L 109.711,-28.8956 L 109.594,-29.2539 L 109.524,-29.624
 L 109.5,-30 L 109.524,-30.376 L 109.594,-30.7461 L 109.711,-31.1044 L 109.871,-31.4453 L 110.073,-31.7634
 L 110.313,-32.0536 L 110.588,-32.3115 L 110.893,-32.533 L 111.223,-32.7145 L 111.573,-32.8532 L 111.938,-32.9469
 L 112.312,-32.9941 L 112.688,-32.9941 L 113.062,-32.9469 L 113.427,-32.8532 L 113.777,-32.7145 L 114.107,-32.533
 L 114.412,-32.3115 L 114.687,-32.0536 L 114.927,-31.7634 L 115.129,-31.4453 L 115.289,-31.1044 L 115.406,-30.7461
 L 115.476,-30.376 L 115.5,-30 L 115.476,-29.624 L 115.406,-29.2539 L 115.289,-28.8956 L 115.129,-28.5547
 L 114.927,-28.2366 L 114.687,-27.9464 L 114.412,-27.6884 L 114.107,-27.467 L 113.777,-27.2855 L 113.427,-27.1468
 L 113.062,-27.0531 L 112.688,-27.0059 z
M -112.688,-27.0059 L -113.062,-27.0531 L -113.427,-27.1468 L -113.777,-27.2855 L -114.107,-27.467 L -114.412,-27.6884
 L -114.687,-27.9464 L -114.927,-28.2366 L -115.129,-28.5547 L -115.289,-28.8956 L -115.406,-29.2539 L -115.476,-29.624
 L -115.5,-30 L -115.476,-30.376 L -115.406,-30.7461 L -115.289,-31.1044 L -115.129,-31.4453 L -114.927,-31.7634
 L -114.687,-32.0536 L -114.412,-32.3115 L -114.107,-32.533 L -113.777,-32.7145 L -113.427,-32.8532 L -113.062,-32.9469
 L -112.688,-32.9941 L -112.312,-32.9941 L -111.938,-32.9469 L -111.573,-32.8532 L -111.223,-32.7145 L -110.893,-32.533
 L -110.588,-32.3115 L -110.313,-32.0536 L -110.073,-31.7634 L -109.871,-31.4453 L -109.711,-31.1044 L -109.594,-30.7461
 L -109.524,-30.376 L -109.5,-30 L -109.524,-29.624 L -109.594,-29.2539 L -109.711,-28.8956 L -109.871,-28.5547
 L -110.073,-28.2366 L -110.313,-27.9464 L -110.588,-27.6884 L -110.893,-27.467 L -111.223,-27.2855 L -111.573,-27.1468
 L -111.938,-27.0531 L -112.312,-27.0059 z
M 112.406,-21.003 L 112.219,-21.0266 L 112.036,-21.0734 L 111.861,-21.1427 L 111.696,-21.2335 L 111.544,-21.3442
 L 111.407,-21.4732 L 111.286,-21.6183 L 111.186,-21.7774 L 111.105,-21.9478 L 111.047,-22.127 L 111.012,-22.312
 L 111,-22.5 L 111.012,-22.688 L 111.047,-22.873 L 111.105,-23.0522 L 111.186,-23.2226 L 111.286,-23.3817
 L 111.407,-23.5268 L 111.544,-23.6558 L 111.696,-23.7665 L 111.861,-23.8572 L 112.036,-23.9266 L 112.219,-23.9734
 L 112.406,-23.997 L 112.594,-23.997 L 112.781,-23.9734 L 112.964,-23.9266 L 113.139,-23.8572 L 113.304,-23.7665
 L 113.456,-23.6558 L 113.593,-23.5268 L 113.714,-23.3817 L 113.814,-23.2226 L 113.895,-23.0522 L 113.953,-22.873
 L 113.988,-22.688 L 114,-22.5 L 113.988,-22.312 L 113.953,-22.127 L 113.895,-21.9478 L 113.814,-21.7774
 L 113.714,-21.6183 L 113.593,-21.4732 L 113.456,-21.3442 L 113.304,-21.2335 L 113.139,-21.1427 L 112.964,-21.0734
 L 112.781,-21.0266 L 112.594,-21.003 z
M -112.594,-21.003 L -112.781,-21.0266 L -112.964,-21.0734 L -113.139,-21.1427 L -113.304,-21.2335 L -113.456,-21.3442
 L -113.593,-21.4732 L -113.714,-21.6183 L -113.814,-21.7774 L -113.895,-21.9478 L -113.953,-22.127 L -113.988,-22.312
 L -114,-22.5 L -113.988,-22.688 L -113.953,-22.873 L -113.895,-23.0522 L -113.814,-23.2226 L -113.714,-23.3817
 L -113.593,-23.5268 L -113.456,-23.6558 L -113.304,-23.7665 L -113.139,-23.8572 L -112.964,-23.9266 L -112.781,-23.9734
 L -112.594,-23.997 L -112.406,-23.997 L -112.219,-23.9734 L -112.036,-23.9266 L -111.861,-23.8572 L -111.696,-23.7665
 L -111.544,-23.6558 L -111.407,-23.5268 L -111.286,-23.3817 L -111.186,-23.2226 L -111.105,-23.0522 L -111.047,-22.873
 L -111.012,-22.688 L -111,-22.5 L -111.012,-22.312 L -111.047,-22.127 L -111.105,-21.9478 L -111.186,-21.7774
 L -111.286,-21.6183 L -111.407,-21.4732 L -111.544,-21.3442 L -111.696,-21.2335 L -111.861,-21.1427 L -112.036,-21.0734
 L -112.219,-21.0266 L -112.406,-21.003 z
M 112.312,-12.0059 L 111.938,-12.0531 L 111.573,-12.1468 L 111.223,-12.2855 L 110.893,-12.467 L 110.588,-12.6884
 L 110.313,-12.9464 L 110.073,-13.2366 L 109.871,-13.5547 L 109.711,-13.8956 L 109.594,-14.2539 L 109.524,-14.624
 L 109.5,-15 L 109.524,-15.376 L 109.594,-15.7461 L 109.711,-16.1044 L 109.871,-16.4453 L 110.073,-16.7634
 L 110.313,-17.0536 L 110.588,-17.3115 L 110.893,-17.533 L 111.223,-17.7145 L 111.573,-17.8532 L 111.938,-17.9469
 L 112.312,-17.9941 L 112.688,-17.9941 L 113.062,-17.9469 L 113.427,-17.8532 L 113.777,-17.7145 L 114.107,-17.533
 L 114.412,-17.3115 L 114.687,-17.0536 L 114.927,-16.7634 L 115.129,-16.4453 L 115.289,-16.1044 L 115.406,-15.7461
 L 115.476,-15.376 L 115.5,-15 L 115.476,-14.624 L 115.406,-14.2539 L 115.289,-13.8956 L 115.129,-13.5547
 L 114.927,-13.2366 L 114.687,-12.9464 L 114.412,-12.6884 L 114.107,-12.467 L 113.777,-12.2855 L 113.427,-12.1468
 L 113.062,-12.0531 L 112.688,-12.0059 z
M -112.688,-12.0059 L -113.062,-12.0531 L -113.427,-12.1468 L -113.777,-12.2855 L -114.107,-12.467 L -114.412,-12.6884
 L -114.687,-12.9464 L -114.927,-13.2366 L -115.129,-13.5547 L -115.289,-13.8956 L -115.406,-14.2539 L -115.476,-14.624
 L -115.5,-15 L -115.476,-15.376 L -115.406,-15.7461 L -115.289,-16.1044 L -115.129,-16.4453 L -114.927,-16.7634
 L -114.687,-17.0536 L -114.412,-17.3115 L -114.107,-17.533 L -113.777,-17.7145 L -113.427,-17.8532 L -113.062,-17.9469
 L -112.688,-17.9941 L -112.312,-17.9941 L -111.938,-17.9469 L -111.573,-17.8532 L -111.223,-17.7145 L -110.893,-17.533
 L -110.588,-17.3115 L -110.313,-17.0536 L -110.073,-16.7634 L -109.871,-16.4453 L -109.711,-16.1044 L -109.594,-15.7461
 L -109.524,-15.376 L -109.5,-15 L -109.524,-14.624 L -109.594,-14.2539 L -109.711,-13.8956 L -109.871,-13.5547
 L -110.073,-13.2366 L -110.313,-12.9464 L -110.588,-12.6884 L -110.893,-12.467 L -111.223,-12.2855 L -111.573,-12.1468
 L -111.938,-12.0531 L -112.312,-12.0059 z
M -112.594,-6.00294 L -112.781,-6.02657 L -112.964,-6.07341 L -113.139,-6.14275 L -113.304,-6.23351 L -113.456,-6.34422
 L -113.593,-6.47318 L -113.714,-6.61832 L -113.814,-6.77736 L -113.895,-6.9478 L -113.953,-7.12695 L -113.988,-7.312
 L -114,-7.5 L -113.988,-7.68799 L -113.953,-7.87303 L -113.895,-8.05219 L -113.814,-8.22263 L -113.714,-8.38167
 L -113.593,-8.52681 L -113.456,-8.65576 L -113.304,-8.76648 L -113.139,-8.85724 L -112.964,-8.92657 L -112.781,-8.97342
 L -112.594,-8.99704 L -112.406,-8.99704 L -112.219,-8.97342 L -112.036,-8.92657 L -111.861,-8.85724 L -111.696,-8.76648
 L -111.544,-8.65576 L -111.407,-8.52681 L -111.286,-8.38167 L -111.186,-8.22263 L -111.105,-8.05219 L -111.047,-7.87303
 L -111.012,-7.68799 L -111,-7.5 L -111.012,-7.312 L -111.047,-7.12695 L -111.105,-6.9478 L -111.186,-6.77736
 L -111.286,-6.61832 L -111.407,-6.47318 L -111.544,-6.34422 L -111.696,-6.23351 L -111.861,-6.14275 L -112.036,-6.07341
 L -112.219,-6.02657 L -112.406,-6.00294 z
M 112.406,-6.00294 L 112.219,-6.02657 L 112.036,-6.07341 L 111.861,-6.14275 L 111.696,-6.23351 L 111.544,-6.34422
 L 111.407,-6.47318 L 111.286,-6.61832 L 111.186,-6.77736 L 111.105,-6.9478 L 111.047,-7.12695 L 111.012,-7.312
 L 111,-7.5 L 111.012,-7.68799 L 111.047,-7.87303 L 111.105,-8.05219 L 111.186,-8.22263 L 111.286,-8.38167
 L 111.407,-8.52681 L 111.544,-8.65576 L 111.696,-8.76648 L 111.861,-8.85724 L 112.036,-8.92657 L 112.219,-8.97342
 L 112.406,-8.99704 L 112.594,-8.99704 L 112.781,-8.97342 L 112.964,-8.92657 L 113.139,-8.85724 L 113.304,-8.76648
 L 113.456,-8.65576 L 113.593,-8.52681 L 113.714,-8.38167 L 113.814,-8.22263 L 113.895,-8.05219 L 113.953,-7.87303
 L 113.988,-7.68799 L 114,-7.5 L 113.988,-7.312 L 113.953,-7.12695 L 113.895,-6.9478 L 113.814,-6.77736
 L 113.714,-6.61832 L 113.593,-6.47318 L 113.456,-6.34422 L 113.304,-6.23351 L 113.139,-6.14275 L 112.964,-6.07341
 L 112.781,-6.02657 L 112.594,-6.00294 z
M -112.688,2.99408 L -113.062,2.94685 L -113.427,2.85316 L -113.777,2.71448 L -114.107,2.53297 L -114.412,2.31154
 L -114.687,2.05363 L -114.927,1.76335 L -115.129,1.44525 L -115.289,1.10437 L -115.406,0.746063 L -115.476,0.375992
 L -115.5,-0 L -115.476,-0.375992 L -115.406,-0.746063 L -115.289,-1.10437 L -115.129,-1.44525 L -114.927,-1.76335
 L -114.687,-2.05363 L -114.412,-2.31154 L -114.107,-2.53297 L -113.777,-2.71448 L -113.427,-2.85316 L -113.062,-2.94685
 L -112.688,-2.99408 L -112.312,-2.99408 L -111.938,-2.94685 L -111.573,-2.85316 L -111.223,-2.71448 L -110.893,-2.53297
 L -110.588,-2.31154 L -110.313,-2.05363 L -110.073,-1.76335 L -109.871,-1.44525 L -109.711,-1.10437 L -109.594,-0.746063
 L -109.524,-0.375992 L -109.5,-0 L -109.524,0.375992 L -109.594,0.746063 L -109.711,1.10437 L -109.871,1.44525
 L -110.073,1.76335 L -110.313,2.05363 L -110.588,2.31154 L -110.893,2.53297 L -111.223,2.71448 L -111.573,2.85316
 L -111.938,2.94685 L -112.312,2.99408 z
M 112.312,2.99408 L 111.938,2.94685 L 111.573,2.85316 L 111.223,2.71448 L 110.893,2.53297 L 110.588,2.31154
 L 110.313,2.05363 L 110.073,1.76335 L 109.871,1.44525 L 109.711,1.10437 L 109.594,0.746063 L 109.524,0.375992
 L 109.5,-0 L 109.524,-0.375992 L 109.594,-0.746063 L 109.711,-1.10437 L 109.871,-1.44525 L 110.073,-1.76335
 L 110.313,-2.05363 L 110.588,-2.31154 L 110.893,-2.53297 L 111.223,-2.71448 L 111.573,-2.85316 L 111.938,-2.94685
 L 112.312,-2.99408 L 112.688,-2.99408 L 113.062,-2.94685 L 113.427,-2.85316 L 113.777,-2.71448 L 114.107,-2.53297
 L 114.412,-2.31154 L 114.687,-2.05363 L 114.927,-1.76335 L 115.129,-1.44525 L 115.289,-1.10437 L 115.406,-0.746063
 L 115.476,-0.375992 L 115.5,-0 L 115.476,0.375992 L 115.406,0.746063 L 115.289,1.10437 L 115.129,1.44525
 L 114.927,1.76335 L 114.687,2.05363 L 114.412,2.31154 L 114.107,2.53297 L 113.777,2.71448 L 113.427,2.85316
 L 113.062,2.94685 L 112.688,2.99408 z
M -112.594,8.99704 L -112.781,8.97342 L -112.964,8.92657 L -113.139,8.85724 L -113.304,8.76648 L -113.456,8.65576
 L -113.593,8.52681 L -113.714,8.38167 L -113.814,8.22263 L -113.895,8.05219 L -113.953,7.87303 L -113.988,7.68799
 L -114,7.5 L -113.988,7.312 L -113.953,7.12695 L -113.895,6.9478 L -113.814,6.77736 L -113.714,6.61832
 L -113.593,6.47318 L -113.456,6.34422 L -113.304,6.23351 L -113.139,6.14275 L -112.964,6.07341 L -112.781,6.02657
 L -112.594,6.00294 L -112.406,6.00294 L -112.219,6.02657 L -112.036,6.07341 L -111.861,6.14275 L -111.696,6.23351
 L -111.544,6.34422 L -111.407,6.47318 L -111.286,6.61832 L -111.186,6.77736 L -111.105,6.9478 L -111.047,7.12695
 L -111.012,7.312 L -111,7.5 L -111.012,7.68799 L -111.047,7.87303 L -111.105,8.05219 L -111.186,8.22263
 L -111.286,8.38167 L -111.407,8.52681 L -111.544,8.65576 L -111.696,8.76648 L -111.861,8.85724 L -112.036,8.92657
 L -112.219,8.97342 L -112.406,8.99704 z
M 112.406,8.99704 L 112.219,8.97342 L 112.036,8.92657 L 111.861,8.85724 L 111.696,8.76648 L 111.544,8.65576
 L 111.407,8.52681 L 111.286,8.38167 L 111.186,8.22263 L 111.105,8.05219 L 111.047,7.87303 L 111.012,7.68799
 L 111,7.5 L 111.012,7.312 L 111.047,7.12695 L 111.105,6.9478 L 111.186,6.77736 L 111.286,6.61832
 L 111.407,6.47318 L 111.544,6.34422 L 111.696,6.23351 L 111.861,6.14275 L 112.036,6.07341 L 112.219,6.02657
 L 112.406,6.00294 L 112.594,6.00294 L 112.781,6.02657 L 112.964,6.07341 L 113.139,6.14275 L 113.304,6.23351
 L 113.456,6.34422 L 113.593,6.47318 L 113.714,6.61832 L 113.814,6.77736 L 113.895,6.9478 L 113.953,7.12695
 L 113.988,7.312 L 114,7.5 L 113.988,7.68799 L 113.953,7.87303 L 113.895,8.05219 L 113.814,8.22263
 L 113.714,8.38167 L 113.593,8.52681 L 113.456,8.65576 L 113.304,8.76648 L 113.139,8.85724 L 112.964,8.92657
 L 112.781,8.97342 L 112.594,8.99704 z
M 112.312,17.9941 L 111.938,17.9469 L 111.573,17.8532 L 111.223,17.7145 L 110.893,17.533 L 110.588,17.3115
 L 110.313,17.0536 L 110.073,16.7634 L 109.871,16.4453 L 109.711,16.1044 L 109.594,15.7461 L 109.524,15.376
 L 109.5,15 L 109.524,14.624 L 109.594,14.2539 L 109.711,13.8956 L 109.871,13.5547 L 110.073,13.2366
 L 110.313,12.9464 L 110.588,12.6884 L 110.893,12.467 L 111.223,12.2855 L 111.573,12.1468 L 111.938,12.0531
 L 112.312,12.0059 L 112.688,12.0059 L 113.062,12.0531 L 113.427,12.1468 L 113.777,12.2855 L 114.107,12.467
 L 114.412,12.6884 L 114.687,12.9464 L 114.927,13.2366 L 115.129,13.5547 L 115.289,13.8956 L 115.406,14.2539
 L 115.476,14.624 L 115.5,15 L 115.476,15.376 L 115.406,15.7461 L 115.289,16.1044 L 115.129,16.4453
 L 114.927,16.7634 L 114.687,17.0536 L 114.412,17.3115 L 114.107,17.533 L 113.777,17.7145 L 113.427,17.8532
 L 113.062,17.9469 L 112.688,17.9941 z
M -112.688,17.9941 L -113.062,17.9469 L -113.427,17.8532 L -113.777,17.7145 L -114.107,17.533 L -114.412,17.3115
 L -114.687,17.0536 L -114.927,16.7634 L -115.129,16.4453 L -115.289,16.1044 L -115.406,15.7461 L -115.476,15.376
 L -115.5,15 L -115.476,14.624 L -115.406,14.2539 L -115.289,13.8956 L -115.129,13.5547 L -114.927,13.2366
 L -114.687,12.9464 L -114.412,12.6884 L -114.107,12.467 L -113.777,12.2855 L -113.427,12.1468 L -113.062,12.0531
 L -112.688,12.0059 L -112.312,12.0059 L -111.938,12.0531 L -111.573,12.1468 L -111.223,12.2855 L -110.893,12.467
 L -110.588,12.6884 L -110.313,12.9464 L -110.073,13.2366 L -109.871,13.5547 L -109.711,13.8956 L -109.594,14.2539
 L -109.524,14.624 L -109.5,15 L -109.524,15.376 L -109.594,15.7461 L -109.711,16.1044 L -109.871,16.4453
 L -110.073,16.7634 L -110.313,17.0536 L -110.588,17.3115 L -110.893,17.533 L -111.223,17.7145 L -111.573,17.8532
 L -111.938,17.9469 L -112.312,17.9941 z
M 112.406,23.997 L 112.219,23.9734 L 112.036,23.9266 L 111.861,23.8572 L 111.696,23.7665 L 111.544,23.6558
 L 111.407,23.5268 L 111.286,23.3817 L 111.186,23.2226 L 111.105,23.0522 L 111.047,22.873 L 111.012,22.688
 L 111,22.5 L 111.012,22.312 L 111.047,22.127 L 111.105,21.9478 L 111.186,21.7774 L 111.286,21.6183
 L 111.407,21.4732 L 111.544,21.3442 L 111.696,21.2335 L 111.861,21.1427 L 112.036,21.0734 L 112.219,21.0266
 L 112.406,21.003 L 112.594,21.003 L 112.781,21.0266 L 112.964,21.0734 L 113.139,21.1427 L 113.304,21.2335
 L 113.456,21.3442 L 113.593,21.4732 L 113.714,21.6183 L 113.814,21.7774 L 113.895,21.9478 L 113.953,22.127
 L 113.988,22.312 L 114,22.5 L 113.988,22.688 L 113.953,22.873 L 113.895,23.0522 L 113.814,23.2226
 L 113.714,23.3817 L 113.593,23.5268 L 113.456,23.6558 L 113.304,23.7665 L 113.139,23.8572 L 112.964,23.9266
 L 112.781,23.9734 L 112.594,23.997 z
M -112.594,23.997 L -112.781,23.9734 L -112.964,23.9266 L -113.139,23.8572 L -113.304,23.7665 L -113.456,23.6558
 L -113.593,23.5268 L -113.714,23.3817 L -113.814,23.2226 L -113.895,23.0522 L -113.953,22.873 L -113.988,22.688
 L -114,22.5 L -113.988,22.312 L -113.953,22.127 L -113.895,21.9478 L -113.814,21.7774 L -113.714,21.6183
 L -113.593,21.4732 L -113.456,21.3442 L -113.304,21.2335 L -113.139,21.1427 L -112.964,21.0734 L -112.781,21.0266
 L -112.594,21.003 L -112.406,21.003 L -112.219,21.0266 L -112.036,21.0734 L -111.861,21.1427 L -111.696,21.2335
 L -111.544,21.3442 L -111.407,21.4732 L -111.286,21.6183 L -111.186,21.7774 L -111.105,21.9478 L -111.047,22.127
 L -111.012,22.312 L -111,22.5 L -111.012,22.688 L -111.047,22.873 L -111.105,23.0522 L -111.186,23.2226
 L -111.286,23.3817 L -111.407,23.5268 L -111.544,23.6558 L -111.696,23.7665 L -111.861,23.8572 L -112.036,23.9266
 L -112.219,23.9734 L -112.406,23.997 z
M -112.688,32.9941 L -113.062,32.9469 L -113.427,32.8532 L -113.777,32.7145 L -114.107,32.533 L -114.412,32.3115
 L -114.687,32.0536 L -114.927,31.7634 L -115.129,31.4453 L -115.289,31.1044 L -115.406,30.7461 L -115.476,30.376
 L -115.5,30 L -115.476,29.624 L -115.406,29.2539 L -115.289,28.8956 L -115.129,28.5547 L -114.927,28.2366
 L -114.687,27.9464 L -114.412,27.6884 L -114.107,27.467 L -113.777,27.2855 L -113.427,27.1468 L -113.062,27.0531
 L -112.688,27.0059 L -112.312,27.0059 L -111.938,27.0531 L -111.573,27.1468 L -111.223,27.2855 L -110.893,27.467
 L -110.588,27.6884 L -110.313,27.9464 L -110.073,28.2366 L -109.871,28.5547 L -109.711,28.8956 L -109.594,29.2539
 L -109.524,29.624 L -109.5,30 L -109.524,30.376 L -109.594,30.7461 L -109.711,31.1044 L -109.871,31.4453
 L -110.073,31.7634 L -110.313,32.0536 L -110.588,32.3115 L -110.893,32.533 L -111.223,32.7145 L -111.573,32.8532
 L -111.938,32.9469 L -112.312,32.9941 z
M 112.312,32.9941 L 111.938,32.9469 L 111.573,32.8532 L 111.223,32.7145 L 110.893,32.533 L 110.588,32.3115
 L 110.313,32.0536 L 110.073,31.7634 L 109.871,31.4453 L 109.711,31.1044 L 109.594,30.7461 L 109.524,30.376
 L 109.5,30 L 109.524,29.624 L 109.594,29.2539 L 109.711,28.8956 L 109.871,28.5547 L 110.073,28.2366
 L 110.313,27.9464 L 110.588,27.6884 L 110.893,27.467 L 111.223,27.2855 L 111.573,27.1468 L 111.938,27.0531
 L 112.312,27.0059 L 112.688,27.0059 L 113.062,27.0531 L 113.427,27.1468 L 113.777,27.2855 L 114.107,27.467
 L 114.412,27.6884 L 114.687,27.9464 L 114.927,28.2366 L 115.129,28.5547 L 115.289,28.8956 L 115.406,29.2539
 L 115.476,29.624 L 115.5,30 L 115.476,30.376 L 115.406,30.7461 L 115.289,31.1044 L 115.129,31.4453
 L 114.927,31.7634 L 114.687,32.0536 L 114.412,32.3115 L 114.107,32.533 L 113.777,32.7145 L 113.427,32.8532
 L 113.062,32.9469 L 112.688,32.9941 z
" stroke="black" fill="lightgray" stroke-width="0.5"/>
</svg>
