<?xml version="1.0" standalone="no"?>
<!DOCTYPE svg PUBLIC "-//W3C//DTD SVG 1.1//EN" "http://www.w3.org/Graphics/SVG/1.1/DTD/svg11.dtd">
<svg width="60mm" height="30mm" viewBox="-30 -54 60 30" xmlns="http://www.w3.org/2000/svg" version="1.1">
<title>OpenSCAD Model</title>
<path d="
M 25.4369,-24.5886 L 26.0451,-24.7447 L 26.6289,-24.9759 L 27.1791,-25.2784 L 27.6871,-25.6474 L 28.1448,-26.0773
 L 28.5451,-26.5611 L 28.8815,-27.0912 L 29.1489,-27.6594 L 29.3429,-28.2566 L 29.4606,-28.8733 L 29.5,-29.5
 L 29.5,-48.5 L 29.4606,-49.1267 L 29.3429,-49.7434 L 29.1489,-50.3406 L 28.8815,-50.9088 L 28.5451,-51.4389
 L 28.1448,-51.9227 L 27.6871,-52.3526 L 27.1791,-52.7216 L 26.6289,-53.0241 L 26.0451,-53.2553 L 25.4369,-53.4114
 L 24.8139,-53.4901 L -24.8139,-53.4901 L -25.4369,-53.4114 L -26.0451,-53.2553 L -26.6289,-53.0241 L -27.1791,-52.7216
 L -27.6871,-52.3526 L -28.1448,-51.9227 L -28.5451,-51.4389 L -28.8815,-50.9088 L -29.1489,-50.3406 L -29.3429,-49.7434
 L -29.4606,-49.1267 L -29.5,-48.5 L -29.5,-29.5 L -29.4606,-28.8733 L -29.3429,-28.2566 L -29.1489,-27.6594
 L -28.8815,-27.0912 L -28.5451,-26.5611 L -28.1448,-26.0773 L -27.6871,-25.6474 L -27.1791,-25.2784 L -26.6289,-24.9759
 L -26.0451,-24.7447 L -25.4369,-24.5886 L -24.8139,-24.5099 L 24.8139,-24.5099 z
M 22.3116,-43.5059 L 21.9379,-43.5531 L 21.5729,-43.6468 L 21.2227,-43.7855 L 20.8925,-43.967 L 20.5877,-44.1884
 L 20.3131,-44.4464 L 20.0729,-44.7366 L 19.8711,-45.0547 L 19.7107,-45.3956 L 19.5942,-45.7539 L 19.5237,-46.124
 L 19.5,-46.5 L 19.5237,-46.876 L 19.5942,-47.2461 L 19.7107,-47.6044 L 19.8711,-47.9453 L 20.0729,-48.2634
 L 20.3131,-48.5536 L 20.5877,-48.8115 L 20.8925,-49.033 L 21.2227,-49.2145 L 21.5729,-49.3532 L 21.9379,-49.4469
 L 22.3116,-49.4941 L 22.6884,-49.4941 L 23.0621,-49.4469 L 23.427,-49.3532 L 23.7773,-49.2145 L 24.1075,-49.033
 L 24.4123,-48.8115 L 24.6869,-48.5536 L 24.927,-48.2634 L 25.1289,-47.9453 L 25.2893,-47.6044 L 25.4057,-47.2461
 L 25.4763,-46.876 L 25.5,-46.5 L 25.4763,-46.124 L 25.4057,-45.7539 L 25.2893,-45.3956 L 25.1289,-45.0547
 L 24.927,-44.7366 L 24.6869,-44.4464 L 24.4123,-44.1884 L 24.1075,-43.967 L 23.7773,-43.7855 L 23.427,-43.6468
 L 23.0621,-43.5531 L 22.6884,-43.5059 z
M -22.6884,-43.5059 L -23.0621,-43.5531 L -23.427,-43.6468 L -23.7773,-43.7855 L -24.1075,-43.967 L -24.4123,-44.1884
 L -24.6869,-44.4464 L -24.927,-44.7366 L -25.1289,-45.0547 L -25.2893,-45.3956 L -25.4057,-45.7539 L -25.4763,-46.124
 L -25.5,-46.5 L -25.4763,-46.876 L -25.4057,-47.2461 L -25.2893,-47.6044 L -25.1289,-47.9453 L -24.927,-48.2634
 L -24.6869,-48.5536 L -24.4123,-48.8115 L -24.1075,-49.033 L -23.7773,-49.2145 L -23.427,-49.3532 L -23.0621,-49.4469
 L -22.6884,-49.4941 L -22.3116,-49.4941 L -21.9379,-49.4469 L -21.5729,-49.3532 L -21.2227,-49.2145 L -20.8925,-49.033
 L -20.5877,-48.8115 L -20.3131,-48.5536 L -20.0729,-48.2634 L -19.8711,-47.9453 L -19.7107,-47.6044 L -19.5942,-47.2461
 L -19.5237,-46.876 L -19.5,-46.5 L -19.5237,-46.124 L -19.5942,-45.7539 L -19.7107,-45.3956 L -19.8711,-45.0547
 L -20.0729,-44.7366 L -20.3131,-44.4464 L -20.5877,-44.1884 L -20.8925,-43.967 L -21.2227,-43.7855 L -21.5729,-43.6468
 L -21.9379,-43.5531 L -22.3116,-43.5059 z
M 10.4663,-30.5168 L 9.40726,-30.6506 L 8.37335,-30.916 L 7.38087,-31.309 L 6.44547,-31.8232 L 5.58189,-32.4506
 L 4.80376,-33.1814 L 4.12335,-34.0038 L 3.55139,-34.9051 L 3.09689,-35.871 L 2.76703,-36.8861 L 2.56702,-37.9347
 L 2.5,-39 L 2.56702,-40.0653 L 2.76703,-41.1139 L 3.09689,-42.129 L 3.55139,-43.0949 L 4.12335,-43.9962
 L 4.80376,-44.8186 L 5.58189,-45.5494 L 6.44547,-46.1768 L 7.38087,-46.691 L 8.37335,-47.084 L 9.40726,-47.3494
 L 10.4663,-47.4832 L 11.5337,-47.4832 L 12.5927,-47.3494 L 13.6266,-47.084 L 14.6191,-46.691 L 15.5545,-46.1768
 L 16.4181,-45.5494 L 17.1962,-44.8186 L 17.8766,-43.9962 L 18.4486,-43.0949 L 18.9031,-42.129 L 19.233,-41.1139
 L 19.433,-40.0653 L 19.5,-39 L 19.433,-37.9347 L 19.233,-36.8861 L 18.9031,-35.871 L 18.4486,-34.9051
 L 17.8766,-34.0038 L 17.1962,-33.1814 L 16.4181,-32.4506 L 15.5545,-31.8232 L 14.6191,-31.309 L 13.6266,-30.916
 L 12.5927,-30.6506 L 11.5337,-30.5168 z
M -11.5337,-30.5168 L -12.5927,-30.6506 L -13.6266,-30.916 L -14.6191,-31.309 L -15.5545,-31.8232 L -16.4181,-32.4506
 L -17.1962,-33.1814 L -17.8766,-34.0038 L -18.4486,-34.9051 L -18.9031,-35.871 L -19.233,-36.8861 L -19.433,-37.9347
 L -19.5,-39 L -19.433,-40.0653 L -19.233,-41.1139 L -18.9031,-42.129 L -18.4486,-43.0949 L -17.8766,-43.9962
 L -17.1962,-44.8186 L -16.4181,-45.5494 L -15.5545,-46.1768 L -14.6191,-46.691 L -13.6266,-47.084 L -12.5927,-47.3494
 L -11.5337,-47.4832 L -10.4663,-47.4832 L -9.40726,-47.3494 L -8.37335,-47.084 L -7.38087,-46.691 L -6.44547,-46.1768
 L -5.58189,-45.5494 L -4.80376,-44.8186 L -4.12335,-43.9962 L -3.55139,-43.0949 L -3.09689,-42.129 L -2.76703,-41.1139
 L -2.56702,-40.0653 L -2.5,-39 L -2.56702,-37.9347 L -2.76703,-36.8861 L -3.09689,-35.871 L -3.55139,-34.9051
 L -4.12335,-34.0038 L -4.80376,-33.1814 L -5.58189,-32.4506 L -6.44547,-31.8232 L -7.38087,-31.309 L -8.37335,-30.916
 L -9.40726,-30.6506 L -10.4663,-30.5168 z
M -22.6884,-28.5059 L -23.0621,-28.5531 L -23.427,-28.6468 L -23.7773,-28.7855 L -24.1075,-28.967 L -24.4123,-29.1885
 L -24.6869,-29.4464 L -24.927,-29.7366 L -25.1289,-30.0547 L -25.2893,-30.3956 L -25.4057,-30.7539 L -25.4763,-31.124
 L -25.5,-31.5 L -25.4763,-31.876 L -25.4057,-32.2461 L -25.2893,-32.6044 L -25.1289,-32.9453 L -24.927,-33.2634
 L -24.6869,-33.5536 L -24.4123,-33.8116 L -24.1075,-34.033 L -23.7773,-34.2145 L -23.427,-34.3532 L -23.0621,-34.4469
 L -22.6884,-34.4941 L -22.3116,-34.4941 L -21.9379,-34.4469 L -21.5729,-34.3532 L -21.2227,-34.2145 L -20.8925,-34.033
 L -20.5877,-33.8116 L -20.3131,-33.5536 L -20.0729,-33.2634 L -19.8711,-32.9453 L -19.7107,-32.6044 L -19.5942,-32.2461
 L -19.5237,-31.876 L -19.5,-31.5 L -19.5237,-31.124 L -19.5942,-30.7539 L -19.7107,-30.3956 L -19.8711,-30.0547
 L -20.0729,-29.7366 L -20.3131,-29.4464 L -20.5877,-29.1885 L -20.8925,-28.967 L -21.2227,-28.7855 L -21.5729,-28.6468
 L -21.9379,-28.5531 L -22.3116,-28.5059 z
M 22.3116,-28.5059 L 21.9379,-28.5531 L 21.5729,-28.6468 L 21.2227,-28.7855 L 20.8925,-28.967 L 20.5877,-29.1885
 L 20.3131,-29.4464 L 20.0729,-29.7366 L 19.8711,-30.0547 L 19.7107,-30.3956 L 19.5942,-30.7539 L 19.5237,-31.124
 L 19.5,-31.5 L 19.5237,-31.876 L 19.5942,-32.2461 L 19.7107,-32.6044 L 19.8711,-32.9453 L 20.0729,-33.2634
 L 20.3131,-33.5536 L 20.5877,-33.8116 L 20.8925,-34.033 L 21.2227,-34.2145 L 21.5729,-34.3532 L 21.9379,-34.4469
 L 22.3116,-34.4941 L 22.6884,-34.4941 L 23.0621,-34.4469 L 23.427,-34.3532 L 23.7773,-34.2145 L 24.1075,-34.033
 L 24.4123,-33.8116 L 24.6869,-33.5536 L 24.927,-33.2634 L 25.1289,-32.9453 L 25.2893,-32.6044 L 25.4057,-32.2461
 L 25.4763,-31.876 L 25.5,-31.5 L 25.4763,-31.124 L 25.4057,-30.7539 L 25.2893,-30.3956 L 25.1289,-30.0547
 L 24.927,-29.7366 L 24.6869,-29.4464 L 24.4123,-29.1885 L 24.1075,-28.967 L 23.7773,-28.7855 L 23.427,-28.6468
 L 23.0621,-28.5531 L 22.6884,-28.5059 z
" stroke="black" fill="lightgray" stroke-width="0.5"/>
</svg>
