<?xml version="1.0" standalone="no"?>
<!DOCTYPE svg PUBLIC "-//W3C//DTD SVG 1.1//EN" "http://www.w3.org/Graphics/SVG/1.1/DTD/svg11.dtd">
<svg width="164mm" height="30mm" viewBox="-82 -54 164 30" xmlns="http://www.w3.org/2000/svg" version="1.1">
<title>OpenSCAD Model</title>
<path d="
M 77.9369,-24.5886 L 78.5451,-24.7447 L 79.1289,-24.9759 L 79.6791,-25.2784 L 80.1871,-25.6474 L 80.6448,-26.0773
 L 81.0451,-26.5611 L 81.3815,-27.0912 L 81.6489,-27.6594 L 81.8429,-28.2566 L 81.9606,-28.8733 L 82,-29.5
 L 82,-48.5 L 81.9606,-49.1267 L 81.8429,-49.7434 L 81.6489,-50.3406 L 81.3815,-50.9088 L 81.0451,-51.4389
 L 80.6448,-51.9227 L 80.1871,-52.3526 L 79.6791,-52.7216 L 79.1289,-53.0241 L 78.5451,-53.2553 L 77.9369,-53.4114
 L 77.3139,-53.4901 L -77.3139,-53.4901 L -77.9369,-53.4114 L -78.5451,-53.2553 L -79.1289,-53.0241 L -79.6791,-52.7216
 L -80.1871,-52.3526 L -80.6448,-51.9227 L -81.0451,-51.4389 L -81.3815,-50.9088 L -81.6489,-50.3406 L -81.8429,-49.7434
 L -81.9606,-49.1267 L -82,-48.5 L -82,-29.5 L -81.9606,-28.8733 L -81.8429,-28.2566 L -81.6489,-27.6594
 L -81.3815,-27.0912 L -81.0451,-26.5611 L -80.6448,-26.0773 L -80.1871,-25.6474 L -79.6791,-25.2784 L -79.1289,-24.9759
 L -78.5451,-24.7447 L -77.9369,-24.5886 L -77.3139,-24.5099 L 77.3139,-24.5099 z
M 53.3093,-28.0217 L 51.9388,-28.1949 L 50.6008,-28.5384 L 49.3164,-29.0469 L 48.1059,-29.7124 L 46.9883,-30.5244
 L 45.9813,-31.47 L 45.1008,-32.5344 L 44.3606,-33.7007 L 43.7724,-34.9506 L 43.3456,-36.2644 L 43.0867,-37.6213
 L 43,-39 L 43.0867,-40.3787 L 43.3456,-41.7356 L 43.7724,-43.0494 L 44.3606,-44.2993 L 45.1008,-45.4656
 L 45.9813,-46.53 L 46.9883,-47.4756 L 48.1059,-48.2876 L 49.3164,-48.9531 L 50.6008,-49.4616 L 51.9388,-49.8051
 L 53.3093,-49.9783 L 54.6907,-49.9783 L 56.0612,-49.8051 L 57.3992,-49.4616 L 58.6836,-48.9531 L 59.8941,-48.2876
 L 61.0117,-47.4756 L 62.0186,-46.53 L 62.8992,-45.4656 L 63.6394,-44.2993 L 64.2275,-43.0494 L 64.6544,-41.7356
 L 64.9133,-40.3787 L 65,-39 L 64.9133,-37.6213 L 64.6544,-36.2644 L 64.2275,-34.9506 L 63.6394,-33.7007
 L 62.8992,-32.5344 L 62.0186,-31.47 L 61.0117,-30.5244 L 59.8941,-29.7124 L 58.6836,-29.0469 L 57.3992,-28.5384
 L 56.0612,-28.1949 L 54.6907,-28.0217 z
M -27.6907,-28.0217 L -29.0612,-28.1949 L -30.3992,-28.5384 L -31.6836,-29.0469 L -32.8941,-29.7124 L -34.0117,-30.5244
 L -35.0186,-31.47 L -35.8992,-32.5344 L -36.6394,-33.7007 L -37.2275,-34.9506 L -37.6544,-36.2644 L -37.9133,-37.6213
 L -38,-39 L -37.9133,-40.3787 L -37.6544,-41.7356 L -37.2275,-43.0494 L -36.6394,-44.2993 L -35.8992,-45.4656
 L -35.0186,-46.53 L -34.0117,-47.4756 L -32.8941,-48.2876 L -31.6836,-48.9531 L -30.3992,-49.4616 L -29.0612,-49.8051
 L -27.6907,-49.9783 L -26.3093,-49.9783 L -24.9388,-49.8051 L -23.6008,-49.4616 L -22.3164,-48.9531 L -21.1059,-48.2876
 L -19.9883,-47.4756 L -18.9813,-46.53 L -18.1008,-45.4656 L -17.3606,-44.2993 L -16.7724,-43.0494 L -16.3456,-41.7356
 L -16.0867,-40.3787 L -16,-39 L -16.0867,-37.6213 L -16.3456,-36.2644 L -16.7724,-34.9506 L -17.3606,-33.7007
 L -18.1008,-32.5344 L -18.9813,-31.47 L -19.9883,-30.5244 L -21.1059,-29.7124 L -22.3164,-29.0469 L -23.6008,-28.5384
 L -24.9388,-28.1949 L -26.3093,-28.0217 z
M -54.6907,-28.0217 L -56.0612,-28.1949 L -57.3992,-28.5384 L -58.6836,-29.0469 L -59.8941,-29.7124 L -61.0117,-30.5244
 L -62.0186,-31.47 L -62.8992,-32.5344 L -63.6394,-33.7007 L -64.2275,-34.9506 L -64.6544,-36.2644 L -64.9133,-37.6213
 L -65,-39 L -64.9133,-40.3787 L -64.6544,-41.7356 L -64.2275,-43.0494 L -63.6394,-44.2993 L -62.8992,-45.4656
 L -62.0186,-46.53 L -61.0117,-47.4756 L -59.8941,-48.2876 L -58.6836,-48.9531 L -57.3992,-49.4616 L -56.0612,-49.8051
 L -54.6907,-49.9783 L -53.3093,-49.9783 L -51.9388,-49.8051 L -50.6008,-49.4616 L -49.3164,-48.9531 L -48.1059,-48.2876
 L -46.9883,-47.4756 L -45.9813,-46.53 L -45.1008,-45.4656 L -44.3606,-44.2993 L -43.7724,-43.0494 L -43.3456,-41.7356
 L -43.0867,-40.3787 L -43,-39 L -43.0867,-37.6213 L -43.3456,-36.2644 L -43.7724,-34.9506 L -44.3606,-33.7007
 L -45.1008,-32.5344 L -45.9813,-31.47 L -46.9883,-30.5244 L -48.1059,-29.7124 L -49.3164,-29.0469 L -50.6008,-28.5384
 L -51.9388,-28.1949 L -53.3093,-28.0217 z
M 26.3093,-28.0217 L 24.9388,-28.1949 L 23.6008,-28.5384 L 22.3164,-29.0469 L 21.1059,-29.7124 L 19.9883,-30.5244
 L 18.9813,-31.47 L 18.1008,-32.5344 L 17.3606,-33.7007 L 16.7724,-34.9506 L 16.3456,-36.2644 L 16.0867,-37.6213
 L 16,-39 L 16.0867,-40.3787 L 16.3456,-41.7356 L 16.7724,-43.0494 L 17.3606,-44.2993 L 18.1008,-45.4656
 L 18.9813,-46.53 L 19.9883,-47.4756 L 21.1059,-48.2876 L 22.3164,-48.9531 L 23.6008,-49.4616 L 24.9388,-49.8051
 L 26.3093,-49.9783 L 27.6907,-49.9783 L 29.0612,-49.8051 L 30.3992,-49.4616 L 31.6836,-48.9531 L 32.8941,-48.2876
 L 34.0117,-47.4756 L 35.0186,-46.53 L 35.8992,-45.4656 L 36.6394,-44.2993 L 37.2275,-43.0494 L 37.6544,-41.7356
 L 37.9133,-40.3787 L 38,-39 L 37.9133,-37.6213 L 37.6544,-36.2644 L 37.2275,-34.9506 L 36.6394,-33.7007
 L 35.8992,-32.5344 L 35.0186,-31.47 L 34.0117,-30.5244 L 32.8941,-29.7124 L 31.6836,-29.0469 L 30.3992,-28.5384
 L 29.0612,-28.1949 L 27.6907,-28.0217 z
M -0.690689,-28.0217 L -2.06119,-28.1949 L -3.39919,-28.5384 L -4.68356,-29.0469 L -5.89409,-29.7124 L -7.01166,-30.5244
 L -8.01865,-31.47 L -8.89919,-32.5344 L -9.63936,-33.7007 L -10.2275,-34.9506 L -10.6544,-36.2644 L -10.9133,-37.6213
 L -11,-39 L -10.9133,-40.3787 L -10.6544,-41.7356 L -10.2275,-43.0494 L -9.63936,-44.2993 L -8.89919,-45.4656
 L -8.01865,-46.53 L -7.01166,-47.4756 L -5.89409,-48.2876 L -4.68356,-48.9531 L -3.39919,-49.4616 L -2.06119,-49.8051
 L -0.690689,-49.9783 L 0.690689,-49.9783 L 2.06119,-49.8051 L 3.39919,-49.4616 L 4.68356,-48.9531 L 5.89409,-48.2876
 L 7.01166,-47.4756 L 8.01865,-46.53 L 8.89919,-45.4656 L 9.63936,-44.2993 L 10.2275,-43.0494 L 10.6544,-41.7356
 L 10.9133,-40.3787 L 11,-39 L 10.9133,-37.6213 L 10.6544,-36.2644 L 10.2275,-34.9506 L 9.63936,-33.7007
 L 8.89919,-32.5344 L 8.01865,-31.47 L 7.01166,-30.5244 L 5.89409,-29.7124 L 4.68356,-29.0469 L 3.39919,-28.5384
 L 2.06119,-28.1949 L 0.690689,-28.0217 z
M -75.1884,-43.5059 L -75.5621,-43.5531 L -75.927,-43.6468 L -76.2773,-43.7855 L -76.6075,-43.967 L -76.9123,-44.1884
 L -77.1869,-44.4464 L -77.427,-44.7366 L -77.6289,-45.0547 L -77.7893,-45.3956 L -77.9057,-45.7539 L -77.9763,-46.124
 L -78,-46.5 L -77.9763,-46.876 L -77.9057,-47.2461 L -77.7893,-47.6044 L -77.6289,-47.9453 L -77.427,-48.2634
 L -77.1869,-48.5536 L -76.9123,-48.8115 L -76.6075,-49.033 L -76.2773,-49.2145 L -75.927,-49.3532 L -75.5621,-49.4469
 L -75.1884,-49.4941 L -74.8116,-49.4941 L -74.4379,-49.4469 L -74.073,-49.3532 L -73.7227,-49.2145 L -73.3925,-49.033
 L -73.0877,-48.8115 L -72.8131,-48.5536 L -72.573,-48.2634 L -72.3711,-47.9453 L -72.2107,-47.6044 L -72.0943,-47.2461
 L -72.0237,-46.876 L -72,-46.5 L -72.0237,-46.124 L -72.0943,-45.7539 L -72.2107,-45.3956 L -72.3711,-45.0547
 L -72.573,-44.7366 L -72.8131,-44.4464 L -73.0877,-44.1884 L -73.3925,-43.967 L -73.7227,-43.7855 L -74.073,-43.6468
 L -74.4379,-43.5531 L -74.8116,-43.5059 z
M 74.8116,-43.5059 L 74.4379,-43.5531 L 74.073,-43.6468 L 73.7227,-43.7855 L 73.3925,-43.967 L 73.0877,-44.1884
 L 72.8131,-44.4464 L 72.573,-44.7366 L 72.3711,-45.0547 L 72.2107,-45.3956 L 72.0943,-45.7539 L 72.0237,-46.124
 L 72,-46.5 L 72.0237,-46.876 L 72.0943,-47.2461 L 72.2107,-47.6044 L 72.3711,-47.9453 L 72.573,-48.2634
 L 72.8131,-48.5536 L 73.0877,-48.8115 L 73.3925,-49.033 L 73.7227,-49.2145 L 74.073,-49.3532 L 74.4379,-49.4469
 L 74.8116,-49.4941 L 75.1884,-49.4941 L 75.5621,-49.4469 L 75.927,-49.3532 L 76.2773,-49.2145 L 76.6075,-49.033
 L 76.9123,-48.8115 L 77.1869,-48.5536 L 77.427,-48.2634 L 77.6289,-47.9453 L 77.7893,-47.6044 L 77.9057,-47.2461
 L 77.9763,-46.876 L 78,-46.5 L 77.9763,-46.124 L 77.9057,-45.7539 L 77.7893,-45.3956 L 77.6289,-45.0547
 L 77.427,-44.7366 L 77.1869,-44.4464 L 76.9123,-44.1884 L 76.6075,-43.967 L 76.2773,-43.7855 L 75.927,-43.6468
 L 75.5621,-43.5531 L 75.1884,-43.5059 z
M -75.0942,-37.503 L -75.2811,-37.5266 L -75.4635,-37.5734 L -75.6387,-37.6428 L -75.8037,-37.7335 L -75.9561,-37.8442
 L -76.0934,-37.9732 L -76.2135,-38.1183 L -76.3145,-38.2774 L -76.3947,-38.4478 L -76.4529,-38.627 L -76.4882,-38.812
 L -76.5,-39 L -76.4882,-39.188 L -76.4529,-39.373 L -76.3947,-39.5522 L -76.3145,-39.7226 L -76.2135,-39.8817
 L -76.0934,-40.0268 L -75.9561,-40.1558 L -75.8037,-40.2665 L -75.6387,-40.3572 L -75.4635,-40.4266 L -75.2811,-40.4734
 L -75.0942,-40.497 L -74.9058,-40.497 L -74.7189,-40.4734 L -74.5365,-40.4266 L -74.3613,-40.3572 L -74.1963,-40.2665
 L -74.0439,-40.1558 L -73.9065,-40.0268 L -73.7865,-39.8817 L -73.6855,-39.7226 L -73.6053,-39.5522 L -73.5471,-39.373
 L -73.5118,-39.188 L -73.5,-39 L -73.5118,-38.812 L -73.5471,-38.627 L -73.6053,-38.4478 L -73.6855,-38.2774
 L -73.7865,-38.1183 L -73.9065,-37.9732 L -74.0439,-37.8442 L -74.1963,-37.7335 L -74.3613,-37.6428 L -74.5365,-37.5734
 L -74.7189,-37.5266 L -74.9058,-37.503 z
M 74.9058,-37.503 L 74.7189,-37.5266 L 74.5365,-37.5734 L 74.3613,-37.6428 L 74.1963,-37.7335 L 74.0439,-37.8442
 L 73.9065,-37.9732 L 73.7865,-38.1183 L 73.6855,-38.2774 L 73.6053,-38.4478 L 73.5471,-38.627 L 73.5118,-38.812
 L 73.5,-39 L 73.5118,-39.188 L 73.5471,-39.373 L 73.6053,-39.5522 L 73.6855,-39.7226 L 73.7865,-39.8817
 L 73.9065,-40.0268 L 74.0439,-40.1558 L 74.1963,-40.2665 L 74.3613,-40.3572 L 74.5365,-40.4266 L 74.7189,-40.4734
 L 74.9058,-40.497 L 75.0942,-40.497 L 75.2811,-40.4734 L 75.4635,-40.4266 L 75.6387,-40.3572 L 75.8037,-40.2665
 L 75.9561,-40.1558 L 76.0934,-40.0268 L 76.2135,-39.8817 L 76.3145,-39.7226 L 76.3947,-39.5522 L 76.4529,-39.373
 L 76.4882,-39.188 L 76.5,-39 L 76.4882,-38.812 L 76.4529,-38.627 L 76.3947,-38.4478 L 76.3145,-38.2774
 L 76.2135,-38.1183 L 76.0934,-37.9732 L 75.9561,-37.8442 L 75.8037,-37.7335 L 75.6387,-37.6428 L 75.4635,-37.5734
 L 75.2811,-37.5266 L 75.0942,-37.503 z
M -75.1884,-28.5059 L -75.5621,-28.5531 L -75.927,-28.6468 L -76.2773,-28.7855 L -76.6075,-28.967 L -76.9123,-29.1885
 L -77.1869,-29.4464 L -77.427,-29.7366 L -77.6289,-30.0547 L -77.7893,-30.3956 L -77.9057,-30.7539 L -77.9763,-31.124
 L -78,-31.5 L -77.9763,-31.876 L -77.9057,-32.2461 L -77.7893,-32.6044 L -77.6289,-32.9453 L -77.427,-33.2634
 L -77.1869,-33.5536 L -76.9123,-33.8116 L -76.6075,-34.033 L -76.2773,-34.2145 L -75.927,-34.3532 L -75.5621,-34.4469
 L -75.1884,-34.4941 L -74.8116,-34.4941 L -74.4379,-34.4469 L -74.073,-34.3532 L -73.7227,-34.2145 L -73.3925,-34.033
 L -73.0877,-33.8116 L -72.8131,-33.5536 L -72.573,-33.2634 L -72.3711,-32.9453 L -72.2107,-32.6044 L -72.0943,-32.2461
 L -72.0237,-31.876 L -72,-31.5 L -72.0237,-31.124 L -72.0943,-30.7539 L -72.2107,-30.3956 L -72.3711,-30.0547
 L -72.573,-29.7366 L -72.8131,-29.4464 L -73.0877,-29.1885 L -73.3925,-28.967 L -73.7227,-28.7855 L -74.073,-28.6468
 L -74.4379,-28.5531 L -74.8116,-28.5059 z
M 74.8116,-28.5059 L 74.4379,-28.5531 L 74.073,-28.6468 L 73.7227,-28.7855 L 73.3925,-28.967 L 73.0877,-29.1885
 L 72.8131,-29.4464 L 72.573,-29.7366 L 72.3711,-30.0547 L 72.2107,-30.3956 L 72.0943,-30.7539 L 72.0237,-31.124
 L 72,-31.5 L 72.0237,-31.876 L 72.0943,-32.2461 L 72.2107,-32.6044 L 72.3711,-32.9453 L 72.573,-33.2634
 L 72.8131,-33.5536 L 73.0877,-33.8116 L 73.3925,-34.033 L 73.7227,-34.2145 L 74.073,-34.3532 L 74.4379,-34.4469
 L 74.8116,-34.4941 L 75.1884,-34.4941 L 75.5621,-34.4469 L 75.927,-34.3532 L 76.2773,-34.2145 L 76.6075,-34.033
 L 76.9123,-33.8116 L 77.1869,-33.5536 L 77.427,-33.2634 L 77.6289,-32.9453 L 77.7893,-32.6044 L 77.9057,-32.2461
 L 77.9763,-31.876 L 78,-31.5 L 77.9763,-31.124 L 77.9057,-30.7539 L 77.7893,-30.3956 L 77.6289,-30.0547
 L 77.427,-29.7366 L 77.1869,-29.4464 L 76.9123,-29.1885 L 76.6075,-28.967 L 76.2773,-28.7855 L 75.927,-28.6468
 L 75.5621,-28.5531 L 75.1884,-28.5059 z
" stroke="black" fill="lightgray" stroke-width="0.5"/>
</svg>
