  0
SECTION
  2
BLOCKS
  0
ENDSEC
  0
SECTION
  2
ENTITIES
  0
LINE
  8
0
 10
137.937
 20
-66.9114
 11
138.545
 21
-66.7553
  0
LINE
  8
0
 10
138.545
 20
-66.7553
 11
139.129
 21
-66.5241
  0
LINE
  8
0
 10
139.129
 20
-66.5241
 11
139.679
 21
-66.2216
  0
LINE
  8
0
 10
139.679
 20
-66.2216
 11
140.187
 21
-65.8526
  0
LINE
  8
0
 10
140.187
 20
-65.8526
 11
140.645
 21
-65.4227
  0
LINE
  8
0
 10
140.645
 20
-65.4227
 11
141.045
 21
-64.9389
  0
LINE
  8
0
 10
141.045
 20
-64.9389
 11
141.382
 21
-64.4088
  0
LINE
  8
0
 10
141.382
 20
-64.4088
 11
141.649
 21
-63.8406
  0
LINE
  8
0
 10
141.649
 20
-63.8406
 11
141.843
 21
-63.2434
  0
LINE
  8
0
 10
141.843
 20
-63.2434
 11
141.961
 21
-62.6267
  0
LINE
  8
0
 10
141.961
 20
-62.6267
 11
142
 21
-62
  0
LINE
  8
0
 10
142
 20
-62
 11
142
 21
62
  0
LINE
  8
0
 10
142
 20
62
 11
141.961
 21
62.6267
  0
LINE
  8
0
 10
141.961
 20
62.6267
 11
141.843
 21
63.2434
  0
LINE
  8
0
 10
141.843
 20
63.2434
 11
141.649
 21
63.8406
  0
LINE
  8
0
 10
141.649
 20
63.8406
 11
141.382
 21
64.4088
  0
LINE
  8
0
 10
141.382
 20
64.4088
 11
141.045
 21
64.9389
  0
LINE
  8
0
 10
141.045
 20
64.9389
 11
140.645
 21
65.4227
  0
LINE
  8
0
 10
140.645
 20
65.4227
 11
140.187
 21
65.8526
  0
LINE
  8
0
 10
140.187
 20
65.8526
 11
139.679
 21
66.2216
  0
LINE
  8
0
 10
139.679
 20
66.2216
 11
139.129
 21
66.5241
  0
LINE
  8
0
 10
139.129
 20
66.5241
 11
138.545
 21
66.7553
  0
LINE
  8
0
 10
138.545
 20
66.7553
 11
137.937
 21
66.9114
  0
LINE
  8
0
 10
137.937
 20
66.9114
 11
137.314
 21
66.9901
  0
LINE
  8
0
 10
137.314
 20
66.9901
 11
-137.314
 21
66.9901
  0
LINE
  8
0
 10
-137.314
 20
66.9901
 11
-137.937
 21
66.9114
  0
LINE
  8
0
 10
-137.937
 20
66.9114
 11
-138.545
 21
66.7553
  0
LINE
  8
0
 10
-138.545
 20
66.7553
 11
-139.129
 21
66.5241
  0
LINE
  8
0
 10
-139.129
 20
66.5241
 11
-139.679
 21
66.2216
  0
LINE
  8
0
 10
-139.679
 20
66.2216
 11
-140.187
 21
65.8526
  0
LINE
  8
0
 10
-140.187
 20
65.8526
 11
-140.645
 21
65.4227
  0
LINE
  8
0
 10
-140.645
 20
65.4227
 11
-141.045
 21
64.9389
  0
LINE
  8
0
 10
-141.045
 20
64.9389
 11
-141.382
 21
64.4088
  0
LINE
  8
0
 10
-141.382
 20
64.4088
 11
-141.649
 21
63.8406
  0
LINE
  8
0
 10
-141.649
 20
63.8406
 11
-141.843
 21
63.2434
  0
LINE
  8
0
 10
-141.843
 20
63.2434
 11
-141.961
 21
62.6267
  0
LINE
  8
0
 10
-141.961
 20
62.6267
 11
-142
 21
62
  0
LINE
  8
0
 10
-142
 20
62
 11
-142
 21
-62
  0
LINE
  8
0
 10
-142
 20
-62
 11
-141.961
 21
-62.6267
  0
LINE
  8
0
 10
-141.961
 20
-62.6267
 11
-141.843
 21
-63.2434
  0
LINE
  8
0
 10
-141.843
 20
-63.2434
 11
-141.649
 21
-63.8406
  0
LINE
  8
0
 10
-141.649
 20
-63.8406
 11
-141.382
 21
-64.4088
  0
LINE
  8
0
 10
-141.382
 20
-64.4088
 11
-141.045
 21
-64.9389
  0
LINE
  8
0
 10
-141.045
 20
-64.9389
 11
-140.645
 21
-65.4227
  0
LINE
  8
0
 10
-140.645
 20
-65.4227
 11
-140.187
 21
-65.8526
  0
LINE
  8
0
 10
-140.187
 20
-65.8526
 11
-139.679
 21
-66.2216
  0
LINE
  8
0
 10
-139.679
 20
-66.2216
 11
-139.129
 21
-66.5241
  0
LINE
  8
0
 10
-139.129
 20
-66.5241
 11
-138.545
 21
-66.7553
  0
LINE
  8
0
 10
-138.545
 20
-66.7553
 11
-137.937
 21
-66.9114
  0
LINE
  8
0
 10
-137.937
 20
-66.9114
 11
-137.314
 21
-66.9901
  0
LINE
  8
0
 10
-137.314
 20
-66.9901
 11
137.314
 21
-66.9901
  0
LINE
  8
0
 10
137.314
 20
-66.9901
 11
137.937
 21
-66.9114
  0
LINE
  8
0
 10
-135.188
 20
57.0059
 11
-135.562
 21
57.0531
  0
LINE
  8
0
 10
-135.562
 20
57.0531
 11
-135.927
 21
57.1468
  0
LINE
  8
0
 10
-135.927
 20
57.1468
 11
-136.277
 21
57.2855
  0
LINE
  8
0
 10
-136.277
 20
57.2855
 11
-136.607
 21
57.467
  0
LINE
  8
0
 10
-136.607
 20
57.467
 11
-136.912
 21
57.6885
  0
LINE
  8
0
 10
-136.912
 20
57.6885
 11
-137.187
 21
57.9464
  0
LINE
  8
0
 10
-137.187
 20
57.9464
 11
-137.427
 21
58.2366
  0
LINE
  8
0
 10
-137.427
 20
58.2366
 11
-137.629
 21
58.5547
  0
LINE
  8
0
 10
-137.629
 20
58.5547
 11
-137.789
 21
58.8956
  0
LINE
  8
0
 10
-137.789
 20
58.8956
 11
-137.906
 21
59.2539
  0
LINE
  8
0
 10
-137.906
 20
59.2539
 11
-137.976
 21
59.624
  0
LINE
  8
0
 10
-137.976
 20
59.624
 11
-138
 21
60
  0
LINE
  8
0
 10
-138
 20
60
 11
-137.976
 21
60.376
  0
LINE
  8
0
 10
-137.976
 20
60.376
 11
-137.906
 21
60.7461
  0
LINE
  8
0
 10
-137.906
 20
60.7461
 11
-137.789
 21
61.1044
  0
LINE
  8
0
 10
-137.789
 20
61.1044
 11
-137.629
 21
61.4453
  0
LINE
  8
0
 10
-137.629
 20
61.4453
 11
-137.427
 21
61.7634
  0
LINE
  8
0
 10
-137.427
 20
61.7634
 11
-137.187
 21
62.0536
  0
LINE
  8
0
 10
-137.187
 20
62.0536
 11
-136.912
 21
62.3115
  0
LINE
  8
0
 10
-136.912
 20
62.3115
 11
-136.607
 21
62.533
  0
LINE
  8
0
 10
-136.607
 20
62.533
 11
-136.277
 21
62.7145
  0
LINE
  8
0
 10
-136.277
 20
62.7145
 11
-135.927
 21
62.8532
  0
LINE
  8
0
 10
-135.927
 20
62.8532
 11
-135.562
 21
62.9469
  0
LINE
  8
0
 10
-135.562
 20
62.9469
 11
-135.188
 21
62.9941
  0
LINE
  8
0
 10
-135.188
 20
62.9941
 11
-134.812
 21
62.9941
  0
LINE
  8
0
 10
-134.812
 20
62.9941
 11
-134.438
 21
62.9469
  0
LINE
  8
0
 10
-134.438
 20
62.9469
 11
-134.073
 21
62.8532
  0
LINE
  8
0
 10
-134.073
 20
62.8532
 11
-133.723
 21
62.7145
  0
LINE
  8
0
 10
-133.723
 20
62.7145
 11
-133.393
 21
62.533
  0
LINE
  8
0
 10
-133.393
 20
62.533
 11
-133.088
 21
62.3115
  0
LINE
  8
0
 10
-133.088
 20
62.3115
 11
-132.813
 21
62.0536
  0
LINE
  8
0
 10
-132.813
 20
62.0536
 11
-132.573
 21
61.7634
  0
LINE
  8
0
 10
-132.573
 20
61.7634
 11
-132.371
 21
61.4453
  0
LINE
  8
0
 10
-132.371
 20
61.4453
 11
-132.211
 21
61.1044
  0
LINE
  8
0
 10
-132.211
 20
61.1044
 11
-132.094
 21
60.7461
  0
LINE
  8
0
 10
-132.094
 20
60.7461
 11
-132.024
 21
60.376
  0
LINE
  8
0
 10
-132.024
 20
60.376
 11
-132
 21
60
  0
LINE
  8
0
 10
-132
 20
60
 11
-132.024
 21
59.624
  0
LINE
  8
0
 10
-132.024
 20
59.624
 11
-132.094
 21
59.2539
  0
LINE
  8
0
 10
-132.094
 20
59.2539
 11
-132.211
 21
58.8956
  0
LINE
  8
0
 10
-132.211
 20
58.8956
 11
-132.371
 21
58.5547
  0
LINE
  8
0
 10
-132.371
 20
58.5547
 11
-132.573
 21
58.2366
  0
LINE
  8
0
 10
-132.573
 20
58.2366
 11
-132.813
 21
57.9464
  0
LINE
  8
0
 10
-132.813
 20
57.9464
 11
-133.088
 21
57.6885
  0
LINE
  8
0
 10
-133.088
 20
57.6885
 11
-133.393
 21
57.467
  0
LINE
  8
0
 10
-133.393
 20
57.467
 11
-133.723
 21
57.2855
  0
LINE
  8
0
 10
-133.723
 20
57.2855
 11
-134.073
 21
57.1468
  0
LINE
  8
0
 10
-134.073
 20
57.1468
 11
-134.438
 21
57.0531
  0
LINE
  8
0
 10
-134.438
 20
57.0531
 11
-134.812
 21
57.0059
  0
LINE
  8
0
 10
-134.812
 20
57.0059
 11
-135.188
 21
57.0059
  0
LINE
  8
0
 10
134.812
 20
57.0059
 11
134.438
 21
57.0531
  0
LINE
  8
0
 10
134.438
 20
57.0531
 11
134.073
 21
57.1468
  0
LINE
  8
0
 10
134.073
 20
57.1468
 11
133.723
 21
57.2855
  0
LINE
  8
0
 10
133.723
 20
57.2855
 11
133.393
 21
57.467
  0
LINE
  8
0
 10
133.393
 20
57.467
 11
133.088
 21
57.6885
  0
LINE
  8
0
 10
133.088
 20
57.6885
 11
132.813
 21
57.9464
  0
LINE
  8
0
 10
132.813
 20
57.9464
 11
132.573
 21
58.2366
  0
LINE
  8
0
 10
132.573
 20
58.2366
 11
132.371
 21
58.5547
  0
LINE
  8
0
 10
132.371
 20
58.5547
 11
132.211
 21
58.8956
  0
LINE
  8
0
 10
132.211
 20
58.8956
 11
132.094
 21
59.2539
  0
LINE
  8
0
 10
132.094
 20
59.2539
 11
132.024
 21
59.624
  0
LINE
  8
0
 10
132.024
 20
59.624
 11
132
 21
60
  0
LINE
  8
0
 10
132
 20
60
 11
132.024
 21
60.376
  0
LINE
  8
0
 10
132.024
 20
60.376
 11
132.094
 21
60.7461
  0
LINE
  8
0
 10
132.094
 20
60.7461
 11
132.211
 21
61.1044
  0
LINE
  8
0
 10
132.211
 20
61.1044
 11
132.371
 21
61.4453
  0
LINE
  8
0
 10
132.371
 20
61.4453
 11
132.573
 21
61.7634
  0
LINE
  8
0
 10
132.573
 20
61.7634
 11
132.813
 21
62.0536
  0
LINE
  8
0
 10
132.813
 20
62.0536
 11
133.088
 21
62.3115
  0
LINE
  8
0
 10
133.088
 20
62.3115
 11
133.393
 21
62.533
  0
LINE
  8
0
 10
133.393
 20
62.533
 11
133.723
 21
62.7145
  0
LINE
  8
0
 10
133.723
 20
62.7145
 11
134.073
 21
62.8532
  0
LINE
  8
0
 10
134.073
 20
62.8532
 11
134.438
 21
62.9469
  0
LINE
  8
0
 10
134.438
 20
62.9469
 11
134.812
 21
62.9941
  0
LINE
  8
0
 10
134.812
 20
62.9941
 11
135.188
 21
62.9941
  0
LINE
  8
0
 10
135.188
 20
62.9941
 11
135.562
 21
62.9469
  0
LINE
  8
0
 10
135.562
 20
62.9469
 11
135.927
 21
62.8532
  0
LINE
  8
0
 10
135.927
 20
62.8532
 11
136.277
 21
62.7145
  0
LINE
  8
0
 10
136.277
 20
62.7145
 11
136.607
 21
62.533
  0
LINE
  8
0
 10
136.607
 20
62.533
 11
136.912
 21
62.3115
  0
LINE
  8
0
 10
136.912
 20
62.3115
 11
137.187
 21
62.0536
  0
LINE
  8
0
 10
137.187
 20
62.0536
 11
137.427
 21
61.7634
  0
LINE
  8
0
 10
137.427
 20
61.7634
 11
137.629
 21
61.4453
  0
LINE
  8
0
 10
137.629
 20
61.4453
 11
137.789
 21
61.1044
  0
LINE
  8
0
 10
137.789
 20
61.1044
 11
137.906
 21
60.7461
  0
LINE
  8
0
 10
137.906
 20
60.7461
 11
137.976
 21
60.376
  0
LINE
  8
0
 10
137.976
 20
60.376
 11
138
 21
60
  0
LINE
  8
0
 10
138
 20
60
 11
137.976
 21
59.624
  0
LINE
  8
0
 10
137.976
 20
59.624
 11
137.906
 21
59.2539
  0
LINE
  8
0
 10
137.906
 20
59.2539
 11
137.789
 21
58.8956
  0
LINE
  8
0
 10
137.789
 20
58.8956
 11
137.629
 21
58.5547
  0
LINE
  8
0
 10
137.629
 20
58.5547
 11
137.427
 21
58.2366
  0
LINE
  8
0
 10
137.427
 20
58.2366
 11
137.187
 21
57.9464
  0
LINE
  8
0
 10
137.187
 20
57.9464
 11
136.912
 21
57.6885
  0
LINE
  8
0
 10
136.912
 20
57.6885
 11
136.607
 21
57.467
  0
LINE
  8
0
 10
136.607
 20
57.467
 11
136.277
 21
57.2855
  0
LINE
  8
0
 10
136.277
 20
57.2855
 11
135.927
 21
57.1468
  0
LINE
  8
0
 10
135.927
 20
57.1468
 11
135.562
 21
57.0531
  0
LINE
  8
0
 10
135.562
 20
57.0531
 11
135.188
 21
57.0059
  0
LINE
  8
0
 10
135.188
 20
57.0059
 11
134.812
 21
57.0059
  0
LINE
  8
0
 10
61.0756
 20
-62.3767
 11
53.2887
 21
-61.3929
  0
LINE
  8
0
 10
53.2887
 20
-61.3929
 11
45.6864
 21
-59.441
  0
LINE
  8
0
 10
45.6864
 20
-59.441
 11
38.3888
 21
-56.5517
  0
LINE
  8
0
 10
38.3888
 20
-56.5517
 11
31.5108
 21
-52.7705
  0
LINE
  8
0
 10
31.5108
 20
-52.7705
 11
25.161
 21
-48.1571
  0
LINE
  8
0
 10
25.161
 20
-48.1571
 11
19.4395
 21
-42.7842
  0
LINE
  8
0
 10
19.4395
 20
-42.7842
 11
14.4364
 21
-36.7366
  0
LINE
  8
0
 10
14.4364
 20
-36.7366
 11
10.2308
 21
-30.1096
  0
LINE
  8
0
 10
10.2308
 20
-30.1096
 11
6.88896
 21
-23.0078
  0
LINE
  8
0
 10
6.88896
 20
-23.0078
 11
4.46355
 21
-15.5431
  0
LINE
  8
0
 10
4.46355
 20
-15.5431
 11
2.99283
 21
-7.83331
  0
LINE
  8
0
 10
2.99283
 20
-7.83331
 11
2.5
 21
0
  0
LINE
  8
0
 10
2.5
 20
0
 11
2.99283
 21
7.83331
  0
LINE
  8
0
 10
2.99283
 20
7.83331
 11
4.46355
 21
15.5431
  0
LINE
  8
0
 10
4.46355
 20
15.5431
 11
6.88896
 21
23.0078
  0
LINE
  8
0
 10
6.88896
 20
23.0078
 11
10.2308
 21
30.1096
  0
LINE
  8
0
 10
10.2308
 20
30.1096
 11
14.4364
 21
36.7366
  0
LINE
  8
0
 10
14.4364
 20
36.7366
 11
19.4395
 21
42.7842
  0
LINE
  8
0
 10
19.4395
 20
42.7842
 11
25.161
 21
48.1571
  0
LINE
  8
0
 10
25.161
 20
48.1571
 11
31.5108
 21
52.7705
  0
LINE
  8
0
 10
31.5108
 20
52.7705
 11
38.3888
 21
56.5517
  0
LINE
  8
0
 10
38.3888
 20
56.5517
 11
45.6864
 21
59.441
  0
LINE
  8
0
 10
45.6864
 20
59.441
 11
53.2887
 21
61.3929
  0
LINE
  8
0
 10
53.2887
 20
61.3929
 11
61.0756
 21
62.3767
  0
LINE
  8
0
 10
61.0756
 20
62.3767
 11
68.9244
 21
62.3767
  0
LINE
  8
0
 10
68.9244
 20
62.3767
 11
76.7113
 21
61.3929
  0
LINE
  8
0
 10
76.7113
 20
61.3929
 11
84.3136
 21
59.441
  0
LINE
  8
0
 10
84.3136
 20
59.441
 11
91.6112
 21
56.5517
  0
LINE
  8
0
 10
91.6112
 20
56.5517
 11
98.4892
 21
52.7705
  0
LINE
  8
0
 10
98.4892
 20
52.7705
 11
104.839
 21
48.1571
  0
LINE
  8
0
 10
104.839
 20
48.1571
 11
110.561
 21
42.7842
  0
LINE
  8
0
 10
110.561
 20
42.7842
 11
115.564
 21
36.7366
  0
LINE
  8
0
 10
115.564
 20
36.7366
 11
119.769
 21
30.1096
  0
LINE
  8
0
 10
119.769
 20
30.1096
 11
123.111
 21
23.0078
  0
LINE
  8
0
 10
123.111
 20
23.0078
 11
125.536
 21
15.5431
  0
LINE
  8
0
 10
125.536
 20
15.5431
 11
127.007
 21
7.83331
  0
LINE
  8
0
 10
127.007
 20
7.83331
 11
127.5
 21
0
  0
LINE
  8
0
 10
127.5
 20
0
 11
127.007
 21
-7.83331
  0
LINE
  8
0
 10
127.007
 20
-7.83331
 11
125.536
 21
-15.5431
  0
LINE
  8
0
 10
125.536
 20
-15.5431
 11
123.111
 21
-23.0078
  0
LINE
  8
0
 10
123.111
 20
-23.0078
 11
119.769
 21
-30.1096
  0
LINE
  8
0
 10
119.769
 20
-30.1096
 11
115.564
 21
-36.7366
  0
LINE
  8
0
 10
115.564
 20
-36.7366
 11
110.561
 21
-42.7842
  0
LINE
  8
0
 10
110.561
 20
-42.7842
 11
104.839
 21
-48.1571
  0
LINE
  8
0
 10
104.839
 20
-48.1571
 11
98.4892
 21
-52.7705
  0
LINE
  8
0
 10
98.4892
 20
-52.7705
 11
91.6112
 21
-56.5517
  0
LINE
  8
0
 10
91.6112
 20
-56.5517
 11
84.3136
 21
-59.441
  0
LINE
  8
0
 10
84.3136
 20
-59.441
 11
76.7113
 21
-61.3929
  0
LINE
  8
0
 10
76.7113
 20
-61.3929
 11
68.9244
 21
-62.3767
  0
LINE
  8
0
 10
68.9244
 20
-62.3767
 11
61.0756
 21
-62.3767
  0
LINE
  8
0
 10
-68.9244
 20
-62.3767
 11
-76.7113
 21
-61.3929
  0
LINE
  8
0
 10
-76.7113
 20
-61.3929
 11
-84.3136
 21
-59.441
  0
LINE
  8
0
 10
-84.3136
 20
-59.441
 11
-91.6112
 21
-56.5517
  0
LINE
  8
0
 10
-91.6112
 20
-56.5517
 11
-98.4892
 21
-52.7705
  0
LINE
  8
0
 10
-98.4892
 20
-52.7705
 11
-104.839
 21
-48.1571
  0
LINE
  8
0
 10
-104.839
 20
-48.1571
 11
-110.561
 21
-42.7842
  0
LINE
  8
0
 10
-110.561
 20
-42.7842
 11
-115.564
 21
-36.7366
  0
LINE
  8
0
 10
-115.564
 20
-36.7366
 11
-119.769
 21
-30.1096
  0
LINE
  8
0
 10
-119.769
 20
-30.1096
 11
-123.111
 21
-23.0078
  0
LINE
  8
0
 10
-123.111
 20
-23.0078
 11
-125.536
 21
-15.5431
  0
LINE
  8
0
 10
-125.536
 20
-15.5431
 11
-127.007
 21
-7.83331
  0
LINE
  8
0
 10
-127.007
 20
-7.83331
 11
-127.5
 21
0
  0
LINE
  8
0
 10
-127.5
 20
0
 11
-127.007
 21
7.83331
  0
LINE
  8
0
 10
-127.007
 20
7.83331
 11
-125.536
 21
15.5431
  0
LINE
  8
0
 10
-125.536
 20
15.5431
 11
-123.111
 21
23.0078
  0
LINE
  8
0
 10
-123.111
 20
23.0078
 11
-119.769
 21
30.1096
  0
LINE
  8
0
 10
-119.769
 20
30.1096
 11
-115.564
 21
36.7366
  0
LINE
  8
0
 10
-115.564
 20
36.7366
 11
-110.561
 21
42.7842
  0
LINE
  8
0
 10
-110.561
 20
42.7842
 11
-104.839
 21
48.1571
  0
LINE
  8
0
 10
-104.839
 20
48.1571
 11
-98.4892
 21
52.7705
  0
LINE
  8
0
 10
-98.4892
 20
52.7705
 11
-91.6112
 21
56.5517
  0
LINE
  8
0
 10
-91.6112
 20
56.5517
 11
-84.3136
 21
59.441
  0
LINE
  8
0
 10
-84.3136
 20
59.441
 11
-76.7113
 21
61.3929
  0
LINE
  8
0
 10
-76.7113
 20
61.3929
 11
-68.9244
 21
62.3767
  0
LINE
  8
0
 10
-68.9244
 20
62.3767
 11
-61.0756
 21
62.3767
  0
LINE
  8
0
 10
-61.0756
 20
62.3767
 11
-53.2887
 21
61.3929
  0
LINE
  8
0
 10
-53.2887
 20
61.3929
 11
-45.6864
 21
59.441
  0
LINE
  8
0
 10
-45.6864
 20
59.441
 11
-38.3888
 21
56.5517
  0
LINE
  8
0
 10
-38.3888
 20
56.5517
 11
-31.5108
 21
52.7705
  0
LINE
  8
0
 10
-31.5108
 20
52.7705
 11
-25.161
 21
48.1571
  0
LINE
  8
0
 10
-25.161
 20
48.1571
 11
-19.4395
 21
42.7842
  0
LINE
  8
0
 10
-19.4395
 20
42.7842
 11
-14.4364
 21
36.7366
  0
LINE
  8
0
 10
-14.4364
 20
36.7366
 11
-10.2308
 21
30.1096
  0
LINE
  8
0
 10
-10.2308
 20
30.1096
 11
-6.88896
 21
23.0078
  0
LINE
  8
0
 10
-6.88896
 20
23.0078
 11
-4.46355
 21
15.5431
  0
LINE
  8
0
 10
-4.46355
 20
15.5431
 11
-2.99283
 21
7.83331
  0
LINE
  8
0
 10
-2.99283
 20
7.83331
 11
-2.5
 21
0
  0
LINE
  8
0
 10
-2.5
 20
0
 11
-2.99283
 21
-7.83331
  0
LINE
  8
0
 10
-2.99283
 20
-7.83331
 11
-4.46355
 21
-15.5431
  0
LINE
  8
0
 10
-4.46355
 20
-15.5431
 11
-6.88896
 21
-23.0078
  0
LINE
  8
0
 10
-6.88896
 20
-23.0078
 11
-10.2308
 21
-30.1096
  0
LINE
  8
0
 10
-10.2308
 20
-30.1096
 11
-14.4364
 21
-36.7366
  0
LINE
  8
0
 10
-14.4364
 20
-36.7366
 11
-19.4395
 21
-42.7842
  0
LINE
  8
0
 10
-19.4395
 20
-42.7842
 11
-25.161
 21
-48.1571
  0
LINE
  8
0
 10
-25.161
 20
-48.1571
 11
-31.5108
 21
-52.7705
  0
LINE
  8
0
 10
-31.5108
 20
-52.7705
 11
-38.3888
 21
-56.5517
  0
LINE
  8
0
 10
-38.3888
 20
-56.5517
 11
-45.6864
 21
-59.441
  0
LINE
  8
0
 10
-45.6864
 20
-59.441
 11
-53.2887
 21
-61.3929
  0
LINE
  8
0
 10
-53.2887
 20
-61.3929
 11
-61.0756
 21
-62.3767
  0
LINE
  8
0
 10
-61.0756
 20
-62.3767
 11
-68.9244
 21
-62.3767
  0
LINE
  8
0
 10
134.906
 20
51.003
 11
134.719
 21
51.0266
  0
LINE
  8
0
 10
134.719
 20
51.0266
 11
134.536
 21
51.0734
  0
LINE
  8
0
 10
134.536
 20
51.0734
 11
134.361
 21
51.1428
  0
LINE
  8
0
 10
134.361
 20
51.1428
 11
134.196
 21
51.2335
  0
LINE
  8
0
 10
134.196
 20
51.2335
 11
134.044
 21
51.3442
  0
LINE
  8
0
 10
134.044
 20
51.3442
 11
133.907
 21
51.4732
  0
LINE
  8
0
 10
133.907
 20
51.4732
 11
133.786
 21
51.6183
  0
LINE
  8
0
 10
133.786
 20
51.6183
 11
133.686
 21
51.7774
  0
LINE
  8
0
 10
133.686
 20
51.7774
 11
133.605
 21
51.9478
  0
LINE
  8
0
 10
133.605
 20
51.9478
 11
133.547
 21
52.127
  0
LINE
  8
0
 10
133.547
 20
52.127
 11
133.512
 21
52.312
  0
LINE
  8
0
 10
133.512
 20
52.312
 11
133.5
 21
52.5
  0
LINE
  8
0
 10
133.5
 20
52.5
 11
133.512
 21
52.688
  0
LINE
  8
0
 10
133.512
 20
52.688
 11
133.547
 21
52.873
  0
LINE
  8
0
 10
133.547
 20
52.873
 11
133.605
 21
53.0522
  0
LINE
  8
0
 10
133.605
 20
53.0522
 11
133.686
 21
53.2226
  0
LINE
  8
0
 10
133.686
 20
53.2226
 11
133.786
 21
53.3817
  0
LINE
  8
0
 10
133.786
 20
53.3817
 11
133.907
 21
53.5268
  0
LINE
  8
0
 10
133.907
 20
53.5268
 11
134.044
 21
53.6558
  0
LINE
  8
0
 10
134.044
 20
53.6558
 11
134.196
 21
53.7665
  0
LINE
  8
0
 10
134.196
 20
53.7665
 11
134.361
 21
53.8572
  0
LINE
  8
0
 10
134.361
 20
53.8572
 11
134.536
 21
53.9266
  0
LINE
  8
0
 10
134.536
 20
53.9266
 11
134.719
 21
53.9734
  0
LINE
  8
0
 10
134.719
 20
53.9734
 11
134.906
 21
53.997
  0
LINE
  8
0
 10
134.906
 20
53.997
 11
135.094
 21
53.997
  0
LINE
  8
0
 10
135.094
 20
53.997
 11
135.281
 21
53.9734
  0
LINE
  8
0
 10
135.281
 20
53.9734
 11
135.464
 21
53.9266
  0
LINE
  8
0
 10
135.464
 20
53.9266
 11
135.639
 21
53.8572
  0
LINE
  8
0
 10
135.639
 20
53.8572
 11
135.804
 21
53.7665
  0
LINE
  8
0
 10
135.804
 20
53.7665
 11
135.956
 21
53.6558
  0
LINE
  8
0
 10
135.956
 20
53.6558
 11
136.093
 21
53.5268
  0
LINE
  8
0
 10
136.093
 20
53.5268
 11
136.214
 21
53.3817
  0
LINE
  8
0
 10
136.214
 20
53.3817
 11
136.314
 21
53.2226
  0
LINE
  8
0
 10
136.314
 20
53.2226
 11
136.395
 21
53.0522
  0
LINE
  8
0
 10
136.395
 20
53.0522
 11
136.453
 21
52.873
  0
LINE
  8
0
 10
136.453
 20
52.873
 11
136.488
 21
52.688
  0
LINE
  8
0
 10
136.488
 20
52.688
 11
136.5
 21
52.5
  0
LINE
  8
0
 10
136.5
 20
52.5
 11
136.488
 21
52.312
  0
LINE
  8
0
 10
136.488
 20
52.312
 11
136.453
 21
52.127
  0
LINE
  8
0
 10
136.453
 20
52.127
 11
136.395
 21
51.9478
  0
LINE
  8
0
 10
136.395
 20
51.9478
 11
136.314
 21
51.7774
  0
LINE
  8
0
 10
136.314
 20
51.7774
 11
136.214
 21
51.6183
  0
LINE
  8
0
 10
136.214
 20
51.6183
 11
136.093
 21
51.4732
  0
LINE
  8
0
 10
136.093
 20
51.4732
 11
135.956
 21
51.3442
  0
LINE
  8
0
 10
135.956
 20
51.3442
 11
135.804
 21
51.2335
  0
LINE
  8
0
 10
135.804
 20
51.2335
 11
135.639
 21
51.1428
  0
LINE
  8
0
 10
135.639
 20
51.1428
 11
135.464
 21
51.0734
  0
LINE
  8
0
 10
135.464
 20
51.0734
 11
135.281
 21
51.0266
  0
LINE
  8
0
 10
135.281
 20
51.0266
 11
135.094
 21
51.003
  0
LINE
  8
0
 10
135.094
 20
51.003
 11
134.906
 21
51.003
  0
LINE
  8
0
 10
-135.094
 20
51.003
 11
-135.281
 21
51.0266
  0
LINE
  8
0
 10
-135.281
 20
51.0266
 11
-135.464
 21
51.0734
  0
LINE
  8
0
 10
-135.464
 20
51.0734
 11
-135.639
 21
51.1428
  0
LINE
  8
0
 10
-135.639
 20
51.1428
 11
-135.804
 21
51.2335
  0
LINE
  8
0
 10
-135.804
 20
51.2335
 11
-135.956
 21
51.3442
  0
LINE
  8
0
 10
-135.956
 20
51.3442
 11
-136.093
 21
51.4732
  0
LINE
  8
0
 10
-136.093
 20
51.4732
 11
-136.214
 21
51.6183
  0
LINE
  8
0
 10
-136.214
 20
51.6183
 11
-136.314
 21
51.7774
  0
LINE
  8
0
 10
-136.314
 20
51.7774
 11
-136.395
 21
51.9478
  0
LINE
  8
0
 10
-136.395
 20
51.9478
 11
-136.453
 21
52.127
  0
LINE
  8
0
 10
-136.453
 20
52.127
 11
-136.488
 21
52.312
  0
LINE
  8
0
 10
-136.488
 20
52.312
 11
-136.5
 21
52.5
  0
LINE
  8
0
 10
-136.5
 20
52.5
 11
-136.488
 21
52.688
  0
LINE
  8
0
 10
-136.488
 20
52.688
 11
-136.453
 21
52.873
  0
LINE
  8
0
 10
-136.453
 20
52.873
 11
-136.395
 21
53.0522
  0
LINE
  8
0
 10
-136.395
 20
53.0522
 11
-136.314
 21
53.2226
  0
LINE
  8
0
 10
-136.314
 20
53.2226
 11
-136.214
 21
53.3817
  0
LINE
  8
0
 10
-136.214
 20
53.3817
 11
-136.093
 21
53.5268
  0
LINE
  8
0
 10
-136.093
 20
53.5268
 11
-135.956
 21
53.6558
  0
LINE
  8
0
 10
-135.956
 20
53.6558
 11
-135.804
 21
53.7665
  0
LINE
  8
0
 10
-135.804
 20
53.7665
 11
-135.639
 21
53.8572
  0
LINE
  8
0
 10
-135.639
 20
53.8572
 11
-135.464
 21
53.9266
  0
LINE
  8
0
 10
-135.464
 20
53.9266
 11
-135.281
 21
53.9734
  0
LINE
  8
0
 10
-135.281
 20
53.9734
 11
-135.094
 21
53.997
  0
LINE
  8
0
 10
-135.094
 20
53.997
 11
-134.906
 21
53.997
  0
LINE
  8
0
 10
-134.906
 20
53.997
 11
-134.719
 21
53.9734
  0
LINE
  8
0
 10
-134.719
 20
53.9734
 11
-134.536
 21
53.9266
  0
LINE
  8
0
 10
-134.536
 20
53.9266
 11
-134.361
 21
53.8572
  0
LINE
  8
0
 10
-134.361
 20
53.8572
 11
-134.196
 21
53.7665
  0
LINE
  8
0
 10
-134.196
 20
53.7665
 11
-134.044
 21
53.6558
  0
LINE
  8
0
 10
-134.044
 20
53.6558
 11
-133.907
 21
53.5268
  0
LINE
  8
0
 10
-133.907
 20
53.5268
 11
-133.786
 21
53.3817
  0
LINE
  8
0
 10
-133.786
 20
53.3817
 11
-133.686
 21
53.2226
  0
LINE
  8
0
 10
-133.686
 20
53.2226
 11
-133.605
 21
53.0522
  0
LINE
  8
0
 10
-133.605
 20
53.0522
 11
-133.547
 21
52.873
  0
LINE
  8
0
 10
-133.547
 20
52.873
 11
-133.512
 21
52.688
  0
LINE
  8
0
 10
-133.512
 20
52.688
 11
-133.5
 21
52.5
  0
LINE
  8
0
 10
-133.5
 20
52.5
 11
-133.512
 21
52.312
  0
LINE
  8
0
 10
-133.512
 20
52.312
 11
-133.547
 21
52.127
  0
LINE
  8
0
 10
-133.547
 20
52.127
 11
-133.605
 21
51.9478
  0
LINE
  8
0
 10
-133.605
 20
51.9478
 11
-133.686
 21
51.7774
  0
LINE
  8
0
 10
-133.686
 20
51.7774
 11
-133.786
 21
51.6183
  0
LINE
  8
0
 10
-133.786
 20
51.6183
 11
-133.907
 21
51.4732
  0
LINE
  8
0
 10
-133.907
 20
51.4732
 11
-134.044
 21
51.3442
  0
LINE
  8
0
 10
-134.044
 20
51.3442
 11
-134.196
 21
51.2335
  0
LINE
  8
0
 10
-134.196
 20
51.2335
 11
-134.361
 21
51.1428
  0
LINE
  8
0
 10
-134.361
 20
51.1428
 11
-134.536
 21
51.0734
  0
LINE
  8
0
 10
-134.536
 20
51.0734
 11
-134.719
 21
51.0266
  0
LINE
  8
0
 10
-134.719
 20
51.0266
 11
-134.906
 21
51.003
  0
LINE
  8
0
 10
-134.906
 20
51.003
 11
-135.094
 21
51.003
  0
LINE
  8
0
 10
-135.188
 20
42.0059
 11
-135.562
 21
42.0531
  0
LINE
  8
0
 10
-135.562
 20
42.0531
 11
-135.927
 21
42.1468
  0
LINE
  8
0
 10
-135.927
 20
42.1468
 11
-136.277
 21
42.2855
  0
LINE
  8
0
 10
-136.277
 20
42.2855
 11
-136.607
 21
42.467
  0
LINE
  8
0
 10
-136.607
 20
42.467
 11
-136.912
 21
42.6885
  0
LINE
  8
0
 10
-136.912
 20
42.6885
 11
-137.187
 21
42.9464
  0
LINE
  8
0
 10
-137.187
 20
42.9464
 11
-137.427
 21
43.2366
  0
LINE
  8
0
 10
-137.427
 20
43.2366
 11
-137.629
 21
43.5547
  0
LINE
  8
0
 10
-137.629
 20
43.5547
 11
-137.789
 21
43.8956
  0
LINE
  8
0
 10
-137.789
 20
43.8956
 11
-137.906
 21
44.2539
  0
LINE
  8
0
 10
-137.906
 20
44.2539
 11
-137.976
 21
44.624
  0
LINE
  8
0
 10
-137.976
 20
44.624
 11
-138
 21
45
  0
LINE
  8
0
 10
-138
 20
45
 11
-137.976
 21
45.376
  0
LINE
  8
0
 10
-137.976
 20
45.376
 11
-137.906
 21
45.7461
  0
LINE
  8
0
 10
-137.906
 20
45.7461
 11
-137.789
 21
46.1044
  0
LINE
  8
0
 10
-137.789
 20
46.1044
 11
-137.629
 21
46.4453
  0
LINE
  8
0
 10
-137.629
 20
46.4453
 11
-137.427
 21
46.7634
  0
LINE
  8
0
 10
-137.427
 20
46.7634
 11
-137.187
 21
47.0536
  0
LINE
  8
0
 10
-137.187
 20
47.0536
 11
-136.912
 21
47.3115
  0
LINE
  8
0
 10
-136.912
 20
47.3115
 11
-136.607
 21
47.533
  0
LINE
  8
0
 10
-136.607
 20
47.533
 11
-136.277
 21
47.7145
  0
LINE
  8
0
 10
-136.277
 20
47.7145
 11
-135.927
 21
47.8532
  0
LINE
  8
0
 10
-135.927
 20
47.8532
 11
-135.562
 21
47.9469
  0
LINE
  8
0
 10
-135.562
 20
47.9469
 11
-135.188
 21
47.9941
  0
LINE
  8
0
 10
-135.188
 20
47.9941
 11
-134.812
 21
47.9941
  0
LINE
  8
0
 10
-134.812
 20
47.9941
 11
-134.438
 21
47.9469
  0
LINE
  8
0
 10
-134.438
 20
47.9469
 11
-134.073
 21
47.8532
  0
LINE
  8
0
 10
-134.073
 20
47.8532
 11
-133.723
 21
47.7145
  0
LINE
  8
0
 10
-133.723
 20
47.7145
 11
-133.393
 21
47.533
  0
LINE
  8
0
 10
-133.393
 20
47.533
 11
-133.088
 21
47.3115
  0
LINE
  8
0
 10
-133.088
 20
47.3115
 11
-132.813
 21
47.0536
  0
LINE
  8
0
 10
-132.813
 20
47.0536
 11
-132.573
 21
46.7634
  0
LINE
  8
0
 10
-132.573
 20
46.7634
 11
-132.371
 21
46.4453
  0
LINE
  8
0
 10
-132.371
 20
46.4453
 11
-132.211
 21
46.1044
  0
LINE
  8
0
 10
-132.211
 20
46.1044
 11
-132.094
 21
45.7461
  0
LINE
  8
0
 10
-132.094
 20
45.7461
 11
-132.024
 21
45.376
  0
LINE
  8
0
 10
-132.024
 20
45.376
 11
-132
 21
45
  0
LINE
  8
0
 10
-132
 20
45
 11
-132.024
 21
44.624
  0
LINE
  8
0
 10
-132.024
 20
44.624
 11
-132.094
 21
44.2539
  0
LINE
  8
0
 10
-132.094
 20
44.2539
 11
-132.211
 21
43.8956
  0
LINE
  8
0
 10
-132.211
 20
43.8956
 11
-132.371
 21
43.5547
  0
LINE
  8
0
 10
-132.371
 20
43.5547
 11
-132.573
 21
43.2366
  0
LINE
  8
0
 10
-132.573
 20
43.2366
 11
-132.813
 21
42.9464
  0
LINE
  8
0
 10
-132.813
 20
42.9464
 11
-133.088
 21
42.6885
  0
LINE
  8
0
 10
-133.088
 20
42.6885
 11
-133.393
 21
42.467
  0
LINE
  8
0
 10
-133.393
 20
42.467
 11
-133.723
 21
42.2855
  0
LINE
  8
0
 10
-133.723
 20
42.2855
 11
-134.073
 21
42.1468
  0
LINE
  8
0
 10
-134.073
 20
42.1468
 11
-134.438
 21
42.0531
  0
LINE
  8
0
 10
-134.438
 20
42.0531
 11
-134.812
 21
42.0059
  0
LINE
  8
0
 10
-134.812
 20
42.0059
 11
-135.188
 21
42.0059
  0
LINE
  8
0
 10
134.812
 20
42.0059
 11
134.438
 21
42.0531
  0
LINE
  8
0
 10
134.438
 20
42.0531
 11
134.073
 21
42.1468
  0
LINE
  8
0
 10
134.073
 20
42.1468
 11
133.723
 21
42.2855
  0
LINE
  8
0
 10
133.723
 20
42.2855
 11
133.393
 21
42.467
  0
LINE
  8
0
 10
133.393
 20
42.467
 11
133.088
 21
42.6885
  0
LINE
  8
0
 10
133.088
 20
42.6885
 11
132.813
 21
42.9464
  0
LINE
  8
0
 10
132.813
 20
42.9464
 11
132.573
 21
43.2366
  0
LINE
  8
0
 10
132.573
 20
43.2366
 11
132.371
 21
43.5547
  0
LINE
  8
0
 10
132.371
 20
43.5547
 11
132.211
 21
43.8956
  0
LINE
  8
0
 10
132.211
 20
43.8956
 11
132.094
 21
44.2539
  0
LINE
  8
0
 10
132.094
 20
44.2539
 11
132.024
 21
44.624
  0
LINE
  8
0
 10
132.024
 20
44.624
 11
132
 21
45
  0
LINE
  8
0
 10
132
 20
45
 11
132.024
 21
45.376
  0
LINE
  8
0
 10
132.024
 20
45.376
 11
132.094
 21
45.7461
  0
LINE
  8
0
 10
132.094
 20
45.7461
 11
132.211
 21
46.1044
  0
LINE
  8
0
 10
132.211
 20
46.1044
 11
132.371
 21
46.4453
  0
LINE
  8
0
 10
132.371
 20
46.4453
 11
132.573
 21
46.7634
  0
LINE
  8
0
 10
132.573
 20
46.7634
 11
132.813
 21
47.0536
  0
LINE
  8
0
 10
132.813
 20
47.0536
 11
133.088
 21
47.3115
  0
LINE
  8
0
 10
133.088
 20
47.3115
 11
133.393
 21
47.533
  0
LINE
  8
0
 10
133.393
 20
47.533
 11
133.723
 21
47.7145
  0
LINE
  8
0
 10
133.723
 20
47.7145
 11
134.073
 21
47.8532
  0
LINE
  8
0
 10
134.073
 20
47.8532
 11
134.438
 21
47.9469
  0
LINE
  8
0
 10
134.438
 20
47.9469
 11
134.812
 21
47.9941
  0
LINE
  8
0
 10
134.812
 20
47.9941
 11
135.188
 21
47.9941
  0
LINE
  8
0
 10
135.188
 20
47.9941
 11
135.562
 21
47.9469
  0
LINE
  8
0
 10
135.562
 20
47.9469
 11
135.927
 21
47.8532
  0
LINE
  8
0
 10
135.927
 20
47.8532
 11
136.277
 21
47.7145
  0
LINE
  8
0
 10
136.277
 20
47.7145
 11
136.607
 21
47.533
  0
LINE
  8
0
 10
136.607
 20
47.533
 11
136.912
 21
47.3115
  0
LINE
  8
0
 10
136.912
 20
47.3115
 11
137.187
 21
47.0536
  0
LINE
  8
0
 10
137.187
 20
47.0536
 11
137.427
 21
46.7634
  0
LINE
  8
0
 10
137.427
 20
46.7634
 11
137.629
 21
46.4453
  0
LINE
  8
0
 10
137.629
 20
46.4453
 11
137.789
 21
46.1044
  0
LINE
  8
0
 10
137.789
 20
46.1044
 11
137.906
 21
45.7461
  0
LINE
  8
0
 10
137.906
 20
45.7461
 11
137.976
 21
45.376
  0
LINE
  8
0
 10
137.976
 20
45.376
 11
138
 21
45
  0
LINE
  8
0
 10
138
 20
45
 11
137.976
 21
44.624
  0
LINE
  8
0
 10
137.976
 20
44.624
 11
137.906
 21
44.2539
  0
LINE
  8
0
 10
137.906
 20
44.2539
 11
137.789
 21
43.8956
  0
LINE
  8
0
 10
137.789
 20
43.8956
 11
137.629
 21
43.5547
  0
LINE
  8
0
 10
137.629
 20
43.5547
 11
137.427
 21
43.2366
  0
LINE
  8
0
 10
137.427
 20
43.2366
 11
137.187
 21
42.9464
  0
LINE
  8
0
 10
137.187
 20
42.9464
 11
136.912
 21
42.6885
  0
LINE
  8
0
 10
136.912
 20
42.6885
 11
136.607
 21
42.467
  0
LINE
  8
0
 10
136.607
 20
42.467
 11
136.277
 21
42.2855
  0
LINE
  8
0
 10
136.277
 20
42.2855
 11
135.927
 21
42.1468
  0
LINE
  8
0
 10
135.927
 20
42.1468
 11
135.562
 21
42.0531
  0
LINE
  8
0
 10
135.562
 20
42.0531
 11
135.188
 21
42.0059
  0
LINE
  8
0
 10
135.188
 20
42.0059
 11
134.812
 21
42.0059
  0
LINE
  8
0
 10
-135.094
 20
36.003
 11
-135.281
 21
36.0266
  0
LINE
  8
0
 10
-135.281
 20
36.0266
 11
-135.464
 21
36.0734
  0
LINE
  8
0
 10
-135.464
 20
36.0734
 11
-135.639
 21
36.1428
  0
LINE
  8
0
 10
-135.639
 20
36.1428
 11
-135.804
 21
36.2335
  0
LINE
  8
0
 10
-135.804
 20
36.2335
 11
-135.956
 21
36.3442
  0
LINE
  8
0
 10
-135.956
 20
36.3442
 11
-136.093
 21
36.4732
  0
LINE
  8
0
 10
-136.093
 20
36.4732
 11
-136.214
 21
36.6183
  0
LINE
  8
0
 10
-136.214
 20
36.6183
 11
-136.314
 21
36.7774
  0
LINE
  8
0
 10
-136.314
 20
36.7774
 11
-136.395
 21
36.9478
  0
LINE
  8
0
 10
-136.395
 20
36.9478
 11
-136.453
 21
37.127
  0
LINE
  8
0
 10
-136.453
 20
37.127
 11
-136.488
 21
37.312
  0
LINE
  8
0
 10
-136.488
 20
37.312
 11
-136.5
 21
37.5
  0
LINE
  8
0
 10
-136.5
 20
37.5
 11
-136.488
 21
37.688
  0
LINE
  8
0
 10
-136.488
 20
37.688
 11
-136.453
 21
37.873
  0
LINE
  8
0
 10
-136.453
 20
37.873
 11
-136.395
 21
38.0522
  0
LINE
  8
0
 10
-136.395
 20
38.0522
 11
-136.314
 21
38.2226
  0
LINE
  8
0
 10
-136.314
 20
38.2226
 11
-136.214
 21
38.3817
  0
LINE
  8
0
 10
-136.214
 20
38.3817
 11
-136.093
 21
38.5268
  0
LINE
  8
0
 10
-136.093
 20
38.5268
 11
-135.956
 21
38.6558
  0
LINE
  8
0
 10
-135.956
 20
38.6558
 11
-135.804
 21
38.7665
  0
LINE
  8
0
 10
-135.804
 20
38.7665
 11
-135.639
 21
38.8572
  0
LINE
  8
0
 10
-135.639
 20
38.8572
 11
-135.464
 21
38.9266
  0
LINE
  8
0
 10
-135.464
 20
38.9266
 11
-135.281
 21
38.9734
  0
LINE
  8
0
 10
-135.281
 20
38.9734
 11
-135.094
 21
38.997
  0
LINE
  8
0
 10
-135.094
 20
38.997
 11
-134.906
 21
38.997
  0
LINE
  8
0
 10
-134.906
 20
38.997
 11
-134.719
 21
38.9734
  0
LINE
  8
0
 10
-134.719
 20
38.9734
 11
-134.536
 21
38.9266
  0
LINE
  8
0
 10
-134.536
 20
38.9266
 11
-134.361
 21
38.8572
  0
LINE
  8
0
 10
-134.361
 20
38.8572
 11
-134.196
 21
38.7665
  0
LINE
  8
0
 10
-134.196
 20
38.7665
 11
-134.044
 21
38.6558
  0
LINE
  8
0
 10
-134.044
 20
38.6558
 11
-133.907
 21
38.5268
  0
LINE
  8
0
 10
-133.907
 20
38.5268
 11
-133.786
 21
38.3817
  0
LINE
  8
0
 10
-133.786
 20
38.3817
 11
-133.686
 21
38.2226
  0
LINE
  8
0
 10
-133.686
 20
38.2226
 11
-133.605
 21
38.0522
  0
LINE
  8
0
 10
-133.605
 20
38.0522
 11
-133.547
 21
37.873
  0
LINE
  8
0
 10
-133.547
 20
37.873
 11
-133.512
 21
37.688
  0
LINE
  8
0
 10
-133.512
 20
37.688
 11
-133.5
 21
37.5
  0
LINE
  8
0
 10
-133.5
 20
37.5
 11
-133.512
 21
37.312
  0
LINE
  8
0
 10
-133.512
 20
37.312
 11
-133.547
 21
37.127
  0
LINE
  8
0
 10
-133.547
 20
37.127
 11
-133.605
 21
36.9478
  0
LINE
  8
0
 10
-133.605
 20
36.9478
 11
-133.686
 21
36.7774
  0
LINE
  8
0
 10
-133.686
 20
36.7774
 11
-133.786
 21
36.6183
  0
LINE
  8
0
 10
-133.786
 20
36.6183
 11
-133.907
 21
36.4732
  0
LINE
  8
0
 10
-133.907
 20
36.4732
 11
-134.044
 21
36.3442
  0
LINE
  8
0
 10
-134.044
 20
36.3442
 11
-134.196
 21
36.2335
  0
LINE
  8
0
 10
-134.196
 20
36.2335
 11
-134.361
 21
36.1428
  0
LINE
  8
0
 10
-134.361
 20
36.1428
 11
-134.536
 21
36.0734
  0
LINE
  8
0
 10
-134.536
 20
36.0734
 11
-134.719
 21
36.0266
  0
LINE
  8
0
 10
-134.719
 20
36.0266
 11
-134.906
 21
36.003
  0
LINE
  8
0
 10
-134.906
 20
36.003
 11
-135.094
 21
36.003
  0
LINE
  8
0
 10
134.906
 20
36.003
 11
134.719
 21
36.0266
  0
LINE
  8
0
 10
134.719
 20
36.0266
 11
134.536
 21
36.0734
  0
LINE
  8
0
 10
134.536
 20
36.0734
 11
134.361
 21
36.1428
  0
LINE
  8
0
 10
134.361
 20
36.1428
 11
134.196
 21
36.2335
  0
LINE
  8
0
 10
134.196
 20
36.2335
 11
134.044
 21
36.3442
  0
LINE
  8
0
 10
134.044
 20
36.3442
 11
133.907
 21
36.4732
  0
LINE
  8
0
 10
133.907
 20
36.4732
 11
133.786
 21
36.6183
  0
LINE
  8
0
 10
133.786
 20
36.6183
 11
133.686
 21
36.7774
  0
LINE
  8
0
 10
133.686
 20
36.7774
 11
133.605
 21
36.9478
  0
LINE
  8
0
 10
133.605
 20
36.9478
 11
133.547
 21
37.127
  0
LINE
  8
0
 10
133.547
 20
37.127
 11
133.512
 21
37.312
  0
LINE
  8
0
 10
133.512
 20
37.312
 11
133.5
 21
37.5
  0
LINE
  8
0
 10
133.5
 20
37.5
 11
133.512
 21
37.688
  0
LINE
  8
0
 10
133.512
 20
37.688
 11
133.547
 21
37.873
  0
LINE
  8
0
 10
133.547
 20
37.873
 11
133.605
 21
38.0522
  0
LINE
  8
0
 10
133.605
 20
38.0522
 11
133.686
 21
38.2226
  0
LINE
  8
0
 10
133.686
 20
38.2226
 11
133.786
 21
38.3817
  0
LINE
  8
0
 10
133.786
 20
38.3817
 11
133.907
 21
38.5268
  0
LINE
  8
0
 10
133.907
 20
38.5268
 11
134.044
 21
38.6558
  0
LINE
  8
0
 10
134.044
 20
38.6558
 11
134.196
 21
38.7665
  0
LINE
  8
0
 10
134.196
 20
38.7665
 11
134.361
 21
38.8572
  0
LINE
  8
0
 10
134.361
 20
38.8572
 11
134.536
 21
38.9266
  0
LINE
  8
0
 10
134.536
 20
38.9266
 11
134.719
 21
38.9734
  0
LINE
  8
0
 10
134.719
 20
38.9734
 11
134.906
 21
38.997
  0
LINE
  8
0
 10
134.906
 20
38.997
 11
135.094
 21
38.997
  0
LINE
  8
0
 10
135.094
 20
38.997
 11
135.281
 21
38.9734
  0
LINE
  8
0
 10
135.281
 20
38.9734
 11
135.464
 21
38.9266
  0
LINE
  8
0
 10
135.464
 20
38.9266
 11
135.639
 21
38.8572
  0
LINE
  8
0
 10
135.639
 20
38.8572
 11
135.804
 21
38.7665
  0
LINE
  8
0
 10
135.804
 20
38.7665
 11
135.956
 21
38.6558
  0
LINE
  8
0
 10
135.956
 20
38.6558
 11
136.093
 21
38.5268
  0
LINE
  8
0
 10
136.093
 20
38.5268
 11
136.214
 21
38.3817
  0
LINE
  8
0
 10
136.214
 20
38.3817
 11
136.314
 21
38.2226
  0
LINE
  8
0
 10
136.314
 20
38.2226
 11
136.395
 21
38.0522
  0
LINE
  8
0
 10
136.395
 20
38.0522
 11
136.453
 21
37.873
  0
LINE
  8
0
 10
136.453
 20
37.873
 11
136.488
 21
37.688
  0
LINE
  8
0
 10
136.488
 20
37.688
 11
136.5
 21
37.5
  0
LINE
  8
0
 10
136.5
 20
37.5
 11
136.488
 21
37.312
  0
LINE
  8
0
 10
136.488
 20
37.312
 11
136.453
 21
37.127
  0
LINE
  8
0
 10
136.453
 20
37.127
 11
136.395
 21
36.9478
  0
LINE
  8
0
 10
136.395
 20
36.9478
 11
136.314
 21
36.7774
  0
LINE
  8
0
 10
136.314
 20
36.7774
 11
136.214
 21
36.6183
  0
LINE
  8
0
 10
136.214
 20
36.6183
 11
136.093
 21
36.4732
  0
LINE
  8
0
 10
136.093
 20
36.4732
 11
135.956
 21
36.3442
  0
LINE
  8
0
 10
135.956
 20
36.3442
 11
135.804
 21
36.2335
  0
LINE
  8
0
 10
135.804
 20
36.2335
 11
135.639
 21
36.1428
  0
LINE
  8
0
 10
135.639
 20
36.1428
 11
135.464
 21
36.0734
  0
LINE
  8
0
 10
135.464
 20
36.0734
 11
135.281
 21
36.0266
  0
LINE
  8
0
 10
135.281
 20
36.0266
 11
135.094
 21
36.003
  0
LINE
  8
0
 10
135.094
 20
36.003
 11
134.906
 21
36.003
  0
LINE
  8
0
 10
134.812
 20
27.0059
 11
134.438
 21
27.0531
  0
LINE
  8
0
 10
134.438
 20
27.0531
 11
134.073
 21
27.1468
  0
LINE
  8
0
 10
134.073
 20
27.1468
 11
133.723
 21
27.2855
  0
LINE
  8
0
 10
133.723
 20
27.2855
 11
133.393
 21
27.467
  0
LINE
  8
0
 10
133.393
 20
27.467
 11
133.088
 21
27.6884
  0
LINE
  8
0
 10
133.088
 20
27.6884
 11
132.813
 21
27.9464
  0
LINE
  8
0
 10
132.813
 20
27.9464
 11
132.573
 21
28.2366
  0
LINE
  8
0
 10
132.573
 20
28.2366
 11
132.371
 21
28.5547
  0
LINE
  8
0
 10
132.371
 20
28.5547
 11
132.211
 21
28.8956
  0
LINE
  8
0
 10
132.211
 20
28.8956
 11
132.094
 21
29.2539
  0
LINE
  8
0
 10
132.094
 20
29.2539
 11
132.024
 21
29.624
  0
LINE
  8
0
 10
132.024
 20
29.624
 11
132
 21
30
  0
LINE
  8
0
 10
132
 20
30
 11
132.024
 21
30.376
  0
LINE
  8
0
 10
132.024
 20
30.376
 11
132.094
 21
30.7461
  0
LINE
  8
0
 10
132.094
 20
30.7461
 11
132.211
 21
31.1044
  0
LINE
  8
0
 10
132.211
 20
31.1044
 11
132.371
 21
31.4453
  0
LINE
  8
0
 10
132.371
 20
31.4453
 11
132.573
 21
31.7634
  0
LINE
  8
0
 10
132.573
 20
31.7634
 11
132.813
 21
32.0536
  0
LINE
  8
0
 10
132.813
 20
32.0536
 11
133.088
 21
32.3115
  0
LINE
  8
0
 10
133.088
 20
32.3115
 11
133.393
 21
32.533
  0
LINE
  8
0
 10
133.393
 20
32.533
 11
133.723
 21
32.7145
  0
LINE
  8
0
 10
133.723
 20
32.7145
 11
134.073
 21
32.8532
  0
LINE
  8
0
 10
134.073
 20
32.8532
 11
134.438
 21
32.9469
  0
LINE
  8
0
 10
134.438
 20
32.9469
 11
134.812
 21
32.9941
  0
LINE
  8
0
 10
134.812
 20
32.9941
 11
135.188
 21
32.9941
  0
LINE
  8
0
 10
135.188
 20
32.9941
 11
135.562
 21
32.9469
  0
LINE
  8
0
 10
135.562
 20
32.9469
 11
135.927
 21
32.8532
  0
LINE
  8
0
 10
135.927
 20
32.8532
 11
136.277
 21
32.7145
  0
LINE
  8
0
 10
136.277
 20
32.7145
 11
136.607
 21
32.533
  0
LINE
  8
0
 10
136.607
 20
32.533
 11
136.912
 21
32.3115
  0
LINE
  8
0
 10
136.912
 20
32.3115
 11
137.187
 21
32.0536
  0
LINE
  8
0
 10
137.187
 20
32.0536
 11
137.427
 21
31.7634
  0
LINE
  8
0
 10
137.427
 20
31.7634
 11
137.629
 21
31.4453
  0
LINE
  8
0
 10
137.629
 20
31.4453
 11
137.789
 21
31.1044
  0
LINE
  8
0
 10
137.789
 20
31.1044
 11
137.906
 21
30.7461
  0
LINE
  8
0
 10
137.906
 20
30.7461
 11
137.976
 21
30.376
  0
LINE
  8
0
 10
137.976
 20
30.376
 11
138
 21
30
  0
LINE
  8
0
 10
138
 20
30
 11
137.976
 21
29.624
  0
LINE
  8
0
 10
137.976
 20
29.624
 11
137.906
 21
29.2539
  0
LINE
  8
0
 10
137.906
 20
29.2539
 11
137.789
 21
28.8956
  0
LINE
  8
0
 10
137.789
 20
28.8956
 11
137.629
 21
28.5547
  0
LINE
  8
0
 10
137.629
 20
28.5547
 11
137.427
 21
28.2366
  0
LINE
  8
0
 10
137.427
 20
28.2366
 11
137.187
 21
27.9464
  0
LINE
  8
0
 10
137.187
 20
27.9464
 11
136.912
 21
27.6884
  0
LINE
  8
0
 10
136.912
 20
27.6884
 11
136.607
 21
27.467
  0
LINE
  8
0
 10
136.607
 20
27.467
 11
136.277
 21
27.2855
  0
LINE
  8
0
 10
136.277
 20
27.2855
 11
135.927
 21
27.1468
  0
LINE
  8
0
 10
135.927
 20
27.1468
 11
135.562
 21
27.0531
  0
LINE
  8
0
 10
135.562
 20
27.0531
 11
135.188
 21
27.0059
  0
LINE
  8
0
 10
135.188
 20
27.0059
 11
134.812
 21
27.0059
  0
LINE
  8
0
 10
-135.188
 20
27.0059
 11
-135.562
 21
27.0531
  0
LINE
  8
0
 10
-135.562
 20
27.0531
 11
-135.927
 21
27.1468
  0
LINE
  8
0
 10
-135.927
 20
27.1468
 11
-136.277
 21
27.2855
  0
LINE
  8
0
 10
-136.277
 20
27.2855
 11
-136.607
 21
27.467
  0
LINE
  8
0
 10
-136.607
 20
27.467
 11
-136.912
 21
27.6884
  0
LINE
  8
0
 10
-136.912
 20
27.6884
 11
-137.187
 21
27.9464
  0
LINE
  8
0
 10
-137.187
 20
27.9464
 11
-137.427
 21
28.2366
  0
LINE
  8
0
 10
-137.427
 20
28.2366
 11
-137.629
 21
28.5547
  0
LINE
  8
0
 10
-137.629
 20
28.5547
 11
-137.789
 21
28.8956
  0
LINE
  8
0
 10
-137.789
 20
28.8956
 11
-137.906
 21
29.2539
  0
LINE
  8
0
 10
-137.906
 20
29.2539
 11
-137.976
 21
29.624
  0
LINE
  8
0
 10
-137.976
 20
29.624
 11
-138
 21
30
  0
LINE
  8
0
 10
-138
 20
30
 11
-137.976
 21
30.376
  0
LINE
  8
0
 10
-137.976
 20
30.376
 11
-137.906
 21
30.7461
  0
LINE
  8
0
 10
-137.906
 20
30.7461
 11
-137.789
 21
31.1044
  0
LINE
  8
0
 10
-137.789
 20
31.1044
 11
-137.629
 21
31.4453
  0
LINE
  8
0
 10
-137.629
 20
31.4453
 11
-137.427
 21
31.7634
  0
LINE
  8
0
 10
-137.427
 20
31.7634
 11
-137.187
 21
32.0536
  0
LINE
  8
0
 10
-137.187
 20
32.0536
 11
-136.912
 21
32.3115
  0
LINE
  8
0
 10
-136.912
 20
32.3115
 11
-136.607
 21
32.533
  0
LINE
  8
0
 10
-136.607
 20
32.533
 11
-136.277
 21
32.7145
  0
LINE
  8
0
 10
-136.277
 20
32.7145
 11
-135.927
 21
32.8532
  0
LINE
  8
0
 10
-135.927
 20
32.8532
 11
-135.562
 21
32.9469
  0
LINE
  8
0
 10
-135.562
 20
32.9469
 11
-135.188
 21
32.9941
  0
LINE
  8
0
 10
-135.188
 20
32.9941
 11
-134.812
 21
32.9941
  0
LINE
  8
0
 10
-134.812
 20
32.9941
 11
-134.438
 21
32.9469
  0
LINE
  8
0
 10
-134.438
 20
32.9469
 11
-134.073
 21
32.8532
  0
LINE
  8
0
 10
-134.073
 20
32.8532
 11
-133.723
 21
32.7145
  0
LINE
  8
0
 10
-133.723
 20
32.7145
 11
-133.393
 21
32.533
  0
LINE
  8
0
 10
-133.393
 20
32.533
 11
-133.088
 21
32.3115
  0
LINE
  8
0
 10
-133.088
 20
32.3115
 11
-132.813
 21
32.0536
  0
LINE
  8
0
 10
-132.813
 20
32.0536
 11
-132.573
 21
31.7634
  0
LINE
  8
0
 10
-132.573
 20
31.7634
 11
-132.371
 21
31.4453
  0
LINE
  8
0
 10
-132.371
 20
31.4453
 11
-132.211
 21
31.1044
  0
LINE
  8
0
 10
-132.211
 20
31.1044
 11
-132.094
 21
30.7461
  0
LINE
  8
0
 10
-132.094
 20
30.7461
 11
-132.024
 21
30.376
  0
LINE
  8
0
 10
-132.024
 20
30.376
 11
-132
 21
30
  0
LINE
  8
0
 10
-132
 20
30
 11
-132.024
 21
29.624
  0
LINE
  8
0
 10
-132.024
 20
29.624
 11
-132.094
 21
29.2539
  0
LINE
  8
0
 10
-132.094
 20
29.2539
 11
-132.211
 21
28.8956
  0
LINE
  8
0
 10
-132.211
 20
28.8956
 11
-132.371
 21
28.5547
  0
LINE
  8
0
 10
-132.371
 20
28.5547
 11
-132.573
 21
28.2366
  0
LINE
  8
0
 10
-132.573
 20
28.2366
 11
-132.813
 21
27.9464
  0
LINE
  8
0
 10
-132.813
 20
27.9464
 11
-133.088
 21
27.6884
  0
LINE
  8
0
 10
-133.088
 20
27.6884
 11
-133.393
 21
27.467
  0
LINE
  8
0
 10
-133.393
 20
27.467
 11
-133.723
 21
27.2855
  0
LINE
  8
0
 10
-133.723
 20
27.2855
 11
-134.073
 21
27.1468
  0
LINE
  8
0
 10
-134.073
 20
27.1468
 11
-134.438
 21
27.0531
  0
LINE
  8
0
 10
-134.438
 20
27.0531
 11
-134.812
 21
27.0059
  0
LINE
  8
0
 10
-134.812
 20
27.0059
 11
-135.188
 21
27.0059
  0
LINE
  8
0
 10
-135.094
 20
21.003
 11
-135.281
 21
21.0266
  0
LINE
  8
0
 10
-135.281
 20
21.0266
 11
-135.464
 21
21.0734
  0
LINE
  8
0
 10
-135.464
 20
21.0734
 11
-135.639
 21
21.1427
  0
LINE
  8
0
 10
-135.639
 20
21.1427
 11
-135.804
 21
21.2335
  0
LINE
  8
0
 10
-135.804
 20
21.2335
 11
-135.956
 21
21.3442
  0
LINE
  8
0
 10
-135.956
 20
21.3442
 11
-136.093
 21
21.4732
  0
LINE
  8
0
 10
-136.093
 20
21.4732
 11
-136.214
 21
21.6183
  0
LINE
  8
0
 10
-136.214
 20
21.6183
 11
-136.314
 21
21.7774
  0
LINE
  8
0
 10
-136.314
 20
21.7774
 11
-136.395
 21
21.9478
  0
LINE
  8
0
 10
-136.395
 20
21.9478
 11
-136.453
 21
22.127
  0
LINE
  8
0
 10
-136.453
 20
22.127
 11
-136.488
 21
22.312
  0
LINE
  8
0
 10
-136.488
 20
22.312
 11
-136.5
 21
22.5
  0
LINE
  8
0
 10
-136.5
 20
22.5
 11
-136.488
 21
22.688
  0
LINE
  8
0
 10
-136.488
 20
22.688
 11
-136.453
 21
22.873
  0
LINE
  8
0
 10
-136.453
 20
22.873
 11
-136.395
 21
23.0522
  0
LINE
  8
0
 10
-136.395
 20
23.0522
 11
-136.314
 21
23.2226
  0
LINE
  8
0
 10
-136.314
 20
23.2226
 11
-136.214
 21
23.3817
  0
LINE
  8
0
 10
-136.214
 20
23.3817
 11
-136.093
 21
23.5268
  0
LINE
  8
0
 10
-136.093
 20
23.5268
 11
-135.956
 21
23.6558
  0
LINE
  8
0
 10
-135.956
 20
23.6558
 11
-135.804
 21
23.7665
  0
LINE
  8
0
 10
-135.804
 20
23.7665
 11
-135.639
 21
23.8572
  0
LINE
  8
0
 10
-135.639
 20
23.8572
 11
-135.464
 21
23.9266
  0
LINE
  8
0
 10
-135.464
 20
23.9266
 11
-135.281
 21
23.9734
  0
LINE
  8
0
 10
-135.281
 20
23.9734
 11
-135.094
 21
23.997
  0
LINE
  8
0
 10
-135.094
 20
23.997
 11
-134.906
 21
23.997
  0
LINE
  8
0
 10
-134.906
 20
23.997
 11
-134.719
 21
23.9734
  0
LINE
  8
0
 10
-134.719
 20
23.9734
 11
-134.536
 21
23.9266
  0
LINE
  8
0
 10
-134.536
 20
23.9266
 11
-134.361
 21
23.8572
  0
LINE
  8
0
 10
-134.361
 20
23.8572
 11
-134.196
 21
23.7665
  0
LINE
  8
0
 10
-134.196
 20
23.7665
 11
-134.044
 21
23.6558
  0
LINE
  8
0
 10
-134.044
 20
23.6558
 11
-133.907
 21
23.5268
  0
LINE
  8
0
 10
-133.907
 20
23.5268
 11
-133.786
 21
23.3817
  0
LINE
  8
0
 10
-133.786
 20
23.3817
 11
-133.686
 21
23.2226
  0
LINE
  8
0
 10
-133.686
 20
23.2226
 11
-133.605
 21
23.0522
  0
LINE
  8
0
 10
-133.605
 20
23.0522
 11
-133.547
 21
22.873
  0
LINE
  8
0
 10
-133.547
 20
22.873
 11
-133.512
 21
22.688
  0
LINE
  8
0
 10
-133.512
 20
22.688
 11
-133.5
 21
22.5
  0
LINE
  8
0
 10
-133.5
 20
22.5
 11
-133.512
 21
22.312
  0
LINE
  8
0
 10
-133.512
 20
22.312
 11
-133.547
 21
22.127
  0
LINE
  8
0
 10
-133.547
 20
22.127
 11
-133.605
 21
21.9478
  0
LINE
  8
0
 10
-133.605
 20
21.9478
 11
-133.686
 21
21.7774
  0
LINE
  8
0
 10
-133.686
 20
21.7774
 11
-133.786
 21
21.6183
  0
LINE
  8
0
 10
-133.786
 20
21.6183
 11
-133.907
 21
21.4732
  0
LINE
  8
0
 10
-133.907
 20
21.4732
 11
-134.044
 21
21.3442
  0
LINE
  8
0
 10
-134.044
 20
21.3442
 11
-134.196
 21
21.2335
  0
LINE
  8
0
 10
-134.196
 20
21.2335
 11
-134.361
 21
21.1427
  0
LINE
  8
0
 10
-134.361
 20
21.1427
 11
-134.536
 21
21.0734
  0
LINE
  8
0
 10
-134.536
 20
21.0734
 11
-134.719
 21
21.0266
  0
LINE
  8
0
 10
-134.719
 20
21.0266
 11
-134.906
 21
21.003
  0
LINE
  8
0
 10
-134.906
 20
21.003
 11
-135.094
 21
21.003
  0
LINE
  8
0
 10
134.906
 20
21.003
 11
134.719
 21
21.0266
  0
LINE
  8
0
 10
134.719
 20
21.0266
 11
134.536
 21
21.0734
  0
LINE
  8
0
 10
134.536
 20
21.0734
 11
134.361
 21
21.1427
  0
LINE
  8
0
 10
134.361
 20
21.1427
 11
134.196
 21
21.2335
  0
LINE
  8
0
 10
134.196
 20
21.2335
 11
134.044
 21
21.3442
  0
LINE
  8
0
 10
134.044
 20
21.3442
 11
133.907
 21
21.4732
  0
LINE
  8
0
 10
133.907
 20
21.4732
 11
133.786
 21
21.6183
  0
LINE
  8
0
 10
133.786
 20
21.6183
 11
133.686
 21
21.7774
  0
LINE
  8
0
 10
133.686
 20
21.7774
 11
133.605
 21
21.9478
  0
LINE
  8
0
 10
133.605
 20
21.9478
 11
133.547
 21
22.127
  0
LINE
  8
0
 10
133.547
 20
22.127
 11
133.512
 21
22.312
  0
LINE
  8
0
 10
133.512
 20
22.312
 11
133.5
 21
22.5
  0
LINE
  8
0
 10
133.5
 20
22.5
 11
133.512
 21
22.688
  0
LINE
  8
0
 10
133.512
 20
22.688
 11
133.547
 21
22.873
  0
LINE
  8
0
 10
133.547
 20
22.873
 11
133.605
 21
23.0522
  0
LINE
  8
0
 10
133.605
 20
23.0522
 11
133.686
 21
23.2226
  0
LINE
  8
0
 10
133.686
 20
23.2226
 11
133.786
 21
23.3817
  0
LINE
  8
0
 10
133.786
 20
23.3817
 11
133.907
 21
23.5268
  0
LINE
  8
0
 10
133.907
 20
23.5268
 11
134.044
 21
23.6558
  0
LINE
  8
0
 10
134.044
 20
23.6558
 11
134.196
 21
23.7665
  0
LINE
  8
0
 10
134.196
 20
23.7665
 11
134.361
 21
23.8572
  0
LINE
  8
0
 10
134.361
 20
23.8572
 11
134.536
 21
23.9266
  0
LINE
  8
0
 10
134.536
 20
23.9266
 11
134.719
 21
23.9734
  0
LINE
  8
0
 10
134.719
 20
23.9734
 11
134.906
 21
23.997
  0
LINE
  8
0
 10
134.906
 20
23.997
 11
135.094
 21
23.997
  0
LINE
  8
0
 10
135.094
 20
23.997
 11
135.281
 21
23.9734
  0
LINE
  8
0
 10
135.281
 20
23.9734
 11
135.464
 21
23.9266
  0
LINE
  8
0
 10
135.464
 20
23.9266
 11
135.639
 21
23.8572
  0
LINE
  8
0
 10
135.639
 20
23.8572
 11
135.804
 21
23.7665
  0
LINE
  8
0
 10
135.804
 20
23.7665
 11
135.956
 21
23.6558
  0
LINE
  8
0
 10
135.956
 20
23.6558
 11
136.093
 21
23.5268
  0
LINE
  8
0
 10
136.093
 20
23.5268
 11
136.214
 21
23.3817
  0
LINE
  8
0
 10
136.214
 20
23.3817
 11
136.314
 21
23.2226
  0
LINE
  8
0
 10
136.314
 20
23.2226
 11
136.395
 21
23.0522
  0
LINE
  8
0
 10
136.395
 20
23.0522
 11
136.453
 21
22.873
  0
LINE
  8
0
 10
136.453
 20
22.873
 11
136.488
 21
22.688
  0
LINE
  8
0
 10
136.488
 20
22.688
 11
136.5
 21
22.5
  0
LINE
  8
0
 10
136.5
 20
22.5
 11
136.488
 21
22.312
  0
LINE
  8
0
 10
136.488
 20
22.312
 11
136.453
 21
22.127
  0
LINE
  8
0
 10
136.453
 20
22.127
 11
136.395
 21
21.9478
  0
LINE
  8
0
 10
136.395
 20
21.9478
 11
136.314
 21
21.7774
  0
LINE
  8
0
 10
136.314
 20
21.7774
 11
136.214
 21
21.6183
  0
LINE
  8
0
 10
136.214
 20
21.6183
 11
136.093
 21
21.4732
  0
LINE
  8
0
 10
136.093
 20
21.4732
 11
135.956
 21
21.3442
  0
LINE
  8
0
 10
135.956
 20
21.3442
 11
135.804
 21
21.2335
  0
LINE
  8
0
 10
135.804
 20
21.2335
 11
135.639
 21
21.1427
  0
LINE
  8
0
 10
135.639
 20
21.1427
 11
135.464
 21
21.0734
  0
LINE
  8
0
 10
135.464
 20
21.0734
 11
135.281
 21
21.0266
  0
LINE
  8
0
 10
135.281
 20
21.0266
 11
135.094
 21
21.003
  0
LINE
  8
0
 10
135.094
 20
21.003
 11
134.906
 21
21.003
  0
LINE
  8
0
 10
-135.188
 20
12.0059
 11
-135.562
 21
12.0531
  0
LINE
  8
0
 10
-135.562
 20
12.0531
 11
-135.927
 21
12.1468
  0
LINE
  8
0
 10
-135.927
 20
12.1468
 11
-136.277
 21
12.2855
  0
LINE
  8
0
 10
-136.277
 20
12.2855
 11
-136.607
 21
12.467
  0
LINE
  8
0
 10
-136.607
 20
12.467
 11
-136.912
 21
12.6884
  0
LINE
  8
0
 10
-136.912
 20
12.6884
 11
-137.187
 21
12.9464
  0
LINE
  8
0
 10
-137.187
 20
12.9464
 11
-137.427
 21
13.2366
  0
LINE
  8
0
 10
-137.427
 20
13.2366
 11
-137.629
 21
13.5547
  0
LINE
  8
0
 10
-137.629
 20
13.5547
 11
-137.789
 21
13.8956
  0
LINE
  8
0
 10
-137.789
 20
13.8956
 11
-137.906
 21
14.2539
  0
LINE
  8
0
 10
-137.906
 20
14.2539
 11
-137.976
 21
14.624
  0
LINE
  8
0
 10
-137.976
 20
14.624
 11
-138
 21
15
  0
LINE
  8
0
 10
-138
 20
15
 11
-137.976
 21
15.376
  0
LINE
  8
0
 10
-137.976
 20
15.376
 11
-137.906
 21
15.7461
  0
LINE
  8
0
 10
-137.906
 20
15.7461
 11
-137.789
 21
16.1044
  0
LINE
  8
0
 10
-137.789
 20
16.1044
 11
-137.629
 21
16.4453
  0
LINE
  8
0
 10
-137.629
 20
16.4453
 11
-137.427
 21
16.7634
  0
LINE
  8
0
 10
-137.427
 20
16.7634
 11
-137.187
 21
17.0536
  0
LINE
  8
0
 10
-137.187
 20
17.0536
 11
-136.912
 21
17.3115
  0
LINE
  8
0
 10
-136.912
 20
17.3115
 11
-136.607
 21
17.533
  0
LINE
  8
0
 10
-136.607
 20
17.533
 11
-136.277
 21
17.7145
  0
LINE
  8
0
 10
-136.277
 20
17.7145
 11
-135.927
 21
17.8532
  0
LINE
  8
0
 10
-135.927
 20
17.8532
 11
-135.562
 21
17.9469
  0
LINE
  8
0
 10
-135.562
 20
17.9469
 11
-135.188
 21
17.9941
  0
LINE
  8
0
 10
-135.188
 20
17.9941
 11
-134.812
 21
17.9941
  0
LINE
  8
0
 10
-134.812
 20
17.9941
 11
-134.438
 21
17.9469
  0
LINE
  8
0
 10
-134.438
 20
17.9469
 11
-134.073
 21
17.8532
  0
LINE
  8
0
 10
-134.073
 20
17.8532
 11
-133.723
 21
17.7145
  0
LINE
  8
0
 10
-133.723
 20
17.7145
 11
-133.393
 21
17.533
  0
LINE
  8
0
 10
-133.393
 20
17.533
 11
-133.088
 21
17.3115
  0
LINE
  8
0
 10
-133.088
 20
17.3115
 11
-132.813
 21
17.0536
  0
LINE
  8
0
 10
-132.813
 20
17.0536
 11
-132.573
 21
16.7634
  0
LINE
  8
0
 10
-132.573
 20
16.7634
 11
-132.371
 21
16.4453
  0
LINE
  8
0
 10
-132.371
 20
16.4453
 11
-132.211
 21
16.1044
  0
LINE
  8
0
 10
-132.211
 20
16.1044
 11
-132.094
 21
15.7461
  0
LINE
  8
0
 10
-132.094
 20
15.7461
 11
-132.024
 21
15.376
  0
LINE
  8
0
 10
-132.024
 20
15.376
 11
-132
 21
15
  0
LINE
  8
0
 10
-132
 20
15
 11
-132.024
 21
14.624
  0
LINE
  8
0
 10
-132.024
 20
14.624
 11
-132.094
 21
14.2539
  0
LINE
  8
0
 10
-132.094
 20
14.2539
 11
-132.211
 21
13.8956
  0
LINE
  8
0
 10
-132.211
 20
13.8956
 11
-132.371
 21
13.5547
  0
LINE
  8
0
 10
-132.371
 20
13.5547
 11
-132.573
 21
13.2366
  0
LINE
  8
0
 10
-132.573
 20
13.2366
 11
-132.813
 21
12.9464
  0
LINE
  8
0
 10
-132.813
 20
12.9464
 11
-133.088
 21
12.6884
  0
LINE
  8
0
 10
-133.088
 20
12.6884
 11
-133.393
 21
12.467
  0
LINE
  8
0
 10
-133.393
 20
12.467
 11
-133.723
 21
12.2855
  0
LINE
  8
0
 10
-133.723
 20
12.2855
 11
-134.073
 21
12.1468
  0
LINE
  8
0
 10
-134.073
 20
12.1468
 11
-134.438
 21
12.0531
  0
LINE
  8
0
 10
-134.438
 20
12.0531
 11
-134.812
 21
12.0059
  0
LINE
  8
0
 10
-134.812
 20
12.0059
 11
-135.188
 21
12.0059
  0
LINE
  8
0
 10
134.812
 20
12.0059
 11
134.438
 21
12.0531
  0
LINE
  8
0
 10
134.438
 20
12.0531
 11
134.073
 21
12.1468
  0
LINE
  8
0
 10
134.073
 20
12.1468
 11
133.723
 21
12.2855
  0
LINE
  8
0
 10
133.723
 20
12.2855
 11
133.393
 21
12.467
  0
LINE
  8
0
 10
133.393
 20
12.467
 11
133.088
 21
12.6884
  0
LINE
  8
0
 10
133.088
 20
12.6884
 11
132.813
 21
12.9464
  0
LINE
  8
0
 10
132.813
 20
12.9464
 11
132.573
 21
13.2366
  0
LINE
  8
0
 10
132.573
 20
13.2366
 11
132.371
 21
13.5547
  0
LINE
  8
0
 10
132.371
 20
13.5547
 11
132.211
 21
13.8956
  0
LINE
  8
0
 10
132.211
 20
13.8956
 11
132.094
 21
14.2539
  0
LINE
  8
0
 10
132.094
 20
14.2539
 11
132.024
 21
14.624
  0
LINE
  8
0
 10
132.024
 20
14.624
 11
132
 21
15
  0
LINE
  8
0
 10
132
 20
15
 11
132.024
 21
15.376
  0
LINE
  8
0
 10
132.024
 20
15.376
 11
132.094
 21
15.7461
  0
LINE
  8
0
 10
132.094
 20
15.7461
 11
132.211
 21
16.1044
  0
LINE
  8
0
 10
132.211
 20
16.1044
 11
132.371
 21
16.4453
  0
LINE
  8
0
 10
132.371
 20
16.4453
 11
132.573
 21
16.7634
  0
LINE
  8
0
 10
132.573
 20
16.7634
 11
132.813
 21
17.0536
  0
LINE
  8
0
 10
132.813
 20
17.0536
 11
133.088
 21
17.3115
  0
LINE
  8
0
 10
133.088
 20
17.3115
 11
133.393
 21
17.533
  0
LINE
  8
0
 10
133.393
 20
17.533
 11
133.723
 21
17.7145
  0
LINE
  8
0
 10
133.723
 20
17.7145
 11
134.073
 21
17.8532
  0
LINE
  8
0
 10
134.073
 20
17.8532
 11
134.438
 21
17.9469
  0
LINE
  8
0
 10
134.438
 20
17.9469
 11
134.812
 21
17.9941
  0
LINE
  8
0
 10
134.812
 20
17.9941
 11
135.188
 21
17.9941
  0
LINE
  8
0
 10
135.188
 20
17.9941
 11
135.562
 21
17.9469
  0
LINE
  8
0
 10
135.562
 20
17.9469
 11
135.927
 21
17.8532
  0
LINE
  8
0
 10
135.927
 20
17.8532
 11
136.277
 21
17.7145
  0
LINE
  8
0
 10
136.277
 20
17.7145
 11
136.607
 21
17.533
  0
LINE
  8
0
 10
136.607
 20
17.533
 11
136.912
 21
17.3115
  0
LINE
  8
0
 10
136.912
 20
17.3115
 11
137.187
 21
17.0536
  0
LINE
  8
0
 10
137.187
 20
17.0536
 11
137.427
 21
16.7634
  0
LINE
  8
0
 10
137.427
 20
16.7634
 11
137.629
 21
16.4453
  0
LINE
  8
0
 10
137.629
 20
16.4453
 11
137.789
 21
16.1044
  0
LINE
  8
0
 10
137.789
 20
16.1044
 11
137.906
 21
15.7461
  0
LINE
  8
0
 10
137.906
 20
15.7461
 11
137.976
 21
15.376
  0
LINE
  8
0
 10
137.976
 20
15.376
 11
138
 21
15
  0
LINE
  8
0
 10
138
 20
15
 11
137.976
 21
14.624
  0
LINE
  8
0
 10
137.976
 20
14.624
 11
137.906
 21
14.2539
  0
LINE
  8
0
 10
137.906
 20
14.2539
 11
137.789
 21
13.8956
  0
LINE
  8
0
 10
137.789
 20
13.8956
 11
137.629
 21
13.5547
  0
LINE
  8
0
 10
137.629
 20
13.5547
 11
137.427
 21
13.2366
  0
LINE
  8
0
 10
137.427
 20
13.2366
 11
137.187
 21
12.9464
  0
LINE
  8
0
 10
137.187
 20
12.9464
 11
136.912
 21
12.6884
  0
LINE
  8
0
 10
136.912
 20
12.6884
 11
136.607
 21
12.467
  0
LINE
  8
0
 10
136.607
 20
12.467
 11
136.277
 21
12.2855
  0
LINE
  8
0
 10
136.277
 20
12.2855
 11
135.927
 21
12.1468
  0
LINE
  8
0
 10
135.927
 20
12.1468
 11
135.562
 21
12.0531
  0
LINE
  8
0
 10
135.562
 20
12.0531
 11
135.188
 21
12.0059
  0
LINE
  8
0
 10
135.188
 20
12.0059
 11
134.812
 21
12.0059
  0
LINE
  8
0
 10
134.906
 20
6.00294
 11
134.719
 21
6.02657
  0
LINE
  8
0
 10
134.719
 20
6.02657
 11
134.536
 21
6.07341
  0
LINE
  8
0
 10
134.536
 20
6.07341
 11
134.361
 21
6.14275
  0
LINE
  8
0
 10
134.361
 20
6.14275
 11
134.196
 21
6.23351
  0
LINE
  8
0
 10
134.196
 20
6.23351
 11
134.044
 21
6.34422
  0
LINE
  8
0
 10
134.044
 20
6.34422
 11
133.907
 21
6.47318
  0
LINE
  8
0
 10
133.907
 20
6.47318
 11
133.786
 21
6.61832
  0
LINE
  8
0
 10
133.786
 20
6.61832
 11
133.686
 21
6.77736
  0
LINE
  8
0
 10
133.686
 20
6.77736
 11
133.605
 21
6.9478
  0
LINE
  8
0
 10
133.605
 20
6.9478
 11
133.547
 21
7.12695
  0
LINE
  8
0
 10
133.547
 20
7.12695
 11
133.512
 21
7.312
  0
LINE
  8
0
 10
133.512
 20
7.312
 11
133.5
 21
7.5
  0
LINE
  8
0
 10
133.5
 20
7.5
 11
133.512
 21
7.68799
  0
LINE
  8
0
 10
133.512
 20
7.68799
 11
133.547
 21
7.87303
  0
LINE
  8
0
 10
133.547
 20
7.87303
 11
133.605
 21
8.05219
  0
LINE
  8
0
 10
133.605
 20
8.05219
 11
133.686
 21
8.22263
  0
LINE
  8
0
 10
133.686
 20
8.22263
 11
133.786
 21
8.38167
  0
LINE
  8
0
 10
133.786
 20
8.38167
 11
133.907
 21
8.52681
  0
LINE
  8
0
 10
133.907
 20
8.52681
 11
134.044
 21
8.65576
  0
LINE
  8
0
 10
134.044
 20
8.65576
 11
134.196
 21
8.76648
  0
LINE
  8
0
 10
134.196
 20
8.76648
 11
134.361
 21
8.85724
  0
LINE
  8
0
 10
134.361
 20
8.85724
 11
134.536
 21
8.92657
  0
LINE
  8
0
 10
134.536
 20
8.92657
 11
134.719
 21
8.97342
  0
LINE
  8
0
 10
134.719
 20
8.97342
 11
134.906
 21
8.99704
  0
LINE
  8
0
 10
134.906
 20
8.99704
 11
135.094
 21
8.99704
  0
LINE
  8
0
 10
135.094
 20
8.99704
 11
135.281
 21
8.97342
  0
LINE
  8
0
 10
135.281
 20
8.97342
 11
135.464
 21
8.92657
  0
LINE
  8
0
 10
135.464
 20
8.92657
 11
135.639
 21
8.85724
  0
LINE
  8
0
 10
135.639
 20
8.85724
 11
135.804
 21
8.76648
  0
LINE
  8
0
 10
135.804
 20
8.76648
 11
135.956
 21
8.65576
  0
LINE
  8
0
 10
135.956
 20
8.65576
 11
136.093
 21
8.52681
  0
LINE
  8
0
 10
136.093
 20
8.52681
 11
136.214
 21
8.38167
  0
LINE
  8
0
 10
136.214
 20
8.38167
 11
136.314
 21
8.22263
  0
LINE
  8
0
 10
136.314
 20
8.22263
 11
136.395
 21
8.05219
  0
LINE
  8
0
 10
136.395
 20
8.05219
 11
136.453
 21
7.87303
  0
LINE
  8
0
 10
136.453
 20
7.87303
 11
136.488
 21
7.68799
  0
LINE
  8
0
 10
136.488
 20
7.68799
 11
136.5
 21
7.5
  0
LINE
  8
0
 10
136.5
 20
7.5
 11
136.488
 21
7.312
  0
LINE
  8
0
 10
136.488
 20
7.312
 11
136.453
 21
7.12695
  0
LINE
  8
0
 10
136.453
 20
7.12695
 11
136.395
 21
6.9478
  0
LINE
  8
0
 10
136.395
 20
6.9478
 11
136.314
 21
6.77736
  0
LINE
  8
0
 10
136.314
 20
6.77736
 11
136.214
 21
6.61832
  0
LINE
  8
0
 10
136.214
 20
6.61832
 11
136.093
 21
6.47318
  0
LINE
  8
0
 10
136.093
 20
6.47318
 11
135.956
 21
6.34422
  0
LINE
  8
0
 10
135.956
 20
6.34422
 11
135.804
 21
6.23351
  0
LINE
  8
0
 10
135.804
 20
6.23351
 11
135.639
 21
6.14275
  0
LINE
  8
0
 10
135.639
 20
6.14275
 11
135.464
 21
6.07341
  0
LINE
  8
0
 10
135.464
 20
6.07341
 11
135.281
 21
6.02657
  0
LINE
  8
0
 10
135.281
 20
6.02657
 11
135.094
 21
6.00294
  0
LINE
  8
0
 10
135.094
 20
6.00294
 11
134.906
 21
6.00294
  0
LINE
  8
0
 10
-135.094
 20
6.00294
 11
-135.281
 21
6.02657
  0
LINE
  8
0
 10
-135.281
 20
6.02657
 11
-135.464
 21
6.07341
  0
LINE
  8
0
 10
-135.464
 20
6.07341
 11
-135.639
 21
6.14275
  0
LINE
  8
0
 10
-135.639
 20
6.14275
 11
-135.804
 21
6.23351
  0
LINE
  8
0
 10
-135.804
 20
6.23351
 11
-135.956
 21
6.34422
  0
LINE
  8
0
 10
-135.956
 20
6.34422
 11
-136.093
 21
6.47318
  0
LINE
  8
0
 10
-136.093
 20
6.47318
 11
-136.214
 21
6.61832
  0
LINE
  8
0
 10
-136.214
 20
6.61832
 11
-136.314
 21
6.77736
  0
LINE
  8
0
 10
-136.314
 20
6.77736
 11
-136.395
 21
6.9478
  0
LINE
  8
0
 10
-136.395
 20
6.9478
 11
-136.453
 21
7.12695
  0
LINE
  8
0
 10
-136.453
 20
7.12695
 11
-136.488
 21
7.312
  0
LINE
  8
0
 10
-136.488
 20
7.312
 11
-136.5
 21
7.5
  0
LINE
  8
0
 10
-136.5
 20
7.5
 11
-136.488
 21
7.68799
  0
LINE
  8
0
 10
-136.488
 20
7.68799
 11
-136.453
 21
7.87303
  0
LINE
  8
0
 10
-136.453
 20
7.87303
 11
-136.395
 21
8.05219
  0
LINE
  8
0
 10
-136.395
 20
8.05219
 11
-136.314
 21
8.22263
  0
LINE
  8
0
 10
-136.314
 20
8.22263
 11
-136.214
 21
8.38167
  0
LINE
  8
0
 10
-136.214
 20
8.38167
 11
-136.093
 21
8.52681
  0
LINE
  8
0
 10
-136.093
 20
8.52681
 11
-135.956
 21
8.65576
  0
LINE
  8
0
 10
-135.956
 20
8.65576
 11
-135.804
 21
8.76648
  0
LINE
  8
0
 10
-135.804
 20
8.76648
 11
-135.639
 21
8.85724
  0
LINE
  8
0
 10
-135.639
 20
8.85724
 11
-135.464
 21
8.92657
  0
LINE
  8
0
 10
-135.464
 20
8.92657
 11
-135.281
 21
8.97342
  0
LINE
  8
0
 10
-135.281
 20
8.97342
 11
-135.094
 21
8.99704
  0
LINE
  8
0
 10
-135.094
 20
8.99704
 11
-134.906
 21
8.99704
  0
LINE
  8
0
 10
-134.906
 20
8.99704
 11
-134.719
 21
8.97342
  0
LINE
  8
0
 10
-134.719
 20
8.97342
 11
-134.536
 21
8.92657
  0
LINE
  8
0
 10
-134.536
 20
8.92657
 11
-134.361
 21
8.85724
  0
LINE
  8
0
 10
-134.361
 20
8.85724
 11
-134.196
 21
8.76648
  0
LINE
  8
0
 10
-134.196
 20
8.76648
 11
-134.044
 21
8.65576
  0
LINE
  8
0
 10
-134.044
 20
8.65576
 11
-133.907
 21
8.52681
  0
LINE
  8
0
 10
-133.907
 20
8.52681
 11
-133.786
 21
8.38167
  0
LINE
  8
0
 10
-133.786
 20
8.38167
 11
-133.686
 21
8.22263
  0
LINE
  8
0
 10
-133.686
 20
8.22263
 11
-133.605
 21
8.05219
  0
LINE
  8
0
 10
-133.605
 20
8.05219
 11
-133.547
 21
7.87303
  0
LINE
  8
0
 10
-133.547
 20
7.87303
 11
-133.512
 21
7.68799
  0
LINE
  8
0
 10
-133.512
 20
7.68799
 11
-133.5
 21
7.5
  0
LINE
  8
0
 10
-133.5
 20
7.5
 11
-133.512
 21
7.312
  0
LINE
  8
0
 10
-133.512
 20
7.312
 11
-133.547
 21
7.12695
  0
LINE
  8
0
 10
-133.547
 20
7.12695
 11
-133.605
 21
6.9478
  0
LINE
  8
0
 10
-133.605
 20
6.9478
 11
-133.686
 21
6.77736
  0
LINE
  8
0
 10
-133.686
 20
6.77736
 11
-133.786
 21
6.61832
  0
LINE
  8
0
 10
-133.786
 20
6.61832
 11
-133.907
 21
6.47318
  0
LINE
  8
0
 10
-133.907
 20
6.47318
 11
-134.044
 21
6.34422
  0
LINE
  8
0
 10
-134.044
 20
6.34422
 11
-134.196
 21
6.23351
  0
LINE
  8
0
 10
-134.196
 20
6.23351
 11
-134.361
 21
6.14275
  0
LINE
  8
0
 10
-134.361
 20
6.14275
 11
-134.536
 21
6.07341
  0
LINE
  8
0
 10
-134.536
 20
6.07341
 11
-134.719
 21
6.02657
  0
LINE
  8
0
 10
-134.719
 20
6.02657
 11
-134.906
 21
6.00294
  0
LINE
  8
0
 10
-134.906
 20
6.00294
 11
-135.094
 21
6.00294
  0
LINE
  8
0
 10
-135.188
 20
-2.99408
 11
-135.562
 21
-2.94685
  0
LINE
  8
0
 10
-135.562
 20
-2.94685
 11
-135.927
 21
-2.85316
  0
LINE
  8
0
 10
-135.927
 20
-2.85316
 11
-136.277
 21
-2.71448
  0
LINE
  8
0
 10
-136.277
 20
-2.71448
 11
-136.607
 21
-2.53297
  0
LINE
  8
0
 10
-136.607
 20
-2.53297
 11
-136.912
 21
-2.31154
  0
LINE
  8
0
 10
-136.912
 20
-2.31154
 11
-137.187
 21
-2.05363
  0
LINE
  8
0
 10
-137.187
 20
-2.05363
 11
-137.427
 21
-1.76335
  0
LINE
  8
0
 10
-137.427
 20
-1.76335
 11
-137.629
 21
-1.44525
  0
LINE
  8
0
 10
-137.629
 20
-1.44525
 11
-137.789
 21
-1.10437
  0
LINE
  8
0
 10
-137.789
 20
-1.10437
 11
-137.906
 21
-0.746063
  0
LINE
  8
0
 10
-137.906
 20
-0.746063
 11
-137.976
 21
-0.375992
  0
LINE
  8
0
 10
-137.976
 20
-0.375992
 11
-138
 21
0
  0
LINE
  8
0
 10
-138
 20
0
 11
-137.976
 21
0.375992
  0
LINE
  8
0
 10
-137.976
 20
0.375992
 11
-137.906
 21
0.746063
  0
LINE
  8
0
 10
-137.906
 20
0.746063
 11
-137.789
 21
1.10437
  0
LINE
  8
0
 10
-137.789
 20
1.10437
 11
-137.629
 21
1.44525
  0
LINE
  8
0
 10
-137.629
 20
1.44525
 11
-137.427
 21
1.76335
  0
LINE
  8
0
 10
-137.427
 20
1.76335
 11
-137.187
 21
2.05363
  0
LINE
  8
0
 10
-137.187
 20
2.05363
 11
-136.912
 21
2.31154
  0
LINE
  8
0
 10
-136.912
 20
2.31154
 11
-136.607
 21
2.53297
  0
LINE
  8
0
 10
-136.607
 20
2.53297
 11
-136.277
 21
2.71448
  0
LINE
  8
0
 10
-136.277
 20
2.71448
 11
-135.927
 21
2.85316
  0
LINE
  8
0
 10
-135.927
 20
2.85316
 11
-135.562
 21
2.94685
  0
LINE
  8
0
 10
-135.562
 20
2.94685
 11
-135.188
 21
2.99408
  0
LINE
  8
0
 10
-135.188
 20
2.99408
 11
-134.812
 21
2.99408
  0
LINE
  8
0
 10
-134.812
 20
2.99408
 11
-134.438
 21
2.94685
  0
LINE
  8
0
 10
-134.438
 20
2.94685
 11
-134.073
 21
2.85316
  0
LINE
  8
0
 10
-134.073
 20
2.85316
 11
-133.723
 21
2.71448
  0
LINE
  8
0
 10
-133.723
 20
2.71448
 11
-133.393
 21
2.53297
  0
LINE
  8
0
 10
-133.393
 20
2.53297
 11
-133.088
 21
2.31154
  0
LINE
  8
0
 10
-133.088
 20
2.31154
 11
-132.813
 21
2.05363
  0
LINE
  8
0
 10
-132.813
 20
2.05363
 11
-132.573
 21
1.76335
  0
LINE
  8
0
 10
-132.573
 20
1.76335
 11
-132.371
 21
1.44525
  0
LINE
  8
0
 10
-132.371
 20
1.44525
 11
-132.211
 21
1.10437
  0
LINE
  8
0
 10
-132.211
 20
1.10437
 11
-132.094
 21
0.746063
  0
LINE
  8
0
 10
-132.094
 20
0.746063
 11
-132.024
 21
0.375992
  0
LINE
  8
0
 10
-132.024
 20
0.375992
 11
-132
 21
0
  0
LINE
  8
0
 10
-132
 20
0
 11
-132.024
 21
-0.375992
  0
LINE
  8
0
 10
-132.024
 20
-0.375992
 11
-132.094
 21
-0.746063
  0
LINE
  8
0
 10
-132.094
 20
-0.746063
 11
-132.211
 21
-1.10437
  0
LINE
  8
0
 10
-132.211
 20
-1.10437
 11
-132.371
 21
-1.44525
  0
LINE
  8
0
 10
-132.371
 20
-1.44525
 11
-132.573
 21
-1.76335
  0
LINE
  8
0
 10
-132.573
 20
-1.76335
 11
-132.813
 21
-2.05363
  0
LINE
  8
0
 10
-132.813
 20
-2.05363
 11
-133.088
 21
-2.31154
  0
LINE
  8
0
 10
-133.088
 20
-2.31154
 11
-133.393
 21
-2.53297
  0
LINE
  8
0
 10
-133.393
 20
-2.53297
 11
-133.723
 21
-2.71448
  0
LINE
  8
0
 10
-133.723
 20
-2.71448
 11
-134.073
 21
-2.85316
  0
LINE
  8
0
 10
-134.073
 20
-2.85316
 11
-134.438
 21
-2.94685
  0
LINE
  8
0
 10
-134.438
 20
-2.94685
 11
-134.812
 21
-2.99408
  0
LINE
  8
0
 10
-134.812
 20
-2.99408
 11
-135.188
 21
-2.99408
  0
LINE
  8
0
 10
134.812
 20
-2.99408
 11
134.438
 21
-2.94685
  0
LINE
  8
0
 10
134.438
 20
-2.94685
 11
134.073
 21
-2.85316
  0
LINE
  8
0
 10
134.073
 20
-2.85316
 11
133.723
 21
-2.71448
  0
LINE
  8
0
 10
133.723
 20
-2.71448
 11
133.393
 21
-2.53297
  0
LINE
  8
0
 10
133.393
 20
-2.53297
 11
133.088
 21
-2.31154
  0
LINE
  8
0
 10
133.088
 20
-2.31154
 11
132.813
 21
-2.05363
  0
LINE
  8
0
 10
132.813
 20
-2.05363
 11
132.573
 21
-1.76335
  0
LINE
  8
0
 10
132.573
 20
-1.76335
 11
132.371
 21
-1.44525
  0
LINE
  8
0
 10
132.371
 20
-1.44525
 11
132.211
 21
-1.10437
  0
LINE
  8
0
 10
132.211
 20
-1.10437
 11
132.094
 21
-0.746063
  0
LINE
  8
0
 10
132.094
 20
-0.746063
 11
132.024
 21
-0.375992
  0
LINE
  8
0
 10
132.024
 20
-0.375992
 11
132
 21
0
  0
LINE
  8
0
 10
132
 20
0
 11
132.024
 21
0.375992
  0
LINE
  8
0
 10
132.024
 20
0.375992
 11
132.094
 21
0.746063
  0
LINE
  8
0
 10
132.094
 20
0.746063
 11
132.211
 21
1.10437
  0
LINE
  8
0
 10
132.211
 20
1.10437
 11
132.371
 21
1.44525
  0
LINE
  8
0
 10
132.371
 20
1.44525
 11
132.573
 21
1.76335
  0
LINE
  8
0
 10
132.573
 20
1.76335
 11
132.813
 21
2.05363
  0
LINE
  8
0
 10
132.813
 20
2.05363
 11
133.088
 21
2.31154
  0
LINE
  8
0
 10
133.088
 20
2.31154
 11
133.393
 21
2.53297
  0
LINE
  8
0
 10
133.393
 20
2.53297
 11
133.723
 21
2.71448
  0
LINE
  8
0
 10
133.723
 20
2.71448
 11
134.073
 21
2.85316
  0
LINE
  8
0
 10
134.073
 20
2.85316
 11
134.438
 21
2.94685
  0
LINE
  8
0
 10
134.438
 20
2.94685
 11
134.812
 21
2.99408
  0
LINE
  8
0
 10
134.812
 20
2.99408
 11
135.188
 21
2.99408
  0
LINE
  8
0
 10
135.188
 20
2.99408
 11
135.562
 21
2.94685
  0
LINE
  8
0
 10
135.562
 20
2.94685
 11
135.927
 21
2.85316
  0
LINE
  8
0
 10
135.927
 20
2.85316
 11
136.277
 21
2.71448
  0
LINE
  8
0
 10
136.277
 20
2.71448
 11
136.607
 21
2.53297
  0
LINE
  8
0
 10
136.607
 20
2.53297
 11
136.912
 21
2.31154
  0
LINE
  8
0
 10
136.912
 20
2.31154
 11
137.187
 21
2.05363
  0
LINE
  8
0
 10
137.187
 20
2.05363
 11
137.427
 21
1.76335
  0
LINE
  8
0
 10
137.427
 20
1.76335
 11
137.629
 21
1.44525
  0
LINE
  8
0
 10
137.629
 20
1.44525
 11
137.789
 21
1.10437
  0
LINE
  8
0
 10
137.789
 20
1.10437
 11
137.906
 21
0.746063
  0
LINE
  8
0
 10
137.906
 20
0.746063
 11
137.976
 21
0.375992
  0
LINE
  8
0
 10
137.976
 20
0.375992
 11
138
 21
0
  0
LINE
  8
0
 10
138
 20
0
 11
137.976
 21
-0.375992
  0
LINE
  8
0
 10
137.976
 20
-0.375992
 11
137.906
 21
-0.746063
  0
LINE
  8
0
 10
137.906
 20
-0.746063
 11
137.789
 21
-1.10437
  0
LINE
  8
0
 10
137.789
 20
-1.10437
 11
137.629
 21
-1.44525
  0
LINE
  8
0
 10
137.629
 20
-1.44525
 11
137.427
 21
-1.76335
  0
LINE
  8
0
 10
137.427
 20
-1.76335
 11
137.187
 21
-2.05363
  0
LINE
  8
0
 10
137.187
 20
-2.05363
 11
136.912
 21
-2.31154
  0
LINE
  8
0
 10
136.912
 20
-2.31154
 11
136.607
 21
-2.53297
  0
LINE
  8
0
 10
136.607
 20
-2.53297
 11
136.277
 21
-2.71448
  0
LINE
  8
0
 10
136.277
 20
-2.71448
 11
135.927
 21
-2.85316
  0
LINE
  8
0
 10
135.927
 20
-2.85316
 11
135.562
 21
-2.94685
  0
LINE
  8
0
 10
135.562
 20
-2.94685
 11
135.188
 21
-2.99408
  0
LINE
  8
0
 10
135.188
 20
-2.99408
 11
134.812
 21
-2.99408
  0
LINE
  8
0
 10
-135.094
 20
-8.99704
 11
-135.281
 21
-8.97342
  0
LINE
  8
0
 10
-135.281
 20
-8.97342
 11
-135.464
 21
-8.92657
  0
LINE
  8
0
 10
-135.464
 20
-8.92657
 11
-135.639
 21
-8.85724
  0
LINE
  8
0
 10
-135.639
 20
-8.85724
 11
-135.804
 21
-8.76648
  0
LINE
  8
0
 10
-135.804
 20
-8.76648
 11
-135.956
 21
-8.65576
  0
LINE
  8
0
 10
-135.956
 20
-8.65576
 11
-136.093
 21
-8.52681
  0
LINE
  8
0
 10
-136.093
 20
-8.52681
 11
-136.214
 21
-8.38167
  0
LINE
  8
0
 10
-136.214
 20
-8.38167
 11
-136.314
 21
-8.22263
  0
LINE
  8
0
 10
-136.314
 20
-8.22263
 11
-136.395
 21
-8.05219
  0
LINE
  8
0
 10
-136.395
 20
-8.05219
 11
-136.453
 21
-7.87303
  0
LINE
  8
0
 10
-136.453
 20
-7.87303
 11
-136.488
 21
-7.68799
  0
LINE
  8
0
 10
-136.488
 20
-7.68799
 11
-136.5
 21
-7.5
  0
LINE
  8
0
 10
-136.5
 20
-7.5
 11
-136.488
 21
-7.312
  0
LINE
  8
0
 10
-136.488
 20
-7.312
 11
-136.453
 21
-7.12695
  0
LINE
  8
0
 10
-136.453
 20
-7.12695
 11
-136.395
 21
-6.9478
  0
LINE
  8
0
 10
-136.395
 20
-6.9478
 11
-136.314
 21
-6.77736
  0
LINE
  8
0
 10
-136.314
 20
-6.77736
 11
-136.214
 21
-6.61832
  0
LINE
  8
0
 10
-136.214
 20
-6.61832
 11
-136.093
 21
-6.47318
  0
LINE
  8
0
 10
-136.093
 20
-6.47318
 11
-135.956
 21
-6.34422
  0
LINE
  8
0
 10
-135.956
 20
-6.34422
 11
-135.804
 21
-6.23351
  0
LINE
  8
0
 10
-135.804
 20
-6.23351
 11
-135.639
 21
-6.14275
  0
LINE
  8
0
 10
-135.639
 20
-6.14275
 11
-135.464
 21
-6.07341
  0
LINE
  8
0
 10
-135.464
 20
-6.07341
 11
-135.281
 21
-6.02657
  0
LINE
  8
0
 10
-135.281
 20
-6.02657
 11
-135.094
 21
-6.00294
  0
LINE
  8
0
 10
-135.094
 20
-6.00294
 11
-134.906
 21
-6.00294
  0
LINE
  8
0
 10
-134.906
 20
-6.00294
 11
-134.719
 21
-6.02657
  0
LINE
  8
0
 10
-134.719
 20
-6.02657
 11
-134.536
 21
-6.07341
  0
LINE
  8
0
 10
-134.536
 20
-6.07341
 11
-134.361
 21
-6.14275
  0
LINE
  8
0
 10
-134.361
 20
-6.14275
 11
-134.196
 21
-6.23351
  0
LINE
  8
0
 10
-134.196
 20
-6.23351
 11
-134.044
 21
-6.34422
  0
LINE
  8
0
 10
-134.044
 20
-6.34422
 11
-133.907
 21
-6.47318
  0
LINE
  8
0
 10
-133.907
 20
-6.47318
 11
-133.786
 21
-6.61832
  0
LINE
  8
0
 10
-133.786
 20
-6.61832
 11
-133.686
 21
-6.77736
  0
LINE
  8
0
 10
-133.686
 20
-6.77736
 11
-133.605
 21
-6.9478
  0
LINE
  8
0
 10
-133.605
 20
-6.9478
 11
-133.547
 21
-7.12695
  0
LINE
  8
0
 10
-133.547
 20
-7.12695
 11
-133.512
 21
-7.312
  0
LINE
  8
0
 10
-133.512
 20
-7.312
 11
-133.5
 21
-7.5
  0
LINE
  8
0
 10
-133.5
 20
-7.5
 11
-133.512
 21
-7.68799
  0
LINE
  8
0
 10
-133.512
 20
-7.68799
 11
-133.547
 21
-7.87303
  0
LINE
  8
0
 10
-133.547
 20
-7.87303
 11
-133.605
 21
-8.05219
  0
LINE
  8
0
 10
-133.605
 20
-8.05219
 11
-133.686
 21
-8.22263
  0
LINE
  8
0
 10
-133.686
 20
-8.22263
 11
-133.786
 21
-8.38167
  0
LINE
  8
0
 10
-133.786
 20
-8.38167
 11
-133.907
 21
-8.52681
  0
LINE
  8
0
 10
-133.907
 20
-8.52681
 11
-134.044
 21
-8.65576
  0
LINE
  8
0
 10
-134.044
 20
-8.65576
 11
-134.196
 21
-8.76648
  0
LINE
  8
0
 10
-134.196
 20
-8.76648
 11
-134.361
 21
-8.85724
  0
LINE
  8
0
 10
-134.361
 20
-8.85724
 11
-134.536
 21
-8.92657
  0
LINE
  8
0
 10
-134.536
 20
-8.92657
 11
-134.719
 21
-8.97342
  0
LINE
  8
0
 10
-134.719
 20
-8.97342
 11
-134.906
 21
-8.99704
  0
LINE
  8
0
 10
-134.906
 20
-8.99704
 11
-135.094
 21
-8.99704
  0
LINE
  8
0
 10
134.906
 20
-8.99704
 11
134.719
 21
-8.97342
  0
LINE
  8
0
 10
134.719
 20
-8.97342
 11
134.536
 21
-8.92657
  0
LINE
  8
0
 10
134.536
 20
-8.92657
 11
134.361
 21
-8.85724
  0
LINE
  8
0
 10
134.361
 20
-8.85724
 11
134.196
 21
-8.76648
  0
LINE
  8
0
 10
134.196
 20
-8.76648
 11
134.044
 21
-8.65576
  0
LINE
  8
0
 10
134.044
 20
-8.65576
 11
133.907
 21
-8.52681
  0
LINE
  8
0
 10
133.907
 20
-8.52681
 11
133.786
 21
-8.38167
  0
LINE
  8
0
 10
133.786
 20
-8.38167
 11
133.686
 21
-8.22263
  0
LINE
  8
0
 10
133.686
 20
-8.22263
 11
133.605
 21
-8.05219
  0
LINE
  8
0
 10
133.605
 20
-8.05219
 11
133.547
 21
-7.87303
  0
LINE
  8
0
 10
133.547
 20
-7.87303
 11
133.512
 21
-7.68799
  0
LINE
  8
0
 10
133.512
 20
-7.68799
 11
133.5
 21
-7.5
  0
LINE
  8
0
 10
133.5
 20
-7.5
 11
133.512
 21
-7.312
  0
LINE
  8
0
 10
133.512
 20
-7.312
 11
133.547
 21
-7.12695
  0
LINE
  8
0
 10
133.547
 20
-7.12695
 11
133.605
 21
-6.9478
  0
LINE
  8
0
 10
133.605
 20
-6.9478
 11
133.686
 21
-6.77736
  0
LINE
  8
0
 10
133.686
 20
-6.77736
 11
133.786
 21
-6.61832
  0
LINE
  8
0
 10
133.786
 20
-6.61832
 11
133.907
 21
-6.47318
  0
LINE
  8
0
 10
133.907
 20
-6.47318
 11
134.044
 21
-6.34422
  0
LINE
  8
0
 10
134.044
 20
-6.34422
 11
134.196
 21
-6.23351
  0
LINE
  8
0
 10
134.196
 20
-6.23351
 11
134.361
 21
-6.14275
  0
LINE
  8
0
 10
134.361
 20
-6.14275
 11
134.536
 21
-6.07341
  0
LINE
  8
0
 10
134.536
 20
-6.07341
 11
134.719
 21
-6.02657
  0
LINE
  8
0
 10
134.719
 20
-6.02657
 11
134.906
 21
-6.00294
  0
LINE
  8
0
 10
134.906
 20
-6.00294
 11
135.094
 21
-6.00294
  0
LINE
  8
0
 10
135.094
 20
-6.00294
 11
135.281
 21
-6.02657
  0
LINE
  8
0
 10
135.281
 20
-6.02657
 11
135.464
 21
-6.07341
  0
LINE
  8
0
 10
135.464
 20
-6.07341
 11
135.639
 21
-6.14275
  0
LINE
  8
0
 10
135.639
 20
-6.14275
 11
135.804
 21
-6.23351
  0
LINE
  8
0
 10
135.804
 20
-6.23351
 11
135.956
 21
-6.34422
  0
LINE
  8
0
 10
135.956
 20
-6.34422
 11
136.093
 21
-6.47318
  0
LINE
  8
0
 10
136.093
 20
-6.47318
 11
136.214
 21
-6.61832
  0
LINE
  8
0
 10
136.214
 20
-6.61832
 11
136.314
 21
-6.77736
  0
LINE
  8
0
 10
136.314
 20
-6.77736
 11
136.395
 21
-6.9478
  0
LINE
  8
0
 10
136.395
 20
-6.9478
 11
136.453
 21
-7.12695
  0
LINE
  8
0
 10
136.453
 20
-7.12695
 11
136.488
 21
-7.312
  0
LINE
  8
0
 10
136.488
 20
-7.312
 11
136.5
 21
-7.5
  0
LINE
  8
0
 10
136.5
 20
-7.5
 11
136.488
 21
-7.68799
  0
LINE
  8
0
 10
136.488
 20
-7.68799
 11
136.453
 21
-7.87303
  0
LINE
  8
0
 10
136.453
 20
-7.87303
 11
136.395
 21
-8.05219
  0
LINE
  8
0
 10
136.395
 20
-8.05219
 11
136.314
 21
-8.22263
  0
LINE
  8
0
 10
136.314
 20
-8.22263
 11
136.214
 21
-8.38167
  0
LINE
  8
0
 10
136.214
 20
-8.38167
 11
136.093
 21
-8.52681
  0
LINE
  8
0
 10
136.093
 20
-8.52681
 11
135.956
 21
-8.65576
  0
LINE
  8
0
 10
135.956
 20
-8.65576
 11
135.804
 21
-8.76648
  0
LINE
  8
0
 10
135.804
 20
-8.76648
 11
135.639
 21
-8.85724
  0
LINE
  8
0
 10
135.639
 20
-8.85724
 11
135.464
 21
-8.92657
  0
LINE
  8
0
 10
135.464
 20
-8.92657
 11
135.281
 21
-8.97342
  0
LINE
  8
0
 10
135.281
 20
-8.97342
 11
135.094
 21
-8.99704
  0
LINE
  8
0
 10
135.094
 20
-8.99704
 11
134.906
 21
-8.99704
  0
LINE
  8
0
 10
134.812
 20
-17.9941
 11
134.438
 21
-17.9469
  0
LINE
  8
0
 10
134.438
 20
-17.9469
 11
134.073
 21
-17.8532
  0
LINE
  8
0
 10
134.073
 20
-17.8532
 11
133.723
 21
-17.7145
  0
LINE
  8
0
 10
133.723
 20
-17.7145
 11
133.393
 21
-17.533
  0
LINE
  8
0
 10
133.393
 20
-17.533
 11
133.088
 21
-17.3115
  0
LINE
  8
0
 10
133.088
 20
-17.3115
 11
132.813
 21
-17.0536
  0
LINE
  8
0
 10
132.813
 20
-17.0536
 11
132.573
 21
-16.7634
  0
LINE
  8
0
 10
132.573
 20
-16.7634
 11
132.371
 21
-16.4453
  0
LINE
  8
0
 10
132.371
 20
-16.4453
 11
132.211
 21
-16.1044
  0
LINE
  8
0
 10
132.211
 20
-16.1044
 11
132.094
 21
-15.7461
  0
LINE
  8
0
 10
132.094
 20
-15.7461
 11
132.024
 21
-15.376
  0
LINE
  8
0
 10
132.024
 20
-15.376
 11
132
 21
-15
  0
LINE
  8
0
 10
132
 20
-15
 11
132.024
 21
-14.624
  0
LINE
  8
0
 10
132.024
 20
-14.624
 11
132.094
 21
-14.2539
  0
LINE
  8
0
 10
132.094
 20
-14.2539
 11
132.211
 21
-13.8956
  0
LINE
  8
0
 10
132.211
 20
-13.8956
 11
132.371
 21
-13.5547
  0
LINE
  8
0
 10
132.371
 20
-13.5547
 11
132.573
 21
-13.2366
  0
LINE
  8
0
 10
132.573
 20
-13.2366
 11
132.813
 21
-12.9464
  0
LINE
  8
0
 10
132.813
 20
-12.9464
 11
133.088
 21
-12.6884
  0
LINE
  8
0
 10
133.088
 20
-12.6884
 11
133.393
 21
-12.467
  0
LINE
  8
0
 10
133.393
 20
-12.467
 11
133.723
 21
-12.2855
  0
LINE
  8
0
 10
133.723
 20
-12.2855
 11
134.073
 21
-12.1468
  0
LINE
  8
0
 10
134.073
 20
-12.1468
 11
134.438
 21
-12.0531
  0
LINE
  8
0
 10
134.438
 20
-12.0531
 11
134.812
 21
-12.0059
  0
LINE
  8
0
 10
134.812
 20
-12.0059
 11
135.188
 21
-12.0059
  0
LINE
  8
0
 10
135.188
 20
-12.0059
 11
135.562
 21
-12.0531
  0
LINE
  8
0
 10
135.562
 20
-12.0531
 11
135.927
 21
-12.1468
  0
LINE
  8
0
 10
135.927
 20
-12.1468
 11
136.277
 21
-12.2855
  0
LINE
  8
0
 10
136.277
 20
-12.2855
 11
136.607
 21
-12.467
  0
LINE
  8
0
 10
136.607
 20
-12.467
 11
136.912
 21
-12.6884
  0
LINE
  8
0
 10
136.912
 20
-12.6884
 11
137.187
 21
-12.9464
  0
LINE
  8
0
 10
137.187
 20
-12.9464
 11
137.427
 21
-13.2366
  0
LINE
  8
0
 10
137.427
 20
-13.2366
 11
137.629
 21
-13.5547
  0
LINE
  8
0
 10
137.629
 20
-13.5547
 11
137.789
 21
-13.8956
  0
LINE
  8
0
 10
137.789
 20
-13.8956
 11
137.906
 21
-14.2539
  0
LINE
  8
0
 10
137.906
 20
-14.2539
 11
137.976
 21
-14.624
  0
LINE
  8
0
 10
137.976
 20
-14.624
 11
138
 21
-15
  0
LINE
  8
0
 10
138
 20
-15
 11
137.976
 21
-15.376
  0
LINE
  8
0
 10
137.976
 20
-15.376
 11
137.906
 21
-15.7461
  0
LINE
  8
0
 10
137.906
 20
-15.7461
 11
137.789
 21
-16.1044
  0
LINE
  8
0
 10
137.789
 20
-16.1044
 11
137.629
 21
-16.4453
  0
LINE
  8
0
 10
137.629
 20
-16.4453
 11
137.427
 21
-16.7634
  0
LINE
  8
0
 10
137.427
 20
-16.7634
 11
137.187
 21
-17.0536
  0
LINE
  8
0
 10
137.187
 20
-17.0536
 11
136.912
 21
-17.3115
  0
LINE
  8
0
 10
136.912
 20
-17.3115
 11
136.607
 21
-17.533
  0
LINE
  8
0
 10
136.607
 20
-17.533
 11
136.277
 21
-17.7145
  0
LINE
  8
0
 10
136.277
 20
-17.7145
 11
135.927
 21
-17.8532
  0
LINE
  8
0
 10
135.927
 20
-17.8532
 11
135.562
 21
-17.9469
  0
LINE
  8
0
 10
135.562
 20
-17.9469
 11
135.188
 21
-17.9941
  0
LINE
  8
0
 10
135.188
 20
-17.9941
 11
134.812
 21
-17.9941
  0
LINE
  8
0
 10
-135.188
 20
-17.9941
 11
-135.562
 21
-17.9469
  0
LINE
  8
0
 10
-135.562
 20
-17.9469
 11
-135.927
 21
-17.8532
  0
LINE
  8
0
 10
-135.927
 20
-17.8532
 11
-136.277
 21
-17.7145
  0
LINE
  8
0
 10
-136.277
 20
-17.7145
 11
-136.607
 21
-17.533
  0
LINE
  8
0
 10
-136.607
 20
-17.533
 11
-136.912
 21
-17.3115
  0
LINE
  8
0
 10
-136.912
 20
-17.3115
 11
-137.187
 21
-17.0536
  0
LINE
  8
0
 10
-137.187
 20
-17.0536
 11
-137.427
 21
-16.7634
  0
LINE
  8
0
 10
-137.427
 20
-16.7634
 11
-137.629
 21
-16.4453
  0
LINE
  8
0
 10
-137.629
 20
-16.4453
 11
-137.789
 21
-16.1044
  0
LINE
  8
0
 10
-137.789
 20
-16.1044
 11
-137.906
 21
-15.7461
  0
LINE
  8
0
 10
-137.906
 20
-15.7461
 11
-137.976
 21
-15.376
  0
LINE
  8
0
 10
-137.976
 20
-15.376
 11
-138
 21
-15
  0
LINE
  8
0
 10
-138
 20
-15
 11
-137.976
 21
-14.624
  0
LINE
  8
0
 10
-137.976
 20
-14.624
 11
-137.906
 21
-14.2539
  0
LINE
  8
0
 10
-137.906
 20
-14.2539
 11
-137.789
 21
-13.8956
  0
LINE
  8
0
 10
-137.789
 20
-13.8956
 11
-137.629
 21
-13.5547
  0
LINE
  8
0
 10
-137.629
 20
-13.5547
 11
-137.427
 21
-13.2366
  0
LINE
  8
0
 10
-137.427
 20
-13.2366
 11
-137.187
 21
-12.9464
  0
LINE
  8
0
 10
-137.187
 20
-12.9464
 11
-136.912
 21
-12.6884
  0
LINE
  8
0
 10
-136.912
 20
-12.6884
 11
-136.607
 21
-12.467
  0
LINE
  8
0
 10
-136.607
 20
-12.467
 11
-136.277
 21
-12.2855
  0
LINE
  8
0
 10
-136.277
 20
-12.2855
 11
-135.927
 21
-12.1468
  0
LINE
  8
0
 10
-135.927
 20
-12.1468
 11
-135.562
 21
-12.0531
  0
LINE
  8
0
 10
-135.562
 20
-12.0531
 11
-135.188
 21
-12.0059
  0
LINE
  8
0
 10
-135.188
 20
-12.0059
 11
-134.812
 21
-12.0059
  0
LINE
  8
0
 10
-134.812
 20
-12.0059
 11
-134.438
 21
-12.0531
  0
LINE
  8
0
 10
-134.438
 20
-12.0531
 11
-134.073
 21
-12.1468
  0
LINE
  8
0
 10
-134.073
 20
-12.1468
 11
-133.723
 21
-12.2855
  0
LINE
  8
0
 10
-133.723
 20
-12.2855
 11
-133.393
 21
-12.467
  0
LINE
  8
0
 10
-133.393
 20
-12.467
 11
-133.088
 21
-12.6884
  0
LINE
  8
0
 10
-133.088
 20
-12.6884
 11
-132.813
 21
-12.9464
  0
LINE
  8
0
 10
-132.813
 20
-12.9464
 11
-132.573
 21
-13.2366
  0
LINE
  8
0
 10
-132.573
 20
-13.2366
 11
-132.371
 21
-13.5547
  0
LINE
  8
0
 10
-132.371
 20
-13.5547
 11
-132.211
 21
-13.8956
  0
LINE
  8
0
 10
-132.211
 20
-13.8956
 11
-132.094
 21
-14.2539
  0
LINE
  8
0
 10
-132.094
 20
-14.2539
 11
-132.024
 21
-14.624
  0
LINE
  8
0
 10
-132.024
 20
-14.624
 11
-132
 21
-15
  0
LINE
  8
0
 10
-132
 20
-15
 11
-132.024
 21
-15.376
  0
LINE
  8
0
 10
-132.024
 20
-15.376
 11
-132.094
 21
-15.7461
  0
LINE
  8
0
 10
-132.094
 20
-15.7461
 11
-132.211
 21
-16.1044
  0
LINE
  8
0
 10
-132.211
 20
-16.1044
 11
-132.371
 21
-16.4453
  0
LINE
  8
0
 10
-132.371
 20
-16.4453
 11
-132.573
 21
-16.7634
  0
LINE
  8
0
 10
-132.573
 20
-16.7634
 11
-132.813
 21
-17.0536
  0
LINE
  8
0
 10
-132.813
 20
-17.0536
 11
-133.088
 21
-17.3115
  0
LINE
  8
0
 10
-133.088
 20
-17.3115
 11
-133.393
 21
-17.533
  0
LINE
  8
0
 10
-133.393
 20
-17.533
 11
-133.723
 21
-17.7145
  0
LINE
  8
0
 10
-133.723
 20
-17.7145
 11
-134.073
 21
-17.8532
  0
LINE
  8
0
 10
-134.073
 20
-17.8532
 11
-134.438
 21
-17.9469
  0
LINE
  8
0
 10
-134.438
 20
-17.9469
 11
-134.812
 21
-17.9941
  0
LINE
  8
0
 10
-134.812
 20
-17.9941
 11
-135.188
 21
-17.9941
  0
LINE
  8
0
 10
-135.094
 20
-23.997
 11
-135.281
 21
-23.9734
  0
LINE
  8
0
 10
-135.281
 20
-23.9734
 11
-135.464
 21
-23.9266
  0
LINE
  8
0
 10
-135.464
 20
-23.9266
 11
-135.639
 21
-23.8572
  0
LINE
  8
0
 10
-135.639
 20
-23.8572
 11
-135.804
 21
-23.7665
  0
LINE
  8
0
 10
-135.804
 20
-23.7665
 11
-135.956
 21
-23.6558
  0
LINE
  8
0
 10
-135.956
 20
-23.6558
 11
-136.093
 21
-23.5268
  0
LINE
  8
0
 10
-136.093
 20
-23.5268
 11
-136.214
 21
-23.3817
  0
LINE
  8
0
 10
-136.214
 20
-23.3817
 11
-136.314
 21
-23.2226
  0
LINE
  8
0
 10
-136.314
 20
-23.2226
 11
-136.395
 21
-23.0522
  0
LINE
  8
0
 10
-136.395
 20
-23.0522
 11
-136.453
 21
-22.873
  0
LINE
  8
0
 10
-136.453
 20
-22.873
 11
-136.488
 21
-22.688
  0
LINE
  8
0
 10
-136.488
 20
-22.688
 11
-136.5
 21
-22.5
  0
LINE
  8
0
 10
-136.5
 20
-22.5
 11
-136.488
 21
-22.312
  0
LINE
  8
0
 10
-136.488
 20
-22.312
 11
-136.453
 21
-22.127
  0
LINE
  8
0
 10
-136.453
 20
-22.127
 11
-136.395
 21
-21.9478
  0
LINE
  8
0
 10
-136.395
 20
-21.9478
 11
-136.314
 21
-21.7774
  0
LINE
  8
0
 10
-136.314
 20
-21.7774
 11
-136.214
 21
-21.6183
  0
LINE
  8
0
 10
-136.214
 20
-21.6183
 11
-136.093
 21
-21.4732
  0
LINE
  8
0
 10
-136.093
 20
-21.4732
 11
-135.956
 21
-21.3442
  0
LINE
  8
0
 10
-135.956
 20
-21.3442
 11
-135.804
 21
-21.2335
  0
LINE
  8
0
 10
-135.804
 20
-21.2335
 11
-135.639
 21
-21.1427
  0
LINE
  8
0
 10
-135.639
 20
-21.1427
 11
-135.464
 21
-21.0734
  0
LINE
  8
0
 10
-135.464
 20
-21.0734
 11
-135.281
 21
-21.0266
  0
LINE
  8
0
 10
-135.281
 20
-21.0266
 11
-135.094
 21
-21.003
  0
LINE
  8
0
 10
-135.094
 20
-21.003
 11
-134.906
 21
-21.003
  0
LINE
  8
0
 10
-134.906
 20
-21.003
 11
-134.719
 21
-21.0266
  0
LINE
  8
0
 10
-134.719
 20
-21.0266
 11
-134.536
 21
-21.0734
  0
LINE
  8
0
 10
-134.536
 20
-21.0734
 11
-134.361
 21
-21.1427
  0
LINE
  8
0
 10
-134.361
 20
-21.1427
 11
-134.196
 21
-21.2335
  0
LINE
  8
0
 10
-134.196
 20
-21.2335
 11
-134.044
 21
-21.3442
  0
LINE
  8
0
 10
-134.044
 20
-21.3442
 11
-133.907
 21
-21.4732
  0
LINE
  8
0
 10
-133.907
 20
-21.4732
 11
-133.786
 21
-21.6183
  0
LINE
  8
0
 10
-133.786
 20
-21.6183
 11
-133.686
 21
-21.7774
  0
LINE
  8
0
 10
-133.686
 20
-21.7774
 11
-133.605
 21
-21.9478
  0
LINE
  8
0
 10
-133.605
 20
-21.9478
 11
-133.547
 21
-22.127
  0
LINE
  8
0
 10
-133.547
 20
-22.127
 11
-133.512
 21
-22.312
  0
LINE
  8
0
 10
-133.512
 20
-22.312
 11
-133.5
 21
-22.5
  0
LINE
  8
0
 10
-133.5
 20
-22.5
 11
-133.512
 21
-22.688
  0
LINE
  8
0
 10
-133.512
 20
-22.688
 11
-133.547
 21
-22.873
  0
LINE
  8
0
 10
-133.547
 20
-22.873
 11
-133.605
 21
-23.0522
  0
LINE
  8
0
 10
-133.605
 20
-23.0522
 11
-133.686
 21
-23.2226
  0
LINE
  8
0
 10
-133.686
 20
-23.2226
 11
-133.786
 21
-23.3817
  0
LINE
  8
0
 10
-133.786
 20
-23.3817
 11
-133.907
 21
-23.5268
  0
LINE
  8
0
 10
-133.907
 20
-23.5268
 11
-134.044
 21
-23.6558
  0
LINE
  8
0
 10
-134.044
 20
-23.6558
 11
-134.196
 21
-23.7665
  0
LINE
  8
0
 10
-134.196
 20
-23.7665
 11
-134.361
 21
-23.8572
  0
LINE
  8
0
 10
-134.361
 20
-23.8572
 11
-134.536
 21
-23.9266
  0
LINE
  8
0
 10
-134.536
 20
-23.9266
 11
-134.719
 21
-23.9734
  0
LINE
  8
0
 10
-134.719
 20
-23.9734
 11
-134.906
 21
-23.997
  0
LINE
  8
0
 10
-134.906
 20
-23.997
 11
-135.094
 21
-23.997
  0
LINE
  8
0
 10
134.906
 20
-23.997
 11
134.719
 21
-23.9734
  0
LINE
  8
0
 10
134.719
 20
-23.9734
 11
134.536
 21
-23.9266
  0
LINE
  8
0
 10
134.536
 20
-23.9266
 11
134.361
 21
-23.8572
  0
LINE
  8
0
 10
134.361
 20
-23.8572
 11
134.196
 21
-23.7665
  0
LINE
  8
0
 10
134.196
 20
-23.7665
 11
134.044
 21
-23.6558
  0
LINE
  8
0
 10
134.044
 20
-23.6558
 11
133.907
 21
-23.5268
  0
LINE
  8
0
 10
133.907
 20
-23.5268
 11
133.786
 21
-23.3817
  0
LINE
  8
0
 10
133.786
 20
-23.3817
 11
133.686
 21
-23.2226
  0
LINE
  8
0
 10
133.686
 20
-23.2226
 11
133.605
 21
-23.0522
  0
LINE
  8
0
 10
133.605
 20
-23.0522
 11
133.547
 21
-22.873
  0
LINE
  8
0
 10
133.547
 20
-22.873
 11
133.512
 21
-22.688
  0
LINE
  8
0
 10
133.512
 20
-22.688
 11
133.5
 21
-22.5
  0
LINE
  8
0
 10
133.5
 20
-22.5
 11
133.512
 21
-22.312
  0
LINE
  8
0
 10
133.512
 20
-22.312
 11
133.547
 21
-22.127
  0
LINE
  8
0
 10
133.547
 20
-22.127
 11
133.605
 21
-21.9478
  0
LINE
  8
0
 10
133.605
 20
-21.9478
 11
133.686
 21
-21.7774
  0
LINE
  8
0
 10
133.686
 20
-21.7774
 11
133.786
 21
-21.6183
  0
LINE
  8
0
 10
133.786
 20
-21.6183
 11
133.907
 21
-21.4732
  0
LINE
  8
0
 10
133.907
 20
-21.4732
 11
134.044
 21
-21.3442
  0
LINE
  8
0
 10
134.044
 20
-21.3442
 11
134.196
 21
-21.2335
  0
LINE
  8
0
 10
134.196
 20
-21.2335
 11
134.361
 21
-21.1427
  0
LINE
  8
0
 10
134.361
 20
-21.1427
 11
134.536
 21
-21.0734
  0
LINE
  8
0
 10
134.536
 20
-21.0734
 11
134.719
 21
-21.0266
  0
LINE
  8
0
 10
134.719
 20
-21.0266
 11
134.906
 21
-21.003
  0
LINE
  8
0
 10
134.906
 20
-21.003
 11
135.094
 21
-21.003
  0
LINE
  8
0
 10
135.094
 20
-21.003
 11
135.281
 21
-21.0266
  0
LINE
  8
0
 10
135.281
 20
-21.0266
 11
135.464
 21
-21.0734
  0
LINE
  8
0
 10
135.464
 20
-21.0734
 11
135.639
 21
-21.1427
  0
LINE
  8
0
 10
135.639
 20
-21.1427
 11
135.804
 21
-21.2335
  0
LINE
  8
0
 10
135.804
 20
-21.2335
 11
135.956
 21
-21.3442
  0
LINE
  8
0
 10
135.956
 20
-21.3442
 11
136.093
 21
-21.4732
  0
LINE
  8
0
 10
136.093
 20
-21.4732
 11
136.214
 21
-21.6183
  0
LINE
  8
0
 10
136.214
 20
-21.6183
 11
136.314
 21
-21.7774
  0
LINE
  8
0
 10
136.314
 20
-21.7774
 11
136.395
 21
-21.9478
  0
LINE
  8
0
 10
136.395
 20
-21.9478
 11
136.453
 21
-22.127
  0
LINE
  8
0
 10
136.453
 20
-22.127
 11
136.488
 21
-22.312
  0
LINE
  8
0
 10
136.488
 20
-22.312
 11
136.5
 21
-22.5
  0
LINE
  8
0
 10
136.5
 20
-22.5
 11
136.488
 21
-22.688
  0
LINE
  8
0
 10
136.488
 20
-22.688
 11
136.453
 21
-22.873
  0
LINE
  8
0
 10
136.453
 20
-22.873
 11
136.395
 21
-23.0522
  0
LINE
  8
0
 10
136.395
 20
-23.0522
 11
136.314
 21
-23.2226
  0
LINE
  8
0
 10
136.314
 20
-23.2226
 11
136.214
 21
-23.3817
  0
LINE
  8
0
 10
136.214
 20
-23.3817
 11
136.093
 21
-23.5268
  0
LINE
  8
0
 10
136.093
 20
-23.5268
 11
135.956
 21
-23.6558
  0
LINE
  8
0
 10
135.956
 20
-23.6558
 11
135.804
 21
-23.7665
  0
LINE
  8
0
 10
135.804
 20
-23.7665
 11
135.639
 21
-23.8572
  0
LINE
  8
0
 10
135.639
 20
-23.8572
 11
135.464
 21
-23.9266
  0
LINE
  8
0
 10
135.464
 20
-23.9266
 11
135.281
 21
-23.9734
  0
LINE
  8
0
 10
135.281
 20
-23.9734
 11
135.094
 21
-23.997
  0
LINE
  8
0
 10
135.094
 20
-23.997
 11
134.906
 21
-23.997
  0
LINE
  8
0
 10
-135.188
 20
-32.9941
 11
-135.562
 21
-32.9469
  0
LINE
  8
0
 10
-135.562
 20
-32.9469
 11
-135.927
 21
-32.8532
  0
LINE
  8
0
 10
-135.927
 20
-32.8532
 11
-136.277
 21
-32.7145
  0
LINE
  8
0
 10
-136.277
 20
-32.7145
 11
-136.607
 21
-32.533
  0
LINE
  8
0
 10
-136.607
 20
-32.533
 11
-136.912
 21
-32.3115
  0
LINE
  8
0
 10
-136.912
 20
-32.3115
 11
-137.187
 21
-32.0536
  0
LINE
  8
0
 10
-137.187
 20
-32.0536
 11
-137.427
 21
-31.7634
  0
LINE
  8
0
 10
-137.427
 20
-31.7634
 11
-137.629
 21
-31.4453
  0
LINE
  8
0
 10
-137.629
 20
-31.4453
 11
-137.789
 21
-31.1044
  0
LINE
  8
0
 10
-137.789
 20
-31.1044
 11
-137.906
 21
-30.7461
  0
LINE
  8
0
 10
-137.906
 20
-30.7461
 11
-137.976
 21
-30.376
  0
LINE
  8
0
 10
-137.976
 20
-30.376
 11
-138
 21
-30
  0
LINE
  8
0
 10
-138
 20
-30
 11
-137.976
 21
-29.624
  0
LINE
  8
0
 10
-137.976
 20
-29.624
 11
-137.906
 21
-29.2539
  0
LINE
  8
0
 10
-137.906
 20
-29.2539
 11
-137.789
 21
-28.8956
  0
LINE
  8
0
 10
-137.789
 20
-28.8956
 11
-137.629
 21
-28.5547
  0
LINE
  8
0
 10
-137.629
 20
-28.5547
 11
-137.427
 21
-28.2366
  0
LINE
  8
0
 10
-137.427
 20
-28.2366
 11
-137.187
 21
-27.9464
  0
LINE
  8
0
 10
-137.187
 20
-27.9464
 11
-136.912
 21
-27.6884
  0
LINE
  8
0
 10
-136.912
 20
-27.6884
 11
-136.607
 21
-27.467
  0
LINE
  8
0
 10
-136.607
 20
-27.467
 11
-136.277
 21
-27.2855
  0
LINE
  8
0
 10
-136.277
 20
-27.2855
 11
-135.927
 21
-27.1468
  0
LINE
  8
0
 10
-135.927
 20
-27.1468
 11
-135.562
 21
-27.0531
  0
LINE
  8
0
 10
-135.562
 20
-27.0531
 11
-135.188
 21
-27.0059
  0
LINE
  8
0
 10
-135.188
 20
-27.0059
 11
-134.812
 21
-27.0059
  0
LINE
  8
0
 10
-134.812
 20
-27.0059
 11
-134.438
 21
-27.0531
  0
LINE
  8
0
 10
-134.438
 20
-27.0531
 11
-134.073
 21
-27.1468
  0
LINE
  8
0
 10
-134.073
 20
-27.1468
 11
-133.723
 21
-27.2855
  0
LINE
  8
0
 10
-133.723
 20
-27.2855
 11
-133.393
 21
-27.467
  0
LINE
  8
0
 10
-133.393
 20
-27.467
 11
-133.088
 21
-27.6884
  0
LINE
  8
0
 10
-133.088
 20
-27.6884
 11
-132.813
 21
-27.9464
  0
LINE
  8
0
 10
-132.813
 20
-27.9464
 11
-132.573
 21
-28.2366
  0
LINE
  8
0
 10
-132.573
 20
-28.2366
 11
-132.371
 21
-28.5547
  0
LINE
  8
0
 10
-132.371
 20
-28.5547
 11
-132.211
 21
-28.8956
  0
LINE
  8
0
 10
-132.211
 20
-28.8956
 11
-132.094
 21
-29.2539
  0
LINE
  8
0
 10
-132.094
 20
-29.2539
 11
-132.024
 21
-29.624
  0
LINE
  8
0
 10
-132.024
 20
-29.624
 11
-132
 21
-30
  0
LINE
  8
0
 10
-132
 20
-30
 11
-132.024
 21
-30.376
  0
LINE
  8
0
 10
-132.024
 20
-30.376
 11
-132.094
 21
-30.7461
  0
LINE
  8
0
 10
-132.094
 20
-30.7461
 11
-132.211
 21
-31.1044
  0
LINE
  8
0
 10
-132.211
 20
-31.1044
 11
-132.371
 21
-31.4453
  0
LINE
  8
0
 10
-132.371
 20
-31.4453
 11
-132.573
 21
-31.7634
  0
LINE
  8
0
 10
-132.573
 20
-31.7634
 11
-132.813
 21
-32.0536
  0
LINE
  8
0
 10
-132.813
 20
-32.0536
 11
-133.088
 21
-32.3115
  0
LINE
  8
0
 10
-133.088
 20
-32.3115
 11
-133.393
 21
-32.533
  0
LINE
  8
0
 10
-133.393
 20
-32.533
 11
-133.723
 21
-32.7145
  0
LINE
  8
0
 10
-133.723
 20
-32.7145
 11
-134.073
 21
-32.8532
  0
LINE
  8
0
 10
-134.073
 20
-32.8532
 11
-134.438
 21
-32.9469
  0
LINE
  8
0
 10
-134.438
 20
-32.9469
 11
-134.812
 21
-32.9941
  0
LINE
  8
0
 10
-134.812
 20
-32.9941
 11
-135.188
 21
-32.9941
  0
LINE
  8
0
 10
134.812
 20
-32.9941
 11
134.438
 21
-32.9469
  0
LINE
  8
0
 10
134.438
 20
-32.9469
 11
134.073
 21
-32.8532
  0
LINE
  8
0
 10
134.073
 20
-32.8532
 11
133.723
 21
-32.7145
  0
LINE
  8
0
 10
133.723
 20
-32.7145
 11
133.393
 21
-32.533
  0
LINE
  8
0
 10
133.393
 20
-32.533
 11
133.088
 21
-32.3115
  0
LINE
  8
0
 10
133.088
 20
-32.3115
 11
132.813
 21
-32.0536
  0
LINE
  8
0
 10
132.813
 20
-32.0536
 11
132.573
 21
-31.7634
  0
LINE
  8
0
 10
132.573
 20
-31.7634
 11
132.371
 21
-31.4453
  0
LINE
  8
0
 10
132.371
 20
-31.4453
 11
132.211
 21
-31.1044
  0
LINE
  8
0
 10
132.211
 20
-31.1044
 11
132.094
 21
-30.7461
  0
LINE
  8
0
 10
132.094
 20
-30.7461
 11
132.024
 21
-30.376
  0
LINE
  8
0
 10
132.024
 20
-30.376
 11
132
 21
-30
  0
LINE
  8
0
 10
132
 20
-30
 11
132.024
 21
-29.624
  0
LINE
  8
0
 10
132.024
 20
-29.624
 11
132.094
 21
-29.2539
  0
LINE
  8
0
 10
132.094
 20
-29.2539
 11
132.211
 21
-28.8956
  0
LINE
  8
0
 10
132.211
 20
-28.8956
 11
132.371
 21
-28.5547
  0
LINE
  8
0
 10
132.371
 20
-28.5547
 11
132.573
 21
-28.2366
  0
LINE
  8
0
 10
132.573
 20
-28.2366
 11
132.813
 21
-27.9464
  0
LINE
  8
0
 10
132.813
 20
-27.9464
 11
133.088
 21
-27.6884
  0
LINE
  8
0
 10
133.088
 20
-27.6884
 11
133.393
 21
-27.467
  0
LINE
  8
0
 10
133.393
 20
-27.467
 11
133.723
 21
-27.2855
  0
LINE
  8
0
 10
133.723
 20
-27.2855
 11
134.073
 21
-27.1468
  0
LINE
  8
0
 10
134.073
 20
-27.1468
 11
134.438
 21
-27.0531
  0
LINE
  8
0
 10
134.438
 20
-27.0531
 11
134.812
 21
-27.0059
  0
LINE
  8
0
 10
134.812
 20
-27.0059
 11
135.188
 21
-27.0059
  0
LINE
  8
0
 10
135.188
 20
-27.0059
 11
135.562
 21
-27.0531
  0
LINE
  8
0
 10
135.562
 20
-27.0531
 11
135.927
 21
-27.1468
  0
LINE
  8
0
 10
135.927
 20
-27.1468
 11
136.277
 21
-27.2855
  0
LINE
  8
0
 10
136.277
 20
-27.2855
 11
136.607
 21
-27.467
  0
LINE
  8
0
 10
136.607
 20
-27.467
 11
136.912
 21
-27.6884
  0
LINE
  8
0
 10
136.912
 20
-27.6884
 11
137.187
 21
-27.9464
  0
LINE
  8
0
 10
137.187
 20
-27.9464
 11
137.427
 21
-28.2366
  0
LINE
  8
0
 10
137.427
 20
-28.2366
 11
137.629
 21
-28.5547
  0
LINE
  8
0
 10
137.629
 20
-28.5547
 11
137.789
 21
-28.8956
  0
LINE
  8
0
 10
137.789
 20
-28.8956
 11
137.906
 21
-29.2539
  0
LINE
  8
0
 10
137.906
 20
-29.2539
 11
137.976
 21
-29.624
  0
LINE
  8
0
 10
137.976
 20
-29.624
 11
138
 21
-30
  0
LINE
  8
0
 10
138
 20
-30
 11
137.976
 21
-30.376
  0
LINE
  8
0
 10
137.976
 20
-30.376
 11
137.906
 21
-30.7461
  0
LINE
  8
0
 10
137.906
 20
-30.7461
 11
137.789
 21
-31.1044
  0
LINE
  8
0
 10
137.789
 20
-31.1044
 11
137.629
 21
-31.4453
  0
LINE
  8
0
 10
137.629
 20
-31.4453
 11
137.427
 21
-31.7634
  0
LINE
  8
0
 10
137.427
 20
-31.7634
 11
137.187
 21
-32.0536
  0
LINE
  8
0
 10
137.187
 20
-32.0536
 11
136.912
 21
-32.3115
  0
LINE
  8
0
 10
136.912
 20
-32.3115
 11
136.607
 21
-32.533
  0
LINE
  8
0
 10
136.607
 20
-32.533
 11
136.277
 21
-32.7145
  0
LINE
  8
0
 10
136.277
 20
-32.7145
 11
135.927
 21
-32.8532
  0
LINE
  8
0
 10
135.927
 20
-32.8532
 11
135.562
 21
-32.9469
  0
LINE
  8
0
 10
135.562
 20
-32.9469
 11
135.188
 21
-32.9941
  0
LINE
  8
0
 10
135.188
 20
-32.9941
 11
134.812
 21
-32.9941
  0
LINE
  8
0
 10
-135.094
 20
-38.997
 11
-135.281
 21
-38.9734
  0
LINE
  8
0
 10
-135.281
 20
-38.9734
 11
-135.464
 21
-38.9266
  0
LINE
  8
0
 10
-135.464
 20
-38.9266
 11
-135.639
 21
-38.8572
  0
LINE
  8
0
 10
-135.639
 20
-38.8572
 11
-135.804
 21
-38.7665
  0
LINE
  8
0
 10
-135.804
 20
-38.7665
 11
-135.956
 21
-38.6558
  0
LINE
  8
0
 10
-135.956
 20
-38.6558
 11
-136.093
 21
-38.5268
  0
LINE
  8
0
 10
-136.093
 20
-38.5268
 11
-136.214
 21
-38.3817
  0
LINE
  8
0
 10
-136.214
 20
-38.3817
 11
-136.314
 21
-38.2226
  0
LINE
  8
0
 10
-136.314
 20
-38.2226
 11
-136.395
 21
-38.0522
  0
LINE
  8
0
 10
-136.395
 20
-38.0522
 11
-136.453
 21
-37.873
  0
LINE
  8
0
 10
-136.453
 20
-37.873
 11
-136.488
 21
-37.688
  0
LINE
  8
0
 10
-136.488
 20
-37.688
 11
-136.5
 21
-37.5
  0
LINE
  8
0
 10
-136.5
 20
-37.5
 11
-136.488
 21
-37.312
  0
LINE
  8
0
 10
-136.488
 20
-37.312
 11
-136.453
 21
-37.127
  0
LINE
  8
0
 10
-136.453
 20
-37.127
 11
-136.395
 21
-36.9478
  0
LINE
  8
0
 10
-136.395
 20
-36.9478
 11
-136.314
 21
-36.7774
  0
LINE
  8
0
 10
-136.314
 20
-36.7774
 11
-136.214
 21
-36.6183
  0
LINE
  8
0
 10
-136.214
 20
-36.6183
 11
-136.093
 21
-36.4732
  0
LINE
  8
0
 10
-136.093
 20
-36.4732
 11
-135.956
 21
-36.3442
  0
LINE
  8
0
 10
-135.956
 20
-36.3442
 11
-135.804
 21
-36.2335
  0
LINE
  8
0
 10
-135.804
 20
-36.2335
 11
-135.639
 21
-36.1428
  0
LINE
  8
0
 10
-135.639
 20
-36.1428
 11
-135.464
 21
-36.0734
  0
LINE
  8
0
 10
-135.464
 20
-36.0734
 11
-135.281
 21
-36.0266
  0
LINE
  8
0
 10
-135.281
 20
-36.0266
 11
-135.094
 21
-36.003
  0
LINE
  8
0
 10
-135.094
 20
-36.003
 11
-134.906
 21
-36.003
  0
LINE
  8
0
 10
-134.906
 20
-36.003
 11
-134.719
 21
-36.0266
  0
LINE
  8
0
 10
-134.719
 20
-36.0266
 11
-134.536
 21
-36.0734
  0
LINE
  8
0
 10
-134.536
 20
-36.0734
 11
-134.361
 21
-36.1428
  0
LINE
  8
0
 10
-134.361
 20
-36.1428
 11
-134.196
 21
-36.2335
  0
LINE
  8
0
 10
-134.196
 20
-36.2335
 11
-134.044
 21
-36.3442
  0
LINE
  8
0
 10
-134.044
 20
-36.3442
 11
-133.907
 21
-36.4732
  0
LINE
  8
0
 10
-133.907
 20
-36.4732
 11
-133.786
 21
-36.6183
  0
LINE
  8
0
 10
-133.786
 20
-36.6183
 11
-133.686
 21
-36.7774
  0
LINE
  8
0
 10
-133.686
 20
-36.7774
 11
-133.605
 21
-36.9478
  0
LINE
  8
0
 10
-133.605
 20
-36.9478
 11
-133.547
 21
-37.127
  0
LINE
  8
0
 10
-133.547
 20
-37.127
 11
-133.512
 21
-37.312
  0
LINE
  8
0
 10
-133.512
 20
-37.312
 11
-133.5
 21
-37.5
  0
LINE
  8
0
 10
-133.5
 20
-37.5
 11
-133.512
 21
-37.688
  0
LINE
  8
0
 10
-133.512
 20
-37.688
 11
-133.547
 21
-37.873
  0
LINE
  8
0
 10
-133.547
 20
-37.873
 11
-133.605
 21
-38.0522
  0
LINE
  8
0
 10
-133.605
 20
-38.0522
 11
-133.686
 21
-38.2226
  0
LINE
  8
0
 10
-133.686
 20
-38.2226
 11
-133.786
 21
-38.3817
  0
LINE
  8
0
 10
-133.786
 20
-38.3817
 11
-133.907
 21
-38.5268
  0
LINE
  8
0
 10
-133.907
 20
-38.5268
 11
-134.044
 21
-38.6558
  0
LINE
  8
0
 10
-134.044
 20
-38.6558
 11
-134.196
 21
-38.7665
  0
LINE
  8
0
 10
-134.196
 20
-38.7665
 11
-134.361
 21
-38.8572
  0
LINE
  8
0
 10
-134.361
 20
-38.8572
 11
-134.536
 21
-38.9266
  0
LINE
  8
0
 10
-134.536
 20
-38.9266
 11
-134.719
 21
-38.9734
  0
LINE
  8
0
 10
-134.719
 20
-38.9734
 11
-134.906
 21
-38.997
  0
LINE
  8
0
 10
-134.906
 20
-38.997
 11
-135.094
 21
-38.997
  0
LINE
  8
0
 10
134.906
 20
-38.997
 11
134.719
 21
-38.9734
  0
LINE
  8
0
 10
134.719
 20
-38.9734
 11
134.536
 21
-38.9266
  0
LINE
  8
0
 10
134.536
 20
-38.9266
 11
134.361
 21
-38.8572
  0
LINE
  8
0
 10
134.361
 20
-38.8572
 11
134.196
 21
-38.7665
  0
LINE
  8
0
 10
134.196
 20
-38.7665
 11
134.044
 21
-38.6558
  0
LINE
  8
0
 10
134.044
 20
-38.6558
 11
133.907
 21
-38.5268
  0
LINE
  8
0
 10
133.907
 20
-38.5268
 11
133.786
 21
-38.3817
  0
LINE
  8
0
 10
133.786
 20
-38.3817
 11
133.686
 21
-38.2226
  0
LINE
  8
0
 10
133.686
 20
-38.2226
 11
133.605
 21
-38.0522
  0
LINE
  8
0
 10
133.605
 20
-38.0522
 11
133.547
 21
-37.873
  0
LINE
  8
0
 10
133.547
 20
-37.873
 11
133.512
 21
-37.688
  0
LINE
  8
0
 10
133.512
 20
-37.688
 11
133.5
 21
-37.5
  0
LINE
  8
0
 10
133.5
 20
-37.5
 11
133.512
 21
-37.312
  0
LINE
  8
0
 10
133.512
 20
-37.312
 11
133.547
 21
-37.127
  0
LINE
  8
0
 10
133.547
 20
-37.127
 11
133.605
 21
-36.9478
  0
LINE
  8
0
 10
133.605
 20
-36.9478
 11
133.686
 21
-36.7774
  0
LINE
  8
0
 10
133.686
 20
-36.7774
 11
133.786
 21
-36.6183
  0
LINE
  8
0
 10
133.786
 20
-36.6183
 11
133.907
 21
-36.4732
  0
LINE
  8
0
 10
133.907
 20
-36.4732
 11
134.044
 21
-36.3442
  0
LINE
  8
0
 10
134.044
 20
-36.3442
 11
134.196
 21
-36.2335
  0
LINE
  8
0
 10
134.196
 20
-36.2335
 11
134.361
 21
-36.1428
  0
LINE
  8
0
 10
134.361
 20
-36.1428
 11
134.536
 21
-36.0734
  0
LINE
  8
0
 10
134.536
 20
-36.0734
 11
134.719
 21
-36.0266
  0
LINE
  8
0
 10
134.719
 20
-36.0266
 11
134.906
 21
-36.003
  0
LINE
  8
0
 10
134.906
 20
-36.003
 11
135.094
 21
-36.003
  0
LINE
  8
0
 10
135.094
 20
-36.003
 11
135.281
 21
-36.0266
  0
LINE
  8
0
 10
135.281
 20
-36.0266
 11
135.464
 21
-36.0734
  0
LINE
  8
0
 10
135.464
 20
-36.0734
 11
135.639
 21
-36.1428
  0
LINE
  8
0
 10
135.639
 20
-36.1428
 11
135.804
 21
-36.2335
  0
LINE
  8
0
 10
135.804
 20
-36.2335
 11
135.956
 21
-36.3442
  0
LINE
  8
0
 10
135.956
 20
-36.3442
 11
136.093
 21
-36.4732
  0
LINE
  8
0
 10
136.093
 20
-36.4732
 11
136.214
 21
-36.6183
  0
LINE
  8
0
 10
136.214
 20
-36.6183
 11
136.314
 21
-36.7774
  0
LINE
  8
0
 10
136.314
 20
-36.7774
 11
136.395
 21
-36.9478
  0
LINE
  8
0
 10
136.395
 20
-36.9478
 11
136.453
 21
-37.127
  0
LINE
  8
0
 10
136.453
 20
-37.127
 11
136.488
 21
-37.312
  0
LINE
  8
0
 10
136.488
 20
-37.312
 11
136.5
 21
-37.5
  0
LINE
  8
0
 10
136.5
 20
-37.5
 11
136.488
 21
-37.688
  0
LINE
  8
0
 10
136.488
 20
-37.688
 11
136.453
 21
-37.873
  0
LINE
  8
0
 10
136.453
 20
-37.873
 11
136.395
 21
-38.0522
  0
LINE
  8
0
 10
136.395
 20
-38.0522
 11
136.314
 21
-38.2226
  0
LINE
  8
0
 10
136.314
 20
-38.2226
 11
136.214
 21
-38.3817
  0
LINE
  8
0
 10
136.214
 20
-38.3817
 11
136.093
 21
-38.5268
  0
LINE
  8
0
 10
136.093
 20
-38.5268
 11
135.956
 21
-38.6558
  0
LINE
  8
0
 10
135.956
 20
-38.6558
 11
135.804
 21
-38.7665
  0
LINE
  8
0
 10
135.804
 20
-38.7665
 11
135.639
 21
-38.8572
  0
LINE
  8
0
 10
135.639
 20
-38.8572
 11
135.464
 21
-38.9266
  0
LINE
  8
0
 10
135.464
 20
-38.9266
 11
135.281
 21
-38.9734
  0
LINE
  8
0
 10
135.281
 20
-38.9734
 11
135.094
 21
-38.997
  0
LINE
  8
0
 10
135.094
 20
-38.997
 11
134.906
 21
-38.997
  0
LINE
  8
0
 10
134.812
 20
-47.9941
 11
134.438
 21
-47.9469
  0
LINE
  8
0
 10
134.438
 20
-47.9469
 11
134.073
 21
-47.8532
  0
LINE
  8
0
 10
134.073
 20
-47.8532
 11
133.723
 21
-47.7145
  0
LINE
  8
0
 10
133.723
 20
-47.7145
 11
133.393
 21
-47.533
  0
LINE
  8
0
 10
133.393
 20
-47.533
 11
133.088
 21
-47.3115
  0
LINE
  8
0
 10
133.088
 20
-47.3115
 11
132.813
 21
-47.0536
  0
LINE
  8
0
 10
132.813
 20
-47.0536
 11
132.573
 21
-46.7634
  0
LINE
  8
0
 10
132.573
 20
-46.7634
 11
132.371
 21
-46.4453
  0
LINE
  8
0
 10
132.371
 20
-46.4453
 11
132.211
 21
-46.1044
  0
LINE
  8
0
 10
132.211
 20
-46.1044
 11
132.094
 21
-45.7461
  0
LINE
  8
0
 10
132.094
 20
-45.7461
 11
132.024
 21
-45.376
  0
LINE
  8
0
 10
132.024
 20
-45.376
 11
132
 21
-45
  0
LINE
  8
0
 10
132
 20
-45
 11
132.024
 21
-44.624
  0
LINE
  8
0
 10
132.024
 20
-44.624
 11
132.094
 21
-44.2539
  0
LINE
  8
0
 10
132.094
 20
-44.2539
 11
132.211
 21
-43.8956
  0
LINE
  8
0
 10
132.211
 20
-43.8956
 11
132.371
 21
-43.5547
  0
LINE
  8
0
 10
132.371
 20
-43.5547
 11
132.573
 21
-43.2366
  0
LINE
  8
0
 10
132.573
 20
-43.2366
 11
132.813
 21
-42.9464
  0
LINE
  8
0
 10
132.813
 20
-42.9464
 11
133.088
 21
-42.6885
  0
LINE
  8
0
 10
133.088
 20
-42.6885
 11
133.393
 21
-42.467
  0
LINE
  8
0
 10
133.393
 20
-42.467
 11
133.723
 21
-42.2855
  0
LINE
  8
0
 10
133.723
 20
-42.2855
 11
134.073
 21
-42.1468
  0
LINE
  8
0
 10
134.073
 20
-42.1468
 11
134.438
 21
-42.0531
  0
LINE
  8
0
 10
134.438
 20
-42.0531
 11
134.812
 21
-42.0059
  0
LINE
  8
0
 10
134.812
 20
-42.0059
 11
135.188
 21
-42.0059
  0
LINE
  8
0
 10
135.188
 20
-42.0059
 11
135.562
 21
-42.0531
  0
LINE
  8
0
 10
135.562
 20
-42.0531
 11
135.927
 21
-42.1468
  0
LINE
  8
0
 10
135.927
 20
-42.1468
 11
136.277
 21
-42.2855
  0
LINE
  8
0
 10
136.277
 20
-42.2855
 11
136.607
 21
-42.467
  0
LINE
  8
0
 10
136.607
 20
-42.467
 11
136.912
 21
-42.6885
  0
LINE
  8
0
 10
136.912
 20
-42.6885
 11
137.187
 21
-42.9464
  0
LINE
  8
0
 10
137.187
 20
-42.9464
 11
137.427
 21
-43.2366
  0
LINE
  8
0
 10
137.427
 20
-43.2366
 11
137.629
 21
-43.5547
  0
LINE
  8
0
 10
137.629
 20
-43.5547
 11
137.789
 21
-43.8956
  0
LINE
  8
0
 10
137.789
 20
-43.8956
 11
137.906
 21
-44.2539
  0
LINE
  8
0
 10
137.906
 20
-44.2539
 11
137.976
 21
-44.624
  0
LINE
  8
0
 10
137.976
 20
-44.624
 11
138
 21
-45
  0
LINE
  8
0
 10
138
 20
-45
 11
137.976
 21
-45.376
  0
LINE
  8
0
 10
137.976
 20
-45.376
 11
137.906
 21
-45.7461
  0
LINE
  8
0
 10
137.906
 20
-45.7461
 11
137.789
 21
-46.1044
  0
LINE
  8
0
 10
137.789
 20
-46.1044
 11
137.629
 21
-46.4453
  0
LINE
  8
0
 10
137.629
 20
-46.4453
 11
137.427
 21
-46.7634
  0
LINE
  8
0
 10
137.427
 20
-46.7634
 11
137.187
 21
-47.0536
  0
LINE
  8
0
 10
137.187
 20
-47.0536
 11
136.912
 21
-47.3115
  0
LINE
  8
0
 10
136.912
 20
-47.3115
 11
136.607
 21
-47.533
  0
LINE
  8
0
 10
136.607
 20
-47.533
 11
136.277
 21
-47.7145
  0
LINE
  8
0
 10
136.277
 20
-47.7145
 11
135.927
 21
-47.8532
  0
LINE
  8
0
 10
135.927
 20
-47.8532
 11
135.562
 21
-47.9469
  0
LINE
  8
0
 10
135.562
 20
-47.9469
 11
135.188
 21
-47.9941
  0
LINE
  8
0
 10
135.188
 20
-47.9941
 11
134.812
 21
-47.9941
  0
LINE
  8
0
 10
-135.188
 20
-47.9941
 11
-135.562
 21
-47.9469
  0
LINE
  8
0
 10
-135.562
 20
-47.9469
 11
-135.927
 21
-47.8532
  0
LINE
  8
0
 10
-135.927
 20
-47.8532
 11
-136.277
 21
-47.7145
  0
LINE
  8
0
 10
-136.277
 20
-47.7145
 11
-136.607
 21
-47.533
  0
LINE
  8
0
 10
-136.607
 20
-47.533
 11
-136.912
 21
-47.3115
  0
LINE
  8
0
 10
-136.912
 20
-47.3115
 11
-137.187
 21
-47.0536
  0
LINE
  8
0
 10
-137.187
 20
-47.0536
 11
-137.427
 21
-46.7634
  0
LINE
  8
0
 10
-137.427
 20
-46.7634
 11
-137.629
 21
-46.4453
  0
LINE
  8
0
 10
-137.629
 20
-46.4453
 11
-137.789
 21
-46.1044
  0
LINE
  8
0
 10
-137.789
 20
-46.1044
 11
-137.906
 21
-45.7461
  0
LINE
  8
0
 10
-137.906
 20
-45.7461
 11
-137.976
 21
-45.376
  0
LINE
  8
0
 10
-137.976
 20
-45.376
 11
-138
 21
-45
  0
LINE
  8
0
 10
-138
 20
-45
 11
-137.976
 21
-44.624
  0
LINE
  8
0
 10
-137.976
 20
-44.624
 11
-137.906
 21
-44.2539
  0
LINE
  8
0
 10
-137.906
 20
-44.2539
 11
-137.789
 21
-43.8956
  0
LINE
  8
0
 10
-137.789
 20
-43.8956
 11
-137.629
 21
-43.5547
  0
LINE
  8
0
 10
-137.629
 20
-43.5547
 11
-137.427
 21
-43.2366
  0
LINE
  8
0
 10
-137.427
 20
-43.2366
 11
-137.187
 21
-42.9464
  0
LINE
  8
0
 10
-137.187
 20
-42.9464
 11
-136.912
 21
-42.6885
  0
LINE
  8
0
 10
-136.912
 20
-42.6885
 11
-136.607
 21
-42.467
  0
LINE
  8
0
 10
-136.607
 20
-42.467
 11
-136.277
 21
-42.2855
  0
LINE
  8
0
 10
-136.277
 20
-42.2855
 11
-135.927
 21
-42.1468
  0
LINE
  8
0
 10
-135.927
 20
-42.1468
 11
-135.562
 21
-42.0531
  0
LINE
  8
0
 10
-135.562
 20
-42.0531
 11
-135.188
 21
-42.0059
  0
LINE
  8
0
 10
-135.188
 20
-42.0059
 11
-134.812
 21
-42.0059
  0
LINE
  8
0
 10
-134.812
 20
-42.0059
 11
-134.438
 21
-42.0531
  0
LINE
  8
0
 10
-134.438
 20
-42.0531
 11
-134.073
 21
-42.1468
  0
LINE
  8
0
 10
-134.073
 20
-42.1468
 11
-133.723
 21
-42.2855
  0
LINE
  8
0
 10
-133.723
 20
-42.2855
 11
-133.393
 21
-42.467
  0
LINE
  8
0
 10
-133.393
 20
-42.467
 11
-133.088
 21
-42.6885
  0
LINE
  8
0
 10
-133.088
 20
-42.6885
 11
-132.813
 21
-42.9464
  0
LINE
  8
0
 10
-132.813
 20
-42.9464
 11
-132.573
 21
-43.2366
  0
LINE
  8
0
 10
-132.573
 20
-43.2366
 11
-132.371
 21
-43.5547
  0
LINE
  8
0
 10
-132.371
 20
-43.5547
 11
-132.211
 21
-43.8956
  0
LINE
  8
0
 10
-132.211
 20
-43.8956
 11
-132.094
 21
-44.2539
  0
LINE
  8
0
 10
-132.094
 20
-44.2539
 11
-132.024
 21
-44.624
  0
LINE
  8
0
 10
-132.024
 20
-44.624
 11
-132
 21
-45
  0
LINE
  8
0
 10
-132
 20
-45
 11
-132.024
 21
-45.376
  0
LINE
  8
0
 10
-132.024
 20
-45.376
 11
-132.094
 21
-45.7461
  0
LINE
  8
0
 10
-132.094
 20
-45.7461
 11
-132.211
 21
-46.1044
  0
LINE
  8
0
 10
-132.211
 20
-46.1044
 11
-132.371
 21
-46.4453
  0
LINE
  8
0
 10
-132.371
 20
-46.4453
 11
-132.573
 21
-46.7634
  0
LINE
  8
0
 10
-132.573
 20
-46.7634
 11
-132.813
 21
-47.0536
  0
LINE
  8
0
 10
-132.813
 20
-47.0536
 11
-133.088
 21
-47.3115
  0
LINE
  8
0
 10
-133.088
 20
-47.3115
 11
-133.393
 21
-47.533
  0
LINE
  8
0
 10
-133.393
 20
-47.533
 11
-133.723
 21
-47.7145
  0
LINE
  8
0
 10
-133.723
 20
-47.7145
 11
-134.073
 21
-47.8532
  0
LINE
  8
0
 10
-134.073
 20
-47.8532
 11
-134.438
 21
-47.9469
  0
LINE
  8
0
 10
-134.438
 20
-47.9469
 11
-134.812
 21
-47.9941
  0
LINE
  8
0
 10
-134.812
 20
-47.9941
 11
-135.188
 21
-47.9941
  0
LINE
  8
0
 10
134.906
 20
-53.997
 11
134.719
 21
-53.9734
  0
LINE
  8
0
 10
134.719
 20
-53.9734
 11
134.536
 21
-53.9266
  0
LINE
  8
0
 10
134.536
 20
-53.9266
 11
134.361
 21
-53.8572
  0
LINE
  8
0
 10
134.361
 20
-53.8572
 11
134.196
 21
-53.7665
  0
LINE
  8
0
 10
134.196
 20
-53.7665
 11
134.044
 21
-53.6558
  0
LINE
  8
0
 10
134.044
 20
-53.6558
 11
133.907
 21
-53.5268
  0
LINE
  8
0
 10
133.907
 20
-53.5268
 11
133.786
 21
-53.3817
  0
LINE
  8
0
 10
133.786
 20
-53.3817
 11
133.686
 21
-53.2226
  0
LINE
  8
0
 10
133.686
 20
-53.2226
 11
133.605
 21
-53.0522
  0
LINE
  8
0
 10
133.605
 20
-53.0522
 11
133.547
 21
-52.873
  0
LINE
  8
0
 10
133.547
 20
-52.873
 11
133.512
 21
-52.688
  0
LINE
  8
0
 10
133.512
 20
-52.688
 11
133.5
 21
-52.5
  0
LINE
  8
0
 10
133.5
 20
-52.5
 11
133.512
 21
-52.312
  0
LINE
  8
0
 10
133.512
 20
-52.312
 11
133.547
 21
-52.127
  0
LINE
  8
0
 10
133.547
 20
-52.127
 11
133.605
 21
-51.9478
  0
LINE
  8
0
 10
133.605
 20
-51.9478
 11
133.686
 21
-51.7774
  0
LINE
  8
0
 10
133.686
 20
-51.7774
 11
133.786
 21
-51.6183
  0
LINE
  8
0
 10
133.786
 20
-51.6183
 11
133.907
 21
-51.4732
  0
LINE
  8
0
 10
133.907
 20
-51.4732
 11
134.044
 21
-51.3442
  0
LINE
  8
0
 10
134.044
 20
-51.3442
 11
134.196
 21
-51.2335
  0
LINE
  8
0
 10
134.196
 20
-51.2335
 11
134.361
 21
-51.1428
  0
LINE
  8
0
 10
134.361
 20
-51.1428
 11
134.536
 21
-51.0734
  0
LINE
  8
0
 10
134.536
 20
-51.0734
 11
134.719
 21
-51.0266
  0
LINE
  8
0
 10
134.719
 20
-51.0266
 11
134.906
 21
-51.003
  0
LINE
  8
0
 10
134.906
 20
-51.003
 11
135.094
 21
-51.003
  0
LINE
  8
0
 10
135.094
 20
-51.003
 11
135.281
 21
-51.0266
  0
LINE
  8
0
 10
135.281
 20
-51.0266
 11
135.464
 21
-51.0734
  0
LINE
  8
0
 10
135.464
 20
-51.0734
 11
135.639
 21
-51.1428
  0
LINE
  8
0
 10
135.639
 20
-51.1428
 11
135.804
 21
-51.2335
  0
LINE
  8
0
 10
135.804
 20
-51.2335
 11
135.956
 21
-51.3442
  0
LINE
  8
0
 10
135.956
 20
-51.3442
 11
136.093
 21
-51.4732
  0
LINE
  8
0
 10
136.093
 20
-51.4732
 11
136.214
 21
-51.6183
  0
LINE
  8
0
 10
136.214
 20
-51.6183
 11
136.314
 21
-51.7774
  0
LINE
  8
0
 10
136.314
 20
-51.7774
 11
136.395
 21
-51.9478
  0
LINE
  8
0
 10
136.395
 20
-51.9478
 11
136.453
 21
-52.127
  0
LINE
  8
0
 10
136.453
 20
-52.127
 11
136.488
 21
-52.312
  0
LINE
  8
0
 10
136.488
 20
-52.312
 11
136.5
 21
-52.5
  0
LINE
  8
0
 10
136.5
 20
-52.5
 11
136.488
 21
-52.688
  0
LINE
  8
0
 10
136.488
 20
-52.688
 11
136.453
 21
-52.873
  0
LINE
  8
0
 10
136.453
 20
-52.873
 11
136.395
 21
-53.0522
  0
LINE
  8
0
 10
136.395
 20
-53.0522
 11
136.314
 21
-53.2226
  0
LINE
  8
0
 10
136.314
 20
-53.2226
 11
136.214
 21
-53.3817
  0
LINE
  8
0
 10
136.214
 20
-53.3817
 11
136.093
 21
-53.5268
  0
LINE
  8
0
 10
136.093
 20
-53.5268
 11
135.956
 21
-53.6558
  0
LINE
  8
0
 10
135.956
 20
-53.6558
 11
135.804
 21
-53.7665
  0
LINE
  8
0
 10
135.804
 20
-53.7665
 11
135.639
 21
-53.8572
  0
LINE
  8
0
 10
135.639
 20
-53.8572
 11
135.464
 21
-53.9266
  0
LINE
  8
0
 10
135.464
 20
-53.9266
 11
135.281
 21
-53.9734
  0
LINE
  8
0
 10
135.281
 20
-53.9734
 11
135.094
 21
-53.997
  0
LINE
  8
0
 10
135.094
 20
-53.997
 11
134.906
 21
-53.997
  0
LINE
  8
0
 10
-135.094
 20
-53.997
 11
-135.281
 21
-53.9734
  0
LINE
  8
0
 10
-135.281
 20
-53.9734
 11
-135.464
 21
-53.9266
  0
LINE
  8
0
 10
-135.464
 20
-53.9266
 11
-135.639
 21
-53.8572
  0
LINE
  8
0
 10
-135.639
 20
-53.8572
 11
-135.804
 21
-53.7665
  0
LINE
  8
0
 10
-135.804
 20
-53.7665
 11
-135.956
 21
-53.6558
  0
LINE
  8
0
 10
-135.956
 20
-53.6558
 11
-136.093
 21
-53.5268
  0
LINE
  8
0
 10
-136.093
 20
-53.5268
 11
-136.214
 21
-53.3817
  0
LINE
  8
0
 10
-136.214
 20
-53.3817
 11
-136.314
 21
-53.2226
  0
LINE
  8
0
 10
-136.314
 20
-53.2226
 11
-136.395
 21
-53.0522
  0
LINE
  8
0
 10
-136.395
 20
-53.0522
 11
-136.453
 21
-52.873
  0
LINE
  8
0
 10
-136.453
 20
-52.873
 11
-136.488
 21
-52.688
  0
LINE
  8
0
 10
-136.488
 20
-52.688
 11
-136.5
 21
-52.5
  0
LINE
  8
0
 10
-136.5
 20
-52.5
 11
-136.488
 21
-52.312
  0
LINE
  8
0
 10
-136.488
 20
-52.312
 11
-136.453
 21
-52.127
  0
LINE
  8
0
 10
-136.453
 20
-52.127
 11
-136.395
 21
-51.9478
  0
LINE
  8
0
 10
-136.395
 20
-51.9478
 11
-136.314
 21
-51.7774
  0
LINE
  8
0
 10
-136.314
 20
-51.7774
 11
-136.214
 21
-51.6183
  0
LINE
  8
0
 10
-136.214
 20
-51.6183
 11
-136.093
 21
-51.4732
  0
LINE
  8
0
 10
-136.093
 20
-51.4732
 11
-135.956
 21
-51.3442
  0
LINE
  8
0
 10
-135.956
 20
-51.3442
 11
-135.804
 21
-51.2335
  0
LINE
  8
0
 10
-135.804
 20
-51.2335
 11
-135.639
 21
-51.1428
  0
LINE
  8
0
 10
-135.639
 20
-51.1428
 11
-135.464
 21
-51.0734
  0
LINE
  8
0
 10
-135.464
 20
-51.0734
 11
-135.281
 21
-51.0266
  0
LINE
  8
0
 10
-135.281
 20
-51.0266
 11
-135.094
 21
-51.003
  0
LINE
  8
0
 10
-135.094
 20
-51.003
 11
-134.906
 21
-51.003
  0
LINE
  8
0
 10
-134.906
 20
-51.003
 11
-134.719
 21
-51.0266
  0
LINE
  8
0
 10
-134.719
 20
-51.0266
 11
-134.536
 21
-51.0734
  0
LINE
  8
0
 10
-134.536
 20
-51.0734
 11
-134.361
 21
-51.1428
  0
LINE
  8
0
 10
-134.361
 20
-51.1428
 11
-134.196
 21
-51.2335
  0
LINE
  8
0
 10
-134.196
 20
-51.2335
 11
-134.044
 21
-51.3442
  0
LINE
  8
0
 10
-134.044
 20
-51.3442
 11
-133.907
 21
-51.4732
  0
LINE
  8
0
 10
-133.907
 20
-51.4732
 11
-133.786
 21
-51.6183
  0
LINE
  8
0
 10
-133.786
 20
-51.6183
 11
-133.686
 21
-51.7774
  0
LINE
  8
0
 10
-133.686
 20
-51.7774
 11
-133.605
 21
-51.9478
  0
LINE
  8
0
 10
-133.605
 20
-51.9478
 11
-133.547
 21
-52.127
  0
LINE
  8
0
 10
-133.547
 20
-52.127
 11
-133.512
 21
-52.312
  0
LINE
  8
0
 10
-133.512
 20
-52.312
 11
-133.5
 21
-52.5
  0
LINE
  8
0
 10
-133.5
 20
-52.5
 11
-133.512
 21
-52.688
  0
LINE
  8
0
 10
-133.512
 20
-52.688
 11
-133.547
 21
-52.873
  0
LINE
  8
0
 10
-133.547
 20
-52.873
 11
-133.605
 21
-53.0522
  0
LINE
  8
0
 10
-133.605
 20
-53.0522
 11
-133.686
 21
-53.2226
  0
LINE
  8
0
 10
-133.686
 20
-53.2226
 11
-133.786
 21
-53.3817
  0
LINE
  8
0
 10
-133.786
 20
-53.3817
 11
-133.907
 21
-53.5268
  0
LINE
  8
0
 10
-133.907
 20
-53.5268
 11
-134.044
 21
-53.6558
  0
LINE
  8
0
 10
-134.044
 20
-53.6558
 11
-134.196
 21
-53.7665
  0
LINE
  8
0
 10
-134.196
 20
-53.7665
 11
-134.361
 21
-53.8572
  0
LINE
  8
0
 10
-134.361
 20
-53.8572
 11
-134.536
 21
-53.9266
  0
LINE
  8
0
 10
-134.536
 20
-53.9266
 11
-134.719
 21
-53.9734
  0
LINE
  8
0
 10
-134.719
 20
-53.9734
 11
-134.906
 21
-53.997
  0
LINE
  8
0
 10
-134.906
 20
-53.997
 11
-135.094
 21
-53.997
  0
LINE
  8
0
 10
-135.188
 20
-62.9941
 11
-135.562
 21
-62.9469
  0
LINE
  8
0
 10
-135.562
 20
-62.9469
 11
-135.927
 21
-62.8532
  0
LINE
  8
0
 10
-135.927
 20
-62.8532
 11
-136.277
 21
-62.7145
  0
LINE
  8
0
 10
-136.277
 20
-62.7145
 11
-136.607
 21
-62.533
  0
LINE
  8
0
 10
-136.607
 20
-62.533
 11
-136.912
 21
-62.3115
  0
LINE
  8
0
 10
-136.912
 20
-62.3115
 11
-137.187
 21
-62.0536
  0
LINE
  8
0
 10
-137.187
 20
-62.0536
 11
-137.427
 21
-61.7634
  0
LINE
  8
0
 10
-137.427
 20
-61.7634
 11
-137.629
 21
-61.4453
  0
LINE
  8
0
 10
-137.629
 20
-61.4453
 11
-137.789
 21
-61.1044
  0
LINE
  8
0
 10
-137.789
 20
-61.1044
 11
-137.906
 21
-60.7461
  0
LINE
  8
0
 10
-137.906
 20
-60.7461
 11
-137.976
 21
-60.376
  0
LINE
  8
0
 10
-137.976
 20
-60.376
 11
-138
 21
-60
  0
LINE
  8
0
 10
-138
 20
-60
 11
-137.976
 21
-59.624
  0
LINE
  8
0
 10
-137.976
 20
-59.624
 11
-137.906
 21
-59.2539
  0
LINE
  8
0
 10
-137.906
 20
-59.2539
 11
-137.789
 21
-58.8956
  0
LINE
  8
0
 10
-137.789
 20
-58.8956
 11
-137.629
 21
-58.5547
  0
LINE
  8
0
 10
-137.629
 20
-58.5547
 11
-137.427
 21
-58.2366
  0
LINE
  8
0
 10
-137.427
 20
-58.2366
 11
-137.187
 21
-57.9464
  0
LINE
  8
0
 10
-137.187
 20
-57.9464
 11
-136.912
 21
-57.6885
  0
LINE
  8
0
 10
-136.912
 20
-57.6885
 11
-136.607
 21
-57.467
  0
LINE
  8
0
 10
-136.607
 20
-57.467
 11
-136.277
 21
-57.2855
  0
LINE
  8
0
 10
-136.277
 20
-57.2855
 11
-135.927
 21
-57.1468
  0
LINE
  8
0
 10
-135.927
 20
-57.1468
 11
-135.562
 21
-57.0531
  0
LINE
  8
0
 10
-135.562
 20
-57.0531
 11
-135.188
 21
-57.0059
  0
LINE
  8
0
 10
-135.188
 20
-57.0059
 11
-134.812
 21
-57.0059
  0
LINE
  8
0
 10
-134.812
 20
-57.0059
 11
-134.438
 21
-57.0531
  0
LINE
  8
0
 10
-134.438
 20
-57.0531
 11
-134.073
 21
-57.1468
  0
LINE
  8
0
 10
-134.073
 20
-57.1468
 11
-133.723
 21
-57.2855
  0
LINE
  8
0
 10
-133.723
 20
-57.2855
 11
-133.393
 21
-57.467
  0
LINE
  8
0
 10
-133.393
 20
-57.467
 11
-133.088
 21
-57.6885
  0
LINE
  8
0
 10
-133.088
 20
-57.6885
 11
-132.813
 21
-57.9464
  0
LINE
  8
0
 10
-132.813
 20
-57.9464
 11
-132.573
 21
-58.2366
  0
LINE
  8
0
 10
-132.573
 20
-58.2366
 11
-132.371
 21
-58.5547
  0
LINE
  8
0
 10
-132.371
 20
-58.5547
 11
-132.211
 21
-58.8956
  0
LINE
  8
0
 10
-132.211
 20
-58.8956
 11
-132.094
 21
-59.2539
  0
LINE
  8
0
 10
-132.094
 20
-59.2539
 11
-132.024
 21
-59.624
  0
LINE
  8
0
 10
-132.024
 20
-59.624
 11
-132
 21
-60
  0
LINE
  8
0
 10
-132
 20
-60
 11
-132.024
 21
-60.376
  0
LINE
  8
0
 10
-132.024
 20
-60.376
 11
-132.094
 21
-60.7461
  0
LINE
  8
0
 10
-132.094
 20
-60.7461
 11
-132.211
 21
-61.1044
  0
LINE
  8
0
 10
-132.211
 20
-61.1044
 11
-132.371
 21
-61.4453
  0
LINE
  8
0
 10
-132.371
 20
-61.4453
 11
-132.573
 21
-61.7634
  0
LINE
  8
0
 10
-132.573
 20
-61.7634
 11
-132.813
 21
-62.0536
  0
LINE
  8
0
 10
-132.813
 20
-62.0536
 11
-133.088
 21
-62.3115
  0
LINE
  8
0
 10
-133.088
 20
-62.3115
 11
-133.393
 21
-62.533
  0
LINE
  8
0
 10
-133.393
 20
-62.533
 11
-133.723
 21
-62.7145
  0
LINE
  8
0
 10
-133.723
 20
-62.7145
 11
-134.073
 21
-62.8532
  0
LINE
  8
0
 10
-134.073
 20
-62.8532
 11
-134.438
 21
-62.9469
  0
LINE
  8
0
 10
-134.438
 20
-62.9469
 11
-134.812
 21
-62.9941
  0
LINE
  8
0
 10
-134.812
 20
-62.9941
 11
-135.188
 21
-62.9941
  0
LINE
  8
0
 10
134.812
 20
-62.9941
 11
134.438
 21
-62.9469
  0
LINE
  8
0
 10
134.438
 20
-62.9469
 11
134.073
 21
-62.8532
  0
LINE
  8
0
 10
134.073
 20
-62.8532
 11
133.723
 21
-62.7145
  0
LINE
  8
0
 10
133.723
 20
-62.7145
 11
133.393
 21
-62.533
  0
LINE
  8
0
 10
133.393
 20
-62.533
 11
133.088
 21
-62.3115
  0
LINE
  8
0
 10
133.088
 20
-62.3115
 11
132.813
 21
-62.0536
  0
LINE
  8
0
 10
132.813
 20
-62.0536
 11
132.573
 21
-61.7634
  0
LINE
  8
0
 10
132.573
 20
-61.7634
 11
132.371
 21
-61.4453
  0
LINE
  8
0
 10
132.371
 20
-61.4453
 11
132.211
 21
-61.1044
  0
LINE
  8
0
 10
132.211
 20
-61.1044
 11
132.094
 21
-60.7461
  0
LINE
  8
0
 10
132.094
 20
-60.7461
 11
132.024
 21
-60.376
  0
LINE
  8
0
 10
132.024
 20
-60.376
 11
132
 21
-60
  0
LINE
  8
0
 10
132
 20
-60
 11
132.024
 21
-59.624
  0
LINE
  8
0
 10
132.024
 20
-59.624
 11
132.094
 21
-59.2539
  0
LINE
  8
0
 10
132.094
 20
-59.2539
 11
132.211
 21
-58.8956
  0
LINE
  8
0
 10
132.211
 20
-58.8956
 11
132.371
 21
-58.5547
  0
LINE
  8
0
 10
132.371
 20
-58.5547
 11
132.573
 21
-58.2366
  0
LINE
  8
0
 10
132.573
 20
-58.2366
 11
132.813
 21
-57.9464
  0
LINE
  8
0
 10
132.813
 20
-57.9464
 11
133.088
 21
-57.6885
  0
LINE
  8
0
 10
133.088
 20
-57.6885
 11
133.393
 21
-57.467
  0
LINE
  8
0
 10
133.393
 20
-57.467
 11
133.723
 21
-57.2855
  0
LINE
  8
0
 10
133.723
 20
-57.2855
 11
134.073
 21
-57.1468
  0
LINE
  8
0
 10
134.073
 20
-57.1468
 11
134.438
 21
-57.0531
  0
LINE
  8
0
 10
134.438
 20
-57.0531
 11
134.812
 21
-57.0059
  0
LINE
  8
0
 10
134.812
 20
-57.0059
 11
135.188
 21
-57.0059
  0
LINE
  8
0
 10
135.188
 20
-57.0059
 11
135.562
 21
-57.0531
  0
LINE
  8
0
 10
135.562
 20
-57.0531
 11
135.927
 21
-57.1468
  0
LINE
  8
0
 10
135.927
 20
-57.1468
 11
136.277
 21
-57.2855
  0
LINE
  8
0
 10
136.277
 20
-57.2855
 11
136.607
 21
-57.467
  0
LINE
  8
0
 10
136.607
 20
-57.467
 11
136.912
 21
-57.6885
  0
LINE
  8
0
 10
136.912
 20
-57.6885
 11
137.187
 21
-57.9464
  0
LINE
  8
0
 10
137.187
 20
-57.9464
 11
137.427
 21
-58.2366
  0
LINE
  8
0
 10
137.427
 20
-58.2366
 11
137.629
 21
-58.5547
  0
LINE
  8
0
 10
137.629
 20
-58.5547
 11
137.789
 21
-58.8956
  0
LINE
  8
0
 10
137.789
 20
-58.8956
 11
137.906
 21
-59.2539
  0
LINE
  8
0
 10
137.906
 20
-59.2539
 11
137.976
 21
-59.624
  0
LINE
  8
0
 10
137.976
 20
-59.624
 11
138
 21
-60
  0
LINE
  8
0
 10
138
 20
-60
 11
137.976
 21
-60.376
  0
LINE
  8
0
 10
137.976
 20
-60.376
 11
137.906
 21
-60.7461
  0
LINE
  8
0
 10
137.906
 20
-60.7461
 11
137.789
 21
-61.1044
  0
LINE
  8
0
 10
137.789
 20
-61.1044
 11
137.629
 21
-61.4453
  0
LINE
  8
0
 10
137.629
 20
-61.4453
 11
137.427
 21
-61.7634
  0
LINE
  8
0
 10
137.427
 20
-61.7634
 11
137.187
 21
-62.0536
  0
LINE
  8
0
 10
137.187
 20
-62.0536
 11
136.912
 21
-62.3115
  0
LINE
  8
0
 10
136.912
 20
-62.3115
 11
136.607
 21
-62.533
  0
LINE
  8
0
 10
136.607
 20
-62.533
 11
136.277
 21
-62.7145
  0
LINE
  8
0
 10
136.277
 20
-62.7145
 11
135.927
 21
-62.8532
  0
LINE
  8
0
 10
135.927
 20
-62.8532
 11
135.562
 21
-62.9469
  0
LINE
  8
0
 10
135.562
 20
-62.9469
 11
135.188
 21
-62.9941
  0
LINE
  8
0
 10
135.188
 20
-62.9941
 11
134.812
 21
-62.9941
  0
ENDSEC
  0
SECTION
  2
OBJECTS
  0
DICTIONARY
  0
ENDSEC
  0
EOF
