<?xml version="1.0" standalone="no"?>
<!DOCTYPE svg PUBLIC "-//W3C//DTD SVG 1.1//EN" "http://www.w3.org/Graphics/SVG/1.1/DTD/svg11.dtd">
<svg width="150mm" height="44mm" viewBox="-75 -76 150 44" xmlns="http://www.w3.org/2000/svg" version="1.1">
<title>OpenSCAD Model</title>
<path d="
M 70.4369,-32.0886 L 71.0451,-32.2447 L 71.6289,-32.4759 L 72.1791,-32.7784 L 72.6871,-33.1474 L 73.1448,-33.5773
 L 73.5451,-34.0611 L 73.8815,-34.5912 L 74.1489,-35.1594 L 74.3429,-35.7566 L 74.4606,-36.3733 L 74.5,-37
 L 74.5,-71 L 74.4606,-71.6267 L 74.3429,-72.2434 L 74.1489,-72.8406 L 73.8815,-73.4088 L 73.5451,-73.9389
 L 73.1448,-74.4227 L 72.6871,-74.8526 L 72.1791,-75.2216 L 71.6289,-75.5241 L 71.0451,-75.7553 L 70.4369,-75.9114
 L 69.8139,-75.9901 L -69.8139,-75.9901 L -70.4369,-75.9114 L -71.0451,-75.7553 L -71.6289,-75.5241 L -72.1791,-75.2216
 L -72.6871,-74.8526 L -73.1448,-74.4227 L -73.5451,-73.9389 L -73.8815,-73.4088 L -74.1489,-72.8406 L -74.3429,-72.2434
 L -74.4606,-71.6267 L -74.5,-71 L -74.5,-37 L -74.4606,-36.3733 L -74.3429,-35.7566 L -74.1489,-35.1594
 L -73.8815,-34.5912 L -73.5451,-34.0611 L -73.1448,-33.5773 L -72.6871,-33.1474 L -72.1791,-32.7784 L -71.6289,-32.4759
 L -71.0451,-32.2447 L -70.4369,-32.0886 L -69.8139,-32.0099 L 69.8139,-32.0099 z
M 67.3116,-66.0059 L 66.9379,-66.0531 L 66.573,-66.1468 L 66.2227,-66.2855 L 65.8925,-66.467 L 65.5877,-66.6884
 L 65.3131,-66.9464 L 65.073,-67.2366 L 64.8711,-67.5547 L 64.7107,-67.8956 L 64.5943,-68.2539 L 64.5237,-68.624
 L 64.5,-69 L 64.5237,-69.376 L 64.5943,-69.7461 L 64.7107,-70.1044 L 64.8711,-70.4453 L 65.073,-70.7634
 L 65.3131,-71.0536 L 65.5877,-71.3115 L 65.8925,-71.533 L 66.2227,-71.7145 L 66.573,-71.8532 L 66.9379,-71.9469
 L 67.3116,-71.9941 L 67.6884,-71.9941 L 68.0621,-71.9469 L 68.427,-71.8532 L 68.7773,-71.7145 L 69.1075,-71.533
 L 69.4123,-71.3115 L 69.6869,-71.0536 L 69.927,-70.7634 L 70.1289,-70.4453 L 70.2893,-70.1044 L 70.4057,-69.7461
 L 70.4763,-69.376 L 70.5,-69 L 70.4763,-68.624 L 70.4057,-68.2539 L 70.2893,-67.8956 L 70.1289,-67.5547
 L 69.927,-67.2366 L 69.6869,-66.9464 L 69.4123,-66.6884 L 69.1075,-66.467 L 68.7773,-66.2855 L 68.427,-66.1468
 L 68.0621,-66.0531 L 67.6884,-66.0059 z
M -67.6884,-66.0059 L -68.0621,-66.0531 L -68.427,-66.1468 L -68.7773,-66.2855 L -69.1075,-66.467 L -69.4123,-66.6884
 L -69.6869,-66.9464 L -69.927,-67.2366 L -70.1289,-67.5547 L -70.2893,-67.8956 L -70.4057,-68.2539 L -70.4763,-68.624
 L -70.5,-69 L -70.4763,-69.376 L -70.4057,-69.7461 L -70.2893,-70.1044 L -70.1289,-70.4453 L -69.927,-70.7634
 L -69.6869,-71.0536 L -69.4123,-71.3115 L -69.1075,-71.533 L -68.7773,-71.7145 L -68.427,-71.8532 L -68.0621,-71.9469
 L -67.6884,-71.9941 L -67.3116,-71.9941 L -66.9379,-71.9469 L -66.573,-71.8532 L -66.2227,-71.7145 L -65.8925,-71.533
 L -65.5877,-71.3115 L -65.3131,-71.0536 L -65.073,-70.7634 L -64.8711,-70.4453 L -64.7107,-70.1044 L -64.5943,-69.7461
 L -64.5237,-69.376 L -64.5,-69 L -64.5237,-68.624 L -64.5943,-68.2539 L -64.7107,-67.8956 L -64.8711,-67.5547
 L -65.073,-67.2366 L -65.3131,-66.9464 L -65.5877,-66.6884 L -65.8925,-66.467 L -66.2227,-66.2855 L -66.573,-66.1468
 L -66.9379,-66.0531 L -67.3116,-66.0059 z
M 27.2779,-42.5227 L 25.8451,-42.7037 L 24.4463,-43.0629 L 23.1035,-43.5945 L 21.838,-44.2902 L 20.6696,-45.1391
 L 19.6169,-46.1277 L 18.6963,-47.2405 L 17.9225,-48.4598 L 17.3076,-49.7666 L 16.8613,-51.1401 L 16.5907,-52.5587
 L 16.5,-54 L 16.5907,-55.4413 L 16.8613,-56.8599 L 17.3076,-58.2334 L 17.9225,-59.5402 L 18.6963,-60.7595
 L 19.6169,-61.8723 L 20.6696,-62.8609 L 21.838,-63.7098 L 23.1035,-64.4055 L 24.4463,-64.9371 L 25.8451,-65.2963
 L 27.2779,-65.4773 L 28.7221,-65.4773 L 30.1549,-65.2963 L 31.5537,-64.9371 L 32.8965,-64.4055 L 34.162,-63.7098
 L 35.3304,-62.8609 L 36.3831,-61.8723 L 37.3037,-60.7595 L 38.0775,-59.5402 L 38.6924,-58.2334 L 39.1387,-56.8599
 L 39.4093,-55.4413 L 39.5,-54 L 39.4093,-52.5587 L 39.1387,-51.1401 L 38.6924,-49.7666 L 38.0775,-48.4598
 L 37.3037,-47.2405 L 36.3831,-46.1277 L 35.3304,-45.1391 L 34.162,-44.2902 L 32.8965,-43.5945 L 31.5537,-43.0629
 L 30.1549,-42.7037 L 28.7221,-42.5227 z
M 55.2779,-42.5227 L 53.8451,-42.7037 L 52.4463,-43.0629 L 51.1035,-43.5945 L 49.838,-44.2902 L 48.6696,-45.1391
 L 47.6169,-46.1277 L 46.6963,-47.2405 L 45.9225,-48.4598 L 45.3076,-49.7666 L 44.8613,-51.1401 L 44.5907,-52.5587
 L 44.5,-54 L 44.5907,-55.4413 L 44.8613,-56.8599 L 45.3076,-58.2334 L 45.9225,-59.5402 L 46.6963,-60.7595
 L 47.6169,-61.8723 L 48.6696,-62.8609 L 49.838,-63.7098 L 51.1035,-64.4055 L 52.4463,-64.9371 L 53.8451,-65.2963
 L 55.2779,-65.4773 L 56.7221,-65.4773 L 58.1549,-65.2963 L 59.5537,-64.9371 L 60.8965,-64.4055 L 62.162,-63.7098
 L 63.3304,-62.8609 L 64.3831,-61.8723 L 65.3037,-60.7595 L 66.0775,-59.5402 L 66.6924,-58.2334 L 67.1387,-56.8599
 L 67.4093,-55.4413 L 67.5,-54 L 67.4093,-52.5587 L 67.1387,-51.1401 L 66.6924,-49.7666 L 66.0775,-48.4598
 L 65.3037,-47.2405 L 64.3831,-46.1277 L 63.3304,-45.1391 L 62.162,-44.2902 L 60.8965,-43.5945 L 59.5537,-43.0629
 L 58.1549,-42.7037 L 56.7221,-42.5227 z
M -0.722076,-42.5227 L -2.15488,-42.7037 L -3.55368,-43.0629 L -4.89645,-43.5945 L -6.162,-44.2902 L -7.33037,-45.1391
 L -8.38313,-46.1277 L -9.30368,-47.2405 L -10.0775,-48.4598 L -10.6924,-49.7666 L -11.1387,-51.1401 L -11.4093,-52.5587
 L -11.5,-54 L -11.4093,-55.4413 L -11.1387,-56.8599 L -10.6924,-58.2334 L -10.0775,-59.5402 L -9.30368,-60.7595
 L -8.38313,-61.8723 L -7.33037,-62.8609 L -6.162,-63.7098 L -4.89645,-64.4055 L -3.55368,-64.9371 L -2.15488,-65.2963
 L -0.722076,-65.4773 L 0.722076,-65.4773 L 2.15488,-65.2963 L 3.55368,-64.9371 L 4.89645,-64.4055 L 6.162,-63.7098
 L 7.33037,-62.8609 L 8.38313,-61.8723 L 9.30368,-60.7595 L 10.0775,-59.5402 L 10.6924,-58.2334 L 11.1387,-56.8599
 L 11.4093,-55.4413 L 11.5,-54 L 11.4093,-52.5587 L 11.1387,-51.1401 L 10.6924,-49.7666 L 10.0775,-48.4598
 L 9.30368,-47.2405 L 8.38313,-46.1277 L 7.33037,-45.1391 L 6.162,-44.2902 L 4.89645,-43.5945 L 3.55368,-43.0629
 L 2.15488,-42.7037 L 0.722076,-42.5227 z
M -56.7221,-42.5227 L -58.1549,-42.7037 L -59.5537,-43.0629 L -60.8965,-43.5945 L -62.162,-44.2902 L -63.3304,-45.1391
 L -64.3831,-46.1277 L -65.3037,-47.2405 L -66.0775,-48.4598 L -66.6924,-49.7666 L -67.1387,-51.1401 L -67.4093,-52.5587
 L -67.5,-54 L -67.4093,-55.4413 L -67.1387,-56.8599 L -66.6924,-58.2334 L -66.0775,-59.5402 L -65.3037,-60.7595
 L -64.3831,-61.8723 L -63.3304,-62.8609 L -62.162,-63.7098 L -60.8965,-64.4055 L -59.5537,-64.9371 L -58.1549,-65.2963
 L -56.7221,-65.4773 L -55.2779,-65.4773 L -53.8451,-65.2963 L -52.4463,-64.9371 L -51.1035,-64.4055 L -49.838,-63.7098
 L -48.6696,-62.8609 L -47.6169,-61.8723 L -46.6963,-60.7595 L -45.9225,-59.5402 L -45.3076,-58.2334 L -44.8613,-56.8599
 L -44.5907,-55.4413 L -44.5,-54 L -44.5907,-52.5587 L -44.8613,-51.1401 L -45.3076,-49.7666 L -45.9225,-48.4598
 L -46.6963,-47.2405 L -47.6169,-46.1277 L -48.6696,-45.1391 L -49.838,-44.2902 L -51.1035,-43.5945 L -52.4463,-43.0629
 L -53.8451,-42.7037 L -55.2779,-42.5227 z
M -28.7221,-42.5227 L -30.1549,-42.7037 L -31.5537,-43.0629 L -32.8965,-43.5945 L -34.162,-44.2902 L -35.3304,-45.1391
 L -36.3831,-46.1277 L -37.3037,-47.2405 L -38.0775,-48.4598 L -38.6924,-49.7666 L -39.1387,-51.1401 L -39.4093,-52.5587
 L -39.5,-54 L -39.4093,-55.4413 L -39.1387,-56.8599 L -38.6924,-58.2334 L -38.0775,-59.5402 L -37.3037,-60.7595
 L -36.3831,-61.8723 L -35.3304,-62.8609 L -34.162,-63.7098 L -32.8965,-64.4055 L -31.5537,-64.9371 L -30.1549,-65.2963
 L -28.7221,-65.4773 L -27.2779,-65.4773 L -25.8451,-65.2963 L -24.4463,-64.9371 L -23.1035,-64.4055 L -21.838,-63.7098
 L -20.6696,-62.8609 L -19.6169,-61.8723 L -18.6963,-60.7595 L -17.9225,-59.5402 L -17.3076,-58.2334 L -16.8613,-56.8599
 L -16.5907,-55.4413 L -16.5,-54 L -16.5907,-52.5587 L -16.8613,-51.1401 L -17.3076,-49.7666 L -17.9225,-48.4598
 L -18.6963,-47.2405 L -19.6169,-46.1277 L -20.6696,-45.1391 L -21.838,-44.2902 L -23.1035,-43.5945 L -24.4463,-43.0629
 L -25.8451,-42.7037 L -27.2779,-42.5227 z
M -67.6884,-36.0059 L -68.0621,-36.0531 L -68.427,-36.1468 L -68.7773,-36.2855 L -69.1075,-36.467 L -69.4123,-36.6885
 L -69.6869,-36.9464 L -69.927,-37.2366 L -70.1289,-37.5547 L -70.2893,-37.8956 L -70.4057,-38.2539 L -70.4763,-38.624
 L -70.5,-39 L -70.4763,-39.376 L -70.4057,-39.7461 L -70.2893,-40.1044 L -70.1289,-40.4453 L -69.927,-40.7634
 L -69.6869,-41.0536 L -69.4123,-41.3116 L -69.1075,-41.533 L -68.7773,-41.7145 L -68.427,-41.8532 L -68.0621,-41.9469
 L -67.6884,-41.9941 L -67.3116,-41.9941 L -66.9379,-41.9469 L -66.573,-41.8532 L -66.2227,-41.7145 L -65.8925,-41.533
 L -65.5877,-41.3116 L -65.3131,-41.0536 L -65.073,-40.7634 L -64.8711,-40.4453 L -64.7107,-40.1044 L -64.5943,-39.7461
 L -64.5237,-39.376 L -64.5,-39 L -64.5237,-38.624 L -64.5943,-38.2539 L -64.7107,-37.8956 L -64.8711,-37.5547
 L -65.073,-37.2366 L -65.3131,-36.9464 L -65.5877,-36.6885 L -65.8925,-36.467 L -66.2227,-36.2855 L -66.573,-36.1468
 L -66.9379,-36.0531 L -67.3116,-36.0059 z
M 67.3116,-36.0059 L 66.9379,-36.0531 L 66.573,-36.1468 L 66.2227,-36.2855 L 65.8925,-36.467 L 65.5877,-36.6885
 L 65.3131,-36.9464 L 65.073,-37.2366 L 64.8711,-37.5547 L 64.7107,-37.8956 L 64.5943,-38.2539 L 64.5237,-38.624
 L 64.5,-39 L 64.5237,-39.376 L 64.5943,-39.7461 L 64.7107,-40.1044 L 64.8711,-40.4453 L 65.073,-40.7634
 L 65.3131,-41.0536 L 65.5877,-41.3116 L 65.8925,-41.533 L 66.2227,-41.7145 L 66.573,-41.8532 L 66.9379,-41.9469
 L 67.3116,-41.9941 L 67.6884,-41.9941 L 68.0621,-41.9469 L 68.427,-41.8532 L 68.7773,-41.7145 L 69.1075,-41.533
 L 69.4123,-41.3116 L 69.6869,-41.0536 L 69.927,-40.7634 L 70.1289,-40.4453 L 70.2893,-40.1044 L 70.4057,-39.7461
 L 70.4763,-39.376 L 70.5,-39 L 70.4763,-38.624 L 70.4057,-38.2539 L 70.2893,-37.8956 L 70.1289,-37.5547
 L 69.927,-37.2366 L 69.6869,-36.9464 L 69.4123,-36.6885 L 69.1075,-36.467 L 68.7773,-36.2855 L 68.427,-36.1468
 L 68.0621,-36.0531 L 67.6884,-36.0059 z
" stroke="black" fill="lightgray" stroke-width="0.5"/>
</svg>
