  0
SECTION
  2
BLOCKS
  0
ENDSEC
  0
SECTION
  2
ENTITIES
  0
LINE
  8
0
 10
32.9369
 20
-14.4114
 11
33.5451
 21
-14.2553
  0
LINE
  8
0
 10
33.5451
 20
-14.2553
 11
34.1289
 21
-14.0241
  0
LINE
  8
0
 10
34.1289
 20
-14.0241
 11
34.6791
 21
-13.7216
  0
LINE
  8
0
 10
34.6791
 20
-13.7216
 11
35.1871
 21
-13.3526
  0
LINE
  8
0
 10
35.1871
 20
-13.3526
 11
35.6448
 21
-12.9227
  0
LINE
  8
0
 10
35.6448
 20
-12.9227
 11
36.0451
 21
-12.4389
  0
LINE
  8
0
 10
36.0451
 20
-12.4389
 11
36.3815
 21
-11.9088
  0
LINE
  8
0
 10
36.3815
 20
-11.9088
 11
36.6489
 21
-11.3406
  0
LINE
  8
0
 10
36.6489
 20
-11.3406
 11
36.8429
 21
-10.7434
  0
LINE
  8
0
 10
36.8429
 20
-10.7434
 11
36.9606
 21
-10.1267
  0
LINE
  8
0
 10
36.9606
 20
-10.1267
 11
37
 21
-9.5
  0
LINE
  8
0
 10
37
 20
-9.5
 11
37
 21
9.5
  0
LINE
  8
0
 10
37
 20
9.5
 11
36.9606
 21
10.1267
  0
LINE
  8
0
 10
36.9606
 20
10.1267
 11
36.8429
 21
10.7434
  0
LINE
  8
0
 10
36.8429
 20
10.7434
 11
36.6489
 21
11.3406
  0
LINE
  8
0
 10
36.6489
 20
11.3406
 11
36.3815
 21
11.9088
  0
LINE
  8
0
 10
36.3815
 20
11.9088
 11
36.0451
 21
12.4389
  0
LINE
  8
0
 10
36.0451
 20
12.4389
 11
35.6448
 21
12.9227
  0
LINE
  8
0
 10
35.6448
 20
12.9227
 11
35.1871
 21
13.3526
  0
LINE
  8
0
 10
35.1871
 20
13.3526
 11
34.6791
 21
13.7216
  0
LINE
  8
0
 10
34.6791
 20
13.7216
 11
34.1289
 21
14.0241
  0
LINE
  8
0
 10
34.1289
 20
14.0241
 11
33.5451
 21
14.2553
  0
LINE
  8
0
 10
33.5451
 20
14.2553
 11
32.9369
 21
14.4114
  0
LINE
  8
0
 10
32.9369
 20
14.4114
 11
32.3139
 21
14.4901
  0
LINE
  8
0
 10
32.3139
 20
14.4901
 11
-32.3139
 21
14.4901
  0
LINE
  8
0
 10
-32.3139
 20
14.4901
 11
-32.9369
 21
14.4114
  0
LINE
  8
0
 10
-32.9369
 20
14.4114
 11
-33.5451
 21
14.2553
  0
LINE
  8
0
 10
-33.5451
 20
14.2553
 11
-34.1289
 21
14.0241
  0
LINE
  8
0
 10
-34.1289
 20
14.0241
 11
-34.6791
 21
13.7216
  0
LINE
  8
0
 10
-34.6791
 20
13.7216
 11
-35.1871
 21
13.3526
  0
LINE
  8
0
 10
-35.1871
 20
13.3526
 11
-35.6448
 21
12.9227
  0
LINE
  8
0
 10
-35.6448
 20
12.9227
 11
-36.0451
 21
12.4389
  0
LINE
  8
0
 10
-36.0451
 20
12.4389
 11
-36.3815
 21
11.9088
  0
LINE
  8
0
 10
-36.3815
 20
11.9088
 11
-36.6489
 21
11.3406
  0
LINE
  8
0
 10
-36.6489
 20
11.3406
 11
-36.8429
 21
10.7434
  0
LINE
  8
0
 10
-36.8429
 20
10.7434
 11
-36.9606
 21
10.1267
  0
LINE
  8
0
 10
-36.9606
 20
10.1267
 11
-37
 21
9.5
  0
LINE
  8
0
 10
-37
 20
9.5
 11
-37
 21
-9.5
  0
LINE
  8
0
 10
-37
 20
-9.5
 11
-36.9606
 21
-10.1267
  0
LINE
  8
0
 10
-36.9606
 20
-10.1267
 11
-36.8429
 21
-10.7434
  0
LINE
  8
0
 10
-36.8429
 20
-10.7434
 11
-36.6489
 21
-11.3406
  0
LINE
  8
0
 10
-36.6489
 20
-11.3406
 11
-36.3815
 21
-11.9088
  0
LINE
  8
0
 10
-36.3815
 20
-11.9088
 11
-36.0451
 21
-12.4389
  0
LINE
  8
0
 10
-36.0451
 20
-12.4389
 11
-35.6448
 21
-12.9227
  0
LINE
  8
0
 10
-35.6448
 20
-12.9227
 11
-35.1871
 21
-13.3526
  0
LINE
  8
0
 10
-35.1871
 20
-13.3526
 11
-34.6791
 21
-13.7216
  0
LINE
  8
0
 10
-34.6791
 20
-13.7216
 11
-34.1289
 21
-14.0241
  0
LINE
  8
0
 10
-34.1289
 20
-14.0241
 11
-33.5451
 21
-14.2553
  0
LINE
  8
0
 10
-33.5451
 20
-14.2553
 11
-32.9369
 21
-14.4114
  0
LINE
  8
0
 10
-32.9369
 20
-14.4114
 11
-32.3139
 21
-14.4901
  0
LINE
  8
0
 10
-32.3139
 20
-14.4901
 11
32.3139
 21
-14.4901
  0
LINE
  8
0
 10
32.3139
 20
-14.4901
 11
32.9369
 21
-14.4114
  0
LINE
  8
0
 10
-30.1884
 20
-10.4941
 11
-30.5621
 21
-10.4469
  0
LINE
  8
0
 10
-30.5621
 20
-10.4469
 11
-30.927
 21
-10.3532
  0
LINE
  8
0
 10
-30.927
 20
-10.3532
 11
-31.2773
 21
-10.2145
  0
LINE
  8
0
 10
-31.2773
 20
-10.2145
 11
-31.6075
 21
-10.033
  0
LINE
  8
0
 10
-31.6075
 20
-10.033
 11
-31.9123
 21
-9.81154
  0
LINE
  8
0
 10
-31.9123
 20
-9.81154
 11
-32.1869
 21
-9.55363
  0
LINE
  8
0
 10
-32.1869
 20
-9.55363
 11
-32.427
 21
-9.26335
  0
LINE
  8
0
 10
-32.427
 20
-9.26335
 11
-32.6289
 21
-8.94525
  0
LINE
  8
0
 10
-32.6289
 20
-8.94525
 11
-32.7893
 21
-8.60437
  0
LINE
  8
0
 10
-32.7893
 20
-8.60437
 11
-32.9057
 21
-8.24606
  0
LINE
  8
0
 10
-32.9057
 20
-8.24606
 11
-32.9763
 21
-7.87599
  0
LINE
  8
0
 10
-32.9763
 20
-7.87599
 11
-33
 21
-7.5
  0
LINE
  8
0
 10
-33
 20
-7.5
 11
-32.9763
 21
-7.12399
  0
LINE
  8
0
 10
-32.9763
 20
-7.12399
 11
-32.9057
 21
-6.75392
  0
LINE
  8
0
 10
-32.9057
 20
-6.75392
 11
-32.7893
 21
-6.39561
  0
LINE
  8
0
 10
-32.7893
 20
-6.39561
 11
-32.6289
 21
-6.05473
  0
LINE
  8
0
 10
-32.6289
 20
-6.05473
 11
-32.427
 21
-5.73663
  0
LINE
  8
0
 10
-32.427
 20
-5.73663
 11
-32.1869
 21
-5.44635
  0
LINE
  8
0
 10
-32.1869
 20
-5.44635
 11
-31.9123
 21
-5.18845
  0
LINE
  8
0
 10
-31.9123
 20
-5.18845
 11
-31.6075
 21
-4.96701
  0
LINE
  8
0
 10
-31.6075
 20
-4.96701
 11
-31.2773
 21
-4.78551
  0
LINE
  8
0
 10
-31.2773
 20
-4.78551
 11
-30.927
 21
-4.64682
  0
LINE
  8
0
 10
-30.927
 20
-4.64682
 11
-30.7227
 21
-4.59435
  0
LINE
  8
0
 10
-30.7227
 20
-4.59435
 11
-30.8867
 21
-4.33577
  0
LINE
  8
0
 10
-30.8867
 20
-4.33577
 11
-31.368
 21
-3.31311
  0
LINE
  8
0
 10
-31.368
 20
-3.31311
 11
-31.7172
 21
-2.2382
  0
LINE
  8
0
 10
-31.7172
 20
-2.2382
 11
-31.929
 21
-1.12799
  0
LINE
  8
0
 10
-31.929
 20
-1.12799
 11
-32
 21
0
  0
LINE
  8
0
 10
-32
 20
0
 11
-31.929
 21
1.12799
  0
LINE
  8
0
 10
-31.929
 20
1.12799
 11
-31.7172
 21
2.2382
  0
LINE
  8
0
 10
-31.7172
 20
2.2382
 11
-31.368
 21
3.31311
  0
LINE
  8
0
 10
-31.368
 20
3.31311
 11
-30.8867
 21
4.33577
  0
LINE
  8
0
 10
-30.8867
 20
4.33577
 11
-30.7227
 21
4.59435
  0
LINE
  8
0
 10
-30.7227
 20
4.59435
 11
-30.927
 21
4.64682
  0
LINE
  8
0
 10
-30.927
 20
4.64682
 11
-31.2773
 21
4.78551
  0
LINE
  8
0
 10
-31.2773
 20
4.78551
 11
-31.6075
 21
4.96701
  0
LINE
  8
0
 10
-31.6075
 20
4.96701
 11
-31.9123
 21
5.18845
  0
LINE
  8
0
 10
-31.9123
 20
5.18845
 11
-32.1869
 21
5.44635
  0
LINE
  8
0
 10
-32.1869
 20
5.44635
 11
-32.427
 21
5.73663
  0
LINE
  8
0
 10
-32.427
 20
5.73663
 11
-32.6289
 21
6.05473
  0
LINE
  8
0
 10
-32.6289
 20
6.05473
 11
-32.7893
 21
6.39561
  0
LINE
  8
0
 10
-32.7893
 20
6.39561
 11
-32.9057
 21
6.75392
  0
LINE
  8
0
 10
-32.9057
 20
6.75392
 11
-32.9763
 21
7.12399
  0
LINE
  8
0
 10
-32.9763
 20
7.12399
 11
-33
 21
7.5
  0
LINE
  8
0
 10
-33
 20
7.5
 11
-32.9763
 21
7.87599
  0
LINE
  8
0
 10
-32.9763
 20
7.87599
 11
-32.9057
 21
8.24606
  0
LINE
  8
0
 10
-32.9057
 20
8.24606
 11
-32.7893
 21
8.60437
  0
LINE
  8
0
 10
-32.7893
 20
8.60437
 11
-32.6289
 21
8.94525
  0
LINE
  8
0
 10
-32.6289
 20
8.94525
 11
-32.427
 21
9.26335
  0
LINE
  8
0
 10
-32.427
 20
9.26335
 11
-32.1869
 21
9.55363
  0
LINE
  8
0
 10
-32.1869
 20
9.55363
 11
-31.9123
 21
9.81154
  0
LINE
  8
0
 10
-31.9123
 20
9.81154
 11
-31.6075
 21
10.033
  0
LINE
  8
0
 10
-31.6075
 20
10.033
 11
-31.2773
 21
10.2145
  0
LINE
  8
0
 10
-31.2773
 20
10.2145
 11
-30.927
 21
10.3532
  0
LINE
  8
0
 10
-30.927
 20
10.3532
 11
-30.5621
 21
10.4469
  0
LINE
  8
0
 10
-30.5621
 20
10.4469
 11
-30.1884
 21
10.4941
  0
LINE
  8
0
 10
-30.1884
 20
10.4941
 11
-29.8116
 21
10.4941
  0
LINE
  8
0
 10
-29.8116
 20
10.4941
 11
-29.4379
 21
10.4469
  0
LINE
  8
0
 10
-29.4379
 20
10.4469
 11
-29.0729
 21
10.3532
  0
LINE
  8
0
 10
-29.0729
 20
10.3532
 11
-28.7227
 21
10.2145
  0
LINE
  8
0
 10
-28.7227
 20
10.2145
 11
-28.3925
 21
10.033
  0
LINE
  8
0
 10
-28.3925
 20
10.033
 11
-28.0877
 21
9.81154
  0
LINE
  8
0
 10
-28.0877
 20
9.81154
 11
-27.8131
 21
9.55363
  0
LINE
  8
0
 10
-27.8131
 20
9.55363
 11
-27.5729
 21
9.26335
  0
LINE
  8
0
 10
-27.5729
 20
9.26335
 11
-27.3711
 21
8.94525
  0
LINE
  8
0
 10
-27.3711
 20
8.94525
 11
-27.2107
 21
8.60437
  0
LINE
  8
0
 10
-27.2107
 20
8.60437
 11
-27.0942
 21
8.24606
  0
LINE
  8
0
 10
-27.0942
 20
8.24606
 11
-27.0516
 21
8.02269
  0
LINE
  8
0
 10
-27.0516
 20
8.02269
 11
-26.832
 21
8.14343
  0
LINE
  8
0
 10
-26.832
 20
8.14343
 11
-25.7811
 21
8.55949
  0
LINE
  8
0
 10
-25.7811
 20
8.55949
 11
-24.6864
 21
8.84058
  0
LINE
  8
0
 10
-24.6864
 20
8.84058
 11
-23.5651
 21
8.98224
  0
LINE
  8
0
 10
-23.5651
 20
8.98224
 11
-22.4349
 21
8.98224
  0
LINE
  8
0
 10
-22.4349
 20
8.98224
 11
-21.3136
 21
8.84058
  0
LINE
  8
0
 10
-21.3136
 20
8.84058
 11
-20.2188
 21
8.55949
  0
LINE
  8
0
 10
-20.2188
 20
8.55949
 11
-19.168
 21
8.14343
  0
LINE
  8
0
 10
-19.168
 20
8.14343
 11
-18.1776
 21
7.59894
  0
LINE
  8
0
 10
-18.1776
 20
7.59894
 11
-17.2632
 21
6.93462
  0
LINE
  8
0
 10
-17.2632
 20
6.93462
 11
-16.4393
 21
6.16092
  0
LINE
  8
0
 10
-16.4393
 20
6.16092
 11
-15.7188
 21
5.29005
  0
LINE
  8
0
 10
-15.7188
 20
5.29005
 11
-15.1132
 21
4.33577
  0
LINE
  8
0
 10
-15.1132
 20
4.33577
 11
-14.632
 21
3.31311
  0
LINE
  8
0
 10
-14.632
 20
3.31311
 11
-14.2827
 21
2.2382
  0
LINE
  8
0
 10
-14.2827
 20
2.2382
 11
-14.071
 21
1.12799
  0
LINE
  8
0
 10
-14.071
 20
1.12799
 11
-14
 21
0
  0
LINE
  8
0
 10
-14
 20
0
 11
-14.071
 21
-1.12799
  0
LINE
  8
0
 10
-14.071
 20
-1.12799
 11
-14.2827
 21
-2.2382
  0
LINE
  8
0
 10
-14.2827
 20
-2.2382
 11
-14.632
 21
-3.31311
  0
LINE
  8
0
 10
-14.632
 20
-3.31311
 11
-15.1132
 21
-4.33577
  0
LINE
  8
0
 10
-15.1132
 20
-4.33577
 11
-15.7188
 21
-5.29005
  0
LINE
  8
0
 10
-15.7188
 20
-5.29005
 11
-16.4393
 21
-6.16092
  0
LINE
  8
0
 10
-16.4393
 20
-6.16092
 11
-17.2632
 21
-6.93462
  0
LINE
  8
0
 10
-17.2632
 20
-6.93462
 11
-18.1776
 21
-7.59894
  0
LINE
  8
0
 10
-18.1776
 20
-7.59894
 11
-19.168
 21
-8.14343
  0
LINE
  8
0
 10
-19.168
 20
-8.14343
 11
-20.2188
 21
-8.55949
  0
LINE
  8
0
 10
-20.2188
 20
-8.55949
 11
-21.3136
 21
-8.84058
  0
LINE
  8
0
 10
-21.3136
 20
-8.84058
 11
-22.4349
 21
-8.98224
  0
LINE
  8
0
 10
-22.4349
 20
-8.98224
 11
-23.5651
 21
-8.98224
  0
LINE
  8
0
 10
-23.5651
 20
-8.98224
 11
-24.6864
 21
-8.84058
  0
LINE
  8
0
 10
-24.6864
 20
-8.84058
 11
-25.7811
 21
-8.55949
  0
LINE
  8
0
 10
-25.7811
 20
-8.55949
 11
-26.832
 21
-8.14343
  0
LINE
  8
0
 10
-26.832
 20
-8.14343
 11
-27.0516
 21
-8.02269
  0
LINE
  8
0
 10
-27.0516
 20
-8.02269
 11
-27.0942
 21
-8.24606
  0
LINE
  8
0
 10
-27.0942
 20
-8.24606
 11
-27.2107
 21
-8.60437
  0
LINE
  8
0
 10
-27.2107
 20
-8.60437
 11
-27.3711
 21
-8.94525
  0
LINE
  8
0
 10
-27.3711
 20
-8.94525
 11
-27.5729
 21
-9.26335
  0
LINE
  8
0
 10
-27.5729
 20
-9.26335
 11
-27.8131
 21
-9.55363
  0
LINE
  8
0
 10
-27.8131
 20
-9.55363
 11
-28.0877
 21
-9.81154
  0
LINE
  8
0
 10
-28.0877
 20
-9.81154
 11
-28.3925
 21
-10.033
  0
LINE
  8
0
 10
-28.3925
 20
-10.033
 11
-28.7227
 21
-10.2145
  0
LINE
  8
0
 10
-28.7227
 20
-10.2145
 11
-29.0729
 21
-10.3532
  0
LINE
  8
0
 10
-29.0729
 20
-10.3532
 11
-29.4379
 21
-10.4469
  0
LINE
  8
0
 10
-29.4379
 20
-10.4469
 11
-29.8116
 21
-10.4941
  0
LINE
  8
0
 10
-29.8116
 20
-10.4941
 11
-30.1884
 21
-10.4941
  0
LINE
  8
0
 10
29.8116
 20
-10.4941
 11
29.4379
 21
-10.4469
  0
LINE
  8
0
 10
29.4379
 20
-10.4469
 11
29.0729
 21
-10.3532
  0
LINE
  8
0
 10
29.0729
 20
-10.3532
 11
28.7227
 21
-10.2145
  0
LINE
  8
0
 10
28.7227
 20
-10.2145
 11
28.3925
 21
-10.033
  0
LINE
  8
0
 10
28.3925
 20
-10.033
 11
28.0877
 21
-9.81154
  0
LINE
  8
0
 10
28.0877
 20
-9.81154
 11
27.8131
 21
-9.55363
  0
LINE
  8
0
 10
27.8131
 20
-9.55363
 11
27.5729
 21
-9.26335
  0
LINE
  8
0
 10
27.5729
 20
-9.26335
 11
27.3711
 21
-8.94525
  0
LINE
  8
0
 10
27.3711
 20
-8.94525
 11
27.2107
 21
-8.60437
  0
LINE
  8
0
 10
27.2107
 20
-8.60437
 11
27.0942
 21
-8.24606
  0
LINE
  8
0
 10
27.0942
 20
-8.24606
 11
27.0516
 21
-8.02269
  0
LINE
  8
0
 10
27.0516
 20
-8.02269
 11
26.832
 21
-8.14343
  0
LINE
  8
0
 10
26.832
 20
-8.14343
 11
25.7811
 21
-8.55949
  0
LINE
  8
0
 10
25.7811
 20
-8.55949
 11
24.6864
 21
-8.84058
  0
LINE
  8
0
 10
24.6864
 20
-8.84058
 11
23.5651
 21
-8.98224
  0
LINE
  8
0
 10
23.5651
 20
-8.98224
 11
22.4349
 21
-8.98224
  0
LINE
  8
0
 10
22.4349
 20
-8.98224
 11
21.3136
 21
-8.84058
  0
LINE
  8
0
 10
21.3136
 20
-8.84058
 11
20.2188
 21
-8.55949
  0
LINE
  8
0
 10
20.2188
 20
-8.55949
 11
19.168
 21
-8.14343
  0
LINE
  8
0
 10
19.168
 20
-8.14343
 11
18.1776
 21
-7.59894
  0
LINE
  8
0
 10
18.1776
 20
-7.59894
 11
17.2632
 21
-6.93462
  0
LINE
  8
0
 10
17.2632
 20
-6.93462
 11
16.4393
 21
-6.16092
  0
LINE
  8
0
 10
16.4393
 20
-6.16092
 11
15.7188
 21
-5.29005
  0
LINE
  8
0
 10
15.7188
 20
-5.29005
 11
15.1132
 21
-4.33577
  0
LINE
  8
0
 10
15.1132
 20
-4.33577
 11
14.632
 21
-3.31311
  0
LINE
  8
0
 10
14.632
 20
-3.31311
 11
14.2827
 21
-2.2382
  0
LINE
  8
0
 10
14.2827
 20
-2.2382
 11
14.071
 21
-1.12799
  0
LINE
  8
0
 10
14.071
 20
-1.12799
 11
14
 21
0
  0
LINE
  8
0
 10
14
 20
0
 11
14.071
 21
1.12799
  0
LINE
  8
0
 10
14.071
 20
1.12799
 11
14.2827
 21
2.2382
  0
LINE
  8
0
 10
14.2827
 20
2.2382
 11
14.632
 21
3.31311
  0
LINE
  8
0
 10
14.632
 20
3.31311
 11
15.1132
 21
4.33577
  0
LINE
  8
0
 10
15.1132
 20
4.33577
 11
15.7188
 21
5.29005
  0
LINE
  8
0
 10
15.7188
 20
5.29005
 11
16.4393
 21
6.16092
  0
LINE
  8
0
 10
16.4393
 20
6.16092
 11
17.2632
 21
6.93462
  0
LINE
  8
0
 10
17.2632
 20
6.93462
 11
18.1776
 21
7.59894
  0
LINE
  8
0
 10
18.1776
 20
7.59894
 11
19.168
 21
8.14343
  0
LINE
  8
0
 10
19.168
 20
8.14343
 11
20.2188
 21
8.55949
  0
LINE
  8
0
 10
20.2188
 20
8.55949
 11
21.3136
 21
8.84058
  0
LINE
  8
0
 10
21.3136
 20
8.84058
 11
22.4349
 21
8.98224
  0
LINE
  8
0
 10
22.4349
 20
8.98224
 11
23.5651
 21
8.98224
  0
LINE
  8
0
 10
23.5651
 20
8.98224
 11
24.6864
 21
8.84058
  0
LINE
  8
0
 10
24.6864
 20
8.84058
 11
25.7811
 21
8.55949
  0
LINE
  8
0
 10
25.7811
 20
8.55949
 11
26.832
 21
8.14343
  0
LINE
  8
0
 10
26.832
 20
8.14343
 11
27.0516
 21
8.02269
  0
LINE
  8
0
 10
27.0516
 20
8.02269
 11
27.0942
 21
8.24606
  0
LINE
  8
0
 10
27.0942
 20
8.24606
 11
27.2107
 21
8.60437
  0
LINE
  8
0
 10
27.2107
 20
8.60437
 11
27.3711
 21
8.94525
  0
LINE
  8
0
 10
27.3711
 20
8.94525
 11
27.5729
 21
9.26335
  0
LINE
  8
0
 10
27.5729
 20
9.26335
 11
27.8131
 21
9.55363
  0
LINE
  8
0
 10
27.8131
 20
9.55363
 11
28.0877
 21
9.81154
  0
LINE
  8
0
 10
28.0877
 20
9.81154
 11
28.3925
 21
10.033
  0
LINE
  8
0
 10
28.3925
 20
10.033
 11
28.7227
 21
10.2145
  0
LINE
  8
0
 10
28.7227
 20
10.2145
 11
29.0729
 21
10.3532
  0
LINE
  8
0
 10
29.0729
 20
10.3532
 11
29.4379
 21
10.4469
  0
LINE
  8
0
 10
29.4379
 20
10.4469
 11
29.8116
 21
10.4941
  0
LINE
  8
0
 10
29.8116
 20
10.4941
 11
30.1884
 21
10.4941
  0
LINE
  8
0
 10
30.1884
 20
10.4941
 11
30.5621
 21
10.4469
  0
LINE
  8
0
 10
30.5621
 20
10.4469
 11
30.927
 21
10.3532
  0
LINE
  8
0
 10
30.927
 20
10.3532
 11
31.2773
 21
10.2145
  0
LINE
  8
0
 10
31.2773
 20
10.2145
 11
31.6075
 21
10.033
  0
LINE
  8
0
 10
31.6075
 20
10.033
 11
31.9123
 21
9.81154
  0
LINE
  8
0
 10
31.9123
 20
9.81154
 11
32.1869
 21
9.55363
  0
LINE
  8
0
 10
32.1869
 20
9.55363
 11
32.427
 21
9.26335
  0
LINE
  8
0
 10
32.427
 20
9.26335
 11
32.6289
 21
8.94525
  0
LINE
  8
0
 10
32.6289
 20
8.94525
 11
32.7893
 21
8.60437
  0
LINE
  8
0
 10
32.7893
 20
8.60437
 11
32.9057
 21
8.24606
  0
LINE
  8
0
 10
32.9057
 20
8.24606
 11
32.9763
 21
7.87599
  0
LINE
  8
0
 10
32.9763
 20
7.87599
 11
33
 21
7.5
  0
LINE
  8
0
 10
33
 20
7.5
 11
32.9763
 21
7.12399
  0
LINE
  8
0
 10
32.9763
 20
7.12399
 11
32.9057
 21
6.75392
  0
LINE
  8
0
 10
32.9057
 20
6.75392
 11
32.7893
 21
6.39561
  0
LINE
  8
0
 10
32.7893
 20
6.39561
 11
32.6289
 21
6.05473
  0
LINE
  8
0
 10
32.6289
 20
6.05473
 11
32.427
 21
5.73663
  0
LINE
  8
0
 10
32.427
 20
5.73663
 11
32.1869
 21
5.44635
  0
LINE
  8
0
 10
32.1869
 20
5.44635
 11
31.9123
 21
5.18845
  0
LINE
  8
0
 10
31.9123
 20
5.18845
 11
31.6075
 21
4.96701
  0
LINE
  8
0
 10
31.6075
 20
4.96701
 11
31.2773
 21
4.78551
  0
LINE
  8
0
 10
31.2773
 20
4.78551
 11
30.927
 21
4.64682
  0
LINE
  8
0
 10
30.927
 20
4.64682
 11
30.7227
 21
4.59435
  0
LINE
  8
0
 10
30.7227
 20
4.59435
 11
30.8867
 21
4.33577
  0
LINE
  8
0
 10
30.8867
 20
4.33577
 11
31.368
 21
3.31311
  0
LINE
  8
0
 10
31.368
 20
3.31311
 11
31.7172
 21
2.2382
  0
LINE
  8
0
 10
31.7172
 20
2.2382
 11
31.929
 21
1.12799
  0
LINE
  8
0
 10
31.929
 20
1.12799
 11
32
 21
0
  0
LINE
  8
0
 10
32
 20
0
 11
31.929
 21
-1.12799
  0
LINE
  8
0
 10
31.929
 20
-1.12799
 11
31.7172
 21
-2.2382
  0
LINE
  8
0
 10
31.7172
 20
-2.2382
 11
31.368
 21
-3.31311
  0
LINE
  8
0
 10
31.368
 20
-3.31311
 11
30.8867
 21
-4.33577
  0
LINE
  8
0
 10
30.8867
 20
-4.33577
 11
30.7227
 21
-4.59435
  0
LINE
  8
0
 10
30.7227
 20
-4.59435
 11
30.927
 21
-4.64682
  0
LINE
  8
0
 10
30.927
 20
-4.64682
 11
31.2773
 21
-4.78551
  0
LINE
  8
0
 10
31.2773
 20
-4.78551
 11
31.6075
 21
-4.96701
  0
LINE
  8
0
 10
31.6075
 20
-4.96701
 11
31.9123
 21
-5.18845
  0
LINE
  8
0
 10
31.9123
 20
-5.18845
 11
32.1869
 21
-5.44635
  0
LINE
  8
0
 10
32.1869
 20
-5.44635
 11
32.427
 21
-5.73663
  0
LINE
  8
0
 10
32.427
 20
-5.73663
 11
32.6289
 21
-6.05473
  0
LINE
  8
0
 10
32.6289
 20
-6.05473
 11
32.7893
 21
-6.39561
  0
LINE
  8
0
 10
32.7893
 20
-6.39561
 11
32.9057
 21
-6.75392
  0
LINE
  8
0
 10
32.9057
 20
-6.75392
 11
32.9763
 21
-7.12399
  0
LINE
  8
0
 10
32.9763
 20
-7.12399
 11
33
 21
-7.5
  0
LINE
  8
0
 10
33
 20
-7.5
 11
32.9763
 21
-7.87599
  0
LINE
  8
0
 10
32.9763
 20
-7.87599
 11
32.9057
 21
-8.24606
  0
LINE
  8
0
 10
32.9057
 20
-8.24606
 11
32.7893
 21
-8.60437
  0
LINE
  8
0
 10
32.7893
 20
-8.60437
 11
32.6289
 21
-8.94525
  0
LINE
  8
0
 10
32.6289
 20
-8.94525
 11
32.427
 21
-9.26335
  0
LINE
  8
0
 10
32.427
 20
-9.26335
 11
32.1869
 21
-9.55363
  0
LINE
  8
0
 10
32.1869
 20
-9.55363
 11
31.9123
 21
-9.81154
  0
LINE
  8
0
 10
31.9123
 20
-9.81154
 11
31.6075
 21
-10.033
  0
LINE
  8
0
 10
31.6075
 20
-10.033
 11
31.2773
 21
-10.2145
  0
LINE
  8
0
 10
31.2773
 20
-10.2145
 11
30.927
 21
-10.3532
  0
LINE
  8
0
 10
30.927
 20
-10.3532
 11
30.5621
 21
-10.4469
  0
LINE
  8
0
 10
30.5621
 20
-10.4469
 11
30.1884
 21
-10.4941
  0
LINE
  8
0
 10
30.1884
 20
-10.4941
 11
29.8116
 21
-10.4941
  0
LINE
  8
0
 10
-0.565109
 20
-8.98224
 11
-1.68642
 21
-8.84058
  0
LINE
  8
0
 10
-1.68642
 20
-8.84058
 11
-2.78114
 21
-8.55949
  0
LINE
  8
0
 10
-2.78114
 20
-8.55949
 11
-3.832
 21
-8.14343
  0
LINE
  8
0
 10
-3.832
 20
-8.14343
 11
-4.82243
 21
-7.59894
  0
LINE
  8
0
 10
-4.82243
 20
-7.59894
 11
-5.7368
 21
-6.93462
  0
LINE
  8
0
 10
-5.7368
 20
-6.93462
 11
-6.56071
 21
-6.16092
  0
LINE
  8
0
 10
-6.56071
 20
-6.16092
 11
-7.28114
 21
-5.29005
  0
LINE
  8
0
 10
-7.28114
 20
-5.29005
 11
-7.88675
 21
-4.33577
  0
LINE
  8
0
 10
-7.88675
 20
-4.33577
 11
-8.36798
 21
-3.31311
  0
LINE
  8
0
 10
-8.36798
 20
-3.31311
 11
-8.71724
 21
-2.2382
  0
LINE
  8
0
 10
-8.71724
 20
-2.2382
 11
-8.92903
 21
-1.12799
  0
LINE
  8
0
 10
-8.92903
 20
-1.12799
 11
-9
 21
0
  0
LINE
  8
0
 10
-9
 20
0
 11
-8.92903
 21
1.12799
  0
LINE
  8
0
 10
-8.92903
 20
1.12799
 11
-8.71724
 21
2.2382
  0
LINE
  8
0
 10
-8.71724
 20
2.2382
 11
-8.36798
 21
3.31311
  0
LINE
  8
0
 10
-8.36798
 20
3.31311
 11
-7.88675
 21
4.33577
  0
LINE
  8
0
 10
-7.88675
 20
4.33577
 11
-7.28114
 21
5.29005
  0
LINE
  8
0
 10
-7.28114
 20
5.29005
 11
-6.56071
 21
6.16092
  0
LINE
  8
0
 10
-6.56071
 20
6.16092
 11
-5.7368
 21
6.93462
  0
LINE
  8
0
 10
-5.7368
 20
6.93462
 11
-4.82243
 21
7.59894
  0
LINE
  8
0
 10
-4.82243
 20
7.59894
 11
-3.832
 21
8.14343
  0
LINE
  8
0
 10
-3.832
 20
8.14343
 11
-2.78114
 21
8.55949
  0
LINE
  8
0
 10
-2.78114
 20
8.55949
 11
-1.68642
 21
8.84058
  0
LINE
  8
0
 10
-1.68642
 20
8.84058
 11
-0.565109
 21
8.98224
  0
LINE
  8
0
 10
-0.565109
 20
8.98224
 11
0.565109
 21
8.98224
  0
LINE
  8
0
 10
0.565109
 20
8.98224
 11
1.68642
 21
8.84058
  0
LINE
  8
0
 10
1.68642
 20
8.84058
 11
2.78114
 21
8.55949
  0
LINE
  8
0
 10
2.78114
 20
8.55949
 11
3.832
 21
8.14343
  0
LINE
  8
0
 10
3.832
 20
8.14343
 11
4.82243
 21
7.59894
  0
LINE
  8
0
 10
4.82243
 20
7.59894
 11
5.7368
 21
6.93462
  0
LINE
  8
0
 10
5.7368
 20
6.93462
 11
6.56071
 21
6.16092
  0
LINE
  8
0
 10
6.56071
 20
6.16092
 11
7.28114
 21
5.29005
  0
LINE
  8
0
 10
7.28114
 20
5.29005
 11
7.88675
 21
4.33577
  0
LINE
  8
0
 10
7.88675
 20
4.33577
 11
8.36798
 21
3.31311
  0
LINE
  8
0
 10
8.36798
 20
3.31311
 11
8.71724
 21
2.2382
  0
LINE
  8
0
 10
8.71724
 20
2.2382
 11
8.92903
 21
1.12799
  0
LINE
  8
0
 10
8.92903
 20
1.12799
 11
9
 21
0
  0
LINE
  8
0
 10
9
 20
0
 11
8.92903
 21
-1.12799
  0
LINE
  8
0
 10
8.92903
 20
-1.12799
 11
8.71724
 21
-2.2382
  0
LINE
  8
0
 10
8.71724
 20
-2.2382
 11
8.36798
 21
-3.31311
  0
LINE
  8
0
 10
8.36798
 20
-3.31311
 11
7.88675
 21
-4.33577
  0
LINE
  8
0
 10
7.88675
 20
-4.33577
 11
7.28114
 21
-5.29005
  0
LINE
  8
0
 10
7.28114
 20
-5.29005
 11
6.56071
 21
-6.16092
  0
LINE
  8
0
 10
6.56071
 20
-6.16092
 11
5.7368
 21
-6.93462
  0
LINE
  8
0
 10
5.7368
 20
-6.93462
 11
4.82243
 21
-7.59894
  0
LINE
  8
0
 10
4.82243
 20
-7.59894
 11
3.832
 21
-8.14343
  0
LINE
  8
0
 10
3.832
 20
-8.14343
 11
2.78114
 21
-8.55949
  0
LINE
  8
0
 10
2.78114
 20
-8.55949
 11
1.68642
 21
-8.84058
  0
LINE
  8
0
 10
1.68642
 20
-8.84058
 11
0.565109
 21
-8.98224
  0
LINE
  8
0
 10
0.565109
 20
-8.98224
 11
-0.565109
 21
-8.98224
  0
ENDSEC
  0
SECTION
  2
OBJECTS
  0
DICTIONARY
  0
ENDSEC
  0
EOF
