<?xml version="1.0" standalone="no"?>
<!DOCTYPE svg PUBLIC "-//W3C//DTD SVG 1.1//EN" "http://www.w3.org/Graphics/SVG/1.1/DTD/svg11.dtd">
<svg width="134mm" height="60mm" viewBox="-67 -99 134 60" xmlns="http://www.w3.org/2000/svg" version="1.1">
<title>OpenSCAD Model</title>
<path d="
M 62.9369,-39.5886 L 63.5451,-39.7447 L 64.1289,-39.9759 L 64.6791,-40.2784 L 65.1871,-40.6474 L 65.6448,-41.0773
 L 66.0451,-41.5611 L 66.3815,-42.0912 L 66.6489,-42.6594 L 66.8429,-43.2566 L 66.9606,-43.8733 L 67,-44.5
 L 67,-93.5 L 66.9606,-94.1267 L 66.8429,-94.7434 L 66.6489,-95.3406 L 66.3815,-95.9088 L 66.0451,-96.4389
 L 65.6448,-96.9227 L 65.1871,-97.3526 L 64.6791,-97.7216 L 64.1289,-98.0241 L 63.5451,-98.2553 L 62.9369,-98.4114
 L 62.3139,-98.4901 L -62.3139,-98.4901 L -62.9369,-98.4114 L -63.5451,-98.2553 L -64.1289,-98.0241 L -64.6791,-97.7216
 L -65.1871,-97.3526 L -65.6448,-96.9227 L -66.0451,-96.4389 L -66.3815,-95.9088 L -66.6489,-95.3406 L -66.8429,-94.7434
 L -66.9606,-94.1267 L -67,-93.5 L -67,-44.5 L -66.9606,-43.8733 L -66.8429,-43.2566 L -66.6489,-42.6594
 L -66.3815,-42.0912 L -66.0451,-41.5611 L -65.6448,-41.0773 L -65.1871,-40.6474 L -64.6791,-40.2784 L -64.1289,-39.9759
 L -63.5451,-39.7447 L -62.9369,-39.5886 L -62.3139,-39.5099 L 62.3139,-39.5099 z
M -60.1884,-88.5059 L -60.5621,-88.5531 L -60.927,-88.6468 L -61.2773,-88.7855 L -61.6075,-88.967 L -61.9123,-89.1884
 L -62.1869,-89.4464 L -62.427,-89.7366 L -62.6289,-90.0547 L -62.7893,-90.3956 L -62.9057,-90.7539 L -62.9763,-91.124
 L -63,-91.5 L -62.9763,-91.876 L -62.9057,-92.2461 L -62.7893,-92.6044 L -62.6289,-92.9453 L -62.427,-93.2634
 L -62.1869,-93.5536 L -61.9123,-93.8115 L -61.6075,-94.033 L -61.2773,-94.2145 L -60.927,-94.3532 L -60.5621,-94.4469
 L -60.1884,-94.4941 L -59.8116,-94.4941 L -59.4379,-94.4469 L -59.0729,-94.3532 L -58.7227,-94.2145 L -58.3925,-94.033
 L -58.0877,-93.8115 L -57.8131,-93.5536 L -57.5729,-93.2634 L -57.3711,-92.9453 L -57.2107,-92.6044 L -57.0942,-92.2461
 L -57.0237,-91.876 L -57,-91.5 L -57.0237,-91.124 L -57.0942,-90.7539 L -57.2107,-90.3956 L -57.3711,-90.0547
 L -57.5729,-89.7366 L -57.8131,-89.4464 L -58.0877,-89.1884 L -58.3925,-88.967 L -58.7227,-88.7855 L -59.0729,-88.6468
 L -59.4379,-88.5531 L -59.8116,-88.5059 z
M -0.18837,-88.5059 L -0.562134,-88.5531 L -0.927048,-88.6468 L -1.27733,-88.7855 L -1.60747,-88.967 L -1.91226,-89.1884
 L -2.1869,-89.4464 L -2.42705,-89.7366 L -2.62891,-90.0547 L -2.78932,-90.3956 L -2.90575,-90.7539 L -2.97633,-91.124
 L -3,-91.5 L -2.97633,-91.876 L -2.90575,-92.2461 L -2.78932,-92.6044 L -2.62891,-92.9453 L -2.42705,-93.2634
 L -2.1869,-93.5536 L -1.91226,-93.8115 L -1.60747,-94.033 L -1.27733,-94.2145 L -0.927048,-94.3532 L -0.562134,-94.4469
 L -0.18837,-94.4941 L 0.18837,-94.4941 L 0.562134,-94.4469 L 0.927048,-94.3532 L 1.27733,-94.2145 L 1.60747,-94.033
 L 1.91226,-93.8115 L 2.1869,-93.5536 L 2.42705,-93.2634 L 2.62891,-92.9453 L 2.78932,-92.6044 L 2.90575,-92.2461
 L 2.97633,-91.876 L 3,-91.5 L 2.97633,-91.124 L 2.90575,-90.7539 L 2.78932,-90.3956 L 2.62891,-90.0547
 L 2.42705,-89.7366 L 2.1869,-89.4464 L 1.91226,-89.1884 L 1.60747,-88.967 L 1.27733,-88.7855 L 0.927048,-88.6468
 L 0.562134,-88.5531 L 0.18837,-88.5059 z
M 44.8116,-88.5059 L 44.4379,-88.5531 L 44.0729,-88.6468 L 43.7227,-88.7855 L 43.3925,-88.967 L 43.0877,-89.1884
 L 42.8131,-89.4464 L 42.5729,-89.7366 L 42.3711,-90.0547 L 42.2107,-90.3956 L 42.0942,-90.7539 L 42.0237,-91.124
 L 42,-91.5 L 42.0237,-91.876 L 42.0942,-92.2461 L 42.2107,-92.6044 L 42.3711,-92.9453 L 42.5729,-93.2634
 L 42.8131,-93.5536 L 43.0877,-93.8115 L 43.3925,-94.033 L 43.7227,-94.2145 L 44.0729,-94.3532 L 44.4379,-94.4469
 L 44.8116,-94.4941 L 45.1884,-94.4941 L 45.5621,-94.4469 L 45.927,-94.3532 L 46.2773,-94.2145 L 46.6075,-94.033
 L 46.9123,-93.8115 L 47.1869,-93.5536 L 47.427,-93.2634 L 47.6289,-92.9453 L 47.7893,-92.6044 L 47.9057,-92.2461
 L 47.9763,-91.876 L 48,-91.5 L 47.9763,-91.124 L 47.9057,-90.7539 L 47.7893,-90.3956 L 47.6289,-90.0547
 L 47.427,-89.7366 L 47.1869,-89.4464 L 46.9123,-89.1884 L 46.6075,-88.967 L 46.2773,-88.7855 L 45.927,-88.6468
 L 45.5621,-88.5531 L 45.1884,-88.5059 z
M 29.8116,-88.5059 L 29.4379,-88.5531 L 29.0729,-88.6468 L 28.7227,-88.7855 L 28.3925,-88.967 L 28.0877,-89.1884
 L 27.8131,-89.4464 L 27.5729,-89.7366 L 27.3711,-90.0547 L 27.2107,-90.3956 L 27.0942,-90.7539 L 27.0237,-91.124
 L 27,-91.5 L 27.0237,-91.876 L 27.0942,-92.2461 L 27.2107,-92.6044 L 27.3711,-92.9453 L 27.5729,-93.2634
 L 27.8131,-93.5536 L 28.0877,-93.8115 L 28.3925,-94.033 L 28.7227,-94.2145 L 29.0729,-94.3532 L 29.4379,-94.4469
 L 29.8116,-94.4941 L 30.1884,-94.4941 L 30.5621,-94.4469 L 30.927,-94.3532 L 31.2773,-94.2145 L 31.6075,-94.033
 L 31.9123,-93.8115 L 32.1869,-93.5536 L 32.427,-93.2634 L 32.6289,-92.9453 L 32.7893,-92.6044 L 32.9057,-92.2461
 L 32.9763,-91.876 L 33,-91.5 L 32.9763,-91.124 L 32.9057,-90.7539 L 32.7893,-90.3956 L 32.6289,-90.0547
 L 32.427,-89.7366 L 32.1869,-89.4464 L 31.9123,-89.1884 L 31.6075,-88.967 L 31.2773,-88.7855 L 30.927,-88.6468
 L 30.5621,-88.5531 L 30.1884,-88.5059 z
M -30.1884,-88.5059 L -30.5621,-88.5531 L -30.927,-88.6468 L -31.2773,-88.7855 L -31.6075,-88.967 L -31.9123,-89.1884
 L -32.1869,-89.4464 L -32.427,-89.7366 L -32.6289,-90.0547 L -32.7893,-90.3956 L -32.9057,-90.7539 L -32.9763,-91.124
 L -33,-91.5 L -32.9763,-91.876 L -32.9057,-92.2461 L -32.7893,-92.6044 L -32.6289,-92.9453 L -32.427,-93.2634
 L -32.1869,-93.5536 L -31.9123,-93.8115 L -31.6075,-94.033 L -31.2773,-94.2145 L -30.927,-94.3532 L -30.5621,-94.4469
 L -30.1884,-94.4941 L -29.8116,-94.4941 L -29.4379,-94.4469 L -29.0729,-94.3532 L -28.7227,-94.2145 L -28.3925,-94.033
 L -28.0877,-93.8115 L -27.8131,-93.5536 L -27.5729,-93.2634 L -27.3711,-92.9453 L -27.2107,-92.6044 L -27.0942,-92.2461
 L -27.0237,-91.876 L -27,-91.5 L -27.0237,-91.124 L -27.0942,-90.7539 L -27.2107,-90.3956 L -27.3711,-90.0547
 L -27.5729,-89.7366 L -27.8131,-89.4464 L -28.0877,-89.1884 L -28.3925,-88.967 L -28.7227,-88.7855 L -29.0729,-88.6468
 L -29.4379,-88.5531 L -29.8116,-88.5059 z
M -45.1884,-88.5059 L -45.5621,-88.5531 L -45.927,-88.6468 L -46.2773,-88.7855 L -46.6075,-88.967 L -46.9123,-89.1884
 L -47.1869,-89.4464 L -47.427,-89.7366 L -47.6289,-90.0547 L -47.7893,-90.3956 L -47.9057,-90.7539 L -47.9763,-91.124
 L -48,-91.5 L -47.9763,-91.876 L -47.9057,-92.2461 L -47.7893,-92.6044 L -47.6289,-92.9453 L -47.427,-93.2634
 L -47.1869,-93.5536 L -46.9123,-93.8115 L -46.6075,-94.033 L -46.2773,-94.2145 L -45.927,-94.3532 L -45.5621,-94.4469
 L -45.1884,-94.4941 L -44.8116,-94.4941 L -44.4379,-94.4469 L -44.0729,-94.3532 L -43.7227,-94.2145 L -43.3925,-94.033
 L -43.0877,-93.8115 L -42.8131,-93.5536 L -42.5729,-93.2634 L -42.3711,-92.9453 L -42.2107,-92.6044 L -42.0942,-92.2461
 L -42.0237,-91.876 L -42,-91.5 L -42.0237,-91.124 L -42.0942,-90.7539 L -42.2107,-90.3956 L -42.3711,-90.0547
 L -42.5729,-89.7366 L -42.8131,-89.4464 L -43.0877,-89.1884 L -43.3925,-88.967 L -43.7227,-88.7855 L -44.0729,-88.6468
 L -44.4379,-88.5531 L -44.8116,-88.5059 z
M 14.8116,-88.5059 L 14.4379,-88.5531 L 14.0729,-88.6468 L 13.7227,-88.7855 L 13.3925,-88.967 L 13.0877,-89.1884
 L 12.8131,-89.4464 L 12.5729,-89.7366 L 12.3711,-90.0547 L 12.2107,-90.3956 L 12.0942,-90.7539 L 12.0237,-91.124
 L 12,-91.5 L 12.0237,-91.876 L 12.0942,-92.2461 L 12.2107,-92.6044 L 12.3711,-92.9453 L 12.5729,-93.2634
 L 12.8131,-93.5536 L 13.0877,-93.8115 L 13.3925,-94.033 L 13.7227,-94.2145 L 14.0729,-94.3532 L 14.4379,-94.4469
 L 14.8116,-94.4941 L 15.1884,-94.4941 L 15.5621,-94.4469 L 15.927,-94.3532 L 16.2773,-94.2145 L 16.6075,-94.033
 L 16.9123,-93.8115 L 17.1869,-93.5536 L 17.427,-93.2634 L 17.6289,-92.9453 L 17.7893,-92.6044 L 17.9057,-92.2461
 L 17.9763,-91.876 L 18,-91.5 L 17.9763,-91.124 L 17.9057,-90.7539 L 17.7893,-90.3956 L 17.6289,-90.0547
 L 17.427,-89.7366 L 17.1869,-89.4464 L 16.9123,-89.1884 L 16.6075,-88.967 L 16.2773,-88.7855 L 15.927,-88.6468
 L 15.5621,-88.5531 L 15.1884,-88.5059 z
M 59.8116,-88.5059 L 59.4379,-88.5531 L 59.0729,-88.6468 L 58.7227,-88.7855 L 58.3925,-88.967 L 58.0877,-89.1884
 L 57.8131,-89.4464 L 57.5729,-89.7366 L 57.3711,-90.0547 L 57.2107,-90.3956 L 57.0942,-90.7539 L 57.0237,-91.124
 L 57,-91.5 L 57.0237,-91.876 L 57.0942,-92.2461 L 57.2107,-92.6044 L 57.3711,-92.9453 L 57.5729,-93.2634
 L 57.8131,-93.5536 L 58.0877,-93.8115 L 58.3925,-94.033 L 58.7227,-94.2145 L 59.0729,-94.3532 L 59.4379,-94.4469
 L 59.8116,-94.4941 L 60.1884,-94.4941 L 60.5621,-94.4469 L 60.927,-94.3532 L 61.2773,-94.2145 L 61.6075,-94.033
 L 61.9123,-93.8115 L 62.1869,-93.5536 L 62.427,-93.2634 L 62.6289,-92.9453 L 62.7893,-92.6044 L 62.9057,-92.2461
 L 62.9763,-91.876 L 63,-91.5 L 62.9763,-91.124 L 62.9057,-90.7539 L 62.7893,-90.3956 L 62.6289,-90.0547
 L 62.427,-89.7366 L 62.1869,-89.4464 L 61.9123,-89.1884 L 61.6075,-88.967 L 61.2773,-88.7855 L 60.927,-88.6468
 L 60.5621,-88.5531 L 60.1884,-88.5059 z
M -15.1884,-88.5059 L -15.5621,-88.5531 L -15.927,-88.6468 L -16.2773,-88.7855 L -16.6075,-88.967 L -16.9123,-89.1884
 L -17.1869,-89.4464 L -17.427,-89.7366 L -17.6289,-90.0547 L -17.7893,-90.3956 L -17.9057,-90.7539 L -17.9763,-91.124
 L -18,-91.5 L -17.9763,-91.876 L -17.9057,-92.2461 L -17.7893,-92.6044 L -17.6289,-92.9453 L -17.427,-93.2634
 L -17.1869,-93.5536 L -16.9123,-93.8115 L -16.6075,-94.033 L -16.2773,-94.2145 L -15.927,-94.3532 L -15.5621,-94.4469
 L -15.1884,-94.4941 L -14.8116,-94.4941 L -14.4379,-94.4469 L -14.0729,-94.3532 L -13.7227,-94.2145 L -13.3925,-94.033
 L -13.0877,-93.8115 L -12.8131,-93.5536 L -12.5729,-93.2634 L -12.3711,-92.9453 L -12.2107,-92.6044 L -12.0942,-92.2461
 L -12.0237,-91.876 L -12,-91.5 L -12.0237,-91.124 L -12.0942,-90.7539 L -12.2107,-90.3956 L -12.3711,-90.0547
 L -12.5729,-89.7366 L -12.8131,-89.4464 L -13.0877,-89.1884 L -13.3925,-88.967 L -13.7227,-88.7855 L -14.0729,-88.6468
 L -14.4379,-88.5531 L -14.8116,-88.5059 z
M -22.5942,-90.003 L -22.7811,-90.0266 L -22.9635,-90.0734 L -23.1387,-90.1427 L -23.3037,-90.2335 L -23.4561,-90.3442
 L -23.5934,-90.4732 L -23.7135,-90.6183 L -23.8145,-90.7774 L -23.8947,-90.9478 L -23.9529,-91.127 L -23.9882,-91.312
 L -24,-91.5 L -23.9882,-91.688 L -23.9529,-91.873 L -23.8947,-92.0522 L -23.8145,-92.2226 L -23.7135,-92.3817
 L -23.5934,-92.5268 L -23.4561,-92.6558 L -23.3037,-92.7665 L -23.1387,-92.8572 L -22.9635,-92.9266 L -22.7811,-92.9734
 L -22.5942,-92.997 L -22.4058,-92.997 L -22.2189,-92.9734 L -22.0365,-92.9266 L -21.8613,-92.8572 L -21.6963,-92.7665
 L -21.5439,-92.6558 L -21.4065,-92.5268 L -21.2865,-92.3817 L -21.1855,-92.2226 L -21.1053,-92.0522 L -21.0471,-91.873
 L -21.0118,-91.688 L -21,-91.5 L -21.0118,-91.312 L -21.0471,-91.127 L -21.1053,-90.9478 L -21.1855,-90.7774
 L -21.2865,-90.6183 L -21.4065,-90.4732 L -21.5439,-90.3442 L -21.6963,-90.2335 L -21.8613,-90.1427 L -22.0365,-90.0734
 L -22.2189,-90.0266 L -22.4058,-90.003 z
M 7.40581,-90.003 L 7.21892,-90.0266 L 7.03647,-90.0734 L 6.86133,-90.1427 L 6.69626,-90.2335 L 6.54385,-90.3442
 L 6.40654,-90.4732 L 6.28647,-90.6183 L 6.18553,-90.7774 L 6.10533,-90.9478 L 6.04712,-91.127 L 6.01183,-91.312
 L 6,-91.5 L 6.01183,-91.688 L 6.04712,-91.873 L 6.10533,-92.0522 L 6.18553,-92.2226 L 6.28647,-92.3817
 L 6.40654,-92.5268 L 6.54385,-92.6558 L 6.69626,-92.7665 L 6.86133,-92.8572 L 7.03647,-92.9266 L 7.21892,-92.9734
 L 7.40581,-92.997 L 7.59418,-92.997 L 7.78107,-92.9734 L 7.96352,-92.9266 L 8.13866,-92.8572 L 8.30373,-92.7665
 L 8.45613,-92.6558 L 8.59344,-92.5268 L 8.71352,-92.3817 L 8.81445,-92.2226 L 8.89465,-92.0522 L 8.95287,-91.873
 L 8.98816,-91.688 L 9,-91.5 L 8.98816,-91.312 L 8.95287,-91.127 L 8.89465,-90.9478 L 8.81445,-90.7774
 L 8.71352,-90.6183 L 8.59344,-90.4732 L 8.45613,-90.3442 L 8.30373,-90.2335 L 8.13866,-90.1427 L 7.96352,-90.0734
 L 7.78107,-90.0266 L 7.59418,-90.003 z
M -7.59418,-90.003 L -7.78107,-90.0266 L -7.96352,-90.0734 L -8.13866,-90.1427 L -8.30373,-90.2335 L -8.45613,-90.3442
 L -8.59344,-90.4732 L -8.71352,-90.6183 L -8.81445,-90.7774 L -8.89465,-90.9478 L -8.95287,-91.127 L -8.98816,-91.312
 L -9,-91.5 L -8.98816,-91.688 L -8.95287,-91.873 L -8.89465,-92.0522 L -8.81445,-92.2226 L -8.71352,-92.3817
 L -8.59344,-92.5268 L -8.45613,-92.6558 L -8.30373,-92.7665 L -8.13866,-92.8572 L -7.96352,-92.9266 L -7.78107,-92.9734
 L -7.59418,-92.997 L -7.40581,-92.997 L -7.21892,-92.9734 L -7.03647,-92.9266 L -6.86133,-92.8572 L -6.69626,-92.7665
 L -6.54385,-92.6558 L -6.40654,-92.5268 L -6.28647,-92.3817 L -6.18553,-92.2226 L -6.10533,-92.0522 L -6.04712,-91.873
 L -6.01183,-91.688 L -6,-91.5 L -6.01183,-91.312 L -6.04712,-91.127 L -6.10533,-90.9478 L -6.18553,-90.7774
 L -6.28647,-90.6183 L -6.40654,-90.4732 L -6.54385,-90.3442 L -6.69626,-90.2335 L -6.86133,-90.1427 L -7.03647,-90.0734
 L -7.21892,-90.0266 L -7.40581,-90.003 z
M 52.4058,-90.003 L 52.2189,-90.0266 L 52.0365,-90.0734 L 51.8613,-90.1427 L 51.6963,-90.2335 L 51.5439,-90.3442
 L 51.4065,-90.4732 L 51.2865,-90.6183 L 51.1855,-90.7774 L 51.1053,-90.9478 L 51.0471,-91.127 L 51.0118,-91.312
 L 51,-91.5 L 51.0118,-91.688 L 51.0471,-91.873 L 51.1053,-92.0522 L 51.1855,-92.2226 L 51.2865,-92.3817
 L 51.4065,-92.5268 L 51.5439,-92.6558 L 51.6963,-92.7665 L 51.8613,-92.8572 L 52.0365,-92.9266 L 52.2189,-92.9734
 L 52.4058,-92.997 L 52.5942,-92.997 L 52.7811,-92.9734 L 52.9635,-92.9266 L 53.1387,-92.8572 L 53.3037,-92.7665
 L 53.4561,-92.6558 L 53.5934,-92.5268 L 53.7135,-92.3817 L 53.8145,-92.2226 L 53.8947,-92.0522 L 53.9529,-91.873
 L 53.9882,-91.688 L 54,-91.5 L 53.9882,-91.312 L 53.9529,-91.127 L 53.8947,-90.9478 L 53.8145,-90.7774
 L 53.7135,-90.6183 L 53.5934,-90.4732 L 53.4561,-90.3442 L 53.3037,-90.2335 L 53.1387,-90.1427 L 52.9635,-90.0734
 L 52.7811,-90.0266 L 52.5942,-90.003 z
M 37.4058,-90.003 L 37.2189,-90.0266 L 37.0365,-90.0734 L 36.8613,-90.1427 L 36.6963,-90.2335 L 36.5439,-90.3442
 L 36.4065,-90.4732 L 36.2865,-90.6183 L 36.1855,-90.7774 L 36.1053,-90.9478 L 36.0471,-91.127 L 36.0118,-91.312
 L 36,-91.5 L 36.0118,-91.688 L 36.0471,-91.873 L 36.1053,-92.0522 L 36.1855,-92.2226 L 36.2865,-92.3817
 L 36.4065,-92.5268 L 36.5439,-92.6558 L 36.6963,-92.7665 L 36.8613,-92.8572 L 37.0365,-92.9266 L 37.2189,-92.9734
 L 37.4058,-92.997 L 37.5942,-92.997 L 37.7811,-92.9734 L 37.9635,-92.9266 L 38.1387,-92.8572 L 38.3037,-92.7665
 L 38.4561,-92.6558 L 38.5934,-92.5268 L 38.7135,-92.3817 L 38.8145,-92.2226 L 38.8947,-92.0522 L 38.9529,-91.873
 L 38.9882,-91.688 L 39,-91.5 L 38.9882,-91.312 L 38.9529,-91.127 L 38.8947,-90.9478 L 38.8145,-90.7774
 L 38.7135,-90.6183 L 38.5934,-90.4732 L 38.4561,-90.3442 L 38.3037,-90.2335 L 38.1387,-90.1427 L 37.9635,-90.0734
 L 37.7811,-90.0266 L 37.5942,-90.003 z
M -37.5942,-90.003 L -37.7811,-90.0266 L -37.9635,-90.0734 L -38.1387,-90.1427 L -38.3037,-90.2335 L -38.4561,-90.3442
 L -38.5934,-90.4732 L -38.7135,-90.6183 L -38.8145,-90.7774 L -38.8947,-90.9478 L -38.9529,-91.127 L -38.9882,-91.312
 L -39,-91.5 L -38.9882,-91.688 L -38.9529,-91.873 L -38.8947,-92.0522 L -38.8145,-92.2226 L -38.7135,-92.3817
 L -38.5934,-92.5268 L -38.4561,-92.6558 L -38.3037,-92.7665 L -38.1387,-92.8572 L -37.9635,-92.9266 L -37.7811,-92.9734
 L -37.5942,-92.997 L -37.4058,-92.997 L -37.2189,-92.9734 L -37.0365,-92.9266 L -36.8613,-92.8572 L -36.6963,-92.7665
 L -36.5439,-92.6558 L -36.4065,-92.5268 L -36.2865,-92.3817 L -36.1855,-92.2226 L -36.1053,-92.0522 L -36.0471,-91.873
 L -36.0118,-91.688 L -36,-91.5 L -36.0118,-91.312 L -36.0471,-91.127 L -36.1053,-90.9478 L -36.1855,-90.7774
 L -36.2865,-90.6183 L -36.4065,-90.4732 L -36.5439,-90.3442 L -36.6963,-90.2335 L -36.8613,-90.1427 L -37.0365,-90.0734
 L -37.2189,-90.0266 L -37.4058,-90.003 z
M 22.4058,-90.003 L 22.2189,-90.0266 L 22.0365,-90.0734 L 21.8613,-90.1427 L 21.6963,-90.2335 L 21.5439,-90.3442
 L 21.4065,-90.4732 L 21.2865,-90.6183 L 21.1855,-90.7774 L 21.1053,-90.9478 L 21.0471,-91.127 L 21.0118,-91.312
 L 21,-91.5 L 21.0118,-91.688 L 21.0471,-91.873 L 21.1053,-92.0522 L 21.1855,-92.2226 L 21.2865,-92.3817
 L 21.4065,-92.5268 L 21.5439,-92.6558 L 21.6963,-92.7665 L 21.8613,-92.8572 L 22.0365,-92.9266 L 22.2189,-92.9734
 L 22.4058,-92.997 L 22.5942,-92.997 L 22.7811,-92.9734 L 22.9635,-92.9266 L 23.1387,-92.8572 L 23.3037,-92.7665
 L 23.4561,-92.6558 L 23.5934,-92.5268 L 23.7135,-92.3817 L 23.8145,-92.2226 L 23.8947,-92.0522 L 23.9529,-91.873
 L 23.9882,-91.688 L 24,-91.5 L 23.9882,-91.312 L 23.9529,-91.127 L 23.8947,-90.9478 L 23.8145,-90.7774
 L 23.7135,-90.6183 L 23.5934,-90.4732 L 23.4561,-90.3442 L 23.3037,-90.2335 L 23.1387,-90.1427 L 22.9635,-90.0734
 L 22.7811,-90.0266 L 22.5942,-90.003 z
M -52.5942,-90.003 L -52.7811,-90.0266 L -52.9635,-90.0734 L -53.1387,-90.1427 L -53.3037,-90.2335 L -53.4561,-90.3442
 L -53.5934,-90.4732 L -53.7135,-90.6183 L -53.8145,-90.7774 L -53.8947,-90.9478 L -53.9529,-91.127 L -53.9882,-91.312
 L -54,-91.5 L -53.9882,-91.688 L -53.9529,-91.873 L -53.8947,-92.0522 L -53.8145,-92.2226 L -53.7135,-92.3817
 L -53.5934,-92.5268 L -53.4561,-92.6558 L -53.3037,-92.7665 L -53.1387,-92.8572 L -52.9635,-92.9266 L -52.7811,-92.9734
 L -52.5942,-92.997 L -52.4058,-92.997 L -52.2189,-92.9734 L -52.0365,-92.9266 L -51.8613,-92.8572 L -51.6963,-92.7665
 L -51.5439,-92.6558 L -51.4065,-92.5268 L -51.2865,-92.3817 L -51.1855,-92.2226 L -51.1053,-92.0522 L -51.0471,-91.873
 L -51.0118,-91.688 L -51,-91.5 L -51.0118,-91.312 L -51.0471,-91.127 L -51.1053,-90.9478 L -51.1855,-90.7774
 L -51.2865,-90.6183 L -51.4065,-90.4732 L -51.5439,-90.3442 L -51.6963,-90.2335 L -51.8613,-90.1427 L -52.0365,-90.0734
 L -52.2189,-90.0266 L -52.4058,-90.003 z
M -15.7849,-56.5247 L -17.3423,-56.7214 L -18.8627,-57.1118 L -20.3222,-57.6897 L -21.6978,-58.4459 L -22.9678,-59.3686
 L -24.1121,-60.4432 L -25.1127,-61.6527 L -25.9538,-62.9781 L -26.6222,-64.3985 L -27.1073,-65.8914 L -27.4014,-67.4333
 L -27.5,-69 L -27.4014,-70.5667 L -27.1073,-72.1086 L -26.6222,-73.6015 L -25.9538,-75.0219 L -25.1127,-76.3473
 L -24.1121,-77.5568 L -22.9678,-78.6314 L -21.6978,-79.5541 L -20.3222,-80.3103 L -18.8627,-80.8882 L -17.3423,-81.2786
 L -15.7849,-81.4753 L -14.2151,-81.4753 L -12.6577,-81.2786 L -11.1373,-80.8882 L -9.67775,-80.3103 L -8.30215,-79.5541
 L -7.0322,-78.6314 L -5.88788,-77.5568 L -4.88728,-76.3473 L -4.04616,-75.0219 L -3.37779,-73.6015 L -2.8927,-72.1086
 L -2.59856,-70.5667 L -2.5,-69 L -2.59856,-67.4333 L -2.8927,-65.8914 L -3.37779,-64.3985 L -4.04616,-62.9781
 L -4.88728,-61.6527 L -5.88788,-60.4432 L -7.0322,-59.3686 L -8.30215,-58.4459 L -9.67775,-57.6897 L -11.1373,-57.1118
 L -12.6577,-56.7214 L -14.2151,-56.5247 z
M -45.7849,-56.5247 L -47.3423,-56.7214 L -48.8627,-57.1118 L -50.3222,-57.6897 L -51.6978,-58.4459 L -52.9678,-59.3686
 L -54.1121,-60.4432 L -55.1127,-61.6527 L -55.9538,-62.9781 L -56.6222,-64.3985 L -57.1073,-65.8914 L -57.4014,-67.4333
 L -57.5,-69 L -57.4014,-70.5667 L -57.1073,-72.1086 L -56.6222,-73.6015 L -55.9538,-75.0219 L -55.1127,-76.3473
 L -54.1121,-77.5568 L -52.9678,-78.6314 L -51.6978,-79.5541 L -50.3222,-80.3103 L -48.8627,-80.8882 L -47.3423,-81.2786
 L -45.7849,-81.4753 L -44.2151,-81.4753 L -42.6577,-81.2786 L -41.1373,-80.8882 L -39.6777,-80.3103 L -38.3022,-79.5541
 L -37.0322,-78.6314 L -35.8879,-77.5568 L -34.8873,-76.3473 L -34.0462,-75.0219 L -33.3778,-73.6015 L -32.8927,-72.1086
 L -32.5986,-70.5667 L -32.5,-69 L -32.5986,-67.4333 L -32.8927,-65.8914 L -33.3778,-64.3985 L -34.0462,-62.9781
 L -34.8873,-61.6527 L -35.8879,-60.4432 L -37.0322,-59.3686 L -38.3022,-58.4459 L -39.6777,-57.6897 L -41.1373,-57.1118
 L -42.6577,-56.7214 L -44.2151,-56.5247 z
M 44.2151,-56.5247 L 42.6577,-56.7214 L 41.1373,-57.1118 L 39.6777,-57.6897 L 38.3022,-58.4459 L 37.0322,-59.3686
 L 35.8879,-60.4432 L 34.8873,-61.6527 L 34.0462,-62.9781 L 33.3778,-64.3985 L 32.8927,-65.8914 L 32.5986,-67.4333
 L 32.5,-69 L 32.5986,-70.5667 L 32.8927,-72.1086 L 33.3778,-73.6015 L 34.0462,-75.0219 L 34.8873,-76.3473
 L 35.8879,-77.5568 L 37.0322,-78.6314 L 38.3022,-79.5541 L 39.6777,-80.3103 L 41.1373,-80.8882 L 42.6577,-81.2786
 L 44.2151,-81.4753 L 45.7849,-81.4753 L 47.3423,-81.2786 L 48.8627,-80.8882 L 50.3222,-80.3103 L 51.6978,-79.5541
 L 52.9678,-78.6314 L 54.1121,-77.5568 L 55.1127,-76.3473 L 55.9538,-75.0219 L 56.6222,-73.6015 L 57.1073,-72.1086
 L 57.4014,-70.5667 L 57.5,-69 L 57.4014,-67.4333 L 57.1073,-65.8914 L 56.6222,-64.3985 L 55.9538,-62.9781
 L 55.1127,-61.6527 L 54.1121,-60.4432 L 52.9678,-59.3686 L 51.6978,-58.4459 L 50.3222,-57.6897 L 48.8627,-57.1118
 L 47.3423,-56.7214 L 45.7849,-56.5247 z
M 14.2151,-56.5247 L 12.6577,-56.7214 L 11.1373,-57.1118 L 9.67775,-57.6897 L 8.30215,-58.4459 L 7.0322,-59.3686
 L 5.88788,-60.4432 L 4.88728,-61.6527 L 4.04616,-62.9781 L 3.37779,-64.3985 L 2.8927,-65.8914 L 2.59856,-67.4333
 L 2.5,-69 L 2.59856,-70.5667 L 2.8927,-72.1086 L 3.37779,-73.6015 L 4.04616,-75.0219 L 4.88728,-76.3473
 L 5.88788,-77.5568 L 7.0322,-78.6314 L 8.30215,-79.5541 L 9.67775,-80.3103 L 11.1373,-80.8882 L 12.6577,-81.2786
 L 14.2151,-81.4753 L 15.7849,-81.4753 L 17.3423,-81.2786 L 18.8627,-80.8882 L 20.3222,-80.3103 L 21.6978,-79.5541
 L 22.9678,-78.6314 L 24.1121,-77.5568 L 25.1127,-76.3473 L 25.9538,-75.0219 L 26.6222,-73.6015 L 27.1073,-72.1086
 L 27.4014,-70.5667 L 27.5,-69 L 27.4014,-67.4333 L 27.1073,-65.8914 L 26.6222,-64.3985 L 25.9538,-62.9781
 L 25.1127,-61.6527 L 24.1121,-60.4432 L 22.9678,-59.3686 L 21.6978,-58.4459 L 20.3222,-57.6897 L 18.8627,-57.1118
 L 17.3423,-56.7214 L 15.7849,-56.5247 z
M 29.8116,-43.5059 L 29.4379,-43.5531 L 29.0729,-43.6468 L 28.7227,-43.7855 L 28.3925,-43.967 L 28.0877,-44.1885
 L 27.8131,-44.4464 L 27.5729,-44.7366 L 27.3711,-45.0547 L 27.2107,-45.3956 L 27.0942,-45.7539 L 27.0237,-46.124
 L 27,-46.5 L 27.0237,-46.876 L 27.0942,-47.2461 L 27.2107,-47.6044 L 27.3711,-47.9453 L 27.5729,-48.2634
 L 27.8131,-48.5536 L 28.0877,-48.8116 L 28.3925,-49.033 L 28.7227,-49.2145 L 29.0729,-49.3532 L 29.4379,-49.4469
 L 29.8116,-49.4941 L 30.1884,-49.4941 L 30.5621,-49.4469 L 30.927,-49.3532 L 31.2773,-49.2145 L 31.6075,-49.033
 L 31.9123,-48.8116 L 32.1869,-48.5536 L 32.427,-48.2634 L 32.6289,-47.9453 L 32.7893,-47.6044 L 32.9057,-47.2461
 L 32.9763,-46.876 L 33,-46.5 L 32.9763,-46.124 L 32.9057,-45.7539 L 32.7893,-45.3956 L 32.6289,-45.0547
 L 32.427,-44.7366 L 32.1869,-44.4464 L 31.9123,-44.1885 L 31.6075,-43.967 L 31.2773,-43.7855 L 30.927,-43.6468
 L 30.5621,-43.5531 L 30.1884,-43.5059 z
M -60.1884,-43.5059 L -60.5621,-43.5531 L -60.927,-43.6468 L -61.2773,-43.7855 L -61.6075,-43.967 L -61.9123,-44.1885
 L -62.1869,-44.4464 L -62.427,-44.7366 L -62.6289,-45.0547 L -62.7893,-45.3956 L -62.9057,-45.7539 L -62.9763,-46.124
 L -63,-46.5 L -62.9763,-46.876 L -62.9057,-47.2461 L -62.7893,-47.6044 L -62.6289,-47.9453 L -62.427,-48.2634
 L -62.1869,-48.5536 L -61.9123,-48.8116 L -61.6075,-49.033 L -61.2773,-49.2145 L -60.927,-49.3532 L -60.5621,-49.4469
 L -60.1884,-49.4941 L -59.8116,-49.4941 L -59.4379,-49.4469 L -59.0729,-49.3532 L -58.7227,-49.2145 L -58.3925,-49.033
 L -58.0877,-48.8116 L -57.8131,-48.5536 L -57.5729,-48.2634 L -57.3711,-47.9453 L -57.2107,-47.6044 L -57.0942,-47.2461
 L -57.0237,-46.876 L -57,-46.5 L -57.0237,-46.124 L -57.0942,-45.7539 L -57.2107,-45.3956 L -57.3711,-45.0547
 L -57.5729,-44.7366 L -57.8131,-44.4464 L -58.0877,-44.1885 L -58.3925,-43.967 L -58.7227,-43.7855 L -59.0729,-43.6468
 L -59.4379,-43.5531 L -59.8116,-43.5059 z
M 59.8116,-43.5059 L 59.4379,-43.5531 L 59.0729,-43.6468 L 58.7227,-43.7855 L 58.3925,-43.967 L 58.0877,-44.1885
 L 57.8131,-44.4464 L 57.5729,-44.7366 L 57.3711,-45.0547 L 57.2107,-45.3956 L 57.0942,-45.7539 L 57.0237,-46.124
 L 57,-46.5 L 57.0237,-46.876 L 57.0942,-47.2461 L 57.2107,-47.6044 L 57.3711,-47.9453 L 57.5729,-48.2634
 L 57.8131,-48.5536 L 58.0877,-48.8116 L 58.3925,-49.033 L 58.7227,-49.2145 L 59.0729,-49.3532 L 59.4379,-49.4469
 L 59.8116,-49.4941 L 60.1884,-49.4941 L 60.5621,-49.4469 L 60.927,-49.3532 L 61.2773,-49.2145 L 61.6075,-49.033
 L 61.9123,-48.8116 L 62.1869,-48.5536 L 62.427,-48.2634 L 62.6289,-47.9453 L 62.7893,-47.6044 L 62.9057,-47.2461
 L 62.9763,-46.876 L 63,-46.5 L 62.9763,-46.124 L 62.9057,-45.7539 L 62.7893,-45.3956 L 62.6289,-45.0547
 L 62.427,-44.7366 L 62.1869,-44.4464 L 61.9123,-44.1885 L 61.6075,-43.967 L 61.2773,-43.7855 L 60.927,-43.6468
 L 60.5621,-43.5531 L 60.1884,-43.5059 z
M -15.1884,-43.5059 L -15.5621,-43.5531 L -15.927,-43.6468 L -16.2773,-43.7855 L -16.6075,-43.967 L -16.9123,-44.1885
 L -17.1869,-44.4464 L -17.427,-44.7366 L -17.6289,-45.0547 L -17.7893,-45.3956 L -17.9057,-45.7539 L -17.9763,-46.124
 L -18,-46.5 L -17.9763,-46.876 L -17.9057,-47.2461 L -17.7893,-47.6044 L -17.6289,-47.9453 L -17.427,-48.2634
 L -17.1869,-48.5536 L -16.9123,-48.8116 L -16.6075,-49.033 L -16.2773,-49.2145 L -15.927,-49.3532 L -15.5621,-49.4469
 L -15.1884,-49.4941 L -14.8116,-49.4941 L -14.4379,-49.4469 L -14.0729,-49.3532 L -13.7227,-49.2145 L -13.3925,-49.033
 L -13.0877,-48.8116 L -12.8131,-48.5536 L -12.5729,-48.2634 L -12.3711,-47.9453 L -12.2107,-47.6044 L -12.0942,-47.2461
 L -12.0237,-46.876 L -12,-46.5 L -12.0237,-46.124 L -12.0942,-45.7539 L -12.2107,-45.3956 L -12.3711,-45.0547
 L -12.5729,-44.7366 L -12.8131,-44.4464 L -13.0877,-44.1885 L -13.3925,-43.967 L -13.7227,-43.7855 L -14.0729,-43.6468
 L -14.4379,-43.5531 L -14.8116,-43.5059 z
M -0.18837,-43.5059 L -0.562134,-43.5531 L -0.927048,-43.6468 L -1.27733,-43.7855 L -1.60747,-43.967 L -1.91226,-44.1885
 L -2.1869,-44.4464 L -2.42705,-44.7366 L -2.62891,-45.0547 L -2.78932,-45.3956 L -2.90575,-45.7539 L -2.97633,-46.124
 L -3,-46.5 L -2.97633,-46.876 L -2.90575,-47.2461 L -2.78932,-47.6044 L -2.62891,-47.9453 L -2.42705,-48.2634
 L -2.1869,-48.5536 L -1.91226,-48.8116 L -1.60747,-49.033 L -1.27733,-49.2145 L -0.927048,-49.3532 L -0.562134,-49.4469
 L -0.18837,-49.4941 L 0.18837,-49.4941 L 0.562134,-49.4469 L 0.927048,-49.3532 L 1.27733,-49.2145 L 1.60747,-49.033
 L 1.91226,-48.8116 L 2.1869,-48.5536 L 2.42705,-48.2634 L 2.62891,-47.9453 L 2.78932,-47.6044 L 2.90575,-47.2461
 L 2.97633,-46.876 L 3,-46.5 L 2.97633,-46.124 L 2.90575,-45.7539 L 2.78932,-45.3956 L 2.62891,-45.0547
 L 2.42705,-44.7366 L 2.1869,-44.4464 L 1.91226,-44.1885 L 1.60747,-43.967 L 1.27733,-43.7855 L 0.927048,-43.6468
 L 0.562134,-43.5531 L 0.18837,-43.5059 z
M -30.1884,-43.5059 L -30.5621,-43.5531 L -30.927,-43.6468 L -31.2773,-43.7855 L -31.6075,-43.967 L -31.9123,-44.1885
 L -32.1869,-44.4464 L -32.427,-44.7366 L -32.6289,-45.0547 L -32.7893,-45.3956 L -32.9057,-45.7539 L -32.9763,-46.124
 L -33,-46.5 L -32.9763,-46.876 L -32.9057,-47.2461 L -32.7893,-47.6044 L -32.6289,-47.9453 L -32.427,-48.2634
 L -32.1869,-48.5536 L -31.9123,-48.8116 L -31.6075,-49.033 L -31.2773,-49.2145 L -30.927,-49.3532 L -30.5621,-49.4469
 L -30.1884,-49.4941 L -29.8116,-49.4941 L -29.4379,-49.4469 L -29.0729,-49.3532 L -28.7227,-49.2145 L -28.3925,-49.033
 L -28.0877,-48.8116 L -27.8131,-48.5536 L -27.5729,-48.2634 L -27.3711,-47.9453 L -27.2107,-47.6044 L -27.0942,-47.2461
 L -27.0237,-46.876 L -27,-46.5 L -27.0237,-46.124 L -27.0942,-45.7539 L -27.2107,-45.3956 L -27.3711,-45.0547
 L -27.5729,-44.7366 L -27.8131,-44.4464 L -28.0877,-44.1885 L -28.3925,-43.967 L -28.7227,-43.7855 L -29.0729,-43.6468
 L -29.4379,-43.5531 L -29.8116,-43.5059 z
M -45.1884,-43.5059 L -45.5621,-43.5531 L -45.927,-43.6468 L -46.2773,-43.7855 L -46.6075,-43.967 L -46.9123,-44.1885
 L -47.1869,-44.4464 L -47.427,-44.7366 L -47.6289,-45.0547 L -47.7893,-45.3956 L -47.9057,-45.7539 L -47.9763,-46.124
 L -48,-46.5 L -47.9763,-46.876 L -47.9057,-47.2461 L -47.7893,-47.6044 L -47.6289,-47.9453 L -47.427,-48.2634
 L -47.1869,-48.5536 L -46.9123,-48.8116 L -46.6075,-49.033 L -46.2773,-49.2145 L -45.927,-49.3532 L -45.5621,-49.4469
 L -45.1884,-49.4941 L -44.8116,-49.4941 L -44.4379,-49.4469 L -44.0729,-49.3532 L -43.7227,-49.2145 L -43.3925,-49.033
 L -43.0877,-48.8116 L -42.8131,-48.5536 L -42.5729,-48.2634 L -42.3711,-47.9453 L -42.2107,-47.6044 L -42.0942,-47.2461
 L -42.0237,-46.876 L -42,-46.5 L -42.0237,-46.124 L -42.0942,-45.7539 L -42.2107,-45.3956 L -42.3711,-45.0547
 L -42.5729,-44.7366 L -42.8131,-44.4464 L -43.0877,-44.1885 L -43.3925,-43.967 L -43.7227,-43.7855 L -44.0729,-43.6468
 L -44.4379,-43.5531 L -44.8116,-43.5059 z
M 14.8116,-43.5059 L 14.4379,-43.5531 L 14.0729,-43.6468 L 13.7227,-43.7855 L 13.3925,-43.967 L 13.0877,-44.1885
 L 12.8131,-44.4464 L 12.5729,-44.7366 L 12.3711,-45.0547 L 12.2107,-45.3956 L 12.0942,-45.7539 L 12.0237,-46.124
 L 12,-46.5 L 12.0237,-46.876 L 12.0942,-47.2461 L 12.2107,-47.6044 L 12.3711,-47.9453 L 12.5729,-48.2634
 L 12.8131,-48.5536 L 13.0877,-48.8116 L 13.3925,-49.033 L 13.7227,-49.2145 L 14.0729,-49.3532 L 14.4379,-49.4469
 L 14.8116,-49.4941 L 15.1884,-49.4941 L 15.5621,-49.4469 L 15.927,-49.3532 L 16.2773,-49.2145 L 16.6075,-49.033
 L 16.9123,-48.8116 L 17.1869,-48.5536 L 17.427,-48.2634 L 17.6289,-47.9453 L 17.7893,-47.6044 L 17.9057,-47.2461
 L 17.9763,-46.876 L 18,-46.5 L 17.9763,-46.124 L 17.9057,-45.7539 L 17.7893,-45.3956 L 17.6289,-45.0547
 L 17.427,-44.7366 L 17.1869,-44.4464 L 16.9123,-44.1885 L 16.6075,-43.967 L 16.2773,-43.7855 L 15.927,-43.6468
 L 15.5621,-43.5531 L 15.1884,-43.5059 z
M 44.8116,-43.5059 L 44.4379,-43.5531 L 44.0729,-43.6468 L 43.7227,-43.7855 L 43.3925,-43.967 L 43.0877,-44.1885
 L 42.8131,-44.4464 L 42.5729,-44.7366 L 42.3711,-45.0547 L 42.2107,-45.3956 L 42.0942,-45.7539 L 42.0237,-46.124
 L 42,-46.5 L 42.0237,-46.876 L 42.0942,-47.2461 L 42.2107,-47.6044 L 42.3711,-47.9453 L 42.5729,-48.2634
 L 42.8131,-48.5536 L 43.0877,-48.8116 L 43.3925,-49.033 L 43.7227,-49.2145 L 44.0729,-49.3532 L 44.4379,-49.4469
 L 44.8116,-49.4941 L 45.1884,-49.4941 L 45.5621,-49.4469 L 45.927,-49.3532 L 46.2773,-49.2145 L 46.6075,-49.033
 L 46.9123,-48.8116 L 47.1869,-48.5536 L 47.427,-48.2634 L 47.6289,-47.9453 L 47.7893,-47.6044 L 47.9057,-47.2461
 L 47.9763,-46.876 L 48,-46.5 L 47.9763,-46.124 L 47.9057,-45.7539 L 47.7893,-45.3956 L 47.6289,-45.0547
 L 47.427,-44.7366 L 47.1869,-44.4464 L 46.9123,-44.1885 L 46.6075,-43.967 L 46.2773,-43.7855 L 45.927,-43.6468
 L 45.5621,-43.5531 L 45.1884,-43.5059 z
M 7.40581,-45.003 L 7.21892,-45.0266 L 7.03647,-45.0734 L 6.86133,-45.1428 L 6.69626,-45.2335 L 6.54385,-45.3442
 L 6.40654,-45.4732 L 6.28647,-45.6183 L 6.18553,-45.7774 L 6.10533,-45.9478 L 6.04712,-46.127 L 6.01183,-46.312
 L 6,-46.5 L 6.01183,-46.688 L 6.04712,-46.873 L 6.10533,-47.0522 L 6.18553,-47.2226 L 6.28647,-47.3817
 L 6.40654,-47.5268 L 6.54385,-47.6558 L 6.69626,-47.7665 L 6.86133,-47.8573 L 7.03647,-47.9266 L 7.21892,-47.9734
 L 7.40581,-47.997 L 7.59418,-47.997 L 7.78107,-47.9734 L 7.96352,-47.9266 L 8.13866,-47.8573 L 8.30373,-47.7665
 L 8.45613,-47.6558 L 8.59344,-47.5268 L 8.71352,-47.3817 L 8.81445,-47.2226 L 8.89465,-47.0522 L 8.95287,-46.873
 L 8.98816,-46.688 L 9,-46.5 L 8.98816,-46.312 L 8.95287,-46.127 L 8.89465,-45.9478 L 8.81445,-45.7774
 L 8.71352,-45.6183 L 8.59344,-45.4732 L 8.45613,-45.3442 L 8.30373,-45.2335 L 8.13866,-45.1428 L 7.96352,-45.0734
 L 7.78107,-45.0266 L 7.59418,-45.003 z
M -22.5942,-45.003 L -22.7811,-45.0266 L -22.9635,-45.0734 L -23.1387,-45.1428 L -23.3037,-45.2335 L -23.4561,-45.3442
 L -23.5934,-45.4732 L -23.7135,-45.6183 L -23.8145,-45.7774 L -23.8947,-45.9478 L -23.9529,-46.127 L -23.9882,-46.312
 L -24,-46.5 L -23.9882,-46.688 L -23.9529,-46.873 L -23.8947,-47.0522 L -23.8145,-47.2226 L -23.7135,-47.3817
 L -23.5934,-47.5268 L -23.4561,-47.6558 L -23.3037,-47.7665 L -23.1387,-47.8573 L -22.9635,-47.9266 L -22.7811,-47.9734
 L -22.5942,-47.997 L -22.4058,-47.997 L -22.2189,-47.9734 L -22.0365,-47.9266 L -21.8613,-47.8573 L -21.6963,-47.7665
 L -21.5439,-47.6558 L -21.4065,-47.5268 L -21.2865,-47.3817 L -21.1855,-47.2226 L -21.1053,-47.0522 L -21.0471,-46.873
 L -21.0118,-46.688 L -21,-46.5 L -21.0118,-46.312 L -21.0471,-46.127 L -21.1053,-45.9478 L -21.1855,-45.7774
 L -21.2865,-45.6183 L -21.4065,-45.4732 L -21.5439,-45.3442 L -21.6963,-45.2335 L -21.8613,-45.1428 L -22.0365,-45.0734
 L -22.2189,-45.0266 L -22.4058,-45.003 z
M -7.59418,-45.003 L -7.78107,-45.0266 L -7.96352,-45.0734 L -8.13866,-45.1428 L -8.30373,-45.2335 L -8.45613,-45.3442
 L -8.59344,-45.4732 L -8.71352,-45.6183 L -8.81445,-45.7774 L -8.89465,-45.9478 L -8.95287,-46.127 L -8.98816,-46.312
 L -9,-46.5 L -8.98816,-46.688 L -8.95287,-46.873 L -8.89465,-47.0522 L -8.81445,-47.2226 L -8.71352,-47.3817
 L -8.59344,-47.5268 L -8.45613,-47.6558 L -8.30373,-47.7665 L -8.13866,-47.8573 L -7.96352,-47.9266 L -7.78107,-47.9734
 L -7.59418,-47.997 L -7.40581,-47.997 L -7.21892,-47.9734 L -7.03647,-47.9266 L -6.86133,-47.8573 L -6.69626,-47.7665
 L -6.54385,-47.6558 L -6.40654,-47.5268 L -6.28647,-47.3817 L -6.18553,-47.2226 L -6.10533,-47.0522 L -6.04712,-46.873
 L -6.01183,-46.688 L -6,-46.5 L -6.01183,-46.312 L -6.04712,-46.127 L -6.10533,-45.9478 L -6.18553,-45.7774
 L -6.28647,-45.6183 L -6.40654,-45.4732 L -6.54385,-45.3442 L -6.69626,-45.2335 L -6.86133,-45.1428 L -7.03647,-45.0734
 L -7.21892,-45.0266 L -7.40581,-45.003 z
M 22.4058,-45.003 L 22.2189,-45.0266 L 22.0365,-45.0734 L 21.8613,-45.1428 L 21.6963,-45.2335 L 21.5439,-45.3442
 L 21.4065,-45.4732 L 21.2865,-45.6183 L 21.1855,-45.7774 L 21.1053,-45.9478 L 21.0471,-46.127 L 21.0118,-46.312
 L 21,-46.5 L 21.0118,-46.688 L 21.0471,-46.873 L 21.1053,-47.0522 L 21.1855,-47.2226 L 21.2865,-47.3817
 L 21.4065,-47.5268 L 21.5439,-47.6558 L 21.6963,-47.7665 L 21.8613,-47.8573 L 22.0365,-47.9266 L 22.2189,-47.9734
 L 22.4058,-47.997 L 22.5942,-47.997 L 22.7811,-47.9734 L 22.9635,-47.9266 L 23.1387,-47.8573 L 23.3037,-47.7665
 L 23.4561,-47.6558 L 23.5934,-47.5268 L 23.7135,-47.3817 L 23.8145,-47.2226 L 23.8947,-47.0522 L 23.9529,-46.873
 L 23.9882,-46.688 L 24,-46.5 L 23.9882,-46.312 L 23.9529,-46.127 L 23.8947,-45.9478 L 23.8145,-45.7774
 L 23.7135,-45.6183 L 23.5934,-45.4732 L 23.4561,-45.3442 L 23.3037,-45.2335 L 23.1387,-45.1428 L 22.9635,-45.0734
 L 22.7811,-45.0266 L 22.5942,-45.003 z
M 37.4058,-45.003 L 37.2189,-45.0266 L 37.0365,-45.0734 L 36.8613,-45.1428 L 36.6963,-45.2335 L 36.5439,-45.3442
 L 36.4065,-45.4732 L 36.2865,-45.6183 L 36.1855,-45.7774 L 36.1053,-45.9478 L 36.0471,-46.127 L 36.0118,-46.312
 L 36,-46.5 L 36.0118,-46.688 L 36.0471,-46.873 L 36.1053,-47.0522 L 36.1855,-47.2226 L 36.2865,-47.3817
 L 36.4065,-47.5268 L 36.5439,-47.6558 L 36.6963,-47.7665 L 36.8613,-47.8573 L 37.0365,-47.9266 L 37.2189,-47.9734
 L 37.4058,-47.997 L 37.5942,-47.997 L 37.7811,-47.9734 L 37.9635,-47.9266 L 38.1387,-47.8573 L 38.3037,-47.7665
 L 38.4561,-47.6558 L 38.5934,-47.5268 L 38.7135,-47.3817 L 38.8145,-47.2226 L 38.8947,-47.0522 L 38.9529,-46.873
 L 38.9882,-46.688 L 39,-46.5 L 38.9882,-46.312 L 38.9529,-46.127 L 38.8947,-45.9478 L 38.8145,-45.7774
 L 38.7135,-45.6183 L 38.5934,-45.4732 L 38.4561,-45.3442 L 38.3037,-45.2335 L 38.1387,-45.1428 L 37.9635,-45.0734
 L 37.7811,-45.0266 L 37.5942,-45.003 z
M -52.5942,-45.003 L -52.7811,-45.0266 L -52.9635,-45.0734 L -53.1387,-45.1428 L -53.3037,-45.2335 L -53.4561,-45.3442
 L -53.5934,-45.4732 L -53.7135,-45.6183 L -53.8145,-45.7774 L -53.8947,-45.9478 L -53.9529,-46.127 L -53.9882,-46.312
 L -54,-46.5 L -53.9882,-46.688 L -53.9529,-46.873 L -53.8947,-47.0522 L -53.8145,-47.2226 L -53.7135,-47.3817
 L -53.5934,-47.5268 L -53.4561,-47.6558 L -53.3037,-47.7665 L -53.1387,-47.8573 L -52.9635,-47.9266 L -52.7811,-47.9734
 L -52.5942,-47.997 L -52.4058,-47.997 L -52.2189,-47.9734 L -52.0365,-47.9266 L -51.8613,-47.8573 L -51.6963,-47.7665
 L -51.5439,-47.6558 L -51.4065,-47.5268 L -51.2865,-47.3817 L -51.1855,-47.2226 L -51.1053,-47.0522 L -51.0471,-46.873
 L -51.0118,-46.688 L -51,-46.5 L -51.0118,-46.312 L -51.0471,-46.127 L -51.1053,-45.9478 L -51.1855,-45.7774
 L -51.2865,-45.6183 L -51.4065,-45.4732 L -51.5439,-45.3442 L -51.6963,-45.2335 L -51.8613,-45.1428 L -52.0365,-45.0734
 L -52.2189,-45.0266 L -52.4058,-45.003 z
M 52.4058,-45.003 L 52.2189,-45.0266 L 52.0365,-45.0734 L 51.8613,-45.1428 L 51.6963,-45.2335 L 51.5439,-45.3442
 L 51.4065,-45.4732 L 51.2865,-45.6183 L 51.1855,-45.7774 L 51.1053,-45.9478 L 51.0471,-46.127 L 51.0118,-46.312
 L 51,-46.5 L 51.0118,-46.688 L 51.0471,-46.873 L 51.1053,-47.0522 L 51.1855,-47.2226 L 51.2865,-47.3817
 L 51.4065,-47.5268 L 51.5439,-47.6558 L 51.6963,-47.7665 L 51.8613,-47.8573 L 52.0365,-47.9266 L 52.2189,-47.9734
 L 52.4058,-47.997 L 52.5942,-47.997 L 52.7811,-47.9734 L 52.9635,-47.9266 L 53.1387,-47.8573 L 53.3037,-47.7665
 L 53.4561,-47.6558 L 53.5934,-47.5268 L 53.7135,-47.3817 L 53.8145,-47.2226 L 53.8947,-47.0522 L 53.9529,-46.873
 L 53.9882,-46.688 L 54,-46.5 L 53.9882,-46.312 L 53.9529,-46.127 L 53.8947,-45.9478 L 53.8145,-45.7774
 L 53.7135,-45.6183 L 53.5934,-45.4732 L 53.4561,-45.3442 L 53.3037,-45.2335 L 53.1387,-45.1428 L 52.9635,-45.0734
 L 52.7811,-45.0266 L 52.5942,-45.003 z
M -37.5942,-45.003 L -37.7811,-45.0266 L -37.9635,-45.0734 L -38.1387,-45.1428 L -38.3037,-45.2335 L -38.4561,-45.3442
 L -38.5934,-45.4732 L -38.7135,-45.6183 L -38.8145,-45.7774 L -38.8947,-45.9478 L -38.9529,-46.127 L -38.9882,-46.312
 L -39,-46.5 L -38.9882,-46.688 L -38.9529,-46.873 L -38.8947,-47.0522 L -38.8145,-47.2226 L -38.7135,-47.3817
 L -38.5934,-47.5268 L -38.4561,-47.6558 L -38.3037,-47.7665 L -38.1387,-47.8573 L -37.9635,-47.9266 L -37.7811,-47.9734
 L -37.5942,-47.997 L -37.4058,-47.997 L -37.2189,-47.9734 L -37.0365,-47.9266 L -36.8613,-47.8573 L -36.6963,-47.7665
 L -36.5439,-47.6558 L -36.4065,-47.5268 L -36.2865,-47.3817 L -36.1855,-47.2226 L -36.1053,-47.0522 L -36.0471,-46.873
 L -36.0118,-46.688 L -36,-46.5 L -36.0118,-46.312 L -36.0471,-46.127 L -36.1053,-45.9478 L -36.1855,-45.7774
 L -36.2865,-45.6183 L -36.4065,-45.4732 L -36.5439,-45.3442 L -36.6963,-45.2335 L -36.8613,-45.1428 L -37.0365,-45.0734
 L -37.2189,-45.0266 L -37.4058,-45.003 z
" stroke="black" fill="lightgray" stroke-width="0.5"/>
</svg>
