<?xml version="1.0" standalone="no"?>
<!DOCTYPE svg PUBLIC "-//W3C//DTD SVG 1.1//EN" "http://www.w3.org/Graphics/SVG/1.1/DTD/svg11.dtd">
<svg width="450mm" height="150mm" viewBox="-225 -75 450 150" xmlns="http://www.w3.org/2000/svg" version="1.1">
<title>OpenSCAD Model</title>
<path d="
M 220.437,74.4114 L 221.045,74.2553 L 221.629,74.0241 L 222.179,73.7216 L 222.687,73.3526 L 223.145,72.9227
 L 223.545,72.4389 L 223.882,71.9088 L 224.149,71.3406 L 224.343,70.7434 L 224.461,70.1267 L 224.5,69.5
 L 224.5,-69.5 L 224.461,-70.1267 L 224.343,-70.7434 L 224.149,-71.3406 L 223.882,-71.9088 L 223.545,-72.4389
 L 223.145,-72.9227 L 222.687,-73.3526 L 222.179,-73.7216 L 221.629,-74.0241 L 221.045,-74.2553 L 220.437,-74.4114
 L 219.814,-74.4901 L -219.814,-74.4901 L -220.437,-74.4114 L -221.045,-74.2553 L -221.629,-74.0241 L -222.179,-73.7216
 L -222.687,-73.3526 L -223.145,-72.9227 L -223.545,-72.4389 L -223.882,-71.9088 L -224.149,-71.3406 L -224.343,-70.7434
 L -224.461,-70.1267 L -224.5,-69.5 L -224.5,69.5 L -224.461,70.1267 L -224.343,70.7434 L -224.149,71.3406
 L -223.882,71.9088 L -223.545,72.4389 L -223.145,72.9227 L -222.687,73.3526 L -222.179,73.7216 L -221.629,74.0241
 L -221.045,74.2553 L -220.437,74.4114 L -219.814,74.4901 L 219.814,74.4901 z
M -217.688,-64.5059 L -218.062,-64.5531 L -218.427,-64.6468 L -218.777,-64.7855 L -219.107,-64.967 L -219.412,-65.1885
 L -219.687,-65.4464 L -219.927,-65.7366 L -220.129,-66.0547 L -220.289,-66.3956 L -220.406,-66.7539 L -220.476,-67.124
 L -220.5,-67.5 L -220.476,-67.876 L -220.406,-68.2461 L -220.289,-68.6044 L -220.129,-68.9453 L -219.927,-69.2634
 L -219.687,-69.5536 L -219.412,-69.8115 L -219.107,-70.033 L -218.777,-70.2145 L -218.427,-70.3532 L -218.062,-70.4469
 L -217.688,-70.4941 L -217.312,-70.4941 L -216.938,-70.4469 L -216.573,-70.3532 L -216.223,-70.2145 L -215.893,-70.033
 L -215.588,-69.8115 L -215.313,-69.5536 L -215.073,-69.2634 L -214.871,-68.9453 L -214.711,-68.6044 L -214.594,-68.2461
 L -214.524,-67.876 L -214.5,-67.5 L -214.524,-67.124 L -214.594,-66.7539 L -214.711,-66.3956 L -214.871,-66.0547
 L -215.073,-65.7366 L -215.313,-65.4464 L -215.588,-65.1885 L -215.893,-64.967 L -216.223,-64.7855 L -216.573,-64.6468
 L -216.938,-64.5531 L -217.312,-64.5059 z
M 217.312,-64.5059 L 216.938,-64.5531 L 216.573,-64.6468 L 216.223,-64.7855 L 215.893,-64.967 L 215.588,-65.1885
 L 215.313,-65.4464 L 215.073,-65.7366 L 214.871,-66.0547 L 214.711,-66.3956 L 214.594,-66.7539 L 214.524,-67.124
 L 214.5,-67.5 L 214.524,-67.876 L 214.594,-68.2461 L 214.711,-68.6044 L 214.871,-68.9453 L 215.073,-69.2634
 L 215.313,-69.5536 L 215.588,-69.8115 L 215.893,-70.033 L 216.223,-70.2145 L 216.573,-70.3532 L 216.938,-70.4469
 L 217.312,-70.4941 L 217.688,-70.4941 L 218.062,-70.4469 L 218.427,-70.3532 L 218.777,-70.2145 L 219.107,-70.033
 L 219.412,-69.8115 L 219.687,-69.5536 L 219.927,-69.2634 L 220.129,-68.9453 L 220.289,-68.6044 L 220.406,-68.2461
 L 220.476,-67.876 L 220.5,-67.5 L 220.476,-67.124 L 220.406,-66.7539 L 220.289,-66.3956 L 220.129,-66.0547
 L 219.927,-65.7366 L 219.687,-65.4464 L 219.412,-65.1885 L 219.107,-64.967 L 218.777,-64.7855 L 218.427,-64.6468
 L 218.062,-64.5531 L 217.688,-64.5059 z
M 140.605,69.8619 L 131.883,68.7601 L 123.369,66.574 L 115.195,63.3379 L 107.492,59.103 L 100.38,53.9359
 L 93.9722,47.9183 L 88.3688,41.145 L 83.6585,33.7227 L 79.9156,25.7687 L 77.1992,17.4083 L 75.552,8.77332
 L 75,-0 L 75.552,-8.77332 L 77.1992,-17.4083 L 79.9156,-25.7687 L 83.6585,-33.7227 L 88.3688,-41.145
 L 93.9722,-47.9183 L 100.38,-53.9359 L 107.492,-59.103 L 115.195,-63.3379 L 123.369,-66.574 L 131.883,-68.7601
 L 140.605,-69.8619 L 149.395,-69.8619 L 158.117,-68.7601 L 166.631,-66.574 L 174.805,-63.3379 L 182.508,-59.103
 L 189.62,-53.9359 L 196.028,-47.9183 L 201.631,-41.145 L 206.341,-33.7227 L 210.084,-25.7687 L 212.801,-17.4083
 L 214.448,-8.77332 L 215,-0 L 214.448,8.77332 L 212.801,17.4083 L 210.084,25.7687 L 206.341,33.7227
 L 201.631,41.145 L 196.028,47.9183 L 189.62,53.9359 L 182.508,59.103 L 174.805,63.3379 L 166.631,66.574
 L 158.117,68.7601 L 149.395,69.8619 z
M -149.395,69.8619 L -158.117,68.7601 L -166.631,66.574 L -174.805,63.3379 L -182.508,59.103 L -189.62,53.9359
 L -196.028,47.9183 L -201.631,41.145 L -206.341,33.7227 L -210.084,25.7687 L -212.801,17.4083 L -214.448,8.77332
 L -215,-0 L -214.448,-8.77332 L -212.801,-17.4083 L -210.084,-25.7687 L -206.341,-33.7227 L -201.631,-41.145
 L -196.028,-47.9183 L -189.62,-53.9359 L -182.508,-59.103 L -174.805,-63.3379 L -166.631,-66.574 L -158.117,-68.7601
 L -149.395,-69.8619 L -140.605,-69.8619 L -131.883,-68.7601 L -123.369,-66.574 L -115.195,-63.3379 L -107.492,-59.103
 L -100.38,-53.9359 L -93.9722,-47.9183 L -88.3688,-41.145 L -83.6585,-33.7227 L -79.9156,-25.7687 L -77.1992,-17.4083
 L -75.552,-8.77332 L -75,-0 L -75.552,8.77332 L -77.1992,17.4083 L -79.9156,25.7687 L -83.6585,33.7227
 L -88.3688,41.145 L -93.9722,47.9183 L -100.38,53.9359 L -107.492,59.103 L -115.195,63.3379 L -123.369,66.574
 L -131.883,68.7601 L -140.605,69.8619 z
M -4.39532,69.8619 L -13.1167,68.7601 L -21.6312,66.574 L -29.8046,63.3379 L -37.5079,59.103 L -44.6197,53.9359
 L -51.0278,47.9183 L -56.6312,41.145 L -61.3415,33.7227 L -65.0844,25.7687 L -67.8008,17.4083 L -69.448,8.77332
 L -70,-0 L -69.448,-8.77332 L -67.8008,-17.4083 L -65.0844,-25.7687 L -61.3415,-33.7227 L -56.6312,-41.145
 L -51.0278,-47.9183 L -44.6197,-53.9359 L -37.5079,-59.103 L -29.8046,-63.3379 L -21.6312,-66.574 L -13.1167,-68.7601
 L -4.39532,-69.8619 L 4.39532,-69.8619 L 13.1167,-68.7601 L 21.6312,-66.574 L 29.8046,-63.3379 L 37.5079,-59.103
 L 44.6197,-53.9359 L 51.0278,-47.9183 L 56.6312,-41.145 L 61.3415,-33.7227 L 65.0844,-25.7687 L 67.8008,-17.4083
 L 69.448,-8.77332 L 70,-0 L 69.448,8.77332 L 67.8008,17.4083 L 65.0844,25.7687 L 61.3415,33.7227
 L 56.6312,41.145 L 51.0278,47.9183 L 44.6197,53.9359 L 37.5079,59.103 L 29.8046,63.3379 L 21.6312,66.574
 L 13.1167,68.7601 L 4.39532,69.8619 z
M -217.688,70.4941 L -218.062,70.4469 L -218.427,70.3532 L -218.777,70.2145 L -219.107,70.033 L -219.412,69.8115
 L -219.687,69.5536 L -219.927,69.2634 L -220.129,68.9453 L -220.289,68.6044 L -220.406,68.2461 L -220.476,67.876
 L -220.5,67.5 L -220.476,67.124 L -220.406,66.7539 L -220.289,66.3956 L -220.129,66.0547 L -219.927,65.7366
 L -219.687,65.4464 L -219.412,65.1885 L -219.107,64.967 L -218.777,64.7855 L -218.427,64.6468 L -218.062,64.5531
 L -217.688,64.5059 L -217.312,64.5059 L -216.938,64.5531 L -216.573,64.6468 L -216.223,64.7855 L -215.893,64.967
 L -215.588,65.1885 L -215.313,65.4464 L -215.073,65.7366 L -214.871,66.0547 L -214.711,66.3956 L -214.594,66.7539
 L -214.524,67.124 L -214.5,67.5 L -214.524,67.876 L -214.594,68.2461 L -214.711,68.6044 L -214.871,68.9453
 L -215.073,69.2634 L -215.313,69.5536 L -215.588,69.8115 L -215.893,70.033 L -216.223,70.2145 L -216.573,70.3532
 L -216.938,70.4469 L -217.312,70.4941 z
M 217.312,70.4941 L 216.938,70.4469 L 216.573,70.3532 L 216.223,70.2145 L 215.893,70.033 L 215.588,69.8115
 L 215.313,69.5536 L 215.073,69.2634 L 214.871,68.9453 L 214.711,68.6044 L 214.594,68.2461 L 214.524,67.876
 L 214.5,67.5 L 214.524,67.124 L 214.594,66.7539 L 214.711,66.3956 L 214.871,66.0547 L 215.073,65.7366
 L 215.313,65.4464 L 215.588,65.1885 L 215.893,64.967 L 216.223,64.7855 L 216.573,64.6468 L 216.938,64.5531
 L 217.312,64.5059 L 217.688,64.5059 L 218.062,64.5531 L 218.427,64.6468 L 218.777,64.7855 L 219.107,64.967
 L 219.412,65.1885 L 219.687,65.4464 L 219.927,65.7366 L 220.129,66.0547 L 220.289,66.3956 L 220.406,66.7539
 L 220.476,67.124 L 220.5,67.5 L 220.476,67.876 L 220.406,68.2461 L 220.289,68.6044 L 220.129,68.9453
 L 219.927,69.2634 L 219.687,69.5536 L 219.412,69.8115 L 219.107,70.033 L 218.777,70.2145 L 218.427,70.3532
 L 218.062,70.4469 L 217.688,70.4941 z
" stroke="black" fill="lightgray" stroke-width="0.5"/>
</svg>
