solid OpenSCAD_Model
  facet normal -0.998027 -0.062794 0
    outer loop
      vertex 3.5 0 0
      vertex 3.4724 0.438665 6
      vertex 3.4724 0.438665 0
    endloop
  endfacet
  facet normal -0.998027 -0.062794 0
    outer loop
      vertex 3.4724 0.438665 6
      vertex 3.5 0 0
      vertex 3.5 0 6
    endloop
  endfacet
  facet normal 0.998027 -0.062794 0
    outer loop
      vertex -3.5 0 6
      vertex -3.4724 0.438665 0
      vertex -3.4724 0.438665 6
    endloop
  endfacet
  facet normal 0.998027 -0.062794 0
    outer loop
      vertex -3.4724 0.438665 0
      vertex -3.5 0 6
      vertex -3.5 0 0
    endloop
  endfacet
  facet normal 0 -1 0
    outer loop
      vertex -0.219767 3.49309 0
      vertex 0.219767 3.49309 6
      vertex -0.219767 3.49309 6
    endloop
  endfacet
  facet normal 0 -1 -0
    outer loop
      vertex 0.219767 3.49309 6
      vertex -0.219767 3.49309 0
      vertex 0.219767 3.49309 0
    endloop
  endfacet
  facet normal 0 1 -0
    outer loop
      vertex 0.219767 -3.49309 0
      vertex -0.219767 -3.49309 6
      vertex 0.219767 -3.49309 6
    endloop
  endfacet
  facet normal 0 1 0
    outer loop
      vertex -0.219767 -3.49309 6
      vertex 0.219767 -3.49309 0
      vertex -0.219767 -3.49309 0
    endloop
  endfacet
  facet normal -0.684553 -0.728963 0
    outer loop
      vertex 2.23098 2.6968 0
      vertex 2.55139 2.39591 6
      vertex 2.23098 2.6968 6
    endloop
  endfacet
  facet normal -0.684553 -0.728963 -0
    outer loop
      vertex 2.55139 2.39591 6
      vertex 2.23098 2.6968 0
      vertex 2.55139 2.39591 0
    endloop
  endfacet
  facet normal 0.684553 -0.728963 0
    outer loop
      vertex -2.55139 2.39591 0
      vertex -2.23098 2.6968 6
      vertex -2.55139 2.39591 6
    endloop
  endfacet
  facet normal 0.684553 -0.728963 0
    outer loop
      vertex -2.23098 2.6968 6
      vertex -2.55139 2.39591 0
      vertex -2.23098 2.6968 0
    endloop
  endfacet
  facet normal 0.368137 -0.929772 0
    outer loop
      vertex -1.49023 3.16689 0
      vertex -1.08156 3.3287 6
      vertex -1.49023 3.16689 6
    endloop
  endfacet
  facet normal 0.368137 -0.929772 0
    outer loop
      vertex -1.08156 3.3287 6
      vertex -1.49023 3.16689 0
      vertex -1.08156 3.3287 0
    endloop
  endfacet
  facet normal -0.904825 -0.425783 0
    outer loop
      vertex 3.25422 1.28843 0
      vertex 3.06707 1.68614 6
      vertex 3.06707 1.68614 0
    endloop
  endfacet
  facet normal -0.904825 -0.425783 0
    outer loop
      vertex 3.06707 1.68614 6
      vertex 3.25422 1.28843 0
      vertex 3.25422 1.28843 6
    endloop
  endfacet
  facet normal -0.982287 -0.18738 0
    outer loop
      vertex 3.4724 0.438665 0
      vertex 3.39004 0.870414 6
      vertex 3.39004 0.870414 0
    endloop
  endfacet
  facet normal -0.982287 -0.18738 0
    outer loop
      vertex 3.39004 0.870414 6
      vertex 3.4724 0.438665 0
      vertex 3.4724 0.438665 6
    endloop
  endfacet
  facet normal -0.844332 -0.535821 0
    outer loop
      vertex 3.06707 1.68614 0
      vertex 2.83156 2.05725 6
      vertex 2.83156 2.05725 0
    endloop
  endfacet
  facet normal -0.844332 -0.535821 0
    outer loop
      vertex 2.83156 2.05725 6
      vertex 3.06707 1.68614 0
      vertex 3.06707 1.68614 6
    endloop
  endfacet
  facet normal -0.368137 -0.929772 0
    outer loop
      vertex 1.08156 3.3287 0
      vertex 1.49023 3.16689 6
      vertex 1.08156 3.3287 6
    endloop
  endfacet
  facet normal -0.368137 -0.929772 -0
    outer loop
      vertex 1.49023 3.16689 6
      vertex 1.08156 3.3287 0
      vertex 1.49023 3.16689 0
    endloop
  endfacet
  facet normal -0.481748 -0.87631 0
    outer loop
      vertex 1.49023 3.16689 0
      vertex 1.87539 2.95515 6
      vertex 1.49023 3.16689 6
    endloop
  endfacet
  facet normal -0.481748 -0.87631 -0
    outer loop
      vertex 1.87539 2.95515 6
      vertex 1.49023 3.16689 0
      vertex 1.87539 2.95515 0
    endloop
  endfacet
  facet normal 0.844332 -0.535821 0
    outer loop
      vertex -3.06707 1.68614 6
      vertex -2.83156 2.05725 0
      vertex -2.83156 2.05725 6
    endloop
  endfacet
  facet normal 0.844332 -0.535821 0
    outer loop
      vertex -2.83156 2.05725 0
      vertex -3.06707 1.68614 6
      vertex -3.06707 1.68614 0
    endloop
  endfacet
  facet normal 0.770506 -0.637432 0
    outer loop
      vertex -2.83156 2.05725 6
      vertex -2.55139 2.39591 0
      vertex -2.55139 2.39591 6
    endloop
  endfacet
  facet normal 0.770506 -0.637432 0
    outer loop
      vertex -2.55139 2.39591 0
      vertex -2.83156 2.05725 6
      vertex -2.83156 2.05725 0
    endloop
  endfacet
  facet normal 0.951058 -0.309014 0
    outer loop
      vertex -3.39004 0.870414 6
      vertex -3.25422 1.28843 0
      vertex -3.25422 1.28843 6
    endloop
  endfacet
  facet normal 0.951058 -0.309014 0
    outer loop
      vertex -3.25422 1.28843 0
      vertex -3.39004 0.870414 6
      vertex -3.39004 0.870414 0
    endloop
  endfacet
  facet normal 0.587783 -0.809018 0
    outer loop
      vertex -2.23098 2.6968 0
      vertex -1.87539 2.95515 6
      vertex -2.23098 2.6968 6
    endloop
  endfacet
  facet normal 0.587783 -0.809018 0
    outer loop
      vertex -1.87539 2.95515 6
      vertex -2.23098 2.6968 0
      vertex -1.87539 2.95515 0
    endloop
  endfacet
  facet normal 0.248673 -0.968587 0
    outer loop
      vertex -1.08156 3.3287 0
      vertex -0.655834 3.438 6
      vertex -1.08156 3.3287 6
    endloop
  endfacet
  facet normal 0.248673 -0.968587 0
    outer loop
      vertex -0.655834 3.438 6
      vertex -1.08156 3.3287 0
      vertex -0.655834 3.438 0
    endloop
  endfacet
  facet normal -0.125338 0.992114 0
    outer loop
      vertex 0.655834 -3.438 0
      vertex 0.219767 -3.49309 6
      vertex 0.655834 -3.438 6
    endloop
  endfacet
  facet normal -0.125338 0.992114 0
    outer loop
      vertex 0.219767 -3.49309 6
      vertex 0.655834 -3.438 0
      vertex 0.219767 -3.49309 0
    endloop
  endfacet
  facet normal -0.951058 -0.309014 0
    outer loop
      vertex 3.39004 0.870414 0
      vertex 3.25422 1.28843 6
      vertex 3.25422 1.28843 0
    endloop
  endfacet
  facet normal -0.951058 -0.309014 0
    outer loop
      vertex 3.25422 1.28843 6
      vertex 3.39004 0.870414 0
      vertex 3.39004 0.870414 6
    endloop
  endfacet
  facet normal -0.770506 -0.637432 0
    outer loop
      vertex 2.83156 2.05725 0
      vertex 2.55139 2.39591 6
      vertex 2.55139 2.39591 0
    endloop
  endfacet
  facet normal -0.770506 -0.637432 0
    outer loop
      vertex 2.55139 2.39591 6
      vertex 2.83156 2.05725 0
      vertex 2.83156 2.05725 6
    endloop
  endfacet
  facet normal -0.248673 -0.968587 0
    outer loop
      vertex 0.655834 3.438 0
      vertex 1.08156 3.3287 6
      vertex 0.655834 3.438 6
    endloop
  endfacet
  facet normal -0.248673 -0.968587 -0
    outer loop
      vertex 1.08156 3.3287 6
      vertex 0.655834 3.438 0
      vertex 1.08156 3.3287 0
    endloop
  endfacet
  facet normal -0.125338 -0.992114 0
    outer loop
      vertex 0.219767 3.49309 0
      vertex 0.655834 3.438 6
      vertex 0.219767 3.49309 6
    endloop
  endfacet
  facet normal -0.125338 -0.992114 -0
    outer loop
      vertex 0.655834 3.438 6
      vertex 0.219767 3.49309 0
      vertex 0.655834 3.438 0
    endloop
  endfacet
  facet normal -0.587783 -0.809018 0
    outer loop
      vertex 1.87539 2.95515 0
      vertex 2.23098 2.6968 6
      vertex 1.87539 2.95515 6
    endloop
  endfacet
  facet normal -0.587783 -0.809018 -0
    outer loop
      vertex 2.23098 2.6968 6
      vertex 1.87539 2.95515 0
      vertex 2.23098 2.6968 0
    endloop
  endfacet
  facet normal 0.904825 -0.425783 0
    outer loop
      vertex -3.25422 1.28843 6
      vertex -3.06707 1.68614 0
      vertex -3.06707 1.68614 6
    endloop
  endfacet
  facet normal 0.904825 -0.425783 0
    outer loop
      vertex -3.06707 1.68614 0
      vertex -3.25422 1.28843 6
      vertex -3.25422 1.28843 0
    endloop
  endfacet
  facet normal 0.982287 -0.18738 0
    outer loop
      vertex -3.4724 0.438665 6
      vertex -3.39004 0.870414 0
      vertex -3.39004 0.870414 6
    endloop
  endfacet
  facet normal 0.982287 -0.18738 0
    outer loop
      vertex -3.39004 0.870414 0
      vertex -3.4724 0.438665 6
      vertex -3.4724 0.438665 0
    endloop
  endfacet
  facet normal 0 0 1
    outer loop
      vertex 3.5 0 6
      vertex 7 0 6
      vertex 6.9448 0.877332 6
    endloop
  endfacet
  facet normal 0 0 1
    outer loop
      vertex 3.4724 0.438665 6
      vertex 6.9448 0.877332 6
      vertex 6.78008 1.74083 6
    endloop
  endfacet
  facet normal 0 0 1
    outer loop
      vertex 7 0 6
      vertex 3.5 0 6
      vertex 6.9448 -0.877332 6
    endloop
  endfacet
  facet normal 0 0 1
    outer loop
      vertex 3.39004 0.870414 6
      vertex 6.78008 1.74083 6
      vertex 6.50844 2.57687 6
    endloop
  endfacet
  facet normal -0 0 1
    outer loop
      vertex 3.4724 -0.438665 6
      vertex 6.9448 -0.877332 6
      vertex 3.5 0 6
    endloop
  endfacet
  facet normal 0 0 1
    outer loop
      vertex 3.25422 1.28843 6
      vertex 6.50844 2.57687 6
      vertex 6.13415 3.37228 6
    endloop
  endfacet
  facet normal 0 0 1
    outer loop
      vertex 6.9448 -0.877332 6
      vertex 3.4724 -0.438665 6
      vertex 6.78008 -1.74083 6
    endloop
  endfacet
  facet normal 0 0 1
    outer loop
      vertex 3.06707 1.68614 6
      vertex 6.13415 3.37228 6
      vertex 5.66312 4.1145 6
    endloop
  endfacet
  facet normal -0 0 1
    outer loop
      vertex 3.39004 -0.870414 6
      vertex 6.78008 -1.74083 6
      vertex 3.4724 -0.438665 6
    endloop
  endfacet
  facet normal 0 0 1
    outer loop
      vertex 2.83156 2.05725 6
      vertex 5.66312 4.1145 6
      vertex 5.10278 4.79183 6
    endloop
  endfacet
  facet normal 0 0 1
    outer loop
      vertex 6.78008 -1.74083 6
      vertex 3.39004 -0.870414 6
      vertex 6.50844 -2.57687 6
    endloop
  endfacet
  facet normal 0 0 1
    outer loop
      vertex 2.55139 2.39591 6
      vertex 5.10278 4.79183 6
      vertex 4.46197 5.39359 6
    endloop
  endfacet
  facet normal -0 0 1
    outer loop
      vertex 3.25422 -1.28843 6
      vertex 6.50844 -2.57687 6
      vertex 3.39004 -0.870414 6
    endloop
  endfacet
  facet normal 0 0 1
    outer loop
      vertex 2.23098 2.6968 6
      vertex 4.46197 5.39359 6
      vertex 3.75079 5.91029 6
    endloop
  endfacet
  facet normal 0 0 1
    outer loop
      vertex 6.50844 -2.57687 6
      vertex 3.25422 -1.28843 6
      vertex 6.13415 -3.37228 6
    endloop
  endfacet
  facet normal -0 0 1
    outer loop
      vertex 3.06707 -1.68614 6
      vertex 6.13415 -3.37228 6
      vertex 3.25422 -1.28843 6
    endloop
  endfacet
  facet normal 0 0 1
    outer loop
      vertex 6.9448 0.877332 6
      vertex 3.4724 0.438665 6
      vertex 3.5 0 6
    endloop
  endfacet
  facet normal 0 0 1
    outer loop
      vertex 6.78008 1.74083 6
      vertex 3.39004 0.870414 6
      vertex 3.4724 0.438665 6
    endloop
  endfacet
  facet normal 0 0 1
    outer loop
      vertex 6.50844 2.57687 6
      vertex 3.25422 1.28843 6
      vertex 3.39004 0.870414 6
    endloop
  endfacet
  facet normal 0 0 1
    outer loop
      vertex 6.13415 3.37228 6
      vertex 3.06707 1.68614 6
      vertex 3.25422 1.28843 6
    endloop
  endfacet
  facet normal 0 0 1
    outer loop
      vertex 1.87539 2.95515 6
      vertex 3.75079 5.91029 6
      vertex 2.98045 6.33379 6
    endloop
  endfacet
  facet normal 0 0 1
    outer loop
      vertex 5.66312 4.1145 6
      vertex 2.83156 2.05725 6
      vertex 3.06707 1.68614 6
    endloop
  endfacet
  facet normal 0 0 1
    outer loop
      vertex 5.10278 4.79183 6
      vertex 2.55139 2.39591 6
      vertex 2.83156 2.05725 6
    endloop
  endfacet
  facet normal 0 0 1
    outer loop
      vertex 4.46197 5.39359 6
      vertex 2.23098 2.6968 6
      vertex 2.55139 2.39591 6
    endloop
  endfacet
  facet normal 0 0 1
    outer loop
      vertex 1.49023 3.16689 6
      vertex 2.98045 6.33379 6
      vertex 2.16312 6.6574 6
    endloop
  endfacet
  facet normal 0 0 1
    outer loop
      vertex 3.75079 5.91029 6
      vertex 1.87539 2.95515 6
      vertex 2.23098 2.6968 6
    endloop
  endfacet
  facet normal 0 0 1
    outer loop
      vertex 2.98045 6.33379 6
      vertex 1.49023 3.16689 6
      vertex 1.87539 2.95515 6
    endloop
  endfacet
  facet normal 0 0 1
    outer loop
      vertex 1.08156 3.3287 6
      vertex 2.16312 6.6574 6
      vertex 1.31167 6.87601 6
    endloop
  endfacet
  facet normal 0 0 1
    outer loop
      vertex 2.16312 6.6574 6
      vertex 1.08156 3.3287 6
      vertex 1.49023 3.16689 6
    endloop
  endfacet
  facet normal 0 0 1
    outer loop
      vertex 1.31167 6.87601 6
      vertex 0.655834 3.438 6
      vertex 1.08156 3.3287 6
    endloop
  endfacet
  facet normal 0 0 1
    outer loop
      vertex 0.439533 6.98619 6
      vertex 0.655834 3.438 6
      vertex 1.31167 6.87601 6
    endloop
  endfacet
  facet normal 0 0 1
    outer loop
      vertex 0.439533 6.98619 6
      vertex 0.219767 3.49309 6
      vertex 0.655834 3.438 6
    endloop
  endfacet
  facet normal 0 0 1
    outer loop
      vertex 0.439533 6.98619 6
      vertex -0.219767 3.49309 6
      vertex 0.219767 3.49309 6
    endloop
  endfacet
  facet normal -0 0 1
    outer loop
      vertex -0.439533 6.98619 6
      vertex -0.219767 3.49309 6
      vertex 0.439533 6.98619 6
    endloop
  endfacet
  facet normal 0 0 1
    outer loop
      vertex -0.439533 6.98619 6
      vertex -0.655834 3.438 6
      vertex -0.219767 3.49309 6
    endloop
  endfacet
  facet normal -0 0 1
    outer loop
      vertex -1.31167 6.87601 6
      vertex -0.655834 3.438 6
      vertex -0.439533 6.98619 6
    endloop
  endfacet
  facet normal 0 0 1
    outer loop
      vertex -0.655834 3.438 6
      vertex -1.31167 6.87601 6
      vertex -1.08156 3.3287 6
    endloop
  endfacet
  facet normal -0 0 1
    outer loop
      vertex -2.16312 6.6574 6
      vertex -1.08156 3.3287 6
      vertex -1.31167 6.87601 6
    endloop
  endfacet
  facet normal 0 0 1
    outer loop
      vertex -1.08156 3.3287 6
      vertex -2.16312 6.6574 6
      vertex -1.49023 3.16689 6
    endloop
  endfacet
  facet normal -0 0 1
    outer loop
      vertex -2.98045 6.33379 6
      vertex -1.49023 3.16689 6
      vertex -2.16312 6.6574 6
    endloop
  endfacet
  facet normal 0 0 1
    outer loop
      vertex -1.49023 3.16689 6
      vertex -2.98045 6.33379 6
      vertex -1.87539 2.95515 6
    endloop
  endfacet
  facet normal -0 0 1
    outer loop
      vertex -3.75079 5.91029 6
      vertex -1.87539 2.95515 6
      vertex -2.98045 6.33379 6
    endloop
  endfacet
  facet normal 0 0 1
    outer loop
      vertex -1.87539 2.95515 6
      vertex -3.75079 5.91029 6
      vertex -2.23098 2.6968 6
    endloop
  endfacet
  facet normal -0 0 1
    outer loop
      vertex -4.46197 5.39359 6
      vertex -2.23098 2.6968 6
      vertex -3.75079 5.91029 6
    endloop
  endfacet
  facet normal 0 0 1
    outer loop
      vertex -2.23098 2.6968 6
      vertex -4.46197 5.39359 6
      vertex -2.55139 2.39591 6
    endloop
  endfacet
  facet normal -0 0 1
    outer loop
      vertex -5.10278 4.79183 6
      vertex -2.55139 2.39591 6
      vertex -4.46197 5.39359 6
    endloop
  endfacet
  facet normal 0 0 1
    outer loop
      vertex -2.55139 2.39591 6
      vertex -5.10278 4.79183 6
      vertex -2.83156 2.05725 6
    endloop
  endfacet
  facet normal -0 0 1
    outer loop
      vertex -5.66312 4.1145 6
      vertex -2.83156 2.05725 6
      vertex -5.10278 4.79183 6
    endloop
  endfacet
  facet normal -0 0 1
    outer loop
      vertex -6.13415 3.37228 6
      vertex -3.06707 1.68614 6
      vertex -5.66312 4.1145 6
    endloop
  endfacet
  facet normal 0 0 1
    outer loop
      vertex -2.83156 2.05725 6
      vertex -5.66312 4.1145 6
      vertex -3.06707 1.68614 6
    endloop
  endfacet
  facet normal 0 0 1
    outer loop
      vertex 6.13415 -3.37228 6
      vertex 3.06707 -1.68614 6
      vertex 5.66312 -4.1145 6
    endloop
  endfacet
  facet normal -0 0 1
    outer loop
      vertex 2.83156 -2.05725 6
      vertex 5.66312 -4.1145 6
      vertex 3.06707 -1.68614 6
    endloop
  endfacet
  facet normal 0 0 1
    outer loop
      vertex 5.66312 -4.1145 6
      vertex 2.83156 -2.05725 6
      vertex 5.10278 -4.79183 6
    endloop
  endfacet
  facet normal -0 0 1
    outer loop
      vertex 2.55139 -2.39591 6
      vertex 5.10278 -4.79183 6
      vertex 2.83156 -2.05725 6
    endloop
  endfacet
  facet normal 0 0 1
    outer loop
      vertex 5.10278 -4.79183 6
      vertex 2.55139 -2.39591 6
      vertex 4.46197 -5.39359 6
    endloop
  endfacet
  facet normal -0 0 1
    outer loop
      vertex 2.23098 -2.6968 6
      vertex 4.46197 -5.39359 6
      vertex 2.55139 -2.39591 6
    endloop
  endfacet
  facet normal 0 0 1
    outer loop
      vertex 4.46197 -5.39359 6
      vertex 2.23098 -2.6968 6
      vertex 3.75079 -5.91029 6
    endloop
  endfacet
  facet normal -0 0 1
    outer loop
      vertex 1.87539 -2.95515 6
      vertex 3.75079 -5.91029 6
      vertex 2.23098 -2.6968 6
    endloop
  endfacet
  facet normal 0 0 1
    outer loop
      vertex 3.75079 -5.91029 6
      vertex 1.87539 -2.95515 6
      vertex 2.98045 -6.33379 6
    endloop
  endfacet
  facet normal -0 0 1
    outer loop
      vertex 1.49023 -3.16689 6
      vertex 2.98045 -6.33379 6
      vertex 1.87539 -2.95515 6
    endloop
  endfacet
  facet normal 0 0 1
    outer loop
      vertex 2.98045 -6.33379 6
      vertex 1.49023 -3.16689 6
      vertex 2.16312 -6.6574 6
    endloop
  endfacet
  facet normal -0 0 1
    outer loop
      vertex 1.08156 -3.3287 6
      vertex 2.16312 -6.6574 6
      vertex 1.49023 -3.16689 6
    endloop
  endfacet
  facet normal 0 0 1
    outer loop
      vertex 2.16312 -6.6574 6
      vertex 1.08156 -3.3287 6
      vertex 1.31167 -6.87601 6
    endloop
  endfacet
  facet normal -0 0 1
    outer loop
      vertex 0.655834 -3.438 6
      vertex 1.31167 -6.87601 6
      vertex 1.08156 -3.3287 6
    endloop
  endfacet
  facet normal 0 0 1
    outer loop
      vertex 0.655834 -3.438 6
      vertex 0.439533 -6.98619 6
      vertex 1.31167 -6.87601 6
    endloop
  endfacet
  facet normal -0 0 1
    outer loop
      vertex 0.219767 -3.49309 6
      vertex 0.439533 -6.98619 6
      vertex 0.655834 -3.438 6
    endloop
  endfacet
  facet normal -0 0 1
    outer loop
      vertex -0.219767 -3.49309 6
      vertex 0.439533 -6.98619 6
      vertex 0.219767 -3.49309 6
    endloop
  endfacet
  facet normal 0 0 1
    outer loop
      vertex -0.219767 -3.49309 6
      vertex -0.439533 -6.98619 6
      vertex 0.439533 -6.98619 6
    endloop
  endfacet
  facet normal 0 0 1
    outer loop
      vertex -0.655834 -3.438 6
      vertex -0.439533 -6.98619 6
      vertex -0.219767 -3.49309 6
    endloop
  endfacet
  facet normal 0 0 1
    outer loop
      vertex -1.31167 -6.87601 6
      vertex -0.655834 -3.438 6
      vertex -1.08156 -3.3287 6
    endloop
  endfacet
  facet normal 0 0 1
    outer loop
      vertex -0.655834 -3.438 6
      vertex -1.31167 -6.87601 6
      vertex -0.439533 -6.98619 6
    endloop
  endfacet
  facet normal 0 0 1
    outer loop
      vertex -2.16312 -6.6574 6
      vertex -1.08156 -3.3287 6
      vertex -1.49023 -3.16689 6
    endloop
  endfacet
  facet normal 0 0 1
    outer loop
      vertex -2.98045 -6.33379 6
      vertex -1.49023 -3.16689 6
      vertex -1.87539 -2.95515 6
    endloop
  endfacet
  facet normal 0 0 1
    outer loop
      vertex -1.08156 -3.3287 6
      vertex -2.16312 -6.6574 6
      vertex -1.31167 -6.87601 6
    endloop
  endfacet
  facet normal 0 0 1
    outer loop
      vertex -3.75079 -5.91029 6
      vertex -1.87539 -2.95515 6
      vertex -2.23098 -2.6968 6
    endloop
  endfacet
  facet normal 0 0 1
    outer loop
      vertex -4.46197 -5.39359 6
      vertex -2.23098 -2.6968 6
      vertex -2.55139 -2.39591 6
    endloop
  endfacet
  facet normal 0 0 1
    outer loop
      vertex -5.10278 -4.79183 6
      vertex -2.55139 -2.39591 6
      vertex -2.83156 -2.05725 6
    endloop
  endfacet
  facet normal 0 0 1
    outer loop
      vertex -1.49023 -3.16689 6
      vertex -2.98045 -6.33379 6
      vertex -2.16312 -6.6574 6
    endloop
  endfacet
  facet normal 0 0 1
    outer loop
      vertex -5.66312 -4.1145 6
      vertex -2.83156 -2.05725 6
      vertex -3.06707 -1.68614 6
    endloop
  endfacet
  facet normal 0 0 1
    outer loop
      vertex -6.13415 -3.37228 6
      vertex -3.06707 -1.68614 6
      vertex -3.25422 -1.28843 6
    endloop
  endfacet
  facet normal 0 0 1
    outer loop
      vertex -6.50844 -2.57687 6
      vertex -3.25422 -1.28843 6
      vertex -3.39004 -0.870414 6
    endloop
  endfacet
  facet normal 0 0 1
    outer loop
      vertex -6.78008 -1.74083 6
      vertex -3.39004 -0.870414 6
      vertex -3.4724 -0.438665 6
    endloop
  endfacet
  facet normal 0 0 1
    outer loop
      vertex -1.87539 -2.95515 6
      vertex -3.75079 -5.91029 6
      vertex -2.98045 -6.33379 6
    endloop
  endfacet
  facet normal 0 0 1
    outer loop
      vertex -6.9448 -0.877332 6
      vertex -3.4724 -0.438665 6
      vertex -3.5 0 6
    endloop
  endfacet
  facet normal 0 0 1
    outer loop
      vertex -3.06707 1.68614 6
      vertex -6.13415 3.37228 6
      vertex -3.25422 1.28843 6
    endloop
  endfacet
  facet normal -0 0 1
    outer loop
      vertex -6.50844 2.57687 6
      vertex -3.25422 1.28843 6
      vertex -6.13415 3.37228 6
    endloop
  endfacet
  facet normal 0 0 1
    outer loop
      vertex -2.23098 -2.6968 6
      vertex -4.46197 -5.39359 6
      vertex -3.75079 -5.91029 6
    endloop
  endfacet
  facet normal 0 0 1
    outer loop
      vertex -3.25422 1.28843 6
      vertex -6.50844 2.57687 6
      vertex -3.39004 0.870414 6
    endloop
  endfacet
  facet normal 0 0 1
    outer loop
      vertex -2.55139 -2.39591 6
      vertex -5.10278 -4.79183 6
      vertex -4.46197 -5.39359 6
    endloop
  endfacet
  facet normal -0 0 1
    outer loop
      vertex -6.78008 1.74083 6
      vertex -3.39004 0.870414 6
      vertex -6.50844 2.57687 6
    endloop
  endfacet
  facet normal 0 0 1
    outer loop
      vertex -2.83156 -2.05725 6
      vertex -5.66312 -4.1145 6
      vertex -5.10278 -4.79183 6
    endloop
  endfacet
  facet normal 0 0 1
    outer loop
      vertex -3.39004 0.870414 6
      vertex -6.78008 1.74083 6
      vertex -3.4724 0.438665 6
    endloop
  endfacet
  facet normal 0 0 1
    outer loop
      vertex -3.06707 -1.68614 6
      vertex -6.13415 -3.37228 6
      vertex -5.66312 -4.1145 6
    endloop
  endfacet
  facet normal -0 0 1
    outer loop
      vertex -6.9448 0.877332 6
      vertex -3.4724 0.438665 6
      vertex -6.78008 1.74083 6
    endloop
  endfacet
  facet normal 0 0 1
    outer loop
      vertex -3.25422 -1.28843 6
      vertex -6.50844 -2.57687 6
      vertex -6.13415 -3.37228 6
    endloop
  endfacet
  facet normal 0 0 1
    outer loop
      vertex -3.4724 0.438665 6
      vertex -6.9448 0.877332 6
      vertex -3.5 0 6
    endloop
  endfacet
  facet normal 0 0 1
    outer loop
      vertex -3.39004 -0.870414 6
      vertex -6.78008 -1.74083 6
      vertex -6.50844 -2.57687 6
    endloop
  endfacet
  facet normal 0 0 1
    outer loop
      vertex -7 0 6
      vertex -3.5 0 6
      vertex -6.9448 0.877332 6
    endloop
  endfacet
  facet normal 0 0 1
    outer loop
      vertex -3.4724 -0.438665 6
      vertex -6.9448 -0.877332 6
      vertex -6.78008 -1.74083 6
    endloop
  endfacet
  facet normal 0 0 1
    outer loop
      vertex -3.5 0 6
      vertex -7 0 6
      vertex -6.9448 -0.877332 6
    endloop
  endfacet
  facet normal 0.481748 -0.87631 0
    outer loop
      vertex -1.87539 2.95515 0
      vertex -1.49023 3.16689 6
      vertex -1.87539 2.95515 6
    endloop
  endfacet
  facet normal 0.481748 -0.87631 0
    outer loop
      vertex -1.49023 3.16689 6
      vertex -1.87539 2.95515 0
      vertex -1.49023 3.16689 0
    endloop
  endfacet
  facet normal 0.125338 -0.992114 0
    outer loop
      vertex -0.655834 3.438 0
      vertex -0.219767 3.49309 6
      vertex -0.655834 3.438 6
    endloop
  endfacet
  facet normal 0.125338 -0.992114 0
    outer loop
      vertex -0.219767 3.49309 6
      vertex -0.655834 3.438 0
      vertex -0.219767 3.49309 0
    endloop
  endfacet
  facet normal -0.770506 0.637432 0
    outer loop
      vertex 2.55139 -2.39591 0
      vertex 2.83156 -2.05725 6
      vertex 2.83156 -2.05725 0
    endloop
  endfacet
  facet normal -0.770506 0.637432 0
    outer loop
      vertex 2.83156 -2.05725 6
      vertex 2.55139 -2.39591 0
      vertex 2.55139 -2.39591 6
    endloop
  endfacet
  facet normal -0.951058 0.309014 0
    outer loop
      vertex 3.25422 -1.28843 0
      vertex 3.39004 -0.870414 6
      vertex 3.39004 -0.870414 0
    endloop
  endfacet
  facet normal -0.951058 0.309014 0
    outer loop
      vertex 3.39004 -0.870414 6
      vertex 3.25422 -1.28843 0
      vertex 3.25422 -1.28843 6
    endloop
  endfacet
  facet normal -0.982287 0.18738 0
    outer loop
      vertex 3.39004 -0.870414 0
      vertex 3.4724 -0.438665 6
      vertex 3.4724 -0.438665 0
    endloop
  endfacet
  facet normal -0.982287 0.18738 0
    outer loop
      vertex 3.4724 -0.438665 6
      vertex 3.39004 -0.870414 0
      vertex 3.39004 -0.870414 6
    endloop
  endfacet
  facet normal 0.904825 0.425783 0
    outer loop
      vertex -3.06707 -1.68614 6
      vertex -3.25422 -1.28843 0
      vertex -3.25422 -1.28843 6
    endloop
  endfacet
  facet normal 0.904825 0.425783 0
    outer loop
      vertex -3.25422 -1.28843 0
      vertex -3.06707 -1.68614 6
      vertex -3.06707 -1.68614 0
    endloop
  endfacet
  facet normal 0 0 -1
    outer loop
      vertex 3.5 0 0
      vertex 7 0 0
      vertex 6.9448 -0.877332 0
    endloop
  endfacet
  facet normal 0 0 -1
    outer loop
      vertex 3.4724 -0.438665 0
      vertex 6.9448 -0.877332 0
      vertex 6.78008 -1.74083 0
    endloop
  endfacet
  facet normal 0 0 -1
    outer loop
      vertex 7 0 0
      vertex 3.5 0 0
      vertex 6.9448 0.877332 0
    endloop
  endfacet
  facet normal 0 0 -1
    outer loop
      vertex 3.39004 -0.870414 0
      vertex 6.78008 -1.74083 0
      vertex 6.50844 -2.57687 0
    endloop
  endfacet
  facet normal 0 0 -1
    outer loop
      vertex 3.4724 0.438665 0
      vertex 6.9448 0.877332 0
      vertex 3.5 0 0
    endloop
  endfacet
  facet normal 0 0 -1
    outer loop
      vertex 3.25422 -1.28843 0
      vertex 6.50844 -2.57687 0
      vertex 6.13415 -3.37228 0
    endloop
  endfacet
  facet normal -0 0 -1
    outer loop
      vertex 6.9448 0.877332 0
      vertex 3.4724 0.438665 0
      vertex 6.78008 1.74083 0
    endloop
  endfacet
  facet normal 0 0 -1
    outer loop
      vertex 3.06707 -1.68614 0
      vertex 6.13415 -3.37228 0
      vertex 5.66312 -4.1145 0
    endloop
  endfacet
  facet normal 0 0 -1
    outer loop
      vertex 3.39004 0.870414 0
      vertex 6.78008 1.74083 0
      vertex 3.4724 0.438665 0
    endloop
  endfacet
  facet normal 0 0 -1
    outer loop
      vertex 2.83156 -2.05725 0
      vertex 5.66312 -4.1145 0
      vertex 5.10278 -4.79183 0
    endloop
  endfacet
  facet normal -0 0 -1
    outer loop
      vertex 6.78008 1.74083 0
      vertex 3.39004 0.870414 0
      vertex 6.50844 2.57687 0
    endloop
  endfacet
  facet normal 0 0 -1
    outer loop
      vertex 2.55139 -2.39591 0
      vertex 5.10278 -4.79183 0
      vertex 4.46197 -5.39359 0
    endloop
  endfacet
  facet normal 0 0 -1
    outer loop
      vertex 3.25422 1.28843 0
      vertex 6.50844 2.57687 0
      vertex 3.39004 0.870414 0
    endloop
  endfacet
  facet normal 0 0 -1
    outer loop
      vertex 2.23098 -2.6968 0
      vertex 4.46197 -5.39359 0
      vertex 3.75079 -5.91029 0
    endloop
  endfacet
  facet normal -0 0 -1
    outer loop
      vertex 6.50844 2.57687 0
      vertex 3.25422 1.28843 0
      vertex 6.13415 3.37228 0
    endloop
  endfacet
  facet normal 0 0 -1
    outer loop
      vertex 3.06707 1.68614 0
      vertex 6.13415 3.37228 0
      vertex 3.25422 1.28843 0
    endloop
  endfacet
  facet normal 0 0 -1
    outer loop
      vertex 6.9448 -0.877332 0
      vertex 3.4724 -0.438665 0
      vertex 3.5 0 0
    endloop
  endfacet
  facet normal 0 0 -1
    outer loop
      vertex 6.78008 -1.74083 0
      vertex 3.39004 -0.870414 0
      vertex 3.4724 -0.438665 0
    endloop
  endfacet
  facet normal 0 0 -1
    outer loop
      vertex 6.50844 -2.57687 0
      vertex 3.25422 -1.28843 0
      vertex 3.39004 -0.870414 0
    endloop
  endfacet
  facet normal 0 0 -1
    outer loop
      vertex 6.13415 -3.37228 0
      vertex 3.06707 -1.68614 0
      vertex 3.25422 -1.28843 0
    endloop
  endfacet
  facet normal 0 0 -1
    outer loop
      vertex 1.87539 -2.95515 0
      vertex 3.75079 -5.91029 0
      vertex 2.98045 -6.33379 0
    endloop
  endfacet
  facet normal 0 0 -1
    outer loop
      vertex 5.66312 -4.1145 0
      vertex 2.83156 -2.05725 0
      vertex 3.06707 -1.68614 0
    endloop
  endfacet
  facet normal 0 0 -1
    outer loop
      vertex 5.10278 -4.79183 0
      vertex 2.55139 -2.39591 0
      vertex 2.83156 -2.05725 0
    endloop
  endfacet
  facet normal 0 0 -1
    outer loop
      vertex 4.46197 -5.39359 0
      vertex 2.23098 -2.6968 0
      vertex 2.55139 -2.39591 0
    endloop
  endfacet
  facet normal 0 0 -1
    outer loop
      vertex 1.49023 -3.16689 0
      vertex 2.98045 -6.33379 0
      vertex 2.16312 -6.6574 0
    endloop
  endfacet
  facet normal 0 0 -1
    outer loop
      vertex 3.75079 -5.91029 0
      vertex 1.87539 -2.95515 0
      vertex 2.23098 -2.6968 0
    endloop
  endfacet
  facet normal 0 0 -1
    outer loop
      vertex 2.98045 -6.33379 0
      vertex 1.49023 -3.16689 0
      vertex 1.87539 -2.95515 0
    endloop
  endfacet
  facet normal 0 0 -1
    outer loop
      vertex 1.08156 -3.3287 0
      vertex 2.16312 -6.6574 0
      vertex 1.31167 -6.87601 0
    endloop
  endfacet
  facet normal 0 0 -1
    outer loop
      vertex 2.16312 -6.6574 0
      vertex 1.08156 -3.3287 0
      vertex 1.49023 -3.16689 0
    endloop
  endfacet
  facet normal 0 0 -1
    outer loop
      vertex 1.31167 -6.87601 0
      vertex 0.655834 -3.438 0
      vertex 1.08156 -3.3287 0
    endloop
  endfacet
  facet normal 0 0 -1
    outer loop
      vertex 0.439533 -6.98619 0
      vertex 0.655834 -3.438 0
      vertex 1.31167 -6.87601 0
    endloop
  endfacet
  facet normal 0 0 -1
    outer loop
      vertex 0.439533 -6.98619 0
      vertex 0.219767 -3.49309 0
      vertex 0.655834 -3.438 0
    endloop
  endfacet
  facet normal 0 0 -1
    outer loop
      vertex 0.439533 -6.98619 0
      vertex -0.219767 -3.49309 0
      vertex 0.219767 -3.49309 0
    endloop
  endfacet
  facet normal 0 0 -1
    outer loop
      vertex -0.439533 -6.98619 0
      vertex -0.219767 -3.49309 0
      vertex 0.439533 -6.98619 0
    endloop
  endfacet
  facet normal 0 0 -1
    outer loop
      vertex -0.439533 -6.98619 0
      vertex -0.655834 -3.438 0
      vertex -0.219767 -3.49309 0
    endloop
  endfacet
  facet normal 0 0 -1
    outer loop
      vertex -1.31167 -6.87601 0
      vertex -0.655834 -3.438 0
      vertex -0.439533 -6.98619 0
    endloop
  endfacet
  facet normal -0 0 -1
    outer loop
      vertex -0.655834 -3.438 0
      vertex -1.31167 -6.87601 0
      vertex -1.08156 -3.3287 0
    endloop
  endfacet
  facet normal 0 0 -1
    outer loop
      vertex -2.16312 -6.6574 0
      vertex -1.08156 -3.3287 0
      vertex -1.31167 -6.87601 0
    endloop
  endfacet
  facet normal -0 0 -1
    outer loop
      vertex -1.08156 -3.3287 0
      vertex -2.16312 -6.6574 0
      vertex -1.49023 -3.16689 0
    endloop
  endfacet
  facet normal 0 0 -1
    outer loop
      vertex -2.98045 -6.33379 0
      vertex -1.49023 -3.16689 0
      vertex -2.16312 -6.6574 0
    endloop
  endfacet
  facet normal -0 0 -1
    outer loop
      vertex -1.49023 -3.16689 0
      vertex -2.98045 -6.33379 0
      vertex -1.87539 -2.95515 0
    endloop
  endfacet
  facet normal 0 0 -1
    outer loop
      vertex -3.75079 -5.91029 0
      vertex -1.87539 -2.95515 0
      vertex -2.98045 -6.33379 0
    endloop
  endfacet
  facet normal -0 0 -1
    outer loop
      vertex -1.87539 -2.95515 0
      vertex -3.75079 -5.91029 0
      vertex -2.23098 -2.6968 0
    endloop
  endfacet
  facet normal 0 0 -1
    outer loop
      vertex -4.46197 -5.39359 0
      vertex -2.23098 -2.6968 0
      vertex -3.75079 -5.91029 0
    endloop
  endfacet
  facet normal -0 0 -1
    outer loop
      vertex -2.23098 -2.6968 0
      vertex -4.46197 -5.39359 0
      vertex -2.55139 -2.39591 0
    endloop
  endfacet
  facet normal 0 0 -1
    outer loop
      vertex -5.10278 -4.79183 0
      vertex -2.55139 -2.39591 0
      vertex -4.46197 -5.39359 0
    endloop
  endfacet
  facet normal -0 0 -1
    outer loop
      vertex -2.55139 -2.39591 0
      vertex -5.10278 -4.79183 0
      vertex -2.83156 -2.05725 0
    endloop
  endfacet
  facet normal 0 0 -1
    outer loop
      vertex -5.66312 -4.1145 0
      vertex -2.83156 -2.05725 0
      vertex -5.10278 -4.79183 0
    endloop
  endfacet
  facet normal 0 0 -1
    outer loop
      vertex -6.13415 -3.37228 0
      vertex -3.06707 -1.68614 0
      vertex -5.66312 -4.1145 0
    endloop
  endfacet
  facet normal -0 0 -1
    outer loop
      vertex -2.83156 -2.05725 0
      vertex -5.66312 -4.1145 0
      vertex -3.06707 -1.68614 0
    endloop
  endfacet
  facet normal -0 0 -1
    outer loop
      vertex 6.13415 3.37228 0
      vertex 3.06707 1.68614 0
      vertex 5.66312 4.1145 0
    endloop
  endfacet
  facet normal 0 0 -1
    outer loop
      vertex 2.83156 2.05725 0
      vertex 5.66312 4.1145 0
      vertex 3.06707 1.68614 0
    endloop
  endfacet
  facet normal -0 0 -1
    outer loop
      vertex 5.66312 4.1145 0
      vertex 2.83156 2.05725 0
      vertex 5.10278 4.79183 0
    endloop
  endfacet
  facet normal 0 0 -1
    outer loop
      vertex 2.55139 2.39591 0
      vertex 5.10278 4.79183 0
      vertex 2.83156 2.05725 0
    endloop
  endfacet
  facet normal -0 0 -1
    outer loop
      vertex 5.10278 4.79183 0
      vertex 2.55139 2.39591 0
      vertex 4.46197 5.39359 0
    endloop
  endfacet
  facet normal 0 0 -1
    outer loop
      vertex 2.23098 2.6968 0
      vertex 4.46197 5.39359 0
      vertex 2.55139 2.39591 0
    endloop
  endfacet
  facet normal -0 0 -1
    outer loop
      vertex 4.46197 5.39359 0
      vertex 2.23098 2.6968 0
      vertex 3.75079 5.91029 0
    endloop
  endfacet
  facet normal 0 0 -1
    outer loop
      vertex 1.87539 2.95515 0
      vertex 3.75079 5.91029 0
      vertex 2.23098 2.6968 0
    endloop
  endfacet
  facet normal -0 0 -1
    outer loop
      vertex 3.75079 5.91029 0
      vertex 1.87539 2.95515 0
      vertex 2.98045 6.33379 0
    endloop
  endfacet
  facet normal 0 0 -1
    outer loop
      vertex 1.49023 3.16689 0
      vertex 2.98045 6.33379 0
      vertex 1.87539 2.95515 0
    endloop
  endfacet
  facet normal -0 0 -1
    outer loop
      vertex 2.98045 6.33379 0
      vertex 1.49023 3.16689 0
      vertex 2.16312 6.6574 0
    endloop
  endfacet
  facet normal 0 0 -1
    outer loop
      vertex 1.08156 3.3287 0
      vertex 2.16312 6.6574 0
      vertex 1.49023 3.16689 0
    endloop
  endfacet
  facet normal -0 0 -1
    outer loop
      vertex 2.16312 6.6574 0
      vertex 1.08156 3.3287 0
      vertex 1.31167 6.87601 0
    endloop
  endfacet
  facet normal 0 0 -1
    outer loop
      vertex 0.655834 3.438 0
      vertex 1.31167 6.87601 0
      vertex 1.08156 3.3287 0
    endloop
  endfacet
  facet normal 0 0 -1
    outer loop
      vertex 0.655834 3.438 0
      vertex 0.439533 6.98619 0
      vertex 1.31167 6.87601 0
    endloop
  endfacet
  facet normal 0 0 -1
    outer loop
      vertex 0.219767 3.49309 0
      vertex 0.439533 6.98619 0
      vertex 0.655834 3.438 0
    endloop
  endfacet
  facet normal 0 0 -1
    outer loop
      vertex -0.219767 3.49309 0
      vertex 0.439533 6.98619 0
      vertex 0.219767 3.49309 0
    endloop
  endfacet
  facet normal 0 0 -1
    outer loop
      vertex -0.219767 3.49309 0
      vertex -0.439533 6.98619 0
      vertex 0.439533 6.98619 0
    endloop
  endfacet
  facet normal 0 0 -1
    outer loop
      vertex -0.655834 3.438 0
      vertex -0.439533 6.98619 0
      vertex -0.219767 3.49309 0
    endloop
  endfacet
  facet normal 0 0 -1
    outer loop
      vertex -1.31167 6.87601 0
      vertex -0.655834 3.438 0
      vertex -1.08156 3.3287 0
    endloop
  endfacet
  facet normal 0 0 -1
    outer loop
      vertex -0.655834 3.438 0
      vertex -1.31167 6.87601 0
      vertex -0.439533 6.98619 0
    endloop
  endfacet
  facet normal 0 0 -1
    outer loop
      vertex -2.16312 6.6574 0
      vertex -1.08156 3.3287 0
      vertex -1.49023 3.16689 0
    endloop
  endfacet
  facet normal 0 0 -1
    outer loop
      vertex -2.98045 6.33379 0
      vertex -1.49023 3.16689 0
      vertex -1.87539 2.95515 0
    endloop
  endfacet
  facet normal 0 0 -1
    outer loop
      vertex -1.08156 3.3287 0
      vertex -2.16312 6.6574 0
      vertex -1.31167 6.87601 0
    endloop
  endfacet
  facet normal 0 0 -1
    outer loop
      vertex -3.75079 5.91029 0
      vertex -1.87539 2.95515 0
      vertex -2.23098 2.6968 0
    endloop
  endfacet
  facet normal 0 0 -1
    outer loop
      vertex -4.46197 5.39359 0
      vertex -2.23098 2.6968 0
      vertex -2.55139 2.39591 0
    endloop
  endfacet
  facet normal 0 0 -1
    outer loop
      vertex -5.10278 4.79183 0
      vertex -2.55139 2.39591 0
      vertex -2.83156 2.05725 0
    endloop
  endfacet
  facet normal 0 0 -1
    outer loop
      vertex -1.49023 3.16689 0
      vertex -2.98045 6.33379 0
      vertex -2.16312 6.6574 0
    endloop
  endfacet
  facet normal 0 0 -1
    outer loop
      vertex -5.66312 4.1145 0
      vertex -2.83156 2.05725 0
      vertex -3.06707 1.68614 0
    endloop
  endfacet
  facet normal 0 0 -1
    outer loop
      vertex -6.13415 3.37228 0
      vertex -3.06707 1.68614 0
      vertex -3.25422 1.28843 0
    endloop
  endfacet
  facet normal 0 0 -1
    outer loop
      vertex -6.50844 2.57687 0
      vertex -3.25422 1.28843 0
      vertex -3.39004 0.870414 0
    endloop
  endfacet
  facet normal 0 0 -1
    outer loop
      vertex -6.78008 1.74083 0
      vertex -3.39004 0.870414 0
      vertex -3.4724 0.438665 0
    endloop
  endfacet
  facet normal 0 0 -1
    outer loop
      vertex -1.87539 2.95515 0
      vertex -3.75079 5.91029 0
      vertex -2.98045 6.33379 0
    endloop
  endfacet
  facet normal 0 0 -1
    outer loop
      vertex -6.9448 0.877332 0
      vertex -3.4724 0.438665 0
      vertex -3.5 0 0
    endloop
  endfacet
  facet normal -0 0 -1
    outer loop
      vertex -3.06707 -1.68614 0
      vertex -6.13415 -3.37228 0
      vertex -3.25422 -1.28843 0
    endloop
  endfacet
  facet normal 0 0 -1
    outer loop
      vertex -6.50844 -2.57687 0
      vertex -3.25422 -1.28843 0
      vertex -6.13415 -3.37228 0
    endloop
  endfacet
  facet normal 0 0 -1
    outer loop
      vertex -2.23098 2.6968 0
      vertex -4.46197 5.39359 0
      vertex -3.75079 5.91029 0
    endloop
  endfacet
  facet normal -0 0 -1
    outer loop
      vertex -3.25422 -1.28843 0
      vertex -6.50844 -2.57687 0
      vertex -3.39004 -0.870414 0
    endloop
  endfacet
  facet normal 0 0 -1
    outer loop
      vertex -2.55139 2.39591 0
      vertex -5.10278 4.79183 0
      vertex -4.46197 5.39359 0
    endloop
  endfacet
  facet normal 0 0 -1
    outer loop
      vertex -6.78008 -1.74083 0
      vertex -3.39004 -0.870414 0
      vertex -6.50844 -2.57687 0
    endloop
  endfacet
  facet normal 0 0 -1
    outer loop
      vertex -2.83156 2.05725 0
      vertex -5.66312 4.1145 0
      vertex -5.10278 4.79183 0
    endloop
  endfacet
  facet normal -0 0 -1
    outer loop
      vertex -3.39004 -0.870414 0
      vertex -6.78008 -1.74083 0
      vertex -3.4724 -0.438665 0
    endloop
  endfacet
  facet normal 0 0 -1
    outer loop
      vertex -3.06707 1.68614 0
      vertex -6.13415 3.37228 0
      vertex -5.66312 4.1145 0
    endloop
  endfacet
  facet normal 0 0 -1
    outer loop
      vertex -6.9448 -0.877332 0
      vertex -3.4724 -0.438665 0
      vertex -6.78008 -1.74083 0
    endloop
  endfacet
  facet normal 0 0 -1
    outer loop
      vertex -3.25422 1.28843 0
      vertex -6.50844 2.57687 0
      vertex -6.13415 3.37228 0
    endloop
  endfacet
  facet normal -0 0 -1
    outer loop
      vertex -3.4724 -0.438665 0
      vertex -6.9448 -0.877332 0
      vertex -3.5 0 0
    endloop
  endfacet
  facet normal 0 0 -1
    outer loop
      vertex -3.39004 0.870414 0
      vertex -6.78008 1.74083 0
      vertex -6.50844 2.57687 0
    endloop
  endfacet
  facet normal 0 0 -1
    outer loop
      vertex -7 0 0
      vertex -3.5 0 0
      vertex -6.9448 -0.877332 0
    endloop
  endfacet
  facet normal 0 0 -1
    outer loop
      vertex -3.4724 0.438665 0
      vertex -6.9448 0.877332 0
      vertex -6.78008 1.74083 0
    endloop
  endfacet
  facet normal 0 0 -1
    outer loop
      vertex -3.5 0 0
      vertex -7 0 0
      vertex -6.9448 0.877332 0
    endloop
  endfacet
  facet normal -0.368137 0.929772 0
    outer loop
      vertex 1.49023 -3.16689 0
      vertex 1.08156 -3.3287 6
      vertex 1.49023 -3.16689 6
    endloop
  endfacet
  facet normal -0.368137 0.929772 0
    outer loop
      vertex 1.08156 -3.3287 6
      vertex 1.49023 -3.16689 0
      vertex 1.08156 -3.3287 0
    endloop
  endfacet
  facet normal -0.684553 0.728963 0
    outer loop
      vertex 2.55139 -2.39591 0
      vertex 2.23098 -2.6968 6
      vertex 2.55139 -2.39591 6
    endloop
  endfacet
  facet normal -0.684553 0.728963 0
    outer loop
      vertex 2.23098 -2.6968 6
      vertex 2.55139 -2.39591 0
      vertex 2.23098 -2.6968 0
    endloop
  endfacet
  facet normal -0.844332 0.535821 0
    outer loop
      vertex 2.83156 -2.05725 0
      vertex 3.06707 -1.68614 6
      vertex 3.06707 -1.68614 0
    endloop
  endfacet
  facet normal -0.844332 0.535821 0
    outer loop
      vertex 3.06707 -1.68614 6
      vertex 2.83156 -2.05725 0
      vertex 2.83156 -2.05725 6
    endloop
  endfacet
  facet normal -0.998027 0.062794 0
    outer loop
      vertex 3.4724 -0.438665 0
      vertex 3.5 0 6
      vertex 3.5 0 0
    endloop
  endfacet
  facet normal -0.998027 0.062794 0
    outer loop
      vertex 3.5 0 6
      vertex 3.4724 -0.438665 0
      vertex 3.4724 -0.438665 6
    endloop
  endfacet
  facet normal 0.368137 0.929772 -0
    outer loop
      vertex -1.08156 -3.3287 0
      vertex -1.49023 -3.16689 6
      vertex -1.08156 -3.3287 6
    endloop
  endfacet
  facet normal 0.368137 0.929772 0
    outer loop
      vertex -1.49023 -3.16689 6
      vertex -1.08156 -3.3287 0
      vertex -1.49023 -3.16689 0
    endloop
  endfacet
  facet normal 0.951058 0.309014 0
    outer loop
      vertex -3.25422 -1.28843 6
      vertex -3.39004 -0.870414 0
      vertex -3.39004 -0.870414 6
    endloop
  endfacet
  facet normal 0.951058 0.309014 0
    outer loop
      vertex -3.39004 -0.870414 0
      vertex -3.25422 -1.28843 6
      vertex -3.25422 -1.28843 0
    endloop
  endfacet
  facet normal 0.998027 0.062794 0
    outer loop
      vertex -3.4724 -0.438665 6
      vertex -3.5 0 0
      vertex -3.5 0 6
    endloop
  endfacet
  facet normal 0.998027 0.062794 0
    outer loop
      vertex -3.5 0 0
      vertex -3.4724 -0.438665 6
      vertex -3.4724 -0.438665 0
    endloop
  endfacet
  facet normal -0.248673 0.968587 0
    outer loop
      vertex 1.08156 -3.3287 0
      vertex 0.655834 -3.438 6
      vertex 1.08156 -3.3287 6
    endloop
  endfacet
  facet normal -0.248673 0.968587 0
    outer loop
      vertex 0.655834 -3.438 6
      vertex 1.08156 -3.3287 0
      vertex 0.655834 -3.438 0
    endloop
  endfacet
  facet normal -0.481748 0.87631 0
    outer loop
      vertex 1.87539 -2.95515 0
      vertex 1.49023 -3.16689 6
      vertex 1.87539 -2.95515 6
    endloop
  endfacet
  facet normal -0.481748 0.87631 0
    outer loop
      vertex 1.49023 -3.16689 6
      vertex 1.87539 -2.95515 0
      vertex 1.49023 -3.16689 0
    endloop
  endfacet
  facet normal -0.587783 0.809018 0
    outer loop
      vertex 2.23098 -2.6968 0
      vertex 1.87539 -2.95515 6
      vertex 2.23098 -2.6968 6
    endloop
  endfacet
  facet normal -0.587783 0.809018 0
    outer loop
      vertex 1.87539 -2.95515 6
      vertex 2.23098 -2.6968 0
      vertex 1.87539 -2.95515 0
    endloop
  endfacet
  facet normal -0.904825 0.425783 0
    outer loop
      vertex 3.06707 -1.68614 0
      vertex 3.25422 -1.28843 6
      vertex 3.25422 -1.28843 0
    endloop
  endfacet
  facet normal -0.904825 0.425783 0
    outer loop
      vertex 3.25422 -1.28843 6
      vertex 3.06707 -1.68614 0
      vertex 3.06707 -1.68614 6
    endloop
  endfacet
  facet normal 0.125338 0.992114 -0
    outer loop
      vertex -0.219767 -3.49309 0
      vertex -0.655834 -3.438 6
      vertex -0.219767 -3.49309 6
    endloop
  endfacet
  facet normal 0.125338 0.992114 0
    outer loop
      vertex -0.655834 -3.438 6
      vertex -0.219767 -3.49309 0
      vertex -0.655834 -3.438 0
    endloop
  endfacet
  facet normal 0.587783 0.809018 -0
    outer loop
      vertex -1.87539 -2.95515 0
      vertex -2.23098 -2.6968 6
      vertex -1.87539 -2.95515 6
    endloop
  endfacet
  facet normal 0.587783 0.809018 0
    outer loop
      vertex -2.23098 -2.6968 6
      vertex -1.87539 -2.95515 0
      vertex -2.23098 -2.6968 0
    endloop
  endfacet
  facet normal 0.248673 0.968587 -0
    outer loop
      vertex -0.655834 -3.438 0
      vertex -1.08156 -3.3287 6
      vertex -0.655834 -3.438 6
    endloop
  endfacet
  facet normal 0.248673 0.968587 0
    outer loop
      vertex -1.08156 -3.3287 6
      vertex -0.655834 -3.438 0
      vertex -1.08156 -3.3287 0
    endloop
  endfacet
  facet normal 0.684553 0.728963 -0
    outer loop
      vertex -2.23098 -2.6968 0
      vertex -2.55139 -2.39591 6
      vertex -2.23098 -2.6968 6
    endloop
  endfacet
  facet normal 0.684553 0.728963 0
    outer loop
      vertex -2.55139 -2.39591 6
      vertex -2.23098 -2.6968 0
      vertex -2.55139 -2.39591 0
    endloop
  endfacet
  facet normal 0.770506 0.637432 0
    outer loop
      vertex -2.55139 -2.39591 6
      vertex -2.83156 -2.05725 0
      vertex -2.83156 -2.05725 6
    endloop
  endfacet
  facet normal 0.770506 0.637432 0
    outer loop
      vertex -2.83156 -2.05725 0
      vertex -2.55139 -2.39591 6
      vertex -2.55139 -2.39591 0
    endloop
  endfacet
  facet normal 0.844332 0.535821 0
    outer loop
      vertex -2.83156 -2.05725 6
      vertex -3.06707 -1.68614 0
      vertex -3.06707 -1.68614 6
    endloop
  endfacet
  facet normal 0.844332 0.535821 0
    outer loop
      vertex -3.06707 -1.68614 0
      vertex -2.83156 -2.05725 6
      vertex -2.83156 -2.05725 0
    endloop
  endfacet
  facet normal 0.982287 0.18738 0
    outer loop
      vertex -3.39004 -0.870414 6
      vertex -3.4724 -0.438665 0
      vertex -3.4724 -0.438665 6
    endloop
  endfacet
  facet normal 0.982287 0.18738 0
    outer loop
      vertex -3.4724 -0.438665 0
      vertex -3.39004 -0.870414 6
      vertex -3.39004 -0.870414 0
    endloop
  endfacet
  facet normal 0.481748 0.87631 -0
    outer loop
      vertex -1.49023 -3.16689 0
      vertex -1.87539 -2.95515 6
      vertex -1.49023 -3.16689 6
    endloop
  endfacet
  facet normal 0.481748 0.87631 0
    outer loop
      vertex -1.87539 -2.95515 6
      vertex -1.49023 -3.16689 0
      vertex -1.87539 -2.95515 0
    endloop
  endfacet
  facet normal 0.998027 0.0627939 0
    outer loop
      vertex 7 0 6
      vertex 6.9448 0.877332 0
      vertex 6.9448 0.877332 6
    endloop
  endfacet
  facet normal 0.998027 0.0627939 0
    outer loop
      vertex 6.9448 0.877332 0
      vertex 7 0 6
      vertex 7 0 0
    endloop
  endfacet
  facet normal -0.998027 0.0627939 0
    outer loop
      vertex -7 0 0
      vertex -6.9448 0.877332 6
      vertex -6.9448 0.877332 0
    endloop
  endfacet
  facet normal -0.998027 0.0627939 0
    outer loop
      vertex -6.9448 0.877332 6
      vertex -7 0 0
      vertex -7 0 6
    endloop
  endfacet
  facet normal 0 1 -0
    outer loop
      vertex 0.439533 6.98619 0
      vertex -0.439533 6.98619 6
      vertex 0.439533 6.98619 6
    endloop
  endfacet
  facet normal 0 1 0
    outer loop
      vertex -0.439533 6.98619 6
      vertex 0.439533 6.98619 0
      vertex -0.439533 6.98619 0
    endloop
  endfacet
  facet normal 0 -1 0
    outer loop
      vertex -0.439533 -6.98619 0
      vertex 0.439533 -6.98619 6
      vertex -0.439533 -6.98619 6
    endloop
  endfacet
  facet normal 0 -1 -0
    outer loop
      vertex 0.439533 -6.98619 6
      vertex -0.439533 -6.98619 0
      vertex 0.439533 -6.98619 0
    endloop
  endfacet
  facet normal 0.684547 0.728969 -0
    outer loop
      vertex 5.10278 4.79183 0
      vertex 4.46197 5.39359 6
      vertex 5.10278 4.79183 6
    endloop
  endfacet
  facet normal 0.684547 0.728969 0
    outer loop
      vertex 4.46197 5.39359 6
      vertex 5.10278 4.79183 0
      vertex 4.46197 5.39359 0
    endloop
  endfacet
  facet normal -0.684547 0.728969 0
    outer loop
      vertex -4.46197 5.39359 0
      vertex -5.10278 4.79183 6
      vertex -4.46197 5.39359 6
    endloop
  endfacet
  facet normal -0.684547 0.728969 0
    outer loop
      vertex -5.10278 4.79183 6
      vertex -4.46197 5.39359 0
      vertex -5.10278 4.79183 0
    endloop
  endfacet
  facet normal -0.368131 0.929774 0
    outer loop
      vertex -2.16312 6.6574 0
      vertex -2.98045 6.33379 6
      vertex -2.16312 6.6574 6
    endloop
  endfacet
  facet normal -0.368131 0.929774 0
    outer loop
      vertex -2.98045 6.33379 6
      vertex -2.16312 6.6574 0
      vertex -2.98045 6.33379 0
    endloop
  endfacet
  facet normal 0.904828 0.425778 0
    outer loop
      vertex 6.50844 2.57687 6
      vertex 6.13415 3.37228 0
      vertex 6.13415 3.37228 6
    endloop
  endfacet
  facet normal 0.904828 0.425778 0
    outer loop
      vertex 6.13415 3.37228 0
      vertex 6.50844 2.57687 6
      vertex 6.50844 2.57687 0
    endloop
  endfacet
  facet normal 0.982287 0.18738 0
    outer loop
      vertex 6.9448 0.877332 6
      vertex 6.78008 1.74083 0
      vertex 6.78008 1.74083 6
    endloop
  endfacet
  facet normal 0.982287 0.18738 0
    outer loop
      vertex 6.78008 1.74083 0
      vertex 6.9448 0.877332 6
      vertex 6.9448 0.877332 0
    endloop
  endfacet
  facet normal 0.368131 0.929774 -0
    outer loop
      vertex 2.98045 6.33379 0
      vertex 2.16312 6.6574 6
      vertex 2.98045 6.33379 6
    endloop
  endfacet
  facet normal 0.368131 0.929774 0
    outer loop
      vertex 2.16312 6.6574 6
      vertex 2.98045 6.33379 0
      vertex 2.16312 6.6574 0
    endloop
  endfacet
  facet normal 0.481755 0.876306 -0
    outer loop
      vertex 3.75079 5.91029 0
      vertex 2.98045 6.33379 6
      vertex 3.75079 5.91029 6
    endloop
  endfacet
  facet normal 0.481755 0.876306 0
    outer loop
      vertex 2.98045 6.33379 6
      vertex 3.75079 5.91029 0
      vertex 2.98045 6.33379 0
    endloop
  endfacet
  facet normal -0.904828 0.425778 0
    outer loop
      vertex -6.50844 2.57687 0
      vertex -6.13415 3.37228 6
      vertex -6.13415 3.37228 0
    endloop
  endfacet
  facet normal -0.904828 0.425778 0
    outer loop
      vertex -6.13415 3.37228 6
      vertex -6.50844 2.57687 0
      vertex -6.50844 2.57687 6
    endloop
  endfacet
  facet normal -0.951058 0.309011 0
    outer loop
      vertex -6.78008 1.74083 0
      vertex -6.50844 2.57687 6
      vertex -6.50844 2.57687 0
    endloop
  endfacet
  facet normal -0.951058 0.309011 0
    outer loop
      vertex -6.50844 2.57687 6
      vertex -6.78008 1.74083 0
      vertex -6.78008 1.74083 6
    endloop
  endfacet
  facet normal -0.248684 0.968585 0
    outer loop
      vertex -1.31167 6.87601 0
      vertex -2.16312 6.6574 6
      vertex -1.31167 6.87601 6
    endloop
  endfacet
  facet normal -0.248684 0.968585 0
    outer loop
      vertex -2.16312 6.6574 6
      vertex -1.31167 6.87601 0
      vertex -2.16312 6.6574 0
    endloop
  endfacet
  facet normal 0.951058 0.309011 0
    outer loop
      vertex 6.78008 1.74083 6
      vertex 6.50844 2.57687 0
      vertex 6.50844 2.57687 6
    endloop
  endfacet
  facet normal 0.951058 0.309011 0
    outer loop
      vertex 6.50844 2.57687 0
      vertex 6.78008 1.74083 6
      vertex 6.78008 1.74083 0
    endloop
  endfacet
  facet normal 0.770511 0.637427 0
    outer loop
      vertex 5.66312 4.1145 6
      vertex 5.10278 4.79183 0
      vertex 5.10278 4.79183 6
    endloop
  endfacet
  facet normal 0.770511 0.637427 0
    outer loop
      vertex 5.10278 4.79183 0
      vertex 5.66312 4.1145 6
      vertex 5.66312 4.1145 0
    endloop
  endfacet
  facet normal 0.844326 0.535829 0
    outer loop
      vertex 6.13415 3.37228 6
      vertex 5.66312 4.1145 0
      vertex 5.66312 4.1145 6
    endloop
  endfacet
  facet normal 0.844326 0.535829 0
    outer loop
      vertex 5.66312 4.1145 0
      vertex 6.13415 3.37228 6
      vertex 6.13415 3.37228 0
    endloop
  endfacet
  facet normal 0.248684 0.968585 -0
    outer loop
      vertex 2.16312 6.6574 0
      vertex 1.31167 6.87601 6
      vertex 2.16312 6.6574 6
    endloop
  endfacet
  facet normal 0.248684 0.968585 0
    outer loop
      vertex 1.31167 6.87601 6
      vertex 2.16312 6.6574 0
      vertex 1.31167 6.87601 0
    endloop
  endfacet
  facet normal 0.125337 0.992114 -0
    outer loop
      vertex 1.31167 6.87601 0
      vertex 0.439533 6.98619 6
      vertex 1.31167 6.87601 6
    endloop
  endfacet
  facet normal 0.125337 0.992114 0
    outer loop
      vertex 0.439533 6.98619 6
      vertex 1.31167 6.87601 0
      vertex 0.439533 6.98619 0
    endloop
  endfacet
  facet normal 0.587783 0.809018 -0
    outer loop
      vertex 4.46197 5.39359 0
      vertex 3.75079 5.91029 6
      vertex 4.46197 5.39359 6
    endloop
  endfacet
  facet normal 0.587783 0.809018 0
    outer loop
      vertex 3.75079 5.91029 6
      vertex 4.46197 5.39359 0
      vertex 3.75079 5.91029 0
    endloop
  endfacet
  facet normal -0.844326 0.535829 0
    outer loop
      vertex -6.13415 3.37228 0
      vertex -5.66312 4.1145 6
      vertex -5.66312 4.1145 0
    endloop
  endfacet
  facet normal -0.844326 0.535829 0
    outer loop
      vertex -5.66312 4.1145 6
      vertex -6.13415 3.37228 0
      vertex -6.13415 3.37228 6
    endloop
  endfacet
  facet normal -0.770511 0.637427 0
    outer loop
      vertex -5.66312 4.1145 0
      vertex -5.10278 4.79183 6
      vertex -5.10278 4.79183 0
    endloop
  endfacet
  facet normal -0.770511 0.637427 0
    outer loop
      vertex -5.10278 4.79183 6
      vertex -5.66312 4.1145 0
      vertex -5.66312 4.1145 6
    endloop
  endfacet
  facet normal -0.982287 0.18738 0
    outer loop
      vertex -6.9448 0.877332 0
      vertex -6.78008 1.74083 6
      vertex -6.78008 1.74083 0
    endloop
  endfacet
  facet normal -0.982287 0.18738 0
    outer loop
      vertex -6.78008 1.74083 6
      vertex -6.9448 0.877332 0
      vertex -6.9448 0.877332 6
    endloop
  endfacet
  facet normal -0.481755 0.876306 0
    outer loop
      vertex -2.98045 6.33379 0
      vertex -3.75079 5.91029 6
      vertex -2.98045 6.33379 6
    endloop
  endfacet
  facet normal -0.481755 0.876306 0
    outer loop
      vertex -3.75079 5.91029 6
      vertex -2.98045 6.33379 0
      vertex -3.75079 5.91029 0
    endloop
  endfacet
  facet normal -0.587783 0.809018 0
    outer loop
      vertex -3.75079 5.91029 0
      vertex -4.46197 5.39359 6
      vertex -3.75079 5.91029 6
    endloop
  endfacet
  facet normal -0.587783 0.809018 0
    outer loop
      vertex -4.46197 5.39359 6
      vertex -3.75079 5.91029 0
      vertex -4.46197 5.39359 0
    endloop
  endfacet
  facet normal -0.125337 0.992114 0
    outer loop
      vertex -0.439533 6.98619 0
      vertex -1.31167 6.87601 6
      vertex -0.439533 6.98619 6
    endloop
  endfacet
  facet normal -0.125337 0.992114 0
    outer loop
      vertex -1.31167 6.87601 6
      vertex -0.439533 6.98619 0
      vertex -1.31167 6.87601 0
    endloop
  endfacet
  facet normal 0.998027 -0.0627939 0
    outer loop
      vertex 6.9448 -0.877332 6
      vertex 7 0 0
      vertex 7 0 6
    endloop
  endfacet
  facet normal 0.998027 -0.0627939 0
    outer loop
      vertex 7 0 0
      vertex 6.9448 -0.877332 6
      vertex 6.9448 -0.877332 0
    endloop
  endfacet
  facet normal 0.904828 -0.425778 0
    outer loop
      vertex 6.13415 -3.37228 6
      vertex 6.50844 -2.57687 0
      vertex 6.50844 -2.57687 6
    endloop
  endfacet
  facet normal 0.904828 -0.425778 0
    outer loop
      vertex 6.50844 -2.57687 0
      vertex 6.13415 -3.37228 6
      vertex 6.13415 -3.37228 0
    endloop
  endfacet
  facet normal -0.904828 -0.425778 0
    outer loop
      vertex -6.13415 -3.37228 0
      vertex -6.50844 -2.57687 6
      vertex -6.50844 -2.57687 0
    endloop
  endfacet
  facet normal -0.904828 -0.425778 0
    outer loop
      vertex -6.50844 -2.57687 6
      vertex -6.13415 -3.37228 0
      vertex -6.13415 -3.37228 6
    endloop
  endfacet
  facet normal -0.844326 -0.535829 0
    outer loop
      vertex -5.66312 -4.1145 0
      vertex -6.13415 -3.37228 6
      vertex -6.13415 -3.37228 0
    endloop
  endfacet
  facet normal -0.844326 -0.535829 0
    outer loop
      vertex -6.13415 -3.37228 6
      vertex -5.66312 -4.1145 0
      vertex -5.66312 -4.1145 6
    endloop
  endfacet
  facet normal 0.481755 -0.876306 0
    outer loop
      vertex 2.98045 -6.33379 0
      vertex 3.75079 -5.91029 6
      vertex 2.98045 -6.33379 6
    endloop
  endfacet
  facet normal 0.481755 -0.876306 0
    outer loop
      vertex 3.75079 -5.91029 6
      vertex 2.98045 -6.33379 0
      vertex 3.75079 -5.91029 0
    endloop
  endfacet
  facet normal 0.951058 -0.309011 0
    outer loop
      vertex 6.50844 -2.57687 6
      vertex 6.78008 -1.74083 0
      vertex 6.78008 -1.74083 6
    endloop
  endfacet
  facet normal 0.951058 -0.309011 0
    outer loop
      vertex 6.78008 -1.74083 0
      vertex 6.50844 -2.57687 6
      vertex 6.50844 -2.57687 0
    endloop
  endfacet
  facet normal 0.770511 -0.637427 0
    outer loop
      vertex 5.10278 -4.79183 6
      vertex 5.66312 -4.1145 0
      vertex 5.66312 -4.1145 6
    endloop
  endfacet
  facet normal 0.770511 -0.637427 0
    outer loop
      vertex 5.66312 -4.1145 0
      vertex 5.10278 -4.79183 6
      vertex 5.10278 -4.79183 0
    endloop
  endfacet
  facet normal -0.770511 -0.637427 0
    outer loop
      vertex -5.10278 -4.79183 0
      vertex -5.66312 -4.1145 6
      vertex -5.66312 -4.1145 0
    endloop
  endfacet
  facet normal -0.770511 -0.637427 0
    outer loop
      vertex -5.66312 -4.1145 6
      vertex -5.10278 -4.79183 0
      vertex -5.10278 -4.79183 6
    endloop
  endfacet
  facet normal -0.951058 -0.309011 0
    outer loop
      vertex -6.50844 -2.57687 0
      vertex -6.78008 -1.74083 6
      vertex -6.78008 -1.74083 0
    endloop
  endfacet
  facet normal -0.951058 -0.309011 0
    outer loop
      vertex -6.78008 -1.74083 6
      vertex -6.50844 -2.57687 0
      vertex -6.50844 -2.57687 6
    endloop
  endfacet
  facet normal 0.684547 -0.728969 0
    outer loop
      vertex 4.46197 -5.39359 0
      vertex 5.10278 -4.79183 6
      vertex 4.46197 -5.39359 6
    endloop
  endfacet
  facet normal 0.684547 -0.728969 0
    outer loop
      vertex 5.10278 -4.79183 6
      vertex 4.46197 -5.39359 0
      vertex 5.10278 -4.79183 0
    endloop
  endfacet
  facet normal 0.368131 -0.929774 0
    outer loop
      vertex 2.16312 -6.6574 0
      vertex 2.98045 -6.33379 6
      vertex 2.16312 -6.6574 6
    endloop
  endfacet
  facet normal 0.368131 -0.929774 0
    outer loop
      vertex 2.98045 -6.33379 6
      vertex 2.16312 -6.6574 0
      vertex 2.98045 -6.33379 0
    endloop
  endfacet
  facet normal 0.248684 -0.968585 0
    outer loop
      vertex 1.31167 -6.87601 0
      vertex 2.16312 -6.6574 6
      vertex 1.31167 -6.87601 6
    endloop
  endfacet
  facet normal 0.248684 -0.968585 0
    outer loop
      vertex 2.16312 -6.6574 6
      vertex 1.31167 -6.87601 0
      vertex 2.16312 -6.6574 0
    endloop
  endfacet
  facet normal 0.125337 -0.992114 0
    outer loop
      vertex 0.439533 -6.98619 0
      vertex 1.31167 -6.87601 6
      vertex 0.439533 -6.98619 6
    endloop
  endfacet
  facet normal 0.125337 -0.992114 0
    outer loop
      vertex 1.31167 -6.87601 6
      vertex 0.439533 -6.98619 0
      vertex 1.31167 -6.87601 0
    endloop
  endfacet
  facet normal 0.982287 -0.18738 0
    outer loop
      vertex 6.78008 -1.74083 6
      vertex 6.9448 -0.877332 0
      vertex 6.9448 -0.877332 6
    endloop
  endfacet
  facet normal 0.982287 -0.18738 0
    outer loop
      vertex 6.9448 -0.877332 0
      vertex 6.78008 -1.74083 6
      vertex 6.78008 -1.74083 0
    endloop
  endfacet
  facet normal 0.844326 -0.535829 0
    outer loop
      vertex 5.66312 -4.1145 6
      vertex 6.13415 -3.37228 0
      vertex 6.13415 -3.37228 6
    endloop
  endfacet
  facet normal 0.844326 -0.535829 0
    outer loop
      vertex 6.13415 -3.37228 0
      vertex 5.66312 -4.1145 6
      vertex 5.66312 -4.1145 0
    endloop
  endfacet
  facet normal -0.368131 -0.929774 0
    outer loop
      vertex -2.98045 -6.33379 0
      vertex -2.16312 -6.6574 6
      vertex -2.98045 -6.33379 6
    endloop
  endfacet
  facet normal -0.368131 -0.929774 -0
    outer loop
      vertex -2.16312 -6.6574 6
      vertex -2.98045 -6.33379 0
      vertex -2.16312 -6.6574 0
    endloop
  endfacet
  facet normal -0.248684 -0.968585 0
    outer loop
      vertex -2.16312 -6.6574 0
      vertex -1.31167 -6.87601 6
      vertex -2.16312 -6.6574 6
    endloop
  endfacet
  facet normal -0.248684 -0.968585 -0
    outer loop
      vertex -1.31167 -6.87601 6
      vertex -2.16312 -6.6574 0
      vertex -1.31167 -6.87601 0
    endloop
  endfacet
  facet normal -0.982287 -0.18738 0
    outer loop
      vertex -6.78008 -1.74083 0
      vertex -6.9448 -0.877332 6
      vertex -6.9448 -0.877332 0
    endloop
  endfacet
  facet normal -0.982287 -0.18738 0
    outer loop
      vertex -6.9448 -0.877332 6
      vertex -6.78008 -1.74083 0
      vertex -6.78008 -1.74083 6
    endloop
  endfacet
  facet normal -0.998027 -0.0627939 0
    outer loop
      vertex -6.9448 -0.877332 0
      vertex -7 0 6
      vertex -7 0 0
    endloop
  endfacet
  facet normal -0.998027 -0.0627939 0
    outer loop
      vertex -7 0 6
      vertex -6.9448 -0.877332 0
      vertex -6.9448 -0.877332 6
    endloop
  endfacet
  facet normal 0.587783 -0.809018 0
    outer loop
      vertex 3.75079 -5.91029 0
      vertex 4.46197 -5.39359 6
      vertex 3.75079 -5.91029 6
    endloop
  endfacet
  facet normal 0.587783 -0.809018 0
    outer loop
      vertex 4.46197 -5.39359 6
      vertex 3.75079 -5.91029 0
      vertex 4.46197 -5.39359 0
    endloop
  endfacet
  facet normal -0.481755 -0.876306 0
    outer loop
      vertex -3.75079 -5.91029 0
      vertex -2.98045 -6.33379 6
      vertex -3.75079 -5.91029 6
    endloop
  endfacet
  facet normal -0.481755 -0.876306 -0
    outer loop
      vertex -2.98045 -6.33379 6
      vertex -3.75079 -5.91029 0
      vertex -2.98045 -6.33379 0
    endloop
  endfacet
  facet normal -0.587783 -0.809018 0
    outer loop
      vertex -4.46197 -5.39359 0
      vertex -3.75079 -5.91029 6
      vertex -4.46197 -5.39359 6
    endloop
  endfacet
  facet normal -0.587783 -0.809018 -0
    outer loop
      vertex -3.75079 -5.91029 6
      vertex -4.46197 -5.39359 0
      vertex -3.75079 -5.91029 0
    endloop
  endfacet
  facet normal -0.684547 -0.728969 0
    outer loop
      vertex -5.10278 -4.79183 0
      vertex -4.46197 -5.39359 6
      vertex -5.10278 -4.79183 6
    endloop
  endfacet
  facet normal -0.684547 -0.728969 -0
    outer loop
      vertex -4.46197 -5.39359 6
      vertex -5.10278 -4.79183 0
      vertex -4.46197 -5.39359 0
    endloop
  endfacet
  facet normal -0.125337 -0.992114 0
    outer loop
      vertex -1.31167 -6.87601 0
      vertex -0.439533 -6.98619 6
      vertex -1.31167 -6.87601 6
    endloop
  endfacet
  facet normal -0.125337 -0.992114 -0
    outer loop
      vertex -0.439533 -6.98619 6
      vertex -1.31167 -6.87601 0
      vertex -0.439533 -6.98619 0
    endloop
  endfacet
endsolid OpenSCAD_Model
