  0
SECTION
  2
BLOCKS
  0
ENDSEC
  0
SECTION
  2
ENTITIES
  0
LINE
  8
0
 10
175.437
 20
-59.4114
 11
176.045
 21
-59.2553
  0
LINE
  8
0
 10
176.045
 20
-59.2553
 11
176.629
 21
-59.0241
  0
LINE
  8
0
 10
176.629
 20
-59.0241
 11
177.179
 21
-58.7216
  0
LINE
  8
0
 10
177.179
 20
-58.7216
 11
177.687
 21
-58.3526
  0
LINE
  8
0
 10
177.687
 20
-58.3526
 11
178.145
 21
-57.9227
  0
LINE
  8
0
 10
178.145
 20
-57.9227
 11
178.545
 21
-57.4389
  0
LINE
  8
0
 10
178.545
 20
-57.4389
 11
178.882
 21
-56.9088
  0
LINE
  8
0
 10
178.882
 20
-56.9088
 11
179.149
 21
-56.3406
  0
LINE
  8
0
 10
179.149
 20
-56.3406
 11
179.343
 21
-55.7434
  0
LINE
  8
0
 10
179.343
 20
-55.7434
 11
179.461
 21
-55.1267
  0
LINE
  8
0
 10
179.461
 20
-55.1267
 11
179.5
 21
-54.5
  0
LINE
  8
0
 10
179.5
 20
-54.5
 11
179.5
 21
54.5
  0
LINE
  8
0
 10
179.5
 20
54.5
 11
179.461
 21
55.1267
  0
LINE
  8
0
 10
179.461
 20
55.1267
 11
179.343
 21
55.7434
  0
LINE
  8
0
 10
179.343
 20
55.7434
 11
179.149
 21
56.3406
  0
LINE
  8
0
 10
179.149
 20
56.3406
 11
178.882
 21
56.9088
  0
LINE
  8
0
 10
178.882
 20
56.9088
 11
178.545
 21
57.4389
  0
LINE
  8
0
 10
178.545
 20
57.4389
 11
178.145
 21
57.9227
  0
LINE
  8
0
 10
178.145
 20
57.9227
 11
177.687
 21
58.3526
  0
LINE
  8
0
 10
177.687
 20
58.3526
 11
177.179
 21
58.7216
  0
LINE
  8
0
 10
177.179
 20
58.7216
 11
176.629
 21
59.0241
  0
LINE
  8
0
 10
176.629
 20
59.0241
 11
176.045
 21
59.2553
  0
LINE
  8
0
 10
176.045
 20
59.2553
 11
175.437
 21
59.4114
  0
LINE
  8
0
 10
175.437
 20
59.4114
 11
174.814
 21
59.4901
  0
LINE
  8
0
 10
174.814
 20
59.4901
 11
-174.814
 21
59.4901
  0
LINE
  8
0
 10
-174.814
 20
59.4901
 11
-175.437
 21
59.4114
  0
LINE
  8
0
 10
-175.437
 20
59.4114
 11
-176.045
 21
59.2553
  0
LINE
  8
0
 10
-176.045
 20
59.2553
 11
-176.629
 21
59.0241
  0
LINE
  8
0
 10
-176.629
 20
59.0241
 11
-177.179
 21
58.7216
  0
LINE
  8
0
 10
-177.179
 20
58.7216
 11
-177.687
 21
58.3526
  0
LINE
  8
0
 10
-177.687
 20
58.3526
 11
-178.145
 21
57.9227
  0
LINE
  8
0
 10
-178.145
 20
57.9227
 11
-178.545
 21
57.4389
  0
LINE
  8
0
 10
-178.545
 20
57.4389
 11
-178.882
 21
56.9088
  0
LINE
  8
0
 10
-178.882
 20
56.9088
 11
-179.149
 21
56.3406
  0
LINE
  8
0
 10
-179.149
 20
56.3406
 11
-179.343
 21
55.7434
  0
LINE
  8
0
 10
-179.343
 20
55.7434
 11
-179.461
 21
55.1267
  0
LINE
  8
0
 10
-179.461
 20
55.1267
 11
-179.5
 21
54.5
  0
LINE
  8
0
 10
-179.5
 20
54.5
 11
-179.5
 21
-54.5
  0
LINE
  8
0
 10
-179.5
 20
-54.5
 11
-179.461
 21
-55.1267
  0
LINE
  8
0
 10
-179.461
 20
-55.1267
 11
-179.343
 21
-55.7434
  0
LINE
  8
0
 10
-179.343
 20
-55.7434
 11
-179.149
 21
-56.3406
  0
LINE
  8
0
 10
-179.149
 20
-56.3406
 11
-178.882
 21
-56.9088
  0
LINE
  8
0
 10
-178.882
 20
-56.9088
 11
-178.545
 21
-57.4389
  0
LINE
  8
0
 10
-178.545
 20
-57.4389
 11
-178.145
 21
-57.9227
  0
LINE
  8
0
 10
-178.145
 20
-57.9227
 11
-177.687
 21
-58.3526
  0
LINE
  8
0
 10
-177.687
 20
-58.3526
 11
-177.179
 21
-58.7216
  0
LINE
  8
0
 10
-177.179
 20
-58.7216
 11
-176.629
 21
-59.0241
  0
LINE
  8
0
 10
-176.629
 20
-59.0241
 11
-176.045
 21
-59.2553
  0
LINE
  8
0
 10
-176.045
 20
-59.2553
 11
-175.437
 21
-59.4114
  0
LINE
  8
0
 10
-175.437
 20
-59.4114
 11
-174.814
 21
-59.4901
  0
LINE
  8
0
 10
-174.814
 20
-59.4901
 11
174.814
 21
-59.4901
  0
LINE
  8
0
 10
174.814
 20
-59.4901
 11
175.437
 21
-59.4114
  0
LINE
  8
0
 10
-172.688
 20
49.5059
 11
-173.062
 21
49.5531
  0
LINE
  8
0
 10
-173.062
 20
49.5531
 11
-173.427
 21
49.6468
  0
LINE
  8
0
 10
-173.427
 20
49.6468
 11
-173.777
 21
49.7855
  0
LINE
  8
0
 10
-173.777
 20
49.7855
 11
-174.107
 21
49.967
  0
LINE
  8
0
 10
-174.107
 20
49.967
 11
-174.412
 21
50.1885
  0
LINE
  8
0
 10
-174.412
 20
50.1885
 11
-174.687
 21
50.4464
  0
LINE
  8
0
 10
-174.687
 20
50.4464
 11
-174.927
 21
50.7366
  0
LINE
  8
0
 10
-174.927
 20
50.7366
 11
-175.129
 21
51.0547
  0
LINE
  8
0
 10
-175.129
 20
51.0547
 11
-175.289
 21
51.3956
  0
LINE
  8
0
 10
-175.289
 20
51.3956
 11
-175.406
 21
51.7539
  0
LINE
  8
0
 10
-175.406
 20
51.7539
 11
-175.476
 21
52.124
  0
LINE
  8
0
 10
-175.476
 20
52.124
 11
-175.5
 21
52.5
  0
LINE
  8
0
 10
-175.5
 20
52.5
 11
-175.476
 21
52.876
  0
LINE
  8
0
 10
-175.476
 20
52.876
 11
-175.406
 21
53.2461
  0
LINE
  8
0
 10
-175.406
 20
53.2461
 11
-175.289
 21
53.6044
  0
LINE
  8
0
 10
-175.289
 20
53.6044
 11
-175.129
 21
53.9453
  0
LINE
  8
0
 10
-175.129
 20
53.9453
 11
-174.927
 21
54.2634
  0
LINE
  8
0
 10
-174.927
 20
54.2634
 11
-174.687
 21
54.5536
  0
LINE
  8
0
 10
-174.687
 20
54.5536
 11
-174.412
 21
54.8115
  0
LINE
  8
0
 10
-174.412
 20
54.8115
 11
-174.107
 21
55.033
  0
LINE
  8
0
 10
-174.107
 20
55.033
 11
-173.777
 21
55.2145
  0
LINE
  8
0
 10
-173.777
 20
55.2145
 11
-173.427
 21
55.3532
  0
LINE
  8
0
 10
-173.427
 20
55.3532
 11
-173.062
 21
55.4469
  0
LINE
  8
0
 10
-173.062
 20
55.4469
 11
-172.688
 21
55.4941
  0
LINE
  8
0
 10
-172.688
 20
55.4941
 11
-172.312
 21
55.4941
  0
LINE
  8
0
 10
-172.312
 20
55.4941
 11
-171.938
 21
55.4469
  0
LINE
  8
0
 10
-171.938
 20
55.4469
 11
-171.573
 21
55.3532
  0
LINE
  8
0
 10
-171.573
 20
55.3532
 11
-171.223
 21
55.2145
  0
LINE
  8
0
 10
-171.223
 20
55.2145
 11
-170.893
 21
55.033
  0
LINE
  8
0
 10
-170.893
 20
55.033
 11
-170.588
 21
54.8115
  0
LINE
  8
0
 10
-170.588
 20
54.8115
 11
-170.313
 21
54.5536
  0
LINE
  8
0
 10
-170.313
 20
54.5536
 11
-170.073
 21
54.2634
  0
LINE
  8
0
 10
-170.073
 20
54.2634
 11
-169.871
 21
53.9453
  0
LINE
  8
0
 10
-169.871
 20
53.9453
 11
-169.711
 21
53.6044
  0
LINE
  8
0
 10
-169.711
 20
53.6044
 11
-169.594
 21
53.2461
  0
LINE
  8
0
 10
-169.594
 20
53.2461
 11
-169.524
 21
52.876
  0
LINE
  8
0
 10
-169.524
 20
52.876
 11
-169.5
 21
52.5
  0
LINE
  8
0
 10
-169.5
 20
52.5
 11
-169.524
 21
52.124
  0
LINE
  8
0
 10
-169.524
 20
52.124
 11
-169.594
 21
51.7539
  0
LINE
  8
0
 10
-169.594
 20
51.7539
 11
-169.711
 21
51.3956
  0
LINE
  8
0
 10
-169.711
 20
51.3956
 11
-169.871
 21
51.0547
  0
LINE
  8
0
 10
-169.871
 20
51.0547
 11
-170.073
 21
50.7366
  0
LINE
  8
0
 10
-170.073
 20
50.7366
 11
-170.313
 21
50.4464
  0
LINE
  8
0
 10
-170.313
 20
50.4464
 11
-170.588
 21
50.1885
  0
LINE
  8
0
 10
-170.588
 20
50.1885
 11
-170.893
 21
49.967
  0
LINE
  8
0
 10
-170.893
 20
49.967
 11
-171.223
 21
49.7855
  0
LINE
  8
0
 10
-171.223
 20
49.7855
 11
-171.573
 21
49.6468
  0
LINE
  8
0
 10
-171.573
 20
49.6468
 11
-171.938
 21
49.5531
  0
LINE
  8
0
 10
-171.938
 20
49.5531
 11
-172.312
 21
49.5059
  0
LINE
  8
0
 10
-172.312
 20
49.5059
 11
-172.688
 21
49.5059
  0
LINE
  8
0
 10
172.312
 20
49.5059
 11
171.938
 21
49.5531
  0
LINE
  8
0
 10
171.938
 20
49.5531
 11
171.573
 21
49.6468
  0
LINE
  8
0
 10
171.573
 20
49.6468
 11
171.223
 21
49.7855
  0
LINE
  8
0
 10
171.223
 20
49.7855
 11
170.893
 21
49.967
  0
LINE
  8
0
 10
170.893
 20
49.967
 11
170.588
 21
50.1885
  0
LINE
  8
0
 10
170.588
 20
50.1885
 11
170.313
 21
50.4464
  0
LINE
  8
0
 10
170.313
 20
50.4464
 11
170.073
 21
50.7366
  0
LINE
  8
0
 10
170.073
 20
50.7366
 11
169.871
 21
51.0547
  0
LINE
  8
0
 10
169.871
 20
51.0547
 11
169.711
 21
51.3956
  0
LINE
  8
0
 10
169.711
 20
51.3956
 11
169.594
 21
51.7539
  0
LINE
  8
0
 10
169.594
 20
51.7539
 11
169.524
 21
52.124
  0
LINE
  8
0
 10
169.524
 20
52.124
 11
169.5
 21
52.5
  0
LINE
  8
0
 10
169.5
 20
52.5
 11
169.524
 21
52.876
  0
LINE
  8
0
 10
169.524
 20
52.876
 11
169.594
 21
53.2461
  0
LINE
  8
0
 10
169.594
 20
53.2461
 11
169.711
 21
53.6044
  0
LINE
  8
0
 10
169.711
 20
53.6044
 11
169.871
 21
53.9453
  0
LINE
  8
0
 10
169.871
 20
53.9453
 11
170.073
 21
54.2634
  0
LINE
  8
0
 10
170.073
 20
54.2634
 11
170.313
 21
54.5536
  0
LINE
  8
0
 10
170.313
 20
54.5536
 11
170.588
 21
54.8115
  0
LINE
  8
0
 10
170.588
 20
54.8115
 11
170.893
 21
55.033
  0
LINE
  8
0
 10
170.893
 20
55.033
 11
171.223
 21
55.2145
  0
LINE
  8
0
 10
171.223
 20
55.2145
 11
171.573
 21
55.3532
  0
LINE
  8
0
 10
171.573
 20
55.3532
 11
171.938
 21
55.4469
  0
LINE
  8
0
 10
171.938
 20
55.4469
 11
172.312
 21
55.4941
  0
LINE
  8
0
 10
172.312
 20
55.4941
 11
172.688
 21
55.4941
  0
LINE
  8
0
 10
172.688
 20
55.4941
 11
173.062
 21
55.4469
  0
LINE
  8
0
 10
173.062
 20
55.4469
 11
173.427
 21
55.3532
  0
LINE
  8
0
 10
173.427
 20
55.3532
 11
173.777
 21
55.2145
  0
LINE
  8
0
 10
173.777
 20
55.2145
 11
174.107
 21
55.033
  0
LINE
  8
0
 10
174.107
 20
55.033
 11
174.412
 21
54.8115
  0
LINE
  8
0
 10
174.412
 20
54.8115
 11
174.687
 21
54.5536
  0
LINE
  8
0
 10
174.687
 20
54.5536
 11
174.927
 21
54.2634
  0
LINE
  8
0
 10
174.927
 20
54.2634
 11
175.129
 21
53.9453
  0
LINE
  8
0
 10
175.129
 20
53.9453
 11
175.289
 21
53.6044
  0
LINE
  8
0
 10
175.289
 20
53.6044
 11
175.406
 21
53.2461
  0
LINE
  8
0
 10
175.406
 20
53.2461
 11
175.476
 21
52.876
  0
LINE
  8
0
 10
175.476
 20
52.876
 11
175.5
 21
52.5
  0
LINE
  8
0
 10
175.5
 20
52.5
 11
175.476
 21
52.124
  0
LINE
  8
0
 10
175.476
 20
52.124
 11
175.406
 21
51.7539
  0
LINE
  8
0
 10
175.406
 20
51.7539
 11
175.289
 21
51.3956
  0
LINE
  8
0
 10
175.289
 20
51.3956
 11
175.129
 21
51.0547
  0
LINE
  8
0
 10
175.129
 20
51.0547
 11
174.927
 21
50.7366
  0
LINE
  8
0
 10
174.927
 20
50.7366
 11
174.687
 21
50.4464
  0
LINE
  8
0
 10
174.687
 20
50.4464
 11
174.412
 21
50.1885
  0
LINE
  8
0
 10
174.412
 20
50.1885
 11
174.107
 21
49.967
  0
LINE
  8
0
 10
174.107
 20
49.967
 11
173.777
 21
49.7855
  0
LINE
  8
0
 10
173.777
 20
49.7855
 11
173.427
 21
49.6468
  0
LINE
  8
0
 10
173.427
 20
49.6468
 11
173.062
 21
49.5531
  0
LINE
  8
0
 10
173.062
 20
49.5531
 11
172.688
 21
49.5059
  0
LINE
  8
0
 10
172.688
 20
49.5059
 11
172.312
 21
49.5059
  0
LINE
  8
0
 10
111.547
 20
-54.8915
 11
104.694
 21
-54.0258
  0
LINE
  8
0
 10
104.694
 20
-54.0258
 11
98.0041
 21
-52.3081
  0
LINE
  8
0
 10
98.0041
 20
-52.3081
 11
91.5821
 21
-49.7655
  0
LINE
  8
0
 10
91.5821
 20
-49.7655
 11
85.5295
 21
-46.438
  0
LINE
  8
0
 10
85.5295
 20
-46.438
 11
79.9417
 21
-42.3782
  0
LINE
  8
0
 10
79.9417
 20
-42.3782
 11
74.9067
 21
-37.6501
  0
LINE
  8
0
 10
74.9067
 20
-37.6501
 11
70.5041
 21
-32.3282
  0
LINE
  8
0
 10
70.5041
 20
-32.3282
 11
66.8031
 21
-26.4964
  0
LINE
  8
0
 10
66.8031
 20
-26.4964
 11
63.8623
 21
-20.2468
  0
LINE
  8
0
 10
63.8623
 20
-20.2468
 11
61.7279
 21
-13.6779
  0
LINE
  8
0
 10
61.7279
 20
-13.6779
 11
60.4337
 21
-6.89333
  0
LINE
  8
0
 10
60.4337
 20
-6.89333
 11
60
 21
0
  0
LINE
  8
0
 10
60
 20
0
 11
60.4337
 21
6.89333
  0
LINE
  8
0
 10
60.4337
 20
6.89333
 11
61.7279
 21
13.6779
  0
LINE
  8
0
 10
61.7279
 20
13.6779
 11
63.8623
 21
20.2468
  0
LINE
  8
0
 10
63.8623
 20
20.2468
 11
66.8031
 21
26.4964
  0
LINE
  8
0
 10
66.8031
 20
26.4964
 11
70.5041
 21
32.3282
  0
LINE
  8
0
 10
70.5041
 20
32.3282
 11
74.9067
 21
37.6501
  0
LINE
  8
0
 10
74.9067
 20
37.6501
 11
79.9417
 21
42.3782
  0
LINE
  8
0
 10
79.9417
 20
42.3782
 11
85.5295
 21
46.438
  0
LINE
  8
0
 10
85.5295
 20
46.438
 11
91.5821
 21
49.7655
  0
LINE
  8
0
 10
91.5821
 20
49.7655
 11
98.0041
 21
52.3081
  0
LINE
  8
0
 10
98.0041
 20
52.3081
 11
104.694
 21
54.0258
  0
LINE
  8
0
 10
104.694
 20
54.0258
 11
111.547
 21
54.8915
  0
LINE
  8
0
 10
111.547
 20
54.8915
 11
118.453
 21
54.8915
  0
LINE
  8
0
 10
118.453
 20
54.8915
 11
125.306
 21
54.0258
  0
LINE
  8
0
 10
125.306
 20
54.0258
 11
131.996
 21
52.3081
  0
LINE
  8
0
 10
131.996
 20
52.3081
 11
138.418
 21
49.7655
  0
LINE
  8
0
 10
138.418
 20
49.7655
 11
144.47
 21
46.438
  0
LINE
  8
0
 10
144.47
 20
46.438
 11
150.058
 21
42.3782
  0
LINE
  8
0
 10
150.058
 20
42.3782
 11
155.093
 21
37.6501
  0
LINE
  8
0
 10
155.093
 20
37.6501
 11
159.496
 21
32.3282
  0
LINE
  8
0
 10
159.496
 20
32.3282
 11
163.197
 21
26.4964
  0
LINE
  8
0
 10
163.197
 20
26.4964
 11
166.138
 21
20.2468
  0
LINE
  8
0
 10
166.138
 20
20.2468
 11
168.272
 21
13.6779
  0
LINE
  8
0
 10
168.272
 20
13.6779
 11
169.566
 21
6.89333
  0
LINE
  8
0
 10
169.566
 20
6.89333
 11
170
 21
0
  0
LINE
  8
0
 10
170
 20
0
 11
169.566
 21
-6.89333
  0
LINE
  8
0
 10
169.566
 20
-6.89333
 11
168.272
 21
-13.6779
  0
LINE
  8
0
 10
168.272
 20
-13.6779
 11
166.138
 21
-20.2468
  0
LINE
  8
0
 10
166.138
 20
-20.2468
 11
163.197
 21
-26.4964
  0
LINE
  8
0
 10
163.197
 20
-26.4964
 11
159.496
 21
-32.3282
  0
LINE
  8
0
 10
159.496
 20
-32.3282
 11
155.093
 21
-37.6501
  0
LINE
  8
0
 10
155.093
 20
-37.6501
 11
150.058
 21
-42.3782
  0
LINE
  8
0
 10
150.058
 20
-42.3782
 11
144.47
 21
-46.438
  0
LINE
  8
0
 10
144.47
 20
-46.438
 11
138.418
 21
-49.7655
  0
LINE
  8
0
 10
138.418
 20
-49.7655
 11
131.996
 21
-52.3081
  0
LINE
  8
0
 10
131.996
 20
-52.3081
 11
125.306
 21
-54.0258
  0
LINE
  8
0
 10
125.306
 20
-54.0258
 11
118.453
 21
-54.8915
  0
LINE
  8
0
 10
118.453
 20
-54.8915
 11
111.547
 21
-54.8915
  0
LINE
  8
0
 10
-118.453
 20
-54.8915
 11
-125.306
 21
-54.0258
  0
LINE
  8
0
 10
-125.306
 20
-54.0258
 11
-131.996
 21
-52.3081
  0
LINE
  8
0
 10
-131.996
 20
-52.3081
 11
-138.418
 21
-49.7655
  0
LINE
  8
0
 10
-138.418
 20
-49.7655
 11
-144.47
 21
-46.438
  0
LINE
  8
0
 10
-144.47
 20
-46.438
 11
-150.058
 21
-42.3782
  0
LINE
  8
0
 10
-150.058
 20
-42.3782
 11
-155.093
 21
-37.6501
  0
LINE
  8
0
 10
-155.093
 20
-37.6501
 11
-159.496
 21
-32.3282
  0
LINE
  8
0
 10
-159.496
 20
-32.3282
 11
-163.197
 21
-26.4964
  0
LINE
  8
0
 10
-163.197
 20
-26.4964
 11
-166.138
 21
-20.2468
  0
LINE
  8
0
 10
-166.138
 20
-20.2468
 11
-168.272
 21
-13.6779
  0
LINE
  8
0
 10
-168.272
 20
-13.6779
 11
-169.566
 21
-6.89333
  0
LINE
  8
0
 10
-169.566
 20
-6.89333
 11
-170
 21
0
  0
LINE
  8
0
 10
-170
 20
0
 11
-169.566
 21
6.89333
  0
LINE
  8
0
 10
-169.566
 20
6.89333
 11
-168.272
 21
13.6779
  0
LINE
  8
0
 10
-168.272
 20
13.6779
 11
-166.138
 21
20.2468
  0
LINE
  8
0
 10
-166.138
 20
20.2468
 11
-163.197
 21
26.4964
  0
LINE
  8
0
 10
-163.197
 20
26.4964
 11
-159.496
 21
32.3282
  0
LINE
  8
0
 10
-159.496
 20
32.3282
 11
-155.093
 21
37.6501
  0
LINE
  8
0
 10
-155.093
 20
37.6501
 11
-150.058
 21
42.3782
  0
LINE
  8
0
 10
-150.058
 20
42.3782
 11
-144.47
 21
46.438
  0
LINE
  8
0
 10
-144.47
 20
46.438
 11
-138.418
 21
49.7655
  0
LINE
  8
0
 10
-138.418
 20
49.7655
 11
-131.996
 21
52.3081
  0
LINE
  8
0
 10
-131.996
 20
52.3081
 11
-125.306
 21
54.0258
  0
LINE
  8
0
 10
-125.306
 20
54.0258
 11
-118.453
 21
54.8915
  0
LINE
  8
0
 10
-118.453
 20
54.8915
 11
-111.547
 21
54.8915
  0
LINE
  8
0
 10
-111.547
 20
54.8915
 11
-104.694
 21
54.0258
  0
LINE
  8
0
 10
-104.694
 20
54.0258
 11
-98.0041
 21
52.3081
  0
LINE
  8
0
 10
-98.0041
 20
52.3081
 11
-91.5821
 21
49.7655
  0
LINE
  8
0
 10
-91.5821
 20
49.7655
 11
-85.5295
 21
46.438
  0
LINE
  8
0
 10
-85.5295
 20
46.438
 11
-79.9417
 21
42.3782
  0
LINE
  8
0
 10
-79.9417
 20
42.3782
 11
-74.9067
 21
37.6501
  0
LINE
  8
0
 10
-74.9067
 20
37.6501
 11
-70.5041
 21
32.3282
  0
LINE
  8
0
 10
-70.5041
 20
32.3282
 11
-66.8031
 21
26.4964
  0
LINE
  8
0
 10
-66.8031
 20
26.4964
 11
-63.8623
 21
20.2468
  0
LINE
  8
0
 10
-63.8623
 20
20.2468
 11
-61.7279
 21
13.6779
  0
LINE
  8
0
 10
-61.7279
 20
13.6779
 11
-60.4337
 21
6.89333
  0
LINE
  8
0
 10
-60.4337
 20
6.89333
 11
-60
 21
0
  0
LINE
  8
0
 10
-60
 20
0
 11
-60.4337
 21
-6.89333
  0
LINE
  8
0
 10
-60.4337
 20
-6.89333
 11
-61.7279
 21
-13.6779
  0
LINE
  8
0
 10
-61.7279
 20
-13.6779
 11
-63.8623
 21
-20.2468
  0
LINE
  8
0
 10
-63.8623
 20
-20.2468
 11
-66.8031
 21
-26.4964
  0
LINE
  8
0
 10
-66.8031
 20
-26.4964
 11
-70.5041
 21
-32.3282
  0
LINE
  8
0
 10
-70.5041
 20
-32.3282
 11
-74.9067
 21
-37.6501
  0
LINE
  8
0
 10
-74.9067
 20
-37.6501
 11
-79.9417
 21
-42.3782
  0
LINE
  8
0
 10
-79.9417
 20
-42.3782
 11
-85.5295
 21
-46.438
  0
LINE
  8
0
 10
-85.5295
 20
-46.438
 11
-91.5821
 21
-49.7655
  0
LINE
  8
0
 10
-91.5821
 20
-49.7655
 11
-98.0041
 21
-52.3081
  0
LINE
  8
0
 10
-98.0041
 20
-52.3081
 11
-104.694
 21
-54.0258
  0
LINE
  8
0
 10
-104.694
 20
-54.0258
 11
-111.547
 21
-54.8915
  0
LINE
  8
0
 10
-111.547
 20
-54.8915
 11
-118.453
 21
-54.8915
  0
LINE
  8
0
 10
-3.45348
 20
-54.8915
 11
-10.306
 21
-54.0258
  0
LINE
  8
0
 10
-10.306
 20
-54.0258
 11
-16.9959
 21
-52.3081
  0
LINE
  8
0
 10
-16.9959
 20
-52.3081
 11
-23.4179
 21
-49.7655
  0
LINE
  8
0
 10
-23.4179
 20
-49.7655
 11
-29.4705
 21
-46.438
  0
LINE
  8
0
 10
-29.4705
 20
-46.438
 11
-35.0583
 21
-42.3782
  0
LINE
  8
0
 10
-35.0583
 20
-42.3782
 11
-40.0933
 21
-37.6501
  0
LINE
  8
0
 10
-40.0933
 20
-37.6501
 11
-44.4959
 21
-32.3282
  0
LINE
  8
0
 10
-44.4959
 20
-32.3282
 11
-48.1969
 21
-26.4964
  0
LINE
  8
0
 10
-48.1969
 20
-26.4964
 11
-51.1377
 21
-20.2468
  0
LINE
  8
0
 10
-51.1377
 20
-20.2468
 11
-53.2721
 21
-13.6779
  0
LINE
  8
0
 10
-53.2721
 20
-13.6779
 11
-54.5663
 21
-6.89333
  0
LINE
  8
0
 10
-54.5663
 20
-6.89333
 11
-55
 21
0
  0
LINE
  8
0
 10
-55
 20
0
 11
-54.5663
 21
6.89333
  0
LINE
  8
0
 10
-54.5663
 20
6.89333
 11
-53.2721
 21
13.6779
  0
LINE
  8
0
 10
-53.2721
 20
13.6779
 11
-51.1377
 21
20.2468
  0
LINE
  8
0
 10
-51.1377
 20
20.2468
 11
-48.1969
 21
26.4964
  0
LINE
  8
0
 10
-48.1969
 20
26.4964
 11
-44.4959
 21
32.3282
  0
LINE
  8
0
 10
-44.4959
 20
32.3282
 11
-40.0933
 21
37.6501
  0
LINE
  8
0
 10
-40.0933
 20
37.6501
 11
-35.0583
 21
42.3782
  0
LINE
  8
0
 10
-35.0583
 20
42.3782
 11
-29.4705
 21
46.438
  0
LINE
  8
0
 10
-29.4705
 20
46.438
 11
-23.4179
 21
49.7655
  0
LINE
  8
0
 10
-23.4179
 20
49.7655
 11
-16.9959
 21
52.3081
  0
LINE
  8
0
 10
-16.9959
 20
52.3081
 11
-10.306
 21
54.0258
  0
LINE
  8
0
 10
-10.306
 20
54.0258
 11
-3.45348
 21
54.8915
  0
LINE
  8
0
 10
-3.45348
 20
54.8915
 11
3.45348
 21
54.8915
  0
LINE
  8
0
 10
3.45348
 20
54.8915
 11
10.306
 21
54.0258
  0
LINE
  8
0
 10
10.306
 20
54.0258
 11
16.9959
 21
52.3081
  0
LINE
  8
0
 10
16.9959
 20
52.3081
 11
23.4179
 21
49.7655
  0
LINE
  8
0
 10
23.4179
 20
49.7655
 11
29.4705
 21
46.438
  0
LINE
  8
0
 10
29.4705
 20
46.438
 11
35.0583
 21
42.3782
  0
LINE
  8
0
 10
35.0583
 20
42.3782
 11
40.0933
 21
37.6501
  0
LINE
  8
0
 10
40.0933
 20
37.6501
 11
44.4959
 21
32.3282
  0
LINE
  8
0
 10
44.4959
 20
32.3282
 11
48.1969
 21
26.4964
  0
LINE
  8
0
 10
48.1969
 20
26.4964
 11
51.1377
 21
20.2468
  0
LINE
  8
0
 10
51.1377
 20
20.2468
 11
53.2721
 21
13.6779
  0
LINE
  8
0
 10
53.2721
 20
13.6779
 11
54.5663
 21
6.89333
  0
LINE
  8
0
 10
54.5663
 20
6.89333
 11
55
 21
0
  0
LINE
  8
0
 10
55
 20
0
 11
54.5663
 21
-6.89333
  0
LINE
  8
0
 10
54.5663
 20
-6.89333
 11
53.2721
 21
-13.6779
  0
LINE
  8
0
 10
53.2721
 20
-13.6779
 11
51.1377
 21
-20.2468
  0
LINE
  8
0
 10
51.1377
 20
-20.2468
 11
48.1969
 21
-26.4964
  0
LINE
  8
0
 10
48.1969
 20
-26.4964
 11
44.4959
 21
-32.3282
  0
LINE
  8
0
 10
44.4959
 20
-32.3282
 11
40.0933
 21
-37.6501
  0
LINE
  8
0
 10
40.0933
 20
-37.6501
 11
35.0583
 21
-42.3782
  0
LINE
  8
0
 10
35.0583
 20
-42.3782
 11
29.4705
 21
-46.438
  0
LINE
  8
0
 10
29.4705
 20
-46.438
 11
23.4179
 21
-49.7655
  0
LINE
  8
0
 10
23.4179
 20
-49.7655
 11
16.9959
 21
-52.3081
  0
LINE
  8
0
 10
16.9959
 20
-52.3081
 11
10.306
 21
-54.0258
  0
LINE
  8
0
 10
10.306
 20
-54.0258
 11
3.45348
 21
-54.8915
  0
LINE
  8
0
 10
3.45348
 20
-54.8915
 11
-3.45348
 21
-54.8915
  0
LINE
  8
0
 10
172.312
 20
-55.4941
 11
171.938
 21
-55.4469
  0
LINE
  8
0
 10
171.938
 20
-55.4469
 11
171.573
 21
-55.3532
  0
LINE
  8
0
 10
171.573
 20
-55.3532
 11
171.223
 21
-55.2145
  0
LINE
  8
0
 10
171.223
 20
-55.2145
 11
170.893
 21
-55.033
  0
LINE
  8
0
 10
170.893
 20
-55.033
 11
170.588
 21
-54.8115
  0
LINE
  8
0
 10
170.588
 20
-54.8115
 11
170.313
 21
-54.5536
  0
LINE
  8
0
 10
170.313
 20
-54.5536
 11
170.073
 21
-54.2634
  0
LINE
  8
0
 10
170.073
 20
-54.2634
 11
169.871
 21
-53.9453
  0
LINE
  8
0
 10
169.871
 20
-53.9453
 11
169.711
 21
-53.6044
  0
LINE
  8
0
 10
169.711
 20
-53.6044
 11
169.594
 21
-53.2461
  0
LINE
  8
0
 10
169.594
 20
-53.2461
 11
169.524
 21
-52.876
  0
LINE
  8
0
 10
169.524
 20
-52.876
 11
169.5
 21
-52.5
  0
LINE
  8
0
 10
169.5
 20
-52.5
 11
169.524
 21
-52.124
  0
LINE
  8
0
 10
169.524
 20
-52.124
 11
169.594
 21
-51.7539
  0
LINE
  8
0
 10
169.594
 20
-51.7539
 11
169.711
 21
-51.3956
  0
LINE
  8
0
 10
169.711
 20
-51.3956
 11
169.871
 21
-51.0547
  0
LINE
  8
0
 10
169.871
 20
-51.0547
 11
170.073
 21
-50.7366
  0
LINE
  8
0
 10
170.073
 20
-50.7366
 11
170.313
 21
-50.4464
  0
LINE
  8
0
 10
170.313
 20
-50.4464
 11
170.588
 21
-50.1885
  0
LINE
  8
0
 10
170.588
 20
-50.1885
 11
170.893
 21
-49.967
  0
LINE
  8
0
 10
170.893
 20
-49.967
 11
171.223
 21
-49.7855
  0
LINE
  8
0
 10
171.223
 20
-49.7855
 11
171.573
 21
-49.6468
  0
LINE
  8
0
 10
171.573
 20
-49.6468
 11
171.938
 21
-49.5531
  0
LINE
  8
0
 10
171.938
 20
-49.5531
 11
172.312
 21
-49.5059
  0
LINE
  8
0
 10
172.312
 20
-49.5059
 11
172.688
 21
-49.5059
  0
LINE
  8
0
 10
172.688
 20
-49.5059
 11
173.062
 21
-49.5531
  0
LINE
  8
0
 10
173.062
 20
-49.5531
 11
173.427
 21
-49.6468
  0
LINE
  8
0
 10
173.427
 20
-49.6468
 11
173.777
 21
-49.7855
  0
LINE
  8
0
 10
173.777
 20
-49.7855
 11
174.107
 21
-49.967
  0
LINE
  8
0
 10
174.107
 20
-49.967
 11
174.412
 21
-50.1885
  0
LINE
  8
0
 10
174.412
 20
-50.1885
 11
174.687
 21
-50.4464
  0
LINE
  8
0
 10
174.687
 20
-50.4464
 11
174.927
 21
-50.7366
  0
LINE
  8
0
 10
174.927
 20
-50.7366
 11
175.129
 21
-51.0547
  0
LINE
  8
0
 10
175.129
 20
-51.0547
 11
175.289
 21
-51.3956
  0
LINE
  8
0
 10
175.289
 20
-51.3956
 11
175.406
 21
-51.7539
  0
LINE
  8
0
 10
175.406
 20
-51.7539
 11
175.476
 21
-52.124
  0
LINE
  8
0
 10
175.476
 20
-52.124
 11
175.5
 21
-52.5
  0
LINE
  8
0
 10
175.5
 20
-52.5
 11
175.476
 21
-52.876
  0
LINE
  8
0
 10
175.476
 20
-52.876
 11
175.406
 21
-53.2461
  0
LINE
  8
0
 10
175.406
 20
-53.2461
 11
175.289
 21
-53.6044
  0
LINE
  8
0
 10
175.289
 20
-53.6044
 11
175.129
 21
-53.9453
  0
LINE
  8
0
 10
175.129
 20
-53.9453
 11
174.927
 21
-54.2634
  0
LINE
  8
0
 10
174.927
 20
-54.2634
 11
174.687
 21
-54.5536
  0
LINE
  8
0
 10
174.687
 20
-54.5536
 11
174.412
 21
-54.8115
  0
LINE
  8
0
 10
174.412
 20
-54.8115
 11
174.107
 21
-55.033
  0
LINE
  8
0
 10
174.107
 20
-55.033
 11
173.777
 21
-55.2145
  0
LINE
  8
0
 10
173.777
 20
-55.2145
 11
173.427
 21
-55.3532
  0
LINE
  8
0
 10
173.427
 20
-55.3532
 11
173.062
 21
-55.4469
  0
LINE
  8
0
 10
173.062
 20
-55.4469
 11
172.688
 21
-55.4941
  0
LINE
  8
0
 10
172.688
 20
-55.4941
 11
172.312
 21
-55.4941
  0
LINE
  8
0
 10
-172.688
 20
-55.4941
 11
-173.062
 21
-55.4469
  0
LINE
  8
0
 10
-173.062
 20
-55.4469
 11
-173.427
 21
-55.3532
  0
LINE
  8
0
 10
-173.427
 20
-55.3532
 11
-173.777
 21
-55.2145
  0
LINE
  8
0
 10
-173.777
 20
-55.2145
 11
-174.107
 21
-55.033
  0
LINE
  8
0
 10
-174.107
 20
-55.033
 11
-174.412
 21
-54.8115
  0
LINE
  8
0
 10
-174.412
 20
-54.8115
 11
-174.687
 21
-54.5536
  0
LINE
  8
0
 10
-174.687
 20
-54.5536
 11
-174.927
 21
-54.2634
  0
LINE
  8
0
 10
-174.927
 20
-54.2634
 11
-175.129
 21
-53.9453
  0
LINE
  8
0
 10
-175.129
 20
-53.9453
 11
-175.289
 21
-53.6044
  0
LINE
  8
0
 10
-175.289
 20
-53.6044
 11
-175.406
 21
-53.2461
  0
LINE
  8
0
 10
-175.406
 20
-53.2461
 11
-175.476
 21
-52.876
  0
LINE
  8
0
 10
-175.476
 20
-52.876
 11
-175.5
 21
-52.5
  0
LINE
  8
0
 10
-175.5
 20
-52.5
 11
-175.476
 21
-52.124
  0
LINE
  8
0
 10
-175.476
 20
-52.124
 11
-175.406
 21
-51.7539
  0
LINE
  8
0
 10
-175.406
 20
-51.7539
 11
-175.289
 21
-51.3956
  0
LINE
  8
0
 10
-175.289
 20
-51.3956
 11
-175.129
 21
-51.0547
  0
LINE
  8
0
 10
-175.129
 20
-51.0547
 11
-174.927
 21
-50.7366
  0
LINE
  8
0
 10
-174.927
 20
-50.7366
 11
-174.687
 21
-50.4464
  0
LINE
  8
0
 10
-174.687
 20
-50.4464
 11
-174.412
 21
-50.1885
  0
LINE
  8
0
 10
-174.412
 20
-50.1885
 11
-174.107
 21
-49.967
  0
LINE
  8
0
 10
-174.107
 20
-49.967
 11
-173.777
 21
-49.7855
  0
LINE
  8
0
 10
-173.777
 20
-49.7855
 11
-173.427
 21
-49.6468
  0
LINE
  8
0
 10
-173.427
 20
-49.6468
 11
-173.062
 21
-49.5531
  0
LINE
  8
0
 10
-173.062
 20
-49.5531
 11
-172.688
 21
-49.5059
  0
LINE
  8
0
 10
-172.688
 20
-49.5059
 11
-172.312
 21
-49.5059
  0
LINE
  8
0
 10
-172.312
 20
-49.5059
 11
-171.938
 21
-49.5531
  0
LINE
  8
0
 10
-171.938
 20
-49.5531
 11
-171.573
 21
-49.6468
  0
LINE
  8
0
 10
-171.573
 20
-49.6468
 11
-171.223
 21
-49.7855
  0
LINE
  8
0
 10
-171.223
 20
-49.7855
 11
-170.893
 21
-49.967
  0
LINE
  8
0
 10
-170.893
 20
-49.967
 11
-170.588
 21
-50.1885
  0
LINE
  8
0
 10
-170.588
 20
-50.1885
 11
-170.313
 21
-50.4464
  0
LINE
  8
0
 10
-170.313
 20
-50.4464
 11
-170.073
 21
-50.7366
  0
LINE
  8
0
 10
-170.073
 20
-50.7366
 11
-169.871
 21
-51.0547
  0
LINE
  8
0
 10
-169.871
 20
-51.0547
 11
-169.711
 21
-51.3956
  0
LINE
  8
0
 10
-169.711
 20
-51.3956
 11
-169.594
 21
-51.7539
  0
LINE
  8
0
 10
-169.594
 20
-51.7539
 11
-169.524
 21
-52.124
  0
LINE
  8
0
 10
-169.524
 20
-52.124
 11
-169.5
 21
-52.5
  0
LINE
  8
0
 10
-169.5
 20
-52.5
 11
-169.524
 21
-52.876
  0
LINE
  8
0
 10
-169.524
 20
-52.876
 11
-169.594
 21
-53.2461
  0
LINE
  8
0
 10
-169.594
 20
-53.2461
 11
-169.711
 21
-53.6044
  0
LINE
  8
0
 10
-169.711
 20
-53.6044
 11
-169.871
 21
-53.9453
  0
LINE
  8
0
 10
-169.871
 20
-53.9453
 11
-170.073
 21
-54.2634
  0
LINE
  8
0
 10
-170.073
 20
-54.2634
 11
-170.313
 21
-54.5536
  0
LINE
  8
0
 10
-170.313
 20
-54.5536
 11
-170.588
 21
-54.8115
  0
LINE
  8
0
 10
-170.588
 20
-54.8115
 11
-170.893
 21
-55.033
  0
LINE
  8
0
 10
-170.893
 20
-55.033
 11
-171.223
 21
-55.2145
  0
LINE
  8
0
 10
-171.223
 20
-55.2145
 11
-171.573
 21
-55.3532
  0
LINE
  8
0
 10
-171.573
 20
-55.3532
 11
-171.938
 21
-55.4469
  0
LINE
  8
0
 10
-171.938
 20
-55.4469
 11
-172.312
 21
-55.4941
  0
LINE
  8
0
 10
-172.312
 20
-55.4941
 11
-172.688
 21
-55.4941
  0
ENDSEC
  0
SECTION
  2
OBJECTS
  0
DICTIONARY
  0
ENDSEC
  0
EOF
