<?xml version="1.0" standalone="no"?>
<!DOCTYPE svg PUBLIC "-//W3C//DTD SVG 1.1//EN" "http://www.w3.org/Graphics/SVG/1.1/DTD/svg11.dtd">
<svg width="360mm" height="120mm" viewBox="-180 -60 360 120" xmlns="http://www.w3.org/2000/svg" version="1.1">
<title>OpenSCAD Model</title>
<path d="
M 175.437,59.4114 L 176.045,59.2553 L 176.629,59.0241 L 177.179,58.7216 L 177.687,58.3526 L 178.145,57.9227
 L 178.545,57.4389 L 178.882,56.9088 L 179.149,56.3406 L 179.343,55.7434 L 179.461,55.1267 L 179.5,54.5
 L 179.5,-54.5 L 179.461,-55.1267 L 179.343,-55.7434 L 179.149,-56.3406 L 178.882,-56.9088 L 178.545,-57.4389
 L 178.145,-57.9227 L 177.687,-58.3526 L 177.179,-58.7216 L 176.629,-59.0241 L 176.045,-59.2553 L 175.437,-59.4114
 L 174.814,-59.4901 L -174.814,-59.4901 L -175.437,-59.4114 L -176.045,-59.2553 L -176.629,-59.0241 L -177.179,-58.7216
 L -177.687,-58.3526 L -178.145,-57.9227 L -178.545,-57.4389 L -178.882,-56.9088 L -179.149,-56.3406 L -179.343,-55.7434
 L -179.461,-55.1267 L -179.5,-54.5 L -179.5,54.5 L -179.461,55.1267 L -179.343,55.7434 L -179.149,56.3406
 L -178.882,56.9088 L -178.545,57.4389 L -178.145,57.9227 L -177.687,58.3526 L -177.179,58.7216 L -176.629,59.0241
 L -176.045,59.2553 L -175.437,59.4114 L -174.814,59.4901 L 174.814,59.4901 z
M -172.688,-49.5059 L -173.062,-49.5531 L -173.427,-49.6468 L -173.777,-49.7855 L -174.107,-49.967 L -174.412,-50.1885
 L -174.687,-50.4464 L -174.927,-50.7366 L -175.129,-51.0547 L -175.289,-51.3956 L -175.406,-51.7539 L -175.476,-52.124
 L -175.5,-52.5 L -175.476,-52.876 L -175.406,-53.2461 L -175.289,-53.6044 L -175.129,-53.9453 L -174.927,-54.2634
 L -174.687,-54.5536 L -174.412,-54.8115 L -174.107,-55.033 L -173.777,-55.2145 L -173.427,-55.3532 L -173.062,-55.4469
 L -172.688,-55.4941 L -172.312,-55.4941 L -171.938,-55.4469 L -171.573,-55.3532 L -171.223,-55.2145 L -170.893,-55.033
 L -170.588,-54.8115 L -170.313,-54.5536 L -170.073,-54.2634 L -169.871,-53.9453 L -169.711,-53.6044 L -169.594,-53.2461
 L -169.524,-52.876 L -169.5,-52.5 L -169.524,-52.124 L -169.594,-51.7539 L -169.711,-51.3956 L -169.871,-51.0547
 L -170.073,-50.7366 L -170.313,-50.4464 L -170.588,-50.1885 L -170.893,-49.967 L -171.223,-49.7855 L -171.573,-49.6468
 L -171.938,-49.5531 L -172.312,-49.5059 z
M 172.312,-49.5059 L 171.938,-49.5531 L 171.573,-49.6468 L 171.223,-49.7855 L 170.893,-49.967 L 170.588,-50.1885
 L 170.313,-50.4464 L 170.073,-50.7366 L 169.871,-51.0547 L 169.711,-51.3956 L 169.594,-51.7539 L 169.524,-52.124
 L 169.5,-52.5 L 169.524,-52.876 L 169.594,-53.2461 L 169.711,-53.6044 L 169.871,-53.9453 L 170.073,-54.2634
 L 170.313,-54.5536 L 170.588,-54.8115 L 170.893,-55.033 L 171.223,-55.2145 L 171.573,-55.3532 L 171.938,-55.4469
 L 172.312,-55.4941 L 172.688,-55.4941 L 173.062,-55.4469 L 173.427,-55.3532 L 173.777,-55.2145 L 174.107,-55.033
 L 174.412,-54.8115 L 174.687,-54.5536 L 174.927,-54.2634 L 175.129,-53.9453 L 175.289,-53.6044 L 175.406,-53.2461
 L 175.476,-52.876 L 175.5,-52.5 L 175.476,-52.124 L 175.406,-51.7539 L 175.289,-51.3956 L 175.129,-51.0547
 L 174.927,-50.7366 L 174.687,-50.4464 L 174.412,-50.1885 L 174.107,-49.967 L 173.777,-49.7855 L 173.427,-49.6468
 L 173.062,-49.5531 L 172.688,-49.5059 z
M 111.547,54.8915 L 104.694,54.0258 L 98.0041,52.3081 L 91.5821,49.7655 L 85.5295,46.438 L 79.9417,42.3782
 L 74.9067,37.6501 L 70.5041,32.3282 L 66.8031,26.4964 L 63.8623,20.2468 L 61.7279,13.6779 L 60.4337,6.89333
 L 60,-0 L 60.4337,-6.89333 L 61.7279,-13.6779 L 63.8623,-20.2468 L 66.8031,-26.4964 L 70.5041,-32.3282
 L 74.9067,-37.6501 L 79.9417,-42.3782 L 85.5295,-46.438 L 91.5821,-49.7655 L 98.0041,-52.3081 L 104.694,-54.0258
 L 111.547,-54.8915 L 118.453,-54.8915 L 125.306,-54.0258 L 131.996,-52.3081 L 138.418,-49.7655 L 144.47,-46.438
 L 150.058,-42.3782 L 155.093,-37.6501 L 159.496,-32.3282 L 163.197,-26.4964 L 166.138,-20.2468 L 168.272,-13.6779
 L 169.566,-6.89333 L 170,-0 L 169.566,6.89333 L 168.272,13.6779 L 166.138,20.2468 L 163.197,26.4964
 L 159.496,32.3282 L 155.093,37.6501 L 150.058,42.3782 L 144.47,46.438 L 138.418,49.7655 L 131.996,52.3081
 L 125.306,54.0258 L 118.453,54.8915 z
M -118.453,54.8915 L -125.306,54.0258 L -131.996,52.3081 L -138.418,49.7655 L -144.47,46.438 L -150.058,42.3782
 L -155.093,37.6501 L -159.496,32.3282 L -163.197,26.4964 L -166.138,20.2468 L -168.272,13.6779 L -169.566,6.89333
 L -170,-0 L -169.566,-6.89333 L -168.272,-13.6779 L -166.138,-20.2468 L -163.197,-26.4964 L -159.496,-32.3282
 L -155.093,-37.6501 L -150.058,-42.3782 L -144.47,-46.438 L -138.418,-49.7655 L -131.996,-52.3081 L -125.306,-54.0258
 L -118.453,-54.8915 L -111.547,-54.8915 L -104.694,-54.0258 L -98.0041,-52.3081 L -91.5821,-49.7655 L -85.5295,-46.438
 L -79.9417,-42.3782 L -74.9067,-37.6501 L -70.5041,-32.3282 L -66.8031,-26.4964 L -63.8623,-20.2468 L -61.7279,-13.6779
 L -60.4337,-6.89333 L -60,-0 L -60.4337,6.89333 L -61.7279,13.6779 L -63.8623,20.2468 L -66.8031,26.4964
 L -70.5041,32.3282 L -74.9067,37.6501 L -79.9417,42.3782 L -85.5295,46.438 L -91.5821,49.7655 L -98.0041,52.3081
 L -104.694,54.0258 L -111.547,54.8915 z
M -3.45348,54.8915 L -10.306,54.0258 L -16.9959,52.3081 L -23.4179,49.7655 L -29.4705,46.438 L -35.0583,42.3782
 L -40.0933,37.6501 L -44.4959,32.3282 L -48.1969,26.4964 L -51.1377,20.2468 L -53.2721,13.6779 L -54.5663,6.89333
 L -55,-0 L -54.5663,-6.89333 L -53.2721,-13.6779 L -51.1377,-20.2468 L -48.1969,-26.4964 L -44.4959,-32.3282
 L -40.0933,-37.6501 L -35.0583,-42.3782 L -29.4705,-46.438 L -23.4179,-49.7655 L -16.9959,-52.3081 L -10.306,-54.0258
 L -3.45348,-54.8915 L 3.45348,-54.8915 L 10.306,-54.0258 L 16.9959,-52.3081 L 23.4179,-49.7655 L 29.4705,-46.438
 L 35.0583,-42.3782 L 40.0933,-37.6501 L 44.4959,-32.3282 L 48.1969,-26.4964 L 51.1377,-20.2468 L 53.2721,-13.6779
 L 54.5663,-6.89333 L 55,-0 L 54.5663,6.89333 L 53.2721,13.6779 L 51.1377,20.2468 L 48.1969,26.4964
 L 44.4959,32.3282 L 40.0933,37.6501 L 35.0583,42.3782 L 29.4705,46.438 L 23.4179,49.7655 L 16.9959,52.3081
 L 10.306,54.0258 L 3.45348,54.8915 z
M 172.312,55.4941 L 171.938,55.4469 L 171.573,55.3532 L 171.223,55.2145 L 170.893,55.033 L 170.588,54.8115
 L 170.313,54.5536 L 170.073,54.2634 L 169.871,53.9453 L 169.711,53.6044 L 169.594,53.2461 L 169.524,52.876
 L 169.5,52.5 L 169.524,52.124 L 169.594,51.7539 L 169.711,51.3956 L 169.871,51.0547 L 170.073,50.7366
 L 170.313,50.4464 L 170.588,50.1885 L 170.893,49.967 L 171.223,49.7855 L 171.573,49.6468 L 171.938,49.5531
 L 172.312,49.5059 L 172.688,49.5059 L 173.062,49.5531 L 173.427,49.6468 L 173.777,49.7855 L 174.107,49.967
 L 174.412,50.1885 L 174.687,50.4464 L 174.927,50.7366 L 175.129,51.0547 L 175.289,51.3956 L 175.406,51.7539
 L 175.476,52.124 L 175.5,52.5 L 175.476,52.876 L 175.406,53.2461 L 175.289,53.6044 L 175.129,53.9453
 L 174.927,54.2634 L 174.687,54.5536 L 174.412,54.8115 L 174.107,55.033 L 173.777,55.2145 L 173.427,55.3532
 L 173.062,55.4469 L 172.688,55.4941 z
M -172.688,55.4941 L -173.062,55.4469 L -173.427,55.3532 L -173.777,55.2145 L -174.107,55.033 L -174.412,54.8115
 L -174.687,54.5536 L -174.927,54.2634 L -175.129,53.9453 L -175.289,53.6044 L -175.406,53.2461 L -175.476,52.876
 L -175.5,52.5 L -175.476,52.124 L -175.406,51.7539 L -175.289,51.3956 L -175.129,51.0547 L -174.927,50.7366
 L -174.687,50.4464 L -174.412,50.1885 L -174.107,49.967 L -173.777,49.7855 L -173.427,49.6468 L -173.062,49.5531
 L -172.688,49.5059 L -172.312,49.5059 L -171.938,49.5531 L -171.573,49.6468 L -171.223,49.7855 L -170.893,49.967
 L -170.588,50.1885 L -170.313,50.4464 L -170.073,50.7366 L -169.871,51.0547 L -169.711,51.3956 L -169.594,51.7539
 L -169.524,52.124 L -169.5,52.5 L -169.524,52.876 L -169.594,53.2461 L -169.711,53.6044 L -169.871,53.9453
 L -170.073,54.2634 L -170.313,54.5536 L -170.588,54.8115 L -170.893,55.033 L -171.223,55.2145 L -171.573,55.3532
 L -171.938,55.4469 L -172.312,55.4941 z
" stroke="black" fill="lightgray" stroke-width="0.5"/>
</svg>
