  0
SECTION
  2
BLOCKS
  0
ENDSEC
  0
SECTION
  2
ENTITIES
  0
LINE
  8
0
 10
25.4369
 20
24.5886
 11
26.0451
 21
24.7447
  0
LINE
  8
0
 10
26.0451
 20
24.7447
 11
26.6289
 21
24.9759
  0
LINE
  8
0
 10
26.6289
 20
24.9759
 11
27.1791
 21
25.2784
  0
LINE
  8
0
 10
27.1791
 20
25.2784
 11
27.6871
 21
25.6474
  0
LINE
  8
0
 10
27.6871
 20
25.6474
 11
28.1448
 21
26.0773
  0
LINE
  8
0
 10
28.1448
 20
26.0773
 11
28.5451
 21
26.5611
  0
LINE
  8
0
 10
28.5451
 20
26.5611
 11
28.8815
 21
27.0912
  0
LINE
  8
0
 10
28.8815
 20
27.0912
 11
29.1489
 21
27.6594
  0
LINE
  8
0
 10
29.1489
 20
27.6594
 11
29.3429
 21
28.2566
  0
LINE
  8
0
 10
29.3429
 20
28.2566
 11
29.4606
 21
28.8733
  0
LINE
  8
0
 10
29.4606
 20
28.8733
 11
29.5
 21
29.5
  0
LINE
  8
0
 10
29.5
 20
29.5
 11
29.5
 21
48.5
  0
LINE
  8
0
 10
29.5
 20
48.5
 11
29.4606
 21
49.1267
  0
LINE
  8
0
 10
29.4606
 20
49.1267
 11
29.3429
 21
49.7434
  0
LINE
  8
0
 10
29.3429
 20
49.7434
 11
29.1489
 21
50.3406
  0
LINE
  8
0
 10
29.1489
 20
50.3406
 11
28.8815
 21
50.9088
  0
LINE
  8
0
 10
28.8815
 20
50.9088
 11
28.5451
 21
51.4389
  0
LINE
  8
0
 10
28.5451
 20
51.4389
 11
28.1448
 21
51.9227
  0
LINE
  8
0
 10
28.1448
 20
51.9227
 11
27.6871
 21
52.3526
  0
LINE
  8
0
 10
27.6871
 20
52.3526
 11
27.1791
 21
52.7216
  0
LINE
  8
0
 10
27.1791
 20
52.7216
 11
26.6289
 21
53.0241
  0
LINE
  8
0
 10
26.6289
 20
53.0241
 11
26.0451
 21
53.2553
  0
LINE
  8
0
 10
26.0451
 20
53.2553
 11
25.4369
 21
53.4114
  0
LINE
  8
0
 10
25.4369
 20
53.4114
 11
24.8139
 21
53.4901
  0
LINE
  8
0
 10
24.8139
 20
53.4901
 11
-24.8139
 21
53.4901
  0
LINE
  8
0
 10
-24.8139
 20
53.4901
 11
-25.4369
 21
53.4114
  0
LINE
  8
0
 10
-25.4369
 20
53.4114
 11
-26.0451
 21
53.2553
  0
LINE
  8
0
 10
-26.0451
 20
53.2553
 11
-26.6289
 21
53.0241
  0
LINE
  8
0
 10
-26.6289
 20
53.0241
 11
-27.1791
 21
52.7216
  0
LINE
  8
0
 10
-27.1791
 20
52.7216
 11
-27.6871
 21
52.3526
  0
LINE
  8
0
 10
-27.6871
 20
52.3526
 11
-28.1448
 21
51.9227
  0
LINE
  8
0
 10
-28.1448
 20
51.9227
 11
-28.5451
 21
51.4389
  0
LINE
  8
0
 10
-28.5451
 20
51.4389
 11
-28.8815
 21
50.9088
  0
LINE
  8
0
 10
-28.8815
 20
50.9088
 11
-29.1489
 21
50.3406
  0
LINE
  8
0
 10
-29.1489
 20
50.3406
 11
-29.3429
 21
49.7434
  0
LINE
  8
0
 10
-29.3429
 20
49.7434
 11
-29.4606
 21
49.1267
  0
LINE
  8
0
 10
-29.4606
 20
49.1267
 11
-29.5
 21
48.5
  0
LINE
  8
0
 10
-29.5
 20
48.5
 11
-29.5
 21
29.5
  0
LINE
  8
0
 10
-29.5
 20
29.5
 11
-29.4606
 21
28.8733
  0
LINE
  8
0
 10
-29.4606
 20
28.8733
 11
-29.3429
 21
28.2566
  0
LINE
  8
0
 10
-29.3429
 20
28.2566
 11
-29.1489
 21
27.6594
  0
LINE
  8
0
 10
-29.1489
 20
27.6594
 11
-28.8815
 21
27.0912
  0
LINE
  8
0
 10
-28.8815
 20
27.0912
 11
-28.5451
 21
26.5611
  0
LINE
  8
0
 10
-28.5451
 20
26.5611
 11
-28.1448
 21
26.0773
  0
LINE
  8
0
 10
-28.1448
 20
26.0773
 11
-27.6871
 21
25.6474
  0
LINE
  8
0
 10
-27.6871
 20
25.6474
 11
-27.1791
 21
25.2784
  0
LINE
  8
0
 10
-27.1791
 20
25.2784
 11
-26.6289
 21
24.9759
  0
LINE
  8
0
 10
-26.6289
 20
24.9759
 11
-26.0451
 21
24.7447
  0
LINE
  8
0
 10
-26.0451
 20
24.7447
 11
-25.4369
 21
24.5886
  0
LINE
  8
0
 10
-25.4369
 20
24.5886
 11
-24.8139
 21
24.5099
  0
LINE
  8
0
 10
-24.8139
 20
24.5099
 11
24.8139
 21
24.5099
  0
LINE
  8
0
 10
24.8139
 20
24.5099
 11
25.4369
 21
24.5886
  0
LINE
  8
0
 10
-14.7221
 20
27.5227
 11
-16.1549
 21
27.7037
  0
LINE
  8
0
 10
-16.1549
 20
27.7037
 11
-17.5537
 21
28.0629
  0
LINE
  8
0
 10
-17.5537
 20
28.0629
 11
-18.8965
 21
28.5945
  0
LINE
  8
0
 10
-18.8965
 20
28.5945
 11
-20.162
 21
29.2902
  0
LINE
  8
0
 10
-20.162
 20
29.2902
 11
-20.3409
 21
29.4202
  0
LINE
  8
0
 10
-20.3409
 20
29.4202
 11
-20.5877
 21
29.1885
  0
LINE
  8
0
 10
-20.5877
 20
29.1885
 11
-20.8925
 21
28.967
  0
LINE
  8
0
 10
-20.8925
 20
28.967
 11
-21.2227
 21
28.7855
  0
LINE
  8
0
 10
-21.2227
 20
28.7855
 11
-21.5729
 21
28.6468
  0
LINE
  8
0
 10
-21.5729
 20
28.6468
 11
-21.9379
 21
28.5531
  0
LINE
  8
0
 10
-21.9379
 20
28.5531
 11
-22.3116
 21
28.5059
  0
LINE
  8
0
 10
-22.3116
 20
28.5059
 11
-22.6884
 21
28.5059
  0
LINE
  8
0
 10
-22.6884
 20
28.5059
 11
-23.0621
 21
28.5531
  0
LINE
  8
0
 10
-23.0621
 20
28.5531
 11
-23.427
 21
28.6468
  0
LINE
  8
0
 10
-23.427
 20
28.6468
 11
-23.7773
 21
28.7855
  0
LINE
  8
0
 10
-23.7773
 20
28.7855
 11
-24.1075
 21
28.967
  0
LINE
  8
0
 10
-24.1075
 20
28.967
 11
-24.4123
 21
29.1885
  0
LINE
  8
0
 10
-24.4123
 20
29.1885
 11
-24.6869
 21
29.4464
  0
LINE
  8
0
 10
-24.6869
 20
29.4464
 11
-24.927
 21
29.7366
  0
LINE
  8
0
 10
-24.927
 20
29.7366
 11
-25.1289
 21
30.0547
  0
LINE
  8
0
 10
-25.1289
 20
30.0547
 11
-25.2893
 21
30.3956
  0
LINE
  8
0
 10
-25.2893
 20
30.3956
 11
-25.4057
 21
30.7539
  0
LINE
  8
0
 10
-25.4057
 20
30.7539
 11
-25.4763
 21
31.124
  0
LINE
  8
0
 10
-25.4763
 20
31.124
 11
-25.5
 21
31.5
  0
LINE
  8
0
 10
-25.5
 20
31.5
 11
-25.4763
 21
31.876
  0
LINE
  8
0
 10
-25.4763
 20
31.876
 11
-25.4057
 21
32.2461
  0
LINE
  8
0
 10
-25.4057
 20
32.2461
 11
-25.2893
 21
32.6044
  0
LINE
  8
0
 10
-25.2893
 20
32.6044
 11
-25.1289
 21
32.9453
  0
LINE
  8
0
 10
-25.1289
 20
32.9453
 11
-24.927
 21
33.2634
  0
LINE
  8
0
 10
-24.927
 20
33.2634
 11
-24.6869
 21
33.5536
  0
LINE
  8
0
 10
-24.6869
 20
33.5536
 11
-24.4123
 21
33.8116
  0
LINE
  8
0
 10
-24.4123
 20
33.8116
 11
-24.2861
 21
33.9032
  0
LINE
  8
0
 10
-24.2861
 20
33.9032
 11
-24.6924
 21
34.7666
  0
LINE
  8
0
 10
-24.6924
 20
34.7666
 11
-25.1387
 21
36.1401
  0
LINE
  8
0
 10
-25.1387
 20
36.1401
 11
-25.4093
 21
37.5587
  0
LINE
  8
0
 10
-25.4093
 20
37.5587
 11
-25.5
 21
39
  0
LINE
  8
0
 10
-25.5
 20
39
 11
-25.4093
 21
40.4413
  0
LINE
  8
0
 10
-25.4093
 20
40.4413
 11
-25.1387
 21
41.8599
  0
LINE
  8
0
 10
-25.1387
 20
41.8599
 11
-24.6924
 21
43.2334
  0
LINE
  8
0
 10
-24.6924
 20
43.2334
 11
-24.2861
 21
44.0968
  0
LINE
  8
0
 10
-24.2861
 20
44.0968
 11
-24.4123
 21
44.1884
  0
LINE
  8
0
 10
-24.4123
 20
44.1884
 11
-24.6869
 21
44.4464
  0
LINE
  8
0
 10
-24.6869
 20
44.4464
 11
-24.927
 21
44.7366
  0
LINE
  8
0
 10
-24.927
 20
44.7366
 11
-25.1289
 21
45.0547
  0
LINE
  8
0
 10
-25.1289
 20
45.0547
 11
-25.2893
 21
45.3956
  0
LINE
  8
0
 10
-25.2893
 20
45.3956
 11
-25.4057
 21
45.7539
  0
LINE
  8
0
 10
-25.4057
 20
45.7539
 11
-25.4763
 21
46.124
  0
LINE
  8
0
 10
-25.4763
 20
46.124
 11
-25.5
 21
46.5
  0
LINE
  8
0
 10
-25.5
 20
46.5
 11
-25.4763
 21
46.876
  0
LINE
  8
0
 10
-25.4763
 20
46.876
 11
-25.4057
 21
47.2461
  0
LINE
  8
0
 10
-25.4057
 20
47.2461
 11
-25.2893
 21
47.6044
  0
LINE
  8
0
 10
-25.2893
 20
47.6044
 11
-25.1289
 21
47.9453
  0
LINE
  8
0
 10
-25.1289
 20
47.9453
 11
-24.927
 21
48.2634
  0
LINE
  8
0
 10
-24.927
 20
48.2634
 11
-24.6869
 21
48.5536
  0
LINE
  8
0
 10
-24.6869
 20
48.5536
 11
-24.4123
 21
48.8115
  0
LINE
  8
0
 10
-24.4123
 20
48.8115
 11
-24.1075
 21
49.033
  0
LINE
  8
0
 10
-24.1075
 20
49.033
 11
-23.7773
 21
49.2145
  0
LINE
  8
0
 10
-23.7773
 20
49.2145
 11
-23.427
 21
49.3532
  0
LINE
  8
0
 10
-23.427
 20
49.3532
 11
-23.0621
 21
49.4469
  0
LINE
  8
0
 10
-23.0621
 20
49.4469
 11
-22.6884
 21
49.4941
  0
LINE
  8
0
 10
-22.6884
 20
49.4941
 11
-22.3116
 21
49.4941
  0
LINE
  8
0
 10
-22.3116
 20
49.4941
 11
-21.9379
 21
49.4469
  0
LINE
  8
0
 10
-21.9379
 20
49.4469
 11
-21.5729
 21
49.3532
  0
LINE
  8
0
 10
-21.5729
 20
49.3532
 11
-21.2227
 21
49.2145
  0
LINE
  8
0
 10
-21.2227
 20
49.2145
 11
-20.8925
 21
49.033
  0
LINE
  8
0
 10
-20.8925
 20
49.033
 11
-20.5877
 21
48.8115
  0
LINE
  8
0
 10
-20.5877
 20
48.8115
 11
-20.3409
 21
48.5798
  0
LINE
  8
0
 10
-20.3409
 20
48.5798
 11
-20.162
 21
48.7098
  0
LINE
  8
0
 10
-20.162
 20
48.7098
 11
-18.8965
 21
49.4055
  0
LINE
  8
0
 10
-18.8965
 20
49.4055
 11
-17.5537
 21
49.9371
  0
LINE
  8
0
 10
-17.5537
 20
49.9371
 11
-16.1549
 21
50.2963
  0
LINE
  8
0
 10
-16.1549
 20
50.2963
 11
-14.7221
 21
50.4773
  0
LINE
  8
0
 10
-14.7221
 20
50.4773
 11
-13.2779
 21
50.4773
  0
LINE
  8
0
 10
-13.2779
 20
50.4773
 11
-11.8451
 21
50.2963
  0
LINE
  8
0
 10
-11.8451
 20
50.2963
 11
-10.4463
 21
49.9371
  0
LINE
  8
0
 10
-10.4463
 20
49.9371
 11
-9.10353
 21
49.4055
  0
LINE
  8
0
 10
-9.10353
 20
49.4055
 11
-7.83798
 21
48.7098
  0
LINE
  8
0
 10
-7.83798
 20
48.7098
 11
-6.66962
 21
47.8609
  0
LINE
  8
0
 10
-6.66962
 20
47.8609
 11
-5.61685
 21
46.8723
  0
LINE
  8
0
 10
-5.61685
 20
46.8723
 11
-4.6963
 21
45.7595
  0
LINE
  8
0
 10
-4.6963
 20
45.7595
 11
-3.92247
 21
44.5402
  0
LINE
  8
0
 10
-3.92247
 20
44.5402
 11
-3.30756
 21
43.2334
  0
LINE
  8
0
 10
-3.30756
 20
43.2334
 11
-2.86128
 21
41.8599
  0
LINE
  8
0
 10
-2.86128
 20
41.8599
 11
-2.59067
 21
40.4413
  0
LINE
  8
0
 10
-2.59067
 20
40.4413
 11
-2.5
 21
39
  0
LINE
  8
0
 10
-2.5
 20
39
 11
-2.59067
 21
37.5587
  0
LINE
  8
0
 10
-2.59067
 20
37.5587
 11
-2.86128
 21
36.1401
  0
LINE
  8
0
 10
-2.86128
 20
36.1401
 11
-3.30756
 21
34.7666
  0
LINE
  8
0
 10
-3.30756
 20
34.7666
 11
-3.92247
 21
33.4598
  0
LINE
  8
0
 10
-3.92247
 20
33.4598
 11
-4.6963
 21
32.2405
  0
LINE
  8
0
 10
-4.6963
 20
32.2405
 11
-5.61685
 21
31.1277
  0
LINE
  8
0
 10
-5.61685
 20
31.1277
 11
-6.66962
 21
30.1391
  0
LINE
  8
0
 10
-6.66962
 20
30.1391
 11
-7.83798
 21
29.2902
  0
LINE
  8
0
 10
-7.83798
 20
29.2902
 11
-9.10353
 21
28.5945
  0
LINE
  8
0
 10
-9.10353
 20
28.5945
 11
-10.4463
 21
28.0629
  0
LINE
  8
0
 10
-10.4463
 20
28.0629
 11
-11.8451
 21
27.7037
  0
LINE
  8
0
 10
-11.8451
 20
27.7037
 11
-13.2779
 21
27.5227
  0
LINE
  8
0
 10
-13.2779
 20
27.5227
 11
-14.7221
 21
27.5227
  0
LINE
  8
0
 10
13.2779
 20
27.5227
 11
11.8451
 21
27.7037
  0
LINE
  8
0
 10
11.8451
 20
27.7037
 11
10.4463
 21
28.0629
  0
LINE
  8
0
 10
10.4463
 20
28.0629
 11
9.10353
 21
28.5945
  0
LINE
  8
0
 10
9.10353
 20
28.5945
 11
7.83798
 21
29.2902
  0
LINE
  8
0
 10
7.83798
 20
29.2902
 11
6.66962
 21
30.1391
  0
LINE
  8
0
 10
6.66962
 20
30.1391
 11
5.61685
 21
31.1277
  0
LINE
  8
0
 10
5.61685
 20
31.1277
 11
4.6963
 21
32.2405
  0
LINE
  8
0
 10
4.6963
 20
32.2405
 11
3.92247
 21
33.4598
  0
LINE
  8
0
 10
3.92247
 20
33.4598
 11
3.30756
 21
34.7666
  0
LINE
  8
0
 10
3.30756
 20
34.7666
 11
2.86128
 21
36.1401
  0
LINE
  8
0
 10
2.86128
 20
36.1401
 11
2.59067
 21
37.5587
  0
LINE
  8
0
 10
2.59067
 20
37.5587
 11
2.5
 21
39
  0
LINE
  8
0
 10
2.5
 20
39
 11
2.59067
 21
40.4413
  0
LINE
  8
0
 10
2.59067
 20
40.4413
 11
2.86128
 21
41.8599
  0
LINE
  8
0
 10
2.86128
 20
41.8599
 11
3.30756
 21
43.2334
  0
LINE
  8
0
 10
3.30756
 20
43.2334
 11
3.92247
 21
44.5402
  0
LINE
  8
0
 10
3.92247
 20
44.5402
 11
4.6963
 21
45.7595
  0
LINE
  8
0
 10
4.6963
 20
45.7595
 11
5.61685
 21
46.8723
  0
LINE
  8
0
 10
5.61685
 20
46.8723
 11
6.66962
 21
47.8609
  0
LINE
  8
0
 10
6.66962
 20
47.8609
 11
7.83798
 21
48.7098
  0
LINE
  8
0
 10
7.83798
 20
48.7098
 11
9.10353
 21
49.4055
  0
LINE
  8
0
 10
9.10353
 20
49.4055
 11
10.4463
 21
49.9371
  0
LINE
  8
0
 10
10.4463
 20
49.9371
 11
11.8451
 21
50.2963
  0
LINE
  8
0
 10
11.8451
 20
50.2963
 11
13.2779
 21
50.4773
  0
LINE
  8
0
 10
13.2779
 20
50.4773
 11
14.7221
 21
50.4773
  0
LINE
  8
0
 10
14.7221
 20
50.4773
 11
16.1549
 21
50.2963
  0
LINE
  8
0
 10
16.1549
 20
50.2963
 11
17.5537
 21
49.9371
  0
LINE
  8
0
 10
17.5537
 20
49.9371
 11
18.8965
 21
49.4055
  0
LINE
  8
0
 10
18.8965
 20
49.4055
 11
20.162
 21
48.7098
  0
LINE
  8
0
 10
20.162
 20
48.7098
 11
20.3409
 21
48.5798
  0
LINE
  8
0
 10
20.3409
 20
48.5798
 11
20.5877
 21
48.8115
  0
LINE
  8
0
 10
20.5877
 20
48.8115
 11
20.8925
 21
49.033
  0
LINE
  8
0
 10
20.8925
 20
49.033
 11
21.2227
 21
49.2145
  0
LINE
  8
0
 10
21.2227
 20
49.2145
 11
21.5729
 21
49.3532
  0
LINE
  8
0
 10
21.5729
 20
49.3532
 11
21.9379
 21
49.4469
  0
LINE
  8
0
 10
21.9379
 20
49.4469
 11
22.3116
 21
49.4941
  0
LINE
  8
0
 10
22.3116
 20
49.4941
 11
22.6884
 21
49.4941
  0
LINE
  8
0
 10
22.6884
 20
49.4941
 11
23.0621
 21
49.4469
  0
LINE
  8
0
 10
23.0621
 20
49.4469
 11
23.427
 21
49.3532
  0
LINE
  8
0
 10
23.427
 20
49.3532
 11
23.7773
 21
49.2145
  0
LINE
  8
0
 10
23.7773
 20
49.2145
 11
24.1075
 21
49.033
  0
LINE
  8
0
 10
24.1075
 20
49.033
 11
24.4123
 21
48.8115
  0
LINE
  8
0
 10
24.4123
 20
48.8115
 11
24.6869
 21
48.5536
  0
LINE
  8
0
 10
24.6869
 20
48.5536
 11
24.927
 21
48.2634
  0
LINE
  8
0
 10
24.927
 20
48.2634
 11
25.1289
 21
47.9453
  0
LINE
  8
0
 10
25.1289
 20
47.9453
 11
25.2893
 21
47.6044
  0
LINE
  8
0
 10
25.2893
 20
47.6044
 11
25.4057
 21
47.2461
  0
LINE
  8
0
 10
25.4057
 20
47.2461
 11
25.4763
 21
46.876
  0
LINE
  8
0
 10
25.4763
 20
46.876
 11
25.5
 21
46.5
  0
LINE
  8
0
 10
25.5
 20
46.5
 11
25.4763
 21
46.124
  0
LINE
  8
0
 10
25.4763
 20
46.124
 11
25.4057
 21
45.7539
  0
LINE
  8
0
 10
25.4057
 20
45.7539
 11
25.2893
 21
45.3956
  0
LINE
  8
0
 10
25.2893
 20
45.3956
 11
25.1289
 21
45.0547
  0
LINE
  8
0
 10
25.1289
 20
45.0547
 11
24.927
 21
44.7366
  0
LINE
  8
0
 10
24.927
 20
44.7366
 11
24.6869
 21
44.4464
  0
LINE
  8
0
 10
24.6869
 20
44.4464
 11
24.4123
 21
44.1884
  0
LINE
  8
0
 10
24.4123
 20
44.1884
 11
24.2861
 21
44.0968
  0
LINE
  8
0
 10
24.2861
 20
44.0968
 11
24.6924
 21
43.2334
  0
LINE
  8
0
 10
24.6924
 20
43.2334
 11
25.1387
 21
41.8599
  0
LINE
  8
0
 10
25.1387
 20
41.8599
 11
25.4093
 21
40.4413
  0
LINE
  8
0
 10
25.4093
 20
40.4413
 11
25.5
 21
39
  0
LINE
  8
0
 10
25.5
 20
39
 11
25.4093
 21
37.5587
  0
LINE
  8
0
 10
25.4093
 20
37.5587
 11
25.1387
 21
36.1401
  0
LINE
  8
0
 10
25.1387
 20
36.1401
 11
24.6924
 21
34.7666
  0
LINE
  8
0
 10
24.6924
 20
34.7666
 11
24.2861
 21
33.9032
  0
LINE
  8
0
 10
24.2861
 20
33.9032
 11
24.4123
 21
33.8116
  0
LINE
  8
0
 10
24.4123
 20
33.8116
 11
24.6869
 21
33.5536
  0
LINE
  8
0
 10
24.6869
 20
33.5536
 11
24.927
 21
33.2634
  0
LINE
  8
0
 10
24.927
 20
33.2634
 11
25.1289
 21
32.9453
  0
LINE
  8
0
 10
25.1289
 20
32.9453
 11
25.2893
 21
32.6044
  0
LINE
  8
0
 10
25.2893
 20
32.6044
 11
25.4057
 21
32.2461
  0
LINE
  8
0
 10
25.4057
 20
32.2461
 11
25.4763
 21
31.876
  0
LINE
  8
0
 10
25.4763
 20
31.876
 11
25.5
 21
31.5
  0
LINE
  8
0
 10
25.5
 20
31.5
 11
25.4763
 21
31.124
  0
LINE
  8
0
 10
25.4763
 20
31.124
 11
25.4057
 21
30.7539
  0
LINE
  8
0
 10
25.4057
 20
30.7539
 11
25.2893
 21
30.3956
  0
LINE
  8
0
 10
25.2893
 20
30.3956
 11
25.1289
 21
30.0547
  0
LINE
  8
0
 10
25.1289
 20
30.0547
 11
24.927
 21
29.7366
  0
LINE
  8
0
 10
24.927
 20
29.7366
 11
24.6869
 21
29.4464
  0
LINE
  8
0
 10
24.6869
 20
29.4464
 11
24.4123
 21
29.1885
  0
LINE
  8
0
 10
24.4123
 20
29.1885
 11
24.1075
 21
28.967
  0
LINE
  8
0
 10
24.1075
 20
28.967
 11
23.7773
 21
28.7855
  0
LINE
  8
0
 10
23.7773
 20
28.7855
 11
23.427
 21
28.6468
  0
LINE
  8
0
 10
23.427
 20
28.6468
 11
23.0621
 21
28.5531
  0
LINE
  8
0
 10
23.0621
 20
28.5531
 11
22.6884
 21
28.5059
  0
LINE
  8
0
 10
22.6884
 20
28.5059
 11
22.3116
 21
28.5059
  0
LINE
  8
0
 10
22.3116
 20
28.5059
 11
21.9379
 21
28.5531
  0
LINE
  8
0
 10
21.9379
 20
28.5531
 11
21.5729
 21
28.6468
  0
LINE
  8
0
 10
21.5729
 20
28.6468
 11
21.2227
 21
28.7855
  0
LINE
  8
0
 10
21.2227
 20
28.7855
 11
20.8925
 21
28.967
  0
LINE
  8
0
 10
20.8925
 20
28.967
 11
20.5877
 21
29.1885
  0
LINE
  8
0
 10
20.5877
 20
29.1885
 11
20.3409
 21
29.4202
  0
LINE
  8
0
 10
20.3409
 20
29.4202
 11
20.162
 21
29.2902
  0
LINE
  8
0
 10
20.162
 20
29.2902
 11
18.8965
 21
28.5945
  0
LINE
  8
0
 10
18.8965
 20
28.5945
 11
17.5537
 21
28.0629
  0
LINE
  8
0
 10
17.5537
 20
28.0629
 11
16.1549
 21
27.7037
  0
LINE
  8
0
 10
16.1549
 20
27.7037
 11
14.7221
 21
27.5227
  0
LINE
  8
0
 10
14.7221
 20
27.5227
 11
13.2779
 21
27.5227
  0
ENDSEC
  0
SECTION
  2
OBJECTS
  0
DICTIONARY
  0
ENDSEC
  0
EOF
