<?xml version="1.0" standalone="no"?>
<!DOCTYPE svg PUBLIC "-//W3C//DTD SVG 1.1//EN" "http://www.w3.org/Graphics/SVG/1.1/DTD/svg11.dtd">
<svg width="180mm" height="44mm" viewBox="-90 -76 180 44" xmlns="http://www.w3.org/2000/svg" version="1.1">
<title>OpenSCAD Model</title>
<path d="
M 85.4369,-32.0886 L 86.0451,-32.2447 L 86.6289,-32.4759 L 87.1791,-32.7784 L 87.6871,-33.1474 L 88.1448,-33.5773
 L 88.5451,-34.0611 L 88.8815,-34.5912 L 89.1489,-35.1594 L 89.3429,-35.7566 L 89.4606,-36.3733 L 89.5,-37
 L 89.5,-71 L 89.4606,-71.6267 L 89.3429,-72.2434 L 89.1489,-72.8406 L 88.8815,-73.4088 L 88.5451,-73.9389
 L 88.1448,-74.4227 L 87.6871,-74.8526 L 87.1791,-75.2216 L 86.6289,-75.5241 L 86.0451,-75.7553 L 85.4369,-75.9114
 L 84.8139,-75.9901 L -84.8139,-75.9901 L -85.4369,-75.9114 L -86.0451,-75.7553 L -86.6289,-75.5241 L -87.1791,-75.2216
 L -87.6871,-74.8526 L -88.1448,-74.4227 L -88.5451,-73.9389 L -88.8815,-73.4088 L -89.1489,-72.8406 L -89.3429,-72.2434
 L -89.4606,-71.6267 L -89.5,-71 L -89.5,-37 L -89.4606,-36.3733 L -89.3429,-35.7566 L -89.1489,-35.1594
 L -88.8815,-34.5912 L -88.5451,-34.0611 L -88.1448,-33.5773 L -87.6871,-33.1474 L -87.1791,-32.7784 L -86.6289,-32.4759
 L -86.0451,-32.2447 L -85.4369,-32.0886 L -84.8139,-32.0099 L 84.8139,-32.0099 z
M -82.6884,-66.0059 L -83.0621,-66.0531 L -83.427,-66.1468 L -83.7773,-66.2855 L -84.1075,-66.467 L -84.4123,-66.6884
 L -84.6869,-66.9464 L -84.927,-67.2366 L -85.1289,-67.5547 L -85.2893,-67.8956 L -85.4057,-68.2539 L -85.4763,-68.624
 L -85.5,-69 L -85.4763,-69.376 L -85.4057,-69.7461 L -85.2893,-70.1044 L -85.1289,-70.4453 L -84.927,-70.7634
 L -84.6869,-71.0536 L -84.4123,-71.3115 L -84.1075,-71.533 L -83.7773,-71.7145 L -83.427,-71.8532 L -83.0621,-71.9469
 L -82.6884,-71.9941 L -82.3116,-71.9941 L -81.9379,-71.9469 L -81.573,-71.8532 L -81.2227,-71.7145 L -80.8925,-71.533
 L -80.5877,-71.3115 L -80.3131,-71.0536 L -80.073,-70.7634 L -79.8711,-70.4453 L -79.7107,-70.1044 L -79.5943,-69.7461
 L -79.5237,-69.376 L -79.5,-69 L -79.5237,-68.624 L -79.5943,-68.2539 L -79.7107,-67.8956 L -79.8711,-67.5547
 L -80.073,-67.2366 L -80.3131,-66.9464 L -80.5877,-66.6884 L -80.8925,-66.467 L -81.2227,-66.2855 L -81.573,-66.1468
 L -81.9379,-66.0531 L -82.3116,-66.0059 z
M 82.3116,-66.0059 L 81.9379,-66.0531 L 81.573,-66.1468 L 81.2227,-66.2855 L 80.8925,-66.467 L 80.5877,-66.6884
 L 80.3131,-66.9464 L 80.073,-67.2366 L 79.8711,-67.5547 L 79.7107,-67.8956 L 79.5943,-68.2539 L 79.5237,-68.624
 L 79.5,-69 L 79.5237,-69.376 L 79.5943,-69.7461 L 79.7107,-70.1044 L 79.8711,-70.4453 L 80.073,-70.7634
 L 80.3131,-71.0536 L 80.5877,-71.3115 L 80.8925,-71.533 L 81.2227,-71.7145 L 81.573,-71.8532 L 81.9379,-71.9469
 L 82.3116,-71.9941 L 82.6884,-71.9941 L 83.0621,-71.9469 L 83.427,-71.8532 L 83.7773,-71.7145 L 84.1075,-71.533
 L 84.4123,-71.3115 L 84.6869,-71.0536 L 84.927,-70.7634 L 85.1289,-70.4453 L 85.2893,-70.1044 L 85.4057,-69.7461
 L 85.4763,-69.376 L 85.5,-69 L 85.4763,-68.624 L 85.4057,-68.2539 L 85.2893,-67.8956 L 85.1289,-67.5547
 L 84.927,-67.2366 L 84.6869,-66.9464 L 84.4123,-66.6884 L 84.1075,-66.467 L 83.7773,-66.2855 L 83.427,-66.1468
 L 83.0621,-66.0531 L 82.6884,-66.0059 z
M 33.0895,-39.5286 L 31.283,-39.7568 L 29.5192,-40.2097 L 27.8262,-40.88 L 26.2305,-41.7572 L 24.7573,-42.8276
 L 23.4299,-44.0741 L 22.2692,-45.4771 L 21.2935,-47.0146 L 20.5182,-48.6622 L 19.9555,-50.394 L 19.6143,-52.1827
 L 19.5,-54 L 19.6143,-55.8173 L 19.9555,-57.606 L 20.5182,-59.3378 L 21.2935,-60.9854 L 22.2692,-62.5229
 L 23.4299,-63.9259 L 24.7573,-65.1724 L 26.2305,-66.2428 L 27.8262,-67.12 L 29.5192,-67.7903 L 31.283,-68.2432
 L 33.0895,-68.4714 L 34.9105,-68.4714 L 36.717,-68.2432 L 38.4807,-67.7903 L 40.1738,-67.12 L 41.7695,-66.2428
 L 43.2426,-65.1724 L 44.57,-63.9259 L 45.7307,-62.5229 L 46.7064,-60.9854 L 47.4818,-59.3378 L 48.0444,-57.606
 L 48.3857,-55.8173 L 48.5,-54 L 48.3857,-52.1827 L 48.0444,-50.394 L 47.4818,-48.6622 L 46.7064,-47.0146
 L 45.7307,-45.4771 L 44.57,-44.0741 L 43.2426,-42.8276 L 41.7695,-41.7572 L 40.1738,-40.88 L 38.4807,-40.2097
 L 36.717,-39.7568 L 34.9105,-39.5286 z
M -68.9105,-39.5286 L -70.717,-39.7568 L -72.4807,-40.2097 L -74.1738,-40.88 L -75.7695,-41.7572 L -77.2426,-42.8276
 L -78.57,-44.0741 L -79.7307,-45.4771 L -80.7064,-47.0146 L -81.4818,-48.6622 L -82.0444,-50.394 L -82.3857,-52.1827
 L -82.5,-54 L -82.3857,-55.8173 L -82.0444,-57.606 L -81.4818,-59.3378 L -80.7064,-60.9854 L -79.7307,-62.5229
 L -78.57,-63.9259 L -77.2426,-65.1724 L -75.7695,-66.2428 L -74.1738,-67.12 L -72.4807,-67.7903 L -70.717,-68.2432
 L -68.9105,-68.4714 L -67.0895,-68.4714 L -65.283,-68.2432 L -63.5192,-67.7903 L -61.8262,-67.12 L -60.2305,-66.2428
 L -58.7573,-65.1724 L -57.4299,-63.9259 L -56.2692,-62.5229 L -55.2935,-60.9854 L -54.5182,-59.3378 L -53.9555,-57.606
 L -53.6143,-55.8173 L -53.5,-54 L -53.6143,-52.1827 L -53.9555,-50.394 L -54.5182,-48.6622 L -55.2935,-47.0146
 L -56.2692,-45.4771 L -57.4299,-44.0741 L -58.7573,-42.8276 L -60.2305,-41.7572 L -61.8262,-40.88 L -63.5192,-40.2097
 L -65.283,-39.7568 L -67.0895,-39.5286 z
M -0.910461,-39.5286 L -2.71703,-39.7568 L -4.48074,-40.2097 L -6.1738,-40.88 L -7.76949,-41.7572 L -9.24265,-42.8276
 L -10.57,-44.0741 L -11.7307,-45.4771 L -12.7064,-47.0146 L -13.4818,-48.6622 L -14.0444,-50.394 L -14.3857,-52.1827
 L -14.5,-54 L -14.3857,-55.8173 L -14.0444,-57.606 L -13.4818,-59.3378 L -12.7064,-60.9854 L -11.7307,-62.5229
 L -10.57,-63.9259 L -9.24265,-65.1724 L -7.76949,-66.2428 L -6.1738,-67.12 L -4.48074,-67.7903 L -2.71703,-68.2432
 L -0.910461,-68.4714 L 0.910461,-68.4714 L 2.71703,-68.2432 L 4.48074,-67.7903 L 6.1738,-67.12 L 7.76949,-66.2428
 L 9.24265,-65.1724 L 10.57,-63.9259 L 11.7307,-62.5229 L 12.7064,-60.9854 L 13.4818,-59.3378 L 14.0444,-57.606
 L 14.3857,-55.8173 L 14.5,-54 L 14.3857,-52.1827 L 14.0444,-50.394 L 13.4818,-48.6622 L 12.7064,-47.0146
 L 11.7307,-45.4771 L 10.57,-44.0741 L 9.24265,-42.8276 L 7.76949,-41.7572 L 6.1738,-40.88 L 4.48074,-40.2097
 L 2.71703,-39.7568 L 0.910461,-39.5286 z
M -34.9105,-39.5286 L -36.717,-39.7568 L -38.4807,-40.2097 L -40.1738,-40.88 L -41.7695,-41.7572 L -43.2426,-42.8276
 L -44.57,-44.0741 L -45.7307,-45.4771 L -46.7064,-47.0146 L -47.4818,-48.6622 L -48.0444,-50.394 L -48.3857,-52.1827
 L -48.5,-54 L -48.3857,-55.8173 L -48.0444,-57.606 L -47.4818,-59.3378 L -46.7064,-60.9854 L -45.7307,-62.5229
 L -44.57,-63.9259 L -43.2426,-65.1724 L -41.7695,-66.2428 L -40.1738,-67.12 L -38.4807,-67.7903 L -36.717,-68.2432
 L -34.9105,-68.4714 L -33.0895,-68.4714 L -31.283,-68.2432 L -29.5192,-67.7903 L -27.8262,-67.12 L -26.2305,-66.2428
 L -24.7573,-65.1724 L -23.4299,-63.9259 L -22.2692,-62.5229 L -21.2935,-60.9854 L -20.5182,-59.3378 L -19.9555,-57.606
 L -19.6143,-55.8173 L -19.5,-54 L -19.6143,-52.1827 L -19.9555,-50.394 L -20.5182,-48.6622 L -21.2935,-47.0146
 L -22.2692,-45.4771 L -23.4299,-44.0741 L -24.7573,-42.8276 L -26.2305,-41.7572 L -27.8262,-40.88 L -29.5192,-40.2097
 L -31.283,-39.7568 L -33.0895,-39.5286 z
M 67.0895,-39.5286 L 65.283,-39.7568 L 63.5192,-40.2097 L 61.8262,-40.88 L 60.2305,-41.7572 L 58.7573,-42.8276
 L 57.4299,-44.0741 L 56.2692,-45.4771 L 55.2935,-47.0146 L 54.5182,-48.6622 L 53.9555,-50.394 L 53.6143,-52.1827
 L 53.5,-54 L 53.6143,-55.8173 L 53.9555,-57.606 L 54.5182,-59.3378 L 55.2935,-60.9854 L 56.2692,-62.5229
 L 57.4299,-63.9259 L 58.7573,-65.1724 L 60.2305,-66.2428 L 61.8262,-67.12 L 63.5192,-67.7903 L 65.283,-68.2432
 L 67.0895,-68.4714 L 68.9105,-68.4714 L 70.717,-68.2432 L 72.4807,-67.7903 L 74.1738,-67.12 L 75.7695,-66.2428
 L 77.2426,-65.1724 L 78.57,-63.9259 L 79.7307,-62.5229 L 80.7064,-60.9854 L 81.4818,-59.3378 L 82.0444,-57.606
 L 82.3857,-55.8173 L 82.5,-54 L 82.3857,-52.1827 L 82.0444,-50.394 L 81.4818,-48.6622 L 80.7064,-47.0146
 L 79.7307,-45.4771 L 78.57,-44.0741 L 77.2426,-42.8276 L 75.7695,-41.7572 L 74.1738,-40.88 L 72.4807,-40.2097
 L 70.717,-39.7568 L 68.9105,-39.5286 z
M 82.3116,-36.0059 L 81.9379,-36.0531 L 81.573,-36.1468 L 81.2227,-36.2855 L 80.8925,-36.467 L 80.5877,-36.6885
 L 80.3131,-36.9464 L 80.073,-37.2366 L 79.8711,-37.5547 L 79.7107,-37.8956 L 79.5943,-38.2539 L 79.5237,-38.624
 L 79.5,-39 L 79.5237,-39.376 L 79.5943,-39.7461 L 79.7107,-40.1044 L 79.8711,-40.4453 L 80.073,-40.7634
 L 80.3131,-41.0536 L 80.5877,-41.3116 L 80.8925,-41.533 L 81.2227,-41.7145 L 81.573,-41.8532 L 81.9379,-41.9469
 L 82.3116,-41.9941 L 82.6884,-41.9941 L 83.0621,-41.9469 L 83.427,-41.8532 L 83.7773,-41.7145 L 84.1075,-41.533
 L 84.4123,-41.3116 L 84.6869,-41.0536 L 84.927,-40.7634 L 85.1289,-40.4453 L 85.2893,-40.1044 L 85.4057,-39.7461
 L 85.4763,-39.376 L 85.5,-39 L 85.4763,-38.624 L 85.4057,-38.2539 L 85.2893,-37.8956 L 85.1289,-37.5547
 L 84.927,-37.2366 L 84.6869,-36.9464 L 84.4123,-36.6885 L 84.1075,-36.467 L 83.7773,-36.2855 L 83.427,-36.1468
 L 83.0621,-36.0531 L 82.6884,-36.0059 z
M -82.6884,-36.0059 L -83.0621,-36.0531 L -83.427,-36.1468 L -83.7773,-36.2855 L -84.1075,-36.467 L -84.4123,-36.6885
 L -84.6869,-36.9464 L -84.927,-37.2366 L -85.1289,-37.5547 L -85.2893,-37.8956 L -85.4057,-38.2539 L -85.4763,-38.624
 L -85.5,-39 L -85.4763,-39.376 L -85.4057,-39.7461 L -85.2893,-40.1044 L -85.1289,-40.4453 L -84.927,-40.7634
 L -84.6869,-41.0536 L -84.4123,-41.3116 L -84.1075,-41.533 L -83.7773,-41.7145 L -83.427,-41.8532 L -83.0621,-41.9469
 L -82.6884,-41.9941 L -82.3116,-41.9941 L -81.9379,-41.9469 L -81.573,-41.8532 L -81.2227,-41.7145 L -80.8925,-41.533
 L -80.5877,-41.3116 L -80.3131,-41.0536 L -80.073,-40.7634 L -79.8711,-40.4453 L -79.7107,-40.1044 L -79.5943,-39.7461
 L -79.5237,-39.376 L -79.5,-39 L -79.5237,-38.624 L -79.5943,-38.2539 L -79.7107,-37.8956 L -79.8711,-37.5547
 L -80.073,-37.2366 L -80.3131,-36.9464 L -80.5877,-36.6885 L -80.8925,-36.467 L -81.2227,-36.2855 L -81.573,-36.1468
 L -81.9379,-36.0531 L -82.3116,-36.0059 z
" stroke="black" fill="lightgray" stroke-width="0.5"/>
</svg>
