  0
SECTION
  2
BLOCKS
  0
ENDSEC
  0
SECTION
  2
ENTITIES
  0
LINE
  8
0
 10
10.4369
 20
-14.4114
 11
11.0451
 21
-14.2553
  0
LINE
  8
0
 10
11.0451
 20
-14.2553
 11
11.6289
 21
-14.0241
  0
LINE
  8
0
 10
11.6289
 20
-14.0241
 11
12.1791
 21
-13.7216
  0
LINE
  8
0
 10
12.1791
 20
-13.7216
 11
12.6871
 21
-13.3526
  0
LINE
  8
0
 10
12.6871
 20
-13.3526
 11
13.1448
 21
-12.9227
  0
LINE
  8
0
 10
13.1448
 20
-12.9227
 11
13.5451
 21
-12.4389
  0
LINE
  8
0
 10
13.5451
 20
-12.4389
 11
13.8815
 21
-11.9088
  0
LINE
  8
0
 10
13.8815
 20
-11.9088
 11
14.1489
 21
-11.3406
  0
LINE
  8
0
 10
14.1489
 20
-11.3406
 11
14.3429
 21
-10.7434
  0
LINE
  8
0
 10
14.3429
 20
-10.7434
 11
14.4606
 21
-10.1267
  0
LINE
  8
0
 10
14.4606
 20
-10.1267
 11
14.5
 21
-9.5
  0
LINE
  8
0
 10
14.5
 20
-9.5
 11
14.5
 21
9.5
  0
LINE
  8
0
 10
14.5
 20
9.5
 11
14.4606
 21
10.1267
  0
LINE
  8
0
 10
14.4606
 20
10.1267
 11
14.3429
 21
10.7434
  0
LINE
  8
0
 10
14.3429
 20
10.7434
 11
14.1489
 21
11.3406
  0
LINE
  8
0
 10
14.1489
 20
11.3406
 11
13.8815
 21
11.9088
  0
LINE
  8
0
 10
13.8815
 20
11.9088
 11
13.5451
 21
12.4389
  0
LINE
  8
0
 10
13.5451
 20
12.4389
 11
13.1448
 21
12.9227
  0
LINE
  8
0
 10
13.1448
 20
12.9227
 11
12.6871
 21
13.3526
  0
LINE
  8
0
 10
12.6871
 20
13.3526
 11
12.1791
 21
13.7216
  0
LINE
  8
0
 10
12.1791
 20
13.7216
 11
11.6289
 21
14.0241
  0
LINE
  8
0
 10
11.6289
 20
14.0241
 11
11.0451
 21
14.2553
  0
LINE
  8
0
 10
11.0451
 20
14.2553
 11
10.4369
 21
14.4114
  0
LINE
  8
0
 10
10.4369
 20
14.4114
 11
9.81395
 21
14.4901
  0
LINE
  8
0
 10
9.81395
 20
14.4901
 11
-9.81395
 21
14.4901
  0
LINE
  8
0
 10
-9.81395
 20
14.4901
 11
-10.4369
 21
14.4114
  0
LINE
  8
0
 10
-10.4369
 20
14.4114
 11
-11.0451
 21
14.2553
  0
LINE
  8
0
 10
-11.0451
 20
14.2553
 11
-11.6289
 21
14.0241
  0
LINE
  8
0
 10
-11.6289
 20
14.0241
 11
-12.1791
 21
13.7216
  0
LINE
  8
0
 10
-12.1791
 20
13.7216
 11
-12.6871
 21
13.3526
  0
LINE
  8
0
 10
-12.6871
 20
13.3526
 11
-13.1448
 21
12.9227
  0
LINE
  8
0
 10
-13.1448
 20
12.9227
 11
-13.5451
 21
12.4389
  0
LINE
  8
0
 10
-13.5451
 20
12.4389
 11
-13.8815
 21
11.9088
  0
LINE
  8
0
 10
-13.8815
 20
11.9088
 11
-14.1489
 21
11.3406
  0
LINE
  8
0
 10
-14.1489
 20
11.3406
 11
-14.3429
 21
10.7434
  0
LINE
  8
0
 10
-14.3429
 20
10.7434
 11
-14.4606
 21
10.1267
  0
LINE
  8
0
 10
-14.4606
 20
10.1267
 11
-14.5
 21
9.5
  0
LINE
  8
0
 10
-14.5
 20
9.5
 11
-14.5
 21
-9.5
  0
LINE
  8
0
 10
-14.5
 20
-9.5
 11
-14.4606
 21
-10.1267
  0
LINE
  8
0
 10
-14.4606
 20
-10.1267
 11
-14.3429
 21
-10.7434
  0
LINE
  8
0
 10
-14.3429
 20
-10.7434
 11
-14.1489
 21
-11.3406
  0
LINE
  8
0
 10
-14.1489
 20
-11.3406
 11
-13.8815
 21
-11.9088
  0
LINE
  8
0
 10
-13.8815
 20
-11.9088
 11
-13.5451
 21
-12.4389
  0
LINE
  8
0
 10
-13.5451
 20
-12.4389
 11
-13.1448
 21
-12.9227
  0
LINE
  8
0
 10
-13.1448
 20
-12.9227
 11
-12.6871
 21
-13.3526
  0
LINE
  8
0
 10
-12.6871
 20
-13.3526
 11
-12.1791
 21
-13.7216
  0
LINE
  8
0
 10
-12.1791
 20
-13.7216
 11
-11.6289
 21
-14.0241
  0
LINE
  8
0
 10
-11.6289
 20
-14.0241
 11
-11.0451
 21
-14.2553
  0
LINE
  8
0
 10
-11.0451
 20
-14.2553
 11
-10.4369
 21
-14.4114
  0
LINE
  8
0
 10
-10.4369
 20
-14.4114
 11
-9.81395
 21
-14.4901
  0
LINE
  8
0
 10
-9.81395
 20
-14.4901
 11
9.81395
 21
-14.4901
  0
LINE
  8
0
 10
9.81395
 20
-14.4901
 11
10.4369
 21
-14.4114
  0
LINE
  8
0
 10
-7.68837
 20
-10.4941
 11
-8.06213
 21
-10.4469
  0
LINE
  8
0
 10
-8.06213
 20
-10.4469
 11
-8.42705
 21
-10.3532
  0
LINE
  8
0
 10
-8.42705
 20
-10.3532
 11
-8.77733
 21
-10.2145
  0
LINE
  8
0
 10
-8.77733
 20
-10.2145
 11
-9.10747
 21
-10.033
  0
LINE
  8
0
 10
-9.10747
 20
-10.033
 11
-9.41226
 21
-9.81154
  0
LINE
  8
0
 10
-9.41226
 20
-9.81154
 11
-9.6869
 21
-9.55363
  0
LINE
  8
0
 10
-9.6869
 20
-9.55363
 11
-9.92705
 21
-9.26335
  0
LINE
  8
0
 10
-9.92705
 20
-9.26335
 11
-10.1289
 21
-8.94525
  0
LINE
  8
0
 10
-10.1289
 20
-8.94525
 11
-10.2893
 21
-8.60437
  0
LINE
  8
0
 10
-10.2893
 20
-8.60437
 11
-10.4057
 21
-8.24606
  0
LINE
  8
0
 10
-10.4057
 20
-8.24606
 11
-10.4763
 21
-7.87599
  0
LINE
  8
0
 10
-10.4763
 20
-7.87599
 11
-10.5
 21
-7.5
  0
LINE
  8
0
 10
-10.5
 20
-7.5
 11
-10.4763
 21
-7.12399
  0
LINE
  8
0
 10
-10.4763
 20
-7.12399
 11
-10.4057
 21
-6.75392
  0
LINE
  8
0
 10
-10.4057
 20
-6.75392
 11
-10.2893
 21
-6.39561
  0
LINE
  8
0
 10
-10.2893
 20
-6.39561
 11
-10.1289
 21
-6.05473
  0
LINE
  8
0
 10
-10.1289
 20
-6.05473
 11
-9.92705
 21
-5.73663
  0
LINE
  8
0
 10
-9.92705
 20
-5.73663
 11
-9.6869
 21
-5.44635
  0
LINE
  8
0
 10
-9.6869
 20
-5.44635
 11
-9.41226
 21
-5.18845
  0
LINE
  8
0
 10
-9.41226
 20
-5.18845
 11
-9.20938
 21
-5.04105
  0
LINE
  8
0
 10
-9.20938
 20
-5.04105
 11
-9.76265
 21
-3.8653
  0
LINE
  8
0
 10
-9.76265
 20
-3.8653
 11
-10.1701
 21
-2.61124
  0
LINE
  8
0
 10
-10.1701
 20
-2.61124
 11
-10.4172
 21
-1.31599
  0
LINE
  8
0
 10
-10.4172
 20
-1.31599
 11
-10.5
 21
0
  0
LINE
  8
0
 10
-10.5
 20
0
 11
-10.4172
 21
1.31599
  0
LINE
  8
0
 10
-10.4172
 20
1.31599
 11
-10.1701
 21
2.61124
  0
LINE
  8
0
 10
-10.1701
 20
2.61124
 11
-9.76265
 21
3.8653
  0
LINE
  8
0
 10
-9.76265
 20
3.8653
 11
-9.20938
 21
5.04105
  0
LINE
  8
0
 10
-9.20938
 20
5.04105
 11
-9.41226
 21
5.18845
  0
LINE
  8
0
 10
-9.41226
 20
5.18845
 11
-9.6869
 21
5.44635
  0
LINE
  8
0
 10
-9.6869
 20
5.44635
 11
-9.92705
 21
5.73663
  0
LINE
  8
0
 10
-9.92705
 20
5.73663
 11
-10.1289
 21
6.05473
  0
LINE
  8
0
 10
-10.1289
 20
6.05473
 11
-10.2893
 21
6.39561
  0
LINE
  8
0
 10
-10.2893
 20
6.39561
 11
-10.4057
 21
6.75392
  0
LINE
  8
0
 10
-10.4057
 20
6.75392
 11
-10.4763
 21
7.12399
  0
LINE
  8
0
 10
-10.4763
 20
7.12399
 11
-10.5
 21
7.5
  0
LINE
  8
0
 10
-10.5
 20
7.5
 11
-10.4763
 21
7.87599
  0
LINE
  8
0
 10
-10.4763
 20
7.87599
 11
-10.4057
 21
8.24606
  0
LINE
  8
0
 10
-10.4057
 20
8.24606
 11
-10.2893
 21
8.60437
  0
LINE
  8
0
 10
-10.2893
 20
8.60437
 11
-10.1289
 21
8.94525
  0
LINE
  8
0
 10
-10.1289
 20
8.94525
 11
-9.92705
 21
9.26335
  0
LINE
  8
0
 10
-9.92705
 20
9.26335
 11
-9.6869
 21
9.55363
  0
LINE
  8
0
 10
-9.6869
 20
9.55363
 11
-9.41226
 21
9.81154
  0
LINE
  8
0
 10
-9.41226
 20
9.81154
 11
-9.10747
 21
10.033
  0
LINE
  8
0
 10
-9.10747
 20
10.033
 11
-8.77733
 21
10.2145
  0
LINE
  8
0
 10
-8.77733
 20
10.2145
 11
-8.42705
 21
10.3532
  0
LINE
  8
0
 10
-8.42705
 20
10.3532
 11
-8.06213
 21
10.4469
  0
LINE
  8
0
 10
-8.06213
 20
10.4469
 11
-7.68837
 21
10.4941
  0
LINE
  8
0
 10
-7.68837
 20
10.4941
 11
-7.31161
 21
10.4941
  0
LINE
  8
0
 10
-7.31161
 20
10.4941
 11
-6.93785
 21
10.4469
  0
LINE
  8
0
 10
-6.93785
 20
10.4469
 11
-6.57294
 21
10.3532
  0
LINE
  8
0
 10
-6.57294
 20
10.3532
 11
-6.22266
 21
10.2145
  0
LINE
  8
0
 10
-6.22266
 20
10.2145
 11
-5.89252
 21
10.033
  0
LINE
  8
0
 10
-5.89252
 20
10.033
 11
-5.58772
 21
9.81154
  0
LINE
  8
0
 10
-5.58772
 20
9.81154
 11
-5.31308
 21
9.55363
  0
LINE
  8
0
 10
-5.31308
 20
9.55363
 11
-5.07294
 21
9.26335
  0
LINE
  8
0
 10
-5.07294
 20
9.26335
 11
-5.02882
 21
9.19383
  0
LINE
  8
0
 10
-5.02882
 20
9.19383
 11
-4.47067
 21
9.50067
  0
LINE
  8
0
 10
-4.47067
 20
9.50067
 11
-3.24467
 21
9.98608
  0
LINE
  8
0
 10
-3.24467
 20
9.98608
 11
-1.9675
 21
10.314
  0
LINE
  8
0
 10
-1.9675
 20
10.314
 11
-0.659286
 21
10.4793
  0
LINE
  8
0
 10
-0.659286
 20
10.4793
 11
0.659286
 21
10.4793
  0
LINE
  8
0
 10
0.659286
 20
10.4793
 11
1.9675
 21
10.314
  0
LINE
  8
0
 10
1.9675
 20
10.314
 11
3.24467
 21
9.98608
  0
LINE
  8
0
 10
3.24467
 20
9.98608
 11
4.47067
 21
9.50067
  0
LINE
  8
0
 10
4.47067
 20
9.50067
 11
5.02882
 21
9.19383
  0
LINE
  8
0
 10
5.02882
 20
9.19383
 11
5.07294
 21
9.26335
  0
LINE
  8
0
 10
5.07294
 20
9.26335
 11
5.31308
 21
9.55363
  0
LINE
  8
0
 10
5.31308
 20
9.55363
 11
5.58772
 21
9.81154
  0
LINE
  8
0
 10
5.58772
 20
9.81154
 11
5.89252
 21
10.033
  0
LINE
  8
0
 10
5.89252
 20
10.033
 11
6.22266
 21
10.2145
  0
LINE
  8
0
 10
6.22266
 20
10.2145
 11
6.57294
 21
10.3532
  0
LINE
  8
0
 10
6.57294
 20
10.3532
 11
6.93785
 21
10.4469
  0
LINE
  8
0
 10
6.93785
 20
10.4469
 11
7.31161
 21
10.4941
  0
LINE
  8
0
 10
7.31161
 20
10.4941
 11
7.68837
 21
10.4941
  0
LINE
  8
0
 10
7.68837
 20
10.4941
 11
8.06213
 21
10.4469
  0
LINE
  8
0
 10
8.06213
 20
10.4469
 11
8.42705
 21
10.3532
  0
LINE
  8
0
 10
8.42705
 20
10.3532
 11
8.77733
 21
10.2145
  0
LINE
  8
0
 10
8.77733
 20
10.2145
 11
9.10747
 21
10.033
  0
LINE
  8
0
 10
9.10747
 20
10.033
 11
9.41226
 21
9.81154
  0
LINE
  8
0
 10
9.41226
 20
9.81154
 11
9.6869
 21
9.55363
  0
LINE
  8
0
 10
9.6869
 20
9.55363
 11
9.92705
 21
9.26335
  0
LINE
  8
0
 10
9.92705
 20
9.26335
 11
10.1289
 21
8.94525
  0
LINE
  8
0
 10
10.1289
 20
8.94525
 11
10.2893
 21
8.60437
  0
LINE
  8
0
 10
10.2893
 20
8.60437
 11
10.4057
 21
8.24606
  0
LINE
  8
0
 10
10.4057
 20
8.24606
 11
10.4763
 21
7.87599
  0
LINE
  8
0
 10
10.4763
 20
7.87599
 11
10.5
 21
7.5
  0
LINE
  8
0
 10
10.5
 20
7.5
 11
10.4763
 21
7.12399
  0
LINE
  8
0
 10
10.4763
 20
7.12399
 11
10.4057
 21
6.75392
  0
LINE
  8
0
 10
10.4057
 20
6.75392
 11
10.2893
 21
6.39561
  0
LINE
  8
0
 10
10.2893
 20
6.39561
 11
10.1289
 21
6.05473
  0
LINE
  8
0
 10
10.1289
 20
6.05473
 11
9.92705
 21
5.73663
  0
LINE
  8
0
 10
9.92705
 20
5.73663
 11
9.6869
 21
5.44635
  0
LINE
  8
0
 10
9.6869
 20
5.44635
 11
9.41226
 21
5.18845
  0
LINE
  8
0
 10
9.41226
 20
5.18845
 11
9.20938
 21
5.04105
  0
LINE
  8
0
 10
9.20938
 20
5.04105
 11
9.76265
 21
3.8653
  0
LINE
  8
0
 10
9.76265
 20
3.8653
 11
10.1701
 21
2.61124
  0
LINE
  8
0
 10
10.1701
 20
2.61124
 11
10.4172
 21
1.31599
  0
LINE
  8
0
 10
10.4172
 20
1.31599
 11
10.5
 21
0
  0
LINE
  8
0
 10
10.5
 20
0
 11
10.4172
 21
-1.31599
  0
LINE
  8
0
 10
10.4172
 20
-1.31599
 11
10.1701
 21
-2.61124
  0
LINE
  8
0
 10
10.1701
 20
-2.61124
 11
9.76265
 21
-3.8653
  0
LINE
  8
0
 10
9.76265
 20
-3.8653
 11
9.20938
 21
-5.04105
  0
LINE
  8
0
 10
9.20938
 20
-5.04105
 11
9.41226
 21
-5.18845
  0
LINE
  8
0
 10
9.41226
 20
-5.18845
 11
9.6869
 21
-5.44635
  0
LINE
  8
0
 10
9.6869
 20
-5.44635
 11
9.92705
 21
-5.73663
  0
LINE
  8
0
 10
9.92705
 20
-5.73663
 11
10.1289
 21
-6.05473
  0
LINE
  8
0
 10
10.1289
 20
-6.05473
 11
10.2893
 21
-6.39561
  0
LINE
  8
0
 10
10.2893
 20
-6.39561
 11
10.4057
 21
-6.75392
  0
LINE
  8
0
 10
10.4057
 20
-6.75392
 11
10.4763
 21
-7.12399
  0
LINE
  8
0
 10
10.4763
 20
-7.12399
 11
10.5
 21
-7.5
  0
LINE
  8
0
 10
10.5
 20
-7.5
 11
10.4763
 21
-7.87599
  0
LINE
  8
0
 10
10.4763
 20
-7.87599
 11
10.4057
 21
-8.24606
  0
LINE
  8
0
 10
10.4057
 20
-8.24606
 11
10.2893
 21
-8.60437
  0
LINE
  8
0
 10
10.2893
 20
-8.60437
 11
10.1289
 21
-8.94525
  0
LINE
  8
0
 10
10.1289
 20
-8.94525
 11
9.92705
 21
-9.26335
  0
LINE
  8
0
 10
9.92705
 20
-9.26335
 11
9.6869
 21
-9.55363
  0
LINE
  8
0
 10
9.6869
 20
-9.55363
 11
9.41226
 21
-9.81154
  0
LINE
  8
0
 10
9.41226
 20
-9.81154
 11
9.10747
 21
-10.033
  0
LINE
  8
0
 10
9.10747
 20
-10.033
 11
8.77733
 21
-10.2145
  0
LINE
  8
0
 10
8.77733
 20
-10.2145
 11
8.42705
 21
-10.3532
  0
LINE
  8
0
 10
8.42705
 20
-10.3532
 11
8.06213
 21
-10.4469
  0
LINE
  8
0
 10
8.06213
 20
-10.4469
 11
7.68837
 21
-10.4941
  0
LINE
  8
0
 10
7.68837
 20
-10.4941
 11
7.31161
 21
-10.4941
  0
LINE
  8
0
 10
7.31161
 20
-10.4941
 11
6.93785
 21
-10.4469
  0
LINE
  8
0
 10
6.93785
 20
-10.4469
 11
6.57294
 21
-10.3532
  0
LINE
  8
0
 10
6.57294
 20
-10.3532
 11
6.22266
 21
-10.2145
  0
LINE
  8
0
 10
6.22266
 20
-10.2145
 11
5.89252
 21
-10.033
  0
LINE
  8
0
 10
5.89252
 20
-10.033
 11
5.58772
 21
-9.81154
  0
LINE
  8
0
 10
5.58772
 20
-9.81154
 11
5.31308
 21
-9.55363
  0
LINE
  8
0
 10
5.31308
 20
-9.55363
 11
5.07294
 21
-9.26335
  0
LINE
  8
0
 10
5.07294
 20
-9.26335
 11
5.02882
 21
-9.19383
  0
LINE
  8
0
 10
5.02882
 20
-9.19383
 11
4.47067
 21
-9.50067
  0
LINE
  8
0
 10
4.47067
 20
-9.50067
 11
3.24467
 21
-9.98608
  0
LINE
  8
0
 10
3.24467
 20
-9.98608
 11
1.9675
 21
-10.314
  0
LINE
  8
0
 10
1.9675
 20
-10.314
 11
0.659286
 21
-10.4793
  0
LINE
  8
0
 10
0.659286
 20
-10.4793
 11
-0.659286
 21
-10.4793
  0
LINE
  8
0
 10
-0.659286
 20
-10.4793
 11
-1.9675
 21
-10.314
  0
LINE
  8
0
 10
-1.9675
 20
-10.314
 11
-3.24467
 21
-9.98608
  0
LINE
  8
0
 10
-3.24467
 20
-9.98608
 11
-4.47067
 21
-9.50067
  0
LINE
  8
0
 10
-4.47067
 20
-9.50067
 11
-5.02882
 21
-9.19383
  0
LINE
  8
0
 10
-5.02882
 20
-9.19383
 11
-5.07294
 21
-9.26335
  0
LINE
  8
0
 10
-5.07294
 20
-9.26335
 11
-5.31308
 21
-9.55363
  0
LINE
  8
0
 10
-5.31308
 20
-9.55363
 11
-5.58772
 21
-9.81154
  0
LINE
  8
0
 10
-5.58772
 20
-9.81154
 11
-5.89252
 21
-10.033
  0
LINE
  8
0
 10
-5.89252
 20
-10.033
 11
-6.22266
 21
-10.2145
  0
LINE
  8
0
 10
-6.22266
 20
-10.2145
 11
-6.57294
 21
-10.3532
  0
LINE
  8
0
 10
-6.57294
 20
-10.3532
 11
-6.93785
 21
-10.4469
  0
LINE
  8
0
 10
-6.93785
 20
-10.4469
 11
-7.31161
 21
-10.4941
  0
LINE
  8
0
 10
-7.31161
 20
-10.4941
 11
-7.68837
 21
-10.4941
  0
ENDSEC
  0
SECTION
  2
OBJECTS
  0
DICTIONARY
  0
ENDSEC
  0
EOF
