<?xml version="1.0" standalone="no"?>
<!DOCTYPE svg PUBLIC "-//W3C//DTD SVG 1.1//EN" "http://www.w3.org/Graphics/SVG/1.1/DTD/svg11.dtd">
<svg width="180mm" height="44mm" viewBox="-90 -76 180 44" xmlns="http://www.w3.org/2000/svg" version="1.1">
<title>OpenSCAD Model</title>
<path d="
M 85.4369,-32.0886 L 86.0451,-32.2447 L 86.6289,-32.4759 L 87.1791,-32.7784 L 87.6871,-33.1474 L 88.1448,-33.5773
 L 88.5451,-34.0611 L 88.8815,-34.5912 L 89.1489,-35.1594 L 89.3429,-35.7566 L 89.4606,-36.3733 L 89.5,-37
 L 89.5,-71 L 89.4606,-71.6267 L 89.3429,-72.2434 L 89.1489,-72.8406 L 88.8815,-73.4088 L 88.5451,-73.9389
 L 88.1448,-74.4227 L 87.6871,-74.8526 L 87.1791,-75.2216 L 86.6289,-75.5241 L 86.0451,-75.7553 L 85.4369,-75.9114
 L 84.8139,-75.9901 L -84.8139,-75.9901 L -85.4369,-75.9114 L -86.0451,-75.7553 L -86.6289,-75.5241 L -87.1791,-75.2216
 L -87.6871,-74.8526 L -88.1448,-74.4227 L -88.5451,-73.9389 L -88.8815,-73.4088 L -89.1489,-72.8406 L -89.3429,-72.2434
 L -89.4606,-71.6267 L -89.5,-71 L -89.5,-37 L -89.4606,-36.3733 L -89.3429,-35.7566 L -89.1489,-35.1594
 L -88.8815,-34.5912 L -88.5451,-34.0611 L -88.1448,-33.5773 L -87.6871,-33.1474 L -87.1791,-32.7784 L -86.6289,-32.4759
 L -86.0451,-32.2447 L -85.4369,-32.0886 L -84.8139,-32.0099 L 84.8139,-32.0099 z
M 82.3116,-66.0059 L 81.9379,-66.0531 L 81.573,-66.1468 L 81.2227,-66.2855 L 80.8925,-66.467 L 80.5877,-66.6884
 L 80.3131,-66.9464 L 80.073,-67.2366 L 79.8711,-67.5547 L 79.7107,-67.8956 L 79.5943,-68.2539 L 79.5237,-68.624
 L 79.5,-69 L 79.5237,-69.376 L 79.5943,-69.7461 L 79.7107,-70.1044 L 79.8711,-70.4453 L 80.073,-70.7634
 L 80.3131,-71.0536 L 80.5877,-71.3115 L 80.8925,-71.533 L 81.2227,-71.7145 L 81.573,-71.8532 L 81.9379,-71.9469
 L 82.3116,-71.9941 L 82.6884,-71.9941 L 83.0621,-71.9469 L 83.427,-71.8532 L 83.7773,-71.7145 L 84.1075,-71.533
 L 84.4123,-71.3115 L 84.6869,-71.0536 L 84.927,-70.7634 L 85.1289,-70.4453 L 85.2893,-70.1044 L 85.4057,-69.7461
 L 85.4763,-69.376 L 85.5,-69 L 85.4763,-68.624 L 85.4057,-68.2539 L 85.2893,-67.8956 L 85.1289,-67.5547
 L 84.927,-67.2366 L 84.6869,-66.9464 L 84.4123,-66.6884 L 84.1075,-66.467 L 83.7773,-66.2855 L 83.427,-66.1468
 L 83.0621,-66.0531 L 82.6884,-66.0059 z
M -82.6884,-66.0059 L -83.0621,-66.0531 L -83.427,-66.1468 L -83.7773,-66.2855 L -84.1075,-66.467 L -84.4123,-66.6884
 L -84.6869,-66.9464 L -84.927,-67.2366 L -85.1289,-67.5547 L -85.2893,-67.8956 L -85.4057,-68.2539 L -85.4763,-68.624
 L -85.5,-69 L -85.4763,-69.376 L -85.4057,-69.7461 L -85.2893,-70.1044 L -85.1289,-70.4453 L -84.927,-70.7634
 L -84.6869,-71.0536 L -84.4123,-71.3115 L -84.1075,-71.533 L -83.7773,-71.7145 L -83.427,-71.8532 L -83.0621,-71.9469
 L -82.6884,-71.9941 L -82.3116,-71.9941 L -81.9379,-71.9469 L -81.573,-71.8532 L -81.2227,-71.7145 L -80.8925,-71.533
 L -80.5877,-71.3115 L -80.3131,-71.0536 L -80.073,-70.7634 L -79.8711,-70.4453 L -79.7107,-70.1044 L -79.5943,-69.7461
 L -79.5237,-69.376 L -79.5,-69 L -79.5237,-68.624 L -79.5943,-68.2539 L -79.7107,-67.8956 L -79.8711,-67.5547
 L -80.073,-67.2366 L -80.3131,-66.9464 L -80.5877,-66.6884 L -80.8925,-66.467 L -81.2227,-66.2855 L -81.573,-66.1468
 L -81.9379,-66.0531 L -82.3116,-66.0059 z
M 69.0581,-39.0296 L 67.1893,-39.2657 L 65.3647,-39.7342 L 63.6133,-40.4276 L 61.9626,-41.3351 L 60.4386,-42.4423
 L 59.0655,-43.7318 L 57.8647,-45.1832 L 56.8554,-46.7737 L 56.0533,-48.4781 L 55.4713,-50.2697 L 55.1183,-52.12
 L 55,-54 L 55.1183,-55.88 L 55.4713,-57.7303 L 56.0533,-59.5219 L 56.8554,-61.2263 L 57.8647,-62.8168
 L 59.0655,-64.2682 L 60.4386,-65.5577 L 61.9626,-66.6649 L 63.6133,-67.5724 L 65.3647,-68.2658 L 67.1893,-68.7343
 L 69.0581,-68.9704 L 70.9418,-68.9704 L 72.8107,-68.7343 L 74.6353,-68.2658 L 76.3867,-67.5724 L 78.0374,-66.6649
 L 79.5614,-65.5577 L 80.9345,-64.2682 L 82.1353,-62.8168 L 83.1446,-61.2263 L 83.9466,-59.5219 L 84.5287,-57.7303
 L 84.8817,-55.88 L 85,-54 L 84.8817,-52.12 L 84.5287,-50.2697 L 83.9466,-48.4781 L 83.1446,-46.7737
 L 82.1353,-45.1832 L 80.9345,-43.7318 L 79.5614,-42.4423 L 78.0374,-41.3351 L 76.3867,-40.4276 L 74.6353,-39.7342
 L 72.8107,-39.2657 L 70.9418,-39.0296 z
M 34.0581,-39.0296 L 32.1893,-39.2657 L 30.3647,-39.7342 L 28.6133,-40.4276 L 26.9626,-41.3351 L 25.4386,-42.4423
 L 24.0655,-43.7318 L 22.8647,-45.1832 L 21.8554,-46.7737 L 21.0533,-48.4781 L 20.4713,-50.2697 L 20.1183,-52.12
 L 20,-54 L 20.1183,-55.88 L 20.4713,-57.7303 L 21.0533,-59.5219 L 21.8554,-61.2263 L 22.8647,-62.8168
 L 24.0655,-64.2682 L 25.4386,-65.5577 L 26.9626,-66.6649 L 28.6133,-67.5724 L 30.3647,-68.2658 L 32.1893,-68.7343
 L 34.0581,-68.9704 L 35.9418,-68.9704 L 37.8107,-68.7343 L 39.6353,-68.2658 L 41.3867,-67.5724 L 43.0374,-66.6649
 L 44.5614,-65.5577 L 45.9345,-64.2682 L 47.1353,-62.8168 L 48.1446,-61.2263 L 48.9466,-59.5219 L 49.5287,-57.7303
 L 49.8817,-55.88 L 50,-54 L 49.8817,-52.12 L 49.5287,-50.2697 L 48.9466,-48.4781 L 48.1446,-46.7737
 L 47.1353,-45.1832 L 45.9345,-43.7318 L 44.5614,-42.4423 L 43.0374,-41.3351 L 41.3867,-40.4276 L 39.6353,-39.7342
 L 37.8107,-39.2657 L 35.9418,-39.0296 z
M -70.9418,-39.0296 L -72.8107,-39.2657 L -74.6353,-39.7342 L -76.3867,-40.4276 L -78.0374,-41.3351 L -79.5614,-42.4423
 L -80.9345,-43.7318 L -82.1353,-45.1832 L -83.1446,-46.7737 L -83.9466,-48.4781 L -84.5287,-50.2697 L -84.8817,-52.12
 L -85,-54 L -84.8817,-55.88 L -84.5287,-57.7303 L -83.9466,-59.5219 L -83.1446,-61.2263 L -82.1353,-62.8168
 L -80.9345,-64.2682 L -79.5614,-65.5577 L -78.0374,-66.6649 L -76.3867,-67.5724 L -74.6353,-68.2658 L -72.8107,-68.7343
 L -70.9418,-68.9704 L -69.0581,-68.9704 L -67.1893,-68.7343 L -65.3647,-68.2658 L -63.6133,-67.5724 L -61.9626,-66.6649
 L -60.4386,-65.5577 L -59.0655,-64.2682 L -57.8647,-62.8168 L -56.8554,-61.2263 L -56.0533,-59.5219 L -55.4713,-57.7303
 L -55.1183,-55.88 L -55,-54 L -55.1183,-52.12 L -55.4713,-50.2697 L -56.0533,-48.4781 L -56.8554,-46.7737
 L -57.8647,-45.1832 L -59.0655,-43.7318 L -60.4386,-42.4423 L -61.9626,-41.3351 L -63.6133,-40.4276 L -65.3647,-39.7342
 L -67.1893,-39.2657 L -69.0581,-39.0296 z
M -0.941849,-39.0296 L -2.81071,-39.2657 L -4.63525,-39.7342 L -6.38669,-40.4276 L -8.0374,-41.3351 L -9.56136,-42.4423
 L -10.9345,-43.7318 L -12.1353,-45.1832 L -13.1446,-46.7737 L -13.9466,-48.4781 L -14.5287,-50.2697 L -14.8817,-52.12
 L -15,-54 L -14.8817,-55.88 L -14.5287,-57.7303 L -13.9466,-59.5219 L -13.1446,-61.2263 L -12.1353,-62.8168
 L -10.9345,-64.2682 L -9.56136,-65.5577 L -8.0374,-66.6649 L -6.38669,-67.5724 L -4.63525,-68.2658 L -2.81071,-68.7343
 L -0.941849,-68.9704 L 0.941849,-68.9704 L 2.81071,-68.7343 L 4.63525,-68.2658 L 6.38669,-67.5724 L 8.0374,-66.6649
 L 9.56136,-65.5577 L 10.9345,-64.2682 L 12.1353,-62.8168 L 13.1446,-61.2263 L 13.9466,-59.5219 L 14.5287,-57.7303
 L 14.8817,-55.88 L 15,-54 L 14.8817,-52.12 L 14.5287,-50.2697 L 13.9466,-48.4781 L 13.1446,-46.7737
 L 12.1353,-45.1832 L 10.9345,-43.7318 L 9.56136,-42.4423 L 8.0374,-41.3351 L 6.38669,-40.4276 L 4.63525,-39.7342
 L 2.81071,-39.2657 L 0.941849,-39.0296 z
M -35.9418,-39.0296 L -37.8107,-39.2657 L -39.6353,-39.7342 L -41.3867,-40.4276 L -43.0374,-41.3351 L -44.5614,-42.4423
 L -45.9345,-43.7318 L -47.1353,-45.1832 L -48.1446,-46.7737 L -48.9466,-48.4781 L -49.5287,-50.2697 L -49.8817,-52.12
 L -50,-54 L -49.8817,-55.88 L -49.5287,-57.7303 L -48.9466,-59.5219 L -48.1446,-61.2263 L -47.1353,-62.8168
 L -45.9345,-64.2682 L -44.5614,-65.5577 L -43.0374,-66.6649 L -41.3867,-67.5724 L -39.6353,-68.2658 L -37.8107,-68.7343
 L -35.9418,-68.9704 L -34.0581,-68.9704 L -32.1893,-68.7343 L -30.3647,-68.2658 L -28.6133,-67.5724 L -26.9626,-66.6649
 L -25.4386,-65.5577 L -24.0655,-64.2682 L -22.8647,-62.8168 L -21.8554,-61.2263 L -21.0533,-59.5219 L -20.4713,-57.7303
 L -20.1183,-55.88 L -20,-54 L -20.1183,-52.12 L -20.4713,-50.2697 L -21.0533,-48.4781 L -21.8554,-46.7737
 L -22.8647,-45.1832 L -24.0655,-43.7318 L -25.4386,-42.4423 L -26.9626,-41.3351 L -28.6133,-40.4276 L -30.3647,-39.7342
 L -32.1893,-39.2657 L -34.0581,-39.0296 z
M -82.6884,-36.0059 L -83.0621,-36.0531 L -83.427,-36.1468 L -83.7773,-36.2855 L -84.1075,-36.467 L -84.4123,-36.6885
 L -84.6869,-36.9464 L -84.927,-37.2366 L -85.1289,-37.5547 L -85.2893,-37.8956 L -85.4057,-38.2539 L -85.4763,-38.624
 L -85.5,-39 L -85.4763,-39.376 L -85.4057,-39.7461 L -85.2893,-40.1044 L -85.1289,-40.4453 L -84.927,-40.7634
 L -84.6869,-41.0536 L -84.4123,-41.3116 L -84.1075,-41.533 L -83.7773,-41.7145 L -83.427,-41.8532 L -83.0621,-41.9469
 L -82.6884,-41.9941 L -82.3116,-41.9941 L -81.9379,-41.9469 L -81.573,-41.8532 L -81.2227,-41.7145 L -80.8925,-41.533
 L -80.5877,-41.3116 L -80.3131,-41.0536 L -80.073,-40.7634 L -79.8711,-40.4453 L -79.7107,-40.1044 L -79.5943,-39.7461
 L -79.5237,-39.376 L -79.5,-39 L -79.5237,-38.624 L -79.5943,-38.2539 L -79.7107,-37.8956 L -79.8711,-37.5547
 L -80.073,-37.2366 L -80.3131,-36.9464 L -80.5877,-36.6885 L -80.8925,-36.467 L -81.2227,-36.2855 L -81.573,-36.1468
 L -81.9379,-36.0531 L -82.3116,-36.0059 z
M 82.3116,-36.0059 L 81.9379,-36.0531 L 81.573,-36.1468 L 81.2227,-36.2855 L 80.8925,-36.467 L 80.5877,-36.6885
 L 80.3131,-36.9464 L 80.073,-37.2366 L 79.8711,-37.5547 L 79.7107,-37.8956 L 79.5943,-38.2539 L 79.5237,-38.624
 L 79.5,-39 L 79.5237,-39.376 L 79.5943,-39.7461 L 79.7107,-40.1044 L 79.8711,-40.4453 L 80.073,-40.7634
 L 80.3131,-41.0536 L 80.5877,-41.3116 L 80.8925,-41.533 L 81.2227,-41.7145 L 81.573,-41.8532 L 81.9379,-41.9469
 L 82.3116,-41.9941 L 82.6884,-41.9941 L 83.0621,-41.9469 L 83.427,-41.8532 L 83.7773,-41.7145 L 84.1075,-41.533
 L 84.4123,-41.3116 L 84.6869,-41.0536 L 84.927,-40.7634 L 85.1289,-40.4453 L 85.2893,-40.1044 L 85.4057,-39.7461
 L 85.4763,-39.376 L 85.5,-39 L 85.4763,-38.624 L 85.4057,-38.2539 L 85.2893,-37.8956 L 85.1289,-37.5547
 L 84.927,-37.2366 L 84.6869,-36.9464 L 84.4123,-36.6885 L 84.1075,-36.467 L 83.7773,-36.2855 L 83.427,-36.1468
 L 83.0621,-36.0531 L 82.6884,-36.0059 z
" stroke="black" fill="lightgray" stroke-width="0.5"/>
</svg>
