<?xml version="1.0" standalone="no"?>
<!DOCTYPE svg PUBLIC "-//W3C//DTD SVG 1.1//EN" "http://www.w3.org/Graphics/SVG/1.1/DTD/svg11.dtd">
<svg width="150mm" height="90mm" viewBox="-75 -45 150 90" xmlns="http://www.w3.org/2000/svg" version="1.1">
<title>OpenSCAD Model</title>
<path d="
M 70.4369,44.4114 L 71.0451,44.2553 L 71.6289,44.0241 L 72.1791,43.7216 L 72.6871,43.3526 L 73.1448,42.9227
 L 73.5451,42.4389 L 73.8815,41.9088 L 74.1489,41.3406 L 74.3429,40.7434 L 74.4606,40.1267 L 74.5,39.5
 L 74.5,-39.5 L 74.4606,-40.1267 L 74.3429,-40.7434 L 74.1489,-41.3406 L 73.8815,-41.9088 L 73.5451,-42.4389
 L 73.1448,-42.9227 L 72.6871,-43.3526 L 72.1791,-43.7216 L 71.6289,-44.0241 L 71.0451,-44.2553 L 70.4369,-44.4114
 L 69.8139,-44.4901 L -69.8139,-44.4901 L -70.4369,-44.4114 L -71.0451,-44.2553 L -71.6289,-44.0241 L -72.1791,-43.7216
 L -72.6871,-43.3526 L -73.1448,-42.9227 L -73.5451,-42.4389 L -73.8815,-41.9088 L -74.1489,-41.3406 L -74.3429,-40.7434
 L -74.4606,-40.1267 L -74.5,-39.5 L -74.5,39.5 L -74.4606,40.1267 L -74.3429,40.7434 L -74.1489,41.3406
 L -73.8815,41.9088 L -73.5451,42.4389 L -73.1448,42.9227 L -72.6871,43.3526 L -72.1791,43.7216 L -71.6289,44.0241
 L -71.0451,44.2553 L -70.4369,44.4114 L -69.8139,44.4901 L 69.8139,44.4901 z
M 67.3116,-34.5059 L 66.9379,-34.5531 L 66.573,-34.6468 L 66.2227,-34.7855 L 65.8925,-34.967 L 65.5877,-35.1885
 L 65.3131,-35.4464 L 65.073,-35.7366 L 64.8711,-36.0547 L 64.7107,-36.3956 L 64.5943,-36.7539 L 64.5237,-37.124
 L 64.5,-37.5 L 64.5237,-37.876 L 64.5943,-38.2461 L 64.7107,-38.6044 L 64.8711,-38.9453 L 65.073,-39.2634
 L 65.3131,-39.5536 L 65.5877,-39.8115 L 65.8925,-40.033 L 66.2227,-40.2145 L 66.573,-40.3532 L 66.9379,-40.4469
 L 67.3116,-40.4941 L 67.6884,-40.4941 L 68.0621,-40.4469 L 68.427,-40.3532 L 68.7773,-40.2145 L 69.1075,-40.033
 L 69.4123,-39.8115 L 69.6869,-39.5536 L 69.927,-39.2634 L 70.1289,-38.9453 L 70.2893,-38.6044 L 70.4057,-38.2461
 L 70.4763,-37.876 L 70.5,-37.5 L 70.4763,-37.124 L 70.4057,-36.7539 L 70.2893,-36.3956 L 70.1289,-36.0547
 L 69.927,-35.7366 L 69.6869,-35.4464 L 69.4123,-35.1885 L 69.1075,-34.967 L 68.7773,-34.7855 L 68.427,-34.6468
 L 68.0621,-34.5531 L 67.6884,-34.5059 z
M -67.6884,-34.5059 L -68.0621,-34.5531 L -68.427,-34.6468 L -68.7773,-34.7855 L -69.1075,-34.967 L -69.4123,-35.1885
 L -69.6869,-35.4464 L -69.927,-35.7366 L -70.1289,-36.0547 L -70.2893,-36.3956 L -70.4057,-36.7539 L -70.4763,-37.124
 L -70.5,-37.5 L -70.4763,-37.876 L -70.4057,-38.2461 L -70.2893,-38.6044 L -70.1289,-38.9453 L -69.927,-39.2634
 L -69.6869,-39.5536 L -69.4123,-39.8115 L -69.1075,-40.033 L -68.7773,-40.2145 L -68.427,-40.3532 L -68.0621,-40.4469
 L -67.6884,-40.4941 L -67.3116,-40.4941 L -66.9379,-40.4469 L -66.573,-40.3532 L -66.2227,-40.2145 L -65.8925,-40.033
 L -65.5877,-39.8115 L -65.3131,-39.5536 L -65.073,-39.2634 L -64.8711,-38.9453 L -64.7107,-38.6044 L -64.5943,-38.2461
 L -64.5237,-37.876 L -64.5,-37.5 L -64.5237,-37.124 L -64.5943,-36.7539 L -64.7107,-36.3956 L -64.8711,-36.0547
 L -65.073,-35.7366 L -65.3131,-35.4464 L -65.5877,-35.1885 L -65.8925,-34.967 L -66.2227,-34.7855 L -66.573,-34.6468
 L -66.9379,-34.5531 L -67.3116,-34.5059 z
M -7.68837,-34.5059 L -8.06213,-34.5531 L -8.42705,-34.6468 L -8.77733,-34.7855 L -9.10747,-34.967 L -9.41226,-35.1885
 L -9.6869,-35.4464 L -9.92705,-35.7366 L -10.1289,-36.0547 L -10.2893,-36.3956 L -10.4057,-36.7539 L -10.4763,-37.124
 L -10.5,-37.5 L -10.4763,-37.876 L -10.4057,-38.2461 L -10.2893,-38.6044 L -10.1289,-38.9453 L -9.92705,-39.2634
 L -9.6869,-39.5536 L -9.41226,-39.8115 L -9.10747,-40.033 L -8.77733,-40.2145 L -8.42705,-40.3532 L -8.06213,-40.4469
 L -7.68837,-40.4941 L -7.31161,-40.4941 L -6.93785,-40.4469 L -6.57294,-40.3532 L -6.22266,-40.2145 L -5.89252,-40.033
 L -5.58772,-39.8115 L -5.31308,-39.5536 L -5.07294,-39.2634 L -4.87108,-38.9453 L -4.71066,-38.6044 L -4.59424,-38.2461
 L -4.52365,-37.876 L -4.5,-37.5 L -4.52365,-37.124 L -4.59424,-36.7539 L -4.71066,-36.3956 L -4.87108,-36.0547
 L -5.07294,-35.7366 L -5.31308,-35.4464 L -5.58772,-35.1885 L -5.89252,-34.967 L -6.22266,-34.7855 L -6.57294,-34.6468
 L -6.93785,-34.5531 L -7.31161,-34.5059 z
M 7.31161,-34.5059 L 6.93785,-34.5531 L 6.57294,-34.6468 L 6.22266,-34.7855 L 5.89252,-34.967 L 5.58772,-35.1885
 L 5.31308,-35.4464 L 5.07294,-35.7366 L 4.87108,-36.0547 L 4.71066,-36.3956 L 4.59424,-36.7539 L 4.52365,-37.124
 L 4.5,-37.5 L 4.52365,-37.876 L 4.59424,-38.2461 L 4.71066,-38.6044 L 4.87108,-38.9453 L 5.07294,-39.2634
 L 5.31308,-39.5536 L 5.58772,-39.8115 L 5.89252,-40.033 L 6.22266,-40.2145 L 6.57294,-40.3532 L 6.93785,-40.4469
 L 7.31161,-40.4941 L 7.68837,-40.4941 L 8.06213,-40.4469 L 8.42705,-40.3532 L 8.77733,-40.2145 L 9.10747,-40.033
 L 9.41226,-39.8115 L 9.6869,-39.5536 L 9.92705,-39.2634 L 10.1289,-38.9453 L 10.2893,-38.6044 L 10.4057,-38.2461
 L 10.4763,-37.876 L 10.5,-37.5 L 10.4763,-37.124 L 10.4057,-36.7539 L 10.2893,-36.3956 L 10.1289,-36.0547
 L 9.92705,-35.7366 L 9.6869,-35.4464 L 9.41226,-35.1885 L 9.10747,-34.967 L 8.77733,-34.7855 L 8.42705,-34.6468
 L 8.06213,-34.5531 L 7.68837,-34.5059 z
M 52.3116,-34.5059 L 51.9379,-34.5531 L 51.5729,-34.6468 L 51.2227,-34.7855 L 50.8925,-34.967 L 50.5877,-35.1885
 L 50.3131,-35.4464 L 50.0729,-35.7366 L 49.8711,-36.0547 L 49.7107,-36.3956 L 49.5942,-36.7539 L 49.5237,-37.124
 L 49.5,-37.5 L 49.5237,-37.876 L 49.5942,-38.2461 L 49.7107,-38.6044 L 49.8711,-38.9453 L 50.0729,-39.2634
 L 50.3131,-39.5536 L 50.5877,-39.8115 L 50.8925,-40.033 L 51.2227,-40.2145 L 51.5729,-40.3532 L 51.9379,-40.4469
 L 52.3116,-40.4941 L 52.6884,-40.4941 L 53.0621,-40.4469 L 53.427,-40.3532 L 53.7773,-40.2145 L 54.1075,-40.033
 L 54.4123,-39.8115 L 54.6869,-39.5536 L 54.927,-39.2634 L 55.1289,-38.9453 L 55.2893,-38.6044 L 55.4057,-38.2461
 L 55.4763,-37.876 L 55.5,-37.5 L 55.4763,-37.124 L 55.4057,-36.7539 L 55.2893,-36.3956 L 55.1289,-36.0547
 L 54.927,-35.7366 L 54.6869,-35.4464 L 54.4123,-35.1885 L 54.1075,-34.967 L 53.7773,-34.7855 L 53.427,-34.6468
 L 53.0621,-34.5531 L 52.6884,-34.5059 z
M -22.6884,-34.5059 L -23.0621,-34.5531 L -23.427,-34.6468 L -23.7773,-34.7855 L -24.1075,-34.967 L -24.4123,-35.1885
 L -24.6869,-35.4464 L -24.927,-35.7366 L -25.1289,-36.0547 L -25.2893,-36.3956 L -25.4057,-36.7539 L -25.4763,-37.124
 L -25.5,-37.5 L -25.4763,-37.876 L -25.4057,-38.2461 L -25.2893,-38.6044 L -25.1289,-38.9453 L -24.927,-39.2634
 L -24.6869,-39.5536 L -24.4123,-39.8115 L -24.1075,-40.033 L -23.7773,-40.2145 L -23.427,-40.3532 L -23.0621,-40.4469
 L -22.6884,-40.4941 L -22.3116,-40.4941 L -21.9379,-40.4469 L -21.5729,-40.3532 L -21.2227,-40.2145 L -20.8925,-40.033
 L -20.5877,-39.8115 L -20.3131,-39.5536 L -20.0729,-39.2634 L -19.8711,-38.9453 L -19.7107,-38.6044 L -19.5942,-38.2461
 L -19.5237,-37.876 L -19.5,-37.5 L -19.5237,-37.124 L -19.5942,-36.7539 L -19.7107,-36.3956 L -19.8711,-36.0547
 L -20.0729,-35.7366 L -20.3131,-35.4464 L -20.5877,-35.1885 L -20.8925,-34.967 L -21.2227,-34.7855 L -21.5729,-34.6468
 L -21.9379,-34.5531 L -22.3116,-34.5059 z
M 22.3116,-34.5059 L 21.9379,-34.5531 L 21.5729,-34.6468 L 21.2227,-34.7855 L 20.8925,-34.967 L 20.5877,-35.1885
 L 20.3131,-35.4464 L 20.0729,-35.7366 L 19.8711,-36.0547 L 19.7107,-36.3956 L 19.5942,-36.7539 L 19.5237,-37.124
 L 19.5,-37.5 L 19.5237,-37.876 L 19.5942,-38.2461 L 19.7107,-38.6044 L 19.8711,-38.9453 L 20.0729,-39.2634
 L 20.3131,-39.5536 L 20.5877,-39.8115 L 20.8925,-40.033 L 21.2227,-40.2145 L 21.5729,-40.3532 L 21.9379,-40.4469
 L 22.3116,-40.4941 L 22.6884,-40.4941 L 23.0621,-40.4469 L 23.427,-40.3532 L 23.7773,-40.2145 L 24.1075,-40.033
 L 24.4123,-39.8115 L 24.6869,-39.5536 L 24.927,-39.2634 L 25.1289,-38.9453 L 25.2893,-38.6044 L 25.4057,-38.2461
 L 25.4763,-37.876 L 25.5,-37.5 L 25.4763,-37.124 L 25.4057,-36.7539 L 25.2893,-36.3956 L 25.1289,-36.0547
 L 24.927,-35.7366 L 24.6869,-35.4464 L 24.4123,-35.1885 L 24.1075,-34.967 L 23.7773,-34.7855 L 23.427,-34.6468
 L 23.0621,-34.5531 L 22.6884,-34.5059 z
M -52.6884,-34.5059 L -53.0621,-34.5531 L -53.427,-34.6468 L -53.7773,-34.7855 L -54.1075,-34.967 L -54.4123,-35.1885
 L -54.6869,-35.4464 L -54.927,-35.7366 L -55.1289,-36.0547 L -55.2893,-36.3956 L -55.4057,-36.7539 L -55.4763,-37.124
 L -55.5,-37.5 L -55.4763,-37.876 L -55.4057,-38.2461 L -55.2893,-38.6044 L -55.1289,-38.9453 L -54.927,-39.2634
 L -54.6869,-39.5536 L -54.4123,-39.8115 L -54.1075,-40.033 L -53.7773,-40.2145 L -53.427,-40.3532 L -53.0621,-40.4469
 L -52.6884,-40.4941 L -52.3116,-40.4941 L -51.9379,-40.4469 L -51.5729,-40.3532 L -51.2227,-40.2145 L -50.8925,-40.033
 L -50.5877,-39.8115 L -50.3131,-39.5536 L -50.0729,-39.2634 L -49.8711,-38.9453 L -49.7107,-38.6044 L -49.5942,-38.2461
 L -49.5237,-37.876 L -49.5,-37.5 L -49.5237,-37.124 L -49.5942,-36.7539 L -49.7107,-36.3956 L -49.8711,-36.0547
 L -50.0729,-35.7366 L -50.3131,-35.4464 L -50.5877,-35.1885 L -50.8925,-34.967 L -51.2227,-34.7855 L -51.5729,-34.6468
 L -51.9379,-34.5531 L -52.3116,-34.5059 z
M 37.3116,-34.5059 L 36.9379,-34.5531 L 36.5729,-34.6468 L 36.2227,-34.7855 L 35.8925,-34.967 L 35.5877,-35.1885
 L 35.3131,-35.4464 L 35.0729,-35.7366 L 34.8711,-36.0547 L 34.7107,-36.3956 L 34.5942,-36.7539 L 34.5237,-37.124
 L 34.5,-37.5 L 34.5237,-37.876 L 34.5942,-38.2461 L 34.7107,-38.6044 L 34.8711,-38.9453 L 35.0729,-39.2634
 L 35.3131,-39.5536 L 35.5877,-39.8115 L 35.8925,-40.033 L 36.2227,-40.2145 L 36.5729,-40.3532 L 36.9379,-40.4469
 L 37.3116,-40.4941 L 37.6884,-40.4941 L 38.0621,-40.4469 L 38.427,-40.3532 L 38.7773,-40.2145 L 39.1075,-40.033
 L 39.4123,-39.8115 L 39.6869,-39.5536 L 39.927,-39.2634 L 40.1289,-38.9453 L 40.2893,-38.6044 L 40.4057,-38.2461
 L 40.4763,-37.876 L 40.5,-37.5 L 40.4763,-37.124 L 40.4057,-36.7539 L 40.2893,-36.3956 L 40.1289,-36.0547
 L 39.927,-35.7366 L 39.6869,-35.4464 L 39.4123,-35.1885 L 39.1075,-34.967 L 38.7773,-34.7855 L 38.427,-34.6468
 L 38.0621,-34.5531 L 37.6884,-34.5059 z
M -37.6884,-34.5059 L -38.0621,-34.5531 L -38.427,-34.6468 L -38.7773,-34.7855 L -39.1075,-34.967 L -39.4123,-35.1885
 L -39.6869,-35.4464 L -39.927,-35.7366 L -40.1289,-36.0547 L -40.2893,-36.3956 L -40.4057,-36.7539 L -40.4763,-37.124
 L -40.5,-37.5 L -40.4763,-37.876 L -40.4057,-38.2461 L -40.2893,-38.6044 L -40.1289,-38.9453 L -39.927,-39.2634
 L -39.6869,-39.5536 L -39.4123,-39.8115 L -39.1075,-40.033 L -38.7773,-40.2145 L -38.427,-40.3532 L -38.0621,-40.4469
 L -37.6884,-40.4941 L -37.3116,-40.4941 L -36.9379,-40.4469 L -36.5729,-40.3532 L -36.2227,-40.2145 L -35.8925,-40.033
 L -35.5877,-39.8115 L -35.3131,-39.5536 L -35.0729,-39.2634 L -34.8711,-38.9453 L -34.7107,-38.6044 L -34.5942,-38.2461
 L -34.5237,-37.876 L -34.5,-37.5 L -34.5237,-37.124 L -34.5942,-36.7539 L -34.7107,-36.3956 L -34.8711,-36.0547
 L -35.0729,-35.7366 L -35.3131,-35.4464 L -35.5877,-35.1885 L -35.8925,-34.967 L -36.2227,-34.7855 L -36.5729,-34.6468
 L -36.9379,-34.5531 L -37.3116,-34.5059 z
M 59.9058,-36.003 L 59.7189,-36.0266 L 59.5365,-36.0734 L 59.3613,-36.1428 L 59.1963,-36.2335 L 59.0439,-36.3442
 L 58.9065,-36.4732 L 58.7865,-36.6183 L 58.6855,-36.7774 L 58.6053,-36.9478 L 58.5471,-37.127 L 58.5118,-37.312
 L 58.5,-37.5 L 58.5118,-37.688 L 58.5471,-37.873 L 58.6053,-38.0522 L 58.6855,-38.2226 L 58.7865,-38.3817
 L 58.9065,-38.5268 L 59.0439,-38.6558 L 59.1963,-38.7665 L 59.3613,-38.8572 L 59.5365,-38.9266 L 59.7189,-38.9734
 L 59.9058,-38.997 L 60.0942,-38.997 L 60.2811,-38.9734 L 60.4635,-38.9266 L 60.6387,-38.8572 L 60.8037,-38.7665
 L 60.9561,-38.6558 L 61.0934,-38.5268 L 61.2135,-38.3817 L 61.3145,-38.2226 L 61.3947,-38.0522 L 61.4529,-37.873
 L 61.4882,-37.688 L 61.5,-37.5 L 61.4882,-37.312 L 61.4529,-37.127 L 61.3947,-36.9478 L 61.3145,-36.7774
 L 61.2135,-36.6183 L 61.0934,-36.4732 L 60.9561,-36.3442 L 60.8037,-36.2335 L 60.6387,-36.1428 L 60.4635,-36.0734
 L 60.2811,-36.0266 L 60.0942,-36.003 z
M -60.0942,-36.003 L -60.2811,-36.0266 L -60.4635,-36.0734 L -60.6387,-36.1428 L -60.8037,-36.2335 L -60.9561,-36.3442
 L -61.0934,-36.4732 L -61.2135,-36.6183 L -61.3145,-36.7774 L -61.3947,-36.9478 L -61.4529,-37.127 L -61.4882,-37.312
 L -61.5,-37.5 L -61.4882,-37.688 L -61.4529,-37.873 L -61.3947,-38.0522 L -61.3145,-38.2226 L -61.2135,-38.3817
 L -61.0934,-38.5268 L -60.9561,-38.6558 L -60.8037,-38.7665 L -60.6387,-38.8572 L -60.4635,-38.9266 L -60.2811,-38.9734
 L -60.0942,-38.997 L -59.9058,-38.997 L -59.7189,-38.9734 L -59.5365,-38.9266 L -59.3613,-38.8572 L -59.1963,-38.7665
 L -59.0439,-38.6558 L -58.9065,-38.5268 L -58.7865,-38.3817 L -58.6855,-38.2226 L -58.6053,-38.0522 L -58.5471,-37.873
 L -58.5118,-37.688 L -58.5,-37.5 L -58.5118,-37.312 L -58.5471,-37.127 L -58.6053,-36.9478 L -58.6855,-36.7774
 L -58.7865,-36.6183 L -58.9065,-36.4732 L -59.0439,-36.3442 L -59.1963,-36.2335 L -59.3613,-36.1428 L -59.5365,-36.0734
 L -59.7189,-36.0266 L -59.9058,-36.003 z
M 29.9058,-36.003 L 29.7189,-36.0266 L 29.5365,-36.0734 L 29.3613,-36.1428 L 29.1963,-36.2335 L 29.0439,-36.3442
 L 28.9065,-36.4732 L 28.7865,-36.6183 L 28.6855,-36.7774 L 28.6053,-36.9478 L 28.5471,-37.127 L 28.5118,-37.312
 L 28.5,-37.5 L 28.5118,-37.688 L 28.5471,-37.873 L 28.6053,-38.0522 L 28.6855,-38.2226 L 28.7865,-38.3817
 L 28.9065,-38.5268 L 29.0439,-38.6558 L 29.1963,-38.7665 L 29.3613,-38.8572 L 29.5365,-38.9266 L 29.7189,-38.9734
 L 29.9058,-38.997 L 30.0942,-38.997 L 30.2811,-38.9734 L 30.4635,-38.9266 L 30.6387,-38.8572 L 30.8037,-38.7665
 L 30.9561,-38.6558 L 31.0934,-38.5268 L 31.2135,-38.3817 L 31.3145,-38.2226 L 31.3947,-38.0522 L 31.4529,-37.873
 L 31.4882,-37.688 L 31.5,-37.5 L 31.4882,-37.312 L 31.4529,-37.127 L 31.3947,-36.9478 L 31.3145,-36.7774
 L 31.2135,-36.6183 L 31.0934,-36.4732 L 30.9561,-36.3442 L 30.8037,-36.2335 L 30.6387,-36.1428 L 30.4635,-36.0734
 L 30.2811,-36.0266 L 30.0942,-36.003 z
M -0.0941772,-36.003 L -0.281067,-36.0266 L -0.463516,-36.0734 L -0.638657,-36.1428 L -0.803726,-36.2335 L -0.956131,-36.3442
 L -1.09344,-36.4732 L -1.21352,-36.6183 L -1.31445,-36.7774 L -1.39465,-36.9478 L -1.45287,-37.127 L -1.48816,-37.312
 L -1.5,-37.5 L -1.48816,-37.688 L -1.45287,-37.873 L -1.39465,-38.0522 L -1.31445,-38.2226 L -1.21352,-38.3817
 L -1.09344,-38.5268 L -0.956131,-38.6558 L -0.803726,-38.7665 L -0.638657,-38.8572 L -0.463516,-38.9266 L -0.281067,-38.9734
 L -0.0941772,-38.997 L 0.0941772,-38.997 L 0.281067,-38.9734 L 0.463516,-38.9266 L 0.638657,-38.8572 L 0.803726,-38.7665
 L 0.956131,-38.6558 L 1.09344,-38.5268 L 1.21352,-38.3817 L 1.31445,-38.2226 L 1.39465,-38.0522 L 1.45287,-37.873
 L 1.48816,-37.688 L 1.5,-37.5 L 1.48816,-37.312 L 1.45287,-37.127 L 1.39465,-36.9478 L 1.31445,-36.7774
 L 1.21352,-36.6183 L 1.09344,-36.4732 L 0.956131,-36.3442 L 0.803726,-36.2335 L 0.638657,-36.1428 L 0.463516,-36.0734
 L 0.281067,-36.0266 L 0.0941772,-36.003 z
M -15.0942,-36.003 L -15.2811,-36.0266 L -15.4635,-36.0734 L -15.6387,-36.1428 L -15.8037,-36.2335 L -15.9561,-36.3442
 L -16.0934,-36.4732 L -16.2135,-36.6183 L -16.3145,-36.7774 L -16.3947,-36.9478 L -16.4529,-37.127 L -16.4882,-37.312
 L -16.5,-37.5 L -16.4882,-37.688 L -16.4529,-37.873 L -16.3947,-38.0522 L -16.3145,-38.2226 L -16.2135,-38.3817
 L -16.0934,-38.5268 L -15.9561,-38.6558 L -15.8037,-38.7665 L -15.6387,-38.8572 L -15.4635,-38.9266 L -15.2811,-38.9734
 L -15.0942,-38.997 L -14.9058,-38.997 L -14.7189,-38.9734 L -14.5365,-38.9266 L -14.3613,-38.8572 L -14.1963,-38.7665
 L -14.0439,-38.6558 L -13.9065,-38.5268 L -13.7865,-38.3817 L -13.6855,-38.2226 L -13.6053,-38.0522 L -13.5471,-37.873
 L -13.5118,-37.688 L -13.5,-37.5 L -13.5118,-37.312 L -13.5471,-37.127 L -13.6053,-36.9478 L -13.6855,-36.7774
 L -13.7865,-36.6183 L -13.9065,-36.4732 L -14.0439,-36.3442 L -14.1963,-36.2335 L -14.3613,-36.1428 L -14.5365,-36.0734
 L -14.7189,-36.0266 L -14.9058,-36.003 z
M -45.0942,-36.003 L -45.2811,-36.0266 L -45.4635,-36.0734 L -45.6387,-36.1428 L -45.8037,-36.2335 L -45.9561,-36.3442
 L -46.0934,-36.4732 L -46.2135,-36.6183 L -46.3145,-36.7774 L -46.3947,-36.9478 L -46.4529,-37.127 L -46.4882,-37.312
 L -46.5,-37.5 L -46.4882,-37.688 L -46.4529,-37.873 L -46.3947,-38.0522 L -46.3145,-38.2226 L -46.2135,-38.3817
 L -46.0934,-38.5268 L -45.9561,-38.6558 L -45.8037,-38.7665 L -45.6387,-38.8572 L -45.4635,-38.9266 L -45.2811,-38.9734
 L -45.0942,-38.997 L -44.9058,-38.997 L -44.7189,-38.9734 L -44.5365,-38.9266 L -44.3613,-38.8572 L -44.1963,-38.7665
 L -44.0439,-38.6558 L -43.9065,-38.5268 L -43.7865,-38.3817 L -43.6855,-38.2226 L -43.6053,-38.0522 L -43.5471,-37.873
 L -43.5118,-37.688 L -43.5,-37.5 L -43.5118,-37.312 L -43.5471,-37.127 L -43.6053,-36.9478 L -43.6855,-36.7774
 L -43.7865,-36.6183 L -43.9065,-36.4732 L -44.0439,-36.3442 L -44.1963,-36.2335 L -44.3613,-36.1428 L -44.5365,-36.0734
 L -44.7189,-36.0266 L -44.9058,-36.003 z
M 44.9058,-36.003 L 44.7189,-36.0266 L 44.5365,-36.0734 L 44.3613,-36.1428 L 44.1963,-36.2335 L 44.0439,-36.3442
 L 43.9065,-36.4732 L 43.7865,-36.6183 L 43.6855,-36.7774 L 43.6053,-36.9478 L 43.5471,-37.127 L 43.5118,-37.312
 L 43.5,-37.5 L 43.5118,-37.688 L 43.5471,-37.873 L 43.6053,-38.0522 L 43.6855,-38.2226 L 43.7865,-38.3817
 L 43.9065,-38.5268 L 44.0439,-38.6558 L 44.1963,-38.7665 L 44.3613,-38.8572 L 44.5365,-38.9266 L 44.7189,-38.9734
 L 44.9058,-38.997 L 45.0942,-38.997 L 45.2811,-38.9734 L 45.4635,-38.9266 L 45.6387,-38.8572 L 45.8037,-38.7665
 L 45.9561,-38.6558 L 46.0934,-38.5268 L 46.2135,-38.3817 L 46.3145,-38.2226 L 46.3947,-38.0522 L 46.4529,-37.873
 L 46.4882,-37.688 L 46.5,-37.5 L 46.4882,-37.312 L 46.4529,-37.127 L 46.3947,-36.9478 L 46.3145,-36.7774
 L 46.2135,-36.6183 L 46.0934,-36.4732 L 45.9561,-36.3442 L 45.8037,-36.2335 L 45.6387,-36.1428 L 45.4635,-36.0734
 L 45.2811,-36.0266 L 45.0942,-36.003 z
M 14.9058,-36.003 L 14.7189,-36.0266 L 14.5365,-36.0734 L 14.3613,-36.1428 L 14.1963,-36.2335 L 14.0439,-36.3442
 L 13.9065,-36.4732 L 13.7865,-36.6183 L 13.6855,-36.7774 L 13.6053,-36.9478 L 13.5471,-37.127 L 13.5118,-37.312
 L 13.5,-37.5 L 13.5118,-37.688 L 13.5471,-37.873 L 13.6053,-38.0522 L 13.6855,-38.2226 L 13.7865,-38.3817
 L 13.9065,-38.5268 L 14.0439,-38.6558 L 14.1963,-38.7665 L 14.3613,-38.8572 L 14.5365,-38.9266 L 14.7189,-38.9734
 L 14.9058,-38.997 L 15.0942,-38.997 L 15.2811,-38.9734 L 15.4635,-38.9266 L 15.6387,-38.8572 L 15.8037,-38.7665
 L 15.9561,-38.6558 L 16.0934,-38.5268 L 16.2135,-38.3817 L 16.3145,-38.2226 L 16.3947,-38.0522 L 16.4529,-37.873
 L 16.4882,-37.688 L 16.5,-37.5 L 16.4882,-37.312 L 16.4529,-37.127 L 16.3947,-36.9478 L 16.3145,-36.7774
 L 16.2135,-36.6183 L 16.0934,-36.4732 L 15.9561,-36.3442 L 15.8037,-36.2335 L 15.6387,-36.1428 L 15.4635,-36.0734
 L 15.2811,-36.0266 L 15.0942,-36.003 z
M -30.0942,-36.003 L -30.2811,-36.0266 L -30.4635,-36.0734 L -30.6387,-36.1428 L -30.8037,-36.2335 L -30.9561,-36.3442
 L -31.0934,-36.4732 L -31.2135,-36.6183 L -31.3145,-36.7774 L -31.3947,-36.9478 L -31.4529,-37.127 L -31.4882,-37.312
 L -31.5,-37.5 L -31.4882,-37.688 L -31.4529,-37.873 L -31.3947,-38.0522 L -31.3145,-38.2226 L -31.2135,-38.3817
 L -31.0934,-38.5268 L -30.9561,-38.6558 L -30.8037,-38.7665 L -30.6387,-38.8572 L -30.4635,-38.9266 L -30.2811,-38.9734
 L -30.0942,-38.997 L -29.9058,-38.997 L -29.7189,-38.9734 L -29.5365,-38.9266 L -29.3613,-38.8572 L -29.1963,-38.7665
 L -29.0439,-38.6558 L -28.9065,-38.5268 L -28.7865,-38.3817 L -28.6855,-38.2226 L -28.6053,-38.0522 L -28.5471,-37.873
 L -28.5118,-37.688 L -28.5,-37.5 L -28.5118,-37.312 L -28.5471,-37.127 L -28.6053,-36.9478 L -28.6855,-36.7774
 L -28.7865,-36.6183 L -28.9065,-36.4732 L -29.0439,-36.3442 L -29.1963,-36.2335 L -29.3613,-36.1428 L -29.5365,-36.0734
 L -29.7189,-36.0266 L -29.9058,-36.003 z
M -37.5721,32.9349 L -41.6836,32.4155 L -45.6976,31.3849 L -49.5507,29.8593 L -53.1823,27.8628 L -56.535,25.4269
 L -59.556,22.59 L -62.1976,19.3969 L -64.4181,15.8979 L -66.1826,12.1481 L -67.4632,8.20676 L -68.2398,4.13599
 L -68.5,-0 L -68.2398,-4.13599 L -67.4632,-8.20676 L -66.1826,-12.1481 L -64.4181,-15.8979 L -62.1976,-19.3969
 L -59.556,-22.59 L -56.535,-25.4269 L -53.1823,-27.8628 L -49.5507,-29.8593 L -45.6976,-31.3849 L -41.6836,-32.4155
 L -37.5721,-32.9349 L -33.4279,-32.9349 L -29.3164,-32.4155 L -25.3024,-31.3849 L -21.4493,-29.8593 L -17.8177,-27.8628
 L -14.465,-25.4269 L -11.444,-22.59 L -8.80243,-19.3969 L -6.58188,-15.8979 L -4.81737,-12.1481 L -3.53674,-8.20676
 L -2.76021,-4.13599 L -2.5,-0 L -2.76021,4.13599 L -3.53674,8.20676 L -4.81737,12.1481 L -6.58188,15.8979
 L -8.80243,19.3969 L -11.444,22.59 L -14.465,25.4269 L -17.8177,27.8628 L -21.4493,29.8593 L -25.3024,31.3849
 L -29.3164,32.4155 L -33.4279,32.9349 z
M 33.4279,32.9349 L 29.3164,32.4155 L 25.3024,31.3849 L 21.4493,29.8593 L 17.8177,27.8628 L 14.465,25.4269
 L 11.444,22.59 L 8.80243,19.3969 L 6.58188,15.8979 L 4.81737,12.1481 L 3.53674,8.20676 L 2.76021,4.13599
 L 2.5,-0 L 2.76021,-4.13599 L 3.53674,-8.20676 L 4.81737,-12.1481 L 6.58188,-15.8979 L 8.80243,-19.3969
 L 11.444,-22.59 L 14.465,-25.4269 L 17.8177,-27.8628 L 21.4493,-29.8593 L 25.3024,-31.3849 L 29.3164,-32.4155
 L 33.4279,-32.9349 L 37.5721,-32.9349 L 41.6836,-32.4155 L 45.6976,-31.3849 L 49.5507,-29.8593 L 53.1823,-27.8628
 L 56.535,-25.4269 L 59.556,-22.59 L 62.1976,-19.3969 L 64.4181,-15.8979 L 66.1826,-12.1481 L 67.4632,-8.20676
 L 68.2398,-4.13599 L 68.5,-0 L 68.2398,4.13599 L 67.4632,8.20676 L 66.1826,12.1481 L 64.4181,15.8979
 L 62.1976,19.3969 L 59.556,22.59 L 56.535,25.4269 L 53.1823,27.8628 L 49.5507,29.8593 L 45.6976,31.3849
 L 41.6836,32.4155 L 37.5721,32.9349 z
M 7.31161,40.4941 L 6.93785,40.4469 L 6.57294,40.3532 L 6.22266,40.2145 L 5.89252,40.033 L 5.58772,39.8115
 L 5.31308,39.5536 L 5.07294,39.2634 L 4.87108,38.9453 L 4.71066,38.6044 L 4.59424,38.2461 L 4.52365,37.876
 L 4.5,37.5 L 4.52365,37.124 L 4.59424,36.7539 L 4.71066,36.3956 L 4.87108,36.0547 L 5.07294,35.7366
 L 5.31308,35.4464 L 5.58772,35.1885 L 5.89252,34.967 L 6.22266,34.7855 L 6.57294,34.6468 L 6.93785,34.5531
 L 7.31161,34.5059 L 7.68837,34.5059 L 8.06213,34.5531 L 8.42705,34.6468 L 8.77733,34.7855 L 9.10747,34.967
 L 9.41226,35.1885 L 9.6869,35.4464 L 9.92705,35.7366 L 10.1289,36.0547 L 10.2893,36.3956 L 10.4057,36.7539
 L 10.4763,37.124 L 10.5,37.5 L 10.4763,37.876 L 10.4057,38.2461 L 10.2893,38.6044 L 10.1289,38.9453
 L 9.92705,39.2634 L 9.6869,39.5536 L 9.41226,39.8115 L 9.10747,40.033 L 8.77733,40.2145 L 8.42705,40.3532
 L 8.06213,40.4469 L 7.68837,40.4941 z
M -22.6884,40.4941 L -23.0621,40.4469 L -23.427,40.3532 L -23.7773,40.2145 L -24.1075,40.033 L -24.4123,39.8115
 L -24.6869,39.5536 L -24.927,39.2634 L -25.1289,38.9453 L -25.2893,38.6044 L -25.4057,38.2461 L -25.4763,37.876
 L -25.5,37.5 L -25.4763,37.124 L -25.4057,36.7539 L -25.2893,36.3956 L -25.1289,36.0547 L -24.927,35.7366
 L -24.6869,35.4464 L -24.4123,35.1885 L -24.1075,34.967 L -23.7773,34.7855 L -23.427,34.6468 L -23.0621,34.5531
 L -22.6884,34.5059 L -22.3116,34.5059 L -21.9379,34.5531 L -21.5729,34.6468 L -21.2227,34.7855 L -20.8925,34.967
 L -20.5877,35.1885 L -20.3131,35.4464 L -20.0729,35.7366 L -19.8711,36.0547 L -19.7107,36.3956 L -19.5942,36.7539
 L -19.5237,37.124 L -19.5,37.5 L -19.5237,37.876 L -19.5942,38.2461 L -19.7107,38.6044 L -19.8711,38.9453
 L -20.0729,39.2634 L -20.3131,39.5536 L -20.5877,39.8115 L -20.8925,40.033 L -21.2227,40.2145 L -21.5729,40.3532
 L -21.9379,40.4469 L -22.3116,40.4941 z
M -7.68837,40.4941 L -8.06213,40.4469 L -8.42705,40.3532 L -8.77733,40.2145 L -9.10747,40.033 L -9.41226,39.8115
 L -9.6869,39.5536 L -9.92705,39.2634 L -10.1289,38.9453 L -10.2893,38.6044 L -10.4057,38.2461 L -10.4763,37.876
 L -10.5,37.5 L -10.4763,37.124 L -10.4057,36.7539 L -10.2893,36.3956 L -10.1289,36.0547 L -9.92705,35.7366
 L -9.6869,35.4464 L -9.41226,35.1885 L -9.10747,34.967 L -8.77733,34.7855 L -8.42705,34.6468 L -8.06213,34.5531
 L -7.68837,34.5059 L -7.31161,34.5059 L -6.93785,34.5531 L -6.57294,34.6468 L -6.22266,34.7855 L -5.89252,34.967
 L -5.58772,35.1885 L -5.31308,35.4464 L -5.07294,35.7366 L -4.87108,36.0547 L -4.71066,36.3956 L -4.59424,36.7539
 L -4.52365,37.124 L -4.5,37.5 L -4.52365,37.876 L -4.59424,38.2461 L -4.71066,38.6044 L -4.87108,38.9453
 L -5.07294,39.2634 L -5.31308,39.5536 L -5.58772,39.8115 L -5.89252,40.033 L -6.22266,40.2145 L -6.57294,40.3532
 L -6.93785,40.4469 L -7.31161,40.4941 z
M -37.6884,40.4941 L -38.0621,40.4469 L -38.427,40.3532 L -38.7773,40.2145 L -39.1075,40.033 L -39.4123,39.8115
 L -39.6869,39.5536 L -39.927,39.2634 L -40.1289,38.9453 L -40.2893,38.6044 L -40.4057,38.2461 L -40.4763,37.876
 L -40.5,37.5 L -40.4763,37.124 L -40.4057,36.7539 L -40.2893,36.3956 L -40.1289,36.0547 L -39.927,35.7366
 L -39.6869,35.4464 L -39.4123,35.1885 L -39.1075,34.967 L -38.7773,34.7855 L -38.427,34.6468 L -38.0621,34.5531
 L -37.6884,34.5059 L -37.3116,34.5059 L -36.9379,34.5531 L -36.5729,34.6468 L -36.2227,34.7855 L -35.8925,34.967
 L -35.5877,35.1885 L -35.3131,35.4464 L -35.0729,35.7366 L -34.8711,36.0547 L -34.7107,36.3956 L -34.5942,36.7539
 L -34.5237,37.124 L -34.5,37.5 L -34.5237,37.876 L -34.5942,38.2461 L -34.7107,38.6044 L -34.8711,38.9453
 L -35.0729,39.2634 L -35.3131,39.5536 L -35.5877,39.8115 L -35.8925,40.033 L -36.2227,40.2145 L -36.5729,40.3532
 L -36.9379,40.4469 L -37.3116,40.4941 z
M 67.3116,40.4941 L 66.9379,40.4469 L 66.573,40.3532 L 66.2227,40.2145 L 65.8925,40.033 L 65.5877,39.8115
 L 65.3131,39.5536 L 65.073,39.2634 L 64.8711,38.9453 L 64.7107,38.6044 L 64.5943,38.2461 L 64.5237,37.876
 L 64.5,37.5 L 64.5237,37.124 L 64.5943,36.7539 L 64.7107,36.3956 L 64.8711,36.0547 L 65.073,35.7366
 L 65.3131,35.4464 L 65.5877,35.1885 L 65.8925,34.967 L 66.2227,34.7855 L 66.573,34.6468 L 66.9379,34.5531
 L 67.3116,34.5059 L 67.6884,34.5059 L 68.0621,34.5531 L 68.427,34.6468 L 68.7773,34.7855 L 69.1075,34.967
 L 69.4123,35.1885 L 69.6869,35.4464 L 69.927,35.7366 L 70.1289,36.0547 L 70.2893,36.3956 L 70.4057,36.7539
 L 70.4763,37.124 L 70.5,37.5 L 70.4763,37.876 L 70.4057,38.2461 L 70.2893,38.6044 L 70.1289,38.9453
 L 69.927,39.2634 L 69.6869,39.5536 L 69.4123,39.8115 L 69.1075,40.033 L 68.7773,40.2145 L 68.427,40.3532
 L 68.0621,40.4469 L 67.6884,40.4941 z
M 37.3116,40.4941 L 36.9379,40.4469 L 36.5729,40.3532 L 36.2227,40.2145 L 35.8925,40.033 L 35.5877,39.8115
 L 35.3131,39.5536 L 35.0729,39.2634 L 34.8711,38.9453 L 34.7107,38.6044 L 34.5942,38.2461 L 34.5237,37.876
 L 34.5,37.5 L 34.5237,37.124 L 34.5942,36.7539 L 34.7107,36.3956 L 34.8711,36.0547 L 35.0729,35.7366
 L 35.3131,35.4464 L 35.5877,35.1885 L 35.8925,34.967 L 36.2227,34.7855 L 36.5729,34.6468 L 36.9379,34.5531
 L 37.3116,34.5059 L 37.6884,34.5059 L 38.0621,34.5531 L 38.427,34.6468 L 38.7773,34.7855 L 39.1075,34.967
 L 39.4123,35.1885 L 39.6869,35.4464 L 39.927,35.7366 L 40.1289,36.0547 L 40.2893,36.3956 L 40.4057,36.7539
 L 40.4763,37.124 L 40.5,37.5 L 40.4763,37.876 L 40.4057,38.2461 L 40.2893,38.6044 L 40.1289,38.9453
 L 39.927,39.2634 L 39.6869,39.5536 L 39.4123,39.8115 L 39.1075,40.033 L 38.7773,40.2145 L 38.427,40.3532
 L 38.0621,40.4469 L 37.6884,40.4941 z
M 22.3116,40.4941 L 21.9379,40.4469 L 21.5729,40.3532 L 21.2227,40.2145 L 20.8925,40.033 L 20.5877,39.8115
 L 20.3131,39.5536 L 20.0729,39.2634 L 19.8711,38.9453 L 19.7107,38.6044 L 19.5942,38.2461 L 19.5237,37.876
 L 19.5,37.5 L 19.5237,37.124 L 19.5942,36.7539 L 19.7107,36.3956 L 19.8711,36.0547 L 20.0729,35.7366
 L 20.3131,35.4464 L 20.5877,35.1885 L 20.8925,34.967 L 21.2227,34.7855 L 21.5729,34.6468 L 21.9379,34.5531
 L 22.3116,34.5059 L 22.6884,34.5059 L 23.0621,34.5531 L 23.427,34.6468 L 23.7773,34.7855 L 24.1075,34.967
 L 24.4123,35.1885 L 24.6869,35.4464 L 24.927,35.7366 L 25.1289,36.0547 L 25.2893,36.3956 L 25.4057,36.7539
 L 25.4763,37.124 L 25.5,37.5 L 25.4763,37.876 L 25.4057,38.2461 L 25.2893,38.6044 L 25.1289,38.9453
 L 24.927,39.2634 L 24.6869,39.5536 L 24.4123,39.8115 L 24.1075,40.033 L 23.7773,40.2145 L 23.427,40.3532
 L 23.0621,40.4469 L 22.6884,40.4941 z
M -52.6884,40.4941 L -53.0621,40.4469 L -53.427,40.3532 L -53.7773,40.2145 L -54.1075,40.033 L -54.4123,39.8115
 L -54.6869,39.5536 L -54.927,39.2634 L -55.1289,38.9453 L -55.2893,38.6044 L -55.4057,38.2461 L -55.4763,37.876
 L -55.5,37.5 L -55.4763,37.124 L -55.4057,36.7539 L -55.2893,36.3956 L -55.1289,36.0547 L -54.927,35.7366
 L -54.6869,35.4464 L -54.4123,35.1885 L -54.1075,34.967 L -53.7773,34.7855 L -53.427,34.6468 L -53.0621,34.5531
 L -52.6884,34.5059 L -52.3116,34.5059 L -51.9379,34.5531 L -51.5729,34.6468 L -51.2227,34.7855 L -50.8925,34.967
 L -50.5877,35.1885 L -50.3131,35.4464 L -50.0729,35.7366 L -49.8711,36.0547 L -49.7107,36.3956 L -49.5942,36.7539
 L -49.5237,37.124 L -49.5,37.5 L -49.5237,37.876 L -49.5942,38.2461 L -49.7107,38.6044 L -49.8711,38.9453
 L -50.0729,39.2634 L -50.3131,39.5536 L -50.5877,39.8115 L -50.8925,40.033 L -51.2227,40.2145 L -51.5729,40.3532
 L -51.9379,40.4469 L -52.3116,40.4941 z
M -67.6884,40.4941 L -68.0621,40.4469 L -68.427,40.3532 L -68.7773,40.2145 L -69.1075,40.033 L -69.4123,39.8115
 L -69.6869,39.5536 L -69.927,39.2634 L -70.1289,38.9453 L -70.2893,38.6044 L -70.4057,38.2461 L -70.4763,37.876
 L -70.5,37.5 L -70.4763,37.124 L -70.4057,36.7539 L -70.2893,36.3956 L -70.1289,36.0547 L -69.927,35.7366
 L -69.6869,35.4464 L -69.4123,35.1885 L -69.1075,34.967 L -68.7773,34.7855 L -68.427,34.6468 L -68.0621,34.5531
 L -67.6884,34.5059 L -67.3116,34.5059 L -66.9379,34.5531 L -66.573,34.6468 L -66.2227,34.7855 L -65.8925,34.967
 L -65.5877,35.1885 L -65.3131,35.4464 L -65.073,35.7366 L -64.8711,36.0547 L -64.7107,36.3956 L -64.5943,36.7539
 L -64.5237,37.124 L -64.5,37.5 L -64.5237,37.876 L -64.5943,38.2461 L -64.7107,38.6044 L -64.8711,38.9453
 L -65.073,39.2634 L -65.3131,39.5536 L -65.5877,39.8115 L -65.8925,40.033 L -66.2227,40.2145 L -66.573,40.3532
 L -66.9379,40.4469 L -67.3116,40.4941 z
M 52.3116,40.4941 L 51.9379,40.4469 L 51.5729,40.3532 L 51.2227,40.2145 L 50.8925,40.033 L 50.5877,39.8115
 L 50.3131,39.5536 L 50.0729,39.2634 L 49.8711,38.9453 L 49.7107,38.6044 L 49.5942,38.2461 L 49.5237,37.876
 L 49.5,37.5 L 49.5237,37.124 L 49.5942,36.7539 L 49.7107,36.3956 L 49.8711,36.0547 L 50.0729,35.7366
 L 50.3131,35.4464 L 50.5877,35.1885 L 50.8925,34.967 L 51.2227,34.7855 L 51.5729,34.6468 L 51.9379,34.5531
 L 52.3116,34.5059 L 52.6884,34.5059 L 53.0621,34.5531 L 53.427,34.6468 L 53.7773,34.7855 L 54.1075,34.967
 L 54.4123,35.1885 L 54.6869,35.4464 L 54.927,35.7366 L 55.1289,36.0547 L 55.2893,36.3956 L 55.4057,36.7539
 L 55.4763,37.124 L 55.5,37.5 L 55.4763,37.876 L 55.4057,38.2461 L 55.2893,38.6044 L 55.1289,38.9453
 L 54.927,39.2634 L 54.6869,39.5536 L 54.4123,39.8115 L 54.1075,40.033 L 53.7773,40.2145 L 53.427,40.3532
 L 53.0621,40.4469 L 52.6884,40.4941 z
M -45.0942,38.997 L -45.2811,38.9734 L -45.4635,38.9266 L -45.6387,38.8572 L -45.8037,38.7665 L -45.9561,38.6558
 L -46.0934,38.5268 L -46.2135,38.3817 L -46.3145,38.2226 L -46.3947,38.0522 L -46.4529,37.873 L -46.4882,37.688
 L -46.5,37.5 L -46.4882,37.312 L -46.4529,37.127 L -46.3947,36.9478 L -46.3145,36.7774 L -46.2135,36.6183
 L -46.0934,36.4732 L -45.9561,36.3442 L -45.8037,36.2335 L -45.6387,36.1428 L -45.4635,36.0734 L -45.2811,36.0266
 L -45.0942,36.003 L -44.9058,36.003 L -44.7189,36.0266 L -44.5365,36.0734 L -44.3613,36.1428 L -44.1963,36.2335
 L -44.0439,36.3442 L -43.9065,36.4732 L -43.7865,36.6183 L -43.6855,36.7774 L -43.6053,36.9478 L -43.5471,37.127
 L -43.5118,37.312 L -43.5,37.5 L -43.5118,37.688 L -43.5471,37.873 L -43.6053,38.0522 L -43.6855,38.2226
 L -43.7865,38.3817 L -43.9065,38.5268 L -44.0439,38.6558 L -44.1963,38.7665 L -44.3613,38.8572 L -44.5365,38.9266
 L -44.7189,38.9734 L -44.9058,38.997 z
M 59.9058,38.997 L 59.7189,38.9734 L 59.5365,38.9266 L 59.3613,38.8572 L 59.1963,38.7665 L 59.0439,38.6558
 L 58.9065,38.5268 L 58.7865,38.3817 L 58.6855,38.2226 L 58.6053,38.0522 L 58.5471,37.873 L 58.5118,37.688
 L 58.5,37.5 L 58.5118,37.312 L 58.5471,37.127 L 58.6053,36.9478 L 58.6855,36.7774 L 58.7865,36.6183
 L 58.9065,36.4732 L 59.0439,36.3442 L 59.1963,36.2335 L 59.3613,36.1428 L 59.5365,36.0734 L 59.7189,36.0266
 L 59.9058,36.003 L 60.0942,36.003 L 60.2811,36.0266 L 60.4635,36.0734 L 60.6387,36.1428 L 60.8037,36.2335
 L 60.9561,36.3442 L 61.0934,36.4732 L 61.2135,36.6183 L 61.3145,36.7774 L 61.3947,36.9478 L 61.4529,37.127
 L 61.4882,37.312 L 61.5,37.5 L 61.4882,37.688 L 61.4529,37.873 L 61.3947,38.0522 L 61.3145,38.2226
 L 61.2135,38.3817 L 61.0934,38.5268 L 60.9561,38.6558 L 60.8037,38.7665 L 60.6387,38.8572 L 60.4635,38.9266
 L 60.2811,38.9734 L 60.0942,38.997 z
M -15.0942,38.997 L -15.2811,38.9734 L -15.4635,38.9266 L -15.6387,38.8572 L -15.8037,38.7665 L -15.9561,38.6558
 L -16.0934,38.5268 L -16.2135,38.3817 L -16.3145,38.2226 L -16.3947,38.0522 L -16.4529,37.873 L -16.4882,37.688
 L -16.5,37.5 L -16.4882,37.312 L -16.4529,37.127 L -16.3947,36.9478 L -16.3145,36.7774 L -16.2135,36.6183
 L -16.0934,36.4732 L -15.9561,36.3442 L -15.8037,36.2335 L -15.6387,36.1428 L -15.4635,36.0734 L -15.2811,36.0266
 L -15.0942,36.003 L -14.9058,36.003 L -14.7189,36.0266 L -14.5365,36.0734 L -14.3613,36.1428 L -14.1963,36.2335
 L -14.0439,36.3442 L -13.9065,36.4732 L -13.7865,36.6183 L -13.6855,36.7774 L -13.6053,36.9478 L -13.5471,37.127
 L -13.5118,37.312 L -13.5,37.5 L -13.5118,37.688 L -13.5471,37.873 L -13.6053,38.0522 L -13.6855,38.2226
 L -13.7865,38.3817 L -13.9065,38.5268 L -14.0439,38.6558 L -14.1963,38.7665 L -14.3613,38.8572 L -14.5365,38.9266
 L -14.7189,38.9734 L -14.9058,38.997 z
M -0.0941772,38.997 L -0.281067,38.9734 L -0.463516,38.9266 L -0.638657,38.8572 L -0.803726,38.7665 L -0.956131,38.6558
 L -1.09344,38.5268 L -1.21352,38.3817 L -1.31445,38.2226 L -1.39465,38.0522 L -1.45287,37.873 L -1.48816,37.688
 L -1.5,37.5 L -1.48816,37.312 L -1.45287,37.127 L -1.39465,36.9478 L -1.31445,36.7774 L -1.21352,36.6183
 L -1.09344,36.4732 L -0.956131,36.3442 L -0.803726,36.2335 L -0.638657,36.1428 L -0.463516,36.0734 L -0.281067,36.0266
 L -0.0941772,36.003 L 0.0941772,36.003 L 0.281067,36.0266 L 0.463516,36.0734 L 0.638657,36.1428 L 0.803726,36.2335
 L 0.956131,36.3442 L 1.09344,36.4732 L 1.21352,36.6183 L 1.31445,36.7774 L 1.39465,36.9478 L 1.45287,37.127
 L 1.48816,37.312 L 1.5,37.5 L 1.48816,37.688 L 1.45287,37.873 L 1.39465,38.0522 L 1.31445,38.2226
 L 1.21352,38.3817 L 1.09344,38.5268 L 0.956131,38.6558 L 0.803726,38.7665 L 0.638657,38.8572 L 0.463516,38.9266
 L 0.281067,38.9734 L 0.0941772,38.997 z
M -30.0942,38.997 L -30.2811,38.9734 L -30.4635,38.9266 L -30.6387,38.8572 L -30.8037,38.7665 L -30.9561,38.6558
 L -31.0934,38.5268 L -31.2135,38.3817 L -31.3145,38.2226 L -31.3947,38.0522 L -31.4529,37.873 L -31.4882,37.688
 L -31.5,37.5 L -31.4882,37.312 L -31.4529,37.127 L -31.3947,36.9478 L -31.3145,36.7774 L -31.2135,36.6183
 L -31.0934,36.4732 L -30.9561,36.3442 L -30.8037,36.2335 L -30.6387,36.1428 L -30.4635,36.0734 L -30.2811,36.0266
 L -30.0942,36.003 L -29.9058,36.003 L -29.7189,36.0266 L -29.5365,36.0734 L -29.3613,36.1428 L -29.1963,36.2335
 L -29.0439,36.3442 L -28.9065,36.4732 L -28.7865,36.6183 L -28.6855,36.7774 L -28.6053,36.9478 L -28.5471,37.127
 L -28.5118,37.312 L -28.5,37.5 L -28.5118,37.688 L -28.5471,37.873 L -28.6053,38.0522 L -28.6855,38.2226
 L -28.7865,38.3817 L -28.9065,38.5268 L -29.0439,38.6558 L -29.1963,38.7665 L -29.3613,38.8572 L -29.5365,38.9266
 L -29.7189,38.9734 L -29.9058,38.997 z
M 14.9058,38.997 L 14.7189,38.9734 L 14.5365,38.9266 L 14.3613,38.8572 L 14.1963,38.7665 L 14.0439,38.6558
 L 13.9065,38.5268 L 13.7865,38.3817 L 13.6855,38.2226 L 13.6053,38.0522 L 13.5471,37.873 L 13.5118,37.688
 L 13.5,37.5 L 13.5118,37.312 L 13.5471,37.127 L 13.6053,36.9478 L 13.6855,36.7774 L 13.7865,36.6183
 L 13.9065,36.4732 L 14.0439,36.3442 L 14.1963,36.2335 L 14.3613,36.1428 L 14.5365,36.0734 L 14.7189,36.0266
 L 14.9058,36.003 L 15.0942,36.003 L 15.2811,36.0266 L 15.4635,36.0734 L 15.6387,36.1428 L 15.8037,36.2335
 L 15.9561,36.3442 L 16.0934,36.4732 L 16.2135,36.6183 L 16.3145,36.7774 L 16.3947,36.9478 L 16.4529,37.127
 L 16.4882,37.312 L 16.5,37.5 L 16.4882,37.688 L 16.4529,37.873 L 16.3947,38.0522 L 16.3145,38.2226
 L 16.2135,38.3817 L 16.0934,38.5268 L 15.9561,38.6558 L 15.8037,38.7665 L 15.6387,38.8572 L 15.4635,38.9266
 L 15.2811,38.9734 L 15.0942,38.997 z
M 29.9058,38.997 L 29.7189,38.9734 L 29.5365,38.9266 L 29.3613,38.8572 L 29.1963,38.7665 L 29.0439,38.6558
 L 28.9065,38.5268 L 28.7865,38.3817 L 28.6855,38.2226 L 28.6053,38.0522 L 28.5471,37.873 L 28.5118,37.688
 L 28.5,37.5 L 28.5118,37.312 L 28.5471,37.127 L 28.6053,36.9478 L 28.6855,36.7774 L 28.7865,36.6183
 L 28.9065,36.4732 L 29.0439,36.3442 L 29.1963,36.2335 L 29.3613,36.1428 L 29.5365,36.0734 L 29.7189,36.0266
 L 29.9058,36.003 L 30.0942,36.003 L 30.2811,36.0266 L 30.4635,36.0734 L 30.6387,36.1428 L 30.8037,36.2335
 L 30.9561,36.3442 L 31.0934,36.4732 L 31.2135,36.6183 L 31.3145,36.7774 L 31.3947,36.9478 L 31.4529,37.127
 L 31.4882,37.312 L 31.5,37.5 L 31.4882,37.688 L 31.4529,37.873 L 31.3947,38.0522 L 31.3145,38.2226
 L 31.2135,38.3817 L 31.0934,38.5268 L 30.9561,38.6558 L 30.8037,38.7665 L 30.6387,38.8572 L 30.4635,38.9266
 L 30.2811,38.9734 L 30.0942,38.997 z
M -60.0942,38.997 L -60.2811,38.9734 L -60.4635,38.9266 L -60.6387,38.8572 L -60.8037,38.7665 L -60.9561,38.6558
 L -61.0934,38.5268 L -61.2135,38.3817 L -61.3145,38.2226 L -61.3947,38.0522 L -61.4529,37.873 L -61.4882,37.688
 L -61.5,37.5 L -61.4882,37.312 L -61.4529,37.127 L -61.3947,36.9478 L -61.3145,36.7774 L -61.2135,36.6183
 L -61.0934,36.4732 L -60.9561,36.3442 L -60.8037,36.2335 L -60.6387,36.1428 L -60.4635,36.0734 L -60.2811,36.0266
 L -60.0942,36.003 L -59.9058,36.003 L -59.7189,36.0266 L -59.5365,36.0734 L -59.3613,36.1428 L -59.1963,36.2335
 L -59.0439,36.3442 L -58.9065,36.4732 L -58.7865,36.6183 L -58.6855,36.7774 L -58.6053,36.9478 L -58.5471,37.127
 L -58.5118,37.312 L -58.5,37.5 L -58.5118,37.688 L -58.5471,37.873 L -58.6053,38.0522 L -58.6855,38.2226
 L -58.7865,38.3817 L -58.9065,38.5268 L -59.0439,38.6558 L -59.1963,38.7665 L -59.3613,38.8572 L -59.5365,38.9266
 L -59.7189,38.9734 L -59.9058,38.997 z
M 44.9058,38.997 L 44.7189,38.9734 L 44.5365,38.9266 L 44.3613,38.8572 L 44.1963,38.7665 L 44.0439,38.6558
 L 43.9065,38.5268 L 43.7865,38.3817 L 43.6855,38.2226 L 43.6053,38.0522 L 43.5471,37.873 L 43.5118,37.688
 L 43.5,37.5 L 43.5118,37.312 L 43.5471,37.127 L 43.6053,36.9478 L 43.6855,36.7774 L 43.7865,36.6183
 L 43.9065,36.4732 L 44.0439,36.3442 L 44.1963,36.2335 L 44.3613,36.1428 L 44.5365,36.0734 L 44.7189,36.0266
 L 44.9058,36.003 L 45.0942,36.003 L 45.2811,36.0266 L 45.4635,36.0734 L 45.6387,36.1428 L 45.8037,36.2335
 L 45.9561,36.3442 L 46.0934,36.4732 L 46.2135,36.6183 L 46.3145,36.7774 L 46.3947,36.9478 L 46.4529,37.127
 L 46.4882,37.312 L 46.5,37.5 L 46.4882,37.688 L 46.4529,37.873 L 46.3947,38.0522 L 46.3145,38.2226
 L 46.2135,38.3817 L 46.0934,38.5268 L 45.9561,38.6558 L 45.8037,38.7665 L 45.6387,38.8572 L 45.4635,38.9266
 L 45.2811,38.9734 L 45.0942,38.997 z
" stroke="black" fill="lightgray" stroke-width="0.5"/>
</svg>
