<?xml version="1.0" standalone="no"?>
<!DOCTYPE svg PUBLIC "-//W3C//DTD SVG 1.1//EN" "http://www.w3.org/Graphics/SVG/1.1/DTD/svg11.dtd">
<svg width="104mm" height="30mm" viewBox="-52 -54 104 30" xmlns="http://www.w3.org/2000/svg" version="1.1">
<title>OpenSCAD Model</title>
<path d="
M 47.9369,-24.5886 L 48.5451,-24.7447 L 49.1289,-24.9759 L 49.6791,-25.2784 L 50.1871,-25.6474 L 50.6448,-26.0773
 L 51.0451,-26.5611 L 51.3815,-27.0912 L 51.6489,-27.6594 L 51.8429,-28.2566 L 51.9606,-28.8733 L 52,-29.5
 L 52,-48.5 L 51.9606,-49.1267 L 51.8429,-49.7434 L 51.6489,-50.3406 L 51.3815,-50.9088 L 51.0451,-51.4389
 L 50.6448,-51.9227 L 50.1871,-52.3526 L 49.6791,-52.7216 L 49.1289,-53.0241 L 48.5451,-53.2553 L 47.9369,-53.4114
 L 47.3139,-53.4901 L -47.3139,-53.4901 L -47.9369,-53.4114 L -48.5451,-53.2553 L -49.1289,-53.0241 L -49.6791,-52.7216
 L -50.1871,-52.3526 L -50.6448,-51.9227 L -51.0451,-51.4389 L -51.3815,-50.9088 L -51.6489,-50.3406 L -51.8429,-49.7434
 L -51.9606,-49.1267 L -52,-48.5 L -52,-29.5 L -51.9606,-28.8733 L -51.8429,-28.2566 L -51.6489,-27.6594
 L -51.3815,-27.0912 L -51.0451,-26.5611 L -50.6448,-26.0773 L -50.1871,-25.6474 L -49.6791,-25.2784 L -49.1289,-24.9759
 L -48.5451,-24.7447 L -47.9369,-24.5886 L -47.3139,-24.5099 L 47.3139,-24.5099 z
M -45.1884,-43.5059 L -45.5621,-43.5531 L -45.927,-43.6468 L -46.2773,-43.7855 L -46.6075,-43.967 L -46.9123,-44.1884
 L -47.1869,-44.4464 L -47.427,-44.7366 L -47.6289,-45.0547 L -47.7893,-45.3956 L -47.9057,-45.7539 L -47.9763,-46.124
 L -48,-46.5 L -47.9763,-46.876 L -47.9057,-47.2461 L -47.7893,-47.6044 L -47.6289,-47.9453 L -47.427,-48.2634
 L -47.1869,-48.5536 L -46.9123,-48.8115 L -46.6075,-49.033 L -46.2773,-49.2145 L -45.927,-49.3532 L -45.5621,-49.4469
 L -45.1884,-49.4941 L -44.8116,-49.4941 L -44.4379,-49.4469 L -44.0729,-49.3532 L -43.7227,-49.2145 L -43.3925,-49.033
 L -43.0877,-48.8115 L -42.8131,-48.5536 L -42.5729,-48.2634 L -42.3711,-47.9453 L -42.2107,-47.6044 L -42.0942,-47.2461
 L -42.0237,-46.876 L -42,-46.5 L -42.0237,-46.124 L -42.0942,-45.7539 L -42.2107,-45.3956 L -42.3711,-45.0547
 L -42.5729,-44.7366 L -42.8131,-44.4464 L -43.0877,-44.1884 L -43.3925,-43.967 L -43.7227,-43.7855 L -44.0729,-43.6468
 L -44.4379,-43.5531 L -44.8116,-43.5059 z
M 44.8116,-43.5059 L 44.4379,-43.5531 L 44.0729,-43.6468 L 43.7227,-43.7855 L 43.3925,-43.967 L 43.0877,-44.1884
 L 42.8131,-44.4464 L 42.5729,-44.7366 L 42.3711,-45.0547 L 42.2107,-45.3956 L 42.0942,-45.7539 L 42.0237,-46.124
 L 42,-46.5 L 42.0237,-46.876 L 42.0942,-47.2461 L 42.2107,-47.6044 L 42.3711,-47.9453 L 42.5729,-48.2634
 L 42.8131,-48.5536 L 43.0877,-48.8115 L 43.3925,-49.033 L 43.7227,-49.2145 L 44.0729,-49.3532 L 44.4379,-49.4469
 L 44.8116,-49.4941 L 45.1884,-49.4941 L 45.5621,-49.4469 L 45.927,-49.3532 L 46.2773,-49.2145 L 46.6075,-49.033
 L 46.9123,-48.8115 L 47.1869,-48.5536 L 47.427,-48.2634 L 47.6289,-47.9453 L 47.7893,-47.6044 L 47.9057,-47.2461
 L 47.9763,-46.876 L 48,-46.5 L 47.9763,-46.124 L 47.9057,-45.7539 L 47.7893,-45.3956 L 47.6289,-45.0547
 L 47.427,-44.7366 L 47.1869,-44.4464 L 46.9123,-44.1884 L 46.6075,-43.967 L 46.2773,-43.7855 L 45.927,-43.6468
 L 45.5621,-43.5531 L 45.1884,-43.5059 z
M 29.686,-34.0099 L 29.0631,-34.0886 L 28.4549,-34.2447 L 27.8711,-34.4759 L 27.3209,-34.7784 L 26.8129,-35.1474
 L 26.3551,-35.5773 L 25.9549,-36.0611 L 25.6185,-36.5912 L 25.3511,-37.1594 L 25.1571,-37.7566 L 25.0394,-38.3733
 L 25,-39 L 25.0394,-39.6267 L 25.1571,-40.2434 L 25.3511,-40.8406 L 25.6185,-41.4088 L 25.9549,-41.9389
 L 26.3551,-42.4227 L 26.8129,-42.8526 L 27.3209,-43.2216 L 27.8711,-43.5241 L 28.4549,-43.7553 L 29.0631,-43.9114
 L 29.686,-43.9901 L 30.3139,-43.9901 L 30.9369,-43.9114 L 31.5451,-43.7553 L 32.1289,-43.5241 L 32.6791,-43.2216
 L 33.1871,-42.8526 L 33.6448,-42.4227 L 34.0451,-41.9389 L 34.3815,-41.4088 L 34.6489,-40.8406 L 34.8429,-40.2434
 L 34.9606,-39.6267 L 35,-39 L 34.9606,-38.3733 L 34.8429,-37.7566 L 34.6489,-37.1594 L 34.3815,-36.5912
 L 34.0451,-36.0611 L 33.6448,-35.5773 L 33.1871,-35.1474 L 32.6791,-34.7784 L 32.1289,-34.4759 L 31.5451,-34.2447
 L 30.9369,-34.0886 L 30.3139,-34.0099 z
M 14.686,-34.0099 L 14.0631,-34.0886 L 13.4549,-34.2447 L 12.8711,-34.4759 L 12.3209,-34.7784 L 11.8129,-35.1474
 L 11.3551,-35.5773 L 10.9549,-36.0611 L 10.6185,-36.5912 L 10.3511,-37.1594 L 10.1571,-37.7566 L 10.0394,-38.3733
 L 10,-39 L 10.0394,-39.6267 L 10.1571,-40.2434 L 10.3511,-40.8406 L 10.6185,-41.4088 L 10.9549,-41.9389
 L 11.3551,-42.4227 L 11.8129,-42.8526 L 12.3209,-43.2216 L 12.8711,-43.5241 L 13.4549,-43.7553 L 14.0631,-43.9114
 L 14.686,-43.9901 L 15.3139,-43.9901 L 15.9369,-43.9114 L 16.5451,-43.7553 L 17.1289,-43.5241 L 17.6791,-43.2216
 L 18.1871,-42.8526 L 18.6448,-42.4227 L 19.0451,-41.9389 L 19.3815,-41.4088 L 19.6489,-40.8406 L 19.8429,-40.2434
 L 19.9606,-39.6267 L 20,-39 L 19.9606,-38.3733 L 19.8429,-37.7566 L 19.6489,-37.1594 L 19.3815,-36.5912
 L 19.0451,-36.0611 L 18.6448,-35.5773 L 18.1871,-35.1474 L 17.6791,-34.7784 L 17.1289,-34.4759 L 16.5451,-34.2447
 L 15.9369,-34.0886 L 15.3139,-34.0099 z
M -30.3139,-34.0099 L -30.9369,-34.0886 L -31.5451,-34.2447 L -32.1289,-34.4759 L -32.6791,-34.7784 L -33.1871,-35.1474
 L -33.6448,-35.5773 L -34.0451,-36.0611 L -34.3815,-36.5912 L -34.6489,-37.1594 L -34.8429,-37.7566 L -34.9606,-38.3733
 L -35,-39 L -34.9606,-39.6267 L -34.8429,-40.2434 L -34.6489,-40.8406 L -34.3815,-41.4088 L -34.0451,-41.9389
 L -33.6448,-42.4227 L -33.1871,-42.8526 L -32.6791,-43.2216 L -32.1289,-43.5241 L -31.5451,-43.7553 L -30.9369,-43.9114
 L -30.3139,-43.9901 L -29.686,-43.9901 L -29.0631,-43.9114 L -28.4549,-43.7553 L -27.8711,-43.5241 L -27.3209,-43.2216
 L -26.8129,-42.8526 L -26.3551,-42.4227 L -25.9549,-41.9389 L -25.6185,-41.4088 L -25.3511,-40.8406 L -25.1571,-40.2434
 L -25.0394,-39.6267 L -25,-39 L -25.0394,-38.3733 L -25.1571,-37.7566 L -25.3511,-37.1594 L -25.6185,-36.5912
 L -25.9549,-36.0611 L -26.3551,-35.5773 L -26.8129,-35.1474 L -27.3209,-34.7784 L -27.8711,-34.4759 L -28.4549,-34.2447
 L -29.0631,-34.0886 L -29.686,-34.0099 z
M -15.3139,-34.0099 L -15.9369,-34.0886 L -16.5451,-34.2447 L -17.1289,-34.4759 L -17.6791,-34.7784 L -18.1871,-35.1474
 L -18.6448,-35.5773 L -19.0451,-36.0611 L -19.3815,-36.5912 L -19.6489,-37.1594 L -19.8429,-37.7566 L -19.9606,-38.3733
 L -20,-39 L -19.9606,-39.6267 L -19.8429,-40.2434 L -19.6489,-40.8406 L -19.3815,-41.4088 L -19.0451,-41.9389
 L -18.6448,-42.4227 L -18.1871,-42.8526 L -17.6791,-43.2216 L -17.1289,-43.5241 L -16.5451,-43.7553 L -15.9369,-43.9114
 L -15.3139,-43.9901 L -14.686,-43.9901 L -14.0631,-43.9114 L -13.4549,-43.7553 L -12.8711,-43.5241 L -12.3209,-43.2216
 L -11.8129,-42.8526 L -11.3551,-42.4227 L -10.9549,-41.9389 L -10.6185,-41.4088 L -10.3511,-40.8406 L -10.1571,-40.2434
 L -10.0394,-39.6267 L -10,-39 L -10.0394,-38.3733 L -10.1571,-37.7566 L -10.3511,-37.1594 L -10.6185,-36.5912
 L -10.9549,-36.0611 L -11.3551,-35.5773 L -11.8129,-35.1474 L -12.3209,-34.7784 L -12.8711,-34.4759 L -13.4549,-34.2447
 L -14.0631,-34.0886 L -14.686,-34.0099 z
M -0.31395,-34.0099 L -0.936905,-34.0886 L -1.54507,-34.2447 L -2.12889,-34.4759 L -2.67912,-34.7784 L -3.18712,-35.1474
 L -3.64484,-35.5773 L -4.04507,-36.0611 L -4.38153,-36.5912 L -4.64888,-37.1594 L -4.84291,-37.7566 L -4.96057,-38.3733
 L -5,-39 L -4.96057,-39.6267 L -4.84291,-40.2434 L -4.64888,-40.8406 L -4.38153,-41.4088 L -4.04507,-41.9389
 L -3.64484,-42.4227 L -3.18712,-42.8526 L -2.67912,-43.2216 L -2.12889,-43.5241 L -1.54507,-43.7553 L -0.936905,-43.9114
 L -0.31395,-43.9901 L 0.31395,-43.9901 L 0.936905,-43.9114 L 1.54507,-43.7553 L 2.12889,-43.5241 L 2.67912,-43.2216
 L 3.18712,-42.8526 L 3.64484,-42.4227 L 4.04507,-41.9389 L 4.38153,-41.4088 L 4.64888,-40.8406 L 4.84291,-40.2434
 L 4.96057,-39.6267 L 5,-39 L 4.96057,-38.3733 L 4.84291,-37.7566 L 4.64888,-37.1594 L 4.38153,-36.5912
 L 4.04507,-36.0611 L 3.64484,-35.5773 L 3.18712,-35.1474 L 2.67912,-34.7784 L 2.12889,-34.4759 L 1.54507,-34.2447
 L 0.936905,-34.0886 L 0.31395,-34.0099 z
M 44.9058,-37.503 L 44.7189,-37.5266 L 44.5365,-37.5734 L 44.3613,-37.6428 L 44.1963,-37.7335 L 44.0439,-37.8442
 L 43.9065,-37.9732 L 43.7865,-38.1183 L 43.6855,-38.2774 L 43.6053,-38.4478 L 43.5471,-38.627 L 43.5118,-38.812
 L 43.5,-39 L 43.5118,-39.188 L 43.5471,-39.373 L 43.6053,-39.5522 L 43.6855,-39.7226 L 43.7865,-39.8817
 L 43.9065,-40.0268 L 44.0439,-40.1558 L 44.1963,-40.2665 L 44.3613,-40.3572 L 44.5365,-40.4266 L 44.7189,-40.4734
 L 44.9058,-40.497 L 45.0942,-40.497 L 45.2811,-40.4734 L 45.4635,-40.4266 L 45.6387,-40.3572 L 45.8037,-40.2665
 L 45.9561,-40.1558 L 46.0934,-40.0268 L 46.2135,-39.8817 L 46.3145,-39.7226 L 46.3947,-39.5522 L 46.4529,-39.373
 L 46.4882,-39.188 L 46.5,-39 L 46.4882,-38.812 L 46.4529,-38.627 L 46.3947,-38.4478 L 46.3145,-38.2774
 L 46.2135,-38.1183 L 46.0934,-37.9732 L 45.9561,-37.8442 L 45.8037,-37.7335 L 45.6387,-37.6428 L 45.4635,-37.5734
 L 45.2811,-37.5266 L 45.0942,-37.503 z
M -45.0942,-37.503 L -45.2811,-37.5266 L -45.4635,-37.5734 L -45.6387,-37.6428 L -45.8037,-37.7335 L -45.9561,-37.8442
 L -46.0934,-37.9732 L -46.2135,-38.1183 L -46.3145,-38.2774 L -46.3947,-38.4478 L -46.4529,-38.627 L -46.4882,-38.812
 L -46.5,-39 L -46.4882,-39.188 L -46.4529,-39.373 L -46.3947,-39.5522 L -46.3145,-39.7226 L -46.2135,-39.8817
 L -46.0934,-40.0268 L -45.9561,-40.1558 L -45.8037,-40.2665 L -45.6387,-40.3572 L -45.4635,-40.4266 L -45.2811,-40.4734
 L -45.0942,-40.497 L -44.9058,-40.497 L -44.7189,-40.4734 L -44.5365,-40.4266 L -44.3613,-40.3572 L -44.1963,-40.2665
 L -44.0439,-40.1558 L -43.9065,-40.0268 L -43.7865,-39.8817 L -43.6855,-39.7226 L -43.6053,-39.5522 L -43.5471,-39.373
 L -43.5118,-39.188 L -43.5,-39 L -43.5118,-38.812 L -43.5471,-38.627 L -43.6053,-38.4478 L -43.6855,-38.2774
 L -43.7865,-38.1183 L -43.9065,-37.9732 L -44.0439,-37.8442 L -44.1963,-37.7335 L -44.3613,-37.6428 L -44.5365,-37.5734
 L -44.7189,-37.5266 L -44.9058,-37.503 z
M 44.8116,-28.5059 L 44.4379,-28.5531 L 44.0729,-28.6468 L 43.7227,-28.7855 L 43.3925,-28.967 L 43.0877,-29.1885
 L 42.8131,-29.4464 L 42.5729,-29.7366 L 42.3711,-30.0547 L 42.2107,-30.3956 L 42.0942,-30.7539 L 42.0237,-31.124
 L 42,-31.5 L 42.0237,-31.876 L 42.0942,-32.2461 L 42.2107,-32.6044 L 42.3711,-32.9453 L 42.5729,-33.2634
 L 42.8131,-33.5536 L 43.0877,-33.8116 L 43.3925,-34.033 L 43.7227,-34.2145 L 44.0729,-34.3532 L 44.4379,-34.4469
 L 44.8116,-34.4941 L 45.1884,-34.4941 L 45.5621,-34.4469 L 45.927,-34.3532 L 46.2773,-34.2145 L 46.6075,-34.033
 L 46.9123,-33.8116 L 47.1869,-33.5536 L 47.427,-33.2634 L 47.6289,-32.9453 L 47.7893,-32.6044 L 47.9057,-32.2461
 L 47.9763,-31.876 L 48,-31.5 L 47.9763,-31.124 L 47.9057,-30.7539 L 47.7893,-30.3956 L 47.6289,-30.0547
 L 47.427,-29.7366 L 47.1869,-29.4464 L 46.9123,-29.1885 L 46.6075,-28.967 L 46.2773,-28.7855 L 45.927,-28.6468
 L 45.5621,-28.5531 L 45.1884,-28.5059 z
M -45.1884,-28.5059 L -45.5621,-28.5531 L -45.927,-28.6468 L -46.2773,-28.7855 L -46.6075,-28.967 L -46.9123,-29.1885
 L -47.1869,-29.4464 L -47.427,-29.7366 L -47.6289,-30.0547 L -47.7893,-30.3956 L -47.9057,-30.7539 L -47.9763,-31.124
 L -48,-31.5 L -47.9763,-31.876 L -47.9057,-32.2461 L -47.7893,-32.6044 L -47.6289,-32.9453 L -47.427,-33.2634
 L -47.1869,-33.5536 L -46.9123,-33.8116 L -46.6075,-34.033 L -46.2773,-34.2145 L -45.927,-34.3532 L -45.5621,-34.4469
 L -45.1884,-34.4941 L -44.8116,-34.4941 L -44.4379,-34.4469 L -44.0729,-34.3532 L -43.7227,-34.2145 L -43.3925,-34.033
 L -43.0877,-33.8116 L -42.8131,-33.5536 L -42.5729,-33.2634 L -42.3711,-32.9453 L -42.2107,-32.6044 L -42.0942,-32.2461
 L -42.0237,-31.876 L -42,-31.5 L -42.0237,-31.124 L -42.0942,-30.7539 L -42.2107,-30.3956 L -42.3711,-30.0547
 L -42.5729,-29.7366 L -42.8131,-29.4464 L -43.0877,-29.1885 L -43.3925,-28.967 L -43.7227,-28.7855 L -44.0729,-28.6468
 L -44.4379,-28.5531 L -44.8116,-28.5059 z
" stroke="black" fill="lightgray" stroke-width="0.5"/>
</svg>
