<?xml version="1.0" standalone="no"?>
<!DOCTYPE svg PUBLIC "-//W3C//DTD SVG 1.1//EN" "http://www.w3.org/Graphics/SVG/1.1/DTD/svg11.dtd">
<svg width="90mm" height="30mm" viewBox="-45 -15 90 30" xmlns="http://www.w3.org/2000/svg" version="1.1">
<title>OpenSCAD Model</title>
<path d="
M 40.4369,14.4114 L 41.0451,14.2553 L 41.6289,14.0241 L 42.1791,13.7216 L 42.6871,13.3526 L 43.1448,12.9227
 L 43.5451,12.4389 L 43.8815,11.9088 L 44.1489,11.3406 L 44.3429,10.7434 L 44.4606,10.1267 L 44.5,9.5
 L 44.5,-9.5 L 44.4606,-10.1267 L 44.3429,-10.7434 L 44.1489,-11.3406 L 43.8815,-11.9088 L 43.5451,-12.4389
 L 43.1448,-12.9227 L 42.6871,-13.3526 L 42.1791,-13.7216 L 41.6289,-14.0241 L 41.0451,-14.2553 L 40.4369,-14.4114
 L 39.8139,-14.4901 L -39.8139,-14.4901 L -40.4369,-14.4114 L -41.0451,-14.2553 L -41.6289,-14.0241 L -42.1791,-13.7216
 L -42.6871,-13.3526 L -43.1448,-12.9227 L -43.5451,-12.4389 L -43.8815,-11.9088 L -44.1489,-11.3406 L -44.3429,-10.7434
 L -44.4606,-10.1267 L -44.5,-9.5 L -44.5,9.5 L -44.4606,10.1267 L -44.3429,10.7434 L -44.1489,11.3406
 L -43.8815,11.9088 L -43.5451,12.4389 L -43.1448,12.9227 L -42.6871,13.3526 L -42.1791,13.7216 L -41.6289,14.0241
 L -41.0451,14.2553 L -40.4369,14.4114 L -39.8139,14.4901 L 39.8139,14.4901 z
M -27.6907,10.9783 L -29.0612,10.8051 L -30.3992,10.4616 L -31.6836,9.95309 L -32.8941,9.2876 L -34.0117,8.47563
 L -34.5429,7.97679 L -34.5942,8.24606 L -34.7107,8.60437 L -34.8711,8.94525 L -35.0729,9.26335 L -35.3131,9.55363
 L -35.5877,9.81154 L -35.8925,10.033 L -36.2227,10.2145 L -36.5729,10.3532 L -36.9379,10.4469 L -37.3116,10.4941
 L -37.6884,10.4941 L -38.0621,10.4469 L -38.427,10.3532 L -38.7773,10.2145 L -39.1075,10.033 L -39.4123,9.81154
 L -39.6869,9.55363 L -39.927,9.26335 L -40.1289,8.94525 L -40.2893,8.60437 L -40.4057,8.24606 L -40.4763,7.87599
 L -40.5,7.5 L -40.4763,7.12399 L -40.4057,6.75392 L -40.2893,6.39561 L -40.1289,6.05473 L -39.927,5.73663
 L -39.6869,5.44635 L -39.4123,5.18845 L -39.1075,4.96701 L -38.7773,4.78551 L -38.427,4.64682 L -38.0621,4.55313
 L -37.6884,4.50591 L -37.3116,4.50591 L -36.9938,4.54607 L -37.2275,4.04936 L -37.6544,2.73558 L -37.9133,1.37866
 L -38,-0 L -37.9133,-1.37866 L -37.6544,-2.73558 L -37.2275,-4.04936 L -36.9938,-4.54607 L -37.3116,-4.50591
 L -37.6884,-4.50591 L -38.0621,-4.55313 L -38.427,-4.64682 L -38.7773,-4.78551 L -39.1075,-4.96701 L -39.4123,-5.18845
 L -39.6869,-5.44635 L -39.927,-5.73663 L -40.1289,-6.05473 L -40.2893,-6.39561 L -40.4057,-6.75392 L -40.4763,-7.12399
 L -40.5,-7.5 L -40.4763,-7.87599 L -40.4057,-8.24606 L -40.2893,-8.60437 L -40.1289,-8.94525 L -39.927,-9.26335
 L -39.6869,-9.55363 L -39.4123,-9.81154 L -39.1075,-10.033 L -38.7773,-10.2145 L -38.427,-10.3532 L -38.0621,-10.4469
 L -37.6884,-10.4941 L -37.3116,-10.4941 L -36.9379,-10.4469 L -36.5729,-10.3532 L -36.2227,-10.2145 L -35.8925,-10.033
 L -35.5877,-9.81154 L -35.3131,-9.55363 L -35.0729,-9.26335 L -34.8711,-8.94525 L -34.7107,-8.60437 L -34.5942,-8.24606
 L -34.5429,-7.97679 L -34.0117,-8.47563 L -32.8941,-9.2876 L -31.6836,-9.95309 L -30.3992,-10.4616 L -29.0612,-10.8051
 L -27.6907,-10.9783 L -26.3093,-10.9783 L -24.9388,-10.8051 L -23.6008,-10.4616 L -22.3164,-9.95309 L -21.1059,-9.2876
 L -19.9883,-8.47563 L -18.9813,-7.53001 L -18.1008,-6.46564 L -17.3606,-5.29929 L -16.7724,-4.04936 L -16.3456,-2.73558
 L -16.0867,-1.37866 L -16,-0 L -16.0867,1.37866 L -16.3456,2.73558 L -16.7724,4.04936 L -17.3606,5.29929
 L -18.1008,6.46564 L -18.9813,7.53001 L -19.9883,8.47563 L -21.1059,9.2876 L -22.3164,9.95309 L -23.6008,10.4616
 L -24.9388,10.8051 L -26.3093,10.9783 z
M -0.690689,10.9783 L -2.06119,10.8051 L -3.39919,10.4616 L -4.68356,9.95309 L -5.89409,9.2876 L -7.01166,8.47563
 L -8.01865,7.53001 L -8.89919,6.46564 L -9.63936,5.29929 L -10.2275,4.04936 L -10.6544,2.73558 L -10.9133,1.37866
 L -11,-0 L -10.9133,-1.37866 L -10.6544,-2.73558 L -10.2275,-4.04936 L -9.63936,-5.29929 L -8.89919,-6.46564
 L -8.01865,-7.53001 L -7.01166,-8.47563 L -5.89409,-9.2876 L -4.68356,-9.95309 L -3.39919,-10.4616 L -2.06119,-10.8051
 L -0.690689,-10.9783 L 0.690689,-10.9783 L 2.06119,-10.8051 L 3.39919,-10.4616 L 4.68356,-9.95309 L 5.89409,-9.2876
 L 7.01166,-8.47563 L 8.01865,-7.53001 L 8.89919,-6.46564 L 9.63936,-5.29929 L 10.2275,-4.04936 L 10.6544,-2.73558
 L 10.9133,-1.37866 L 11,-0 L 10.9133,1.37866 L 10.6544,2.73558 L 10.2275,4.04936 L 9.63936,5.29929
 L 8.89919,6.46564 L 8.01865,7.53001 L 7.01166,8.47563 L 5.89409,9.2876 L 4.68356,9.95309 L 3.39919,10.4616
 L 2.06119,10.8051 L 0.690689,10.9783 z
M 26.3093,10.9783 L 24.9388,10.8051 L 23.6008,10.4616 L 22.3164,9.95309 L 21.1059,9.2876 L 19.9883,8.47563
 L 18.9813,7.53001 L 18.1008,6.46564 L 17.3606,5.29929 L 16.7724,4.04936 L 16.3456,2.73558 L 16.0867,1.37866
 L 16,-0 L 16.0867,-1.37866 L 16.3456,-2.73558 L 16.7724,-4.04936 L 17.3606,-5.29929 L 18.1008,-6.46564
 L 18.9813,-7.53001 L 19.9883,-8.47563 L 21.1059,-9.2876 L 22.3164,-9.95309 L 23.6008,-10.4616 L 24.9388,-10.8051
 L 26.3093,-10.9783 L 27.6907,-10.9783 L 29.0612,-10.8051 L 30.3992,-10.4616 L 31.6836,-9.95309 L 32.8941,-9.2876
 L 34.0117,-8.47563 L 34.5429,-7.97679 L 34.5942,-8.24606 L 34.7107,-8.60437 L 34.8711,-8.94525 L 35.0729,-9.26335
 L 35.3131,-9.55363 L 35.5877,-9.81154 L 35.8925,-10.033 L 36.2227,-10.2145 L 36.5729,-10.3532 L 36.9379,-10.4469
 L 37.3116,-10.4941 L 37.6884,-10.4941 L 38.0621,-10.4469 L 38.427,-10.3532 L 38.7773,-10.2145 L 39.1075,-10.033
 L 39.4123,-9.81154 L 39.6869,-9.55363 L 39.927,-9.26335 L 40.1289,-8.94525 L 40.2893,-8.60437 L 40.4057,-8.24606
 L 40.4763,-7.87599 L 40.5,-7.5 L 40.4763,-7.12399 L 40.4057,-6.75392 L 40.2893,-6.39561 L 40.1289,-6.05473
 L 39.927,-5.73663 L 39.6869,-5.44635 L 39.4123,-5.18845 L 39.1075,-4.96701 L 38.7773,-4.78551 L 38.427,-4.64682
 L 38.0621,-4.55313 L 37.6884,-4.50591 L 37.3116,-4.50591 L 36.9938,-4.54607 L 37.2275,-4.04936 L 37.6544,-2.73558
 L 37.9133,-1.37866 L 38,-0 L 37.9133,1.37866 L 37.6544,2.73558 L 37.2275,4.04936 L 36.9938,4.54607
 L 37.3116,4.50591 L 37.6884,4.50591 L 38.0621,4.55313 L 38.427,4.64682 L 38.7773,4.78551 L 39.1075,4.96701
 L 39.4123,5.18845 L 39.6869,5.44635 L 39.927,5.73663 L 40.1289,6.05473 L 40.2893,6.39561 L 40.4057,6.75392
 L 40.4763,7.12399 L 40.5,7.5 L 40.4763,7.87599 L 40.4057,8.24606 L 40.2893,8.60437 L 40.1289,8.94525
 L 39.927,9.26335 L 39.6869,9.55363 L 39.4123,9.81154 L 39.1075,10.033 L 38.7773,10.2145 L 38.427,10.3532
 L 38.0621,10.4469 L 37.6884,10.4941 L 37.3116,10.4941 L 36.9379,10.4469 L 36.5729,10.3532 L 36.2227,10.2145
 L 35.8925,10.033 L 35.5877,9.81154 L 35.3131,9.55363 L 35.0729,9.26335 L 34.8711,8.94525 L 34.7107,8.60437
 L 34.5942,8.24606 L 34.5429,7.97679 L 34.0117,8.47563 L 32.8941,9.2876 L 31.6836,9.95309 L 30.3992,10.4616
 L 29.0612,10.8051 L 27.6907,10.9783 z
" stroke="black" fill="lightgray" stroke-width="0.5"/>
</svg>
