<?xml version="1.0" standalone="no"?>
<!DOCTYPE svg PUBLIC "-//W3C//DTD SVG 1.1//EN" "http://www.w3.org/Graphics/SVG/1.1/DTD/svg11.dtd">
<svg width="180mm" height="60mm" viewBox="-90 -99 180 60" xmlns="http://www.w3.org/2000/svg" version="1.1">
<title>OpenSCAD Model</title>
<path d="
M 85.4369,-39.5886 L 86.0451,-39.7447 L 86.6289,-39.9759 L 87.1791,-40.2784 L 87.6871,-40.6474 L 88.1448,-41.0773
 L 88.5451,-41.5611 L 88.8815,-42.0912 L 89.1489,-42.6594 L 89.3429,-43.2566 L 89.4606,-43.8733 L 89.5,-44.5
 L 89.5,-93.5 L 89.4606,-94.1267 L 89.3429,-94.7434 L 89.1489,-95.3406 L 88.8815,-95.9088 L 88.5451,-96.4389
 L 88.1448,-96.9227 L 87.6871,-97.3526 L 87.1791,-97.7216 L 86.6289,-98.0241 L 86.0451,-98.2553 L 85.4369,-98.4114
 L 84.8139,-98.4901 L -84.8139,-98.4901 L -85.4369,-98.4114 L -86.0451,-98.2553 L -86.6289,-98.0241 L -87.1791,-97.7216
 L -87.6871,-97.3526 L -88.1448,-96.9227 L -88.5451,-96.4389 L -88.8815,-95.9088 L -89.1489,-95.3406 L -89.3429,-94.7434
 L -89.4606,-94.1267 L -89.5,-93.5 L -89.5,-44.5 L -89.4606,-43.8733 L -89.3429,-43.2566 L -89.1489,-42.6594
 L -88.8815,-42.0912 L -88.5451,-41.5611 L -88.1448,-41.0773 L -87.6871,-40.6474 L -87.1791,-40.2784 L -86.6289,-39.9759
 L -86.0451,-39.7447 L -85.4369,-39.5886 L -84.8139,-39.5099 L 84.8139,-39.5099 z
M 22.3116,-88.5059 L 21.9379,-88.5531 L 21.5729,-88.6468 L 21.2227,-88.7855 L 20.8925,-88.967 L 20.5877,-89.1884
 L 20.3131,-89.4464 L 20.0729,-89.7366 L 19.8711,-90.0547 L 19.7107,-90.3956 L 19.5942,-90.7539 L 19.5237,-91.124
 L 19.5,-91.5 L 19.5237,-91.876 L 19.5942,-92.2461 L 19.7107,-92.6044 L 19.8711,-92.9453 L 20.0729,-93.2634
 L 20.3131,-93.5536 L 20.5877,-93.8115 L 20.8925,-94.033 L 21.2227,-94.2145 L 21.5729,-94.3532 L 21.9379,-94.4469
 L 22.3116,-94.4941 L 22.6884,-94.4941 L 23.0621,-94.4469 L 23.427,-94.3532 L 23.7773,-94.2145 L 24.1075,-94.033
 L 24.4123,-93.8115 L 24.6869,-93.5536 L 24.927,-93.2634 L 25.1289,-92.9453 L 25.2893,-92.6044 L 25.4057,-92.2461
 L 25.4763,-91.876 L 25.5,-91.5 L 25.4763,-91.124 L 25.4057,-90.7539 L 25.2893,-90.3956 L 25.1289,-90.0547
 L 24.927,-89.7366 L 24.6869,-89.4464 L 24.4123,-89.1884 L 24.1075,-88.967 L 23.7773,-88.7855 L 23.427,-88.6468
 L 23.0621,-88.5531 L 22.6884,-88.5059 z
M 67.3116,-88.5059 L 66.9379,-88.5531 L 66.573,-88.6468 L 66.2227,-88.7855 L 65.8925,-88.967 L 65.5877,-89.1884
 L 65.3131,-89.4464 L 65.073,-89.7366 L 64.8711,-90.0547 L 64.7107,-90.3956 L 64.5943,-90.7539 L 64.5237,-91.124
 L 64.5,-91.5 L 64.5237,-91.876 L 64.5943,-92.2461 L 64.7107,-92.6044 L 64.8711,-92.9453 L 65.073,-93.2634
 L 65.3131,-93.5536 L 65.5877,-93.8115 L 65.8925,-94.033 L 66.2227,-94.2145 L 66.573,-94.3532 L 66.9379,-94.4469
 L 67.3116,-94.4941 L 67.6884,-94.4941 L 68.0621,-94.4469 L 68.427,-94.3532 L 68.7773,-94.2145 L 69.1075,-94.033
 L 69.4123,-93.8115 L 69.6869,-93.5536 L 69.927,-93.2634 L 70.1289,-92.9453 L 70.2893,-92.6044 L 70.4057,-92.2461
 L 70.4763,-91.876 L 70.5,-91.5 L 70.4763,-91.124 L 70.4057,-90.7539 L 70.2893,-90.3956 L 70.1289,-90.0547
 L 69.927,-89.7366 L 69.6869,-89.4464 L 69.4123,-89.1884 L 69.1075,-88.967 L 68.7773,-88.7855 L 68.427,-88.6468
 L 68.0621,-88.5531 L 67.6884,-88.5059 z
M -67.6884,-88.5059 L -68.0621,-88.5531 L -68.427,-88.6468 L -68.7773,-88.7855 L -69.1075,-88.967 L -69.4123,-89.1884
 L -69.6869,-89.4464 L -69.927,-89.7366 L -70.1289,-90.0547 L -70.2893,-90.3956 L -70.4057,-90.7539 L -70.4763,-91.124
 L -70.5,-91.5 L -70.4763,-91.876 L -70.4057,-92.2461 L -70.2893,-92.6044 L -70.1289,-92.9453 L -69.927,-93.2634
 L -69.6869,-93.5536 L -69.4123,-93.8115 L -69.1075,-94.033 L -68.7773,-94.2145 L -68.427,-94.3532 L -68.0621,-94.4469
 L -67.6884,-94.4941 L -67.3116,-94.4941 L -66.9379,-94.4469 L -66.573,-94.3532 L -66.2227,-94.2145 L -65.8925,-94.033
 L -65.5877,-93.8115 L -65.3131,-93.5536 L -65.073,-93.2634 L -64.8711,-92.9453 L -64.7107,-92.6044 L -64.5943,-92.2461
 L -64.5237,-91.876 L -64.5,-91.5 L -64.5237,-91.124 L -64.5943,-90.7539 L -64.7107,-90.3956 L -64.8711,-90.0547
 L -65.073,-89.7366 L -65.3131,-89.4464 L -65.5877,-89.1884 L -65.8925,-88.967 L -66.2227,-88.7855 L -66.573,-88.6468
 L -66.9379,-88.5531 L -67.3116,-88.5059 z
M -7.68837,-88.5059 L -8.06213,-88.5531 L -8.42705,-88.6468 L -8.77733,-88.7855 L -9.10747,-88.967 L -9.41226,-89.1884
 L -9.6869,-89.4464 L -9.92705,-89.7366 L -10.1289,-90.0547 L -10.2893,-90.3956 L -10.4057,-90.7539 L -10.4763,-91.124
 L -10.5,-91.5 L -10.4763,-91.876 L -10.4057,-92.2461 L -10.2893,-92.6044 L -10.1289,-92.9453 L -9.92705,-93.2634
 L -9.6869,-93.5536 L -9.41226,-93.8115 L -9.10747,-94.033 L -8.77733,-94.2145 L -8.42705,-94.3532 L -8.06213,-94.4469
 L -7.68837,-94.4941 L -7.31161,-94.4941 L -6.93785,-94.4469 L -6.57294,-94.3532 L -6.22266,-94.2145 L -5.89252,-94.033
 L -5.58772,-93.8115 L -5.31308,-93.5536 L -5.07294,-93.2634 L -4.87108,-92.9453 L -4.71066,-92.6044 L -4.59424,-92.2461
 L -4.52365,-91.876 L -4.5,-91.5 L -4.52365,-91.124 L -4.59424,-90.7539 L -4.71066,-90.3956 L -4.87108,-90.0547
 L -5.07294,-89.7366 L -5.31308,-89.4464 L -5.58772,-89.1884 L -5.89252,-88.967 L -6.22266,-88.7855 L -6.57294,-88.6468
 L -6.93785,-88.5531 L -7.31161,-88.5059 z
M -22.6884,-88.5059 L -23.0621,-88.5531 L -23.427,-88.6468 L -23.7773,-88.7855 L -24.1075,-88.967 L -24.4123,-89.1884
 L -24.6869,-89.4464 L -24.927,-89.7366 L -25.1289,-90.0547 L -25.2893,-90.3956 L -25.4057,-90.7539 L -25.4763,-91.124
 L -25.5,-91.5 L -25.4763,-91.876 L -25.4057,-92.2461 L -25.2893,-92.6044 L -25.1289,-92.9453 L -24.927,-93.2634
 L -24.6869,-93.5536 L -24.4123,-93.8115 L -24.1075,-94.033 L -23.7773,-94.2145 L -23.427,-94.3532 L -23.0621,-94.4469
 L -22.6884,-94.4941 L -22.3116,-94.4941 L -21.9379,-94.4469 L -21.5729,-94.3532 L -21.2227,-94.2145 L -20.8925,-94.033
 L -20.5877,-93.8115 L -20.3131,-93.5536 L -20.0729,-93.2634 L -19.8711,-92.9453 L -19.7107,-92.6044 L -19.5942,-92.2461
 L -19.5237,-91.876 L -19.5,-91.5 L -19.5237,-91.124 L -19.5942,-90.7539 L -19.7107,-90.3956 L -19.8711,-90.0547
 L -20.0729,-89.7366 L -20.3131,-89.4464 L -20.5877,-89.1884 L -20.8925,-88.967 L -21.2227,-88.7855 L -21.5729,-88.6468
 L -21.9379,-88.5531 L -22.3116,-88.5059 z
M 37.3116,-88.5059 L 36.9379,-88.5531 L 36.5729,-88.6468 L 36.2227,-88.7855 L 35.8925,-88.967 L 35.5877,-89.1884
 L 35.3131,-89.4464 L 35.0729,-89.7366 L 34.8711,-90.0547 L 34.7107,-90.3956 L 34.5942,-90.7539 L 34.5237,-91.124
 L 34.5,-91.5 L 34.5237,-91.876 L 34.5942,-92.2461 L 34.7107,-92.6044 L 34.8711,-92.9453 L 35.0729,-93.2634
 L 35.3131,-93.5536 L 35.5877,-93.8115 L 35.8925,-94.033 L 36.2227,-94.2145 L 36.5729,-94.3532 L 36.9379,-94.4469
 L 37.3116,-94.4941 L 37.6884,-94.4941 L 38.0621,-94.4469 L 38.427,-94.3532 L 38.7773,-94.2145 L 39.1075,-94.033
 L 39.4123,-93.8115 L 39.6869,-93.5536 L 39.927,-93.2634 L 40.1289,-92.9453 L 40.2893,-92.6044 L 40.4057,-92.2461
 L 40.4763,-91.876 L 40.5,-91.5 L 40.4763,-91.124 L 40.4057,-90.7539 L 40.2893,-90.3956 L 40.1289,-90.0547
 L 39.927,-89.7366 L 39.6869,-89.4464 L 39.4123,-89.1884 L 39.1075,-88.967 L 38.7773,-88.7855 L 38.427,-88.6468
 L 38.0621,-88.5531 L 37.6884,-88.5059 z
M 82.3116,-88.5059 L 81.9379,-88.5531 L 81.573,-88.6468 L 81.2227,-88.7855 L 80.8925,-88.967 L 80.5877,-89.1884
 L 80.3131,-89.4464 L 80.073,-89.7366 L 79.8711,-90.0547 L 79.7107,-90.3956 L 79.5943,-90.7539 L 79.5237,-91.124
 L 79.5,-91.5 L 79.5237,-91.876 L 79.5943,-92.2461 L 79.7107,-92.6044 L 79.8711,-92.9453 L 80.073,-93.2634
 L 80.3131,-93.5536 L 80.5877,-93.8115 L 80.8925,-94.033 L 81.2227,-94.2145 L 81.573,-94.3532 L 81.9379,-94.4469
 L 82.3116,-94.4941 L 82.6884,-94.4941 L 83.0621,-94.4469 L 83.427,-94.3532 L 83.7773,-94.2145 L 84.1075,-94.033
 L 84.4123,-93.8115 L 84.6869,-93.5536 L 84.927,-93.2634 L 85.1289,-92.9453 L 85.2893,-92.6044 L 85.4057,-92.2461
 L 85.4763,-91.876 L 85.5,-91.5 L 85.4763,-91.124 L 85.4057,-90.7539 L 85.2893,-90.3956 L 85.1289,-90.0547
 L 84.927,-89.7366 L 84.6869,-89.4464 L 84.4123,-89.1884 L 84.1075,-88.967 L 83.7773,-88.7855 L 83.427,-88.6468
 L 83.0621,-88.5531 L 82.6884,-88.5059 z
M -37.6884,-88.5059 L -38.0621,-88.5531 L -38.427,-88.6468 L -38.7773,-88.7855 L -39.1075,-88.967 L -39.4123,-89.1884
 L -39.6869,-89.4464 L -39.927,-89.7366 L -40.1289,-90.0547 L -40.2893,-90.3956 L -40.4057,-90.7539 L -40.4763,-91.124
 L -40.5,-91.5 L -40.4763,-91.876 L -40.4057,-92.2461 L -40.2893,-92.6044 L -40.1289,-92.9453 L -39.927,-93.2634
 L -39.6869,-93.5536 L -39.4123,-93.8115 L -39.1075,-94.033 L -38.7773,-94.2145 L -38.427,-94.3532 L -38.0621,-94.4469
 L -37.6884,-94.4941 L -37.3116,-94.4941 L -36.9379,-94.4469 L -36.5729,-94.3532 L -36.2227,-94.2145 L -35.8925,-94.033
 L -35.5877,-93.8115 L -35.3131,-93.5536 L -35.0729,-93.2634 L -34.8711,-92.9453 L -34.7107,-92.6044 L -34.5942,-92.2461
 L -34.5237,-91.876 L -34.5,-91.5 L -34.5237,-91.124 L -34.5942,-90.7539 L -34.7107,-90.3956 L -34.8711,-90.0547
 L -35.0729,-89.7366 L -35.3131,-89.4464 L -35.5877,-89.1884 L -35.8925,-88.967 L -36.2227,-88.7855 L -36.5729,-88.6468
 L -36.9379,-88.5531 L -37.3116,-88.5059 z
M 52.3116,-88.5059 L 51.9379,-88.5531 L 51.5729,-88.6468 L 51.2227,-88.7855 L 50.8925,-88.967 L 50.5877,-89.1884
 L 50.3131,-89.4464 L 50.0729,-89.7366 L 49.8711,-90.0547 L 49.7107,-90.3956 L 49.5942,-90.7539 L 49.5237,-91.124
 L 49.5,-91.5 L 49.5237,-91.876 L 49.5942,-92.2461 L 49.7107,-92.6044 L 49.8711,-92.9453 L 50.0729,-93.2634
 L 50.3131,-93.5536 L 50.5877,-93.8115 L 50.8925,-94.033 L 51.2227,-94.2145 L 51.5729,-94.3532 L 51.9379,-94.4469
 L 52.3116,-94.4941 L 52.6884,-94.4941 L 53.0621,-94.4469 L 53.427,-94.3532 L 53.7773,-94.2145 L 54.1075,-94.033
 L 54.4123,-93.8115 L 54.6869,-93.5536 L 54.927,-93.2634 L 55.1289,-92.9453 L 55.2893,-92.6044 L 55.4057,-92.2461
 L 55.4763,-91.876 L 55.5,-91.5 L 55.4763,-91.124 L 55.4057,-90.7539 L 55.2893,-90.3956 L 55.1289,-90.0547
 L 54.927,-89.7366 L 54.6869,-89.4464 L 54.4123,-89.1884 L 54.1075,-88.967 L 53.7773,-88.7855 L 53.427,-88.6468
 L 53.0621,-88.5531 L 52.6884,-88.5059 z
M -52.6884,-88.5059 L -53.0621,-88.5531 L -53.427,-88.6468 L -53.7773,-88.7855 L -54.1075,-88.967 L -54.4123,-89.1884
 L -54.6869,-89.4464 L -54.927,-89.7366 L -55.1289,-90.0547 L -55.2893,-90.3956 L -55.4057,-90.7539 L -55.4763,-91.124
 L -55.5,-91.5 L -55.4763,-91.876 L -55.4057,-92.2461 L -55.2893,-92.6044 L -55.1289,-92.9453 L -54.927,-93.2634
 L -54.6869,-93.5536 L -54.4123,-93.8115 L -54.1075,-94.033 L -53.7773,-94.2145 L -53.427,-94.3532 L -53.0621,-94.4469
 L -52.6884,-94.4941 L -52.3116,-94.4941 L -51.9379,-94.4469 L -51.5729,-94.3532 L -51.2227,-94.2145 L -50.8925,-94.033
 L -50.5877,-93.8115 L -50.3131,-93.5536 L -50.0729,-93.2634 L -49.8711,-92.9453 L -49.7107,-92.6044 L -49.5942,-92.2461
 L -49.5237,-91.876 L -49.5,-91.5 L -49.5237,-91.124 L -49.5942,-90.7539 L -49.7107,-90.3956 L -49.8711,-90.0547
 L -50.0729,-89.7366 L -50.3131,-89.4464 L -50.5877,-89.1884 L -50.8925,-88.967 L -51.2227,-88.7855 L -51.5729,-88.6468
 L -51.9379,-88.5531 L -52.3116,-88.5059 z
M -82.6884,-88.5059 L -83.0621,-88.5531 L -83.427,-88.6468 L -83.7773,-88.7855 L -84.1075,-88.967 L -84.4123,-89.1884
 L -84.6869,-89.4464 L -84.927,-89.7366 L -85.1289,-90.0547 L -85.2893,-90.3956 L -85.4057,-90.7539 L -85.4763,-91.124
 L -85.5,-91.5 L -85.4763,-91.876 L -85.4057,-92.2461 L -85.2893,-92.6044 L -85.1289,-92.9453 L -84.927,-93.2634
 L -84.6869,-93.5536 L -84.4123,-93.8115 L -84.1075,-94.033 L -83.7773,-94.2145 L -83.427,-94.3532 L -83.0621,-94.4469
 L -82.6884,-94.4941 L -82.3116,-94.4941 L -81.9379,-94.4469 L -81.573,-94.3532 L -81.2227,-94.2145 L -80.8925,-94.033
 L -80.5877,-93.8115 L -80.3131,-93.5536 L -80.073,-93.2634 L -79.8711,-92.9453 L -79.7107,-92.6044 L -79.5943,-92.2461
 L -79.5237,-91.876 L -79.5,-91.5 L -79.5237,-91.124 L -79.5943,-90.7539 L -79.7107,-90.3956 L -79.8711,-90.0547
 L -80.073,-89.7366 L -80.3131,-89.4464 L -80.5877,-89.1884 L -80.8925,-88.967 L -81.2227,-88.7855 L -81.573,-88.6468
 L -81.9379,-88.5531 L -82.3116,-88.5059 z
M 7.31161,-88.5059 L 6.93785,-88.5531 L 6.57294,-88.6468 L 6.22266,-88.7855 L 5.89252,-88.967 L 5.58772,-89.1884
 L 5.31308,-89.4464 L 5.07294,-89.7366 L 4.87108,-90.0547 L 4.71066,-90.3956 L 4.59424,-90.7539 L 4.52365,-91.124
 L 4.5,-91.5 L 4.52365,-91.876 L 4.59424,-92.2461 L 4.71066,-92.6044 L 4.87108,-92.9453 L 5.07294,-93.2634
 L 5.31308,-93.5536 L 5.58772,-93.8115 L 5.89252,-94.033 L 6.22266,-94.2145 L 6.57294,-94.3532 L 6.93785,-94.4469
 L 7.31161,-94.4941 L 7.68837,-94.4941 L 8.06213,-94.4469 L 8.42705,-94.3532 L 8.77733,-94.2145 L 9.10747,-94.033
 L 9.41226,-93.8115 L 9.6869,-93.5536 L 9.92705,-93.2634 L 10.1289,-92.9453 L 10.2893,-92.6044 L 10.4057,-92.2461
 L 10.4763,-91.876 L 10.5,-91.5 L 10.4763,-91.124 L 10.4057,-90.7539 L 10.2893,-90.3956 L 10.1289,-90.0547
 L 9.92705,-89.7366 L 9.6869,-89.4464 L 9.41226,-89.1884 L 9.10747,-88.967 L 8.77733,-88.7855 L 8.42705,-88.6468
 L 8.06213,-88.5531 L 7.68837,-88.5059 z
M 14.9058,-90.003 L 14.7189,-90.0266 L 14.5365,-90.0734 L 14.3613,-90.1427 L 14.1963,-90.2335 L 14.0439,-90.3442
 L 13.9065,-90.4732 L 13.7865,-90.6183 L 13.6855,-90.7774 L 13.6053,-90.9478 L 13.5471,-91.127 L 13.5118,-91.312
 L 13.5,-91.5 L 13.5118,-91.688 L 13.5471,-91.873 L 13.6053,-92.0522 L 13.6855,-92.2226 L 13.7865,-92.3817
 L 13.9065,-92.5268 L 14.0439,-92.6558 L 14.1963,-92.7665 L 14.3613,-92.8572 L 14.5365,-92.9266 L 14.7189,-92.9734
 L 14.9058,-92.997 L 15.0942,-92.997 L 15.2811,-92.9734 L 15.4635,-92.9266 L 15.6387,-92.8572 L 15.8037,-92.7665
 L 15.9561,-92.6558 L 16.0934,-92.5268 L 16.2135,-92.3817 L 16.3145,-92.2226 L 16.3947,-92.0522 L 16.4529,-91.873
 L 16.4882,-91.688 L 16.5,-91.5 L 16.4882,-91.312 L 16.4529,-91.127 L 16.3947,-90.9478 L 16.3145,-90.7774
 L 16.2135,-90.6183 L 16.0934,-90.4732 L 15.9561,-90.3442 L 15.8037,-90.2335 L 15.6387,-90.1427 L 15.4635,-90.0734
 L 15.2811,-90.0266 L 15.0942,-90.003 z
M -75.0942,-90.003 L -75.2811,-90.0266 L -75.4635,-90.0734 L -75.6387,-90.1427 L -75.8037,-90.2335 L -75.9561,-90.3442
 L -76.0934,-90.4732 L -76.2135,-90.6183 L -76.3145,-90.7774 L -76.3947,-90.9478 L -76.4529,-91.127 L -76.4882,-91.312
 L -76.5,-91.5 L -76.4882,-91.688 L -76.4529,-91.873 L -76.3947,-92.0522 L -76.3145,-92.2226 L -76.2135,-92.3817
 L -76.0934,-92.5268 L -75.9561,-92.6558 L -75.8037,-92.7665 L -75.6387,-92.8572 L -75.4635,-92.9266 L -75.2811,-92.9734
 L -75.0942,-92.997 L -74.9058,-92.997 L -74.7189,-92.9734 L -74.5365,-92.9266 L -74.3613,-92.8572 L -74.1963,-92.7665
 L -74.0439,-92.6558 L -73.9065,-92.5268 L -73.7865,-92.3817 L -73.6855,-92.2226 L -73.6053,-92.0522 L -73.5471,-91.873
 L -73.5118,-91.688 L -73.5,-91.5 L -73.5118,-91.312 L -73.5471,-91.127 L -73.6053,-90.9478 L -73.6855,-90.7774
 L -73.7865,-90.6183 L -73.9065,-90.4732 L -74.0439,-90.3442 L -74.1963,-90.2335 L -74.3613,-90.1427 L -74.5365,-90.0734
 L -74.7189,-90.0266 L -74.9058,-90.003 z
M -45.0942,-90.003 L -45.2811,-90.0266 L -45.4635,-90.0734 L -45.6387,-90.1427 L -45.8037,-90.2335 L -45.9561,-90.3442
 L -46.0934,-90.4732 L -46.2135,-90.6183 L -46.3145,-90.7774 L -46.3947,-90.9478 L -46.4529,-91.127 L -46.4882,-91.312
 L -46.5,-91.5 L -46.4882,-91.688 L -46.4529,-91.873 L -46.3947,-92.0522 L -46.3145,-92.2226 L -46.2135,-92.3817
 L -46.0934,-92.5268 L -45.9561,-92.6558 L -45.8037,-92.7665 L -45.6387,-92.8572 L -45.4635,-92.9266 L -45.2811,-92.9734
 L -45.0942,-92.997 L -44.9058,-92.997 L -44.7189,-92.9734 L -44.5365,-92.9266 L -44.3613,-92.8572 L -44.1963,-92.7665
 L -44.0439,-92.6558 L -43.9065,-92.5268 L -43.7865,-92.3817 L -43.6855,-92.2226 L -43.6053,-92.0522 L -43.5471,-91.873
 L -43.5118,-91.688 L -43.5,-91.5 L -43.5118,-91.312 L -43.5471,-91.127 L -43.6053,-90.9478 L -43.6855,-90.7774
 L -43.7865,-90.6183 L -43.9065,-90.4732 L -44.0439,-90.3442 L -44.1963,-90.2335 L -44.3613,-90.1427 L -44.5365,-90.0734
 L -44.7189,-90.0266 L -44.9058,-90.003 z
M 29.9058,-90.003 L 29.7189,-90.0266 L 29.5365,-90.0734 L 29.3613,-90.1427 L 29.1963,-90.2335 L 29.0439,-90.3442
 L 28.9065,-90.4732 L 28.7865,-90.6183 L 28.6855,-90.7774 L 28.6053,-90.9478 L 28.5471,-91.127 L 28.5118,-91.312
 L 28.5,-91.5 L 28.5118,-91.688 L 28.5471,-91.873 L 28.6053,-92.0522 L 28.6855,-92.2226 L 28.7865,-92.3817
 L 28.9065,-92.5268 L 29.0439,-92.6558 L 29.1963,-92.7665 L 29.3613,-92.8572 L 29.5365,-92.9266 L 29.7189,-92.9734
 L 29.9058,-92.997 L 30.0942,-92.997 L 30.2811,-92.9734 L 30.4635,-92.9266 L 30.6387,-92.8572 L 30.8037,-92.7665
 L 30.9561,-92.6558 L 31.0934,-92.5268 L 31.2135,-92.3817 L 31.3145,-92.2226 L 31.3947,-92.0522 L 31.4529,-91.873
 L 31.4882,-91.688 L 31.5,-91.5 L 31.4882,-91.312 L 31.4529,-91.127 L 31.3947,-90.9478 L 31.3145,-90.7774
 L 31.2135,-90.6183 L 31.0934,-90.4732 L 30.9561,-90.3442 L 30.8037,-90.2335 L 30.6387,-90.1427 L 30.4635,-90.0734
 L 30.2811,-90.0266 L 30.0942,-90.003 z
M -60.0942,-90.003 L -60.2811,-90.0266 L -60.4635,-90.0734 L -60.6387,-90.1427 L -60.8037,-90.2335 L -60.9561,-90.3442
 L -61.0934,-90.4732 L -61.2135,-90.6183 L -61.3145,-90.7774 L -61.3947,-90.9478 L -61.4529,-91.127 L -61.4882,-91.312
 L -61.5,-91.5 L -61.4882,-91.688 L -61.4529,-91.873 L -61.3947,-92.0522 L -61.3145,-92.2226 L -61.2135,-92.3817
 L -61.0934,-92.5268 L -60.9561,-92.6558 L -60.8037,-92.7665 L -60.6387,-92.8572 L -60.4635,-92.9266 L -60.2811,-92.9734
 L -60.0942,-92.997 L -59.9058,-92.997 L -59.7189,-92.9734 L -59.5365,-92.9266 L -59.3613,-92.8572 L -59.1963,-92.7665
 L -59.0439,-92.6558 L -58.9065,-92.5268 L -58.7865,-92.3817 L -58.6855,-92.2226 L -58.6053,-92.0522 L -58.5471,-91.873
 L -58.5118,-91.688 L -58.5,-91.5 L -58.5118,-91.312 L -58.5471,-91.127 L -58.6053,-90.9478 L -58.6855,-90.7774
 L -58.7865,-90.6183 L -58.9065,-90.4732 L -59.0439,-90.3442 L -59.1963,-90.2335 L -59.3613,-90.1427 L -59.5365,-90.0734
 L -59.7189,-90.0266 L -59.9058,-90.003 z
M -0.0941772,-90.003 L -0.281067,-90.0266 L -0.463516,-90.0734 L -0.638657,-90.1427 L -0.803726,-90.2335 L -0.956131,-90.3442
 L -1.09344,-90.4732 L -1.21352,-90.6183 L -1.31445,-90.7774 L -1.39465,-90.9478 L -1.45287,-91.127 L -1.48816,-91.312
 L -1.5,-91.5 L -1.48816,-91.688 L -1.45287,-91.873 L -1.39465,-92.0522 L -1.31445,-92.2226 L -1.21352,-92.3817
 L -1.09344,-92.5268 L -0.956131,-92.6558 L -0.803726,-92.7665 L -0.638657,-92.8572 L -0.463516,-92.9266 L -0.281067,-92.9734
 L -0.0941772,-92.997 L 0.0941772,-92.997 L 0.281067,-92.9734 L 0.463516,-92.9266 L 0.638657,-92.8572 L 0.803726,-92.7665
 L 0.956131,-92.6558 L 1.09344,-92.5268 L 1.21352,-92.3817 L 1.31445,-92.2226 L 1.39465,-92.0522 L 1.45287,-91.873
 L 1.48816,-91.688 L 1.5,-91.5 L 1.48816,-91.312 L 1.45287,-91.127 L 1.39465,-90.9478 L 1.31445,-90.7774
 L 1.21352,-90.6183 L 1.09344,-90.4732 L 0.956131,-90.3442 L 0.803726,-90.2335 L 0.638657,-90.1427 L 0.463516,-90.0734
 L 0.281067,-90.0266 L 0.0941772,-90.003 z
M 44.9058,-90.003 L 44.7189,-90.0266 L 44.5365,-90.0734 L 44.3613,-90.1427 L 44.1963,-90.2335 L 44.0439,-90.3442
 L 43.9065,-90.4732 L 43.7865,-90.6183 L 43.6855,-90.7774 L 43.6053,-90.9478 L 43.5471,-91.127 L 43.5118,-91.312
 L 43.5,-91.5 L 43.5118,-91.688 L 43.5471,-91.873 L 43.6053,-92.0522 L 43.6855,-92.2226 L 43.7865,-92.3817
 L 43.9065,-92.5268 L 44.0439,-92.6558 L 44.1963,-92.7665 L 44.3613,-92.8572 L 44.5365,-92.9266 L 44.7189,-92.9734
 L 44.9058,-92.997 L 45.0942,-92.997 L 45.2811,-92.9734 L 45.4635,-92.9266 L 45.6387,-92.8572 L 45.8037,-92.7665
 L 45.9561,-92.6558 L 46.0934,-92.5268 L 46.2135,-92.3817 L 46.3145,-92.2226 L 46.3947,-92.0522 L 46.4529,-91.873
 L 46.4882,-91.688 L 46.5,-91.5 L 46.4882,-91.312 L 46.4529,-91.127 L 46.3947,-90.9478 L 46.3145,-90.7774
 L 46.2135,-90.6183 L 46.0934,-90.4732 L 45.9561,-90.3442 L 45.8037,-90.2335 L 45.6387,-90.1427 L 45.4635,-90.0734
 L 45.2811,-90.0266 L 45.0942,-90.003 z
M 74.9058,-90.003 L 74.7189,-90.0266 L 74.5365,-90.0734 L 74.3613,-90.1427 L 74.1963,-90.2335 L 74.0439,-90.3442
 L 73.9065,-90.4732 L 73.7865,-90.6183 L 73.6855,-90.7774 L 73.6053,-90.9478 L 73.5471,-91.127 L 73.5118,-91.312
 L 73.5,-91.5 L 73.5118,-91.688 L 73.5471,-91.873 L 73.6053,-92.0522 L 73.6855,-92.2226 L 73.7865,-92.3817
 L 73.9065,-92.5268 L 74.0439,-92.6558 L 74.1963,-92.7665 L 74.3613,-92.8572 L 74.5365,-92.9266 L 74.7189,-92.9734
 L 74.9058,-92.997 L 75.0942,-92.997 L 75.2811,-92.9734 L 75.4635,-92.9266 L 75.6387,-92.8572 L 75.8037,-92.7665
 L 75.9561,-92.6558 L 76.0934,-92.5268 L 76.2135,-92.3817 L 76.3145,-92.2226 L 76.3947,-92.0522 L 76.4529,-91.873
 L 76.4882,-91.688 L 76.5,-91.5 L 76.4882,-91.312 L 76.4529,-91.127 L 76.3947,-90.9478 L 76.3145,-90.7774
 L 76.2135,-90.6183 L 76.0934,-90.4732 L 75.9561,-90.3442 L 75.8037,-90.2335 L 75.6387,-90.1427 L 75.4635,-90.0734
 L 75.2811,-90.0266 L 75.0942,-90.003 z
M -30.0942,-90.003 L -30.2811,-90.0266 L -30.4635,-90.0734 L -30.6387,-90.1427 L -30.8037,-90.2335 L -30.9561,-90.3442
 L -31.0934,-90.4732 L -31.2135,-90.6183 L -31.3145,-90.7774 L -31.3947,-90.9478 L -31.4529,-91.127 L -31.4882,-91.312
 L -31.5,-91.5 L -31.4882,-91.688 L -31.4529,-91.873 L -31.3947,-92.0522 L -31.3145,-92.2226 L -31.2135,-92.3817
 L -31.0934,-92.5268 L -30.9561,-92.6558 L -30.8037,-92.7665 L -30.6387,-92.8572 L -30.4635,-92.9266 L -30.2811,-92.9734
 L -30.0942,-92.997 L -29.9058,-92.997 L -29.7189,-92.9734 L -29.5365,-92.9266 L -29.3613,-92.8572 L -29.1963,-92.7665
 L -29.0439,-92.6558 L -28.9065,-92.5268 L -28.7865,-92.3817 L -28.6855,-92.2226 L -28.6053,-92.0522 L -28.5471,-91.873
 L -28.5118,-91.688 L -28.5,-91.5 L -28.5118,-91.312 L -28.5471,-91.127 L -28.6053,-90.9478 L -28.6855,-90.7774
 L -28.7865,-90.6183 L -28.9065,-90.4732 L -29.0439,-90.3442 L -29.1963,-90.2335 L -29.3613,-90.1427 L -29.5365,-90.0734
 L -29.7189,-90.0266 L -29.9058,-90.003 z
M -15.0942,-90.003 L -15.2811,-90.0266 L -15.4635,-90.0734 L -15.6387,-90.1427 L -15.8037,-90.2335 L -15.9561,-90.3442
 L -16.0934,-90.4732 L -16.2135,-90.6183 L -16.3145,-90.7774 L -16.3947,-90.9478 L -16.4529,-91.127 L -16.4882,-91.312
 L -16.5,-91.5 L -16.4882,-91.688 L -16.4529,-91.873 L -16.3947,-92.0522 L -16.3145,-92.2226 L -16.2135,-92.3817
 L -16.0934,-92.5268 L -15.9561,-92.6558 L -15.8037,-92.7665 L -15.6387,-92.8572 L -15.4635,-92.9266 L -15.2811,-92.9734
 L -15.0942,-92.997 L -14.9058,-92.997 L -14.7189,-92.9734 L -14.5365,-92.9266 L -14.3613,-92.8572 L -14.1963,-92.7665
 L -14.0439,-92.6558 L -13.9065,-92.5268 L -13.7865,-92.3817 L -13.6855,-92.2226 L -13.6053,-92.0522 L -13.5471,-91.873
 L -13.5118,-91.688 L -13.5,-91.5 L -13.5118,-91.312 L -13.5471,-91.127 L -13.6053,-90.9478 L -13.6855,-90.7774
 L -13.7865,-90.6183 L -13.9065,-90.4732 L -14.0439,-90.3442 L -14.1963,-90.2335 L -14.3613,-90.1427 L -14.5365,-90.0734
 L -14.7189,-90.0266 L -14.9058,-90.003 z
M 59.9058,-90.003 L 59.7189,-90.0266 L 59.5365,-90.0734 L 59.3613,-90.1427 L 59.1963,-90.2335 L 59.0439,-90.3442
 L 58.9065,-90.4732 L 58.7865,-90.6183 L 58.6855,-90.7774 L 58.6053,-90.9478 L 58.5471,-91.127 L 58.5118,-91.312
 L 58.5,-91.5 L 58.5118,-91.688 L 58.5471,-91.873 L 58.6053,-92.0522 L 58.6855,-92.2226 L 58.7865,-92.3817
 L 58.9065,-92.5268 L 59.0439,-92.6558 L 59.1963,-92.7665 L 59.3613,-92.8572 L 59.5365,-92.9266 L 59.7189,-92.9734
 L 59.9058,-92.997 L 60.0942,-92.997 L 60.2811,-92.9734 L 60.4635,-92.9266 L 60.6387,-92.8572 L 60.8037,-92.7665
 L 60.9561,-92.6558 L 61.0934,-92.5268 L 61.2135,-92.3817 L 61.3145,-92.2226 L 61.3947,-92.0522 L 61.4529,-91.873
 L 61.4882,-91.688 L 61.5,-91.5 L 61.4882,-91.312 L 61.4529,-91.127 L 61.3947,-90.9478 L 61.3145,-90.7774
 L 61.2135,-90.6183 L 61.0934,-90.4732 L 60.9561,-90.3442 L 60.8037,-90.2335 L 60.6387,-90.1427 L 60.4635,-90.0734
 L 60.2811,-90.0266 L 60.0942,-90.003 z
M -68.9105,-54.5286 L -70.717,-54.7568 L -72.4807,-55.2097 L -74.1738,-55.88 L -75.7695,-56.7572 L -77.2426,-57.8276
 L -78.57,-59.0741 L -79.7307,-60.4771 L -80.7064,-62.0146 L -81.4818,-63.6622 L -82.0444,-65.394 L -82.3857,-67.1827
 L -82.5,-69 L -82.3857,-70.8173 L -82.0444,-72.606 L -81.4818,-74.3378 L -80.7064,-75.9854 L -79.7307,-77.5229
 L -78.57,-78.9259 L -77.2426,-80.1724 L -75.7695,-81.2428 L -74.1738,-82.12 L -72.4807,-82.7903 L -70.717,-83.2432
 L -68.9105,-83.4714 L -67.0895,-83.4714 L -65.283,-83.2432 L -63.5192,-82.7903 L -61.8262,-82.12 L -60.2305,-81.2428
 L -58.7573,-80.1724 L -57.4299,-78.9259 L -56.2692,-77.5229 L -55.2935,-75.9854 L -54.5182,-74.3378 L -53.9555,-72.606
 L -53.6143,-70.8173 L -53.5,-69 L -53.6143,-67.1827 L -53.9555,-65.394 L -54.5182,-63.6622 L -55.2935,-62.0146
 L -56.2692,-60.4771 L -57.4299,-59.0741 L -58.7573,-57.8276 L -60.2305,-56.7572 L -61.8262,-55.88 L -63.5192,-55.2097
 L -65.283,-54.7568 L -67.0895,-54.5286 z
M -0.910461,-54.5286 L -2.71703,-54.7568 L -4.48074,-55.2097 L -6.1738,-55.88 L -7.76949,-56.7572 L -9.24265,-57.8276
 L -10.57,-59.0741 L -11.7307,-60.4771 L -12.7064,-62.0146 L -13.4818,-63.6622 L -14.0444,-65.394 L -14.3857,-67.1827
 L -14.5,-69 L -14.3857,-70.8173 L -14.0444,-72.606 L -13.4818,-74.3378 L -12.7064,-75.9854 L -11.7307,-77.5229
 L -10.57,-78.9259 L -9.24265,-80.1724 L -7.76949,-81.2428 L -6.1738,-82.12 L -4.48074,-82.7903 L -2.71703,-83.2432
 L -0.910461,-83.4714 L 0.910461,-83.4714 L 2.71703,-83.2432 L 4.48074,-82.7903 L 6.1738,-82.12 L 7.76949,-81.2428
 L 9.24265,-80.1724 L 10.57,-78.9259 L 11.7307,-77.5229 L 12.7064,-75.9854 L 13.4818,-74.3378 L 14.0444,-72.606
 L 14.3857,-70.8173 L 14.5,-69 L 14.3857,-67.1827 L 14.0444,-65.394 L 13.4818,-63.6622 L 12.7064,-62.0146
 L 11.7307,-60.4771 L 10.57,-59.0741 L 9.24265,-57.8276 L 7.76949,-56.7572 L 6.1738,-55.88 L 4.48074,-55.2097
 L 2.71703,-54.7568 L 0.910461,-54.5286 z
M 33.0895,-54.5286 L 31.283,-54.7568 L 29.5192,-55.2097 L 27.8262,-55.88 L 26.2305,-56.7572 L 24.7573,-57.8276
 L 23.4299,-59.0741 L 22.2692,-60.4771 L 21.2935,-62.0146 L 20.5182,-63.6622 L 19.9555,-65.394 L 19.6143,-67.1827
 L 19.5,-69 L 19.6143,-70.8173 L 19.9555,-72.606 L 20.5182,-74.3378 L 21.2935,-75.9854 L 22.2692,-77.5229
 L 23.4299,-78.9259 L 24.7573,-80.1724 L 26.2305,-81.2428 L 27.8262,-82.12 L 29.5192,-82.7903 L 31.283,-83.2432
 L 33.0895,-83.4714 L 34.9105,-83.4714 L 36.717,-83.2432 L 38.4807,-82.7903 L 40.1738,-82.12 L 41.7695,-81.2428
 L 43.2426,-80.1724 L 44.57,-78.9259 L 45.7307,-77.5229 L 46.7064,-75.9854 L 47.4818,-74.3378 L 48.0444,-72.606
 L 48.3857,-70.8173 L 48.5,-69 L 48.3857,-67.1827 L 48.0444,-65.394 L 47.4818,-63.6622 L 46.7064,-62.0146
 L 45.7307,-60.4771 L 44.57,-59.0741 L 43.2426,-57.8276 L 41.7695,-56.7572 L 40.1738,-55.88 L 38.4807,-55.2097
 L 36.717,-54.7568 L 34.9105,-54.5286 z
M -34.9105,-54.5286 L -36.717,-54.7568 L -38.4807,-55.2097 L -40.1738,-55.88 L -41.7695,-56.7572 L -43.2426,-57.8276
 L -44.57,-59.0741 L -45.7307,-60.4771 L -46.7064,-62.0146 L -47.4818,-63.6622 L -48.0444,-65.394 L -48.3857,-67.1827
 L -48.5,-69 L -48.3857,-70.8173 L -48.0444,-72.606 L -47.4818,-74.3378 L -46.7064,-75.9854 L -45.7307,-77.5229
 L -44.57,-78.9259 L -43.2426,-80.1724 L -41.7695,-81.2428 L -40.1738,-82.12 L -38.4807,-82.7903 L -36.717,-83.2432
 L -34.9105,-83.4714 L -33.0895,-83.4714 L -31.283,-83.2432 L -29.5192,-82.7903 L -27.8262,-82.12 L -26.2305,-81.2428
 L -24.7573,-80.1724 L -23.4299,-78.9259 L -22.2692,-77.5229 L -21.2935,-75.9854 L -20.5182,-74.3378 L -19.9555,-72.606
 L -19.6143,-70.8173 L -19.5,-69 L -19.6143,-67.1827 L -19.9555,-65.394 L -20.5182,-63.6622 L -21.2935,-62.0146
 L -22.2692,-60.4771 L -23.4299,-59.0741 L -24.7573,-57.8276 L -26.2305,-56.7572 L -27.8262,-55.88 L -29.5192,-55.2097
 L -31.283,-54.7568 L -33.0895,-54.5286 z
M 67.0895,-54.5286 L 65.283,-54.7568 L 63.5192,-55.2097 L 61.8262,-55.88 L 60.2305,-56.7572 L 58.7573,-57.8276
 L 57.4299,-59.0741 L 56.2692,-60.4771 L 55.2935,-62.0146 L 54.5182,-63.6622 L 53.9555,-65.394 L 53.6143,-67.1827
 L 53.5,-69 L 53.6143,-70.8173 L 53.9555,-72.606 L 54.5182,-74.3378 L 55.2935,-75.9854 L 56.2692,-77.5229
 L 57.4299,-78.9259 L 58.7573,-80.1724 L 60.2305,-81.2428 L 61.8262,-82.12 L 63.5192,-82.7903 L 65.283,-83.2432
 L 67.0895,-83.4714 L 68.9105,-83.4714 L 70.717,-83.2432 L 72.4807,-82.7903 L 74.1738,-82.12 L 75.7695,-81.2428
 L 77.2426,-80.1724 L 78.57,-78.9259 L 79.7307,-77.5229 L 80.7064,-75.9854 L 81.4818,-74.3378 L 82.0444,-72.606
 L 82.3857,-70.8173 L 82.5,-69 L 82.3857,-67.1827 L 82.0444,-65.394 L 81.4818,-63.6622 L 80.7064,-62.0146
 L 79.7307,-60.4771 L 78.57,-59.0741 L 77.2426,-57.8276 L 75.7695,-56.7572 L 74.1738,-55.88 L 72.4807,-55.2097
 L 70.717,-54.7568 L 68.9105,-54.5286 z
M -22.6884,-43.5059 L -23.0621,-43.5531 L -23.427,-43.6468 L -23.7773,-43.7855 L -24.1075,-43.967 L -24.4123,-44.1885
 L -24.6869,-44.4464 L -24.927,-44.7366 L -25.1289,-45.0547 L -25.2893,-45.3956 L -25.4057,-45.7539 L -25.4763,-46.124
 L -25.5,-46.5 L -25.4763,-46.876 L -25.4057,-47.2461 L -25.2893,-47.6044 L -25.1289,-47.9453 L -24.927,-48.2634
 L -24.6869,-48.5536 L -24.4123,-48.8116 L -24.1075,-49.033 L -23.7773,-49.2145 L -23.427,-49.3532 L -23.0621,-49.4469
 L -22.6884,-49.4941 L -22.3116,-49.4941 L -21.9379,-49.4469 L -21.5729,-49.3532 L -21.2227,-49.2145 L -20.8925,-49.033
 L -20.5877,-48.8116 L -20.3131,-48.5536 L -20.0729,-48.2634 L -19.8711,-47.9453 L -19.7107,-47.6044 L -19.5942,-47.2461
 L -19.5237,-46.876 L -19.5,-46.5 L -19.5237,-46.124 L -19.5942,-45.7539 L -19.7107,-45.3956 L -19.8711,-45.0547
 L -20.0729,-44.7366 L -20.3131,-44.4464 L -20.5877,-44.1885 L -20.8925,-43.967 L -21.2227,-43.7855 L -21.5729,-43.6468
 L -21.9379,-43.5531 L -22.3116,-43.5059 z
M 22.3116,-43.5059 L 21.9379,-43.5531 L 21.5729,-43.6468 L 21.2227,-43.7855 L 20.8925,-43.967 L 20.5877,-44.1885
 L 20.3131,-44.4464 L 20.0729,-44.7366 L 19.8711,-45.0547 L 19.7107,-45.3956 L 19.5942,-45.7539 L 19.5237,-46.124
 L 19.5,-46.5 L 19.5237,-46.876 L 19.5942,-47.2461 L 19.7107,-47.6044 L 19.8711,-47.9453 L 20.0729,-48.2634
 L 20.3131,-48.5536 L 20.5877,-48.8116 L 20.8925,-49.033 L 21.2227,-49.2145 L 21.5729,-49.3532 L 21.9379,-49.4469
 L 22.3116,-49.4941 L 22.6884,-49.4941 L 23.0621,-49.4469 L 23.427,-49.3532 L 23.7773,-49.2145 L 24.1075,-49.033
 L 24.4123,-48.8116 L 24.6869,-48.5536 L 24.927,-48.2634 L 25.1289,-47.9453 L 25.2893,-47.6044 L 25.4057,-47.2461
 L 25.4763,-46.876 L 25.5,-46.5 L 25.4763,-46.124 L 25.4057,-45.7539 L 25.2893,-45.3956 L 25.1289,-45.0547
 L 24.927,-44.7366 L 24.6869,-44.4464 L 24.4123,-44.1885 L 24.1075,-43.967 L 23.7773,-43.7855 L 23.427,-43.6468
 L 23.0621,-43.5531 L 22.6884,-43.5059 z
M 82.3116,-43.5059 L 81.9379,-43.5531 L 81.573,-43.6468 L 81.2227,-43.7855 L 80.8925,-43.967 L 80.5877,-44.1885
 L 80.3131,-44.4464 L 80.073,-44.7366 L 79.8711,-45.0547 L 79.7107,-45.3956 L 79.5943,-45.7539 L 79.5237,-46.124
 L 79.5,-46.5 L 79.5237,-46.876 L 79.5943,-47.2461 L 79.7107,-47.6044 L 79.8711,-47.9453 L 80.073,-48.2634
 L 80.3131,-48.5536 L 80.5877,-48.8116 L 80.8925,-49.033 L 81.2227,-49.2145 L 81.573,-49.3532 L 81.9379,-49.4469
 L 82.3116,-49.4941 L 82.6884,-49.4941 L 83.0621,-49.4469 L 83.427,-49.3532 L 83.7773,-49.2145 L 84.1075,-49.033
 L 84.4123,-48.8116 L 84.6869,-48.5536 L 84.927,-48.2634 L 85.1289,-47.9453 L 85.2893,-47.6044 L 85.4057,-47.2461
 L 85.4763,-46.876 L 85.5,-46.5 L 85.4763,-46.124 L 85.4057,-45.7539 L 85.2893,-45.3956 L 85.1289,-45.0547
 L 84.927,-44.7366 L 84.6869,-44.4464 L 84.4123,-44.1885 L 84.1075,-43.967 L 83.7773,-43.7855 L 83.427,-43.6468
 L 83.0621,-43.5531 L 82.6884,-43.5059 z
M -7.68837,-43.5059 L -8.06213,-43.5531 L -8.42705,-43.6468 L -8.77733,-43.7855 L -9.10747,-43.967 L -9.41226,-44.1885
 L -9.6869,-44.4464 L -9.92705,-44.7366 L -10.1289,-45.0547 L -10.2893,-45.3956 L -10.4057,-45.7539 L -10.4763,-46.124
 L -10.5,-46.5 L -10.4763,-46.876 L -10.4057,-47.2461 L -10.2893,-47.6044 L -10.1289,-47.9453 L -9.92705,-48.2634
 L -9.6869,-48.5536 L -9.41226,-48.8116 L -9.10747,-49.033 L -8.77733,-49.2145 L -8.42705,-49.3532 L -8.06213,-49.4469
 L -7.68837,-49.4941 L -7.31161,-49.4941 L -6.93785,-49.4469 L -6.57294,-49.3532 L -6.22266,-49.2145 L -5.89252,-49.033
 L -5.58772,-48.8116 L -5.31308,-48.5536 L -5.07294,-48.2634 L -4.87108,-47.9453 L -4.71066,-47.6044 L -4.59424,-47.2461
 L -4.52365,-46.876 L -4.5,-46.5 L -4.52365,-46.124 L -4.59424,-45.7539 L -4.71066,-45.3956 L -4.87108,-45.0547
 L -5.07294,-44.7366 L -5.31308,-44.4464 L -5.58772,-44.1885 L -5.89252,-43.967 L -6.22266,-43.7855 L -6.57294,-43.6468
 L -6.93785,-43.5531 L -7.31161,-43.5059 z
M 37.3116,-43.5059 L 36.9379,-43.5531 L 36.5729,-43.6468 L 36.2227,-43.7855 L 35.8925,-43.967 L 35.5877,-44.1885
 L 35.3131,-44.4464 L 35.0729,-44.7366 L 34.8711,-45.0547 L 34.7107,-45.3956 L 34.5942,-45.7539 L 34.5237,-46.124
 L 34.5,-46.5 L 34.5237,-46.876 L 34.5942,-47.2461 L 34.7107,-47.6044 L 34.8711,-47.9453 L 35.0729,-48.2634
 L 35.3131,-48.5536 L 35.5877,-48.8116 L 35.8925,-49.033 L 36.2227,-49.2145 L 36.5729,-49.3532 L 36.9379,-49.4469
 L 37.3116,-49.4941 L 37.6884,-49.4941 L 38.0621,-49.4469 L 38.427,-49.3532 L 38.7773,-49.2145 L 39.1075,-49.033
 L 39.4123,-48.8116 L 39.6869,-48.5536 L 39.927,-48.2634 L 40.1289,-47.9453 L 40.2893,-47.6044 L 40.4057,-47.2461
 L 40.4763,-46.876 L 40.5,-46.5 L 40.4763,-46.124 L 40.4057,-45.7539 L 40.2893,-45.3956 L 40.1289,-45.0547
 L 39.927,-44.7366 L 39.6869,-44.4464 L 39.4123,-44.1885 L 39.1075,-43.967 L 38.7773,-43.7855 L 38.427,-43.6468
 L 38.0621,-43.5531 L 37.6884,-43.5059 z
M -52.6884,-43.5059 L -53.0621,-43.5531 L -53.427,-43.6468 L -53.7773,-43.7855 L -54.1075,-43.967 L -54.4123,-44.1885
 L -54.6869,-44.4464 L -54.927,-44.7366 L -55.1289,-45.0547 L -55.2893,-45.3956 L -55.4057,-45.7539 L -55.4763,-46.124
 L -55.5,-46.5 L -55.4763,-46.876 L -55.4057,-47.2461 L -55.2893,-47.6044 L -55.1289,-47.9453 L -54.927,-48.2634
 L -54.6869,-48.5536 L -54.4123,-48.8116 L -54.1075,-49.033 L -53.7773,-49.2145 L -53.427,-49.3532 L -53.0621,-49.4469
 L -52.6884,-49.4941 L -52.3116,-49.4941 L -51.9379,-49.4469 L -51.5729,-49.3532 L -51.2227,-49.2145 L -50.8925,-49.033
 L -50.5877,-48.8116 L -50.3131,-48.5536 L -50.0729,-48.2634 L -49.8711,-47.9453 L -49.7107,-47.6044 L -49.5942,-47.2461
 L -49.5237,-46.876 L -49.5,-46.5 L -49.5237,-46.124 L -49.5942,-45.7539 L -49.7107,-45.3956 L -49.8711,-45.0547
 L -50.0729,-44.7366 L -50.3131,-44.4464 L -50.5877,-44.1885 L -50.8925,-43.967 L -51.2227,-43.7855 L -51.5729,-43.6468
 L -51.9379,-43.5531 L -52.3116,-43.5059 z
M 52.3116,-43.5059 L 51.9379,-43.5531 L 51.5729,-43.6468 L 51.2227,-43.7855 L 50.8925,-43.967 L 50.5877,-44.1885
 L 50.3131,-44.4464 L 50.0729,-44.7366 L 49.8711,-45.0547 L 49.7107,-45.3956 L 49.5942,-45.7539 L 49.5237,-46.124
 L 49.5,-46.5 L 49.5237,-46.876 L 49.5942,-47.2461 L 49.7107,-47.6044 L 49.8711,-47.9453 L 50.0729,-48.2634
 L 50.3131,-48.5536 L 50.5877,-48.8116 L 50.8925,-49.033 L 51.2227,-49.2145 L 51.5729,-49.3532 L 51.9379,-49.4469
 L 52.3116,-49.4941 L 52.6884,-49.4941 L 53.0621,-49.4469 L 53.427,-49.3532 L 53.7773,-49.2145 L 54.1075,-49.033
 L 54.4123,-48.8116 L 54.6869,-48.5536 L 54.927,-48.2634 L 55.1289,-47.9453 L 55.2893,-47.6044 L 55.4057,-47.2461
 L 55.4763,-46.876 L 55.5,-46.5 L 55.4763,-46.124 L 55.4057,-45.7539 L 55.2893,-45.3956 L 55.1289,-45.0547
 L 54.927,-44.7366 L 54.6869,-44.4464 L 54.4123,-44.1885 L 54.1075,-43.967 L 53.7773,-43.7855 L 53.427,-43.6468
 L 53.0621,-43.5531 L 52.6884,-43.5059 z
M -37.6884,-43.5059 L -38.0621,-43.5531 L -38.427,-43.6468 L -38.7773,-43.7855 L -39.1075,-43.967 L -39.4123,-44.1885
 L -39.6869,-44.4464 L -39.927,-44.7366 L -40.1289,-45.0547 L -40.2893,-45.3956 L -40.4057,-45.7539 L -40.4763,-46.124
 L -40.5,-46.5 L -40.4763,-46.876 L -40.4057,-47.2461 L -40.2893,-47.6044 L -40.1289,-47.9453 L -39.927,-48.2634
 L -39.6869,-48.5536 L -39.4123,-48.8116 L -39.1075,-49.033 L -38.7773,-49.2145 L -38.427,-49.3532 L -38.0621,-49.4469
 L -37.6884,-49.4941 L -37.3116,-49.4941 L -36.9379,-49.4469 L -36.5729,-49.3532 L -36.2227,-49.2145 L -35.8925,-49.033
 L -35.5877,-48.8116 L -35.3131,-48.5536 L -35.0729,-48.2634 L -34.8711,-47.9453 L -34.7107,-47.6044 L -34.5942,-47.2461
 L -34.5237,-46.876 L -34.5,-46.5 L -34.5237,-46.124 L -34.5942,-45.7539 L -34.7107,-45.3956 L -34.8711,-45.0547
 L -35.0729,-44.7366 L -35.3131,-44.4464 L -35.5877,-44.1885 L -35.8925,-43.967 L -36.2227,-43.7855 L -36.5729,-43.6468
 L -36.9379,-43.5531 L -37.3116,-43.5059 z
M 7.31161,-43.5059 L 6.93785,-43.5531 L 6.57294,-43.6468 L 6.22266,-43.7855 L 5.89252,-43.967 L 5.58772,-44.1885
 L 5.31308,-44.4464 L 5.07294,-44.7366 L 4.87108,-45.0547 L 4.71066,-45.3956 L 4.59424,-45.7539 L 4.52365,-46.124
 L 4.5,-46.5 L 4.52365,-46.876 L 4.59424,-47.2461 L 4.71066,-47.6044 L 4.87108,-47.9453 L 5.07294,-48.2634
 L 5.31308,-48.5536 L 5.58772,-48.8116 L 5.89252,-49.033 L 6.22266,-49.2145 L 6.57294,-49.3532 L 6.93785,-49.4469
 L 7.31161,-49.4941 L 7.68837,-49.4941 L 8.06213,-49.4469 L 8.42705,-49.3532 L 8.77733,-49.2145 L 9.10747,-49.033
 L 9.41226,-48.8116 L 9.6869,-48.5536 L 9.92705,-48.2634 L 10.1289,-47.9453 L 10.2893,-47.6044 L 10.4057,-47.2461
 L 10.4763,-46.876 L 10.5,-46.5 L 10.4763,-46.124 L 10.4057,-45.7539 L 10.2893,-45.3956 L 10.1289,-45.0547
 L 9.92705,-44.7366 L 9.6869,-44.4464 L 9.41226,-44.1885 L 9.10747,-43.967 L 8.77733,-43.7855 L 8.42705,-43.6468
 L 8.06213,-43.5531 L 7.68837,-43.5059 z
M -67.6884,-43.5059 L -68.0621,-43.5531 L -68.427,-43.6468 L -68.7773,-43.7855 L -69.1075,-43.967 L -69.4123,-44.1885
 L -69.6869,-44.4464 L -69.927,-44.7366 L -70.1289,-45.0547 L -70.2893,-45.3956 L -70.4057,-45.7539 L -70.4763,-46.124
 L -70.5,-46.5 L -70.4763,-46.876 L -70.4057,-47.2461 L -70.2893,-47.6044 L -70.1289,-47.9453 L -69.927,-48.2634
 L -69.6869,-48.5536 L -69.4123,-48.8116 L -69.1075,-49.033 L -68.7773,-49.2145 L -68.427,-49.3532 L -68.0621,-49.4469
 L -67.6884,-49.4941 L -67.3116,-49.4941 L -66.9379,-49.4469 L -66.573,-49.3532 L -66.2227,-49.2145 L -65.8925,-49.033
 L -65.5877,-48.8116 L -65.3131,-48.5536 L -65.073,-48.2634 L -64.8711,-47.9453 L -64.7107,-47.6044 L -64.5943,-47.2461
 L -64.5237,-46.876 L -64.5,-46.5 L -64.5237,-46.124 L -64.5943,-45.7539 L -64.7107,-45.3956 L -64.8711,-45.0547
 L -65.073,-44.7366 L -65.3131,-44.4464 L -65.5877,-44.1885 L -65.8925,-43.967 L -66.2227,-43.7855 L -66.573,-43.6468
 L -66.9379,-43.5531 L -67.3116,-43.5059 z
M 67.3116,-43.5059 L 66.9379,-43.5531 L 66.573,-43.6468 L 66.2227,-43.7855 L 65.8925,-43.967 L 65.5877,-44.1885
 L 65.3131,-44.4464 L 65.073,-44.7366 L 64.8711,-45.0547 L 64.7107,-45.3956 L 64.5943,-45.7539 L 64.5237,-46.124
 L 64.5,-46.5 L 64.5237,-46.876 L 64.5943,-47.2461 L 64.7107,-47.6044 L 64.8711,-47.9453 L 65.073,-48.2634
 L 65.3131,-48.5536 L 65.5877,-48.8116 L 65.8925,-49.033 L 66.2227,-49.2145 L 66.573,-49.3532 L 66.9379,-49.4469
 L 67.3116,-49.4941 L 67.6884,-49.4941 L 68.0621,-49.4469 L 68.427,-49.3532 L 68.7773,-49.2145 L 69.1075,-49.033
 L 69.4123,-48.8116 L 69.6869,-48.5536 L 69.927,-48.2634 L 70.1289,-47.9453 L 70.2893,-47.6044 L 70.4057,-47.2461
 L 70.4763,-46.876 L 70.5,-46.5 L 70.4763,-46.124 L 70.4057,-45.7539 L 70.2893,-45.3956 L 70.1289,-45.0547
 L 69.927,-44.7366 L 69.6869,-44.4464 L 69.4123,-44.1885 L 69.1075,-43.967 L 68.7773,-43.7855 L 68.427,-43.6468
 L 68.0621,-43.5531 L 67.6884,-43.5059 z
M -82.6884,-43.5059 L -83.0621,-43.5531 L -83.427,-43.6468 L -83.7773,-43.7855 L -84.1075,-43.967 L -84.4123,-44.1885
 L -84.6869,-44.4464 L -84.927,-44.7366 L -85.1289,-45.0547 L -85.2893,-45.3956 L -85.4057,-45.7539 L -85.4763,-46.124
 L -85.5,-46.5 L -85.4763,-46.876 L -85.4057,-47.2461 L -85.2893,-47.6044 L -85.1289,-47.9453 L -84.927,-48.2634
 L -84.6869,-48.5536 L -84.4123,-48.8116 L -84.1075,-49.033 L -83.7773,-49.2145 L -83.427,-49.3532 L -83.0621,-49.4469
 L -82.6884,-49.4941 L -82.3116,-49.4941 L -81.9379,-49.4469 L -81.573,-49.3532 L -81.2227,-49.2145 L -80.8925,-49.033
 L -80.5877,-48.8116 L -80.3131,-48.5536 L -80.073,-48.2634 L -79.8711,-47.9453 L -79.7107,-47.6044 L -79.5943,-47.2461
 L -79.5237,-46.876 L -79.5,-46.5 L -79.5237,-46.124 L -79.5943,-45.7539 L -79.7107,-45.3956 L -79.8711,-45.0547
 L -80.073,-44.7366 L -80.3131,-44.4464 L -80.5877,-44.1885 L -80.8925,-43.967 L -81.2227,-43.7855 L -81.573,-43.6468
 L -81.9379,-43.5531 L -82.3116,-43.5059 z
M 29.9058,-45.003 L 29.7189,-45.0266 L 29.5365,-45.0734 L 29.3613,-45.1428 L 29.1963,-45.2335 L 29.0439,-45.3442
 L 28.9065,-45.4732 L 28.7865,-45.6183 L 28.6855,-45.7774 L 28.6053,-45.9478 L 28.5471,-46.127 L 28.5118,-46.312
 L 28.5,-46.5 L 28.5118,-46.688 L 28.5471,-46.873 L 28.6053,-47.0522 L 28.6855,-47.2226 L 28.7865,-47.3817
 L 28.9065,-47.5268 L 29.0439,-47.6558 L 29.1963,-47.7665 L 29.3613,-47.8573 L 29.5365,-47.9266 L 29.7189,-47.9734
 L 29.9058,-47.997 L 30.0942,-47.997 L 30.2811,-47.9734 L 30.4635,-47.9266 L 30.6387,-47.8573 L 30.8037,-47.7665
 L 30.9561,-47.6558 L 31.0934,-47.5268 L 31.2135,-47.3817 L 31.3145,-47.2226 L 31.3947,-47.0522 L 31.4529,-46.873
 L 31.4882,-46.688 L 31.5,-46.5 L 31.4882,-46.312 L 31.4529,-46.127 L 31.3947,-45.9478 L 31.3145,-45.7774
 L 31.2135,-45.6183 L 31.0934,-45.4732 L 30.9561,-45.3442 L 30.8037,-45.2335 L 30.6387,-45.1428 L 30.4635,-45.0734
 L 30.2811,-45.0266 L 30.0942,-45.003 z
M -0.0941772,-45.003 L -0.281067,-45.0266 L -0.463516,-45.0734 L -0.638657,-45.1428 L -0.803726,-45.2335 L -0.956131,-45.3442
 L -1.09344,-45.4732 L -1.21352,-45.6183 L -1.31445,-45.7774 L -1.39465,-45.9478 L -1.45287,-46.127 L -1.48816,-46.312
 L -1.5,-46.5 L -1.48816,-46.688 L -1.45287,-46.873 L -1.39465,-47.0522 L -1.31445,-47.2226 L -1.21352,-47.3817
 L -1.09344,-47.5268 L -0.956131,-47.6558 L -0.803726,-47.7665 L -0.638657,-47.8573 L -0.463516,-47.9266 L -0.281067,-47.9734
 L -0.0941772,-47.997 L 0.0941772,-47.997 L 0.281067,-47.9734 L 0.463516,-47.9266 L 0.638657,-47.8573 L 0.803726,-47.7665
 L 0.956131,-47.6558 L 1.09344,-47.5268 L 1.21352,-47.3817 L 1.31445,-47.2226 L 1.39465,-47.0522 L 1.45287,-46.873
 L 1.48816,-46.688 L 1.5,-46.5 L 1.48816,-46.312 L 1.45287,-46.127 L 1.39465,-45.9478 L 1.31445,-45.7774
 L 1.21352,-45.6183 L 1.09344,-45.4732 L 0.956131,-45.3442 L 0.803726,-45.2335 L 0.638657,-45.1428 L 0.463516,-45.0734
 L 0.281067,-45.0266 L 0.0941772,-45.003 z
M 44.9058,-45.003 L 44.7189,-45.0266 L 44.5365,-45.0734 L 44.3613,-45.1428 L 44.1963,-45.2335 L 44.0439,-45.3442
 L 43.9065,-45.4732 L 43.7865,-45.6183 L 43.6855,-45.7774 L 43.6053,-45.9478 L 43.5471,-46.127 L 43.5118,-46.312
 L 43.5,-46.5 L 43.5118,-46.688 L 43.5471,-46.873 L 43.6053,-47.0522 L 43.6855,-47.2226 L 43.7865,-47.3817
 L 43.9065,-47.5268 L 44.0439,-47.6558 L 44.1963,-47.7665 L 44.3613,-47.8573 L 44.5365,-47.9266 L 44.7189,-47.9734
 L 44.9058,-47.997 L 45.0942,-47.997 L 45.2811,-47.9734 L 45.4635,-47.9266 L 45.6387,-47.8573 L 45.8037,-47.7665
 L 45.9561,-47.6558 L 46.0934,-47.5268 L 46.2135,-47.3817 L 46.3145,-47.2226 L 46.3947,-47.0522 L 46.4529,-46.873
 L 46.4882,-46.688 L 46.5,-46.5 L 46.4882,-46.312 L 46.4529,-46.127 L 46.3947,-45.9478 L 46.3145,-45.7774
 L 46.2135,-45.6183 L 46.0934,-45.4732 L 45.9561,-45.3442 L 45.8037,-45.2335 L 45.6387,-45.1428 L 45.4635,-45.0734
 L 45.2811,-45.0266 L 45.0942,-45.003 z
M -30.0942,-45.003 L -30.2811,-45.0266 L -30.4635,-45.0734 L -30.6387,-45.1428 L -30.8037,-45.2335 L -30.9561,-45.3442
 L -31.0934,-45.4732 L -31.2135,-45.6183 L -31.3145,-45.7774 L -31.3947,-45.9478 L -31.4529,-46.127 L -31.4882,-46.312
 L -31.5,-46.5 L -31.4882,-46.688 L -31.4529,-46.873 L -31.3947,-47.0522 L -31.3145,-47.2226 L -31.2135,-47.3817
 L -31.0934,-47.5268 L -30.9561,-47.6558 L -30.8037,-47.7665 L -30.6387,-47.8573 L -30.4635,-47.9266 L -30.2811,-47.9734
 L -30.0942,-47.997 L -29.9058,-47.997 L -29.7189,-47.9734 L -29.5365,-47.9266 L -29.3613,-47.8573 L -29.1963,-47.7665
 L -29.0439,-47.6558 L -28.9065,-47.5268 L -28.7865,-47.3817 L -28.6855,-47.2226 L -28.6053,-47.0522 L -28.5471,-46.873
 L -28.5118,-46.688 L -28.5,-46.5 L -28.5118,-46.312 L -28.5471,-46.127 L -28.6053,-45.9478 L -28.6855,-45.7774
 L -28.7865,-45.6183 L -28.9065,-45.4732 L -29.0439,-45.3442 L -29.1963,-45.2335 L -29.3613,-45.1428 L -29.5365,-45.0734
 L -29.7189,-45.0266 L -29.9058,-45.003 z
M 74.9058,-45.003 L 74.7189,-45.0266 L 74.5365,-45.0734 L 74.3613,-45.1428 L 74.1963,-45.2335 L 74.0439,-45.3442
 L 73.9065,-45.4732 L 73.7865,-45.6183 L 73.6855,-45.7774 L 73.6053,-45.9478 L 73.5471,-46.127 L 73.5118,-46.312
 L 73.5,-46.5 L 73.5118,-46.688 L 73.5471,-46.873 L 73.6053,-47.0522 L 73.6855,-47.2226 L 73.7865,-47.3817
 L 73.9065,-47.5268 L 74.0439,-47.6558 L 74.1963,-47.7665 L 74.3613,-47.8573 L 74.5365,-47.9266 L 74.7189,-47.9734
 L 74.9058,-47.997 L 75.0942,-47.997 L 75.2811,-47.9734 L 75.4635,-47.9266 L 75.6387,-47.8573 L 75.8037,-47.7665
 L 75.9561,-47.6558 L 76.0934,-47.5268 L 76.2135,-47.3817 L 76.3145,-47.2226 L 76.3947,-47.0522 L 76.4529,-46.873
 L 76.4882,-46.688 L 76.5,-46.5 L 76.4882,-46.312 L 76.4529,-46.127 L 76.3947,-45.9478 L 76.3145,-45.7774
 L 76.2135,-45.6183 L 76.0934,-45.4732 L 75.9561,-45.3442 L 75.8037,-45.2335 L 75.6387,-45.1428 L 75.4635,-45.0734
 L 75.2811,-45.0266 L 75.0942,-45.003 z
M -45.0942,-45.003 L -45.2811,-45.0266 L -45.4635,-45.0734 L -45.6387,-45.1428 L -45.8037,-45.2335 L -45.9561,-45.3442
 L -46.0934,-45.4732 L -46.2135,-45.6183 L -46.3145,-45.7774 L -46.3947,-45.9478 L -46.4529,-46.127 L -46.4882,-46.312
 L -46.5,-46.5 L -46.4882,-46.688 L -46.4529,-46.873 L -46.3947,-47.0522 L -46.3145,-47.2226 L -46.2135,-47.3817
 L -46.0934,-47.5268 L -45.9561,-47.6558 L -45.8037,-47.7665 L -45.6387,-47.8573 L -45.4635,-47.9266 L -45.2811,-47.9734
 L -45.0942,-47.997 L -44.9058,-47.997 L -44.7189,-47.9734 L -44.5365,-47.9266 L -44.3613,-47.8573 L -44.1963,-47.7665
 L -44.0439,-47.6558 L -43.9065,-47.5268 L -43.7865,-47.3817 L -43.6855,-47.2226 L -43.6053,-47.0522 L -43.5471,-46.873
 L -43.5118,-46.688 L -43.5,-46.5 L -43.5118,-46.312 L -43.5471,-46.127 L -43.6053,-45.9478 L -43.6855,-45.7774
 L -43.7865,-45.6183 L -43.9065,-45.4732 L -44.0439,-45.3442 L -44.1963,-45.2335 L -44.3613,-45.1428 L -44.5365,-45.0734
 L -44.7189,-45.0266 L -44.9058,-45.003 z
M -15.0942,-45.003 L -15.2811,-45.0266 L -15.4635,-45.0734 L -15.6387,-45.1428 L -15.8037,-45.2335 L -15.9561,-45.3442
 L -16.0934,-45.4732 L -16.2135,-45.6183 L -16.3145,-45.7774 L -16.3947,-45.9478 L -16.4529,-46.127 L -16.4882,-46.312
 L -16.5,-46.5 L -16.4882,-46.688 L -16.4529,-46.873 L -16.3947,-47.0522 L -16.3145,-47.2226 L -16.2135,-47.3817
 L -16.0934,-47.5268 L -15.9561,-47.6558 L -15.8037,-47.7665 L -15.6387,-47.8573 L -15.4635,-47.9266 L -15.2811,-47.9734
 L -15.0942,-47.997 L -14.9058,-47.997 L -14.7189,-47.9734 L -14.5365,-47.9266 L -14.3613,-47.8573 L -14.1963,-47.7665
 L -14.0439,-47.6558 L -13.9065,-47.5268 L -13.7865,-47.3817 L -13.6855,-47.2226 L -13.6053,-47.0522 L -13.5471,-46.873
 L -13.5118,-46.688 L -13.5,-46.5 L -13.5118,-46.312 L -13.5471,-46.127 L -13.6053,-45.9478 L -13.6855,-45.7774
 L -13.7865,-45.6183 L -13.9065,-45.4732 L -14.0439,-45.3442 L -14.1963,-45.2335 L -14.3613,-45.1428 L -14.5365,-45.0734
 L -14.7189,-45.0266 L -14.9058,-45.003 z
M 59.9058,-45.003 L 59.7189,-45.0266 L 59.5365,-45.0734 L 59.3613,-45.1428 L 59.1963,-45.2335 L 59.0439,-45.3442
 L 58.9065,-45.4732 L 58.7865,-45.6183 L 58.6855,-45.7774 L 58.6053,-45.9478 L 58.5471,-46.127 L 58.5118,-46.312
 L 58.5,-46.5 L 58.5118,-46.688 L 58.5471,-46.873 L 58.6053,-47.0522 L 58.6855,-47.2226 L 58.7865,-47.3817
 L 58.9065,-47.5268 L 59.0439,-47.6558 L 59.1963,-47.7665 L 59.3613,-47.8573 L 59.5365,-47.9266 L 59.7189,-47.9734
 L 59.9058,-47.997 L 60.0942,-47.997 L 60.2811,-47.9734 L 60.4635,-47.9266 L 60.6387,-47.8573 L 60.8037,-47.7665
 L 60.9561,-47.6558 L 61.0934,-47.5268 L 61.2135,-47.3817 L 61.3145,-47.2226 L 61.3947,-47.0522 L 61.4529,-46.873
 L 61.4882,-46.688 L 61.5,-46.5 L 61.4882,-46.312 L 61.4529,-46.127 L 61.3947,-45.9478 L 61.3145,-45.7774
 L 61.2135,-45.6183 L 61.0934,-45.4732 L 60.9561,-45.3442 L 60.8037,-45.2335 L 60.6387,-45.1428 L 60.4635,-45.0734
 L 60.2811,-45.0266 L 60.0942,-45.003 z
M 14.9058,-45.003 L 14.7189,-45.0266 L 14.5365,-45.0734 L 14.3613,-45.1428 L 14.1963,-45.2335 L 14.0439,-45.3442
 L 13.9065,-45.4732 L 13.7865,-45.6183 L 13.6855,-45.7774 L 13.6053,-45.9478 L 13.5471,-46.127 L 13.5118,-46.312
 L 13.5,-46.5 L 13.5118,-46.688 L 13.5471,-46.873 L 13.6053,-47.0522 L 13.6855,-47.2226 L 13.7865,-47.3817
 L 13.9065,-47.5268 L 14.0439,-47.6558 L 14.1963,-47.7665 L 14.3613,-47.8573 L 14.5365,-47.9266 L 14.7189,-47.9734
 L 14.9058,-47.997 L 15.0942,-47.997 L 15.2811,-47.9734 L 15.4635,-47.9266 L 15.6387,-47.8573 L 15.8037,-47.7665
 L 15.9561,-47.6558 L 16.0934,-47.5268 L 16.2135,-47.3817 L 16.3145,-47.2226 L 16.3947,-47.0522 L 16.4529,-46.873
 L 16.4882,-46.688 L 16.5,-46.5 L 16.4882,-46.312 L 16.4529,-46.127 L 16.3947,-45.9478 L 16.3145,-45.7774
 L 16.2135,-45.6183 L 16.0934,-45.4732 L 15.9561,-45.3442 L 15.8037,-45.2335 L 15.6387,-45.1428 L 15.4635,-45.0734
 L 15.2811,-45.0266 L 15.0942,-45.003 z
M -60.0942,-45.003 L -60.2811,-45.0266 L -60.4635,-45.0734 L -60.6387,-45.1428 L -60.8037,-45.2335 L -60.9561,-45.3442
 L -61.0934,-45.4732 L -61.2135,-45.6183 L -61.3145,-45.7774 L -61.3947,-45.9478 L -61.4529,-46.127 L -61.4882,-46.312
 L -61.5,-46.5 L -61.4882,-46.688 L -61.4529,-46.873 L -61.3947,-47.0522 L -61.3145,-47.2226 L -61.2135,-47.3817
 L -61.0934,-47.5268 L -60.9561,-47.6558 L -60.8037,-47.7665 L -60.6387,-47.8573 L -60.4635,-47.9266 L -60.2811,-47.9734
 L -60.0942,-47.997 L -59.9058,-47.997 L -59.7189,-47.9734 L -59.5365,-47.9266 L -59.3613,-47.8573 L -59.1963,-47.7665
 L -59.0439,-47.6558 L -58.9065,-47.5268 L -58.7865,-47.3817 L -58.6855,-47.2226 L -58.6053,-47.0522 L -58.5471,-46.873
 L -58.5118,-46.688 L -58.5,-46.5 L -58.5118,-46.312 L -58.5471,-46.127 L -58.6053,-45.9478 L -58.6855,-45.7774
 L -58.7865,-45.6183 L -58.9065,-45.4732 L -59.0439,-45.3442 L -59.1963,-45.2335 L -59.3613,-45.1428 L -59.5365,-45.0734
 L -59.7189,-45.0266 L -59.9058,-45.003 z
M -75.0942,-45.003 L -75.2811,-45.0266 L -75.4635,-45.0734 L -75.6387,-45.1428 L -75.8037,-45.2335 L -75.9561,-45.3442
 L -76.0934,-45.4732 L -76.2135,-45.6183 L -76.3145,-45.7774 L -76.3947,-45.9478 L -76.4529,-46.127 L -76.4882,-46.312
 L -76.5,-46.5 L -76.4882,-46.688 L -76.4529,-46.873 L -76.3947,-47.0522 L -76.3145,-47.2226 L -76.2135,-47.3817
 L -76.0934,-47.5268 L -75.9561,-47.6558 L -75.8037,-47.7665 L -75.6387,-47.8573 L -75.4635,-47.9266 L -75.2811,-47.9734
 L -75.0942,-47.997 L -74.9058,-47.997 L -74.7189,-47.9734 L -74.5365,-47.9266 L -74.3613,-47.8573 L -74.1963,-47.7665
 L -74.0439,-47.6558 L -73.9065,-47.5268 L -73.7865,-47.3817 L -73.6855,-47.2226 L -73.6053,-47.0522 L -73.5471,-46.873
 L -73.5118,-46.688 L -73.5,-46.5 L -73.5118,-46.312 L -73.5471,-46.127 L -73.6053,-45.9478 L -73.6855,-45.7774
 L -73.7865,-45.6183 L -73.9065,-45.4732 L -74.0439,-45.3442 L -74.1963,-45.2335 L -74.3613,-45.1428 L -74.5365,-45.0734
 L -74.7189,-45.0266 L -74.9058,-45.003 z
" stroke="black" fill="lightgray" stroke-width="0.5"/>
</svg>
