<?xml version="1.0" standalone="no"?>
<!DOCTYPE svg PUBLIC "-//W3C//DTD SVG 1.1//EN" "http://www.w3.org/Graphics/SVG/1.1/DTD/svg11.dtd">
<svg width="60mm" height="44mm" viewBox="-30 -22 60 44" xmlns="http://www.w3.org/2000/svg" version="1.1">
<title>OpenSCAD Model</title>
<path d="
M 25.4369,21.9114 L 26.0451,21.7553 L 26.6289,21.5241 L 27.1791,21.2216 L 27.6871,20.8526 L 28.1448,20.4227
 L 28.5451,19.9389 L 28.8815,19.4088 L 29.1489,18.8406 L 29.3429,18.2434 L 29.4606,17.6267 L 29.5,17
 L 29.5,-17 L 29.4606,-17.6267 L 29.3429,-18.2434 L 29.1489,-18.8406 L 28.8815,-19.4088 L 28.5451,-19.9389
 L 28.1448,-20.4227 L 27.6871,-20.8526 L 27.1791,-21.2216 L 26.6289,-21.5241 L 26.0451,-21.7553 L 25.4369,-21.9114
 L 24.8139,-21.9901 L -24.8139,-21.9901 L -25.4369,-21.9114 L -26.0451,-21.7553 L -26.6289,-21.5241 L -27.1791,-21.2216
 L -27.6871,-20.8526 L -28.1448,-20.4227 L -28.5451,-19.9389 L -28.8815,-19.4088 L -29.1489,-18.8406 L -29.3429,-18.2434
 L -29.4606,-17.6267 L -29.5,-17 L -29.5,17 L -29.4606,17.6267 L -29.3429,18.2434 L -29.1489,18.8406
 L -28.8815,19.4088 L -28.5451,19.9389 L -28.1448,20.4227 L -27.6871,20.8526 L -27.1791,21.2216 L -26.6289,21.5241
 L -26.0451,21.7553 L -25.4369,21.9114 L -24.8139,21.9901 L 24.8139,21.9901 z
M 22.3116,-12.0059 L 21.9379,-12.0531 L 21.5729,-12.1468 L 21.2227,-12.2855 L 20.8925,-12.467 L 20.5877,-12.6884
 L 20.3131,-12.9464 L 20.0729,-13.2366 L 19.8711,-13.5547 L 19.7107,-13.8956 L 19.5942,-14.2539 L 19.5237,-14.624
 L 19.5,-15 L 19.5237,-15.376 L 19.5942,-15.7461 L 19.7107,-16.1044 L 19.8711,-16.4453 L 20.0729,-16.7634
 L 20.3131,-17.0536 L 20.5877,-17.3115 L 20.8925,-17.533 L 21.2227,-17.7145 L 21.5729,-17.8532 L 21.9379,-17.9469
 L 22.3116,-17.9941 L 22.6884,-17.9941 L 23.0621,-17.9469 L 23.427,-17.8532 L 23.7773,-17.7145 L 24.1075,-17.533
 L 24.4123,-17.3115 L 24.6869,-17.0536 L 24.927,-16.7634 L 25.1289,-16.4453 L 25.2893,-16.1044 L 25.4057,-15.7461
 L 25.4763,-15.376 L 25.5,-15 L 25.4763,-14.624 L 25.4057,-14.2539 L 25.2893,-13.8956 L 25.1289,-13.5547
 L 24.927,-13.2366 L 24.6869,-12.9464 L 24.4123,-12.6884 L 24.1075,-12.467 L 23.7773,-12.2855 L 23.427,-12.1468
 L 23.0621,-12.0531 L 22.6884,-12.0059 z
M -22.6884,-12.0059 L -23.0621,-12.0531 L -23.427,-12.1468 L -23.7773,-12.2855 L -24.1075,-12.467 L -24.4123,-12.6884
 L -24.6869,-12.9464 L -24.927,-13.2366 L -25.1289,-13.5547 L -25.2893,-13.8956 L -25.4057,-14.2539 L -25.4763,-14.624
 L -25.5,-15 L -25.4763,-15.376 L -25.4057,-15.7461 L -25.2893,-16.1044 L -25.1289,-16.4453 L -24.927,-16.7634
 L -24.6869,-17.0536 L -24.4123,-17.3115 L -24.1075,-17.533 L -23.7773,-17.7145 L -23.427,-17.8532 L -23.0621,-17.9469
 L -22.6884,-17.9941 L -22.3116,-17.9941 L -21.9379,-17.9469 L -21.5729,-17.8532 L -21.2227,-17.7145 L -20.8925,-17.533
 L -20.5877,-17.3115 L -20.3131,-17.0536 L -20.0729,-16.7634 L -19.8711,-16.4453 L -19.7107,-16.1044 L -19.5942,-15.7461
 L -19.5237,-15.376 L -19.5,-15 L -19.5237,-14.624 L -19.5942,-14.2539 L -19.7107,-13.8956 L -19.8711,-13.5547
 L -20.0729,-13.2366 L -20.3131,-12.9464 L -20.5877,-12.6884 L -20.8925,-12.467 L -21.2227,-12.2855 L -21.5729,-12.1468
 L -21.9379,-12.0531 L -22.3116,-12.0059 z
M 13.7465,11.9763 L 12.2514,11.7874 L 10.7918,11.4127 L 9.39064,10.8579 L 8.07007,10.1319 L 6.85091,9.24615
 L 5.75237,8.21455 L 4.79179,7.05342 L 3.98431,5.78104 L 3.34268,4.41748 L 2.877,2.98427 L 2.59462,1.504
 L 2.5,-0 L 2.59462,-1.504 L 2.877,-2.98427 L 3.34268,-4.41748 L 3.98431,-5.78104 L 4.79179,-7.05342
 L 5.75237,-8.21455 L 6.85091,-9.24615 L 8.07007,-10.1319 L 9.39064,-10.8579 L 10.7918,-11.4127 L 12.2514,-11.7874
 L 13.7465,-11.9763 L 15.2535,-11.9763 L 16.7486,-11.7874 L 18.2082,-11.4127 L 19.6093,-10.8579 L 20.9299,-10.1319
 L 22.1491,-9.24615 L 23.2476,-8.21455 L 24.2082,-7.05342 L 25.0157,-5.78104 L 25.6573,-4.41748 L 26.123,-2.98427
 L 26.4054,-1.504 L 26.5,-0 L 26.4054,1.504 L 26.123,2.98427 L 25.6573,4.41748 L 25.0157,5.78104
 L 24.2082,7.05342 L 23.2476,8.21455 L 22.1491,9.24615 L 20.9299,10.1319 L 19.6093,10.8579 L 18.2082,11.4127
 L 16.7486,11.7874 L 15.2535,11.9763 z
M -15.2535,11.9763 L -16.7486,11.7874 L -18.2082,11.4127 L -19.6093,10.8579 L -20.9299,10.1319 L -22.1491,9.24615
 L -23.2476,8.21455 L -24.2082,7.05342 L -25.0157,5.78104 L -25.6573,4.41748 L -26.123,2.98427 L -26.4054,1.504
 L -26.5,-0 L -26.4054,-1.504 L -26.123,-2.98427 L -25.6573,-4.41748 L -25.0157,-5.78104 L -24.2082,-7.05342
 L -23.2476,-8.21455 L -22.1491,-9.24615 L -20.9299,-10.1319 L -19.6093,-10.8579 L -18.2082,-11.4127 L -16.7486,-11.7874
 L -15.2535,-11.9763 L -13.7465,-11.9763 L -12.2514,-11.7874 L -10.7918,-11.4127 L -9.39064,-10.8579 L -8.07007,-10.1319
 L -6.85091,-9.24615 L -5.75237,-8.21455 L -4.79179,-7.05342 L -3.98431,-5.78104 L -3.34268,-4.41748 L -2.877,-2.98427
 L -2.59462,-1.504 L -2.5,-0 L -2.59462,1.504 L -2.877,2.98427 L -3.34268,4.41748 L -3.98431,5.78104
 L -4.79179,7.05342 L -5.75237,8.21455 L -6.85091,9.24615 L -8.07007,10.1319 L -9.39064,10.8579 L -10.7918,11.4127
 L -12.2514,11.7874 L -13.7465,11.9763 z
M 22.3116,17.9941 L 21.9379,17.9469 L 21.5729,17.8532 L 21.2227,17.7145 L 20.8925,17.533 L 20.5877,17.3115
 L 20.3131,17.0536 L 20.0729,16.7634 L 19.8711,16.4453 L 19.7107,16.1044 L 19.5942,15.7461 L 19.5237,15.376
 L 19.5,15 L 19.5237,14.624 L 19.5942,14.2539 L 19.7107,13.8956 L 19.8711,13.5547 L 20.0729,13.2366
 L 20.3131,12.9464 L 20.5877,12.6884 L 20.8925,12.467 L 21.2227,12.2855 L 21.5729,12.1468 L 21.9379,12.0531
 L 22.3116,12.0059 L 22.6884,12.0059 L 23.0621,12.0531 L 23.427,12.1468 L 23.7773,12.2855 L 24.1075,12.467
 L 24.4123,12.6884 L 24.6869,12.9464 L 24.927,13.2366 L 25.1289,13.5547 L 25.2893,13.8956 L 25.4057,14.2539
 L 25.4763,14.624 L 25.5,15 L 25.4763,15.376 L 25.4057,15.7461 L 25.2893,16.1044 L 25.1289,16.4453
 L 24.927,16.7634 L 24.6869,17.0536 L 24.4123,17.3115 L 24.1075,17.533 L 23.7773,17.7145 L 23.427,17.8532
 L 23.0621,17.9469 L 22.6884,17.9941 z
M -22.6884,17.9941 L -23.0621,17.9469 L -23.427,17.8532 L -23.7773,17.7145 L -24.1075,17.533 L -24.4123,17.3115
 L -24.6869,17.0536 L -24.927,16.7634 L -25.1289,16.4453 L -25.2893,16.1044 L -25.4057,15.7461 L -25.4763,15.376
 L -25.5,15 L -25.4763,14.624 L -25.4057,14.2539 L -25.2893,13.8956 L -25.1289,13.5547 L -24.927,13.2366
 L -24.6869,12.9464 L -24.4123,12.6884 L -24.1075,12.467 L -23.7773,12.2855 L -23.427,12.1468 L -23.0621,12.0531
 L -22.6884,12.0059 L -22.3116,12.0059 L -21.9379,12.0531 L -21.5729,12.1468 L -21.2227,12.2855 L -20.8925,12.467
 L -20.5877,12.6884 L -20.3131,12.9464 L -20.0729,13.2366 L -19.8711,13.5547 L -19.7107,13.8956 L -19.5942,14.2539
 L -19.5237,14.624 L -19.5,15 L -19.5237,15.376 L -19.5942,15.7461 L -19.7107,16.1044 L -19.8711,16.4453
 L -20.0729,16.7634 L -20.3131,17.0536 L -20.5877,17.3115 L -20.8925,17.533 L -21.2227,17.7145 L -21.5729,17.8532
 L -21.9379,17.9469 L -22.3116,17.9941 z
" stroke="black" fill="lightgray" stroke-width="0.5"/>
</svg>
