<?xml version="1.0" standalone="no"?>
<!DOCTYPE svg PUBLIC "-//W3C//DTD SVG 1.1//EN" "http://www.w3.org/Graphics/SVG/1.1/DTD/svg11.dtd">
<svg width="74mm" height="60mm" viewBox="-37 -99 74 60" xmlns="http://www.w3.org/2000/svg" version="1.1">
<title>OpenSCAD Model</title>
<path d="
M 32.9369,-39.5886 L 33.5451,-39.7447 L 34.1289,-39.9759 L 34.6791,-40.2784 L 35.1871,-40.6474 L 35.6448,-41.0773
 L 36.0451,-41.5611 L 36.3815,-42.0912 L 36.6489,-42.6594 L 36.8429,-43.2566 L 36.9606,-43.8733 L 37,-44.5
 L 37,-93.5 L 36.9606,-94.1267 L 36.8429,-94.7434 L 36.6489,-95.3406 L 36.3815,-95.9088 L 36.0451,-96.4389
 L 35.6448,-96.9227 L 35.1871,-97.3526 L 34.6791,-97.7216 L 34.1289,-98.0241 L 33.5451,-98.2553 L 32.9369,-98.4114
 L 32.3139,-98.4901 L -32.3139,-98.4901 L -32.9369,-98.4114 L -33.5451,-98.2553 L -34.1289,-98.0241 L -34.6791,-97.7216
 L -35.1871,-97.3526 L -35.6448,-96.9227 L -36.0451,-96.4389 L -36.3815,-95.9088 L -36.6489,-95.3406 L -36.8429,-94.7434
 L -36.9606,-94.1267 L -37,-93.5 L -37,-44.5 L -36.9606,-43.8733 L -36.8429,-43.2566 L -36.6489,-42.6594
 L -36.3815,-42.0912 L -36.0451,-41.5611 L -35.6448,-41.0773 L -35.1871,-40.6474 L -34.6791,-40.2784 L -34.1289,-39.9759
 L -33.5451,-39.7447 L -32.9369,-39.5886 L -32.3139,-39.5099 L 32.3139,-39.5099 z
M -30.1884,-88.5059 L -30.5621,-88.5531 L -30.927,-88.6468 L -31.2773,-88.7855 L -31.6075,-88.967 L -31.9123,-89.1884
 L -32.1869,-89.4464 L -32.427,-89.7366 L -32.6289,-90.0547 L -32.7893,-90.3956 L -32.9057,-90.7539 L -32.9763,-91.124
 L -33,-91.5 L -32.9763,-91.876 L -32.9057,-92.2461 L -32.7893,-92.6044 L -32.6289,-92.9453 L -32.427,-93.2634
 L -32.1869,-93.5536 L -31.9123,-93.8115 L -31.6075,-94.033 L -31.2773,-94.2145 L -30.927,-94.3532 L -30.5621,-94.4469
 L -30.1884,-94.4941 L -29.8116,-94.4941 L -29.4379,-94.4469 L -29.0729,-94.3532 L -28.7227,-94.2145 L -28.3925,-94.033
 L -28.0877,-93.8115 L -27.8131,-93.5536 L -27.5729,-93.2634 L -27.3711,-92.9453 L -27.2107,-92.6044 L -27.0942,-92.2461
 L -27.0237,-91.876 L -27,-91.5 L -27.0237,-91.124 L -27.0942,-90.7539 L -27.2107,-90.3956 L -27.3711,-90.0547
 L -27.5729,-89.7366 L -27.8131,-89.4464 L -28.0877,-89.1884 L -28.3925,-88.967 L -28.7227,-88.7855 L -29.0729,-88.6468
 L -29.4379,-88.5531 L -29.8116,-88.5059 z
M -15.1884,-88.5059 L -15.5621,-88.5531 L -15.927,-88.6468 L -16.2773,-88.7855 L -16.6075,-88.967 L -16.9123,-89.1884
 L -17.1869,-89.4464 L -17.427,-89.7366 L -17.6289,-90.0547 L -17.7893,-90.3956 L -17.9057,-90.7539 L -17.9763,-91.124
 L -18,-91.5 L -17.9763,-91.876 L -17.9057,-92.2461 L -17.7893,-92.6044 L -17.6289,-92.9453 L -17.427,-93.2634
 L -17.1869,-93.5536 L -16.9123,-93.8115 L -16.6075,-94.033 L -16.2773,-94.2145 L -15.927,-94.3532 L -15.5621,-94.4469
 L -15.1884,-94.4941 L -14.8116,-94.4941 L -14.4379,-94.4469 L -14.0729,-94.3532 L -13.7227,-94.2145 L -13.3925,-94.033
 L -13.0877,-93.8115 L -12.8131,-93.5536 L -12.5729,-93.2634 L -12.3711,-92.9453 L -12.2107,-92.6044 L -12.0942,-92.2461
 L -12.0237,-91.876 L -12,-91.5 L -12.0237,-91.124 L -12.0942,-90.7539 L -12.2107,-90.3956 L -12.3711,-90.0547
 L -12.5729,-89.7366 L -12.8131,-89.4464 L -13.0877,-89.1884 L -13.3925,-88.967 L -13.7227,-88.7855 L -14.0729,-88.6468
 L -14.4379,-88.5531 L -14.8116,-88.5059 z
M 14.8116,-88.5059 L 14.4379,-88.5531 L 14.0729,-88.6468 L 13.7227,-88.7855 L 13.3925,-88.967 L 13.0877,-89.1884
 L 12.8131,-89.4464 L 12.5729,-89.7366 L 12.3711,-90.0547 L 12.2107,-90.3956 L 12.0942,-90.7539 L 12.0237,-91.124
 L 12,-91.5 L 12.0237,-91.876 L 12.0942,-92.2461 L 12.2107,-92.6044 L 12.3711,-92.9453 L 12.5729,-93.2634
 L 12.8131,-93.5536 L 13.0877,-93.8115 L 13.3925,-94.033 L 13.7227,-94.2145 L 14.0729,-94.3532 L 14.4379,-94.4469
 L 14.8116,-94.4941 L 15.1884,-94.4941 L 15.5621,-94.4469 L 15.927,-94.3532 L 16.2773,-94.2145 L 16.6075,-94.033
 L 16.9123,-93.8115 L 17.1869,-93.5536 L 17.427,-93.2634 L 17.6289,-92.9453 L 17.7893,-92.6044 L 17.9057,-92.2461
 L 17.9763,-91.876 L 18,-91.5 L 17.9763,-91.124 L 17.9057,-90.7539 L 17.7893,-90.3956 L 17.6289,-90.0547
 L 17.427,-89.7366 L 17.1869,-89.4464 L 16.9123,-89.1884 L 16.6075,-88.967 L 16.2773,-88.7855 L 15.927,-88.6468
 L 15.5621,-88.5531 L 15.1884,-88.5059 z
M -0.18837,-88.5059 L -0.562134,-88.5531 L -0.927048,-88.6468 L -1.27733,-88.7855 L -1.60747,-88.967 L -1.91226,-89.1884
 L -2.1869,-89.4464 L -2.42705,-89.7366 L -2.62891,-90.0547 L -2.78932,-90.3956 L -2.90575,-90.7539 L -2.97633,-91.124
 L -3,-91.5 L -2.97633,-91.876 L -2.90575,-92.2461 L -2.78932,-92.6044 L -2.62891,-92.9453 L -2.42705,-93.2634
 L -2.1869,-93.5536 L -1.91226,-93.8115 L -1.60747,-94.033 L -1.27733,-94.2145 L -0.927048,-94.3532 L -0.562134,-94.4469
 L -0.18837,-94.4941 L 0.18837,-94.4941 L 0.562134,-94.4469 L 0.927048,-94.3532 L 1.27733,-94.2145 L 1.60747,-94.033
 L 1.91226,-93.8115 L 2.1869,-93.5536 L 2.42705,-93.2634 L 2.62891,-92.9453 L 2.78932,-92.6044 L 2.90575,-92.2461
 L 2.97633,-91.876 L 3,-91.5 L 2.97633,-91.124 L 2.90575,-90.7539 L 2.78932,-90.3956 L 2.62891,-90.0547
 L 2.42705,-89.7366 L 2.1869,-89.4464 L 1.91226,-89.1884 L 1.60747,-88.967 L 1.27733,-88.7855 L 0.927048,-88.6468
 L 0.562134,-88.5531 L 0.18837,-88.5059 z
M 29.8116,-88.5059 L 29.4379,-88.5531 L 29.0729,-88.6468 L 28.7227,-88.7855 L 28.3925,-88.967 L 28.0877,-89.1884
 L 27.8131,-89.4464 L 27.5729,-89.7366 L 27.3711,-90.0547 L 27.2107,-90.3956 L 27.0942,-90.7539 L 27.0237,-91.124
 L 27,-91.5 L 27.0237,-91.876 L 27.0942,-92.2461 L 27.2107,-92.6044 L 27.3711,-92.9453 L 27.5729,-93.2634
 L 27.8131,-93.5536 L 28.0877,-93.8115 L 28.3925,-94.033 L 28.7227,-94.2145 L 29.0729,-94.3532 L 29.4379,-94.4469
 L 29.8116,-94.4941 L 30.1884,-94.4941 L 30.5621,-94.4469 L 30.927,-94.3532 L 31.2773,-94.2145 L 31.6075,-94.033
 L 31.9123,-93.8115 L 32.1869,-93.5536 L 32.427,-93.2634 L 32.6289,-92.9453 L 32.7893,-92.6044 L 32.9057,-92.2461
 L 32.9763,-91.876 L 33,-91.5 L 32.9763,-91.124 L 32.9057,-90.7539 L 32.7893,-90.3956 L 32.6289,-90.0547
 L 32.427,-89.7366 L 32.1869,-89.4464 L 31.9123,-89.1884 L 31.6075,-88.967 L 31.2773,-88.7855 L 30.927,-88.6468
 L 30.5621,-88.5531 L 30.1884,-88.5059 z
M 22.4058,-90.003 L 22.2189,-90.0266 L 22.0365,-90.0734 L 21.8613,-90.1427 L 21.6963,-90.2335 L 21.5439,-90.3442
 L 21.4065,-90.4732 L 21.2865,-90.6183 L 21.1855,-90.7774 L 21.1053,-90.9478 L 21.0471,-91.127 L 21.0118,-91.312
 L 21,-91.5 L 21.0118,-91.688 L 21.0471,-91.873 L 21.1053,-92.0522 L 21.1855,-92.2226 L 21.2865,-92.3817
 L 21.4065,-92.5268 L 21.5439,-92.6558 L 21.6963,-92.7665 L 21.8613,-92.8572 L 22.0365,-92.9266 L 22.2189,-92.9734
 L 22.4058,-92.997 L 22.5942,-92.997 L 22.7811,-92.9734 L 22.9635,-92.9266 L 23.1387,-92.8572 L 23.3037,-92.7665
 L 23.4561,-92.6558 L 23.5934,-92.5268 L 23.7135,-92.3817 L 23.8145,-92.2226 L 23.8947,-92.0522 L 23.9529,-91.873
 L 23.9882,-91.688 L 24,-91.5 L 23.9882,-91.312 L 23.9529,-91.127 L 23.8947,-90.9478 L 23.8145,-90.7774
 L 23.7135,-90.6183 L 23.5934,-90.4732 L 23.4561,-90.3442 L 23.3037,-90.2335 L 23.1387,-90.1427 L 22.9635,-90.0734
 L 22.7811,-90.0266 L 22.5942,-90.003 z
M -7.59418,-90.003 L -7.78107,-90.0266 L -7.96352,-90.0734 L -8.13866,-90.1427 L -8.30373,-90.2335 L -8.45613,-90.3442
 L -8.59344,-90.4732 L -8.71352,-90.6183 L -8.81445,-90.7774 L -8.89465,-90.9478 L -8.95287,-91.127 L -8.98816,-91.312
 L -9,-91.5 L -8.98816,-91.688 L -8.95287,-91.873 L -8.89465,-92.0522 L -8.81445,-92.2226 L -8.71352,-92.3817
 L -8.59344,-92.5268 L -8.45613,-92.6558 L -8.30373,-92.7665 L -8.13866,-92.8572 L -7.96352,-92.9266 L -7.78107,-92.9734
 L -7.59418,-92.997 L -7.40581,-92.997 L -7.21892,-92.9734 L -7.03647,-92.9266 L -6.86133,-92.8572 L -6.69626,-92.7665
 L -6.54385,-92.6558 L -6.40654,-92.5268 L -6.28647,-92.3817 L -6.18553,-92.2226 L -6.10533,-92.0522 L -6.04712,-91.873
 L -6.01183,-91.688 L -6,-91.5 L -6.01183,-91.312 L -6.04712,-91.127 L -6.10533,-90.9478 L -6.18553,-90.7774
 L -6.28647,-90.6183 L -6.40654,-90.4732 L -6.54385,-90.3442 L -6.69626,-90.2335 L -6.86133,-90.1427 L -7.03647,-90.0734
 L -7.21892,-90.0266 L -7.40581,-90.003 z
M -22.5942,-90.003 L -22.7811,-90.0266 L -22.9635,-90.0734 L -23.1387,-90.1427 L -23.3037,-90.2335 L -23.4561,-90.3442
 L -23.5934,-90.4732 L -23.7135,-90.6183 L -23.8145,-90.7774 L -23.8947,-90.9478 L -23.9529,-91.127 L -23.9882,-91.312
 L -24,-91.5 L -23.9882,-91.688 L -23.9529,-91.873 L -23.8947,-92.0522 L -23.8145,-92.2226 L -23.7135,-92.3817
 L -23.5934,-92.5268 L -23.4561,-92.6558 L -23.3037,-92.7665 L -23.1387,-92.8572 L -22.9635,-92.9266 L -22.7811,-92.9734
 L -22.5942,-92.997 L -22.4058,-92.997 L -22.2189,-92.9734 L -22.0365,-92.9266 L -21.8613,-92.8572 L -21.6963,-92.7665
 L -21.5439,-92.6558 L -21.4065,-92.5268 L -21.2865,-92.3817 L -21.1855,-92.2226 L -21.1053,-92.0522 L -21.0471,-91.873
 L -21.0118,-91.688 L -21,-91.5 L -21.0118,-91.312 L -21.0471,-91.127 L -21.1053,-90.9478 L -21.1855,-90.7774
 L -21.2865,-90.6183 L -21.4065,-90.4732 L -21.5439,-90.3442 L -21.6963,-90.2335 L -21.8613,-90.1427 L -22.0365,-90.0734
 L -22.2189,-90.0266 L -22.4058,-90.003 z
M 7.40581,-90.003 L 7.21892,-90.0266 L 7.03647,-90.0734 L 6.86133,-90.1427 L 6.69626,-90.2335 L 6.54385,-90.3442
 L 6.40654,-90.4732 L 6.28647,-90.6183 L 6.18553,-90.7774 L 6.10533,-90.9478 L 6.04712,-91.127 L 6.01183,-91.312
 L 6,-91.5 L 6.01183,-91.688 L 6.04712,-91.873 L 6.10533,-92.0522 L 6.18553,-92.2226 L 6.28647,-92.3817
 L 6.40654,-92.5268 L 6.54385,-92.6558 L 6.69626,-92.7665 L 6.86133,-92.8572 L 7.03647,-92.9266 L 7.21892,-92.9734
 L 7.40581,-92.997 L 7.59418,-92.997 L 7.78107,-92.9734 L 7.96352,-92.9266 L 8.13866,-92.8572 L 8.30373,-92.7665
 L 8.45613,-92.6558 L 8.59344,-92.5268 L 8.71352,-92.3817 L 8.81445,-92.2226 L 8.89465,-92.0522 L 8.95287,-91.873
 L 8.98816,-91.688 L 9,-91.5 L 8.98816,-91.312 L 8.95287,-91.127 L 8.89465,-90.9478 L 8.81445,-90.7774
 L 8.71352,-90.6183 L 8.59344,-90.4732 L 8.45613,-90.3442 L 8.30373,-90.2335 L 8.13866,-90.1427 L 7.96352,-90.0734
 L 7.78107,-90.0266 L 7.59418,-90.003 z
M -18.9733,-53.5306 L -20.9044,-53.7746 L -22.7897,-54.2586 L -24.5996,-54.9752 L -26.3053,-55.9129 L -27.8801,-57.0571
 L -29.299,-58.3895 L -30.5397,-59.8893 L -31.5827,-61.5328 L -32.4115,-63.2941 L -33.013,-65.1453 L -33.3778,-67.0573
 L -33.5,-69 L -33.3778,-70.9427 L -33.013,-72.8547 L -32.4115,-74.7059 L -31.5827,-76.4672 L -30.5397,-78.1107
 L -29.299,-79.6105 L -27.8801,-80.9429 L -26.3053,-82.0871 L -24.5996,-83.0248 L -22.7897,-83.7414 L -20.9044,-84.2254
 L -18.9733,-84.4694 L -17.0267,-84.4694 L -15.0956,-84.2254 L -13.2102,-83.7414 L -11.4004,-83.0248 L -9.69467,-82.0871
 L -8.11992,-80.9429 L -6.70097,-79.6105 L -5.46024,-78.1107 L -4.41724,-76.4672 L -3.58846,-74.7059 L -2.98695,-72.8547
 L -2.62221,-70.9427 L -2.5,-69 L -2.62221,-67.0573 L -2.98695,-65.1453 L -3.58846,-63.2941 L -4.41724,-61.5328
 L -5.46024,-59.8893 L -6.70097,-58.3895 L -8.11992,-57.0571 L -9.69467,-55.9129 L -11.4004,-54.9752 L -13.2102,-54.2586
 L -15.0956,-53.7746 L -17.0267,-53.5306 z
M 17.0267,-53.5306 L 15.0956,-53.7746 L 13.2102,-54.2586 L 11.4004,-54.9752 L 9.69467,-55.9129 L 8.11992,-57.0571
 L 6.70097,-58.3895 L 5.46024,-59.8893 L 4.41724,-61.5328 L 3.58846,-63.2941 L 2.98695,-65.1453 L 2.62221,-67.0573
 L 2.5,-69 L 2.62221,-70.9427 L 2.98695,-72.8547 L 3.58846,-74.7059 L 4.41724,-76.4672 L 5.46024,-78.1107
 L 6.70097,-79.6105 L 8.11992,-80.9429 L 9.69467,-82.0871 L 11.4004,-83.0248 L 13.2102,-83.7414 L 15.0956,-84.2254
 L 17.0267,-84.4694 L 18.9733,-84.4694 L 20.9044,-84.2254 L 22.7897,-83.7414 L 24.5996,-83.0248 L 26.3053,-82.0871
 L 27.8801,-80.9429 L 29.299,-79.6105 L 30.5397,-78.1107 L 31.5827,-76.4672 L 32.4115,-74.7059 L 33.013,-72.8547
 L 33.3778,-70.9427 L 33.5,-69 L 33.3778,-67.0573 L 33.013,-65.1453 L 32.4115,-63.2941 L 31.5827,-61.5328
 L 30.5397,-59.8893 L 29.299,-58.3895 L 27.8801,-57.0571 L 26.3053,-55.9129 L 24.5996,-54.9752 L 22.7897,-54.2586
 L 20.9044,-53.7746 L 18.9733,-53.5306 z
M -30.1884,-43.5059 L -30.5621,-43.5531 L -30.927,-43.6468 L -31.2773,-43.7855 L -31.6075,-43.967 L -31.9123,-44.1885
 L -32.1869,-44.4464 L -32.427,-44.7366 L -32.6289,-45.0547 L -32.7893,-45.3956 L -32.9057,-45.7539 L -32.9763,-46.124
 L -33,-46.5 L -32.9763,-46.876 L -32.9057,-47.2461 L -32.7893,-47.6044 L -32.6289,-47.9453 L -32.427,-48.2634
 L -32.1869,-48.5536 L -31.9123,-48.8116 L -31.6075,-49.033 L -31.2773,-49.2145 L -30.927,-49.3532 L -30.5621,-49.4469
 L -30.1884,-49.4941 L -29.8116,-49.4941 L -29.4379,-49.4469 L -29.0729,-49.3532 L -28.7227,-49.2145 L -28.3925,-49.033
 L -28.0877,-48.8116 L -27.8131,-48.5536 L -27.5729,-48.2634 L -27.3711,-47.9453 L -27.2107,-47.6044 L -27.0942,-47.2461
 L -27.0237,-46.876 L -27,-46.5 L -27.0237,-46.124 L -27.0942,-45.7539 L -27.2107,-45.3956 L -27.3711,-45.0547
 L -27.5729,-44.7366 L -27.8131,-44.4464 L -28.0877,-44.1885 L -28.3925,-43.967 L -28.7227,-43.7855 L -29.0729,-43.6468
 L -29.4379,-43.5531 L -29.8116,-43.5059 z
M 14.8116,-43.5059 L 14.4379,-43.5531 L 14.0729,-43.6468 L 13.7227,-43.7855 L 13.3925,-43.967 L 13.0877,-44.1885
 L 12.8131,-44.4464 L 12.5729,-44.7366 L 12.3711,-45.0547 L 12.2107,-45.3956 L 12.0942,-45.7539 L 12.0237,-46.124
 L 12,-46.5 L 12.0237,-46.876 L 12.0942,-47.2461 L 12.2107,-47.6044 L 12.3711,-47.9453 L 12.5729,-48.2634
 L 12.8131,-48.5536 L 13.0877,-48.8116 L 13.3925,-49.033 L 13.7227,-49.2145 L 14.0729,-49.3532 L 14.4379,-49.4469
 L 14.8116,-49.4941 L 15.1884,-49.4941 L 15.5621,-49.4469 L 15.927,-49.3532 L 16.2773,-49.2145 L 16.6075,-49.033
 L 16.9123,-48.8116 L 17.1869,-48.5536 L 17.427,-48.2634 L 17.6289,-47.9453 L 17.7893,-47.6044 L 17.9057,-47.2461
 L 17.9763,-46.876 L 18,-46.5 L 17.9763,-46.124 L 17.9057,-45.7539 L 17.7893,-45.3956 L 17.6289,-45.0547
 L 17.427,-44.7366 L 17.1869,-44.4464 L 16.9123,-44.1885 L 16.6075,-43.967 L 16.2773,-43.7855 L 15.927,-43.6468
 L 15.5621,-43.5531 L 15.1884,-43.5059 z
M -0.18837,-43.5059 L -0.562134,-43.5531 L -0.927048,-43.6468 L -1.27733,-43.7855 L -1.60747,-43.967 L -1.91226,-44.1885
 L -2.1869,-44.4464 L -2.42705,-44.7366 L -2.62891,-45.0547 L -2.78932,-45.3956 L -2.90575,-45.7539 L -2.97633,-46.124
 L -3,-46.5 L -2.97633,-46.876 L -2.90575,-47.2461 L -2.78932,-47.6044 L -2.62891,-47.9453 L -2.42705,-48.2634
 L -2.1869,-48.5536 L -1.91226,-48.8116 L -1.60747,-49.033 L -1.27733,-49.2145 L -0.927048,-49.3532 L -0.562134,-49.4469
 L -0.18837,-49.4941 L 0.18837,-49.4941 L 0.562134,-49.4469 L 0.927048,-49.3532 L 1.27733,-49.2145 L 1.60747,-49.033
 L 1.91226,-48.8116 L 2.1869,-48.5536 L 2.42705,-48.2634 L 2.62891,-47.9453 L 2.78932,-47.6044 L 2.90575,-47.2461
 L 2.97633,-46.876 L 3,-46.5 L 2.97633,-46.124 L 2.90575,-45.7539 L 2.78932,-45.3956 L 2.62891,-45.0547
 L 2.42705,-44.7366 L 2.1869,-44.4464 L 1.91226,-44.1885 L 1.60747,-43.967 L 1.27733,-43.7855 L 0.927048,-43.6468
 L 0.562134,-43.5531 L 0.18837,-43.5059 z
M 29.8116,-43.5059 L 29.4379,-43.5531 L 29.0729,-43.6468 L 28.7227,-43.7855 L 28.3925,-43.967 L 28.0877,-44.1885
 L 27.8131,-44.4464 L 27.5729,-44.7366 L 27.3711,-45.0547 L 27.2107,-45.3956 L 27.0942,-45.7539 L 27.0237,-46.124
 L 27,-46.5 L 27.0237,-46.876 L 27.0942,-47.2461 L 27.2107,-47.6044 L 27.3711,-47.9453 L 27.5729,-48.2634
 L 27.8131,-48.5536 L 28.0877,-48.8116 L 28.3925,-49.033 L 28.7227,-49.2145 L 29.0729,-49.3532 L 29.4379,-49.4469
 L 29.8116,-49.4941 L 30.1884,-49.4941 L 30.5621,-49.4469 L 30.927,-49.3532 L 31.2773,-49.2145 L 31.6075,-49.033
 L 31.9123,-48.8116 L 32.1869,-48.5536 L 32.427,-48.2634 L 32.6289,-47.9453 L 32.7893,-47.6044 L 32.9057,-47.2461
 L 32.9763,-46.876 L 33,-46.5 L 32.9763,-46.124 L 32.9057,-45.7539 L 32.7893,-45.3956 L 32.6289,-45.0547
 L 32.427,-44.7366 L 32.1869,-44.4464 L 31.9123,-44.1885 L 31.6075,-43.967 L 31.2773,-43.7855 L 30.927,-43.6468
 L 30.5621,-43.5531 L 30.1884,-43.5059 z
M -15.1884,-43.5059 L -15.5621,-43.5531 L -15.927,-43.6468 L -16.2773,-43.7855 L -16.6075,-43.967 L -16.9123,-44.1885
 L -17.1869,-44.4464 L -17.427,-44.7366 L -17.6289,-45.0547 L -17.7893,-45.3956 L -17.9057,-45.7539 L -17.9763,-46.124
 L -18,-46.5 L -17.9763,-46.876 L -17.9057,-47.2461 L -17.7893,-47.6044 L -17.6289,-47.9453 L -17.427,-48.2634
 L -17.1869,-48.5536 L -16.9123,-48.8116 L -16.6075,-49.033 L -16.2773,-49.2145 L -15.927,-49.3532 L -15.5621,-49.4469
 L -15.1884,-49.4941 L -14.8116,-49.4941 L -14.4379,-49.4469 L -14.0729,-49.3532 L -13.7227,-49.2145 L -13.3925,-49.033
 L -13.0877,-48.8116 L -12.8131,-48.5536 L -12.5729,-48.2634 L -12.3711,-47.9453 L -12.2107,-47.6044 L -12.0942,-47.2461
 L -12.0237,-46.876 L -12,-46.5 L -12.0237,-46.124 L -12.0942,-45.7539 L -12.2107,-45.3956 L -12.3711,-45.0547
 L -12.5729,-44.7366 L -12.8131,-44.4464 L -13.0877,-44.1885 L -13.3925,-43.967 L -13.7227,-43.7855 L -14.0729,-43.6468
 L -14.4379,-43.5531 L -14.8116,-43.5059 z
M 7.40581,-45.003 L 7.21892,-45.0266 L 7.03647,-45.0734 L 6.86133,-45.1428 L 6.69626,-45.2335 L 6.54385,-45.3442
 L 6.40654,-45.4732 L 6.28647,-45.6183 L 6.18553,-45.7774 L 6.10533,-45.9478 L 6.04712,-46.127 L 6.01183,-46.312
 L 6,-46.5 L 6.01183,-46.688 L 6.04712,-46.873 L 6.10533,-47.0522 L 6.18553,-47.2226 L 6.28647,-47.3817
 L 6.40654,-47.5268 L 6.54385,-47.6558 L 6.69626,-47.7665 L 6.86133,-47.8573 L 7.03647,-47.9266 L 7.21892,-47.9734
 L 7.40581,-47.997 L 7.59418,-47.997 L 7.78107,-47.9734 L 7.96352,-47.9266 L 8.13866,-47.8573 L 8.30373,-47.7665
 L 8.45613,-47.6558 L 8.59344,-47.5268 L 8.71352,-47.3817 L 8.81445,-47.2226 L 8.89465,-47.0522 L 8.95287,-46.873
 L 8.98816,-46.688 L 9,-46.5 L 8.98816,-46.312 L 8.95287,-46.127 L 8.89465,-45.9478 L 8.81445,-45.7774
 L 8.71352,-45.6183 L 8.59344,-45.4732 L 8.45613,-45.3442 L 8.30373,-45.2335 L 8.13866,-45.1428 L 7.96352,-45.0734
 L 7.78107,-45.0266 L 7.59418,-45.003 z
M 22.4058,-45.003 L 22.2189,-45.0266 L 22.0365,-45.0734 L 21.8613,-45.1428 L 21.6963,-45.2335 L 21.5439,-45.3442
 L 21.4065,-45.4732 L 21.2865,-45.6183 L 21.1855,-45.7774 L 21.1053,-45.9478 L 21.0471,-46.127 L 21.0118,-46.312
 L 21,-46.5 L 21.0118,-46.688 L 21.0471,-46.873 L 21.1053,-47.0522 L 21.1855,-47.2226 L 21.2865,-47.3817
 L 21.4065,-47.5268 L 21.5439,-47.6558 L 21.6963,-47.7665 L 21.8613,-47.8573 L 22.0365,-47.9266 L 22.2189,-47.9734
 L 22.4058,-47.997 L 22.5942,-47.997 L 22.7811,-47.9734 L 22.9635,-47.9266 L 23.1387,-47.8573 L 23.3037,-47.7665
 L 23.4561,-47.6558 L 23.5934,-47.5268 L 23.7135,-47.3817 L 23.8145,-47.2226 L 23.8947,-47.0522 L 23.9529,-46.873
 L 23.9882,-46.688 L 24,-46.5 L 23.9882,-46.312 L 23.9529,-46.127 L 23.8947,-45.9478 L 23.8145,-45.7774
 L 23.7135,-45.6183 L 23.5934,-45.4732 L 23.4561,-45.3442 L 23.3037,-45.2335 L 23.1387,-45.1428 L 22.9635,-45.0734
 L 22.7811,-45.0266 L 22.5942,-45.003 z
M -22.5942,-45.003 L -22.7811,-45.0266 L -22.9635,-45.0734 L -23.1387,-45.1428 L -23.3037,-45.2335 L -23.4561,-45.3442
 L -23.5934,-45.4732 L -23.7135,-45.6183 L -23.8145,-45.7774 L -23.8947,-45.9478 L -23.9529,-46.127 L -23.9882,-46.312
 L -24,-46.5 L -23.9882,-46.688 L -23.9529,-46.873 L -23.8947,-47.0522 L -23.8145,-47.2226 L -23.7135,-47.3817
 L -23.5934,-47.5268 L -23.4561,-47.6558 L -23.3037,-47.7665 L -23.1387,-47.8573 L -22.9635,-47.9266 L -22.7811,-47.9734
 L -22.5942,-47.997 L -22.4058,-47.997 L -22.2189,-47.9734 L -22.0365,-47.9266 L -21.8613,-47.8573 L -21.6963,-47.7665
 L -21.5439,-47.6558 L -21.4065,-47.5268 L -21.2865,-47.3817 L -21.1855,-47.2226 L -21.1053,-47.0522 L -21.0471,-46.873
 L -21.0118,-46.688 L -21,-46.5 L -21.0118,-46.312 L -21.0471,-46.127 L -21.1053,-45.9478 L -21.1855,-45.7774
 L -21.2865,-45.6183 L -21.4065,-45.4732 L -21.5439,-45.3442 L -21.6963,-45.2335 L -21.8613,-45.1428 L -22.0365,-45.0734
 L -22.2189,-45.0266 L -22.4058,-45.003 z
M -7.59418,-45.003 L -7.78107,-45.0266 L -7.96352,-45.0734 L -8.13866,-45.1428 L -8.30373,-45.2335 L -8.45613,-45.3442
 L -8.59344,-45.4732 L -8.71352,-45.6183 L -8.81445,-45.7774 L -8.89465,-45.9478 L -8.95287,-46.127 L -8.98816,-46.312
 L -9,-46.5 L -8.98816,-46.688 L -8.95287,-46.873 L -8.89465,-47.0522 L -8.81445,-47.2226 L -8.71352,-47.3817
 L -8.59344,-47.5268 L -8.45613,-47.6558 L -8.30373,-47.7665 L -8.13866,-47.8573 L -7.96352,-47.9266 L -7.78107,-47.9734
 L -7.59418,-47.997 L -7.40581,-47.997 L -7.21892,-47.9734 L -7.03647,-47.9266 L -6.86133,-47.8573 L -6.69626,-47.7665
 L -6.54385,-47.6558 L -6.40654,-47.5268 L -6.28647,-47.3817 L -6.18553,-47.2226 L -6.10533,-47.0522 L -6.04712,-46.873
 L -6.01183,-46.688 L -6,-46.5 L -6.01183,-46.312 L -6.04712,-46.127 L -6.10533,-45.9478 L -6.18553,-45.7774
 L -6.28647,-45.6183 L -6.40654,-45.4732 L -6.54385,-45.3442 L -6.69626,-45.2335 L -6.86133,-45.1428 L -7.03647,-45.0734
 L -7.21892,-45.0266 L -7.40581,-45.003 z
" stroke="black" fill="lightgray" stroke-width="0.5"/>
</svg>
