<?xml version="1.0" standalone="no"?>
<!DOCTYPE svg PUBLIC "-//W3C//DTD SVG 1.1//EN" "http://www.w3.org/Graphics/SVG/1.1/DTD/svg11.dtd">
<svg width="90mm" height="44mm" viewBox="-45 -22 90 44" xmlns="http://www.w3.org/2000/svg" version="1.1">
<title>OpenSCAD Model</title>
<path d="
M 40.4369,21.9114 L 41.0451,21.7553 L 41.6289,21.5241 L 42.1791,21.2216 L 42.6871,20.8526 L 43.1448,20.4227
 L 43.5451,19.9389 L 43.8815,19.4088 L 44.1489,18.8406 L 44.3429,18.2434 L 44.4606,17.6267 L 44.5,17
 L 44.5,-17 L 44.4606,-17.6267 L 44.3429,-18.2434 L 44.1489,-18.8406 L 43.8815,-19.4088 L 43.5451,-19.9389
 L 43.1448,-20.4227 L 42.6871,-20.8526 L 42.1791,-21.2216 L 41.6289,-21.5241 L 41.0451,-21.7553 L 40.4369,-21.9114
 L 39.8139,-21.9901 L -39.8139,-21.9901 L -40.4369,-21.9114 L -41.0451,-21.7553 L -41.6289,-21.5241 L -42.1791,-21.2216
 L -42.6871,-20.8526 L -43.1448,-20.4227 L -43.5451,-19.9389 L -43.8815,-19.4088 L -44.1489,-18.8406 L -44.3429,-18.2434
 L -44.4606,-17.6267 L -44.5,-17 L -44.5,17 L -44.4606,17.6267 L -44.3429,18.2434 L -44.1489,18.8406
 L -43.8815,19.4088 L -43.5451,19.9389 L -43.1448,20.4227 L -42.6871,20.8526 L -42.1791,21.2216 L -41.6289,21.5241
 L -41.0451,21.7553 L -40.4369,21.9114 L -39.8139,21.9901 L 39.8139,21.9901 z
M 37.3116,-12.0059 L 36.9379,-12.0531 L 36.5729,-12.1468 L 36.2227,-12.2855 L 35.8925,-12.467 L 35.5877,-12.6884
 L 35.3131,-12.9464 L 35.0729,-13.2366 L 34.8711,-13.5547 L 34.7107,-13.8956 L 34.5942,-14.2539 L 34.5237,-14.624
 L 34.5,-15 L 34.5237,-15.376 L 34.5942,-15.7461 L 34.7107,-16.1044 L 34.8711,-16.4453 L 35.0729,-16.7634
 L 35.3131,-17.0536 L 35.5877,-17.3115 L 35.8925,-17.533 L 36.2227,-17.7145 L 36.5729,-17.8532 L 36.9379,-17.9469
 L 37.3116,-17.9941 L 37.6884,-17.9941 L 38.0621,-17.9469 L 38.427,-17.8532 L 38.7773,-17.7145 L 39.1075,-17.533
 L 39.4123,-17.3115 L 39.6869,-17.0536 L 39.927,-16.7634 L 40.1289,-16.4453 L 40.2893,-16.1044 L 40.4057,-15.7461
 L 40.4763,-15.376 L 40.5,-15 L 40.4763,-14.624 L 40.4057,-14.2539 L 40.2893,-13.8956 L 40.1289,-13.5547
 L 39.927,-13.2366 L 39.6869,-12.9464 L 39.4123,-12.6884 L 39.1075,-12.467 L 38.7773,-12.2855 L 38.427,-12.1468
 L 38.0621,-12.0531 L 37.6884,-12.0059 z
M -22.6884,-12.0059 L -23.0621,-12.0531 L -23.427,-12.1468 L -23.7773,-12.2855 L -24.1075,-12.467 L -24.4123,-12.6884
 L -24.6869,-12.9464 L -24.927,-13.2366 L -25.1289,-13.5547 L -25.2893,-13.8956 L -25.4057,-14.2539 L -25.4763,-14.624
 L -25.5,-15 L -25.4763,-15.376 L -25.4057,-15.7461 L -25.2893,-16.1044 L -25.1289,-16.4453 L -24.927,-16.7634
 L -24.6869,-17.0536 L -24.4123,-17.3115 L -24.1075,-17.533 L -23.7773,-17.7145 L -23.427,-17.8532 L -23.0621,-17.9469
 L -22.6884,-17.9941 L -22.3116,-17.9941 L -21.9379,-17.9469 L -21.5729,-17.8532 L -21.2227,-17.7145 L -20.8925,-17.533
 L -20.5877,-17.3115 L -20.3131,-17.0536 L -20.0729,-16.7634 L -19.8711,-16.4453 L -19.7107,-16.1044 L -19.5942,-15.7461
 L -19.5237,-15.376 L -19.5,-15 L -19.5237,-14.624 L -19.5942,-14.2539 L -19.7107,-13.8956 L -19.8711,-13.5547
 L -20.0729,-13.2366 L -20.3131,-12.9464 L -20.5877,-12.6884 L -20.8925,-12.467 L -21.2227,-12.2855 L -21.5729,-12.1468
 L -21.9379,-12.0531 L -22.3116,-12.0059 z
M -7.68837,-12.0059 L -8.06213,-12.0531 L -8.42705,-12.1468 L -8.77733,-12.2855 L -9.10747,-12.467 L -9.41226,-12.6884
 L -9.6869,-12.9464 L -9.92705,-13.2366 L -10.1289,-13.5547 L -10.2893,-13.8956 L -10.4057,-14.2539 L -10.4763,-14.624
 L -10.5,-15 L -10.4763,-15.376 L -10.4057,-15.7461 L -10.2893,-16.1044 L -10.1289,-16.4453 L -9.92705,-16.7634
 L -9.6869,-17.0536 L -9.41226,-17.3115 L -9.10747,-17.533 L -8.77733,-17.7145 L -8.42705,-17.8532 L -8.06213,-17.9469
 L -7.68837,-17.9941 L -7.31161,-17.9941 L -6.93785,-17.9469 L -6.57294,-17.8532 L -6.22266,-17.7145 L -5.89252,-17.533
 L -5.58772,-17.3115 L -5.31308,-17.0536 L -5.07294,-16.7634 L -4.87108,-16.4453 L -4.71066,-16.1044 L -4.59424,-15.7461
 L -4.52365,-15.376 L -4.5,-15 L -4.52365,-14.624 L -4.59424,-14.2539 L -4.71066,-13.8956 L -4.87108,-13.5547
 L -5.07294,-13.2366 L -5.31308,-12.9464 L -5.58772,-12.6884 L -5.89252,-12.467 L -6.22266,-12.2855 L -6.57294,-12.1468
 L -6.93785,-12.0531 L -7.31161,-12.0059 z
M -37.6884,-12.0059 L -38.0621,-12.0531 L -38.427,-12.1468 L -38.7773,-12.2855 L -39.1075,-12.467 L -39.4123,-12.6884
 L -39.6869,-12.9464 L -39.927,-13.2366 L -40.1289,-13.5547 L -40.2893,-13.8956 L -40.4057,-14.2539 L -40.4763,-14.624
 L -40.5,-15 L -40.4763,-15.376 L -40.4057,-15.7461 L -40.2893,-16.1044 L -40.1289,-16.4453 L -39.927,-16.7634
 L -39.6869,-17.0536 L -39.4123,-17.3115 L -39.1075,-17.533 L -38.7773,-17.7145 L -38.427,-17.8532 L -38.0621,-17.9469
 L -37.6884,-17.9941 L -37.3116,-17.9941 L -36.9379,-17.9469 L -36.5729,-17.8532 L -36.2227,-17.7145 L -35.8925,-17.533
 L -35.5877,-17.3115 L -35.3131,-17.0536 L -35.0729,-16.7634 L -34.8711,-16.4453 L -34.7107,-16.1044 L -34.5942,-15.7461
 L -34.5237,-15.376 L -34.5,-15 L -34.5237,-14.624 L -34.5942,-14.2539 L -34.7107,-13.8956 L -34.8711,-13.5547
 L -35.0729,-13.2366 L -35.3131,-12.9464 L -35.5877,-12.6884 L -35.8925,-12.467 L -36.2227,-12.2855 L -36.5729,-12.1468
 L -36.9379,-12.0531 L -37.3116,-12.0059 z
M 22.3116,-12.0059 L 21.9379,-12.0531 L 21.5729,-12.1468 L 21.2227,-12.2855 L 20.8925,-12.467 L 20.5877,-12.6884
 L 20.3131,-12.9464 L 20.0729,-13.2366 L 19.8711,-13.5547 L 19.7107,-13.8956 L 19.5942,-14.2539 L 19.5237,-14.624
 L 19.5,-15 L 19.5237,-15.376 L 19.5942,-15.7461 L 19.7107,-16.1044 L 19.8711,-16.4453 L 20.0729,-16.7634
 L 20.3131,-17.0536 L 20.5877,-17.3115 L 20.8925,-17.533 L 21.2227,-17.7145 L 21.5729,-17.8532 L 21.9379,-17.9469
 L 22.3116,-17.9941 L 22.6884,-17.9941 L 23.0621,-17.9469 L 23.427,-17.8532 L 23.7773,-17.7145 L 24.1075,-17.533
 L 24.4123,-17.3115 L 24.6869,-17.0536 L 24.927,-16.7634 L 25.1289,-16.4453 L 25.2893,-16.1044 L 25.4057,-15.7461
 L 25.4763,-15.376 L 25.5,-15 L 25.4763,-14.624 L 25.4057,-14.2539 L 25.2893,-13.8956 L 25.1289,-13.5547
 L 24.927,-13.2366 L 24.6869,-12.9464 L 24.4123,-12.6884 L 24.1075,-12.467 L 23.7773,-12.2855 L 23.427,-12.1468
 L 23.0621,-12.0531 L 22.6884,-12.0059 z
M 7.31161,-12.0059 L 6.93785,-12.0531 L 6.57294,-12.1468 L 6.22266,-12.2855 L 5.89252,-12.467 L 5.58772,-12.6884
 L 5.31308,-12.9464 L 5.07294,-13.2366 L 4.87108,-13.5547 L 4.71066,-13.8956 L 4.59424,-14.2539 L 4.52365,-14.624
 L 4.5,-15 L 4.52365,-15.376 L 4.59424,-15.7461 L 4.71066,-16.1044 L 4.87108,-16.4453 L 5.07294,-16.7634
 L 5.31308,-17.0536 L 5.58772,-17.3115 L 5.89252,-17.533 L 6.22266,-17.7145 L 6.57294,-17.8532 L 6.93785,-17.9469
 L 7.31161,-17.9941 L 7.68837,-17.9941 L 8.06213,-17.9469 L 8.42705,-17.8532 L 8.77733,-17.7145 L 9.10747,-17.533
 L 9.41226,-17.3115 L 9.6869,-17.0536 L 9.92705,-16.7634 L 10.1289,-16.4453 L 10.2893,-16.1044 L 10.4057,-15.7461
 L 10.4763,-15.376 L 10.5,-15 L 10.4763,-14.624 L 10.4057,-14.2539 L 10.2893,-13.8956 L 10.1289,-13.5547
 L 9.92705,-13.2366 L 9.6869,-12.9464 L 9.41226,-12.6884 L 9.10747,-12.467 L 8.77733,-12.2855 L 8.42705,-12.1468
 L 8.06213,-12.0531 L 7.68837,-12.0059 z
M 14.9058,-13.5029 L 14.7189,-13.5266 L 14.5365,-13.5734 L 14.3613,-13.6427 L 14.1963,-13.7335 L 14.0439,-13.8442
 L 13.9065,-13.9732 L 13.7865,-14.1183 L 13.6855,-14.2774 L 13.6053,-14.4478 L 13.5471,-14.627 L 13.5118,-14.812
 L 13.5,-15 L 13.5118,-15.188 L 13.5471,-15.373 L 13.6053,-15.5522 L 13.6855,-15.7226 L 13.7865,-15.8817
 L 13.9065,-16.0268 L 14.0439,-16.1558 L 14.1963,-16.2665 L 14.3613,-16.3572 L 14.5365,-16.4266 L 14.7189,-16.4734
 L 14.9058,-16.497 L 15.0942,-16.497 L 15.2811,-16.4734 L 15.4635,-16.4266 L 15.6387,-16.3572 L 15.8037,-16.2665
 L 15.9561,-16.1558 L 16.0934,-16.0268 L 16.2135,-15.8817 L 16.3145,-15.7226 L 16.3947,-15.5522 L 16.4529,-15.373
 L 16.4882,-15.188 L 16.5,-15 L 16.4882,-14.812 L 16.4529,-14.627 L 16.3947,-14.4478 L 16.3145,-14.2774
 L 16.2135,-14.1183 L 16.0934,-13.9732 L 15.9561,-13.8442 L 15.8037,-13.7335 L 15.6387,-13.6427 L 15.4635,-13.5734
 L 15.2811,-13.5266 L 15.0942,-13.5029 z
M -0.0941772,-13.5029 L -0.281067,-13.5266 L -0.463516,-13.5734 L -0.638657,-13.6427 L -0.803726,-13.7335 L -0.956131,-13.8442
 L -1.09344,-13.9732 L -1.21352,-14.1183 L -1.31445,-14.2774 L -1.39465,-14.4478 L -1.45287,-14.627 L -1.48816,-14.812
 L -1.5,-15 L -1.48816,-15.188 L -1.45287,-15.373 L -1.39465,-15.5522 L -1.31445,-15.7226 L -1.21352,-15.8817
 L -1.09344,-16.0268 L -0.956131,-16.1558 L -0.803726,-16.2665 L -0.638657,-16.3572 L -0.463516,-16.4266 L -0.281067,-16.4734
 L -0.0941772,-16.497 L 0.0941772,-16.497 L 0.281067,-16.4734 L 0.463516,-16.4266 L 0.638657,-16.3572 L 0.803726,-16.2665
 L 0.956131,-16.1558 L 1.09344,-16.0268 L 1.21352,-15.8817 L 1.31445,-15.7226 L 1.39465,-15.5522 L 1.45287,-15.373
 L 1.48816,-15.188 L 1.5,-15 L 1.48816,-14.812 L 1.45287,-14.627 L 1.39465,-14.4478 L 1.31445,-14.2774
 L 1.21352,-14.1183 L 1.09344,-13.9732 L 0.956131,-13.8442 L 0.803726,-13.7335 L 0.638657,-13.6427 L 0.463516,-13.5734
 L 0.281067,-13.5266 L 0.0941772,-13.5029 z
M -15.0942,-13.5029 L -15.2811,-13.5266 L -15.4635,-13.5734 L -15.6387,-13.6427 L -15.8037,-13.7335 L -15.9561,-13.8442
 L -16.0934,-13.9732 L -16.2135,-14.1183 L -16.3145,-14.2774 L -16.3947,-14.4478 L -16.4529,-14.627 L -16.4882,-14.812
 L -16.5,-15 L -16.4882,-15.188 L -16.4529,-15.373 L -16.3947,-15.5522 L -16.3145,-15.7226 L -16.2135,-15.8817
 L -16.0934,-16.0268 L -15.9561,-16.1558 L -15.8037,-16.2665 L -15.6387,-16.3572 L -15.4635,-16.4266 L -15.2811,-16.4734
 L -15.0942,-16.497 L -14.9058,-16.497 L -14.7189,-16.4734 L -14.5365,-16.4266 L -14.3613,-16.3572 L -14.1963,-16.2665
 L -14.0439,-16.1558 L -13.9065,-16.0268 L -13.7865,-15.8817 L -13.6855,-15.7226 L -13.6053,-15.5522 L -13.5471,-15.373
 L -13.5118,-15.188 L -13.5,-15 L -13.5118,-14.812 L -13.5471,-14.627 L -13.6053,-14.4478 L -13.6855,-14.2774
 L -13.7865,-14.1183 L -13.9065,-13.9732 L -14.0439,-13.8442 L -14.1963,-13.7335 L -14.3613,-13.6427 L -14.5365,-13.5734
 L -14.7189,-13.5266 L -14.9058,-13.5029 z
M -30.0942,-13.5029 L -30.2811,-13.5266 L -30.4635,-13.5734 L -30.6387,-13.6427 L -30.8037,-13.7335 L -30.9561,-13.8442
 L -31.0934,-13.9732 L -31.2135,-14.1183 L -31.3145,-14.2774 L -31.3947,-14.4478 L -31.4529,-14.627 L -31.4882,-14.812
 L -31.5,-15 L -31.4882,-15.188 L -31.4529,-15.373 L -31.3947,-15.5522 L -31.3145,-15.7226 L -31.2135,-15.8817
 L -31.0934,-16.0268 L -30.9561,-16.1558 L -30.8037,-16.2665 L -30.6387,-16.3572 L -30.4635,-16.4266 L -30.2811,-16.4734
 L -30.0942,-16.497 L -29.9058,-16.497 L -29.7189,-16.4734 L -29.5365,-16.4266 L -29.3613,-16.3572 L -29.1963,-16.2665
 L -29.0439,-16.1558 L -28.9065,-16.0268 L -28.7865,-15.8817 L -28.6855,-15.7226 L -28.6053,-15.5522 L -28.5471,-15.373
 L -28.5118,-15.188 L -28.5,-15 L -28.5118,-14.812 L -28.5471,-14.627 L -28.6053,-14.4478 L -28.6855,-14.2774
 L -28.7865,-14.1183 L -28.9065,-13.9732 L -29.0439,-13.8442 L -29.1963,-13.7335 L -29.3613,-13.6427 L -29.5365,-13.5734
 L -29.7189,-13.5266 L -29.9058,-13.5029 z
M 29.9058,-13.5029 L 29.7189,-13.5266 L 29.5365,-13.5734 L 29.3613,-13.6427 L 29.1963,-13.7335 L 29.0439,-13.8442
 L 28.9065,-13.9732 L 28.7865,-14.1183 L 28.6855,-14.2774 L 28.6053,-14.4478 L 28.5471,-14.627 L 28.5118,-14.812
 L 28.5,-15 L 28.5118,-15.188 L 28.5471,-15.373 L 28.6053,-15.5522 L 28.6855,-15.7226 L 28.7865,-15.8817
 L 28.9065,-16.0268 L 29.0439,-16.1558 L 29.1963,-16.2665 L 29.3613,-16.3572 L 29.5365,-16.4266 L 29.7189,-16.4734
 L 29.9058,-16.497 L 30.0942,-16.497 L 30.2811,-16.4734 L 30.4635,-16.4266 L 30.6387,-16.3572 L 30.8037,-16.2665
 L 30.9561,-16.1558 L 31.0934,-16.0268 L 31.2135,-15.8817 L 31.3145,-15.7226 L 31.3947,-15.5522 L 31.4529,-15.373
 L 31.4882,-15.188 L 31.5,-15 L 31.4882,-14.812 L 31.4529,-14.627 L 31.3947,-14.4478 L 31.3145,-14.2774
 L 31.2135,-14.1183 L 31.0934,-13.9732 L 30.9561,-13.8442 L 30.8037,-13.7335 L 30.6387,-13.6427 L 30.4635,-13.5734
 L 30.2811,-13.5266 L 30.0942,-13.5029 z
M 25,-0 L 25.0394,-0.626663 L 25.1571,-1.24344 L 25.3511,-1.84062 L 25.6185,-2.40877 L 25.9549,-2.93892
 L 26.3551,-3.42273 L 26.8129,-3.85255 L 27.3209,-4.22163 L 27.8711,-4.52412 L 28.4549,-4.75528 L 29.0631,-4.91142
 L 29.686,-4.99013 L 30.3139,-4.99013 L 30.9369,-4.91142 L 31.5451,-4.75528 L 32.1289,-4.52412 L 32.6791,-4.22163
 L 33.1871,-3.85255 L 33.6448,-3.42273 L 34.0451,-2.93892 L 34.3815,-2.40877 L 34.6489,-1.84062 L 34.8429,-1.24344
 L 34.9606,-0.626663 L 35,-0 L 34.9606,0.626663 L 34.8429,1.24344 L 34.6489,1.84062 L 34.3815,2.40877
 L 34.0451,2.93892 L 33.6448,3.42273 L 33.1871,3.85255 L 32.6791,4.22163 L 32.1289,4.52412 L 31.5451,4.75528
 L 30.9369,4.91142 L 30.3139,4.99013 L 29.686,4.99013 L 29.0631,4.91142 L 28.4549,4.75528 L 27.8711,4.52412
 L 27.3209,4.22163 L 26.8129,3.85255 L 26.3551,3.42273 L 25.9549,2.93892 L 25.6185,2.40877 L 25.3511,1.84062
 L 25.1571,1.24344 L 25.0394,0.626663 z
M 22.3116,17.9941 L 21.9379,17.9469 L 21.5729,17.8532 L 21.2227,17.7145 L 20.8925,17.533 L 20.5877,17.3115
 L 20.3131,17.0536 L 20.0729,16.7634 L 19.8711,16.4453 L 19.7107,16.1044 L 19.5942,15.7461 L 19.5237,15.376
 L 19.5,15 L 19.5237,14.624 L 19.5942,14.2539 L 19.7107,13.8956 L 19.8711,13.5547 L 20.0729,13.2366
 L 20.3131,12.9464 L 20.5877,12.6884 L 20.8925,12.467 L 21.2227,12.2855 L 21.5729,12.1468 L 21.9379,12.0531
 L 22.3116,12.0059 L 22.6884,12.0059 L 23.0621,12.0531 L 23.427,12.1468 L 23.7773,12.2855 L 24.1075,12.467
 L 24.4123,12.6884 L 24.6869,12.9464 L 24.927,13.2366 L 25.1289,13.5547 L 25.2893,13.8956 L 25.4057,14.2539
 L 25.4763,14.624 L 25.5,15 L 25.4763,15.376 L 25.4057,15.7461 L 25.2893,16.1044 L 25.1289,16.4453
 L 24.927,16.7634 L 24.6869,17.0536 L 24.4123,17.3115 L 24.1075,17.533 L 23.7773,17.7145 L 23.427,17.8532
 L 23.0621,17.9469 L 22.6884,17.9941 z
M 37.3116,17.9941 L 36.9379,17.9469 L 36.5729,17.8532 L 36.2227,17.7145 L 35.8925,17.533 L 35.5877,17.3115
 L 35.3131,17.0536 L 35.0729,16.7634 L 34.8711,16.4453 L 34.7107,16.1044 L 34.5942,15.7461 L 34.5237,15.376
 L 34.5,15 L 34.5237,14.624 L 34.5942,14.2539 L 34.7107,13.8956 L 34.8711,13.5547 L 35.0729,13.2366
 L 35.3131,12.9464 L 35.5877,12.6884 L 35.8925,12.467 L 36.2227,12.2855 L 36.5729,12.1468 L 36.9379,12.0531
 L 37.3116,12.0059 L 37.6884,12.0059 L 38.0621,12.0531 L 38.427,12.1468 L 38.7773,12.2855 L 39.1075,12.467
 L 39.4123,12.6884 L 39.6869,12.9464 L 39.927,13.2366 L 40.1289,13.5547 L 40.2893,13.8956 L 40.4057,14.2539
 L 40.4763,14.624 L 40.5,15 L 40.4763,15.376 L 40.4057,15.7461 L 40.2893,16.1044 L 40.1289,16.4453
 L 39.927,16.7634 L 39.6869,17.0536 L 39.4123,17.3115 L 39.1075,17.533 L 38.7773,17.7145 L 38.427,17.8532
 L 38.0621,17.9469 L 37.6884,17.9941 z
M -37.6884,17.9941 L -38.0621,17.9469 L -38.427,17.8532 L -38.7773,17.7145 L -39.1075,17.533 L -39.4123,17.3115
 L -39.6869,17.0536 L -39.927,16.7634 L -40.1289,16.4453 L -40.2893,16.1044 L -40.4057,15.7461 L -40.4763,15.376
 L -40.5,15 L -40.4763,14.624 L -40.4057,14.2539 L -40.2893,13.8956 L -40.1289,13.5547 L -39.927,13.2366
 L -39.6869,12.9464 L -39.4123,12.6884 L -39.1075,12.467 L -38.7773,12.2855 L -38.427,12.1468 L -38.0621,12.0531
 L -37.6884,12.0059 L -37.3116,12.0059 L -36.9379,12.0531 L -36.5729,12.1468 L -36.2227,12.2855 L -35.8925,12.467
 L -35.5877,12.6884 L -35.3131,12.9464 L -35.0729,13.2366 L -34.8711,13.5547 L -34.7107,13.8956 L -34.5942,14.2539
 L -34.5237,14.624 L -34.5,15 L -34.5237,15.376 L -34.5942,15.7461 L -34.7107,16.1044 L -34.8711,16.4453
 L -35.0729,16.7634 L -35.3131,17.0536 L -35.5877,17.3115 L -35.8925,17.533 L -36.2227,17.7145 L -36.5729,17.8532
 L -36.9379,17.9469 L -37.3116,17.9941 z
M -22.6884,17.9941 L -23.0621,17.9469 L -23.427,17.8532 L -23.7773,17.7145 L -24.1075,17.533 L -24.4123,17.3115
 L -24.6869,17.0536 L -24.927,16.7634 L -25.1289,16.4453 L -25.2893,16.1044 L -25.4057,15.7461 L -25.4763,15.376
 L -25.5,15 L -25.4763,14.624 L -25.4057,14.2539 L -25.2893,13.8956 L -25.1289,13.5547 L -24.927,13.2366
 L -24.6869,12.9464 L -24.4123,12.6884 L -24.1075,12.467 L -23.7773,12.2855 L -23.427,12.1468 L -23.0621,12.0531
 L -22.6884,12.0059 L -22.3116,12.0059 L -21.9379,12.0531 L -21.5729,12.1468 L -21.2227,12.2855 L -20.8925,12.467
 L -20.5877,12.6884 L -20.3131,12.9464 L -20.0729,13.2366 L -19.8711,13.5547 L -19.7107,13.8956 L -19.5942,14.2539
 L -19.5237,14.624 L -19.5,15 L -19.5237,15.376 L -19.5942,15.7461 L -19.7107,16.1044 L -19.8711,16.4453
 L -20.0729,16.7634 L -20.3131,17.0536 L -20.5877,17.3115 L -20.8925,17.533 L -21.2227,17.7145 L -21.5729,17.8532
 L -21.9379,17.9469 L -22.3116,17.9941 z
M 7.31161,17.9941 L 6.93785,17.9469 L 6.57294,17.8532 L 6.22266,17.7145 L 5.89252,17.533 L 5.58772,17.3115
 L 5.31308,17.0536 L 5.07294,16.7634 L 4.87108,16.4453 L 4.71066,16.1044 L 4.59424,15.7461 L 4.52365,15.376
 L 4.5,15 L 4.52365,14.624 L 4.59424,14.2539 L 4.71066,13.8956 L 4.87108,13.5547 L 5.07294,13.2366
 L 5.31308,12.9464 L 5.58772,12.6884 L 5.89252,12.467 L 6.22266,12.2855 L 6.57294,12.1468 L 6.93785,12.0531
 L 7.31161,12.0059 L 7.68837,12.0059 L 8.06213,12.0531 L 8.42705,12.1468 L 8.77733,12.2855 L 9.10747,12.467
 L 9.41226,12.6884 L 9.6869,12.9464 L 9.92705,13.2366 L 10.1289,13.5547 L 10.2893,13.8956 L 10.4057,14.2539
 L 10.4763,14.624 L 10.5,15 L 10.4763,15.376 L 10.4057,15.7461 L 10.2893,16.1044 L 10.1289,16.4453
 L 9.92705,16.7634 L 9.6869,17.0536 L 9.41226,17.3115 L 9.10747,17.533 L 8.77733,17.7145 L 8.42705,17.8532
 L 8.06213,17.9469 L 7.68837,17.9941 z
M -7.68837,17.9941 L -8.06213,17.9469 L -8.42705,17.8532 L -8.77733,17.7145 L -9.10747,17.533 L -9.41226,17.3115
 L -9.6869,17.0536 L -9.92705,16.7634 L -10.1289,16.4453 L -10.2893,16.1044 L -10.4057,15.7461 L -10.4763,15.376
 L -10.5,15 L -10.4763,14.624 L -10.4057,14.2539 L -10.2893,13.8956 L -10.1289,13.5547 L -9.92705,13.2366
 L -9.6869,12.9464 L -9.41226,12.6884 L -9.10747,12.467 L -8.77733,12.2855 L -8.42705,12.1468 L -8.06213,12.0531
 L -7.68837,12.0059 L -7.31161,12.0059 L -6.93785,12.0531 L -6.57294,12.1468 L -6.22266,12.2855 L -5.89252,12.467
 L -5.58772,12.6884 L -5.31308,12.9464 L -5.07294,13.2366 L -4.87108,13.5547 L -4.71066,13.8956 L -4.59424,14.2539
 L -4.52365,14.624 L -4.5,15 L -4.52365,15.376 L -4.59424,15.7461 L -4.71066,16.1044 L -4.87108,16.4453
 L -5.07294,16.7634 L -5.31308,17.0536 L -5.58772,17.3115 L -5.89252,17.533 L -6.22266,17.7145 L -6.57294,17.8532
 L -6.93785,17.9469 L -7.31161,17.9941 z
M -30.0942,16.497 L -30.2811,16.4734 L -30.4635,16.4266 L -30.6387,16.3572 L -30.8037,16.2665 L -30.9561,16.1558
 L -31.0934,16.0268 L -31.2135,15.8817 L -31.3145,15.7226 L -31.3947,15.5522 L -31.4529,15.373 L -31.4882,15.188
 L -31.5,15 L -31.4882,14.812 L -31.4529,14.627 L -31.3947,14.4478 L -31.3145,14.2774 L -31.2135,14.1183
 L -31.0934,13.9732 L -30.9561,13.8442 L -30.8037,13.7335 L -30.6387,13.6427 L -30.4635,13.5734 L -30.2811,13.5266
 L -30.0942,13.5029 L -29.9058,13.5029 L -29.7189,13.5266 L -29.5365,13.5734 L -29.3613,13.6427 L -29.1963,13.7335
 L -29.0439,13.8442 L -28.9065,13.9732 L -28.7865,14.1183 L -28.6855,14.2774 L -28.6053,14.4478 L -28.5471,14.627
 L -28.5118,14.812 L -28.5,15 L -28.5118,15.188 L -28.5471,15.373 L -28.6053,15.5522 L -28.6855,15.7226
 L -28.7865,15.8817 L -28.9065,16.0268 L -29.0439,16.1558 L -29.1963,16.2665 L -29.3613,16.3572 L -29.5365,16.4266
 L -29.7189,16.4734 L -29.9058,16.497 z
M -0.0941772,16.497 L -0.281067,16.4734 L -0.463516,16.4266 L -0.638657,16.3572 L -0.803726,16.2665 L -0.956131,16.1558
 L -1.09344,16.0268 L -1.21352,15.8817 L -1.31445,15.7226 L -1.39465,15.5522 L -1.45287,15.373 L -1.48816,15.188
 L -1.5,15 L -1.48816,14.812 L -1.45287,14.627 L -1.39465,14.4478 L -1.31445,14.2774 L -1.21352,14.1183
 L -1.09344,13.9732 L -0.956131,13.8442 L -0.803726,13.7335 L -0.638657,13.6427 L -0.463516,13.5734 L -0.281067,13.5266
 L -0.0941772,13.5029 L 0.0941772,13.5029 L 0.281067,13.5266 L 0.463516,13.5734 L 0.638657,13.6427 L 0.803726,13.7335
 L 0.956131,13.8442 L 1.09344,13.9732 L 1.21352,14.1183 L 1.31445,14.2774 L 1.39465,14.4478 L 1.45287,14.627
 L 1.48816,14.812 L 1.5,15 L 1.48816,15.188 L 1.45287,15.373 L 1.39465,15.5522 L 1.31445,15.7226
 L 1.21352,15.8817 L 1.09344,16.0268 L 0.956131,16.1558 L 0.803726,16.2665 L 0.638657,16.3572 L 0.463516,16.4266
 L 0.281067,16.4734 L 0.0941772,16.497 z
M -15.0942,16.497 L -15.2811,16.4734 L -15.4635,16.4266 L -15.6387,16.3572 L -15.8037,16.2665 L -15.9561,16.1558
 L -16.0934,16.0268 L -16.2135,15.8817 L -16.3145,15.7226 L -16.3947,15.5522 L -16.4529,15.373 L -16.4882,15.188
 L -16.5,15 L -16.4882,14.812 L -16.4529,14.627 L -16.3947,14.4478 L -16.3145,14.2774 L -16.2135,14.1183
 L -16.0934,13.9732 L -15.9561,13.8442 L -15.8037,13.7335 L -15.6387,13.6427 L -15.4635,13.5734 L -15.2811,13.5266
 L -15.0942,13.5029 L -14.9058,13.5029 L -14.7189,13.5266 L -14.5365,13.5734 L -14.3613,13.6427 L -14.1963,13.7335
 L -14.0439,13.8442 L -13.9065,13.9732 L -13.7865,14.1183 L -13.6855,14.2774 L -13.6053,14.4478 L -13.5471,14.627
 L -13.5118,14.812 L -13.5,15 L -13.5118,15.188 L -13.5471,15.373 L -13.6053,15.5522 L -13.6855,15.7226
 L -13.7865,15.8817 L -13.9065,16.0268 L -14.0439,16.1558 L -14.1963,16.2665 L -14.3613,16.3572 L -14.5365,16.4266
 L -14.7189,16.4734 L -14.9058,16.497 z
M 14.9058,16.497 L 14.7189,16.4734 L 14.5365,16.4266 L 14.3613,16.3572 L 14.1963,16.2665 L 14.0439,16.1558
 L 13.9065,16.0268 L 13.7865,15.8817 L 13.6855,15.7226 L 13.6053,15.5522 L 13.5471,15.373 L 13.5118,15.188
 L 13.5,15 L 13.5118,14.812 L 13.5471,14.627 L 13.6053,14.4478 L 13.6855,14.2774 L 13.7865,14.1183
 L 13.9065,13.9732 L 14.0439,13.8442 L 14.1963,13.7335 L 14.3613,13.6427 L 14.5365,13.5734 L 14.7189,13.5266
 L 14.9058,13.5029 L 15.0942,13.5029 L 15.2811,13.5266 L 15.4635,13.5734 L 15.6387,13.6427 L 15.8037,13.7335
 L 15.9561,13.8442 L 16.0934,13.9732 L 16.2135,14.1183 L 16.3145,14.2774 L 16.3947,14.4478 L 16.4529,14.627
 L 16.4882,14.812 L 16.5,15 L 16.4882,15.188 L 16.4529,15.373 L 16.3947,15.5522 L 16.3145,15.7226
 L 16.2135,15.8817 L 16.0934,16.0268 L 15.9561,16.1558 L 15.8037,16.2665 L 15.6387,16.3572 L 15.4635,16.4266
 L 15.2811,16.4734 L 15.0942,16.497 z
M 29.9058,16.497 L 29.7189,16.4734 L 29.5365,16.4266 L 29.3613,16.3572 L 29.1963,16.2665 L 29.0439,16.1558
 L 28.9065,16.0268 L 28.7865,15.8817 L 28.6855,15.7226 L 28.6053,15.5522 L 28.5471,15.373 L 28.5118,15.188
 L 28.5,15 L 28.5118,14.812 L 28.5471,14.627 L 28.6053,14.4478 L 28.6855,14.2774 L 28.7865,14.1183
 L 28.9065,13.9732 L 29.0439,13.8442 L 29.1963,13.7335 L 29.3613,13.6427 L 29.5365,13.5734 L 29.7189,13.5266
 L 29.9058,13.5029 L 30.0942,13.5029 L 30.2811,13.5266 L 30.4635,13.5734 L 30.6387,13.6427 L 30.8037,13.7335
 L 30.9561,13.8442 L 31.0934,13.9732 L 31.2135,14.1183 L 31.3145,14.2774 L 31.3947,14.4478 L 31.4529,14.627
 L 31.4882,14.812 L 31.5,15 L 31.4882,15.188 L 31.4529,15.373 L 31.3947,15.5522 L 31.3145,15.7226
 L 31.2135,15.8817 L 31.0934,16.0268 L 30.9561,16.1558 L 30.8037,16.2665 L 30.6387,16.3572 L 30.4635,16.4266
 L 30.2811,16.4734 L 30.0942,16.497 z
M 4.84291,-1.24344 L 4.96057,-0.626663 L 5,-0 L 4.96057,0.626663 L 4.84291,1.24344 L 4.64888,1.84062
 L 4.38153,2.40877 L 4.04507,2.93892 L 3.64484,3.42273 L 3.18712,3.85255 L 2.67912,4.22163 L 2.12889,4.52412
 L 1.54507,4.75528 L 0.936905,4.91142 L 0.31395,4.99013 L -0.31395,4.99013 L -0.936905,4.91142 L -1.54507,4.75528
 L -2.12889,4.52412 L -2.67912,4.22163 L -3.18712,3.85255 L -3.64484,3.42273 L -4.04507,2.93892 L -4.38153,2.40877
 L -4.64888,1.84062 L -4.84291,1.24344 L -4.96057,0.626663 L -5,-0 L -4.96057,-0.626663 L -4.84291,-1.24344
 L -4.64888,-1.84062 L -4.38153,-2.40877 L -4.04507,-2.93892 L -3.64484,-3.42273 L -3.18712,-3.85255 L -2.67912,-4.22163
 L -2.12889,-4.52412 L -1.54507,-4.75528 L -0.936905,-4.91142 L -0.31395,-4.99013 L 0.31395,-4.99013 L 0.936905,-4.91142
 L 1.54507,-4.75528 L 2.12889,-4.52412 L 2.67912,-4.22163 L 3.18712,-3.85255 L 3.64484,-3.42273 L 4.04507,-2.93892
 L 4.38153,-2.40877 L 4.64888,-1.84062 z
M -10.1571,1.24344 L -10.3511,1.84062 L -10.6185,2.40877 L -10.9549,2.93892 L -11.3551,3.42273 L -11.8129,3.85255
 L -12.3209,4.22163 L -12.8711,4.52412 L -13.4549,4.75528 L -14.0631,4.91142 L -14.686,4.99013 L -15.3139,4.99013
 L -15.9369,4.91142 L -16.5451,4.75528 L -17.1289,4.52412 L -17.6791,4.22163 L -18.1871,3.85255 L -18.6448,3.42273
 L -19.0451,2.93892 L -19.3815,2.40877 L -19.6489,1.84062 L -19.8429,1.24344 L -19.9606,0.626663 L -20,-0
 L -19.9606,-0.626663 L -19.8429,-1.24344 L -19.6489,-1.84062 L -19.3815,-2.40877 L -19.0451,-2.93892 L -18.6448,-3.42273
 L -18.1871,-3.85255 L -17.6791,-4.22163 L -17.1289,-4.52412 L -16.5451,-4.75528 L -15.9369,-4.91142 L -15.3139,-4.99013
 L -14.686,-4.99013 L -14.0631,-4.91142 L -13.4549,-4.75528 L -12.8711,-4.52412 L -12.3209,-4.22163 L -11.8129,-3.85255
 L -11.3551,-3.42273 L -10.9549,-2.93892 L -10.6185,-2.40877 L -10.3511,-1.84062 L -10.1571,-1.24344 L -10.0394,-0.626663
 L -10,-0 L -10.0394,0.626663 z
M 11.3551,-3.42273 L 11.8129,-3.85255 L 12.3209,-4.22163 L 12.8711,-4.52412 L 13.4549,-4.75528 L 14.0631,-4.91142
 L 14.686,-4.99013 L 15.3139,-4.99013 L 15.9369,-4.91142 L 16.5451,-4.75528 L 17.1289,-4.52412 L 17.6791,-4.22163
 L 18.1871,-3.85255 L 18.6448,-3.42273 L 19.0451,-2.93892 L 19.3815,-2.40877 L 19.6489,-1.84062 L 19.8429,-1.24344
 L 19.9606,-0.626663 L 20,-0 L 19.9606,0.626663 L 19.8429,1.24344 L 19.6489,1.84062 L 19.3815,2.40877
 L 19.0451,2.93892 L 18.6448,3.42273 L 18.1871,3.85255 L 17.6791,4.22163 L 17.1289,4.52412 L 16.5451,4.75528
 L 15.9369,4.91142 L 15.3139,4.99013 L 14.686,4.99013 L 14.0631,4.91142 L 13.4549,4.75528 L 12.8711,4.52412
 L 12.3209,4.22163 L 11.8129,3.85255 L 11.3551,3.42273 L 10.9549,2.93892 L 10.6185,2.40877 L 10.3511,1.84062
 L 10.1571,1.24344 L 10.0394,0.626663 L 10,-0 L 10.0394,-0.626663 L 10.1571,-1.24344 L 10.3511,-1.84062
 L 10.6185,-2.40877 L 10.9549,-2.93892 z
M -25.6185,2.40877 L -25.9549,2.93892 L -26.3551,3.42273 L -26.8129,3.85255 L -27.3209,4.22163 L -27.8711,4.52412
 L -28.4549,4.75528 L -29.0631,4.91142 L -29.686,4.99013 L -30.3139,4.99013 L -30.9369,4.91142 L -31.5451,4.75528
 L -32.1289,4.52412 L -32.6791,4.22163 L -33.1871,3.85255 L -33.6448,3.42273 L -34.0451,2.93892 L -34.3815,2.40877
 L -34.6489,1.84062 L -34.8429,1.24344 L -34.9606,0.626663 L -35,-0 L -34.9606,-0.626663 L -34.8429,-1.24344
 L -34.6489,-1.84062 L -34.3815,-2.40877 L -34.0451,-2.93892 L -33.6448,-3.42273 L -33.1871,-3.85255 L -32.6791,-4.22163
 L -32.1289,-4.52412 L -31.5451,-4.75528 L -30.9369,-4.91142 L -30.3139,-4.99013 L -29.686,-4.99013 L -29.0631,-4.91142
 L -28.4549,-4.75528 L -27.8711,-4.52412 L -27.3209,-4.22163 L -26.8129,-3.85255 L -26.3551,-3.42273 L -25.9549,-2.93892
 L -25.6185,-2.40877 L -25.3511,-1.84062 L -25.1571,-1.24344 L -25.0394,-0.626663 L -25,-0 L -25.0394,0.626663
 L -25.1571,1.24344 L -25.3511,1.84062 z
" stroke="black" fill="lightgray" stroke-width="0.5"/>
</svg>
