<?xml version="1.0" standalone="no"?>
<!DOCTYPE svg PUBLIC "-//W3C//DTD SVG 1.1//EN" "http://www.w3.org/Graphics/SVG/1.1/DTD/svg11.dtd">
<svg width="240mm" height="60mm" viewBox="-120 -30 240 60" xmlns="http://www.w3.org/2000/svg" version="1.1">
<title>OpenSCAD Model</title>
<path d="
M 115.437,29.4114 L 116.045,29.2553 L 116.629,29.0241 L 117.179,28.7216 L 117.687,28.3526 L 118.145,27.9227
 L 118.545,27.4389 L 118.882,26.9088 L 119.149,26.3406 L 119.343,25.7434 L 119.461,25.1267 L 119.5,24.5
 L 119.5,-24.5 L 119.461,-25.1267 L 119.343,-25.7434 L 119.149,-26.3406 L 118.882,-26.9088 L 118.545,-27.4389
 L 118.145,-27.9227 L 117.687,-28.3526 L 117.179,-28.7216 L 116.629,-29.0241 L 116.045,-29.2553 L 115.437,-29.4114
 L 114.814,-29.4901 L -114.814,-29.4901 L -115.437,-29.4114 L -116.045,-29.2553 L -116.629,-29.0241 L -117.179,-28.7216
 L -117.687,-28.3526 L -118.145,-27.9227 L -118.545,-27.4389 L -118.882,-26.9088 L -119.149,-26.3406 L -119.343,-25.7434
 L -119.461,-25.1267 L -119.5,-24.5 L -119.5,24.5 L -119.461,25.1267 L -119.343,25.7434 L -119.149,26.3406
 L -118.882,26.9088 L -118.545,27.4389 L -118.145,27.9227 L -117.687,28.3526 L -117.179,28.7216 L -116.629,29.0241
 L -116.045,29.2553 L -115.437,29.4114 L -114.814,29.4901 L 114.814,29.4901 z
M -112.688,-19.5059 L -113.062,-19.5531 L -113.427,-19.6468 L -113.777,-19.7855 L -114.107,-19.967 L -114.412,-20.1884
 L -114.687,-20.4464 L -114.927,-20.7366 L -115.129,-21.0547 L -115.289,-21.3956 L -115.406,-21.7539 L -115.476,-22.124
 L -115.5,-22.5 L -115.476,-22.876 L -115.406,-23.2461 L -115.289,-23.6044 L -115.129,-23.9453 L -114.927,-24.2634
 L -114.687,-24.5536 L -114.412,-24.8115 L -114.107,-25.033 L -113.777,-25.2145 L -113.427,-25.3532 L -113.062,-25.4469
 L -112.688,-25.4941 L -112.312,-25.4941 L -111.938,-25.4469 L -111.573,-25.3532 L -111.223,-25.2145 L -110.893,-25.033
 L -110.588,-24.8115 L -110.313,-24.5536 L -110.073,-24.2634 L -109.871,-23.9453 L -109.711,-23.6044 L -109.594,-23.2461
 L -109.524,-22.876 L -109.5,-22.5 L -109.524,-22.124 L -109.594,-21.7539 L -109.711,-21.3956 L -109.871,-21.0547
 L -110.073,-20.7366 L -110.313,-20.4464 L -110.588,-20.1884 L -110.893,-19.967 L -111.223,-19.7855 L -111.573,-19.6468
 L -111.938,-19.5531 L -112.312,-19.5059 z
M 112.312,-19.5059 L 111.938,-19.5531 L 111.573,-19.6468 L 111.223,-19.7855 L 110.893,-19.967 L 110.588,-20.1884
 L 110.313,-20.4464 L 110.073,-20.7366 L 109.871,-21.0547 L 109.711,-21.3956 L 109.594,-21.7539 L 109.524,-22.124
 L 109.5,-22.5 L 109.524,-22.876 L 109.594,-23.2461 L 109.711,-23.6044 L 109.871,-23.9453 L 110.073,-24.2634
 L 110.313,-24.5536 L 110.588,-24.8115 L 110.893,-25.033 L 111.223,-25.2145 L 111.573,-25.3532 L 111.938,-25.4469
 L 112.312,-25.4941 L 112.688,-25.4941 L 113.062,-25.4469 L 113.427,-25.3532 L 113.777,-25.2145 L 114.107,-25.033
 L 114.412,-24.8115 L 114.687,-24.5536 L 114.927,-24.2634 L 115.129,-23.9453 L 115.289,-23.6044 L 115.406,-23.2461
 L 115.476,-22.876 L 115.5,-22.5 L 115.476,-22.124 L 115.406,-21.7539 L 115.289,-21.3956 L 115.129,-21.0547
 L 114.927,-20.7366 L 114.687,-20.4464 L 114.412,-20.1884 L 114.107,-19.967 L 113.777,-19.7855 L 113.427,-19.6468
 L 113.062,-19.5531 L 112.688,-19.5059 z
M 45.6814,20.9586 L 43.065,20.628 L 40.5106,19.9722 L 38.0586,19.0014 L 35.7476,17.7309 L 33.6141,16.1808
 L 31.6917,14.3755 L 30.0106,12.3435 L 28.5975,10.1168 L 27.4747,7.73061 L 26.6597,5.22247 L 26.1656,2.63199
 L 26,-0 L 26.1656,-2.63199 L 26.6597,-5.22247 L 27.4747,-7.73061 L 28.5975,-10.1168 L 30.0106,-12.3435
 L 31.6917,-14.3755 L 33.6141,-16.1808 L 35.7476,-17.7309 L 38.0586,-19.0014 L 40.5106,-19.9722 L 43.065,-20.628
 L 45.6814,-20.9586 L 48.3186,-20.9586 L 50.935,-20.628 L 53.4893,-19.9722 L 55.9414,-19.0014 L 58.2523,-17.7309
 L 60.3859,-16.1808 L 62.3083,-14.3755 L 63.9893,-12.3435 L 65.4024,-10.1168 L 66.5253,-7.73061 L 67.3402,-5.22247
 L 67.8344,-2.63199 L 68,-0 L 67.8344,2.63199 L 67.3402,5.22247 L 66.5253,7.73061 L 65.4024,10.1168
 L 63.9893,12.3435 L 62.3083,14.3755 L 60.3859,16.1808 L 58.2523,17.7309 L 55.9414,19.0014 L 53.4893,19.9722
 L 50.935,20.628 L 48.3186,20.9586 z
M 92.6814,20.9586 L 90.065,20.628 L 87.5106,19.9722 L 85.0586,19.0014 L 82.7476,17.7309 L 80.6141,16.1808
 L 78.6917,14.3755 L 77.0106,12.3435 L 75.5975,10.1168 L 74.4747,7.73061 L 73.6597,5.22247 L 73.1656,2.63199
 L 73,-0 L 73.1656,-2.63199 L 73.6597,-5.22247 L 74.4747,-7.73061 L 75.5975,-10.1168 L 77.0106,-12.3435
 L 78.6917,-14.3755 L 80.6141,-16.1808 L 82.7476,-17.7309 L 85.0586,-19.0014 L 87.5106,-19.9722 L 90.065,-20.628
 L 92.6814,-20.9586 L 95.3186,-20.9586 L 97.935,-20.628 L 100.489,-19.9722 L 102.941,-19.0014 L 105.252,-17.7309
 L 107.386,-16.1808 L 109.308,-14.3755 L 110.989,-12.3435 L 112.402,-10.1168 L 113.525,-7.73061 L 114.34,-5.22247
 L 114.834,-2.63199 L 115,-0 L 114.834,2.63199 L 114.34,5.22247 L 113.525,7.73061 L 112.402,10.1168
 L 110.989,12.3435 L 109.308,14.3755 L 107.386,16.1808 L 105.252,17.7309 L 102.941,19.0014 L 100.489,19.9722
 L 97.935,20.628 L 95.3186,20.9586 z
M -95.3186,20.9586 L -97.935,20.628 L -100.489,19.9722 L -102.941,19.0014 L -105.252,17.7309 L -107.386,16.1808
 L -109.308,14.3755 L -110.989,12.3435 L -112.402,10.1168 L -113.525,7.73061 L -114.34,5.22247 L -114.834,2.63199
 L -115,-0 L -114.834,-2.63199 L -114.34,-5.22247 L -113.525,-7.73061 L -112.402,-10.1168 L -110.989,-12.3435
 L -109.308,-14.3755 L -107.386,-16.1808 L -105.252,-17.7309 L -102.941,-19.0014 L -100.489,-19.9722 L -97.935,-20.628
 L -95.3186,-20.9586 L -92.6814,-20.9586 L -90.065,-20.628 L -87.5106,-19.9722 L -85.0586,-19.0014 L -82.7476,-17.7309
 L -80.6141,-16.1808 L -78.6917,-14.3755 L -77.0106,-12.3435 L -75.5975,-10.1168 L -74.4747,-7.73061 L -73.6597,-5.22247
 L -73.1656,-2.63199 L -73,-0 L -73.1656,2.63199 L -73.6597,5.22247 L -74.4747,7.73061 L -75.5975,10.1168
 L -77.0106,12.3435 L -78.6917,14.3755 L -80.6141,16.1808 L -82.7476,17.7309 L -85.0586,19.0014 L -87.5106,19.9722
 L -90.065,20.628 L -92.6814,20.9586 z
M -1.31859,20.9586 L -3.935,20.628 L -6.48935,19.9722 L -8.94136,19.0014 L -11.2523,17.7309 L -13.3859,16.1808
 L -15.3083,14.3755 L -16.9893,12.3435 L -18.4024,10.1168 L -19.5253,7.73061 L -20.3402,5.22247 L -20.8344,2.63199
 L -21,-0 L -20.8344,-2.63199 L -20.3402,-5.22247 L -19.5253,-7.73061 L -18.4024,-10.1168 L -16.9893,-12.3435
 L -15.3083,-14.3755 L -13.3859,-16.1808 L -11.2523,-17.7309 L -8.94136,-19.0014 L -6.48935,-19.9722 L -3.935,-20.628
 L -1.31859,-20.9586 L 1.31859,-20.9586 L 3.935,-20.628 L 6.48935,-19.9722 L 8.94136,-19.0014 L 11.2523,-17.7309
 L 13.3859,-16.1808 L 15.3083,-14.3755 L 16.9893,-12.3435 L 18.4024,-10.1168 L 19.5253,-7.73061 L 20.3402,-5.22247
 L 20.8344,-2.63199 L 21,-0 L 20.8344,2.63199 L 20.3402,5.22247 L 19.5253,7.73061 L 18.4024,10.1168
 L 16.9893,12.3435 L 15.3083,14.3755 L 13.3859,16.1808 L 11.2523,17.7309 L 8.94136,19.0014 L 6.48935,19.9722
 L 3.935,20.628 L 1.31859,20.9586 z
M -48.3186,20.9586 L -50.935,20.628 L -53.4893,19.9722 L -55.9414,19.0014 L -58.2523,17.7309 L -60.3859,16.1808
 L -62.3083,14.3755 L -63.9893,12.3435 L -65.4024,10.1168 L -66.5253,7.73061 L -67.3402,5.22247 L -67.8344,2.63199
 L -68,-0 L -67.8344,-2.63199 L -67.3402,-5.22247 L -66.5253,-7.73061 L -65.4024,-10.1168 L -63.9893,-12.3435
 L -62.3083,-14.3755 L -60.3859,-16.1808 L -58.2523,-17.7309 L -55.9414,-19.0014 L -53.4893,-19.9722 L -50.935,-20.628
 L -48.3186,-20.9586 L -45.6814,-20.9586 L -43.065,-20.628 L -40.5106,-19.9722 L -38.0586,-19.0014 L -35.7476,-17.7309
 L -33.6141,-16.1808 L -31.6917,-14.3755 L -30.0106,-12.3435 L -28.5975,-10.1168 L -27.4747,-7.73061 L -26.6597,-5.22247
 L -26.1656,-2.63199 L -26,-0 L -26.1656,2.63199 L -26.6597,5.22247 L -27.4747,7.73061 L -28.5975,10.1168
 L -30.0106,12.3435 L -31.6917,14.3755 L -33.6141,16.1808 L -35.7476,17.7309 L -38.0586,19.0014 L -40.5106,19.9722
 L -43.065,20.628 L -45.6814,20.9586 z
M 112.312,25.4941 L 111.938,25.4469 L 111.573,25.3532 L 111.223,25.2145 L 110.893,25.033 L 110.588,24.8115
 L 110.313,24.5536 L 110.073,24.2634 L 109.871,23.9453 L 109.711,23.6044 L 109.594,23.2461 L 109.524,22.876
 L 109.5,22.5 L 109.524,22.124 L 109.594,21.7539 L 109.711,21.3956 L 109.871,21.0547 L 110.073,20.7366
 L 110.313,20.4464 L 110.588,20.1884 L 110.893,19.967 L 111.223,19.7855 L 111.573,19.6468 L 111.938,19.5531
 L 112.312,19.5059 L 112.688,19.5059 L 113.062,19.5531 L 113.427,19.6468 L 113.777,19.7855 L 114.107,19.967
 L 114.412,20.1884 L 114.687,20.4464 L 114.927,20.7366 L 115.129,21.0547 L 115.289,21.3956 L 115.406,21.7539
 L 115.476,22.124 L 115.5,22.5 L 115.476,22.876 L 115.406,23.2461 L 115.289,23.6044 L 115.129,23.9453
 L 114.927,24.2634 L 114.687,24.5536 L 114.412,24.8115 L 114.107,25.033 L 113.777,25.2145 L 113.427,25.3532
 L 113.062,25.4469 L 112.688,25.4941 z
M -112.688,25.4941 L -113.062,25.4469 L -113.427,25.3532 L -113.777,25.2145 L -114.107,25.033 L -114.412,24.8115
 L -114.687,24.5536 L -114.927,24.2634 L -115.129,23.9453 L -115.289,23.6044 L -115.406,23.2461 L -115.476,22.876
 L -115.5,22.5 L -115.476,22.124 L -115.406,21.7539 L -115.289,21.3956 L -115.129,21.0547 L -114.927,20.7366
 L -114.687,20.4464 L -114.412,20.1884 L -114.107,19.967 L -113.777,19.7855 L -113.427,19.6468 L -113.062,19.5531
 L -112.688,19.5059 L -112.312,19.5059 L -111.938,19.5531 L -111.573,19.6468 L -111.223,19.7855 L -110.893,19.967
 L -110.588,20.1884 L -110.313,20.4464 L -110.073,20.7366 L -109.871,21.0547 L -109.711,21.3956 L -109.594,21.7539
 L -109.524,22.124 L -109.5,22.5 L -109.524,22.876 L -109.594,23.2461 L -109.711,23.6044 L -109.871,23.9453
 L -110.073,24.2634 L -110.313,24.5536 L -110.588,24.8115 L -110.893,25.033 L -111.223,25.2145 L -111.573,25.3532
 L -111.938,25.4469 L -112.312,25.4941 z
" stroke="black" fill="lightgray" stroke-width="0.5"/>
</svg>
