<?xml version="1.0" standalone="no"?>
<!DOCTYPE svg PUBLIC "-//W3C//DTD SVG 1.1//EN" "http://www.w3.org/Graphics/SVG/1.1/DTD/svg11.dtd">
<svg width="74mm" height="44mm" viewBox="-37 -22 74 44" xmlns="http://www.w3.org/2000/svg" version="1.1">
<title>OpenSCAD Model</title>
<path d="
M 32.9369,21.9114 L 33.5451,21.7553 L 34.1289,21.5241 L 34.6791,21.2216 L 35.1871,20.8526 L 35.6448,20.4227
 L 36.0451,19.9389 L 36.3815,19.4088 L 36.6489,18.8406 L 36.8429,18.2434 L 36.9606,17.6267 L 37,17
 L 37,-17 L 36.9606,-17.6267 L 36.8429,-18.2434 L 36.6489,-18.8406 L 36.3815,-19.4088 L 36.0451,-19.9389
 L 35.6448,-20.4227 L 35.1871,-20.8526 L 34.6791,-21.2216 L 34.1289,-21.5241 L 33.5451,-21.7553 L 32.9369,-21.9114
 L 32.3139,-21.9901 L -32.3139,-21.9901 L -32.9369,-21.9114 L -33.5451,-21.7553 L -34.1289,-21.5241 L -34.6791,-21.2216
 L -35.1871,-20.8526 L -35.6448,-20.4227 L -36.0451,-19.9389 L -36.3815,-19.4088 L -36.6489,-18.8406 L -36.8429,-18.2434
 L -36.9606,-17.6267 L -37,-17 L -37,17 L -36.9606,17.6267 L -36.8429,18.2434 L -36.6489,18.8406
 L -36.3815,19.4088 L -36.0451,19.9389 L -35.6448,20.4227 L -35.1871,20.8526 L -34.6791,21.2216 L -34.1289,21.5241
 L -33.5451,21.7553 L -32.9369,21.9114 L -32.3139,21.9901 L 32.3139,21.9901 z
M 29.8116,-12.0059 L 29.4379,-12.0531 L 29.0729,-12.1468 L 28.7227,-12.2855 L 28.3925,-12.467 L 28.0877,-12.6884
 L 27.8131,-12.9464 L 27.5729,-13.2366 L 27.3711,-13.5547 L 27.2107,-13.8956 L 27.0942,-14.2539 L 27.0237,-14.624
 L 27,-15 L 27.0237,-15.376 L 27.0942,-15.7461 L 27.2107,-16.1044 L 27.3711,-16.4453 L 27.5729,-16.7634
 L 27.8131,-17.0536 L 28.0877,-17.3115 L 28.3925,-17.533 L 28.7227,-17.7145 L 29.0729,-17.8532 L 29.4379,-17.9469
 L 29.8116,-17.9941 L 30.1884,-17.9941 L 30.5621,-17.9469 L 30.927,-17.8532 L 31.2773,-17.7145 L 31.6075,-17.533
 L 31.9123,-17.3115 L 32.1869,-17.0536 L 32.427,-16.7634 L 32.6289,-16.4453 L 32.7893,-16.1044 L 32.9057,-15.7461
 L 32.9763,-15.376 L 33,-15 L 32.9763,-14.624 L 32.9057,-14.2539 L 32.7893,-13.8956 L 32.6289,-13.5547
 L 32.427,-13.2366 L 32.1869,-12.9464 L 31.9123,-12.6884 L 31.6075,-12.467 L 31.2773,-12.2855 L 30.927,-12.1468
 L 30.5621,-12.0531 L 30.1884,-12.0059 z
M -30.1884,-12.0059 L -30.5621,-12.0531 L -30.927,-12.1468 L -31.2773,-12.2855 L -31.6075,-12.467 L -31.9123,-12.6884
 L -32.1869,-12.9464 L -32.427,-13.2366 L -32.6289,-13.5547 L -32.7893,-13.8956 L -32.9057,-14.2539 L -32.9763,-14.624
 L -33,-15 L -32.9763,-15.376 L -32.9057,-15.7461 L -32.7893,-16.1044 L -32.6289,-16.4453 L -32.427,-16.7634
 L -32.1869,-17.0536 L -31.9123,-17.3115 L -31.6075,-17.533 L -31.2773,-17.7145 L -30.927,-17.8532 L -30.5621,-17.9469
 L -30.1884,-17.9941 L -29.8116,-17.9941 L -29.4379,-17.9469 L -29.0729,-17.8532 L -28.7227,-17.7145 L -28.3925,-17.533
 L -28.0877,-17.3115 L -27.8131,-17.0536 L -27.5729,-16.7634 L -27.3711,-16.4453 L -27.2107,-16.1044 L -27.0942,-15.7461
 L -27.0237,-15.376 L -27,-15 L -27.0237,-14.624 L -27.0942,-14.2539 L -27.2107,-13.8956 L -27.3711,-13.5547
 L -27.5729,-13.2366 L -27.8131,-12.9464 L -28.0877,-12.6884 L -28.3925,-12.467 L -28.7227,-12.2855 L -29.0729,-12.1468
 L -29.4379,-12.0531 L -29.8116,-12.0059 z
M 16.0895,14.4714 L 14.283,14.2432 L 12.5192,13.7903 L 10.8262,13.12 L 9.2305,12.2428 L 7.75734,11.1724
 L 6.42995,9.92592 L 5.26924,8.52287 L 4.29355,6.98543 L 3.51823,5.3378 L 2.95554,3.606 L 2.61433,1.81732
 L 2.5,-0 L 2.61433,-1.81732 L 2.95554,-3.606 L 3.51823,-5.3378 L 4.29355,-6.98543 L 5.26924,-8.52287
 L 6.42995,-9.92592 L 7.75734,-11.1724 L 9.2305,-12.2428 L 10.8262,-13.12 L 12.5192,-13.7903 L 14.283,-14.2432
 L 16.0895,-14.4714 L 17.9105,-14.4714 L 19.717,-14.2432 L 21.4807,-13.7903 L 23.1738,-13.12 L 24.7695,-12.2428
 L 26.2426,-11.1724 L 27.57,-9.92592 L 28.7307,-8.52287 L 29.7064,-6.98543 L 30.4818,-5.3378 L 31.0444,-3.606
 L 31.3857,-1.81732 L 31.5,-0 L 31.3857,1.81732 L 31.0444,3.606 L 30.4818,5.3378 L 29.7064,6.98543
 L 28.7307,8.52287 L 27.57,9.92592 L 26.2426,11.1724 L 24.7695,12.2428 L 23.1738,13.12 L 21.4807,13.7903
 L 19.717,14.2432 L 17.9105,14.4714 z
M -17.9105,14.4714 L -19.717,14.2432 L -21.4807,13.7903 L -23.1738,13.12 L -24.7695,12.2428 L -26.2426,11.1724
 L -27.57,9.92592 L -28.7307,8.52287 L -29.7064,6.98543 L -30.4818,5.3378 L -31.0444,3.606 L -31.3857,1.81732
 L -31.5,-0 L -31.3857,-1.81732 L -31.0444,-3.606 L -30.4818,-5.3378 L -29.7064,-6.98543 L -28.7307,-8.52287
 L -27.57,-9.92592 L -26.2426,-11.1724 L -24.7695,-12.2428 L -23.1738,-13.12 L -21.4807,-13.7903 L -19.717,-14.2432
 L -17.9105,-14.4714 L -16.0895,-14.4714 L -14.283,-14.2432 L -12.5192,-13.7903 L -10.8262,-13.12 L -9.2305,-12.2428
 L -7.75734,-11.1724 L -6.42995,-9.92592 L -5.26924,-8.52287 L -4.29355,-6.98543 L -3.51823,-5.3378 L -2.95554,-3.606
 L -2.61433,-1.81732 L -2.5,-0 L -2.61433,1.81732 L -2.95554,3.606 L -3.51823,5.3378 L -4.29355,6.98543
 L -5.26924,8.52287 L -6.42995,9.92592 L -7.75734,11.1724 L -9.2305,12.2428 L -10.8262,13.12 L -12.5192,13.7903
 L -14.283,14.2432 L -16.0895,14.4714 z
M 29.8116,17.9941 L 29.4379,17.9469 L 29.0729,17.8532 L 28.7227,17.7145 L 28.3925,17.533 L 28.0877,17.3115
 L 27.8131,17.0536 L 27.5729,16.7634 L 27.3711,16.4453 L 27.2107,16.1044 L 27.0942,15.7461 L 27.0237,15.376
 L 27,15 L 27.0237,14.624 L 27.0942,14.2539 L 27.2107,13.8956 L 27.3711,13.5547 L 27.5729,13.2366
 L 27.8131,12.9464 L 28.0877,12.6884 L 28.3925,12.467 L 28.7227,12.2855 L 29.0729,12.1468 L 29.4379,12.0531
 L 29.8116,12.0059 L 30.1884,12.0059 L 30.5621,12.0531 L 30.927,12.1468 L 31.2773,12.2855 L 31.6075,12.467
 L 31.9123,12.6884 L 32.1869,12.9464 L 32.427,13.2366 L 32.6289,13.5547 L 32.7893,13.8956 L 32.9057,14.2539
 L 32.9763,14.624 L 33,15 L 32.9763,15.376 L 32.9057,15.7461 L 32.7893,16.1044 L 32.6289,16.4453
 L 32.427,16.7634 L 32.1869,17.0536 L 31.9123,17.3115 L 31.6075,17.533 L 31.2773,17.7145 L 30.927,17.8532
 L 30.5621,17.9469 L 30.1884,17.9941 z
M -30.1884,17.9941 L -30.5621,17.9469 L -30.927,17.8532 L -31.2773,17.7145 L -31.6075,17.533 L -31.9123,17.3115
 L -32.1869,17.0536 L -32.427,16.7634 L -32.6289,16.4453 L -32.7893,16.1044 L -32.9057,15.7461 L -32.9763,15.376
 L -33,15 L -32.9763,14.624 L -32.9057,14.2539 L -32.7893,13.8956 L -32.6289,13.5547 L -32.427,13.2366
 L -32.1869,12.9464 L -31.9123,12.6884 L -31.6075,12.467 L -31.2773,12.2855 L -30.927,12.1468 L -30.5621,12.0531
 L -30.1884,12.0059 L -29.8116,12.0059 L -29.4379,12.0531 L -29.0729,12.1468 L -28.7227,12.2855 L -28.3925,12.467
 L -28.0877,12.6884 L -27.8131,12.9464 L -27.5729,13.2366 L -27.3711,13.5547 L -27.2107,13.8956 L -27.0942,14.2539
 L -27.0237,14.624 L -27,15 L -27.0237,15.376 L -27.0942,15.7461 L -27.2107,16.1044 L -27.3711,16.4453
 L -27.5729,16.7634 L -27.8131,17.0536 L -28.0877,17.3115 L -28.3925,17.533 L -28.7227,17.7145 L -29.0729,17.8532
 L -29.4379,17.9469 L -29.8116,17.9941 z
" stroke="black" fill="lightgray" stroke-width="0.5"/>
</svg>
