<?xml version="1.0" standalone="no"?>
<!DOCTYPE svg PUBLIC "-//W3C//DTD SVG 1.1//EN" "http://www.w3.org/Graphics/SVG/1.1/DTD/svg11.dtd">
<svg width="74mm" height="14mm" viewBox="-37 -31 74 14" xmlns="http://www.w3.org/2000/svg" version="1.1">
<title>OpenSCAD Model</title>
<path d="
M 32.9369,-17.0886 L 33.5451,-17.2447 L 34.1289,-17.4759 L 34.6791,-17.7784 L 35.1871,-18.1474 L 35.6448,-18.5773
 L 36.0451,-19.0611 L 36.3815,-19.5912 L 36.6489,-20.1594 L 36.8429,-20.7566 L 36.9606,-21.3733 L 37,-22
 L 37,-26 L 36.9606,-26.6267 L 36.8429,-27.2434 L 36.6489,-27.8406 L 36.3815,-28.4088 L 36.0451,-28.9389
 L 35.6448,-29.4227 L 35.1871,-29.8526 L 34.6791,-30.2216 L 34.1289,-30.5241 L 33.5451,-30.7553 L 32.9369,-30.9114
 L 32.3139,-30.9901 L -32.3139,-30.9901 L -32.9369,-30.9114 L -33.5451,-30.7553 L -34.1289,-30.5241 L -34.6791,-30.2216
 L -35.1871,-29.8526 L -35.6448,-29.4227 L -36.0451,-28.9389 L -36.3815,-28.4088 L -36.6489,-27.8406 L -36.8429,-27.2434
 L -36.9606,-26.6267 L -37,-26 L -37,-22 L -36.9606,-21.3733 L -36.8429,-20.7566 L -36.6489,-20.1594
 L -36.3815,-19.5912 L -36.0451,-19.0611 L -35.6448,-18.5773 L -35.1871,-18.1474 L -34.6791,-17.7784 L -34.1289,-17.4759
 L -33.5451,-17.2447 L -32.9369,-17.0886 L -32.3139,-17.0099 L 32.3139,-17.0099 z
M 29.8116,-21.0059 L 29.4379,-21.0531 L 29.0729,-21.1468 L 28.7227,-21.2855 L 28.3925,-21.467 L 28.0877,-21.6885
 L 27.8131,-21.9464 L 27.5729,-22.2366 L 27.3711,-22.5547 L 27.2107,-22.8956 L 27.0942,-23.2539 L 27.0237,-23.624
 L 27,-24 L 27.0237,-24.376 L 27.0942,-24.7461 L 27.2107,-25.1044 L 27.3711,-25.4453 L 27.5729,-25.7634
 L 27.8131,-26.0536 L 28.0877,-26.3115 L 28.3925,-26.533 L 28.7227,-26.7145 L 29.0729,-26.8532 L 29.4379,-26.9469
 L 29.8116,-26.9941 L 30.1884,-26.9941 L 30.5621,-26.9469 L 30.927,-26.8532 L 31.2773,-26.7145 L 31.6075,-26.533
 L 31.9123,-26.3115 L 32.1869,-26.0536 L 32.427,-25.7634 L 32.6289,-25.4453 L 32.7893,-25.1044 L 32.9057,-24.7461
 L 32.9763,-24.376 L 33,-24 L 32.9763,-23.624 L 32.9057,-23.2539 L 32.7893,-22.8956 L 32.6289,-22.5547
 L 32.427,-22.2366 L 32.1869,-21.9464 L 31.9123,-21.6885 L 31.6075,-21.467 L 31.2773,-21.2855 L 30.927,-21.1468
 L 30.5621,-21.0531 L 30.1884,-21.0059 z
M -30.1884,-21.0059 L -30.5621,-21.0531 L -30.927,-21.1468 L -31.2773,-21.2855 L -31.6075,-21.467 L -31.9123,-21.6885
 L -32.1869,-21.9464 L -32.427,-22.2366 L -32.6289,-22.5547 L -32.7893,-22.8956 L -32.9057,-23.2539 L -32.9763,-23.624
 L -33,-24 L -32.9763,-24.376 L -32.9057,-24.7461 L -32.7893,-25.1044 L -32.6289,-25.4453 L -32.427,-25.7634
 L -32.1869,-26.0536 L -31.9123,-26.3115 L -31.6075,-26.533 L -31.2773,-26.7145 L -30.927,-26.8532 L -30.5621,-26.9469
 L -30.1884,-26.9941 L -29.8116,-26.9941 L -29.4379,-26.9469 L -29.0729,-26.8532 L -28.7227,-26.7145 L -28.3925,-26.533
 L -28.0877,-26.3115 L -27.8131,-26.0536 L -27.5729,-25.7634 L -27.3711,-25.4453 L -27.2107,-25.1044 L -27.0942,-24.7461
 L -27.0237,-24.376 L -27,-24 L -27.0237,-23.624 L -27.0942,-23.2539 L -27.2107,-22.8956 L -27.3711,-22.5547
 L -27.5729,-22.2366 L -27.8131,-21.9464 L -28.0877,-21.6885 L -28.3925,-21.467 L -28.7227,-21.2855 L -29.0729,-21.1468
 L -29.4379,-21.0531 L -29.8116,-21.0059 z
M 8.8744,-22.004 L 8.62523,-22.0354 L 8.38196,-22.0979 L 8.14844,-22.1904 L 7.92834,-22.3114 L 7.72514,-22.459
 L 7.54205,-22.6309 L 7.38196,-22.8244 L 7.24738,-23.0365 L 7.14044,-23.2638 L 7.06282,-23.5026 L 7.01576,-23.7493
 L 7,-24 L 7.01576,-24.2507 L 7.06282,-24.4974 L 7.14044,-24.7362 L 7.24738,-24.9635 L 7.38196,-25.1756
 L 7.54205,-25.3691 L 7.72514,-25.541 L 7.92834,-25.6886 L 8.14844,-25.8096 L 8.38196,-25.9021 L 8.62523,-25.9646
 L 8.8744,-25.996 L 9.12558,-25.996 L 9.37476,-25.9646 L 9.61803,-25.9021 L 9.85155,-25.8096 L 10.0716,-25.6886
 L 10.2748,-25.541 L 10.4579,-25.3691 L 10.618,-25.1756 L 10.7526,-24.9635 L 10.8595,-24.7362 L 10.9372,-24.4974
 L 10.9842,-24.2507 L 11,-24 L 10.9842,-23.7493 L 10.9372,-23.5026 L 10.8595,-23.2638 L 10.7526,-23.0365
 L 10.618,-22.8244 L 10.4579,-22.6309 L 10.2748,-22.459 L 10.0716,-22.3114 L 9.85155,-22.1904 L 9.61803,-22.0979
 L 9.37476,-22.0354 L 9.12558,-22.004 z
M -18.1256,-22.004 L -18.3748,-22.0354 L -18.618,-22.0979 L -18.8515,-22.1904 L -19.0716,-22.3114 L -19.2748,-22.459
 L -19.4579,-22.6309 L -19.618,-22.8244 L -19.7526,-23.0365 L -19.8595,-23.2638 L -19.9372,-23.5026 L -19.9842,-23.7493
 L -20,-24 L -19.9842,-24.2507 L -19.9372,-24.4974 L -19.8595,-24.7362 L -19.7526,-24.9635 L -19.618,-25.1756
 L -19.4579,-25.3691 L -19.2748,-25.541 L -19.0716,-25.6886 L -18.8515,-25.8096 L -18.618,-25.9021 L -18.3748,-25.9646
 L -18.1256,-25.996 L -17.8744,-25.996 L -17.6252,-25.9646 L -17.382,-25.9021 L -17.1484,-25.8096 L -16.9283,-25.6886
 L -16.7251,-25.541 L -16.5421,-25.3691 L -16.382,-25.1756 L -16.2474,-24.9635 L -16.1404,-24.7362 L -16.0628,-24.4974
 L -16.0158,-24.2507 L -16,-24 L -16.0158,-23.7493 L -16.0628,-23.5026 L -16.1404,-23.2638 L -16.2474,-23.0365
 L -16.382,-22.8244 L -16.5421,-22.6309 L -16.7251,-22.459 L -16.9283,-22.3114 L -17.1484,-22.1904 L -17.382,-22.0979
 L -17.6252,-22.0354 L -17.8744,-22.004 z
M -0.12558,-22.004 L -0.374756,-22.0354 L -0.618027,-22.0979 L -0.851547,-22.1904 L -1.07164,-22.3114 L -1.27484,-22.459
 L -1.45793,-22.6309 L -1.61803,-22.8244 L -1.75261,-23.0365 L -1.85954,-23.2638 L -1.93716,-23.5026 L -1.98422,-23.7493
 L -2,-24 L -1.98422,-24.2507 L -1.93716,-24.4974 L -1.85954,-24.7362 L -1.75261,-24.9635 L -1.61803,-25.1756
 L -1.45793,-25.3691 L -1.27484,-25.541 L -1.07164,-25.6886 L -0.851547,-25.8096 L -0.618027,-25.9021 L -0.374756,-25.9646
 L -0.12558,-25.996 L 0.12558,-25.996 L 0.374756,-25.9646 L 0.618027,-25.9021 L 0.851547,-25.8096 L 1.07164,-25.6886
 L 1.27484,-25.541 L 1.45793,-25.3691 L 1.61803,-25.1756 L 1.75261,-24.9635 L 1.85954,-24.7362 L 1.93716,-24.4974
 L 1.98422,-24.2507 L 2,-24 L 1.98422,-23.7493 L 1.93716,-23.5026 L 1.85954,-23.2638 L 1.75261,-23.0365
 L 1.61803,-22.8244 L 1.45793,-22.6309 L 1.27484,-22.459 L 1.07164,-22.3114 L 0.851547,-22.1904 L 0.618027,-22.0979
 L 0.374756,-22.0354 L 0.12558,-22.004 z
M -9.12558,-22.004 L -9.37476,-22.0354 L -9.61803,-22.0979 L -9.85155,-22.1904 L -10.0716,-22.3114 L -10.2748,-22.459
 L -10.4579,-22.6309 L -10.618,-22.8244 L -10.7526,-23.0365 L -10.8595,-23.2638 L -10.9372,-23.5026 L -10.9842,-23.7493
 L -11,-24 L -10.9842,-24.2507 L -10.9372,-24.4974 L -10.8595,-24.7362 L -10.7526,-24.9635 L -10.618,-25.1756
 L -10.4579,-25.3691 L -10.2748,-25.541 L -10.0716,-25.6886 L -9.85155,-25.8096 L -9.61803,-25.9021 L -9.37476,-25.9646
 L -9.12558,-25.996 L -8.8744,-25.996 L -8.62523,-25.9646 L -8.38196,-25.9021 L -8.14844,-25.8096 L -7.92834,-25.6886
 L -7.72514,-25.541 L -7.54205,-25.3691 L -7.38196,-25.1756 L -7.24738,-24.9635 L -7.14044,-24.7362 L -7.06282,-24.4974
 L -7.01576,-24.2507 L -7,-24 L -7.01576,-23.7493 L -7.06282,-23.5026 L -7.14044,-23.2638 L -7.24738,-23.0365
 L -7.38196,-22.8244 L -7.54205,-22.6309 L -7.72514,-22.459 L -7.92834,-22.3114 L -8.14844,-22.1904 L -8.38196,-22.0979
 L -8.62523,-22.0354 L -8.8744,-22.004 z
M 17.8744,-22.004 L 17.6252,-22.0354 L 17.382,-22.0979 L 17.1484,-22.1904 L 16.9283,-22.3114 L 16.7251,-22.459
 L 16.5421,-22.6309 L 16.382,-22.8244 L 16.2474,-23.0365 L 16.1404,-23.2638 L 16.0628,-23.5026 L 16.0158,-23.7493
 L 16,-24 L 16.0158,-24.2507 L 16.0628,-24.4974 L 16.1404,-24.7362 L 16.2474,-24.9635 L 16.382,-25.1756
 L 16.5421,-25.3691 L 16.7251,-25.541 L 16.9283,-25.6886 L 17.1484,-25.8096 L 17.382,-25.9021 L 17.6252,-25.9646
 L 17.8744,-25.996 L 18.1256,-25.996 L 18.3748,-25.9646 L 18.618,-25.9021 L 18.8515,-25.8096 L 19.0716,-25.6886
 L 19.2748,-25.541 L 19.4579,-25.3691 L 19.618,-25.1756 L 19.7526,-24.9635 L 19.8595,-24.7362 L 19.9372,-24.4974
 L 19.9842,-24.2507 L 20,-24 L 19.9842,-23.7493 L 19.9372,-23.5026 L 19.8595,-23.2638 L 19.7526,-23.0365
 L 19.618,-22.8244 L 19.4579,-22.6309 L 19.2748,-22.459 L 19.0716,-22.3114 L 18.8515,-22.1904 L 18.618,-22.0979
 L 18.3748,-22.0354 L 18.1256,-22.004 z
" stroke="black" fill="lightgray" stroke-width="0.5"/>
</svg>
