  0
SECTION
  2
BLOCKS
  0
ENDSEC
  0
SECTION
  2
ENTITIES
  0
LINE
  8
0
 10
32.9369
 20
17.0886
 11
33.5451
 21
17.2447
  0
LINE
  8
0
 10
33.5451
 20
17.2447
 11
34.1289
 21
17.4759
  0
LINE
  8
0
 10
34.1289
 20
17.4759
 11
34.6791
 21
17.7784
  0
LINE
  8
0
 10
34.6791
 20
17.7784
 11
35.1871
 21
18.1474
  0
LINE
  8
0
 10
35.1871
 20
18.1474
 11
35.6448
 21
18.5773
  0
LINE
  8
0
 10
35.6448
 20
18.5773
 11
36.0451
 21
19.0611
  0
LINE
  8
0
 10
36.0451
 20
19.0611
 11
36.3815
 21
19.5912
  0
LINE
  8
0
 10
36.3815
 20
19.5912
 11
36.6489
 21
20.1594
  0
LINE
  8
0
 10
36.6489
 20
20.1594
 11
36.8429
 21
20.7566
  0
LINE
  8
0
 10
36.8429
 20
20.7566
 11
36.9606
 21
21.3733
  0
LINE
  8
0
 10
36.9606
 20
21.3733
 11
37
 21
22
  0
LINE
  8
0
 10
37
 20
22
 11
37
 21
26
  0
LINE
  8
0
 10
37
 20
26
 11
36.9606
 21
26.6267
  0
LINE
  8
0
 10
36.9606
 20
26.6267
 11
36.8429
 21
27.2434
  0
LINE
  8
0
 10
36.8429
 20
27.2434
 11
36.6489
 21
27.8406
  0
LINE
  8
0
 10
36.6489
 20
27.8406
 11
36.3815
 21
28.4088
  0
LINE
  8
0
 10
36.3815
 20
28.4088
 11
36.0451
 21
28.9389
  0
LINE
  8
0
 10
36.0451
 20
28.9389
 11
35.6448
 21
29.4227
  0
LINE
  8
0
 10
35.6448
 20
29.4227
 11
35.1871
 21
29.8526
  0
LINE
  8
0
 10
35.1871
 20
29.8526
 11
34.6791
 21
30.2216
  0
LINE
  8
0
 10
34.6791
 20
30.2216
 11
34.1289
 21
30.5241
  0
LINE
  8
0
 10
34.1289
 20
30.5241
 11
33.5451
 21
30.7553
  0
LINE
  8
0
 10
33.5451
 20
30.7553
 11
32.9369
 21
30.9114
  0
LINE
  8
0
 10
32.9369
 20
30.9114
 11
32.3139
 21
30.9901
  0
LINE
  8
0
 10
32.3139
 20
30.9901
 11
-32.3139
 21
30.9901
  0
LINE
  8
0
 10
-32.3139
 20
30.9901
 11
-32.9369
 21
30.9114
  0
LINE
  8
0
 10
-32.9369
 20
30.9114
 11
-33.5451
 21
30.7553
  0
LINE
  8
0
 10
-33.5451
 20
30.7553
 11
-34.1289
 21
30.5241
  0
LINE
  8
0
 10
-34.1289
 20
30.5241
 11
-34.6791
 21
30.2216
  0
LINE
  8
0
 10
-34.6791
 20
30.2216
 11
-35.1871
 21
29.8526
  0
LINE
  8
0
 10
-35.1871
 20
29.8526
 11
-35.6448
 21
29.4227
  0
LINE
  8
0
 10
-35.6448
 20
29.4227
 11
-36.0451
 21
28.9389
  0
LINE
  8
0
 10
-36.0451
 20
28.9389
 11
-36.3815
 21
28.4088
  0
LINE
  8
0
 10
-36.3815
 20
28.4088
 11
-36.6489
 21
27.8406
  0
LINE
  8
0
 10
-36.6489
 20
27.8406
 11
-36.8429
 21
27.2434
  0
LINE
  8
0
 10
-36.8429
 20
27.2434
 11
-36.9606
 21
26.6267
  0
LINE
  8
0
 10
-36.9606
 20
26.6267
 11
-37
 21
26
  0
LINE
  8
0
 10
-37
 20
26
 11
-37
 21
22
  0
LINE
  8
0
 10
-37
 20
22
 11
-36.9606
 21
21.3733
  0
LINE
  8
0
 10
-36.9606
 20
21.3733
 11
-36.8429
 21
20.7566
  0
LINE
  8
0
 10
-36.8429
 20
20.7566
 11
-36.6489
 21
20.1594
  0
LINE
  8
0
 10
-36.6489
 20
20.1594
 11
-36.3815
 21
19.5912
  0
LINE
  8
0
 10
-36.3815
 20
19.5912
 11
-36.0451
 21
19.0611
  0
LINE
  8
0
 10
-36.0451
 20
19.0611
 11
-35.6448
 21
18.5773
  0
LINE
  8
0
 10
-35.6448
 20
18.5773
 11
-35.1871
 21
18.1474
  0
LINE
  8
0
 10
-35.1871
 20
18.1474
 11
-34.6791
 21
17.7784
  0
LINE
  8
0
 10
-34.6791
 20
17.7784
 11
-34.1289
 21
17.4759
  0
LINE
  8
0
 10
-34.1289
 20
17.4759
 11
-33.5451
 21
17.2447
  0
LINE
  8
0
 10
-33.5451
 20
17.2447
 11
-32.9369
 21
17.0886
  0
LINE
  8
0
 10
-32.9369
 20
17.0886
 11
-32.3139
 21
17.0099
  0
LINE
  8
0
 10
-32.3139
 20
17.0099
 11
32.3139
 21
17.0099
  0
LINE
  8
0
 10
32.3139
 20
17.0099
 11
32.9369
 21
17.0886
  0
LINE
  8
0
 10
29.8116
 20
21.0059
 11
29.4379
 21
21.0531
  0
LINE
  8
0
 10
29.4379
 20
21.0531
 11
29.0729
 21
21.1468
  0
LINE
  8
0
 10
29.0729
 20
21.1468
 11
28.7227
 21
21.2855
  0
LINE
  8
0
 10
28.7227
 20
21.2855
 11
28.3925
 21
21.467
  0
LINE
  8
0
 10
28.3925
 20
21.467
 11
28.0877
 21
21.6885
  0
LINE
  8
0
 10
28.0877
 20
21.6885
 11
27.8131
 21
21.9464
  0
LINE
  8
0
 10
27.8131
 20
21.9464
 11
27.5729
 21
22.2366
  0
LINE
  8
0
 10
27.5729
 20
22.2366
 11
27.3711
 21
22.5547
  0
LINE
  8
0
 10
27.3711
 20
22.5547
 11
27.2107
 21
22.8956
  0
LINE
  8
0
 10
27.2107
 20
22.8956
 11
27.0942
 21
23.2539
  0
LINE
  8
0
 10
27.0942
 20
23.2539
 11
27.0237
 21
23.624
  0
LINE
  8
0
 10
27.0237
 20
23.624
 11
27
 21
24
  0
LINE
  8
0
 10
27
 20
24
 11
27.0237
 21
24.376
  0
LINE
  8
0
 10
27.0237
 20
24.376
 11
27.0942
 21
24.7461
  0
LINE
  8
0
 10
27.0942
 20
24.7461
 11
27.2107
 21
25.1044
  0
LINE
  8
0
 10
27.2107
 20
25.1044
 11
27.3711
 21
25.4453
  0
LINE
  8
0
 10
27.3711
 20
25.4453
 11
27.5729
 21
25.7634
  0
LINE
  8
0
 10
27.5729
 20
25.7634
 11
27.8131
 21
26.0536
  0
LINE
  8
0
 10
27.8131
 20
26.0536
 11
28.0877
 21
26.3115
  0
LINE
  8
0
 10
28.0877
 20
26.3115
 11
28.3925
 21
26.533
  0
LINE
  8
0
 10
28.3925
 20
26.533
 11
28.7227
 21
26.7145
  0
LINE
  8
0
 10
28.7227
 20
26.7145
 11
29.0729
 21
26.8532
  0
LINE
  8
0
 10
29.0729
 20
26.8532
 11
29.4379
 21
26.9469
  0
LINE
  8
0
 10
29.4379
 20
26.9469
 11
29.8116
 21
26.9941
  0
LINE
  8
0
 10
29.8116
 20
26.9941
 11
30.1884
 21
26.9941
  0
LINE
  8
0
 10
30.1884
 20
26.9941
 11
30.5621
 21
26.9469
  0
LINE
  8
0
 10
30.5621
 20
26.9469
 11
30.927
 21
26.8532
  0
LINE
  8
0
 10
30.927
 20
26.8532
 11
31.2773
 21
26.7145
  0
LINE
  8
0
 10
31.2773
 20
26.7145
 11
31.6075
 21
26.533
  0
LINE
  8
0
 10
31.6075
 20
26.533
 11
31.9123
 21
26.3115
  0
LINE
  8
0
 10
31.9123
 20
26.3115
 11
32.1869
 21
26.0536
  0
LINE
  8
0
 10
32.1869
 20
26.0536
 11
32.427
 21
25.7634
  0
LINE
  8
0
 10
32.427
 20
25.7634
 11
32.6289
 21
25.4453
  0
LINE
  8
0
 10
32.6289
 20
25.4453
 11
32.7893
 21
25.1044
  0
LINE
  8
0
 10
32.7893
 20
25.1044
 11
32.9057
 21
24.7461
  0
LINE
  8
0
 10
32.9057
 20
24.7461
 11
32.9763
 21
24.376
  0
LINE
  8
0
 10
32.9763
 20
24.376
 11
33
 21
24
  0
LINE
  8
0
 10
33
 20
24
 11
32.9763
 21
23.624
  0
LINE
  8
0
 10
32.9763
 20
23.624
 11
32.9057
 21
23.2539
  0
LINE
  8
0
 10
32.9057
 20
23.2539
 11
32.7893
 21
22.8956
  0
LINE
  8
0
 10
32.7893
 20
22.8956
 11
32.6289
 21
22.5547
  0
LINE
  8
0
 10
32.6289
 20
22.5547
 11
32.427
 21
22.2366
  0
LINE
  8
0
 10
32.427
 20
22.2366
 11
32.1869
 21
21.9464
  0
LINE
  8
0
 10
32.1869
 20
21.9464
 11
31.9123
 21
21.6885
  0
LINE
  8
0
 10
31.9123
 20
21.6885
 11
31.6075
 21
21.467
  0
LINE
  8
0
 10
31.6075
 20
21.467
 11
31.2773
 21
21.2855
  0
LINE
  8
0
 10
31.2773
 20
21.2855
 11
30.927
 21
21.1468
  0
LINE
  8
0
 10
30.927
 20
21.1468
 11
30.5621
 21
21.0531
  0
LINE
  8
0
 10
30.5621
 20
21.0531
 11
30.1884
 21
21.0059
  0
LINE
  8
0
 10
30.1884
 20
21.0059
 11
29.8116
 21
21.0059
  0
LINE
  8
0
 10
-30.1884
 20
21.0059
 11
-30.5621
 21
21.0531
  0
LINE
  8
0
 10
-30.5621
 20
21.0531
 11
-30.927
 21
21.1468
  0
LINE
  8
0
 10
-30.927
 20
21.1468
 11
-31.2773
 21
21.2855
  0
LINE
  8
0
 10
-31.2773
 20
21.2855
 11
-31.6075
 21
21.467
  0
LINE
  8
0
 10
-31.6075
 20
21.467
 11
-31.9123
 21
21.6885
  0
LINE
  8
0
 10
-31.9123
 20
21.6885
 11
-32.1869
 21
21.9464
  0
LINE
  8
0
 10
-32.1869
 20
21.9464
 11
-32.427
 21
22.2366
  0
LINE
  8
0
 10
-32.427
 20
22.2366
 11
-32.6289
 21
22.5547
  0
LINE
  8
0
 10
-32.6289
 20
22.5547
 11
-32.7893
 21
22.8956
  0
LINE
  8
0
 10
-32.7893
 20
22.8956
 11
-32.9057
 21
23.2539
  0
LINE
  8
0
 10
-32.9057
 20
23.2539
 11
-32.9763
 21
23.624
  0
LINE
  8
0
 10
-32.9763
 20
23.624
 11
-33
 21
24
  0
LINE
  8
0
 10
-33
 20
24
 11
-32.9763
 21
24.376
  0
LINE
  8
0
 10
-32.9763
 20
24.376
 11
-32.9057
 21
24.7461
  0
LINE
  8
0
 10
-32.9057
 20
24.7461
 11
-32.7893
 21
25.1044
  0
LINE
  8
0
 10
-32.7893
 20
25.1044
 11
-32.6289
 21
25.4453
  0
LINE
  8
0
 10
-32.6289
 20
25.4453
 11
-32.427
 21
25.7634
  0
LINE
  8
0
 10
-32.427
 20
25.7634
 11
-32.1869
 21
26.0536
  0
LINE
  8
0
 10
-32.1869
 20
26.0536
 11
-31.9123
 21
26.3115
  0
LINE
  8
0
 10
-31.9123
 20
26.3115
 11
-31.6075
 21
26.533
  0
LINE
  8
0
 10
-31.6075
 20
26.533
 11
-31.2773
 21
26.7145
  0
LINE
  8
0
 10
-31.2773
 20
26.7145
 11
-30.927
 21
26.8532
  0
LINE
  8
0
 10
-30.927
 20
26.8532
 11
-30.5621
 21
26.9469
  0
LINE
  8
0
 10
-30.5621
 20
26.9469
 11
-30.1884
 21
26.9941
  0
LINE
  8
0
 10
-30.1884
 20
26.9941
 11
-29.8116
 21
26.9941
  0
LINE
  8
0
 10
-29.8116
 20
26.9941
 11
-29.4379
 21
26.9469
  0
LINE
  8
0
 10
-29.4379
 20
26.9469
 11
-29.0729
 21
26.8532
  0
LINE
  8
0
 10
-29.0729
 20
26.8532
 11
-28.7227
 21
26.7145
  0
LINE
  8
0
 10
-28.7227
 20
26.7145
 11
-28.3925
 21
26.533
  0
LINE
  8
0
 10
-28.3925
 20
26.533
 11
-28.0877
 21
26.3115
  0
LINE
  8
0
 10
-28.0877
 20
26.3115
 11
-27.8131
 21
26.0536
  0
LINE
  8
0
 10
-27.8131
 20
26.0536
 11
-27.5729
 21
25.7634
  0
LINE
  8
0
 10
-27.5729
 20
25.7634
 11
-27.3711
 21
25.4453
  0
LINE
  8
0
 10
-27.3711
 20
25.4453
 11
-27.2107
 21
25.1044
  0
LINE
  8
0
 10
-27.2107
 20
25.1044
 11
-27.0942
 21
24.7461
  0
LINE
  8
0
 10
-27.0942
 20
24.7461
 11
-27.0237
 21
24.376
  0
LINE
  8
0
 10
-27.0237
 20
24.376
 11
-27
 21
24
  0
LINE
  8
0
 10
-27
 20
24
 11
-27.0237
 21
23.624
  0
LINE
  8
0
 10
-27.0237
 20
23.624
 11
-27.0942
 21
23.2539
  0
LINE
  8
0
 10
-27.0942
 20
23.2539
 11
-27.2107
 21
22.8956
  0
LINE
  8
0
 10
-27.2107
 20
22.8956
 11
-27.3711
 21
22.5547
  0
LINE
  8
0
 10
-27.3711
 20
22.5547
 11
-27.5729
 21
22.2366
  0
LINE
  8
0
 10
-27.5729
 20
22.2366
 11
-27.8131
 21
21.9464
  0
LINE
  8
0
 10
-27.8131
 20
21.9464
 11
-28.0877
 21
21.6885
  0
LINE
  8
0
 10
-28.0877
 20
21.6885
 11
-28.3925
 21
21.467
  0
LINE
  8
0
 10
-28.3925
 20
21.467
 11
-28.7227
 21
21.2855
  0
LINE
  8
0
 10
-28.7227
 20
21.2855
 11
-29.0729
 21
21.1468
  0
LINE
  8
0
 10
-29.0729
 20
21.1468
 11
-29.4379
 21
21.0531
  0
LINE
  8
0
 10
-29.4379
 20
21.0531
 11
-29.8116
 21
21.0059
  0
LINE
  8
0
 10
-29.8116
 20
21.0059
 11
-30.1884
 21
21.0059
  0
LINE
  8
0
 10
8.8744
 20
22.004
 11
8.62523
 21
22.0354
  0
LINE
  8
0
 10
8.62523
 20
22.0354
 11
8.38196
 21
22.0979
  0
LINE
  8
0
 10
8.38196
 20
22.0979
 11
8.14844
 21
22.1904
  0
LINE
  8
0
 10
8.14844
 20
22.1904
 11
7.92834
 21
22.3114
  0
LINE
  8
0
 10
7.92834
 20
22.3114
 11
7.72514
 21
22.459
  0
LINE
  8
0
 10
7.72514
 20
22.459
 11
7.54205
 21
22.6309
  0
LINE
  8
0
 10
7.54205
 20
22.6309
 11
7.38196
 21
22.8244
  0
LINE
  8
0
 10
7.38196
 20
22.8244
 11
7.24738
 21
23.0365
  0
LINE
  8
0
 10
7.24738
 20
23.0365
 11
7.14044
 21
23.2638
  0
LINE
  8
0
 10
7.14044
 20
23.2638
 11
7.06282
 21
23.5026
  0
LINE
  8
0
 10
7.06282
 20
23.5026
 11
7.01576
 21
23.7493
  0
LINE
  8
0
 10
7.01576
 20
23.7493
 11
7
 21
24
  0
LINE
  8
0
 10
7
 20
24
 11
7.01576
 21
24.2507
  0
LINE
  8
0
 10
7.01576
 20
24.2507
 11
7.06282
 21
24.4974
  0
LINE
  8
0
 10
7.06282
 20
24.4974
 11
7.14044
 21
24.7362
  0
LINE
  8
0
 10
7.14044
 20
24.7362
 11
7.24738
 21
24.9635
  0
LINE
  8
0
 10
7.24738
 20
24.9635
 11
7.38196
 21
25.1756
  0
LINE
  8
0
 10
7.38196
 20
25.1756
 11
7.54205
 21
25.3691
  0
LINE
  8
0
 10
7.54205
 20
25.3691
 11
7.72514
 21
25.541
  0
LINE
  8
0
 10
7.72514
 20
25.541
 11
7.92834
 21
25.6886
  0
LINE
  8
0
 10
7.92834
 20
25.6886
 11
8.14844
 21
25.8096
  0
LINE
  8
0
 10
8.14844
 20
25.8096
 11
8.38196
 21
25.9021
  0
LINE
  8
0
 10
8.38196
 20
25.9021
 11
8.62523
 21
25.9646
  0
LINE
  8
0
 10
8.62523
 20
25.9646
 11
8.8744
 21
25.996
  0
LINE
  8
0
 10
8.8744
 20
25.996
 11
9.12558
 21
25.996
  0
LINE
  8
0
 10
9.12558
 20
25.996
 11
9.37476
 21
25.9646
  0
LINE
  8
0
 10
9.37476
 20
25.9646
 11
9.61803
 21
25.9021
  0
LINE
  8
0
 10
9.61803
 20
25.9021
 11
9.85155
 21
25.8096
  0
LINE
  8
0
 10
9.85155
 20
25.8096
 11
10.0716
 21
25.6886
  0
LINE
  8
0
 10
10.0716
 20
25.6886
 11
10.2748
 21
25.541
  0
LINE
  8
0
 10
10.2748
 20
25.541
 11
10.4579
 21
25.3691
  0
LINE
  8
0
 10
10.4579
 20
25.3691
 11
10.618
 21
25.1756
  0
LINE
  8
0
 10
10.618
 20
25.1756
 11
10.7526
 21
24.9635
  0
LINE
  8
0
 10
10.7526
 20
24.9635
 11
10.8595
 21
24.7362
  0
LINE
  8
0
 10
10.8595
 20
24.7362
 11
10.9372
 21
24.4974
  0
LINE
  8
0
 10
10.9372
 20
24.4974
 11
10.9842
 21
24.2507
  0
LINE
  8
0
 10
10.9842
 20
24.2507
 11
11
 21
24
  0
LINE
  8
0
 10
11
 20
24
 11
10.9842
 21
23.7493
  0
LINE
  8
0
 10
10.9842
 20
23.7493
 11
10.9372
 21
23.5026
  0
LINE
  8
0
 10
10.9372
 20
23.5026
 11
10.8595
 21
23.2638
  0
LINE
  8
0
 10
10.8595
 20
23.2638
 11
10.7526
 21
23.0365
  0
LINE
  8
0
 10
10.7526
 20
23.0365
 11
10.618
 21
22.8244
  0
LINE
  8
0
 10
10.618
 20
22.8244
 11
10.4579
 21
22.6309
  0
LINE
  8
0
 10
10.4579
 20
22.6309
 11
10.2748
 21
22.459
  0
LINE
  8
0
 10
10.2748
 20
22.459
 11
10.0716
 21
22.3114
  0
LINE
  8
0
 10
10.0716
 20
22.3114
 11
9.85155
 21
22.1904
  0
LINE
  8
0
 10
9.85155
 20
22.1904
 11
9.61803
 21
22.0979
  0
LINE
  8
0
 10
9.61803
 20
22.0979
 11
9.37476
 21
22.0354
  0
LINE
  8
0
 10
9.37476
 20
22.0354
 11
9.12558
 21
22.004
  0
LINE
  8
0
 10
9.12558
 20
22.004
 11
8.8744
 21
22.004
  0
LINE
  8
0
 10
-18.1256
 20
22.004
 11
-18.3748
 21
22.0354
  0
LINE
  8
0
 10
-18.3748
 20
22.0354
 11
-18.618
 21
22.0979
  0
LINE
  8
0
 10
-18.618
 20
22.0979
 11
-18.8515
 21
22.1904
  0
LINE
  8
0
 10
-18.8515
 20
22.1904
 11
-19.0716
 21
22.3114
  0
LINE
  8
0
 10
-19.0716
 20
22.3114
 11
-19.2748
 21
22.459
  0
LINE
  8
0
 10
-19.2748
 20
22.459
 11
-19.4579
 21
22.6309
  0
LINE
  8
0
 10
-19.4579
 20
22.6309
 11
-19.618
 21
22.8244
  0
LINE
  8
0
 10
-19.618
 20
22.8244
 11
-19.7526
 21
23.0365
  0
LINE
  8
0
 10
-19.7526
 20
23.0365
 11
-19.8595
 21
23.2638
  0
LINE
  8
0
 10
-19.8595
 20
23.2638
 11
-19.9372
 21
23.5026
  0
LINE
  8
0
 10
-19.9372
 20
23.5026
 11
-19.9842
 21
23.7493
  0
LINE
  8
0
 10
-19.9842
 20
23.7493
 11
-20
 21
24
  0
LINE
  8
0
 10
-20
 20
24
 11
-19.9842
 21
24.2507
  0
LINE
  8
0
 10
-19.9842
 20
24.2507
 11
-19.9372
 21
24.4974
  0
LINE
  8
0
 10
-19.9372
 20
24.4974
 11
-19.8595
 21
24.7362
  0
LINE
  8
0
 10
-19.8595
 20
24.7362
 11
-19.7526
 21
24.9635
  0
LINE
  8
0
 10
-19.7526
 20
24.9635
 11
-19.618
 21
25.1756
  0
LINE
  8
0
 10
-19.618
 20
25.1756
 11
-19.4579
 21
25.3691
  0
LINE
  8
0
 10
-19.4579
 20
25.3691
 11
-19.2748
 21
25.541
  0
LINE
  8
0
 10
-19.2748
 20
25.541
 11
-19.0716
 21
25.6886
  0
LINE
  8
0
 10
-19.0716
 20
25.6886
 11
-18.8515
 21
25.8096
  0
LINE
  8
0
 10
-18.8515
 20
25.8096
 11
-18.618
 21
25.9021
  0
LINE
  8
0
 10
-18.618
 20
25.9021
 11
-18.3748
 21
25.9646
  0
LINE
  8
0
 10
-18.3748
 20
25.9646
 11
-18.1256
 21
25.996
  0
LINE
  8
0
 10
-18.1256
 20
25.996
 11
-17.8744
 21
25.996
  0
LINE
  8
0
 10
-17.8744
 20
25.996
 11
-17.6252
 21
25.9646
  0
LINE
  8
0
 10
-17.6252
 20
25.9646
 11
-17.382
 21
25.9021
  0
LINE
  8
0
 10
-17.382
 20
25.9021
 11
-17.1484
 21
25.8096
  0
LINE
  8
0
 10
-17.1484
 20
25.8096
 11
-16.9283
 21
25.6886
  0
LINE
  8
0
 10
-16.9283
 20
25.6886
 11
-16.7251
 21
25.541
  0
LINE
  8
0
 10
-16.7251
 20
25.541
 11
-16.5421
 21
25.3691
  0
LINE
  8
0
 10
-16.5421
 20
25.3691
 11
-16.382
 21
25.1756
  0
LINE
  8
0
 10
-16.382
 20
25.1756
 11
-16.2474
 21
24.9635
  0
LINE
  8
0
 10
-16.2474
 20
24.9635
 11
-16.1404
 21
24.7362
  0
LINE
  8
0
 10
-16.1404
 20
24.7362
 11
-16.0628
 21
24.4974
  0
LINE
  8
0
 10
-16.0628
 20
24.4974
 11
-16.0158
 21
24.2507
  0
LINE
  8
0
 10
-16.0158
 20
24.2507
 11
-16
 21
24
  0
LINE
  8
0
 10
-16
 20
24
 11
-16.0158
 21
23.7493
  0
LINE
  8
0
 10
-16.0158
 20
23.7493
 11
-16.0628
 21
23.5026
  0
LINE
  8
0
 10
-16.0628
 20
23.5026
 11
-16.1404
 21
23.2638
  0
LINE
  8
0
 10
-16.1404
 20
23.2638
 11
-16.2474
 21
23.0365
  0
LINE
  8
0
 10
-16.2474
 20
23.0365
 11
-16.382
 21
22.8244
  0
LINE
  8
0
 10
-16.382
 20
22.8244
 11
-16.5421
 21
22.6309
  0
LINE
  8
0
 10
-16.5421
 20
22.6309
 11
-16.7251
 21
22.459
  0
LINE
  8
0
 10
-16.7251
 20
22.459
 11
-16.9283
 21
22.3114
  0
LINE
  8
0
 10
-16.9283
 20
22.3114
 11
-17.1484
 21
22.1904
  0
LINE
  8
0
 10
-17.1484
 20
22.1904
 11
-17.382
 21
22.0979
  0
LINE
  8
0
 10
-17.382
 20
22.0979
 11
-17.6252
 21
22.0354
  0
LINE
  8
0
 10
-17.6252
 20
22.0354
 11
-17.8744
 21
22.004
  0
LINE
  8
0
 10
-17.8744
 20
22.004
 11
-18.1256
 21
22.004
  0
LINE
  8
0
 10
-0.12558
 20
22.004
 11
-0.374756
 21
22.0354
  0
LINE
  8
0
 10
-0.374756
 20
22.0354
 11
-0.618027
 21
22.0979
  0
LINE
  8
0
 10
-0.618027
 20
22.0979
 11
-0.851547
 21
22.1904
  0
LINE
  8
0
 10
-0.851547
 20
22.1904
 11
-1.07164
 21
22.3114
  0
LINE
  8
0
 10
-1.07164
 20
22.3114
 11
-1.27484
 21
22.459
  0
LINE
  8
0
 10
-1.27484
 20
22.459
 11
-1.45793
 21
22.6309
  0
LINE
  8
0
 10
-1.45793
 20
22.6309
 11
-1.61803
 21
22.8244
  0
LINE
  8
0
 10
-1.61803
 20
22.8244
 11
-1.75261
 21
23.0365
  0
LINE
  8
0
 10
-1.75261
 20
23.0365
 11
-1.85954
 21
23.2638
  0
LINE
  8
0
 10
-1.85954
 20
23.2638
 11
-1.93716
 21
23.5026
  0
LINE
  8
0
 10
-1.93716
 20
23.5026
 11
-1.98422
 21
23.7493
  0
LINE
  8
0
 10
-1.98422
 20
23.7493
 11
-2
 21
24
  0
LINE
  8
0
 10
-2
 20
24
 11
-1.98422
 21
24.2507
  0
LINE
  8
0
 10
-1.98422
 20
24.2507
 11
-1.93716
 21
24.4974
  0
LINE
  8
0
 10
-1.93716
 20
24.4974
 11
-1.85954
 21
24.7362
  0
LINE
  8
0
 10
-1.85954
 20
24.7362
 11
-1.75261
 21
24.9635
  0
LINE
  8
0
 10
-1.75261
 20
24.9635
 11
-1.61803
 21
25.1756
  0
LINE
  8
0
 10
-1.61803
 20
25.1756
 11
-1.45793
 21
25.3691
  0
LINE
  8
0
 10
-1.45793
 20
25.3691
 11
-1.27484
 21
25.541
  0
LINE
  8
0
 10
-1.27484
 20
25.541
 11
-1.07164
 21
25.6886
  0
LINE
  8
0
 10
-1.07164
 20
25.6886
 11
-0.851547
 21
25.8096
  0
LINE
  8
0
 10
-0.851547
 20
25.8096
 11
-0.618027
 21
25.9021
  0
LINE
  8
0
 10
-0.618027
 20
25.9021
 11
-0.374756
 21
25.9646
  0
LINE
  8
0
 10
-0.374756
 20
25.9646
 11
-0.12558
 21
25.996
  0
LINE
  8
0
 10
-0.12558
 20
25.996
 11
0.12558
 21
25.996
  0
LINE
  8
0
 10
0.12558
 20
25.996
 11
0.374756
 21
25.9646
  0
LINE
  8
0
 10
0.374756
 20
25.9646
 11
0.618027
 21
25.9021
  0
LINE
  8
0
 10
0.618027
 20
25.9021
 11
0.851547
 21
25.8096
  0
LINE
  8
0
 10
0.851547
 20
25.8096
 11
1.07164
 21
25.6886
  0
LINE
  8
0
 10
1.07164
 20
25.6886
 11
1.27484
 21
25.541
  0
LINE
  8
0
 10
1.27484
 20
25.541
 11
1.45793
 21
25.3691
  0
LINE
  8
0
 10
1.45793
 20
25.3691
 11
1.61803
 21
25.1756
  0
LINE
  8
0
 10
1.61803
 20
25.1756
 11
1.75261
 21
24.9635
  0
LINE
  8
0
 10
1.75261
 20
24.9635
 11
1.85954
 21
24.7362
  0
LINE
  8
0
 10
1.85954
 20
24.7362
 11
1.93716
 21
24.4974
  0
LINE
  8
0
 10
1.93716
 20
24.4974
 11
1.98422
 21
24.2507
  0
LINE
  8
0
 10
1.98422
 20
24.2507
 11
2
 21
24
  0
LINE
  8
0
 10
2
 20
24
 11
1.98422
 21
23.7493
  0
LINE
  8
0
 10
1.98422
 20
23.7493
 11
1.93716
 21
23.5026
  0
LINE
  8
0
 10
1.93716
 20
23.5026
 11
1.85954
 21
23.2638
  0
LINE
  8
0
 10
1.85954
 20
23.2638
 11
1.75261
 21
23.0365
  0
LINE
  8
0
 10
1.75261
 20
23.0365
 11
1.61803
 21
22.8244
  0
LINE
  8
0
 10
1.61803
 20
22.8244
 11
1.45793
 21
22.6309
  0
LINE
  8
0
 10
1.45793
 20
22.6309
 11
1.27484
 21
22.459
  0
LINE
  8
0
 10
1.27484
 20
22.459
 11
1.07164
 21
22.3114
  0
LINE
  8
0
 10
1.07164
 20
22.3114
 11
0.851547
 21
22.1904
  0
LINE
  8
0
 10
0.851547
 20
22.1904
 11
0.618027
 21
22.0979
  0
LINE
  8
0
 10
0.618027
 20
22.0979
 11
0.374756
 21
22.0354
  0
LINE
  8
0
 10
0.374756
 20
22.0354
 11
0.12558
 21
22.004
  0
LINE
  8
0
 10
0.12558
 20
22.004
 11
-0.12558
 21
22.004
  0
LINE
  8
0
 10
-9.12558
 20
22.004
 11
-9.37476
 21
22.0354
  0
LINE
  8
0
 10
-9.37476
 20
22.0354
 11
-9.61803
 21
22.0979
  0
LINE
  8
0
 10
-9.61803
 20
22.0979
 11
-9.85155
 21
22.1904
  0
LINE
  8
0
 10
-9.85155
 20
22.1904
 11
-10.0716
 21
22.3114
  0
LINE
  8
0
 10
-10.0716
 20
22.3114
 11
-10.2748
 21
22.459
  0
LINE
  8
0
 10
-10.2748
 20
22.459
 11
-10.4579
 21
22.6309
  0
LINE
  8
0
 10
-10.4579
 20
22.6309
 11
-10.618
 21
22.8244
  0
LINE
  8
0
 10
-10.618
 20
22.8244
 11
-10.7526
 21
23.0365
  0
LINE
  8
0
 10
-10.7526
 20
23.0365
 11
-10.8595
 21
23.2638
  0
LINE
  8
0
 10
-10.8595
 20
23.2638
 11
-10.9372
 21
23.5026
  0
LINE
  8
0
 10
-10.9372
 20
23.5026
 11
-10.9842
 21
23.7493
  0
LINE
  8
0
 10
-10.9842
 20
23.7493
 11
-11
 21
24
  0
LINE
  8
0
 10
-11
 20
24
 11
-10.9842
 21
24.2507
  0
LINE
  8
0
 10
-10.9842
 20
24.2507
 11
-10.9372
 21
24.4974
  0
LINE
  8
0
 10
-10.9372
 20
24.4974
 11
-10.8595
 21
24.7362
  0
LINE
  8
0
 10
-10.8595
 20
24.7362
 11
-10.7526
 21
24.9635
  0
LINE
  8
0
 10
-10.7526
 20
24.9635
 11
-10.618
 21
25.1756
  0
LINE
  8
0
 10
-10.618
 20
25.1756
 11
-10.4579
 21
25.3691
  0
LINE
  8
0
 10
-10.4579
 20
25.3691
 11
-10.2748
 21
25.541
  0
LINE
  8
0
 10
-10.2748
 20
25.541
 11
-10.0716
 21
25.6886
  0
LINE
  8
0
 10
-10.0716
 20
25.6886
 11
-9.85155
 21
25.8096
  0
LINE
  8
0
 10
-9.85155
 20
25.8096
 11
-9.61803
 21
25.9021
  0
LINE
  8
0
 10
-9.61803
 20
25.9021
 11
-9.37476
 21
25.9646
  0
LINE
  8
0
 10
-9.37476
 20
25.9646
 11
-9.12558
 21
25.996
  0
LINE
  8
0
 10
-9.12558
 20
25.996
 11
-8.8744
 21
25.996
  0
LINE
  8
0
 10
-8.8744
 20
25.996
 11
-8.62523
 21
25.9646
  0
LINE
  8
0
 10
-8.62523
 20
25.9646
 11
-8.38196
 21
25.9021
  0
LINE
  8
0
 10
-8.38196
 20
25.9021
 11
-8.14844
 21
25.8096
  0
LINE
  8
0
 10
-8.14844
 20
25.8096
 11
-7.92834
 21
25.6886
  0
LINE
  8
0
 10
-7.92834
 20
25.6886
 11
-7.72514
 21
25.541
  0
LINE
  8
0
 10
-7.72514
 20
25.541
 11
-7.54205
 21
25.3691
  0
LINE
  8
0
 10
-7.54205
 20
25.3691
 11
-7.38196
 21
25.1756
  0
LINE
  8
0
 10
-7.38196
 20
25.1756
 11
-7.24738
 21
24.9635
  0
LINE
  8
0
 10
-7.24738
 20
24.9635
 11
-7.14044
 21
24.7362
  0
LINE
  8
0
 10
-7.14044
 20
24.7362
 11
-7.06282
 21
24.4974
  0
LINE
  8
0
 10
-7.06282
 20
24.4974
 11
-7.01576
 21
24.2507
  0
LINE
  8
0
 10
-7.01576
 20
24.2507
 11
-7
 21
24
  0
LINE
  8
0
 10
-7
 20
24
 11
-7.01576
 21
23.7493
  0
LINE
  8
0
 10
-7.01576
 20
23.7493
 11
-7.06282
 21
23.5026
  0
LINE
  8
0
 10
-7.06282
 20
23.5026
 11
-7.14044
 21
23.2638
  0
LINE
  8
0
 10
-7.14044
 20
23.2638
 11
-7.24738
 21
23.0365
  0
LINE
  8
0
 10
-7.24738
 20
23.0365
 11
-7.38196
 21
22.8244
  0
LINE
  8
0
 10
-7.38196
 20
22.8244
 11
-7.54205
 21
22.6309
  0
LINE
  8
0
 10
-7.54205
 20
22.6309
 11
-7.72514
 21
22.459
  0
LINE
  8
0
 10
-7.72514
 20
22.459
 11
-7.92834
 21
22.3114
  0
LINE
  8
0
 10
-7.92834
 20
22.3114
 11
-8.14844
 21
22.1904
  0
LINE
  8
0
 10
-8.14844
 20
22.1904
 11
-8.38196
 21
22.0979
  0
LINE
  8
0
 10
-8.38196
 20
22.0979
 11
-8.62523
 21
22.0354
  0
LINE
  8
0
 10
-8.62523
 20
22.0354
 11
-8.8744
 21
22.004
  0
LINE
  8
0
 10
-8.8744
 20
22.004
 11
-9.12558
 21
22.004
  0
LINE
  8
0
 10
17.8744
 20
22.004
 11
17.6252
 21
22.0354
  0
LINE
  8
0
 10
17.6252
 20
22.0354
 11
17.382
 21
22.0979
  0
LINE
  8
0
 10
17.382
 20
22.0979
 11
17.1484
 21
22.1904
  0
LINE
  8
0
 10
17.1484
 20
22.1904
 11
16.9283
 21
22.3114
  0
LINE
  8
0
 10
16.9283
 20
22.3114
 11
16.7251
 21
22.459
  0
LINE
  8
0
 10
16.7251
 20
22.459
 11
16.5421
 21
22.6309
  0
LINE
  8
0
 10
16.5421
 20
22.6309
 11
16.382
 21
22.8244
  0
LINE
  8
0
 10
16.382
 20
22.8244
 11
16.2474
 21
23.0365
  0
LINE
  8
0
 10
16.2474
 20
23.0365
 11
16.1404
 21
23.2638
  0
LINE
  8
0
 10
16.1404
 20
23.2638
 11
16.0628
 21
23.5026
  0
LINE
  8
0
 10
16.0628
 20
23.5026
 11
16.0158
 21
23.7493
  0
LINE
  8
0
 10
16.0158
 20
23.7493
 11
16
 21
24
  0
LINE
  8
0
 10
16
 20
24
 11
16.0158
 21
24.2507
  0
LINE
  8
0
 10
16.0158
 20
24.2507
 11
16.0628
 21
24.4974
  0
LINE
  8
0
 10
16.0628
 20
24.4974
 11
16.1404
 21
24.7362
  0
LINE
  8
0
 10
16.1404
 20
24.7362
 11
16.2474
 21
24.9635
  0
LINE
  8
0
 10
16.2474
 20
24.9635
 11
16.382
 21
25.1756
  0
LINE
  8
0
 10
16.382
 20
25.1756
 11
16.5421
 21
25.3691
  0
LINE
  8
0
 10
16.5421
 20
25.3691
 11
16.7251
 21
25.541
  0
LINE
  8
0
 10
16.7251
 20
25.541
 11
16.9283
 21
25.6886
  0
LINE
  8
0
 10
16.9283
 20
25.6886
 11
17.1484
 21
25.8096
  0
LINE
  8
0
 10
17.1484
 20
25.8096
 11
17.382
 21
25.9021
  0
LINE
  8
0
 10
17.382
 20
25.9021
 11
17.6252
 21
25.9646
  0
LINE
  8
0
 10
17.6252
 20
25.9646
 11
17.8744
 21
25.996
  0
LINE
  8
0
 10
17.8744
 20
25.996
 11
18.1256
 21
25.996
  0
LINE
  8
0
 10
18.1256
 20
25.996
 11
18.3748
 21
25.9646
  0
LINE
  8
0
 10
18.3748
 20
25.9646
 11
18.618
 21
25.9021
  0
LINE
  8
0
 10
18.618
 20
25.9021
 11
18.8515
 21
25.8096
  0
LINE
  8
0
 10
18.8515
 20
25.8096
 11
19.0716
 21
25.6886
  0
LINE
  8
0
 10
19.0716
 20
25.6886
 11
19.2748
 21
25.541
  0
LINE
  8
0
 10
19.2748
 20
25.541
 11
19.4579
 21
25.3691
  0
LINE
  8
0
 10
19.4579
 20
25.3691
 11
19.618
 21
25.1756
  0
LINE
  8
0
 10
19.618
 20
25.1756
 11
19.7526
 21
24.9635
  0
LINE
  8
0
 10
19.7526
 20
24.9635
 11
19.8595
 21
24.7362
  0
LINE
  8
0
 10
19.8595
 20
24.7362
 11
19.9372
 21
24.4974
  0
LINE
  8
0
 10
19.9372
 20
24.4974
 11
19.9842
 21
24.2507
  0
LINE
  8
0
 10
19.9842
 20
24.2507
 11
20
 21
24
  0
LINE
  8
0
 10
20
 20
24
 11
19.9842
 21
23.7493
  0
LINE
  8
0
 10
19.9842
 20
23.7493
 11
19.9372
 21
23.5026
  0
LINE
  8
0
 10
19.9372
 20
23.5026
 11
19.8595
 21
23.2638
  0
LINE
  8
0
 10
19.8595
 20
23.2638
 11
19.7526
 21
23.0365
  0
LINE
  8
0
 10
19.7526
 20
23.0365
 11
19.618
 21
22.8244
  0
LINE
  8
0
 10
19.618
 20
22.8244
 11
19.4579
 21
22.6309
  0
LINE
  8
0
 10
19.4579
 20
22.6309
 11
19.2748
 21
22.459
  0
LINE
  8
0
 10
19.2748
 20
22.459
 11
19.0716
 21
22.3114
  0
LINE
  8
0
 10
19.0716
 20
22.3114
 11
18.8515
 21
22.1904
  0
LINE
  8
0
 10
18.8515
 20
22.1904
 11
18.618
 21
22.0979
  0
LINE
  8
0
 10
18.618
 20
22.0979
 11
18.3748
 21
22.0354
  0
LINE
  8
0
 10
18.3748
 20
22.0354
 11
18.1256
 21
22.004
  0
LINE
  8
0
 10
18.1256
 20
22.004
 11
17.8744
 21
22.004
  0
ENDSEC
  0
SECTION
  2
OBJECTS
  0
DICTIONARY
  0
ENDSEC
  0
EOF
