<?xml version="1.0" standalone="no"?>
<!DOCTYPE svg PUBLIC "-//W3C//DTD SVG 1.1//EN" "http://www.w3.org/Graphics/SVG/1.1/DTD/svg11.dtd">
<svg width="360mm" height="74mm" viewBox="-180 -37 360 74" xmlns="http://www.w3.org/2000/svg" version="1.1">
<title>OpenSCAD Model</title>
<path d="
M 175.437,36.9114 L 176.045,36.7553 L 176.629,36.5241 L 177.179,36.2216 L 177.687,35.8526 L 178.145,35.4227
 L 178.545,34.9389 L 178.882,34.4088 L 179.149,33.8406 L 179.343,33.2434 L 179.461,32.6267 L 179.5,32
 L 179.5,-32 L 179.461,-32.6267 L 179.343,-33.2434 L 179.149,-33.8406 L 178.882,-34.4088 L 178.545,-34.9389
 L 178.145,-35.4227 L 177.687,-35.8526 L 177.179,-36.2216 L 176.629,-36.5241 L 176.045,-36.7553 L 175.437,-36.9114
 L 174.814,-36.9901 L -174.814,-36.9901 L -175.437,-36.9114 L -176.045,-36.7553 L -176.629,-36.5241 L -177.179,-36.2216
 L -177.687,-35.8526 L -178.145,-35.4227 L -178.545,-34.9389 L -178.882,-34.4088 L -179.149,-33.8406 L -179.343,-33.2434
 L -179.461,-32.6267 L -179.5,-32 L -179.5,32 L -179.461,32.6267 L -179.343,33.2434 L -179.149,33.8406
 L -178.882,34.4088 L -178.545,34.9389 L -178.145,35.4227 L -177.687,35.8526 L -177.179,36.2216 L -176.629,36.5241
 L -176.045,36.7553 L -175.437,36.9114 L -174.814,36.9901 L 174.814,36.9901 z
M -172.688,-27.0059 L -173.062,-27.0531 L -173.427,-27.1468 L -173.777,-27.2855 L -174.107,-27.467 L -174.412,-27.6884
 L -174.687,-27.9464 L -174.927,-28.2366 L -175.129,-28.5547 L -175.289,-28.8956 L -175.406,-29.2539 L -175.476,-29.624
 L -175.5,-30 L -175.476,-30.376 L -175.406,-30.7461 L -175.289,-31.1044 L -175.129,-31.4453 L -174.927,-31.7634
 L -174.687,-32.0536 L -174.412,-32.3115 L -174.107,-32.533 L -173.777,-32.7145 L -173.427,-32.8532 L -173.062,-32.9469
 L -172.688,-32.9941 L -172.312,-32.9941 L -171.938,-32.9469 L -171.573,-32.8532 L -171.223,-32.7145 L -170.893,-32.533
 L -170.588,-32.3115 L -170.313,-32.0536 L -170.073,-31.7634 L -169.871,-31.4453 L -169.711,-31.1044 L -169.594,-30.7461
 L -169.524,-30.376 L -169.5,-30 L -169.524,-29.624 L -169.594,-29.2539 L -169.711,-28.8956 L -169.871,-28.5547
 L -170.073,-28.2366 L -170.313,-27.9464 L -170.588,-27.6884 L -170.893,-27.467 L -171.223,-27.2855 L -171.573,-27.1468
 L -171.938,-27.0531 L -172.312,-27.0059 z
M 172.312,-27.0059 L 171.938,-27.0531 L 171.573,-27.1468 L 171.223,-27.2855 L 170.893,-27.467 L 170.588,-27.6884
 L 170.313,-27.9464 L 170.073,-28.2366 L 169.871,-28.5547 L 169.711,-28.8956 L 169.594,-29.2539 L 169.524,-29.624
 L 169.5,-30 L 169.524,-30.376 L 169.594,-30.7461 L 169.711,-31.1044 L 169.871,-31.4453 L 170.073,-31.7634
 L 170.313,-32.0536 L 170.588,-32.3115 L 170.893,-32.533 L 171.223,-32.7145 L 171.573,-32.8532 L 171.938,-32.9469
 L 172.312,-32.9941 L 172.688,-32.9941 L 173.062,-32.9469 L 173.427,-32.8532 L 173.777,-32.7145 L 174.107,-32.533
 L 174.412,-32.3115 L 174.687,-32.0536 L 174.927,-31.7634 L 175.129,-31.4453 L 175.289,-31.1044 L 175.406,-30.7461
 L 175.476,-30.376 L 175.5,-30 L 175.476,-29.624 L 175.406,-29.2539 L 175.289,-28.8956 L 175.129,-28.5547
 L 174.927,-28.2366 L 174.687,-27.9464 L 174.412,-27.6884 L 174.107,-27.467 L 173.777,-27.2855 L 173.427,-27.1468
 L 173.062,-27.0531 L 172.688,-27.0059 z
M 135.991,31.9368 L 132.004,31.4332 L 128.111,30.4338 L 124.375,28.9545 L 120.854,27.0185 L 117.602,24.6564
 L 114.673,21.9055 L 112.111,18.8091 L 109.958,15.4161 L 108.247,11.78 L 107.005,7.95807 L 106.252,4.01065
 L 106,-0 L 106.252,-4.01065 L 107.005,-7.95807 L 108.247,-11.78 L 109.958,-15.4161 L 112.111,-18.8091
 L 114.673,-21.9055 L 117.602,-24.6564 L 120.854,-27.0185 L 124.375,-28.9545 L 128.111,-30.4338 L 132.004,-31.4332
 L 135.991,-31.9368 L 140.009,-31.9368 L 143.996,-31.4332 L 147.889,-30.4338 L 151.625,-28.9545 L 155.146,-27.0185
 L 158.398,-24.6564 L 161.327,-21.9055 L 163.889,-18.8091 L 166.042,-15.4161 L 167.753,-11.78 L 168.995,-7.95807
 L 169.748,-4.01065 L 170,-0 L 169.748,4.01065 L 168.995,7.95807 L 167.753,11.78 L 166.042,15.4161
 L 163.889,18.8091 L 161.327,21.9055 L 158.398,24.6564 L 155.146,27.0185 L 151.625,28.9545 L 147.889,30.4338
 L 143.996,31.4332 L 140.009,31.9368 z
M 66.9907,31.9368 L 63.0038,31.4332 L 59.1115,30.4338 L 55.3751,28.9545 L 51.8535,27.0185 L 48.6024,24.6564
 L 45.673,21.9055 L 43.1115,18.8091 L 40.9582,15.4161 L 39.2471,11.78 L 38.0053,7.95807 L 37.2523,4.01065
 L 37,-0 L 37.2523,-4.01065 L 38.0053,-7.95807 L 39.2471,-11.78 L 40.9582,-15.4161 L 43.1115,-18.8091
 L 45.673,-21.9055 L 48.6024,-24.6564 L 51.8535,-27.0185 L 55.3751,-28.9545 L 59.1115,-30.4338 L 63.0038,-31.4332
 L 66.9907,-31.9368 L 71.0093,-31.9368 L 74.9962,-31.4332 L 78.8885,-30.4338 L 82.6249,-28.9545 L 86.1465,-27.0185
 L 89.3976,-24.6564 L 92.327,-21.9055 L 94.8885,-18.8091 L 97.0418,-15.4161 L 98.7528,-11.78 L 99.9947,-7.95807
 L 100.748,-4.01065 L 101,-0 L 100.748,4.01065 L 99.9947,7.95807 L 98.7528,11.78 L 97.0418,15.4161
 L 94.8885,18.8091 L 92.327,21.9055 L 89.3976,24.6564 L 86.1465,27.0185 L 82.6249,28.9545 L 78.8885,30.4338
 L 74.9962,31.4332 L 71.0093,31.9368 z
M -2.00929,31.9368 L -5.9962,31.4332 L -9.88853,30.4338 L -13.6249,28.9545 L -17.1465,27.0185 L -20.3976,24.6564
 L -23.327,21.9055 L -25.8885,18.8091 L -28.0418,15.4161 L -29.7528,11.78 L -30.9947,7.95807 L -31.7477,4.01065
 L -32,-0 L -31.7477,-4.01065 L -30.9947,-7.95807 L -29.7528,-11.78 L -28.0418,-15.4161 L -25.8885,-18.8091
 L -23.327,-21.9055 L -20.3976,-24.6564 L -17.1465,-27.0185 L -13.6249,-28.9545 L -9.88853,-30.4338 L -5.9962,-31.4332
 L -2.00929,-31.9368 L 2.00929,-31.9368 L 5.9962,-31.4332 L 9.88853,-30.4338 L 13.6249,-28.9545 L 17.1465,-27.0185
 L 20.3976,-24.6564 L 23.327,-21.9055 L 25.8885,-18.8091 L 28.0418,-15.4161 L 29.7528,-11.78 L 30.9947,-7.95807
 L 31.7477,-4.01065 L 32,-0 L 31.7477,4.01065 L 30.9947,7.95807 L 29.7528,11.78 L 28.0418,15.4161
 L 25.8885,18.8091 L 23.327,21.9055 L 20.3976,24.6564 L 17.1465,27.0185 L 13.6249,28.9545 L 9.88853,30.4338
 L 5.9962,31.4332 L 2.00929,31.9368 z
M -140.009,31.9368 L -143.996,31.4332 L -147.889,30.4338 L -151.625,28.9545 L -155.146,27.0185 L -158.398,24.6564
 L -161.327,21.9055 L -163.889,18.8091 L -166.042,15.4161 L -167.753,11.78 L -168.995,7.95807 L -169.748,4.01065
 L -170,-0 L -169.748,-4.01065 L -168.995,-7.95807 L -167.753,-11.78 L -166.042,-15.4161 L -163.889,-18.8091
 L -161.327,-21.9055 L -158.398,-24.6564 L -155.146,-27.0185 L -151.625,-28.9545 L -147.889,-30.4338 L -143.996,-31.4332
 L -140.009,-31.9368 L -135.991,-31.9368 L -132.004,-31.4332 L -128.111,-30.4338 L -124.375,-28.9545 L -120.854,-27.0185
 L -117.602,-24.6564 L -114.673,-21.9055 L -112.111,-18.8091 L -109.958,-15.4161 L -108.247,-11.78 L -107.005,-7.95807
 L -106.252,-4.01065 L -106,-0 L -106.252,4.01065 L -107.005,7.95807 L -108.247,11.78 L -109.958,15.4161
 L -112.111,18.8091 L -114.673,21.9055 L -117.602,24.6564 L -120.854,27.0185 L -124.375,28.9545 L -128.111,30.4338
 L -132.004,31.4332 L -135.991,31.9368 z
M -71.0093,31.9368 L -74.9962,31.4332 L -78.8885,30.4338 L -82.6249,28.9545 L -86.1465,27.0185 L -89.3976,24.6564
 L -92.327,21.9055 L -94.8885,18.8091 L -97.0418,15.4161 L -98.7528,11.78 L -99.9947,7.95807 L -100.748,4.01065
 L -101,-0 L -100.748,-4.01065 L -99.9947,-7.95807 L -98.7528,-11.78 L -97.0418,-15.4161 L -94.8885,-18.8091
 L -92.327,-21.9055 L -89.3976,-24.6564 L -86.1465,-27.0185 L -82.6249,-28.9545 L -78.8885,-30.4338 L -74.9962,-31.4332
 L -71.0093,-31.9368 L -66.9907,-31.9368 L -63.0038,-31.4332 L -59.1115,-30.4338 L -55.3751,-28.9545 L -51.8535,-27.0185
 L -48.6024,-24.6564 L -45.673,-21.9055 L -43.1115,-18.8091 L -40.9582,-15.4161 L -39.2471,-11.78 L -38.0053,-7.95807
 L -37.2523,-4.01065 L -37,-0 L -37.2523,4.01065 L -38.0053,7.95807 L -39.2471,11.78 L -40.9582,15.4161
 L -43.1115,18.8091 L -45.673,21.9055 L -48.6024,24.6564 L -51.8535,27.0185 L -55.3751,28.9545 L -59.1115,30.4338
 L -63.0038,31.4332 L -66.9907,31.9368 z
M -172.688,32.9941 L -173.062,32.9469 L -173.427,32.8532 L -173.777,32.7145 L -174.107,32.533 L -174.412,32.3115
 L -174.687,32.0536 L -174.927,31.7634 L -175.129,31.4453 L -175.289,31.1044 L -175.406,30.7461 L -175.476,30.376
 L -175.5,30 L -175.476,29.624 L -175.406,29.2539 L -175.289,28.8956 L -175.129,28.5547 L -174.927,28.2366
 L -174.687,27.9464 L -174.412,27.6884 L -174.107,27.467 L -173.777,27.2855 L -173.427,27.1468 L -173.062,27.0531
 L -172.688,27.0059 L -172.312,27.0059 L -171.938,27.0531 L -171.573,27.1468 L -171.223,27.2855 L -170.893,27.467
 L -170.588,27.6884 L -170.313,27.9464 L -170.073,28.2366 L -169.871,28.5547 L -169.711,28.8956 L -169.594,29.2539
 L -169.524,29.624 L -169.5,30 L -169.524,30.376 L -169.594,30.7461 L -169.711,31.1044 L -169.871,31.4453
 L -170.073,31.7634 L -170.313,32.0536 L -170.588,32.3115 L -170.893,32.533 L -171.223,32.7145 L -171.573,32.8532
 L -171.938,32.9469 L -172.312,32.9941 z
M 172.312,32.9941 L 171.938,32.9469 L 171.573,32.8532 L 171.223,32.7145 L 170.893,32.533 L 170.588,32.3115
 L 170.313,32.0536 L 170.073,31.7634 L 169.871,31.4453 L 169.711,31.1044 L 169.594,30.7461 L 169.524,30.376
 L 169.5,30 L 169.524,29.624 L 169.594,29.2539 L 169.711,28.8956 L 169.871,28.5547 L 170.073,28.2366
 L 170.313,27.9464 L 170.588,27.6884 L 170.893,27.467 L 171.223,27.2855 L 171.573,27.1468 L 171.938,27.0531
 L 172.312,27.0059 L 172.688,27.0059 L 173.062,27.0531 L 173.427,27.1468 L 173.777,27.2855 L 174.107,27.467
 L 174.412,27.6884 L 174.687,27.9464 L 174.927,28.2366 L 175.129,28.5547 L 175.289,28.8956 L 175.406,29.2539
 L 175.476,29.624 L 175.5,30 L 175.476,30.376 L 175.406,30.7461 L 175.289,31.1044 L 175.129,31.4453
 L 174.927,31.7634 L 174.687,32.0536 L 174.412,32.3115 L 174.107,32.533 L 173.777,32.7145 L 173.427,32.8532
 L 173.062,32.9469 L 172.688,32.9941 z
" stroke="black" fill="lightgray" stroke-width="0.5"/>
</svg>
