  0
SECTION
  2
BLOCKS
  0
ENDSEC
  0
SECTION
  2
ENTITIES
  0
LINE
  8
0
 10
17.9369
 20
32.0886
 11
18.5451
 21
32.2447
  0
LINE
  8
0
 10
18.5451
 20
32.2447
 11
19.1289
 21
32.4759
  0
LINE
  8
0
 10
19.1289
 20
32.4759
 11
19.6791
 21
32.7784
  0
LINE
  8
0
 10
19.6791
 20
32.7784
 11
20.1871
 21
33.1474
  0
LINE
  8
0
 10
20.1871
 20
33.1474
 11
20.6448
 21
33.5773
  0
LINE
  8
0
 10
20.6448
 20
33.5773
 11
21.0451
 21
34.0611
  0
LINE
  8
0
 10
21.0451
 20
34.0611
 11
21.3815
 21
34.5912
  0
LINE
  8
0
 10
21.3815
 20
34.5912
 11
21.6489
 21
35.1594
  0
LINE
  8
0
 10
21.6489
 20
35.1594
 11
21.8429
 21
35.7566
  0
LINE
  8
0
 10
21.8429
 20
35.7566
 11
21.9606
 21
36.3733
  0
LINE
  8
0
 10
21.9606
 20
36.3733
 11
22
 21
37
  0
LINE
  8
0
 10
22
 20
37
 11
22
 21
71
  0
LINE
  8
0
 10
22
 20
71
 11
21.9606
 21
71.6267
  0
LINE
  8
0
 10
21.9606
 20
71.6267
 11
21.8429
 21
72.2434
  0
LINE
  8
0
 10
21.8429
 20
72.2434
 11
21.6489
 21
72.8406
  0
LINE
  8
0
 10
21.6489
 20
72.8406
 11
21.3815
 21
73.4088
  0
LINE
  8
0
 10
21.3815
 20
73.4088
 11
21.0451
 21
73.9389
  0
LINE
  8
0
 10
21.0451
 20
73.9389
 11
20.6448
 21
74.4227
  0
LINE
  8
0
 10
20.6448
 20
74.4227
 11
20.1871
 21
74.8526
  0
LINE
  8
0
 10
20.1871
 20
74.8526
 11
19.6791
 21
75.2216
  0
LINE
  8
0
 10
19.6791
 20
75.2216
 11
19.1289
 21
75.5241
  0
LINE
  8
0
 10
19.1289
 20
75.5241
 11
18.5451
 21
75.7553
  0
LINE
  8
0
 10
18.5451
 20
75.7553
 11
17.9369
 21
75.9114
  0
LINE
  8
0
 10
17.9369
 20
75.9114
 11
17.3139
 21
75.9901
  0
LINE
  8
0
 10
17.3139
 20
75.9901
 11
-17.3139
 21
75.9901
  0
LINE
  8
0
 10
-17.3139
 20
75.9901
 11
-17.9369
 21
75.9114
  0
LINE
  8
0
 10
-17.9369
 20
75.9114
 11
-18.5451
 21
75.7553
  0
LINE
  8
0
 10
-18.5451
 20
75.7553
 11
-19.1289
 21
75.5241
  0
LINE
  8
0
 10
-19.1289
 20
75.5241
 11
-19.6791
 21
75.2216
  0
LINE
  8
0
 10
-19.6791
 20
75.2216
 11
-20.1871
 21
74.8526
  0
LINE
  8
0
 10
-20.1871
 20
74.8526
 11
-20.6448
 21
74.4227
  0
LINE
  8
0
 10
-20.6448
 20
74.4227
 11
-21.0451
 21
73.9389
  0
LINE
  8
0
 10
-21.0451
 20
73.9389
 11
-21.3815
 21
73.4088
  0
LINE
  8
0
 10
-21.3815
 20
73.4088
 11
-21.6489
 21
72.8406
  0
LINE
  8
0
 10
-21.6489
 20
72.8406
 11
-21.8429
 21
72.2434
  0
LINE
  8
0
 10
-21.8429
 20
72.2434
 11
-21.9606
 21
71.6267
  0
LINE
  8
0
 10
-21.9606
 20
71.6267
 11
-22
 21
71
  0
LINE
  8
0
 10
-22
 20
71
 11
-22
 21
37
  0
LINE
  8
0
 10
-22
 20
37
 11
-21.9606
 21
36.3733
  0
LINE
  8
0
 10
-21.9606
 20
36.3733
 11
-21.8429
 21
35.7566
  0
LINE
  8
0
 10
-21.8429
 20
35.7566
 11
-21.6489
 21
35.1594
  0
LINE
  8
0
 10
-21.6489
 20
35.1594
 11
-21.3815
 21
34.5912
  0
LINE
  8
0
 10
-21.3815
 20
34.5912
 11
-21.0451
 21
34.0611
  0
LINE
  8
0
 10
-21.0451
 20
34.0611
 11
-20.6448
 21
33.5773
  0
LINE
  8
0
 10
-20.6448
 20
33.5773
 11
-20.1871
 21
33.1474
  0
LINE
  8
0
 10
-20.1871
 20
33.1474
 11
-19.6791
 21
32.7784
  0
LINE
  8
0
 10
-19.6791
 20
32.7784
 11
-19.1289
 21
32.4759
  0
LINE
  8
0
 10
-19.1289
 20
32.4759
 11
-18.5451
 21
32.2447
  0
LINE
  8
0
 10
-18.5451
 20
32.2447
 11
-17.9369
 21
32.0886
  0
LINE
  8
0
 10
-17.9369
 20
32.0886
 11
-17.3139
 21
32.0099
  0
LINE
  8
0
 10
-17.3139
 20
32.0099
 11
17.3139
 21
32.0099
  0
LINE
  8
0
 10
17.3139
 20
32.0099
 11
17.9369
 21
32.0886
  0
LINE
  8
0
 10
-15.1884
 20
66.0059
 11
-15.5621
 21
66.0531
  0
LINE
  8
0
 10
-15.5621
 20
66.0531
 11
-15.927
 21
66.1468
  0
LINE
  8
0
 10
-15.927
 20
66.1468
 11
-16.2773
 21
66.2855
  0
LINE
  8
0
 10
-16.2773
 20
66.2855
 11
-16.6075
 21
66.467
  0
LINE
  8
0
 10
-16.6075
 20
66.467
 11
-16.9123
 21
66.6884
  0
LINE
  8
0
 10
-16.9123
 20
66.6884
 11
-17.1869
 21
66.9464
  0
LINE
  8
0
 10
-17.1869
 20
66.9464
 11
-17.427
 21
67.2366
  0
LINE
  8
0
 10
-17.427
 20
67.2366
 11
-17.6289
 21
67.5547
  0
LINE
  8
0
 10
-17.6289
 20
67.5547
 11
-17.7893
 21
67.8956
  0
LINE
  8
0
 10
-17.7893
 20
67.8956
 11
-17.9057
 21
68.2539
  0
LINE
  8
0
 10
-17.9057
 20
68.2539
 11
-17.9763
 21
68.624
  0
LINE
  8
0
 10
-17.9763
 20
68.624
 11
-18
 21
69
  0
LINE
  8
0
 10
-18
 20
69
 11
-17.9763
 21
69.376
  0
LINE
  8
0
 10
-17.9763
 20
69.376
 11
-17.9057
 21
69.7461
  0
LINE
  8
0
 10
-17.9057
 20
69.7461
 11
-17.7893
 21
70.1044
  0
LINE
  8
0
 10
-17.7893
 20
70.1044
 11
-17.6289
 21
70.4453
  0
LINE
  8
0
 10
-17.6289
 20
70.4453
 11
-17.427
 21
70.7634
  0
LINE
  8
0
 10
-17.427
 20
70.7634
 11
-17.1869
 21
71.0536
  0
LINE
  8
0
 10
-17.1869
 20
71.0536
 11
-16.9123
 21
71.3115
  0
LINE
  8
0
 10
-16.9123
 20
71.3115
 11
-16.6075
 21
71.533
  0
LINE
  8
0
 10
-16.6075
 20
71.533
 11
-16.2773
 21
71.7145
  0
LINE
  8
0
 10
-16.2773
 20
71.7145
 11
-15.927
 21
71.8532
  0
LINE
  8
0
 10
-15.927
 20
71.8532
 11
-15.5621
 21
71.9469
  0
LINE
  8
0
 10
-15.5621
 20
71.9469
 11
-15.1884
 21
71.9941
  0
LINE
  8
0
 10
-15.1884
 20
71.9941
 11
-14.8116
 21
71.9941
  0
LINE
  8
0
 10
-14.8116
 20
71.9941
 11
-14.4379
 21
71.9469
  0
LINE
  8
0
 10
-14.4379
 20
71.9469
 11
-14.0729
 21
71.8532
  0
LINE
  8
0
 10
-14.0729
 20
71.8532
 11
-13.7227
 21
71.7145
  0
LINE
  8
0
 10
-13.7227
 20
71.7145
 11
-13.3925
 21
71.533
  0
LINE
  8
0
 10
-13.3925
 20
71.533
 11
-13.0877
 21
71.3115
  0
LINE
  8
0
 10
-13.0877
 20
71.3115
 11
-12.8131
 21
71.0536
  0
LINE
  8
0
 10
-12.8131
 20
71.0536
 11
-12.5729
 21
70.7634
  0
LINE
  8
0
 10
-12.5729
 20
70.7634
 11
-12.3711
 21
70.4453
  0
LINE
  8
0
 10
-12.3711
 20
70.4453
 11
-12.2107
 21
70.1044
  0
LINE
  8
0
 10
-12.2107
 20
70.1044
 11
-12.0942
 21
69.7461
  0
LINE
  8
0
 10
-12.0942
 20
69.7461
 11
-12.0237
 21
69.376
  0
LINE
  8
0
 10
-12.0237
 20
69.376
 11
-12
 21
69
  0
LINE
  8
0
 10
-12
 20
69
 11
-12.0237
 21
68.624
  0
LINE
  8
0
 10
-12.0237
 20
68.624
 11
-12.0942
 21
68.2539
  0
LINE
  8
0
 10
-12.0942
 20
68.2539
 11
-12.2107
 21
67.8956
  0
LINE
  8
0
 10
-12.2107
 20
67.8956
 11
-12.3711
 21
67.5547
  0
LINE
  8
0
 10
-12.3711
 20
67.5547
 11
-12.5729
 21
67.2366
  0
LINE
  8
0
 10
-12.5729
 20
67.2366
 11
-12.8131
 21
66.9464
  0
LINE
  8
0
 10
-12.8131
 20
66.9464
 11
-13.0877
 21
66.6884
  0
LINE
  8
0
 10
-13.0877
 20
66.6884
 11
-13.3925
 21
66.467
  0
LINE
  8
0
 10
-13.3925
 20
66.467
 11
-13.7227
 21
66.2855
  0
LINE
  8
0
 10
-13.7227
 20
66.2855
 11
-14.0729
 21
66.1468
  0
LINE
  8
0
 10
-14.0729
 20
66.1468
 11
-14.4379
 21
66.0531
  0
LINE
  8
0
 10
-14.4379
 20
66.0531
 11
-14.8116
 21
66.0059
  0
LINE
  8
0
 10
-14.8116
 20
66.0059
 11
-15.1884
 21
66.0059
  0
LINE
  8
0
 10
14.8116
 20
66.0059
 11
14.4379
 21
66.0531
  0
LINE
  8
0
 10
14.4379
 20
66.0531
 11
14.0729
 21
66.1468
  0
LINE
  8
0
 10
14.0729
 20
66.1468
 11
13.7227
 21
66.2855
  0
LINE
  8
0
 10
13.7227
 20
66.2855
 11
13.3925
 21
66.467
  0
LINE
  8
0
 10
13.3925
 20
66.467
 11
13.0877
 21
66.6884
  0
LINE
  8
0
 10
13.0877
 20
66.6884
 11
12.8131
 21
66.9464
  0
LINE
  8
0
 10
12.8131
 20
66.9464
 11
12.5729
 21
67.2366
  0
LINE
  8
0
 10
12.5729
 20
67.2366
 11
12.3711
 21
67.5547
  0
LINE
  8
0
 10
12.3711
 20
67.5547
 11
12.2107
 21
67.8956
  0
LINE
  8
0
 10
12.2107
 20
67.8956
 11
12.0942
 21
68.2539
  0
LINE
  8
0
 10
12.0942
 20
68.2539
 11
12.0237
 21
68.624
  0
LINE
  8
0
 10
12.0237
 20
68.624
 11
12
 21
69
  0
LINE
  8
0
 10
12
 20
69
 11
12.0237
 21
69.376
  0
LINE
  8
0
 10
12.0237
 20
69.376
 11
12.0942
 21
69.7461
  0
LINE
  8
0
 10
12.0942
 20
69.7461
 11
12.2107
 21
70.1044
  0
LINE
  8
0
 10
12.2107
 20
70.1044
 11
12.3711
 21
70.4453
  0
LINE
  8
0
 10
12.3711
 20
70.4453
 11
12.5729
 21
70.7634
  0
LINE
  8
0
 10
12.5729
 20
70.7634
 11
12.8131
 21
71.0536
  0
LINE
  8
0
 10
12.8131
 20
71.0536
 11
13.0877
 21
71.3115
  0
LINE
  8
0
 10
13.0877
 20
71.3115
 11
13.3925
 21
71.533
  0
LINE
  8
0
 10
13.3925
 20
71.533
 11
13.7227
 21
71.7145
  0
LINE
  8
0
 10
13.7227
 20
71.7145
 11
14.0729
 21
71.8532
  0
LINE
  8
0
 10
14.0729
 20
71.8532
 11
14.4379
 21
71.9469
  0
LINE
  8
0
 10
14.4379
 20
71.9469
 11
14.8116
 21
71.9941
  0
LINE
  8
0
 10
14.8116
 20
71.9941
 11
15.1884
 21
71.9941
  0
LINE
  8
0
 10
15.1884
 20
71.9941
 11
15.5621
 21
71.9469
  0
LINE
  8
0
 10
15.5621
 20
71.9469
 11
15.927
 21
71.8532
  0
LINE
  8
0
 10
15.927
 20
71.8532
 11
16.2773
 21
71.7145
  0
LINE
  8
0
 10
16.2773
 20
71.7145
 11
16.6075
 21
71.533
  0
LINE
  8
0
 10
16.6075
 20
71.533
 11
16.9123
 21
71.3115
  0
LINE
  8
0
 10
16.9123
 20
71.3115
 11
17.1869
 21
71.0536
  0
LINE
  8
0
 10
17.1869
 20
71.0536
 11
17.427
 21
70.7634
  0
LINE
  8
0
 10
17.427
 20
70.7634
 11
17.6289
 21
70.4453
  0
LINE
  8
0
 10
17.6289
 20
70.4453
 11
17.7893
 21
70.1044
  0
LINE
  8
0
 10
17.7893
 20
70.1044
 11
17.9057
 21
69.7461
  0
LINE
  8
0
 10
17.9057
 20
69.7461
 11
17.9763
 21
69.376
  0
LINE
  8
0
 10
17.9763
 20
69.376
 11
18
 21
69
  0
LINE
  8
0
 10
18
 20
69
 11
17.9763
 21
68.624
  0
LINE
  8
0
 10
17.9763
 20
68.624
 11
17.9057
 21
68.2539
  0
LINE
  8
0
 10
17.9057
 20
68.2539
 11
17.7893
 21
67.8956
  0
LINE
  8
0
 10
17.7893
 20
67.8956
 11
17.6289
 21
67.5547
  0
LINE
  8
0
 10
17.6289
 20
67.5547
 11
17.427
 21
67.2366
  0
LINE
  8
0
 10
17.427
 20
67.2366
 11
17.1869
 21
66.9464
  0
LINE
  8
0
 10
17.1869
 20
66.9464
 11
16.9123
 21
66.6884
  0
LINE
  8
0
 10
16.9123
 20
66.6884
 11
16.6075
 21
66.467
  0
LINE
  8
0
 10
16.6075
 20
66.467
 11
16.2773
 21
66.2855
  0
LINE
  8
0
 10
16.2773
 20
66.2855
 11
15.927
 21
66.1468
  0
LINE
  8
0
 10
15.927
 20
66.1468
 11
15.5621
 21
66.0531
  0
LINE
  8
0
 10
15.5621
 20
66.0531
 11
15.1884
 21
66.0059
  0
LINE
  8
0
 10
15.1884
 20
66.0059
 11
14.8116
 21
66.0059
  0
LINE
  8
0
 10
-0.753479
 20
42.0237
 11
-2.24857
 21
42.2126
  0
LINE
  8
0
 10
-2.24857
 20
42.2126
 11
-3.70819
 21
42.5873
  0
LINE
  8
0
 10
-3.70819
 20
42.5873
 11
-5.10934
 21
43.1421
  0
LINE
  8
0
 10
-5.10934
 20
43.1421
 11
-6.42992
 21
43.8681
  0
LINE
  8
0
 10
-6.42992
 20
43.8681
 11
-7.64908
 21
44.7538
  0
LINE
  8
0
 10
-7.64908
 20
44.7538
 11
-8.74762
 21
45.7854
  0
LINE
  8
0
 10
-8.74762
 20
45.7854
 11
-9.70819
 21
46.9466
  0
LINE
  8
0
 10
-9.70819
 20
46.9466
 11
-10.5157
 21
48.219
  0
LINE
  8
0
 10
-10.5157
 20
48.219
 11
-11.1573
 21
49.5825
  0
LINE
  8
0
 10
-11.1573
 20
49.5825
 11
-11.623
 21
51.0157
  0
LINE
  8
0
 10
-11.623
 20
51.0157
 11
-11.9054
 21
52.496
  0
LINE
  8
0
 10
-11.9054
 20
52.496
 11
-12
 21
54
  0
LINE
  8
0
 10
-12
 20
54
 11
-11.9054
 21
55.504
  0
LINE
  8
0
 10
-11.9054
 20
55.504
 11
-11.623
 21
56.9843
  0
LINE
  8
0
 10
-11.623
 20
56.9843
 11
-11.1573
 21
58.4175
  0
LINE
  8
0
 10
-11.1573
 20
58.4175
 11
-10.5157
 21
59.781
  0
LINE
  8
0
 10
-10.5157
 20
59.781
 11
-9.70819
 21
61.0534
  0
LINE
  8
0
 10
-9.70819
 20
61.0534
 11
-8.74762
 21
62.2146
  0
LINE
  8
0
 10
-8.74762
 20
62.2146
 11
-7.64908
 21
63.2462
  0
LINE
  8
0
 10
-7.64908
 20
63.2462
 11
-6.42992
 21
64.1319
  0
LINE
  8
0
 10
-6.42992
 20
64.1319
 11
-5.10934
 21
64.8579
  0
LINE
  8
0
 10
-5.10934
 20
64.8579
 11
-3.70819
 21
65.4127
  0
LINE
  8
0
 10
-3.70819
 20
65.4127
 11
-2.24857
 21
65.7874
  0
LINE
  8
0
 10
-2.24857
 20
65.7874
 11
-0.753479
 21
65.9763
  0
LINE
  8
0
 10
-0.753479
 20
65.9763
 11
0.753479
 21
65.9763
  0
LINE
  8
0
 10
0.753479
 20
65.9763
 11
2.24857
 21
65.7874
  0
LINE
  8
0
 10
2.24857
 20
65.7874
 11
3.70819
 21
65.4127
  0
LINE
  8
0
 10
3.70819
 20
65.4127
 11
5.10934
 21
64.8579
  0
LINE
  8
0
 10
5.10934
 20
64.8579
 11
6.42992
 21
64.1319
  0
LINE
  8
0
 10
6.42992
 20
64.1319
 11
7.64908
 21
63.2462
  0
LINE
  8
0
 10
7.64908
 20
63.2462
 11
8.74762
 21
62.2146
  0
LINE
  8
0
 10
8.74762
 20
62.2146
 11
9.70819
 21
61.0534
  0
LINE
  8
0
 10
9.70819
 20
61.0534
 11
10.5157
 21
59.781
  0
LINE
  8
0
 10
10.5157
 20
59.781
 11
11.1573
 21
58.4175
  0
LINE
  8
0
 10
11.1573
 20
58.4175
 11
11.623
 21
56.9843
  0
LINE
  8
0
 10
11.623
 20
56.9843
 11
11.9054
 21
55.504
  0
LINE
  8
0
 10
11.9054
 20
55.504
 11
12
 21
54
  0
LINE
  8
0
 10
12
 20
54
 11
11.9054
 21
52.496
  0
LINE
  8
0
 10
11.9054
 20
52.496
 11
11.623
 21
51.0157
  0
LINE
  8
0
 10
11.623
 20
51.0157
 11
11.1573
 21
49.5825
  0
LINE
  8
0
 10
11.1573
 20
49.5825
 11
10.5157
 21
48.219
  0
LINE
  8
0
 10
10.5157
 20
48.219
 11
9.70819
 21
46.9466
  0
LINE
  8
0
 10
9.70819
 20
46.9466
 11
8.74762
 21
45.7854
  0
LINE
  8
0
 10
8.74762
 20
45.7854
 11
7.64908
 21
44.7538
  0
LINE
  8
0
 10
7.64908
 20
44.7538
 11
6.42992
 21
43.8681
  0
LINE
  8
0
 10
6.42992
 20
43.8681
 11
5.10934
 21
43.1421
  0
LINE
  8
0
 10
5.10934
 20
43.1421
 11
3.70819
 21
42.5873
  0
LINE
  8
0
 10
3.70819
 20
42.5873
 11
2.24857
 21
42.2126
  0
LINE
  8
0
 10
2.24857
 20
42.2126
 11
0.753479
 21
42.0237
  0
LINE
  8
0
 10
0.753479
 20
42.0237
 11
-0.753479
 21
42.0237
  0
LINE
  8
0
 10
14.8116
 20
36.0059
 11
14.4379
 21
36.0531
  0
LINE
  8
0
 10
14.4379
 20
36.0531
 11
14.0729
 21
36.1468
  0
LINE
  8
0
 10
14.0729
 20
36.1468
 11
13.7227
 21
36.2855
  0
LINE
  8
0
 10
13.7227
 20
36.2855
 11
13.3925
 21
36.467
  0
LINE
  8
0
 10
13.3925
 20
36.467
 11
13.0877
 21
36.6885
  0
LINE
  8
0
 10
13.0877
 20
36.6885
 11
12.8131
 21
36.9464
  0
LINE
  8
0
 10
12.8131
 20
36.9464
 11
12.5729
 21
37.2366
  0
LINE
  8
0
 10
12.5729
 20
37.2366
 11
12.3711
 21
37.5547
  0
LINE
  8
0
 10
12.3711
 20
37.5547
 11
12.2107
 21
37.8956
  0
LINE
  8
0
 10
12.2107
 20
37.8956
 11
12.0942
 21
38.2539
  0
LINE
  8
0
 10
12.0942
 20
38.2539
 11
12.0237
 21
38.624
  0
LINE
  8
0
 10
12.0237
 20
38.624
 11
12
 21
39
  0
LINE
  8
0
 10
12
 20
39
 11
12.0237
 21
39.376
  0
LINE
  8
0
 10
12.0237
 20
39.376
 11
12.0942
 21
39.7461
  0
LINE
  8
0
 10
12.0942
 20
39.7461
 11
12.2107
 21
40.1044
  0
LINE
  8
0
 10
12.2107
 20
40.1044
 11
12.3711
 21
40.4453
  0
LINE
  8
0
 10
12.3711
 20
40.4453
 11
12.5729
 21
40.7634
  0
LINE
  8
0
 10
12.5729
 20
40.7634
 11
12.8131
 21
41.0536
  0
LINE
  8
0
 10
12.8131
 20
41.0536
 11
13.0877
 21
41.3116
  0
LINE
  8
0
 10
13.0877
 20
41.3116
 11
13.3925
 21
41.533
  0
LINE
  8
0
 10
13.3925
 20
41.533
 11
13.7227
 21
41.7145
  0
LINE
  8
0
 10
13.7227
 20
41.7145
 11
14.0729
 21
41.8532
  0
LINE
  8
0
 10
14.0729
 20
41.8532
 11
14.4379
 21
41.9469
  0
LINE
  8
0
 10
14.4379
 20
41.9469
 11
14.8116
 21
41.9941
  0
LINE
  8
0
 10
14.8116
 20
41.9941
 11
15.1884
 21
41.9941
  0
LINE
  8
0
 10
15.1884
 20
41.9941
 11
15.5621
 21
41.9469
  0
LINE
  8
0
 10
15.5621
 20
41.9469
 11
15.927
 21
41.8532
  0
LINE
  8
0
 10
15.927
 20
41.8532
 11
16.2773
 21
41.7145
  0
LINE
  8
0
 10
16.2773
 20
41.7145
 11
16.6075
 21
41.533
  0
LINE
  8
0
 10
16.6075
 20
41.533
 11
16.9123
 21
41.3116
  0
LINE
  8
0
 10
16.9123
 20
41.3116
 11
17.1869
 21
41.0536
  0
LINE
  8
0
 10
17.1869
 20
41.0536
 11
17.427
 21
40.7634
  0
LINE
  8
0
 10
17.427
 20
40.7634
 11
17.6289
 21
40.4453
  0
LINE
  8
0
 10
17.6289
 20
40.4453
 11
17.7893
 21
40.1044
  0
LINE
  8
0
 10
17.7893
 20
40.1044
 11
17.9057
 21
39.7461
  0
LINE
  8
0
 10
17.9057
 20
39.7461
 11
17.9763
 21
39.376
  0
LINE
  8
0
 10
17.9763
 20
39.376
 11
18
 21
39
  0
LINE
  8
0
 10
18
 20
39
 11
17.9763
 21
38.624
  0
LINE
  8
0
 10
17.9763
 20
38.624
 11
17.9057
 21
38.2539
  0
LINE
  8
0
 10
17.9057
 20
38.2539
 11
17.7893
 21
37.8956
  0
LINE
  8
0
 10
17.7893
 20
37.8956
 11
17.6289
 21
37.5547
  0
LINE
  8
0
 10
17.6289
 20
37.5547
 11
17.427
 21
37.2366
  0
LINE
  8
0
 10
17.427
 20
37.2366
 11
17.1869
 21
36.9464
  0
LINE
  8
0
 10
17.1869
 20
36.9464
 11
16.9123
 21
36.6885
  0
LINE
  8
0
 10
16.9123
 20
36.6885
 11
16.6075
 21
36.467
  0
LINE
  8
0
 10
16.6075
 20
36.467
 11
16.2773
 21
36.2855
  0
LINE
  8
0
 10
16.2773
 20
36.2855
 11
15.927
 21
36.1468
  0
LINE
  8
0
 10
15.927
 20
36.1468
 11
15.5621
 21
36.0531
  0
LINE
  8
0
 10
15.5621
 20
36.0531
 11
15.1884
 21
36.0059
  0
LINE
  8
0
 10
15.1884
 20
36.0059
 11
14.8116
 21
36.0059
  0
LINE
  8
0
 10
-15.1884
 20
36.0059
 11
-15.5621
 21
36.0531
  0
LINE
  8
0
 10
-15.5621
 20
36.0531
 11
-15.927
 21
36.1468
  0
LINE
  8
0
 10
-15.927
 20
36.1468
 11
-16.2773
 21
36.2855
  0
LINE
  8
0
 10
-16.2773
 20
36.2855
 11
-16.6075
 21
36.467
  0
LINE
  8
0
 10
-16.6075
 20
36.467
 11
-16.9123
 21
36.6885
  0
LINE
  8
0
 10
-16.9123
 20
36.6885
 11
-17.1869
 21
36.9464
  0
LINE
  8
0
 10
-17.1869
 20
36.9464
 11
-17.427
 21
37.2366
  0
LINE
  8
0
 10
-17.427
 20
37.2366
 11
-17.6289
 21
37.5547
  0
LINE
  8
0
 10
-17.6289
 20
37.5547
 11
-17.7893
 21
37.8956
  0
LINE
  8
0
 10
-17.7893
 20
37.8956
 11
-17.9057
 21
38.2539
  0
LINE
  8
0
 10
-17.9057
 20
38.2539
 11
-17.9763
 21
38.624
  0
LINE
  8
0
 10
-17.9763
 20
38.624
 11
-18
 21
39
  0
LINE
  8
0
 10
-18
 20
39
 11
-17.9763
 21
39.376
  0
LINE
  8
0
 10
-17.9763
 20
39.376
 11
-17.9057
 21
39.7461
  0
LINE
  8
0
 10
-17.9057
 20
39.7461
 11
-17.7893
 21
40.1044
  0
LINE
  8
0
 10
-17.7893
 20
40.1044
 11
-17.6289
 21
40.4453
  0
LINE
  8
0
 10
-17.6289
 20
40.4453
 11
-17.427
 21
40.7634
  0
LINE
  8
0
 10
-17.427
 20
40.7634
 11
-17.1869
 21
41.0536
  0
LINE
  8
0
 10
-17.1869
 20
41.0536
 11
-16.9123
 21
41.3116
  0
LINE
  8
0
 10
-16.9123
 20
41.3116
 11
-16.6075
 21
41.533
  0
LINE
  8
0
 10
-16.6075
 20
41.533
 11
-16.2773
 21
41.7145
  0
LINE
  8
0
 10
-16.2773
 20
41.7145
 11
-15.927
 21
41.8532
  0
LINE
  8
0
 10
-15.927
 20
41.8532
 11
-15.5621
 21
41.9469
  0
LINE
  8
0
 10
-15.5621
 20
41.9469
 11
-15.1884
 21
41.9941
  0
LINE
  8
0
 10
-15.1884
 20
41.9941
 11
-14.8116
 21
41.9941
  0
LINE
  8
0
 10
-14.8116
 20
41.9941
 11
-14.4379
 21
41.9469
  0
LINE
  8
0
 10
-14.4379
 20
41.9469
 11
-14.0729
 21
41.8532
  0
LINE
  8
0
 10
-14.0729
 20
41.8532
 11
-13.7227
 21
41.7145
  0
LINE
  8
0
 10
-13.7227
 20
41.7145
 11
-13.3925
 21
41.533
  0
LINE
  8
0
 10
-13.3925
 20
41.533
 11
-13.0877
 21
41.3116
  0
LINE
  8
0
 10
-13.0877
 20
41.3116
 11
-12.8131
 21
41.0536
  0
LINE
  8
0
 10
-12.8131
 20
41.0536
 11
-12.5729
 21
40.7634
  0
LINE
  8
0
 10
-12.5729
 20
40.7634
 11
-12.3711
 21
40.4453
  0
LINE
  8
0
 10
-12.3711
 20
40.4453
 11
-12.2107
 21
40.1044
  0
LINE
  8
0
 10
-12.2107
 20
40.1044
 11
-12.0942
 21
39.7461
  0
LINE
  8
0
 10
-12.0942
 20
39.7461
 11
-12.0237
 21
39.376
  0
LINE
  8
0
 10
-12.0237
 20
39.376
 11
-12
 21
39
  0
LINE
  8
0
 10
-12
 20
39
 11
-12.0237
 21
38.624
  0
LINE
  8
0
 10
-12.0237
 20
38.624
 11
-12.0942
 21
38.2539
  0
LINE
  8
0
 10
-12.0942
 20
38.2539
 11
-12.2107
 21
37.8956
  0
LINE
  8
0
 10
-12.2107
 20
37.8956
 11
-12.3711
 21
37.5547
  0
LINE
  8
0
 10
-12.3711
 20
37.5547
 11
-12.5729
 21
37.2366
  0
LINE
  8
0
 10
-12.5729
 20
37.2366
 11
-12.8131
 21
36.9464
  0
LINE
  8
0
 10
-12.8131
 20
36.9464
 11
-13.0877
 21
36.6885
  0
LINE
  8
0
 10
-13.0877
 20
36.6885
 11
-13.3925
 21
36.467
  0
LINE
  8
0
 10
-13.3925
 20
36.467
 11
-13.7227
 21
36.2855
  0
LINE
  8
0
 10
-13.7227
 20
36.2855
 11
-14.0729
 21
36.1468
  0
LINE
  8
0
 10
-14.0729
 20
36.1468
 11
-14.4379
 21
36.0531
  0
LINE
  8
0
 10
-14.4379
 20
36.0531
 11
-14.8116
 21
36.0059
  0
LINE
  8
0
 10
-14.8116
 20
36.0059
 11
-15.1884
 21
36.0059
  0
ENDSEC
  0
SECTION
  2
OBJECTS
  0
DICTIONARY
  0
ENDSEC
  0
EOF
