<?xml version="1.0" standalone="no"?>
<!DOCTYPE svg PUBLIC "-//W3C//DTD SVG 1.1//EN" "http://www.w3.org/Graphics/SVG/1.1/DTD/svg11.dtd">
<svg width="104mm" height="44mm" viewBox="-52 -76 104 44" xmlns="http://www.w3.org/2000/svg" version="1.1">
<title>OpenSCAD Model</title>
<path d="
M 47.9369,-32.0886 L 48.5451,-32.2447 L 49.1289,-32.4759 L 49.6791,-32.7784 L 50.1871,-33.1474 L 50.6448,-33.5773
 L 51.0451,-34.0611 L 51.3815,-34.5912 L 51.6489,-35.1594 L 51.8429,-35.7566 L 51.9606,-36.3733 L 52,-37
 L 52,-71 L 51.9606,-71.6267 L 51.8429,-72.2434 L 51.6489,-72.8406 L 51.3815,-73.4088 L 51.0451,-73.9389
 L 50.6448,-74.4227 L 50.1871,-74.8526 L 49.6791,-75.2216 L 49.1289,-75.5241 L 48.5451,-75.7553 L 47.9369,-75.9114
 L 47.3139,-75.9901 L -47.3139,-75.9901 L -47.9369,-75.9114 L -48.5451,-75.7553 L -49.1289,-75.5241 L -49.6791,-75.2216
 L -50.1871,-74.8526 L -50.6448,-74.4227 L -51.0451,-73.9389 L -51.3815,-73.4088 L -51.6489,-72.8406 L -51.8429,-72.2434
 L -51.9606,-71.6267 L -52,-71 L -52,-37 L -51.9606,-36.3733 L -51.8429,-35.7566 L -51.6489,-35.1594
 L -51.3815,-34.5912 L -51.0451,-34.0611 L -50.6448,-33.5773 L -50.1871,-33.1474 L -49.6791,-32.7784 L -49.1289,-32.4759
 L -48.5451,-32.2447 L -47.9369,-32.0886 L -47.3139,-32.0099 L 47.3139,-32.0099 z
M 44.8116,-66.0059 L 44.4379,-66.0531 L 44.0729,-66.1468 L 43.7227,-66.2855 L 43.3925,-66.467 L 43.0877,-66.6884
 L 42.8131,-66.9464 L 42.5729,-67.2366 L 42.3711,-67.5547 L 42.2107,-67.8956 L 42.0942,-68.2539 L 42.0237,-68.624
 L 42,-69 L 42.0237,-69.376 L 42.0942,-69.7461 L 42.2107,-70.1044 L 42.3711,-70.4453 L 42.5729,-70.7634
 L 42.8131,-71.0536 L 43.0877,-71.3115 L 43.3925,-71.533 L 43.7227,-71.7145 L 44.0729,-71.8532 L 44.4379,-71.9469
 L 44.8116,-71.9941 L 45.1884,-71.9941 L 45.5621,-71.9469 L 45.927,-71.8532 L 46.2773,-71.7145 L 46.6075,-71.533
 L 46.9123,-71.3115 L 47.1869,-71.0536 L 47.427,-70.7634 L 47.6289,-70.4453 L 47.7893,-70.1044 L 47.9057,-69.7461
 L 47.9763,-69.376 L 48,-69 L 47.9763,-68.624 L 47.9057,-68.2539 L 47.7893,-67.8956 L 47.6289,-67.5547
 L 47.427,-67.2366 L 47.1869,-66.9464 L 46.9123,-66.6884 L 46.6075,-66.467 L 46.2773,-66.2855 L 45.927,-66.1468
 L 45.5621,-66.0531 L 45.1884,-66.0059 z
M -45.1884,-66.0059 L -45.5621,-66.0531 L -45.927,-66.1468 L -46.2773,-66.2855 L -46.6075,-66.467 L -46.9123,-66.6884
 L -47.1869,-66.9464 L -47.427,-67.2366 L -47.6289,-67.5547 L -47.7893,-67.8956 L -47.9057,-68.2539 L -47.9763,-68.624
 L -48,-69 L -47.9763,-69.376 L -47.9057,-69.7461 L -47.7893,-70.1044 L -47.6289,-70.4453 L -47.427,-70.7634
 L -47.1869,-71.0536 L -46.9123,-71.3115 L -46.6075,-71.533 L -46.2773,-71.7145 L -45.927,-71.8532 L -45.5621,-71.9469
 L -45.1884,-71.9941 L -44.8116,-71.9941 L -44.4379,-71.9469 L -44.0729,-71.8532 L -43.7227,-71.7145 L -43.3925,-71.533
 L -43.0877,-71.3115 L -42.8131,-71.0536 L -42.5729,-70.7634 L -42.3711,-70.4453 L -42.2107,-70.1044 L -42.0942,-69.7461
 L -42.0237,-69.376 L -42,-69 L -42.0237,-68.624 L -42.0942,-68.2539 L -42.2107,-67.8956 L -42.3711,-67.5547
 L -42.5729,-67.2366 L -42.8131,-66.9464 L -43.0877,-66.6884 L -43.3925,-66.467 L -43.7227,-66.2855 L -44.0729,-66.1468
 L -44.4379,-66.0531 L -44.8116,-66.0059 z
M -0.879059,-40.0276 L -2.62334,-40.248 L -4.32623,-40.6852 L -5.96091,-41.3324 L -7.50157,-42.1794 L -8.92393,-43.2128
 L -10.2056,-44.4164 L -11.3262,-45.771 L -12.2683,-47.2555 L -13.0169,-48.8463 L -13.5602,-50.5184 L -13.8896,-52.2453
 L -14,-54 L -13.8896,-55.7547 L -13.5602,-57.4816 L -13.0169,-59.1537 L -12.2683,-60.7445 L -11.3262,-62.229
 L -10.2056,-63.5836 L -8.92393,-64.7872 L -7.50157,-65.8206 L -5.96091,-66.6676 L -4.32623,-67.3148 L -2.62334,-67.752
 L -0.879059,-67.9724 L 0.879059,-67.9724 L 2.62334,-67.752 L 4.32623,-67.3148 L 5.96091,-66.6676 L 7.50157,-65.8206
 L 8.92393,-64.7872 L 10.2056,-63.5836 L 11.3262,-62.229 L 12.2683,-60.7445 L 13.0169,-59.1537 L 13.5602,-57.4816
 L 13.8896,-55.7547 L 14,-54 L 13.8896,-52.2453 L 13.5602,-50.5184 L 13.0169,-48.8463 L 12.2683,-47.2555
 L 11.3262,-45.771 L 10.2056,-44.4164 L 8.92393,-43.2128 L 7.50157,-42.1794 L 5.96091,-41.3324 L 4.32623,-40.6852
 L 2.62334,-40.248 L 0.879059,-40.0276 z
M -33.8791,-40.0276 L -35.6233,-40.248 L -37.3262,-40.6852 L -38.9609,-41.3324 L -40.5016,-42.1794 L -41.9239,-43.2128
 L -43.2056,-44.4164 L -44.3262,-45.771 L -45.2683,-47.2555 L -46.0169,-48.8463 L -46.5602,-50.5184 L -46.8896,-52.2453
 L -47,-54 L -46.8896,-55.7547 L -46.5602,-57.4816 L -46.0169,-59.1537 L -45.2683,-60.7445 L -44.3262,-62.229
 L -43.2056,-63.5836 L -41.9239,-64.7872 L -40.5016,-65.8206 L -38.9609,-66.6676 L -37.3262,-67.3148 L -35.6233,-67.752
 L -33.8791,-67.9724 L -32.1209,-67.9724 L -30.3766,-67.752 L -28.6738,-67.3148 L -27.0391,-66.6676 L -25.4984,-65.8206
 L -24.0761,-64.7872 L -22.7944,-63.5836 L -21.6738,-62.229 L -20.7317,-60.7445 L -19.9831,-59.1537 L -19.4398,-57.4816
 L -19.1104,-55.7547 L -19,-54 L -19.1104,-52.2453 L -19.4398,-50.5184 L -19.9831,-48.8463 L -20.7317,-47.2555
 L -21.6738,-45.771 L -22.7944,-44.4164 L -24.0761,-43.2128 L -25.4984,-42.1794 L -27.0391,-41.3324 L -28.6738,-40.6852
 L -30.3766,-40.248 L -32.1209,-40.0276 z
M 32.1209,-40.0276 L 30.3766,-40.248 L 28.6738,-40.6852 L 27.0391,-41.3324 L 25.4984,-42.1794 L 24.0761,-43.2128
 L 22.7944,-44.4164 L 21.6738,-45.771 L 20.7317,-47.2555 L 19.9831,-48.8463 L 19.4398,-50.5184 L 19.1104,-52.2453
 L 19,-54 L 19.1104,-55.7547 L 19.4398,-57.4816 L 19.9831,-59.1537 L 20.7317,-60.7445 L 21.6738,-62.229
 L 22.7944,-63.5836 L 24.0761,-64.7872 L 25.4984,-65.8206 L 27.0391,-66.6676 L 28.6738,-67.3148 L 30.3766,-67.752
 L 32.1209,-67.9724 L 33.8791,-67.9724 L 35.6233,-67.752 L 37.3262,-67.3148 L 38.9609,-66.6676 L 40.5016,-65.8206
 L 41.9239,-64.7872 L 43.2056,-63.5836 L 44.3262,-62.229 L 45.2683,-60.7445 L 46.0169,-59.1537 L 46.5602,-57.4816
 L 46.8896,-55.7547 L 47,-54 L 46.8896,-52.2453 L 46.5602,-50.5184 L 46.0169,-48.8463 L 45.2683,-47.2555
 L 44.3262,-45.771 L 43.2056,-44.4164 L 41.9239,-43.2128 L 40.5016,-42.1794 L 38.9609,-41.3324 L 37.3262,-40.6852
 L 35.6233,-40.248 L 33.8791,-40.0276 z
M 44.8116,-36.0059 L 44.4379,-36.0531 L 44.0729,-36.1468 L 43.7227,-36.2855 L 43.3925,-36.467 L 43.0877,-36.6885
 L 42.8131,-36.9464 L 42.5729,-37.2366 L 42.3711,-37.5547 L 42.2107,-37.8956 L 42.0942,-38.2539 L 42.0237,-38.624
 L 42,-39 L 42.0237,-39.376 L 42.0942,-39.7461 L 42.2107,-40.1044 L 42.3711,-40.4453 L 42.5729,-40.7634
 L 42.8131,-41.0536 L 43.0877,-41.3116 L 43.3925,-41.533 L 43.7227,-41.7145 L 44.0729,-41.8532 L 44.4379,-41.9469
 L 44.8116,-41.9941 L 45.1884,-41.9941 L 45.5621,-41.9469 L 45.927,-41.8532 L 46.2773,-41.7145 L 46.6075,-41.533
 L 46.9123,-41.3116 L 47.1869,-41.0536 L 47.427,-40.7634 L 47.6289,-40.4453 L 47.7893,-40.1044 L 47.9057,-39.7461
 L 47.9763,-39.376 L 48,-39 L 47.9763,-38.624 L 47.9057,-38.2539 L 47.7893,-37.8956 L 47.6289,-37.5547
 L 47.427,-37.2366 L 47.1869,-36.9464 L 46.9123,-36.6885 L 46.6075,-36.467 L 46.2773,-36.2855 L 45.927,-36.1468
 L 45.5621,-36.0531 L 45.1884,-36.0059 z
M -45.1884,-36.0059 L -45.5621,-36.0531 L -45.927,-36.1468 L -46.2773,-36.2855 L -46.6075,-36.467 L -46.9123,-36.6885
 L -47.1869,-36.9464 L -47.427,-37.2366 L -47.6289,-37.5547 L -47.7893,-37.8956 L -47.9057,-38.2539 L -47.9763,-38.624
 L -48,-39 L -47.9763,-39.376 L -47.9057,-39.7461 L -47.7893,-40.1044 L -47.6289,-40.4453 L -47.427,-40.7634
 L -47.1869,-41.0536 L -46.9123,-41.3116 L -46.6075,-41.533 L -46.2773,-41.7145 L -45.927,-41.8532 L -45.5621,-41.9469
 L -45.1884,-41.9941 L -44.8116,-41.9941 L -44.4379,-41.9469 L -44.0729,-41.8532 L -43.7227,-41.7145 L -43.3925,-41.533
 L -43.0877,-41.3116 L -42.8131,-41.0536 L -42.5729,-40.7634 L -42.3711,-40.4453 L -42.2107,-40.1044 L -42.0942,-39.7461
 L -42.0237,-39.376 L -42,-39 L -42.0237,-38.624 L -42.0942,-38.2539 L -42.2107,-37.8956 L -42.3711,-37.5547
 L -42.5729,-37.2366 L -42.8131,-36.9464 L -43.0877,-36.6885 L -43.3925,-36.467 L -43.7227,-36.2855 L -44.0729,-36.1468
 L -44.4379,-36.0531 L -44.8116,-36.0059 z
" stroke="black" fill="lightgray" stroke-width="0.5"/>
</svg>
