  0
SECTION
  2
BLOCKS
  0
ENDSEC
  0
SECTION
  2
ENTITIES
  0
LINE
  8
0
 10
62.9369
 20
24.5886
 11
63.5451
 21
24.7447
  0
LINE
  8
0
 10
63.5451
 20
24.7447
 11
64.1289
 21
24.9759
  0
LINE
  8
0
 10
64.1289
 20
24.9759
 11
64.6791
 21
25.2784
  0
LINE
  8
0
 10
64.6791
 20
25.2784
 11
65.1871
 21
25.6474
  0
LINE
  8
0
 10
65.1871
 20
25.6474
 11
65.6448
 21
26.0773
  0
LINE
  8
0
 10
65.6448
 20
26.0773
 11
66.0451
 21
26.5611
  0
LINE
  8
0
 10
66.0451
 20
26.5611
 11
66.3815
 21
27.0912
  0
LINE
  8
0
 10
66.3815
 20
27.0912
 11
66.6489
 21
27.6594
  0
LINE
  8
0
 10
66.6489
 20
27.6594
 11
66.8429
 21
28.2566
  0
LINE
  8
0
 10
66.8429
 20
28.2566
 11
66.9606
 21
28.8733
  0
LINE
  8
0
 10
66.9606
 20
28.8733
 11
67
 21
29.5
  0
LINE
  8
0
 10
67
 20
29.5
 11
67
 21
48.5
  0
LINE
  8
0
 10
67
 20
48.5
 11
66.9606
 21
49.1267
  0
LINE
  8
0
 10
66.9606
 20
49.1267
 11
66.8429
 21
49.7434
  0
LINE
  8
0
 10
66.8429
 20
49.7434
 11
66.6489
 21
50.3406
  0
LINE
  8
0
 10
66.6489
 20
50.3406
 11
66.3815
 21
50.9088
  0
LINE
  8
0
 10
66.3815
 20
50.9088
 11
66.0451
 21
51.4389
  0
LINE
  8
0
 10
66.0451
 20
51.4389
 11
65.6448
 21
51.9227
  0
LINE
  8
0
 10
65.6448
 20
51.9227
 11
65.1871
 21
52.3526
  0
LINE
  8
0
 10
65.1871
 20
52.3526
 11
64.6791
 21
52.7216
  0
LINE
  8
0
 10
64.6791
 20
52.7216
 11
64.1289
 21
53.0241
  0
LINE
  8
0
 10
64.1289
 20
53.0241
 11
63.5451
 21
53.2553
  0
LINE
  8
0
 10
63.5451
 20
53.2553
 11
62.9369
 21
53.4114
  0
LINE
  8
0
 10
62.9369
 20
53.4114
 11
62.3139
 21
53.4901
  0
LINE
  8
0
 10
62.3139
 20
53.4901
 11
-62.3139
 21
53.4901
  0
LINE
  8
0
 10
-62.3139
 20
53.4901
 11
-62.9369
 21
53.4114
  0
LINE
  8
0
 10
-62.9369
 20
53.4114
 11
-63.5451
 21
53.2553
  0
LINE
  8
0
 10
-63.5451
 20
53.2553
 11
-64.1289
 21
53.0241
  0
LINE
  8
0
 10
-64.1289
 20
53.0241
 11
-64.6791
 21
52.7216
  0
LINE
  8
0
 10
-64.6791
 20
52.7216
 11
-65.1871
 21
52.3526
  0
LINE
  8
0
 10
-65.1871
 20
52.3526
 11
-65.6448
 21
51.9227
  0
LINE
  8
0
 10
-65.6448
 20
51.9227
 11
-66.0451
 21
51.4389
  0
LINE
  8
0
 10
-66.0451
 20
51.4389
 11
-66.3815
 21
50.9088
  0
LINE
  8
0
 10
-66.3815
 20
50.9088
 11
-66.6489
 21
50.3406
  0
LINE
  8
0
 10
-66.6489
 20
50.3406
 11
-66.8429
 21
49.7434
  0
LINE
  8
0
 10
-66.8429
 20
49.7434
 11
-66.9606
 21
49.1267
  0
LINE
  8
0
 10
-66.9606
 20
49.1267
 11
-67
 21
48.5
  0
LINE
  8
0
 10
-67
 20
48.5
 11
-67
 21
29.5
  0
LINE
  8
0
 10
-67
 20
29.5
 11
-66.9606
 21
28.8733
  0
LINE
  8
0
 10
-66.9606
 20
28.8733
 11
-66.8429
 21
28.2566
  0
LINE
  8
0
 10
-66.8429
 20
28.2566
 11
-66.6489
 21
27.6594
  0
LINE
  8
0
 10
-66.6489
 20
27.6594
 11
-66.3815
 21
27.0912
  0
LINE
  8
0
 10
-66.3815
 20
27.0912
 11
-66.0451
 21
26.5611
  0
LINE
  8
0
 10
-66.0451
 20
26.5611
 11
-65.6448
 21
26.0773
  0
LINE
  8
0
 10
-65.6448
 20
26.0773
 11
-65.1871
 21
25.6474
  0
LINE
  8
0
 10
-65.1871
 20
25.6474
 11
-64.6791
 21
25.2784
  0
LINE
  8
0
 10
-64.6791
 20
25.2784
 11
-64.1289
 21
24.9759
  0
LINE
  8
0
 10
-64.1289
 20
24.9759
 11
-63.5451
 21
24.7447
  0
LINE
  8
0
 10
-63.5451
 20
24.7447
 11
-62.9369
 21
24.5886
  0
LINE
  8
0
 10
-62.9369
 20
24.5886
 11
-62.3139
 21
24.5099
  0
LINE
  8
0
 10
-62.3139
 20
24.5099
 11
62.3139
 21
24.5099
  0
LINE
  8
0
 10
62.3139
 20
24.5099
 11
62.9369
 21
24.5886
  0
LINE
  8
0
 10
59.8116
 20
28.5059
 11
59.4379
 21
28.5531
  0
LINE
  8
0
 10
59.4379
 20
28.5531
 11
59.0729
 21
28.6468
  0
LINE
  8
0
 10
59.0729
 20
28.6468
 11
58.7227
 21
28.7855
  0
LINE
  8
0
 10
58.7227
 20
28.7855
 11
58.3925
 21
28.967
  0
LINE
  8
0
 10
58.3925
 20
28.967
 11
58.0877
 21
29.1885
  0
LINE
  8
0
 10
58.0877
 20
29.1885
 11
57.8131
 21
29.4464
  0
LINE
  8
0
 10
57.8131
 20
29.4464
 11
57.5729
 21
29.7366
  0
LINE
  8
0
 10
57.5729
 20
29.7366
 11
57.3995
 21
30.0099
  0
LINE
  8
0
 10
57.3995
 20
30.0099
 11
56.4707
 21
29.4993
  0
LINE
  8
0
 10
56.4707
 20
29.4993
 11
55.2447
 21
29.0139
  0
LINE
  8
0
 10
55.2447
 20
29.0139
 11
53.9675
 21
28.686
  0
LINE
  8
0
 10
53.9675
 20
28.686
 11
52.6593
 21
28.5207
  0
LINE
  8
0
 10
52.6593
 20
28.5207
 11
51.3407
 21
28.5207
  0
LINE
  8
0
 10
51.3407
 20
28.5207
 11
50.0325
 21
28.686
  0
LINE
  8
0
 10
50.0325
 20
28.686
 11
48.7553
 21
29.0139
  0
LINE
  8
0
 10
48.7553
 20
29.0139
 11
47.5293
 21
29.4993
  0
LINE
  8
0
 10
47.5293
 20
29.4993
 11
46.3738
 21
30.1346
  0
LINE
  8
0
 10
46.3738
 20
30.1346
 11
45.307
 21
30.9096
  0
LINE
  8
0
 10
45.307
 20
30.9096
 11
44.3458
 21
31.8123
  0
LINE
  8
0
 10
44.3458
 20
31.8123
 11
43.5053
 21
32.8283
  0
LINE
  8
0
 10
43.5053
 20
32.8283
 11
42.7988
 21
33.9416
  0
LINE
  8
0
 10
42.7988
 20
33.9416
 11
42.2373
 21
35.1347
  0
LINE
  8
0
 10
42.2373
 20
35.1347
 11
41.8299
 21
36.3888
  0
LINE
  8
0
 10
41.8299
 20
36.3888
 11
41.5828
 21
37.684
  0
LINE
  8
0
 10
41.5828
 20
37.684
 11
41.5
 21
39
  0
LINE
  8
0
 10
41.5
 20
39
 11
41.5828
 21
40.316
  0
LINE
  8
0
 10
41.5828
 20
40.316
 11
41.8299
 21
41.6112
  0
LINE
  8
0
 10
41.8299
 20
41.6112
 11
42.2373
 21
42.8653
  0
LINE
  8
0
 10
42.2373
 20
42.8653
 11
42.7988
 21
44.0584
  0
LINE
  8
0
 10
42.7988
 20
44.0584
 11
43.5053
 21
45.1717
  0
LINE
  8
0
 10
43.5053
 20
45.1717
 11
44.3458
 21
46.1877
  0
LINE
  8
0
 10
44.3458
 20
46.1877
 11
45.307
 21
47.0904
  0
LINE
  8
0
 10
45.307
 20
47.0904
 11
46.3738
 21
47.8654
  0
LINE
  8
0
 10
46.3738
 20
47.8654
 11
47.5293
 21
48.5007
  0
LINE
  8
0
 10
47.5293
 20
48.5007
 11
48.7553
 21
48.9861
  0
LINE
  8
0
 10
48.7553
 20
48.9861
 11
50.0325
 21
49.314
  0
LINE
  8
0
 10
50.0325
 20
49.314
 11
51.3407
 21
49.4793
  0
LINE
  8
0
 10
51.3407
 20
49.4793
 11
52.6593
 21
49.4793
  0
LINE
  8
0
 10
52.6593
 20
49.4793
 11
53.9675
 21
49.314
  0
LINE
  8
0
 10
53.9675
 20
49.314
 11
55.2447
 21
48.9861
  0
LINE
  8
0
 10
55.2447
 20
48.9861
 11
56.4707
 21
48.5007
  0
LINE
  8
0
 10
56.4707
 20
48.5007
 11
57.3995
 21
47.9901
  0
LINE
  8
0
 10
57.3995
 20
47.9901
 11
57.5729
 21
48.2634
  0
LINE
  8
0
 10
57.5729
 20
48.2634
 11
57.8131
 21
48.5536
  0
LINE
  8
0
 10
57.8131
 20
48.5536
 11
58.0877
 21
48.8115
  0
LINE
  8
0
 10
58.0877
 20
48.8115
 11
58.3925
 21
49.033
  0
LINE
  8
0
 10
58.3925
 20
49.033
 11
58.7227
 21
49.2145
  0
LINE
  8
0
 10
58.7227
 20
49.2145
 11
59.0729
 21
49.3532
  0
LINE
  8
0
 10
59.0729
 20
49.3532
 11
59.4379
 21
49.4469
  0
LINE
  8
0
 10
59.4379
 20
49.4469
 11
59.8116
 21
49.4941
  0
LINE
  8
0
 10
59.8116
 20
49.4941
 11
60.1884
 21
49.4941
  0
LINE
  8
0
 10
60.1884
 20
49.4941
 11
60.5621
 21
49.4469
  0
LINE
  8
0
 10
60.5621
 20
49.4469
 11
60.927
 21
49.3532
  0
LINE
  8
0
 10
60.927
 20
49.3532
 11
61.2773
 21
49.2145
  0
LINE
  8
0
 10
61.2773
 20
49.2145
 11
61.6075
 21
49.033
  0
LINE
  8
0
 10
61.6075
 20
49.033
 11
61.9123
 21
48.8115
  0
LINE
  8
0
 10
61.9123
 20
48.8115
 11
62.1869
 21
48.5536
  0
LINE
  8
0
 10
62.1869
 20
48.5536
 11
62.427
 21
48.2634
  0
LINE
  8
0
 10
62.427
 20
48.2634
 11
62.6289
 21
47.9453
  0
LINE
  8
0
 10
62.6289
 20
47.9453
 11
62.7893
 21
47.6044
  0
LINE
  8
0
 10
62.7893
 20
47.6044
 11
62.9057
 21
47.2461
  0
LINE
  8
0
 10
62.9057
 20
47.2461
 11
62.9763
 21
46.876
  0
LINE
  8
0
 10
62.9763
 20
46.876
 11
63
 21
46.5
  0
LINE
  8
0
 10
63
 20
46.5
 11
62.9763
 21
46.124
  0
LINE
  8
0
 10
62.9763
 20
46.124
 11
62.9057
 21
45.7539
  0
LINE
  8
0
 10
62.9057
 20
45.7539
 11
62.7893
 21
45.3956
  0
LINE
  8
0
 10
62.7893
 20
45.3956
 11
62.6289
 21
45.0547
  0
LINE
  8
0
 10
62.6289
 20
45.0547
 11
62.427
 21
44.7366
  0
LINE
  8
0
 10
62.427
 20
44.7366
 11
62.1869
 21
44.4464
  0
LINE
  8
0
 10
62.1869
 20
44.4464
 11
61.9123
 21
44.1884
  0
LINE
  8
0
 10
61.9123
 20
44.1884
 11
61.6075
 21
43.967
  0
LINE
  8
0
 10
61.6075
 20
43.967
 11
61.3189
 21
43.8083
  0
LINE
  8
0
 10
61.3189
 20
43.8083
 11
61.7626
 21
42.8653
  0
LINE
  8
0
 10
61.7626
 20
42.8653
 11
62.1701
 21
41.6112
  0
LINE
  8
0
 10
62.1701
 20
41.6112
 11
62.4172
 21
40.316
  0
LINE
  8
0
 10
62.4172
 20
40.316
 11
62.5
 21
39
  0
LINE
  8
0
 10
62.5
 20
39
 11
62.4172
 21
37.684
  0
LINE
  8
0
 10
62.4172
 20
37.684
 11
62.1701
 21
36.3888
  0
LINE
  8
0
 10
62.1701
 20
36.3888
 11
61.7626
 21
35.1347
  0
LINE
  8
0
 10
61.7626
 20
35.1347
 11
61.3189
 21
34.1917
  0
LINE
  8
0
 10
61.3189
 20
34.1917
 11
61.6075
 21
34.033
  0
LINE
  8
0
 10
61.6075
 20
34.033
 11
61.9123
 21
33.8116
  0
LINE
  8
0
 10
61.9123
 20
33.8116
 11
62.1869
 21
33.5536
  0
LINE
  8
0
 10
62.1869
 20
33.5536
 11
62.427
 21
33.2634
  0
LINE
  8
0
 10
62.427
 20
33.2634
 11
62.6289
 21
32.9453
  0
LINE
  8
0
 10
62.6289
 20
32.9453
 11
62.7893
 21
32.6044
  0
LINE
  8
0
 10
62.7893
 20
32.6044
 11
62.9057
 21
32.2461
  0
LINE
  8
0
 10
62.9057
 20
32.2461
 11
62.9763
 21
31.876
  0
LINE
  8
0
 10
62.9763
 20
31.876
 11
63
 21
31.5
  0
LINE
  8
0
 10
63
 20
31.5
 11
62.9763
 21
31.124
  0
LINE
  8
0
 10
62.9763
 20
31.124
 11
62.9057
 21
30.7539
  0
LINE
  8
0
 10
62.9057
 20
30.7539
 11
62.7893
 21
30.3956
  0
LINE
  8
0
 10
62.7893
 20
30.3956
 11
62.6289
 21
30.0547
  0
LINE
  8
0
 10
62.6289
 20
30.0547
 11
62.427
 21
29.7366
  0
LINE
  8
0
 10
62.427
 20
29.7366
 11
62.1869
 21
29.4464
  0
LINE
  8
0
 10
62.1869
 20
29.4464
 11
61.9123
 21
29.1885
  0
LINE
  8
0
 10
61.9123
 20
29.1885
 11
61.6075
 21
28.967
  0
LINE
  8
0
 10
61.6075
 20
28.967
 11
61.2773
 21
28.7855
  0
LINE
  8
0
 10
61.2773
 20
28.7855
 11
60.927
 21
28.6468
  0
LINE
  8
0
 10
60.927
 20
28.6468
 11
60.5621
 21
28.5531
  0
LINE
  8
0
 10
60.5621
 20
28.5531
 11
60.1884
 21
28.5059
  0
LINE
  8
0
 10
60.1884
 20
28.5059
 11
59.8116
 21
28.5059
  0
LINE
  8
0
 10
-60.1884
 20
28.5059
 11
-60.5621
 21
28.5531
  0
LINE
  8
0
 10
-60.5621
 20
28.5531
 11
-60.927
 21
28.6468
  0
LINE
  8
0
 10
-60.927
 20
28.6468
 11
-61.2773
 21
28.7855
  0
LINE
  8
0
 10
-61.2773
 20
28.7855
 11
-61.6075
 21
28.967
  0
LINE
  8
0
 10
-61.6075
 20
28.967
 11
-61.9123
 21
29.1885
  0
LINE
  8
0
 10
-61.9123
 20
29.1885
 11
-62.1869
 21
29.4464
  0
LINE
  8
0
 10
-62.1869
 20
29.4464
 11
-62.427
 21
29.7366
  0
LINE
  8
0
 10
-62.427
 20
29.7366
 11
-62.6289
 21
30.0547
  0
LINE
  8
0
 10
-62.6289
 20
30.0547
 11
-62.7893
 21
30.3956
  0
LINE
  8
0
 10
-62.7893
 20
30.3956
 11
-62.9057
 21
30.7539
  0
LINE
  8
0
 10
-62.9057
 20
30.7539
 11
-62.9763
 21
31.124
  0
LINE
  8
0
 10
-62.9763
 20
31.124
 11
-63
 21
31.5
  0
LINE
  8
0
 10
-63
 20
31.5
 11
-62.9763
 21
31.876
  0
LINE
  8
0
 10
-62.9763
 20
31.876
 11
-62.9057
 21
32.2461
  0
LINE
  8
0
 10
-62.9057
 20
32.2461
 11
-62.7893
 21
32.6044
  0
LINE
  8
0
 10
-62.7893
 20
32.6044
 11
-62.6289
 21
32.9453
  0
LINE
  8
0
 10
-62.6289
 20
32.9453
 11
-62.427
 21
33.2634
  0
LINE
  8
0
 10
-62.427
 20
33.2634
 11
-62.1869
 21
33.5536
  0
LINE
  8
0
 10
-62.1869
 20
33.5536
 11
-61.9123
 21
33.8116
  0
LINE
  8
0
 10
-61.9123
 20
33.8116
 11
-61.6075
 21
34.033
  0
LINE
  8
0
 10
-61.6075
 20
34.033
 11
-61.3189
 21
34.1917
  0
LINE
  8
0
 10
-61.3189
 20
34.1917
 11
-61.7626
 21
35.1347
  0
LINE
  8
0
 10
-61.7626
 20
35.1347
 11
-62.1701
 21
36.3888
  0
LINE
  8
0
 10
-62.1701
 20
36.3888
 11
-62.4172
 21
37.684
  0
LINE
  8
0
 10
-62.4172
 20
37.684
 11
-62.5
 21
39
  0
LINE
  8
0
 10
-62.5
 20
39
 11
-62.4172
 21
40.316
  0
LINE
  8
0
 10
-62.4172
 20
40.316
 11
-62.1701
 21
41.6112
  0
LINE
  8
0
 10
-62.1701
 20
41.6112
 11
-61.7626
 21
42.8653
  0
LINE
  8
0
 10
-61.7626
 20
42.8653
 11
-61.3189
 21
43.8083
  0
LINE
  8
0
 10
-61.3189
 20
43.8083
 11
-61.6075
 21
43.967
  0
LINE
  8
0
 10
-61.6075
 20
43.967
 11
-61.9123
 21
44.1884
  0
LINE
  8
0
 10
-61.9123
 20
44.1884
 11
-62.1869
 21
44.4464
  0
LINE
  8
0
 10
-62.1869
 20
44.4464
 11
-62.427
 21
44.7366
  0
LINE
  8
0
 10
-62.427
 20
44.7366
 11
-62.6289
 21
45.0547
  0
LINE
  8
0
 10
-62.6289
 20
45.0547
 11
-62.7893
 21
45.3956
  0
LINE
  8
0
 10
-62.7893
 20
45.3956
 11
-62.9057
 21
45.7539
  0
LINE
  8
0
 10
-62.9057
 20
45.7539
 11
-62.9763
 21
46.124
  0
LINE
  8
0
 10
-62.9763
 20
46.124
 11
-63
 21
46.5
  0
LINE
  8
0
 10
-63
 20
46.5
 11
-62.9763
 21
46.876
  0
LINE
  8
0
 10
-62.9763
 20
46.876
 11
-62.9057
 21
47.2461
  0
LINE
  8
0
 10
-62.9057
 20
47.2461
 11
-62.7893
 21
47.6044
  0
LINE
  8
0
 10
-62.7893
 20
47.6044
 11
-62.6289
 21
47.9453
  0
LINE
  8
0
 10
-62.6289
 20
47.9453
 11
-62.427
 21
48.2634
  0
LINE
  8
0
 10
-62.427
 20
48.2634
 11
-62.1869
 21
48.5536
  0
LINE
  8
0
 10
-62.1869
 20
48.5536
 11
-61.9123
 21
48.8115
  0
LINE
  8
0
 10
-61.9123
 20
48.8115
 11
-61.6075
 21
49.033
  0
LINE
  8
0
 10
-61.6075
 20
49.033
 11
-61.2773
 21
49.2145
  0
LINE
  8
0
 10
-61.2773
 20
49.2145
 11
-60.927
 21
49.3532
  0
LINE
  8
0
 10
-60.927
 20
49.3532
 11
-60.5621
 21
49.4469
  0
LINE
  8
0
 10
-60.5621
 20
49.4469
 11
-60.1884
 21
49.4941
  0
LINE
  8
0
 10
-60.1884
 20
49.4941
 11
-59.8116
 21
49.4941
  0
LINE
  8
0
 10
-59.8116
 20
49.4941
 11
-59.4379
 21
49.4469
  0
LINE
  8
0
 10
-59.4379
 20
49.4469
 11
-59.0729
 21
49.3532
  0
LINE
  8
0
 10
-59.0729
 20
49.3532
 11
-58.7227
 21
49.2145
  0
LINE
  8
0
 10
-58.7227
 20
49.2145
 11
-58.3925
 21
49.033
  0
LINE
  8
0
 10
-58.3925
 20
49.033
 11
-58.0877
 21
48.8115
  0
LINE
  8
0
 10
-58.0877
 20
48.8115
 11
-57.8131
 21
48.5536
  0
LINE
  8
0
 10
-57.8131
 20
48.5536
 11
-57.5729
 21
48.2634
  0
LINE
  8
0
 10
-57.5729
 20
48.2634
 11
-57.3995
 21
47.9901
  0
LINE
  8
0
 10
-57.3995
 20
47.9901
 11
-56.4707
 21
48.5007
  0
LINE
  8
0
 10
-56.4707
 20
48.5007
 11
-55.2447
 21
48.9861
  0
LINE
  8
0
 10
-55.2447
 20
48.9861
 11
-53.9675
 21
49.314
  0
LINE
  8
0
 10
-53.9675
 20
49.314
 11
-52.6593
 21
49.4793
  0
LINE
  8
0
 10
-52.6593
 20
49.4793
 11
-51.3407
 21
49.4793
  0
LINE
  8
0
 10
-51.3407
 20
49.4793
 11
-50.0325
 21
49.314
  0
LINE
  8
0
 10
-50.0325
 20
49.314
 11
-48.7553
 21
48.9861
  0
LINE
  8
0
 10
-48.7553
 20
48.9861
 11
-47.5293
 21
48.5007
  0
LINE
  8
0
 10
-47.5293
 20
48.5007
 11
-46.3738
 21
47.8654
  0
LINE
  8
0
 10
-46.3738
 20
47.8654
 11
-45.307
 21
47.0904
  0
LINE
  8
0
 10
-45.307
 20
47.0904
 11
-44.3458
 21
46.1877
  0
LINE
  8
0
 10
-44.3458
 20
46.1877
 11
-43.5053
 21
45.1717
  0
LINE
  8
0
 10
-43.5053
 20
45.1717
 11
-42.7988
 21
44.0584
  0
LINE
  8
0
 10
-42.7988
 20
44.0584
 11
-42.2373
 21
42.8653
  0
LINE
  8
0
 10
-42.2373
 20
42.8653
 11
-41.8299
 21
41.6112
  0
LINE
  8
0
 10
-41.8299
 20
41.6112
 11
-41.5828
 21
40.316
  0
LINE
  8
0
 10
-41.5828
 20
40.316
 11
-41.5
 21
39
  0
LINE
  8
0
 10
-41.5
 20
39
 11
-41.5828
 21
37.684
  0
LINE
  8
0
 10
-41.5828
 20
37.684
 11
-41.8299
 21
36.3888
  0
LINE
  8
0
 10
-41.8299
 20
36.3888
 11
-42.2373
 21
35.1347
  0
LINE
  8
0
 10
-42.2373
 20
35.1347
 11
-42.7988
 21
33.9416
  0
LINE
  8
0
 10
-42.7988
 20
33.9416
 11
-43.5053
 21
32.8283
  0
LINE
  8
0
 10
-43.5053
 20
32.8283
 11
-44.3458
 21
31.8123
  0
LINE
  8
0
 10
-44.3458
 20
31.8123
 11
-45.307
 21
30.9096
  0
LINE
  8
0
 10
-45.307
 20
30.9096
 11
-46.3738
 21
30.1346
  0
LINE
  8
0
 10
-46.3738
 20
30.1346
 11
-47.5293
 21
29.4993
  0
LINE
  8
0
 10
-47.5293
 20
29.4993
 11
-48.7553
 21
29.0139
  0
LINE
  8
0
 10
-48.7553
 20
29.0139
 11
-50.0325
 21
28.686
  0
LINE
  8
0
 10
-50.0325
 20
28.686
 11
-51.3407
 21
28.5207
  0
LINE
  8
0
 10
-51.3407
 20
28.5207
 11
-52.6593
 21
28.5207
  0
LINE
  8
0
 10
-52.6593
 20
28.5207
 11
-53.9675
 21
28.686
  0
LINE
  8
0
 10
-53.9675
 20
28.686
 11
-55.2447
 21
29.0139
  0
LINE
  8
0
 10
-55.2447
 20
29.0139
 11
-56.4707
 21
29.4993
  0
LINE
  8
0
 10
-56.4707
 20
29.4993
 11
-57.3995
 21
30.0099
  0
LINE
  8
0
 10
-57.3995
 20
30.0099
 11
-57.5729
 21
29.7366
  0
LINE
  8
0
 10
-57.5729
 20
29.7366
 11
-57.8131
 21
29.4464
  0
LINE
  8
0
 10
-57.8131
 20
29.4464
 11
-58.0877
 21
29.1885
  0
LINE
  8
0
 10
-58.0877
 20
29.1885
 11
-58.3925
 21
28.967
  0
LINE
  8
0
 10
-58.3925
 20
28.967
 11
-58.7227
 21
28.7855
  0
LINE
  8
0
 10
-58.7227
 20
28.7855
 11
-59.0729
 21
28.6468
  0
LINE
  8
0
 10
-59.0729
 20
28.6468
 11
-59.4379
 21
28.5531
  0
LINE
  8
0
 10
-59.4379
 20
28.5531
 11
-59.8116
 21
28.5059
  0
LINE
  8
0
 10
-59.8116
 20
28.5059
 11
-60.1884
 21
28.5059
  0
LINE
  8
0
 10
25.3407
 20
28.5207
 11
24.0325
 21
28.686
  0
LINE
  8
0
 10
24.0325
 20
28.686
 11
22.7553
 21
29.0139
  0
LINE
  8
0
 10
22.7553
 20
29.0139
 11
21.5293
 21
29.4993
  0
LINE
  8
0
 10
21.5293
 20
29.4993
 11
20.3738
 21
30.1346
  0
LINE
  8
0
 10
20.3738
 20
30.1346
 11
19.307
 21
30.9096
  0
LINE
  8
0
 10
19.307
 20
30.9096
 11
18.3458
 21
31.8123
  0
LINE
  8
0
 10
18.3458
 20
31.8123
 11
17.5053
 21
32.8283
  0
LINE
  8
0
 10
17.5053
 20
32.8283
 11
16.7988
 21
33.9416
  0
LINE
  8
0
 10
16.7988
 20
33.9416
 11
16.2373
 21
35.1347
  0
LINE
  8
0
 10
16.2373
 20
35.1347
 11
15.8299
 21
36.3888
  0
LINE
  8
0
 10
15.8299
 20
36.3888
 11
15.5828
 21
37.684
  0
LINE
  8
0
 10
15.5828
 20
37.684
 11
15.5
 21
39
  0
LINE
  8
0
 10
15.5
 20
39
 11
15.5828
 21
40.316
  0
LINE
  8
0
 10
15.5828
 20
40.316
 11
15.8299
 21
41.6112
  0
LINE
  8
0
 10
15.8299
 20
41.6112
 11
16.2373
 21
42.8653
  0
LINE
  8
0
 10
16.2373
 20
42.8653
 11
16.7988
 21
44.0584
  0
LINE
  8
0
 10
16.7988
 20
44.0584
 11
17.5053
 21
45.1717
  0
LINE
  8
0
 10
17.5053
 20
45.1717
 11
18.3458
 21
46.1877
  0
LINE
  8
0
 10
18.3458
 20
46.1877
 11
19.307
 21
47.0904
  0
LINE
  8
0
 10
19.307
 20
47.0904
 11
20.3738
 21
47.8654
  0
LINE
  8
0
 10
20.3738
 20
47.8654
 11
21.5293
 21
48.5007
  0
LINE
  8
0
 10
21.5293
 20
48.5007
 11
22.7553
 21
48.9861
  0
LINE
  8
0
 10
22.7553
 20
48.9861
 11
24.0325
 21
49.314
  0
LINE
  8
0
 10
24.0325
 20
49.314
 11
25.3407
 21
49.4793
  0
LINE
  8
0
 10
25.3407
 20
49.4793
 11
26.6593
 21
49.4793
  0
LINE
  8
0
 10
26.6593
 20
49.4793
 11
27.9675
 21
49.314
  0
LINE
  8
0
 10
27.9675
 20
49.314
 11
29.2447
 21
48.9861
  0
LINE
  8
0
 10
29.2447
 20
48.9861
 11
30.4707
 21
48.5007
  0
LINE
  8
0
 10
30.4707
 20
48.5007
 11
31.6262
 21
47.8654
  0
LINE
  8
0
 10
31.6262
 20
47.8654
 11
32.6929
 21
47.0904
  0
LINE
  8
0
 10
32.6929
 20
47.0904
 11
33.6542
 21
46.1877
  0
LINE
  8
0
 10
33.6542
 20
46.1877
 11
34.4947
 21
45.1717
  0
LINE
  8
0
 10
34.4947
 20
45.1717
 11
35.2012
 21
44.0584
  0
LINE
  8
0
 10
35.2012
 20
44.0584
 11
35.7626
 21
42.8653
  0
LINE
  8
0
 10
35.7626
 20
42.8653
 11
36.1701
 21
41.6112
  0
LINE
  8
0
 10
36.1701
 20
41.6112
 11
36.4172
 21
40.316
  0
LINE
  8
0
 10
36.4172
 20
40.316
 11
36.5
 21
39
  0
LINE
  8
0
 10
36.5
 20
39
 11
36.4172
 21
37.684
  0
LINE
  8
0
 10
36.4172
 20
37.684
 11
36.1701
 21
36.3888
  0
LINE
  8
0
 10
36.1701
 20
36.3888
 11
35.7626
 21
35.1347
  0
LINE
  8
0
 10
35.7626
 20
35.1347
 11
35.2012
 21
33.9416
  0
LINE
  8
0
 10
35.2012
 20
33.9416
 11
34.4947
 21
32.8283
  0
LINE
  8
0
 10
34.4947
 20
32.8283
 11
33.6542
 21
31.8123
  0
LINE
  8
0
 10
33.6542
 20
31.8123
 11
32.6929
 21
30.9096
  0
LINE
  8
0
 10
32.6929
 20
30.9096
 11
31.6262
 21
30.1346
  0
LINE
  8
0
 10
31.6262
 20
30.1346
 11
30.4707
 21
29.4993
  0
LINE
  8
0
 10
30.4707
 20
29.4993
 11
29.2447
 21
29.0139
  0
LINE
  8
0
 10
29.2447
 20
29.0139
 11
27.9675
 21
28.686
  0
LINE
  8
0
 10
27.9675
 20
28.686
 11
26.6593
 21
28.5207
  0
LINE
  8
0
 10
26.6593
 20
28.5207
 11
25.3407
 21
28.5207
  0
LINE
  8
0
 10
-0.659286
 20
28.5207
 11
-1.9675
 21
28.686
  0
LINE
  8
0
 10
-1.9675
 20
28.686
 11
-3.24467
 21
29.0139
  0
LINE
  8
0
 10
-3.24467
 20
29.0139
 11
-4.47067
 21
29.4993
  0
LINE
  8
0
 10
-4.47067
 20
29.4993
 11
-5.62617
 21
30.1346
  0
LINE
  8
0
 10
-5.62617
 20
30.1346
 11
-6.69295
 21
30.9096
  0
LINE
  8
0
 10
-6.69295
 20
30.9096
 11
-7.65416
 21
31.8123
  0
LINE
  8
0
 10
-7.65416
 20
31.8123
 11
-8.49467
 21
32.8283
  0
LINE
  8
0
 10
-8.49467
 20
32.8283
 11
-9.20122
 21
33.9416
  0
LINE
  8
0
 10
-9.20122
 20
33.9416
 11
-9.76265
 21
35.1347
  0
LINE
  8
0
 10
-9.76265
 20
35.1347
 11
-10.1701
 21
36.3888
  0
LINE
  8
0
 10
-10.1701
 20
36.3888
 11
-10.4172
 21
37.684
  0
LINE
  8
0
 10
-10.4172
 20
37.684
 11
-10.5
 21
39
  0
LINE
  8
0
 10
-10.5
 20
39
 11
-10.4172
 21
40.316
  0
LINE
  8
0
 10
-10.4172
 20
40.316
 11
-10.1701
 21
41.6112
  0
LINE
  8
0
 10
-10.1701
 20
41.6112
 11
-9.76265
 21
42.8653
  0
LINE
  8
0
 10
-9.76265
 20
42.8653
 11
-9.20122
 21
44.0584
  0
LINE
  8
0
 10
-9.20122
 20
44.0584
 11
-8.49467
 21
45.1717
  0
LINE
  8
0
 10
-8.49467
 20
45.1717
 11
-7.65416
 21
46.1877
  0
LINE
  8
0
 10
-7.65416
 20
46.1877
 11
-6.69295
 21
47.0904
  0
LINE
  8
0
 10
-6.69295
 20
47.0904
 11
-5.62617
 21
47.8654
  0
LINE
  8
0
 10
-5.62617
 20
47.8654
 11
-4.47067
 21
48.5007
  0
LINE
  8
0
 10
-4.47067
 20
48.5007
 11
-3.24467
 21
48.9861
  0
LINE
  8
0
 10
-3.24467
 20
48.9861
 11
-1.9675
 21
49.314
  0
LINE
  8
0
 10
-1.9675
 20
49.314
 11
-0.659286
 21
49.4793
  0
LINE
  8
0
 10
-0.659286
 20
49.4793
 11
0.659286
 21
49.4793
  0
LINE
  8
0
 10
0.659286
 20
49.4793
 11
1.9675
 21
49.314
  0
LINE
  8
0
 10
1.9675
 20
49.314
 11
3.24467
 21
48.9861
  0
LINE
  8
0
 10
3.24467
 20
48.9861
 11
4.47067
 21
48.5007
  0
LINE
  8
0
 10
4.47067
 20
48.5007
 11
5.62617
 21
47.8654
  0
LINE
  8
0
 10
5.62617
 20
47.8654
 11
6.69295
 21
47.0904
  0
LINE
  8
0
 10
6.69295
 20
47.0904
 11
7.65416
 21
46.1877
  0
LINE
  8
0
 10
7.65416
 20
46.1877
 11
8.49467
 21
45.1717
  0
LINE
  8
0
 10
8.49467
 20
45.1717
 11
9.20122
 21
44.0584
  0
LINE
  8
0
 10
9.20122
 20
44.0584
 11
9.76265
 21
42.8653
  0
LINE
  8
0
 10
9.76265
 20
42.8653
 11
10.1701
 21
41.6112
  0
LINE
  8
0
 10
10.1701
 20
41.6112
 11
10.4172
 21
40.316
  0
LINE
  8
0
 10
10.4172
 20
40.316
 11
10.5
 21
39
  0
LINE
  8
0
 10
10.5
 20
39
 11
10.4172
 21
37.684
  0
LINE
  8
0
 10
10.4172
 20
37.684
 11
10.1701
 21
36.3888
  0
LINE
  8
0
 10
10.1701
 20
36.3888
 11
9.76265
 21
35.1347
  0
LINE
  8
0
 10
9.76265
 20
35.1347
 11
9.20122
 21
33.9416
  0
LINE
  8
0
 10
9.20122
 20
33.9416
 11
8.49467
 21
32.8283
  0
LINE
  8
0
 10
8.49467
 20
32.8283
 11
7.65416
 21
31.8123
  0
LINE
  8
0
 10
7.65416
 20
31.8123
 11
6.69295
 21
30.9096
  0
LINE
  8
0
 10
6.69295
 20
30.9096
 11
5.62617
 21
30.1346
  0
LINE
  8
0
 10
5.62617
 20
30.1346
 11
4.47067
 21
29.4993
  0
LINE
  8
0
 10
4.47067
 20
29.4993
 11
3.24467
 21
29.0139
  0
LINE
  8
0
 10
3.24467
 20
29.0139
 11
1.9675
 21
28.686
  0
LINE
  8
0
 10
1.9675
 20
28.686
 11
0.659286
 21
28.5207
  0
LINE
  8
0
 10
0.659286
 20
28.5207
 11
-0.659286
 21
28.5207
  0
LINE
  8
0
 10
-26.6593
 20
28.5207
 11
-27.9675
 21
28.686
  0
LINE
  8
0
 10
-27.9675
 20
28.686
 11
-29.2447
 21
29.0139
  0
LINE
  8
0
 10
-29.2447
 20
29.0139
 11
-30.4707
 21
29.4993
  0
LINE
  8
0
 10
-30.4707
 20
29.4993
 11
-31.6262
 21
30.1346
  0
LINE
  8
0
 10
-31.6262
 20
30.1346
 11
-32.6929
 21
30.9096
  0
LINE
  8
0
 10
-32.6929
 20
30.9096
 11
-33.6542
 21
31.8123
  0
LINE
  8
0
 10
-33.6542
 20
31.8123
 11
-34.4947
 21
32.8283
  0
LINE
  8
0
 10
-34.4947
 20
32.8283
 11
-35.2012
 21
33.9416
  0
LINE
  8
0
 10
-35.2012
 20
33.9416
 11
-35.7626
 21
35.1347
  0
LINE
  8
0
 10
-35.7626
 20
35.1347
 11
-36.1701
 21
36.3888
  0
LINE
  8
0
 10
-36.1701
 20
36.3888
 11
-36.4172
 21
37.684
  0
LINE
  8
0
 10
-36.4172
 20
37.684
 11
-36.5
 21
39
  0
LINE
  8
0
 10
-36.5
 20
39
 11
-36.4172
 21
40.316
  0
LINE
  8
0
 10
-36.4172
 20
40.316
 11
-36.1701
 21
41.6112
  0
LINE
  8
0
 10
-36.1701
 20
41.6112
 11
-35.7626
 21
42.8653
  0
LINE
  8
0
 10
-35.7626
 20
42.8653
 11
-35.2012
 21
44.0584
  0
LINE
  8
0
 10
-35.2012
 20
44.0584
 11
-34.4947
 21
45.1717
  0
LINE
  8
0
 10
-34.4947
 20
45.1717
 11
-33.6542
 21
46.1877
  0
LINE
  8
0
 10
-33.6542
 20
46.1877
 11
-32.6929
 21
47.0904
  0
LINE
  8
0
 10
-32.6929
 20
47.0904
 11
-31.6262
 21
47.8654
  0
LINE
  8
0
 10
-31.6262
 20
47.8654
 11
-30.4707
 21
48.5007
  0
LINE
  8
0
 10
-30.4707
 20
48.5007
 11
-29.2447
 21
48.9861
  0
LINE
  8
0
 10
-29.2447
 20
48.9861
 11
-27.9675
 21
49.314
  0
LINE
  8
0
 10
-27.9675
 20
49.314
 11
-26.6593
 21
49.4793
  0
LINE
  8
0
 10
-26.6593
 20
49.4793
 11
-25.3407
 21
49.4793
  0
LINE
  8
0
 10
-25.3407
 20
49.4793
 11
-24.0325
 21
49.314
  0
LINE
  8
0
 10
-24.0325
 20
49.314
 11
-22.7553
 21
48.9861
  0
LINE
  8
0
 10
-22.7553
 20
48.9861
 11
-21.5293
 21
48.5007
  0
LINE
  8
0
 10
-21.5293
 20
48.5007
 11
-20.3738
 21
47.8654
  0
LINE
  8
0
 10
-20.3738
 20
47.8654
 11
-19.307
 21
47.0904
  0
LINE
  8
0
 10
-19.307
 20
47.0904
 11
-18.3458
 21
46.1877
  0
LINE
  8
0
 10
-18.3458
 20
46.1877
 11
-17.5053
 21
45.1717
  0
LINE
  8
0
 10
-17.5053
 20
45.1717
 11
-16.7988
 21
44.0584
  0
LINE
  8
0
 10
-16.7988
 20
44.0584
 11
-16.2373
 21
42.8653
  0
LINE
  8
0
 10
-16.2373
 20
42.8653
 11
-15.8299
 21
41.6112
  0
LINE
  8
0
 10
-15.8299
 20
41.6112
 11
-15.5828
 21
40.316
  0
LINE
  8
0
 10
-15.5828
 20
40.316
 11
-15.5
 21
39
  0
LINE
  8
0
 10
-15.5
 20
39
 11
-15.5828
 21
37.684
  0
LINE
  8
0
 10
-15.5828
 20
37.684
 11
-15.8299
 21
36.3888
  0
LINE
  8
0
 10
-15.8299
 20
36.3888
 11
-16.2373
 21
35.1347
  0
LINE
  8
0
 10
-16.2373
 20
35.1347
 11
-16.7988
 21
33.9416
  0
LINE
  8
0
 10
-16.7988
 20
33.9416
 11
-17.5053
 21
32.8283
  0
LINE
  8
0
 10
-17.5053
 20
32.8283
 11
-18.3458
 21
31.8123
  0
LINE
  8
0
 10
-18.3458
 20
31.8123
 11
-19.307
 21
30.9096
  0
LINE
  8
0
 10
-19.307
 20
30.9096
 11
-20.3738
 21
30.1346
  0
LINE
  8
0
 10
-20.3738
 20
30.1346
 11
-21.5293
 21
29.4993
  0
LINE
  8
0
 10
-21.5293
 20
29.4993
 11
-22.7553
 21
29.0139
  0
LINE
  8
0
 10
-22.7553
 20
29.0139
 11
-24.0325
 21
28.686
  0
LINE
  8
0
 10
-24.0325
 20
28.686
 11
-25.3407
 21
28.5207
  0
LINE
  8
0
 10
-25.3407
 20
28.5207
 11
-26.6593
 21
28.5207
  0
ENDSEC
  0
SECTION
  2
OBJECTS
  0
DICTIONARY
  0
ENDSEC
  0
EOF
