  0
SECTION
  2
BLOCKS
  0
ENDSEC
  0
SECTION
  2
ENTITIES
  0
LINE
  8
0
 10
62.9369
 20
-66.9114
 11
63.5451
 21
-66.7553
  0
LINE
  8
0
 10
63.5451
 20
-66.7553
 11
64.1289
 21
-66.5241
  0
LINE
  8
0
 10
64.1289
 20
-66.5241
 11
64.6791
 21
-66.2216
  0
LINE
  8
0
 10
64.6791
 20
-66.2216
 11
65.1871
 21
-65.8526
  0
LINE
  8
0
 10
65.1871
 20
-65.8526
 11
65.6448
 21
-65.4227
  0
LINE
  8
0
 10
65.6448
 20
-65.4227
 11
66.0451
 21
-64.9389
  0
LINE
  8
0
 10
66.0451
 20
-64.9389
 11
66.3815
 21
-64.4088
  0
LINE
  8
0
 10
66.3815
 20
-64.4088
 11
66.6489
 21
-63.8406
  0
LINE
  8
0
 10
66.6489
 20
-63.8406
 11
66.8429
 21
-63.2434
  0
LINE
  8
0
 10
66.8429
 20
-63.2434
 11
66.9606
 21
-62.6267
  0
LINE
  8
0
 10
66.9606
 20
-62.6267
 11
67
 21
-62
  0
LINE
  8
0
 10
67
 20
-62
 11
67
 21
62
  0
LINE
  8
0
 10
67
 20
62
 11
66.9606
 21
62.6267
  0
LINE
  8
0
 10
66.9606
 20
62.6267
 11
66.8429
 21
63.2434
  0
LINE
  8
0
 10
66.8429
 20
63.2434
 11
66.6489
 21
63.8406
  0
LINE
  8
0
 10
66.6489
 20
63.8406
 11
66.3815
 21
64.4088
  0
LINE
  8
0
 10
66.3815
 20
64.4088
 11
66.0451
 21
64.9389
  0
LINE
  8
0
 10
66.0451
 20
64.9389
 11
65.6448
 21
65.4227
  0
LINE
  8
0
 10
65.6448
 20
65.4227
 11
65.1871
 21
65.8526
  0
LINE
  8
0
 10
65.1871
 20
65.8526
 11
64.6791
 21
66.2216
  0
LINE
  8
0
 10
64.6791
 20
66.2216
 11
64.1289
 21
66.5241
  0
LINE
  8
0
 10
64.1289
 20
66.5241
 11
63.5451
 21
66.7553
  0
LINE
  8
0
 10
63.5451
 20
66.7553
 11
62.9369
 21
66.9114
  0
LINE
  8
0
 10
62.9369
 20
66.9114
 11
62.3139
 21
66.9901
  0
LINE
  8
0
 10
62.3139
 20
66.9901
 11
-62.3139
 21
66.9901
  0
LINE
  8
0
 10
-62.3139
 20
66.9901
 11
-62.9369
 21
66.9114
  0
LINE
  8
0
 10
-62.9369
 20
66.9114
 11
-63.5451
 21
66.7553
  0
LINE
  8
0
 10
-63.5451
 20
66.7553
 11
-64.1289
 21
66.5241
  0
LINE
  8
0
 10
-64.1289
 20
66.5241
 11
-64.6791
 21
66.2216
  0
LINE
  8
0
 10
-64.6791
 20
66.2216
 11
-65.1871
 21
65.8526
  0
LINE
  8
0
 10
-65.1871
 20
65.8526
 11
-65.6448
 21
65.4227
  0
LINE
  8
0
 10
-65.6448
 20
65.4227
 11
-66.0451
 21
64.9389
  0
LINE
  8
0
 10
-66.0451
 20
64.9389
 11
-66.3815
 21
64.4088
  0
LINE
  8
0
 10
-66.3815
 20
64.4088
 11
-66.6489
 21
63.8406
  0
LINE
  8
0
 10
-66.6489
 20
63.8406
 11
-66.8429
 21
63.2434
  0
LINE
  8
0
 10
-66.8429
 20
63.2434
 11
-66.9606
 21
62.6267
  0
LINE
  8
0
 10
-66.9606
 20
62.6267
 11
-67
 21
62
  0
LINE
  8
0
 10
-67
 20
62
 11
-67
 21
-62
  0
LINE
  8
0
 10
-67
 20
-62
 11
-66.9606
 21
-62.6267
  0
LINE
  8
0
 10
-66.9606
 20
-62.6267
 11
-66.8429
 21
-63.2434
  0
LINE
  8
0
 10
-66.8429
 20
-63.2434
 11
-66.6489
 21
-63.8406
  0
LINE
  8
0
 10
-66.6489
 20
-63.8406
 11
-66.3815
 21
-64.4088
  0
LINE
  8
0
 10
-66.3815
 20
-64.4088
 11
-66.0451
 21
-64.9389
  0
LINE
  8
0
 10
-66.0451
 20
-64.9389
 11
-65.6448
 21
-65.4227
  0
LINE
  8
0
 10
-65.6448
 20
-65.4227
 11
-65.1871
 21
-65.8526
  0
LINE
  8
0
 10
-65.1871
 20
-65.8526
 11
-64.6791
 21
-66.2216
  0
LINE
  8
0
 10
-64.6791
 20
-66.2216
 11
-64.1289
 21
-66.5241
  0
LINE
  8
0
 10
-64.1289
 20
-66.5241
 11
-63.5451
 21
-66.7553
  0
LINE
  8
0
 10
-63.5451
 20
-66.7553
 11
-62.9369
 21
-66.9114
  0
LINE
  8
0
 10
-62.9369
 20
-66.9114
 11
-62.3139
 21
-66.9901
  0
LINE
  8
0
 10
-62.3139
 20
-66.9901
 11
62.3139
 21
-66.9901
  0
LINE
  8
0
 10
62.3139
 20
-66.9901
 11
62.9369
 21
-66.9114
  0
LINE
  8
0
 10
59.8116
 20
57.0059
 11
59.4379
 21
57.0531
  0
LINE
  8
0
 10
59.4379
 20
57.0531
 11
59.0729
 21
57.1468
  0
LINE
  8
0
 10
59.0729
 20
57.1468
 11
58.7227
 21
57.2855
  0
LINE
  8
0
 10
58.7227
 20
57.2855
 11
58.3925
 21
57.467
  0
LINE
  8
0
 10
58.3925
 20
57.467
 11
58.0877
 21
57.6885
  0
LINE
  8
0
 10
58.0877
 20
57.6885
 11
57.8131
 21
57.9464
  0
LINE
  8
0
 10
57.8131
 20
57.9464
 11
57.5729
 21
58.2366
  0
LINE
  8
0
 10
57.5729
 20
58.2366
 11
57.3711
 21
58.5547
  0
LINE
  8
0
 10
57.3711
 20
58.5547
 11
57.2107
 21
58.8956
  0
LINE
  8
0
 10
57.2107
 20
58.8956
 11
57.0942
 21
59.2539
  0
LINE
  8
0
 10
57.0942
 20
59.2539
 11
57.0237
 21
59.624
  0
LINE
  8
0
 10
57.0237
 20
59.624
 11
57
 21
60
  0
LINE
  8
0
 10
57
 20
60
 11
57.0237
 21
60.376
  0
LINE
  8
0
 10
57.0237
 20
60.376
 11
57.0942
 21
60.7461
  0
LINE
  8
0
 10
57.0942
 20
60.7461
 11
57.2107
 21
61.1044
  0
LINE
  8
0
 10
57.2107
 20
61.1044
 11
57.3711
 21
61.4453
  0
LINE
  8
0
 10
57.3711
 20
61.4453
 11
57.5729
 21
61.7634
  0
LINE
  8
0
 10
57.5729
 20
61.7634
 11
57.8131
 21
62.0536
  0
LINE
  8
0
 10
57.8131
 20
62.0536
 11
58.0877
 21
62.3115
  0
LINE
  8
0
 10
58.0877
 20
62.3115
 11
58.3925
 21
62.533
  0
LINE
  8
0
 10
58.3925
 20
62.533
 11
58.7227
 21
62.7145
  0
LINE
  8
0
 10
58.7227
 20
62.7145
 11
59.0729
 21
62.8532
  0
LINE
  8
0
 10
59.0729
 20
62.8532
 11
59.4379
 21
62.9469
  0
LINE
  8
0
 10
59.4379
 20
62.9469
 11
59.8116
 21
62.9941
  0
LINE
  8
0
 10
59.8116
 20
62.9941
 11
60.1884
 21
62.9941
  0
LINE
  8
0
 10
60.1884
 20
62.9941
 11
60.5621
 21
62.9469
  0
LINE
  8
0
 10
60.5621
 20
62.9469
 11
60.927
 21
62.8532
  0
LINE
  8
0
 10
60.927
 20
62.8532
 11
61.2773
 21
62.7145
  0
LINE
  8
0
 10
61.2773
 20
62.7145
 11
61.6075
 21
62.533
  0
LINE
  8
0
 10
61.6075
 20
62.533
 11
61.9123
 21
62.3115
  0
LINE
  8
0
 10
61.9123
 20
62.3115
 11
62.1869
 21
62.0536
  0
LINE
  8
0
 10
62.1869
 20
62.0536
 11
62.427
 21
61.7634
  0
LINE
  8
0
 10
62.427
 20
61.7634
 11
62.6289
 21
61.4453
  0
LINE
  8
0
 10
62.6289
 20
61.4453
 11
62.7893
 21
61.1044
  0
LINE
  8
0
 10
62.7893
 20
61.1044
 11
62.9057
 21
60.7461
  0
LINE
  8
0
 10
62.9057
 20
60.7461
 11
62.9763
 21
60.376
  0
LINE
  8
0
 10
62.9763
 20
60.376
 11
63
 21
60
  0
LINE
  8
0
 10
63
 20
60
 11
62.9763
 21
59.624
  0
LINE
  8
0
 10
62.9763
 20
59.624
 11
62.9057
 21
59.2539
  0
LINE
  8
0
 10
62.9057
 20
59.2539
 11
62.7893
 21
58.8956
  0
LINE
  8
0
 10
62.7893
 20
58.8956
 11
62.6289
 21
58.5547
  0
LINE
  8
0
 10
62.6289
 20
58.5547
 11
62.427
 21
58.2366
  0
LINE
  8
0
 10
62.427
 20
58.2366
 11
62.1869
 21
57.9464
  0
LINE
  8
0
 10
62.1869
 20
57.9464
 11
61.9123
 21
57.6885
  0
LINE
  8
0
 10
61.9123
 20
57.6885
 11
61.6075
 21
57.467
  0
LINE
  8
0
 10
61.6075
 20
57.467
 11
61.2773
 21
57.2855
  0
LINE
  8
0
 10
61.2773
 20
57.2855
 11
60.927
 21
57.1468
  0
LINE
  8
0
 10
60.927
 20
57.1468
 11
60.5621
 21
57.0531
  0
LINE
  8
0
 10
60.5621
 20
57.0531
 11
60.1884
 21
57.0059
  0
LINE
  8
0
 10
60.1884
 20
57.0059
 11
59.8116
 21
57.0059
  0
LINE
  8
0
 10
-60.1884
 20
57.0059
 11
-60.5621
 21
57.0531
  0
LINE
  8
0
 10
-60.5621
 20
57.0531
 11
-60.927
 21
57.1468
  0
LINE
  8
0
 10
-60.927
 20
57.1468
 11
-61.2773
 21
57.2855
  0
LINE
  8
0
 10
-61.2773
 20
57.2855
 11
-61.6075
 21
57.467
  0
LINE
  8
0
 10
-61.6075
 20
57.467
 11
-61.9123
 21
57.6885
  0
LINE
  8
0
 10
-61.9123
 20
57.6885
 11
-62.1869
 21
57.9464
  0
LINE
  8
0
 10
-62.1869
 20
57.9464
 11
-62.427
 21
58.2366
  0
LINE
  8
0
 10
-62.427
 20
58.2366
 11
-62.6289
 21
58.5547
  0
LINE
  8
0
 10
-62.6289
 20
58.5547
 11
-62.7893
 21
58.8956
  0
LINE
  8
0
 10
-62.7893
 20
58.8956
 11
-62.9057
 21
59.2539
  0
LINE
  8
0
 10
-62.9057
 20
59.2539
 11
-62.9763
 21
59.624
  0
LINE
  8
0
 10
-62.9763
 20
59.624
 11
-63
 21
60
  0
LINE
  8
0
 10
-63
 20
60
 11
-62.9763
 21
60.376
  0
LINE
  8
0
 10
-62.9763
 20
60.376
 11
-62.9057
 21
60.7461
  0
LINE
  8
0
 10
-62.9057
 20
60.7461
 11
-62.7893
 21
61.1044
  0
LINE
  8
0
 10
-62.7893
 20
61.1044
 11
-62.6289
 21
61.4453
  0
LINE
  8
0
 10
-62.6289
 20
61.4453
 11
-62.427
 21
61.7634
  0
LINE
  8
0
 10
-62.427
 20
61.7634
 11
-62.1869
 21
62.0536
  0
LINE
  8
0
 10
-62.1869
 20
62.0536
 11
-61.9123
 21
62.3115
  0
LINE
  8
0
 10
-61.9123
 20
62.3115
 11
-61.6075
 21
62.533
  0
LINE
  8
0
 10
-61.6075
 20
62.533
 11
-61.2773
 21
62.7145
  0
LINE
  8
0
 10
-61.2773
 20
62.7145
 11
-60.927
 21
62.8532
  0
LINE
  8
0
 10
-60.927
 20
62.8532
 11
-60.5621
 21
62.9469
  0
LINE
  8
0
 10
-60.5621
 20
62.9469
 11
-60.1884
 21
62.9941
  0
LINE
  8
0
 10
-60.1884
 20
62.9941
 11
-59.8116
 21
62.9941
  0
LINE
  8
0
 10
-59.8116
 20
62.9941
 11
-59.4379
 21
62.9469
  0
LINE
  8
0
 10
-59.4379
 20
62.9469
 11
-59.0729
 21
62.8532
  0
LINE
  8
0
 10
-59.0729
 20
62.8532
 11
-58.7227
 21
62.7145
  0
LINE
  8
0
 10
-58.7227
 20
62.7145
 11
-58.3925
 21
62.533
  0
LINE
  8
0
 10
-58.3925
 20
62.533
 11
-58.0877
 21
62.3115
  0
LINE
  8
0
 10
-58.0877
 20
62.3115
 11
-57.8131
 21
62.0536
  0
LINE
  8
0
 10
-57.8131
 20
62.0536
 11
-57.5729
 21
61.7634
  0
LINE
  8
0
 10
-57.5729
 20
61.7634
 11
-57.3711
 21
61.4453
  0
LINE
  8
0
 10
-57.3711
 20
61.4453
 11
-57.2107
 21
61.1044
  0
LINE
  8
0
 10
-57.2107
 20
61.1044
 11
-57.0942
 21
60.7461
  0
LINE
  8
0
 10
-57.0942
 20
60.7461
 11
-57.0237
 21
60.376
  0
LINE
  8
0
 10
-57.0237
 20
60.376
 11
-57
 21
60
  0
LINE
  8
0
 10
-57
 20
60
 11
-57.0237
 21
59.624
  0
LINE
  8
0
 10
-57.0237
 20
59.624
 11
-57.0942
 21
59.2539
  0
LINE
  8
0
 10
-57.0942
 20
59.2539
 11
-57.2107
 21
58.8956
  0
LINE
  8
0
 10
-57.2107
 20
58.8956
 11
-57.3711
 21
58.5547
  0
LINE
  8
0
 10
-57.3711
 20
58.5547
 11
-57.5729
 21
58.2366
  0
LINE
  8
0
 10
-57.5729
 20
58.2366
 11
-57.8131
 21
57.9464
  0
LINE
  8
0
 10
-57.8131
 20
57.9464
 11
-58.0877
 21
57.6885
  0
LINE
  8
0
 10
-58.0877
 20
57.6885
 11
-58.3925
 21
57.467
  0
LINE
  8
0
 10
-58.3925
 20
57.467
 11
-58.7227
 21
57.2855
  0
LINE
  8
0
 10
-58.7227
 20
57.2855
 11
-59.0729
 21
57.1468
  0
LINE
  8
0
 10
-59.0729
 20
57.1468
 11
-59.4379
 21
57.0531
  0
LINE
  8
0
 10
-59.4379
 20
57.0531
 11
-59.8116
 21
57.0059
  0
LINE
  8
0
 10
-59.8116
 20
57.0059
 11
-60.1884
 21
57.0059
  0
LINE
  8
0
 10
-3.92439
 20
-62.3767
 11
-11.7113
 21
-61.3929
  0
LINE
  8
0
 10
-11.7113
 20
-61.3929
 11
-19.3136
 21
-59.441
  0
LINE
  8
0
 10
-19.3136
 20
-59.441
 11
-26.6112
 21
-56.5517
  0
LINE
  8
0
 10
-26.6112
 20
-56.5517
 11
-33.4892
 21
-52.7705
  0
LINE
  8
0
 10
-33.4892
 20
-52.7705
 11
-39.839
 21
-48.1571
  0
LINE
  8
0
 10
-39.839
 20
-48.1571
 11
-45.5605
 21
-42.7842
  0
LINE
  8
0
 10
-45.5605
 20
-42.7842
 11
-50.5636
 21
-36.7366
  0
LINE
  8
0
 10
-50.5636
 20
-36.7366
 11
-54.7692
 21
-30.1096
  0
LINE
  8
0
 10
-54.7692
 20
-30.1096
 11
-58.111
 21
-23.0078
  0
LINE
  8
0
 10
-58.111
 20
-23.0078
 11
-60.5364
 21
-15.5431
  0
LINE
  8
0
 10
-60.5364
 20
-15.5431
 11
-62.0072
 21
-7.83331
  0
LINE
  8
0
 10
-62.0072
 20
-7.83331
 11
-62.5
 21
0
  0
LINE
  8
0
 10
-62.5
 20
0
 11
-62.0072
 21
7.83331
  0
LINE
  8
0
 10
-62.0072
 20
7.83331
 11
-60.5364
 21
15.5431
  0
LINE
  8
0
 10
-60.5364
 20
15.5431
 11
-58.111
 21
23.0078
  0
LINE
  8
0
 10
-58.111
 20
23.0078
 11
-54.7692
 21
30.1096
  0
LINE
  8
0
 10
-54.7692
 20
30.1096
 11
-50.5636
 21
36.7366
  0
LINE
  8
0
 10
-50.5636
 20
36.7366
 11
-45.5605
 21
42.7842
  0
LINE
  8
0
 10
-45.5605
 20
42.7842
 11
-39.839
 21
48.1571
  0
LINE
  8
0
 10
-39.839
 20
48.1571
 11
-33.4892
 21
52.7705
  0
LINE
  8
0
 10
-33.4892
 20
52.7705
 11
-26.6112
 21
56.5517
  0
LINE
  8
0
 10
-26.6112
 20
56.5517
 11
-19.3136
 21
59.441
  0
LINE
  8
0
 10
-19.3136
 20
59.441
 11
-11.7113
 21
61.3929
  0
LINE
  8
0
 10
-11.7113
 20
61.3929
 11
-3.92439
 21
62.3767
  0
LINE
  8
0
 10
-3.92439
 20
62.3767
 11
3.92439
 21
62.3767
  0
LINE
  8
0
 10
3.92439
 20
62.3767
 11
11.7113
 21
61.3929
  0
LINE
  8
0
 10
11.7113
 20
61.3929
 11
19.3136
 21
59.441
  0
LINE
  8
0
 10
19.3136
 20
59.441
 11
26.6112
 21
56.5517
  0
LINE
  8
0
 10
26.6112
 20
56.5517
 11
33.4892
 21
52.7705
  0
LINE
  8
0
 10
33.4892
 20
52.7705
 11
39.839
 21
48.1571
  0
LINE
  8
0
 10
39.839
 20
48.1571
 11
45.5605
 21
42.7842
  0
LINE
  8
0
 10
45.5605
 20
42.7842
 11
50.5636
 21
36.7366
  0
LINE
  8
0
 10
50.5636
 20
36.7366
 11
54.7692
 21
30.1096
  0
LINE
  8
0
 10
54.7692
 20
30.1096
 11
58.111
 21
23.0078
  0
LINE
  8
0
 10
58.111
 20
23.0078
 11
60.5364
 21
15.5431
  0
LINE
  8
0
 10
60.5364
 20
15.5431
 11
62.0072
 21
7.83331
  0
LINE
  8
0
 10
62.0072
 20
7.83331
 11
62.5
 21
0
  0
LINE
  8
0
 10
62.5
 20
0
 11
62.0072
 21
-7.83331
  0
LINE
  8
0
 10
62.0072
 20
-7.83331
 11
60.5364
 21
-15.5431
  0
LINE
  8
0
 10
60.5364
 20
-15.5431
 11
58.111
 21
-23.0078
  0
LINE
  8
0
 10
58.111
 20
-23.0078
 11
54.7692
 21
-30.1096
  0
LINE
  8
0
 10
54.7692
 20
-30.1096
 11
50.5636
 21
-36.7366
  0
LINE
  8
0
 10
50.5636
 20
-36.7366
 11
45.5605
 21
-42.7842
  0
LINE
  8
0
 10
45.5605
 20
-42.7842
 11
39.839
 21
-48.1571
  0
LINE
  8
0
 10
39.839
 20
-48.1571
 11
33.4892
 21
-52.7705
  0
LINE
  8
0
 10
33.4892
 20
-52.7705
 11
26.6112
 21
-56.5517
  0
LINE
  8
0
 10
26.6112
 20
-56.5517
 11
19.3136
 21
-59.441
  0
LINE
  8
0
 10
19.3136
 20
-59.441
 11
11.7113
 21
-61.3929
  0
LINE
  8
0
 10
11.7113
 20
-61.3929
 11
3.92439
 21
-62.3767
  0
LINE
  8
0
 10
3.92439
 20
-62.3767
 11
-3.92439
 21
-62.3767
  0
LINE
  8
0
 10
59.8116
 20
-62.9941
 11
59.4379
 21
-62.9469
  0
LINE
  8
0
 10
59.4379
 20
-62.9469
 11
59.0729
 21
-62.8532
  0
LINE
  8
0
 10
59.0729
 20
-62.8532
 11
58.7227
 21
-62.7145
  0
LINE
  8
0
 10
58.7227
 20
-62.7145
 11
58.3925
 21
-62.533
  0
LINE
  8
0
 10
58.3925
 20
-62.533
 11
58.0877
 21
-62.3115
  0
LINE
  8
0
 10
58.0877
 20
-62.3115
 11
57.8131
 21
-62.0536
  0
LINE
  8
0
 10
57.8131
 20
-62.0536
 11
57.5729
 21
-61.7634
  0
LINE
  8
0
 10
57.5729
 20
-61.7634
 11
57.3711
 21
-61.4453
  0
LINE
  8
0
 10
57.3711
 20
-61.4453
 11
57.2107
 21
-61.1044
  0
LINE
  8
0
 10
57.2107
 20
-61.1044
 11
57.0942
 21
-60.7461
  0
LINE
  8
0
 10
57.0942
 20
-60.7461
 11
57.0237
 21
-60.376
  0
LINE
  8
0
 10
57.0237
 20
-60.376
 11
57
 21
-60
  0
LINE
  8
0
 10
57
 20
-60
 11
57.0237
 21
-59.624
  0
LINE
  8
0
 10
57.0237
 20
-59.624
 11
57.0942
 21
-59.2539
  0
LINE
  8
0
 10
57.0942
 20
-59.2539
 11
57.2107
 21
-58.8956
  0
LINE
  8
0
 10
57.2107
 20
-58.8956
 11
57.3711
 21
-58.5547
  0
LINE
  8
0
 10
57.3711
 20
-58.5547
 11
57.5729
 21
-58.2366
  0
LINE
  8
0
 10
57.5729
 20
-58.2366
 11
57.8131
 21
-57.9464
  0
LINE
  8
0
 10
57.8131
 20
-57.9464
 11
58.0877
 21
-57.6885
  0
LINE
  8
0
 10
58.0877
 20
-57.6885
 11
58.3925
 21
-57.467
  0
LINE
  8
0
 10
58.3925
 20
-57.467
 11
58.7227
 21
-57.2855
  0
LINE
  8
0
 10
58.7227
 20
-57.2855
 11
59.0729
 21
-57.1468
  0
LINE
  8
0
 10
59.0729
 20
-57.1468
 11
59.4379
 21
-57.0531
  0
LINE
  8
0
 10
59.4379
 20
-57.0531
 11
59.8116
 21
-57.0059
  0
LINE
  8
0
 10
59.8116
 20
-57.0059
 11
60.1884
 21
-57.0059
  0
LINE
  8
0
 10
60.1884
 20
-57.0059
 11
60.5621
 21
-57.0531
  0
LINE
  8
0
 10
60.5621
 20
-57.0531
 11
60.927
 21
-57.1468
  0
LINE
  8
0
 10
60.927
 20
-57.1468
 11
61.2773
 21
-57.2855
  0
LINE
  8
0
 10
61.2773
 20
-57.2855
 11
61.6075
 21
-57.467
  0
LINE
  8
0
 10
61.6075
 20
-57.467
 11
61.9123
 21
-57.6885
  0
LINE
  8
0
 10
61.9123
 20
-57.6885
 11
62.1869
 21
-57.9464
  0
LINE
  8
0
 10
62.1869
 20
-57.9464
 11
62.427
 21
-58.2366
  0
LINE
  8
0
 10
62.427
 20
-58.2366
 11
62.6289
 21
-58.5547
  0
LINE
  8
0
 10
62.6289
 20
-58.5547
 11
62.7893
 21
-58.8956
  0
LINE
  8
0
 10
62.7893
 20
-58.8956
 11
62.9057
 21
-59.2539
  0
LINE
  8
0
 10
62.9057
 20
-59.2539
 11
62.9763
 21
-59.624
  0
LINE
  8
0
 10
62.9763
 20
-59.624
 11
63
 21
-60
  0
LINE
  8
0
 10
63
 20
-60
 11
62.9763
 21
-60.376
  0
LINE
  8
0
 10
62.9763
 20
-60.376
 11
62.9057
 21
-60.7461
  0
LINE
  8
0
 10
62.9057
 20
-60.7461
 11
62.7893
 21
-61.1044
  0
LINE
  8
0
 10
62.7893
 20
-61.1044
 11
62.6289
 21
-61.4453
  0
LINE
  8
0
 10
62.6289
 20
-61.4453
 11
62.427
 21
-61.7634
  0
LINE
  8
0
 10
62.427
 20
-61.7634
 11
62.1869
 21
-62.0536
  0
LINE
  8
0
 10
62.1869
 20
-62.0536
 11
61.9123
 21
-62.3115
  0
LINE
  8
0
 10
61.9123
 20
-62.3115
 11
61.6075
 21
-62.533
  0
LINE
  8
0
 10
61.6075
 20
-62.533
 11
61.2773
 21
-62.7145
  0
LINE
  8
0
 10
61.2773
 20
-62.7145
 11
60.927
 21
-62.8532
  0
LINE
  8
0
 10
60.927
 20
-62.8532
 11
60.5621
 21
-62.9469
  0
LINE
  8
0
 10
60.5621
 20
-62.9469
 11
60.1884
 21
-62.9941
  0
LINE
  8
0
 10
60.1884
 20
-62.9941
 11
59.8116
 21
-62.9941
  0
LINE
  8
0
 10
-60.1884
 20
-62.9941
 11
-60.5621
 21
-62.9469
  0
LINE
  8
0
 10
-60.5621
 20
-62.9469
 11
-60.927
 21
-62.8532
  0
LINE
  8
0
 10
-60.927
 20
-62.8532
 11
-61.2773
 21
-62.7145
  0
LINE
  8
0
 10
-61.2773
 20
-62.7145
 11
-61.6075
 21
-62.533
  0
LINE
  8
0
 10
-61.6075
 20
-62.533
 11
-61.9123
 21
-62.3115
  0
LINE
  8
0
 10
-61.9123
 20
-62.3115
 11
-62.1869
 21
-62.0536
  0
LINE
  8
0
 10
-62.1869
 20
-62.0536
 11
-62.427
 21
-61.7634
  0
LINE
  8
0
 10
-62.427
 20
-61.7634
 11
-62.6289
 21
-61.4453
  0
LINE
  8
0
 10
-62.6289
 20
-61.4453
 11
-62.7893
 21
-61.1044
  0
LINE
  8
0
 10
-62.7893
 20
-61.1044
 11
-62.9057
 21
-60.7461
  0
LINE
  8
0
 10
-62.9057
 20
-60.7461
 11
-62.9763
 21
-60.376
  0
LINE
  8
0
 10
-62.9763
 20
-60.376
 11
-63
 21
-60
  0
LINE
  8
0
 10
-63
 20
-60
 11
-62.9763
 21
-59.624
  0
LINE
  8
0
 10
-62.9763
 20
-59.624
 11
-62.9057
 21
-59.2539
  0
LINE
  8
0
 10
-62.9057
 20
-59.2539
 11
-62.7893
 21
-58.8956
  0
LINE
  8
0
 10
-62.7893
 20
-58.8956
 11
-62.6289
 21
-58.5547
  0
LINE
  8
0
 10
-62.6289
 20
-58.5547
 11
-62.427
 21
-58.2366
  0
LINE
  8
0
 10
-62.427
 20
-58.2366
 11
-62.1869
 21
-57.9464
  0
LINE
  8
0
 10
-62.1869
 20
-57.9464
 11
-61.9123
 21
-57.6885
  0
LINE
  8
0
 10
-61.9123
 20
-57.6885
 11
-61.6075
 21
-57.467
  0
LINE
  8
0
 10
-61.6075
 20
-57.467
 11
-61.2773
 21
-57.2855
  0
LINE
  8
0
 10
-61.2773
 20
-57.2855
 11
-60.927
 21
-57.1468
  0
LINE
  8
0
 10
-60.927
 20
-57.1468
 11
-60.5621
 21
-57.0531
  0
LINE
  8
0
 10
-60.5621
 20
-57.0531
 11
-60.1884
 21
-57.0059
  0
LINE
  8
0
 10
-60.1884
 20
-57.0059
 11
-59.8116
 21
-57.0059
  0
LINE
  8
0
 10
-59.8116
 20
-57.0059
 11
-59.4379
 21
-57.0531
  0
LINE
  8
0
 10
-59.4379
 20
-57.0531
 11
-59.0729
 21
-57.1468
  0
LINE
  8
0
 10
-59.0729
 20
-57.1468
 11
-58.7227
 21
-57.2855
  0
LINE
  8
0
 10
-58.7227
 20
-57.2855
 11
-58.3925
 21
-57.467
  0
LINE
  8
0
 10
-58.3925
 20
-57.467
 11
-58.0877
 21
-57.6885
  0
LINE
  8
0
 10
-58.0877
 20
-57.6885
 11
-57.8131
 21
-57.9464
  0
LINE
  8
0
 10
-57.8131
 20
-57.9464
 11
-57.5729
 21
-58.2366
  0
LINE
  8
0
 10
-57.5729
 20
-58.2366
 11
-57.3711
 21
-58.5547
  0
LINE
  8
0
 10
-57.3711
 20
-58.5547
 11
-57.2107
 21
-58.8956
  0
LINE
  8
0
 10
-57.2107
 20
-58.8956
 11
-57.0942
 21
-59.2539
  0
LINE
  8
0
 10
-57.0942
 20
-59.2539
 11
-57.0237
 21
-59.624
  0
LINE
  8
0
 10
-57.0237
 20
-59.624
 11
-57
 21
-60
  0
LINE
  8
0
 10
-57
 20
-60
 11
-57.0237
 21
-60.376
  0
LINE
  8
0
 10
-57.0237
 20
-60.376
 11
-57.0942
 21
-60.7461
  0
LINE
  8
0
 10
-57.0942
 20
-60.7461
 11
-57.2107
 21
-61.1044
  0
LINE
  8
0
 10
-57.2107
 20
-61.1044
 11
-57.3711
 21
-61.4453
  0
LINE
  8
0
 10
-57.3711
 20
-61.4453
 11
-57.5729
 21
-61.7634
  0
LINE
  8
0
 10
-57.5729
 20
-61.7634
 11
-57.8131
 21
-62.0536
  0
LINE
  8
0
 10
-57.8131
 20
-62.0536
 11
-58.0877
 21
-62.3115
  0
LINE
  8
0
 10
-58.0877
 20
-62.3115
 11
-58.3925
 21
-62.533
  0
LINE
  8
0
 10
-58.3925
 20
-62.533
 11
-58.7227
 21
-62.7145
  0
LINE
  8
0
 10
-58.7227
 20
-62.7145
 11
-59.0729
 21
-62.8532
  0
LINE
  8
0
 10
-59.0729
 20
-62.8532
 11
-59.4379
 21
-62.9469
  0
LINE
  8
0
 10
-59.4379
 20
-62.9469
 11
-59.8116
 21
-62.9941
  0
LINE
  8
0
 10
-59.8116
 20
-62.9941
 11
-60.1884
 21
-62.9941
  0
ENDSEC
  0
SECTION
  2
OBJECTS
  0
DICTIONARY
  0
ENDSEC
  0
EOF
