  0
SECTION
  2
BLOCKS
  0
ENDSEC
  0
SECTION
  2
ENTITIES
  0
LINE
  8
0
 10
85.4369
 20
-21.9114
 11
86.0451
 21
-21.7553
  0
LINE
  8
0
 10
86.0451
 20
-21.7553
 11
86.6289
 21
-21.5241
  0
LINE
  8
0
 10
86.6289
 20
-21.5241
 11
87.1791
 21
-21.2216
  0
LINE
  8
0
 10
87.1791
 20
-21.2216
 11
87.6871
 21
-20.8526
  0
LINE
  8
0
 10
87.6871
 20
-20.8526
 11
88.1448
 21
-20.4227
  0
LINE
  8
0
 10
88.1448
 20
-20.4227
 11
88.5451
 21
-19.9389
  0
LINE
  8
0
 10
88.5451
 20
-19.9389
 11
88.8815
 21
-19.4088
  0
LINE
  8
0
 10
88.8815
 20
-19.4088
 11
89.1489
 21
-18.8406
  0
LINE
  8
0
 10
89.1489
 20
-18.8406
 11
89.3429
 21
-18.2434
  0
LINE
  8
0
 10
89.3429
 20
-18.2434
 11
89.4606
 21
-17.6267
  0
LINE
  8
0
 10
89.4606
 20
-17.6267
 11
89.5
 21
-17
  0
LINE
  8
0
 10
89.5
 20
-17
 11
89.5
 21
17
  0
LINE
  8
0
 10
89.5
 20
17
 11
89.4606
 21
17.6267
  0
LINE
  8
0
 10
89.4606
 20
17.6267
 11
89.3429
 21
18.2434
  0
LINE
  8
0
 10
89.3429
 20
18.2434
 11
89.1489
 21
18.8406
  0
LINE
  8
0
 10
89.1489
 20
18.8406
 11
88.8815
 21
19.4088
  0
LINE
  8
0
 10
88.8815
 20
19.4088
 11
88.5451
 21
19.9389
  0
LINE
  8
0
 10
88.5451
 20
19.9389
 11
88.1448
 21
20.4227
  0
LINE
  8
0
 10
88.1448
 20
20.4227
 11
87.6871
 21
20.8526
  0
LINE
  8
0
 10
87.6871
 20
20.8526
 11
87.1791
 21
21.2216
  0
LINE
  8
0
 10
87.1791
 20
21.2216
 11
86.6289
 21
21.5241
  0
LINE
  8
0
 10
86.6289
 20
21.5241
 11
86.0451
 21
21.7553
  0
LINE
  8
0
 10
86.0451
 20
21.7553
 11
85.4369
 21
21.9114
  0
LINE
  8
0
 10
85.4369
 20
21.9114
 11
84.8139
 21
21.9901
  0
LINE
  8
0
 10
84.8139
 20
21.9901
 11
-84.8139
 21
21.9901
  0
LINE
  8
0
 10
-84.8139
 20
21.9901
 11
-85.4369
 21
21.9114
  0
LINE
  8
0
 10
-85.4369
 20
21.9114
 11
-86.0451
 21
21.7553
  0
LINE
  8
0
 10
-86.0451
 20
21.7553
 11
-86.6289
 21
21.5241
  0
LINE
  8
0
 10
-86.6289
 20
21.5241
 11
-87.1791
 21
21.2216
  0
LINE
  8
0
 10
-87.1791
 20
21.2216
 11
-87.6871
 21
20.8526
  0
LINE
  8
0
 10
-87.6871
 20
20.8526
 11
-88.1448
 21
20.4227
  0
LINE
  8
0
 10
-88.1448
 20
20.4227
 11
-88.5451
 21
19.9389
  0
LINE
  8
0
 10
-88.5451
 20
19.9389
 11
-88.8815
 21
19.4088
  0
LINE
  8
0
 10
-88.8815
 20
19.4088
 11
-89.1489
 21
18.8406
  0
LINE
  8
0
 10
-89.1489
 20
18.8406
 11
-89.3429
 21
18.2434
  0
LINE
  8
0
 10
-89.3429
 20
18.2434
 11
-89.4606
 21
17.6267
  0
LINE
  8
0
 10
-89.4606
 20
17.6267
 11
-89.5
 21
17
  0
LINE
  8
0
 10
-89.5
 20
17
 11
-89.5
 21
-17
  0
LINE
  8
0
 10
-89.5
 20
-17
 11
-89.4606
 21
-17.6267
  0
LINE
  8
0
 10
-89.4606
 20
-17.6267
 11
-89.3429
 21
-18.2434
  0
LINE
  8
0
 10
-89.3429
 20
-18.2434
 11
-89.1489
 21
-18.8406
  0
LINE
  8
0
 10
-89.1489
 20
-18.8406
 11
-88.8815
 21
-19.4088
  0
LINE
  8
0
 10
-88.8815
 20
-19.4088
 11
-88.5451
 21
-19.9389
  0
LINE
  8
0
 10
-88.5451
 20
-19.9389
 11
-88.1448
 21
-20.4227
  0
LINE
  8
0
 10
-88.1448
 20
-20.4227
 11
-87.6871
 21
-20.8526
  0
LINE
  8
0
 10
-87.6871
 20
-20.8526
 11
-87.1791
 21
-21.2216
  0
LINE
  8
0
 10
-87.1791
 20
-21.2216
 11
-86.6289
 21
-21.5241
  0
LINE
  8
0
 10
-86.6289
 20
-21.5241
 11
-86.0451
 21
-21.7553
  0
LINE
  8
0
 10
-86.0451
 20
-21.7553
 11
-85.4369
 21
-21.9114
  0
LINE
  8
0
 10
-85.4369
 20
-21.9114
 11
-84.8139
 21
-21.9901
  0
LINE
  8
0
 10
-84.8139
 20
-21.9901
 11
84.8139
 21
-21.9901
  0
LINE
  8
0
 10
84.8139
 20
-21.9901
 11
85.4369
 21
-21.9114
  0
LINE
  8
0
 10
-82.6884
 20
12.0059
 11
-83.0621
 21
12.0531
  0
LINE
  8
0
 10
-83.0621
 20
12.0531
 11
-83.427
 21
12.1468
  0
LINE
  8
0
 10
-83.427
 20
12.1468
 11
-83.7773
 21
12.2855
  0
LINE
  8
0
 10
-83.7773
 20
12.2855
 11
-84.1075
 21
12.467
  0
LINE
  8
0
 10
-84.1075
 20
12.467
 11
-84.4123
 21
12.6884
  0
LINE
  8
0
 10
-84.4123
 20
12.6884
 11
-84.6869
 21
12.9464
  0
LINE
  8
0
 10
-84.6869
 20
12.9464
 11
-84.927
 21
13.2366
  0
LINE
  8
0
 10
-84.927
 20
13.2366
 11
-85.1289
 21
13.5547
  0
LINE
  8
0
 10
-85.1289
 20
13.5547
 11
-85.2893
 21
13.8956
  0
LINE
  8
0
 10
-85.2893
 20
13.8956
 11
-85.4057
 21
14.2539
  0
LINE
  8
0
 10
-85.4057
 20
14.2539
 11
-85.4763
 21
14.624
  0
LINE
  8
0
 10
-85.4763
 20
14.624
 11
-85.5
 21
15
  0
LINE
  8
0
 10
-85.5
 20
15
 11
-85.4763
 21
15.376
  0
LINE
  8
0
 10
-85.4763
 20
15.376
 11
-85.4057
 21
15.7461
  0
LINE
  8
0
 10
-85.4057
 20
15.7461
 11
-85.2893
 21
16.1044
  0
LINE
  8
0
 10
-85.2893
 20
16.1044
 11
-85.1289
 21
16.4453
  0
LINE
  8
0
 10
-85.1289
 20
16.4453
 11
-84.927
 21
16.7634
  0
LINE
  8
0
 10
-84.927
 20
16.7634
 11
-84.6869
 21
17.0536
  0
LINE
  8
0
 10
-84.6869
 20
17.0536
 11
-84.4123
 21
17.3115
  0
LINE
  8
0
 10
-84.4123
 20
17.3115
 11
-84.1075
 21
17.533
  0
LINE
  8
0
 10
-84.1075
 20
17.533
 11
-83.7773
 21
17.7145
  0
LINE
  8
0
 10
-83.7773
 20
17.7145
 11
-83.427
 21
17.8532
  0
LINE
  8
0
 10
-83.427
 20
17.8532
 11
-83.0621
 21
17.9469
  0
LINE
  8
0
 10
-83.0621
 20
17.9469
 11
-82.6884
 21
17.9941
  0
LINE
  8
0
 10
-82.6884
 20
17.9941
 11
-82.3116
 21
17.9941
  0
LINE
  8
0
 10
-82.3116
 20
17.9941
 11
-81.9379
 21
17.9469
  0
LINE
  8
0
 10
-81.9379
 20
17.9469
 11
-81.573
 21
17.8532
  0
LINE
  8
0
 10
-81.573
 20
17.8532
 11
-81.2227
 21
17.7145
  0
LINE
  8
0
 10
-81.2227
 20
17.7145
 11
-80.8925
 21
17.533
  0
LINE
  8
0
 10
-80.8925
 20
17.533
 11
-80.5877
 21
17.3115
  0
LINE
  8
0
 10
-80.5877
 20
17.3115
 11
-80.3131
 21
17.0536
  0
LINE
  8
0
 10
-80.3131
 20
17.0536
 11
-80.073
 21
16.7634
  0
LINE
  8
0
 10
-80.073
 20
16.7634
 11
-79.8711
 21
16.4453
  0
LINE
  8
0
 10
-79.8711
 20
16.4453
 11
-79.7107
 21
16.1044
  0
LINE
  8
0
 10
-79.7107
 20
16.1044
 11
-79.5943
 21
15.7461
  0
LINE
  8
0
 10
-79.5943
 20
15.7461
 11
-79.5237
 21
15.376
  0
LINE
  8
0
 10
-79.5237
 20
15.376
 11
-79.5
 21
15
  0
LINE
  8
0
 10
-79.5
 20
15
 11
-79.5237
 21
14.624
  0
LINE
  8
0
 10
-79.5237
 20
14.624
 11
-79.5943
 21
14.2539
  0
LINE
  8
0
 10
-79.5943
 20
14.2539
 11
-79.7107
 21
13.8956
  0
LINE
  8
0
 10
-79.7107
 20
13.8956
 11
-79.8711
 21
13.5547
  0
LINE
  8
0
 10
-79.8711
 20
13.5547
 11
-80.073
 21
13.2366
  0
LINE
  8
0
 10
-80.073
 20
13.2366
 11
-80.3131
 21
12.9464
  0
LINE
  8
0
 10
-80.3131
 20
12.9464
 11
-80.5877
 21
12.6884
  0
LINE
  8
0
 10
-80.5877
 20
12.6884
 11
-80.8925
 21
12.467
  0
LINE
  8
0
 10
-80.8925
 20
12.467
 11
-81.2227
 21
12.2855
  0
LINE
  8
0
 10
-81.2227
 20
12.2855
 11
-81.573
 21
12.1468
  0
LINE
  8
0
 10
-81.573
 20
12.1468
 11
-81.9379
 21
12.0531
  0
LINE
  8
0
 10
-81.9379
 20
12.0531
 11
-82.3116
 21
12.0059
  0
LINE
  8
0
 10
-82.3116
 20
12.0059
 11
-82.6884
 21
12.0059
  0
LINE
  8
0
 10
82.3116
 20
12.0059
 11
81.9379
 21
12.0531
  0
LINE
  8
0
 10
81.9379
 20
12.0531
 11
81.573
 21
12.1468
  0
LINE
  8
0
 10
81.573
 20
12.1468
 11
81.2227
 21
12.2855
  0
LINE
  8
0
 10
81.2227
 20
12.2855
 11
80.8925
 21
12.467
  0
LINE
  8
0
 10
80.8925
 20
12.467
 11
80.5877
 21
12.6884
  0
LINE
  8
0
 10
80.5877
 20
12.6884
 11
80.3131
 21
12.9464
  0
LINE
  8
0
 10
80.3131
 20
12.9464
 11
80.073
 21
13.2366
  0
LINE
  8
0
 10
80.073
 20
13.2366
 11
79.8711
 21
13.5547
  0
LINE
  8
0
 10
79.8711
 20
13.5547
 11
79.7107
 21
13.8956
  0
LINE
  8
0
 10
79.7107
 20
13.8956
 11
79.5943
 21
14.2539
  0
LINE
  8
0
 10
79.5943
 20
14.2539
 11
79.5237
 21
14.624
  0
LINE
  8
0
 10
79.5237
 20
14.624
 11
79.5
 21
15
  0
LINE
  8
0
 10
79.5
 20
15
 11
79.5237
 21
15.376
  0
LINE
  8
0
 10
79.5237
 20
15.376
 11
79.5943
 21
15.7461
  0
LINE
  8
0
 10
79.5943
 20
15.7461
 11
79.7107
 21
16.1044
  0
LINE
  8
0
 10
79.7107
 20
16.1044
 11
79.8711
 21
16.4453
  0
LINE
  8
0
 10
79.8711
 20
16.4453
 11
80.073
 21
16.7634
  0
LINE
  8
0
 10
80.073
 20
16.7634
 11
80.3131
 21
17.0536
  0
LINE
  8
0
 10
80.3131
 20
17.0536
 11
80.5877
 21
17.3115
  0
LINE
  8
0
 10
80.5877
 20
17.3115
 11
80.8925
 21
17.533
  0
LINE
  8
0
 10
80.8925
 20
17.533
 11
81.2227
 21
17.7145
  0
LINE
  8
0
 10
81.2227
 20
17.7145
 11
81.573
 21
17.8532
  0
LINE
  8
0
 10
81.573
 20
17.8532
 11
81.9379
 21
17.9469
  0
LINE
  8
0
 10
81.9379
 20
17.9469
 11
82.3116
 21
17.9941
  0
LINE
  8
0
 10
82.3116
 20
17.9941
 11
82.6884
 21
17.9941
  0
LINE
  8
0
 10
82.6884
 20
17.9941
 11
83.0621
 21
17.9469
  0
LINE
  8
0
 10
83.0621
 20
17.9469
 11
83.427
 21
17.8532
  0
LINE
  8
0
 10
83.427
 20
17.8532
 11
83.7773
 21
17.7145
  0
LINE
  8
0
 10
83.7773
 20
17.7145
 11
84.1075
 21
17.533
  0
LINE
  8
0
 10
84.1075
 20
17.533
 11
84.4123
 21
17.3115
  0
LINE
  8
0
 10
84.4123
 20
17.3115
 11
84.6869
 21
17.0536
  0
LINE
  8
0
 10
84.6869
 20
17.0536
 11
84.927
 21
16.7634
  0
LINE
  8
0
 10
84.927
 20
16.7634
 11
85.1289
 21
16.4453
  0
LINE
  8
0
 10
85.1289
 20
16.4453
 11
85.2893
 21
16.1044
  0
LINE
  8
0
 10
85.2893
 20
16.1044
 11
85.4057
 21
15.7461
  0
LINE
  8
0
 10
85.4057
 20
15.7461
 11
85.4763
 21
15.376
  0
LINE
  8
0
 10
85.4763
 20
15.376
 11
85.5
 21
15
  0
LINE
  8
0
 10
85.5
 20
15
 11
85.4763
 21
14.624
  0
LINE
  8
0
 10
85.4763
 20
14.624
 11
85.4057
 21
14.2539
  0
LINE
  8
0
 10
85.4057
 20
14.2539
 11
85.2893
 21
13.8956
  0
LINE
  8
0
 10
85.2893
 20
13.8956
 11
85.1289
 21
13.5547
  0
LINE
  8
0
 10
85.1289
 20
13.5547
 11
84.927
 21
13.2366
  0
LINE
  8
0
 10
84.927
 20
13.2366
 11
84.6869
 21
12.9464
  0
LINE
  8
0
 10
84.6869
 20
12.9464
 11
84.4123
 21
12.6884
  0
LINE
  8
0
 10
84.4123
 20
12.6884
 11
84.1075
 21
12.467
  0
LINE
  8
0
 10
84.1075
 20
12.467
 11
83.7773
 21
12.2855
  0
LINE
  8
0
 10
83.7773
 20
12.2855
 11
83.427
 21
12.1468
  0
LINE
  8
0
 10
83.427
 20
12.1468
 11
83.0621
 21
12.0531
  0
LINE
  8
0
 10
83.0621
 20
12.0531
 11
82.6884
 21
12.0059
  0
LINE
  8
0
 10
82.6884
 20
12.0059
 11
82.3116
 21
12.0059
  0
LINE
  8
0
 10
31.1523
 20
-13.4734
 11
29.4704
 21
-13.2609
  0
LINE
  8
0
 10
29.4704
 20
-13.2609
 11
27.8283
 21
-12.8392
  0
LINE
  8
0
 10
27.8283
 20
-12.8392
 11
26.252
 21
-12.2152
  0
LINE
  8
0
 10
26.252
 20
-12.2152
 11
24.7663
 21
-11.3984
  0
LINE
  8
0
 10
24.7663
 20
-11.3984
 11
23.3948
 21
-10.4019
  0
LINE
  8
0
 10
23.3948
 20
-10.4019
 11
22.1589
 21
-9.24138
  0
LINE
  8
0
 10
22.1589
 20
-9.24138
 11
21.0783
 21
-7.93509
  0
LINE
  8
0
 10
21.0783
 20
-7.93509
 11
20.1698
 21
-6.50366
  0
LINE
  8
0
 10
20.1698
 20
-6.50366
 11
19.448
 21
-4.96968
  0
LINE
  8
0
 10
19.448
 20
-4.96968
 11
18.9241
 21
-3.3573
  0
LINE
  8
0
 10
18.9241
 20
-3.3573
 11
18.6064
 21
-1.69199
  0
LINE
  8
0
 10
18.6064
 20
-1.69199
 11
18.5
 21
0
  0
LINE
  8
0
 10
18.5
 20
0
 11
18.6064
 21
1.69199
  0
LINE
  8
0
 10
18.6064
 20
1.69199
 11
18.9241
 21
3.3573
  0
LINE
  8
0
 10
18.9241
 20
3.3573
 11
19.448
 21
4.96968
  0
LINE
  8
0
 10
19.448
 20
4.96968
 11
20.1698
 21
6.50366
  0
LINE
  8
0
 10
20.1698
 20
6.50366
 11
21.0783
 21
7.93509
  0
LINE
  8
0
 10
21.0783
 20
7.93509
 11
22.1589
 21
9.24138
  0
LINE
  8
0
 10
22.1589
 20
9.24138
 11
23.3948
 21
10.4019
  0
LINE
  8
0
 10
23.3948
 20
10.4019
 11
24.7663
 21
11.3984
  0
LINE
  8
0
 10
24.7663
 20
11.3984
 11
26.252
 21
12.2152
  0
LINE
  8
0
 10
26.252
 20
12.2152
 11
27.8283
 21
12.8392
  0
LINE
  8
0
 10
27.8283
 20
12.8392
 11
29.4704
 21
13.2609
  0
LINE
  8
0
 10
29.4704
 20
13.2609
 11
31.1523
 21
13.4734
  0
LINE
  8
0
 10
31.1523
 20
13.4734
 11
32.8477
 21
13.4734
  0
LINE
  8
0
 10
32.8477
 20
13.4734
 11
34.5296
 21
13.2609
  0
LINE
  8
0
 10
34.5296
 20
13.2609
 11
36.1717
 21
12.8392
  0
LINE
  8
0
 10
36.1717
 20
12.8392
 11
37.748
 21
12.2152
  0
LINE
  8
0
 10
37.748
 20
12.2152
 11
39.2337
 21
11.3984
  0
LINE
  8
0
 10
39.2337
 20
11.3984
 11
40.6052
 21
10.4019
  0
LINE
  8
0
 10
40.6052
 20
10.4019
 11
41.8411
 21
9.24138
  0
LINE
  8
0
 10
41.8411
 20
9.24138
 11
42.9217
 21
7.93509
  0
LINE
  8
0
 10
42.9217
 20
7.93509
 11
43.8301
 21
6.50366
  0
LINE
  8
0
 10
43.8301
 20
6.50366
 11
44.552
 21
4.96968
  0
LINE
  8
0
 10
44.552
 20
4.96968
 11
45.0759
 21
3.3573
  0
LINE
  8
0
 10
45.0759
 20
3.3573
 11
45.3935
 21
1.69199
  0
LINE
  8
0
 10
45.3935
 20
1.69199
 11
45.5
 21
0
  0
LINE
  8
0
 10
45.5
 20
0
 11
45.3935
 21
-1.69199
  0
LINE
  8
0
 10
45.3935
 20
-1.69199
 11
45.0759
 21
-3.3573
  0
LINE
  8
0
 10
45.0759
 20
-3.3573
 11
44.552
 21
-4.96968
  0
LINE
  8
0
 10
44.552
 20
-4.96968
 11
43.8301
 21
-6.50366
  0
LINE
  8
0
 10
43.8301
 20
-6.50366
 11
42.9217
 21
-7.93509
  0
LINE
  8
0
 10
42.9217
 20
-7.93509
 11
41.8411
 21
-9.24138
  0
LINE
  8
0
 10
41.8411
 20
-9.24138
 11
40.6052
 21
-10.4019
  0
LINE
  8
0
 10
40.6052
 20
-10.4019
 11
39.2337
 21
-11.3984
  0
LINE
  8
0
 10
39.2337
 20
-11.3984
 11
37.748
 21
-12.2152
  0
LINE
  8
0
 10
37.748
 20
-12.2152
 11
36.1717
 21
-12.8392
  0
LINE
  8
0
 10
36.1717
 20
-12.8392
 11
34.5296
 21
-13.2609
  0
LINE
  8
0
 10
34.5296
 20
-13.2609
 11
32.8477
 21
-13.4734
  0
LINE
  8
0
 10
32.8477
 20
-13.4734
 11
31.1523
 21
-13.4734
  0
LINE
  8
0
 10
-32.8477
 20
-13.4734
 11
-34.5296
 21
-13.2609
  0
LINE
  8
0
 10
-34.5296
 20
-13.2609
 11
-36.1717
 21
-12.8392
  0
LINE
  8
0
 10
-36.1717
 20
-12.8392
 11
-37.748
 21
-12.2152
  0
LINE
  8
0
 10
-37.748
 20
-12.2152
 11
-39.2337
 21
-11.3984
  0
LINE
  8
0
 10
-39.2337
 20
-11.3984
 11
-40.6052
 21
-10.4019
  0
LINE
  8
0
 10
-40.6052
 20
-10.4019
 11
-41.8411
 21
-9.24138
  0
LINE
  8
0
 10
-41.8411
 20
-9.24138
 11
-42.9217
 21
-7.93509
  0
LINE
  8
0
 10
-42.9217
 20
-7.93509
 11
-43.8301
 21
-6.50366
  0
LINE
  8
0
 10
-43.8301
 20
-6.50366
 11
-44.552
 21
-4.96968
  0
LINE
  8
0
 10
-44.552
 20
-4.96968
 11
-45.0759
 21
-3.3573
  0
LINE
  8
0
 10
-45.0759
 20
-3.3573
 11
-45.3935
 21
-1.69199
  0
LINE
  8
0
 10
-45.3935
 20
-1.69199
 11
-45.5
 21
0
  0
LINE
  8
0
 10
-45.5
 20
0
 11
-45.3935
 21
1.69199
  0
LINE
  8
0
 10
-45.3935
 20
1.69199
 11
-45.0759
 21
3.3573
  0
LINE
  8
0
 10
-45.0759
 20
3.3573
 11
-44.552
 21
4.96968
  0
LINE
  8
0
 10
-44.552
 20
4.96968
 11
-43.8301
 21
6.50366
  0
LINE
  8
0
 10
-43.8301
 20
6.50366
 11
-42.9217
 21
7.93509
  0
LINE
  8
0
 10
-42.9217
 20
7.93509
 11
-41.8411
 21
9.24138
  0
LINE
  8
0
 10
-41.8411
 20
9.24138
 11
-40.6052
 21
10.4019
  0
LINE
  8
0
 10
-40.6052
 20
10.4019
 11
-39.2337
 21
11.3984
  0
LINE
  8
0
 10
-39.2337
 20
11.3984
 11
-37.748
 21
12.2152
  0
LINE
  8
0
 10
-37.748
 20
12.2152
 11
-36.1717
 21
12.8392
  0
LINE
  8
0
 10
-36.1717
 20
12.8392
 11
-34.5296
 21
13.2609
  0
LINE
  8
0
 10
-34.5296
 20
13.2609
 11
-32.8477
 21
13.4734
  0
LINE
  8
0
 10
-32.8477
 20
13.4734
 11
-31.1523
 21
13.4734
  0
LINE
  8
0
 10
-31.1523
 20
13.4734
 11
-29.4704
 21
13.2609
  0
LINE
  8
0
 10
-29.4704
 20
13.2609
 11
-27.8283
 21
12.8392
  0
LINE
  8
0
 10
-27.8283
 20
12.8392
 11
-26.252
 21
12.2152
  0
LINE
  8
0
 10
-26.252
 20
12.2152
 11
-24.7663
 21
11.3984
  0
LINE
  8
0
 10
-24.7663
 20
11.3984
 11
-23.3948
 21
10.4019
  0
LINE
  8
0
 10
-23.3948
 20
10.4019
 11
-22.1589
 21
9.24138
  0
LINE
  8
0
 10
-22.1589
 20
9.24138
 11
-21.0783
 21
7.93509
  0
LINE
  8
0
 10
-21.0783
 20
7.93509
 11
-20.1698
 21
6.50366
  0
LINE
  8
0
 10
-20.1698
 20
6.50366
 11
-19.448
 21
4.96968
  0
LINE
  8
0
 10
-19.448
 20
4.96968
 11
-18.9241
 21
3.3573
  0
LINE
  8
0
 10
-18.9241
 20
3.3573
 11
-18.6064
 21
1.69199
  0
LINE
  8
0
 10
-18.6064
 20
1.69199
 11
-18.5
 21
0
  0
LINE
  8
0
 10
-18.5
 20
0
 11
-18.6064
 21
-1.69199
  0
LINE
  8
0
 10
-18.6064
 20
-1.69199
 11
-18.9241
 21
-3.3573
  0
LINE
  8
0
 10
-18.9241
 20
-3.3573
 11
-19.448
 21
-4.96968
  0
LINE
  8
0
 10
-19.448
 20
-4.96968
 11
-20.1698
 21
-6.50366
  0
LINE
  8
0
 10
-20.1698
 20
-6.50366
 11
-21.0783
 21
-7.93509
  0
LINE
  8
0
 10
-21.0783
 20
-7.93509
 11
-22.1589
 21
-9.24138
  0
LINE
  8
0
 10
-22.1589
 20
-9.24138
 11
-23.3948
 21
-10.4019
  0
LINE
  8
0
 10
-23.3948
 20
-10.4019
 11
-24.7663
 21
-11.3984
  0
LINE
  8
0
 10
-24.7663
 20
-11.3984
 11
-26.252
 21
-12.2152
  0
LINE
  8
0
 10
-26.252
 20
-12.2152
 11
-27.8283
 21
-12.8392
  0
LINE
  8
0
 10
-27.8283
 20
-12.8392
 11
-29.4704
 21
-13.2609
  0
LINE
  8
0
 10
-29.4704
 20
-13.2609
 11
-31.1523
 21
-13.4734
  0
LINE
  8
0
 10
-31.1523
 20
-13.4734
 11
-32.8477
 21
-13.4734
  0
LINE
  8
0
 10
63.1523
 20
-13.4734
 11
61.4704
 21
-13.2609
  0
LINE
  8
0
 10
61.4704
 20
-13.2609
 11
59.8283
 21
-12.8392
  0
LINE
  8
0
 10
59.8283
 20
-12.8392
 11
58.252
 21
-12.2152
  0
LINE
  8
0
 10
58.252
 20
-12.2152
 11
56.7663
 21
-11.3984
  0
LINE
  8
0
 10
56.7663
 20
-11.3984
 11
55.3948
 21
-10.4019
  0
LINE
  8
0
 10
55.3948
 20
-10.4019
 11
54.1589
 21
-9.24138
  0
LINE
  8
0
 10
54.1589
 20
-9.24138
 11
53.0783
 21
-7.93509
  0
LINE
  8
0
 10
53.0783
 20
-7.93509
 11
52.1699
 21
-6.50366
  0
LINE
  8
0
 10
52.1699
 20
-6.50366
 11
51.448
 21
-4.96968
  0
LINE
  8
0
 10
51.448
 20
-4.96968
 11
50.9241
 21
-3.3573
  0
LINE
  8
0
 10
50.9241
 20
-3.3573
 11
50.6064
 21
-1.69199
  0
LINE
  8
0
 10
50.6064
 20
-1.69199
 11
50.5
 21
0
  0
LINE
  8
0
 10
50.5
 20
0
 11
50.6064
 21
1.69199
  0
LINE
  8
0
 10
50.6064
 20
1.69199
 11
50.9241
 21
3.3573
  0
LINE
  8
0
 10
50.9241
 20
3.3573
 11
51.448
 21
4.96968
  0
LINE
  8
0
 10
51.448
 20
4.96968
 11
52.1699
 21
6.50366
  0
LINE
  8
0
 10
52.1699
 20
6.50366
 11
53.0783
 21
7.93509
  0
LINE
  8
0
 10
53.0783
 20
7.93509
 11
54.1589
 21
9.24138
  0
LINE
  8
0
 10
54.1589
 20
9.24138
 11
55.3948
 21
10.4019
  0
LINE
  8
0
 10
55.3948
 20
10.4019
 11
56.7663
 21
11.3984
  0
LINE
  8
0
 10
56.7663
 20
11.3984
 11
58.252
 21
12.2152
  0
LINE
  8
0
 10
58.252
 20
12.2152
 11
59.8283
 21
12.8392
  0
LINE
  8
0
 10
59.8283
 20
12.8392
 11
61.4704
 21
13.2609
  0
LINE
  8
0
 10
61.4704
 20
13.2609
 11
63.1523
 21
13.4734
  0
LINE
  8
0
 10
63.1523
 20
13.4734
 11
64.8477
 21
13.4734
  0
LINE
  8
0
 10
64.8477
 20
13.4734
 11
66.5296
 21
13.2609
  0
LINE
  8
0
 10
66.5296
 20
13.2609
 11
68.1717
 21
12.8392
  0
LINE
  8
0
 10
68.1717
 20
12.8392
 11
69.748
 21
12.2152
  0
LINE
  8
0
 10
69.748
 20
12.2152
 11
71.2337
 21
11.3984
  0
LINE
  8
0
 10
71.2337
 20
11.3984
 11
72.6052
 21
10.4019
  0
LINE
  8
0
 10
72.6052
 20
10.4019
 11
73.8411
 21
9.24138
  0
LINE
  8
0
 10
73.8411
 20
9.24138
 11
74.9217
 21
7.93509
  0
LINE
  8
0
 10
74.9217
 20
7.93509
 11
75.8301
 21
6.50366
  0
LINE
  8
0
 10
75.8301
 20
6.50366
 11
76.552
 21
4.96968
  0
LINE
  8
0
 10
76.552
 20
4.96968
 11
77.0759
 21
3.3573
  0
LINE
  8
0
 10
77.0759
 20
3.3573
 11
77.3935
 21
1.69199
  0
LINE
  8
0
 10
77.3935
 20
1.69199
 11
77.5
 21
0
  0
LINE
  8
0
 10
77.5
 20
0
 11
77.3935
 21
-1.69199
  0
LINE
  8
0
 10
77.3935
 20
-1.69199
 11
77.0759
 21
-3.3573
  0
LINE
  8
0
 10
77.0759
 20
-3.3573
 11
76.552
 21
-4.96968
  0
LINE
  8
0
 10
76.552
 20
-4.96968
 11
75.8301
 21
-6.50366
  0
LINE
  8
0
 10
75.8301
 20
-6.50366
 11
74.9217
 21
-7.93509
  0
LINE
  8
0
 10
74.9217
 20
-7.93509
 11
73.8411
 21
-9.24138
  0
LINE
  8
0
 10
73.8411
 20
-9.24138
 11
72.6052
 21
-10.4019
  0
LINE
  8
0
 10
72.6052
 20
-10.4019
 11
71.2337
 21
-11.3984
  0
LINE
  8
0
 10
71.2337
 20
-11.3984
 11
69.748
 21
-12.2152
  0
LINE
  8
0
 10
69.748
 20
-12.2152
 11
68.1717
 21
-12.8392
  0
LINE
  8
0
 10
68.1717
 20
-12.8392
 11
66.5296
 21
-13.2609
  0
LINE
  8
0
 10
66.5296
 20
-13.2609
 11
64.8477
 21
-13.4734
  0
LINE
  8
0
 10
64.8477
 20
-13.4734
 11
63.1523
 21
-13.4734
  0
LINE
  8
0
 10
-64.8477
 20
-13.4734
 11
-66.5296
 21
-13.2609
  0
LINE
  8
0
 10
-66.5296
 20
-13.2609
 11
-68.1717
 21
-12.8392
  0
LINE
  8
0
 10
-68.1717
 20
-12.8392
 11
-69.748
 21
-12.2152
  0
LINE
  8
0
 10
-69.748
 20
-12.2152
 11
-71.2337
 21
-11.3984
  0
LINE
  8
0
 10
-71.2337
 20
-11.3984
 11
-72.6052
 21
-10.4019
  0
LINE
  8
0
 10
-72.6052
 20
-10.4019
 11
-73.8411
 21
-9.24138
  0
LINE
  8
0
 10
-73.8411
 20
-9.24138
 11
-74.9217
 21
-7.93509
  0
LINE
  8
0
 10
-74.9217
 20
-7.93509
 11
-75.8301
 21
-6.50366
  0
LINE
  8
0
 10
-75.8301
 20
-6.50366
 11
-76.552
 21
-4.96968
  0
LINE
  8
0
 10
-76.552
 20
-4.96968
 11
-77.0759
 21
-3.3573
  0
LINE
  8
0
 10
-77.0759
 20
-3.3573
 11
-77.3935
 21
-1.69199
  0
LINE
  8
0
 10
-77.3935
 20
-1.69199
 11
-77.5
 21
0
  0
LINE
  8
0
 10
-77.5
 20
0
 11
-77.3935
 21
1.69199
  0
LINE
  8
0
 10
-77.3935
 20
1.69199
 11
-77.0759
 21
3.3573
  0
LINE
  8
0
 10
-77.0759
 20
3.3573
 11
-76.552
 21
4.96968
  0
LINE
  8
0
 10
-76.552
 20
4.96968
 11
-75.8301
 21
6.50366
  0
LINE
  8
0
 10
-75.8301
 20
6.50366
 11
-74.9217
 21
7.93509
  0
LINE
  8
0
 10
-74.9217
 20
7.93509
 11
-73.8411
 21
9.24138
  0
LINE
  8
0
 10
-73.8411
 20
9.24138
 11
-72.6052
 21
10.4019
  0
LINE
  8
0
 10
-72.6052
 20
10.4019
 11
-71.2337
 21
11.3984
  0
LINE
  8
0
 10
-71.2337
 20
11.3984
 11
-69.748
 21
12.2152
  0
LINE
  8
0
 10
-69.748
 20
12.2152
 11
-68.1717
 21
12.8392
  0
LINE
  8
0
 10
-68.1717
 20
12.8392
 11
-66.5296
 21
13.2609
  0
LINE
  8
0
 10
-66.5296
 20
13.2609
 11
-64.8477
 21
13.4734
  0
LINE
  8
0
 10
-64.8477
 20
13.4734
 11
-63.1523
 21
13.4734
  0
LINE
  8
0
 10
-63.1523
 20
13.4734
 11
-61.4704
 21
13.2609
  0
LINE
  8
0
 10
-61.4704
 20
13.2609
 11
-59.8283
 21
12.8392
  0
LINE
  8
0
 10
-59.8283
 20
12.8392
 11
-58.252
 21
12.2152
  0
LINE
  8
0
 10
-58.252
 20
12.2152
 11
-56.7663
 21
11.3984
  0
LINE
  8
0
 10
-56.7663
 20
11.3984
 11
-55.3948
 21
10.4019
  0
LINE
  8
0
 10
-55.3948
 20
10.4019
 11
-54.1589
 21
9.24138
  0
LINE
  8
0
 10
-54.1589
 20
9.24138
 11
-53.0783
 21
7.93509
  0
LINE
  8
0
 10
-53.0783
 20
7.93509
 11
-52.1699
 21
6.50366
  0
LINE
  8
0
 10
-52.1699
 20
6.50366
 11
-51.448
 21
4.96968
  0
LINE
  8
0
 10
-51.448
 20
4.96968
 11
-50.9241
 21
3.3573
  0
LINE
  8
0
 10
-50.9241
 20
3.3573
 11
-50.6064
 21
1.69199
  0
LINE
  8
0
 10
-50.6064
 20
1.69199
 11
-50.5
 21
0
  0
LINE
  8
0
 10
-50.5
 20
0
 11
-50.6064
 21
-1.69199
  0
LINE
  8
0
 10
-50.6064
 20
-1.69199
 11
-50.9241
 21
-3.3573
  0
LINE
  8
0
 10
-50.9241
 20
-3.3573
 11
-51.448
 21
-4.96968
  0
LINE
  8
0
 10
-51.448
 20
-4.96968
 11
-52.1699
 21
-6.50366
  0
LINE
  8
0
 10
-52.1699
 20
-6.50366
 11
-53.0783
 21
-7.93509
  0
LINE
  8
0
 10
-53.0783
 20
-7.93509
 11
-54.1589
 21
-9.24138
  0
LINE
  8
0
 10
-54.1589
 20
-9.24138
 11
-55.3948
 21
-10.4019
  0
LINE
  8
0
 10
-55.3948
 20
-10.4019
 11
-56.7663
 21
-11.3984
  0
LINE
  8
0
 10
-56.7663
 20
-11.3984
 11
-58.252
 21
-12.2152
  0
LINE
  8
0
 10
-58.252
 20
-12.2152
 11
-59.8283
 21
-12.8392
  0
LINE
  8
0
 10
-59.8283
 20
-12.8392
 11
-61.4704
 21
-13.2609
  0
LINE
  8
0
 10
-61.4704
 20
-13.2609
 11
-63.1523
 21
-13.4734
  0
LINE
  8
0
 10
-63.1523
 20
-13.4734
 11
-64.8477
 21
-13.4734
  0
LINE
  8
0
 10
-0.847672
 20
-13.4734
 11
-2.52963
 21
-13.2609
  0
LINE
  8
0
 10
-2.52963
 20
-13.2609
 11
-4.17172
 21
-12.8392
  0
LINE
  8
0
 10
-4.17172
 20
-12.8392
 11
-5.74802
 21
-12.2152
  0
LINE
  8
0
 10
-5.74802
 20
-12.2152
 11
-7.23366
 21
-11.3984
  0
LINE
  8
0
 10
-7.23366
 20
-11.3984
 11
-8.60521
 21
-10.4019
  0
LINE
  8
0
 10
-8.60521
 20
-10.4019
 11
-9.84106
 21
-9.24138
  0
LINE
  8
0
 10
-9.84106
 20
-9.24138
 11
-10.9217
 21
-7.93509
  0
LINE
  8
0
 10
-10.9217
 20
-7.93509
 11
-11.8301
 21
-6.50366
  0
LINE
  8
0
 10
-11.8301
 20
-6.50366
 11
-12.552
 21
-4.96968
  0
LINE
  8
0
 10
-12.552
 20
-4.96968
 11
-13.0759
 21
-3.3573
  0
LINE
  8
0
 10
-13.0759
 20
-3.3573
 11
-13.3935
 21
-1.69199
  0
LINE
  8
0
 10
-13.3935
 20
-1.69199
 11
-13.5
 21
0
  0
LINE
  8
0
 10
-13.5
 20
0
 11
-13.3935
 21
1.69199
  0
LINE
  8
0
 10
-13.3935
 20
1.69199
 11
-13.0759
 21
3.3573
  0
LINE
  8
0
 10
-13.0759
 20
3.3573
 11
-12.552
 21
4.96968
  0
LINE
  8
0
 10
-12.552
 20
4.96968
 11
-11.8301
 21
6.50366
  0
LINE
  8
0
 10
-11.8301
 20
6.50366
 11
-10.9217
 21
7.93509
  0
LINE
  8
0
 10
-10.9217
 20
7.93509
 11
-9.84106
 21
9.24138
  0
LINE
  8
0
 10
-9.84106
 20
9.24138
 11
-8.60521
 21
10.4019
  0
LINE
  8
0
 10
-8.60521
 20
10.4019
 11
-7.23366
 21
11.3984
  0
LINE
  8
0
 10
-7.23366
 20
11.3984
 11
-5.74802
 21
12.2152
  0
LINE
  8
0
 10
-5.74802
 20
12.2152
 11
-4.17172
 21
12.8392
  0
LINE
  8
0
 10
-4.17172
 20
12.8392
 11
-2.52963
 21
13.2609
  0
LINE
  8
0
 10
-2.52963
 20
13.2609
 11
-0.847672
 21
13.4734
  0
LINE
  8
0
 10
-0.847672
 20
13.4734
 11
0.847672
 21
13.4734
  0
LINE
  8
0
 10
0.847672
 20
13.4734
 11
2.52963
 21
13.2609
  0
LINE
  8
0
 10
2.52963
 20
13.2609
 11
4.17172
 21
12.8392
  0
LINE
  8
0
 10
4.17172
 20
12.8392
 11
5.74802
 21
12.2152
  0
LINE
  8
0
 10
5.74802
 20
12.2152
 11
7.23366
 21
11.3984
  0
LINE
  8
0
 10
7.23366
 20
11.3984
 11
8.60521
 21
10.4019
  0
LINE
  8
0
 10
8.60521
 20
10.4019
 11
9.84106
 21
9.24138
  0
LINE
  8
0
 10
9.84106
 20
9.24138
 11
10.9217
 21
7.93509
  0
LINE
  8
0
 10
10.9217
 20
7.93509
 11
11.8301
 21
6.50366
  0
LINE
  8
0
 10
11.8301
 20
6.50366
 11
12.552
 21
4.96968
  0
LINE
  8
0
 10
12.552
 20
4.96968
 11
13.0759
 21
3.3573
  0
LINE
  8
0
 10
13.0759
 20
3.3573
 11
13.3935
 21
1.69199
  0
LINE
  8
0
 10
13.3935
 20
1.69199
 11
13.5
 21
0
  0
LINE
  8
0
 10
13.5
 20
0
 11
13.3935
 21
-1.69199
  0
LINE
  8
0
 10
13.3935
 20
-1.69199
 11
13.0759
 21
-3.3573
  0
LINE
  8
0
 10
13.0759
 20
-3.3573
 11
12.552
 21
-4.96968
  0
LINE
  8
0
 10
12.552
 20
-4.96968
 11
11.8301
 21
-6.50366
  0
LINE
  8
0
 10
11.8301
 20
-6.50366
 11
10.9217
 21
-7.93509
  0
LINE
  8
0
 10
10.9217
 20
-7.93509
 11
9.84106
 21
-9.24138
  0
LINE
  8
0
 10
9.84106
 20
-9.24138
 11
8.60521
 21
-10.4019
  0
LINE
  8
0
 10
8.60521
 20
-10.4019
 11
7.23366
 21
-11.3984
  0
LINE
  8
0
 10
7.23366
 20
-11.3984
 11
5.74802
 21
-12.2152
  0
LINE
  8
0
 10
5.74802
 20
-12.2152
 11
4.17172
 21
-12.8392
  0
LINE
  8
0
 10
4.17172
 20
-12.8392
 11
2.52963
 21
-13.2609
  0
LINE
  8
0
 10
2.52963
 20
-13.2609
 11
0.847672
 21
-13.4734
  0
LINE
  8
0
 10
0.847672
 20
-13.4734
 11
-0.847672
 21
-13.4734
  0
LINE
  8
0
 10
-82.5942
 20
6.00294
 11
-82.7811
 21
6.02657
  0
LINE
  8
0
 10
-82.7811
 20
6.02657
 11
-82.9635
 21
6.07341
  0
LINE
  8
0
 10
-82.9635
 20
6.07341
 11
-83.1387
 21
6.14275
  0
LINE
  8
0
 10
-83.1387
 20
6.14275
 11
-83.3037
 21
6.23351
  0
LINE
  8
0
 10
-83.3037
 20
6.23351
 11
-83.4561
 21
6.34422
  0
LINE
  8
0
 10
-83.4561
 20
6.34422
 11
-83.5934
 21
6.47318
  0
LINE
  8
0
 10
-83.5934
 20
6.47318
 11
-83.7135
 21
6.61832
  0
LINE
  8
0
 10
-83.7135
 20
6.61832
 11
-83.8145
 21
6.77736
  0
LINE
  8
0
 10
-83.8145
 20
6.77736
 11
-83.8947
 21
6.9478
  0
LINE
  8
0
 10
-83.8947
 20
6.9478
 11
-83.9529
 21
7.12695
  0
LINE
  8
0
 10
-83.9529
 20
7.12695
 11
-83.9882
 21
7.312
  0
LINE
  8
0
 10
-83.9882
 20
7.312
 11
-84
 21
7.5
  0
LINE
  8
0
 10
-84
 20
7.5
 11
-83.9882
 21
7.68799
  0
LINE
  8
0
 10
-83.9882
 20
7.68799
 11
-83.9529
 21
7.87303
  0
LINE
  8
0
 10
-83.9529
 20
7.87303
 11
-83.8947
 21
8.05219
  0
LINE
  8
0
 10
-83.8947
 20
8.05219
 11
-83.8145
 21
8.22263
  0
LINE
  8
0
 10
-83.8145
 20
8.22263
 11
-83.7135
 21
8.38167
  0
LINE
  8
0
 10
-83.7135
 20
8.38167
 11
-83.5934
 21
8.52681
  0
LINE
  8
0
 10
-83.5934
 20
8.52681
 11
-83.4561
 21
8.65576
  0
LINE
  8
0
 10
-83.4561
 20
8.65576
 11
-83.3037
 21
8.76648
  0
LINE
  8
0
 10
-83.3037
 20
8.76648
 11
-83.1387
 21
8.85724
  0
LINE
  8
0
 10
-83.1387
 20
8.85724
 11
-82.9635
 21
8.92657
  0
LINE
  8
0
 10
-82.9635
 20
8.92657
 11
-82.7811
 21
8.97342
  0
LINE
  8
0
 10
-82.7811
 20
8.97342
 11
-82.5942
 21
8.99704
  0
LINE
  8
0
 10
-82.5942
 20
8.99704
 11
-82.4058
 21
8.99704
  0
LINE
  8
0
 10
-82.4058
 20
8.99704
 11
-82.2189
 21
8.97342
  0
LINE
  8
0
 10
-82.2189
 20
8.97342
 11
-82.0365
 21
8.92657
  0
LINE
  8
0
 10
-82.0365
 20
8.92657
 11
-81.8613
 21
8.85724
  0
LINE
  8
0
 10
-81.8613
 20
8.85724
 11
-81.6963
 21
8.76648
  0
LINE
  8
0
 10
-81.6963
 20
8.76648
 11
-81.5439
 21
8.65576
  0
LINE
  8
0
 10
-81.5439
 20
8.65576
 11
-81.4065
 21
8.52681
  0
LINE
  8
0
 10
-81.4065
 20
8.52681
 11
-81.2865
 21
8.38167
  0
LINE
  8
0
 10
-81.2865
 20
8.38167
 11
-81.1855
 21
8.22263
  0
LINE
  8
0
 10
-81.1855
 20
8.22263
 11
-81.1053
 21
8.05219
  0
LINE
  8
0
 10
-81.1053
 20
8.05219
 11
-81.0471
 21
7.87303
  0
LINE
  8
0
 10
-81.0471
 20
7.87303
 11
-81.0118
 21
7.68799
  0
LINE
  8
0
 10
-81.0118
 20
7.68799
 11
-81
 21
7.5
  0
LINE
  8
0
 10
-81
 20
7.5
 11
-81.0118
 21
7.312
  0
LINE
  8
0
 10
-81.0118
 20
7.312
 11
-81.0471
 21
7.12695
  0
LINE
  8
0
 10
-81.0471
 20
7.12695
 11
-81.1053
 21
6.9478
  0
LINE
  8
0
 10
-81.1053
 20
6.9478
 11
-81.1855
 21
6.77736
  0
LINE
  8
0
 10
-81.1855
 20
6.77736
 11
-81.2865
 21
6.61832
  0
LINE
  8
0
 10
-81.2865
 20
6.61832
 11
-81.4065
 21
6.47318
  0
LINE
  8
0
 10
-81.4065
 20
6.47318
 11
-81.5439
 21
6.34422
  0
LINE
  8
0
 10
-81.5439
 20
6.34422
 11
-81.6963
 21
6.23351
  0
LINE
  8
0
 10
-81.6963
 20
6.23351
 11
-81.8613
 21
6.14275
  0
LINE
  8
0
 10
-81.8613
 20
6.14275
 11
-82.0365
 21
6.07341
  0
LINE
  8
0
 10
-82.0365
 20
6.07341
 11
-82.2189
 21
6.02657
  0
LINE
  8
0
 10
-82.2189
 20
6.02657
 11
-82.4058
 21
6.00294
  0
LINE
  8
0
 10
-82.4058
 20
6.00294
 11
-82.5942
 21
6.00294
  0
LINE
  8
0
 10
82.4058
 20
6.00294
 11
82.2189
 21
6.02657
  0
LINE
  8
0
 10
82.2189
 20
6.02657
 11
82.0365
 21
6.07341
  0
LINE
  8
0
 10
82.0365
 20
6.07341
 11
81.8613
 21
6.14275
  0
LINE
  8
0
 10
81.8613
 20
6.14275
 11
81.6963
 21
6.23351
  0
LINE
  8
0
 10
81.6963
 20
6.23351
 11
81.5439
 21
6.34422
  0
LINE
  8
0
 10
81.5439
 20
6.34422
 11
81.4065
 21
6.47318
  0
LINE
  8
0
 10
81.4065
 20
6.47318
 11
81.2865
 21
6.61832
  0
LINE
  8
0
 10
81.2865
 20
6.61832
 11
81.1855
 21
6.77736
  0
LINE
  8
0
 10
81.1855
 20
6.77736
 11
81.1053
 21
6.9478
  0
LINE
  8
0
 10
81.1053
 20
6.9478
 11
81.0471
 21
7.12695
  0
LINE
  8
0
 10
81.0471
 20
7.12695
 11
81.0118
 21
7.312
  0
LINE
  8
0
 10
81.0118
 20
7.312
 11
81
 21
7.5
  0
LINE
  8
0
 10
81
 20
7.5
 11
81.0118
 21
7.68799
  0
LINE
  8
0
 10
81.0118
 20
7.68799
 11
81.0471
 21
7.87303
  0
LINE
  8
0
 10
81.0471
 20
7.87303
 11
81.1053
 21
8.05219
  0
LINE
  8
0
 10
81.1053
 20
8.05219
 11
81.1855
 21
8.22263
  0
LINE
  8
0
 10
81.1855
 20
8.22263
 11
81.2865
 21
8.38167
  0
LINE
  8
0
 10
81.2865
 20
8.38167
 11
81.4065
 21
8.52681
  0
LINE
  8
0
 10
81.4065
 20
8.52681
 11
81.5439
 21
8.65576
  0
LINE
  8
0
 10
81.5439
 20
8.65576
 11
81.6963
 21
8.76648
  0
LINE
  8
0
 10
81.6963
 20
8.76648
 11
81.8613
 21
8.85724
  0
LINE
  8
0
 10
81.8613
 20
8.85724
 11
82.0365
 21
8.92657
  0
LINE
  8
0
 10
82.0365
 20
8.92657
 11
82.2189
 21
8.97342
  0
LINE
  8
0
 10
82.2189
 20
8.97342
 11
82.4058
 21
8.99704
  0
LINE
  8
0
 10
82.4058
 20
8.99704
 11
82.5942
 21
8.99704
  0
LINE
  8
0
 10
82.5942
 20
8.99704
 11
82.7811
 21
8.97342
  0
LINE
  8
0
 10
82.7811
 20
8.97342
 11
82.9635
 21
8.92657
  0
LINE
  8
0
 10
82.9635
 20
8.92657
 11
83.1387
 21
8.85724
  0
LINE
  8
0
 10
83.1387
 20
8.85724
 11
83.3037
 21
8.76648
  0
LINE
  8
0
 10
83.3037
 20
8.76648
 11
83.4561
 21
8.65576
  0
LINE
  8
0
 10
83.4561
 20
8.65576
 11
83.5934
 21
8.52681
  0
LINE
  8
0
 10
83.5934
 20
8.52681
 11
83.7135
 21
8.38167
  0
LINE
  8
0
 10
83.7135
 20
8.38167
 11
83.8145
 21
8.22263
  0
LINE
  8
0
 10
83.8145
 20
8.22263
 11
83.8947
 21
8.05219
  0
LINE
  8
0
 10
83.8947
 20
8.05219
 11
83.9529
 21
7.87303
  0
LINE
  8
0
 10
83.9529
 20
7.87303
 11
83.9882
 21
7.68799
  0
LINE
  8
0
 10
83.9882
 20
7.68799
 11
84
 21
7.5
  0
LINE
  8
0
 10
84
 20
7.5
 11
83.9882
 21
7.312
  0
LINE
  8
0
 10
83.9882
 20
7.312
 11
83.9529
 21
7.12695
  0
LINE
  8
0
 10
83.9529
 20
7.12695
 11
83.8947
 21
6.9478
  0
LINE
  8
0
 10
83.8947
 20
6.9478
 11
83.8145
 21
6.77736
  0
LINE
  8
0
 10
83.8145
 20
6.77736
 11
83.7135
 21
6.61832
  0
LINE
  8
0
 10
83.7135
 20
6.61832
 11
83.5934
 21
6.47318
  0
LINE
  8
0
 10
83.5934
 20
6.47318
 11
83.4561
 21
6.34422
  0
LINE
  8
0
 10
83.4561
 20
6.34422
 11
83.3037
 21
6.23351
  0
LINE
  8
0
 10
83.3037
 20
6.23351
 11
83.1387
 21
6.14275
  0
LINE
  8
0
 10
83.1387
 20
6.14275
 11
82.9635
 21
6.07341
  0
LINE
  8
0
 10
82.9635
 20
6.07341
 11
82.7811
 21
6.02657
  0
LINE
  8
0
 10
82.7811
 20
6.02657
 11
82.5942
 21
6.00294
  0
LINE
  8
0
 10
82.5942
 20
6.00294
 11
82.4058
 21
6.00294
  0
LINE
  8
0
 10
-82.6884
 20
-2.99408
 11
-83.0621
 21
-2.94685
  0
LINE
  8
0
 10
-83.0621
 20
-2.94685
 11
-83.427
 21
-2.85316
  0
LINE
  8
0
 10
-83.427
 20
-2.85316
 11
-83.7773
 21
-2.71448
  0
LINE
  8
0
 10
-83.7773
 20
-2.71448
 11
-84.1075
 21
-2.53297
  0
LINE
  8
0
 10
-84.1075
 20
-2.53297
 11
-84.4123
 21
-2.31154
  0
LINE
  8
0
 10
-84.4123
 20
-2.31154
 11
-84.6869
 21
-2.05363
  0
LINE
  8
0
 10
-84.6869
 20
-2.05363
 11
-84.927
 21
-1.76335
  0
LINE
  8
0
 10
-84.927
 20
-1.76335
 11
-85.1289
 21
-1.44525
  0
LINE
  8
0
 10
-85.1289
 20
-1.44525
 11
-85.2893
 21
-1.10437
  0
LINE
  8
0
 10
-85.2893
 20
-1.10437
 11
-85.4057
 21
-0.746063
  0
LINE
  8
0
 10
-85.4057
 20
-0.746063
 11
-85.4763
 21
-0.375992
  0
LINE
  8
0
 10
-85.4763
 20
-0.375992
 11
-85.5
 21
0
  0
LINE
  8
0
 10
-85.5
 20
0
 11
-85.4763
 21
0.375992
  0
LINE
  8
0
 10
-85.4763
 20
0.375992
 11
-85.4057
 21
0.746063
  0
LINE
  8
0
 10
-85.4057
 20
0.746063
 11
-85.2893
 21
1.10437
  0
LINE
  8
0
 10
-85.2893
 20
1.10437
 11
-85.1289
 21
1.44525
  0
LINE
  8
0
 10
-85.1289
 20
1.44525
 11
-84.927
 21
1.76335
  0
LINE
  8
0
 10
-84.927
 20
1.76335
 11
-84.6869
 21
2.05363
  0
LINE
  8
0
 10
-84.6869
 20
2.05363
 11
-84.4123
 21
2.31154
  0
LINE
  8
0
 10
-84.4123
 20
2.31154
 11
-84.1075
 21
2.53297
  0
LINE
  8
0
 10
-84.1075
 20
2.53297
 11
-83.7773
 21
2.71448
  0
LINE
  8
0
 10
-83.7773
 20
2.71448
 11
-83.427
 21
2.85316
  0
LINE
  8
0
 10
-83.427
 20
2.85316
 11
-83.0621
 21
2.94685
  0
LINE
  8
0
 10
-83.0621
 20
2.94685
 11
-82.6884
 21
2.99408
  0
LINE
  8
0
 10
-82.6884
 20
2.99408
 11
-82.3116
 21
2.99408
  0
LINE
  8
0
 10
-82.3116
 20
2.99408
 11
-81.9379
 21
2.94685
  0
LINE
  8
0
 10
-81.9379
 20
2.94685
 11
-81.573
 21
2.85316
  0
LINE
  8
0
 10
-81.573
 20
2.85316
 11
-81.2227
 21
2.71448
  0
LINE
  8
0
 10
-81.2227
 20
2.71448
 11
-80.8925
 21
2.53297
  0
LINE
  8
0
 10
-80.8925
 20
2.53297
 11
-80.5877
 21
2.31154
  0
LINE
  8
0
 10
-80.5877
 20
2.31154
 11
-80.3131
 21
2.05363
  0
LINE
  8
0
 10
-80.3131
 20
2.05363
 11
-80.073
 21
1.76335
  0
LINE
  8
0
 10
-80.073
 20
1.76335
 11
-79.8711
 21
1.44525
  0
LINE
  8
0
 10
-79.8711
 20
1.44525
 11
-79.7107
 21
1.10437
  0
LINE
  8
0
 10
-79.7107
 20
1.10437
 11
-79.5943
 21
0.746063
  0
LINE
  8
0
 10
-79.5943
 20
0.746063
 11
-79.5237
 21
0.375992
  0
LINE
  8
0
 10
-79.5237
 20
0.375992
 11
-79.5
 21
0
  0
LINE
  8
0
 10
-79.5
 20
0
 11
-79.5237
 21
-0.375992
  0
LINE
  8
0
 10
-79.5237
 20
-0.375992
 11
-79.5943
 21
-0.746063
  0
LINE
  8
0
 10
-79.5943
 20
-0.746063
 11
-79.7107
 21
-1.10437
  0
LINE
  8
0
 10
-79.7107
 20
-1.10437
 11
-79.8711
 21
-1.44525
  0
LINE
  8
0
 10
-79.8711
 20
-1.44525
 11
-80.073
 21
-1.76335
  0
LINE
  8
0
 10
-80.073
 20
-1.76335
 11
-80.3131
 21
-2.05363
  0
LINE
  8
0
 10
-80.3131
 20
-2.05363
 11
-80.5877
 21
-2.31154
  0
LINE
  8
0
 10
-80.5877
 20
-2.31154
 11
-80.8925
 21
-2.53297
  0
LINE
  8
0
 10
-80.8925
 20
-2.53297
 11
-81.2227
 21
-2.71448
  0
LINE
  8
0
 10
-81.2227
 20
-2.71448
 11
-81.573
 21
-2.85316
  0
LINE
  8
0
 10
-81.573
 20
-2.85316
 11
-81.9379
 21
-2.94685
  0
LINE
  8
0
 10
-81.9379
 20
-2.94685
 11
-82.3116
 21
-2.99408
  0
LINE
  8
0
 10
-82.3116
 20
-2.99408
 11
-82.6884
 21
-2.99408
  0
LINE
  8
0
 10
82.3116
 20
-2.99408
 11
81.9379
 21
-2.94685
  0
LINE
  8
0
 10
81.9379
 20
-2.94685
 11
81.573
 21
-2.85316
  0
LINE
  8
0
 10
81.573
 20
-2.85316
 11
81.2227
 21
-2.71448
  0
LINE
  8
0
 10
81.2227
 20
-2.71448
 11
80.8925
 21
-2.53297
  0
LINE
  8
0
 10
80.8925
 20
-2.53297
 11
80.5877
 21
-2.31154
  0
LINE
  8
0
 10
80.5877
 20
-2.31154
 11
80.3131
 21
-2.05363
  0
LINE
  8
0
 10
80.3131
 20
-2.05363
 11
80.073
 21
-1.76335
  0
LINE
  8
0
 10
80.073
 20
-1.76335
 11
79.8711
 21
-1.44525
  0
LINE
  8
0
 10
79.8711
 20
-1.44525
 11
79.7107
 21
-1.10437
  0
LINE
  8
0
 10
79.7107
 20
-1.10437
 11
79.5943
 21
-0.746063
  0
LINE
  8
0
 10
79.5943
 20
-0.746063
 11
79.5237
 21
-0.375992
  0
LINE
  8
0
 10
79.5237
 20
-0.375992
 11
79.5
 21
0
  0
LINE
  8
0
 10
79.5
 20
0
 11
79.5237
 21
0.375992
  0
LINE
  8
0
 10
79.5237
 20
0.375992
 11
79.5943
 21
0.746063
  0
LINE
  8
0
 10
79.5943
 20
0.746063
 11
79.7107
 21
1.10437
  0
LINE
  8
0
 10
79.7107
 20
1.10437
 11
79.8711
 21
1.44525
  0
LINE
  8
0
 10
79.8711
 20
1.44525
 11
80.073
 21
1.76335
  0
LINE
  8
0
 10
80.073
 20
1.76335
 11
80.3131
 21
2.05363
  0
LINE
  8
0
 10
80.3131
 20
2.05363
 11
80.5877
 21
2.31154
  0
LINE
  8
0
 10
80.5877
 20
2.31154
 11
80.8925
 21
2.53297
  0
LINE
  8
0
 10
80.8925
 20
2.53297
 11
81.2227
 21
2.71448
  0
LINE
  8
0
 10
81.2227
 20
2.71448
 11
81.573
 21
2.85316
  0
LINE
  8
0
 10
81.573
 20
2.85316
 11
81.9379
 21
2.94685
  0
LINE
  8
0
 10
81.9379
 20
2.94685
 11
82.3116
 21
2.99408
  0
LINE
  8
0
 10
82.3116
 20
2.99408
 11
82.6884
 21
2.99408
  0
LINE
  8
0
 10
82.6884
 20
2.99408
 11
83.0621
 21
2.94685
  0
LINE
  8
0
 10
83.0621
 20
2.94685
 11
83.427
 21
2.85316
  0
LINE
  8
0
 10
83.427
 20
2.85316
 11
83.7773
 21
2.71448
  0
LINE
  8
0
 10
83.7773
 20
2.71448
 11
84.1075
 21
2.53297
  0
LINE
  8
0
 10
84.1075
 20
2.53297
 11
84.4123
 21
2.31154
  0
LINE
  8
0
 10
84.4123
 20
2.31154
 11
84.6869
 21
2.05363
  0
LINE
  8
0
 10
84.6869
 20
2.05363
 11
84.927
 21
1.76335
  0
LINE
  8
0
 10
84.927
 20
1.76335
 11
85.1289
 21
1.44525
  0
LINE
  8
0
 10
85.1289
 20
1.44525
 11
85.2893
 21
1.10437
  0
LINE
  8
0
 10
85.2893
 20
1.10437
 11
85.4057
 21
0.746063
  0
LINE
  8
0
 10
85.4057
 20
0.746063
 11
85.4763
 21
0.375992
  0
LINE
  8
0
 10
85.4763
 20
0.375992
 11
85.5
 21
0
  0
LINE
  8
0
 10
85.5
 20
0
 11
85.4763
 21
-0.375992
  0
LINE
  8
0
 10
85.4763
 20
-0.375992
 11
85.4057
 21
-0.746063
  0
LINE
  8
0
 10
85.4057
 20
-0.746063
 11
85.2893
 21
-1.10437
  0
LINE
  8
0
 10
85.2893
 20
-1.10437
 11
85.1289
 21
-1.44525
  0
LINE
  8
0
 10
85.1289
 20
-1.44525
 11
84.927
 21
-1.76335
  0
LINE
  8
0
 10
84.927
 20
-1.76335
 11
84.6869
 21
-2.05363
  0
LINE
  8
0
 10
84.6869
 20
-2.05363
 11
84.4123
 21
-2.31154
  0
LINE
  8
0
 10
84.4123
 20
-2.31154
 11
84.1075
 21
-2.53297
  0
LINE
  8
0
 10
84.1075
 20
-2.53297
 11
83.7773
 21
-2.71448
  0
LINE
  8
0
 10
83.7773
 20
-2.71448
 11
83.427
 21
-2.85316
  0
LINE
  8
0
 10
83.427
 20
-2.85316
 11
83.0621
 21
-2.94685
  0
LINE
  8
0
 10
83.0621
 20
-2.94685
 11
82.6884
 21
-2.99408
  0
LINE
  8
0
 10
82.6884
 20
-2.99408
 11
82.3116
 21
-2.99408
  0
LINE
  8
0
 10
82.4058
 20
-8.99704
 11
82.2189
 21
-8.97342
  0
LINE
  8
0
 10
82.2189
 20
-8.97342
 11
82.0365
 21
-8.92657
  0
LINE
  8
0
 10
82.0365
 20
-8.92657
 11
81.8613
 21
-8.85724
  0
LINE
  8
0
 10
81.8613
 20
-8.85724
 11
81.6963
 21
-8.76648
  0
LINE
  8
0
 10
81.6963
 20
-8.76648
 11
81.5439
 21
-8.65576
  0
LINE
  8
0
 10
81.5439
 20
-8.65576
 11
81.4065
 21
-8.52681
  0
LINE
  8
0
 10
81.4065
 20
-8.52681
 11
81.2865
 21
-8.38167
  0
LINE
  8
0
 10
81.2865
 20
-8.38167
 11
81.1855
 21
-8.22263
  0
LINE
  8
0
 10
81.1855
 20
-8.22263
 11
81.1053
 21
-8.05219
  0
LINE
  8
0
 10
81.1053
 20
-8.05219
 11
81.0471
 21
-7.87303
  0
LINE
  8
0
 10
81.0471
 20
-7.87303
 11
81.0118
 21
-7.68799
  0
LINE
  8
0
 10
81.0118
 20
-7.68799
 11
81
 21
-7.5
  0
LINE
  8
0
 10
81
 20
-7.5
 11
81.0118
 21
-7.312
  0
LINE
  8
0
 10
81.0118
 20
-7.312
 11
81.0471
 21
-7.12695
  0
LINE
  8
0
 10
81.0471
 20
-7.12695
 11
81.1053
 21
-6.9478
  0
LINE
  8
0
 10
81.1053
 20
-6.9478
 11
81.1855
 21
-6.77736
  0
LINE
  8
0
 10
81.1855
 20
-6.77736
 11
81.2865
 21
-6.61832
  0
LINE
  8
0
 10
81.2865
 20
-6.61832
 11
81.4065
 21
-6.47318
  0
LINE
  8
0
 10
81.4065
 20
-6.47318
 11
81.5439
 21
-6.34422
  0
LINE
  8
0
 10
81.5439
 20
-6.34422
 11
81.6963
 21
-6.23351
  0
LINE
  8
0
 10
81.6963
 20
-6.23351
 11
81.8613
 21
-6.14275
  0
LINE
  8
0
 10
81.8613
 20
-6.14275
 11
82.0365
 21
-6.07341
  0
LINE
  8
0
 10
82.0365
 20
-6.07341
 11
82.2189
 21
-6.02657
  0
LINE
  8
0
 10
82.2189
 20
-6.02657
 11
82.4058
 21
-6.00294
  0
LINE
  8
0
 10
82.4058
 20
-6.00294
 11
82.5942
 21
-6.00294
  0
LINE
  8
0
 10
82.5942
 20
-6.00294
 11
82.7811
 21
-6.02657
  0
LINE
  8
0
 10
82.7811
 20
-6.02657
 11
82.9635
 21
-6.07341
  0
LINE
  8
0
 10
82.9635
 20
-6.07341
 11
83.1387
 21
-6.14275
  0
LINE
  8
0
 10
83.1387
 20
-6.14275
 11
83.3037
 21
-6.23351
  0
LINE
  8
0
 10
83.3037
 20
-6.23351
 11
83.4561
 21
-6.34422
  0
LINE
  8
0
 10
83.4561
 20
-6.34422
 11
83.5934
 21
-6.47318
  0
LINE
  8
0
 10
83.5934
 20
-6.47318
 11
83.7135
 21
-6.61832
  0
LINE
  8
0
 10
83.7135
 20
-6.61832
 11
83.8145
 21
-6.77736
  0
LINE
  8
0
 10
83.8145
 20
-6.77736
 11
83.8947
 21
-6.9478
  0
LINE
  8
0
 10
83.8947
 20
-6.9478
 11
83.9529
 21
-7.12695
  0
LINE
  8
0
 10
83.9529
 20
-7.12695
 11
83.9882
 21
-7.312
  0
LINE
  8
0
 10
83.9882
 20
-7.312
 11
84
 21
-7.5
  0
LINE
  8
0
 10
84
 20
-7.5
 11
83.9882
 21
-7.68799
  0
LINE
  8
0
 10
83.9882
 20
-7.68799
 11
83.9529
 21
-7.87303
  0
LINE
  8
0
 10
83.9529
 20
-7.87303
 11
83.8947
 21
-8.05219
  0
LINE
  8
0
 10
83.8947
 20
-8.05219
 11
83.8145
 21
-8.22263
  0
LINE
  8
0
 10
83.8145
 20
-8.22263
 11
83.7135
 21
-8.38167
  0
LINE
  8
0
 10
83.7135
 20
-8.38167
 11
83.5934
 21
-8.52681
  0
LINE
  8
0
 10
83.5934
 20
-8.52681
 11
83.4561
 21
-8.65576
  0
LINE
  8
0
 10
83.4561
 20
-8.65576
 11
83.3037
 21
-8.76648
  0
LINE
  8
0
 10
83.3037
 20
-8.76648
 11
83.1387
 21
-8.85724
  0
LINE
  8
0
 10
83.1387
 20
-8.85724
 11
82.9635
 21
-8.92657
  0
LINE
  8
0
 10
82.9635
 20
-8.92657
 11
82.7811
 21
-8.97342
  0
LINE
  8
0
 10
82.7811
 20
-8.97342
 11
82.5942
 21
-8.99704
  0
LINE
  8
0
 10
82.5942
 20
-8.99704
 11
82.4058
 21
-8.99704
  0
LINE
  8
0
 10
-82.5942
 20
-8.99704
 11
-82.7811
 21
-8.97342
  0
LINE
  8
0
 10
-82.7811
 20
-8.97342
 11
-82.9635
 21
-8.92657
  0
LINE
  8
0
 10
-82.9635
 20
-8.92657
 11
-83.1387
 21
-8.85724
  0
LINE
  8
0
 10
-83.1387
 20
-8.85724
 11
-83.3037
 21
-8.76648
  0
LINE
  8
0
 10
-83.3037
 20
-8.76648
 11
-83.4561
 21
-8.65576
  0
LINE
  8
0
 10
-83.4561
 20
-8.65576
 11
-83.5934
 21
-8.52681
  0
LINE
  8
0
 10
-83.5934
 20
-8.52681
 11
-83.7135
 21
-8.38167
  0
LINE
  8
0
 10
-83.7135
 20
-8.38167
 11
-83.8145
 21
-8.22263
  0
LINE
  8
0
 10
-83.8145
 20
-8.22263
 11
-83.8947
 21
-8.05219
  0
LINE
  8
0
 10
-83.8947
 20
-8.05219
 11
-83.9529
 21
-7.87303
  0
LINE
  8
0
 10
-83.9529
 20
-7.87303
 11
-83.9882
 21
-7.68799
  0
LINE
  8
0
 10
-83.9882
 20
-7.68799
 11
-84
 21
-7.5
  0
LINE
  8
0
 10
-84
 20
-7.5
 11
-83.9882
 21
-7.312
  0
LINE
  8
0
 10
-83.9882
 20
-7.312
 11
-83.9529
 21
-7.12695
  0
LINE
  8
0
 10
-83.9529
 20
-7.12695
 11
-83.8947
 21
-6.9478
  0
LINE
  8
0
 10
-83.8947
 20
-6.9478
 11
-83.8145
 21
-6.77736
  0
LINE
  8
0
 10
-83.8145
 20
-6.77736
 11
-83.7135
 21
-6.61832
  0
LINE
  8
0
 10
-83.7135
 20
-6.61832
 11
-83.5934
 21
-6.47318
  0
LINE
  8
0
 10
-83.5934
 20
-6.47318
 11
-83.4561
 21
-6.34422
  0
LINE
  8
0
 10
-83.4561
 20
-6.34422
 11
-83.3037
 21
-6.23351
  0
LINE
  8
0
 10
-83.3037
 20
-6.23351
 11
-83.1387
 21
-6.14275
  0
LINE
  8
0
 10
-83.1387
 20
-6.14275
 11
-82.9635
 21
-6.07341
  0
LINE
  8
0
 10
-82.9635
 20
-6.07341
 11
-82.7811
 21
-6.02657
  0
LINE
  8
0
 10
-82.7811
 20
-6.02657
 11
-82.5942
 21
-6.00294
  0
LINE
  8
0
 10
-82.5942
 20
-6.00294
 11
-82.4058
 21
-6.00294
  0
LINE
  8
0
 10
-82.4058
 20
-6.00294
 11
-82.2189
 21
-6.02657
  0
LINE
  8
0
 10
-82.2189
 20
-6.02657
 11
-82.0365
 21
-6.07341
  0
LINE
  8
0
 10
-82.0365
 20
-6.07341
 11
-81.8613
 21
-6.14275
  0
LINE
  8
0
 10
-81.8613
 20
-6.14275
 11
-81.6963
 21
-6.23351
  0
LINE
  8
0
 10
-81.6963
 20
-6.23351
 11
-81.5439
 21
-6.34422
  0
LINE
  8
0
 10
-81.5439
 20
-6.34422
 11
-81.4065
 21
-6.47318
  0
LINE
  8
0
 10
-81.4065
 20
-6.47318
 11
-81.2865
 21
-6.61832
  0
LINE
  8
0
 10
-81.2865
 20
-6.61832
 11
-81.1855
 21
-6.77736
  0
LINE
  8
0
 10
-81.1855
 20
-6.77736
 11
-81.1053
 21
-6.9478
  0
LINE
  8
0
 10
-81.1053
 20
-6.9478
 11
-81.0471
 21
-7.12695
  0
LINE
  8
0
 10
-81.0471
 20
-7.12695
 11
-81.0118
 21
-7.312
  0
LINE
  8
0
 10
-81.0118
 20
-7.312
 11
-81
 21
-7.5
  0
LINE
  8
0
 10
-81
 20
-7.5
 11
-81.0118
 21
-7.68799
  0
LINE
  8
0
 10
-81.0118
 20
-7.68799
 11
-81.0471
 21
-7.87303
  0
LINE
  8
0
 10
-81.0471
 20
-7.87303
 11
-81.1053
 21
-8.05219
  0
LINE
  8
0
 10
-81.1053
 20
-8.05219
 11
-81.1855
 21
-8.22263
  0
LINE
  8
0
 10
-81.1855
 20
-8.22263
 11
-81.2865
 21
-8.38167
  0
LINE
  8
0
 10
-81.2865
 20
-8.38167
 11
-81.4065
 21
-8.52681
  0
LINE
  8
0
 10
-81.4065
 20
-8.52681
 11
-81.5439
 21
-8.65576
  0
LINE
  8
0
 10
-81.5439
 20
-8.65576
 11
-81.6963
 21
-8.76648
  0
LINE
  8
0
 10
-81.6963
 20
-8.76648
 11
-81.8613
 21
-8.85724
  0
LINE
  8
0
 10
-81.8613
 20
-8.85724
 11
-82.0365
 21
-8.92657
  0
LINE
  8
0
 10
-82.0365
 20
-8.92657
 11
-82.2189
 21
-8.97342
  0
LINE
  8
0
 10
-82.2189
 20
-8.97342
 11
-82.4058
 21
-8.99704
  0
LINE
  8
0
 10
-82.4058
 20
-8.99704
 11
-82.5942
 21
-8.99704
  0
LINE
  8
0
 10
-82.6884
 20
-17.9941
 11
-83.0621
 21
-17.9469
  0
LINE
  8
0
 10
-83.0621
 20
-17.9469
 11
-83.427
 21
-17.8532
  0
LINE
  8
0
 10
-83.427
 20
-17.8532
 11
-83.7773
 21
-17.7145
  0
LINE
  8
0
 10
-83.7773
 20
-17.7145
 11
-84.1075
 21
-17.533
  0
LINE
  8
0
 10
-84.1075
 20
-17.533
 11
-84.4123
 21
-17.3115
  0
LINE
  8
0
 10
-84.4123
 20
-17.3115
 11
-84.6869
 21
-17.0536
  0
LINE
  8
0
 10
-84.6869
 20
-17.0536
 11
-84.927
 21
-16.7634
  0
LINE
  8
0
 10
-84.927
 20
-16.7634
 11
-85.1289
 21
-16.4453
  0
LINE
  8
0
 10
-85.1289
 20
-16.4453
 11
-85.2893
 21
-16.1044
  0
LINE
  8
0
 10
-85.2893
 20
-16.1044
 11
-85.4057
 21
-15.7461
  0
LINE
  8
0
 10
-85.4057
 20
-15.7461
 11
-85.4763
 21
-15.376
  0
LINE
  8
0
 10
-85.4763
 20
-15.376
 11
-85.5
 21
-15
  0
LINE
  8
0
 10
-85.5
 20
-15
 11
-85.4763
 21
-14.624
  0
LINE
  8
0
 10
-85.4763
 20
-14.624
 11
-85.4057
 21
-14.2539
  0
LINE
  8
0
 10
-85.4057
 20
-14.2539
 11
-85.2893
 21
-13.8956
  0
LINE
  8
0
 10
-85.2893
 20
-13.8956
 11
-85.1289
 21
-13.5547
  0
LINE
  8
0
 10
-85.1289
 20
-13.5547
 11
-84.927
 21
-13.2366
  0
LINE
  8
0
 10
-84.927
 20
-13.2366
 11
-84.6869
 21
-12.9464
  0
LINE
  8
0
 10
-84.6869
 20
-12.9464
 11
-84.4123
 21
-12.6884
  0
LINE
  8
0
 10
-84.4123
 20
-12.6884
 11
-84.1075
 21
-12.467
  0
LINE
  8
0
 10
-84.1075
 20
-12.467
 11
-83.7773
 21
-12.2855
  0
LINE
  8
0
 10
-83.7773
 20
-12.2855
 11
-83.427
 21
-12.1468
  0
LINE
  8
0
 10
-83.427
 20
-12.1468
 11
-83.0621
 21
-12.0531
  0
LINE
  8
0
 10
-83.0621
 20
-12.0531
 11
-82.6884
 21
-12.0059
  0
LINE
  8
0
 10
-82.6884
 20
-12.0059
 11
-82.3116
 21
-12.0059
  0
LINE
  8
0
 10
-82.3116
 20
-12.0059
 11
-81.9379
 21
-12.0531
  0
LINE
  8
0
 10
-81.9379
 20
-12.0531
 11
-81.573
 21
-12.1468
  0
LINE
  8
0
 10
-81.573
 20
-12.1468
 11
-81.2227
 21
-12.2855
  0
LINE
  8
0
 10
-81.2227
 20
-12.2855
 11
-80.8925
 21
-12.467
  0
LINE
  8
0
 10
-80.8925
 20
-12.467
 11
-80.5877
 21
-12.6884
  0
LINE
  8
0
 10
-80.5877
 20
-12.6884
 11
-80.3131
 21
-12.9464
  0
LINE
  8
0
 10
-80.3131
 20
-12.9464
 11
-80.073
 21
-13.2366
  0
LINE
  8
0
 10
-80.073
 20
-13.2366
 11
-79.8711
 21
-13.5547
  0
LINE
  8
0
 10
-79.8711
 20
-13.5547
 11
-79.7107
 21
-13.8956
  0
LINE
  8
0
 10
-79.7107
 20
-13.8956
 11
-79.5943
 21
-14.2539
  0
LINE
  8
0
 10
-79.5943
 20
-14.2539
 11
-79.5237
 21
-14.624
  0
LINE
  8
0
 10
-79.5237
 20
-14.624
 11
-79.5
 21
-15
  0
LINE
  8
0
 10
-79.5
 20
-15
 11
-79.5237
 21
-15.376
  0
LINE
  8
0
 10
-79.5237
 20
-15.376
 11
-79.5943
 21
-15.7461
  0
LINE
  8
0
 10
-79.5943
 20
-15.7461
 11
-79.7107
 21
-16.1044
  0
LINE
  8
0
 10
-79.7107
 20
-16.1044
 11
-79.8711
 21
-16.4453
  0
LINE
  8
0
 10
-79.8711
 20
-16.4453
 11
-80.073
 21
-16.7634
  0
LINE
  8
0
 10
-80.073
 20
-16.7634
 11
-80.3131
 21
-17.0536
  0
LINE
  8
0
 10
-80.3131
 20
-17.0536
 11
-80.5877
 21
-17.3115
  0
LINE
  8
0
 10
-80.5877
 20
-17.3115
 11
-80.8925
 21
-17.533
  0
LINE
  8
0
 10
-80.8925
 20
-17.533
 11
-81.2227
 21
-17.7145
  0
LINE
  8
0
 10
-81.2227
 20
-17.7145
 11
-81.573
 21
-17.8532
  0
LINE
  8
0
 10
-81.573
 20
-17.8532
 11
-81.9379
 21
-17.9469
  0
LINE
  8
0
 10
-81.9379
 20
-17.9469
 11
-82.3116
 21
-17.9941
  0
LINE
  8
0
 10
-82.3116
 20
-17.9941
 11
-82.6884
 21
-17.9941
  0
LINE
  8
0
 10
82.3116
 20
-17.9941
 11
81.9379
 21
-17.9469
  0
LINE
  8
0
 10
81.9379
 20
-17.9469
 11
81.573
 21
-17.8532
  0
LINE
  8
0
 10
81.573
 20
-17.8532
 11
81.2227
 21
-17.7145
  0
LINE
  8
0
 10
81.2227
 20
-17.7145
 11
80.8925
 21
-17.533
  0
LINE
  8
0
 10
80.8925
 20
-17.533
 11
80.5877
 21
-17.3115
  0
LINE
  8
0
 10
80.5877
 20
-17.3115
 11
80.3131
 21
-17.0536
  0
LINE
  8
0
 10
80.3131
 20
-17.0536
 11
80.073
 21
-16.7634
  0
LINE
  8
0
 10
80.073
 20
-16.7634
 11
79.8711
 21
-16.4453
  0
LINE
  8
0
 10
79.8711
 20
-16.4453
 11
79.7107
 21
-16.1044
  0
LINE
  8
0
 10
79.7107
 20
-16.1044
 11
79.5943
 21
-15.7461
  0
LINE
  8
0
 10
79.5943
 20
-15.7461
 11
79.5237
 21
-15.376
  0
LINE
  8
0
 10
79.5237
 20
-15.376
 11
79.5
 21
-15
  0
LINE
  8
0
 10
79.5
 20
-15
 11
79.5237
 21
-14.624
  0
LINE
  8
0
 10
79.5237
 20
-14.624
 11
79.5943
 21
-14.2539
  0
LINE
  8
0
 10
79.5943
 20
-14.2539
 11
79.7107
 21
-13.8956
  0
LINE
  8
0
 10
79.7107
 20
-13.8956
 11
79.8711
 21
-13.5547
  0
LINE
  8
0
 10
79.8711
 20
-13.5547
 11
80.073
 21
-13.2366
  0
LINE
  8
0
 10
80.073
 20
-13.2366
 11
80.3131
 21
-12.9464
  0
LINE
  8
0
 10
80.3131
 20
-12.9464
 11
80.5877
 21
-12.6884
  0
LINE
  8
0
 10
80.5877
 20
-12.6884
 11
80.8925
 21
-12.467
  0
LINE
  8
0
 10
80.8925
 20
-12.467
 11
81.2227
 21
-12.2855
  0
LINE
  8
0
 10
81.2227
 20
-12.2855
 11
81.573
 21
-12.1468
  0
LINE
  8
0
 10
81.573
 20
-12.1468
 11
81.9379
 21
-12.0531
  0
LINE
  8
0
 10
81.9379
 20
-12.0531
 11
82.3116
 21
-12.0059
  0
LINE
  8
0
 10
82.3116
 20
-12.0059
 11
82.6884
 21
-12.0059
  0
LINE
  8
0
 10
82.6884
 20
-12.0059
 11
83.0621
 21
-12.0531
  0
LINE
  8
0
 10
83.0621
 20
-12.0531
 11
83.427
 21
-12.1468
  0
LINE
  8
0
 10
83.427
 20
-12.1468
 11
83.7773
 21
-12.2855
  0
LINE
  8
0
 10
83.7773
 20
-12.2855
 11
84.1075
 21
-12.467
  0
LINE
  8
0
 10
84.1075
 20
-12.467
 11
84.4123
 21
-12.6884
  0
LINE
  8
0
 10
84.4123
 20
-12.6884
 11
84.6869
 21
-12.9464
  0
LINE
  8
0
 10
84.6869
 20
-12.9464
 11
84.927
 21
-13.2366
  0
LINE
  8
0
 10
84.927
 20
-13.2366
 11
85.1289
 21
-13.5547
  0
LINE
  8
0
 10
85.1289
 20
-13.5547
 11
85.2893
 21
-13.8956
  0
LINE
  8
0
 10
85.2893
 20
-13.8956
 11
85.4057
 21
-14.2539
  0
LINE
  8
0
 10
85.4057
 20
-14.2539
 11
85.4763
 21
-14.624
  0
LINE
  8
0
 10
85.4763
 20
-14.624
 11
85.5
 21
-15
  0
LINE
  8
0
 10
85.5
 20
-15
 11
85.4763
 21
-15.376
  0
LINE
  8
0
 10
85.4763
 20
-15.376
 11
85.4057
 21
-15.7461
  0
LINE
  8
0
 10
85.4057
 20
-15.7461
 11
85.2893
 21
-16.1044
  0
LINE
  8
0
 10
85.2893
 20
-16.1044
 11
85.1289
 21
-16.4453
  0
LINE
  8
0
 10
85.1289
 20
-16.4453
 11
84.927
 21
-16.7634
  0
LINE
  8
0
 10
84.927
 20
-16.7634
 11
84.6869
 21
-17.0536
  0
LINE
  8
0
 10
84.6869
 20
-17.0536
 11
84.4123
 21
-17.3115
  0
LINE
  8
0
 10
84.4123
 20
-17.3115
 11
84.1075
 21
-17.533
  0
LINE
  8
0
 10
84.1075
 20
-17.533
 11
83.7773
 21
-17.7145
  0
LINE
  8
0
 10
83.7773
 20
-17.7145
 11
83.427
 21
-17.8532
  0
LINE
  8
0
 10
83.427
 20
-17.8532
 11
83.0621
 21
-17.9469
  0
LINE
  8
0
 10
83.0621
 20
-17.9469
 11
82.6884
 21
-17.9941
  0
LINE
  8
0
 10
82.6884
 20
-17.9941
 11
82.3116
 21
-17.9941
  0
ENDSEC
  0
SECTION
  2
OBJECTS
  0
DICTIONARY
  0
ENDSEC
  0
EOF
