  0
SECTION
  2
BLOCKS
  0
ENDSEC
  0
SECTION
  2
ENTITIES
  0
LINE
  8
0
 10
55.4369
 20
32.0886
 11
56.0451
 21
32.2447
  0
LINE
  8
0
 10
56.0451
 20
32.2447
 11
56.6289
 21
32.4759
  0
LINE
  8
0
 10
56.6289
 20
32.4759
 11
57.1791
 21
32.7784
  0
LINE
  8
0
 10
57.1791
 20
32.7784
 11
57.6871
 21
33.1474
  0
LINE
  8
0
 10
57.6871
 20
33.1474
 11
58.1448
 21
33.5773
  0
LINE
  8
0
 10
58.1448
 20
33.5773
 11
58.5451
 21
34.0611
  0
LINE
  8
0
 10
58.5451
 20
34.0611
 11
58.8815
 21
34.5912
  0
LINE
  8
0
 10
58.8815
 20
34.5912
 11
59.1489
 21
35.1594
  0
LINE
  8
0
 10
59.1489
 20
35.1594
 11
59.3429
 21
35.7566
  0
LINE
  8
0
 10
59.3429
 20
35.7566
 11
59.4606
 21
36.3733
  0
LINE
  8
0
 10
59.4606
 20
36.3733
 11
59.5
 21
37
  0
LINE
  8
0
 10
59.5
 20
37
 11
59.5
 21
71
  0
LINE
  8
0
 10
59.5
 20
71
 11
59.4606
 21
71.6267
  0
LINE
  8
0
 10
59.4606
 20
71.6267
 11
59.3429
 21
72.2434
  0
LINE
  8
0
 10
59.3429
 20
72.2434
 11
59.1489
 21
72.8406
  0
LINE
  8
0
 10
59.1489
 20
72.8406
 11
58.8815
 21
73.4088
  0
LINE
  8
0
 10
58.8815
 20
73.4088
 11
58.5451
 21
73.9389
  0
LINE
  8
0
 10
58.5451
 20
73.9389
 11
58.1448
 21
74.4227
  0
LINE
  8
0
 10
58.1448
 20
74.4227
 11
57.6871
 21
74.8526
  0
LINE
  8
0
 10
57.6871
 20
74.8526
 11
57.1791
 21
75.2216
  0
LINE
  8
0
 10
57.1791
 20
75.2216
 11
56.6289
 21
75.5241
  0
LINE
  8
0
 10
56.6289
 20
75.5241
 11
56.0451
 21
75.7553
  0
LINE
  8
0
 10
56.0451
 20
75.7553
 11
55.4369
 21
75.9114
  0
LINE
  8
0
 10
55.4369
 20
75.9114
 11
54.8139
 21
75.9901
  0
LINE
  8
0
 10
54.8139
 20
75.9901
 11
-54.8139
 21
75.9901
  0
LINE
  8
0
 10
-54.8139
 20
75.9901
 11
-55.4369
 21
75.9114
  0
LINE
  8
0
 10
-55.4369
 20
75.9114
 11
-56.0451
 21
75.7553
  0
LINE
  8
0
 10
-56.0451
 20
75.7553
 11
-56.6289
 21
75.5241
  0
LINE
  8
0
 10
-56.6289
 20
75.5241
 11
-57.1791
 21
75.2216
  0
LINE
  8
0
 10
-57.1791
 20
75.2216
 11
-57.6871
 21
74.8526
  0
LINE
  8
0
 10
-57.6871
 20
74.8526
 11
-58.1448
 21
74.4227
  0
LINE
  8
0
 10
-58.1448
 20
74.4227
 11
-58.5451
 21
73.9389
  0
LINE
  8
0
 10
-58.5451
 20
73.9389
 11
-58.8815
 21
73.4088
  0
LINE
  8
0
 10
-58.8815
 20
73.4088
 11
-59.1489
 21
72.8406
  0
LINE
  8
0
 10
-59.1489
 20
72.8406
 11
-59.3429
 21
72.2434
  0
LINE
  8
0
 10
-59.3429
 20
72.2434
 11
-59.4606
 21
71.6267
  0
LINE
  8
0
 10
-59.4606
 20
71.6267
 11
-59.5
 21
71
  0
LINE
  8
0
 10
-59.5
 20
71
 11
-59.5
 21
37
  0
LINE
  8
0
 10
-59.5
 20
37
 11
-59.4606
 21
36.3733
  0
LINE
  8
0
 10
-59.4606
 20
36.3733
 11
-59.3429
 21
35.7566
  0
LINE
  8
0
 10
-59.3429
 20
35.7566
 11
-59.1489
 21
35.1594
  0
LINE
  8
0
 10
-59.1489
 20
35.1594
 11
-58.8815
 21
34.5912
  0
LINE
  8
0
 10
-58.8815
 20
34.5912
 11
-58.5451
 21
34.0611
  0
LINE
  8
0
 10
-58.5451
 20
34.0611
 11
-58.1448
 21
33.5773
  0
LINE
  8
0
 10
-58.1448
 20
33.5773
 11
-57.6871
 21
33.1474
  0
LINE
  8
0
 10
-57.6871
 20
33.1474
 11
-57.1791
 21
32.7784
  0
LINE
  8
0
 10
-57.1791
 20
32.7784
 11
-56.6289
 21
32.4759
  0
LINE
  8
0
 10
-56.6289
 20
32.4759
 11
-56.0451
 21
32.2447
  0
LINE
  8
0
 10
-56.0451
 20
32.2447
 11
-55.4369
 21
32.0886
  0
LINE
  8
0
 10
-55.4369
 20
32.0886
 11
-54.8139
 21
32.0099
  0
LINE
  8
0
 10
-54.8139
 20
32.0099
 11
54.8139
 21
32.0099
  0
LINE
  8
0
 10
54.8139
 20
32.0099
 11
55.4369
 21
32.0886
  0
LINE
  8
0
 10
52.3116
 20
66.0059
 11
51.9379
 21
66.0531
  0
LINE
  8
0
 10
51.9379
 20
66.0531
 11
51.5729
 21
66.1468
  0
LINE
  8
0
 10
51.5729
 20
66.1468
 11
51.2227
 21
66.2855
  0
LINE
  8
0
 10
51.2227
 20
66.2855
 11
50.8925
 21
66.467
  0
LINE
  8
0
 10
50.8925
 20
66.467
 11
50.5877
 21
66.6884
  0
LINE
  8
0
 10
50.5877
 20
66.6884
 11
50.3131
 21
66.9464
  0
LINE
  8
0
 10
50.3131
 20
66.9464
 11
50.0729
 21
67.2366
  0
LINE
  8
0
 10
50.0729
 20
67.2366
 11
49.8711
 21
67.5547
  0
LINE
  8
0
 10
49.8711
 20
67.5547
 11
49.7107
 21
67.8956
  0
LINE
  8
0
 10
49.7107
 20
67.8956
 11
49.5942
 21
68.2539
  0
LINE
  8
0
 10
49.5942
 20
68.2539
 11
49.5237
 21
68.624
  0
LINE
  8
0
 10
49.5237
 20
68.624
 11
49.5
 21
69
  0
LINE
  8
0
 10
49.5
 20
69
 11
49.5237
 21
69.376
  0
LINE
  8
0
 10
49.5237
 20
69.376
 11
49.5942
 21
69.7461
  0
LINE
  8
0
 10
49.5942
 20
69.7461
 11
49.7107
 21
70.1044
  0
LINE
  8
0
 10
49.7107
 20
70.1044
 11
49.8711
 21
70.4453
  0
LINE
  8
0
 10
49.8711
 20
70.4453
 11
50.0729
 21
70.7634
  0
LINE
  8
0
 10
50.0729
 20
70.7634
 11
50.3131
 21
71.0536
  0
LINE
  8
0
 10
50.3131
 20
71.0536
 11
50.5877
 21
71.3115
  0
LINE
  8
0
 10
50.5877
 20
71.3115
 11
50.8925
 21
71.533
  0
LINE
  8
0
 10
50.8925
 20
71.533
 11
51.2227
 21
71.7145
  0
LINE
  8
0
 10
51.2227
 20
71.7145
 11
51.5729
 21
71.8532
  0
LINE
  8
0
 10
51.5729
 20
71.8532
 11
51.9379
 21
71.9469
  0
LINE
  8
0
 10
51.9379
 20
71.9469
 11
52.3116
 21
71.9941
  0
LINE
  8
0
 10
52.3116
 20
71.9941
 11
52.6884
 21
71.9941
  0
LINE
  8
0
 10
52.6884
 20
71.9941
 11
53.0621
 21
71.9469
  0
LINE
  8
0
 10
53.0621
 20
71.9469
 11
53.427
 21
71.8532
  0
LINE
  8
0
 10
53.427
 20
71.8532
 11
53.7773
 21
71.7145
  0
LINE
  8
0
 10
53.7773
 20
71.7145
 11
54.1075
 21
71.533
  0
LINE
  8
0
 10
54.1075
 20
71.533
 11
54.4123
 21
71.3115
  0
LINE
  8
0
 10
54.4123
 20
71.3115
 11
54.6869
 21
71.0536
  0
LINE
  8
0
 10
54.6869
 20
71.0536
 11
54.927
 21
70.7634
  0
LINE
  8
0
 10
54.927
 20
70.7634
 11
55.1289
 21
70.4453
  0
LINE
  8
0
 10
55.1289
 20
70.4453
 11
55.2893
 21
70.1044
  0
LINE
  8
0
 10
55.2893
 20
70.1044
 11
55.4057
 21
69.7461
  0
LINE
  8
0
 10
55.4057
 20
69.7461
 11
55.4763
 21
69.376
  0
LINE
  8
0
 10
55.4763
 20
69.376
 11
55.5
 21
69
  0
LINE
  8
0
 10
55.5
 20
69
 11
55.4763
 21
68.624
  0
LINE
  8
0
 10
55.4763
 20
68.624
 11
55.4057
 21
68.2539
  0
LINE
  8
0
 10
55.4057
 20
68.2539
 11
55.2893
 21
67.8956
  0
LINE
  8
0
 10
55.2893
 20
67.8956
 11
55.1289
 21
67.5547
  0
LINE
  8
0
 10
55.1289
 20
67.5547
 11
54.927
 21
67.2366
  0
LINE
  8
0
 10
54.927
 20
67.2366
 11
54.6869
 21
66.9464
  0
LINE
  8
0
 10
54.6869
 20
66.9464
 11
54.4123
 21
66.6884
  0
LINE
  8
0
 10
54.4123
 20
66.6884
 11
54.1075
 21
66.467
  0
LINE
  8
0
 10
54.1075
 20
66.467
 11
53.7773
 21
66.2855
  0
LINE
  8
0
 10
53.7773
 20
66.2855
 11
53.427
 21
66.1468
  0
LINE
  8
0
 10
53.427
 20
66.1468
 11
53.0621
 21
66.0531
  0
LINE
  8
0
 10
53.0621
 20
66.0531
 11
52.6884
 21
66.0059
  0
LINE
  8
0
 10
52.6884
 20
66.0059
 11
52.3116
 21
66.0059
  0
LINE
  8
0
 10
-52.6884
 20
66.0059
 11
-53.0621
 21
66.0531
  0
LINE
  8
0
 10
-53.0621
 20
66.0531
 11
-53.427
 21
66.1468
  0
LINE
  8
0
 10
-53.427
 20
66.1468
 11
-53.7773
 21
66.2855
  0
LINE
  8
0
 10
-53.7773
 20
66.2855
 11
-54.1075
 21
66.467
  0
LINE
  8
0
 10
-54.1075
 20
66.467
 11
-54.4123
 21
66.6884
  0
LINE
  8
0
 10
-54.4123
 20
66.6884
 11
-54.6869
 21
66.9464
  0
LINE
  8
0
 10
-54.6869
 20
66.9464
 11
-54.927
 21
67.2366
  0
LINE
  8
0
 10
-54.927
 20
67.2366
 11
-55.1289
 21
67.5547
  0
LINE
  8
0
 10
-55.1289
 20
67.5547
 11
-55.2893
 21
67.8956
  0
LINE
  8
0
 10
-55.2893
 20
67.8956
 11
-55.4057
 21
68.2539
  0
LINE
  8
0
 10
-55.4057
 20
68.2539
 11
-55.4763
 21
68.624
  0
LINE
  8
0
 10
-55.4763
 20
68.624
 11
-55.5
 21
69
  0
LINE
  8
0
 10
-55.5
 20
69
 11
-55.4763
 21
69.376
  0
LINE
  8
0
 10
-55.4763
 20
69.376
 11
-55.4057
 21
69.7461
  0
LINE
  8
0
 10
-55.4057
 20
69.7461
 11
-55.2893
 21
70.1044
  0
LINE
  8
0
 10
-55.2893
 20
70.1044
 11
-55.1289
 21
70.4453
  0
LINE
  8
0
 10
-55.1289
 20
70.4453
 11
-54.927
 21
70.7634
  0
LINE
  8
0
 10
-54.927
 20
70.7634
 11
-54.6869
 21
71.0536
  0
LINE
  8
0
 10
-54.6869
 20
71.0536
 11
-54.4123
 21
71.3115
  0
LINE
  8
0
 10
-54.4123
 20
71.3115
 11
-54.1075
 21
71.533
  0
LINE
  8
0
 10
-54.1075
 20
71.533
 11
-53.7773
 21
71.7145
  0
LINE
  8
0
 10
-53.7773
 20
71.7145
 11
-53.427
 21
71.8532
  0
LINE
  8
0
 10
-53.427
 20
71.8532
 11
-53.0621
 21
71.9469
  0
LINE
  8
0
 10
-53.0621
 20
71.9469
 11
-52.6884
 21
71.9941
  0
LINE
  8
0
 10
-52.6884
 20
71.9941
 11
-52.3116
 21
71.9941
  0
LINE
  8
0
 10
-52.3116
 20
71.9941
 11
-51.9379
 21
71.9469
  0
LINE
  8
0
 10
-51.9379
 20
71.9469
 11
-51.5729
 21
71.8532
  0
LINE
  8
0
 10
-51.5729
 20
71.8532
 11
-51.2227
 21
71.7145
  0
LINE
  8
0
 10
-51.2227
 20
71.7145
 11
-50.8925
 21
71.533
  0
LINE
  8
0
 10
-50.8925
 20
71.533
 11
-50.5877
 21
71.3115
  0
LINE
  8
0
 10
-50.5877
 20
71.3115
 11
-50.3131
 21
71.0536
  0
LINE
  8
0
 10
-50.3131
 20
71.0536
 11
-50.0729
 21
70.7634
  0
LINE
  8
0
 10
-50.0729
 20
70.7634
 11
-49.8711
 21
70.4453
  0
LINE
  8
0
 10
-49.8711
 20
70.4453
 11
-49.7107
 21
70.1044
  0
LINE
  8
0
 10
-49.7107
 20
70.1044
 11
-49.5942
 21
69.7461
  0
LINE
  8
0
 10
-49.5942
 20
69.7461
 11
-49.5237
 21
69.376
  0
LINE
  8
0
 10
-49.5237
 20
69.376
 11
-49.5
 21
69
  0
LINE
  8
0
 10
-49.5
 20
69
 11
-49.5237
 21
68.624
  0
LINE
  8
0
 10
-49.5237
 20
68.624
 11
-49.5942
 21
68.2539
  0
LINE
  8
0
 10
-49.5942
 20
68.2539
 11
-49.7107
 21
67.8956
  0
LINE
  8
0
 10
-49.7107
 20
67.8956
 11
-49.8711
 21
67.5547
  0
LINE
  8
0
 10
-49.8711
 20
67.5547
 11
-50.0729
 21
67.2366
  0
LINE
  8
0
 10
-50.0729
 20
67.2366
 11
-50.3131
 21
66.9464
  0
LINE
  8
0
 10
-50.3131
 20
66.9464
 11
-50.5877
 21
66.6884
  0
LINE
  8
0
 10
-50.5877
 20
66.6884
 11
-50.8925
 21
66.467
  0
LINE
  8
0
 10
-50.8925
 20
66.467
 11
-51.2227
 21
66.2855
  0
LINE
  8
0
 10
-51.2227
 20
66.2855
 11
-51.5729
 21
66.1468
  0
LINE
  8
0
 10
-51.5729
 20
66.1468
 11
-51.9379
 21
66.0531
  0
LINE
  8
0
 10
-51.9379
 20
66.0531
 11
-52.3116
 21
66.0059
  0
LINE
  8
0
 10
-52.3116
 20
66.0059
 11
-52.6884
 21
66.0059
  0
LINE
  8
0
 10
35.0267
 20
38.5306
 11
33.0956
 21
38.7746
  0
LINE
  8
0
 10
33.0956
 20
38.7746
 11
31.2102
 21
39.2586
  0
LINE
  8
0
 10
31.2102
 20
39.2586
 11
29.4004
 21
39.9752
  0
LINE
  8
0
 10
29.4004
 20
39.9752
 11
27.6947
 21
40.9129
  0
LINE
  8
0
 10
27.6947
 20
40.9129
 11
26.1199
 21
42.0571
  0
LINE
  8
0
 10
26.1199
 20
42.0571
 11
24.701
 21
43.3895
  0
LINE
  8
0
 10
24.701
 20
43.3895
 11
23.4602
 21
44.8893
  0
LINE
  8
0
 10
23.4602
 20
44.8893
 11
22.4172
 21
46.5328
  0
LINE
  8
0
 10
22.4172
 20
46.5328
 11
21.5885
 21
48.2941
  0
LINE
  8
0
 10
21.5885
 20
48.2941
 11
20.987
 21
50.1453
  0
LINE
  8
0
 10
20.987
 20
50.1453
 11
20.6222
 21
52.0573
  0
LINE
  8
0
 10
20.6222
 20
52.0573
 11
20.5
 21
54
  0
LINE
  8
0
 10
20.5
 20
54
 11
20.6222
 21
55.9427
  0
LINE
  8
0
 10
20.6222
 20
55.9427
 11
20.987
 21
57.8547
  0
LINE
  8
0
 10
20.987
 20
57.8547
 11
21.5885
 21
59.7059
  0
LINE
  8
0
 10
21.5885
 20
59.7059
 11
22.4172
 21
61.4672
  0
LINE
  8
0
 10
22.4172
 20
61.4672
 11
23.4602
 21
63.1107
  0
LINE
  8
0
 10
23.4602
 20
63.1107
 11
24.701
 21
64.6105
  0
LINE
  8
0
 10
24.701
 20
64.6105
 11
26.1199
 21
65.9429
  0
LINE
  8
0
 10
26.1199
 20
65.9429
 11
27.6947
 21
67.0871
  0
LINE
  8
0
 10
27.6947
 20
67.0871
 11
29.4004
 21
68.0248
  0
LINE
  8
0
 10
29.4004
 20
68.0248
 11
31.2102
 21
68.7414
  0
LINE
  8
0
 10
31.2102
 20
68.7414
 11
33.0956
 21
69.2254
  0
LINE
  8
0
 10
33.0956
 20
69.2254
 11
35.0267
 21
69.4694
  0
LINE
  8
0
 10
35.0267
 20
69.4694
 11
36.9733
 21
69.4694
  0
LINE
  8
0
 10
36.9733
 20
69.4694
 11
38.9044
 21
69.2254
  0
LINE
  8
0
 10
38.9044
 20
69.2254
 11
40.7898
 21
68.7414
  0
LINE
  8
0
 10
40.7898
 20
68.7414
 11
42.5996
 21
68.0248
  0
LINE
  8
0
 10
42.5996
 20
68.0248
 11
44.3053
 21
67.0871
  0
LINE
  8
0
 10
44.3053
 20
67.0871
 11
45.8801
 21
65.9429
  0
LINE
  8
0
 10
45.8801
 20
65.9429
 11
47.299
 21
64.6105
  0
LINE
  8
0
 10
47.299
 20
64.6105
 11
48.5398
 21
63.1107
  0
LINE
  8
0
 10
48.5398
 20
63.1107
 11
49.5827
 21
61.4672
  0
LINE
  8
0
 10
49.5827
 20
61.4672
 11
50.4115
 21
59.7059
  0
LINE
  8
0
 10
50.4115
 20
59.7059
 11
51.013
 21
57.8547
  0
LINE
  8
0
 10
51.013
 20
57.8547
 11
51.3778
 21
55.9427
  0
LINE
  8
0
 10
51.3778
 20
55.9427
 11
51.5
 21
54
  0
LINE
  8
0
 10
51.5
 20
54
 11
51.3778
 21
52.0573
  0
LINE
  8
0
 10
51.3778
 20
52.0573
 11
51.013
 21
50.1453
  0
LINE
  8
0
 10
51.013
 20
50.1453
 11
50.4115
 21
48.2941
  0
LINE
  8
0
 10
50.4115
 20
48.2941
 11
49.5827
 21
46.5328
  0
LINE
  8
0
 10
49.5827
 20
46.5328
 11
48.5398
 21
44.8893
  0
LINE
  8
0
 10
48.5398
 20
44.8893
 11
47.299
 21
43.3895
  0
LINE
  8
0
 10
47.299
 20
43.3895
 11
45.8801
 21
42.0571
  0
LINE
  8
0
 10
45.8801
 20
42.0571
 11
44.3053
 21
40.9129
  0
LINE
  8
0
 10
44.3053
 20
40.9129
 11
42.5996
 21
39.9752
  0
LINE
  8
0
 10
42.5996
 20
39.9752
 11
40.7898
 21
39.2586
  0
LINE
  8
0
 10
40.7898
 20
39.2586
 11
38.9044
 21
38.7746
  0
LINE
  8
0
 10
38.9044
 20
38.7746
 11
36.9733
 21
38.5306
  0
LINE
  8
0
 10
36.9733
 20
38.5306
 11
35.0267
 21
38.5306
  0
LINE
  8
0
 10
-36.9733
 20
38.5306
 11
-38.9044
 21
38.7746
  0
LINE
  8
0
 10
-38.9044
 20
38.7746
 11
-40.7898
 21
39.2586
  0
LINE
  8
0
 10
-40.7898
 20
39.2586
 11
-42.5996
 21
39.9752
  0
LINE
  8
0
 10
-42.5996
 20
39.9752
 11
-44.3053
 21
40.9129
  0
LINE
  8
0
 10
-44.3053
 20
40.9129
 11
-45.8801
 21
42.0571
  0
LINE
  8
0
 10
-45.8801
 20
42.0571
 11
-47.299
 21
43.3895
  0
LINE
  8
0
 10
-47.299
 20
43.3895
 11
-48.5398
 21
44.8893
  0
LINE
  8
0
 10
-48.5398
 20
44.8893
 11
-49.5827
 21
46.5328
  0
LINE
  8
0
 10
-49.5827
 20
46.5328
 11
-50.4115
 21
48.2941
  0
LINE
  8
0
 10
-50.4115
 20
48.2941
 11
-51.013
 21
50.1453
  0
LINE
  8
0
 10
-51.013
 20
50.1453
 11
-51.3778
 21
52.0573
  0
LINE
  8
0
 10
-51.3778
 20
52.0573
 11
-51.5
 21
54
  0
LINE
  8
0
 10
-51.5
 20
54
 11
-51.3778
 21
55.9427
  0
LINE
  8
0
 10
-51.3778
 20
55.9427
 11
-51.013
 21
57.8547
  0
LINE
  8
0
 10
-51.013
 20
57.8547
 11
-50.4115
 21
59.7059
  0
LINE
  8
0
 10
-50.4115
 20
59.7059
 11
-49.5827
 21
61.4672
  0
LINE
  8
0
 10
-49.5827
 20
61.4672
 11
-48.5398
 21
63.1107
  0
LINE
  8
0
 10
-48.5398
 20
63.1107
 11
-47.299
 21
64.6105
  0
LINE
  8
0
 10
-47.299
 20
64.6105
 11
-45.8801
 21
65.9429
  0
LINE
  8
0
 10
-45.8801
 20
65.9429
 11
-44.3053
 21
67.0871
  0
LINE
  8
0
 10
-44.3053
 20
67.0871
 11
-42.5996
 21
68.0248
  0
LINE
  8
0
 10
-42.5996
 20
68.0248
 11
-40.7898
 21
68.7414
  0
LINE
  8
0
 10
-40.7898
 20
68.7414
 11
-38.9044
 21
69.2254
  0
LINE
  8
0
 10
-38.9044
 20
69.2254
 11
-36.9733
 21
69.4694
  0
LINE
  8
0
 10
-36.9733
 20
69.4694
 11
-35.0267
 21
69.4694
  0
LINE
  8
0
 10
-35.0267
 20
69.4694
 11
-33.0956
 21
69.2254
  0
LINE
  8
0
 10
-33.0956
 20
69.2254
 11
-31.2102
 21
68.7414
  0
LINE
  8
0
 10
-31.2102
 20
68.7414
 11
-29.4004
 21
68.0248
  0
LINE
  8
0
 10
-29.4004
 20
68.0248
 11
-27.6947
 21
67.0871
  0
LINE
  8
0
 10
-27.6947
 20
67.0871
 11
-26.1199
 21
65.9429
  0
LINE
  8
0
 10
-26.1199
 20
65.9429
 11
-24.701
 21
64.6105
  0
LINE
  8
0
 10
-24.701
 20
64.6105
 11
-23.4602
 21
63.1107
  0
LINE
  8
0
 10
-23.4602
 20
63.1107
 11
-22.4172
 21
61.4672
  0
LINE
  8
0
 10
-22.4172
 20
61.4672
 11
-21.5885
 21
59.7059
  0
LINE
  8
0
 10
-21.5885
 20
59.7059
 11
-20.987
 21
57.8547
  0
LINE
  8
0
 10
-20.987
 20
57.8547
 11
-20.6222
 21
55.9427
  0
LINE
  8
0
 10
-20.6222
 20
55.9427
 11
-20.5
 21
54
  0
LINE
  8
0
 10
-20.5
 20
54
 11
-20.6222
 21
52.0573
  0
LINE
  8
0
 10
-20.6222
 20
52.0573
 11
-20.987
 21
50.1453
  0
LINE
  8
0
 10
-20.987
 20
50.1453
 11
-21.5885
 21
48.2941
  0
LINE
  8
0
 10
-21.5885
 20
48.2941
 11
-22.4172
 21
46.5328
  0
LINE
  8
0
 10
-22.4172
 20
46.5328
 11
-23.4602
 21
44.8893
  0
LINE
  8
0
 10
-23.4602
 20
44.8893
 11
-24.701
 21
43.3895
  0
LINE
  8
0
 10
-24.701
 20
43.3895
 11
-26.1199
 21
42.0571
  0
LINE
  8
0
 10
-26.1199
 20
42.0571
 11
-27.6947
 21
40.9129
  0
LINE
  8
0
 10
-27.6947
 20
40.9129
 11
-29.4004
 21
39.9752
  0
LINE
  8
0
 10
-29.4004
 20
39.9752
 11
-31.2102
 21
39.2586
  0
LINE
  8
0
 10
-31.2102
 20
39.2586
 11
-33.0956
 21
38.7746
  0
LINE
  8
0
 10
-33.0956
 20
38.7746
 11
-35.0267
 21
38.5306
  0
LINE
  8
0
 10
-35.0267
 20
38.5306
 11
-36.9733
 21
38.5306
  0
LINE
  8
0
 10
-0.973251
 20
38.5306
 11
-2.9044
 21
38.7746
  0
LINE
  8
0
 10
-2.9044
 20
38.7746
 11
-4.78975
 21
39.2586
  0
LINE
  8
0
 10
-4.78975
 20
39.2586
 11
-6.59958
 21
39.9752
  0
LINE
  8
0
 10
-6.59958
 20
39.9752
 11
-8.30531
 21
40.9129
  0
LINE
  8
0
 10
-8.30531
 20
40.9129
 11
-9.88007
 21
42.0571
  0
LINE
  8
0
 10
-9.88007
 20
42.0571
 11
-11.299
 21
43.3895
  0
LINE
  8
0
 10
-11.299
 20
43.3895
 11
-12.5397
 21
44.8893
  0
LINE
  8
0
 10
-12.5397
 20
44.8893
 11
-13.5827
 21
46.5328
  0
LINE
  8
0
 10
-13.5827
 20
46.5328
 11
-14.4115
 21
48.2941
  0
LINE
  8
0
 10
-14.4115
 20
48.2941
 11
-15.013
 21
50.1453
  0
LINE
  8
0
 10
-15.013
 20
50.1453
 11
-15.3778
 21
52.0573
  0
LINE
  8
0
 10
-15.3778
 20
52.0573
 11
-15.5
 21
54
  0
LINE
  8
0
 10
-15.5
 20
54
 11
-15.3778
 21
55.9427
  0
LINE
  8
0
 10
-15.3778
 20
55.9427
 11
-15.013
 21
57.8547
  0
LINE
  8
0
 10
-15.013
 20
57.8547
 11
-14.4115
 21
59.7059
  0
LINE
  8
0
 10
-14.4115
 20
59.7059
 11
-13.5827
 21
61.4672
  0
LINE
  8
0
 10
-13.5827
 20
61.4672
 11
-12.5397
 21
63.1107
  0
LINE
  8
0
 10
-12.5397
 20
63.1107
 11
-11.299
 21
64.6105
  0
LINE
  8
0
 10
-11.299
 20
64.6105
 11
-9.88007
 21
65.9429
  0
LINE
  8
0
 10
-9.88007
 20
65.9429
 11
-8.30531
 21
67.0871
  0
LINE
  8
0
 10
-8.30531
 20
67.0871
 11
-6.59958
 21
68.0248
  0
LINE
  8
0
 10
-6.59958
 20
68.0248
 11
-4.78975
 21
68.7414
  0
LINE
  8
0
 10
-4.78975
 20
68.7414
 11
-2.9044
 21
69.2254
  0
LINE
  8
0
 10
-2.9044
 20
69.2254
 11
-0.973251
 21
69.4694
  0
LINE
  8
0
 10
-0.973251
 20
69.4694
 11
0.973251
 21
69.4694
  0
LINE
  8
0
 10
0.973251
 20
69.4694
 11
2.9044
 21
69.2254
  0
LINE
  8
0
 10
2.9044
 20
69.2254
 11
4.78975
 21
68.7414
  0
LINE
  8
0
 10
4.78975
 20
68.7414
 11
6.59958
 21
68.0248
  0
LINE
  8
0
 10
6.59958
 20
68.0248
 11
8.30531
 21
67.0871
  0
LINE
  8
0
 10
8.30531
 20
67.0871
 11
9.88007
 21
65.9429
  0
LINE
  8
0
 10
9.88007
 20
65.9429
 11
11.299
 21
64.6105
  0
LINE
  8
0
 10
11.299
 20
64.6105
 11
12.5397
 21
63.1107
  0
LINE
  8
0
 10
12.5397
 20
63.1107
 11
13.5827
 21
61.4672
  0
LINE
  8
0
 10
13.5827
 20
61.4672
 11
14.4115
 21
59.7059
  0
LINE
  8
0
 10
14.4115
 20
59.7059
 11
15.013
 21
57.8547
  0
LINE
  8
0
 10
15.013
 20
57.8547
 11
15.3778
 21
55.9427
  0
LINE
  8
0
 10
15.3778
 20
55.9427
 11
15.5
 21
54
  0
LINE
  8
0
 10
15.5
 20
54
 11
15.3778
 21
52.0573
  0
LINE
  8
0
 10
15.3778
 20
52.0573
 11
15.013
 21
50.1453
  0
LINE
  8
0
 10
15.013
 20
50.1453
 11
14.4115
 21
48.2941
  0
LINE
  8
0
 10
14.4115
 20
48.2941
 11
13.5827
 21
46.5328
  0
LINE
  8
0
 10
13.5827
 20
46.5328
 11
12.5397
 21
44.8893
  0
LINE
  8
0
 10
12.5397
 20
44.8893
 11
11.299
 21
43.3895
  0
LINE
  8
0
 10
11.299
 20
43.3895
 11
9.88007
 21
42.0571
  0
LINE
  8
0
 10
9.88007
 20
42.0571
 11
8.30531
 21
40.9129
  0
LINE
  8
0
 10
8.30531
 20
40.9129
 11
6.59958
 21
39.9752
  0
LINE
  8
0
 10
6.59958
 20
39.9752
 11
4.78975
 21
39.2586
  0
LINE
  8
0
 10
4.78975
 20
39.2586
 11
2.9044
 21
38.7746
  0
LINE
  8
0
 10
2.9044
 20
38.7746
 11
0.973251
 21
38.5306
  0
LINE
  8
0
 10
0.973251
 20
38.5306
 11
-0.973251
 21
38.5306
  0
LINE
  8
0
 10
-52.6884
 20
36.0059
 11
-53.0621
 21
36.0531
  0
LINE
  8
0
 10
-53.0621
 20
36.0531
 11
-53.427
 21
36.1468
  0
LINE
  8
0
 10
-53.427
 20
36.1468
 11
-53.7773
 21
36.2855
  0
LINE
  8
0
 10
-53.7773
 20
36.2855
 11
-54.1075
 21
36.467
  0
LINE
  8
0
 10
-54.1075
 20
36.467
 11
-54.4123
 21
36.6885
  0
LINE
  8
0
 10
-54.4123
 20
36.6885
 11
-54.6869
 21
36.9464
  0
LINE
  8
0
 10
-54.6869
 20
36.9464
 11
-54.927
 21
37.2366
  0
LINE
  8
0
 10
-54.927
 20
37.2366
 11
-55.1289
 21
37.5547
  0
LINE
  8
0
 10
-55.1289
 20
37.5547
 11
-55.2893
 21
37.8956
  0
LINE
  8
0
 10
-55.2893
 20
37.8956
 11
-55.4057
 21
38.2539
  0
LINE
  8
0
 10
-55.4057
 20
38.2539
 11
-55.4763
 21
38.624
  0
LINE
  8
0
 10
-55.4763
 20
38.624
 11
-55.5
 21
39
  0
LINE
  8
0
 10
-55.5
 20
39
 11
-55.4763
 21
39.376
  0
LINE
  8
0
 10
-55.4763
 20
39.376
 11
-55.4057
 21
39.7461
  0
LINE
  8
0
 10
-55.4057
 20
39.7461
 11
-55.2893
 21
40.1044
  0
LINE
  8
0
 10
-55.2893
 20
40.1044
 11
-55.1289
 21
40.4453
  0
LINE
  8
0
 10
-55.1289
 20
40.4453
 11
-54.927
 21
40.7634
  0
LINE
  8
0
 10
-54.927
 20
40.7634
 11
-54.6869
 21
41.0536
  0
LINE
  8
0
 10
-54.6869
 20
41.0536
 11
-54.4123
 21
41.3116
  0
LINE
  8
0
 10
-54.4123
 20
41.3116
 11
-54.1075
 21
41.533
  0
LINE
  8
0
 10
-54.1075
 20
41.533
 11
-53.7773
 21
41.7145
  0
LINE
  8
0
 10
-53.7773
 20
41.7145
 11
-53.427
 21
41.8532
  0
LINE
  8
0
 10
-53.427
 20
41.8532
 11
-53.0621
 21
41.9469
  0
LINE
  8
0
 10
-53.0621
 20
41.9469
 11
-52.6884
 21
41.9941
  0
LINE
  8
0
 10
-52.6884
 20
41.9941
 11
-52.3116
 21
41.9941
  0
LINE
  8
0
 10
-52.3116
 20
41.9941
 11
-51.9379
 21
41.9469
  0
LINE
  8
0
 10
-51.9379
 20
41.9469
 11
-51.5729
 21
41.8532
  0
LINE
  8
0
 10
-51.5729
 20
41.8532
 11
-51.2227
 21
41.7145
  0
LINE
  8
0
 10
-51.2227
 20
41.7145
 11
-50.8925
 21
41.533
  0
LINE
  8
0
 10
-50.8925
 20
41.533
 11
-50.5877
 21
41.3116
  0
LINE
  8
0
 10
-50.5877
 20
41.3116
 11
-50.3131
 21
41.0536
  0
LINE
  8
0
 10
-50.3131
 20
41.0536
 11
-50.0729
 21
40.7634
  0
LINE
  8
0
 10
-50.0729
 20
40.7634
 11
-49.8711
 21
40.4453
  0
LINE
  8
0
 10
-49.8711
 20
40.4453
 11
-49.7107
 21
40.1044
  0
LINE
  8
0
 10
-49.7107
 20
40.1044
 11
-49.5942
 21
39.7461
  0
LINE
  8
0
 10
-49.5942
 20
39.7461
 11
-49.5237
 21
39.376
  0
LINE
  8
0
 10
-49.5237
 20
39.376
 11
-49.5
 21
39
  0
LINE
  8
0
 10
-49.5
 20
39
 11
-49.5237
 21
38.624
  0
LINE
  8
0
 10
-49.5237
 20
38.624
 11
-49.5942
 21
38.2539
  0
LINE
  8
0
 10
-49.5942
 20
38.2539
 11
-49.7107
 21
37.8956
  0
LINE
  8
0
 10
-49.7107
 20
37.8956
 11
-49.8711
 21
37.5547
  0
LINE
  8
0
 10
-49.8711
 20
37.5547
 11
-50.0729
 21
37.2366
  0
LINE
  8
0
 10
-50.0729
 20
37.2366
 11
-50.3131
 21
36.9464
  0
LINE
  8
0
 10
-50.3131
 20
36.9464
 11
-50.5877
 21
36.6885
  0
LINE
  8
0
 10
-50.5877
 20
36.6885
 11
-50.8925
 21
36.467
  0
LINE
  8
0
 10
-50.8925
 20
36.467
 11
-51.2227
 21
36.2855
  0
LINE
  8
0
 10
-51.2227
 20
36.2855
 11
-51.5729
 21
36.1468
  0
LINE
  8
0
 10
-51.5729
 20
36.1468
 11
-51.9379
 21
36.0531
  0
LINE
  8
0
 10
-51.9379
 20
36.0531
 11
-52.3116
 21
36.0059
  0
LINE
  8
0
 10
-52.3116
 20
36.0059
 11
-52.6884
 21
36.0059
  0
LINE
  8
0
 10
52.3116
 20
36.0059
 11
51.9379
 21
36.0531
  0
LINE
  8
0
 10
51.9379
 20
36.0531
 11
51.5729
 21
36.1468
  0
LINE
  8
0
 10
51.5729
 20
36.1468
 11
51.2227
 21
36.2855
  0
LINE
  8
0
 10
51.2227
 20
36.2855
 11
50.8925
 21
36.467
  0
LINE
  8
0
 10
50.8925
 20
36.467
 11
50.5877
 21
36.6885
  0
LINE
  8
0
 10
50.5877
 20
36.6885
 11
50.3131
 21
36.9464
  0
LINE
  8
0
 10
50.3131
 20
36.9464
 11
50.0729
 21
37.2366
  0
LINE
  8
0
 10
50.0729
 20
37.2366
 11
49.8711
 21
37.5547
  0
LINE
  8
0
 10
49.8711
 20
37.5547
 11
49.7107
 21
37.8956
  0
LINE
  8
0
 10
49.7107
 20
37.8956
 11
49.5942
 21
38.2539
  0
LINE
  8
0
 10
49.5942
 20
38.2539
 11
49.5237
 21
38.624
  0
LINE
  8
0
 10
49.5237
 20
38.624
 11
49.5
 21
39
  0
LINE
  8
0
 10
49.5
 20
39
 11
49.5237
 21
39.376
  0
LINE
  8
0
 10
49.5237
 20
39.376
 11
49.5942
 21
39.7461
  0
LINE
  8
0
 10
49.5942
 20
39.7461
 11
49.7107
 21
40.1044
  0
LINE
  8
0
 10
49.7107
 20
40.1044
 11
49.8711
 21
40.4453
  0
LINE
  8
0
 10
49.8711
 20
40.4453
 11
50.0729
 21
40.7634
  0
LINE
  8
0
 10
50.0729
 20
40.7634
 11
50.3131
 21
41.0536
  0
LINE
  8
0
 10
50.3131
 20
41.0536
 11
50.5877
 21
41.3116
  0
LINE
  8
0
 10
50.5877
 20
41.3116
 11
50.8925
 21
41.533
  0
LINE
  8
0
 10
50.8925
 20
41.533
 11
51.2227
 21
41.7145
  0
LINE
  8
0
 10
51.2227
 20
41.7145
 11
51.5729
 21
41.8532
  0
LINE
  8
0
 10
51.5729
 20
41.8532
 11
51.9379
 21
41.9469
  0
LINE
  8
0
 10
51.9379
 20
41.9469
 11
52.3116
 21
41.9941
  0
LINE
  8
0
 10
52.3116
 20
41.9941
 11
52.6884
 21
41.9941
  0
LINE
  8
0
 10
52.6884
 20
41.9941
 11
53.0621
 21
41.9469
  0
LINE
  8
0
 10
53.0621
 20
41.9469
 11
53.427
 21
41.8532
  0
LINE
  8
0
 10
53.427
 20
41.8532
 11
53.7773
 21
41.7145
  0
LINE
  8
0
 10
53.7773
 20
41.7145
 11
54.1075
 21
41.533
  0
LINE
  8
0
 10
54.1075
 20
41.533
 11
54.4123
 21
41.3116
  0
LINE
  8
0
 10
54.4123
 20
41.3116
 11
54.6869
 21
41.0536
  0
LINE
  8
0
 10
54.6869
 20
41.0536
 11
54.927
 21
40.7634
  0
LINE
  8
0
 10
54.927
 20
40.7634
 11
55.1289
 21
40.4453
  0
LINE
  8
0
 10
55.1289
 20
40.4453
 11
55.2893
 21
40.1044
  0
LINE
  8
0
 10
55.2893
 20
40.1044
 11
55.4057
 21
39.7461
  0
LINE
  8
0
 10
55.4057
 20
39.7461
 11
55.4763
 21
39.376
  0
LINE
  8
0
 10
55.4763
 20
39.376
 11
55.5
 21
39
  0
LINE
  8
0
 10
55.5
 20
39
 11
55.4763
 21
38.624
  0
LINE
  8
0
 10
55.4763
 20
38.624
 11
55.4057
 21
38.2539
  0
LINE
  8
0
 10
55.4057
 20
38.2539
 11
55.2893
 21
37.8956
  0
LINE
  8
0
 10
55.2893
 20
37.8956
 11
55.1289
 21
37.5547
  0
LINE
  8
0
 10
55.1289
 20
37.5547
 11
54.927
 21
37.2366
  0
LINE
  8
0
 10
54.927
 20
37.2366
 11
54.6869
 21
36.9464
  0
LINE
  8
0
 10
54.6869
 20
36.9464
 11
54.4123
 21
36.6885
  0
LINE
  8
0
 10
54.4123
 20
36.6885
 11
54.1075
 21
36.467
  0
LINE
  8
0
 10
54.1075
 20
36.467
 11
53.7773
 21
36.2855
  0
LINE
  8
0
 10
53.7773
 20
36.2855
 11
53.427
 21
36.1468
  0
LINE
  8
0
 10
53.427
 20
36.1468
 11
53.0621
 21
36.0531
  0
LINE
  8
0
 10
53.0621
 20
36.0531
 11
52.6884
 21
36.0059
  0
LINE
  8
0
 10
52.6884
 20
36.0059
 11
52.3116
 21
36.0059
  0
ENDSEC
  0
SECTION
  2
OBJECTS
  0
DICTIONARY
  0
ENDSEC
  0
EOF
