  0
SECTION
  2
BLOCKS
  0
ENDSEC
  0
SECTION
  2
ENTITIES
  0
LINE
  8
0
 10
40.4369
 20
-14.4114
 11
41.0451
 21
-14.2553
  0
LINE
  8
0
 10
41.0451
 20
-14.2553
 11
41.6289
 21
-14.0241
  0
LINE
  8
0
 10
41.6289
 20
-14.0241
 11
42.1791
 21
-13.7216
  0
LINE
  8
0
 10
42.1791
 20
-13.7216
 11
42.6871
 21
-13.3526
  0
LINE
  8
0
 10
42.6871
 20
-13.3526
 11
43.1448
 21
-12.9227
  0
LINE
  8
0
 10
43.1448
 20
-12.9227
 11
43.5451
 21
-12.4389
  0
LINE
  8
0
 10
43.5451
 20
-12.4389
 11
43.8815
 21
-11.9088
  0
LINE
  8
0
 10
43.8815
 20
-11.9088
 11
44.1489
 21
-11.3406
  0
LINE
  8
0
 10
44.1489
 20
-11.3406
 11
44.3429
 21
-10.7434
  0
LINE
  8
0
 10
44.3429
 20
-10.7434
 11
44.4606
 21
-10.1267
  0
LINE
  8
0
 10
44.4606
 20
-10.1267
 11
44.5
 21
-9.5
  0
LINE
  8
0
 10
44.5
 20
-9.5
 11
44.5
 21
9.5
  0
LINE
  8
0
 10
44.5
 20
9.5
 11
44.4606
 21
10.1267
  0
LINE
  8
0
 10
44.4606
 20
10.1267
 11
44.3429
 21
10.7434
  0
LINE
  8
0
 10
44.3429
 20
10.7434
 11
44.1489
 21
11.3406
  0
LINE
  8
0
 10
44.1489
 20
11.3406
 11
43.8815
 21
11.9088
  0
LINE
  8
0
 10
43.8815
 20
11.9088
 11
43.5451
 21
12.4389
  0
LINE
  8
0
 10
43.5451
 20
12.4389
 11
43.1448
 21
12.9227
  0
LINE
  8
0
 10
43.1448
 20
12.9227
 11
42.6871
 21
13.3526
  0
LINE
  8
0
 10
42.6871
 20
13.3526
 11
42.1791
 21
13.7216
  0
LINE
  8
0
 10
42.1791
 20
13.7216
 11
41.6289
 21
14.0241
  0
LINE
  8
0
 10
41.6289
 20
14.0241
 11
41.0451
 21
14.2553
  0
LINE
  8
0
 10
41.0451
 20
14.2553
 11
40.4369
 21
14.4114
  0
LINE
  8
0
 10
40.4369
 20
14.4114
 11
39.8139
 21
14.4901
  0
LINE
  8
0
 10
39.8139
 20
14.4901
 11
-39.8139
 21
14.4901
  0
LINE
  8
0
 10
-39.8139
 20
14.4901
 11
-40.4369
 21
14.4114
  0
LINE
  8
0
 10
-40.4369
 20
14.4114
 11
-41.0451
 21
14.2553
  0
LINE
  8
0
 10
-41.0451
 20
14.2553
 11
-41.6289
 21
14.0241
  0
LINE
  8
0
 10
-41.6289
 20
14.0241
 11
-42.1791
 21
13.7216
  0
LINE
  8
0
 10
-42.1791
 20
13.7216
 11
-42.6871
 21
13.3526
  0
LINE
  8
0
 10
-42.6871
 20
13.3526
 11
-43.1448
 21
12.9227
  0
LINE
  8
0
 10
-43.1448
 20
12.9227
 11
-43.5451
 21
12.4389
  0
LINE
  8
0
 10
-43.5451
 20
12.4389
 11
-43.8815
 21
11.9088
  0
LINE
  8
0
 10
-43.8815
 20
11.9088
 11
-44.1489
 21
11.3406
  0
LINE
  8
0
 10
-44.1489
 20
11.3406
 11
-44.3429
 21
10.7434
  0
LINE
  8
0
 10
-44.3429
 20
10.7434
 11
-44.4606
 21
10.1267
  0
LINE
  8
0
 10
-44.4606
 20
10.1267
 11
-44.5
 21
9.5
  0
LINE
  8
0
 10
-44.5
 20
9.5
 11
-44.5
 21
-9.5
  0
LINE
  8
0
 10
-44.5
 20
-9.5
 11
-44.4606
 21
-10.1267
  0
LINE
  8
0
 10
-44.4606
 20
-10.1267
 11
-44.3429
 21
-10.7434
  0
LINE
  8
0
 10
-44.3429
 20
-10.7434
 11
-44.1489
 21
-11.3406
  0
LINE
  8
0
 10
-44.1489
 20
-11.3406
 11
-43.8815
 21
-11.9088
  0
LINE
  8
0
 10
-43.8815
 20
-11.9088
 11
-43.5451
 21
-12.4389
  0
LINE
  8
0
 10
-43.5451
 20
-12.4389
 11
-43.1448
 21
-12.9227
  0
LINE
  8
0
 10
-43.1448
 20
-12.9227
 11
-42.6871
 21
-13.3526
  0
LINE
  8
0
 10
-42.6871
 20
-13.3526
 11
-42.1791
 21
-13.7216
  0
LINE
  8
0
 10
-42.1791
 20
-13.7216
 11
-41.6289
 21
-14.0241
  0
LINE
  8
0
 10
-41.6289
 20
-14.0241
 11
-41.0451
 21
-14.2553
  0
LINE
  8
0
 10
-41.0451
 20
-14.2553
 11
-40.4369
 21
-14.4114
  0
LINE
  8
0
 10
-40.4369
 20
-14.4114
 11
-39.8139
 21
-14.4901
  0
LINE
  8
0
 10
-39.8139
 20
-14.4901
 11
39.8139
 21
-14.4901
  0
LINE
  8
0
 10
39.8139
 20
-14.4901
 11
40.4369
 21
-14.4114
  0
LINE
  8
0
 10
-37.6884
 20
4.50591
 11
-38.0621
 21
4.55313
  0
LINE
  8
0
 10
-38.0621
 20
4.55313
 11
-38.427
 21
4.64682
  0
LINE
  8
0
 10
-38.427
 20
4.64682
 11
-38.7773
 21
4.78551
  0
LINE
  8
0
 10
-38.7773
 20
4.78551
 11
-39.1075
 21
4.96701
  0
LINE
  8
0
 10
-39.1075
 20
4.96701
 11
-39.4123
 21
5.18845
  0
LINE
  8
0
 10
-39.4123
 20
5.18845
 11
-39.6869
 21
5.44635
  0
LINE
  8
0
 10
-39.6869
 20
5.44635
 11
-39.927
 21
5.73663
  0
LINE
  8
0
 10
-39.927
 20
5.73663
 11
-40.1289
 21
6.05473
  0
LINE
  8
0
 10
-40.1289
 20
6.05473
 11
-40.2893
 21
6.39561
  0
LINE
  8
0
 10
-40.2893
 20
6.39561
 11
-40.4057
 21
6.75392
  0
LINE
  8
0
 10
-40.4057
 20
6.75392
 11
-40.4763
 21
7.12399
  0
LINE
  8
0
 10
-40.4763
 20
7.12399
 11
-40.5
 21
7.5
  0
LINE
  8
0
 10
-40.5
 20
7.5
 11
-40.4763
 21
7.87599
  0
LINE
  8
0
 10
-40.4763
 20
7.87599
 11
-40.4057
 21
8.24606
  0
LINE
  8
0
 10
-40.4057
 20
8.24606
 11
-40.2893
 21
8.60437
  0
LINE
  8
0
 10
-40.2893
 20
8.60437
 11
-40.1289
 21
8.94525
  0
LINE
  8
0
 10
-40.1289
 20
8.94525
 11
-39.927
 21
9.26335
  0
LINE
  8
0
 10
-39.927
 20
9.26335
 11
-39.6869
 21
9.55363
  0
LINE
  8
0
 10
-39.6869
 20
9.55363
 11
-39.4123
 21
9.81154
  0
LINE
  8
0
 10
-39.4123
 20
9.81154
 11
-39.1075
 21
10.033
  0
LINE
  8
0
 10
-39.1075
 20
10.033
 11
-38.7773
 21
10.2145
  0
LINE
  8
0
 10
-38.7773
 20
10.2145
 11
-38.427
 21
10.3532
  0
LINE
  8
0
 10
-38.427
 20
10.3532
 11
-38.0621
 21
10.4469
  0
LINE
  8
0
 10
-38.0621
 20
10.4469
 11
-37.6884
 21
10.4941
  0
LINE
  8
0
 10
-37.6884
 20
10.4941
 11
-37.3116
 21
10.4941
  0
LINE
  8
0
 10
-37.3116
 20
10.4941
 11
-36.9379
 21
10.4469
  0
LINE
  8
0
 10
-36.9379
 20
10.4469
 11
-36.5729
 21
10.3532
  0
LINE
  8
0
 10
-36.5729
 20
10.3532
 11
-36.2227
 21
10.2145
  0
LINE
  8
0
 10
-36.2227
 20
10.2145
 11
-35.8925
 21
10.033
  0
LINE
  8
0
 10
-35.8925
 20
10.033
 11
-35.5877
 21
9.81154
  0
LINE
  8
0
 10
-35.5877
 20
9.81154
 11
-35.3131
 21
9.55363
  0
LINE
  8
0
 10
-35.3131
 20
9.55363
 11
-35.0729
 21
9.26335
  0
LINE
  8
0
 10
-35.0729
 20
9.26335
 11
-34.8711
 21
8.94525
  0
LINE
  8
0
 10
-34.8711
 20
8.94525
 11
-34.7107
 21
8.60437
  0
LINE
  8
0
 10
-34.7107
 20
8.60437
 11
-34.5942
 21
8.24606
  0
LINE
  8
0
 10
-34.5942
 20
8.24606
 11
-34.5237
 21
7.87599
  0
LINE
  8
0
 10
-34.5237
 20
7.87599
 11
-34.5
 21
7.5
  0
LINE
  8
0
 10
-34.5
 20
7.5
 11
-34.5237
 21
7.12399
  0
LINE
  8
0
 10
-34.5237
 20
7.12399
 11
-34.5942
 21
6.75392
  0
LINE
  8
0
 10
-34.5942
 20
6.75392
 11
-34.7107
 21
6.39561
  0
LINE
  8
0
 10
-34.7107
 20
6.39561
 11
-34.8711
 21
6.05473
  0
LINE
  8
0
 10
-34.8711
 20
6.05473
 11
-35.0729
 21
5.73663
  0
LINE
  8
0
 10
-35.0729
 20
5.73663
 11
-35.3131
 21
5.44635
  0
LINE
  8
0
 10
-35.3131
 20
5.44635
 11
-35.5877
 21
5.18845
  0
LINE
  8
0
 10
-35.5877
 20
5.18845
 11
-35.8925
 21
4.96701
  0
LINE
  8
0
 10
-35.8925
 20
4.96701
 11
-36.2227
 21
4.78551
  0
LINE
  8
0
 10
-36.2227
 20
4.78551
 11
-36.5729
 21
4.64682
  0
LINE
  8
0
 10
-36.5729
 20
4.64682
 11
-36.9379
 21
4.55313
  0
LINE
  8
0
 10
-36.9379
 20
4.55313
 11
-37.3116
 21
4.50591
  0
LINE
  8
0
 10
-37.3116
 20
4.50591
 11
-37.6884
 21
4.50591
  0
LINE
  8
0
 10
37.3116
 20
4.50591
 11
36.9379
 21
4.55313
  0
LINE
  8
0
 10
36.9379
 20
4.55313
 11
36.5729
 21
4.64682
  0
LINE
  8
0
 10
36.5729
 20
4.64682
 11
36.2227
 21
4.78551
  0
LINE
  8
0
 10
36.2227
 20
4.78551
 11
35.8925
 21
4.96701
  0
LINE
  8
0
 10
35.8925
 20
4.96701
 11
35.5877
 21
5.18845
  0
LINE
  8
0
 10
35.5877
 20
5.18845
 11
35.3131
 21
5.44635
  0
LINE
  8
0
 10
35.3131
 20
5.44635
 11
35.0729
 21
5.73663
  0
LINE
  8
0
 10
35.0729
 20
5.73663
 11
34.8711
 21
6.05473
  0
LINE
  8
0
 10
34.8711
 20
6.05473
 11
34.7107
 21
6.39561
  0
LINE
  8
0
 10
34.7107
 20
6.39561
 11
34.5942
 21
6.75392
  0
LINE
  8
0
 10
34.5942
 20
6.75392
 11
34.5237
 21
7.12399
  0
LINE
  8
0
 10
34.5237
 20
7.12399
 11
34.5
 21
7.5
  0
LINE
  8
0
 10
34.5
 20
7.5
 11
34.5237
 21
7.87599
  0
LINE
  8
0
 10
34.5237
 20
7.87599
 11
34.5942
 21
8.24606
  0
LINE
  8
0
 10
34.5942
 20
8.24606
 11
34.7107
 21
8.60437
  0
LINE
  8
0
 10
34.7107
 20
8.60437
 11
34.8711
 21
8.94525
  0
LINE
  8
0
 10
34.8711
 20
8.94525
 11
35.0729
 21
9.26335
  0
LINE
  8
0
 10
35.0729
 20
9.26335
 11
35.3131
 21
9.55363
  0
LINE
  8
0
 10
35.3131
 20
9.55363
 11
35.5877
 21
9.81154
  0
LINE
  8
0
 10
35.5877
 20
9.81154
 11
35.8925
 21
10.033
  0
LINE
  8
0
 10
35.8925
 20
10.033
 11
36.2227
 21
10.2145
  0
LINE
  8
0
 10
36.2227
 20
10.2145
 11
36.5729
 21
10.3532
  0
LINE
  8
0
 10
36.5729
 20
10.3532
 11
36.9379
 21
10.4469
  0
LINE
  8
0
 10
36.9379
 20
10.4469
 11
37.3116
 21
10.4941
  0
LINE
  8
0
 10
37.3116
 20
10.4941
 11
37.6884
 21
10.4941
  0
LINE
  8
0
 10
37.6884
 20
10.4941
 11
38.0621
 21
10.4469
  0
LINE
  8
0
 10
38.0621
 20
10.4469
 11
38.427
 21
10.3532
  0
LINE
  8
0
 10
38.427
 20
10.3532
 11
38.7773
 21
10.2145
  0
LINE
  8
0
 10
38.7773
 20
10.2145
 11
39.1075
 21
10.033
  0
LINE
  8
0
 10
39.1075
 20
10.033
 11
39.4123
 21
9.81154
  0
LINE
  8
0
 10
39.4123
 20
9.81154
 11
39.6869
 21
9.55363
  0
LINE
  8
0
 10
39.6869
 20
9.55363
 11
39.927
 21
9.26335
  0
LINE
  8
0
 10
39.927
 20
9.26335
 11
40.1289
 21
8.94525
  0
LINE
  8
0
 10
40.1289
 20
8.94525
 11
40.2893
 21
8.60437
  0
LINE
  8
0
 10
40.2893
 20
8.60437
 11
40.4057
 21
8.24606
  0
LINE
  8
0
 10
40.4057
 20
8.24606
 11
40.4763
 21
7.87599
  0
LINE
  8
0
 10
40.4763
 20
7.87599
 11
40.5
 21
7.5
  0
LINE
  8
0
 10
40.5
 20
7.5
 11
40.4763
 21
7.12399
  0
LINE
  8
0
 10
40.4763
 20
7.12399
 11
40.4057
 21
6.75392
  0
LINE
  8
0
 10
40.4057
 20
6.75392
 11
40.2893
 21
6.39561
  0
LINE
  8
0
 10
40.2893
 20
6.39561
 11
40.1289
 21
6.05473
  0
LINE
  8
0
 10
40.1289
 20
6.05473
 11
39.927
 21
5.73663
  0
LINE
  8
0
 10
39.927
 20
5.73663
 11
39.6869
 21
5.44635
  0
LINE
  8
0
 10
39.6869
 20
5.44635
 11
39.4123
 21
5.18845
  0
LINE
  8
0
 10
39.4123
 20
5.18845
 11
39.1075
 21
4.96701
  0
LINE
  8
0
 10
39.1075
 20
4.96701
 11
38.7773
 21
4.78551
  0
LINE
  8
0
 10
38.7773
 20
4.78551
 11
38.427
 21
4.64682
  0
LINE
  8
0
 10
38.427
 20
4.64682
 11
38.0621
 21
4.55313
  0
LINE
  8
0
 10
38.0621
 20
4.55313
 11
37.6884
 21
4.50591
  0
LINE
  8
0
 10
37.6884
 20
4.50591
 11
37.3116
 21
4.50591
  0
LINE
  8
0
 10
-22.5337
 20
-8.48322
 11
-23.5927
 21
-8.34944
  0
LINE
  8
0
 10
-23.5927
 20
-8.34944
 11
-24.6266
 21
-8.08397
  0
LINE
  8
0
 10
-24.6266
 20
-8.08397
 11
-25.6191
 21
-7.69102
  0
LINE
  8
0
 10
-25.6191
 20
-7.69102
 11
-26.5545
 21
-7.17677
  0
LINE
  8
0
 10
-26.5545
 20
-7.17677
 11
-27.4181
 21
-6.54936
  0
LINE
  8
0
 10
-27.4181
 20
-6.54936
 11
-28.1962
 21
-5.81865
  0
LINE
  8
0
 10
-28.1962
 20
-5.81865
 11
-28.8766
 21
-4.99617
  0
LINE
  8
0
 10
-28.8766
 20
-4.99617
 11
-29.4486
 21
-4.09489
  0
LINE
  8
0
 10
-29.4486
 20
-4.09489
 11
-29.9031
 21
-3.12904
  0
LINE
  8
0
 10
-29.9031
 20
-3.12904
 11
-30.233
 21
-2.11386
  0
LINE
  8
0
 10
-30.233
 20
-2.11386
 11
-30.433
 21
-1.06532
  0
LINE
  8
0
 10
-30.433
 20
-1.06532
 11
-30.5
 21
0
  0
LINE
  8
0
 10
-30.5
 20
0
 11
-30.433
 21
1.06532
  0
LINE
  8
0
 10
-30.433
 20
1.06532
 11
-30.233
 21
2.11386
  0
LINE
  8
0
 10
-30.233
 20
2.11386
 11
-29.9031
 21
3.12904
  0
LINE
  8
0
 10
-29.9031
 20
3.12904
 11
-29.4486
 21
4.09489
  0
LINE
  8
0
 10
-29.4486
 20
4.09489
 11
-28.8766
 21
4.99617
  0
LINE
  8
0
 10
-28.8766
 20
4.99617
 11
-28.1962
 21
5.81865
  0
LINE
  8
0
 10
-28.1962
 20
5.81865
 11
-27.4181
 21
6.54936
  0
LINE
  8
0
 10
-27.4181
 20
6.54936
 11
-26.5545
 21
7.17677
  0
LINE
  8
0
 10
-26.5545
 20
7.17677
 11
-25.6191
 21
7.69102
  0
LINE
  8
0
 10
-25.6191
 20
7.69102
 11
-24.6266
 21
8.08397
  0
LINE
  8
0
 10
-24.6266
 20
8.08397
 11
-23.5927
 21
8.34944
  0
LINE
  8
0
 10
-23.5927
 20
8.34944
 11
-22.5337
 21
8.48322
  0
LINE
  8
0
 10
-22.5337
 20
8.48322
 11
-21.4663
 21
8.48322
  0
LINE
  8
0
 10
-21.4663
 20
8.48322
 11
-20.4073
 21
8.34944
  0
LINE
  8
0
 10
-20.4073
 20
8.34944
 11
-19.3734
 21
8.08397
  0
LINE
  8
0
 10
-19.3734
 20
8.08397
 11
-18.3809
 21
7.69102
  0
LINE
  8
0
 10
-18.3809
 20
7.69102
 11
-17.4455
 21
7.17677
  0
LINE
  8
0
 10
-17.4455
 20
7.17677
 11
-16.5819
 21
6.54936
  0
LINE
  8
0
 10
-16.5819
 20
6.54936
 11
-15.8038
 21
5.81865
  0
LINE
  8
0
 10
-15.8038
 20
5.81865
 11
-15.1234
 21
4.99617
  0
LINE
  8
0
 10
-15.1234
 20
4.99617
 11
-14.5514
 21
4.09489
  0
LINE
  8
0
 10
-14.5514
 20
4.09489
 11
-14.0969
 21
3.12904
  0
LINE
  8
0
 10
-14.0969
 20
3.12904
 11
-13.767
 21
2.11386
  0
LINE
  8
0
 10
-13.767
 20
2.11386
 11
-13.567
 21
1.06532
  0
LINE
  8
0
 10
-13.567
 20
1.06532
 11
-13.5
 21
0
  0
LINE
  8
0
 10
-13.5
 20
0
 11
-13.567
 21
-1.06532
  0
LINE
  8
0
 10
-13.567
 20
-1.06532
 11
-13.767
 21
-2.11386
  0
LINE
  8
0
 10
-13.767
 20
-2.11386
 11
-14.0969
 21
-3.12904
  0
LINE
  8
0
 10
-14.0969
 20
-3.12904
 11
-14.5514
 21
-4.09489
  0
LINE
  8
0
 10
-14.5514
 20
-4.09489
 11
-15.1234
 21
-4.99617
  0
LINE
  8
0
 10
-15.1234
 20
-4.99617
 11
-15.8038
 21
-5.81865
  0
LINE
  8
0
 10
-15.8038
 20
-5.81865
 11
-16.5819
 21
-6.54936
  0
LINE
  8
0
 10
-16.5819
 20
-6.54936
 11
-17.4455
 21
-7.17677
  0
LINE
  8
0
 10
-17.4455
 20
-7.17677
 11
-18.3809
 21
-7.69102
  0
LINE
  8
0
 10
-18.3809
 20
-7.69102
 11
-19.3734
 21
-8.08397
  0
LINE
  8
0
 10
-19.3734
 20
-8.08397
 11
-20.4073
 21
-8.34944
  0
LINE
  8
0
 10
-20.4073
 20
-8.34944
 11
-21.4663
 21
-8.48322
  0
LINE
  8
0
 10
-21.4663
 20
-8.48322
 11
-22.5337
 21
-8.48322
  0
LINE
  8
0
 10
-0.533707
 20
-8.48322
 11
-1.59273
 21
-8.34944
  0
LINE
  8
0
 10
-1.59273
 20
-8.34944
 11
-2.62663
 21
-8.08397
  0
LINE
  8
0
 10
-2.62663
 20
-8.08397
 11
-3.61911
 21
-7.69102
  0
LINE
  8
0
 10
-3.61911
 20
-7.69102
 11
-4.55452
 21
-7.17677
  0
LINE
  8
0
 10
-4.55452
 20
-7.17677
 11
-5.41809
 21
-6.54936
  0
LINE
  8
0
 10
-5.41809
 20
-6.54936
 11
-6.19623
 21
-5.81865
  0
LINE
  8
0
 10
-6.19623
 20
-5.81865
 11
-6.87663
 21
-4.99617
  0
LINE
  8
0
 10
-6.87663
 20
-4.99617
 11
-7.44859
 21
-4.09489
  0
LINE
  8
0
 10
-7.44859
 20
-4.09489
 11
-7.90309
 21
-3.12904
  0
LINE
  8
0
 10
-7.90309
 20
-3.12904
 11
-8.23296
 21
-2.11386
  0
LINE
  8
0
 10
-8.23296
 20
-2.11386
 11
-8.43297
 21
-1.06532
  0
LINE
  8
0
 10
-8.43297
 20
-1.06532
 11
-8.5
 21
0
  0
LINE
  8
0
 10
-8.5
 20
0
 11
-8.43297
 21
1.06532
  0
LINE
  8
0
 10
-8.43297
 20
1.06532
 11
-8.23296
 21
2.11386
  0
LINE
  8
0
 10
-8.23296
 20
2.11386
 11
-7.90309
 21
3.12904
  0
LINE
  8
0
 10
-7.90309
 20
3.12904
 11
-7.44859
 21
4.09489
  0
LINE
  8
0
 10
-7.44859
 20
4.09489
 11
-6.87663
 21
4.99617
  0
LINE
  8
0
 10
-6.87663
 20
4.99617
 11
-6.19623
 21
5.81865
  0
LINE
  8
0
 10
-6.19623
 20
5.81865
 11
-5.41809
 21
6.54936
  0
LINE
  8
0
 10
-5.41809
 20
6.54936
 11
-4.55452
 21
7.17677
  0
LINE
  8
0
 10
-4.55452
 20
7.17677
 11
-3.61911
 21
7.69102
  0
LINE
  8
0
 10
-3.61911
 20
7.69102
 11
-2.62663
 21
8.08397
  0
LINE
  8
0
 10
-2.62663
 20
8.08397
 11
-1.59273
 21
8.34944
  0
LINE
  8
0
 10
-1.59273
 20
8.34944
 11
-0.533707
 21
8.48322
  0
LINE
  8
0
 10
-0.533707
 20
8.48322
 11
0.533707
 21
8.48322
  0
LINE
  8
0
 10
0.533707
 20
8.48322
 11
1.59273
 21
8.34944
  0
LINE
  8
0
 10
1.59273
 20
8.34944
 11
2.62663
 21
8.08397
  0
LINE
  8
0
 10
2.62663
 20
8.08397
 11
3.61911
 21
7.69102
  0
LINE
  8
0
 10
3.61911
 20
7.69102
 11
4.55452
 21
7.17677
  0
LINE
  8
0
 10
4.55452
 20
7.17677
 11
5.41809
 21
6.54936
  0
LINE
  8
0
 10
5.41809
 20
6.54936
 11
6.19623
 21
5.81865
  0
LINE
  8
0
 10
6.19623
 20
5.81865
 11
6.87663
 21
4.99617
  0
LINE
  8
0
 10
6.87663
 20
4.99617
 11
7.44859
 21
4.09489
  0
LINE
  8
0
 10
7.44859
 20
4.09489
 11
7.90309
 21
3.12904
  0
LINE
  8
0
 10
7.90309
 20
3.12904
 11
8.23296
 21
2.11386
  0
LINE
  8
0
 10
8.23296
 20
2.11386
 11
8.43297
 21
1.06532
  0
LINE
  8
0
 10
8.43297
 20
1.06532
 11
8.5
 21
0
  0
LINE
  8
0
 10
8.5
 20
0
 11
8.43297
 21
-1.06532
  0
LINE
  8
0
 10
8.43297
 20
-1.06532
 11
8.23296
 21
-2.11386
  0
LINE
  8
0
 10
8.23296
 20
-2.11386
 11
7.90309
 21
-3.12904
  0
LINE
  8
0
 10
7.90309
 20
-3.12904
 11
7.44859
 21
-4.09489
  0
LINE
  8
0
 10
7.44859
 20
-4.09489
 11
6.87663
 21
-4.99617
  0
LINE
  8
0
 10
6.87663
 20
-4.99617
 11
6.19623
 21
-5.81865
  0
LINE
  8
0
 10
6.19623
 20
-5.81865
 11
5.41809
 21
-6.54936
  0
LINE
  8
0
 10
5.41809
 20
-6.54936
 11
4.55452
 21
-7.17677
  0
LINE
  8
0
 10
4.55452
 20
-7.17677
 11
3.61911
 21
-7.69102
  0
LINE
  8
0
 10
3.61911
 20
-7.69102
 11
2.62663
 21
-8.08397
  0
LINE
  8
0
 10
2.62663
 20
-8.08397
 11
1.59273
 21
-8.34944
  0
LINE
  8
0
 10
1.59273
 20
-8.34944
 11
0.533707
 21
-8.48322
  0
LINE
  8
0
 10
0.533707
 20
-8.48322
 11
-0.533707
 21
-8.48322
  0
LINE
  8
0
 10
21.4663
 20
-8.48322
 11
20.4073
 21
-8.34944
  0
LINE
  8
0
 10
20.4073
 20
-8.34944
 11
19.3734
 21
-8.08397
  0
LINE
  8
0
 10
19.3734
 20
-8.08397
 11
18.3809
 21
-7.69102
  0
LINE
  8
0
 10
18.3809
 20
-7.69102
 11
17.4455
 21
-7.17677
  0
LINE
  8
0
 10
17.4455
 20
-7.17677
 11
16.5819
 21
-6.54936
  0
LINE
  8
0
 10
16.5819
 20
-6.54936
 11
15.8038
 21
-5.81865
  0
LINE
  8
0
 10
15.8038
 20
-5.81865
 11
15.1234
 21
-4.99617
  0
LINE
  8
0
 10
15.1234
 20
-4.99617
 11
14.5514
 21
-4.09489
  0
LINE
  8
0
 10
14.5514
 20
-4.09489
 11
14.0969
 21
-3.12904
  0
LINE
  8
0
 10
14.0969
 20
-3.12904
 11
13.767
 21
-2.11386
  0
LINE
  8
0
 10
13.767
 20
-2.11386
 11
13.567
 21
-1.06532
  0
LINE
  8
0
 10
13.567
 20
-1.06532
 11
13.5
 21
0
  0
LINE
  8
0
 10
13.5
 20
0
 11
13.567
 21
1.06532
  0
LINE
  8
0
 10
13.567
 20
1.06532
 11
13.767
 21
2.11386
  0
LINE
  8
0
 10
13.767
 20
2.11386
 11
14.0969
 21
3.12904
  0
LINE
  8
0
 10
14.0969
 20
3.12904
 11
14.5514
 21
4.09489
  0
LINE
  8
0
 10
14.5514
 20
4.09489
 11
15.1234
 21
4.99617
  0
LINE
  8
0
 10
15.1234
 20
4.99617
 11
15.8038
 21
5.81865
  0
LINE
  8
0
 10
15.8038
 20
5.81865
 11
16.5819
 21
6.54936
  0
LINE
  8
0
 10
16.5819
 20
6.54936
 11
17.4455
 21
7.17677
  0
LINE
  8
0
 10
17.4455
 20
7.17677
 11
18.3809
 21
7.69102
  0
LINE
  8
0
 10
18.3809
 20
7.69102
 11
19.3734
 21
8.08397
  0
LINE
  8
0
 10
19.3734
 20
8.08397
 11
20.4073
 21
8.34944
  0
LINE
  8
0
 10
20.4073
 20
8.34944
 11
21.4663
 21
8.48322
  0
LINE
  8
0
 10
21.4663
 20
8.48322
 11
22.5337
 21
8.48322
  0
LINE
  8
0
 10
22.5337
 20
8.48322
 11
23.5927
 21
8.34944
  0
LINE
  8
0
 10
23.5927
 20
8.34944
 11
24.6266
 21
8.08397
  0
LINE
  8
0
 10
24.6266
 20
8.08397
 11
25.6191
 21
7.69102
  0
LINE
  8
0
 10
25.6191
 20
7.69102
 11
26.5545
 21
7.17677
  0
LINE
  8
0
 10
26.5545
 20
7.17677
 11
27.4181
 21
6.54936
  0
LINE
  8
0
 10
27.4181
 20
6.54936
 11
28.1962
 21
5.81865
  0
LINE
  8
0
 10
28.1962
 20
5.81865
 11
28.8766
 21
4.99617
  0
LINE
  8
0
 10
28.8766
 20
4.99617
 11
29.4486
 21
4.09489
  0
LINE
  8
0
 10
29.4486
 20
4.09489
 11
29.9031
 21
3.12904
  0
LINE
  8
0
 10
29.9031
 20
3.12904
 11
30.233
 21
2.11386
  0
LINE
  8
0
 10
30.233
 20
2.11386
 11
30.433
 21
1.06532
  0
LINE
  8
0
 10
30.433
 20
1.06532
 11
30.5
 21
0
  0
LINE
  8
0
 10
30.5
 20
0
 11
30.433
 21
-1.06532
  0
LINE
  8
0
 10
30.433
 20
-1.06532
 11
30.233
 21
-2.11386
  0
LINE
  8
0
 10
30.233
 20
-2.11386
 11
29.9031
 21
-3.12904
  0
LINE
  8
0
 10
29.9031
 20
-3.12904
 11
29.4486
 21
-4.09489
  0
LINE
  8
0
 10
29.4486
 20
-4.09489
 11
28.8766
 21
-4.99617
  0
LINE
  8
0
 10
28.8766
 20
-4.99617
 11
28.1962
 21
-5.81865
  0
LINE
  8
0
 10
28.1962
 20
-5.81865
 11
27.4181
 21
-6.54936
  0
LINE
  8
0
 10
27.4181
 20
-6.54936
 11
26.5545
 21
-7.17677
  0
LINE
  8
0
 10
26.5545
 20
-7.17677
 11
25.6191
 21
-7.69102
  0
LINE
  8
0
 10
25.6191
 20
-7.69102
 11
24.6266
 21
-8.08397
  0
LINE
  8
0
 10
24.6266
 20
-8.08397
 11
23.5927
 21
-8.34944
  0
LINE
  8
0
 10
23.5927
 20
-8.34944
 11
22.5337
 21
-8.48322
  0
LINE
  8
0
 10
22.5337
 20
-8.48322
 11
21.4663
 21
-8.48322
  0
LINE
  8
0
 10
37.4058
 20
-1.49704
 11
37.2189
 21
-1.47342
  0
LINE
  8
0
 10
37.2189
 20
-1.47342
 11
37.0365
 21
-1.42657
  0
LINE
  8
0
 10
37.0365
 20
-1.42657
 11
36.8613
 21
-1.35724
  0
LINE
  8
0
 10
36.8613
 20
-1.35724
 11
36.6963
 21
-1.26648
  0
LINE
  8
0
 10
36.6963
 20
-1.26648
 11
36.5439
 21
-1.15576
  0
LINE
  8
0
 10
36.5439
 20
-1.15576
 11
36.4065
 21
-1.02681
  0
LINE
  8
0
 10
36.4065
 20
-1.02681
 11
36.2865
 21
-0.881668
  0
LINE
  8
0
 10
36.2865
 20
-0.881668
 11
36.1855
 21
-0.722626
  0
LINE
  8
0
 10
36.1855
 20
-0.722626
 11
36.1053
 21
-0.552185
  0
LINE
  8
0
 10
36.1053
 20
-0.552185
 11
36.0471
 21
-0.373032
  0
LINE
  8
0
 10
36.0471
 20
-0.373032
 11
36.0118
 21
-0.187988
  0
LINE
  8
0
 10
36.0118
 20
-0.187988
 11
36
 21
0
  0
LINE
  8
0
 10
36
 20
0
 11
36.0118
 21
0.187988
  0
LINE
  8
0
 10
36.0118
 20
0.187988
 11
36.0471
 21
0.373032
  0
LINE
  8
0
 10
36.0471
 20
0.373032
 11
36.1053
 21
0.552185
  0
LINE
  8
0
 10
36.1053
 20
0.552185
 11
36.1855
 21
0.722626
  0
LINE
  8
0
 10
36.1855
 20
0.722626
 11
36.2865
 21
0.881668
  0
LINE
  8
0
 10
36.2865
 20
0.881668
 11
36.4065
 21
1.02681
  0
LINE
  8
0
 10
36.4065
 20
1.02681
 11
36.5439
 21
1.15576
  0
LINE
  8
0
 10
36.5439
 20
1.15576
 11
36.6963
 21
1.26648
  0
LINE
  8
0
 10
36.6963
 20
1.26648
 11
36.8613
 21
1.35724
  0
LINE
  8
0
 10
36.8613
 20
1.35724
 11
37.0365
 21
1.42657
  0
LINE
  8
0
 10
37.0365
 20
1.42657
 11
37.2189
 21
1.47342
  0
LINE
  8
0
 10
37.2189
 20
1.47342
 11
37.4058
 21
1.49704
  0
LINE
  8
0
 10
37.4058
 20
1.49704
 11
37.5942
 21
1.49704
  0
LINE
  8
0
 10
37.5942
 20
1.49704
 11
37.7811
 21
1.47342
  0
LINE
  8
0
 10
37.7811
 20
1.47342
 11
37.9635
 21
1.42657
  0
LINE
  8
0
 10
37.9635
 20
1.42657
 11
38.1387
 21
1.35724
  0
LINE
  8
0
 10
38.1387
 20
1.35724
 11
38.3037
 21
1.26648
  0
LINE
  8
0
 10
38.3037
 20
1.26648
 11
38.4561
 21
1.15576
  0
LINE
  8
0
 10
38.4561
 20
1.15576
 11
38.5934
 21
1.02681
  0
LINE
  8
0
 10
38.5934
 20
1.02681
 11
38.7135
 21
0.881668
  0
LINE
  8
0
 10
38.7135
 20
0.881668
 11
38.8145
 21
0.722626
  0
LINE
  8
0
 10
38.8145
 20
0.722626
 11
38.8947
 21
0.552185
  0
LINE
  8
0
 10
38.8947
 20
0.552185
 11
38.9529
 21
0.373032
  0
LINE
  8
0
 10
38.9529
 20
0.373032
 11
38.9882
 21
0.187988
  0
LINE
  8
0
 10
38.9882
 20
0.187988
 11
39
 21
0
  0
LINE
  8
0
 10
39
 20
0
 11
38.9882
 21
-0.187988
  0
LINE
  8
0
 10
38.9882
 20
-0.187988
 11
38.9529
 21
-0.373032
  0
LINE
  8
0
 10
38.9529
 20
-0.373032
 11
38.8947
 21
-0.552185
  0
LINE
  8
0
 10
38.8947
 20
-0.552185
 11
38.8145
 21
-0.722626
  0
LINE
  8
0
 10
38.8145
 20
-0.722626
 11
38.7135
 21
-0.881668
  0
LINE
  8
0
 10
38.7135
 20
-0.881668
 11
38.5934
 21
-1.02681
  0
LINE
  8
0
 10
38.5934
 20
-1.02681
 11
38.4561
 21
-1.15576
  0
LINE
  8
0
 10
38.4561
 20
-1.15576
 11
38.3037
 21
-1.26648
  0
LINE
  8
0
 10
38.3037
 20
-1.26648
 11
38.1387
 21
-1.35724
  0
LINE
  8
0
 10
38.1387
 20
-1.35724
 11
37.9635
 21
-1.42657
  0
LINE
  8
0
 10
37.9635
 20
-1.42657
 11
37.7811
 21
-1.47342
  0
LINE
  8
0
 10
37.7811
 20
-1.47342
 11
37.5942
 21
-1.49704
  0
LINE
  8
0
 10
37.5942
 20
-1.49704
 11
37.4058
 21
-1.49704
  0
LINE
  8
0
 10
-37.5942
 20
-1.49704
 11
-37.7811
 21
-1.47342
  0
LINE
  8
0
 10
-37.7811
 20
-1.47342
 11
-37.9635
 21
-1.42657
  0
LINE
  8
0
 10
-37.9635
 20
-1.42657
 11
-38.1387
 21
-1.35724
  0
LINE
  8
0
 10
-38.1387
 20
-1.35724
 11
-38.3037
 21
-1.26648
  0
LINE
  8
0
 10
-38.3037
 20
-1.26648
 11
-38.4561
 21
-1.15576
  0
LINE
  8
0
 10
-38.4561
 20
-1.15576
 11
-38.5934
 21
-1.02681
  0
LINE
  8
0
 10
-38.5934
 20
-1.02681
 11
-38.7135
 21
-0.881668
  0
LINE
  8
0
 10
-38.7135
 20
-0.881668
 11
-38.8145
 21
-0.722626
  0
LINE
  8
0
 10
-38.8145
 20
-0.722626
 11
-38.8947
 21
-0.552185
  0
LINE
  8
0
 10
-38.8947
 20
-0.552185
 11
-38.9529
 21
-0.373032
  0
LINE
  8
0
 10
-38.9529
 20
-0.373032
 11
-38.9882
 21
-0.187988
  0
LINE
  8
0
 10
-38.9882
 20
-0.187988
 11
-39
 21
0
  0
LINE
  8
0
 10
-39
 20
0
 11
-38.9882
 21
0.187988
  0
LINE
  8
0
 10
-38.9882
 20
0.187988
 11
-38.9529
 21
0.373032
  0
LINE
  8
0
 10
-38.9529
 20
0.373032
 11
-38.8947
 21
0.552185
  0
LINE
  8
0
 10
-38.8947
 20
0.552185
 11
-38.8145
 21
0.722626
  0
LINE
  8
0
 10
-38.8145
 20
0.722626
 11
-38.7135
 21
0.881668
  0
LINE
  8
0
 10
-38.7135
 20
0.881668
 11
-38.5934
 21
1.02681
  0
LINE
  8
0
 10
-38.5934
 20
1.02681
 11
-38.4561
 21
1.15576
  0
LINE
  8
0
 10
-38.4561
 20
1.15576
 11
-38.3037
 21
1.26648
  0
LINE
  8
0
 10
-38.3037
 20
1.26648
 11
-38.1387
 21
1.35724
  0
LINE
  8
0
 10
-38.1387
 20
1.35724
 11
-37.9635
 21
1.42657
  0
LINE
  8
0
 10
-37.9635
 20
1.42657
 11
-37.7811
 21
1.47342
  0
LINE
  8
0
 10
-37.7811
 20
1.47342
 11
-37.5942
 21
1.49704
  0
LINE
  8
0
 10
-37.5942
 20
1.49704
 11
-37.4058
 21
1.49704
  0
LINE
  8
0
 10
-37.4058
 20
1.49704
 11
-37.2189
 21
1.47342
  0
LINE
  8
0
 10
-37.2189
 20
1.47342
 11
-37.0365
 21
1.42657
  0
LINE
  8
0
 10
-37.0365
 20
1.42657
 11
-36.8613
 21
1.35724
  0
LINE
  8
0
 10
-36.8613
 20
1.35724
 11
-36.6963
 21
1.26648
  0
LINE
  8
0
 10
-36.6963
 20
1.26648
 11
-36.5439
 21
1.15576
  0
LINE
  8
0
 10
-36.5439
 20
1.15576
 11
-36.4065
 21
1.02681
  0
LINE
  8
0
 10
-36.4065
 20
1.02681
 11
-36.2865
 21
0.881668
  0
LINE
  8
0
 10
-36.2865
 20
0.881668
 11
-36.1855
 21
0.722626
  0
LINE
  8
0
 10
-36.1855
 20
0.722626
 11
-36.1053
 21
0.552185
  0
LINE
  8
0
 10
-36.1053
 20
0.552185
 11
-36.0471
 21
0.373032
  0
LINE
  8
0
 10
-36.0471
 20
0.373032
 11
-36.0118
 21
0.187988
  0
LINE
  8
0
 10
-36.0118
 20
0.187988
 11
-36
 21
0
  0
LINE
  8
0
 10
-36
 20
0
 11
-36.0118
 21
-0.187988
  0
LINE
  8
0
 10
-36.0118
 20
-0.187988
 11
-36.0471
 21
-0.373032
  0
LINE
  8
0
 10
-36.0471
 20
-0.373032
 11
-36.1053
 21
-0.552185
  0
LINE
  8
0
 10
-36.1053
 20
-0.552185
 11
-36.1855
 21
-0.722626
  0
LINE
  8
0
 10
-36.1855
 20
-0.722626
 11
-36.2865
 21
-0.881668
  0
LINE
  8
0
 10
-36.2865
 20
-0.881668
 11
-36.4065
 21
-1.02681
  0
LINE
  8
0
 10
-36.4065
 20
-1.02681
 11
-36.5439
 21
-1.15576
  0
LINE
  8
0
 10
-36.5439
 20
-1.15576
 11
-36.6963
 21
-1.26648
  0
LINE
  8
0
 10
-36.6963
 20
-1.26648
 11
-36.8613
 21
-1.35724
  0
LINE
  8
0
 10
-36.8613
 20
-1.35724
 11
-37.0365
 21
-1.42657
  0
LINE
  8
0
 10
-37.0365
 20
-1.42657
 11
-37.2189
 21
-1.47342
  0
LINE
  8
0
 10
-37.2189
 20
-1.47342
 11
-37.4058
 21
-1.49704
  0
LINE
  8
0
 10
-37.4058
 20
-1.49704
 11
-37.5942
 21
-1.49704
  0
LINE
  8
0
 10
-37.6884
 20
-10.4941
 11
-38.0621
 21
-10.4469
  0
LINE
  8
0
 10
-38.0621
 20
-10.4469
 11
-38.427
 21
-10.3532
  0
LINE
  8
0
 10
-38.427
 20
-10.3532
 11
-38.7773
 21
-10.2145
  0
LINE
  8
0
 10
-38.7773
 20
-10.2145
 11
-39.1075
 21
-10.033
  0
LINE
  8
0
 10
-39.1075
 20
-10.033
 11
-39.4123
 21
-9.81154
  0
LINE
  8
0
 10
-39.4123
 20
-9.81154
 11
-39.6869
 21
-9.55363
  0
LINE
  8
0
 10
-39.6869
 20
-9.55363
 11
-39.927
 21
-9.26335
  0
LINE
  8
0
 10
-39.927
 20
-9.26335
 11
-40.1289
 21
-8.94525
  0
LINE
  8
0
 10
-40.1289
 20
-8.94525
 11
-40.2893
 21
-8.60437
  0
LINE
  8
0
 10
-40.2893
 20
-8.60437
 11
-40.4057
 21
-8.24606
  0
LINE
  8
0
 10
-40.4057
 20
-8.24606
 11
-40.4763
 21
-7.87599
  0
LINE
  8
0
 10
-40.4763
 20
-7.87599
 11
-40.5
 21
-7.5
  0
LINE
  8
0
 10
-40.5
 20
-7.5
 11
-40.4763
 21
-7.12399
  0
LINE
  8
0
 10
-40.4763
 20
-7.12399
 11
-40.4057
 21
-6.75392
  0
LINE
  8
0
 10
-40.4057
 20
-6.75392
 11
-40.2893
 21
-6.39561
  0
LINE
  8
0
 10
-40.2893
 20
-6.39561
 11
-40.1289
 21
-6.05473
  0
LINE
  8
0
 10
-40.1289
 20
-6.05473
 11
-39.927
 21
-5.73663
  0
LINE
  8
0
 10
-39.927
 20
-5.73663
 11
-39.6869
 21
-5.44635
  0
LINE
  8
0
 10
-39.6869
 20
-5.44635
 11
-39.4123
 21
-5.18845
  0
LINE
  8
0
 10
-39.4123
 20
-5.18845
 11
-39.1075
 21
-4.96701
  0
LINE
  8
0
 10
-39.1075
 20
-4.96701
 11
-38.7773
 21
-4.78551
  0
LINE
  8
0
 10
-38.7773
 20
-4.78551
 11
-38.427
 21
-4.64682
  0
LINE
  8
0
 10
-38.427
 20
-4.64682
 11
-38.0621
 21
-4.55313
  0
LINE
  8
0
 10
-38.0621
 20
-4.55313
 11
-37.6884
 21
-4.50591
  0
LINE
  8
0
 10
-37.6884
 20
-4.50591
 11
-37.3116
 21
-4.50591
  0
LINE
  8
0
 10
-37.3116
 20
-4.50591
 11
-36.9379
 21
-4.55313
  0
LINE
  8
0
 10
-36.9379
 20
-4.55313
 11
-36.5729
 21
-4.64682
  0
LINE
  8
0
 10
-36.5729
 20
-4.64682
 11
-36.2227
 21
-4.78551
  0
LINE
  8
0
 10
-36.2227
 20
-4.78551
 11
-35.8925
 21
-4.96701
  0
LINE
  8
0
 10
-35.8925
 20
-4.96701
 11
-35.5877
 21
-5.18845
  0
LINE
  8
0
 10
-35.5877
 20
-5.18845
 11
-35.3131
 21
-5.44635
  0
LINE
  8
0
 10
-35.3131
 20
-5.44635
 11
-35.0729
 21
-5.73663
  0
LINE
  8
0
 10
-35.0729
 20
-5.73663
 11
-34.8711
 21
-6.05473
  0
LINE
  8
0
 10
-34.8711
 20
-6.05473
 11
-34.7107
 21
-6.39561
  0
LINE
  8
0
 10
-34.7107
 20
-6.39561
 11
-34.5942
 21
-6.75392
  0
LINE
  8
0
 10
-34.5942
 20
-6.75392
 11
-34.5237
 21
-7.12399
  0
LINE
  8
0
 10
-34.5237
 20
-7.12399
 11
-34.5
 21
-7.5
  0
LINE
  8
0
 10
-34.5
 20
-7.5
 11
-34.5237
 21
-7.87599
  0
LINE
  8
0
 10
-34.5237
 20
-7.87599
 11
-34.5942
 21
-8.24606
  0
LINE
  8
0
 10
-34.5942
 20
-8.24606
 11
-34.7107
 21
-8.60437
  0
LINE
  8
0
 10
-34.7107
 20
-8.60437
 11
-34.8711
 21
-8.94525
  0
LINE
  8
0
 10
-34.8711
 20
-8.94525
 11
-35.0729
 21
-9.26335
  0
LINE
  8
0
 10
-35.0729
 20
-9.26335
 11
-35.3131
 21
-9.55363
  0
LINE
  8
0
 10
-35.3131
 20
-9.55363
 11
-35.5877
 21
-9.81154
  0
LINE
  8
0
 10
-35.5877
 20
-9.81154
 11
-35.8925
 21
-10.033
  0
LINE
  8
0
 10
-35.8925
 20
-10.033
 11
-36.2227
 21
-10.2145
  0
LINE
  8
0
 10
-36.2227
 20
-10.2145
 11
-36.5729
 21
-10.3532
  0
LINE
  8
0
 10
-36.5729
 20
-10.3532
 11
-36.9379
 21
-10.4469
  0
LINE
  8
0
 10
-36.9379
 20
-10.4469
 11
-37.3116
 21
-10.4941
  0
LINE
  8
0
 10
-37.3116
 20
-10.4941
 11
-37.6884
 21
-10.4941
  0
LINE
  8
0
 10
37.3116
 20
-10.4941
 11
36.9379
 21
-10.4469
  0
LINE
  8
0
 10
36.9379
 20
-10.4469
 11
36.5729
 21
-10.3532
  0
LINE
  8
0
 10
36.5729
 20
-10.3532
 11
36.2227
 21
-10.2145
  0
LINE
  8
0
 10
36.2227
 20
-10.2145
 11
35.8925
 21
-10.033
  0
LINE
  8
0
 10
35.8925
 20
-10.033
 11
35.5877
 21
-9.81154
  0
LINE
  8
0
 10
35.5877
 20
-9.81154
 11
35.3131
 21
-9.55363
  0
LINE
  8
0
 10
35.3131
 20
-9.55363
 11
35.0729
 21
-9.26335
  0
LINE
  8
0
 10
35.0729
 20
-9.26335
 11
34.8711
 21
-8.94525
  0
LINE
  8
0
 10
34.8711
 20
-8.94525
 11
34.7107
 21
-8.60437
  0
LINE
  8
0
 10
34.7107
 20
-8.60437
 11
34.5942
 21
-8.24606
  0
LINE
  8
0
 10
34.5942
 20
-8.24606
 11
34.5237
 21
-7.87599
  0
LINE
  8
0
 10
34.5237
 20
-7.87599
 11
34.5
 21
-7.5
  0
LINE
  8
0
 10
34.5
 20
-7.5
 11
34.5237
 21
-7.12399
  0
LINE
  8
0
 10
34.5237
 20
-7.12399
 11
34.5942
 21
-6.75392
  0
LINE
  8
0
 10
34.5942
 20
-6.75392
 11
34.7107
 21
-6.39561
  0
LINE
  8
0
 10
34.7107
 20
-6.39561
 11
34.8711
 21
-6.05473
  0
LINE
  8
0
 10
34.8711
 20
-6.05473
 11
35.0729
 21
-5.73663
  0
LINE
  8
0
 10
35.0729
 20
-5.73663
 11
35.3131
 21
-5.44635
  0
LINE
  8
0
 10
35.3131
 20
-5.44635
 11
35.5877
 21
-5.18845
  0
LINE
  8
0
 10
35.5877
 20
-5.18845
 11
35.8925
 21
-4.96701
  0
LINE
  8
0
 10
35.8925
 20
-4.96701
 11
36.2227
 21
-4.78551
  0
LINE
  8
0
 10
36.2227
 20
-4.78551
 11
36.5729
 21
-4.64682
  0
LINE
  8
0
 10
36.5729
 20
-4.64682
 11
36.9379
 21
-4.55313
  0
LINE
  8
0
 10
36.9379
 20
-4.55313
 11
37.3116
 21
-4.50591
  0
LINE
  8
0
 10
37.3116
 20
-4.50591
 11
37.6884
 21
-4.50591
  0
LINE
  8
0
 10
37.6884
 20
-4.50591
 11
38.0621
 21
-4.55313
  0
LINE
  8
0
 10
38.0621
 20
-4.55313
 11
38.427
 21
-4.64682
  0
LINE
  8
0
 10
38.427
 20
-4.64682
 11
38.7773
 21
-4.78551
  0
LINE
  8
0
 10
38.7773
 20
-4.78551
 11
39.1075
 21
-4.96701
  0
LINE
  8
0
 10
39.1075
 20
-4.96701
 11
39.4123
 21
-5.18845
  0
LINE
  8
0
 10
39.4123
 20
-5.18845
 11
39.6869
 21
-5.44635
  0
LINE
  8
0
 10
39.6869
 20
-5.44635
 11
39.927
 21
-5.73663
  0
LINE
  8
0
 10
39.927
 20
-5.73663
 11
40.1289
 21
-6.05473
  0
LINE
  8
0
 10
40.1289
 20
-6.05473
 11
40.2893
 21
-6.39561
  0
LINE
  8
0
 10
40.2893
 20
-6.39561
 11
40.4057
 21
-6.75392
  0
LINE
  8
0
 10
40.4057
 20
-6.75392
 11
40.4763
 21
-7.12399
  0
LINE
  8
0
 10
40.4763
 20
-7.12399
 11
40.5
 21
-7.5
  0
LINE
  8
0
 10
40.5
 20
-7.5
 11
40.4763
 21
-7.87599
  0
LINE
  8
0
 10
40.4763
 20
-7.87599
 11
40.4057
 21
-8.24606
  0
LINE
  8
0
 10
40.4057
 20
-8.24606
 11
40.2893
 21
-8.60437
  0
LINE
  8
0
 10
40.2893
 20
-8.60437
 11
40.1289
 21
-8.94525
  0
LINE
  8
0
 10
40.1289
 20
-8.94525
 11
39.927
 21
-9.26335
  0
LINE
  8
0
 10
39.927
 20
-9.26335
 11
39.6869
 21
-9.55363
  0
LINE
  8
0
 10
39.6869
 20
-9.55363
 11
39.4123
 21
-9.81154
  0
LINE
  8
0
 10
39.4123
 20
-9.81154
 11
39.1075
 21
-10.033
  0
LINE
  8
0
 10
39.1075
 20
-10.033
 11
38.7773
 21
-10.2145
  0
LINE
  8
0
 10
38.7773
 20
-10.2145
 11
38.427
 21
-10.3532
  0
LINE
  8
0
 10
38.427
 20
-10.3532
 11
38.0621
 21
-10.4469
  0
LINE
  8
0
 10
38.0621
 20
-10.4469
 11
37.6884
 21
-10.4941
  0
LINE
  8
0
 10
37.6884
 20
-10.4941
 11
37.3116
 21
-10.4941
  0
ENDSEC
  0
SECTION
  2
OBJECTS
  0
DICTIONARY
  0
ENDSEC
  0
EOF
