<?xml version="1.0" standalone="no"?>
<!DOCTYPE svg PUBLIC "-//W3C//DTD SVG 1.1//EN" "http://www.w3.org/Graphics/SVG/1.1/DTD/svg11.dtd">
<svg width="60mm" height="30mm" viewBox="-30 -15 60 30" xmlns="http://www.w3.org/2000/svg" version="1.1">
<title>OpenSCAD Model</title>
<path d="
M 25.4369,14.4114 L 26.0451,14.2553 L 26.6289,14.0241 L 27.1791,13.7216 L 27.6871,13.3526 L 28.1448,12.9227
 L 28.5451,12.4389 L 28.8815,11.9088 L 29.1489,11.3406 L 29.3429,10.7434 L 29.4606,10.1267 L 29.5,9.5
 L 29.5,-9.5 L 29.4606,-10.1267 L 29.3429,-10.7434 L 29.1489,-11.3406 L 28.8815,-11.9088 L 28.5451,-12.4389
 L 28.1448,-12.9227 L 27.6871,-13.3526 L 27.1791,-13.7216 L 26.6289,-14.0241 L 26.0451,-14.2553 L 25.4369,-14.4114
 L 24.8139,-14.4901 L -24.8139,-14.4901 L -25.4369,-14.4114 L -26.0451,-14.2553 L -26.6289,-14.0241 L -27.1791,-13.7216
 L -27.6871,-13.3526 L -28.1448,-12.9227 L -28.5451,-12.4389 L -28.8815,-11.9088 L -29.1489,-11.3406 L -29.3429,-10.7434
 L -29.4606,-10.1267 L -29.5,-9.5 L -29.5,9.5 L -29.4606,10.1267 L -29.3429,10.7434 L -29.1489,11.3406
 L -28.8815,11.9088 L -28.5451,12.4389 L -28.1448,12.9227 L -27.6871,13.3526 L -27.1791,13.7216 L -26.6289,14.0241
 L -26.0451,14.2553 L -25.4369,14.4114 L -24.8139,14.4901 L 24.8139,14.4901 z
M 7.31161,-4.50591 L 6.93785,-4.55313 L 6.57294,-4.64682 L 6.22266,-4.78551 L 5.89252,-4.96701 L 5.58772,-5.18845
 L 5.31308,-5.44635 L 5.07294,-5.73663 L 4.87108,-6.05473 L 4.71066,-6.39561 L 4.59424,-6.75392 L 4.52365,-7.12399
 L 4.5,-7.5 L 4.52365,-7.87599 L 4.59424,-8.24606 L 4.71066,-8.60437 L 4.87108,-8.94525 L 5.07294,-9.26335
 L 5.31308,-9.55363 L 5.58772,-9.81154 L 5.89252,-10.033 L 6.22266,-10.2145 L 6.57294,-10.3532 L 6.93785,-10.4469
 L 7.31161,-10.4941 L 7.68837,-10.4941 L 8.06213,-10.4469 L 8.42705,-10.3532 L 8.77733,-10.2145 L 9.10747,-10.033
 L 9.41226,-9.81154 L 9.6869,-9.55363 L 9.92705,-9.26335 L 10.1289,-8.94525 L 10.2893,-8.60437 L 10.4057,-8.24606
 L 10.4763,-7.87599 L 10.5,-7.5 L 10.4763,-7.12399 L 10.4057,-6.75392 L 10.2893,-6.39561 L 10.1289,-6.05473
 L 9.92705,-5.73663 L 9.6869,-5.44635 L 9.41226,-5.18845 L 9.10747,-4.96701 L 8.77733,-4.78551 L 8.42705,-4.64682
 L 8.06213,-4.55313 L 7.68837,-4.50591 z
M 22.3116,-4.50591 L 21.9379,-4.55313 L 21.5729,-4.64682 L 21.2227,-4.78551 L 20.8925,-4.96701 L 20.5877,-5.18845
 L 20.3131,-5.44635 L 20.0729,-5.73663 L 19.8711,-6.05473 L 19.7107,-6.39561 L 19.5942,-6.75392 L 19.5237,-7.12399
 L 19.5,-7.5 L 19.5237,-7.87599 L 19.5942,-8.24606 L 19.7107,-8.60437 L 19.8711,-8.94525 L 20.0729,-9.26335
 L 20.3131,-9.55363 L 20.5877,-9.81154 L 20.8925,-10.033 L 21.2227,-10.2145 L 21.5729,-10.3532 L 21.9379,-10.4469
 L 22.3116,-10.4941 L 22.6884,-10.4941 L 23.0621,-10.4469 L 23.427,-10.3532 L 23.7773,-10.2145 L 24.1075,-10.033
 L 24.4123,-9.81154 L 24.6869,-9.55363 L 24.927,-9.26335 L 25.1289,-8.94525 L 25.2893,-8.60437 L 25.4057,-8.24606
 L 25.4763,-7.87599 L 25.5,-7.5 L 25.4763,-7.12399 L 25.4057,-6.75392 L 25.2893,-6.39561 L 25.1289,-6.05473
 L 24.927,-5.73663 L 24.6869,-5.44635 L 24.4123,-5.18845 L 24.1075,-4.96701 L 23.7773,-4.78551 L 23.427,-4.64682
 L 23.0621,-4.55313 L 22.6884,-4.50591 z
M -7.68837,-4.50591 L -8.06213,-4.55313 L -8.42705,-4.64682 L -8.77733,-4.78551 L -9.10747,-4.96701 L -9.41226,-5.18845
 L -9.6869,-5.44635 L -9.92705,-5.73663 L -10.1289,-6.05473 L -10.2893,-6.39561 L -10.4057,-6.75392 L -10.4763,-7.12399
 L -10.5,-7.5 L -10.4763,-7.87599 L -10.4057,-8.24606 L -10.2893,-8.60437 L -10.1289,-8.94525 L -9.92705,-9.26335
 L -9.6869,-9.55363 L -9.41226,-9.81154 L -9.10747,-10.033 L -8.77733,-10.2145 L -8.42705,-10.3532 L -8.06213,-10.4469
 L -7.68837,-10.4941 L -7.31161,-10.4941 L -6.93785,-10.4469 L -6.57294,-10.3532 L -6.22266,-10.2145 L -5.89252,-10.033
 L -5.58772,-9.81154 L -5.31308,-9.55363 L -5.07294,-9.26335 L -4.87108,-8.94525 L -4.71066,-8.60437 L -4.59424,-8.24606
 L -4.52365,-7.87599 L -4.5,-7.5 L -4.52365,-7.12399 L -4.59424,-6.75392 L -4.71066,-6.39561 L -4.87108,-6.05473
 L -5.07294,-5.73663 L -5.31308,-5.44635 L -5.58772,-5.18845 L -5.89252,-4.96701 L -6.22266,-4.78551 L -6.57294,-4.64682
 L -6.93785,-4.55313 L -7.31161,-4.50591 z
M -22.6884,-4.50591 L -23.0621,-4.55313 L -23.427,-4.64682 L -23.7773,-4.78551 L -24.1075,-4.96701 L -24.4123,-5.18845
 L -24.6869,-5.44635 L -24.927,-5.73663 L -25.1289,-6.05473 L -25.2893,-6.39561 L -25.4057,-6.75392 L -25.4763,-7.12399
 L -25.5,-7.5 L -25.4763,-7.87599 L -25.4057,-8.24606 L -25.2893,-8.60437 L -25.1289,-8.94525 L -24.927,-9.26335
 L -24.6869,-9.55363 L -24.4123,-9.81154 L -24.1075,-10.033 L -23.7773,-10.2145 L -23.427,-10.3532 L -23.0621,-10.4469
 L -22.6884,-10.4941 L -22.3116,-10.4941 L -21.9379,-10.4469 L -21.5729,-10.3532 L -21.2227,-10.2145 L -20.8925,-10.033
 L -20.5877,-9.81154 L -20.3131,-9.55363 L -20.0729,-9.26335 L -19.8711,-8.94525 L -19.7107,-8.60437 L -19.5942,-8.24606
 L -19.5237,-7.87599 L -19.5,-7.5 L -19.5237,-7.12399 L -19.5942,-6.75392 L -19.7107,-6.39561 L -19.8711,-6.05473
 L -20.0729,-5.73663 L -20.3131,-5.44635 L -20.5877,-5.18845 L -20.8925,-4.96701 L -21.2227,-4.78551 L -21.5729,-4.64682
 L -21.9379,-4.55313 L -22.3116,-4.50591 z
M 14.9058,-6.00294 L 14.7189,-6.02657 L 14.5365,-6.07341 L 14.3613,-6.14275 L 14.1963,-6.23351 L 14.0439,-6.34422
 L 13.9065,-6.47318 L 13.7865,-6.61832 L 13.6855,-6.77736 L 13.6053,-6.9478 L 13.5471,-7.12695 L 13.5118,-7.312
 L 13.5,-7.5 L 13.5118,-7.68799 L 13.5471,-7.87303 L 13.6053,-8.05219 L 13.6855,-8.22263 L 13.7865,-8.38167
 L 13.9065,-8.52681 L 14.0439,-8.65576 L 14.1963,-8.76648 L 14.3613,-8.85724 L 14.5365,-8.92657 L 14.7189,-8.97342
 L 14.9058,-8.99704 L 15.0942,-8.99704 L 15.2811,-8.97342 L 15.4635,-8.92657 L 15.6387,-8.85724 L 15.8037,-8.76648
 L 15.9561,-8.65576 L 16.0934,-8.52681 L 16.2135,-8.38167 L 16.3145,-8.22263 L 16.3947,-8.05219 L 16.4529,-7.87303
 L 16.4882,-7.68799 L 16.5,-7.5 L 16.4882,-7.312 L 16.4529,-7.12695 L 16.3947,-6.9478 L 16.3145,-6.77736
 L 16.2135,-6.61832 L 16.0934,-6.47318 L 15.9561,-6.34422 L 15.8037,-6.23351 L 15.6387,-6.14275 L 15.4635,-6.07341
 L 15.2811,-6.02657 L 15.0942,-6.00294 z
M -0.0941772,-6.00294 L -0.281067,-6.02657 L -0.463516,-6.07341 L -0.638657,-6.14275 L -0.803726,-6.23351 L -0.956131,-6.34422
 L -1.09344,-6.47318 L -1.21352,-6.61832 L -1.31445,-6.77736 L -1.39465,-6.9478 L -1.45287,-7.12695 L -1.48816,-7.312
 L -1.5,-7.5 L -1.48816,-7.68799 L -1.45287,-7.87303 L -1.39465,-8.05219 L -1.31445,-8.22263 L -1.21352,-8.38167
 L -1.09344,-8.52681 L -0.956131,-8.65576 L -0.803726,-8.76648 L -0.638657,-8.85724 L -0.463516,-8.92657 L -0.281067,-8.97342
 L -0.0941772,-8.99704 L 0.0941772,-8.99704 L 0.281067,-8.97342 L 0.463516,-8.92657 L 0.638657,-8.85724 L 0.803726,-8.76648
 L 0.956131,-8.65576 L 1.09344,-8.52681 L 1.21352,-8.38167 L 1.31445,-8.22263 L 1.39465,-8.05219 L 1.45287,-7.87303
 L 1.48816,-7.68799 L 1.5,-7.5 L 1.48816,-7.312 L 1.45287,-7.12695 L 1.39465,-6.9478 L 1.31445,-6.77736
 L 1.21352,-6.61832 L 1.09344,-6.47318 L 0.956131,-6.34422 L 0.803726,-6.23351 L 0.638657,-6.14275 L 0.463516,-6.07341
 L 0.281067,-6.02657 L 0.0941772,-6.00294 z
M -15.0942,-6.00294 L -15.2811,-6.02657 L -15.4635,-6.07341 L -15.6387,-6.14275 L -15.8037,-6.23351 L -15.9561,-6.34422
 L -16.0934,-6.47318 L -16.2135,-6.61832 L -16.3145,-6.77736 L -16.3947,-6.9478 L -16.4529,-7.12695 L -16.4882,-7.312
 L -16.5,-7.5 L -16.4882,-7.68799 L -16.4529,-7.87303 L -16.3947,-8.05219 L -16.3145,-8.22263 L -16.2135,-8.38167
 L -16.0934,-8.52681 L -15.9561,-8.65576 L -15.8037,-8.76648 L -15.6387,-8.85724 L -15.4635,-8.92657 L -15.2811,-8.97342
 L -15.0942,-8.99704 L -14.9058,-8.99704 L -14.7189,-8.97342 L -14.5365,-8.92657 L -14.3613,-8.85724 L -14.1963,-8.76648
 L -14.0439,-8.65576 L -13.9065,-8.52681 L -13.7865,-8.38167 L -13.6855,-8.22263 L -13.6053,-8.05219 L -13.5471,-7.87303
 L -13.5118,-7.68799 L -13.5,-7.5 L -13.5118,-7.312 L -13.5471,-7.12695 L -13.6053,-6.9478 L -13.6855,-6.77736
 L -13.7865,-6.61832 L -13.9065,-6.47318 L -14.0439,-6.34422 L -14.1963,-6.23351 L -14.3613,-6.14275 L -14.5365,-6.07341
 L -14.7189,-6.02657 L -14.9058,-6.00294 z
M -9.12558,1.99605 L -9.37476,1.96457 L -9.61803,1.9021 L -9.85155,1.80965 L -10.0716,1.68864 L -10.2748,1.54102
 L -10.4579,1.36908 L -10.618,1.17557 L -10.7526,0.963501 L -10.8595,0.736237 L -10.9372,0.497375 L -10.9842,0.250656
 L -11,-0 L -10.9842,-0.250656 L -10.9372,-0.497375 L -10.8595,-0.736237 L -10.7526,-0.963501 L -10.618,-1.17557
 L -10.4579,-1.36908 L -10.2748,-1.54102 L -10.0716,-1.68864 L -9.85155,-1.80965 L -9.61803,-1.9021 L -9.37476,-1.96457
 L -9.12558,-1.99605 L -8.8744,-1.99605 L -8.62523,-1.96457 L -8.38196,-1.9021 L -8.14844,-1.80965 L -7.92834,-1.68864
 L -7.72514,-1.54102 L -7.54205,-1.36908 L -7.38196,-1.17557 L -7.24738,-0.963501 L -7.14044,-0.736237 L -7.06282,-0.497375
 L -7.01576,-0.250656 L -7,-0 L -7.01576,0.250656 L -7.06282,0.497375 L -7.14044,0.736237 L -7.24738,0.963501
 L -7.38196,1.17557 L -7.54205,1.36908 L -7.72514,1.54102 L -7.92834,1.68864 L -8.14844,1.80965 L -8.38196,1.9021
 L -8.62523,1.96457 L -8.8744,1.99605 z
M -18.1256,1.99605 L -18.3748,1.96457 L -18.618,1.9021 L -18.8515,1.80965 L -19.0716,1.68864 L -19.2748,1.54102
 L -19.4579,1.36908 L -19.618,1.17557 L -19.7526,0.963501 L -19.8595,0.736237 L -19.9372,0.497375 L -19.9842,0.250656
 L -20,-0 L -19.9842,-0.250656 L -19.9372,-0.497375 L -19.8595,-0.736237 L -19.7526,-0.963501 L -19.618,-1.17557
 L -19.4579,-1.36908 L -19.2748,-1.54102 L -19.0716,-1.68864 L -18.8515,-1.80965 L -18.618,-1.9021 L -18.3748,-1.96457
 L -18.1256,-1.99605 L -17.8744,-1.99605 L -17.6252,-1.96457 L -17.382,-1.9021 L -17.1484,-1.80965 L -16.9283,-1.68864
 L -16.7251,-1.54102 L -16.5421,-1.36908 L -16.382,-1.17557 L -16.2474,-0.963501 L -16.1404,-0.736237 L -16.0628,-0.497375
 L -16.0158,-0.250656 L -16,-0 L -16.0158,0.250656 L -16.0628,0.497375 L -16.1404,0.736237 L -16.2474,0.963501
 L -16.382,1.17557 L -16.5421,1.36908 L -16.7251,1.54102 L -16.9283,1.68864 L -17.1484,1.80965 L -17.382,1.9021
 L -17.6252,1.96457 L -17.8744,1.99605 z
M 17.8744,1.99605 L 17.6252,1.96457 L 17.382,1.9021 L 17.1484,1.80965 L 16.9283,1.68864 L 16.7251,1.54102
 L 16.5421,1.36908 L 16.382,1.17557 L 16.2474,0.963501 L 16.1404,0.736237 L 16.0628,0.497375 L 16.0158,0.250656
 L 16,-0 L 16.0158,-0.250656 L 16.0628,-0.497375 L 16.1404,-0.736237 L 16.2474,-0.963501 L 16.382,-1.17557
 L 16.5421,-1.36908 L 16.7251,-1.54102 L 16.9283,-1.68864 L 17.1484,-1.80965 L 17.382,-1.9021 L 17.6252,-1.96457
 L 17.8744,-1.99605 L 18.1256,-1.99605 L 18.3748,-1.96457 L 18.618,-1.9021 L 18.8515,-1.80965 L 19.0716,-1.68864
 L 19.2748,-1.54102 L 19.4579,-1.36908 L 19.618,-1.17557 L 19.7526,-0.963501 L 19.8595,-0.736237 L 19.9372,-0.497375
 L 19.9842,-0.250656 L 20,-0 L 19.9842,0.250656 L 19.9372,0.497375 L 19.8595,0.736237 L 19.7526,0.963501
 L 19.618,1.17557 L 19.4579,1.36908 L 19.2748,1.54102 L 19.0716,1.68864 L 18.8515,1.80965 L 18.618,1.9021
 L 18.3748,1.96457 L 18.1256,1.99605 z
M -0.12558,1.99605 L -0.374756,1.96457 L -0.618027,1.9021 L -0.851547,1.80965 L -1.07164,1.68864 L -1.27484,1.54102
 L -1.45793,1.36908 L -1.61803,1.17557 L -1.75261,0.963501 L -1.85954,0.736237 L -1.93716,0.497375 L -1.98422,0.250656
 L -2,-0 L -1.98422,-0.250656 L -1.93716,-0.497375 L -1.85954,-0.736237 L -1.75261,-0.963501 L -1.61803,-1.17557
 L -1.45793,-1.36908 L -1.27484,-1.54102 L -1.07164,-1.68864 L -0.851547,-1.80965 L -0.618027,-1.9021 L -0.374756,-1.96457
 L -0.12558,-1.99605 L 0.12558,-1.99605 L 0.374756,-1.96457 L 0.618027,-1.9021 L 0.851547,-1.80965 L 1.07164,-1.68864
 L 1.27484,-1.54102 L 1.45793,-1.36908 L 1.61803,-1.17557 L 1.75261,-0.963501 L 1.85954,-0.736237 L 1.93716,-0.497375
 L 1.98422,-0.250656 L 2,-0 L 1.98422,0.250656 L 1.93716,0.497375 L 1.85954,0.736237 L 1.75261,0.963501
 L 1.61803,1.17557 L 1.45793,1.36908 L 1.27484,1.54102 L 1.07164,1.68864 L 0.851547,1.80965 L 0.618027,1.9021
 L 0.374756,1.96457 L 0.12558,1.99605 z
M 8.8744,1.99605 L 8.62523,1.96457 L 8.38196,1.9021 L 8.14844,1.80965 L 7.92834,1.68864 L 7.72514,1.54102
 L 7.54205,1.36908 L 7.38196,1.17557 L 7.24738,0.963501 L 7.14044,0.736237 L 7.06282,0.497375 L 7.01576,0.250656
 L 7,-0 L 7.01576,-0.250656 L 7.06282,-0.497375 L 7.14044,-0.736237 L 7.24738,-0.963501 L 7.38196,-1.17557
 L 7.54205,-1.36908 L 7.72514,-1.54102 L 7.92834,-1.68864 L 8.14844,-1.80965 L 8.38196,-1.9021 L 8.62523,-1.96457
 L 8.8744,-1.99605 L 9.12558,-1.99605 L 9.37476,-1.96457 L 9.61803,-1.9021 L 9.85155,-1.80965 L 10.0716,-1.68864
 L 10.2748,-1.54102 L 10.4579,-1.36908 L 10.618,-1.17557 L 10.7526,-0.963501 L 10.8595,-0.736237 L 10.9372,-0.497375
 L 10.9842,-0.250656 L 11,-0 L 10.9842,0.250656 L 10.9372,0.497375 L 10.8595,0.736237 L 10.7526,0.963501
 L 10.618,1.17557 L 10.4579,1.36908 L 10.2748,1.54102 L 10.0716,1.68864 L 9.85155,1.80965 L 9.61803,1.9021
 L 9.37476,1.96457 L 9.12558,1.99605 z
M 7.31161,10.4941 L 6.93785,10.4469 L 6.57294,10.3532 L 6.22266,10.2145 L 5.89252,10.033 L 5.58772,9.81154
 L 5.31308,9.55363 L 5.07294,9.26335 L 4.87108,8.94525 L 4.71066,8.60437 L 4.59424,8.24606 L 4.52365,7.87599
 L 4.5,7.5 L 4.52365,7.12399 L 4.59424,6.75392 L 4.71066,6.39561 L 4.87108,6.05473 L 5.07294,5.73663
 L 5.31308,5.44635 L 5.58772,5.18845 L 5.89252,4.96701 L 6.22266,4.78551 L 6.57294,4.64682 L 6.93785,4.55313
 L 7.31161,4.50591 L 7.68837,4.50591 L 8.06213,4.55313 L 8.42705,4.64682 L 8.77733,4.78551 L 9.10747,4.96701
 L 9.41226,5.18845 L 9.6869,5.44635 L 9.92705,5.73663 L 10.1289,6.05473 L 10.2893,6.39561 L 10.4057,6.75392
 L 10.4763,7.12399 L 10.5,7.5 L 10.4763,7.87599 L 10.4057,8.24606 L 10.2893,8.60437 L 10.1289,8.94525
 L 9.92705,9.26335 L 9.6869,9.55363 L 9.41226,9.81154 L 9.10747,10.033 L 8.77733,10.2145 L 8.42705,10.3532
 L 8.06213,10.4469 L 7.68837,10.4941 z
M 22.3116,10.4941 L 21.9379,10.4469 L 21.5729,10.3532 L 21.2227,10.2145 L 20.8925,10.033 L 20.5877,9.81154
 L 20.3131,9.55363 L 20.0729,9.26335 L 19.8711,8.94525 L 19.7107,8.60437 L 19.5942,8.24606 L 19.5237,7.87599
 L 19.5,7.5 L 19.5237,7.12399 L 19.5942,6.75392 L 19.7107,6.39561 L 19.8711,6.05473 L 20.0729,5.73663
 L 20.3131,5.44635 L 20.5877,5.18845 L 20.8925,4.96701 L 21.2227,4.78551 L 21.5729,4.64682 L 21.9379,4.55313
 L 22.3116,4.50591 L 22.6884,4.50591 L 23.0621,4.55313 L 23.427,4.64682 L 23.7773,4.78551 L 24.1075,4.96701
 L 24.4123,5.18845 L 24.6869,5.44635 L 24.927,5.73663 L 25.1289,6.05473 L 25.2893,6.39561 L 25.4057,6.75392
 L 25.4763,7.12399 L 25.5,7.5 L 25.4763,7.87599 L 25.4057,8.24606 L 25.2893,8.60437 L 25.1289,8.94525
 L 24.927,9.26335 L 24.6869,9.55363 L 24.4123,9.81154 L 24.1075,10.033 L 23.7773,10.2145 L 23.427,10.3532
 L 23.0621,10.4469 L 22.6884,10.4941 z
M -22.6884,10.4941 L -23.0621,10.4469 L -23.427,10.3532 L -23.7773,10.2145 L -24.1075,10.033 L -24.4123,9.81154
 L -24.6869,9.55363 L -24.927,9.26335 L -25.1289,8.94525 L -25.2893,8.60437 L -25.4057,8.24606 L -25.4763,7.87599
 L -25.5,7.5 L -25.4763,7.12399 L -25.4057,6.75392 L -25.2893,6.39561 L -25.1289,6.05473 L -24.927,5.73663
 L -24.6869,5.44635 L -24.4123,5.18845 L -24.1075,4.96701 L -23.7773,4.78551 L -23.427,4.64682 L -23.0621,4.55313
 L -22.6884,4.50591 L -22.3116,4.50591 L -21.9379,4.55313 L -21.5729,4.64682 L -21.2227,4.78551 L -20.8925,4.96701
 L -20.5877,5.18845 L -20.3131,5.44635 L -20.0729,5.73663 L -19.8711,6.05473 L -19.7107,6.39561 L -19.5942,6.75392
 L -19.5237,7.12399 L -19.5,7.5 L -19.5237,7.87599 L -19.5942,8.24606 L -19.7107,8.60437 L -19.8711,8.94525
 L -20.0729,9.26335 L -20.3131,9.55363 L -20.5877,9.81154 L -20.8925,10.033 L -21.2227,10.2145 L -21.5729,10.3532
 L -21.9379,10.4469 L -22.3116,10.4941 z
M -7.68837,10.4941 L -8.06213,10.4469 L -8.42705,10.3532 L -8.77733,10.2145 L -9.10747,10.033 L -9.41226,9.81154
 L -9.6869,9.55363 L -9.92705,9.26335 L -10.1289,8.94525 L -10.2893,8.60437 L -10.4057,8.24606 L -10.4763,7.87599
 L -10.5,7.5 L -10.4763,7.12399 L -10.4057,6.75392 L -10.2893,6.39561 L -10.1289,6.05473 L -9.92705,5.73663
 L -9.6869,5.44635 L -9.41226,5.18845 L -9.10747,4.96701 L -8.77733,4.78551 L -8.42705,4.64682 L -8.06213,4.55313
 L -7.68837,4.50591 L -7.31161,4.50591 L -6.93785,4.55313 L -6.57294,4.64682 L -6.22266,4.78551 L -5.89252,4.96701
 L -5.58772,5.18845 L -5.31308,5.44635 L -5.07294,5.73663 L -4.87108,6.05473 L -4.71066,6.39561 L -4.59424,6.75392
 L -4.52365,7.12399 L -4.5,7.5 L -4.52365,7.87599 L -4.59424,8.24606 L -4.71066,8.60437 L -4.87108,8.94525
 L -5.07294,9.26335 L -5.31308,9.55363 L -5.58772,9.81154 L -5.89252,10.033 L -6.22266,10.2145 L -6.57294,10.3532
 L -6.93785,10.4469 L -7.31161,10.4941 z
M -0.0941772,8.99704 L -0.281067,8.97342 L -0.463516,8.92657 L -0.638657,8.85724 L -0.803726,8.76648 L -0.956131,8.65576
 L -1.09344,8.52681 L -1.21352,8.38167 L -1.31445,8.22263 L -1.39465,8.05219 L -1.45287,7.87303 L -1.48816,7.68799
 L -1.5,7.5 L -1.48816,7.312 L -1.45287,7.12695 L -1.39465,6.9478 L -1.31445,6.77736 L -1.21352,6.61832
 L -1.09344,6.47318 L -0.956131,6.34422 L -0.803726,6.23351 L -0.638657,6.14275 L -0.463516,6.07341 L -0.281067,6.02657
 L -0.0941772,6.00294 L 0.0941772,6.00294 L 0.281067,6.02657 L 0.463516,6.07341 L 0.638657,6.14275 L 0.803726,6.23351
 L 0.956131,6.34422 L 1.09344,6.47318 L 1.21352,6.61832 L 1.31445,6.77736 L 1.39465,6.9478 L 1.45287,7.12695
 L 1.48816,7.312 L 1.5,7.5 L 1.48816,7.68799 L 1.45287,7.87303 L 1.39465,8.05219 L 1.31445,8.22263
 L 1.21352,8.38167 L 1.09344,8.52681 L 0.956131,8.65576 L 0.803726,8.76648 L 0.638657,8.85724 L 0.463516,8.92657
 L 0.281067,8.97342 L 0.0941772,8.99704 z
M -15.0942,8.99704 L -15.2811,8.97342 L -15.4635,8.92657 L -15.6387,8.85724 L -15.8037,8.76648 L -15.9561,8.65576
 L -16.0934,8.52681 L -16.2135,8.38167 L -16.3145,8.22263 L -16.3947,8.05219 L -16.4529,7.87303 L -16.4882,7.68799
 L -16.5,7.5 L -16.4882,7.312 L -16.4529,7.12695 L -16.3947,6.9478 L -16.3145,6.77736 L -16.2135,6.61832
 L -16.0934,6.47318 L -15.9561,6.34422 L -15.8037,6.23351 L -15.6387,6.14275 L -15.4635,6.07341 L -15.2811,6.02657
 L -15.0942,6.00294 L -14.9058,6.00294 L -14.7189,6.02657 L -14.5365,6.07341 L -14.3613,6.14275 L -14.1963,6.23351
 L -14.0439,6.34422 L -13.9065,6.47318 L -13.7865,6.61832 L -13.6855,6.77736 L -13.6053,6.9478 L -13.5471,7.12695
 L -13.5118,7.312 L -13.5,7.5 L -13.5118,7.68799 L -13.5471,7.87303 L -13.6053,8.05219 L -13.6855,8.22263
 L -13.7865,8.38167 L -13.9065,8.52681 L -14.0439,8.65576 L -14.1963,8.76648 L -14.3613,8.85724 L -14.5365,8.92657
 L -14.7189,8.97342 L -14.9058,8.99704 z
M 14.9058,8.99704 L 14.7189,8.97342 L 14.5365,8.92657 L 14.3613,8.85724 L 14.1963,8.76648 L 14.0439,8.65576
 L 13.9065,8.52681 L 13.7865,8.38167 L 13.6855,8.22263 L 13.6053,8.05219 L 13.5471,7.87303 L 13.5118,7.68799
 L 13.5,7.5 L 13.5118,7.312 L 13.5471,7.12695 L 13.6053,6.9478 L 13.6855,6.77736 L 13.7865,6.61832
 L 13.9065,6.47318 L 14.0439,6.34422 L 14.1963,6.23351 L 14.3613,6.14275 L 14.5365,6.07341 L 14.7189,6.02657
 L 14.9058,6.00294 L 15.0942,6.00294 L 15.2811,6.02657 L 15.4635,6.07341 L 15.6387,6.14275 L 15.8037,6.23351
 L 15.9561,6.34422 L 16.0934,6.47318 L 16.2135,6.61832 L 16.3145,6.77736 L 16.3947,6.9478 L 16.4529,7.12695
 L 16.4882,7.312 L 16.5,7.5 L 16.4882,7.68799 L 16.4529,7.87303 L 16.3947,8.05219 L 16.3145,8.22263
 L 16.2135,8.38167 L 16.0934,8.52681 L 15.9561,8.65576 L 15.8037,8.76648 L 15.6387,8.85724 L 15.4635,8.92657
 L 15.2811,8.97342 L 15.0942,8.99704 z
" stroke="black" fill="lightgray" stroke-width="0.5"/>
</svg>
