  0
SECTION
  2
BLOCKS
  0
ENDSEC
  0
SECTION
  2
ENTITIES
  0
LINE
  8
0
 10
40.4369
 20
-21.9114
 11
41.0451
 21
-21.7553
  0
LINE
  8
0
 10
41.0451
 20
-21.7553
 11
41.6289
 21
-21.5241
  0
LINE
  8
0
 10
41.6289
 20
-21.5241
 11
42.1791
 21
-21.2216
  0
LINE
  8
0
 10
42.1791
 20
-21.2216
 11
42.6871
 21
-20.8526
  0
LINE
  8
0
 10
42.6871
 20
-20.8526
 11
43.1448
 21
-20.4227
  0
LINE
  8
0
 10
43.1448
 20
-20.4227
 11
43.5451
 21
-19.9389
  0
LINE
  8
0
 10
43.5451
 20
-19.9389
 11
43.8815
 21
-19.4088
  0
LINE
  8
0
 10
43.8815
 20
-19.4088
 11
44.1489
 21
-18.8406
  0
LINE
  8
0
 10
44.1489
 20
-18.8406
 11
44.3429
 21
-18.2434
  0
LINE
  8
0
 10
44.3429
 20
-18.2434
 11
44.4606
 21
-17.6267
  0
LINE
  8
0
 10
44.4606
 20
-17.6267
 11
44.5
 21
-17
  0
LINE
  8
0
 10
44.5
 20
-17
 11
44.5
 21
17
  0
LINE
  8
0
 10
44.5
 20
17
 11
44.4606
 21
17.6267
  0
LINE
  8
0
 10
44.4606
 20
17.6267
 11
44.3429
 21
18.2434
  0
LINE
  8
0
 10
44.3429
 20
18.2434
 11
44.1489
 21
18.8406
  0
LINE
  8
0
 10
44.1489
 20
18.8406
 11
43.8815
 21
19.4088
  0
LINE
  8
0
 10
43.8815
 20
19.4088
 11
43.5451
 21
19.9389
  0
LINE
  8
0
 10
43.5451
 20
19.9389
 11
43.1448
 21
20.4227
  0
LINE
  8
0
 10
43.1448
 20
20.4227
 11
42.6871
 21
20.8526
  0
LINE
  8
0
 10
42.6871
 20
20.8526
 11
42.1791
 21
21.2216
  0
LINE
  8
0
 10
42.1791
 20
21.2216
 11
41.6289
 21
21.5241
  0
LINE
  8
0
 10
41.6289
 20
21.5241
 11
41.0451
 21
21.7553
  0
LINE
  8
0
 10
41.0451
 20
21.7553
 11
40.4369
 21
21.9114
  0
LINE
  8
0
 10
40.4369
 20
21.9114
 11
39.8139
 21
21.9901
  0
LINE
  8
0
 10
39.8139
 20
21.9901
 11
-39.8139
 21
21.9901
  0
LINE
  8
0
 10
-39.8139
 20
21.9901
 11
-40.4369
 21
21.9114
  0
LINE
  8
0
 10
-40.4369
 20
21.9114
 11
-41.0451
 21
21.7553
  0
LINE
  8
0
 10
-41.0451
 20
21.7553
 11
-41.6289
 21
21.5241
  0
LINE
  8
0
 10
-41.6289
 20
21.5241
 11
-42.1791
 21
21.2216
  0
LINE
  8
0
 10
-42.1791
 20
21.2216
 11
-42.6871
 21
20.8526
  0
LINE
  8
0
 10
-42.6871
 20
20.8526
 11
-43.1448
 21
20.4227
  0
LINE
  8
0
 10
-43.1448
 20
20.4227
 11
-43.5451
 21
19.9389
  0
LINE
  8
0
 10
-43.5451
 20
19.9389
 11
-43.8815
 21
19.4088
  0
LINE
  8
0
 10
-43.8815
 20
19.4088
 11
-44.1489
 21
18.8406
  0
LINE
  8
0
 10
-44.1489
 20
18.8406
 11
-44.3429
 21
18.2434
  0
LINE
  8
0
 10
-44.3429
 20
18.2434
 11
-44.4606
 21
17.6267
  0
LINE
  8
0
 10
-44.4606
 20
17.6267
 11
-44.5
 21
17
  0
LINE
  8
0
 10
-44.5
 20
17
 11
-44.5
 21
-17
  0
LINE
  8
0
 10
-44.5
 20
-17
 11
-44.4606
 21
-17.6267
  0
LINE
  8
0
 10
-44.4606
 20
-17.6267
 11
-44.3429
 21
-18.2434
  0
LINE
  8
0
 10
-44.3429
 20
-18.2434
 11
-44.1489
 21
-18.8406
  0
LINE
  8
0
 10
-44.1489
 20
-18.8406
 11
-43.8815
 21
-19.4088
  0
LINE
  8
0
 10
-43.8815
 20
-19.4088
 11
-43.5451
 21
-19.9389
  0
LINE
  8
0
 10
-43.5451
 20
-19.9389
 11
-43.1448
 21
-20.4227
  0
LINE
  8
0
 10
-43.1448
 20
-20.4227
 11
-42.6871
 21
-20.8526
  0
LINE
  8
0
 10
-42.6871
 20
-20.8526
 11
-42.1791
 21
-21.2216
  0
LINE
  8
0
 10
-42.1791
 20
-21.2216
 11
-41.6289
 21
-21.5241
  0
LINE
  8
0
 10
-41.6289
 20
-21.5241
 11
-41.0451
 21
-21.7553
  0
LINE
  8
0
 10
-41.0451
 20
-21.7553
 11
-40.4369
 21
-21.9114
  0
LINE
  8
0
 10
-40.4369
 20
-21.9114
 11
-39.8139
 21
-21.9901
  0
LINE
  8
0
 10
-39.8139
 20
-21.9901
 11
39.8139
 21
-21.9901
  0
LINE
  8
0
 10
39.8139
 20
-21.9901
 11
40.4369
 21
-21.9114
  0
LINE
  8
0
 10
37.3116
 20
12.0059
 11
36.9379
 21
12.0531
  0
LINE
  8
0
 10
36.9379
 20
12.0531
 11
36.5729
 21
12.1468
  0
LINE
  8
0
 10
36.5729
 20
12.1468
 11
36.2227
 21
12.2855
  0
LINE
  8
0
 10
36.2227
 20
12.2855
 11
35.8925
 21
12.467
  0
LINE
  8
0
 10
35.8925
 20
12.467
 11
35.5877
 21
12.6884
  0
LINE
  8
0
 10
35.5877
 20
12.6884
 11
35.3131
 21
12.9464
  0
LINE
  8
0
 10
35.3131
 20
12.9464
 11
35.0729
 21
13.2366
  0
LINE
  8
0
 10
35.0729
 20
13.2366
 11
34.8711
 21
13.5547
  0
LINE
  8
0
 10
34.8711
 20
13.5547
 11
34.7107
 21
13.8956
  0
LINE
  8
0
 10
34.7107
 20
13.8956
 11
34.5942
 21
14.2539
  0
LINE
  8
0
 10
34.5942
 20
14.2539
 11
34.5237
 21
14.624
  0
LINE
  8
0
 10
34.5237
 20
14.624
 11
34.5
 21
15
  0
LINE
  8
0
 10
34.5
 20
15
 11
34.5237
 21
15.376
  0
LINE
  8
0
 10
34.5237
 20
15.376
 11
34.5942
 21
15.7461
  0
LINE
  8
0
 10
34.5942
 20
15.7461
 11
34.7107
 21
16.1044
  0
LINE
  8
0
 10
34.7107
 20
16.1044
 11
34.8711
 21
16.4453
  0
LINE
  8
0
 10
34.8711
 20
16.4453
 11
35.0729
 21
16.7634
  0
LINE
  8
0
 10
35.0729
 20
16.7634
 11
35.3131
 21
17.0536
  0
LINE
  8
0
 10
35.3131
 20
17.0536
 11
35.5877
 21
17.3115
  0
LINE
  8
0
 10
35.5877
 20
17.3115
 11
35.8925
 21
17.533
  0
LINE
  8
0
 10
35.8925
 20
17.533
 11
36.2227
 21
17.7145
  0
LINE
  8
0
 10
36.2227
 20
17.7145
 11
36.5729
 21
17.8532
  0
LINE
  8
0
 10
36.5729
 20
17.8532
 11
36.9379
 21
17.9469
  0
LINE
  8
0
 10
36.9379
 20
17.9469
 11
37.3116
 21
17.9941
  0
LINE
  8
0
 10
37.3116
 20
17.9941
 11
37.6884
 21
17.9941
  0
LINE
  8
0
 10
37.6884
 20
17.9941
 11
38.0621
 21
17.9469
  0
LINE
  8
0
 10
38.0621
 20
17.9469
 11
38.427
 21
17.8532
  0
LINE
  8
0
 10
38.427
 20
17.8532
 11
38.7773
 21
17.7145
  0
LINE
  8
0
 10
38.7773
 20
17.7145
 11
39.1075
 21
17.533
  0
LINE
  8
0
 10
39.1075
 20
17.533
 11
39.4123
 21
17.3115
  0
LINE
  8
0
 10
39.4123
 20
17.3115
 11
39.6869
 21
17.0536
  0
LINE
  8
0
 10
39.6869
 20
17.0536
 11
39.927
 21
16.7634
  0
LINE
  8
0
 10
39.927
 20
16.7634
 11
40.1289
 21
16.4453
  0
LINE
  8
0
 10
40.1289
 20
16.4453
 11
40.2893
 21
16.1044
  0
LINE
  8
0
 10
40.2893
 20
16.1044
 11
40.4057
 21
15.7461
  0
LINE
  8
0
 10
40.4057
 20
15.7461
 11
40.4763
 21
15.376
  0
LINE
  8
0
 10
40.4763
 20
15.376
 11
40.5
 21
15
  0
LINE
  8
0
 10
40.5
 20
15
 11
40.4763
 21
14.624
  0
LINE
  8
0
 10
40.4763
 20
14.624
 11
40.4057
 21
14.2539
  0
LINE
  8
0
 10
40.4057
 20
14.2539
 11
40.2893
 21
13.8956
  0
LINE
  8
0
 10
40.2893
 20
13.8956
 11
40.1289
 21
13.5547
  0
LINE
  8
0
 10
40.1289
 20
13.5547
 11
39.927
 21
13.2366
  0
LINE
  8
0
 10
39.927
 20
13.2366
 11
39.6869
 21
12.9464
  0
LINE
  8
0
 10
39.6869
 20
12.9464
 11
39.4123
 21
12.6884
  0
LINE
  8
0
 10
39.4123
 20
12.6884
 11
39.1075
 21
12.467
  0
LINE
  8
0
 10
39.1075
 20
12.467
 11
38.7773
 21
12.2855
  0
LINE
  8
0
 10
38.7773
 20
12.2855
 11
38.427
 21
12.1468
  0
LINE
  8
0
 10
38.427
 20
12.1468
 11
38.0621
 21
12.0531
  0
LINE
  8
0
 10
38.0621
 20
12.0531
 11
37.6884
 21
12.0059
  0
LINE
  8
0
 10
37.6884
 20
12.0059
 11
37.3116
 21
12.0059
  0
LINE
  8
0
 10
-37.6884
 20
12.0059
 11
-38.0621
 21
12.0531
  0
LINE
  8
0
 10
-38.0621
 20
12.0531
 11
-38.427
 21
12.1468
  0
LINE
  8
0
 10
-38.427
 20
12.1468
 11
-38.7773
 21
12.2855
  0
LINE
  8
0
 10
-38.7773
 20
12.2855
 11
-39.1075
 21
12.467
  0
LINE
  8
0
 10
-39.1075
 20
12.467
 11
-39.4123
 21
12.6884
  0
LINE
  8
0
 10
-39.4123
 20
12.6884
 11
-39.6869
 21
12.9464
  0
LINE
  8
0
 10
-39.6869
 20
12.9464
 11
-39.927
 21
13.2366
  0
LINE
  8
0
 10
-39.927
 20
13.2366
 11
-40.1289
 21
13.5547
  0
LINE
  8
0
 10
-40.1289
 20
13.5547
 11
-40.2893
 21
13.8956
  0
LINE
  8
0
 10
-40.2893
 20
13.8956
 11
-40.4057
 21
14.2539
  0
LINE
  8
0
 10
-40.4057
 20
14.2539
 11
-40.4763
 21
14.624
  0
LINE
  8
0
 10
-40.4763
 20
14.624
 11
-40.5
 21
15
  0
LINE
  8
0
 10
-40.5
 20
15
 11
-40.4763
 21
15.376
  0
LINE
  8
0
 10
-40.4763
 20
15.376
 11
-40.4057
 21
15.7461
  0
LINE
  8
0
 10
-40.4057
 20
15.7461
 11
-40.2893
 21
16.1044
  0
LINE
  8
0
 10
-40.2893
 20
16.1044
 11
-40.1289
 21
16.4453
  0
LINE
  8
0
 10
-40.1289
 20
16.4453
 11
-39.927
 21
16.7634
  0
LINE
  8
0
 10
-39.927
 20
16.7634
 11
-39.6869
 21
17.0536
  0
LINE
  8
0
 10
-39.6869
 20
17.0536
 11
-39.4123
 21
17.3115
  0
LINE
  8
0
 10
-39.4123
 20
17.3115
 11
-39.1075
 21
17.533
  0
LINE
  8
0
 10
-39.1075
 20
17.533
 11
-38.7773
 21
17.7145
  0
LINE
  8
0
 10
-38.7773
 20
17.7145
 11
-38.427
 21
17.8532
  0
LINE
  8
0
 10
-38.427
 20
17.8532
 11
-38.0621
 21
17.9469
  0
LINE
  8
0
 10
-38.0621
 20
17.9469
 11
-37.6884
 21
17.9941
  0
LINE
  8
0
 10
-37.6884
 20
17.9941
 11
-37.3116
 21
17.9941
  0
LINE
  8
0
 10
-37.3116
 20
17.9941
 11
-36.9379
 21
17.9469
  0
LINE
  8
0
 10
-36.9379
 20
17.9469
 11
-36.5729
 21
17.8532
  0
LINE
  8
0
 10
-36.5729
 20
17.8532
 11
-36.2227
 21
17.7145
  0
LINE
  8
0
 10
-36.2227
 20
17.7145
 11
-35.8925
 21
17.533
  0
LINE
  8
0
 10
-35.8925
 20
17.533
 11
-35.5877
 21
17.3115
  0
LINE
  8
0
 10
-35.5877
 20
17.3115
 11
-35.3131
 21
17.0536
  0
LINE
  8
0
 10
-35.3131
 20
17.0536
 11
-35.0729
 21
16.7634
  0
LINE
  8
0
 10
-35.0729
 20
16.7634
 11
-34.8711
 21
16.4453
  0
LINE
  8
0
 10
-34.8711
 20
16.4453
 11
-34.7107
 21
16.1044
  0
LINE
  8
0
 10
-34.7107
 20
16.1044
 11
-34.5942
 21
15.7461
  0
LINE
  8
0
 10
-34.5942
 20
15.7461
 11
-34.5237
 21
15.376
  0
LINE
  8
0
 10
-34.5237
 20
15.376
 11
-34.5
 21
15
  0
LINE
  8
0
 10
-34.5
 20
15
 11
-34.5237
 21
14.624
  0
LINE
  8
0
 10
-34.5237
 20
14.624
 11
-34.5942
 21
14.2539
  0
LINE
  8
0
 10
-34.5942
 20
14.2539
 11
-34.7107
 21
13.8956
  0
LINE
  8
0
 10
-34.7107
 20
13.8956
 11
-34.8711
 21
13.5547
  0
LINE
  8
0
 10
-34.8711
 20
13.5547
 11
-35.0729
 21
13.2366
  0
LINE
  8
0
 10
-35.0729
 20
13.2366
 11
-35.3131
 21
12.9464
  0
LINE
  8
0
 10
-35.3131
 20
12.9464
 11
-35.5877
 21
12.6884
  0
LINE
  8
0
 10
-35.5877
 20
12.6884
 11
-35.8925
 21
12.467
  0
LINE
  8
0
 10
-35.8925
 20
12.467
 11
-36.2227
 21
12.2855
  0
LINE
  8
0
 10
-36.2227
 20
12.2855
 11
-36.5729
 21
12.1468
  0
LINE
  8
0
 10
-36.5729
 20
12.1468
 11
-36.9379
 21
12.0531
  0
LINE
  8
0
 10
-36.9379
 20
12.0531
 11
-37.3116
 21
12.0059
  0
LINE
  8
0
 10
-37.3116
 20
12.0059
 11
-37.6884
 21
12.0059
  0
LINE
  8
0
 10
19.3698
 20
-17.9645
 11
17.1271
 21
-17.6812
  0
LINE
  8
0
 10
17.1271
 20
-17.6812
 11
14.9377
 21
-17.119
  0
LINE
  8
0
 10
14.9377
 20
-17.119
 11
12.836
 21
-16.2869
  0
LINE
  8
0
 10
12.836
 20
-16.2869
 11
10.8551
 21
-15.1979
  0
LINE
  8
0
 10
10.8551
 20
-15.1979
 11
9.02637
 21
-13.8692
  0
LINE
  8
0
 10
9.02637
 20
-13.8692
 11
7.37856
 21
-12.3218
  0
LINE
  8
0
 10
7.37856
 20
-12.3218
 11
5.93768
 21
-10.5801
  0
LINE
  8
0
 10
5.93768
 20
-10.5801
 11
4.72647
 21
-8.67155
  0
LINE
  8
0
 10
4.72647
 20
-8.67155
 11
3.76402
 21
-6.62624
  0
LINE
  8
0
 10
3.76402
 20
-6.62624
 11
3.06549
 21
-4.47641
  0
LINE
  8
0
 10
3.06549
 20
-4.47641
 11
2.64192
 21
-2.256
  0
LINE
  8
0
 10
2.64192
 20
-2.256
 11
2.5
 21
0
  0
LINE
  8
0
 10
2.5
 20
0
 11
2.64192
 21
2.256
  0
LINE
  8
0
 10
2.64192
 20
2.256
 11
3.06549
 21
4.47641
  0
LINE
  8
0
 10
3.06549
 20
4.47641
 11
3.76402
 21
6.62624
  0
LINE
  8
0
 10
3.76402
 20
6.62624
 11
4.72647
 21
8.67155
  0
LINE
  8
0
 10
4.72647
 20
8.67155
 11
5.93768
 21
10.5801
  0
LINE
  8
0
 10
5.93768
 20
10.5801
 11
7.37856
 21
12.3218
  0
LINE
  8
0
 10
7.37856
 20
12.3218
 11
9.02637
 21
13.8692
  0
LINE
  8
0
 10
9.02637
 20
13.8692
 11
10.8551
 21
15.1979
  0
LINE
  8
0
 10
10.8551
 20
15.1979
 11
12.836
 21
16.2869
  0
LINE
  8
0
 10
12.836
 20
16.2869
 11
14.9377
 21
17.119
  0
LINE
  8
0
 10
14.9377
 20
17.119
 11
17.1271
 21
17.6812
  0
LINE
  8
0
 10
17.1271
 20
17.6812
 11
19.3698
 21
17.9645
  0
LINE
  8
0
 10
19.3698
 20
17.9645
 11
21.6302
 21
17.9645
  0
LINE
  8
0
 10
21.6302
 20
17.9645
 11
23.8729
 21
17.6812
  0
LINE
  8
0
 10
23.8729
 20
17.6812
 11
26.0623
 21
17.119
  0
LINE
  8
0
 10
26.0623
 20
17.119
 11
28.164
 21
16.2869
  0
LINE
  8
0
 10
28.164
 20
16.2869
 11
30.1449
 21
15.1979
  0
LINE
  8
0
 10
30.1449
 20
15.1979
 11
31.9736
 21
13.8692
  0
LINE
  8
0
 10
31.9736
 20
13.8692
 11
33.6214
 21
12.3218
  0
LINE
  8
0
 10
33.6214
 20
12.3218
 11
35.0623
 21
10.5801
  0
LINE
  8
0
 10
35.0623
 20
10.5801
 11
36.2735
 21
8.67155
  0
LINE
  8
0
 10
36.2735
 20
8.67155
 11
37.236
 21
6.62624
  0
LINE
  8
0
 10
37.236
 20
6.62624
 11
37.9345
 21
4.47641
  0
LINE
  8
0
 10
37.9345
 20
4.47641
 11
38.3581
 21
2.256
  0
LINE
  8
0
 10
38.3581
 20
2.256
 11
38.5
 21
0
  0
LINE
  8
0
 10
38.5
 20
0
 11
38.3581
 21
-2.256
  0
LINE
  8
0
 10
38.3581
 20
-2.256
 11
37.9345
 21
-4.47641
  0
LINE
  8
0
 10
37.9345
 20
-4.47641
 11
37.236
 21
-6.62624
  0
LINE
  8
0
 10
37.236
 20
-6.62624
 11
36.2735
 21
-8.67155
  0
LINE
  8
0
 10
36.2735
 20
-8.67155
 11
35.0623
 21
-10.5801
  0
LINE
  8
0
 10
35.0623
 20
-10.5801
 11
33.6214
 21
-12.3218
  0
LINE
  8
0
 10
33.6214
 20
-12.3218
 11
31.9736
 21
-13.8692
  0
LINE
  8
0
 10
31.9736
 20
-13.8692
 11
30.1449
 21
-15.1979
  0
LINE
  8
0
 10
30.1449
 20
-15.1979
 11
28.164
 21
-16.2869
  0
LINE
  8
0
 10
28.164
 20
-16.2869
 11
26.0623
 21
-17.119
  0
LINE
  8
0
 10
26.0623
 20
-17.119
 11
23.8729
 21
-17.6812
  0
LINE
  8
0
 10
23.8729
 20
-17.6812
 11
21.6302
 21
-17.9645
  0
LINE
  8
0
 10
21.6302
 20
-17.9645
 11
19.3698
 21
-17.9645
  0
LINE
  8
0
 10
-21.6302
 20
-17.9645
 11
-23.8729
 21
-17.6812
  0
LINE
  8
0
 10
-23.8729
 20
-17.6812
 11
-26.0623
 21
-17.119
  0
LINE
  8
0
 10
-26.0623
 20
-17.119
 11
-28.164
 21
-16.2869
  0
LINE
  8
0
 10
-28.164
 20
-16.2869
 11
-30.1449
 21
-15.1979
  0
LINE
  8
0
 10
-30.1449
 20
-15.1979
 11
-31.9736
 21
-13.8692
  0
LINE
  8
0
 10
-31.9736
 20
-13.8692
 11
-33.6214
 21
-12.3218
  0
LINE
  8
0
 10
-33.6214
 20
-12.3218
 11
-35.0623
 21
-10.5801
  0
LINE
  8
0
 10
-35.0623
 20
-10.5801
 11
-36.2735
 21
-8.67155
  0
LINE
  8
0
 10
-36.2735
 20
-8.67155
 11
-37.236
 21
-6.62624
  0
LINE
  8
0
 10
-37.236
 20
-6.62624
 11
-37.9345
 21
-4.47641
  0
LINE
  8
0
 10
-37.9345
 20
-4.47641
 11
-38.3581
 21
-2.256
  0
LINE
  8
0
 10
-38.3581
 20
-2.256
 11
-38.5
 21
0
  0
LINE
  8
0
 10
-38.5
 20
0
 11
-38.3581
 21
2.256
  0
LINE
  8
0
 10
-38.3581
 20
2.256
 11
-37.9345
 21
4.47641
  0
LINE
  8
0
 10
-37.9345
 20
4.47641
 11
-37.236
 21
6.62624
  0
LINE
  8
0
 10
-37.236
 20
6.62624
 11
-36.2735
 21
8.67155
  0
LINE
  8
0
 10
-36.2735
 20
8.67155
 11
-35.0623
 21
10.5801
  0
LINE
  8
0
 10
-35.0623
 20
10.5801
 11
-33.6214
 21
12.3218
  0
LINE
  8
0
 10
-33.6214
 20
12.3218
 11
-31.9736
 21
13.8692
  0
LINE
  8
0
 10
-31.9736
 20
13.8692
 11
-30.1449
 21
15.1979
  0
LINE
  8
0
 10
-30.1449
 20
15.1979
 11
-28.164
 21
16.2869
  0
LINE
  8
0
 10
-28.164
 20
16.2869
 11
-26.0623
 21
17.119
  0
LINE
  8
0
 10
-26.0623
 20
17.119
 11
-23.8729
 21
17.6812
  0
LINE
  8
0
 10
-23.8729
 20
17.6812
 11
-21.6302
 21
17.9645
  0
LINE
  8
0
 10
-21.6302
 20
17.9645
 11
-19.3698
 21
17.9645
  0
LINE
  8
0
 10
-19.3698
 20
17.9645
 11
-17.1271
 21
17.6812
  0
LINE
  8
0
 10
-17.1271
 20
17.6812
 11
-14.9377
 21
17.119
  0
LINE
  8
0
 10
-14.9377
 20
17.119
 11
-12.836
 21
16.2869
  0
LINE
  8
0
 10
-12.836
 20
16.2869
 11
-10.8551
 21
15.1979
  0
LINE
  8
0
 10
-10.8551
 20
15.1979
 11
-9.02637
 21
13.8692
  0
LINE
  8
0
 10
-9.02637
 20
13.8692
 11
-7.37856
 21
12.3218
  0
LINE
  8
0
 10
-7.37856
 20
12.3218
 11
-5.93768
 21
10.5801
  0
LINE
  8
0
 10
-5.93768
 20
10.5801
 11
-4.72647
 21
8.67155
  0
LINE
  8
0
 10
-4.72647
 20
8.67155
 11
-3.76402
 21
6.62624
  0
LINE
  8
0
 10
-3.76402
 20
6.62624
 11
-3.06549
 21
4.47641
  0
LINE
  8
0
 10
-3.06549
 20
4.47641
 11
-2.64192
 21
2.256
  0
LINE
  8
0
 10
-2.64192
 20
2.256
 11
-2.5
 21
0
  0
LINE
  8
0
 10
-2.5
 20
0
 11
-2.64192
 21
-2.256
  0
LINE
  8
0
 10
-2.64192
 20
-2.256
 11
-3.06549
 21
-4.47641
  0
LINE
  8
0
 10
-3.06549
 20
-4.47641
 11
-3.76402
 21
-6.62624
  0
LINE
  8
0
 10
-3.76402
 20
-6.62624
 11
-4.72647
 21
-8.67155
  0
LINE
  8
0
 10
-4.72647
 20
-8.67155
 11
-5.93768
 21
-10.5801
  0
LINE
  8
0
 10
-5.93768
 20
-10.5801
 11
-7.37856
 21
-12.3218
  0
LINE
  8
0
 10
-7.37856
 20
-12.3218
 11
-9.02637
 21
-13.8692
  0
LINE
  8
0
 10
-9.02637
 20
-13.8692
 11
-10.8551
 21
-15.1979
  0
LINE
  8
0
 10
-10.8551
 20
-15.1979
 11
-12.836
 21
-16.2869
  0
LINE
  8
0
 10
-12.836
 20
-16.2869
 11
-14.9377
 21
-17.119
  0
LINE
  8
0
 10
-14.9377
 20
-17.119
 11
-17.1271
 21
-17.6812
  0
LINE
  8
0
 10
-17.1271
 20
-17.6812
 11
-19.3698
 21
-17.9645
  0
LINE
  8
0
 10
-19.3698
 20
-17.9645
 11
-21.6302
 21
-17.9645
  0
LINE
  8
0
 10
37.3116
 20
-17.9941
 11
36.9379
 21
-17.9469
  0
LINE
  8
0
 10
36.9379
 20
-17.9469
 11
36.5729
 21
-17.8532
  0
LINE
  8
0
 10
36.5729
 20
-17.8532
 11
36.2227
 21
-17.7145
  0
LINE
  8
0
 10
36.2227
 20
-17.7145
 11
35.8925
 21
-17.533
  0
LINE
  8
0
 10
35.8925
 20
-17.533
 11
35.5877
 21
-17.3115
  0
LINE
  8
0
 10
35.5877
 20
-17.3115
 11
35.3131
 21
-17.0536
  0
LINE
  8
0
 10
35.3131
 20
-17.0536
 11
35.0729
 21
-16.7634
  0
LINE
  8
0
 10
35.0729
 20
-16.7634
 11
34.8711
 21
-16.4453
  0
LINE
  8
0
 10
34.8711
 20
-16.4453
 11
34.7107
 21
-16.1044
  0
LINE
  8
0
 10
34.7107
 20
-16.1044
 11
34.5942
 21
-15.7461
  0
LINE
  8
0
 10
34.5942
 20
-15.7461
 11
34.5237
 21
-15.376
  0
LINE
  8
0
 10
34.5237
 20
-15.376
 11
34.5
 21
-15
  0
LINE
  8
0
 10
34.5
 20
-15
 11
34.5237
 21
-14.624
  0
LINE
  8
0
 10
34.5237
 20
-14.624
 11
34.5942
 21
-14.2539
  0
LINE
  8
0
 10
34.5942
 20
-14.2539
 11
34.7107
 21
-13.8956
  0
LINE
  8
0
 10
34.7107
 20
-13.8956
 11
34.8711
 21
-13.5547
  0
LINE
  8
0
 10
34.8711
 20
-13.5547
 11
35.0729
 21
-13.2366
  0
LINE
  8
0
 10
35.0729
 20
-13.2366
 11
35.3131
 21
-12.9464
  0
LINE
  8
0
 10
35.3131
 20
-12.9464
 11
35.5877
 21
-12.6884
  0
LINE
  8
0
 10
35.5877
 20
-12.6884
 11
35.8925
 21
-12.467
  0
LINE
  8
0
 10
35.8925
 20
-12.467
 11
36.2227
 21
-12.2855
  0
LINE
  8
0
 10
36.2227
 20
-12.2855
 11
36.5729
 21
-12.1468
  0
LINE
  8
0
 10
36.5729
 20
-12.1468
 11
36.9379
 21
-12.0531
  0
LINE
  8
0
 10
36.9379
 20
-12.0531
 11
37.3116
 21
-12.0059
  0
LINE
  8
0
 10
37.3116
 20
-12.0059
 11
37.6884
 21
-12.0059
  0
LINE
  8
0
 10
37.6884
 20
-12.0059
 11
38.0621
 21
-12.0531
  0
LINE
  8
0
 10
38.0621
 20
-12.0531
 11
38.427
 21
-12.1468
  0
LINE
  8
0
 10
38.427
 20
-12.1468
 11
38.7773
 21
-12.2855
  0
LINE
  8
0
 10
38.7773
 20
-12.2855
 11
39.1075
 21
-12.467
  0
LINE
  8
0
 10
39.1075
 20
-12.467
 11
39.4123
 21
-12.6884
  0
LINE
  8
0
 10
39.4123
 20
-12.6884
 11
39.6869
 21
-12.9464
  0
LINE
  8
0
 10
39.6869
 20
-12.9464
 11
39.927
 21
-13.2366
  0
LINE
  8
0
 10
39.927
 20
-13.2366
 11
40.1289
 21
-13.5547
  0
LINE
  8
0
 10
40.1289
 20
-13.5547
 11
40.2893
 21
-13.8956
  0
LINE
  8
0
 10
40.2893
 20
-13.8956
 11
40.4057
 21
-14.2539
  0
LINE
  8
0
 10
40.4057
 20
-14.2539
 11
40.4763
 21
-14.624
  0
LINE
  8
0
 10
40.4763
 20
-14.624
 11
40.5
 21
-15
  0
LINE
  8
0
 10
40.5
 20
-15
 11
40.4763
 21
-15.376
  0
LINE
  8
0
 10
40.4763
 20
-15.376
 11
40.4057
 21
-15.7461
  0
LINE
  8
0
 10
40.4057
 20
-15.7461
 11
40.2893
 21
-16.1044
  0
LINE
  8
0
 10
40.2893
 20
-16.1044
 11
40.1289
 21
-16.4453
  0
LINE
  8
0
 10
40.1289
 20
-16.4453
 11
39.927
 21
-16.7634
  0
LINE
  8
0
 10
39.927
 20
-16.7634
 11
39.6869
 21
-17.0536
  0
LINE
  8
0
 10
39.6869
 20
-17.0536
 11
39.4123
 21
-17.3115
  0
LINE
  8
0
 10
39.4123
 20
-17.3115
 11
39.1075
 21
-17.533
  0
LINE
  8
0
 10
39.1075
 20
-17.533
 11
38.7773
 21
-17.7145
  0
LINE
  8
0
 10
38.7773
 20
-17.7145
 11
38.427
 21
-17.8532
  0
LINE
  8
0
 10
38.427
 20
-17.8532
 11
38.0621
 21
-17.9469
  0
LINE
  8
0
 10
38.0621
 20
-17.9469
 11
37.6884
 21
-17.9941
  0
LINE
  8
0
 10
37.6884
 20
-17.9941
 11
37.3116
 21
-17.9941
  0
LINE
  8
0
 10
-37.6884
 20
-17.9941
 11
-38.0621
 21
-17.9469
  0
LINE
  8
0
 10
-38.0621
 20
-17.9469
 11
-38.427
 21
-17.8532
  0
LINE
  8
0
 10
-38.427
 20
-17.8532
 11
-38.7773
 21
-17.7145
  0
LINE
  8
0
 10
-38.7773
 20
-17.7145
 11
-39.1075
 21
-17.533
  0
LINE
  8
0
 10
-39.1075
 20
-17.533
 11
-39.4123
 21
-17.3115
  0
LINE
  8
0
 10
-39.4123
 20
-17.3115
 11
-39.6869
 21
-17.0536
  0
LINE
  8
0
 10
-39.6869
 20
-17.0536
 11
-39.927
 21
-16.7634
  0
LINE
  8
0
 10
-39.927
 20
-16.7634
 11
-40.1289
 21
-16.4453
  0
LINE
  8
0
 10
-40.1289
 20
-16.4453
 11
-40.2893
 21
-16.1044
  0
LINE
  8
0
 10
-40.2893
 20
-16.1044
 11
-40.4057
 21
-15.7461
  0
LINE
  8
0
 10
-40.4057
 20
-15.7461
 11
-40.4763
 21
-15.376
  0
LINE
  8
0
 10
-40.4763
 20
-15.376
 11
-40.5
 21
-15
  0
LINE
  8
0
 10
-40.5
 20
-15
 11
-40.4763
 21
-14.624
  0
LINE
  8
0
 10
-40.4763
 20
-14.624
 11
-40.4057
 21
-14.2539
  0
LINE
  8
0
 10
-40.4057
 20
-14.2539
 11
-40.2893
 21
-13.8956
  0
LINE
  8
0
 10
-40.2893
 20
-13.8956
 11
-40.1289
 21
-13.5547
  0
LINE
  8
0
 10
-40.1289
 20
-13.5547
 11
-39.927
 21
-13.2366
  0
LINE
  8
0
 10
-39.927
 20
-13.2366
 11
-39.6869
 21
-12.9464
  0
LINE
  8
0
 10
-39.6869
 20
-12.9464
 11
-39.4123
 21
-12.6884
  0
LINE
  8
0
 10
-39.4123
 20
-12.6884
 11
-39.1075
 21
-12.467
  0
LINE
  8
0
 10
-39.1075
 20
-12.467
 11
-38.7773
 21
-12.2855
  0
LINE
  8
0
 10
-38.7773
 20
-12.2855
 11
-38.427
 21
-12.1468
  0
LINE
  8
0
 10
-38.427
 20
-12.1468
 11
-38.0621
 21
-12.0531
  0
LINE
  8
0
 10
-38.0621
 20
-12.0531
 11
-37.6884
 21
-12.0059
  0
LINE
  8
0
 10
-37.6884
 20
-12.0059
 11
-37.3116
 21
-12.0059
  0
LINE
  8
0
 10
-37.3116
 20
-12.0059
 11
-36.9379
 21
-12.0531
  0
LINE
  8
0
 10
-36.9379
 20
-12.0531
 11
-36.5729
 21
-12.1468
  0
LINE
  8
0
 10
-36.5729
 20
-12.1468
 11
-36.2227
 21
-12.2855
  0
LINE
  8
0
 10
-36.2227
 20
-12.2855
 11
-35.8925
 21
-12.467
  0
LINE
  8
0
 10
-35.8925
 20
-12.467
 11
-35.5877
 21
-12.6884
  0
LINE
  8
0
 10
-35.5877
 20
-12.6884
 11
-35.3131
 21
-12.9464
  0
LINE
  8
0
 10
-35.3131
 20
-12.9464
 11
-35.0729
 21
-13.2366
  0
LINE
  8
0
 10
-35.0729
 20
-13.2366
 11
-34.8711
 21
-13.5547
  0
LINE
  8
0
 10
-34.8711
 20
-13.5547
 11
-34.7107
 21
-13.8956
  0
LINE
  8
0
 10
-34.7107
 20
-13.8956
 11
-34.5942
 21
-14.2539
  0
LINE
  8
0
 10
-34.5942
 20
-14.2539
 11
-34.5237
 21
-14.624
  0
LINE
  8
0
 10
-34.5237
 20
-14.624
 11
-34.5
 21
-15
  0
LINE
  8
0
 10
-34.5
 20
-15
 11
-34.5237
 21
-15.376
  0
LINE
  8
0
 10
-34.5237
 20
-15.376
 11
-34.5942
 21
-15.7461
  0
LINE
  8
0
 10
-34.5942
 20
-15.7461
 11
-34.7107
 21
-16.1044
  0
LINE
  8
0
 10
-34.7107
 20
-16.1044
 11
-34.8711
 21
-16.4453
  0
LINE
  8
0
 10
-34.8711
 20
-16.4453
 11
-35.0729
 21
-16.7634
  0
LINE
  8
0
 10
-35.0729
 20
-16.7634
 11
-35.3131
 21
-17.0536
  0
LINE
  8
0
 10
-35.3131
 20
-17.0536
 11
-35.5877
 21
-17.3115
  0
LINE
  8
0
 10
-35.5877
 20
-17.3115
 11
-35.8925
 21
-17.533
  0
LINE
  8
0
 10
-35.8925
 20
-17.533
 11
-36.2227
 21
-17.7145
  0
LINE
  8
0
 10
-36.2227
 20
-17.7145
 11
-36.5729
 21
-17.8532
  0
LINE
  8
0
 10
-36.5729
 20
-17.8532
 11
-36.9379
 21
-17.9469
  0
LINE
  8
0
 10
-36.9379
 20
-17.9469
 11
-37.3116
 21
-17.9941
  0
LINE
  8
0
 10
-37.3116
 20
-17.9941
 11
-37.6884
 21
-17.9941
  0
ENDSEC
  0
SECTION
  2
OBJECTS
  0
DICTIONARY
  0
ENDSEC
  0
EOF
