  0
SECTION
  2
BLOCKS
  0
ENDSEC
  0
SECTION
  2
ENTITIES
  0
LINE
  8
0
 10
10.4369
 20
17.0886
 11
11.0451
 21
17.2447
  0
LINE
  8
0
 10
11.0451
 20
17.2447
 11
11.6289
 21
17.4759
  0
LINE
  8
0
 10
11.6289
 20
17.4759
 11
12.1791
 21
17.7784
  0
LINE
  8
0
 10
12.1791
 20
17.7784
 11
12.6871
 21
18.1474
  0
LINE
  8
0
 10
12.6871
 20
18.1474
 11
13.1448
 21
18.5773
  0
LINE
  8
0
 10
13.1448
 20
18.5773
 11
13.5451
 21
19.0611
  0
LINE
  8
0
 10
13.5451
 20
19.0611
 11
13.8815
 21
19.5912
  0
LINE
  8
0
 10
13.8815
 20
19.5912
 11
14.1489
 21
20.1594
  0
LINE
  8
0
 10
14.1489
 20
20.1594
 11
14.3429
 21
20.7566
  0
LINE
  8
0
 10
14.3429
 20
20.7566
 11
14.4606
 21
21.3733
  0
LINE
  8
0
 10
14.4606
 20
21.3733
 11
14.5
 21
22
  0
LINE
  8
0
 10
14.5
 20
22
 11
14.5
 21
26
  0
LINE
  8
0
 10
14.5
 20
26
 11
14.4606
 21
26.6267
  0
LINE
  8
0
 10
14.4606
 20
26.6267
 11
14.3429
 21
27.2434
  0
LINE
  8
0
 10
14.3429
 20
27.2434
 11
14.1489
 21
27.8406
  0
LINE
  8
0
 10
14.1489
 20
27.8406
 11
13.8815
 21
28.4088
  0
LINE
  8
0
 10
13.8815
 20
28.4088
 11
13.5451
 21
28.9389
  0
LINE
  8
0
 10
13.5451
 20
28.9389
 11
13.1448
 21
29.4227
  0
LINE
  8
0
 10
13.1448
 20
29.4227
 11
12.6871
 21
29.8526
  0
LINE
  8
0
 10
12.6871
 20
29.8526
 11
12.1791
 21
30.2216
  0
LINE
  8
0
 10
12.1791
 20
30.2216
 11
11.6289
 21
30.5241
  0
LINE
  8
0
 10
11.6289
 20
30.5241
 11
11.0451
 21
30.7553
  0
LINE
  8
0
 10
11.0451
 20
30.7553
 11
10.4369
 21
30.9114
  0
LINE
  8
0
 10
10.4369
 20
30.9114
 11
9.81395
 21
30.9901
  0
LINE
  8
0
 10
9.81395
 20
30.9901
 11
-9.81395
 21
30.9901
  0
LINE
  8
0
 10
-9.81395
 20
30.9901
 11
-10.4369
 21
30.9114
  0
LINE
  8
0
 10
-10.4369
 20
30.9114
 11
-11.0451
 21
30.7553
  0
LINE
  8
0
 10
-11.0451
 20
30.7553
 11
-11.6289
 21
30.5241
  0
LINE
  8
0
 10
-11.6289
 20
30.5241
 11
-12.1791
 21
30.2216
  0
LINE
  8
0
 10
-12.1791
 20
30.2216
 11
-12.6871
 21
29.8526
  0
LINE
  8
0
 10
-12.6871
 20
29.8526
 11
-13.1448
 21
29.4227
  0
LINE
  8
0
 10
-13.1448
 20
29.4227
 11
-13.5451
 21
28.9389
  0
LINE
  8
0
 10
-13.5451
 20
28.9389
 11
-13.8815
 21
28.4088
  0
LINE
  8
0
 10
-13.8815
 20
28.4088
 11
-14.1489
 21
27.8406
  0
LINE
  8
0
 10
-14.1489
 20
27.8406
 11
-14.3429
 21
27.2434
  0
LINE
  8
0
 10
-14.3429
 20
27.2434
 11
-14.4606
 21
26.6267
  0
LINE
  8
0
 10
-14.4606
 20
26.6267
 11
-14.5
 21
26
  0
LINE
  8
0
 10
-14.5
 20
26
 11
-14.5
 21
22
  0
LINE
  8
0
 10
-14.5
 20
22
 11
-14.4606
 21
21.3733
  0
LINE
  8
0
 10
-14.4606
 20
21.3733
 11
-14.3429
 21
20.7566
  0
LINE
  8
0
 10
-14.3429
 20
20.7566
 11
-14.1489
 21
20.1594
  0
LINE
  8
0
 10
-14.1489
 20
20.1594
 11
-13.8815
 21
19.5912
  0
LINE
  8
0
 10
-13.8815
 20
19.5912
 11
-13.5451
 21
19.0611
  0
LINE
  8
0
 10
-13.5451
 20
19.0611
 11
-13.1448
 21
18.5773
  0
LINE
  8
0
 10
-13.1448
 20
18.5773
 11
-12.6871
 21
18.1474
  0
LINE
  8
0
 10
-12.6871
 20
18.1474
 11
-12.1791
 21
17.7784
  0
LINE
  8
0
 10
-12.1791
 20
17.7784
 11
-11.6289
 21
17.4759
  0
LINE
  8
0
 10
-11.6289
 20
17.4759
 11
-11.0451
 21
17.2447
  0
LINE
  8
0
 10
-11.0451
 20
17.2447
 11
-10.4369
 21
17.0886
  0
LINE
  8
0
 10
-10.4369
 20
17.0886
 11
-9.81395
 21
17.0099
  0
LINE
  8
0
 10
-9.81395
 20
17.0099
 11
9.81395
 21
17.0099
  0
LINE
  8
0
 10
9.81395
 20
17.0099
 11
10.4369
 21
17.0886
  0
LINE
  8
0
 10
-7.68837
 20
21.0059
 11
-8.06213
 21
21.0531
  0
LINE
  8
0
 10
-8.06213
 20
21.0531
 11
-8.42705
 21
21.1468
  0
LINE
  8
0
 10
-8.42705
 20
21.1468
 11
-8.77733
 21
21.2855
  0
LINE
  8
0
 10
-8.77733
 20
21.2855
 11
-9.10747
 21
21.467
  0
LINE
  8
0
 10
-9.10747
 20
21.467
 11
-9.41226
 21
21.6885
  0
LINE
  8
0
 10
-9.41226
 20
21.6885
 11
-9.6869
 21
21.9464
  0
LINE
  8
0
 10
-9.6869
 20
21.9464
 11
-9.92705
 21
22.2366
  0
LINE
  8
0
 10
-9.92705
 20
22.2366
 11
-10.1289
 21
22.5547
  0
LINE
  8
0
 10
-10.1289
 20
22.5547
 11
-10.2893
 21
22.8956
  0
LINE
  8
0
 10
-10.2893
 20
22.8956
 11
-10.4057
 21
23.2539
  0
LINE
  8
0
 10
-10.4057
 20
23.2539
 11
-10.4763
 21
23.624
  0
LINE
  8
0
 10
-10.4763
 20
23.624
 11
-10.5
 21
24
  0
LINE
  8
0
 10
-10.5
 20
24
 11
-10.4763
 21
24.376
  0
LINE
  8
0
 10
-10.4763
 20
24.376
 11
-10.4057
 21
24.7461
  0
LINE
  8
0
 10
-10.4057
 20
24.7461
 11
-10.2893
 21
25.1044
  0
LINE
  8
0
 10
-10.2893
 20
25.1044
 11
-10.1289
 21
25.4453
  0
LINE
  8
0
 10
-10.1289
 20
25.4453
 11
-9.92705
 21
25.7634
  0
LINE
  8
0
 10
-9.92705
 20
25.7634
 11
-9.6869
 21
26.0536
  0
LINE
  8
0
 10
-9.6869
 20
26.0536
 11
-9.41226
 21
26.3115
  0
LINE
  8
0
 10
-9.41226
 20
26.3115
 11
-9.10747
 21
26.533
  0
LINE
  8
0
 10
-9.10747
 20
26.533
 11
-8.77733
 21
26.7145
  0
LINE
  8
0
 10
-8.77733
 20
26.7145
 11
-8.42705
 21
26.8532
  0
LINE
  8
0
 10
-8.42705
 20
26.8532
 11
-8.06213
 21
26.9469
  0
LINE
  8
0
 10
-8.06213
 20
26.9469
 11
-7.68837
 21
26.9941
  0
LINE
  8
0
 10
-7.68837
 20
26.9941
 11
-7.31161
 21
26.9941
  0
LINE
  8
0
 10
-7.31161
 20
26.9941
 11
-6.93785
 21
26.9469
  0
LINE
  8
0
 10
-6.93785
 20
26.9469
 11
-6.57294
 21
26.8532
  0
LINE
  8
0
 10
-6.57294
 20
26.8532
 11
-6.22266
 21
26.7145
  0
LINE
  8
0
 10
-6.22266
 20
26.7145
 11
-5.89252
 21
26.533
  0
LINE
  8
0
 10
-5.89252
 20
26.533
 11
-5.7032
 21
26.3954
  0
LINE
  8
0
 10
-5.7032
 20
26.3954
 11
-5.46844
 21
26.4557
  0
LINE
  8
0
 10
-5.46844
 20
26.4557
 11
-5.15697
 21
26.4951
  0
LINE
  8
0
 10
-5.15697
 20
26.4951
 11
-4.84302
 21
26.4951
  0
LINE
  8
0
 10
-4.84302
 20
26.4951
 11
-4.53154
 21
26.4557
  0
LINE
  8
0
 10
-4.53154
 20
26.4557
 11
-4.22745
 21
26.3776
  0
LINE
  8
0
 10
-4.22745
 20
26.3776
 11
-3.93555
 21
26.2621
  0
LINE
  8
0
 10
-3.93555
 20
26.2621
 11
-3.66043
 21
26.1108
  0
LINE
  8
0
 10
-3.66043
 20
26.1108
 11
-3.40643
 21
25.9263
  0
LINE
  8
0
 10
-3.40643
 20
25.9263
 11
-3.17757
 21
25.7114
  0
LINE
  8
0
 10
-3.17757
 20
25.7114
 11
-2.97745
 21
25.4695
  0
LINE
  8
0
 10
-2.97745
 20
25.4695
 11
-2.80922
 21
25.2044
  0
LINE
  8
0
 10
-2.80922
 20
25.2044
 11
-2.67555
 21
24.9203
  0
LINE
  8
0
 10
-2.67555
 20
24.9203
 11
-2.57854
 21
24.6217
  0
LINE
  8
0
 10
-2.57854
 20
24.6217
 11
-2.5197
 21
24.3133
  0
LINE
  8
0
 10
-2.5197
 20
24.3133
 11
-2.5
 21
24
  0
LINE
  8
0
 10
-2.5
 20
24
 11
-2.5197
 21
23.6867
  0
LINE
  8
0
 10
-2.5197
 20
23.6867
 11
-2.57854
 21
23.3783
  0
LINE
  8
0
 10
-2.57854
 20
23.3783
 11
-2.67555
 21
23.0797
  0
LINE
  8
0
 10
-2.67555
 20
23.0797
 11
-2.80922
 21
22.7956
  0
LINE
  8
0
 10
-2.80922
 20
22.7956
 11
-2.97745
 21
22.5305
  0
LINE
  8
0
 10
-2.97745
 20
22.5305
 11
-3.17757
 21
22.2886
  0
LINE
  8
0
 10
-3.17757
 20
22.2886
 11
-3.40643
 21
22.0737
  0
LINE
  8
0
 10
-3.40643
 20
22.0737
 11
-3.66043
 21
21.8892
  0
LINE
  8
0
 10
-3.66043
 20
21.8892
 11
-3.93555
 21
21.7379
  0
LINE
  8
0
 10
-3.93555
 20
21.7379
 11
-4.22745
 21
21.6224
  0
LINE
  8
0
 10
-4.22745
 20
21.6224
 11
-4.53154
 21
21.5443
  0
LINE
  8
0
 10
-4.53154
 20
21.5443
 11
-4.84302
 21
21.5049
  0
LINE
  8
0
 10
-4.84302
 20
21.5049
 11
-5.15697
 21
21.5049
  0
LINE
  8
0
 10
-5.15697
 20
21.5049
 11
-5.46844
 21
21.5443
  0
LINE
  8
0
 10
-5.46844
 20
21.5443
 11
-5.7032
 21
21.6046
  0
LINE
  8
0
 10
-5.7032
 20
21.6046
 11
-5.89252
 21
21.467
  0
LINE
  8
0
 10
-5.89252
 20
21.467
 11
-6.22266
 21
21.2855
  0
LINE
  8
0
 10
-6.22266
 20
21.2855
 11
-6.57294
 21
21.1468
  0
LINE
  8
0
 10
-6.57294
 20
21.1468
 11
-6.93785
 21
21.0531
  0
LINE
  8
0
 10
-6.93785
 20
21.0531
 11
-7.31161
 21
21.0059
  0
LINE
  8
0
 10
-7.31161
 20
21.0059
 11
-7.68837
 21
21.0059
  0
LINE
  8
0
 10
7.31161
 20
21.0059
 11
6.93785
 21
21.0531
  0
LINE
  8
0
 10
6.93785
 20
21.0531
 11
6.57294
 21
21.1468
  0
LINE
  8
0
 10
6.57294
 20
21.1468
 11
6.22266
 21
21.2855
  0
LINE
  8
0
 10
6.22266
 20
21.2855
 11
5.89252
 21
21.467
  0
LINE
  8
0
 10
5.89252
 20
21.467
 11
5.7032
 21
21.6046
  0
LINE
  8
0
 10
5.7032
 20
21.6046
 11
5.46844
 21
21.5443
  0
LINE
  8
0
 10
5.46844
 20
21.5443
 11
5.15697
 21
21.5049
  0
LINE
  8
0
 10
5.15697
 20
21.5049
 11
4.84302
 21
21.5049
  0
LINE
  8
0
 10
4.84302
 20
21.5049
 11
4.53154
 21
21.5443
  0
LINE
  8
0
 10
4.53154
 20
21.5443
 11
4.22745
 21
21.6224
  0
LINE
  8
0
 10
4.22745
 20
21.6224
 11
3.93555
 21
21.7379
  0
LINE
  8
0
 10
3.93555
 20
21.7379
 11
3.66043
 21
21.8892
  0
LINE
  8
0
 10
3.66043
 20
21.8892
 11
3.40643
 21
22.0737
  0
LINE
  8
0
 10
3.40643
 20
22.0737
 11
3.17757
 21
22.2886
  0
LINE
  8
0
 10
3.17757
 20
22.2886
 11
2.97745
 21
22.5305
  0
LINE
  8
0
 10
2.97745
 20
22.5305
 11
2.80922
 21
22.7956
  0
LINE
  8
0
 10
2.80922
 20
22.7956
 11
2.67555
 21
23.0797
  0
LINE
  8
0
 10
2.67555
 20
23.0797
 11
2.57854
 21
23.3783
  0
LINE
  8
0
 10
2.57854
 20
23.3783
 11
2.5197
 21
23.6867
  0
LINE
  8
0
 10
2.5197
 20
23.6867
 11
2.5
 21
24
  0
LINE
  8
0
 10
2.5
 20
24
 11
2.5197
 21
24.3133
  0
LINE
  8
0
 10
2.5197
 20
24.3133
 11
2.57854
 21
24.6217
  0
LINE
  8
0
 10
2.57854
 20
24.6217
 11
2.67555
 21
24.9203
  0
LINE
  8
0
 10
2.67555
 20
24.9203
 11
2.80922
 21
25.2044
  0
LINE
  8
0
 10
2.80922
 20
25.2044
 11
2.97745
 21
25.4695
  0
LINE
  8
0
 10
2.97745
 20
25.4695
 11
3.17757
 21
25.7114
  0
LINE
  8
0
 10
3.17757
 20
25.7114
 11
3.40643
 21
25.9263
  0
LINE
  8
0
 10
3.40643
 20
25.9263
 11
3.66043
 21
26.1108
  0
LINE
  8
0
 10
3.66043
 20
26.1108
 11
3.93555
 21
26.2621
  0
LINE
  8
0
 10
3.93555
 20
26.2621
 11
4.22745
 21
26.3776
  0
LINE
  8
0
 10
4.22745
 20
26.3776
 11
4.53154
 21
26.4557
  0
LINE
  8
0
 10
4.53154
 20
26.4557
 11
4.84302
 21
26.4951
  0
LINE
  8
0
 10
4.84302
 20
26.4951
 11
5.15697
 21
26.4951
  0
LINE
  8
0
 10
5.15697
 20
26.4951
 11
5.46844
 21
26.4557
  0
LINE
  8
0
 10
5.46844
 20
26.4557
 11
5.7032
 21
26.3954
  0
LINE
  8
0
 10
5.7032
 20
26.3954
 11
5.89252
 21
26.533
  0
LINE
  8
0
 10
5.89252
 20
26.533
 11
6.22266
 21
26.7145
  0
LINE
  8
0
 10
6.22266
 20
26.7145
 11
6.57294
 21
26.8532
  0
LINE
  8
0
 10
6.57294
 20
26.8532
 11
6.93785
 21
26.9469
  0
LINE
  8
0
 10
6.93785
 20
26.9469
 11
7.31161
 21
26.9941
  0
LINE
  8
0
 10
7.31161
 20
26.9941
 11
7.68837
 21
26.9941
  0
LINE
  8
0
 10
7.68837
 20
26.9941
 11
8.06213
 21
26.9469
  0
LINE
  8
0
 10
8.06213
 20
26.9469
 11
8.42705
 21
26.8532
  0
LINE
  8
0
 10
8.42705
 20
26.8532
 11
8.77733
 21
26.7145
  0
LINE
  8
0
 10
8.77733
 20
26.7145
 11
9.10747
 21
26.533
  0
LINE
  8
0
 10
9.10747
 20
26.533
 11
9.41226
 21
26.3115
  0
LINE
  8
0
 10
9.41226
 20
26.3115
 11
9.6869
 21
26.0536
  0
LINE
  8
0
 10
9.6869
 20
26.0536
 11
9.92705
 21
25.7634
  0
LINE
  8
0
 10
9.92705
 20
25.7634
 11
10.1289
 21
25.4453
  0
LINE
  8
0
 10
10.1289
 20
25.4453
 11
10.2893
 21
25.1044
  0
LINE
  8
0
 10
10.2893
 20
25.1044
 11
10.4057
 21
24.7461
  0
LINE
  8
0
 10
10.4057
 20
24.7461
 11
10.4763
 21
24.376
  0
LINE
  8
0
 10
10.4763
 20
24.376
 11
10.5
 21
24
  0
LINE
  8
0
 10
10.5
 20
24
 11
10.4763
 21
23.624
  0
LINE
  8
0
 10
10.4763
 20
23.624
 11
10.4057
 21
23.2539
  0
LINE
  8
0
 10
10.4057
 20
23.2539
 11
10.2893
 21
22.8956
  0
LINE
  8
0
 10
10.2893
 20
22.8956
 11
10.1289
 21
22.5547
  0
LINE
  8
0
 10
10.1289
 20
22.5547
 11
9.92705
 21
22.2366
  0
LINE
  8
0
 10
9.92705
 20
22.2366
 11
9.6869
 21
21.9464
  0
LINE
  8
0
 10
9.6869
 20
21.9464
 11
9.41226
 21
21.6885
  0
LINE
  8
0
 10
9.41226
 20
21.6885
 11
9.10747
 21
21.467
  0
LINE
  8
0
 10
9.10747
 20
21.467
 11
8.77733
 21
21.2855
  0
LINE
  8
0
 10
8.77733
 20
21.2855
 11
8.42705
 21
21.1468
  0
LINE
  8
0
 10
8.42705
 20
21.1468
 11
8.06213
 21
21.0531
  0
LINE
  8
0
 10
8.06213
 20
21.0531
 11
7.68837
 21
21.0059
  0
LINE
  8
0
 10
7.68837
 20
21.0059
 11
7.31161
 21
21.0059
  0
ENDSEC
  0
SECTION
  2
OBJECTS
  0
DICTIONARY
  0
ENDSEC
  0
EOF
