<?xml version="1.0" standalone="no"?>
<!DOCTYPE svg PUBLIC "-//W3C//DTD SVG 1.1//EN" "http://www.w3.org/Graphics/SVG/1.1/DTD/svg11.dtd">
<svg width="30mm" height="30mm" viewBox="-15 -15 30 30" xmlns="http://www.w3.org/2000/svg" version="1.1">
<title>OpenSCAD Model</title>
<path d="
M 10.4369,14.4114 L 11.0451,14.2553 L 11.6289,14.0241 L 12.1791,13.7216 L 12.6871,13.3526 L 13.1448,12.9227
 L 13.5451,12.4389 L 13.8815,11.9088 L 14.1489,11.3406 L 14.3429,10.7434 L 14.4606,10.1267 L 14.5,9.5
 L 14.5,-9.5 L 14.4606,-10.1267 L 14.3429,-10.7434 L 14.1489,-11.3406 L 13.8815,-11.9088 L 13.5451,-12.4389
 L 13.1448,-12.9227 L 12.6871,-13.3526 L 12.1791,-13.7216 L 11.6289,-14.0241 L 11.0451,-14.2553 L 10.4369,-14.4114
 L 9.81395,-14.4901 L -9.81395,-14.4901 L -10.4369,-14.4114 L -11.0451,-14.2553 L -11.6289,-14.0241 L -12.1791,-13.7216
 L -12.6871,-13.3526 L -13.1448,-12.9227 L -13.5451,-12.4389 L -13.8815,-11.9088 L -14.1489,-11.3406 L -14.3429,-10.7434
 L -14.4606,-10.1267 L -14.5,-9.5 L -14.5,9.5 L -14.4606,10.1267 L -14.3429,10.7434 L -14.1489,11.3406
 L -13.8815,11.9088 L -13.5451,12.4389 L -13.1448,12.9227 L -12.6871,13.3526 L -12.1791,13.7216 L -11.6289,14.0241
 L -11.0451,14.2553 L -10.4369,14.4114 L -9.81395,14.4901 L 9.81395,14.4901 z
M 7.31161,-4.50591 L 6.93785,-4.55313 L 6.57294,-4.64682 L 6.22266,-4.78551 L 5.89252,-4.96701 L 5.58772,-5.18845
 L 5.31308,-5.44635 L 5.07294,-5.73663 L 4.87108,-6.05473 L 4.71066,-6.39561 L 4.59424,-6.75392 L 4.52365,-7.12399
 L 4.5,-7.5 L 4.52365,-7.87599 L 4.59424,-8.24606 L 4.71066,-8.60437 L 4.87108,-8.94525 L 5.07294,-9.26335
 L 5.31308,-9.55363 L 5.58772,-9.81154 L 5.89252,-10.033 L 6.22266,-10.2145 L 6.57294,-10.3532 L 6.93785,-10.4469
 L 7.31161,-10.4941 L 7.68837,-10.4941 L 8.06213,-10.4469 L 8.42705,-10.3532 L 8.77733,-10.2145 L 9.10747,-10.033
 L 9.41226,-9.81154 L 9.6869,-9.55363 L 9.92705,-9.26335 L 10.1289,-8.94525 L 10.2893,-8.60437 L 10.4057,-8.24606
 L 10.4763,-7.87599 L 10.5,-7.5 L 10.4763,-7.12399 L 10.4057,-6.75392 L 10.2893,-6.39561 L 10.1289,-6.05473
 L 9.92705,-5.73663 L 9.6869,-5.44635 L 9.41226,-5.18845 L 9.10747,-4.96701 L 8.77733,-4.78551 L 8.42705,-4.64682
 L 8.06213,-4.55313 L 7.68837,-4.50591 z
M -7.68837,-4.50591 L -8.06213,-4.55313 L -8.42705,-4.64682 L -8.77733,-4.78551 L -9.10747,-4.96701 L -9.41226,-5.18845
 L -9.6869,-5.44635 L -9.92705,-5.73663 L -10.1289,-6.05473 L -10.2893,-6.39561 L -10.4057,-6.75392 L -10.4763,-7.12399
 L -10.5,-7.5 L -10.4763,-7.87599 L -10.4057,-8.24606 L -10.2893,-8.60437 L -10.1289,-8.94525 L -9.92705,-9.26335
 L -9.6869,-9.55363 L -9.41226,-9.81154 L -9.10747,-10.033 L -8.77733,-10.2145 L -8.42705,-10.3532 L -8.06213,-10.4469
 L -7.68837,-10.4941 L -7.31161,-10.4941 L -6.93785,-10.4469 L -6.57294,-10.3532 L -6.22266,-10.2145 L -5.89252,-10.033
 L -5.58772,-9.81154 L -5.31308,-9.55363 L -5.07294,-9.26335 L -4.87108,-8.94525 L -4.71066,-8.60437 L -4.59424,-8.24606
 L -4.52365,-7.87599 L -4.5,-7.5 L -4.52365,-7.12399 L -4.59424,-6.75392 L -4.71066,-6.39561 L -4.87108,-6.05473
 L -5.07294,-5.73663 L -5.31308,-5.44635 L -5.58772,-5.18845 L -5.89252,-4.96701 L -6.22266,-4.78551 L -6.57294,-4.64682
 L -6.93785,-4.55313 L -7.31161,-4.50591 z
M -0.31395,4.99013 L -0.936905,4.91142 L -1.54507,4.75528 L -2.12889,4.52412 L -2.67912,4.22163 L -3.18712,3.85255
 L -3.64484,3.42273 L -4.04507,2.93892 L -4.38153,2.40877 L -4.64888,1.84062 L -4.84291,1.24344 L -4.96057,0.626663
 L -5,-0 L -4.96057,-0.626663 L -4.84291,-1.24344 L -4.64888,-1.84062 L -4.38153,-2.40877 L -4.04507,-2.93892
 L -3.64484,-3.42273 L -3.18712,-3.85255 L -2.67912,-4.22163 L -2.12889,-4.52412 L -1.54507,-4.75528 L -0.936905,-4.91142
 L -0.31395,-4.99013 L 0.31395,-4.99013 L 0.936905,-4.91142 L 1.54507,-4.75528 L 2.12889,-4.52412 L 2.67912,-4.22163
 L 3.18712,-3.85255 L 3.64484,-3.42273 L 4.04507,-2.93892 L 4.38153,-2.40877 L 4.64888,-1.84062 L 4.84291,-1.24344
 L 4.96057,-0.626663 L 5,-0 L 4.96057,0.626663 L 4.84291,1.24344 L 4.64888,1.84062 L 4.38153,2.40877
 L 4.04507,2.93892 L 3.64484,3.42273 L 3.18712,3.85255 L 2.67912,4.22163 L 2.12889,4.52412 L 1.54507,4.75528
 L 0.936905,4.91142 L 0.31395,4.99013 z
M -7.68837,10.4941 L -8.06213,10.4469 L -8.42705,10.3532 L -8.77733,10.2145 L -9.10747,10.033 L -9.41226,9.81154
 L -9.6869,9.55363 L -9.92705,9.26335 L -10.1289,8.94525 L -10.2893,8.60437 L -10.4057,8.24606 L -10.4763,7.87599
 L -10.5,7.5 L -10.4763,7.12399 L -10.4057,6.75392 L -10.2893,6.39561 L -10.1289,6.05473 L -9.92705,5.73663
 L -9.6869,5.44635 L -9.41226,5.18845 L -9.10747,4.96701 L -8.77733,4.78551 L -8.42705,4.64682 L -8.06213,4.55313
 L -7.68837,4.50591 L -7.31161,4.50591 L -6.93785,4.55313 L -6.57294,4.64682 L -6.22266,4.78551 L -5.89252,4.96701
 L -5.58772,5.18845 L -5.31308,5.44635 L -5.07294,5.73663 L -4.87108,6.05473 L -4.71066,6.39561 L -4.59424,6.75392
 L -4.52365,7.12399 L -4.5,7.5 L -4.52365,7.87599 L -4.59424,8.24606 L -4.71066,8.60437 L -4.87108,8.94525
 L -5.07294,9.26335 L -5.31308,9.55363 L -5.58772,9.81154 L -5.89252,10.033 L -6.22266,10.2145 L -6.57294,10.3532
 L -6.93785,10.4469 L -7.31161,10.4941 z
M 7.31161,10.4941 L 6.93785,10.4469 L 6.57294,10.3532 L 6.22266,10.2145 L 5.89252,10.033 L 5.58772,9.81154
 L 5.31308,9.55363 L 5.07294,9.26335 L 4.87108,8.94525 L 4.71066,8.60437 L 4.59424,8.24606 L 4.52365,7.87599
 L 4.5,7.5 L 4.52365,7.12399 L 4.59424,6.75392 L 4.71066,6.39561 L 4.87108,6.05473 L 5.07294,5.73663
 L 5.31308,5.44635 L 5.58772,5.18845 L 5.89252,4.96701 L 6.22266,4.78551 L 6.57294,4.64682 L 6.93785,4.55313
 L 7.31161,4.50591 L 7.68837,4.50591 L 8.06213,4.55313 L 8.42705,4.64682 L 8.77733,4.78551 L 9.10747,4.96701
 L 9.41226,5.18845 L 9.6869,5.44635 L 9.92705,5.73663 L 10.1289,6.05473 L 10.2893,6.39561 L 10.4057,6.75392
 L 10.4763,7.12399 L 10.5,7.5 L 10.4763,7.87599 L 10.4057,8.24606 L 10.2893,8.60437 L 10.1289,8.94525
 L 9.92705,9.26335 L 9.6869,9.55363 L 9.41226,9.81154 L 9.10747,10.033 L 8.77733,10.2145 L 8.42705,10.3532
 L 8.06213,10.4469 L 7.68837,10.4941 z
" stroke="black" fill="lightgray" stroke-width="0.5"/>
</svg>
