<?xml version="1.0" standalone="no"?>
<!DOCTYPE svg PUBLIC "-//W3C//DTD SVG 1.1//EN" "http://www.w3.org/Graphics/SVG/1.1/DTD/svg11.dtd">
<svg width="150mm" height="60mm" viewBox="-75 -30 150 60" xmlns="http://www.w3.org/2000/svg" version="1.1">
<title>OpenSCAD Model</title>
<path d="
M 70.4369,29.4114 L 71.0451,29.2553 L 71.6289,29.0241 L 72.1791,28.7216 L 72.6871,28.3526 L 73.1448,27.9227
 L 73.5451,27.4389 L 73.8815,26.9088 L 74.1489,26.3406 L 74.3429,25.7434 L 74.4606,25.1267 L 74.5,24.5
 L 74.5,-24.5 L 74.4606,-25.1267 L 74.3429,-25.7434 L 74.1489,-26.3406 L 73.8815,-26.9088 L 73.5451,-27.4389
 L 73.1448,-27.9227 L 72.6871,-28.3526 L 72.1791,-28.7216 L 71.6289,-29.0241 L 71.0451,-29.2553 L 70.4369,-29.4114
 L 69.8139,-29.4901 L -69.8139,-29.4901 L -70.4369,-29.4114 L -71.0451,-29.2553 L -71.6289,-29.0241 L -72.1791,-28.7216
 L -72.6871,-28.3526 L -73.1448,-27.9227 L -73.5451,-27.4389 L -73.8815,-26.9088 L -74.1489,-26.3406 L -74.3429,-25.7434
 L -74.4606,-25.1267 L -74.5,-24.5 L -74.5,24.5 L -74.4606,25.1267 L -74.3429,25.7434 L -74.1489,26.3406
 L -73.8815,26.9088 L -73.5451,27.4389 L -73.1448,27.9227 L -72.6871,28.3526 L -72.1791,28.7216 L -71.6289,29.0241
 L -71.0451,29.2553 L -70.4369,29.4114 L -69.8139,29.4901 L 69.8139,29.4901 z
M -67.6884,-19.5059 L -68.0621,-19.5531 L -68.427,-19.6468 L -68.7773,-19.7855 L -69.1075,-19.967 L -69.4123,-20.1884
 L -69.6869,-20.4464 L -69.927,-20.7366 L -70.1289,-21.0547 L -70.2893,-21.3956 L -70.4057,-21.7539 L -70.4763,-22.124
 L -70.5,-22.5 L -70.4763,-22.876 L -70.4057,-23.2461 L -70.2893,-23.6044 L -70.1289,-23.9453 L -69.927,-24.2634
 L -69.6869,-24.5536 L -69.4123,-24.8115 L -69.1075,-25.033 L -68.7773,-25.2145 L -68.427,-25.3532 L -68.0621,-25.4469
 L -67.6884,-25.4941 L -67.3116,-25.4941 L -66.9379,-25.4469 L -66.573,-25.3532 L -66.2227,-25.2145 L -65.8925,-25.033
 L -65.5877,-24.8115 L -65.3131,-24.5536 L -65.073,-24.2634 L -64.8711,-23.9453 L -64.7107,-23.6044 L -64.5943,-23.2461
 L -64.5237,-22.876 L -64.5,-22.5 L -64.5237,-22.124 L -64.5943,-21.7539 L -64.7107,-21.3956 L -64.8711,-21.0547
 L -65.073,-20.7366 L -65.3131,-20.4464 L -65.5877,-20.1884 L -65.8925,-19.967 L -66.2227,-19.7855 L -66.573,-19.6468
 L -66.9379,-19.5531 L -67.3116,-19.5059 z
M 67.3116,-19.5059 L 66.9379,-19.5531 L 66.573,-19.6468 L 66.2227,-19.7855 L 65.8925,-19.967 L 65.5877,-20.1884
 L 65.3131,-20.4464 L 65.073,-20.7366 L 64.8711,-21.0547 L 64.7107,-21.3956 L 64.5943,-21.7539 L 64.5237,-22.124
 L 64.5,-22.5 L 64.5237,-22.876 L 64.5943,-23.2461 L 64.7107,-23.6044 L 64.8711,-23.9453 L 65.073,-24.2634
 L 65.3131,-24.5536 L 65.5877,-24.8115 L 65.8925,-25.033 L 66.2227,-25.2145 L 66.573,-25.3532 L 66.9379,-25.4469
 L 67.3116,-25.4941 L 67.6884,-25.4941 L 68.0621,-25.4469 L 68.427,-25.3532 L 68.7773,-25.2145 L 69.1075,-25.033
 L 69.4123,-24.8115 L 69.6869,-24.5536 L 69.927,-24.2634 L 70.1289,-23.9453 L 70.2893,-23.6044 L 70.4057,-23.2461
 L 70.4763,-22.876 L 70.5,-22.5 L 70.4763,-22.124 L 70.4057,-21.7539 L 70.2893,-21.3956 L 70.1289,-21.0547
 L 69.927,-20.7366 L 69.6869,-20.4464 L 69.4123,-20.1884 L 69.1075,-19.967 L 68.7773,-19.7855 L 68.427,-19.6468
 L 68.0621,-19.5531 L 67.6884,-19.5059 z
M -1.38138,21.9566 L -4.12238,21.6103 L -6.79837,20.9232 L -9.36714,19.9062 L -11.7882,18.5752 L -14.0233,16.9513
 L -16.0373,15.06 L -17.7984,12.9313 L -19.2787,10.5986 L -20.4551,8.09874 L -21.3088,5.47118 L -21.8265,2.75732
 L -22,-0 L -21.8265,-2.75732 L -21.3088,-5.47118 L -20.4551,-8.09874 L -19.2787,-10.5986 L -17.7984,-12.9313
 L -16.0373,-15.06 L -14.0233,-16.9513 L -11.7882,-18.5752 L -9.36714,-19.9062 L -6.79837,-20.9232 L -4.12238,-21.6103
 L -1.38138,-21.9566 L 1.38138,-21.9566 L 4.12238,-21.6103 L 6.79837,-20.9232 L 9.36714,-19.9062 L 11.7882,-18.5752
 L 14.0233,-16.9513 L 16.0373,-15.06 L 17.7984,-12.9313 L 19.2787,-10.5986 L 20.4551,-8.09874 L 21.3088,-5.47118
 L 21.8265,-2.75732 L 22,-0 L 21.8265,2.75732 L 21.3088,5.47118 L 20.4551,8.09874 L 19.2787,10.5986
 L 17.7984,12.9313 L 16.0373,15.06 L 14.0233,16.9513 L 11.7882,18.5752 L 9.36714,19.9062 L 6.79837,20.9232
 L 4.12238,21.6103 L 1.38138,21.9566 z
M -50.3814,21.9566 L -53.1224,21.6103 L -55.7984,20.9232 L -58.3671,19.9062 L -60.7882,18.5752 L -63.0233,16.9513
 L -65.0373,15.06 L -66.7984,12.9313 L -68.2787,10.5986 L -69.4551,8.09874 L -70.3088,5.47118 L -70.8265,2.75732
 L -71,-0 L -70.8265,-2.75732 L -70.3088,-5.47118 L -69.4551,-8.09874 L -68.2787,-10.5986 L -66.7984,-12.9313
 L -65.0373,-15.06 L -63.0233,-16.9513 L -60.7882,-18.5752 L -58.3671,-19.9062 L -55.7984,-20.9232 L -53.1224,-21.6103
 L -50.3814,-21.9566 L -47.6186,-21.9566 L -44.8776,-21.6103 L -42.2016,-20.9232 L -39.6328,-19.9062 L -37.2118,-18.5752
 L -34.9767,-16.9513 L -32.9627,-15.06 L -31.2016,-12.9313 L -29.7213,-10.5986 L -28.5449,-8.09874 L -27.6912,-5.47118
 L -27.1735,-2.75732 L -27,-0 L -27.1735,2.75732 L -27.6912,5.47118 L -28.5449,8.09874 L -29.7213,10.5986
 L -31.2016,12.9313 L -32.9627,15.06 L -34.9767,16.9513 L -37.2118,18.5752 L -39.6328,19.9062 L -42.2016,20.9232
 L -44.8776,21.6103 L -47.6186,21.9566 z
M 47.6186,21.9566 L 44.8776,21.6103 L 42.2016,20.9232 L 39.6328,19.9062 L 37.2118,18.5752 L 34.9767,16.9513
 L 32.9627,15.06 L 31.2016,12.9313 L 29.7213,10.5986 L 28.5449,8.09874 L 27.6912,5.47118 L 27.1735,2.75732
 L 27,-0 L 27.1735,-2.75732 L 27.6912,-5.47118 L 28.5449,-8.09874 L 29.7213,-10.5986 L 31.2016,-12.9313
 L 32.9627,-15.06 L 34.9767,-16.9513 L 37.2118,-18.5752 L 39.6328,-19.9062 L 42.2016,-20.9232 L 44.8776,-21.6103
 L 47.6186,-21.9566 L 50.3814,-21.9566 L 53.1224,-21.6103 L 55.7984,-20.9232 L 58.3671,-19.9062 L 60.7882,-18.5752
 L 63.0233,-16.9513 L 65.0373,-15.06 L 66.7984,-12.9313 L 68.2787,-10.5986 L 69.4551,-8.09874 L 70.3088,-5.47118
 L 70.8265,-2.75732 L 71,-0 L 70.8265,2.75732 L 70.3088,5.47118 L 69.4551,8.09874 L 68.2787,10.5986
 L 66.7984,12.9313 L 65.0373,15.06 L 63.0233,16.9513 L 60.7882,18.5752 L 58.3671,19.9062 L 55.7984,20.9232
 L 53.1224,21.6103 L 50.3814,21.9566 z
M -67.6884,25.4941 L -68.0621,25.4469 L -68.427,25.3532 L -68.7773,25.2145 L -69.1075,25.033 L -69.4123,24.8115
 L -69.6869,24.5536 L -69.927,24.2634 L -70.1289,23.9453 L -70.2893,23.6044 L -70.4057,23.2461 L -70.4763,22.876
 L -70.5,22.5 L -70.4763,22.124 L -70.4057,21.7539 L -70.2893,21.3956 L -70.1289,21.0547 L -69.927,20.7366
 L -69.6869,20.4464 L -69.4123,20.1884 L -69.1075,19.967 L -68.7773,19.7855 L -68.427,19.6468 L -68.0621,19.5531
 L -67.6884,19.5059 L -67.3116,19.5059 L -66.9379,19.5531 L -66.573,19.6468 L -66.2227,19.7855 L -65.8925,19.967
 L -65.5877,20.1884 L -65.3131,20.4464 L -65.073,20.7366 L -64.8711,21.0547 L -64.7107,21.3956 L -64.5943,21.7539
 L -64.5237,22.124 L -64.5,22.5 L -64.5237,22.876 L -64.5943,23.2461 L -64.7107,23.6044 L -64.8711,23.9453
 L -65.073,24.2634 L -65.3131,24.5536 L -65.5877,24.8115 L -65.8925,25.033 L -66.2227,25.2145 L -66.573,25.3532
 L -66.9379,25.4469 L -67.3116,25.4941 z
M 67.3116,25.4941 L 66.9379,25.4469 L 66.573,25.3532 L 66.2227,25.2145 L 65.8925,25.033 L 65.5877,24.8115
 L 65.3131,24.5536 L 65.073,24.2634 L 64.8711,23.9453 L 64.7107,23.6044 L 64.5943,23.2461 L 64.5237,22.876
 L 64.5,22.5 L 64.5237,22.124 L 64.5943,21.7539 L 64.7107,21.3956 L 64.8711,21.0547 L 65.073,20.7366
 L 65.3131,20.4464 L 65.5877,20.1884 L 65.8925,19.967 L 66.2227,19.7855 L 66.573,19.6468 L 66.9379,19.5531
 L 67.3116,19.5059 L 67.6884,19.5059 L 68.0621,19.5531 L 68.427,19.6468 L 68.7773,19.7855 L 69.1075,19.967
 L 69.4123,20.1884 L 69.6869,20.4464 L 69.927,20.7366 L 70.1289,21.0547 L 70.2893,21.3956 L 70.4057,21.7539
 L 70.4763,22.124 L 70.5,22.5 L 70.4763,22.876 L 70.4057,23.2461 L 70.2893,23.6044 L 70.1289,23.9453
 L 69.927,24.2634 L 69.6869,24.5536 L 69.4123,24.8115 L 69.1075,25.033 L 68.7773,25.2145 L 68.427,25.3532
 L 68.0621,25.4469 L 67.6884,25.4941 z
" stroke="black" fill="lightgray" stroke-width="0.5"/>
</svg>
