  0
SECTION
  2
BLOCKS
  0
ENDSEC
  0
SECTION
  2
ENTITIES
  0
LINE
  8
0
 10
317.937
 20
-66.9114
 11
318.545
 21
-66.7553
  0
LINE
  8
0
 10
318.545
 20
-66.7553
 11
319.129
 21
-66.5241
  0
LINE
  8
0
 10
319.129
 20
-66.5241
 11
319.679
 21
-66.2216
  0
LINE
  8
0
 10
319.679
 20
-66.2216
 11
320.187
 21
-65.8526
  0
LINE
  8
0
 10
320.187
 20
-65.8526
 11
320.645
 21
-65.4227
  0
LINE
  8
0
 10
320.645
 20
-65.4227
 11
321.045
 21
-64.9389
  0
LINE
  8
0
 10
321.045
 20
-64.9389
 11
321.382
 21
-64.4088
  0
LINE
  8
0
 10
321.382
 20
-64.4088
 11
321.649
 21
-63.8406
  0
LINE
  8
0
 10
321.649
 20
-63.8406
 11
321.843
 21
-63.2434
  0
LINE
  8
0
 10
321.843
 20
-63.2434
 11
321.961
 21
-62.6267
  0
LINE
  8
0
 10
321.961
 20
-62.6267
 11
322
 21
-62
  0
LINE
  8
0
 10
322
 20
-62
 11
322
 21
62
  0
LINE
  8
0
 10
322
 20
62
 11
321.961
 21
62.6267
  0
LINE
  8
0
 10
321.961
 20
62.6267
 11
321.843
 21
63.2434
  0
LINE
  8
0
 10
321.843
 20
63.2434
 11
321.649
 21
63.8406
  0
LINE
  8
0
 10
321.649
 20
63.8406
 11
321.382
 21
64.4088
  0
LINE
  8
0
 10
321.382
 20
64.4088
 11
321.045
 21
64.9389
  0
LINE
  8
0
 10
321.045
 20
64.9389
 11
320.645
 21
65.4227
  0
LINE
  8
0
 10
320.645
 20
65.4227
 11
320.187
 21
65.8526
  0
LINE
  8
0
 10
320.187
 20
65.8526
 11
319.679
 21
66.2216
  0
LINE
  8
0
 10
319.679
 20
66.2216
 11
319.129
 21
66.5241
  0
LINE
  8
0
 10
319.129
 20
66.5241
 11
318.545
 21
66.7553
  0
LINE
  8
0
 10
318.545
 20
66.7553
 11
317.937
 21
66.9114
  0
LINE
  8
0
 10
317.937
 20
66.9114
 11
317.314
 21
66.9901
  0
LINE
  8
0
 10
317.314
 20
66.9901
 11
-317.314
 21
66.9901
  0
LINE
  8
0
 10
-317.314
 20
66.9901
 11
-317.937
 21
66.9114
  0
LINE
  8
0
 10
-317.937
 20
66.9114
 11
-318.545
 21
66.7553
  0
LINE
  8
0
 10
-318.545
 20
66.7553
 11
-319.129
 21
66.5241
  0
LINE
  8
0
 10
-319.129
 20
66.5241
 11
-319.679
 21
66.2216
  0
LINE
  8
0
 10
-319.679
 20
66.2216
 11
-320.187
 21
65.8526
  0
LINE
  8
0
 10
-320.187
 20
65.8526
 11
-320.645
 21
65.4227
  0
LINE
  8
0
 10
-320.645
 20
65.4227
 11
-321.045
 21
64.9389
  0
LINE
  8
0
 10
-321.045
 20
64.9389
 11
-321.382
 21
64.4088
  0
LINE
  8
0
 10
-321.382
 20
64.4088
 11
-321.649
 21
63.8406
  0
LINE
  8
0
 10
-321.649
 20
63.8406
 11
-321.843
 21
63.2434
  0
LINE
  8
0
 10
-321.843
 20
63.2434
 11
-321.961
 21
62.6267
  0
LINE
  8
0
 10
-321.961
 20
62.6267
 11
-322
 21
62
  0
LINE
  8
0
 10
-322
 20
62
 11
-322
 21
-62
  0
LINE
  8
0
 10
-322
 20
-62
 11
-321.961
 21
-62.6267
  0
LINE
  8
0
 10
-321.961
 20
-62.6267
 11
-321.843
 21
-63.2434
  0
LINE
  8
0
 10
-321.843
 20
-63.2434
 11
-321.649
 21
-63.8406
  0
LINE
  8
0
 10
-321.649
 20
-63.8406
 11
-321.382
 21
-64.4088
  0
LINE
  8
0
 10
-321.382
 20
-64.4088
 11
-321.045
 21
-64.9389
  0
LINE
  8
0
 10
-321.045
 20
-64.9389
 11
-320.645
 21
-65.4227
  0
LINE
  8
0
 10
-320.645
 20
-65.4227
 11
-320.187
 21
-65.8526
  0
LINE
  8
0
 10
-320.187
 20
-65.8526
 11
-319.679
 21
-66.2216
  0
LINE
  8
0
 10
-319.679
 20
-66.2216
 11
-319.129
 21
-66.5241
  0
LINE
  8
0
 10
-319.129
 20
-66.5241
 11
-318.545
 21
-66.7553
  0
LINE
  8
0
 10
-318.545
 20
-66.7553
 11
-317.937
 21
-66.9114
  0
LINE
  8
0
 10
-317.937
 20
-66.9114
 11
-317.314
 21
-66.9901
  0
LINE
  8
0
 10
-317.314
 20
-66.9901
 11
317.314
 21
-66.9901
  0
LINE
  8
0
 10
317.314
 20
-66.9901
 11
317.937
 21
-66.9114
  0
LINE
  8
0
 10
-315.188
 20
57.0059
 11
-315.562
 21
57.0531
  0
LINE
  8
0
 10
-315.562
 20
57.0531
 11
-315.927
 21
57.1468
  0
LINE
  8
0
 10
-315.927
 20
57.1468
 11
-316.277
 21
57.2855
  0
LINE
  8
0
 10
-316.277
 20
57.2855
 11
-316.607
 21
57.467
  0
LINE
  8
0
 10
-316.607
 20
57.467
 11
-316.912
 21
57.6885
  0
LINE
  8
0
 10
-316.912
 20
57.6885
 11
-317.187
 21
57.9464
  0
LINE
  8
0
 10
-317.187
 20
57.9464
 11
-317.427
 21
58.2366
  0
LINE
  8
0
 10
-317.427
 20
58.2366
 11
-317.629
 21
58.5547
  0
LINE
  8
0
 10
-317.629
 20
58.5547
 11
-317.789
 21
58.8956
  0
LINE
  8
0
 10
-317.789
 20
58.8956
 11
-317.906
 21
59.2539
  0
LINE
  8
0
 10
-317.906
 20
59.2539
 11
-317.976
 21
59.624
  0
LINE
  8
0
 10
-317.976
 20
59.624
 11
-318
 21
60
  0
LINE
  8
0
 10
-318
 20
60
 11
-317.976
 21
60.376
  0
LINE
  8
0
 10
-317.976
 20
60.376
 11
-317.906
 21
60.7461
  0
LINE
  8
0
 10
-317.906
 20
60.7461
 11
-317.789
 21
61.1044
  0
LINE
  8
0
 10
-317.789
 20
61.1044
 11
-317.629
 21
61.4453
  0
LINE
  8
0
 10
-317.629
 20
61.4453
 11
-317.427
 21
61.7634
  0
LINE
  8
0
 10
-317.427
 20
61.7634
 11
-317.187
 21
62.0536
  0
LINE
  8
0
 10
-317.187
 20
62.0536
 11
-316.912
 21
62.3115
  0
LINE
  8
0
 10
-316.912
 20
62.3115
 11
-316.607
 21
62.533
  0
LINE
  8
0
 10
-316.607
 20
62.533
 11
-316.277
 21
62.7145
  0
LINE
  8
0
 10
-316.277
 20
62.7145
 11
-315.927
 21
62.8532
  0
LINE
  8
0
 10
-315.927
 20
62.8532
 11
-315.562
 21
62.9469
  0
LINE
  8
0
 10
-315.562
 20
62.9469
 11
-315.188
 21
62.9941
  0
LINE
  8
0
 10
-315.188
 20
62.9941
 11
-314.812
 21
62.9941
  0
LINE
  8
0
 10
-314.812
 20
62.9941
 11
-314.438
 21
62.9469
  0
LINE
  8
0
 10
-314.438
 20
62.9469
 11
-314.073
 21
62.8532
  0
LINE
  8
0
 10
-314.073
 20
62.8532
 11
-313.723
 21
62.7145
  0
LINE
  8
0
 10
-313.723
 20
62.7145
 11
-313.393
 21
62.533
  0
LINE
  8
0
 10
-313.393
 20
62.533
 11
-313.088
 21
62.3115
  0
LINE
  8
0
 10
-313.088
 20
62.3115
 11
-312.813
 21
62.0536
  0
LINE
  8
0
 10
-312.813
 20
62.0536
 11
-312.573
 21
61.7634
  0
LINE
  8
0
 10
-312.573
 20
61.7634
 11
-312.371
 21
61.4453
  0
LINE
  8
0
 10
-312.371
 20
61.4453
 11
-312.211
 21
61.1044
  0
LINE
  8
0
 10
-312.211
 20
61.1044
 11
-312.094
 21
60.7461
  0
LINE
  8
0
 10
-312.094
 20
60.7461
 11
-312.024
 21
60.376
  0
LINE
  8
0
 10
-312.024
 20
60.376
 11
-312
 21
60
  0
LINE
  8
0
 10
-312
 20
60
 11
-312.024
 21
59.624
  0
LINE
  8
0
 10
-312.024
 20
59.624
 11
-312.094
 21
59.2539
  0
LINE
  8
0
 10
-312.094
 20
59.2539
 11
-312.211
 21
58.8956
  0
LINE
  8
0
 10
-312.211
 20
58.8956
 11
-312.371
 21
58.5547
  0
LINE
  8
0
 10
-312.371
 20
58.5547
 11
-312.573
 21
58.2366
  0
LINE
  8
0
 10
-312.573
 20
58.2366
 11
-312.813
 21
57.9464
  0
LINE
  8
0
 10
-312.813
 20
57.9464
 11
-313.088
 21
57.6885
  0
LINE
  8
0
 10
-313.088
 20
57.6885
 11
-313.393
 21
57.467
  0
LINE
  8
0
 10
-313.393
 20
57.467
 11
-313.723
 21
57.2855
  0
LINE
  8
0
 10
-313.723
 20
57.2855
 11
-314.073
 21
57.1468
  0
LINE
  8
0
 10
-314.073
 20
57.1468
 11
-314.438
 21
57.0531
  0
LINE
  8
0
 10
-314.438
 20
57.0531
 11
-314.812
 21
57.0059
  0
LINE
  8
0
 10
-314.812
 20
57.0059
 11
-315.188
 21
57.0059
  0
LINE
  8
0
 10
314.812
 20
57.0059
 11
314.438
 21
57.0531
  0
LINE
  8
0
 10
314.438
 20
57.0531
 11
314.073
 21
57.1468
  0
LINE
  8
0
 10
314.073
 20
57.1468
 11
313.723
 21
57.2855
  0
LINE
  8
0
 10
313.723
 20
57.2855
 11
313.393
 21
57.467
  0
LINE
  8
0
 10
313.393
 20
57.467
 11
313.088
 21
57.6885
  0
LINE
  8
0
 10
313.088
 20
57.6885
 11
312.813
 21
57.9464
  0
LINE
  8
0
 10
312.813
 20
57.9464
 11
312.573
 21
58.2366
  0
LINE
  8
0
 10
312.573
 20
58.2366
 11
312.371
 21
58.5547
  0
LINE
  8
0
 10
312.371
 20
58.5547
 11
312.211
 21
58.8956
  0
LINE
  8
0
 10
312.211
 20
58.8956
 11
312.094
 21
59.2539
  0
LINE
  8
0
 10
312.094
 20
59.2539
 11
312.024
 21
59.624
  0
LINE
  8
0
 10
312.024
 20
59.624
 11
312
 21
60
  0
LINE
  8
0
 10
312
 20
60
 11
312.024
 21
60.376
  0
LINE
  8
0
 10
312.024
 20
60.376
 11
312.094
 21
60.7461
  0
LINE
  8
0
 10
312.094
 20
60.7461
 11
312.211
 21
61.1044
  0
LINE
  8
0
 10
312.211
 20
61.1044
 11
312.371
 21
61.4453
  0
LINE
  8
0
 10
312.371
 20
61.4453
 11
312.573
 21
61.7634
  0
LINE
  8
0
 10
312.573
 20
61.7634
 11
312.813
 21
62.0536
  0
LINE
  8
0
 10
312.813
 20
62.0536
 11
313.088
 21
62.3115
  0
LINE
  8
0
 10
313.088
 20
62.3115
 11
313.393
 21
62.533
  0
LINE
  8
0
 10
313.393
 20
62.533
 11
313.723
 21
62.7145
  0
LINE
  8
0
 10
313.723
 20
62.7145
 11
314.073
 21
62.8532
  0
LINE
  8
0
 10
314.073
 20
62.8532
 11
314.438
 21
62.9469
  0
LINE
  8
0
 10
314.438
 20
62.9469
 11
314.812
 21
62.9941
  0
LINE
  8
0
 10
314.812
 20
62.9941
 11
315.188
 21
62.9941
  0
LINE
  8
0
 10
315.188
 20
62.9941
 11
315.562
 21
62.9469
  0
LINE
  8
0
 10
315.562
 20
62.9469
 11
315.927
 21
62.8532
  0
LINE
  8
0
 10
315.927
 20
62.8532
 11
316.277
 21
62.7145
  0
LINE
  8
0
 10
316.277
 20
62.7145
 11
316.607
 21
62.533
  0
LINE
  8
0
 10
316.607
 20
62.533
 11
316.912
 21
62.3115
  0
LINE
  8
0
 10
316.912
 20
62.3115
 11
317.187
 21
62.0536
  0
LINE
  8
0
 10
317.187
 20
62.0536
 11
317.427
 21
61.7634
  0
LINE
  8
0
 10
317.427
 20
61.7634
 11
317.629
 21
61.4453
  0
LINE
  8
0
 10
317.629
 20
61.4453
 11
317.789
 21
61.1044
  0
LINE
  8
0
 10
317.789
 20
61.1044
 11
317.906
 21
60.7461
  0
LINE
  8
0
 10
317.906
 20
60.7461
 11
317.976
 21
60.376
  0
LINE
  8
0
 10
317.976
 20
60.376
 11
318
 21
60
  0
LINE
  8
0
 10
318
 20
60
 11
317.976
 21
59.624
  0
LINE
  8
0
 10
317.976
 20
59.624
 11
317.906
 21
59.2539
  0
LINE
  8
0
 10
317.906
 20
59.2539
 11
317.789
 21
58.8956
  0
LINE
  8
0
 10
317.789
 20
58.8956
 11
317.629
 21
58.5547
  0
LINE
  8
0
 10
317.629
 20
58.5547
 11
317.427
 21
58.2366
  0
LINE
  8
0
 10
317.427
 20
58.2366
 11
317.187
 21
57.9464
  0
LINE
  8
0
 10
317.187
 20
57.9464
 11
316.912
 21
57.6885
  0
LINE
  8
0
 10
316.912
 20
57.6885
 11
316.607
 21
57.467
  0
LINE
  8
0
 10
316.607
 20
57.467
 11
316.277
 21
57.2855
  0
LINE
  8
0
 10
316.277
 20
57.2855
 11
315.927
 21
57.1468
  0
LINE
  8
0
 10
315.927
 20
57.1468
 11
315.562
 21
57.0531
  0
LINE
  8
0
 10
315.562
 20
57.0531
 11
315.188
 21
57.0059
  0
LINE
  8
0
 10
315.188
 20
57.0059
 11
314.812
 21
57.0059
  0
LINE
  8
0
 10
-128.767
 20
-59.8816
 11
-136.243
 21
-58.9372
  0
LINE
  8
0
 10
-136.243
 20
-58.9372
 11
-143.541
 21
-57.0634
  0
LINE
  8
0
 10
-143.541
 20
-57.0634
 11
-150.547
 21
-54.2896
  0
LINE
  8
0
 10
-150.547
 20
-54.2896
 11
-157.15
 21
-50.6597
  0
LINE
  8
0
 10
-157.15
 20
-50.6597
 11
-163.245
 21
-46.2308
  0
LINE
  8
0
 10
-163.245
 20
-46.2308
 11
-168.738
 21
-41.0728
  0
LINE
  8
0
 10
-168.738
 20
-41.0728
 11
-173.541
 21
-35.2671
  0
LINE
  8
0
 10
-173.541
 20
-35.2671
 11
-177.578
 21
-28.9052
  0
LINE
  8
0
 10
-177.578
 20
-28.9052
 11
-180.787
 21
-22.0875
  0
LINE
  8
0
 10
-180.787
 20
-22.0875
 11
-183.115
 21
-14.9214
  0
LINE
  8
0
 10
-183.115
 20
-14.9214
 11
-184.527
 21
-7.51999
  0
LINE
  8
0
 10
-184.527
 20
-7.51999
 11
-185
 21
0
  0
LINE
  8
0
 10
-185
 20
0
 11
-184.527
 21
7.51999
  0
LINE
  8
0
 10
-184.527
 20
7.51999
 11
-183.115
 21
14.9214
  0
LINE
  8
0
 10
-183.115
 20
14.9214
 11
-180.787
 21
22.0875
  0
LINE
  8
0
 10
-180.787
 20
22.0875
 11
-177.578
 21
28.9052
  0
LINE
  8
0
 10
-177.578
 20
28.9052
 11
-173.541
 21
35.2671
  0
LINE
  8
0
 10
-173.541
 20
35.2671
 11
-168.738
 21
41.0728
  0
LINE
  8
0
 10
-168.738
 20
41.0728
 11
-163.245
 21
46.2308
  0
LINE
  8
0
 10
-163.245
 20
46.2308
 11
-157.15
 21
50.6597
  0
LINE
  8
0
 10
-157.15
 20
50.6597
 11
-150.547
 21
54.2896
  0
LINE
  8
0
 10
-150.547
 20
54.2896
 11
-143.541
 21
57.0634
  0
LINE
  8
0
 10
-143.541
 20
57.0634
 11
-136.243
 21
58.9372
  0
LINE
  8
0
 10
-136.243
 20
58.9372
 11
-128.767
 21
59.8816
  0
LINE
  8
0
 10
-128.767
 20
59.8816
 11
-121.233
 21
59.8816
  0
LINE
  8
0
 10
-121.233
 20
59.8816
 11
-113.757
 21
58.9372
  0
LINE
  8
0
 10
-113.757
 20
58.9372
 11
-106.459
 21
57.0634
  0
LINE
  8
0
 10
-106.459
 20
57.0634
 11
-99.4532
 21
54.2896
  0
LINE
  8
0
 10
-99.4532
 20
54.2896
 11
-92.8504
 21
50.6597
  0
LINE
  8
0
 10
-92.8504
 20
50.6597
 11
-86.7546
 21
46.2308
  0
LINE
  8
0
 10
-86.7546
 20
46.2308
 11
-81.2619
 21
41.0728
  0
LINE
  8
0
 10
-81.2619
 20
41.0728
 11
-76.459
 21
35.2671
  0
LINE
  8
0
 10
-76.459
 20
35.2671
 11
-72.4216
 21
28.9052
  0
LINE
  8
0
 10
-72.4216
 20
28.9052
 11
-69.2134
 21
22.0875
  0
LINE
  8
0
 10
-69.2134
 20
22.0875
 11
-66.885
 21
14.9214
  0
LINE
  8
0
 10
-66.885
 20
14.9214
 11
-65.4731
 21
7.51999
  0
LINE
  8
0
 10
-65.4731
 20
7.51999
 11
-65
 21
0
  0
LINE
  8
0
 10
-65
 20
0
 11
-65.4731
 21
-7.51999
  0
LINE
  8
0
 10
-65.4731
 20
-7.51999
 11
-66.885
 21
-14.9214
  0
LINE
  8
0
 10
-66.885
 20
-14.9214
 11
-69.2134
 21
-22.0875
  0
LINE
  8
0
 10
-69.2134
 20
-22.0875
 11
-72.4216
 21
-28.9052
  0
LINE
  8
0
 10
-72.4216
 20
-28.9052
 11
-76.459
 21
-35.2671
  0
LINE
  8
0
 10
-76.459
 20
-35.2671
 11
-81.2619
 21
-41.0728
  0
LINE
  8
0
 10
-81.2619
 20
-41.0728
 11
-86.7546
 21
-46.2308
  0
LINE
  8
0
 10
-86.7546
 20
-46.2308
 11
-92.8504
 21
-50.6597
  0
LINE
  8
0
 10
-92.8504
 20
-50.6597
 11
-99.4532
 21
-54.2896
  0
LINE
  8
0
 10
-99.4532
 20
-54.2896
 11
-106.459
 21
-57.0634
  0
LINE
  8
0
 10
-106.459
 20
-57.0634
 11
-113.757
 21
-58.9372
  0
LINE
  8
0
 10
-113.757
 20
-58.9372
 11
-121.233
 21
-59.8816
  0
LINE
  8
0
 10
-121.233
 20
-59.8816
 11
-128.767
 21
-59.8816
  0
LINE
  8
0
 10
-3.76743
 20
-59.8816
 11
-11.2429
 21
-58.9372
  0
LINE
  8
0
 10
-11.2429
 20
-58.9372
 11
-18.541
 21
-57.0634
  0
LINE
  8
0
 10
-18.541
 20
-57.0634
 11
-25.5468
 21
-54.2896
  0
LINE
  8
0
 10
-25.5468
 20
-54.2896
 11
-32.1496
 21
-50.6597
  0
LINE
  8
0
 10
-32.1496
 20
-50.6597
 11
-38.2454
 21
-46.2308
  0
LINE
  8
0
 10
-38.2454
 20
-46.2308
 11
-43.7381
 21
-41.0728
  0
LINE
  8
0
 10
-43.7381
 20
-41.0728
 11
-48.541
 21
-35.2671
  0
LINE
  8
0
 10
-48.541
 20
-35.2671
 11
-52.5784
 21
-28.9052
  0
LINE
  8
0
 10
-52.5784
 20
-28.9052
 11
-55.7866
 21
-22.0875
  0
LINE
  8
0
 10
-55.7866
 20
-22.0875
 11
-58.115
 21
-14.9214
  0
LINE
  8
0
 10
-58.115
 20
-14.9214
 11
-59.5269
 21
-7.51999
  0
LINE
  8
0
 10
-59.5269
 20
-7.51999
 11
-60
 21
0
  0
LINE
  8
0
 10
-60
 20
0
 11
-59.5269
 21
7.51999
  0
LINE
  8
0
 10
-59.5269
 20
7.51999
 11
-58.115
 21
14.9214
  0
LINE
  8
0
 10
-58.115
 20
14.9214
 11
-55.7866
 21
22.0875
  0
LINE
  8
0
 10
-55.7866
 20
22.0875
 11
-52.5784
 21
28.9052
  0
LINE
  8
0
 10
-52.5784
 20
28.9052
 11
-48.541
 21
35.2671
  0
LINE
  8
0
 10
-48.541
 20
35.2671
 11
-43.7381
 21
41.0728
  0
LINE
  8
0
 10
-43.7381
 20
41.0728
 11
-38.2454
 21
46.2308
  0
LINE
  8
0
 10
-38.2454
 20
46.2308
 11
-32.1496
 21
50.6597
  0
LINE
  8
0
 10
-32.1496
 20
50.6597
 11
-25.5468
 21
54.2896
  0
LINE
  8
0
 10
-25.5468
 20
54.2896
 11
-18.541
 21
57.0634
  0
LINE
  8
0
 10
-18.541
 20
57.0634
 11
-11.2429
 21
58.9372
  0
LINE
  8
0
 10
-11.2429
 20
58.9372
 11
-3.76743
 21
59.8816
  0
LINE
  8
0
 10
-3.76743
 20
59.8816
 11
3.76743
 21
59.8816
  0
LINE
  8
0
 10
3.76743
 20
59.8816
 11
11.2429
 21
58.9372
  0
LINE
  8
0
 10
11.2429
 20
58.9372
 11
18.541
 21
57.0634
  0
LINE
  8
0
 10
18.541
 20
57.0634
 11
25.5468
 21
54.2896
  0
LINE
  8
0
 10
25.5468
 20
54.2896
 11
32.1496
 21
50.6597
  0
LINE
  8
0
 10
32.1496
 20
50.6597
 11
38.2454
 21
46.2308
  0
LINE
  8
0
 10
38.2454
 20
46.2308
 11
43.7381
 21
41.0728
  0
LINE
  8
0
 10
43.7381
 20
41.0728
 11
48.541
 21
35.2671
  0
LINE
  8
0
 10
48.541
 20
35.2671
 11
52.5784
 21
28.9052
  0
LINE
  8
0
 10
52.5784
 20
28.9052
 11
55.7866
 21
22.0875
  0
LINE
  8
0
 10
55.7866
 20
22.0875
 11
58.115
 21
14.9214
  0
LINE
  8
0
 10
58.115
 20
14.9214
 11
59.5269
 21
7.51999
  0
LINE
  8
0
 10
59.5269
 20
7.51999
 11
60
 21
0
  0
LINE
  8
0
 10
60
 20
0
 11
59.5269
 21
-7.51999
  0
LINE
  8
0
 10
59.5269
 20
-7.51999
 11
58.115
 21
-14.9214
  0
LINE
  8
0
 10
58.115
 20
-14.9214
 11
55.7866
 21
-22.0875
  0
LINE
  8
0
 10
55.7866
 20
-22.0875
 11
52.5784
 21
-28.9052
  0
LINE
  8
0
 10
52.5784
 20
-28.9052
 11
48.541
 21
-35.2671
  0
LINE
  8
0
 10
48.541
 20
-35.2671
 11
43.7381
 21
-41.0728
  0
LINE
  8
0
 10
43.7381
 20
-41.0728
 11
38.2454
 21
-46.2308
  0
LINE
  8
0
 10
38.2454
 20
-46.2308
 11
32.1496
 21
-50.6597
  0
LINE
  8
0
 10
32.1496
 20
-50.6597
 11
25.5468
 21
-54.2896
  0
LINE
  8
0
 10
25.5468
 20
-54.2896
 11
18.541
 21
-57.0634
  0
LINE
  8
0
 10
18.541
 20
-57.0634
 11
11.2429
 21
-58.9372
  0
LINE
  8
0
 10
11.2429
 20
-58.9372
 11
3.76743
 21
-59.8816
  0
LINE
  8
0
 10
3.76743
 20
-59.8816
 11
-3.76743
 21
-59.8816
  0
LINE
  8
0
 10
121.233
 20
-59.8816
 11
113.757
 21
-58.9372
  0
LINE
  8
0
 10
113.757
 20
-58.9372
 11
106.459
 21
-57.0634
  0
LINE
  8
0
 10
106.459
 20
-57.0634
 11
99.4532
 21
-54.2896
  0
LINE
  8
0
 10
99.4532
 20
-54.2896
 11
92.8504
 21
-50.6597
  0
LINE
  8
0
 10
92.8504
 20
-50.6597
 11
86.7546
 21
-46.2308
  0
LINE
  8
0
 10
86.7546
 20
-46.2308
 11
81.2619
 21
-41.0728
  0
LINE
  8
0
 10
81.2619
 20
-41.0728
 11
76.459
 21
-35.2671
  0
LINE
  8
0
 10
76.459
 20
-35.2671
 11
72.4216
 21
-28.9052
  0
LINE
  8
0
 10
72.4216
 20
-28.9052
 11
69.2134
 21
-22.0875
  0
LINE
  8
0
 10
69.2134
 20
-22.0875
 11
66.885
 21
-14.9214
  0
LINE
  8
0
 10
66.885
 20
-14.9214
 11
65.4731
 21
-7.51999
  0
LINE
  8
0
 10
65.4731
 20
-7.51999
 11
65
 21
0
  0
LINE
  8
0
 10
65
 20
0
 11
65.4731
 21
7.51999
  0
LINE
  8
0
 10
65.4731
 20
7.51999
 11
66.885
 21
14.9214
  0
LINE
  8
0
 10
66.885
 20
14.9214
 11
69.2134
 21
22.0875
  0
LINE
  8
0
 10
69.2134
 20
22.0875
 11
72.4216
 21
28.9052
  0
LINE
  8
0
 10
72.4216
 20
28.9052
 11
76.459
 21
35.2671
  0
LINE
  8
0
 10
76.459
 20
35.2671
 11
81.2619
 21
41.0728
  0
LINE
  8
0
 10
81.2619
 20
41.0728
 11
86.7546
 21
46.2308
  0
LINE
  8
0
 10
86.7546
 20
46.2308
 11
92.8504
 21
50.6597
  0
LINE
  8
0
 10
92.8504
 20
50.6597
 11
99.4532
 21
54.2896
  0
LINE
  8
0
 10
99.4532
 20
54.2896
 11
106.459
 21
57.0634
  0
LINE
  8
0
 10
106.459
 20
57.0634
 11
113.757
 21
58.9372
  0
LINE
  8
0
 10
113.757
 20
58.9372
 11
121.233
 21
59.8816
  0
LINE
  8
0
 10
121.233
 20
59.8816
 11
128.767
 21
59.8816
  0
LINE
  8
0
 10
128.767
 20
59.8816
 11
136.243
 21
58.9372
  0
LINE
  8
0
 10
136.243
 20
58.9372
 11
143.541
 21
57.0634
  0
LINE
  8
0
 10
143.541
 20
57.0634
 11
150.547
 21
54.2896
  0
LINE
  8
0
 10
150.547
 20
54.2896
 11
157.15
 21
50.6597
  0
LINE
  8
0
 10
157.15
 20
50.6597
 11
163.245
 21
46.2308
  0
LINE
  8
0
 10
163.245
 20
46.2308
 11
168.738
 21
41.0728
  0
LINE
  8
0
 10
168.738
 20
41.0728
 11
173.541
 21
35.2671
  0
LINE
  8
0
 10
173.541
 20
35.2671
 11
177.578
 21
28.9052
  0
LINE
  8
0
 10
177.578
 20
28.9052
 11
180.787
 21
22.0875
  0
LINE
  8
0
 10
180.787
 20
22.0875
 11
183.115
 21
14.9214
  0
LINE
  8
0
 10
183.115
 20
14.9214
 11
184.527
 21
7.51999
  0
LINE
  8
0
 10
184.527
 20
7.51999
 11
185
 21
0
  0
LINE
  8
0
 10
185
 20
0
 11
184.527
 21
-7.51999
  0
LINE
  8
0
 10
184.527
 20
-7.51999
 11
183.115
 21
-14.9214
  0
LINE
  8
0
 10
183.115
 20
-14.9214
 11
180.787
 21
-22.0875
  0
LINE
  8
0
 10
180.787
 20
-22.0875
 11
177.578
 21
-28.9052
  0
LINE
  8
0
 10
177.578
 20
-28.9052
 11
173.541
 21
-35.2671
  0
LINE
  8
0
 10
173.541
 20
-35.2671
 11
168.738
 21
-41.0728
  0
LINE
  8
0
 10
168.738
 20
-41.0728
 11
163.245
 21
-46.2308
  0
LINE
  8
0
 10
163.245
 20
-46.2308
 11
157.15
 21
-50.6597
  0
LINE
  8
0
 10
157.15
 20
-50.6597
 11
150.547
 21
-54.2896
  0
LINE
  8
0
 10
150.547
 20
-54.2896
 11
143.541
 21
-57.0634
  0
LINE
  8
0
 10
143.541
 20
-57.0634
 11
136.243
 21
-58.9372
  0
LINE
  8
0
 10
136.243
 20
-58.9372
 11
128.767
 21
-59.8816
  0
LINE
  8
0
 10
128.767
 20
-59.8816
 11
121.233
 21
-59.8816
  0
LINE
  8
0
 10
-253.767
 20
-59.8816
 11
-261.243
 21
-58.9372
  0
LINE
  8
0
 10
-261.243
 20
-58.9372
 11
-268.541
 21
-57.0634
  0
LINE
  8
0
 10
-268.541
 20
-57.0634
 11
-275.547
 21
-54.2896
  0
LINE
  8
0
 10
-275.547
 20
-54.2896
 11
-282.15
 21
-50.6597
  0
LINE
  8
0
 10
-282.15
 20
-50.6597
 11
-288.245
 21
-46.2308
  0
LINE
  8
0
 10
-288.245
 20
-46.2308
 11
-293.738
 21
-41.0728
  0
LINE
  8
0
 10
-293.738
 20
-41.0728
 11
-298.541
 21
-35.2671
  0
LINE
  8
0
 10
-298.541
 20
-35.2671
 11
-302.578
 21
-28.9052
  0
LINE
  8
0
 10
-302.578
 20
-28.9052
 11
-305.787
 21
-22.0875
  0
LINE
  8
0
 10
-305.787
 20
-22.0875
 11
-308.115
 21
-14.9214
  0
LINE
  8
0
 10
-308.115
 20
-14.9214
 11
-309.527
 21
-7.51999
  0
LINE
  8
0
 10
-309.527
 20
-7.51999
 11
-310
 21
0
  0
LINE
  8
0
 10
-310
 20
0
 11
-309.527
 21
7.51999
  0
LINE
  8
0
 10
-309.527
 20
7.51999
 11
-308.115
 21
14.9214
  0
LINE
  8
0
 10
-308.115
 20
14.9214
 11
-305.787
 21
22.0875
  0
LINE
  8
0
 10
-305.787
 20
22.0875
 11
-302.578
 21
28.9052
  0
LINE
  8
0
 10
-302.578
 20
28.9052
 11
-298.541
 21
35.2671
  0
LINE
  8
0
 10
-298.541
 20
35.2671
 11
-293.738
 21
41.0728
  0
LINE
  8
0
 10
-293.738
 20
41.0728
 11
-288.245
 21
46.2308
  0
LINE
  8
0
 10
-288.245
 20
46.2308
 11
-282.15
 21
50.6597
  0
LINE
  8
0
 10
-282.15
 20
50.6597
 11
-275.547
 21
54.2896
  0
LINE
  8
0
 10
-275.547
 20
54.2896
 11
-268.541
 21
57.0634
  0
LINE
  8
0
 10
-268.541
 20
57.0634
 11
-261.243
 21
58.9372
  0
LINE
  8
0
 10
-261.243
 20
58.9372
 11
-253.767
 21
59.8816
  0
LINE
  8
0
 10
-253.767
 20
59.8816
 11
-246.233
 21
59.8816
  0
LINE
  8
0
 10
-246.233
 20
59.8816
 11
-238.757
 21
58.9372
  0
LINE
  8
0
 10
-238.757
 20
58.9372
 11
-231.459
 21
57.0634
  0
LINE
  8
0
 10
-231.459
 20
57.0634
 11
-224.453
 21
54.2896
  0
LINE
  8
0
 10
-224.453
 20
54.2896
 11
-217.85
 21
50.6597
  0
LINE
  8
0
 10
-217.85
 20
50.6597
 11
-211.755
 21
46.2308
  0
LINE
  8
0
 10
-211.755
 20
46.2308
 11
-206.262
 21
41.0728
  0
LINE
  8
0
 10
-206.262
 20
41.0728
 11
-201.459
 21
35.2671
  0
LINE
  8
0
 10
-201.459
 20
35.2671
 11
-197.422
 21
28.9052
  0
LINE
  8
0
 10
-197.422
 20
28.9052
 11
-194.213
 21
22.0875
  0
LINE
  8
0
 10
-194.213
 20
22.0875
 11
-191.885
 21
14.9214
  0
LINE
  8
0
 10
-191.885
 20
14.9214
 11
-190.473
 21
7.51999
  0
LINE
  8
0
 10
-190.473
 20
7.51999
 11
-190
 21
0
  0
LINE
  8
0
 10
-190
 20
0
 11
-190.473
 21
-7.51999
  0
LINE
  8
0
 10
-190.473
 20
-7.51999
 11
-191.885
 21
-14.9214
  0
LINE
  8
0
 10
-191.885
 20
-14.9214
 11
-194.213
 21
-22.0875
  0
LINE
  8
0
 10
-194.213
 20
-22.0875
 11
-197.422
 21
-28.9052
  0
LINE
  8
0
 10
-197.422
 20
-28.9052
 11
-201.459
 21
-35.2671
  0
LINE
  8
0
 10
-201.459
 20
-35.2671
 11
-206.262
 21
-41.0728
  0
LINE
  8
0
 10
-206.262
 20
-41.0728
 11
-211.755
 21
-46.2308
  0
LINE
  8
0
 10
-211.755
 20
-46.2308
 11
-217.85
 21
-50.6597
  0
LINE
  8
0
 10
-217.85
 20
-50.6597
 11
-224.453
 21
-54.2896
  0
LINE
  8
0
 10
-224.453
 20
-54.2896
 11
-231.459
 21
-57.0634
  0
LINE
  8
0
 10
-231.459
 20
-57.0634
 11
-238.757
 21
-58.9372
  0
LINE
  8
0
 10
-238.757
 20
-58.9372
 11
-246.233
 21
-59.8816
  0
LINE
  8
0
 10
-246.233
 20
-59.8816
 11
-253.767
 21
-59.8816
  0
LINE
  8
0
 10
246.233
 20
-59.8816
 11
238.757
 21
-58.9372
  0
LINE
  8
0
 10
238.757
 20
-58.9372
 11
231.459
 21
-57.0634
  0
LINE
  8
0
 10
231.459
 20
-57.0634
 11
224.453
 21
-54.2896
  0
LINE
  8
0
 10
224.453
 20
-54.2896
 11
217.85
 21
-50.6597
  0
LINE
  8
0
 10
217.85
 20
-50.6597
 11
211.755
 21
-46.2308
  0
LINE
  8
0
 10
211.755
 20
-46.2308
 11
206.262
 21
-41.0728
  0
LINE
  8
0
 10
206.262
 20
-41.0728
 11
201.459
 21
-35.2671
  0
LINE
  8
0
 10
201.459
 20
-35.2671
 11
197.422
 21
-28.9052
  0
LINE
  8
0
 10
197.422
 20
-28.9052
 11
194.213
 21
-22.0875
  0
LINE
  8
0
 10
194.213
 20
-22.0875
 11
191.885
 21
-14.9214
  0
LINE
  8
0
 10
191.885
 20
-14.9214
 11
190.473
 21
-7.51999
  0
LINE
  8
0
 10
190.473
 20
-7.51999
 11
190
 21
0
  0
LINE
  8
0
 10
190
 20
0
 11
190.473
 21
7.51999
  0
LINE
  8
0
 10
190.473
 20
7.51999
 11
191.885
 21
14.9214
  0
LINE
  8
0
 10
191.885
 20
14.9214
 11
194.213
 21
22.0875
  0
LINE
  8
0
 10
194.213
 20
22.0875
 11
197.422
 21
28.9052
  0
LINE
  8
0
 10
197.422
 20
28.9052
 11
201.459
 21
35.2671
  0
LINE
  8
0
 10
201.459
 20
35.2671
 11
206.262
 21
41.0728
  0
LINE
  8
0
 10
206.262
 20
41.0728
 11
211.755
 21
46.2308
  0
LINE
  8
0
 10
211.755
 20
46.2308
 11
217.85
 21
50.6597
  0
LINE
  8
0
 10
217.85
 20
50.6597
 11
224.453
 21
54.2896
  0
LINE
  8
0
 10
224.453
 20
54.2896
 11
231.459
 21
57.0634
  0
LINE
  8
0
 10
231.459
 20
57.0634
 11
238.757
 21
58.9372
  0
LINE
  8
0
 10
238.757
 20
58.9372
 11
246.233
 21
59.8816
  0
LINE
  8
0
 10
246.233
 20
59.8816
 11
253.767
 21
59.8816
  0
LINE
  8
0
 10
253.767
 20
59.8816
 11
261.243
 21
58.9372
  0
LINE
  8
0
 10
261.243
 20
58.9372
 11
268.541
 21
57.0634
  0
LINE
  8
0
 10
268.541
 20
57.0634
 11
275.547
 21
54.2896
  0
LINE
  8
0
 10
275.547
 20
54.2896
 11
282.15
 21
50.6597
  0
LINE
  8
0
 10
282.15
 20
50.6597
 11
288.245
 21
46.2308
  0
LINE
  8
0
 10
288.245
 20
46.2308
 11
293.738
 21
41.0728
  0
LINE
  8
0
 10
293.738
 20
41.0728
 11
298.541
 21
35.2671
  0
LINE
  8
0
 10
298.541
 20
35.2671
 11
302.578
 21
28.9052
  0
LINE
  8
0
 10
302.578
 20
28.9052
 11
305.787
 21
22.0875
  0
LINE
  8
0
 10
305.787
 20
22.0875
 11
308.115
 21
14.9214
  0
LINE
  8
0
 10
308.115
 20
14.9214
 11
309.527
 21
7.51999
  0
LINE
  8
0
 10
309.527
 20
7.51999
 11
310
 21
0
  0
LINE
  8
0
 10
310
 20
0
 11
309.527
 21
-7.51999
  0
LINE
  8
0
 10
309.527
 20
-7.51999
 11
308.115
 21
-14.9214
  0
LINE
  8
0
 10
308.115
 20
-14.9214
 11
305.787
 21
-22.0875
  0
LINE
  8
0
 10
305.787
 20
-22.0875
 11
302.578
 21
-28.9052
  0
LINE
  8
0
 10
302.578
 20
-28.9052
 11
298.541
 21
-35.2671
  0
LINE
  8
0
 10
298.541
 20
-35.2671
 11
293.738
 21
-41.0728
  0
LINE
  8
0
 10
293.738
 20
-41.0728
 11
288.245
 21
-46.2308
  0
LINE
  8
0
 10
288.245
 20
-46.2308
 11
282.15
 21
-50.6597
  0
LINE
  8
0
 10
282.15
 20
-50.6597
 11
275.547
 21
-54.2896
  0
LINE
  8
0
 10
275.547
 20
-54.2896
 11
268.541
 21
-57.0634
  0
LINE
  8
0
 10
268.541
 20
-57.0634
 11
261.243
 21
-58.9372
  0
LINE
  8
0
 10
261.243
 20
-58.9372
 11
253.767
 21
-59.8816
  0
LINE
  8
0
 10
253.767
 20
-59.8816
 11
246.233
 21
-59.8816
  0
LINE
  8
0
 10
314.906
 20
51.003
 11
314.719
 21
51.0266
  0
LINE
  8
0
 10
314.719
 20
51.0266
 11
314.536
 21
51.0734
  0
LINE
  8
0
 10
314.536
 20
51.0734
 11
314.361
 21
51.1428
  0
LINE
  8
0
 10
314.361
 20
51.1428
 11
314.196
 21
51.2335
  0
LINE
  8
0
 10
314.196
 20
51.2335
 11
314.044
 21
51.3442
  0
LINE
  8
0
 10
314.044
 20
51.3442
 11
313.907
 21
51.4732
  0
LINE
  8
0
 10
313.907
 20
51.4732
 11
313.786
 21
51.6183
  0
LINE
  8
0
 10
313.786
 20
51.6183
 11
313.686
 21
51.7774
  0
LINE
  8
0
 10
313.686
 20
51.7774
 11
313.605
 21
51.9478
  0
LINE
  8
0
 10
313.605
 20
51.9478
 11
313.547
 21
52.127
  0
LINE
  8
0
 10
313.547
 20
52.127
 11
313.512
 21
52.312
  0
LINE
  8
0
 10
313.512
 20
52.312
 11
313.5
 21
52.5
  0
LINE
  8
0
 10
313.5
 20
52.5
 11
313.512
 21
52.688
  0
LINE
  8
0
 10
313.512
 20
52.688
 11
313.547
 21
52.873
  0
LINE
  8
0
 10
313.547
 20
52.873
 11
313.605
 21
53.0522
  0
LINE
  8
0
 10
313.605
 20
53.0522
 11
313.686
 21
53.2226
  0
LINE
  8
0
 10
313.686
 20
53.2226
 11
313.786
 21
53.3817
  0
LINE
  8
0
 10
313.786
 20
53.3817
 11
313.907
 21
53.5268
  0
LINE
  8
0
 10
313.907
 20
53.5268
 11
314.044
 21
53.6558
  0
LINE
  8
0
 10
314.044
 20
53.6558
 11
314.196
 21
53.7665
  0
LINE
  8
0
 10
314.196
 20
53.7665
 11
314.361
 21
53.8572
  0
LINE
  8
0
 10
314.361
 20
53.8572
 11
314.536
 21
53.9266
  0
LINE
  8
0
 10
314.536
 20
53.9266
 11
314.719
 21
53.9734
  0
LINE
  8
0
 10
314.719
 20
53.9734
 11
314.906
 21
53.997
  0
LINE
  8
0
 10
314.906
 20
53.997
 11
315.094
 21
53.997
  0
LINE
  8
0
 10
315.094
 20
53.997
 11
315.281
 21
53.9734
  0
LINE
  8
0
 10
315.281
 20
53.9734
 11
315.464
 21
53.9266
  0
LINE
  8
0
 10
315.464
 20
53.9266
 11
315.639
 21
53.8572
  0
LINE
  8
0
 10
315.639
 20
53.8572
 11
315.804
 21
53.7665
  0
LINE
  8
0
 10
315.804
 20
53.7665
 11
315.956
 21
53.6558
  0
LINE
  8
0
 10
315.956
 20
53.6558
 11
316.093
 21
53.5268
  0
LINE
  8
0
 10
316.093
 20
53.5268
 11
316.214
 21
53.3817
  0
LINE
  8
0
 10
316.214
 20
53.3817
 11
316.314
 21
53.2226
  0
LINE
  8
0
 10
316.314
 20
53.2226
 11
316.395
 21
53.0522
  0
LINE
  8
0
 10
316.395
 20
53.0522
 11
316.453
 21
52.873
  0
LINE
  8
0
 10
316.453
 20
52.873
 11
316.488
 21
52.688
  0
LINE
  8
0
 10
316.488
 20
52.688
 11
316.5
 21
52.5
  0
LINE
  8
0
 10
316.5
 20
52.5
 11
316.488
 21
52.312
  0
LINE
  8
0
 10
316.488
 20
52.312
 11
316.453
 21
52.127
  0
LINE
  8
0
 10
316.453
 20
52.127
 11
316.395
 21
51.9478
  0
LINE
  8
0
 10
316.395
 20
51.9478
 11
316.314
 21
51.7774
  0
LINE
  8
0
 10
316.314
 20
51.7774
 11
316.214
 21
51.6183
  0
LINE
  8
0
 10
316.214
 20
51.6183
 11
316.093
 21
51.4732
  0
LINE
  8
0
 10
316.093
 20
51.4732
 11
315.956
 21
51.3442
  0
LINE
  8
0
 10
315.956
 20
51.3442
 11
315.804
 21
51.2335
  0
LINE
  8
0
 10
315.804
 20
51.2335
 11
315.639
 21
51.1428
  0
LINE
  8
0
 10
315.639
 20
51.1428
 11
315.464
 21
51.0734
  0
LINE
  8
0
 10
315.464
 20
51.0734
 11
315.281
 21
51.0266
  0
LINE
  8
0
 10
315.281
 20
51.0266
 11
315.094
 21
51.003
  0
LINE
  8
0
 10
315.094
 20
51.003
 11
314.906
 21
51.003
  0
LINE
  8
0
 10
-315.094
 20
51.003
 11
-315.281
 21
51.0266
  0
LINE
  8
0
 10
-315.281
 20
51.0266
 11
-315.464
 21
51.0734
  0
LINE
  8
0
 10
-315.464
 20
51.0734
 11
-315.639
 21
51.1428
  0
LINE
  8
0
 10
-315.639
 20
51.1428
 11
-315.804
 21
51.2335
  0
LINE
  8
0
 10
-315.804
 20
51.2335
 11
-315.956
 21
51.3442
  0
LINE
  8
0
 10
-315.956
 20
51.3442
 11
-316.093
 21
51.4732
  0
LINE
  8
0
 10
-316.093
 20
51.4732
 11
-316.214
 21
51.6183
  0
LINE
  8
0
 10
-316.214
 20
51.6183
 11
-316.314
 21
51.7774
  0
LINE
  8
0
 10
-316.314
 20
51.7774
 11
-316.395
 21
51.9478
  0
LINE
  8
0
 10
-316.395
 20
51.9478
 11
-316.453
 21
52.127
  0
LINE
  8
0
 10
-316.453
 20
52.127
 11
-316.488
 21
52.312
  0
LINE
  8
0
 10
-316.488
 20
52.312
 11
-316.5
 21
52.5
  0
LINE
  8
0
 10
-316.5
 20
52.5
 11
-316.488
 21
52.688
  0
LINE
  8
0
 10
-316.488
 20
52.688
 11
-316.453
 21
52.873
  0
LINE
  8
0
 10
-316.453
 20
52.873
 11
-316.395
 21
53.0522
  0
LINE
  8
0
 10
-316.395
 20
53.0522
 11
-316.314
 21
53.2226
  0
LINE
  8
0
 10
-316.314
 20
53.2226
 11
-316.214
 21
53.3817
  0
LINE
  8
0
 10
-316.214
 20
53.3817
 11
-316.093
 21
53.5268
  0
LINE
  8
0
 10
-316.093
 20
53.5268
 11
-315.956
 21
53.6558
  0
LINE
  8
0
 10
-315.956
 20
53.6558
 11
-315.804
 21
53.7665
  0
LINE
  8
0
 10
-315.804
 20
53.7665
 11
-315.639
 21
53.8572
  0
LINE
  8
0
 10
-315.639
 20
53.8572
 11
-315.464
 21
53.9266
  0
LINE
  8
0
 10
-315.464
 20
53.9266
 11
-315.281
 21
53.9734
  0
LINE
  8
0
 10
-315.281
 20
53.9734
 11
-315.094
 21
53.997
  0
LINE
  8
0
 10
-315.094
 20
53.997
 11
-314.906
 21
53.997
  0
LINE
  8
0
 10
-314.906
 20
53.997
 11
-314.719
 21
53.9734
  0
LINE
  8
0
 10
-314.719
 20
53.9734
 11
-314.536
 21
53.9266
  0
LINE
  8
0
 10
-314.536
 20
53.9266
 11
-314.361
 21
53.8572
  0
LINE
  8
0
 10
-314.361
 20
53.8572
 11
-314.196
 21
53.7665
  0
LINE
  8
0
 10
-314.196
 20
53.7665
 11
-314.044
 21
53.6558
  0
LINE
  8
0
 10
-314.044
 20
53.6558
 11
-313.907
 21
53.5268
  0
LINE
  8
0
 10
-313.907
 20
53.5268
 11
-313.786
 21
53.3817
  0
LINE
  8
0
 10
-313.786
 20
53.3817
 11
-313.686
 21
53.2226
  0
LINE
  8
0
 10
-313.686
 20
53.2226
 11
-313.605
 21
53.0522
  0
LINE
  8
0
 10
-313.605
 20
53.0522
 11
-313.547
 21
52.873
  0
LINE
  8
0
 10
-313.547
 20
52.873
 11
-313.512
 21
52.688
  0
LINE
  8
0
 10
-313.512
 20
52.688
 11
-313.5
 21
52.5
  0
LINE
  8
0
 10
-313.5
 20
52.5
 11
-313.512
 21
52.312
  0
LINE
  8
0
 10
-313.512
 20
52.312
 11
-313.547
 21
52.127
  0
LINE
  8
0
 10
-313.547
 20
52.127
 11
-313.605
 21
51.9478
  0
LINE
  8
0
 10
-313.605
 20
51.9478
 11
-313.686
 21
51.7774
  0
LINE
  8
0
 10
-313.686
 20
51.7774
 11
-313.786
 21
51.6183
  0
LINE
  8
0
 10
-313.786
 20
51.6183
 11
-313.907
 21
51.4732
  0
LINE
  8
0
 10
-313.907
 20
51.4732
 11
-314.044
 21
51.3442
  0
LINE
  8
0
 10
-314.044
 20
51.3442
 11
-314.196
 21
51.2335
  0
LINE
  8
0
 10
-314.196
 20
51.2335
 11
-314.361
 21
51.1428
  0
LINE
  8
0
 10
-314.361
 20
51.1428
 11
-314.536
 21
51.0734
  0
LINE
  8
0
 10
-314.536
 20
51.0734
 11
-314.719
 21
51.0266
  0
LINE
  8
0
 10
-314.719
 20
51.0266
 11
-314.906
 21
51.003
  0
LINE
  8
0
 10
-314.906
 20
51.003
 11
-315.094
 21
51.003
  0
LINE
  8
0
 10
-315.188
 20
42.0059
 11
-315.562
 21
42.0531
  0
LINE
  8
0
 10
-315.562
 20
42.0531
 11
-315.927
 21
42.1468
  0
LINE
  8
0
 10
-315.927
 20
42.1468
 11
-316.277
 21
42.2855
  0
LINE
  8
0
 10
-316.277
 20
42.2855
 11
-316.607
 21
42.467
  0
LINE
  8
0
 10
-316.607
 20
42.467
 11
-316.912
 21
42.6885
  0
LINE
  8
0
 10
-316.912
 20
42.6885
 11
-317.187
 21
42.9464
  0
LINE
  8
0
 10
-317.187
 20
42.9464
 11
-317.427
 21
43.2366
  0
LINE
  8
0
 10
-317.427
 20
43.2366
 11
-317.629
 21
43.5547
  0
LINE
  8
0
 10
-317.629
 20
43.5547
 11
-317.789
 21
43.8956
  0
LINE
  8
0
 10
-317.789
 20
43.8956
 11
-317.906
 21
44.2539
  0
LINE
  8
0
 10
-317.906
 20
44.2539
 11
-317.976
 21
44.624
  0
LINE
  8
0
 10
-317.976
 20
44.624
 11
-318
 21
45
  0
LINE
  8
0
 10
-318
 20
45
 11
-317.976
 21
45.376
  0
LINE
  8
0
 10
-317.976
 20
45.376
 11
-317.906
 21
45.7461
  0
LINE
  8
0
 10
-317.906
 20
45.7461
 11
-317.789
 21
46.1044
  0
LINE
  8
0
 10
-317.789
 20
46.1044
 11
-317.629
 21
46.4453
  0
LINE
  8
0
 10
-317.629
 20
46.4453
 11
-317.427
 21
46.7634
  0
LINE
  8
0
 10
-317.427
 20
46.7634
 11
-317.187
 21
47.0536
  0
LINE
  8
0
 10
-317.187
 20
47.0536
 11
-316.912
 21
47.3115
  0
LINE
  8
0
 10
-316.912
 20
47.3115
 11
-316.607
 21
47.533
  0
LINE
  8
0
 10
-316.607
 20
47.533
 11
-316.277
 21
47.7145
  0
LINE
  8
0
 10
-316.277
 20
47.7145
 11
-315.927
 21
47.8532
  0
LINE
  8
0
 10
-315.927
 20
47.8532
 11
-315.562
 21
47.9469
  0
LINE
  8
0
 10
-315.562
 20
47.9469
 11
-315.188
 21
47.9941
  0
LINE
  8
0
 10
-315.188
 20
47.9941
 11
-314.812
 21
47.9941
  0
LINE
  8
0
 10
-314.812
 20
47.9941
 11
-314.438
 21
47.9469
  0
LINE
  8
0
 10
-314.438
 20
47.9469
 11
-314.073
 21
47.8532
  0
LINE
  8
0
 10
-314.073
 20
47.8532
 11
-313.723
 21
47.7145
  0
LINE
  8
0
 10
-313.723
 20
47.7145
 11
-313.393
 21
47.533
  0
LINE
  8
0
 10
-313.393
 20
47.533
 11
-313.088
 21
47.3115
  0
LINE
  8
0
 10
-313.088
 20
47.3115
 11
-312.813
 21
47.0536
  0
LINE
  8
0
 10
-312.813
 20
47.0536
 11
-312.573
 21
46.7634
  0
LINE
  8
0
 10
-312.573
 20
46.7634
 11
-312.371
 21
46.4453
  0
LINE
  8
0
 10
-312.371
 20
46.4453
 11
-312.211
 21
46.1044
  0
LINE
  8
0
 10
-312.211
 20
46.1044
 11
-312.094
 21
45.7461
  0
LINE
  8
0
 10
-312.094
 20
45.7461
 11
-312.024
 21
45.376
  0
LINE
  8
0
 10
-312.024
 20
45.376
 11
-312
 21
45
  0
LINE
  8
0
 10
-312
 20
45
 11
-312.024
 21
44.624
  0
LINE
  8
0
 10
-312.024
 20
44.624
 11
-312.094
 21
44.2539
  0
LINE
  8
0
 10
-312.094
 20
44.2539
 11
-312.211
 21
43.8956
  0
LINE
  8
0
 10
-312.211
 20
43.8956
 11
-312.371
 21
43.5547
  0
LINE
  8
0
 10
-312.371
 20
43.5547
 11
-312.573
 21
43.2366
  0
LINE
  8
0
 10
-312.573
 20
43.2366
 11
-312.813
 21
42.9464
  0
LINE
  8
0
 10
-312.813
 20
42.9464
 11
-313.088
 21
42.6885
  0
LINE
  8
0
 10
-313.088
 20
42.6885
 11
-313.393
 21
42.467
  0
LINE
  8
0
 10
-313.393
 20
42.467
 11
-313.723
 21
42.2855
  0
LINE
  8
0
 10
-313.723
 20
42.2855
 11
-314.073
 21
42.1468
  0
LINE
  8
0
 10
-314.073
 20
42.1468
 11
-314.438
 21
42.0531
  0
LINE
  8
0
 10
-314.438
 20
42.0531
 11
-314.812
 21
42.0059
  0
LINE
  8
0
 10
-314.812
 20
42.0059
 11
-315.188
 21
42.0059
  0
LINE
  8
0
 10
314.812
 20
42.0059
 11
314.438
 21
42.0531
  0
LINE
  8
0
 10
314.438
 20
42.0531
 11
314.073
 21
42.1468
  0
LINE
  8
0
 10
314.073
 20
42.1468
 11
313.723
 21
42.2855
  0
LINE
  8
0
 10
313.723
 20
42.2855
 11
313.393
 21
42.467
  0
LINE
  8
0
 10
313.393
 20
42.467
 11
313.088
 21
42.6885
  0
LINE
  8
0
 10
313.088
 20
42.6885
 11
312.813
 21
42.9464
  0
LINE
  8
0
 10
312.813
 20
42.9464
 11
312.573
 21
43.2366
  0
LINE
  8
0
 10
312.573
 20
43.2366
 11
312.371
 21
43.5547
  0
LINE
  8
0
 10
312.371
 20
43.5547
 11
312.211
 21
43.8956
  0
LINE
  8
0
 10
312.211
 20
43.8956
 11
312.094
 21
44.2539
  0
LINE
  8
0
 10
312.094
 20
44.2539
 11
312.024
 21
44.624
  0
LINE
  8
0
 10
312.024
 20
44.624
 11
312
 21
45
  0
LINE
  8
0
 10
312
 20
45
 11
312.024
 21
45.376
  0
LINE
  8
0
 10
312.024
 20
45.376
 11
312.094
 21
45.7461
  0
LINE
  8
0
 10
312.094
 20
45.7461
 11
312.211
 21
46.1044
  0
LINE
  8
0
 10
312.211
 20
46.1044
 11
312.371
 21
46.4453
  0
LINE
  8
0
 10
312.371
 20
46.4453
 11
312.573
 21
46.7634
  0
LINE
  8
0
 10
312.573
 20
46.7634
 11
312.813
 21
47.0536
  0
LINE
  8
0
 10
312.813
 20
47.0536
 11
313.088
 21
47.3115
  0
LINE
  8
0
 10
313.088
 20
47.3115
 11
313.393
 21
47.533
  0
LINE
  8
0
 10
313.393
 20
47.533
 11
313.723
 21
47.7145
  0
LINE
  8
0
 10
313.723
 20
47.7145
 11
314.073
 21
47.8532
  0
LINE
  8
0
 10
314.073
 20
47.8532
 11
314.438
 21
47.9469
  0
LINE
  8
0
 10
314.438
 20
47.9469
 11
314.812
 21
47.9941
  0
LINE
  8
0
 10
314.812
 20
47.9941
 11
315.188
 21
47.9941
  0
LINE
  8
0
 10
315.188
 20
47.9941
 11
315.562
 21
47.9469
  0
LINE
  8
0
 10
315.562
 20
47.9469
 11
315.927
 21
47.8532
  0
LINE
  8
0
 10
315.927
 20
47.8532
 11
316.277
 21
47.7145
  0
LINE
  8
0
 10
316.277
 20
47.7145
 11
316.607
 21
47.533
  0
LINE
  8
0
 10
316.607
 20
47.533
 11
316.912
 21
47.3115
  0
LINE
  8
0
 10
316.912
 20
47.3115
 11
317.187
 21
47.0536
  0
LINE
  8
0
 10
317.187
 20
47.0536
 11
317.427
 21
46.7634
  0
LINE
  8
0
 10
317.427
 20
46.7634
 11
317.629
 21
46.4453
  0
LINE
  8
0
 10
317.629
 20
46.4453
 11
317.789
 21
46.1044
  0
LINE
  8
0
 10
317.789
 20
46.1044
 11
317.906
 21
45.7461
  0
LINE
  8
0
 10
317.906
 20
45.7461
 11
317.976
 21
45.376
  0
LINE
  8
0
 10
317.976
 20
45.376
 11
318
 21
45
  0
LINE
  8
0
 10
318
 20
45
 11
317.976
 21
44.624
  0
LINE
  8
0
 10
317.976
 20
44.624
 11
317.906
 21
44.2539
  0
LINE
  8
0
 10
317.906
 20
44.2539
 11
317.789
 21
43.8956
  0
LINE
  8
0
 10
317.789
 20
43.8956
 11
317.629
 21
43.5547
  0
LINE
  8
0
 10
317.629
 20
43.5547
 11
317.427
 21
43.2366
  0
LINE
  8
0
 10
317.427
 20
43.2366
 11
317.187
 21
42.9464
  0
LINE
  8
0
 10
317.187
 20
42.9464
 11
316.912
 21
42.6885
  0
LINE
  8
0
 10
316.912
 20
42.6885
 11
316.607
 21
42.467
  0
LINE
  8
0
 10
316.607
 20
42.467
 11
316.277
 21
42.2855
  0
LINE
  8
0
 10
316.277
 20
42.2855
 11
315.927
 21
42.1468
  0
LINE
  8
0
 10
315.927
 20
42.1468
 11
315.562
 21
42.0531
  0
LINE
  8
0
 10
315.562
 20
42.0531
 11
315.188
 21
42.0059
  0
LINE
  8
0
 10
315.188
 20
42.0059
 11
314.812
 21
42.0059
  0
LINE
  8
0
 10
-315.094
 20
36.003
 11
-315.281
 21
36.0266
  0
LINE
  8
0
 10
-315.281
 20
36.0266
 11
-315.464
 21
36.0734
  0
LINE
  8
0
 10
-315.464
 20
36.0734
 11
-315.639
 21
36.1428
  0
LINE
  8
0
 10
-315.639
 20
36.1428
 11
-315.804
 21
36.2335
  0
LINE
  8
0
 10
-315.804
 20
36.2335
 11
-315.956
 21
36.3442
  0
LINE
  8
0
 10
-315.956
 20
36.3442
 11
-316.093
 21
36.4732
  0
LINE
  8
0
 10
-316.093
 20
36.4732
 11
-316.214
 21
36.6183
  0
LINE
  8
0
 10
-316.214
 20
36.6183
 11
-316.314
 21
36.7774
  0
LINE
  8
0
 10
-316.314
 20
36.7774
 11
-316.395
 21
36.9478
  0
LINE
  8
0
 10
-316.395
 20
36.9478
 11
-316.453
 21
37.127
  0
LINE
  8
0
 10
-316.453
 20
37.127
 11
-316.488
 21
37.312
  0
LINE
  8
0
 10
-316.488
 20
37.312
 11
-316.5
 21
37.5
  0
LINE
  8
0
 10
-316.5
 20
37.5
 11
-316.488
 21
37.688
  0
LINE
  8
0
 10
-316.488
 20
37.688
 11
-316.453
 21
37.873
  0
LINE
  8
0
 10
-316.453
 20
37.873
 11
-316.395
 21
38.0522
  0
LINE
  8
0
 10
-316.395
 20
38.0522
 11
-316.314
 21
38.2226
  0
LINE
  8
0
 10
-316.314
 20
38.2226
 11
-316.214
 21
38.3817
  0
LINE
  8
0
 10
-316.214
 20
38.3817
 11
-316.093
 21
38.5268
  0
LINE
  8
0
 10
-316.093
 20
38.5268
 11
-315.956
 21
38.6558
  0
LINE
  8
0
 10
-315.956
 20
38.6558
 11
-315.804
 21
38.7665
  0
LINE
  8
0
 10
-315.804
 20
38.7665
 11
-315.639
 21
38.8572
  0
LINE
  8
0
 10
-315.639
 20
38.8572
 11
-315.464
 21
38.9266
  0
LINE
  8
0
 10
-315.464
 20
38.9266
 11
-315.281
 21
38.9734
  0
LINE
  8
0
 10
-315.281
 20
38.9734
 11
-315.094
 21
38.997
  0
LINE
  8
0
 10
-315.094
 20
38.997
 11
-314.906
 21
38.997
  0
LINE
  8
0
 10
-314.906
 20
38.997
 11
-314.719
 21
38.9734
  0
LINE
  8
0
 10
-314.719
 20
38.9734
 11
-314.536
 21
38.9266
  0
LINE
  8
0
 10
-314.536
 20
38.9266
 11
-314.361
 21
38.8572
  0
LINE
  8
0
 10
-314.361
 20
38.8572
 11
-314.196
 21
38.7665
  0
LINE
  8
0
 10
-314.196
 20
38.7665
 11
-314.044
 21
38.6558
  0
LINE
  8
0
 10
-314.044
 20
38.6558
 11
-313.907
 21
38.5268
  0
LINE
  8
0
 10
-313.907
 20
38.5268
 11
-313.786
 21
38.3817
  0
LINE
  8
0
 10
-313.786
 20
38.3817
 11
-313.686
 21
38.2226
  0
LINE
  8
0
 10
-313.686
 20
38.2226
 11
-313.605
 21
38.0522
  0
LINE
  8
0
 10
-313.605
 20
38.0522
 11
-313.547
 21
37.873
  0
LINE
  8
0
 10
-313.547
 20
37.873
 11
-313.512
 21
37.688
  0
LINE
  8
0
 10
-313.512
 20
37.688
 11
-313.5
 21
37.5
  0
LINE
  8
0
 10
-313.5
 20
37.5
 11
-313.512
 21
37.312
  0
LINE
  8
0
 10
-313.512
 20
37.312
 11
-313.547
 21
37.127
  0
LINE
  8
0
 10
-313.547
 20
37.127
 11
-313.605
 21
36.9478
  0
LINE
  8
0
 10
-313.605
 20
36.9478
 11
-313.686
 21
36.7774
  0
LINE
  8
0
 10
-313.686
 20
36.7774
 11
-313.786
 21
36.6183
  0
LINE
  8
0
 10
-313.786
 20
36.6183
 11
-313.907
 21
36.4732
  0
LINE
  8
0
 10
-313.907
 20
36.4732
 11
-314.044
 21
36.3442
  0
LINE
  8
0
 10
-314.044
 20
36.3442
 11
-314.196
 21
36.2335
  0
LINE
  8
0
 10
-314.196
 20
36.2335
 11
-314.361
 21
36.1428
  0
LINE
  8
0
 10
-314.361
 20
36.1428
 11
-314.536
 21
36.0734
  0
LINE
  8
0
 10
-314.536
 20
36.0734
 11
-314.719
 21
36.0266
  0
LINE
  8
0
 10
-314.719
 20
36.0266
 11
-314.906
 21
36.003
  0
LINE
  8
0
 10
-314.906
 20
36.003
 11
-315.094
 21
36.003
  0
LINE
  8
0
 10
314.906
 20
36.003
 11
314.719
 21
36.0266
  0
LINE
  8
0
 10
314.719
 20
36.0266
 11
314.536
 21
36.0734
  0
LINE
  8
0
 10
314.536
 20
36.0734
 11
314.361
 21
36.1428
  0
LINE
  8
0
 10
314.361
 20
36.1428
 11
314.196
 21
36.2335
  0
LINE
  8
0
 10
314.196
 20
36.2335
 11
314.044
 21
36.3442
  0
LINE
  8
0
 10
314.044
 20
36.3442
 11
313.907
 21
36.4732
  0
LINE
  8
0
 10
313.907
 20
36.4732
 11
313.786
 21
36.6183
  0
LINE
  8
0
 10
313.786
 20
36.6183
 11
313.686
 21
36.7774
  0
LINE
  8
0
 10
313.686
 20
36.7774
 11
313.605
 21
36.9478
  0
LINE
  8
0
 10
313.605
 20
36.9478
 11
313.547
 21
37.127
  0
LINE
  8
0
 10
313.547
 20
37.127
 11
313.512
 21
37.312
  0
LINE
  8
0
 10
313.512
 20
37.312
 11
313.5
 21
37.5
  0
LINE
  8
0
 10
313.5
 20
37.5
 11
313.512
 21
37.688
  0
LINE
  8
0
 10
313.512
 20
37.688
 11
313.547
 21
37.873
  0
LINE
  8
0
 10
313.547
 20
37.873
 11
313.605
 21
38.0522
  0
LINE
  8
0
 10
313.605
 20
38.0522
 11
313.686
 21
38.2226
  0
LINE
  8
0
 10
313.686
 20
38.2226
 11
313.786
 21
38.3817
  0
LINE
  8
0
 10
313.786
 20
38.3817
 11
313.907
 21
38.5268
  0
LINE
  8
0
 10
313.907
 20
38.5268
 11
314.044
 21
38.6558
  0
LINE
  8
0
 10
314.044
 20
38.6558
 11
314.196
 21
38.7665
  0
LINE
  8
0
 10
314.196
 20
38.7665
 11
314.361
 21
38.8572
  0
LINE
  8
0
 10
314.361
 20
38.8572
 11
314.536
 21
38.9266
  0
LINE
  8
0
 10
314.536
 20
38.9266
 11
314.719
 21
38.9734
  0
LINE
  8
0
 10
314.719
 20
38.9734
 11
314.906
 21
38.997
  0
LINE
  8
0
 10
314.906
 20
38.997
 11
315.094
 21
38.997
  0
LINE
  8
0
 10
315.094
 20
38.997
 11
315.281
 21
38.9734
  0
LINE
  8
0
 10
315.281
 20
38.9734
 11
315.464
 21
38.9266
  0
LINE
  8
0
 10
315.464
 20
38.9266
 11
315.639
 21
38.8572
  0
LINE
  8
0
 10
315.639
 20
38.8572
 11
315.804
 21
38.7665
  0
LINE
  8
0
 10
315.804
 20
38.7665
 11
315.956
 21
38.6558
  0
LINE
  8
0
 10
315.956
 20
38.6558
 11
316.093
 21
38.5268
  0
LINE
  8
0
 10
316.093
 20
38.5268
 11
316.214
 21
38.3817
  0
LINE
  8
0
 10
316.214
 20
38.3817
 11
316.314
 21
38.2226
  0
LINE
  8
0
 10
316.314
 20
38.2226
 11
316.395
 21
38.0522
  0
LINE
  8
0
 10
316.395
 20
38.0522
 11
316.453
 21
37.873
  0
LINE
  8
0
 10
316.453
 20
37.873
 11
316.488
 21
37.688
  0
LINE
  8
0
 10
316.488
 20
37.688
 11
316.5
 21
37.5
  0
LINE
  8
0
 10
316.5
 20
37.5
 11
316.488
 21
37.312
  0
LINE
  8
0
 10
316.488
 20
37.312
 11
316.453
 21
37.127
  0
LINE
  8
0
 10
316.453
 20
37.127
 11
316.395
 21
36.9478
  0
LINE
  8
0
 10
316.395
 20
36.9478
 11
316.314
 21
36.7774
  0
LINE
  8
0
 10
316.314
 20
36.7774
 11
316.214
 21
36.6183
  0
LINE
  8
0
 10
316.214
 20
36.6183
 11
316.093
 21
36.4732
  0
LINE
  8
0
 10
316.093
 20
36.4732
 11
315.956
 21
36.3442
  0
LINE
  8
0
 10
315.956
 20
36.3442
 11
315.804
 21
36.2335
  0
LINE
  8
0
 10
315.804
 20
36.2335
 11
315.639
 21
36.1428
  0
LINE
  8
0
 10
315.639
 20
36.1428
 11
315.464
 21
36.0734
  0
LINE
  8
0
 10
315.464
 20
36.0734
 11
315.281
 21
36.0266
  0
LINE
  8
0
 10
315.281
 20
36.0266
 11
315.094
 21
36.003
  0
LINE
  8
0
 10
315.094
 20
36.003
 11
314.906
 21
36.003
  0
LINE
  8
0
 10
-315.188
 20
27.0059
 11
-315.562
 21
27.0531
  0
LINE
  8
0
 10
-315.562
 20
27.0531
 11
-315.927
 21
27.1468
  0
LINE
  8
0
 10
-315.927
 20
27.1468
 11
-316.277
 21
27.2855
  0
LINE
  8
0
 10
-316.277
 20
27.2855
 11
-316.607
 21
27.467
  0
LINE
  8
0
 10
-316.607
 20
27.467
 11
-316.912
 21
27.6884
  0
LINE
  8
0
 10
-316.912
 20
27.6884
 11
-317.187
 21
27.9464
  0
LINE
  8
0
 10
-317.187
 20
27.9464
 11
-317.427
 21
28.2366
  0
LINE
  8
0
 10
-317.427
 20
28.2366
 11
-317.629
 21
28.5547
  0
LINE
  8
0
 10
-317.629
 20
28.5547
 11
-317.789
 21
28.8956
  0
LINE
  8
0
 10
-317.789
 20
28.8956
 11
-317.906
 21
29.2539
  0
LINE
  8
0
 10
-317.906
 20
29.2539
 11
-317.976
 21
29.624
  0
LINE
  8
0
 10
-317.976
 20
29.624
 11
-318
 21
30
  0
LINE
  8
0
 10
-318
 20
30
 11
-317.976
 21
30.376
  0
LINE
  8
0
 10
-317.976
 20
30.376
 11
-317.906
 21
30.7461
  0
LINE
  8
0
 10
-317.906
 20
30.7461
 11
-317.789
 21
31.1044
  0
LINE
  8
0
 10
-317.789
 20
31.1044
 11
-317.629
 21
31.4453
  0
LINE
  8
0
 10
-317.629
 20
31.4453
 11
-317.427
 21
31.7634
  0
LINE
  8
0
 10
-317.427
 20
31.7634
 11
-317.187
 21
32.0536
  0
LINE
  8
0
 10
-317.187
 20
32.0536
 11
-316.912
 21
32.3115
  0
LINE
  8
0
 10
-316.912
 20
32.3115
 11
-316.607
 21
32.533
  0
LINE
  8
0
 10
-316.607
 20
32.533
 11
-316.277
 21
32.7145
  0
LINE
  8
0
 10
-316.277
 20
32.7145
 11
-315.927
 21
32.8532
  0
LINE
  8
0
 10
-315.927
 20
32.8532
 11
-315.562
 21
32.9469
  0
LINE
  8
0
 10
-315.562
 20
32.9469
 11
-315.188
 21
32.9941
  0
LINE
  8
0
 10
-315.188
 20
32.9941
 11
-314.812
 21
32.9941
  0
LINE
  8
0
 10
-314.812
 20
32.9941
 11
-314.438
 21
32.9469
  0
LINE
  8
0
 10
-314.438
 20
32.9469
 11
-314.073
 21
32.8532
  0
LINE
  8
0
 10
-314.073
 20
32.8532
 11
-313.723
 21
32.7145
  0
LINE
  8
0
 10
-313.723
 20
32.7145
 11
-313.393
 21
32.533
  0
LINE
  8
0
 10
-313.393
 20
32.533
 11
-313.088
 21
32.3115
  0
LINE
  8
0
 10
-313.088
 20
32.3115
 11
-312.813
 21
32.0536
  0
LINE
  8
0
 10
-312.813
 20
32.0536
 11
-312.573
 21
31.7634
  0
LINE
  8
0
 10
-312.573
 20
31.7634
 11
-312.371
 21
31.4453
  0
LINE
  8
0
 10
-312.371
 20
31.4453
 11
-312.211
 21
31.1044
  0
LINE
  8
0
 10
-312.211
 20
31.1044
 11
-312.094
 21
30.7461
  0
LINE
  8
0
 10
-312.094
 20
30.7461
 11
-312.024
 21
30.376
  0
LINE
  8
0
 10
-312.024
 20
30.376
 11
-312
 21
30
  0
LINE
  8
0
 10
-312
 20
30
 11
-312.024
 21
29.624
  0
LINE
  8
0
 10
-312.024
 20
29.624
 11
-312.094
 21
29.2539
  0
LINE
  8
0
 10
-312.094
 20
29.2539
 11
-312.211
 21
28.8956
  0
LINE
  8
0
 10
-312.211
 20
28.8956
 11
-312.371
 21
28.5547
  0
LINE
  8
0
 10
-312.371
 20
28.5547
 11
-312.573
 21
28.2366
  0
LINE
  8
0
 10
-312.573
 20
28.2366
 11
-312.813
 21
27.9464
  0
LINE
  8
0
 10
-312.813
 20
27.9464
 11
-313.088
 21
27.6884
  0
LINE
  8
0
 10
-313.088
 20
27.6884
 11
-313.393
 21
27.467
  0
LINE
  8
0
 10
-313.393
 20
27.467
 11
-313.723
 21
27.2855
  0
LINE
  8
0
 10
-313.723
 20
27.2855
 11
-314.073
 21
27.1468
  0
LINE
  8
0
 10
-314.073
 20
27.1468
 11
-314.438
 21
27.0531
  0
LINE
  8
0
 10
-314.438
 20
27.0531
 11
-314.812
 21
27.0059
  0
LINE
  8
0
 10
-314.812
 20
27.0059
 11
-315.188
 21
27.0059
  0
LINE
  8
0
 10
314.812
 20
27.0059
 11
314.438
 21
27.0531
  0
LINE
  8
0
 10
314.438
 20
27.0531
 11
314.073
 21
27.1468
  0
LINE
  8
0
 10
314.073
 20
27.1468
 11
313.723
 21
27.2855
  0
LINE
  8
0
 10
313.723
 20
27.2855
 11
313.393
 21
27.467
  0
LINE
  8
0
 10
313.393
 20
27.467
 11
313.088
 21
27.6884
  0
LINE
  8
0
 10
313.088
 20
27.6884
 11
312.813
 21
27.9464
  0
LINE
  8
0
 10
312.813
 20
27.9464
 11
312.573
 21
28.2366
  0
LINE
  8
0
 10
312.573
 20
28.2366
 11
312.371
 21
28.5547
  0
LINE
  8
0
 10
312.371
 20
28.5547
 11
312.211
 21
28.8956
  0
LINE
  8
0
 10
312.211
 20
28.8956
 11
312.094
 21
29.2539
  0
LINE
  8
0
 10
312.094
 20
29.2539
 11
312.024
 21
29.624
  0
LINE
  8
0
 10
312.024
 20
29.624
 11
312
 21
30
  0
LINE
  8
0
 10
312
 20
30
 11
312.024
 21
30.376
  0
LINE
  8
0
 10
312.024
 20
30.376
 11
312.094
 21
30.7461
  0
LINE
  8
0
 10
312.094
 20
30.7461
 11
312.211
 21
31.1044
  0
LINE
  8
0
 10
312.211
 20
31.1044
 11
312.371
 21
31.4453
  0
LINE
  8
0
 10
312.371
 20
31.4453
 11
312.573
 21
31.7634
  0
LINE
  8
0
 10
312.573
 20
31.7634
 11
312.813
 21
32.0536
  0
LINE
  8
0
 10
312.813
 20
32.0536
 11
313.088
 21
32.3115
  0
LINE
  8
0
 10
313.088
 20
32.3115
 11
313.393
 21
32.533
  0
LINE
  8
0
 10
313.393
 20
32.533
 11
313.723
 21
32.7145
  0
LINE
  8
0
 10
313.723
 20
32.7145
 11
314.073
 21
32.8532
  0
LINE
  8
0
 10
314.073
 20
32.8532
 11
314.438
 21
32.9469
  0
LINE
  8
0
 10
314.438
 20
32.9469
 11
314.812
 21
32.9941
  0
LINE
  8
0
 10
314.812
 20
32.9941
 11
315.188
 21
32.9941
  0
LINE
  8
0
 10
315.188
 20
32.9941
 11
315.562
 21
32.9469
  0
LINE
  8
0
 10
315.562
 20
32.9469
 11
315.927
 21
32.8532
  0
LINE
  8
0
 10
315.927
 20
32.8532
 11
316.277
 21
32.7145
  0
LINE
  8
0
 10
316.277
 20
32.7145
 11
316.607
 21
32.533
  0
LINE
  8
0
 10
316.607
 20
32.533
 11
316.912
 21
32.3115
  0
LINE
  8
0
 10
316.912
 20
32.3115
 11
317.187
 21
32.0536
  0
LINE
  8
0
 10
317.187
 20
32.0536
 11
317.427
 21
31.7634
  0
LINE
  8
0
 10
317.427
 20
31.7634
 11
317.629
 21
31.4453
  0
LINE
  8
0
 10
317.629
 20
31.4453
 11
317.789
 21
31.1044
  0
LINE
  8
0
 10
317.789
 20
31.1044
 11
317.906
 21
30.7461
  0
LINE
  8
0
 10
317.906
 20
30.7461
 11
317.976
 21
30.376
  0
LINE
  8
0
 10
317.976
 20
30.376
 11
318
 21
30
  0
LINE
  8
0
 10
318
 20
30
 11
317.976
 21
29.624
  0
LINE
  8
0
 10
317.976
 20
29.624
 11
317.906
 21
29.2539
  0
LINE
  8
0
 10
317.906
 20
29.2539
 11
317.789
 21
28.8956
  0
LINE
  8
0
 10
317.789
 20
28.8956
 11
317.629
 21
28.5547
  0
LINE
  8
0
 10
317.629
 20
28.5547
 11
317.427
 21
28.2366
  0
LINE
  8
0
 10
317.427
 20
28.2366
 11
317.187
 21
27.9464
  0
LINE
  8
0
 10
317.187
 20
27.9464
 11
316.912
 21
27.6884
  0
LINE
  8
0
 10
316.912
 20
27.6884
 11
316.607
 21
27.467
  0
LINE
  8
0
 10
316.607
 20
27.467
 11
316.277
 21
27.2855
  0
LINE
  8
0
 10
316.277
 20
27.2855
 11
315.927
 21
27.1468
  0
LINE
  8
0
 10
315.927
 20
27.1468
 11
315.562
 21
27.0531
  0
LINE
  8
0
 10
315.562
 20
27.0531
 11
315.188
 21
27.0059
  0
LINE
  8
0
 10
315.188
 20
27.0059
 11
314.812
 21
27.0059
  0
LINE
  8
0
 10
314.906
 20
21.003
 11
314.719
 21
21.0266
  0
LINE
  8
0
 10
314.719
 20
21.0266
 11
314.536
 21
21.0734
  0
LINE
  8
0
 10
314.536
 20
21.0734
 11
314.361
 21
21.1427
  0
LINE
  8
0
 10
314.361
 20
21.1427
 11
314.196
 21
21.2335
  0
LINE
  8
0
 10
314.196
 20
21.2335
 11
314.044
 21
21.3442
  0
LINE
  8
0
 10
314.044
 20
21.3442
 11
313.907
 21
21.4732
  0
LINE
  8
0
 10
313.907
 20
21.4732
 11
313.786
 21
21.6183
  0
LINE
  8
0
 10
313.786
 20
21.6183
 11
313.686
 21
21.7774
  0
LINE
  8
0
 10
313.686
 20
21.7774
 11
313.605
 21
21.9478
  0
LINE
  8
0
 10
313.605
 20
21.9478
 11
313.547
 21
22.127
  0
LINE
  8
0
 10
313.547
 20
22.127
 11
313.512
 21
22.312
  0
LINE
  8
0
 10
313.512
 20
22.312
 11
313.5
 21
22.5
  0
LINE
  8
0
 10
313.5
 20
22.5
 11
313.512
 21
22.688
  0
LINE
  8
0
 10
313.512
 20
22.688
 11
313.547
 21
22.873
  0
LINE
  8
0
 10
313.547
 20
22.873
 11
313.605
 21
23.0522
  0
LINE
  8
0
 10
313.605
 20
23.0522
 11
313.686
 21
23.2226
  0
LINE
  8
0
 10
313.686
 20
23.2226
 11
313.786
 21
23.3817
  0
LINE
  8
0
 10
313.786
 20
23.3817
 11
313.907
 21
23.5268
  0
LINE
  8
0
 10
313.907
 20
23.5268
 11
314.044
 21
23.6558
  0
LINE
  8
0
 10
314.044
 20
23.6558
 11
314.196
 21
23.7665
  0
LINE
  8
0
 10
314.196
 20
23.7665
 11
314.361
 21
23.8572
  0
LINE
  8
0
 10
314.361
 20
23.8572
 11
314.536
 21
23.9266
  0
LINE
  8
0
 10
314.536
 20
23.9266
 11
314.719
 21
23.9734
  0
LINE
  8
0
 10
314.719
 20
23.9734
 11
314.906
 21
23.997
  0
LINE
  8
0
 10
314.906
 20
23.997
 11
315.094
 21
23.997
  0
LINE
  8
0
 10
315.094
 20
23.997
 11
315.281
 21
23.9734
  0
LINE
  8
0
 10
315.281
 20
23.9734
 11
315.464
 21
23.9266
  0
LINE
  8
0
 10
315.464
 20
23.9266
 11
315.639
 21
23.8572
  0
LINE
  8
0
 10
315.639
 20
23.8572
 11
315.804
 21
23.7665
  0
LINE
  8
0
 10
315.804
 20
23.7665
 11
315.956
 21
23.6558
  0
LINE
  8
0
 10
315.956
 20
23.6558
 11
316.093
 21
23.5268
  0
LINE
  8
0
 10
316.093
 20
23.5268
 11
316.214
 21
23.3817
  0
LINE
  8
0
 10
316.214
 20
23.3817
 11
316.314
 21
23.2226
  0
LINE
  8
0
 10
316.314
 20
23.2226
 11
316.395
 21
23.0522
  0
LINE
  8
0
 10
316.395
 20
23.0522
 11
316.453
 21
22.873
  0
LINE
  8
0
 10
316.453
 20
22.873
 11
316.488
 21
22.688
  0
LINE
  8
0
 10
316.488
 20
22.688
 11
316.5
 21
22.5
  0
LINE
  8
0
 10
316.5
 20
22.5
 11
316.488
 21
22.312
  0
LINE
  8
0
 10
316.488
 20
22.312
 11
316.453
 21
22.127
  0
LINE
  8
0
 10
316.453
 20
22.127
 11
316.395
 21
21.9478
  0
LINE
  8
0
 10
316.395
 20
21.9478
 11
316.314
 21
21.7774
  0
LINE
  8
0
 10
316.314
 20
21.7774
 11
316.214
 21
21.6183
  0
LINE
  8
0
 10
316.214
 20
21.6183
 11
316.093
 21
21.4732
  0
LINE
  8
0
 10
316.093
 20
21.4732
 11
315.956
 21
21.3442
  0
LINE
  8
0
 10
315.956
 20
21.3442
 11
315.804
 21
21.2335
  0
LINE
  8
0
 10
315.804
 20
21.2335
 11
315.639
 21
21.1427
  0
LINE
  8
0
 10
315.639
 20
21.1427
 11
315.464
 21
21.0734
  0
LINE
  8
0
 10
315.464
 20
21.0734
 11
315.281
 21
21.0266
  0
LINE
  8
0
 10
315.281
 20
21.0266
 11
315.094
 21
21.003
  0
LINE
  8
0
 10
315.094
 20
21.003
 11
314.906
 21
21.003
  0
LINE
  8
0
 10
-315.094
 20
21.003
 11
-315.281
 21
21.0266
  0
LINE
  8
0
 10
-315.281
 20
21.0266
 11
-315.464
 21
21.0734
  0
LINE
  8
0
 10
-315.464
 20
21.0734
 11
-315.639
 21
21.1427
  0
LINE
  8
0
 10
-315.639
 20
21.1427
 11
-315.804
 21
21.2335
  0
LINE
  8
0
 10
-315.804
 20
21.2335
 11
-315.956
 21
21.3442
  0
LINE
  8
0
 10
-315.956
 20
21.3442
 11
-316.093
 21
21.4732
  0
LINE
  8
0
 10
-316.093
 20
21.4732
 11
-316.214
 21
21.6183
  0
LINE
  8
0
 10
-316.214
 20
21.6183
 11
-316.314
 21
21.7774
  0
LINE
  8
0
 10
-316.314
 20
21.7774
 11
-316.395
 21
21.9478
  0
LINE
  8
0
 10
-316.395
 20
21.9478
 11
-316.453
 21
22.127
  0
LINE
  8
0
 10
-316.453
 20
22.127
 11
-316.488
 21
22.312
  0
LINE
  8
0
 10
-316.488
 20
22.312
 11
-316.5
 21
22.5
  0
LINE
  8
0
 10
-316.5
 20
22.5
 11
-316.488
 21
22.688
  0
LINE
  8
0
 10
-316.488
 20
22.688
 11
-316.453
 21
22.873
  0
LINE
  8
0
 10
-316.453
 20
22.873
 11
-316.395
 21
23.0522
  0
LINE
  8
0
 10
-316.395
 20
23.0522
 11
-316.314
 21
23.2226
  0
LINE
  8
0
 10
-316.314
 20
23.2226
 11
-316.214
 21
23.3817
  0
LINE
  8
0
 10
-316.214
 20
23.3817
 11
-316.093
 21
23.5268
  0
LINE
  8
0
 10
-316.093
 20
23.5268
 11
-315.956
 21
23.6558
  0
LINE
  8
0
 10
-315.956
 20
23.6558
 11
-315.804
 21
23.7665
  0
LINE
  8
0
 10
-315.804
 20
23.7665
 11
-315.639
 21
23.8572
  0
LINE
  8
0
 10
-315.639
 20
23.8572
 11
-315.464
 21
23.9266
  0
LINE
  8
0
 10
-315.464
 20
23.9266
 11
-315.281
 21
23.9734
  0
LINE
  8
0
 10
-315.281
 20
23.9734
 11
-315.094
 21
23.997
  0
LINE
  8
0
 10
-315.094
 20
23.997
 11
-314.906
 21
23.997
  0
LINE
  8
0
 10
-314.906
 20
23.997
 11
-314.719
 21
23.9734
  0
LINE
  8
0
 10
-314.719
 20
23.9734
 11
-314.536
 21
23.9266
  0
LINE
  8
0
 10
-314.536
 20
23.9266
 11
-314.361
 21
23.8572
  0
LINE
  8
0
 10
-314.361
 20
23.8572
 11
-314.196
 21
23.7665
  0
LINE
  8
0
 10
-314.196
 20
23.7665
 11
-314.044
 21
23.6558
  0
LINE
  8
0
 10
-314.044
 20
23.6558
 11
-313.907
 21
23.5268
  0
LINE
  8
0
 10
-313.907
 20
23.5268
 11
-313.786
 21
23.3817
  0
LINE
  8
0
 10
-313.786
 20
23.3817
 11
-313.686
 21
23.2226
  0
LINE
  8
0
 10
-313.686
 20
23.2226
 11
-313.605
 21
23.0522
  0
LINE
  8
0
 10
-313.605
 20
23.0522
 11
-313.547
 21
22.873
  0
LINE
  8
0
 10
-313.547
 20
22.873
 11
-313.512
 21
22.688
  0
LINE
  8
0
 10
-313.512
 20
22.688
 11
-313.5
 21
22.5
  0
LINE
  8
0
 10
-313.5
 20
22.5
 11
-313.512
 21
22.312
  0
LINE
  8
0
 10
-313.512
 20
22.312
 11
-313.547
 21
22.127
  0
LINE
  8
0
 10
-313.547
 20
22.127
 11
-313.605
 21
21.9478
  0
LINE
  8
0
 10
-313.605
 20
21.9478
 11
-313.686
 21
21.7774
  0
LINE
  8
0
 10
-313.686
 20
21.7774
 11
-313.786
 21
21.6183
  0
LINE
  8
0
 10
-313.786
 20
21.6183
 11
-313.907
 21
21.4732
  0
LINE
  8
0
 10
-313.907
 20
21.4732
 11
-314.044
 21
21.3442
  0
LINE
  8
0
 10
-314.044
 20
21.3442
 11
-314.196
 21
21.2335
  0
LINE
  8
0
 10
-314.196
 20
21.2335
 11
-314.361
 21
21.1427
  0
LINE
  8
0
 10
-314.361
 20
21.1427
 11
-314.536
 21
21.0734
  0
LINE
  8
0
 10
-314.536
 20
21.0734
 11
-314.719
 21
21.0266
  0
LINE
  8
0
 10
-314.719
 20
21.0266
 11
-314.906
 21
21.003
  0
LINE
  8
0
 10
-314.906
 20
21.003
 11
-315.094
 21
21.003
  0
LINE
  8
0
 10
314.812
 20
12.0059
 11
314.438
 21
12.0531
  0
LINE
  8
0
 10
314.438
 20
12.0531
 11
314.073
 21
12.1468
  0
LINE
  8
0
 10
314.073
 20
12.1468
 11
313.723
 21
12.2855
  0
LINE
  8
0
 10
313.723
 20
12.2855
 11
313.393
 21
12.467
  0
LINE
  8
0
 10
313.393
 20
12.467
 11
313.088
 21
12.6884
  0
LINE
  8
0
 10
313.088
 20
12.6884
 11
312.813
 21
12.9464
  0
LINE
  8
0
 10
312.813
 20
12.9464
 11
312.573
 21
13.2366
  0
LINE
  8
0
 10
312.573
 20
13.2366
 11
312.371
 21
13.5547
  0
LINE
  8
0
 10
312.371
 20
13.5547
 11
312.211
 21
13.8956
  0
LINE
  8
0
 10
312.211
 20
13.8956
 11
312.094
 21
14.2539
  0
LINE
  8
0
 10
312.094
 20
14.2539
 11
312.024
 21
14.624
  0
LINE
  8
0
 10
312.024
 20
14.624
 11
312
 21
15
  0
LINE
  8
0
 10
312
 20
15
 11
312.024
 21
15.376
  0
LINE
  8
0
 10
312.024
 20
15.376
 11
312.094
 21
15.7461
  0
LINE
  8
0
 10
312.094
 20
15.7461
 11
312.211
 21
16.1044
  0
LINE
  8
0
 10
312.211
 20
16.1044
 11
312.371
 21
16.4453
  0
LINE
  8
0
 10
312.371
 20
16.4453
 11
312.573
 21
16.7634
  0
LINE
  8
0
 10
312.573
 20
16.7634
 11
312.813
 21
17.0536
  0
LINE
  8
0
 10
312.813
 20
17.0536
 11
313.088
 21
17.3115
  0
LINE
  8
0
 10
313.088
 20
17.3115
 11
313.393
 21
17.533
  0
LINE
  8
0
 10
313.393
 20
17.533
 11
313.723
 21
17.7145
  0
LINE
  8
0
 10
313.723
 20
17.7145
 11
314.073
 21
17.8532
  0
LINE
  8
0
 10
314.073
 20
17.8532
 11
314.438
 21
17.9469
  0
LINE
  8
0
 10
314.438
 20
17.9469
 11
314.812
 21
17.9941
  0
LINE
  8
0
 10
314.812
 20
17.9941
 11
315.188
 21
17.9941
  0
LINE
  8
0
 10
315.188
 20
17.9941
 11
315.562
 21
17.9469
  0
LINE
  8
0
 10
315.562
 20
17.9469
 11
315.927
 21
17.8532
  0
LINE
  8
0
 10
315.927
 20
17.8532
 11
316.277
 21
17.7145
  0
LINE
  8
0
 10
316.277
 20
17.7145
 11
316.607
 21
17.533
  0
LINE
  8
0
 10
316.607
 20
17.533
 11
316.912
 21
17.3115
  0
LINE
  8
0
 10
316.912
 20
17.3115
 11
317.187
 21
17.0536
  0
LINE
  8
0
 10
317.187
 20
17.0536
 11
317.427
 21
16.7634
  0
LINE
  8
0
 10
317.427
 20
16.7634
 11
317.629
 21
16.4453
  0
LINE
  8
0
 10
317.629
 20
16.4453
 11
317.789
 21
16.1044
  0
LINE
  8
0
 10
317.789
 20
16.1044
 11
317.906
 21
15.7461
  0
LINE
  8
0
 10
317.906
 20
15.7461
 11
317.976
 21
15.376
  0
LINE
  8
0
 10
317.976
 20
15.376
 11
318
 21
15
  0
LINE
  8
0
 10
318
 20
15
 11
317.976
 21
14.624
  0
LINE
  8
0
 10
317.976
 20
14.624
 11
317.906
 21
14.2539
  0
LINE
  8
0
 10
317.906
 20
14.2539
 11
317.789
 21
13.8956
  0
LINE
  8
0
 10
317.789
 20
13.8956
 11
317.629
 21
13.5547
  0
LINE
  8
0
 10
317.629
 20
13.5547
 11
317.427
 21
13.2366
  0
LINE
  8
0
 10
317.427
 20
13.2366
 11
317.187
 21
12.9464
  0
LINE
  8
0
 10
317.187
 20
12.9464
 11
316.912
 21
12.6884
  0
LINE
  8
0
 10
316.912
 20
12.6884
 11
316.607
 21
12.467
  0
LINE
  8
0
 10
316.607
 20
12.467
 11
316.277
 21
12.2855
  0
LINE
  8
0
 10
316.277
 20
12.2855
 11
315.927
 21
12.1468
  0
LINE
  8
0
 10
315.927
 20
12.1468
 11
315.562
 21
12.0531
  0
LINE
  8
0
 10
315.562
 20
12.0531
 11
315.188
 21
12.0059
  0
LINE
  8
0
 10
315.188
 20
12.0059
 11
314.812
 21
12.0059
  0
LINE
  8
0
 10
-315.188
 20
12.0059
 11
-315.562
 21
12.0531
  0
LINE
  8
0
 10
-315.562
 20
12.0531
 11
-315.927
 21
12.1468
  0
LINE
  8
0
 10
-315.927
 20
12.1468
 11
-316.277
 21
12.2855
  0
LINE
  8
0
 10
-316.277
 20
12.2855
 11
-316.607
 21
12.467
  0
LINE
  8
0
 10
-316.607
 20
12.467
 11
-316.912
 21
12.6884
  0
LINE
  8
0
 10
-316.912
 20
12.6884
 11
-317.187
 21
12.9464
  0
LINE
  8
0
 10
-317.187
 20
12.9464
 11
-317.427
 21
13.2366
  0
LINE
  8
0
 10
-317.427
 20
13.2366
 11
-317.629
 21
13.5547
  0
LINE
  8
0
 10
-317.629
 20
13.5547
 11
-317.789
 21
13.8956
  0
LINE
  8
0
 10
-317.789
 20
13.8956
 11
-317.906
 21
14.2539
  0
LINE
  8
0
 10
-317.906
 20
14.2539
 11
-317.976
 21
14.624
  0
LINE
  8
0
 10
-317.976
 20
14.624
 11
-318
 21
15
  0
LINE
  8
0
 10
-318
 20
15
 11
-317.976
 21
15.376
  0
LINE
  8
0
 10
-317.976
 20
15.376
 11
-317.906
 21
15.7461
  0
LINE
  8
0
 10
-317.906
 20
15.7461
 11
-317.789
 21
16.1044
  0
LINE
  8
0
 10
-317.789
 20
16.1044
 11
-317.629
 21
16.4453
  0
LINE
  8
0
 10
-317.629
 20
16.4453
 11
-317.427
 21
16.7634
  0
LINE
  8
0
 10
-317.427
 20
16.7634
 11
-317.187
 21
17.0536
  0
LINE
  8
0
 10
-317.187
 20
17.0536
 11
-316.912
 21
17.3115
  0
LINE
  8
0
 10
-316.912
 20
17.3115
 11
-316.607
 21
17.533
  0
LINE
  8
0
 10
-316.607
 20
17.533
 11
-316.277
 21
17.7145
  0
LINE
  8
0
 10
-316.277
 20
17.7145
 11
-315.927
 21
17.8532
  0
LINE
  8
0
 10
-315.927
 20
17.8532
 11
-315.562
 21
17.9469
  0
LINE
  8
0
 10
-315.562
 20
17.9469
 11
-315.188
 21
17.9941
  0
LINE
  8
0
 10
-315.188
 20
17.9941
 11
-314.812
 21
17.9941
  0
LINE
  8
0
 10
-314.812
 20
17.9941
 11
-314.438
 21
17.9469
  0
LINE
  8
0
 10
-314.438
 20
17.9469
 11
-314.073
 21
17.8532
  0
LINE
  8
0
 10
-314.073
 20
17.8532
 11
-313.723
 21
17.7145
  0
LINE
  8
0
 10
-313.723
 20
17.7145
 11
-313.393
 21
17.533
  0
LINE
  8
0
 10
-313.393
 20
17.533
 11
-313.088
 21
17.3115
  0
LINE
  8
0
 10
-313.088
 20
17.3115
 11
-312.813
 21
17.0536
  0
LINE
  8
0
 10
-312.813
 20
17.0536
 11
-312.573
 21
16.7634
  0
LINE
  8
0
 10
-312.573
 20
16.7634
 11
-312.371
 21
16.4453
  0
LINE
  8
0
 10
-312.371
 20
16.4453
 11
-312.211
 21
16.1044
  0
LINE
  8
0
 10
-312.211
 20
16.1044
 11
-312.094
 21
15.7461
  0
LINE
  8
0
 10
-312.094
 20
15.7461
 11
-312.024
 21
15.376
  0
LINE
  8
0
 10
-312.024
 20
15.376
 11
-312
 21
15
  0
LINE
  8
0
 10
-312
 20
15
 11
-312.024
 21
14.624
  0
LINE
  8
0
 10
-312.024
 20
14.624
 11
-312.094
 21
14.2539
  0
LINE
  8
0
 10
-312.094
 20
14.2539
 11
-312.211
 21
13.8956
  0
LINE
  8
0
 10
-312.211
 20
13.8956
 11
-312.371
 21
13.5547
  0
LINE
  8
0
 10
-312.371
 20
13.5547
 11
-312.573
 21
13.2366
  0
LINE
  8
0
 10
-312.573
 20
13.2366
 11
-312.813
 21
12.9464
  0
LINE
  8
0
 10
-312.813
 20
12.9464
 11
-313.088
 21
12.6884
  0
LINE
  8
0
 10
-313.088
 20
12.6884
 11
-313.393
 21
12.467
  0
LINE
  8
0
 10
-313.393
 20
12.467
 11
-313.723
 21
12.2855
  0
LINE
  8
0
 10
-313.723
 20
12.2855
 11
-314.073
 21
12.1468
  0
LINE
  8
0
 10
-314.073
 20
12.1468
 11
-314.438
 21
12.0531
  0
LINE
  8
0
 10
-314.438
 20
12.0531
 11
-314.812
 21
12.0059
  0
LINE
  8
0
 10
-314.812
 20
12.0059
 11
-315.188
 21
12.0059
  0
LINE
  8
0
 10
314.906
 20
6.00294
 11
314.719
 21
6.02657
  0
LINE
  8
0
 10
314.719
 20
6.02657
 11
314.536
 21
6.07341
  0
LINE
  8
0
 10
314.536
 20
6.07341
 11
314.361
 21
6.14275
  0
LINE
  8
0
 10
314.361
 20
6.14275
 11
314.196
 21
6.23351
  0
LINE
  8
0
 10
314.196
 20
6.23351
 11
314.044
 21
6.34422
  0
LINE
  8
0
 10
314.044
 20
6.34422
 11
313.907
 21
6.47318
  0
LINE
  8
0
 10
313.907
 20
6.47318
 11
313.786
 21
6.61832
  0
LINE
  8
0
 10
313.786
 20
6.61832
 11
313.686
 21
6.77736
  0
LINE
  8
0
 10
313.686
 20
6.77736
 11
313.605
 21
6.9478
  0
LINE
  8
0
 10
313.605
 20
6.9478
 11
313.547
 21
7.12695
  0
LINE
  8
0
 10
313.547
 20
7.12695
 11
313.512
 21
7.312
  0
LINE
  8
0
 10
313.512
 20
7.312
 11
313.5
 21
7.5
  0
LINE
  8
0
 10
313.5
 20
7.5
 11
313.512
 21
7.68799
  0
LINE
  8
0
 10
313.512
 20
7.68799
 11
313.547
 21
7.87303
  0
LINE
  8
0
 10
313.547
 20
7.87303
 11
313.605
 21
8.05219
  0
LINE
  8
0
 10
313.605
 20
8.05219
 11
313.686
 21
8.22263
  0
LINE
  8
0
 10
313.686
 20
8.22263
 11
313.786
 21
8.38167
  0
LINE
  8
0
 10
313.786
 20
8.38167
 11
313.907
 21
8.52681
  0
LINE
  8
0
 10
313.907
 20
8.52681
 11
314.044
 21
8.65576
  0
LINE
  8
0
 10
314.044
 20
8.65576
 11
314.196
 21
8.76648
  0
LINE
  8
0
 10
314.196
 20
8.76648
 11
314.361
 21
8.85724
  0
LINE
  8
0
 10
314.361
 20
8.85724
 11
314.536
 21
8.92657
  0
LINE
  8
0
 10
314.536
 20
8.92657
 11
314.719
 21
8.97342
  0
LINE
  8
0
 10
314.719
 20
8.97342
 11
314.906
 21
8.99704
  0
LINE
  8
0
 10
314.906
 20
8.99704
 11
315.094
 21
8.99704
  0
LINE
  8
0
 10
315.094
 20
8.99704
 11
315.281
 21
8.97342
  0
LINE
  8
0
 10
315.281
 20
8.97342
 11
315.464
 21
8.92657
  0
LINE
  8
0
 10
315.464
 20
8.92657
 11
315.639
 21
8.85724
  0
LINE
  8
0
 10
315.639
 20
8.85724
 11
315.804
 21
8.76648
  0
LINE
  8
0
 10
315.804
 20
8.76648
 11
315.956
 21
8.65576
  0
LINE
  8
0
 10
315.956
 20
8.65576
 11
316.093
 21
8.52681
  0
LINE
  8
0
 10
316.093
 20
8.52681
 11
316.214
 21
8.38167
  0
LINE
  8
0
 10
316.214
 20
8.38167
 11
316.314
 21
8.22263
  0
LINE
  8
0
 10
316.314
 20
8.22263
 11
316.395
 21
8.05219
  0
LINE
  8
0
 10
316.395
 20
8.05219
 11
316.453
 21
7.87303
  0
LINE
  8
0
 10
316.453
 20
7.87303
 11
316.488
 21
7.68799
  0
LINE
  8
0
 10
316.488
 20
7.68799
 11
316.5
 21
7.5
  0
LINE
  8
0
 10
316.5
 20
7.5
 11
316.488
 21
7.312
  0
LINE
  8
0
 10
316.488
 20
7.312
 11
316.453
 21
7.12695
  0
LINE
  8
0
 10
316.453
 20
7.12695
 11
316.395
 21
6.9478
  0
LINE
  8
0
 10
316.395
 20
6.9478
 11
316.314
 21
6.77736
  0
LINE
  8
0
 10
316.314
 20
6.77736
 11
316.214
 21
6.61832
  0
LINE
  8
0
 10
316.214
 20
6.61832
 11
316.093
 21
6.47318
  0
LINE
  8
0
 10
316.093
 20
6.47318
 11
315.956
 21
6.34422
  0
LINE
  8
0
 10
315.956
 20
6.34422
 11
315.804
 21
6.23351
  0
LINE
  8
0
 10
315.804
 20
6.23351
 11
315.639
 21
6.14275
  0
LINE
  8
0
 10
315.639
 20
6.14275
 11
315.464
 21
6.07341
  0
LINE
  8
0
 10
315.464
 20
6.07341
 11
315.281
 21
6.02657
  0
LINE
  8
0
 10
315.281
 20
6.02657
 11
315.094
 21
6.00294
  0
LINE
  8
0
 10
315.094
 20
6.00294
 11
314.906
 21
6.00294
  0
LINE
  8
0
 10
-315.094
 20
6.00294
 11
-315.281
 21
6.02657
  0
LINE
  8
0
 10
-315.281
 20
6.02657
 11
-315.464
 21
6.07341
  0
LINE
  8
0
 10
-315.464
 20
6.07341
 11
-315.639
 21
6.14275
  0
LINE
  8
0
 10
-315.639
 20
6.14275
 11
-315.804
 21
6.23351
  0
LINE
  8
0
 10
-315.804
 20
6.23351
 11
-315.956
 21
6.34422
  0
LINE
  8
0
 10
-315.956
 20
6.34422
 11
-316.093
 21
6.47318
  0
LINE
  8
0
 10
-316.093
 20
6.47318
 11
-316.214
 21
6.61832
  0
LINE
  8
0
 10
-316.214
 20
6.61832
 11
-316.314
 21
6.77736
  0
LINE
  8
0
 10
-316.314
 20
6.77736
 11
-316.395
 21
6.9478
  0
LINE
  8
0
 10
-316.395
 20
6.9478
 11
-316.453
 21
7.12695
  0
LINE
  8
0
 10
-316.453
 20
7.12695
 11
-316.488
 21
7.312
  0
LINE
  8
0
 10
-316.488
 20
7.312
 11
-316.5
 21
7.5
  0
LINE
  8
0
 10
-316.5
 20
7.5
 11
-316.488
 21
7.68799
  0
LINE
  8
0
 10
-316.488
 20
7.68799
 11
-316.453
 21
7.87303
  0
LINE
  8
0
 10
-316.453
 20
7.87303
 11
-316.395
 21
8.05219
  0
LINE
  8
0
 10
-316.395
 20
8.05219
 11
-316.314
 21
8.22263
  0
LINE
  8
0
 10
-316.314
 20
8.22263
 11
-316.214
 21
8.38167
  0
LINE
  8
0
 10
-316.214
 20
8.38167
 11
-316.093
 21
8.52681
  0
LINE
  8
0
 10
-316.093
 20
8.52681
 11
-315.956
 21
8.65576
  0
LINE
  8
0
 10
-315.956
 20
8.65576
 11
-315.804
 21
8.76648
  0
LINE
  8
0
 10
-315.804
 20
8.76648
 11
-315.639
 21
8.85724
  0
LINE
  8
0
 10
-315.639
 20
8.85724
 11
-315.464
 21
8.92657
  0
LINE
  8
0
 10
-315.464
 20
8.92657
 11
-315.281
 21
8.97342
  0
LINE
  8
0
 10
-315.281
 20
8.97342
 11
-315.094
 21
8.99704
  0
LINE
  8
0
 10
-315.094
 20
8.99704
 11
-314.906
 21
8.99704
  0
LINE
  8
0
 10
-314.906
 20
8.99704
 11
-314.719
 21
8.97342
  0
LINE
  8
0
 10
-314.719
 20
8.97342
 11
-314.536
 21
8.92657
  0
LINE
  8
0
 10
-314.536
 20
8.92657
 11
-314.361
 21
8.85724
  0
LINE
  8
0
 10
-314.361
 20
8.85724
 11
-314.196
 21
8.76648
  0
LINE
  8
0
 10
-314.196
 20
8.76648
 11
-314.044
 21
8.65576
  0
LINE
  8
0
 10
-314.044
 20
8.65576
 11
-313.907
 21
8.52681
  0
LINE
  8
0
 10
-313.907
 20
8.52681
 11
-313.786
 21
8.38167
  0
LINE
  8
0
 10
-313.786
 20
8.38167
 11
-313.686
 21
8.22263
  0
LINE
  8
0
 10
-313.686
 20
8.22263
 11
-313.605
 21
8.05219
  0
LINE
  8
0
 10
-313.605
 20
8.05219
 11
-313.547
 21
7.87303
  0
LINE
  8
0
 10
-313.547
 20
7.87303
 11
-313.512
 21
7.68799
  0
LINE
  8
0
 10
-313.512
 20
7.68799
 11
-313.5
 21
7.5
  0
LINE
  8
0
 10
-313.5
 20
7.5
 11
-313.512
 21
7.312
  0
LINE
  8
0
 10
-313.512
 20
7.312
 11
-313.547
 21
7.12695
  0
LINE
  8
0
 10
-313.547
 20
7.12695
 11
-313.605
 21
6.9478
  0
LINE
  8
0
 10
-313.605
 20
6.9478
 11
-313.686
 21
6.77736
  0
LINE
  8
0
 10
-313.686
 20
6.77736
 11
-313.786
 21
6.61832
  0
LINE
  8
0
 10
-313.786
 20
6.61832
 11
-313.907
 21
6.47318
  0
LINE
  8
0
 10
-313.907
 20
6.47318
 11
-314.044
 21
6.34422
  0
LINE
  8
0
 10
-314.044
 20
6.34422
 11
-314.196
 21
6.23351
  0
LINE
  8
0
 10
-314.196
 20
6.23351
 11
-314.361
 21
6.14275
  0
LINE
  8
0
 10
-314.361
 20
6.14275
 11
-314.536
 21
6.07341
  0
LINE
  8
0
 10
-314.536
 20
6.07341
 11
-314.719
 21
6.02657
  0
LINE
  8
0
 10
-314.719
 20
6.02657
 11
-314.906
 21
6.00294
  0
LINE
  8
0
 10
-314.906
 20
6.00294
 11
-315.094
 21
6.00294
  0
LINE
  8
0
 10
314.812
 20
-2.99408
 11
314.438
 21
-2.94685
  0
LINE
  8
0
 10
314.438
 20
-2.94685
 11
314.073
 21
-2.85316
  0
LINE
  8
0
 10
314.073
 20
-2.85316
 11
313.723
 21
-2.71448
  0
LINE
  8
0
 10
313.723
 20
-2.71448
 11
313.393
 21
-2.53297
  0
LINE
  8
0
 10
313.393
 20
-2.53297
 11
313.088
 21
-2.31154
  0
LINE
  8
0
 10
313.088
 20
-2.31154
 11
312.813
 21
-2.05363
  0
LINE
  8
0
 10
312.813
 20
-2.05363
 11
312.573
 21
-1.76335
  0
LINE
  8
0
 10
312.573
 20
-1.76335
 11
312.371
 21
-1.44525
  0
LINE
  8
0
 10
312.371
 20
-1.44525
 11
312.211
 21
-1.10437
  0
LINE
  8
0
 10
312.211
 20
-1.10437
 11
312.094
 21
-0.746063
  0
LINE
  8
0
 10
312.094
 20
-0.746063
 11
312.024
 21
-0.375992
  0
LINE
  8
0
 10
312.024
 20
-0.375992
 11
312
 21
0
  0
LINE
  8
0
 10
312
 20
0
 11
312.024
 21
0.375992
  0
LINE
  8
0
 10
312.024
 20
0.375992
 11
312.094
 21
0.746063
  0
LINE
  8
0
 10
312.094
 20
0.746063
 11
312.211
 21
1.10437
  0
LINE
  8
0
 10
312.211
 20
1.10437
 11
312.371
 21
1.44525
  0
LINE
  8
0
 10
312.371
 20
1.44525
 11
312.573
 21
1.76335
  0
LINE
  8
0
 10
312.573
 20
1.76335
 11
312.813
 21
2.05363
  0
LINE
  8
0
 10
312.813
 20
2.05363
 11
313.088
 21
2.31154
  0
LINE
  8
0
 10
313.088
 20
2.31154
 11
313.393
 21
2.53297
  0
LINE
  8
0
 10
313.393
 20
2.53297
 11
313.723
 21
2.71448
  0
LINE
  8
0
 10
313.723
 20
2.71448
 11
314.073
 21
2.85316
  0
LINE
  8
0
 10
314.073
 20
2.85316
 11
314.438
 21
2.94685
  0
LINE
  8
0
 10
314.438
 20
2.94685
 11
314.812
 21
2.99408
  0
LINE
  8
0
 10
314.812
 20
2.99408
 11
315.188
 21
2.99408
  0
LINE
  8
0
 10
315.188
 20
2.99408
 11
315.562
 21
2.94685
  0
LINE
  8
0
 10
315.562
 20
2.94685
 11
315.927
 21
2.85316
  0
LINE
  8
0
 10
315.927
 20
2.85316
 11
316.277
 21
2.71448
  0
LINE
  8
0
 10
316.277
 20
2.71448
 11
316.607
 21
2.53297
  0
LINE
  8
0
 10
316.607
 20
2.53297
 11
316.912
 21
2.31154
  0
LINE
  8
0
 10
316.912
 20
2.31154
 11
317.187
 21
2.05363
  0
LINE
  8
0
 10
317.187
 20
2.05363
 11
317.427
 21
1.76335
  0
LINE
  8
0
 10
317.427
 20
1.76335
 11
317.629
 21
1.44525
  0
LINE
  8
0
 10
317.629
 20
1.44525
 11
317.789
 21
1.10437
  0
LINE
  8
0
 10
317.789
 20
1.10437
 11
317.906
 21
0.746063
  0
LINE
  8
0
 10
317.906
 20
0.746063
 11
317.976
 21
0.375992
  0
LINE
  8
0
 10
317.976
 20
0.375992
 11
318
 21
0
  0
LINE
  8
0
 10
318
 20
0
 11
317.976
 21
-0.375992
  0
LINE
  8
0
 10
317.976
 20
-0.375992
 11
317.906
 21
-0.746063
  0
LINE
  8
0
 10
317.906
 20
-0.746063
 11
317.789
 21
-1.10437
  0
LINE
  8
0
 10
317.789
 20
-1.10437
 11
317.629
 21
-1.44525
  0
LINE
  8
0
 10
317.629
 20
-1.44525
 11
317.427
 21
-1.76335
  0
LINE
  8
0
 10
317.427
 20
-1.76335
 11
317.187
 21
-2.05363
  0
LINE
  8
0
 10
317.187
 20
-2.05363
 11
316.912
 21
-2.31154
  0
LINE
  8
0
 10
316.912
 20
-2.31154
 11
316.607
 21
-2.53297
  0
LINE
  8
0
 10
316.607
 20
-2.53297
 11
316.277
 21
-2.71448
  0
LINE
  8
0
 10
316.277
 20
-2.71448
 11
315.927
 21
-2.85316
  0
LINE
  8
0
 10
315.927
 20
-2.85316
 11
315.562
 21
-2.94685
  0
LINE
  8
0
 10
315.562
 20
-2.94685
 11
315.188
 21
-2.99408
  0
LINE
  8
0
 10
315.188
 20
-2.99408
 11
314.812
 21
-2.99408
  0
LINE
  8
0
 10
-315.188
 20
-2.99408
 11
-315.562
 21
-2.94685
  0
LINE
  8
0
 10
-315.562
 20
-2.94685
 11
-315.927
 21
-2.85316
  0
LINE
  8
0
 10
-315.927
 20
-2.85316
 11
-316.277
 21
-2.71448
  0
LINE
  8
0
 10
-316.277
 20
-2.71448
 11
-316.607
 21
-2.53297
  0
LINE
  8
0
 10
-316.607
 20
-2.53297
 11
-316.912
 21
-2.31154
  0
LINE
  8
0
 10
-316.912
 20
-2.31154
 11
-317.187
 21
-2.05363
  0
LINE
  8
0
 10
-317.187
 20
-2.05363
 11
-317.427
 21
-1.76335
  0
LINE
  8
0
 10
-317.427
 20
-1.76335
 11
-317.629
 21
-1.44525
  0
LINE
  8
0
 10
-317.629
 20
-1.44525
 11
-317.789
 21
-1.10437
  0
LINE
  8
0
 10
-317.789
 20
-1.10437
 11
-317.906
 21
-0.746063
  0
LINE
  8
0
 10
-317.906
 20
-0.746063
 11
-317.976
 21
-0.375992
  0
LINE
  8
0
 10
-317.976
 20
-0.375992
 11
-318
 21
0
  0
LINE
  8
0
 10
-318
 20
0
 11
-317.976
 21
0.375992
  0
LINE
  8
0
 10
-317.976
 20
0.375992
 11
-317.906
 21
0.746063
  0
LINE
  8
0
 10
-317.906
 20
0.746063
 11
-317.789
 21
1.10437
  0
LINE
  8
0
 10
-317.789
 20
1.10437
 11
-317.629
 21
1.44525
  0
LINE
  8
0
 10
-317.629
 20
1.44525
 11
-317.427
 21
1.76335
  0
LINE
  8
0
 10
-317.427
 20
1.76335
 11
-317.187
 21
2.05363
  0
LINE
  8
0
 10
-317.187
 20
2.05363
 11
-316.912
 21
2.31154
  0
LINE
  8
0
 10
-316.912
 20
2.31154
 11
-316.607
 21
2.53297
  0
LINE
  8
0
 10
-316.607
 20
2.53297
 11
-316.277
 21
2.71448
  0
LINE
  8
0
 10
-316.277
 20
2.71448
 11
-315.927
 21
2.85316
  0
LINE
  8
0
 10
-315.927
 20
2.85316
 11
-315.562
 21
2.94685
  0
LINE
  8
0
 10
-315.562
 20
2.94685
 11
-315.188
 21
2.99408
  0
LINE
  8
0
 10
-315.188
 20
2.99408
 11
-314.812
 21
2.99408
  0
LINE
  8
0
 10
-314.812
 20
2.99408
 11
-314.438
 21
2.94685
  0
LINE
  8
0
 10
-314.438
 20
2.94685
 11
-314.073
 21
2.85316
  0
LINE
  8
0
 10
-314.073
 20
2.85316
 11
-313.723
 21
2.71448
  0
LINE
  8
0
 10
-313.723
 20
2.71448
 11
-313.393
 21
2.53297
  0
LINE
  8
0
 10
-313.393
 20
2.53297
 11
-313.088
 21
2.31154
  0
LINE
  8
0
 10
-313.088
 20
2.31154
 11
-312.813
 21
2.05363
  0
LINE
  8
0
 10
-312.813
 20
2.05363
 11
-312.573
 21
1.76335
  0
LINE
  8
0
 10
-312.573
 20
1.76335
 11
-312.371
 21
1.44525
  0
LINE
  8
0
 10
-312.371
 20
1.44525
 11
-312.211
 21
1.10437
  0
LINE
  8
0
 10
-312.211
 20
1.10437
 11
-312.094
 21
0.746063
  0
LINE
  8
0
 10
-312.094
 20
0.746063
 11
-312.024
 21
0.375992
  0
LINE
  8
0
 10
-312.024
 20
0.375992
 11
-312
 21
0
  0
LINE
  8
0
 10
-312
 20
0
 11
-312.024
 21
-0.375992
  0
LINE
  8
0
 10
-312.024
 20
-0.375992
 11
-312.094
 21
-0.746063
  0
LINE
  8
0
 10
-312.094
 20
-0.746063
 11
-312.211
 21
-1.10437
  0
LINE
  8
0
 10
-312.211
 20
-1.10437
 11
-312.371
 21
-1.44525
  0
LINE
  8
0
 10
-312.371
 20
-1.44525
 11
-312.573
 21
-1.76335
  0
LINE
  8
0
 10
-312.573
 20
-1.76335
 11
-312.813
 21
-2.05363
  0
LINE
  8
0
 10
-312.813
 20
-2.05363
 11
-313.088
 21
-2.31154
  0
LINE
  8
0
 10
-313.088
 20
-2.31154
 11
-313.393
 21
-2.53297
  0
LINE
  8
0
 10
-313.393
 20
-2.53297
 11
-313.723
 21
-2.71448
  0
LINE
  8
0
 10
-313.723
 20
-2.71448
 11
-314.073
 21
-2.85316
  0
LINE
  8
0
 10
-314.073
 20
-2.85316
 11
-314.438
 21
-2.94685
  0
LINE
  8
0
 10
-314.438
 20
-2.94685
 11
-314.812
 21
-2.99408
  0
LINE
  8
0
 10
-314.812
 20
-2.99408
 11
-315.188
 21
-2.99408
  0
LINE
  8
0
 10
-315.094
 20
-8.99704
 11
-315.281
 21
-8.97342
  0
LINE
  8
0
 10
-315.281
 20
-8.97342
 11
-315.464
 21
-8.92657
  0
LINE
  8
0
 10
-315.464
 20
-8.92657
 11
-315.639
 21
-8.85724
  0
LINE
  8
0
 10
-315.639
 20
-8.85724
 11
-315.804
 21
-8.76648
  0
LINE
  8
0
 10
-315.804
 20
-8.76648
 11
-315.956
 21
-8.65576
  0
LINE
  8
0
 10
-315.956
 20
-8.65576
 11
-316.093
 21
-8.52681
  0
LINE
  8
0
 10
-316.093
 20
-8.52681
 11
-316.214
 21
-8.38167
  0
LINE
  8
0
 10
-316.214
 20
-8.38167
 11
-316.314
 21
-8.22263
  0
LINE
  8
0
 10
-316.314
 20
-8.22263
 11
-316.395
 21
-8.05219
  0
LINE
  8
0
 10
-316.395
 20
-8.05219
 11
-316.453
 21
-7.87303
  0
LINE
  8
0
 10
-316.453
 20
-7.87303
 11
-316.488
 21
-7.68799
  0
LINE
  8
0
 10
-316.488
 20
-7.68799
 11
-316.5
 21
-7.5
  0
LINE
  8
0
 10
-316.5
 20
-7.5
 11
-316.488
 21
-7.312
  0
LINE
  8
0
 10
-316.488
 20
-7.312
 11
-316.453
 21
-7.12695
  0
LINE
  8
0
 10
-316.453
 20
-7.12695
 11
-316.395
 21
-6.9478
  0
LINE
  8
0
 10
-316.395
 20
-6.9478
 11
-316.314
 21
-6.77736
  0
LINE
  8
0
 10
-316.314
 20
-6.77736
 11
-316.214
 21
-6.61832
  0
LINE
  8
0
 10
-316.214
 20
-6.61832
 11
-316.093
 21
-6.47318
  0
LINE
  8
0
 10
-316.093
 20
-6.47318
 11
-315.956
 21
-6.34422
  0
LINE
  8
0
 10
-315.956
 20
-6.34422
 11
-315.804
 21
-6.23351
  0
LINE
  8
0
 10
-315.804
 20
-6.23351
 11
-315.639
 21
-6.14275
  0
LINE
  8
0
 10
-315.639
 20
-6.14275
 11
-315.464
 21
-6.07341
  0
LINE
  8
0
 10
-315.464
 20
-6.07341
 11
-315.281
 21
-6.02657
  0
LINE
  8
0
 10
-315.281
 20
-6.02657
 11
-315.094
 21
-6.00294
  0
LINE
  8
0
 10
-315.094
 20
-6.00294
 11
-314.906
 21
-6.00294
  0
LINE
  8
0
 10
-314.906
 20
-6.00294
 11
-314.719
 21
-6.02657
  0
LINE
  8
0
 10
-314.719
 20
-6.02657
 11
-314.536
 21
-6.07341
  0
LINE
  8
0
 10
-314.536
 20
-6.07341
 11
-314.361
 21
-6.14275
  0
LINE
  8
0
 10
-314.361
 20
-6.14275
 11
-314.196
 21
-6.23351
  0
LINE
  8
0
 10
-314.196
 20
-6.23351
 11
-314.044
 21
-6.34422
  0
LINE
  8
0
 10
-314.044
 20
-6.34422
 11
-313.907
 21
-6.47318
  0
LINE
  8
0
 10
-313.907
 20
-6.47318
 11
-313.786
 21
-6.61832
  0
LINE
  8
0
 10
-313.786
 20
-6.61832
 11
-313.686
 21
-6.77736
  0
LINE
  8
0
 10
-313.686
 20
-6.77736
 11
-313.605
 21
-6.9478
  0
LINE
  8
0
 10
-313.605
 20
-6.9478
 11
-313.547
 21
-7.12695
  0
LINE
  8
0
 10
-313.547
 20
-7.12695
 11
-313.512
 21
-7.312
  0
LINE
  8
0
 10
-313.512
 20
-7.312
 11
-313.5
 21
-7.5
  0
LINE
  8
0
 10
-313.5
 20
-7.5
 11
-313.512
 21
-7.68799
  0
LINE
  8
0
 10
-313.512
 20
-7.68799
 11
-313.547
 21
-7.87303
  0
LINE
  8
0
 10
-313.547
 20
-7.87303
 11
-313.605
 21
-8.05219
  0
LINE
  8
0
 10
-313.605
 20
-8.05219
 11
-313.686
 21
-8.22263
  0
LINE
  8
0
 10
-313.686
 20
-8.22263
 11
-313.786
 21
-8.38167
  0
LINE
  8
0
 10
-313.786
 20
-8.38167
 11
-313.907
 21
-8.52681
  0
LINE
  8
0
 10
-313.907
 20
-8.52681
 11
-314.044
 21
-8.65576
  0
LINE
  8
0
 10
-314.044
 20
-8.65576
 11
-314.196
 21
-8.76648
  0
LINE
  8
0
 10
-314.196
 20
-8.76648
 11
-314.361
 21
-8.85724
  0
LINE
  8
0
 10
-314.361
 20
-8.85724
 11
-314.536
 21
-8.92657
  0
LINE
  8
0
 10
-314.536
 20
-8.92657
 11
-314.719
 21
-8.97342
  0
LINE
  8
0
 10
-314.719
 20
-8.97342
 11
-314.906
 21
-8.99704
  0
LINE
  8
0
 10
-314.906
 20
-8.99704
 11
-315.094
 21
-8.99704
  0
LINE
  8
0
 10
314.906
 20
-8.99704
 11
314.719
 21
-8.97342
  0
LINE
  8
0
 10
314.719
 20
-8.97342
 11
314.536
 21
-8.92657
  0
LINE
  8
0
 10
314.536
 20
-8.92657
 11
314.361
 21
-8.85724
  0
LINE
  8
0
 10
314.361
 20
-8.85724
 11
314.196
 21
-8.76648
  0
LINE
  8
0
 10
314.196
 20
-8.76648
 11
314.044
 21
-8.65576
  0
LINE
  8
0
 10
314.044
 20
-8.65576
 11
313.907
 21
-8.52681
  0
LINE
  8
0
 10
313.907
 20
-8.52681
 11
313.786
 21
-8.38167
  0
LINE
  8
0
 10
313.786
 20
-8.38167
 11
313.686
 21
-8.22263
  0
LINE
  8
0
 10
313.686
 20
-8.22263
 11
313.605
 21
-8.05219
  0
LINE
  8
0
 10
313.605
 20
-8.05219
 11
313.547
 21
-7.87303
  0
LINE
  8
0
 10
313.547
 20
-7.87303
 11
313.512
 21
-7.68799
  0
LINE
  8
0
 10
313.512
 20
-7.68799
 11
313.5
 21
-7.5
  0
LINE
  8
0
 10
313.5
 20
-7.5
 11
313.512
 21
-7.312
  0
LINE
  8
0
 10
313.512
 20
-7.312
 11
313.547
 21
-7.12695
  0
LINE
  8
0
 10
313.547
 20
-7.12695
 11
313.605
 21
-6.9478
  0
LINE
  8
0
 10
313.605
 20
-6.9478
 11
313.686
 21
-6.77736
  0
LINE
  8
0
 10
313.686
 20
-6.77736
 11
313.786
 21
-6.61832
  0
LINE
  8
0
 10
313.786
 20
-6.61832
 11
313.907
 21
-6.47318
  0
LINE
  8
0
 10
313.907
 20
-6.47318
 11
314.044
 21
-6.34422
  0
LINE
  8
0
 10
314.044
 20
-6.34422
 11
314.196
 21
-6.23351
  0
LINE
  8
0
 10
314.196
 20
-6.23351
 11
314.361
 21
-6.14275
  0
LINE
  8
0
 10
314.361
 20
-6.14275
 11
314.536
 21
-6.07341
  0
LINE
  8
0
 10
314.536
 20
-6.07341
 11
314.719
 21
-6.02657
  0
LINE
  8
0
 10
314.719
 20
-6.02657
 11
314.906
 21
-6.00294
  0
LINE
  8
0
 10
314.906
 20
-6.00294
 11
315.094
 21
-6.00294
  0
LINE
  8
0
 10
315.094
 20
-6.00294
 11
315.281
 21
-6.02657
  0
LINE
  8
0
 10
315.281
 20
-6.02657
 11
315.464
 21
-6.07341
  0
LINE
  8
0
 10
315.464
 20
-6.07341
 11
315.639
 21
-6.14275
  0
LINE
  8
0
 10
315.639
 20
-6.14275
 11
315.804
 21
-6.23351
  0
LINE
  8
0
 10
315.804
 20
-6.23351
 11
315.956
 21
-6.34422
  0
LINE
  8
0
 10
315.956
 20
-6.34422
 11
316.093
 21
-6.47318
  0
LINE
  8
0
 10
316.093
 20
-6.47318
 11
316.214
 21
-6.61832
  0
LINE
  8
0
 10
316.214
 20
-6.61832
 11
316.314
 21
-6.77736
  0
LINE
  8
0
 10
316.314
 20
-6.77736
 11
316.395
 21
-6.9478
  0
LINE
  8
0
 10
316.395
 20
-6.9478
 11
316.453
 21
-7.12695
  0
LINE
  8
0
 10
316.453
 20
-7.12695
 11
316.488
 21
-7.312
  0
LINE
  8
0
 10
316.488
 20
-7.312
 11
316.5
 21
-7.5
  0
LINE
  8
0
 10
316.5
 20
-7.5
 11
316.488
 21
-7.68799
  0
LINE
  8
0
 10
316.488
 20
-7.68799
 11
316.453
 21
-7.87303
  0
LINE
  8
0
 10
316.453
 20
-7.87303
 11
316.395
 21
-8.05219
  0
LINE
  8
0
 10
316.395
 20
-8.05219
 11
316.314
 21
-8.22263
  0
LINE
  8
0
 10
316.314
 20
-8.22263
 11
316.214
 21
-8.38167
  0
LINE
  8
0
 10
316.214
 20
-8.38167
 11
316.093
 21
-8.52681
  0
LINE
  8
0
 10
316.093
 20
-8.52681
 11
315.956
 21
-8.65576
  0
LINE
  8
0
 10
315.956
 20
-8.65576
 11
315.804
 21
-8.76648
  0
LINE
  8
0
 10
315.804
 20
-8.76648
 11
315.639
 21
-8.85724
  0
LINE
  8
0
 10
315.639
 20
-8.85724
 11
315.464
 21
-8.92657
  0
LINE
  8
0
 10
315.464
 20
-8.92657
 11
315.281
 21
-8.97342
  0
LINE
  8
0
 10
315.281
 20
-8.97342
 11
315.094
 21
-8.99704
  0
LINE
  8
0
 10
315.094
 20
-8.99704
 11
314.906
 21
-8.99704
  0
LINE
  8
0
 10
314.812
 20
-17.9941
 11
314.438
 21
-17.9469
  0
LINE
  8
0
 10
314.438
 20
-17.9469
 11
314.073
 21
-17.8532
  0
LINE
  8
0
 10
314.073
 20
-17.8532
 11
313.723
 21
-17.7145
  0
LINE
  8
0
 10
313.723
 20
-17.7145
 11
313.393
 21
-17.533
  0
LINE
  8
0
 10
313.393
 20
-17.533
 11
313.088
 21
-17.3115
  0
LINE
  8
0
 10
313.088
 20
-17.3115
 11
312.813
 21
-17.0536
  0
LINE
  8
0
 10
312.813
 20
-17.0536
 11
312.573
 21
-16.7634
  0
LINE
  8
0
 10
312.573
 20
-16.7634
 11
312.371
 21
-16.4453
  0
LINE
  8
0
 10
312.371
 20
-16.4453
 11
312.211
 21
-16.1044
  0
LINE
  8
0
 10
312.211
 20
-16.1044
 11
312.094
 21
-15.7461
  0
LINE
  8
0
 10
312.094
 20
-15.7461
 11
312.024
 21
-15.376
  0
LINE
  8
0
 10
312.024
 20
-15.376
 11
312
 21
-15
  0
LINE
  8
0
 10
312
 20
-15
 11
312.024
 21
-14.624
  0
LINE
  8
0
 10
312.024
 20
-14.624
 11
312.094
 21
-14.2539
  0
LINE
  8
0
 10
312.094
 20
-14.2539
 11
312.211
 21
-13.8956
  0
LINE
  8
0
 10
312.211
 20
-13.8956
 11
312.371
 21
-13.5547
  0
LINE
  8
0
 10
312.371
 20
-13.5547
 11
312.573
 21
-13.2366
  0
LINE
  8
0
 10
312.573
 20
-13.2366
 11
312.813
 21
-12.9464
  0
LINE
  8
0
 10
312.813
 20
-12.9464
 11
313.088
 21
-12.6884
  0
LINE
  8
0
 10
313.088
 20
-12.6884
 11
313.393
 21
-12.467
  0
LINE
  8
0
 10
313.393
 20
-12.467
 11
313.723
 21
-12.2855
  0
LINE
  8
0
 10
313.723
 20
-12.2855
 11
314.073
 21
-12.1468
  0
LINE
  8
0
 10
314.073
 20
-12.1468
 11
314.438
 21
-12.0531
  0
LINE
  8
0
 10
314.438
 20
-12.0531
 11
314.812
 21
-12.0059
  0
LINE
  8
0
 10
314.812
 20
-12.0059
 11
315.188
 21
-12.0059
  0
LINE
  8
0
 10
315.188
 20
-12.0059
 11
315.562
 21
-12.0531
  0
LINE
  8
0
 10
315.562
 20
-12.0531
 11
315.927
 21
-12.1468
  0
LINE
  8
0
 10
315.927
 20
-12.1468
 11
316.277
 21
-12.2855
  0
LINE
  8
0
 10
316.277
 20
-12.2855
 11
316.607
 21
-12.467
  0
LINE
  8
0
 10
316.607
 20
-12.467
 11
316.912
 21
-12.6884
  0
LINE
  8
0
 10
316.912
 20
-12.6884
 11
317.187
 21
-12.9464
  0
LINE
  8
0
 10
317.187
 20
-12.9464
 11
317.427
 21
-13.2366
  0
LINE
  8
0
 10
317.427
 20
-13.2366
 11
317.629
 21
-13.5547
  0
LINE
  8
0
 10
317.629
 20
-13.5547
 11
317.789
 21
-13.8956
  0
LINE
  8
0
 10
317.789
 20
-13.8956
 11
317.906
 21
-14.2539
  0
LINE
  8
0
 10
317.906
 20
-14.2539
 11
317.976
 21
-14.624
  0
LINE
  8
0
 10
317.976
 20
-14.624
 11
318
 21
-15
  0
LINE
  8
0
 10
318
 20
-15
 11
317.976
 21
-15.376
  0
LINE
  8
0
 10
317.976
 20
-15.376
 11
317.906
 21
-15.7461
  0
LINE
  8
0
 10
317.906
 20
-15.7461
 11
317.789
 21
-16.1044
  0
LINE
  8
0
 10
317.789
 20
-16.1044
 11
317.629
 21
-16.4453
  0
LINE
  8
0
 10
317.629
 20
-16.4453
 11
317.427
 21
-16.7634
  0
LINE
  8
0
 10
317.427
 20
-16.7634
 11
317.187
 21
-17.0536
  0
LINE
  8
0
 10
317.187
 20
-17.0536
 11
316.912
 21
-17.3115
  0
LINE
  8
0
 10
316.912
 20
-17.3115
 11
316.607
 21
-17.533
  0
LINE
  8
0
 10
316.607
 20
-17.533
 11
316.277
 21
-17.7145
  0
LINE
  8
0
 10
316.277
 20
-17.7145
 11
315.927
 21
-17.8532
  0
LINE
  8
0
 10
315.927
 20
-17.8532
 11
315.562
 21
-17.9469
  0
LINE
  8
0
 10
315.562
 20
-17.9469
 11
315.188
 21
-17.9941
  0
LINE
  8
0
 10
315.188
 20
-17.9941
 11
314.812
 21
-17.9941
  0
LINE
  8
0
 10
-315.188
 20
-17.9941
 11
-315.562
 21
-17.9469
  0
LINE
  8
0
 10
-315.562
 20
-17.9469
 11
-315.927
 21
-17.8532
  0
LINE
  8
0
 10
-315.927
 20
-17.8532
 11
-316.277
 21
-17.7145
  0
LINE
  8
0
 10
-316.277
 20
-17.7145
 11
-316.607
 21
-17.533
  0
LINE
  8
0
 10
-316.607
 20
-17.533
 11
-316.912
 21
-17.3115
  0
LINE
  8
0
 10
-316.912
 20
-17.3115
 11
-317.187
 21
-17.0536
  0
LINE
  8
0
 10
-317.187
 20
-17.0536
 11
-317.427
 21
-16.7634
  0
LINE
  8
0
 10
-317.427
 20
-16.7634
 11
-317.629
 21
-16.4453
  0
LINE
  8
0
 10
-317.629
 20
-16.4453
 11
-317.789
 21
-16.1044
  0
LINE
  8
0
 10
-317.789
 20
-16.1044
 11
-317.906
 21
-15.7461
  0
LINE
  8
0
 10
-317.906
 20
-15.7461
 11
-317.976
 21
-15.376
  0
LINE
  8
0
 10
-317.976
 20
-15.376
 11
-318
 21
-15
  0
LINE
  8
0
 10
-318
 20
-15
 11
-317.976
 21
-14.624
  0
LINE
  8
0
 10
-317.976
 20
-14.624
 11
-317.906
 21
-14.2539
  0
LINE
  8
0
 10
-317.906
 20
-14.2539
 11
-317.789
 21
-13.8956
  0
LINE
  8
0
 10
-317.789
 20
-13.8956
 11
-317.629
 21
-13.5547
  0
LINE
  8
0
 10
-317.629
 20
-13.5547
 11
-317.427
 21
-13.2366
  0
LINE
  8
0
 10
-317.427
 20
-13.2366
 11
-317.187
 21
-12.9464
  0
LINE
  8
0
 10
-317.187
 20
-12.9464
 11
-316.912
 21
-12.6884
  0
LINE
  8
0
 10
-316.912
 20
-12.6884
 11
-316.607
 21
-12.467
  0
LINE
  8
0
 10
-316.607
 20
-12.467
 11
-316.277
 21
-12.2855
  0
LINE
  8
0
 10
-316.277
 20
-12.2855
 11
-315.927
 21
-12.1468
  0
LINE
  8
0
 10
-315.927
 20
-12.1468
 11
-315.562
 21
-12.0531
  0
LINE
  8
0
 10
-315.562
 20
-12.0531
 11
-315.188
 21
-12.0059
  0
LINE
  8
0
 10
-315.188
 20
-12.0059
 11
-314.812
 21
-12.0059
  0
LINE
  8
0
 10
-314.812
 20
-12.0059
 11
-314.438
 21
-12.0531
  0
LINE
  8
0
 10
-314.438
 20
-12.0531
 11
-314.073
 21
-12.1468
  0
LINE
  8
0
 10
-314.073
 20
-12.1468
 11
-313.723
 21
-12.2855
  0
LINE
  8
0
 10
-313.723
 20
-12.2855
 11
-313.393
 21
-12.467
  0
LINE
  8
0
 10
-313.393
 20
-12.467
 11
-313.088
 21
-12.6884
  0
LINE
  8
0
 10
-313.088
 20
-12.6884
 11
-312.813
 21
-12.9464
  0
LINE
  8
0
 10
-312.813
 20
-12.9464
 11
-312.573
 21
-13.2366
  0
LINE
  8
0
 10
-312.573
 20
-13.2366
 11
-312.371
 21
-13.5547
  0
LINE
  8
0
 10
-312.371
 20
-13.5547
 11
-312.211
 21
-13.8956
  0
LINE
  8
0
 10
-312.211
 20
-13.8956
 11
-312.094
 21
-14.2539
  0
LINE
  8
0
 10
-312.094
 20
-14.2539
 11
-312.024
 21
-14.624
  0
LINE
  8
0
 10
-312.024
 20
-14.624
 11
-312
 21
-15
  0
LINE
  8
0
 10
-312
 20
-15
 11
-312.024
 21
-15.376
  0
LINE
  8
0
 10
-312.024
 20
-15.376
 11
-312.094
 21
-15.7461
  0
LINE
  8
0
 10
-312.094
 20
-15.7461
 11
-312.211
 21
-16.1044
  0
LINE
  8
0
 10
-312.211
 20
-16.1044
 11
-312.371
 21
-16.4453
  0
LINE
  8
0
 10
-312.371
 20
-16.4453
 11
-312.573
 21
-16.7634
  0
LINE
  8
0
 10
-312.573
 20
-16.7634
 11
-312.813
 21
-17.0536
  0
LINE
  8
0
 10
-312.813
 20
-17.0536
 11
-313.088
 21
-17.3115
  0
LINE
  8
0
 10
-313.088
 20
-17.3115
 11
-313.393
 21
-17.533
  0
LINE
  8
0
 10
-313.393
 20
-17.533
 11
-313.723
 21
-17.7145
  0
LINE
  8
0
 10
-313.723
 20
-17.7145
 11
-314.073
 21
-17.8532
  0
LINE
  8
0
 10
-314.073
 20
-17.8532
 11
-314.438
 21
-17.9469
  0
LINE
  8
0
 10
-314.438
 20
-17.9469
 11
-314.812
 21
-17.9941
  0
LINE
  8
0
 10
-314.812
 20
-17.9941
 11
-315.188
 21
-17.9941
  0
LINE
  8
0
 10
-315.094
 20
-23.997
 11
-315.281
 21
-23.9734
  0
LINE
  8
0
 10
-315.281
 20
-23.9734
 11
-315.464
 21
-23.9266
  0
LINE
  8
0
 10
-315.464
 20
-23.9266
 11
-315.639
 21
-23.8572
  0
LINE
  8
0
 10
-315.639
 20
-23.8572
 11
-315.804
 21
-23.7665
  0
LINE
  8
0
 10
-315.804
 20
-23.7665
 11
-315.956
 21
-23.6558
  0
LINE
  8
0
 10
-315.956
 20
-23.6558
 11
-316.093
 21
-23.5268
  0
LINE
  8
0
 10
-316.093
 20
-23.5268
 11
-316.214
 21
-23.3817
  0
LINE
  8
0
 10
-316.214
 20
-23.3817
 11
-316.314
 21
-23.2226
  0
LINE
  8
0
 10
-316.314
 20
-23.2226
 11
-316.395
 21
-23.0522
  0
LINE
  8
0
 10
-316.395
 20
-23.0522
 11
-316.453
 21
-22.873
  0
LINE
  8
0
 10
-316.453
 20
-22.873
 11
-316.488
 21
-22.688
  0
LINE
  8
0
 10
-316.488
 20
-22.688
 11
-316.5
 21
-22.5
  0
LINE
  8
0
 10
-316.5
 20
-22.5
 11
-316.488
 21
-22.312
  0
LINE
  8
0
 10
-316.488
 20
-22.312
 11
-316.453
 21
-22.127
  0
LINE
  8
0
 10
-316.453
 20
-22.127
 11
-316.395
 21
-21.9478
  0
LINE
  8
0
 10
-316.395
 20
-21.9478
 11
-316.314
 21
-21.7774
  0
LINE
  8
0
 10
-316.314
 20
-21.7774
 11
-316.214
 21
-21.6183
  0
LINE
  8
0
 10
-316.214
 20
-21.6183
 11
-316.093
 21
-21.4732
  0
LINE
  8
0
 10
-316.093
 20
-21.4732
 11
-315.956
 21
-21.3442
  0
LINE
  8
0
 10
-315.956
 20
-21.3442
 11
-315.804
 21
-21.2335
  0
LINE
  8
0
 10
-315.804
 20
-21.2335
 11
-315.639
 21
-21.1427
  0
LINE
  8
0
 10
-315.639
 20
-21.1427
 11
-315.464
 21
-21.0734
  0
LINE
  8
0
 10
-315.464
 20
-21.0734
 11
-315.281
 21
-21.0266
  0
LINE
  8
0
 10
-315.281
 20
-21.0266
 11
-315.094
 21
-21.003
  0
LINE
  8
0
 10
-315.094
 20
-21.003
 11
-314.906
 21
-21.003
  0
LINE
  8
0
 10
-314.906
 20
-21.003
 11
-314.719
 21
-21.0266
  0
LINE
  8
0
 10
-314.719
 20
-21.0266
 11
-314.536
 21
-21.0734
  0
LINE
  8
0
 10
-314.536
 20
-21.0734
 11
-314.361
 21
-21.1427
  0
LINE
  8
0
 10
-314.361
 20
-21.1427
 11
-314.196
 21
-21.2335
  0
LINE
  8
0
 10
-314.196
 20
-21.2335
 11
-314.044
 21
-21.3442
  0
LINE
  8
0
 10
-314.044
 20
-21.3442
 11
-313.907
 21
-21.4732
  0
LINE
  8
0
 10
-313.907
 20
-21.4732
 11
-313.786
 21
-21.6183
  0
LINE
  8
0
 10
-313.786
 20
-21.6183
 11
-313.686
 21
-21.7774
  0
LINE
  8
0
 10
-313.686
 20
-21.7774
 11
-313.605
 21
-21.9478
  0
LINE
  8
0
 10
-313.605
 20
-21.9478
 11
-313.547
 21
-22.127
  0
LINE
  8
0
 10
-313.547
 20
-22.127
 11
-313.512
 21
-22.312
  0
LINE
  8
0
 10
-313.512
 20
-22.312
 11
-313.5
 21
-22.5
  0
LINE
  8
0
 10
-313.5
 20
-22.5
 11
-313.512
 21
-22.688
  0
LINE
  8
0
 10
-313.512
 20
-22.688
 11
-313.547
 21
-22.873
  0
LINE
  8
0
 10
-313.547
 20
-22.873
 11
-313.605
 21
-23.0522
  0
LINE
  8
0
 10
-313.605
 20
-23.0522
 11
-313.686
 21
-23.2226
  0
LINE
  8
0
 10
-313.686
 20
-23.2226
 11
-313.786
 21
-23.3817
  0
LINE
  8
0
 10
-313.786
 20
-23.3817
 11
-313.907
 21
-23.5268
  0
LINE
  8
0
 10
-313.907
 20
-23.5268
 11
-314.044
 21
-23.6558
  0
LINE
  8
0
 10
-314.044
 20
-23.6558
 11
-314.196
 21
-23.7665
  0
LINE
  8
0
 10
-314.196
 20
-23.7665
 11
-314.361
 21
-23.8572
  0
LINE
  8
0
 10
-314.361
 20
-23.8572
 11
-314.536
 21
-23.9266
  0
LINE
  8
0
 10
-314.536
 20
-23.9266
 11
-314.719
 21
-23.9734
  0
LINE
  8
0
 10
-314.719
 20
-23.9734
 11
-314.906
 21
-23.997
  0
LINE
  8
0
 10
-314.906
 20
-23.997
 11
-315.094
 21
-23.997
  0
LINE
  8
0
 10
314.906
 20
-23.997
 11
314.719
 21
-23.9734
  0
LINE
  8
0
 10
314.719
 20
-23.9734
 11
314.536
 21
-23.9266
  0
LINE
  8
0
 10
314.536
 20
-23.9266
 11
314.361
 21
-23.8572
  0
LINE
  8
0
 10
314.361
 20
-23.8572
 11
314.196
 21
-23.7665
  0
LINE
  8
0
 10
314.196
 20
-23.7665
 11
314.044
 21
-23.6558
  0
LINE
  8
0
 10
314.044
 20
-23.6558
 11
313.907
 21
-23.5268
  0
LINE
  8
0
 10
313.907
 20
-23.5268
 11
313.786
 21
-23.3817
  0
LINE
  8
0
 10
313.786
 20
-23.3817
 11
313.686
 21
-23.2226
  0
LINE
  8
0
 10
313.686
 20
-23.2226
 11
313.605
 21
-23.0522
  0
LINE
  8
0
 10
313.605
 20
-23.0522
 11
313.547
 21
-22.873
  0
LINE
  8
0
 10
313.547
 20
-22.873
 11
313.512
 21
-22.688
  0
LINE
  8
0
 10
313.512
 20
-22.688
 11
313.5
 21
-22.5
  0
LINE
  8
0
 10
313.5
 20
-22.5
 11
313.512
 21
-22.312
  0
LINE
  8
0
 10
313.512
 20
-22.312
 11
313.547
 21
-22.127
  0
LINE
  8
0
 10
313.547
 20
-22.127
 11
313.605
 21
-21.9478
  0
LINE
  8
0
 10
313.605
 20
-21.9478
 11
313.686
 21
-21.7774
  0
LINE
  8
0
 10
313.686
 20
-21.7774
 11
313.786
 21
-21.6183
  0
LINE
  8
0
 10
313.786
 20
-21.6183
 11
313.907
 21
-21.4732
  0
LINE
  8
0
 10
313.907
 20
-21.4732
 11
314.044
 21
-21.3442
  0
LINE
  8
0
 10
314.044
 20
-21.3442
 11
314.196
 21
-21.2335
  0
LINE
  8
0
 10
314.196
 20
-21.2335
 11
314.361
 21
-21.1427
  0
LINE
  8
0
 10
314.361
 20
-21.1427
 11
314.536
 21
-21.0734
  0
LINE
  8
0
 10
314.536
 20
-21.0734
 11
314.719
 21
-21.0266
  0
LINE
  8
0
 10
314.719
 20
-21.0266
 11
314.906
 21
-21.003
  0
LINE
  8
0
 10
314.906
 20
-21.003
 11
315.094
 21
-21.003
  0
LINE
  8
0
 10
315.094
 20
-21.003
 11
315.281
 21
-21.0266
  0
LINE
  8
0
 10
315.281
 20
-21.0266
 11
315.464
 21
-21.0734
  0
LINE
  8
0
 10
315.464
 20
-21.0734
 11
315.639
 21
-21.1427
  0
LINE
  8
0
 10
315.639
 20
-21.1427
 11
315.804
 21
-21.2335
  0
LINE
  8
0
 10
315.804
 20
-21.2335
 11
315.956
 21
-21.3442
  0
LINE
  8
0
 10
315.956
 20
-21.3442
 11
316.093
 21
-21.4732
  0
LINE
  8
0
 10
316.093
 20
-21.4732
 11
316.214
 21
-21.6183
  0
LINE
  8
0
 10
316.214
 20
-21.6183
 11
316.314
 21
-21.7774
  0
LINE
  8
0
 10
316.314
 20
-21.7774
 11
316.395
 21
-21.9478
  0
LINE
  8
0
 10
316.395
 20
-21.9478
 11
316.453
 21
-22.127
  0
LINE
  8
0
 10
316.453
 20
-22.127
 11
316.488
 21
-22.312
  0
LINE
  8
0
 10
316.488
 20
-22.312
 11
316.5
 21
-22.5
  0
LINE
  8
0
 10
316.5
 20
-22.5
 11
316.488
 21
-22.688
  0
LINE
  8
0
 10
316.488
 20
-22.688
 11
316.453
 21
-22.873
  0
LINE
  8
0
 10
316.453
 20
-22.873
 11
316.395
 21
-23.0522
  0
LINE
  8
0
 10
316.395
 20
-23.0522
 11
316.314
 21
-23.2226
  0
LINE
  8
0
 10
316.314
 20
-23.2226
 11
316.214
 21
-23.3817
  0
LINE
  8
0
 10
316.214
 20
-23.3817
 11
316.093
 21
-23.5268
  0
LINE
  8
0
 10
316.093
 20
-23.5268
 11
315.956
 21
-23.6558
  0
LINE
  8
0
 10
315.956
 20
-23.6558
 11
315.804
 21
-23.7665
  0
LINE
  8
0
 10
315.804
 20
-23.7665
 11
315.639
 21
-23.8572
  0
LINE
  8
0
 10
315.639
 20
-23.8572
 11
315.464
 21
-23.9266
  0
LINE
  8
0
 10
315.464
 20
-23.9266
 11
315.281
 21
-23.9734
  0
LINE
  8
0
 10
315.281
 20
-23.9734
 11
315.094
 21
-23.997
  0
LINE
  8
0
 10
315.094
 20
-23.997
 11
314.906
 21
-23.997
  0
LINE
  8
0
 10
314.812
 20
-32.9941
 11
314.438
 21
-32.9469
  0
LINE
  8
0
 10
314.438
 20
-32.9469
 11
314.073
 21
-32.8532
  0
LINE
  8
0
 10
314.073
 20
-32.8532
 11
313.723
 21
-32.7145
  0
LINE
  8
0
 10
313.723
 20
-32.7145
 11
313.393
 21
-32.533
  0
LINE
  8
0
 10
313.393
 20
-32.533
 11
313.088
 21
-32.3115
  0
LINE
  8
0
 10
313.088
 20
-32.3115
 11
312.813
 21
-32.0536
  0
LINE
  8
0
 10
312.813
 20
-32.0536
 11
312.573
 21
-31.7634
  0
LINE
  8
0
 10
312.573
 20
-31.7634
 11
312.371
 21
-31.4453
  0
LINE
  8
0
 10
312.371
 20
-31.4453
 11
312.211
 21
-31.1044
  0
LINE
  8
0
 10
312.211
 20
-31.1044
 11
312.094
 21
-30.7461
  0
LINE
  8
0
 10
312.094
 20
-30.7461
 11
312.024
 21
-30.376
  0
LINE
  8
0
 10
312.024
 20
-30.376
 11
312
 21
-30
  0
LINE
  8
0
 10
312
 20
-30
 11
312.024
 21
-29.624
  0
LINE
  8
0
 10
312.024
 20
-29.624
 11
312.094
 21
-29.2539
  0
LINE
  8
0
 10
312.094
 20
-29.2539
 11
312.211
 21
-28.8956
  0
LINE
  8
0
 10
312.211
 20
-28.8956
 11
312.371
 21
-28.5547
  0
LINE
  8
0
 10
312.371
 20
-28.5547
 11
312.573
 21
-28.2366
  0
LINE
  8
0
 10
312.573
 20
-28.2366
 11
312.813
 21
-27.9464
  0
LINE
  8
0
 10
312.813
 20
-27.9464
 11
313.088
 21
-27.6884
  0
LINE
  8
0
 10
313.088
 20
-27.6884
 11
313.393
 21
-27.467
  0
LINE
  8
0
 10
313.393
 20
-27.467
 11
313.723
 21
-27.2855
  0
LINE
  8
0
 10
313.723
 20
-27.2855
 11
314.073
 21
-27.1468
  0
LINE
  8
0
 10
314.073
 20
-27.1468
 11
314.438
 21
-27.0531
  0
LINE
  8
0
 10
314.438
 20
-27.0531
 11
314.812
 21
-27.0059
  0
LINE
  8
0
 10
314.812
 20
-27.0059
 11
315.188
 21
-27.0059
  0
LINE
  8
0
 10
315.188
 20
-27.0059
 11
315.562
 21
-27.0531
  0
LINE
  8
0
 10
315.562
 20
-27.0531
 11
315.927
 21
-27.1468
  0
LINE
  8
0
 10
315.927
 20
-27.1468
 11
316.277
 21
-27.2855
  0
LINE
  8
0
 10
316.277
 20
-27.2855
 11
316.607
 21
-27.467
  0
LINE
  8
0
 10
316.607
 20
-27.467
 11
316.912
 21
-27.6884
  0
LINE
  8
0
 10
316.912
 20
-27.6884
 11
317.187
 21
-27.9464
  0
LINE
  8
0
 10
317.187
 20
-27.9464
 11
317.427
 21
-28.2366
  0
LINE
  8
0
 10
317.427
 20
-28.2366
 11
317.629
 21
-28.5547
  0
LINE
  8
0
 10
317.629
 20
-28.5547
 11
317.789
 21
-28.8956
  0
LINE
  8
0
 10
317.789
 20
-28.8956
 11
317.906
 21
-29.2539
  0
LINE
  8
0
 10
317.906
 20
-29.2539
 11
317.976
 21
-29.624
  0
LINE
  8
0
 10
317.976
 20
-29.624
 11
318
 21
-30
  0
LINE
  8
0
 10
318
 20
-30
 11
317.976
 21
-30.376
  0
LINE
  8
0
 10
317.976
 20
-30.376
 11
317.906
 21
-30.7461
  0
LINE
  8
0
 10
317.906
 20
-30.7461
 11
317.789
 21
-31.1044
  0
LINE
  8
0
 10
317.789
 20
-31.1044
 11
317.629
 21
-31.4453
  0
LINE
  8
0
 10
317.629
 20
-31.4453
 11
317.427
 21
-31.7634
  0
LINE
  8
0
 10
317.427
 20
-31.7634
 11
317.187
 21
-32.0536
  0
LINE
  8
0
 10
317.187
 20
-32.0536
 11
316.912
 21
-32.3115
  0
LINE
  8
0
 10
316.912
 20
-32.3115
 11
316.607
 21
-32.533
  0
LINE
  8
0
 10
316.607
 20
-32.533
 11
316.277
 21
-32.7145
  0
LINE
  8
0
 10
316.277
 20
-32.7145
 11
315.927
 21
-32.8532
  0
LINE
  8
0
 10
315.927
 20
-32.8532
 11
315.562
 21
-32.9469
  0
LINE
  8
0
 10
315.562
 20
-32.9469
 11
315.188
 21
-32.9941
  0
LINE
  8
0
 10
315.188
 20
-32.9941
 11
314.812
 21
-32.9941
  0
LINE
  8
0
 10
-315.188
 20
-32.9941
 11
-315.562
 21
-32.9469
  0
LINE
  8
0
 10
-315.562
 20
-32.9469
 11
-315.927
 21
-32.8532
  0
LINE
  8
0
 10
-315.927
 20
-32.8532
 11
-316.277
 21
-32.7145
  0
LINE
  8
0
 10
-316.277
 20
-32.7145
 11
-316.607
 21
-32.533
  0
LINE
  8
0
 10
-316.607
 20
-32.533
 11
-316.912
 21
-32.3115
  0
LINE
  8
0
 10
-316.912
 20
-32.3115
 11
-317.187
 21
-32.0536
  0
LINE
  8
0
 10
-317.187
 20
-32.0536
 11
-317.427
 21
-31.7634
  0
LINE
  8
0
 10
-317.427
 20
-31.7634
 11
-317.629
 21
-31.4453
  0
LINE
  8
0
 10
-317.629
 20
-31.4453
 11
-317.789
 21
-31.1044
  0
LINE
  8
0
 10
-317.789
 20
-31.1044
 11
-317.906
 21
-30.7461
  0
LINE
  8
0
 10
-317.906
 20
-30.7461
 11
-317.976
 21
-30.376
  0
LINE
  8
0
 10
-317.976
 20
-30.376
 11
-318
 21
-30
  0
LINE
  8
0
 10
-318
 20
-30
 11
-317.976
 21
-29.624
  0
LINE
  8
0
 10
-317.976
 20
-29.624
 11
-317.906
 21
-29.2539
  0
LINE
  8
0
 10
-317.906
 20
-29.2539
 11
-317.789
 21
-28.8956
  0
LINE
  8
0
 10
-317.789
 20
-28.8956
 11
-317.629
 21
-28.5547
  0
LINE
  8
0
 10
-317.629
 20
-28.5547
 11
-317.427
 21
-28.2366
  0
LINE
  8
0
 10
-317.427
 20
-28.2366
 11
-317.187
 21
-27.9464
  0
LINE
  8
0
 10
-317.187
 20
-27.9464
 11
-316.912
 21
-27.6884
  0
LINE
  8
0
 10
-316.912
 20
-27.6884
 11
-316.607
 21
-27.467
  0
LINE
  8
0
 10
-316.607
 20
-27.467
 11
-316.277
 21
-27.2855
  0
LINE
  8
0
 10
-316.277
 20
-27.2855
 11
-315.927
 21
-27.1468
  0
LINE
  8
0
 10
-315.927
 20
-27.1468
 11
-315.562
 21
-27.0531
  0
LINE
  8
0
 10
-315.562
 20
-27.0531
 11
-315.188
 21
-27.0059
  0
LINE
  8
0
 10
-315.188
 20
-27.0059
 11
-314.812
 21
-27.0059
  0
LINE
  8
0
 10
-314.812
 20
-27.0059
 11
-314.438
 21
-27.0531
  0
LINE
  8
0
 10
-314.438
 20
-27.0531
 11
-314.073
 21
-27.1468
  0
LINE
  8
0
 10
-314.073
 20
-27.1468
 11
-313.723
 21
-27.2855
  0
LINE
  8
0
 10
-313.723
 20
-27.2855
 11
-313.393
 21
-27.467
  0
LINE
  8
0
 10
-313.393
 20
-27.467
 11
-313.088
 21
-27.6884
  0
LINE
  8
0
 10
-313.088
 20
-27.6884
 11
-312.813
 21
-27.9464
  0
LINE
  8
0
 10
-312.813
 20
-27.9464
 11
-312.573
 21
-28.2366
  0
LINE
  8
0
 10
-312.573
 20
-28.2366
 11
-312.371
 21
-28.5547
  0
LINE
  8
0
 10
-312.371
 20
-28.5547
 11
-312.211
 21
-28.8956
  0
LINE
  8
0
 10
-312.211
 20
-28.8956
 11
-312.094
 21
-29.2539
  0
LINE
  8
0
 10
-312.094
 20
-29.2539
 11
-312.024
 21
-29.624
  0
LINE
  8
0
 10
-312.024
 20
-29.624
 11
-312
 21
-30
  0
LINE
  8
0
 10
-312
 20
-30
 11
-312.024
 21
-30.376
  0
LINE
  8
0
 10
-312.024
 20
-30.376
 11
-312.094
 21
-30.7461
  0
LINE
  8
0
 10
-312.094
 20
-30.7461
 11
-312.211
 21
-31.1044
  0
LINE
  8
0
 10
-312.211
 20
-31.1044
 11
-312.371
 21
-31.4453
  0
LINE
  8
0
 10
-312.371
 20
-31.4453
 11
-312.573
 21
-31.7634
  0
LINE
  8
0
 10
-312.573
 20
-31.7634
 11
-312.813
 21
-32.0536
  0
LINE
  8
0
 10
-312.813
 20
-32.0536
 11
-313.088
 21
-32.3115
  0
LINE
  8
0
 10
-313.088
 20
-32.3115
 11
-313.393
 21
-32.533
  0
LINE
  8
0
 10
-313.393
 20
-32.533
 11
-313.723
 21
-32.7145
  0
LINE
  8
0
 10
-313.723
 20
-32.7145
 11
-314.073
 21
-32.8532
  0
LINE
  8
0
 10
-314.073
 20
-32.8532
 11
-314.438
 21
-32.9469
  0
LINE
  8
0
 10
-314.438
 20
-32.9469
 11
-314.812
 21
-32.9941
  0
LINE
  8
0
 10
-314.812
 20
-32.9941
 11
-315.188
 21
-32.9941
  0
LINE
  8
0
 10
-315.094
 20
-38.997
 11
-315.281
 21
-38.9734
  0
LINE
  8
0
 10
-315.281
 20
-38.9734
 11
-315.464
 21
-38.9266
  0
LINE
  8
0
 10
-315.464
 20
-38.9266
 11
-315.639
 21
-38.8572
  0
LINE
  8
0
 10
-315.639
 20
-38.8572
 11
-315.804
 21
-38.7665
  0
LINE
  8
0
 10
-315.804
 20
-38.7665
 11
-315.956
 21
-38.6558
  0
LINE
  8
0
 10
-315.956
 20
-38.6558
 11
-316.093
 21
-38.5268
  0
LINE
  8
0
 10
-316.093
 20
-38.5268
 11
-316.214
 21
-38.3817
  0
LINE
  8
0
 10
-316.214
 20
-38.3817
 11
-316.314
 21
-38.2226
  0
LINE
  8
0
 10
-316.314
 20
-38.2226
 11
-316.395
 21
-38.0522
  0
LINE
  8
0
 10
-316.395
 20
-38.0522
 11
-316.453
 21
-37.873
  0
LINE
  8
0
 10
-316.453
 20
-37.873
 11
-316.488
 21
-37.688
  0
LINE
  8
0
 10
-316.488
 20
-37.688
 11
-316.5
 21
-37.5
  0
LINE
  8
0
 10
-316.5
 20
-37.5
 11
-316.488
 21
-37.312
  0
LINE
  8
0
 10
-316.488
 20
-37.312
 11
-316.453
 21
-37.127
  0
LINE
  8
0
 10
-316.453
 20
-37.127
 11
-316.395
 21
-36.9478
  0
LINE
  8
0
 10
-316.395
 20
-36.9478
 11
-316.314
 21
-36.7774
  0
LINE
  8
0
 10
-316.314
 20
-36.7774
 11
-316.214
 21
-36.6183
  0
LINE
  8
0
 10
-316.214
 20
-36.6183
 11
-316.093
 21
-36.4732
  0
LINE
  8
0
 10
-316.093
 20
-36.4732
 11
-315.956
 21
-36.3442
  0
LINE
  8
0
 10
-315.956
 20
-36.3442
 11
-315.804
 21
-36.2335
  0
LINE
  8
0
 10
-315.804
 20
-36.2335
 11
-315.639
 21
-36.1428
  0
LINE
  8
0
 10
-315.639
 20
-36.1428
 11
-315.464
 21
-36.0734
  0
LINE
  8
0
 10
-315.464
 20
-36.0734
 11
-315.281
 21
-36.0266
  0
LINE
  8
0
 10
-315.281
 20
-36.0266
 11
-315.094
 21
-36.003
  0
LINE
  8
0
 10
-315.094
 20
-36.003
 11
-314.906
 21
-36.003
  0
LINE
  8
0
 10
-314.906
 20
-36.003
 11
-314.719
 21
-36.0266
  0
LINE
  8
0
 10
-314.719
 20
-36.0266
 11
-314.536
 21
-36.0734
  0
LINE
  8
0
 10
-314.536
 20
-36.0734
 11
-314.361
 21
-36.1428
  0
LINE
  8
0
 10
-314.361
 20
-36.1428
 11
-314.196
 21
-36.2335
  0
LINE
  8
0
 10
-314.196
 20
-36.2335
 11
-314.044
 21
-36.3442
  0
LINE
  8
0
 10
-314.044
 20
-36.3442
 11
-313.907
 21
-36.4732
  0
LINE
  8
0
 10
-313.907
 20
-36.4732
 11
-313.786
 21
-36.6183
  0
LINE
  8
0
 10
-313.786
 20
-36.6183
 11
-313.686
 21
-36.7774
  0
LINE
  8
0
 10
-313.686
 20
-36.7774
 11
-313.605
 21
-36.9478
  0
LINE
  8
0
 10
-313.605
 20
-36.9478
 11
-313.547
 21
-37.127
  0
LINE
  8
0
 10
-313.547
 20
-37.127
 11
-313.512
 21
-37.312
  0
LINE
  8
0
 10
-313.512
 20
-37.312
 11
-313.5
 21
-37.5
  0
LINE
  8
0
 10
-313.5
 20
-37.5
 11
-313.512
 21
-37.688
  0
LINE
  8
0
 10
-313.512
 20
-37.688
 11
-313.547
 21
-37.873
  0
LINE
  8
0
 10
-313.547
 20
-37.873
 11
-313.605
 21
-38.0522
  0
LINE
  8
0
 10
-313.605
 20
-38.0522
 11
-313.686
 21
-38.2226
  0
LINE
  8
0
 10
-313.686
 20
-38.2226
 11
-313.786
 21
-38.3817
  0
LINE
  8
0
 10
-313.786
 20
-38.3817
 11
-313.907
 21
-38.5268
  0
LINE
  8
0
 10
-313.907
 20
-38.5268
 11
-314.044
 21
-38.6558
  0
LINE
  8
0
 10
-314.044
 20
-38.6558
 11
-314.196
 21
-38.7665
  0
LINE
  8
0
 10
-314.196
 20
-38.7665
 11
-314.361
 21
-38.8572
  0
LINE
  8
0
 10
-314.361
 20
-38.8572
 11
-314.536
 21
-38.9266
  0
LINE
  8
0
 10
-314.536
 20
-38.9266
 11
-314.719
 21
-38.9734
  0
LINE
  8
0
 10
-314.719
 20
-38.9734
 11
-314.906
 21
-38.997
  0
LINE
  8
0
 10
-314.906
 20
-38.997
 11
-315.094
 21
-38.997
  0
LINE
  8
0
 10
314.906
 20
-38.997
 11
314.719
 21
-38.9734
  0
LINE
  8
0
 10
314.719
 20
-38.9734
 11
314.536
 21
-38.9266
  0
LINE
  8
0
 10
314.536
 20
-38.9266
 11
314.361
 21
-38.8572
  0
LINE
  8
0
 10
314.361
 20
-38.8572
 11
314.196
 21
-38.7665
  0
LINE
  8
0
 10
314.196
 20
-38.7665
 11
314.044
 21
-38.6558
  0
LINE
  8
0
 10
314.044
 20
-38.6558
 11
313.907
 21
-38.5268
  0
LINE
  8
0
 10
313.907
 20
-38.5268
 11
313.786
 21
-38.3817
  0
LINE
  8
0
 10
313.786
 20
-38.3817
 11
313.686
 21
-38.2226
  0
LINE
  8
0
 10
313.686
 20
-38.2226
 11
313.605
 21
-38.0522
  0
LINE
  8
0
 10
313.605
 20
-38.0522
 11
313.547
 21
-37.873
  0
LINE
  8
0
 10
313.547
 20
-37.873
 11
313.512
 21
-37.688
  0
LINE
  8
0
 10
313.512
 20
-37.688
 11
313.5
 21
-37.5
  0
LINE
  8
0
 10
313.5
 20
-37.5
 11
313.512
 21
-37.312
  0
LINE
  8
0
 10
313.512
 20
-37.312
 11
313.547
 21
-37.127
  0
LINE
  8
0
 10
313.547
 20
-37.127
 11
313.605
 21
-36.9478
  0
LINE
  8
0
 10
313.605
 20
-36.9478
 11
313.686
 21
-36.7774
  0
LINE
  8
0
 10
313.686
 20
-36.7774
 11
313.786
 21
-36.6183
  0
LINE
  8
0
 10
313.786
 20
-36.6183
 11
313.907
 21
-36.4732
  0
LINE
  8
0
 10
313.907
 20
-36.4732
 11
314.044
 21
-36.3442
  0
LINE
  8
0
 10
314.044
 20
-36.3442
 11
314.196
 21
-36.2335
  0
LINE
  8
0
 10
314.196
 20
-36.2335
 11
314.361
 21
-36.1428
  0
LINE
  8
0
 10
314.361
 20
-36.1428
 11
314.536
 21
-36.0734
  0
LINE
  8
0
 10
314.536
 20
-36.0734
 11
314.719
 21
-36.0266
  0
LINE
  8
0
 10
314.719
 20
-36.0266
 11
314.906
 21
-36.003
  0
LINE
  8
0
 10
314.906
 20
-36.003
 11
315.094
 21
-36.003
  0
LINE
  8
0
 10
315.094
 20
-36.003
 11
315.281
 21
-36.0266
  0
LINE
  8
0
 10
315.281
 20
-36.0266
 11
315.464
 21
-36.0734
  0
LINE
  8
0
 10
315.464
 20
-36.0734
 11
315.639
 21
-36.1428
  0
LINE
  8
0
 10
315.639
 20
-36.1428
 11
315.804
 21
-36.2335
  0
LINE
  8
0
 10
315.804
 20
-36.2335
 11
315.956
 21
-36.3442
  0
LINE
  8
0
 10
315.956
 20
-36.3442
 11
316.093
 21
-36.4732
  0
LINE
  8
0
 10
316.093
 20
-36.4732
 11
316.214
 21
-36.6183
  0
LINE
  8
0
 10
316.214
 20
-36.6183
 11
316.314
 21
-36.7774
  0
LINE
  8
0
 10
316.314
 20
-36.7774
 11
316.395
 21
-36.9478
  0
LINE
  8
0
 10
316.395
 20
-36.9478
 11
316.453
 21
-37.127
  0
LINE
  8
0
 10
316.453
 20
-37.127
 11
316.488
 21
-37.312
  0
LINE
  8
0
 10
316.488
 20
-37.312
 11
316.5
 21
-37.5
  0
LINE
  8
0
 10
316.5
 20
-37.5
 11
316.488
 21
-37.688
  0
LINE
  8
0
 10
316.488
 20
-37.688
 11
316.453
 21
-37.873
  0
LINE
  8
0
 10
316.453
 20
-37.873
 11
316.395
 21
-38.0522
  0
LINE
  8
0
 10
316.395
 20
-38.0522
 11
316.314
 21
-38.2226
  0
LINE
  8
0
 10
316.314
 20
-38.2226
 11
316.214
 21
-38.3817
  0
LINE
  8
0
 10
316.214
 20
-38.3817
 11
316.093
 21
-38.5268
  0
LINE
  8
0
 10
316.093
 20
-38.5268
 11
315.956
 21
-38.6558
  0
LINE
  8
0
 10
315.956
 20
-38.6558
 11
315.804
 21
-38.7665
  0
LINE
  8
0
 10
315.804
 20
-38.7665
 11
315.639
 21
-38.8572
  0
LINE
  8
0
 10
315.639
 20
-38.8572
 11
315.464
 21
-38.9266
  0
LINE
  8
0
 10
315.464
 20
-38.9266
 11
315.281
 21
-38.9734
  0
LINE
  8
0
 10
315.281
 20
-38.9734
 11
315.094
 21
-38.997
  0
LINE
  8
0
 10
315.094
 20
-38.997
 11
314.906
 21
-38.997
  0
LINE
  8
0
 10
314.812
 20
-47.9941
 11
314.438
 21
-47.9469
  0
LINE
  8
0
 10
314.438
 20
-47.9469
 11
314.073
 21
-47.8532
  0
LINE
  8
0
 10
314.073
 20
-47.8532
 11
313.723
 21
-47.7145
  0
LINE
  8
0
 10
313.723
 20
-47.7145
 11
313.393
 21
-47.533
  0
LINE
  8
0
 10
313.393
 20
-47.533
 11
313.088
 21
-47.3115
  0
LINE
  8
0
 10
313.088
 20
-47.3115
 11
312.813
 21
-47.0536
  0
LINE
  8
0
 10
312.813
 20
-47.0536
 11
312.573
 21
-46.7634
  0
LINE
  8
0
 10
312.573
 20
-46.7634
 11
312.371
 21
-46.4453
  0
LINE
  8
0
 10
312.371
 20
-46.4453
 11
312.211
 21
-46.1044
  0
LINE
  8
0
 10
312.211
 20
-46.1044
 11
312.094
 21
-45.7461
  0
LINE
  8
0
 10
312.094
 20
-45.7461
 11
312.024
 21
-45.376
  0
LINE
  8
0
 10
312.024
 20
-45.376
 11
312
 21
-45
  0
LINE
  8
0
 10
312
 20
-45
 11
312.024
 21
-44.624
  0
LINE
  8
0
 10
312.024
 20
-44.624
 11
312.094
 21
-44.2539
  0
LINE
  8
0
 10
312.094
 20
-44.2539
 11
312.211
 21
-43.8956
  0
LINE
  8
0
 10
312.211
 20
-43.8956
 11
312.371
 21
-43.5547
  0
LINE
  8
0
 10
312.371
 20
-43.5547
 11
312.573
 21
-43.2366
  0
LINE
  8
0
 10
312.573
 20
-43.2366
 11
312.813
 21
-42.9464
  0
LINE
  8
0
 10
312.813
 20
-42.9464
 11
313.088
 21
-42.6885
  0
LINE
  8
0
 10
313.088
 20
-42.6885
 11
313.393
 21
-42.467
  0
LINE
  8
0
 10
313.393
 20
-42.467
 11
313.723
 21
-42.2855
  0
LINE
  8
0
 10
313.723
 20
-42.2855
 11
314.073
 21
-42.1468
  0
LINE
  8
0
 10
314.073
 20
-42.1468
 11
314.438
 21
-42.0531
  0
LINE
  8
0
 10
314.438
 20
-42.0531
 11
314.812
 21
-42.0059
  0
LINE
  8
0
 10
314.812
 20
-42.0059
 11
315.188
 21
-42.0059
  0
LINE
  8
0
 10
315.188
 20
-42.0059
 11
315.562
 21
-42.0531
  0
LINE
  8
0
 10
315.562
 20
-42.0531
 11
315.927
 21
-42.1468
  0
LINE
  8
0
 10
315.927
 20
-42.1468
 11
316.277
 21
-42.2855
  0
LINE
  8
0
 10
316.277
 20
-42.2855
 11
316.607
 21
-42.467
  0
LINE
  8
0
 10
316.607
 20
-42.467
 11
316.912
 21
-42.6885
  0
LINE
  8
0
 10
316.912
 20
-42.6885
 11
317.187
 21
-42.9464
  0
LINE
  8
0
 10
317.187
 20
-42.9464
 11
317.427
 21
-43.2366
  0
LINE
  8
0
 10
317.427
 20
-43.2366
 11
317.629
 21
-43.5547
  0
LINE
  8
0
 10
317.629
 20
-43.5547
 11
317.789
 21
-43.8956
  0
LINE
  8
0
 10
317.789
 20
-43.8956
 11
317.906
 21
-44.2539
  0
LINE
  8
0
 10
317.906
 20
-44.2539
 11
317.976
 21
-44.624
  0
LINE
  8
0
 10
317.976
 20
-44.624
 11
318
 21
-45
  0
LINE
  8
0
 10
318
 20
-45
 11
317.976
 21
-45.376
  0
LINE
  8
0
 10
317.976
 20
-45.376
 11
317.906
 21
-45.7461
  0
LINE
  8
0
 10
317.906
 20
-45.7461
 11
317.789
 21
-46.1044
  0
LINE
  8
0
 10
317.789
 20
-46.1044
 11
317.629
 21
-46.4453
  0
LINE
  8
0
 10
317.629
 20
-46.4453
 11
317.427
 21
-46.7634
  0
LINE
  8
0
 10
317.427
 20
-46.7634
 11
317.187
 21
-47.0536
  0
LINE
  8
0
 10
317.187
 20
-47.0536
 11
316.912
 21
-47.3115
  0
LINE
  8
0
 10
316.912
 20
-47.3115
 11
316.607
 21
-47.533
  0
LINE
  8
0
 10
316.607
 20
-47.533
 11
316.277
 21
-47.7145
  0
LINE
  8
0
 10
316.277
 20
-47.7145
 11
315.927
 21
-47.8532
  0
LINE
  8
0
 10
315.927
 20
-47.8532
 11
315.562
 21
-47.9469
  0
LINE
  8
0
 10
315.562
 20
-47.9469
 11
315.188
 21
-47.9941
  0
LINE
  8
0
 10
315.188
 20
-47.9941
 11
314.812
 21
-47.9941
  0
LINE
  8
0
 10
-315.188
 20
-47.9941
 11
-315.562
 21
-47.9469
  0
LINE
  8
0
 10
-315.562
 20
-47.9469
 11
-315.927
 21
-47.8532
  0
LINE
  8
0
 10
-315.927
 20
-47.8532
 11
-316.277
 21
-47.7145
  0
LINE
  8
0
 10
-316.277
 20
-47.7145
 11
-316.607
 21
-47.533
  0
LINE
  8
0
 10
-316.607
 20
-47.533
 11
-316.912
 21
-47.3115
  0
LINE
  8
0
 10
-316.912
 20
-47.3115
 11
-317.187
 21
-47.0536
  0
LINE
  8
0
 10
-317.187
 20
-47.0536
 11
-317.427
 21
-46.7634
  0
LINE
  8
0
 10
-317.427
 20
-46.7634
 11
-317.629
 21
-46.4453
  0
LINE
  8
0
 10
-317.629
 20
-46.4453
 11
-317.789
 21
-46.1044
  0
LINE
  8
0
 10
-317.789
 20
-46.1044
 11
-317.906
 21
-45.7461
  0
LINE
  8
0
 10
-317.906
 20
-45.7461
 11
-317.976
 21
-45.376
  0
LINE
  8
0
 10
-317.976
 20
-45.376
 11
-318
 21
-45
  0
LINE
  8
0
 10
-318
 20
-45
 11
-317.976
 21
-44.624
  0
LINE
  8
0
 10
-317.976
 20
-44.624
 11
-317.906
 21
-44.2539
  0
LINE
  8
0
 10
-317.906
 20
-44.2539
 11
-317.789
 21
-43.8956
  0
LINE
  8
0
 10
-317.789
 20
-43.8956
 11
-317.629
 21
-43.5547
  0
LINE
  8
0
 10
-317.629
 20
-43.5547
 11
-317.427
 21
-43.2366
  0
LINE
  8
0
 10
-317.427
 20
-43.2366
 11
-317.187
 21
-42.9464
  0
LINE
  8
0
 10
-317.187
 20
-42.9464
 11
-316.912
 21
-42.6885
  0
LINE
  8
0
 10
-316.912
 20
-42.6885
 11
-316.607
 21
-42.467
  0
LINE
  8
0
 10
-316.607
 20
-42.467
 11
-316.277
 21
-42.2855
  0
LINE
  8
0
 10
-316.277
 20
-42.2855
 11
-315.927
 21
-42.1468
  0
LINE
  8
0
 10
-315.927
 20
-42.1468
 11
-315.562
 21
-42.0531
  0
LINE
  8
0
 10
-315.562
 20
-42.0531
 11
-315.188
 21
-42.0059
  0
LINE
  8
0
 10
-315.188
 20
-42.0059
 11
-314.812
 21
-42.0059
  0
LINE
  8
0
 10
-314.812
 20
-42.0059
 11
-314.438
 21
-42.0531
  0
LINE
  8
0
 10
-314.438
 20
-42.0531
 11
-314.073
 21
-42.1468
  0
LINE
  8
0
 10
-314.073
 20
-42.1468
 11
-313.723
 21
-42.2855
  0
LINE
  8
0
 10
-313.723
 20
-42.2855
 11
-313.393
 21
-42.467
  0
LINE
  8
0
 10
-313.393
 20
-42.467
 11
-313.088
 21
-42.6885
  0
LINE
  8
0
 10
-313.088
 20
-42.6885
 11
-312.813
 21
-42.9464
  0
LINE
  8
0
 10
-312.813
 20
-42.9464
 11
-312.573
 21
-43.2366
  0
LINE
  8
0
 10
-312.573
 20
-43.2366
 11
-312.371
 21
-43.5547
  0
LINE
  8
0
 10
-312.371
 20
-43.5547
 11
-312.211
 21
-43.8956
  0
LINE
  8
0
 10
-312.211
 20
-43.8956
 11
-312.094
 21
-44.2539
  0
LINE
  8
0
 10
-312.094
 20
-44.2539
 11
-312.024
 21
-44.624
  0
LINE
  8
0
 10
-312.024
 20
-44.624
 11
-312
 21
-45
  0
LINE
  8
0
 10
-312
 20
-45
 11
-312.024
 21
-45.376
  0
LINE
  8
0
 10
-312.024
 20
-45.376
 11
-312.094
 21
-45.7461
  0
LINE
  8
0
 10
-312.094
 20
-45.7461
 11
-312.211
 21
-46.1044
  0
LINE
  8
0
 10
-312.211
 20
-46.1044
 11
-312.371
 21
-46.4453
  0
LINE
  8
0
 10
-312.371
 20
-46.4453
 11
-312.573
 21
-46.7634
  0
LINE
  8
0
 10
-312.573
 20
-46.7634
 11
-312.813
 21
-47.0536
  0
LINE
  8
0
 10
-312.813
 20
-47.0536
 11
-313.088
 21
-47.3115
  0
LINE
  8
0
 10
-313.088
 20
-47.3115
 11
-313.393
 21
-47.533
  0
LINE
  8
0
 10
-313.393
 20
-47.533
 11
-313.723
 21
-47.7145
  0
LINE
  8
0
 10
-313.723
 20
-47.7145
 11
-314.073
 21
-47.8532
  0
LINE
  8
0
 10
-314.073
 20
-47.8532
 11
-314.438
 21
-47.9469
  0
LINE
  8
0
 10
-314.438
 20
-47.9469
 11
-314.812
 21
-47.9941
  0
LINE
  8
0
 10
-314.812
 20
-47.9941
 11
-315.188
 21
-47.9941
  0
LINE
  8
0
 10
-315.094
 20
-53.997
 11
-315.281
 21
-53.9734
  0
LINE
  8
0
 10
-315.281
 20
-53.9734
 11
-315.464
 21
-53.9266
  0
LINE
  8
0
 10
-315.464
 20
-53.9266
 11
-315.639
 21
-53.8572
  0
LINE
  8
0
 10
-315.639
 20
-53.8572
 11
-315.804
 21
-53.7665
  0
LINE
  8
0
 10
-315.804
 20
-53.7665
 11
-315.956
 21
-53.6558
  0
LINE
  8
0
 10
-315.956
 20
-53.6558
 11
-316.093
 21
-53.5268
  0
LINE
  8
0
 10
-316.093
 20
-53.5268
 11
-316.214
 21
-53.3817
  0
LINE
  8
0
 10
-316.214
 20
-53.3817
 11
-316.314
 21
-53.2226
  0
LINE
  8
0
 10
-316.314
 20
-53.2226
 11
-316.395
 21
-53.0522
  0
LINE
  8
0
 10
-316.395
 20
-53.0522
 11
-316.453
 21
-52.873
  0
LINE
  8
0
 10
-316.453
 20
-52.873
 11
-316.488
 21
-52.688
  0
LINE
  8
0
 10
-316.488
 20
-52.688
 11
-316.5
 21
-52.5
  0
LINE
  8
0
 10
-316.5
 20
-52.5
 11
-316.488
 21
-52.312
  0
LINE
  8
0
 10
-316.488
 20
-52.312
 11
-316.453
 21
-52.127
  0
LINE
  8
0
 10
-316.453
 20
-52.127
 11
-316.395
 21
-51.9478
  0
LINE
  8
0
 10
-316.395
 20
-51.9478
 11
-316.314
 21
-51.7774
  0
LINE
  8
0
 10
-316.314
 20
-51.7774
 11
-316.214
 21
-51.6183
  0
LINE
  8
0
 10
-316.214
 20
-51.6183
 11
-316.093
 21
-51.4732
  0
LINE
  8
0
 10
-316.093
 20
-51.4732
 11
-315.956
 21
-51.3442
  0
LINE
  8
0
 10
-315.956
 20
-51.3442
 11
-315.804
 21
-51.2335
  0
LINE
  8
0
 10
-315.804
 20
-51.2335
 11
-315.639
 21
-51.1428
  0
LINE
  8
0
 10
-315.639
 20
-51.1428
 11
-315.464
 21
-51.0734
  0
LINE
  8
0
 10
-315.464
 20
-51.0734
 11
-315.281
 21
-51.0266
  0
LINE
  8
0
 10
-315.281
 20
-51.0266
 11
-315.094
 21
-51.003
  0
LINE
  8
0
 10
-315.094
 20
-51.003
 11
-314.906
 21
-51.003
  0
LINE
  8
0
 10
-314.906
 20
-51.003
 11
-314.719
 21
-51.0266
  0
LINE
  8
0
 10
-314.719
 20
-51.0266
 11
-314.536
 21
-51.0734
  0
LINE
  8
0
 10
-314.536
 20
-51.0734
 11
-314.361
 21
-51.1428
  0
LINE
  8
0
 10
-314.361
 20
-51.1428
 11
-314.196
 21
-51.2335
  0
LINE
  8
0
 10
-314.196
 20
-51.2335
 11
-314.044
 21
-51.3442
  0
LINE
  8
0
 10
-314.044
 20
-51.3442
 11
-313.907
 21
-51.4732
  0
LINE
  8
0
 10
-313.907
 20
-51.4732
 11
-313.786
 21
-51.6183
  0
LINE
  8
0
 10
-313.786
 20
-51.6183
 11
-313.686
 21
-51.7774
  0
LINE
  8
0
 10
-313.686
 20
-51.7774
 11
-313.605
 21
-51.9478
  0
LINE
  8
0
 10
-313.605
 20
-51.9478
 11
-313.547
 21
-52.127
  0
LINE
  8
0
 10
-313.547
 20
-52.127
 11
-313.512
 21
-52.312
  0
LINE
  8
0
 10
-313.512
 20
-52.312
 11
-313.5
 21
-52.5
  0
LINE
  8
0
 10
-313.5
 20
-52.5
 11
-313.512
 21
-52.688
  0
LINE
  8
0
 10
-313.512
 20
-52.688
 11
-313.547
 21
-52.873
  0
LINE
  8
0
 10
-313.547
 20
-52.873
 11
-313.605
 21
-53.0522
  0
LINE
  8
0
 10
-313.605
 20
-53.0522
 11
-313.686
 21
-53.2226
  0
LINE
  8
0
 10
-313.686
 20
-53.2226
 11
-313.786
 21
-53.3817
  0
LINE
  8
0
 10
-313.786
 20
-53.3817
 11
-313.907
 21
-53.5268
  0
LINE
  8
0
 10
-313.907
 20
-53.5268
 11
-314.044
 21
-53.6558
  0
LINE
  8
0
 10
-314.044
 20
-53.6558
 11
-314.196
 21
-53.7665
  0
LINE
  8
0
 10
-314.196
 20
-53.7665
 11
-314.361
 21
-53.8572
  0
LINE
  8
0
 10
-314.361
 20
-53.8572
 11
-314.536
 21
-53.9266
  0
LINE
  8
0
 10
-314.536
 20
-53.9266
 11
-314.719
 21
-53.9734
  0
LINE
  8
0
 10
-314.719
 20
-53.9734
 11
-314.906
 21
-53.997
  0
LINE
  8
0
 10
-314.906
 20
-53.997
 11
-315.094
 21
-53.997
  0
LINE
  8
0
 10
314.906
 20
-53.997
 11
314.719
 21
-53.9734
  0
LINE
  8
0
 10
314.719
 20
-53.9734
 11
314.536
 21
-53.9266
  0
LINE
  8
0
 10
314.536
 20
-53.9266
 11
314.361
 21
-53.8572
  0
LINE
  8
0
 10
314.361
 20
-53.8572
 11
314.196
 21
-53.7665
  0
LINE
  8
0
 10
314.196
 20
-53.7665
 11
314.044
 21
-53.6558
  0
LINE
  8
0
 10
314.044
 20
-53.6558
 11
313.907
 21
-53.5268
  0
LINE
  8
0
 10
313.907
 20
-53.5268
 11
313.786
 21
-53.3817
  0
LINE
  8
0
 10
313.786
 20
-53.3817
 11
313.686
 21
-53.2226
  0
LINE
  8
0
 10
313.686
 20
-53.2226
 11
313.605
 21
-53.0522
  0
LINE
  8
0
 10
313.605
 20
-53.0522
 11
313.547
 21
-52.873
  0
LINE
  8
0
 10
313.547
 20
-52.873
 11
313.512
 21
-52.688
  0
LINE
  8
0
 10
313.512
 20
-52.688
 11
313.5
 21
-52.5
  0
LINE
  8
0
 10
313.5
 20
-52.5
 11
313.512
 21
-52.312
  0
LINE
  8
0
 10
313.512
 20
-52.312
 11
313.547
 21
-52.127
  0
LINE
  8
0
 10
313.547
 20
-52.127
 11
313.605
 21
-51.9478
  0
LINE
  8
0
 10
313.605
 20
-51.9478
 11
313.686
 21
-51.7774
  0
LINE
  8
0
 10
313.686
 20
-51.7774
 11
313.786
 21
-51.6183
  0
LINE
  8
0
 10
313.786
 20
-51.6183
 11
313.907
 21
-51.4732
  0
LINE
  8
0
 10
313.907
 20
-51.4732
 11
314.044
 21
-51.3442
  0
LINE
  8
0
 10
314.044
 20
-51.3442
 11
314.196
 21
-51.2335
  0
LINE
  8
0
 10
314.196
 20
-51.2335
 11
314.361
 21
-51.1428
  0
LINE
  8
0
 10
314.361
 20
-51.1428
 11
314.536
 21
-51.0734
  0
LINE
  8
0
 10
314.536
 20
-51.0734
 11
314.719
 21
-51.0266
  0
LINE
  8
0
 10
314.719
 20
-51.0266
 11
314.906
 21
-51.003
  0
LINE
  8
0
 10
314.906
 20
-51.003
 11
315.094
 21
-51.003
  0
LINE
  8
0
 10
315.094
 20
-51.003
 11
315.281
 21
-51.0266
  0
LINE
  8
0
 10
315.281
 20
-51.0266
 11
315.464
 21
-51.0734
  0
LINE
  8
0
 10
315.464
 20
-51.0734
 11
315.639
 21
-51.1428
  0
LINE
  8
0
 10
315.639
 20
-51.1428
 11
315.804
 21
-51.2335
  0
LINE
  8
0
 10
315.804
 20
-51.2335
 11
315.956
 21
-51.3442
  0
LINE
  8
0
 10
315.956
 20
-51.3442
 11
316.093
 21
-51.4732
  0
LINE
  8
0
 10
316.093
 20
-51.4732
 11
316.214
 21
-51.6183
  0
LINE
  8
0
 10
316.214
 20
-51.6183
 11
316.314
 21
-51.7774
  0
LINE
  8
0
 10
316.314
 20
-51.7774
 11
316.395
 21
-51.9478
  0
LINE
  8
0
 10
316.395
 20
-51.9478
 11
316.453
 21
-52.127
  0
LINE
  8
0
 10
316.453
 20
-52.127
 11
316.488
 21
-52.312
  0
LINE
  8
0
 10
316.488
 20
-52.312
 11
316.5
 21
-52.5
  0
LINE
  8
0
 10
316.5
 20
-52.5
 11
316.488
 21
-52.688
  0
LINE
  8
0
 10
316.488
 20
-52.688
 11
316.453
 21
-52.873
  0
LINE
  8
0
 10
316.453
 20
-52.873
 11
316.395
 21
-53.0522
  0
LINE
  8
0
 10
316.395
 20
-53.0522
 11
316.314
 21
-53.2226
  0
LINE
  8
0
 10
316.314
 20
-53.2226
 11
316.214
 21
-53.3817
  0
LINE
  8
0
 10
316.214
 20
-53.3817
 11
316.093
 21
-53.5268
  0
LINE
  8
0
 10
316.093
 20
-53.5268
 11
315.956
 21
-53.6558
  0
LINE
  8
0
 10
315.956
 20
-53.6558
 11
315.804
 21
-53.7665
  0
LINE
  8
0
 10
315.804
 20
-53.7665
 11
315.639
 21
-53.8572
  0
LINE
  8
0
 10
315.639
 20
-53.8572
 11
315.464
 21
-53.9266
  0
LINE
  8
0
 10
315.464
 20
-53.9266
 11
315.281
 21
-53.9734
  0
LINE
  8
0
 10
315.281
 20
-53.9734
 11
315.094
 21
-53.997
  0
LINE
  8
0
 10
315.094
 20
-53.997
 11
314.906
 21
-53.997
  0
LINE
  8
0
 10
-315.188
 20
-62.9941
 11
-315.562
 21
-62.9469
  0
LINE
  8
0
 10
-315.562
 20
-62.9469
 11
-315.927
 21
-62.8532
  0
LINE
  8
0
 10
-315.927
 20
-62.8532
 11
-316.277
 21
-62.7145
  0
LINE
  8
0
 10
-316.277
 20
-62.7145
 11
-316.607
 21
-62.533
  0
LINE
  8
0
 10
-316.607
 20
-62.533
 11
-316.912
 21
-62.3115
  0
LINE
  8
0
 10
-316.912
 20
-62.3115
 11
-317.187
 21
-62.0536
  0
LINE
  8
0
 10
-317.187
 20
-62.0536
 11
-317.427
 21
-61.7634
  0
LINE
  8
0
 10
-317.427
 20
-61.7634
 11
-317.629
 21
-61.4453
  0
LINE
  8
0
 10
-317.629
 20
-61.4453
 11
-317.789
 21
-61.1044
  0
LINE
  8
0
 10
-317.789
 20
-61.1044
 11
-317.906
 21
-60.7461
  0
LINE
  8
0
 10
-317.906
 20
-60.7461
 11
-317.976
 21
-60.376
  0
LINE
  8
0
 10
-317.976
 20
-60.376
 11
-318
 21
-60
  0
LINE
  8
0
 10
-318
 20
-60
 11
-317.976
 21
-59.624
  0
LINE
  8
0
 10
-317.976
 20
-59.624
 11
-317.906
 21
-59.2539
  0
LINE
  8
0
 10
-317.906
 20
-59.2539
 11
-317.789
 21
-58.8956
  0
LINE
  8
0
 10
-317.789
 20
-58.8956
 11
-317.629
 21
-58.5547
  0
LINE
  8
0
 10
-317.629
 20
-58.5547
 11
-317.427
 21
-58.2366
  0
LINE
  8
0
 10
-317.427
 20
-58.2366
 11
-317.187
 21
-57.9464
  0
LINE
  8
0
 10
-317.187
 20
-57.9464
 11
-316.912
 21
-57.6885
  0
LINE
  8
0
 10
-316.912
 20
-57.6885
 11
-316.607
 21
-57.467
  0
LINE
  8
0
 10
-316.607
 20
-57.467
 11
-316.277
 21
-57.2855
  0
LINE
  8
0
 10
-316.277
 20
-57.2855
 11
-315.927
 21
-57.1468
  0
LINE
  8
0
 10
-315.927
 20
-57.1468
 11
-315.562
 21
-57.0531
  0
LINE
  8
0
 10
-315.562
 20
-57.0531
 11
-315.188
 21
-57.0059
  0
LINE
  8
0
 10
-315.188
 20
-57.0059
 11
-314.812
 21
-57.0059
  0
LINE
  8
0
 10
-314.812
 20
-57.0059
 11
-314.438
 21
-57.0531
  0
LINE
  8
0
 10
-314.438
 20
-57.0531
 11
-314.073
 21
-57.1468
  0
LINE
  8
0
 10
-314.073
 20
-57.1468
 11
-313.723
 21
-57.2855
  0
LINE
  8
0
 10
-313.723
 20
-57.2855
 11
-313.393
 21
-57.467
  0
LINE
  8
0
 10
-313.393
 20
-57.467
 11
-313.088
 21
-57.6885
  0
LINE
  8
0
 10
-313.088
 20
-57.6885
 11
-312.813
 21
-57.9464
  0
LINE
  8
0
 10
-312.813
 20
-57.9464
 11
-312.573
 21
-58.2366
  0
LINE
  8
0
 10
-312.573
 20
-58.2366
 11
-312.371
 21
-58.5547
  0
LINE
  8
0
 10
-312.371
 20
-58.5547
 11
-312.211
 21
-58.8956
  0
LINE
  8
0
 10
-312.211
 20
-58.8956
 11
-312.094
 21
-59.2539
  0
LINE
  8
0
 10
-312.094
 20
-59.2539
 11
-312.024
 21
-59.624
  0
LINE
  8
0
 10
-312.024
 20
-59.624
 11
-312
 21
-60
  0
LINE
  8
0
 10
-312
 20
-60
 11
-312.024
 21
-60.376
  0
LINE
  8
0
 10
-312.024
 20
-60.376
 11
-312.094
 21
-60.7461
  0
LINE
  8
0
 10
-312.094
 20
-60.7461
 11
-312.211
 21
-61.1044
  0
LINE
  8
0
 10
-312.211
 20
-61.1044
 11
-312.371
 21
-61.4453
  0
LINE
  8
0
 10
-312.371
 20
-61.4453
 11
-312.573
 21
-61.7634
  0
LINE
  8
0
 10
-312.573
 20
-61.7634
 11
-312.813
 21
-62.0536
  0
LINE
  8
0
 10
-312.813
 20
-62.0536
 11
-313.088
 21
-62.3115
  0
LINE
  8
0
 10
-313.088
 20
-62.3115
 11
-313.393
 21
-62.533
  0
LINE
  8
0
 10
-313.393
 20
-62.533
 11
-313.723
 21
-62.7145
  0
LINE
  8
0
 10
-313.723
 20
-62.7145
 11
-314.073
 21
-62.8532
  0
LINE
  8
0
 10
-314.073
 20
-62.8532
 11
-314.438
 21
-62.9469
  0
LINE
  8
0
 10
-314.438
 20
-62.9469
 11
-314.812
 21
-62.9941
  0
LINE
  8
0
 10
-314.812
 20
-62.9941
 11
-315.188
 21
-62.9941
  0
LINE
  8
0
 10
314.812
 20
-62.9941
 11
314.438
 21
-62.9469
  0
LINE
  8
0
 10
314.438
 20
-62.9469
 11
314.073
 21
-62.8532
  0
LINE
  8
0
 10
314.073
 20
-62.8532
 11
313.723
 21
-62.7145
  0
LINE
  8
0
 10
313.723
 20
-62.7145
 11
313.393
 21
-62.533
  0
LINE
  8
0
 10
313.393
 20
-62.533
 11
313.088
 21
-62.3115
  0
LINE
  8
0
 10
313.088
 20
-62.3115
 11
312.813
 21
-62.0536
  0
LINE
  8
0
 10
312.813
 20
-62.0536
 11
312.573
 21
-61.7634
  0
LINE
  8
0
 10
312.573
 20
-61.7634
 11
312.371
 21
-61.4453
  0
LINE
  8
0
 10
312.371
 20
-61.4453
 11
312.211
 21
-61.1044
  0
LINE
  8
0
 10
312.211
 20
-61.1044
 11
312.094
 21
-60.7461
  0
LINE
  8
0
 10
312.094
 20
-60.7461
 11
312.024
 21
-60.376
  0
LINE
  8
0
 10
312.024
 20
-60.376
 11
312
 21
-60
  0
LINE
  8
0
 10
312
 20
-60
 11
312.024
 21
-59.624
  0
LINE
  8
0
 10
312.024
 20
-59.624
 11
312.094
 21
-59.2539
  0
LINE
  8
0
 10
312.094
 20
-59.2539
 11
312.211
 21
-58.8956
  0
LINE
  8
0
 10
312.211
 20
-58.8956
 11
312.371
 21
-58.5547
  0
LINE
  8
0
 10
312.371
 20
-58.5547
 11
312.573
 21
-58.2366
  0
LINE
  8
0
 10
312.573
 20
-58.2366
 11
312.813
 21
-57.9464
  0
LINE
  8
0
 10
312.813
 20
-57.9464
 11
313.088
 21
-57.6885
  0
LINE
  8
0
 10
313.088
 20
-57.6885
 11
313.393
 21
-57.467
  0
LINE
  8
0
 10
313.393
 20
-57.467
 11
313.723
 21
-57.2855
  0
LINE
  8
0
 10
313.723
 20
-57.2855
 11
314.073
 21
-57.1468
  0
LINE
  8
0
 10
314.073
 20
-57.1468
 11
314.438
 21
-57.0531
  0
LINE
  8
0
 10
314.438
 20
-57.0531
 11
314.812
 21
-57.0059
  0
LINE
  8
0
 10
314.812
 20
-57.0059
 11
315.188
 21
-57.0059
  0
LINE
  8
0
 10
315.188
 20
-57.0059
 11
315.562
 21
-57.0531
  0
LINE
  8
0
 10
315.562
 20
-57.0531
 11
315.927
 21
-57.1468
  0
LINE
  8
0
 10
315.927
 20
-57.1468
 11
316.277
 21
-57.2855
  0
LINE
  8
0
 10
316.277
 20
-57.2855
 11
316.607
 21
-57.467
  0
LINE
  8
0
 10
316.607
 20
-57.467
 11
316.912
 21
-57.6885
  0
LINE
  8
0
 10
316.912
 20
-57.6885
 11
317.187
 21
-57.9464
  0
LINE
  8
0
 10
317.187
 20
-57.9464
 11
317.427
 21
-58.2366
  0
LINE
  8
0
 10
317.427
 20
-58.2366
 11
317.629
 21
-58.5547
  0
LINE
  8
0
 10
317.629
 20
-58.5547
 11
317.789
 21
-58.8956
  0
LINE
  8
0
 10
317.789
 20
-58.8956
 11
317.906
 21
-59.2539
  0
LINE
  8
0
 10
317.906
 20
-59.2539
 11
317.976
 21
-59.624
  0
LINE
  8
0
 10
317.976
 20
-59.624
 11
318
 21
-60
  0
LINE
  8
0
 10
318
 20
-60
 11
317.976
 21
-60.376
  0
LINE
  8
0
 10
317.976
 20
-60.376
 11
317.906
 21
-60.7461
  0
LINE
  8
0
 10
317.906
 20
-60.7461
 11
317.789
 21
-61.1044
  0
LINE
  8
0
 10
317.789
 20
-61.1044
 11
317.629
 21
-61.4453
  0
LINE
  8
0
 10
317.629
 20
-61.4453
 11
317.427
 21
-61.7634
  0
LINE
  8
0
 10
317.427
 20
-61.7634
 11
317.187
 21
-62.0536
  0
LINE
  8
0
 10
317.187
 20
-62.0536
 11
316.912
 21
-62.3115
  0
LINE
  8
0
 10
316.912
 20
-62.3115
 11
316.607
 21
-62.533
  0
LINE
  8
0
 10
316.607
 20
-62.533
 11
316.277
 21
-62.7145
  0
LINE
  8
0
 10
316.277
 20
-62.7145
 11
315.927
 21
-62.8532
  0
LINE
  8
0
 10
315.927
 20
-62.8532
 11
315.562
 21
-62.9469
  0
LINE
  8
0
 10
315.562
 20
-62.9469
 11
315.188
 21
-62.9941
  0
LINE
  8
0
 10
315.188
 20
-62.9941
 11
314.812
 21
-62.9941
  0
ENDSEC
  0
SECTION
  2
OBJECTS
  0
DICTIONARY
  0
ENDSEC
  0
EOF
