<?xml version="1.0" standalone="no"?>
<!DOCTYPE svg PUBLIC "-//W3C//DTD SVG 1.1//EN" "http://www.w3.org/Graphics/SVG/1.1/DTD/svg11.dtd">
<svg width="314mm" height="74mm" viewBox="-157 -37 314 74" xmlns="http://www.w3.org/2000/svg" version="1.1">
<title>OpenSCAD Model</title>
<path d="
M 152.937,36.9114 L 153.545,36.7553 L 154.129,36.5241 L 154.679,36.2216 L 155.187,35.8526 L 155.645,35.4227
 L 156.045,34.9389 L 156.382,34.4088 L 156.649,33.8406 L 156.843,33.2434 L 156.961,32.6267 L 157,32
 L 157,-32 L 156.961,-32.6267 L 156.843,-33.2434 L 156.649,-33.8406 L 156.382,-34.4088 L 156.045,-34.9389
 L 155.645,-35.4227 L 155.187,-35.8526 L 154.679,-36.2216 L 154.129,-36.5241 L 153.545,-36.7553 L 152.937,-36.9114
 L 152.314,-36.9901 L -152.314,-36.9901 L -152.937,-36.9114 L -153.545,-36.7553 L -154.129,-36.5241 L -154.679,-36.2216
 L -155.187,-35.8526 L -155.645,-35.4227 L -156.045,-34.9389 L -156.382,-34.4088 L -156.649,-33.8406 L -156.843,-33.2434
 L -156.961,-32.6267 L -157,-32 L -157,32 L -156.961,32.6267 L -156.843,33.2434 L -156.649,33.8406
 L -156.382,34.4088 L -156.045,34.9389 L -155.645,35.4227 L -155.187,35.8526 L -154.679,36.2216 L -154.129,36.5241
 L -153.545,36.7553 L -152.937,36.9114 L -152.314,36.9901 L 152.314,36.9901 z
M -150.188,-27.0059 L -150.562,-27.0531 L -150.927,-27.1468 L -151.277,-27.2855 L -151.607,-27.467 L -151.912,-27.6884
 L -152.187,-27.9464 L -152.427,-28.2366 L -152.629,-28.5547 L -152.789,-28.8956 L -152.906,-29.2539 L -152.976,-29.624
 L -153,-30 L -152.976,-30.376 L -152.906,-30.7461 L -152.789,-31.1044 L -152.629,-31.4453 L -152.427,-31.7634
 L -152.187,-32.0536 L -151.912,-32.3115 L -151.607,-32.533 L -151.277,-32.7145 L -150.927,-32.8532 L -150.562,-32.9469
 L -150.188,-32.9941 L -149.812,-32.9941 L -149.438,-32.9469 L -149.073,-32.8532 L -148.723,-32.7145 L -148.393,-32.533
 L -148.088,-32.3115 L -147.813,-32.0536 L -147.573,-31.7634 L -147.371,-31.4453 L -147.211,-31.1044 L -147.094,-30.7461
 L -147.024,-30.376 L -147,-30 L -147.024,-29.624 L -147.094,-29.2539 L -147.211,-28.8956 L -147.371,-28.5547
 L -147.573,-28.2366 L -147.813,-27.9464 L -148.088,-27.6884 L -148.393,-27.467 L -148.723,-27.2855 L -149.073,-27.1468
 L -149.438,-27.0531 L -149.812,-27.0059 z
M 149.812,-27.0059 L 149.438,-27.0531 L 149.073,-27.1468 L 148.723,-27.2855 L 148.393,-27.467 L 148.088,-27.6884
 L 147.813,-27.9464 L 147.573,-28.2366 L 147.371,-28.5547 L 147.211,-28.8956 L 147.094,-29.2539 L 147.024,-29.624
 L 147,-30 L 147.024,-30.376 L 147.094,-30.7461 L 147.211,-31.1044 L 147.371,-31.4453 L 147.573,-31.7634
 L 147.813,-32.0536 L 148.088,-32.3115 L 148.393,-32.533 L 148.723,-32.7145 L 149.073,-32.8532 L 149.438,-32.9469
 L 149.812,-32.9941 L 150.188,-32.9941 L 150.562,-32.9469 L 150.927,-32.8532 L 151.277,-32.7145 L 151.607,-32.533
 L 151.912,-32.3115 L 152.187,-32.0536 L 152.427,-31.7634 L 152.629,-31.4453 L 152.789,-31.1044 L 152.906,-30.7461
 L 152.976,-30.376 L 153,-30 L 152.976,-29.624 L 152.906,-29.2539 L 152.789,-28.8956 L 152.629,-28.5547
 L 152.427,-28.2366 L 152.187,-27.9464 L 151.912,-27.6884 L 151.607,-27.467 L 151.277,-27.2855 L 150.927,-27.1468
 L 150.562,-27.0531 L 150.188,-27.0059 z
M 59.2419,27.9447 L 55.7533,27.504 L 52.3475,26.6296 L 49.0782,25.3351 L 45.9968,23.6412 L 43.1521,21.5744
 L 40.5889,19.1673 L 38.3475,16.458 L 36.4634,13.4891 L 34.9662,10.3075 L 33.8797,6.9633 L 33.2208,3.50932
 L 33,-0 L 33.2208,-3.50932 L 33.8797,-6.9633 L 34.9662,-10.3075 L 36.4634,-13.4891 L 38.3475,-16.458
 L 40.5889,-19.1673 L 43.1521,-21.5744 L 45.9968,-23.6412 L 49.0782,-25.3351 L 52.3475,-26.6296 L 55.7533,-27.504
 L 59.2419,-27.9447 L 62.7581,-27.9447 L 66.2467,-27.504 L 69.6525,-26.6296 L 72.9218,-25.3351 L 76.0031,-23.6412
 L 78.8479,-21.5744 L 81.4111,-19.1673 L 83.6525,-16.458 L 85.5366,-13.4891 L 87.0337,-10.3075 L 88.1203,-6.9633
 L 88.7792,-3.50932 L 89,-0 L 88.7792,3.50932 L 88.1203,6.9633 L 87.0337,10.3075 L 85.5366,13.4891
 L 83.6525,16.458 L 81.4111,19.1673 L 78.8479,21.5744 L 76.0031,23.6412 L 72.9218,25.3351 L 69.6525,26.6296
 L 66.2467,27.504 L 62.7581,27.9447 z
M -1.75813,27.9447 L -5.24667,27.504 L -8.65247,26.6296 L -11.9218,25.3351 L -15.0031,23.6412 L -17.8479,21.5744
 L -20.4111,19.1673 L -22.6525,16.458 L -24.5366,13.4891 L -26.0337,10.3075 L -27.1203,6.9633 L -27.7792,3.50932
 L -28,-0 L -27.7792,-3.50932 L -27.1203,-6.9633 L -26.0337,-10.3075 L -24.5366,-13.4891 L -22.6525,-16.458
 L -20.4111,-19.1673 L -17.8479,-21.5744 L -15.0031,-23.6412 L -11.9218,-25.3351 L -8.65247,-26.6296 L -5.24667,-27.504
 L -1.75813,-27.9447 L 1.75813,-27.9447 L 5.24667,-27.504 L 8.65247,-26.6296 L 11.9218,-25.3351 L 15.0031,-23.6412
 L 17.8479,-21.5744 L 20.4111,-19.1673 L 22.6525,-16.458 L 24.5366,-13.4891 L 26.0337,-10.3075 L 27.1203,-6.9633
 L 27.7792,-3.50932 L 28,-0 L 27.7792,3.50932 L 27.1203,6.9633 L 26.0337,10.3075 L 24.5366,13.4891
 L 22.6525,16.458 L 20.4111,19.1673 L 17.8479,21.5744 L 15.0031,23.6412 L 11.9218,25.3351 L 8.65247,26.6296
 L 5.24667,27.504 L 1.75813,27.9447 z
M -62.7581,27.9447 L -66.2467,27.504 L -69.6525,26.6296 L -72.9218,25.3351 L -76.0031,23.6412 L -78.8479,21.5744
 L -81.4111,19.1673 L -83.6525,16.458 L -85.5366,13.4891 L -87.0337,10.3075 L -88.1203,6.9633 L -88.7792,3.50932
 L -89,-0 L -88.7792,-3.50932 L -88.1203,-6.9633 L -87.0337,-10.3075 L -85.5366,-13.4891 L -83.6525,-16.458
 L -81.4111,-19.1673 L -78.8479,-21.5744 L -76.0031,-23.6412 L -72.9218,-25.3351 L -69.6525,-26.6296 L -66.2467,-27.504
 L -62.7581,-27.9447 L -59.2419,-27.9447 L -55.7533,-27.504 L -52.3475,-26.6296 L -49.0782,-25.3351 L -45.9968,-23.6412
 L -43.1521,-21.5744 L -40.5889,-19.1673 L -38.3475,-16.458 L -36.4634,-13.4891 L -34.9662,-10.3075 L -33.8797,-6.9633
 L -33.2208,-3.50932 L -33,-0 L -33.2208,3.50932 L -33.8797,6.9633 L -34.9662,10.3075 L -36.4634,13.4891
 L -38.3475,16.458 L -40.5889,19.1673 L -43.1521,21.5744 L -45.9968,23.6412 L -49.0782,25.3351 L -52.3475,26.6296
 L -55.7533,27.504 L -59.2419,27.9447 z
M -123.758,27.9447 L -127.247,27.504 L -130.652,26.6296 L -133.922,25.3351 L -137.003,23.6412 L -139.848,21.5744
 L -142.411,19.1673 L -144.652,16.458 L -146.537,13.4891 L -148.034,10.3075 L -149.12,6.9633 L -149.779,3.50932
 L -150,-0 L -149.779,-3.50932 L -149.12,-6.9633 L -148.034,-10.3075 L -146.537,-13.4891 L -144.652,-16.458
 L -142.411,-19.1673 L -139.848,-21.5744 L -137.003,-23.6412 L -133.922,-25.3351 L -130.652,-26.6296 L -127.247,-27.504
 L -123.758,-27.9447 L -120.242,-27.9447 L -116.753,-27.504 L -113.348,-26.6296 L -110.078,-25.3351 L -106.997,-23.6412
 L -104.152,-21.5744 L -101.589,-19.1673 L -99.3475,-16.458 L -97.4634,-13.4891 L -95.9662,-10.3075 L -94.8797,-6.9633
 L -94.2208,-3.50932 L -94,-0 L -94.2208,3.50932 L -94.8797,6.9633 L -95.9662,10.3075 L -97.4634,13.4891
 L -99.3475,16.458 L -101.589,19.1673 L -104.152,21.5744 L -106.997,23.6412 L -110.078,25.3351 L -113.348,26.6296
 L -116.753,27.504 L -120.242,27.9447 z
M 120.242,27.9447 L 116.753,27.504 L 113.348,26.6296 L 110.078,25.3351 L 106.997,23.6412 L 104.152,21.5744
 L 101.589,19.1673 L 99.3475,16.458 L 97.4634,13.4891 L 95.9662,10.3075 L 94.8797,6.9633 L 94.2208,3.50932
 L 94,-0 L 94.2208,-3.50932 L 94.8797,-6.9633 L 95.9662,-10.3075 L 97.4634,-13.4891 L 99.3475,-16.458
 L 101.589,-19.1673 L 104.152,-21.5744 L 106.997,-23.6412 L 110.078,-25.3351 L 113.348,-26.6296 L 116.753,-27.504
 L 120.242,-27.9447 L 123.758,-27.9447 L 127.247,-27.504 L 130.652,-26.6296 L 133.922,-25.3351 L 137.003,-23.6412
 L 139.848,-21.5744 L 142.411,-19.1673 L 144.652,-16.458 L 146.537,-13.4891 L 148.034,-10.3075 L 149.12,-6.9633
 L 149.779,-3.50932 L 150,-0 L 149.779,3.50932 L 149.12,6.9633 L 148.034,10.3075 L 146.537,13.4891
 L 144.652,16.458 L 142.411,19.1673 L 139.848,21.5744 L 137.003,23.6412 L 133.922,25.3351 L 130.652,26.6296
 L 127.247,27.504 L 123.758,27.9447 z
M -150.188,32.9941 L -150.562,32.9469 L -150.927,32.8532 L -151.277,32.7145 L -151.607,32.533 L -151.912,32.3115
 L -152.187,32.0536 L -152.427,31.7634 L -152.629,31.4453 L -152.789,31.1044 L -152.906,30.7461 L -152.976,30.376
 L -153,30 L -152.976,29.624 L -152.906,29.2539 L -152.789,28.8956 L -152.629,28.5547 L -152.427,28.2366
 L -152.187,27.9464 L -151.912,27.6884 L -151.607,27.467 L -151.277,27.2855 L -150.927,27.1468 L -150.562,27.0531
 L -150.188,27.0059 L -149.812,27.0059 L -149.438,27.0531 L -149.073,27.1468 L -148.723,27.2855 L -148.393,27.467
 L -148.088,27.6884 L -147.813,27.9464 L -147.573,28.2366 L -147.371,28.5547 L -147.211,28.8956 L -147.094,29.2539
 L -147.024,29.624 L -147,30 L -147.024,30.376 L -147.094,30.7461 L -147.211,31.1044 L -147.371,31.4453
 L -147.573,31.7634 L -147.813,32.0536 L -148.088,32.3115 L -148.393,32.533 L -148.723,32.7145 L -149.073,32.8532
 L -149.438,32.9469 L -149.812,32.9941 z
M 149.812,32.9941 L 149.438,32.9469 L 149.073,32.8532 L 148.723,32.7145 L 148.393,32.533 L 148.088,32.3115
 L 147.813,32.0536 L 147.573,31.7634 L 147.371,31.4453 L 147.211,31.1044 L 147.094,30.7461 L 147.024,30.376
 L 147,30 L 147.024,29.624 L 147.094,29.2539 L 147.211,28.8956 L 147.371,28.5547 L 147.573,28.2366
 L 147.813,27.9464 L 148.088,27.6884 L 148.393,27.467 L 148.723,27.2855 L 149.073,27.1468 L 149.438,27.0531
 L 149.812,27.0059 L 150.188,27.0059 L 150.562,27.0531 L 150.927,27.1468 L 151.277,27.2855 L 151.607,27.467
 L 151.912,27.6884 L 152.187,27.9464 L 152.427,28.2366 L 152.629,28.5547 L 152.789,28.8956 L 152.906,29.2539
 L 152.976,29.624 L 153,30 L 152.976,30.376 L 152.906,30.7461 L 152.789,31.1044 L 152.629,31.4453
 L 152.427,31.7634 L 152.187,32.0536 L 151.912,32.3115 L 151.607,32.533 L 151.277,32.7145 L 150.927,32.8532
 L 150.562,32.9469 L 150.188,32.9941 z
" stroke="black" fill="lightgray" stroke-width="0.5"/>
</svg>
