<?xml version="1.0" standalone="no"?>
<!DOCTYPE svg PUBLIC "-//W3C//DTD SVG 1.1//EN" "http://www.w3.org/Graphics/SVG/1.1/DTD/svg11.dtd">
<svg width="164mm" height="218mm" viewBox="-82 -280 164 218" xmlns="http://www.w3.org/2000/svg" version="1.1">
<title>OpenSCAD Model</title>
<path d="
M 77.9369,-176.089 L 78.5451,-176.245 L 79.1289,-176.476 L 79.6791,-176.778 L 80.1871,-177.147 L 80.6448,-177.577
 L 81.0451,-178.061 L 81.3815,-178.591 L 81.6489,-179.159 L 81.8429,-179.757 L 81.9606,-180.373 L 82,-181
 L 82,-275 L 81.9606,-275.627 L 81.8429,-276.243 L 81.6489,-276.841 L 81.3815,-277.409 L 81.0451,-277.939
 L 80.6448,-278.423 L 80.1871,-278.853 L 79.6791,-279.222 L 79.1289,-279.524 L 78.5451,-279.755 L 77.9369,-279.911
 L 77.3139,-279.99 L -77.3139,-279.99 L -77.9369,-279.911 L -78.5451,-279.755 L -79.1289,-279.524 L -79.6791,-279.222
 L -80.1871,-278.853 L -80.6448,-278.423 L -81.0451,-277.939 L -81.3815,-277.409 L -81.6489,-276.841 L -81.8429,-276.243
 L -81.9606,-275.627 L -82,-275 L -82,-181 L -81.9606,-180.373 L -81.8429,-179.757 L -81.6489,-179.159
 L -81.3815,-178.591 L -81.0451,-178.061 L -80.6448,-177.577 L -80.1871,-177.147 L -79.6791,-176.778 L -79.1289,-176.476
 L -78.5451,-176.245 L -77.9369,-176.089 L -77.3139,-176.01 L 77.3139,-176.01 z
M 29.8116,-270.006 L 29.4379,-270.053 L 29.0729,-270.147 L 28.7227,-270.286 L 28.3925,-270.467 L 28.0877,-270.688
 L 27.8131,-270.946 L 27.5729,-271.237 L 27.3711,-271.555 L 27.2107,-271.896 L 27.0942,-272.254 L 27.0237,-272.624
 L 27,-273 L 27.0237,-273.376 L 27.0942,-273.746 L 27.2107,-274.104 L 27.3711,-274.445 L 27.5729,-274.763
 L 27.8131,-275.054 L 28.0877,-275.312 L 28.3925,-275.533 L 28.7227,-275.714 L 29.0729,-275.853 L 29.4379,-275.947
 L 29.8116,-275.994 L 30.1884,-275.994 L 30.5621,-275.947 L 30.927,-275.853 L 31.2773,-275.714 L 31.6075,-275.533
 L 31.9123,-275.312 L 32.1869,-275.054 L 32.427,-274.763 L 32.6289,-274.445 L 32.7893,-274.104 L 32.9057,-273.746
 L 32.9763,-273.376 L 33,-273 L 32.9763,-272.624 L 32.9057,-272.254 L 32.7893,-271.896 L 32.6289,-271.555
 L 32.427,-271.237 L 32.1869,-270.946 L 31.9123,-270.688 L 31.6075,-270.467 L 31.2773,-270.286 L 30.927,-270.147
 L 30.5621,-270.053 L 30.1884,-270.006 z
M 14.8116,-270.006 L 14.4379,-270.053 L 14.0729,-270.147 L 13.7227,-270.286 L 13.3925,-270.467 L 13.0877,-270.688
 L 12.8131,-270.946 L 12.5729,-271.237 L 12.3711,-271.555 L 12.2107,-271.896 L 12.0942,-272.254 L 12.0237,-272.624
 L 12,-273 L 12.0237,-273.376 L 12.0942,-273.746 L 12.2107,-274.104 L 12.3711,-274.445 L 12.5729,-274.763
 L 12.8131,-275.054 L 13.0877,-275.312 L 13.3925,-275.533 L 13.7227,-275.714 L 14.0729,-275.853 L 14.4379,-275.947
 L 14.8116,-275.994 L 15.1884,-275.994 L 15.5621,-275.947 L 15.927,-275.853 L 16.2773,-275.714 L 16.6075,-275.533
 L 16.9123,-275.312 L 17.1869,-275.054 L 17.427,-274.763 L 17.6289,-274.445 L 17.7893,-274.104 L 17.9057,-273.746
 L 17.9763,-273.376 L 18,-273 L 17.9763,-272.624 L 17.9057,-272.254 L 17.7893,-271.896 L 17.6289,-271.555
 L 17.427,-271.237 L 17.1869,-270.946 L 16.9123,-270.688 L 16.6075,-270.467 L 16.2773,-270.286 L 15.927,-270.147
 L 15.5621,-270.053 L 15.1884,-270.006 z
M 59.8116,-270.006 L 59.4379,-270.053 L 59.0729,-270.147 L 58.7227,-270.286 L 58.3925,-270.467 L 58.0877,-270.688
 L 57.8131,-270.946 L 57.5729,-271.237 L 57.3711,-271.555 L 57.2107,-271.896 L 57.0942,-272.254 L 57.0237,-272.624
 L 57,-273 L 57.0237,-273.376 L 57.0942,-273.746 L 57.2107,-274.104 L 57.3711,-274.445 L 57.5729,-274.763
 L 57.8131,-275.054 L 58.0877,-275.312 L 58.3925,-275.533 L 58.7227,-275.714 L 59.0729,-275.853 L 59.4379,-275.947
 L 59.8116,-275.994 L 60.1884,-275.994 L 60.5621,-275.947 L 60.927,-275.853 L 61.2773,-275.714 L 61.6075,-275.533
 L 61.9123,-275.312 L 62.1869,-275.054 L 62.427,-274.763 L 62.6289,-274.445 L 62.7893,-274.104 L 62.9057,-273.746
 L 62.9763,-273.376 L 63,-273 L 62.9763,-272.624 L 62.9057,-272.254 L 62.7893,-271.896 L 62.6289,-271.555
 L 62.427,-271.237 L 62.1869,-270.946 L 61.9123,-270.688 L 61.6075,-270.467 L 61.2773,-270.286 L 60.927,-270.147
 L 60.5621,-270.053 L 60.1884,-270.006 z
M -45.1884,-270.006 L -45.5621,-270.053 L -45.927,-270.147 L -46.2773,-270.286 L -46.6075,-270.467 L -46.9123,-270.688
 L -47.1869,-270.946 L -47.427,-271.237 L -47.6289,-271.555 L -47.7893,-271.896 L -47.9057,-272.254 L -47.9763,-272.624
 L -48,-273 L -47.9763,-273.376 L -47.9057,-273.746 L -47.7893,-274.104 L -47.6289,-274.445 L -47.427,-274.763
 L -47.1869,-275.054 L -46.9123,-275.312 L -46.6075,-275.533 L -46.2773,-275.714 L -45.927,-275.853 L -45.5621,-275.947
 L -45.1884,-275.994 L -44.8116,-275.994 L -44.4379,-275.947 L -44.0729,-275.853 L -43.7227,-275.714 L -43.3925,-275.533
 L -43.0877,-275.312 L -42.8131,-275.054 L -42.5729,-274.763 L -42.3711,-274.445 L -42.2107,-274.104 L -42.0942,-273.746
 L -42.0237,-273.376 L -42,-273 L -42.0237,-272.624 L -42.0942,-272.254 L -42.2107,-271.896 L -42.3711,-271.555
 L -42.5729,-271.237 L -42.8131,-270.946 L -43.0877,-270.688 L -43.3925,-270.467 L -43.7227,-270.286 L -44.0729,-270.147
 L -44.4379,-270.053 L -44.8116,-270.006 z
M 74.8116,-270.006 L 74.4379,-270.053 L 74.073,-270.147 L 73.7227,-270.286 L 73.3925,-270.467 L 73.0877,-270.688
 L 72.8131,-270.946 L 72.573,-271.237 L 72.3711,-271.555 L 72.2107,-271.896 L 72.0943,-272.254 L 72.0237,-272.624
 L 72,-273 L 72.0237,-273.376 L 72.0943,-273.746 L 72.2107,-274.104 L 72.3711,-274.445 L 72.573,-274.763
 L 72.8131,-275.054 L 73.0877,-275.312 L 73.3925,-275.533 L 73.7227,-275.714 L 74.073,-275.853 L 74.4379,-275.947
 L 74.8116,-275.994 L 75.1884,-275.994 L 75.5621,-275.947 L 75.927,-275.853 L 76.2773,-275.714 L 76.6075,-275.533
 L 76.9123,-275.312 L 77.1869,-275.054 L 77.427,-274.763 L 77.6289,-274.445 L 77.7893,-274.104 L 77.9057,-273.746
 L 77.9763,-273.376 L 78,-273 L 77.9763,-272.624 L 77.9057,-272.254 L 77.7893,-271.896 L 77.6289,-271.555
 L 77.427,-271.237 L 77.1869,-270.946 L 76.9123,-270.688 L 76.6075,-270.467 L 76.2773,-270.286 L 75.927,-270.147
 L 75.5621,-270.053 L 75.1884,-270.006 z
M -30.1884,-270.006 L -30.5621,-270.053 L -30.927,-270.147 L -31.2773,-270.286 L -31.6075,-270.467 L -31.9123,-270.688
 L -32.1869,-270.946 L -32.427,-271.237 L -32.6289,-271.555 L -32.7893,-271.896 L -32.9057,-272.254 L -32.9763,-272.624
 L -33,-273 L -32.9763,-273.376 L -32.9057,-273.746 L -32.7893,-274.104 L -32.6289,-274.445 L -32.427,-274.763
 L -32.1869,-275.054 L -31.9123,-275.312 L -31.6075,-275.533 L -31.2773,-275.714 L -30.927,-275.853 L -30.5621,-275.947
 L -30.1884,-275.994 L -29.8116,-275.994 L -29.4379,-275.947 L -29.0729,-275.853 L -28.7227,-275.714 L -28.3925,-275.533
 L -28.0877,-275.312 L -27.8131,-275.054 L -27.5729,-274.763 L -27.3711,-274.445 L -27.2107,-274.104 L -27.0942,-273.746
 L -27.0237,-273.376 L -27,-273 L -27.0237,-272.624 L -27.0942,-272.254 L -27.2107,-271.896 L -27.3711,-271.555
 L -27.5729,-271.237 L -27.8131,-270.946 L -28.0877,-270.688 L -28.3925,-270.467 L -28.7227,-270.286 L -29.0729,-270.147
 L -29.4379,-270.053 L -29.8116,-270.006 z
M -60.1884,-270.006 L -60.5621,-270.053 L -60.927,-270.147 L -61.2773,-270.286 L -61.6075,-270.467 L -61.9123,-270.688
 L -62.1869,-270.946 L -62.427,-271.237 L -62.6289,-271.555 L -62.7893,-271.896 L -62.9057,-272.254 L -62.9763,-272.624
 L -63,-273 L -62.9763,-273.376 L -62.9057,-273.746 L -62.7893,-274.104 L -62.6289,-274.445 L -62.427,-274.763
 L -62.1869,-275.054 L -61.9123,-275.312 L -61.6075,-275.533 L -61.2773,-275.714 L -60.927,-275.853 L -60.5621,-275.947
 L -60.1884,-275.994 L -59.8116,-275.994 L -59.4379,-275.947 L -59.0729,-275.853 L -58.7227,-275.714 L -58.3925,-275.533
 L -58.0877,-275.312 L -57.8131,-275.054 L -57.5729,-274.763 L -57.3711,-274.445 L -57.2107,-274.104 L -57.0942,-273.746
 L -57.0237,-273.376 L -57,-273 L -57.0237,-272.624 L -57.0942,-272.254 L -57.2107,-271.896 L -57.3711,-271.555
 L -57.5729,-271.237 L -57.8131,-270.946 L -58.0877,-270.688 L -58.3925,-270.467 L -58.7227,-270.286 L -59.0729,-270.147
 L -59.4379,-270.053 L -59.8116,-270.006 z
M -15.1884,-270.006 L -15.5621,-270.053 L -15.927,-270.147 L -16.2773,-270.286 L -16.6075,-270.467 L -16.9123,-270.688
 L -17.1869,-270.946 L -17.427,-271.237 L -17.6289,-271.555 L -17.7893,-271.896 L -17.9057,-272.254 L -17.9763,-272.624
 L -18,-273 L -17.9763,-273.376 L -17.9057,-273.746 L -17.7893,-274.104 L -17.6289,-274.445 L -17.427,-274.763
 L -17.1869,-275.054 L -16.9123,-275.312 L -16.6075,-275.533 L -16.2773,-275.714 L -15.927,-275.853 L -15.5621,-275.947
 L -15.1884,-275.994 L -14.8116,-275.994 L -14.4379,-275.947 L -14.0729,-275.853 L -13.7227,-275.714 L -13.3925,-275.533
 L -13.0877,-275.312 L -12.8131,-275.054 L -12.5729,-274.763 L -12.3711,-274.445 L -12.2107,-274.104 L -12.0942,-273.746
 L -12.0237,-273.376 L -12,-273 L -12.0237,-272.624 L -12.0942,-272.254 L -12.2107,-271.896 L -12.3711,-271.555
 L -12.5729,-271.237 L -12.8131,-270.946 L -13.0877,-270.688 L -13.3925,-270.467 L -13.7227,-270.286 L -14.0729,-270.147
 L -14.4379,-270.053 L -14.8116,-270.006 z
M 44.8116,-270.006 L 44.4379,-270.053 L 44.0729,-270.147 L 43.7227,-270.286 L 43.3925,-270.467 L 43.0877,-270.688
 L 42.8131,-270.946 L 42.5729,-271.237 L 42.3711,-271.555 L 42.2107,-271.896 L 42.0942,-272.254 L 42.0237,-272.624
 L 42,-273 L 42.0237,-273.376 L 42.0942,-273.746 L 42.2107,-274.104 L 42.3711,-274.445 L 42.5729,-274.763
 L 42.8131,-275.054 L 43.0877,-275.312 L 43.3925,-275.533 L 43.7227,-275.714 L 44.0729,-275.853 L 44.4379,-275.947
 L 44.8116,-275.994 L 45.1884,-275.994 L 45.5621,-275.947 L 45.927,-275.853 L 46.2773,-275.714 L 46.6075,-275.533
 L 46.9123,-275.312 L 47.1869,-275.054 L 47.427,-274.763 L 47.6289,-274.445 L 47.7893,-274.104 L 47.9057,-273.746
 L 47.9763,-273.376 L 48,-273 L 47.9763,-272.624 L 47.9057,-272.254 L 47.7893,-271.896 L 47.6289,-271.555
 L 47.427,-271.237 L 47.1869,-270.946 L 46.9123,-270.688 L 46.6075,-270.467 L 46.2773,-270.286 L 45.927,-270.147
 L 45.5621,-270.053 L 45.1884,-270.006 z
M -0.18837,-270.006 L -0.562134,-270.053 L -0.927048,-270.147 L -1.27733,-270.286 L -1.60747,-270.467 L -1.91226,-270.688
 L -2.1869,-270.946 L -2.42705,-271.237 L -2.62891,-271.555 L -2.78932,-271.896 L -2.90575,-272.254 L -2.97633,-272.624
 L -3,-273 L -2.97633,-273.376 L -2.90575,-273.746 L -2.78932,-274.104 L -2.62891,-274.445 L -2.42705,-274.763
 L -2.1869,-275.054 L -1.91226,-275.312 L -1.60747,-275.533 L -1.27733,-275.714 L -0.927048,-275.853 L -0.562134,-275.947
 L -0.18837,-275.994 L 0.18837,-275.994 L 0.562134,-275.947 L 0.927048,-275.853 L 1.27733,-275.714 L 1.60747,-275.533
 L 1.91226,-275.312 L 2.1869,-275.054 L 2.42705,-274.763 L 2.62891,-274.445 L 2.78932,-274.104 L 2.90575,-273.746
 L 2.97633,-273.376 L 3,-273 L 2.97633,-272.624 L 2.90575,-272.254 L 2.78932,-271.896 L 2.62891,-271.555
 L 2.42705,-271.237 L 2.1869,-270.946 L 1.91226,-270.688 L 1.60747,-270.467 L 1.27733,-270.286 L 0.927048,-270.147
 L 0.562134,-270.053 L 0.18837,-270.006 z
M -75.1884,-270.006 L -75.5621,-270.053 L -75.927,-270.147 L -76.2773,-270.286 L -76.6075,-270.467 L -76.9123,-270.688
 L -77.1869,-270.946 L -77.427,-271.237 L -77.6289,-271.555 L -77.7893,-271.896 L -77.9057,-272.254 L -77.9763,-272.624
 L -78,-273 L -77.9763,-273.376 L -77.9057,-273.746 L -77.7893,-274.104 L -77.6289,-274.445 L -77.427,-274.763
 L -77.1869,-275.054 L -76.9123,-275.312 L -76.6075,-275.533 L -76.2773,-275.714 L -75.927,-275.853 L -75.5621,-275.947
 L -75.1884,-275.994 L -74.8116,-275.994 L -74.4379,-275.947 L -74.073,-275.853 L -73.7227,-275.714 L -73.3925,-275.533
 L -73.0877,-275.312 L -72.8131,-275.054 L -72.573,-274.763 L -72.3711,-274.445 L -72.2107,-274.104 L -72.0943,-273.746
 L -72.0237,-273.376 L -72,-273 L -72.0237,-272.624 L -72.0943,-272.254 L -72.2107,-271.896 L -72.3711,-271.555
 L -72.573,-271.237 L -72.8131,-270.946 L -73.0877,-270.688 L -73.3925,-270.467 L -73.7227,-270.286 L -74.073,-270.147
 L -74.4379,-270.053 L -74.8116,-270.006 z
M 7.40581,-271.503 L 7.21892,-271.527 L 7.03647,-271.573 L 6.86133,-271.643 L 6.69626,-271.734 L 6.54385,-271.844
 L 6.40654,-271.973 L 6.28647,-272.118 L 6.18553,-272.277 L 6.10533,-272.448 L 6.04712,-272.627 L 6.01183,-272.812
 L 6,-273 L 6.01183,-273.188 L 6.04712,-273.373 L 6.10533,-273.552 L 6.18553,-273.723 L 6.28647,-273.882
 L 6.40654,-274.027 L 6.54385,-274.156 L 6.69626,-274.266 L 6.86133,-274.357 L 7.03647,-274.427 L 7.21892,-274.473
 L 7.40581,-274.497 L 7.59418,-274.497 L 7.78107,-274.473 L 7.96352,-274.427 L 8.13866,-274.357 L 8.30373,-274.266
 L 8.45613,-274.156 L 8.59344,-274.027 L 8.71352,-273.882 L 8.81445,-273.723 L 8.89465,-273.552 L 8.95287,-273.373
 L 8.98816,-273.188 L 9,-273 L 8.98816,-272.812 L 8.95287,-272.627 L 8.89465,-272.448 L 8.81445,-272.277
 L 8.71352,-272.118 L 8.59344,-271.973 L 8.45613,-271.844 L 8.30373,-271.734 L 8.13866,-271.643 L 7.96352,-271.573
 L 7.78107,-271.527 L 7.59418,-271.503 z
M 67.4058,-271.503 L 67.2189,-271.527 L 67.0365,-271.573 L 66.8613,-271.643 L 66.6963,-271.734 L 66.5439,-271.844
 L 66.4065,-271.973 L 66.2865,-272.118 L 66.1855,-272.277 L 66.1053,-272.448 L 66.0471,-272.627 L 66.0118,-272.812
 L 66,-273 L 66.0118,-273.188 L 66.0471,-273.373 L 66.1053,-273.552 L 66.1855,-273.723 L 66.2865,-273.882
 L 66.4065,-274.027 L 66.5439,-274.156 L 66.6963,-274.266 L 66.8613,-274.357 L 67.0365,-274.427 L 67.2189,-274.473
 L 67.4058,-274.497 L 67.5942,-274.497 L 67.7811,-274.473 L 67.9635,-274.427 L 68.1387,-274.357 L 68.3037,-274.266
 L 68.4561,-274.156 L 68.5934,-274.027 L 68.7135,-273.882 L 68.8145,-273.723 L 68.8947,-273.552 L 68.9529,-273.373
 L 68.9882,-273.188 L 69,-273 L 68.9882,-272.812 L 68.9529,-272.627 L 68.8947,-272.448 L 68.8145,-272.277
 L 68.7135,-272.118 L 68.5934,-271.973 L 68.4561,-271.844 L 68.3037,-271.734 L 68.1387,-271.643 L 67.9635,-271.573
 L 67.7811,-271.527 L 67.5942,-271.503 z
M -7.59418,-271.503 L -7.78107,-271.527 L -7.96352,-271.573 L -8.13866,-271.643 L -8.30373,-271.734 L -8.45613,-271.844
 L -8.59344,-271.973 L -8.71352,-272.118 L -8.81445,-272.277 L -8.89465,-272.448 L -8.95287,-272.627 L -8.98816,-272.812
 L -9,-273 L -8.98816,-273.188 L -8.95287,-273.373 L -8.89465,-273.552 L -8.81445,-273.723 L -8.71352,-273.882
 L -8.59344,-274.027 L -8.45613,-274.156 L -8.30373,-274.266 L -8.13866,-274.357 L -7.96352,-274.427 L -7.78107,-274.473
 L -7.59418,-274.497 L -7.40581,-274.497 L -7.21892,-274.473 L -7.03647,-274.427 L -6.86133,-274.357 L -6.69626,-274.266
 L -6.54385,-274.156 L -6.40654,-274.027 L -6.28647,-273.882 L -6.18553,-273.723 L -6.10533,-273.552 L -6.04712,-273.373
 L -6.01183,-273.188 L -6,-273 L -6.01183,-272.812 L -6.04712,-272.627 L -6.10533,-272.448 L -6.18553,-272.277
 L -6.28647,-272.118 L -6.40654,-271.973 L -6.54385,-271.844 L -6.69626,-271.734 L -6.86133,-271.643 L -7.03647,-271.573
 L -7.21892,-271.527 L -7.40581,-271.503 z
M -67.5942,-271.503 L -67.7811,-271.527 L -67.9635,-271.573 L -68.1387,-271.643 L -68.3037,-271.734 L -68.4561,-271.844
 L -68.5934,-271.973 L -68.7135,-272.118 L -68.8145,-272.277 L -68.8947,-272.448 L -68.9529,-272.627 L -68.9882,-272.812
 L -69,-273 L -68.9882,-273.188 L -68.9529,-273.373 L -68.8947,-273.552 L -68.8145,-273.723 L -68.7135,-273.882
 L -68.5934,-274.027 L -68.4561,-274.156 L -68.3037,-274.266 L -68.1387,-274.357 L -67.9635,-274.427 L -67.7811,-274.473
 L -67.5942,-274.497 L -67.4058,-274.497 L -67.2189,-274.473 L -67.0365,-274.427 L -66.8613,-274.357 L -66.6963,-274.266
 L -66.5439,-274.156 L -66.4065,-274.027 L -66.2865,-273.882 L -66.1855,-273.723 L -66.1053,-273.552 L -66.0471,-273.373
 L -66.0118,-273.188 L -66,-273 L -66.0118,-272.812 L -66.0471,-272.627 L -66.1053,-272.448 L -66.1855,-272.277
 L -66.2865,-272.118 L -66.4065,-271.973 L -66.5439,-271.844 L -66.6963,-271.734 L -66.8613,-271.643 L -67.0365,-271.573
 L -67.2189,-271.527 L -67.4058,-271.503 z
M -52.5942,-271.503 L -52.7811,-271.527 L -52.9635,-271.573 L -53.1387,-271.643 L -53.3037,-271.734 L -53.4561,-271.844
 L -53.5934,-271.973 L -53.7135,-272.118 L -53.8145,-272.277 L -53.8947,-272.448 L -53.9529,-272.627 L -53.9882,-272.812
 L -54,-273 L -53.9882,-273.188 L -53.9529,-273.373 L -53.8947,-273.552 L -53.8145,-273.723 L -53.7135,-273.882
 L -53.5934,-274.027 L -53.4561,-274.156 L -53.3037,-274.266 L -53.1387,-274.357 L -52.9635,-274.427 L -52.7811,-274.473
 L -52.5942,-274.497 L -52.4058,-274.497 L -52.2189,-274.473 L -52.0365,-274.427 L -51.8613,-274.357 L -51.6963,-274.266
 L -51.5439,-274.156 L -51.4065,-274.027 L -51.2865,-273.882 L -51.1855,-273.723 L -51.1053,-273.552 L -51.0471,-273.373
 L -51.0118,-273.188 L -51,-273 L -51.0118,-272.812 L -51.0471,-272.627 L -51.1053,-272.448 L -51.1855,-272.277
 L -51.2865,-272.118 L -51.4065,-271.973 L -51.5439,-271.844 L -51.6963,-271.734 L -51.8613,-271.643 L -52.0365,-271.573
 L -52.2189,-271.527 L -52.4058,-271.503 z
M 52.4058,-271.503 L 52.2189,-271.527 L 52.0365,-271.573 L 51.8613,-271.643 L 51.6963,-271.734 L 51.5439,-271.844
 L 51.4065,-271.973 L 51.2865,-272.118 L 51.1855,-272.277 L 51.1053,-272.448 L 51.0471,-272.627 L 51.0118,-272.812
 L 51,-273 L 51.0118,-273.188 L 51.0471,-273.373 L 51.1053,-273.552 L 51.1855,-273.723 L 51.2865,-273.882
 L 51.4065,-274.027 L 51.5439,-274.156 L 51.6963,-274.266 L 51.8613,-274.357 L 52.0365,-274.427 L 52.2189,-274.473
 L 52.4058,-274.497 L 52.5942,-274.497 L 52.7811,-274.473 L 52.9635,-274.427 L 53.1387,-274.357 L 53.3037,-274.266
 L 53.4561,-274.156 L 53.5934,-274.027 L 53.7135,-273.882 L 53.8145,-273.723 L 53.8947,-273.552 L 53.9529,-273.373
 L 53.9882,-273.188 L 54,-273 L 53.9882,-272.812 L 53.9529,-272.627 L 53.8947,-272.448 L 53.8145,-272.277
 L 53.7135,-272.118 L 53.5934,-271.973 L 53.4561,-271.844 L 53.3037,-271.734 L 53.1387,-271.643 L 52.9635,-271.573
 L 52.7811,-271.527 L 52.5942,-271.503 z
M 22.4058,-271.503 L 22.2189,-271.527 L 22.0365,-271.573 L 21.8613,-271.643 L 21.6963,-271.734 L 21.5439,-271.844
 L 21.4065,-271.973 L 21.2865,-272.118 L 21.1855,-272.277 L 21.1053,-272.448 L 21.0471,-272.627 L 21.0118,-272.812
 L 21,-273 L 21.0118,-273.188 L 21.0471,-273.373 L 21.1053,-273.552 L 21.1855,-273.723 L 21.2865,-273.882
 L 21.4065,-274.027 L 21.5439,-274.156 L 21.6963,-274.266 L 21.8613,-274.357 L 22.0365,-274.427 L 22.2189,-274.473
 L 22.4058,-274.497 L 22.5942,-274.497 L 22.7811,-274.473 L 22.9635,-274.427 L 23.1387,-274.357 L 23.3037,-274.266
 L 23.4561,-274.156 L 23.5934,-274.027 L 23.7135,-273.882 L 23.8145,-273.723 L 23.8947,-273.552 L 23.9529,-273.373
 L 23.9882,-273.188 L 24,-273 L 23.9882,-272.812 L 23.9529,-272.627 L 23.8947,-272.448 L 23.8145,-272.277
 L 23.7135,-272.118 L 23.5934,-271.973 L 23.4561,-271.844 L 23.3037,-271.734 L 23.1387,-271.643 L 22.9635,-271.573
 L 22.7811,-271.527 L 22.5942,-271.503 z
M -22.5942,-271.503 L -22.7811,-271.527 L -22.9635,-271.573 L -23.1387,-271.643 L -23.3037,-271.734 L -23.4561,-271.844
 L -23.5934,-271.973 L -23.7135,-272.118 L -23.8145,-272.277 L -23.8947,-272.448 L -23.9529,-272.627 L -23.9882,-272.812
 L -24,-273 L -23.9882,-273.188 L -23.9529,-273.373 L -23.8947,-273.552 L -23.8145,-273.723 L -23.7135,-273.882
 L -23.5934,-274.027 L -23.4561,-274.156 L -23.3037,-274.266 L -23.1387,-274.357 L -22.9635,-274.427 L -22.7811,-274.473
 L -22.5942,-274.497 L -22.4058,-274.497 L -22.2189,-274.473 L -22.0365,-274.427 L -21.8613,-274.357 L -21.6963,-274.266
 L -21.5439,-274.156 L -21.4065,-274.027 L -21.2865,-273.882 L -21.1855,-273.723 L -21.1053,-273.552 L -21.0471,-273.373
 L -21.0118,-273.188 L -21,-273 L -21.0118,-272.812 L -21.0471,-272.627 L -21.1053,-272.448 L -21.1855,-272.277
 L -21.2865,-272.118 L -21.4065,-271.973 L -21.5439,-271.844 L -21.6963,-271.734 L -21.8613,-271.643 L -22.0365,-271.573
 L -22.2189,-271.527 L -22.4058,-271.503 z
M 37.4058,-271.503 L 37.2189,-271.527 L 37.0365,-271.573 L 36.8613,-271.643 L 36.6963,-271.734 L 36.5439,-271.844
 L 36.4065,-271.973 L 36.2865,-272.118 L 36.1855,-272.277 L 36.1053,-272.448 L 36.0471,-272.627 L 36.0118,-272.812
 L 36,-273 L 36.0118,-273.188 L 36.0471,-273.373 L 36.1053,-273.552 L 36.1855,-273.723 L 36.2865,-273.882
 L 36.4065,-274.027 L 36.5439,-274.156 L 36.6963,-274.266 L 36.8613,-274.357 L 37.0365,-274.427 L 37.2189,-274.473
 L 37.4058,-274.497 L 37.5942,-274.497 L 37.7811,-274.473 L 37.9635,-274.427 L 38.1387,-274.357 L 38.3037,-274.266
 L 38.4561,-274.156 L 38.5934,-274.027 L 38.7135,-273.882 L 38.8145,-273.723 L 38.8947,-273.552 L 38.9529,-273.373
 L 38.9882,-273.188 L 39,-273 L 38.9882,-272.812 L 38.9529,-272.627 L 38.8947,-272.448 L 38.8145,-272.277
 L 38.7135,-272.118 L 38.5934,-271.973 L 38.4561,-271.844 L 38.3037,-271.734 L 38.1387,-271.643 L 37.9635,-271.573
 L 37.7811,-271.527 L 37.5942,-271.503 z
M -37.5942,-271.503 L -37.7811,-271.527 L -37.9635,-271.573 L -38.1387,-271.643 L -38.3037,-271.734 L -38.4561,-271.844
 L -38.5934,-271.973 L -38.7135,-272.118 L -38.8145,-272.277 L -38.8947,-272.448 L -38.9529,-272.627 L -38.9882,-272.812
 L -39,-273 L -38.9882,-273.188 L -38.9529,-273.373 L -38.8947,-273.552 L -38.8145,-273.723 L -38.7135,-273.882
 L -38.5934,-274.027 L -38.4561,-274.156 L -38.3037,-274.266 L -38.1387,-274.357 L -37.9635,-274.427 L -37.7811,-274.473
 L -37.5942,-274.497 L -37.4058,-274.497 L -37.2189,-274.473 L -37.0365,-274.427 L -36.8613,-274.357 L -36.6963,-274.266
 L -36.5439,-274.156 L -36.4065,-274.027 L -36.2865,-273.882 L -36.1855,-273.723 L -36.1053,-273.552 L -36.0471,-273.373
 L -36.0118,-273.188 L -36,-273 L -36.0118,-272.812 L -36.0471,-272.627 L -36.1053,-272.448 L -36.1855,-272.277
 L -36.2865,-272.118 L -36.4065,-271.973 L -36.5439,-271.844 L -36.6963,-271.734 L -36.8613,-271.643 L -37.0365,-271.573
 L -37.2189,-271.527 L -37.4058,-271.503 z
M -39.6977,-193.069 L -44.0583,-193.62 L -48.3156,-194.713 L -52.4023,-196.331 L -56.2539,-198.449 L -59.8098,-201.032
 L -63.0139,-204.041 L -65.8156,-207.428 L -68.1707,-211.139 L -70.0422,-215.116 L -71.4004,-219.296 L -72.224,-223.613
 L -72.5,-228 L -72.224,-232.387 L -71.4004,-236.704 L -70.0422,-240.884 L -68.1707,-244.861 L -65.8156,-248.572
 L -63.0139,-251.959 L -59.8098,-254.968 L -56.2539,-257.551 L -52.4023,-259.669 L -48.3156,-261.287 L -44.0583,-262.38
 L -39.6977,-262.931 L -35.3023,-262.931 L -30.9417,-262.38 L -26.6844,-261.287 L -22.5977,-259.669 L -18.746,-257.551
 L -15.1902,-254.968 L -11.9861,-251.959 L -9.1844,-248.572 L -6.82925,-244.861 L -4.95781,-240.884 L -3.59958,-236.704
 L -2.77597,-232.387 L -2.5,-228 L -2.77597,-223.613 L -3.59958,-219.296 L -4.95781,-215.116 L -6.82925,-211.139
 L -9.1844,-207.428 L -11.9861,-204.041 L -15.1902,-201.032 L -18.746,-198.449 L -22.5977,-196.331 L -26.6844,-194.713
 L -30.9417,-193.62 L -35.3023,-193.069 z
M 35.3023,-193.069 L 30.9417,-193.62 L 26.6844,-194.713 L 22.5977,-196.331 L 18.746,-198.449 L 15.1902,-201.032
 L 11.9861,-204.041 L 9.1844,-207.428 L 6.82925,-211.139 L 4.95781,-215.116 L 3.59958,-219.296 L 2.77597,-223.613
 L 2.5,-228 L 2.77597,-232.387 L 3.59958,-236.704 L 4.95781,-240.884 L 6.82925,-244.861 L 9.1844,-248.572
 L 11.9861,-251.959 L 15.1902,-254.968 L 18.746,-257.551 L 22.5977,-259.669 L 26.6844,-261.287 L 30.9417,-262.38
 L 35.3023,-262.931 L 39.6977,-262.931 L 44.0583,-262.38 L 48.3156,-261.287 L 52.4023,-259.669 L 56.2539,-257.551
 L 59.8098,-254.968 L 63.0139,-251.959 L 65.8156,-248.572 L 68.1707,-244.861 L 70.0422,-240.884 L 71.4004,-236.704
 L 72.224,-232.387 L 72.5,-228 L 72.224,-223.613 L 71.4004,-219.296 L 70.0422,-215.116 L 68.1707,-211.139
 L 65.8156,-207.428 L 63.0139,-204.041 L 59.8098,-201.032 L 56.2539,-198.449 L 52.4023,-196.331 L 48.3156,-194.713
 L 44.0583,-193.62 L 39.6977,-193.069 z
M -0.18837,-180.006 L -0.562134,-180.053 L -0.927048,-180.147 L -1.27733,-180.286 L -1.60747,-180.467 L -1.91226,-180.688
 L -2.1869,-180.946 L -2.42705,-181.237 L -2.62891,-181.555 L -2.78932,-181.896 L -2.90575,-182.254 L -2.97633,-182.624
 L -3,-183 L -2.97633,-183.376 L -2.90575,-183.746 L -2.78932,-184.104 L -2.62891,-184.445 L -2.42705,-184.763
 L -2.1869,-185.054 L -1.91226,-185.312 L -1.60747,-185.533 L -1.27733,-185.714 L -0.927048,-185.853 L -0.562134,-185.947
 L -0.18837,-185.994 L 0.18837,-185.994 L 0.562134,-185.947 L 0.927048,-185.853 L 1.27733,-185.714 L 1.60747,-185.533
 L 1.91226,-185.312 L 2.1869,-185.054 L 2.42705,-184.763 L 2.62891,-184.445 L 2.78932,-184.104 L 2.90575,-183.746
 L 2.97633,-183.376 L 3,-183 L 2.97633,-182.624 L 2.90575,-182.254 L 2.78932,-181.896 L 2.62891,-181.555
 L 2.42705,-181.237 L 2.1869,-180.946 L 1.91226,-180.688 L 1.60747,-180.467 L 1.27733,-180.286 L 0.927048,-180.147
 L 0.562134,-180.053 L 0.18837,-180.006 z
M 59.8116,-180.006 L 59.4379,-180.053 L 59.0729,-180.147 L 58.7227,-180.286 L 58.3925,-180.467 L 58.0877,-180.688
 L 57.8131,-180.946 L 57.5729,-181.237 L 57.3711,-181.555 L 57.2107,-181.896 L 57.0942,-182.254 L 57.0237,-182.624
 L 57,-183 L 57.0237,-183.376 L 57.0942,-183.746 L 57.2107,-184.104 L 57.3711,-184.445 L 57.5729,-184.763
 L 57.8131,-185.054 L 58.0877,-185.312 L 58.3925,-185.533 L 58.7227,-185.714 L 59.0729,-185.853 L 59.4379,-185.947
 L 59.8116,-185.994 L 60.1884,-185.994 L 60.5621,-185.947 L 60.927,-185.853 L 61.2773,-185.714 L 61.6075,-185.533
 L 61.9123,-185.312 L 62.1869,-185.054 L 62.427,-184.763 L 62.6289,-184.445 L 62.7893,-184.104 L 62.9057,-183.746
 L 62.9763,-183.376 L 63,-183 L 62.9763,-182.624 L 62.9057,-182.254 L 62.7893,-181.896 L 62.6289,-181.555
 L 62.427,-181.237 L 62.1869,-180.946 L 61.9123,-180.688 L 61.6075,-180.467 L 61.2773,-180.286 L 60.927,-180.147
 L 60.5621,-180.053 L 60.1884,-180.006 z
M 74.8116,-180.006 L 74.4379,-180.053 L 74.073,-180.147 L 73.7227,-180.286 L 73.3925,-180.467 L 73.0877,-180.688
 L 72.8131,-180.946 L 72.573,-181.237 L 72.3711,-181.555 L 72.2107,-181.896 L 72.0943,-182.254 L 72.0237,-182.624
 L 72,-183 L 72.0237,-183.376 L 72.0943,-183.746 L 72.2107,-184.104 L 72.3711,-184.445 L 72.573,-184.763
 L 72.8131,-185.054 L 73.0877,-185.312 L 73.3925,-185.533 L 73.7227,-185.714 L 74.073,-185.853 L 74.4379,-185.947
 L 74.8116,-185.994 L 75.1884,-185.994 L 75.5621,-185.947 L 75.927,-185.853 L 76.2773,-185.714 L 76.6075,-185.533
 L 76.9123,-185.312 L 77.1869,-185.054 L 77.427,-184.763 L 77.6289,-184.445 L 77.7893,-184.104 L 77.9057,-183.746
 L 77.9763,-183.376 L 78,-183 L 77.9763,-182.624 L 77.9057,-182.254 L 77.7893,-181.896 L 77.6289,-181.555
 L 77.427,-181.237 L 77.1869,-180.946 L 76.9123,-180.688 L 76.6075,-180.467 L 76.2773,-180.286 L 75.927,-180.147
 L 75.5621,-180.053 L 75.1884,-180.006 z
M -60.1884,-180.006 L -60.5621,-180.053 L -60.927,-180.147 L -61.2773,-180.286 L -61.6075,-180.467 L -61.9123,-180.688
 L -62.1869,-180.946 L -62.427,-181.237 L -62.6289,-181.555 L -62.7893,-181.896 L -62.9057,-182.254 L -62.9763,-182.624
 L -63,-183 L -62.9763,-183.376 L -62.9057,-183.746 L -62.7893,-184.104 L -62.6289,-184.445 L -62.427,-184.763
 L -62.1869,-185.054 L -61.9123,-185.312 L -61.6075,-185.533 L -61.2773,-185.714 L -60.927,-185.853 L -60.5621,-185.947
 L -60.1884,-185.994 L -59.8116,-185.994 L -59.4379,-185.947 L -59.0729,-185.853 L -58.7227,-185.714 L -58.3925,-185.533
 L -58.0877,-185.312 L -57.8131,-185.054 L -57.5729,-184.763 L -57.3711,-184.445 L -57.2107,-184.104 L -57.0942,-183.746
 L -57.0237,-183.376 L -57,-183 L -57.0237,-182.624 L -57.0942,-182.254 L -57.2107,-181.896 L -57.3711,-181.555
 L -57.5729,-181.237 L -57.8131,-180.946 L -58.0877,-180.688 L -58.3925,-180.467 L -58.7227,-180.286 L -59.0729,-180.147
 L -59.4379,-180.053 L -59.8116,-180.006 z
M 29.8116,-180.006 L 29.4379,-180.053 L 29.0729,-180.147 L 28.7227,-180.286 L 28.3925,-180.467 L 28.0877,-180.688
 L 27.8131,-180.946 L 27.5729,-181.237 L 27.3711,-181.555 L 27.2107,-181.896 L 27.0942,-182.254 L 27.0237,-182.624
 L 27,-183 L 27.0237,-183.376 L 27.0942,-183.746 L 27.2107,-184.104 L 27.3711,-184.445 L 27.5729,-184.763
 L 27.8131,-185.054 L 28.0877,-185.312 L 28.3925,-185.533 L 28.7227,-185.714 L 29.0729,-185.853 L 29.4379,-185.947
 L 29.8116,-185.994 L 30.1884,-185.994 L 30.5621,-185.947 L 30.927,-185.853 L 31.2773,-185.714 L 31.6075,-185.533
 L 31.9123,-185.312 L 32.1869,-185.054 L 32.427,-184.763 L 32.6289,-184.445 L 32.7893,-184.104 L 32.9057,-183.746
 L 32.9763,-183.376 L 33,-183 L 32.9763,-182.624 L 32.9057,-182.254 L 32.7893,-181.896 L 32.6289,-181.555
 L 32.427,-181.237 L 32.1869,-180.946 L 31.9123,-180.688 L 31.6075,-180.467 L 31.2773,-180.286 L 30.927,-180.147
 L 30.5621,-180.053 L 30.1884,-180.006 z
M 44.8116,-180.006 L 44.4379,-180.053 L 44.0729,-180.147 L 43.7227,-180.286 L 43.3925,-180.467 L 43.0877,-180.688
 L 42.8131,-180.946 L 42.5729,-181.237 L 42.3711,-181.555 L 42.2107,-181.896 L 42.0942,-182.254 L 42.0237,-182.624
 L 42,-183 L 42.0237,-183.376 L 42.0942,-183.746 L 42.2107,-184.104 L 42.3711,-184.445 L 42.5729,-184.763
 L 42.8131,-185.054 L 43.0877,-185.312 L 43.3925,-185.533 L 43.7227,-185.714 L 44.0729,-185.853 L 44.4379,-185.947
 L 44.8116,-185.994 L 45.1884,-185.994 L 45.5621,-185.947 L 45.927,-185.853 L 46.2773,-185.714 L 46.6075,-185.533
 L 46.9123,-185.312 L 47.1869,-185.054 L 47.427,-184.763 L 47.6289,-184.445 L 47.7893,-184.104 L 47.9057,-183.746
 L 47.9763,-183.376 L 48,-183 L 47.9763,-182.624 L 47.9057,-182.254 L 47.7893,-181.896 L 47.6289,-181.555
 L 47.427,-181.237 L 47.1869,-180.946 L 46.9123,-180.688 L 46.6075,-180.467 L 46.2773,-180.286 L 45.927,-180.147
 L 45.5621,-180.053 L 45.1884,-180.006 z
M -45.1884,-180.006 L -45.5621,-180.053 L -45.927,-180.147 L -46.2773,-180.286 L -46.6075,-180.467 L -46.9123,-180.688
 L -47.1869,-180.946 L -47.427,-181.237 L -47.6289,-181.555 L -47.7893,-181.896 L -47.9057,-182.254 L -47.9763,-182.624
 L -48,-183 L -47.9763,-183.376 L -47.9057,-183.746 L -47.7893,-184.104 L -47.6289,-184.445 L -47.427,-184.763
 L -47.1869,-185.054 L -46.9123,-185.312 L -46.6075,-185.533 L -46.2773,-185.714 L -45.927,-185.853 L -45.5621,-185.947
 L -45.1884,-185.994 L -44.8116,-185.994 L -44.4379,-185.947 L -44.0729,-185.853 L -43.7227,-185.714 L -43.3925,-185.533
 L -43.0877,-185.312 L -42.8131,-185.054 L -42.5729,-184.763 L -42.3711,-184.445 L -42.2107,-184.104 L -42.0942,-183.746
 L -42.0237,-183.376 L -42,-183 L -42.0237,-182.624 L -42.0942,-182.254 L -42.2107,-181.896 L -42.3711,-181.555
 L -42.5729,-181.237 L -42.8131,-180.946 L -43.0877,-180.688 L -43.3925,-180.467 L -43.7227,-180.286 L -44.0729,-180.147
 L -44.4379,-180.053 L -44.8116,-180.006 z
M -30.1884,-180.006 L -30.5621,-180.053 L -30.927,-180.147 L -31.2773,-180.286 L -31.6075,-180.467 L -31.9123,-180.688
 L -32.1869,-180.946 L -32.427,-181.237 L -32.6289,-181.555 L -32.7893,-181.896 L -32.9057,-182.254 L -32.9763,-182.624
 L -33,-183 L -32.9763,-183.376 L -32.9057,-183.746 L -32.7893,-184.104 L -32.6289,-184.445 L -32.427,-184.763
 L -32.1869,-185.054 L -31.9123,-185.312 L -31.6075,-185.533 L -31.2773,-185.714 L -30.927,-185.853 L -30.5621,-185.947
 L -30.1884,-185.994 L -29.8116,-185.994 L -29.4379,-185.947 L -29.0729,-185.853 L -28.7227,-185.714 L -28.3925,-185.533
 L -28.0877,-185.312 L -27.8131,-185.054 L -27.5729,-184.763 L -27.3711,-184.445 L -27.2107,-184.104 L -27.0942,-183.746
 L -27.0237,-183.376 L -27,-183 L -27.0237,-182.624 L -27.0942,-182.254 L -27.2107,-181.896 L -27.3711,-181.555
 L -27.5729,-181.237 L -27.8131,-180.946 L -28.0877,-180.688 L -28.3925,-180.467 L -28.7227,-180.286 L -29.0729,-180.147
 L -29.4379,-180.053 L -29.8116,-180.006 z
M -15.1884,-180.006 L -15.5621,-180.053 L -15.927,-180.147 L -16.2773,-180.286 L -16.6075,-180.467 L -16.9123,-180.688
 L -17.1869,-180.946 L -17.427,-181.237 L -17.6289,-181.555 L -17.7893,-181.896 L -17.9057,-182.254 L -17.9763,-182.624
 L -18,-183 L -17.9763,-183.376 L -17.9057,-183.746 L -17.7893,-184.104 L -17.6289,-184.445 L -17.427,-184.763
 L -17.1869,-185.054 L -16.9123,-185.312 L -16.6075,-185.533 L -16.2773,-185.714 L -15.927,-185.853 L -15.5621,-185.947
 L -15.1884,-185.994 L -14.8116,-185.994 L -14.4379,-185.947 L -14.0729,-185.853 L -13.7227,-185.714 L -13.3925,-185.533
 L -13.0877,-185.312 L -12.8131,-185.054 L -12.5729,-184.763 L -12.3711,-184.445 L -12.2107,-184.104 L -12.0942,-183.746
 L -12.0237,-183.376 L -12,-183 L -12.0237,-182.624 L -12.0942,-182.254 L -12.2107,-181.896 L -12.3711,-181.555
 L -12.5729,-181.237 L -12.8131,-180.946 L -13.0877,-180.688 L -13.3925,-180.467 L -13.7227,-180.286 L -14.0729,-180.147
 L -14.4379,-180.053 L -14.8116,-180.006 z
M 14.8116,-180.006 L 14.4379,-180.053 L 14.0729,-180.147 L 13.7227,-180.286 L 13.3925,-180.467 L 13.0877,-180.688
 L 12.8131,-180.946 L 12.5729,-181.237 L 12.3711,-181.555 L 12.2107,-181.896 L 12.0942,-182.254 L 12.0237,-182.624
 L 12,-183 L 12.0237,-183.376 L 12.0942,-183.746 L 12.2107,-184.104 L 12.3711,-184.445 L 12.5729,-184.763
 L 12.8131,-185.054 L 13.0877,-185.312 L 13.3925,-185.533 L 13.7227,-185.714 L 14.0729,-185.853 L 14.4379,-185.947
 L 14.8116,-185.994 L 15.1884,-185.994 L 15.5621,-185.947 L 15.927,-185.853 L 16.2773,-185.714 L 16.6075,-185.533
 L 16.9123,-185.312 L 17.1869,-185.054 L 17.427,-184.763 L 17.6289,-184.445 L 17.7893,-184.104 L 17.9057,-183.746
 L 17.9763,-183.376 L 18,-183 L 17.9763,-182.624 L 17.9057,-182.254 L 17.7893,-181.896 L 17.6289,-181.555
 L 17.427,-181.237 L 17.1869,-180.946 L 16.9123,-180.688 L 16.6075,-180.467 L 16.2773,-180.286 L 15.927,-180.147
 L 15.5621,-180.053 L 15.1884,-180.006 z
M -75.1884,-180.006 L -75.5621,-180.053 L -75.927,-180.147 L -76.2773,-180.286 L -76.6075,-180.467 L -76.9123,-180.688
 L -77.1869,-180.946 L -77.427,-181.237 L -77.6289,-181.555 L -77.7893,-181.896 L -77.9057,-182.254 L -77.9763,-182.624
 L -78,-183 L -77.9763,-183.376 L -77.9057,-183.746 L -77.7893,-184.104 L -77.6289,-184.445 L -77.427,-184.763
 L -77.1869,-185.054 L -76.9123,-185.312 L -76.6075,-185.533 L -76.2773,-185.714 L -75.927,-185.853 L -75.5621,-185.947
 L -75.1884,-185.994 L -74.8116,-185.994 L -74.4379,-185.947 L -74.073,-185.853 L -73.7227,-185.714 L -73.3925,-185.533
 L -73.0877,-185.312 L -72.8131,-185.054 L -72.573,-184.763 L -72.3711,-184.445 L -72.2107,-184.104 L -72.0943,-183.746
 L -72.0237,-183.376 L -72,-183 L -72.0237,-182.624 L -72.0943,-182.254 L -72.2107,-181.896 L -72.3711,-181.555
 L -72.573,-181.237 L -72.8131,-180.946 L -73.0877,-180.688 L -73.3925,-180.467 L -73.7227,-180.286 L -74.073,-180.147
 L -74.4379,-180.053 L -74.8116,-180.006 z
M -67.5942,-181.503 L -67.7811,-181.527 L -67.9635,-181.573 L -68.1387,-181.643 L -68.3037,-181.734 L -68.4561,-181.844
 L -68.5934,-181.973 L -68.7135,-182.118 L -68.8145,-182.277 L -68.8947,-182.448 L -68.9529,-182.627 L -68.9882,-182.812
 L -69,-183 L -68.9882,-183.188 L -68.9529,-183.373 L -68.8947,-183.552 L -68.8145,-183.723 L -68.7135,-183.882
 L -68.5934,-184.027 L -68.4561,-184.156 L -68.3037,-184.266 L -68.1387,-184.357 L -67.9635,-184.427 L -67.7811,-184.473
 L -67.5942,-184.497 L -67.4058,-184.497 L -67.2189,-184.473 L -67.0365,-184.427 L -66.8613,-184.357 L -66.6963,-184.266
 L -66.5439,-184.156 L -66.4065,-184.027 L -66.2865,-183.882 L -66.1855,-183.723 L -66.1053,-183.552 L -66.0471,-183.373
 L -66.0118,-183.188 L -66,-183 L -66.0118,-182.812 L -66.0471,-182.627 L -66.1053,-182.448 L -66.1855,-182.277
 L -66.2865,-182.118 L -66.4065,-181.973 L -66.5439,-181.844 L -66.6963,-181.734 L -66.8613,-181.643 L -67.0365,-181.573
 L -67.2189,-181.527 L -67.4058,-181.503 z
M -37.5942,-181.503 L -37.7811,-181.527 L -37.9635,-181.573 L -38.1387,-181.643 L -38.3037,-181.734 L -38.4561,-181.844
 L -38.5934,-181.973 L -38.7135,-182.118 L -38.8145,-182.277 L -38.8947,-182.448 L -38.9529,-182.627 L -38.9882,-182.812
 L -39,-183 L -38.9882,-183.188 L -38.9529,-183.373 L -38.8947,-183.552 L -38.8145,-183.723 L -38.7135,-183.882
 L -38.5934,-184.027 L -38.4561,-184.156 L -38.3037,-184.266 L -38.1387,-184.357 L -37.9635,-184.427 L -37.7811,-184.473
 L -37.5942,-184.497 L -37.4058,-184.497 L -37.2189,-184.473 L -37.0365,-184.427 L -36.8613,-184.357 L -36.6963,-184.266
 L -36.5439,-184.156 L -36.4065,-184.027 L -36.2865,-183.882 L -36.1855,-183.723 L -36.1053,-183.552 L -36.0471,-183.373
 L -36.0118,-183.188 L -36,-183 L -36.0118,-182.812 L -36.0471,-182.627 L -36.1053,-182.448 L -36.1855,-182.277
 L -36.2865,-182.118 L -36.4065,-181.973 L -36.5439,-181.844 L -36.6963,-181.734 L -36.8613,-181.643 L -37.0365,-181.573
 L -37.2189,-181.527 L -37.4058,-181.503 z
M -7.59418,-181.503 L -7.78107,-181.527 L -7.96352,-181.573 L -8.13866,-181.643 L -8.30373,-181.734 L -8.45613,-181.844
 L -8.59344,-181.973 L -8.71352,-182.118 L -8.81445,-182.277 L -8.89465,-182.448 L -8.95287,-182.627 L -8.98816,-182.812
 L -9,-183 L -8.98816,-183.188 L -8.95287,-183.373 L -8.89465,-183.552 L -8.81445,-183.723 L -8.71352,-183.882
 L -8.59344,-184.027 L -8.45613,-184.156 L -8.30373,-184.266 L -8.13866,-184.357 L -7.96352,-184.427 L -7.78107,-184.473
 L -7.59418,-184.497 L -7.40581,-184.497 L -7.21892,-184.473 L -7.03647,-184.427 L -6.86133,-184.357 L -6.69626,-184.266
 L -6.54385,-184.156 L -6.40654,-184.027 L -6.28647,-183.882 L -6.18553,-183.723 L -6.10533,-183.552 L -6.04712,-183.373
 L -6.01183,-183.188 L -6,-183 L -6.01183,-182.812 L -6.04712,-182.627 L -6.10533,-182.448 L -6.18553,-182.277
 L -6.28647,-182.118 L -6.40654,-181.973 L -6.54385,-181.844 L -6.69626,-181.734 L -6.86133,-181.643 L -7.03647,-181.573
 L -7.21892,-181.527 L -7.40581,-181.503 z
M 7.40581,-181.503 L 7.21892,-181.527 L 7.03647,-181.573 L 6.86133,-181.643 L 6.69626,-181.734 L 6.54385,-181.844
 L 6.40654,-181.973 L 6.28647,-182.118 L 6.18553,-182.277 L 6.10533,-182.448 L 6.04712,-182.627 L 6.01183,-182.812
 L 6,-183 L 6.01183,-183.188 L 6.04712,-183.373 L 6.10533,-183.552 L 6.18553,-183.723 L 6.28647,-183.882
 L 6.40654,-184.027 L 6.54385,-184.156 L 6.69626,-184.266 L 6.86133,-184.357 L 7.03647,-184.427 L 7.21892,-184.473
 L 7.40581,-184.497 L 7.59418,-184.497 L 7.78107,-184.473 L 7.96352,-184.427 L 8.13866,-184.357 L 8.30373,-184.266
 L 8.45613,-184.156 L 8.59344,-184.027 L 8.71352,-183.882 L 8.81445,-183.723 L 8.89465,-183.552 L 8.95287,-183.373
 L 8.98816,-183.188 L 9,-183 L 8.98816,-182.812 L 8.95287,-182.627 L 8.89465,-182.448 L 8.81445,-182.277
 L 8.71352,-182.118 L 8.59344,-181.973 L 8.45613,-181.844 L 8.30373,-181.734 L 8.13866,-181.643 L 7.96352,-181.573
 L 7.78107,-181.527 L 7.59418,-181.503 z
M -22.5942,-181.503 L -22.7811,-181.527 L -22.9635,-181.573 L -23.1387,-181.643 L -23.3037,-181.734 L -23.4561,-181.844
 L -23.5934,-181.973 L -23.7135,-182.118 L -23.8145,-182.277 L -23.8947,-182.448 L -23.9529,-182.627 L -23.9882,-182.812
 L -24,-183 L -23.9882,-183.188 L -23.9529,-183.373 L -23.8947,-183.552 L -23.8145,-183.723 L -23.7135,-183.882
 L -23.5934,-184.027 L -23.4561,-184.156 L -23.3037,-184.266 L -23.1387,-184.357 L -22.9635,-184.427 L -22.7811,-184.473
 L -22.5942,-184.497 L -22.4058,-184.497 L -22.2189,-184.473 L -22.0365,-184.427 L -21.8613,-184.357 L -21.6963,-184.266
 L -21.5439,-184.156 L -21.4065,-184.027 L -21.2865,-183.882 L -21.1855,-183.723 L -21.1053,-183.552 L -21.0471,-183.373
 L -21.0118,-183.188 L -21,-183 L -21.0118,-182.812 L -21.0471,-182.627 L -21.1053,-182.448 L -21.1855,-182.277
 L -21.2865,-182.118 L -21.4065,-181.973 L -21.5439,-181.844 L -21.6963,-181.734 L -21.8613,-181.643 L -22.0365,-181.573
 L -22.2189,-181.527 L -22.4058,-181.503 z
M 22.4058,-181.503 L 22.2189,-181.527 L 22.0365,-181.573 L 21.8613,-181.643 L 21.6963,-181.734 L 21.5439,-181.844
 L 21.4065,-181.973 L 21.2865,-182.118 L 21.1855,-182.277 L 21.1053,-182.448 L 21.0471,-182.627 L 21.0118,-182.812
 L 21,-183 L 21.0118,-183.188 L 21.0471,-183.373 L 21.1053,-183.552 L 21.1855,-183.723 L 21.2865,-183.882
 L 21.4065,-184.027 L 21.5439,-184.156 L 21.6963,-184.266 L 21.8613,-184.357 L 22.0365,-184.427 L 22.2189,-184.473
 L 22.4058,-184.497 L 22.5942,-184.497 L 22.7811,-184.473 L 22.9635,-184.427 L 23.1387,-184.357 L 23.3037,-184.266
 L 23.4561,-184.156 L 23.5934,-184.027 L 23.7135,-183.882 L 23.8145,-183.723 L 23.8947,-183.552 L 23.9529,-183.373
 L 23.9882,-183.188 L 24,-183 L 23.9882,-182.812 L 23.9529,-182.627 L 23.8947,-182.448 L 23.8145,-182.277
 L 23.7135,-182.118 L 23.5934,-181.973 L 23.4561,-181.844 L 23.3037,-181.734 L 23.1387,-181.643 L 22.9635,-181.573
 L 22.7811,-181.527 L 22.5942,-181.503 z
M 67.4058,-181.503 L 67.2189,-181.527 L 67.0365,-181.573 L 66.8613,-181.643 L 66.6963,-181.734 L 66.5439,-181.844
 L 66.4065,-181.973 L 66.2865,-182.118 L 66.1855,-182.277 L 66.1053,-182.448 L 66.0471,-182.627 L 66.0118,-182.812
 L 66,-183 L 66.0118,-183.188 L 66.0471,-183.373 L 66.1053,-183.552 L 66.1855,-183.723 L 66.2865,-183.882
 L 66.4065,-184.027 L 66.5439,-184.156 L 66.6963,-184.266 L 66.8613,-184.357 L 67.0365,-184.427 L 67.2189,-184.473
 L 67.4058,-184.497 L 67.5942,-184.497 L 67.7811,-184.473 L 67.9635,-184.427 L 68.1387,-184.357 L 68.3037,-184.266
 L 68.4561,-184.156 L 68.5934,-184.027 L 68.7135,-183.882 L 68.8145,-183.723 L 68.8947,-183.552 L 68.9529,-183.373
 L 68.9882,-183.188 L 69,-183 L 68.9882,-182.812 L 68.9529,-182.627 L 68.8947,-182.448 L 68.8145,-182.277
 L 68.7135,-182.118 L 68.5934,-181.973 L 68.4561,-181.844 L 68.3037,-181.734 L 68.1387,-181.643 L 67.9635,-181.573
 L 67.7811,-181.527 L 67.5942,-181.503 z
M -52.5942,-181.503 L -52.7811,-181.527 L -52.9635,-181.573 L -53.1387,-181.643 L -53.3037,-181.734 L -53.4561,-181.844
 L -53.5934,-181.973 L -53.7135,-182.118 L -53.8145,-182.277 L -53.8947,-182.448 L -53.9529,-182.627 L -53.9882,-182.812
 L -54,-183 L -53.9882,-183.188 L -53.9529,-183.373 L -53.8947,-183.552 L -53.8145,-183.723 L -53.7135,-183.882
 L -53.5934,-184.027 L -53.4561,-184.156 L -53.3037,-184.266 L -53.1387,-184.357 L -52.9635,-184.427 L -52.7811,-184.473
 L -52.5942,-184.497 L -52.4058,-184.497 L -52.2189,-184.473 L -52.0365,-184.427 L -51.8613,-184.357 L -51.6963,-184.266
 L -51.5439,-184.156 L -51.4065,-184.027 L -51.2865,-183.882 L -51.1855,-183.723 L -51.1053,-183.552 L -51.0471,-183.373
 L -51.0118,-183.188 L -51,-183 L -51.0118,-182.812 L -51.0471,-182.627 L -51.1053,-182.448 L -51.1855,-182.277
 L -51.2865,-182.118 L -51.4065,-181.973 L -51.5439,-181.844 L -51.6963,-181.734 L -51.8613,-181.643 L -52.0365,-181.573
 L -52.2189,-181.527 L -52.4058,-181.503 z
M 52.4058,-181.503 L 52.2189,-181.527 L 52.0365,-181.573 L 51.8613,-181.643 L 51.6963,-181.734 L 51.5439,-181.844
 L 51.4065,-181.973 L 51.2865,-182.118 L 51.1855,-182.277 L 51.1053,-182.448 L 51.0471,-182.627 L 51.0118,-182.812
 L 51,-183 L 51.0118,-183.188 L 51.0471,-183.373 L 51.1053,-183.552 L 51.1855,-183.723 L 51.2865,-183.882
 L 51.4065,-184.027 L 51.5439,-184.156 L 51.6963,-184.266 L 51.8613,-184.357 L 52.0365,-184.427 L 52.2189,-184.473
 L 52.4058,-184.497 L 52.5942,-184.497 L 52.7811,-184.473 L 52.9635,-184.427 L 53.1387,-184.357 L 53.3037,-184.266
 L 53.4561,-184.156 L 53.5934,-184.027 L 53.7135,-183.882 L 53.8145,-183.723 L 53.8947,-183.552 L 53.9529,-183.373
 L 53.9882,-183.188 L 54,-183 L 53.9882,-182.812 L 53.9529,-182.627 L 53.8947,-182.448 L 53.8145,-182.277
 L 53.7135,-182.118 L 53.5934,-181.973 L 53.4561,-181.844 L 53.3037,-181.734 L 53.1387,-181.643 L 52.9635,-181.573
 L 52.7811,-181.527 L 52.5942,-181.503 z
M 37.4058,-181.503 L 37.2189,-181.527 L 37.0365,-181.573 L 36.8613,-181.643 L 36.6963,-181.734 L 36.5439,-181.844
 L 36.4065,-181.973 L 36.2865,-182.118 L 36.1855,-182.277 L 36.1053,-182.448 L 36.0471,-182.627 L 36.0118,-182.812
 L 36,-183 L 36.0118,-183.188 L 36.0471,-183.373 L 36.1053,-183.552 L 36.1855,-183.723 L 36.2865,-183.882
 L 36.4065,-184.027 L 36.5439,-184.156 L 36.6963,-184.266 L 36.8613,-184.357 L 37.0365,-184.427 L 37.2189,-184.473
 L 37.4058,-184.497 L 37.5942,-184.497 L 37.7811,-184.473 L 37.9635,-184.427 L 38.1387,-184.357 L 38.3037,-184.266
 L 38.4561,-184.156 L 38.5934,-184.027 L 38.7135,-183.882 L 38.8145,-183.723 L 38.8947,-183.552 L 38.9529,-183.373
 L 38.9882,-183.188 L 39,-183 L 38.9882,-182.812 L 38.9529,-182.627 L 38.8947,-182.448 L 38.8145,-182.277
 L 38.7135,-182.118 L 38.5934,-181.973 L 38.4561,-181.844 L 38.3037,-181.734 L 38.1387,-181.643 L 37.9635,-181.573
 L 37.7811,-181.527 L 37.5942,-181.503 z
M 77.9369,-62.0886 L 78.5451,-62.2447 L 79.1289,-62.4759 L 79.6791,-62.7784 L 80.1871,-63.1474 L 80.6448,-63.5773
 L 81.0451,-64.0611 L 81.3815,-64.5912 L 81.6489,-65.1594 L 81.8429,-65.7566 L 81.9606,-66.3733 L 82,-67
 L 82,-161 L 81.9606,-161.627 L 81.8429,-162.243 L 81.6489,-162.841 L 81.3815,-163.409 L 81.0451,-163.939
 L 80.6448,-164.423 L 80.1871,-164.853 L 79.6791,-165.222 L 79.1289,-165.524 L 78.5451,-165.755 L 77.9369,-165.911
 L 77.3139,-165.99 L -77.3139,-165.99 L -77.9369,-165.911 L -78.5451,-165.755 L -79.1289,-165.524 L -79.6791,-165.222
 L -80.1871,-164.853 L -80.6448,-164.423 L -81.0451,-163.939 L -81.3815,-163.409 L -81.6489,-162.841 L -81.8429,-162.243
 L -81.9606,-161.627 L -82,-161 L -82,-67 L -81.9606,-66.3733 L -81.8429,-65.7566 L -81.6489,-65.1594
 L -81.3815,-64.5912 L -81.0451,-64.0611 L -80.6448,-63.5773 L -80.1871,-63.1474 L -79.6791,-62.7784 L -79.1289,-62.4759
 L -78.5451,-62.2447 L -77.9369,-62.0886 L -77.3139,-62.0099 L 77.3139,-62.0099 z
M -0.18837,-156.006 L -0.562134,-156.053 L -0.927048,-156.147 L -1.27733,-156.286 L -1.60747,-156.467 L -1.91226,-156.688
 L -2.1869,-156.946 L -2.42705,-157.237 L -2.62891,-157.555 L -2.78932,-157.896 L -2.90575,-158.254 L -2.97633,-158.624
 L -3,-159 L -2.97633,-159.376 L -2.90575,-159.746 L -2.78932,-160.104 L -2.62891,-160.445 L -2.42705,-160.763
 L -2.1869,-161.054 L -1.91226,-161.312 L -1.60747,-161.533 L -1.27733,-161.714 L -0.927048,-161.853 L -0.562134,-161.947
 L -0.18837,-161.994 L 0.18837,-161.994 L 0.562134,-161.947 L 0.927048,-161.853 L 1.27733,-161.714 L 1.60747,-161.533
 L 1.91226,-161.312 L 2.1869,-161.054 L 2.42705,-160.763 L 2.62891,-160.445 L 2.78932,-160.104 L 2.90575,-159.746
 L 2.97633,-159.376 L 3,-159 L 2.97633,-158.624 L 2.90575,-158.254 L 2.78932,-157.896 L 2.62891,-157.555
 L 2.42705,-157.237 L 2.1869,-156.946 L 1.91226,-156.688 L 1.60747,-156.467 L 1.27733,-156.286 L 0.927048,-156.147
 L 0.562134,-156.053 L 0.18837,-156.006 z
M 74.8116,-156.006 L 74.4379,-156.053 L 74.073,-156.147 L 73.7227,-156.286 L 73.3925,-156.467 L 73.0877,-156.688
 L 72.8131,-156.946 L 72.573,-157.237 L 72.3711,-157.555 L 72.2107,-157.896 L 72.0943,-158.254 L 72.0237,-158.624
 L 72,-159 L 72.0237,-159.376 L 72.0943,-159.746 L 72.2107,-160.104 L 72.3711,-160.445 L 72.573,-160.763
 L 72.8131,-161.054 L 73.0877,-161.312 L 73.3925,-161.533 L 73.7227,-161.714 L 74.073,-161.853 L 74.4379,-161.947
 L 74.8116,-161.994 L 75.1884,-161.994 L 75.5621,-161.947 L 75.927,-161.853 L 76.2773,-161.714 L 76.6075,-161.533
 L 76.9123,-161.312 L 77.1869,-161.054 L 77.427,-160.763 L 77.6289,-160.445 L 77.7893,-160.104 L 77.9057,-159.746
 L 77.9763,-159.376 L 78,-159 L 77.9763,-158.624 L 77.9057,-158.254 L 77.7893,-157.896 L 77.6289,-157.555
 L 77.427,-157.237 L 77.1869,-156.946 L 76.9123,-156.688 L 76.6075,-156.467 L 76.2773,-156.286 L 75.927,-156.147
 L 75.5621,-156.053 L 75.1884,-156.006 z
M -30.1884,-156.006 L -30.5621,-156.053 L -30.927,-156.147 L -31.2773,-156.286 L -31.6075,-156.467 L -31.9123,-156.688
 L -32.1869,-156.946 L -32.427,-157.237 L -32.6289,-157.555 L -32.7893,-157.896 L -32.9057,-158.254 L -32.9763,-158.624
 L -33,-159 L -32.9763,-159.376 L -32.9057,-159.746 L -32.7893,-160.104 L -32.6289,-160.445 L -32.427,-160.763
 L -32.1869,-161.054 L -31.9123,-161.312 L -31.6075,-161.533 L -31.2773,-161.714 L -30.927,-161.853 L -30.5621,-161.947
 L -30.1884,-161.994 L -29.8116,-161.994 L -29.4379,-161.947 L -29.0729,-161.853 L -28.7227,-161.714 L -28.3925,-161.533
 L -28.0877,-161.312 L -27.8131,-161.054 L -27.5729,-160.763 L -27.3711,-160.445 L -27.2107,-160.104 L -27.0942,-159.746
 L -27.0237,-159.376 L -27,-159 L -27.0237,-158.624 L -27.0942,-158.254 L -27.2107,-157.896 L -27.3711,-157.555
 L -27.5729,-157.237 L -27.8131,-156.946 L -28.0877,-156.688 L -28.3925,-156.467 L -28.7227,-156.286 L -29.0729,-156.147
 L -29.4379,-156.053 L -29.8116,-156.006 z
M 29.8116,-156.006 L 29.4379,-156.053 L 29.0729,-156.147 L 28.7227,-156.286 L 28.3925,-156.467 L 28.0877,-156.688
 L 27.8131,-156.946 L 27.5729,-157.237 L 27.3711,-157.555 L 27.2107,-157.896 L 27.0942,-158.254 L 27.0237,-158.624
 L 27,-159 L 27.0237,-159.376 L 27.0942,-159.746 L 27.2107,-160.104 L 27.3711,-160.445 L 27.5729,-160.763
 L 27.8131,-161.054 L 28.0877,-161.312 L 28.3925,-161.533 L 28.7227,-161.714 L 29.0729,-161.853 L 29.4379,-161.947
 L 29.8116,-161.994 L 30.1884,-161.994 L 30.5621,-161.947 L 30.927,-161.853 L 31.2773,-161.714 L 31.6075,-161.533
 L 31.9123,-161.312 L 32.1869,-161.054 L 32.427,-160.763 L 32.6289,-160.445 L 32.7893,-160.104 L 32.9057,-159.746
 L 32.9763,-159.376 L 33,-159 L 32.9763,-158.624 L 32.9057,-158.254 L 32.7893,-157.896 L 32.6289,-157.555
 L 32.427,-157.237 L 32.1869,-156.946 L 31.9123,-156.688 L 31.6075,-156.467 L 31.2773,-156.286 L 30.927,-156.147
 L 30.5621,-156.053 L 30.1884,-156.006 z
M -45.1884,-156.006 L -45.5621,-156.053 L -45.927,-156.147 L -46.2773,-156.286 L -46.6075,-156.467 L -46.9123,-156.688
 L -47.1869,-156.946 L -47.427,-157.237 L -47.6289,-157.555 L -47.7893,-157.896 L -47.9057,-158.254 L -47.9763,-158.624
 L -48,-159 L -47.9763,-159.376 L -47.9057,-159.746 L -47.7893,-160.104 L -47.6289,-160.445 L -47.427,-160.763
 L -47.1869,-161.054 L -46.9123,-161.312 L -46.6075,-161.533 L -46.2773,-161.714 L -45.927,-161.853 L -45.5621,-161.947
 L -45.1884,-161.994 L -44.8116,-161.994 L -44.4379,-161.947 L -44.0729,-161.853 L -43.7227,-161.714 L -43.3925,-161.533
 L -43.0877,-161.312 L -42.8131,-161.054 L -42.5729,-160.763 L -42.3711,-160.445 L -42.2107,-160.104 L -42.0942,-159.746
 L -42.0237,-159.376 L -42,-159 L -42.0237,-158.624 L -42.0942,-158.254 L -42.2107,-157.896 L -42.3711,-157.555
 L -42.5729,-157.237 L -42.8131,-156.946 L -43.0877,-156.688 L -43.3925,-156.467 L -43.7227,-156.286 L -44.0729,-156.147
 L -44.4379,-156.053 L -44.8116,-156.006 z
M -75.1884,-156.006 L -75.5621,-156.053 L -75.927,-156.147 L -76.2773,-156.286 L -76.6075,-156.467 L -76.9123,-156.688
 L -77.1869,-156.946 L -77.427,-157.237 L -77.6289,-157.555 L -77.7893,-157.896 L -77.9057,-158.254 L -77.9763,-158.624
 L -78,-159 L -77.9763,-159.376 L -77.9057,-159.746 L -77.7893,-160.104 L -77.6289,-160.445 L -77.427,-160.763
 L -77.1869,-161.054 L -76.9123,-161.312 L -76.6075,-161.533 L -76.2773,-161.714 L -75.927,-161.853 L -75.5621,-161.947
 L -75.1884,-161.994 L -74.8116,-161.994 L -74.4379,-161.947 L -74.073,-161.853 L -73.7227,-161.714 L -73.3925,-161.533
 L -73.0877,-161.312 L -72.8131,-161.054 L -72.573,-160.763 L -72.3711,-160.445 L -72.2107,-160.104 L -72.0943,-159.746
 L -72.0237,-159.376 L -72,-159 L -72.0237,-158.624 L -72.0943,-158.254 L -72.2107,-157.896 L -72.3711,-157.555
 L -72.573,-157.237 L -72.8131,-156.946 L -73.0877,-156.688 L -73.3925,-156.467 L -73.7227,-156.286 L -74.073,-156.147
 L -74.4379,-156.053 L -74.8116,-156.006 z
M 44.8116,-156.006 L 44.4379,-156.053 L 44.0729,-156.147 L 43.7227,-156.286 L 43.3925,-156.467 L 43.0877,-156.688
 L 42.8131,-156.946 L 42.5729,-157.237 L 42.3711,-157.555 L 42.2107,-157.896 L 42.0942,-158.254 L 42.0237,-158.624
 L 42,-159 L 42.0237,-159.376 L 42.0942,-159.746 L 42.2107,-160.104 L 42.3711,-160.445 L 42.5729,-160.763
 L 42.8131,-161.054 L 43.0877,-161.312 L 43.3925,-161.533 L 43.7227,-161.714 L 44.0729,-161.853 L 44.4379,-161.947
 L 44.8116,-161.994 L 45.1884,-161.994 L 45.5621,-161.947 L 45.927,-161.853 L 46.2773,-161.714 L 46.6075,-161.533
 L 46.9123,-161.312 L 47.1869,-161.054 L 47.427,-160.763 L 47.6289,-160.445 L 47.7893,-160.104 L 47.9057,-159.746
 L 47.9763,-159.376 L 48,-159 L 47.9763,-158.624 L 47.9057,-158.254 L 47.7893,-157.896 L 47.6289,-157.555
 L 47.427,-157.237 L 47.1869,-156.946 L 46.9123,-156.688 L 46.6075,-156.467 L 46.2773,-156.286 L 45.927,-156.147
 L 45.5621,-156.053 L 45.1884,-156.006 z
M -60.1884,-156.006 L -60.5621,-156.053 L -60.927,-156.147 L -61.2773,-156.286 L -61.6075,-156.467 L -61.9123,-156.688
 L -62.1869,-156.946 L -62.427,-157.237 L -62.6289,-157.555 L -62.7893,-157.896 L -62.9057,-158.254 L -62.9763,-158.624
 L -63,-159 L -62.9763,-159.376 L -62.9057,-159.746 L -62.7893,-160.104 L -62.6289,-160.445 L -62.427,-160.763
 L -62.1869,-161.054 L -61.9123,-161.312 L -61.6075,-161.533 L -61.2773,-161.714 L -60.927,-161.853 L -60.5621,-161.947
 L -60.1884,-161.994 L -59.8116,-161.994 L -59.4379,-161.947 L -59.0729,-161.853 L -58.7227,-161.714 L -58.3925,-161.533
 L -58.0877,-161.312 L -57.8131,-161.054 L -57.5729,-160.763 L -57.3711,-160.445 L -57.2107,-160.104 L -57.0942,-159.746
 L -57.0237,-159.376 L -57,-159 L -57.0237,-158.624 L -57.0942,-158.254 L -57.2107,-157.896 L -57.3711,-157.555
 L -57.5729,-157.237 L -57.8131,-156.946 L -58.0877,-156.688 L -58.3925,-156.467 L -58.7227,-156.286 L -59.0729,-156.147
 L -59.4379,-156.053 L -59.8116,-156.006 z
M 59.8116,-156.006 L 59.4379,-156.053 L 59.0729,-156.147 L 58.7227,-156.286 L 58.3925,-156.467 L 58.0877,-156.688
 L 57.8131,-156.946 L 57.5729,-157.237 L 57.3711,-157.555 L 57.2107,-157.896 L 57.0942,-158.254 L 57.0237,-158.624
 L 57,-159 L 57.0237,-159.376 L 57.0942,-159.746 L 57.2107,-160.104 L 57.3711,-160.445 L 57.5729,-160.763
 L 57.8131,-161.054 L 58.0877,-161.312 L 58.3925,-161.533 L 58.7227,-161.714 L 59.0729,-161.853 L 59.4379,-161.947
 L 59.8116,-161.994 L 60.1884,-161.994 L 60.5621,-161.947 L 60.927,-161.853 L 61.2773,-161.714 L 61.6075,-161.533
 L 61.9123,-161.312 L 62.1869,-161.054 L 62.427,-160.763 L 62.6289,-160.445 L 62.7893,-160.104 L 62.9057,-159.746
 L 62.9763,-159.376 L 63,-159 L 62.9763,-158.624 L 62.9057,-158.254 L 62.7893,-157.896 L 62.6289,-157.555
 L 62.427,-157.237 L 62.1869,-156.946 L 61.9123,-156.688 L 61.6075,-156.467 L 61.2773,-156.286 L 60.927,-156.147
 L 60.5621,-156.053 L 60.1884,-156.006 z
M 14.8116,-156.006 L 14.4379,-156.053 L 14.0729,-156.147 L 13.7227,-156.286 L 13.3925,-156.467 L 13.0877,-156.688
 L 12.8131,-156.946 L 12.5729,-157.237 L 12.3711,-157.555 L 12.2107,-157.896 L 12.0942,-158.254 L 12.0237,-158.624
 L 12,-159 L 12.0237,-159.376 L 12.0942,-159.746 L 12.2107,-160.104 L 12.3711,-160.445 L 12.5729,-160.763
 L 12.8131,-161.054 L 13.0877,-161.312 L 13.3925,-161.533 L 13.7227,-161.714 L 14.0729,-161.853 L 14.4379,-161.947
 L 14.8116,-161.994 L 15.1884,-161.994 L 15.5621,-161.947 L 15.927,-161.853 L 16.2773,-161.714 L 16.6075,-161.533
 L 16.9123,-161.312 L 17.1869,-161.054 L 17.427,-160.763 L 17.6289,-160.445 L 17.7893,-160.104 L 17.9057,-159.746
 L 17.9763,-159.376 L 18,-159 L 17.9763,-158.624 L 17.9057,-158.254 L 17.7893,-157.896 L 17.6289,-157.555
 L 17.427,-157.237 L 17.1869,-156.946 L 16.9123,-156.688 L 16.6075,-156.467 L 16.2773,-156.286 L 15.927,-156.147
 L 15.5621,-156.053 L 15.1884,-156.006 z
M -15.1884,-156.006 L -15.5621,-156.053 L -15.927,-156.147 L -16.2773,-156.286 L -16.6075,-156.467 L -16.9123,-156.688
 L -17.1869,-156.946 L -17.427,-157.237 L -17.6289,-157.555 L -17.7893,-157.896 L -17.9057,-158.254 L -17.9763,-158.624
 L -18,-159 L -17.9763,-159.376 L -17.9057,-159.746 L -17.7893,-160.104 L -17.6289,-160.445 L -17.427,-160.763
 L -17.1869,-161.054 L -16.9123,-161.312 L -16.6075,-161.533 L -16.2773,-161.714 L -15.927,-161.853 L -15.5621,-161.947
 L -15.1884,-161.994 L -14.8116,-161.994 L -14.4379,-161.947 L -14.0729,-161.853 L -13.7227,-161.714 L -13.3925,-161.533
 L -13.0877,-161.312 L -12.8131,-161.054 L -12.5729,-160.763 L -12.3711,-160.445 L -12.2107,-160.104 L -12.0942,-159.746
 L -12.0237,-159.376 L -12,-159 L -12.0237,-158.624 L -12.0942,-158.254 L -12.2107,-157.896 L -12.3711,-157.555
 L -12.5729,-157.237 L -12.8131,-156.946 L -13.0877,-156.688 L -13.3925,-156.467 L -13.7227,-156.286 L -14.0729,-156.147
 L -14.4379,-156.053 L -14.8116,-156.006 z
M 7.40581,-157.503 L 7.21892,-157.527 L 7.03647,-157.573 L 6.86133,-157.643 L 6.69626,-157.734 L 6.54385,-157.844
 L 6.40654,-157.973 L 6.28647,-158.118 L 6.18553,-158.277 L 6.10533,-158.448 L 6.04712,-158.627 L 6.01183,-158.812
 L 6,-159 L 6.01183,-159.188 L 6.04712,-159.373 L 6.10533,-159.552 L 6.18553,-159.723 L 6.28647,-159.882
 L 6.40654,-160.027 L 6.54385,-160.156 L 6.69626,-160.266 L 6.86133,-160.357 L 7.03647,-160.427 L 7.21892,-160.473
 L 7.40581,-160.497 L 7.59418,-160.497 L 7.78107,-160.473 L 7.96352,-160.427 L 8.13866,-160.357 L 8.30373,-160.266
 L 8.45613,-160.156 L 8.59344,-160.027 L 8.71352,-159.882 L 8.81445,-159.723 L 8.89465,-159.552 L 8.95287,-159.373
 L 8.98816,-159.188 L 9,-159 L 8.98816,-158.812 L 8.95287,-158.627 L 8.89465,-158.448 L 8.81445,-158.277
 L 8.71352,-158.118 L 8.59344,-157.973 L 8.45613,-157.844 L 8.30373,-157.734 L 8.13866,-157.643 L 7.96352,-157.573
 L 7.78107,-157.527 L 7.59418,-157.503 z
M -37.5942,-157.503 L -37.7811,-157.527 L -37.9635,-157.573 L -38.1387,-157.643 L -38.3037,-157.734 L -38.4561,-157.844
 L -38.5934,-157.973 L -38.7135,-158.118 L -38.8145,-158.277 L -38.8947,-158.448 L -38.9529,-158.627 L -38.9882,-158.812
 L -39,-159 L -38.9882,-159.188 L -38.9529,-159.373 L -38.8947,-159.552 L -38.8145,-159.723 L -38.7135,-159.882
 L -38.5934,-160.027 L -38.4561,-160.156 L -38.3037,-160.266 L -38.1387,-160.357 L -37.9635,-160.427 L -37.7811,-160.473
 L -37.5942,-160.497 L -37.4058,-160.497 L -37.2189,-160.473 L -37.0365,-160.427 L -36.8613,-160.357 L -36.6963,-160.266
 L -36.5439,-160.156 L -36.4065,-160.027 L -36.2865,-159.882 L -36.1855,-159.723 L -36.1053,-159.552 L -36.0471,-159.373
 L -36.0118,-159.188 L -36,-159 L -36.0118,-158.812 L -36.0471,-158.627 L -36.1053,-158.448 L -36.1855,-158.277
 L -36.2865,-158.118 L -36.4065,-157.973 L -36.5439,-157.844 L -36.6963,-157.734 L -36.8613,-157.643 L -37.0365,-157.573
 L -37.2189,-157.527 L -37.4058,-157.503 z
M 22.4058,-157.503 L 22.2189,-157.527 L 22.0365,-157.573 L 21.8613,-157.643 L 21.6963,-157.734 L 21.5439,-157.844
 L 21.4065,-157.973 L 21.2865,-158.118 L 21.1855,-158.277 L 21.1053,-158.448 L 21.0471,-158.627 L 21.0118,-158.812
 L 21,-159 L 21.0118,-159.188 L 21.0471,-159.373 L 21.1053,-159.552 L 21.1855,-159.723 L 21.2865,-159.882
 L 21.4065,-160.027 L 21.5439,-160.156 L 21.6963,-160.266 L 21.8613,-160.357 L 22.0365,-160.427 L 22.2189,-160.473
 L 22.4058,-160.497 L 22.5942,-160.497 L 22.7811,-160.473 L 22.9635,-160.427 L 23.1387,-160.357 L 23.3037,-160.266
 L 23.4561,-160.156 L 23.5934,-160.027 L 23.7135,-159.882 L 23.8145,-159.723 L 23.8947,-159.552 L 23.9529,-159.373
 L 23.9882,-159.188 L 24,-159 L 23.9882,-158.812 L 23.9529,-158.627 L 23.8947,-158.448 L 23.8145,-158.277
 L 23.7135,-158.118 L 23.5934,-157.973 L 23.4561,-157.844 L 23.3037,-157.734 L 23.1387,-157.643 L 22.9635,-157.573
 L 22.7811,-157.527 L 22.5942,-157.503 z
M -52.5942,-157.503 L -52.7811,-157.527 L -52.9635,-157.573 L -53.1387,-157.643 L -53.3037,-157.734 L -53.4561,-157.844
 L -53.5934,-157.973 L -53.7135,-158.118 L -53.8145,-158.277 L -53.8947,-158.448 L -53.9529,-158.627 L -53.9882,-158.812
 L -54,-159 L -53.9882,-159.188 L -53.9529,-159.373 L -53.8947,-159.552 L -53.8145,-159.723 L -53.7135,-159.882
 L -53.5934,-160.027 L -53.4561,-160.156 L -53.3037,-160.266 L -53.1387,-160.357 L -52.9635,-160.427 L -52.7811,-160.473
 L -52.5942,-160.497 L -52.4058,-160.497 L -52.2189,-160.473 L -52.0365,-160.427 L -51.8613,-160.357 L -51.6963,-160.266
 L -51.5439,-160.156 L -51.4065,-160.027 L -51.2865,-159.882 L -51.1855,-159.723 L -51.1053,-159.552 L -51.0471,-159.373
 L -51.0118,-159.188 L -51,-159 L -51.0118,-158.812 L -51.0471,-158.627 L -51.1053,-158.448 L -51.1855,-158.277
 L -51.2865,-158.118 L -51.4065,-157.973 L -51.5439,-157.844 L -51.6963,-157.734 L -51.8613,-157.643 L -52.0365,-157.573
 L -52.2189,-157.527 L -52.4058,-157.503 z
M 37.4058,-157.503 L 37.2189,-157.527 L 37.0365,-157.573 L 36.8613,-157.643 L 36.6963,-157.734 L 36.5439,-157.844
 L 36.4065,-157.973 L 36.2865,-158.118 L 36.1855,-158.277 L 36.1053,-158.448 L 36.0471,-158.627 L 36.0118,-158.812
 L 36,-159 L 36.0118,-159.188 L 36.0471,-159.373 L 36.1053,-159.552 L 36.1855,-159.723 L 36.2865,-159.882
 L 36.4065,-160.027 L 36.5439,-160.156 L 36.6963,-160.266 L 36.8613,-160.357 L 37.0365,-160.427 L 37.2189,-160.473
 L 37.4058,-160.497 L 37.5942,-160.497 L 37.7811,-160.473 L 37.9635,-160.427 L 38.1387,-160.357 L 38.3037,-160.266
 L 38.4561,-160.156 L 38.5934,-160.027 L 38.7135,-159.882 L 38.8145,-159.723 L 38.8947,-159.552 L 38.9529,-159.373
 L 38.9882,-159.188 L 39,-159 L 38.9882,-158.812 L 38.9529,-158.627 L 38.8947,-158.448 L 38.8145,-158.277
 L 38.7135,-158.118 L 38.5934,-157.973 L 38.4561,-157.844 L 38.3037,-157.734 L 38.1387,-157.643 L 37.9635,-157.573
 L 37.7811,-157.527 L 37.5942,-157.503 z
M -7.59418,-157.503 L -7.78107,-157.527 L -7.96352,-157.573 L -8.13866,-157.643 L -8.30373,-157.734 L -8.45613,-157.844
 L -8.59344,-157.973 L -8.71352,-158.118 L -8.81445,-158.277 L -8.89465,-158.448 L -8.95287,-158.627 L -8.98816,-158.812
 L -9,-159 L -8.98816,-159.188 L -8.95287,-159.373 L -8.89465,-159.552 L -8.81445,-159.723 L -8.71352,-159.882
 L -8.59344,-160.027 L -8.45613,-160.156 L -8.30373,-160.266 L -8.13866,-160.357 L -7.96352,-160.427 L -7.78107,-160.473
 L -7.59418,-160.497 L -7.40581,-160.497 L -7.21892,-160.473 L -7.03647,-160.427 L -6.86133,-160.357 L -6.69626,-160.266
 L -6.54385,-160.156 L -6.40654,-160.027 L -6.28647,-159.882 L -6.18553,-159.723 L -6.10533,-159.552 L -6.04712,-159.373
 L -6.01183,-159.188 L -6,-159 L -6.01183,-158.812 L -6.04712,-158.627 L -6.10533,-158.448 L -6.18553,-158.277
 L -6.28647,-158.118 L -6.40654,-157.973 L -6.54385,-157.844 L -6.69626,-157.734 L -6.86133,-157.643 L -7.03647,-157.573
 L -7.21892,-157.527 L -7.40581,-157.503 z
M -67.5942,-157.503 L -67.7811,-157.527 L -67.9635,-157.573 L -68.1387,-157.643 L -68.3037,-157.734 L -68.4561,-157.844
 L -68.5934,-157.973 L -68.7135,-158.118 L -68.8145,-158.277 L -68.8947,-158.448 L -68.9529,-158.627 L -68.9882,-158.812
 L -69,-159 L -68.9882,-159.188 L -68.9529,-159.373 L -68.8947,-159.552 L -68.8145,-159.723 L -68.7135,-159.882
 L -68.5934,-160.027 L -68.4561,-160.156 L -68.3037,-160.266 L -68.1387,-160.357 L -67.9635,-160.427 L -67.7811,-160.473
 L -67.5942,-160.497 L -67.4058,-160.497 L -67.2189,-160.473 L -67.0365,-160.427 L -66.8613,-160.357 L -66.6963,-160.266
 L -66.5439,-160.156 L -66.4065,-160.027 L -66.2865,-159.882 L -66.1855,-159.723 L -66.1053,-159.552 L -66.0471,-159.373
 L -66.0118,-159.188 L -66,-159 L -66.0118,-158.812 L -66.0471,-158.627 L -66.1053,-158.448 L -66.1855,-158.277
 L -66.2865,-158.118 L -66.4065,-157.973 L -66.5439,-157.844 L -66.6963,-157.734 L -66.8613,-157.643 L -67.0365,-157.573
 L -67.2189,-157.527 L -67.4058,-157.503 z
M -22.5942,-157.503 L -22.7811,-157.527 L -22.9635,-157.573 L -23.1387,-157.643 L -23.3037,-157.734 L -23.4561,-157.844
 L -23.5934,-157.973 L -23.7135,-158.118 L -23.8145,-158.277 L -23.8947,-158.448 L -23.9529,-158.627 L -23.9882,-158.812
 L -24,-159 L -23.9882,-159.188 L -23.9529,-159.373 L -23.8947,-159.552 L -23.8145,-159.723 L -23.7135,-159.882
 L -23.5934,-160.027 L -23.4561,-160.156 L -23.3037,-160.266 L -23.1387,-160.357 L -22.9635,-160.427 L -22.7811,-160.473
 L -22.5942,-160.497 L -22.4058,-160.497 L -22.2189,-160.473 L -22.0365,-160.427 L -21.8613,-160.357 L -21.6963,-160.266
 L -21.5439,-160.156 L -21.4065,-160.027 L -21.2865,-159.882 L -21.1855,-159.723 L -21.1053,-159.552 L -21.0471,-159.373
 L -21.0118,-159.188 L -21,-159 L -21.0118,-158.812 L -21.0471,-158.627 L -21.1053,-158.448 L -21.1855,-158.277
 L -21.2865,-158.118 L -21.4065,-157.973 L -21.5439,-157.844 L -21.6963,-157.734 L -21.8613,-157.643 L -22.0365,-157.573
 L -22.2189,-157.527 L -22.4058,-157.503 z
M 67.4058,-157.503 L 67.2189,-157.527 L 67.0365,-157.573 L 66.8613,-157.643 L 66.6963,-157.734 L 66.5439,-157.844
 L 66.4065,-157.973 L 66.2865,-158.118 L 66.1855,-158.277 L 66.1053,-158.448 L 66.0471,-158.627 L 66.0118,-158.812
 L 66,-159 L 66.0118,-159.188 L 66.0471,-159.373 L 66.1053,-159.552 L 66.1855,-159.723 L 66.2865,-159.882
 L 66.4065,-160.027 L 66.5439,-160.156 L 66.6963,-160.266 L 66.8613,-160.357 L 67.0365,-160.427 L 67.2189,-160.473
 L 67.4058,-160.497 L 67.5942,-160.497 L 67.7811,-160.473 L 67.9635,-160.427 L 68.1387,-160.357 L 68.3037,-160.266
 L 68.4561,-160.156 L 68.5934,-160.027 L 68.7135,-159.882 L 68.8145,-159.723 L 68.8947,-159.552 L 68.9529,-159.373
 L 68.9882,-159.188 L 69,-159 L 68.9882,-158.812 L 68.9529,-158.627 L 68.8947,-158.448 L 68.8145,-158.277
 L 68.7135,-158.118 L 68.5934,-157.973 L 68.4561,-157.844 L 68.3037,-157.734 L 68.1387,-157.643 L 67.9635,-157.573
 L 67.7811,-157.527 L 67.5942,-157.503 z
M 52.4058,-157.503 L 52.2189,-157.527 L 52.0365,-157.573 L 51.8613,-157.643 L 51.6963,-157.734 L 51.5439,-157.844
 L 51.4065,-157.973 L 51.2865,-158.118 L 51.1855,-158.277 L 51.1053,-158.448 L 51.0471,-158.627 L 51.0118,-158.812
 L 51,-159 L 51.0118,-159.188 L 51.0471,-159.373 L 51.1053,-159.552 L 51.1855,-159.723 L 51.2865,-159.882
 L 51.4065,-160.027 L 51.5439,-160.156 L 51.6963,-160.266 L 51.8613,-160.357 L 52.0365,-160.427 L 52.2189,-160.473
 L 52.4058,-160.497 L 52.5942,-160.497 L 52.7811,-160.473 L 52.9635,-160.427 L 53.1387,-160.357 L 53.3037,-160.266
 L 53.4561,-160.156 L 53.5934,-160.027 L 53.7135,-159.882 L 53.8145,-159.723 L 53.8947,-159.552 L 53.9529,-159.373
 L 53.9882,-159.188 L 54,-159 L 53.9882,-158.812 L 53.9529,-158.627 L 53.8947,-158.448 L 53.8145,-158.277
 L 53.7135,-158.118 L 53.5934,-157.973 L 53.4561,-157.844 L 53.3037,-157.734 L 53.1387,-157.643 L 52.9635,-157.573
 L 52.7811,-157.527 L 52.5942,-157.503 z
M -39.6977,-79.0691 L -44.0583,-79.6199 L -48.3156,-80.713 L -52.4023,-82.3311 L -56.2539,-84.4485 L -59.8098,-87.032
 L -63.0139,-90.0409 L -65.8156,-93.4275 L -68.1707,-97.1386 L -70.0422,-101.116 L -71.4004,-105.296 L -72.224,-109.613
 L -72.5,-114 L -72.224,-118.387 L -71.4004,-122.704 L -70.0422,-126.884 L -68.1707,-130.861 L -65.8156,-134.572
 L -63.0139,-137.959 L -59.8098,-140.968 L -56.2539,-143.551 L -52.4023,-145.669 L -48.3156,-147.287 L -44.0583,-148.38
 L -39.6977,-148.931 L -35.3023,-148.931 L -30.9417,-148.38 L -26.6844,-147.287 L -22.5977,-145.669 L -18.746,-143.551
 L -15.1902,-140.968 L -11.9861,-137.959 L -9.1844,-134.572 L -6.82925,-130.861 L -4.95781,-126.884 L -3.59958,-122.704
 L -2.77597,-118.387 L -2.5,-114 L -2.77597,-109.613 L -3.59958,-105.296 L -4.95781,-101.116 L -6.82925,-97.1386
 L -9.1844,-93.4275 L -11.9861,-90.0409 L -15.1902,-87.032 L -18.746,-84.4485 L -22.5977,-82.3311 L -26.6844,-80.713
 L -30.9417,-79.6199 L -35.3023,-79.0691 z
M 35.3023,-79.0691 L 30.9417,-79.6199 L 26.6844,-80.713 L 22.5977,-82.3311 L 18.746,-84.4485 L 15.1902,-87.032
 L 11.9861,-90.0409 L 9.1844,-93.4275 L 6.82925,-97.1386 L 4.95781,-101.116 L 3.59958,-105.296 L 2.77597,-109.613
 L 2.5,-114 L 2.77597,-118.387 L 3.59958,-122.704 L 4.95781,-126.884 L 6.82925,-130.861 L 9.1844,-134.572
 L 11.9861,-137.959 L 15.1902,-140.968 L 18.746,-143.551 L 22.5977,-145.669 L 26.6844,-147.287 L 30.9417,-148.38
 L 35.3023,-148.931 L 39.6977,-148.931 L 44.0583,-148.38 L 48.3156,-147.287 L 52.4023,-145.669 L 56.2539,-143.551
 L 59.8098,-140.968 L 63.0139,-137.959 L 65.8156,-134.572 L 68.1707,-130.861 L 70.0422,-126.884 L 71.4004,-122.704
 L 72.224,-118.387 L 72.5,-114 L 72.224,-109.613 L 71.4004,-105.296 L 70.0422,-101.116 L 68.1707,-97.1386
 L 65.8156,-93.4275 L 63.0139,-90.0409 L 59.8098,-87.032 L 56.2539,-84.4485 L 52.4023,-82.3311 L 48.3156,-80.713
 L 44.0583,-79.6199 L 39.6977,-79.0691 z
M -15.1884,-66.0059 L -15.5621,-66.0531 L -15.927,-66.1468 L -16.2773,-66.2855 L -16.6075,-66.467 L -16.9123,-66.6885
 L -17.1869,-66.9464 L -17.427,-67.2366 L -17.6289,-67.5547 L -17.7893,-67.8956 L -17.9057,-68.2539 L -17.9763,-68.624
 L -18,-69 L -17.9763,-69.376 L -17.9057,-69.7461 L -17.7893,-70.1044 L -17.6289,-70.4453 L -17.427,-70.7634
 L -17.1869,-71.0536 L -16.9123,-71.3115 L -16.6075,-71.533 L -16.2773,-71.7145 L -15.927,-71.8532 L -15.5621,-71.9469
 L -15.1884,-71.9941 L -14.8116,-71.9941 L -14.4379,-71.9469 L -14.0729,-71.8532 L -13.7227,-71.7145 L -13.3925,-71.533
 L -13.0877,-71.3115 L -12.8131,-71.0536 L -12.5729,-70.7634 L -12.3711,-70.4453 L -12.2107,-70.1044 L -12.0942,-69.7461
 L -12.0237,-69.376 L -12,-69 L -12.0237,-68.624 L -12.0942,-68.2539 L -12.2107,-67.8956 L -12.3711,-67.5547
 L -12.5729,-67.2366 L -12.8131,-66.9464 L -13.0877,-66.6885 L -13.3925,-66.467 L -13.7227,-66.2855 L -14.0729,-66.1468
 L -14.4379,-66.0531 L -14.8116,-66.0059 z
M 44.8116,-66.0059 L 44.4379,-66.0531 L 44.0729,-66.1468 L 43.7227,-66.2855 L 43.3925,-66.467 L 43.0877,-66.6885
 L 42.8131,-66.9464 L 42.5729,-67.2366 L 42.3711,-67.5547 L 42.2107,-67.8956 L 42.0942,-68.2539 L 42.0237,-68.624
 L 42,-69 L 42.0237,-69.376 L 42.0942,-69.7461 L 42.2107,-70.1044 L 42.3711,-70.4453 L 42.5729,-70.7634
 L 42.8131,-71.0536 L 43.0877,-71.3115 L 43.3925,-71.533 L 43.7227,-71.7145 L 44.0729,-71.8532 L 44.4379,-71.9469
 L 44.8116,-71.9941 L 45.1884,-71.9941 L 45.5621,-71.9469 L 45.927,-71.8532 L 46.2773,-71.7145 L 46.6075,-71.533
 L 46.9123,-71.3115 L 47.1869,-71.0536 L 47.427,-70.7634 L 47.6289,-70.4453 L 47.7893,-70.1044 L 47.9057,-69.7461
 L 47.9763,-69.376 L 48,-69 L 47.9763,-68.624 L 47.9057,-68.2539 L 47.7893,-67.8956 L 47.6289,-67.5547
 L 47.427,-67.2366 L 47.1869,-66.9464 L 46.9123,-66.6885 L 46.6075,-66.467 L 46.2773,-66.2855 L 45.927,-66.1468
 L 45.5621,-66.0531 L 45.1884,-66.0059 z
M 29.8116,-66.0059 L 29.4379,-66.0531 L 29.0729,-66.1468 L 28.7227,-66.2855 L 28.3925,-66.467 L 28.0877,-66.6885
 L 27.8131,-66.9464 L 27.5729,-67.2366 L 27.3711,-67.5547 L 27.2107,-67.8956 L 27.0942,-68.2539 L 27.0237,-68.624
 L 27,-69 L 27.0237,-69.376 L 27.0942,-69.7461 L 27.2107,-70.1044 L 27.3711,-70.4453 L 27.5729,-70.7634
 L 27.8131,-71.0536 L 28.0877,-71.3115 L 28.3925,-71.533 L 28.7227,-71.7145 L 29.0729,-71.8532 L 29.4379,-71.9469
 L 29.8116,-71.9941 L 30.1884,-71.9941 L 30.5621,-71.9469 L 30.927,-71.8532 L 31.2773,-71.7145 L 31.6075,-71.533
 L 31.9123,-71.3115 L 32.1869,-71.0536 L 32.427,-70.7634 L 32.6289,-70.4453 L 32.7893,-70.1044 L 32.9057,-69.7461
 L 32.9763,-69.376 L 33,-69 L 32.9763,-68.624 L 32.9057,-68.2539 L 32.7893,-67.8956 L 32.6289,-67.5547
 L 32.427,-67.2366 L 32.1869,-66.9464 L 31.9123,-66.6885 L 31.6075,-66.467 L 31.2773,-66.2855 L 30.927,-66.1468
 L 30.5621,-66.0531 L 30.1884,-66.0059 z
M -30.1884,-66.0059 L -30.5621,-66.0531 L -30.927,-66.1468 L -31.2773,-66.2855 L -31.6075,-66.467 L -31.9123,-66.6885
 L -32.1869,-66.9464 L -32.427,-67.2366 L -32.6289,-67.5547 L -32.7893,-67.8956 L -32.9057,-68.2539 L -32.9763,-68.624
 L -33,-69 L -32.9763,-69.376 L -32.9057,-69.7461 L -32.7893,-70.1044 L -32.6289,-70.4453 L -32.427,-70.7634
 L -32.1869,-71.0536 L -31.9123,-71.3115 L -31.6075,-71.533 L -31.2773,-71.7145 L -30.927,-71.8532 L -30.5621,-71.9469
 L -30.1884,-71.9941 L -29.8116,-71.9941 L -29.4379,-71.9469 L -29.0729,-71.8532 L -28.7227,-71.7145 L -28.3925,-71.533
 L -28.0877,-71.3115 L -27.8131,-71.0536 L -27.5729,-70.7634 L -27.3711,-70.4453 L -27.2107,-70.1044 L -27.0942,-69.7461
 L -27.0237,-69.376 L -27,-69 L -27.0237,-68.624 L -27.0942,-68.2539 L -27.2107,-67.8956 L -27.3711,-67.5547
 L -27.5729,-67.2366 L -27.8131,-66.9464 L -28.0877,-66.6885 L -28.3925,-66.467 L -28.7227,-66.2855 L -29.0729,-66.1468
 L -29.4379,-66.0531 L -29.8116,-66.0059 z
M -45.1884,-66.0059 L -45.5621,-66.0531 L -45.927,-66.1468 L -46.2773,-66.2855 L -46.6075,-66.467 L -46.9123,-66.6885
 L -47.1869,-66.9464 L -47.427,-67.2366 L -47.6289,-67.5547 L -47.7893,-67.8956 L -47.9057,-68.2539 L -47.9763,-68.624
 L -48,-69 L -47.9763,-69.376 L -47.9057,-69.7461 L -47.7893,-70.1044 L -47.6289,-70.4453 L -47.427,-70.7634
 L -47.1869,-71.0536 L -46.9123,-71.3115 L -46.6075,-71.533 L -46.2773,-71.7145 L -45.927,-71.8532 L -45.5621,-71.9469
 L -45.1884,-71.9941 L -44.8116,-71.9941 L -44.4379,-71.9469 L -44.0729,-71.8532 L -43.7227,-71.7145 L -43.3925,-71.533
 L -43.0877,-71.3115 L -42.8131,-71.0536 L -42.5729,-70.7634 L -42.3711,-70.4453 L -42.2107,-70.1044 L -42.0942,-69.7461
 L -42.0237,-69.376 L -42,-69 L -42.0237,-68.624 L -42.0942,-68.2539 L -42.2107,-67.8956 L -42.3711,-67.5547
 L -42.5729,-67.2366 L -42.8131,-66.9464 L -43.0877,-66.6885 L -43.3925,-66.467 L -43.7227,-66.2855 L -44.0729,-66.1468
 L -44.4379,-66.0531 L -44.8116,-66.0059 z
M -0.18837,-66.0059 L -0.562134,-66.0531 L -0.927048,-66.1468 L -1.27733,-66.2855 L -1.60747,-66.467 L -1.91226,-66.6885
 L -2.1869,-66.9464 L -2.42705,-67.2366 L -2.62891,-67.5547 L -2.78932,-67.8956 L -2.90575,-68.2539 L -2.97633,-68.624
 L -3,-69 L -2.97633,-69.376 L -2.90575,-69.7461 L -2.78932,-70.1044 L -2.62891,-70.4453 L -2.42705,-70.7634
 L -2.1869,-71.0536 L -1.91226,-71.3115 L -1.60747,-71.533 L -1.27733,-71.7145 L -0.927048,-71.8532 L -0.562134,-71.9469
 L -0.18837,-71.9941 L 0.18837,-71.9941 L 0.562134,-71.9469 L 0.927048,-71.8532 L 1.27733,-71.7145 L 1.60747,-71.533
 L 1.91226,-71.3115 L 2.1869,-71.0536 L 2.42705,-70.7634 L 2.62891,-70.4453 L 2.78932,-70.1044 L 2.90575,-69.7461
 L 2.97633,-69.376 L 3,-69 L 2.97633,-68.624 L 2.90575,-68.2539 L 2.78932,-67.8956 L 2.62891,-67.5547
 L 2.42705,-67.2366 L 2.1869,-66.9464 L 1.91226,-66.6885 L 1.60747,-66.467 L 1.27733,-66.2855 L 0.927048,-66.1468
 L 0.562134,-66.0531 L 0.18837,-66.0059 z
M 14.8116,-66.0059 L 14.4379,-66.0531 L 14.0729,-66.1468 L 13.7227,-66.2855 L 13.3925,-66.467 L 13.0877,-66.6885
 L 12.8131,-66.9464 L 12.5729,-67.2366 L 12.3711,-67.5547 L 12.2107,-67.8956 L 12.0942,-68.2539 L 12.0237,-68.624
 L 12,-69 L 12.0237,-69.376 L 12.0942,-69.7461 L 12.2107,-70.1044 L 12.3711,-70.4453 L 12.5729,-70.7634
 L 12.8131,-71.0536 L 13.0877,-71.3115 L 13.3925,-71.533 L 13.7227,-71.7145 L 14.0729,-71.8532 L 14.4379,-71.9469
 L 14.8116,-71.9941 L 15.1884,-71.9941 L 15.5621,-71.9469 L 15.927,-71.8532 L 16.2773,-71.7145 L 16.6075,-71.533
 L 16.9123,-71.3115 L 17.1869,-71.0536 L 17.427,-70.7634 L 17.6289,-70.4453 L 17.7893,-70.1044 L 17.9057,-69.7461
 L 17.9763,-69.376 L 18,-69 L 17.9763,-68.624 L 17.9057,-68.2539 L 17.7893,-67.8956 L 17.6289,-67.5547
 L 17.427,-67.2366 L 17.1869,-66.9464 L 16.9123,-66.6885 L 16.6075,-66.467 L 16.2773,-66.2855 L 15.927,-66.1468
 L 15.5621,-66.0531 L 15.1884,-66.0059 z
M -60.1884,-66.0059 L -60.5621,-66.0531 L -60.927,-66.1468 L -61.2773,-66.2855 L -61.6075,-66.467 L -61.9123,-66.6885
 L -62.1869,-66.9464 L -62.427,-67.2366 L -62.6289,-67.5547 L -62.7893,-67.8956 L -62.9057,-68.2539 L -62.9763,-68.624
 L -63,-69 L -62.9763,-69.376 L -62.9057,-69.7461 L -62.7893,-70.1044 L -62.6289,-70.4453 L -62.427,-70.7634
 L -62.1869,-71.0536 L -61.9123,-71.3115 L -61.6075,-71.533 L -61.2773,-71.7145 L -60.927,-71.8532 L -60.5621,-71.9469
 L -60.1884,-71.9941 L -59.8116,-71.9941 L -59.4379,-71.9469 L -59.0729,-71.8532 L -58.7227,-71.7145 L -58.3925,-71.533
 L -58.0877,-71.3115 L -57.8131,-71.0536 L -57.5729,-70.7634 L -57.3711,-70.4453 L -57.2107,-70.1044 L -57.0942,-69.7461
 L -57.0237,-69.376 L -57,-69 L -57.0237,-68.624 L -57.0942,-68.2539 L -57.2107,-67.8956 L -57.3711,-67.5547
 L -57.5729,-67.2366 L -57.8131,-66.9464 L -58.0877,-66.6885 L -58.3925,-66.467 L -58.7227,-66.2855 L -59.0729,-66.1468
 L -59.4379,-66.0531 L -59.8116,-66.0059 z
M 74.8116,-66.0059 L 74.4379,-66.0531 L 74.073,-66.1468 L 73.7227,-66.2855 L 73.3925,-66.467 L 73.0877,-66.6885
 L 72.8131,-66.9464 L 72.573,-67.2366 L 72.3711,-67.5547 L 72.2107,-67.8956 L 72.0943,-68.2539 L 72.0237,-68.624
 L 72,-69 L 72.0237,-69.376 L 72.0943,-69.7461 L 72.2107,-70.1044 L 72.3711,-70.4453 L 72.573,-70.7634
 L 72.8131,-71.0536 L 73.0877,-71.3115 L 73.3925,-71.533 L 73.7227,-71.7145 L 74.073,-71.8532 L 74.4379,-71.9469
 L 74.8116,-71.9941 L 75.1884,-71.9941 L 75.5621,-71.9469 L 75.927,-71.8532 L 76.2773,-71.7145 L 76.6075,-71.533
 L 76.9123,-71.3115 L 77.1869,-71.0536 L 77.427,-70.7634 L 77.6289,-70.4453 L 77.7893,-70.1044 L 77.9057,-69.7461
 L 77.9763,-69.376 L 78,-69 L 77.9763,-68.624 L 77.9057,-68.2539 L 77.7893,-67.8956 L 77.6289,-67.5547
 L 77.427,-67.2366 L 77.1869,-66.9464 L 76.9123,-66.6885 L 76.6075,-66.467 L 76.2773,-66.2855 L 75.927,-66.1468
 L 75.5621,-66.0531 L 75.1884,-66.0059 z
M -75.1884,-66.0059 L -75.5621,-66.0531 L -75.927,-66.1468 L -76.2773,-66.2855 L -76.6075,-66.467 L -76.9123,-66.6885
 L -77.1869,-66.9464 L -77.427,-67.2366 L -77.6289,-67.5547 L -77.7893,-67.8956 L -77.9057,-68.2539 L -77.9763,-68.624
 L -78,-69 L -77.9763,-69.376 L -77.9057,-69.7461 L -77.7893,-70.1044 L -77.6289,-70.4453 L -77.427,-70.7634
 L -77.1869,-71.0536 L -76.9123,-71.3115 L -76.6075,-71.533 L -76.2773,-71.7145 L -75.927,-71.8532 L -75.5621,-71.9469
 L -75.1884,-71.9941 L -74.8116,-71.9941 L -74.4379,-71.9469 L -74.073,-71.8532 L -73.7227,-71.7145 L -73.3925,-71.533
 L -73.0877,-71.3115 L -72.8131,-71.0536 L -72.573,-70.7634 L -72.3711,-70.4453 L -72.2107,-70.1044 L -72.0943,-69.7461
 L -72.0237,-69.376 L -72,-69 L -72.0237,-68.624 L -72.0943,-68.2539 L -72.2107,-67.8956 L -72.3711,-67.5547
 L -72.573,-67.2366 L -72.8131,-66.9464 L -73.0877,-66.6885 L -73.3925,-66.467 L -73.7227,-66.2855 L -74.073,-66.1468
 L -74.4379,-66.0531 L -74.8116,-66.0059 z
M 59.8116,-66.0059 L 59.4379,-66.0531 L 59.0729,-66.1468 L 58.7227,-66.2855 L 58.3925,-66.467 L 58.0877,-66.6885
 L 57.8131,-66.9464 L 57.5729,-67.2366 L 57.3711,-67.5547 L 57.2107,-67.8956 L 57.0942,-68.2539 L 57.0237,-68.624
 L 57,-69 L 57.0237,-69.376 L 57.0942,-69.7461 L 57.2107,-70.1044 L 57.3711,-70.4453 L 57.5729,-70.7634
 L 57.8131,-71.0536 L 58.0877,-71.3115 L 58.3925,-71.533 L 58.7227,-71.7145 L 59.0729,-71.8532 L 59.4379,-71.9469
 L 59.8116,-71.9941 L 60.1884,-71.9941 L 60.5621,-71.9469 L 60.927,-71.8532 L 61.2773,-71.7145 L 61.6075,-71.533
 L 61.9123,-71.3115 L 62.1869,-71.0536 L 62.427,-70.7634 L 62.6289,-70.4453 L 62.7893,-70.1044 L 62.9057,-69.7461
 L 62.9763,-69.376 L 63,-69 L 62.9763,-68.624 L 62.9057,-68.2539 L 62.7893,-67.8956 L 62.6289,-67.5547
 L 62.427,-67.2366 L 62.1869,-66.9464 L 61.9123,-66.6885 L 61.6075,-66.467 L 61.2773,-66.2855 L 60.927,-66.1468
 L 60.5621,-66.0531 L 60.1884,-66.0059 z
M 7.40581,-67.503 L 7.21892,-67.5266 L 7.03647,-67.5734 L 6.86133,-67.6428 L 6.69626,-67.7335 L 6.54385,-67.8442
 L 6.40654,-67.9732 L 6.28647,-68.1183 L 6.18553,-68.2774 L 6.10533,-68.4478 L 6.04712,-68.627 L 6.01183,-68.812
 L 6,-69 L 6.01183,-69.188 L 6.04712,-69.373 L 6.10533,-69.5522 L 6.18553,-69.7226 L 6.28647,-69.8817
 L 6.40654,-70.0268 L 6.54385,-70.1558 L 6.69626,-70.2665 L 6.86133,-70.3572 L 7.03647,-70.4266 L 7.21892,-70.4734
 L 7.40581,-70.497 L 7.59418,-70.497 L 7.78107,-70.4734 L 7.96352,-70.4266 L 8.13866,-70.3572 L 8.30373,-70.2665
 L 8.45613,-70.1558 L 8.59344,-70.0268 L 8.71352,-69.8817 L 8.81445,-69.7226 L 8.89465,-69.5522 L 8.95287,-69.373
 L 8.98816,-69.188 L 9,-69 L 8.98816,-68.812 L 8.95287,-68.627 L 8.89465,-68.4478 L 8.81445,-68.2774
 L 8.71352,-68.1183 L 8.59344,-67.9732 L 8.45613,-67.8442 L 8.30373,-67.7335 L 8.13866,-67.6428 L 7.96352,-67.5734
 L 7.78107,-67.5266 L 7.59418,-67.503 z
M 52.4058,-67.503 L 52.2189,-67.5266 L 52.0365,-67.5734 L 51.8613,-67.6428 L 51.6963,-67.7335 L 51.5439,-67.8442
 L 51.4065,-67.9732 L 51.2865,-68.1183 L 51.1855,-68.2774 L 51.1053,-68.4478 L 51.0471,-68.627 L 51.0118,-68.812
 L 51,-69 L 51.0118,-69.188 L 51.0471,-69.373 L 51.1053,-69.5522 L 51.1855,-69.7226 L 51.2865,-69.8817
 L 51.4065,-70.0268 L 51.5439,-70.1558 L 51.6963,-70.2665 L 51.8613,-70.3572 L 52.0365,-70.4266 L 52.2189,-70.4734
 L 52.4058,-70.497 L 52.5942,-70.497 L 52.7811,-70.4734 L 52.9635,-70.4266 L 53.1387,-70.3572 L 53.3037,-70.2665
 L 53.4561,-70.1558 L 53.5934,-70.0268 L 53.7135,-69.8817 L 53.8145,-69.7226 L 53.8947,-69.5522 L 53.9529,-69.373
 L 53.9882,-69.188 L 54,-69 L 53.9882,-68.812 L 53.9529,-68.627 L 53.8947,-68.4478 L 53.8145,-68.2774
 L 53.7135,-68.1183 L 53.5934,-67.9732 L 53.4561,-67.8442 L 53.3037,-67.7335 L 53.1387,-67.6428 L 52.9635,-67.5734
 L 52.7811,-67.5266 L 52.5942,-67.503 z
M 67.4058,-67.503 L 67.2189,-67.5266 L 67.0365,-67.5734 L 66.8613,-67.6428 L 66.6963,-67.7335 L 66.5439,-67.8442
 L 66.4065,-67.9732 L 66.2865,-68.1183 L 66.1855,-68.2774 L 66.1053,-68.4478 L 66.0471,-68.627 L 66.0118,-68.812
 L 66,-69 L 66.0118,-69.188 L 66.0471,-69.373 L 66.1053,-69.5522 L 66.1855,-69.7226 L 66.2865,-69.8817
 L 66.4065,-70.0268 L 66.5439,-70.1558 L 66.6963,-70.2665 L 66.8613,-70.3572 L 67.0365,-70.4266 L 67.2189,-70.4734
 L 67.4058,-70.497 L 67.5942,-70.497 L 67.7811,-70.4734 L 67.9635,-70.4266 L 68.1387,-70.3572 L 68.3037,-70.2665
 L 68.4561,-70.1558 L 68.5934,-70.0268 L 68.7135,-69.8817 L 68.8145,-69.7226 L 68.8947,-69.5522 L 68.9529,-69.373
 L 68.9882,-69.188 L 69,-69 L 68.9882,-68.812 L 68.9529,-68.627 L 68.8947,-68.4478 L 68.8145,-68.2774
 L 68.7135,-68.1183 L 68.5934,-67.9732 L 68.4561,-67.8442 L 68.3037,-67.7335 L 68.1387,-67.6428 L 67.9635,-67.5734
 L 67.7811,-67.5266 L 67.5942,-67.503 z
M 37.4058,-67.503 L 37.2189,-67.5266 L 37.0365,-67.5734 L 36.8613,-67.6428 L 36.6963,-67.7335 L 36.5439,-67.8442
 L 36.4065,-67.9732 L 36.2865,-68.1183 L 36.1855,-68.2774 L 36.1053,-68.4478 L 36.0471,-68.627 L 36.0118,-68.812
 L 36,-69 L 36.0118,-69.188 L 36.0471,-69.373 L 36.1053,-69.5522 L 36.1855,-69.7226 L 36.2865,-69.8817
 L 36.4065,-70.0268 L 36.5439,-70.1558 L 36.6963,-70.2665 L 36.8613,-70.3572 L 37.0365,-70.4266 L 37.2189,-70.4734
 L 37.4058,-70.497 L 37.5942,-70.497 L 37.7811,-70.4734 L 37.9635,-70.4266 L 38.1387,-70.3572 L 38.3037,-70.2665
 L 38.4561,-70.1558 L 38.5934,-70.0268 L 38.7135,-69.8817 L 38.8145,-69.7226 L 38.8947,-69.5522 L 38.9529,-69.373
 L 38.9882,-69.188 L 39,-69 L 38.9882,-68.812 L 38.9529,-68.627 L 38.8947,-68.4478 L 38.8145,-68.2774
 L 38.7135,-68.1183 L 38.5934,-67.9732 L 38.4561,-67.8442 L 38.3037,-67.7335 L 38.1387,-67.6428 L 37.9635,-67.5734
 L 37.7811,-67.5266 L 37.5942,-67.503 z
M -52.5942,-67.503 L -52.7811,-67.5266 L -52.9635,-67.5734 L -53.1387,-67.6428 L -53.3037,-67.7335 L -53.4561,-67.8442
 L -53.5934,-67.9732 L -53.7135,-68.1183 L -53.8145,-68.2774 L -53.8947,-68.4478 L -53.9529,-68.627 L -53.9882,-68.812
 L -54,-69 L -53.9882,-69.188 L -53.9529,-69.373 L -53.8947,-69.5522 L -53.8145,-69.7226 L -53.7135,-69.8817
 L -53.5934,-70.0268 L -53.4561,-70.1558 L -53.3037,-70.2665 L -53.1387,-70.3572 L -52.9635,-70.4266 L -52.7811,-70.4734
 L -52.5942,-70.497 L -52.4058,-70.497 L -52.2189,-70.4734 L -52.0365,-70.4266 L -51.8613,-70.3572 L -51.6963,-70.2665
 L -51.5439,-70.1558 L -51.4065,-70.0268 L -51.2865,-69.8817 L -51.1855,-69.7226 L -51.1053,-69.5522 L -51.0471,-69.373
 L -51.0118,-69.188 L -51,-69 L -51.0118,-68.812 L -51.0471,-68.627 L -51.1053,-68.4478 L -51.1855,-68.2774
 L -51.2865,-68.1183 L -51.4065,-67.9732 L -51.5439,-67.8442 L -51.6963,-67.7335 L -51.8613,-67.6428 L -52.0365,-67.5734
 L -52.2189,-67.5266 L -52.4058,-67.503 z
M -7.59418,-67.503 L -7.78107,-67.5266 L -7.96352,-67.5734 L -8.13866,-67.6428 L -8.30373,-67.7335 L -8.45613,-67.8442
 L -8.59344,-67.9732 L -8.71352,-68.1183 L -8.81445,-68.2774 L -8.89465,-68.4478 L -8.95287,-68.627 L -8.98816,-68.812
 L -9,-69 L -8.98816,-69.188 L -8.95287,-69.373 L -8.89465,-69.5522 L -8.81445,-69.7226 L -8.71352,-69.8817
 L -8.59344,-70.0268 L -8.45613,-70.1558 L -8.30373,-70.2665 L -8.13866,-70.3572 L -7.96352,-70.4266 L -7.78107,-70.4734
 L -7.59418,-70.497 L -7.40581,-70.497 L -7.21892,-70.4734 L -7.03647,-70.4266 L -6.86133,-70.3572 L -6.69626,-70.2665
 L -6.54385,-70.1558 L -6.40654,-70.0268 L -6.28647,-69.8817 L -6.18553,-69.7226 L -6.10533,-69.5522 L -6.04712,-69.373
 L -6.01183,-69.188 L -6,-69 L -6.01183,-68.812 L -6.04712,-68.627 L -6.10533,-68.4478 L -6.18553,-68.2774
 L -6.28647,-68.1183 L -6.40654,-67.9732 L -6.54385,-67.8442 L -6.69626,-67.7335 L -6.86133,-67.6428 L -7.03647,-67.5734
 L -7.21892,-67.5266 L -7.40581,-67.503 z
M -22.5942,-67.503 L -22.7811,-67.5266 L -22.9635,-67.5734 L -23.1387,-67.6428 L -23.3037,-67.7335 L -23.4561,-67.8442
 L -23.5934,-67.9732 L -23.7135,-68.1183 L -23.8145,-68.2774 L -23.8947,-68.4478 L -23.9529,-68.627 L -23.9882,-68.812
 L -24,-69 L -23.9882,-69.188 L -23.9529,-69.373 L -23.8947,-69.5522 L -23.8145,-69.7226 L -23.7135,-69.8817
 L -23.5934,-70.0268 L -23.4561,-70.1558 L -23.3037,-70.2665 L -23.1387,-70.3572 L -22.9635,-70.4266 L -22.7811,-70.4734
 L -22.5942,-70.497 L -22.4058,-70.497 L -22.2189,-70.4734 L -22.0365,-70.4266 L -21.8613,-70.3572 L -21.6963,-70.2665
 L -21.5439,-70.1558 L -21.4065,-70.0268 L -21.2865,-69.8817 L -21.1855,-69.7226 L -21.1053,-69.5522 L -21.0471,-69.373
 L -21.0118,-69.188 L -21,-69 L -21.0118,-68.812 L -21.0471,-68.627 L -21.1053,-68.4478 L -21.1855,-68.2774
 L -21.2865,-68.1183 L -21.4065,-67.9732 L -21.5439,-67.8442 L -21.6963,-67.7335 L -21.8613,-67.6428 L -22.0365,-67.5734
 L -22.2189,-67.5266 L -22.4058,-67.503 z
M -67.5942,-67.503 L -67.7811,-67.5266 L -67.9635,-67.5734 L -68.1387,-67.6428 L -68.3037,-67.7335 L -68.4561,-67.8442
 L -68.5934,-67.9732 L -68.7135,-68.1183 L -68.8145,-68.2774 L -68.8947,-68.4478 L -68.9529,-68.627 L -68.9882,-68.812
 L -69,-69 L -68.9882,-69.188 L -68.9529,-69.373 L -68.8947,-69.5522 L -68.8145,-69.7226 L -68.7135,-69.8817
 L -68.5934,-70.0268 L -68.4561,-70.1558 L -68.3037,-70.2665 L -68.1387,-70.3572 L -67.9635,-70.4266 L -67.7811,-70.4734
 L -67.5942,-70.497 L -67.4058,-70.497 L -67.2189,-70.4734 L -67.0365,-70.4266 L -66.8613,-70.3572 L -66.6963,-70.2665
 L -66.5439,-70.1558 L -66.4065,-70.0268 L -66.2865,-69.8817 L -66.1855,-69.7226 L -66.1053,-69.5522 L -66.0471,-69.373
 L -66.0118,-69.188 L -66,-69 L -66.0118,-68.812 L -66.0471,-68.627 L -66.1053,-68.4478 L -66.1855,-68.2774
 L -66.2865,-68.1183 L -66.4065,-67.9732 L -66.5439,-67.8442 L -66.6963,-67.7335 L -66.8613,-67.6428 L -67.0365,-67.5734
 L -67.2189,-67.5266 L -67.4058,-67.503 z
M -37.5942,-67.503 L -37.7811,-67.5266 L -37.9635,-67.5734 L -38.1387,-67.6428 L -38.3037,-67.7335 L -38.4561,-67.8442
 L -38.5934,-67.9732 L -38.7135,-68.1183 L -38.8145,-68.2774 L -38.8947,-68.4478 L -38.9529,-68.627 L -38.9882,-68.812
 L -39,-69 L -38.9882,-69.188 L -38.9529,-69.373 L -38.8947,-69.5522 L -38.8145,-69.7226 L -38.7135,-69.8817
 L -38.5934,-70.0268 L -38.4561,-70.1558 L -38.3037,-70.2665 L -38.1387,-70.3572 L -37.9635,-70.4266 L -37.7811,-70.4734
 L -37.5942,-70.497 L -37.4058,-70.497 L -37.2189,-70.4734 L -37.0365,-70.4266 L -36.8613,-70.3572 L -36.6963,-70.2665
 L -36.5439,-70.1558 L -36.4065,-70.0268 L -36.2865,-69.8817 L -36.1855,-69.7226 L -36.1053,-69.5522 L -36.0471,-69.373
 L -36.0118,-69.188 L -36,-69 L -36.0118,-68.812 L -36.0471,-68.627 L -36.1053,-68.4478 L -36.1855,-68.2774
 L -36.2865,-68.1183 L -36.4065,-67.9732 L -36.5439,-67.8442 L -36.6963,-67.7335 L -36.8613,-67.6428 L -37.0365,-67.5734
 L -37.2189,-67.5266 L -37.4058,-67.503 z
M 22.4058,-67.503 L 22.2189,-67.5266 L 22.0365,-67.5734 L 21.8613,-67.6428 L 21.6963,-67.7335 L 21.5439,-67.8442
 L 21.4065,-67.9732 L 21.2865,-68.1183 L 21.1855,-68.2774 L 21.1053,-68.4478 L 21.0471,-68.627 L 21.0118,-68.812
 L 21,-69 L 21.0118,-69.188 L 21.0471,-69.373 L 21.1053,-69.5522 L 21.1855,-69.7226 L 21.2865,-69.8817
 L 21.4065,-70.0268 L 21.5439,-70.1558 L 21.6963,-70.2665 L 21.8613,-70.3572 L 22.0365,-70.4266 L 22.2189,-70.4734
 L 22.4058,-70.497 L 22.5942,-70.497 L 22.7811,-70.4734 L 22.9635,-70.4266 L 23.1387,-70.3572 L 23.3037,-70.2665
 L 23.4561,-70.1558 L 23.5934,-70.0268 L 23.7135,-69.8817 L 23.8145,-69.7226 L 23.8947,-69.5522 L 23.9529,-69.373
 L 23.9882,-69.188 L 24,-69 L 23.9882,-68.812 L 23.9529,-68.627 L 23.8947,-68.4478 L 23.8145,-68.2774
 L 23.7135,-68.1183 L 23.5934,-67.9732 L 23.4561,-67.8442 L 23.3037,-67.7335 L 23.1387,-67.6428 L 22.9635,-67.5734
 L 22.7811,-67.5266 L 22.5942,-67.503 z
" stroke="black" fill="lightgray" stroke-width="0.5"/>
</svg>
