  0
SECTION
  2
BLOCKS
  0
ENDSEC
  0
SECTION
  2
ENTITIES
  0
LINE
  8
0
 10
25.4369
 20
-6.91142
 11
26.0451
 21
-6.75528
  0
LINE
  8
0
 10
26.0451
 20
-6.75528
 11
26.6289
 21
-6.52412
  0
LINE
  8
0
 10
26.6289
 20
-6.52412
 11
27.1791
 21
-6.22163
  0
LINE
  8
0
 10
27.1791
 20
-6.22163
 11
27.6871
 21
-5.85255
  0
LINE
  8
0
 10
27.6871
 20
-5.85255
 11
28.1448
 21
-5.42273
  0
LINE
  8
0
 10
28.1448
 20
-5.42273
 11
28.5451
 21
-4.93892
  0
LINE
  8
0
 10
28.5451
 20
-4.93892
 11
28.8815
 21
-4.40877
  0
LINE
  8
0
 10
28.8815
 20
-4.40877
 11
29.1489
 21
-3.84062
  0
LINE
  8
0
 10
29.1489
 20
-3.84062
 11
29.3429
 21
-3.24344
  0
LINE
  8
0
 10
29.3429
 20
-3.24344
 11
29.4606
 21
-2.62666
  0
LINE
  8
0
 10
29.4606
 20
-2.62666
 11
29.5
 21
-2
  0
LINE
  8
0
 10
29.5
 20
-2
 11
29.5
 21
2
  0
LINE
  8
0
 10
29.5
 20
2
 11
29.4606
 21
2.62666
  0
LINE
  8
0
 10
29.4606
 20
2.62666
 11
29.3429
 21
3.24344
  0
LINE
  8
0
 10
29.3429
 20
3.24344
 11
29.1489
 21
3.84062
  0
LINE
  8
0
 10
29.1489
 20
3.84062
 11
28.8815
 21
4.40877
  0
LINE
  8
0
 10
28.8815
 20
4.40877
 11
28.5451
 21
4.93892
  0
LINE
  8
0
 10
28.5451
 20
4.93892
 11
28.1448
 21
5.42273
  0
LINE
  8
0
 10
28.1448
 20
5.42273
 11
27.6871
 21
5.85255
  0
LINE
  8
0
 10
27.6871
 20
5.85255
 11
27.1791
 21
6.22163
  0
LINE
  8
0
 10
27.1791
 20
6.22163
 11
26.6289
 21
6.52412
  0
LINE
  8
0
 10
26.6289
 20
6.52412
 11
26.0451
 21
6.75528
  0
LINE
  8
0
 10
26.0451
 20
6.75528
 11
25.4369
 21
6.91142
  0
LINE
  8
0
 10
25.4369
 20
6.91142
 11
24.8139
 21
6.99013
  0
LINE
  8
0
 10
24.8139
 20
6.99013
 11
-24.8139
 21
6.99013
  0
LINE
  8
0
 10
-24.8139
 20
6.99013
 11
-25.4369
 21
6.91142
  0
LINE
  8
0
 10
-25.4369
 20
6.91142
 11
-26.0451
 21
6.75528
  0
LINE
  8
0
 10
-26.0451
 20
6.75528
 11
-26.6289
 21
6.52412
  0
LINE
  8
0
 10
-26.6289
 20
6.52412
 11
-27.1791
 21
6.22163
  0
LINE
  8
0
 10
-27.1791
 20
6.22163
 11
-27.6871
 21
5.85255
  0
LINE
  8
0
 10
-27.6871
 20
5.85255
 11
-28.1448
 21
5.42273
  0
LINE
  8
0
 10
-28.1448
 20
5.42273
 11
-28.5451
 21
4.93892
  0
LINE
  8
0
 10
-28.5451
 20
4.93892
 11
-28.8815
 21
4.40877
  0
LINE
  8
0
 10
-28.8815
 20
4.40877
 11
-29.1489
 21
3.84062
  0
LINE
  8
0
 10
-29.1489
 20
3.84062
 11
-29.3429
 21
3.24344
  0
LINE
  8
0
 10
-29.3429
 20
3.24344
 11
-29.4606
 21
2.62666
  0
LINE
  8
0
 10
-29.4606
 20
2.62666
 11
-29.5
 21
2
  0
LINE
  8
0
 10
-29.5
 20
2
 11
-29.5
 21
-2
  0
LINE
  8
0
 10
-29.5
 20
-2
 11
-29.4606
 21
-2.62666
  0
LINE
  8
0
 10
-29.4606
 20
-2.62666
 11
-29.3429
 21
-3.24344
  0
LINE
  8
0
 10
-29.3429
 20
-3.24344
 11
-29.1489
 21
-3.84062
  0
LINE
  8
0
 10
-29.1489
 20
-3.84062
 11
-28.8815
 21
-4.40877
  0
LINE
  8
0
 10
-28.8815
 20
-4.40877
 11
-28.5451
 21
-4.93892
  0
LINE
  8
0
 10
-28.5451
 20
-4.93892
 11
-28.1448
 21
-5.42273
  0
LINE
  8
0
 10
-28.1448
 20
-5.42273
 11
-27.6871
 21
-5.85255
  0
LINE
  8
0
 10
-27.6871
 20
-5.85255
 11
-27.1791
 21
-6.22163
  0
LINE
  8
0
 10
-27.1791
 20
-6.22163
 11
-26.6289
 21
-6.52412
  0
LINE
  8
0
 10
-26.6289
 20
-6.52412
 11
-26.0451
 21
-6.75528
  0
LINE
  8
0
 10
-26.0451
 20
-6.75528
 11
-25.4369
 21
-6.91142
  0
LINE
  8
0
 10
-25.4369
 20
-6.91142
 11
-24.8139
 21
-6.99013
  0
LINE
  8
0
 10
-24.8139
 20
-6.99013
 11
24.8139
 21
-6.99013
  0
LINE
  8
0
 10
24.8139
 20
-6.99013
 11
25.4369
 21
-6.91142
  0
LINE
  8
0
 10
5.31161
 20
-2.99408
 11
4.93785
 21
-2.94685
  0
LINE
  8
0
 10
4.93785
 20
-2.94685
 11
4.57294
 21
-2.85316
  0
LINE
  8
0
 10
4.57294
 20
-2.85316
 11
4.22266
 21
-2.71448
  0
LINE
  8
0
 10
4.22266
 20
-2.71448
 11
3.89252
 21
-2.53297
  0
LINE
  8
0
 10
3.89252
 20
-2.53297
 11
3.58772
 21
-2.31154
  0
LINE
  8
0
 10
3.58772
 20
-2.31154
 11
3.31308
 21
-2.05363
  0
LINE
  8
0
 10
3.31308
 20
-2.05363
 11
3.07294
 21
-1.76335
  0
LINE
  8
0
 10
3.07294
 20
-1.76335
 11
2.87108
 21
-1.44525
  0
LINE
  8
0
 10
2.87108
 20
-1.44525
 11
2.71066
 21
-1.10437
  0
LINE
  8
0
 10
2.71066
 20
-1.10437
 11
2.59424
 21
-0.746063
  0
LINE
  8
0
 10
2.59424
 20
-0.746063
 11
2.52365
 21
-0.375992
  0
LINE
  8
0
 10
2.52365
 20
-0.375992
 11
2.5
 21
0
  0
LINE
  8
0
 10
2.5
 20
0
 11
2.52365
 21
0.375992
  0
LINE
  8
0
 10
2.52365
 20
0.375992
 11
2.59424
 21
0.746063
  0
LINE
  8
0
 10
2.59424
 20
0.746063
 11
2.71066
 21
1.10437
  0
LINE
  8
0
 10
2.71066
 20
1.10437
 11
2.87108
 21
1.44525
  0
LINE
  8
0
 10
2.87108
 20
1.44525
 11
3.07294
 21
1.76335
  0
LINE
  8
0
 10
3.07294
 20
1.76335
 11
3.31308
 21
2.05363
  0
LINE
  8
0
 10
3.31308
 20
2.05363
 11
3.58772
 21
2.31154
  0
LINE
  8
0
 10
3.58772
 20
2.31154
 11
3.89252
 21
2.53297
  0
LINE
  8
0
 10
3.89252
 20
2.53297
 11
4.22266
 21
2.71448
  0
LINE
  8
0
 10
4.22266
 20
2.71448
 11
4.57294
 21
2.85316
  0
LINE
  8
0
 10
4.57294
 20
2.85316
 11
4.93785
 21
2.94685
  0
LINE
  8
0
 10
4.93785
 20
2.94685
 11
5.31161
 21
2.99408
  0
LINE
  8
0
 10
5.31161
 20
2.99408
 11
5.68837
 21
2.99408
  0
LINE
  8
0
 10
5.68837
 20
2.99408
 11
6.06213
 21
2.94685
  0
LINE
  8
0
 10
6.06213
 20
2.94685
 11
6.42705
 21
2.85316
  0
LINE
  8
0
 10
6.42705
 20
2.85316
 11
6.77733
 21
2.71448
  0
LINE
  8
0
 10
6.77733
 20
2.71448
 11
7.10747
 21
2.53297
  0
LINE
  8
0
 10
7.10747
 20
2.53297
 11
7.41226
 21
2.31154
  0
LINE
  8
0
 10
7.41226
 20
2.31154
 11
7.6869
 21
2.05363
  0
LINE
  8
0
 10
7.6869
 20
2.05363
 11
7.92705
 21
1.76335
  0
LINE
  8
0
 10
7.92705
 20
1.76335
 11
8.12891
 21
1.44525
  0
LINE
  8
0
 10
8.12891
 20
1.44525
 11
8.28932
 21
1.10437
  0
LINE
  8
0
 10
8.28932
 20
1.10437
 11
8.40575
 21
0.746063
  0
LINE
  8
0
 10
8.40575
 20
0.746063
 11
8.47633
 21
0.375992
  0
LINE
  8
0
 10
8.47633
 20
0.375992
 11
8.5
 21
0
  0
LINE
  8
0
 10
8.5
 20
0
 11
8.47633
 21
-0.375992
  0
LINE
  8
0
 10
8.47633
 20
-0.375992
 11
8.40575
 21
-0.746063
  0
LINE
  8
0
 10
8.40575
 20
-0.746063
 11
8.28932
 21
-1.10437
  0
LINE
  8
0
 10
8.28932
 20
-1.10437
 11
8.12891
 21
-1.44525
  0
LINE
  8
0
 10
8.12891
 20
-1.44525
 11
7.92705
 21
-1.76335
  0
LINE
  8
0
 10
7.92705
 20
-1.76335
 11
7.6869
 21
-2.05363
  0
LINE
  8
0
 10
7.6869
 20
-2.05363
 11
7.41226
 21
-2.31154
  0
LINE
  8
0
 10
7.41226
 20
-2.31154
 11
7.10747
 21
-2.53297
  0
LINE
  8
0
 10
7.10747
 20
-2.53297
 11
6.77733
 21
-2.71448
  0
LINE
  8
0
 10
6.77733
 20
-2.71448
 11
6.42705
 21
-2.85316
  0
LINE
  8
0
 10
6.42705
 20
-2.85316
 11
6.06213
 21
-2.94685
  0
LINE
  8
0
 10
6.06213
 20
-2.94685
 11
5.68837
 21
-2.99408
  0
LINE
  8
0
 10
5.68837
 20
-2.99408
 11
5.31161
 21
-2.99408
  0
LINE
  8
0
 10
-19.4763
 20
0.375992
 11
-19.4057
 21
0.746063
  0
LINE
  8
0
 10
-19.4057
 20
0.746063
 11
-19.2893
 21
1.10437
  0
LINE
  8
0
 10
-19.2893
 20
1.10437
 11
-19.1289
 21
1.44525
  0
LINE
  8
0
 10
-19.1289
 20
1.44525
 11
-18.927
 21
1.76335
  0
LINE
  8
0
 10
-18.927
 20
1.76335
 11
-18.6869
 21
2.05363
  0
LINE
  8
0
 10
-18.6869
 20
2.05363
 11
-18.4123
 21
2.31154
  0
LINE
  8
0
 10
-18.4123
 20
2.31154
 11
-18.1075
 21
2.53297
  0
LINE
  8
0
 10
-18.1075
 20
2.53297
 11
-17.7773
 21
2.71448
  0
LINE
  8
0
 10
-17.7773
 20
2.71448
 11
-17.427
 21
2.85316
  0
LINE
  8
0
 10
-17.427
 20
2.85316
 11
-17.0621
 21
2.94685
  0
LINE
  8
0
 10
-17.0621
 20
2.94685
 11
-16.6884
 21
2.99408
  0
LINE
  8
0
 10
-16.6884
 20
2.99408
 11
-16.3116
 21
2.99408
  0
LINE
  8
0
 10
-16.3116
 20
2.99408
 11
-15.9379
 21
2.94685
  0
LINE
  8
0
 10
-15.9379
 20
2.94685
 11
-15.5729
 21
2.85316
  0
LINE
  8
0
 10
-15.5729
 20
2.85316
 11
-15.2227
 21
2.71448
  0
LINE
  8
0
 10
-15.2227
 20
2.71448
 11
-14.8925
 21
2.53297
  0
LINE
  8
0
 10
-14.8925
 20
2.53297
 11
-14.5877
 21
2.31154
  0
LINE
  8
0
 10
-14.5877
 20
2.31154
 11
-14.3131
 21
2.05363
  0
LINE
  8
0
 10
-14.3131
 20
2.05363
 11
-14.0729
 21
1.76335
  0
LINE
  8
0
 10
-14.0729
 20
1.76335
 11
-13.8711
 21
1.44525
  0
LINE
  8
0
 10
-13.8711
 20
1.44525
 11
-13.7107
 21
1.10437
  0
LINE
  8
0
 10
-13.7107
 20
1.10437
 11
-13.5942
 21
0.746063
  0
LINE
  8
0
 10
-13.5942
 20
0.746063
 11
-13.5237
 21
0.375992
  0
LINE
  8
0
 10
-13.5237
 20
0.375992
 11
-13.5
 21
0
  0
LINE
  8
0
 10
-13.5
 20
0
 11
-13.5237
 21
-0.375992
  0
LINE
  8
0
 10
-13.5237
 20
-0.375992
 11
-13.5942
 21
-0.746063
  0
LINE
  8
0
 10
-13.5942
 20
-0.746063
 11
-13.7107
 21
-1.10437
  0
LINE
  8
0
 10
-13.7107
 20
-1.10437
 11
-13.8711
 21
-1.44525
  0
LINE
  8
0
 10
-13.8711
 20
-1.44525
 11
-14.0729
 21
-1.76335
  0
LINE
  8
0
 10
-14.0729
 20
-1.76335
 11
-14.3131
 21
-2.05363
  0
LINE
  8
0
 10
-14.3131
 20
-2.05363
 11
-14.5877
 21
-2.31154
  0
LINE
  8
0
 10
-14.5877
 20
-2.31154
 11
-14.8925
 21
-2.53297
  0
LINE
  8
0
 10
-14.8925
 20
-2.53297
 11
-15.2227
 21
-2.71448
  0
LINE
  8
0
 10
-15.2227
 20
-2.71448
 11
-15.5729
 21
-2.85316
  0
LINE
  8
0
 10
-15.5729
 20
-2.85316
 11
-15.9379
 21
-2.94685
  0
LINE
  8
0
 10
-15.9379
 20
-2.94685
 11
-16.3116
 21
-2.99408
  0
LINE
  8
0
 10
-16.3116
 20
-2.99408
 11
-16.6884
 21
-2.99408
  0
LINE
  8
0
 10
-16.6884
 20
-2.99408
 11
-17.0621
 21
-2.94685
  0
LINE
  8
0
 10
-17.0621
 20
-2.94685
 11
-17.427
 21
-2.85316
  0
LINE
  8
0
 10
-17.427
 20
-2.85316
 11
-17.7773
 21
-2.71448
  0
LINE
  8
0
 10
-17.7773
 20
-2.71448
 11
-18.1075
 21
-2.53297
  0
LINE
  8
0
 10
-18.1075
 20
-2.53297
 11
-18.4123
 21
-2.31154
  0
LINE
  8
0
 10
-18.4123
 20
-2.31154
 11
-18.6869
 21
-2.05363
  0
LINE
  8
0
 10
-18.6869
 20
-2.05363
 11
-18.927
 21
-1.76335
  0
LINE
  8
0
 10
-18.927
 20
-1.76335
 11
-19.1289
 21
-1.44525
  0
LINE
  8
0
 10
-19.1289
 20
-1.44525
 11
-19.2893
 21
-1.10437
  0
LINE
  8
0
 10
-19.2893
 20
-1.10437
 11
-19.4057
 21
-0.746063
  0
LINE
  8
0
 10
-19.4057
 20
-0.746063
 11
-19.4763
 21
-0.375992
  0
LINE
  8
0
 10
-19.4763
 20
-0.375992
 11
-19.5
 21
0
  0
LINE
  8
0
 10
-19.5
 20
0
 11
-19.4763
 21
0.375992
  0
LINE
  8
0
 10
19.5237
 20
0.375992
 11
19.5942
 21
0.746063
  0
LINE
  8
0
 10
19.5942
 20
0.746063
 11
19.7107
 21
1.10437
  0
LINE
  8
0
 10
19.7107
 20
1.10437
 11
19.8711
 21
1.44525
  0
LINE
  8
0
 10
19.8711
 20
1.44525
 11
20.0729
 21
1.76335
  0
LINE
  8
0
 10
20.0729
 20
1.76335
 11
20.3131
 21
2.05363
  0
LINE
  8
0
 10
20.3131
 20
2.05363
 11
20.5877
 21
2.31154
  0
LINE
  8
0
 10
20.5877
 20
2.31154
 11
20.8925
 21
2.53297
  0
LINE
  8
0
 10
20.8925
 20
2.53297
 11
21.2227
 21
2.71448
  0
LINE
  8
0
 10
21.2227
 20
2.71448
 11
21.5729
 21
2.85316
  0
LINE
  8
0
 10
21.5729
 20
2.85316
 11
21.9379
 21
2.94685
  0
LINE
  8
0
 10
21.9379
 20
2.94685
 11
22.3116
 21
2.99408
  0
LINE
  8
0
 10
22.3116
 20
2.99408
 11
22.6884
 21
2.99408
  0
LINE
  8
0
 10
22.6884
 20
2.99408
 11
23.0621
 21
2.94685
  0
LINE
  8
0
 10
23.0621
 20
2.94685
 11
23.427
 21
2.85316
  0
LINE
  8
0
 10
23.427
 20
2.85316
 11
23.7773
 21
2.71448
  0
LINE
  8
0
 10
23.7773
 20
2.71448
 11
24.1075
 21
2.53297
  0
LINE
  8
0
 10
24.1075
 20
2.53297
 11
24.4123
 21
2.31154
  0
LINE
  8
0
 10
24.4123
 20
2.31154
 11
24.6869
 21
2.05363
  0
LINE
  8
0
 10
24.6869
 20
2.05363
 11
24.927
 21
1.76335
  0
LINE
  8
0
 10
24.927
 20
1.76335
 11
25.1289
 21
1.44525
  0
LINE
  8
0
 10
25.1289
 20
1.44525
 11
25.2893
 21
1.10437
  0
LINE
  8
0
 10
25.2893
 20
1.10437
 11
25.4057
 21
0.746063
  0
LINE
  8
0
 10
25.4057
 20
0.746063
 11
25.4763
 21
0.375992
  0
LINE
  8
0
 10
25.4763
 20
0.375992
 11
25.5
 21
0
  0
LINE
  8
0
 10
25.5
 20
0
 11
25.4763
 21
-0.375992
  0
LINE
  8
0
 10
25.4763
 20
-0.375992
 11
25.4057
 21
-0.746063
  0
LINE
  8
0
 10
25.4057
 20
-0.746063
 11
25.2893
 21
-1.10437
  0
LINE
  8
0
 10
25.2893
 20
-1.10437
 11
25.1289
 21
-1.44525
  0
LINE
  8
0
 10
25.1289
 20
-1.44525
 11
24.927
 21
-1.76335
  0
LINE
  8
0
 10
24.927
 20
-1.76335
 11
24.6869
 21
-2.05363
  0
LINE
  8
0
 10
24.6869
 20
-2.05363
 11
24.4123
 21
-2.31154
  0
LINE
  8
0
 10
24.4123
 20
-2.31154
 11
24.1075
 21
-2.53297
  0
LINE
  8
0
 10
24.1075
 20
-2.53297
 11
23.7773
 21
-2.71448
  0
LINE
  8
0
 10
23.7773
 20
-2.71448
 11
23.427
 21
-2.85316
  0
LINE
  8
0
 10
23.427
 20
-2.85316
 11
23.0621
 21
-2.94685
  0
LINE
  8
0
 10
23.0621
 20
-2.94685
 11
22.6884
 21
-2.99408
  0
LINE
  8
0
 10
22.6884
 20
-2.99408
 11
22.3116
 21
-2.99408
  0
LINE
  8
0
 10
22.3116
 20
-2.99408
 11
21.9379
 21
-2.94685
  0
LINE
  8
0
 10
21.9379
 20
-2.94685
 11
21.5729
 21
-2.85316
  0
LINE
  8
0
 10
21.5729
 20
-2.85316
 11
21.2227
 21
-2.71448
  0
LINE
  8
0
 10
21.2227
 20
-2.71448
 11
20.8925
 21
-2.53297
  0
LINE
  8
0
 10
20.8925
 20
-2.53297
 11
20.5877
 21
-2.31154
  0
LINE
  8
0
 10
20.5877
 20
-2.31154
 11
20.3131
 21
-2.05363
  0
LINE
  8
0
 10
20.3131
 20
-2.05363
 11
20.0729
 21
-1.76335
  0
LINE
  8
0
 10
20.0729
 20
-1.76335
 11
19.8711
 21
-1.44525
  0
LINE
  8
0
 10
19.8711
 20
-1.44525
 11
19.7107
 21
-1.10437
  0
LINE
  8
0
 10
19.7107
 20
-1.10437
 11
19.5942
 21
-0.746063
  0
LINE
  8
0
 10
19.5942
 20
-0.746063
 11
19.5237
 21
-0.375992
  0
LINE
  8
0
 10
19.5237
 20
-0.375992
 11
19.5
 21
0
  0
LINE
  8
0
 10
19.5
 20
0
 11
19.5237
 21
0.375992
  0
LINE
  8
0
 10
-5.68837
 20
-2.99408
 11
-6.06213
 21
-2.94685
  0
LINE
  8
0
 10
-6.06213
 20
-2.94685
 11
-6.42705
 21
-2.85316
  0
LINE
  8
0
 10
-6.42705
 20
-2.85316
 11
-6.77733
 21
-2.71448
  0
LINE
  8
0
 10
-6.77733
 20
-2.71448
 11
-7.10747
 21
-2.53297
  0
LINE
  8
0
 10
-7.10747
 20
-2.53297
 11
-7.41226
 21
-2.31154
  0
LINE
  8
0
 10
-7.41226
 20
-2.31154
 11
-7.6869
 21
-2.05363
  0
LINE
  8
0
 10
-7.6869
 20
-2.05363
 11
-7.92705
 21
-1.76335
  0
LINE
  8
0
 10
-7.92705
 20
-1.76335
 11
-8.12891
 21
-1.44525
  0
LINE
  8
0
 10
-8.12891
 20
-1.44525
 11
-8.28932
 21
-1.10437
  0
LINE
  8
0
 10
-8.28932
 20
-1.10437
 11
-8.40575
 21
-0.746063
  0
LINE
  8
0
 10
-8.40575
 20
-0.746063
 11
-8.47633
 21
-0.375992
  0
LINE
  8
0
 10
-8.47633
 20
-0.375992
 11
-8.5
 21
0
  0
LINE
  8
0
 10
-8.5
 20
0
 11
-8.47633
 21
0.375992
  0
LINE
  8
0
 10
-8.47633
 20
0.375992
 11
-8.40575
 21
0.746063
  0
LINE
  8
0
 10
-8.40575
 20
0.746063
 11
-8.28932
 21
1.10437
  0
LINE
  8
0
 10
-8.28932
 20
1.10437
 11
-8.12891
 21
1.44525
  0
LINE
  8
0
 10
-8.12891
 20
1.44525
 11
-7.92705
 21
1.76335
  0
LINE
  8
0
 10
-7.92705
 20
1.76335
 11
-7.6869
 21
2.05363
  0
LINE
  8
0
 10
-7.6869
 20
2.05363
 11
-7.41226
 21
2.31154
  0
LINE
  8
0
 10
-7.41226
 20
2.31154
 11
-7.10747
 21
2.53297
  0
LINE
  8
0
 10
-7.10747
 20
2.53297
 11
-6.77733
 21
2.71448
  0
LINE
  8
0
 10
-6.77733
 20
2.71448
 11
-6.42705
 21
2.85316
  0
LINE
  8
0
 10
-6.42705
 20
2.85316
 11
-6.06213
 21
2.94685
  0
LINE
  8
0
 10
-6.06213
 20
2.94685
 11
-5.68837
 21
2.99408
  0
LINE
  8
0
 10
-5.68837
 20
2.99408
 11
-5.31161
 21
2.99408
  0
LINE
  8
0
 10
-5.31161
 20
2.99408
 11
-4.93785
 21
2.94685
  0
LINE
  8
0
 10
-4.93785
 20
2.94685
 11
-4.57294
 21
2.85316
  0
LINE
  8
0
 10
-4.57294
 20
2.85316
 11
-4.22266
 21
2.71448
  0
LINE
  8
0
 10
-4.22266
 20
2.71448
 11
-3.89252
 21
2.53297
  0
LINE
  8
0
 10
-3.89252
 20
2.53297
 11
-3.58772
 21
2.31154
  0
LINE
  8
0
 10
-3.58772
 20
2.31154
 11
-3.31308
 21
2.05363
  0
LINE
  8
0
 10
-3.31308
 20
2.05363
 11
-3.07294
 21
1.76335
  0
LINE
  8
0
 10
-3.07294
 20
1.76335
 11
-2.87108
 21
1.44525
  0
LINE
  8
0
 10
-2.87108
 20
1.44525
 11
-2.71066
 21
1.10437
  0
LINE
  8
0
 10
-2.71066
 20
1.10437
 11
-2.59424
 21
0.746063
  0
LINE
  8
0
 10
-2.59424
 20
0.746063
 11
-2.52365
 21
0.375992
  0
LINE
  8
0
 10
-2.52365
 20
0.375992
 11
-2.5
 21
0
  0
LINE
  8
0
 10
-2.5
 20
0
 11
-2.52365
 21
-0.375992
  0
LINE
  8
0
 10
-2.52365
 20
-0.375992
 11
-2.59424
 21
-0.746063
  0
LINE
  8
0
 10
-2.59424
 20
-0.746063
 11
-2.71066
 21
-1.10437
  0
LINE
  8
0
 10
-2.71066
 20
-1.10437
 11
-2.87108
 21
-1.44525
  0
LINE
  8
0
 10
-2.87108
 20
-1.44525
 11
-3.07294
 21
-1.76335
  0
LINE
  8
0
 10
-3.07294
 20
-1.76335
 11
-3.31308
 21
-2.05363
  0
LINE
  8
0
 10
-3.31308
 20
-2.05363
 11
-3.58772
 21
-2.31154
  0
LINE
  8
0
 10
-3.58772
 20
-2.31154
 11
-3.89252
 21
-2.53297
  0
LINE
  8
0
 10
-3.89252
 20
-2.53297
 11
-4.22266
 21
-2.71448
  0
LINE
  8
0
 10
-4.22266
 20
-2.71448
 11
-4.57294
 21
-2.85316
  0
LINE
  8
0
 10
-4.57294
 20
-2.85316
 11
-4.93785
 21
-2.94685
  0
LINE
  8
0
 10
-4.93785
 20
-2.94685
 11
-5.31161
 21
-2.99408
  0
LINE
  8
0
 10
-5.31161
 20
-2.99408
 11
-5.68837
 21
-2.99408
  0
LINE
  8
0
 10
-19.5237
 20
-0.375992
 11
-19.5942
 21
-0.746063
  0
LINE
  8
0
 10
-19.5942
 20
-0.746063
 11
-19.7107
 21
-1.10437
  0
LINE
  8
0
 10
-19.7107
 20
-1.10437
 11
-19.8711
 21
-1.44525
  0
LINE
  8
0
 10
-19.8711
 20
-1.44525
 11
-20.0729
 21
-1.76335
  0
LINE
  8
0
 10
-20.0729
 20
-1.76335
 11
-20.3131
 21
-2.05363
  0
LINE
  8
0
 10
-20.3131
 20
-2.05363
 11
-20.5877
 21
-2.31154
  0
LINE
  8
0
 10
-20.5877
 20
-2.31154
 11
-20.8925
 21
-2.53297
  0
LINE
  8
0
 10
-20.8925
 20
-2.53297
 11
-21.2227
 21
-2.71448
  0
LINE
  8
0
 10
-21.2227
 20
-2.71448
 11
-21.5729
 21
-2.85316
  0
LINE
  8
0
 10
-21.5729
 20
-2.85316
 11
-21.9379
 21
-2.94685
  0
LINE
  8
0
 10
-21.9379
 20
-2.94685
 11
-22.3116
 21
-2.99408
  0
LINE
  8
0
 10
-22.3116
 20
-2.99408
 11
-22.6884
 21
-2.99408
  0
LINE
  8
0
 10
-22.6884
 20
-2.99408
 11
-23.0621
 21
-2.94685
  0
LINE
  8
0
 10
-23.0621
 20
-2.94685
 11
-23.427
 21
-2.85316
  0
LINE
  8
0
 10
-23.427
 20
-2.85316
 11
-23.7773
 21
-2.71448
  0
LINE
  8
0
 10
-23.7773
 20
-2.71448
 11
-24.1075
 21
-2.53297
  0
LINE
  8
0
 10
-24.1075
 20
-2.53297
 11
-24.4123
 21
-2.31154
  0
LINE
  8
0
 10
-24.4123
 20
-2.31154
 11
-24.6869
 21
-2.05363
  0
LINE
  8
0
 10
-24.6869
 20
-2.05363
 11
-24.927
 21
-1.76335
  0
LINE
  8
0
 10
-24.927
 20
-1.76335
 11
-25.1289
 21
-1.44525
  0
LINE
  8
0
 10
-25.1289
 20
-1.44525
 11
-25.2893
 21
-1.10437
  0
LINE
  8
0
 10
-25.2893
 20
-1.10437
 11
-25.4057
 21
-0.746063
  0
LINE
  8
0
 10
-25.4057
 20
-0.746063
 11
-25.4763
 21
-0.375992
  0
LINE
  8
0
 10
-25.4763
 20
-0.375992
 11
-25.5
 21
0
  0
LINE
  8
0
 10
-25.5
 20
0
 11
-25.4763
 21
0.375992
  0
LINE
  8
0
 10
-25.4763
 20
0.375992
 11
-25.4057
 21
0.746063
  0
LINE
  8
0
 10
-25.4057
 20
0.746063
 11
-25.2893
 21
1.10437
  0
LINE
  8
0
 10
-25.2893
 20
1.10437
 11
-25.1289
 21
1.44525
  0
LINE
  8
0
 10
-25.1289
 20
1.44525
 11
-24.927
 21
1.76335
  0
LINE
  8
0
 10
-24.927
 20
1.76335
 11
-24.6869
 21
2.05363
  0
LINE
  8
0
 10
-24.6869
 20
2.05363
 11
-24.4123
 21
2.31154
  0
LINE
  8
0
 10
-24.4123
 20
2.31154
 11
-24.1075
 21
2.53297
  0
LINE
  8
0
 10
-24.1075
 20
2.53297
 11
-23.7773
 21
2.71448
  0
LINE
  8
0
 10
-23.7773
 20
2.71448
 11
-23.427
 21
2.85316
  0
LINE
  8
0
 10
-23.427
 20
2.85316
 11
-23.0621
 21
2.94685
  0
LINE
  8
0
 10
-23.0621
 20
2.94685
 11
-22.6884
 21
2.99408
  0
LINE
  8
0
 10
-22.6884
 20
2.99408
 11
-22.3116
 21
2.99408
  0
LINE
  8
0
 10
-22.3116
 20
2.99408
 11
-21.9379
 21
2.94685
  0
LINE
  8
0
 10
-21.9379
 20
2.94685
 11
-21.5729
 21
2.85316
  0
LINE
  8
0
 10
-21.5729
 20
2.85316
 11
-21.2227
 21
2.71448
  0
LINE
  8
0
 10
-21.2227
 20
2.71448
 11
-20.8925
 21
2.53297
  0
LINE
  8
0
 10
-20.8925
 20
2.53297
 11
-20.5877
 21
2.31154
  0
LINE
  8
0
 10
-20.5877
 20
2.31154
 11
-20.3131
 21
2.05363
  0
LINE
  8
0
 10
-20.3131
 20
2.05363
 11
-20.0729
 21
1.76335
  0
LINE
  8
0
 10
-20.0729
 20
1.76335
 11
-19.8711
 21
1.44525
  0
LINE
  8
0
 10
-19.8711
 20
1.44525
 11
-19.7107
 21
1.10437
  0
LINE
  8
0
 10
-19.7107
 20
1.10437
 11
-19.5942
 21
0.746063
  0
LINE
  8
0
 10
-19.5942
 20
0.746063
 11
-19.5237
 21
0.375992
  0
LINE
  8
0
 10
-19.5237
 20
0.375992
 11
-19.5
 21
0
  0
LINE
  8
0
 10
-19.5
 20
0
 11
-19.5237
 21
-0.375992
  0
LINE
  8
0
 10
19.4763
 20
-0.375992
 11
19.4057
 21
-0.746063
  0
LINE
  8
0
 10
19.4057
 20
-0.746063
 11
19.2893
 21
-1.10437
  0
LINE
  8
0
 10
19.2893
 20
-1.10437
 11
19.1289
 21
-1.44525
  0
LINE
  8
0
 10
19.1289
 20
-1.44525
 11
18.927
 21
-1.76335
  0
LINE
  8
0
 10
18.927
 20
-1.76335
 11
18.6869
 21
-2.05363
  0
LINE
  8
0
 10
18.6869
 20
-2.05363
 11
18.4123
 21
-2.31154
  0
LINE
  8
0
 10
18.4123
 20
-2.31154
 11
18.1075
 21
-2.53297
  0
LINE
  8
0
 10
18.1075
 20
-2.53297
 11
17.7773
 21
-2.71448
  0
LINE
  8
0
 10
17.7773
 20
-2.71448
 11
17.427
 21
-2.85316
  0
LINE
  8
0
 10
17.427
 20
-2.85316
 11
17.0621
 21
-2.94685
  0
LINE
  8
0
 10
17.0621
 20
-2.94685
 11
16.6884
 21
-2.99408
  0
LINE
  8
0
 10
16.6884
 20
-2.99408
 11
16.3116
 21
-2.99408
  0
LINE
  8
0
 10
16.3116
 20
-2.99408
 11
15.9379
 21
-2.94685
  0
LINE
  8
0
 10
15.9379
 20
-2.94685
 11
15.5729
 21
-2.85316
  0
LINE
  8
0
 10
15.5729
 20
-2.85316
 11
15.2227
 21
-2.71448
  0
LINE
  8
0
 10
15.2227
 20
-2.71448
 11
14.8925
 21
-2.53297
  0
LINE
  8
0
 10
14.8925
 20
-2.53297
 11
14.5877
 21
-2.31154
  0
LINE
  8
0
 10
14.5877
 20
-2.31154
 11
14.3131
 21
-2.05363
  0
LINE
  8
0
 10
14.3131
 20
-2.05363
 11
14.0729
 21
-1.76335
  0
LINE
  8
0
 10
14.0729
 20
-1.76335
 11
13.8711
 21
-1.44525
  0
LINE
  8
0
 10
13.8711
 20
-1.44525
 11
13.7107
 21
-1.10437
  0
LINE
  8
0
 10
13.7107
 20
-1.10437
 11
13.5942
 21
-0.746063
  0
LINE
  8
0
 10
13.5942
 20
-0.746063
 11
13.5237
 21
-0.375992
  0
LINE
  8
0
 10
13.5237
 20
-0.375992
 11
13.5
 21
0
  0
LINE
  8
0
 10
13.5
 20
0
 11
13.5237
 21
0.375992
  0
LINE
  8
0
 10
13.5237
 20
0.375992
 11
13.5942
 21
0.746063
  0
LINE
  8
0
 10
13.5942
 20
0.746063
 11
13.7107
 21
1.10437
  0
LINE
  8
0
 10
13.7107
 20
1.10437
 11
13.8711
 21
1.44525
  0
LINE
  8
0
 10
13.8711
 20
1.44525
 11
14.0729
 21
1.76335
  0
LINE
  8
0
 10
14.0729
 20
1.76335
 11
14.3131
 21
2.05363
  0
LINE
  8
0
 10
14.3131
 20
2.05363
 11
14.5877
 21
2.31154
  0
LINE
  8
0
 10
14.5877
 20
2.31154
 11
14.8925
 21
2.53297
  0
LINE
  8
0
 10
14.8925
 20
2.53297
 11
15.2227
 21
2.71448
  0
LINE
  8
0
 10
15.2227
 20
2.71448
 11
15.5729
 21
2.85316
  0
LINE
  8
0
 10
15.5729
 20
2.85316
 11
15.9379
 21
2.94685
  0
LINE
  8
0
 10
15.9379
 20
2.94685
 11
16.3116
 21
2.99408
  0
LINE
  8
0
 10
16.3116
 20
2.99408
 11
16.6884
 21
2.99408
  0
LINE
  8
0
 10
16.6884
 20
2.99408
 11
17.0621
 21
2.94685
  0
LINE
  8
0
 10
17.0621
 20
2.94685
 11
17.427
 21
2.85316
  0
LINE
  8
0
 10
17.427
 20
2.85316
 11
17.7773
 21
2.71448
  0
LINE
  8
0
 10
17.7773
 20
2.71448
 11
18.1075
 21
2.53297
  0
LINE
  8
0
 10
18.1075
 20
2.53297
 11
18.4123
 21
2.31154
  0
LINE
  8
0
 10
18.4123
 20
2.31154
 11
18.6869
 21
2.05363
  0
LINE
  8
0
 10
18.6869
 20
2.05363
 11
18.927
 21
1.76335
  0
LINE
  8
0
 10
18.927
 20
1.76335
 11
19.1289
 21
1.44525
  0
LINE
  8
0
 10
19.1289
 20
1.44525
 11
19.2893
 21
1.10437
  0
LINE
  8
0
 10
19.2893
 20
1.10437
 11
19.4057
 21
0.746063
  0
LINE
  8
0
 10
19.4057
 20
0.746063
 11
19.4763
 21
0.375992
  0
LINE
  8
0
 10
19.4763
 20
0.375992
 11
19.5
 21
0
  0
LINE
  8
0
 10
19.5
 20
0
 11
19.4763
 21
-0.375992
  0
ENDSEC
  0
SECTION
  2
OBJECTS
  0
DICTIONARY
  0
ENDSEC
  0
EOF
