<?xml version="1.0" standalone="no"?>
<!DOCTYPE svg PUBLIC "-//W3C//DTD SVG 1.1//EN" "http://www.w3.org/Graphics/SVG/1.1/DTD/svg11.dtd">
<svg width="210mm" height="74mm" viewBox="-105 -37 210 74" xmlns="http://www.w3.org/2000/svg" version="1.1">
<title>OpenSCAD Model</title>
<path d="
M 100.437,36.9114 L 101.045,36.7553 L 101.629,36.5241 L 102.179,36.2216 L 102.687,35.8526 L 103.145,35.4227
 L 103.545,34.9389 L 103.882,34.4088 L 104.149,33.8406 L 104.343,33.2434 L 104.461,32.6267 L 104.5,32
 L 104.5,-32 L 104.461,-32.6267 L 104.343,-33.2434 L 104.149,-33.8406 L 103.882,-34.4088 L 103.545,-34.9389
 L 103.145,-35.4227 L 102.687,-35.8526 L 102.179,-36.2216 L 101.629,-36.5241 L 101.045,-36.7553 L 100.437,-36.9114
 L 99.8139,-36.9901 L -99.8139,-36.9901 L -100.437,-36.9114 L -101.045,-36.7553 L -101.629,-36.5241 L -102.179,-36.2216
 L -102.687,-35.8526 L -103.145,-35.4227 L -103.545,-34.9389 L -103.882,-34.4088 L -104.149,-33.8406 L -104.343,-33.2434
 L -104.461,-32.6267 L -104.5,-32 L -104.5,32 L -104.461,32.6267 L -104.343,33.2434 L -104.149,33.8406
 L -103.882,34.4088 L -103.545,34.9389 L -103.145,35.4227 L -102.687,35.8526 L -102.179,36.2216 L -101.629,36.5241
 L -101.045,36.7553 L -100.437,36.9114 L -99.8139,36.9901 L 99.8139,36.9901 z
M -97.6884,-27.0059 L -98.0621,-27.0531 L -98.427,-27.1468 L -98.7773,-27.2855 L -99.1075,-27.467 L -99.4123,-27.6884
 L -99.6869,-27.9464 L -99.927,-28.2366 L -100.129,-28.5547 L -100.289,-28.8956 L -100.406,-29.2539 L -100.476,-29.624
 L -100.5,-30 L -100.476,-30.376 L -100.406,-30.7461 L -100.289,-31.1044 L -100.129,-31.4453 L -99.927,-31.7634
 L -99.6869,-32.0536 L -99.4123,-32.3115 L -99.1075,-32.533 L -98.7773,-32.7145 L -98.427,-32.8532 L -98.0621,-32.9469
 L -97.6884,-32.9941 L -97.3116,-32.9941 L -96.9379,-32.9469 L -96.573,-32.8532 L -96.2227,-32.7145 L -95.8925,-32.533
 L -95.5877,-32.3115 L -95.3131,-32.0536 L -95.073,-31.7634 L -94.8711,-31.4453 L -94.7107,-31.1044 L -94.5943,-30.7461
 L -94.5237,-30.376 L -94.5,-30 L -94.5237,-29.624 L -94.5943,-29.2539 L -94.7107,-28.8956 L -94.8711,-28.5547
 L -95.073,-28.2366 L -95.3131,-27.9464 L -95.5877,-27.6884 L -95.8925,-27.467 L -96.2227,-27.2855 L -96.573,-27.1468
 L -96.9379,-27.0531 L -97.3116,-27.0059 z
M 97.3116,-27.0059 L 96.9379,-27.0531 L 96.573,-27.1468 L 96.2227,-27.2855 L 95.8925,-27.467 L 95.5877,-27.6884
 L 95.3131,-27.9464 L 95.073,-28.2366 L 94.8711,-28.5547 L 94.7107,-28.8956 L 94.5943,-29.2539 L 94.5237,-29.624
 L 94.5,-30 L 94.5237,-30.376 L 94.5943,-30.7461 L 94.7107,-31.1044 L 94.8711,-31.4453 L 95.073,-31.7634
 L 95.3131,-32.0536 L 95.5877,-32.3115 L 95.8925,-32.533 L 96.2227,-32.7145 L 96.573,-32.8532 L 96.9379,-32.9469
 L 97.3116,-32.9941 L 97.6884,-32.9941 L 98.0621,-32.9469 L 98.427,-32.8532 L 98.7773,-32.7145 L 99.1075,-32.533
 L 99.4123,-32.3115 L 99.6869,-32.0536 L 99.927,-31.7634 L 100.129,-31.4453 L 100.289,-31.1044 L 100.406,-30.7461
 L 100.476,-30.376 L 100.5,-30 L 100.476,-29.624 L 100.406,-29.2539 L 100.289,-28.8956 L 100.129,-28.5547
 L 99.927,-28.2366 L 99.6869,-27.9464 L 99.4123,-27.6884 L 99.1075,-27.467 L 98.7773,-27.2855 L 98.427,-27.1468
 L 98.0621,-27.0531 L 97.6884,-27.0059 z
M 63.1163,29.9408 L 59.3786,29.4686 L 55.7295,28.5317 L 52.2266,27.1448 L 48.9252,25.3298 L 45.8773,23.1154
 L 43.1309,20.5364 L 40.7295,17.6335 L 38.7108,14.4526 L 37.1067,11.0437 L 35.9425,7.46069 L 35.2366,3.75999
 L 35,-0 L 35.2366,-3.75999 L 35.9425,-7.46069 L 37.1067,-11.0437 L 38.7108,-14.4526 L 40.7295,-17.6335
 L 43.1309,-20.5364 L 45.8773,-23.1154 L 48.9252,-25.3298 L 52.2266,-27.1448 L 55.7295,-28.5317 L 59.3786,-29.4686
 L 63.1163,-29.9408 L 66.8837,-29.9408 L 70.6214,-29.4686 L 74.2705,-28.5317 L 77.7734,-27.1448 L 81.0748,-25.3298
 L 84.1227,-23.1154 L 86.869,-20.5364 L 89.2705,-17.6335 L 91.2892,-14.4526 L 92.8933,-11.0437 L 94.0575,-7.46069
 L 94.7634,-3.75999 L 95,-0 L 94.7634,3.75999 L 94.0575,7.46069 L 92.8933,11.0437 L 91.2892,14.4526
 L 89.2705,17.6335 L 86.869,20.5364 L 84.1227,23.1154 L 81.0748,25.3298 L 77.7734,27.1448 L 74.2705,28.5317
 L 70.6214,29.4686 L 66.8837,29.9408 z
M -1.88371,29.9408 L -5.62143,29.4686 L -9.27051,28.5317 L -12.7734,27.1448 L -16.0748,25.3298 L -19.1227,23.1154
 L -21.869,20.5364 L -24.2705,17.6335 L -26.2892,14.4526 L -27.8933,11.0437 L -29.0575,7.46069 L -29.7634,3.75999
 L -30,-0 L -29.7634,-3.75999 L -29.0575,-7.46069 L -27.8933,-11.0437 L -26.2892,-14.4526 L -24.2705,-17.6335
 L -21.869,-20.5364 L -19.1227,-23.1154 L -16.0748,-25.3298 L -12.7734,-27.1448 L -9.27051,-28.5317 L -5.62143,-29.4686
 L -1.88371,-29.9408 L 1.88371,-29.9408 L 5.62143,-29.4686 L 9.27051,-28.5317 L 12.7734,-27.1448 L 16.0748,-25.3298
 L 19.1227,-23.1154 L 21.869,-20.5364 L 24.2705,-17.6335 L 26.2892,-14.4526 L 27.8933,-11.0437 L 29.0575,-7.46069
 L 29.7634,-3.75999 L 30,-0 L 29.7634,3.75999 L 29.0575,7.46069 L 27.8933,11.0437 L 26.2892,14.4526
 L 24.2705,17.6335 L 21.869,20.5364 L 19.1227,23.1154 L 16.0748,25.3298 L 12.7734,27.1448 L 9.27051,28.5317
 L 5.62143,29.4686 L 1.88371,29.9408 z
M -66.8837,29.9408 L -70.6214,29.4686 L -74.2705,28.5317 L -77.7734,27.1448 L -81.0748,25.3298 L -84.1227,23.1154
 L -86.869,20.5364 L -89.2705,17.6335 L -91.2892,14.4526 L -92.8933,11.0437 L -94.0575,7.46069 L -94.7634,3.75999
 L -95,-0 L -94.7634,-3.75999 L -94.0575,-7.46069 L -92.8933,-11.0437 L -91.2892,-14.4526 L -89.2705,-17.6335
 L -86.869,-20.5364 L -84.1227,-23.1154 L -81.0748,-25.3298 L -77.7734,-27.1448 L -74.2705,-28.5317 L -70.6214,-29.4686
 L -66.8837,-29.9408 L -63.1163,-29.9408 L -59.3786,-29.4686 L -55.7295,-28.5317 L -52.2266,-27.1448 L -48.9252,-25.3298
 L -45.8773,-23.1154 L -43.1309,-20.5364 L -40.7295,-17.6335 L -38.7108,-14.4526 L -37.1067,-11.0437 L -35.9425,-7.46069
 L -35.2366,-3.75999 L -35,-0 L -35.2366,3.75999 L -35.9425,7.46069 L -37.1067,11.0437 L -38.7108,14.4526
 L -40.7295,17.6335 L -43.1309,20.5364 L -45.8773,23.1154 L -48.9252,25.3298 L -52.2266,27.1448 L -55.7295,28.5317
 L -59.3786,29.4686 L -63.1163,29.9408 z
M -97.6884,32.9941 L -98.0621,32.9469 L -98.427,32.8532 L -98.7773,32.7145 L -99.1075,32.533 L -99.4123,32.3115
 L -99.6869,32.0536 L -99.927,31.7634 L -100.129,31.4453 L -100.289,31.1044 L -100.406,30.7461 L -100.476,30.376
 L -100.5,30 L -100.476,29.624 L -100.406,29.2539 L -100.289,28.8956 L -100.129,28.5547 L -99.927,28.2366
 L -99.6869,27.9464 L -99.4123,27.6884 L -99.1075,27.467 L -98.7773,27.2855 L -98.427,27.1468 L -98.0621,27.0531
 L -97.6884,27.0059 L -97.3116,27.0059 L -96.9379,27.0531 L -96.573,27.1468 L -96.2227,27.2855 L -95.8925,27.467
 L -95.5877,27.6884 L -95.3131,27.9464 L -95.073,28.2366 L -94.8711,28.5547 L -94.7107,28.8956 L -94.5943,29.2539
 L -94.5237,29.624 L -94.5,30 L -94.5237,30.376 L -94.5943,30.7461 L -94.7107,31.1044 L -94.8711,31.4453
 L -95.073,31.7634 L -95.3131,32.0536 L -95.5877,32.3115 L -95.8925,32.533 L -96.2227,32.7145 L -96.573,32.8532
 L -96.9379,32.9469 L -97.3116,32.9941 z
M 97.3116,32.9941 L 96.9379,32.9469 L 96.573,32.8532 L 96.2227,32.7145 L 95.8925,32.533 L 95.5877,32.3115
 L 95.3131,32.0536 L 95.073,31.7634 L 94.8711,31.4453 L 94.7107,31.1044 L 94.5943,30.7461 L 94.5237,30.376
 L 94.5,30 L 94.5237,29.624 L 94.5943,29.2539 L 94.7107,28.8956 L 94.8711,28.5547 L 95.073,28.2366
 L 95.3131,27.9464 L 95.5877,27.6884 L 95.8925,27.467 L 96.2227,27.2855 L 96.573,27.1468 L 96.9379,27.0531
 L 97.3116,27.0059 L 97.6884,27.0059 L 98.0621,27.0531 L 98.427,27.1468 L 98.7773,27.2855 L 99.1075,27.467
 L 99.4123,27.6884 L 99.6869,27.9464 L 99.927,28.2366 L 100.129,28.5547 L 100.289,28.8956 L 100.406,29.2539
 L 100.476,29.624 L 100.5,30 L 100.476,30.376 L 100.406,30.7461 L 100.289,31.1044 L 100.129,31.4453
 L 99.927,31.7634 L 99.6869,32.0536 L 99.4123,32.3115 L 99.1075,32.533 L 98.7773,32.7145 L 98.427,32.8532
 L 98.0621,32.9469 L 97.6884,32.9941 z
" stroke="black" fill="lightgray" stroke-width="0.5"/>
</svg>
