<?xml version="1.0" standalone="no"?>
<!DOCTYPE svg PUBLIC "-//W3C//DTD SVG 1.1//EN" "http://www.w3.org/Graphics/SVG/1.1/DTD/svg11.dtd">
<svg width="164mm" height="90mm" viewBox="-82 -45 164 90" xmlns="http://www.w3.org/2000/svg" version="1.1">
<title>OpenSCAD Model</title>
<path d="
M 77.9369,44.4114 L 78.5451,44.2553 L 79.1289,44.0241 L 79.6791,43.7216 L 80.1871,43.3526 L 80.6448,42.9227
 L 81.0451,42.4389 L 81.3815,41.9088 L 81.6489,41.3406 L 81.8429,40.7434 L 81.9606,40.1267 L 82,39.5
 L 82,-39.5 L 81.9606,-40.1267 L 81.8429,-40.7434 L 81.6489,-41.3406 L 81.3815,-41.9088 L 81.0451,-42.4389
 L 80.6448,-42.9227 L 80.1871,-43.3526 L 79.6791,-43.7216 L 79.1289,-44.0241 L 78.5451,-44.2553 L 77.9369,-44.4114
 L 77.3139,-44.4901 L -77.3139,-44.4901 L -77.9369,-44.4114 L -78.5451,-44.2553 L -79.1289,-44.0241 L -79.6791,-43.7216
 L -80.1871,-43.3526 L -80.6448,-42.9227 L -81.0451,-42.4389 L -81.3815,-41.9088 L -81.6489,-41.3406 L -81.8429,-40.7434
 L -81.9606,-40.1267 L -82,-39.5 L -82,39.5 L -81.9606,40.1267 L -81.8429,40.7434 L -81.6489,41.3406
 L -81.3815,41.9088 L -81.0451,42.4389 L -80.6448,42.9227 L -80.1871,43.3526 L -79.6791,43.7216 L -79.1289,44.0241
 L -78.5451,44.2553 L -77.9369,44.4114 L -77.3139,44.4901 L 77.3139,44.4901 z
M 74.8116,-34.5059 L 74.4379,-34.5531 L 74.073,-34.6468 L 73.7227,-34.7855 L 73.3925,-34.967 L 73.0877,-35.1885
 L 72.8131,-35.4464 L 72.573,-35.7366 L 72.3711,-36.0547 L 72.2107,-36.3956 L 72.0943,-36.7539 L 72.0237,-37.124
 L 72,-37.5 L 72.0237,-37.876 L 72.0943,-38.2461 L 72.2107,-38.6044 L 72.3711,-38.9453 L 72.573,-39.2634
 L 72.8131,-39.5536 L 73.0877,-39.8115 L 73.3925,-40.033 L 73.7227,-40.2145 L 74.073,-40.3532 L 74.4379,-40.4469
 L 74.8116,-40.4941 L 75.1884,-40.4941 L 75.5621,-40.4469 L 75.927,-40.3532 L 76.2773,-40.2145 L 76.6075,-40.033
 L 76.9123,-39.8115 L 77.1869,-39.5536 L 77.427,-39.2634 L 77.6289,-38.9453 L 77.7893,-38.6044 L 77.9057,-38.2461
 L 77.9763,-37.876 L 78,-37.5 L 77.9763,-37.124 L 77.9057,-36.7539 L 77.7893,-36.3956 L 77.6289,-36.0547
 L 77.427,-35.7366 L 77.1869,-35.4464 L 76.9123,-35.1885 L 76.6075,-34.967 L 76.2773,-34.7855 L 75.927,-34.6468
 L 75.5621,-34.5531 L 75.1884,-34.5059 z
M -75.1884,-34.5059 L -75.5621,-34.5531 L -75.927,-34.6468 L -76.2773,-34.7855 L -76.6075,-34.967 L -76.9123,-35.1885
 L -77.1869,-35.4464 L -77.427,-35.7366 L -77.6289,-36.0547 L -77.7893,-36.3956 L -77.9057,-36.7539 L -77.9763,-37.124
 L -78,-37.5 L -77.9763,-37.876 L -77.9057,-38.2461 L -77.7893,-38.6044 L -77.6289,-38.9453 L -77.427,-39.2634
 L -77.1869,-39.5536 L -76.9123,-39.8115 L -76.6075,-40.033 L -76.2773,-40.2145 L -75.927,-40.3532 L -75.5621,-40.4469
 L -75.1884,-40.4941 L -74.8116,-40.4941 L -74.4379,-40.4469 L -74.073,-40.3532 L -73.7227,-40.2145 L -73.3925,-40.033
 L -73.0877,-39.8115 L -72.8131,-39.5536 L -72.573,-39.2634 L -72.3711,-38.9453 L -72.2107,-38.6044 L -72.0943,-38.2461
 L -72.0237,-37.876 L -72,-37.5 L -72.0237,-37.124 L -72.0943,-36.7539 L -72.2107,-36.3956 L -72.3711,-36.0547
 L -72.573,-35.7366 L -72.8131,-35.4464 L -73.0877,-35.1885 L -73.3925,-34.967 L -73.7227,-34.7855 L -74.073,-34.6468
 L -74.4379,-34.5531 L -74.8116,-34.5059 z
M 38.114,37.925 L 33.3795,37.3269 L 28.7574,36.1401 L 24.3204,34.3834 L 20.1386,32.0845 L 16.2779,29.2795
 L 12.7992,26.0128 L 9.75734,22.3358 L 7.20033,18.3066 L 5.16849,13.9887 L 3.69383,9.45021 L 2.79964,4.76265
 L 2.5,-0 L 2.79964,-4.76265 L 3.69383,-9.45021 L 5.16849,-13.9887 L 7.20033,-18.3066 L 9.75734,-22.3358
 L 12.7992,-26.0128 L 16.2779,-29.2795 L 20.1386,-32.0845 L 24.3204,-34.3834 L 28.7574,-36.1401 L 33.3795,-37.3269
 L 38.114,-37.925 L 42.886,-37.925 L 47.6205,-37.3269 L 52.2426,-36.1401 L 56.6796,-34.3834 L 60.8614,-32.0845
 L 64.7221,-29.2795 L 68.2008,-26.0128 L 71.2426,-22.3358 L 73.7997,-18.3066 L 75.8315,-13.9887 L 77.3062,-9.45021
 L 78.2003,-4.76265 L 78.5,-0 L 78.2003,4.76265 L 77.3062,9.45021 L 75.8315,13.9887 L 73.7997,18.3066
 L 71.2426,22.3358 L 68.2008,26.0128 L 64.7221,29.2795 L 60.8614,32.0845 L 56.6796,34.3834 L 52.2426,36.1401
 L 47.6205,37.3269 L 42.886,37.925 z
M -42.886,37.925 L -47.6205,37.3269 L -52.2426,36.1401 L -56.6796,34.3834 L -60.8614,32.0845 L -64.7221,29.2795
 L -68.2008,26.0128 L -71.2426,22.3358 L -73.7997,18.3066 L -75.8315,13.9887 L -77.3062,9.45021 L -78.2003,4.76265
 L -78.5,-0 L -78.2003,-4.76265 L -77.3062,-9.45021 L -75.8315,-13.9887 L -73.7997,-18.3066 L -71.2426,-22.3358
 L -68.2008,-26.0128 L -64.7221,-29.2795 L -60.8614,-32.0845 L -56.6796,-34.3834 L -52.2426,-36.1401 L -47.6205,-37.3269
 L -42.886,-37.925 L -38.114,-37.925 L -33.3795,-37.3269 L -28.7574,-36.1401 L -24.3204,-34.3834 L -20.1386,-32.0845
 L -16.2779,-29.2795 L -12.7992,-26.0128 L -9.75734,-22.3358 L -7.20033,-18.3066 L -5.16849,-13.9887 L -3.69383,-9.45021
 L -2.79964,-4.76265 L -2.5,-0 L -2.79964,4.76265 L -3.69383,9.45021 L -5.16849,13.9887 L -7.20033,18.3066
 L -9.75734,22.3358 L -12.7992,26.0128 L -16.2779,29.2795 L -20.1386,32.0845 L -24.3204,34.3834 L -28.7574,36.1401
 L -33.3795,37.3269 L -38.114,37.925 z
M 74.8116,40.4941 L 74.4379,40.4469 L 74.073,40.3532 L 73.7227,40.2145 L 73.3925,40.033 L 73.0877,39.8115
 L 72.8131,39.5536 L 72.573,39.2634 L 72.3711,38.9453 L 72.2107,38.6044 L 72.0943,38.2461 L 72.0237,37.876
 L 72,37.5 L 72.0237,37.124 L 72.0943,36.7539 L 72.2107,36.3956 L 72.3711,36.0547 L 72.573,35.7366
 L 72.8131,35.4464 L 73.0877,35.1885 L 73.3925,34.967 L 73.7227,34.7855 L 74.073,34.6468 L 74.4379,34.5531
 L 74.8116,34.5059 L 75.1884,34.5059 L 75.5621,34.5531 L 75.927,34.6468 L 76.2773,34.7855 L 76.6075,34.967
 L 76.9123,35.1885 L 77.1869,35.4464 L 77.427,35.7366 L 77.6289,36.0547 L 77.7893,36.3956 L 77.9057,36.7539
 L 77.9763,37.124 L 78,37.5 L 77.9763,37.876 L 77.9057,38.2461 L 77.7893,38.6044 L 77.6289,38.9453
 L 77.427,39.2634 L 77.1869,39.5536 L 76.9123,39.8115 L 76.6075,40.033 L 76.2773,40.2145 L 75.927,40.3532
 L 75.5621,40.4469 L 75.1884,40.4941 z
M -75.1884,40.4941 L -75.5621,40.4469 L -75.927,40.3532 L -76.2773,40.2145 L -76.6075,40.033 L -76.9123,39.8115
 L -77.1869,39.5536 L -77.427,39.2634 L -77.6289,38.9453 L -77.7893,38.6044 L -77.9057,38.2461 L -77.9763,37.876
 L -78,37.5 L -77.9763,37.124 L -77.9057,36.7539 L -77.7893,36.3956 L -77.6289,36.0547 L -77.427,35.7366
 L -77.1869,35.4464 L -76.9123,35.1885 L -76.6075,34.967 L -76.2773,34.7855 L -75.927,34.6468 L -75.5621,34.5531
 L -75.1884,34.5059 L -74.8116,34.5059 L -74.4379,34.5531 L -74.073,34.6468 L -73.7227,34.7855 L -73.3925,34.967
 L -73.0877,35.1885 L -72.8131,35.4464 L -72.573,35.7366 L -72.3711,36.0547 L -72.2107,36.3956 L -72.0943,36.7539
 L -72.0237,37.124 L -72,37.5 L -72.0237,37.876 L -72.0943,38.2461 L -72.2107,38.6044 L -72.3711,38.9453
 L -72.573,39.2634 L -72.8131,39.5536 L -73.0877,39.8115 L -73.3925,40.033 L -73.7227,40.2145 L -74.073,40.3532
 L -74.4379,40.4469 L -74.8116,40.4941 z
" stroke="black" fill="lightgray" stroke-width="0.5"/>
</svg>
