  0
SECTION
  2
BLOCKS
  0
ENDSEC
  0
SECTION
  2
ENTITIES
  0
LINE
  8
0
 10
47.9369
 20
-29.4114
 11
48.5451
 21
-29.2553
  0
LINE
  8
0
 10
48.5451
 20
-29.2553
 11
49.1289
 21
-29.0241
  0
LINE
  8
0
 10
49.1289
 20
-29.0241
 11
49.6791
 21
-28.7216
  0
LINE
  8
0
 10
49.6791
 20
-28.7216
 11
50.1871
 21
-28.3526
  0
LINE
  8
0
 10
50.1871
 20
-28.3526
 11
50.6448
 21
-27.9227
  0
LINE
  8
0
 10
50.6448
 20
-27.9227
 11
51.0451
 21
-27.4389
  0
LINE
  8
0
 10
51.0451
 20
-27.4389
 11
51.3815
 21
-26.9088
  0
LINE
  8
0
 10
51.3815
 20
-26.9088
 11
51.6489
 21
-26.3406
  0
LINE
  8
0
 10
51.6489
 20
-26.3406
 11
51.8429
 21
-25.7434
  0
LINE
  8
0
 10
51.8429
 20
-25.7434
 11
51.9606
 21
-25.1267
  0
LINE
  8
0
 10
51.9606
 20
-25.1267
 11
52
 21
-24.5
  0
LINE
  8
0
 10
52
 20
-24.5
 11
52
 21
24.5
  0
LINE
  8
0
 10
52
 20
24.5
 11
51.9606
 21
25.1267
  0
LINE
  8
0
 10
51.9606
 20
25.1267
 11
51.8429
 21
25.7434
  0
LINE
  8
0
 10
51.8429
 20
25.7434
 11
51.6489
 21
26.3406
  0
LINE
  8
0
 10
51.6489
 20
26.3406
 11
51.3815
 21
26.9088
  0
LINE
  8
0
 10
51.3815
 20
26.9088
 11
51.0451
 21
27.4389
  0
LINE
  8
0
 10
51.0451
 20
27.4389
 11
50.6448
 21
27.9227
  0
LINE
  8
0
 10
50.6448
 20
27.9227
 11
50.1871
 21
28.3526
  0
LINE
  8
0
 10
50.1871
 20
28.3526
 11
49.6791
 21
28.7216
  0
LINE
  8
0
 10
49.6791
 20
28.7216
 11
49.1289
 21
29.0241
  0
LINE
  8
0
 10
49.1289
 20
29.0241
 11
48.5451
 21
29.2553
  0
LINE
  8
0
 10
48.5451
 20
29.2553
 11
47.9369
 21
29.4114
  0
LINE
  8
0
 10
47.9369
 20
29.4114
 11
47.3139
 21
29.4901
  0
LINE
  8
0
 10
47.3139
 20
29.4901
 11
-47.3139
 21
29.4901
  0
LINE
  8
0
 10
-47.3139
 20
29.4901
 11
-47.9369
 21
29.4114
  0
LINE
  8
0
 10
-47.9369
 20
29.4114
 11
-48.5451
 21
29.2553
  0
LINE
  8
0
 10
-48.5451
 20
29.2553
 11
-49.1289
 21
29.0241
  0
LINE
  8
0
 10
-49.1289
 20
29.0241
 11
-49.6791
 21
28.7216
  0
LINE
  8
0
 10
-49.6791
 20
28.7216
 11
-50.1871
 21
28.3526
  0
LINE
  8
0
 10
-50.1871
 20
28.3526
 11
-50.6448
 21
27.9227
  0
LINE
  8
0
 10
-50.6448
 20
27.9227
 11
-51.0451
 21
27.4389
  0
LINE
  8
0
 10
-51.0451
 20
27.4389
 11
-51.3815
 21
26.9088
  0
LINE
  8
0
 10
-51.3815
 20
26.9088
 11
-51.6489
 21
26.3406
  0
LINE
  8
0
 10
-51.6489
 20
26.3406
 11
-51.8429
 21
25.7434
  0
LINE
  8
0
 10
-51.8429
 20
25.7434
 11
-51.9606
 21
25.1267
  0
LINE
  8
0
 10
-51.9606
 20
25.1267
 11
-52
 21
24.5
  0
LINE
  8
0
 10
-52
 20
24.5
 11
-52
 21
-24.5
  0
LINE
  8
0
 10
-52
 20
-24.5
 11
-51.9606
 21
-25.1267
  0
LINE
  8
0
 10
-51.9606
 20
-25.1267
 11
-51.8429
 21
-25.7434
  0
LINE
  8
0
 10
-51.8429
 20
-25.7434
 11
-51.6489
 21
-26.3406
  0
LINE
  8
0
 10
-51.6489
 20
-26.3406
 11
-51.3815
 21
-26.9088
  0
LINE
  8
0
 10
-51.3815
 20
-26.9088
 11
-51.0451
 21
-27.4389
  0
LINE
  8
0
 10
-51.0451
 20
-27.4389
 11
-50.6448
 21
-27.9227
  0
LINE
  8
0
 10
-50.6448
 20
-27.9227
 11
-50.1871
 21
-28.3526
  0
LINE
  8
0
 10
-50.1871
 20
-28.3526
 11
-49.6791
 21
-28.7216
  0
LINE
  8
0
 10
-49.6791
 20
-28.7216
 11
-49.1289
 21
-29.0241
  0
LINE
  8
0
 10
-49.1289
 20
-29.0241
 11
-48.5451
 21
-29.2553
  0
LINE
  8
0
 10
-48.5451
 20
-29.2553
 11
-47.9369
 21
-29.4114
  0
LINE
  8
0
 10
-47.9369
 20
-29.4114
 11
-47.3139
 21
-29.4901
  0
LINE
  8
0
 10
-47.3139
 20
-29.4901
 11
47.3139
 21
-29.4901
  0
LINE
  8
0
 10
47.3139
 20
-29.4901
 11
47.9369
 21
-29.4114
  0
LINE
  8
0
 10
-45.1884
 20
19.5059
 11
-45.5621
 21
19.5531
  0
LINE
  8
0
 10
-45.5621
 20
19.5531
 11
-45.927
 21
19.6468
  0
LINE
  8
0
 10
-45.927
 20
19.6468
 11
-46.2773
 21
19.7855
  0
LINE
  8
0
 10
-46.2773
 20
19.7855
 11
-46.6075
 21
19.967
  0
LINE
  8
0
 10
-46.6075
 20
19.967
 11
-46.9123
 21
20.1884
  0
LINE
  8
0
 10
-46.9123
 20
20.1884
 11
-47.1869
 21
20.4464
  0
LINE
  8
0
 10
-47.1869
 20
20.4464
 11
-47.427
 21
20.7366
  0
LINE
  8
0
 10
-47.427
 20
20.7366
 11
-47.6289
 21
21.0547
  0
LINE
  8
0
 10
-47.6289
 20
21.0547
 11
-47.7893
 21
21.3956
  0
LINE
  8
0
 10
-47.7893
 20
21.3956
 11
-47.9057
 21
21.7539
  0
LINE
  8
0
 10
-47.9057
 20
21.7539
 11
-47.9763
 21
22.124
  0
LINE
  8
0
 10
-47.9763
 20
22.124
 11
-48
 21
22.5
  0
LINE
  8
0
 10
-48
 20
22.5
 11
-47.9763
 21
22.876
  0
LINE
  8
0
 10
-47.9763
 20
22.876
 11
-47.9057
 21
23.2461
  0
LINE
  8
0
 10
-47.9057
 20
23.2461
 11
-47.7893
 21
23.6044
  0
LINE
  8
0
 10
-47.7893
 20
23.6044
 11
-47.6289
 21
23.9453
  0
LINE
  8
0
 10
-47.6289
 20
23.9453
 11
-47.427
 21
24.2634
  0
LINE
  8
0
 10
-47.427
 20
24.2634
 11
-47.1869
 21
24.5536
  0
LINE
  8
0
 10
-47.1869
 20
24.5536
 11
-46.9123
 21
24.8115
  0
LINE
  8
0
 10
-46.9123
 20
24.8115
 11
-46.6075
 21
25.033
  0
LINE
  8
0
 10
-46.6075
 20
25.033
 11
-46.2773
 21
25.2145
  0
LINE
  8
0
 10
-46.2773
 20
25.2145
 11
-45.927
 21
25.3532
  0
LINE
  8
0
 10
-45.927
 20
25.3532
 11
-45.5621
 21
25.4469
  0
LINE
  8
0
 10
-45.5621
 20
25.4469
 11
-45.1884
 21
25.4941
  0
LINE
  8
0
 10
-45.1884
 20
25.4941
 11
-44.8116
 21
25.4941
  0
LINE
  8
0
 10
-44.8116
 20
25.4941
 11
-44.4379
 21
25.4469
  0
LINE
  8
0
 10
-44.4379
 20
25.4469
 11
-44.0729
 21
25.3532
  0
LINE
  8
0
 10
-44.0729
 20
25.3532
 11
-43.7227
 21
25.2145
  0
LINE
  8
0
 10
-43.7227
 20
25.2145
 11
-43.3925
 21
25.033
  0
LINE
  8
0
 10
-43.3925
 20
25.033
 11
-43.0877
 21
24.8115
  0
LINE
  8
0
 10
-43.0877
 20
24.8115
 11
-42.8131
 21
24.5536
  0
LINE
  8
0
 10
-42.8131
 20
24.5536
 11
-42.5729
 21
24.2634
  0
LINE
  8
0
 10
-42.5729
 20
24.2634
 11
-42.3711
 21
23.9453
  0
LINE
  8
0
 10
-42.3711
 20
23.9453
 11
-42.2107
 21
23.6044
  0
LINE
  8
0
 10
-42.2107
 20
23.6044
 11
-42.0942
 21
23.2461
  0
LINE
  8
0
 10
-42.0942
 20
23.2461
 11
-42.0237
 21
22.876
  0
LINE
  8
0
 10
-42.0237
 20
22.876
 11
-42
 21
22.5
  0
LINE
  8
0
 10
-42
 20
22.5
 11
-42.0237
 21
22.124
  0
LINE
  8
0
 10
-42.0237
 20
22.124
 11
-42.0942
 21
21.7539
  0
LINE
  8
0
 10
-42.0942
 20
21.7539
 11
-42.2107
 21
21.3956
  0
LINE
  8
0
 10
-42.2107
 20
21.3956
 11
-42.3711
 21
21.0547
  0
LINE
  8
0
 10
-42.3711
 20
21.0547
 11
-42.5729
 21
20.7366
  0
LINE
  8
0
 10
-42.5729
 20
20.7366
 11
-42.8131
 21
20.4464
  0
LINE
  8
0
 10
-42.8131
 20
20.4464
 11
-43.0877
 21
20.1884
  0
LINE
  8
0
 10
-43.0877
 20
20.1884
 11
-43.3925
 21
19.967
  0
LINE
  8
0
 10
-43.3925
 20
19.967
 11
-43.7227
 21
19.7855
  0
LINE
  8
0
 10
-43.7227
 20
19.7855
 11
-44.0729
 21
19.6468
  0
LINE
  8
0
 10
-44.0729
 20
19.6468
 11
-44.4379
 21
19.5531
  0
LINE
  8
0
 10
-44.4379
 20
19.5531
 11
-44.8116
 21
19.5059
  0
LINE
  8
0
 10
-44.8116
 20
19.5059
 11
-45.1884
 21
19.5059
  0
LINE
  8
0
 10
44.8116
 20
19.5059
 11
44.4379
 21
19.5531
  0
LINE
  8
0
 10
44.4379
 20
19.5531
 11
44.0729
 21
19.6468
  0
LINE
  8
0
 10
44.0729
 20
19.6468
 11
43.7227
 21
19.7855
  0
LINE
  8
0
 10
43.7227
 20
19.7855
 11
43.3925
 21
19.967
  0
LINE
  8
0
 10
43.3925
 20
19.967
 11
43.0877
 21
20.1884
  0
LINE
  8
0
 10
43.0877
 20
20.1884
 11
42.8131
 21
20.4464
  0
LINE
  8
0
 10
42.8131
 20
20.4464
 11
42.5729
 21
20.7366
  0
LINE
  8
0
 10
42.5729
 20
20.7366
 11
42.3711
 21
21.0547
  0
LINE
  8
0
 10
42.3711
 20
21.0547
 11
42.2107
 21
21.3956
  0
LINE
  8
0
 10
42.2107
 20
21.3956
 11
42.0942
 21
21.7539
  0
LINE
  8
0
 10
42.0942
 20
21.7539
 11
42.0237
 21
22.124
  0
LINE
  8
0
 10
42.0237
 20
22.124
 11
42
 21
22.5
  0
LINE
  8
0
 10
42
 20
22.5
 11
42.0237
 21
22.876
  0
LINE
  8
0
 10
42.0237
 20
22.876
 11
42.0942
 21
23.2461
  0
LINE
  8
0
 10
42.0942
 20
23.2461
 11
42.2107
 21
23.6044
  0
LINE
  8
0
 10
42.2107
 20
23.6044
 11
42.3711
 21
23.9453
  0
LINE
  8
0
 10
42.3711
 20
23.9453
 11
42.5729
 21
24.2634
  0
LINE
  8
0
 10
42.5729
 20
24.2634
 11
42.8131
 21
24.5536
  0
LINE
  8
0
 10
42.8131
 20
24.5536
 11
43.0877
 21
24.8115
  0
LINE
  8
0
 10
43.0877
 20
24.8115
 11
43.3925
 21
25.033
  0
LINE
  8
0
 10
43.3925
 20
25.033
 11
43.7227
 21
25.2145
  0
LINE
  8
0
 10
43.7227
 20
25.2145
 11
44.0729
 21
25.3532
  0
LINE
  8
0
 10
44.0729
 20
25.3532
 11
44.4379
 21
25.4469
  0
LINE
  8
0
 10
44.4379
 20
25.4469
 11
44.8116
 21
25.4941
  0
LINE
  8
0
 10
44.8116
 20
25.4941
 11
45.1884
 21
25.4941
  0
LINE
  8
0
 10
45.1884
 20
25.4941
 11
45.5621
 21
25.4469
  0
LINE
  8
0
 10
45.5621
 20
25.4469
 11
45.927
 21
25.3532
  0
LINE
  8
0
 10
45.927
 20
25.3532
 11
46.2773
 21
25.2145
  0
LINE
  8
0
 10
46.2773
 20
25.2145
 11
46.6075
 21
25.033
  0
LINE
  8
0
 10
46.6075
 20
25.033
 11
46.9123
 21
24.8115
  0
LINE
  8
0
 10
46.9123
 20
24.8115
 11
47.1869
 21
24.5536
  0
LINE
  8
0
 10
47.1869
 20
24.5536
 11
47.427
 21
24.2634
  0
LINE
  8
0
 10
47.427
 20
24.2634
 11
47.6289
 21
23.9453
  0
LINE
  8
0
 10
47.6289
 20
23.9453
 11
47.7893
 21
23.6044
  0
LINE
  8
0
 10
47.7893
 20
23.6044
 11
47.9057
 21
23.2461
  0
LINE
  8
0
 10
47.9057
 20
23.2461
 11
47.9763
 21
22.876
  0
LINE
  8
0
 10
47.9763
 20
22.876
 11
48
 21
22.5
  0
LINE
  8
0
 10
48
 20
22.5
 11
47.9763
 21
22.124
  0
LINE
  8
0
 10
47.9763
 20
22.124
 11
47.9057
 21
21.7539
  0
LINE
  8
0
 10
47.9057
 20
21.7539
 11
47.7893
 21
21.3956
  0
LINE
  8
0
 10
47.7893
 20
21.3956
 11
47.6289
 21
21.0547
  0
LINE
  8
0
 10
47.6289
 20
21.0547
 11
47.427
 21
20.7366
  0
LINE
  8
0
 10
47.427
 20
20.7366
 11
47.1869
 21
20.4464
  0
LINE
  8
0
 10
47.1869
 20
20.4464
 11
46.9123
 21
20.1884
  0
LINE
  8
0
 10
46.9123
 20
20.1884
 11
46.6075
 21
19.967
  0
LINE
  8
0
 10
46.6075
 20
19.967
 11
46.2773
 21
19.7855
  0
LINE
  8
0
 10
46.2773
 20
19.7855
 11
45.927
 21
19.6468
  0
LINE
  8
0
 10
45.927
 20
19.6468
 11
45.5621
 21
19.5531
  0
LINE
  8
0
 10
45.5621
 20
19.5531
 11
45.1884
 21
19.5059
  0
LINE
  8
0
 10
45.1884
 20
19.5059
 11
44.8116
 21
19.5059
  0
LINE
  8
0
 10
22.1814
 20
-20.9586
 11
19.565
 21
-20.628
  0
LINE
  8
0
 10
19.565
 20
-20.628
 11
17.0106
 21
-19.9722
  0
LINE
  8
0
 10
17.0106
 20
-19.9722
 11
14.5586
 21
-19.0014
  0
LINE
  8
0
 10
14.5586
 20
-19.0014
 11
12.2476
 21
-17.7309
  0
LINE
  8
0
 10
12.2476
 20
-17.7309
 11
10.1141
 21
-16.1808
  0
LINE
  8
0
 10
10.1141
 20
-16.1808
 11
8.19165
 21
-14.3755
  0
LINE
  8
0
 10
8.19165
 20
-14.3755
 11
6.51064
 21
-12.3435
  0
LINE
  8
0
 10
6.51064
 20
-12.3435
 11
5.09755
 21
-10.1168
  0
LINE
  8
0
 10
5.09755
 20
-10.1168
 11
3.97469
 21
-7.73061
  0
LINE
  8
0
 10
3.97469
 20
-7.73061
 11
3.15974
 21
-5.22247
  0
LINE
  8
0
 10
3.15974
 20
-5.22247
 11
2.66559
 21
-2.63199
  0
LINE
  8
0
 10
2.66559
 20
-2.63199
 11
2.5
 21
0
  0
LINE
  8
0
 10
2.5
 20
0
 11
2.66559
 21
2.63199
  0
LINE
  8
0
 10
2.66559
 20
2.63199
 11
3.15974
 21
5.22247
  0
LINE
  8
0
 10
3.15974
 20
5.22247
 11
3.97469
 21
7.73061
  0
LINE
  8
0
 10
3.97469
 20
7.73061
 11
5.09755
 21
10.1168
  0
LINE
  8
0
 10
5.09755
 20
10.1168
 11
6.51064
 21
12.3435
  0
LINE
  8
0
 10
6.51064
 20
12.3435
 11
8.19165
 21
14.3755
  0
LINE
  8
0
 10
8.19165
 20
14.3755
 11
10.1141
 21
16.1808
  0
LINE
  8
0
 10
10.1141
 20
16.1808
 11
12.2476
 21
17.7309
  0
LINE
  8
0
 10
12.2476
 20
17.7309
 11
14.5586
 21
19.0014
  0
LINE
  8
0
 10
14.5586
 20
19.0014
 11
17.0106
 21
19.9722
  0
LINE
  8
0
 10
17.0106
 20
19.9722
 11
19.565
 21
20.628
  0
LINE
  8
0
 10
19.565
 20
20.628
 11
22.1814
 21
20.9586
  0
LINE
  8
0
 10
22.1814
 20
20.9586
 11
24.8186
 21
20.9586
  0
LINE
  8
0
 10
24.8186
 20
20.9586
 11
27.435
 21
20.628
  0
LINE
  8
0
 10
27.435
 20
20.628
 11
29.9893
 21
19.9722
  0
LINE
  8
0
 10
29.9893
 20
19.9722
 11
32.4414
 21
19.0014
  0
LINE
  8
0
 10
32.4414
 20
19.0014
 11
34.7523
 21
17.7309
  0
LINE
  8
0
 10
34.7523
 20
17.7309
 11
36.8859
 21
16.1808
  0
LINE
  8
0
 10
36.8859
 20
16.1808
 11
38.8083
 21
14.3755
  0
LINE
  8
0
 10
38.8083
 20
14.3755
 11
40.4893
 21
12.3435
  0
LINE
  8
0
 10
40.4893
 20
12.3435
 11
41.9024
 21
10.1168
  0
LINE
  8
0
 10
41.9024
 20
10.1168
 11
43.0253
 21
7.73061
  0
LINE
  8
0
 10
43.0253
 20
7.73061
 11
43.8402
 21
5.22247
  0
LINE
  8
0
 10
43.8402
 20
5.22247
 11
44.3344
 21
2.63199
  0
LINE
  8
0
 10
44.3344
 20
2.63199
 11
44.5
 21
0
  0
LINE
  8
0
 10
44.5
 20
0
 11
44.3344
 21
-2.63199
  0
LINE
  8
0
 10
44.3344
 20
-2.63199
 11
43.8402
 21
-5.22247
  0
LINE
  8
0
 10
43.8402
 20
-5.22247
 11
43.0253
 21
-7.73061
  0
LINE
  8
0
 10
43.0253
 20
-7.73061
 11
41.9024
 21
-10.1168
  0
LINE
  8
0
 10
41.9024
 20
-10.1168
 11
40.4893
 21
-12.3435
  0
LINE
  8
0
 10
40.4893
 20
-12.3435
 11
38.8083
 21
-14.3755
  0
LINE
  8
0
 10
38.8083
 20
-14.3755
 11
36.8859
 21
-16.1808
  0
LINE
  8
0
 10
36.8859
 20
-16.1808
 11
34.7523
 21
-17.7309
  0
LINE
  8
0
 10
34.7523
 20
-17.7309
 11
32.4414
 21
-19.0014
  0
LINE
  8
0
 10
32.4414
 20
-19.0014
 11
29.9893
 21
-19.9722
  0
LINE
  8
0
 10
29.9893
 20
-19.9722
 11
27.435
 21
-20.628
  0
LINE
  8
0
 10
27.435
 20
-20.628
 11
24.8186
 21
-20.9586
  0
LINE
  8
0
 10
24.8186
 20
-20.9586
 11
22.1814
 21
-20.9586
  0
LINE
  8
0
 10
-24.8186
 20
-20.9586
 11
-27.435
 21
-20.628
  0
LINE
  8
0
 10
-27.435
 20
-20.628
 11
-29.9893
 21
-19.9722
  0
LINE
  8
0
 10
-29.9893
 20
-19.9722
 11
-32.4414
 21
-19.0014
  0
LINE
  8
0
 10
-32.4414
 20
-19.0014
 11
-34.7523
 21
-17.7309
  0
LINE
  8
0
 10
-34.7523
 20
-17.7309
 11
-36.8859
 21
-16.1808
  0
LINE
  8
0
 10
-36.8859
 20
-16.1808
 11
-38.8083
 21
-14.3755
  0
LINE
  8
0
 10
-38.8083
 20
-14.3755
 11
-40.4893
 21
-12.3435
  0
LINE
  8
0
 10
-40.4893
 20
-12.3435
 11
-41.9024
 21
-10.1168
  0
LINE
  8
0
 10
-41.9024
 20
-10.1168
 11
-43.0253
 21
-7.73061
  0
LINE
  8
0
 10
-43.0253
 20
-7.73061
 11
-43.8402
 21
-5.22247
  0
LINE
  8
0
 10
-43.8402
 20
-5.22247
 11
-44.3344
 21
-2.63199
  0
LINE
  8
0
 10
-44.3344
 20
-2.63199
 11
-44.5
 21
0
  0
LINE
  8
0
 10
-44.5
 20
0
 11
-44.3344
 21
2.63199
  0
LINE
  8
0
 10
-44.3344
 20
2.63199
 11
-43.8402
 21
5.22247
  0
LINE
  8
0
 10
-43.8402
 20
5.22247
 11
-43.0253
 21
7.73061
  0
LINE
  8
0
 10
-43.0253
 20
7.73061
 11
-41.9024
 21
10.1168
  0
LINE
  8
0
 10
-41.9024
 20
10.1168
 11
-40.4893
 21
12.3435
  0
LINE
  8
0
 10
-40.4893
 20
12.3435
 11
-38.8083
 21
14.3755
  0
LINE
  8
0
 10
-38.8083
 20
14.3755
 11
-36.8859
 21
16.1808
  0
LINE
  8
0
 10
-36.8859
 20
16.1808
 11
-34.7523
 21
17.7309
  0
LINE
  8
0
 10
-34.7523
 20
17.7309
 11
-32.4414
 21
19.0014
  0
LINE
  8
0
 10
-32.4414
 20
19.0014
 11
-29.9893
 21
19.9722
  0
LINE
  8
0
 10
-29.9893
 20
19.9722
 11
-27.435
 21
20.628
  0
LINE
  8
0
 10
-27.435
 20
20.628
 11
-24.8186
 21
20.9586
  0
LINE
  8
0
 10
-24.8186
 20
20.9586
 11
-22.1814
 21
20.9586
  0
LINE
  8
0
 10
-22.1814
 20
20.9586
 11
-19.565
 21
20.628
  0
LINE
  8
0
 10
-19.565
 20
20.628
 11
-17.0106
 21
19.9722
  0
LINE
  8
0
 10
-17.0106
 20
19.9722
 11
-14.5586
 21
19.0014
  0
LINE
  8
0
 10
-14.5586
 20
19.0014
 11
-12.2476
 21
17.7309
  0
LINE
  8
0
 10
-12.2476
 20
17.7309
 11
-10.1141
 21
16.1808
  0
LINE
  8
0
 10
-10.1141
 20
16.1808
 11
-8.19165
 21
14.3755
  0
LINE
  8
0
 10
-8.19165
 20
14.3755
 11
-6.51064
 21
12.3435
  0
LINE
  8
0
 10
-6.51064
 20
12.3435
 11
-5.09755
 21
10.1168
  0
LINE
  8
0
 10
-5.09755
 20
10.1168
 11
-3.97469
 21
7.73061
  0
LINE
  8
0
 10
-3.97469
 20
7.73061
 11
-3.15974
 21
5.22247
  0
LINE
  8
0
 10
-3.15974
 20
5.22247
 11
-2.66559
 21
2.63199
  0
LINE
  8
0
 10
-2.66559
 20
2.63199
 11
-2.5
 21
0
  0
LINE
  8
0
 10
-2.5
 20
0
 11
-2.66559
 21
-2.63199
  0
LINE
  8
0
 10
-2.66559
 20
-2.63199
 11
-3.15974
 21
-5.22247
  0
LINE
  8
0
 10
-3.15974
 20
-5.22247
 11
-3.97469
 21
-7.73061
  0
LINE
  8
0
 10
-3.97469
 20
-7.73061
 11
-5.09755
 21
-10.1168
  0
LINE
  8
0
 10
-5.09755
 20
-10.1168
 11
-6.51064
 21
-12.3435
  0
LINE
  8
0
 10
-6.51064
 20
-12.3435
 11
-8.19165
 21
-14.3755
  0
LINE
  8
0
 10
-8.19165
 20
-14.3755
 11
-10.1141
 21
-16.1808
  0
LINE
  8
0
 10
-10.1141
 20
-16.1808
 11
-12.2476
 21
-17.7309
  0
LINE
  8
0
 10
-12.2476
 20
-17.7309
 11
-14.5586
 21
-19.0014
  0
LINE
  8
0
 10
-14.5586
 20
-19.0014
 11
-17.0106
 21
-19.9722
  0
LINE
  8
0
 10
-17.0106
 20
-19.9722
 11
-19.565
 21
-20.628
  0
LINE
  8
0
 10
-19.565
 20
-20.628
 11
-22.1814
 21
-20.9586
  0
LINE
  8
0
 10
-22.1814
 20
-20.9586
 11
-24.8186
 21
-20.9586
  0
LINE
  8
0
 10
-45.1884
 20
-25.4941
 11
-45.5621
 21
-25.4469
  0
LINE
  8
0
 10
-45.5621
 20
-25.4469
 11
-45.927
 21
-25.3532
  0
LINE
  8
0
 10
-45.927
 20
-25.3532
 11
-46.2773
 21
-25.2145
  0
LINE
  8
0
 10
-46.2773
 20
-25.2145
 11
-46.6075
 21
-25.033
  0
LINE
  8
0
 10
-46.6075
 20
-25.033
 11
-46.9123
 21
-24.8115
  0
LINE
  8
0
 10
-46.9123
 20
-24.8115
 11
-47.1869
 21
-24.5536
  0
LINE
  8
0
 10
-47.1869
 20
-24.5536
 11
-47.427
 21
-24.2634
  0
LINE
  8
0
 10
-47.427
 20
-24.2634
 11
-47.6289
 21
-23.9453
  0
LINE
  8
0
 10
-47.6289
 20
-23.9453
 11
-47.7893
 21
-23.6044
  0
LINE
  8
0
 10
-47.7893
 20
-23.6044
 11
-47.9057
 21
-23.2461
  0
LINE
  8
0
 10
-47.9057
 20
-23.2461
 11
-47.9763
 21
-22.876
  0
LINE
  8
0
 10
-47.9763
 20
-22.876
 11
-48
 21
-22.5
  0
LINE
  8
0
 10
-48
 20
-22.5
 11
-47.9763
 21
-22.124
  0
LINE
  8
0
 10
-47.9763
 20
-22.124
 11
-47.9057
 21
-21.7539
  0
LINE
  8
0
 10
-47.9057
 20
-21.7539
 11
-47.7893
 21
-21.3956
  0
LINE
  8
0
 10
-47.7893
 20
-21.3956
 11
-47.6289
 21
-21.0547
  0
LINE
  8
0
 10
-47.6289
 20
-21.0547
 11
-47.427
 21
-20.7366
  0
LINE
  8
0
 10
-47.427
 20
-20.7366
 11
-47.1869
 21
-20.4464
  0
LINE
  8
0
 10
-47.1869
 20
-20.4464
 11
-46.9123
 21
-20.1884
  0
LINE
  8
0
 10
-46.9123
 20
-20.1884
 11
-46.6075
 21
-19.967
  0
LINE
  8
0
 10
-46.6075
 20
-19.967
 11
-46.2773
 21
-19.7855
  0
LINE
  8
0
 10
-46.2773
 20
-19.7855
 11
-45.927
 21
-19.6468
  0
LINE
  8
0
 10
-45.927
 20
-19.6468
 11
-45.5621
 21
-19.5531
  0
LINE
  8
0
 10
-45.5621
 20
-19.5531
 11
-45.1884
 21
-19.5059
  0
LINE
  8
0
 10
-45.1884
 20
-19.5059
 11
-44.8116
 21
-19.5059
  0
LINE
  8
0
 10
-44.8116
 20
-19.5059
 11
-44.4379
 21
-19.5531
  0
LINE
  8
0
 10
-44.4379
 20
-19.5531
 11
-44.0729
 21
-19.6468
  0
LINE
  8
0
 10
-44.0729
 20
-19.6468
 11
-43.7227
 21
-19.7855
  0
LINE
  8
0
 10
-43.7227
 20
-19.7855
 11
-43.3925
 21
-19.967
  0
LINE
  8
0
 10
-43.3925
 20
-19.967
 11
-43.0877
 21
-20.1884
  0
LINE
  8
0
 10
-43.0877
 20
-20.1884
 11
-42.8131
 21
-20.4464
  0
LINE
  8
0
 10
-42.8131
 20
-20.4464
 11
-42.5729
 21
-20.7366
  0
LINE
  8
0
 10
-42.5729
 20
-20.7366
 11
-42.3711
 21
-21.0547
  0
LINE
  8
0
 10
-42.3711
 20
-21.0547
 11
-42.2107
 21
-21.3956
  0
LINE
  8
0
 10
-42.2107
 20
-21.3956
 11
-42.0942
 21
-21.7539
  0
LINE
  8
0
 10
-42.0942
 20
-21.7539
 11
-42.0237
 21
-22.124
  0
LINE
  8
0
 10
-42.0237
 20
-22.124
 11
-42
 21
-22.5
  0
LINE
  8
0
 10
-42
 20
-22.5
 11
-42.0237
 21
-22.876
  0
LINE
  8
0
 10
-42.0237
 20
-22.876
 11
-42.0942
 21
-23.2461
  0
LINE
  8
0
 10
-42.0942
 20
-23.2461
 11
-42.2107
 21
-23.6044
  0
LINE
  8
0
 10
-42.2107
 20
-23.6044
 11
-42.3711
 21
-23.9453
  0
LINE
  8
0
 10
-42.3711
 20
-23.9453
 11
-42.5729
 21
-24.2634
  0
LINE
  8
0
 10
-42.5729
 20
-24.2634
 11
-42.8131
 21
-24.5536
  0
LINE
  8
0
 10
-42.8131
 20
-24.5536
 11
-43.0877
 21
-24.8115
  0
LINE
  8
0
 10
-43.0877
 20
-24.8115
 11
-43.3925
 21
-25.033
  0
LINE
  8
0
 10
-43.3925
 20
-25.033
 11
-43.7227
 21
-25.2145
  0
LINE
  8
0
 10
-43.7227
 20
-25.2145
 11
-44.0729
 21
-25.3532
  0
LINE
  8
0
 10
-44.0729
 20
-25.3532
 11
-44.4379
 21
-25.4469
  0
LINE
  8
0
 10
-44.4379
 20
-25.4469
 11
-44.8116
 21
-25.4941
  0
LINE
  8
0
 10
-44.8116
 20
-25.4941
 11
-45.1884
 21
-25.4941
  0
LINE
  8
0
 10
44.8116
 20
-25.4941
 11
44.4379
 21
-25.4469
  0
LINE
  8
0
 10
44.4379
 20
-25.4469
 11
44.0729
 21
-25.3532
  0
LINE
  8
0
 10
44.0729
 20
-25.3532
 11
43.7227
 21
-25.2145
  0
LINE
  8
0
 10
43.7227
 20
-25.2145
 11
43.3925
 21
-25.033
  0
LINE
  8
0
 10
43.3925
 20
-25.033
 11
43.0877
 21
-24.8115
  0
LINE
  8
0
 10
43.0877
 20
-24.8115
 11
42.8131
 21
-24.5536
  0
LINE
  8
0
 10
42.8131
 20
-24.5536
 11
42.5729
 21
-24.2634
  0
LINE
  8
0
 10
42.5729
 20
-24.2634
 11
42.3711
 21
-23.9453
  0
LINE
  8
0
 10
42.3711
 20
-23.9453
 11
42.2107
 21
-23.6044
  0
LINE
  8
0
 10
42.2107
 20
-23.6044
 11
42.0942
 21
-23.2461
  0
LINE
  8
0
 10
42.0942
 20
-23.2461
 11
42.0237
 21
-22.876
  0
LINE
  8
0
 10
42.0237
 20
-22.876
 11
42
 21
-22.5
  0
LINE
  8
0
 10
42
 20
-22.5
 11
42.0237
 21
-22.124
  0
LINE
  8
0
 10
42.0237
 20
-22.124
 11
42.0942
 21
-21.7539
  0
LINE
  8
0
 10
42.0942
 20
-21.7539
 11
42.2107
 21
-21.3956
  0
LINE
  8
0
 10
42.2107
 20
-21.3956
 11
42.3711
 21
-21.0547
  0
LINE
  8
0
 10
42.3711
 20
-21.0547
 11
42.5729
 21
-20.7366
  0
LINE
  8
0
 10
42.5729
 20
-20.7366
 11
42.8131
 21
-20.4464
  0
LINE
  8
0
 10
42.8131
 20
-20.4464
 11
43.0877
 21
-20.1884
  0
LINE
  8
0
 10
43.0877
 20
-20.1884
 11
43.3925
 21
-19.967
  0
LINE
  8
0
 10
43.3925
 20
-19.967
 11
43.7227
 21
-19.7855
  0
LINE
  8
0
 10
43.7227
 20
-19.7855
 11
44.0729
 21
-19.6468
  0
LINE
  8
0
 10
44.0729
 20
-19.6468
 11
44.4379
 21
-19.5531
  0
LINE
  8
0
 10
44.4379
 20
-19.5531
 11
44.8116
 21
-19.5059
  0
LINE
  8
0
 10
44.8116
 20
-19.5059
 11
45.1884
 21
-19.5059
  0
LINE
  8
0
 10
45.1884
 20
-19.5059
 11
45.5621
 21
-19.5531
  0
LINE
  8
0
 10
45.5621
 20
-19.5531
 11
45.927
 21
-19.6468
  0
LINE
  8
0
 10
45.927
 20
-19.6468
 11
46.2773
 21
-19.7855
  0
LINE
  8
0
 10
46.2773
 20
-19.7855
 11
46.6075
 21
-19.967
  0
LINE
  8
0
 10
46.6075
 20
-19.967
 11
46.9123
 21
-20.1884
  0
LINE
  8
0
 10
46.9123
 20
-20.1884
 11
47.1869
 21
-20.4464
  0
LINE
  8
0
 10
47.1869
 20
-20.4464
 11
47.427
 21
-20.7366
  0
LINE
  8
0
 10
47.427
 20
-20.7366
 11
47.6289
 21
-21.0547
  0
LINE
  8
0
 10
47.6289
 20
-21.0547
 11
47.7893
 21
-21.3956
  0
LINE
  8
0
 10
47.7893
 20
-21.3956
 11
47.9057
 21
-21.7539
  0
LINE
  8
0
 10
47.9057
 20
-21.7539
 11
47.9763
 21
-22.124
  0
LINE
  8
0
 10
47.9763
 20
-22.124
 11
48
 21
-22.5
  0
LINE
  8
0
 10
48
 20
-22.5
 11
47.9763
 21
-22.876
  0
LINE
  8
0
 10
47.9763
 20
-22.876
 11
47.9057
 21
-23.2461
  0
LINE
  8
0
 10
47.9057
 20
-23.2461
 11
47.7893
 21
-23.6044
  0
LINE
  8
0
 10
47.7893
 20
-23.6044
 11
47.6289
 21
-23.9453
  0
LINE
  8
0
 10
47.6289
 20
-23.9453
 11
47.427
 21
-24.2634
  0
LINE
  8
0
 10
47.427
 20
-24.2634
 11
47.1869
 21
-24.5536
  0
LINE
  8
0
 10
47.1869
 20
-24.5536
 11
46.9123
 21
-24.8115
  0
LINE
  8
0
 10
46.9123
 20
-24.8115
 11
46.6075
 21
-25.033
  0
LINE
  8
0
 10
46.6075
 20
-25.033
 11
46.2773
 21
-25.2145
  0
LINE
  8
0
 10
46.2773
 20
-25.2145
 11
45.927
 21
-25.3532
  0
LINE
  8
0
 10
45.927
 20
-25.3532
 11
45.5621
 21
-25.4469
  0
LINE
  8
0
 10
45.5621
 20
-25.4469
 11
45.1884
 21
-25.4941
  0
LINE
  8
0
 10
45.1884
 20
-25.4941
 11
44.8116
 21
-25.4941
  0
ENDSEC
  0
SECTION
  2
OBJECTS
  0
DICTIONARY
  0
ENDSEC
  0
EOF
