<?xml version="1.0" standalone="no"?>
<!DOCTYPE svg PUBLIC "-//W3C//DTD SVG 1.1//EN" "http://www.w3.org/Graphics/SVG/1.1/DTD/svg11.dtd">
<svg width="134mm" height="30mm" viewBox="-67 -15 134 30" xmlns="http://www.w3.org/2000/svg" version="1.1">
<title>OpenSCAD Model</title>
<path d="
M 62.9369,14.4114 L 63.5451,14.2553 L 64.1289,14.0241 L 64.6791,13.7216 L 65.1871,13.3526 L 65.6448,12.9227
 L 66.0451,12.4389 L 66.3815,11.9088 L 66.6489,11.3406 L 66.8429,10.7434 L 66.9606,10.1267 L 67,9.5
 L 67,-9.5 L 66.9606,-10.1267 L 66.8429,-10.7434 L 66.6489,-11.3406 L 66.3815,-11.9088 L 66.0451,-12.4389
 L 65.6448,-12.9227 L 65.1871,-13.3526 L 64.6791,-13.7216 L 64.1289,-14.0241 L 63.5451,-14.2553 L 62.9369,-14.4114
 L 62.3139,-14.4901 L -62.3139,-14.4901 L -62.9369,-14.4114 L -63.5451,-14.2553 L -64.1289,-14.0241 L -64.6791,-13.7216
 L -65.1871,-13.3526 L -65.6448,-12.9227 L -66.0451,-12.4389 L -66.3815,-11.9088 L -66.6489,-11.3406 L -66.8429,-10.7434
 L -66.9606,-10.1267 L -67,-9.5 L -67,9.5 L -66.9606,10.1267 L -66.8429,10.7434 L -66.6489,11.3406
 L -66.3815,11.9088 L -66.0451,12.4389 L -65.6448,12.9227 L -65.1871,13.3526 L -64.6791,13.7216 L -64.1289,14.0241
 L -63.5451,14.2553 L -62.9369,14.4114 L -62.3139,14.4901 L 62.3139,14.4901 z
M -60.1884,10.4941 L -60.5621,10.4469 L -60.927,10.3532 L -61.2773,10.2145 L -61.6075,10.033 L -61.9123,9.81154
 L -62.1869,9.55363 L -62.427,9.26335 L -62.6289,8.94525 L -62.7893,8.60437 L -62.9057,8.24606 L -62.9763,7.87599
 L -63,7.5 L -62.9763,7.12399 L -62.9057,6.75392 L -62.7893,6.39561 L -62.6289,6.05473 L -62.427,5.73663
 L -62.1869,5.44635 L -61.9123,5.18845 L -61.6075,4.96701 L -61.2773,4.78551 L -60.927,4.64682 L -60.5621,4.55313
 L -60.1884,4.50591 L -59.8116,4.50591 L -59.4379,4.55313 L -59.0729,4.64682 L -58.7908,4.75851 L -59.2978,3.68124
 L -59.6858,2.48689 L -59.9211,1.25333 L -60,-0 L -59.9211,-1.25333 L -59.6858,-2.48689 L -59.2978,-3.68124
 L -58.7908,-4.75851 L -59.0729,-4.64682 L -59.4379,-4.55313 L -59.8116,-4.50591 L -60.1884,-4.50591 L -60.5621,-4.55313
 L -60.927,-4.64682 L -61.2773,-4.78551 L -61.6075,-4.96701 L -61.9123,-5.18845 L -62.1869,-5.44635 L -62.427,-5.73663
 L -62.6289,-6.05473 L -62.7893,-6.39561 L -62.9057,-6.75392 L -62.9763,-7.12399 L -63,-7.5 L -62.9763,-7.87599
 L -62.9057,-8.24606 L -62.7893,-8.60437 L -62.6289,-8.94525 L -62.427,-9.26335 L -62.1869,-9.55363 L -61.9123,-9.81154
 L -61.6075,-10.033 L -61.2773,-10.2145 L -60.927,-10.3532 L -60.5621,-10.4469 L -60.1884,-10.4941 L -59.8116,-10.4941
 L -59.4379,-10.4469 L -59.0729,-10.3532 L -58.7227,-10.2145 L -58.3925,-10.033 L -58.0877,-9.81154 L -57.8131,-9.55363
 L -57.5729,-9.26335 L -57.3711,-8.94525 L -57.2107,-8.60437 L -57.0942,-8.24606 L -57.0237,-7.87599 L -57,-7.5
 L -57.0237,-7.12399 L -57.0303,-7.08902 L -56.3742,-7.70512 L -55.3583,-8.44327 L -54.2578,-9.04826 L -53.0902,-9.51056
 L -51.8738,-9.82286 L -50.6279,-9.98026 L -49.3721,-9.98026 L -48.1262,-9.82286 L -46.9098,-9.51056 L -45.7422,-9.04826
 L -44.6417,-8.44327 L -43.6257,-7.70512 L -42.7103,-6.84546 L -41.9098,-5.87784 L -41.2369,-4.81754 L -40.7022,-3.68124
 L -40.3142,-2.48689 L -40.0788,-1.25333 L -40,-0 L -40.0788,1.25333 L -40.3142,2.48689 L -40.7022,3.68124
 L -41.2369,4.81754 L -41.9098,5.87784 L -42.7103,6.84546 L -43.6257,7.70512 L -44.6417,8.44327 L -45.7422,9.04826
 L -46.9098,9.51056 L -48.1262,9.82286 L -49.3721,9.98026 L -50.6279,9.98026 L -51.8738,9.82286 L -53.0902,9.51056
 L -54.2578,9.04826 L -55.3583,8.44327 L -56.3742,7.70512 L -57.0303,7.08902 L -57.0237,7.12399 L -57,7.5
 L -57.0237,7.87599 L -57.0942,8.24606 L -57.2107,8.60437 L -57.3711,8.94525 L -57.5729,9.26335 L -57.8131,9.55363
 L -58.0877,9.81154 L -58.3925,10.033 L -58.7227,10.2145 L -59.0729,10.3532 L -59.4379,10.4469 L -59.8116,10.4941
 z
M 59.8116,10.4941 L 59.4379,10.4469 L 59.0729,10.3532 L 58.7227,10.2145 L 58.3925,10.033 L 58.0877,9.81154
 L 57.8131,9.55363 L 57.5729,9.26335 L 57.3711,8.94525 L 57.2107,8.60437 L 57.0942,8.24606 L 57.0237,7.87599
 L 57,7.5 L 57.0237,7.12399 L 57.0303,7.08902 L 56.3742,7.70512 L 55.3583,8.44327 L 54.2578,9.04826
 L 53.0902,9.51056 L 51.8738,9.82286 L 50.6279,9.98026 L 49.3721,9.98026 L 48.1262,9.82286 L 46.9098,9.51056
 L 45.7422,9.04826 L 44.6417,8.44327 L 43.6257,7.70512 L 42.7103,6.84546 L 41.9098,5.87784 L 41.2369,4.81754
 L 40.7022,3.68124 L 40.3142,2.48689 L 40.0788,1.25333 L 40,-0 L 40.0788,-1.25333 L 40.3142,-2.48689
 L 40.7022,-3.68124 L 41.2369,-4.81754 L 41.9098,-5.87784 L 42.7103,-6.84546 L 43.6257,-7.70512 L 44.6417,-8.44327
 L 45.7422,-9.04826 L 46.9098,-9.51056 L 48.1262,-9.82286 L 49.3721,-9.98026 L 50.6279,-9.98026 L 51.8738,-9.82286
 L 53.0902,-9.51056 L 54.2578,-9.04826 L 55.3583,-8.44327 L 56.3742,-7.70512 L 57.0303,-7.08902 L 57.0237,-7.12399
 L 57,-7.5 L 57.0237,-7.87599 L 57.0942,-8.24606 L 57.2107,-8.60437 L 57.3711,-8.94525 L 57.5729,-9.26335
 L 57.8131,-9.55363 L 58.0877,-9.81154 L 58.3925,-10.033 L 58.7227,-10.2145 L 59.0729,-10.3532 L 59.4379,-10.4469
 L 59.8116,-10.4941 L 60.1884,-10.4941 L 60.5621,-10.4469 L 60.927,-10.3532 L 61.2773,-10.2145 L 61.6075,-10.033
 L 61.9123,-9.81154 L 62.1869,-9.55363 L 62.427,-9.26335 L 62.6289,-8.94525 L 62.7893,-8.60437 L 62.9057,-8.24606
 L 62.9763,-7.87599 L 63,-7.5 L 62.9763,-7.12399 L 62.9057,-6.75392 L 62.7893,-6.39561 L 62.6289,-6.05473
 L 62.427,-5.73663 L 62.1869,-5.44635 L 61.9123,-5.18845 L 61.6075,-4.96701 L 61.2773,-4.78551 L 60.927,-4.64682
 L 60.5621,-4.55313 L 60.1884,-4.50591 L 59.8116,-4.50591 L 59.4379,-4.55313 L 59.0729,-4.64682 L 58.7908,-4.75851
 L 59.2978,-3.68124 L 59.6858,-2.48689 L 59.9211,-1.25333 L 60,-0 L 59.9211,1.25333 L 59.6858,2.48689
 L 59.2978,3.68124 L 58.7908,4.75851 L 59.0729,4.64682 L 59.4379,4.55313 L 59.8116,4.50591 L 60.1884,4.50591
 L 60.5621,4.55313 L 60.927,4.64682 L 61.2773,4.78551 L 61.6075,4.96701 L 61.9123,5.18845 L 62.1869,5.44635
 L 62.427,5.73663 L 62.6289,6.05473 L 62.7893,6.39561 L 62.9057,6.75392 L 62.9763,7.12399 L 63,7.5
 L 62.9763,7.87599 L 62.9057,8.24606 L 62.7893,8.60437 L 62.6289,8.94525 L 62.427,9.26335 L 62.1869,9.55363
 L 61.9123,9.81154 L 61.6075,10.033 L 61.2773,10.2145 L 60.927,10.3532 L 60.5621,10.4469 L 60.1884,10.4941
 z
M 24.3721,9.98026 L 23.1262,9.82286 L 21.9098,9.51056 L 20.7422,9.04826 L 19.6417,8.44327 L 18.6257,7.70512
 L 17.7103,6.84546 L 16.9098,5.87784 L 16.2369,4.81754 L 15.7022,3.68124 L 15.3142,2.48689 L 15.0788,1.25333
 L 15,-0 L 15.0788,-1.25333 L 15.3142,-2.48689 L 15.7022,-3.68124 L 16.2369,-4.81754 L 16.9098,-5.87784
 L 17.7103,-6.84546 L 18.6257,-7.70512 L 19.6417,-8.44327 L 20.7422,-9.04826 L 21.9098,-9.51056 L 23.1262,-9.82286
 L 24.3721,-9.98026 L 25.6279,-9.98026 L 26.8738,-9.82286 L 28.0902,-9.51056 L 29.2578,-9.04826 L 30.3583,-8.44327
 L 31.3742,-7.70512 L 32.2897,-6.84546 L 33.0902,-5.87784 L 33.7631,-4.81754 L 34.2978,-3.68124 L 34.6858,-2.48689
 L 34.9211,-1.25333 L 35,-0 L 34.9211,1.25333 L 34.6858,2.48689 L 34.2978,3.68124 L 33.7631,4.81754
 L 33.0902,5.87784 L 32.2897,6.84546 L 31.3742,7.70512 L 30.3583,8.44327 L 29.2578,9.04826 L 28.0902,9.51056
 L 26.8738,9.82286 L 25.6279,9.98026 z
M -25.6279,9.98026 L -26.8738,9.82286 L -28.0902,9.51056 L -29.2578,9.04826 L -30.3583,8.44327 L -31.3742,7.70512
 L -32.2897,6.84546 L -33.0902,5.87784 L -33.7631,4.81754 L -34.2978,3.68124 L -34.6858,2.48689 L -34.9211,1.25333
 L -35,-0 L -34.9211,-1.25333 L -34.6858,-2.48689 L -34.2978,-3.68124 L -33.7631,-4.81754 L -33.0902,-5.87784
 L -32.2897,-6.84546 L -31.3742,-7.70512 L -30.3583,-8.44327 L -29.2578,-9.04826 L -28.0902,-9.51056 L -26.8738,-9.82286
 L -25.6279,-9.98026 L -24.3721,-9.98026 L -23.1262,-9.82286 L -21.9098,-9.51056 L -20.7422,-9.04826 L -19.6417,-8.44327
 L -18.6257,-7.70512 L -17.7103,-6.84546 L -16.9098,-5.87784 L -16.2369,-4.81754 L -15.7022,-3.68124 L -15.3142,-2.48689
 L -15.0788,-1.25333 L -15,-0 L -15.0788,1.25333 L -15.3142,2.48689 L -15.7022,3.68124 L -16.2369,4.81754
 L -16.9098,5.87784 L -17.7103,6.84546 L -18.6257,7.70512 L -19.6417,8.44327 L -20.7422,9.04826 L -21.9098,9.51056
 L -23.1262,9.82286 L -24.3721,9.98026 z
M -0.627899,9.98026 L -1.87381,9.82286 L -3.09016,9.51056 L -4.25778,9.04826 L -5.35826,8.44327 L -6.37424,7.70512
 L -7.28967,6.84546 L -8.09016,5.87784 L -8.76306,4.81754 L -9.29776,3.68124 L -9.68582,2.48689 L -9.92114,1.25333
 L -10,-0 L -9.92114,-1.25333 L -9.68582,-2.48689 L -9.29776,-3.68124 L -8.76306,-4.81754 L -8.09016,-5.87784
 L -7.28967,-6.84546 L -6.37424,-7.70512 L -5.35826,-8.44327 L -4.25778,-9.04826 L -3.09016,-9.51056 L -1.87381,-9.82286
 L -0.627899,-9.98026 L 0.627899,-9.98026 L 1.87381,-9.82286 L 3.09016,-9.51056 L 4.25778,-9.04826 L 5.35826,-8.44327
 L 6.37424,-7.70512 L 7.28967,-6.84546 L 8.09016,-5.87784 L 8.76306,-4.81754 L 9.29776,-3.68124 L 9.68582,-2.48689
 L 9.92114,-1.25333 L 10,-0 L 9.92114,1.25333 L 9.68582,2.48689 L 9.29776,3.68124 L 8.76306,4.81754
 L 8.09016,5.87784 L 7.28967,6.84546 L 6.37424,7.70512 L 5.35826,8.44327 L 4.25778,9.04826 L 3.09016,9.51056
 L 1.87381,9.82286 L 0.627899,9.98026 z
" stroke="black" fill="lightgray" stroke-width="0.5"/>
</svg>
