<?xml version="1.0" standalone="no"?>
<!DOCTYPE svg PUBLIC "-//W3C//DTD SVG 1.1//EN" "http://www.w3.org/Graphics/SVG/1.1/DTD/svg11.dtd">
<svg width="194mm" height="44mm" viewBox="-97 -22 194 44" xmlns="http://www.w3.org/2000/svg" version="1.1">
<title>OpenSCAD Model</title>
<path d="
M 92.9369,21.9114 L 93.5451,21.7553 L 94.1289,21.5241 L 94.6791,21.2216 L 95.1871,20.8526 L 95.6448,20.4227
 L 96.0451,19.9389 L 96.3815,19.4088 L 96.6489,18.8406 L 96.8429,18.2434 L 96.9606,17.6267 L 97,17
 L 97,-17 L 96.9606,-17.6267 L 96.8429,-18.2434 L 96.6489,-18.8406 L 96.3815,-19.4088 L 96.0451,-19.9389
 L 95.6448,-20.4227 L 95.1871,-20.8526 L 94.6791,-21.2216 L 94.1289,-21.5241 L 93.5451,-21.7553 L 92.9369,-21.9114
 L 92.3139,-21.9901 L -92.3139,-21.9901 L -92.9369,-21.9114 L -93.5451,-21.7553 L -94.1289,-21.5241 L -94.6791,-21.2216
 L -95.1871,-20.8526 L -95.6448,-20.4227 L -96.0451,-19.9389 L -96.3815,-19.4088 L -96.6489,-18.8406 L -96.8429,-18.2434
 L -96.9606,-17.6267 L -97,-17 L -97,17 L -96.9606,17.6267 L -96.8429,18.2434 L -96.6489,18.8406
 L -96.3815,19.4088 L -96.0451,19.9389 L -95.6448,20.4227 L -95.1871,20.8526 L -94.6791,21.2216 L -94.1289,21.5241
 L -93.5451,21.7553 L -92.9369,21.9114 L -92.3139,21.9901 L 92.3139,21.9901 z
M -90.1884,-12.0059 L -90.5621,-12.0531 L -90.927,-12.1468 L -91.2773,-12.2855 L -91.6075,-12.467 L -91.9123,-12.6884
 L -92.1869,-12.9464 L -92.427,-13.2366 L -92.6289,-13.5547 L -92.7893,-13.8956 L -92.9057,-14.2539 L -92.9763,-14.624
 L -93,-15 L -92.9763,-15.376 L -92.9057,-15.7461 L -92.7893,-16.1044 L -92.6289,-16.4453 L -92.427,-16.7634
 L -92.1869,-17.0536 L -91.9123,-17.3115 L -91.6075,-17.533 L -91.2773,-17.7145 L -90.927,-17.8532 L -90.5621,-17.9469
 L -90.1884,-17.9941 L -89.8116,-17.9941 L -89.4379,-17.9469 L -89.073,-17.8532 L -88.7227,-17.7145 L -88.3925,-17.533
 L -88.0877,-17.3115 L -87.8131,-17.0536 L -87.573,-16.7634 L -87.3711,-16.4453 L -87.2107,-16.1044 L -87.0943,-15.7461
 L -87.0237,-15.376 L -87,-15 L -87.0237,-14.624 L -87.0943,-14.2539 L -87.2107,-13.8956 L -87.3711,-13.5547
 L -87.573,-13.2366 L -87.8131,-12.9464 L -88.0877,-12.6884 L -88.3925,-12.467 L -88.7227,-12.2855 L -89.073,-12.1468
 L -89.4379,-12.0531 L -89.8116,-12.0059 z
M 89.8116,-12.0059 L 89.4379,-12.0531 L 89.073,-12.1468 L 88.7227,-12.2855 L 88.3925,-12.467 L 88.0877,-12.6884
 L 87.8131,-12.9464 L 87.573,-13.2366 L 87.3711,-13.5547 L 87.2107,-13.8956 L 87.0943,-14.2539 L 87.0237,-14.624
 L 87,-15 L 87.0237,-15.376 L 87.0943,-15.7461 L 87.2107,-16.1044 L 87.3711,-16.4453 L 87.573,-16.7634
 L 87.8131,-17.0536 L 88.0877,-17.3115 L 88.3925,-17.533 L 88.7227,-17.7145 L 89.073,-17.8532 L 89.4379,-17.9469
 L 89.8116,-17.9941 L 90.1884,-17.9941 L 90.5621,-17.9469 L 90.927,-17.8532 L 91.2773,-17.7145 L 91.6075,-17.533
 L 91.9123,-17.3115 L 92.1869,-17.0536 L 92.427,-16.7634 L 92.6289,-16.4453 L 92.7893,-16.1044 L 92.9057,-15.7461
 L 92.9763,-15.376 L 93,-15 L 92.9763,-14.624 L 92.9057,-14.2539 L 92.7893,-13.8956 L 92.6289,-13.5547
 L 92.427,-13.2366 L 92.1869,-12.9464 L 91.9123,-12.6884 L 91.6075,-12.467 L 91.2773,-12.2855 L 90.927,-12.1468
 L 90.5621,-12.0531 L 90.1884,-12.0059 z
M 60.3698,17.9645 L 58.1271,17.6812 L 55.9377,17.119 L 53.836,16.2869 L 51.8551,15.1979 L 50.0264,13.8692
 L 48.3786,12.3218 L 46.9377,10.5801 L 45.7265,8.67155 L 44.764,6.62624 L 44.0655,4.47641 L 43.6419,2.256
 L 43.5,-0 L 43.6419,-2.256 L 44.0655,-4.47641 L 44.764,-6.62624 L 45.7265,-8.67155 L 46.9377,-10.5801
 L 48.3786,-12.3218 L 50.0264,-13.8692 L 51.8551,-15.1979 L 53.836,-16.2869 L 55.9377,-17.119 L 58.1271,-17.6812
 L 60.3698,-17.9645 L 62.6302,-17.9645 L 64.8729,-17.6812 L 67.0623,-17.119 L 69.164,-16.2869 L 71.1449,-15.1979
 L 72.9736,-13.8692 L 74.6214,-12.3218 L 76.0623,-10.5801 L 77.2735,-8.67155 L 78.236,-6.62624 L 78.9345,-4.47641
 L 79.3581,-2.256 L 79.5,-0 L 79.3581,2.256 L 78.9345,4.47641 L 78.236,6.62624 L 77.2735,8.67155
 L 76.0623,10.5801 L 74.6214,12.3218 L 72.9736,13.8692 L 71.1449,15.1979 L 69.164,16.2869 L 67.0623,17.119
 L 64.8729,17.6812 L 62.6302,17.9645 z
M -21.6302,17.9645 L -23.8729,17.6812 L -26.0623,17.119 L -28.164,16.2869 L -30.1449,15.1979 L -31.9736,13.8692
 L -33.6214,12.3218 L -35.0623,10.5801 L -36.2735,8.67155 L -37.236,6.62624 L -37.9345,4.47641 L -38.3581,2.256
 L -38.5,-0 L -38.3581,-2.256 L -37.9345,-4.47641 L -37.236,-6.62624 L -36.2735,-8.67155 L -35.0623,-10.5801
 L -33.6214,-12.3218 L -31.9736,-13.8692 L -30.1449,-15.1979 L -28.164,-16.2869 L -26.0623,-17.119 L -23.8729,-17.6812
 L -21.6302,-17.9645 L -19.3698,-17.9645 L -17.1271,-17.6812 L -14.9377,-17.119 L -12.836,-16.2869 L -10.8551,-15.1979
 L -9.02637,-13.8692 L -7.37856,-12.3218 L -5.93768,-10.5801 L -4.72647,-8.67155 L -3.76402,-6.62624 L -3.06549,-4.47641
 L -2.64192,-2.256 L -2.5,-0 L -2.64192,2.256 L -3.06549,4.47641 L -3.76402,6.62624 L -4.72647,8.67155
 L -5.93768,10.5801 L -7.37856,12.3218 L -9.02637,13.8692 L -10.8551,15.1979 L -12.836,16.2869 L -14.9377,17.119
 L -17.1271,17.6812 L -19.3698,17.9645 z
M -62.6302,17.9645 L -64.8729,17.6812 L -67.0623,17.119 L -69.164,16.2869 L -71.1449,15.1979 L -72.9736,13.8692
 L -74.6214,12.3218 L -76.0623,10.5801 L -77.2735,8.67155 L -78.236,6.62624 L -78.9345,4.47641 L -79.3581,2.256
 L -79.5,-0 L -79.3581,-2.256 L -78.9345,-4.47641 L -78.236,-6.62624 L -77.2735,-8.67155 L -76.0623,-10.5801
 L -74.6214,-12.3218 L -72.9736,-13.8692 L -71.1449,-15.1979 L -69.164,-16.2869 L -67.0623,-17.119 L -64.8729,-17.6812
 L -62.6302,-17.9645 L -60.3698,-17.9645 L -58.1271,-17.6812 L -55.9377,-17.119 L -53.836,-16.2869 L -51.8551,-15.1979
 L -50.0264,-13.8692 L -48.3786,-12.3218 L -46.9377,-10.5801 L -45.7265,-8.67155 L -44.764,-6.62624 L -44.0655,-4.47641
 L -43.6419,-2.256 L -43.5,-0 L -43.6419,2.256 L -44.0655,4.47641 L -44.764,6.62624 L -45.7265,8.67155
 L -46.9377,10.5801 L -48.3786,12.3218 L -50.0264,13.8692 L -51.8551,15.1979 L -53.836,16.2869 L -55.9377,17.119
 L -58.1271,17.6812 L -60.3698,17.9645 z
M 19.3698,17.9645 L 17.1271,17.6812 L 14.9377,17.119 L 12.836,16.2869 L 10.8551,15.1979 L 9.02637,13.8692
 L 7.37856,12.3218 L 5.93768,10.5801 L 4.72647,8.67155 L 3.76402,6.62624 L 3.06549,4.47641 L 2.64192,2.256
 L 2.5,-0 L 2.64192,-2.256 L 3.06549,-4.47641 L 3.76402,-6.62624 L 4.72647,-8.67155 L 5.93768,-10.5801
 L 7.37856,-12.3218 L 9.02637,-13.8692 L 10.8551,-15.1979 L 12.836,-16.2869 L 14.9377,-17.119 L 17.1271,-17.6812
 L 19.3698,-17.9645 L 21.6302,-17.9645 L 23.8729,-17.6812 L 26.0623,-17.119 L 28.164,-16.2869 L 30.1449,-15.1979
 L 31.9736,-13.8692 L 33.6214,-12.3218 L 35.0623,-10.5801 L 36.2735,-8.67155 L 37.236,-6.62624 L 37.9345,-4.47641
 L 38.3581,-2.256 L 38.5,-0 L 38.3581,2.256 L 37.9345,4.47641 L 37.236,6.62624 L 36.2735,8.67155
 L 35.0623,10.5801 L 33.6214,12.3218 L 31.9736,13.8692 L 30.1449,15.1979 L 28.164,16.2869 L 26.0623,17.119
 L 23.8729,17.6812 L 21.6302,17.9645 z
M -90.0942,-6.00294 L -90.2811,-6.02657 L -90.4635,-6.07341 L -90.6387,-6.14275 L -90.8037,-6.23351 L -90.9561,-6.34422
 L -91.0934,-6.47318 L -91.2135,-6.61832 L -91.3145,-6.77736 L -91.3947,-6.9478 L -91.4529,-7.12695 L -91.4882,-7.312
 L -91.5,-7.5 L -91.4882,-7.68799 L -91.4529,-7.87303 L -91.3947,-8.05219 L -91.3145,-8.22263 L -91.2135,-8.38167
 L -91.0934,-8.52681 L -90.9561,-8.65576 L -90.8037,-8.76648 L -90.6387,-8.85724 L -90.4635,-8.92657 L -90.2811,-8.97342
 L -90.0942,-8.99704 L -89.9058,-8.99704 L -89.7189,-8.97342 L -89.5365,-8.92657 L -89.3613,-8.85724 L -89.1963,-8.76648
 L -89.0439,-8.65576 L -88.9065,-8.52681 L -88.7865,-8.38167 L -88.6855,-8.22263 L -88.6053,-8.05219 L -88.5471,-7.87303
 L -88.5118,-7.68799 L -88.5,-7.5 L -88.5118,-7.312 L -88.5471,-7.12695 L -88.6053,-6.9478 L -88.6855,-6.77736
 L -88.7865,-6.61832 L -88.9065,-6.47318 L -89.0439,-6.34422 L -89.1963,-6.23351 L -89.3613,-6.14275 L -89.5365,-6.07341
 L -89.7189,-6.02657 L -89.9058,-6.00294 z
M 89.9058,-6.00294 L 89.7189,-6.02657 L 89.5365,-6.07341 L 89.3613,-6.14275 L 89.1963,-6.23351 L 89.0439,-6.34422
 L 88.9065,-6.47318 L 88.7865,-6.61832 L 88.6855,-6.77736 L 88.6053,-6.9478 L 88.5471,-7.12695 L 88.5118,-7.312
 L 88.5,-7.5 L 88.5118,-7.68799 L 88.5471,-7.87303 L 88.6053,-8.05219 L 88.6855,-8.22263 L 88.7865,-8.38167
 L 88.9065,-8.52681 L 89.0439,-8.65576 L 89.1963,-8.76648 L 89.3613,-8.85724 L 89.5365,-8.92657 L 89.7189,-8.97342
 L 89.9058,-8.99704 L 90.0942,-8.99704 L 90.2811,-8.97342 L 90.4635,-8.92657 L 90.6387,-8.85724 L 90.8037,-8.76648
 L 90.9561,-8.65576 L 91.0934,-8.52681 L 91.2135,-8.38167 L 91.3145,-8.22263 L 91.3947,-8.05219 L 91.4529,-7.87303
 L 91.4882,-7.68799 L 91.5,-7.5 L 91.4882,-7.312 L 91.4529,-7.12695 L 91.3947,-6.9478 L 91.3145,-6.77736
 L 91.2135,-6.61832 L 91.0934,-6.47318 L 90.9561,-6.34422 L 90.8037,-6.23351 L 90.6387,-6.14275 L 90.4635,-6.07341
 L 90.2811,-6.02657 L 90.0942,-6.00294 z
M 89.8116,2.99408 L 89.4379,2.94685 L 89.073,2.85316 L 88.7227,2.71448 L 88.3925,2.53297 L 88.0877,2.31154
 L 87.8131,2.05363 L 87.573,1.76335 L 87.3711,1.44525 L 87.2107,1.10437 L 87.0943,0.746063 L 87.0237,0.375992
 L 87,-0 L 87.0237,-0.375992 L 87.0943,-0.746063 L 87.2107,-1.10437 L 87.3711,-1.44525 L 87.573,-1.76335
 L 87.8131,-2.05363 L 88.0877,-2.31154 L 88.3925,-2.53297 L 88.7227,-2.71448 L 89.073,-2.85316 L 89.4379,-2.94685
 L 89.8116,-2.99408 L 90.1884,-2.99408 L 90.5621,-2.94685 L 90.927,-2.85316 L 91.2773,-2.71448 L 91.6075,-2.53297
 L 91.9123,-2.31154 L 92.1869,-2.05363 L 92.427,-1.76335 L 92.6289,-1.44525 L 92.7893,-1.10437 L 92.9057,-0.746063
 L 92.9763,-0.375992 L 93,-0 L 92.9763,0.375992 L 92.9057,0.746063 L 92.7893,1.10437 L 92.6289,1.44525
 L 92.427,1.76335 L 92.1869,2.05363 L 91.9123,2.31154 L 91.6075,2.53297 L 91.2773,2.71448 L 90.927,2.85316
 L 90.5621,2.94685 L 90.1884,2.99408 z
M -90.1884,2.99408 L -90.5621,2.94685 L -90.927,2.85316 L -91.2773,2.71448 L -91.6075,2.53297 L -91.9123,2.31154
 L -92.1869,2.05363 L -92.427,1.76335 L -92.6289,1.44525 L -92.7893,1.10437 L -92.9057,0.746063 L -92.9763,0.375992
 L -93,-0 L -92.9763,-0.375992 L -92.9057,-0.746063 L -92.7893,-1.10437 L -92.6289,-1.44525 L -92.427,-1.76335
 L -92.1869,-2.05363 L -91.9123,-2.31154 L -91.6075,-2.53297 L -91.2773,-2.71448 L -90.927,-2.85316 L -90.5621,-2.94685
 L -90.1884,-2.99408 L -89.8116,-2.99408 L -89.4379,-2.94685 L -89.073,-2.85316 L -88.7227,-2.71448 L -88.3925,-2.53297
 L -88.0877,-2.31154 L -87.8131,-2.05363 L -87.573,-1.76335 L -87.3711,-1.44525 L -87.2107,-1.10437 L -87.0943,-0.746063
 L -87.0237,-0.375992 L -87,-0 L -87.0237,0.375992 L -87.0943,0.746063 L -87.2107,1.10437 L -87.3711,1.44525
 L -87.573,1.76335 L -87.8131,2.05363 L -88.0877,2.31154 L -88.3925,2.53297 L -88.7227,2.71448 L -89.073,2.85316
 L -89.4379,2.94685 L -89.8116,2.99408 z
M -90.0942,8.99704 L -90.2811,8.97342 L -90.4635,8.92657 L -90.6387,8.85724 L -90.8037,8.76648 L -90.9561,8.65576
 L -91.0934,8.52681 L -91.2135,8.38167 L -91.3145,8.22263 L -91.3947,8.05219 L -91.4529,7.87303 L -91.4882,7.68799
 L -91.5,7.5 L -91.4882,7.312 L -91.4529,7.12695 L -91.3947,6.9478 L -91.3145,6.77736 L -91.2135,6.61832
 L -91.0934,6.47318 L -90.9561,6.34422 L -90.8037,6.23351 L -90.6387,6.14275 L -90.4635,6.07341 L -90.2811,6.02657
 L -90.0942,6.00294 L -89.9058,6.00294 L -89.7189,6.02657 L -89.5365,6.07341 L -89.3613,6.14275 L -89.1963,6.23351
 L -89.0439,6.34422 L -88.9065,6.47318 L -88.7865,6.61832 L -88.6855,6.77736 L -88.6053,6.9478 L -88.5471,7.12695
 L -88.5118,7.312 L -88.5,7.5 L -88.5118,7.68799 L -88.5471,7.87303 L -88.6053,8.05219 L -88.6855,8.22263
 L -88.7865,8.38167 L -88.9065,8.52681 L -89.0439,8.65576 L -89.1963,8.76648 L -89.3613,8.85724 L -89.5365,8.92657
 L -89.7189,8.97342 L -89.9058,8.99704 z
M 89.9058,8.99704 L 89.7189,8.97342 L 89.5365,8.92657 L 89.3613,8.85724 L 89.1963,8.76648 L 89.0439,8.65576
 L 88.9065,8.52681 L 88.7865,8.38167 L 88.6855,8.22263 L 88.6053,8.05219 L 88.5471,7.87303 L 88.5118,7.68799
 L 88.5,7.5 L 88.5118,7.312 L 88.5471,7.12695 L 88.6053,6.9478 L 88.6855,6.77736 L 88.7865,6.61832
 L 88.9065,6.47318 L 89.0439,6.34422 L 89.1963,6.23351 L 89.3613,6.14275 L 89.5365,6.07341 L 89.7189,6.02657
 L 89.9058,6.00294 L 90.0942,6.00294 L 90.2811,6.02657 L 90.4635,6.07341 L 90.6387,6.14275 L 90.8037,6.23351
 L 90.9561,6.34422 L 91.0934,6.47318 L 91.2135,6.61832 L 91.3145,6.77736 L 91.3947,6.9478 L 91.4529,7.12695
 L 91.4882,7.312 L 91.5,7.5 L 91.4882,7.68799 L 91.4529,7.87303 L 91.3947,8.05219 L 91.3145,8.22263
 L 91.2135,8.38167 L 91.0934,8.52681 L 90.9561,8.65576 L 90.8037,8.76648 L 90.6387,8.85724 L 90.4635,8.92657
 L 90.2811,8.97342 L 90.0942,8.99704 z
M -90.1884,17.9941 L -90.5621,17.9469 L -90.927,17.8532 L -91.2773,17.7145 L -91.6075,17.533 L -91.9123,17.3115
 L -92.1869,17.0536 L -92.427,16.7634 L -92.6289,16.4453 L -92.7893,16.1044 L -92.9057,15.7461 L -92.9763,15.376
 L -93,15 L -92.9763,14.624 L -92.9057,14.2539 L -92.7893,13.8956 L -92.6289,13.5547 L -92.427,13.2366
 L -92.1869,12.9464 L -91.9123,12.6884 L -91.6075,12.467 L -91.2773,12.2855 L -90.927,12.1468 L -90.5621,12.0531
 L -90.1884,12.0059 L -89.8116,12.0059 L -89.4379,12.0531 L -89.073,12.1468 L -88.7227,12.2855 L -88.3925,12.467
 L -88.0877,12.6884 L -87.8131,12.9464 L -87.573,13.2366 L -87.3711,13.5547 L -87.2107,13.8956 L -87.0943,14.2539
 L -87.0237,14.624 L -87,15 L -87.0237,15.376 L -87.0943,15.7461 L -87.2107,16.1044 L -87.3711,16.4453
 L -87.573,16.7634 L -87.8131,17.0536 L -88.0877,17.3115 L -88.3925,17.533 L -88.7227,17.7145 L -89.073,17.8532
 L -89.4379,17.9469 L -89.8116,17.9941 z
M 89.8116,17.9941 L 89.4379,17.9469 L 89.073,17.8532 L 88.7227,17.7145 L 88.3925,17.533 L 88.0877,17.3115
 L 87.8131,17.0536 L 87.573,16.7634 L 87.3711,16.4453 L 87.2107,16.1044 L 87.0943,15.7461 L 87.0237,15.376
 L 87,15 L 87.0237,14.624 L 87.0943,14.2539 L 87.2107,13.8956 L 87.3711,13.5547 L 87.573,13.2366
 L 87.8131,12.9464 L 88.0877,12.6884 L 88.3925,12.467 L 88.7227,12.2855 L 89.073,12.1468 L 89.4379,12.0531
 L 89.8116,12.0059 L 90.1884,12.0059 L 90.5621,12.0531 L 90.927,12.1468 L 91.2773,12.2855 L 91.6075,12.467
 L 91.9123,12.6884 L 92.1869,12.9464 L 92.427,13.2366 L 92.6289,13.5547 L 92.7893,13.8956 L 92.9057,14.2539
 L 92.9763,14.624 L 93,15 L 92.9763,15.376 L 92.9057,15.7461 L 92.7893,16.1044 L 92.6289,16.4453
 L 92.427,16.7634 L 92.1869,17.0536 L 91.9123,17.3115 L 91.6075,17.533 L 91.2773,17.7145 L 90.927,17.8532
 L 90.5621,17.9469 L 90.1884,17.9941 z
" stroke="black" fill="lightgray" stroke-width="0.5"/>
</svg>
