  0
SECTION
  2
BLOCKS
  0
ENDSEC
  0
SECTION
  2
ENTITIES
  0
LINE
  8
0
 10
47.9369
 20
-21.9114
 11
48.5451
 21
-21.7553
  0
LINE
  8
0
 10
48.5451
 20
-21.7553
 11
49.1289
 21
-21.5241
  0
LINE
  8
0
 10
49.1289
 20
-21.5241
 11
49.6791
 21
-21.2216
  0
LINE
  8
0
 10
49.6791
 20
-21.2216
 11
50.1871
 21
-20.8526
  0
LINE
  8
0
 10
50.1871
 20
-20.8526
 11
50.6448
 21
-20.4227
  0
LINE
  8
0
 10
50.6448
 20
-20.4227
 11
51.0451
 21
-19.9389
  0
LINE
  8
0
 10
51.0451
 20
-19.9389
 11
51.3815
 21
-19.4088
  0
LINE
  8
0
 10
51.3815
 20
-19.4088
 11
51.6489
 21
-18.8406
  0
LINE
  8
0
 10
51.6489
 20
-18.8406
 11
51.8429
 21
-18.2434
  0
LINE
  8
0
 10
51.8429
 20
-18.2434
 11
51.9606
 21
-17.6267
  0
LINE
  8
0
 10
51.9606
 20
-17.6267
 11
52
 21
-17
  0
LINE
  8
0
 10
52
 20
-17
 11
52
 21
17
  0
LINE
  8
0
 10
52
 20
17
 11
51.9606
 21
17.6267
  0
LINE
  8
0
 10
51.9606
 20
17.6267
 11
51.8429
 21
18.2434
  0
LINE
  8
0
 10
51.8429
 20
18.2434
 11
51.6489
 21
18.8406
  0
LINE
  8
0
 10
51.6489
 20
18.8406
 11
51.3815
 21
19.4088
  0
LINE
  8
0
 10
51.3815
 20
19.4088
 11
51.0451
 21
19.9389
  0
LINE
  8
0
 10
51.0451
 20
19.9389
 11
50.6448
 21
20.4227
  0
LINE
  8
0
 10
50.6448
 20
20.4227
 11
50.1871
 21
20.8526
  0
LINE
  8
0
 10
50.1871
 20
20.8526
 11
49.6791
 21
21.2216
  0
LINE
  8
0
 10
49.6791
 20
21.2216
 11
49.1289
 21
21.5241
  0
LINE
  8
0
 10
49.1289
 20
21.5241
 11
48.5451
 21
21.7553
  0
LINE
  8
0
 10
48.5451
 20
21.7553
 11
47.9369
 21
21.9114
  0
LINE
  8
0
 10
47.9369
 20
21.9114
 11
47.3139
 21
21.9901
  0
LINE
  8
0
 10
47.3139
 20
21.9901
 11
-47.3139
 21
21.9901
  0
LINE
  8
0
 10
-47.3139
 20
21.9901
 11
-47.9369
 21
21.9114
  0
LINE
  8
0
 10
-47.9369
 20
21.9114
 11
-48.5451
 21
21.7553
  0
LINE
  8
0
 10
-48.5451
 20
21.7553
 11
-49.1289
 21
21.5241
  0
LINE
  8
0
 10
-49.1289
 20
21.5241
 11
-49.6791
 21
21.2216
  0
LINE
  8
0
 10
-49.6791
 20
21.2216
 11
-50.1871
 21
20.8526
  0
LINE
  8
0
 10
-50.1871
 20
20.8526
 11
-50.6448
 21
20.4227
  0
LINE
  8
0
 10
-50.6448
 20
20.4227
 11
-51.0451
 21
19.9389
  0
LINE
  8
0
 10
-51.0451
 20
19.9389
 11
-51.3815
 21
19.4088
  0
LINE
  8
0
 10
-51.3815
 20
19.4088
 11
-51.6489
 21
18.8406
  0
LINE
  8
0
 10
-51.6489
 20
18.8406
 11
-51.8429
 21
18.2434
  0
LINE
  8
0
 10
-51.8429
 20
18.2434
 11
-51.9606
 21
17.6267
  0
LINE
  8
0
 10
-51.9606
 20
17.6267
 11
-52
 21
17
  0
LINE
  8
0
 10
-52
 20
17
 11
-52
 21
-17
  0
LINE
  8
0
 10
-52
 20
-17
 11
-51.9606
 21
-17.6267
  0
LINE
  8
0
 10
-51.9606
 20
-17.6267
 11
-51.8429
 21
-18.2434
  0
LINE
  8
0
 10
-51.8429
 20
-18.2434
 11
-51.6489
 21
-18.8406
  0
LINE
  8
0
 10
-51.6489
 20
-18.8406
 11
-51.3815
 21
-19.4088
  0
LINE
  8
0
 10
-51.3815
 20
-19.4088
 11
-51.0451
 21
-19.9389
  0
LINE
  8
0
 10
-51.0451
 20
-19.9389
 11
-50.6448
 21
-20.4227
  0
LINE
  8
0
 10
-50.6448
 20
-20.4227
 11
-50.1871
 21
-20.8526
  0
LINE
  8
0
 10
-50.1871
 20
-20.8526
 11
-49.6791
 21
-21.2216
  0
LINE
  8
0
 10
-49.6791
 20
-21.2216
 11
-49.1289
 21
-21.5241
  0
LINE
  8
0
 10
-49.1289
 20
-21.5241
 11
-48.5451
 21
-21.7553
  0
LINE
  8
0
 10
-48.5451
 20
-21.7553
 11
-47.9369
 21
-21.9114
  0
LINE
  8
0
 10
-47.9369
 20
-21.9114
 11
-47.3139
 21
-21.9901
  0
LINE
  8
0
 10
-47.3139
 20
-21.9901
 11
47.3139
 21
-21.9901
  0
LINE
  8
0
 10
47.3139
 20
-21.9901
 11
47.9369
 21
-21.9114
  0
LINE
  8
0
 10
-45.1884
 20
12.0059
 11
-45.5621
 21
12.0531
  0
LINE
  8
0
 10
-45.5621
 20
12.0531
 11
-45.927
 21
12.1468
  0
LINE
  8
0
 10
-45.927
 20
12.1468
 11
-46.2773
 21
12.2855
  0
LINE
  8
0
 10
-46.2773
 20
12.2855
 11
-46.6075
 21
12.467
  0
LINE
  8
0
 10
-46.6075
 20
12.467
 11
-46.9123
 21
12.6884
  0
LINE
  8
0
 10
-46.9123
 20
12.6884
 11
-47.1869
 21
12.9464
  0
LINE
  8
0
 10
-47.1869
 20
12.9464
 11
-47.427
 21
13.2366
  0
LINE
  8
0
 10
-47.427
 20
13.2366
 11
-47.6289
 21
13.5547
  0
LINE
  8
0
 10
-47.6289
 20
13.5547
 11
-47.7893
 21
13.8956
  0
LINE
  8
0
 10
-47.7893
 20
13.8956
 11
-47.9057
 21
14.2539
  0
LINE
  8
0
 10
-47.9057
 20
14.2539
 11
-47.9763
 21
14.624
  0
LINE
  8
0
 10
-47.9763
 20
14.624
 11
-48
 21
15
  0
LINE
  8
0
 10
-48
 20
15
 11
-47.9763
 21
15.376
  0
LINE
  8
0
 10
-47.9763
 20
15.376
 11
-47.9057
 21
15.7461
  0
LINE
  8
0
 10
-47.9057
 20
15.7461
 11
-47.7893
 21
16.1044
  0
LINE
  8
0
 10
-47.7893
 20
16.1044
 11
-47.6289
 21
16.4453
  0
LINE
  8
0
 10
-47.6289
 20
16.4453
 11
-47.427
 21
16.7634
  0
LINE
  8
0
 10
-47.427
 20
16.7634
 11
-47.1869
 21
17.0536
  0
LINE
  8
0
 10
-47.1869
 20
17.0536
 11
-46.9123
 21
17.3115
  0
LINE
  8
0
 10
-46.9123
 20
17.3115
 11
-46.6075
 21
17.533
  0
LINE
  8
0
 10
-46.6075
 20
17.533
 11
-46.2773
 21
17.7145
  0
LINE
  8
0
 10
-46.2773
 20
17.7145
 11
-45.927
 21
17.8532
  0
LINE
  8
0
 10
-45.927
 20
17.8532
 11
-45.5621
 21
17.9469
  0
LINE
  8
0
 10
-45.5621
 20
17.9469
 11
-45.1884
 21
17.9941
  0
LINE
  8
0
 10
-45.1884
 20
17.9941
 11
-44.8116
 21
17.9941
  0
LINE
  8
0
 10
-44.8116
 20
17.9941
 11
-44.4379
 21
17.9469
  0
LINE
  8
0
 10
-44.4379
 20
17.9469
 11
-44.0729
 21
17.8532
  0
LINE
  8
0
 10
-44.0729
 20
17.8532
 11
-43.7227
 21
17.7145
  0
LINE
  8
0
 10
-43.7227
 20
17.7145
 11
-43.3925
 21
17.533
  0
LINE
  8
0
 10
-43.3925
 20
17.533
 11
-43.0877
 21
17.3115
  0
LINE
  8
0
 10
-43.0877
 20
17.3115
 11
-42.8131
 21
17.0536
  0
LINE
  8
0
 10
-42.8131
 20
17.0536
 11
-42.5729
 21
16.7634
  0
LINE
  8
0
 10
-42.5729
 20
16.7634
 11
-42.3711
 21
16.4453
  0
LINE
  8
0
 10
-42.3711
 20
16.4453
 11
-42.2107
 21
16.1044
  0
LINE
  8
0
 10
-42.2107
 20
16.1044
 11
-42.0942
 21
15.7461
  0
LINE
  8
0
 10
-42.0942
 20
15.7461
 11
-42.0237
 21
15.376
  0
LINE
  8
0
 10
-42.0237
 20
15.376
 11
-42
 21
15
  0
LINE
  8
0
 10
-42
 20
15
 11
-42.0237
 21
14.624
  0
LINE
  8
0
 10
-42.0237
 20
14.624
 11
-42.0942
 21
14.2539
  0
LINE
  8
0
 10
-42.0942
 20
14.2539
 11
-42.2107
 21
13.8956
  0
LINE
  8
0
 10
-42.2107
 20
13.8956
 11
-42.3711
 21
13.5547
  0
LINE
  8
0
 10
-42.3711
 20
13.5547
 11
-42.5729
 21
13.2366
  0
LINE
  8
0
 10
-42.5729
 20
13.2366
 11
-42.8131
 21
12.9464
  0
LINE
  8
0
 10
-42.8131
 20
12.9464
 11
-43.0877
 21
12.6884
  0
LINE
  8
0
 10
-43.0877
 20
12.6884
 11
-43.3925
 21
12.467
  0
LINE
  8
0
 10
-43.3925
 20
12.467
 11
-43.7227
 21
12.2855
  0
LINE
  8
0
 10
-43.7227
 20
12.2855
 11
-44.0729
 21
12.1468
  0
LINE
  8
0
 10
-44.0729
 20
12.1468
 11
-44.4379
 21
12.0531
  0
LINE
  8
0
 10
-44.4379
 20
12.0531
 11
-44.8116
 21
12.0059
  0
LINE
  8
0
 10
-44.8116
 20
12.0059
 11
-45.1884
 21
12.0059
  0
LINE
  8
0
 10
44.8116
 20
12.0059
 11
44.4379
 21
12.0531
  0
LINE
  8
0
 10
44.4379
 20
12.0531
 11
44.0729
 21
12.1468
  0
LINE
  8
0
 10
44.0729
 20
12.1468
 11
43.7227
 21
12.2855
  0
LINE
  8
0
 10
43.7227
 20
12.2855
 11
43.3925
 21
12.467
  0
LINE
  8
0
 10
43.3925
 20
12.467
 11
43.0877
 21
12.6884
  0
LINE
  8
0
 10
43.0877
 20
12.6884
 11
42.8131
 21
12.9464
  0
LINE
  8
0
 10
42.8131
 20
12.9464
 11
42.5729
 21
13.2366
  0
LINE
  8
0
 10
42.5729
 20
13.2366
 11
42.3711
 21
13.5547
  0
LINE
  8
0
 10
42.3711
 20
13.5547
 11
42.2107
 21
13.8956
  0
LINE
  8
0
 10
42.2107
 20
13.8956
 11
42.0942
 21
14.2539
  0
LINE
  8
0
 10
42.0942
 20
14.2539
 11
42.0237
 21
14.624
  0
LINE
  8
0
 10
42.0237
 20
14.624
 11
42
 21
15
  0
LINE
  8
0
 10
42
 20
15
 11
42.0237
 21
15.376
  0
LINE
  8
0
 10
42.0237
 20
15.376
 11
42.0942
 21
15.7461
  0
LINE
  8
0
 10
42.0942
 20
15.7461
 11
42.2107
 21
16.1044
  0
LINE
  8
0
 10
42.2107
 20
16.1044
 11
42.3711
 21
16.4453
  0
LINE
  8
0
 10
42.3711
 20
16.4453
 11
42.5729
 21
16.7634
  0
LINE
  8
0
 10
42.5729
 20
16.7634
 11
42.8131
 21
17.0536
  0
LINE
  8
0
 10
42.8131
 20
17.0536
 11
43.0877
 21
17.3115
  0
LINE
  8
0
 10
43.0877
 20
17.3115
 11
43.3925
 21
17.533
  0
LINE
  8
0
 10
43.3925
 20
17.533
 11
43.7227
 21
17.7145
  0
LINE
  8
0
 10
43.7227
 20
17.7145
 11
44.0729
 21
17.8532
  0
LINE
  8
0
 10
44.0729
 20
17.8532
 11
44.4379
 21
17.9469
  0
LINE
  8
0
 10
44.4379
 20
17.9469
 11
44.8116
 21
17.9941
  0
LINE
  8
0
 10
44.8116
 20
17.9941
 11
45.1884
 21
17.9941
  0
LINE
  8
0
 10
45.1884
 20
17.9941
 11
45.5621
 21
17.9469
  0
LINE
  8
0
 10
45.5621
 20
17.9469
 11
45.927
 21
17.8532
  0
LINE
  8
0
 10
45.927
 20
17.8532
 11
46.2773
 21
17.7145
  0
LINE
  8
0
 10
46.2773
 20
17.7145
 11
46.6075
 21
17.533
  0
LINE
  8
0
 10
46.6075
 20
17.533
 11
46.9123
 21
17.3115
  0
LINE
  8
0
 10
46.9123
 20
17.3115
 11
47.1869
 21
17.0536
  0
LINE
  8
0
 10
47.1869
 20
17.0536
 11
47.427
 21
16.7634
  0
LINE
  8
0
 10
47.427
 20
16.7634
 11
47.6289
 21
16.4453
  0
LINE
  8
0
 10
47.6289
 20
16.4453
 11
47.7893
 21
16.1044
  0
LINE
  8
0
 10
47.7893
 20
16.1044
 11
47.9057
 21
15.7461
  0
LINE
  8
0
 10
47.9057
 20
15.7461
 11
47.9763
 21
15.376
  0
LINE
  8
0
 10
47.9763
 20
15.376
 11
48
 21
15
  0
LINE
  8
0
 10
48
 20
15
 11
47.9763
 21
14.624
  0
LINE
  8
0
 10
47.9763
 20
14.624
 11
47.9057
 21
14.2539
  0
LINE
  8
0
 10
47.9057
 20
14.2539
 11
47.7893
 21
13.8956
  0
LINE
  8
0
 10
47.7893
 20
13.8956
 11
47.6289
 21
13.5547
  0
LINE
  8
0
 10
47.6289
 20
13.5547
 11
47.427
 21
13.2366
  0
LINE
  8
0
 10
47.427
 20
13.2366
 11
47.1869
 21
12.9464
  0
LINE
  8
0
 10
47.1869
 20
12.9464
 11
46.9123
 21
12.6884
  0
LINE
  8
0
 10
46.9123
 20
12.6884
 11
46.6075
 21
12.467
  0
LINE
  8
0
 10
46.6075
 20
12.467
 11
46.2773
 21
12.2855
  0
LINE
  8
0
 10
46.2773
 20
12.2855
 11
45.927
 21
12.1468
  0
LINE
  8
0
 10
45.927
 20
12.1468
 11
45.5621
 21
12.0531
  0
LINE
  8
0
 10
45.5621
 20
12.0531
 11
45.1884
 21
12.0059
  0
LINE
  8
0
 10
45.1884
 20
12.0059
 11
44.8116
 21
12.0059
  0
LINE
  8
0
 10
17.4953
 20
-15.9684
 11
15.5019
 21
-15.7166
  0
LINE
  8
0
 10
15.5019
 20
-15.7166
 11
13.5557
 21
-15.2169
  0
LINE
  8
0
 10
13.5557
 20
-15.2169
 11
11.6875
 21
-14.4772
  0
LINE
  8
0
 10
11.6875
 20
-14.4772
 11
9.92676
 21
-13.5092
  0
LINE
  8
0
 10
9.92676
 20
-13.5092
 11
8.30121
 21
-12.3282
  0
LINE
  8
0
 10
8.30121
 20
-12.3282
 11
6.83649
 21
-10.9527
  0
LINE
  8
0
 10
6.83649
 20
-10.9527
 11
5.55573
 21
-9.40456
  0
LINE
  8
0
 10
5.55573
 20
-9.40456
 11
4.47908
 21
-7.70805
  0
LINE
  8
0
 10
4.47908
 20
-7.70805
 11
3.62357
 21
-5.88998
  0
LINE
  8
0
 10
3.62357
 20
-5.88998
 11
3.00266
 21
-3.97903
  0
LINE
  8
0
 10
3.00266
 20
-3.97903
 11
2.62616
 21
-2.00533
  0
LINE
  8
0
 10
2.62616
 20
-2.00533
 11
2.5
 21
0
  0
LINE
  8
0
 10
2.5
 20
0
 11
2.62616
 21
2.00533
  0
LINE
  8
0
 10
2.62616
 20
2.00533
 11
3.00266
 21
3.97903
  0
LINE
  8
0
 10
3.00266
 20
3.97903
 11
3.62357
 21
5.88998
  0
LINE
  8
0
 10
3.62357
 20
5.88998
 11
4.47908
 21
7.70805
  0
LINE
  8
0
 10
4.47908
 20
7.70805
 11
5.55573
 21
9.40456
  0
LINE
  8
0
 10
5.55573
 20
9.40456
 11
6.83649
 21
10.9527
  0
LINE
  8
0
 10
6.83649
 20
10.9527
 11
8.30121
 21
12.3282
  0
LINE
  8
0
 10
8.30121
 20
12.3282
 11
9.92676
 21
13.5092
  0
LINE
  8
0
 10
9.92676
 20
13.5092
 11
11.6875
 21
14.4772
  0
LINE
  8
0
 10
11.6875
 20
14.4772
 11
13.5557
 21
15.2169
  0
LINE
  8
0
 10
13.5557
 20
15.2169
 11
15.5019
 21
15.7166
  0
LINE
  8
0
 10
15.5019
 20
15.7166
 11
17.4953
 21
15.9684
  0
LINE
  8
0
 10
17.4953
 20
15.9684
 11
19.5046
 21
15.9684
  0
LINE
  8
0
 10
19.5046
 20
15.9684
 11
21.4981
 21
15.7166
  0
LINE
  8
0
 10
21.4981
 20
15.7166
 11
23.4443
 21
15.2169
  0
LINE
  8
0
 10
23.4443
 20
15.2169
 11
25.3125
 21
14.4772
  0
LINE
  8
0
 10
25.3125
 20
14.4772
 11
27.0732
 21
13.5092
  0
LINE
  8
0
 10
27.0732
 20
13.5092
 11
28.6988
 21
12.3282
  0
LINE
  8
0
 10
28.6988
 20
12.3282
 11
30.1635
 21
10.9527
  0
LINE
  8
0
 10
30.1635
 20
10.9527
 11
31.4443
 21
9.40456
  0
LINE
  8
0
 10
31.4443
 20
9.40456
 11
32.5209
 21
7.70805
  0
LINE
  8
0
 10
32.5209
 20
7.70805
 11
33.3764
 21
5.88998
  0
LINE
  8
0
 10
33.3764
 20
5.88998
 11
33.9973
 21
3.97903
  0
LINE
  8
0
 10
33.9973
 20
3.97903
 11
34.3738
 21
2.00533
  0
LINE
  8
0
 10
34.3738
 20
2.00533
 11
34.5
 21
0
  0
LINE
  8
0
 10
34.5
 20
0
 11
34.3738
 21
-2.00533
  0
LINE
  8
0
 10
34.3738
 20
-2.00533
 11
33.9973
 21
-3.97903
  0
LINE
  8
0
 10
33.9973
 20
-3.97903
 11
33.3764
 21
-5.88998
  0
LINE
  8
0
 10
33.3764
 20
-5.88998
 11
32.5209
 21
-7.70805
  0
LINE
  8
0
 10
32.5209
 20
-7.70805
 11
31.4443
 21
-9.40456
  0
LINE
  8
0
 10
31.4443
 20
-9.40456
 11
30.1635
 21
-10.9527
  0
LINE
  8
0
 10
30.1635
 20
-10.9527
 11
28.6988
 21
-12.3282
  0
LINE
  8
0
 10
28.6988
 20
-12.3282
 11
27.0732
 21
-13.5092
  0
LINE
  8
0
 10
27.0732
 20
-13.5092
 11
25.3125
 21
-14.4772
  0
LINE
  8
0
 10
25.3125
 20
-14.4772
 11
23.4443
 21
-15.2169
  0
LINE
  8
0
 10
23.4443
 20
-15.2169
 11
21.4981
 21
-15.7166
  0
LINE
  8
0
 10
21.4981
 20
-15.7166
 11
19.5046
 21
-15.9684
  0
LINE
  8
0
 10
19.5046
 20
-15.9684
 11
17.4953
 21
-15.9684
  0
LINE
  8
0
 10
-19.5046
 20
-15.9684
 11
-21.4981
 21
-15.7166
  0
LINE
  8
0
 10
-21.4981
 20
-15.7166
 11
-23.4443
 21
-15.2169
  0
LINE
  8
0
 10
-23.4443
 20
-15.2169
 11
-25.3125
 21
-14.4772
  0
LINE
  8
0
 10
-25.3125
 20
-14.4772
 11
-27.0732
 21
-13.5092
  0
LINE
  8
0
 10
-27.0732
 20
-13.5092
 11
-28.6988
 21
-12.3282
  0
LINE
  8
0
 10
-28.6988
 20
-12.3282
 11
-30.1635
 21
-10.9527
  0
LINE
  8
0
 10
-30.1635
 20
-10.9527
 11
-31.4443
 21
-9.40456
  0
LINE
  8
0
 10
-31.4443
 20
-9.40456
 11
-32.5209
 21
-7.70805
  0
LINE
  8
0
 10
-32.5209
 20
-7.70805
 11
-33.3764
 21
-5.88998
  0
LINE
  8
0
 10
-33.3764
 20
-5.88998
 11
-33.9973
 21
-3.97903
  0
LINE
  8
0
 10
-33.9973
 20
-3.97903
 11
-34.3738
 21
-2.00533
  0
LINE
  8
0
 10
-34.3738
 20
-2.00533
 11
-34.5
 21
0
  0
LINE
  8
0
 10
-34.5
 20
0
 11
-34.3738
 21
2.00533
  0
LINE
  8
0
 10
-34.3738
 20
2.00533
 11
-33.9973
 21
3.97903
  0
LINE
  8
0
 10
-33.9973
 20
3.97903
 11
-33.3764
 21
5.88998
  0
LINE
  8
0
 10
-33.3764
 20
5.88998
 11
-32.5209
 21
7.70805
  0
LINE
  8
0
 10
-32.5209
 20
7.70805
 11
-31.4443
 21
9.40456
  0
LINE
  8
0
 10
-31.4443
 20
9.40456
 11
-30.1635
 21
10.9527
  0
LINE
  8
0
 10
-30.1635
 20
10.9527
 11
-28.6988
 21
12.3282
  0
LINE
  8
0
 10
-28.6988
 20
12.3282
 11
-27.0732
 21
13.5092
  0
LINE
  8
0
 10
-27.0732
 20
13.5092
 11
-25.3125
 21
14.4772
  0
LINE
  8
0
 10
-25.3125
 20
14.4772
 11
-23.4443
 21
15.2169
  0
LINE
  8
0
 10
-23.4443
 20
15.2169
 11
-21.4981
 21
15.7166
  0
LINE
  8
0
 10
-21.4981
 20
15.7166
 11
-19.5046
 21
15.9684
  0
LINE
  8
0
 10
-19.5046
 20
15.9684
 11
-17.4953
 21
15.9684
  0
LINE
  8
0
 10
-17.4953
 20
15.9684
 11
-15.5019
 21
15.7166
  0
LINE
  8
0
 10
-15.5019
 20
15.7166
 11
-13.5557
 21
15.2169
  0
LINE
  8
0
 10
-13.5557
 20
15.2169
 11
-11.6875
 21
14.4772
  0
LINE
  8
0
 10
-11.6875
 20
14.4772
 11
-9.92676
 21
13.5092
  0
LINE
  8
0
 10
-9.92676
 20
13.5092
 11
-8.30121
 21
12.3282
  0
LINE
  8
0
 10
-8.30121
 20
12.3282
 11
-6.83649
 21
10.9527
  0
LINE
  8
0
 10
-6.83649
 20
10.9527
 11
-5.55573
 21
9.40456
  0
LINE
  8
0
 10
-5.55573
 20
9.40456
 11
-4.47908
 21
7.70805
  0
LINE
  8
0
 10
-4.47908
 20
7.70805
 11
-3.62357
 21
5.88998
  0
LINE
  8
0
 10
-3.62357
 20
5.88998
 11
-3.00266
 21
3.97903
  0
LINE
  8
0
 10
-3.00266
 20
3.97903
 11
-2.62616
 21
2.00533
  0
LINE
  8
0
 10
-2.62616
 20
2.00533
 11
-2.5
 21
0
  0
LINE
  8
0
 10
-2.5
 20
0
 11
-2.62616
 21
-2.00533
  0
LINE
  8
0
 10
-2.62616
 20
-2.00533
 11
-3.00266
 21
-3.97903
  0
LINE
  8
0
 10
-3.00266
 20
-3.97903
 11
-3.62357
 21
-5.88998
  0
LINE
  8
0
 10
-3.62357
 20
-5.88998
 11
-4.47908
 21
-7.70805
  0
LINE
  8
0
 10
-4.47908
 20
-7.70805
 11
-5.55573
 21
-9.40456
  0
LINE
  8
0
 10
-5.55573
 20
-9.40456
 11
-6.83649
 21
-10.9527
  0
LINE
  8
0
 10
-6.83649
 20
-10.9527
 11
-8.30121
 21
-12.3282
  0
LINE
  8
0
 10
-8.30121
 20
-12.3282
 11
-9.92676
 21
-13.5092
  0
LINE
  8
0
 10
-9.92676
 20
-13.5092
 11
-11.6875
 21
-14.4772
  0
LINE
  8
0
 10
-11.6875
 20
-14.4772
 11
-13.5557
 21
-15.2169
  0
LINE
  8
0
 10
-13.5557
 20
-15.2169
 11
-15.5019
 21
-15.7166
  0
LINE
  8
0
 10
-15.5019
 20
-15.7166
 11
-17.4953
 21
-15.9684
  0
LINE
  8
0
 10
-17.4953
 20
-15.9684
 11
-19.5046
 21
-15.9684
  0
LINE
  8
0
 10
-45.0942
 20
6.00294
 11
-45.2811
 21
6.02657
  0
LINE
  8
0
 10
-45.2811
 20
6.02657
 11
-45.4635
 21
6.07341
  0
LINE
  8
0
 10
-45.4635
 20
6.07341
 11
-45.6387
 21
6.14275
  0
LINE
  8
0
 10
-45.6387
 20
6.14275
 11
-45.8037
 21
6.23351
  0
LINE
  8
0
 10
-45.8037
 20
6.23351
 11
-45.9561
 21
6.34422
  0
LINE
  8
0
 10
-45.9561
 20
6.34422
 11
-46.0934
 21
6.47318
  0
LINE
  8
0
 10
-46.0934
 20
6.47318
 11
-46.2135
 21
6.61832
  0
LINE
  8
0
 10
-46.2135
 20
6.61832
 11
-46.3145
 21
6.77736
  0
LINE
  8
0
 10
-46.3145
 20
6.77736
 11
-46.3947
 21
6.9478
  0
LINE
  8
0
 10
-46.3947
 20
6.9478
 11
-46.4529
 21
7.12695
  0
LINE
  8
0
 10
-46.4529
 20
7.12695
 11
-46.4882
 21
7.312
  0
LINE
  8
0
 10
-46.4882
 20
7.312
 11
-46.5
 21
7.5
  0
LINE
  8
0
 10
-46.5
 20
7.5
 11
-46.4882
 21
7.68799
  0
LINE
  8
0
 10
-46.4882
 20
7.68799
 11
-46.4529
 21
7.87303
  0
LINE
  8
0
 10
-46.4529
 20
7.87303
 11
-46.3947
 21
8.05219
  0
LINE
  8
0
 10
-46.3947
 20
8.05219
 11
-46.3145
 21
8.22263
  0
LINE
  8
0
 10
-46.3145
 20
8.22263
 11
-46.2135
 21
8.38167
  0
LINE
  8
0
 10
-46.2135
 20
8.38167
 11
-46.0934
 21
8.52681
  0
LINE
  8
0
 10
-46.0934
 20
8.52681
 11
-45.9561
 21
8.65576
  0
LINE
  8
0
 10
-45.9561
 20
8.65576
 11
-45.8037
 21
8.76648
  0
LINE
  8
0
 10
-45.8037
 20
8.76648
 11
-45.6387
 21
8.85724
  0
LINE
  8
0
 10
-45.6387
 20
8.85724
 11
-45.4635
 21
8.92657
  0
LINE
  8
0
 10
-45.4635
 20
8.92657
 11
-45.2811
 21
8.97342
  0
LINE
  8
0
 10
-45.2811
 20
8.97342
 11
-45.0942
 21
8.99704
  0
LINE
  8
0
 10
-45.0942
 20
8.99704
 11
-44.9058
 21
8.99704
  0
LINE
  8
0
 10
-44.9058
 20
8.99704
 11
-44.7189
 21
8.97342
  0
LINE
  8
0
 10
-44.7189
 20
8.97342
 11
-44.5365
 21
8.92657
  0
LINE
  8
0
 10
-44.5365
 20
8.92657
 11
-44.3613
 21
8.85724
  0
LINE
  8
0
 10
-44.3613
 20
8.85724
 11
-44.1963
 21
8.76648
  0
LINE
  8
0
 10
-44.1963
 20
8.76648
 11
-44.0439
 21
8.65576
  0
LINE
  8
0
 10
-44.0439
 20
8.65576
 11
-43.9065
 21
8.52681
  0
LINE
  8
0
 10
-43.9065
 20
8.52681
 11
-43.7865
 21
8.38167
  0
LINE
  8
0
 10
-43.7865
 20
8.38167
 11
-43.6855
 21
8.22263
  0
LINE
  8
0
 10
-43.6855
 20
8.22263
 11
-43.6053
 21
8.05219
  0
LINE
  8
0
 10
-43.6053
 20
8.05219
 11
-43.5471
 21
7.87303
  0
LINE
  8
0
 10
-43.5471
 20
7.87303
 11
-43.5118
 21
7.68799
  0
LINE
  8
0
 10
-43.5118
 20
7.68799
 11
-43.5
 21
7.5
  0
LINE
  8
0
 10
-43.5
 20
7.5
 11
-43.5118
 21
7.312
  0
LINE
  8
0
 10
-43.5118
 20
7.312
 11
-43.5471
 21
7.12695
  0
LINE
  8
0
 10
-43.5471
 20
7.12695
 11
-43.6053
 21
6.9478
  0
LINE
  8
0
 10
-43.6053
 20
6.9478
 11
-43.6855
 21
6.77736
  0
LINE
  8
0
 10
-43.6855
 20
6.77736
 11
-43.7865
 21
6.61832
  0
LINE
  8
0
 10
-43.7865
 20
6.61832
 11
-43.9065
 21
6.47318
  0
LINE
  8
0
 10
-43.9065
 20
6.47318
 11
-44.0439
 21
6.34422
  0
LINE
  8
0
 10
-44.0439
 20
6.34422
 11
-44.1963
 21
6.23351
  0
LINE
  8
0
 10
-44.1963
 20
6.23351
 11
-44.3613
 21
6.14275
  0
LINE
  8
0
 10
-44.3613
 20
6.14275
 11
-44.5365
 21
6.07341
  0
LINE
  8
0
 10
-44.5365
 20
6.07341
 11
-44.7189
 21
6.02657
  0
LINE
  8
0
 10
-44.7189
 20
6.02657
 11
-44.9058
 21
6.00294
  0
LINE
  8
0
 10
-44.9058
 20
6.00294
 11
-45.0942
 21
6.00294
  0
LINE
  8
0
 10
44.9058
 20
6.00294
 11
44.7189
 21
6.02657
  0
LINE
  8
0
 10
44.7189
 20
6.02657
 11
44.5365
 21
6.07341
  0
LINE
  8
0
 10
44.5365
 20
6.07341
 11
44.3613
 21
6.14275
  0
LINE
  8
0
 10
44.3613
 20
6.14275
 11
44.1963
 21
6.23351
  0
LINE
  8
0
 10
44.1963
 20
6.23351
 11
44.0439
 21
6.34422
  0
LINE
  8
0
 10
44.0439
 20
6.34422
 11
43.9065
 21
6.47318
  0
LINE
  8
0
 10
43.9065
 20
6.47318
 11
43.7865
 21
6.61832
  0
LINE
  8
0
 10
43.7865
 20
6.61832
 11
43.6855
 21
6.77736
  0
LINE
  8
0
 10
43.6855
 20
6.77736
 11
43.6053
 21
6.9478
  0
LINE
  8
0
 10
43.6053
 20
6.9478
 11
43.5471
 21
7.12695
  0
LINE
  8
0
 10
43.5471
 20
7.12695
 11
43.5118
 21
7.312
  0
LINE
  8
0
 10
43.5118
 20
7.312
 11
43.5
 21
7.5
  0
LINE
  8
0
 10
43.5
 20
7.5
 11
43.5118
 21
7.68799
  0
LINE
  8
0
 10
43.5118
 20
7.68799
 11
43.5471
 21
7.87303
  0
LINE
  8
0
 10
43.5471
 20
7.87303
 11
43.6053
 21
8.05219
  0
LINE
  8
0
 10
43.6053
 20
8.05219
 11
43.6855
 21
8.22263
  0
LINE
  8
0
 10
43.6855
 20
8.22263
 11
43.7865
 21
8.38167
  0
LINE
  8
0
 10
43.7865
 20
8.38167
 11
43.9065
 21
8.52681
  0
LINE
  8
0
 10
43.9065
 20
8.52681
 11
44.0439
 21
8.65576
  0
LINE
  8
0
 10
44.0439
 20
8.65576
 11
44.1963
 21
8.76648
  0
LINE
  8
0
 10
44.1963
 20
8.76648
 11
44.3613
 21
8.85724
  0
LINE
  8
0
 10
44.3613
 20
8.85724
 11
44.5365
 21
8.92657
  0
LINE
  8
0
 10
44.5365
 20
8.92657
 11
44.7189
 21
8.97342
  0
LINE
  8
0
 10
44.7189
 20
8.97342
 11
44.9058
 21
8.99704
  0
LINE
  8
0
 10
44.9058
 20
8.99704
 11
45.0942
 21
8.99704
  0
LINE
  8
0
 10
45.0942
 20
8.99704
 11
45.2811
 21
8.97342
  0
LINE
  8
0
 10
45.2811
 20
8.97342
 11
45.4635
 21
8.92657
  0
LINE
  8
0
 10
45.4635
 20
8.92657
 11
45.6387
 21
8.85724
  0
LINE
  8
0
 10
45.6387
 20
8.85724
 11
45.8037
 21
8.76648
  0
LINE
  8
0
 10
45.8037
 20
8.76648
 11
45.9561
 21
8.65576
  0
LINE
  8
0
 10
45.9561
 20
8.65576
 11
46.0934
 21
8.52681
  0
LINE
  8
0
 10
46.0934
 20
8.52681
 11
46.2135
 21
8.38167
  0
LINE
  8
0
 10
46.2135
 20
8.38167
 11
46.3145
 21
8.22263
  0
LINE
  8
0
 10
46.3145
 20
8.22263
 11
46.3947
 21
8.05219
  0
LINE
  8
0
 10
46.3947
 20
8.05219
 11
46.4529
 21
7.87303
  0
LINE
  8
0
 10
46.4529
 20
7.87303
 11
46.4882
 21
7.68799
  0
LINE
  8
0
 10
46.4882
 20
7.68799
 11
46.5
 21
7.5
  0
LINE
  8
0
 10
46.5
 20
7.5
 11
46.4882
 21
7.312
  0
LINE
  8
0
 10
46.4882
 20
7.312
 11
46.4529
 21
7.12695
  0
LINE
  8
0
 10
46.4529
 20
7.12695
 11
46.3947
 21
6.9478
  0
LINE
  8
0
 10
46.3947
 20
6.9478
 11
46.3145
 21
6.77736
  0
LINE
  8
0
 10
46.3145
 20
6.77736
 11
46.2135
 21
6.61832
  0
LINE
  8
0
 10
46.2135
 20
6.61832
 11
46.0934
 21
6.47318
  0
LINE
  8
0
 10
46.0934
 20
6.47318
 11
45.9561
 21
6.34422
  0
LINE
  8
0
 10
45.9561
 20
6.34422
 11
45.8037
 21
6.23351
  0
LINE
  8
0
 10
45.8037
 20
6.23351
 11
45.6387
 21
6.14275
  0
LINE
  8
0
 10
45.6387
 20
6.14275
 11
45.4635
 21
6.07341
  0
LINE
  8
0
 10
45.4635
 20
6.07341
 11
45.2811
 21
6.02657
  0
LINE
  8
0
 10
45.2811
 20
6.02657
 11
45.0942
 21
6.00294
  0
LINE
  8
0
 10
45.0942
 20
6.00294
 11
44.9058
 21
6.00294
  0
LINE
  8
0
 10
44.8116
 20
-2.99408
 11
44.4379
 21
-2.94685
  0
LINE
  8
0
 10
44.4379
 20
-2.94685
 11
44.0729
 21
-2.85316
  0
LINE
  8
0
 10
44.0729
 20
-2.85316
 11
43.7227
 21
-2.71448
  0
LINE
  8
0
 10
43.7227
 20
-2.71448
 11
43.3925
 21
-2.53297
  0
LINE
  8
0
 10
43.3925
 20
-2.53297
 11
43.0877
 21
-2.31154
  0
LINE
  8
0
 10
43.0877
 20
-2.31154
 11
42.8131
 21
-2.05363
  0
LINE
  8
0
 10
42.8131
 20
-2.05363
 11
42.5729
 21
-1.76335
  0
LINE
  8
0
 10
42.5729
 20
-1.76335
 11
42.3711
 21
-1.44525
  0
LINE
  8
0
 10
42.3711
 20
-1.44525
 11
42.2107
 21
-1.10437
  0
LINE
  8
0
 10
42.2107
 20
-1.10437
 11
42.0942
 21
-0.746063
  0
LINE
  8
0
 10
42.0942
 20
-0.746063
 11
42.0237
 21
-0.375992
  0
LINE
  8
0
 10
42.0237
 20
-0.375992
 11
42
 21
0
  0
LINE
  8
0
 10
42
 20
0
 11
42.0237
 21
0.375992
  0
LINE
  8
0
 10
42.0237
 20
0.375992
 11
42.0942
 21
0.746063
  0
LINE
  8
0
 10
42.0942
 20
0.746063
 11
42.2107
 21
1.10437
  0
LINE
  8
0
 10
42.2107
 20
1.10437
 11
42.3711
 21
1.44525
  0
LINE
  8
0
 10
42.3711
 20
1.44525
 11
42.5729
 21
1.76335
  0
LINE
  8
0
 10
42.5729
 20
1.76335
 11
42.8131
 21
2.05363
  0
LINE
  8
0
 10
42.8131
 20
2.05363
 11
43.0877
 21
2.31154
  0
LINE
  8
0
 10
43.0877
 20
2.31154
 11
43.3925
 21
2.53297
  0
LINE
  8
0
 10
43.3925
 20
2.53297
 11
43.7227
 21
2.71448
  0
LINE
  8
0
 10
43.7227
 20
2.71448
 11
44.0729
 21
2.85316
  0
LINE
  8
0
 10
44.0729
 20
2.85316
 11
44.4379
 21
2.94685
  0
LINE
  8
0
 10
44.4379
 20
2.94685
 11
44.8116
 21
2.99408
  0
LINE
  8
0
 10
44.8116
 20
2.99408
 11
45.1884
 21
2.99408
  0
LINE
  8
0
 10
45.1884
 20
2.99408
 11
45.5621
 21
2.94685
  0
LINE
  8
0
 10
45.5621
 20
2.94685
 11
45.927
 21
2.85316
  0
LINE
  8
0
 10
45.927
 20
2.85316
 11
46.2773
 21
2.71448
  0
LINE
  8
0
 10
46.2773
 20
2.71448
 11
46.6075
 21
2.53297
  0
LINE
  8
0
 10
46.6075
 20
2.53297
 11
46.9123
 21
2.31154
  0
LINE
  8
0
 10
46.9123
 20
2.31154
 11
47.1869
 21
2.05363
  0
LINE
  8
0
 10
47.1869
 20
2.05363
 11
47.427
 21
1.76335
  0
LINE
  8
0
 10
47.427
 20
1.76335
 11
47.6289
 21
1.44525
  0
LINE
  8
0
 10
47.6289
 20
1.44525
 11
47.7893
 21
1.10437
  0
LINE
  8
0
 10
47.7893
 20
1.10437
 11
47.9057
 21
0.746063
  0
LINE
  8
0
 10
47.9057
 20
0.746063
 11
47.9763
 21
0.375992
  0
LINE
  8
0
 10
47.9763
 20
0.375992
 11
48
 21
0
  0
LINE
  8
0
 10
48
 20
0
 11
47.9763
 21
-0.375992
  0
LINE
  8
0
 10
47.9763
 20
-0.375992
 11
47.9057
 21
-0.746063
  0
LINE
  8
0
 10
47.9057
 20
-0.746063
 11
47.7893
 21
-1.10437
  0
LINE
  8
0
 10
47.7893
 20
-1.10437
 11
47.6289
 21
-1.44525
  0
LINE
  8
0
 10
47.6289
 20
-1.44525
 11
47.427
 21
-1.76335
  0
LINE
  8
0
 10
47.427
 20
-1.76335
 11
47.1869
 21
-2.05363
  0
LINE
  8
0
 10
47.1869
 20
-2.05363
 11
46.9123
 21
-2.31154
  0
LINE
  8
0
 10
46.9123
 20
-2.31154
 11
46.6075
 21
-2.53297
  0
LINE
  8
0
 10
46.6075
 20
-2.53297
 11
46.2773
 21
-2.71448
  0
LINE
  8
0
 10
46.2773
 20
-2.71448
 11
45.927
 21
-2.85316
  0
LINE
  8
0
 10
45.927
 20
-2.85316
 11
45.5621
 21
-2.94685
  0
LINE
  8
0
 10
45.5621
 20
-2.94685
 11
45.1884
 21
-2.99408
  0
LINE
  8
0
 10
45.1884
 20
-2.99408
 11
44.8116
 21
-2.99408
  0
LINE
  8
0
 10
-45.1884
 20
-2.99408
 11
-45.5621
 21
-2.94685
  0
LINE
  8
0
 10
-45.5621
 20
-2.94685
 11
-45.927
 21
-2.85316
  0
LINE
  8
0
 10
-45.927
 20
-2.85316
 11
-46.2773
 21
-2.71448
  0
LINE
  8
0
 10
-46.2773
 20
-2.71448
 11
-46.6075
 21
-2.53297
  0
LINE
  8
0
 10
-46.6075
 20
-2.53297
 11
-46.9123
 21
-2.31154
  0
LINE
  8
0
 10
-46.9123
 20
-2.31154
 11
-47.1869
 21
-2.05363
  0
LINE
  8
0
 10
-47.1869
 20
-2.05363
 11
-47.427
 21
-1.76335
  0
LINE
  8
0
 10
-47.427
 20
-1.76335
 11
-47.6289
 21
-1.44525
  0
LINE
  8
0
 10
-47.6289
 20
-1.44525
 11
-47.7893
 21
-1.10437
  0
LINE
  8
0
 10
-47.7893
 20
-1.10437
 11
-47.9057
 21
-0.746063
  0
LINE
  8
0
 10
-47.9057
 20
-0.746063
 11
-47.9763
 21
-0.375992
  0
LINE
  8
0
 10
-47.9763
 20
-0.375992
 11
-48
 21
0
  0
LINE
  8
0
 10
-48
 20
0
 11
-47.9763
 21
0.375992
  0
LINE
  8
0
 10
-47.9763
 20
0.375992
 11
-47.9057
 21
0.746063
  0
LINE
  8
0
 10
-47.9057
 20
0.746063
 11
-47.7893
 21
1.10437
  0
LINE
  8
0
 10
-47.7893
 20
1.10437
 11
-47.6289
 21
1.44525
  0
LINE
  8
0
 10
-47.6289
 20
1.44525
 11
-47.427
 21
1.76335
  0
LINE
  8
0
 10
-47.427
 20
1.76335
 11
-47.1869
 21
2.05363
  0
LINE
  8
0
 10
-47.1869
 20
2.05363
 11
-46.9123
 21
2.31154
  0
LINE
  8
0
 10
-46.9123
 20
2.31154
 11
-46.6075
 21
2.53297
  0
LINE
  8
0
 10
-46.6075
 20
2.53297
 11
-46.2773
 21
2.71448
  0
LINE
  8
0
 10
-46.2773
 20
2.71448
 11
-45.927
 21
2.85316
  0
LINE
  8
0
 10
-45.927
 20
2.85316
 11
-45.5621
 21
2.94685
  0
LINE
  8
0
 10
-45.5621
 20
2.94685
 11
-45.1884
 21
2.99408
  0
LINE
  8
0
 10
-45.1884
 20
2.99408
 11
-44.8116
 21
2.99408
  0
LINE
  8
0
 10
-44.8116
 20
2.99408
 11
-44.4379
 21
2.94685
  0
LINE
  8
0
 10
-44.4379
 20
2.94685
 11
-44.0729
 21
2.85316
  0
LINE
  8
0
 10
-44.0729
 20
2.85316
 11
-43.7227
 21
2.71448
  0
LINE
  8
0
 10
-43.7227
 20
2.71448
 11
-43.3925
 21
2.53297
  0
LINE
  8
0
 10
-43.3925
 20
2.53297
 11
-43.0877
 21
2.31154
  0
LINE
  8
0
 10
-43.0877
 20
2.31154
 11
-42.8131
 21
2.05363
  0
LINE
  8
0
 10
-42.8131
 20
2.05363
 11
-42.5729
 21
1.76335
  0
LINE
  8
0
 10
-42.5729
 20
1.76335
 11
-42.3711
 21
1.44525
  0
LINE
  8
0
 10
-42.3711
 20
1.44525
 11
-42.2107
 21
1.10437
  0
LINE
  8
0
 10
-42.2107
 20
1.10437
 11
-42.0942
 21
0.746063
  0
LINE
  8
0
 10
-42.0942
 20
0.746063
 11
-42.0237
 21
0.375992
  0
LINE
  8
0
 10
-42.0237
 20
0.375992
 11
-42
 21
0
  0
LINE
  8
0
 10
-42
 20
0
 11
-42.0237
 21
-0.375992
  0
LINE
  8
0
 10
-42.0237
 20
-0.375992
 11
-42.0942
 21
-0.746063
  0
LINE
  8
0
 10
-42.0942
 20
-0.746063
 11
-42.2107
 21
-1.10437
  0
LINE
  8
0
 10
-42.2107
 20
-1.10437
 11
-42.3711
 21
-1.44525
  0
LINE
  8
0
 10
-42.3711
 20
-1.44525
 11
-42.5729
 21
-1.76335
  0
LINE
  8
0
 10
-42.5729
 20
-1.76335
 11
-42.8131
 21
-2.05363
  0
LINE
  8
0
 10
-42.8131
 20
-2.05363
 11
-43.0877
 21
-2.31154
  0
LINE
  8
0
 10
-43.0877
 20
-2.31154
 11
-43.3925
 21
-2.53297
  0
LINE
  8
0
 10
-43.3925
 20
-2.53297
 11
-43.7227
 21
-2.71448
  0
LINE
  8
0
 10
-43.7227
 20
-2.71448
 11
-44.0729
 21
-2.85316
  0
LINE
  8
0
 10
-44.0729
 20
-2.85316
 11
-44.4379
 21
-2.94685
  0
LINE
  8
0
 10
-44.4379
 20
-2.94685
 11
-44.8116
 21
-2.99408
  0
LINE
  8
0
 10
-44.8116
 20
-2.99408
 11
-45.1884
 21
-2.99408
  0
LINE
  8
0
 10
-45.0942
 20
-8.99704
 11
-45.2811
 21
-8.97342
  0
LINE
  8
0
 10
-45.2811
 20
-8.97342
 11
-45.4635
 21
-8.92657
  0
LINE
  8
0
 10
-45.4635
 20
-8.92657
 11
-45.6387
 21
-8.85724
  0
LINE
  8
0
 10
-45.6387
 20
-8.85724
 11
-45.8037
 21
-8.76648
  0
LINE
  8
0
 10
-45.8037
 20
-8.76648
 11
-45.9561
 21
-8.65576
  0
LINE
  8
0
 10
-45.9561
 20
-8.65576
 11
-46.0934
 21
-8.52681
  0
LINE
  8
0
 10
-46.0934
 20
-8.52681
 11
-46.2135
 21
-8.38167
  0
LINE
  8
0
 10
-46.2135
 20
-8.38167
 11
-46.3145
 21
-8.22263
  0
LINE
  8
0
 10
-46.3145
 20
-8.22263
 11
-46.3947
 21
-8.05219
  0
LINE
  8
0
 10
-46.3947
 20
-8.05219
 11
-46.4529
 21
-7.87303
  0
LINE
  8
0
 10
-46.4529
 20
-7.87303
 11
-46.4882
 21
-7.68799
  0
LINE
  8
0
 10
-46.4882
 20
-7.68799
 11
-46.5
 21
-7.5
  0
LINE
  8
0
 10
-46.5
 20
-7.5
 11
-46.4882
 21
-7.312
  0
LINE
  8
0
 10
-46.4882
 20
-7.312
 11
-46.4529
 21
-7.12695
  0
LINE
  8
0
 10
-46.4529
 20
-7.12695
 11
-46.3947
 21
-6.9478
  0
LINE
  8
0
 10
-46.3947
 20
-6.9478
 11
-46.3145
 21
-6.77736
  0
LINE
  8
0
 10
-46.3145
 20
-6.77736
 11
-46.2135
 21
-6.61832
  0
LINE
  8
0
 10
-46.2135
 20
-6.61832
 11
-46.0934
 21
-6.47318
  0
LINE
  8
0
 10
-46.0934
 20
-6.47318
 11
-45.9561
 21
-6.34422
  0
LINE
  8
0
 10
-45.9561
 20
-6.34422
 11
-45.8037
 21
-6.23351
  0
LINE
  8
0
 10
-45.8037
 20
-6.23351
 11
-45.6387
 21
-6.14275
  0
LINE
  8
0
 10
-45.6387
 20
-6.14275
 11
-45.4635
 21
-6.07341
  0
LINE
  8
0
 10
-45.4635
 20
-6.07341
 11
-45.2811
 21
-6.02657
  0
LINE
  8
0
 10
-45.2811
 20
-6.02657
 11
-45.0942
 21
-6.00294
  0
LINE
  8
0
 10
-45.0942
 20
-6.00294
 11
-44.9058
 21
-6.00294
  0
LINE
  8
0
 10
-44.9058
 20
-6.00294
 11
-44.7189
 21
-6.02657
  0
LINE
  8
0
 10
-44.7189
 20
-6.02657
 11
-44.5365
 21
-6.07341
  0
LINE
  8
0
 10
-44.5365
 20
-6.07341
 11
-44.3613
 21
-6.14275
  0
LINE
  8
0
 10
-44.3613
 20
-6.14275
 11
-44.1963
 21
-6.23351
  0
LINE
  8
0
 10
-44.1963
 20
-6.23351
 11
-44.0439
 21
-6.34422
  0
LINE
  8
0
 10
-44.0439
 20
-6.34422
 11
-43.9065
 21
-6.47318
  0
LINE
  8
0
 10
-43.9065
 20
-6.47318
 11
-43.7865
 21
-6.61832
  0
LINE
  8
0
 10
-43.7865
 20
-6.61832
 11
-43.6855
 21
-6.77736
  0
LINE
  8
0
 10
-43.6855
 20
-6.77736
 11
-43.6053
 21
-6.9478
  0
LINE
  8
0
 10
-43.6053
 20
-6.9478
 11
-43.5471
 21
-7.12695
  0
LINE
  8
0
 10
-43.5471
 20
-7.12695
 11
-43.5118
 21
-7.312
  0
LINE
  8
0
 10
-43.5118
 20
-7.312
 11
-43.5
 21
-7.5
  0
LINE
  8
0
 10
-43.5
 20
-7.5
 11
-43.5118
 21
-7.68799
  0
LINE
  8
0
 10
-43.5118
 20
-7.68799
 11
-43.5471
 21
-7.87303
  0
LINE
  8
0
 10
-43.5471
 20
-7.87303
 11
-43.6053
 21
-8.05219
  0
LINE
  8
0
 10
-43.6053
 20
-8.05219
 11
-43.6855
 21
-8.22263
  0
LINE
  8
0
 10
-43.6855
 20
-8.22263
 11
-43.7865
 21
-8.38167
  0
LINE
  8
0
 10
-43.7865
 20
-8.38167
 11
-43.9065
 21
-8.52681
  0
LINE
  8
0
 10
-43.9065
 20
-8.52681
 11
-44.0439
 21
-8.65576
  0
LINE
  8
0
 10
-44.0439
 20
-8.65576
 11
-44.1963
 21
-8.76648
  0
LINE
  8
0
 10
-44.1963
 20
-8.76648
 11
-44.3613
 21
-8.85724
  0
LINE
  8
0
 10
-44.3613
 20
-8.85724
 11
-44.5365
 21
-8.92657
  0
LINE
  8
0
 10
-44.5365
 20
-8.92657
 11
-44.7189
 21
-8.97342
  0
LINE
  8
0
 10
-44.7189
 20
-8.97342
 11
-44.9058
 21
-8.99704
  0
LINE
  8
0
 10
-44.9058
 20
-8.99704
 11
-45.0942
 21
-8.99704
  0
LINE
  8
0
 10
44.9058
 20
-8.99704
 11
44.7189
 21
-8.97342
  0
LINE
  8
0
 10
44.7189
 20
-8.97342
 11
44.5365
 21
-8.92657
  0
LINE
  8
0
 10
44.5365
 20
-8.92657
 11
44.3613
 21
-8.85724
  0
LINE
  8
0
 10
44.3613
 20
-8.85724
 11
44.1963
 21
-8.76648
  0
LINE
  8
0
 10
44.1963
 20
-8.76648
 11
44.0439
 21
-8.65576
  0
LINE
  8
0
 10
44.0439
 20
-8.65576
 11
43.9065
 21
-8.52681
  0
LINE
  8
0
 10
43.9065
 20
-8.52681
 11
43.7865
 21
-8.38167
  0
LINE
  8
0
 10
43.7865
 20
-8.38167
 11
43.6855
 21
-8.22263
  0
LINE
  8
0
 10
43.6855
 20
-8.22263
 11
43.6053
 21
-8.05219
  0
LINE
  8
0
 10
43.6053
 20
-8.05219
 11
43.5471
 21
-7.87303
  0
LINE
  8
0
 10
43.5471
 20
-7.87303
 11
43.5118
 21
-7.68799
  0
LINE
  8
0
 10
43.5118
 20
-7.68799
 11
43.5
 21
-7.5
  0
LINE
  8
0
 10
43.5
 20
-7.5
 11
43.5118
 21
-7.312
  0
LINE
  8
0
 10
43.5118
 20
-7.312
 11
43.5471
 21
-7.12695
  0
LINE
  8
0
 10
43.5471
 20
-7.12695
 11
43.6053
 21
-6.9478
  0
LINE
  8
0
 10
43.6053
 20
-6.9478
 11
43.6855
 21
-6.77736
  0
LINE
  8
0
 10
43.6855
 20
-6.77736
 11
43.7865
 21
-6.61832
  0
LINE
  8
0
 10
43.7865
 20
-6.61832
 11
43.9065
 21
-6.47318
  0
LINE
  8
0
 10
43.9065
 20
-6.47318
 11
44.0439
 21
-6.34422
  0
LINE
  8
0
 10
44.0439
 20
-6.34422
 11
44.1963
 21
-6.23351
  0
LINE
  8
0
 10
44.1963
 20
-6.23351
 11
44.3613
 21
-6.14275
  0
LINE
  8
0
 10
44.3613
 20
-6.14275
 11
44.5365
 21
-6.07341
  0
LINE
  8
0
 10
44.5365
 20
-6.07341
 11
44.7189
 21
-6.02657
  0
LINE
  8
0
 10
44.7189
 20
-6.02657
 11
44.9058
 21
-6.00294
  0
LINE
  8
0
 10
44.9058
 20
-6.00294
 11
45.0942
 21
-6.00294
  0
LINE
  8
0
 10
45.0942
 20
-6.00294
 11
45.2811
 21
-6.02657
  0
LINE
  8
0
 10
45.2811
 20
-6.02657
 11
45.4635
 21
-6.07341
  0
LINE
  8
0
 10
45.4635
 20
-6.07341
 11
45.6387
 21
-6.14275
  0
LINE
  8
0
 10
45.6387
 20
-6.14275
 11
45.8037
 21
-6.23351
  0
LINE
  8
0
 10
45.8037
 20
-6.23351
 11
45.9561
 21
-6.34422
  0
LINE
  8
0
 10
45.9561
 20
-6.34422
 11
46.0934
 21
-6.47318
  0
LINE
  8
0
 10
46.0934
 20
-6.47318
 11
46.2135
 21
-6.61832
  0
LINE
  8
0
 10
46.2135
 20
-6.61832
 11
46.3145
 21
-6.77736
  0
LINE
  8
0
 10
46.3145
 20
-6.77736
 11
46.3947
 21
-6.9478
  0
LINE
  8
0
 10
46.3947
 20
-6.9478
 11
46.4529
 21
-7.12695
  0
LINE
  8
0
 10
46.4529
 20
-7.12695
 11
46.4882
 21
-7.312
  0
LINE
  8
0
 10
46.4882
 20
-7.312
 11
46.5
 21
-7.5
  0
LINE
  8
0
 10
46.5
 20
-7.5
 11
46.4882
 21
-7.68799
  0
LINE
  8
0
 10
46.4882
 20
-7.68799
 11
46.4529
 21
-7.87303
  0
LINE
  8
0
 10
46.4529
 20
-7.87303
 11
46.3947
 21
-8.05219
  0
LINE
  8
0
 10
46.3947
 20
-8.05219
 11
46.3145
 21
-8.22263
  0
LINE
  8
0
 10
46.3145
 20
-8.22263
 11
46.2135
 21
-8.38167
  0
LINE
  8
0
 10
46.2135
 20
-8.38167
 11
46.0934
 21
-8.52681
  0
LINE
  8
0
 10
46.0934
 20
-8.52681
 11
45.9561
 21
-8.65576
  0
LINE
  8
0
 10
45.9561
 20
-8.65576
 11
45.8037
 21
-8.76648
  0
LINE
  8
0
 10
45.8037
 20
-8.76648
 11
45.6387
 21
-8.85724
  0
LINE
  8
0
 10
45.6387
 20
-8.85724
 11
45.4635
 21
-8.92657
  0
LINE
  8
0
 10
45.4635
 20
-8.92657
 11
45.2811
 21
-8.97342
  0
LINE
  8
0
 10
45.2811
 20
-8.97342
 11
45.0942
 21
-8.99704
  0
LINE
  8
0
 10
45.0942
 20
-8.99704
 11
44.9058
 21
-8.99704
  0
LINE
  8
0
 10
44.8116
 20
-17.9941
 11
44.4379
 21
-17.9469
  0
LINE
  8
0
 10
44.4379
 20
-17.9469
 11
44.0729
 21
-17.8532
  0
LINE
  8
0
 10
44.0729
 20
-17.8532
 11
43.7227
 21
-17.7145
  0
LINE
  8
0
 10
43.7227
 20
-17.7145
 11
43.3925
 21
-17.533
  0
LINE
  8
0
 10
43.3925
 20
-17.533
 11
43.0877
 21
-17.3115
  0
LINE
  8
0
 10
43.0877
 20
-17.3115
 11
42.8131
 21
-17.0536
  0
LINE
  8
0
 10
42.8131
 20
-17.0536
 11
42.5729
 21
-16.7634
  0
LINE
  8
0
 10
42.5729
 20
-16.7634
 11
42.3711
 21
-16.4453
  0
LINE
  8
0
 10
42.3711
 20
-16.4453
 11
42.2107
 21
-16.1044
  0
LINE
  8
0
 10
42.2107
 20
-16.1044
 11
42.0942
 21
-15.7461
  0
LINE
  8
0
 10
42.0942
 20
-15.7461
 11
42.0237
 21
-15.376
  0
LINE
  8
0
 10
42.0237
 20
-15.376
 11
42
 21
-15
  0
LINE
  8
0
 10
42
 20
-15
 11
42.0237
 21
-14.624
  0
LINE
  8
0
 10
42.0237
 20
-14.624
 11
42.0942
 21
-14.2539
  0
LINE
  8
0
 10
42.0942
 20
-14.2539
 11
42.2107
 21
-13.8956
  0
LINE
  8
0
 10
42.2107
 20
-13.8956
 11
42.3711
 21
-13.5547
  0
LINE
  8
0
 10
42.3711
 20
-13.5547
 11
42.5729
 21
-13.2366
  0
LINE
  8
0
 10
42.5729
 20
-13.2366
 11
42.8131
 21
-12.9464
  0
LINE
  8
0
 10
42.8131
 20
-12.9464
 11
43.0877
 21
-12.6884
  0
LINE
  8
0
 10
43.0877
 20
-12.6884
 11
43.3925
 21
-12.467
  0
LINE
  8
0
 10
43.3925
 20
-12.467
 11
43.7227
 21
-12.2855
  0
LINE
  8
0
 10
43.7227
 20
-12.2855
 11
44.0729
 21
-12.1468
  0
LINE
  8
0
 10
44.0729
 20
-12.1468
 11
44.4379
 21
-12.0531
  0
LINE
  8
0
 10
44.4379
 20
-12.0531
 11
44.8116
 21
-12.0059
  0
LINE
  8
0
 10
44.8116
 20
-12.0059
 11
45.1884
 21
-12.0059
  0
LINE
  8
0
 10
45.1884
 20
-12.0059
 11
45.5621
 21
-12.0531
  0
LINE
  8
0
 10
45.5621
 20
-12.0531
 11
45.927
 21
-12.1468
  0
LINE
  8
0
 10
45.927
 20
-12.1468
 11
46.2773
 21
-12.2855
  0
LINE
  8
0
 10
46.2773
 20
-12.2855
 11
46.6075
 21
-12.467
  0
LINE
  8
0
 10
46.6075
 20
-12.467
 11
46.9123
 21
-12.6884
  0
LINE
  8
0
 10
46.9123
 20
-12.6884
 11
47.1869
 21
-12.9464
  0
LINE
  8
0
 10
47.1869
 20
-12.9464
 11
47.427
 21
-13.2366
  0
LINE
  8
0
 10
47.427
 20
-13.2366
 11
47.6289
 21
-13.5547
  0
LINE
  8
0
 10
47.6289
 20
-13.5547
 11
47.7893
 21
-13.8956
  0
LINE
  8
0
 10
47.7893
 20
-13.8956
 11
47.9057
 21
-14.2539
  0
LINE
  8
0
 10
47.9057
 20
-14.2539
 11
47.9763
 21
-14.624
  0
LINE
  8
0
 10
47.9763
 20
-14.624
 11
48
 21
-15
  0
LINE
  8
0
 10
48
 20
-15
 11
47.9763
 21
-15.376
  0
LINE
  8
0
 10
47.9763
 20
-15.376
 11
47.9057
 21
-15.7461
  0
LINE
  8
0
 10
47.9057
 20
-15.7461
 11
47.7893
 21
-16.1044
  0
LINE
  8
0
 10
47.7893
 20
-16.1044
 11
47.6289
 21
-16.4453
  0
LINE
  8
0
 10
47.6289
 20
-16.4453
 11
47.427
 21
-16.7634
  0
LINE
  8
0
 10
47.427
 20
-16.7634
 11
47.1869
 21
-17.0536
  0
LINE
  8
0
 10
47.1869
 20
-17.0536
 11
46.9123
 21
-17.3115
  0
LINE
  8
0
 10
46.9123
 20
-17.3115
 11
46.6075
 21
-17.533
  0
LINE
  8
0
 10
46.6075
 20
-17.533
 11
46.2773
 21
-17.7145
  0
LINE
  8
0
 10
46.2773
 20
-17.7145
 11
45.927
 21
-17.8532
  0
LINE
  8
0
 10
45.927
 20
-17.8532
 11
45.5621
 21
-17.9469
  0
LINE
  8
0
 10
45.5621
 20
-17.9469
 11
45.1884
 21
-17.9941
  0
LINE
  8
0
 10
45.1884
 20
-17.9941
 11
44.8116
 21
-17.9941
  0
LINE
  8
0
 10
-45.1884
 20
-17.9941
 11
-45.5621
 21
-17.9469
  0
LINE
  8
0
 10
-45.5621
 20
-17.9469
 11
-45.927
 21
-17.8532
  0
LINE
  8
0
 10
-45.927
 20
-17.8532
 11
-46.2773
 21
-17.7145
  0
LINE
  8
0
 10
-46.2773
 20
-17.7145
 11
-46.6075
 21
-17.533
  0
LINE
  8
0
 10
-46.6075
 20
-17.533
 11
-46.9123
 21
-17.3115
  0
LINE
  8
0
 10
-46.9123
 20
-17.3115
 11
-47.1869
 21
-17.0536
  0
LINE
  8
0
 10
-47.1869
 20
-17.0536
 11
-47.427
 21
-16.7634
  0
LINE
  8
0
 10
-47.427
 20
-16.7634
 11
-47.6289
 21
-16.4453
  0
LINE
  8
0
 10
-47.6289
 20
-16.4453
 11
-47.7893
 21
-16.1044
  0
LINE
  8
0
 10
-47.7893
 20
-16.1044
 11
-47.9057
 21
-15.7461
  0
LINE
  8
0
 10
-47.9057
 20
-15.7461
 11
-47.9763
 21
-15.376
  0
LINE
  8
0
 10
-47.9763
 20
-15.376
 11
-48
 21
-15
  0
LINE
  8
0
 10
-48
 20
-15
 11
-47.9763
 21
-14.624
  0
LINE
  8
0
 10
-47.9763
 20
-14.624
 11
-47.9057
 21
-14.2539
  0
LINE
  8
0
 10
-47.9057
 20
-14.2539
 11
-47.7893
 21
-13.8956
  0
LINE
  8
0
 10
-47.7893
 20
-13.8956
 11
-47.6289
 21
-13.5547
  0
LINE
  8
0
 10
-47.6289
 20
-13.5547
 11
-47.427
 21
-13.2366
  0
LINE
  8
0
 10
-47.427
 20
-13.2366
 11
-47.1869
 21
-12.9464
  0
LINE
  8
0
 10
-47.1869
 20
-12.9464
 11
-46.9123
 21
-12.6884
  0
LINE
  8
0
 10
-46.9123
 20
-12.6884
 11
-46.6075
 21
-12.467
  0
LINE
  8
0
 10
-46.6075
 20
-12.467
 11
-46.2773
 21
-12.2855
  0
LINE
  8
0
 10
-46.2773
 20
-12.2855
 11
-45.927
 21
-12.1468
  0
LINE
  8
0
 10
-45.927
 20
-12.1468
 11
-45.5621
 21
-12.0531
  0
LINE
  8
0
 10
-45.5621
 20
-12.0531
 11
-45.1884
 21
-12.0059
  0
LINE
  8
0
 10
-45.1884
 20
-12.0059
 11
-44.8116
 21
-12.0059
  0
LINE
  8
0
 10
-44.8116
 20
-12.0059
 11
-44.4379
 21
-12.0531
  0
LINE
  8
0
 10
-44.4379
 20
-12.0531
 11
-44.0729
 21
-12.1468
  0
LINE
  8
0
 10
-44.0729
 20
-12.1468
 11
-43.7227
 21
-12.2855
  0
LINE
  8
0
 10
-43.7227
 20
-12.2855
 11
-43.3925
 21
-12.467
  0
LINE
  8
0
 10
-43.3925
 20
-12.467
 11
-43.0877
 21
-12.6884
  0
LINE
  8
0
 10
-43.0877
 20
-12.6884
 11
-42.8131
 21
-12.9464
  0
LINE
  8
0
 10
-42.8131
 20
-12.9464
 11
-42.5729
 21
-13.2366
  0
LINE
  8
0
 10
-42.5729
 20
-13.2366
 11
-42.3711
 21
-13.5547
  0
LINE
  8
0
 10
-42.3711
 20
-13.5547
 11
-42.2107
 21
-13.8956
  0
LINE
  8
0
 10
-42.2107
 20
-13.8956
 11
-42.0942
 21
-14.2539
  0
LINE
  8
0
 10
-42.0942
 20
-14.2539
 11
-42.0237
 21
-14.624
  0
LINE
  8
0
 10
-42.0237
 20
-14.624
 11
-42
 21
-15
  0
LINE
  8
0
 10
-42
 20
-15
 11
-42.0237
 21
-15.376
  0
LINE
  8
0
 10
-42.0237
 20
-15.376
 11
-42.0942
 21
-15.7461
  0
LINE
  8
0
 10
-42.0942
 20
-15.7461
 11
-42.2107
 21
-16.1044
  0
LINE
  8
0
 10
-42.2107
 20
-16.1044
 11
-42.3711
 21
-16.4453
  0
LINE
  8
0
 10
-42.3711
 20
-16.4453
 11
-42.5729
 21
-16.7634
  0
LINE
  8
0
 10
-42.5729
 20
-16.7634
 11
-42.8131
 21
-17.0536
  0
LINE
  8
0
 10
-42.8131
 20
-17.0536
 11
-43.0877
 21
-17.3115
  0
LINE
  8
0
 10
-43.0877
 20
-17.3115
 11
-43.3925
 21
-17.533
  0
LINE
  8
0
 10
-43.3925
 20
-17.533
 11
-43.7227
 21
-17.7145
  0
LINE
  8
0
 10
-43.7227
 20
-17.7145
 11
-44.0729
 21
-17.8532
  0
LINE
  8
0
 10
-44.0729
 20
-17.8532
 11
-44.4379
 21
-17.9469
  0
LINE
  8
0
 10
-44.4379
 20
-17.9469
 11
-44.8116
 21
-17.9941
  0
LINE
  8
0
 10
-44.8116
 20
-17.9941
 11
-45.1884
 21
-17.9941
  0
ENDSEC
  0
SECTION
  2
OBJECTS
  0
DICTIONARY
  0
ENDSEC
  0
EOF
