<?xml version="1.0" standalone="no"?>
<!DOCTYPE svg PUBLIC "-//W3C//DTD SVG 1.1//EN" "http://www.w3.org/Graphics/SVG/1.1/DTD/svg11.dtd">
<svg width="60mm" height="14mm" viewBox="-30 -7 60 14" xmlns="http://www.w3.org/2000/svg" version="1.1">
<title>OpenSCAD Model</title>
<path d="
M 25.4369,6.91142 L 26.0451,6.75528 L 26.6289,6.52412 L 27.1791,6.22163 L 27.6871,5.85255 L 28.1448,5.42273
 L 28.5451,4.93892 L 28.8815,4.40877 L 29.1489,3.84062 L 29.3429,3.24344 L 29.4606,2.62666 L 29.5,2
 L 29.5,-2 L 29.4606,-2.62666 L 29.3429,-3.24344 L 29.1489,-3.84062 L 28.8815,-4.40877 L 28.5451,-4.93892
 L 28.1448,-5.42273 L 27.6871,-5.85255 L 27.1791,-6.22163 L 26.6289,-6.52412 L 26.0451,-6.75528 L 25.4369,-6.91142
 L 24.8139,-6.99013 L -24.8139,-6.99013 L -25.4369,-6.91142 L -26.0451,-6.75528 L -26.6289,-6.52412 L -27.1791,-6.22163
 L -27.6871,-5.85255 L -28.1448,-5.42273 L -28.5451,-4.93892 L -28.8815,-4.40877 L -29.1489,-3.84062 L -29.3429,-3.24344
 L -29.4606,-2.62666 L -29.5,-2 L -29.5,2 L -29.4606,2.62666 L -29.3429,3.24344 L -29.1489,3.84062
 L -28.8815,4.40877 L -28.5451,4.93892 L -28.1448,5.42273 L -27.6871,5.85255 L -27.1791,6.22163 L -26.6289,6.52412
 L -26.0451,6.75528 L -25.4369,6.91142 L -24.8139,6.99013 L 24.8139,6.99013 z
M 5.78023,3.49309 L 5.34416,3.438 L 4.91843,3.32869 L 4.50977,3.16689 L 4.1246,2.95514 L 3.76901,2.69679
 L 3.44861,2.3959 L 3.16843,2.05724 L 2.93292,1.68613 L 2.74577,1.28842 L 2.60995,0.870407 L 2.52759,0.43866
 L 2.5,-0 L 2.52759,-0.43866 L 2.60995,-0.870407 L 2.74577,-1.28842 L 2.93292,-1.68613 L 3.16843,-2.05724
 L 3.44861,-2.3959 L 3.76901,-2.69679 L 4.1246,-2.95514 L 4.50977,-3.16689 L 4.91843,-3.32869 L 5.34416,-3.438
 L 5.78023,-3.49309 L 6.21976,-3.49309 L 6.65582,-3.438 L 7.08156,-3.32869 L 7.49022,-3.16689 L 7.87538,-2.95514
 L 8.23097,-2.69679 L 8.55138,-2.3959 L 8.83156,-2.05724 L 9.06706,-1.68613 L 9.25421,-1.28842 L 9.39003,-0.870407
 L 9.4724,-0.43866 L 9.5,-0 L 9.4724,0.43866 L 9.39003,0.870407 L 9.25421,1.28842 L 9.06706,1.68613
 L 8.83156,2.05724 L 8.55138,2.3959 L 8.23097,2.69679 L 7.87538,2.95514 L 7.49022,3.16689 L 7.08156,3.32869
 L 6.65582,3.438 L 6.21976,3.49309 z
M -18.2198,3.49309 L -18.6558,3.438 L -19.0816,3.32869 L -19.4902,3.16689 L -19.8754,2.95514 L -20.231,2.69679
 L -20.5514,2.3959 L -20.6086,2.32672 L -20.8925,2.53297 L -21.2227,2.71448 L -21.5729,2.85316 L -21.9379,2.94685
 L -22.3116,2.99408 L -22.6884,2.99408 L -23.0621,2.94685 L -23.427,2.85316 L -23.7773,2.71448 L -24.1075,2.53297
 L -24.4123,2.31154 L -24.6869,2.05363 L -24.927,1.76335 L -25.1289,1.44525 L -25.2893,1.10437 L -25.4057,0.746063
 L -25.4763,0.375992 L -25.5,-0 L -25.4763,-0.375992 L -25.4057,-0.746063 L -25.2893,-1.10437 L -25.1289,-1.44525
 L -24.927,-1.76335 L -24.6869,-2.05363 L -24.4123,-2.31154 L -24.1075,-2.53297 L -23.7773,-2.71448 L -23.427,-2.85316
 L -23.0621,-2.94685 L -22.6884,-2.99408 L -22.3116,-2.99408 L -21.9379,-2.94685 L -21.5729,-2.85316 L -21.2227,-2.71448
 L -20.8925,-2.53297 L -20.6086,-2.32672 L -20.5514,-2.3959 L -20.231,-2.69679 L -19.8754,-2.95514 L -19.4902,-3.16689
 L -19.0816,-3.32869 L -18.6558,-3.438 L -18.2198,-3.49309 L -17.7802,-3.49309 L -17.3442,-3.438 L -16.9184,-3.32869
 L -16.5098,-3.16689 L -16.1246,-2.95514 L -15.769,-2.69679 L -15.4486,-2.3959 L -15.1684,-2.05724 L -14.9329,-1.68613
 L -14.7458,-1.28842 L -14.61,-0.870407 L -14.5276,-0.43866 L -14.5,-0 L -14.5276,0.43866 L -14.61,0.870407
 L -14.7458,1.28842 L -14.9329,1.68613 L -15.1684,2.05724 L -15.4486,2.3959 L -15.769,2.69679 L -16.1246,2.95514
 L -16.5098,3.16689 L -16.9184,3.32869 L -17.3442,3.438 L -17.7802,3.49309 z
M 17.7802,3.49309 L 17.3442,3.438 L 16.9184,3.32869 L 16.5098,3.16689 L 16.1246,2.95514 L 15.769,2.69679
 L 15.4486,2.3959 L 15.1684,2.05724 L 14.9329,1.68613 L 14.7458,1.28842 L 14.61,0.870407 L 14.5276,0.43866
 L 14.5,-0 L 14.5276,-0.43866 L 14.61,-0.870407 L 14.7458,-1.28842 L 14.9329,-1.68613 L 15.1684,-2.05724
 L 15.4486,-2.3959 L 15.769,-2.69679 L 16.1246,-2.95514 L 16.5098,-3.16689 L 16.9184,-3.32869 L 17.3442,-3.438
 L 17.7802,-3.49309 L 18.2198,-3.49309 L 18.6558,-3.438 L 19.0816,-3.32869 L 19.4902,-3.16689 L 19.8754,-2.95514
 L 20.231,-2.69679 L 20.5514,-2.3959 L 20.6086,-2.32672 L 20.8925,-2.53297 L 21.2227,-2.71448 L 21.5729,-2.85316
 L 21.9379,-2.94685 L 22.3116,-2.99408 L 22.6884,-2.99408 L 23.0621,-2.94685 L 23.427,-2.85316 L 23.7773,-2.71448
 L 24.1075,-2.53297 L 24.4123,-2.31154 L 24.6869,-2.05363 L 24.927,-1.76335 L 25.1289,-1.44525 L 25.2893,-1.10437
 L 25.4057,-0.746063 L 25.4763,-0.375992 L 25.5,-0 L 25.4763,0.375992 L 25.4057,0.746063 L 25.2893,1.10437
 L 25.1289,1.44525 L 24.927,1.76335 L 24.6869,2.05363 L 24.4123,2.31154 L 24.1075,2.53297 L 23.7773,2.71448
 L 23.427,2.85316 L 23.0621,2.94685 L 22.6884,2.99408 L 22.3116,2.99408 L 21.9379,2.94685 L 21.5729,2.85316
 L 21.2227,2.71448 L 20.8925,2.53297 L 20.6086,2.32672 L 20.5514,2.3959 L 20.231,2.69679 L 19.8754,2.95514
 L 19.4902,3.16689 L 19.0816,3.32869 L 18.6558,3.438 L 18.2198,3.49309 z
M -6.21976,3.49309 L -6.65582,3.438 L -7.08156,3.32869 L -7.49022,3.16689 L -7.87538,2.95514 L -8.23097,2.69679
 L -8.55138,2.3959 L -8.83156,2.05724 L -9.06706,1.68613 L -9.25421,1.28842 L -9.39003,0.870407 L -9.4724,0.43866
 L -9.5,-0 L -9.4724,-0.43866 L -9.39003,-0.870407 L -9.25421,-1.28842 L -9.06706,-1.68613 L -8.83156,-2.05724
 L -8.55138,-2.3959 L -8.23097,-2.69679 L -7.87538,-2.95514 L -7.49022,-3.16689 L -7.08156,-3.32869 L -6.65582,-3.438
 L -6.21976,-3.49309 L -5.78023,-3.49309 L -5.34416,-3.438 L -4.91843,-3.32869 L -4.50977,-3.16689 L -4.1246,-2.95514
 L -3.76901,-2.69679 L -3.44861,-2.3959 L -3.16843,-2.05724 L -2.93292,-1.68613 L -2.74577,-1.28842 L -2.60995,-0.870407
 L -2.52759,-0.43866 L -2.5,-0 L -2.52759,0.43866 L -2.60995,0.870407 L -2.74577,1.28842 L -2.93292,1.68613
 L -3.16843,2.05724 L -3.44861,2.3959 L -3.76901,2.69679 L -4.1246,2.95514 L -4.50977,3.16689 L -4.91843,3.32869
 L -5.34416,3.438 L -5.78023,3.49309 z
" stroke="black" fill="lightgray" stroke-width="0.5"/>
</svg>
