<?xml version="1.0" standalone="no"?>
<!DOCTYPE svg PUBLIC "-//W3C//DTD SVG 1.1//EN" "http://www.w3.org/Graphics/SVG/1.1/DTD/svg11.dtd">
<svg width="150mm" height="44mm" viewBox="-75 -22 150 44" xmlns="http://www.w3.org/2000/svg" version="1.1">
<title>OpenSCAD Model</title>
<path d="
M 70.4369,21.9114 L 71.0451,21.7553 L 71.6289,21.5241 L 72.1791,21.2216 L 72.6871,20.8526 L 73.1448,20.4227
 L 73.5451,19.9389 L 73.8815,19.4088 L 74.1489,18.8406 L 74.3429,18.2434 L 74.4606,17.6267 L 74.5,17
 L 74.5,-17 L 74.4606,-17.6267 L 74.3429,-18.2434 L 74.1489,-18.8406 L 73.8815,-19.4088 L 73.5451,-19.9389
 L 73.1448,-20.4227 L 72.6871,-20.8526 L 72.1791,-21.2216 L 71.6289,-21.5241 L 71.0451,-21.7553 L 70.4369,-21.9114
 L 69.8139,-21.9901 L -69.8139,-21.9901 L -70.4369,-21.9114 L -71.0451,-21.7553 L -71.6289,-21.5241 L -72.1791,-21.2216
 L -72.6871,-20.8526 L -73.1448,-20.4227 L -73.5451,-19.9389 L -73.8815,-19.4088 L -74.1489,-18.8406 L -74.3429,-18.2434
 L -74.4606,-17.6267 L -74.5,-17 L -74.5,17 L -74.4606,17.6267 L -74.3429,18.2434 L -74.1489,18.8406
 L -73.8815,19.4088 L -73.5451,19.9389 L -73.1448,20.4227 L -72.6871,20.8526 L -72.1791,21.2216 L -71.6289,21.5241
 L -71.0451,21.7553 L -70.4369,21.9114 L -69.8139,21.9901 L 69.8139,21.9901 z
M -67.6884,-12.0059 L -68.0621,-12.0531 L -68.427,-12.1468 L -68.7773,-12.2855 L -69.1075,-12.467 L -69.4123,-12.6884
 L -69.6869,-12.9464 L -69.927,-13.2366 L -70.1289,-13.5547 L -70.2893,-13.8956 L -70.4057,-14.2539 L -70.4763,-14.624
 L -70.5,-15 L -70.4763,-15.376 L -70.4057,-15.7461 L -70.2893,-16.1044 L -70.1289,-16.4453 L -69.927,-16.7634
 L -69.6869,-17.0536 L -69.4123,-17.3115 L -69.1075,-17.533 L -68.7773,-17.7145 L -68.427,-17.8532 L -68.0621,-17.9469
 L -67.6884,-17.9941 L -67.3116,-17.9941 L -66.9379,-17.9469 L -66.573,-17.8532 L -66.2227,-17.7145 L -65.8925,-17.533
 L -65.5877,-17.3115 L -65.3131,-17.0536 L -65.073,-16.7634 L -64.8711,-16.4453 L -64.7107,-16.1044 L -64.5943,-15.7461
 L -64.5237,-15.376 L -64.5,-15 L -64.5237,-14.624 L -64.5943,-14.2539 L -64.7107,-13.8956 L -64.8711,-13.5547
 L -65.073,-13.2366 L -65.3131,-12.9464 L -65.5877,-12.6884 L -65.8925,-12.467 L -66.2227,-12.2855 L -66.573,-12.1468
 L -66.9379,-12.0531 L -67.3116,-12.0059 z
M 67.3116,-12.0059 L 66.9379,-12.0531 L 66.573,-12.1468 L 66.2227,-12.2855 L 65.8925,-12.467 L 65.5877,-12.6884
 L 65.3131,-12.9464 L 65.073,-13.2366 L 64.8711,-13.5547 L 64.7107,-13.8956 L 64.5943,-14.2539 L 64.5237,-14.624
 L 64.5,-15 L 64.5237,-15.376 L 64.5943,-15.7461 L 64.7107,-16.1044 L 64.8711,-16.4453 L 65.073,-16.7634
 L 65.3131,-17.0536 L 65.5877,-17.3115 L 65.8925,-17.533 L 66.2227,-17.7145 L 66.573,-17.8532 L 66.9379,-17.9469
 L 67.3116,-17.9941 L 67.6884,-17.9941 L 68.0621,-17.9469 L 68.427,-17.8532 L 68.7773,-17.7145 L 69.1075,-17.533
 L 69.4123,-17.3115 L 69.6869,-17.0536 L 69.927,-16.7634 L 70.1289,-16.4453 L 70.2893,-16.1044 L 70.4057,-15.7461
 L 70.4763,-15.376 L 70.5,-15 L 70.4763,-14.624 L 70.4057,-14.2539 L 70.2893,-13.8956 L 70.1289,-13.5547
 L 69.927,-13.2366 L 69.6869,-12.9464 L 69.4123,-12.6884 L 69.1075,-12.467 L 68.7773,-12.2855 L 68.427,-12.1468
 L 68.0621,-12.0531 L 67.6884,-12.0059 z
M 16.0895,14.4714 L 14.283,14.2432 L 12.5192,13.7903 L 10.8262,13.12 L 9.2305,12.2428 L 7.75734,11.1724
 L 6.42995,9.92592 L 5.26924,8.52287 L 4.29355,6.98543 L 3.51823,5.3378 L 2.95554,3.606 L 2.61433,1.81732
 L 2.5,-0 L 2.61433,-1.81732 L 2.95554,-3.606 L 3.51823,-5.3378 L 4.29355,-6.98543 L 5.26924,-8.52287
 L 6.42995,-9.92592 L 7.75734,-11.1724 L 9.2305,-12.2428 L 10.8262,-13.12 L 12.5192,-13.7903 L 14.283,-14.2432
 L 16.0895,-14.4714 L 17.9105,-14.4714 L 19.717,-14.2432 L 21.4807,-13.7903 L 23.1738,-13.12 L 24.7695,-12.2428
 L 26.2426,-11.1724 L 27.57,-9.92592 L 28.7307,-8.52287 L 29.7064,-6.98543 L 30.4818,-5.3378 L 31.0444,-3.606
 L 31.3857,-1.81732 L 31.5,-0 L 31.3857,1.81732 L 31.0444,3.606 L 30.4818,5.3378 L 29.7064,6.98543
 L 28.7307,8.52287 L 27.57,9.92592 L 26.2426,11.1724 L 24.7695,12.2428 L 23.1738,13.12 L 21.4807,13.7903
 L 19.717,14.2432 L 17.9105,14.4714 z
M -17.9105,14.4714 L -19.717,14.2432 L -21.4807,13.7903 L -23.1738,13.12 L -24.7695,12.2428 L -26.2426,11.1724
 L -27.57,9.92592 L -28.7307,8.52287 L -29.7064,6.98543 L -30.4818,5.3378 L -31.0444,3.606 L -31.3857,1.81732
 L -31.5,-0 L -31.3857,-1.81732 L -31.0444,-3.606 L -30.4818,-5.3378 L -29.7064,-6.98543 L -28.7307,-8.52287
 L -27.57,-9.92592 L -26.2426,-11.1724 L -24.7695,-12.2428 L -23.1738,-13.12 L -21.4807,-13.7903 L -19.717,-14.2432
 L -17.9105,-14.4714 L -16.0895,-14.4714 L -14.283,-14.2432 L -12.5192,-13.7903 L -10.8262,-13.12 L -9.2305,-12.2428
 L -7.75734,-11.1724 L -6.42995,-9.92592 L -5.26924,-8.52287 L -4.29355,-6.98543 L -3.51823,-5.3378 L -2.95554,-3.606
 L -2.61433,-1.81732 L -2.5,-0 L -2.61433,1.81732 L -2.95554,3.606 L -3.51823,5.3378 L -4.29355,6.98543
 L -5.26924,8.52287 L -6.42995,9.92592 L -7.75734,11.1724 L -9.2305,12.2428 L -10.8262,13.12 L -12.5192,13.7903
 L -14.283,14.2432 L -16.0895,14.4714 z
M -51.9105,14.4714 L -53.717,14.2432 L -55.4807,13.7903 L -57.1738,13.12 L -58.7695,12.2428 L -60.2426,11.1724
 L -61.57,9.92592 L -62.7307,8.52287 L -63.7064,6.98543 L -64.4818,5.3378 L -65.0444,3.606 L -65.3857,1.81732
 L -65.5,-0 L -65.3857,-1.81732 L -65.0444,-3.606 L -64.4818,-5.3378 L -63.7064,-6.98543 L -62.7307,-8.52287
 L -61.57,-9.92592 L -60.2426,-11.1724 L -58.7695,-12.2428 L -57.1738,-13.12 L -55.4807,-13.7903 L -53.717,-14.2432
 L -51.9105,-14.4714 L -50.0895,-14.4714 L -48.283,-14.2432 L -46.5192,-13.7903 L -44.8262,-13.12 L -43.2305,-12.2428
 L -41.7573,-11.1724 L -40.4299,-9.92592 L -39.2692,-8.52287 L -38.2935,-6.98543 L -37.5182,-5.3378 L -36.9555,-3.606
 L -36.6143,-1.81732 L -36.5,-0 L -36.6143,1.81732 L -36.9555,3.606 L -37.5182,5.3378 L -38.2935,6.98543
 L -39.2692,8.52287 L -40.4299,9.92592 L -41.7573,11.1724 L -43.2305,12.2428 L -44.8262,13.12 L -46.5192,13.7903
 L -48.283,14.2432 L -50.0895,14.4714 z
M 50.0895,14.4714 L 48.283,14.2432 L 46.5192,13.7903 L 44.8262,13.12 L 43.2305,12.2428 L 41.7573,11.1724
 L 40.4299,9.92592 L 39.2692,8.52287 L 38.2935,6.98543 L 37.5182,5.3378 L 36.9555,3.606 L 36.6143,1.81732
 L 36.5,-0 L 36.6143,-1.81732 L 36.9555,-3.606 L 37.5182,-5.3378 L 38.2935,-6.98543 L 39.2692,-8.52287
 L 40.4299,-9.92592 L 41.7573,-11.1724 L 43.2305,-12.2428 L 44.8262,-13.12 L 46.5192,-13.7903 L 48.283,-14.2432
 L 50.0895,-14.4714 L 51.9105,-14.4714 L 53.717,-14.2432 L 55.4807,-13.7903 L 57.1738,-13.12 L 58.7695,-12.2428
 L 60.2426,-11.1724 L 61.57,-9.92592 L 62.7307,-8.52287 L 63.7064,-6.98543 L 64.4818,-5.3378 L 65.0444,-3.606
 L 65.3857,-1.81732 L 65.5,-0 L 65.3857,1.81732 L 65.0444,3.606 L 64.4818,5.3378 L 63.7064,6.98543
 L 62.7307,8.52287 L 61.57,9.92592 L 60.2426,11.1724 L 58.7695,12.2428 L 57.1738,13.12 L 55.4807,13.7903
 L 53.717,14.2432 L 51.9105,14.4714 z
M 67.3116,17.9941 L 66.9379,17.9469 L 66.573,17.8532 L 66.2227,17.7145 L 65.8925,17.533 L 65.5877,17.3115
 L 65.3131,17.0536 L 65.073,16.7634 L 64.8711,16.4453 L 64.7107,16.1044 L 64.5943,15.7461 L 64.5237,15.376
 L 64.5,15 L 64.5237,14.624 L 64.5943,14.2539 L 64.7107,13.8956 L 64.8711,13.5547 L 65.073,13.2366
 L 65.3131,12.9464 L 65.5877,12.6884 L 65.8925,12.467 L 66.2227,12.2855 L 66.573,12.1468 L 66.9379,12.0531
 L 67.3116,12.0059 L 67.6884,12.0059 L 68.0621,12.0531 L 68.427,12.1468 L 68.7773,12.2855 L 69.1075,12.467
 L 69.4123,12.6884 L 69.6869,12.9464 L 69.927,13.2366 L 70.1289,13.5547 L 70.2893,13.8956 L 70.4057,14.2539
 L 70.4763,14.624 L 70.5,15 L 70.4763,15.376 L 70.4057,15.7461 L 70.2893,16.1044 L 70.1289,16.4453
 L 69.927,16.7634 L 69.6869,17.0536 L 69.4123,17.3115 L 69.1075,17.533 L 68.7773,17.7145 L 68.427,17.8532
 L 68.0621,17.9469 L 67.6884,17.9941 z
M -67.6884,17.9941 L -68.0621,17.9469 L -68.427,17.8532 L -68.7773,17.7145 L -69.1075,17.533 L -69.4123,17.3115
 L -69.6869,17.0536 L -69.927,16.7634 L -70.1289,16.4453 L -70.2893,16.1044 L -70.4057,15.7461 L -70.4763,15.376
 L -70.5,15 L -70.4763,14.624 L -70.4057,14.2539 L -70.2893,13.8956 L -70.1289,13.5547 L -69.927,13.2366
 L -69.6869,12.9464 L -69.4123,12.6884 L -69.1075,12.467 L -68.7773,12.2855 L -68.427,12.1468 L -68.0621,12.0531
 L -67.6884,12.0059 L -67.3116,12.0059 L -66.9379,12.0531 L -66.573,12.1468 L -66.2227,12.2855 L -65.8925,12.467
 L -65.5877,12.6884 L -65.3131,12.9464 L -65.073,13.2366 L -64.8711,13.5547 L -64.7107,13.8956 L -64.5943,14.2539
 L -64.5237,14.624 L -64.5,15 L -64.5237,15.376 L -64.5943,15.7461 L -64.7107,16.1044 L -64.8711,16.4453
 L -65.073,16.7634 L -65.3131,17.0536 L -65.5877,17.3115 L -65.8925,17.533 L -66.2227,17.7145 L -66.573,17.8532
 L -66.9379,17.9469 L -67.3116,17.9941 z
" stroke="black" fill="lightgray" stroke-width="0.5"/>
</svg>
