<?xml version="1.0" standalone="no"?>
<!DOCTYPE svg PUBLIC "-//W3C//DTD SVG 1.1//EN" "http://www.w3.org/Graphics/SVG/1.1/DTD/svg11.dtd">
<svg width="180mm" height="74mm" viewBox="-90 -37 180 74" xmlns="http://www.w3.org/2000/svg" version="1.1">
<title>OpenSCAD Model</title>
<path d="
M 85.4369,36.9114 L 86.0451,36.7553 L 86.6289,36.5241 L 87.1791,36.2216 L 87.6871,35.8526 L 88.1448,35.4227
 L 88.5451,34.9389 L 88.8815,34.4088 L 89.1489,33.8406 L 89.3429,33.2434 L 89.4606,32.6267 L 89.5,32
 L 89.5,-32 L 89.4606,-32.6267 L 89.3429,-33.2434 L 89.1489,-33.8406 L 88.8815,-34.4088 L 88.5451,-34.9389
 L 88.1448,-35.4227 L 87.6871,-35.8526 L 87.1791,-36.2216 L 86.6289,-36.5241 L 86.0451,-36.7553 L 85.4369,-36.9114
 L 84.8139,-36.9901 L -84.8139,-36.9901 L -85.4369,-36.9114 L -86.0451,-36.7553 L -86.6289,-36.5241 L -87.1791,-36.2216
 L -87.6871,-35.8526 L -88.1448,-35.4227 L -88.5451,-34.9389 L -88.8815,-34.4088 L -89.1489,-33.8406 L -89.3429,-33.2434
 L -89.4606,-32.6267 L -89.5,-32 L -89.5,32 L -89.4606,32.6267 L -89.3429,33.2434 L -89.1489,33.8406
 L -88.8815,34.4088 L -88.5451,34.9389 L -88.1448,35.4227 L -87.6871,35.8526 L -87.1791,36.2216 L -86.6289,36.5241
 L -86.0451,36.7553 L -85.4369,36.9114 L -84.8139,36.9901 L 84.8139,36.9901 z
M 82.3116,-27.0059 L 81.9379,-27.0531 L 81.573,-27.1468 L 81.2227,-27.2855 L 80.8925,-27.467 L 80.5877,-27.6884
 L 80.3131,-27.9464 L 80.073,-28.2366 L 79.8711,-28.5547 L 79.7107,-28.8956 L 79.5943,-29.2539 L 79.5237,-29.624
 L 79.5,-30 L 79.5237,-30.376 L 79.5943,-30.7461 L 79.7107,-31.1044 L 79.8711,-31.4453 L 80.073,-31.7634
 L 80.3131,-32.0536 L 80.5877,-32.3115 L 80.8925,-32.533 L 81.2227,-32.7145 L 81.573,-32.8532 L 81.9379,-32.9469
 L 82.3116,-32.9941 L 82.6884,-32.9941 L 83.0621,-32.9469 L 83.427,-32.8532 L 83.7773,-32.7145 L 84.1075,-32.533
 L 84.4123,-32.3115 L 84.6869,-32.0536 L 84.927,-31.7634 L 85.1289,-31.4453 L 85.2893,-31.1044 L 85.4057,-30.7461
 L 85.4763,-30.376 L 85.5,-30 L 85.4763,-29.624 L 85.4057,-29.2539 L 85.2893,-28.8956 L 85.1289,-28.5547
 L 84.927,-28.2366 L 84.6869,-27.9464 L 84.4123,-27.6884 L 84.1075,-27.467 L 83.7773,-27.2855 L 83.427,-27.1468
 L 83.0621,-27.0531 L 82.6884,-27.0059 z
M -82.6884,-27.0059 L -83.0621,-27.0531 L -83.427,-27.1468 L -83.7773,-27.2855 L -84.1075,-27.467 L -84.4123,-27.6884
 L -84.6869,-27.9464 L -84.927,-28.2366 L -85.1289,-28.5547 L -85.2893,-28.8956 L -85.4057,-29.2539 L -85.4763,-29.624
 L -85.5,-30 L -85.4763,-30.376 L -85.4057,-30.7461 L -85.2893,-31.1044 L -85.1289,-31.4453 L -84.927,-31.7634
 L -84.6869,-32.0536 L -84.4123,-32.3115 L -84.1075,-32.533 L -83.7773,-32.7145 L -83.427,-32.8532 L -83.0621,-32.9469
 L -82.6884,-32.9941 L -82.3116,-32.9941 L -81.9379,-32.9469 L -81.573,-32.8532 L -81.2227,-32.7145 L -80.8925,-32.533
 L -80.5877,-32.3115 L -80.3131,-32.0536 L -80.073,-31.7634 L -79.8711,-31.4453 L -79.7107,-31.1044 L -79.5943,-30.7461
 L -79.5237,-30.376 L -79.5,-30 L -79.5237,-29.624 L -79.5943,-29.2539 L -79.7107,-28.8956 L -79.8711,-28.5547
 L -80.073,-28.2366 L -80.3131,-27.9464 L -80.5877,-27.6884 L -80.8925,-27.467 L -81.2227,-27.2855 L -81.573,-27.1468
 L -81.9379,-27.0531 L -82.3116,-27.0059 z
M -60.6953,26.9467 L -64.0593,26.5217 L -67.3435,25.6785 L -70.496,24.4303 L -73.4673,22.7968 L -76.2104,20.8038
 L -78.6821,18.4828 L -80.8435,15.8702 L -82.6603,13.0073 L -84.104,9.93936 L -85.1517,6.71461 L -85.7871,3.38399
 L -86,-0 L -85.7871,-3.38399 L -85.1517,-6.71461 L -84.104,-9.93936 L -82.6603,-13.0073 L -80.8435,-15.8702
 L -78.6821,-18.4828 L -76.2104,-20.8038 L -73.4673,-22.7968 L -70.496,-24.4303 L -67.3435,-25.6785 L -64.0593,-26.5217
 L -60.6953,-26.9467 L -57.3047,-26.9467 L -53.9407,-26.5217 L -50.6565,-25.6785 L -47.504,-24.4303 L -44.5327,-22.7968
 L -41.7896,-20.8038 L -39.3178,-18.4828 L -37.1565,-15.8702 L -35.3397,-13.0073 L -33.896,-9.93936 L -32.8483,-6.71461
 L -32.2129,-3.38399 L -32,-0 L -32.2129,3.38399 L -32.8483,6.71461 L -33.896,9.93936 L -35.3397,13.0073
 L -37.1565,15.8702 L -39.3178,18.4828 L -41.7896,20.8038 L -44.5327,22.7968 L -47.504,24.4303 L -50.6565,25.6785
 L -53.9407,26.5217 L -57.3047,26.9467 z
M -1.69534,26.9467 L -5.05928,26.5217 L -8.34344,25.6785 L -11.496,24.4303 L -14.4673,22.7968 L -17.2104,20.8038
 L -19.6821,18.4828 L -21.8434,15.8702 L -23.6603,13.0073 L -25.104,9.93936 L -26.1517,6.71461 L -26.7871,3.38399
 L -27,-0 L -26.7871,-3.38399 L -26.1517,-6.71461 L -25.104,-9.93936 L -23.6603,-13.0073 L -21.8434,-15.8702
 L -19.6821,-18.4828 L -17.2104,-20.8038 L -14.4673,-22.7968 L -11.496,-24.4303 L -8.34344,-25.6785 L -5.05928,-26.5217
 L -1.69534,-26.9467 L 1.69534,-26.9467 L 5.05928,-26.5217 L 8.34344,-25.6785 L 11.496,-24.4303 L 14.4673,-22.7968
 L 17.2104,-20.8038 L 19.6821,-18.4828 L 21.8434,-15.8702 L 23.6603,-13.0073 L 25.104,-9.93936 L 26.1517,-6.71461
 L 26.7871,-3.38399 L 27,-0 L 26.7871,3.38399 L 26.1517,6.71461 L 25.104,9.93936 L 23.6603,13.0073
 L 21.8434,15.8702 L 19.6821,18.4828 L 17.2104,20.8038 L 14.4673,22.7968 L 11.496,24.4303 L 8.34344,25.6785
 L 5.05928,26.5217 L 1.69534,26.9467 z
M 57.3047,26.9467 L 53.9407,26.5217 L 50.6565,25.6785 L 47.504,24.4303 L 44.5327,22.7968 L 41.7896,20.8038
 L 39.3178,18.4828 L 37.1565,15.8702 L 35.3397,13.0073 L 33.896,9.93936 L 32.8483,6.71461 L 32.2129,3.38399
 L 32,-0 L 32.2129,-3.38399 L 32.8483,-6.71461 L 33.896,-9.93936 L 35.3397,-13.0073 L 37.1565,-15.8702
 L 39.3178,-18.4828 L 41.7896,-20.8038 L 44.5327,-22.7968 L 47.504,-24.4303 L 50.6565,-25.6785 L 53.9407,-26.5217
 L 57.3047,-26.9467 L 60.6953,-26.9467 L 64.0593,-26.5217 L 67.3435,-25.6785 L 70.496,-24.4303 L 73.4673,-22.7968
 L 76.2104,-20.8038 L 78.6821,-18.4828 L 80.8435,-15.8702 L 82.6603,-13.0073 L 84.104,-9.93936 L 85.1517,-6.71461
 L 85.7871,-3.38399 L 86,-0 L 85.7871,3.38399 L 85.1517,6.71461 L 84.104,9.93936 L 82.6603,13.0073
 L 80.8435,15.8702 L 78.6821,18.4828 L 76.2104,20.8038 L 73.4673,22.7968 L 70.496,24.4303 L 67.3435,25.6785
 L 64.0593,26.5217 L 60.6953,26.9467 z
M 82.3116,32.9941 L 81.9379,32.9469 L 81.573,32.8532 L 81.2227,32.7145 L 80.8925,32.533 L 80.5877,32.3115
 L 80.3131,32.0536 L 80.073,31.7634 L 79.8711,31.4453 L 79.7107,31.1044 L 79.5943,30.7461 L 79.5237,30.376
 L 79.5,30 L 79.5237,29.624 L 79.5943,29.2539 L 79.7107,28.8956 L 79.8711,28.5547 L 80.073,28.2366
 L 80.3131,27.9464 L 80.5877,27.6884 L 80.8925,27.467 L 81.2227,27.2855 L 81.573,27.1468 L 81.9379,27.0531
 L 82.3116,27.0059 L 82.6884,27.0059 L 83.0621,27.0531 L 83.427,27.1468 L 83.7773,27.2855 L 84.1075,27.467
 L 84.4123,27.6884 L 84.6869,27.9464 L 84.927,28.2366 L 85.1289,28.5547 L 85.2893,28.8956 L 85.4057,29.2539
 L 85.4763,29.624 L 85.5,30 L 85.4763,30.376 L 85.4057,30.7461 L 85.2893,31.1044 L 85.1289,31.4453
 L 84.927,31.7634 L 84.6869,32.0536 L 84.4123,32.3115 L 84.1075,32.533 L 83.7773,32.7145 L 83.427,32.8532
 L 83.0621,32.9469 L 82.6884,32.9941 z
M -82.6884,32.9941 L -83.0621,32.9469 L -83.427,32.8532 L -83.7773,32.7145 L -84.1075,32.533 L -84.4123,32.3115
 L -84.6869,32.0536 L -84.927,31.7634 L -85.1289,31.4453 L -85.2893,31.1044 L -85.4057,30.7461 L -85.4763,30.376
 L -85.5,30 L -85.4763,29.624 L -85.4057,29.2539 L -85.2893,28.8956 L -85.1289,28.5547 L -84.927,28.2366
 L -84.6869,27.9464 L -84.4123,27.6884 L -84.1075,27.467 L -83.7773,27.2855 L -83.427,27.1468 L -83.0621,27.0531
 L -82.6884,27.0059 L -82.3116,27.0059 L -81.9379,27.0531 L -81.573,27.1468 L -81.2227,27.2855 L -80.8925,27.467
 L -80.5877,27.6884 L -80.3131,27.9464 L -80.073,28.2366 L -79.8711,28.5547 L -79.7107,28.8956 L -79.5943,29.2539
 L -79.5237,29.624 L -79.5,30 L -79.5237,30.376 L -79.5943,30.7461 L -79.7107,31.1044 L -79.8711,31.4453
 L -80.073,31.7634 L -80.3131,32.0536 L -80.5877,32.3115 L -80.8925,32.533 L -81.2227,32.7145 L -81.573,32.8532
 L -81.9379,32.9469 L -82.3116,32.9941 z
" stroke="black" fill="lightgray" stroke-width="0.5"/>
</svg>
