<?xml version="1.0" standalone="no"?>
<!DOCTYPE svg PUBLIC "-//W3C//DTD SVG 1.1//EN" "http://www.w3.org/Graphics/SVG/1.1/DTD/svg11.dtd">
<svg width="270mm" height="60mm" viewBox="-135 -30 270 60" xmlns="http://www.w3.org/2000/svg" version="1.1">
<title>OpenSCAD Model</title>
<path d="
M 130.437,29.4114 L 131.045,29.2553 L 131.629,29.0241 L 132.179,28.7216 L 132.687,28.3526 L 133.145,27.9227
 L 133.545,27.4389 L 133.882,26.9088 L 134.149,26.3406 L 134.343,25.7434 L 134.461,25.1267 L 134.5,24.5
 L 134.5,-24.5 L 134.461,-25.1267 L 134.343,-25.7434 L 134.149,-26.3406 L 133.882,-26.9088 L 133.545,-27.4389
 L 133.145,-27.9227 L 132.687,-28.3526 L 132.179,-28.7216 L 131.629,-29.0241 L 131.045,-29.2553 L 130.437,-29.4114
 L 129.814,-29.4901 L -129.814,-29.4901 L -130.437,-29.4114 L -131.045,-29.2553 L -131.629,-29.0241 L -132.179,-28.7216
 L -132.687,-28.3526 L -133.145,-27.9227 L -133.545,-27.4389 L -133.882,-26.9088 L -134.149,-26.3406 L -134.343,-25.7434
 L -134.461,-25.1267 L -134.5,-24.5 L -134.5,24.5 L -134.461,25.1267 L -134.343,25.7434 L -134.149,26.3406
 L -133.882,26.9088 L -133.545,27.4389 L -133.145,27.9227 L -132.687,28.3526 L -132.179,28.7216 L -131.629,29.0241
 L -131.045,29.2553 L -130.437,29.4114 L -129.814,29.4901 L 129.814,29.4901 z
M -127.688,-19.5059 L -128.062,-19.5531 L -128.427,-19.6468 L -128.777,-19.7855 L -129.107,-19.967 L -129.412,-20.1884
 L -129.687,-20.4464 L -129.927,-20.7366 L -130.129,-21.0547 L -130.289,-21.3956 L -130.406,-21.7539 L -130.476,-22.124
 L -130.5,-22.5 L -130.476,-22.876 L -130.406,-23.2461 L -130.289,-23.6044 L -130.129,-23.9453 L -129.927,-24.2634
 L -129.687,-24.5536 L -129.412,-24.8115 L -129.107,-25.033 L -128.777,-25.2145 L -128.427,-25.3532 L -128.062,-25.4469
 L -127.688,-25.4941 L -127.312,-25.4941 L -126.938,-25.4469 L -126.573,-25.3532 L -126.223,-25.2145 L -125.893,-25.033
 L -125.588,-24.8115 L -125.313,-24.5536 L -125.073,-24.2634 L -124.871,-23.9453 L -124.711,-23.6044 L -124.594,-23.2461
 L -124.524,-22.876 L -124.5,-22.5 L -124.524,-22.124 L -124.594,-21.7539 L -124.711,-21.3956 L -124.871,-21.0547
 L -125.073,-20.7366 L -125.313,-20.4464 L -125.588,-20.1884 L -125.893,-19.967 L -126.223,-19.7855 L -126.573,-19.6468
 L -126.938,-19.5531 L -127.312,-19.5059 z
M 127.312,-19.5059 L 126.938,-19.5531 L 126.573,-19.6468 L 126.223,-19.7855 L 125.893,-19.967 L 125.588,-20.1884
 L 125.313,-20.4464 L 125.073,-20.7366 L 124.871,-21.0547 L 124.711,-21.3956 L 124.594,-21.7539 L 124.524,-22.124
 L 124.5,-22.5 L 124.524,-22.876 L 124.594,-23.2461 L 124.711,-23.6044 L 124.871,-23.9453 L 125.073,-24.2634
 L 125.313,-24.5536 L 125.588,-24.8115 L 125.893,-25.033 L 126.223,-25.2145 L 126.573,-25.3532 L 126.938,-25.4469
 L 127.312,-25.4941 L 127.688,-25.4941 L 128.062,-25.4469 L 128.427,-25.3532 L 128.777,-25.2145 L 129.107,-25.033
 L 129.412,-24.8115 L 129.687,-24.5536 L 129.927,-24.2634 L 130.129,-23.9453 L 130.289,-23.6044 L 130.406,-23.2461
 L 130.476,-22.876 L 130.5,-22.5 L 130.476,-22.124 L 130.406,-21.7539 L 130.289,-21.3956 L 130.129,-21.0547
 L 129.927,-20.7366 L 129.687,-20.4464 L 129.412,-20.1884 L 129.107,-19.967 L 128.777,-19.7855 L 128.427,-19.6468
 L 128.062,-19.5531 L 127.688,-19.5059 z
M -50.3814,21.9566 L -53.1224,21.6103 L -55.7984,20.9232 L -58.3671,19.9062 L -60.7882,18.5752 L -63.0233,16.9513
 L -65.0373,15.06 L -66.7984,12.9313 L -68.2787,10.5986 L -69.4551,8.09874 L -70.3088,5.47118 L -70.8265,2.75732
 L -71,-0 L -70.8265,-2.75732 L -70.3088,-5.47118 L -69.4551,-8.09874 L -68.2787,-10.5986 L -66.7984,-12.9313
 L -65.0373,-15.06 L -63.0233,-16.9513 L -60.7882,-18.5752 L -58.3671,-19.9062 L -55.7984,-20.9232 L -53.1224,-21.6103
 L -50.3814,-21.9566 L -47.6186,-21.9566 L -44.8776,-21.6103 L -42.2016,-20.9232 L -39.6328,-19.9062 L -37.2118,-18.5752
 L -34.9767,-16.9513 L -32.9627,-15.06 L -31.2016,-12.9313 L -29.7213,-10.5986 L -28.5449,-8.09874 L -27.6912,-5.47118
 L -27.1735,-2.75732 L -27,-0 L -27.1735,2.75732 L -27.6912,5.47118 L -28.5449,8.09874 L -29.7213,10.5986
 L -31.2016,12.9313 L -32.9627,15.06 L -34.9767,16.9513 L -37.2118,18.5752 L -39.6328,19.9062 L -42.2016,20.9232
 L -44.8776,21.6103 L -47.6186,21.9566 z
M -1.38138,21.9566 L -4.12238,21.6103 L -6.79837,20.9232 L -9.36714,19.9062 L -11.7882,18.5752 L -14.0233,16.9513
 L -16.0373,15.06 L -17.7984,12.9313 L -19.2787,10.5986 L -20.4551,8.09874 L -21.3088,5.47118 L -21.8265,2.75732
 L -22,-0 L -21.8265,-2.75732 L -21.3088,-5.47118 L -20.4551,-8.09874 L -19.2787,-10.5986 L -17.7984,-12.9313
 L -16.0373,-15.06 L -14.0233,-16.9513 L -11.7882,-18.5752 L -9.36714,-19.9062 L -6.79837,-20.9232 L -4.12238,-21.6103
 L -1.38138,-21.9566 L 1.38138,-21.9566 L 4.12238,-21.6103 L 6.79837,-20.9232 L 9.36714,-19.9062 L 11.7882,-18.5752
 L 14.0233,-16.9513 L 16.0373,-15.06 L 17.7984,-12.9313 L 19.2787,-10.5986 L 20.4551,-8.09874 L 21.3088,-5.47118
 L 21.8265,-2.75732 L 22,-0 L 21.8265,2.75732 L 21.3088,5.47118 L 20.4551,8.09874 L 19.2787,10.5986
 L 17.7984,12.9313 L 16.0373,15.06 L 14.0233,16.9513 L 11.7882,18.5752 L 9.36714,19.9062 L 6.79837,20.9232
 L 4.12238,21.6103 L 1.38138,21.9566 z
M 47.6186,21.9566 L 44.8776,21.6103 L 42.2016,20.9232 L 39.6328,19.9062 L 37.2118,18.5752 L 34.9767,16.9513
 L 32.9627,15.06 L 31.2016,12.9313 L 29.7213,10.5986 L 28.5449,8.09874 L 27.6912,5.47118 L 27.1735,2.75732
 L 27,-0 L 27.1735,-2.75732 L 27.6912,-5.47118 L 28.5449,-8.09874 L 29.7213,-10.5986 L 31.2016,-12.9313
 L 32.9627,-15.06 L 34.9767,-16.9513 L 37.2118,-18.5752 L 39.6328,-19.9062 L 42.2016,-20.9232 L 44.8776,-21.6103
 L 47.6186,-21.9566 L 50.3814,-21.9566 L 53.1224,-21.6103 L 55.7984,-20.9232 L 58.3671,-19.9062 L 60.7882,-18.5752
 L 63.0233,-16.9513 L 65.0373,-15.06 L 66.7984,-12.9313 L 68.2787,-10.5986 L 69.4551,-8.09874 L 70.3088,-5.47118
 L 70.8265,-2.75732 L 71,-0 L 70.8265,2.75732 L 70.3088,5.47118 L 69.4551,8.09874 L 68.2787,10.5986
 L 66.7984,12.9313 L 65.0373,15.06 L 63.0233,16.9513 L 60.7882,18.5752 L 58.3671,19.9062 L 55.7984,20.9232
 L 53.1224,21.6103 L 50.3814,21.9566 z
M 96.6186,21.9566 L 93.8776,21.6103 L 91.2016,20.9232 L 88.6329,19.9062 L 86.2118,18.5752 L 83.9767,16.9513
 L 81.9627,15.06 L 80.2016,12.9313 L 78.7213,10.5986 L 77.5449,8.09874 L 76.6912,5.47118 L 76.1735,2.75732
 L 76,-0 L 76.1735,-2.75732 L 76.6912,-5.47118 L 77.5449,-8.09874 L 78.7213,-10.5986 L 80.2016,-12.9313
 L 81.9627,-15.06 L 83.9767,-16.9513 L 86.2118,-18.5752 L 88.6329,-19.9062 L 91.2016,-20.9232 L 93.8776,-21.6103
 L 96.6186,-21.9566 L 99.3814,-21.9566 L 102.122,-21.6103 L 104.798,-20.9232 L 107.367,-19.9062 L 109.788,-18.5752
 L 112.023,-16.9513 L 114.037,-15.06 L 115.798,-12.9313 L 117.279,-10.5986 L 118.455,-8.09874 L 119.309,-5.47118
 L 119.827,-2.75732 L 120,-0 L 119.827,2.75732 L 119.309,5.47118 L 118.455,8.09874 L 117.279,10.5986
 L 115.798,12.9313 L 114.037,15.06 L 112.023,16.9513 L 109.788,18.5752 L 107.367,19.9062 L 104.798,20.9232
 L 102.122,21.6103 L 99.3814,21.9566 z
M -99.3814,21.9566 L -102.122,21.6103 L -104.798,20.9232 L -107.367,19.9062 L -109.788,18.5752 L -112.023,16.9513
 L -114.037,15.06 L -115.798,12.9313 L -117.279,10.5986 L -118.455,8.09874 L -119.309,5.47118 L -119.827,2.75732
 L -120,-0 L -119.827,-2.75732 L -119.309,-5.47118 L -118.455,-8.09874 L -117.279,-10.5986 L -115.798,-12.9313
 L -114.037,-15.06 L -112.023,-16.9513 L -109.788,-18.5752 L -107.367,-19.9062 L -104.798,-20.9232 L -102.122,-21.6103
 L -99.3814,-21.9566 L -96.6186,-21.9566 L -93.8776,-21.6103 L -91.2016,-20.9232 L -88.6329,-19.9062 L -86.2118,-18.5752
 L -83.9767,-16.9513 L -81.9627,-15.06 L -80.2016,-12.9313 L -78.7213,-10.5986 L -77.5449,-8.09874 L -76.6912,-5.47118
 L -76.1735,-2.75732 L -76,-0 L -76.1735,2.75732 L -76.6912,5.47118 L -77.5449,8.09874 L -78.7213,10.5986
 L -80.2016,12.9313 L -81.9627,15.06 L -83.9767,16.9513 L -86.2118,18.5752 L -88.6329,19.9062 L -91.2016,20.9232
 L -93.8776,21.6103 L -96.6186,21.9566 z
M -127.594,-13.5029 L -127.781,-13.5266 L -127.964,-13.5734 L -128.139,-13.6427 L -128.304,-13.7335 L -128.456,-13.8442
 L -128.593,-13.9732 L -128.714,-14.1183 L -128.814,-14.2774 L -128.895,-14.4478 L -128.953,-14.627 L -128.988,-14.812
 L -129,-15 L -128.988,-15.188 L -128.953,-15.373 L -128.895,-15.5522 L -128.814,-15.7226 L -128.714,-15.8817
 L -128.593,-16.0268 L -128.456,-16.1558 L -128.304,-16.2665 L -128.139,-16.3572 L -127.964,-16.4266 L -127.781,-16.4734
 L -127.594,-16.497 L -127.406,-16.497 L -127.219,-16.4734 L -127.036,-16.4266 L -126.861,-16.3572 L -126.696,-16.2665
 L -126.544,-16.1558 L -126.407,-16.0268 L -126.286,-15.8817 L -126.186,-15.7226 L -126.105,-15.5522 L -126.047,-15.373
 L -126.012,-15.188 L -126,-15 L -126.012,-14.812 L -126.047,-14.627 L -126.105,-14.4478 L -126.186,-14.2774
 L -126.286,-14.1183 L -126.407,-13.9732 L -126.544,-13.8442 L -126.696,-13.7335 L -126.861,-13.6427 L -127.036,-13.5734
 L -127.219,-13.5266 L -127.406,-13.5029 z
M 127.406,-13.5029 L 127.219,-13.5266 L 127.036,-13.5734 L 126.861,-13.6427 L 126.696,-13.7335 L 126.544,-13.8442
 L 126.407,-13.9732 L 126.286,-14.1183 L 126.186,-14.2774 L 126.105,-14.4478 L 126.047,-14.627 L 126.012,-14.812
 L 126,-15 L 126.012,-15.188 L 126.047,-15.373 L 126.105,-15.5522 L 126.186,-15.7226 L 126.286,-15.8817
 L 126.407,-16.0268 L 126.544,-16.1558 L 126.696,-16.2665 L 126.861,-16.3572 L 127.036,-16.4266 L 127.219,-16.4734
 L 127.406,-16.497 L 127.594,-16.497 L 127.781,-16.4734 L 127.964,-16.4266 L 128.139,-16.3572 L 128.304,-16.2665
 L 128.456,-16.1558 L 128.593,-16.0268 L 128.714,-15.8817 L 128.814,-15.7226 L 128.895,-15.5522 L 128.953,-15.373
 L 128.988,-15.188 L 129,-15 L 128.988,-14.812 L 128.953,-14.627 L 128.895,-14.4478 L 128.814,-14.2774
 L 128.714,-14.1183 L 128.593,-13.9732 L 128.456,-13.8442 L 128.304,-13.7335 L 128.139,-13.6427 L 127.964,-13.5734
 L 127.781,-13.5266 L 127.594,-13.5029 z
M 127.312,-4.50591 L 126.938,-4.55313 L 126.573,-4.64682 L 126.223,-4.78551 L 125.893,-4.96701 L 125.588,-5.18845
 L 125.313,-5.44635 L 125.073,-5.73663 L 124.871,-6.05473 L 124.711,-6.39561 L 124.594,-6.75392 L 124.524,-7.12399
 L 124.5,-7.5 L 124.524,-7.87599 L 124.594,-8.24606 L 124.711,-8.60437 L 124.871,-8.94525 L 125.073,-9.26335
 L 125.313,-9.55363 L 125.588,-9.81154 L 125.893,-10.033 L 126.223,-10.2145 L 126.573,-10.3532 L 126.938,-10.4469
 L 127.312,-10.4941 L 127.688,-10.4941 L 128.062,-10.4469 L 128.427,-10.3532 L 128.777,-10.2145 L 129.107,-10.033
 L 129.412,-9.81154 L 129.687,-9.55363 L 129.927,-9.26335 L 130.129,-8.94525 L 130.289,-8.60437 L 130.406,-8.24606
 L 130.476,-7.87599 L 130.5,-7.5 L 130.476,-7.12399 L 130.406,-6.75392 L 130.289,-6.39561 L 130.129,-6.05473
 L 129.927,-5.73663 L 129.687,-5.44635 L 129.412,-5.18845 L 129.107,-4.96701 L 128.777,-4.78551 L 128.427,-4.64682
 L 128.062,-4.55313 L 127.688,-4.50591 z
M -127.688,-4.50591 L -128.062,-4.55313 L -128.427,-4.64682 L -128.777,-4.78551 L -129.107,-4.96701 L -129.412,-5.18845
 L -129.687,-5.44635 L -129.927,-5.73663 L -130.129,-6.05473 L -130.289,-6.39561 L -130.406,-6.75392 L -130.476,-7.12399
 L -130.5,-7.5 L -130.476,-7.87599 L -130.406,-8.24606 L -130.289,-8.60437 L -130.129,-8.94525 L -129.927,-9.26335
 L -129.687,-9.55363 L -129.412,-9.81154 L -129.107,-10.033 L -128.777,-10.2145 L -128.427,-10.3532 L -128.062,-10.4469
 L -127.688,-10.4941 L -127.312,-10.4941 L -126.938,-10.4469 L -126.573,-10.3532 L -126.223,-10.2145 L -125.893,-10.033
 L -125.588,-9.81154 L -125.313,-9.55363 L -125.073,-9.26335 L -124.871,-8.94525 L -124.711,-8.60437 L -124.594,-8.24606
 L -124.524,-7.87599 L -124.5,-7.5 L -124.524,-7.12399 L -124.594,-6.75392 L -124.711,-6.39561 L -124.871,-6.05473
 L -125.073,-5.73663 L -125.313,-5.44635 L -125.588,-5.18845 L -125.893,-4.96701 L -126.223,-4.78551 L -126.573,-4.64682
 L -126.938,-4.55313 L -127.312,-4.50591 z
M 127.406,1.49704 L 127.219,1.47342 L 127.036,1.42657 L 126.861,1.35724 L 126.696,1.26648 L 126.544,1.15576
 L 126.407,1.02681 L 126.286,0.881668 L 126.186,0.722626 L 126.105,0.552185 L 126.047,0.373032 L 126.012,0.187988
 L 126,-0 L 126.012,-0.187988 L 126.047,-0.373032 L 126.105,-0.552185 L 126.186,-0.722626 L 126.286,-0.881668
 L 126.407,-1.02681 L 126.544,-1.15576 L 126.696,-1.26648 L 126.861,-1.35724 L 127.036,-1.42657 L 127.219,-1.47342
 L 127.406,-1.49704 L 127.594,-1.49704 L 127.781,-1.47342 L 127.964,-1.42657 L 128.139,-1.35724 L 128.304,-1.26648
 L 128.456,-1.15576 L 128.593,-1.02681 L 128.714,-0.881668 L 128.814,-0.722626 L 128.895,-0.552185 L 128.953,-0.373032
 L 128.988,-0.187988 L 129,-0 L 128.988,0.187988 L 128.953,0.373032 L 128.895,0.552185 L 128.814,0.722626
 L 128.714,0.881668 L 128.593,1.02681 L 128.456,1.15576 L 128.304,1.26648 L 128.139,1.35724 L 127.964,1.42657
 L 127.781,1.47342 L 127.594,1.49704 z
M -127.594,1.49704 L -127.781,1.47342 L -127.964,1.42657 L -128.139,1.35724 L -128.304,1.26648 L -128.456,1.15576
 L -128.593,1.02681 L -128.714,0.881668 L -128.814,0.722626 L -128.895,0.552185 L -128.953,0.373032 L -128.988,0.187988
 L -129,-0 L -128.988,-0.187988 L -128.953,-0.373032 L -128.895,-0.552185 L -128.814,-0.722626 L -128.714,-0.881668
 L -128.593,-1.02681 L -128.456,-1.15576 L -128.304,-1.26648 L -128.139,-1.35724 L -127.964,-1.42657 L -127.781,-1.47342
 L -127.594,-1.49704 L -127.406,-1.49704 L -127.219,-1.47342 L -127.036,-1.42657 L -126.861,-1.35724 L -126.696,-1.26648
 L -126.544,-1.15576 L -126.407,-1.02681 L -126.286,-0.881668 L -126.186,-0.722626 L -126.105,-0.552185 L -126.047,-0.373032
 L -126.012,-0.187988 L -126,-0 L -126.012,0.187988 L -126.047,0.373032 L -126.105,0.552185 L -126.186,0.722626
 L -126.286,0.881668 L -126.407,1.02681 L -126.544,1.15576 L -126.696,1.26648 L -126.861,1.35724 L -127.036,1.42657
 L -127.219,1.47342 L -127.406,1.49704 z
M -127.688,10.4941 L -128.062,10.4469 L -128.427,10.3532 L -128.777,10.2145 L -129.107,10.033 L -129.412,9.81154
 L -129.687,9.55363 L -129.927,9.26335 L -130.129,8.94525 L -130.289,8.60437 L -130.406,8.24606 L -130.476,7.87599
 L -130.5,7.5 L -130.476,7.12399 L -130.406,6.75392 L -130.289,6.39561 L -130.129,6.05473 L -129.927,5.73663
 L -129.687,5.44635 L -129.412,5.18845 L -129.107,4.96701 L -128.777,4.78551 L -128.427,4.64682 L -128.062,4.55313
 L -127.688,4.50591 L -127.312,4.50591 L -126.938,4.55313 L -126.573,4.64682 L -126.223,4.78551 L -125.893,4.96701
 L -125.588,5.18845 L -125.313,5.44635 L -125.073,5.73663 L -124.871,6.05473 L -124.711,6.39561 L -124.594,6.75392
 L -124.524,7.12399 L -124.5,7.5 L -124.524,7.87599 L -124.594,8.24606 L -124.711,8.60437 L -124.871,8.94525
 L -125.073,9.26335 L -125.313,9.55363 L -125.588,9.81154 L -125.893,10.033 L -126.223,10.2145 L -126.573,10.3532
 L -126.938,10.4469 L -127.312,10.4941 z
M 127.312,10.4941 L 126.938,10.4469 L 126.573,10.3532 L 126.223,10.2145 L 125.893,10.033 L 125.588,9.81154
 L 125.313,9.55363 L 125.073,9.26335 L 124.871,8.94525 L 124.711,8.60437 L 124.594,8.24606 L 124.524,7.87599
 L 124.5,7.5 L 124.524,7.12399 L 124.594,6.75392 L 124.711,6.39561 L 124.871,6.05473 L 125.073,5.73663
 L 125.313,5.44635 L 125.588,5.18845 L 125.893,4.96701 L 126.223,4.78551 L 126.573,4.64682 L 126.938,4.55313
 L 127.312,4.50591 L 127.688,4.50591 L 128.062,4.55313 L 128.427,4.64682 L 128.777,4.78551 L 129.107,4.96701
 L 129.412,5.18845 L 129.687,5.44635 L 129.927,5.73663 L 130.129,6.05473 L 130.289,6.39561 L 130.406,6.75392
 L 130.476,7.12399 L 130.5,7.5 L 130.476,7.87599 L 130.406,8.24606 L 130.289,8.60437 L 130.129,8.94525
 L 129.927,9.26335 L 129.687,9.55363 L 129.412,9.81154 L 129.107,10.033 L 128.777,10.2145 L 128.427,10.3532
 L 128.062,10.4469 L 127.688,10.4941 z
M 127.406,16.497 L 127.219,16.4734 L 127.036,16.4266 L 126.861,16.3572 L 126.696,16.2665 L 126.544,16.1558
 L 126.407,16.0268 L 126.286,15.8817 L 126.186,15.7226 L 126.105,15.5522 L 126.047,15.373 L 126.012,15.188
 L 126,15 L 126.012,14.812 L 126.047,14.627 L 126.105,14.4478 L 126.186,14.2774 L 126.286,14.1183
 L 126.407,13.9732 L 126.544,13.8442 L 126.696,13.7335 L 126.861,13.6427 L 127.036,13.5734 L 127.219,13.5266
 L 127.406,13.5029 L 127.594,13.5029 L 127.781,13.5266 L 127.964,13.5734 L 128.139,13.6427 L 128.304,13.7335
 L 128.456,13.8442 L 128.593,13.9732 L 128.714,14.1183 L 128.814,14.2774 L 128.895,14.4478 L 128.953,14.627
 L 128.988,14.812 L 129,15 L 128.988,15.188 L 128.953,15.373 L 128.895,15.5522 L 128.814,15.7226
 L 128.714,15.8817 L 128.593,16.0268 L 128.456,16.1558 L 128.304,16.2665 L 128.139,16.3572 L 127.964,16.4266
 L 127.781,16.4734 L 127.594,16.497 z
M -127.594,16.497 L -127.781,16.4734 L -127.964,16.4266 L -128.139,16.3572 L -128.304,16.2665 L -128.456,16.1558
 L -128.593,16.0268 L -128.714,15.8817 L -128.814,15.7226 L -128.895,15.5522 L -128.953,15.373 L -128.988,15.188
 L -129,15 L -128.988,14.812 L -128.953,14.627 L -128.895,14.4478 L -128.814,14.2774 L -128.714,14.1183
 L -128.593,13.9732 L -128.456,13.8442 L -128.304,13.7335 L -128.139,13.6427 L -127.964,13.5734 L -127.781,13.5266
 L -127.594,13.5029 L -127.406,13.5029 L -127.219,13.5266 L -127.036,13.5734 L -126.861,13.6427 L -126.696,13.7335
 L -126.544,13.8442 L -126.407,13.9732 L -126.286,14.1183 L -126.186,14.2774 L -126.105,14.4478 L -126.047,14.627
 L -126.012,14.812 L -126,15 L -126.012,15.188 L -126.047,15.373 L -126.105,15.5522 L -126.186,15.7226
 L -126.286,15.8817 L -126.407,16.0268 L -126.544,16.1558 L -126.696,16.2665 L -126.861,16.3572 L -127.036,16.4266
 L -127.219,16.4734 L -127.406,16.497 z
M 127.312,25.4941 L 126.938,25.4469 L 126.573,25.3532 L 126.223,25.2145 L 125.893,25.033 L 125.588,24.8115
 L 125.313,24.5536 L 125.073,24.2634 L 124.871,23.9453 L 124.711,23.6044 L 124.594,23.2461 L 124.524,22.876
 L 124.5,22.5 L 124.524,22.124 L 124.594,21.7539 L 124.711,21.3956 L 124.871,21.0547 L 125.073,20.7366
 L 125.313,20.4464 L 125.588,20.1884 L 125.893,19.967 L 126.223,19.7855 L 126.573,19.6468 L 126.938,19.5531
 L 127.312,19.5059 L 127.688,19.5059 L 128.062,19.5531 L 128.427,19.6468 L 128.777,19.7855 L 129.107,19.967
 L 129.412,20.1884 L 129.687,20.4464 L 129.927,20.7366 L 130.129,21.0547 L 130.289,21.3956 L 130.406,21.7539
 L 130.476,22.124 L 130.5,22.5 L 130.476,22.876 L 130.406,23.2461 L 130.289,23.6044 L 130.129,23.9453
 L 129.927,24.2634 L 129.687,24.5536 L 129.412,24.8115 L 129.107,25.033 L 128.777,25.2145 L 128.427,25.3532
 L 128.062,25.4469 L 127.688,25.4941 z
M -127.688,25.4941 L -128.062,25.4469 L -128.427,25.3532 L -128.777,25.2145 L -129.107,25.033 L -129.412,24.8115
 L -129.687,24.5536 L -129.927,24.2634 L -130.129,23.9453 L -130.289,23.6044 L -130.406,23.2461 L -130.476,22.876
 L -130.5,22.5 L -130.476,22.124 L -130.406,21.7539 L -130.289,21.3956 L -130.129,21.0547 L -129.927,20.7366
 L -129.687,20.4464 L -129.412,20.1884 L -129.107,19.967 L -128.777,19.7855 L -128.427,19.6468 L -128.062,19.5531
 L -127.688,19.5059 L -127.312,19.5059 L -126.938,19.5531 L -126.573,19.6468 L -126.223,19.7855 L -125.893,19.967
 L -125.588,20.1884 L -125.313,20.4464 L -125.073,20.7366 L -124.871,21.0547 L -124.711,21.3956 L -124.594,21.7539
 L -124.524,22.124 L -124.5,22.5 L -124.524,22.876 L -124.594,23.2461 L -124.711,23.6044 L -124.871,23.9453
 L -125.073,24.2634 L -125.313,24.5536 L -125.588,24.8115 L -125.893,25.033 L -126.223,25.2145 L -126.573,25.3532
 L -126.938,25.4469 L -127.312,25.4941 z
" stroke="black" fill="lightgray" stroke-width="0.5"/>
</svg>
