<?xml version="1.0" standalone="no"?>
<!DOCTYPE svg PUBLIC "-//W3C//DTD SVG 1.1//EN" "http://www.w3.org/Graphics/SVG/1.1/DTD/svg11.dtd">
<svg width="30mm" height="30mm" viewBox="-15 -54 30 30" xmlns="http://www.w3.org/2000/svg" version="1.1">
<title>OpenSCAD Model</title>
<path d="
M 10.4369,-24.5886 L 11.0451,-24.7447 L 11.6289,-24.9759 L 12.1791,-25.2784 L 12.6871,-25.6474 L 13.1448,-26.0773
 L 13.5451,-26.5611 L 13.8815,-27.0912 L 14.1489,-27.6594 L 14.3429,-28.2566 L 14.4606,-28.8733 L 14.5,-29.5
 L 14.5,-48.5 L 14.4606,-49.1267 L 14.3429,-49.7434 L 14.1489,-50.3406 L 13.8815,-50.9088 L 13.5451,-51.4389
 L 13.1448,-51.9227 L 12.6871,-52.3526 L 12.1791,-52.7216 L 11.6289,-53.0241 L 11.0451,-53.2553 L 10.4369,-53.4114
 L 9.81395,-53.4901 L -9.81395,-53.4901 L -10.4369,-53.4114 L -11.0451,-53.2553 L -11.6289,-53.0241 L -12.1791,-52.7216
 L -12.6871,-52.3526 L -13.1448,-51.9227 L -13.5451,-51.4389 L -13.8815,-50.9088 L -14.1489,-50.3406 L -14.3429,-49.7434
 L -14.4606,-49.1267 L -14.5,-48.5 L -14.5,-29.5 L -14.4606,-28.8733 L -14.3429,-28.2566 L -14.1489,-27.6594
 L -13.8815,-27.0912 L -13.5451,-26.5611 L -13.1448,-26.0773 L -12.6871,-25.6474 L -12.1791,-25.2784 L -11.6289,-24.9759
 L -11.0451,-24.7447 L -10.4369,-24.5886 L -9.81395,-24.5099 L 9.81395,-24.5099 z
M -7.68837,-43.5059 L -8.06213,-43.5531 L -8.42705,-43.6468 L -8.77733,-43.7855 L -9.10747,-43.967 L -9.41226,-44.1884
 L -9.6869,-44.4464 L -9.92705,-44.7366 L -10.1289,-45.0547 L -10.2893,-45.3956 L -10.4057,-45.7539 L -10.4763,-46.124
 L -10.5,-46.5 L -10.4763,-46.876 L -10.4057,-47.2461 L -10.2893,-47.6044 L -10.1289,-47.9453 L -9.92705,-48.2634
 L -9.6869,-48.5536 L -9.41226,-48.8115 L -9.10747,-49.033 L -8.77733,-49.2145 L -8.42705,-49.3532 L -8.06213,-49.4469
 L -7.68837,-49.4941 L -7.31161,-49.4941 L -6.93785,-49.4469 L -6.57294,-49.3532 L -6.22266,-49.2145 L -5.89252,-49.033
 L -5.58772,-48.8115 L -5.31308,-48.5536 L -5.07294,-48.2634 L -4.87108,-47.9453 L -4.71066,-47.6044 L -4.59424,-47.2461
 L -4.52365,-46.876 L -4.5,-46.5 L -4.52365,-46.124 L -4.59424,-45.7539 L -4.71066,-45.3956 L -4.87108,-45.0547
 L -5.07294,-44.7366 L -5.31308,-44.4464 L -5.58772,-44.1884 L -5.89252,-43.967 L -6.22266,-43.7855 L -6.57294,-43.6468
 L -6.93785,-43.5531 L -7.31161,-43.5059 z
M 7.31161,-43.5059 L 6.93785,-43.5531 L 6.57294,-43.6468 L 6.22266,-43.7855 L 5.89252,-43.967 L 5.58772,-44.1884
 L 5.31308,-44.4464 L 5.07294,-44.7366 L 4.87108,-45.0547 L 4.71066,-45.3956 L 4.59424,-45.7539 L 4.52365,-46.124
 L 4.5,-46.5 L 4.52365,-46.876 L 4.59424,-47.2461 L 4.71066,-47.6044 L 4.87108,-47.9453 L 5.07294,-48.2634
 L 5.31308,-48.5536 L 5.58772,-48.8115 L 5.89252,-49.033 L 6.22266,-49.2145 L 6.57294,-49.3532 L 6.93785,-49.4469
 L 7.31161,-49.4941 L 7.68837,-49.4941 L 8.06213,-49.4469 L 8.42705,-49.3532 L 8.77733,-49.2145 L 9.10747,-49.033
 L 9.41226,-48.8115 L 9.6869,-48.5536 L 9.92705,-48.2634 L 10.1289,-47.9453 L 10.2893,-47.6044 L 10.4057,-47.2461
 L 10.4763,-46.876 L 10.5,-46.5 L 10.4763,-46.124 L 10.4057,-45.7539 L 10.2893,-45.3956 L 10.1289,-45.0547
 L 9.92705,-44.7366 L 9.6869,-44.4464 L 9.41226,-44.1884 L 9.10747,-43.967 L 8.77733,-43.7855 L 8.42705,-43.6468
 L 8.06213,-43.5531 L 7.68837,-43.5059 z
M -0.37674,-33.0118 L -1.12428,-33.1063 L -1.8541,-33.2937 L -2.55467,-33.571 L -3.21495,-33.934 L -3.82454,-34.3769
 L -4.37381,-34.8927 L -4.8541,-35.4733 L -5.25783,-36.1095 L -5.57864,-36.7913 L -5.81149,-37.5079 L -5.95268,-38.248
 L -6,-39 L -5.95268,-39.752 L -5.81149,-40.4921 L -5.57864,-41.2087 L -5.25783,-41.8905 L -4.8541,-42.5267
 L -4.37381,-43.1073 L -3.82454,-43.6231 L -3.21495,-44.066 L -2.55467,-44.429 L -1.8541,-44.7063 L -1.12428,-44.8937
 L -0.37674,-44.9882 L 0.37674,-44.9882 L 1.12428,-44.8937 L 1.8541,-44.7063 L 2.55467,-44.429 L 3.21495,-44.066
 L 3.82454,-43.6231 L 4.37381,-43.1073 L 4.8541,-42.5267 L 5.25783,-41.8905 L 5.57864,-41.2087 L 5.81149,-40.4921
 L 5.95268,-39.752 L 6,-39 L 5.95268,-38.248 L 5.81149,-37.5079 L 5.57864,-36.7913 L 5.25783,-36.1095
 L 4.8541,-35.4733 L 4.37381,-34.8927 L 3.82454,-34.3769 L 3.21495,-33.934 L 2.55467,-33.571 L 1.8541,-33.2937
 L 1.12428,-33.1063 L 0.37674,-33.0118 z
M 7.31161,-28.5059 L 6.93785,-28.5531 L 6.57294,-28.6468 L 6.22266,-28.7855 L 5.89252,-28.967 L 5.58772,-29.1885
 L 5.31308,-29.4464 L 5.07294,-29.7366 L 4.87108,-30.0547 L 4.71066,-30.3956 L 4.59424,-30.7539 L 4.52365,-31.124
 L 4.5,-31.5 L 4.52365,-31.876 L 4.59424,-32.2461 L 4.71066,-32.6044 L 4.87108,-32.9453 L 5.07294,-33.2634
 L 5.31308,-33.5536 L 5.58772,-33.8116 L 5.89252,-34.033 L 6.22266,-34.2145 L 6.57294,-34.3532 L 6.93785,-34.4469
 L 7.31161,-34.4941 L 7.68837,-34.4941 L 8.06213,-34.4469 L 8.42705,-34.3532 L 8.77733,-34.2145 L 9.10747,-34.033
 L 9.41226,-33.8116 L 9.6869,-33.5536 L 9.92705,-33.2634 L 10.1289,-32.9453 L 10.2893,-32.6044 L 10.4057,-32.2461
 L 10.4763,-31.876 L 10.5,-31.5 L 10.4763,-31.124 L 10.4057,-30.7539 L 10.2893,-30.3956 L 10.1289,-30.0547
 L 9.92705,-29.7366 L 9.6869,-29.4464 L 9.41226,-29.1885 L 9.10747,-28.967 L 8.77733,-28.7855 L 8.42705,-28.6468
 L 8.06213,-28.5531 L 7.68837,-28.5059 z
M -7.68837,-28.5059 L -8.06213,-28.5531 L -8.42705,-28.6468 L -8.77733,-28.7855 L -9.10747,-28.967 L -9.41226,-29.1885
 L -9.6869,-29.4464 L -9.92705,-29.7366 L -10.1289,-30.0547 L -10.2893,-30.3956 L -10.4057,-30.7539 L -10.4763,-31.124
 L -10.5,-31.5 L -10.4763,-31.876 L -10.4057,-32.2461 L -10.2893,-32.6044 L -10.1289,-32.9453 L -9.92705,-33.2634
 L -9.6869,-33.5536 L -9.41226,-33.8116 L -9.10747,-34.033 L -8.77733,-34.2145 L -8.42705,-34.3532 L -8.06213,-34.4469
 L -7.68837,-34.4941 L -7.31161,-34.4941 L -6.93785,-34.4469 L -6.57294,-34.3532 L -6.22266,-34.2145 L -5.89252,-34.033
 L -5.58772,-33.8116 L -5.31308,-33.5536 L -5.07294,-33.2634 L -4.87108,-32.9453 L -4.71066,-32.6044 L -4.59424,-32.2461
 L -4.52365,-31.876 L -4.5,-31.5 L -4.52365,-31.124 L -4.59424,-30.7539 L -4.71066,-30.3956 L -4.87108,-30.0547
 L -5.07294,-29.7366 L -5.31308,-29.4464 L -5.58772,-29.1885 L -5.89252,-28.967 L -6.22266,-28.7855 L -6.57294,-28.6468
 L -6.93785,-28.5531 L -7.31161,-28.5059 z
" stroke="black" fill="lightgray" stroke-width="0.5"/>
</svg>
