  0
SECTION
  2
BLOCKS
  0
ENDSEC
  0
SECTION
  2
ENTITIES
  0
LINE
  8
0
 10
25.4369
 20
-14.4114
 11
26.0451
 21
-14.2553
  0
LINE
  8
0
 10
26.0451
 20
-14.2553
 11
26.6289
 21
-14.0241
  0
LINE
  8
0
 10
26.6289
 20
-14.0241
 11
27.1791
 21
-13.7216
  0
LINE
  8
0
 10
27.1791
 20
-13.7216
 11
27.6871
 21
-13.3526
  0
LINE
  8
0
 10
27.6871
 20
-13.3526
 11
28.1448
 21
-12.9227
  0
LINE
  8
0
 10
28.1448
 20
-12.9227
 11
28.5451
 21
-12.4389
  0
LINE
  8
0
 10
28.5451
 20
-12.4389
 11
28.8815
 21
-11.9088
  0
LINE
  8
0
 10
28.8815
 20
-11.9088
 11
29.1489
 21
-11.3406
  0
LINE
  8
0
 10
29.1489
 20
-11.3406
 11
29.3429
 21
-10.7434
  0
LINE
  8
0
 10
29.3429
 20
-10.7434
 11
29.4606
 21
-10.1267
  0
LINE
  8
0
 10
29.4606
 20
-10.1267
 11
29.5
 21
-9.5
  0
LINE
  8
0
 10
29.5
 20
-9.5
 11
29.5
 21
9.5
  0
LINE
  8
0
 10
29.5
 20
9.5
 11
29.4606
 21
10.1267
  0
LINE
  8
0
 10
29.4606
 20
10.1267
 11
29.3429
 21
10.7434
  0
LINE
  8
0
 10
29.3429
 20
10.7434
 11
29.1489
 21
11.3406
  0
LINE
  8
0
 10
29.1489
 20
11.3406
 11
28.8815
 21
11.9088
  0
LINE
  8
0
 10
28.8815
 20
11.9088
 11
28.5451
 21
12.4389
  0
LINE
  8
0
 10
28.5451
 20
12.4389
 11
28.1448
 21
12.9227
  0
LINE
  8
0
 10
28.1448
 20
12.9227
 11
27.6871
 21
13.3526
  0
LINE
  8
0
 10
27.6871
 20
13.3526
 11
27.1791
 21
13.7216
  0
LINE
  8
0
 10
27.1791
 20
13.7216
 11
26.6289
 21
14.0241
  0
LINE
  8
0
 10
26.6289
 20
14.0241
 11
26.0451
 21
14.2553
  0
LINE
  8
0
 10
26.0451
 20
14.2553
 11
25.4369
 21
14.4114
  0
LINE
  8
0
 10
25.4369
 20
14.4114
 11
24.8139
 21
14.4901
  0
LINE
  8
0
 10
24.8139
 20
14.4901
 11
-24.8139
 21
14.4901
  0
LINE
  8
0
 10
-24.8139
 20
14.4901
 11
-25.4369
 21
14.4114
  0
LINE
  8
0
 10
-25.4369
 20
14.4114
 11
-26.0451
 21
14.2553
  0
LINE
  8
0
 10
-26.0451
 20
14.2553
 11
-26.6289
 21
14.0241
  0
LINE
  8
0
 10
-26.6289
 20
14.0241
 11
-27.1791
 21
13.7216
  0
LINE
  8
0
 10
-27.1791
 20
13.7216
 11
-27.6871
 21
13.3526
  0
LINE
  8
0
 10
-27.6871
 20
13.3526
 11
-28.1448
 21
12.9227
  0
LINE
  8
0
 10
-28.1448
 20
12.9227
 11
-28.5451
 21
12.4389
  0
LINE
  8
0
 10
-28.5451
 20
12.4389
 11
-28.8815
 21
11.9088
  0
LINE
  8
0
 10
-28.8815
 20
11.9088
 11
-29.1489
 21
11.3406
  0
LINE
  8
0
 10
-29.1489
 20
11.3406
 11
-29.3429
 21
10.7434
  0
LINE
  8
0
 10
-29.3429
 20
10.7434
 11
-29.4606
 21
10.1267
  0
LINE
  8
0
 10
-29.4606
 20
10.1267
 11
-29.5
 21
9.5
  0
LINE
  8
0
 10
-29.5
 20
9.5
 11
-29.5
 21
-9.5
  0
LINE
  8
0
 10
-29.5
 20
-9.5
 11
-29.4606
 21
-10.1267
  0
LINE
  8
0
 10
-29.4606
 20
-10.1267
 11
-29.3429
 21
-10.7434
  0
LINE
  8
0
 10
-29.3429
 20
-10.7434
 11
-29.1489
 21
-11.3406
  0
LINE
  8
0
 10
-29.1489
 20
-11.3406
 11
-28.8815
 21
-11.9088
  0
LINE
  8
0
 10
-28.8815
 20
-11.9088
 11
-28.5451
 21
-12.4389
  0
LINE
  8
0
 10
-28.5451
 20
-12.4389
 11
-28.1448
 21
-12.9227
  0
LINE
  8
0
 10
-28.1448
 20
-12.9227
 11
-27.6871
 21
-13.3526
  0
LINE
  8
0
 10
-27.6871
 20
-13.3526
 11
-27.1791
 21
-13.7216
  0
LINE
  8
0
 10
-27.1791
 20
-13.7216
 11
-26.6289
 21
-14.0241
  0
LINE
  8
0
 10
-26.6289
 20
-14.0241
 11
-26.0451
 21
-14.2553
  0
LINE
  8
0
 10
-26.0451
 20
-14.2553
 11
-25.4369
 21
-14.4114
  0
LINE
  8
0
 10
-25.4369
 20
-14.4114
 11
-24.8139
 21
-14.4901
  0
LINE
  8
0
 10
-24.8139
 20
-14.4901
 11
24.8139
 21
-14.4901
  0
LINE
  8
0
 10
24.8139
 20
-14.4901
 11
25.4369
 21
-14.4114
  0
LINE
  8
0
 10
-14.1907
 20
-10.9783
 11
-15.5612
 21
-10.8051
  0
LINE
  8
0
 10
-15.5612
 20
-10.8051
 11
-16.8992
 21
-10.4616
  0
LINE
  8
0
 10
-16.8992
 20
-10.4616
 11
-18.1836
 21
-9.95309
  0
LINE
  8
0
 10
-18.1836
 20
-9.95309
 11
-19.3941
 21
-9.2876
  0
LINE
  8
0
 10
-19.3941
 20
-9.2876
 11
-19.8696
 21
-8.94212
  0
LINE
  8
0
 10
-19.8696
 20
-8.94212
 11
-19.8711
 21
-8.94525
  0
LINE
  8
0
 10
-19.8711
 20
-8.94525
 11
-20.0729
 21
-9.26335
  0
LINE
  8
0
 10
-20.0729
 20
-9.26335
 11
-20.3131
 21
-9.55363
  0
LINE
  8
0
 10
-20.3131
 20
-9.55363
 11
-20.5877
 21
-9.81154
  0
LINE
  8
0
 10
-20.5877
 20
-9.81154
 11
-20.8925
 21
-10.033
  0
LINE
  8
0
 10
-20.8925
 20
-10.033
 11
-21.2227
 21
-10.2145
  0
LINE
  8
0
 10
-21.2227
 20
-10.2145
 11
-21.5729
 21
-10.3532
  0
LINE
  8
0
 10
-21.5729
 20
-10.3532
 11
-21.9379
 21
-10.4469
  0
LINE
  8
0
 10
-21.9379
 20
-10.4469
 11
-22.3116
 21
-10.4941
  0
LINE
  8
0
 10
-22.3116
 20
-10.4941
 11
-22.6884
 21
-10.4941
  0
LINE
  8
0
 10
-22.6884
 20
-10.4941
 11
-23.0621
 21
-10.4469
  0
LINE
  8
0
 10
-23.0621
 20
-10.4469
 11
-23.427
 21
-10.3532
  0
LINE
  8
0
 10
-23.427
 20
-10.3532
 11
-23.7773
 21
-10.2145
  0
LINE
  8
0
 10
-23.7773
 20
-10.2145
 11
-24.1075
 21
-10.033
  0
LINE
  8
0
 10
-24.1075
 20
-10.033
 11
-24.4123
 21
-9.81154
  0
LINE
  8
0
 10
-24.4123
 20
-9.81154
 11
-24.6869
 21
-9.55363
  0
LINE
  8
0
 10
-24.6869
 20
-9.55363
 11
-24.927
 21
-9.26335
  0
LINE
  8
0
 10
-24.927
 20
-9.26335
 11
-25.1289
 21
-8.94525
  0
LINE
  8
0
 10
-25.1289
 20
-8.94525
 11
-25.2893
 21
-8.60437
  0
LINE
  8
0
 10
-25.2893
 20
-8.60437
 11
-25.4057
 21
-8.24606
  0
LINE
  8
0
 10
-25.4057
 20
-8.24606
 11
-25.4763
 21
-7.87599
  0
LINE
  8
0
 10
-25.4763
 20
-7.87599
 11
-25.5
 21
-7.5
  0
LINE
  8
0
 10
-25.5
 20
-7.5
 11
-25.4763
 21
-7.12399
  0
LINE
  8
0
 10
-25.4763
 20
-7.12399
 11
-25.4057
 21
-6.75392
  0
LINE
  8
0
 10
-25.4057
 20
-6.75392
 11
-25.2893
 21
-6.39561
  0
LINE
  8
0
 10
-25.2893
 20
-6.39561
 11
-25.1289
 21
-6.05473
  0
LINE
  8
0
 10
-25.1289
 20
-6.05473
 11
-24.927
 21
-5.73663
  0
LINE
  8
0
 10
-24.927
 20
-5.73663
 11
-24.6869
 21
-5.44635
  0
LINE
  8
0
 10
-24.6869
 20
-5.44635
 11
-24.4123
 21
-5.18845
  0
LINE
  8
0
 10
-24.4123
 20
-5.18845
 11
-24.1075
 21
-4.96701
  0
LINE
  8
0
 10
-24.1075
 20
-4.96701
 11
-23.7773
 21
-4.78551
  0
LINE
  8
0
 10
-23.7773
 20
-4.78551
 11
-23.4434
 21
-4.65327
  0
LINE
  8
0
 10
-23.4434
 20
-4.65327
 11
-23.7275
 21
-4.04936
  0
LINE
  8
0
 10
-23.7275
 20
-4.04936
 11
-24.1544
 21
-2.73558
  0
LINE
  8
0
 10
-24.1544
 20
-2.73558
 11
-24.4133
 21
-1.37866
  0
LINE
  8
0
 10
-24.4133
 20
-1.37866
 11
-24.5
 21
0
  0
LINE
  8
0
 10
-24.5
 20
0
 11
-24.4133
 21
1.37866
  0
LINE
  8
0
 10
-24.4133
 20
1.37866
 11
-24.1544
 21
2.73558
  0
LINE
  8
0
 10
-24.1544
 20
2.73558
 11
-23.7275
 21
4.04936
  0
LINE
  8
0
 10
-23.7275
 20
4.04936
 11
-23.4434
 21
4.65327
  0
LINE
  8
0
 10
-23.4434
 20
4.65327
 11
-23.7773
 21
4.78551
  0
LINE
  8
0
 10
-23.7773
 20
4.78551
 11
-24.1075
 21
4.96701
  0
LINE
  8
0
 10
-24.1075
 20
4.96701
 11
-24.4123
 21
5.18845
  0
LINE
  8
0
 10
-24.4123
 20
5.18845
 11
-24.6869
 21
5.44635
  0
LINE
  8
0
 10
-24.6869
 20
5.44635
 11
-24.927
 21
5.73663
  0
LINE
  8
0
 10
-24.927
 20
5.73663
 11
-25.1289
 21
6.05473
  0
LINE
  8
0
 10
-25.1289
 20
6.05473
 11
-25.2893
 21
6.39561
  0
LINE
  8
0
 10
-25.2893
 20
6.39561
 11
-25.4057
 21
6.75392
  0
LINE
  8
0
 10
-25.4057
 20
6.75392
 11
-25.4763
 21
7.12399
  0
LINE
  8
0
 10
-25.4763
 20
7.12399
 11
-25.5
 21
7.5
  0
LINE
  8
0
 10
-25.5
 20
7.5
 11
-25.4763
 21
7.87599
  0
LINE
  8
0
 10
-25.4763
 20
7.87599
 11
-25.4057
 21
8.24606
  0
LINE
  8
0
 10
-25.4057
 20
8.24606
 11
-25.2893
 21
8.60437
  0
LINE
  8
0
 10
-25.2893
 20
8.60437
 11
-25.1289
 21
8.94525
  0
LINE
  8
0
 10
-25.1289
 20
8.94525
 11
-24.927
 21
9.26335
  0
LINE
  8
0
 10
-24.927
 20
9.26335
 11
-24.6869
 21
9.55363
  0
LINE
  8
0
 10
-24.6869
 20
9.55363
 11
-24.4123
 21
9.81154
  0
LINE
  8
0
 10
-24.4123
 20
9.81154
 11
-24.1075
 21
10.033
  0
LINE
  8
0
 10
-24.1075
 20
10.033
 11
-23.7773
 21
10.2145
  0
LINE
  8
0
 10
-23.7773
 20
10.2145
 11
-23.427
 21
10.3532
  0
LINE
  8
0
 10
-23.427
 20
10.3532
 11
-23.0621
 21
10.4469
  0
LINE
  8
0
 10
-23.0621
 20
10.4469
 11
-22.6884
 21
10.4941
  0
LINE
  8
0
 10
-22.6884
 20
10.4941
 11
-22.3116
 21
10.4941
  0
LINE
  8
0
 10
-22.3116
 20
10.4941
 11
-21.9379
 21
10.4469
  0
LINE
  8
0
 10
-21.9379
 20
10.4469
 11
-21.5729
 21
10.3532
  0
LINE
  8
0
 10
-21.5729
 20
10.3532
 11
-21.2227
 21
10.2145
  0
LINE
  8
0
 10
-21.2227
 20
10.2145
 11
-20.8925
 21
10.033
  0
LINE
  8
0
 10
-20.8925
 20
10.033
 11
-20.5877
 21
9.81154
  0
LINE
  8
0
 10
-20.5877
 20
9.81154
 11
-20.3131
 21
9.55363
  0
LINE
  8
0
 10
-20.3131
 20
9.55363
 11
-20.0729
 21
9.26335
  0
LINE
  8
0
 10
-20.0729
 20
9.26335
 11
-19.8711
 21
8.94525
  0
LINE
  8
0
 10
-19.8711
 20
8.94525
 11
-19.8696
 21
8.94212
  0
LINE
  8
0
 10
-19.8696
 20
8.94212
 11
-19.3941
 21
9.2876
  0
LINE
  8
0
 10
-19.3941
 20
9.2876
 11
-18.1836
 21
9.95309
  0
LINE
  8
0
 10
-18.1836
 20
9.95309
 11
-16.8992
 21
10.4616
  0
LINE
  8
0
 10
-16.8992
 20
10.4616
 11
-15.5612
 21
10.8051
  0
LINE
  8
0
 10
-15.5612
 20
10.8051
 11
-14.1907
 21
10.9783
  0
LINE
  8
0
 10
-14.1907
 20
10.9783
 11
-12.8093
 21
10.9783
  0
LINE
  8
0
 10
-12.8093
 20
10.9783
 11
-11.4388
 21
10.8051
  0
LINE
  8
0
 10
-11.4388
 20
10.8051
 11
-10.1008
 21
10.4616
  0
LINE
  8
0
 10
-10.1008
 20
10.4616
 11
-8.81642
 21
9.95309
  0
LINE
  8
0
 10
-8.81642
 20
9.95309
 11
-7.6059
 21
9.2876
  0
LINE
  8
0
 10
-7.6059
 20
9.2876
 11
-6.48833
 21
8.47563
  0
LINE
  8
0
 10
-6.48833
 20
8.47563
 11
-5.48134
 21
7.53001
  0
LINE
  8
0
 10
-5.48134
 20
7.53001
 11
-4.6008
 21
6.46564
  0
LINE
  8
0
 10
-4.6008
 20
6.46564
 11
-3.86063
 21
5.29929
  0
LINE
  8
0
 10
-3.86063
 20
5.29929
 11
-3.27245
 21
4.04936
  0
LINE
  8
0
 10
-3.27245
 20
4.04936
 11
-2.84558
 21
2.73558
  0
LINE
  8
0
 10
-2.84558
 20
2.73558
 11
-2.58673
 21
1.37866
  0
LINE
  8
0
 10
-2.58673
 20
1.37866
 11
-2.5
 21
0
  0
LINE
  8
0
 10
-2.5
 20
0
 11
-2.58673
 21
-1.37866
  0
LINE
  8
0
 10
-2.58673
 20
-1.37866
 11
-2.84558
 21
-2.73558
  0
LINE
  8
0
 10
-2.84558
 20
-2.73558
 11
-3.27245
 21
-4.04936
  0
LINE
  8
0
 10
-3.27245
 20
-4.04936
 11
-3.86063
 21
-5.29929
  0
LINE
  8
0
 10
-3.86063
 20
-5.29929
 11
-4.6008
 21
-6.46564
  0
LINE
  8
0
 10
-4.6008
 20
-6.46564
 11
-5.48134
 21
-7.53001
  0
LINE
  8
0
 10
-5.48134
 20
-7.53001
 11
-6.48833
 21
-8.47563
  0
LINE
  8
0
 10
-6.48833
 20
-8.47563
 11
-7.6059
 21
-9.2876
  0
LINE
  8
0
 10
-7.6059
 20
-9.2876
 11
-8.81642
 21
-9.95309
  0
LINE
  8
0
 10
-8.81642
 20
-9.95309
 11
-10.1008
 21
-10.4616
  0
LINE
  8
0
 10
-10.1008
 20
-10.4616
 11
-11.4388
 21
-10.8051
  0
LINE
  8
0
 10
-11.4388
 20
-10.8051
 11
-12.8093
 21
-10.9783
  0
LINE
  8
0
 10
-12.8093
 20
-10.9783
 11
-14.1907
 21
-10.9783
  0
LINE
  8
0
 10
12.8093
 20
-10.9783
 11
11.4388
 21
-10.8051
  0
LINE
  8
0
 10
11.4388
 20
-10.8051
 11
10.1008
 21
-10.4616
  0
LINE
  8
0
 10
10.1008
 20
-10.4616
 11
8.81642
 21
-9.95309
  0
LINE
  8
0
 10
8.81642
 20
-9.95309
 11
7.6059
 21
-9.2876
  0
LINE
  8
0
 10
7.6059
 20
-9.2876
 11
6.48833
 21
-8.47563
  0
LINE
  8
0
 10
6.48833
 20
-8.47563
 11
5.48134
 21
-7.53001
  0
LINE
  8
0
 10
5.48134
 20
-7.53001
 11
4.6008
 21
-6.46564
  0
LINE
  8
0
 10
4.6008
 20
-6.46564
 11
3.86063
 21
-5.29929
  0
LINE
  8
0
 10
3.86063
 20
-5.29929
 11
3.27245
 21
-4.04936
  0
LINE
  8
0
 10
3.27245
 20
-4.04936
 11
2.84558
 21
-2.73558
  0
LINE
  8
0
 10
2.84558
 20
-2.73558
 11
2.58673
 21
-1.37866
  0
LINE
  8
0
 10
2.58673
 20
-1.37866
 11
2.5
 21
0
  0
LINE
  8
0
 10
2.5
 20
0
 11
2.58673
 21
1.37866
  0
LINE
  8
0
 10
2.58673
 20
1.37866
 11
2.84558
 21
2.73558
  0
LINE
  8
0
 10
2.84558
 20
2.73558
 11
3.27245
 21
4.04936
  0
LINE
  8
0
 10
3.27245
 20
4.04936
 11
3.86063
 21
5.29929
  0
LINE
  8
0
 10
3.86063
 20
5.29929
 11
4.6008
 21
6.46564
  0
LINE
  8
0
 10
4.6008
 20
6.46564
 11
5.48134
 21
7.53001
  0
LINE
  8
0
 10
5.48134
 20
7.53001
 11
6.48833
 21
8.47563
  0
LINE
  8
0
 10
6.48833
 20
8.47563
 11
7.6059
 21
9.2876
  0
LINE
  8
0
 10
7.6059
 20
9.2876
 11
8.81642
 21
9.95309
  0
LINE
  8
0
 10
8.81642
 20
9.95309
 11
10.1008
 21
10.4616
  0
LINE
  8
0
 10
10.1008
 20
10.4616
 11
11.4388
 21
10.8051
  0
LINE
  8
0
 10
11.4388
 20
10.8051
 11
12.8093
 21
10.9783
  0
LINE
  8
0
 10
12.8093
 20
10.9783
 11
14.1907
 21
10.9783
  0
LINE
  8
0
 10
14.1907
 20
10.9783
 11
15.5612
 21
10.8051
  0
LINE
  8
0
 10
15.5612
 20
10.8051
 11
16.8992
 21
10.4616
  0
LINE
  8
0
 10
16.8992
 20
10.4616
 11
18.1836
 21
9.95309
  0
LINE
  8
0
 10
18.1836
 20
9.95309
 11
19.3941
 21
9.2876
  0
LINE
  8
0
 10
19.3941
 20
9.2876
 11
19.8696
 21
8.94212
  0
LINE
  8
0
 10
19.8696
 20
8.94212
 11
19.8711
 21
8.94525
  0
LINE
  8
0
 10
19.8711
 20
8.94525
 11
20.0729
 21
9.26335
  0
LINE
  8
0
 10
20.0729
 20
9.26335
 11
20.3131
 21
9.55363
  0
LINE
  8
0
 10
20.3131
 20
9.55363
 11
20.5877
 21
9.81154
  0
LINE
  8
0
 10
20.5877
 20
9.81154
 11
20.8925
 21
10.033
  0
LINE
  8
0
 10
20.8925
 20
10.033
 11
21.2227
 21
10.2145
  0
LINE
  8
0
 10
21.2227
 20
10.2145
 11
21.5729
 21
10.3532
  0
LINE
  8
0
 10
21.5729
 20
10.3532
 11
21.9379
 21
10.4469
  0
LINE
  8
0
 10
21.9379
 20
10.4469
 11
22.3116
 21
10.4941
  0
LINE
  8
0
 10
22.3116
 20
10.4941
 11
22.6884
 21
10.4941
  0
LINE
  8
0
 10
22.6884
 20
10.4941
 11
23.0621
 21
10.4469
  0
LINE
  8
0
 10
23.0621
 20
10.4469
 11
23.427
 21
10.3532
  0
LINE
  8
0
 10
23.427
 20
10.3532
 11
23.7773
 21
10.2145
  0
LINE
  8
0
 10
23.7773
 20
10.2145
 11
24.1075
 21
10.033
  0
LINE
  8
0
 10
24.1075
 20
10.033
 11
24.4123
 21
9.81154
  0
LINE
  8
0
 10
24.4123
 20
9.81154
 11
24.6869
 21
9.55363
  0
LINE
  8
0
 10
24.6869
 20
9.55363
 11
24.927
 21
9.26335
  0
LINE
  8
0
 10
24.927
 20
9.26335
 11
25.1289
 21
8.94525
  0
LINE
  8
0
 10
25.1289
 20
8.94525
 11
25.2893
 21
8.60437
  0
LINE
  8
0
 10
25.2893
 20
8.60437
 11
25.4057
 21
8.24606
  0
LINE
  8
0
 10
25.4057
 20
8.24606
 11
25.4763
 21
7.87599
  0
LINE
  8
0
 10
25.4763
 20
7.87599
 11
25.5
 21
7.5
  0
LINE
  8
0
 10
25.5
 20
7.5
 11
25.4763
 21
7.12399
  0
LINE
  8
0
 10
25.4763
 20
7.12399
 11
25.4057
 21
6.75392
  0
LINE
  8
0
 10
25.4057
 20
6.75392
 11
25.2893
 21
6.39561
  0
LINE
  8
0
 10
25.2893
 20
6.39561
 11
25.1289
 21
6.05473
  0
LINE
  8
0
 10
25.1289
 20
6.05473
 11
24.927
 21
5.73663
  0
LINE
  8
0
 10
24.927
 20
5.73663
 11
24.6869
 21
5.44635
  0
LINE
  8
0
 10
24.6869
 20
5.44635
 11
24.4123
 21
5.18845
  0
LINE
  8
0
 10
24.4123
 20
5.18845
 11
24.1075
 21
4.96701
  0
LINE
  8
0
 10
24.1075
 20
4.96701
 11
23.7773
 21
4.78551
  0
LINE
  8
0
 10
23.7773
 20
4.78551
 11
23.4434
 21
4.65327
  0
LINE
  8
0
 10
23.4434
 20
4.65327
 11
23.7275
 21
4.04936
  0
LINE
  8
0
 10
23.7275
 20
4.04936
 11
24.1544
 21
2.73558
  0
LINE
  8
0
 10
24.1544
 20
2.73558
 11
24.4133
 21
1.37866
  0
LINE
  8
0
 10
24.4133
 20
1.37866
 11
24.5
 21
0
  0
LINE
  8
0
 10
24.5
 20
0
 11
24.4133
 21
-1.37866
  0
LINE
  8
0
 10
24.4133
 20
-1.37866
 11
24.1544
 21
-2.73558
  0
LINE
  8
0
 10
24.1544
 20
-2.73558
 11
23.7275
 21
-4.04936
  0
LINE
  8
0
 10
23.7275
 20
-4.04936
 11
23.4434
 21
-4.65327
  0
LINE
  8
0
 10
23.4434
 20
-4.65327
 11
23.7773
 21
-4.78551
  0
LINE
  8
0
 10
23.7773
 20
-4.78551
 11
24.1075
 21
-4.96701
  0
LINE
  8
0
 10
24.1075
 20
-4.96701
 11
24.4123
 21
-5.18845
  0
LINE
  8
0
 10
24.4123
 20
-5.18845
 11
24.6869
 21
-5.44635
  0
LINE
  8
0
 10
24.6869
 20
-5.44635
 11
24.927
 21
-5.73663
  0
LINE
  8
0
 10
24.927
 20
-5.73663
 11
25.1289
 21
-6.05473
  0
LINE
  8
0
 10
25.1289
 20
-6.05473
 11
25.2893
 21
-6.39561
  0
LINE
  8
0
 10
25.2893
 20
-6.39561
 11
25.4057
 21
-6.75392
  0
LINE
  8
0
 10
25.4057
 20
-6.75392
 11
25.4763
 21
-7.12399
  0
LINE
  8
0
 10
25.4763
 20
-7.12399
 11
25.5
 21
-7.5
  0
LINE
  8
0
 10
25.5
 20
-7.5
 11
25.4763
 21
-7.87599
  0
LINE
  8
0
 10
25.4763
 20
-7.87599
 11
25.4057
 21
-8.24606
  0
LINE
  8
0
 10
25.4057
 20
-8.24606
 11
25.2893
 21
-8.60437
  0
LINE
  8
0
 10
25.2893
 20
-8.60437
 11
25.1289
 21
-8.94525
  0
LINE
  8
0
 10
25.1289
 20
-8.94525
 11
24.927
 21
-9.26335
  0
LINE
  8
0
 10
24.927
 20
-9.26335
 11
24.6869
 21
-9.55363
  0
LINE
  8
0
 10
24.6869
 20
-9.55363
 11
24.4123
 21
-9.81154
  0
LINE
  8
0
 10
24.4123
 20
-9.81154
 11
24.1075
 21
-10.033
  0
LINE
  8
0
 10
24.1075
 20
-10.033
 11
23.7773
 21
-10.2145
  0
LINE
  8
0
 10
23.7773
 20
-10.2145
 11
23.427
 21
-10.3532
  0
LINE
  8
0
 10
23.427
 20
-10.3532
 11
23.0621
 21
-10.4469
  0
LINE
  8
0
 10
23.0621
 20
-10.4469
 11
22.6884
 21
-10.4941
  0
LINE
  8
0
 10
22.6884
 20
-10.4941
 11
22.3116
 21
-10.4941
  0
LINE
  8
0
 10
22.3116
 20
-10.4941
 11
21.9379
 21
-10.4469
  0
LINE
  8
0
 10
21.9379
 20
-10.4469
 11
21.5729
 21
-10.3532
  0
LINE
  8
0
 10
21.5729
 20
-10.3532
 11
21.2227
 21
-10.2145
  0
LINE
  8
0
 10
21.2227
 20
-10.2145
 11
20.8925
 21
-10.033
  0
LINE
  8
0
 10
20.8925
 20
-10.033
 11
20.5877
 21
-9.81154
  0
LINE
  8
0
 10
20.5877
 20
-9.81154
 11
20.3131
 21
-9.55363
  0
LINE
  8
0
 10
20.3131
 20
-9.55363
 11
20.0729
 21
-9.26335
  0
LINE
  8
0
 10
20.0729
 20
-9.26335
 11
19.8711
 21
-8.94525
  0
LINE
  8
0
 10
19.8711
 20
-8.94525
 11
19.8696
 21
-8.94212
  0
LINE
  8
0
 10
19.8696
 20
-8.94212
 11
19.3941
 21
-9.2876
  0
LINE
  8
0
 10
19.3941
 20
-9.2876
 11
18.1836
 21
-9.95309
  0
LINE
  8
0
 10
18.1836
 20
-9.95309
 11
16.8992
 21
-10.4616
  0
LINE
  8
0
 10
16.8992
 20
-10.4616
 11
15.5612
 21
-10.8051
  0
LINE
  8
0
 10
15.5612
 20
-10.8051
 11
14.1907
 21
-10.9783
  0
LINE
  8
0
 10
14.1907
 20
-10.9783
 11
12.8093
 21
-10.9783
  0
ENDSEC
  0
SECTION
  2
OBJECTS
  0
DICTIONARY
  0
ENDSEC
  0
EOF
