<?xml version="1.0" standalone="no"?>
<!DOCTYPE svg PUBLIC "-//W3C//DTD SVG 1.1//EN" "http://www.w3.org/Graphics/SVG/1.1/DTD/svg11.dtd">
<svg width="540mm" height="134mm" viewBox="-270 -67 540 134" xmlns="http://www.w3.org/2000/svg" version="1.1">
<title>OpenSCAD Model</title>
<path d="
M 265.437,66.9114 L 266.045,66.7553 L 266.629,66.5241 L 267.179,66.2216 L 267.687,65.8526 L 268.145,65.4227
 L 268.545,64.9389 L 268.882,64.4088 L 269.149,63.8406 L 269.343,63.2434 L 269.461,62.6267 L 269.5,62
 L 269.5,-62 L 269.461,-62.6267 L 269.343,-63.2434 L 269.149,-63.8406 L 268.882,-64.4088 L 268.545,-64.9389
 L 268.145,-65.4227 L 267.687,-65.8526 L 267.179,-66.2216 L 266.629,-66.5241 L 266.045,-66.7553 L 265.437,-66.9114
 L 264.814,-66.9901 L -264.814,-66.9901 L -265.437,-66.9114 L -266.045,-66.7553 L -266.629,-66.5241 L -267.179,-66.2216
 L -267.687,-65.8526 L -268.145,-65.4227 L -268.545,-64.9389 L -268.882,-64.4088 L -269.149,-63.8406 L -269.343,-63.2434
 L -269.461,-62.6267 L -269.5,-62 L -269.5,62 L -269.461,62.6267 L -269.343,63.2434 L -269.149,63.8406
 L -268.882,64.4088 L -268.545,64.9389 L -268.145,65.4227 L -267.687,65.8526 L -267.179,66.2216 L -266.629,66.5241
 L -266.045,66.7553 L -265.437,66.9114 L -264.814,66.9901 L 264.814,66.9901 z
M 262.312,-57.0059 L 261.938,-57.0531 L 261.573,-57.1468 L 261.223,-57.2855 L 260.893,-57.467 L 260.588,-57.6885
 L 260.313,-57.9464 L 260.073,-58.2366 L 259.871,-58.5547 L 259.711,-58.8956 L 259.594,-59.2539 L 259.524,-59.624
 L 259.5,-60 L 259.524,-60.376 L 259.594,-60.7461 L 259.711,-61.1044 L 259.871,-61.4453 L 260.073,-61.7634
 L 260.313,-62.0536 L 260.588,-62.3115 L 260.893,-62.533 L 261.223,-62.7145 L 261.573,-62.8532 L 261.938,-62.9469
 L 262.312,-62.9941 L 262.688,-62.9941 L 263.062,-62.9469 L 263.427,-62.8532 L 263.777,-62.7145 L 264.107,-62.533
 L 264.412,-62.3115 L 264.687,-62.0536 L 264.927,-61.7634 L 265.129,-61.4453 L 265.289,-61.1044 L 265.406,-60.7461
 L 265.476,-60.376 L 265.5,-60 L 265.476,-59.624 L 265.406,-59.2539 L 265.289,-58.8956 L 265.129,-58.5547
 L 264.927,-58.2366 L 264.687,-57.9464 L 264.412,-57.6885 L 264.107,-57.467 L 263.777,-57.2855 L 263.427,-57.1468
 L 263.062,-57.0531 L 262.688,-57.0059 z
M -262.688,-57.0059 L -263.062,-57.0531 L -263.427,-57.1468 L -263.777,-57.2855 L -264.107,-57.467 L -264.412,-57.6885
 L -264.687,-57.9464 L -264.927,-58.2366 L -265.129,-58.5547 L -265.289,-58.8956 L -265.406,-59.2539 L -265.476,-59.624
 L -265.5,-60 L -265.476,-60.376 L -265.406,-60.7461 L -265.289,-61.1044 L -265.129,-61.4453 L -264.927,-61.7634
 L -264.687,-62.0536 L -264.412,-62.3115 L -264.107,-62.533 L -263.777,-62.7145 L -263.427,-62.8532 L -263.062,-62.9469
 L -262.688,-62.9941 L -262.312,-62.9941 L -261.938,-62.9469 L -261.573,-62.8532 L -261.223,-62.7145 L -260.893,-62.533
 L -260.588,-62.3115 L -260.313,-62.0536 L -260.073,-61.7634 L -259.871,-61.4453 L -259.711,-61.1044 L -259.594,-60.7461
 L -259.524,-60.376 L -259.5,-60 L -259.524,-59.624 L -259.594,-59.2539 L -259.711,-58.8956 L -259.871,-58.5547
 L -260.073,-58.2366 L -260.313,-57.9464 L -260.588,-57.6885 L -260.893,-57.467 L -261.223,-57.2855 L -261.573,-57.1468
 L -261.938,-57.0531 L -262.312,-57.0059 z
M -68.9244,62.3767 L -76.7113,61.3929 L -84.3136,59.441 L -91.6112,56.5517 L -98.4892,52.7705 L -104.839,48.1571
 L -110.561,42.7842 L -115.564,36.7366 L -119.769,30.1096 L -123.111,23.0078 L -125.536,15.5431 L -127.007,7.83331
 L -127.5,-0 L -127.007,-7.83331 L -125.536,-15.5431 L -123.111,-23.0078 L -119.769,-30.1096 L -115.564,-36.7366
 L -110.561,-42.7842 L -104.839,-48.1571 L -98.4892,-52.7705 L -91.6112,-56.5517 L -84.3136,-59.441 L -76.7113,-61.3929
 L -68.9244,-62.3767 L -61.0756,-62.3767 L -53.2887,-61.3929 L -45.6864,-59.441 L -38.3888,-56.5517 L -31.5108,-52.7705
 L -25.161,-48.1571 L -19.4395,-42.7842 L -14.4364,-36.7366 L -10.2308,-30.1096 L -6.88896,-23.0078 L -4.46355,-15.5431
 L -2.99283,-7.83331 L -2.5,-0 L -2.99283,7.83331 L -4.46355,15.5431 L -6.88896,23.0078 L -10.2308,30.1096
 L -14.4364,36.7366 L -19.4395,42.7842 L -25.161,48.1571 L -31.5108,52.7705 L -38.3888,56.5517 L -45.6864,59.441
 L -53.2887,61.3929 L -61.0756,62.3767 z
M 61.0756,62.3767 L 53.2887,61.3929 L 45.6864,59.441 L 38.3888,56.5517 L 31.5108,52.7705 L 25.161,48.1571
 L 19.4395,42.7842 L 14.4364,36.7366 L 10.2308,30.1096 L 6.88896,23.0078 L 4.46355,15.5431 L 2.99283,7.83331
 L 2.5,-0 L 2.99283,-7.83331 L 4.46355,-15.5431 L 6.88896,-23.0078 L 10.2308,-30.1096 L 14.4364,-36.7366
 L 19.4395,-42.7842 L 25.161,-48.1571 L 31.5108,-52.7705 L 38.3888,-56.5517 L 45.6864,-59.441 L 53.2887,-61.3929
 L 61.0756,-62.3767 L 68.9244,-62.3767 L 76.7113,-61.3929 L 84.3136,-59.441 L 91.6112,-56.5517 L 98.4892,-52.7705
 L 104.839,-48.1571 L 110.561,-42.7842 L 115.564,-36.7366 L 119.769,-30.1096 L 123.111,-23.0078 L 125.536,-15.5431
 L 127.007,-7.83331 L 127.5,-0 L 127.007,7.83331 L 125.536,15.5431 L 123.111,23.0078 L 119.769,30.1096
 L 115.564,36.7366 L 110.561,42.7842 L 104.839,48.1571 L 98.4892,52.7705 L 91.6112,56.5517 L 84.3136,59.441
 L 76.7113,61.3929 L 68.9244,62.3767 z
M -198.924,62.3767 L -206.711,61.3929 L -214.314,59.441 L -221.611,56.5517 L -228.489,52.7705 L -234.839,48.1571
 L -240.561,42.7842 L -245.564,36.7366 L -249.769,30.1096 L -253.111,23.0078 L -255.536,15.5431 L -257.007,7.83331
 L -257.5,-0 L -257.007,-7.83331 L -255.536,-15.5431 L -253.111,-23.0078 L -249.769,-30.1096 L -245.564,-36.7366
 L -240.561,-42.7842 L -234.839,-48.1571 L -228.489,-52.7705 L -221.611,-56.5517 L -214.314,-59.441 L -206.711,-61.3929
 L -198.924,-62.3767 L -191.076,-62.3767 L -183.289,-61.3929 L -175.686,-59.441 L -168.389,-56.5517 L -161.511,-52.7705
 L -155.161,-48.1571 L -149.439,-42.7842 L -144.436,-36.7366 L -140.231,-30.1096 L -136.889,-23.0078 L -134.464,-15.5431
 L -132.993,-7.83331 L -132.5,-0 L -132.993,7.83331 L -134.464,15.5431 L -136.889,23.0078 L -140.231,30.1096
 L -144.436,36.7366 L -149.439,42.7842 L -155.161,48.1571 L -161.511,52.7705 L -168.389,56.5517 L -175.686,59.441
 L -183.289,61.3929 L -191.076,62.3767 z
M 191.076,62.3767 L 183.289,61.3929 L 175.686,59.441 L 168.389,56.5517 L 161.511,52.7705 L 155.161,48.1571
 L 149.439,42.7842 L 144.436,36.7366 L 140.231,30.1096 L 136.889,23.0078 L 134.464,15.5431 L 132.993,7.83331
 L 132.5,-0 L 132.993,-7.83331 L 134.464,-15.5431 L 136.889,-23.0078 L 140.231,-30.1096 L 144.436,-36.7366
 L 149.439,-42.7842 L 155.161,-48.1571 L 161.511,-52.7705 L 168.389,-56.5517 L 175.686,-59.441 L 183.289,-61.3929
 L 191.076,-62.3767 L 198.924,-62.3767 L 206.711,-61.3929 L 214.314,-59.441 L 221.611,-56.5517 L 228.489,-52.7705
 L 234.839,-48.1571 L 240.561,-42.7842 L 245.564,-36.7366 L 249.769,-30.1096 L 253.111,-23.0078 L 255.536,-15.5431
 L 257.007,-7.83331 L 257.5,-0 L 257.007,7.83331 L 255.536,15.5431 L 253.111,23.0078 L 249.769,30.1096
 L 245.564,36.7366 L 240.561,42.7842 L 234.839,48.1571 L 228.489,52.7705 L 221.611,56.5517 L 214.314,59.441
 L 206.711,61.3929 L 198.924,62.3767 z
M 262.406,-51.003 L 262.219,-51.0266 L 262.036,-51.0734 L 261.861,-51.1428 L 261.696,-51.2335 L 261.544,-51.3442
 L 261.407,-51.4732 L 261.286,-51.6183 L 261.186,-51.7774 L 261.105,-51.9478 L 261.047,-52.127 L 261.012,-52.312
 L 261,-52.5 L 261.012,-52.688 L 261.047,-52.873 L 261.105,-53.0522 L 261.186,-53.2226 L 261.286,-53.3817
 L 261.407,-53.5268 L 261.544,-53.6558 L 261.696,-53.7665 L 261.861,-53.8572 L 262.036,-53.9266 L 262.219,-53.9734
 L 262.406,-53.997 L 262.594,-53.997 L 262.781,-53.9734 L 262.964,-53.9266 L 263.139,-53.8572 L 263.304,-53.7665
 L 263.456,-53.6558 L 263.593,-53.5268 L 263.714,-53.3817 L 263.814,-53.2226 L 263.895,-53.0522 L 263.953,-52.873
 L 263.988,-52.688 L 264,-52.5 L 263.988,-52.312 L 263.953,-52.127 L 263.895,-51.9478 L 263.814,-51.7774
 L 263.714,-51.6183 L 263.593,-51.4732 L 263.456,-51.3442 L 263.304,-51.2335 L 263.139,-51.1428 L 262.964,-51.0734
 L 262.781,-51.0266 L 262.594,-51.003 z
M -262.594,-51.003 L -262.781,-51.0266 L -262.964,-51.0734 L -263.139,-51.1428 L -263.304,-51.2335 L -263.456,-51.3442
 L -263.593,-51.4732 L -263.714,-51.6183 L -263.814,-51.7774 L -263.895,-51.9478 L -263.953,-52.127 L -263.988,-52.312
 L -264,-52.5 L -263.988,-52.688 L -263.953,-52.873 L -263.895,-53.0522 L -263.814,-53.2226 L -263.714,-53.3817
 L -263.593,-53.5268 L -263.456,-53.6558 L -263.304,-53.7665 L -263.139,-53.8572 L -262.964,-53.9266 L -262.781,-53.9734
 L -262.594,-53.997 L -262.406,-53.997 L -262.219,-53.9734 L -262.036,-53.9266 L -261.861,-53.8572 L -261.696,-53.7665
 L -261.544,-53.6558 L -261.407,-53.5268 L -261.286,-53.3817 L -261.186,-53.2226 L -261.105,-53.0522 L -261.047,-52.873
 L -261.012,-52.688 L -261,-52.5 L -261.012,-52.312 L -261.047,-52.127 L -261.105,-51.9478 L -261.186,-51.7774
 L -261.286,-51.6183 L -261.407,-51.4732 L -261.544,-51.3442 L -261.696,-51.2335 L -261.861,-51.1428 L -262.036,-51.0734
 L -262.219,-51.0266 L -262.406,-51.003 z
M -262.688,-42.0059 L -263.062,-42.0531 L -263.427,-42.1468 L -263.777,-42.2855 L -264.107,-42.467 L -264.412,-42.6885
 L -264.687,-42.9464 L -264.927,-43.2366 L -265.129,-43.5547 L -265.289,-43.8956 L -265.406,-44.2539 L -265.476,-44.624
 L -265.5,-45 L -265.476,-45.376 L -265.406,-45.7461 L -265.289,-46.1044 L -265.129,-46.4453 L -264.927,-46.7634
 L -264.687,-47.0536 L -264.412,-47.3115 L -264.107,-47.533 L -263.777,-47.7145 L -263.427,-47.8532 L -263.062,-47.9469
 L -262.688,-47.9941 L -262.312,-47.9941 L -261.938,-47.9469 L -261.573,-47.8532 L -261.223,-47.7145 L -260.893,-47.533
 L -260.588,-47.3115 L -260.313,-47.0536 L -260.073,-46.7634 L -259.871,-46.4453 L -259.711,-46.1044 L -259.594,-45.7461
 L -259.524,-45.376 L -259.5,-45 L -259.524,-44.624 L -259.594,-44.2539 L -259.711,-43.8956 L -259.871,-43.5547
 L -260.073,-43.2366 L -260.313,-42.9464 L -260.588,-42.6885 L -260.893,-42.467 L -261.223,-42.2855 L -261.573,-42.1468
 L -261.938,-42.0531 L -262.312,-42.0059 z
M 262.312,-42.0059 L 261.938,-42.0531 L 261.573,-42.1468 L 261.223,-42.2855 L 260.893,-42.467 L 260.588,-42.6885
 L 260.313,-42.9464 L 260.073,-43.2366 L 259.871,-43.5547 L 259.711,-43.8956 L 259.594,-44.2539 L 259.524,-44.624
 L 259.5,-45 L 259.524,-45.376 L 259.594,-45.7461 L 259.711,-46.1044 L 259.871,-46.4453 L 260.073,-46.7634
 L 260.313,-47.0536 L 260.588,-47.3115 L 260.893,-47.533 L 261.223,-47.7145 L 261.573,-47.8532 L 261.938,-47.9469
 L 262.312,-47.9941 L 262.688,-47.9941 L 263.062,-47.9469 L 263.427,-47.8532 L 263.777,-47.7145 L 264.107,-47.533
 L 264.412,-47.3115 L 264.687,-47.0536 L 264.927,-46.7634 L 265.129,-46.4453 L 265.289,-46.1044 L 265.406,-45.7461
 L 265.476,-45.376 L 265.5,-45 L 265.476,-44.624 L 265.406,-44.2539 L 265.289,-43.8956 L 265.129,-43.5547
 L 264.927,-43.2366 L 264.687,-42.9464 L 264.412,-42.6885 L 264.107,-42.467 L 263.777,-42.2855 L 263.427,-42.1468
 L 263.062,-42.0531 L 262.688,-42.0059 z
M 262.406,-36.003 L 262.219,-36.0266 L 262.036,-36.0734 L 261.861,-36.1428 L 261.696,-36.2335 L 261.544,-36.3442
 L 261.407,-36.4732 L 261.286,-36.6183 L 261.186,-36.7774 L 261.105,-36.9478 L 261.047,-37.127 L 261.012,-37.312
 L 261,-37.5 L 261.012,-37.688 L 261.047,-37.873 L 261.105,-38.0522 L 261.186,-38.2226 L 261.286,-38.3817
 L 261.407,-38.5268 L 261.544,-38.6558 L 261.696,-38.7665 L 261.861,-38.8572 L 262.036,-38.9266 L 262.219,-38.9734
 L 262.406,-38.997 L 262.594,-38.997 L 262.781,-38.9734 L 262.964,-38.9266 L 263.139,-38.8572 L 263.304,-38.7665
 L 263.456,-38.6558 L 263.593,-38.5268 L 263.714,-38.3817 L 263.814,-38.2226 L 263.895,-38.0522 L 263.953,-37.873
 L 263.988,-37.688 L 264,-37.5 L 263.988,-37.312 L 263.953,-37.127 L 263.895,-36.9478 L 263.814,-36.7774
 L 263.714,-36.6183 L 263.593,-36.4732 L 263.456,-36.3442 L 263.304,-36.2335 L 263.139,-36.1428 L 262.964,-36.0734
 L 262.781,-36.0266 L 262.594,-36.003 z
M -262.594,-36.003 L -262.781,-36.0266 L -262.964,-36.0734 L -263.139,-36.1428 L -263.304,-36.2335 L -263.456,-36.3442
 L -263.593,-36.4732 L -263.714,-36.6183 L -263.814,-36.7774 L -263.895,-36.9478 L -263.953,-37.127 L -263.988,-37.312
 L -264,-37.5 L -263.988,-37.688 L -263.953,-37.873 L -263.895,-38.0522 L -263.814,-38.2226 L -263.714,-38.3817
 L -263.593,-38.5268 L -263.456,-38.6558 L -263.304,-38.7665 L -263.139,-38.8572 L -262.964,-38.9266 L -262.781,-38.9734
 L -262.594,-38.997 L -262.406,-38.997 L -262.219,-38.9734 L -262.036,-38.9266 L -261.861,-38.8572 L -261.696,-38.7665
 L -261.544,-38.6558 L -261.407,-38.5268 L -261.286,-38.3817 L -261.186,-38.2226 L -261.105,-38.0522 L -261.047,-37.873
 L -261.012,-37.688 L -261,-37.5 L -261.012,-37.312 L -261.047,-37.127 L -261.105,-36.9478 L -261.186,-36.7774
 L -261.286,-36.6183 L -261.407,-36.4732 L -261.544,-36.3442 L -261.696,-36.2335 L -261.861,-36.1428 L -262.036,-36.0734
 L -262.219,-36.0266 L -262.406,-36.003 z
M 262.312,-27.0059 L 261.938,-27.0531 L 261.573,-27.1468 L 261.223,-27.2855 L 260.893,-27.467 L 260.588,-27.6884
 L 260.313,-27.9464 L 260.073,-28.2366 L 259.871,-28.5547 L 259.711,-28.8956 L 259.594,-29.2539 L 259.524,-29.624
 L 259.5,-30 L 259.524,-30.376 L 259.594,-30.7461 L 259.711,-31.1044 L 259.871,-31.4453 L 260.073,-31.7634
 L 260.313,-32.0536 L 260.588,-32.3115 L 260.893,-32.533 L 261.223,-32.7145 L 261.573,-32.8532 L 261.938,-32.9469
 L 262.312,-32.9941 L 262.688,-32.9941 L 263.062,-32.9469 L 263.427,-32.8532 L 263.777,-32.7145 L 264.107,-32.533
 L 264.412,-32.3115 L 264.687,-32.0536 L 264.927,-31.7634 L 265.129,-31.4453 L 265.289,-31.1044 L 265.406,-30.7461
 L 265.476,-30.376 L 265.5,-30 L 265.476,-29.624 L 265.406,-29.2539 L 265.289,-28.8956 L 265.129,-28.5547
 L 264.927,-28.2366 L 264.687,-27.9464 L 264.412,-27.6884 L 264.107,-27.467 L 263.777,-27.2855 L 263.427,-27.1468
 L 263.062,-27.0531 L 262.688,-27.0059 z
M -262.688,-27.0059 L -263.062,-27.0531 L -263.427,-27.1468 L -263.777,-27.2855 L -264.107,-27.467 L -264.412,-27.6884
 L -264.687,-27.9464 L -264.927,-28.2366 L -265.129,-28.5547 L -265.289,-28.8956 L -265.406,-29.2539 L -265.476,-29.624
 L -265.5,-30 L -265.476,-30.376 L -265.406,-30.7461 L -265.289,-31.1044 L -265.129,-31.4453 L -264.927,-31.7634
 L -264.687,-32.0536 L -264.412,-32.3115 L -264.107,-32.533 L -263.777,-32.7145 L -263.427,-32.8532 L -263.062,-32.9469
 L -262.688,-32.9941 L -262.312,-32.9941 L -261.938,-32.9469 L -261.573,-32.8532 L -261.223,-32.7145 L -260.893,-32.533
 L -260.588,-32.3115 L -260.313,-32.0536 L -260.073,-31.7634 L -259.871,-31.4453 L -259.711,-31.1044 L -259.594,-30.7461
 L -259.524,-30.376 L -259.5,-30 L -259.524,-29.624 L -259.594,-29.2539 L -259.711,-28.8956 L -259.871,-28.5547
 L -260.073,-28.2366 L -260.313,-27.9464 L -260.588,-27.6884 L -260.893,-27.467 L -261.223,-27.2855 L -261.573,-27.1468
 L -261.938,-27.0531 L -262.312,-27.0059 z
M 262.406,-21.003 L 262.219,-21.0266 L 262.036,-21.0734 L 261.861,-21.1427 L 261.696,-21.2335 L 261.544,-21.3442
 L 261.407,-21.4732 L 261.286,-21.6183 L 261.186,-21.7774 L 261.105,-21.9478 L 261.047,-22.127 L 261.012,-22.312
 L 261,-22.5 L 261.012,-22.688 L 261.047,-22.873 L 261.105,-23.0522 L 261.186,-23.2226 L 261.286,-23.3817
 L 261.407,-23.5268 L 261.544,-23.6558 L 261.696,-23.7665 L 261.861,-23.8572 L 262.036,-23.9266 L 262.219,-23.9734
 L 262.406,-23.997 L 262.594,-23.997 L 262.781,-23.9734 L 262.964,-23.9266 L 263.139,-23.8572 L 263.304,-23.7665
 L 263.456,-23.6558 L 263.593,-23.5268 L 263.714,-23.3817 L 263.814,-23.2226 L 263.895,-23.0522 L 263.953,-22.873
 L 263.988,-22.688 L 264,-22.5 L 263.988,-22.312 L 263.953,-22.127 L 263.895,-21.9478 L 263.814,-21.7774
 L 263.714,-21.6183 L 263.593,-21.4732 L 263.456,-21.3442 L 263.304,-21.2335 L 263.139,-21.1427 L 262.964,-21.0734
 L 262.781,-21.0266 L 262.594,-21.003 z
M -262.594,-21.003 L -262.781,-21.0266 L -262.964,-21.0734 L -263.139,-21.1427 L -263.304,-21.2335 L -263.456,-21.3442
 L -263.593,-21.4732 L -263.714,-21.6183 L -263.814,-21.7774 L -263.895,-21.9478 L -263.953,-22.127 L -263.988,-22.312
 L -264,-22.5 L -263.988,-22.688 L -263.953,-22.873 L -263.895,-23.0522 L -263.814,-23.2226 L -263.714,-23.3817
 L -263.593,-23.5268 L -263.456,-23.6558 L -263.304,-23.7665 L -263.139,-23.8572 L -262.964,-23.9266 L -262.781,-23.9734
 L -262.594,-23.997 L -262.406,-23.997 L -262.219,-23.9734 L -262.036,-23.9266 L -261.861,-23.8572 L -261.696,-23.7665
 L -261.544,-23.6558 L -261.407,-23.5268 L -261.286,-23.3817 L -261.186,-23.2226 L -261.105,-23.0522 L -261.047,-22.873
 L -261.012,-22.688 L -261,-22.5 L -261.012,-22.312 L -261.047,-22.127 L -261.105,-21.9478 L -261.186,-21.7774
 L -261.286,-21.6183 L -261.407,-21.4732 L -261.544,-21.3442 L -261.696,-21.2335 L -261.861,-21.1427 L -262.036,-21.0734
 L -262.219,-21.0266 L -262.406,-21.003 z
M -262.688,-12.0059 L -263.062,-12.0531 L -263.427,-12.1468 L -263.777,-12.2855 L -264.107,-12.467 L -264.412,-12.6884
 L -264.687,-12.9464 L -264.927,-13.2366 L -265.129,-13.5547 L -265.289,-13.8956 L -265.406,-14.2539 L -265.476,-14.624
 L -265.5,-15 L -265.476,-15.376 L -265.406,-15.7461 L -265.289,-16.1044 L -265.129,-16.4453 L -264.927,-16.7634
 L -264.687,-17.0536 L -264.412,-17.3115 L -264.107,-17.533 L -263.777,-17.7145 L -263.427,-17.8532 L -263.062,-17.9469
 L -262.688,-17.9941 L -262.312,-17.9941 L -261.938,-17.9469 L -261.573,-17.8532 L -261.223,-17.7145 L -260.893,-17.533
 L -260.588,-17.3115 L -260.313,-17.0536 L -260.073,-16.7634 L -259.871,-16.4453 L -259.711,-16.1044 L -259.594,-15.7461
 L -259.524,-15.376 L -259.5,-15 L -259.524,-14.624 L -259.594,-14.2539 L -259.711,-13.8956 L -259.871,-13.5547
 L -260.073,-13.2366 L -260.313,-12.9464 L -260.588,-12.6884 L -260.893,-12.467 L -261.223,-12.2855 L -261.573,-12.1468
 L -261.938,-12.0531 L -262.312,-12.0059 z
M 262.312,-12.0059 L 261.938,-12.0531 L 261.573,-12.1468 L 261.223,-12.2855 L 260.893,-12.467 L 260.588,-12.6884
 L 260.313,-12.9464 L 260.073,-13.2366 L 259.871,-13.5547 L 259.711,-13.8956 L 259.594,-14.2539 L 259.524,-14.624
 L 259.5,-15 L 259.524,-15.376 L 259.594,-15.7461 L 259.711,-16.1044 L 259.871,-16.4453 L 260.073,-16.7634
 L 260.313,-17.0536 L 260.588,-17.3115 L 260.893,-17.533 L 261.223,-17.7145 L 261.573,-17.8532 L 261.938,-17.9469
 L 262.312,-17.9941 L 262.688,-17.9941 L 263.062,-17.9469 L 263.427,-17.8532 L 263.777,-17.7145 L 264.107,-17.533
 L 264.412,-17.3115 L 264.687,-17.0536 L 264.927,-16.7634 L 265.129,-16.4453 L 265.289,-16.1044 L 265.406,-15.7461
 L 265.476,-15.376 L 265.5,-15 L 265.476,-14.624 L 265.406,-14.2539 L 265.289,-13.8956 L 265.129,-13.5547
 L 264.927,-13.2366 L 264.687,-12.9464 L 264.412,-12.6884 L 264.107,-12.467 L 263.777,-12.2855 L 263.427,-12.1468
 L 263.062,-12.0531 L 262.688,-12.0059 z
M 262.406,-6.00294 L 262.219,-6.02657 L 262.036,-6.07341 L 261.861,-6.14275 L 261.696,-6.23351 L 261.544,-6.34422
 L 261.407,-6.47318 L 261.286,-6.61832 L 261.186,-6.77736 L 261.105,-6.9478 L 261.047,-7.12695 L 261.012,-7.312
 L 261,-7.5 L 261.012,-7.68799 L 261.047,-7.87303 L 261.105,-8.05219 L 261.186,-8.22263 L 261.286,-8.38167
 L 261.407,-8.52681 L 261.544,-8.65576 L 261.696,-8.76648 L 261.861,-8.85724 L 262.036,-8.92657 L 262.219,-8.97342
 L 262.406,-8.99704 L 262.594,-8.99704 L 262.781,-8.97342 L 262.964,-8.92657 L 263.139,-8.85724 L 263.304,-8.76648
 L 263.456,-8.65576 L 263.593,-8.52681 L 263.714,-8.38167 L 263.814,-8.22263 L 263.895,-8.05219 L 263.953,-7.87303
 L 263.988,-7.68799 L 264,-7.5 L 263.988,-7.312 L 263.953,-7.12695 L 263.895,-6.9478 L 263.814,-6.77736
 L 263.714,-6.61832 L 263.593,-6.47318 L 263.456,-6.34422 L 263.304,-6.23351 L 263.139,-6.14275 L 262.964,-6.07341
 L 262.781,-6.02657 L 262.594,-6.00294 z
M -262.594,-6.00294 L -262.781,-6.02657 L -262.964,-6.07341 L -263.139,-6.14275 L -263.304,-6.23351 L -263.456,-6.34422
 L -263.593,-6.47318 L -263.714,-6.61832 L -263.814,-6.77736 L -263.895,-6.9478 L -263.953,-7.12695 L -263.988,-7.312
 L -264,-7.5 L -263.988,-7.68799 L -263.953,-7.87303 L -263.895,-8.05219 L -263.814,-8.22263 L -263.714,-8.38167
 L -263.593,-8.52681 L -263.456,-8.65576 L -263.304,-8.76648 L -263.139,-8.85724 L -262.964,-8.92657 L -262.781,-8.97342
 L -262.594,-8.99704 L -262.406,-8.99704 L -262.219,-8.97342 L -262.036,-8.92657 L -261.861,-8.85724 L -261.696,-8.76648
 L -261.544,-8.65576 L -261.407,-8.52681 L -261.286,-8.38167 L -261.186,-8.22263 L -261.105,-8.05219 L -261.047,-7.87303
 L -261.012,-7.68799 L -261,-7.5 L -261.012,-7.312 L -261.047,-7.12695 L -261.105,-6.9478 L -261.186,-6.77736
 L -261.286,-6.61832 L -261.407,-6.47318 L -261.544,-6.34422 L -261.696,-6.23351 L -261.861,-6.14275 L -262.036,-6.07341
 L -262.219,-6.02657 L -262.406,-6.00294 z
M -262.688,2.99408 L -263.062,2.94685 L -263.427,2.85316 L -263.777,2.71448 L -264.107,2.53297 L -264.412,2.31154
 L -264.687,2.05363 L -264.927,1.76335 L -265.129,1.44525 L -265.289,1.10437 L -265.406,0.746063 L -265.476,0.375992
 L -265.5,-0 L -265.476,-0.375992 L -265.406,-0.746063 L -265.289,-1.10437 L -265.129,-1.44525 L -264.927,-1.76335
 L -264.687,-2.05363 L -264.412,-2.31154 L -264.107,-2.53297 L -263.777,-2.71448 L -263.427,-2.85316 L -263.062,-2.94685
 L -262.688,-2.99408 L -262.312,-2.99408 L -261.938,-2.94685 L -261.573,-2.85316 L -261.223,-2.71448 L -260.893,-2.53297
 L -260.588,-2.31154 L -260.313,-2.05363 L -260.073,-1.76335 L -259.871,-1.44525 L -259.711,-1.10437 L -259.594,-0.746063
 L -259.524,-0.375992 L -259.5,-0 L -259.524,0.375992 L -259.594,0.746063 L -259.711,1.10437 L -259.871,1.44525
 L -260.073,1.76335 L -260.313,2.05363 L -260.588,2.31154 L -260.893,2.53297 L -261.223,2.71448 L -261.573,2.85316
 L -261.938,2.94685 L -262.312,2.99408 z
M 262.312,2.99408 L 261.938,2.94685 L 261.573,2.85316 L 261.223,2.71448 L 260.893,2.53297 L 260.588,2.31154
 L 260.313,2.05363 L 260.073,1.76335 L 259.871,1.44525 L 259.711,1.10437 L 259.594,0.746063 L 259.524,0.375992
 L 259.5,-0 L 259.524,-0.375992 L 259.594,-0.746063 L 259.711,-1.10437 L 259.871,-1.44525 L 260.073,-1.76335
 L 260.313,-2.05363 L 260.588,-2.31154 L 260.893,-2.53297 L 261.223,-2.71448 L 261.573,-2.85316 L 261.938,-2.94685
 L 262.312,-2.99408 L 262.688,-2.99408 L 263.062,-2.94685 L 263.427,-2.85316 L 263.777,-2.71448 L 264.107,-2.53297
 L 264.412,-2.31154 L 264.687,-2.05363 L 264.927,-1.76335 L 265.129,-1.44525 L 265.289,-1.10437 L 265.406,-0.746063
 L 265.476,-0.375992 L 265.5,-0 L 265.476,0.375992 L 265.406,0.746063 L 265.289,1.10437 L 265.129,1.44525
 L 264.927,1.76335 L 264.687,2.05363 L 264.412,2.31154 L 264.107,2.53297 L 263.777,2.71448 L 263.427,2.85316
 L 263.062,2.94685 L 262.688,2.99408 z
M 262.406,8.99704 L 262.219,8.97342 L 262.036,8.92657 L 261.861,8.85724 L 261.696,8.76648 L 261.544,8.65576
 L 261.407,8.52681 L 261.286,8.38167 L 261.186,8.22263 L 261.105,8.05219 L 261.047,7.87303 L 261.012,7.68799
 L 261,7.5 L 261.012,7.312 L 261.047,7.12695 L 261.105,6.9478 L 261.186,6.77736 L 261.286,6.61832
 L 261.407,6.47318 L 261.544,6.34422 L 261.696,6.23351 L 261.861,6.14275 L 262.036,6.07341 L 262.219,6.02657
 L 262.406,6.00294 L 262.594,6.00294 L 262.781,6.02657 L 262.964,6.07341 L 263.139,6.14275 L 263.304,6.23351
 L 263.456,6.34422 L 263.593,6.47318 L 263.714,6.61832 L 263.814,6.77736 L 263.895,6.9478 L 263.953,7.12695
 L 263.988,7.312 L 264,7.5 L 263.988,7.68799 L 263.953,7.87303 L 263.895,8.05219 L 263.814,8.22263
 L 263.714,8.38167 L 263.593,8.52681 L 263.456,8.65576 L 263.304,8.76648 L 263.139,8.85724 L 262.964,8.92657
 L 262.781,8.97342 L 262.594,8.99704 z
M -262.594,8.99704 L -262.781,8.97342 L -262.964,8.92657 L -263.139,8.85724 L -263.304,8.76648 L -263.456,8.65576
 L -263.593,8.52681 L -263.714,8.38167 L -263.814,8.22263 L -263.895,8.05219 L -263.953,7.87303 L -263.988,7.68799
 L -264,7.5 L -263.988,7.312 L -263.953,7.12695 L -263.895,6.9478 L -263.814,6.77736 L -263.714,6.61832
 L -263.593,6.47318 L -263.456,6.34422 L -263.304,6.23351 L -263.139,6.14275 L -262.964,6.07341 L -262.781,6.02657
 L -262.594,6.00294 L -262.406,6.00294 L -262.219,6.02657 L -262.036,6.07341 L -261.861,6.14275 L -261.696,6.23351
 L -261.544,6.34422 L -261.407,6.47318 L -261.286,6.61832 L -261.186,6.77736 L -261.105,6.9478 L -261.047,7.12695
 L -261.012,7.312 L -261,7.5 L -261.012,7.68799 L -261.047,7.87303 L -261.105,8.05219 L -261.186,8.22263
 L -261.286,8.38167 L -261.407,8.52681 L -261.544,8.65576 L -261.696,8.76648 L -261.861,8.85724 L -262.036,8.92657
 L -262.219,8.97342 L -262.406,8.99704 z
M 262.312,17.9941 L 261.938,17.9469 L 261.573,17.8532 L 261.223,17.7145 L 260.893,17.533 L 260.588,17.3115
 L 260.313,17.0536 L 260.073,16.7634 L 259.871,16.4453 L 259.711,16.1044 L 259.594,15.7461 L 259.524,15.376
 L 259.5,15 L 259.524,14.624 L 259.594,14.2539 L 259.711,13.8956 L 259.871,13.5547 L 260.073,13.2366
 L 260.313,12.9464 L 260.588,12.6884 L 260.893,12.467 L 261.223,12.2855 L 261.573,12.1468 L 261.938,12.0531
 L 262.312,12.0059 L 262.688,12.0059 L 263.062,12.0531 L 263.427,12.1468 L 263.777,12.2855 L 264.107,12.467
 L 264.412,12.6884 L 264.687,12.9464 L 264.927,13.2366 L 265.129,13.5547 L 265.289,13.8956 L 265.406,14.2539
 L 265.476,14.624 L 265.5,15 L 265.476,15.376 L 265.406,15.7461 L 265.289,16.1044 L 265.129,16.4453
 L 264.927,16.7634 L 264.687,17.0536 L 264.412,17.3115 L 264.107,17.533 L 263.777,17.7145 L 263.427,17.8532
 L 263.062,17.9469 L 262.688,17.9941 z
M -262.688,17.9941 L -263.062,17.9469 L -263.427,17.8532 L -263.777,17.7145 L -264.107,17.533 L -264.412,17.3115
 L -264.687,17.0536 L -264.927,16.7634 L -265.129,16.4453 L -265.289,16.1044 L -265.406,15.7461 L -265.476,15.376
 L -265.5,15 L -265.476,14.624 L -265.406,14.2539 L -265.289,13.8956 L -265.129,13.5547 L -264.927,13.2366
 L -264.687,12.9464 L -264.412,12.6884 L -264.107,12.467 L -263.777,12.2855 L -263.427,12.1468 L -263.062,12.0531
 L -262.688,12.0059 L -262.312,12.0059 L -261.938,12.0531 L -261.573,12.1468 L -261.223,12.2855 L -260.893,12.467
 L -260.588,12.6884 L -260.313,12.9464 L -260.073,13.2366 L -259.871,13.5547 L -259.711,13.8956 L -259.594,14.2539
 L -259.524,14.624 L -259.5,15 L -259.524,15.376 L -259.594,15.7461 L -259.711,16.1044 L -259.871,16.4453
 L -260.073,16.7634 L -260.313,17.0536 L -260.588,17.3115 L -260.893,17.533 L -261.223,17.7145 L -261.573,17.8532
 L -261.938,17.9469 L -262.312,17.9941 z
M 262.406,23.997 L 262.219,23.9734 L 262.036,23.9266 L 261.861,23.8572 L 261.696,23.7665 L 261.544,23.6558
 L 261.407,23.5268 L 261.286,23.3817 L 261.186,23.2226 L 261.105,23.0522 L 261.047,22.873 L 261.012,22.688
 L 261,22.5 L 261.012,22.312 L 261.047,22.127 L 261.105,21.9478 L 261.186,21.7774 L 261.286,21.6183
 L 261.407,21.4732 L 261.544,21.3442 L 261.696,21.2335 L 261.861,21.1427 L 262.036,21.0734 L 262.219,21.0266
 L 262.406,21.003 L 262.594,21.003 L 262.781,21.0266 L 262.964,21.0734 L 263.139,21.1427 L 263.304,21.2335
 L 263.456,21.3442 L 263.593,21.4732 L 263.714,21.6183 L 263.814,21.7774 L 263.895,21.9478 L 263.953,22.127
 L 263.988,22.312 L 264,22.5 L 263.988,22.688 L 263.953,22.873 L 263.895,23.0522 L 263.814,23.2226
 L 263.714,23.3817 L 263.593,23.5268 L 263.456,23.6558 L 263.304,23.7665 L 263.139,23.8572 L 262.964,23.9266
 L 262.781,23.9734 L 262.594,23.997 z
M -262.594,23.997 L -262.781,23.9734 L -262.964,23.9266 L -263.139,23.8572 L -263.304,23.7665 L -263.456,23.6558
 L -263.593,23.5268 L -263.714,23.3817 L -263.814,23.2226 L -263.895,23.0522 L -263.953,22.873 L -263.988,22.688
 L -264,22.5 L -263.988,22.312 L -263.953,22.127 L -263.895,21.9478 L -263.814,21.7774 L -263.714,21.6183
 L -263.593,21.4732 L -263.456,21.3442 L -263.304,21.2335 L -263.139,21.1427 L -262.964,21.0734 L -262.781,21.0266
 L -262.594,21.003 L -262.406,21.003 L -262.219,21.0266 L -262.036,21.0734 L -261.861,21.1427 L -261.696,21.2335
 L -261.544,21.3442 L -261.407,21.4732 L -261.286,21.6183 L -261.186,21.7774 L -261.105,21.9478 L -261.047,22.127
 L -261.012,22.312 L -261,22.5 L -261.012,22.688 L -261.047,22.873 L -261.105,23.0522 L -261.186,23.2226
 L -261.286,23.3817 L -261.407,23.5268 L -261.544,23.6558 L -261.696,23.7665 L -261.861,23.8572 L -262.036,23.9266
 L -262.219,23.9734 L -262.406,23.997 z
M -262.688,32.9941 L -263.062,32.9469 L -263.427,32.8532 L -263.777,32.7145 L -264.107,32.533 L -264.412,32.3115
 L -264.687,32.0536 L -264.927,31.7634 L -265.129,31.4453 L -265.289,31.1044 L -265.406,30.7461 L -265.476,30.376
 L -265.5,30 L -265.476,29.624 L -265.406,29.2539 L -265.289,28.8956 L -265.129,28.5547 L -264.927,28.2366
 L -264.687,27.9464 L -264.412,27.6884 L -264.107,27.467 L -263.777,27.2855 L -263.427,27.1468 L -263.062,27.0531
 L -262.688,27.0059 L -262.312,27.0059 L -261.938,27.0531 L -261.573,27.1468 L -261.223,27.2855 L -260.893,27.467
 L -260.588,27.6884 L -260.313,27.9464 L -260.073,28.2366 L -259.871,28.5547 L -259.711,28.8956 L -259.594,29.2539
 L -259.524,29.624 L -259.5,30 L -259.524,30.376 L -259.594,30.7461 L -259.711,31.1044 L -259.871,31.4453
 L -260.073,31.7634 L -260.313,32.0536 L -260.588,32.3115 L -260.893,32.533 L -261.223,32.7145 L -261.573,32.8532
 L -261.938,32.9469 L -262.312,32.9941 z
M 262.312,32.9941 L 261.938,32.9469 L 261.573,32.8532 L 261.223,32.7145 L 260.893,32.533 L 260.588,32.3115
 L 260.313,32.0536 L 260.073,31.7634 L 259.871,31.4453 L 259.711,31.1044 L 259.594,30.7461 L 259.524,30.376
 L 259.5,30 L 259.524,29.624 L 259.594,29.2539 L 259.711,28.8956 L 259.871,28.5547 L 260.073,28.2366
 L 260.313,27.9464 L 260.588,27.6884 L 260.893,27.467 L 261.223,27.2855 L 261.573,27.1468 L 261.938,27.0531
 L 262.312,27.0059 L 262.688,27.0059 L 263.062,27.0531 L 263.427,27.1468 L 263.777,27.2855 L 264.107,27.467
 L 264.412,27.6884 L 264.687,27.9464 L 264.927,28.2366 L 265.129,28.5547 L 265.289,28.8956 L 265.406,29.2539
 L 265.476,29.624 L 265.5,30 L 265.476,30.376 L 265.406,30.7461 L 265.289,31.1044 L 265.129,31.4453
 L 264.927,31.7634 L 264.687,32.0536 L 264.412,32.3115 L 264.107,32.533 L 263.777,32.7145 L 263.427,32.8532
 L 263.062,32.9469 L 262.688,32.9941 z
M -262.594,38.997 L -262.781,38.9734 L -262.964,38.9266 L -263.139,38.8572 L -263.304,38.7665 L -263.456,38.6558
 L -263.593,38.5268 L -263.714,38.3817 L -263.814,38.2226 L -263.895,38.0522 L -263.953,37.873 L -263.988,37.688
 L -264,37.5 L -263.988,37.312 L -263.953,37.127 L -263.895,36.9478 L -263.814,36.7774 L -263.714,36.6183
 L -263.593,36.4732 L -263.456,36.3442 L -263.304,36.2335 L -263.139,36.1428 L -262.964,36.0734 L -262.781,36.0266
 L -262.594,36.003 L -262.406,36.003 L -262.219,36.0266 L -262.036,36.0734 L -261.861,36.1428 L -261.696,36.2335
 L -261.544,36.3442 L -261.407,36.4732 L -261.286,36.6183 L -261.186,36.7774 L -261.105,36.9478 L -261.047,37.127
 L -261.012,37.312 L -261,37.5 L -261.012,37.688 L -261.047,37.873 L -261.105,38.0522 L -261.186,38.2226
 L -261.286,38.3817 L -261.407,38.5268 L -261.544,38.6558 L -261.696,38.7665 L -261.861,38.8572 L -262.036,38.9266
 L -262.219,38.9734 L -262.406,38.997 z
M 262.406,38.997 L 262.219,38.9734 L 262.036,38.9266 L 261.861,38.8572 L 261.696,38.7665 L 261.544,38.6558
 L 261.407,38.5268 L 261.286,38.3817 L 261.186,38.2226 L 261.105,38.0522 L 261.047,37.873 L 261.012,37.688
 L 261,37.5 L 261.012,37.312 L 261.047,37.127 L 261.105,36.9478 L 261.186,36.7774 L 261.286,36.6183
 L 261.407,36.4732 L 261.544,36.3442 L 261.696,36.2335 L 261.861,36.1428 L 262.036,36.0734 L 262.219,36.0266
 L 262.406,36.003 L 262.594,36.003 L 262.781,36.0266 L 262.964,36.0734 L 263.139,36.1428 L 263.304,36.2335
 L 263.456,36.3442 L 263.593,36.4732 L 263.714,36.6183 L 263.814,36.7774 L 263.895,36.9478 L 263.953,37.127
 L 263.988,37.312 L 264,37.5 L 263.988,37.688 L 263.953,37.873 L 263.895,38.0522 L 263.814,38.2226
 L 263.714,38.3817 L 263.593,38.5268 L 263.456,38.6558 L 263.304,38.7665 L 263.139,38.8572 L 262.964,38.9266
 L 262.781,38.9734 L 262.594,38.997 z
M -262.688,47.9941 L -263.062,47.9469 L -263.427,47.8532 L -263.777,47.7145 L -264.107,47.533 L -264.412,47.3115
 L -264.687,47.0536 L -264.927,46.7634 L -265.129,46.4453 L -265.289,46.1044 L -265.406,45.7461 L -265.476,45.376
 L -265.5,45 L -265.476,44.624 L -265.406,44.2539 L -265.289,43.8956 L -265.129,43.5547 L -264.927,43.2366
 L -264.687,42.9464 L -264.412,42.6885 L -264.107,42.467 L -263.777,42.2855 L -263.427,42.1468 L -263.062,42.0531
 L -262.688,42.0059 L -262.312,42.0059 L -261.938,42.0531 L -261.573,42.1468 L -261.223,42.2855 L -260.893,42.467
 L -260.588,42.6885 L -260.313,42.9464 L -260.073,43.2366 L -259.871,43.5547 L -259.711,43.8956 L -259.594,44.2539
 L -259.524,44.624 L -259.5,45 L -259.524,45.376 L -259.594,45.7461 L -259.711,46.1044 L -259.871,46.4453
 L -260.073,46.7634 L -260.313,47.0536 L -260.588,47.3115 L -260.893,47.533 L -261.223,47.7145 L -261.573,47.8532
 L -261.938,47.9469 L -262.312,47.9941 z
M 262.312,47.9941 L 261.938,47.9469 L 261.573,47.8532 L 261.223,47.7145 L 260.893,47.533 L 260.588,47.3115
 L 260.313,47.0536 L 260.073,46.7634 L 259.871,46.4453 L 259.711,46.1044 L 259.594,45.7461 L 259.524,45.376
 L 259.5,45 L 259.524,44.624 L 259.594,44.2539 L 259.711,43.8956 L 259.871,43.5547 L 260.073,43.2366
 L 260.313,42.9464 L 260.588,42.6885 L 260.893,42.467 L 261.223,42.2855 L 261.573,42.1468 L 261.938,42.0531
 L 262.312,42.0059 L 262.688,42.0059 L 263.062,42.0531 L 263.427,42.1468 L 263.777,42.2855 L 264.107,42.467
 L 264.412,42.6885 L 264.687,42.9464 L 264.927,43.2366 L 265.129,43.5547 L 265.289,43.8956 L 265.406,44.2539
 L 265.476,44.624 L 265.5,45 L 265.476,45.376 L 265.406,45.7461 L 265.289,46.1044 L 265.129,46.4453
 L 264.927,46.7634 L 264.687,47.0536 L 264.412,47.3115 L 264.107,47.533 L 263.777,47.7145 L 263.427,47.8532
 L 263.062,47.9469 L 262.688,47.9941 z
M -262.594,53.997 L -262.781,53.9734 L -262.964,53.9266 L -263.139,53.8572 L -263.304,53.7665 L -263.456,53.6558
 L -263.593,53.5268 L -263.714,53.3817 L -263.814,53.2226 L -263.895,53.0522 L -263.953,52.873 L -263.988,52.688
 L -264,52.5 L -263.988,52.312 L -263.953,52.127 L -263.895,51.9478 L -263.814,51.7774 L -263.714,51.6183
 L -263.593,51.4732 L -263.456,51.3442 L -263.304,51.2335 L -263.139,51.1428 L -262.964,51.0734 L -262.781,51.0266
 L -262.594,51.003 L -262.406,51.003 L -262.219,51.0266 L -262.036,51.0734 L -261.861,51.1428 L -261.696,51.2335
 L -261.544,51.3442 L -261.407,51.4732 L -261.286,51.6183 L -261.186,51.7774 L -261.105,51.9478 L -261.047,52.127
 L -261.012,52.312 L -261,52.5 L -261.012,52.688 L -261.047,52.873 L -261.105,53.0522 L -261.186,53.2226
 L -261.286,53.3817 L -261.407,53.5268 L -261.544,53.6558 L -261.696,53.7665 L -261.861,53.8572 L -262.036,53.9266
 L -262.219,53.9734 L -262.406,53.997 z
M 262.406,53.997 L 262.219,53.9734 L 262.036,53.9266 L 261.861,53.8572 L 261.696,53.7665 L 261.544,53.6558
 L 261.407,53.5268 L 261.286,53.3817 L 261.186,53.2226 L 261.105,53.0522 L 261.047,52.873 L 261.012,52.688
 L 261,52.5 L 261.012,52.312 L 261.047,52.127 L 261.105,51.9478 L 261.186,51.7774 L 261.286,51.6183
 L 261.407,51.4732 L 261.544,51.3442 L 261.696,51.2335 L 261.861,51.1428 L 262.036,51.0734 L 262.219,51.0266
 L 262.406,51.003 L 262.594,51.003 L 262.781,51.0266 L 262.964,51.0734 L 263.139,51.1428 L 263.304,51.2335
 L 263.456,51.3442 L 263.593,51.4732 L 263.714,51.6183 L 263.814,51.7774 L 263.895,51.9478 L 263.953,52.127
 L 263.988,52.312 L 264,52.5 L 263.988,52.688 L 263.953,52.873 L 263.895,53.0522 L 263.814,53.2226
 L 263.714,53.3817 L 263.593,53.5268 L 263.456,53.6558 L 263.304,53.7665 L 263.139,53.8572 L 262.964,53.9266
 L 262.781,53.9734 L 262.594,53.997 z
M -262.688,62.9941 L -263.062,62.9469 L -263.427,62.8532 L -263.777,62.7145 L -264.107,62.533 L -264.412,62.3115
 L -264.687,62.0536 L -264.927,61.7634 L -265.129,61.4453 L -265.289,61.1044 L -265.406,60.7461 L -265.476,60.376
 L -265.5,60 L -265.476,59.624 L -265.406,59.2539 L -265.289,58.8956 L -265.129,58.5547 L -264.927,58.2366
 L -264.687,57.9464 L -264.412,57.6885 L -264.107,57.467 L -263.777,57.2855 L -263.427,57.1468 L -263.062,57.0531
 L -262.688,57.0059 L -262.312,57.0059 L -261.938,57.0531 L -261.573,57.1468 L -261.223,57.2855 L -260.893,57.467
 L -260.588,57.6885 L -260.313,57.9464 L -260.073,58.2366 L -259.871,58.5547 L -259.711,58.8956 L -259.594,59.2539
 L -259.524,59.624 L -259.5,60 L -259.524,60.376 L -259.594,60.7461 L -259.711,61.1044 L -259.871,61.4453
 L -260.073,61.7634 L -260.313,62.0536 L -260.588,62.3115 L -260.893,62.533 L -261.223,62.7145 L -261.573,62.8532
 L -261.938,62.9469 L -262.312,62.9941 z
M 262.312,62.9941 L 261.938,62.9469 L 261.573,62.8532 L 261.223,62.7145 L 260.893,62.533 L 260.588,62.3115
 L 260.313,62.0536 L 260.073,61.7634 L 259.871,61.4453 L 259.711,61.1044 L 259.594,60.7461 L 259.524,60.376
 L 259.5,60 L 259.524,59.624 L 259.594,59.2539 L 259.711,58.8956 L 259.871,58.5547 L 260.073,58.2366
 L 260.313,57.9464 L 260.588,57.6885 L 260.893,57.467 L 261.223,57.2855 L 261.573,57.1468 L 261.938,57.0531
 L 262.312,57.0059 L 262.688,57.0059 L 263.062,57.0531 L 263.427,57.1468 L 263.777,57.2855 L 264.107,57.467
 L 264.412,57.6885 L 264.687,57.9464 L 264.927,58.2366 L 265.129,58.5547 L 265.289,58.8956 L 265.406,59.2539
 L 265.476,59.624 L 265.5,60 L 265.476,60.376 L 265.406,60.7461 L 265.289,61.1044 L 265.129,61.4453
 L 264.927,61.7634 L 264.687,62.0536 L 264.412,62.3115 L 264.107,62.533 L 263.777,62.7145 L 263.427,62.8532
 L 263.062,62.9469 L 262.688,62.9941 z
" stroke="black" fill="lightgray" stroke-width="0.5"/>
</svg>
