<?xml version="1.0" standalone="no"?>
<!DOCTYPE svg PUBLIC "-//W3C//DTD SVG 1.1//EN" "http://www.w3.org/Graphics/SVG/1.1/DTD/svg11.dtd">
<svg width="90mm" height="60mm" viewBox="-45 -30 90 60" xmlns="http://www.w3.org/2000/svg" version="1.1">
<title>OpenSCAD Model</title>
<path d="
M 40.4369,29.4114 L 41.0451,29.2553 L 41.6289,29.0241 L 42.1791,28.7216 L 42.6871,28.3526 L 43.1448,27.9227
 L 43.5451,27.4389 L 43.8815,26.9088 L 44.1489,26.3406 L 44.3429,25.7434 L 44.4606,25.1267 L 44.5,24.5
 L 44.5,-24.5 L 44.4606,-25.1267 L 44.3429,-25.7434 L 44.1489,-26.3406 L 43.8815,-26.9088 L 43.5451,-27.4389
 L 43.1448,-27.9227 L 42.6871,-28.3526 L 42.1791,-28.7216 L 41.6289,-29.0241 L 41.0451,-29.2553 L 40.4369,-29.4114
 L 39.8139,-29.4901 L -39.8139,-29.4901 L -40.4369,-29.4114 L -41.0451,-29.2553 L -41.6289,-29.0241 L -42.1791,-28.7216
 L -42.6871,-28.3526 L -43.1448,-27.9227 L -43.5451,-27.4389 L -43.8815,-26.9088 L -44.1489,-26.3406 L -44.3429,-25.7434
 L -44.4606,-25.1267 L -44.5,-24.5 L -44.5,24.5 L -44.4606,25.1267 L -44.3429,25.7434 L -44.1489,26.3406
 L -43.8815,26.9088 L -43.5451,27.4389 L -43.1448,27.9227 L -42.6871,28.3526 L -42.1791,28.7216 L -41.6289,29.0241
 L -41.0451,29.2553 L -40.4369,29.4114 L -39.8139,29.4901 L 39.8139,29.4901 z
M 22.3116,-19.5059 L 21.9379,-19.5531 L 21.5729,-19.6468 L 21.2227,-19.7855 L 20.8925,-19.967 L 20.5877,-20.1884
 L 20.3131,-20.4464 L 20.0729,-20.7366 L 19.8711,-21.0547 L 19.7107,-21.3956 L 19.5942,-21.7539 L 19.5237,-22.124
 L 19.5,-22.5 L 19.5237,-22.876 L 19.5942,-23.2461 L 19.7107,-23.6044 L 19.8711,-23.9453 L 20.0729,-24.2634
 L 20.3131,-24.5536 L 20.5877,-24.8115 L 20.8925,-25.033 L 21.2227,-25.2145 L 21.5729,-25.3532 L 21.9379,-25.4469
 L 22.3116,-25.4941 L 22.6884,-25.4941 L 23.0621,-25.4469 L 23.427,-25.3532 L 23.7773,-25.2145 L 24.1075,-25.033
 L 24.4123,-24.8115 L 24.6869,-24.5536 L 24.927,-24.2634 L 25.1289,-23.9453 L 25.2893,-23.6044 L 25.4057,-23.2461
 L 25.4763,-22.876 L 25.5,-22.5 L 25.4763,-22.124 L 25.4057,-21.7539 L 25.2893,-21.3956 L 25.1289,-21.0547
 L 24.927,-20.7366 L 24.6869,-20.4464 L 24.4123,-20.1884 L 24.1075,-19.967 L 23.7773,-19.7855 L 23.427,-19.6468
 L 23.0621,-19.5531 L 22.6884,-19.5059 z
M 4.59424,-23.2461 L 4.71066,-23.6044 L 4.87108,-23.9453 L 5.07294,-24.2634 L 5.31308,-24.5536 L 5.58772,-24.8115
 L 5.89252,-25.033 L 6.22266,-25.2145 L 6.57294,-25.3532 L 6.93785,-25.4469 L 7.31161,-25.4941 L 7.68837,-25.4941
 L 8.06213,-25.4469 L 8.42705,-25.3532 L 8.77733,-25.2145 L 9.10747,-25.033 L 9.41226,-24.8115 L 9.6869,-24.5536
 L 9.92705,-24.2634 L 10.1289,-23.9453 L 10.2893,-23.6044 L 10.4057,-23.2461 L 10.4763,-22.876 L 10.5,-22.5
 L 10.4763,-22.124 L 10.4057,-21.7539 L 10.2893,-21.3956 L 10.1289,-21.0547 L 9.92705,-20.7366 L 9.6869,-20.4464
 L 9.41226,-20.1884 L 9.10747,-19.967 L 8.77733,-19.7855 L 8.42705,-19.6468 L 8.06213,-19.5531 L 7.68837,-19.5059
 L 7.31161,-19.5059 L 6.93785,-19.5531 L 6.57294,-19.6468 L 6.22266,-19.7855 L 5.89252,-19.967 L 5.58772,-20.1884
 L 5.31308,-20.4464 L 5.07294,-20.7366 L 4.87108,-21.0547 L 4.71066,-21.3956 L 4.59424,-21.7539 L 4.52365,-22.124
 L 4.5,-22.5 L 4.52365,-22.876 z
M -37.6884,-19.5059 L -38.0621,-19.5531 L -38.427,-19.6468 L -38.7773,-19.7855 L -39.1075,-19.967 L -39.4123,-20.1884
 L -39.6869,-20.4464 L -39.927,-20.7366 L -40.1289,-21.0547 L -40.2893,-21.3956 L -40.4057,-21.7539 L -40.4763,-22.124
 L -40.5,-22.5 L -40.4763,-22.876 L -40.4057,-23.2461 L -40.2893,-23.6044 L -40.1289,-23.9453 L -39.927,-24.2634
 L -39.6869,-24.5536 L -39.4123,-24.8115 L -39.1075,-25.033 L -38.7773,-25.2145 L -38.427,-25.3532 L -38.0621,-25.4469
 L -37.6884,-25.4941 L -37.3116,-25.4941 L -36.9379,-25.4469 L -36.5729,-25.3532 L -36.2227,-25.2145 L -35.8925,-25.033
 L -35.5877,-24.8115 L -35.3131,-24.5536 L -35.0729,-24.2634 L -34.8711,-23.9453 L -34.7107,-23.6044 L -34.5942,-23.2461
 L -34.5237,-22.876 L -34.5,-22.5 L -34.5237,-22.124 L -34.5942,-21.7539 L -34.7107,-21.3956 L -34.8711,-21.0547
 L -35.0729,-20.7366 L -35.3131,-20.4464 L -35.5877,-20.1884 L -35.8925,-19.967 L -36.2227,-19.7855 L -36.5729,-19.6468
 L -36.9379,-19.5531 L -37.3116,-19.5059 z
M -22.6884,-19.5059 L -23.0621,-19.5531 L -23.427,-19.6468 L -23.7773,-19.7855 L -24.1075,-19.967 L -24.4123,-20.1884
 L -24.6869,-20.4464 L -24.927,-20.7366 L -25.1289,-21.0547 L -25.2893,-21.3956 L -25.4057,-21.7539 L -25.4763,-22.124
 L -25.5,-22.5 L -25.4763,-22.876 L -25.4057,-23.2461 L -25.2893,-23.6044 L -25.1289,-23.9453 L -24.927,-24.2634
 L -24.6869,-24.5536 L -24.4123,-24.8115 L -24.1075,-25.033 L -23.7773,-25.2145 L -23.427,-25.3532 L -23.0621,-25.4469
 L -22.6884,-25.4941 L -22.3116,-25.4941 L -21.9379,-25.4469 L -21.5729,-25.3532 L -21.2227,-25.2145 L -20.8925,-25.033
 L -20.5877,-24.8115 L -20.3131,-24.5536 L -20.0729,-24.2634 L -19.8711,-23.9453 L -19.7107,-23.6044 L -19.5942,-23.2461
 L -19.5237,-22.876 L -19.5,-22.5 L -19.5237,-22.124 L -19.5942,-21.7539 L -19.7107,-21.3956 L -19.8711,-21.0547
 L -20.0729,-20.7366 L -20.3131,-20.4464 L -20.5877,-20.1884 L -20.8925,-19.967 L -21.2227,-19.7855 L -21.5729,-19.6468
 L -21.9379,-19.5531 L -22.3116,-19.5059 z
M -7.68837,-19.5059 L -8.06213,-19.5531 L -8.42705,-19.6468 L -8.77733,-19.7855 L -9.10747,-19.967 L -9.41226,-20.1884
 L -9.6869,-20.4464 L -9.92705,-20.7366 L -10.1289,-21.0547 L -10.2893,-21.3956 L -10.4057,-21.7539 L -10.4763,-22.124
 L -10.5,-22.5 L -10.4763,-22.876 L -10.4057,-23.2461 L -10.2893,-23.6044 L -10.1289,-23.9453 L -9.92705,-24.2634
 L -9.6869,-24.5536 L -9.41226,-24.8115 L -9.10747,-25.033 L -8.77733,-25.2145 L -8.42705,-25.3532 L -8.06213,-25.4469
 L -7.68837,-25.4941 L -7.31161,-25.4941 L -6.93785,-25.4469 L -6.57294,-25.3532 L -6.22266,-25.2145 L -5.89252,-25.033
 L -5.58772,-24.8115 L -5.31308,-24.5536 L -5.07294,-24.2634 L -4.87108,-23.9453 L -4.71066,-23.6044 L -4.59424,-23.2461
 L -4.52365,-22.876 L -4.5,-22.5 L -4.52365,-22.124 L -4.59424,-21.7539 L -4.71066,-21.3956 L -4.87108,-21.0547
 L -5.07294,-20.7366 L -5.31308,-20.4464 L -5.58772,-20.1884 L -5.89252,-19.967 L -6.22266,-19.7855 L -6.57294,-19.6468
 L -6.93785,-19.5531 L -7.31161,-19.5059 z
M 37.3116,-19.5059 L 36.9379,-19.5531 L 36.5729,-19.6468 L 36.2227,-19.7855 L 35.8925,-19.967 L 35.5877,-20.1884
 L 35.3131,-20.4464 L 35.0729,-20.7366 L 34.8711,-21.0547 L 34.7107,-21.3956 L 34.5942,-21.7539 L 34.5237,-22.124
 L 34.5,-22.5 L 34.5237,-22.876 L 34.5942,-23.2461 L 34.7107,-23.6044 L 34.8711,-23.9453 L 35.0729,-24.2634
 L 35.3131,-24.5536 L 35.5877,-24.8115 L 35.8925,-25.033 L 36.2227,-25.2145 L 36.5729,-25.3532 L 36.9379,-25.4469
 L 37.3116,-25.4941 L 37.6884,-25.4941 L 38.0621,-25.4469 L 38.427,-25.3532 L 38.7773,-25.2145 L 39.1075,-25.033
 L 39.4123,-24.8115 L 39.6869,-24.5536 L 39.927,-24.2634 L 40.1289,-23.9453 L 40.2893,-23.6044 L 40.4057,-23.2461
 L 40.4763,-22.876 L 40.5,-22.5 L 40.4763,-22.124 L 40.4057,-21.7539 L 40.2893,-21.3956 L 40.1289,-21.0547
 L 39.927,-20.7366 L 39.6869,-20.4464 L 39.4123,-20.1884 L 39.1075,-19.967 L 38.7773,-19.7855 L 38.427,-19.6468
 L 38.0621,-19.5531 L 37.6884,-19.5059 z
M -15.0942,-21.003 L -15.2811,-21.0266 L -15.4635,-21.0734 L -15.6387,-21.1427 L -15.8037,-21.2335 L -15.9561,-21.3442
 L -16.0934,-21.4732 L -16.2135,-21.6183 L -16.3145,-21.7774 L -16.3947,-21.9478 L -16.4529,-22.127 L -16.4882,-22.312
 L -16.5,-22.5 L -16.4882,-22.688 L -16.4529,-22.873 L -16.3947,-23.0522 L -16.3145,-23.2226 L -16.2135,-23.3817
 L -16.0934,-23.5268 L -15.9561,-23.6558 L -15.8037,-23.7665 L -15.6387,-23.8572 L -15.4635,-23.9266 L -15.2811,-23.9734
 L -15.0942,-23.997 L -14.9058,-23.997 L -14.7189,-23.9734 L -14.5365,-23.9266 L -14.3613,-23.8572 L -14.1963,-23.7665
 L -14.0439,-23.6558 L -13.9065,-23.5268 L -13.7865,-23.3817 L -13.6855,-23.2226 L -13.6053,-23.0522 L -13.5471,-22.873
 L -13.5118,-22.688 L -13.5,-22.5 L -13.5118,-22.312 L -13.5471,-22.127 L -13.6053,-21.9478 L -13.6855,-21.7774
 L -13.7865,-21.6183 L -13.9065,-21.4732 L -14.0439,-21.3442 L -14.1963,-21.2335 L -14.3613,-21.1427 L -14.5365,-21.0734
 L -14.7189,-21.0266 L -14.9058,-21.003 z
M 29.9058,-21.003 L 29.7189,-21.0266 L 29.5365,-21.0734 L 29.3613,-21.1427 L 29.1963,-21.2335 L 29.0439,-21.3442
 L 28.9065,-21.4732 L 28.7865,-21.6183 L 28.6855,-21.7774 L 28.6053,-21.9478 L 28.5471,-22.127 L 28.5118,-22.312
 L 28.5,-22.5 L 28.5118,-22.688 L 28.5471,-22.873 L 28.6053,-23.0522 L 28.6855,-23.2226 L 28.7865,-23.3817
 L 28.9065,-23.5268 L 29.0439,-23.6558 L 29.1963,-23.7665 L 29.3613,-23.8572 L 29.5365,-23.9266 L 29.7189,-23.9734
 L 29.9058,-23.997 L 30.0942,-23.997 L 30.2811,-23.9734 L 30.4635,-23.9266 L 30.6387,-23.8572 L 30.8037,-23.7665
 L 30.9561,-23.6558 L 31.0934,-23.5268 L 31.2135,-23.3817 L 31.3145,-23.2226 L 31.3947,-23.0522 L 31.4529,-22.873
 L 31.4882,-22.688 L 31.5,-22.5 L 31.4882,-22.312 L 31.4529,-22.127 L 31.3947,-21.9478 L 31.3145,-21.7774
 L 31.2135,-21.6183 L 31.0934,-21.4732 L 30.9561,-21.3442 L 30.8037,-21.2335 L 30.6387,-21.1427 L 30.4635,-21.0734
 L 30.2811,-21.0266 L 30.0942,-21.003 z
M -30.0942,-21.003 L -30.2811,-21.0266 L -30.4635,-21.0734 L -30.6387,-21.1427 L -30.8037,-21.2335 L -30.9561,-21.3442
 L -31.0934,-21.4732 L -31.2135,-21.6183 L -31.3145,-21.7774 L -31.3947,-21.9478 L -31.4529,-22.127 L -31.4882,-22.312
 L -31.5,-22.5 L -31.4882,-22.688 L -31.4529,-22.873 L -31.3947,-23.0522 L -31.3145,-23.2226 L -31.2135,-23.3817
 L -31.0934,-23.5268 L -30.9561,-23.6558 L -30.8037,-23.7665 L -30.6387,-23.8572 L -30.4635,-23.9266 L -30.2811,-23.9734
 L -30.0942,-23.997 L -29.9058,-23.997 L -29.7189,-23.9734 L -29.5365,-23.9266 L -29.3613,-23.8572 L -29.1963,-23.7665
 L -29.0439,-23.6558 L -28.9065,-23.5268 L -28.7865,-23.3817 L -28.6855,-23.2226 L -28.6053,-23.0522 L -28.5471,-22.873
 L -28.5118,-22.688 L -28.5,-22.5 L -28.5118,-22.312 L -28.5471,-22.127 L -28.6053,-21.9478 L -28.6855,-21.7774
 L -28.7865,-21.6183 L -28.9065,-21.4732 L -29.0439,-21.3442 L -29.1963,-21.2335 L -29.3613,-21.1427 L -29.5365,-21.0734
 L -29.7189,-21.0266 L -29.9058,-21.003 z
M 14.9058,-21.003 L 14.7189,-21.0266 L 14.5365,-21.0734 L 14.3613,-21.1427 L 14.1963,-21.2335 L 14.0439,-21.3442
 L 13.9065,-21.4732 L 13.7865,-21.6183 L 13.6855,-21.7774 L 13.6053,-21.9478 L 13.5471,-22.127 L 13.5118,-22.312
 L 13.5,-22.5 L 13.5118,-22.688 L 13.5471,-22.873 L 13.6053,-23.0522 L 13.6855,-23.2226 L 13.7865,-23.3817
 L 13.9065,-23.5268 L 14.0439,-23.6558 L 14.1963,-23.7665 L 14.3613,-23.8572 L 14.5365,-23.9266 L 14.7189,-23.9734
 L 14.9058,-23.997 L 15.0942,-23.997 L 15.2811,-23.9734 L 15.4635,-23.9266 L 15.6387,-23.8572 L 15.8037,-23.7665
 L 15.9561,-23.6558 L 16.0934,-23.5268 L 16.2135,-23.3817 L 16.3145,-23.2226 L 16.3947,-23.0522 L 16.4529,-22.873
 L 16.4882,-22.688 L 16.5,-22.5 L 16.4882,-22.312 L 16.4529,-22.127 L 16.3947,-21.9478 L 16.3145,-21.7774
 L 16.2135,-21.6183 L 16.0934,-21.4732 L 15.9561,-21.3442 L 15.8037,-21.2335 L 15.6387,-21.1427 L 15.4635,-21.0734
 L 15.2811,-21.0266 L 15.0942,-21.003 z
M -20.5674,16.9664 L -22.6855,16.6989 L -24.7533,16.168 L -26.7382,15.382 L -28.6091,14.3536 L -30.3362,13.0987
 L -31.8925,11.6373 L -33.2533,9.99234 L -34.3972,8.1898 L -35.3062,6.2581 L -35.9659,4.22772 L -36.366,2.13066
 L -36.5,-0 L -36.366,-2.13066 L -35.9659,-4.22772 L -35.3062,-6.2581 L -34.3972,-8.1898 L -33.2533,-9.99234
 L -31.8925,-11.6373 L -30.3362,-13.0987 L -28.6091,-14.3536 L -26.7382,-15.382 L -24.7533,-16.168 L -22.6855,-16.6989
 L -20.5674,-16.9664 L -18.4326,-16.9664 L -16.3145,-16.6989 L -14.2467,-16.168 L -12.2617,-15.382 L -10.3909,-14.3536
 L -8.66379,-13.0987 L -7.10753,-11.6373 L -5.7467,-9.99234 L -4.60278,-8.1898 L -3.69379,-6.2581 L -3.03407,-4.22772
 L -2.63405,-2.13066 L -2.5,-0 L -2.63405,2.13066 L -3.03407,4.22772 L -3.69379,6.2581 L -4.60278,8.1898
 L -5.7467,9.99234 L -7.10753,11.6373 L -8.66379,13.0987 L -10.3909,14.3536 L -12.2617,15.382 L -14.2467,16.168
 L -16.3145,16.6989 L -18.4326,16.9664 z
M 18.4326,16.9664 L 16.3145,16.6989 L 14.2467,16.168 L 12.2617,15.382 L 10.3909,14.3536 L 8.66379,13.0987
 L 7.10753,11.6373 L 5.7467,9.99234 L 4.60278,8.1898 L 3.69379,6.2581 L 3.03407,4.22772 L 2.63405,2.13066
 L 2.5,-0 L 2.63405,-2.13066 L 3.03407,-4.22772 L 3.69379,-6.2581 L 4.60278,-8.1898 L 5.7467,-9.99234
 L 7.10753,-11.6373 L 8.66379,-13.0987 L 10.3909,-14.3536 L 12.2617,-15.382 L 14.2467,-16.168 L 16.3145,-16.6989
 L 18.4326,-16.9664 L 20.5674,-16.9664 L 22.6855,-16.6989 L 24.7533,-16.168 L 26.7382,-15.382 L 28.6091,-14.3536
 L 30.3362,-13.0987 L 31.8925,-11.6373 L 33.2533,-9.99234 L 34.3972,-8.1898 L 35.3062,-6.2581 L 35.9659,-4.22772
 L 36.366,-2.13066 L 36.5,-0 L 36.366,2.13066 L 35.9659,4.22772 L 35.3062,6.2581 L 34.3972,8.1898
 L 33.2533,9.99234 L 31.8925,11.6373 L 30.3362,13.0987 L 28.6091,14.3536 L 26.7382,15.382 L 24.7533,16.168
 L 22.6855,16.6989 L 20.5674,16.9664 z
M -7.68837,25.4941 L -8.06213,25.4469 L -8.42705,25.3532 L -8.77733,25.2145 L -9.10747,25.033 L -9.41226,24.8115
 L -9.6869,24.5536 L -9.92705,24.2634 L -10.1289,23.9453 L -10.2893,23.6044 L -10.4057,23.2461 L -10.4763,22.876
 L -10.5,22.5 L -10.4763,22.124 L -10.4057,21.7539 L -10.2893,21.3956 L -10.1289,21.0547 L -9.92705,20.7366
 L -9.6869,20.4464 L -9.41226,20.1884 L -9.10747,19.967 L -8.77733,19.7855 L -8.42705,19.6468 L -8.06213,19.5531
 L -7.68837,19.5059 L -7.31161,19.5059 L -6.93785,19.5531 L -6.57294,19.6468 L -6.22266,19.7855 L -5.89252,19.967
 L -5.58772,20.1884 L -5.31308,20.4464 L -5.07294,20.7366 L -4.87108,21.0547 L -4.71066,21.3956 L -4.59424,21.7539
 L -4.52365,22.124 L -4.5,22.5 L -4.52365,22.876 L -4.59424,23.2461 L -4.71066,23.6044 L -4.87108,23.9453
 L -5.07294,24.2634 L -5.31308,24.5536 L -5.58772,24.8115 L -5.89252,25.033 L -6.22266,25.2145 L -6.57294,25.3532
 L -6.93785,25.4469 L -7.31161,25.4941 z
M 7.31161,25.4941 L 6.93785,25.4469 L 6.57294,25.3532 L 6.22266,25.2145 L 5.89252,25.033 L 5.58772,24.8115
 L 5.31308,24.5536 L 5.07294,24.2634 L 4.87108,23.9453 L 4.71066,23.6044 L 4.59424,23.2461 L 4.52365,22.876
 L 4.5,22.5 L 4.52365,22.124 L 4.59424,21.7539 L 4.71066,21.3956 L 4.87108,21.0547 L 5.07294,20.7366
 L 5.31308,20.4464 L 5.58772,20.1884 L 5.89252,19.967 L 6.22266,19.7855 L 6.57294,19.6468 L 6.93785,19.5531
 L 7.31161,19.5059 L 7.68837,19.5059 L 8.06213,19.5531 L 8.42705,19.6468 L 8.77733,19.7855 L 9.10747,19.967
 L 9.41226,20.1884 L 9.6869,20.4464 L 9.92705,20.7366 L 10.1289,21.0547 L 10.2893,21.3956 L 10.4057,21.7539
 L 10.4763,22.124 L 10.5,22.5 L 10.4763,22.876 L 10.4057,23.2461 L 10.2893,23.6044 L 10.1289,23.9453
 L 9.92705,24.2634 L 9.6869,24.5536 L 9.41226,24.8115 L 9.10747,25.033 L 8.77733,25.2145 L 8.42705,25.3532
 L 8.06213,25.4469 L 7.68837,25.4941 z
M -37.6884,25.4941 L -38.0621,25.4469 L -38.427,25.3532 L -38.7773,25.2145 L -39.1075,25.033 L -39.4123,24.8115
 L -39.6869,24.5536 L -39.927,24.2634 L -40.1289,23.9453 L -40.2893,23.6044 L -40.4057,23.2461 L -40.4763,22.876
 L -40.5,22.5 L -40.4763,22.124 L -40.4057,21.7539 L -40.2893,21.3956 L -40.1289,21.0547 L -39.927,20.7366
 L -39.6869,20.4464 L -39.4123,20.1884 L -39.1075,19.967 L -38.7773,19.7855 L -38.427,19.6468 L -38.0621,19.5531
 L -37.6884,19.5059 L -37.3116,19.5059 L -36.9379,19.5531 L -36.5729,19.6468 L -36.2227,19.7855 L -35.8925,19.967
 L -35.5877,20.1884 L -35.3131,20.4464 L -35.0729,20.7366 L -34.8711,21.0547 L -34.7107,21.3956 L -34.5942,21.7539
 L -34.5237,22.124 L -34.5,22.5 L -34.5237,22.876 L -34.5942,23.2461 L -34.7107,23.6044 L -34.8711,23.9453
 L -35.0729,24.2634 L -35.3131,24.5536 L -35.5877,24.8115 L -35.8925,25.033 L -36.2227,25.2145 L -36.5729,25.3532
 L -36.9379,25.4469 L -37.3116,25.4941 z
M -22.6884,25.4941 L -23.0621,25.4469 L -23.427,25.3532 L -23.7773,25.2145 L -24.1075,25.033 L -24.4123,24.8115
 L -24.6869,24.5536 L -24.927,24.2634 L -25.1289,23.9453 L -25.2893,23.6044 L -25.4057,23.2461 L -25.4763,22.876
 L -25.5,22.5 L -25.4763,22.124 L -25.4057,21.7539 L -25.2893,21.3956 L -25.1289,21.0547 L -24.927,20.7366
 L -24.6869,20.4464 L -24.4123,20.1884 L -24.1075,19.967 L -23.7773,19.7855 L -23.427,19.6468 L -23.0621,19.5531
 L -22.6884,19.5059 L -22.3116,19.5059 L -21.9379,19.5531 L -21.5729,19.6468 L -21.2227,19.7855 L -20.8925,19.967
 L -20.5877,20.1884 L -20.3131,20.4464 L -20.0729,20.7366 L -19.8711,21.0547 L -19.7107,21.3956 L -19.5942,21.7539
 L -19.5237,22.124 L -19.5,22.5 L -19.5237,22.876 L -19.5942,23.2461 L -19.7107,23.6044 L -19.8711,23.9453
 L -20.0729,24.2634 L -20.3131,24.5536 L -20.5877,24.8115 L -20.8925,25.033 L -21.2227,25.2145 L -21.5729,25.3532
 L -21.9379,25.4469 L -22.3116,25.4941 z
M 37.3116,25.4941 L 36.9379,25.4469 L 36.5729,25.3532 L 36.2227,25.2145 L 35.8925,25.033 L 35.5877,24.8115
 L 35.3131,24.5536 L 35.0729,24.2634 L 34.8711,23.9453 L 34.7107,23.6044 L 34.5942,23.2461 L 34.5237,22.876
 L 34.5,22.5 L 34.5237,22.124 L 34.5942,21.7539 L 34.7107,21.3956 L 34.8711,21.0547 L 35.0729,20.7366
 L 35.3131,20.4464 L 35.5877,20.1884 L 35.8925,19.967 L 36.2227,19.7855 L 36.5729,19.6468 L 36.9379,19.5531
 L 37.3116,19.5059 L 37.6884,19.5059 L 38.0621,19.5531 L 38.427,19.6468 L 38.7773,19.7855 L 39.1075,19.967
 L 39.4123,20.1884 L 39.6869,20.4464 L 39.927,20.7366 L 40.1289,21.0547 L 40.2893,21.3956 L 40.4057,21.7539
 L 40.4763,22.124 L 40.5,22.5 L 40.4763,22.876 L 40.4057,23.2461 L 40.2893,23.6044 L 40.1289,23.9453
 L 39.927,24.2634 L 39.6869,24.5536 L 39.4123,24.8115 L 39.1075,25.033 L 38.7773,25.2145 L 38.427,25.3532
 L 38.0621,25.4469 L 37.6884,25.4941 z
M 22.3116,25.4941 L 21.9379,25.4469 L 21.5729,25.3532 L 21.2227,25.2145 L 20.8925,25.033 L 20.5877,24.8115
 L 20.3131,24.5536 L 20.0729,24.2634 L 19.8711,23.9453 L 19.7107,23.6044 L 19.5942,23.2461 L 19.5237,22.876
 L 19.5,22.5 L 19.5237,22.124 L 19.5942,21.7539 L 19.7107,21.3956 L 19.8711,21.0547 L 20.0729,20.7366
 L 20.3131,20.4464 L 20.5877,20.1884 L 20.8925,19.967 L 21.2227,19.7855 L 21.5729,19.6468 L 21.9379,19.5531
 L 22.3116,19.5059 L 22.6884,19.5059 L 23.0621,19.5531 L 23.427,19.6468 L 23.7773,19.7855 L 24.1075,19.967
 L 24.4123,20.1884 L 24.6869,20.4464 L 24.927,20.7366 L 25.1289,21.0547 L 25.2893,21.3956 L 25.4057,21.7539
 L 25.4763,22.124 L 25.5,22.5 L 25.4763,22.876 L 25.4057,23.2461 L 25.2893,23.6044 L 25.1289,23.9453
 L 24.927,24.2634 L 24.6869,24.5536 L 24.4123,24.8115 L 24.1075,25.033 L 23.7773,25.2145 L 23.427,25.3532
 L 23.0621,25.4469 L 22.6884,25.4941 z
M 29.9058,23.997 L 29.7189,23.9734 L 29.5365,23.9266 L 29.3613,23.8572 L 29.1963,23.7665 L 29.0439,23.6558
 L 28.9065,23.5268 L 28.7865,23.3817 L 28.6855,23.2226 L 28.6053,23.0522 L 28.5471,22.873 L 28.5118,22.688
 L 28.5,22.5 L 28.5118,22.312 L 28.5471,22.127 L 28.6053,21.9478 L 28.6855,21.7774 L 28.7865,21.6183
 L 28.9065,21.4732 L 29.0439,21.3442 L 29.1963,21.2335 L 29.3613,21.1427 L 29.5365,21.0734 L 29.7189,21.0266
 L 29.9058,21.003 L 30.0942,21.003 L 30.2811,21.0266 L 30.4635,21.0734 L 30.6387,21.1427 L 30.8037,21.2335
 L 30.9561,21.3442 L 31.0934,21.4732 L 31.2135,21.6183 L 31.3145,21.7774 L 31.3947,21.9478 L 31.4529,22.127
 L 31.4882,22.312 L 31.5,22.5 L 31.4882,22.688 L 31.4529,22.873 L 31.3947,23.0522 L 31.3145,23.2226
 L 31.2135,23.3817 L 31.0934,23.5268 L 30.9561,23.6558 L 30.8037,23.7665 L 30.6387,23.8572 L 30.4635,23.9266
 L 30.2811,23.9734 L 30.0942,23.997 z
M -0.0941772,23.997 L -0.281067,23.9734 L -0.463516,23.9266 L -0.638657,23.8572 L -0.803726,23.7665 L -0.956131,23.6558
 L -1.09344,23.5268 L -1.21352,23.3817 L -1.31445,23.2226 L -1.39465,23.0522 L -1.45287,22.873 L -1.48816,22.688
 L -1.5,22.5 L -1.48816,22.312 L -1.45287,22.127 L -1.39465,21.9478 L -1.31445,21.7774 L -1.21352,21.6183
 L -1.09344,21.4732 L -0.956131,21.3442 L -0.803726,21.2335 L -0.638657,21.1427 L -0.463516,21.0734 L -0.281067,21.0266
 L -0.0941772,21.003 L 0.0941772,21.003 L 0.281067,21.0266 L 0.463516,21.0734 L 0.638657,21.1427 L 0.803726,21.2335
 L 0.956131,21.3442 L 1.09344,21.4732 L 1.21352,21.6183 L 1.31445,21.7774 L 1.39465,21.9478 L 1.45287,22.127
 L 1.48816,22.312 L 1.5,22.5 L 1.48816,22.688 L 1.45287,22.873 L 1.39465,23.0522 L 1.31445,23.2226
 L 1.21352,23.3817 L 1.09344,23.5268 L 0.956131,23.6558 L 0.803726,23.7665 L 0.638657,23.8572 L 0.463516,23.9266
 L 0.281067,23.9734 L 0.0941772,23.997 z
M -15.0942,23.997 L -15.2811,23.9734 L -15.4635,23.9266 L -15.6387,23.8572 L -15.8037,23.7665 L -15.9561,23.6558
 L -16.0934,23.5268 L -16.2135,23.3817 L -16.3145,23.2226 L -16.3947,23.0522 L -16.4529,22.873 L -16.4882,22.688
 L -16.5,22.5 L -16.4882,22.312 L -16.4529,22.127 L -16.3947,21.9478 L -16.3145,21.7774 L -16.2135,21.6183
 L -16.0934,21.4732 L -15.9561,21.3442 L -15.8037,21.2335 L -15.6387,21.1427 L -15.4635,21.0734 L -15.2811,21.0266
 L -15.0942,21.003 L -14.9058,21.003 L -14.7189,21.0266 L -14.5365,21.0734 L -14.3613,21.1427 L -14.1963,21.2335
 L -14.0439,21.3442 L -13.9065,21.4732 L -13.7865,21.6183 L -13.6855,21.7774 L -13.6053,21.9478 L -13.5471,22.127
 L -13.5118,22.312 L -13.5,22.5 L -13.5118,22.688 L -13.5471,22.873 L -13.6053,23.0522 L -13.6855,23.2226
 L -13.7865,23.3817 L -13.9065,23.5268 L -14.0439,23.6558 L -14.1963,23.7665 L -14.3613,23.8572 L -14.5365,23.9266
 L -14.7189,23.9734 L -14.9058,23.997 z
M -30.0942,23.997 L -30.2811,23.9734 L -30.4635,23.9266 L -30.6387,23.8572 L -30.8037,23.7665 L -30.9561,23.6558
 L -31.0934,23.5268 L -31.2135,23.3817 L -31.3145,23.2226 L -31.3947,23.0522 L -31.4529,22.873 L -31.4882,22.688
 L -31.5,22.5 L -31.4882,22.312 L -31.4529,22.127 L -31.3947,21.9478 L -31.3145,21.7774 L -31.2135,21.6183
 L -31.0934,21.4732 L -30.9561,21.3442 L -30.8037,21.2335 L -30.6387,21.1427 L -30.4635,21.0734 L -30.2811,21.0266
 L -30.0942,21.003 L -29.9058,21.003 L -29.7189,21.0266 L -29.5365,21.0734 L -29.3613,21.1427 L -29.1963,21.2335
 L -29.0439,21.3442 L -28.9065,21.4732 L -28.7865,21.6183 L -28.6855,21.7774 L -28.6053,21.9478 L -28.5471,22.127
 L -28.5118,22.312 L -28.5,22.5 L -28.5118,22.688 L -28.5471,22.873 L -28.6053,23.0522 L -28.6855,23.2226
 L -28.7865,23.3817 L -28.9065,23.5268 L -29.0439,23.6558 L -29.1963,23.7665 L -29.3613,23.8572 L -29.5365,23.9266
 L -29.7189,23.9734 L -29.9058,23.997 z
M 14.9058,23.997 L 14.7189,23.9734 L 14.5365,23.9266 L 14.3613,23.8572 L 14.1963,23.7665 L 14.0439,23.6558
 L 13.9065,23.5268 L 13.7865,23.3817 L 13.6855,23.2226 L 13.6053,23.0522 L 13.5471,22.873 L 13.5118,22.688
 L 13.5,22.5 L 13.5118,22.312 L 13.5471,22.127 L 13.6053,21.9478 L 13.6855,21.7774 L 13.7865,21.6183
 L 13.9065,21.4732 L 14.0439,21.3442 L 14.1963,21.2335 L 14.3613,21.1427 L 14.5365,21.0734 L 14.7189,21.0266
 L 14.9058,21.003 L 15.0942,21.003 L 15.2811,21.0266 L 15.4635,21.0734 L 15.6387,21.1427 L 15.8037,21.2335
 L 15.9561,21.3442 L 16.0934,21.4732 L 16.2135,21.6183 L 16.3145,21.7774 L 16.3947,21.9478 L 16.4529,22.127
 L 16.4882,22.312 L 16.5,22.5 L 16.4882,22.688 L 16.4529,22.873 L 16.3947,23.0522 L 16.3145,23.2226
 L 16.2135,23.3817 L 16.0934,23.5268 L 15.9561,23.6558 L 15.8037,23.7665 L 15.6387,23.8572 L 15.4635,23.9266
 L 15.2811,23.9734 L 15.0942,23.997 z
M 1.45287,-22.127 L 1.39465,-21.9478 L 1.31445,-21.7774 L 1.21352,-21.6183 L 1.09344,-21.4732 L 0.956131,-21.3442
 L 0.803726,-21.2335 L 0.638657,-21.1427 L 0.463516,-21.0734 L 0.281067,-21.0266 L 0.0941772,-21.003 L -0.0941772,-21.003
 L -0.281067,-21.0266 L -0.463516,-21.0734 L -0.638657,-21.1427 L -0.803726,-21.2335 L -0.956131,-21.3442 L -1.09344,-21.4732
 L -1.21352,-21.6183 L -1.31445,-21.7774 L -1.39465,-21.9478 L -1.45287,-22.127 L -1.48816,-22.312 L -1.5,-22.5
 L -1.48816,-22.688 L -1.45287,-22.873 L -1.39465,-23.0522 L -1.31445,-23.2226 L -1.21352,-23.3817 L -1.09344,-23.5268
 L -0.956131,-23.6558 L -0.803726,-23.7665 L -0.638657,-23.8572 L -0.463516,-23.9266 L -0.281067,-23.9734 L -0.0941772,-23.997
 L 0.0941772,-23.997 L 0.281067,-23.9734 L 0.463516,-23.9266 L 0.638657,-23.8572 L 0.803726,-23.7665 L 0.956131,-23.6558
 L 1.09344,-23.5268 L 1.21352,-23.3817 L 1.31445,-23.2226 L 1.39465,-23.0522 L 1.45287,-22.873 L 1.48816,-22.688
 L 1.5,-22.5 L 1.48816,-22.312 z
" stroke="black" fill="lightgray" stroke-width="0.5"/>
</svg>
