<?xml version="1.0" standalone="no"?>
<!DOCTYPE svg PUBLIC "-//W3C//DTD SVG 1.1//EN" "http://www.w3.org/Graphics/SVG/1.1/DTD/svg11.dtd">
<svg width="120mm" height="30mm" viewBox="-60 -54 120 30" xmlns="http://www.w3.org/2000/svg" version="1.1">
<title>OpenSCAD Model</title>
<path d="
M 55.4369,-24.5886 L 56.0451,-24.7447 L 56.6289,-24.9759 L 57.1791,-25.2784 L 57.6871,-25.6474 L 58.1448,-26.0773
 L 58.5451,-26.5611 L 58.8815,-27.0912 L 59.1489,-27.6594 L 59.3429,-28.2566 L 59.4606,-28.8733 L 59.5,-29.5
 L 59.5,-48.5 L 59.4606,-49.1267 L 59.3429,-49.7434 L 59.1489,-50.3406 L 58.8815,-50.9088 L 58.5451,-51.4389
 L 58.1448,-51.9227 L 57.6871,-52.3526 L 57.1791,-52.7216 L 56.6289,-53.0241 L 56.0451,-53.2553 L 55.4369,-53.4114
 L 54.8139,-53.4901 L -54.8139,-53.4901 L -55.4369,-53.4114 L -56.0451,-53.2553 L -56.6289,-53.0241 L -57.1791,-52.7216
 L -57.6871,-52.3526 L -58.1448,-51.9227 L -58.5451,-51.4389 L -58.8815,-50.9088 L -59.1489,-50.3406 L -59.3429,-49.7434
 L -59.4606,-49.1267 L -59.5,-48.5 L -59.5,-29.5 L -59.4606,-28.8733 L -59.3429,-28.2566 L -59.1489,-27.6594
 L -58.8815,-27.0912 L -58.5451,-26.5611 L -58.1448,-26.0773 L -57.6871,-25.6474 L -57.1791,-25.2784 L -56.6289,-24.9759
 L -56.0451,-24.7447 L -55.4369,-24.5886 L -54.8139,-24.5099 L 54.8139,-24.5099 z
M -52.6884,-43.5059 L -53.0621,-43.5531 L -53.427,-43.6468 L -53.7773,-43.7855 L -54.1075,-43.967 L -54.4123,-44.1884
 L -54.6869,-44.4464 L -54.927,-44.7366 L -55.1289,-45.0547 L -55.2893,-45.3956 L -55.4057,-45.7539 L -55.4763,-46.124
 L -55.5,-46.5 L -55.4763,-46.876 L -55.4057,-47.2461 L -55.2893,-47.6044 L -55.1289,-47.9453 L -54.927,-48.2634
 L -54.6869,-48.5536 L -54.4123,-48.8115 L -54.1075,-49.033 L -53.7773,-49.2145 L -53.427,-49.3532 L -53.0621,-49.4469
 L -52.6884,-49.4941 L -52.3116,-49.4941 L -51.9379,-49.4469 L -51.5729,-49.3532 L -51.2227,-49.2145 L -50.8925,-49.033
 L -50.5877,-48.8115 L -50.3131,-48.5536 L -50.0729,-48.2634 L -49.8711,-47.9453 L -49.7107,-47.6044 L -49.5942,-47.2461
 L -49.5237,-46.876 L -49.5,-46.5 L -49.5237,-46.124 L -49.5942,-45.7539 L -49.7107,-45.3956 L -49.8711,-45.0547
 L -50.0729,-44.7366 L -50.3131,-44.4464 L -50.5877,-44.1884 L -50.8925,-43.967 L -51.2227,-43.7855 L -51.5729,-43.6468
 L -51.9379,-43.5531 L -52.3116,-43.5059 z
M 52.3116,-43.5059 L 51.9379,-43.5531 L 51.5729,-43.6468 L 51.2227,-43.7855 L 50.8925,-43.967 L 50.5877,-44.1884
 L 50.3131,-44.4464 L 50.0729,-44.7366 L 49.8711,-45.0547 L 49.7107,-45.3956 L 49.5942,-45.7539 L 49.5237,-46.124
 L 49.5,-46.5 L 49.5237,-46.876 L 49.5942,-47.2461 L 49.7107,-47.6044 L 49.8711,-47.9453 L 50.0729,-48.2634
 L 50.3131,-48.5536 L 50.5877,-48.8115 L 50.8925,-49.033 L 51.2227,-49.2145 L 51.5729,-49.3532 L 51.9379,-49.4469
 L 52.3116,-49.4941 L 52.6884,-49.4941 L 53.0621,-49.4469 L 53.427,-49.3532 L 53.7773,-49.2145 L 54.1075,-49.033
 L 54.4123,-48.8115 L 54.6869,-48.5536 L 54.927,-48.2634 L 55.1289,-47.9453 L 55.2893,-47.6044 L 55.4057,-47.2461
 L 55.4763,-46.876 L 55.5,-46.5 L 55.4763,-46.124 L 55.4057,-45.7539 L 55.2893,-45.3956 L 55.1289,-45.0547
 L 54.927,-44.7366 L 54.6869,-44.4464 L 54.4123,-44.1884 L 54.1075,-43.967 L 53.7773,-43.7855 L 53.427,-43.6468
 L 53.0621,-43.5531 L 52.6884,-43.5059 z
M 17.5919,-32.5128 L 16.782,-32.6151 L 15.9914,-32.8181 L 15.2324,-33.1186 L 14.5171,-33.5119 L 13.8567,-33.9917
 L 13.2617,-34.5504 L 12.7414,-35.1794 L 12.304,-35.8686 L 11.9565,-36.6072 L 11.7042,-37.3835 L 11.5513,-38.1853
 L 11.5,-39 L 11.5513,-39.8147 L 11.7042,-40.6165 L 11.9565,-41.3928 L 12.304,-42.1314 L 12.7414,-42.8206
 L 13.2617,-43.4496 L 13.8567,-44.0083 L 14.5171,-44.4881 L 15.2324,-44.8814 L 15.9914,-45.1819 L 16.782,-45.3849
 L 17.5919,-45.4872 L 18.4081,-45.4872 L 19.218,-45.3849 L 20.0086,-45.1819 L 20.7676,-44.8814 L 21.4829,-44.4881
 L 22.1432,-44.0083 L 22.7383,-43.4496 L 23.2586,-42.8206 L 23.696,-42.1314 L 24.0435,-41.3928 L 24.2958,-40.6165
 L 24.4487,-39.8147 L 24.5,-39 L 24.4487,-38.1853 L 24.2958,-37.3835 L 24.0435,-36.6072 L 23.696,-35.8686
 L 23.2586,-35.1794 L 22.7383,-34.5504 L 22.1432,-33.9917 L 21.4829,-33.5119 L 20.7676,-33.1186 L 20.0086,-32.8181
 L 19.218,-32.6151 L 18.4081,-32.5128 z
M 35.5919,-32.5128 L 34.782,-32.6151 L 33.9914,-32.8181 L 33.2324,-33.1186 L 32.5171,-33.5119 L 31.8567,-33.9917
 L 31.2617,-34.5504 L 30.7414,-35.1794 L 30.304,-35.8686 L 29.9565,-36.6072 L 29.7042,-37.3835 L 29.5513,-38.1853
 L 29.5,-39 L 29.5513,-39.8147 L 29.7042,-40.6165 L 29.9565,-41.3928 L 30.304,-42.1314 L 30.7414,-42.8206
 L 31.2617,-43.4496 L 31.8567,-44.0083 L 32.5171,-44.4881 L 33.2324,-44.8814 L 33.9914,-45.1819 L 34.782,-45.3849
 L 35.5919,-45.4872 L 36.4081,-45.4872 L 37.218,-45.3849 L 38.0086,-45.1819 L 38.7676,-44.8814 L 39.4829,-44.4881
 L 40.1432,-44.0083 L 40.7383,-43.4496 L 41.2586,-42.8206 L 41.696,-42.1314 L 42.0435,-41.3928 L 42.2958,-40.6165
 L 42.4487,-39.8147 L 42.5,-39 L 42.4487,-38.1853 L 42.2958,-37.3835 L 42.0435,-36.6072 L 41.696,-35.8686
 L 41.2586,-35.1794 L 40.7383,-34.5504 L 40.1432,-33.9917 L 39.4829,-33.5119 L 38.7676,-33.1186 L 38.0086,-32.8181
 L 37.218,-32.6151 L 36.4081,-32.5128 z
M -18.4081,-32.5128 L -19.218,-32.6151 L -20.0086,-32.8181 L -20.7676,-33.1186 L -21.4829,-33.5119 L -22.1432,-33.9917
 L -22.7383,-34.5504 L -23.2586,-35.1794 L -23.696,-35.8686 L -24.0435,-36.6072 L -24.2958,-37.3835 L -24.4487,-38.1853
 L -24.5,-39 L -24.4487,-39.8147 L -24.2958,-40.6165 L -24.0435,-41.3928 L -23.696,-42.1314 L -23.2586,-42.8206
 L -22.7383,-43.4496 L -22.1432,-44.0083 L -21.4829,-44.4881 L -20.7676,-44.8814 L -20.0086,-45.1819 L -19.218,-45.3849
 L -18.4081,-45.4872 L -17.5919,-45.4872 L -16.782,-45.3849 L -15.9914,-45.1819 L -15.2324,-44.8814 L -14.5171,-44.4881
 L -13.8567,-44.0083 L -13.2617,-43.4496 L -12.7414,-42.8206 L -12.304,-42.1314 L -11.9565,-41.3928 L -11.7042,-40.6165
 L -11.5513,-39.8147 L -11.5,-39 L -11.5513,-38.1853 L -11.7042,-37.3835 L -11.9565,-36.6072 L -12.304,-35.8686
 L -12.7414,-35.1794 L -13.2617,-34.5504 L -13.8567,-33.9917 L -14.5171,-33.5119 L -15.2324,-33.1186 L -15.9914,-32.8181
 L -16.782,-32.6151 L -17.5919,-32.5128 z
M -36.4081,-32.5128 L -37.218,-32.6151 L -38.0086,-32.8181 L -38.7676,-33.1186 L -39.4829,-33.5119 L -40.1432,-33.9917
 L -40.7383,-34.5504 L -41.2586,-35.1794 L -41.696,-35.8686 L -42.0435,-36.6072 L -42.2958,-37.3835 L -42.4487,-38.1853
 L -42.5,-39 L -42.4487,-39.8147 L -42.2958,-40.6165 L -42.0435,-41.3928 L -41.696,-42.1314 L -41.2586,-42.8206
 L -40.7383,-43.4496 L -40.1432,-44.0083 L -39.4829,-44.4881 L -38.7676,-44.8814 L -38.0086,-45.1819 L -37.218,-45.3849
 L -36.4081,-45.4872 L -35.5919,-45.4872 L -34.782,-45.3849 L -33.9914,-45.1819 L -33.2324,-44.8814 L -32.5171,-44.4881
 L -31.8567,-44.0083 L -31.2617,-43.4496 L -30.7414,-42.8206 L -30.304,-42.1314 L -29.9565,-41.3928 L -29.7042,-40.6165
 L -29.5513,-39.8147 L -29.5,-39 L -29.5513,-38.1853 L -29.7042,-37.3835 L -29.9565,-36.6072 L -30.304,-35.8686
 L -30.7414,-35.1794 L -31.2617,-34.5504 L -31.8567,-33.9917 L -32.5171,-33.5119 L -33.2324,-33.1186 L -33.9914,-32.8181
 L -34.782,-32.6151 L -35.5919,-32.5128 z
M -0.408127,-32.5128 L -1.21797,-32.6151 L -2.00861,-32.8181 L -2.76756,-33.1186 L -3.48286,-33.5119 L -4.14325,-33.9917
 L -4.73828,-34.5504 L -5.25861,-35.1794 L -5.69598,-35.8686 L -6.04353,-36.6072 L -6.29578,-37.3835 L -6.44873,-38.1853
 L -6.5,-39 L -6.44873,-39.8147 L -6.29578,-40.6165 L -6.04353,-41.3928 L -5.69598,-42.1314 L -5.25861,-42.8206
 L -4.73828,-43.4496 L -4.14325,-44.0083 L -3.48286,-44.4881 L -2.76756,-44.8814 L -2.00861,-45.1819 L -1.21797,-45.3849
 L -0.408127,-45.4872 L 0.408127,-45.4872 L 1.21797,-45.3849 L 2.00861,-45.1819 L 2.76756,-44.8814 L 3.48286,-44.4881
 L 4.14325,-44.0083 L 4.73828,-43.4496 L 5.25861,-42.8206 L 5.69598,-42.1314 L 6.04353,-41.3928 L 6.29578,-40.6165
 L 6.44873,-39.8147 L 6.5,-39 L 6.44873,-38.1853 L 6.29578,-37.3835 L 6.04353,-36.6072 L 5.69598,-35.8686
 L 5.25861,-35.1794 L 4.73828,-34.5504 L 4.14325,-33.9917 L 3.48286,-33.5119 L 2.76756,-33.1186 L 2.00861,-32.8181
 L 1.21797,-32.6151 L 0.408127,-32.5128 z
M 52.4058,-37.503 L 52.2189,-37.5266 L 52.0365,-37.5734 L 51.8613,-37.6428 L 51.6963,-37.7335 L 51.5439,-37.8442
 L 51.4065,-37.9732 L 51.2865,-38.1183 L 51.1855,-38.2774 L 51.1053,-38.4478 L 51.0471,-38.627 L 51.0118,-38.812
 L 51,-39 L 51.0118,-39.188 L 51.0471,-39.373 L 51.1053,-39.5522 L 51.1855,-39.7226 L 51.2865,-39.8817
 L 51.4065,-40.0268 L 51.5439,-40.1558 L 51.6963,-40.2665 L 51.8613,-40.3572 L 52.0365,-40.4266 L 52.2189,-40.4734
 L 52.4058,-40.497 L 52.5942,-40.497 L 52.7811,-40.4734 L 52.9635,-40.4266 L 53.1387,-40.3572 L 53.3037,-40.2665
 L 53.4561,-40.1558 L 53.5934,-40.0268 L 53.7135,-39.8817 L 53.8145,-39.7226 L 53.8947,-39.5522 L 53.9529,-39.373
 L 53.9882,-39.188 L 54,-39 L 53.9882,-38.812 L 53.9529,-38.627 L 53.8947,-38.4478 L 53.8145,-38.2774
 L 53.7135,-38.1183 L 53.5934,-37.9732 L 53.4561,-37.8442 L 53.3037,-37.7335 L 53.1387,-37.6428 L 52.9635,-37.5734
 L 52.7811,-37.5266 L 52.5942,-37.503 z
M -52.5942,-37.503 L -52.7811,-37.5266 L -52.9635,-37.5734 L -53.1387,-37.6428 L -53.3037,-37.7335 L -53.4561,-37.8442
 L -53.5934,-37.9732 L -53.7135,-38.1183 L -53.8145,-38.2774 L -53.8947,-38.4478 L -53.9529,-38.627 L -53.9882,-38.812
 L -54,-39 L -53.9882,-39.188 L -53.9529,-39.373 L -53.8947,-39.5522 L -53.8145,-39.7226 L -53.7135,-39.8817
 L -53.5934,-40.0268 L -53.4561,-40.1558 L -53.3037,-40.2665 L -53.1387,-40.3572 L -52.9635,-40.4266 L -52.7811,-40.4734
 L -52.5942,-40.497 L -52.4058,-40.497 L -52.2189,-40.4734 L -52.0365,-40.4266 L -51.8613,-40.3572 L -51.6963,-40.2665
 L -51.5439,-40.1558 L -51.4065,-40.0268 L -51.2865,-39.8817 L -51.1855,-39.7226 L -51.1053,-39.5522 L -51.0471,-39.373
 L -51.0118,-39.188 L -51,-39 L -51.0118,-38.812 L -51.0471,-38.627 L -51.1053,-38.4478 L -51.1855,-38.2774
 L -51.2865,-38.1183 L -51.4065,-37.9732 L -51.5439,-37.8442 L -51.6963,-37.7335 L -51.8613,-37.6428 L -52.0365,-37.5734
 L -52.2189,-37.5266 L -52.4058,-37.503 z
M 52.3116,-28.5059 L 51.9379,-28.5531 L 51.5729,-28.6468 L 51.2227,-28.7855 L 50.8925,-28.967 L 50.5877,-29.1885
 L 50.3131,-29.4464 L 50.0729,-29.7366 L 49.8711,-30.0547 L 49.7107,-30.3956 L 49.5942,-30.7539 L 49.5237,-31.124
 L 49.5,-31.5 L 49.5237,-31.876 L 49.5942,-32.2461 L 49.7107,-32.6044 L 49.8711,-32.9453 L 50.0729,-33.2634
 L 50.3131,-33.5536 L 50.5877,-33.8116 L 50.8925,-34.033 L 51.2227,-34.2145 L 51.5729,-34.3532 L 51.9379,-34.4469
 L 52.3116,-34.4941 L 52.6884,-34.4941 L 53.0621,-34.4469 L 53.427,-34.3532 L 53.7773,-34.2145 L 54.1075,-34.033
 L 54.4123,-33.8116 L 54.6869,-33.5536 L 54.927,-33.2634 L 55.1289,-32.9453 L 55.2893,-32.6044 L 55.4057,-32.2461
 L 55.4763,-31.876 L 55.5,-31.5 L 55.4763,-31.124 L 55.4057,-30.7539 L 55.2893,-30.3956 L 55.1289,-30.0547
 L 54.927,-29.7366 L 54.6869,-29.4464 L 54.4123,-29.1885 L 54.1075,-28.967 L 53.7773,-28.7855 L 53.427,-28.6468
 L 53.0621,-28.5531 L 52.6884,-28.5059 z
M -52.6884,-28.5059 L -53.0621,-28.5531 L -53.427,-28.6468 L -53.7773,-28.7855 L -54.1075,-28.967 L -54.4123,-29.1885
 L -54.6869,-29.4464 L -54.927,-29.7366 L -55.1289,-30.0547 L -55.2893,-30.3956 L -55.4057,-30.7539 L -55.4763,-31.124
 L -55.5,-31.5 L -55.4763,-31.876 L -55.4057,-32.2461 L -55.2893,-32.6044 L -55.1289,-32.9453 L -54.927,-33.2634
 L -54.6869,-33.5536 L -54.4123,-33.8116 L -54.1075,-34.033 L -53.7773,-34.2145 L -53.427,-34.3532 L -53.0621,-34.4469
 L -52.6884,-34.4941 L -52.3116,-34.4941 L -51.9379,-34.4469 L -51.5729,-34.3532 L -51.2227,-34.2145 L -50.8925,-34.033
 L -50.5877,-33.8116 L -50.3131,-33.5536 L -50.0729,-33.2634 L -49.8711,-32.9453 L -49.7107,-32.6044 L -49.5942,-32.2461
 L -49.5237,-31.876 L -49.5,-31.5 L -49.5237,-31.124 L -49.5942,-30.7539 L -49.7107,-30.3956 L -49.8711,-30.0547
 L -50.0729,-29.7366 L -50.3131,-29.4464 L -50.5877,-29.1885 L -50.8925,-28.967 L -51.2227,-28.7855 L -51.5729,-28.6468
 L -51.9379,-28.5531 L -52.3116,-28.5059 z
" stroke="black" fill="lightgray" stroke-width="0.5"/>
</svg>
