  0
SECTION
  2
BLOCKS
  0
ENDSEC
  0
SECTION
  2
ENTITIES
  0
LINE
  8
0
 10
40.4369
 20
-21.9114
 11
41.0451
 21
-21.7553
  0
LINE
  8
0
 10
41.0451
 20
-21.7553
 11
41.6289
 21
-21.5241
  0
LINE
  8
0
 10
41.6289
 20
-21.5241
 11
42.1791
 21
-21.2216
  0
LINE
  8
0
 10
42.1791
 20
-21.2216
 11
42.6871
 21
-20.8526
  0
LINE
  8
0
 10
42.6871
 20
-20.8526
 11
43.1448
 21
-20.4227
  0
LINE
  8
0
 10
43.1448
 20
-20.4227
 11
43.5451
 21
-19.9389
  0
LINE
  8
0
 10
43.5451
 20
-19.9389
 11
43.8815
 21
-19.4088
  0
LINE
  8
0
 10
43.8815
 20
-19.4088
 11
44.1489
 21
-18.8406
  0
LINE
  8
0
 10
44.1489
 20
-18.8406
 11
44.3429
 21
-18.2434
  0
LINE
  8
0
 10
44.3429
 20
-18.2434
 11
44.4606
 21
-17.6267
  0
LINE
  8
0
 10
44.4606
 20
-17.6267
 11
44.5
 21
-17
  0
LINE
  8
0
 10
44.5
 20
-17
 11
44.5
 21
17
  0
LINE
  8
0
 10
44.5
 20
17
 11
44.4606
 21
17.6267
  0
LINE
  8
0
 10
44.4606
 20
17.6267
 11
44.3429
 21
18.2434
  0
LINE
  8
0
 10
44.3429
 20
18.2434
 11
44.1489
 21
18.8406
  0
LINE
  8
0
 10
44.1489
 20
18.8406
 11
43.8815
 21
19.4088
  0
LINE
  8
0
 10
43.8815
 20
19.4088
 11
43.5451
 21
19.9389
  0
LINE
  8
0
 10
43.5451
 20
19.9389
 11
43.1448
 21
20.4227
  0
LINE
  8
0
 10
43.1448
 20
20.4227
 11
42.6871
 21
20.8526
  0
LINE
  8
0
 10
42.6871
 20
20.8526
 11
42.1791
 21
21.2216
  0
LINE
  8
0
 10
42.1791
 20
21.2216
 11
41.6289
 21
21.5241
  0
LINE
  8
0
 10
41.6289
 20
21.5241
 11
41.0451
 21
21.7553
  0
LINE
  8
0
 10
41.0451
 20
21.7553
 11
40.4369
 21
21.9114
  0
LINE
  8
0
 10
40.4369
 20
21.9114
 11
39.8139
 21
21.9901
  0
LINE
  8
0
 10
39.8139
 20
21.9901
 11
-39.8139
 21
21.9901
  0
LINE
  8
0
 10
-39.8139
 20
21.9901
 11
-40.4369
 21
21.9114
  0
LINE
  8
0
 10
-40.4369
 20
21.9114
 11
-41.0451
 21
21.7553
  0
LINE
  8
0
 10
-41.0451
 20
21.7553
 11
-41.6289
 21
21.5241
  0
LINE
  8
0
 10
-41.6289
 20
21.5241
 11
-42.1791
 21
21.2216
  0
LINE
  8
0
 10
-42.1791
 20
21.2216
 11
-42.6871
 21
20.8526
  0
LINE
  8
0
 10
-42.6871
 20
20.8526
 11
-43.1448
 21
20.4227
  0
LINE
  8
0
 10
-43.1448
 20
20.4227
 11
-43.5451
 21
19.9389
  0
LINE
  8
0
 10
-43.5451
 20
19.9389
 11
-43.8815
 21
19.4088
  0
LINE
  8
0
 10
-43.8815
 20
19.4088
 11
-44.1489
 21
18.8406
  0
LINE
  8
0
 10
-44.1489
 20
18.8406
 11
-44.3429
 21
18.2434
  0
LINE
  8
0
 10
-44.3429
 20
18.2434
 11
-44.4606
 21
17.6267
  0
LINE
  8
0
 10
-44.4606
 20
17.6267
 11
-44.5
 21
17
  0
LINE
  8
0
 10
-44.5
 20
17
 11
-44.5
 21
-17
  0
LINE
  8
0
 10
-44.5
 20
-17
 11
-44.4606
 21
-17.6267
  0
LINE
  8
0
 10
-44.4606
 20
-17.6267
 11
-44.3429
 21
-18.2434
  0
LINE
  8
0
 10
-44.3429
 20
-18.2434
 11
-44.1489
 21
-18.8406
  0
LINE
  8
0
 10
-44.1489
 20
-18.8406
 11
-43.8815
 21
-19.4088
  0
LINE
  8
0
 10
-43.8815
 20
-19.4088
 11
-43.5451
 21
-19.9389
  0
LINE
  8
0
 10
-43.5451
 20
-19.9389
 11
-43.1448
 21
-20.4227
  0
LINE
  8
0
 10
-43.1448
 20
-20.4227
 11
-42.6871
 21
-20.8526
  0
LINE
  8
0
 10
-42.6871
 20
-20.8526
 11
-42.1791
 21
-21.2216
  0
LINE
  8
0
 10
-42.1791
 20
-21.2216
 11
-41.6289
 21
-21.5241
  0
LINE
  8
0
 10
-41.6289
 20
-21.5241
 11
-41.0451
 21
-21.7553
  0
LINE
  8
0
 10
-41.0451
 20
-21.7553
 11
-40.4369
 21
-21.9114
  0
LINE
  8
0
 10
-40.4369
 20
-21.9114
 11
-39.8139
 21
-21.9901
  0
LINE
  8
0
 10
-39.8139
 20
-21.9901
 11
39.8139
 21
-21.9901
  0
LINE
  8
0
 10
39.8139
 20
-21.9901
 11
40.4369
 21
-21.9114
  0
LINE
  8
0
 10
19.8384
 20
-18.4635
 11
17.5334
 21
-18.1723
  0
LINE
  8
0
 10
17.5334
 20
-18.1723
 11
15.2832
 21
-17.5945
  0
LINE
  8
0
 10
15.2832
 20
-17.5945
 11
13.1231
 21
-16.7393
  0
LINE
  8
0
 10
13.1231
 20
-16.7393
 11
11.0872
 21
-15.6201
  0
LINE
  8
0
 10
11.0872
 20
-15.6201
 11
9.20764
 21
-14.2545
  0
LINE
  8
0
 10
9.20764
 20
-14.2545
 11
7.51407
 21
-12.6641
  0
LINE
  8
0
 10
7.51407
 20
-12.6641
 11
6.03317
 21
-10.874
  0
LINE
  8
0
 10
6.03317
 20
-10.874
 11
4.78831
 21
-8.91243
  0
LINE
  8
0
 10
4.78831
 20
-8.91243
 11
3.79913
 21
-6.8103
  0
LINE
  8
0
 10
3.79913
 20
-6.8103
 11
3.08121
 21
-4.60075
  0
LINE
  8
0
 10
3.08121
 20
-4.60075
 11
2.64587
 21
-2.31866
  0
LINE
  8
0
 10
2.64587
 20
-2.31866
 11
2.5
 21
0
  0
LINE
  8
0
 10
2.5
 20
0
 11
2.64587
 21
2.31866
  0
LINE
  8
0
 10
2.64587
 20
2.31866
 11
3.08121
 21
4.60075
  0
LINE
  8
0
 10
3.08121
 20
4.60075
 11
3.79913
 21
6.8103
  0
LINE
  8
0
 10
3.79913
 20
6.8103
 11
4.78831
 21
8.91243
  0
LINE
  8
0
 10
4.78831
 20
8.91243
 11
6.03317
 21
10.874
  0
LINE
  8
0
 10
6.03317
 20
10.874
 11
7.51407
 21
12.6641
  0
LINE
  8
0
 10
7.51407
 20
12.6641
 11
9.20764
 21
14.2545
  0
LINE
  8
0
 10
9.20764
 20
14.2545
 11
11.0872
 21
15.6201
  0
LINE
  8
0
 10
11.0872
 20
15.6201
 11
13.1231
 21
16.7393
  0
LINE
  8
0
 10
13.1231
 20
16.7393
 11
15.2832
 21
17.5945
  0
LINE
  8
0
 10
15.2832
 20
17.5945
 11
17.5334
 21
18.1723
  0
LINE
  8
0
 10
17.5334
 20
18.1723
 11
19.8384
 21
18.4635
  0
LINE
  8
0
 10
19.8384
 20
18.4635
 11
22.1616
 21
18.4635
  0
LINE
  8
0
 10
22.1616
 20
18.4635
 11
24.4666
 21
18.1723
  0
LINE
  8
0
 10
24.4666
 20
18.1723
 11
26.7168
 21
17.5945
  0
LINE
  8
0
 10
26.7168
 20
17.5945
 11
28.8769
 21
16.7393
  0
LINE
  8
0
 10
28.8769
 20
16.7393
 11
30.9128
 21
15.6201
  0
LINE
  8
0
 10
30.9128
 20
15.6201
 11
32.7923
 21
14.2545
  0
LINE
  8
0
 10
32.7923
 20
14.2545
 11
34.4859
 21
12.6641
  0
LINE
  8
0
 10
34.4859
 20
12.6641
 11
35.9668
 21
10.874
  0
LINE
  8
0
 10
35.9668
 20
10.874
 11
37.2117
 21
8.91243
  0
LINE
  8
0
 10
37.2117
 20
8.91243
 11
38.2009
 21
6.8103
  0
LINE
  8
0
 10
38.2009
 20
6.8103
 11
38.9188
 21
4.60075
  0
LINE
  8
0
 10
38.9188
 20
4.60075
 11
39.3541
 21
2.31866
  0
LINE
  8
0
 10
39.3541
 20
2.31866
 11
39.5
 21
0
  0
LINE
  8
0
 10
39.5
 20
0
 11
39.3541
 21
-2.31866
  0
LINE
  8
0
 10
39.3541
 20
-2.31866
 11
38.9188
 21
-4.60075
  0
LINE
  8
0
 10
38.9188
 20
-4.60075
 11
38.2009
 21
-6.8103
  0
LINE
  8
0
 10
38.2009
 20
-6.8103
 11
37.2117
 21
-8.91243
  0
LINE
  8
0
 10
37.2117
 20
-8.91243
 11
35.9668
 21
-10.874
  0
LINE
  8
0
 10
35.9668
 20
-10.874
 11
34.4859
 21
-12.6641
  0
LINE
  8
0
 10
34.4859
 20
-12.6641
 11
32.7923
 21
-14.2545
  0
LINE
  8
0
 10
32.7923
 20
-14.2545
 11
30.9128
 21
-15.6201
  0
LINE
  8
0
 10
30.9128
 20
-15.6201
 11
28.8769
 21
-16.7393
  0
LINE
  8
0
 10
28.8769
 20
-16.7393
 11
26.7168
 21
-17.5945
  0
LINE
  8
0
 10
26.7168
 20
-17.5945
 11
24.4666
 21
-18.1723
  0
LINE
  8
0
 10
24.4666
 20
-18.1723
 11
22.1616
 21
-18.4635
  0
LINE
  8
0
 10
22.1616
 20
-18.4635
 11
19.8384
 21
-18.4635
  0
LINE
  8
0
 10
-22.1616
 20
-18.4635
 11
-24.4666
 21
-18.1723
  0
LINE
  8
0
 10
-24.4666
 20
-18.1723
 11
-26.7168
 21
-17.5945
  0
LINE
  8
0
 10
-26.7168
 20
-17.5945
 11
-28.8769
 21
-16.7393
  0
LINE
  8
0
 10
-28.8769
 20
-16.7393
 11
-30.9128
 21
-15.6201
  0
LINE
  8
0
 10
-30.9128
 20
-15.6201
 11
-32.7923
 21
-14.2545
  0
LINE
  8
0
 10
-32.7923
 20
-14.2545
 11
-34.4859
 21
-12.6641
  0
LINE
  8
0
 10
-34.4859
 20
-12.6641
 11
-35.9668
 21
-10.874
  0
LINE
  8
0
 10
-35.9668
 20
-10.874
 11
-37.2117
 21
-8.91243
  0
LINE
  8
0
 10
-37.2117
 20
-8.91243
 11
-38.2009
 21
-6.8103
  0
LINE
  8
0
 10
-38.2009
 20
-6.8103
 11
-38.9188
 21
-4.60075
  0
LINE
  8
0
 10
-38.9188
 20
-4.60075
 11
-39.3541
 21
-2.31866
  0
LINE
  8
0
 10
-39.3541
 20
-2.31866
 11
-39.5
 21
0
  0
LINE
  8
0
 10
-39.5
 20
0
 11
-39.3541
 21
2.31866
  0
LINE
  8
0
 10
-39.3541
 20
2.31866
 11
-38.9188
 21
4.60075
  0
LINE
  8
0
 10
-38.9188
 20
4.60075
 11
-38.2009
 21
6.8103
  0
LINE
  8
0
 10
-38.2009
 20
6.8103
 11
-37.2117
 21
8.91243
  0
LINE
  8
0
 10
-37.2117
 20
8.91243
 11
-35.9668
 21
10.874
  0
LINE
  8
0
 10
-35.9668
 20
10.874
 11
-34.4859
 21
12.6641
  0
LINE
  8
0
 10
-34.4859
 20
12.6641
 11
-32.7923
 21
14.2545
  0
LINE
  8
0
 10
-32.7923
 20
14.2545
 11
-30.9128
 21
15.6201
  0
LINE
  8
0
 10
-30.9128
 20
15.6201
 11
-28.8769
 21
16.7393
  0
LINE
  8
0
 10
-28.8769
 20
16.7393
 11
-26.7168
 21
17.5945
  0
LINE
  8
0
 10
-26.7168
 20
17.5945
 11
-24.4666
 21
18.1723
  0
LINE
  8
0
 10
-24.4666
 20
18.1723
 11
-22.1616
 21
18.4635
  0
LINE
  8
0
 10
-22.1616
 20
18.4635
 11
-19.8384
 21
18.4635
  0
LINE
  8
0
 10
-19.8384
 20
18.4635
 11
-17.5334
 21
18.1723
  0
LINE
  8
0
 10
-17.5334
 20
18.1723
 11
-15.2832
 21
17.5945
  0
LINE
  8
0
 10
-15.2832
 20
17.5945
 11
-13.1231
 21
16.7393
  0
LINE
  8
0
 10
-13.1231
 20
16.7393
 11
-11.0872
 21
15.6201
  0
LINE
  8
0
 10
-11.0872
 20
15.6201
 11
-9.20764
 21
14.2545
  0
LINE
  8
0
 10
-9.20764
 20
14.2545
 11
-7.51407
 21
12.6641
  0
LINE
  8
0
 10
-7.51407
 20
12.6641
 11
-6.03317
 21
10.874
  0
LINE
  8
0
 10
-6.03317
 20
10.874
 11
-4.78831
 21
8.91243
  0
LINE
  8
0
 10
-4.78831
 20
8.91243
 11
-3.79913
 21
6.8103
  0
LINE
  8
0
 10
-3.79913
 20
6.8103
 11
-3.08121
 21
4.60075
  0
LINE
  8
0
 10
-3.08121
 20
4.60075
 11
-2.64587
 21
2.31866
  0
LINE
  8
0
 10
-2.64587
 20
2.31866
 11
-2.5
 21
0
  0
LINE
  8
0
 10
-2.5
 20
0
 11
-2.64587
 21
-2.31866
  0
LINE
  8
0
 10
-2.64587
 20
-2.31866
 11
-3.08121
 21
-4.60075
  0
LINE
  8
0
 10
-3.08121
 20
-4.60075
 11
-3.79913
 21
-6.8103
  0
LINE
  8
0
 10
-3.79913
 20
-6.8103
 11
-4.78831
 21
-8.91243
  0
LINE
  8
0
 10
-4.78831
 20
-8.91243
 11
-6.03317
 21
-10.874
  0
LINE
  8
0
 10
-6.03317
 20
-10.874
 11
-7.51407
 21
-12.6641
  0
LINE
  8
0
 10
-7.51407
 20
-12.6641
 11
-9.20764
 21
-14.2545
  0
LINE
  8
0
 10
-9.20764
 20
-14.2545
 11
-11.0872
 21
-15.6201
  0
LINE
  8
0
 10
-11.0872
 20
-15.6201
 11
-13.1231
 21
-16.7393
  0
LINE
  8
0
 10
-13.1231
 20
-16.7393
 11
-15.2832
 21
-17.5945
  0
LINE
  8
0
 10
-15.2832
 20
-17.5945
 11
-17.5334
 21
-18.1723
  0
LINE
  8
0
 10
-17.5334
 20
-18.1723
 11
-19.8384
 21
-18.4635
  0
LINE
  8
0
 10
-19.8384
 20
-18.4635
 11
-22.1616
 21
-18.4635
  0
LINE
  8
0
 10
-37.6884
 20
12.0059
 11
-38.0621
 21
12.0531
  0
LINE
  8
0
 10
-38.0621
 20
12.0531
 11
-38.427
 21
12.1468
  0
LINE
  8
0
 10
-38.427
 20
12.1468
 11
-38.7773
 21
12.2855
  0
LINE
  8
0
 10
-38.7773
 20
12.2855
 11
-39.1075
 21
12.467
  0
LINE
  8
0
 10
-39.1075
 20
12.467
 11
-39.4123
 21
12.6884
  0
LINE
  8
0
 10
-39.4123
 20
12.6884
 11
-39.6869
 21
12.9464
  0
LINE
  8
0
 10
-39.6869
 20
12.9464
 11
-39.927
 21
13.2366
  0
LINE
  8
0
 10
-39.927
 20
13.2366
 11
-40.1289
 21
13.5547
  0
LINE
  8
0
 10
-40.1289
 20
13.5547
 11
-40.2893
 21
13.8956
  0
LINE
  8
0
 10
-40.2893
 20
13.8956
 11
-40.4057
 21
14.2539
  0
LINE
  8
0
 10
-40.4057
 20
14.2539
 11
-40.4763
 21
14.624
  0
LINE
  8
0
 10
-40.4763
 20
14.624
 11
-40.5
 21
15
  0
LINE
  8
0
 10
-40.5
 20
15
 11
-40.4763
 21
15.376
  0
LINE
  8
0
 10
-40.4763
 20
15.376
 11
-40.4057
 21
15.7461
  0
LINE
  8
0
 10
-40.4057
 20
15.7461
 11
-40.2893
 21
16.1044
  0
LINE
  8
0
 10
-40.2893
 20
16.1044
 11
-40.1289
 21
16.4453
  0
LINE
  8
0
 10
-40.1289
 20
16.4453
 11
-39.927
 21
16.7634
  0
LINE
  8
0
 10
-39.927
 20
16.7634
 11
-39.6869
 21
17.0536
  0
LINE
  8
0
 10
-39.6869
 20
17.0536
 11
-39.4123
 21
17.3115
  0
LINE
  8
0
 10
-39.4123
 20
17.3115
 11
-39.1075
 21
17.533
  0
LINE
  8
0
 10
-39.1075
 20
17.533
 11
-38.7773
 21
17.7145
  0
LINE
  8
0
 10
-38.7773
 20
17.7145
 11
-38.427
 21
17.8532
  0
LINE
  8
0
 10
-38.427
 20
17.8532
 11
-38.0621
 21
17.9469
  0
LINE
  8
0
 10
-38.0621
 20
17.9469
 11
-37.6884
 21
17.9941
  0
LINE
  8
0
 10
-37.6884
 20
17.9941
 11
-37.3116
 21
17.9941
  0
LINE
  8
0
 10
-37.3116
 20
17.9941
 11
-36.9379
 21
17.9469
  0
LINE
  8
0
 10
-36.9379
 20
17.9469
 11
-36.5729
 21
17.8532
  0
LINE
  8
0
 10
-36.5729
 20
17.8532
 11
-36.2227
 21
17.7145
  0
LINE
  8
0
 10
-36.2227
 20
17.7145
 11
-35.8925
 21
17.533
  0
LINE
  8
0
 10
-35.8925
 20
17.533
 11
-35.5877
 21
17.3115
  0
LINE
  8
0
 10
-35.5877
 20
17.3115
 11
-35.3131
 21
17.0536
  0
LINE
  8
0
 10
-35.3131
 20
17.0536
 11
-35.0729
 21
16.7634
  0
LINE
  8
0
 10
-35.0729
 20
16.7634
 11
-34.8711
 21
16.4453
  0
LINE
  8
0
 10
-34.8711
 20
16.4453
 11
-34.7107
 21
16.1044
  0
LINE
  8
0
 10
-34.7107
 20
16.1044
 11
-34.5942
 21
15.7461
  0
LINE
  8
0
 10
-34.5942
 20
15.7461
 11
-34.5237
 21
15.376
  0
LINE
  8
0
 10
-34.5237
 20
15.376
 11
-34.5
 21
15
  0
LINE
  8
0
 10
-34.5
 20
15
 11
-34.5237
 21
14.624
  0
LINE
  8
0
 10
-34.5237
 20
14.624
 11
-34.5942
 21
14.2539
  0
LINE
  8
0
 10
-34.5942
 20
14.2539
 11
-34.7107
 21
13.8956
  0
LINE
  8
0
 10
-34.7107
 20
13.8956
 11
-34.8711
 21
13.5547
  0
LINE
  8
0
 10
-34.8711
 20
13.5547
 11
-35.0729
 21
13.2366
  0
LINE
  8
0
 10
-35.0729
 20
13.2366
 11
-35.3131
 21
12.9464
  0
LINE
  8
0
 10
-35.3131
 20
12.9464
 11
-35.5877
 21
12.6884
  0
LINE
  8
0
 10
-35.5877
 20
12.6884
 11
-35.8925
 21
12.467
  0
LINE
  8
0
 10
-35.8925
 20
12.467
 11
-36.2227
 21
12.2855
  0
LINE
  8
0
 10
-36.2227
 20
12.2855
 11
-36.5729
 21
12.1468
  0
LINE
  8
0
 10
-36.5729
 20
12.1468
 11
-36.9379
 21
12.0531
  0
LINE
  8
0
 10
-36.9379
 20
12.0531
 11
-37.3116
 21
12.0059
  0
LINE
  8
0
 10
-37.3116
 20
12.0059
 11
-37.6884
 21
12.0059
  0
LINE
  8
0
 10
37.3116
 20
12.0059
 11
36.9379
 21
12.0531
  0
LINE
  8
0
 10
36.9379
 20
12.0531
 11
36.5729
 21
12.1468
  0
LINE
  8
0
 10
36.5729
 20
12.1468
 11
36.2227
 21
12.2855
  0
LINE
  8
0
 10
36.2227
 20
12.2855
 11
35.8925
 21
12.467
  0
LINE
  8
0
 10
35.8925
 20
12.467
 11
35.5877
 21
12.6884
  0
LINE
  8
0
 10
35.5877
 20
12.6884
 11
35.3131
 21
12.9464
  0
LINE
  8
0
 10
35.3131
 20
12.9464
 11
35.0729
 21
13.2366
  0
LINE
  8
0
 10
35.0729
 20
13.2366
 11
34.8711
 21
13.5547
  0
LINE
  8
0
 10
34.8711
 20
13.5547
 11
34.7107
 21
13.8956
  0
LINE
  8
0
 10
34.7107
 20
13.8956
 11
34.5942
 21
14.2539
  0
LINE
  8
0
 10
34.5942
 20
14.2539
 11
34.5237
 21
14.624
  0
LINE
  8
0
 10
34.5237
 20
14.624
 11
34.5
 21
15
  0
LINE
  8
0
 10
34.5
 20
15
 11
34.5237
 21
15.376
  0
LINE
  8
0
 10
34.5237
 20
15.376
 11
34.5942
 21
15.7461
  0
LINE
  8
0
 10
34.5942
 20
15.7461
 11
34.7107
 21
16.1044
  0
LINE
  8
0
 10
34.7107
 20
16.1044
 11
34.8711
 21
16.4453
  0
LINE
  8
0
 10
34.8711
 20
16.4453
 11
35.0729
 21
16.7634
  0
LINE
  8
0
 10
35.0729
 20
16.7634
 11
35.3131
 21
17.0536
  0
LINE
  8
0
 10
35.3131
 20
17.0536
 11
35.5877
 21
17.3115
  0
LINE
  8
0
 10
35.5877
 20
17.3115
 11
35.8925
 21
17.533
  0
LINE
  8
0
 10
35.8925
 20
17.533
 11
36.2227
 21
17.7145
  0
LINE
  8
0
 10
36.2227
 20
17.7145
 11
36.5729
 21
17.8532
  0
LINE
  8
0
 10
36.5729
 20
17.8532
 11
36.9379
 21
17.9469
  0
LINE
  8
0
 10
36.9379
 20
17.9469
 11
37.3116
 21
17.9941
  0
LINE
  8
0
 10
37.3116
 20
17.9941
 11
37.6884
 21
17.9941
  0
LINE
  8
0
 10
37.6884
 20
17.9941
 11
38.0621
 21
17.9469
  0
LINE
  8
0
 10
38.0621
 20
17.9469
 11
38.427
 21
17.8532
  0
LINE
  8
0
 10
38.427
 20
17.8532
 11
38.7773
 21
17.7145
  0
LINE
  8
0
 10
38.7773
 20
17.7145
 11
39.1075
 21
17.533
  0
LINE
  8
0
 10
39.1075
 20
17.533
 11
39.4123
 21
17.3115
  0
LINE
  8
0
 10
39.4123
 20
17.3115
 11
39.6869
 21
17.0536
  0
LINE
  8
0
 10
39.6869
 20
17.0536
 11
39.927
 21
16.7634
  0
LINE
  8
0
 10
39.927
 20
16.7634
 11
40.1289
 21
16.4453
  0
LINE
  8
0
 10
40.1289
 20
16.4453
 11
40.2893
 21
16.1044
  0
LINE
  8
0
 10
40.2893
 20
16.1044
 11
40.4057
 21
15.7461
  0
LINE
  8
0
 10
40.4057
 20
15.7461
 11
40.4763
 21
15.376
  0
LINE
  8
0
 10
40.4763
 20
15.376
 11
40.5
 21
15
  0
LINE
  8
0
 10
40.5
 20
15
 11
40.4763
 21
14.624
  0
LINE
  8
0
 10
40.4763
 20
14.624
 11
40.4057
 21
14.2539
  0
LINE
  8
0
 10
40.4057
 20
14.2539
 11
40.2893
 21
13.8956
  0
LINE
  8
0
 10
40.2893
 20
13.8956
 11
40.1289
 21
13.5547
  0
LINE
  8
0
 10
40.1289
 20
13.5547
 11
39.927
 21
13.2366
  0
LINE
  8
0
 10
39.927
 20
13.2366
 11
39.6869
 21
12.9464
  0
LINE
  8
0
 10
39.6869
 20
12.9464
 11
39.4123
 21
12.6884
  0
LINE
  8
0
 10
39.4123
 20
12.6884
 11
39.1075
 21
12.467
  0
LINE
  8
0
 10
39.1075
 20
12.467
 11
38.7773
 21
12.2855
  0
LINE
  8
0
 10
38.7773
 20
12.2855
 11
38.427
 21
12.1468
  0
LINE
  8
0
 10
38.427
 20
12.1468
 11
38.0621
 21
12.0531
  0
LINE
  8
0
 10
38.0621
 20
12.0531
 11
37.6884
 21
12.0059
  0
LINE
  8
0
 10
37.6884
 20
12.0059
 11
37.3116
 21
12.0059
  0
LINE
  8
0
 10
-37.6884
 20
-17.9941
 11
-38.0621
 21
-17.9469
  0
LINE
  8
0
 10
-38.0621
 20
-17.9469
 11
-38.427
 21
-17.8532
  0
LINE
  8
0
 10
-38.427
 20
-17.8532
 11
-38.7773
 21
-17.7145
  0
LINE
  8
0
 10
-38.7773
 20
-17.7145
 11
-39.1075
 21
-17.533
  0
LINE
  8
0
 10
-39.1075
 20
-17.533
 11
-39.4123
 21
-17.3115
  0
LINE
  8
0
 10
-39.4123
 20
-17.3115
 11
-39.6869
 21
-17.0536
  0
LINE
  8
0
 10
-39.6869
 20
-17.0536
 11
-39.927
 21
-16.7634
  0
LINE
  8
0
 10
-39.927
 20
-16.7634
 11
-40.1289
 21
-16.4453
  0
LINE
  8
0
 10
-40.1289
 20
-16.4453
 11
-40.2893
 21
-16.1044
  0
LINE
  8
0
 10
-40.2893
 20
-16.1044
 11
-40.4057
 21
-15.7461
  0
LINE
  8
0
 10
-40.4057
 20
-15.7461
 11
-40.4763
 21
-15.376
  0
LINE
  8
0
 10
-40.4763
 20
-15.376
 11
-40.5
 21
-15
  0
LINE
  8
0
 10
-40.5
 20
-15
 11
-40.4763
 21
-14.624
  0
LINE
  8
0
 10
-40.4763
 20
-14.624
 11
-40.4057
 21
-14.2539
  0
LINE
  8
0
 10
-40.4057
 20
-14.2539
 11
-40.2893
 21
-13.8956
  0
LINE
  8
0
 10
-40.2893
 20
-13.8956
 11
-40.1289
 21
-13.5547
  0
LINE
  8
0
 10
-40.1289
 20
-13.5547
 11
-39.927
 21
-13.2366
  0
LINE
  8
0
 10
-39.927
 20
-13.2366
 11
-39.6869
 21
-12.9464
  0
LINE
  8
0
 10
-39.6869
 20
-12.9464
 11
-39.4123
 21
-12.6884
  0
LINE
  8
0
 10
-39.4123
 20
-12.6884
 11
-39.1075
 21
-12.467
  0
LINE
  8
0
 10
-39.1075
 20
-12.467
 11
-38.7773
 21
-12.2855
  0
LINE
  8
0
 10
-38.7773
 20
-12.2855
 11
-38.427
 21
-12.1468
  0
LINE
  8
0
 10
-38.427
 20
-12.1468
 11
-38.0621
 21
-12.0531
  0
LINE
  8
0
 10
-38.0621
 20
-12.0531
 11
-37.6884
 21
-12.0059
  0
LINE
  8
0
 10
-37.6884
 20
-12.0059
 11
-37.3116
 21
-12.0059
  0
LINE
  8
0
 10
-37.3116
 20
-12.0059
 11
-36.9379
 21
-12.0531
  0
LINE
  8
0
 10
-36.9379
 20
-12.0531
 11
-36.5729
 21
-12.1468
  0
LINE
  8
0
 10
-36.5729
 20
-12.1468
 11
-36.2227
 21
-12.2855
  0
LINE
  8
0
 10
-36.2227
 20
-12.2855
 11
-35.8925
 21
-12.467
  0
LINE
  8
0
 10
-35.8925
 20
-12.467
 11
-35.5877
 21
-12.6884
  0
LINE
  8
0
 10
-35.5877
 20
-12.6884
 11
-35.3131
 21
-12.9464
  0
LINE
  8
0
 10
-35.3131
 20
-12.9464
 11
-35.0729
 21
-13.2366
  0
LINE
  8
0
 10
-35.0729
 20
-13.2366
 11
-34.8711
 21
-13.5547
  0
LINE
  8
0
 10
-34.8711
 20
-13.5547
 11
-34.7107
 21
-13.8956
  0
LINE
  8
0
 10
-34.7107
 20
-13.8956
 11
-34.5942
 21
-14.2539
  0
LINE
  8
0
 10
-34.5942
 20
-14.2539
 11
-34.5237
 21
-14.624
  0
LINE
  8
0
 10
-34.5237
 20
-14.624
 11
-34.5
 21
-15
  0
LINE
  8
0
 10
-34.5
 20
-15
 11
-34.5237
 21
-15.376
  0
LINE
  8
0
 10
-34.5237
 20
-15.376
 11
-34.5942
 21
-15.7461
  0
LINE
  8
0
 10
-34.5942
 20
-15.7461
 11
-34.7107
 21
-16.1044
  0
LINE
  8
0
 10
-34.7107
 20
-16.1044
 11
-34.8711
 21
-16.4453
  0
LINE
  8
0
 10
-34.8711
 20
-16.4453
 11
-35.0729
 21
-16.7634
  0
LINE
  8
0
 10
-35.0729
 20
-16.7634
 11
-35.3131
 21
-17.0536
  0
LINE
  8
0
 10
-35.3131
 20
-17.0536
 11
-35.5877
 21
-17.3115
  0
LINE
  8
0
 10
-35.5877
 20
-17.3115
 11
-35.8925
 21
-17.533
  0
LINE
  8
0
 10
-35.8925
 20
-17.533
 11
-36.2227
 21
-17.7145
  0
LINE
  8
0
 10
-36.2227
 20
-17.7145
 11
-36.5729
 21
-17.8532
  0
LINE
  8
0
 10
-36.5729
 20
-17.8532
 11
-36.9379
 21
-17.9469
  0
LINE
  8
0
 10
-36.9379
 20
-17.9469
 11
-37.3116
 21
-17.9941
  0
LINE
  8
0
 10
-37.3116
 20
-17.9941
 11
-37.6884
 21
-17.9941
  0
LINE
  8
0
 10
37.3116
 20
-17.9941
 11
36.9379
 21
-17.9469
  0
LINE
  8
0
 10
36.9379
 20
-17.9469
 11
36.5729
 21
-17.8532
  0
LINE
  8
0
 10
36.5729
 20
-17.8532
 11
36.2227
 21
-17.7145
  0
LINE
  8
0
 10
36.2227
 20
-17.7145
 11
35.8925
 21
-17.533
  0
LINE
  8
0
 10
35.8925
 20
-17.533
 11
35.5877
 21
-17.3115
  0
LINE
  8
0
 10
35.5877
 20
-17.3115
 11
35.3131
 21
-17.0536
  0
LINE
  8
0
 10
35.3131
 20
-17.0536
 11
35.0729
 21
-16.7634
  0
LINE
  8
0
 10
35.0729
 20
-16.7634
 11
34.8711
 21
-16.4453
  0
LINE
  8
0
 10
34.8711
 20
-16.4453
 11
34.7107
 21
-16.1044
  0
LINE
  8
0
 10
34.7107
 20
-16.1044
 11
34.5942
 21
-15.7461
  0
LINE
  8
0
 10
34.5942
 20
-15.7461
 11
34.5237
 21
-15.376
  0
LINE
  8
0
 10
34.5237
 20
-15.376
 11
34.5
 21
-15
  0
LINE
  8
0
 10
34.5
 20
-15
 11
34.5237
 21
-14.624
  0
LINE
  8
0
 10
34.5237
 20
-14.624
 11
34.5942
 21
-14.2539
  0
LINE
  8
0
 10
34.5942
 20
-14.2539
 11
34.7107
 21
-13.8956
  0
LINE
  8
0
 10
34.7107
 20
-13.8956
 11
34.8711
 21
-13.5547
  0
LINE
  8
0
 10
34.8711
 20
-13.5547
 11
35.0729
 21
-13.2366
  0
LINE
  8
0
 10
35.0729
 20
-13.2366
 11
35.3131
 21
-12.9464
  0
LINE
  8
0
 10
35.3131
 20
-12.9464
 11
35.5877
 21
-12.6884
  0
LINE
  8
0
 10
35.5877
 20
-12.6884
 11
35.8925
 21
-12.467
  0
LINE
  8
0
 10
35.8925
 20
-12.467
 11
36.2227
 21
-12.2855
  0
LINE
  8
0
 10
36.2227
 20
-12.2855
 11
36.5729
 21
-12.1468
  0
LINE
  8
0
 10
36.5729
 20
-12.1468
 11
36.9379
 21
-12.0531
  0
LINE
  8
0
 10
36.9379
 20
-12.0531
 11
37.3116
 21
-12.0059
  0
LINE
  8
0
 10
37.3116
 20
-12.0059
 11
37.6884
 21
-12.0059
  0
LINE
  8
0
 10
37.6884
 20
-12.0059
 11
38.0621
 21
-12.0531
  0
LINE
  8
0
 10
38.0621
 20
-12.0531
 11
38.427
 21
-12.1468
  0
LINE
  8
0
 10
38.427
 20
-12.1468
 11
38.7773
 21
-12.2855
  0
LINE
  8
0
 10
38.7773
 20
-12.2855
 11
39.1075
 21
-12.467
  0
LINE
  8
0
 10
39.1075
 20
-12.467
 11
39.4123
 21
-12.6884
  0
LINE
  8
0
 10
39.4123
 20
-12.6884
 11
39.6869
 21
-12.9464
  0
LINE
  8
0
 10
39.6869
 20
-12.9464
 11
39.927
 21
-13.2366
  0
LINE
  8
0
 10
39.927
 20
-13.2366
 11
40.1289
 21
-13.5547
  0
LINE
  8
0
 10
40.1289
 20
-13.5547
 11
40.2893
 21
-13.8956
  0
LINE
  8
0
 10
40.2893
 20
-13.8956
 11
40.4057
 21
-14.2539
  0
LINE
  8
0
 10
40.4057
 20
-14.2539
 11
40.4763
 21
-14.624
  0
LINE
  8
0
 10
40.4763
 20
-14.624
 11
40.5
 21
-15
  0
LINE
  8
0
 10
40.5
 20
-15
 11
40.4763
 21
-15.376
  0
LINE
  8
0
 10
40.4763
 20
-15.376
 11
40.4057
 21
-15.7461
  0
LINE
  8
0
 10
40.4057
 20
-15.7461
 11
40.2893
 21
-16.1044
  0
LINE
  8
0
 10
40.2893
 20
-16.1044
 11
40.1289
 21
-16.4453
  0
LINE
  8
0
 10
40.1289
 20
-16.4453
 11
39.927
 21
-16.7634
  0
LINE
  8
0
 10
39.927
 20
-16.7634
 11
39.6869
 21
-17.0536
  0
LINE
  8
0
 10
39.6869
 20
-17.0536
 11
39.4123
 21
-17.3115
  0
LINE
  8
0
 10
39.4123
 20
-17.3115
 11
39.1075
 21
-17.533
  0
LINE
  8
0
 10
39.1075
 20
-17.533
 11
38.7773
 21
-17.7145
  0
LINE
  8
0
 10
38.7773
 20
-17.7145
 11
38.427
 21
-17.8532
  0
LINE
  8
0
 10
38.427
 20
-17.8532
 11
38.0621
 21
-17.9469
  0
LINE
  8
0
 10
38.0621
 20
-17.9469
 11
37.6884
 21
-17.9941
  0
LINE
  8
0
 10
37.6884
 20
-17.9941
 11
37.3116
 21
-17.9941
  0
ENDSEC
  0
SECTION
  2
OBJECTS
  0
DICTIONARY
  0
ENDSEC
  0
EOF
