<?xml version="1.0" standalone="no"?>
<!DOCTYPE svg PUBLIC "-//W3C//DTD SVG 1.1//EN" "http://www.w3.org/Graphics/SVG/1.1/DTD/svg11.dtd">
<svg width="240mm" height="44mm" viewBox="-120 -22 240 44" xmlns="http://www.w3.org/2000/svg" version="1.1">
<title>OpenSCAD Model</title>
<path d="
M 115.437,21.9114 L 116.045,21.7553 L 116.629,21.5241 L 117.179,21.2216 L 117.687,20.8526 L 118.145,20.4227
 L 118.545,19.9389 L 118.882,19.4088 L 119.149,18.8406 L 119.343,18.2434 L 119.461,17.6267 L 119.5,17
 L 119.5,-17 L 119.461,-17.6267 L 119.343,-18.2434 L 119.149,-18.8406 L 118.882,-19.4088 L 118.545,-19.9389
 L 118.145,-20.4227 L 117.687,-20.8526 L 117.179,-21.2216 L 116.629,-21.5241 L 116.045,-21.7553 L 115.437,-21.9114
 L 114.814,-21.9901 L -114.814,-21.9901 L -115.437,-21.9114 L -116.045,-21.7553 L -116.629,-21.5241 L -117.179,-21.2216
 L -117.687,-20.8526 L -118.145,-20.4227 L -118.545,-19.9389 L -118.882,-19.4088 L -119.149,-18.8406 L -119.343,-18.2434
 L -119.461,-17.6267 L -119.5,-17 L -119.5,17 L -119.461,17.6267 L -119.343,18.2434 L -119.149,18.8406
 L -118.882,19.4088 L -118.545,19.9389 L -118.145,20.4227 L -117.687,20.8526 L -117.179,21.2216 L -116.629,21.5241
 L -116.045,21.7553 L -115.437,21.9114 L -114.814,21.9901 L 114.814,21.9901 z
M 84.807,18.9625 L 82.4398,18.6635 L 80.1287,18.0701 L 77.9102,17.1917 L 75.8193,16.0422 L 73.8889,14.6397
 L 72.1496,13.0064 L 70.6287,11.1679 L 69.3502,9.15331 L 68.3342,6.99435 L 67.5969,4.7251 L 67.1498,2.38132
 L 67,-0 L 67.1498,-2.38132 L 67.5969,-4.7251 L 68.3342,-6.99435 L 69.3502,-9.15331 L 70.6287,-11.1679
 L 72.1496,-13.0064 L 73.8889,-14.6397 L 75.8193,-16.0422 L 77.9102,-17.1917 L 80.1287,-18.0701 L 82.4398,-18.6635
 L 84.807,-18.9625 L 87.193,-18.9625 L 89.5602,-18.6635 L 91.8713,-18.0701 L 94.0898,-17.1917 L 96.1807,-16.0422
 L 98.1111,-14.6397 L 99.8504,-13.0064 L 101.371,-11.1679 L 102.65,-9.15331 L 103.666,-6.99435 L 104.403,-4.7251
 L 104.85,-2.38132 L 105,-0 L 104.85,2.38132 L 104.403,4.7251 L 103.666,6.99435 L 102.65,9.15331
 L 101.371,11.1679 L 99.8504,13.0064 L 98.1111,14.6397 L 96.1807,16.0422 L 94.0898,17.1917 L 91.8713,18.0701
 L 89.5602,18.6635 L 87.193,18.9625 z
M -44.193,18.9625 L -46.5602,18.6635 L -48.8713,18.0701 L -51.0898,17.1917 L -53.1807,16.0422 L -55.1111,14.6397
 L -56.8504,13.0064 L -58.3713,11.1679 L -59.6498,9.15331 L -60.6657,6.99435 L -61.4031,4.7251 L -61.8502,2.38132
 L -62,-0 L -61.8502,-2.38132 L -61.4031,-4.7251 L -60.6657,-6.99435 L -59.6498,-9.15331 L -58.3713,-11.1679
 L -56.8504,-13.0064 L -55.1111,-14.6397 L -53.1807,-16.0422 L -51.0898,-17.1917 L -48.8713,-18.0701 L -46.5602,-18.6635
 L -44.193,-18.9625 L -41.807,-18.9625 L -39.4397,-18.6635 L -37.1287,-18.0701 L -34.9102,-17.1917 L -32.8193,-16.0422
 L -30.8889,-14.6397 L -29.1496,-13.0064 L -27.6287,-11.1679 L -26.3502,-9.15331 L -25.3342,-6.99435 L -24.5969,-4.7251
 L -24.1498,-2.38132 L -24,-0 L -24.1498,2.38132 L -24.5969,4.7251 L -25.3342,6.99435 L -26.3502,9.15331
 L -27.6287,11.1679 L -29.1496,13.0064 L -30.8889,14.6397 L -32.8193,16.0422 L -34.9102,17.1917 L -37.1287,18.0701
 L -39.4397,18.6635 L -41.807,18.9625 z
M -1.19301,18.9625 L -3.56024,18.6635 L -5.87132,18.0701 L -8.0898,17.1917 L -10.1807,16.0422 L -12.1111,14.6397
 L -13.8504,13.0064 L -15.3713,11.1679 L -16.6498,9.15331 L -17.6657,6.99435 L -18.4031,4.7251 L -18.8502,2.38132
 L -19,-0 L -18.8502,-2.38132 L -18.4031,-4.7251 L -17.6657,-6.99435 L -16.6498,-9.15331 L -15.3713,-11.1679
 L -13.8504,-13.0064 L -12.1111,-14.6397 L -10.1807,-16.0422 L -8.0898,-17.1917 L -5.87132,-18.0701 L -3.56024,-18.6635
 L -1.19301,-18.9625 L 1.19301,-18.9625 L 3.56024,-18.6635 L 5.87132,-18.0701 L 8.0898,-17.1917 L 10.1807,-16.0422
 L 12.1111,-14.6397 L 13.8504,-13.0064 L 15.3713,-11.1679 L 16.6498,-9.15331 L 17.6657,-6.99435 L 18.4031,-4.7251
 L 18.8502,-2.38132 L 19,-0 L 18.8502,2.38132 L 18.4031,4.7251 L 17.6657,6.99435 L 16.6498,9.15331
 L 15.3713,11.1679 L 13.8504,13.0064 L 12.1111,14.6397 L 10.1807,16.0422 L 8.0898,17.1917 L 5.87132,18.0701
 L 3.56024,18.6635 L 1.19301,18.9625 z
M -87.193,18.9625 L -89.5602,18.6635 L -91.8713,18.0701 L -94.0898,17.1917 L -96.1807,16.0422 L -98.1111,14.6397
 L -99.8504,13.0064 L -101.371,11.1679 L -102.65,9.15331 L -103.666,6.99435 L -104.403,4.7251 L -104.85,2.38132
 L -105,-0 L -104.85,-2.38132 L -104.403,-4.7251 L -103.666,-6.99435 L -102.65,-9.15331 L -101.371,-11.1679
 L -99.8504,-13.0064 L -98.1111,-14.6397 L -96.1807,-16.0422 L -94.0898,-17.1917 L -91.8713,-18.0701 L -89.5602,-18.6635
 L -87.193,-18.9625 L -84.807,-18.9625 L -82.4398,-18.6635 L -80.1287,-18.0701 L -77.9102,-17.1917 L -75.8193,-16.0422
 L -73.8889,-14.6397 L -72.1496,-13.0064 L -70.6287,-11.1679 L -69.3502,-9.15331 L -68.3342,-6.99435 L -67.5969,-4.7251
 L -67.1498,-2.38132 L -67,-0 L -67.1498,2.38132 L -67.5969,4.7251 L -68.3342,6.99435 L -69.3502,9.15331
 L -70.6287,11.1679 L -72.1496,13.0064 L -73.8889,14.6397 L -75.8193,16.0422 L -77.9102,17.1917 L -80.1287,18.0701
 L -82.4398,18.6635 L -84.807,18.9625 z
M 41.807,18.9625 L 39.4397,18.6635 L 37.1287,18.0701 L 34.9102,17.1917 L 32.8193,16.0422 L 30.8889,14.6397
 L 29.1496,13.0064 L 27.6287,11.1679 L 26.3502,9.15331 L 25.3342,6.99435 L 24.5969,4.7251 L 24.1498,2.38132
 L 24,-0 L 24.1498,-2.38132 L 24.5969,-4.7251 L 25.3342,-6.99435 L 26.3502,-9.15331 L 27.6287,-11.1679
 L 29.1496,-13.0064 L 30.8889,-14.6397 L 32.8193,-16.0422 L 34.9102,-17.1917 L 37.1287,-18.0701 L 39.4397,-18.6635
 L 41.807,-18.9625 L 44.193,-18.9625 L 46.5602,-18.6635 L 48.8713,-18.0701 L 51.0898,-17.1917 L 53.1807,-16.0422
 L 55.1111,-14.6397 L 56.8504,-13.0064 L 58.3713,-11.1679 L 59.6498,-9.15331 L 60.6657,-6.99435 L 61.4031,-4.7251
 L 61.8502,-2.38132 L 62,-0 L 61.8502,2.38132 L 61.4031,4.7251 L 60.6657,6.99435 L 59.6498,9.15331
 L 58.3713,11.1679 L 56.8504,13.0064 L 55.1111,14.6397 L 53.1807,16.0422 L 51.0898,17.1917 L 48.8713,18.0701
 L 46.5602,18.6635 L 44.193,18.9625 z
M -112.688,-12.0059 L -113.062,-12.0531 L -113.427,-12.1468 L -113.777,-12.2855 L -114.107,-12.467 L -114.412,-12.6884
 L -114.687,-12.9464 L -114.927,-13.2366 L -115.129,-13.5547 L -115.289,-13.8956 L -115.406,-14.2539 L -115.476,-14.624
 L -115.5,-15 L -115.476,-15.376 L -115.406,-15.7461 L -115.289,-16.1044 L -115.129,-16.4453 L -114.927,-16.7634
 L -114.687,-17.0536 L -114.412,-17.3115 L -114.107,-17.533 L -113.777,-17.7145 L -113.427,-17.8532 L -113.062,-17.9469
 L -112.688,-17.9941 L -112.312,-17.9941 L -111.938,-17.9469 L -111.573,-17.8532 L -111.223,-17.7145 L -110.893,-17.533
 L -110.588,-17.3115 L -110.313,-17.0536 L -110.073,-16.7634 L -109.871,-16.4453 L -109.711,-16.1044 L -109.594,-15.7461
 L -109.524,-15.376 L -109.5,-15 L -109.524,-14.624 L -109.594,-14.2539 L -109.711,-13.8956 L -109.871,-13.5547
 L -110.073,-13.2366 L -110.313,-12.9464 L -110.588,-12.6884 L -110.893,-12.467 L -111.223,-12.2855 L -111.573,-12.1468
 L -111.938,-12.0531 L -112.312,-12.0059 z
M 112.312,-12.0059 L 111.938,-12.0531 L 111.573,-12.1468 L 111.223,-12.2855 L 110.893,-12.467 L 110.588,-12.6884
 L 110.313,-12.9464 L 110.073,-13.2366 L 109.871,-13.5547 L 109.711,-13.8956 L 109.594,-14.2539 L 109.524,-14.624
 L 109.5,-15 L 109.524,-15.376 L 109.594,-15.7461 L 109.711,-16.1044 L 109.871,-16.4453 L 110.073,-16.7634
 L 110.313,-17.0536 L 110.588,-17.3115 L 110.893,-17.533 L 111.223,-17.7145 L 111.573,-17.8532 L 111.938,-17.9469
 L 112.312,-17.9941 L 112.688,-17.9941 L 113.062,-17.9469 L 113.427,-17.8532 L 113.777,-17.7145 L 114.107,-17.533
 L 114.412,-17.3115 L 114.687,-17.0536 L 114.927,-16.7634 L 115.129,-16.4453 L 115.289,-16.1044 L 115.406,-15.7461
 L 115.476,-15.376 L 115.5,-15 L 115.476,-14.624 L 115.406,-14.2539 L 115.289,-13.8956 L 115.129,-13.5547
 L 114.927,-13.2366 L 114.687,-12.9464 L 114.412,-12.6884 L 114.107,-12.467 L 113.777,-12.2855 L 113.427,-12.1468
 L 113.062,-12.0531 L 112.688,-12.0059 z
M 112.406,-6.00294 L 112.219,-6.02657 L 112.036,-6.07341 L 111.861,-6.14275 L 111.696,-6.23351 L 111.544,-6.34422
 L 111.407,-6.47318 L 111.286,-6.61832 L 111.186,-6.77736 L 111.105,-6.9478 L 111.047,-7.12695 L 111.012,-7.312
 L 111,-7.5 L 111.012,-7.68799 L 111.047,-7.87303 L 111.105,-8.05219 L 111.186,-8.22263 L 111.286,-8.38167
 L 111.407,-8.52681 L 111.544,-8.65576 L 111.696,-8.76648 L 111.861,-8.85724 L 112.036,-8.92657 L 112.219,-8.97342
 L 112.406,-8.99704 L 112.594,-8.99704 L 112.781,-8.97342 L 112.964,-8.92657 L 113.139,-8.85724 L 113.304,-8.76648
 L 113.456,-8.65576 L 113.593,-8.52681 L 113.714,-8.38167 L 113.814,-8.22263 L 113.895,-8.05219 L 113.953,-7.87303
 L 113.988,-7.68799 L 114,-7.5 L 113.988,-7.312 L 113.953,-7.12695 L 113.895,-6.9478 L 113.814,-6.77736
 L 113.714,-6.61832 L 113.593,-6.47318 L 113.456,-6.34422 L 113.304,-6.23351 L 113.139,-6.14275 L 112.964,-6.07341
 L 112.781,-6.02657 L 112.594,-6.00294 z
M -112.594,-6.00294 L -112.781,-6.02657 L -112.964,-6.07341 L -113.139,-6.14275 L -113.304,-6.23351 L -113.456,-6.34422
 L -113.593,-6.47318 L -113.714,-6.61832 L -113.814,-6.77736 L -113.895,-6.9478 L -113.953,-7.12695 L -113.988,-7.312
 L -114,-7.5 L -113.988,-7.68799 L -113.953,-7.87303 L -113.895,-8.05219 L -113.814,-8.22263 L -113.714,-8.38167
 L -113.593,-8.52681 L -113.456,-8.65576 L -113.304,-8.76648 L -113.139,-8.85724 L -112.964,-8.92657 L -112.781,-8.97342
 L -112.594,-8.99704 L -112.406,-8.99704 L -112.219,-8.97342 L -112.036,-8.92657 L -111.861,-8.85724 L -111.696,-8.76648
 L -111.544,-8.65576 L -111.407,-8.52681 L -111.286,-8.38167 L -111.186,-8.22263 L -111.105,-8.05219 L -111.047,-7.87303
 L -111.012,-7.68799 L -111,-7.5 L -111.012,-7.312 L -111.047,-7.12695 L -111.105,-6.9478 L -111.186,-6.77736
 L -111.286,-6.61832 L -111.407,-6.47318 L -111.544,-6.34422 L -111.696,-6.23351 L -111.861,-6.14275 L -112.036,-6.07341
 L -112.219,-6.02657 L -112.406,-6.00294 z
M 112.312,2.99408 L 111.938,2.94685 L 111.573,2.85316 L 111.223,2.71448 L 110.893,2.53297 L 110.588,2.31154
 L 110.313,2.05363 L 110.073,1.76335 L 109.871,1.44525 L 109.711,1.10437 L 109.594,0.746063 L 109.524,0.375992
 L 109.5,-0 L 109.524,-0.375992 L 109.594,-0.746063 L 109.711,-1.10437 L 109.871,-1.44525 L 110.073,-1.76335
 L 110.313,-2.05363 L 110.588,-2.31154 L 110.893,-2.53297 L 111.223,-2.71448 L 111.573,-2.85316 L 111.938,-2.94685
 L 112.312,-2.99408 L 112.688,-2.99408 L 113.062,-2.94685 L 113.427,-2.85316 L 113.777,-2.71448 L 114.107,-2.53297
 L 114.412,-2.31154 L 114.687,-2.05363 L 114.927,-1.76335 L 115.129,-1.44525 L 115.289,-1.10437 L 115.406,-0.746063
 L 115.476,-0.375992 L 115.5,-0 L 115.476,0.375992 L 115.406,0.746063 L 115.289,1.10437 L 115.129,1.44525
 L 114.927,1.76335 L 114.687,2.05363 L 114.412,2.31154 L 114.107,2.53297 L 113.777,2.71448 L 113.427,2.85316
 L 113.062,2.94685 L 112.688,2.99408 z
M -112.688,2.99408 L -113.062,2.94685 L -113.427,2.85316 L -113.777,2.71448 L -114.107,2.53297 L -114.412,2.31154
 L -114.687,2.05363 L -114.927,1.76335 L -115.129,1.44525 L -115.289,1.10437 L -115.406,0.746063 L -115.476,0.375992
 L -115.5,-0 L -115.476,-0.375992 L -115.406,-0.746063 L -115.289,-1.10437 L -115.129,-1.44525 L -114.927,-1.76335
 L -114.687,-2.05363 L -114.412,-2.31154 L -114.107,-2.53297 L -113.777,-2.71448 L -113.427,-2.85316 L -113.062,-2.94685
 L -112.688,-2.99408 L -112.312,-2.99408 L -111.938,-2.94685 L -111.573,-2.85316 L -111.223,-2.71448 L -110.893,-2.53297
 L -110.588,-2.31154 L -110.313,-2.05363 L -110.073,-1.76335 L -109.871,-1.44525 L -109.711,-1.10437 L -109.594,-0.746063
 L -109.524,-0.375992 L -109.5,-0 L -109.524,0.375992 L -109.594,0.746063 L -109.711,1.10437 L -109.871,1.44525
 L -110.073,1.76335 L -110.313,2.05363 L -110.588,2.31154 L -110.893,2.53297 L -111.223,2.71448 L -111.573,2.85316
 L -111.938,2.94685 L -112.312,2.99408 z
M -112.594,8.99704 L -112.781,8.97342 L -112.964,8.92657 L -113.139,8.85724 L -113.304,8.76648 L -113.456,8.65576
 L -113.593,8.52681 L -113.714,8.38167 L -113.814,8.22263 L -113.895,8.05219 L -113.953,7.87303 L -113.988,7.68799
 L -114,7.5 L -113.988,7.312 L -113.953,7.12695 L -113.895,6.9478 L -113.814,6.77736 L -113.714,6.61832
 L -113.593,6.47318 L -113.456,6.34422 L -113.304,6.23351 L -113.139,6.14275 L -112.964,6.07341 L -112.781,6.02657
 L -112.594,6.00294 L -112.406,6.00294 L -112.219,6.02657 L -112.036,6.07341 L -111.861,6.14275 L -111.696,6.23351
 L -111.544,6.34422 L -111.407,6.47318 L -111.286,6.61832 L -111.186,6.77736 L -111.105,6.9478 L -111.047,7.12695
 L -111.012,7.312 L -111,7.5 L -111.012,7.68799 L -111.047,7.87303 L -111.105,8.05219 L -111.186,8.22263
 L -111.286,8.38167 L -111.407,8.52681 L -111.544,8.65576 L -111.696,8.76648 L -111.861,8.85724 L -112.036,8.92657
 L -112.219,8.97342 L -112.406,8.99704 z
M 112.406,8.99704 L 112.219,8.97342 L 112.036,8.92657 L 111.861,8.85724 L 111.696,8.76648 L 111.544,8.65576
 L 111.407,8.52681 L 111.286,8.38167 L 111.186,8.22263 L 111.105,8.05219 L 111.047,7.87303 L 111.012,7.68799
 L 111,7.5 L 111.012,7.312 L 111.047,7.12695 L 111.105,6.9478 L 111.186,6.77736 L 111.286,6.61832
 L 111.407,6.47318 L 111.544,6.34422 L 111.696,6.23351 L 111.861,6.14275 L 112.036,6.07341 L 112.219,6.02657
 L 112.406,6.00294 L 112.594,6.00294 L 112.781,6.02657 L 112.964,6.07341 L 113.139,6.14275 L 113.304,6.23351
 L 113.456,6.34422 L 113.593,6.47318 L 113.714,6.61832 L 113.814,6.77736 L 113.895,6.9478 L 113.953,7.12695
 L 113.988,7.312 L 114,7.5 L 113.988,7.68799 L 113.953,7.87303 L 113.895,8.05219 L 113.814,8.22263
 L 113.714,8.38167 L 113.593,8.52681 L 113.456,8.65576 L 113.304,8.76648 L 113.139,8.85724 L 112.964,8.92657
 L 112.781,8.97342 L 112.594,8.99704 z
M 112.312,17.9941 L 111.938,17.9469 L 111.573,17.8532 L 111.223,17.7145 L 110.893,17.533 L 110.588,17.3115
 L 110.313,17.0536 L 110.073,16.7634 L 109.871,16.4453 L 109.711,16.1044 L 109.594,15.7461 L 109.524,15.376
 L 109.5,15 L 109.524,14.624 L 109.594,14.2539 L 109.711,13.8956 L 109.871,13.5547 L 110.073,13.2366
 L 110.313,12.9464 L 110.588,12.6884 L 110.893,12.467 L 111.223,12.2855 L 111.573,12.1468 L 111.938,12.0531
 L 112.312,12.0059 L 112.688,12.0059 L 113.062,12.0531 L 113.427,12.1468 L 113.777,12.2855 L 114.107,12.467
 L 114.412,12.6884 L 114.687,12.9464 L 114.927,13.2366 L 115.129,13.5547 L 115.289,13.8956 L 115.406,14.2539
 L 115.476,14.624 L 115.5,15 L 115.476,15.376 L 115.406,15.7461 L 115.289,16.1044 L 115.129,16.4453
 L 114.927,16.7634 L 114.687,17.0536 L 114.412,17.3115 L 114.107,17.533 L 113.777,17.7145 L 113.427,17.8532
 L 113.062,17.9469 L 112.688,17.9941 z
M -112.688,17.9941 L -113.062,17.9469 L -113.427,17.8532 L -113.777,17.7145 L -114.107,17.533 L -114.412,17.3115
 L -114.687,17.0536 L -114.927,16.7634 L -115.129,16.4453 L -115.289,16.1044 L -115.406,15.7461 L -115.476,15.376
 L -115.5,15 L -115.476,14.624 L -115.406,14.2539 L -115.289,13.8956 L -115.129,13.5547 L -114.927,13.2366
 L -114.687,12.9464 L -114.412,12.6884 L -114.107,12.467 L -113.777,12.2855 L -113.427,12.1468 L -113.062,12.0531
 L -112.688,12.0059 L -112.312,12.0059 L -111.938,12.0531 L -111.573,12.1468 L -111.223,12.2855 L -110.893,12.467
 L -110.588,12.6884 L -110.313,12.9464 L -110.073,13.2366 L -109.871,13.5547 L -109.711,13.8956 L -109.594,14.2539
 L -109.524,14.624 L -109.5,15 L -109.524,15.376 L -109.594,15.7461 L -109.711,16.1044 L -109.871,16.4453
 L -110.073,16.7634 L -110.313,17.0536 L -110.588,17.3115 L -110.893,17.533 L -111.223,17.7145 L -111.573,17.8532
 L -111.938,17.9469 L -112.312,17.9941 z
" stroke="black" fill="lightgray" stroke-width="0.5"/>
</svg>
