  0
SECTION
  2
BLOCKS
  0
ENDSEC
  0
SECTION
  2
ENTITIES
  0
LINE
  8
0
 10
130.437
 20
-29.4114
 11
131.045
 21
-29.2553
  0
LINE
  8
0
 10
131.045
 20
-29.2553
 11
131.629
 21
-29.0241
  0
LINE
  8
0
 10
131.629
 20
-29.0241
 11
132.179
 21
-28.7216
  0
LINE
  8
0
 10
132.179
 20
-28.7216
 11
132.687
 21
-28.3526
  0
LINE
  8
0
 10
132.687
 20
-28.3526
 11
133.145
 21
-27.9227
  0
LINE
  8
0
 10
133.145
 20
-27.9227
 11
133.545
 21
-27.4389
  0
LINE
  8
0
 10
133.545
 20
-27.4389
 11
133.882
 21
-26.9088
  0
LINE
  8
0
 10
133.882
 20
-26.9088
 11
134.149
 21
-26.3406
  0
LINE
  8
0
 10
134.149
 20
-26.3406
 11
134.343
 21
-25.7434
  0
LINE
  8
0
 10
134.343
 20
-25.7434
 11
134.461
 21
-25.1267
  0
LINE
  8
0
 10
134.461
 20
-25.1267
 11
134.5
 21
-24.5
  0
LINE
  8
0
 10
134.5
 20
-24.5
 11
134.5
 21
24.5
  0
LINE
  8
0
 10
134.5
 20
24.5
 11
134.461
 21
25.1267
  0
LINE
  8
0
 10
134.461
 20
25.1267
 11
134.343
 21
25.7434
  0
LINE
  8
0
 10
134.343
 20
25.7434
 11
134.149
 21
26.3406
  0
LINE
  8
0
 10
134.149
 20
26.3406
 11
133.882
 21
26.9088
  0
LINE
  8
0
 10
133.882
 20
26.9088
 11
133.545
 21
27.4389
  0
LINE
  8
0
 10
133.545
 20
27.4389
 11
133.145
 21
27.9227
  0
LINE
  8
0
 10
133.145
 20
27.9227
 11
132.687
 21
28.3526
  0
LINE
  8
0
 10
132.687
 20
28.3526
 11
132.179
 21
28.7216
  0
LINE
  8
0
 10
132.179
 20
28.7216
 11
131.629
 21
29.0241
  0
LINE
  8
0
 10
131.629
 20
29.0241
 11
131.045
 21
29.2553
  0
LINE
  8
0
 10
131.045
 20
29.2553
 11
130.437
 21
29.4114
  0
LINE
  8
0
 10
130.437
 20
29.4114
 11
129.814
 21
29.4901
  0
LINE
  8
0
 10
129.814
 20
29.4901
 11
-129.814
 21
29.4901
  0
LINE
  8
0
 10
-129.814
 20
29.4901
 11
-130.437
 21
29.4114
  0
LINE
  8
0
 10
-130.437
 20
29.4114
 11
-131.045
 21
29.2553
  0
LINE
  8
0
 10
-131.045
 20
29.2553
 11
-131.629
 21
29.0241
  0
LINE
  8
0
 10
-131.629
 20
29.0241
 11
-132.179
 21
28.7216
  0
LINE
  8
0
 10
-132.179
 20
28.7216
 11
-132.687
 21
28.3526
  0
LINE
  8
0
 10
-132.687
 20
28.3526
 11
-133.145
 21
27.9227
  0
LINE
  8
0
 10
-133.145
 20
27.9227
 11
-133.545
 21
27.4389
  0
LINE
  8
0
 10
-133.545
 20
27.4389
 11
-133.882
 21
26.9088
  0
LINE
  8
0
 10
-133.882
 20
26.9088
 11
-134.149
 21
26.3406
  0
LINE
  8
0
 10
-134.149
 20
26.3406
 11
-134.343
 21
25.7434
  0
LINE
  8
0
 10
-134.343
 20
25.7434
 11
-134.461
 21
25.1267
  0
LINE
  8
0
 10
-134.461
 20
25.1267
 11
-134.5
 21
24.5
  0
LINE
  8
0
 10
-134.5
 20
24.5
 11
-134.5
 21
-24.5
  0
LINE
  8
0
 10
-134.5
 20
-24.5
 11
-134.461
 21
-25.1267
  0
LINE
  8
0
 10
-134.461
 20
-25.1267
 11
-134.343
 21
-25.7434
  0
LINE
  8
0
 10
-134.343
 20
-25.7434
 11
-134.149
 21
-26.3406
  0
LINE
  8
0
 10
-134.149
 20
-26.3406
 11
-133.882
 21
-26.9088
  0
LINE
  8
0
 10
-133.882
 20
-26.9088
 11
-133.545
 21
-27.4389
  0
LINE
  8
0
 10
-133.545
 20
-27.4389
 11
-133.145
 21
-27.9227
  0
LINE
  8
0
 10
-133.145
 20
-27.9227
 11
-132.687
 21
-28.3526
  0
LINE
  8
0
 10
-132.687
 20
-28.3526
 11
-132.179
 21
-28.7216
  0
LINE
  8
0
 10
-132.179
 20
-28.7216
 11
-131.629
 21
-29.0241
  0
LINE
  8
0
 10
-131.629
 20
-29.0241
 11
-131.045
 21
-29.2553
  0
LINE
  8
0
 10
-131.045
 20
-29.2553
 11
-130.437
 21
-29.4114
  0
LINE
  8
0
 10
-130.437
 20
-29.4114
 11
-129.814
 21
-29.4901
  0
LINE
  8
0
 10
-129.814
 20
-29.4901
 11
129.814
 21
-29.4901
  0
LINE
  8
0
 10
129.814
 20
-29.4901
 11
130.437
 21
-29.4114
  0
LINE
  8
0
 10
-127.688
 20
19.5059
 11
-128.062
 21
19.5531
  0
LINE
  8
0
 10
-128.062
 20
19.5531
 11
-128.427
 21
19.6468
  0
LINE
  8
0
 10
-128.427
 20
19.6468
 11
-128.777
 21
19.7855
  0
LINE
  8
0
 10
-128.777
 20
19.7855
 11
-129.107
 21
19.967
  0
LINE
  8
0
 10
-129.107
 20
19.967
 11
-129.412
 21
20.1884
  0
LINE
  8
0
 10
-129.412
 20
20.1884
 11
-129.687
 21
20.4464
  0
LINE
  8
0
 10
-129.687
 20
20.4464
 11
-129.927
 21
20.7366
  0
LINE
  8
0
 10
-129.927
 20
20.7366
 11
-130.129
 21
21.0547
  0
LINE
  8
0
 10
-130.129
 20
21.0547
 11
-130.289
 21
21.3956
  0
LINE
  8
0
 10
-130.289
 20
21.3956
 11
-130.406
 21
21.7539
  0
LINE
  8
0
 10
-130.406
 20
21.7539
 11
-130.476
 21
22.124
  0
LINE
  8
0
 10
-130.476
 20
22.124
 11
-130.5
 21
22.5
  0
LINE
  8
0
 10
-130.5
 20
22.5
 11
-130.476
 21
22.876
  0
LINE
  8
0
 10
-130.476
 20
22.876
 11
-130.406
 21
23.2461
  0
LINE
  8
0
 10
-130.406
 20
23.2461
 11
-130.289
 21
23.6044
  0
LINE
  8
0
 10
-130.289
 20
23.6044
 11
-130.129
 21
23.9453
  0
LINE
  8
0
 10
-130.129
 20
23.9453
 11
-129.927
 21
24.2634
  0
LINE
  8
0
 10
-129.927
 20
24.2634
 11
-129.687
 21
24.5536
  0
LINE
  8
0
 10
-129.687
 20
24.5536
 11
-129.412
 21
24.8115
  0
LINE
  8
0
 10
-129.412
 20
24.8115
 11
-129.107
 21
25.033
  0
LINE
  8
0
 10
-129.107
 20
25.033
 11
-128.777
 21
25.2145
  0
LINE
  8
0
 10
-128.777
 20
25.2145
 11
-128.427
 21
25.3532
  0
LINE
  8
0
 10
-128.427
 20
25.3532
 11
-128.062
 21
25.4469
  0
LINE
  8
0
 10
-128.062
 20
25.4469
 11
-127.688
 21
25.4941
  0
LINE
  8
0
 10
-127.688
 20
25.4941
 11
-127.312
 21
25.4941
  0
LINE
  8
0
 10
-127.312
 20
25.4941
 11
-126.938
 21
25.4469
  0
LINE
  8
0
 10
-126.938
 20
25.4469
 11
-126.573
 21
25.3532
  0
LINE
  8
0
 10
-126.573
 20
25.3532
 11
-126.223
 21
25.2145
  0
LINE
  8
0
 10
-126.223
 20
25.2145
 11
-125.893
 21
25.033
  0
LINE
  8
0
 10
-125.893
 20
25.033
 11
-125.588
 21
24.8115
  0
LINE
  8
0
 10
-125.588
 20
24.8115
 11
-125.313
 21
24.5536
  0
LINE
  8
0
 10
-125.313
 20
24.5536
 11
-125.073
 21
24.2634
  0
LINE
  8
0
 10
-125.073
 20
24.2634
 11
-124.871
 21
23.9453
  0
LINE
  8
0
 10
-124.871
 20
23.9453
 11
-124.711
 21
23.6044
  0
LINE
  8
0
 10
-124.711
 20
23.6044
 11
-124.594
 21
23.2461
  0
LINE
  8
0
 10
-124.594
 20
23.2461
 11
-124.524
 21
22.876
  0
LINE
  8
0
 10
-124.524
 20
22.876
 11
-124.5
 21
22.5
  0
LINE
  8
0
 10
-124.5
 20
22.5
 11
-124.524
 21
22.124
  0
LINE
  8
0
 10
-124.524
 20
22.124
 11
-124.594
 21
21.7539
  0
LINE
  8
0
 10
-124.594
 20
21.7539
 11
-124.711
 21
21.3956
  0
LINE
  8
0
 10
-124.711
 20
21.3956
 11
-124.871
 21
21.0547
  0
LINE
  8
0
 10
-124.871
 20
21.0547
 11
-125.073
 21
20.7366
  0
LINE
  8
0
 10
-125.073
 20
20.7366
 11
-125.313
 21
20.4464
  0
LINE
  8
0
 10
-125.313
 20
20.4464
 11
-125.588
 21
20.1884
  0
LINE
  8
0
 10
-125.588
 20
20.1884
 11
-125.893
 21
19.967
  0
LINE
  8
0
 10
-125.893
 20
19.967
 11
-126.223
 21
19.7855
  0
LINE
  8
0
 10
-126.223
 20
19.7855
 11
-126.573
 21
19.6468
  0
LINE
  8
0
 10
-126.573
 20
19.6468
 11
-126.938
 21
19.5531
  0
LINE
  8
0
 10
-126.938
 20
19.5531
 11
-127.312
 21
19.5059
  0
LINE
  8
0
 10
-127.312
 20
19.5059
 11
-127.688
 21
19.5059
  0
LINE
  8
0
 10
127.312
 20
19.5059
 11
126.938
 21
19.5531
  0
LINE
  8
0
 10
126.938
 20
19.5531
 11
126.573
 21
19.6468
  0
LINE
  8
0
 10
126.573
 20
19.6468
 11
126.223
 21
19.7855
  0
LINE
  8
0
 10
126.223
 20
19.7855
 11
125.893
 21
19.967
  0
LINE
  8
0
 10
125.893
 20
19.967
 11
125.588
 21
20.1884
  0
LINE
  8
0
 10
125.588
 20
20.1884
 11
125.313
 21
20.4464
  0
LINE
  8
0
 10
125.313
 20
20.4464
 11
125.073
 21
20.7366
  0
LINE
  8
0
 10
125.073
 20
20.7366
 11
124.871
 21
21.0547
  0
LINE
  8
0
 10
124.871
 20
21.0547
 11
124.711
 21
21.3956
  0
LINE
  8
0
 10
124.711
 20
21.3956
 11
124.594
 21
21.7539
  0
LINE
  8
0
 10
124.594
 20
21.7539
 11
124.524
 21
22.124
  0
LINE
  8
0
 10
124.524
 20
22.124
 11
124.5
 21
22.5
  0
LINE
  8
0
 10
124.5
 20
22.5
 11
124.524
 21
22.876
  0
LINE
  8
0
 10
124.524
 20
22.876
 11
124.594
 21
23.2461
  0
LINE
  8
0
 10
124.594
 20
23.2461
 11
124.711
 21
23.6044
  0
LINE
  8
0
 10
124.711
 20
23.6044
 11
124.871
 21
23.9453
  0
LINE
  8
0
 10
124.871
 20
23.9453
 11
125.073
 21
24.2634
  0
LINE
  8
0
 10
125.073
 20
24.2634
 11
125.313
 21
24.5536
  0
LINE
  8
0
 10
125.313
 20
24.5536
 11
125.588
 21
24.8115
  0
LINE
  8
0
 10
125.588
 20
24.8115
 11
125.893
 21
25.033
  0
LINE
  8
0
 10
125.893
 20
25.033
 11
126.223
 21
25.2145
  0
LINE
  8
0
 10
126.223
 20
25.2145
 11
126.573
 21
25.3532
  0
LINE
  8
0
 10
126.573
 20
25.3532
 11
126.938
 21
25.4469
  0
LINE
  8
0
 10
126.938
 20
25.4469
 11
127.312
 21
25.4941
  0
LINE
  8
0
 10
127.312
 20
25.4941
 11
127.688
 21
25.4941
  0
LINE
  8
0
 10
127.688
 20
25.4941
 11
128.062
 21
25.4469
  0
LINE
  8
0
 10
128.062
 20
25.4469
 11
128.427
 21
25.3532
  0
LINE
  8
0
 10
128.427
 20
25.3532
 11
128.777
 21
25.2145
  0
LINE
  8
0
 10
128.777
 20
25.2145
 11
129.107
 21
25.033
  0
LINE
  8
0
 10
129.107
 20
25.033
 11
129.412
 21
24.8115
  0
LINE
  8
0
 10
129.412
 20
24.8115
 11
129.687
 21
24.5536
  0
LINE
  8
0
 10
129.687
 20
24.5536
 11
129.927
 21
24.2634
  0
LINE
  8
0
 10
129.927
 20
24.2634
 11
130.129
 21
23.9453
  0
LINE
  8
0
 10
130.129
 20
23.9453
 11
130.289
 21
23.6044
  0
LINE
  8
0
 10
130.289
 20
23.6044
 11
130.406
 21
23.2461
  0
LINE
  8
0
 10
130.406
 20
23.2461
 11
130.476
 21
22.876
  0
LINE
  8
0
 10
130.476
 20
22.876
 11
130.5
 21
22.5
  0
LINE
  8
0
 10
130.5
 20
22.5
 11
130.476
 21
22.124
  0
LINE
  8
0
 10
130.476
 20
22.124
 11
130.406
 21
21.7539
  0
LINE
  8
0
 10
130.406
 20
21.7539
 11
130.289
 21
21.3956
  0
LINE
  8
0
 10
130.289
 20
21.3956
 11
130.129
 21
21.0547
  0
LINE
  8
0
 10
130.129
 20
21.0547
 11
129.927
 21
20.7366
  0
LINE
  8
0
 10
129.927
 20
20.7366
 11
129.687
 21
20.4464
  0
LINE
  8
0
 10
129.687
 20
20.4464
 11
129.412
 21
20.1884
  0
LINE
  8
0
 10
129.412
 20
20.1884
 11
129.107
 21
19.967
  0
LINE
  8
0
 10
129.107
 20
19.967
 11
128.777
 21
19.7855
  0
LINE
  8
0
 10
128.777
 20
19.7855
 11
128.427
 21
19.6468
  0
LINE
  8
0
 10
128.427
 20
19.6468
 11
128.062
 21
19.5531
  0
LINE
  8
0
 10
128.062
 20
19.5531
 11
127.688
 21
19.5059
  0
LINE
  8
0
 10
127.688
 20
19.5059
 11
127.312
 21
19.5059
  0
LINE
  8
0
 10
-50.3814
 20
-21.9566
 11
-53.1224
 21
-21.6103
  0
LINE
  8
0
 10
-53.1224
 20
-21.6103
 11
-55.7984
 21
-20.9232
  0
LINE
  8
0
 10
-55.7984
 20
-20.9232
 11
-58.3671
 21
-19.9062
  0
LINE
  8
0
 10
-58.3671
 20
-19.9062
 11
-60.7882
 21
-18.5752
  0
LINE
  8
0
 10
-60.7882
 20
-18.5752
 11
-63.0233
 21
-16.9513
  0
LINE
  8
0
 10
-63.0233
 20
-16.9513
 11
-65.0373
 21
-15.06
  0
LINE
  8
0
 10
-65.0373
 20
-15.06
 11
-66.7984
 21
-12.9313
  0
LINE
  8
0
 10
-66.7984
 20
-12.9313
 11
-68.2787
 21
-10.5986
  0
LINE
  8
0
 10
-68.2787
 20
-10.5986
 11
-69.4551
 21
-8.09874
  0
LINE
  8
0
 10
-69.4551
 20
-8.09874
 11
-70.3088
 21
-5.47118
  0
LINE
  8
0
 10
-70.3088
 20
-5.47118
 11
-70.8265
 21
-2.75732
  0
LINE
  8
0
 10
-70.8265
 20
-2.75732
 11
-71
 21
0
  0
LINE
  8
0
 10
-71
 20
0
 11
-70.8265
 21
2.75732
  0
LINE
  8
0
 10
-70.8265
 20
2.75732
 11
-70.3088
 21
5.47118
  0
LINE
  8
0
 10
-70.3088
 20
5.47118
 11
-69.4551
 21
8.09874
  0
LINE
  8
0
 10
-69.4551
 20
8.09874
 11
-68.2787
 21
10.5986
  0
LINE
  8
0
 10
-68.2787
 20
10.5986
 11
-66.7984
 21
12.9313
  0
LINE
  8
0
 10
-66.7984
 20
12.9313
 11
-65.0373
 21
15.06
  0
LINE
  8
0
 10
-65.0373
 20
15.06
 11
-63.0233
 21
16.9513
  0
LINE
  8
0
 10
-63.0233
 20
16.9513
 11
-60.7882
 21
18.5752
  0
LINE
  8
0
 10
-60.7882
 20
18.5752
 11
-58.3671
 21
19.9062
  0
LINE
  8
0
 10
-58.3671
 20
19.9062
 11
-55.7984
 21
20.9232
  0
LINE
  8
0
 10
-55.7984
 20
20.9232
 11
-53.1224
 21
21.6103
  0
LINE
  8
0
 10
-53.1224
 20
21.6103
 11
-50.3814
 21
21.9566
  0
LINE
  8
0
 10
-50.3814
 20
21.9566
 11
-47.6186
 21
21.9566
  0
LINE
  8
0
 10
-47.6186
 20
21.9566
 11
-44.8776
 21
21.6103
  0
LINE
  8
0
 10
-44.8776
 20
21.6103
 11
-42.2016
 21
20.9232
  0
LINE
  8
0
 10
-42.2016
 20
20.9232
 11
-39.6328
 21
19.9062
  0
LINE
  8
0
 10
-39.6328
 20
19.9062
 11
-37.2118
 21
18.5752
  0
LINE
  8
0
 10
-37.2118
 20
18.5752
 11
-34.9767
 21
16.9513
  0
LINE
  8
0
 10
-34.9767
 20
16.9513
 11
-32.9627
 21
15.06
  0
LINE
  8
0
 10
-32.9627
 20
15.06
 11
-31.2016
 21
12.9313
  0
LINE
  8
0
 10
-31.2016
 20
12.9313
 11
-29.7213
 21
10.5986
  0
LINE
  8
0
 10
-29.7213
 20
10.5986
 11
-28.5449
 21
8.09874
  0
LINE
  8
0
 10
-28.5449
 20
8.09874
 11
-27.6912
 21
5.47118
  0
LINE
  8
0
 10
-27.6912
 20
5.47118
 11
-27.1735
 21
2.75732
  0
LINE
  8
0
 10
-27.1735
 20
2.75732
 11
-27
 21
0
  0
LINE
  8
0
 10
-27
 20
0
 11
-27.1735
 21
-2.75732
  0
LINE
  8
0
 10
-27.1735
 20
-2.75732
 11
-27.6912
 21
-5.47118
  0
LINE
  8
0
 10
-27.6912
 20
-5.47118
 11
-28.5449
 21
-8.09874
  0
LINE
  8
0
 10
-28.5449
 20
-8.09874
 11
-29.7213
 21
-10.5986
  0
LINE
  8
0
 10
-29.7213
 20
-10.5986
 11
-31.2016
 21
-12.9313
  0
LINE
  8
0
 10
-31.2016
 20
-12.9313
 11
-32.9627
 21
-15.06
  0
LINE
  8
0
 10
-32.9627
 20
-15.06
 11
-34.9767
 21
-16.9513
  0
LINE
  8
0
 10
-34.9767
 20
-16.9513
 11
-37.2118
 21
-18.5752
  0
LINE
  8
0
 10
-37.2118
 20
-18.5752
 11
-39.6328
 21
-19.9062
  0
LINE
  8
0
 10
-39.6328
 20
-19.9062
 11
-42.2016
 21
-20.9232
  0
LINE
  8
0
 10
-42.2016
 20
-20.9232
 11
-44.8776
 21
-21.6103
  0
LINE
  8
0
 10
-44.8776
 20
-21.6103
 11
-47.6186
 21
-21.9566
  0
LINE
  8
0
 10
-47.6186
 20
-21.9566
 11
-50.3814
 21
-21.9566
  0
LINE
  8
0
 10
-1.38138
 20
-21.9566
 11
-4.12238
 21
-21.6103
  0
LINE
  8
0
 10
-4.12238
 20
-21.6103
 11
-6.79837
 21
-20.9232
  0
LINE
  8
0
 10
-6.79837
 20
-20.9232
 11
-9.36714
 21
-19.9062
  0
LINE
  8
0
 10
-9.36714
 20
-19.9062
 11
-11.7882
 21
-18.5752
  0
LINE
  8
0
 10
-11.7882
 20
-18.5752
 11
-14.0233
 21
-16.9513
  0
LINE
  8
0
 10
-14.0233
 20
-16.9513
 11
-16.0373
 21
-15.06
  0
LINE
  8
0
 10
-16.0373
 20
-15.06
 11
-17.7984
 21
-12.9313
  0
LINE
  8
0
 10
-17.7984
 20
-12.9313
 11
-19.2787
 21
-10.5986
  0
LINE
  8
0
 10
-19.2787
 20
-10.5986
 11
-20.4551
 21
-8.09874
  0
LINE
  8
0
 10
-20.4551
 20
-8.09874
 11
-21.3088
 21
-5.47118
  0
LINE
  8
0
 10
-21.3088
 20
-5.47118
 11
-21.8265
 21
-2.75732
  0
LINE
  8
0
 10
-21.8265
 20
-2.75732
 11
-22
 21
0
  0
LINE
  8
0
 10
-22
 20
0
 11
-21.8265
 21
2.75732
  0
LINE
  8
0
 10
-21.8265
 20
2.75732
 11
-21.3088
 21
5.47118
  0
LINE
  8
0
 10
-21.3088
 20
5.47118
 11
-20.4551
 21
8.09874
  0
LINE
  8
0
 10
-20.4551
 20
8.09874
 11
-19.2787
 21
10.5986
  0
LINE
  8
0
 10
-19.2787
 20
10.5986
 11
-17.7984
 21
12.9313
  0
LINE
  8
0
 10
-17.7984
 20
12.9313
 11
-16.0373
 21
15.06
  0
LINE
  8
0
 10
-16.0373
 20
15.06
 11
-14.0233
 21
16.9513
  0
LINE
  8
0
 10
-14.0233
 20
16.9513
 11
-11.7882
 21
18.5752
  0
LINE
  8
0
 10
-11.7882
 20
18.5752
 11
-9.36714
 21
19.9062
  0
LINE
  8
0
 10
-9.36714
 20
19.9062
 11
-6.79837
 21
20.9232
  0
LINE
  8
0
 10
-6.79837
 20
20.9232
 11
-4.12238
 21
21.6103
  0
LINE
  8
0
 10
-4.12238
 20
21.6103
 11
-1.38138
 21
21.9566
  0
LINE
  8
0
 10
-1.38138
 20
21.9566
 11
1.38138
 21
21.9566
  0
LINE
  8
0
 10
1.38138
 20
21.9566
 11
4.12238
 21
21.6103
  0
LINE
  8
0
 10
4.12238
 20
21.6103
 11
6.79837
 21
20.9232
  0
LINE
  8
0
 10
6.79837
 20
20.9232
 11
9.36714
 21
19.9062
  0
LINE
  8
0
 10
9.36714
 20
19.9062
 11
11.7882
 21
18.5752
  0
LINE
  8
0
 10
11.7882
 20
18.5752
 11
14.0233
 21
16.9513
  0
LINE
  8
0
 10
14.0233
 20
16.9513
 11
16.0373
 21
15.06
  0
LINE
  8
0
 10
16.0373
 20
15.06
 11
17.7984
 21
12.9313
  0
LINE
  8
0
 10
17.7984
 20
12.9313
 11
19.2787
 21
10.5986
  0
LINE
  8
0
 10
19.2787
 20
10.5986
 11
20.4551
 21
8.09874
  0
LINE
  8
0
 10
20.4551
 20
8.09874
 11
21.3088
 21
5.47118
  0
LINE
  8
0
 10
21.3088
 20
5.47118
 11
21.8265
 21
2.75732
  0
LINE
  8
0
 10
21.8265
 20
2.75732
 11
22
 21
0
  0
LINE
  8
0
 10
22
 20
0
 11
21.8265
 21
-2.75732
  0
LINE
  8
0
 10
21.8265
 20
-2.75732
 11
21.3088
 21
-5.47118
  0
LINE
  8
0
 10
21.3088
 20
-5.47118
 11
20.4551
 21
-8.09874
  0
LINE
  8
0
 10
20.4551
 20
-8.09874
 11
19.2787
 21
-10.5986
  0
LINE
  8
0
 10
19.2787
 20
-10.5986
 11
17.7984
 21
-12.9313
  0
LINE
  8
0
 10
17.7984
 20
-12.9313
 11
16.0373
 21
-15.06
  0
LINE
  8
0
 10
16.0373
 20
-15.06
 11
14.0233
 21
-16.9513
  0
LINE
  8
0
 10
14.0233
 20
-16.9513
 11
11.7882
 21
-18.5752
  0
LINE
  8
0
 10
11.7882
 20
-18.5752
 11
9.36714
 21
-19.9062
  0
LINE
  8
0
 10
9.36714
 20
-19.9062
 11
6.79837
 21
-20.9232
  0
LINE
  8
0
 10
6.79837
 20
-20.9232
 11
4.12238
 21
-21.6103
  0
LINE
  8
0
 10
4.12238
 20
-21.6103
 11
1.38138
 21
-21.9566
  0
LINE
  8
0
 10
1.38138
 20
-21.9566
 11
-1.38138
 21
-21.9566
  0
LINE
  8
0
 10
47.6186
 20
-21.9566
 11
44.8776
 21
-21.6103
  0
LINE
  8
0
 10
44.8776
 20
-21.6103
 11
42.2016
 21
-20.9232
  0
LINE
  8
0
 10
42.2016
 20
-20.9232
 11
39.6328
 21
-19.9062
  0
LINE
  8
0
 10
39.6328
 20
-19.9062
 11
37.2118
 21
-18.5752
  0
LINE
  8
0
 10
37.2118
 20
-18.5752
 11
34.9767
 21
-16.9513
  0
LINE
  8
0
 10
34.9767
 20
-16.9513
 11
32.9627
 21
-15.06
  0
LINE
  8
0
 10
32.9627
 20
-15.06
 11
31.2016
 21
-12.9313
  0
LINE
  8
0
 10
31.2016
 20
-12.9313
 11
29.7213
 21
-10.5986
  0
LINE
  8
0
 10
29.7213
 20
-10.5986
 11
28.5449
 21
-8.09874
  0
LINE
  8
0
 10
28.5449
 20
-8.09874
 11
27.6912
 21
-5.47118
  0
LINE
  8
0
 10
27.6912
 20
-5.47118
 11
27.1735
 21
-2.75732
  0
LINE
  8
0
 10
27.1735
 20
-2.75732
 11
27
 21
0
  0
LINE
  8
0
 10
27
 20
0
 11
27.1735
 21
2.75732
  0
LINE
  8
0
 10
27.1735
 20
2.75732
 11
27.6912
 21
5.47118
  0
LINE
  8
0
 10
27.6912
 20
5.47118
 11
28.5449
 21
8.09874
  0
LINE
  8
0
 10
28.5449
 20
8.09874
 11
29.7213
 21
10.5986
  0
LINE
  8
0
 10
29.7213
 20
10.5986
 11
31.2016
 21
12.9313
  0
LINE
  8
0
 10
31.2016
 20
12.9313
 11
32.9627
 21
15.06
  0
LINE
  8
0
 10
32.9627
 20
15.06
 11
34.9767
 21
16.9513
  0
LINE
  8
0
 10
34.9767
 20
16.9513
 11
37.2118
 21
18.5752
  0
LINE
  8
0
 10
37.2118
 20
18.5752
 11
39.6328
 21
19.9062
  0
LINE
  8
0
 10
39.6328
 20
19.9062
 11
42.2016
 21
20.9232
  0
LINE
  8
0
 10
42.2016
 20
20.9232
 11
44.8776
 21
21.6103
  0
LINE
  8
0
 10
44.8776
 20
21.6103
 11
47.6186
 21
21.9566
  0
LINE
  8
0
 10
47.6186
 20
21.9566
 11
50.3814
 21
21.9566
  0
LINE
  8
0
 10
50.3814
 20
21.9566
 11
53.1224
 21
21.6103
  0
LINE
  8
0
 10
53.1224
 20
21.6103
 11
55.7984
 21
20.9232
  0
LINE
  8
0
 10
55.7984
 20
20.9232
 11
58.3671
 21
19.9062
  0
LINE
  8
0
 10
58.3671
 20
19.9062
 11
60.7882
 21
18.5752
  0
LINE
  8
0
 10
60.7882
 20
18.5752
 11
63.0233
 21
16.9513
  0
LINE
  8
0
 10
63.0233
 20
16.9513
 11
65.0373
 21
15.06
  0
LINE
  8
0
 10
65.0373
 20
15.06
 11
66.7984
 21
12.9313
  0
LINE
  8
0
 10
66.7984
 20
12.9313
 11
68.2787
 21
10.5986
  0
LINE
  8
0
 10
68.2787
 20
10.5986
 11
69.4551
 21
8.09874
  0
LINE
  8
0
 10
69.4551
 20
8.09874
 11
70.3088
 21
5.47118
  0
LINE
  8
0
 10
70.3088
 20
5.47118
 11
70.8265
 21
2.75732
  0
LINE
  8
0
 10
70.8265
 20
2.75732
 11
71
 21
0
  0
LINE
  8
0
 10
71
 20
0
 11
70.8265
 21
-2.75732
  0
LINE
  8
0
 10
70.8265
 20
-2.75732
 11
70.3088
 21
-5.47118
  0
LINE
  8
0
 10
70.3088
 20
-5.47118
 11
69.4551
 21
-8.09874
  0
LINE
  8
0
 10
69.4551
 20
-8.09874
 11
68.2787
 21
-10.5986
  0
LINE
  8
0
 10
68.2787
 20
-10.5986
 11
66.7984
 21
-12.9313
  0
LINE
  8
0
 10
66.7984
 20
-12.9313
 11
65.0373
 21
-15.06
  0
LINE
  8
0
 10
65.0373
 20
-15.06
 11
63.0233
 21
-16.9513
  0
LINE
  8
0
 10
63.0233
 20
-16.9513
 11
60.7882
 21
-18.5752
  0
LINE
  8
0
 10
60.7882
 20
-18.5752
 11
58.3671
 21
-19.9062
  0
LINE
  8
0
 10
58.3671
 20
-19.9062
 11
55.7984
 21
-20.9232
  0
LINE
  8
0
 10
55.7984
 20
-20.9232
 11
53.1224
 21
-21.6103
  0
LINE
  8
0
 10
53.1224
 20
-21.6103
 11
50.3814
 21
-21.9566
  0
LINE
  8
0
 10
50.3814
 20
-21.9566
 11
47.6186
 21
-21.9566
  0
LINE
  8
0
 10
96.6186
 20
-21.9566
 11
93.8776
 21
-21.6103
  0
LINE
  8
0
 10
93.8776
 20
-21.6103
 11
91.2016
 21
-20.9232
  0
LINE
  8
0
 10
91.2016
 20
-20.9232
 11
88.6329
 21
-19.9062
  0
LINE
  8
0
 10
88.6329
 20
-19.9062
 11
86.2118
 21
-18.5752
  0
LINE
  8
0
 10
86.2118
 20
-18.5752
 11
83.9767
 21
-16.9513
  0
LINE
  8
0
 10
83.9767
 20
-16.9513
 11
81.9627
 21
-15.06
  0
LINE
  8
0
 10
81.9627
 20
-15.06
 11
80.2016
 21
-12.9313
  0
LINE
  8
0
 10
80.2016
 20
-12.9313
 11
78.7213
 21
-10.5986
  0
LINE
  8
0
 10
78.7213
 20
-10.5986
 11
77.5449
 21
-8.09874
  0
LINE
  8
0
 10
77.5449
 20
-8.09874
 11
76.6912
 21
-5.47118
  0
LINE
  8
0
 10
76.6912
 20
-5.47118
 11
76.1735
 21
-2.75732
  0
LINE
  8
0
 10
76.1735
 20
-2.75732
 11
76
 21
0
  0
LINE
  8
0
 10
76
 20
0
 11
76.1735
 21
2.75732
  0
LINE
  8
0
 10
76.1735
 20
2.75732
 11
76.6912
 21
5.47118
  0
LINE
  8
0
 10
76.6912
 20
5.47118
 11
77.5449
 21
8.09874
  0
LINE
  8
0
 10
77.5449
 20
8.09874
 11
78.7213
 21
10.5986
  0
LINE
  8
0
 10
78.7213
 20
10.5986
 11
80.2016
 21
12.9313
  0
LINE
  8
0
 10
80.2016
 20
12.9313
 11
81.9627
 21
15.06
  0
LINE
  8
0
 10
81.9627
 20
15.06
 11
83.9767
 21
16.9513
  0
LINE
  8
0
 10
83.9767
 20
16.9513
 11
86.2118
 21
18.5752
  0
LINE
  8
0
 10
86.2118
 20
18.5752
 11
88.6329
 21
19.9062
  0
LINE
  8
0
 10
88.6329
 20
19.9062
 11
91.2016
 21
20.9232
  0
LINE
  8
0
 10
91.2016
 20
20.9232
 11
93.8776
 21
21.6103
  0
LINE
  8
0
 10
93.8776
 20
21.6103
 11
96.6186
 21
21.9566
  0
LINE
  8
0
 10
96.6186
 20
21.9566
 11
99.3814
 21
21.9566
  0
LINE
  8
0
 10
99.3814
 20
21.9566
 11
102.122
 21
21.6103
  0
LINE
  8
0
 10
102.122
 20
21.6103
 11
104.798
 21
20.9232
  0
LINE
  8
0
 10
104.798
 20
20.9232
 11
107.367
 21
19.9062
  0
LINE
  8
0
 10
107.367
 20
19.9062
 11
109.788
 21
18.5752
  0
LINE
  8
0
 10
109.788
 20
18.5752
 11
112.023
 21
16.9513
  0
LINE
  8
0
 10
112.023
 20
16.9513
 11
114.037
 21
15.06
  0
LINE
  8
0
 10
114.037
 20
15.06
 11
115.798
 21
12.9313
  0
LINE
  8
0
 10
115.798
 20
12.9313
 11
117.279
 21
10.5986
  0
LINE
  8
0
 10
117.279
 20
10.5986
 11
118.455
 21
8.09874
  0
LINE
  8
0
 10
118.455
 20
8.09874
 11
119.309
 21
5.47118
  0
LINE
  8
0
 10
119.309
 20
5.47118
 11
119.827
 21
2.75732
  0
LINE
  8
0
 10
119.827
 20
2.75732
 11
120
 21
0
  0
LINE
  8
0
 10
120
 20
0
 11
119.827
 21
-2.75732
  0
LINE
  8
0
 10
119.827
 20
-2.75732
 11
119.309
 21
-5.47118
  0
LINE
  8
0
 10
119.309
 20
-5.47118
 11
118.455
 21
-8.09874
  0
LINE
  8
0
 10
118.455
 20
-8.09874
 11
117.279
 21
-10.5986
  0
LINE
  8
0
 10
117.279
 20
-10.5986
 11
115.798
 21
-12.9313
  0
LINE
  8
0
 10
115.798
 20
-12.9313
 11
114.037
 21
-15.06
  0
LINE
  8
0
 10
114.037
 20
-15.06
 11
112.023
 21
-16.9513
  0
LINE
  8
0
 10
112.023
 20
-16.9513
 11
109.788
 21
-18.5752
  0
LINE
  8
0
 10
109.788
 20
-18.5752
 11
107.367
 21
-19.9062
  0
LINE
  8
0
 10
107.367
 20
-19.9062
 11
104.798
 21
-20.9232
  0
LINE
  8
0
 10
104.798
 20
-20.9232
 11
102.122
 21
-21.6103
  0
LINE
  8
0
 10
102.122
 20
-21.6103
 11
99.3814
 21
-21.9566
  0
LINE
  8
0
 10
99.3814
 20
-21.9566
 11
96.6186
 21
-21.9566
  0
LINE
  8
0
 10
-99.3814
 20
-21.9566
 11
-102.122
 21
-21.6103
  0
LINE
  8
0
 10
-102.122
 20
-21.6103
 11
-104.798
 21
-20.9232
  0
LINE
  8
0
 10
-104.798
 20
-20.9232
 11
-107.367
 21
-19.9062
  0
LINE
  8
0
 10
-107.367
 20
-19.9062
 11
-109.788
 21
-18.5752
  0
LINE
  8
0
 10
-109.788
 20
-18.5752
 11
-112.023
 21
-16.9513
  0
LINE
  8
0
 10
-112.023
 20
-16.9513
 11
-114.037
 21
-15.06
  0
LINE
  8
0
 10
-114.037
 20
-15.06
 11
-115.798
 21
-12.9313
  0
LINE
  8
0
 10
-115.798
 20
-12.9313
 11
-117.279
 21
-10.5986
  0
LINE
  8
0
 10
-117.279
 20
-10.5986
 11
-118.455
 21
-8.09874
  0
LINE
  8
0
 10
-118.455
 20
-8.09874
 11
-119.309
 21
-5.47118
  0
LINE
  8
0
 10
-119.309
 20
-5.47118
 11
-119.827
 21
-2.75732
  0
LINE
  8
0
 10
-119.827
 20
-2.75732
 11
-120
 21
0
  0
LINE
  8
0
 10
-120
 20
0
 11
-119.827
 21
2.75732
  0
LINE
  8
0
 10
-119.827
 20
2.75732
 11
-119.309
 21
5.47118
  0
LINE
  8
0
 10
-119.309
 20
5.47118
 11
-118.455
 21
8.09874
  0
LINE
  8
0
 10
-118.455
 20
8.09874
 11
-117.279
 21
10.5986
  0
LINE
  8
0
 10
-117.279
 20
10.5986
 11
-115.798
 21
12.9313
  0
LINE
  8
0
 10
-115.798
 20
12.9313
 11
-114.037
 21
15.06
  0
LINE
  8
0
 10
-114.037
 20
15.06
 11
-112.023
 21
16.9513
  0
LINE
  8
0
 10
-112.023
 20
16.9513
 11
-109.788
 21
18.5752
  0
LINE
  8
0
 10
-109.788
 20
18.5752
 11
-107.367
 21
19.9062
  0
LINE
  8
0
 10
-107.367
 20
19.9062
 11
-104.798
 21
20.9232
  0
LINE
  8
0
 10
-104.798
 20
20.9232
 11
-102.122
 21
21.6103
  0
LINE
  8
0
 10
-102.122
 20
21.6103
 11
-99.3814
 21
21.9566
  0
LINE
  8
0
 10
-99.3814
 20
21.9566
 11
-96.6186
 21
21.9566
  0
LINE
  8
0
 10
-96.6186
 20
21.9566
 11
-93.8776
 21
21.6103
  0
LINE
  8
0
 10
-93.8776
 20
21.6103
 11
-91.2016
 21
20.9232
  0
LINE
  8
0
 10
-91.2016
 20
20.9232
 11
-88.6329
 21
19.9062
  0
LINE
  8
0
 10
-88.6329
 20
19.9062
 11
-86.2118
 21
18.5752
  0
LINE
  8
0
 10
-86.2118
 20
18.5752
 11
-83.9767
 21
16.9513
  0
LINE
  8
0
 10
-83.9767
 20
16.9513
 11
-81.9627
 21
15.06
  0
LINE
  8
0
 10
-81.9627
 20
15.06
 11
-80.2016
 21
12.9313
  0
LINE
  8
0
 10
-80.2016
 20
12.9313
 11
-78.7213
 21
10.5986
  0
LINE
  8
0
 10
-78.7213
 20
10.5986
 11
-77.5449
 21
8.09874
  0
LINE
  8
0
 10
-77.5449
 20
8.09874
 11
-76.6912
 21
5.47118
  0
LINE
  8
0
 10
-76.6912
 20
5.47118
 11
-76.1735
 21
2.75732
  0
LINE
  8
0
 10
-76.1735
 20
2.75732
 11
-76
 21
0
  0
LINE
  8
0
 10
-76
 20
0
 11
-76.1735
 21
-2.75732
  0
LINE
  8
0
 10
-76.1735
 20
-2.75732
 11
-76.6912
 21
-5.47118
  0
LINE
  8
0
 10
-76.6912
 20
-5.47118
 11
-77.5449
 21
-8.09874
  0
LINE
  8
0
 10
-77.5449
 20
-8.09874
 11
-78.7213
 21
-10.5986
  0
LINE
  8
0
 10
-78.7213
 20
-10.5986
 11
-80.2016
 21
-12.9313
  0
LINE
  8
0
 10
-80.2016
 20
-12.9313
 11
-81.9627
 21
-15.06
  0
LINE
  8
0
 10
-81.9627
 20
-15.06
 11
-83.9767
 21
-16.9513
  0
LINE
  8
0
 10
-83.9767
 20
-16.9513
 11
-86.2118
 21
-18.5752
  0
LINE
  8
0
 10
-86.2118
 20
-18.5752
 11
-88.6329
 21
-19.9062
  0
LINE
  8
0
 10
-88.6329
 20
-19.9062
 11
-91.2016
 21
-20.9232
  0
LINE
  8
0
 10
-91.2016
 20
-20.9232
 11
-93.8776
 21
-21.6103
  0
LINE
  8
0
 10
-93.8776
 20
-21.6103
 11
-96.6186
 21
-21.9566
  0
LINE
  8
0
 10
-96.6186
 20
-21.9566
 11
-99.3814
 21
-21.9566
  0
LINE
  8
0
 10
-127.594
 20
13.5029
 11
-127.781
 21
13.5266
  0
LINE
  8
0
 10
-127.781
 20
13.5266
 11
-127.964
 21
13.5734
  0
LINE
  8
0
 10
-127.964
 20
13.5734
 11
-128.139
 21
13.6427
  0
LINE
  8
0
 10
-128.139
 20
13.6427
 11
-128.304
 21
13.7335
  0
LINE
  8
0
 10
-128.304
 20
13.7335
 11
-128.456
 21
13.8442
  0
LINE
  8
0
 10
-128.456
 20
13.8442
 11
-128.593
 21
13.9732
  0
LINE
  8
0
 10
-128.593
 20
13.9732
 11
-128.714
 21
14.1183
  0
LINE
  8
0
 10
-128.714
 20
14.1183
 11
-128.814
 21
14.2774
  0
LINE
  8
0
 10
-128.814
 20
14.2774
 11
-128.895
 21
14.4478
  0
LINE
  8
0
 10
-128.895
 20
14.4478
 11
-128.953
 21
14.627
  0
LINE
  8
0
 10
-128.953
 20
14.627
 11
-128.988
 21
14.812
  0
LINE
  8
0
 10
-128.988
 20
14.812
 11
-129
 21
15
  0
LINE
  8
0
 10
-129
 20
15
 11
-128.988
 21
15.188
  0
LINE
  8
0
 10
-128.988
 20
15.188
 11
-128.953
 21
15.373
  0
LINE
  8
0
 10
-128.953
 20
15.373
 11
-128.895
 21
15.5522
  0
LINE
  8
0
 10
-128.895
 20
15.5522
 11
-128.814
 21
15.7226
  0
LINE
  8
0
 10
-128.814
 20
15.7226
 11
-128.714
 21
15.8817
  0
LINE
  8
0
 10
-128.714
 20
15.8817
 11
-128.593
 21
16.0268
  0
LINE
  8
0
 10
-128.593
 20
16.0268
 11
-128.456
 21
16.1558
  0
LINE
  8
0
 10
-128.456
 20
16.1558
 11
-128.304
 21
16.2665
  0
LINE
  8
0
 10
-128.304
 20
16.2665
 11
-128.139
 21
16.3572
  0
LINE
  8
0
 10
-128.139
 20
16.3572
 11
-127.964
 21
16.4266
  0
LINE
  8
0
 10
-127.964
 20
16.4266
 11
-127.781
 21
16.4734
  0
LINE
  8
0
 10
-127.781
 20
16.4734
 11
-127.594
 21
16.497
  0
LINE
  8
0
 10
-127.594
 20
16.497
 11
-127.406
 21
16.497
  0
LINE
  8
0
 10
-127.406
 20
16.497
 11
-127.219
 21
16.4734
  0
LINE
  8
0
 10
-127.219
 20
16.4734
 11
-127.036
 21
16.4266
  0
LINE
  8
0
 10
-127.036
 20
16.4266
 11
-126.861
 21
16.3572
  0
LINE
  8
0
 10
-126.861
 20
16.3572
 11
-126.696
 21
16.2665
  0
LINE
  8
0
 10
-126.696
 20
16.2665
 11
-126.544
 21
16.1558
  0
LINE
  8
0
 10
-126.544
 20
16.1558
 11
-126.407
 21
16.0268
  0
LINE
  8
0
 10
-126.407
 20
16.0268
 11
-126.286
 21
15.8817
  0
LINE
  8
0
 10
-126.286
 20
15.8817
 11
-126.186
 21
15.7226
  0
LINE
  8
0
 10
-126.186
 20
15.7226
 11
-126.105
 21
15.5522
  0
LINE
  8
0
 10
-126.105
 20
15.5522
 11
-126.047
 21
15.373
  0
LINE
  8
0
 10
-126.047
 20
15.373
 11
-126.012
 21
15.188
  0
LINE
  8
0
 10
-126.012
 20
15.188
 11
-126
 21
15
  0
LINE
  8
0
 10
-126
 20
15
 11
-126.012
 21
14.812
  0
LINE
  8
0
 10
-126.012
 20
14.812
 11
-126.047
 21
14.627
  0
LINE
  8
0
 10
-126.047
 20
14.627
 11
-126.105
 21
14.4478
  0
LINE
  8
0
 10
-126.105
 20
14.4478
 11
-126.186
 21
14.2774
  0
LINE
  8
0
 10
-126.186
 20
14.2774
 11
-126.286
 21
14.1183
  0
LINE
  8
0
 10
-126.286
 20
14.1183
 11
-126.407
 21
13.9732
  0
LINE
  8
0
 10
-126.407
 20
13.9732
 11
-126.544
 21
13.8442
  0
LINE
  8
0
 10
-126.544
 20
13.8442
 11
-126.696
 21
13.7335
  0
LINE
  8
0
 10
-126.696
 20
13.7335
 11
-126.861
 21
13.6427
  0
LINE
  8
0
 10
-126.861
 20
13.6427
 11
-127.036
 21
13.5734
  0
LINE
  8
0
 10
-127.036
 20
13.5734
 11
-127.219
 21
13.5266
  0
LINE
  8
0
 10
-127.219
 20
13.5266
 11
-127.406
 21
13.5029
  0
LINE
  8
0
 10
-127.406
 20
13.5029
 11
-127.594
 21
13.5029
  0
LINE
  8
0
 10
127.406
 20
13.5029
 11
127.219
 21
13.5266
  0
LINE
  8
0
 10
127.219
 20
13.5266
 11
127.036
 21
13.5734
  0
LINE
  8
0
 10
127.036
 20
13.5734
 11
126.861
 21
13.6427
  0
LINE
  8
0
 10
126.861
 20
13.6427
 11
126.696
 21
13.7335
  0
LINE
  8
0
 10
126.696
 20
13.7335
 11
126.544
 21
13.8442
  0
LINE
  8
0
 10
126.544
 20
13.8442
 11
126.407
 21
13.9732
  0
LINE
  8
0
 10
126.407
 20
13.9732
 11
126.286
 21
14.1183
  0
LINE
  8
0
 10
126.286
 20
14.1183
 11
126.186
 21
14.2774
  0
LINE
  8
0
 10
126.186
 20
14.2774
 11
126.105
 21
14.4478
  0
LINE
  8
0
 10
126.105
 20
14.4478
 11
126.047
 21
14.627
  0
LINE
  8
0
 10
126.047
 20
14.627
 11
126.012
 21
14.812
  0
LINE
  8
0
 10
126.012
 20
14.812
 11
126
 21
15
  0
LINE
  8
0
 10
126
 20
15
 11
126.012
 21
15.188
  0
LINE
  8
0
 10
126.012
 20
15.188
 11
126.047
 21
15.373
  0
LINE
  8
0
 10
126.047
 20
15.373
 11
126.105
 21
15.5522
  0
LINE
  8
0
 10
126.105
 20
15.5522
 11
126.186
 21
15.7226
  0
LINE
  8
0
 10
126.186
 20
15.7226
 11
126.286
 21
15.8817
  0
LINE
  8
0
 10
126.286
 20
15.8817
 11
126.407
 21
16.0268
  0
LINE
  8
0
 10
126.407
 20
16.0268
 11
126.544
 21
16.1558
  0
LINE
  8
0
 10
126.544
 20
16.1558
 11
126.696
 21
16.2665
  0
LINE
  8
0
 10
126.696
 20
16.2665
 11
126.861
 21
16.3572
  0
LINE
  8
0
 10
126.861
 20
16.3572
 11
127.036
 21
16.4266
  0
LINE
  8
0
 10
127.036
 20
16.4266
 11
127.219
 21
16.4734
  0
LINE
  8
0
 10
127.219
 20
16.4734
 11
127.406
 21
16.497
  0
LINE
  8
0
 10
127.406
 20
16.497
 11
127.594
 21
16.497
  0
LINE
  8
0
 10
127.594
 20
16.497
 11
127.781
 21
16.4734
  0
LINE
  8
0
 10
127.781
 20
16.4734
 11
127.964
 21
16.4266
  0
LINE
  8
0
 10
127.964
 20
16.4266
 11
128.139
 21
16.3572
  0
LINE
  8
0
 10
128.139
 20
16.3572
 11
128.304
 21
16.2665
  0
LINE
  8
0
 10
128.304
 20
16.2665
 11
128.456
 21
16.1558
  0
LINE
  8
0
 10
128.456
 20
16.1558
 11
128.593
 21
16.0268
  0
LINE
  8
0
 10
128.593
 20
16.0268
 11
128.714
 21
15.8817
  0
LINE
  8
0
 10
128.714
 20
15.8817
 11
128.814
 21
15.7226
  0
LINE
  8
0
 10
128.814
 20
15.7226
 11
128.895
 21
15.5522
  0
LINE
  8
0
 10
128.895
 20
15.5522
 11
128.953
 21
15.373
  0
LINE
  8
0
 10
128.953
 20
15.373
 11
128.988
 21
15.188
  0
LINE
  8
0
 10
128.988
 20
15.188
 11
129
 21
15
  0
LINE
  8
0
 10
129
 20
15
 11
128.988
 21
14.812
  0
LINE
  8
0
 10
128.988
 20
14.812
 11
128.953
 21
14.627
  0
LINE
  8
0
 10
128.953
 20
14.627
 11
128.895
 21
14.4478
  0
LINE
  8
0
 10
128.895
 20
14.4478
 11
128.814
 21
14.2774
  0
LINE
  8
0
 10
128.814
 20
14.2774
 11
128.714
 21
14.1183
  0
LINE
  8
0
 10
128.714
 20
14.1183
 11
128.593
 21
13.9732
  0
LINE
  8
0
 10
128.593
 20
13.9732
 11
128.456
 21
13.8442
  0
LINE
  8
0
 10
128.456
 20
13.8442
 11
128.304
 21
13.7335
  0
LINE
  8
0
 10
128.304
 20
13.7335
 11
128.139
 21
13.6427
  0
LINE
  8
0
 10
128.139
 20
13.6427
 11
127.964
 21
13.5734
  0
LINE
  8
0
 10
127.964
 20
13.5734
 11
127.781
 21
13.5266
  0
LINE
  8
0
 10
127.781
 20
13.5266
 11
127.594
 21
13.5029
  0
LINE
  8
0
 10
127.594
 20
13.5029
 11
127.406
 21
13.5029
  0
LINE
  8
0
 10
127.312
 20
4.50591
 11
126.938
 21
4.55313
  0
LINE
  8
0
 10
126.938
 20
4.55313
 11
126.573
 21
4.64682
  0
LINE
  8
0
 10
126.573
 20
4.64682
 11
126.223
 21
4.78551
  0
LINE
  8
0
 10
126.223
 20
4.78551
 11
125.893
 21
4.96701
  0
LINE
  8
0
 10
125.893
 20
4.96701
 11
125.588
 21
5.18845
  0
LINE
  8
0
 10
125.588
 20
5.18845
 11
125.313
 21
5.44635
  0
LINE
  8
0
 10
125.313
 20
5.44635
 11
125.073
 21
5.73663
  0
LINE
  8
0
 10
125.073
 20
5.73663
 11
124.871
 21
6.05473
  0
LINE
  8
0
 10
124.871
 20
6.05473
 11
124.711
 21
6.39561
  0
LINE
  8
0
 10
124.711
 20
6.39561
 11
124.594
 21
6.75392
  0
LINE
  8
0
 10
124.594
 20
6.75392
 11
124.524
 21
7.12399
  0
LINE
  8
0
 10
124.524
 20
7.12399
 11
124.5
 21
7.5
  0
LINE
  8
0
 10
124.5
 20
7.5
 11
124.524
 21
7.87599
  0
LINE
  8
0
 10
124.524
 20
7.87599
 11
124.594
 21
8.24606
  0
LINE
  8
0
 10
124.594
 20
8.24606
 11
124.711
 21
8.60437
  0
LINE
  8
0
 10
124.711
 20
8.60437
 11
124.871
 21
8.94525
  0
LINE
  8
0
 10
124.871
 20
8.94525
 11
125.073
 21
9.26335
  0
LINE
  8
0
 10
125.073
 20
9.26335
 11
125.313
 21
9.55363
  0
LINE
  8
0
 10
125.313
 20
9.55363
 11
125.588
 21
9.81154
  0
LINE
  8
0
 10
125.588
 20
9.81154
 11
125.893
 21
10.033
  0
LINE
  8
0
 10
125.893
 20
10.033
 11
126.223
 21
10.2145
  0
LINE
  8
0
 10
126.223
 20
10.2145
 11
126.573
 21
10.3532
  0
LINE
  8
0
 10
126.573
 20
10.3532
 11
126.938
 21
10.4469
  0
LINE
  8
0
 10
126.938
 20
10.4469
 11
127.312
 21
10.4941
  0
LINE
  8
0
 10
127.312
 20
10.4941
 11
127.688
 21
10.4941
  0
LINE
  8
0
 10
127.688
 20
10.4941
 11
128.062
 21
10.4469
  0
LINE
  8
0
 10
128.062
 20
10.4469
 11
128.427
 21
10.3532
  0
LINE
  8
0
 10
128.427
 20
10.3532
 11
128.777
 21
10.2145
  0
LINE
  8
0
 10
128.777
 20
10.2145
 11
129.107
 21
10.033
  0
LINE
  8
0
 10
129.107
 20
10.033
 11
129.412
 21
9.81154
  0
LINE
  8
0
 10
129.412
 20
9.81154
 11
129.687
 21
9.55363
  0
LINE
  8
0
 10
129.687
 20
9.55363
 11
129.927
 21
9.26335
  0
LINE
  8
0
 10
129.927
 20
9.26335
 11
130.129
 21
8.94525
  0
LINE
  8
0
 10
130.129
 20
8.94525
 11
130.289
 21
8.60437
  0
LINE
  8
0
 10
130.289
 20
8.60437
 11
130.406
 21
8.24606
  0
LINE
  8
0
 10
130.406
 20
8.24606
 11
130.476
 21
7.87599
  0
LINE
  8
0
 10
130.476
 20
7.87599
 11
130.5
 21
7.5
  0
LINE
  8
0
 10
130.5
 20
7.5
 11
130.476
 21
7.12399
  0
LINE
  8
0
 10
130.476
 20
7.12399
 11
130.406
 21
6.75392
  0
LINE
  8
0
 10
130.406
 20
6.75392
 11
130.289
 21
6.39561
  0
LINE
  8
0
 10
130.289
 20
6.39561
 11
130.129
 21
6.05473
  0
LINE
  8
0
 10
130.129
 20
6.05473
 11
129.927
 21
5.73663
  0
LINE
  8
0
 10
129.927
 20
5.73663
 11
129.687
 21
5.44635
  0
LINE
  8
0
 10
129.687
 20
5.44635
 11
129.412
 21
5.18845
  0
LINE
  8
0
 10
129.412
 20
5.18845
 11
129.107
 21
4.96701
  0
LINE
  8
0
 10
129.107
 20
4.96701
 11
128.777
 21
4.78551
  0
LINE
  8
0
 10
128.777
 20
4.78551
 11
128.427
 21
4.64682
  0
LINE
  8
0
 10
128.427
 20
4.64682
 11
128.062
 21
4.55313
  0
LINE
  8
0
 10
128.062
 20
4.55313
 11
127.688
 21
4.50591
  0
LINE
  8
0
 10
127.688
 20
4.50591
 11
127.312
 21
4.50591
  0
LINE
  8
0
 10
-127.688
 20
4.50591
 11
-128.062
 21
4.55313
  0
LINE
  8
0
 10
-128.062
 20
4.55313
 11
-128.427
 21
4.64682
  0
LINE
  8
0
 10
-128.427
 20
4.64682
 11
-128.777
 21
4.78551
  0
LINE
  8
0
 10
-128.777
 20
4.78551
 11
-129.107
 21
4.96701
  0
LINE
  8
0
 10
-129.107
 20
4.96701
 11
-129.412
 21
5.18845
  0
LINE
  8
0
 10
-129.412
 20
5.18845
 11
-129.687
 21
5.44635
  0
LINE
  8
0
 10
-129.687
 20
5.44635
 11
-129.927
 21
5.73663
  0
LINE
  8
0
 10
-129.927
 20
5.73663
 11
-130.129
 21
6.05473
  0
LINE
  8
0
 10
-130.129
 20
6.05473
 11
-130.289
 21
6.39561
  0
LINE
  8
0
 10
-130.289
 20
6.39561
 11
-130.406
 21
6.75392
  0
LINE
  8
0
 10
-130.406
 20
6.75392
 11
-130.476
 21
7.12399
  0
LINE
  8
0
 10
-130.476
 20
7.12399
 11
-130.5
 21
7.5
  0
LINE
  8
0
 10
-130.5
 20
7.5
 11
-130.476
 21
7.87599
  0
LINE
  8
0
 10
-130.476
 20
7.87599
 11
-130.406
 21
8.24606
  0
LINE
  8
0
 10
-130.406
 20
8.24606
 11
-130.289
 21
8.60437
  0
LINE
  8
0
 10
-130.289
 20
8.60437
 11
-130.129
 21
8.94525
  0
LINE
  8
0
 10
-130.129
 20
8.94525
 11
-129.927
 21
9.26335
  0
LINE
  8
0
 10
-129.927
 20
9.26335
 11
-129.687
 21
9.55363
  0
LINE
  8
0
 10
-129.687
 20
9.55363
 11
-129.412
 21
9.81154
  0
LINE
  8
0
 10
-129.412
 20
9.81154
 11
-129.107
 21
10.033
  0
LINE
  8
0
 10
-129.107
 20
10.033
 11
-128.777
 21
10.2145
  0
LINE
  8
0
 10
-128.777
 20
10.2145
 11
-128.427
 21
10.3532
  0
LINE
  8
0
 10
-128.427
 20
10.3532
 11
-128.062
 21
10.4469
  0
LINE
  8
0
 10
-128.062
 20
10.4469
 11
-127.688
 21
10.4941
  0
LINE
  8
0
 10
-127.688
 20
10.4941
 11
-127.312
 21
10.4941
  0
LINE
  8
0
 10
-127.312
 20
10.4941
 11
-126.938
 21
10.4469
  0
LINE
  8
0
 10
-126.938
 20
10.4469
 11
-126.573
 21
10.3532
  0
LINE
  8
0
 10
-126.573
 20
10.3532
 11
-126.223
 21
10.2145
  0
LINE
  8
0
 10
-126.223
 20
10.2145
 11
-125.893
 21
10.033
  0
LINE
  8
0
 10
-125.893
 20
10.033
 11
-125.588
 21
9.81154
  0
LINE
  8
0
 10
-125.588
 20
9.81154
 11
-125.313
 21
9.55363
  0
LINE
  8
0
 10
-125.313
 20
9.55363
 11
-125.073
 21
9.26335
  0
LINE
  8
0
 10
-125.073
 20
9.26335
 11
-124.871
 21
8.94525
  0
LINE
  8
0
 10
-124.871
 20
8.94525
 11
-124.711
 21
8.60437
  0
LINE
  8
0
 10
-124.711
 20
8.60437
 11
-124.594
 21
8.24606
  0
LINE
  8
0
 10
-124.594
 20
8.24606
 11
-124.524
 21
7.87599
  0
LINE
  8
0
 10
-124.524
 20
7.87599
 11
-124.5
 21
7.5
  0
LINE
  8
0
 10
-124.5
 20
7.5
 11
-124.524
 21
7.12399
  0
LINE
  8
0
 10
-124.524
 20
7.12399
 11
-124.594
 21
6.75392
  0
LINE
  8
0
 10
-124.594
 20
6.75392
 11
-124.711
 21
6.39561
  0
LINE
  8
0
 10
-124.711
 20
6.39561
 11
-124.871
 21
6.05473
  0
LINE
  8
0
 10
-124.871
 20
6.05473
 11
-125.073
 21
5.73663
  0
LINE
  8
0
 10
-125.073
 20
5.73663
 11
-125.313
 21
5.44635
  0
LINE
  8
0
 10
-125.313
 20
5.44635
 11
-125.588
 21
5.18845
  0
LINE
  8
0
 10
-125.588
 20
5.18845
 11
-125.893
 21
4.96701
  0
LINE
  8
0
 10
-125.893
 20
4.96701
 11
-126.223
 21
4.78551
  0
LINE
  8
0
 10
-126.223
 20
4.78551
 11
-126.573
 21
4.64682
  0
LINE
  8
0
 10
-126.573
 20
4.64682
 11
-126.938
 21
4.55313
  0
LINE
  8
0
 10
-126.938
 20
4.55313
 11
-127.312
 21
4.50591
  0
LINE
  8
0
 10
-127.312
 20
4.50591
 11
-127.688
 21
4.50591
  0
LINE
  8
0
 10
127.406
 20
-1.49704
 11
127.219
 21
-1.47342
  0
LINE
  8
0
 10
127.219
 20
-1.47342
 11
127.036
 21
-1.42657
  0
LINE
  8
0
 10
127.036
 20
-1.42657
 11
126.861
 21
-1.35724
  0
LINE
  8
0
 10
126.861
 20
-1.35724
 11
126.696
 21
-1.26648
  0
LINE
  8
0
 10
126.696
 20
-1.26648
 11
126.544
 21
-1.15576
  0
LINE
  8
0
 10
126.544
 20
-1.15576
 11
126.407
 21
-1.02681
  0
LINE
  8
0
 10
126.407
 20
-1.02681
 11
126.286
 21
-0.881668
  0
LINE
  8
0
 10
126.286
 20
-0.881668
 11
126.186
 21
-0.722626
  0
LINE
  8
0
 10
126.186
 20
-0.722626
 11
126.105
 21
-0.552185
  0
LINE
  8
0
 10
126.105
 20
-0.552185
 11
126.047
 21
-0.373032
  0
LINE
  8
0
 10
126.047
 20
-0.373032
 11
126.012
 21
-0.187988
  0
LINE
  8
0
 10
126.012
 20
-0.187988
 11
126
 21
0
  0
LINE
  8
0
 10
126
 20
0
 11
126.012
 21
0.187988
  0
LINE
  8
0
 10
126.012
 20
0.187988
 11
126.047
 21
0.373032
  0
LINE
  8
0
 10
126.047
 20
0.373032
 11
126.105
 21
0.552185
  0
LINE
  8
0
 10
126.105
 20
0.552185
 11
126.186
 21
0.722626
  0
LINE
  8
0
 10
126.186
 20
0.722626
 11
126.286
 21
0.881668
  0
LINE
  8
0
 10
126.286
 20
0.881668
 11
126.407
 21
1.02681
  0
LINE
  8
0
 10
126.407
 20
1.02681
 11
126.544
 21
1.15576
  0
LINE
  8
0
 10
126.544
 20
1.15576
 11
126.696
 21
1.26648
  0
LINE
  8
0
 10
126.696
 20
1.26648
 11
126.861
 21
1.35724
  0
LINE
  8
0
 10
126.861
 20
1.35724
 11
127.036
 21
1.42657
  0
LINE
  8
0
 10
127.036
 20
1.42657
 11
127.219
 21
1.47342
  0
LINE
  8
0
 10
127.219
 20
1.47342
 11
127.406
 21
1.49704
  0
LINE
  8
0
 10
127.406
 20
1.49704
 11
127.594
 21
1.49704
  0
LINE
  8
0
 10
127.594
 20
1.49704
 11
127.781
 21
1.47342
  0
LINE
  8
0
 10
127.781
 20
1.47342
 11
127.964
 21
1.42657
  0
LINE
  8
0
 10
127.964
 20
1.42657
 11
128.139
 21
1.35724
  0
LINE
  8
0
 10
128.139
 20
1.35724
 11
128.304
 21
1.26648
  0
LINE
  8
0
 10
128.304
 20
1.26648
 11
128.456
 21
1.15576
  0
LINE
  8
0
 10
128.456
 20
1.15576
 11
128.593
 21
1.02681
  0
LINE
  8
0
 10
128.593
 20
1.02681
 11
128.714
 21
0.881668
  0
LINE
  8
0
 10
128.714
 20
0.881668
 11
128.814
 21
0.722626
  0
LINE
  8
0
 10
128.814
 20
0.722626
 11
128.895
 21
0.552185
  0
LINE
  8
0
 10
128.895
 20
0.552185
 11
128.953
 21
0.373032
  0
LINE
  8
0
 10
128.953
 20
0.373032
 11
128.988
 21
0.187988
  0
LINE
  8
0
 10
128.988
 20
0.187988
 11
129
 21
0
  0
LINE
  8
0
 10
129
 20
0
 11
128.988
 21
-0.187988
  0
LINE
  8
0
 10
128.988
 20
-0.187988
 11
128.953
 21
-0.373032
  0
LINE
  8
0
 10
128.953
 20
-0.373032
 11
128.895
 21
-0.552185
  0
LINE
  8
0
 10
128.895
 20
-0.552185
 11
128.814
 21
-0.722626
  0
LINE
  8
0
 10
128.814
 20
-0.722626
 11
128.714
 21
-0.881668
  0
LINE
  8
0
 10
128.714
 20
-0.881668
 11
128.593
 21
-1.02681
  0
LINE
  8
0
 10
128.593
 20
-1.02681
 11
128.456
 21
-1.15576
  0
LINE
  8
0
 10
128.456
 20
-1.15576
 11
128.304
 21
-1.26648
  0
LINE
  8
0
 10
128.304
 20
-1.26648
 11
128.139
 21
-1.35724
  0
LINE
  8
0
 10
128.139
 20
-1.35724
 11
127.964
 21
-1.42657
  0
LINE
  8
0
 10
127.964
 20
-1.42657
 11
127.781
 21
-1.47342
  0
LINE
  8
0
 10
127.781
 20
-1.47342
 11
127.594
 21
-1.49704
  0
LINE
  8
0
 10
127.594
 20
-1.49704
 11
127.406
 21
-1.49704
  0
LINE
  8
0
 10
-127.594
 20
-1.49704
 11
-127.781
 21
-1.47342
  0
LINE
  8
0
 10
-127.781
 20
-1.47342
 11
-127.964
 21
-1.42657
  0
LINE
  8
0
 10
-127.964
 20
-1.42657
 11
-128.139
 21
-1.35724
  0
LINE
  8
0
 10
-128.139
 20
-1.35724
 11
-128.304
 21
-1.26648
  0
LINE
  8
0
 10
-128.304
 20
-1.26648
 11
-128.456
 21
-1.15576
  0
LINE
  8
0
 10
-128.456
 20
-1.15576
 11
-128.593
 21
-1.02681
  0
LINE
  8
0
 10
-128.593
 20
-1.02681
 11
-128.714
 21
-0.881668
  0
LINE
  8
0
 10
-128.714
 20
-0.881668
 11
-128.814
 21
-0.722626
  0
LINE
  8
0
 10
-128.814
 20
-0.722626
 11
-128.895
 21
-0.552185
  0
LINE
  8
0
 10
-128.895
 20
-0.552185
 11
-128.953
 21
-0.373032
  0
LINE
  8
0
 10
-128.953
 20
-0.373032
 11
-128.988
 21
-0.187988
  0
LINE
  8
0
 10
-128.988
 20
-0.187988
 11
-129
 21
0
  0
LINE
  8
0
 10
-129
 20
0
 11
-128.988
 21
0.187988
  0
LINE
  8
0
 10
-128.988
 20
0.187988
 11
-128.953
 21
0.373032
  0
LINE
  8
0
 10
-128.953
 20
0.373032
 11
-128.895
 21
0.552185
  0
LINE
  8
0
 10
-128.895
 20
0.552185
 11
-128.814
 21
0.722626
  0
LINE
  8
0
 10
-128.814
 20
0.722626
 11
-128.714
 21
0.881668
  0
LINE
  8
0
 10
-128.714
 20
0.881668
 11
-128.593
 21
1.02681
  0
LINE
  8
0
 10
-128.593
 20
1.02681
 11
-128.456
 21
1.15576
  0
LINE
  8
0
 10
-128.456
 20
1.15576
 11
-128.304
 21
1.26648
  0
LINE
  8
0
 10
-128.304
 20
1.26648
 11
-128.139
 21
1.35724
  0
LINE
  8
0
 10
-128.139
 20
1.35724
 11
-127.964
 21
1.42657
  0
LINE
  8
0
 10
-127.964
 20
1.42657
 11
-127.781
 21
1.47342
  0
LINE
  8
0
 10
-127.781
 20
1.47342
 11
-127.594
 21
1.49704
  0
LINE
  8
0
 10
-127.594
 20
1.49704
 11
-127.406
 21
1.49704
  0
LINE
  8
0
 10
-127.406
 20
1.49704
 11
-127.219
 21
1.47342
  0
LINE
  8
0
 10
-127.219
 20
1.47342
 11
-127.036
 21
1.42657
  0
LINE
  8
0
 10
-127.036
 20
1.42657
 11
-126.861
 21
1.35724
  0
LINE
  8
0
 10
-126.861
 20
1.35724
 11
-126.696
 21
1.26648
  0
LINE
  8
0
 10
-126.696
 20
1.26648
 11
-126.544
 21
1.15576
  0
LINE
  8
0
 10
-126.544
 20
1.15576
 11
-126.407
 21
1.02681
  0
LINE
  8
0
 10
-126.407
 20
1.02681
 11
-126.286
 21
0.881668
  0
LINE
  8
0
 10
-126.286
 20
0.881668
 11
-126.186
 21
0.722626
  0
LINE
  8
0
 10
-126.186
 20
0.722626
 11
-126.105
 21
0.552185
  0
LINE
  8
0
 10
-126.105
 20
0.552185
 11
-126.047
 21
0.373032
  0
LINE
  8
0
 10
-126.047
 20
0.373032
 11
-126.012
 21
0.187988
  0
LINE
  8
0
 10
-126.012
 20
0.187988
 11
-126
 21
0
  0
LINE
  8
0
 10
-126
 20
0
 11
-126.012
 21
-0.187988
  0
LINE
  8
0
 10
-126.012
 20
-0.187988
 11
-126.047
 21
-0.373032
  0
LINE
  8
0
 10
-126.047
 20
-0.373032
 11
-126.105
 21
-0.552185
  0
LINE
  8
0
 10
-126.105
 20
-0.552185
 11
-126.186
 21
-0.722626
  0
LINE
  8
0
 10
-126.186
 20
-0.722626
 11
-126.286
 21
-0.881668
  0
LINE
  8
0
 10
-126.286
 20
-0.881668
 11
-126.407
 21
-1.02681
  0
LINE
  8
0
 10
-126.407
 20
-1.02681
 11
-126.544
 21
-1.15576
  0
LINE
  8
0
 10
-126.544
 20
-1.15576
 11
-126.696
 21
-1.26648
  0
LINE
  8
0
 10
-126.696
 20
-1.26648
 11
-126.861
 21
-1.35724
  0
LINE
  8
0
 10
-126.861
 20
-1.35724
 11
-127.036
 21
-1.42657
  0
LINE
  8
0
 10
-127.036
 20
-1.42657
 11
-127.219
 21
-1.47342
  0
LINE
  8
0
 10
-127.219
 20
-1.47342
 11
-127.406
 21
-1.49704
  0
LINE
  8
0
 10
-127.406
 20
-1.49704
 11
-127.594
 21
-1.49704
  0
LINE
  8
0
 10
-127.688
 20
-10.4941
 11
-128.062
 21
-10.4469
  0
LINE
  8
0
 10
-128.062
 20
-10.4469
 11
-128.427
 21
-10.3532
  0
LINE
  8
0
 10
-128.427
 20
-10.3532
 11
-128.777
 21
-10.2145
  0
LINE
  8
0
 10
-128.777
 20
-10.2145
 11
-129.107
 21
-10.033
  0
LINE
  8
0
 10
-129.107
 20
-10.033
 11
-129.412
 21
-9.81154
  0
LINE
  8
0
 10
-129.412
 20
-9.81154
 11
-129.687
 21
-9.55363
  0
LINE
  8
0
 10
-129.687
 20
-9.55363
 11
-129.927
 21
-9.26335
  0
LINE
  8
0
 10
-129.927
 20
-9.26335
 11
-130.129
 21
-8.94525
  0
LINE
  8
0
 10
-130.129
 20
-8.94525
 11
-130.289
 21
-8.60437
  0
LINE
  8
0
 10
-130.289
 20
-8.60437
 11
-130.406
 21
-8.24606
  0
LINE
  8
0
 10
-130.406
 20
-8.24606
 11
-130.476
 21
-7.87599
  0
LINE
  8
0
 10
-130.476
 20
-7.87599
 11
-130.5
 21
-7.5
  0
LINE
  8
0
 10
-130.5
 20
-7.5
 11
-130.476
 21
-7.12399
  0
LINE
  8
0
 10
-130.476
 20
-7.12399
 11
-130.406
 21
-6.75392
  0
LINE
  8
0
 10
-130.406
 20
-6.75392
 11
-130.289
 21
-6.39561
  0
LINE
  8
0
 10
-130.289
 20
-6.39561
 11
-130.129
 21
-6.05473
  0
LINE
  8
0
 10
-130.129
 20
-6.05473
 11
-129.927
 21
-5.73663
  0
LINE
  8
0
 10
-129.927
 20
-5.73663
 11
-129.687
 21
-5.44635
  0
LINE
  8
0
 10
-129.687
 20
-5.44635
 11
-129.412
 21
-5.18845
  0
LINE
  8
0
 10
-129.412
 20
-5.18845
 11
-129.107
 21
-4.96701
  0
LINE
  8
0
 10
-129.107
 20
-4.96701
 11
-128.777
 21
-4.78551
  0
LINE
  8
0
 10
-128.777
 20
-4.78551
 11
-128.427
 21
-4.64682
  0
LINE
  8
0
 10
-128.427
 20
-4.64682
 11
-128.062
 21
-4.55313
  0
LINE
  8
0
 10
-128.062
 20
-4.55313
 11
-127.688
 21
-4.50591
  0
LINE
  8
0
 10
-127.688
 20
-4.50591
 11
-127.312
 21
-4.50591
  0
LINE
  8
0
 10
-127.312
 20
-4.50591
 11
-126.938
 21
-4.55313
  0
LINE
  8
0
 10
-126.938
 20
-4.55313
 11
-126.573
 21
-4.64682
  0
LINE
  8
0
 10
-126.573
 20
-4.64682
 11
-126.223
 21
-4.78551
  0
LINE
  8
0
 10
-126.223
 20
-4.78551
 11
-125.893
 21
-4.96701
  0
LINE
  8
0
 10
-125.893
 20
-4.96701
 11
-125.588
 21
-5.18845
  0
LINE
  8
0
 10
-125.588
 20
-5.18845
 11
-125.313
 21
-5.44635
  0
LINE
  8
0
 10
-125.313
 20
-5.44635
 11
-125.073
 21
-5.73663
  0
LINE
  8
0
 10
-125.073
 20
-5.73663
 11
-124.871
 21
-6.05473
  0
LINE
  8
0
 10
-124.871
 20
-6.05473
 11
-124.711
 21
-6.39561
  0
LINE
  8
0
 10
-124.711
 20
-6.39561
 11
-124.594
 21
-6.75392
  0
LINE
  8
0
 10
-124.594
 20
-6.75392
 11
-124.524
 21
-7.12399
  0
LINE
  8
0
 10
-124.524
 20
-7.12399
 11
-124.5
 21
-7.5
  0
LINE
  8
0
 10
-124.5
 20
-7.5
 11
-124.524
 21
-7.87599
  0
LINE
  8
0
 10
-124.524
 20
-7.87599
 11
-124.594
 21
-8.24606
  0
LINE
  8
0
 10
-124.594
 20
-8.24606
 11
-124.711
 21
-8.60437
  0
LINE
  8
0
 10
-124.711
 20
-8.60437
 11
-124.871
 21
-8.94525
  0
LINE
  8
0
 10
-124.871
 20
-8.94525
 11
-125.073
 21
-9.26335
  0
LINE
  8
0
 10
-125.073
 20
-9.26335
 11
-125.313
 21
-9.55363
  0
LINE
  8
0
 10
-125.313
 20
-9.55363
 11
-125.588
 21
-9.81154
  0
LINE
  8
0
 10
-125.588
 20
-9.81154
 11
-125.893
 21
-10.033
  0
LINE
  8
0
 10
-125.893
 20
-10.033
 11
-126.223
 21
-10.2145
  0
LINE
  8
0
 10
-126.223
 20
-10.2145
 11
-126.573
 21
-10.3532
  0
LINE
  8
0
 10
-126.573
 20
-10.3532
 11
-126.938
 21
-10.4469
  0
LINE
  8
0
 10
-126.938
 20
-10.4469
 11
-127.312
 21
-10.4941
  0
LINE
  8
0
 10
-127.312
 20
-10.4941
 11
-127.688
 21
-10.4941
  0
LINE
  8
0
 10
127.312
 20
-10.4941
 11
126.938
 21
-10.4469
  0
LINE
  8
0
 10
126.938
 20
-10.4469
 11
126.573
 21
-10.3532
  0
LINE
  8
0
 10
126.573
 20
-10.3532
 11
126.223
 21
-10.2145
  0
LINE
  8
0
 10
126.223
 20
-10.2145
 11
125.893
 21
-10.033
  0
LINE
  8
0
 10
125.893
 20
-10.033
 11
125.588
 21
-9.81154
  0
LINE
  8
0
 10
125.588
 20
-9.81154
 11
125.313
 21
-9.55363
  0
LINE
  8
0
 10
125.313
 20
-9.55363
 11
125.073
 21
-9.26335
  0
LINE
  8
0
 10
125.073
 20
-9.26335
 11
124.871
 21
-8.94525
  0
LINE
  8
0
 10
124.871
 20
-8.94525
 11
124.711
 21
-8.60437
  0
LINE
  8
0
 10
124.711
 20
-8.60437
 11
124.594
 21
-8.24606
  0
LINE
  8
0
 10
124.594
 20
-8.24606
 11
124.524
 21
-7.87599
  0
LINE
  8
0
 10
124.524
 20
-7.87599
 11
124.5
 21
-7.5
  0
LINE
  8
0
 10
124.5
 20
-7.5
 11
124.524
 21
-7.12399
  0
LINE
  8
0
 10
124.524
 20
-7.12399
 11
124.594
 21
-6.75392
  0
LINE
  8
0
 10
124.594
 20
-6.75392
 11
124.711
 21
-6.39561
  0
LINE
  8
0
 10
124.711
 20
-6.39561
 11
124.871
 21
-6.05473
  0
LINE
  8
0
 10
124.871
 20
-6.05473
 11
125.073
 21
-5.73663
  0
LINE
  8
0
 10
125.073
 20
-5.73663
 11
125.313
 21
-5.44635
  0
LINE
  8
0
 10
125.313
 20
-5.44635
 11
125.588
 21
-5.18845
  0
LINE
  8
0
 10
125.588
 20
-5.18845
 11
125.893
 21
-4.96701
  0
LINE
  8
0
 10
125.893
 20
-4.96701
 11
126.223
 21
-4.78551
  0
LINE
  8
0
 10
126.223
 20
-4.78551
 11
126.573
 21
-4.64682
  0
LINE
  8
0
 10
126.573
 20
-4.64682
 11
126.938
 21
-4.55313
  0
LINE
  8
0
 10
126.938
 20
-4.55313
 11
127.312
 21
-4.50591
  0
LINE
  8
0
 10
127.312
 20
-4.50591
 11
127.688
 21
-4.50591
  0
LINE
  8
0
 10
127.688
 20
-4.50591
 11
128.062
 21
-4.55313
  0
LINE
  8
0
 10
128.062
 20
-4.55313
 11
128.427
 21
-4.64682
  0
LINE
  8
0
 10
128.427
 20
-4.64682
 11
128.777
 21
-4.78551
  0
LINE
  8
0
 10
128.777
 20
-4.78551
 11
129.107
 21
-4.96701
  0
LINE
  8
0
 10
129.107
 20
-4.96701
 11
129.412
 21
-5.18845
  0
LINE
  8
0
 10
129.412
 20
-5.18845
 11
129.687
 21
-5.44635
  0
LINE
  8
0
 10
129.687
 20
-5.44635
 11
129.927
 21
-5.73663
  0
LINE
  8
0
 10
129.927
 20
-5.73663
 11
130.129
 21
-6.05473
  0
LINE
  8
0
 10
130.129
 20
-6.05473
 11
130.289
 21
-6.39561
  0
LINE
  8
0
 10
130.289
 20
-6.39561
 11
130.406
 21
-6.75392
  0
LINE
  8
0
 10
130.406
 20
-6.75392
 11
130.476
 21
-7.12399
  0
LINE
  8
0
 10
130.476
 20
-7.12399
 11
130.5
 21
-7.5
  0
LINE
  8
0
 10
130.5
 20
-7.5
 11
130.476
 21
-7.87599
  0
LINE
  8
0
 10
130.476
 20
-7.87599
 11
130.406
 21
-8.24606
  0
LINE
  8
0
 10
130.406
 20
-8.24606
 11
130.289
 21
-8.60437
  0
LINE
  8
0
 10
130.289
 20
-8.60437
 11
130.129
 21
-8.94525
  0
LINE
  8
0
 10
130.129
 20
-8.94525
 11
129.927
 21
-9.26335
  0
LINE
  8
0
 10
129.927
 20
-9.26335
 11
129.687
 21
-9.55363
  0
LINE
  8
0
 10
129.687
 20
-9.55363
 11
129.412
 21
-9.81154
  0
LINE
  8
0
 10
129.412
 20
-9.81154
 11
129.107
 21
-10.033
  0
LINE
  8
0
 10
129.107
 20
-10.033
 11
128.777
 21
-10.2145
  0
LINE
  8
0
 10
128.777
 20
-10.2145
 11
128.427
 21
-10.3532
  0
LINE
  8
0
 10
128.427
 20
-10.3532
 11
128.062
 21
-10.4469
  0
LINE
  8
0
 10
128.062
 20
-10.4469
 11
127.688
 21
-10.4941
  0
LINE
  8
0
 10
127.688
 20
-10.4941
 11
127.312
 21
-10.4941
  0
LINE
  8
0
 10
127.406
 20
-16.497
 11
127.219
 21
-16.4734
  0
LINE
  8
0
 10
127.219
 20
-16.4734
 11
127.036
 21
-16.4266
  0
LINE
  8
0
 10
127.036
 20
-16.4266
 11
126.861
 21
-16.3572
  0
LINE
  8
0
 10
126.861
 20
-16.3572
 11
126.696
 21
-16.2665
  0
LINE
  8
0
 10
126.696
 20
-16.2665
 11
126.544
 21
-16.1558
  0
LINE
  8
0
 10
126.544
 20
-16.1558
 11
126.407
 21
-16.0268
  0
LINE
  8
0
 10
126.407
 20
-16.0268
 11
126.286
 21
-15.8817
  0
LINE
  8
0
 10
126.286
 20
-15.8817
 11
126.186
 21
-15.7226
  0
LINE
  8
0
 10
126.186
 20
-15.7226
 11
126.105
 21
-15.5522
  0
LINE
  8
0
 10
126.105
 20
-15.5522
 11
126.047
 21
-15.373
  0
LINE
  8
0
 10
126.047
 20
-15.373
 11
126.012
 21
-15.188
  0
LINE
  8
0
 10
126.012
 20
-15.188
 11
126
 21
-15
  0
LINE
  8
0
 10
126
 20
-15
 11
126.012
 21
-14.812
  0
LINE
  8
0
 10
126.012
 20
-14.812
 11
126.047
 21
-14.627
  0
LINE
  8
0
 10
126.047
 20
-14.627
 11
126.105
 21
-14.4478
  0
LINE
  8
0
 10
126.105
 20
-14.4478
 11
126.186
 21
-14.2774
  0
LINE
  8
0
 10
126.186
 20
-14.2774
 11
126.286
 21
-14.1183
  0
LINE
  8
0
 10
126.286
 20
-14.1183
 11
126.407
 21
-13.9732
  0
LINE
  8
0
 10
126.407
 20
-13.9732
 11
126.544
 21
-13.8442
  0
LINE
  8
0
 10
126.544
 20
-13.8442
 11
126.696
 21
-13.7335
  0
LINE
  8
0
 10
126.696
 20
-13.7335
 11
126.861
 21
-13.6427
  0
LINE
  8
0
 10
126.861
 20
-13.6427
 11
127.036
 21
-13.5734
  0
LINE
  8
0
 10
127.036
 20
-13.5734
 11
127.219
 21
-13.5266
  0
LINE
  8
0
 10
127.219
 20
-13.5266
 11
127.406
 21
-13.5029
  0
LINE
  8
0
 10
127.406
 20
-13.5029
 11
127.594
 21
-13.5029
  0
LINE
  8
0
 10
127.594
 20
-13.5029
 11
127.781
 21
-13.5266
  0
LINE
  8
0
 10
127.781
 20
-13.5266
 11
127.964
 21
-13.5734
  0
LINE
  8
0
 10
127.964
 20
-13.5734
 11
128.139
 21
-13.6427
  0
LINE
  8
0
 10
128.139
 20
-13.6427
 11
128.304
 21
-13.7335
  0
LINE
  8
0
 10
128.304
 20
-13.7335
 11
128.456
 21
-13.8442
  0
LINE
  8
0
 10
128.456
 20
-13.8442
 11
128.593
 21
-13.9732
  0
LINE
  8
0
 10
128.593
 20
-13.9732
 11
128.714
 21
-14.1183
  0
LINE
  8
0
 10
128.714
 20
-14.1183
 11
128.814
 21
-14.2774
  0
LINE
  8
0
 10
128.814
 20
-14.2774
 11
128.895
 21
-14.4478
  0
LINE
  8
0
 10
128.895
 20
-14.4478
 11
128.953
 21
-14.627
  0
LINE
  8
0
 10
128.953
 20
-14.627
 11
128.988
 21
-14.812
  0
LINE
  8
0
 10
128.988
 20
-14.812
 11
129
 21
-15
  0
LINE
  8
0
 10
129
 20
-15
 11
128.988
 21
-15.188
  0
LINE
  8
0
 10
128.988
 20
-15.188
 11
128.953
 21
-15.373
  0
LINE
  8
0
 10
128.953
 20
-15.373
 11
128.895
 21
-15.5522
  0
LINE
  8
0
 10
128.895
 20
-15.5522
 11
128.814
 21
-15.7226
  0
LINE
  8
0
 10
128.814
 20
-15.7226
 11
128.714
 21
-15.8817
  0
LINE
  8
0
 10
128.714
 20
-15.8817
 11
128.593
 21
-16.0268
  0
LINE
  8
0
 10
128.593
 20
-16.0268
 11
128.456
 21
-16.1558
  0
LINE
  8
0
 10
128.456
 20
-16.1558
 11
128.304
 21
-16.2665
  0
LINE
  8
0
 10
128.304
 20
-16.2665
 11
128.139
 21
-16.3572
  0
LINE
  8
0
 10
128.139
 20
-16.3572
 11
127.964
 21
-16.4266
  0
LINE
  8
0
 10
127.964
 20
-16.4266
 11
127.781
 21
-16.4734
  0
LINE
  8
0
 10
127.781
 20
-16.4734
 11
127.594
 21
-16.497
  0
LINE
  8
0
 10
127.594
 20
-16.497
 11
127.406
 21
-16.497
  0
LINE
  8
0
 10
-127.594
 20
-16.497
 11
-127.781
 21
-16.4734
  0
LINE
  8
0
 10
-127.781
 20
-16.4734
 11
-127.964
 21
-16.4266
  0
LINE
  8
0
 10
-127.964
 20
-16.4266
 11
-128.139
 21
-16.3572
  0
LINE
  8
0
 10
-128.139
 20
-16.3572
 11
-128.304
 21
-16.2665
  0
LINE
  8
0
 10
-128.304
 20
-16.2665
 11
-128.456
 21
-16.1558
  0
LINE
  8
0
 10
-128.456
 20
-16.1558
 11
-128.593
 21
-16.0268
  0
LINE
  8
0
 10
-128.593
 20
-16.0268
 11
-128.714
 21
-15.8817
  0
LINE
  8
0
 10
-128.714
 20
-15.8817
 11
-128.814
 21
-15.7226
  0
LINE
  8
0
 10
-128.814
 20
-15.7226
 11
-128.895
 21
-15.5522
  0
LINE
  8
0
 10
-128.895
 20
-15.5522
 11
-128.953
 21
-15.373
  0
LINE
  8
0
 10
-128.953
 20
-15.373
 11
-128.988
 21
-15.188
  0
LINE
  8
0
 10
-128.988
 20
-15.188
 11
-129
 21
-15
  0
LINE
  8
0
 10
-129
 20
-15
 11
-128.988
 21
-14.812
  0
LINE
  8
0
 10
-128.988
 20
-14.812
 11
-128.953
 21
-14.627
  0
LINE
  8
0
 10
-128.953
 20
-14.627
 11
-128.895
 21
-14.4478
  0
LINE
  8
0
 10
-128.895
 20
-14.4478
 11
-128.814
 21
-14.2774
  0
LINE
  8
0
 10
-128.814
 20
-14.2774
 11
-128.714
 21
-14.1183
  0
LINE
  8
0
 10
-128.714
 20
-14.1183
 11
-128.593
 21
-13.9732
  0
LINE
  8
0
 10
-128.593
 20
-13.9732
 11
-128.456
 21
-13.8442
  0
LINE
  8
0
 10
-128.456
 20
-13.8442
 11
-128.304
 21
-13.7335
  0
LINE
  8
0
 10
-128.304
 20
-13.7335
 11
-128.139
 21
-13.6427
  0
LINE
  8
0
 10
-128.139
 20
-13.6427
 11
-127.964
 21
-13.5734
  0
LINE
  8
0
 10
-127.964
 20
-13.5734
 11
-127.781
 21
-13.5266
  0
LINE
  8
0
 10
-127.781
 20
-13.5266
 11
-127.594
 21
-13.5029
  0
LINE
  8
0
 10
-127.594
 20
-13.5029
 11
-127.406
 21
-13.5029
  0
LINE
  8
0
 10
-127.406
 20
-13.5029
 11
-127.219
 21
-13.5266
  0
LINE
  8
0
 10
-127.219
 20
-13.5266
 11
-127.036
 21
-13.5734
  0
LINE
  8
0
 10
-127.036
 20
-13.5734
 11
-126.861
 21
-13.6427
  0
LINE
  8
0
 10
-126.861
 20
-13.6427
 11
-126.696
 21
-13.7335
  0
LINE
  8
0
 10
-126.696
 20
-13.7335
 11
-126.544
 21
-13.8442
  0
LINE
  8
0
 10
-126.544
 20
-13.8442
 11
-126.407
 21
-13.9732
  0
LINE
  8
0
 10
-126.407
 20
-13.9732
 11
-126.286
 21
-14.1183
  0
LINE
  8
0
 10
-126.286
 20
-14.1183
 11
-126.186
 21
-14.2774
  0
LINE
  8
0
 10
-126.186
 20
-14.2774
 11
-126.105
 21
-14.4478
  0
LINE
  8
0
 10
-126.105
 20
-14.4478
 11
-126.047
 21
-14.627
  0
LINE
  8
0
 10
-126.047
 20
-14.627
 11
-126.012
 21
-14.812
  0
LINE
  8
0
 10
-126.012
 20
-14.812
 11
-126
 21
-15
  0
LINE
  8
0
 10
-126
 20
-15
 11
-126.012
 21
-15.188
  0
LINE
  8
0
 10
-126.012
 20
-15.188
 11
-126.047
 21
-15.373
  0
LINE
  8
0
 10
-126.047
 20
-15.373
 11
-126.105
 21
-15.5522
  0
LINE
  8
0
 10
-126.105
 20
-15.5522
 11
-126.186
 21
-15.7226
  0
LINE
  8
0
 10
-126.186
 20
-15.7226
 11
-126.286
 21
-15.8817
  0
LINE
  8
0
 10
-126.286
 20
-15.8817
 11
-126.407
 21
-16.0268
  0
LINE
  8
0
 10
-126.407
 20
-16.0268
 11
-126.544
 21
-16.1558
  0
LINE
  8
0
 10
-126.544
 20
-16.1558
 11
-126.696
 21
-16.2665
  0
LINE
  8
0
 10
-126.696
 20
-16.2665
 11
-126.861
 21
-16.3572
  0
LINE
  8
0
 10
-126.861
 20
-16.3572
 11
-127.036
 21
-16.4266
  0
LINE
  8
0
 10
-127.036
 20
-16.4266
 11
-127.219
 21
-16.4734
  0
LINE
  8
0
 10
-127.219
 20
-16.4734
 11
-127.406
 21
-16.497
  0
LINE
  8
0
 10
-127.406
 20
-16.497
 11
-127.594
 21
-16.497
  0
LINE
  8
0
 10
127.312
 20
-25.4941
 11
126.938
 21
-25.4469
  0
LINE
  8
0
 10
126.938
 20
-25.4469
 11
126.573
 21
-25.3532
  0
LINE
  8
0
 10
126.573
 20
-25.3532
 11
126.223
 21
-25.2145
  0
LINE
  8
0
 10
126.223
 20
-25.2145
 11
125.893
 21
-25.033
  0
LINE
  8
0
 10
125.893
 20
-25.033
 11
125.588
 21
-24.8115
  0
LINE
  8
0
 10
125.588
 20
-24.8115
 11
125.313
 21
-24.5536
  0
LINE
  8
0
 10
125.313
 20
-24.5536
 11
125.073
 21
-24.2634
  0
LINE
  8
0
 10
125.073
 20
-24.2634
 11
124.871
 21
-23.9453
  0
LINE
  8
0
 10
124.871
 20
-23.9453
 11
124.711
 21
-23.6044
  0
LINE
  8
0
 10
124.711
 20
-23.6044
 11
124.594
 21
-23.2461
  0
LINE
  8
0
 10
124.594
 20
-23.2461
 11
124.524
 21
-22.876
  0
LINE
  8
0
 10
124.524
 20
-22.876
 11
124.5
 21
-22.5
  0
LINE
  8
0
 10
124.5
 20
-22.5
 11
124.524
 21
-22.124
  0
LINE
  8
0
 10
124.524
 20
-22.124
 11
124.594
 21
-21.7539
  0
LINE
  8
0
 10
124.594
 20
-21.7539
 11
124.711
 21
-21.3956
  0
LINE
  8
0
 10
124.711
 20
-21.3956
 11
124.871
 21
-21.0547
  0
LINE
  8
0
 10
124.871
 20
-21.0547
 11
125.073
 21
-20.7366
  0
LINE
  8
0
 10
125.073
 20
-20.7366
 11
125.313
 21
-20.4464
  0
LINE
  8
0
 10
125.313
 20
-20.4464
 11
125.588
 21
-20.1884
  0
LINE
  8
0
 10
125.588
 20
-20.1884
 11
125.893
 21
-19.967
  0
LINE
  8
0
 10
125.893
 20
-19.967
 11
126.223
 21
-19.7855
  0
LINE
  8
0
 10
126.223
 20
-19.7855
 11
126.573
 21
-19.6468
  0
LINE
  8
0
 10
126.573
 20
-19.6468
 11
126.938
 21
-19.5531
  0
LINE
  8
0
 10
126.938
 20
-19.5531
 11
127.312
 21
-19.5059
  0
LINE
  8
0
 10
127.312
 20
-19.5059
 11
127.688
 21
-19.5059
  0
LINE
  8
0
 10
127.688
 20
-19.5059
 11
128.062
 21
-19.5531
  0
LINE
  8
0
 10
128.062
 20
-19.5531
 11
128.427
 21
-19.6468
  0
LINE
  8
0
 10
128.427
 20
-19.6468
 11
128.777
 21
-19.7855
  0
LINE
  8
0
 10
128.777
 20
-19.7855
 11
129.107
 21
-19.967
  0
LINE
  8
0
 10
129.107
 20
-19.967
 11
129.412
 21
-20.1884
  0
LINE
  8
0
 10
129.412
 20
-20.1884
 11
129.687
 21
-20.4464
  0
LINE
  8
0
 10
129.687
 20
-20.4464
 11
129.927
 21
-20.7366
  0
LINE
  8
0
 10
129.927
 20
-20.7366
 11
130.129
 21
-21.0547
  0
LINE
  8
0
 10
130.129
 20
-21.0547
 11
130.289
 21
-21.3956
  0
LINE
  8
0
 10
130.289
 20
-21.3956
 11
130.406
 21
-21.7539
  0
LINE
  8
0
 10
130.406
 20
-21.7539
 11
130.476
 21
-22.124
  0
LINE
  8
0
 10
130.476
 20
-22.124
 11
130.5
 21
-22.5
  0
LINE
  8
0
 10
130.5
 20
-22.5
 11
130.476
 21
-22.876
  0
LINE
  8
0
 10
130.476
 20
-22.876
 11
130.406
 21
-23.2461
  0
LINE
  8
0
 10
130.406
 20
-23.2461
 11
130.289
 21
-23.6044
  0
LINE
  8
0
 10
130.289
 20
-23.6044
 11
130.129
 21
-23.9453
  0
LINE
  8
0
 10
130.129
 20
-23.9453
 11
129.927
 21
-24.2634
  0
LINE
  8
0
 10
129.927
 20
-24.2634
 11
129.687
 21
-24.5536
  0
LINE
  8
0
 10
129.687
 20
-24.5536
 11
129.412
 21
-24.8115
  0
LINE
  8
0
 10
129.412
 20
-24.8115
 11
129.107
 21
-25.033
  0
LINE
  8
0
 10
129.107
 20
-25.033
 11
128.777
 21
-25.2145
  0
LINE
  8
0
 10
128.777
 20
-25.2145
 11
128.427
 21
-25.3532
  0
LINE
  8
0
 10
128.427
 20
-25.3532
 11
128.062
 21
-25.4469
  0
LINE
  8
0
 10
128.062
 20
-25.4469
 11
127.688
 21
-25.4941
  0
LINE
  8
0
 10
127.688
 20
-25.4941
 11
127.312
 21
-25.4941
  0
LINE
  8
0
 10
-127.688
 20
-25.4941
 11
-128.062
 21
-25.4469
  0
LINE
  8
0
 10
-128.062
 20
-25.4469
 11
-128.427
 21
-25.3532
  0
LINE
  8
0
 10
-128.427
 20
-25.3532
 11
-128.777
 21
-25.2145
  0
LINE
  8
0
 10
-128.777
 20
-25.2145
 11
-129.107
 21
-25.033
  0
LINE
  8
0
 10
-129.107
 20
-25.033
 11
-129.412
 21
-24.8115
  0
LINE
  8
0
 10
-129.412
 20
-24.8115
 11
-129.687
 21
-24.5536
  0
LINE
  8
0
 10
-129.687
 20
-24.5536
 11
-129.927
 21
-24.2634
  0
LINE
  8
0
 10
-129.927
 20
-24.2634
 11
-130.129
 21
-23.9453
  0
LINE
  8
0
 10
-130.129
 20
-23.9453
 11
-130.289
 21
-23.6044
  0
LINE
  8
0
 10
-130.289
 20
-23.6044
 11
-130.406
 21
-23.2461
  0
LINE
  8
0
 10
-130.406
 20
-23.2461
 11
-130.476
 21
-22.876
  0
LINE
  8
0
 10
-130.476
 20
-22.876
 11
-130.5
 21
-22.5
  0
LINE
  8
0
 10
-130.5
 20
-22.5
 11
-130.476
 21
-22.124
  0
LINE
  8
0
 10
-130.476
 20
-22.124
 11
-130.406
 21
-21.7539
  0
LINE
  8
0
 10
-130.406
 20
-21.7539
 11
-130.289
 21
-21.3956
  0
LINE
  8
0
 10
-130.289
 20
-21.3956
 11
-130.129
 21
-21.0547
  0
LINE
  8
0
 10
-130.129
 20
-21.0547
 11
-129.927
 21
-20.7366
  0
LINE
  8
0
 10
-129.927
 20
-20.7366
 11
-129.687
 21
-20.4464
  0
LINE
  8
0
 10
-129.687
 20
-20.4464
 11
-129.412
 21
-20.1884
  0
LINE
  8
0
 10
-129.412
 20
-20.1884
 11
-129.107
 21
-19.967
  0
LINE
  8
0
 10
-129.107
 20
-19.967
 11
-128.777
 21
-19.7855
  0
LINE
  8
0
 10
-128.777
 20
-19.7855
 11
-128.427
 21
-19.6468
  0
LINE
  8
0
 10
-128.427
 20
-19.6468
 11
-128.062
 21
-19.5531
  0
LINE
  8
0
 10
-128.062
 20
-19.5531
 11
-127.688
 21
-19.5059
  0
LINE
  8
0
 10
-127.688
 20
-19.5059
 11
-127.312
 21
-19.5059
  0
LINE
  8
0
 10
-127.312
 20
-19.5059
 11
-126.938
 21
-19.5531
  0
LINE
  8
0
 10
-126.938
 20
-19.5531
 11
-126.573
 21
-19.6468
  0
LINE
  8
0
 10
-126.573
 20
-19.6468
 11
-126.223
 21
-19.7855
  0
LINE
  8
0
 10
-126.223
 20
-19.7855
 11
-125.893
 21
-19.967
  0
LINE
  8
0
 10
-125.893
 20
-19.967
 11
-125.588
 21
-20.1884
  0
LINE
  8
0
 10
-125.588
 20
-20.1884
 11
-125.313
 21
-20.4464
  0
LINE
  8
0
 10
-125.313
 20
-20.4464
 11
-125.073
 21
-20.7366
  0
LINE
  8
0
 10
-125.073
 20
-20.7366
 11
-124.871
 21
-21.0547
  0
LINE
  8
0
 10
-124.871
 20
-21.0547
 11
-124.711
 21
-21.3956
  0
LINE
  8
0
 10
-124.711
 20
-21.3956
 11
-124.594
 21
-21.7539
  0
LINE
  8
0
 10
-124.594
 20
-21.7539
 11
-124.524
 21
-22.124
  0
LINE
  8
0
 10
-124.524
 20
-22.124
 11
-124.5
 21
-22.5
  0
LINE
  8
0
 10
-124.5
 20
-22.5
 11
-124.524
 21
-22.876
  0
LINE
  8
0
 10
-124.524
 20
-22.876
 11
-124.594
 21
-23.2461
  0
LINE
  8
0
 10
-124.594
 20
-23.2461
 11
-124.711
 21
-23.6044
  0
LINE
  8
0
 10
-124.711
 20
-23.6044
 11
-124.871
 21
-23.9453
  0
LINE
  8
0
 10
-124.871
 20
-23.9453
 11
-125.073
 21
-24.2634
  0
LINE
  8
0
 10
-125.073
 20
-24.2634
 11
-125.313
 21
-24.5536
  0
LINE
  8
0
 10
-125.313
 20
-24.5536
 11
-125.588
 21
-24.8115
  0
LINE
  8
0
 10
-125.588
 20
-24.8115
 11
-125.893
 21
-25.033
  0
LINE
  8
0
 10
-125.893
 20
-25.033
 11
-126.223
 21
-25.2145
  0
LINE
  8
0
 10
-126.223
 20
-25.2145
 11
-126.573
 21
-25.3532
  0
LINE
  8
0
 10
-126.573
 20
-25.3532
 11
-126.938
 21
-25.4469
  0
LINE
  8
0
 10
-126.938
 20
-25.4469
 11
-127.312
 21
-25.4941
  0
LINE
  8
0
 10
-127.312
 20
-25.4941
 11
-127.688
 21
-25.4941
  0
ENDSEC
  0
SECTION
  2
OBJECTS
  0
DICTIONARY
  0
ENDSEC
  0
EOF
