<?xml version="1.0" standalone="no"?>
<!DOCTYPE svg PUBLIC "-//W3C//DTD SVG 1.1//EN" "http://www.w3.org/Graphics/SVG/1.1/DTD/svg11.dtd">
<svg width="164mm" height="44mm" viewBox="-82 -76 164 44" xmlns="http://www.w3.org/2000/svg" version="1.1">
<title>OpenSCAD Model</title>
<path d="
M 77.9369,-32.0886 L 78.5451,-32.2447 L 79.1289,-32.4759 L 79.6791,-32.7784 L 80.1871,-33.1474 L 80.6448,-33.5773
 L 81.0451,-34.0611 L 81.3815,-34.5912 L 81.6489,-35.1594 L 81.8429,-35.7566 L 81.9606,-36.3733 L 82,-37
 L 82,-71 L 81.9606,-71.6267 L 81.8429,-72.2434 L 81.6489,-72.8406 L 81.3815,-73.4088 L 81.0451,-73.9389
 L 80.6448,-74.4227 L 80.1871,-74.8526 L 79.6791,-75.2216 L 79.1289,-75.5241 L 78.5451,-75.7553 L 77.9369,-75.9114
 L 77.3139,-75.9901 L -77.3139,-75.9901 L -77.9369,-75.9114 L -78.5451,-75.7553 L -79.1289,-75.5241 L -79.6791,-75.2216
 L -80.1871,-74.8526 L -80.6448,-74.4227 L -81.0451,-73.9389 L -81.3815,-73.4088 L -81.6489,-72.8406 L -81.8429,-72.2434
 L -81.9606,-71.6267 L -82,-71 L -82,-37 L -81.9606,-36.3733 L -81.8429,-35.7566 L -81.6489,-35.1594
 L -81.3815,-34.5912 L -81.0451,-34.0611 L -80.6448,-33.5773 L -80.1871,-33.1474 L -79.6791,-32.7784 L -79.1289,-32.4759
 L -78.5451,-32.2447 L -77.9369,-32.0886 L -77.3139,-32.0099 L 77.3139,-32.0099 z
M 74.8116,-66.0059 L 74.4379,-66.0531 L 74.073,-66.1468 L 73.7227,-66.2855 L 73.3925,-66.467 L 73.0877,-66.6884
 L 72.8131,-66.9464 L 72.573,-67.2366 L 72.3711,-67.5547 L 72.2107,-67.8956 L 72.0943,-68.2539 L 72.0237,-68.624
 L 72,-69 L 72.0237,-69.376 L 72.0943,-69.7461 L 72.2107,-70.1044 L 72.3711,-70.4453 L 72.573,-70.7634
 L 72.8131,-71.0536 L 73.0877,-71.3115 L 73.3925,-71.533 L 73.7227,-71.7145 L 74.073,-71.8532 L 74.4379,-71.9469
 L 74.8116,-71.9941 L 75.1884,-71.9941 L 75.5621,-71.9469 L 75.927,-71.8532 L 76.2773,-71.7145 L 76.6075,-71.533
 L 76.9123,-71.3115 L 77.1869,-71.0536 L 77.427,-70.7634 L 77.6289,-70.4453 L 77.7893,-70.1044 L 77.9057,-69.7461
 L 77.9763,-69.376 L 78,-69 L 77.9763,-68.624 L 77.9057,-68.2539 L 77.7893,-67.8956 L 77.6289,-67.5547
 L 77.427,-67.2366 L 77.1869,-66.9464 L 76.9123,-66.6884 L 76.6075,-66.467 L 76.2773,-66.2855 L 75.927,-66.1468
 L 75.5621,-66.0531 L 75.1884,-66.0059 z
M -75.1884,-66.0059 L -75.5621,-66.0531 L -75.927,-66.1468 L -76.2773,-66.2855 L -76.6075,-66.467 L -76.9123,-66.6884
 L -77.1869,-66.9464 L -77.427,-67.2366 L -77.6289,-67.5547 L -77.7893,-67.8956 L -77.9057,-68.2539 L -77.9763,-68.624
 L -78,-69 L -77.9763,-69.376 L -77.9057,-69.7461 L -77.7893,-70.1044 L -77.6289,-70.4453 L -77.427,-70.7634
 L -77.1869,-71.0536 L -76.9123,-71.3115 L -76.6075,-71.533 L -76.2773,-71.7145 L -75.927,-71.8532 L -75.5621,-71.9469
 L -75.1884,-71.9941 L -74.8116,-71.9941 L -74.4379,-71.9469 L -74.073,-71.8532 L -73.7227,-71.7145 L -73.3925,-71.533
 L -73.0877,-71.3115 L -72.8131,-71.0536 L -72.573,-70.7634 L -72.3711,-70.4453 L -72.2107,-70.1044 L -72.0943,-69.7461
 L -72.0237,-69.376 L -72,-69 L -72.0237,-68.624 L -72.0943,-68.2539 L -72.2107,-67.8956 L -72.3711,-67.5547
 L -72.573,-67.2366 L -72.8131,-66.9464 L -73.0877,-66.6884 L -73.3925,-66.467 L -73.7227,-66.2855 L -74.073,-66.1468
 L -74.4379,-66.0531 L -74.8116,-66.0059 z
M 16.0895,-39.5286 L 14.283,-39.7568 L 12.5192,-40.2097 L 10.8262,-40.88 L 9.2305,-41.7572 L 7.75734,-42.8276
 L 6.42995,-44.0741 L 5.26924,-45.4771 L 4.29355,-47.0146 L 3.51823,-48.6622 L 2.95554,-50.394 L 2.61433,-52.1827
 L 2.5,-54 L 2.61433,-55.8173 L 2.95554,-57.606 L 3.51823,-59.3378 L 4.29355,-60.9854 L 5.26924,-62.5229
 L 6.42995,-63.9259 L 7.75734,-65.1724 L 9.2305,-66.2428 L 10.8262,-67.12 L 12.5192,-67.7903 L 14.283,-68.2432
 L 16.0895,-68.4714 L 17.9105,-68.4714 L 19.717,-68.2432 L 21.4807,-67.7903 L 23.1738,-67.12 L 24.7695,-66.2428
 L 26.2426,-65.1724 L 27.57,-63.9259 L 28.7307,-62.5229 L 29.7064,-60.9854 L 30.4818,-59.3378 L 31.0444,-57.606
 L 31.3857,-55.8173 L 31.5,-54 L 31.3857,-52.1827 L 31.0444,-50.394 L 30.4818,-48.6622 L 29.7064,-47.0146
 L 28.7307,-45.4771 L 27.57,-44.0741 L 26.2426,-42.8276 L 24.7695,-41.7572 L 23.1738,-40.88 L 21.4807,-40.2097
 L 19.717,-39.7568 L 17.9105,-39.5286 z
M -51.9105,-39.5286 L -53.717,-39.7568 L -55.4807,-40.2097 L -57.1738,-40.88 L -58.7695,-41.7572 L -60.2426,-42.8276
 L -61.57,-44.0741 L -62.7307,-45.4771 L -63.7064,-47.0146 L -64.4818,-48.6622 L -65.0444,-50.394 L -65.3857,-52.1827
 L -65.5,-54 L -65.3857,-55.8173 L -65.0444,-57.606 L -64.4818,-59.3378 L -63.7064,-60.9854 L -62.7307,-62.5229
 L -61.57,-63.9259 L -60.2426,-65.1724 L -58.7695,-66.2428 L -57.1738,-67.12 L -55.4807,-67.7903 L -53.717,-68.2432
 L -51.9105,-68.4714 L -50.0895,-68.4714 L -48.283,-68.2432 L -46.5192,-67.7903 L -44.8262,-67.12 L -43.2305,-66.2428
 L -41.7573,-65.1724 L -40.4299,-63.9259 L -39.2692,-62.5229 L -38.2935,-60.9854 L -37.5182,-59.3378 L -36.9555,-57.606
 L -36.6143,-55.8173 L -36.5,-54 L -36.6143,-52.1827 L -36.9555,-50.394 L -37.5182,-48.6622 L -38.2935,-47.0146
 L -39.2692,-45.4771 L -40.4299,-44.0741 L -41.7573,-42.8276 L -43.2305,-41.7572 L -44.8262,-40.88 L -46.5192,-40.2097
 L -48.283,-39.7568 L -50.0895,-39.5286 z
M -17.9105,-39.5286 L -19.717,-39.7568 L -21.4807,-40.2097 L -23.1738,-40.88 L -24.7695,-41.7572 L -26.2426,-42.8276
 L -27.57,-44.0741 L -28.7307,-45.4771 L -29.7064,-47.0146 L -30.4818,-48.6622 L -31.0444,-50.394 L -31.3857,-52.1827
 L -31.5,-54 L -31.3857,-55.8173 L -31.0444,-57.606 L -30.4818,-59.3378 L -29.7064,-60.9854 L -28.7307,-62.5229
 L -27.57,-63.9259 L -26.2426,-65.1724 L -24.7695,-66.2428 L -23.1738,-67.12 L -21.4807,-67.7903 L -19.717,-68.2432
 L -17.9105,-68.4714 L -16.0895,-68.4714 L -14.283,-68.2432 L -12.5192,-67.7903 L -10.8262,-67.12 L -9.2305,-66.2428
 L -7.75734,-65.1724 L -6.42995,-63.9259 L -5.26924,-62.5229 L -4.29355,-60.9854 L -3.51823,-59.3378 L -2.95554,-57.606
 L -2.61433,-55.8173 L -2.5,-54 L -2.61433,-52.1827 L -2.95554,-50.394 L -3.51823,-48.6622 L -4.29355,-47.0146
 L -5.26924,-45.4771 L -6.42995,-44.0741 L -7.75734,-42.8276 L -9.2305,-41.7572 L -10.8262,-40.88 L -12.5192,-40.2097
 L -14.283,-39.7568 L -16.0895,-39.5286 z
M 50.0895,-39.5286 L 48.283,-39.7568 L 46.5192,-40.2097 L 44.8262,-40.88 L 43.2305,-41.7572 L 41.7573,-42.8276
 L 40.4299,-44.0741 L 39.2692,-45.4771 L 38.2935,-47.0146 L 37.5182,-48.6622 L 36.9555,-50.394 L 36.6143,-52.1827
 L 36.5,-54 L 36.6143,-55.8173 L 36.9555,-57.606 L 37.5182,-59.3378 L 38.2935,-60.9854 L 39.2692,-62.5229
 L 40.4299,-63.9259 L 41.7573,-65.1724 L 43.2305,-66.2428 L 44.8262,-67.12 L 46.5192,-67.7903 L 48.283,-68.2432
 L 50.0895,-68.4714 L 51.9105,-68.4714 L 53.717,-68.2432 L 55.4807,-67.7903 L 57.1738,-67.12 L 58.7695,-66.2428
 L 60.2426,-65.1724 L 61.57,-63.9259 L 62.7307,-62.5229 L 63.7064,-60.9854 L 64.4818,-59.3378 L 65.0444,-57.606
 L 65.3857,-55.8173 L 65.5,-54 L 65.3857,-52.1827 L 65.0444,-50.394 L 64.4818,-48.6622 L 63.7064,-47.0146
 L 62.7307,-45.4771 L 61.57,-44.0741 L 60.2426,-42.8276 L 58.7695,-41.7572 L 57.1738,-40.88 L 55.4807,-40.2097
 L 53.717,-39.7568 L 51.9105,-39.5286 z
M 74.9058,-60.0029 L 74.7189,-60.0266 L 74.5365,-60.0734 L 74.3613,-60.1427 L 74.1963,-60.2335 L 74.0439,-60.3442
 L 73.9065,-60.4732 L 73.7865,-60.6183 L 73.6855,-60.7774 L 73.6053,-60.9478 L 73.5471,-61.127 L 73.5118,-61.312
 L 73.5,-61.5 L 73.5118,-61.688 L 73.5471,-61.873 L 73.6053,-62.0522 L 73.6855,-62.2226 L 73.7865,-62.3817
 L 73.9065,-62.5268 L 74.0439,-62.6558 L 74.1963,-62.7665 L 74.3613,-62.8572 L 74.5365,-62.9266 L 74.7189,-62.9734
 L 74.9058,-62.997 L 75.0942,-62.997 L 75.2811,-62.9734 L 75.4635,-62.9266 L 75.6387,-62.8572 L 75.8037,-62.7665
 L 75.9561,-62.6558 L 76.0934,-62.5268 L 76.2135,-62.3817 L 76.3145,-62.2226 L 76.3947,-62.0522 L 76.4529,-61.873
 L 76.4882,-61.688 L 76.5,-61.5 L 76.4882,-61.312 L 76.4529,-61.127 L 76.3947,-60.9478 L 76.3145,-60.7774
 L 76.2135,-60.6183 L 76.0934,-60.4732 L 75.9561,-60.3442 L 75.8037,-60.2335 L 75.6387,-60.1427 L 75.4635,-60.0734
 L 75.2811,-60.0266 L 75.0942,-60.0029 z
M -75.0942,-60.0029 L -75.2811,-60.0266 L -75.4635,-60.0734 L -75.6387,-60.1427 L -75.8037,-60.2335 L -75.9561,-60.3442
 L -76.0934,-60.4732 L -76.2135,-60.6183 L -76.3145,-60.7774 L -76.3947,-60.9478 L -76.4529,-61.127 L -76.4882,-61.312
 L -76.5,-61.5 L -76.4882,-61.688 L -76.4529,-61.873 L -76.3947,-62.0522 L -76.3145,-62.2226 L -76.2135,-62.3817
 L -76.0934,-62.5268 L -75.9561,-62.6558 L -75.8037,-62.7665 L -75.6387,-62.8572 L -75.4635,-62.9266 L -75.2811,-62.9734
 L -75.0942,-62.997 L -74.9058,-62.997 L -74.7189,-62.9734 L -74.5365,-62.9266 L -74.3613,-62.8572 L -74.1963,-62.7665
 L -74.0439,-62.6558 L -73.9065,-62.5268 L -73.7865,-62.3817 L -73.6855,-62.2226 L -73.6053,-62.0522 L -73.5471,-61.873
 L -73.5118,-61.688 L -73.5,-61.5 L -73.5118,-61.312 L -73.5471,-61.127 L -73.6053,-60.9478 L -73.6855,-60.7774
 L -73.7865,-60.6183 L -73.9065,-60.4732 L -74.0439,-60.3442 L -74.1963,-60.2335 L -74.3613,-60.1427 L -74.5365,-60.0734
 L -74.7189,-60.0266 L -74.9058,-60.0029 z
M 74.8116,-51.0059 L 74.4379,-51.0531 L 74.073,-51.1468 L 73.7227,-51.2855 L 73.3925,-51.467 L 73.0877,-51.6885
 L 72.8131,-51.9464 L 72.573,-52.2366 L 72.3711,-52.5547 L 72.2107,-52.8956 L 72.0943,-53.2539 L 72.0237,-53.624
 L 72,-54 L 72.0237,-54.376 L 72.0943,-54.7461 L 72.2107,-55.1044 L 72.3711,-55.4453 L 72.573,-55.7634
 L 72.8131,-56.0536 L 73.0877,-56.3115 L 73.3925,-56.533 L 73.7227,-56.7145 L 74.073,-56.8532 L 74.4379,-56.9469
 L 74.8116,-56.9941 L 75.1884,-56.9941 L 75.5621,-56.9469 L 75.927,-56.8532 L 76.2773,-56.7145 L 76.6075,-56.533
 L 76.9123,-56.3115 L 77.1869,-56.0536 L 77.427,-55.7634 L 77.6289,-55.4453 L 77.7893,-55.1044 L 77.9057,-54.7461
 L 77.9763,-54.376 L 78,-54 L 77.9763,-53.624 L 77.9057,-53.2539 L 77.7893,-52.8956 L 77.6289,-52.5547
 L 77.427,-52.2366 L 77.1869,-51.9464 L 76.9123,-51.6885 L 76.6075,-51.467 L 76.2773,-51.2855 L 75.927,-51.1468
 L 75.5621,-51.0531 L 75.1884,-51.0059 z
M -75.1884,-51.0059 L -75.5621,-51.0531 L -75.927,-51.1468 L -76.2773,-51.2855 L -76.6075,-51.467 L -76.9123,-51.6885
 L -77.1869,-51.9464 L -77.427,-52.2366 L -77.6289,-52.5547 L -77.7893,-52.8956 L -77.9057,-53.2539 L -77.9763,-53.624
 L -78,-54 L -77.9763,-54.376 L -77.9057,-54.7461 L -77.7893,-55.1044 L -77.6289,-55.4453 L -77.427,-55.7634
 L -77.1869,-56.0536 L -76.9123,-56.3115 L -76.6075,-56.533 L -76.2773,-56.7145 L -75.927,-56.8532 L -75.5621,-56.9469
 L -75.1884,-56.9941 L -74.8116,-56.9941 L -74.4379,-56.9469 L -74.073,-56.8532 L -73.7227,-56.7145 L -73.3925,-56.533
 L -73.0877,-56.3115 L -72.8131,-56.0536 L -72.573,-55.7634 L -72.3711,-55.4453 L -72.2107,-55.1044 L -72.0943,-54.7461
 L -72.0237,-54.376 L -72,-54 L -72.0237,-53.624 L -72.0943,-53.2539 L -72.2107,-52.8956 L -72.3711,-52.5547
 L -72.573,-52.2366 L -72.8131,-51.9464 L -73.0877,-51.6885 L -73.3925,-51.467 L -73.7227,-51.2855 L -74.073,-51.1468
 L -74.4379,-51.0531 L -74.8116,-51.0059 z
M 74.9058,-45.003 L 74.7189,-45.0266 L 74.5365,-45.0734 L 74.3613,-45.1428 L 74.1963,-45.2335 L 74.0439,-45.3442
 L 73.9065,-45.4732 L 73.7865,-45.6183 L 73.6855,-45.7774 L 73.6053,-45.9478 L 73.5471,-46.127 L 73.5118,-46.312
 L 73.5,-46.5 L 73.5118,-46.688 L 73.5471,-46.873 L 73.6053,-47.0522 L 73.6855,-47.2226 L 73.7865,-47.3817
 L 73.9065,-47.5268 L 74.0439,-47.6558 L 74.1963,-47.7665 L 74.3613,-47.8573 L 74.5365,-47.9266 L 74.7189,-47.9734
 L 74.9058,-47.9971 L 75.0942,-47.9971 L 75.2811,-47.9734 L 75.4635,-47.9266 L 75.6387,-47.8573 L 75.8037,-47.7665
 L 75.9561,-47.6558 L 76.0934,-47.5268 L 76.2135,-47.3817 L 76.3145,-47.2226 L 76.3947,-47.0522 L 76.4529,-46.873
 L 76.4882,-46.688 L 76.5,-46.5 L 76.4882,-46.312 L 76.4529,-46.127 L 76.3947,-45.9478 L 76.3145,-45.7774
 L 76.2135,-45.6183 L 76.0934,-45.4732 L 75.9561,-45.3442 L 75.8037,-45.2335 L 75.6387,-45.1428 L 75.4635,-45.0734
 L 75.2811,-45.0266 L 75.0942,-45.003 z
M -75.0942,-45.003 L -75.2811,-45.0266 L -75.4635,-45.0734 L -75.6387,-45.1428 L -75.8037,-45.2335 L -75.9561,-45.3442
 L -76.0934,-45.4732 L -76.2135,-45.6183 L -76.3145,-45.7774 L -76.3947,-45.9478 L -76.4529,-46.127 L -76.4882,-46.312
 L -76.5,-46.5 L -76.4882,-46.688 L -76.4529,-46.873 L -76.3947,-47.0522 L -76.3145,-47.2226 L -76.2135,-47.3817
 L -76.0934,-47.5268 L -75.9561,-47.6558 L -75.8037,-47.7665 L -75.6387,-47.8573 L -75.4635,-47.9266 L -75.2811,-47.9734
 L -75.0942,-47.9971 L -74.9058,-47.9971 L -74.7189,-47.9734 L -74.5365,-47.9266 L -74.3613,-47.8573 L -74.1963,-47.7665
 L -74.0439,-47.6558 L -73.9065,-47.5268 L -73.7865,-47.3817 L -73.6855,-47.2226 L -73.6053,-47.0522 L -73.5471,-46.873
 L -73.5118,-46.688 L -73.5,-46.5 L -73.5118,-46.312 L -73.5471,-46.127 L -73.6053,-45.9478 L -73.6855,-45.7774
 L -73.7865,-45.6183 L -73.9065,-45.4732 L -74.0439,-45.3442 L -74.1963,-45.2335 L -74.3613,-45.1428 L -74.5365,-45.0734
 L -74.7189,-45.0266 L -74.9058,-45.003 z
M -75.1884,-36.0059 L -75.5621,-36.0531 L -75.927,-36.1468 L -76.2773,-36.2855 L -76.6075,-36.467 L -76.9123,-36.6885
 L -77.1869,-36.9464 L -77.427,-37.2366 L -77.6289,-37.5547 L -77.7893,-37.8956 L -77.9057,-38.2539 L -77.9763,-38.624
 L -78,-39 L -77.9763,-39.376 L -77.9057,-39.7461 L -77.7893,-40.1044 L -77.6289,-40.4453 L -77.427,-40.7634
 L -77.1869,-41.0536 L -76.9123,-41.3116 L -76.6075,-41.533 L -76.2773,-41.7145 L -75.927,-41.8532 L -75.5621,-41.9469
 L -75.1884,-41.9941 L -74.8116,-41.9941 L -74.4379,-41.9469 L -74.073,-41.8532 L -73.7227,-41.7145 L -73.3925,-41.533
 L -73.0877,-41.3116 L -72.8131,-41.0536 L -72.573,-40.7634 L -72.3711,-40.4453 L -72.2107,-40.1044 L -72.0943,-39.7461
 L -72.0237,-39.376 L -72,-39 L -72.0237,-38.624 L -72.0943,-38.2539 L -72.2107,-37.8956 L -72.3711,-37.5547
 L -72.573,-37.2366 L -72.8131,-36.9464 L -73.0877,-36.6885 L -73.3925,-36.467 L -73.7227,-36.2855 L -74.073,-36.1468
 L -74.4379,-36.0531 L -74.8116,-36.0059 z
M 74.8116,-36.0059 L 74.4379,-36.0531 L 74.073,-36.1468 L 73.7227,-36.2855 L 73.3925,-36.467 L 73.0877,-36.6885
 L 72.8131,-36.9464 L 72.573,-37.2366 L 72.3711,-37.5547 L 72.2107,-37.8956 L 72.0943,-38.2539 L 72.0237,-38.624
 L 72,-39 L 72.0237,-39.376 L 72.0943,-39.7461 L 72.2107,-40.1044 L 72.3711,-40.4453 L 72.573,-40.7634
 L 72.8131,-41.0536 L 73.0877,-41.3116 L 73.3925,-41.533 L 73.7227,-41.7145 L 74.073,-41.8532 L 74.4379,-41.9469
 L 74.8116,-41.9941 L 75.1884,-41.9941 L 75.5621,-41.9469 L 75.927,-41.8532 L 76.2773,-41.7145 L 76.6075,-41.533
 L 76.9123,-41.3116 L 77.1869,-41.0536 L 77.427,-40.7634 L 77.6289,-40.4453 L 77.7893,-40.1044 L 77.9057,-39.7461
 L 77.9763,-39.376 L 78,-39 L 77.9763,-38.624 L 77.9057,-38.2539 L 77.7893,-37.8956 L 77.6289,-37.5547
 L 77.427,-37.2366 L 77.1869,-36.9464 L 76.9123,-36.6885 L 76.6075,-36.467 L 76.2773,-36.2855 L 75.927,-36.1468
 L 75.5621,-36.0531 L 75.1884,-36.0059 z
" stroke="black" fill="lightgray" stroke-width="0.5"/>
</svg>
