<?xml version="1.0" standalone="no"?>
<!DOCTYPE svg PUBLIC "-//W3C//DTD SVG 1.1//EN" "http://www.w3.org/Graphics/SVG/1.1/DTD/svg11.dtd">
<svg width="524mm" height="104mm" viewBox="-262 -52 524 104" xmlns="http://www.w3.org/2000/svg" version="1.1">
<title>OpenSCAD Model</title>
<path d="
M 257.937,51.9114 L 258.545,51.7553 L 259.129,51.5241 L 259.679,51.2216 L 260.187,50.8526 L 260.645,50.4227
 L 261.045,49.9389 L 261.382,49.4088 L 261.649,48.8406 L 261.843,48.2434 L 261.961,47.6267 L 262,47
 L 262,-47 L 261.961,-47.6267 L 261.843,-48.2434 L 261.649,-48.8406 L 261.382,-49.4088 L 261.045,-49.9389
 L 260.645,-50.4227 L 260.187,-50.8526 L 259.679,-51.2216 L 259.129,-51.5241 L 258.545,-51.7553 L 257.937,-51.9114
 L 257.314,-51.9901 L -257.314,-51.9901 L -257.937,-51.9114 L -258.545,-51.7553 L -259.129,-51.5241 L -259.679,-51.2216
 L -260.187,-50.8526 L -260.645,-50.4227 L -261.045,-49.9389 L -261.382,-49.4088 L -261.649,-48.8406 L -261.843,-48.2434
 L -261.961,-47.6267 L -262,-47 L -262,47 L -261.961,47.6267 L -261.843,48.2434 L -261.649,48.8406
 L -261.382,49.4088 L -261.045,49.9389 L -260.645,50.4227 L -260.187,50.8526 L -259.679,51.2216 L -259.129,51.5241
 L -258.545,51.7553 L -257.937,51.9114 L -257.314,51.9901 L 257.314,51.9901 z
M 254.812,-42.0059 L 254.438,-42.0531 L 254.073,-42.1468 L 253.723,-42.2855 L 253.393,-42.467 L 253.088,-42.6885
 L 252.813,-42.9464 L 252.573,-43.2366 L 252.371,-43.5547 L 252.211,-43.8956 L 252.094,-44.2539 L 252.024,-44.624
 L 252,-45 L 252.024,-45.376 L 252.094,-45.7461 L 252.211,-46.1044 L 252.371,-46.4453 L 252.573,-46.7634
 L 252.813,-47.0536 L 253.088,-47.3115 L 253.393,-47.533 L 253.723,-47.7145 L 254.073,-47.8532 L 254.438,-47.9469
 L 254.812,-47.9941 L 255.188,-47.9941 L 255.562,-47.9469 L 255.927,-47.8532 L 256.277,-47.7145 L 256.607,-47.533
 L 256.912,-47.3115 L 257.187,-47.0536 L 257.427,-46.7634 L 257.629,-46.4453 L 257.789,-46.1044 L 257.906,-45.7461
 L 257.976,-45.376 L 258,-45 L 257.976,-44.624 L 257.906,-44.2539 L 257.789,-43.8956 L 257.629,-43.5547
 L 257.427,-43.2366 L 257.187,-42.9464 L 256.912,-42.6885 L 256.607,-42.467 L 256.277,-42.2855 L 255.927,-42.1468
 L 255.562,-42.0531 L 255.188,-42.0059 z
M -255.188,-42.0059 L -255.562,-42.0531 L -255.927,-42.1468 L -256.277,-42.2855 L -256.607,-42.467 L -256.912,-42.6885
 L -257.187,-42.9464 L -257.427,-43.2366 L -257.629,-43.5547 L -257.789,-43.8956 L -257.906,-44.2539 L -257.976,-44.624
 L -258,-45 L -257.976,-45.376 L -257.906,-45.7461 L -257.789,-46.1044 L -257.629,-46.4453 L -257.427,-46.7634
 L -257.187,-47.0536 L -256.912,-47.3115 L -256.607,-47.533 L -256.277,-47.7145 L -255.927,-47.8532 L -255.562,-47.9469
 L -255.188,-47.9941 L -254.812,-47.9941 L -254.438,-47.9469 L -254.073,-47.8532 L -253.723,-47.7145 L -253.393,-47.533
 L -253.088,-47.3115 L -252.813,-47.0536 L -252.573,-46.7634 L -252.371,-46.4453 L -252.211,-46.1044 L -252.094,-45.7461
 L -252.024,-45.376 L -252,-45 L -252.024,-44.624 L -252.094,-44.2539 L -252.211,-43.8956 L -252.371,-43.5547
 L -252.573,-43.2366 L -252.813,-42.9464 L -253.088,-42.6885 L -253.393,-42.467 L -253.723,-42.2855 L -254.073,-42.1468
 L -254.438,-42.0531 L -254.812,-42.0059 z
M -102.983,47.4063 L -108.901,46.6586 L -114.678,45.1752 L -120.225,42.9793 L -125.452,40.1056 L -130.278,36.5994
 L -134.626,32.516 L -138.428,27.9198 L -141.625,22.8833 L -144.164,17.4859 L -146.008,11.8128 L -147.125,5.95332
 L -147.5,-0 L -147.125,-5.95332 L -146.008,-11.8128 L -144.164,-17.4859 L -141.625,-22.8833 L -138.428,-27.9198
 L -134.626,-32.516 L -130.278,-36.5994 L -125.452,-40.1056 L -120.225,-42.9793 L -114.678,-45.1752 L -108.901,-46.6586
 L -102.983,-47.4063 L -97.0174,-47.4063 L -91.0994,-46.6586 L -85.3217,-45.1752 L -79.7755,-42.9793 L -74.5482,-40.1056
 L -69.7224,-36.5994 L -65.374,-32.516 L -61.5717,-27.9198 L -58.3754,-22.8833 L -55.8356,-17.4859 L -53.9923,-11.8128
 L -52.8745,-5.95332 L -52.5,-0 L -52.8745,5.95332 L -53.9923,11.8128 L -55.8356,17.4859 L -58.3754,22.8833
 L -61.5717,27.9198 L -65.374,32.516 L -69.7224,36.5994 L -74.5482,40.1056 L -79.7755,42.9793 L -85.3217,45.1752
 L -91.0994,46.6586 L -97.0174,47.4063 z
M -2.98254,47.4063 L -8.9006,46.6586 L -14.6783,45.1752 L -20.2245,42.9793 L -25.4518,40.1056 L -30.2776,36.5994
 L -34.626,32.516 L -38.4283,27.9198 L -41.6246,22.8833 L -44.1644,17.4859 L -46.0077,11.8128 L -47.1254,5.95332
 L -47.5,-0 L -47.1254,-5.95332 L -46.0077,-11.8128 L -44.1644,-17.4859 L -41.6246,-22.8833 L -38.4283,-27.9198
 L -34.626,-32.516 L -30.2776,-36.5994 L -25.4518,-40.1056 L -20.2245,-42.9793 L -14.6783,-45.1752 L -8.9006,-46.6586
 L -2.98254,-47.4063 L 2.98254,-47.4063 L 8.9006,-46.6586 L 14.6783,-45.1752 L 20.2245,-42.9793 L 25.4518,-40.1056
 L 30.2776,-36.5994 L 34.626,-32.516 L 38.4283,-27.9198 L 41.6246,-22.8833 L 44.1644,-17.4859 L 46.0077,-11.8128
 L 47.1254,-5.95332 L 47.5,-0 L 47.1254,5.95332 L 46.0077,11.8128 L 44.1644,17.4859 L 41.6246,22.8833
 L 38.4283,27.9198 L 34.626,32.516 L 30.2776,36.5994 L 25.4518,40.1056 L 20.2245,42.9793 L 14.6783,45.1752
 L 8.9006,46.6586 L 2.98254,47.4063 z
M 97.0174,47.4063 L 91.0994,46.6586 L 85.3217,45.1752 L 79.7755,42.9793 L 74.5482,40.1056 L 69.7224,36.5994
 L 65.374,32.516 L 61.5717,27.9198 L 58.3754,22.8833 L 55.8356,17.4859 L 53.9923,11.8128 L 52.8745,5.95332
 L 52.5,-0 L 52.8745,-5.95332 L 53.9923,-11.8128 L 55.8356,-17.4859 L 58.3754,-22.8833 L 61.5717,-27.9198
 L 65.374,-32.516 L 69.7224,-36.5994 L 74.5482,-40.1056 L 79.7755,-42.9793 L 85.3217,-45.1752 L 91.0994,-46.6586
 L 97.0174,-47.4063 L 102.983,-47.4063 L 108.901,-46.6586 L 114.678,-45.1752 L 120.225,-42.9793 L 125.452,-40.1056
 L 130.278,-36.5994 L 134.626,-32.516 L 138.428,-27.9198 L 141.625,-22.8833 L 144.164,-17.4859 L 146.008,-11.8128
 L 147.125,-5.95332 L 147.5,-0 L 147.125,5.95332 L 146.008,11.8128 L 144.164,17.4859 L 141.625,22.8833
 L 138.428,27.9198 L 134.626,32.516 L 130.278,36.5994 L 125.452,40.1056 L 120.225,42.9793 L 114.678,45.1752
 L 108.901,46.6586 L 102.983,47.4063 z
M -202.983,47.4063 L -208.901,46.6586 L -214.678,45.1752 L -220.225,42.9793 L -225.452,40.1056 L -230.278,36.5994
 L -234.626,32.516 L -238.428,27.9198 L -241.625,22.8833 L -244.164,17.4859 L -246.008,11.8128 L -247.125,5.95332
 L -247.5,-0 L -247.125,-5.95332 L -246.008,-11.8128 L -244.164,-17.4859 L -241.625,-22.8833 L -238.428,-27.9198
 L -234.626,-32.516 L -230.278,-36.5994 L -225.452,-40.1056 L -220.225,-42.9793 L -214.678,-45.1752 L -208.901,-46.6586
 L -202.983,-47.4063 L -197.017,-47.4063 L -191.099,-46.6586 L -185.322,-45.1752 L -179.775,-42.9793 L -174.548,-40.1056
 L -169.722,-36.5994 L -165.374,-32.516 L -161.572,-27.9198 L -158.375,-22.8833 L -155.836,-17.4859 L -153.992,-11.8128
 L -152.875,-5.95332 L -152.5,-0 L -152.875,5.95332 L -153.992,11.8128 L -155.836,17.4859 L -158.375,22.8833
 L -161.572,27.9198 L -165.374,32.516 L -169.722,36.5994 L -174.548,40.1056 L -179.775,42.9793 L -185.322,45.1752
 L -191.099,46.6586 L -197.017,47.4063 z
M 197.017,47.4063 L 191.099,46.6586 L 185.322,45.1752 L 179.775,42.9793 L 174.548,40.1056 L 169.722,36.5994
 L 165.374,32.516 L 161.572,27.9198 L 158.375,22.8833 L 155.836,17.4859 L 153.992,11.8128 L 152.875,5.95332
 L 152.5,-0 L 152.875,-5.95332 L 153.992,-11.8128 L 155.836,-17.4859 L 158.375,-22.8833 L 161.572,-27.9198
 L 165.374,-32.516 L 169.722,-36.5994 L 174.548,-40.1056 L 179.775,-42.9793 L 185.322,-45.1752 L 191.099,-46.6586
 L 197.017,-47.4063 L 202.983,-47.4063 L 208.901,-46.6586 L 214.678,-45.1752 L 220.225,-42.9793 L 225.452,-40.1056
 L 230.278,-36.5994 L 234.626,-32.516 L 238.428,-27.9198 L 241.625,-22.8833 L 244.164,-17.4859 L 246.008,-11.8128
 L 247.125,-5.95332 L 247.5,-0 L 247.125,5.95332 L 246.008,11.8128 L 244.164,17.4859 L 241.625,22.8833
 L 238.428,27.9198 L 234.626,32.516 L 230.278,36.5994 L 225.452,40.1056 L 220.225,42.9793 L 214.678,45.1752
 L 208.901,46.6586 L 202.983,47.4063 z
M -255.094,-36.003 L -255.281,-36.0266 L -255.464,-36.0734 L -255.639,-36.1428 L -255.804,-36.2335 L -255.956,-36.3442
 L -256.093,-36.4732 L -256.214,-36.6183 L -256.314,-36.7774 L -256.395,-36.9478 L -256.453,-37.127 L -256.488,-37.312
 L -256.5,-37.5 L -256.488,-37.688 L -256.453,-37.873 L -256.395,-38.0522 L -256.314,-38.2226 L -256.214,-38.3817
 L -256.093,-38.5268 L -255.956,-38.6558 L -255.804,-38.7665 L -255.639,-38.8572 L -255.464,-38.9266 L -255.281,-38.9734
 L -255.094,-38.997 L -254.906,-38.997 L -254.719,-38.9734 L -254.536,-38.9266 L -254.361,-38.8572 L -254.196,-38.7665
 L -254.044,-38.6558 L -253.907,-38.5268 L -253.786,-38.3817 L -253.686,-38.2226 L -253.605,-38.0522 L -253.547,-37.873
 L -253.512,-37.688 L -253.5,-37.5 L -253.512,-37.312 L -253.547,-37.127 L -253.605,-36.9478 L -253.686,-36.7774
 L -253.786,-36.6183 L -253.907,-36.4732 L -254.044,-36.3442 L -254.196,-36.2335 L -254.361,-36.1428 L -254.536,-36.0734
 L -254.719,-36.0266 L -254.906,-36.003 z
M 254.906,-36.003 L 254.719,-36.0266 L 254.536,-36.0734 L 254.361,-36.1428 L 254.196,-36.2335 L 254.044,-36.3442
 L 253.907,-36.4732 L 253.786,-36.6183 L 253.686,-36.7774 L 253.605,-36.9478 L 253.547,-37.127 L 253.512,-37.312
 L 253.5,-37.5 L 253.512,-37.688 L 253.547,-37.873 L 253.605,-38.0522 L 253.686,-38.2226 L 253.786,-38.3817
 L 253.907,-38.5268 L 254.044,-38.6558 L 254.196,-38.7665 L 254.361,-38.8572 L 254.536,-38.9266 L 254.719,-38.9734
 L 254.906,-38.997 L 255.094,-38.997 L 255.281,-38.9734 L 255.464,-38.9266 L 255.639,-38.8572 L 255.804,-38.7665
 L 255.956,-38.6558 L 256.093,-38.5268 L 256.214,-38.3817 L 256.314,-38.2226 L 256.395,-38.0522 L 256.453,-37.873
 L 256.488,-37.688 L 256.5,-37.5 L 256.488,-37.312 L 256.453,-37.127 L 256.395,-36.9478 L 256.314,-36.7774
 L 256.214,-36.6183 L 256.093,-36.4732 L 255.956,-36.3442 L 255.804,-36.2335 L 255.639,-36.1428 L 255.464,-36.0734
 L 255.281,-36.0266 L 255.094,-36.003 z
M 254.812,-27.0059 L 254.438,-27.0531 L 254.073,-27.1468 L 253.723,-27.2855 L 253.393,-27.467 L 253.088,-27.6884
 L 252.813,-27.9464 L 252.573,-28.2366 L 252.371,-28.5547 L 252.211,-28.8956 L 252.094,-29.2539 L 252.024,-29.624
 L 252,-30 L 252.024,-30.376 L 252.094,-30.7461 L 252.211,-31.1044 L 252.371,-31.4453 L 252.573,-31.7634
 L 252.813,-32.0536 L 253.088,-32.3115 L 253.393,-32.533 L 253.723,-32.7145 L 254.073,-32.8532 L 254.438,-32.9469
 L 254.812,-32.9941 L 255.188,-32.9941 L 255.562,-32.9469 L 255.927,-32.8532 L 256.277,-32.7145 L 256.607,-32.533
 L 256.912,-32.3115 L 257.187,-32.0536 L 257.427,-31.7634 L 257.629,-31.4453 L 257.789,-31.1044 L 257.906,-30.7461
 L 257.976,-30.376 L 258,-30 L 257.976,-29.624 L 257.906,-29.2539 L 257.789,-28.8956 L 257.629,-28.5547
 L 257.427,-28.2366 L 257.187,-27.9464 L 256.912,-27.6884 L 256.607,-27.467 L 256.277,-27.2855 L 255.927,-27.1468
 L 255.562,-27.0531 L 255.188,-27.0059 z
M -255.188,-27.0059 L -255.562,-27.0531 L -255.927,-27.1468 L -256.277,-27.2855 L -256.607,-27.467 L -256.912,-27.6884
 L -257.187,-27.9464 L -257.427,-28.2366 L -257.629,-28.5547 L -257.789,-28.8956 L -257.906,-29.2539 L -257.976,-29.624
 L -258,-30 L -257.976,-30.376 L -257.906,-30.7461 L -257.789,-31.1044 L -257.629,-31.4453 L -257.427,-31.7634
 L -257.187,-32.0536 L -256.912,-32.3115 L -256.607,-32.533 L -256.277,-32.7145 L -255.927,-32.8532 L -255.562,-32.9469
 L -255.188,-32.9941 L -254.812,-32.9941 L -254.438,-32.9469 L -254.073,-32.8532 L -253.723,-32.7145 L -253.393,-32.533
 L -253.088,-32.3115 L -252.813,-32.0536 L -252.573,-31.7634 L -252.371,-31.4453 L -252.211,-31.1044 L -252.094,-30.7461
 L -252.024,-30.376 L -252,-30 L -252.024,-29.624 L -252.094,-29.2539 L -252.211,-28.8956 L -252.371,-28.5547
 L -252.573,-28.2366 L -252.813,-27.9464 L -253.088,-27.6884 L -253.393,-27.467 L -253.723,-27.2855 L -254.073,-27.1468
 L -254.438,-27.0531 L -254.812,-27.0059 z
M 254.906,-21.003 L 254.719,-21.0266 L 254.536,-21.0734 L 254.361,-21.1427 L 254.196,-21.2335 L 254.044,-21.3442
 L 253.907,-21.4732 L 253.786,-21.6183 L 253.686,-21.7774 L 253.605,-21.9478 L 253.547,-22.127 L 253.512,-22.312
 L 253.5,-22.5 L 253.512,-22.688 L 253.547,-22.873 L 253.605,-23.0522 L 253.686,-23.2226 L 253.786,-23.3817
 L 253.907,-23.5268 L 254.044,-23.6558 L 254.196,-23.7665 L 254.361,-23.8572 L 254.536,-23.9266 L 254.719,-23.9734
 L 254.906,-23.997 L 255.094,-23.997 L 255.281,-23.9734 L 255.464,-23.9266 L 255.639,-23.8572 L 255.804,-23.7665
 L 255.956,-23.6558 L 256.093,-23.5268 L 256.214,-23.3817 L 256.314,-23.2226 L 256.395,-23.0522 L 256.453,-22.873
 L 256.488,-22.688 L 256.5,-22.5 L 256.488,-22.312 L 256.453,-22.127 L 256.395,-21.9478 L 256.314,-21.7774
 L 256.214,-21.6183 L 256.093,-21.4732 L 255.956,-21.3442 L 255.804,-21.2335 L 255.639,-21.1427 L 255.464,-21.0734
 L 255.281,-21.0266 L 255.094,-21.003 z
M -255.094,-21.003 L -255.281,-21.0266 L -255.464,-21.0734 L -255.639,-21.1427 L -255.804,-21.2335 L -255.956,-21.3442
 L -256.093,-21.4732 L -256.214,-21.6183 L -256.314,-21.7774 L -256.395,-21.9478 L -256.453,-22.127 L -256.488,-22.312
 L -256.5,-22.5 L -256.488,-22.688 L -256.453,-22.873 L -256.395,-23.0522 L -256.314,-23.2226 L -256.214,-23.3817
 L -256.093,-23.5268 L -255.956,-23.6558 L -255.804,-23.7665 L -255.639,-23.8572 L -255.464,-23.9266 L -255.281,-23.9734
 L -255.094,-23.997 L -254.906,-23.997 L -254.719,-23.9734 L -254.536,-23.9266 L -254.361,-23.8572 L -254.196,-23.7665
 L -254.044,-23.6558 L -253.907,-23.5268 L -253.786,-23.3817 L -253.686,-23.2226 L -253.605,-23.0522 L -253.547,-22.873
 L -253.512,-22.688 L -253.5,-22.5 L -253.512,-22.312 L -253.547,-22.127 L -253.605,-21.9478 L -253.686,-21.7774
 L -253.786,-21.6183 L -253.907,-21.4732 L -254.044,-21.3442 L -254.196,-21.2335 L -254.361,-21.1427 L -254.536,-21.0734
 L -254.719,-21.0266 L -254.906,-21.003 z
M 254.812,-12.0059 L 254.438,-12.0531 L 254.073,-12.1468 L 253.723,-12.2855 L 253.393,-12.467 L 253.088,-12.6884
 L 252.813,-12.9464 L 252.573,-13.2366 L 252.371,-13.5547 L 252.211,-13.8956 L 252.094,-14.2539 L 252.024,-14.624
 L 252,-15 L 252.024,-15.376 L 252.094,-15.7461 L 252.211,-16.1044 L 252.371,-16.4453 L 252.573,-16.7634
 L 252.813,-17.0536 L 253.088,-17.3115 L 253.393,-17.533 L 253.723,-17.7145 L 254.073,-17.8532 L 254.438,-17.9469
 L 254.812,-17.9941 L 255.188,-17.9941 L 255.562,-17.9469 L 255.927,-17.8532 L 256.277,-17.7145 L 256.607,-17.533
 L 256.912,-17.3115 L 257.187,-17.0536 L 257.427,-16.7634 L 257.629,-16.4453 L 257.789,-16.1044 L 257.906,-15.7461
 L 257.976,-15.376 L 258,-15 L 257.976,-14.624 L 257.906,-14.2539 L 257.789,-13.8956 L 257.629,-13.5547
 L 257.427,-13.2366 L 257.187,-12.9464 L 256.912,-12.6884 L 256.607,-12.467 L 256.277,-12.2855 L 255.927,-12.1468
 L 255.562,-12.0531 L 255.188,-12.0059 z
M -255.188,-12.0059 L -255.562,-12.0531 L -255.927,-12.1468 L -256.277,-12.2855 L -256.607,-12.467 L -256.912,-12.6884
 L -257.187,-12.9464 L -257.427,-13.2366 L -257.629,-13.5547 L -257.789,-13.8956 L -257.906,-14.2539 L -257.976,-14.624
 L -258,-15 L -257.976,-15.376 L -257.906,-15.7461 L -257.789,-16.1044 L -257.629,-16.4453 L -257.427,-16.7634
 L -257.187,-17.0536 L -256.912,-17.3115 L -256.607,-17.533 L -256.277,-17.7145 L -255.927,-17.8532 L -255.562,-17.9469
 L -255.188,-17.9941 L -254.812,-17.9941 L -254.438,-17.9469 L -254.073,-17.8532 L -253.723,-17.7145 L -253.393,-17.533
 L -253.088,-17.3115 L -252.813,-17.0536 L -252.573,-16.7634 L -252.371,-16.4453 L -252.211,-16.1044 L -252.094,-15.7461
 L -252.024,-15.376 L -252,-15 L -252.024,-14.624 L -252.094,-14.2539 L -252.211,-13.8956 L -252.371,-13.5547
 L -252.573,-13.2366 L -252.813,-12.9464 L -253.088,-12.6884 L -253.393,-12.467 L -253.723,-12.2855 L -254.073,-12.1468
 L -254.438,-12.0531 L -254.812,-12.0059 z
M -255.094,-6.00294 L -255.281,-6.02657 L -255.464,-6.07341 L -255.639,-6.14275 L -255.804,-6.23351 L -255.956,-6.34422
 L -256.093,-6.47318 L -256.214,-6.61832 L -256.314,-6.77736 L -256.395,-6.9478 L -256.453,-7.12695 L -256.488,-7.312
 L -256.5,-7.5 L -256.488,-7.68799 L -256.453,-7.87303 L -256.395,-8.05219 L -256.314,-8.22263 L -256.214,-8.38167
 L -256.093,-8.52681 L -255.956,-8.65576 L -255.804,-8.76648 L -255.639,-8.85724 L -255.464,-8.92657 L -255.281,-8.97342
 L -255.094,-8.99704 L -254.906,-8.99704 L -254.719,-8.97342 L -254.536,-8.92657 L -254.361,-8.85724 L -254.196,-8.76648
 L -254.044,-8.65576 L -253.907,-8.52681 L -253.786,-8.38167 L -253.686,-8.22263 L -253.605,-8.05219 L -253.547,-7.87303
 L -253.512,-7.68799 L -253.5,-7.5 L -253.512,-7.312 L -253.547,-7.12695 L -253.605,-6.9478 L -253.686,-6.77736
 L -253.786,-6.61832 L -253.907,-6.47318 L -254.044,-6.34422 L -254.196,-6.23351 L -254.361,-6.14275 L -254.536,-6.07341
 L -254.719,-6.02657 L -254.906,-6.00294 z
M 254.906,-6.00294 L 254.719,-6.02657 L 254.536,-6.07341 L 254.361,-6.14275 L 254.196,-6.23351 L 254.044,-6.34422
 L 253.907,-6.47318 L 253.786,-6.61832 L 253.686,-6.77736 L 253.605,-6.9478 L 253.547,-7.12695 L 253.512,-7.312
 L 253.5,-7.5 L 253.512,-7.68799 L 253.547,-7.87303 L 253.605,-8.05219 L 253.686,-8.22263 L 253.786,-8.38167
 L 253.907,-8.52681 L 254.044,-8.65576 L 254.196,-8.76648 L 254.361,-8.85724 L 254.536,-8.92657 L 254.719,-8.97342
 L 254.906,-8.99704 L 255.094,-8.99704 L 255.281,-8.97342 L 255.464,-8.92657 L 255.639,-8.85724 L 255.804,-8.76648
 L 255.956,-8.65576 L 256.093,-8.52681 L 256.214,-8.38167 L 256.314,-8.22263 L 256.395,-8.05219 L 256.453,-7.87303
 L 256.488,-7.68799 L 256.5,-7.5 L 256.488,-7.312 L 256.453,-7.12695 L 256.395,-6.9478 L 256.314,-6.77736
 L 256.214,-6.61832 L 256.093,-6.47318 L 255.956,-6.34422 L 255.804,-6.23351 L 255.639,-6.14275 L 255.464,-6.07341
 L 255.281,-6.02657 L 255.094,-6.00294 z
M -255.188,2.99408 L -255.562,2.94685 L -255.927,2.85316 L -256.277,2.71448 L -256.607,2.53297 L -256.912,2.31154
 L -257.187,2.05363 L -257.427,1.76335 L -257.629,1.44525 L -257.789,1.10437 L -257.906,0.746063 L -257.976,0.375992
 L -258,-0 L -257.976,-0.375992 L -257.906,-0.746063 L -257.789,-1.10437 L -257.629,-1.44525 L -257.427,-1.76335
 L -257.187,-2.05363 L -256.912,-2.31154 L -256.607,-2.53297 L -256.277,-2.71448 L -255.927,-2.85316 L -255.562,-2.94685
 L -255.188,-2.99408 L -254.812,-2.99408 L -254.438,-2.94685 L -254.073,-2.85316 L -253.723,-2.71448 L -253.393,-2.53297
 L -253.088,-2.31154 L -252.813,-2.05363 L -252.573,-1.76335 L -252.371,-1.44525 L -252.211,-1.10437 L -252.094,-0.746063
 L -252.024,-0.375992 L -252,-0 L -252.024,0.375992 L -252.094,0.746063 L -252.211,1.10437 L -252.371,1.44525
 L -252.573,1.76335 L -252.813,2.05363 L -253.088,2.31154 L -253.393,2.53297 L -253.723,2.71448 L -254.073,2.85316
 L -254.438,2.94685 L -254.812,2.99408 z
M 254.812,2.99408 L 254.438,2.94685 L 254.073,2.85316 L 253.723,2.71448 L 253.393,2.53297 L 253.088,2.31154
 L 252.813,2.05363 L 252.573,1.76335 L 252.371,1.44525 L 252.211,1.10437 L 252.094,0.746063 L 252.024,0.375992
 L 252,-0 L 252.024,-0.375992 L 252.094,-0.746063 L 252.211,-1.10437 L 252.371,-1.44525 L 252.573,-1.76335
 L 252.813,-2.05363 L 253.088,-2.31154 L 253.393,-2.53297 L 253.723,-2.71448 L 254.073,-2.85316 L 254.438,-2.94685
 L 254.812,-2.99408 L 255.188,-2.99408 L 255.562,-2.94685 L 255.927,-2.85316 L 256.277,-2.71448 L 256.607,-2.53297
 L 256.912,-2.31154 L 257.187,-2.05363 L 257.427,-1.76335 L 257.629,-1.44525 L 257.789,-1.10437 L 257.906,-0.746063
 L 257.976,-0.375992 L 258,-0 L 257.976,0.375992 L 257.906,0.746063 L 257.789,1.10437 L 257.629,1.44525
 L 257.427,1.76335 L 257.187,2.05363 L 256.912,2.31154 L 256.607,2.53297 L 256.277,2.71448 L 255.927,2.85316
 L 255.562,2.94685 L 255.188,2.99408 z
M -255.094,8.99704 L -255.281,8.97342 L -255.464,8.92657 L -255.639,8.85724 L -255.804,8.76648 L -255.956,8.65576
 L -256.093,8.52681 L -256.214,8.38167 L -256.314,8.22263 L -256.395,8.05219 L -256.453,7.87303 L -256.488,7.68799
 L -256.5,7.5 L -256.488,7.312 L -256.453,7.12695 L -256.395,6.9478 L -256.314,6.77736 L -256.214,6.61832
 L -256.093,6.47318 L -255.956,6.34422 L -255.804,6.23351 L -255.639,6.14275 L -255.464,6.07341 L -255.281,6.02657
 L -255.094,6.00294 L -254.906,6.00294 L -254.719,6.02657 L -254.536,6.07341 L -254.361,6.14275 L -254.196,6.23351
 L -254.044,6.34422 L -253.907,6.47318 L -253.786,6.61832 L -253.686,6.77736 L -253.605,6.9478 L -253.547,7.12695
 L -253.512,7.312 L -253.5,7.5 L -253.512,7.68799 L -253.547,7.87303 L -253.605,8.05219 L -253.686,8.22263
 L -253.786,8.38167 L -253.907,8.52681 L -254.044,8.65576 L -254.196,8.76648 L -254.361,8.85724 L -254.536,8.92657
 L -254.719,8.97342 L -254.906,8.99704 z
M 254.906,8.99704 L 254.719,8.97342 L 254.536,8.92657 L 254.361,8.85724 L 254.196,8.76648 L 254.044,8.65576
 L 253.907,8.52681 L 253.786,8.38167 L 253.686,8.22263 L 253.605,8.05219 L 253.547,7.87303 L 253.512,7.68799
 L 253.5,7.5 L 253.512,7.312 L 253.547,7.12695 L 253.605,6.9478 L 253.686,6.77736 L 253.786,6.61832
 L 253.907,6.47318 L 254.044,6.34422 L 254.196,6.23351 L 254.361,6.14275 L 254.536,6.07341 L 254.719,6.02657
 L 254.906,6.00294 L 255.094,6.00294 L 255.281,6.02657 L 255.464,6.07341 L 255.639,6.14275 L 255.804,6.23351
 L 255.956,6.34422 L 256.093,6.47318 L 256.214,6.61832 L 256.314,6.77736 L 256.395,6.9478 L 256.453,7.12695
 L 256.488,7.312 L 256.5,7.5 L 256.488,7.68799 L 256.453,7.87303 L 256.395,8.05219 L 256.314,8.22263
 L 256.214,8.38167 L 256.093,8.52681 L 255.956,8.65576 L 255.804,8.76648 L 255.639,8.85724 L 255.464,8.92657
 L 255.281,8.97342 L 255.094,8.99704 z
M -255.188,17.9941 L -255.562,17.9469 L -255.927,17.8532 L -256.277,17.7145 L -256.607,17.533 L -256.912,17.3115
 L -257.187,17.0536 L -257.427,16.7634 L -257.629,16.4453 L -257.789,16.1044 L -257.906,15.7461 L -257.976,15.376
 L -258,15 L -257.976,14.624 L -257.906,14.2539 L -257.789,13.8956 L -257.629,13.5547 L -257.427,13.2366
 L -257.187,12.9464 L -256.912,12.6884 L -256.607,12.467 L -256.277,12.2855 L -255.927,12.1468 L -255.562,12.0531
 L -255.188,12.0059 L -254.812,12.0059 L -254.438,12.0531 L -254.073,12.1468 L -253.723,12.2855 L -253.393,12.467
 L -253.088,12.6884 L -252.813,12.9464 L -252.573,13.2366 L -252.371,13.5547 L -252.211,13.8956 L -252.094,14.2539
 L -252.024,14.624 L -252,15 L -252.024,15.376 L -252.094,15.7461 L -252.211,16.1044 L -252.371,16.4453
 L -252.573,16.7634 L -252.813,17.0536 L -253.088,17.3115 L -253.393,17.533 L -253.723,17.7145 L -254.073,17.8532
 L -254.438,17.9469 L -254.812,17.9941 z
M 254.812,17.9941 L 254.438,17.9469 L 254.073,17.8532 L 253.723,17.7145 L 253.393,17.533 L 253.088,17.3115
 L 252.813,17.0536 L 252.573,16.7634 L 252.371,16.4453 L 252.211,16.1044 L 252.094,15.7461 L 252.024,15.376
 L 252,15 L 252.024,14.624 L 252.094,14.2539 L 252.211,13.8956 L 252.371,13.5547 L 252.573,13.2366
 L 252.813,12.9464 L 253.088,12.6884 L 253.393,12.467 L 253.723,12.2855 L 254.073,12.1468 L 254.438,12.0531
 L 254.812,12.0059 L 255.188,12.0059 L 255.562,12.0531 L 255.927,12.1468 L 256.277,12.2855 L 256.607,12.467
 L 256.912,12.6884 L 257.187,12.9464 L 257.427,13.2366 L 257.629,13.5547 L 257.789,13.8956 L 257.906,14.2539
 L 257.976,14.624 L 258,15 L 257.976,15.376 L 257.906,15.7461 L 257.789,16.1044 L 257.629,16.4453
 L 257.427,16.7634 L 257.187,17.0536 L 256.912,17.3115 L 256.607,17.533 L 256.277,17.7145 L 255.927,17.8532
 L 255.562,17.9469 L 255.188,17.9941 z
M -255.094,23.997 L -255.281,23.9734 L -255.464,23.9266 L -255.639,23.8572 L -255.804,23.7665 L -255.956,23.6558
 L -256.093,23.5268 L -256.214,23.3817 L -256.314,23.2226 L -256.395,23.0522 L -256.453,22.873 L -256.488,22.688
 L -256.5,22.5 L -256.488,22.312 L -256.453,22.127 L -256.395,21.9478 L -256.314,21.7774 L -256.214,21.6183
 L -256.093,21.4732 L -255.956,21.3442 L -255.804,21.2335 L -255.639,21.1427 L -255.464,21.0734 L -255.281,21.0266
 L -255.094,21.003 L -254.906,21.003 L -254.719,21.0266 L -254.536,21.0734 L -254.361,21.1427 L -254.196,21.2335
 L -254.044,21.3442 L -253.907,21.4732 L -253.786,21.6183 L -253.686,21.7774 L -253.605,21.9478 L -253.547,22.127
 L -253.512,22.312 L -253.5,22.5 L -253.512,22.688 L -253.547,22.873 L -253.605,23.0522 L -253.686,23.2226
 L -253.786,23.3817 L -253.907,23.5268 L -254.044,23.6558 L -254.196,23.7665 L -254.361,23.8572 L -254.536,23.9266
 L -254.719,23.9734 L -254.906,23.997 z
M 254.906,23.997 L 254.719,23.9734 L 254.536,23.9266 L 254.361,23.8572 L 254.196,23.7665 L 254.044,23.6558
 L 253.907,23.5268 L 253.786,23.3817 L 253.686,23.2226 L 253.605,23.0522 L 253.547,22.873 L 253.512,22.688
 L 253.5,22.5 L 253.512,22.312 L 253.547,22.127 L 253.605,21.9478 L 253.686,21.7774 L 253.786,21.6183
 L 253.907,21.4732 L 254.044,21.3442 L 254.196,21.2335 L 254.361,21.1427 L 254.536,21.0734 L 254.719,21.0266
 L 254.906,21.003 L 255.094,21.003 L 255.281,21.0266 L 255.464,21.0734 L 255.639,21.1427 L 255.804,21.2335
 L 255.956,21.3442 L 256.093,21.4732 L 256.214,21.6183 L 256.314,21.7774 L 256.395,21.9478 L 256.453,22.127
 L 256.488,22.312 L 256.5,22.5 L 256.488,22.688 L 256.453,22.873 L 256.395,23.0522 L 256.314,23.2226
 L 256.214,23.3817 L 256.093,23.5268 L 255.956,23.6558 L 255.804,23.7665 L 255.639,23.8572 L 255.464,23.9266
 L 255.281,23.9734 L 255.094,23.997 z
M -255.188,32.9941 L -255.562,32.9469 L -255.927,32.8532 L -256.277,32.7145 L -256.607,32.533 L -256.912,32.3115
 L -257.187,32.0536 L -257.427,31.7634 L -257.629,31.4453 L -257.789,31.1044 L -257.906,30.7461 L -257.976,30.376
 L -258,30 L -257.976,29.624 L -257.906,29.2539 L -257.789,28.8956 L -257.629,28.5547 L -257.427,28.2366
 L -257.187,27.9464 L -256.912,27.6884 L -256.607,27.467 L -256.277,27.2855 L -255.927,27.1468 L -255.562,27.0531
 L -255.188,27.0059 L -254.812,27.0059 L -254.438,27.0531 L -254.073,27.1468 L -253.723,27.2855 L -253.393,27.467
 L -253.088,27.6884 L -252.813,27.9464 L -252.573,28.2366 L -252.371,28.5547 L -252.211,28.8956 L -252.094,29.2539
 L -252.024,29.624 L -252,30 L -252.024,30.376 L -252.094,30.7461 L -252.211,31.1044 L -252.371,31.4453
 L -252.573,31.7634 L -252.813,32.0536 L -253.088,32.3115 L -253.393,32.533 L -253.723,32.7145 L -254.073,32.8532
 L -254.438,32.9469 L -254.812,32.9941 z
M 254.812,32.9941 L 254.438,32.9469 L 254.073,32.8532 L 253.723,32.7145 L 253.393,32.533 L 253.088,32.3115
 L 252.813,32.0536 L 252.573,31.7634 L 252.371,31.4453 L 252.211,31.1044 L 252.094,30.7461 L 252.024,30.376
 L 252,30 L 252.024,29.624 L 252.094,29.2539 L 252.211,28.8956 L 252.371,28.5547 L 252.573,28.2366
 L 252.813,27.9464 L 253.088,27.6884 L 253.393,27.467 L 253.723,27.2855 L 254.073,27.1468 L 254.438,27.0531
 L 254.812,27.0059 L 255.188,27.0059 L 255.562,27.0531 L 255.927,27.1468 L 256.277,27.2855 L 256.607,27.467
 L 256.912,27.6884 L 257.187,27.9464 L 257.427,28.2366 L 257.629,28.5547 L 257.789,28.8956 L 257.906,29.2539
 L 257.976,29.624 L 258,30 L 257.976,30.376 L 257.906,30.7461 L 257.789,31.1044 L 257.629,31.4453
 L 257.427,31.7634 L 257.187,32.0536 L 256.912,32.3115 L 256.607,32.533 L 256.277,32.7145 L 255.927,32.8532
 L 255.562,32.9469 L 255.188,32.9941 z
M -255.094,38.997 L -255.281,38.9734 L -255.464,38.9266 L -255.639,38.8572 L -255.804,38.7665 L -255.956,38.6558
 L -256.093,38.5268 L -256.214,38.3817 L -256.314,38.2226 L -256.395,38.0522 L -256.453,37.873 L -256.488,37.688
 L -256.5,37.5 L -256.488,37.312 L -256.453,37.127 L -256.395,36.9478 L -256.314,36.7774 L -256.214,36.6183
 L -256.093,36.4732 L -255.956,36.3442 L -255.804,36.2335 L -255.639,36.1428 L -255.464,36.0734 L -255.281,36.0266
 L -255.094,36.003 L -254.906,36.003 L -254.719,36.0266 L -254.536,36.0734 L -254.361,36.1428 L -254.196,36.2335
 L -254.044,36.3442 L -253.907,36.4732 L -253.786,36.6183 L -253.686,36.7774 L -253.605,36.9478 L -253.547,37.127
 L -253.512,37.312 L -253.5,37.5 L -253.512,37.688 L -253.547,37.873 L -253.605,38.0522 L -253.686,38.2226
 L -253.786,38.3817 L -253.907,38.5268 L -254.044,38.6558 L -254.196,38.7665 L -254.361,38.8572 L -254.536,38.9266
 L -254.719,38.9734 L -254.906,38.997 z
M 254.906,38.997 L 254.719,38.9734 L 254.536,38.9266 L 254.361,38.8572 L 254.196,38.7665 L 254.044,38.6558
 L 253.907,38.5268 L 253.786,38.3817 L 253.686,38.2226 L 253.605,38.0522 L 253.547,37.873 L 253.512,37.688
 L 253.5,37.5 L 253.512,37.312 L 253.547,37.127 L 253.605,36.9478 L 253.686,36.7774 L 253.786,36.6183
 L 253.907,36.4732 L 254.044,36.3442 L 254.196,36.2335 L 254.361,36.1428 L 254.536,36.0734 L 254.719,36.0266
 L 254.906,36.003 L 255.094,36.003 L 255.281,36.0266 L 255.464,36.0734 L 255.639,36.1428 L 255.804,36.2335
 L 255.956,36.3442 L 256.093,36.4732 L 256.214,36.6183 L 256.314,36.7774 L 256.395,36.9478 L 256.453,37.127
 L 256.488,37.312 L 256.5,37.5 L 256.488,37.688 L 256.453,37.873 L 256.395,38.0522 L 256.314,38.2226
 L 256.214,38.3817 L 256.093,38.5268 L 255.956,38.6558 L 255.804,38.7665 L 255.639,38.8572 L 255.464,38.9266
 L 255.281,38.9734 L 255.094,38.997 z
M 254.812,47.9941 L 254.438,47.9469 L 254.073,47.8532 L 253.723,47.7145 L 253.393,47.533 L 253.088,47.3115
 L 252.813,47.0536 L 252.573,46.7634 L 252.371,46.4453 L 252.211,46.1044 L 252.094,45.7461 L 252.024,45.376
 L 252,45 L 252.024,44.624 L 252.094,44.2539 L 252.211,43.8956 L 252.371,43.5547 L 252.573,43.2366
 L 252.813,42.9464 L 253.088,42.6885 L 253.393,42.467 L 253.723,42.2855 L 254.073,42.1468 L 254.438,42.0531
 L 254.812,42.0059 L 255.188,42.0059 L 255.562,42.0531 L 255.927,42.1468 L 256.277,42.2855 L 256.607,42.467
 L 256.912,42.6885 L 257.187,42.9464 L 257.427,43.2366 L 257.629,43.5547 L 257.789,43.8956 L 257.906,44.2539
 L 257.976,44.624 L 258,45 L 257.976,45.376 L 257.906,45.7461 L 257.789,46.1044 L 257.629,46.4453
 L 257.427,46.7634 L 257.187,47.0536 L 256.912,47.3115 L 256.607,47.533 L 256.277,47.7145 L 255.927,47.8532
 L 255.562,47.9469 L 255.188,47.9941 z
M -255.188,47.9941 L -255.562,47.9469 L -255.927,47.8532 L -256.277,47.7145 L -256.607,47.533 L -256.912,47.3115
 L -257.187,47.0536 L -257.427,46.7634 L -257.629,46.4453 L -257.789,46.1044 L -257.906,45.7461 L -257.976,45.376
 L -258,45 L -257.976,44.624 L -257.906,44.2539 L -257.789,43.8956 L -257.629,43.5547 L -257.427,43.2366
 L -257.187,42.9464 L -256.912,42.6885 L -256.607,42.467 L -256.277,42.2855 L -255.927,42.1468 L -255.562,42.0531
 L -255.188,42.0059 L -254.812,42.0059 L -254.438,42.0531 L -254.073,42.1468 L -253.723,42.2855 L -253.393,42.467
 L -253.088,42.6885 L -252.813,42.9464 L -252.573,43.2366 L -252.371,43.5547 L -252.211,43.8956 L -252.094,44.2539
 L -252.024,44.624 L -252,45 L -252.024,45.376 L -252.094,45.7461 L -252.211,46.1044 L -252.371,46.4453
 L -252.573,46.7634 L -252.813,47.0536 L -253.088,47.3115 L -253.393,47.533 L -253.723,47.7145 L -254.073,47.8532
 L -254.438,47.9469 L -254.812,47.9941 z
" stroke="black" fill="lightgray" stroke-width="0.5"/>
</svg>
