<?xml version="1.0" standalone="no"?>
<!DOCTYPE svg PUBLIC "-//W3C//DTD SVG 1.1//EN" "http://www.w3.org/Graphics/SVG/1.1/DTD/svg11.dtd">
<svg width="180mm" height="44mm" viewBox="-90 -76 180 44" xmlns="http://www.w3.org/2000/svg" version="1.1">
<title>OpenSCAD Model</title>
<path d="
M 85.4369,-32.0886 L 86.0451,-32.2447 L 86.6289,-32.4759 L 87.1791,-32.7784 L 87.6871,-33.1474 L 88.1448,-33.5773
 L 88.5451,-34.0611 L 88.8815,-34.5912 L 89.1489,-35.1594 L 89.3429,-35.7566 L 89.4606,-36.3733 L 89.5,-37
 L 89.5,-71 L 89.4606,-71.6267 L 89.3429,-72.2434 L 89.1489,-72.8406 L 88.8815,-73.4088 L 88.5451,-73.9389
 L 88.1448,-74.4227 L 87.6871,-74.8526 L 87.1791,-75.2216 L 86.6289,-75.5241 L 86.0451,-75.7553 L 85.4369,-75.9114
 L 84.8139,-75.9901 L -84.8139,-75.9901 L -85.4369,-75.9114 L -86.0451,-75.7553 L -86.6289,-75.5241 L -87.1791,-75.2216
 L -87.6871,-74.8526 L -88.1448,-74.4227 L -88.5451,-73.9389 L -88.8815,-73.4088 L -89.1489,-72.8406 L -89.3429,-72.2434
 L -89.4606,-71.6267 L -89.5,-71 L -89.5,-37 L -89.4606,-36.3733 L -89.3429,-35.7566 L -89.1489,-35.1594
 L -88.8815,-34.5912 L -88.5451,-34.0611 L -88.1448,-33.5773 L -87.6871,-33.1474 L -87.1791,-32.7784 L -86.6289,-32.4759
 L -86.0451,-32.2447 L -85.4369,-32.0886 L -84.8139,-32.0099 L 84.8139,-32.0099 z
M -82.6884,-66.0059 L -83.0621,-66.0531 L -83.427,-66.1468 L -83.7773,-66.2855 L -84.1075,-66.467 L -84.4123,-66.6884
 L -84.6869,-66.9464 L -84.927,-67.2366 L -85.1289,-67.5547 L -85.2893,-67.8956 L -85.4057,-68.2539 L -85.4763,-68.624
 L -85.5,-69 L -85.4763,-69.376 L -85.4057,-69.7461 L -85.2893,-70.1044 L -85.1289,-70.4453 L -84.927,-70.7634
 L -84.6869,-71.0536 L -84.4123,-71.3115 L -84.1075,-71.533 L -83.7773,-71.7145 L -83.427,-71.8532 L -83.0621,-71.9469
 L -82.6884,-71.9941 L -82.3116,-71.9941 L -81.9379,-71.9469 L -81.573,-71.8532 L -81.2227,-71.7145 L -80.8925,-71.533
 L -80.5877,-71.3115 L -80.3131,-71.0536 L -80.073,-70.7634 L -79.8711,-70.4453 L -79.7107,-70.1044 L -79.5943,-69.7461
 L -79.5237,-69.376 L -79.5,-69 L -79.5237,-68.624 L -79.5943,-68.2539 L -79.7107,-67.8956 L -79.8711,-67.5547
 L -80.073,-67.2366 L -80.3131,-66.9464 L -80.5877,-66.6884 L -80.8925,-66.467 L -81.2227,-66.2855 L -81.573,-66.1468
 L -81.9379,-66.0531 L -82.3116,-66.0059 z
M 82.3116,-66.0059 L 81.9379,-66.0531 L 81.573,-66.1468 L 81.2227,-66.2855 L 80.8925,-66.467 L 80.5877,-66.6884
 L 80.3131,-66.9464 L 80.073,-67.2366 L 79.8711,-67.5547 L 79.7107,-67.8956 L 79.5943,-68.2539 L 79.5237,-68.624
 L 79.5,-69 L 79.5237,-69.376 L 79.5943,-69.7461 L 79.7107,-70.1044 L 79.8711,-70.4453 L 80.073,-70.7634
 L 80.3131,-71.0536 L 80.5877,-71.3115 L 80.8925,-71.533 L 81.2227,-71.7145 L 81.573,-71.8532 L 81.9379,-71.9469
 L 82.3116,-71.9941 L 82.6884,-71.9941 L 83.0621,-71.9469 L 83.427,-71.8532 L 83.7773,-71.7145 L 84.1075,-71.533
 L 84.4123,-71.3115 L 84.6869,-71.0536 L 84.927,-70.7634 L 85.1289,-70.4453 L 85.2893,-70.1044 L 85.4057,-69.7461
 L 85.4763,-69.376 L 85.5,-69 L 85.4763,-68.624 L 85.4057,-68.2539 L 85.2893,-67.8956 L 85.1289,-67.5547
 L 84.927,-67.2366 L 84.6869,-66.9464 L 84.4123,-66.6884 L 84.1075,-66.467 L 83.7773,-66.2855 L 83.427,-66.1468
 L 83.0621,-66.0531 L 82.6884,-66.0059 z
M 31.1523,-40.5266 L 29.4704,-40.7391 L 27.8283,-41.1608 L 26.252,-41.7848 L 24.7663,-42.6016 L 23.3948,-43.5981
 L 22.1589,-44.7586 L 21.0783,-46.0649 L 20.1698,-47.4963 L 19.448,-49.0303 L 18.9241,-50.6427 L 18.6064,-52.308
 L 18.5,-54 L 18.6064,-55.692 L 18.9241,-57.3573 L 19.448,-58.9697 L 20.1698,-60.5037 L 21.0783,-61.9351
 L 22.1589,-63.2414 L 23.3948,-64.4019 L 24.7663,-65.3984 L 26.252,-66.2152 L 27.8283,-66.8392 L 29.4704,-67.2609
 L 31.1523,-67.4734 L 32.8477,-67.4734 L 34.5296,-67.2609 L 36.1717,-66.8392 L 37.748,-66.2152 L 39.2337,-65.3984
 L 40.6052,-64.4019 L 41.8411,-63.2414 L 42.9217,-61.9351 L 43.8301,-60.5037 L 44.552,-58.9697 L 45.0759,-57.3573
 L 45.3935,-55.692 L 45.5,-54 L 45.3935,-52.308 L 45.0759,-50.6427 L 44.552,-49.0303 L 43.8301,-47.4963
 L 42.9217,-46.0649 L 41.8411,-44.7586 L 40.6052,-43.5981 L 39.2337,-42.6016 L 37.748,-41.7848 L 36.1717,-41.1608
 L 34.5296,-40.7391 L 32.8477,-40.5266 z
M -32.8477,-40.5266 L -34.5296,-40.7391 L -36.1717,-41.1608 L -37.748,-41.7848 L -39.2337,-42.6016 L -40.6052,-43.5981
 L -41.8411,-44.7586 L -42.9217,-46.0649 L -43.8301,-47.4963 L -44.552,-49.0303 L -45.0759,-50.6427 L -45.3935,-52.308
 L -45.5,-54 L -45.3935,-55.692 L -45.0759,-57.3573 L -44.552,-58.9697 L -43.8301,-60.5037 L -42.9217,-61.9351
 L -41.8411,-63.2414 L -40.6052,-64.4019 L -39.2337,-65.3984 L -37.748,-66.2152 L -36.1717,-66.8392 L -34.5296,-67.2609
 L -32.8477,-67.4734 L -31.1523,-67.4734 L -29.4704,-67.2609 L -27.8283,-66.8392 L -26.252,-66.2152 L -24.7663,-65.3984
 L -23.3948,-64.4019 L -22.1589,-63.2414 L -21.0783,-61.9351 L -20.1698,-60.5037 L -19.448,-58.9697 L -18.9241,-57.3573
 L -18.6064,-55.692 L -18.5,-54 L -18.6064,-52.308 L -18.9241,-50.6427 L -19.448,-49.0303 L -20.1698,-47.4963
 L -21.0783,-46.0649 L -22.1589,-44.7586 L -23.3948,-43.5981 L -24.7663,-42.6016 L -26.252,-41.7848 L -27.8283,-41.1608
 L -29.4704,-40.7391 L -31.1523,-40.5266 z
M 63.1523,-40.5266 L 61.4704,-40.7391 L 59.8283,-41.1608 L 58.252,-41.7848 L 56.7663,-42.6016 L 55.3948,-43.5981
 L 54.1589,-44.7586 L 53.0783,-46.0649 L 52.1699,-47.4963 L 51.448,-49.0303 L 50.9241,-50.6427 L 50.6064,-52.308
 L 50.5,-54 L 50.6064,-55.692 L 50.9241,-57.3573 L 51.448,-58.9697 L 52.1699,-60.5037 L 53.0783,-61.9351
 L 54.1589,-63.2414 L 55.3948,-64.4019 L 56.7663,-65.3984 L 58.252,-66.2152 L 59.8283,-66.8392 L 61.4704,-67.2609
 L 63.1523,-67.4734 L 64.8477,-67.4734 L 66.5296,-67.2609 L 68.1717,-66.8392 L 69.748,-66.2152 L 71.2337,-65.3984
 L 72.6052,-64.4019 L 73.8411,-63.2414 L 74.9217,-61.9351 L 75.8301,-60.5037 L 76.552,-58.9697 L 77.0759,-57.3573
 L 77.3935,-55.692 L 77.5,-54 L 77.3935,-52.308 L 77.0759,-50.6427 L 76.552,-49.0303 L 75.8301,-47.4963
 L 74.9217,-46.0649 L 73.8411,-44.7586 L 72.6052,-43.5981 L 71.2337,-42.6016 L 69.748,-41.7848 L 68.1717,-41.1608
 L 66.5296,-40.7391 L 64.8477,-40.5266 z
M -64.8477,-40.5266 L -66.5296,-40.7391 L -68.1717,-41.1608 L -69.748,-41.7848 L -71.2337,-42.6016 L -72.6052,-43.5981
 L -73.8411,-44.7586 L -74.9217,-46.0649 L -75.8301,-47.4963 L -76.552,-49.0303 L -77.0759,-50.6427 L -77.3935,-52.308
 L -77.5,-54 L -77.3935,-55.692 L -77.0759,-57.3573 L -76.552,-58.9697 L -75.8301,-60.5037 L -74.9217,-61.9351
 L -73.8411,-63.2414 L -72.6052,-64.4019 L -71.2337,-65.3984 L -69.748,-66.2152 L -68.1717,-66.8392 L -66.5296,-67.2609
 L -64.8477,-67.4734 L -63.1523,-67.4734 L -61.4704,-67.2609 L -59.8283,-66.8392 L -58.252,-66.2152 L -56.7663,-65.3984
 L -55.3948,-64.4019 L -54.1589,-63.2414 L -53.0783,-61.9351 L -52.1699,-60.5037 L -51.448,-58.9697 L -50.9241,-57.3573
 L -50.6064,-55.692 L -50.5,-54 L -50.6064,-52.308 L -50.9241,-50.6427 L -51.448,-49.0303 L -52.1699,-47.4963
 L -53.0783,-46.0649 L -54.1589,-44.7586 L -55.3948,-43.5981 L -56.7663,-42.6016 L -58.252,-41.7848 L -59.8283,-41.1608
 L -61.4704,-40.7391 L -63.1523,-40.5266 z
M -0.847672,-40.5266 L -2.52963,-40.7391 L -4.17172,-41.1608 L -5.74802,-41.7848 L -7.23366,-42.6016 L -8.60521,-43.5981
 L -9.84106,-44.7586 L -10.9217,-46.0649 L -11.8301,-47.4963 L -12.552,-49.0303 L -13.0759,-50.6427 L -13.3935,-52.308
 L -13.5,-54 L -13.3935,-55.692 L -13.0759,-57.3573 L -12.552,-58.9697 L -11.8301,-60.5037 L -10.9217,-61.9351
 L -9.84106,-63.2414 L -8.60521,-64.4019 L -7.23366,-65.3984 L -5.74802,-66.2152 L -4.17172,-66.8392 L -2.52963,-67.2609
 L -0.847672,-67.4734 L 0.847672,-67.4734 L 2.52963,-67.2609 L 4.17172,-66.8392 L 5.74802,-66.2152 L 7.23366,-65.3984
 L 8.60521,-64.4019 L 9.84106,-63.2414 L 10.9217,-61.9351 L 11.8301,-60.5037 L 12.552,-58.9697 L 13.0759,-57.3573
 L 13.3935,-55.692 L 13.5,-54 L 13.3935,-52.308 L 13.0759,-50.6427 L 12.552,-49.0303 L 11.8301,-47.4963
 L 10.9217,-46.0649 L 9.84106,-44.7586 L 8.60521,-43.5981 L 7.23366,-42.6016 L 5.74802,-41.7848 L 4.17172,-41.1608
 L 2.52963,-40.7391 L 0.847672,-40.5266 z
M -82.5942,-60.0029 L -82.7811,-60.0266 L -82.9635,-60.0734 L -83.1387,-60.1427 L -83.3037,-60.2335 L -83.4561,-60.3442
 L -83.5934,-60.4732 L -83.7135,-60.6183 L -83.8145,-60.7774 L -83.8947,-60.9478 L -83.9529,-61.127 L -83.9882,-61.312
 L -84,-61.5 L -83.9882,-61.688 L -83.9529,-61.873 L -83.8947,-62.0522 L -83.8145,-62.2226 L -83.7135,-62.3817
 L -83.5934,-62.5268 L -83.4561,-62.6558 L -83.3037,-62.7665 L -83.1387,-62.8572 L -82.9635,-62.9266 L -82.7811,-62.9734
 L -82.5942,-62.997 L -82.4058,-62.997 L -82.2189,-62.9734 L -82.0365,-62.9266 L -81.8613,-62.8572 L -81.6963,-62.7665
 L -81.5439,-62.6558 L -81.4065,-62.5268 L -81.2865,-62.3817 L -81.1855,-62.2226 L -81.1053,-62.0522 L -81.0471,-61.873
 L -81.0118,-61.688 L -81,-61.5 L -81.0118,-61.312 L -81.0471,-61.127 L -81.1053,-60.9478 L -81.1855,-60.7774
 L -81.2865,-60.6183 L -81.4065,-60.4732 L -81.5439,-60.3442 L -81.6963,-60.2335 L -81.8613,-60.1427 L -82.0365,-60.0734
 L -82.2189,-60.0266 L -82.4058,-60.0029 z
M 82.4058,-60.0029 L 82.2189,-60.0266 L 82.0365,-60.0734 L 81.8613,-60.1427 L 81.6963,-60.2335 L 81.5439,-60.3442
 L 81.4065,-60.4732 L 81.2865,-60.6183 L 81.1855,-60.7774 L 81.1053,-60.9478 L 81.0471,-61.127 L 81.0118,-61.312
 L 81,-61.5 L 81.0118,-61.688 L 81.0471,-61.873 L 81.1053,-62.0522 L 81.1855,-62.2226 L 81.2865,-62.3817
 L 81.4065,-62.5268 L 81.5439,-62.6558 L 81.6963,-62.7665 L 81.8613,-62.8572 L 82.0365,-62.9266 L 82.2189,-62.9734
 L 82.4058,-62.997 L 82.5942,-62.997 L 82.7811,-62.9734 L 82.9635,-62.9266 L 83.1387,-62.8572 L 83.3037,-62.7665
 L 83.4561,-62.6558 L 83.5934,-62.5268 L 83.7135,-62.3817 L 83.8145,-62.2226 L 83.8947,-62.0522 L 83.9529,-61.873
 L 83.9882,-61.688 L 84,-61.5 L 83.9882,-61.312 L 83.9529,-61.127 L 83.8947,-60.9478 L 83.8145,-60.7774
 L 83.7135,-60.6183 L 83.5934,-60.4732 L 83.4561,-60.3442 L 83.3037,-60.2335 L 83.1387,-60.1427 L 82.9635,-60.0734
 L 82.7811,-60.0266 L 82.5942,-60.0029 z
M -82.6884,-51.0059 L -83.0621,-51.0531 L -83.427,-51.1468 L -83.7773,-51.2855 L -84.1075,-51.467 L -84.4123,-51.6885
 L -84.6869,-51.9464 L -84.927,-52.2366 L -85.1289,-52.5547 L -85.2893,-52.8956 L -85.4057,-53.2539 L -85.4763,-53.624
 L -85.5,-54 L -85.4763,-54.376 L -85.4057,-54.7461 L -85.2893,-55.1044 L -85.1289,-55.4453 L -84.927,-55.7634
 L -84.6869,-56.0536 L -84.4123,-56.3115 L -84.1075,-56.533 L -83.7773,-56.7145 L -83.427,-56.8532 L -83.0621,-56.9469
 L -82.6884,-56.9941 L -82.3116,-56.9941 L -81.9379,-56.9469 L -81.573,-56.8532 L -81.2227,-56.7145 L -80.8925,-56.533
 L -80.5877,-56.3115 L -80.3131,-56.0536 L -80.073,-55.7634 L -79.8711,-55.4453 L -79.7107,-55.1044 L -79.5943,-54.7461
 L -79.5237,-54.376 L -79.5,-54 L -79.5237,-53.624 L -79.5943,-53.2539 L -79.7107,-52.8956 L -79.8711,-52.5547
 L -80.073,-52.2366 L -80.3131,-51.9464 L -80.5877,-51.6885 L -80.8925,-51.467 L -81.2227,-51.2855 L -81.573,-51.1468
 L -81.9379,-51.0531 L -82.3116,-51.0059 z
M 82.3116,-51.0059 L 81.9379,-51.0531 L 81.573,-51.1468 L 81.2227,-51.2855 L 80.8925,-51.467 L 80.5877,-51.6885
 L 80.3131,-51.9464 L 80.073,-52.2366 L 79.8711,-52.5547 L 79.7107,-52.8956 L 79.5943,-53.2539 L 79.5237,-53.624
 L 79.5,-54 L 79.5237,-54.376 L 79.5943,-54.7461 L 79.7107,-55.1044 L 79.8711,-55.4453 L 80.073,-55.7634
 L 80.3131,-56.0536 L 80.5877,-56.3115 L 80.8925,-56.533 L 81.2227,-56.7145 L 81.573,-56.8532 L 81.9379,-56.9469
 L 82.3116,-56.9941 L 82.6884,-56.9941 L 83.0621,-56.9469 L 83.427,-56.8532 L 83.7773,-56.7145 L 84.1075,-56.533
 L 84.4123,-56.3115 L 84.6869,-56.0536 L 84.927,-55.7634 L 85.1289,-55.4453 L 85.2893,-55.1044 L 85.4057,-54.7461
 L 85.4763,-54.376 L 85.5,-54 L 85.4763,-53.624 L 85.4057,-53.2539 L 85.2893,-52.8956 L 85.1289,-52.5547
 L 84.927,-52.2366 L 84.6869,-51.9464 L 84.4123,-51.6885 L 84.1075,-51.467 L 83.7773,-51.2855 L 83.427,-51.1468
 L 83.0621,-51.0531 L 82.6884,-51.0059 z
M 82.4058,-45.003 L 82.2189,-45.0266 L 82.0365,-45.0734 L 81.8613,-45.1428 L 81.6963,-45.2335 L 81.5439,-45.3442
 L 81.4065,-45.4732 L 81.2865,-45.6183 L 81.1855,-45.7774 L 81.1053,-45.9478 L 81.0471,-46.127 L 81.0118,-46.312
 L 81,-46.5 L 81.0118,-46.688 L 81.0471,-46.873 L 81.1053,-47.0522 L 81.1855,-47.2226 L 81.2865,-47.3817
 L 81.4065,-47.5268 L 81.5439,-47.6558 L 81.6963,-47.7665 L 81.8613,-47.8573 L 82.0365,-47.9266 L 82.2189,-47.9734
 L 82.4058,-47.9971 L 82.5942,-47.9971 L 82.7811,-47.9734 L 82.9635,-47.9266 L 83.1387,-47.8573 L 83.3037,-47.7665
 L 83.4561,-47.6558 L 83.5934,-47.5268 L 83.7135,-47.3817 L 83.8145,-47.2226 L 83.8947,-47.0522 L 83.9529,-46.873
 L 83.9882,-46.688 L 84,-46.5 L 83.9882,-46.312 L 83.9529,-46.127 L 83.8947,-45.9478 L 83.8145,-45.7774
 L 83.7135,-45.6183 L 83.5934,-45.4732 L 83.4561,-45.3442 L 83.3037,-45.2335 L 83.1387,-45.1428 L 82.9635,-45.0734
 L 82.7811,-45.0266 L 82.5942,-45.003 z
M -82.5942,-45.003 L -82.7811,-45.0266 L -82.9635,-45.0734 L -83.1387,-45.1428 L -83.3037,-45.2335 L -83.4561,-45.3442
 L -83.5934,-45.4732 L -83.7135,-45.6183 L -83.8145,-45.7774 L -83.8947,-45.9478 L -83.9529,-46.127 L -83.9882,-46.312
 L -84,-46.5 L -83.9882,-46.688 L -83.9529,-46.873 L -83.8947,-47.0522 L -83.8145,-47.2226 L -83.7135,-47.3817
 L -83.5934,-47.5268 L -83.4561,-47.6558 L -83.3037,-47.7665 L -83.1387,-47.8573 L -82.9635,-47.9266 L -82.7811,-47.9734
 L -82.5942,-47.9971 L -82.4058,-47.9971 L -82.2189,-47.9734 L -82.0365,-47.9266 L -81.8613,-47.8573 L -81.6963,-47.7665
 L -81.5439,-47.6558 L -81.4065,-47.5268 L -81.2865,-47.3817 L -81.1855,-47.2226 L -81.1053,-47.0522 L -81.0471,-46.873
 L -81.0118,-46.688 L -81,-46.5 L -81.0118,-46.312 L -81.0471,-46.127 L -81.1053,-45.9478 L -81.1855,-45.7774
 L -81.2865,-45.6183 L -81.4065,-45.4732 L -81.5439,-45.3442 L -81.6963,-45.2335 L -81.8613,-45.1428 L -82.0365,-45.0734
 L -82.2189,-45.0266 L -82.4058,-45.003 z
M -82.6884,-36.0059 L -83.0621,-36.0531 L -83.427,-36.1468 L -83.7773,-36.2855 L -84.1075,-36.467 L -84.4123,-36.6885
 L -84.6869,-36.9464 L -84.927,-37.2366 L -85.1289,-37.5547 L -85.2893,-37.8956 L -85.4057,-38.2539 L -85.4763,-38.624
 L -85.5,-39 L -85.4763,-39.376 L -85.4057,-39.7461 L -85.2893,-40.1044 L -85.1289,-40.4453 L -84.927,-40.7634
 L -84.6869,-41.0536 L -84.4123,-41.3116 L -84.1075,-41.533 L -83.7773,-41.7145 L -83.427,-41.8532 L -83.0621,-41.9469
 L -82.6884,-41.9941 L -82.3116,-41.9941 L -81.9379,-41.9469 L -81.573,-41.8532 L -81.2227,-41.7145 L -80.8925,-41.533
 L -80.5877,-41.3116 L -80.3131,-41.0536 L -80.073,-40.7634 L -79.8711,-40.4453 L -79.7107,-40.1044 L -79.5943,-39.7461
 L -79.5237,-39.376 L -79.5,-39 L -79.5237,-38.624 L -79.5943,-38.2539 L -79.7107,-37.8956 L -79.8711,-37.5547
 L -80.073,-37.2366 L -80.3131,-36.9464 L -80.5877,-36.6885 L -80.8925,-36.467 L -81.2227,-36.2855 L -81.573,-36.1468
 L -81.9379,-36.0531 L -82.3116,-36.0059 z
M 82.3116,-36.0059 L 81.9379,-36.0531 L 81.573,-36.1468 L 81.2227,-36.2855 L 80.8925,-36.467 L 80.5877,-36.6885
 L 80.3131,-36.9464 L 80.073,-37.2366 L 79.8711,-37.5547 L 79.7107,-37.8956 L 79.5943,-38.2539 L 79.5237,-38.624
 L 79.5,-39 L 79.5237,-39.376 L 79.5943,-39.7461 L 79.7107,-40.1044 L 79.8711,-40.4453 L 80.073,-40.7634
 L 80.3131,-41.0536 L 80.5877,-41.3116 L 80.8925,-41.533 L 81.2227,-41.7145 L 81.573,-41.8532 L 81.9379,-41.9469
 L 82.3116,-41.9941 L 82.6884,-41.9941 L 83.0621,-41.9469 L 83.427,-41.8532 L 83.7773,-41.7145 L 84.1075,-41.533
 L 84.4123,-41.3116 L 84.6869,-41.0536 L 84.927,-40.7634 L 85.1289,-40.4453 L 85.2893,-40.1044 L 85.4057,-39.7461
 L 85.4763,-39.376 L 85.5,-39 L 85.4763,-38.624 L 85.4057,-38.2539 L 85.2893,-37.8956 L 85.1289,-37.5547
 L 84.927,-37.2366 L 84.6869,-36.9464 L 84.4123,-36.6885 L 84.1075,-36.467 L 83.7773,-36.2855 L 83.427,-36.1468
 L 83.0621,-36.0531 L 82.6884,-36.0059 z
" stroke="black" fill="lightgray" stroke-width="0.5"/>
</svg>
