<?xml version="1.0" standalone="no"?>
<!DOCTYPE svg PUBLIC "-//W3C//DTD SVG 1.1//EN" "http://www.w3.org/Graphics/SVG/1.1/DTD/svg11.dtd">
<svg width="210mm" height="44mm" viewBox="-105 -22 210 44" xmlns="http://www.w3.org/2000/svg" version="1.1">
<title>OpenSCAD Model</title>
<path d="
M 100.437,21.9114 L 101.045,21.7553 L 101.629,21.5241 L 102.179,21.2216 L 102.687,20.8526 L 103.145,20.4227
 L 103.545,19.9389 L 103.882,19.4088 L 104.149,18.8406 L 104.343,18.2434 L 104.461,17.6267 L 104.5,17
 L 104.5,-17 L 104.461,-17.6267 L 104.343,-18.2434 L 104.149,-18.8406 L 103.882,-19.4088 L 103.545,-19.9389
 L 103.145,-20.4227 L 102.687,-20.8526 L 102.179,-21.2216 L 101.629,-21.5241 L 101.045,-21.7553 L 100.437,-21.9114
 L 99.8139,-21.9901 L -99.8139,-21.9901 L -100.437,-21.9114 L -101.045,-21.7553 L -101.629,-21.5241 L -102.179,-21.2216
 L -102.687,-20.8526 L -103.145,-20.4227 L -103.545,-19.9389 L -103.882,-19.4088 L -104.149,-18.8406 L -104.343,-18.2434
 L -104.461,-17.6267 L -104.5,-17 L -104.5,17 L -104.461,17.6267 L -104.343,18.2434 L -104.149,18.8406
 L -103.882,19.4088 L -103.545,19.9389 L -103.145,20.4227 L -102.687,20.8526 L -102.179,21.2216 L -101.629,21.5241
 L -101.045,21.7553 L -100.437,21.9114 L -99.8139,21.9901 L 99.8139,21.9901 z
M 97.3116,-12.0059 L 96.9379,-12.0531 L 96.573,-12.1468 L 96.2227,-12.2855 L 95.8925,-12.467 L 95.5877,-12.6884
 L 95.3131,-12.9464 L 95.073,-13.2366 L 94.8711,-13.5547 L 94.7107,-13.8956 L 94.5943,-14.2539 L 94.5237,-14.624
 L 94.5,-15 L 94.5237,-15.376 L 94.5943,-15.7461 L 94.7107,-16.1044 L 94.8711,-16.4453 L 95.073,-16.7634
 L 95.3131,-17.0536 L 95.5877,-17.3115 L 95.8925,-17.533 L 96.2227,-17.7145 L 96.573,-17.8532 L 96.9379,-17.9469
 L 97.3116,-17.9941 L 97.6884,-17.9941 L 98.0621,-17.9469 L 98.427,-17.8532 L 98.7773,-17.7145 L 99.1075,-17.533
 L 99.4123,-17.3115 L 99.6869,-17.0536 L 99.927,-16.7634 L 100.129,-16.4453 L 100.289,-16.1044 L 100.406,-15.7461
 L 100.476,-15.376 L 100.5,-15 L 100.476,-14.624 L 100.406,-14.2539 L 100.289,-13.8956 L 100.129,-13.5547
 L 99.927,-13.2366 L 99.6869,-12.9464 L 99.4123,-12.6884 L 99.1075,-12.467 L 98.7773,-12.2855 L 98.427,-12.1468
 L 98.0621,-12.0531 L 97.6884,-12.0059 z
M -97.6884,-12.0059 L -98.0621,-12.0531 L -98.427,-12.1468 L -98.7773,-12.2855 L -99.1075,-12.467 L -99.4123,-12.6884
 L -99.6869,-12.9464 L -99.927,-13.2366 L -100.129,-13.5547 L -100.289,-13.8956 L -100.406,-14.2539 L -100.476,-14.624
 L -100.5,-15 L -100.476,-15.376 L -100.406,-15.7461 L -100.289,-16.1044 L -100.129,-16.4453 L -99.927,-16.7634
 L -99.6869,-17.0536 L -99.4123,-17.3115 L -99.1075,-17.533 L -98.7773,-17.7145 L -98.427,-17.8532 L -98.0621,-17.9469
 L -97.6884,-17.9941 L -97.3116,-17.9941 L -96.9379,-17.9469 L -96.573,-17.8532 L -96.2227,-17.7145 L -95.8925,-17.533
 L -95.5877,-17.3115 L -95.3131,-17.0536 L -95.073,-16.7634 L -94.8711,-16.4453 L -94.7107,-16.1044 L -94.5943,-15.7461
 L -94.5237,-15.376 L -94.5,-15 L -94.5237,-14.624 L -94.5943,-14.2539 L -94.7107,-13.8956 L -94.8711,-13.5547
 L -95.073,-13.2366 L -95.3131,-12.9464 L -95.5877,-12.6884 L -95.8925,-12.467 L -96.2227,-12.2855 L -96.573,-12.1468
 L -96.9379,-12.0531 L -97.3116,-12.0059 z
M 80.8698,17.9645 L 78.6271,17.6812 L 76.4377,17.119 L 74.336,16.2869 L 72.3551,15.1979 L 70.5264,13.8692
 L 68.8786,12.3218 L 67.4377,10.5801 L 66.2265,8.67155 L 65.264,6.62624 L 64.5655,4.47641 L 64.1419,2.256
 L 64,-0 L 64.1419,-2.256 L 64.5655,-4.47641 L 65.264,-6.62624 L 66.2265,-8.67155 L 67.4377,-10.5801
 L 68.8786,-12.3218 L 70.5264,-13.8692 L 72.3551,-15.1979 L 74.336,-16.2869 L 76.4377,-17.119 L 78.6271,-17.6812
 L 80.8698,-17.9645 L 83.1302,-17.9645 L 85.3729,-17.6812 L 87.5623,-17.119 L 89.664,-16.2869 L 91.6449,-15.1979
 L 93.4736,-13.8692 L 95.1214,-12.3218 L 96.5623,-10.5801 L 97.7735,-8.67155 L 98.736,-6.62624 L 99.4345,-4.47641
 L 99.8581,-2.256 L 100,-0 L 99.8581,2.256 L 99.4345,4.47641 L 98.736,6.62624 L 97.7735,8.67155
 L 96.5623,10.5801 L 95.1214,12.3218 L 93.4736,13.8692 L 91.6449,15.1979 L 89.664,16.2869 L 87.5623,17.119
 L 85.3729,17.6812 L 83.1302,17.9645 z
M 39.8698,17.9645 L 37.6271,17.6812 L 35.4377,17.119 L 33.336,16.2869 L 31.3551,15.1979 L 29.5264,13.8692
 L 27.8786,12.3218 L 26.4377,10.5801 L 25.2265,8.67155 L 24.264,6.62624 L 23.5655,4.47641 L 23.1419,2.256
 L 23,-0 L 23.1419,-2.256 L 23.5655,-4.47641 L 24.264,-6.62624 L 25.2265,-8.67155 L 26.4377,-10.5801
 L 27.8786,-12.3218 L 29.5264,-13.8692 L 31.3551,-15.1979 L 33.336,-16.2869 L 35.4377,-17.119 L 37.6271,-17.6812
 L 39.8698,-17.9645 L 42.1302,-17.9645 L 44.3729,-17.6812 L 46.5623,-17.119 L 48.664,-16.2869 L 50.6449,-15.1979
 L 52.4736,-13.8692 L 54.1214,-12.3218 L 55.5623,-10.5801 L 56.7735,-8.67155 L 57.736,-6.62624 L 58.4345,-4.47641
 L 58.8581,-2.256 L 59,-0 L 58.8581,2.256 L 58.4345,4.47641 L 57.736,6.62624 L 56.7735,8.67155
 L 55.5623,10.5801 L 54.1214,12.3218 L 52.4736,13.8692 L 50.6449,15.1979 L 48.664,16.2869 L 46.5623,17.119
 L 44.3729,17.6812 L 42.1302,17.9645 z
M -1.13022,17.9645 L -3.37285,17.6812 L -5.5623,17.119 L -7.66402,16.2869 L -9.64488,15.1979 L -11.4736,13.8692
 L -13.1214,12.3218 L -14.5623,10.5801 L -15.7735,8.67155 L -16.736,6.62624 L -17.4345,4.47641 L -17.8581,2.256
 L -18,-0 L -17.8581,-2.256 L -17.4345,-4.47641 L -16.736,-6.62624 L -15.7735,-8.67155 L -14.5623,-10.5801
 L -13.1214,-12.3218 L -11.4736,-13.8692 L -9.64488,-15.1979 L -7.66402,-16.2869 L -5.5623,-17.119 L -3.37285,-17.6812
 L -1.13022,-17.9645 L 1.13022,-17.9645 L 3.37285,-17.6812 L 5.5623,-17.119 L 7.66402,-16.2869 L 9.64488,-15.1979
 L 11.4736,-13.8692 L 13.1214,-12.3218 L 14.5623,-10.5801 L 15.7735,-8.67155 L 16.736,-6.62624 L 17.4345,-4.47641
 L 17.8581,-2.256 L 18,-0 L 17.8581,2.256 L 17.4345,4.47641 L 16.736,6.62624 L 15.7735,8.67155
 L 14.5623,10.5801 L 13.1214,12.3218 L 11.4736,13.8692 L 9.64488,15.1979 L 7.66402,16.2869 L 5.5623,17.119
 L 3.37285,17.6812 L 1.13022,17.9645 z
M -42.1302,17.9645 L -44.3729,17.6812 L -46.5623,17.119 L -48.664,16.2869 L -50.6449,15.1979 L -52.4736,13.8692
 L -54.1214,12.3218 L -55.5623,10.5801 L -56.7735,8.67155 L -57.736,6.62624 L -58.4345,4.47641 L -58.8581,2.256
 L -59,-0 L -58.8581,-2.256 L -58.4345,-4.47641 L -57.736,-6.62624 L -56.7735,-8.67155 L -55.5623,-10.5801
 L -54.1214,-12.3218 L -52.4736,-13.8692 L -50.6449,-15.1979 L -48.664,-16.2869 L -46.5623,-17.119 L -44.3729,-17.6812
 L -42.1302,-17.9645 L -39.8698,-17.9645 L -37.6271,-17.6812 L -35.4377,-17.119 L -33.336,-16.2869 L -31.3551,-15.1979
 L -29.5264,-13.8692 L -27.8786,-12.3218 L -26.4377,-10.5801 L -25.2265,-8.67155 L -24.264,-6.62624 L -23.5655,-4.47641
 L -23.1419,-2.256 L -23,-0 L -23.1419,2.256 L -23.5655,4.47641 L -24.264,6.62624 L -25.2265,8.67155
 L -26.4377,10.5801 L -27.8786,12.3218 L -29.5264,13.8692 L -31.3551,15.1979 L -33.336,16.2869 L -35.4377,17.119
 L -37.6271,17.6812 L -39.8698,17.9645 z
M -83.1302,17.9645 L -85.3729,17.6812 L -87.5623,17.119 L -89.664,16.2869 L -91.6449,15.1979 L -93.4736,13.8692
 L -95.1214,12.3218 L -96.5623,10.5801 L -97.7735,8.67155 L -98.736,6.62624 L -99.4345,4.47641 L -99.8581,2.256
 L -100,-0 L -99.8581,-2.256 L -99.4345,-4.47641 L -98.736,-6.62624 L -97.7735,-8.67155 L -96.5623,-10.5801
 L -95.1214,-12.3218 L -93.4736,-13.8692 L -91.6449,-15.1979 L -89.664,-16.2869 L -87.5623,-17.119 L -85.3729,-17.6812
 L -83.1302,-17.9645 L -80.8698,-17.9645 L -78.6271,-17.6812 L -76.4377,-17.119 L -74.336,-16.2869 L -72.3551,-15.1979
 L -70.5264,-13.8692 L -68.8786,-12.3218 L -67.4377,-10.5801 L -66.2265,-8.67155 L -65.264,-6.62624 L -64.5655,-4.47641
 L -64.1419,-2.256 L -64,-0 L -64.1419,2.256 L -64.5655,4.47641 L -65.264,6.62624 L -66.2265,8.67155
 L -67.4377,10.5801 L -68.8786,12.3218 L -70.5264,13.8692 L -72.3551,15.1979 L -74.336,16.2869 L -76.4377,17.119
 L -78.6271,17.6812 L -80.8698,17.9645 z
M -97.6884,17.9941 L -98.0621,17.9469 L -98.427,17.8532 L -98.7773,17.7145 L -99.1075,17.533 L -99.4123,17.3115
 L -99.6869,17.0536 L -99.927,16.7634 L -100.129,16.4453 L -100.289,16.1044 L -100.406,15.7461 L -100.476,15.376
 L -100.5,15 L -100.476,14.624 L -100.406,14.2539 L -100.289,13.8956 L -100.129,13.5547 L -99.927,13.2366
 L -99.6869,12.9464 L -99.4123,12.6884 L -99.1075,12.467 L -98.7773,12.2855 L -98.427,12.1468 L -98.0621,12.0531
 L -97.6884,12.0059 L -97.3116,12.0059 L -96.9379,12.0531 L -96.573,12.1468 L -96.2227,12.2855 L -95.8925,12.467
 L -95.5877,12.6884 L -95.3131,12.9464 L -95.073,13.2366 L -94.8711,13.5547 L -94.7107,13.8956 L -94.5943,14.2539
 L -94.5237,14.624 L -94.5,15 L -94.5237,15.376 L -94.5943,15.7461 L -94.7107,16.1044 L -94.8711,16.4453
 L -95.073,16.7634 L -95.3131,17.0536 L -95.5877,17.3115 L -95.8925,17.533 L -96.2227,17.7145 L -96.573,17.8532
 L -96.9379,17.9469 L -97.3116,17.9941 z
M 97.3116,17.9941 L 96.9379,17.9469 L 96.573,17.8532 L 96.2227,17.7145 L 95.8925,17.533 L 95.5877,17.3115
 L 95.3131,17.0536 L 95.073,16.7634 L 94.8711,16.4453 L 94.7107,16.1044 L 94.5943,15.7461 L 94.5237,15.376
 L 94.5,15 L 94.5237,14.624 L 94.5943,14.2539 L 94.7107,13.8956 L 94.8711,13.5547 L 95.073,13.2366
 L 95.3131,12.9464 L 95.5877,12.6884 L 95.8925,12.467 L 96.2227,12.2855 L 96.573,12.1468 L 96.9379,12.0531
 L 97.3116,12.0059 L 97.6884,12.0059 L 98.0621,12.0531 L 98.427,12.1468 L 98.7773,12.2855 L 99.1075,12.467
 L 99.4123,12.6884 L 99.6869,12.9464 L 99.927,13.2366 L 100.129,13.5547 L 100.289,13.8956 L 100.406,14.2539
 L 100.476,14.624 L 100.5,15 L 100.476,15.376 L 100.406,15.7461 L 100.289,16.1044 L 100.129,16.4453
 L 99.927,16.7634 L 99.6869,17.0536 L 99.4123,17.3115 L 99.1075,17.533 L 98.7773,17.7145 L 98.427,17.8532
 L 98.0621,17.9469 L 97.6884,17.9941 z
" stroke="black" fill="lightgray" stroke-width="0.5"/>
</svg>
