<?xml version="1.0" standalone="no"?>
<!DOCTYPE svg PUBLIC "-//W3C//DTD SVG 1.1//EN" "http://www.w3.org/Graphics/SVG/1.1/DTD/svg11.dtd">
<svg width="150mm" height="30mm" viewBox="-75 -54 150 30" xmlns="http://www.w3.org/2000/svg" version="1.1">
<title>OpenSCAD Model</title>
<path d="
M 70.4369,-24.5886 L 71.0451,-24.7447 L 71.6289,-24.9759 L 72.1791,-25.2784 L 72.6871,-25.6474 L 73.1448,-26.0773
 L 73.5451,-26.5611 L 73.8815,-27.0912 L 74.1489,-27.6594 L 74.3429,-28.2566 L 74.4606,-28.8733 L 74.5,-29.5
 L 74.5,-48.5 L 74.4606,-49.1267 L 74.3429,-49.7434 L 74.1489,-50.3406 L 73.8815,-50.9088 L 73.5451,-51.4389
 L 73.1448,-51.9227 L 72.6871,-52.3526 L 72.1791,-52.7216 L 71.6289,-53.0241 L 71.0451,-53.2553 L 70.4369,-53.4114
 L 69.8139,-53.4901 L -69.8139,-53.4901 L -70.4369,-53.4114 L -71.0451,-53.2553 L -71.6289,-53.0241 L -72.1791,-52.7216
 L -72.6871,-52.3526 L -73.1448,-51.9227 L -73.5451,-51.4389 L -73.8815,-50.9088 L -74.1489,-50.3406 L -74.3429,-49.7434
 L -74.4606,-49.1267 L -74.5,-48.5 L -74.5,-29.5 L -74.4606,-28.8733 L -74.3429,-28.2566 L -74.1489,-27.6594
 L -73.8815,-27.0912 L -73.5451,-26.5611 L -73.1448,-26.0773 L -72.6871,-25.6474 L -72.1791,-25.2784 L -71.6289,-24.9759
 L -71.0451,-24.7447 L -70.4369,-24.5886 L -69.8139,-24.5099 L 69.8139,-24.5099 z
M 55.2779,-27.5227 L 53.8451,-27.7037 L 52.4463,-28.0629 L 51.1035,-28.5945 L 49.838,-29.2902 L 48.6696,-30.1391
 L 47.6169,-31.1277 L 46.6963,-32.2405 L 45.9225,-33.4598 L 45.3076,-34.7666 L 44.8613,-36.1401 L 44.5907,-37.5587
 L 44.5,-39 L 44.5907,-40.4413 L 44.8613,-41.8599 L 45.3076,-43.2334 L 45.9225,-44.5402 L 46.6963,-45.7595
 L 47.6169,-46.8723 L 48.6696,-47.8609 L 49.838,-48.7098 L 51.1035,-49.4055 L 52.4463,-49.9371 L 53.8451,-50.2963
 L 55.2779,-50.4773 L 56.7221,-50.4773 L 58.1549,-50.2963 L 59.5537,-49.9371 L 60.8965,-49.4055 L 62.162,-48.7098
 L 63.3304,-47.8609 L 64.3831,-46.8723 L 64.5135,-46.7147 L 64.5237,-46.876 L 64.5943,-47.2461 L 64.7107,-47.6044
 L 64.8711,-47.9453 L 65.073,-48.2634 L 65.3131,-48.5536 L 65.5877,-48.8115 L 65.8925,-49.033 L 66.2227,-49.2145
 L 66.573,-49.3532 L 66.9379,-49.4469 L 67.3116,-49.4941 L 67.6884,-49.4941 L 68.0621,-49.4469 L 68.427,-49.3532
 L 68.7773,-49.2145 L 69.1075,-49.033 L 69.4123,-48.8115 L 69.6869,-48.5536 L 69.927,-48.2634 L 70.1289,-47.9453
 L 70.2893,-47.6044 L 70.4057,-47.2461 L 70.4763,-46.876 L 70.5,-46.5 L 70.4763,-46.124 L 70.4057,-45.7539
 L 70.2893,-45.3956 L 70.1289,-45.0547 L 69.927,-44.7366 L 69.6869,-44.4464 L 69.4123,-44.1884 L 69.1075,-43.967
 L 68.7773,-43.7855 L 68.427,-43.6468 L 68.0621,-43.5531 L 67.6884,-43.5059 L 67.3116,-43.5059 L 66.9379,-43.5531
 L 66.573,-43.6468 L 66.4807,-43.6833 L 66.6924,-43.2334 L 67.1387,-41.8599 L 67.4093,-40.4413 L 67.5,-39
 L 67.4093,-37.5587 L 67.1387,-36.1401 L 66.6924,-34.7666 L 66.4807,-34.3167 L 66.573,-34.3532 L 66.9379,-34.4469
 L 67.3116,-34.4941 L 67.6884,-34.4941 L 68.0621,-34.4469 L 68.427,-34.3532 L 68.7773,-34.2145 L 69.1075,-34.033
 L 69.4123,-33.8116 L 69.6869,-33.5536 L 69.927,-33.2634 L 70.1289,-32.9453 L 70.2893,-32.6044 L 70.4057,-32.2461
 L 70.4763,-31.876 L 70.5,-31.5 L 70.4763,-31.124 L 70.4057,-30.7539 L 70.2893,-30.3956 L 70.1289,-30.0547
 L 69.927,-29.7366 L 69.6869,-29.4464 L 69.4123,-29.1885 L 69.1075,-28.967 L 68.7773,-28.7855 L 68.427,-28.6468
 L 68.0621,-28.5531 L 67.6884,-28.5059 L 67.3116,-28.5059 L 66.9379,-28.5531 L 66.573,-28.6468 L 66.2227,-28.7855
 L 65.8925,-28.967 L 65.5877,-29.1885 L 65.3131,-29.4464 L 65.073,-29.7366 L 64.8711,-30.0547 L 64.7107,-30.3956
 L 64.5943,-30.7539 L 64.5237,-31.124 L 64.5135,-31.2853 L 64.3831,-31.1277 L 63.3304,-30.1391 L 62.162,-29.2902
 L 60.8965,-28.5945 L 59.5537,-28.0629 L 58.1549,-27.7037 L 56.7221,-27.5227 z
M 27.2779,-27.5227 L 25.8451,-27.7037 L 24.4463,-28.0629 L 23.1035,-28.5945 L 21.838,-29.2902 L 20.6696,-30.1391
 L 19.6169,-31.1277 L 18.6963,-32.2405 L 17.9225,-33.4598 L 17.3076,-34.7666 L 16.8613,-36.1401 L 16.5907,-37.5587
 L 16.5,-39 L 16.5907,-40.4413 L 16.8613,-41.8599 L 17.3076,-43.2334 L 17.9225,-44.5402 L 18.6963,-45.7595
 L 19.6169,-46.8723 L 20.6696,-47.8609 L 21.838,-48.7098 L 23.1035,-49.4055 L 24.4463,-49.9371 L 25.8451,-50.2963
 L 27.2779,-50.4773 L 28.7221,-50.4773 L 30.1549,-50.2963 L 31.5537,-49.9371 L 32.8965,-49.4055 L 34.162,-48.7098
 L 35.3304,-47.8609 L 36.3831,-46.8723 L 37.3037,-45.7595 L 38.0775,-44.5402 L 38.6924,-43.2334 L 39.1387,-41.8599
 L 39.4093,-40.4413 L 39.5,-39 L 39.4093,-37.5587 L 39.1387,-36.1401 L 38.6924,-34.7666 L 38.0775,-33.4598
 L 37.3037,-32.2405 L 36.3831,-31.1277 L 35.3304,-30.1391 L 34.162,-29.2902 L 32.8965,-28.5945 L 31.5537,-28.0629
 L 30.1549,-27.7037 L 28.7221,-27.5227 z
M -28.7221,-27.5227 L -30.1549,-27.7037 L -31.5537,-28.0629 L -32.8965,-28.5945 L -34.162,-29.2902 L -35.3304,-30.1391
 L -36.3831,-31.1277 L -37.3037,-32.2405 L -38.0775,-33.4598 L -38.6924,-34.7666 L -39.1387,-36.1401 L -39.4093,-37.5587
 L -39.5,-39 L -39.4093,-40.4413 L -39.1387,-41.8599 L -38.6924,-43.2334 L -38.0775,-44.5402 L -37.3037,-45.7595
 L -36.3831,-46.8723 L -35.3304,-47.8609 L -34.162,-48.7098 L -32.8965,-49.4055 L -31.5537,-49.9371 L -30.1549,-50.2963
 L -28.7221,-50.4773 L -27.2779,-50.4773 L -25.8451,-50.2963 L -24.4463,-49.9371 L -23.1035,-49.4055 L -21.838,-48.7098
 L -20.6696,-47.8609 L -19.6169,-46.8723 L -18.6963,-45.7595 L -17.9225,-44.5402 L -17.3076,-43.2334 L -16.8613,-41.8599
 L -16.5907,-40.4413 L -16.5,-39 L -16.5907,-37.5587 L -16.8613,-36.1401 L -17.3076,-34.7666 L -17.9225,-33.4598
 L -18.6963,-32.2405 L -19.6169,-31.1277 L -20.6696,-30.1391 L -21.838,-29.2902 L -23.1035,-28.5945 L -24.4463,-28.0629
 L -25.8451,-27.7037 L -27.2779,-27.5227 z
M -56.7221,-27.5227 L -58.1549,-27.7037 L -59.5537,-28.0629 L -60.8965,-28.5945 L -62.162,-29.2902 L -63.3304,-30.1391
 L -64.3831,-31.1277 L -64.5135,-31.2853 L -64.5237,-31.124 L -64.5943,-30.7539 L -64.7107,-30.3956 L -64.8711,-30.0547
 L -65.073,-29.7366 L -65.3131,-29.4464 L -65.5877,-29.1885 L -65.8925,-28.967 L -66.2227,-28.7855 L -66.573,-28.6468
 L -66.9379,-28.5531 L -67.3116,-28.5059 L -67.6884,-28.5059 L -68.0621,-28.5531 L -68.427,-28.6468 L -68.7773,-28.7855
 L -69.1075,-28.967 L -69.4123,-29.1885 L -69.6869,-29.4464 L -69.927,-29.7366 L -70.1289,-30.0547 L -70.2893,-30.3956
 L -70.4057,-30.7539 L -70.4763,-31.124 L -70.5,-31.5 L -70.4763,-31.876 L -70.4057,-32.2461 L -70.2893,-32.6044
 L -70.1289,-32.9453 L -69.927,-33.2634 L -69.6869,-33.5536 L -69.4123,-33.8116 L -69.1075,-34.033 L -68.7773,-34.2145
 L -68.427,-34.3532 L -68.0621,-34.4469 L -67.6884,-34.4941 L -67.3116,-34.4941 L -66.9379,-34.4469 L -66.573,-34.3532
 L -66.4807,-34.3167 L -66.6924,-34.7666 L -67.1387,-36.1401 L -67.4093,-37.5587 L -67.5,-39 L -67.4093,-40.4413
 L -67.1387,-41.8599 L -66.6924,-43.2334 L -66.4807,-43.6833 L -66.573,-43.6468 L -66.9379,-43.5531 L -67.3116,-43.5059
 L -67.6884,-43.5059 L -68.0621,-43.5531 L -68.427,-43.6468 L -68.7773,-43.7855 L -69.1075,-43.967 L -69.4123,-44.1884
 L -69.6869,-44.4464 L -69.927,-44.7366 L -70.1289,-45.0547 L -70.2893,-45.3956 L -70.4057,-45.7539 L -70.4763,-46.124
 L -70.5,-46.5 L -70.4763,-46.876 L -70.4057,-47.2461 L -70.2893,-47.6044 L -70.1289,-47.9453 L -69.927,-48.2634
 L -69.6869,-48.5536 L -69.4123,-48.8115 L -69.1075,-49.033 L -68.7773,-49.2145 L -68.427,-49.3532 L -68.0621,-49.4469
 L -67.6884,-49.4941 L -67.3116,-49.4941 L -66.9379,-49.4469 L -66.573,-49.3532 L -66.2227,-49.2145 L -65.8925,-49.033
 L -65.5877,-48.8115 L -65.3131,-48.5536 L -65.073,-48.2634 L -64.8711,-47.9453 L -64.7107,-47.6044 L -64.5943,-47.2461
 L -64.5237,-46.876 L -64.5135,-46.7147 L -64.3831,-46.8723 L -63.3304,-47.8609 L -62.162,-48.7098 L -60.8965,-49.4055
 L -59.5537,-49.9371 L -58.1549,-50.2963 L -56.7221,-50.4773 L -55.2779,-50.4773 L -53.8451,-50.2963 L -52.4463,-49.9371
 L -51.1035,-49.4055 L -49.838,-48.7098 L -48.6696,-47.8609 L -47.6169,-46.8723 L -46.6963,-45.7595 L -45.9225,-44.5402
 L -45.3076,-43.2334 L -44.8613,-41.8599 L -44.5907,-40.4413 L -44.5,-39 L -44.5907,-37.5587 L -44.8613,-36.1401
 L -45.3076,-34.7666 L -45.9225,-33.4598 L -46.6963,-32.2405 L -47.6169,-31.1277 L -48.6696,-30.1391 L -49.838,-29.2902
 L -51.1035,-28.5945 L -52.4463,-28.0629 L -53.8451,-27.7037 L -55.2779,-27.5227 z
M -0.722076,-27.5227 L -2.15488,-27.7037 L -3.55368,-28.0629 L -4.89645,-28.5945 L -6.162,-29.2902 L -7.33037,-30.1391
 L -8.38313,-31.1277 L -9.30368,-32.2405 L -10.0775,-33.4598 L -10.6924,-34.7666 L -11.1387,-36.1401 L -11.4093,-37.5587
 L -11.5,-39 L -11.4093,-40.4413 L -11.1387,-41.8599 L -10.6924,-43.2334 L -10.0775,-44.5402 L -9.30368,-45.7595
 L -8.38313,-46.8723 L -7.33037,-47.8609 L -6.162,-48.7098 L -4.89645,-49.4055 L -3.55368,-49.9371 L -2.15488,-50.2963
 L -0.722076,-50.4773 L 0.722076,-50.4773 L 2.15488,-50.2963 L 3.55368,-49.9371 L 4.89645,-49.4055 L 6.162,-48.7098
 L 7.33037,-47.8609 L 8.38313,-46.8723 L 9.30368,-45.7595 L 10.0775,-44.5402 L 10.6924,-43.2334 L 11.1387,-41.8599
 L 11.4093,-40.4413 L 11.5,-39 L 11.4093,-37.5587 L 11.1387,-36.1401 L 10.6924,-34.7666 L 10.0775,-33.4598
 L 9.30368,-32.2405 L 8.38313,-31.1277 L 7.33037,-30.1391 L 6.162,-29.2902 L 4.89645,-28.5945 L 3.55368,-28.0629
 L 2.15488,-27.7037 L 0.722076,-27.5227 z
" stroke="black" fill="lightgray" stroke-width="0.5"/>
</svg>
