<?xml version="1.0" standalone="no"?>
<!DOCTYPE svg PUBLIC "-//W3C//DTD SVG 1.1//EN" "http://www.w3.org/Graphics/SVG/1.1/DTD/svg11.dtd">
<svg width="390mm" height="134mm" viewBox="-195 -67 390 134" xmlns="http://www.w3.org/2000/svg" version="1.1">
<title>OpenSCAD Model</title>
<path d="
M 190.437,66.9114 L 191.045,66.7553 L 191.629,66.5241 L 192.179,66.2216 L 192.687,65.8526 L 193.145,65.4227
 L 193.545,64.9389 L 193.882,64.4088 L 194.149,63.8406 L 194.343,63.2434 L 194.461,62.6267 L 194.5,62
 L 194.5,-62 L 194.461,-62.6267 L 194.343,-63.2434 L 194.149,-63.8406 L 193.882,-64.4088 L 193.545,-64.9389
 L 193.145,-65.4227 L 192.687,-65.8526 L 192.179,-66.2216 L 191.629,-66.5241 L 191.045,-66.7553 L 190.437,-66.9114
 L 189.814,-66.9901 L -189.814,-66.9901 L -190.437,-66.9114 L -191.045,-66.7553 L -191.629,-66.5241 L -192.179,-66.2216
 L -192.687,-65.8526 L -193.145,-65.4227 L -193.545,-64.9389 L -193.882,-64.4088 L -194.149,-63.8406 L -194.343,-63.2434
 L -194.461,-62.6267 L -194.5,-62 L -194.5,62 L -194.461,62.6267 L -194.343,63.2434 L -194.149,63.8406
 L -193.882,64.4088 L -193.545,64.9389 L -193.145,65.4227 L -192.687,65.8526 L -192.179,66.2216 L -191.629,66.5241
 L -191.045,66.7553 L -190.437,66.9114 L -189.814,66.9901 L 189.814,66.9901 z
M -187.688,-57.0059 L -188.062,-57.0531 L -188.427,-57.1468 L -188.777,-57.2855 L -189.107,-57.467 L -189.412,-57.6885
 L -189.687,-57.9464 L -189.927,-58.2366 L -190.129,-58.5547 L -190.289,-58.8956 L -190.406,-59.2539 L -190.476,-59.624
 L -190.5,-60 L -190.476,-60.376 L -190.406,-60.7461 L -190.289,-61.1044 L -190.129,-61.4453 L -189.927,-61.7634
 L -189.687,-62.0536 L -189.412,-62.3115 L -189.107,-62.533 L -188.777,-62.7145 L -188.427,-62.8532 L -188.062,-62.9469
 L -187.688,-62.9941 L -187.312,-62.9941 L -186.938,-62.9469 L -186.573,-62.8532 L -186.223,-62.7145 L -185.893,-62.533
 L -185.588,-62.3115 L -185.313,-62.0536 L -185.073,-61.7634 L -184.871,-61.4453 L -184.711,-61.1044 L -184.594,-60.7461
 L -184.524,-60.376 L -184.5,-60 L -184.524,-59.624 L -184.594,-59.2539 L -184.711,-58.8956 L -184.871,-58.5547
 L -185.073,-58.2366 L -185.313,-57.9464 L -185.588,-57.6885 L -185.893,-57.467 L -186.223,-57.2855 L -186.573,-57.1468
 L -186.938,-57.0531 L -187.312,-57.0059 z
M 187.312,-57.0059 L 186.938,-57.0531 L 186.573,-57.1468 L 186.223,-57.2855 L 185.893,-57.467 L 185.588,-57.6885
 L 185.313,-57.9464 L 185.073,-58.2366 L 184.871,-58.5547 L 184.711,-58.8956 L 184.594,-59.2539 L 184.524,-59.624
 L 184.5,-60 L 184.524,-60.376 L 184.594,-60.7461 L 184.711,-61.1044 L 184.871,-61.4453 L 185.073,-61.7634
 L 185.313,-62.0536 L 185.588,-62.3115 L 185.893,-62.533 L 186.223,-62.7145 L 186.573,-62.8532 L 186.938,-62.9469
 L 187.312,-62.9941 L 187.688,-62.9941 L 188.062,-62.9469 L 188.427,-62.8532 L 188.777,-62.7145 L 189.107,-62.533
 L 189.412,-62.3115 L 189.687,-62.0536 L 189.927,-61.7634 L 190.129,-61.4453 L 190.289,-61.1044 L 190.406,-60.7461
 L 190.476,-60.376 L 190.5,-60 L 190.476,-59.624 L 190.406,-59.2539 L 190.289,-58.8956 L 190.129,-58.5547
 L 189.927,-58.2366 L 189.687,-57.9464 L 189.412,-57.6885 L 189.107,-57.467 L 188.777,-57.2855 L 188.427,-57.1468
 L 188.062,-57.0531 L 187.688,-57.0059 z
M -3.61044,57.3865 L -10.7744,56.4815 L -17.7685,54.6857 L -24.4823,52.0276 L -30.81,48.5488 L -36.6519,44.3045
 L -41.9157,39.3615 L -46.5185,33.7977 L -50.3876,27.7008 L -53.4621,21.1672 L -55.6935,14.2997 L -57.0466,7.20665
 L -57.5,-0 L -57.0466,-7.20665 L -55.6935,-14.2997 L -53.4621,-21.1672 L -50.3876,-27.7008 L -46.5185,-33.7977
 L -41.9157,-39.3615 L -36.6519,-44.3045 L -30.81,-48.5488 L -24.4823,-52.0276 L -17.7685,-54.6857 L -10.7744,-56.4815
 L -3.61044,-57.3865 L 3.61044,-57.3865 L 10.7744,-56.4815 L 17.7685,-54.6857 L 24.4823,-52.0276 L 30.81,-48.5488
 L 36.6519,-44.3045 L 41.9157,-39.3615 L 46.5185,-33.7977 L 50.3876,-27.7008 L 53.4621,-21.1672 L 55.6935,-14.2997
 L 57.0466,-7.20665 L 57.5,-0 L 57.0466,7.20665 L 55.6935,14.2997 L 53.4621,21.1672 L 50.3876,27.7008
 L 46.5185,33.7977 L 41.9157,39.3615 L 36.6519,44.3045 L 30.81,48.5488 L 24.4823,52.0276 L 17.7685,54.6857
 L 10.7744,56.4815 L 3.61044,57.3865 z
M -123.61,57.3865 L -130.774,56.4815 L -137.768,54.6857 L -144.482,52.0276 L -150.81,48.5488 L -156.652,44.3045
 L -161.916,39.3615 L -166.518,33.7977 L -170.388,27.7008 L -173.462,21.1672 L -175.694,14.2997 L -177.047,7.20665
 L -177.5,-0 L -177.047,-7.20665 L -175.694,-14.2997 L -173.462,-21.1672 L -170.388,-27.7008 L -166.518,-33.7977
 L -161.916,-39.3615 L -156.652,-44.3045 L -150.81,-48.5488 L -144.482,-52.0276 L -137.768,-54.6857 L -130.774,-56.4815
 L -123.61,-57.3865 L -116.39,-57.3865 L -109.226,-56.4815 L -102.232,-54.6857 L -95.5177,-52.0276 L -89.19,-48.5488
 L -83.3481,-44.3045 L -78.0843,-39.3615 L -73.4815,-33.7977 L -69.6124,-27.7008 L -66.5378,-21.1672 L -64.3065,-14.2997
 L -62.9534,-7.20665 L -62.5,-0 L -62.9534,7.20665 L -64.3065,14.2997 L -66.5378,21.1672 L -69.6124,27.7008
 L -73.4815,33.7977 L -78.0843,39.3615 L -83.3481,44.3045 L -89.19,48.5488 L -95.5177,52.0276 L -102.232,54.6857
 L -109.226,56.4815 L -116.39,57.3865 z
M 116.39,57.3865 L 109.226,56.4815 L 102.232,54.6857 L 95.5177,52.0276 L 89.19,48.5488 L 83.3481,44.3045
 L 78.0843,39.3615 L 73.4815,33.7977 L 69.6124,27.7008 L 66.5378,21.1672 L 64.3065,14.2997 L 62.9534,7.20665
 L 62.5,-0 L 62.9534,-7.20665 L 64.3065,-14.2997 L 66.5378,-21.1672 L 69.6124,-27.7008 L 73.4815,-33.7977
 L 78.0843,-39.3615 L 83.3481,-44.3045 L 89.19,-48.5488 L 95.5177,-52.0276 L 102.232,-54.6857 L 109.226,-56.4815
 L 116.39,-57.3865 L 123.61,-57.3865 L 130.774,-56.4815 L 137.768,-54.6857 L 144.482,-52.0276 L 150.81,-48.5488
 L 156.652,-44.3045 L 161.916,-39.3615 L 166.518,-33.7977 L 170.388,-27.7008 L 173.462,-21.1672 L 175.694,-14.2997
 L 177.047,-7.20665 L 177.5,-0 L 177.047,7.20665 L 175.694,14.2997 L 173.462,21.1672 L 170.388,27.7008
 L 166.518,33.7977 L 161.916,39.3615 L 156.652,44.3045 L 150.81,48.5488 L 144.482,52.0276 L 137.768,54.6857
 L 130.774,56.4815 L 123.61,57.3865 z
M -187.594,-51.003 L -187.781,-51.0266 L -187.964,-51.0734 L -188.139,-51.1428 L -188.304,-51.2335 L -188.456,-51.3442
 L -188.593,-51.4732 L -188.714,-51.6183 L -188.814,-51.7774 L -188.895,-51.9478 L -188.953,-52.127 L -188.988,-52.312
 L -189,-52.5 L -188.988,-52.688 L -188.953,-52.873 L -188.895,-53.0522 L -188.814,-53.2226 L -188.714,-53.3817
 L -188.593,-53.5268 L -188.456,-53.6558 L -188.304,-53.7665 L -188.139,-53.8572 L -187.964,-53.9266 L -187.781,-53.9734
 L -187.594,-53.997 L -187.406,-53.997 L -187.219,-53.9734 L -187.036,-53.9266 L -186.861,-53.8572 L -186.696,-53.7665
 L -186.544,-53.6558 L -186.407,-53.5268 L -186.286,-53.3817 L -186.186,-53.2226 L -186.105,-53.0522 L -186.047,-52.873
 L -186.012,-52.688 L -186,-52.5 L -186.012,-52.312 L -186.047,-52.127 L -186.105,-51.9478 L -186.186,-51.7774
 L -186.286,-51.6183 L -186.407,-51.4732 L -186.544,-51.3442 L -186.696,-51.2335 L -186.861,-51.1428 L -187.036,-51.0734
 L -187.219,-51.0266 L -187.406,-51.003 z
M 187.406,-51.003 L 187.219,-51.0266 L 187.036,-51.0734 L 186.861,-51.1428 L 186.696,-51.2335 L 186.544,-51.3442
 L 186.407,-51.4732 L 186.286,-51.6183 L 186.186,-51.7774 L 186.105,-51.9478 L 186.047,-52.127 L 186.012,-52.312
 L 186,-52.5 L 186.012,-52.688 L 186.047,-52.873 L 186.105,-53.0522 L 186.186,-53.2226 L 186.286,-53.3817
 L 186.407,-53.5268 L 186.544,-53.6558 L 186.696,-53.7665 L 186.861,-53.8572 L 187.036,-53.9266 L 187.219,-53.9734
 L 187.406,-53.997 L 187.594,-53.997 L 187.781,-53.9734 L 187.964,-53.9266 L 188.139,-53.8572 L 188.304,-53.7665
 L 188.456,-53.6558 L 188.593,-53.5268 L 188.714,-53.3817 L 188.814,-53.2226 L 188.895,-53.0522 L 188.953,-52.873
 L 188.988,-52.688 L 189,-52.5 L 188.988,-52.312 L 188.953,-52.127 L 188.895,-51.9478 L 188.814,-51.7774
 L 188.714,-51.6183 L 188.593,-51.4732 L 188.456,-51.3442 L 188.304,-51.2335 L 188.139,-51.1428 L 187.964,-51.0734
 L 187.781,-51.0266 L 187.594,-51.003 z
M 187.312,-42.0059 L 186.938,-42.0531 L 186.573,-42.1468 L 186.223,-42.2855 L 185.893,-42.467 L 185.588,-42.6885
 L 185.313,-42.9464 L 185.073,-43.2366 L 184.871,-43.5547 L 184.711,-43.8956 L 184.594,-44.2539 L 184.524,-44.624
 L 184.5,-45 L 184.524,-45.376 L 184.594,-45.7461 L 184.711,-46.1044 L 184.871,-46.4453 L 185.073,-46.7634
 L 185.313,-47.0536 L 185.588,-47.3115 L 185.893,-47.533 L 186.223,-47.7145 L 186.573,-47.8532 L 186.938,-47.9469
 L 187.312,-47.9941 L 187.688,-47.9941 L 188.062,-47.9469 L 188.427,-47.8532 L 188.777,-47.7145 L 189.107,-47.533
 L 189.412,-47.3115 L 189.687,-47.0536 L 189.927,-46.7634 L 190.129,-46.4453 L 190.289,-46.1044 L 190.406,-45.7461
 L 190.476,-45.376 L 190.5,-45 L 190.476,-44.624 L 190.406,-44.2539 L 190.289,-43.8956 L 190.129,-43.5547
 L 189.927,-43.2366 L 189.687,-42.9464 L 189.412,-42.6885 L 189.107,-42.467 L 188.777,-42.2855 L 188.427,-42.1468
 L 188.062,-42.0531 L 187.688,-42.0059 z
M -187.688,-42.0059 L -188.062,-42.0531 L -188.427,-42.1468 L -188.777,-42.2855 L -189.107,-42.467 L -189.412,-42.6885
 L -189.687,-42.9464 L -189.927,-43.2366 L -190.129,-43.5547 L -190.289,-43.8956 L -190.406,-44.2539 L -190.476,-44.624
 L -190.5,-45 L -190.476,-45.376 L -190.406,-45.7461 L -190.289,-46.1044 L -190.129,-46.4453 L -189.927,-46.7634
 L -189.687,-47.0536 L -189.412,-47.3115 L -189.107,-47.533 L -188.777,-47.7145 L -188.427,-47.8532 L -188.062,-47.9469
 L -187.688,-47.9941 L -187.312,-47.9941 L -186.938,-47.9469 L -186.573,-47.8532 L -186.223,-47.7145 L -185.893,-47.533
 L -185.588,-47.3115 L -185.313,-47.0536 L -185.073,-46.7634 L -184.871,-46.4453 L -184.711,-46.1044 L -184.594,-45.7461
 L -184.524,-45.376 L -184.5,-45 L -184.524,-44.624 L -184.594,-44.2539 L -184.711,-43.8956 L -184.871,-43.5547
 L -185.073,-43.2366 L -185.313,-42.9464 L -185.588,-42.6885 L -185.893,-42.467 L -186.223,-42.2855 L -186.573,-42.1468
 L -186.938,-42.0531 L -187.312,-42.0059 z
M -187.594,-36.003 L -187.781,-36.0266 L -187.964,-36.0734 L -188.139,-36.1428 L -188.304,-36.2335 L -188.456,-36.3442
 L -188.593,-36.4732 L -188.714,-36.6183 L -188.814,-36.7774 L -188.895,-36.9478 L -188.953,-37.127 L -188.988,-37.312
 L -189,-37.5 L -188.988,-37.688 L -188.953,-37.873 L -188.895,-38.0522 L -188.814,-38.2226 L -188.714,-38.3817
 L -188.593,-38.5268 L -188.456,-38.6558 L -188.304,-38.7665 L -188.139,-38.8572 L -187.964,-38.9266 L -187.781,-38.9734
 L -187.594,-38.997 L -187.406,-38.997 L -187.219,-38.9734 L -187.036,-38.9266 L -186.861,-38.8572 L -186.696,-38.7665
 L -186.544,-38.6558 L -186.407,-38.5268 L -186.286,-38.3817 L -186.186,-38.2226 L -186.105,-38.0522 L -186.047,-37.873
 L -186.012,-37.688 L -186,-37.5 L -186.012,-37.312 L -186.047,-37.127 L -186.105,-36.9478 L -186.186,-36.7774
 L -186.286,-36.6183 L -186.407,-36.4732 L -186.544,-36.3442 L -186.696,-36.2335 L -186.861,-36.1428 L -187.036,-36.0734
 L -187.219,-36.0266 L -187.406,-36.003 z
M 187.406,-36.003 L 187.219,-36.0266 L 187.036,-36.0734 L 186.861,-36.1428 L 186.696,-36.2335 L 186.544,-36.3442
 L 186.407,-36.4732 L 186.286,-36.6183 L 186.186,-36.7774 L 186.105,-36.9478 L 186.047,-37.127 L 186.012,-37.312
 L 186,-37.5 L 186.012,-37.688 L 186.047,-37.873 L 186.105,-38.0522 L 186.186,-38.2226 L 186.286,-38.3817
 L 186.407,-38.5268 L 186.544,-38.6558 L 186.696,-38.7665 L 186.861,-38.8572 L 187.036,-38.9266 L 187.219,-38.9734
 L 187.406,-38.997 L 187.594,-38.997 L 187.781,-38.9734 L 187.964,-38.9266 L 188.139,-38.8572 L 188.304,-38.7665
 L 188.456,-38.6558 L 188.593,-38.5268 L 188.714,-38.3817 L 188.814,-38.2226 L 188.895,-38.0522 L 188.953,-37.873
 L 188.988,-37.688 L 189,-37.5 L 188.988,-37.312 L 188.953,-37.127 L 188.895,-36.9478 L 188.814,-36.7774
 L 188.714,-36.6183 L 188.593,-36.4732 L 188.456,-36.3442 L 188.304,-36.2335 L 188.139,-36.1428 L 187.964,-36.0734
 L 187.781,-36.0266 L 187.594,-36.003 z
M -187.688,-27.0059 L -188.062,-27.0531 L -188.427,-27.1468 L -188.777,-27.2855 L -189.107,-27.467 L -189.412,-27.6884
 L -189.687,-27.9464 L -189.927,-28.2366 L -190.129,-28.5547 L -190.289,-28.8956 L -190.406,-29.2539 L -190.476,-29.624
 L -190.5,-30 L -190.476,-30.376 L -190.406,-30.7461 L -190.289,-31.1044 L -190.129,-31.4453 L -189.927,-31.7634
 L -189.687,-32.0536 L -189.412,-32.3115 L -189.107,-32.533 L -188.777,-32.7145 L -188.427,-32.8532 L -188.062,-32.9469
 L -187.688,-32.9941 L -187.312,-32.9941 L -186.938,-32.9469 L -186.573,-32.8532 L -186.223,-32.7145 L -185.893,-32.533
 L -185.588,-32.3115 L -185.313,-32.0536 L -185.073,-31.7634 L -184.871,-31.4453 L -184.711,-31.1044 L -184.594,-30.7461
 L -184.524,-30.376 L -184.5,-30 L -184.524,-29.624 L -184.594,-29.2539 L -184.711,-28.8956 L -184.871,-28.5547
 L -185.073,-28.2366 L -185.313,-27.9464 L -185.588,-27.6884 L -185.893,-27.467 L -186.223,-27.2855 L -186.573,-27.1468
 L -186.938,-27.0531 L -187.312,-27.0059 z
M 187.312,-27.0059 L 186.938,-27.0531 L 186.573,-27.1468 L 186.223,-27.2855 L 185.893,-27.467 L 185.588,-27.6884
 L 185.313,-27.9464 L 185.073,-28.2366 L 184.871,-28.5547 L 184.711,-28.8956 L 184.594,-29.2539 L 184.524,-29.624
 L 184.5,-30 L 184.524,-30.376 L 184.594,-30.7461 L 184.711,-31.1044 L 184.871,-31.4453 L 185.073,-31.7634
 L 185.313,-32.0536 L 185.588,-32.3115 L 185.893,-32.533 L 186.223,-32.7145 L 186.573,-32.8532 L 186.938,-32.9469
 L 187.312,-32.9941 L 187.688,-32.9941 L 188.062,-32.9469 L 188.427,-32.8532 L 188.777,-32.7145 L 189.107,-32.533
 L 189.412,-32.3115 L 189.687,-32.0536 L 189.927,-31.7634 L 190.129,-31.4453 L 190.289,-31.1044 L 190.406,-30.7461
 L 190.476,-30.376 L 190.5,-30 L 190.476,-29.624 L 190.406,-29.2539 L 190.289,-28.8956 L 190.129,-28.5547
 L 189.927,-28.2366 L 189.687,-27.9464 L 189.412,-27.6884 L 189.107,-27.467 L 188.777,-27.2855 L 188.427,-27.1468
 L 188.062,-27.0531 L 187.688,-27.0059 z
M -187.594,-21.003 L -187.781,-21.0266 L -187.964,-21.0734 L -188.139,-21.1427 L -188.304,-21.2335 L -188.456,-21.3442
 L -188.593,-21.4732 L -188.714,-21.6183 L -188.814,-21.7774 L -188.895,-21.9478 L -188.953,-22.127 L -188.988,-22.312
 L -189,-22.5 L -188.988,-22.688 L -188.953,-22.873 L -188.895,-23.0522 L -188.814,-23.2226 L -188.714,-23.3817
 L -188.593,-23.5268 L -188.456,-23.6558 L -188.304,-23.7665 L -188.139,-23.8572 L -187.964,-23.9266 L -187.781,-23.9734
 L -187.594,-23.997 L -187.406,-23.997 L -187.219,-23.9734 L -187.036,-23.9266 L -186.861,-23.8572 L -186.696,-23.7665
 L -186.544,-23.6558 L -186.407,-23.5268 L -186.286,-23.3817 L -186.186,-23.2226 L -186.105,-23.0522 L -186.047,-22.873
 L -186.012,-22.688 L -186,-22.5 L -186.012,-22.312 L -186.047,-22.127 L -186.105,-21.9478 L -186.186,-21.7774
 L -186.286,-21.6183 L -186.407,-21.4732 L -186.544,-21.3442 L -186.696,-21.2335 L -186.861,-21.1427 L -187.036,-21.0734
 L -187.219,-21.0266 L -187.406,-21.003 z
M 187.406,-21.003 L 187.219,-21.0266 L 187.036,-21.0734 L 186.861,-21.1427 L 186.696,-21.2335 L 186.544,-21.3442
 L 186.407,-21.4732 L 186.286,-21.6183 L 186.186,-21.7774 L 186.105,-21.9478 L 186.047,-22.127 L 186.012,-22.312
 L 186,-22.5 L 186.012,-22.688 L 186.047,-22.873 L 186.105,-23.0522 L 186.186,-23.2226 L 186.286,-23.3817
 L 186.407,-23.5268 L 186.544,-23.6558 L 186.696,-23.7665 L 186.861,-23.8572 L 187.036,-23.9266 L 187.219,-23.9734
 L 187.406,-23.997 L 187.594,-23.997 L 187.781,-23.9734 L 187.964,-23.9266 L 188.139,-23.8572 L 188.304,-23.7665
 L 188.456,-23.6558 L 188.593,-23.5268 L 188.714,-23.3817 L 188.814,-23.2226 L 188.895,-23.0522 L 188.953,-22.873
 L 188.988,-22.688 L 189,-22.5 L 188.988,-22.312 L 188.953,-22.127 L 188.895,-21.9478 L 188.814,-21.7774
 L 188.714,-21.6183 L 188.593,-21.4732 L 188.456,-21.3442 L 188.304,-21.2335 L 188.139,-21.1427 L 187.964,-21.0734
 L 187.781,-21.0266 L 187.594,-21.003 z
M -187.688,-12.0059 L -188.062,-12.0531 L -188.427,-12.1468 L -188.777,-12.2855 L -189.107,-12.467 L -189.412,-12.6884
 L -189.687,-12.9464 L -189.927,-13.2366 L -190.129,-13.5547 L -190.289,-13.8956 L -190.406,-14.2539 L -190.476,-14.624
 L -190.5,-15 L -190.476,-15.376 L -190.406,-15.7461 L -190.289,-16.1044 L -190.129,-16.4453 L -189.927,-16.7634
 L -189.687,-17.0536 L -189.412,-17.3115 L -189.107,-17.533 L -188.777,-17.7145 L -188.427,-17.8532 L -188.062,-17.9469
 L -187.688,-17.9941 L -187.312,-17.9941 L -186.938,-17.9469 L -186.573,-17.8532 L -186.223,-17.7145 L -185.893,-17.533
 L -185.588,-17.3115 L -185.313,-17.0536 L -185.073,-16.7634 L -184.871,-16.4453 L -184.711,-16.1044 L -184.594,-15.7461
 L -184.524,-15.376 L -184.5,-15 L -184.524,-14.624 L -184.594,-14.2539 L -184.711,-13.8956 L -184.871,-13.5547
 L -185.073,-13.2366 L -185.313,-12.9464 L -185.588,-12.6884 L -185.893,-12.467 L -186.223,-12.2855 L -186.573,-12.1468
 L -186.938,-12.0531 L -187.312,-12.0059 z
M 187.312,-12.0059 L 186.938,-12.0531 L 186.573,-12.1468 L 186.223,-12.2855 L 185.893,-12.467 L 185.588,-12.6884
 L 185.313,-12.9464 L 185.073,-13.2366 L 184.871,-13.5547 L 184.711,-13.8956 L 184.594,-14.2539 L 184.524,-14.624
 L 184.5,-15 L 184.524,-15.376 L 184.594,-15.7461 L 184.711,-16.1044 L 184.871,-16.4453 L 185.073,-16.7634
 L 185.313,-17.0536 L 185.588,-17.3115 L 185.893,-17.533 L 186.223,-17.7145 L 186.573,-17.8532 L 186.938,-17.9469
 L 187.312,-17.9941 L 187.688,-17.9941 L 188.062,-17.9469 L 188.427,-17.8532 L 188.777,-17.7145 L 189.107,-17.533
 L 189.412,-17.3115 L 189.687,-17.0536 L 189.927,-16.7634 L 190.129,-16.4453 L 190.289,-16.1044 L 190.406,-15.7461
 L 190.476,-15.376 L 190.5,-15 L 190.476,-14.624 L 190.406,-14.2539 L 190.289,-13.8956 L 190.129,-13.5547
 L 189.927,-13.2366 L 189.687,-12.9464 L 189.412,-12.6884 L 189.107,-12.467 L 188.777,-12.2855 L 188.427,-12.1468
 L 188.062,-12.0531 L 187.688,-12.0059 z
M 187.406,-6.00294 L 187.219,-6.02657 L 187.036,-6.07341 L 186.861,-6.14275 L 186.696,-6.23351 L 186.544,-6.34422
 L 186.407,-6.47318 L 186.286,-6.61832 L 186.186,-6.77736 L 186.105,-6.9478 L 186.047,-7.12695 L 186.012,-7.312
 L 186,-7.5 L 186.012,-7.68799 L 186.047,-7.87303 L 186.105,-8.05219 L 186.186,-8.22263 L 186.286,-8.38167
 L 186.407,-8.52681 L 186.544,-8.65576 L 186.696,-8.76648 L 186.861,-8.85724 L 187.036,-8.92657 L 187.219,-8.97342
 L 187.406,-8.99704 L 187.594,-8.99704 L 187.781,-8.97342 L 187.964,-8.92657 L 188.139,-8.85724 L 188.304,-8.76648
 L 188.456,-8.65576 L 188.593,-8.52681 L 188.714,-8.38167 L 188.814,-8.22263 L 188.895,-8.05219 L 188.953,-7.87303
 L 188.988,-7.68799 L 189,-7.5 L 188.988,-7.312 L 188.953,-7.12695 L 188.895,-6.9478 L 188.814,-6.77736
 L 188.714,-6.61832 L 188.593,-6.47318 L 188.456,-6.34422 L 188.304,-6.23351 L 188.139,-6.14275 L 187.964,-6.07341
 L 187.781,-6.02657 L 187.594,-6.00294 z
M -187.594,-6.00294 L -187.781,-6.02657 L -187.964,-6.07341 L -188.139,-6.14275 L -188.304,-6.23351 L -188.456,-6.34422
 L -188.593,-6.47318 L -188.714,-6.61832 L -188.814,-6.77736 L -188.895,-6.9478 L -188.953,-7.12695 L -188.988,-7.312
 L -189,-7.5 L -188.988,-7.68799 L -188.953,-7.87303 L -188.895,-8.05219 L -188.814,-8.22263 L -188.714,-8.38167
 L -188.593,-8.52681 L -188.456,-8.65576 L -188.304,-8.76648 L -188.139,-8.85724 L -187.964,-8.92657 L -187.781,-8.97342
 L -187.594,-8.99704 L -187.406,-8.99704 L -187.219,-8.97342 L -187.036,-8.92657 L -186.861,-8.85724 L -186.696,-8.76648
 L -186.544,-8.65576 L -186.407,-8.52681 L -186.286,-8.38167 L -186.186,-8.22263 L -186.105,-8.05219 L -186.047,-7.87303
 L -186.012,-7.68799 L -186,-7.5 L -186.012,-7.312 L -186.047,-7.12695 L -186.105,-6.9478 L -186.186,-6.77736
 L -186.286,-6.61832 L -186.407,-6.47318 L -186.544,-6.34422 L -186.696,-6.23351 L -186.861,-6.14275 L -187.036,-6.07341
 L -187.219,-6.02657 L -187.406,-6.00294 z
M -187.688,2.99408 L -188.062,2.94685 L -188.427,2.85316 L -188.777,2.71448 L -189.107,2.53297 L -189.412,2.31154
 L -189.687,2.05363 L -189.927,1.76335 L -190.129,1.44525 L -190.289,1.10437 L -190.406,0.746063 L -190.476,0.375992
 L -190.5,-0 L -190.476,-0.375992 L -190.406,-0.746063 L -190.289,-1.10437 L -190.129,-1.44525 L -189.927,-1.76335
 L -189.687,-2.05363 L -189.412,-2.31154 L -189.107,-2.53297 L -188.777,-2.71448 L -188.427,-2.85316 L -188.062,-2.94685
 L -187.688,-2.99408 L -187.312,-2.99408 L -186.938,-2.94685 L -186.573,-2.85316 L -186.223,-2.71448 L -185.893,-2.53297
 L -185.588,-2.31154 L -185.313,-2.05363 L -185.073,-1.76335 L -184.871,-1.44525 L -184.711,-1.10437 L -184.594,-0.746063
 L -184.524,-0.375992 L -184.5,-0 L -184.524,0.375992 L -184.594,0.746063 L -184.711,1.10437 L -184.871,1.44525
 L -185.073,1.76335 L -185.313,2.05363 L -185.588,2.31154 L -185.893,2.53297 L -186.223,2.71448 L -186.573,2.85316
 L -186.938,2.94685 L -187.312,2.99408 z
M 187.312,2.99408 L 186.938,2.94685 L 186.573,2.85316 L 186.223,2.71448 L 185.893,2.53297 L 185.588,2.31154
 L 185.313,2.05363 L 185.073,1.76335 L 184.871,1.44525 L 184.711,1.10437 L 184.594,0.746063 L 184.524,0.375992
 L 184.5,-0 L 184.524,-0.375992 L 184.594,-0.746063 L 184.711,-1.10437 L 184.871,-1.44525 L 185.073,-1.76335
 L 185.313,-2.05363 L 185.588,-2.31154 L 185.893,-2.53297 L 186.223,-2.71448 L 186.573,-2.85316 L 186.938,-2.94685
 L 187.312,-2.99408 L 187.688,-2.99408 L 188.062,-2.94685 L 188.427,-2.85316 L 188.777,-2.71448 L 189.107,-2.53297
 L 189.412,-2.31154 L 189.687,-2.05363 L 189.927,-1.76335 L 190.129,-1.44525 L 190.289,-1.10437 L 190.406,-0.746063
 L 190.476,-0.375992 L 190.5,-0 L 190.476,0.375992 L 190.406,0.746063 L 190.289,1.10437 L 190.129,1.44525
 L 189.927,1.76335 L 189.687,2.05363 L 189.412,2.31154 L 189.107,2.53297 L 188.777,2.71448 L 188.427,2.85316
 L 188.062,2.94685 L 187.688,2.99408 z
M -187.594,8.99704 L -187.781,8.97342 L -187.964,8.92657 L -188.139,8.85724 L -188.304,8.76648 L -188.456,8.65576
 L -188.593,8.52681 L -188.714,8.38167 L -188.814,8.22263 L -188.895,8.05219 L -188.953,7.87303 L -188.988,7.68799
 L -189,7.5 L -188.988,7.312 L -188.953,7.12695 L -188.895,6.9478 L -188.814,6.77736 L -188.714,6.61832
 L -188.593,6.47318 L -188.456,6.34422 L -188.304,6.23351 L -188.139,6.14275 L -187.964,6.07341 L -187.781,6.02657
 L -187.594,6.00294 L -187.406,6.00294 L -187.219,6.02657 L -187.036,6.07341 L -186.861,6.14275 L -186.696,6.23351
 L -186.544,6.34422 L -186.407,6.47318 L -186.286,6.61832 L -186.186,6.77736 L -186.105,6.9478 L -186.047,7.12695
 L -186.012,7.312 L -186,7.5 L -186.012,7.68799 L -186.047,7.87303 L -186.105,8.05219 L -186.186,8.22263
 L -186.286,8.38167 L -186.407,8.52681 L -186.544,8.65576 L -186.696,8.76648 L -186.861,8.85724 L -187.036,8.92657
 L -187.219,8.97342 L -187.406,8.99704 z
M 187.406,8.99704 L 187.219,8.97342 L 187.036,8.92657 L 186.861,8.85724 L 186.696,8.76648 L 186.544,8.65576
 L 186.407,8.52681 L 186.286,8.38167 L 186.186,8.22263 L 186.105,8.05219 L 186.047,7.87303 L 186.012,7.68799
 L 186,7.5 L 186.012,7.312 L 186.047,7.12695 L 186.105,6.9478 L 186.186,6.77736 L 186.286,6.61832
 L 186.407,6.47318 L 186.544,6.34422 L 186.696,6.23351 L 186.861,6.14275 L 187.036,6.07341 L 187.219,6.02657
 L 187.406,6.00294 L 187.594,6.00294 L 187.781,6.02657 L 187.964,6.07341 L 188.139,6.14275 L 188.304,6.23351
 L 188.456,6.34422 L 188.593,6.47318 L 188.714,6.61832 L 188.814,6.77736 L 188.895,6.9478 L 188.953,7.12695
 L 188.988,7.312 L 189,7.5 L 188.988,7.68799 L 188.953,7.87303 L 188.895,8.05219 L 188.814,8.22263
 L 188.714,8.38167 L 188.593,8.52681 L 188.456,8.65576 L 188.304,8.76648 L 188.139,8.85724 L 187.964,8.92657
 L 187.781,8.97342 L 187.594,8.99704 z
M -187.688,17.9941 L -188.062,17.9469 L -188.427,17.8532 L -188.777,17.7145 L -189.107,17.533 L -189.412,17.3115
 L -189.687,17.0536 L -189.927,16.7634 L -190.129,16.4453 L -190.289,16.1044 L -190.406,15.7461 L -190.476,15.376
 L -190.5,15 L -190.476,14.624 L -190.406,14.2539 L -190.289,13.8956 L -190.129,13.5547 L -189.927,13.2366
 L -189.687,12.9464 L -189.412,12.6884 L -189.107,12.467 L -188.777,12.2855 L -188.427,12.1468 L -188.062,12.0531
 L -187.688,12.0059 L -187.312,12.0059 L -186.938,12.0531 L -186.573,12.1468 L -186.223,12.2855 L -185.893,12.467
 L -185.588,12.6884 L -185.313,12.9464 L -185.073,13.2366 L -184.871,13.5547 L -184.711,13.8956 L -184.594,14.2539
 L -184.524,14.624 L -184.5,15 L -184.524,15.376 L -184.594,15.7461 L -184.711,16.1044 L -184.871,16.4453
 L -185.073,16.7634 L -185.313,17.0536 L -185.588,17.3115 L -185.893,17.533 L -186.223,17.7145 L -186.573,17.8532
 L -186.938,17.9469 L -187.312,17.9941 z
M 187.312,17.9941 L 186.938,17.9469 L 186.573,17.8532 L 186.223,17.7145 L 185.893,17.533 L 185.588,17.3115
 L 185.313,17.0536 L 185.073,16.7634 L 184.871,16.4453 L 184.711,16.1044 L 184.594,15.7461 L 184.524,15.376
 L 184.5,15 L 184.524,14.624 L 184.594,14.2539 L 184.711,13.8956 L 184.871,13.5547 L 185.073,13.2366
 L 185.313,12.9464 L 185.588,12.6884 L 185.893,12.467 L 186.223,12.2855 L 186.573,12.1468 L 186.938,12.0531
 L 187.312,12.0059 L 187.688,12.0059 L 188.062,12.0531 L 188.427,12.1468 L 188.777,12.2855 L 189.107,12.467
 L 189.412,12.6884 L 189.687,12.9464 L 189.927,13.2366 L 190.129,13.5547 L 190.289,13.8956 L 190.406,14.2539
 L 190.476,14.624 L 190.5,15 L 190.476,15.376 L 190.406,15.7461 L 190.289,16.1044 L 190.129,16.4453
 L 189.927,16.7634 L 189.687,17.0536 L 189.412,17.3115 L 189.107,17.533 L 188.777,17.7145 L 188.427,17.8532
 L 188.062,17.9469 L 187.688,17.9941 z
M -187.594,23.997 L -187.781,23.9734 L -187.964,23.9266 L -188.139,23.8572 L -188.304,23.7665 L -188.456,23.6558
 L -188.593,23.5268 L -188.714,23.3817 L -188.814,23.2226 L -188.895,23.0522 L -188.953,22.873 L -188.988,22.688
 L -189,22.5 L -188.988,22.312 L -188.953,22.127 L -188.895,21.9478 L -188.814,21.7774 L -188.714,21.6183
 L -188.593,21.4732 L -188.456,21.3442 L -188.304,21.2335 L -188.139,21.1427 L -187.964,21.0734 L -187.781,21.0266
 L -187.594,21.003 L -187.406,21.003 L -187.219,21.0266 L -187.036,21.0734 L -186.861,21.1427 L -186.696,21.2335
 L -186.544,21.3442 L -186.407,21.4732 L -186.286,21.6183 L -186.186,21.7774 L -186.105,21.9478 L -186.047,22.127
 L -186.012,22.312 L -186,22.5 L -186.012,22.688 L -186.047,22.873 L -186.105,23.0522 L -186.186,23.2226
 L -186.286,23.3817 L -186.407,23.5268 L -186.544,23.6558 L -186.696,23.7665 L -186.861,23.8572 L -187.036,23.9266
 L -187.219,23.9734 L -187.406,23.997 z
M 187.406,23.997 L 187.219,23.9734 L 187.036,23.9266 L 186.861,23.8572 L 186.696,23.7665 L 186.544,23.6558
 L 186.407,23.5268 L 186.286,23.3817 L 186.186,23.2226 L 186.105,23.0522 L 186.047,22.873 L 186.012,22.688
 L 186,22.5 L 186.012,22.312 L 186.047,22.127 L 186.105,21.9478 L 186.186,21.7774 L 186.286,21.6183
 L 186.407,21.4732 L 186.544,21.3442 L 186.696,21.2335 L 186.861,21.1427 L 187.036,21.0734 L 187.219,21.0266
 L 187.406,21.003 L 187.594,21.003 L 187.781,21.0266 L 187.964,21.0734 L 188.139,21.1427 L 188.304,21.2335
 L 188.456,21.3442 L 188.593,21.4732 L 188.714,21.6183 L 188.814,21.7774 L 188.895,21.9478 L 188.953,22.127
 L 188.988,22.312 L 189,22.5 L 188.988,22.688 L 188.953,22.873 L 188.895,23.0522 L 188.814,23.2226
 L 188.714,23.3817 L 188.593,23.5268 L 188.456,23.6558 L 188.304,23.7665 L 188.139,23.8572 L 187.964,23.9266
 L 187.781,23.9734 L 187.594,23.997 z
M 187.312,32.9941 L 186.938,32.9469 L 186.573,32.8532 L 186.223,32.7145 L 185.893,32.533 L 185.588,32.3115
 L 185.313,32.0536 L 185.073,31.7634 L 184.871,31.4453 L 184.711,31.1044 L 184.594,30.7461 L 184.524,30.376
 L 184.5,30 L 184.524,29.624 L 184.594,29.2539 L 184.711,28.8956 L 184.871,28.5547 L 185.073,28.2366
 L 185.313,27.9464 L 185.588,27.6884 L 185.893,27.467 L 186.223,27.2855 L 186.573,27.1468 L 186.938,27.0531
 L 187.312,27.0059 L 187.688,27.0059 L 188.062,27.0531 L 188.427,27.1468 L 188.777,27.2855 L 189.107,27.467
 L 189.412,27.6884 L 189.687,27.9464 L 189.927,28.2366 L 190.129,28.5547 L 190.289,28.8956 L 190.406,29.2539
 L 190.476,29.624 L 190.5,30 L 190.476,30.376 L 190.406,30.7461 L 190.289,31.1044 L 190.129,31.4453
 L 189.927,31.7634 L 189.687,32.0536 L 189.412,32.3115 L 189.107,32.533 L 188.777,32.7145 L 188.427,32.8532
 L 188.062,32.9469 L 187.688,32.9941 z
M -187.688,32.9941 L -188.062,32.9469 L -188.427,32.8532 L -188.777,32.7145 L -189.107,32.533 L -189.412,32.3115
 L -189.687,32.0536 L -189.927,31.7634 L -190.129,31.4453 L -190.289,31.1044 L -190.406,30.7461 L -190.476,30.376
 L -190.5,30 L -190.476,29.624 L -190.406,29.2539 L -190.289,28.8956 L -190.129,28.5547 L -189.927,28.2366
 L -189.687,27.9464 L -189.412,27.6884 L -189.107,27.467 L -188.777,27.2855 L -188.427,27.1468 L -188.062,27.0531
 L -187.688,27.0059 L -187.312,27.0059 L -186.938,27.0531 L -186.573,27.1468 L -186.223,27.2855 L -185.893,27.467
 L -185.588,27.6884 L -185.313,27.9464 L -185.073,28.2366 L -184.871,28.5547 L -184.711,28.8956 L -184.594,29.2539
 L -184.524,29.624 L -184.5,30 L -184.524,30.376 L -184.594,30.7461 L -184.711,31.1044 L -184.871,31.4453
 L -185.073,31.7634 L -185.313,32.0536 L -185.588,32.3115 L -185.893,32.533 L -186.223,32.7145 L -186.573,32.8532
 L -186.938,32.9469 L -187.312,32.9941 z
M -187.594,38.997 L -187.781,38.9734 L -187.964,38.9266 L -188.139,38.8572 L -188.304,38.7665 L -188.456,38.6558
 L -188.593,38.5268 L -188.714,38.3817 L -188.814,38.2226 L -188.895,38.0522 L -188.953,37.873 L -188.988,37.688
 L -189,37.5 L -188.988,37.312 L -188.953,37.127 L -188.895,36.9478 L -188.814,36.7774 L -188.714,36.6183
 L -188.593,36.4732 L -188.456,36.3442 L -188.304,36.2335 L -188.139,36.1428 L -187.964,36.0734 L -187.781,36.0266
 L -187.594,36.003 L -187.406,36.003 L -187.219,36.0266 L -187.036,36.0734 L -186.861,36.1428 L -186.696,36.2335
 L -186.544,36.3442 L -186.407,36.4732 L -186.286,36.6183 L -186.186,36.7774 L -186.105,36.9478 L -186.047,37.127
 L -186.012,37.312 L -186,37.5 L -186.012,37.688 L -186.047,37.873 L -186.105,38.0522 L -186.186,38.2226
 L -186.286,38.3817 L -186.407,38.5268 L -186.544,38.6558 L -186.696,38.7665 L -186.861,38.8572 L -187.036,38.9266
 L -187.219,38.9734 L -187.406,38.997 z
M 187.406,38.997 L 187.219,38.9734 L 187.036,38.9266 L 186.861,38.8572 L 186.696,38.7665 L 186.544,38.6558
 L 186.407,38.5268 L 186.286,38.3817 L 186.186,38.2226 L 186.105,38.0522 L 186.047,37.873 L 186.012,37.688
 L 186,37.5 L 186.012,37.312 L 186.047,37.127 L 186.105,36.9478 L 186.186,36.7774 L 186.286,36.6183
 L 186.407,36.4732 L 186.544,36.3442 L 186.696,36.2335 L 186.861,36.1428 L 187.036,36.0734 L 187.219,36.0266
 L 187.406,36.003 L 187.594,36.003 L 187.781,36.0266 L 187.964,36.0734 L 188.139,36.1428 L 188.304,36.2335
 L 188.456,36.3442 L 188.593,36.4732 L 188.714,36.6183 L 188.814,36.7774 L 188.895,36.9478 L 188.953,37.127
 L 188.988,37.312 L 189,37.5 L 188.988,37.688 L 188.953,37.873 L 188.895,38.0522 L 188.814,38.2226
 L 188.714,38.3817 L 188.593,38.5268 L 188.456,38.6558 L 188.304,38.7665 L 188.139,38.8572 L 187.964,38.9266
 L 187.781,38.9734 L 187.594,38.997 z
M -187.688,47.9941 L -188.062,47.9469 L -188.427,47.8532 L -188.777,47.7145 L -189.107,47.533 L -189.412,47.3115
 L -189.687,47.0536 L -189.927,46.7634 L -190.129,46.4453 L -190.289,46.1044 L -190.406,45.7461 L -190.476,45.376
 L -190.5,45 L -190.476,44.624 L -190.406,44.2539 L -190.289,43.8956 L -190.129,43.5547 L -189.927,43.2366
 L -189.687,42.9464 L -189.412,42.6885 L -189.107,42.467 L -188.777,42.2855 L -188.427,42.1468 L -188.062,42.0531
 L -187.688,42.0059 L -187.312,42.0059 L -186.938,42.0531 L -186.573,42.1468 L -186.223,42.2855 L -185.893,42.467
 L -185.588,42.6885 L -185.313,42.9464 L -185.073,43.2366 L -184.871,43.5547 L -184.711,43.8956 L -184.594,44.2539
 L -184.524,44.624 L -184.5,45 L -184.524,45.376 L -184.594,45.7461 L -184.711,46.1044 L -184.871,46.4453
 L -185.073,46.7634 L -185.313,47.0536 L -185.588,47.3115 L -185.893,47.533 L -186.223,47.7145 L -186.573,47.8532
 L -186.938,47.9469 L -187.312,47.9941 z
M 187.312,47.9941 L 186.938,47.9469 L 186.573,47.8532 L 186.223,47.7145 L 185.893,47.533 L 185.588,47.3115
 L 185.313,47.0536 L 185.073,46.7634 L 184.871,46.4453 L 184.711,46.1044 L 184.594,45.7461 L 184.524,45.376
 L 184.5,45 L 184.524,44.624 L 184.594,44.2539 L 184.711,43.8956 L 184.871,43.5547 L 185.073,43.2366
 L 185.313,42.9464 L 185.588,42.6885 L 185.893,42.467 L 186.223,42.2855 L 186.573,42.1468 L 186.938,42.0531
 L 187.312,42.0059 L 187.688,42.0059 L 188.062,42.0531 L 188.427,42.1468 L 188.777,42.2855 L 189.107,42.467
 L 189.412,42.6885 L 189.687,42.9464 L 189.927,43.2366 L 190.129,43.5547 L 190.289,43.8956 L 190.406,44.2539
 L 190.476,44.624 L 190.5,45 L 190.476,45.376 L 190.406,45.7461 L 190.289,46.1044 L 190.129,46.4453
 L 189.927,46.7634 L 189.687,47.0536 L 189.412,47.3115 L 189.107,47.533 L 188.777,47.7145 L 188.427,47.8532
 L 188.062,47.9469 L 187.688,47.9941 z
M -187.594,53.997 L -187.781,53.9734 L -187.964,53.9266 L -188.139,53.8572 L -188.304,53.7665 L -188.456,53.6558
 L -188.593,53.5268 L -188.714,53.3817 L -188.814,53.2226 L -188.895,53.0522 L -188.953,52.873 L -188.988,52.688
 L -189,52.5 L -188.988,52.312 L -188.953,52.127 L -188.895,51.9478 L -188.814,51.7774 L -188.714,51.6183
 L -188.593,51.4732 L -188.456,51.3442 L -188.304,51.2335 L -188.139,51.1428 L -187.964,51.0734 L -187.781,51.0266
 L -187.594,51.003 L -187.406,51.003 L -187.219,51.0266 L -187.036,51.0734 L -186.861,51.1428 L -186.696,51.2335
 L -186.544,51.3442 L -186.407,51.4732 L -186.286,51.6183 L -186.186,51.7774 L -186.105,51.9478 L -186.047,52.127
 L -186.012,52.312 L -186,52.5 L -186.012,52.688 L -186.047,52.873 L -186.105,53.0522 L -186.186,53.2226
 L -186.286,53.3817 L -186.407,53.5268 L -186.544,53.6558 L -186.696,53.7665 L -186.861,53.8572 L -187.036,53.9266
 L -187.219,53.9734 L -187.406,53.997 z
M 187.406,53.997 L 187.219,53.9734 L 187.036,53.9266 L 186.861,53.8572 L 186.696,53.7665 L 186.544,53.6558
 L 186.407,53.5268 L 186.286,53.3817 L 186.186,53.2226 L 186.105,53.0522 L 186.047,52.873 L 186.012,52.688
 L 186,52.5 L 186.012,52.312 L 186.047,52.127 L 186.105,51.9478 L 186.186,51.7774 L 186.286,51.6183
 L 186.407,51.4732 L 186.544,51.3442 L 186.696,51.2335 L 186.861,51.1428 L 187.036,51.0734 L 187.219,51.0266
 L 187.406,51.003 L 187.594,51.003 L 187.781,51.0266 L 187.964,51.0734 L 188.139,51.1428 L 188.304,51.2335
 L 188.456,51.3442 L 188.593,51.4732 L 188.714,51.6183 L 188.814,51.7774 L 188.895,51.9478 L 188.953,52.127
 L 188.988,52.312 L 189,52.5 L 188.988,52.688 L 188.953,52.873 L 188.895,53.0522 L 188.814,53.2226
 L 188.714,53.3817 L 188.593,53.5268 L 188.456,53.6558 L 188.304,53.7665 L 188.139,53.8572 L 187.964,53.9266
 L 187.781,53.9734 L 187.594,53.997 z
M -187.688,62.9941 L -188.062,62.9469 L -188.427,62.8532 L -188.777,62.7145 L -189.107,62.533 L -189.412,62.3115
 L -189.687,62.0536 L -189.927,61.7634 L -190.129,61.4453 L -190.289,61.1044 L -190.406,60.7461 L -190.476,60.376
 L -190.5,60 L -190.476,59.624 L -190.406,59.2539 L -190.289,58.8956 L -190.129,58.5547 L -189.927,58.2366
 L -189.687,57.9464 L -189.412,57.6885 L -189.107,57.467 L -188.777,57.2855 L -188.427,57.1468 L -188.062,57.0531
 L -187.688,57.0059 L -187.312,57.0059 L -186.938,57.0531 L -186.573,57.1468 L -186.223,57.2855 L -185.893,57.467
 L -185.588,57.6885 L -185.313,57.9464 L -185.073,58.2366 L -184.871,58.5547 L -184.711,58.8956 L -184.594,59.2539
 L -184.524,59.624 L -184.5,60 L -184.524,60.376 L -184.594,60.7461 L -184.711,61.1044 L -184.871,61.4453
 L -185.073,61.7634 L -185.313,62.0536 L -185.588,62.3115 L -185.893,62.533 L -186.223,62.7145 L -186.573,62.8532
 L -186.938,62.9469 L -187.312,62.9941 z
M 187.312,62.9941 L 186.938,62.9469 L 186.573,62.8532 L 186.223,62.7145 L 185.893,62.533 L 185.588,62.3115
 L 185.313,62.0536 L 185.073,61.7634 L 184.871,61.4453 L 184.711,61.1044 L 184.594,60.7461 L 184.524,60.376
 L 184.5,60 L 184.524,59.624 L 184.594,59.2539 L 184.711,58.8956 L 184.871,58.5547 L 185.073,58.2366
 L 185.313,57.9464 L 185.588,57.6885 L 185.893,57.467 L 186.223,57.2855 L 186.573,57.1468 L 186.938,57.0531
 L 187.312,57.0059 L 187.688,57.0059 L 188.062,57.0531 L 188.427,57.1468 L 188.777,57.2855 L 189.107,57.467
 L 189.412,57.6885 L 189.687,57.9464 L 189.927,58.2366 L 190.129,58.5547 L 190.289,58.8956 L 190.406,59.2539
 L 190.476,59.624 L 190.5,60 L 190.476,60.376 L 190.406,60.7461 L 190.289,61.1044 L 190.129,61.4453
 L 189.927,61.7634 L 189.687,62.0536 L 189.412,62.3115 L 189.107,62.533 L 188.777,62.7145 L 188.427,62.8532
 L 188.062,62.9469 L 187.688,62.9941 z
" stroke="black" fill="lightgray" stroke-width="0.5"/>
</svg>
