<?xml version="1.0" standalone="no"?>
<!DOCTYPE svg PUBLIC "-//W3C//DTD SVG 1.1//EN" "http://www.w3.org/Graphics/SVG/1.1/DTD/svg11.dtd">
<svg width="270mm" height="134mm" viewBox="-135 -67 270 134" xmlns="http://www.w3.org/2000/svg" version="1.1">
<title>OpenSCAD Model</title>
<path d="
M 130.437,66.9114 L 131.045,66.7553 L 131.629,66.5241 L 132.179,66.2216 L 132.687,65.8526 L 133.145,65.4227
 L 133.545,64.9389 L 133.882,64.4088 L 134.149,63.8406 L 134.343,63.2434 L 134.461,62.6267 L 134.5,62
 L 134.5,-62 L 134.461,-62.6267 L 134.343,-63.2434 L 134.149,-63.8406 L 133.882,-64.4088 L 133.545,-64.9389
 L 133.145,-65.4227 L 132.687,-65.8526 L 132.179,-66.2216 L 131.629,-66.5241 L 131.045,-66.7553 L 130.437,-66.9114
 L 129.814,-66.9901 L -129.814,-66.9901 L -130.437,-66.9114 L -131.045,-66.7553 L -131.629,-66.5241 L -132.179,-66.2216
 L -132.687,-65.8526 L -133.145,-65.4227 L -133.545,-64.9389 L -133.882,-64.4088 L -134.149,-63.8406 L -134.343,-63.2434
 L -134.461,-62.6267 L -134.5,-62 L -134.5,62 L -134.461,62.6267 L -134.343,63.2434 L -134.149,63.8406
 L -133.882,64.4088 L -133.545,64.9389 L -133.145,65.4227 L -132.687,65.8526 L -132.179,66.2216 L -131.629,66.5241
 L -131.045,66.7553 L -130.437,66.9114 L -129.814,66.9901 L 129.814,66.9901 z
M -127.688,-57.0059 L -128.062,-57.0531 L -128.427,-57.1468 L -128.777,-57.2855 L -129.107,-57.467 L -129.412,-57.6885
 L -129.687,-57.9464 L -129.927,-58.2366 L -130.129,-58.5547 L -130.289,-58.8956 L -130.406,-59.2539 L -130.476,-59.624
 L -130.5,-60 L -130.476,-60.376 L -130.406,-60.7461 L -130.289,-61.1044 L -130.129,-61.4453 L -129.927,-61.7634
 L -129.687,-62.0536 L -129.412,-62.3115 L -129.107,-62.533 L -128.777,-62.7145 L -128.427,-62.8532 L -128.062,-62.9469
 L -127.688,-62.9941 L -127.312,-62.9941 L -126.938,-62.9469 L -126.573,-62.8532 L -126.223,-62.7145 L -125.893,-62.533
 L -125.588,-62.3115 L -125.313,-62.0536 L -125.073,-61.7634 L -124.871,-61.4453 L -124.711,-61.1044 L -124.594,-60.7461
 L -124.524,-60.376 L -124.5,-60 L -124.524,-59.624 L -124.594,-59.2539 L -124.711,-58.8956 L -124.871,-58.5547
 L -125.073,-58.2366 L -125.313,-57.9464 L -125.588,-57.6885 L -125.893,-57.467 L -126.223,-57.2855 L -126.573,-57.1468
 L -126.938,-57.0531 L -127.312,-57.0059 z
M 127.312,-57.0059 L 126.938,-57.0531 L 126.573,-57.1468 L 126.223,-57.2855 L 125.893,-57.467 L 125.588,-57.6885
 L 125.313,-57.9464 L 125.073,-58.2366 L 124.871,-58.5547 L 124.711,-58.8956 L 124.594,-59.2539 L 124.524,-59.624
 L 124.5,-60 L 124.524,-60.376 L 124.594,-60.7461 L 124.711,-61.1044 L 124.871,-61.4453 L 125.073,-61.7634
 L 125.313,-62.0536 L 125.588,-62.3115 L 125.893,-62.533 L 126.223,-62.7145 L 126.573,-62.8532 L 126.938,-62.9469
 L 127.312,-62.9941 L 127.688,-62.9941 L 128.062,-62.9469 L 128.427,-62.8532 L 128.777,-62.7145 L 129.107,-62.533
 L 129.412,-62.3115 L 129.687,-62.0536 L 129.927,-61.7634 L 130.129,-61.4453 L 130.289,-61.1044 L 130.406,-60.7461
 L 130.476,-60.376 L 130.5,-60 L 130.476,-59.624 L 130.406,-59.2539 L 130.289,-58.8956 L 130.129,-58.5547
 L 129.927,-58.2366 L 129.687,-57.9464 L 129.412,-57.6885 L 129.107,-57.467 L 128.777,-57.2855 L 128.427,-57.1468
 L 128.062,-57.0531 L 127.688,-57.0059 z
M -63.6104,57.3865 L -70.7744,56.4815 L -77.7685,54.6857 L -84.4823,52.0276 L -90.81,48.5488 L -96.6519,44.3045
 L -101.916,39.3615 L -106.518,33.7977 L -110.388,27.7008 L -113.462,21.1672 L -115.694,14.2997 L -117.047,7.20665
 L -117.5,-0 L -117.047,-7.20665 L -115.694,-14.2997 L -113.462,-21.1672 L -110.388,-27.7008 L -106.518,-33.7977
 L -101.916,-39.3615 L -96.6519,-44.3045 L -90.81,-48.5488 L -84.4823,-52.0276 L -77.7685,-54.6857 L -70.7744,-56.4815
 L -63.6104,-57.3865 L -56.3895,-57.3865 L -49.2256,-56.4815 L -42.2315,-54.6857 L -35.5177,-52.0276 L -29.19,-48.5488
 L -23.3481,-44.3045 L -18.0843,-39.3615 L -13.4815,-33.7977 L -9.61237,-27.7008 L -6.53784,-21.1672 L -4.30646,-14.2997
 L -2.9534,-7.20665 L -2.5,-0 L -2.9534,7.20665 L -4.30646,14.2997 L -6.53784,21.1672 L -9.61237,27.7008
 L -13.4815,33.7977 L -18.0843,39.3615 L -23.3481,44.3045 L -29.19,48.5488 L -35.5177,52.0276 L -42.2315,54.6857
 L -49.2256,56.4815 L -56.3895,57.3865 z
M 56.3895,57.3865 L 49.2256,56.4815 L 42.2315,54.6857 L 35.5177,52.0276 L 29.19,48.5488 L 23.3481,44.3045
 L 18.0843,39.3615 L 13.4815,33.7977 L 9.61237,27.7008 L 6.53784,21.1672 L 4.30646,14.2997 L 2.9534,7.20665
 L 2.5,-0 L 2.9534,-7.20665 L 4.30646,-14.2997 L 6.53784,-21.1672 L 9.61237,-27.7008 L 13.4815,-33.7977
 L 18.0843,-39.3615 L 23.3481,-44.3045 L 29.19,-48.5488 L 35.5177,-52.0276 L 42.2315,-54.6857 L 49.2256,-56.4815
 L 56.3895,-57.3865 L 63.6104,-57.3865 L 70.7744,-56.4815 L 77.7685,-54.6857 L 84.4823,-52.0276 L 90.81,-48.5488
 L 96.6519,-44.3045 L 101.916,-39.3615 L 106.518,-33.7977 L 110.388,-27.7008 L 113.462,-21.1672 L 115.694,-14.2997
 L 117.047,-7.20665 L 117.5,-0 L 117.047,7.20665 L 115.694,14.2997 L 113.462,21.1672 L 110.388,27.7008
 L 106.518,33.7977 L 101.916,39.3615 L 96.6519,44.3045 L 90.81,48.5488 L 84.4823,52.0276 L 77.7685,54.6857
 L 70.7744,56.4815 L 63.6104,57.3865 z
M 127.406,-51.003 L 127.219,-51.0266 L 127.036,-51.0734 L 126.861,-51.1428 L 126.696,-51.2335 L 126.544,-51.3442
 L 126.407,-51.4732 L 126.286,-51.6183 L 126.186,-51.7774 L 126.105,-51.9478 L 126.047,-52.127 L 126.012,-52.312
 L 126,-52.5 L 126.012,-52.688 L 126.047,-52.873 L 126.105,-53.0522 L 126.186,-53.2226 L 126.286,-53.3817
 L 126.407,-53.5268 L 126.544,-53.6558 L 126.696,-53.7665 L 126.861,-53.8572 L 127.036,-53.9266 L 127.219,-53.9734
 L 127.406,-53.997 L 127.594,-53.997 L 127.781,-53.9734 L 127.964,-53.9266 L 128.139,-53.8572 L 128.304,-53.7665
 L 128.456,-53.6558 L 128.593,-53.5268 L 128.714,-53.3817 L 128.814,-53.2226 L 128.895,-53.0522 L 128.953,-52.873
 L 128.988,-52.688 L 129,-52.5 L 128.988,-52.312 L 128.953,-52.127 L 128.895,-51.9478 L 128.814,-51.7774
 L 128.714,-51.6183 L 128.593,-51.4732 L 128.456,-51.3442 L 128.304,-51.2335 L 128.139,-51.1428 L 127.964,-51.0734
 L 127.781,-51.0266 L 127.594,-51.003 z
M -127.594,-51.003 L -127.781,-51.0266 L -127.964,-51.0734 L -128.139,-51.1428 L -128.304,-51.2335 L -128.456,-51.3442
 L -128.593,-51.4732 L -128.714,-51.6183 L -128.814,-51.7774 L -128.895,-51.9478 L -128.953,-52.127 L -128.988,-52.312
 L -129,-52.5 L -128.988,-52.688 L -128.953,-52.873 L -128.895,-53.0522 L -128.814,-53.2226 L -128.714,-53.3817
 L -128.593,-53.5268 L -128.456,-53.6558 L -128.304,-53.7665 L -128.139,-53.8572 L -127.964,-53.9266 L -127.781,-53.9734
 L -127.594,-53.997 L -127.406,-53.997 L -127.219,-53.9734 L -127.036,-53.9266 L -126.861,-53.8572 L -126.696,-53.7665
 L -126.544,-53.6558 L -126.407,-53.5268 L -126.286,-53.3817 L -126.186,-53.2226 L -126.105,-53.0522 L -126.047,-52.873
 L -126.012,-52.688 L -126,-52.5 L -126.012,-52.312 L -126.047,-52.127 L -126.105,-51.9478 L -126.186,-51.7774
 L -126.286,-51.6183 L -126.407,-51.4732 L -126.544,-51.3442 L -126.696,-51.2335 L -126.861,-51.1428 L -127.036,-51.0734
 L -127.219,-51.0266 L -127.406,-51.003 z
M 127.312,-42.0059 L 126.938,-42.0531 L 126.573,-42.1468 L 126.223,-42.2855 L 125.893,-42.467 L 125.588,-42.6885
 L 125.313,-42.9464 L 125.073,-43.2366 L 124.871,-43.5547 L 124.711,-43.8956 L 124.594,-44.2539 L 124.524,-44.624
 L 124.5,-45 L 124.524,-45.376 L 124.594,-45.7461 L 124.711,-46.1044 L 124.871,-46.4453 L 125.073,-46.7634
 L 125.313,-47.0536 L 125.588,-47.3115 L 125.893,-47.533 L 126.223,-47.7145 L 126.573,-47.8532 L 126.938,-47.9469
 L 127.312,-47.9941 L 127.688,-47.9941 L 128.062,-47.9469 L 128.427,-47.8532 L 128.777,-47.7145 L 129.107,-47.533
 L 129.412,-47.3115 L 129.687,-47.0536 L 129.927,-46.7634 L 130.129,-46.4453 L 130.289,-46.1044 L 130.406,-45.7461
 L 130.476,-45.376 L 130.5,-45 L 130.476,-44.624 L 130.406,-44.2539 L 130.289,-43.8956 L 130.129,-43.5547
 L 129.927,-43.2366 L 129.687,-42.9464 L 129.412,-42.6885 L 129.107,-42.467 L 128.777,-42.2855 L 128.427,-42.1468
 L 128.062,-42.0531 L 127.688,-42.0059 z
M -127.688,-42.0059 L -128.062,-42.0531 L -128.427,-42.1468 L -128.777,-42.2855 L -129.107,-42.467 L -129.412,-42.6885
 L -129.687,-42.9464 L -129.927,-43.2366 L -130.129,-43.5547 L -130.289,-43.8956 L -130.406,-44.2539 L -130.476,-44.624
 L -130.5,-45 L -130.476,-45.376 L -130.406,-45.7461 L -130.289,-46.1044 L -130.129,-46.4453 L -129.927,-46.7634
 L -129.687,-47.0536 L -129.412,-47.3115 L -129.107,-47.533 L -128.777,-47.7145 L -128.427,-47.8532 L -128.062,-47.9469
 L -127.688,-47.9941 L -127.312,-47.9941 L -126.938,-47.9469 L -126.573,-47.8532 L -126.223,-47.7145 L -125.893,-47.533
 L -125.588,-47.3115 L -125.313,-47.0536 L -125.073,-46.7634 L -124.871,-46.4453 L -124.711,-46.1044 L -124.594,-45.7461
 L -124.524,-45.376 L -124.5,-45 L -124.524,-44.624 L -124.594,-44.2539 L -124.711,-43.8956 L -124.871,-43.5547
 L -125.073,-43.2366 L -125.313,-42.9464 L -125.588,-42.6885 L -125.893,-42.467 L -126.223,-42.2855 L -126.573,-42.1468
 L -126.938,-42.0531 L -127.312,-42.0059 z
M 127.406,-36.003 L 127.219,-36.0266 L 127.036,-36.0734 L 126.861,-36.1428 L 126.696,-36.2335 L 126.544,-36.3442
 L 126.407,-36.4732 L 126.286,-36.6183 L 126.186,-36.7774 L 126.105,-36.9478 L 126.047,-37.127 L 126.012,-37.312
 L 126,-37.5 L 126.012,-37.688 L 126.047,-37.873 L 126.105,-38.0522 L 126.186,-38.2226 L 126.286,-38.3817
 L 126.407,-38.5268 L 126.544,-38.6558 L 126.696,-38.7665 L 126.861,-38.8572 L 127.036,-38.9266 L 127.219,-38.9734
 L 127.406,-38.997 L 127.594,-38.997 L 127.781,-38.9734 L 127.964,-38.9266 L 128.139,-38.8572 L 128.304,-38.7665
 L 128.456,-38.6558 L 128.593,-38.5268 L 128.714,-38.3817 L 128.814,-38.2226 L 128.895,-38.0522 L 128.953,-37.873
 L 128.988,-37.688 L 129,-37.5 L 128.988,-37.312 L 128.953,-37.127 L 128.895,-36.9478 L 128.814,-36.7774
 L 128.714,-36.6183 L 128.593,-36.4732 L 128.456,-36.3442 L 128.304,-36.2335 L 128.139,-36.1428 L 127.964,-36.0734
 L 127.781,-36.0266 L 127.594,-36.003 z
M -127.594,-36.003 L -127.781,-36.0266 L -127.964,-36.0734 L -128.139,-36.1428 L -128.304,-36.2335 L -128.456,-36.3442
 L -128.593,-36.4732 L -128.714,-36.6183 L -128.814,-36.7774 L -128.895,-36.9478 L -128.953,-37.127 L -128.988,-37.312
 L -129,-37.5 L -128.988,-37.688 L -128.953,-37.873 L -128.895,-38.0522 L -128.814,-38.2226 L -128.714,-38.3817
 L -128.593,-38.5268 L -128.456,-38.6558 L -128.304,-38.7665 L -128.139,-38.8572 L -127.964,-38.9266 L -127.781,-38.9734
 L -127.594,-38.997 L -127.406,-38.997 L -127.219,-38.9734 L -127.036,-38.9266 L -126.861,-38.8572 L -126.696,-38.7665
 L -126.544,-38.6558 L -126.407,-38.5268 L -126.286,-38.3817 L -126.186,-38.2226 L -126.105,-38.0522 L -126.047,-37.873
 L -126.012,-37.688 L -126,-37.5 L -126.012,-37.312 L -126.047,-37.127 L -126.105,-36.9478 L -126.186,-36.7774
 L -126.286,-36.6183 L -126.407,-36.4732 L -126.544,-36.3442 L -126.696,-36.2335 L -126.861,-36.1428 L -127.036,-36.0734
 L -127.219,-36.0266 L -127.406,-36.003 z
M -127.688,-27.0059 L -128.062,-27.0531 L -128.427,-27.1468 L -128.777,-27.2855 L -129.107,-27.467 L -129.412,-27.6884
 L -129.687,-27.9464 L -129.927,-28.2366 L -130.129,-28.5547 L -130.289,-28.8956 L -130.406,-29.2539 L -130.476,-29.624
 L -130.5,-30 L -130.476,-30.376 L -130.406,-30.7461 L -130.289,-31.1044 L -130.129,-31.4453 L -129.927,-31.7634
 L -129.687,-32.0536 L -129.412,-32.3115 L -129.107,-32.533 L -128.777,-32.7145 L -128.427,-32.8532 L -128.062,-32.9469
 L -127.688,-32.9941 L -127.312,-32.9941 L -126.938,-32.9469 L -126.573,-32.8532 L -126.223,-32.7145 L -125.893,-32.533
 L -125.588,-32.3115 L -125.313,-32.0536 L -125.073,-31.7634 L -124.871,-31.4453 L -124.711,-31.1044 L -124.594,-30.7461
 L -124.524,-30.376 L -124.5,-30 L -124.524,-29.624 L -124.594,-29.2539 L -124.711,-28.8956 L -124.871,-28.5547
 L -125.073,-28.2366 L -125.313,-27.9464 L -125.588,-27.6884 L -125.893,-27.467 L -126.223,-27.2855 L -126.573,-27.1468
 L -126.938,-27.0531 L -127.312,-27.0059 z
M 127.312,-27.0059 L 126.938,-27.0531 L 126.573,-27.1468 L 126.223,-27.2855 L 125.893,-27.467 L 125.588,-27.6884
 L 125.313,-27.9464 L 125.073,-28.2366 L 124.871,-28.5547 L 124.711,-28.8956 L 124.594,-29.2539 L 124.524,-29.624
 L 124.5,-30 L 124.524,-30.376 L 124.594,-30.7461 L 124.711,-31.1044 L 124.871,-31.4453 L 125.073,-31.7634
 L 125.313,-32.0536 L 125.588,-32.3115 L 125.893,-32.533 L 126.223,-32.7145 L 126.573,-32.8532 L 126.938,-32.9469
 L 127.312,-32.9941 L 127.688,-32.9941 L 128.062,-32.9469 L 128.427,-32.8532 L 128.777,-32.7145 L 129.107,-32.533
 L 129.412,-32.3115 L 129.687,-32.0536 L 129.927,-31.7634 L 130.129,-31.4453 L 130.289,-31.1044 L 130.406,-30.7461
 L 130.476,-30.376 L 130.5,-30 L 130.476,-29.624 L 130.406,-29.2539 L 130.289,-28.8956 L 130.129,-28.5547
 L 129.927,-28.2366 L 129.687,-27.9464 L 129.412,-27.6884 L 129.107,-27.467 L 128.777,-27.2855 L 128.427,-27.1468
 L 128.062,-27.0531 L 127.688,-27.0059 z
M 127.406,-21.003 L 127.219,-21.0266 L 127.036,-21.0734 L 126.861,-21.1427 L 126.696,-21.2335 L 126.544,-21.3442
 L 126.407,-21.4732 L 126.286,-21.6183 L 126.186,-21.7774 L 126.105,-21.9478 L 126.047,-22.127 L 126.012,-22.312
 L 126,-22.5 L 126.012,-22.688 L 126.047,-22.873 L 126.105,-23.0522 L 126.186,-23.2226 L 126.286,-23.3817
 L 126.407,-23.5268 L 126.544,-23.6558 L 126.696,-23.7665 L 126.861,-23.8572 L 127.036,-23.9266 L 127.219,-23.9734
 L 127.406,-23.997 L 127.594,-23.997 L 127.781,-23.9734 L 127.964,-23.9266 L 128.139,-23.8572 L 128.304,-23.7665
 L 128.456,-23.6558 L 128.593,-23.5268 L 128.714,-23.3817 L 128.814,-23.2226 L 128.895,-23.0522 L 128.953,-22.873
 L 128.988,-22.688 L 129,-22.5 L 128.988,-22.312 L 128.953,-22.127 L 128.895,-21.9478 L 128.814,-21.7774
 L 128.714,-21.6183 L 128.593,-21.4732 L 128.456,-21.3442 L 128.304,-21.2335 L 128.139,-21.1427 L 127.964,-21.0734
 L 127.781,-21.0266 L 127.594,-21.003 z
M -127.594,-21.003 L -127.781,-21.0266 L -127.964,-21.0734 L -128.139,-21.1427 L -128.304,-21.2335 L -128.456,-21.3442
 L -128.593,-21.4732 L -128.714,-21.6183 L -128.814,-21.7774 L -128.895,-21.9478 L -128.953,-22.127 L -128.988,-22.312
 L -129,-22.5 L -128.988,-22.688 L -128.953,-22.873 L -128.895,-23.0522 L -128.814,-23.2226 L -128.714,-23.3817
 L -128.593,-23.5268 L -128.456,-23.6558 L -128.304,-23.7665 L -128.139,-23.8572 L -127.964,-23.9266 L -127.781,-23.9734
 L -127.594,-23.997 L -127.406,-23.997 L -127.219,-23.9734 L -127.036,-23.9266 L -126.861,-23.8572 L -126.696,-23.7665
 L -126.544,-23.6558 L -126.407,-23.5268 L -126.286,-23.3817 L -126.186,-23.2226 L -126.105,-23.0522 L -126.047,-22.873
 L -126.012,-22.688 L -126,-22.5 L -126.012,-22.312 L -126.047,-22.127 L -126.105,-21.9478 L -126.186,-21.7774
 L -126.286,-21.6183 L -126.407,-21.4732 L -126.544,-21.3442 L -126.696,-21.2335 L -126.861,-21.1427 L -127.036,-21.0734
 L -127.219,-21.0266 L -127.406,-21.003 z
M -127.688,-12.0059 L -128.062,-12.0531 L -128.427,-12.1468 L -128.777,-12.2855 L -129.107,-12.467 L -129.412,-12.6884
 L -129.687,-12.9464 L -129.927,-13.2366 L -130.129,-13.5547 L -130.289,-13.8956 L -130.406,-14.2539 L -130.476,-14.624
 L -130.5,-15 L -130.476,-15.376 L -130.406,-15.7461 L -130.289,-16.1044 L -130.129,-16.4453 L -129.927,-16.7634
 L -129.687,-17.0536 L -129.412,-17.3115 L -129.107,-17.533 L -128.777,-17.7145 L -128.427,-17.8532 L -128.062,-17.9469
 L -127.688,-17.9941 L -127.312,-17.9941 L -126.938,-17.9469 L -126.573,-17.8532 L -126.223,-17.7145 L -125.893,-17.533
 L -125.588,-17.3115 L -125.313,-17.0536 L -125.073,-16.7634 L -124.871,-16.4453 L -124.711,-16.1044 L -124.594,-15.7461
 L -124.524,-15.376 L -124.5,-15 L -124.524,-14.624 L -124.594,-14.2539 L -124.711,-13.8956 L -124.871,-13.5547
 L -125.073,-13.2366 L -125.313,-12.9464 L -125.588,-12.6884 L -125.893,-12.467 L -126.223,-12.2855 L -126.573,-12.1468
 L -126.938,-12.0531 L -127.312,-12.0059 z
M 127.312,-12.0059 L 126.938,-12.0531 L 126.573,-12.1468 L 126.223,-12.2855 L 125.893,-12.467 L 125.588,-12.6884
 L 125.313,-12.9464 L 125.073,-13.2366 L 124.871,-13.5547 L 124.711,-13.8956 L 124.594,-14.2539 L 124.524,-14.624
 L 124.5,-15 L 124.524,-15.376 L 124.594,-15.7461 L 124.711,-16.1044 L 124.871,-16.4453 L 125.073,-16.7634
 L 125.313,-17.0536 L 125.588,-17.3115 L 125.893,-17.533 L 126.223,-17.7145 L 126.573,-17.8532 L 126.938,-17.9469
 L 127.312,-17.9941 L 127.688,-17.9941 L 128.062,-17.9469 L 128.427,-17.8532 L 128.777,-17.7145 L 129.107,-17.533
 L 129.412,-17.3115 L 129.687,-17.0536 L 129.927,-16.7634 L 130.129,-16.4453 L 130.289,-16.1044 L 130.406,-15.7461
 L 130.476,-15.376 L 130.5,-15 L 130.476,-14.624 L 130.406,-14.2539 L 130.289,-13.8956 L 130.129,-13.5547
 L 129.927,-13.2366 L 129.687,-12.9464 L 129.412,-12.6884 L 129.107,-12.467 L 128.777,-12.2855 L 128.427,-12.1468
 L 128.062,-12.0531 L 127.688,-12.0059 z
M 127.406,-6.00294 L 127.219,-6.02657 L 127.036,-6.07341 L 126.861,-6.14275 L 126.696,-6.23351 L 126.544,-6.34422
 L 126.407,-6.47318 L 126.286,-6.61832 L 126.186,-6.77736 L 126.105,-6.9478 L 126.047,-7.12695 L 126.012,-7.312
 L 126,-7.5 L 126.012,-7.68799 L 126.047,-7.87303 L 126.105,-8.05219 L 126.186,-8.22263 L 126.286,-8.38167
 L 126.407,-8.52681 L 126.544,-8.65576 L 126.696,-8.76648 L 126.861,-8.85724 L 127.036,-8.92657 L 127.219,-8.97342
 L 127.406,-8.99704 L 127.594,-8.99704 L 127.781,-8.97342 L 127.964,-8.92657 L 128.139,-8.85724 L 128.304,-8.76648
 L 128.456,-8.65576 L 128.593,-8.52681 L 128.714,-8.38167 L 128.814,-8.22263 L 128.895,-8.05219 L 128.953,-7.87303
 L 128.988,-7.68799 L 129,-7.5 L 128.988,-7.312 L 128.953,-7.12695 L 128.895,-6.9478 L 128.814,-6.77736
 L 128.714,-6.61832 L 128.593,-6.47318 L 128.456,-6.34422 L 128.304,-6.23351 L 128.139,-6.14275 L 127.964,-6.07341
 L 127.781,-6.02657 L 127.594,-6.00294 z
M -127.594,-6.00294 L -127.781,-6.02657 L -127.964,-6.07341 L -128.139,-6.14275 L -128.304,-6.23351 L -128.456,-6.34422
 L -128.593,-6.47318 L -128.714,-6.61832 L -128.814,-6.77736 L -128.895,-6.9478 L -128.953,-7.12695 L -128.988,-7.312
 L -129,-7.5 L -128.988,-7.68799 L -128.953,-7.87303 L -128.895,-8.05219 L -128.814,-8.22263 L -128.714,-8.38167
 L -128.593,-8.52681 L -128.456,-8.65576 L -128.304,-8.76648 L -128.139,-8.85724 L -127.964,-8.92657 L -127.781,-8.97342
 L -127.594,-8.99704 L -127.406,-8.99704 L -127.219,-8.97342 L -127.036,-8.92657 L -126.861,-8.85724 L -126.696,-8.76648
 L -126.544,-8.65576 L -126.407,-8.52681 L -126.286,-8.38167 L -126.186,-8.22263 L -126.105,-8.05219 L -126.047,-7.87303
 L -126.012,-7.68799 L -126,-7.5 L -126.012,-7.312 L -126.047,-7.12695 L -126.105,-6.9478 L -126.186,-6.77736
 L -126.286,-6.61832 L -126.407,-6.47318 L -126.544,-6.34422 L -126.696,-6.23351 L -126.861,-6.14275 L -127.036,-6.07341
 L -127.219,-6.02657 L -127.406,-6.00294 z
M 127.312,2.99408 L 126.938,2.94685 L 126.573,2.85316 L 126.223,2.71448 L 125.893,2.53297 L 125.588,2.31154
 L 125.313,2.05363 L 125.073,1.76335 L 124.871,1.44525 L 124.711,1.10437 L 124.594,0.746063 L 124.524,0.375992
 L 124.5,-0 L 124.524,-0.375992 L 124.594,-0.746063 L 124.711,-1.10437 L 124.871,-1.44525 L 125.073,-1.76335
 L 125.313,-2.05363 L 125.588,-2.31154 L 125.893,-2.53297 L 126.223,-2.71448 L 126.573,-2.85316 L 126.938,-2.94685
 L 127.312,-2.99408 L 127.688,-2.99408 L 128.062,-2.94685 L 128.427,-2.85316 L 128.777,-2.71448 L 129.107,-2.53297
 L 129.412,-2.31154 L 129.687,-2.05363 L 129.927,-1.76335 L 130.129,-1.44525 L 130.289,-1.10437 L 130.406,-0.746063
 L 130.476,-0.375992 L 130.5,-0 L 130.476,0.375992 L 130.406,0.746063 L 130.289,1.10437 L 130.129,1.44525
 L 129.927,1.76335 L 129.687,2.05363 L 129.412,2.31154 L 129.107,2.53297 L 128.777,2.71448 L 128.427,2.85316
 L 128.062,2.94685 L 127.688,2.99408 z
M -127.688,2.99408 L -128.062,2.94685 L -128.427,2.85316 L -128.777,2.71448 L -129.107,2.53297 L -129.412,2.31154
 L -129.687,2.05363 L -129.927,1.76335 L -130.129,1.44525 L -130.289,1.10437 L -130.406,0.746063 L -130.476,0.375992
 L -130.5,-0 L -130.476,-0.375992 L -130.406,-0.746063 L -130.289,-1.10437 L -130.129,-1.44525 L -129.927,-1.76335
 L -129.687,-2.05363 L -129.412,-2.31154 L -129.107,-2.53297 L -128.777,-2.71448 L -128.427,-2.85316 L -128.062,-2.94685
 L -127.688,-2.99408 L -127.312,-2.99408 L -126.938,-2.94685 L -126.573,-2.85316 L -126.223,-2.71448 L -125.893,-2.53297
 L -125.588,-2.31154 L -125.313,-2.05363 L -125.073,-1.76335 L -124.871,-1.44525 L -124.711,-1.10437 L -124.594,-0.746063
 L -124.524,-0.375992 L -124.5,-0 L -124.524,0.375992 L -124.594,0.746063 L -124.711,1.10437 L -124.871,1.44525
 L -125.073,1.76335 L -125.313,2.05363 L -125.588,2.31154 L -125.893,2.53297 L -126.223,2.71448 L -126.573,2.85316
 L -126.938,2.94685 L -127.312,2.99408 z
M 127.406,8.99704 L 127.219,8.97342 L 127.036,8.92657 L 126.861,8.85724 L 126.696,8.76648 L 126.544,8.65576
 L 126.407,8.52681 L 126.286,8.38167 L 126.186,8.22263 L 126.105,8.05219 L 126.047,7.87303 L 126.012,7.68799
 L 126,7.5 L 126.012,7.312 L 126.047,7.12695 L 126.105,6.9478 L 126.186,6.77736 L 126.286,6.61832
 L 126.407,6.47318 L 126.544,6.34422 L 126.696,6.23351 L 126.861,6.14275 L 127.036,6.07341 L 127.219,6.02657
 L 127.406,6.00294 L 127.594,6.00294 L 127.781,6.02657 L 127.964,6.07341 L 128.139,6.14275 L 128.304,6.23351
 L 128.456,6.34422 L 128.593,6.47318 L 128.714,6.61832 L 128.814,6.77736 L 128.895,6.9478 L 128.953,7.12695
 L 128.988,7.312 L 129,7.5 L 128.988,7.68799 L 128.953,7.87303 L 128.895,8.05219 L 128.814,8.22263
 L 128.714,8.38167 L 128.593,8.52681 L 128.456,8.65576 L 128.304,8.76648 L 128.139,8.85724 L 127.964,8.92657
 L 127.781,8.97342 L 127.594,8.99704 z
M -127.594,8.99704 L -127.781,8.97342 L -127.964,8.92657 L -128.139,8.85724 L -128.304,8.76648 L -128.456,8.65576
 L -128.593,8.52681 L -128.714,8.38167 L -128.814,8.22263 L -128.895,8.05219 L -128.953,7.87303 L -128.988,7.68799
 L -129,7.5 L -128.988,7.312 L -128.953,7.12695 L -128.895,6.9478 L -128.814,6.77736 L -128.714,6.61832
 L -128.593,6.47318 L -128.456,6.34422 L -128.304,6.23351 L -128.139,6.14275 L -127.964,6.07341 L -127.781,6.02657
 L -127.594,6.00294 L -127.406,6.00294 L -127.219,6.02657 L -127.036,6.07341 L -126.861,6.14275 L -126.696,6.23351
 L -126.544,6.34422 L -126.407,6.47318 L -126.286,6.61832 L -126.186,6.77736 L -126.105,6.9478 L -126.047,7.12695
 L -126.012,7.312 L -126,7.5 L -126.012,7.68799 L -126.047,7.87303 L -126.105,8.05219 L -126.186,8.22263
 L -126.286,8.38167 L -126.407,8.52681 L -126.544,8.65576 L -126.696,8.76648 L -126.861,8.85724 L -127.036,8.92657
 L -127.219,8.97342 L -127.406,8.99704 z
M -127.688,17.9941 L -128.062,17.9469 L -128.427,17.8532 L -128.777,17.7145 L -129.107,17.533 L -129.412,17.3115
 L -129.687,17.0536 L -129.927,16.7634 L -130.129,16.4453 L -130.289,16.1044 L -130.406,15.7461 L -130.476,15.376
 L -130.5,15 L -130.476,14.624 L -130.406,14.2539 L -130.289,13.8956 L -130.129,13.5547 L -129.927,13.2366
 L -129.687,12.9464 L -129.412,12.6884 L -129.107,12.467 L -128.777,12.2855 L -128.427,12.1468 L -128.062,12.0531
 L -127.688,12.0059 L -127.312,12.0059 L -126.938,12.0531 L -126.573,12.1468 L -126.223,12.2855 L -125.893,12.467
 L -125.588,12.6884 L -125.313,12.9464 L -125.073,13.2366 L -124.871,13.5547 L -124.711,13.8956 L -124.594,14.2539
 L -124.524,14.624 L -124.5,15 L -124.524,15.376 L -124.594,15.7461 L -124.711,16.1044 L -124.871,16.4453
 L -125.073,16.7634 L -125.313,17.0536 L -125.588,17.3115 L -125.893,17.533 L -126.223,17.7145 L -126.573,17.8532
 L -126.938,17.9469 L -127.312,17.9941 z
M 127.312,17.9941 L 126.938,17.9469 L 126.573,17.8532 L 126.223,17.7145 L 125.893,17.533 L 125.588,17.3115
 L 125.313,17.0536 L 125.073,16.7634 L 124.871,16.4453 L 124.711,16.1044 L 124.594,15.7461 L 124.524,15.376
 L 124.5,15 L 124.524,14.624 L 124.594,14.2539 L 124.711,13.8956 L 124.871,13.5547 L 125.073,13.2366
 L 125.313,12.9464 L 125.588,12.6884 L 125.893,12.467 L 126.223,12.2855 L 126.573,12.1468 L 126.938,12.0531
 L 127.312,12.0059 L 127.688,12.0059 L 128.062,12.0531 L 128.427,12.1468 L 128.777,12.2855 L 129.107,12.467
 L 129.412,12.6884 L 129.687,12.9464 L 129.927,13.2366 L 130.129,13.5547 L 130.289,13.8956 L 130.406,14.2539
 L 130.476,14.624 L 130.5,15 L 130.476,15.376 L 130.406,15.7461 L 130.289,16.1044 L 130.129,16.4453
 L 129.927,16.7634 L 129.687,17.0536 L 129.412,17.3115 L 129.107,17.533 L 128.777,17.7145 L 128.427,17.8532
 L 128.062,17.9469 L 127.688,17.9941 z
M 127.406,23.997 L 127.219,23.9734 L 127.036,23.9266 L 126.861,23.8572 L 126.696,23.7665 L 126.544,23.6558
 L 126.407,23.5268 L 126.286,23.3817 L 126.186,23.2226 L 126.105,23.0522 L 126.047,22.873 L 126.012,22.688
 L 126,22.5 L 126.012,22.312 L 126.047,22.127 L 126.105,21.9478 L 126.186,21.7774 L 126.286,21.6183
 L 126.407,21.4732 L 126.544,21.3442 L 126.696,21.2335 L 126.861,21.1427 L 127.036,21.0734 L 127.219,21.0266
 L 127.406,21.003 L 127.594,21.003 L 127.781,21.0266 L 127.964,21.0734 L 128.139,21.1427 L 128.304,21.2335
 L 128.456,21.3442 L 128.593,21.4732 L 128.714,21.6183 L 128.814,21.7774 L 128.895,21.9478 L 128.953,22.127
 L 128.988,22.312 L 129,22.5 L 128.988,22.688 L 128.953,22.873 L 128.895,23.0522 L 128.814,23.2226
 L 128.714,23.3817 L 128.593,23.5268 L 128.456,23.6558 L 128.304,23.7665 L 128.139,23.8572 L 127.964,23.9266
 L 127.781,23.9734 L 127.594,23.997 z
M -127.594,23.997 L -127.781,23.9734 L -127.964,23.9266 L -128.139,23.8572 L -128.304,23.7665 L -128.456,23.6558
 L -128.593,23.5268 L -128.714,23.3817 L -128.814,23.2226 L -128.895,23.0522 L -128.953,22.873 L -128.988,22.688
 L -129,22.5 L -128.988,22.312 L -128.953,22.127 L -128.895,21.9478 L -128.814,21.7774 L -128.714,21.6183
 L -128.593,21.4732 L -128.456,21.3442 L -128.304,21.2335 L -128.139,21.1427 L -127.964,21.0734 L -127.781,21.0266
 L -127.594,21.003 L -127.406,21.003 L -127.219,21.0266 L -127.036,21.0734 L -126.861,21.1427 L -126.696,21.2335
 L -126.544,21.3442 L -126.407,21.4732 L -126.286,21.6183 L -126.186,21.7774 L -126.105,21.9478 L -126.047,22.127
 L -126.012,22.312 L -126,22.5 L -126.012,22.688 L -126.047,22.873 L -126.105,23.0522 L -126.186,23.2226
 L -126.286,23.3817 L -126.407,23.5268 L -126.544,23.6558 L -126.696,23.7665 L -126.861,23.8572 L -127.036,23.9266
 L -127.219,23.9734 L -127.406,23.997 z
M 127.312,32.9941 L 126.938,32.9469 L 126.573,32.8532 L 126.223,32.7145 L 125.893,32.533 L 125.588,32.3115
 L 125.313,32.0536 L 125.073,31.7634 L 124.871,31.4453 L 124.711,31.1044 L 124.594,30.7461 L 124.524,30.376
 L 124.5,30 L 124.524,29.624 L 124.594,29.2539 L 124.711,28.8956 L 124.871,28.5547 L 125.073,28.2366
 L 125.313,27.9464 L 125.588,27.6884 L 125.893,27.467 L 126.223,27.2855 L 126.573,27.1468 L 126.938,27.0531
 L 127.312,27.0059 L 127.688,27.0059 L 128.062,27.0531 L 128.427,27.1468 L 128.777,27.2855 L 129.107,27.467
 L 129.412,27.6884 L 129.687,27.9464 L 129.927,28.2366 L 130.129,28.5547 L 130.289,28.8956 L 130.406,29.2539
 L 130.476,29.624 L 130.5,30 L 130.476,30.376 L 130.406,30.7461 L 130.289,31.1044 L 130.129,31.4453
 L 129.927,31.7634 L 129.687,32.0536 L 129.412,32.3115 L 129.107,32.533 L 128.777,32.7145 L 128.427,32.8532
 L 128.062,32.9469 L 127.688,32.9941 z
M -127.688,32.9941 L -128.062,32.9469 L -128.427,32.8532 L -128.777,32.7145 L -129.107,32.533 L -129.412,32.3115
 L -129.687,32.0536 L -129.927,31.7634 L -130.129,31.4453 L -130.289,31.1044 L -130.406,30.7461 L -130.476,30.376
 L -130.5,30 L -130.476,29.624 L -130.406,29.2539 L -130.289,28.8956 L -130.129,28.5547 L -129.927,28.2366
 L -129.687,27.9464 L -129.412,27.6884 L -129.107,27.467 L -128.777,27.2855 L -128.427,27.1468 L -128.062,27.0531
 L -127.688,27.0059 L -127.312,27.0059 L -126.938,27.0531 L -126.573,27.1468 L -126.223,27.2855 L -125.893,27.467
 L -125.588,27.6884 L -125.313,27.9464 L -125.073,28.2366 L -124.871,28.5547 L -124.711,28.8956 L -124.594,29.2539
 L -124.524,29.624 L -124.5,30 L -124.524,30.376 L -124.594,30.7461 L -124.711,31.1044 L -124.871,31.4453
 L -125.073,31.7634 L -125.313,32.0536 L -125.588,32.3115 L -125.893,32.533 L -126.223,32.7145 L -126.573,32.8532
 L -126.938,32.9469 L -127.312,32.9941 z
M -127.594,38.997 L -127.781,38.9734 L -127.964,38.9266 L -128.139,38.8572 L -128.304,38.7665 L -128.456,38.6558
 L -128.593,38.5268 L -128.714,38.3817 L -128.814,38.2226 L -128.895,38.0522 L -128.953,37.873 L -128.988,37.688
 L -129,37.5 L -128.988,37.312 L -128.953,37.127 L -128.895,36.9478 L -128.814,36.7774 L -128.714,36.6183
 L -128.593,36.4732 L -128.456,36.3442 L -128.304,36.2335 L -128.139,36.1428 L -127.964,36.0734 L -127.781,36.0266
 L -127.594,36.003 L -127.406,36.003 L -127.219,36.0266 L -127.036,36.0734 L -126.861,36.1428 L -126.696,36.2335
 L -126.544,36.3442 L -126.407,36.4732 L -126.286,36.6183 L -126.186,36.7774 L -126.105,36.9478 L -126.047,37.127
 L -126.012,37.312 L -126,37.5 L -126.012,37.688 L -126.047,37.873 L -126.105,38.0522 L -126.186,38.2226
 L -126.286,38.3817 L -126.407,38.5268 L -126.544,38.6558 L -126.696,38.7665 L -126.861,38.8572 L -127.036,38.9266
 L -127.219,38.9734 L -127.406,38.997 z
M 127.406,38.997 L 127.219,38.9734 L 127.036,38.9266 L 126.861,38.8572 L 126.696,38.7665 L 126.544,38.6558
 L 126.407,38.5268 L 126.286,38.3817 L 126.186,38.2226 L 126.105,38.0522 L 126.047,37.873 L 126.012,37.688
 L 126,37.5 L 126.012,37.312 L 126.047,37.127 L 126.105,36.9478 L 126.186,36.7774 L 126.286,36.6183
 L 126.407,36.4732 L 126.544,36.3442 L 126.696,36.2335 L 126.861,36.1428 L 127.036,36.0734 L 127.219,36.0266
 L 127.406,36.003 L 127.594,36.003 L 127.781,36.0266 L 127.964,36.0734 L 128.139,36.1428 L 128.304,36.2335
 L 128.456,36.3442 L 128.593,36.4732 L 128.714,36.6183 L 128.814,36.7774 L 128.895,36.9478 L 128.953,37.127
 L 128.988,37.312 L 129,37.5 L 128.988,37.688 L 128.953,37.873 L 128.895,38.0522 L 128.814,38.2226
 L 128.714,38.3817 L 128.593,38.5268 L 128.456,38.6558 L 128.304,38.7665 L 128.139,38.8572 L 127.964,38.9266
 L 127.781,38.9734 L 127.594,38.997 z
M -127.688,47.9941 L -128.062,47.9469 L -128.427,47.8532 L -128.777,47.7145 L -129.107,47.533 L -129.412,47.3115
 L -129.687,47.0536 L -129.927,46.7634 L -130.129,46.4453 L -130.289,46.1044 L -130.406,45.7461 L -130.476,45.376
 L -130.5,45 L -130.476,44.624 L -130.406,44.2539 L -130.289,43.8956 L -130.129,43.5547 L -129.927,43.2366
 L -129.687,42.9464 L -129.412,42.6885 L -129.107,42.467 L -128.777,42.2855 L -128.427,42.1468 L -128.062,42.0531
 L -127.688,42.0059 L -127.312,42.0059 L -126.938,42.0531 L -126.573,42.1468 L -126.223,42.2855 L -125.893,42.467
 L -125.588,42.6885 L -125.313,42.9464 L -125.073,43.2366 L -124.871,43.5547 L -124.711,43.8956 L -124.594,44.2539
 L -124.524,44.624 L -124.5,45 L -124.524,45.376 L -124.594,45.7461 L -124.711,46.1044 L -124.871,46.4453
 L -125.073,46.7634 L -125.313,47.0536 L -125.588,47.3115 L -125.893,47.533 L -126.223,47.7145 L -126.573,47.8532
 L -126.938,47.9469 L -127.312,47.9941 z
M 127.312,47.9941 L 126.938,47.9469 L 126.573,47.8532 L 126.223,47.7145 L 125.893,47.533 L 125.588,47.3115
 L 125.313,47.0536 L 125.073,46.7634 L 124.871,46.4453 L 124.711,46.1044 L 124.594,45.7461 L 124.524,45.376
 L 124.5,45 L 124.524,44.624 L 124.594,44.2539 L 124.711,43.8956 L 124.871,43.5547 L 125.073,43.2366
 L 125.313,42.9464 L 125.588,42.6885 L 125.893,42.467 L 126.223,42.2855 L 126.573,42.1468 L 126.938,42.0531
 L 127.312,42.0059 L 127.688,42.0059 L 128.062,42.0531 L 128.427,42.1468 L 128.777,42.2855 L 129.107,42.467
 L 129.412,42.6885 L 129.687,42.9464 L 129.927,43.2366 L 130.129,43.5547 L 130.289,43.8956 L 130.406,44.2539
 L 130.476,44.624 L 130.5,45 L 130.476,45.376 L 130.406,45.7461 L 130.289,46.1044 L 130.129,46.4453
 L 129.927,46.7634 L 129.687,47.0536 L 129.412,47.3115 L 129.107,47.533 L 128.777,47.7145 L 128.427,47.8532
 L 128.062,47.9469 L 127.688,47.9941 z
M 127.406,53.997 L 127.219,53.9734 L 127.036,53.9266 L 126.861,53.8572 L 126.696,53.7665 L 126.544,53.6558
 L 126.407,53.5268 L 126.286,53.3817 L 126.186,53.2226 L 126.105,53.0522 L 126.047,52.873 L 126.012,52.688
 L 126,52.5 L 126.012,52.312 L 126.047,52.127 L 126.105,51.9478 L 126.186,51.7774 L 126.286,51.6183
 L 126.407,51.4732 L 126.544,51.3442 L 126.696,51.2335 L 126.861,51.1428 L 127.036,51.0734 L 127.219,51.0266
 L 127.406,51.003 L 127.594,51.003 L 127.781,51.0266 L 127.964,51.0734 L 128.139,51.1428 L 128.304,51.2335
 L 128.456,51.3442 L 128.593,51.4732 L 128.714,51.6183 L 128.814,51.7774 L 128.895,51.9478 L 128.953,52.127
 L 128.988,52.312 L 129,52.5 L 128.988,52.688 L 128.953,52.873 L 128.895,53.0522 L 128.814,53.2226
 L 128.714,53.3817 L 128.593,53.5268 L 128.456,53.6558 L 128.304,53.7665 L 128.139,53.8572 L 127.964,53.9266
 L 127.781,53.9734 L 127.594,53.997 z
M -127.594,53.997 L -127.781,53.9734 L -127.964,53.9266 L -128.139,53.8572 L -128.304,53.7665 L -128.456,53.6558
 L -128.593,53.5268 L -128.714,53.3817 L -128.814,53.2226 L -128.895,53.0522 L -128.953,52.873 L -128.988,52.688
 L -129,52.5 L -128.988,52.312 L -128.953,52.127 L -128.895,51.9478 L -128.814,51.7774 L -128.714,51.6183
 L -128.593,51.4732 L -128.456,51.3442 L -128.304,51.2335 L -128.139,51.1428 L -127.964,51.0734 L -127.781,51.0266
 L -127.594,51.003 L -127.406,51.003 L -127.219,51.0266 L -127.036,51.0734 L -126.861,51.1428 L -126.696,51.2335
 L -126.544,51.3442 L -126.407,51.4732 L -126.286,51.6183 L -126.186,51.7774 L -126.105,51.9478 L -126.047,52.127
 L -126.012,52.312 L -126,52.5 L -126.012,52.688 L -126.047,52.873 L -126.105,53.0522 L -126.186,53.2226
 L -126.286,53.3817 L -126.407,53.5268 L -126.544,53.6558 L -126.696,53.7665 L -126.861,53.8572 L -127.036,53.9266
 L -127.219,53.9734 L -127.406,53.997 z
M -127.688,62.9941 L -128.062,62.9469 L -128.427,62.8532 L -128.777,62.7145 L -129.107,62.533 L -129.412,62.3115
 L -129.687,62.0536 L -129.927,61.7634 L -130.129,61.4453 L -130.289,61.1044 L -130.406,60.7461 L -130.476,60.376
 L -130.5,60 L -130.476,59.624 L -130.406,59.2539 L -130.289,58.8956 L -130.129,58.5547 L -129.927,58.2366
 L -129.687,57.9464 L -129.412,57.6885 L -129.107,57.467 L -128.777,57.2855 L -128.427,57.1468 L -128.062,57.0531
 L -127.688,57.0059 L -127.312,57.0059 L -126.938,57.0531 L -126.573,57.1468 L -126.223,57.2855 L -125.893,57.467
 L -125.588,57.6885 L -125.313,57.9464 L -125.073,58.2366 L -124.871,58.5547 L -124.711,58.8956 L -124.594,59.2539
 L -124.524,59.624 L -124.5,60 L -124.524,60.376 L -124.594,60.7461 L -124.711,61.1044 L -124.871,61.4453
 L -125.073,61.7634 L -125.313,62.0536 L -125.588,62.3115 L -125.893,62.533 L -126.223,62.7145 L -126.573,62.8532
 L -126.938,62.9469 L -127.312,62.9941 z
M 127.312,62.9941 L 126.938,62.9469 L 126.573,62.8532 L 126.223,62.7145 L 125.893,62.533 L 125.588,62.3115
 L 125.313,62.0536 L 125.073,61.7634 L 124.871,61.4453 L 124.711,61.1044 L 124.594,60.7461 L 124.524,60.376
 L 124.5,60 L 124.524,59.624 L 124.594,59.2539 L 124.711,58.8956 L 124.871,58.5547 L 125.073,58.2366
 L 125.313,57.9464 L 125.588,57.6885 L 125.893,57.467 L 126.223,57.2855 L 126.573,57.1468 L 126.938,57.0531
 L 127.312,57.0059 L 127.688,57.0059 L 128.062,57.0531 L 128.427,57.1468 L 128.777,57.2855 L 129.107,57.467
 L 129.412,57.6885 L 129.687,57.9464 L 129.927,58.2366 L 130.129,58.5547 L 130.289,58.8956 L 130.406,59.2539
 L 130.476,59.624 L 130.5,60 L 130.476,60.376 L 130.406,60.7461 L 130.289,61.1044 L 130.129,61.4453
 L 129.927,61.7634 L 129.687,62.0536 L 129.412,62.3115 L 129.107,62.533 L 128.777,62.7145 L 128.427,62.8532
 L 128.062,62.9469 L 127.688,62.9941 z
" stroke="black" fill="lightgray" stroke-width="0.5"/>
</svg>
