<?xml version="1.0" standalone="no"?>
<!DOCTYPE svg PUBLIC "-//W3C//DTD SVG 1.1//EN" "http://www.w3.org/Graphics/SVG/1.1/DTD/svg11.dtd">
<svg width="120mm" height="44mm" viewBox="-60 -76 120 44" xmlns="http://www.w3.org/2000/svg" version="1.1">
<title>OpenSCAD Model</title>
<path d="
M 55.4369,-32.0886 L 56.0451,-32.2447 L 56.6289,-32.4759 L 57.1791,-32.7784 L 57.6871,-33.1474 L 58.1448,-33.5773
 L 58.5451,-34.0611 L 58.8815,-34.5912 L 59.1489,-35.1594 L 59.3429,-35.7566 L 59.4606,-36.3733 L 59.5,-37
 L 59.5,-71 L 59.4606,-71.6267 L 59.3429,-72.2434 L 59.1489,-72.8406 L 58.8815,-73.4088 L 58.5451,-73.9389
 L 58.1448,-74.4227 L 57.6871,-74.8526 L 57.1791,-75.2216 L 56.6289,-75.5241 L 56.0451,-75.7553 L 55.4369,-75.9114
 L 54.8139,-75.9901 L -54.8139,-75.9901 L -55.4369,-75.9114 L -56.0451,-75.7553 L -56.6289,-75.5241 L -57.1791,-75.2216
 L -57.6871,-74.8526 L -58.1448,-74.4227 L -58.5451,-73.9389 L -58.8815,-73.4088 L -59.1489,-72.8406 L -59.3429,-72.2434
 L -59.4606,-71.6267 L -59.5,-71 L -59.5,-37 L -59.4606,-36.3733 L -59.3429,-35.7566 L -59.1489,-35.1594
 L -58.8815,-34.5912 L -58.5451,-34.0611 L -58.1448,-33.5773 L -57.6871,-33.1474 L -57.1791,-32.7784 L -56.6289,-32.4759
 L -56.0451,-32.2447 L -55.4369,-32.0886 L -54.8139,-32.0099 L 54.8139,-32.0099 z
M -52.6884,-66.0059 L -53.0621,-66.0531 L -53.427,-66.1468 L -53.7773,-66.2855 L -54.1075,-66.467 L -54.4123,-66.6884
 L -54.6869,-66.9464 L -54.927,-67.2366 L -55.1289,-67.5547 L -55.2893,-67.8956 L -55.4057,-68.2539 L -55.4763,-68.624
 L -55.5,-69 L -55.4763,-69.376 L -55.4057,-69.7461 L -55.2893,-70.1044 L -55.1289,-70.4453 L -54.927,-70.7634
 L -54.6869,-71.0536 L -54.4123,-71.3115 L -54.1075,-71.533 L -53.7773,-71.7145 L -53.427,-71.8532 L -53.0621,-71.9469
 L -52.6884,-71.9941 L -52.3116,-71.9941 L -51.9379,-71.9469 L -51.5729,-71.8532 L -51.2227,-71.7145 L -50.8925,-71.533
 L -50.5877,-71.3115 L -50.3131,-71.0536 L -50.0729,-70.7634 L -49.8711,-70.4453 L -49.7107,-70.1044 L -49.5942,-69.7461
 L -49.5237,-69.376 L -49.5,-69 L -49.5237,-68.624 L -49.5942,-68.2539 L -49.7107,-67.8956 L -49.8711,-67.5547
 L -50.0729,-67.2366 L -50.3131,-66.9464 L -50.5877,-66.6884 L -50.8925,-66.467 L -51.2227,-66.2855 L -51.5729,-66.1468
 L -51.9379,-66.0531 L -52.3116,-66.0059 z
M -7.68837,-66.0059 L -8.06213,-66.0531 L -8.42705,-66.1468 L -8.77733,-66.2855 L -9.10747,-66.467 L -9.41226,-66.6884
 L -9.6869,-66.9464 L -9.92705,-67.2366 L -10.1289,-67.5547 L -10.2893,-67.8956 L -10.4057,-68.2539 L -10.4763,-68.624
 L -10.5,-69 L -10.4763,-69.376 L -10.4057,-69.7461 L -10.2893,-70.1044 L -10.1289,-70.4453 L -9.92705,-70.7634
 L -9.6869,-71.0536 L -9.41226,-71.3115 L -9.10747,-71.533 L -8.77733,-71.7145 L -8.42705,-71.8532 L -8.06213,-71.9469
 L -7.68837,-71.9941 L -7.31161,-71.9941 L -6.93785,-71.9469 L -6.57294,-71.8532 L -6.22266,-71.7145 L -5.89252,-71.533
 L -5.58772,-71.3115 L -5.31308,-71.0536 L -5.07294,-70.7634 L -4.87108,-70.4453 L -4.71066,-70.1044 L -4.59424,-69.7461
 L -4.52365,-69.376 L -4.5,-69 L -4.52365,-68.624 L -4.59424,-68.2539 L -4.71066,-67.8956 L -4.87108,-67.5547
 L -5.07294,-67.2366 L -5.31308,-66.9464 L -5.58772,-66.6884 L -5.89252,-66.467 L -6.22266,-66.2855 L -6.57294,-66.1468
 L -6.93785,-66.0531 L -7.31161,-66.0059 z
M 37.3116,-66.0059 L 36.9379,-66.0531 L 36.5729,-66.1468 L 36.2227,-66.2855 L 35.8925,-66.467 L 35.5877,-66.6884
 L 35.3131,-66.9464 L 35.0729,-67.2366 L 34.8711,-67.5547 L 34.7107,-67.8956 L 34.5942,-68.2539 L 34.5237,-68.624
 L 34.5,-69 L 34.5237,-69.376 L 34.5942,-69.7461 L 34.7107,-70.1044 L 34.8711,-70.4453 L 35.0729,-70.7634
 L 35.3131,-71.0536 L 35.5877,-71.3115 L 35.8925,-71.533 L 36.2227,-71.7145 L 36.5729,-71.8532 L 36.9379,-71.9469
 L 37.3116,-71.9941 L 37.6884,-71.9941 L 38.0621,-71.9469 L 38.427,-71.8532 L 38.7773,-71.7145 L 39.1075,-71.533
 L 39.4123,-71.3115 L 39.6869,-71.0536 L 39.927,-70.7634 L 40.1289,-70.4453 L 40.2893,-70.1044 L 40.4057,-69.7461
 L 40.4763,-69.376 L 40.5,-69 L 40.4763,-68.624 L 40.4057,-68.2539 L 40.2893,-67.8956 L 40.1289,-67.5547
 L 39.927,-67.2366 L 39.6869,-66.9464 L 39.4123,-66.6884 L 39.1075,-66.467 L 38.7773,-66.2855 L 38.427,-66.1468
 L 38.0621,-66.0531 L 37.6884,-66.0059 z
M -22.6884,-66.0059 L -23.0621,-66.0531 L -23.427,-66.1468 L -23.7773,-66.2855 L -24.1075,-66.467 L -24.4123,-66.6884
 L -24.6869,-66.9464 L -24.927,-67.2366 L -25.1289,-67.5547 L -25.2893,-67.8956 L -25.4057,-68.2539 L -25.4763,-68.624
 L -25.5,-69 L -25.4763,-69.376 L -25.4057,-69.7461 L -25.2893,-70.1044 L -25.1289,-70.4453 L -24.927,-70.7634
 L -24.6869,-71.0536 L -24.4123,-71.3115 L -24.1075,-71.533 L -23.7773,-71.7145 L -23.427,-71.8532 L -23.0621,-71.9469
 L -22.6884,-71.9941 L -22.3116,-71.9941 L -21.9379,-71.9469 L -21.5729,-71.8532 L -21.2227,-71.7145 L -20.8925,-71.533
 L -20.5877,-71.3115 L -20.3131,-71.0536 L -20.0729,-70.7634 L -19.8711,-70.4453 L -19.7107,-70.1044 L -19.5942,-69.7461
 L -19.5237,-69.376 L -19.5,-69 L -19.5237,-68.624 L -19.5942,-68.2539 L -19.7107,-67.8956 L -19.8711,-67.5547
 L -20.0729,-67.2366 L -20.3131,-66.9464 L -20.5877,-66.6884 L -20.8925,-66.467 L -21.2227,-66.2855 L -21.5729,-66.1468
 L -21.9379,-66.0531 L -22.3116,-66.0059 z
M 52.3116,-66.0059 L 51.9379,-66.0531 L 51.5729,-66.1468 L 51.2227,-66.2855 L 50.8925,-66.467 L 50.5877,-66.6884
 L 50.3131,-66.9464 L 50.0729,-67.2366 L 49.8711,-67.5547 L 49.7107,-67.8956 L 49.5942,-68.2539 L 49.5237,-68.624
 L 49.5,-69 L 49.5237,-69.376 L 49.5942,-69.7461 L 49.7107,-70.1044 L 49.8711,-70.4453 L 50.0729,-70.7634
 L 50.3131,-71.0536 L 50.5877,-71.3115 L 50.8925,-71.533 L 51.2227,-71.7145 L 51.5729,-71.8532 L 51.9379,-71.9469
 L 52.3116,-71.9941 L 52.6884,-71.9941 L 53.0621,-71.9469 L 53.427,-71.8532 L 53.7773,-71.7145 L 54.1075,-71.533
 L 54.4123,-71.3115 L 54.6869,-71.0536 L 54.927,-70.7634 L 55.1289,-70.4453 L 55.2893,-70.1044 L 55.4057,-69.7461
 L 55.4763,-69.376 L 55.5,-69 L 55.4763,-68.624 L 55.4057,-68.2539 L 55.2893,-67.8956 L 55.1289,-67.5547
 L 54.927,-67.2366 L 54.6869,-66.9464 L 54.4123,-66.6884 L 54.1075,-66.467 L 53.7773,-66.2855 L 53.427,-66.1468
 L 53.0621,-66.0531 L 52.6884,-66.0059 z
M -37.6884,-66.0059 L -38.0621,-66.0531 L -38.427,-66.1468 L -38.7773,-66.2855 L -39.1075,-66.467 L -39.4123,-66.6884
 L -39.6869,-66.9464 L -39.927,-67.2366 L -40.1289,-67.5547 L -40.2893,-67.8956 L -40.4057,-68.2539 L -40.4763,-68.624
 L -40.5,-69 L -40.4763,-69.376 L -40.4057,-69.7461 L -40.2893,-70.1044 L -40.1289,-70.4453 L -39.927,-70.7634
 L -39.6869,-71.0536 L -39.4123,-71.3115 L -39.1075,-71.533 L -38.7773,-71.7145 L -38.427,-71.8532 L -38.0621,-71.9469
 L -37.6884,-71.9941 L -37.3116,-71.9941 L -36.9379,-71.9469 L -36.5729,-71.8532 L -36.2227,-71.7145 L -35.8925,-71.533
 L -35.5877,-71.3115 L -35.3131,-71.0536 L -35.0729,-70.7634 L -34.8711,-70.4453 L -34.7107,-70.1044 L -34.5942,-69.7461
 L -34.5237,-69.376 L -34.5,-69 L -34.5237,-68.624 L -34.5942,-68.2539 L -34.7107,-67.8956 L -34.8711,-67.5547
 L -35.0729,-67.2366 L -35.3131,-66.9464 L -35.5877,-66.6884 L -35.8925,-66.467 L -36.2227,-66.2855 L -36.5729,-66.1468
 L -36.9379,-66.0531 L -37.3116,-66.0059 z
M 7.31161,-66.0059 L 6.93785,-66.0531 L 6.57294,-66.1468 L 6.22266,-66.2855 L 5.89252,-66.467 L 5.58772,-66.6884
 L 5.31308,-66.9464 L 5.07294,-67.2366 L 4.87108,-67.5547 L 4.71066,-67.8956 L 4.59424,-68.2539 L 4.52365,-68.624
 L 4.5,-69 L 4.52365,-69.376 L 4.59424,-69.7461 L 4.71066,-70.1044 L 4.87108,-70.4453 L 5.07294,-70.7634
 L 5.31308,-71.0536 L 5.58772,-71.3115 L 5.89252,-71.533 L 6.22266,-71.7145 L 6.57294,-71.8532 L 6.93785,-71.9469
 L 7.31161,-71.9941 L 7.68837,-71.9941 L 8.06213,-71.9469 L 8.42705,-71.8532 L 8.77733,-71.7145 L 9.10747,-71.533
 L 9.41226,-71.3115 L 9.6869,-71.0536 L 9.92705,-70.7634 L 10.1289,-70.4453 L 10.2893,-70.1044 L 10.4057,-69.7461
 L 10.4763,-69.376 L 10.5,-69 L 10.4763,-68.624 L 10.4057,-68.2539 L 10.2893,-67.8956 L 10.1289,-67.5547
 L 9.92705,-67.2366 L 9.6869,-66.9464 L 9.41226,-66.6884 L 9.10747,-66.467 L 8.77733,-66.2855 L 8.42705,-66.1468
 L 8.06213,-66.0531 L 7.68837,-66.0059 z
M 22.3116,-66.0059 L 21.9379,-66.0531 L 21.5729,-66.1468 L 21.2227,-66.2855 L 20.8925,-66.467 L 20.5877,-66.6884
 L 20.3131,-66.9464 L 20.0729,-67.2366 L 19.8711,-67.5547 L 19.7107,-67.8956 L 19.5942,-68.2539 L 19.5237,-68.624
 L 19.5,-69 L 19.5237,-69.376 L 19.5942,-69.7461 L 19.7107,-70.1044 L 19.8711,-70.4453 L 20.0729,-70.7634
 L 20.3131,-71.0536 L 20.5877,-71.3115 L 20.8925,-71.533 L 21.2227,-71.7145 L 21.5729,-71.8532 L 21.9379,-71.9469
 L 22.3116,-71.9941 L 22.6884,-71.9941 L 23.0621,-71.9469 L 23.427,-71.8532 L 23.7773,-71.7145 L 24.1075,-71.533
 L 24.4123,-71.3115 L 24.6869,-71.0536 L 24.927,-70.7634 L 25.1289,-70.4453 L 25.2893,-70.1044 L 25.4057,-69.7461
 L 25.4763,-69.376 L 25.5,-69 L 25.4763,-68.624 L 25.4057,-68.2539 L 25.2893,-67.8956 L 25.1289,-67.5547
 L 24.927,-67.2366 L 24.6869,-66.9464 L 24.4123,-66.6884 L 24.1075,-66.467 L 23.7773,-66.2855 L 23.427,-66.1468
 L 23.0621,-66.0531 L 22.6884,-66.0059 z
M 14.9058,-67.5029 L 14.7189,-67.5266 L 14.5365,-67.5734 L 14.3613,-67.6427 L 14.1963,-67.7335 L 14.0439,-67.8442
 L 13.9065,-67.9732 L 13.7865,-68.1183 L 13.6855,-68.2774 L 13.6053,-68.4478 L 13.5471,-68.627 L 13.5118,-68.812
 L 13.5,-69 L 13.5118,-69.188 L 13.5471,-69.373 L 13.6053,-69.5522 L 13.6855,-69.7226 L 13.7865,-69.8817
 L 13.9065,-70.0268 L 14.0439,-70.1558 L 14.1963,-70.2665 L 14.3613,-70.3572 L 14.5365,-70.4266 L 14.7189,-70.4734
 L 14.9058,-70.497 L 15.0942,-70.497 L 15.2811,-70.4734 L 15.4635,-70.4266 L 15.6387,-70.3572 L 15.8037,-70.2665
 L 15.9561,-70.1558 L 16.0934,-70.0268 L 16.2135,-69.8817 L 16.3145,-69.7226 L 16.3947,-69.5522 L 16.4529,-69.373
 L 16.4882,-69.188 L 16.5,-69 L 16.4882,-68.812 L 16.4529,-68.627 L 16.3947,-68.4478 L 16.3145,-68.2774
 L 16.2135,-68.1183 L 16.0934,-67.9732 L 15.9561,-67.8442 L 15.8037,-67.7335 L 15.6387,-67.6427 L 15.4635,-67.5734
 L 15.2811,-67.5266 L 15.0942,-67.5029 z
M -30.0942,-67.5029 L -30.2811,-67.5266 L -30.4635,-67.5734 L -30.6387,-67.6427 L -30.8037,-67.7335 L -30.9561,-67.8442
 L -31.0934,-67.9732 L -31.2135,-68.1183 L -31.3145,-68.2774 L -31.3947,-68.4478 L -31.4529,-68.627 L -31.4882,-68.812
 L -31.5,-69 L -31.4882,-69.188 L -31.4529,-69.373 L -31.3947,-69.5522 L -31.3145,-69.7226 L -31.2135,-69.8817
 L -31.0934,-70.0268 L -30.9561,-70.1558 L -30.8037,-70.2665 L -30.6387,-70.3572 L -30.4635,-70.4266 L -30.2811,-70.4734
 L -30.0942,-70.497 L -29.9058,-70.497 L -29.7189,-70.4734 L -29.5365,-70.4266 L -29.3613,-70.3572 L -29.1963,-70.2665
 L -29.0439,-70.1558 L -28.9065,-70.0268 L -28.7865,-69.8817 L -28.6855,-69.7226 L -28.6053,-69.5522 L -28.5471,-69.373
 L -28.5118,-69.188 L -28.5,-69 L -28.5118,-68.812 L -28.5471,-68.627 L -28.6053,-68.4478 L -28.6855,-68.2774
 L -28.7865,-68.1183 L -28.9065,-67.9732 L -29.0439,-67.8442 L -29.1963,-67.7335 L -29.3613,-67.6427 L -29.5365,-67.5734
 L -29.7189,-67.5266 L -29.9058,-67.5029 z
M 44.9058,-67.5029 L 44.7189,-67.5266 L 44.5365,-67.5734 L 44.3613,-67.6427 L 44.1963,-67.7335 L 44.0439,-67.8442
 L 43.9065,-67.9732 L 43.7865,-68.1183 L 43.6855,-68.2774 L 43.6053,-68.4478 L 43.5471,-68.627 L 43.5118,-68.812
 L 43.5,-69 L 43.5118,-69.188 L 43.5471,-69.373 L 43.6053,-69.5522 L 43.6855,-69.7226 L 43.7865,-69.8817
 L 43.9065,-70.0268 L 44.0439,-70.1558 L 44.1963,-70.2665 L 44.3613,-70.3572 L 44.5365,-70.4266 L 44.7189,-70.4734
 L 44.9058,-70.497 L 45.0942,-70.497 L 45.2811,-70.4734 L 45.4635,-70.4266 L 45.6387,-70.3572 L 45.8037,-70.2665
 L 45.9561,-70.1558 L 46.0934,-70.0268 L 46.2135,-69.8817 L 46.3145,-69.7226 L 46.3947,-69.5522 L 46.4529,-69.373
 L 46.4882,-69.188 L 46.5,-69 L 46.4882,-68.812 L 46.4529,-68.627 L 46.3947,-68.4478 L 46.3145,-68.2774
 L 46.2135,-68.1183 L 46.0934,-67.9732 L 45.9561,-67.8442 L 45.8037,-67.7335 L 45.6387,-67.6427 L 45.4635,-67.5734
 L 45.2811,-67.5266 L 45.0942,-67.5029 z
M -0.0941772,-67.5029 L -0.281067,-67.5266 L -0.463516,-67.5734 L -0.638657,-67.6427 L -0.803726,-67.7335 L -0.956131,-67.8442
 L -1.09344,-67.9732 L -1.21352,-68.1183 L -1.31445,-68.2774 L -1.39465,-68.4478 L -1.45287,-68.627 L -1.48816,-68.812
 L -1.5,-69 L -1.48816,-69.188 L -1.45287,-69.373 L -1.39465,-69.5522 L -1.31445,-69.7226 L -1.21352,-69.8817
 L -1.09344,-70.0268 L -0.956131,-70.1558 L -0.803726,-70.2665 L -0.638657,-70.3572 L -0.463516,-70.4266 L -0.281067,-70.4734
 L -0.0941772,-70.497 L 0.0941772,-70.497 L 0.281067,-70.4734 L 0.463516,-70.4266 L 0.638657,-70.3572 L 0.803726,-70.2665
 L 0.956131,-70.1558 L 1.09344,-70.0268 L 1.21352,-69.8817 L 1.31445,-69.7226 L 1.39465,-69.5522 L 1.45287,-69.373
 L 1.48816,-69.188 L 1.5,-69 L 1.48816,-68.812 L 1.45287,-68.627 L 1.39465,-68.4478 L 1.31445,-68.2774
 L 1.21352,-68.1183 L 1.09344,-67.9732 L 0.956131,-67.8442 L 0.803726,-67.7335 L 0.638657,-67.6427 L 0.463516,-67.5734
 L 0.281067,-67.5266 L 0.0941772,-67.5029 z
M -45.0942,-67.5029 L -45.2811,-67.5266 L -45.4635,-67.5734 L -45.6387,-67.6427 L -45.8037,-67.7335 L -45.9561,-67.8442
 L -46.0934,-67.9732 L -46.2135,-68.1183 L -46.3145,-68.2774 L -46.3947,-68.4478 L -46.4529,-68.627 L -46.4882,-68.812
 L -46.5,-69 L -46.4882,-69.188 L -46.4529,-69.373 L -46.3947,-69.5522 L -46.3145,-69.7226 L -46.2135,-69.8817
 L -46.0934,-70.0268 L -45.9561,-70.1558 L -45.8037,-70.2665 L -45.6387,-70.3572 L -45.4635,-70.4266 L -45.2811,-70.4734
 L -45.0942,-70.497 L -44.9058,-70.497 L -44.7189,-70.4734 L -44.5365,-70.4266 L -44.3613,-70.3572 L -44.1963,-70.2665
 L -44.0439,-70.1558 L -43.9065,-70.0268 L -43.7865,-69.8817 L -43.6855,-69.7226 L -43.6053,-69.5522 L -43.5471,-69.373
 L -43.5118,-69.188 L -43.5,-69 L -43.5118,-68.812 L -43.5471,-68.627 L -43.6053,-68.4478 L -43.6855,-68.2774
 L -43.7865,-68.1183 L -43.9065,-67.9732 L -44.0439,-67.8442 L -44.1963,-67.7335 L -44.3613,-67.6427 L -44.5365,-67.5734
 L -44.7189,-67.5266 L -44.9058,-67.5029 z
M 29.9058,-67.5029 L 29.7189,-67.5266 L 29.5365,-67.5734 L 29.3613,-67.6427 L 29.1963,-67.7335 L 29.0439,-67.8442
 L 28.9065,-67.9732 L 28.7865,-68.1183 L 28.6855,-68.2774 L 28.6053,-68.4478 L 28.5471,-68.627 L 28.5118,-68.812
 L 28.5,-69 L 28.5118,-69.188 L 28.5471,-69.373 L 28.6053,-69.5522 L 28.6855,-69.7226 L 28.7865,-69.8817
 L 28.9065,-70.0268 L 29.0439,-70.1558 L 29.1963,-70.2665 L 29.3613,-70.3572 L 29.5365,-70.4266 L 29.7189,-70.4734
 L 29.9058,-70.497 L 30.0942,-70.497 L 30.2811,-70.4734 L 30.4635,-70.4266 L 30.6387,-70.3572 L 30.8037,-70.2665
 L 30.9561,-70.1558 L 31.0934,-70.0268 L 31.2135,-69.8817 L 31.3145,-69.7226 L 31.3947,-69.5522 L 31.4529,-69.373
 L 31.4882,-69.188 L 31.5,-69 L 31.4882,-68.812 L 31.4529,-68.627 L 31.3947,-68.4478 L 31.3145,-68.2774
 L 31.2135,-68.1183 L 31.0934,-67.9732 L 30.9561,-67.8442 L 30.8037,-67.7335 L 30.6387,-67.6427 L 30.4635,-67.5734
 L 30.2811,-67.5266 L 30.0942,-67.5029 z
M -15.0942,-67.5029 L -15.2811,-67.5266 L -15.4635,-67.5734 L -15.6387,-67.6427 L -15.8037,-67.7335 L -15.9561,-67.8442
 L -16.0934,-67.9732 L -16.2135,-68.1183 L -16.3145,-68.2774 L -16.3947,-68.4478 L -16.4529,-68.627 L -16.4882,-68.812
 L -16.5,-69 L -16.4882,-69.188 L -16.4529,-69.373 L -16.3947,-69.5522 L -16.3145,-69.7226 L -16.2135,-69.8817
 L -16.0934,-70.0268 L -15.9561,-70.1558 L -15.8037,-70.2665 L -15.6387,-70.3572 L -15.4635,-70.4266 L -15.2811,-70.4734
 L -15.0942,-70.497 L -14.9058,-70.497 L -14.7189,-70.4734 L -14.5365,-70.4266 L -14.3613,-70.3572 L -14.1963,-70.2665
 L -14.0439,-70.1558 L -13.9065,-70.0268 L -13.7865,-69.8817 L -13.6855,-69.7226 L -13.6053,-69.5522 L -13.5471,-69.373
 L -13.5118,-69.188 L -13.5,-69 L -13.5118,-68.812 L -13.5471,-68.627 L -13.6053,-68.4478 L -13.6855,-68.2774
 L -13.7865,-68.1183 L -13.9065,-67.9732 L -14.0439,-67.8442 L -14.1963,-67.7335 L -14.3613,-67.6427 L -14.5365,-67.5734
 L -14.7189,-67.5266 L -14.9058,-67.5029 z
M 52.4058,-60.0029 L 52.2189,-60.0266 L 52.0365,-60.0734 L 51.8613,-60.1427 L 51.6963,-60.2335 L 51.5439,-60.3442
 L 51.4065,-60.4732 L 51.2865,-60.6183 L 51.1855,-60.7774 L 51.1053,-60.9478 L 51.0471,-61.127 L 51.0118,-61.312
 L 51,-61.5 L 51.0118,-61.688 L 51.0471,-61.873 L 51.1053,-62.0522 L 51.1855,-62.2226 L 51.2865,-62.3817
 L 51.4065,-62.5268 L 51.5439,-62.6558 L 51.6963,-62.7665 L 51.8613,-62.8572 L 52.0365,-62.9266 L 52.2189,-62.9734
 L 52.4058,-62.997 L 52.5942,-62.997 L 52.7811,-62.9734 L 52.9635,-62.9266 L 53.1387,-62.8572 L 53.3037,-62.7665
 L 53.4561,-62.6558 L 53.5934,-62.5268 L 53.7135,-62.3817 L 53.8145,-62.2226 L 53.8947,-62.0522 L 53.9529,-61.873
 L 53.9882,-61.688 L 54,-61.5 L 53.9882,-61.312 L 53.9529,-61.127 L 53.8947,-60.9478 L 53.8145,-60.7774
 L 53.7135,-60.6183 L 53.5934,-60.4732 L 53.4561,-60.3442 L 53.3037,-60.2335 L 53.1387,-60.1427 L 52.9635,-60.0734
 L 52.7811,-60.0266 L 52.5942,-60.0029 z
M -52.5942,-60.0029 L -52.7811,-60.0266 L -52.9635,-60.0734 L -53.1387,-60.1427 L -53.3037,-60.2335 L -53.4561,-60.3442
 L -53.5934,-60.4732 L -53.7135,-60.6183 L -53.8145,-60.7774 L -53.8947,-60.9478 L -53.9529,-61.127 L -53.9882,-61.312
 L -54,-61.5 L -53.9882,-61.688 L -53.9529,-61.873 L -53.8947,-62.0522 L -53.8145,-62.2226 L -53.7135,-62.3817
 L -53.5934,-62.5268 L -53.4561,-62.6558 L -53.3037,-62.7665 L -53.1387,-62.8572 L -52.9635,-62.9266 L -52.7811,-62.9734
 L -52.5942,-62.997 L -52.4058,-62.997 L -52.2189,-62.9734 L -52.0365,-62.9266 L -51.8613,-62.8572 L -51.6963,-62.7665
 L -51.5439,-62.6558 L -51.4065,-62.5268 L -51.2865,-62.3817 L -51.1855,-62.2226 L -51.1053,-62.0522 L -51.0471,-61.873
 L -51.0118,-61.688 L -51,-61.5 L -51.0118,-61.312 L -51.0471,-61.127 L -51.1053,-60.9478 L -51.1855,-60.7774
 L -51.2865,-60.6183 L -51.4065,-60.4732 L -51.5439,-60.3442 L -51.6963,-60.2335 L -51.8613,-60.1427 L -52.0365,-60.0734
 L -52.2189,-60.0266 L -52.4058,-60.0029 z
M -0.470917,-46.5148 L -1.40535,-46.6329 L -2.31763,-46.8671 L -3.19334,-47.2138 L -4.01869,-47.6675 L -4.78067,-48.2212
 L -5.46725,-48.8659 L -6.06763,-49.5916 L -6.5723,-50.3869 L -6.97331,-51.2391 L -7.26436,-52.1348 L -7.44086,-53.06
 L -7.5,-54 L -7.44086,-54.94 L -7.26436,-55.8652 L -6.97331,-56.7609 L -6.5723,-57.6131 L -6.06763,-58.4084
 L -5.46725,-59.1341 L -4.78067,-59.7788 L -4.01869,-60.3325 L -3.19334,-60.7862 L -2.31763,-61.1329 L -1.40535,-61.3671
 L -0.470917,-61.4852 L 0.470917,-61.4852 L 1.40535,-61.3671 L 2.31763,-61.1329 L 3.19334,-60.7862 L 4.01869,-60.3325
 L 4.78067,-59.7788 L 5.46725,-59.1341 L 6.06763,-58.4084 L 6.5723,-57.6131 L 6.97331,-56.7609 L 7.26436,-55.8652
 L 7.44086,-54.94 L 7.5,-54 L 7.44086,-53.06 L 7.26436,-52.1348 L 6.97331,-51.2391 L 6.5723,-50.3869
 L 6.06763,-49.5916 L 5.46725,-48.8659 L 4.78067,-48.2212 L 4.01869,-47.6675 L 3.19334,-47.2138 L 2.31763,-46.8671
 L 1.40535,-46.6329 L 0.470917,-46.5148 z
M 39.5291,-46.5148 L 38.5946,-46.6329 L 37.6824,-46.8671 L 36.8067,-47.2138 L 35.9813,-47.6675 L 35.2193,-48.2212
 L 34.5327,-48.8659 L 33.9324,-49.5916 L 33.4277,-50.3869 L 33.0267,-51.2391 L 32.7356,-52.1348 L 32.5591,-53.06
 L 32.5,-54 L 32.5591,-54.94 L 32.7356,-55.8652 L 33.0267,-56.7609 L 33.4277,-57.6131 L 33.9324,-58.4084
 L 34.5327,-59.1341 L 35.2193,-59.7788 L 35.9813,-60.3325 L 36.8067,-60.7862 L 37.6824,-61.1329 L 38.5946,-61.3671
 L 39.5291,-61.4852 L 40.4709,-61.4852 L 41.4053,-61.3671 L 42.3176,-61.1329 L 43.1933,-60.7862 L 44.0187,-60.3325
 L 44.7807,-59.7788 L 45.4673,-59.1341 L 46.0676,-58.4084 L 46.5723,-57.6131 L 46.9733,-56.7609 L 47.2644,-55.8652
 L 47.4409,-54.94 L 47.5,-54 L 47.4409,-53.06 L 47.2644,-52.1348 L 46.9733,-51.2391 L 46.5723,-50.3869
 L 46.0676,-49.5916 L 45.4673,-48.8659 L 44.7807,-48.2212 L 44.0187,-47.6675 L 43.1933,-47.2138 L 42.3176,-46.8671
 L 41.4053,-46.6329 L 40.4709,-46.5148 z
M -20.4709,-46.5148 L -21.4053,-46.6329 L -22.3176,-46.8671 L -23.1933,-47.2138 L -24.0187,-47.6675 L -24.7807,-48.2212
 L -25.4673,-48.8659 L -26.0676,-49.5916 L -26.5723,-50.3869 L -26.9733,-51.2391 L -27.2644,-52.1348 L -27.4409,-53.06
 L -27.5,-54 L -27.4409,-54.94 L -27.2644,-55.8652 L -26.9733,-56.7609 L -26.5723,-57.6131 L -26.0676,-58.4084
 L -25.4673,-59.1341 L -24.7807,-59.7788 L -24.0187,-60.3325 L -23.1933,-60.7862 L -22.3176,-61.1329 L -21.4053,-61.3671
 L -20.4709,-61.4852 L -19.5291,-61.4852 L -18.5946,-61.3671 L -17.6824,-61.1329 L -16.8067,-60.7862 L -15.9813,-60.3325
 L -15.2193,-59.7788 L -14.5327,-59.1341 L -13.9324,-58.4084 L -13.4277,-57.6131 L -13.0267,-56.7609 L -12.7356,-55.8652
 L -12.5591,-54.94 L -12.5,-54 L -12.5591,-53.06 L -12.7356,-52.1348 L -13.0267,-51.2391 L -13.4277,-50.3869
 L -13.9324,-49.5916 L -14.5327,-48.8659 L -15.2193,-48.2212 L -15.9813,-47.6675 L -16.8067,-47.2138 L -17.6824,-46.8671
 L -18.5946,-46.6329 L -19.5291,-46.5148 z
M -40.4709,-46.5148 L -41.4053,-46.6329 L -42.3176,-46.8671 L -43.1933,-47.2138 L -44.0187,-47.6675 L -44.7807,-48.2212
 L -45.4673,-48.8659 L -46.0676,-49.5916 L -46.5723,-50.3869 L -46.9733,-51.2391 L -47.2644,-52.1348 L -47.4409,-53.06
 L -47.5,-54 L -47.4409,-54.94 L -47.2644,-55.8652 L -46.9733,-56.7609 L -46.5723,-57.6131 L -46.0676,-58.4084
 L -45.4673,-59.1341 L -44.7807,-59.7788 L -44.0187,-60.3325 L -43.1933,-60.7862 L -42.3176,-61.1329 L -41.4053,-61.3671
 L -40.4709,-61.4852 L -39.5291,-61.4852 L -38.5946,-61.3671 L -37.6824,-61.1329 L -36.8067,-60.7862 L -35.9813,-60.3325
 L -35.2193,-59.7788 L -34.5327,-59.1341 L -33.9324,-58.4084 L -33.4277,-57.6131 L -33.0267,-56.7609 L -32.7356,-55.8652
 L -32.5591,-54.94 L -32.5,-54 L -32.5591,-53.06 L -32.7356,-52.1348 L -33.0267,-51.2391 L -33.4277,-50.3869
 L -33.9324,-49.5916 L -34.5327,-48.8659 L -35.2193,-48.2212 L -35.9813,-47.6675 L -36.8067,-47.2138 L -37.6824,-46.8671
 L -38.5946,-46.6329 L -39.5291,-46.5148 z
M 19.5291,-46.5148 L 18.5946,-46.6329 L 17.6824,-46.8671 L 16.8067,-47.2138 L 15.9813,-47.6675 L 15.2193,-48.2212
 L 14.5327,-48.8659 L 13.9324,-49.5916 L 13.4277,-50.3869 L 13.0267,-51.2391 L 12.7356,-52.1348 L 12.5591,-53.06
 L 12.5,-54 L 12.5591,-54.94 L 12.7356,-55.8652 L 13.0267,-56.7609 L 13.4277,-57.6131 L 13.9324,-58.4084
 L 14.5327,-59.1341 L 15.2193,-59.7788 L 15.9813,-60.3325 L 16.8067,-60.7862 L 17.6824,-61.1329 L 18.5946,-61.3671
 L 19.5291,-61.4852 L 20.4709,-61.4852 L 21.4053,-61.3671 L 22.3176,-61.1329 L 23.1933,-60.7862 L 24.0187,-60.3325
 L 24.7807,-59.7788 L 25.4673,-59.1341 L 26.0676,-58.4084 L 26.5723,-57.6131 L 26.9733,-56.7609 L 27.2644,-55.8652
 L 27.4409,-54.94 L 27.5,-54 L 27.4409,-53.06 L 27.2644,-52.1348 L 26.9733,-51.2391 L 26.5723,-50.3869
 L 26.0676,-49.5916 L 25.4673,-48.8659 L 24.7807,-48.2212 L 24.0187,-47.6675 L 23.1933,-47.2138 L 22.3176,-46.8671
 L 21.4053,-46.6329 L 20.4709,-46.5148 z
M -52.6884,-51.0059 L -53.0621,-51.0531 L -53.427,-51.1468 L -53.7773,-51.2855 L -54.1075,-51.467 L -54.4123,-51.6885
 L -54.6869,-51.9464 L -54.927,-52.2366 L -55.1289,-52.5547 L -55.2893,-52.8956 L -55.4057,-53.2539 L -55.4763,-53.624
 L -55.5,-54 L -55.4763,-54.376 L -55.4057,-54.7461 L -55.2893,-55.1044 L -55.1289,-55.4453 L -54.927,-55.7634
 L -54.6869,-56.0536 L -54.4123,-56.3115 L -54.1075,-56.533 L -53.7773,-56.7145 L -53.427,-56.8532 L -53.0621,-56.9469
 L -52.6884,-56.9941 L -52.3116,-56.9941 L -51.9379,-56.9469 L -51.5729,-56.8532 L -51.2227,-56.7145 L -50.8925,-56.533
 L -50.5877,-56.3115 L -50.3131,-56.0536 L -50.0729,-55.7634 L -49.8711,-55.4453 L -49.7107,-55.1044 L -49.5942,-54.7461
 L -49.5237,-54.376 L -49.5,-54 L -49.5237,-53.624 L -49.5942,-53.2539 L -49.7107,-52.8956 L -49.8711,-52.5547
 L -50.0729,-52.2366 L -50.3131,-51.9464 L -50.5877,-51.6885 L -50.8925,-51.467 L -51.2227,-51.2855 L -51.5729,-51.1468
 L -51.9379,-51.0531 L -52.3116,-51.0059 z
M 52.3116,-51.0059 L 51.9379,-51.0531 L 51.5729,-51.1468 L 51.2227,-51.2855 L 50.8925,-51.467 L 50.5877,-51.6885
 L 50.3131,-51.9464 L 50.0729,-52.2366 L 49.8711,-52.5547 L 49.7107,-52.8956 L 49.5942,-53.2539 L 49.5237,-53.624
 L 49.5,-54 L 49.5237,-54.376 L 49.5942,-54.7461 L 49.7107,-55.1044 L 49.8711,-55.4453 L 50.0729,-55.7634
 L 50.3131,-56.0536 L 50.5877,-56.3115 L 50.8925,-56.533 L 51.2227,-56.7145 L 51.5729,-56.8532 L 51.9379,-56.9469
 L 52.3116,-56.9941 L 52.6884,-56.9941 L 53.0621,-56.9469 L 53.427,-56.8532 L 53.7773,-56.7145 L 54.1075,-56.533
 L 54.4123,-56.3115 L 54.6869,-56.0536 L 54.927,-55.7634 L 55.1289,-55.4453 L 55.2893,-55.1044 L 55.4057,-54.7461
 L 55.4763,-54.376 L 55.5,-54 L 55.4763,-53.624 L 55.4057,-53.2539 L 55.2893,-52.8956 L 55.1289,-52.5547
 L 54.927,-52.2366 L 54.6869,-51.9464 L 54.4123,-51.6885 L 54.1075,-51.467 L 53.7773,-51.2855 L 53.427,-51.1468
 L 53.0621,-51.0531 L 52.6884,-51.0059 z
M 52.4058,-45.003 L 52.2189,-45.0266 L 52.0365,-45.0734 L 51.8613,-45.1428 L 51.6963,-45.2335 L 51.5439,-45.3442
 L 51.4065,-45.4732 L 51.2865,-45.6183 L 51.1855,-45.7774 L 51.1053,-45.9478 L 51.0471,-46.127 L 51.0118,-46.312
 L 51,-46.5 L 51.0118,-46.688 L 51.0471,-46.873 L 51.1053,-47.0522 L 51.1855,-47.2226 L 51.2865,-47.3817
 L 51.4065,-47.5268 L 51.5439,-47.6558 L 51.6963,-47.7665 L 51.8613,-47.8573 L 52.0365,-47.9266 L 52.2189,-47.9734
 L 52.4058,-47.9971 L 52.5942,-47.9971 L 52.7811,-47.9734 L 52.9635,-47.9266 L 53.1387,-47.8573 L 53.3037,-47.7665
 L 53.4561,-47.6558 L 53.5934,-47.5268 L 53.7135,-47.3817 L 53.8145,-47.2226 L 53.8947,-47.0522 L 53.9529,-46.873
 L 53.9882,-46.688 L 54,-46.5 L 53.9882,-46.312 L 53.9529,-46.127 L 53.8947,-45.9478 L 53.8145,-45.7774
 L 53.7135,-45.6183 L 53.5934,-45.4732 L 53.4561,-45.3442 L 53.3037,-45.2335 L 53.1387,-45.1428 L 52.9635,-45.0734
 L 52.7811,-45.0266 L 52.5942,-45.003 z
M -52.5942,-45.003 L -52.7811,-45.0266 L -52.9635,-45.0734 L -53.1387,-45.1428 L -53.3037,-45.2335 L -53.4561,-45.3442
 L -53.5934,-45.4732 L -53.7135,-45.6183 L -53.8145,-45.7774 L -53.8947,-45.9478 L -53.9529,-46.127 L -53.9882,-46.312
 L -54,-46.5 L -53.9882,-46.688 L -53.9529,-46.873 L -53.8947,-47.0522 L -53.8145,-47.2226 L -53.7135,-47.3817
 L -53.5934,-47.5268 L -53.4561,-47.6558 L -53.3037,-47.7665 L -53.1387,-47.8573 L -52.9635,-47.9266 L -52.7811,-47.9734
 L -52.5942,-47.9971 L -52.4058,-47.9971 L -52.2189,-47.9734 L -52.0365,-47.9266 L -51.8613,-47.8573 L -51.6963,-47.7665
 L -51.5439,-47.6558 L -51.4065,-47.5268 L -51.2865,-47.3817 L -51.1855,-47.2226 L -51.1053,-47.0522 L -51.0471,-46.873
 L -51.0118,-46.688 L -51,-46.5 L -51.0118,-46.312 L -51.0471,-46.127 L -51.1053,-45.9478 L -51.1855,-45.7774
 L -51.2865,-45.6183 L -51.4065,-45.4732 L -51.5439,-45.3442 L -51.6963,-45.2335 L -51.8613,-45.1428 L -52.0365,-45.0734
 L -52.2189,-45.0266 L -52.4058,-45.003 z
M -52.6884,-36.0059 L -53.0621,-36.0531 L -53.427,-36.1468 L -53.7773,-36.2855 L -54.1075,-36.467 L -54.4123,-36.6885
 L -54.6869,-36.9464 L -54.927,-37.2366 L -55.1289,-37.5547 L -55.2893,-37.8956 L -55.4057,-38.2539 L -55.4763,-38.624
 L -55.5,-39 L -55.4763,-39.376 L -55.4057,-39.7461 L -55.2893,-40.1044 L -55.1289,-40.4453 L -54.927,-40.7634
 L -54.6869,-41.0536 L -54.4123,-41.3116 L -54.1075,-41.533 L -53.7773,-41.7145 L -53.427,-41.8532 L -53.0621,-41.9469
 L -52.6884,-41.9941 L -52.3116,-41.9941 L -51.9379,-41.9469 L -51.5729,-41.8532 L -51.2227,-41.7145 L -50.8925,-41.533
 L -50.5877,-41.3116 L -50.3131,-41.0536 L -50.0729,-40.7634 L -49.8711,-40.4453 L -49.7107,-40.1044 L -49.5942,-39.7461
 L -49.5237,-39.376 L -49.5,-39 L -49.5237,-38.624 L -49.5942,-38.2539 L -49.7107,-37.8956 L -49.8711,-37.5547
 L -50.0729,-37.2366 L -50.3131,-36.9464 L -50.5877,-36.6885 L -50.8925,-36.467 L -51.2227,-36.2855 L -51.5729,-36.1468
 L -51.9379,-36.0531 L -52.3116,-36.0059 z
M -22.6884,-36.0059 L -23.0621,-36.0531 L -23.427,-36.1468 L -23.7773,-36.2855 L -24.1075,-36.467 L -24.4123,-36.6885
 L -24.6869,-36.9464 L -24.927,-37.2366 L -25.1289,-37.5547 L -25.2893,-37.8956 L -25.4057,-38.2539 L -25.4763,-38.624
 L -25.5,-39 L -25.4763,-39.376 L -25.4057,-39.7461 L -25.2893,-40.1044 L -25.1289,-40.4453 L -24.927,-40.7634
 L -24.6869,-41.0536 L -24.4123,-41.3116 L -24.1075,-41.533 L -23.7773,-41.7145 L -23.427,-41.8532 L -23.0621,-41.9469
 L -22.6884,-41.9941 L -22.3116,-41.9941 L -21.9379,-41.9469 L -21.5729,-41.8532 L -21.2227,-41.7145 L -20.8925,-41.533
 L -20.5877,-41.3116 L -20.3131,-41.0536 L -20.0729,-40.7634 L -19.8711,-40.4453 L -19.7107,-40.1044 L -19.5942,-39.7461
 L -19.5237,-39.376 L -19.5,-39 L -19.5237,-38.624 L -19.5942,-38.2539 L -19.7107,-37.8956 L -19.8711,-37.5547
 L -20.0729,-37.2366 L -20.3131,-36.9464 L -20.5877,-36.6885 L -20.8925,-36.467 L -21.2227,-36.2855 L -21.5729,-36.1468
 L -21.9379,-36.0531 L -22.3116,-36.0059 z
M 37.3116,-36.0059 L 36.9379,-36.0531 L 36.5729,-36.1468 L 36.2227,-36.2855 L 35.8925,-36.467 L 35.5877,-36.6885
 L 35.3131,-36.9464 L 35.0729,-37.2366 L 34.8711,-37.5547 L 34.7107,-37.8956 L 34.5942,-38.2539 L 34.5237,-38.624
 L 34.5,-39 L 34.5237,-39.376 L 34.5942,-39.7461 L 34.7107,-40.1044 L 34.8711,-40.4453 L 35.0729,-40.7634
 L 35.3131,-41.0536 L 35.5877,-41.3116 L 35.8925,-41.533 L 36.2227,-41.7145 L 36.5729,-41.8532 L 36.9379,-41.9469
 L 37.3116,-41.9941 L 37.6884,-41.9941 L 38.0621,-41.9469 L 38.427,-41.8532 L 38.7773,-41.7145 L 39.1075,-41.533
 L 39.4123,-41.3116 L 39.6869,-41.0536 L 39.927,-40.7634 L 40.1289,-40.4453 L 40.2893,-40.1044 L 40.4057,-39.7461
 L 40.4763,-39.376 L 40.5,-39 L 40.4763,-38.624 L 40.4057,-38.2539 L 40.2893,-37.8956 L 40.1289,-37.5547
 L 39.927,-37.2366 L 39.6869,-36.9464 L 39.4123,-36.6885 L 39.1075,-36.467 L 38.7773,-36.2855 L 38.427,-36.1468
 L 38.0621,-36.0531 L 37.6884,-36.0059 z
M -37.6884,-36.0059 L -38.0621,-36.0531 L -38.427,-36.1468 L -38.7773,-36.2855 L -39.1075,-36.467 L -39.4123,-36.6885
 L -39.6869,-36.9464 L -39.927,-37.2366 L -40.1289,-37.5547 L -40.2893,-37.8956 L -40.4057,-38.2539 L -40.4763,-38.624
 L -40.5,-39 L -40.4763,-39.376 L -40.4057,-39.7461 L -40.2893,-40.1044 L -40.1289,-40.4453 L -39.927,-40.7634
 L -39.6869,-41.0536 L -39.4123,-41.3116 L -39.1075,-41.533 L -38.7773,-41.7145 L -38.427,-41.8532 L -38.0621,-41.9469
 L -37.6884,-41.9941 L -37.3116,-41.9941 L -36.9379,-41.9469 L -36.5729,-41.8532 L -36.2227,-41.7145 L -35.8925,-41.533
 L -35.5877,-41.3116 L -35.3131,-41.0536 L -35.0729,-40.7634 L -34.8711,-40.4453 L -34.7107,-40.1044 L -34.5942,-39.7461
 L -34.5237,-39.376 L -34.5,-39 L -34.5237,-38.624 L -34.5942,-38.2539 L -34.7107,-37.8956 L -34.8711,-37.5547
 L -35.0729,-37.2366 L -35.3131,-36.9464 L -35.5877,-36.6885 L -35.8925,-36.467 L -36.2227,-36.2855 L -36.5729,-36.1468
 L -36.9379,-36.0531 L -37.3116,-36.0059 z
M 7.31161,-36.0059 L 6.93785,-36.0531 L 6.57294,-36.1468 L 6.22266,-36.2855 L 5.89252,-36.467 L 5.58772,-36.6885
 L 5.31308,-36.9464 L 5.07294,-37.2366 L 4.87108,-37.5547 L 4.71066,-37.8956 L 4.59424,-38.2539 L 4.52365,-38.624
 L 4.5,-39 L 4.52365,-39.376 L 4.59424,-39.7461 L 4.71066,-40.1044 L 4.87108,-40.4453 L 5.07294,-40.7634
 L 5.31308,-41.0536 L 5.58772,-41.3116 L 5.89252,-41.533 L 6.22266,-41.7145 L 6.57294,-41.8532 L 6.93785,-41.9469
 L 7.31161,-41.9941 L 7.68837,-41.9941 L 8.06213,-41.9469 L 8.42705,-41.8532 L 8.77733,-41.7145 L 9.10747,-41.533
 L 9.41226,-41.3116 L 9.6869,-41.0536 L 9.92705,-40.7634 L 10.1289,-40.4453 L 10.2893,-40.1044 L 10.4057,-39.7461
 L 10.4763,-39.376 L 10.5,-39 L 10.4763,-38.624 L 10.4057,-38.2539 L 10.2893,-37.8956 L 10.1289,-37.5547
 L 9.92705,-37.2366 L 9.6869,-36.9464 L 9.41226,-36.6885 L 9.10747,-36.467 L 8.77733,-36.2855 L 8.42705,-36.1468
 L 8.06213,-36.0531 L 7.68837,-36.0059 z
M 52.3116,-36.0059 L 51.9379,-36.0531 L 51.5729,-36.1468 L 51.2227,-36.2855 L 50.8925,-36.467 L 50.5877,-36.6885
 L 50.3131,-36.9464 L 50.0729,-37.2366 L 49.8711,-37.5547 L 49.7107,-37.8956 L 49.5942,-38.2539 L 49.5237,-38.624
 L 49.5,-39 L 49.5237,-39.376 L 49.5942,-39.7461 L 49.7107,-40.1044 L 49.8711,-40.4453 L 50.0729,-40.7634
 L 50.3131,-41.0536 L 50.5877,-41.3116 L 50.8925,-41.533 L 51.2227,-41.7145 L 51.5729,-41.8532 L 51.9379,-41.9469
 L 52.3116,-41.9941 L 52.6884,-41.9941 L 53.0621,-41.9469 L 53.427,-41.8532 L 53.7773,-41.7145 L 54.1075,-41.533
 L 54.4123,-41.3116 L 54.6869,-41.0536 L 54.927,-40.7634 L 55.1289,-40.4453 L 55.2893,-40.1044 L 55.4057,-39.7461
 L 55.4763,-39.376 L 55.5,-39 L 55.4763,-38.624 L 55.4057,-38.2539 L 55.2893,-37.8956 L 55.1289,-37.5547
 L 54.927,-37.2366 L 54.6869,-36.9464 L 54.4123,-36.6885 L 54.1075,-36.467 L 53.7773,-36.2855 L 53.427,-36.1468
 L 53.0621,-36.0531 L 52.6884,-36.0059 z
M -7.68837,-36.0059 L -8.06213,-36.0531 L -8.42705,-36.1468 L -8.77733,-36.2855 L -9.10747,-36.467 L -9.41226,-36.6885
 L -9.6869,-36.9464 L -9.92705,-37.2366 L -10.1289,-37.5547 L -10.2893,-37.8956 L -10.4057,-38.2539 L -10.4763,-38.624
 L -10.5,-39 L -10.4763,-39.376 L -10.4057,-39.7461 L -10.2893,-40.1044 L -10.1289,-40.4453 L -9.92705,-40.7634
 L -9.6869,-41.0536 L -9.41226,-41.3116 L -9.10747,-41.533 L -8.77733,-41.7145 L -8.42705,-41.8532 L -8.06213,-41.9469
 L -7.68837,-41.9941 L -7.31161,-41.9941 L -6.93785,-41.9469 L -6.57294,-41.8532 L -6.22266,-41.7145 L -5.89252,-41.533
 L -5.58772,-41.3116 L -5.31308,-41.0536 L -5.07294,-40.7634 L -4.87108,-40.4453 L -4.71066,-40.1044 L -4.59424,-39.7461
 L -4.52365,-39.376 L -4.5,-39 L -4.52365,-38.624 L -4.59424,-38.2539 L -4.71066,-37.8956 L -4.87108,-37.5547
 L -5.07294,-37.2366 L -5.31308,-36.9464 L -5.58772,-36.6885 L -5.89252,-36.467 L -6.22266,-36.2855 L -6.57294,-36.1468
 L -6.93785,-36.0531 L -7.31161,-36.0059 z
M 22.3116,-36.0059 L 21.9379,-36.0531 L 21.5729,-36.1468 L 21.2227,-36.2855 L 20.8925,-36.467 L 20.5877,-36.6885
 L 20.3131,-36.9464 L 20.0729,-37.2366 L 19.8711,-37.5547 L 19.7107,-37.8956 L 19.5942,-38.2539 L 19.5237,-38.624
 L 19.5,-39 L 19.5237,-39.376 L 19.5942,-39.7461 L 19.7107,-40.1044 L 19.8711,-40.4453 L 20.0729,-40.7634
 L 20.3131,-41.0536 L 20.5877,-41.3116 L 20.8925,-41.533 L 21.2227,-41.7145 L 21.5729,-41.8532 L 21.9379,-41.9469
 L 22.3116,-41.9941 L 22.6884,-41.9941 L 23.0621,-41.9469 L 23.427,-41.8532 L 23.7773,-41.7145 L 24.1075,-41.533
 L 24.4123,-41.3116 L 24.6869,-41.0536 L 24.927,-40.7634 L 25.1289,-40.4453 L 25.2893,-40.1044 L 25.4057,-39.7461
 L 25.4763,-39.376 L 25.5,-39 L 25.4763,-38.624 L 25.4057,-38.2539 L 25.2893,-37.8956 L 25.1289,-37.5547
 L 24.927,-37.2366 L 24.6869,-36.9464 L 24.4123,-36.6885 L 24.1075,-36.467 L 23.7773,-36.2855 L 23.427,-36.1468
 L 23.0621,-36.0531 L 22.6884,-36.0059 z
M -15.0942,-37.503 L -15.2811,-37.5266 L -15.4635,-37.5734 L -15.6387,-37.6428 L -15.8037,-37.7335 L -15.9561,-37.8442
 L -16.0934,-37.9732 L -16.2135,-38.1183 L -16.3145,-38.2774 L -16.3947,-38.4478 L -16.4529,-38.627 L -16.4882,-38.812
 L -16.5,-39 L -16.4882,-39.188 L -16.4529,-39.373 L -16.3947,-39.5522 L -16.3145,-39.7226 L -16.2135,-39.8817
 L -16.0934,-40.0268 L -15.9561,-40.1558 L -15.8037,-40.2665 L -15.6387,-40.3573 L -15.4635,-40.4266 L -15.2811,-40.4734
 L -15.0942,-40.4971 L -14.9058,-40.4971 L -14.7189,-40.4734 L -14.5365,-40.4266 L -14.3613,-40.3573 L -14.1963,-40.2665
 L -14.0439,-40.1558 L -13.9065,-40.0268 L -13.7865,-39.8817 L -13.6855,-39.7226 L -13.6053,-39.5522 L -13.5471,-39.373
 L -13.5118,-39.188 L -13.5,-39 L -13.5118,-38.812 L -13.5471,-38.627 L -13.6053,-38.4478 L -13.6855,-38.2774
 L -13.7865,-38.1183 L -13.9065,-37.9732 L -14.0439,-37.8442 L -14.1963,-37.7335 L -14.3613,-37.6428 L -14.5365,-37.5734
 L -14.7189,-37.5266 L -14.9058,-37.503 z
M 29.9058,-37.503 L 29.7189,-37.5266 L 29.5365,-37.5734 L 29.3613,-37.6428 L 29.1963,-37.7335 L 29.0439,-37.8442
 L 28.9065,-37.9732 L 28.7865,-38.1183 L 28.6855,-38.2774 L 28.6053,-38.4478 L 28.5471,-38.627 L 28.5118,-38.812
 L 28.5,-39 L 28.5118,-39.188 L 28.5471,-39.373 L 28.6053,-39.5522 L 28.6855,-39.7226 L 28.7865,-39.8817
 L 28.9065,-40.0268 L 29.0439,-40.1558 L 29.1963,-40.2665 L 29.3613,-40.3573 L 29.5365,-40.4266 L 29.7189,-40.4734
 L 29.9058,-40.4971 L 30.0942,-40.4971 L 30.2811,-40.4734 L 30.4635,-40.4266 L 30.6387,-40.3573 L 30.8037,-40.2665
 L 30.9561,-40.1558 L 31.0934,-40.0268 L 31.2135,-39.8817 L 31.3145,-39.7226 L 31.3947,-39.5522 L 31.4529,-39.373
 L 31.4882,-39.188 L 31.5,-39 L 31.4882,-38.812 L 31.4529,-38.627 L 31.3947,-38.4478 L 31.3145,-38.2774
 L 31.2135,-38.1183 L 31.0934,-37.9732 L 30.9561,-37.8442 L 30.8037,-37.7335 L 30.6387,-37.6428 L 30.4635,-37.5734
 L 30.2811,-37.5266 L 30.0942,-37.503 z
M -45.0942,-37.503 L -45.2811,-37.5266 L -45.4635,-37.5734 L -45.6387,-37.6428 L -45.8037,-37.7335 L -45.9561,-37.8442
 L -46.0934,-37.9732 L -46.2135,-38.1183 L -46.3145,-38.2774 L -46.3947,-38.4478 L -46.4529,-38.627 L -46.4882,-38.812
 L -46.5,-39 L -46.4882,-39.188 L -46.4529,-39.373 L -46.3947,-39.5522 L -46.3145,-39.7226 L -46.2135,-39.8817
 L -46.0934,-40.0268 L -45.9561,-40.1558 L -45.8037,-40.2665 L -45.6387,-40.3573 L -45.4635,-40.4266 L -45.2811,-40.4734
 L -45.0942,-40.4971 L -44.9058,-40.4971 L -44.7189,-40.4734 L -44.5365,-40.4266 L -44.3613,-40.3573 L -44.1963,-40.2665
 L -44.0439,-40.1558 L -43.9065,-40.0268 L -43.7865,-39.8817 L -43.6855,-39.7226 L -43.6053,-39.5522 L -43.5471,-39.373
 L -43.5118,-39.188 L -43.5,-39 L -43.5118,-38.812 L -43.5471,-38.627 L -43.6053,-38.4478 L -43.6855,-38.2774
 L -43.7865,-38.1183 L -43.9065,-37.9732 L -44.0439,-37.8442 L -44.1963,-37.7335 L -44.3613,-37.6428 L -44.5365,-37.5734
 L -44.7189,-37.5266 L -44.9058,-37.503 z
M -0.0941772,-37.503 L -0.281067,-37.5266 L -0.463516,-37.5734 L -0.638657,-37.6428 L -0.803726,-37.7335 L -0.956131,-37.8442
 L -1.09344,-37.9732 L -1.21352,-38.1183 L -1.31445,-38.2774 L -1.39465,-38.4478 L -1.45287,-38.627 L -1.48816,-38.812
 L -1.5,-39 L -1.48816,-39.188 L -1.45287,-39.373 L -1.39465,-39.5522 L -1.31445,-39.7226 L -1.21352,-39.8817
 L -1.09344,-40.0268 L -0.956131,-40.1558 L -0.803726,-40.2665 L -0.638657,-40.3573 L -0.463516,-40.4266 L -0.281067,-40.4734
 L -0.0941772,-40.4971 L 0.0941772,-40.4971 L 0.281067,-40.4734 L 0.463516,-40.4266 L 0.638657,-40.3573 L 0.803726,-40.2665
 L 0.956131,-40.1558 L 1.09344,-40.0268 L 1.21352,-39.8817 L 1.31445,-39.7226 L 1.39465,-39.5522 L 1.45287,-39.373
 L 1.48816,-39.188 L 1.5,-39 L 1.48816,-38.812 L 1.45287,-38.627 L 1.39465,-38.4478 L 1.31445,-38.2774
 L 1.21352,-38.1183 L 1.09344,-37.9732 L 0.956131,-37.8442 L 0.803726,-37.7335 L 0.638657,-37.6428 L 0.463516,-37.5734
 L 0.281067,-37.5266 L 0.0941772,-37.503 z
M 14.9058,-37.503 L 14.7189,-37.5266 L 14.5365,-37.5734 L 14.3613,-37.6428 L 14.1963,-37.7335 L 14.0439,-37.8442
 L 13.9065,-37.9732 L 13.7865,-38.1183 L 13.6855,-38.2774 L 13.6053,-38.4478 L 13.5471,-38.627 L 13.5118,-38.812
 L 13.5,-39 L 13.5118,-39.188 L 13.5471,-39.373 L 13.6053,-39.5522 L 13.6855,-39.7226 L 13.7865,-39.8817
 L 13.9065,-40.0268 L 14.0439,-40.1558 L 14.1963,-40.2665 L 14.3613,-40.3573 L 14.5365,-40.4266 L 14.7189,-40.4734
 L 14.9058,-40.4971 L 15.0942,-40.4971 L 15.2811,-40.4734 L 15.4635,-40.4266 L 15.6387,-40.3573 L 15.8037,-40.2665
 L 15.9561,-40.1558 L 16.0934,-40.0268 L 16.2135,-39.8817 L 16.3145,-39.7226 L 16.3947,-39.5522 L 16.4529,-39.373
 L 16.4882,-39.188 L 16.5,-39 L 16.4882,-38.812 L 16.4529,-38.627 L 16.3947,-38.4478 L 16.3145,-38.2774
 L 16.2135,-38.1183 L 16.0934,-37.9732 L 15.9561,-37.8442 L 15.8037,-37.7335 L 15.6387,-37.6428 L 15.4635,-37.5734
 L 15.2811,-37.5266 L 15.0942,-37.503 z
M -30.0942,-37.503 L -30.2811,-37.5266 L -30.4635,-37.5734 L -30.6387,-37.6428 L -30.8037,-37.7335 L -30.9561,-37.8442
 L -31.0934,-37.9732 L -31.2135,-38.1183 L -31.3145,-38.2774 L -31.3947,-38.4478 L -31.4529,-38.627 L -31.4882,-38.812
 L -31.5,-39 L -31.4882,-39.188 L -31.4529,-39.373 L -31.3947,-39.5522 L -31.3145,-39.7226 L -31.2135,-39.8817
 L -31.0934,-40.0268 L -30.9561,-40.1558 L -30.8037,-40.2665 L -30.6387,-40.3573 L -30.4635,-40.4266 L -30.2811,-40.4734
 L -30.0942,-40.4971 L -29.9058,-40.4971 L -29.7189,-40.4734 L -29.5365,-40.4266 L -29.3613,-40.3573 L -29.1963,-40.2665
 L -29.0439,-40.1558 L -28.9065,-40.0268 L -28.7865,-39.8817 L -28.6855,-39.7226 L -28.6053,-39.5522 L -28.5471,-39.373
 L -28.5118,-39.188 L -28.5,-39 L -28.5118,-38.812 L -28.5471,-38.627 L -28.6053,-38.4478 L -28.6855,-38.2774
 L -28.7865,-38.1183 L -28.9065,-37.9732 L -29.0439,-37.8442 L -29.1963,-37.7335 L -29.3613,-37.6428 L -29.5365,-37.5734
 L -29.7189,-37.5266 L -29.9058,-37.503 z
M 44.9058,-37.503 L 44.7189,-37.5266 L 44.5365,-37.5734 L 44.3613,-37.6428 L 44.1963,-37.7335 L 44.0439,-37.8442
 L 43.9065,-37.9732 L 43.7865,-38.1183 L 43.6855,-38.2774 L 43.6053,-38.4478 L 43.5471,-38.627 L 43.5118,-38.812
 L 43.5,-39 L 43.5118,-39.188 L 43.5471,-39.373 L 43.6053,-39.5522 L 43.6855,-39.7226 L 43.7865,-39.8817
 L 43.9065,-40.0268 L 44.0439,-40.1558 L 44.1963,-40.2665 L 44.3613,-40.3573 L 44.5365,-40.4266 L 44.7189,-40.4734
 L 44.9058,-40.4971 L 45.0942,-40.4971 L 45.2811,-40.4734 L 45.4635,-40.4266 L 45.6387,-40.3573 L 45.8037,-40.2665
 L 45.9561,-40.1558 L 46.0934,-40.0268 L 46.2135,-39.8817 L 46.3145,-39.7226 L 46.3947,-39.5522 L 46.4529,-39.373
 L 46.4882,-39.188 L 46.5,-39 L 46.4882,-38.812 L 46.4529,-38.627 L 46.3947,-38.4478 L 46.3145,-38.2774
 L 46.2135,-38.1183 L 46.0934,-37.9732 L 45.9561,-37.8442 L 45.8037,-37.7335 L 45.6387,-37.6428 L 45.4635,-37.5734
 L 45.2811,-37.5266 L 45.0942,-37.503 z
" stroke="black" fill="lightgray" stroke-width="0.5"/>
</svg>
