<?xml version="1.0" standalone="no"?>
<!DOCTYPE svg PUBLIC "-//W3C//DTD SVG 1.1//EN" "http://www.w3.org/Graphics/SVG/1.1/DTD/svg11.dtd">
<svg width="330mm" height="120mm" viewBox="-165 -60 330 120" xmlns="http://www.w3.org/2000/svg" version="1.1">
<title>OpenSCAD Model</title>
<path d="
M 160.437,59.4114 L 161.045,59.2553 L 161.629,59.0241 L 162.179,58.7216 L 162.687,58.3526 L 163.145,57.9227
 L 163.545,57.4389 L 163.882,56.9088 L 164.149,56.3406 L 164.343,55.7434 L 164.461,55.1267 L 164.5,54.5
 L 164.5,-54.5 L 164.461,-55.1267 L 164.343,-55.7434 L 164.149,-56.3406 L 163.882,-56.9088 L 163.545,-57.4389
 L 163.145,-57.9227 L 162.687,-58.3526 L 162.179,-58.7216 L 161.629,-59.0241 L 161.045,-59.2553 L 160.437,-59.4114
 L 159.814,-59.4901 L -159.814,-59.4901 L -160.437,-59.4114 L -161.045,-59.2553 L -161.629,-59.0241 L -162.179,-58.7216
 L -162.687,-58.3526 L -163.145,-57.9227 L -163.545,-57.4389 L -163.882,-56.9088 L -164.149,-56.3406 L -164.343,-55.7434
 L -164.461,-55.1267 L -164.5,-54.5 L -164.5,54.5 L -164.461,55.1267 L -164.343,55.7434 L -164.149,56.3406
 L -163.882,56.9088 L -163.545,57.4389 L -163.145,57.9227 L -162.687,58.3526 L -162.179,58.7216 L -161.629,59.0241
 L -161.045,59.2553 L -160.437,59.4114 L -159.814,59.4901 L 159.814,59.4901 z
M -157.688,-49.5059 L -158.062,-49.5531 L -158.427,-49.6468 L -158.777,-49.7855 L -159.107,-49.967 L -159.412,-50.1885
 L -159.687,-50.4464 L -159.927,-50.7366 L -160.129,-51.0547 L -160.289,-51.3956 L -160.406,-51.7539 L -160.476,-52.124
 L -160.5,-52.5 L -160.476,-52.876 L -160.406,-53.2461 L -160.289,-53.6044 L -160.129,-53.9453 L -159.927,-54.2634
 L -159.687,-54.5536 L -159.412,-54.8115 L -159.107,-55.033 L -158.777,-55.2145 L -158.427,-55.3532 L -158.062,-55.4469
 L -157.688,-55.4941 L -157.312,-55.4941 L -156.938,-55.4469 L -156.573,-55.3532 L -156.223,-55.2145 L -155.893,-55.033
 L -155.588,-54.8115 L -155.313,-54.5536 L -155.073,-54.2634 L -154.871,-53.9453 L -154.711,-53.6044 L -154.594,-53.2461
 L -154.524,-52.876 L -154.5,-52.5 L -154.524,-52.124 L -154.594,-51.7539 L -154.711,-51.3956 L -154.871,-51.0547
 L -155.073,-50.7366 L -155.313,-50.4464 L -155.588,-50.1885 L -155.893,-49.967 L -156.223,-49.7855 L -156.573,-49.6468
 L -156.938,-49.5531 L -157.312,-49.5059 z
M 157.312,-49.5059 L 156.938,-49.5531 L 156.573,-49.6468 L 156.223,-49.7855 L 155.893,-49.967 L 155.588,-50.1885
 L 155.313,-50.4464 L 155.073,-50.7366 L 154.871,-51.0547 L 154.711,-51.3956 L 154.594,-51.7539 L 154.524,-52.124
 L 154.5,-52.5 L 154.524,-52.876 L 154.594,-53.2461 L 154.711,-53.6044 L 154.871,-53.9453 L 155.073,-54.2634
 L 155.313,-54.5536 L 155.588,-54.8115 L 155.893,-55.033 L 156.223,-55.2145 L 156.573,-55.3532 L 156.938,-55.4469
 L 157.312,-55.4941 L 157.688,-55.4941 L 158.062,-55.4469 L 158.427,-55.3532 L 158.777,-55.2145 L 159.107,-55.033
 L 159.412,-54.8115 L 159.687,-54.5536 L 159.927,-54.2634 L 160.129,-53.9453 L 160.289,-53.6044 L 160.406,-53.2461
 L 160.476,-52.876 L 160.5,-52.5 L 160.476,-52.124 L 160.406,-51.7539 L 160.289,-51.3956 L 160.129,-51.0547
 L 159.927,-50.7366 L 159.687,-50.4464 L 159.412,-50.1885 L 159.107,-49.967 L 158.777,-49.7855 L 158.427,-49.6468
 L 158.062,-49.5531 L 157.688,-49.5059 z
M 101.86,49.9013 L 95.6309,49.1143 L 89.5491,47.5528 L 83.711,45.2413 L 78.2087,42.2164 L 73.1288,38.5257
 L 68.5516,34.2274 L 64.5491,29.3893 L 61.1847,24.0877 L 58.5112,18.4062 L 56.5708,12.4345 L 55.3943,6.26665
 L 55,-0 L 55.3943,-6.26665 L 56.5708,-12.4345 L 58.5112,-18.4062 L 61.1847,-24.0877 L 64.5491,-29.3893
 L 68.5516,-34.2274 L 73.1288,-38.5257 L 78.2087,-42.2164 L 83.711,-45.2413 L 89.5491,-47.5528 L 95.6309,-49.1143
 L 101.86,-49.9013 L 108.14,-49.9013 L 114.369,-49.1143 L 120.451,-47.5528 L 126.289,-45.2413 L 131.791,-42.2164
 L 136.871,-38.5257 L 141.448,-34.2274 L 145.451,-29.3893 L 148.815,-24.0877 L 151.489,-18.4062 L 153.429,-12.4345
 L 154.606,-6.26665 L 155,-0 L 154.606,6.26665 L 153.429,12.4345 L 151.489,18.4062 L 148.815,24.0877
 L 145.451,29.3893 L 141.448,34.2274 L 136.871,38.5257 L 131.791,42.2164 L 126.289,45.2413 L 120.451,47.5528
 L 114.369,49.1143 L 108.14,49.9013 z
M -108.14,49.9013 L -114.369,49.1143 L -120.451,47.5528 L -126.289,45.2413 L -131.791,42.2164 L -136.871,38.5257
 L -141.448,34.2274 L -145.451,29.3893 L -148.815,24.0877 L -151.489,18.4062 L -153.429,12.4345 L -154.606,6.26665
 L -155,-0 L -154.606,-6.26665 L -153.429,-12.4345 L -151.489,-18.4062 L -148.815,-24.0877 L -145.451,-29.3893
 L -141.448,-34.2274 L -136.871,-38.5257 L -131.791,-42.2164 L -126.289,-45.2413 L -120.451,-47.5528 L -114.369,-49.1143
 L -108.14,-49.9013 L -101.86,-49.9013 L -95.6309,-49.1143 L -89.5491,-47.5528 L -83.711,-45.2413 L -78.2087,-42.2164
 L -73.1288,-38.5257 L -68.5516,-34.2274 L -64.5491,-29.3893 L -61.1847,-24.0877 L -58.5112,-18.4062 L -56.5708,-12.4345
 L -55.3943,-6.26665 L -55,-0 L -55.3943,6.26665 L -56.5708,12.4345 L -58.5112,18.4062 L -61.1847,24.0877
 L -64.5491,29.3893 L -68.5516,34.2274 L -73.1288,38.5257 L -78.2087,42.2164 L -83.711,45.2413 L -89.5491,47.5528
 L -95.6309,49.1143 L -101.86,49.9013 z
M -3.13951,49.9013 L -9.36906,49.1143 L -15.4508,47.5528 L -21.289,45.2413 L -26.7913,42.2164 L -31.8712,38.5257
 L -36.4484,34.2274 L -40.4509,29.3893 L -43.8153,24.0877 L -46.4888,18.4062 L -48.4292,12.4345 L -49.6057,6.26665
 L -50,-0 L -49.6057,-6.26665 L -48.4292,-12.4345 L -46.4888,-18.4062 L -43.8153,-24.0877 L -40.4509,-29.3893
 L -36.4484,-34.2274 L -31.8712,-38.5257 L -26.7913,-42.2164 L -21.289,-45.2413 L -15.4508,-47.5528 L -9.36906,-49.1143
 L -3.13951,-49.9013 L 3.13951,-49.9013 L 9.36906,-49.1143 L 15.4508,-47.5528 L 21.289,-45.2413 L 26.7913,-42.2164
 L 31.8712,-38.5257 L 36.4484,-34.2274 L 40.4509,-29.3893 L 43.8153,-24.0877 L 46.4888,-18.4062 L 48.4292,-12.4345
 L 49.6057,-6.26665 L 50,-0 L 49.6057,6.26665 L 48.4292,12.4345 L 46.4888,18.4062 L 43.8153,24.0877
 L 40.4509,29.3893 L 36.4484,34.2274 L 31.8712,38.5257 L 26.7913,42.2164 L 21.289,45.2413 L 15.4508,47.5528
 L 9.36906,49.1143 L 3.13951,49.9013 z
M -157.688,55.4941 L -158.062,55.4469 L -158.427,55.3532 L -158.777,55.2145 L -159.107,55.033 L -159.412,54.8115
 L -159.687,54.5536 L -159.927,54.2634 L -160.129,53.9453 L -160.289,53.6044 L -160.406,53.2461 L -160.476,52.876
 L -160.5,52.5 L -160.476,52.124 L -160.406,51.7539 L -160.289,51.3956 L -160.129,51.0547 L -159.927,50.7366
 L -159.687,50.4464 L -159.412,50.1885 L -159.107,49.967 L -158.777,49.7855 L -158.427,49.6468 L -158.062,49.5531
 L -157.688,49.5059 L -157.312,49.5059 L -156.938,49.5531 L -156.573,49.6468 L -156.223,49.7855 L -155.893,49.967
 L -155.588,50.1885 L -155.313,50.4464 L -155.073,50.7366 L -154.871,51.0547 L -154.711,51.3956 L -154.594,51.7539
 L -154.524,52.124 L -154.5,52.5 L -154.524,52.876 L -154.594,53.2461 L -154.711,53.6044 L -154.871,53.9453
 L -155.073,54.2634 L -155.313,54.5536 L -155.588,54.8115 L -155.893,55.033 L -156.223,55.2145 L -156.573,55.3532
 L -156.938,55.4469 L -157.312,55.4941 z
M 157.312,55.4941 L 156.938,55.4469 L 156.573,55.3532 L 156.223,55.2145 L 155.893,55.033 L 155.588,54.8115
 L 155.313,54.5536 L 155.073,54.2634 L 154.871,53.9453 L 154.711,53.6044 L 154.594,53.2461 L 154.524,52.876
 L 154.5,52.5 L 154.524,52.124 L 154.594,51.7539 L 154.711,51.3956 L 154.871,51.0547 L 155.073,50.7366
 L 155.313,50.4464 L 155.588,50.1885 L 155.893,49.967 L 156.223,49.7855 L 156.573,49.6468 L 156.938,49.5531
 L 157.312,49.5059 L 157.688,49.5059 L 158.062,49.5531 L 158.427,49.6468 L 158.777,49.7855 L 159.107,49.967
 L 159.412,50.1885 L 159.687,50.4464 L 159.927,50.7366 L 160.129,51.0547 L 160.289,51.3956 L 160.406,51.7539
 L 160.476,52.124 L 160.5,52.5 L 160.476,52.876 L 160.406,53.2461 L 160.289,53.6044 L 160.129,53.9453
 L 159.927,54.2634 L 159.687,54.5536 L 159.412,54.8115 L 159.107,55.033 L 158.777,55.2145 L 158.427,55.3532
 L 158.062,55.4469 L 157.688,55.4941 z
" stroke="black" fill="lightgray" stroke-width="0.5"/>
</svg>
