  0
SECTION
  2
BLOCKS
  0
ENDSEC
  0
SECTION
  2
ENTITIES
  0
LINE
  8
0
 10
25.4369
 20
32.0886
 11
26.0451
 21
32.2447
  0
LINE
  8
0
 10
26.0451
 20
32.2447
 11
26.6289
 21
32.4759
  0
LINE
  8
0
 10
26.6289
 20
32.4759
 11
27.1791
 21
32.7784
  0
LINE
  8
0
 10
27.1791
 20
32.7784
 11
27.6871
 21
33.1474
  0
LINE
  8
0
 10
27.6871
 20
33.1474
 11
28.1448
 21
33.5773
  0
LINE
  8
0
 10
28.1448
 20
33.5773
 11
28.5451
 21
34.0611
  0
LINE
  8
0
 10
28.5451
 20
34.0611
 11
28.8815
 21
34.5912
  0
LINE
  8
0
 10
28.8815
 20
34.5912
 11
29.1489
 21
35.1594
  0
LINE
  8
0
 10
29.1489
 20
35.1594
 11
29.3429
 21
35.7566
  0
LINE
  8
0
 10
29.3429
 20
35.7566
 11
29.4606
 21
36.3733
  0
LINE
  8
0
 10
29.4606
 20
36.3733
 11
29.5
 21
37
  0
LINE
  8
0
 10
29.5
 20
37
 11
29.5
 21
71
  0
LINE
  8
0
 10
29.5
 20
71
 11
29.4606
 21
71.6267
  0
LINE
  8
0
 10
29.4606
 20
71.6267
 11
29.3429
 21
72.2434
  0
LINE
  8
0
 10
29.3429
 20
72.2434
 11
29.1489
 21
72.8406
  0
LINE
  8
0
 10
29.1489
 20
72.8406
 11
28.8815
 21
73.4088
  0
LINE
  8
0
 10
28.8815
 20
73.4088
 11
28.5451
 21
73.9389
  0
LINE
  8
0
 10
28.5451
 20
73.9389
 11
28.1448
 21
74.4227
  0
LINE
  8
0
 10
28.1448
 20
74.4227
 11
27.6871
 21
74.8526
  0
LINE
  8
0
 10
27.6871
 20
74.8526
 11
27.1791
 21
75.2216
  0
LINE
  8
0
 10
27.1791
 20
75.2216
 11
26.6289
 21
75.5241
  0
LINE
  8
0
 10
26.6289
 20
75.5241
 11
26.0451
 21
75.7553
  0
LINE
  8
0
 10
26.0451
 20
75.7553
 11
25.4369
 21
75.9114
  0
LINE
  8
0
 10
25.4369
 20
75.9114
 11
24.8139
 21
75.9901
  0
LINE
  8
0
 10
24.8139
 20
75.9901
 11
-24.8139
 21
75.9901
  0
LINE
  8
0
 10
-24.8139
 20
75.9901
 11
-25.4369
 21
75.9114
  0
LINE
  8
0
 10
-25.4369
 20
75.9114
 11
-26.0451
 21
75.7553
  0
LINE
  8
0
 10
-26.0451
 20
75.7553
 11
-26.6289
 21
75.5241
  0
LINE
  8
0
 10
-26.6289
 20
75.5241
 11
-27.1791
 21
75.2216
  0
LINE
  8
0
 10
-27.1791
 20
75.2216
 11
-27.6871
 21
74.8526
  0
LINE
  8
0
 10
-27.6871
 20
74.8526
 11
-28.1448
 21
74.4227
  0
LINE
  8
0
 10
-28.1448
 20
74.4227
 11
-28.5451
 21
73.9389
  0
LINE
  8
0
 10
-28.5451
 20
73.9389
 11
-28.8815
 21
73.4088
  0
LINE
  8
0
 10
-28.8815
 20
73.4088
 11
-29.1489
 21
72.8406
  0
LINE
  8
0
 10
-29.1489
 20
72.8406
 11
-29.3429
 21
72.2434
  0
LINE
  8
0
 10
-29.3429
 20
72.2434
 11
-29.4606
 21
71.6267
  0
LINE
  8
0
 10
-29.4606
 20
71.6267
 11
-29.5
 21
71
  0
LINE
  8
0
 10
-29.5
 20
71
 11
-29.5
 21
37
  0
LINE
  8
0
 10
-29.5
 20
37
 11
-29.4606
 21
36.3733
  0
LINE
  8
0
 10
-29.4606
 20
36.3733
 11
-29.3429
 21
35.7566
  0
LINE
  8
0
 10
-29.3429
 20
35.7566
 11
-29.1489
 21
35.1594
  0
LINE
  8
0
 10
-29.1489
 20
35.1594
 11
-28.8815
 21
34.5912
  0
LINE
  8
0
 10
-28.8815
 20
34.5912
 11
-28.5451
 21
34.0611
  0
LINE
  8
0
 10
-28.5451
 20
34.0611
 11
-28.1448
 21
33.5773
  0
LINE
  8
0
 10
-28.1448
 20
33.5773
 11
-27.6871
 21
33.1474
  0
LINE
  8
0
 10
-27.6871
 20
33.1474
 11
-27.1791
 21
32.7784
  0
LINE
  8
0
 10
-27.1791
 20
32.7784
 11
-26.6289
 21
32.4759
  0
LINE
  8
0
 10
-26.6289
 20
32.4759
 11
-26.0451
 21
32.2447
  0
LINE
  8
0
 10
-26.0451
 20
32.2447
 11
-25.4369
 21
32.0886
  0
LINE
  8
0
 10
-25.4369
 20
32.0886
 11
-24.8139
 21
32.0099
  0
LINE
  8
0
 10
-24.8139
 20
32.0099
 11
24.8139
 21
32.0099
  0
LINE
  8
0
 10
24.8139
 20
32.0099
 11
25.4369
 21
32.0886
  0
LINE
  8
0
 10
-7.68837
 20
66.0059
 11
-8.06213
 21
66.0531
  0
LINE
  8
0
 10
-8.06213
 20
66.0531
 11
-8.42705
 21
66.1468
  0
LINE
  8
0
 10
-8.42705
 20
66.1468
 11
-8.77733
 21
66.2855
  0
LINE
  8
0
 10
-8.77733
 20
66.2855
 11
-9.10747
 21
66.467
  0
LINE
  8
0
 10
-9.10747
 20
66.467
 11
-9.41226
 21
66.6884
  0
LINE
  8
0
 10
-9.41226
 20
66.6884
 11
-9.6869
 21
66.9464
  0
LINE
  8
0
 10
-9.6869
 20
66.9464
 11
-9.92705
 21
67.2366
  0
LINE
  8
0
 10
-9.92705
 20
67.2366
 11
-10.1289
 21
67.5547
  0
LINE
  8
0
 10
-10.1289
 20
67.5547
 11
-10.2893
 21
67.8956
  0
LINE
  8
0
 10
-10.2893
 20
67.8956
 11
-10.4057
 21
68.2539
  0
LINE
  8
0
 10
-10.4057
 20
68.2539
 11
-10.4763
 21
68.624
  0
LINE
  8
0
 10
-10.4763
 20
68.624
 11
-10.5
 21
69
  0
LINE
  8
0
 10
-10.5
 20
69
 11
-10.4763
 21
69.376
  0
LINE
  8
0
 10
-10.4763
 20
69.376
 11
-10.4057
 21
69.7461
  0
LINE
  8
0
 10
-10.4057
 20
69.7461
 11
-10.2893
 21
70.1044
  0
LINE
  8
0
 10
-10.2893
 20
70.1044
 11
-10.1289
 21
70.4453
  0
LINE
  8
0
 10
-10.1289
 20
70.4453
 11
-9.92705
 21
70.7634
  0
LINE
  8
0
 10
-9.92705
 20
70.7634
 11
-9.6869
 21
71.0536
  0
LINE
  8
0
 10
-9.6869
 20
71.0536
 11
-9.41226
 21
71.3115
  0
LINE
  8
0
 10
-9.41226
 20
71.3115
 11
-9.10747
 21
71.533
  0
LINE
  8
0
 10
-9.10747
 20
71.533
 11
-8.77733
 21
71.7145
  0
LINE
  8
0
 10
-8.77733
 20
71.7145
 11
-8.42705
 21
71.8532
  0
LINE
  8
0
 10
-8.42705
 20
71.8532
 11
-8.06213
 21
71.9469
  0
LINE
  8
0
 10
-8.06213
 20
71.9469
 11
-7.68837
 21
71.9941
  0
LINE
  8
0
 10
-7.68837
 20
71.9941
 11
-7.31161
 21
71.9941
  0
LINE
  8
0
 10
-7.31161
 20
71.9941
 11
-6.93785
 21
71.9469
  0
LINE
  8
0
 10
-6.93785
 20
71.9469
 11
-6.57294
 21
71.8532
  0
LINE
  8
0
 10
-6.57294
 20
71.8532
 11
-6.22266
 21
71.7145
  0
LINE
  8
0
 10
-6.22266
 20
71.7145
 11
-5.89252
 21
71.533
  0
LINE
  8
0
 10
-5.89252
 20
71.533
 11
-5.58772
 21
71.3115
  0
LINE
  8
0
 10
-5.58772
 20
71.3115
 11
-5.31308
 21
71.0536
  0
LINE
  8
0
 10
-5.31308
 20
71.0536
 11
-5.07294
 21
70.7634
  0
LINE
  8
0
 10
-5.07294
 20
70.7634
 11
-4.87108
 21
70.4453
  0
LINE
  8
0
 10
-4.87108
 20
70.4453
 11
-4.71066
 21
70.1044
  0
LINE
  8
0
 10
-4.71066
 20
70.1044
 11
-4.59424
 21
69.7461
  0
LINE
  8
0
 10
-4.59424
 20
69.7461
 11
-4.52365
 21
69.376
  0
LINE
  8
0
 10
-4.52365
 20
69.376
 11
-4.5
 21
69
  0
LINE
  8
0
 10
-4.5
 20
69
 11
-4.52365
 21
68.624
  0
LINE
  8
0
 10
-4.52365
 20
68.624
 11
-4.59424
 21
68.2539
  0
LINE
  8
0
 10
-4.59424
 20
68.2539
 11
-4.71066
 21
67.8956
  0
LINE
  8
0
 10
-4.71066
 20
67.8956
 11
-4.87108
 21
67.5547
  0
LINE
  8
0
 10
-4.87108
 20
67.5547
 11
-5.07294
 21
67.2366
  0
LINE
  8
0
 10
-5.07294
 20
67.2366
 11
-5.31308
 21
66.9464
  0
LINE
  8
0
 10
-5.31308
 20
66.9464
 11
-5.58772
 21
66.6884
  0
LINE
  8
0
 10
-5.58772
 20
66.6884
 11
-5.89252
 21
66.467
  0
LINE
  8
0
 10
-5.89252
 20
66.467
 11
-6.22266
 21
66.2855
  0
LINE
  8
0
 10
-6.22266
 20
66.2855
 11
-6.57294
 21
66.1468
  0
LINE
  8
0
 10
-6.57294
 20
66.1468
 11
-6.93785
 21
66.0531
  0
LINE
  8
0
 10
-6.93785
 20
66.0531
 11
-7.31161
 21
66.0059
  0
LINE
  8
0
 10
-7.31161
 20
66.0059
 11
-7.68837
 21
66.0059
  0
LINE
  8
0
 10
-22.6884
 20
66.0059
 11
-23.0621
 21
66.0531
  0
LINE
  8
0
 10
-23.0621
 20
66.0531
 11
-23.427
 21
66.1468
  0
LINE
  8
0
 10
-23.427
 20
66.1468
 11
-23.7773
 21
66.2855
  0
LINE
  8
0
 10
-23.7773
 20
66.2855
 11
-24.1075
 21
66.467
  0
LINE
  8
0
 10
-24.1075
 20
66.467
 11
-24.4123
 21
66.6884
  0
LINE
  8
0
 10
-24.4123
 20
66.6884
 11
-24.6869
 21
66.9464
  0
LINE
  8
0
 10
-24.6869
 20
66.9464
 11
-24.927
 21
67.2366
  0
LINE
  8
0
 10
-24.927
 20
67.2366
 11
-25.1289
 21
67.5547
  0
LINE
  8
0
 10
-25.1289
 20
67.5547
 11
-25.2893
 21
67.8956
  0
LINE
  8
0
 10
-25.2893
 20
67.8956
 11
-25.4057
 21
68.2539
  0
LINE
  8
0
 10
-25.4057
 20
68.2539
 11
-25.4763
 21
68.624
  0
LINE
  8
0
 10
-25.4763
 20
68.624
 11
-25.5
 21
69
  0
LINE
  8
0
 10
-25.5
 20
69
 11
-25.4763
 21
69.376
  0
LINE
  8
0
 10
-25.4763
 20
69.376
 11
-25.4057
 21
69.7461
  0
LINE
  8
0
 10
-25.4057
 20
69.7461
 11
-25.2893
 21
70.1044
  0
LINE
  8
0
 10
-25.2893
 20
70.1044
 11
-25.1289
 21
70.4453
  0
LINE
  8
0
 10
-25.1289
 20
70.4453
 11
-24.927
 21
70.7634
  0
LINE
  8
0
 10
-24.927
 20
70.7634
 11
-24.6869
 21
71.0536
  0
LINE
  8
0
 10
-24.6869
 20
71.0536
 11
-24.4123
 21
71.3115
  0
LINE
  8
0
 10
-24.4123
 20
71.3115
 11
-24.1075
 21
71.533
  0
LINE
  8
0
 10
-24.1075
 20
71.533
 11
-23.7773
 21
71.7145
  0
LINE
  8
0
 10
-23.7773
 20
71.7145
 11
-23.427
 21
71.8532
  0
LINE
  8
0
 10
-23.427
 20
71.8532
 11
-23.0621
 21
71.9469
  0
LINE
  8
0
 10
-23.0621
 20
71.9469
 11
-22.6884
 21
71.9941
  0
LINE
  8
0
 10
-22.6884
 20
71.9941
 11
-22.3116
 21
71.9941
  0
LINE
  8
0
 10
-22.3116
 20
71.9941
 11
-21.9379
 21
71.9469
  0
LINE
  8
0
 10
-21.9379
 20
71.9469
 11
-21.5729
 21
71.8532
  0
LINE
  8
0
 10
-21.5729
 20
71.8532
 11
-21.2227
 21
71.7145
  0
LINE
  8
0
 10
-21.2227
 20
71.7145
 11
-20.8925
 21
71.533
  0
LINE
  8
0
 10
-20.8925
 20
71.533
 11
-20.5877
 21
71.3115
  0
LINE
  8
0
 10
-20.5877
 20
71.3115
 11
-20.3131
 21
71.0536
  0
LINE
  8
0
 10
-20.3131
 20
71.0536
 11
-20.0729
 21
70.7634
  0
LINE
  8
0
 10
-20.0729
 20
70.7634
 11
-19.8711
 21
70.4453
  0
LINE
  8
0
 10
-19.8711
 20
70.4453
 11
-19.7107
 21
70.1044
  0
LINE
  8
0
 10
-19.7107
 20
70.1044
 11
-19.5942
 21
69.7461
  0
LINE
  8
0
 10
-19.5942
 20
69.7461
 11
-19.5237
 21
69.376
  0
LINE
  8
0
 10
-19.5237
 20
69.376
 11
-19.5
 21
69
  0
LINE
  8
0
 10
-19.5
 20
69
 11
-19.5237
 21
68.624
  0
LINE
  8
0
 10
-19.5237
 20
68.624
 11
-19.5942
 21
68.2539
  0
LINE
  8
0
 10
-19.5942
 20
68.2539
 11
-19.7107
 21
67.8956
  0
LINE
  8
0
 10
-19.7107
 20
67.8956
 11
-19.8711
 21
67.5547
  0
LINE
  8
0
 10
-19.8711
 20
67.5547
 11
-20.0729
 21
67.2366
  0
LINE
  8
0
 10
-20.0729
 20
67.2366
 11
-20.3131
 21
66.9464
  0
LINE
  8
0
 10
-20.3131
 20
66.9464
 11
-20.5877
 21
66.6884
  0
LINE
  8
0
 10
-20.5877
 20
66.6884
 11
-20.8925
 21
66.467
  0
LINE
  8
0
 10
-20.8925
 20
66.467
 11
-21.2227
 21
66.2855
  0
LINE
  8
0
 10
-21.2227
 20
66.2855
 11
-21.5729
 21
66.1468
  0
LINE
  8
0
 10
-21.5729
 20
66.1468
 11
-21.9379
 21
66.0531
  0
LINE
  8
0
 10
-21.9379
 20
66.0531
 11
-22.3116
 21
66.0059
  0
LINE
  8
0
 10
-22.3116
 20
66.0059
 11
-22.6884
 21
66.0059
  0
LINE
  8
0
 10
22.3116
 20
66.0059
 11
21.9379
 21
66.0531
  0
LINE
  8
0
 10
21.9379
 20
66.0531
 11
21.5729
 21
66.1468
  0
LINE
  8
0
 10
21.5729
 20
66.1468
 11
21.2227
 21
66.2855
  0
LINE
  8
0
 10
21.2227
 20
66.2855
 11
20.8925
 21
66.467
  0
LINE
  8
0
 10
20.8925
 20
66.467
 11
20.5877
 21
66.6884
  0
LINE
  8
0
 10
20.5877
 20
66.6884
 11
20.3131
 21
66.9464
  0
LINE
  8
0
 10
20.3131
 20
66.9464
 11
20.0729
 21
67.2366
  0
LINE
  8
0
 10
20.0729
 20
67.2366
 11
19.8711
 21
67.5547
  0
LINE
  8
0
 10
19.8711
 20
67.5547
 11
19.7107
 21
67.8956
  0
LINE
  8
0
 10
19.7107
 20
67.8956
 11
19.5942
 21
68.2539
  0
LINE
  8
0
 10
19.5942
 20
68.2539
 11
19.5237
 21
68.624
  0
LINE
  8
0
 10
19.5237
 20
68.624
 11
19.5
 21
69
  0
LINE
  8
0
 10
19.5
 20
69
 11
19.5237
 21
69.376
  0
LINE
  8
0
 10
19.5237
 20
69.376
 11
19.5942
 21
69.7461
  0
LINE
  8
0
 10
19.5942
 20
69.7461
 11
19.7107
 21
70.1044
  0
LINE
  8
0
 10
19.7107
 20
70.1044
 11
19.8711
 21
70.4453
  0
LINE
  8
0
 10
19.8711
 20
70.4453
 11
20.0729
 21
70.7634
  0
LINE
  8
0
 10
20.0729
 20
70.7634
 11
20.3131
 21
71.0536
  0
LINE
  8
0
 10
20.3131
 20
71.0536
 11
20.5877
 21
71.3115
  0
LINE
  8
0
 10
20.5877
 20
71.3115
 11
20.8925
 21
71.533
  0
LINE
  8
0
 10
20.8925
 20
71.533
 11
21.2227
 21
71.7145
  0
LINE
  8
0
 10
21.2227
 20
71.7145
 11
21.5729
 21
71.8532
  0
LINE
  8
0
 10
21.5729
 20
71.8532
 11
21.9379
 21
71.9469
  0
LINE
  8
0
 10
21.9379
 20
71.9469
 11
22.3116
 21
71.9941
  0
LINE
  8
0
 10
22.3116
 20
71.9941
 11
22.6884
 21
71.9941
  0
LINE
  8
0
 10
22.6884
 20
71.9941
 11
23.0621
 21
71.9469
  0
LINE
  8
0
 10
23.0621
 20
71.9469
 11
23.427
 21
71.8532
  0
LINE
  8
0
 10
23.427
 20
71.8532
 11
23.7773
 21
71.7145
  0
LINE
  8
0
 10
23.7773
 20
71.7145
 11
24.1075
 21
71.533
  0
LINE
  8
0
 10
24.1075
 20
71.533
 11
24.4123
 21
71.3115
  0
LINE
  8
0
 10
24.4123
 20
71.3115
 11
24.6869
 21
71.0536
  0
LINE
  8
0
 10
24.6869
 20
71.0536
 11
24.927
 21
70.7634
  0
LINE
  8
0
 10
24.927
 20
70.7634
 11
25.1289
 21
70.4453
  0
LINE
  8
0
 10
25.1289
 20
70.4453
 11
25.2893
 21
70.1044
  0
LINE
  8
0
 10
25.2893
 20
70.1044
 11
25.4057
 21
69.7461
  0
LINE
  8
0
 10
25.4057
 20
69.7461
 11
25.4763
 21
69.376
  0
LINE
  8
0
 10
25.4763
 20
69.376
 11
25.5
 21
69
  0
LINE
  8
0
 10
25.5
 20
69
 11
25.4763
 21
68.624
  0
LINE
  8
0
 10
25.4763
 20
68.624
 11
25.4057
 21
68.2539
  0
LINE
  8
0
 10
25.4057
 20
68.2539
 11
25.2893
 21
67.8956
  0
LINE
  8
0
 10
25.2893
 20
67.8956
 11
25.1289
 21
67.5547
  0
LINE
  8
0
 10
25.1289
 20
67.5547
 11
24.927
 21
67.2366
  0
LINE
  8
0
 10
24.927
 20
67.2366
 11
24.6869
 21
66.9464
  0
LINE
  8
0
 10
24.6869
 20
66.9464
 11
24.4123
 21
66.6884
  0
LINE
  8
0
 10
24.4123
 20
66.6884
 11
24.1075
 21
66.467
  0
LINE
  8
0
 10
24.1075
 20
66.467
 11
23.7773
 21
66.2855
  0
LINE
  8
0
 10
23.7773
 20
66.2855
 11
23.427
 21
66.1468
  0
LINE
  8
0
 10
23.427
 20
66.1468
 11
23.0621
 21
66.0531
  0
LINE
  8
0
 10
23.0621
 20
66.0531
 11
22.6884
 21
66.0059
  0
LINE
  8
0
 10
22.6884
 20
66.0059
 11
22.3116
 21
66.0059
  0
LINE
  8
0
 10
7.31161
 20
66.0059
 11
6.93785
 21
66.0531
  0
LINE
  8
0
 10
6.93785
 20
66.0531
 11
6.57294
 21
66.1468
  0
LINE
  8
0
 10
6.57294
 20
66.1468
 11
6.22266
 21
66.2855
  0
LINE
  8
0
 10
6.22266
 20
66.2855
 11
5.89252
 21
66.467
  0
LINE
  8
0
 10
5.89252
 20
66.467
 11
5.58772
 21
66.6884
  0
LINE
  8
0
 10
5.58772
 20
66.6884
 11
5.31308
 21
66.9464
  0
LINE
  8
0
 10
5.31308
 20
66.9464
 11
5.07294
 21
67.2366
  0
LINE
  8
0
 10
5.07294
 20
67.2366
 11
4.87108
 21
67.5547
  0
LINE
  8
0
 10
4.87108
 20
67.5547
 11
4.71066
 21
67.8956
  0
LINE
  8
0
 10
4.71066
 20
67.8956
 11
4.59424
 21
68.2539
  0
LINE
  8
0
 10
4.59424
 20
68.2539
 11
4.52365
 21
68.624
  0
LINE
  8
0
 10
4.52365
 20
68.624
 11
4.5
 21
69
  0
LINE
  8
0
 10
4.5
 20
69
 11
4.52365
 21
69.376
  0
LINE
  8
0
 10
4.52365
 20
69.376
 11
4.59424
 21
69.7461
  0
LINE
  8
0
 10
4.59424
 20
69.7461
 11
4.71066
 21
70.1044
  0
LINE
  8
0
 10
4.71066
 20
70.1044
 11
4.87108
 21
70.4453
  0
LINE
  8
0
 10
4.87108
 20
70.4453
 11
5.07294
 21
70.7634
  0
LINE
  8
0
 10
5.07294
 20
70.7634
 11
5.31308
 21
71.0536
  0
LINE
  8
0
 10
5.31308
 20
71.0536
 11
5.58772
 21
71.3115
  0
LINE
  8
0
 10
5.58772
 20
71.3115
 11
5.89252
 21
71.533
  0
LINE
  8
0
 10
5.89252
 20
71.533
 11
6.22266
 21
71.7145
  0
LINE
  8
0
 10
6.22266
 20
71.7145
 11
6.57294
 21
71.8532
  0
LINE
  8
0
 10
6.57294
 20
71.8532
 11
6.93785
 21
71.9469
  0
LINE
  8
0
 10
6.93785
 20
71.9469
 11
7.31161
 21
71.9941
  0
LINE
  8
0
 10
7.31161
 20
71.9941
 11
7.68837
 21
71.9941
  0
LINE
  8
0
 10
7.68837
 20
71.9941
 11
8.06213
 21
71.9469
  0
LINE
  8
0
 10
8.06213
 20
71.9469
 11
8.42705
 21
71.8532
  0
LINE
  8
0
 10
8.42705
 20
71.8532
 11
8.77733
 21
71.7145
  0
LINE
  8
0
 10
8.77733
 20
71.7145
 11
9.10747
 21
71.533
  0
LINE
  8
0
 10
9.10747
 20
71.533
 11
9.41226
 21
71.3115
  0
LINE
  8
0
 10
9.41226
 20
71.3115
 11
9.6869
 21
71.0536
  0
LINE
  8
0
 10
9.6869
 20
71.0536
 11
9.92705
 21
70.7634
  0
LINE
  8
0
 10
9.92705
 20
70.7634
 11
10.1289
 21
70.4453
  0
LINE
  8
0
 10
10.1289
 20
70.4453
 11
10.2893
 21
70.1044
  0
LINE
  8
0
 10
10.2893
 20
70.1044
 11
10.4057
 21
69.7461
  0
LINE
  8
0
 10
10.4057
 20
69.7461
 11
10.4763
 21
69.376
  0
LINE
  8
0
 10
10.4763
 20
69.376
 11
10.5
 21
69
  0
LINE
  8
0
 10
10.5
 20
69
 11
10.4763
 21
68.624
  0
LINE
  8
0
 10
10.4763
 20
68.624
 11
10.4057
 21
68.2539
  0
LINE
  8
0
 10
10.4057
 20
68.2539
 11
10.2893
 21
67.8956
  0
LINE
  8
0
 10
10.2893
 20
67.8956
 11
10.1289
 21
67.5547
  0
LINE
  8
0
 10
10.1289
 20
67.5547
 11
9.92705
 21
67.2366
  0
LINE
  8
0
 10
9.92705
 20
67.2366
 11
9.6869
 21
66.9464
  0
LINE
  8
0
 10
9.6869
 20
66.9464
 11
9.41226
 21
66.6884
  0
LINE
  8
0
 10
9.41226
 20
66.6884
 11
9.10747
 21
66.467
  0
LINE
  8
0
 10
9.10747
 20
66.467
 11
8.77733
 21
66.2855
  0
LINE
  8
0
 10
8.77733
 20
66.2855
 11
8.42705
 21
66.1468
  0
LINE
  8
0
 10
8.42705
 20
66.1468
 11
8.06213
 21
66.0531
  0
LINE
  8
0
 10
8.06213
 20
66.0531
 11
7.68837
 21
66.0059
  0
LINE
  8
0
 10
7.68837
 20
66.0059
 11
7.31161
 21
66.0059
  0
LINE
  8
0
 10
-15.0942
 20
67.5029
 11
-15.2811
 21
67.5266
  0
LINE
  8
0
 10
-15.2811
 20
67.5266
 11
-15.4635
 21
67.5734
  0
LINE
  8
0
 10
-15.4635
 20
67.5734
 11
-15.6387
 21
67.6427
  0
LINE
  8
0
 10
-15.6387
 20
67.6427
 11
-15.8037
 21
67.7335
  0
LINE
  8
0
 10
-15.8037
 20
67.7335
 11
-15.9561
 21
67.8442
  0
LINE
  8
0
 10
-15.9561
 20
67.8442
 11
-16.0934
 21
67.9732
  0
LINE
  8
0
 10
-16.0934
 20
67.9732
 11
-16.2135
 21
68.1183
  0
LINE
  8
0
 10
-16.2135
 20
68.1183
 11
-16.3145
 21
68.2774
  0
LINE
  8
0
 10
-16.3145
 20
68.2774
 11
-16.3947
 21
68.4478
  0
LINE
  8
0
 10
-16.3947
 20
68.4478
 11
-16.4529
 21
68.627
  0
LINE
  8
0
 10
-16.4529
 20
68.627
 11
-16.4882
 21
68.812
  0
LINE
  8
0
 10
-16.4882
 20
68.812
 11
-16.5
 21
69
  0
LINE
  8
0
 10
-16.5
 20
69
 11
-16.4882
 21
69.188
  0
LINE
  8
0
 10
-16.4882
 20
69.188
 11
-16.4529
 21
69.373
  0
LINE
  8
0
 10
-16.4529
 20
69.373
 11
-16.3947
 21
69.5522
  0
LINE
  8
0
 10
-16.3947
 20
69.5522
 11
-16.3145
 21
69.7226
  0
LINE
  8
0
 10
-16.3145
 20
69.7226
 11
-16.2135
 21
69.8817
  0
LINE
  8
0
 10
-16.2135
 20
69.8817
 11
-16.0934
 21
70.0268
  0
LINE
  8
0
 10
-16.0934
 20
70.0268
 11
-15.9561
 21
70.1558
  0
LINE
  8
0
 10
-15.9561
 20
70.1558
 11
-15.8037
 21
70.2665
  0
LINE
  8
0
 10
-15.8037
 20
70.2665
 11
-15.6387
 21
70.3572
  0
LINE
  8
0
 10
-15.6387
 20
70.3572
 11
-15.4635
 21
70.4266
  0
LINE
  8
0
 10
-15.4635
 20
70.4266
 11
-15.2811
 21
70.4734
  0
LINE
  8
0
 10
-15.2811
 20
70.4734
 11
-15.0942
 21
70.497
  0
LINE
  8
0
 10
-15.0942
 20
70.497
 11
-14.9058
 21
70.497
  0
LINE
  8
0
 10
-14.9058
 20
70.497
 11
-14.7189
 21
70.4734
  0
LINE
  8
0
 10
-14.7189
 20
70.4734
 11
-14.5365
 21
70.4266
  0
LINE
  8
0
 10
-14.5365
 20
70.4266
 11
-14.3613
 21
70.3572
  0
LINE
  8
0
 10
-14.3613
 20
70.3572
 11
-14.1963
 21
70.2665
  0
LINE
  8
0
 10
-14.1963
 20
70.2665
 11
-14.0439
 21
70.1558
  0
LINE
  8
0
 10
-14.0439
 20
70.1558
 11
-13.9065
 21
70.0268
  0
LINE
  8
0
 10
-13.9065
 20
70.0268
 11
-13.7865
 21
69.8817
  0
LINE
  8
0
 10
-13.7865
 20
69.8817
 11
-13.6855
 21
69.7226
  0
LINE
  8
0
 10
-13.6855
 20
69.7226
 11
-13.6053
 21
69.5522
  0
LINE
  8
0
 10
-13.6053
 20
69.5522
 11
-13.5471
 21
69.373
  0
LINE
  8
0
 10
-13.5471
 20
69.373
 11
-13.5118
 21
69.188
  0
LINE
  8
0
 10
-13.5118
 20
69.188
 11
-13.5
 21
69
  0
LINE
  8
0
 10
-13.5
 20
69
 11
-13.5118
 21
68.812
  0
LINE
  8
0
 10
-13.5118
 20
68.812
 11
-13.5471
 21
68.627
  0
LINE
  8
0
 10
-13.5471
 20
68.627
 11
-13.6053
 21
68.4478
  0
LINE
  8
0
 10
-13.6053
 20
68.4478
 11
-13.6855
 21
68.2774
  0
LINE
  8
0
 10
-13.6855
 20
68.2774
 11
-13.7865
 21
68.1183
  0
LINE
  8
0
 10
-13.7865
 20
68.1183
 11
-13.9065
 21
67.9732
  0
LINE
  8
0
 10
-13.9065
 20
67.9732
 11
-14.0439
 21
67.8442
  0
LINE
  8
0
 10
-14.0439
 20
67.8442
 11
-14.1963
 21
67.7335
  0
LINE
  8
0
 10
-14.1963
 20
67.7335
 11
-14.3613
 21
67.6427
  0
LINE
  8
0
 10
-14.3613
 20
67.6427
 11
-14.5365
 21
67.5734
  0
LINE
  8
0
 10
-14.5365
 20
67.5734
 11
-14.7189
 21
67.5266
  0
LINE
  8
0
 10
-14.7189
 20
67.5266
 11
-14.9058
 21
67.5029
  0
LINE
  8
0
 10
-14.9058
 20
67.5029
 11
-15.0942
 21
67.5029
  0
LINE
  8
0
 10
14.9058
 20
67.5029
 11
14.7189
 21
67.5266
  0
LINE
  8
0
 10
14.7189
 20
67.5266
 11
14.5365
 21
67.5734
  0
LINE
  8
0
 10
14.5365
 20
67.5734
 11
14.3613
 21
67.6427
  0
LINE
  8
0
 10
14.3613
 20
67.6427
 11
14.1963
 21
67.7335
  0
LINE
  8
0
 10
14.1963
 20
67.7335
 11
14.0439
 21
67.8442
  0
LINE
  8
0
 10
14.0439
 20
67.8442
 11
13.9065
 21
67.9732
  0
LINE
  8
0
 10
13.9065
 20
67.9732
 11
13.7865
 21
68.1183
  0
LINE
  8
0
 10
13.7865
 20
68.1183
 11
13.6855
 21
68.2774
  0
LINE
  8
0
 10
13.6855
 20
68.2774
 11
13.6053
 21
68.4478
  0
LINE
  8
0
 10
13.6053
 20
68.4478
 11
13.5471
 21
68.627
  0
LINE
  8
0
 10
13.5471
 20
68.627
 11
13.5118
 21
68.812
  0
LINE
  8
0
 10
13.5118
 20
68.812
 11
13.5
 21
69
  0
LINE
  8
0
 10
13.5
 20
69
 11
13.5118
 21
69.188
  0
LINE
  8
0
 10
13.5118
 20
69.188
 11
13.5471
 21
69.373
  0
LINE
  8
0
 10
13.5471
 20
69.373
 11
13.6053
 21
69.5522
  0
LINE
  8
0
 10
13.6053
 20
69.5522
 11
13.6855
 21
69.7226
  0
LINE
  8
0
 10
13.6855
 20
69.7226
 11
13.7865
 21
69.8817
  0
LINE
  8
0
 10
13.7865
 20
69.8817
 11
13.9065
 21
70.0268
  0
LINE
  8
0
 10
13.9065
 20
70.0268
 11
14.0439
 21
70.1558
  0
LINE
  8
0
 10
14.0439
 20
70.1558
 11
14.1963
 21
70.2665
  0
LINE
  8
0
 10
14.1963
 20
70.2665
 11
14.3613
 21
70.3572
  0
LINE
  8
0
 10
14.3613
 20
70.3572
 11
14.5365
 21
70.4266
  0
LINE
  8
0
 10
14.5365
 20
70.4266
 11
14.7189
 21
70.4734
  0
LINE
  8
0
 10
14.7189
 20
70.4734
 11
14.9058
 21
70.497
  0
LINE
  8
0
 10
14.9058
 20
70.497
 11
15.0942
 21
70.497
  0
LINE
  8
0
 10
15.0942
 20
70.497
 11
15.2811
 21
70.4734
  0
LINE
  8
0
 10
15.2811
 20
70.4734
 11
15.4635
 21
70.4266
  0
LINE
  8
0
 10
15.4635
 20
70.4266
 11
15.6387
 21
70.3572
  0
LINE
  8
0
 10
15.6387
 20
70.3572
 11
15.8037
 21
70.2665
  0
LINE
  8
0
 10
15.8037
 20
70.2665
 11
15.9561
 21
70.1558
  0
LINE
  8
0
 10
15.9561
 20
70.1558
 11
16.0934
 21
70.0268
  0
LINE
  8
0
 10
16.0934
 20
70.0268
 11
16.2135
 21
69.8817
  0
LINE
  8
0
 10
16.2135
 20
69.8817
 11
16.3145
 21
69.7226
  0
LINE
  8
0
 10
16.3145
 20
69.7226
 11
16.3947
 21
69.5522
  0
LINE
  8
0
 10
16.3947
 20
69.5522
 11
16.4529
 21
69.373
  0
LINE
  8
0
 10
16.4529
 20
69.373
 11
16.4882
 21
69.188
  0
LINE
  8
0
 10
16.4882
 20
69.188
 11
16.5
 21
69
  0
LINE
  8
0
 10
16.5
 20
69
 11
16.4882
 21
68.812
  0
LINE
  8
0
 10
16.4882
 20
68.812
 11
16.4529
 21
68.627
  0
LINE
  8
0
 10
16.4529
 20
68.627
 11
16.3947
 21
68.4478
  0
LINE
  8
0
 10
16.3947
 20
68.4478
 11
16.3145
 21
68.2774
  0
LINE
  8
0
 10
16.3145
 20
68.2774
 11
16.2135
 21
68.1183
  0
LINE
  8
0
 10
16.2135
 20
68.1183
 11
16.0934
 21
67.9732
  0
LINE
  8
0
 10
16.0934
 20
67.9732
 11
15.9561
 21
67.8442
  0
LINE
  8
0
 10
15.9561
 20
67.8442
 11
15.8037
 21
67.7335
  0
LINE
  8
0
 10
15.8037
 20
67.7335
 11
15.6387
 21
67.6427
  0
LINE
  8
0
 10
15.6387
 20
67.6427
 11
15.4635
 21
67.5734
  0
LINE
  8
0
 10
15.4635
 20
67.5734
 11
15.2811
 21
67.5266
  0
LINE
  8
0
 10
15.2811
 20
67.5266
 11
15.0942
 21
67.5029
  0
LINE
  8
0
 10
15.0942
 20
67.5029
 11
14.9058
 21
67.5029
  0
LINE
  8
0
 10
-0.0941772
 20
67.5029
 11
-0.281067
 21
67.5266
  0
LINE
  8
0
 10
-0.281067
 20
67.5266
 11
-0.463516
 21
67.5734
  0
LINE
  8
0
 10
-0.463516
 20
67.5734
 11
-0.638657
 21
67.6427
  0
LINE
  8
0
 10
-0.638657
 20
67.6427
 11
-0.803726
 21
67.7335
  0
LINE
  8
0
 10
-0.803726
 20
67.7335
 11
-0.956131
 21
67.8442
  0
LINE
  8
0
 10
-0.956131
 20
67.8442
 11
-1.09344
 21
67.9732
  0
LINE
  8
0
 10
-1.09344
 20
67.9732
 11
-1.21352
 21
68.1183
  0
LINE
  8
0
 10
-1.21352
 20
68.1183
 11
-1.31445
 21
68.2774
  0
LINE
  8
0
 10
-1.31445
 20
68.2774
 11
-1.39465
 21
68.4478
  0
LINE
  8
0
 10
-1.39465
 20
68.4478
 11
-1.45287
 21
68.627
  0
LINE
  8
0
 10
-1.45287
 20
68.627
 11
-1.48816
 21
68.812
  0
LINE
  8
0
 10
-1.48816
 20
68.812
 11
-1.5
 21
69
  0
LINE
  8
0
 10
-1.5
 20
69
 11
-1.48816
 21
69.188
  0
LINE
  8
0
 10
-1.48816
 20
69.188
 11
-1.45287
 21
69.373
  0
LINE
  8
0
 10
-1.45287
 20
69.373
 11
-1.39465
 21
69.5522
  0
LINE
  8
0
 10
-1.39465
 20
69.5522
 11
-1.31445
 21
69.7226
  0
LINE
  8
0
 10
-1.31445
 20
69.7226
 11
-1.21352
 21
69.8817
  0
LINE
  8
0
 10
-1.21352
 20
69.8817
 11
-1.09344
 21
70.0268
  0
LINE
  8
0
 10
-1.09344
 20
70.0268
 11
-0.956131
 21
70.1558
  0
LINE
  8
0
 10
-0.956131
 20
70.1558
 11
-0.803726
 21
70.2665
  0
LINE
  8
0
 10
-0.803726
 20
70.2665
 11
-0.638657
 21
70.3572
  0
LINE
  8
0
 10
-0.638657
 20
70.3572
 11
-0.463516
 21
70.4266
  0
LINE
  8
0
 10
-0.463516
 20
70.4266
 11
-0.281067
 21
70.4734
  0
LINE
  8
0
 10
-0.281067
 20
70.4734
 11
-0.0941772
 21
70.497
  0
LINE
  8
0
 10
-0.0941772
 20
70.497
 11
0.0941772
 21
70.497
  0
LINE
  8
0
 10
0.0941772
 20
70.497
 11
0.281067
 21
70.4734
  0
LINE
  8
0
 10
0.281067
 20
70.4734
 11
0.463516
 21
70.4266
  0
LINE
  8
0
 10
0.463516
 20
70.4266
 11
0.638657
 21
70.3572
  0
LINE
  8
0
 10
0.638657
 20
70.3572
 11
0.803726
 21
70.2665
  0
LINE
  8
0
 10
0.803726
 20
70.2665
 11
0.956131
 21
70.1558
  0
LINE
  8
0
 10
0.956131
 20
70.1558
 11
1.09344
 21
70.0268
  0
LINE
  8
0
 10
1.09344
 20
70.0268
 11
1.21352
 21
69.8817
  0
LINE
  8
0
 10
1.21352
 20
69.8817
 11
1.31445
 21
69.7226
  0
LINE
  8
0
 10
1.31445
 20
69.7226
 11
1.39465
 21
69.5522
  0
LINE
  8
0
 10
1.39465
 20
69.5522
 11
1.45287
 21
69.373
  0
LINE
  8
0
 10
1.45287
 20
69.373
 11
1.48816
 21
69.188
  0
LINE
  8
0
 10
1.48816
 20
69.188
 11
1.5
 21
69
  0
LINE
  8
0
 10
1.5
 20
69
 11
1.48816
 21
68.812
  0
LINE
  8
0
 10
1.48816
 20
68.812
 11
1.45287
 21
68.627
  0
LINE
  8
0
 10
1.45287
 20
68.627
 11
1.39465
 21
68.4478
  0
LINE
  8
0
 10
1.39465
 20
68.4478
 11
1.31445
 21
68.2774
  0
LINE
  8
0
 10
1.31445
 20
68.2774
 11
1.21352
 21
68.1183
  0
LINE
  8
0
 10
1.21352
 20
68.1183
 11
1.09344
 21
67.9732
  0
LINE
  8
0
 10
1.09344
 20
67.9732
 11
0.956131
 21
67.8442
  0
LINE
  8
0
 10
0.956131
 20
67.8442
 11
0.803726
 21
67.7335
  0
LINE
  8
0
 10
0.803726
 20
67.7335
 11
0.638657
 21
67.6427
  0
LINE
  8
0
 10
0.638657
 20
67.6427
 11
0.463516
 21
67.5734
  0
LINE
  8
0
 10
0.463516
 20
67.5734
 11
0.281067
 21
67.5266
  0
LINE
  8
0
 10
0.281067
 20
67.5266
 11
0.0941772
 21
67.5029
  0
LINE
  8
0
 10
0.0941772
 20
67.5029
 11
-0.0941772
 21
67.5029
  0
LINE
  8
0
 10
-15.3139
 20
49.0099
 11
-15.9369
 21
49.0886
  0
LINE
  8
0
 10
-15.9369
 20
49.0886
 11
-16.5451
 21
49.2447
  0
LINE
  8
0
 10
-16.5451
 20
49.2447
 11
-17.1289
 21
49.4759
  0
LINE
  8
0
 10
-17.1289
 20
49.4759
 11
-17.6791
 21
49.7784
  0
LINE
  8
0
 10
-17.6791
 20
49.7784
 11
-18.1871
 21
50.1474
  0
LINE
  8
0
 10
-18.1871
 20
50.1474
 11
-18.6448
 21
50.5773
  0
LINE
  8
0
 10
-18.6448
 20
50.5773
 11
-19.0451
 21
51.0611
  0
LINE
  8
0
 10
-19.0451
 20
51.0611
 11
-19.3815
 21
51.5912
  0
LINE
  8
0
 10
-19.3815
 20
51.5912
 11
-19.6489
 21
52.1594
  0
LINE
  8
0
 10
-19.6489
 20
52.1594
 11
-19.8429
 21
52.7566
  0
LINE
  8
0
 10
-19.8429
 20
52.7566
 11
-19.9606
 21
53.3733
  0
LINE
  8
0
 10
-19.9606
 20
53.3733
 11
-20
 21
54
  0
LINE
  8
0
 10
-20
 20
54
 11
-19.9606
 21
54.6267
  0
LINE
  8
0
 10
-19.9606
 20
54.6267
 11
-19.8429
 21
55.2434
  0
LINE
  8
0
 10
-19.8429
 20
55.2434
 11
-19.6489
 21
55.8406
  0
LINE
  8
0
 10
-19.6489
 20
55.8406
 11
-19.3815
 21
56.4088
  0
LINE
  8
0
 10
-19.3815
 20
56.4088
 11
-19.0451
 21
56.9389
  0
LINE
  8
0
 10
-19.0451
 20
56.9389
 11
-18.6448
 21
57.4227
  0
LINE
  8
0
 10
-18.6448
 20
57.4227
 11
-18.1871
 21
57.8526
  0
LINE
  8
0
 10
-18.1871
 20
57.8526
 11
-17.6791
 21
58.2216
  0
LINE
  8
0
 10
-17.6791
 20
58.2216
 11
-17.1289
 21
58.5241
  0
LINE
  8
0
 10
-17.1289
 20
58.5241
 11
-16.5451
 21
58.7553
  0
LINE
  8
0
 10
-16.5451
 20
58.7553
 11
-15.9369
 21
58.9114
  0
LINE
  8
0
 10
-15.9369
 20
58.9114
 11
-15.3139
 21
58.9901
  0
LINE
  8
0
 10
-15.3139
 20
58.9901
 11
-14.686
 21
58.9901
  0
LINE
  8
0
 10
-14.686
 20
58.9901
 11
-14.0631
 21
58.9114
  0
LINE
  8
0
 10
-14.0631
 20
58.9114
 11
-13.4549
 21
58.7553
  0
LINE
  8
0
 10
-13.4549
 20
58.7553
 11
-12.8711
 21
58.5241
  0
LINE
  8
0
 10
-12.8711
 20
58.5241
 11
-12.3209
 21
58.2216
  0
LINE
  8
0
 10
-12.3209
 20
58.2216
 11
-11.8129
 21
57.8526
  0
LINE
  8
0
 10
-11.8129
 20
57.8526
 11
-11.3551
 21
57.4227
  0
LINE
  8
0
 10
-11.3551
 20
57.4227
 11
-10.9549
 21
56.9389
  0
LINE
  8
0
 10
-10.9549
 20
56.9389
 11
-10.6185
 21
56.4088
  0
LINE
  8
0
 10
-10.6185
 20
56.4088
 11
-10.3511
 21
55.8406
  0
LINE
  8
0
 10
-10.3511
 20
55.8406
 11
-10.1571
 21
55.2434
  0
LINE
  8
0
 10
-10.1571
 20
55.2434
 11
-10.0394
 21
54.6267
  0
LINE
  8
0
 10
-10.0394
 20
54.6267
 11
-10
 21
54
  0
LINE
  8
0
 10
-10
 20
54
 11
-10.0394
 21
53.3733
  0
LINE
  8
0
 10
-10.0394
 20
53.3733
 11
-10.1571
 21
52.7566
  0
LINE
  8
0
 10
-10.1571
 20
52.7566
 11
-10.3511
 21
52.1594
  0
LINE
  8
0
 10
-10.3511
 20
52.1594
 11
-10.6185
 21
51.5912
  0
LINE
  8
0
 10
-10.6185
 20
51.5912
 11
-10.9549
 21
51.0611
  0
LINE
  8
0
 10
-10.9549
 20
51.0611
 11
-11.3551
 21
50.5773
  0
LINE
  8
0
 10
-11.3551
 20
50.5773
 11
-11.8129
 21
50.1474
  0
LINE
  8
0
 10
-11.8129
 20
50.1474
 11
-12.3209
 21
49.7784
  0
LINE
  8
0
 10
-12.3209
 20
49.7784
 11
-12.8711
 21
49.4759
  0
LINE
  8
0
 10
-12.8711
 20
49.4759
 11
-13.4549
 21
49.2447
  0
LINE
  8
0
 10
-13.4549
 20
49.2447
 11
-14.0631
 21
49.0886
  0
LINE
  8
0
 10
-14.0631
 20
49.0886
 11
-14.686
 21
49.0099
  0
LINE
  8
0
 10
-14.686
 20
49.0099
 11
-15.3139
 21
49.0099
  0
LINE
  8
0
 10
14.686
 20
49.0099
 11
14.0631
 21
49.0886
  0
LINE
  8
0
 10
14.0631
 20
49.0886
 11
13.4549
 21
49.2447
  0
LINE
  8
0
 10
13.4549
 20
49.2447
 11
12.8711
 21
49.4759
  0
LINE
  8
0
 10
12.8711
 20
49.4759
 11
12.3209
 21
49.7784
  0
LINE
  8
0
 10
12.3209
 20
49.7784
 11
11.8129
 21
50.1474
  0
LINE
  8
0
 10
11.8129
 20
50.1474
 11
11.3551
 21
50.5773
  0
LINE
  8
0
 10
11.3551
 20
50.5773
 11
10.9549
 21
51.0611
  0
LINE
  8
0
 10
10.9549
 20
51.0611
 11
10.6185
 21
51.5912
  0
LINE
  8
0
 10
10.6185
 20
51.5912
 11
10.3511
 21
52.1594
  0
LINE
  8
0
 10
10.3511
 20
52.1594
 11
10.1571
 21
52.7566
  0
LINE
  8
0
 10
10.1571
 20
52.7566
 11
10.0394
 21
53.3733
  0
LINE
  8
0
 10
10.0394
 20
53.3733
 11
10
 21
54
  0
LINE
  8
0
 10
10
 20
54
 11
10.0394
 21
54.6267
  0
LINE
  8
0
 10
10.0394
 20
54.6267
 11
10.1571
 21
55.2434
  0
LINE
  8
0
 10
10.1571
 20
55.2434
 11
10.3511
 21
55.8406
  0
LINE
  8
0
 10
10.3511
 20
55.8406
 11
10.6185
 21
56.4088
  0
LINE
  8
0
 10
10.6185
 20
56.4088
 11
10.9549
 21
56.9389
  0
LINE
  8
0
 10
10.9549
 20
56.9389
 11
11.3551
 21
57.4227
  0
LINE
  8
0
 10
11.3551
 20
57.4227
 11
11.8129
 21
57.8526
  0
LINE
  8
0
 10
11.8129
 20
57.8526
 11
12.3209
 21
58.2216
  0
LINE
  8
0
 10
12.3209
 20
58.2216
 11
12.8711
 21
58.5241
  0
LINE
  8
0
 10
12.8711
 20
58.5241
 11
13.4549
 21
58.7553
  0
LINE
  8
0
 10
13.4549
 20
58.7553
 11
14.0631
 21
58.9114
  0
LINE
  8
0
 10
14.0631
 20
58.9114
 11
14.686
 21
58.9901
  0
LINE
  8
0
 10
14.686
 20
58.9901
 11
15.3139
 21
58.9901
  0
LINE
  8
0
 10
15.3139
 20
58.9901
 11
15.9369
 21
58.9114
  0
LINE
  8
0
 10
15.9369
 20
58.9114
 11
16.5451
 21
58.7553
  0
LINE
  8
0
 10
16.5451
 20
58.7553
 11
17.1289
 21
58.5241
  0
LINE
  8
0
 10
17.1289
 20
58.5241
 11
17.6791
 21
58.2216
  0
LINE
  8
0
 10
17.6791
 20
58.2216
 11
18.1871
 21
57.8526
  0
LINE
  8
0
 10
18.1871
 20
57.8526
 11
18.6448
 21
57.4227
  0
LINE
  8
0
 10
18.6448
 20
57.4227
 11
19.0451
 21
56.9389
  0
LINE
  8
0
 10
19.0451
 20
56.9389
 11
19.3815
 21
56.4088
  0
LINE
  8
0
 10
19.3815
 20
56.4088
 11
19.6489
 21
55.8406
  0
LINE
  8
0
 10
19.6489
 20
55.8406
 11
19.8429
 21
55.2434
  0
LINE
  8
0
 10
19.8429
 20
55.2434
 11
19.9606
 21
54.6267
  0
LINE
  8
0
 10
19.9606
 20
54.6267
 11
20
 21
54
  0
LINE
  8
0
 10
20
 20
54
 11
19.9606
 21
53.3733
  0
LINE
  8
0
 10
19.9606
 20
53.3733
 11
19.8429
 21
52.7566
  0
LINE
  8
0
 10
19.8429
 20
52.7566
 11
19.6489
 21
52.1594
  0
LINE
  8
0
 10
19.6489
 20
52.1594
 11
19.3815
 21
51.5912
  0
LINE
  8
0
 10
19.3815
 20
51.5912
 11
19.0451
 21
51.0611
  0
LINE
  8
0
 10
19.0451
 20
51.0611
 11
18.6448
 21
50.5773
  0
LINE
  8
0
 10
18.6448
 20
50.5773
 11
18.1871
 21
50.1474
  0
LINE
  8
0
 10
18.1871
 20
50.1474
 11
17.6791
 21
49.7784
  0
LINE
  8
0
 10
17.6791
 20
49.7784
 11
17.1289
 21
49.4759
  0
LINE
  8
0
 10
17.1289
 20
49.4759
 11
16.5451
 21
49.2447
  0
LINE
  8
0
 10
16.5451
 20
49.2447
 11
15.9369
 21
49.0886
  0
LINE
  8
0
 10
15.9369
 20
49.0886
 11
15.3139
 21
49.0099
  0
LINE
  8
0
 10
15.3139
 20
49.0099
 11
14.686
 21
49.0099
  0
LINE
  8
0
 10
-0.31395
 20
49.0099
 11
-0.936905
 21
49.0886
  0
LINE
  8
0
 10
-0.936905
 20
49.0886
 11
-1.54507
 21
49.2447
  0
LINE
  8
0
 10
-1.54507
 20
49.2447
 11
-2.12889
 21
49.4759
  0
LINE
  8
0
 10
-2.12889
 20
49.4759
 11
-2.67912
 21
49.7784
  0
LINE
  8
0
 10
-2.67912
 20
49.7784
 11
-3.18712
 21
50.1474
  0
LINE
  8
0
 10
-3.18712
 20
50.1474
 11
-3.64484
 21
50.5773
  0
LINE
  8
0
 10
-3.64484
 20
50.5773
 11
-4.04507
 21
51.0611
  0
LINE
  8
0
 10
-4.04507
 20
51.0611
 11
-4.38153
 21
51.5912
  0
LINE
  8
0
 10
-4.38153
 20
51.5912
 11
-4.64888
 21
52.1594
  0
LINE
  8
0
 10
-4.64888
 20
52.1594
 11
-4.84291
 21
52.7566
  0
LINE
  8
0
 10
-4.84291
 20
52.7566
 11
-4.96057
 21
53.3733
  0
LINE
  8
0
 10
-4.96057
 20
53.3733
 11
-5
 21
54
  0
LINE
  8
0
 10
-5
 20
54
 11
-4.96057
 21
54.6267
  0
LINE
  8
0
 10
-4.96057
 20
54.6267
 11
-4.84291
 21
55.2434
  0
LINE
  8
0
 10
-4.84291
 20
55.2434
 11
-4.64888
 21
55.8406
  0
LINE
  8
0
 10
-4.64888
 20
55.8406
 11
-4.38153
 21
56.4088
  0
LINE
  8
0
 10
-4.38153
 20
56.4088
 11
-4.04507
 21
56.9389
  0
LINE
  8
0
 10
-4.04507
 20
56.9389
 11
-3.64484
 21
57.4227
  0
LINE
  8
0
 10
-3.64484
 20
57.4227
 11
-3.18712
 21
57.8526
  0
LINE
  8
0
 10
-3.18712
 20
57.8526
 11
-2.67912
 21
58.2216
  0
LINE
  8
0
 10
-2.67912
 20
58.2216
 11
-2.12889
 21
58.5241
  0
LINE
  8
0
 10
-2.12889
 20
58.5241
 11
-1.54507
 21
58.7553
  0
LINE
  8
0
 10
-1.54507
 20
58.7553
 11
-0.936905
 21
58.9114
  0
LINE
  8
0
 10
-0.936905
 20
58.9114
 11
-0.31395
 21
58.9901
  0
LINE
  8
0
 10
-0.31395
 20
58.9901
 11
0.31395
 21
58.9901
  0
LINE
  8
0
 10
0.31395
 20
58.9901
 11
0.936905
 21
58.9114
  0
LINE
  8
0
 10
0.936905
 20
58.9114
 11
1.54507
 21
58.7553
  0
LINE
  8
0
 10
1.54507
 20
58.7553
 11
2.12889
 21
58.5241
  0
LINE
  8
0
 10
2.12889
 20
58.5241
 11
2.67912
 21
58.2216
  0
LINE
  8
0
 10
2.67912
 20
58.2216
 11
3.18712
 21
57.8526
  0
LINE
  8
0
 10
3.18712
 20
57.8526
 11
3.64484
 21
57.4227
  0
LINE
  8
0
 10
3.64484
 20
57.4227
 11
4.04507
 21
56.9389
  0
LINE
  8
0
 10
4.04507
 20
56.9389
 11
4.38153
 21
56.4088
  0
LINE
  8
0
 10
4.38153
 20
56.4088
 11
4.64888
 21
55.8406
  0
LINE
  8
0
 10
4.64888
 20
55.8406
 11
4.84291
 21
55.2434
  0
LINE
  8
0
 10
4.84291
 20
55.2434
 11
4.96057
 21
54.6267
  0
LINE
  8
0
 10
4.96057
 20
54.6267
 11
5
 21
54
  0
LINE
  8
0
 10
5
 20
54
 11
4.96057
 21
53.3733
  0
LINE
  8
0
 10
4.96057
 20
53.3733
 11
4.84291
 21
52.7566
  0
LINE
  8
0
 10
4.84291
 20
52.7566
 11
4.64888
 21
52.1594
  0
LINE
  8
0
 10
4.64888
 20
52.1594
 11
4.38153
 21
51.5912
  0
LINE
  8
0
 10
4.38153
 20
51.5912
 11
4.04507
 21
51.0611
  0
LINE
  8
0
 10
4.04507
 20
51.0611
 11
3.64484
 21
50.5773
  0
LINE
  8
0
 10
3.64484
 20
50.5773
 11
3.18712
 21
50.1474
  0
LINE
  8
0
 10
3.18712
 20
50.1474
 11
2.67912
 21
49.7784
  0
LINE
  8
0
 10
2.67912
 20
49.7784
 11
2.12889
 21
49.4759
  0
LINE
  8
0
 10
2.12889
 20
49.4759
 11
1.54507
 21
49.2447
  0
LINE
  8
0
 10
1.54507
 20
49.2447
 11
0.936905
 21
49.0886
  0
LINE
  8
0
 10
0.936905
 20
49.0886
 11
0.31395
 21
49.0099
  0
LINE
  8
0
 10
0.31395
 20
49.0099
 11
-0.31395
 21
49.0099
  0
LINE
  8
0
 10
7.31161
 20
36.0059
 11
6.93785
 21
36.0531
  0
LINE
  8
0
 10
6.93785
 20
36.0531
 11
6.57294
 21
36.1468
  0
LINE
  8
0
 10
6.57294
 20
36.1468
 11
6.22266
 21
36.2855
  0
LINE
  8
0
 10
6.22266
 20
36.2855
 11
5.89252
 21
36.467
  0
LINE
  8
0
 10
5.89252
 20
36.467
 11
5.58772
 21
36.6885
  0
LINE
  8
0
 10
5.58772
 20
36.6885
 11
5.31308
 21
36.9464
  0
LINE
  8
0
 10
5.31308
 20
36.9464
 11
5.07294
 21
37.2366
  0
LINE
  8
0
 10
5.07294
 20
37.2366
 11
4.87108
 21
37.5547
  0
LINE
  8
0
 10
4.87108
 20
37.5547
 11
4.71066
 21
37.8956
  0
LINE
  8
0
 10
4.71066
 20
37.8956
 11
4.59424
 21
38.2539
  0
LINE
  8
0
 10
4.59424
 20
38.2539
 11
4.52365
 21
38.624
  0
LINE
  8
0
 10
4.52365
 20
38.624
 11
4.5
 21
39
  0
LINE
  8
0
 10
4.5
 20
39
 11
4.52365
 21
39.376
  0
LINE
  8
0
 10
4.52365
 20
39.376
 11
4.59424
 21
39.7461
  0
LINE
  8
0
 10
4.59424
 20
39.7461
 11
4.71066
 21
40.1044
  0
LINE
  8
0
 10
4.71066
 20
40.1044
 11
4.87108
 21
40.4453
  0
LINE
  8
0
 10
4.87108
 20
40.4453
 11
5.07294
 21
40.7634
  0
LINE
  8
0
 10
5.07294
 20
40.7634
 11
5.31308
 21
41.0536
  0
LINE
  8
0
 10
5.31308
 20
41.0536
 11
5.58772
 21
41.3116
  0
LINE
  8
0
 10
5.58772
 20
41.3116
 11
5.89252
 21
41.533
  0
LINE
  8
0
 10
5.89252
 20
41.533
 11
6.22266
 21
41.7145
  0
LINE
  8
0
 10
6.22266
 20
41.7145
 11
6.57294
 21
41.8532
  0
LINE
  8
0
 10
6.57294
 20
41.8532
 11
6.93785
 21
41.9469
  0
LINE
  8
0
 10
6.93785
 20
41.9469
 11
7.31161
 21
41.9941
  0
LINE
  8
0
 10
7.31161
 20
41.9941
 11
7.68837
 21
41.9941
  0
LINE
  8
0
 10
7.68837
 20
41.9941
 11
8.06213
 21
41.9469
  0
LINE
  8
0
 10
8.06213
 20
41.9469
 11
8.42705
 21
41.8532
  0
LINE
  8
0
 10
8.42705
 20
41.8532
 11
8.77733
 21
41.7145
  0
LINE
  8
0
 10
8.77733
 20
41.7145
 11
9.10747
 21
41.533
  0
LINE
  8
0
 10
9.10747
 20
41.533
 11
9.41226
 21
41.3116
  0
LINE
  8
0
 10
9.41226
 20
41.3116
 11
9.6869
 21
41.0536
  0
LINE
  8
0
 10
9.6869
 20
41.0536
 11
9.92705
 21
40.7634
  0
LINE
  8
0
 10
9.92705
 20
40.7634
 11
10.1289
 21
40.4453
  0
LINE
  8
0
 10
10.1289
 20
40.4453
 11
10.2893
 21
40.1044
  0
LINE
  8
0
 10
10.2893
 20
40.1044
 11
10.4057
 21
39.7461
  0
LINE
  8
0
 10
10.4057
 20
39.7461
 11
10.4763
 21
39.376
  0
LINE
  8
0
 10
10.4763
 20
39.376
 11
10.5
 21
39
  0
LINE
  8
0
 10
10.5
 20
39
 11
10.4763
 21
38.624
  0
LINE
  8
0
 10
10.4763
 20
38.624
 11
10.4057
 21
38.2539
  0
LINE
  8
0
 10
10.4057
 20
38.2539
 11
10.2893
 21
37.8956
  0
LINE
  8
0
 10
10.2893
 20
37.8956
 11
10.1289
 21
37.5547
  0
LINE
  8
0
 10
10.1289
 20
37.5547
 11
9.92705
 21
37.2366
  0
LINE
  8
0
 10
9.92705
 20
37.2366
 11
9.6869
 21
36.9464
  0
LINE
  8
0
 10
9.6869
 20
36.9464
 11
9.41226
 21
36.6885
  0
LINE
  8
0
 10
9.41226
 20
36.6885
 11
9.10747
 21
36.467
  0
LINE
  8
0
 10
9.10747
 20
36.467
 11
8.77733
 21
36.2855
  0
LINE
  8
0
 10
8.77733
 20
36.2855
 11
8.42705
 21
36.1468
  0
LINE
  8
0
 10
8.42705
 20
36.1468
 11
8.06213
 21
36.0531
  0
LINE
  8
0
 10
8.06213
 20
36.0531
 11
7.68837
 21
36.0059
  0
LINE
  8
0
 10
7.68837
 20
36.0059
 11
7.31161
 21
36.0059
  0
LINE
  8
0
 10
22.3116
 20
36.0059
 11
21.9379
 21
36.0531
  0
LINE
  8
0
 10
21.9379
 20
36.0531
 11
21.5729
 21
36.1468
  0
LINE
  8
0
 10
21.5729
 20
36.1468
 11
21.2227
 21
36.2855
  0
LINE
  8
0
 10
21.2227
 20
36.2855
 11
20.8925
 21
36.467
  0
LINE
  8
0
 10
20.8925
 20
36.467
 11
20.5877
 21
36.6885
  0
LINE
  8
0
 10
20.5877
 20
36.6885
 11
20.3131
 21
36.9464
  0
LINE
  8
0
 10
20.3131
 20
36.9464
 11
20.0729
 21
37.2366
  0
LINE
  8
0
 10
20.0729
 20
37.2366
 11
19.8711
 21
37.5547
  0
LINE
  8
0
 10
19.8711
 20
37.5547
 11
19.7107
 21
37.8956
  0
LINE
  8
0
 10
19.7107
 20
37.8956
 11
19.5942
 21
38.2539
  0
LINE
  8
0
 10
19.5942
 20
38.2539
 11
19.5237
 21
38.624
  0
LINE
  8
0
 10
19.5237
 20
38.624
 11
19.5
 21
39
  0
LINE
  8
0
 10
19.5
 20
39
 11
19.5237
 21
39.376
  0
LINE
  8
0
 10
19.5237
 20
39.376
 11
19.5942
 21
39.7461
  0
LINE
  8
0
 10
19.5942
 20
39.7461
 11
19.7107
 21
40.1044
  0
LINE
  8
0
 10
19.7107
 20
40.1044
 11
19.8711
 21
40.4453
  0
LINE
  8
0
 10
19.8711
 20
40.4453
 11
20.0729
 21
40.7634
  0
LINE
  8
0
 10
20.0729
 20
40.7634
 11
20.3131
 21
41.0536
  0
LINE
  8
0
 10
20.3131
 20
41.0536
 11
20.5877
 21
41.3116
  0
LINE
  8
0
 10
20.5877
 20
41.3116
 11
20.8925
 21
41.533
  0
LINE
  8
0
 10
20.8925
 20
41.533
 11
21.2227
 21
41.7145
  0
LINE
  8
0
 10
21.2227
 20
41.7145
 11
21.5729
 21
41.8532
  0
LINE
  8
0
 10
21.5729
 20
41.8532
 11
21.9379
 21
41.9469
  0
LINE
  8
0
 10
21.9379
 20
41.9469
 11
22.3116
 21
41.9941
  0
LINE
  8
0
 10
22.3116
 20
41.9941
 11
22.6884
 21
41.9941
  0
LINE
  8
0
 10
22.6884
 20
41.9941
 11
23.0621
 21
41.9469
  0
LINE
  8
0
 10
23.0621
 20
41.9469
 11
23.427
 21
41.8532
  0
LINE
  8
0
 10
23.427
 20
41.8532
 11
23.7773
 21
41.7145
  0
LINE
  8
0
 10
23.7773
 20
41.7145
 11
24.1075
 21
41.533
  0
LINE
  8
0
 10
24.1075
 20
41.533
 11
24.4123
 21
41.3116
  0
LINE
  8
0
 10
24.4123
 20
41.3116
 11
24.6869
 21
41.0536
  0
LINE
  8
0
 10
24.6869
 20
41.0536
 11
24.927
 21
40.7634
  0
LINE
  8
0
 10
24.927
 20
40.7634
 11
25.1289
 21
40.4453
  0
LINE
  8
0
 10
25.1289
 20
40.4453
 11
25.2893
 21
40.1044
  0
LINE
  8
0
 10
25.2893
 20
40.1044
 11
25.4057
 21
39.7461
  0
LINE
  8
0
 10
25.4057
 20
39.7461
 11
25.4763
 21
39.376
  0
LINE
  8
0
 10
25.4763
 20
39.376
 11
25.5
 21
39
  0
LINE
  8
0
 10
25.5
 20
39
 11
25.4763
 21
38.624
  0
LINE
  8
0
 10
25.4763
 20
38.624
 11
25.4057
 21
38.2539
  0
LINE
  8
0
 10
25.4057
 20
38.2539
 11
25.2893
 21
37.8956
  0
LINE
  8
0
 10
25.2893
 20
37.8956
 11
25.1289
 21
37.5547
  0
LINE
  8
0
 10
25.1289
 20
37.5547
 11
24.927
 21
37.2366
  0
LINE
  8
0
 10
24.927
 20
37.2366
 11
24.6869
 21
36.9464
  0
LINE
  8
0
 10
24.6869
 20
36.9464
 11
24.4123
 21
36.6885
  0
LINE
  8
0
 10
24.4123
 20
36.6885
 11
24.1075
 21
36.467
  0
LINE
  8
0
 10
24.1075
 20
36.467
 11
23.7773
 21
36.2855
  0
LINE
  8
0
 10
23.7773
 20
36.2855
 11
23.427
 21
36.1468
  0
LINE
  8
0
 10
23.427
 20
36.1468
 11
23.0621
 21
36.0531
  0
LINE
  8
0
 10
23.0621
 20
36.0531
 11
22.6884
 21
36.0059
  0
LINE
  8
0
 10
22.6884
 20
36.0059
 11
22.3116
 21
36.0059
  0
LINE
  8
0
 10
-22.6884
 20
36.0059
 11
-23.0621
 21
36.0531
  0
LINE
  8
0
 10
-23.0621
 20
36.0531
 11
-23.427
 21
36.1468
  0
LINE
  8
0
 10
-23.427
 20
36.1468
 11
-23.7773
 21
36.2855
  0
LINE
  8
0
 10
-23.7773
 20
36.2855
 11
-24.1075
 21
36.467
  0
LINE
  8
0
 10
-24.1075
 20
36.467
 11
-24.4123
 21
36.6885
  0
LINE
  8
0
 10
-24.4123
 20
36.6885
 11
-24.6869
 21
36.9464
  0
LINE
  8
0
 10
-24.6869
 20
36.9464
 11
-24.927
 21
37.2366
  0
LINE
  8
0
 10
-24.927
 20
37.2366
 11
-25.1289
 21
37.5547
  0
LINE
  8
0
 10
-25.1289
 20
37.5547
 11
-25.2893
 21
37.8956
  0
LINE
  8
0
 10
-25.2893
 20
37.8956
 11
-25.4057
 21
38.2539
  0
LINE
  8
0
 10
-25.4057
 20
38.2539
 11
-25.4763
 21
38.624
  0
LINE
  8
0
 10
-25.4763
 20
38.624
 11
-25.5
 21
39
  0
LINE
  8
0
 10
-25.5
 20
39
 11
-25.4763
 21
39.376
  0
LINE
  8
0
 10
-25.4763
 20
39.376
 11
-25.4057
 21
39.7461
  0
LINE
  8
0
 10
-25.4057
 20
39.7461
 11
-25.2893
 21
40.1044
  0
LINE
  8
0
 10
-25.2893
 20
40.1044
 11
-25.1289
 21
40.4453
  0
LINE
  8
0
 10
-25.1289
 20
40.4453
 11
-24.927
 21
40.7634
  0
LINE
  8
0
 10
-24.927
 20
40.7634
 11
-24.6869
 21
41.0536
  0
LINE
  8
0
 10
-24.6869
 20
41.0536
 11
-24.4123
 21
41.3116
  0
LINE
  8
0
 10
-24.4123
 20
41.3116
 11
-24.1075
 21
41.533
  0
LINE
  8
0
 10
-24.1075
 20
41.533
 11
-23.7773
 21
41.7145
  0
LINE
  8
0
 10
-23.7773
 20
41.7145
 11
-23.427
 21
41.8532
  0
LINE
  8
0
 10
-23.427
 20
41.8532
 11
-23.0621
 21
41.9469
  0
LINE
  8
0
 10
-23.0621
 20
41.9469
 11
-22.6884
 21
41.9941
  0
LINE
  8
0
 10
-22.6884
 20
41.9941
 11
-22.3116
 21
41.9941
  0
LINE
  8
0
 10
-22.3116
 20
41.9941
 11
-21.9379
 21
41.9469
  0
LINE
  8
0
 10
-21.9379
 20
41.9469
 11
-21.5729
 21
41.8532
  0
LINE
  8
0
 10
-21.5729
 20
41.8532
 11
-21.2227
 21
41.7145
  0
LINE
  8
0
 10
-21.2227
 20
41.7145
 11
-20.8925
 21
41.533
  0
LINE
  8
0
 10
-20.8925
 20
41.533
 11
-20.5877
 21
41.3116
  0
LINE
  8
0
 10
-20.5877
 20
41.3116
 11
-20.3131
 21
41.0536
  0
LINE
  8
0
 10
-20.3131
 20
41.0536
 11
-20.0729
 21
40.7634
  0
LINE
  8
0
 10
-20.0729
 20
40.7634
 11
-19.8711
 21
40.4453
  0
LINE
  8
0
 10
-19.8711
 20
40.4453
 11
-19.7107
 21
40.1044
  0
LINE
  8
0
 10
-19.7107
 20
40.1044
 11
-19.5942
 21
39.7461
  0
LINE
  8
0
 10
-19.5942
 20
39.7461
 11
-19.5237
 21
39.376
  0
LINE
  8
0
 10
-19.5237
 20
39.376
 11
-19.5
 21
39
  0
LINE
  8
0
 10
-19.5
 20
39
 11
-19.5237
 21
38.624
  0
LINE
  8
0
 10
-19.5237
 20
38.624
 11
-19.5942
 21
38.2539
  0
LINE
  8
0
 10
-19.5942
 20
38.2539
 11
-19.7107
 21
37.8956
  0
LINE
  8
0
 10
-19.7107
 20
37.8956
 11
-19.8711
 21
37.5547
  0
LINE
  8
0
 10
-19.8711
 20
37.5547
 11
-20.0729
 21
37.2366
  0
LINE
  8
0
 10
-20.0729
 20
37.2366
 11
-20.3131
 21
36.9464
  0
LINE
  8
0
 10
-20.3131
 20
36.9464
 11
-20.5877
 21
36.6885
  0
LINE
  8
0
 10
-20.5877
 20
36.6885
 11
-20.8925
 21
36.467
  0
LINE
  8
0
 10
-20.8925
 20
36.467
 11
-21.2227
 21
36.2855
  0
LINE
  8
0
 10
-21.2227
 20
36.2855
 11
-21.5729
 21
36.1468
  0
LINE
  8
0
 10
-21.5729
 20
36.1468
 11
-21.9379
 21
36.0531
  0
LINE
  8
0
 10
-21.9379
 20
36.0531
 11
-22.3116
 21
36.0059
  0
LINE
  8
0
 10
-22.3116
 20
36.0059
 11
-22.6884
 21
36.0059
  0
LINE
  8
0
 10
-7.68837
 20
36.0059
 11
-8.06213
 21
36.0531
  0
LINE
  8
0
 10
-8.06213
 20
36.0531
 11
-8.42705
 21
36.1468
  0
LINE
  8
0
 10
-8.42705
 20
36.1468
 11
-8.77733
 21
36.2855
  0
LINE
  8
0
 10
-8.77733
 20
36.2855
 11
-9.10747
 21
36.467
  0
LINE
  8
0
 10
-9.10747
 20
36.467
 11
-9.41226
 21
36.6885
  0
LINE
  8
0
 10
-9.41226
 20
36.6885
 11
-9.6869
 21
36.9464
  0
LINE
  8
0
 10
-9.6869
 20
36.9464
 11
-9.92705
 21
37.2366
  0
LINE
  8
0
 10
-9.92705
 20
37.2366
 11
-10.1289
 21
37.5547
  0
LINE
  8
0
 10
-10.1289
 20
37.5547
 11
-10.2893
 21
37.8956
  0
LINE
  8
0
 10
-10.2893
 20
37.8956
 11
-10.4057
 21
38.2539
  0
LINE
  8
0
 10
-10.4057
 20
38.2539
 11
-10.4763
 21
38.624
  0
LINE
  8
0
 10
-10.4763
 20
38.624
 11
-10.5
 21
39
  0
LINE
  8
0
 10
-10.5
 20
39
 11
-10.4763
 21
39.376
  0
LINE
  8
0
 10
-10.4763
 20
39.376
 11
-10.4057
 21
39.7461
  0
LINE
  8
0
 10
-10.4057
 20
39.7461
 11
-10.2893
 21
40.1044
  0
LINE
  8
0
 10
-10.2893
 20
40.1044
 11
-10.1289
 21
40.4453
  0
LINE
  8
0
 10
-10.1289
 20
40.4453
 11
-9.92705
 21
40.7634
  0
LINE
  8
0
 10
-9.92705
 20
40.7634
 11
-9.6869
 21
41.0536
  0
LINE
  8
0
 10
-9.6869
 20
41.0536
 11
-9.41226
 21
41.3116
  0
LINE
  8
0
 10
-9.41226
 20
41.3116
 11
-9.10747
 21
41.533
  0
LINE
  8
0
 10
-9.10747
 20
41.533
 11
-8.77733
 21
41.7145
  0
LINE
  8
0
 10
-8.77733
 20
41.7145
 11
-8.42705
 21
41.8532
  0
LINE
  8
0
 10
-8.42705
 20
41.8532
 11
-8.06213
 21
41.9469
  0
LINE
  8
0
 10
-8.06213
 20
41.9469
 11
-7.68837
 21
41.9941
  0
LINE
  8
0
 10
-7.68837
 20
41.9941
 11
-7.31161
 21
41.9941
  0
LINE
  8
0
 10
-7.31161
 20
41.9941
 11
-6.93785
 21
41.9469
  0
LINE
  8
0
 10
-6.93785
 20
41.9469
 11
-6.57294
 21
41.8532
  0
LINE
  8
0
 10
-6.57294
 20
41.8532
 11
-6.22266
 21
41.7145
  0
LINE
  8
0
 10
-6.22266
 20
41.7145
 11
-5.89252
 21
41.533
  0
LINE
  8
0
 10
-5.89252
 20
41.533
 11
-5.58772
 21
41.3116
  0
LINE
  8
0
 10
-5.58772
 20
41.3116
 11
-5.31308
 21
41.0536
  0
LINE
  8
0
 10
-5.31308
 20
41.0536
 11
-5.07294
 21
40.7634
  0
LINE
  8
0
 10
-5.07294
 20
40.7634
 11
-4.87108
 21
40.4453
  0
LINE
  8
0
 10
-4.87108
 20
40.4453
 11
-4.71066
 21
40.1044
  0
LINE
  8
0
 10
-4.71066
 20
40.1044
 11
-4.59424
 21
39.7461
  0
LINE
  8
0
 10
-4.59424
 20
39.7461
 11
-4.52365
 21
39.376
  0
LINE
  8
0
 10
-4.52365
 20
39.376
 11
-4.5
 21
39
  0
LINE
  8
0
 10
-4.5
 20
39
 11
-4.52365
 21
38.624
  0
LINE
  8
0
 10
-4.52365
 20
38.624
 11
-4.59424
 21
38.2539
  0
LINE
  8
0
 10
-4.59424
 20
38.2539
 11
-4.71066
 21
37.8956
  0
LINE
  8
0
 10
-4.71066
 20
37.8956
 11
-4.87108
 21
37.5547
  0
LINE
  8
0
 10
-4.87108
 20
37.5547
 11
-5.07294
 21
37.2366
  0
LINE
  8
0
 10
-5.07294
 20
37.2366
 11
-5.31308
 21
36.9464
  0
LINE
  8
0
 10
-5.31308
 20
36.9464
 11
-5.58772
 21
36.6885
  0
LINE
  8
0
 10
-5.58772
 20
36.6885
 11
-5.89252
 21
36.467
  0
LINE
  8
0
 10
-5.89252
 20
36.467
 11
-6.22266
 21
36.2855
  0
LINE
  8
0
 10
-6.22266
 20
36.2855
 11
-6.57294
 21
36.1468
  0
LINE
  8
0
 10
-6.57294
 20
36.1468
 11
-6.93785
 21
36.0531
  0
LINE
  8
0
 10
-6.93785
 20
36.0531
 11
-7.31161
 21
36.0059
  0
LINE
  8
0
 10
-7.31161
 20
36.0059
 11
-7.68837
 21
36.0059
  0
LINE
  8
0
 10
-15.0942
 20
37.503
 11
-15.2811
 21
37.5266
  0
LINE
  8
0
 10
-15.2811
 20
37.5266
 11
-15.4635
 21
37.5734
  0
LINE
  8
0
 10
-15.4635
 20
37.5734
 11
-15.6387
 21
37.6428
  0
LINE
  8
0
 10
-15.6387
 20
37.6428
 11
-15.8037
 21
37.7335
  0
LINE
  8
0
 10
-15.8037
 20
37.7335
 11
-15.9561
 21
37.8442
  0
LINE
  8
0
 10
-15.9561
 20
37.8442
 11
-16.0934
 21
37.9732
  0
LINE
  8
0
 10
-16.0934
 20
37.9732
 11
-16.2135
 21
38.1183
  0
LINE
  8
0
 10
-16.2135
 20
38.1183
 11
-16.3145
 21
38.2774
  0
LINE
  8
0
 10
-16.3145
 20
38.2774
 11
-16.3947
 21
38.4478
  0
LINE
  8
0
 10
-16.3947
 20
38.4478
 11
-16.4529
 21
38.627
  0
LINE
  8
0
 10
-16.4529
 20
38.627
 11
-16.4882
 21
38.812
  0
LINE
  8
0
 10
-16.4882
 20
38.812
 11
-16.5
 21
39
  0
LINE
  8
0
 10
-16.5
 20
39
 11
-16.4882
 21
39.188
  0
LINE
  8
0
 10
-16.4882
 20
39.188
 11
-16.4529
 21
39.373
  0
LINE
  8
0
 10
-16.4529
 20
39.373
 11
-16.3947
 21
39.5522
  0
LINE
  8
0
 10
-16.3947
 20
39.5522
 11
-16.3145
 21
39.7226
  0
LINE
  8
0
 10
-16.3145
 20
39.7226
 11
-16.2135
 21
39.8817
  0
LINE
  8
0
 10
-16.2135
 20
39.8817
 11
-16.0934
 21
40.0268
  0
LINE
  8
0
 10
-16.0934
 20
40.0268
 11
-15.9561
 21
40.1558
  0
LINE
  8
0
 10
-15.9561
 20
40.1558
 11
-15.8037
 21
40.2665
  0
LINE
  8
0
 10
-15.8037
 20
40.2665
 11
-15.6387
 21
40.3573
  0
LINE
  8
0
 10
-15.6387
 20
40.3573
 11
-15.4635
 21
40.4266
  0
LINE
  8
0
 10
-15.4635
 20
40.4266
 11
-15.2811
 21
40.4734
  0
LINE
  8
0
 10
-15.2811
 20
40.4734
 11
-15.0942
 21
40.4971
  0
LINE
  8
0
 10
-15.0942
 20
40.4971
 11
-14.9058
 21
40.4971
  0
LINE
  8
0
 10
-14.9058
 20
40.4971
 11
-14.7189
 21
40.4734
  0
LINE
  8
0
 10
-14.7189
 20
40.4734
 11
-14.5365
 21
40.4266
  0
LINE
  8
0
 10
-14.5365
 20
40.4266
 11
-14.3613
 21
40.3573
  0
LINE
  8
0
 10
-14.3613
 20
40.3573
 11
-14.1963
 21
40.2665
  0
LINE
  8
0
 10
-14.1963
 20
40.2665
 11
-14.0439
 21
40.1558
  0
LINE
  8
0
 10
-14.0439
 20
40.1558
 11
-13.9065
 21
40.0268
  0
LINE
  8
0
 10
-13.9065
 20
40.0268
 11
-13.7865
 21
39.8817
  0
LINE
  8
0
 10
-13.7865
 20
39.8817
 11
-13.6855
 21
39.7226
  0
LINE
  8
0
 10
-13.6855
 20
39.7226
 11
-13.6053
 21
39.5522
  0
LINE
  8
0
 10
-13.6053
 20
39.5522
 11
-13.5471
 21
39.373
  0
LINE
  8
0
 10
-13.5471
 20
39.373
 11
-13.5118
 21
39.188
  0
LINE
  8
0
 10
-13.5118
 20
39.188
 11
-13.5
 21
39
  0
LINE
  8
0
 10
-13.5
 20
39
 11
-13.5118
 21
38.812
  0
LINE
  8
0
 10
-13.5118
 20
38.812
 11
-13.5471
 21
38.627
  0
LINE
  8
0
 10
-13.5471
 20
38.627
 11
-13.6053
 21
38.4478
  0
LINE
  8
0
 10
-13.6053
 20
38.4478
 11
-13.6855
 21
38.2774
  0
LINE
  8
0
 10
-13.6855
 20
38.2774
 11
-13.7865
 21
38.1183
  0
LINE
  8
0
 10
-13.7865
 20
38.1183
 11
-13.9065
 21
37.9732
  0
LINE
  8
0
 10
-13.9065
 20
37.9732
 11
-14.0439
 21
37.8442
  0
LINE
  8
0
 10
-14.0439
 20
37.8442
 11
-14.1963
 21
37.7335
  0
LINE
  8
0
 10
-14.1963
 20
37.7335
 11
-14.3613
 21
37.6428
  0
LINE
  8
0
 10
-14.3613
 20
37.6428
 11
-14.5365
 21
37.5734
  0
LINE
  8
0
 10
-14.5365
 20
37.5734
 11
-14.7189
 21
37.5266
  0
LINE
  8
0
 10
-14.7189
 20
37.5266
 11
-14.9058
 21
37.503
  0
LINE
  8
0
 10
-14.9058
 20
37.503
 11
-15.0942
 21
37.503
  0
LINE
  8
0
 10
-0.0941772
 20
37.503
 11
-0.281067
 21
37.5266
  0
LINE
  8
0
 10
-0.281067
 20
37.5266
 11
-0.463516
 21
37.5734
  0
LINE
  8
0
 10
-0.463516
 20
37.5734
 11
-0.638657
 21
37.6428
  0
LINE
  8
0
 10
-0.638657
 20
37.6428
 11
-0.803726
 21
37.7335
  0
LINE
  8
0
 10
-0.803726
 20
37.7335
 11
-0.956131
 21
37.8442
  0
LINE
  8
0
 10
-0.956131
 20
37.8442
 11
-1.09344
 21
37.9732
  0
LINE
  8
0
 10
-1.09344
 20
37.9732
 11
-1.21352
 21
38.1183
  0
LINE
  8
0
 10
-1.21352
 20
38.1183
 11
-1.31445
 21
38.2774
  0
LINE
  8
0
 10
-1.31445
 20
38.2774
 11
-1.39465
 21
38.4478
  0
LINE
  8
0
 10
-1.39465
 20
38.4478
 11
-1.45287
 21
38.627
  0
LINE
  8
0
 10
-1.45287
 20
38.627
 11
-1.48816
 21
38.812
  0
LINE
  8
0
 10
-1.48816
 20
38.812
 11
-1.5
 21
39
  0
LINE
  8
0
 10
-1.5
 20
39
 11
-1.48816
 21
39.188
  0
LINE
  8
0
 10
-1.48816
 20
39.188
 11
-1.45287
 21
39.373
  0
LINE
  8
0
 10
-1.45287
 20
39.373
 11
-1.39465
 21
39.5522
  0
LINE
  8
0
 10
-1.39465
 20
39.5522
 11
-1.31445
 21
39.7226
  0
LINE
  8
0
 10
-1.31445
 20
39.7226
 11
-1.21352
 21
39.8817
  0
LINE
  8
0
 10
-1.21352
 20
39.8817
 11
-1.09344
 21
40.0268
  0
LINE
  8
0
 10
-1.09344
 20
40.0268
 11
-0.956131
 21
40.1558
  0
LINE
  8
0
 10
-0.956131
 20
40.1558
 11
-0.803726
 21
40.2665
  0
LINE
  8
0
 10
-0.803726
 20
40.2665
 11
-0.638657
 21
40.3573
  0
LINE
  8
0
 10
-0.638657
 20
40.3573
 11
-0.463516
 21
40.4266
  0
LINE
  8
0
 10
-0.463516
 20
40.4266
 11
-0.281067
 21
40.4734
  0
LINE
  8
0
 10
-0.281067
 20
40.4734
 11
-0.0941772
 21
40.4971
  0
LINE
  8
0
 10
-0.0941772
 20
40.4971
 11
0.0941772
 21
40.4971
  0
LINE
  8
0
 10
0.0941772
 20
40.4971
 11
0.281067
 21
40.4734
  0
LINE
  8
0
 10
0.281067
 20
40.4734
 11
0.463516
 21
40.4266
  0
LINE
  8
0
 10
0.463516
 20
40.4266
 11
0.638657
 21
40.3573
  0
LINE
  8
0
 10
0.638657
 20
40.3573
 11
0.803726
 21
40.2665
  0
LINE
  8
0
 10
0.803726
 20
40.2665
 11
0.956131
 21
40.1558
  0
LINE
  8
0
 10
0.956131
 20
40.1558
 11
1.09344
 21
40.0268
  0
LINE
  8
0
 10
1.09344
 20
40.0268
 11
1.21352
 21
39.8817
  0
LINE
  8
0
 10
1.21352
 20
39.8817
 11
1.31445
 21
39.7226
  0
LINE
  8
0
 10
1.31445
 20
39.7226
 11
1.39465
 21
39.5522
  0
LINE
  8
0
 10
1.39465
 20
39.5522
 11
1.45287
 21
39.373
  0
LINE
  8
0
 10
1.45287
 20
39.373
 11
1.48816
 21
39.188
  0
LINE
  8
0
 10
1.48816
 20
39.188
 11
1.5
 21
39
  0
LINE
  8
0
 10
1.5
 20
39
 11
1.48816
 21
38.812
  0
LINE
  8
0
 10
1.48816
 20
38.812
 11
1.45287
 21
38.627
  0
LINE
  8
0
 10
1.45287
 20
38.627
 11
1.39465
 21
38.4478
  0
LINE
  8
0
 10
1.39465
 20
38.4478
 11
1.31445
 21
38.2774
  0
LINE
  8
0
 10
1.31445
 20
38.2774
 11
1.21352
 21
38.1183
  0
LINE
  8
0
 10
1.21352
 20
38.1183
 11
1.09344
 21
37.9732
  0
LINE
  8
0
 10
1.09344
 20
37.9732
 11
0.956131
 21
37.8442
  0
LINE
  8
0
 10
0.956131
 20
37.8442
 11
0.803726
 21
37.7335
  0
LINE
  8
0
 10
0.803726
 20
37.7335
 11
0.638657
 21
37.6428
  0
LINE
  8
0
 10
0.638657
 20
37.6428
 11
0.463516
 21
37.5734
  0
LINE
  8
0
 10
0.463516
 20
37.5734
 11
0.281067
 21
37.5266
  0
LINE
  8
0
 10
0.281067
 20
37.5266
 11
0.0941772
 21
37.503
  0
LINE
  8
0
 10
0.0941772
 20
37.503
 11
-0.0941772
 21
37.503
  0
LINE
  8
0
 10
14.9058
 20
37.503
 11
14.7189
 21
37.5266
  0
LINE
  8
0
 10
14.7189
 20
37.5266
 11
14.5365
 21
37.5734
  0
LINE
  8
0
 10
14.5365
 20
37.5734
 11
14.3613
 21
37.6428
  0
LINE
  8
0
 10
14.3613
 20
37.6428
 11
14.1963
 21
37.7335
  0
LINE
  8
0
 10
14.1963
 20
37.7335
 11
14.0439
 21
37.8442
  0
LINE
  8
0
 10
14.0439
 20
37.8442
 11
13.9065
 21
37.9732
  0
LINE
  8
0
 10
13.9065
 20
37.9732
 11
13.7865
 21
38.1183
  0
LINE
  8
0
 10
13.7865
 20
38.1183
 11
13.6855
 21
38.2774
  0
LINE
  8
0
 10
13.6855
 20
38.2774
 11
13.6053
 21
38.4478
  0
LINE
  8
0
 10
13.6053
 20
38.4478
 11
13.5471
 21
38.627
  0
LINE
  8
0
 10
13.5471
 20
38.627
 11
13.5118
 21
38.812
  0
LINE
  8
0
 10
13.5118
 20
38.812
 11
13.5
 21
39
  0
LINE
  8
0
 10
13.5
 20
39
 11
13.5118
 21
39.188
  0
LINE
  8
0
 10
13.5118
 20
39.188
 11
13.5471
 21
39.373
  0
LINE
  8
0
 10
13.5471
 20
39.373
 11
13.6053
 21
39.5522
  0
LINE
  8
0
 10
13.6053
 20
39.5522
 11
13.6855
 21
39.7226
  0
LINE
  8
0
 10
13.6855
 20
39.7226
 11
13.7865
 21
39.8817
  0
LINE
  8
0
 10
13.7865
 20
39.8817
 11
13.9065
 21
40.0268
  0
LINE
  8
0
 10
13.9065
 20
40.0268
 11
14.0439
 21
40.1558
  0
LINE
  8
0
 10
14.0439
 20
40.1558
 11
14.1963
 21
40.2665
  0
LINE
  8
0
 10
14.1963
 20
40.2665
 11
14.3613
 21
40.3573
  0
LINE
  8
0
 10
14.3613
 20
40.3573
 11
14.5365
 21
40.4266
  0
LINE
  8
0
 10
14.5365
 20
40.4266
 11
14.7189
 21
40.4734
  0
LINE
  8
0
 10
14.7189
 20
40.4734
 11
14.9058
 21
40.4971
  0
LINE
  8
0
 10
14.9058
 20
40.4971
 11
15.0942
 21
40.4971
  0
LINE
  8
0
 10
15.0942
 20
40.4971
 11
15.2811
 21
40.4734
  0
LINE
  8
0
 10
15.2811
 20
40.4734
 11
15.4635
 21
40.4266
  0
LINE
  8
0
 10
15.4635
 20
40.4266
 11
15.6387
 21
40.3573
  0
LINE
  8
0
 10
15.6387
 20
40.3573
 11
15.8037
 21
40.2665
  0
LINE
  8
0
 10
15.8037
 20
40.2665
 11
15.9561
 21
40.1558
  0
LINE
  8
0
 10
15.9561
 20
40.1558
 11
16.0934
 21
40.0268
  0
LINE
  8
0
 10
16.0934
 20
40.0268
 11
16.2135
 21
39.8817
  0
LINE
  8
0
 10
16.2135
 20
39.8817
 11
16.3145
 21
39.7226
  0
LINE
  8
0
 10
16.3145
 20
39.7226
 11
16.3947
 21
39.5522
  0
LINE
  8
0
 10
16.3947
 20
39.5522
 11
16.4529
 21
39.373
  0
LINE
  8
0
 10
16.4529
 20
39.373
 11
16.4882
 21
39.188
  0
LINE
  8
0
 10
16.4882
 20
39.188
 11
16.5
 21
39
  0
LINE
  8
0
 10
16.5
 20
39
 11
16.4882
 21
38.812
  0
LINE
  8
0
 10
16.4882
 20
38.812
 11
16.4529
 21
38.627
  0
LINE
  8
0
 10
16.4529
 20
38.627
 11
16.3947
 21
38.4478
  0
LINE
  8
0
 10
16.3947
 20
38.4478
 11
16.3145
 21
38.2774
  0
LINE
  8
0
 10
16.3145
 20
38.2774
 11
16.2135
 21
38.1183
  0
LINE
  8
0
 10
16.2135
 20
38.1183
 11
16.0934
 21
37.9732
  0
LINE
  8
0
 10
16.0934
 20
37.9732
 11
15.9561
 21
37.8442
  0
LINE
  8
0
 10
15.9561
 20
37.8442
 11
15.8037
 21
37.7335
  0
LINE
  8
0
 10
15.8037
 20
37.7335
 11
15.6387
 21
37.6428
  0
LINE
  8
0
 10
15.6387
 20
37.6428
 11
15.4635
 21
37.5734
  0
LINE
  8
0
 10
15.4635
 20
37.5734
 11
15.2811
 21
37.5266
  0
LINE
  8
0
 10
15.2811
 20
37.5266
 11
15.0942
 21
37.503
  0
LINE
  8
0
 10
15.0942
 20
37.503
 11
14.9058
 21
37.503
  0
ENDSEC
  0
SECTION
  2
OBJECTS
  0
DICTIONARY
  0
ENDSEC
  0
EOF
