<?xml version="1.0" standalone="no"?>
<!DOCTYPE svg PUBLIC "-//W3C//DTD SVG 1.1//EN" "http://www.w3.org/Graphics/SVG/1.1/DTD/svg11.dtd">
<svg width="104mm" height="30mm" viewBox="-52 -54 104 30" xmlns="http://www.w3.org/2000/svg" version="1.1">
<title>OpenSCAD Model</title>
<path d="
M 47.9369,-24.5886 L 48.5451,-24.7447 L 49.1289,-24.9759 L 49.6791,-25.2784 L 50.1871,-25.6474 L 50.6448,-26.0773
 L 51.0451,-26.5611 L 51.3815,-27.0912 L 51.6489,-27.6594 L 51.8429,-28.2566 L 51.9606,-28.8733 L 52,-29.5
 L 52,-48.5 L 51.9606,-49.1267 L 51.8429,-49.7434 L 51.6489,-50.3406 L 51.3815,-50.9088 L 51.0451,-51.4389
 L 50.6448,-51.9227 L 50.1871,-52.3526 L 49.6791,-52.7216 L 49.1289,-53.0241 L 48.5451,-53.2553 L 47.9369,-53.4114
 L 47.3139,-53.4901 L -47.3139,-53.4901 L -47.9369,-53.4114 L -48.5451,-53.2553 L -49.1289,-53.0241 L -49.6791,-52.7216
 L -50.1871,-52.3526 L -50.6448,-51.9227 L -51.0451,-51.4389 L -51.3815,-50.9088 L -51.6489,-50.3406 L -51.8429,-49.7434
 L -51.9606,-49.1267 L -52,-48.5 L -52,-29.5 L -51.9606,-28.8733 L -51.8429,-28.2566 L -51.6489,-27.6594
 L -51.3815,-27.0912 L -51.0451,-26.5611 L -50.6448,-26.0773 L -50.1871,-25.6474 L -49.6791,-25.2784 L -49.1289,-24.9759
 L -48.5451,-24.7447 L -47.9369,-24.5886 L -47.3139,-24.5099 L 47.3139,-24.5099 z
M -45.1884,-43.5059 L -45.5621,-43.5531 L -45.927,-43.6468 L -46.2773,-43.7855 L -46.6075,-43.967 L -46.9123,-44.1884
 L -47.1869,-44.4464 L -47.427,-44.7366 L -47.6289,-45.0547 L -47.7893,-45.3956 L -47.9057,-45.7539 L -47.9763,-46.124
 L -48,-46.5 L -47.9763,-46.876 L -47.9057,-47.2461 L -47.7893,-47.6044 L -47.6289,-47.9453 L -47.427,-48.2634
 L -47.1869,-48.5536 L -46.9123,-48.8115 L -46.6075,-49.033 L -46.2773,-49.2145 L -45.927,-49.3532 L -45.5621,-49.4469
 L -45.1884,-49.4941 L -44.8116,-49.4941 L -44.4379,-49.4469 L -44.0729,-49.3532 L -43.7227,-49.2145 L -43.3925,-49.033
 L -43.0877,-48.8115 L -42.8131,-48.5536 L -42.5729,-48.2634 L -42.3711,-47.9453 L -42.2107,-47.6044 L -42.0942,-47.2461
 L -42.0237,-46.876 L -42,-46.5 L -42.0237,-46.124 L -42.0942,-45.7539 L -42.2107,-45.3956 L -42.3711,-45.0547
 L -42.5729,-44.7366 L -42.8131,-44.4464 L -43.0877,-44.1884 L -43.3925,-43.967 L -43.7227,-43.7855 L -44.0729,-43.6468
 L -44.4379,-43.5531 L -44.8116,-43.5059 z
M 44.8116,-43.5059 L 44.4379,-43.5531 L 44.0729,-43.6468 L 43.7227,-43.7855 L 43.3925,-43.967 L 43.0877,-44.1884
 L 42.8131,-44.4464 L 42.5729,-44.7366 L 42.3711,-45.0547 L 42.2107,-45.3956 L 42.0942,-45.7539 L 42.0237,-46.124
 L 42,-46.5 L 42.0237,-46.876 L 42.0942,-47.2461 L 42.2107,-47.6044 L 42.3711,-47.9453 L 42.5729,-48.2634
 L 42.8131,-48.5536 L 43.0877,-48.8115 L 43.3925,-49.033 L 43.7227,-49.2145 L 44.0729,-49.3532 L 44.4379,-49.4469
 L 44.8116,-49.4941 L 45.1884,-49.4941 L 45.5621,-49.4469 L 45.927,-49.3532 L 46.2773,-49.2145 L 46.6075,-49.033
 L 46.9123,-48.8115 L 47.1869,-48.5536 L 47.427,-48.2634 L 47.6289,-47.9453 L 47.7893,-47.6044 L 47.9057,-47.2461
 L 47.9763,-46.876 L 48,-46.5 L 47.9763,-46.124 L 47.9057,-45.7539 L 47.7893,-45.3956 L 47.6289,-45.0547
 L 47.427,-44.7366 L 47.1869,-44.4464 L 46.9123,-44.1884 L 46.6075,-43.967 L 46.2773,-43.7855 L 45.927,-43.6468
 L 45.5621,-43.5531 L 45.1884,-43.5059 z
M 24.3721,-29.0197 L 23.1262,-29.1771 L 21.9098,-29.4894 L 20.7422,-29.9517 L 19.6417,-30.5567 L 18.6257,-31.2949
 L 17.7103,-32.1545 L 16.9098,-33.1222 L 16.2369,-34.1825 L 15.7022,-35.3188 L 15.3142,-36.5131 L 15.0788,-37.7467
 L 15,-39 L 15.0788,-40.2533 L 15.3142,-41.4869 L 15.7022,-42.6812 L 16.2369,-43.8175 L 16.9098,-44.8778
 L 17.7103,-45.8455 L 18.6257,-46.7051 L 19.6417,-47.4433 L 20.7422,-48.0483 L 21.9098,-48.5106 L 23.1262,-48.8229
 L 24.3721,-48.9803 L 25.6279,-48.9803 L 26.8738,-48.8229 L 28.0902,-48.5106 L 29.2578,-48.0483 L 30.3583,-47.4433
 L 31.3742,-46.7051 L 32.2897,-45.8455 L 33.0902,-44.8778 L 33.7631,-43.8175 L 34.2978,-42.6812 L 34.6858,-41.4869
 L 34.9211,-40.2533 L 35,-39 L 34.9211,-37.7467 L 34.6858,-36.5131 L 34.2978,-35.3188 L 33.7631,-34.1825
 L 33.0902,-33.1222 L 32.2897,-32.1545 L 31.3742,-31.2949 L 30.3583,-30.5567 L 29.2578,-29.9517 L 28.0902,-29.4894
 L 26.8738,-29.1771 L 25.6279,-29.0197 z
M -25.6279,-29.0197 L -26.8738,-29.1771 L -28.0902,-29.4894 L -29.2578,-29.9517 L -30.3583,-30.5567 L -31.3742,-31.2949
 L -32.2897,-32.1545 L -33.0902,-33.1222 L -33.7631,-34.1825 L -34.2978,-35.3188 L -34.6858,-36.5131 L -34.9211,-37.7467
 L -35,-39 L -34.9211,-40.2533 L -34.6858,-41.4869 L -34.2978,-42.6812 L -33.7631,-43.8175 L -33.0902,-44.8778
 L -32.2897,-45.8455 L -31.3742,-46.7051 L -30.3583,-47.4433 L -29.2578,-48.0483 L -28.0902,-48.5106 L -26.8738,-48.8229
 L -25.6279,-48.9803 L -24.3721,-48.9803 L -23.1262,-48.8229 L -21.9098,-48.5106 L -20.7422,-48.0483 L -19.6417,-47.4433
 L -18.6257,-46.7051 L -17.7103,-45.8455 L -16.9098,-44.8778 L -16.2369,-43.8175 L -15.7022,-42.6812 L -15.3142,-41.4869
 L -15.0788,-40.2533 L -15,-39 L -15.0788,-37.7467 L -15.3142,-36.5131 L -15.7022,-35.3188 L -16.2369,-34.1825
 L -16.9098,-33.1222 L -17.7103,-32.1545 L -18.6257,-31.2949 L -19.6417,-30.5567 L -20.7422,-29.9517 L -21.9098,-29.4894
 L -23.1262,-29.1771 L -24.3721,-29.0197 z
M -0.627899,-29.0197 L -1.87381,-29.1771 L -3.09016,-29.4894 L -4.25778,-29.9517 L -5.35826,-30.5567 L -6.37424,-31.2949
 L -7.28967,-32.1545 L -8.09016,-33.1222 L -8.76306,-34.1825 L -9.29776,-35.3188 L -9.68582,-36.5131 L -9.92114,-37.7467
 L -10,-39 L -9.92114,-40.2533 L -9.68582,-41.4869 L -9.29776,-42.6812 L -8.76306,-43.8175 L -8.09016,-44.8778
 L -7.28967,-45.8455 L -6.37424,-46.7051 L -5.35826,-47.4433 L -4.25778,-48.0483 L -3.09016,-48.5106 L -1.87381,-48.8229
 L -0.627899,-48.9803 L 0.627899,-48.9803 L 1.87381,-48.8229 L 3.09016,-48.5106 L 4.25778,-48.0483 L 5.35826,-47.4433
 L 6.37424,-46.7051 L 7.28967,-45.8455 L 8.09016,-44.8778 L 8.76306,-43.8175 L 9.29776,-42.6812 L 9.68582,-41.4869
 L 9.92114,-40.2533 L 10,-39 L 9.92114,-37.7467 L 9.68582,-36.5131 L 9.29776,-35.3188 L 8.76306,-34.1825
 L 8.09016,-33.1222 L 7.28967,-32.1545 L 6.37424,-31.2949 L 5.35826,-30.5567 L 4.25778,-29.9517 L 3.09016,-29.4894
 L 1.87381,-29.1771 L 0.627899,-29.0197 z
M -45.0942,-37.503 L -45.2811,-37.5266 L -45.4635,-37.5734 L -45.6387,-37.6428 L -45.8037,-37.7335 L -45.9561,-37.8442
 L -46.0934,-37.9732 L -46.2135,-38.1183 L -46.3145,-38.2774 L -46.3947,-38.4478 L -46.4529,-38.627 L -46.4882,-38.812
 L -46.5,-39 L -46.4882,-39.188 L -46.4529,-39.373 L -46.3947,-39.5522 L -46.3145,-39.7226 L -46.2135,-39.8817
 L -46.0934,-40.0268 L -45.9561,-40.1558 L -45.8037,-40.2665 L -45.6387,-40.3572 L -45.4635,-40.4266 L -45.2811,-40.4734
 L -45.0942,-40.497 L -44.9058,-40.497 L -44.7189,-40.4734 L -44.5365,-40.4266 L -44.3613,-40.3572 L -44.1963,-40.2665
 L -44.0439,-40.1558 L -43.9065,-40.0268 L -43.7865,-39.8817 L -43.6855,-39.7226 L -43.6053,-39.5522 L -43.5471,-39.373
 L -43.5118,-39.188 L -43.5,-39 L -43.5118,-38.812 L -43.5471,-38.627 L -43.6053,-38.4478 L -43.6855,-38.2774
 L -43.7865,-38.1183 L -43.9065,-37.9732 L -44.0439,-37.8442 L -44.1963,-37.7335 L -44.3613,-37.6428 L -44.5365,-37.5734
 L -44.7189,-37.5266 L -44.9058,-37.503 z
M 44.9058,-37.503 L 44.7189,-37.5266 L 44.5365,-37.5734 L 44.3613,-37.6428 L 44.1963,-37.7335 L 44.0439,-37.8442
 L 43.9065,-37.9732 L 43.7865,-38.1183 L 43.6855,-38.2774 L 43.6053,-38.4478 L 43.5471,-38.627 L 43.5118,-38.812
 L 43.5,-39 L 43.5118,-39.188 L 43.5471,-39.373 L 43.6053,-39.5522 L 43.6855,-39.7226 L 43.7865,-39.8817
 L 43.9065,-40.0268 L 44.0439,-40.1558 L 44.1963,-40.2665 L 44.3613,-40.3572 L 44.5365,-40.4266 L 44.7189,-40.4734
 L 44.9058,-40.497 L 45.0942,-40.497 L 45.2811,-40.4734 L 45.4635,-40.4266 L 45.6387,-40.3572 L 45.8037,-40.2665
 L 45.9561,-40.1558 L 46.0934,-40.0268 L 46.2135,-39.8817 L 46.3145,-39.7226 L 46.3947,-39.5522 L 46.4529,-39.373
 L 46.4882,-39.188 L 46.5,-39 L 46.4882,-38.812 L 46.4529,-38.627 L 46.3947,-38.4478 L 46.3145,-38.2774
 L 46.2135,-38.1183 L 46.0934,-37.9732 L 45.9561,-37.8442 L 45.8037,-37.7335 L 45.6387,-37.6428 L 45.4635,-37.5734
 L 45.2811,-37.5266 L 45.0942,-37.503 z
M 44.8116,-28.5059 L 44.4379,-28.5531 L 44.0729,-28.6468 L 43.7227,-28.7855 L 43.3925,-28.967 L 43.0877,-29.1885
 L 42.8131,-29.4464 L 42.5729,-29.7366 L 42.3711,-30.0547 L 42.2107,-30.3956 L 42.0942,-30.7539 L 42.0237,-31.124
 L 42,-31.5 L 42.0237,-31.876 L 42.0942,-32.2461 L 42.2107,-32.6044 L 42.3711,-32.9453 L 42.5729,-33.2634
 L 42.8131,-33.5536 L 43.0877,-33.8116 L 43.3925,-34.033 L 43.7227,-34.2145 L 44.0729,-34.3532 L 44.4379,-34.4469
 L 44.8116,-34.4941 L 45.1884,-34.4941 L 45.5621,-34.4469 L 45.927,-34.3532 L 46.2773,-34.2145 L 46.6075,-34.033
 L 46.9123,-33.8116 L 47.1869,-33.5536 L 47.427,-33.2634 L 47.6289,-32.9453 L 47.7893,-32.6044 L 47.9057,-32.2461
 L 47.9763,-31.876 L 48,-31.5 L 47.9763,-31.124 L 47.9057,-30.7539 L 47.7893,-30.3956 L 47.6289,-30.0547
 L 47.427,-29.7366 L 47.1869,-29.4464 L 46.9123,-29.1885 L 46.6075,-28.967 L 46.2773,-28.7855 L 45.927,-28.6468
 L 45.5621,-28.5531 L 45.1884,-28.5059 z
M -45.1884,-28.5059 L -45.5621,-28.5531 L -45.927,-28.6468 L -46.2773,-28.7855 L -46.6075,-28.967 L -46.9123,-29.1885
 L -47.1869,-29.4464 L -47.427,-29.7366 L -47.6289,-30.0547 L -47.7893,-30.3956 L -47.9057,-30.7539 L -47.9763,-31.124
 L -48,-31.5 L -47.9763,-31.876 L -47.9057,-32.2461 L -47.7893,-32.6044 L -47.6289,-32.9453 L -47.427,-33.2634
 L -47.1869,-33.5536 L -46.9123,-33.8116 L -46.6075,-34.033 L -46.2773,-34.2145 L -45.927,-34.3532 L -45.5621,-34.4469
 L -45.1884,-34.4941 L -44.8116,-34.4941 L -44.4379,-34.4469 L -44.0729,-34.3532 L -43.7227,-34.2145 L -43.3925,-34.033
 L -43.0877,-33.8116 L -42.8131,-33.5536 L -42.5729,-33.2634 L -42.3711,-32.9453 L -42.2107,-32.6044 L -42.0942,-32.2461
 L -42.0237,-31.876 L -42,-31.5 L -42.0237,-31.124 L -42.0942,-30.7539 L -42.2107,-30.3956 L -42.3711,-30.0547
 L -42.5729,-29.7366 L -42.8131,-29.4464 L -43.0877,-29.1885 L -43.3925,-28.967 L -43.7227,-28.7855 L -44.0729,-28.6468
 L -44.4379,-28.5531 L -44.8116,-28.5059 z
" stroke="black" fill="lightgray" stroke-width="0.5"/>
</svg>
