<?xml version="1.0" standalone="no"?>
<!DOCTYPE svg PUBLIC "-//W3C//DTD SVG 1.1//EN" "http://www.w3.org/Graphics/SVG/1.1/DTD/svg11.dtd">
<svg width="44mm" height="44mm" viewBox="-22 -76 44 44" xmlns="http://www.w3.org/2000/svg" version="1.1">
<title>OpenSCAD Model</title>
<path d="
M 17.9369,-32.0886 L 18.5451,-32.2447 L 19.1289,-32.4759 L 19.6791,-32.7784 L 20.1871,-33.1474 L 20.6448,-33.5773
 L 21.0451,-34.0611 L 21.3815,-34.5912 L 21.6489,-35.1594 L 21.8429,-35.7566 L 21.9606,-36.3733 L 22,-37
 L 22,-71 L 21.9606,-71.6267 L 21.8429,-72.2434 L 21.6489,-72.8406 L 21.3815,-73.4088 L 21.0451,-73.9389
 L 20.6448,-74.4227 L 20.1871,-74.8526 L 19.6791,-75.2216 L 19.1289,-75.5241 L 18.5451,-75.7553 L 17.9369,-75.9114
 L 17.3139,-75.9901 L -17.3139,-75.9901 L -17.9369,-75.9114 L -18.5451,-75.7553 L -19.1289,-75.5241 L -19.6791,-75.2216
 L -20.1871,-74.8526 L -20.6448,-74.4227 L -21.0451,-73.9389 L -21.3815,-73.4088 L -21.6489,-72.8406 L -21.8429,-72.2434
 L -21.9606,-71.6267 L -22,-71 L -22,-37 L -21.9606,-36.3733 L -21.8429,-35.7566 L -21.6489,-35.1594
 L -21.3815,-34.5912 L -21.0451,-34.0611 L -20.6448,-33.5773 L -20.1871,-33.1474 L -19.6791,-32.7784 L -19.1289,-32.4759
 L -18.5451,-32.2447 L -17.9369,-32.0886 L -17.3139,-32.0099 L 17.3139,-32.0099 z
M -15.1884,-66.0059 L -15.5621,-66.0531 L -15.927,-66.1468 L -16.2773,-66.2855 L -16.6075,-66.467 L -16.9123,-66.6884
 L -17.1869,-66.9464 L -17.427,-67.2366 L -17.6289,-67.5547 L -17.7893,-67.8956 L -17.9057,-68.2539 L -17.9763,-68.624
 L -18,-69 L -17.9763,-69.376 L -17.9057,-69.7461 L -17.7893,-70.1044 L -17.6289,-70.4453 L -17.427,-70.7634
 L -17.1869,-71.0536 L -16.9123,-71.3115 L -16.6075,-71.533 L -16.2773,-71.7145 L -15.927,-71.8532 L -15.5621,-71.9469
 L -15.1884,-71.9941 L -14.8116,-71.9941 L -14.4379,-71.9469 L -14.0729,-71.8532 L -13.7227,-71.7145 L -13.3925,-71.533
 L -13.0877,-71.3115 L -12.8131,-71.0536 L -12.5729,-70.7634 L -12.3711,-70.4453 L -12.2107,-70.1044 L -12.0942,-69.7461
 L -12.0237,-69.376 L -12,-69 L -12.0237,-68.624 L -12.0942,-68.2539 L -12.2107,-67.8956 L -12.3711,-67.5547
 L -12.5729,-67.2366 L -12.8131,-66.9464 L -13.0877,-66.6884 L -13.3925,-66.467 L -13.7227,-66.2855 L -14.0729,-66.1468
 L -14.4379,-66.0531 L -14.8116,-66.0059 z
M 14.8116,-66.0059 L 14.4379,-66.0531 L 14.0729,-66.1468 L 13.7227,-66.2855 L 13.3925,-66.467 L 13.0877,-66.6884
 L 12.8131,-66.9464 L 12.5729,-67.2366 L 12.3711,-67.5547 L 12.2107,-67.8956 L 12.0942,-68.2539 L 12.0237,-68.624
 L 12,-69 L 12.0237,-69.376 L 12.0942,-69.7461 L 12.2107,-70.1044 L 12.3711,-70.4453 L 12.5729,-70.7634
 L 12.8131,-71.0536 L 13.0877,-71.3115 L 13.3925,-71.533 L 13.7227,-71.7145 L 14.0729,-71.8532 L 14.4379,-71.9469
 L 14.8116,-71.9941 L 15.1884,-71.9941 L 15.5621,-71.9469 L 15.927,-71.8532 L 16.2773,-71.7145 L 16.6075,-71.533
 L 16.9123,-71.3115 L 17.1869,-71.0536 L 17.427,-70.7634 L 17.6289,-70.4453 L 17.7893,-70.1044 L 17.9057,-69.7461
 L 17.9763,-69.376 L 18,-69 L 17.9763,-68.624 L 17.9057,-68.2539 L 17.7893,-67.8956 L 17.6289,-67.5547
 L 17.427,-67.2366 L 17.1869,-66.9464 L 16.9123,-66.6884 L 16.6075,-66.467 L 16.2773,-66.2855 L 15.927,-66.1468
 L 15.5621,-66.0531 L 15.1884,-66.0059 z
M -0.722076,-42.5227 L -2.15488,-42.7037 L -3.55368,-43.0629 L -4.89645,-43.5945 L -6.162,-44.2902 L -7.33037,-45.1391
 L -8.38313,-46.1277 L -9.30368,-47.2405 L -10.0775,-48.4598 L -10.6924,-49.7666 L -11.1387,-51.1401 L -11.4093,-52.5587
 L -11.5,-54 L -11.4093,-55.4413 L -11.1387,-56.8599 L -10.6924,-58.2334 L -10.0775,-59.5402 L -9.30368,-60.7595
 L -8.38313,-61.8723 L -7.33037,-62.8609 L -6.162,-63.7098 L -4.89645,-64.4055 L -3.55368,-64.9371 L -2.15488,-65.2963
 L -0.722076,-65.4773 L 0.722076,-65.4773 L 2.15488,-65.2963 L 3.55368,-64.9371 L 4.89645,-64.4055 L 6.162,-63.7098
 L 7.33037,-62.8609 L 8.38313,-61.8723 L 9.30368,-60.7595 L 10.0775,-59.5402 L 10.6924,-58.2334 L 11.1387,-56.8599
 L 11.4093,-55.4413 L 11.5,-54 L 11.4093,-52.5587 L 11.1387,-51.1401 L 10.6924,-49.7666 L 10.0775,-48.4598
 L 9.30368,-47.2405 L 8.38313,-46.1277 L 7.33037,-45.1391 L 6.162,-44.2902 L 4.89645,-43.5945 L 3.55368,-43.0629
 L 2.15488,-42.7037 L 0.722076,-42.5227 z
M 14.8116,-36.0059 L 14.4379,-36.0531 L 14.0729,-36.1468 L 13.7227,-36.2855 L 13.3925,-36.467 L 13.0877,-36.6885
 L 12.8131,-36.9464 L 12.5729,-37.2366 L 12.3711,-37.5547 L 12.2107,-37.8956 L 12.0942,-38.2539 L 12.0237,-38.624
 L 12,-39 L 12.0237,-39.376 L 12.0942,-39.7461 L 12.2107,-40.1044 L 12.3711,-40.4453 L 12.5729,-40.7634
 L 12.8131,-41.0536 L 13.0877,-41.3116 L 13.3925,-41.533 L 13.7227,-41.7145 L 14.0729,-41.8532 L 14.4379,-41.9469
 L 14.8116,-41.9941 L 15.1884,-41.9941 L 15.5621,-41.9469 L 15.927,-41.8532 L 16.2773,-41.7145 L 16.6075,-41.533
 L 16.9123,-41.3116 L 17.1869,-41.0536 L 17.427,-40.7634 L 17.6289,-40.4453 L 17.7893,-40.1044 L 17.9057,-39.7461
 L 17.9763,-39.376 L 18,-39 L 17.9763,-38.624 L 17.9057,-38.2539 L 17.7893,-37.8956 L 17.6289,-37.5547
 L 17.427,-37.2366 L 17.1869,-36.9464 L 16.9123,-36.6885 L 16.6075,-36.467 L 16.2773,-36.2855 L 15.927,-36.1468
 L 15.5621,-36.0531 L 15.1884,-36.0059 z
M -15.1884,-36.0059 L -15.5621,-36.0531 L -15.927,-36.1468 L -16.2773,-36.2855 L -16.6075,-36.467 L -16.9123,-36.6885
 L -17.1869,-36.9464 L -17.427,-37.2366 L -17.6289,-37.5547 L -17.7893,-37.8956 L -17.9057,-38.2539 L -17.9763,-38.624
 L -18,-39 L -17.9763,-39.376 L -17.9057,-39.7461 L -17.7893,-40.1044 L -17.6289,-40.4453 L -17.427,-40.7634
 L -17.1869,-41.0536 L -16.9123,-41.3116 L -16.6075,-41.533 L -16.2773,-41.7145 L -15.927,-41.8532 L -15.5621,-41.9469
 L -15.1884,-41.9941 L -14.8116,-41.9941 L -14.4379,-41.9469 L -14.0729,-41.8532 L -13.7227,-41.7145 L -13.3925,-41.533
 L -13.0877,-41.3116 L -12.8131,-41.0536 L -12.5729,-40.7634 L -12.3711,-40.4453 L -12.2107,-40.1044 L -12.0942,-39.7461
 L -12.0237,-39.376 L -12,-39 L -12.0237,-38.624 L -12.0942,-38.2539 L -12.2107,-37.8956 L -12.3711,-37.5547
 L -12.5729,-37.2366 L -12.8131,-36.9464 L -13.0877,-36.6885 L -13.3925,-36.467 L -13.7227,-36.2855 L -14.0729,-36.1468
 L -14.4379,-36.0531 L -14.8116,-36.0059 z
" stroke="black" fill="lightgray" stroke-width="0.5"/>
</svg>
