<?xml version="1.0" standalone="no"?>
<!DOCTYPE svg PUBLIC "-//W3C//DTD SVG 1.1//EN" "http://www.w3.org/Graphics/SVG/1.1/DTD/svg11.dtd">
<svg width="44mm" height="30mm" viewBox="-22 -15 44 30" xmlns="http://www.w3.org/2000/svg" version="1.1">
<title>OpenSCAD Model</title>
<path d="
M 17.9369,14.4114 L 18.5451,14.2553 L 19.1289,14.0241 L 19.6791,13.7216 L 20.1871,13.3526 L 20.6448,12.9227
 L 21.0451,12.4389 L 21.3815,11.9088 L 21.6489,11.3406 L 21.8429,10.7434 L 21.9606,10.1267 L 22,9.5
 L 22,-9.5 L 21.9606,-10.1267 L 21.8429,-10.7434 L 21.6489,-11.3406 L 21.3815,-11.9088 L 21.0451,-12.4389
 L 20.6448,-12.9227 L 20.1871,-13.3526 L 19.6791,-13.7216 L 19.1289,-14.0241 L 18.5451,-14.2553 L 17.9369,-14.4114
 L 17.3139,-14.4901 L -17.3139,-14.4901 L -17.9369,-14.4114 L -18.5451,-14.2553 L -19.1289,-14.0241 L -19.6791,-13.7216
 L -20.1871,-13.3526 L -20.6448,-12.9227 L -21.0451,-12.4389 L -21.3815,-11.9088 L -21.6489,-11.3406 L -21.8429,-10.7434
 L -21.9606,-10.1267 L -22,-9.5 L -22,9.5 L -21.9606,10.1267 L -21.8429,10.7434 L -21.6489,11.3406
 L -21.3815,11.9088 L -21.0451,12.4389 L -20.6448,12.9227 L -20.1871,13.3526 L -19.6791,13.7216 L -19.1289,14.0241
 L -18.5451,14.2553 L -17.9369,14.4114 L -17.3139,14.4901 L 17.3139,14.4901 z
M 14.8116,-4.50591 L 14.4379,-4.55313 L 14.0729,-4.64682 L 13.7227,-4.78551 L 13.3925,-4.96701 L 13.0877,-5.18845
 L 12.8131,-5.44635 L 12.5729,-5.73663 L 12.3711,-6.05473 L 12.2107,-6.39561 L 12.0942,-6.75392 L 12.0237,-7.12399
 L 12,-7.5 L 12.0237,-7.87599 L 12.0942,-8.24606 L 12.2107,-8.60437 L 12.3711,-8.94525 L 12.5729,-9.26335
 L 12.8131,-9.55363 L 13.0877,-9.81154 L 13.3925,-10.033 L 13.7227,-10.2145 L 14.0729,-10.3532 L 14.4379,-10.4469
 L 14.8116,-10.4941 L 15.1884,-10.4941 L 15.5621,-10.4469 L 15.927,-10.3532 L 16.2773,-10.2145 L 16.6075,-10.033
 L 16.9123,-9.81154 L 17.1869,-9.55363 L 17.427,-9.26335 L 17.6289,-8.94525 L 17.7893,-8.60437 L 17.9057,-8.24606
 L 17.9763,-7.87599 L 18,-7.5 L 17.9763,-7.12399 L 17.9057,-6.75392 L 17.7893,-6.39561 L 17.6289,-6.05473
 L 17.427,-5.73663 L 17.1869,-5.44635 L 16.9123,-5.18845 L 16.6075,-4.96701 L 16.2773,-4.78551 L 15.927,-4.64682
 L 15.5621,-4.55313 L 15.1884,-4.50591 z
M -15.1884,-4.50591 L -15.5621,-4.55313 L -15.927,-4.64682 L -16.2773,-4.78551 L -16.6075,-4.96701 L -16.9123,-5.18845
 L -17.1869,-5.44635 L -17.427,-5.73663 L -17.6289,-6.05473 L -17.7893,-6.39561 L -17.9057,-6.75392 L -17.9763,-7.12399
 L -18,-7.5 L -17.9763,-7.87599 L -17.9057,-8.24606 L -17.7893,-8.60437 L -17.6289,-8.94525 L -17.427,-9.26335
 L -17.1869,-9.55363 L -16.9123,-9.81154 L -16.6075,-10.033 L -16.2773,-10.2145 L -15.927,-10.3532 L -15.5621,-10.4469
 L -15.1884,-10.4941 L -14.8116,-10.4941 L -14.4379,-10.4469 L -14.0729,-10.3532 L -13.7227,-10.2145 L -13.3925,-10.033
 L -13.0877,-9.81154 L -12.8131,-9.55363 L -12.5729,-9.26335 L -12.3711,-8.94525 L -12.2107,-8.60437 L -12.0942,-8.24606
 L -12.0237,-7.87599 L -12,-7.5 L -12.0237,-7.12399 L -12.0942,-6.75392 L -12.2107,-6.39561 L -12.3711,-6.05473
 L -12.5729,-5.73663 L -12.8131,-5.44635 L -13.0877,-5.18845 L -13.3925,-4.96701 L -13.7227,-4.78551 L -14.0729,-4.64682
 L -14.4379,-4.55313 L -14.8116,-4.50591 z
M -8.34534,5.48914 L -9.03059,5.40257 L -9.69958,5.2308 L -10.3418,4.97655 L -10.947,4.6438 L -11.5058,4.23781
 L -12.0093,3.765 L -12.4496,3.23282 L -12.8197,2.64964 L -13.1138,2.02467 L -13.3272,1.36778 L -13.4566,0.689331
 L -13.5,-0 L -13.4566,-0.689331 L -13.3272,-1.36778 L -13.1138,-2.02467 L -12.8197,-2.64964 L -12.4496,-3.23282
 L -12.0093,-3.765 L -11.5058,-4.23781 L -10.947,-4.6438 L -10.3418,-4.97655 L -9.69958,-5.2308 L -9.03059,-5.40257
 L -8.34534,-5.48914 L -7.65465,-5.48914 L -6.96939,-5.40257 L -6.3004,-5.2308 L -5.6582,-4.97655 L -5.05295,-4.6438
 L -4.49416,-4.23781 L -3.99066,-3.765 L -3.5504,-3.23282 L -3.18031,-2.64964 L -2.88622,-2.02467 L -2.67279,-1.36778
 L -2.54337,-0.689331 L -2.5,-0 L -2.54337,0.689331 L -2.67279,1.36778 L -2.88622,2.02467 L -3.18031,2.64964
 L -3.5504,3.23282 L -3.99066,3.765 L -4.49416,4.23781 L -5.05295,4.6438 L -5.6582,4.97655 L -6.3004,5.2308
 L -6.96939,5.40257 L -7.65465,5.48914 z
M 7.65465,5.48914 L 6.96939,5.40257 L 6.3004,5.2308 L 5.6582,4.97655 L 5.05295,4.6438 L 4.49416,4.23781
 L 3.99066,3.765 L 3.5504,3.23282 L 3.18031,2.64964 L 2.88622,2.02467 L 2.67279,1.36778 L 2.54337,0.689331
 L 2.5,-0 L 2.54337,-0.689331 L 2.67279,-1.36778 L 2.88622,-2.02467 L 3.18031,-2.64964 L 3.5504,-3.23282
 L 3.99066,-3.765 L 4.49416,-4.23781 L 5.05295,-4.6438 L 5.6582,-4.97655 L 6.3004,-5.2308 L 6.96939,-5.40257
 L 7.65465,-5.48914 L 8.34534,-5.48914 L 9.03059,-5.40257 L 9.69958,-5.2308 L 10.3418,-4.97655 L 10.947,-4.6438
 L 11.5058,-4.23781 L 12.0093,-3.765 L 12.4496,-3.23282 L 12.8197,-2.64964 L 13.1138,-2.02467 L 13.3272,-1.36778
 L 13.4566,-0.689331 L 13.5,-0 L 13.4566,0.689331 L 13.3272,1.36778 L 13.1138,2.02467 L 12.8197,2.64964
 L 12.4496,3.23282 L 12.0093,3.765 L 11.5058,4.23781 L 10.947,4.6438 L 10.3418,4.97655 L 9.69958,5.2308
 L 9.03059,5.40257 L 8.34534,5.48914 z
M 14.8116,10.4941 L 14.4379,10.4469 L 14.0729,10.3532 L 13.7227,10.2145 L 13.3925,10.033 L 13.0877,9.81154
 L 12.8131,9.55363 L 12.5729,9.26335 L 12.3711,8.94525 L 12.2107,8.60437 L 12.0942,8.24606 L 12.0237,7.87599
 L 12,7.5 L 12.0237,7.12399 L 12.0942,6.75392 L 12.2107,6.39561 L 12.3711,6.05473 L 12.5729,5.73663
 L 12.8131,5.44635 L 13.0877,5.18845 L 13.3925,4.96701 L 13.7227,4.78551 L 14.0729,4.64682 L 14.4379,4.55313
 L 14.8116,4.50591 L 15.1884,4.50591 L 15.5621,4.55313 L 15.927,4.64682 L 16.2773,4.78551 L 16.6075,4.96701
 L 16.9123,5.18845 L 17.1869,5.44635 L 17.427,5.73663 L 17.6289,6.05473 L 17.7893,6.39561 L 17.9057,6.75392
 L 17.9763,7.12399 L 18,7.5 L 17.9763,7.87599 L 17.9057,8.24606 L 17.7893,8.60437 L 17.6289,8.94525
 L 17.427,9.26335 L 17.1869,9.55363 L 16.9123,9.81154 L 16.6075,10.033 L 16.2773,10.2145 L 15.927,10.3532
 L 15.5621,10.4469 L 15.1884,10.4941 z
M -15.1884,10.4941 L -15.5621,10.4469 L -15.927,10.3532 L -16.2773,10.2145 L -16.6075,10.033 L -16.9123,9.81154
 L -17.1869,9.55363 L -17.427,9.26335 L -17.6289,8.94525 L -17.7893,8.60437 L -17.9057,8.24606 L -17.9763,7.87599
 L -18,7.5 L -17.9763,7.12399 L -17.9057,6.75392 L -17.7893,6.39561 L -17.6289,6.05473 L -17.427,5.73663
 L -17.1869,5.44635 L -16.9123,5.18845 L -16.6075,4.96701 L -16.2773,4.78551 L -15.927,4.64682 L -15.5621,4.55313
 L -15.1884,4.50591 L -14.8116,4.50591 L -14.4379,4.55313 L -14.0729,4.64682 L -13.7227,4.78551 L -13.3925,4.96701
 L -13.0877,5.18845 L -12.8131,5.44635 L -12.5729,5.73663 L -12.3711,6.05473 L -12.2107,6.39561 L -12.0942,6.75392
 L -12.0237,7.12399 L -12,7.5 L -12.0237,7.87599 L -12.0942,8.24606 L -12.2107,8.60437 L -12.3711,8.94525
 L -12.5729,9.26335 L -12.8131,9.55363 L -13.0877,9.81154 L -13.3925,10.033 L -13.7227,10.2145 L -14.0729,10.3532
 L -14.4379,10.4469 L -14.8116,10.4941 z
" stroke="black" fill="lightgray" stroke-width="0.5"/>
</svg>
