<?xml version="1.0" standalone="no"?>
<!DOCTYPE svg PUBLIC "-//W3C//DTD SVG 1.1//EN" "http://www.w3.org/Graphics/SVG/1.1/DTD/svg11.dtd">
<svg width="374mm" height="120mm" viewBox="-187 -60 374 120" xmlns="http://www.w3.org/2000/svg" version="1.1">
<title>OpenSCAD Model</title>
<path d="
M 182.937,59.4114 L 183.545,59.2553 L 184.129,59.0241 L 184.679,58.7216 L 185.187,58.3526 L 185.645,57.9227
 L 186.045,57.4389 L 186.382,56.9088 L 186.649,56.3406 L 186.843,55.7434 L 186.961,55.1267 L 187,54.5
 L 187,-54.5 L 186.961,-55.1267 L 186.843,-55.7434 L 186.649,-56.3406 L 186.382,-56.9088 L 186.045,-57.4389
 L 185.645,-57.9227 L 185.187,-58.3526 L 184.679,-58.7216 L 184.129,-59.0241 L 183.545,-59.2553 L 182.937,-59.4114
 L 182.314,-59.4901 L -182.314,-59.4901 L -182.937,-59.4114 L -183.545,-59.2553 L -184.129,-59.0241 L -184.679,-58.7216
 L -185.187,-58.3526 L -185.645,-57.9227 L -186.045,-57.4389 L -186.382,-56.9088 L -186.649,-56.3406 L -186.843,-55.7434
 L -186.961,-55.1267 L -187,-54.5 L -187,54.5 L -186.961,55.1267 L -186.843,55.7434 L -186.649,56.3406
 L -186.382,56.9088 L -186.045,57.4389 L -185.645,57.9227 L -185.187,58.3526 L -184.679,58.7216 L -184.129,59.0241
 L -183.545,59.2553 L -182.937,59.4114 L -182.314,59.4901 L 182.314,59.4901 z
M -180.188,-49.5059 L -180.562,-49.5531 L -180.927,-49.6468 L -181.277,-49.7855 L -181.607,-49.967 L -181.912,-50.1885
 L -182.187,-50.4464 L -182.427,-50.7366 L -182.629,-51.0547 L -182.789,-51.3956 L -182.906,-51.7539 L -182.976,-52.124
 L -183,-52.5 L -182.976,-52.876 L -182.906,-53.2461 L -182.789,-53.6044 L -182.629,-53.9453 L -182.427,-54.2634
 L -182.187,-54.5536 L -181.912,-54.8115 L -181.607,-55.033 L -181.277,-55.2145 L -180.927,-55.3532 L -180.562,-55.4469
 L -180.188,-55.4941 L -179.812,-55.4941 L -179.438,-55.4469 L -179.073,-55.3532 L -178.723,-55.2145 L -178.393,-55.033
 L -178.088,-54.8115 L -177.813,-54.5536 L -177.573,-54.2634 L -177.371,-53.9453 L -177.211,-53.6044 L -177.094,-53.2461
 L -177.024,-52.876 L -177,-52.5 L -177.024,-52.124 L -177.094,-51.7539 L -177.211,-51.3956 L -177.371,-51.0547
 L -177.573,-50.7366 L -177.813,-50.4464 L -178.088,-50.1885 L -178.393,-49.967 L -178.723,-49.7855 L -179.073,-49.6468
 L -179.438,-49.5531 L -179.812,-49.5059 z
M 179.812,-49.5059 L 179.438,-49.5531 L 179.073,-49.6468 L 178.723,-49.7855 L 178.393,-49.967 L 178.088,-50.1885
 L 177.813,-50.4464 L 177.573,-50.7366 L 177.371,-51.0547 L 177.211,-51.3956 L 177.094,-51.7539 L 177.024,-52.124
 L 177,-52.5 L 177.024,-52.876 L 177.094,-53.2461 L 177.211,-53.6044 L 177.371,-53.9453 L 177.573,-54.2634
 L 177.813,-54.5536 L 178.088,-54.8115 L 178.393,-55.033 L 178.723,-55.2145 L 179.073,-55.3532 L 179.438,-55.4469
 L 179.812,-55.4941 L 180.188,-55.4941 L 180.562,-55.4469 L 180.927,-55.3532 L 181.277,-55.2145 L 181.607,-55.033
 L 181.912,-54.8115 L 182.187,-54.5536 L 182.427,-54.2634 L 182.629,-53.9453 L 182.789,-53.6044 L 182.906,-53.2461
 L 182.976,-52.876 L 183,-52.5 L 182.976,-52.124 L 182.906,-51.7539 L 182.789,-51.3956 L 182.629,-51.0547
 L 182.427,-50.7366 L 182.187,-50.4464 L 181.912,-50.1885 L 181.607,-49.967 L 181.277,-49.7855 L 180.927,-49.6468
 L 180.562,-49.5531 L 180.188,-49.5059 z
M -3.45348,54.8915 L -10.306,54.0258 L -16.9959,52.3081 L -23.4179,49.7655 L -29.4705,46.438 L -35.0583,42.3782
 L -40.0933,37.6501 L -44.4959,32.3282 L -48.1969,26.4964 L -51.1377,20.2468 L -53.2721,13.6779 L -54.5663,6.89333
 L -55,-0 L -54.5663,-6.89333 L -53.2721,-13.6779 L -51.1377,-20.2468 L -48.1969,-26.4964 L -44.4959,-32.3282
 L -40.0933,-37.6501 L -35.0583,-42.3782 L -29.4705,-46.438 L -23.4179,-49.7655 L -16.9959,-52.3081 L -10.306,-54.0258
 L -3.45348,-54.8915 L 3.45348,-54.8915 L 10.306,-54.0258 L 16.9959,-52.3081 L 23.4179,-49.7655 L 29.4705,-46.438
 L 35.0583,-42.3782 L 40.0933,-37.6501 L 44.4959,-32.3282 L 48.1969,-26.4964 L 51.1377,-20.2468 L 53.2721,-13.6779
 L 54.5663,-6.89333 L 55,-0 L 54.5663,6.89333 L 53.2721,13.6779 L 51.1377,20.2468 L 48.1969,26.4964
 L 44.4959,32.3282 L 40.0933,37.6501 L 35.0583,42.3782 L 29.4705,46.438 L 23.4179,49.7655 L 16.9959,52.3081
 L 10.306,54.0258 L 3.45348,54.8915 z
M -118.453,54.8915 L -125.306,54.0258 L -131.996,52.3081 L -138.418,49.7655 L -144.47,46.438 L -150.058,42.3782
 L -155.093,37.6501 L -159.496,32.3282 L -163.197,26.4964 L -166.138,20.2468 L -168.272,13.6779 L -169.566,6.89333
 L -170,-0 L -169.566,-6.89333 L -168.272,-13.6779 L -166.138,-20.2468 L -163.197,-26.4964 L -159.496,-32.3282
 L -155.093,-37.6501 L -150.058,-42.3782 L -144.47,-46.438 L -138.418,-49.7655 L -131.996,-52.3081 L -125.306,-54.0258
 L -118.453,-54.8915 L -111.547,-54.8915 L -104.694,-54.0258 L -98.0041,-52.3081 L -91.5821,-49.7655 L -85.5295,-46.438
 L -79.9417,-42.3782 L -74.9067,-37.6501 L -70.5041,-32.3282 L -66.8031,-26.4964 L -63.8623,-20.2468 L -61.7279,-13.6779
 L -60.4337,-6.89333 L -60,-0 L -60.4337,6.89333 L -61.7279,13.6779 L -63.8623,20.2468 L -66.8031,26.4964
 L -70.5041,32.3282 L -74.9067,37.6501 L -79.9417,42.3782 L -85.5295,46.438 L -91.5821,49.7655 L -98.0041,52.3081
 L -104.694,54.0258 L -111.547,54.8915 z
M 111.547,54.8915 L 104.694,54.0258 L 98.0041,52.3081 L 91.5821,49.7655 L 85.5295,46.438 L 79.9417,42.3782
 L 74.9067,37.6501 L 70.5041,32.3282 L 66.8031,26.4964 L 63.8623,20.2468 L 61.7279,13.6779 L 60.4337,6.89333
 L 60,-0 L 60.4337,-6.89333 L 61.7279,-13.6779 L 63.8623,-20.2468 L 66.8031,-26.4964 L 70.5041,-32.3282
 L 74.9067,-37.6501 L 79.9417,-42.3782 L 85.5295,-46.438 L 91.5821,-49.7655 L 98.0041,-52.3081 L 104.694,-54.0258
 L 111.547,-54.8915 L 118.453,-54.8915 L 125.306,-54.0258 L 131.996,-52.3081 L 138.418,-49.7655 L 144.47,-46.438
 L 150.058,-42.3782 L 155.093,-37.6501 L 159.496,-32.3282 L 163.197,-26.4964 L 166.138,-20.2468 L 168.272,-13.6779
 L 169.566,-6.89333 L 170,-0 L 169.566,6.89333 L 168.272,13.6779 L 166.138,20.2468 L 163.197,26.4964
 L 159.496,32.3282 L 155.093,37.6501 L 150.058,42.3782 L 144.47,46.438 L 138.418,49.7655 L 131.996,52.3081
 L 125.306,54.0258 L 118.453,54.8915 z
M -180.094,-43.503 L -180.281,-43.5266 L -180.464,-43.5734 L -180.639,-43.6428 L -180.804,-43.7335 L -180.956,-43.8442
 L -181.093,-43.9732 L -181.214,-44.1183 L -181.314,-44.2774 L -181.395,-44.4478 L -181.453,-44.627 L -181.488,-44.812
 L -181.5,-45 L -181.488,-45.188 L -181.453,-45.373 L -181.395,-45.5522 L -181.314,-45.7226 L -181.214,-45.8817
 L -181.093,-46.0268 L -180.956,-46.1558 L -180.804,-46.2665 L -180.639,-46.3572 L -180.464,-46.4266 L -180.281,-46.4734
 L -180.094,-46.497 L -179.906,-46.497 L -179.719,-46.4734 L -179.536,-46.4266 L -179.361,-46.3572 L -179.196,-46.2665
 L -179.044,-46.1558 L -178.907,-46.0268 L -178.786,-45.8817 L -178.686,-45.7226 L -178.605,-45.5522 L -178.547,-45.373
 L -178.512,-45.188 L -178.5,-45 L -178.512,-44.812 L -178.547,-44.627 L -178.605,-44.4478 L -178.686,-44.2774
 L -178.786,-44.1183 L -178.907,-43.9732 L -179.044,-43.8442 L -179.196,-43.7335 L -179.361,-43.6428 L -179.536,-43.5734
 L -179.719,-43.5266 L -179.906,-43.503 z
M 179.906,-43.503 L 179.719,-43.5266 L 179.536,-43.5734 L 179.361,-43.6428 L 179.196,-43.7335 L 179.044,-43.8442
 L 178.907,-43.9732 L 178.786,-44.1183 L 178.686,-44.2774 L 178.605,-44.4478 L 178.547,-44.627 L 178.512,-44.812
 L 178.5,-45 L 178.512,-45.188 L 178.547,-45.373 L 178.605,-45.5522 L 178.686,-45.7226 L 178.786,-45.8817
 L 178.907,-46.0268 L 179.044,-46.1558 L 179.196,-46.2665 L 179.361,-46.3572 L 179.536,-46.4266 L 179.719,-46.4734
 L 179.906,-46.497 L 180.094,-46.497 L 180.281,-46.4734 L 180.464,-46.4266 L 180.639,-46.3572 L 180.804,-46.2665
 L 180.956,-46.1558 L 181.093,-46.0268 L 181.214,-45.8817 L 181.314,-45.7226 L 181.395,-45.5522 L 181.453,-45.373
 L 181.488,-45.188 L 181.5,-45 L 181.488,-44.812 L 181.453,-44.627 L 181.395,-44.4478 L 181.314,-44.2774
 L 181.214,-44.1183 L 181.093,-43.9732 L 180.956,-43.8442 L 180.804,-43.7335 L 180.639,-43.6428 L 180.464,-43.5734
 L 180.281,-43.5266 L 180.094,-43.503 z
M -180.188,-34.5059 L -180.562,-34.5531 L -180.927,-34.6468 L -181.277,-34.7855 L -181.607,-34.967 L -181.912,-35.1885
 L -182.187,-35.4464 L -182.427,-35.7366 L -182.629,-36.0547 L -182.789,-36.3956 L -182.906,-36.7539 L -182.976,-37.124
 L -183,-37.5 L -182.976,-37.876 L -182.906,-38.2461 L -182.789,-38.6044 L -182.629,-38.9453 L -182.427,-39.2634
 L -182.187,-39.5536 L -181.912,-39.8115 L -181.607,-40.033 L -181.277,-40.2145 L -180.927,-40.3532 L -180.562,-40.4469
 L -180.188,-40.4941 L -179.812,-40.4941 L -179.438,-40.4469 L -179.073,-40.3532 L -178.723,-40.2145 L -178.393,-40.033
 L -178.088,-39.8115 L -177.813,-39.5536 L -177.573,-39.2634 L -177.371,-38.9453 L -177.211,-38.6044 L -177.094,-38.2461
 L -177.024,-37.876 L -177,-37.5 L -177.024,-37.124 L -177.094,-36.7539 L -177.211,-36.3956 L -177.371,-36.0547
 L -177.573,-35.7366 L -177.813,-35.4464 L -178.088,-35.1885 L -178.393,-34.967 L -178.723,-34.7855 L -179.073,-34.6468
 L -179.438,-34.5531 L -179.812,-34.5059 z
M 179.812,-34.5059 L 179.438,-34.5531 L 179.073,-34.6468 L 178.723,-34.7855 L 178.393,-34.967 L 178.088,-35.1885
 L 177.813,-35.4464 L 177.573,-35.7366 L 177.371,-36.0547 L 177.211,-36.3956 L 177.094,-36.7539 L 177.024,-37.124
 L 177,-37.5 L 177.024,-37.876 L 177.094,-38.2461 L 177.211,-38.6044 L 177.371,-38.9453 L 177.573,-39.2634
 L 177.813,-39.5536 L 178.088,-39.8115 L 178.393,-40.033 L 178.723,-40.2145 L 179.073,-40.3532 L 179.438,-40.4469
 L 179.812,-40.4941 L 180.188,-40.4941 L 180.562,-40.4469 L 180.927,-40.3532 L 181.277,-40.2145 L 181.607,-40.033
 L 181.912,-39.8115 L 182.187,-39.5536 L 182.427,-39.2634 L 182.629,-38.9453 L 182.789,-38.6044 L 182.906,-38.2461
 L 182.976,-37.876 L 183,-37.5 L 182.976,-37.124 L 182.906,-36.7539 L 182.789,-36.3956 L 182.629,-36.0547
 L 182.427,-35.7366 L 182.187,-35.4464 L 181.912,-35.1885 L 181.607,-34.967 L 181.277,-34.7855 L 180.927,-34.6468
 L 180.562,-34.5531 L 180.188,-34.5059 z
M -180.094,-28.503 L -180.281,-28.5266 L -180.464,-28.5734 L -180.639,-28.6427 L -180.804,-28.7335 L -180.956,-28.8442
 L -181.093,-28.9732 L -181.214,-29.1183 L -181.314,-29.2774 L -181.395,-29.4478 L -181.453,-29.627 L -181.488,-29.812
 L -181.5,-30 L -181.488,-30.188 L -181.453,-30.373 L -181.395,-30.5522 L -181.314,-30.7226 L -181.214,-30.8817
 L -181.093,-31.0268 L -180.956,-31.1558 L -180.804,-31.2665 L -180.639,-31.3572 L -180.464,-31.4266 L -180.281,-31.4734
 L -180.094,-31.497 L -179.906,-31.497 L -179.719,-31.4734 L -179.536,-31.4266 L -179.361,-31.3572 L -179.196,-31.2665
 L -179.044,-31.1558 L -178.907,-31.0268 L -178.786,-30.8817 L -178.686,-30.7226 L -178.605,-30.5522 L -178.547,-30.373
 L -178.512,-30.188 L -178.5,-30 L -178.512,-29.812 L -178.547,-29.627 L -178.605,-29.4478 L -178.686,-29.2774
 L -178.786,-29.1183 L -178.907,-28.9732 L -179.044,-28.8442 L -179.196,-28.7335 L -179.361,-28.6427 L -179.536,-28.5734
 L -179.719,-28.5266 L -179.906,-28.503 z
M 179.906,-28.503 L 179.719,-28.5266 L 179.536,-28.5734 L 179.361,-28.6427 L 179.196,-28.7335 L 179.044,-28.8442
 L 178.907,-28.9732 L 178.786,-29.1183 L 178.686,-29.2774 L 178.605,-29.4478 L 178.547,-29.627 L 178.512,-29.812
 L 178.5,-30 L 178.512,-30.188 L 178.547,-30.373 L 178.605,-30.5522 L 178.686,-30.7226 L 178.786,-30.8817
 L 178.907,-31.0268 L 179.044,-31.1558 L 179.196,-31.2665 L 179.361,-31.3572 L 179.536,-31.4266 L 179.719,-31.4734
 L 179.906,-31.497 L 180.094,-31.497 L 180.281,-31.4734 L 180.464,-31.4266 L 180.639,-31.3572 L 180.804,-31.2665
 L 180.956,-31.1558 L 181.093,-31.0268 L 181.214,-30.8817 L 181.314,-30.7226 L 181.395,-30.5522 L 181.453,-30.373
 L 181.488,-30.188 L 181.5,-30 L 181.488,-29.812 L 181.453,-29.627 L 181.395,-29.4478 L 181.314,-29.2774
 L 181.214,-29.1183 L 181.093,-28.9732 L 180.956,-28.8442 L 180.804,-28.7335 L 180.639,-28.6427 L 180.464,-28.5734
 L 180.281,-28.5266 L 180.094,-28.503 z
M -180.188,-19.5059 L -180.562,-19.5531 L -180.927,-19.6468 L -181.277,-19.7855 L -181.607,-19.967 L -181.912,-20.1884
 L -182.187,-20.4464 L -182.427,-20.7366 L -182.629,-21.0547 L -182.789,-21.3956 L -182.906,-21.7539 L -182.976,-22.124
 L -183,-22.5 L -182.976,-22.876 L -182.906,-23.2461 L -182.789,-23.6044 L -182.629,-23.9453 L -182.427,-24.2634
 L -182.187,-24.5536 L -181.912,-24.8115 L -181.607,-25.033 L -181.277,-25.2145 L -180.927,-25.3532 L -180.562,-25.4469
 L -180.188,-25.4941 L -179.812,-25.4941 L -179.438,-25.4469 L -179.073,-25.3532 L -178.723,-25.2145 L -178.393,-25.033
 L -178.088,-24.8115 L -177.813,-24.5536 L -177.573,-24.2634 L -177.371,-23.9453 L -177.211,-23.6044 L -177.094,-23.2461
 L -177.024,-22.876 L -177,-22.5 L -177.024,-22.124 L -177.094,-21.7539 L -177.211,-21.3956 L -177.371,-21.0547
 L -177.573,-20.7366 L -177.813,-20.4464 L -178.088,-20.1884 L -178.393,-19.967 L -178.723,-19.7855 L -179.073,-19.6468
 L -179.438,-19.5531 L -179.812,-19.5059 z
M 179.812,-19.5059 L 179.438,-19.5531 L 179.073,-19.6468 L 178.723,-19.7855 L 178.393,-19.967 L 178.088,-20.1884
 L 177.813,-20.4464 L 177.573,-20.7366 L 177.371,-21.0547 L 177.211,-21.3956 L 177.094,-21.7539 L 177.024,-22.124
 L 177,-22.5 L 177.024,-22.876 L 177.094,-23.2461 L 177.211,-23.6044 L 177.371,-23.9453 L 177.573,-24.2634
 L 177.813,-24.5536 L 178.088,-24.8115 L 178.393,-25.033 L 178.723,-25.2145 L 179.073,-25.3532 L 179.438,-25.4469
 L 179.812,-25.4941 L 180.188,-25.4941 L 180.562,-25.4469 L 180.927,-25.3532 L 181.277,-25.2145 L 181.607,-25.033
 L 181.912,-24.8115 L 182.187,-24.5536 L 182.427,-24.2634 L 182.629,-23.9453 L 182.789,-23.6044 L 182.906,-23.2461
 L 182.976,-22.876 L 183,-22.5 L 182.976,-22.124 L 182.906,-21.7539 L 182.789,-21.3956 L 182.629,-21.0547
 L 182.427,-20.7366 L 182.187,-20.4464 L 181.912,-20.1884 L 181.607,-19.967 L 181.277,-19.7855 L 180.927,-19.6468
 L 180.562,-19.5531 L 180.188,-19.5059 z
M 179.906,-13.5029 L 179.719,-13.5266 L 179.536,-13.5734 L 179.361,-13.6427 L 179.196,-13.7335 L 179.044,-13.8442
 L 178.907,-13.9732 L 178.786,-14.1183 L 178.686,-14.2774 L 178.605,-14.4478 L 178.547,-14.627 L 178.512,-14.812
 L 178.5,-15 L 178.512,-15.188 L 178.547,-15.373 L 178.605,-15.5522 L 178.686,-15.7226 L 178.786,-15.8817
 L 178.907,-16.0268 L 179.044,-16.1558 L 179.196,-16.2665 L 179.361,-16.3572 L 179.536,-16.4266 L 179.719,-16.4734
 L 179.906,-16.497 L 180.094,-16.497 L 180.281,-16.4734 L 180.464,-16.4266 L 180.639,-16.3572 L 180.804,-16.2665
 L 180.956,-16.1558 L 181.093,-16.0268 L 181.214,-15.8817 L 181.314,-15.7226 L 181.395,-15.5522 L 181.453,-15.373
 L 181.488,-15.188 L 181.5,-15 L 181.488,-14.812 L 181.453,-14.627 L 181.395,-14.4478 L 181.314,-14.2774
 L 181.214,-14.1183 L 181.093,-13.9732 L 180.956,-13.8442 L 180.804,-13.7335 L 180.639,-13.6427 L 180.464,-13.5734
 L 180.281,-13.5266 L 180.094,-13.5029 z
M -180.094,-13.5029 L -180.281,-13.5266 L -180.464,-13.5734 L -180.639,-13.6427 L -180.804,-13.7335 L -180.956,-13.8442
 L -181.093,-13.9732 L -181.214,-14.1183 L -181.314,-14.2774 L -181.395,-14.4478 L -181.453,-14.627 L -181.488,-14.812
 L -181.5,-15 L -181.488,-15.188 L -181.453,-15.373 L -181.395,-15.5522 L -181.314,-15.7226 L -181.214,-15.8817
 L -181.093,-16.0268 L -180.956,-16.1558 L -180.804,-16.2665 L -180.639,-16.3572 L -180.464,-16.4266 L -180.281,-16.4734
 L -180.094,-16.497 L -179.906,-16.497 L -179.719,-16.4734 L -179.536,-16.4266 L -179.361,-16.3572 L -179.196,-16.2665
 L -179.044,-16.1558 L -178.907,-16.0268 L -178.786,-15.8817 L -178.686,-15.7226 L -178.605,-15.5522 L -178.547,-15.373
 L -178.512,-15.188 L -178.5,-15 L -178.512,-14.812 L -178.547,-14.627 L -178.605,-14.4478 L -178.686,-14.2774
 L -178.786,-14.1183 L -178.907,-13.9732 L -179.044,-13.8442 L -179.196,-13.7335 L -179.361,-13.6427 L -179.536,-13.5734
 L -179.719,-13.5266 L -179.906,-13.5029 z
M -180.188,-4.50591 L -180.562,-4.55313 L -180.927,-4.64682 L -181.277,-4.78551 L -181.607,-4.96701 L -181.912,-5.18845
 L -182.187,-5.44635 L -182.427,-5.73663 L -182.629,-6.05473 L -182.789,-6.39561 L -182.906,-6.75392 L -182.976,-7.12399
 L -183,-7.5 L -182.976,-7.87599 L -182.906,-8.24606 L -182.789,-8.60437 L -182.629,-8.94525 L -182.427,-9.26335
 L -182.187,-9.55363 L -181.912,-9.81154 L -181.607,-10.033 L -181.277,-10.2145 L -180.927,-10.3532 L -180.562,-10.4469
 L -180.188,-10.4941 L -179.812,-10.4941 L -179.438,-10.4469 L -179.073,-10.3532 L -178.723,-10.2145 L -178.393,-10.033
 L -178.088,-9.81154 L -177.813,-9.55363 L -177.573,-9.26335 L -177.371,-8.94525 L -177.211,-8.60437 L -177.094,-8.24606
 L -177.024,-7.87599 L -177,-7.5 L -177.024,-7.12399 L -177.094,-6.75392 L -177.211,-6.39561 L -177.371,-6.05473
 L -177.573,-5.73663 L -177.813,-5.44635 L -178.088,-5.18845 L -178.393,-4.96701 L -178.723,-4.78551 L -179.073,-4.64682
 L -179.438,-4.55313 L -179.812,-4.50591 z
M 179.812,-4.50591 L 179.438,-4.55313 L 179.073,-4.64682 L 178.723,-4.78551 L 178.393,-4.96701 L 178.088,-5.18845
 L 177.813,-5.44635 L 177.573,-5.73663 L 177.371,-6.05473 L 177.211,-6.39561 L 177.094,-6.75392 L 177.024,-7.12399
 L 177,-7.5 L 177.024,-7.87599 L 177.094,-8.24606 L 177.211,-8.60437 L 177.371,-8.94525 L 177.573,-9.26335
 L 177.813,-9.55363 L 178.088,-9.81154 L 178.393,-10.033 L 178.723,-10.2145 L 179.073,-10.3532 L 179.438,-10.4469
 L 179.812,-10.4941 L 180.188,-10.4941 L 180.562,-10.4469 L 180.927,-10.3532 L 181.277,-10.2145 L 181.607,-10.033
 L 181.912,-9.81154 L 182.187,-9.55363 L 182.427,-9.26335 L 182.629,-8.94525 L 182.789,-8.60437 L 182.906,-8.24606
 L 182.976,-7.87599 L 183,-7.5 L 182.976,-7.12399 L 182.906,-6.75392 L 182.789,-6.39561 L 182.629,-6.05473
 L 182.427,-5.73663 L 182.187,-5.44635 L 181.912,-5.18845 L 181.607,-4.96701 L 181.277,-4.78551 L 180.927,-4.64682
 L 180.562,-4.55313 L 180.188,-4.50591 z
M -180.094,1.49704 L -180.281,1.47342 L -180.464,1.42657 L -180.639,1.35724 L -180.804,1.26648 L -180.956,1.15576
 L -181.093,1.02681 L -181.214,0.881668 L -181.314,0.722626 L -181.395,0.552185 L -181.453,0.373032 L -181.488,0.187988
 L -181.5,-0 L -181.488,-0.187988 L -181.453,-0.373032 L -181.395,-0.552185 L -181.314,-0.722626 L -181.214,-0.881668
 L -181.093,-1.02681 L -180.956,-1.15576 L -180.804,-1.26648 L -180.639,-1.35724 L -180.464,-1.42657 L -180.281,-1.47342
 L -180.094,-1.49704 L -179.906,-1.49704 L -179.719,-1.47342 L -179.536,-1.42657 L -179.361,-1.35724 L -179.196,-1.26648
 L -179.044,-1.15576 L -178.907,-1.02681 L -178.786,-0.881668 L -178.686,-0.722626 L -178.605,-0.552185 L -178.547,-0.373032
 L -178.512,-0.187988 L -178.5,-0 L -178.512,0.187988 L -178.547,0.373032 L -178.605,0.552185 L -178.686,0.722626
 L -178.786,0.881668 L -178.907,1.02681 L -179.044,1.15576 L -179.196,1.26648 L -179.361,1.35724 L -179.536,1.42657
 L -179.719,1.47342 L -179.906,1.49704 z
M 179.906,1.49704 L 179.719,1.47342 L 179.536,1.42657 L 179.361,1.35724 L 179.196,1.26648 L 179.044,1.15576
 L 178.907,1.02681 L 178.786,0.881668 L 178.686,0.722626 L 178.605,0.552185 L 178.547,0.373032 L 178.512,0.187988
 L 178.5,-0 L 178.512,-0.187988 L 178.547,-0.373032 L 178.605,-0.552185 L 178.686,-0.722626 L 178.786,-0.881668
 L 178.907,-1.02681 L 179.044,-1.15576 L 179.196,-1.26648 L 179.361,-1.35724 L 179.536,-1.42657 L 179.719,-1.47342
 L 179.906,-1.49704 L 180.094,-1.49704 L 180.281,-1.47342 L 180.464,-1.42657 L 180.639,-1.35724 L 180.804,-1.26648
 L 180.956,-1.15576 L 181.093,-1.02681 L 181.214,-0.881668 L 181.314,-0.722626 L 181.395,-0.552185 L 181.453,-0.373032
 L 181.488,-0.187988 L 181.5,-0 L 181.488,0.187988 L 181.453,0.373032 L 181.395,0.552185 L 181.314,0.722626
 L 181.214,0.881668 L 181.093,1.02681 L 180.956,1.15576 L 180.804,1.26648 L 180.639,1.35724 L 180.464,1.42657
 L 180.281,1.47342 L 180.094,1.49704 z
M -180.188,10.4941 L -180.562,10.4469 L -180.927,10.3532 L -181.277,10.2145 L -181.607,10.033 L -181.912,9.81154
 L -182.187,9.55363 L -182.427,9.26335 L -182.629,8.94525 L -182.789,8.60437 L -182.906,8.24606 L -182.976,7.87599
 L -183,7.5 L -182.976,7.12399 L -182.906,6.75392 L -182.789,6.39561 L -182.629,6.05473 L -182.427,5.73663
 L -182.187,5.44635 L -181.912,5.18845 L -181.607,4.96701 L -181.277,4.78551 L -180.927,4.64682 L -180.562,4.55313
 L -180.188,4.50591 L -179.812,4.50591 L -179.438,4.55313 L -179.073,4.64682 L -178.723,4.78551 L -178.393,4.96701
 L -178.088,5.18845 L -177.813,5.44635 L -177.573,5.73663 L -177.371,6.05473 L -177.211,6.39561 L -177.094,6.75392
 L -177.024,7.12399 L -177,7.5 L -177.024,7.87599 L -177.094,8.24606 L -177.211,8.60437 L -177.371,8.94525
 L -177.573,9.26335 L -177.813,9.55363 L -178.088,9.81154 L -178.393,10.033 L -178.723,10.2145 L -179.073,10.3532
 L -179.438,10.4469 L -179.812,10.4941 z
M 179.812,10.4941 L 179.438,10.4469 L 179.073,10.3532 L 178.723,10.2145 L 178.393,10.033 L 178.088,9.81154
 L 177.813,9.55363 L 177.573,9.26335 L 177.371,8.94525 L 177.211,8.60437 L 177.094,8.24606 L 177.024,7.87599
 L 177,7.5 L 177.024,7.12399 L 177.094,6.75392 L 177.211,6.39561 L 177.371,6.05473 L 177.573,5.73663
 L 177.813,5.44635 L 178.088,5.18845 L 178.393,4.96701 L 178.723,4.78551 L 179.073,4.64682 L 179.438,4.55313
 L 179.812,4.50591 L 180.188,4.50591 L 180.562,4.55313 L 180.927,4.64682 L 181.277,4.78551 L 181.607,4.96701
 L 181.912,5.18845 L 182.187,5.44635 L 182.427,5.73663 L 182.629,6.05473 L 182.789,6.39561 L 182.906,6.75392
 L 182.976,7.12399 L 183,7.5 L 182.976,7.87599 L 182.906,8.24606 L 182.789,8.60437 L 182.629,8.94525
 L 182.427,9.26335 L 182.187,9.55363 L 181.912,9.81154 L 181.607,10.033 L 181.277,10.2145 L 180.927,10.3532
 L 180.562,10.4469 L 180.188,10.4941 z
M 179.906,16.497 L 179.719,16.4734 L 179.536,16.4266 L 179.361,16.3572 L 179.196,16.2665 L 179.044,16.1558
 L 178.907,16.0268 L 178.786,15.8817 L 178.686,15.7226 L 178.605,15.5522 L 178.547,15.373 L 178.512,15.188
 L 178.5,15 L 178.512,14.812 L 178.547,14.627 L 178.605,14.4478 L 178.686,14.2774 L 178.786,14.1183
 L 178.907,13.9732 L 179.044,13.8442 L 179.196,13.7335 L 179.361,13.6427 L 179.536,13.5734 L 179.719,13.5266
 L 179.906,13.5029 L 180.094,13.5029 L 180.281,13.5266 L 180.464,13.5734 L 180.639,13.6427 L 180.804,13.7335
 L 180.956,13.8442 L 181.093,13.9732 L 181.214,14.1183 L 181.314,14.2774 L 181.395,14.4478 L 181.453,14.627
 L 181.488,14.812 L 181.5,15 L 181.488,15.188 L 181.453,15.373 L 181.395,15.5522 L 181.314,15.7226
 L 181.214,15.8817 L 181.093,16.0268 L 180.956,16.1558 L 180.804,16.2665 L 180.639,16.3572 L 180.464,16.4266
 L 180.281,16.4734 L 180.094,16.497 z
M -180.094,16.497 L -180.281,16.4734 L -180.464,16.4266 L -180.639,16.3572 L -180.804,16.2665 L -180.956,16.1558
 L -181.093,16.0268 L -181.214,15.8817 L -181.314,15.7226 L -181.395,15.5522 L -181.453,15.373 L -181.488,15.188
 L -181.5,15 L -181.488,14.812 L -181.453,14.627 L -181.395,14.4478 L -181.314,14.2774 L -181.214,14.1183
 L -181.093,13.9732 L -180.956,13.8442 L -180.804,13.7335 L -180.639,13.6427 L -180.464,13.5734 L -180.281,13.5266
 L -180.094,13.5029 L -179.906,13.5029 L -179.719,13.5266 L -179.536,13.5734 L -179.361,13.6427 L -179.196,13.7335
 L -179.044,13.8442 L -178.907,13.9732 L -178.786,14.1183 L -178.686,14.2774 L -178.605,14.4478 L -178.547,14.627
 L -178.512,14.812 L -178.5,15 L -178.512,15.188 L -178.547,15.373 L -178.605,15.5522 L -178.686,15.7226
 L -178.786,15.8817 L -178.907,16.0268 L -179.044,16.1558 L -179.196,16.2665 L -179.361,16.3572 L -179.536,16.4266
 L -179.719,16.4734 L -179.906,16.497 z
M -180.188,25.4941 L -180.562,25.4469 L -180.927,25.3532 L -181.277,25.2145 L -181.607,25.033 L -181.912,24.8115
 L -182.187,24.5536 L -182.427,24.2634 L -182.629,23.9453 L -182.789,23.6044 L -182.906,23.2461 L -182.976,22.876
 L -183,22.5 L -182.976,22.124 L -182.906,21.7539 L -182.789,21.3956 L -182.629,21.0547 L -182.427,20.7366
 L -182.187,20.4464 L -181.912,20.1884 L -181.607,19.967 L -181.277,19.7855 L -180.927,19.6468 L -180.562,19.5531
 L -180.188,19.5059 L -179.812,19.5059 L -179.438,19.5531 L -179.073,19.6468 L -178.723,19.7855 L -178.393,19.967
 L -178.088,20.1884 L -177.813,20.4464 L -177.573,20.7366 L -177.371,21.0547 L -177.211,21.3956 L -177.094,21.7539
 L -177.024,22.124 L -177,22.5 L -177.024,22.876 L -177.094,23.2461 L -177.211,23.6044 L -177.371,23.9453
 L -177.573,24.2634 L -177.813,24.5536 L -178.088,24.8115 L -178.393,25.033 L -178.723,25.2145 L -179.073,25.3532
 L -179.438,25.4469 L -179.812,25.4941 z
M 179.812,25.4941 L 179.438,25.4469 L 179.073,25.3532 L 178.723,25.2145 L 178.393,25.033 L 178.088,24.8115
 L 177.813,24.5536 L 177.573,24.2634 L 177.371,23.9453 L 177.211,23.6044 L 177.094,23.2461 L 177.024,22.876
 L 177,22.5 L 177.024,22.124 L 177.094,21.7539 L 177.211,21.3956 L 177.371,21.0547 L 177.573,20.7366
 L 177.813,20.4464 L 178.088,20.1884 L 178.393,19.967 L 178.723,19.7855 L 179.073,19.6468 L 179.438,19.5531
 L 179.812,19.5059 L 180.188,19.5059 L 180.562,19.5531 L 180.927,19.6468 L 181.277,19.7855 L 181.607,19.967
 L 181.912,20.1884 L 182.187,20.4464 L 182.427,20.7366 L 182.629,21.0547 L 182.789,21.3956 L 182.906,21.7539
 L 182.976,22.124 L 183,22.5 L 182.976,22.876 L 182.906,23.2461 L 182.789,23.6044 L 182.629,23.9453
 L 182.427,24.2634 L 182.187,24.5536 L 181.912,24.8115 L 181.607,25.033 L 181.277,25.2145 L 180.927,25.3532
 L 180.562,25.4469 L 180.188,25.4941 z
M 179.906,31.497 L 179.719,31.4734 L 179.536,31.4266 L 179.361,31.3572 L 179.196,31.2665 L 179.044,31.1558
 L 178.907,31.0268 L 178.786,30.8817 L 178.686,30.7226 L 178.605,30.5522 L 178.547,30.373 L 178.512,30.188
 L 178.5,30 L 178.512,29.812 L 178.547,29.627 L 178.605,29.4478 L 178.686,29.2774 L 178.786,29.1183
 L 178.907,28.9732 L 179.044,28.8442 L 179.196,28.7335 L 179.361,28.6427 L 179.536,28.5734 L 179.719,28.5266
 L 179.906,28.503 L 180.094,28.503 L 180.281,28.5266 L 180.464,28.5734 L 180.639,28.6427 L 180.804,28.7335
 L 180.956,28.8442 L 181.093,28.9732 L 181.214,29.1183 L 181.314,29.2774 L 181.395,29.4478 L 181.453,29.627
 L 181.488,29.812 L 181.5,30 L 181.488,30.188 L 181.453,30.373 L 181.395,30.5522 L 181.314,30.7226
 L 181.214,30.8817 L 181.093,31.0268 L 180.956,31.1558 L 180.804,31.2665 L 180.639,31.3572 L 180.464,31.4266
 L 180.281,31.4734 L 180.094,31.497 z
M -180.094,31.497 L -180.281,31.4734 L -180.464,31.4266 L -180.639,31.3572 L -180.804,31.2665 L -180.956,31.1558
 L -181.093,31.0268 L -181.214,30.8817 L -181.314,30.7226 L -181.395,30.5522 L -181.453,30.373 L -181.488,30.188
 L -181.5,30 L -181.488,29.812 L -181.453,29.627 L -181.395,29.4478 L -181.314,29.2774 L -181.214,29.1183
 L -181.093,28.9732 L -180.956,28.8442 L -180.804,28.7335 L -180.639,28.6427 L -180.464,28.5734 L -180.281,28.5266
 L -180.094,28.503 L -179.906,28.503 L -179.719,28.5266 L -179.536,28.5734 L -179.361,28.6427 L -179.196,28.7335
 L -179.044,28.8442 L -178.907,28.9732 L -178.786,29.1183 L -178.686,29.2774 L -178.605,29.4478 L -178.547,29.627
 L -178.512,29.812 L -178.5,30 L -178.512,30.188 L -178.547,30.373 L -178.605,30.5522 L -178.686,30.7226
 L -178.786,30.8817 L -178.907,31.0268 L -179.044,31.1558 L -179.196,31.2665 L -179.361,31.3572 L -179.536,31.4266
 L -179.719,31.4734 L -179.906,31.497 z
M -180.188,40.4941 L -180.562,40.4469 L -180.927,40.3532 L -181.277,40.2145 L -181.607,40.033 L -181.912,39.8115
 L -182.187,39.5536 L -182.427,39.2634 L -182.629,38.9453 L -182.789,38.6044 L -182.906,38.2461 L -182.976,37.876
 L -183,37.5 L -182.976,37.124 L -182.906,36.7539 L -182.789,36.3956 L -182.629,36.0547 L -182.427,35.7366
 L -182.187,35.4464 L -181.912,35.1885 L -181.607,34.967 L -181.277,34.7855 L -180.927,34.6468 L -180.562,34.5531
 L -180.188,34.5059 L -179.812,34.5059 L -179.438,34.5531 L -179.073,34.6468 L -178.723,34.7855 L -178.393,34.967
 L -178.088,35.1885 L -177.813,35.4464 L -177.573,35.7366 L -177.371,36.0547 L -177.211,36.3956 L -177.094,36.7539
 L -177.024,37.124 L -177,37.5 L -177.024,37.876 L -177.094,38.2461 L -177.211,38.6044 L -177.371,38.9453
 L -177.573,39.2634 L -177.813,39.5536 L -178.088,39.8115 L -178.393,40.033 L -178.723,40.2145 L -179.073,40.3532
 L -179.438,40.4469 L -179.812,40.4941 z
M 179.812,40.4941 L 179.438,40.4469 L 179.073,40.3532 L 178.723,40.2145 L 178.393,40.033 L 178.088,39.8115
 L 177.813,39.5536 L 177.573,39.2634 L 177.371,38.9453 L 177.211,38.6044 L 177.094,38.2461 L 177.024,37.876
 L 177,37.5 L 177.024,37.124 L 177.094,36.7539 L 177.211,36.3956 L 177.371,36.0547 L 177.573,35.7366
 L 177.813,35.4464 L 178.088,35.1885 L 178.393,34.967 L 178.723,34.7855 L 179.073,34.6468 L 179.438,34.5531
 L 179.812,34.5059 L 180.188,34.5059 L 180.562,34.5531 L 180.927,34.6468 L 181.277,34.7855 L 181.607,34.967
 L 181.912,35.1885 L 182.187,35.4464 L 182.427,35.7366 L 182.629,36.0547 L 182.789,36.3956 L 182.906,36.7539
 L 182.976,37.124 L 183,37.5 L 182.976,37.876 L 182.906,38.2461 L 182.789,38.6044 L 182.629,38.9453
 L 182.427,39.2634 L 182.187,39.5536 L 181.912,39.8115 L 181.607,40.033 L 181.277,40.2145 L 180.927,40.3532
 L 180.562,40.4469 L 180.188,40.4941 z
M 179.906,46.497 L 179.719,46.4734 L 179.536,46.4266 L 179.361,46.3572 L 179.196,46.2665 L 179.044,46.1558
 L 178.907,46.0268 L 178.786,45.8817 L 178.686,45.7226 L 178.605,45.5522 L 178.547,45.373 L 178.512,45.188
 L 178.5,45 L 178.512,44.812 L 178.547,44.627 L 178.605,44.4478 L 178.686,44.2774 L 178.786,44.1183
 L 178.907,43.9732 L 179.044,43.8442 L 179.196,43.7335 L 179.361,43.6428 L 179.536,43.5734 L 179.719,43.5266
 L 179.906,43.503 L 180.094,43.503 L 180.281,43.5266 L 180.464,43.5734 L 180.639,43.6428 L 180.804,43.7335
 L 180.956,43.8442 L 181.093,43.9732 L 181.214,44.1183 L 181.314,44.2774 L 181.395,44.4478 L 181.453,44.627
 L 181.488,44.812 L 181.5,45 L 181.488,45.188 L 181.453,45.373 L 181.395,45.5522 L 181.314,45.7226
 L 181.214,45.8817 L 181.093,46.0268 L 180.956,46.1558 L 180.804,46.2665 L 180.639,46.3572 L 180.464,46.4266
 L 180.281,46.4734 L 180.094,46.497 z
M -180.094,46.497 L -180.281,46.4734 L -180.464,46.4266 L -180.639,46.3572 L -180.804,46.2665 L -180.956,46.1558
 L -181.093,46.0268 L -181.214,45.8817 L -181.314,45.7226 L -181.395,45.5522 L -181.453,45.373 L -181.488,45.188
 L -181.5,45 L -181.488,44.812 L -181.453,44.627 L -181.395,44.4478 L -181.314,44.2774 L -181.214,44.1183
 L -181.093,43.9732 L -180.956,43.8442 L -180.804,43.7335 L -180.639,43.6428 L -180.464,43.5734 L -180.281,43.5266
 L -180.094,43.503 L -179.906,43.503 L -179.719,43.5266 L -179.536,43.5734 L -179.361,43.6428 L -179.196,43.7335
 L -179.044,43.8442 L -178.907,43.9732 L -178.786,44.1183 L -178.686,44.2774 L -178.605,44.4478 L -178.547,44.627
 L -178.512,44.812 L -178.5,45 L -178.512,45.188 L -178.547,45.373 L -178.605,45.5522 L -178.686,45.7226
 L -178.786,45.8817 L -178.907,46.0268 L -179.044,46.1558 L -179.196,46.2665 L -179.361,46.3572 L -179.536,46.4266
 L -179.719,46.4734 L -179.906,46.497 z
M 179.812,55.4941 L 179.438,55.4469 L 179.073,55.3532 L 178.723,55.2145 L 178.393,55.033 L 178.088,54.8115
 L 177.813,54.5536 L 177.573,54.2634 L 177.371,53.9453 L 177.211,53.6044 L 177.094,53.2461 L 177.024,52.876
 L 177,52.5 L 177.024,52.124 L 177.094,51.7539 L 177.211,51.3956 L 177.371,51.0547 L 177.573,50.7366
 L 177.813,50.4464 L 178.088,50.1885 L 178.393,49.967 L 178.723,49.7855 L 179.073,49.6468 L 179.438,49.5531
 L 179.812,49.5059 L 180.188,49.5059 L 180.562,49.5531 L 180.927,49.6468 L 181.277,49.7855 L 181.607,49.967
 L 181.912,50.1885 L 182.187,50.4464 L 182.427,50.7366 L 182.629,51.0547 L 182.789,51.3956 L 182.906,51.7539
 L 182.976,52.124 L 183,52.5 L 182.976,52.876 L 182.906,53.2461 L 182.789,53.6044 L 182.629,53.9453
 L 182.427,54.2634 L 182.187,54.5536 L 181.912,54.8115 L 181.607,55.033 L 181.277,55.2145 L 180.927,55.3532
 L 180.562,55.4469 L 180.188,55.4941 z
M -180.188,55.4941 L -180.562,55.4469 L -180.927,55.3532 L -181.277,55.2145 L -181.607,55.033 L -181.912,54.8115
 L -182.187,54.5536 L -182.427,54.2634 L -182.629,53.9453 L -182.789,53.6044 L -182.906,53.2461 L -182.976,52.876
 L -183,52.5 L -182.976,52.124 L -182.906,51.7539 L -182.789,51.3956 L -182.629,51.0547 L -182.427,50.7366
 L -182.187,50.4464 L -181.912,50.1885 L -181.607,49.967 L -181.277,49.7855 L -180.927,49.6468 L -180.562,49.5531
 L -180.188,49.5059 L -179.812,49.5059 L -179.438,49.5531 L -179.073,49.6468 L -178.723,49.7855 L -178.393,49.967
 L -178.088,50.1885 L -177.813,50.4464 L -177.573,50.7366 L -177.371,51.0547 L -177.211,51.3956 L -177.094,51.7539
 L -177.024,52.124 L -177,52.5 L -177.024,52.876 L -177.094,53.2461 L -177.211,53.6044 L -177.371,53.9453
 L -177.573,54.2634 L -177.813,54.5536 L -178.088,54.8115 L -178.393,55.033 L -178.723,55.2145 L -179.073,55.3532
 L -179.438,55.4469 L -179.812,55.4941 z
" stroke="black" fill="lightgray" stroke-width="0.5"/>
</svg>
