<?xml version="1.0" standalone="no"?>
<!DOCTYPE svg PUBLIC "-//W3C//DTD SVG 1.1//EN" "http://www.w3.org/Graphics/SVG/1.1/DTD/svg11.dtd">
<svg width="90mm" height="44mm" viewBox="-45 -76 90 44" xmlns="http://www.w3.org/2000/svg" version="1.1">
<title>OpenSCAD Model</title>
<path d="
M 40.4369,-32.0886 L 41.0451,-32.2447 L 41.6289,-32.4759 L 42.1791,-32.7784 L 42.6871,-33.1474 L 43.1448,-33.5773
 L 43.5451,-34.0611 L 43.8815,-34.5912 L 44.1489,-35.1594 L 44.3429,-35.7566 L 44.4606,-36.3733 L 44.5,-37
 L 44.5,-71 L 44.4606,-71.6267 L 44.3429,-72.2434 L 44.1489,-72.8406 L 43.8815,-73.4088 L 43.5451,-73.9389
 L 43.1448,-74.4227 L 42.6871,-74.8526 L 42.1791,-75.2216 L 41.6289,-75.5241 L 41.0451,-75.7553 L 40.4369,-75.9114
 L 39.8139,-75.9901 L -39.8139,-75.9901 L -40.4369,-75.9114 L -41.0451,-75.7553 L -41.6289,-75.5241 L -42.1791,-75.2216
 L -42.6871,-74.8526 L -43.1448,-74.4227 L -43.5451,-73.9389 L -43.8815,-73.4088 L -44.1489,-72.8406 L -44.3429,-72.2434
 L -44.4606,-71.6267 L -44.5,-71 L -44.5,-37 L -44.4606,-36.3733 L -44.3429,-35.7566 L -44.1489,-35.1594
 L -43.8815,-34.5912 L -43.5451,-34.0611 L -43.1448,-33.5773 L -42.6871,-33.1474 L -42.1791,-32.7784 L -41.6289,-32.4759
 L -41.0451,-32.2447 L -40.4369,-32.0886 L -39.8139,-32.0099 L 39.8139,-32.0099 z
M -7.68837,-66.0059 L -8.06213,-66.0531 L -8.42705,-66.1468 L -8.77733,-66.2855 L -9.10747,-66.467 L -9.41226,-66.6884
 L -9.6869,-66.9464 L -9.92705,-67.2366 L -10.1289,-67.5547 L -10.2893,-67.8956 L -10.4057,-68.2539 L -10.4763,-68.624
 L -10.5,-69 L -10.4763,-69.376 L -10.4057,-69.7461 L -10.2893,-70.1044 L -10.1289,-70.4453 L -9.92705,-70.7634
 L -9.6869,-71.0536 L -9.41226,-71.3115 L -9.10747,-71.533 L -8.77733,-71.7145 L -8.42705,-71.8532 L -8.06213,-71.9469
 L -7.68837,-71.9941 L -7.31161,-71.9941 L -6.93785,-71.9469 L -6.57294,-71.8532 L -6.22266,-71.7145 L -5.89252,-71.533
 L -5.58772,-71.3115 L -5.31308,-71.0536 L -5.07294,-70.7634 L -4.87108,-70.4453 L -4.71066,-70.1044 L -4.59424,-69.7461
 L -4.52365,-69.376 L -4.5,-69 L -4.52365,-68.624 L -4.59424,-68.2539 L -4.71066,-67.8956 L -4.87108,-67.5547
 L -5.07294,-67.2366 L -5.31308,-66.9464 L -5.58772,-66.6884 L -5.89252,-66.467 L -6.22266,-66.2855 L -6.57294,-66.1468
 L -6.93785,-66.0531 L -7.31161,-66.0059 z
M -37.6884,-66.0059 L -38.0621,-66.0531 L -38.427,-66.1468 L -38.7773,-66.2855 L -39.1075,-66.467 L -39.4123,-66.6884
 L -39.6869,-66.9464 L -39.927,-67.2366 L -40.1289,-67.5547 L -40.2893,-67.8956 L -40.4057,-68.2539 L -40.4763,-68.624
 L -40.5,-69 L -40.4763,-69.376 L -40.4057,-69.7461 L -40.2893,-70.1044 L -40.1289,-70.4453 L -39.927,-70.7634
 L -39.6869,-71.0536 L -39.4123,-71.3115 L -39.1075,-71.533 L -38.7773,-71.7145 L -38.427,-71.8532 L -38.0621,-71.9469
 L -37.6884,-71.9941 L -37.3116,-71.9941 L -36.9379,-71.9469 L -36.5729,-71.8532 L -36.2227,-71.7145 L -35.8925,-71.533
 L -35.5877,-71.3115 L -35.3131,-71.0536 L -35.0729,-70.7634 L -34.8711,-70.4453 L -34.7107,-70.1044 L -34.5942,-69.7461
 L -34.5237,-69.376 L -34.5,-69 L -34.5237,-68.624 L -34.5942,-68.2539 L -34.7107,-67.8956 L -34.8711,-67.5547
 L -35.0729,-67.2366 L -35.3131,-66.9464 L -35.5877,-66.6884 L -35.8925,-66.467 L -36.2227,-66.2855 L -36.5729,-66.1468
 L -36.9379,-66.0531 L -37.3116,-66.0059 z
M 22.3116,-66.0059 L 21.9379,-66.0531 L 21.5729,-66.1468 L 21.2227,-66.2855 L 20.8925,-66.467 L 20.5877,-66.6884
 L 20.3131,-66.9464 L 20.0729,-67.2366 L 19.8711,-67.5547 L 19.7107,-67.8956 L 19.5942,-68.2539 L 19.5237,-68.624
 L 19.5,-69 L 19.5237,-69.376 L 19.5942,-69.7461 L 19.7107,-70.1044 L 19.8711,-70.4453 L 20.0729,-70.7634
 L 20.3131,-71.0536 L 20.5877,-71.3115 L 20.8925,-71.533 L 21.2227,-71.7145 L 21.5729,-71.8532 L 21.9379,-71.9469
 L 22.3116,-71.9941 L 22.6884,-71.9941 L 23.0621,-71.9469 L 23.427,-71.8532 L 23.7773,-71.7145 L 24.1075,-71.533
 L 24.4123,-71.3115 L 24.6869,-71.0536 L 24.927,-70.7634 L 25.1289,-70.4453 L 25.2893,-70.1044 L 25.4057,-69.7461
 L 25.4763,-69.376 L 25.5,-69 L 25.4763,-68.624 L 25.4057,-68.2539 L 25.2893,-67.8956 L 25.1289,-67.5547
 L 24.927,-67.2366 L 24.6869,-66.9464 L 24.4123,-66.6884 L 24.1075,-66.467 L 23.7773,-66.2855 L 23.427,-66.1468
 L 23.0621,-66.0531 L 22.6884,-66.0059 z
M -22.6884,-66.0059 L -23.0621,-66.0531 L -23.427,-66.1468 L -23.7773,-66.2855 L -24.1075,-66.467 L -24.4123,-66.6884
 L -24.6869,-66.9464 L -24.927,-67.2366 L -25.1289,-67.5547 L -25.2893,-67.8956 L -25.4057,-68.2539 L -25.4763,-68.624
 L -25.5,-69 L -25.4763,-69.376 L -25.4057,-69.7461 L -25.2893,-70.1044 L -25.1289,-70.4453 L -24.927,-70.7634
 L -24.6869,-71.0536 L -24.4123,-71.3115 L -24.1075,-71.533 L -23.7773,-71.7145 L -23.427,-71.8532 L -23.0621,-71.9469
 L -22.6884,-71.9941 L -22.3116,-71.9941 L -21.9379,-71.9469 L -21.5729,-71.8532 L -21.2227,-71.7145 L -20.8925,-71.533
 L -20.5877,-71.3115 L -20.3131,-71.0536 L -20.0729,-70.7634 L -19.8711,-70.4453 L -19.7107,-70.1044 L -19.5942,-69.7461
 L -19.5237,-69.376 L -19.5,-69 L -19.5237,-68.624 L -19.5942,-68.2539 L -19.7107,-67.8956 L -19.8711,-67.5547
 L -20.0729,-67.2366 L -20.3131,-66.9464 L -20.5877,-66.6884 L -20.8925,-66.467 L -21.2227,-66.2855 L -21.5729,-66.1468
 L -21.9379,-66.0531 L -22.3116,-66.0059 z
M 7.31161,-66.0059 L 6.93785,-66.0531 L 6.57294,-66.1468 L 6.22266,-66.2855 L 5.89252,-66.467 L 5.58772,-66.6884
 L 5.31308,-66.9464 L 5.07294,-67.2366 L 4.87108,-67.5547 L 4.71066,-67.8956 L 4.59424,-68.2539 L 4.52365,-68.624
 L 4.5,-69 L 4.52365,-69.376 L 4.59424,-69.7461 L 4.71066,-70.1044 L 4.87108,-70.4453 L 5.07294,-70.7634
 L 5.31308,-71.0536 L 5.58772,-71.3115 L 5.89252,-71.533 L 6.22266,-71.7145 L 6.57294,-71.8532 L 6.93785,-71.9469
 L 7.31161,-71.9941 L 7.68837,-71.9941 L 8.06213,-71.9469 L 8.42705,-71.8532 L 8.77733,-71.7145 L 9.10747,-71.533
 L 9.41226,-71.3115 L 9.6869,-71.0536 L 9.92705,-70.7634 L 10.1289,-70.4453 L 10.2893,-70.1044 L 10.4057,-69.7461
 L 10.4763,-69.376 L 10.5,-69 L 10.4763,-68.624 L 10.4057,-68.2539 L 10.2893,-67.8956 L 10.1289,-67.5547
 L 9.92705,-67.2366 L 9.6869,-66.9464 L 9.41226,-66.6884 L 9.10747,-66.467 L 8.77733,-66.2855 L 8.42705,-66.1468
 L 8.06213,-66.0531 L 7.68837,-66.0059 z
M 37.3116,-66.0059 L 36.9379,-66.0531 L 36.5729,-66.1468 L 36.2227,-66.2855 L 35.8925,-66.467 L 35.5877,-66.6884
 L 35.3131,-66.9464 L 35.0729,-67.2366 L 34.8711,-67.5547 L 34.7107,-67.8956 L 34.5942,-68.2539 L 34.5237,-68.624
 L 34.5,-69 L 34.5237,-69.376 L 34.5942,-69.7461 L 34.7107,-70.1044 L 34.8711,-70.4453 L 35.0729,-70.7634
 L 35.3131,-71.0536 L 35.5877,-71.3115 L 35.8925,-71.533 L 36.2227,-71.7145 L 36.5729,-71.8532 L 36.9379,-71.9469
 L 37.3116,-71.9941 L 37.6884,-71.9941 L 38.0621,-71.9469 L 38.427,-71.8532 L 38.7773,-71.7145 L 39.1075,-71.533
 L 39.4123,-71.3115 L 39.6869,-71.0536 L 39.927,-70.7634 L 40.1289,-70.4453 L 40.2893,-70.1044 L 40.4057,-69.7461
 L 40.4763,-69.376 L 40.5,-69 L 40.4763,-68.624 L 40.4057,-68.2539 L 40.2893,-67.8956 L 40.1289,-67.5547
 L 39.927,-67.2366 L 39.6869,-66.9464 L 39.4123,-66.6884 L 39.1075,-66.467 L 38.7773,-66.2855 L 38.427,-66.1468
 L 38.0621,-66.0531 L 37.6884,-66.0059 z
M -15.0942,-67.5029 L -15.2811,-67.5266 L -15.4635,-67.5734 L -15.6387,-67.6427 L -15.8037,-67.7335 L -15.9561,-67.8442
 L -16.0934,-67.9732 L -16.2135,-68.1183 L -16.3145,-68.2774 L -16.3947,-68.4478 L -16.4529,-68.627 L -16.4882,-68.812
 L -16.5,-69 L -16.4882,-69.188 L -16.4529,-69.373 L -16.3947,-69.5522 L -16.3145,-69.7226 L -16.2135,-69.8817
 L -16.0934,-70.0268 L -15.9561,-70.1558 L -15.8037,-70.2665 L -15.6387,-70.3572 L -15.4635,-70.4266 L -15.2811,-70.4734
 L -15.0942,-70.497 L -14.9058,-70.497 L -14.7189,-70.4734 L -14.5365,-70.4266 L -14.3613,-70.3572 L -14.1963,-70.2665
 L -14.0439,-70.1558 L -13.9065,-70.0268 L -13.7865,-69.8817 L -13.6855,-69.7226 L -13.6053,-69.5522 L -13.5471,-69.373
 L -13.5118,-69.188 L -13.5,-69 L -13.5118,-68.812 L -13.5471,-68.627 L -13.6053,-68.4478 L -13.6855,-68.2774
 L -13.7865,-68.1183 L -13.9065,-67.9732 L -14.0439,-67.8442 L -14.1963,-67.7335 L -14.3613,-67.6427 L -14.5365,-67.5734
 L -14.7189,-67.5266 L -14.9058,-67.5029 z
M -0.0941772,-67.5029 L -0.281067,-67.5266 L -0.463516,-67.5734 L -0.638657,-67.6427 L -0.803726,-67.7335 L -0.956131,-67.8442
 L -1.09344,-67.9732 L -1.21352,-68.1183 L -1.31445,-68.2774 L -1.39465,-68.4478 L -1.45287,-68.627 L -1.48816,-68.812
 L -1.5,-69 L -1.48816,-69.188 L -1.45287,-69.373 L -1.39465,-69.5522 L -1.31445,-69.7226 L -1.21352,-69.8817
 L -1.09344,-70.0268 L -0.956131,-70.1558 L -0.803726,-70.2665 L -0.638657,-70.3572 L -0.463516,-70.4266 L -0.281067,-70.4734
 L -0.0941772,-70.497 L 0.0941772,-70.497 L 0.281067,-70.4734 L 0.463516,-70.4266 L 0.638657,-70.3572 L 0.803726,-70.2665
 L 0.956131,-70.1558 L 1.09344,-70.0268 L 1.21352,-69.8817 L 1.31445,-69.7226 L 1.39465,-69.5522 L 1.45287,-69.373
 L 1.48816,-69.188 L 1.5,-69 L 1.48816,-68.812 L 1.45287,-68.627 L 1.39465,-68.4478 L 1.31445,-68.2774
 L 1.21352,-68.1183 L 1.09344,-67.9732 L 0.956131,-67.8442 L 0.803726,-67.7335 L 0.638657,-67.6427 L 0.463516,-67.5734
 L 0.281067,-67.5266 L 0.0941772,-67.5029 z
M 14.9058,-67.5029 L 14.7189,-67.5266 L 14.5365,-67.5734 L 14.3613,-67.6427 L 14.1963,-67.7335 L 14.0439,-67.8442
 L 13.9065,-67.9732 L 13.7865,-68.1183 L 13.6855,-68.2774 L 13.6053,-68.4478 L 13.5471,-68.627 L 13.5118,-68.812
 L 13.5,-69 L 13.5118,-69.188 L 13.5471,-69.373 L 13.6053,-69.5522 L 13.6855,-69.7226 L 13.7865,-69.8817
 L 13.9065,-70.0268 L 14.0439,-70.1558 L 14.1963,-70.2665 L 14.3613,-70.3572 L 14.5365,-70.4266 L 14.7189,-70.4734
 L 14.9058,-70.497 L 15.0942,-70.497 L 15.2811,-70.4734 L 15.4635,-70.4266 L 15.6387,-70.3572 L 15.8037,-70.2665
 L 15.9561,-70.1558 L 16.0934,-70.0268 L 16.2135,-69.8817 L 16.3145,-69.7226 L 16.3947,-69.5522 L 16.4529,-69.373
 L 16.4882,-69.188 L 16.5,-69 L 16.4882,-68.812 L 16.4529,-68.627 L 16.3947,-68.4478 L 16.3145,-68.2774
 L 16.2135,-68.1183 L 16.0934,-67.9732 L 15.9561,-67.8442 L 15.8037,-67.7335 L 15.6387,-67.6427 L 15.4635,-67.5734
 L 15.2811,-67.5266 L 15.0942,-67.5029 z
M 29.9058,-67.5029 L 29.7189,-67.5266 L 29.5365,-67.5734 L 29.3613,-67.6427 L 29.1963,-67.7335 L 29.0439,-67.8442
 L 28.9065,-67.9732 L 28.7865,-68.1183 L 28.6855,-68.2774 L 28.6053,-68.4478 L 28.5471,-68.627 L 28.5118,-68.812
 L 28.5,-69 L 28.5118,-69.188 L 28.5471,-69.373 L 28.6053,-69.5522 L 28.6855,-69.7226 L 28.7865,-69.8817
 L 28.9065,-70.0268 L 29.0439,-70.1558 L 29.1963,-70.2665 L 29.3613,-70.3572 L 29.5365,-70.4266 L 29.7189,-70.4734
 L 29.9058,-70.497 L 30.0942,-70.497 L 30.2811,-70.4734 L 30.4635,-70.4266 L 30.6387,-70.3572 L 30.8037,-70.2665
 L 30.9561,-70.1558 L 31.0934,-70.0268 L 31.2135,-69.8817 L 31.3145,-69.7226 L 31.3947,-69.5522 L 31.4529,-69.373
 L 31.4882,-69.188 L 31.5,-69 L 31.4882,-68.812 L 31.4529,-68.627 L 31.3947,-68.4478 L 31.3145,-68.2774
 L 31.2135,-68.1183 L 31.0934,-67.9732 L 30.9561,-67.8442 L 30.8037,-67.7335 L 30.6387,-67.6427 L 30.4635,-67.5734
 L 30.2811,-67.5266 L 30.0942,-67.5029 z
M -30.0942,-67.5029 L -30.2811,-67.5266 L -30.4635,-67.5734 L -30.6387,-67.6427 L -30.8037,-67.7335 L -30.9561,-67.8442
 L -31.0934,-67.9732 L -31.2135,-68.1183 L -31.3145,-68.2774 L -31.3947,-68.4478 L -31.4529,-68.627 L -31.4882,-68.812
 L -31.5,-69 L -31.4882,-69.188 L -31.4529,-69.373 L -31.3947,-69.5522 L -31.3145,-69.7226 L -31.2135,-69.8817
 L -31.0934,-70.0268 L -30.9561,-70.1558 L -30.8037,-70.2665 L -30.6387,-70.3572 L -30.4635,-70.4266 L -30.2811,-70.4734
 L -30.0942,-70.497 L -29.9058,-70.497 L -29.7189,-70.4734 L -29.5365,-70.4266 L -29.3613,-70.3572 L -29.1963,-70.2665
 L -29.0439,-70.1558 L -28.9065,-70.0268 L -28.7865,-69.8817 L -28.6855,-69.7226 L -28.6053,-69.5522 L -28.5471,-69.373
 L -28.5118,-69.188 L -28.5,-69 L -28.5118,-68.812 L -28.5471,-68.627 L -28.6053,-68.4478 L -28.6855,-68.2774
 L -28.7865,-68.1183 L -28.9065,-67.9732 L -29.0439,-67.8442 L -29.1963,-67.7335 L -29.3613,-67.6427 L -29.5365,-67.5734
 L -29.7189,-67.5266 L -29.9058,-67.5029 z
M -32.3453,-48.5109 L -33.0306,-48.5974 L -33.6996,-48.7692 L -34.3418,-49.0235 L -34.947,-49.3562 L -35.5058,-49.7622
 L -36.0093,-50.235 L -36.4496,-50.7672 L -36.8197,-51.3504 L -37.1138,-51.9753 L -37.3272,-52.6322 L -37.4566,-53.3107
 L -37.5,-54 L -37.4566,-54.6893 L -37.3272,-55.3678 L -37.1138,-56.0247 L -36.8197,-56.6496 L -36.4496,-57.2328
 L -36.0093,-57.765 L -35.5058,-58.2378 L -34.947,-58.6438 L -34.3418,-58.9765 L -33.6996,-59.2308 L -33.0306,-59.4026
 L -32.3453,-59.4891 L -31.6546,-59.4891 L -30.9694,-59.4026 L -30.3004,-59.2308 L -29.6582,-58.9765 L -29.0529,-58.6438
 L -28.4942,-58.2378 L -27.9907,-57.765 L -27.5504,-57.2328 L -27.1803,-56.6496 L -26.8862,-56.0247 L -26.6728,-55.3678
 L -26.5434,-54.6893 L -26.5,-54 L -26.5434,-53.3107 L -26.6728,-52.6322 L -26.8862,-51.9753 L -27.1803,-51.3504
 L -27.5504,-50.7672 L -27.9907,-50.235 L -28.4942,-49.7622 L -29.0529,-49.3562 L -29.6582,-49.0235 L -30.3004,-48.7692
 L -30.9694,-48.5974 L -31.6546,-48.5109 z
M -16.3453,-48.5109 L -17.0306,-48.5974 L -17.6996,-48.7692 L -18.3418,-49.0235 L -18.947,-49.3562 L -19.5058,-49.7622
 L -20.0093,-50.235 L -20.4496,-50.7672 L -20.8197,-51.3504 L -21.1138,-51.9753 L -21.3272,-52.6322 L -21.4566,-53.3107
 L -21.5,-54 L -21.4566,-54.6893 L -21.3272,-55.3678 L -21.1138,-56.0247 L -20.8197,-56.6496 L -20.4496,-57.2328
 L -20.0093,-57.765 L -19.5058,-58.2378 L -18.947,-58.6438 L -18.3418,-58.9765 L -17.6996,-59.2308 L -17.0306,-59.4026
 L -16.3453,-59.4891 L -15.6546,-59.4891 L -14.9694,-59.4026 L -14.3004,-59.2308 L -13.6582,-58.9765 L -13.0529,-58.6438
 L -12.4942,-58.2378 L -11.9907,-57.765 L -11.5504,-57.2328 L -11.1803,-56.6496 L -10.8862,-56.0247 L -10.6728,-55.3678
 L -10.5434,-54.6893 L -10.5,-54 L -10.5434,-53.3107 L -10.6728,-52.6322 L -10.8862,-51.9753 L -11.1803,-51.3504
 L -11.5504,-50.7672 L -11.9907,-50.235 L -12.4942,-49.7622 L -13.0529,-49.3562 L -13.6582,-49.0235 L -14.3004,-48.7692
 L -14.9694,-48.5974 L -15.6546,-48.5109 z
M -0.345337,-48.5109 L -1.03059,-48.5974 L -1.69958,-48.7692 L -2.34178,-49.0235 L -2.94704,-49.3562 L -3.50583,-49.7622
 L -4.00932,-50.235 L -4.44958,-50.7672 L -4.81967,-51.3504 L -5.11377,-51.9753 L -5.32719,-52.6322 L -5.45662,-53.3107
 L -5.5,-54 L -5.45662,-54.6893 L -5.32719,-55.3678 L -5.11377,-56.0247 L -4.81967,-56.6496 L -4.44958,-57.2328
 L -4.00932,-57.765 L -3.50583,-58.2378 L -2.94704,-58.6438 L -2.34178,-58.9765 L -1.69958,-59.2308 L -1.03059,-59.4026
 L -0.345337,-59.4891 L 0.345337,-59.4891 L 1.03059,-59.4026 L 1.69958,-59.2308 L 2.34178,-58.9765 L 2.94704,-58.6438
 L 3.50583,-58.2378 L 4.00932,-57.765 L 4.44958,-57.2328 L 4.81967,-56.6496 L 5.11377,-56.0247 L 5.32719,-55.3678
 L 5.45662,-54.6893 L 5.5,-54 L 5.45662,-53.3107 L 5.32719,-52.6322 L 5.11377,-51.9753 L 4.81967,-51.3504
 L 4.44958,-50.7672 L 4.00932,-50.235 L 3.50583,-49.7622 L 2.94704,-49.3562 L 2.34178,-49.0235 L 1.69958,-48.7692
 L 1.03059,-48.5974 L 0.345337,-48.5109 z
M 31.6546,-48.5109 L 30.9694,-48.5974 L 30.3004,-48.7692 L 29.6582,-49.0235 L 29.0529,-49.3562 L 28.4942,-49.7622
 L 27.9907,-50.235 L 27.5504,-50.7672 L 27.1803,-51.3504 L 26.8862,-51.9753 L 26.6728,-52.6322 L 26.5434,-53.3107
 L 26.5,-54 L 26.5434,-54.6893 L 26.6728,-55.3678 L 26.8862,-56.0247 L 27.1803,-56.6496 L 27.5504,-57.2328
 L 27.9907,-57.765 L 28.4942,-58.2378 L 29.0529,-58.6438 L 29.6582,-58.9765 L 30.3004,-59.2308 L 30.9694,-59.4026
 L 31.6546,-59.4891 L 32.3453,-59.4891 L 33.0306,-59.4026 L 33.6996,-59.2308 L 34.3418,-58.9765 L 34.947,-58.6438
 L 35.5058,-58.2378 L 36.0093,-57.765 L 36.4496,-57.2328 L 36.8197,-56.6496 L 37.1138,-56.0247 L 37.3272,-55.3678
 L 37.4566,-54.6893 L 37.5,-54 L 37.4566,-53.3107 L 37.3272,-52.6322 L 37.1138,-51.9753 L 36.8197,-51.3504
 L 36.4496,-50.7672 L 36.0093,-50.235 L 35.5058,-49.7622 L 34.947,-49.3562 L 34.3418,-49.0235 L 33.6996,-48.7692
 L 33.0306,-48.5974 L 32.3453,-48.5109 z
M 15.6546,-48.5109 L 14.9694,-48.5974 L 14.3004,-48.7692 L 13.6582,-49.0235 L 13.0529,-49.3562 L 12.4942,-49.7622
 L 11.9907,-50.235 L 11.5504,-50.7672 L 11.1803,-51.3504 L 10.8862,-51.9753 L 10.6728,-52.6322 L 10.5434,-53.3107
 L 10.5,-54 L 10.5434,-54.6893 L 10.6728,-55.3678 L 10.8862,-56.0247 L 11.1803,-56.6496 L 11.5504,-57.2328
 L 11.9907,-57.765 L 12.4942,-58.2378 L 13.0529,-58.6438 L 13.6582,-58.9765 L 14.3004,-59.2308 L 14.9694,-59.4026
 L 15.6546,-59.4891 L 16.3453,-59.4891 L 17.0306,-59.4026 L 17.6996,-59.2308 L 18.3418,-58.9765 L 18.947,-58.6438
 L 19.5058,-58.2378 L 20.0093,-57.765 L 20.4496,-57.2328 L 20.8197,-56.6496 L 21.1138,-56.0247 L 21.3272,-55.3678
 L 21.4566,-54.6893 L 21.5,-54 L 21.4566,-53.3107 L 21.3272,-52.6322 L 21.1138,-51.9753 L 20.8197,-51.3504
 L 20.4496,-50.7672 L 20.0093,-50.235 L 19.5058,-49.7622 L 18.947,-49.3562 L 18.3418,-49.0235 L 17.6996,-48.7692
 L 17.0306,-48.5974 L 16.3453,-48.5109 z
M 37.3116,-36.0059 L 36.9379,-36.0531 L 36.5729,-36.1468 L 36.2227,-36.2855 L 35.8925,-36.467 L 35.5877,-36.6885
 L 35.3131,-36.9464 L 35.0729,-37.2366 L 34.8711,-37.5547 L 34.7107,-37.8956 L 34.5942,-38.2539 L 34.5237,-38.624
 L 34.5,-39 L 34.5237,-39.376 L 34.5942,-39.7461 L 34.7107,-40.1044 L 34.8711,-40.4453 L 35.0729,-40.7634
 L 35.3131,-41.0536 L 35.5877,-41.3116 L 35.8925,-41.533 L 36.2227,-41.7145 L 36.5729,-41.8532 L 36.9379,-41.9469
 L 37.3116,-41.9941 L 37.6884,-41.9941 L 38.0621,-41.9469 L 38.427,-41.8532 L 38.7773,-41.7145 L 39.1075,-41.533
 L 39.4123,-41.3116 L 39.6869,-41.0536 L 39.927,-40.7634 L 40.1289,-40.4453 L 40.2893,-40.1044 L 40.4057,-39.7461
 L 40.4763,-39.376 L 40.5,-39 L 40.4763,-38.624 L 40.4057,-38.2539 L 40.2893,-37.8956 L 40.1289,-37.5547
 L 39.927,-37.2366 L 39.6869,-36.9464 L 39.4123,-36.6885 L 39.1075,-36.467 L 38.7773,-36.2855 L 38.427,-36.1468
 L 38.0621,-36.0531 L 37.6884,-36.0059 z
M 22.3116,-36.0059 L 21.9379,-36.0531 L 21.5729,-36.1468 L 21.2227,-36.2855 L 20.8925,-36.467 L 20.5877,-36.6885
 L 20.3131,-36.9464 L 20.0729,-37.2366 L 19.8711,-37.5547 L 19.7107,-37.8956 L 19.5942,-38.2539 L 19.5237,-38.624
 L 19.5,-39 L 19.5237,-39.376 L 19.5942,-39.7461 L 19.7107,-40.1044 L 19.8711,-40.4453 L 20.0729,-40.7634
 L 20.3131,-41.0536 L 20.5877,-41.3116 L 20.8925,-41.533 L 21.2227,-41.7145 L 21.5729,-41.8532 L 21.9379,-41.9469
 L 22.3116,-41.9941 L 22.6884,-41.9941 L 23.0621,-41.9469 L 23.427,-41.8532 L 23.7773,-41.7145 L 24.1075,-41.533
 L 24.4123,-41.3116 L 24.6869,-41.0536 L 24.927,-40.7634 L 25.1289,-40.4453 L 25.2893,-40.1044 L 25.4057,-39.7461
 L 25.4763,-39.376 L 25.5,-39 L 25.4763,-38.624 L 25.4057,-38.2539 L 25.2893,-37.8956 L 25.1289,-37.5547
 L 24.927,-37.2366 L 24.6869,-36.9464 L 24.4123,-36.6885 L 24.1075,-36.467 L 23.7773,-36.2855 L 23.427,-36.1468
 L 23.0621,-36.0531 L 22.6884,-36.0059 z
M -7.68837,-36.0059 L -8.06213,-36.0531 L -8.42705,-36.1468 L -8.77733,-36.2855 L -9.10747,-36.467 L -9.41226,-36.6885
 L -9.6869,-36.9464 L -9.92705,-37.2366 L -10.1289,-37.5547 L -10.2893,-37.8956 L -10.4057,-38.2539 L -10.4763,-38.624
 L -10.5,-39 L -10.4763,-39.376 L -10.4057,-39.7461 L -10.2893,-40.1044 L -10.1289,-40.4453 L -9.92705,-40.7634
 L -9.6869,-41.0536 L -9.41226,-41.3116 L -9.10747,-41.533 L -8.77733,-41.7145 L -8.42705,-41.8532 L -8.06213,-41.9469
 L -7.68837,-41.9941 L -7.31161,-41.9941 L -6.93785,-41.9469 L -6.57294,-41.8532 L -6.22266,-41.7145 L -5.89252,-41.533
 L -5.58772,-41.3116 L -5.31308,-41.0536 L -5.07294,-40.7634 L -4.87108,-40.4453 L -4.71066,-40.1044 L -4.59424,-39.7461
 L -4.52365,-39.376 L -4.5,-39 L -4.52365,-38.624 L -4.59424,-38.2539 L -4.71066,-37.8956 L -4.87108,-37.5547
 L -5.07294,-37.2366 L -5.31308,-36.9464 L -5.58772,-36.6885 L -5.89252,-36.467 L -6.22266,-36.2855 L -6.57294,-36.1468
 L -6.93785,-36.0531 L -7.31161,-36.0059 z
M -22.6884,-36.0059 L -23.0621,-36.0531 L -23.427,-36.1468 L -23.7773,-36.2855 L -24.1075,-36.467 L -24.4123,-36.6885
 L -24.6869,-36.9464 L -24.927,-37.2366 L -25.1289,-37.5547 L -25.2893,-37.8956 L -25.4057,-38.2539 L -25.4763,-38.624
 L -25.5,-39 L -25.4763,-39.376 L -25.4057,-39.7461 L -25.2893,-40.1044 L -25.1289,-40.4453 L -24.927,-40.7634
 L -24.6869,-41.0536 L -24.4123,-41.3116 L -24.1075,-41.533 L -23.7773,-41.7145 L -23.427,-41.8532 L -23.0621,-41.9469
 L -22.6884,-41.9941 L -22.3116,-41.9941 L -21.9379,-41.9469 L -21.5729,-41.8532 L -21.2227,-41.7145 L -20.8925,-41.533
 L -20.5877,-41.3116 L -20.3131,-41.0536 L -20.0729,-40.7634 L -19.8711,-40.4453 L -19.7107,-40.1044 L -19.5942,-39.7461
 L -19.5237,-39.376 L -19.5,-39 L -19.5237,-38.624 L -19.5942,-38.2539 L -19.7107,-37.8956 L -19.8711,-37.5547
 L -20.0729,-37.2366 L -20.3131,-36.9464 L -20.5877,-36.6885 L -20.8925,-36.467 L -21.2227,-36.2855 L -21.5729,-36.1468
 L -21.9379,-36.0531 L -22.3116,-36.0059 z
M 7.31161,-36.0059 L 6.93785,-36.0531 L 6.57294,-36.1468 L 6.22266,-36.2855 L 5.89252,-36.467 L 5.58772,-36.6885
 L 5.31308,-36.9464 L 5.07294,-37.2366 L 4.87108,-37.5547 L 4.71066,-37.8956 L 4.59424,-38.2539 L 4.52365,-38.624
 L 4.5,-39 L 4.52365,-39.376 L 4.59424,-39.7461 L 4.71066,-40.1044 L 4.87108,-40.4453 L 5.07294,-40.7634
 L 5.31308,-41.0536 L 5.58772,-41.3116 L 5.89252,-41.533 L 6.22266,-41.7145 L 6.57294,-41.8532 L 6.93785,-41.9469
 L 7.31161,-41.9941 L 7.68837,-41.9941 L 8.06213,-41.9469 L 8.42705,-41.8532 L 8.77733,-41.7145 L 9.10747,-41.533
 L 9.41226,-41.3116 L 9.6869,-41.0536 L 9.92705,-40.7634 L 10.1289,-40.4453 L 10.2893,-40.1044 L 10.4057,-39.7461
 L 10.4763,-39.376 L 10.5,-39 L 10.4763,-38.624 L 10.4057,-38.2539 L 10.2893,-37.8956 L 10.1289,-37.5547
 L 9.92705,-37.2366 L 9.6869,-36.9464 L 9.41226,-36.6885 L 9.10747,-36.467 L 8.77733,-36.2855 L 8.42705,-36.1468
 L 8.06213,-36.0531 L 7.68837,-36.0059 z
M -37.6884,-36.0059 L -38.0621,-36.0531 L -38.427,-36.1468 L -38.7773,-36.2855 L -39.1075,-36.467 L -39.4123,-36.6885
 L -39.6869,-36.9464 L -39.927,-37.2366 L -40.1289,-37.5547 L -40.2893,-37.8956 L -40.4057,-38.2539 L -40.4763,-38.624
 L -40.5,-39 L -40.4763,-39.376 L -40.4057,-39.7461 L -40.2893,-40.1044 L -40.1289,-40.4453 L -39.927,-40.7634
 L -39.6869,-41.0536 L -39.4123,-41.3116 L -39.1075,-41.533 L -38.7773,-41.7145 L -38.427,-41.8532 L -38.0621,-41.9469
 L -37.6884,-41.9941 L -37.3116,-41.9941 L -36.9379,-41.9469 L -36.5729,-41.8532 L -36.2227,-41.7145 L -35.8925,-41.533
 L -35.5877,-41.3116 L -35.3131,-41.0536 L -35.0729,-40.7634 L -34.8711,-40.4453 L -34.7107,-40.1044 L -34.5942,-39.7461
 L -34.5237,-39.376 L -34.5,-39 L -34.5237,-38.624 L -34.5942,-38.2539 L -34.7107,-37.8956 L -34.8711,-37.5547
 L -35.0729,-37.2366 L -35.3131,-36.9464 L -35.5877,-36.6885 L -35.8925,-36.467 L -36.2227,-36.2855 L -36.5729,-36.1468
 L -36.9379,-36.0531 L -37.3116,-36.0059 z
M 29.9058,-37.503 L 29.7189,-37.5266 L 29.5365,-37.5734 L 29.3613,-37.6428 L 29.1963,-37.7335 L 29.0439,-37.8442
 L 28.9065,-37.9732 L 28.7865,-38.1183 L 28.6855,-38.2774 L 28.6053,-38.4478 L 28.5471,-38.627 L 28.5118,-38.812
 L 28.5,-39 L 28.5118,-39.188 L 28.5471,-39.373 L 28.6053,-39.5522 L 28.6855,-39.7226 L 28.7865,-39.8817
 L 28.9065,-40.0268 L 29.0439,-40.1558 L 29.1963,-40.2665 L 29.3613,-40.3573 L 29.5365,-40.4266 L 29.7189,-40.4734
 L 29.9058,-40.4971 L 30.0942,-40.4971 L 30.2811,-40.4734 L 30.4635,-40.4266 L 30.6387,-40.3573 L 30.8037,-40.2665
 L 30.9561,-40.1558 L 31.0934,-40.0268 L 31.2135,-39.8817 L 31.3145,-39.7226 L 31.3947,-39.5522 L 31.4529,-39.373
 L 31.4882,-39.188 L 31.5,-39 L 31.4882,-38.812 L 31.4529,-38.627 L 31.3947,-38.4478 L 31.3145,-38.2774
 L 31.2135,-38.1183 L 31.0934,-37.9732 L 30.9561,-37.8442 L 30.8037,-37.7335 L 30.6387,-37.6428 L 30.4635,-37.5734
 L 30.2811,-37.5266 L 30.0942,-37.503 z
M -0.0941772,-37.503 L -0.281067,-37.5266 L -0.463516,-37.5734 L -0.638657,-37.6428 L -0.803726,-37.7335 L -0.956131,-37.8442
 L -1.09344,-37.9732 L -1.21352,-38.1183 L -1.31445,-38.2774 L -1.39465,-38.4478 L -1.45287,-38.627 L -1.48816,-38.812
 L -1.5,-39 L -1.48816,-39.188 L -1.45287,-39.373 L -1.39465,-39.5522 L -1.31445,-39.7226 L -1.21352,-39.8817
 L -1.09344,-40.0268 L -0.956131,-40.1558 L -0.803726,-40.2665 L -0.638657,-40.3573 L -0.463516,-40.4266 L -0.281067,-40.4734
 L -0.0941772,-40.4971 L 0.0941772,-40.4971 L 0.281067,-40.4734 L 0.463516,-40.4266 L 0.638657,-40.3573 L 0.803726,-40.2665
 L 0.956131,-40.1558 L 1.09344,-40.0268 L 1.21352,-39.8817 L 1.31445,-39.7226 L 1.39465,-39.5522 L 1.45287,-39.373
 L 1.48816,-39.188 L 1.5,-39 L 1.48816,-38.812 L 1.45287,-38.627 L 1.39465,-38.4478 L 1.31445,-38.2774
 L 1.21352,-38.1183 L 1.09344,-37.9732 L 0.956131,-37.8442 L 0.803726,-37.7335 L 0.638657,-37.6428 L 0.463516,-37.5734
 L 0.281067,-37.5266 L 0.0941772,-37.503 z
M -15.0942,-37.503 L -15.2811,-37.5266 L -15.4635,-37.5734 L -15.6387,-37.6428 L -15.8037,-37.7335 L -15.9561,-37.8442
 L -16.0934,-37.9732 L -16.2135,-38.1183 L -16.3145,-38.2774 L -16.3947,-38.4478 L -16.4529,-38.627 L -16.4882,-38.812
 L -16.5,-39 L -16.4882,-39.188 L -16.4529,-39.373 L -16.3947,-39.5522 L -16.3145,-39.7226 L -16.2135,-39.8817
 L -16.0934,-40.0268 L -15.9561,-40.1558 L -15.8037,-40.2665 L -15.6387,-40.3573 L -15.4635,-40.4266 L -15.2811,-40.4734
 L -15.0942,-40.4971 L -14.9058,-40.4971 L -14.7189,-40.4734 L -14.5365,-40.4266 L -14.3613,-40.3573 L -14.1963,-40.2665
 L -14.0439,-40.1558 L -13.9065,-40.0268 L -13.7865,-39.8817 L -13.6855,-39.7226 L -13.6053,-39.5522 L -13.5471,-39.373
 L -13.5118,-39.188 L -13.5,-39 L -13.5118,-38.812 L -13.5471,-38.627 L -13.6053,-38.4478 L -13.6855,-38.2774
 L -13.7865,-38.1183 L -13.9065,-37.9732 L -14.0439,-37.8442 L -14.1963,-37.7335 L -14.3613,-37.6428 L -14.5365,-37.5734
 L -14.7189,-37.5266 L -14.9058,-37.503 z
M -30.0942,-37.503 L -30.2811,-37.5266 L -30.4635,-37.5734 L -30.6387,-37.6428 L -30.8037,-37.7335 L -30.9561,-37.8442
 L -31.0934,-37.9732 L -31.2135,-38.1183 L -31.3145,-38.2774 L -31.3947,-38.4478 L -31.4529,-38.627 L -31.4882,-38.812
 L -31.5,-39 L -31.4882,-39.188 L -31.4529,-39.373 L -31.3947,-39.5522 L -31.3145,-39.7226 L -31.2135,-39.8817
 L -31.0934,-40.0268 L -30.9561,-40.1558 L -30.8037,-40.2665 L -30.6387,-40.3573 L -30.4635,-40.4266 L -30.2811,-40.4734
 L -30.0942,-40.4971 L -29.9058,-40.4971 L -29.7189,-40.4734 L -29.5365,-40.4266 L -29.3613,-40.3573 L -29.1963,-40.2665
 L -29.0439,-40.1558 L -28.9065,-40.0268 L -28.7865,-39.8817 L -28.6855,-39.7226 L -28.6053,-39.5522 L -28.5471,-39.373
 L -28.5118,-39.188 L -28.5,-39 L -28.5118,-38.812 L -28.5471,-38.627 L -28.6053,-38.4478 L -28.6855,-38.2774
 L -28.7865,-38.1183 L -28.9065,-37.9732 L -29.0439,-37.8442 L -29.1963,-37.7335 L -29.3613,-37.6428 L -29.5365,-37.5734
 L -29.7189,-37.5266 L -29.9058,-37.503 z
M 14.9058,-37.503 L 14.7189,-37.5266 L 14.5365,-37.5734 L 14.3613,-37.6428 L 14.1963,-37.7335 L 14.0439,-37.8442
 L 13.9065,-37.9732 L 13.7865,-38.1183 L 13.6855,-38.2774 L 13.6053,-38.4478 L 13.5471,-38.627 L 13.5118,-38.812
 L 13.5,-39 L 13.5118,-39.188 L 13.5471,-39.373 L 13.6053,-39.5522 L 13.6855,-39.7226 L 13.7865,-39.8817
 L 13.9065,-40.0268 L 14.0439,-40.1558 L 14.1963,-40.2665 L 14.3613,-40.3573 L 14.5365,-40.4266 L 14.7189,-40.4734
 L 14.9058,-40.4971 L 15.0942,-40.4971 L 15.2811,-40.4734 L 15.4635,-40.4266 L 15.6387,-40.3573 L 15.8037,-40.2665
 L 15.9561,-40.1558 L 16.0934,-40.0268 L 16.2135,-39.8817 L 16.3145,-39.7226 L 16.3947,-39.5522 L 16.4529,-39.373
 L 16.4882,-39.188 L 16.5,-39 L 16.4882,-38.812 L 16.4529,-38.627 L 16.3947,-38.4478 L 16.3145,-38.2774
 L 16.2135,-38.1183 L 16.0934,-37.9732 L 15.9561,-37.8442 L 15.8037,-37.7335 L 15.6387,-37.6428 L 15.4635,-37.5734
 L 15.2811,-37.5266 L 15.0942,-37.503 z
" stroke="black" fill="lightgray" stroke-width="0.5"/>
</svg>
