  0
SECTION
  2
BLOCKS
  0
ENDSEC
  0
SECTION
  2
ENTITIES
  0
LINE
  8
0
 10
62.9369
 20
-14.4114
 11
63.5451
 21
-14.2553
  0
LINE
  8
0
 10
63.5451
 20
-14.2553
 11
64.1289
 21
-14.0241
  0
LINE
  8
0
 10
64.1289
 20
-14.0241
 11
64.6791
 21
-13.7216
  0
LINE
  8
0
 10
64.6791
 20
-13.7216
 11
65.1871
 21
-13.3526
  0
LINE
  8
0
 10
65.1871
 20
-13.3526
 11
65.6448
 21
-12.9227
  0
LINE
  8
0
 10
65.6448
 20
-12.9227
 11
66.0451
 21
-12.4389
  0
LINE
  8
0
 10
66.0451
 20
-12.4389
 11
66.3815
 21
-11.9088
  0
LINE
  8
0
 10
66.3815
 20
-11.9088
 11
66.6489
 21
-11.3406
  0
LINE
  8
0
 10
66.6489
 20
-11.3406
 11
66.8429
 21
-10.7434
  0
LINE
  8
0
 10
66.8429
 20
-10.7434
 11
66.9606
 21
-10.1267
  0
LINE
  8
0
 10
66.9606
 20
-10.1267
 11
67
 21
-9.5
  0
LINE
  8
0
 10
67
 20
-9.5
 11
67
 21
9.5
  0
LINE
  8
0
 10
67
 20
9.5
 11
66.9606
 21
10.1267
  0
LINE
  8
0
 10
66.9606
 20
10.1267
 11
66.8429
 21
10.7434
  0
LINE
  8
0
 10
66.8429
 20
10.7434
 11
66.6489
 21
11.3406
  0
LINE
  8
0
 10
66.6489
 20
11.3406
 11
66.3815
 21
11.9088
  0
LINE
  8
0
 10
66.3815
 20
11.9088
 11
66.0451
 21
12.4389
  0
LINE
  8
0
 10
66.0451
 20
12.4389
 11
65.6448
 21
12.9227
  0
LINE
  8
0
 10
65.6448
 20
12.9227
 11
65.1871
 21
13.3526
  0
LINE
  8
0
 10
65.1871
 20
13.3526
 11
64.6791
 21
13.7216
  0
LINE
  8
0
 10
64.6791
 20
13.7216
 11
64.1289
 21
14.0241
  0
LINE
  8
0
 10
64.1289
 20
14.0241
 11
63.5451
 21
14.2553
  0
LINE
  8
0
 10
63.5451
 20
14.2553
 11
62.9369
 21
14.4114
  0
LINE
  8
0
 10
62.9369
 20
14.4114
 11
62.3139
 21
14.4901
  0
LINE
  8
0
 10
62.3139
 20
14.4901
 11
-62.3139
 21
14.4901
  0
LINE
  8
0
 10
-62.3139
 20
14.4901
 11
-62.9369
 21
14.4114
  0
LINE
  8
0
 10
-62.9369
 20
14.4114
 11
-63.5451
 21
14.2553
  0
LINE
  8
0
 10
-63.5451
 20
14.2553
 11
-64.1289
 21
14.0241
  0
LINE
  8
0
 10
-64.1289
 20
14.0241
 11
-64.6791
 21
13.7216
  0
LINE
  8
0
 10
-64.6791
 20
13.7216
 11
-65.1871
 21
13.3526
  0
LINE
  8
0
 10
-65.1871
 20
13.3526
 11
-65.6448
 21
12.9227
  0
LINE
  8
0
 10
-65.6448
 20
12.9227
 11
-66.0451
 21
12.4389
  0
LINE
  8
0
 10
-66.0451
 20
12.4389
 11
-66.3815
 21
11.9088
  0
LINE
  8
0
 10
-66.3815
 20
11.9088
 11
-66.6489
 21
11.3406
  0
LINE
  8
0
 10
-66.6489
 20
11.3406
 11
-66.8429
 21
10.7434
  0
LINE
  8
0
 10
-66.8429
 20
10.7434
 11
-66.9606
 21
10.1267
  0
LINE
  8
0
 10
-66.9606
 20
10.1267
 11
-67
 21
9.5
  0
LINE
  8
0
 10
-67
 20
9.5
 11
-67
 21
-9.5
  0
LINE
  8
0
 10
-67
 20
-9.5
 11
-66.9606
 21
-10.1267
  0
LINE
  8
0
 10
-66.9606
 20
-10.1267
 11
-66.8429
 21
-10.7434
  0
LINE
  8
0
 10
-66.8429
 20
-10.7434
 11
-66.6489
 21
-11.3406
  0
LINE
  8
0
 10
-66.6489
 20
-11.3406
 11
-66.3815
 21
-11.9088
  0
LINE
  8
0
 10
-66.3815
 20
-11.9088
 11
-66.0451
 21
-12.4389
  0
LINE
  8
0
 10
-66.0451
 20
-12.4389
 11
-65.6448
 21
-12.9227
  0
LINE
  8
0
 10
-65.6448
 20
-12.9227
 11
-65.1871
 21
-13.3526
  0
LINE
  8
0
 10
-65.1871
 20
-13.3526
 11
-64.6791
 21
-13.7216
  0
LINE
  8
0
 10
-64.6791
 20
-13.7216
 11
-64.1289
 21
-14.0241
  0
LINE
  8
0
 10
-64.1289
 20
-14.0241
 11
-63.5451
 21
-14.2553
  0
LINE
  8
0
 10
-63.5451
 20
-14.2553
 11
-62.9369
 21
-14.4114
  0
LINE
  8
0
 10
-62.9369
 20
-14.4114
 11
-62.3139
 21
-14.4901
  0
LINE
  8
0
 10
-62.3139
 20
-14.4901
 11
62.3139
 21
-14.4901
  0
LINE
  8
0
 10
62.3139
 20
-14.4901
 11
62.9369
 21
-14.4114
  0
LINE
  8
0
 10
59.8116
 20
-10.4941
 11
59.4379
 21
-10.4469
  0
LINE
  8
0
 10
59.4379
 20
-10.4469
 11
59.0729
 21
-10.3532
  0
LINE
  8
0
 10
59.0729
 20
-10.3532
 11
58.7227
 21
-10.2145
  0
LINE
  8
0
 10
58.7227
 20
-10.2145
 11
58.3925
 21
-10.033
  0
LINE
  8
0
 10
58.3925
 20
-10.033
 11
58.0877
 21
-9.81154
  0
LINE
  8
0
 10
58.0877
 20
-9.81154
 11
57.8131
 21
-9.55363
  0
LINE
  8
0
 10
57.8131
 20
-9.55363
 11
57.5729
 21
-9.26335
  0
LINE
  8
0
 10
57.5729
 20
-9.26335
 11
57.3995
 21
-8.99005
  0
LINE
  8
0
 10
57.3995
 20
-8.99005
 11
56.4707
 21
-9.50067
  0
LINE
  8
0
 10
56.4707
 20
-9.50067
 11
55.2447
 21
-9.98608
  0
LINE
  8
0
 10
55.2447
 20
-9.98608
 11
53.9675
 21
-10.314
  0
LINE
  8
0
 10
53.9675
 20
-10.314
 11
52.6593
 21
-10.4793
  0
LINE
  8
0
 10
52.6593
 20
-10.4793
 11
51.3407
 21
-10.4793
  0
LINE
  8
0
 10
51.3407
 20
-10.4793
 11
50.0325
 21
-10.314
  0
LINE
  8
0
 10
50.0325
 20
-10.314
 11
48.7553
 21
-9.98608
  0
LINE
  8
0
 10
48.7553
 20
-9.98608
 11
47.5293
 21
-9.50067
  0
LINE
  8
0
 10
47.5293
 20
-9.50067
 11
46.3738
 21
-8.86543
  0
LINE
  8
0
 10
46.3738
 20
-8.86543
 11
45.307
 21
-8.09038
  0
LINE
  8
0
 10
45.307
 20
-8.09038
 11
44.3458
 21
-7.18774
  0
LINE
  8
0
 10
44.3458
 20
-7.18774
 11
43.5053
 21
-6.17174
  0
LINE
  8
0
 10
43.5053
 20
-6.17174
 11
42.7988
 21
-5.05841
  0
LINE
  8
0
 10
42.7988
 20
-5.05841
 11
42.2373
 21
-3.8653
  0
LINE
  8
0
 10
42.2373
 20
-3.8653
 11
41.8299
 21
-2.61124
  0
LINE
  8
0
 10
41.8299
 20
-2.61124
 11
41.5828
 21
-1.31599
  0
LINE
  8
0
 10
41.5828
 20
-1.31599
 11
41.5
 21
0
  0
LINE
  8
0
 10
41.5
 20
0
 11
41.5828
 21
1.31599
  0
LINE
  8
0
 10
41.5828
 20
1.31599
 11
41.8299
 21
2.61124
  0
LINE
  8
0
 10
41.8299
 20
2.61124
 11
42.2373
 21
3.8653
  0
LINE
  8
0
 10
42.2373
 20
3.8653
 11
42.7988
 21
5.05841
  0
LINE
  8
0
 10
42.7988
 20
5.05841
 11
43.5053
 21
6.17174
  0
LINE
  8
0
 10
43.5053
 20
6.17174
 11
44.3458
 21
7.18774
  0
LINE
  8
0
 10
44.3458
 20
7.18774
 11
45.307
 21
8.09038
  0
LINE
  8
0
 10
45.307
 20
8.09038
 11
46.3738
 21
8.86543
  0
LINE
  8
0
 10
46.3738
 20
8.86543
 11
47.5293
 21
9.50067
  0
LINE
  8
0
 10
47.5293
 20
9.50067
 11
48.7553
 21
9.98608
  0
LINE
  8
0
 10
48.7553
 20
9.98608
 11
50.0325
 21
10.314
  0
LINE
  8
0
 10
50.0325
 20
10.314
 11
51.3407
 21
10.4793
  0
LINE
  8
0
 10
51.3407
 20
10.4793
 11
52.6593
 21
10.4793
  0
LINE
  8
0
 10
52.6593
 20
10.4793
 11
53.9675
 21
10.314
  0
LINE
  8
0
 10
53.9675
 20
10.314
 11
55.2447
 21
9.98608
  0
LINE
  8
0
 10
55.2447
 20
9.98608
 11
56.4707
 21
9.50067
  0
LINE
  8
0
 10
56.4707
 20
9.50067
 11
57.3995
 21
8.99005
  0
LINE
  8
0
 10
57.3995
 20
8.99005
 11
57.5729
 21
9.26335
  0
LINE
  8
0
 10
57.5729
 20
9.26335
 11
57.8131
 21
9.55363
  0
LINE
  8
0
 10
57.8131
 20
9.55363
 11
58.0877
 21
9.81154
  0
LINE
  8
0
 10
58.0877
 20
9.81154
 11
58.3925
 21
10.033
  0
LINE
  8
0
 10
58.3925
 20
10.033
 11
58.7227
 21
10.2145
  0
LINE
  8
0
 10
58.7227
 20
10.2145
 11
59.0729
 21
10.3532
  0
LINE
  8
0
 10
59.0729
 20
10.3532
 11
59.4379
 21
10.4469
  0
LINE
  8
0
 10
59.4379
 20
10.4469
 11
59.8116
 21
10.4941
  0
LINE
  8
0
 10
59.8116
 20
10.4941
 11
60.1884
 21
10.4941
  0
LINE
  8
0
 10
60.1884
 20
10.4941
 11
60.5621
 21
10.4469
  0
LINE
  8
0
 10
60.5621
 20
10.4469
 11
60.927
 21
10.3532
  0
LINE
  8
0
 10
60.927
 20
10.3532
 11
61.2773
 21
10.2145
  0
LINE
  8
0
 10
61.2773
 20
10.2145
 11
61.6075
 21
10.033
  0
LINE
  8
0
 10
61.6075
 20
10.033
 11
61.9123
 21
9.81154
  0
LINE
  8
0
 10
61.9123
 20
9.81154
 11
62.1869
 21
9.55363
  0
LINE
  8
0
 10
62.1869
 20
9.55363
 11
62.427
 21
9.26335
  0
LINE
  8
0
 10
62.427
 20
9.26335
 11
62.6289
 21
8.94525
  0
LINE
  8
0
 10
62.6289
 20
8.94525
 11
62.7893
 21
8.60437
  0
LINE
  8
0
 10
62.7893
 20
8.60437
 11
62.9057
 21
8.24606
  0
LINE
  8
0
 10
62.9057
 20
8.24606
 11
62.9763
 21
7.87599
  0
LINE
  8
0
 10
62.9763
 20
7.87599
 11
63
 21
7.5
  0
LINE
  8
0
 10
63
 20
7.5
 11
62.9763
 21
7.12399
  0
LINE
  8
0
 10
62.9763
 20
7.12399
 11
62.9057
 21
6.75392
  0
LINE
  8
0
 10
62.9057
 20
6.75392
 11
62.7893
 21
6.39561
  0
LINE
  8
0
 10
62.7893
 20
6.39561
 11
62.6289
 21
6.05473
  0
LINE
  8
0
 10
62.6289
 20
6.05473
 11
62.427
 21
5.73663
  0
LINE
  8
0
 10
62.427
 20
5.73663
 11
62.1869
 21
5.44635
  0
LINE
  8
0
 10
62.1869
 20
5.44635
 11
61.9123
 21
5.18845
  0
LINE
  8
0
 10
61.9123
 20
5.18845
 11
61.6075
 21
4.96701
  0
LINE
  8
0
 10
61.6075
 20
4.96701
 11
61.3189
 21
4.80835
  0
LINE
  8
0
 10
61.3189
 20
4.80835
 11
61.7626
 21
3.8653
  0
LINE
  8
0
 10
61.7626
 20
3.8653
 11
62.1701
 21
2.61124
  0
LINE
  8
0
 10
62.1701
 20
2.61124
 11
62.4172
 21
1.31599
  0
LINE
  8
0
 10
62.4172
 20
1.31599
 11
62.5
 21
0
  0
LINE
  8
0
 10
62.5
 20
0
 11
62.4172
 21
-1.31599
  0
LINE
  8
0
 10
62.4172
 20
-1.31599
 11
62.1701
 21
-2.61124
  0
LINE
  8
0
 10
62.1701
 20
-2.61124
 11
61.7626
 21
-3.8653
  0
LINE
  8
0
 10
61.7626
 20
-3.8653
 11
61.3189
 21
-4.80835
  0
LINE
  8
0
 10
61.3189
 20
-4.80835
 11
61.6075
 21
-4.96701
  0
LINE
  8
0
 10
61.6075
 20
-4.96701
 11
61.9123
 21
-5.18845
  0
LINE
  8
0
 10
61.9123
 20
-5.18845
 11
62.1869
 21
-5.44635
  0
LINE
  8
0
 10
62.1869
 20
-5.44635
 11
62.427
 21
-5.73663
  0
LINE
  8
0
 10
62.427
 20
-5.73663
 11
62.6289
 21
-6.05473
  0
LINE
  8
0
 10
62.6289
 20
-6.05473
 11
62.7893
 21
-6.39561
  0
LINE
  8
0
 10
62.7893
 20
-6.39561
 11
62.9057
 21
-6.75392
  0
LINE
  8
0
 10
62.9057
 20
-6.75392
 11
62.9763
 21
-7.12399
  0
LINE
  8
0
 10
62.9763
 20
-7.12399
 11
63
 21
-7.5
  0
LINE
  8
0
 10
63
 20
-7.5
 11
62.9763
 21
-7.87599
  0
LINE
  8
0
 10
62.9763
 20
-7.87599
 11
62.9057
 21
-8.24606
  0
LINE
  8
0
 10
62.9057
 20
-8.24606
 11
62.7893
 21
-8.60437
  0
LINE
  8
0
 10
62.7893
 20
-8.60437
 11
62.6289
 21
-8.94525
  0
LINE
  8
0
 10
62.6289
 20
-8.94525
 11
62.427
 21
-9.26335
  0
LINE
  8
0
 10
62.427
 20
-9.26335
 11
62.1869
 21
-9.55363
  0
LINE
  8
0
 10
62.1869
 20
-9.55363
 11
61.9123
 21
-9.81154
  0
LINE
  8
0
 10
61.9123
 20
-9.81154
 11
61.6075
 21
-10.033
  0
LINE
  8
0
 10
61.6075
 20
-10.033
 11
61.2773
 21
-10.2145
  0
LINE
  8
0
 10
61.2773
 20
-10.2145
 11
60.927
 21
-10.3532
  0
LINE
  8
0
 10
60.927
 20
-10.3532
 11
60.5621
 21
-10.4469
  0
LINE
  8
0
 10
60.5621
 20
-10.4469
 11
60.1884
 21
-10.4941
  0
LINE
  8
0
 10
60.1884
 20
-10.4941
 11
59.8116
 21
-10.4941
  0
LINE
  8
0
 10
-60.1884
 20
-10.4941
 11
-60.5621
 21
-10.4469
  0
LINE
  8
0
 10
-60.5621
 20
-10.4469
 11
-60.927
 21
-10.3532
  0
LINE
  8
0
 10
-60.927
 20
-10.3532
 11
-61.2773
 21
-10.2145
  0
LINE
  8
0
 10
-61.2773
 20
-10.2145
 11
-61.6075
 21
-10.033
  0
LINE
  8
0
 10
-61.6075
 20
-10.033
 11
-61.9123
 21
-9.81154
  0
LINE
  8
0
 10
-61.9123
 20
-9.81154
 11
-62.1869
 21
-9.55363
  0
LINE
  8
0
 10
-62.1869
 20
-9.55363
 11
-62.427
 21
-9.26335
  0
LINE
  8
0
 10
-62.427
 20
-9.26335
 11
-62.6289
 21
-8.94525
  0
LINE
  8
0
 10
-62.6289
 20
-8.94525
 11
-62.7893
 21
-8.60437
  0
LINE
  8
0
 10
-62.7893
 20
-8.60437
 11
-62.9057
 21
-8.24606
  0
LINE
  8
0
 10
-62.9057
 20
-8.24606
 11
-62.9763
 21
-7.87599
  0
LINE
  8
0
 10
-62.9763
 20
-7.87599
 11
-63
 21
-7.5
  0
LINE
  8
0
 10
-63
 20
-7.5
 11
-62.9763
 21
-7.12399
  0
LINE
  8
0
 10
-62.9763
 20
-7.12399
 11
-62.9057
 21
-6.75392
  0
LINE
  8
0
 10
-62.9057
 20
-6.75392
 11
-62.7893
 21
-6.39561
  0
LINE
  8
0
 10
-62.7893
 20
-6.39561
 11
-62.6289
 21
-6.05473
  0
LINE
  8
0
 10
-62.6289
 20
-6.05473
 11
-62.427
 21
-5.73663
  0
LINE
  8
0
 10
-62.427
 20
-5.73663
 11
-62.1869
 21
-5.44635
  0
LINE
  8
0
 10
-62.1869
 20
-5.44635
 11
-61.9123
 21
-5.18845
  0
LINE
  8
0
 10
-61.9123
 20
-5.18845
 11
-61.6075
 21
-4.96701
  0
LINE
  8
0
 10
-61.6075
 20
-4.96701
 11
-61.3189
 21
-4.80835
  0
LINE
  8
0
 10
-61.3189
 20
-4.80835
 11
-61.7626
 21
-3.8653
  0
LINE
  8
0
 10
-61.7626
 20
-3.8653
 11
-62.1701
 21
-2.61124
  0
LINE
  8
0
 10
-62.1701
 20
-2.61124
 11
-62.4172
 21
-1.31599
  0
LINE
  8
0
 10
-62.4172
 20
-1.31599
 11
-62.5
 21
0
  0
LINE
  8
0
 10
-62.5
 20
0
 11
-62.4172
 21
1.31599
  0
LINE
  8
0
 10
-62.4172
 20
1.31599
 11
-62.1701
 21
2.61124
  0
LINE
  8
0
 10
-62.1701
 20
2.61124
 11
-61.7626
 21
3.8653
  0
LINE
  8
0
 10
-61.7626
 20
3.8653
 11
-61.3189
 21
4.80835
  0
LINE
  8
0
 10
-61.3189
 20
4.80835
 11
-61.6075
 21
4.96701
  0
LINE
  8
0
 10
-61.6075
 20
4.96701
 11
-61.9123
 21
5.18845
  0
LINE
  8
0
 10
-61.9123
 20
5.18845
 11
-62.1869
 21
5.44635
  0
LINE
  8
0
 10
-62.1869
 20
5.44635
 11
-62.427
 21
5.73663
  0
LINE
  8
0
 10
-62.427
 20
5.73663
 11
-62.6289
 21
6.05473
  0
LINE
  8
0
 10
-62.6289
 20
6.05473
 11
-62.7893
 21
6.39561
  0
LINE
  8
0
 10
-62.7893
 20
6.39561
 11
-62.9057
 21
6.75392
  0
LINE
  8
0
 10
-62.9057
 20
6.75392
 11
-62.9763
 21
7.12399
  0
LINE
  8
0
 10
-62.9763
 20
7.12399
 11
-63
 21
7.5
  0
LINE
  8
0
 10
-63
 20
7.5
 11
-62.9763
 21
7.87599
  0
LINE
  8
0
 10
-62.9763
 20
7.87599
 11
-62.9057
 21
8.24606
  0
LINE
  8
0
 10
-62.9057
 20
8.24606
 11
-62.7893
 21
8.60437
  0
LINE
  8
0
 10
-62.7893
 20
8.60437
 11
-62.6289
 21
8.94525
  0
LINE
  8
0
 10
-62.6289
 20
8.94525
 11
-62.427
 21
9.26335
  0
LINE
  8
0
 10
-62.427
 20
9.26335
 11
-62.1869
 21
9.55363
  0
LINE
  8
0
 10
-62.1869
 20
9.55363
 11
-61.9123
 21
9.81154
  0
LINE
  8
0
 10
-61.9123
 20
9.81154
 11
-61.6075
 21
10.033
  0
LINE
  8
0
 10
-61.6075
 20
10.033
 11
-61.2773
 21
10.2145
  0
LINE
  8
0
 10
-61.2773
 20
10.2145
 11
-60.927
 21
10.3532
  0
LINE
  8
0
 10
-60.927
 20
10.3532
 11
-60.5621
 21
10.4469
  0
LINE
  8
0
 10
-60.5621
 20
10.4469
 11
-60.1884
 21
10.4941
  0
LINE
  8
0
 10
-60.1884
 20
10.4941
 11
-59.8116
 21
10.4941
  0
LINE
  8
0
 10
-59.8116
 20
10.4941
 11
-59.4379
 21
10.4469
  0
LINE
  8
0
 10
-59.4379
 20
10.4469
 11
-59.0729
 21
10.3532
  0
LINE
  8
0
 10
-59.0729
 20
10.3532
 11
-58.7227
 21
10.2145
  0
LINE
  8
0
 10
-58.7227
 20
10.2145
 11
-58.3925
 21
10.033
  0
LINE
  8
0
 10
-58.3925
 20
10.033
 11
-58.0877
 21
9.81154
  0
LINE
  8
0
 10
-58.0877
 20
9.81154
 11
-57.8131
 21
9.55363
  0
LINE
  8
0
 10
-57.8131
 20
9.55363
 11
-57.5729
 21
9.26335
  0
LINE
  8
0
 10
-57.5729
 20
9.26335
 11
-57.3995
 21
8.99005
  0
LINE
  8
0
 10
-57.3995
 20
8.99005
 11
-56.4707
 21
9.50067
  0
LINE
  8
0
 10
-56.4707
 20
9.50067
 11
-55.2447
 21
9.98608
  0
LINE
  8
0
 10
-55.2447
 20
9.98608
 11
-53.9675
 21
10.314
  0
LINE
  8
0
 10
-53.9675
 20
10.314
 11
-52.6593
 21
10.4793
  0
LINE
  8
0
 10
-52.6593
 20
10.4793
 11
-51.3407
 21
10.4793
  0
LINE
  8
0
 10
-51.3407
 20
10.4793
 11
-50.0325
 21
10.314
  0
LINE
  8
0
 10
-50.0325
 20
10.314
 11
-48.7553
 21
9.98608
  0
LINE
  8
0
 10
-48.7553
 20
9.98608
 11
-47.5293
 21
9.50067
  0
LINE
  8
0
 10
-47.5293
 20
9.50067
 11
-46.3738
 21
8.86543
  0
LINE
  8
0
 10
-46.3738
 20
8.86543
 11
-45.307
 21
8.09038
  0
LINE
  8
0
 10
-45.307
 20
8.09038
 11
-44.3458
 21
7.18774
  0
LINE
  8
0
 10
-44.3458
 20
7.18774
 11
-43.5053
 21
6.17174
  0
LINE
  8
0
 10
-43.5053
 20
6.17174
 11
-42.7988
 21
5.05841
  0
LINE
  8
0
 10
-42.7988
 20
5.05841
 11
-42.2373
 21
3.8653
  0
LINE
  8
0
 10
-42.2373
 20
3.8653
 11
-41.8299
 21
2.61124
  0
LINE
  8
0
 10
-41.8299
 20
2.61124
 11
-41.5828
 21
1.31599
  0
LINE
  8
0
 10
-41.5828
 20
1.31599
 11
-41.5
 21
0
  0
LINE
  8
0
 10
-41.5
 20
0
 11
-41.5828
 21
-1.31599
  0
LINE
  8
0
 10
-41.5828
 20
-1.31599
 11
-41.8299
 21
-2.61124
  0
LINE
  8
0
 10
-41.8299
 20
-2.61124
 11
-42.2373
 21
-3.8653
  0
LINE
  8
0
 10
-42.2373
 20
-3.8653
 11
-42.7988
 21
-5.05841
  0
LINE
  8
0
 10
-42.7988
 20
-5.05841
 11
-43.5053
 21
-6.17174
  0
LINE
  8
0
 10
-43.5053
 20
-6.17174
 11
-44.3458
 21
-7.18774
  0
LINE
  8
0
 10
-44.3458
 20
-7.18774
 11
-45.307
 21
-8.09038
  0
LINE
  8
0
 10
-45.307
 20
-8.09038
 11
-46.3738
 21
-8.86543
  0
LINE
  8
0
 10
-46.3738
 20
-8.86543
 11
-47.5293
 21
-9.50067
  0
LINE
  8
0
 10
-47.5293
 20
-9.50067
 11
-48.7553
 21
-9.98608
  0
LINE
  8
0
 10
-48.7553
 20
-9.98608
 11
-50.0325
 21
-10.314
  0
LINE
  8
0
 10
-50.0325
 20
-10.314
 11
-51.3407
 21
-10.4793
  0
LINE
  8
0
 10
-51.3407
 20
-10.4793
 11
-52.6593
 21
-10.4793
  0
LINE
  8
0
 10
-52.6593
 20
-10.4793
 11
-53.9675
 21
-10.314
  0
LINE
  8
0
 10
-53.9675
 20
-10.314
 11
-55.2447
 21
-9.98608
  0
LINE
  8
0
 10
-55.2447
 20
-9.98608
 11
-56.4707
 21
-9.50067
  0
LINE
  8
0
 10
-56.4707
 20
-9.50067
 11
-57.3995
 21
-8.99005
  0
LINE
  8
0
 10
-57.3995
 20
-8.99005
 11
-57.5729
 21
-9.26335
  0
LINE
  8
0
 10
-57.5729
 20
-9.26335
 11
-57.8131
 21
-9.55363
  0
LINE
  8
0
 10
-57.8131
 20
-9.55363
 11
-58.0877
 21
-9.81154
  0
LINE
  8
0
 10
-58.0877
 20
-9.81154
 11
-58.3925
 21
-10.033
  0
LINE
  8
0
 10
-58.3925
 20
-10.033
 11
-58.7227
 21
-10.2145
  0
LINE
  8
0
 10
-58.7227
 20
-10.2145
 11
-59.0729
 21
-10.3532
  0
LINE
  8
0
 10
-59.0729
 20
-10.3532
 11
-59.4379
 21
-10.4469
  0
LINE
  8
0
 10
-59.4379
 20
-10.4469
 11
-59.8116
 21
-10.4941
  0
LINE
  8
0
 10
-59.8116
 20
-10.4941
 11
-60.1884
 21
-10.4941
  0
LINE
  8
0
 10
25.3407
 20
-10.4793
 11
24.0325
 21
-10.314
  0
LINE
  8
0
 10
24.0325
 20
-10.314
 11
22.7553
 21
-9.98608
  0
LINE
  8
0
 10
22.7553
 20
-9.98608
 11
21.5293
 21
-9.50067
  0
LINE
  8
0
 10
21.5293
 20
-9.50067
 11
20.3738
 21
-8.86543
  0
LINE
  8
0
 10
20.3738
 20
-8.86543
 11
19.307
 21
-8.09038
  0
LINE
  8
0
 10
19.307
 20
-8.09038
 11
18.3458
 21
-7.18774
  0
LINE
  8
0
 10
18.3458
 20
-7.18774
 11
17.5053
 21
-6.17174
  0
LINE
  8
0
 10
17.5053
 20
-6.17174
 11
16.7988
 21
-5.05841
  0
LINE
  8
0
 10
16.7988
 20
-5.05841
 11
16.2373
 21
-3.8653
  0
LINE
  8
0
 10
16.2373
 20
-3.8653
 11
15.8299
 21
-2.61124
  0
LINE
  8
0
 10
15.8299
 20
-2.61124
 11
15.5828
 21
-1.31599
  0
LINE
  8
0
 10
15.5828
 20
-1.31599
 11
15.5
 21
0
  0
LINE
  8
0
 10
15.5
 20
0
 11
15.5828
 21
1.31599
  0
LINE
  8
0
 10
15.5828
 20
1.31599
 11
15.8299
 21
2.61124
  0
LINE
  8
0
 10
15.8299
 20
2.61124
 11
16.2373
 21
3.8653
  0
LINE
  8
0
 10
16.2373
 20
3.8653
 11
16.7988
 21
5.05841
  0
LINE
  8
0
 10
16.7988
 20
5.05841
 11
17.5053
 21
6.17174
  0
LINE
  8
0
 10
17.5053
 20
6.17174
 11
18.3458
 21
7.18774
  0
LINE
  8
0
 10
18.3458
 20
7.18774
 11
19.307
 21
8.09038
  0
LINE
  8
0
 10
19.307
 20
8.09038
 11
20.3738
 21
8.86543
  0
LINE
  8
0
 10
20.3738
 20
8.86543
 11
21.5293
 21
9.50067
  0
LINE
  8
0
 10
21.5293
 20
9.50067
 11
22.7553
 21
9.98608
  0
LINE
  8
0
 10
22.7553
 20
9.98608
 11
24.0325
 21
10.314
  0
LINE
  8
0
 10
24.0325
 20
10.314
 11
25.3407
 21
10.4793
  0
LINE
  8
0
 10
25.3407
 20
10.4793
 11
26.6593
 21
10.4793
  0
LINE
  8
0
 10
26.6593
 20
10.4793
 11
27.9675
 21
10.314
  0
LINE
  8
0
 10
27.9675
 20
10.314
 11
29.2447
 21
9.98608
  0
LINE
  8
0
 10
29.2447
 20
9.98608
 11
30.4707
 21
9.50067
  0
LINE
  8
0
 10
30.4707
 20
9.50067
 11
31.6262
 21
8.86543
  0
LINE
  8
0
 10
31.6262
 20
8.86543
 11
32.6929
 21
8.09038
  0
LINE
  8
0
 10
32.6929
 20
8.09038
 11
33.6542
 21
7.18774
  0
LINE
  8
0
 10
33.6542
 20
7.18774
 11
34.4947
 21
6.17174
  0
LINE
  8
0
 10
34.4947
 20
6.17174
 11
35.2012
 21
5.05841
  0
LINE
  8
0
 10
35.2012
 20
5.05841
 11
35.7626
 21
3.8653
  0
LINE
  8
0
 10
35.7626
 20
3.8653
 11
36.1701
 21
2.61124
  0
LINE
  8
0
 10
36.1701
 20
2.61124
 11
36.4172
 21
1.31599
  0
LINE
  8
0
 10
36.4172
 20
1.31599
 11
36.5
 21
0
  0
LINE
  8
0
 10
36.5
 20
0
 11
36.4172
 21
-1.31599
  0
LINE
  8
0
 10
36.4172
 20
-1.31599
 11
36.1701
 21
-2.61124
  0
LINE
  8
0
 10
36.1701
 20
-2.61124
 11
35.7626
 21
-3.8653
  0
LINE
  8
0
 10
35.7626
 20
-3.8653
 11
35.2012
 21
-5.05841
  0
LINE
  8
0
 10
35.2012
 20
-5.05841
 11
34.4947
 21
-6.17174
  0
LINE
  8
0
 10
34.4947
 20
-6.17174
 11
33.6542
 21
-7.18774
  0
LINE
  8
0
 10
33.6542
 20
-7.18774
 11
32.6929
 21
-8.09038
  0
LINE
  8
0
 10
32.6929
 20
-8.09038
 11
31.6262
 21
-8.86543
  0
LINE
  8
0
 10
31.6262
 20
-8.86543
 11
30.4707
 21
-9.50067
  0
LINE
  8
0
 10
30.4707
 20
-9.50067
 11
29.2447
 21
-9.98608
  0
LINE
  8
0
 10
29.2447
 20
-9.98608
 11
27.9675
 21
-10.314
  0
LINE
  8
0
 10
27.9675
 20
-10.314
 11
26.6593
 21
-10.4793
  0
LINE
  8
0
 10
26.6593
 20
-10.4793
 11
25.3407
 21
-10.4793
  0
LINE
  8
0
 10
-0.659286
 20
-10.4793
 11
-1.9675
 21
-10.314
  0
LINE
  8
0
 10
-1.9675
 20
-10.314
 11
-3.24467
 21
-9.98608
  0
LINE
  8
0
 10
-3.24467
 20
-9.98608
 11
-4.47067
 21
-9.50067
  0
LINE
  8
0
 10
-4.47067
 20
-9.50067
 11
-5.62617
 21
-8.86543
  0
LINE
  8
0
 10
-5.62617
 20
-8.86543
 11
-6.69295
 21
-8.09038
  0
LINE
  8
0
 10
-6.69295
 20
-8.09038
 11
-7.65416
 21
-7.18774
  0
LINE
  8
0
 10
-7.65416
 20
-7.18774
 11
-8.49467
 21
-6.17174
  0
LINE
  8
0
 10
-8.49467
 20
-6.17174
 11
-9.20122
 21
-5.05841
  0
LINE
  8
0
 10
-9.20122
 20
-5.05841
 11
-9.76265
 21
-3.8653
  0
LINE
  8
0
 10
-9.76265
 20
-3.8653
 11
-10.1701
 21
-2.61124
  0
LINE
  8
0
 10
-10.1701
 20
-2.61124
 11
-10.4172
 21
-1.31599
  0
LINE
  8
0
 10
-10.4172
 20
-1.31599
 11
-10.5
 21
0
  0
LINE
  8
0
 10
-10.5
 20
0
 11
-10.4172
 21
1.31599
  0
LINE
  8
0
 10
-10.4172
 20
1.31599
 11
-10.1701
 21
2.61124
  0
LINE
  8
0
 10
-10.1701
 20
2.61124
 11
-9.76265
 21
3.8653
  0
LINE
  8
0
 10
-9.76265
 20
3.8653
 11
-9.20122
 21
5.05841
  0
LINE
  8
0
 10
-9.20122
 20
5.05841
 11
-8.49467
 21
6.17174
  0
LINE
  8
0
 10
-8.49467
 20
6.17174
 11
-7.65416
 21
7.18774
  0
LINE
  8
0
 10
-7.65416
 20
7.18774
 11
-6.69295
 21
8.09038
  0
LINE
  8
0
 10
-6.69295
 20
8.09038
 11
-5.62617
 21
8.86543
  0
LINE
  8
0
 10
-5.62617
 20
8.86543
 11
-4.47067
 21
9.50067
  0
LINE
  8
0
 10
-4.47067
 20
9.50067
 11
-3.24467
 21
9.98608
  0
LINE
  8
0
 10
-3.24467
 20
9.98608
 11
-1.9675
 21
10.314
  0
LINE
  8
0
 10
-1.9675
 20
10.314
 11
-0.659286
 21
10.4793
  0
LINE
  8
0
 10
-0.659286
 20
10.4793
 11
0.659286
 21
10.4793
  0
LINE
  8
0
 10
0.659286
 20
10.4793
 11
1.9675
 21
10.314
  0
LINE
  8
0
 10
1.9675
 20
10.314
 11
3.24467
 21
9.98608
  0
LINE
  8
0
 10
3.24467
 20
9.98608
 11
4.47067
 21
9.50067
  0
LINE
  8
0
 10
4.47067
 20
9.50067
 11
5.62617
 21
8.86543
  0
LINE
  8
0
 10
5.62617
 20
8.86543
 11
6.69295
 21
8.09038
  0
LINE
  8
0
 10
6.69295
 20
8.09038
 11
7.65416
 21
7.18774
  0
LINE
  8
0
 10
7.65416
 20
7.18774
 11
8.49467
 21
6.17174
  0
LINE
  8
0
 10
8.49467
 20
6.17174
 11
9.20122
 21
5.05841
  0
LINE
  8
0
 10
9.20122
 20
5.05841
 11
9.76265
 21
3.8653
  0
LINE
  8
0
 10
9.76265
 20
3.8653
 11
10.1701
 21
2.61124
  0
LINE
  8
0
 10
10.1701
 20
2.61124
 11
10.4172
 21
1.31599
  0
LINE
  8
0
 10
10.4172
 20
1.31599
 11
10.5
 21
0
  0
LINE
  8
0
 10
10.5
 20
0
 11
10.4172
 21
-1.31599
  0
LINE
  8
0
 10
10.4172
 20
-1.31599
 11
10.1701
 21
-2.61124
  0
LINE
  8
0
 10
10.1701
 20
-2.61124
 11
9.76265
 21
-3.8653
  0
LINE
  8
0
 10
9.76265
 20
-3.8653
 11
9.20122
 21
-5.05841
  0
LINE
  8
0
 10
9.20122
 20
-5.05841
 11
8.49467
 21
-6.17174
  0
LINE
  8
0
 10
8.49467
 20
-6.17174
 11
7.65416
 21
-7.18774
  0
LINE
  8
0
 10
7.65416
 20
-7.18774
 11
6.69295
 21
-8.09038
  0
LINE
  8
0
 10
6.69295
 20
-8.09038
 11
5.62617
 21
-8.86543
  0
LINE
  8
0
 10
5.62617
 20
-8.86543
 11
4.47067
 21
-9.50067
  0
LINE
  8
0
 10
4.47067
 20
-9.50067
 11
3.24467
 21
-9.98608
  0
LINE
  8
0
 10
3.24467
 20
-9.98608
 11
1.9675
 21
-10.314
  0
LINE
  8
0
 10
1.9675
 20
-10.314
 11
0.659286
 21
-10.4793
  0
LINE
  8
0
 10
0.659286
 20
-10.4793
 11
-0.659286
 21
-10.4793
  0
LINE
  8
0
 10
-26.6593
 20
-10.4793
 11
-27.9675
 21
-10.314
  0
LINE
  8
0
 10
-27.9675
 20
-10.314
 11
-29.2447
 21
-9.98608
  0
LINE
  8
0
 10
-29.2447
 20
-9.98608
 11
-30.4707
 21
-9.50067
  0
LINE
  8
0
 10
-30.4707
 20
-9.50067
 11
-31.6262
 21
-8.86543
  0
LINE
  8
0
 10
-31.6262
 20
-8.86543
 11
-32.6929
 21
-8.09038
  0
LINE
  8
0
 10
-32.6929
 20
-8.09038
 11
-33.6542
 21
-7.18774
  0
LINE
  8
0
 10
-33.6542
 20
-7.18774
 11
-34.4947
 21
-6.17174
  0
LINE
  8
0
 10
-34.4947
 20
-6.17174
 11
-35.2012
 21
-5.05841
  0
LINE
  8
0
 10
-35.2012
 20
-5.05841
 11
-35.7626
 21
-3.8653
  0
LINE
  8
0
 10
-35.7626
 20
-3.8653
 11
-36.1701
 21
-2.61124
  0
LINE
  8
0
 10
-36.1701
 20
-2.61124
 11
-36.4172
 21
-1.31599
  0
LINE
  8
0
 10
-36.4172
 20
-1.31599
 11
-36.5
 21
0
  0
LINE
  8
0
 10
-36.5
 20
0
 11
-36.4172
 21
1.31599
  0
LINE
  8
0
 10
-36.4172
 20
1.31599
 11
-36.1701
 21
2.61124
  0
LINE
  8
0
 10
-36.1701
 20
2.61124
 11
-35.7626
 21
3.8653
  0
LINE
  8
0
 10
-35.7626
 20
3.8653
 11
-35.2012
 21
5.05841
  0
LINE
  8
0
 10
-35.2012
 20
5.05841
 11
-34.4947
 21
6.17174
  0
LINE
  8
0
 10
-34.4947
 20
6.17174
 11
-33.6542
 21
7.18774
  0
LINE
  8
0
 10
-33.6542
 20
7.18774
 11
-32.6929
 21
8.09038
  0
LINE
  8
0
 10
-32.6929
 20
8.09038
 11
-31.6262
 21
8.86543
  0
LINE
  8
0
 10
-31.6262
 20
8.86543
 11
-30.4707
 21
9.50067
  0
LINE
  8
0
 10
-30.4707
 20
9.50067
 11
-29.2447
 21
9.98608
  0
LINE
  8
0
 10
-29.2447
 20
9.98608
 11
-27.9675
 21
10.314
  0
LINE
  8
0
 10
-27.9675
 20
10.314
 11
-26.6593
 21
10.4793
  0
LINE
  8
0
 10
-26.6593
 20
10.4793
 11
-25.3407
 21
10.4793
  0
LINE
  8
0
 10
-25.3407
 20
10.4793
 11
-24.0325
 21
10.314
  0
LINE
  8
0
 10
-24.0325
 20
10.314
 11
-22.7553
 21
9.98608
  0
LINE
  8
0
 10
-22.7553
 20
9.98608
 11
-21.5293
 21
9.50067
  0
LINE
  8
0
 10
-21.5293
 20
9.50067
 11
-20.3738
 21
8.86543
  0
LINE
  8
0
 10
-20.3738
 20
8.86543
 11
-19.307
 21
8.09038
  0
LINE
  8
0
 10
-19.307
 20
8.09038
 11
-18.3458
 21
7.18774
  0
LINE
  8
0
 10
-18.3458
 20
7.18774
 11
-17.5053
 21
6.17174
  0
LINE
  8
0
 10
-17.5053
 20
6.17174
 11
-16.7988
 21
5.05841
  0
LINE
  8
0
 10
-16.7988
 20
5.05841
 11
-16.2373
 21
3.8653
  0
LINE
  8
0
 10
-16.2373
 20
3.8653
 11
-15.8299
 21
2.61124
  0
LINE
  8
0
 10
-15.8299
 20
2.61124
 11
-15.5828
 21
1.31599
  0
LINE
  8
0
 10
-15.5828
 20
1.31599
 11
-15.5
 21
0
  0
LINE
  8
0
 10
-15.5
 20
0
 11
-15.5828
 21
-1.31599
  0
LINE
  8
0
 10
-15.5828
 20
-1.31599
 11
-15.8299
 21
-2.61124
  0
LINE
  8
0
 10
-15.8299
 20
-2.61124
 11
-16.2373
 21
-3.8653
  0
LINE
  8
0
 10
-16.2373
 20
-3.8653
 11
-16.7988
 21
-5.05841
  0
LINE
  8
0
 10
-16.7988
 20
-5.05841
 11
-17.5053
 21
-6.17174
  0
LINE
  8
0
 10
-17.5053
 20
-6.17174
 11
-18.3458
 21
-7.18774
  0
LINE
  8
0
 10
-18.3458
 20
-7.18774
 11
-19.307
 21
-8.09038
  0
LINE
  8
0
 10
-19.307
 20
-8.09038
 11
-20.3738
 21
-8.86543
  0
LINE
  8
0
 10
-20.3738
 20
-8.86543
 11
-21.5293
 21
-9.50067
  0
LINE
  8
0
 10
-21.5293
 20
-9.50067
 11
-22.7553
 21
-9.98608
  0
LINE
  8
0
 10
-22.7553
 20
-9.98608
 11
-24.0325
 21
-10.314
  0
LINE
  8
0
 10
-24.0325
 20
-10.314
 11
-25.3407
 21
-10.4793
  0
LINE
  8
0
 10
-25.3407
 20
-10.4793
 11
-26.6593
 21
-10.4793
  0
ENDSEC
  0
SECTION
  2
OBJECTS
  0
DICTIONARY
  0
ENDSEC
  0
EOF
