  0
SECTION
  2
BLOCKS
  0
ENDSEC
  0
SECTION
  2
ENTITIES
  0
LINE
  8
0
 10
152.937
 20
-74.4114
 11
153.545
 21
-74.2553
  0
LINE
  8
0
 10
153.545
 20
-74.2553
 11
154.129
 21
-74.0241
  0
LINE
  8
0
 10
154.129
 20
-74.0241
 11
154.679
 21
-73.7216
  0
LINE
  8
0
 10
154.679
 20
-73.7216
 11
155.187
 21
-73.3526
  0
LINE
  8
0
 10
155.187
 20
-73.3526
 11
155.645
 21
-72.9227
  0
LINE
  8
0
 10
155.645
 20
-72.9227
 11
156.045
 21
-72.4389
  0
LINE
  8
0
 10
156.045
 20
-72.4389
 11
156.382
 21
-71.9088
  0
LINE
  8
0
 10
156.382
 20
-71.9088
 11
156.649
 21
-71.3406
  0
LINE
  8
0
 10
156.649
 20
-71.3406
 11
156.843
 21
-70.7434
  0
LINE
  8
0
 10
156.843
 20
-70.7434
 11
156.961
 21
-70.1267
  0
LINE
  8
0
 10
156.961
 20
-70.1267
 11
157
 21
-69.5
  0
LINE
  8
0
 10
157
 20
-69.5
 11
157
 21
69.5
  0
LINE
  8
0
 10
157
 20
69.5
 11
156.961
 21
70.1267
  0
LINE
  8
0
 10
156.961
 20
70.1267
 11
156.843
 21
70.7434
  0
LINE
  8
0
 10
156.843
 20
70.7434
 11
156.649
 21
71.3406
  0
LINE
  8
0
 10
156.649
 20
71.3406
 11
156.382
 21
71.9088
  0
LINE
  8
0
 10
156.382
 20
71.9088
 11
156.045
 21
72.4389
  0
LINE
  8
0
 10
156.045
 20
72.4389
 11
155.645
 21
72.9227
  0
LINE
  8
0
 10
155.645
 20
72.9227
 11
155.187
 21
73.3526
  0
LINE
  8
0
 10
155.187
 20
73.3526
 11
154.679
 21
73.7216
  0
LINE
  8
0
 10
154.679
 20
73.7216
 11
154.129
 21
74.0241
  0
LINE
  8
0
 10
154.129
 20
74.0241
 11
153.545
 21
74.2553
  0
LINE
  8
0
 10
153.545
 20
74.2553
 11
152.937
 21
74.4114
  0
LINE
  8
0
 10
152.937
 20
74.4114
 11
152.314
 21
74.4901
  0
LINE
  8
0
 10
152.314
 20
74.4901
 11
-152.314
 21
74.4901
  0
LINE
  8
0
 10
-152.314
 20
74.4901
 11
-152.937
 21
74.4114
  0
LINE
  8
0
 10
-152.937
 20
74.4114
 11
-153.545
 21
74.2553
  0
LINE
  8
0
 10
-153.545
 20
74.2553
 11
-154.129
 21
74.0241
  0
LINE
  8
0
 10
-154.129
 20
74.0241
 11
-154.679
 21
73.7216
  0
LINE
  8
0
 10
-154.679
 20
73.7216
 11
-155.187
 21
73.3526
  0
LINE
  8
0
 10
-155.187
 20
73.3526
 11
-155.645
 21
72.9227
  0
LINE
  8
0
 10
-155.645
 20
72.9227
 11
-156.045
 21
72.4389
  0
LINE
  8
0
 10
-156.045
 20
72.4389
 11
-156.382
 21
71.9088
  0
LINE
  8
0
 10
-156.382
 20
71.9088
 11
-156.649
 21
71.3406
  0
LINE
  8
0
 10
-156.649
 20
71.3406
 11
-156.843
 21
70.7434
  0
LINE
  8
0
 10
-156.843
 20
70.7434
 11
-156.961
 21
70.1267
  0
LINE
  8
0
 10
-156.961
 20
70.1267
 11
-157
 21
69.5
  0
LINE
  8
0
 10
-157
 20
69.5
 11
-157
 21
-69.5
  0
LINE
  8
0
 10
-157
 20
-69.5
 11
-156.961
 21
-70.1267
  0
LINE
  8
0
 10
-156.961
 20
-70.1267
 11
-156.843
 21
-70.7434
  0
LINE
  8
0
 10
-156.843
 20
-70.7434
 11
-156.649
 21
-71.3406
  0
LINE
  8
0
 10
-156.649
 20
-71.3406
 11
-156.382
 21
-71.9088
  0
LINE
  8
0
 10
-156.382
 20
-71.9088
 11
-156.045
 21
-72.4389
  0
LINE
  8
0
 10
-156.045
 20
-72.4389
 11
-155.645
 21
-72.9227
  0
LINE
  8
0
 10
-155.645
 20
-72.9227
 11
-155.187
 21
-73.3526
  0
LINE
  8
0
 10
-155.187
 20
-73.3526
 11
-154.679
 21
-73.7216
  0
LINE
  8
0
 10
-154.679
 20
-73.7216
 11
-154.129
 21
-74.0241
  0
LINE
  8
0
 10
-154.129
 20
-74.0241
 11
-153.545
 21
-74.2553
  0
LINE
  8
0
 10
-153.545
 20
-74.2553
 11
-152.937
 21
-74.4114
  0
LINE
  8
0
 10
-152.937
 20
-74.4114
 11
-152.314
 21
-74.4901
  0
LINE
  8
0
 10
-152.314
 20
-74.4901
 11
152.314
 21
-74.4901
  0
LINE
  8
0
 10
152.314
 20
-74.4901
 11
152.937
 21
-74.4114
  0
LINE
  8
0
 10
149.812
 20
64.5059
 11
149.438
 21
64.5531
  0
LINE
  8
0
 10
149.438
 20
64.5531
 11
149.073
 21
64.6468
  0
LINE
  8
0
 10
149.073
 20
64.6468
 11
148.723
 21
64.7855
  0
LINE
  8
0
 10
148.723
 20
64.7855
 11
148.393
 21
64.967
  0
LINE
  8
0
 10
148.393
 20
64.967
 11
148.088
 21
65.1885
  0
LINE
  8
0
 10
148.088
 20
65.1885
 11
147.813
 21
65.4464
  0
LINE
  8
0
 10
147.813
 20
65.4464
 11
147.573
 21
65.7366
  0
LINE
  8
0
 10
147.573
 20
65.7366
 11
147.371
 21
66.0547
  0
LINE
  8
0
 10
147.371
 20
66.0547
 11
147.211
 21
66.3956
  0
LINE
  8
0
 10
147.211
 20
66.3956
 11
147.094
 21
66.7539
  0
LINE
  8
0
 10
147.094
 20
66.7539
 11
147.024
 21
67.124
  0
LINE
  8
0
 10
147.024
 20
67.124
 11
147
 21
67.5
  0
LINE
  8
0
 10
147
 20
67.5
 11
147.024
 21
67.876
  0
LINE
  8
0
 10
147.024
 20
67.876
 11
147.094
 21
68.2461
  0
LINE
  8
0
 10
147.094
 20
68.2461
 11
147.211
 21
68.6044
  0
LINE
  8
0
 10
147.211
 20
68.6044
 11
147.371
 21
68.9453
  0
LINE
  8
0
 10
147.371
 20
68.9453
 11
147.573
 21
69.2634
  0
LINE
  8
0
 10
147.573
 20
69.2634
 11
147.813
 21
69.5536
  0
LINE
  8
0
 10
147.813
 20
69.5536
 11
148.088
 21
69.8115
  0
LINE
  8
0
 10
148.088
 20
69.8115
 11
148.393
 21
70.033
  0
LINE
  8
0
 10
148.393
 20
70.033
 11
148.723
 21
70.2145
  0
LINE
  8
0
 10
148.723
 20
70.2145
 11
149.073
 21
70.3532
  0
LINE
  8
0
 10
149.073
 20
70.3532
 11
149.438
 21
70.4469
  0
LINE
  8
0
 10
149.438
 20
70.4469
 11
149.812
 21
70.4941
  0
LINE
  8
0
 10
149.812
 20
70.4941
 11
150.188
 21
70.4941
  0
LINE
  8
0
 10
150.188
 20
70.4941
 11
150.562
 21
70.4469
  0
LINE
  8
0
 10
150.562
 20
70.4469
 11
150.927
 21
70.3532
  0
LINE
  8
0
 10
150.927
 20
70.3532
 11
151.277
 21
70.2145
  0
LINE
  8
0
 10
151.277
 20
70.2145
 11
151.607
 21
70.033
  0
LINE
  8
0
 10
151.607
 20
70.033
 11
151.912
 21
69.8115
  0
LINE
  8
0
 10
151.912
 20
69.8115
 11
152.187
 21
69.5536
  0
LINE
  8
0
 10
152.187
 20
69.5536
 11
152.427
 21
69.2634
  0
LINE
  8
0
 10
152.427
 20
69.2634
 11
152.629
 21
68.9453
  0
LINE
  8
0
 10
152.629
 20
68.9453
 11
152.789
 21
68.6044
  0
LINE
  8
0
 10
152.789
 20
68.6044
 11
152.906
 21
68.2461
  0
LINE
  8
0
 10
152.906
 20
68.2461
 11
152.976
 21
67.876
  0
LINE
  8
0
 10
152.976
 20
67.876
 11
153
 21
67.5
  0
LINE
  8
0
 10
153
 20
67.5
 11
152.976
 21
67.124
  0
LINE
  8
0
 10
152.976
 20
67.124
 11
152.906
 21
66.7539
  0
LINE
  8
0
 10
152.906
 20
66.7539
 11
152.789
 21
66.3956
  0
LINE
  8
0
 10
152.789
 20
66.3956
 11
152.629
 21
66.0547
  0
LINE
  8
0
 10
152.629
 20
66.0547
 11
152.427
 21
65.7366
  0
LINE
  8
0
 10
152.427
 20
65.7366
 11
152.187
 21
65.4464
  0
LINE
  8
0
 10
152.187
 20
65.4464
 11
151.912
 21
65.1885
  0
LINE
  8
0
 10
151.912
 20
65.1885
 11
151.607
 21
64.967
  0
LINE
  8
0
 10
151.607
 20
64.967
 11
151.277
 21
64.7855
  0
LINE
  8
0
 10
151.277
 20
64.7855
 11
150.927
 21
64.6468
  0
LINE
  8
0
 10
150.927
 20
64.6468
 11
150.562
 21
64.5531
  0
LINE
  8
0
 10
150.562
 20
64.5531
 11
150.188
 21
64.5059
  0
LINE
  8
0
 10
150.188
 20
64.5059
 11
149.812
 21
64.5059
  0
LINE
  8
0
 10
-150.188
 20
64.5059
 11
-150.562
 21
64.5531
  0
LINE
  8
0
 10
-150.562
 20
64.5531
 11
-150.927
 21
64.6468
  0
LINE
  8
0
 10
-150.927
 20
64.6468
 11
-151.277
 21
64.7855
  0
LINE
  8
0
 10
-151.277
 20
64.7855
 11
-151.607
 21
64.967
  0
LINE
  8
0
 10
-151.607
 20
64.967
 11
-151.912
 21
65.1885
  0
LINE
  8
0
 10
-151.912
 20
65.1885
 11
-152.187
 21
65.4464
  0
LINE
  8
0
 10
-152.187
 20
65.4464
 11
-152.427
 21
65.7366
  0
LINE
  8
0
 10
-152.427
 20
65.7366
 11
-152.629
 21
66.0547
  0
LINE
  8
0
 10
-152.629
 20
66.0547
 11
-152.789
 21
66.3956
  0
LINE
  8
0
 10
-152.789
 20
66.3956
 11
-152.906
 21
66.7539
  0
LINE
  8
0
 10
-152.906
 20
66.7539
 11
-152.976
 21
67.124
  0
LINE
  8
0
 10
-152.976
 20
67.124
 11
-153
 21
67.5
  0
LINE
  8
0
 10
-153
 20
67.5
 11
-152.976
 21
67.876
  0
LINE
  8
0
 10
-152.976
 20
67.876
 11
-152.906
 21
68.2461
  0
LINE
  8
0
 10
-152.906
 20
68.2461
 11
-152.789
 21
68.6044
  0
LINE
  8
0
 10
-152.789
 20
68.6044
 11
-152.629
 21
68.9453
  0
LINE
  8
0
 10
-152.629
 20
68.9453
 11
-152.427
 21
69.2634
  0
LINE
  8
0
 10
-152.427
 20
69.2634
 11
-152.187
 21
69.5536
  0
LINE
  8
0
 10
-152.187
 20
69.5536
 11
-151.912
 21
69.8115
  0
LINE
  8
0
 10
-151.912
 20
69.8115
 11
-151.607
 21
70.033
  0
LINE
  8
0
 10
-151.607
 20
70.033
 11
-151.277
 21
70.2145
  0
LINE
  8
0
 10
-151.277
 20
70.2145
 11
-150.927
 21
70.3532
  0
LINE
  8
0
 10
-150.927
 20
70.3532
 11
-150.562
 21
70.4469
  0
LINE
  8
0
 10
-150.562
 20
70.4469
 11
-150.188
 21
70.4941
  0
LINE
  8
0
 10
-150.188
 20
70.4941
 11
-149.812
 21
70.4941
  0
LINE
  8
0
 10
-149.812
 20
70.4941
 11
-149.438
 21
70.4469
  0
LINE
  8
0
 10
-149.438
 20
70.4469
 11
-149.073
 21
70.3532
  0
LINE
  8
0
 10
-149.073
 20
70.3532
 11
-148.723
 21
70.2145
  0
LINE
  8
0
 10
-148.723
 20
70.2145
 11
-148.393
 21
70.033
  0
LINE
  8
0
 10
-148.393
 20
70.033
 11
-148.088
 21
69.8115
  0
LINE
  8
0
 10
-148.088
 20
69.8115
 11
-147.813
 21
69.5536
  0
LINE
  8
0
 10
-147.813
 20
69.5536
 11
-147.573
 21
69.2634
  0
LINE
  8
0
 10
-147.573
 20
69.2634
 11
-147.371
 21
68.9453
  0
LINE
  8
0
 10
-147.371
 20
68.9453
 11
-147.211
 21
68.6044
  0
LINE
  8
0
 10
-147.211
 20
68.6044
 11
-147.094
 21
68.2461
  0
LINE
  8
0
 10
-147.094
 20
68.2461
 11
-147.024
 21
67.876
  0
LINE
  8
0
 10
-147.024
 20
67.876
 11
-147
 21
67.5
  0
LINE
  8
0
 10
-147
 20
67.5
 11
-147.024
 21
67.124
  0
LINE
  8
0
 10
-147.024
 20
67.124
 11
-147.094
 21
66.7539
  0
LINE
  8
0
 10
-147.094
 20
66.7539
 11
-147.211
 21
66.3956
  0
LINE
  8
0
 10
-147.211
 20
66.3956
 11
-147.371
 21
66.0547
  0
LINE
  8
0
 10
-147.371
 20
66.0547
 11
-147.573
 21
65.7366
  0
LINE
  8
0
 10
-147.573
 20
65.7366
 11
-147.813
 21
65.4464
  0
LINE
  8
0
 10
-147.813
 20
65.4464
 11
-148.088
 21
65.1885
  0
LINE
  8
0
 10
-148.088
 20
65.1885
 11
-148.393
 21
64.967
  0
LINE
  8
0
 10
-148.393
 20
64.967
 11
-148.723
 21
64.7855
  0
LINE
  8
0
 10
-148.723
 20
64.7855
 11
-149.073
 21
64.6468
  0
LINE
  8
0
 10
-149.073
 20
64.6468
 11
-149.438
 21
64.5531
  0
LINE
  8
0
 10
-149.438
 20
64.5531
 11
-149.812
 21
64.5059
  0
LINE
  8
0
 10
-149.812
 20
64.5059
 11
-150.188
 21
64.5059
  0
LINE
  8
0
 10
68.1047
 20
-69.8619
 11
59.3833
 21
-68.7601
  0
LINE
  8
0
 10
59.3833
 20
-68.7601
 11
50.8688
 21
-66.574
  0
LINE
  8
0
 10
50.8688
 20
-66.574
 11
42.6954
 21
-63.3379
  0
LINE
  8
0
 10
42.6954
 20
-63.3379
 11
34.9921
 21
-59.103
  0
LINE
  8
0
 10
34.9921
 20
-59.103
 11
27.8803
 21
-53.9359
  0
LINE
  8
0
 10
27.8803
 20
-53.9359
 11
21.4722
 21
-47.9183
  0
LINE
  8
0
 10
21.4722
 20
-47.9183
 11
15.8688
 21
-41.145
  0
LINE
  8
0
 10
15.8688
 20
-41.145
 11
11.1585
 21
-33.7227
  0
LINE
  8
0
 10
11.1585
 20
-33.7227
 11
7.41563
 21
-25.7687
  0
LINE
  8
0
 10
7.41563
 20
-25.7687
 11
4.69917
 21
-17.4083
  0
LINE
  8
0
 10
4.69917
 20
-17.4083
 11
3.05196
 21
-8.77332
  0
LINE
  8
0
 10
3.05196
 20
-8.77332
 11
2.5
 21
0
  0
LINE
  8
0
 10
2.5
 20
0
 11
3.05196
 21
8.77332
  0
LINE
  8
0
 10
3.05196
 20
8.77332
 11
4.69917
 21
17.4083
  0
LINE
  8
0
 10
4.69917
 20
17.4083
 11
7.41563
 21
25.7687
  0
LINE
  8
0
 10
7.41563
 20
25.7687
 11
11.1585
 21
33.7227
  0
LINE
  8
0
 10
11.1585
 20
33.7227
 11
15.8688
 21
41.145
  0
LINE
  8
0
 10
15.8688
 20
41.145
 11
21.4722
 21
47.9183
  0
LINE
  8
0
 10
21.4722
 20
47.9183
 11
27.8803
 21
53.9359
  0
LINE
  8
0
 10
27.8803
 20
53.9359
 11
34.9921
 21
59.103
  0
LINE
  8
0
 10
34.9921
 20
59.103
 11
42.6954
 21
63.3379
  0
LINE
  8
0
 10
42.6954
 20
63.3379
 11
50.8688
 21
66.574
  0
LINE
  8
0
 10
50.8688
 20
66.574
 11
59.3833
 21
68.7601
  0
LINE
  8
0
 10
59.3833
 20
68.7601
 11
68.1047
 21
69.8619
  0
LINE
  8
0
 10
68.1047
 20
69.8619
 11
76.8953
 21
69.8619
  0
LINE
  8
0
 10
76.8953
 20
69.8619
 11
85.6167
 21
68.7601
  0
LINE
  8
0
 10
85.6167
 20
68.7601
 11
94.1312
 21
66.574
  0
LINE
  8
0
 10
94.1312
 20
66.574
 11
102.305
 21
63.3379
  0
LINE
  8
0
 10
102.305
 20
63.3379
 11
110.008
 21
59.103
  0
LINE
  8
0
 10
110.008
 20
59.103
 11
117.12
 21
53.9359
  0
LINE
  8
0
 10
117.12
 20
53.9359
 11
123.528
 21
47.9183
  0
LINE
  8
0
 10
123.528
 20
47.9183
 11
129.131
 21
41.145
  0
LINE
  8
0
 10
129.131
 20
41.145
 11
133.841
 21
33.7227
  0
LINE
  8
0
 10
133.841
 20
33.7227
 11
137.584
 21
25.7687
  0
LINE
  8
0
 10
137.584
 20
25.7687
 11
140.301
 21
17.4083
  0
LINE
  8
0
 10
140.301
 20
17.4083
 11
141.948
 21
8.77332
  0
LINE
  8
0
 10
141.948
 20
8.77332
 11
142.5
 21
0
  0
LINE
  8
0
 10
142.5
 20
0
 11
141.948
 21
-8.77332
  0
LINE
  8
0
 10
141.948
 20
-8.77332
 11
140.301
 21
-17.4083
  0
LINE
  8
0
 10
140.301
 20
-17.4083
 11
137.584
 21
-25.7687
  0
LINE
  8
0
 10
137.584
 20
-25.7687
 11
133.841
 21
-33.7227
  0
LINE
  8
0
 10
133.841
 20
-33.7227
 11
129.131
 21
-41.145
  0
LINE
  8
0
 10
129.131
 20
-41.145
 11
123.528
 21
-47.9183
  0
LINE
  8
0
 10
123.528
 20
-47.9183
 11
117.12
 21
-53.9359
  0
LINE
  8
0
 10
117.12
 20
-53.9359
 11
110.008
 21
-59.103
  0
LINE
  8
0
 10
110.008
 20
-59.103
 11
102.305
 21
-63.3379
  0
LINE
  8
0
 10
102.305
 20
-63.3379
 11
94.1312
 21
-66.574
  0
LINE
  8
0
 10
94.1312
 20
-66.574
 11
85.6167
 21
-68.7601
  0
LINE
  8
0
 10
85.6167
 20
-68.7601
 11
76.8953
 21
-69.8619
  0
LINE
  8
0
 10
76.8953
 20
-69.8619
 11
68.1047
 21
-69.8619
  0
LINE
  8
0
 10
-76.8953
 20
-69.8619
 11
-85.6167
 21
-68.7601
  0
LINE
  8
0
 10
-85.6167
 20
-68.7601
 11
-94.1312
 21
-66.574
  0
LINE
  8
0
 10
-94.1312
 20
-66.574
 11
-102.305
 21
-63.3379
  0
LINE
  8
0
 10
-102.305
 20
-63.3379
 11
-110.008
 21
-59.103
  0
LINE
  8
0
 10
-110.008
 20
-59.103
 11
-117.12
 21
-53.9359
  0
LINE
  8
0
 10
-117.12
 20
-53.9359
 11
-123.528
 21
-47.9183
  0
LINE
  8
0
 10
-123.528
 20
-47.9183
 11
-129.131
 21
-41.145
  0
LINE
  8
0
 10
-129.131
 20
-41.145
 11
-133.841
 21
-33.7227
  0
LINE
  8
0
 10
-133.841
 20
-33.7227
 11
-137.584
 21
-25.7687
  0
LINE
  8
0
 10
-137.584
 20
-25.7687
 11
-140.301
 21
-17.4083
  0
LINE
  8
0
 10
-140.301
 20
-17.4083
 11
-141.948
 21
-8.77332
  0
LINE
  8
0
 10
-141.948
 20
-8.77332
 11
-142.5
 21
0
  0
LINE
  8
0
 10
-142.5
 20
0
 11
-141.948
 21
8.77332
  0
LINE
  8
0
 10
-141.948
 20
8.77332
 11
-140.301
 21
17.4083
  0
LINE
  8
0
 10
-140.301
 20
17.4083
 11
-137.584
 21
25.7687
  0
LINE
  8
0
 10
-137.584
 20
25.7687
 11
-133.841
 21
33.7227
  0
LINE
  8
0
 10
-133.841
 20
33.7227
 11
-129.131
 21
41.145
  0
LINE
  8
0
 10
-129.131
 20
41.145
 11
-123.528
 21
47.9183
  0
LINE
  8
0
 10
-123.528
 20
47.9183
 11
-117.12
 21
53.9359
  0
LINE
  8
0
 10
-117.12
 20
53.9359
 11
-110.008
 21
59.103
  0
LINE
  8
0
 10
-110.008
 20
59.103
 11
-102.305
 21
63.3379
  0
LINE
  8
0
 10
-102.305
 20
63.3379
 11
-94.1312
 21
66.574
  0
LINE
  8
0
 10
-94.1312
 20
66.574
 11
-85.6167
 21
68.7601
  0
LINE
  8
0
 10
-85.6167
 20
68.7601
 11
-76.8953
 21
69.8619
  0
LINE
  8
0
 10
-76.8953
 20
69.8619
 11
-68.1047
 21
69.8619
  0
LINE
  8
0
 10
-68.1047
 20
69.8619
 11
-59.3833
 21
68.7601
  0
LINE
  8
0
 10
-59.3833
 20
68.7601
 11
-50.8688
 21
66.574
  0
LINE
  8
0
 10
-50.8688
 20
66.574
 11
-42.6954
 21
63.3379
  0
LINE
  8
0
 10
-42.6954
 20
63.3379
 11
-34.9921
 21
59.103
  0
LINE
  8
0
 10
-34.9921
 20
59.103
 11
-27.8803
 21
53.9359
  0
LINE
  8
0
 10
-27.8803
 20
53.9359
 11
-21.4722
 21
47.9183
  0
LINE
  8
0
 10
-21.4722
 20
47.9183
 11
-15.8688
 21
41.145
  0
LINE
  8
0
 10
-15.8688
 20
41.145
 11
-11.1585
 21
33.7227
  0
LINE
  8
0
 10
-11.1585
 20
33.7227
 11
-7.41563
 21
25.7687
  0
LINE
  8
0
 10
-7.41563
 20
25.7687
 11
-4.69917
 21
17.4083
  0
LINE
  8
0
 10
-4.69917
 20
17.4083
 11
-3.05196
 21
8.77332
  0
LINE
  8
0
 10
-3.05196
 20
8.77332
 11
-2.5
 21
0
  0
LINE
  8
0
 10
-2.5
 20
0
 11
-3.05196
 21
-8.77332
  0
LINE
  8
0
 10
-3.05196
 20
-8.77332
 11
-4.69917
 21
-17.4083
  0
LINE
  8
0
 10
-4.69917
 20
-17.4083
 11
-7.41563
 21
-25.7687
  0
LINE
  8
0
 10
-7.41563
 20
-25.7687
 11
-11.1585
 21
-33.7227
  0
LINE
  8
0
 10
-11.1585
 20
-33.7227
 11
-15.8688
 21
-41.145
  0
LINE
  8
0
 10
-15.8688
 20
-41.145
 11
-21.4722
 21
-47.9183
  0
LINE
  8
0
 10
-21.4722
 20
-47.9183
 11
-27.8803
 21
-53.9359
  0
LINE
  8
0
 10
-27.8803
 20
-53.9359
 11
-34.9921
 21
-59.103
  0
LINE
  8
0
 10
-34.9921
 20
-59.103
 11
-42.6954
 21
-63.3379
  0
LINE
  8
0
 10
-42.6954
 20
-63.3379
 11
-50.8688
 21
-66.574
  0
LINE
  8
0
 10
-50.8688
 20
-66.574
 11
-59.3833
 21
-68.7601
  0
LINE
  8
0
 10
-59.3833
 20
-68.7601
 11
-68.1047
 21
-69.8619
  0
LINE
  8
0
 10
-68.1047
 20
-69.8619
 11
-76.8953
 21
-69.8619
  0
LINE
  8
0
 10
-150.094
 20
58.503
 11
-150.281
 21
58.5266
  0
LINE
  8
0
 10
-150.281
 20
58.5266
 11
-150.464
 21
58.5734
  0
LINE
  8
0
 10
-150.464
 20
58.5734
 11
-150.639
 21
58.6428
  0
LINE
  8
0
 10
-150.639
 20
58.6428
 11
-150.804
 21
58.7335
  0
LINE
  8
0
 10
-150.804
 20
58.7335
 11
-150.956
 21
58.8442
  0
LINE
  8
0
 10
-150.956
 20
58.8442
 11
-151.093
 21
58.9732
  0
LINE
  8
0
 10
-151.093
 20
58.9732
 11
-151.214
 21
59.1183
  0
LINE
  8
0
 10
-151.214
 20
59.1183
 11
-151.314
 21
59.2774
  0
LINE
  8
0
 10
-151.314
 20
59.2774
 11
-151.395
 21
59.4478
  0
LINE
  8
0
 10
-151.395
 20
59.4478
 11
-151.453
 21
59.627
  0
LINE
  8
0
 10
-151.453
 20
59.627
 11
-151.488
 21
59.812
  0
LINE
  8
0
 10
-151.488
 20
59.812
 11
-151.5
 21
60
  0
LINE
  8
0
 10
-151.5
 20
60
 11
-151.488
 21
60.188
  0
LINE
  8
0
 10
-151.488
 20
60.188
 11
-151.453
 21
60.373
  0
LINE
  8
0
 10
-151.453
 20
60.373
 11
-151.395
 21
60.5522
  0
LINE
  8
0
 10
-151.395
 20
60.5522
 11
-151.314
 21
60.7226
  0
LINE
  8
0
 10
-151.314
 20
60.7226
 11
-151.214
 21
60.8817
  0
LINE
  8
0
 10
-151.214
 20
60.8817
 11
-151.093
 21
61.0268
  0
LINE
  8
0
 10
-151.093
 20
61.0268
 11
-150.956
 21
61.1558
  0
LINE
  8
0
 10
-150.956
 20
61.1558
 11
-150.804
 21
61.2665
  0
LINE
  8
0
 10
-150.804
 20
61.2665
 11
-150.639
 21
61.3572
  0
LINE
  8
0
 10
-150.639
 20
61.3572
 11
-150.464
 21
61.4266
  0
LINE
  8
0
 10
-150.464
 20
61.4266
 11
-150.281
 21
61.4734
  0
LINE
  8
0
 10
-150.281
 20
61.4734
 11
-150.094
 21
61.497
  0
LINE
  8
0
 10
-150.094
 20
61.497
 11
-149.906
 21
61.497
  0
LINE
  8
0
 10
-149.906
 20
61.497
 11
-149.719
 21
61.4734
  0
LINE
  8
0
 10
-149.719
 20
61.4734
 11
-149.536
 21
61.4266
  0
LINE
  8
0
 10
-149.536
 20
61.4266
 11
-149.361
 21
61.3572
  0
LINE
  8
0
 10
-149.361
 20
61.3572
 11
-149.196
 21
61.2665
  0
LINE
  8
0
 10
-149.196
 20
61.2665
 11
-149.044
 21
61.1558
  0
LINE
  8
0
 10
-149.044
 20
61.1558
 11
-148.907
 21
61.0268
  0
LINE
  8
0
 10
-148.907
 20
61.0268
 11
-148.786
 21
60.8817
  0
LINE
  8
0
 10
-148.786
 20
60.8817
 11
-148.686
 21
60.7226
  0
LINE
  8
0
 10
-148.686
 20
60.7226
 11
-148.605
 21
60.5522
  0
LINE
  8
0
 10
-148.605
 20
60.5522
 11
-148.547
 21
60.373
  0
LINE
  8
0
 10
-148.547
 20
60.373
 11
-148.512
 21
60.188
  0
LINE
  8
0
 10
-148.512
 20
60.188
 11
-148.5
 21
60
  0
LINE
  8
0
 10
-148.5
 20
60
 11
-148.512
 21
59.812
  0
LINE
  8
0
 10
-148.512
 20
59.812
 11
-148.547
 21
59.627
  0
LINE
  8
0
 10
-148.547
 20
59.627
 11
-148.605
 21
59.4478
  0
LINE
  8
0
 10
-148.605
 20
59.4478
 11
-148.686
 21
59.2774
  0
LINE
  8
0
 10
-148.686
 20
59.2774
 11
-148.786
 21
59.1183
  0
LINE
  8
0
 10
-148.786
 20
59.1183
 11
-148.907
 21
58.9732
  0
LINE
  8
0
 10
-148.907
 20
58.9732
 11
-149.044
 21
58.8442
  0
LINE
  8
0
 10
-149.044
 20
58.8442
 11
-149.196
 21
58.7335
  0
LINE
  8
0
 10
-149.196
 20
58.7335
 11
-149.361
 21
58.6428
  0
LINE
  8
0
 10
-149.361
 20
58.6428
 11
-149.536
 21
58.5734
  0
LINE
  8
0
 10
-149.536
 20
58.5734
 11
-149.719
 21
58.5266
  0
LINE
  8
0
 10
-149.719
 20
58.5266
 11
-149.906
 21
58.503
  0
LINE
  8
0
 10
-149.906
 20
58.503
 11
-150.094
 21
58.503
  0
LINE
  8
0
 10
149.906
 20
58.503
 11
149.719
 21
58.5266
  0
LINE
  8
0
 10
149.719
 20
58.5266
 11
149.536
 21
58.5734
  0
LINE
  8
0
 10
149.536
 20
58.5734
 11
149.361
 21
58.6428
  0
LINE
  8
0
 10
149.361
 20
58.6428
 11
149.196
 21
58.7335
  0
LINE
  8
0
 10
149.196
 20
58.7335
 11
149.044
 21
58.8442
  0
LINE
  8
0
 10
149.044
 20
58.8442
 11
148.907
 21
58.9732
  0
LINE
  8
0
 10
148.907
 20
58.9732
 11
148.786
 21
59.1183
  0
LINE
  8
0
 10
148.786
 20
59.1183
 11
148.686
 21
59.2774
  0
LINE
  8
0
 10
148.686
 20
59.2774
 11
148.605
 21
59.4478
  0
LINE
  8
0
 10
148.605
 20
59.4478
 11
148.547
 21
59.627
  0
LINE
  8
0
 10
148.547
 20
59.627
 11
148.512
 21
59.812
  0
LINE
  8
0
 10
148.512
 20
59.812
 11
148.5
 21
60
  0
LINE
  8
0
 10
148.5
 20
60
 11
148.512
 21
60.188
  0
LINE
  8
0
 10
148.512
 20
60.188
 11
148.547
 21
60.373
  0
LINE
  8
0
 10
148.547
 20
60.373
 11
148.605
 21
60.5522
  0
LINE
  8
0
 10
148.605
 20
60.5522
 11
148.686
 21
60.7226
  0
LINE
  8
0
 10
148.686
 20
60.7226
 11
148.786
 21
60.8817
  0
LINE
  8
0
 10
148.786
 20
60.8817
 11
148.907
 21
61.0268
  0
LINE
  8
0
 10
148.907
 20
61.0268
 11
149.044
 21
61.1558
  0
LINE
  8
0
 10
149.044
 20
61.1558
 11
149.196
 21
61.2665
  0
LINE
  8
0
 10
149.196
 20
61.2665
 11
149.361
 21
61.3572
  0
LINE
  8
0
 10
149.361
 20
61.3572
 11
149.536
 21
61.4266
  0
LINE
  8
0
 10
149.536
 20
61.4266
 11
149.719
 21
61.4734
  0
LINE
  8
0
 10
149.719
 20
61.4734
 11
149.906
 21
61.497
  0
LINE
  8
0
 10
149.906
 20
61.497
 11
150.094
 21
61.497
  0
LINE
  8
0
 10
150.094
 20
61.497
 11
150.281
 21
61.4734
  0
LINE
  8
0
 10
150.281
 20
61.4734
 11
150.464
 21
61.4266
  0
LINE
  8
0
 10
150.464
 20
61.4266
 11
150.639
 21
61.3572
  0
LINE
  8
0
 10
150.639
 20
61.3572
 11
150.804
 21
61.2665
  0
LINE
  8
0
 10
150.804
 20
61.2665
 11
150.956
 21
61.1558
  0
LINE
  8
0
 10
150.956
 20
61.1558
 11
151.093
 21
61.0268
  0
LINE
  8
0
 10
151.093
 20
61.0268
 11
151.214
 21
60.8817
  0
LINE
  8
0
 10
151.214
 20
60.8817
 11
151.314
 21
60.7226
  0
LINE
  8
0
 10
151.314
 20
60.7226
 11
151.395
 21
60.5522
  0
LINE
  8
0
 10
151.395
 20
60.5522
 11
151.453
 21
60.373
  0
LINE
  8
0
 10
151.453
 20
60.373
 11
151.488
 21
60.188
  0
LINE
  8
0
 10
151.488
 20
60.188
 11
151.5
 21
60
  0
LINE
  8
0
 10
151.5
 20
60
 11
151.488
 21
59.812
  0
LINE
  8
0
 10
151.488
 20
59.812
 11
151.453
 21
59.627
  0
LINE
  8
0
 10
151.453
 20
59.627
 11
151.395
 21
59.4478
  0
LINE
  8
0
 10
151.395
 20
59.4478
 11
151.314
 21
59.2774
  0
LINE
  8
0
 10
151.314
 20
59.2774
 11
151.214
 21
59.1183
  0
LINE
  8
0
 10
151.214
 20
59.1183
 11
151.093
 21
58.9732
  0
LINE
  8
0
 10
151.093
 20
58.9732
 11
150.956
 21
58.8442
  0
LINE
  8
0
 10
150.956
 20
58.8442
 11
150.804
 21
58.7335
  0
LINE
  8
0
 10
150.804
 20
58.7335
 11
150.639
 21
58.6428
  0
LINE
  8
0
 10
150.639
 20
58.6428
 11
150.464
 21
58.5734
  0
LINE
  8
0
 10
150.464
 20
58.5734
 11
150.281
 21
58.5266
  0
LINE
  8
0
 10
150.281
 20
58.5266
 11
150.094
 21
58.503
  0
LINE
  8
0
 10
150.094
 20
58.503
 11
149.906
 21
58.503
  0
LINE
  8
0
 10
-150.188
 20
49.5059
 11
-150.562
 21
49.5531
  0
LINE
  8
0
 10
-150.562
 20
49.5531
 11
-150.927
 21
49.6468
  0
LINE
  8
0
 10
-150.927
 20
49.6468
 11
-151.277
 21
49.7855
  0
LINE
  8
0
 10
-151.277
 20
49.7855
 11
-151.607
 21
49.967
  0
LINE
  8
0
 10
-151.607
 20
49.967
 11
-151.912
 21
50.1885
  0
LINE
  8
0
 10
-151.912
 20
50.1885
 11
-152.187
 21
50.4464
  0
LINE
  8
0
 10
-152.187
 20
50.4464
 11
-152.427
 21
50.7366
  0
LINE
  8
0
 10
-152.427
 20
50.7366
 11
-152.629
 21
51.0547
  0
LINE
  8
0
 10
-152.629
 20
51.0547
 11
-152.789
 21
51.3956
  0
LINE
  8
0
 10
-152.789
 20
51.3956
 11
-152.906
 21
51.7539
  0
LINE
  8
0
 10
-152.906
 20
51.7539
 11
-152.976
 21
52.124
  0
LINE
  8
0
 10
-152.976
 20
52.124
 11
-153
 21
52.5
  0
LINE
  8
0
 10
-153
 20
52.5
 11
-152.976
 21
52.876
  0
LINE
  8
0
 10
-152.976
 20
52.876
 11
-152.906
 21
53.2461
  0
LINE
  8
0
 10
-152.906
 20
53.2461
 11
-152.789
 21
53.6044
  0
LINE
  8
0
 10
-152.789
 20
53.6044
 11
-152.629
 21
53.9453
  0
LINE
  8
0
 10
-152.629
 20
53.9453
 11
-152.427
 21
54.2634
  0
LINE
  8
0
 10
-152.427
 20
54.2634
 11
-152.187
 21
54.5536
  0
LINE
  8
0
 10
-152.187
 20
54.5536
 11
-151.912
 21
54.8115
  0
LINE
  8
0
 10
-151.912
 20
54.8115
 11
-151.607
 21
55.033
  0
LINE
  8
0
 10
-151.607
 20
55.033
 11
-151.277
 21
55.2145
  0
LINE
  8
0
 10
-151.277
 20
55.2145
 11
-150.927
 21
55.3532
  0
LINE
  8
0
 10
-150.927
 20
55.3532
 11
-150.562
 21
55.4469
  0
LINE
  8
0
 10
-150.562
 20
55.4469
 11
-150.188
 21
55.4941
  0
LINE
  8
0
 10
-150.188
 20
55.4941
 11
-149.812
 21
55.4941
  0
LINE
  8
0
 10
-149.812
 20
55.4941
 11
-149.438
 21
55.4469
  0
LINE
  8
0
 10
-149.438
 20
55.4469
 11
-149.073
 21
55.3532
  0
LINE
  8
0
 10
-149.073
 20
55.3532
 11
-148.723
 21
55.2145
  0
LINE
  8
0
 10
-148.723
 20
55.2145
 11
-148.393
 21
55.033
  0
LINE
  8
0
 10
-148.393
 20
55.033
 11
-148.088
 21
54.8115
  0
LINE
  8
0
 10
-148.088
 20
54.8115
 11
-147.813
 21
54.5536
  0
LINE
  8
0
 10
-147.813
 20
54.5536
 11
-147.573
 21
54.2634
  0
LINE
  8
0
 10
-147.573
 20
54.2634
 11
-147.371
 21
53.9453
  0
LINE
  8
0
 10
-147.371
 20
53.9453
 11
-147.211
 21
53.6044
  0
LINE
  8
0
 10
-147.211
 20
53.6044
 11
-147.094
 21
53.2461
  0
LINE
  8
0
 10
-147.094
 20
53.2461
 11
-147.024
 21
52.876
  0
LINE
  8
0
 10
-147.024
 20
52.876
 11
-147
 21
52.5
  0
LINE
  8
0
 10
-147
 20
52.5
 11
-147.024
 21
52.124
  0
LINE
  8
0
 10
-147.024
 20
52.124
 11
-147.094
 21
51.7539
  0
LINE
  8
0
 10
-147.094
 20
51.7539
 11
-147.211
 21
51.3956
  0
LINE
  8
0
 10
-147.211
 20
51.3956
 11
-147.371
 21
51.0547
  0
LINE
  8
0
 10
-147.371
 20
51.0547
 11
-147.573
 21
50.7366
  0
LINE
  8
0
 10
-147.573
 20
50.7366
 11
-147.813
 21
50.4464
  0
LINE
  8
0
 10
-147.813
 20
50.4464
 11
-148.088
 21
50.1885
  0
LINE
  8
0
 10
-148.088
 20
50.1885
 11
-148.393
 21
49.967
  0
LINE
  8
0
 10
-148.393
 20
49.967
 11
-148.723
 21
49.7855
  0
LINE
  8
0
 10
-148.723
 20
49.7855
 11
-149.073
 21
49.6468
  0
LINE
  8
0
 10
-149.073
 20
49.6468
 11
-149.438
 21
49.5531
  0
LINE
  8
0
 10
-149.438
 20
49.5531
 11
-149.812
 21
49.5059
  0
LINE
  8
0
 10
-149.812
 20
49.5059
 11
-150.188
 21
49.5059
  0
LINE
  8
0
 10
149.812
 20
49.5059
 11
149.438
 21
49.5531
  0
LINE
  8
0
 10
149.438
 20
49.5531
 11
149.073
 21
49.6468
  0
LINE
  8
0
 10
149.073
 20
49.6468
 11
148.723
 21
49.7855
  0
LINE
  8
0
 10
148.723
 20
49.7855
 11
148.393
 21
49.967
  0
LINE
  8
0
 10
148.393
 20
49.967
 11
148.088
 21
50.1885
  0
LINE
  8
0
 10
148.088
 20
50.1885
 11
147.813
 21
50.4464
  0
LINE
  8
0
 10
147.813
 20
50.4464
 11
147.573
 21
50.7366
  0
LINE
  8
0
 10
147.573
 20
50.7366
 11
147.371
 21
51.0547
  0
LINE
  8
0
 10
147.371
 20
51.0547
 11
147.211
 21
51.3956
  0
LINE
  8
0
 10
147.211
 20
51.3956
 11
147.094
 21
51.7539
  0
LINE
  8
0
 10
147.094
 20
51.7539
 11
147.024
 21
52.124
  0
LINE
  8
0
 10
147.024
 20
52.124
 11
147
 21
52.5
  0
LINE
  8
0
 10
147
 20
52.5
 11
147.024
 21
52.876
  0
LINE
  8
0
 10
147.024
 20
52.876
 11
147.094
 21
53.2461
  0
LINE
  8
0
 10
147.094
 20
53.2461
 11
147.211
 21
53.6044
  0
LINE
  8
0
 10
147.211
 20
53.6044
 11
147.371
 21
53.9453
  0
LINE
  8
0
 10
147.371
 20
53.9453
 11
147.573
 21
54.2634
  0
LINE
  8
0
 10
147.573
 20
54.2634
 11
147.813
 21
54.5536
  0
LINE
  8
0
 10
147.813
 20
54.5536
 11
148.088
 21
54.8115
  0
LINE
  8
0
 10
148.088
 20
54.8115
 11
148.393
 21
55.033
  0
LINE
  8
0
 10
148.393
 20
55.033
 11
148.723
 21
55.2145
  0
LINE
  8
0
 10
148.723
 20
55.2145
 11
149.073
 21
55.3532
  0
LINE
  8
0
 10
149.073
 20
55.3532
 11
149.438
 21
55.4469
  0
LINE
  8
0
 10
149.438
 20
55.4469
 11
149.812
 21
55.4941
  0
LINE
  8
0
 10
149.812
 20
55.4941
 11
150.188
 21
55.4941
  0
LINE
  8
0
 10
150.188
 20
55.4941
 11
150.562
 21
55.4469
  0
LINE
  8
0
 10
150.562
 20
55.4469
 11
150.927
 21
55.3532
  0
LINE
  8
0
 10
150.927
 20
55.3532
 11
151.277
 21
55.2145
  0
LINE
  8
0
 10
151.277
 20
55.2145
 11
151.607
 21
55.033
  0
LINE
  8
0
 10
151.607
 20
55.033
 11
151.912
 21
54.8115
  0
LINE
  8
0
 10
151.912
 20
54.8115
 11
152.187
 21
54.5536
  0
LINE
  8
0
 10
152.187
 20
54.5536
 11
152.427
 21
54.2634
  0
LINE
  8
0
 10
152.427
 20
54.2634
 11
152.629
 21
53.9453
  0
LINE
  8
0
 10
152.629
 20
53.9453
 11
152.789
 21
53.6044
  0
LINE
  8
0
 10
152.789
 20
53.6044
 11
152.906
 21
53.2461
  0
LINE
  8
0
 10
152.906
 20
53.2461
 11
152.976
 21
52.876
  0
LINE
  8
0
 10
152.976
 20
52.876
 11
153
 21
52.5
  0
LINE
  8
0
 10
153
 20
52.5
 11
152.976
 21
52.124
  0
LINE
  8
0
 10
152.976
 20
52.124
 11
152.906
 21
51.7539
  0
LINE
  8
0
 10
152.906
 20
51.7539
 11
152.789
 21
51.3956
  0
LINE
  8
0
 10
152.789
 20
51.3956
 11
152.629
 21
51.0547
  0
LINE
  8
0
 10
152.629
 20
51.0547
 11
152.427
 21
50.7366
  0
LINE
  8
0
 10
152.427
 20
50.7366
 11
152.187
 21
50.4464
  0
LINE
  8
0
 10
152.187
 20
50.4464
 11
151.912
 21
50.1885
  0
LINE
  8
0
 10
151.912
 20
50.1885
 11
151.607
 21
49.967
  0
LINE
  8
0
 10
151.607
 20
49.967
 11
151.277
 21
49.7855
  0
LINE
  8
0
 10
151.277
 20
49.7855
 11
150.927
 21
49.6468
  0
LINE
  8
0
 10
150.927
 20
49.6468
 11
150.562
 21
49.5531
  0
LINE
  8
0
 10
150.562
 20
49.5531
 11
150.188
 21
49.5059
  0
LINE
  8
0
 10
150.188
 20
49.5059
 11
149.812
 21
49.5059
  0
LINE
  8
0
 10
149.906
 20
43.503
 11
149.719
 21
43.5266
  0
LINE
  8
0
 10
149.719
 20
43.5266
 11
149.536
 21
43.5734
  0
LINE
  8
0
 10
149.536
 20
43.5734
 11
149.361
 21
43.6428
  0
LINE
  8
0
 10
149.361
 20
43.6428
 11
149.196
 21
43.7335
  0
LINE
  8
0
 10
149.196
 20
43.7335
 11
149.044
 21
43.8442
  0
LINE
  8
0
 10
149.044
 20
43.8442
 11
148.907
 21
43.9732
  0
LINE
  8
0
 10
148.907
 20
43.9732
 11
148.786
 21
44.1183
  0
LINE
  8
0
 10
148.786
 20
44.1183
 11
148.686
 21
44.2774
  0
LINE
  8
0
 10
148.686
 20
44.2774
 11
148.605
 21
44.4478
  0
LINE
  8
0
 10
148.605
 20
44.4478
 11
148.547
 21
44.627
  0
LINE
  8
0
 10
148.547
 20
44.627
 11
148.512
 21
44.812
  0
LINE
  8
0
 10
148.512
 20
44.812
 11
148.5
 21
45
  0
LINE
  8
0
 10
148.5
 20
45
 11
148.512
 21
45.188
  0
LINE
  8
0
 10
148.512
 20
45.188
 11
148.547
 21
45.373
  0
LINE
  8
0
 10
148.547
 20
45.373
 11
148.605
 21
45.5522
  0
LINE
  8
0
 10
148.605
 20
45.5522
 11
148.686
 21
45.7226
  0
LINE
  8
0
 10
148.686
 20
45.7226
 11
148.786
 21
45.8817
  0
LINE
  8
0
 10
148.786
 20
45.8817
 11
148.907
 21
46.0268
  0
LINE
  8
0
 10
148.907
 20
46.0268
 11
149.044
 21
46.1558
  0
LINE
  8
0
 10
149.044
 20
46.1558
 11
149.196
 21
46.2665
  0
LINE
  8
0
 10
149.196
 20
46.2665
 11
149.361
 21
46.3572
  0
LINE
  8
0
 10
149.361
 20
46.3572
 11
149.536
 21
46.4266
  0
LINE
  8
0
 10
149.536
 20
46.4266
 11
149.719
 21
46.4734
  0
LINE
  8
0
 10
149.719
 20
46.4734
 11
149.906
 21
46.497
  0
LINE
  8
0
 10
149.906
 20
46.497
 11
150.094
 21
46.497
  0
LINE
  8
0
 10
150.094
 20
46.497
 11
150.281
 21
46.4734
  0
LINE
  8
0
 10
150.281
 20
46.4734
 11
150.464
 21
46.4266
  0
LINE
  8
0
 10
150.464
 20
46.4266
 11
150.639
 21
46.3572
  0
LINE
  8
0
 10
150.639
 20
46.3572
 11
150.804
 21
46.2665
  0
LINE
  8
0
 10
150.804
 20
46.2665
 11
150.956
 21
46.1558
  0
LINE
  8
0
 10
150.956
 20
46.1558
 11
151.093
 21
46.0268
  0
LINE
  8
0
 10
151.093
 20
46.0268
 11
151.214
 21
45.8817
  0
LINE
  8
0
 10
151.214
 20
45.8817
 11
151.314
 21
45.7226
  0
LINE
  8
0
 10
151.314
 20
45.7226
 11
151.395
 21
45.5522
  0
LINE
  8
0
 10
151.395
 20
45.5522
 11
151.453
 21
45.373
  0
LINE
  8
0
 10
151.453
 20
45.373
 11
151.488
 21
45.188
  0
LINE
  8
0
 10
151.488
 20
45.188
 11
151.5
 21
45
  0
LINE
  8
0
 10
151.5
 20
45
 11
151.488
 21
44.812
  0
LINE
  8
0
 10
151.488
 20
44.812
 11
151.453
 21
44.627
  0
LINE
  8
0
 10
151.453
 20
44.627
 11
151.395
 21
44.4478
  0
LINE
  8
0
 10
151.395
 20
44.4478
 11
151.314
 21
44.2774
  0
LINE
  8
0
 10
151.314
 20
44.2774
 11
151.214
 21
44.1183
  0
LINE
  8
0
 10
151.214
 20
44.1183
 11
151.093
 21
43.9732
  0
LINE
  8
0
 10
151.093
 20
43.9732
 11
150.956
 21
43.8442
  0
LINE
  8
0
 10
150.956
 20
43.8442
 11
150.804
 21
43.7335
  0
LINE
  8
0
 10
150.804
 20
43.7335
 11
150.639
 21
43.6428
  0
LINE
  8
0
 10
150.639
 20
43.6428
 11
150.464
 21
43.5734
  0
LINE
  8
0
 10
150.464
 20
43.5734
 11
150.281
 21
43.5266
  0
LINE
  8
0
 10
150.281
 20
43.5266
 11
150.094
 21
43.503
  0
LINE
  8
0
 10
150.094
 20
43.503
 11
149.906
 21
43.503
  0
LINE
  8
0
 10
-150.094
 20
43.503
 11
-150.281
 21
43.5266
  0
LINE
  8
0
 10
-150.281
 20
43.5266
 11
-150.464
 21
43.5734
  0
LINE
  8
0
 10
-150.464
 20
43.5734
 11
-150.639
 21
43.6428
  0
LINE
  8
0
 10
-150.639
 20
43.6428
 11
-150.804
 21
43.7335
  0
LINE
  8
0
 10
-150.804
 20
43.7335
 11
-150.956
 21
43.8442
  0
LINE
  8
0
 10
-150.956
 20
43.8442
 11
-151.093
 21
43.9732
  0
LINE
  8
0
 10
-151.093
 20
43.9732
 11
-151.214
 21
44.1183
  0
LINE
  8
0
 10
-151.214
 20
44.1183
 11
-151.314
 21
44.2774
  0
LINE
  8
0
 10
-151.314
 20
44.2774
 11
-151.395
 21
44.4478
  0
LINE
  8
0
 10
-151.395
 20
44.4478
 11
-151.453
 21
44.627
  0
LINE
  8
0
 10
-151.453
 20
44.627
 11
-151.488
 21
44.812
  0
LINE
  8
0
 10
-151.488
 20
44.812
 11
-151.5
 21
45
  0
LINE
  8
0
 10
-151.5
 20
45
 11
-151.488
 21
45.188
  0
LINE
  8
0
 10
-151.488
 20
45.188
 11
-151.453
 21
45.373
  0
LINE
  8
0
 10
-151.453
 20
45.373
 11
-151.395
 21
45.5522
  0
LINE
  8
0
 10
-151.395
 20
45.5522
 11
-151.314
 21
45.7226
  0
LINE
  8
0
 10
-151.314
 20
45.7226
 11
-151.214
 21
45.8817
  0
LINE
  8
0
 10
-151.214
 20
45.8817
 11
-151.093
 21
46.0268
  0
LINE
  8
0
 10
-151.093
 20
46.0268
 11
-150.956
 21
46.1558
  0
LINE
  8
0
 10
-150.956
 20
46.1558
 11
-150.804
 21
46.2665
  0
LINE
  8
0
 10
-150.804
 20
46.2665
 11
-150.639
 21
46.3572
  0
LINE
  8
0
 10
-150.639
 20
46.3572
 11
-150.464
 21
46.4266
  0
LINE
  8
0
 10
-150.464
 20
46.4266
 11
-150.281
 21
46.4734
  0
LINE
  8
0
 10
-150.281
 20
46.4734
 11
-150.094
 21
46.497
  0
LINE
  8
0
 10
-150.094
 20
46.497
 11
-149.906
 21
46.497
  0
LINE
  8
0
 10
-149.906
 20
46.497
 11
-149.719
 21
46.4734
  0
LINE
  8
0
 10
-149.719
 20
46.4734
 11
-149.536
 21
46.4266
  0
LINE
  8
0
 10
-149.536
 20
46.4266
 11
-149.361
 21
46.3572
  0
LINE
  8
0
 10
-149.361
 20
46.3572
 11
-149.196
 21
46.2665
  0
LINE
  8
0
 10
-149.196
 20
46.2665
 11
-149.044
 21
46.1558
  0
LINE
  8
0
 10
-149.044
 20
46.1558
 11
-148.907
 21
46.0268
  0
LINE
  8
0
 10
-148.907
 20
46.0268
 11
-148.786
 21
45.8817
  0
LINE
  8
0
 10
-148.786
 20
45.8817
 11
-148.686
 21
45.7226
  0
LINE
  8
0
 10
-148.686
 20
45.7226
 11
-148.605
 21
45.5522
  0
LINE
  8
0
 10
-148.605
 20
45.5522
 11
-148.547
 21
45.373
  0
LINE
  8
0
 10
-148.547
 20
45.373
 11
-148.512
 21
45.188
  0
LINE
  8
0
 10
-148.512
 20
45.188
 11
-148.5
 21
45
  0
LINE
  8
0
 10
-148.5
 20
45
 11
-148.512
 21
44.812
  0
LINE
  8
0
 10
-148.512
 20
44.812
 11
-148.547
 21
44.627
  0
LINE
  8
0
 10
-148.547
 20
44.627
 11
-148.605
 21
44.4478
  0
LINE
  8
0
 10
-148.605
 20
44.4478
 11
-148.686
 21
44.2774
  0
LINE
  8
0
 10
-148.686
 20
44.2774
 11
-148.786
 21
44.1183
  0
LINE
  8
0
 10
-148.786
 20
44.1183
 11
-148.907
 21
43.9732
  0
LINE
  8
0
 10
-148.907
 20
43.9732
 11
-149.044
 21
43.8442
  0
LINE
  8
0
 10
-149.044
 20
43.8442
 11
-149.196
 21
43.7335
  0
LINE
  8
0
 10
-149.196
 20
43.7335
 11
-149.361
 21
43.6428
  0
LINE
  8
0
 10
-149.361
 20
43.6428
 11
-149.536
 21
43.5734
  0
LINE
  8
0
 10
-149.536
 20
43.5734
 11
-149.719
 21
43.5266
  0
LINE
  8
0
 10
-149.719
 20
43.5266
 11
-149.906
 21
43.503
  0
LINE
  8
0
 10
-149.906
 20
43.503
 11
-150.094
 21
43.503
  0
LINE
  8
0
 10
149.812
 20
34.5059
 11
149.438
 21
34.5531
  0
LINE
  8
0
 10
149.438
 20
34.5531
 11
149.073
 21
34.6468
  0
LINE
  8
0
 10
149.073
 20
34.6468
 11
148.723
 21
34.7855
  0
LINE
  8
0
 10
148.723
 20
34.7855
 11
148.393
 21
34.967
  0
LINE
  8
0
 10
148.393
 20
34.967
 11
148.088
 21
35.1885
  0
LINE
  8
0
 10
148.088
 20
35.1885
 11
147.813
 21
35.4464
  0
LINE
  8
0
 10
147.813
 20
35.4464
 11
147.573
 21
35.7366
  0
LINE
  8
0
 10
147.573
 20
35.7366
 11
147.371
 21
36.0547
  0
LINE
  8
0
 10
147.371
 20
36.0547
 11
147.211
 21
36.3956
  0
LINE
  8
0
 10
147.211
 20
36.3956
 11
147.094
 21
36.7539
  0
LINE
  8
0
 10
147.094
 20
36.7539
 11
147.024
 21
37.124
  0
LINE
  8
0
 10
147.024
 20
37.124
 11
147
 21
37.5
  0
LINE
  8
0
 10
147
 20
37.5
 11
147.024
 21
37.876
  0
LINE
  8
0
 10
147.024
 20
37.876
 11
147.094
 21
38.2461
  0
LINE
  8
0
 10
147.094
 20
38.2461
 11
147.211
 21
38.6044
  0
LINE
  8
0
 10
147.211
 20
38.6044
 11
147.371
 21
38.9453
  0
LINE
  8
0
 10
147.371
 20
38.9453
 11
147.573
 21
39.2634
  0
LINE
  8
0
 10
147.573
 20
39.2634
 11
147.813
 21
39.5536
  0
LINE
  8
0
 10
147.813
 20
39.5536
 11
148.088
 21
39.8115
  0
LINE
  8
0
 10
148.088
 20
39.8115
 11
148.393
 21
40.033
  0
LINE
  8
0
 10
148.393
 20
40.033
 11
148.723
 21
40.2145
  0
LINE
  8
0
 10
148.723
 20
40.2145
 11
149.073
 21
40.3532
  0
LINE
  8
0
 10
149.073
 20
40.3532
 11
149.438
 21
40.4469
  0
LINE
  8
0
 10
149.438
 20
40.4469
 11
149.812
 21
40.4941
  0
LINE
  8
0
 10
149.812
 20
40.4941
 11
150.188
 21
40.4941
  0
LINE
  8
0
 10
150.188
 20
40.4941
 11
150.562
 21
40.4469
  0
LINE
  8
0
 10
150.562
 20
40.4469
 11
150.927
 21
40.3532
  0
LINE
  8
0
 10
150.927
 20
40.3532
 11
151.277
 21
40.2145
  0
LINE
  8
0
 10
151.277
 20
40.2145
 11
151.607
 21
40.033
  0
LINE
  8
0
 10
151.607
 20
40.033
 11
151.912
 21
39.8115
  0
LINE
  8
0
 10
151.912
 20
39.8115
 11
152.187
 21
39.5536
  0
LINE
  8
0
 10
152.187
 20
39.5536
 11
152.427
 21
39.2634
  0
LINE
  8
0
 10
152.427
 20
39.2634
 11
152.629
 21
38.9453
  0
LINE
  8
0
 10
152.629
 20
38.9453
 11
152.789
 21
38.6044
  0
LINE
  8
0
 10
152.789
 20
38.6044
 11
152.906
 21
38.2461
  0
LINE
  8
0
 10
152.906
 20
38.2461
 11
152.976
 21
37.876
  0
LINE
  8
0
 10
152.976
 20
37.876
 11
153
 21
37.5
  0
LINE
  8
0
 10
153
 20
37.5
 11
152.976
 21
37.124
  0
LINE
  8
0
 10
152.976
 20
37.124
 11
152.906
 21
36.7539
  0
LINE
  8
0
 10
152.906
 20
36.7539
 11
152.789
 21
36.3956
  0
LINE
  8
0
 10
152.789
 20
36.3956
 11
152.629
 21
36.0547
  0
LINE
  8
0
 10
152.629
 20
36.0547
 11
152.427
 21
35.7366
  0
LINE
  8
0
 10
152.427
 20
35.7366
 11
152.187
 21
35.4464
  0
LINE
  8
0
 10
152.187
 20
35.4464
 11
151.912
 21
35.1885
  0
LINE
  8
0
 10
151.912
 20
35.1885
 11
151.607
 21
34.967
  0
LINE
  8
0
 10
151.607
 20
34.967
 11
151.277
 21
34.7855
  0
LINE
  8
0
 10
151.277
 20
34.7855
 11
150.927
 21
34.6468
  0
LINE
  8
0
 10
150.927
 20
34.6468
 11
150.562
 21
34.5531
  0
LINE
  8
0
 10
150.562
 20
34.5531
 11
150.188
 21
34.5059
  0
LINE
  8
0
 10
150.188
 20
34.5059
 11
149.812
 21
34.5059
  0
LINE
  8
0
 10
-150.188
 20
34.5059
 11
-150.562
 21
34.5531
  0
LINE
  8
0
 10
-150.562
 20
34.5531
 11
-150.927
 21
34.6468
  0
LINE
  8
0
 10
-150.927
 20
34.6468
 11
-151.277
 21
34.7855
  0
LINE
  8
0
 10
-151.277
 20
34.7855
 11
-151.607
 21
34.967
  0
LINE
  8
0
 10
-151.607
 20
34.967
 11
-151.912
 21
35.1885
  0
LINE
  8
0
 10
-151.912
 20
35.1885
 11
-152.187
 21
35.4464
  0
LINE
  8
0
 10
-152.187
 20
35.4464
 11
-152.427
 21
35.7366
  0
LINE
  8
0
 10
-152.427
 20
35.7366
 11
-152.629
 21
36.0547
  0
LINE
  8
0
 10
-152.629
 20
36.0547
 11
-152.789
 21
36.3956
  0
LINE
  8
0
 10
-152.789
 20
36.3956
 11
-152.906
 21
36.7539
  0
LINE
  8
0
 10
-152.906
 20
36.7539
 11
-152.976
 21
37.124
  0
LINE
  8
0
 10
-152.976
 20
37.124
 11
-153
 21
37.5
  0
LINE
  8
0
 10
-153
 20
37.5
 11
-152.976
 21
37.876
  0
LINE
  8
0
 10
-152.976
 20
37.876
 11
-152.906
 21
38.2461
  0
LINE
  8
0
 10
-152.906
 20
38.2461
 11
-152.789
 21
38.6044
  0
LINE
  8
0
 10
-152.789
 20
38.6044
 11
-152.629
 21
38.9453
  0
LINE
  8
0
 10
-152.629
 20
38.9453
 11
-152.427
 21
39.2634
  0
LINE
  8
0
 10
-152.427
 20
39.2634
 11
-152.187
 21
39.5536
  0
LINE
  8
0
 10
-152.187
 20
39.5536
 11
-151.912
 21
39.8115
  0
LINE
  8
0
 10
-151.912
 20
39.8115
 11
-151.607
 21
40.033
  0
LINE
  8
0
 10
-151.607
 20
40.033
 11
-151.277
 21
40.2145
  0
LINE
  8
0
 10
-151.277
 20
40.2145
 11
-150.927
 21
40.3532
  0
LINE
  8
0
 10
-150.927
 20
40.3532
 11
-150.562
 21
40.4469
  0
LINE
  8
0
 10
-150.562
 20
40.4469
 11
-150.188
 21
40.4941
  0
LINE
  8
0
 10
-150.188
 20
40.4941
 11
-149.812
 21
40.4941
  0
LINE
  8
0
 10
-149.812
 20
40.4941
 11
-149.438
 21
40.4469
  0
LINE
  8
0
 10
-149.438
 20
40.4469
 11
-149.073
 21
40.3532
  0
LINE
  8
0
 10
-149.073
 20
40.3532
 11
-148.723
 21
40.2145
  0
LINE
  8
0
 10
-148.723
 20
40.2145
 11
-148.393
 21
40.033
  0
LINE
  8
0
 10
-148.393
 20
40.033
 11
-148.088
 21
39.8115
  0
LINE
  8
0
 10
-148.088
 20
39.8115
 11
-147.813
 21
39.5536
  0
LINE
  8
0
 10
-147.813
 20
39.5536
 11
-147.573
 21
39.2634
  0
LINE
  8
0
 10
-147.573
 20
39.2634
 11
-147.371
 21
38.9453
  0
LINE
  8
0
 10
-147.371
 20
38.9453
 11
-147.211
 21
38.6044
  0
LINE
  8
0
 10
-147.211
 20
38.6044
 11
-147.094
 21
38.2461
  0
LINE
  8
0
 10
-147.094
 20
38.2461
 11
-147.024
 21
37.876
  0
LINE
  8
0
 10
-147.024
 20
37.876
 11
-147
 21
37.5
  0
LINE
  8
0
 10
-147
 20
37.5
 11
-147.024
 21
37.124
  0
LINE
  8
0
 10
-147.024
 20
37.124
 11
-147.094
 21
36.7539
  0
LINE
  8
0
 10
-147.094
 20
36.7539
 11
-147.211
 21
36.3956
  0
LINE
  8
0
 10
-147.211
 20
36.3956
 11
-147.371
 21
36.0547
  0
LINE
  8
0
 10
-147.371
 20
36.0547
 11
-147.573
 21
35.7366
  0
LINE
  8
0
 10
-147.573
 20
35.7366
 11
-147.813
 21
35.4464
  0
LINE
  8
0
 10
-147.813
 20
35.4464
 11
-148.088
 21
35.1885
  0
LINE
  8
0
 10
-148.088
 20
35.1885
 11
-148.393
 21
34.967
  0
LINE
  8
0
 10
-148.393
 20
34.967
 11
-148.723
 21
34.7855
  0
LINE
  8
0
 10
-148.723
 20
34.7855
 11
-149.073
 21
34.6468
  0
LINE
  8
0
 10
-149.073
 20
34.6468
 11
-149.438
 21
34.5531
  0
LINE
  8
0
 10
-149.438
 20
34.5531
 11
-149.812
 21
34.5059
  0
LINE
  8
0
 10
-149.812
 20
34.5059
 11
-150.188
 21
34.5059
  0
LINE
  8
0
 10
-150.094
 20
28.503
 11
-150.281
 21
28.5266
  0
LINE
  8
0
 10
-150.281
 20
28.5266
 11
-150.464
 21
28.5734
  0
LINE
  8
0
 10
-150.464
 20
28.5734
 11
-150.639
 21
28.6427
  0
LINE
  8
0
 10
-150.639
 20
28.6427
 11
-150.804
 21
28.7335
  0
LINE
  8
0
 10
-150.804
 20
28.7335
 11
-150.956
 21
28.8442
  0
LINE
  8
0
 10
-150.956
 20
28.8442
 11
-151.093
 21
28.9732
  0
LINE
  8
0
 10
-151.093
 20
28.9732
 11
-151.214
 21
29.1183
  0
LINE
  8
0
 10
-151.214
 20
29.1183
 11
-151.314
 21
29.2774
  0
LINE
  8
0
 10
-151.314
 20
29.2774
 11
-151.395
 21
29.4478
  0
LINE
  8
0
 10
-151.395
 20
29.4478
 11
-151.453
 21
29.627
  0
LINE
  8
0
 10
-151.453
 20
29.627
 11
-151.488
 21
29.812
  0
LINE
  8
0
 10
-151.488
 20
29.812
 11
-151.5
 21
30
  0
LINE
  8
0
 10
-151.5
 20
30
 11
-151.488
 21
30.188
  0
LINE
  8
0
 10
-151.488
 20
30.188
 11
-151.453
 21
30.373
  0
LINE
  8
0
 10
-151.453
 20
30.373
 11
-151.395
 21
30.5522
  0
LINE
  8
0
 10
-151.395
 20
30.5522
 11
-151.314
 21
30.7226
  0
LINE
  8
0
 10
-151.314
 20
30.7226
 11
-151.214
 21
30.8817
  0
LINE
  8
0
 10
-151.214
 20
30.8817
 11
-151.093
 21
31.0268
  0
LINE
  8
0
 10
-151.093
 20
31.0268
 11
-150.956
 21
31.1558
  0
LINE
  8
0
 10
-150.956
 20
31.1558
 11
-150.804
 21
31.2665
  0
LINE
  8
0
 10
-150.804
 20
31.2665
 11
-150.639
 21
31.3572
  0
LINE
  8
0
 10
-150.639
 20
31.3572
 11
-150.464
 21
31.4266
  0
LINE
  8
0
 10
-150.464
 20
31.4266
 11
-150.281
 21
31.4734
  0
LINE
  8
0
 10
-150.281
 20
31.4734
 11
-150.094
 21
31.497
  0
LINE
  8
0
 10
-150.094
 20
31.497
 11
-149.906
 21
31.497
  0
LINE
  8
0
 10
-149.906
 20
31.497
 11
-149.719
 21
31.4734
  0
LINE
  8
0
 10
-149.719
 20
31.4734
 11
-149.536
 21
31.4266
  0
LINE
  8
0
 10
-149.536
 20
31.4266
 11
-149.361
 21
31.3572
  0
LINE
  8
0
 10
-149.361
 20
31.3572
 11
-149.196
 21
31.2665
  0
LINE
  8
0
 10
-149.196
 20
31.2665
 11
-149.044
 21
31.1558
  0
LINE
  8
0
 10
-149.044
 20
31.1558
 11
-148.907
 21
31.0268
  0
LINE
  8
0
 10
-148.907
 20
31.0268
 11
-148.786
 21
30.8817
  0
LINE
  8
0
 10
-148.786
 20
30.8817
 11
-148.686
 21
30.7226
  0
LINE
  8
0
 10
-148.686
 20
30.7226
 11
-148.605
 21
30.5522
  0
LINE
  8
0
 10
-148.605
 20
30.5522
 11
-148.547
 21
30.373
  0
LINE
  8
0
 10
-148.547
 20
30.373
 11
-148.512
 21
30.188
  0
LINE
  8
0
 10
-148.512
 20
30.188
 11
-148.5
 21
30
  0
LINE
  8
0
 10
-148.5
 20
30
 11
-148.512
 21
29.812
  0
LINE
  8
0
 10
-148.512
 20
29.812
 11
-148.547
 21
29.627
  0
LINE
  8
0
 10
-148.547
 20
29.627
 11
-148.605
 21
29.4478
  0
LINE
  8
0
 10
-148.605
 20
29.4478
 11
-148.686
 21
29.2774
  0
LINE
  8
0
 10
-148.686
 20
29.2774
 11
-148.786
 21
29.1183
  0
LINE
  8
0
 10
-148.786
 20
29.1183
 11
-148.907
 21
28.9732
  0
LINE
  8
0
 10
-148.907
 20
28.9732
 11
-149.044
 21
28.8442
  0
LINE
  8
0
 10
-149.044
 20
28.8442
 11
-149.196
 21
28.7335
  0
LINE
  8
0
 10
-149.196
 20
28.7335
 11
-149.361
 21
28.6427
  0
LINE
  8
0
 10
-149.361
 20
28.6427
 11
-149.536
 21
28.5734
  0
LINE
  8
0
 10
-149.536
 20
28.5734
 11
-149.719
 21
28.5266
  0
LINE
  8
0
 10
-149.719
 20
28.5266
 11
-149.906
 21
28.503
  0
LINE
  8
0
 10
-149.906
 20
28.503
 11
-150.094
 21
28.503
  0
LINE
  8
0
 10
149.906
 20
28.503
 11
149.719
 21
28.5266
  0
LINE
  8
0
 10
149.719
 20
28.5266
 11
149.536
 21
28.5734
  0
LINE
  8
0
 10
149.536
 20
28.5734
 11
149.361
 21
28.6427
  0
LINE
  8
0
 10
149.361
 20
28.6427
 11
149.196
 21
28.7335
  0
LINE
  8
0
 10
149.196
 20
28.7335
 11
149.044
 21
28.8442
  0
LINE
  8
0
 10
149.044
 20
28.8442
 11
148.907
 21
28.9732
  0
LINE
  8
0
 10
148.907
 20
28.9732
 11
148.786
 21
29.1183
  0
LINE
  8
0
 10
148.786
 20
29.1183
 11
148.686
 21
29.2774
  0
LINE
  8
0
 10
148.686
 20
29.2774
 11
148.605
 21
29.4478
  0
LINE
  8
0
 10
148.605
 20
29.4478
 11
148.547
 21
29.627
  0
LINE
  8
0
 10
148.547
 20
29.627
 11
148.512
 21
29.812
  0
LINE
  8
0
 10
148.512
 20
29.812
 11
148.5
 21
30
  0
LINE
  8
0
 10
148.5
 20
30
 11
148.512
 21
30.188
  0
LINE
  8
0
 10
148.512
 20
30.188
 11
148.547
 21
30.373
  0
LINE
  8
0
 10
148.547
 20
30.373
 11
148.605
 21
30.5522
  0
LINE
  8
0
 10
148.605
 20
30.5522
 11
148.686
 21
30.7226
  0
LINE
  8
0
 10
148.686
 20
30.7226
 11
148.786
 21
30.8817
  0
LINE
  8
0
 10
148.786
 20
30.8817
 11
148.907
 21
31.0268
  0
LINE
  8
0
 10
148.907
 20
31.0268
 11
149.044
 21
31.1558
  0
LINE
  8
0
 10
149.044
 20
31.1558
 11
149.196
 21
31.2665
  0
LINE
  8
0
 10
149.196
 20
31.2665
 11
149.361
 21
31.3572
  0
LINE
  8
0
 10
149.361
 20
31.3572
 11
149.536
 21
31.4266
  0
LINE
  8
0
 10
149.536
 20
31.4266
 11
149.719
 21
31.4734
  0
LINE
  8
0
 10
149.719
 20
31.4734
 11
149.906
 21
31.497
  0
LINE
  8
0
 10
149.906
 20
31.497
 11
150.094
 21
31.497
  0
LINE
  8
0
 10
150.094
 20
31.497
 11
150.281
 21
31.4734
  0
LINE
  8
0
 10
150.281
 20
31.4734
 11
150.464
 21
31.4266
  0
LINE
  8
0
 10
150.464
 20
31.4266
 11
150.639
 21
31.3572
  0
LINE
  8
0
 10
150.639
 20
31.3572
 11
150.804
 21
31.2665
  0
LINE
  8
0
 10
150.804
 20
31.2665
 11
150.956
 21
31.1558
  0
LINE
  8
0
 10
150.956
 20
31.1558
 11
151.093
 21
31.0268
  0
LINE
  8
0
 10
151.093
 20
31.0268
 11
151.214
 21
30.8817
  0
LINE
  8
0
 10
151.214
 20
30.8817
 11
151.314
 21
30.7226
  0
LINE
  8
0
 10
151.314
 20
30.7226
 11
151.395
 21
30.5522
  0
LINE
  8
0
 10
151.395
 20
30.5522
 11
151.453
 21
30.373
  0
LINE
  8
0
 10
151.453
 20
30.373
 11
151.488
 21
30.188
  0
LINE
  8
0
 10
151.488
 20
30.188
 11
151.5
 21
30
  0
LINE
  8
0
 10
151.5
 20
30
 11
151.488
 21
29.812
  0
LINE
  8
0
 10
151.488
 20
29.812
 11
151.453
 21
29.627
  0
LINE
  8
0
 10
151.453
 20
29.627
 11
151.395
 21
29.4478
  0
LINE
  8
0
 10
151.395
 20
29.4478
 11
151.314
 21
29.2774
  0
LINE
  8
0
 10
151.314
 20
29.2774
 11
151.214
 21
29.1183
  0
LINE
  8
0
 10
151.214
 20
29.1183
 11
151.093
 21
28.9732
  0
LINE
  8
0
 10
151.093
 20
28.9732
 11
150.956
 21
28.8442
  0
LINE
  8
0
 10
150.956
 20
28.8442
 11
150.804
 21
28.7335
  0
LINE
  8
0
 10
150.804
 20
28.7335
 11
150.639
 21
28.6427
  0
LINE
  8
0
 10
150.639
 20
28.6427
 11
150.464
 21
28.5734
  0
LINE
  8
0
 10
150.464
 20
28.5734
 11
150.281
 21
28.5266
  0
LINE
  8
0
 10
150.281
 20
28.5266
 11
150.094
 21
28.503
  0
LINE
  8
0
 10
150.094
 20
28.503
 11
149.906
 21
28.503
  0
LINE
  8
0
 10
149.812
 20
19.5059
 11
149.438
 21
19.5531
  0
LINE
  8
0
 10
149.438
 20
19.5531
 11
149.073
 21
19.6468
  0
LINE
  8
0
 10
149.073
 20
19.6468
 11
148.723
 21
19.7855
  0
LINE
  8
0
 10
148.723
 20
19.7855
 11
148.393
 21
19.967
  0
LINE
  8
0
 10
148.393
 20
19.967
 11
148.088
 21
20.1884
  0
LINE
  8
0
 10
148.088
 20
20.1884
 11
147.813
 21
20.4464
  0
LINE
  8
0
 10
147.813
 20
20.4464
 11
147.573
 21
20.7366
  0
LINE
  8
0
 10
147.573
 20
20.7366
 11
147.371
 21
21.0547
  0
LINE
  8
0
 10
147.371
 20
21.0547
 11
147.211
 21
21.3956
  0
LINE
  8
0
 10
147.211
 20
21.3956
 11
147.094
 21
21.7539
  0
LINE
  8
0
 10
147.094
 20
21.7539
 11
147.024
 21
22.124
  0
LINE
  8
0
 10
147.024
 20
22.124
 11
147
 21
22.5
  0
LINE
  8
0
 10
147
 20
22.5
 11
147.024
 21
22.876
  0
LINE
  8
0
 10
147.024
 20
22.876
 11
147.094
 21
23.2461
  0
LINE
  8
0
 10
147.094
 20
23.2461
 11
147.211
 21
23.6044
  0
LINE
  8
0
 10
147.211
 20
23.6044
 11
147.371
 21
23.9453
  0
LINE
  8
0
 10
147.371
 20
23.9453
 11
147.573
 21
24.2634
  0
LINE
  8
0
 10
147.573
 20
24.2634
 11
147.813
 21
24.5536
  0
LINE
  8
0
 10
147.813
 20
24.5536
 11
148.088
 21
24.8115
  0
LINE
  8
0
 10
148.088
 20
24.8115
 11
148.393
 21
25.033
  0
LINE
  8
0
 10
148.393
 20
25.033
 11
148.723
 21
25.2145
  0
LINE
  8
0
 10
148.723
 20
25.2145
 11
149.073
 21
25.3532
  0
LINE
  8
0
 10
149.073
 20
25.3532
 11
149.438
 21
25.4469
  0
LINE
  8
0
 10
149.438
 20
25.4469
 11
149.812
 21
25.4941
  0
LINE
  8
0
 10
149.812
 20
25.4941
 11
150.188
 21
25.4941
  0
LINE
  8
0
 10
150.188
 20
25.4941
 11
150.562
 21
25.4469
  0
LINE
  8
0
 10
150.562
 20
25.4469
 11
150.927
 21
25.3532
  0
LINE
  8
0
 10
150.927
 20
25.3532
 11
151.277
 21
25.2145
  0
LINE
  8
0
 10
151.277
 20
25.2145
 11
151.607
 21
25.033
  0
LINE
  8
0
 10
151.607
 20
25.033
 11
151.912
 21
24.8115
  0
LINE
  8
0
 10
151.912
 20
24.8115
 11
152.187
 21
24.5536
  0
LINE
  8
0
 10
152.187
 20
24.5536
 11
152.427
 21
24.2634
  0
LINE
  8
0
 10
152.427
 20
24.2634
 11
152.629
 21
23.9453
  0
LINE
  8
0
 10
152.629
 20
23.9453
 11
152.789
 21
23.6044
  0
LINE
  8
0
 10
152.789
 20
23.6044
 11
152.906
 21
23.2461
  0
LINE
  8
0
 10
152.906
 20
23.2461
 11
152.976
 21
22.876
  0
LINE
  8
0
 10
152.976
 20
22.876
 11
153
 21
22.5
  0
LINE
  8
0
 10
153
 20
22.5
 11
152.976
 21
22.124
  0
LINE
  8
0
 10
152.976
 20
22.124
 11
152.906
 21
21.7539
  0
LINE
  8
0
 10
152.906
 20
21.7539
 11
152.789
 21
21.3956
  0
LINE
  8
0
 10
152.789
 20
21.3956
 11
152.629
 21
21.0547
  0
LINE
  8
0
 10
152.629
 20
21.0547
 11
152.427
 21
20.7366
  0
LINE
  8
0
 10
152.427
 20
20.7366
 11
152.187
 21
20.4464
  0
LINE
  8
0
 10
152.187
 20
20.4464
 11
151.912
 21
20.1884
  0
LINE
  8
0
 10
151.912
 20
20.1884
 11
151.607
 21
19.967
  0
LINE
  8
0
 10
151.607
 20
19.967
 11
151.277
 21
19.7855
  0
LINE
  8
0
 10
151.277
 20
19.7855
 11
150.927
 21
19.6468
  0
LINE
  8
0
 10
150.927
 20
19.6468
 11
150.562
 21
19.5531
  0
LINE
  8
0
 10
150.562
 20
19.5531
 11
150.188
 21
19.5059
  0
LINE
  8
0
 10
150.188
 20
19.5059
 11
149.812
 21
19.5059
  0
LINE
  8
0
 10
-150.188
 20
19.5059
 11
-150.562
 21
19.5531
  0
LINE
  8
0
 10
-150.562
 20
19.5531
 11
-150.927
 21
19.6468
  0
LINE
  8
0
 10
-150.927
 20
19.6468
 11
-151.277
 21
19.7855
  0
LINE
  8
0
 10
-151.277
 20
19.7855
 11
-151.607
 21
19.967
  0
LINE
  8
0
 10
-151.607
 20
19.967
 11
-151.912
 21
20.1884
  0
LINE
  8
0
 10
-151.912
 20
20.1884
 11
-152.187
 21
20.4464
  0
LINE
  8
0
 10
-152.187
 20
20.4464
 11
-152.427
 21
20.7366
  0
LINE
  8
0
 10
-152.427
 20
20.7366
 11
-152.629
 21
21.0547
  0
LINE
  8
0
 10
-152.629
 20
21.0547
 11
-152.789
 21
21.3956
  0
LINE
  8
0
 10
-152.789
 20
21.3956
 11
-152.906
 21
21.7539
  0
LINE
  8
0
 10
-152.906
 20
21.7539
 11
-152.976
 21
22.124
  0
LINE
  8
0
 10
-152.976
 20
22.124
 11
-153
 21
22.5
  0
LINE
  8
0
 10
-153
 20
22.5
 11
-152.976
 21
22.876
  0
LINE
  8
0
 10
-152.976
 20
22.876
 11
-152.906
 21
23.2461
  0
LINE
  8
0
 10
-152.906
 20
23.2461
 11
-152.789
 21
23.6044
  0
LINE
  8
0
 10
-152.789
 20
23.6044
 11
-152.629
 21
23.9453
  0
LINE
  8
0
 10
-152.629
 20
23.9453
 11
-152.427
 21
24.2634
  0
LINE
  8
0
 10
-152.427
 20
24.2634
 11
-152.187
 21
24.5536
  0
LINE
  8
0
 10
-152.187
 20
24.5536
 11
-151.912
 21
24.8115
  0
LINE
  8
0
 10
-151.912
 20
24.8115
 11
-151.607
 21
25.033
  0
LINE
  8
0
 10
-151.607
 20
25.033
 11
-151.277
 21
25.2145
  0
LINE
  8
0
 10
-151.277
 20
25.2145
 11
-150.927
 21
25.3532
  0
LINE
  8
0
 10
-150.927
 20
25.3532
 11
-150.562
 21
25.4469
  0
LINE
  8
0
 10
-150.562
 20
25.4469
 11
-150.188
 21
25.4941
  0
LINE
  8
0
 10
-150.188
 20
25.4941
 11
-149.812
 21
25.4941
  0
LINE
  8
0
 10
-149.812
 20
25.4941
 11
-149.438
 21
25.4469
  0
LINE
  8
0
 10
-149.438
 20
25.4469
 11
-149.073
 21
25.3532
  0
LINE
  8
0
 10
-149.073
 20
25.3532
 11
-148.723
 21
25.2145
  0
LINE
  8
0
 10
-148.723
 20
25.2145
 11
-148.393
 21
25.033
  0
LINE
  8
0
 10
-148.393
 20
25.033
 11
-148.088
 21
24.8115
  0
LINE
  8
0
 10
-148.088
 20
24.8115
 11
-147.813
 21
24.5536
  0
LINE
  8
0
 10
-147.813
 20
24.5536
 11
-147.573
 21
24.2634
  0
LINE
  8
0
 10
-147.573
 20
24.2634
 11
-147.371
 21
23.9453
  0
LINE
  8
0
 10
-147.371
 20
23.9453
 11
-147.211
 21
23.6044
  0
LINE
  8
0
 10
-147.211
 20
23.6044
 11
-147.094
 21
23.2461
  0
LINE
  8
0
 10
-147.094
 20
23.2461
 11
-147.024
 21
22.876
  0
LINE
  8
0
 10
-147.024
 20
22.876
 11
-147
 21
22.5
  0
LINE
  8
0
 10
-147
 20
22.5
 11
-147.024
 21
22.124
  0
LINE
  8
0
 10
-147.024
 20
22.124
 11
-147.094
 21
21.7539
  0
LINE
  8
0
 10
-147.094
 20
21.7539
 11
-147.211
 21
21.3956
  0
LINE
  8
0
 10
-147.211
 20
21.3956
 11
-147.371
 21
21.0547
  0
LINE
  8
0
 10
-147.371
 20
21.0547
 11
-147.573
 21
20.7366
  0
LINE
  8
0
 10
-147.573
 20
20.7366
 11
-147.813
 21
20.4464
  0
LINE
  8
0
 10
-147.813
 20
20.4464
 11
-148.088
 21
20.1884
  0
LINE
  8
0
 10
-148.088
 20
20.1884
 11
-148.393
 21
19.967
  0
LINE
  8
0
 10
-148.393
 20
19.967
 11
-148.723
 21
19.7855
  0
LINE
  8
0
 10
-148.723
 20
19.7855
 11
-149.073
 21
19.6468
  0
LINE
  8
0
 10
-149.073
 20
19.6468
 11
-149.438
 21
19.5531
  0
LINE
  8
0
 10
-149.438
 20
19.5531
 11
-149.812
 21
19.5059
  0
LINE
  8
0
 10
-149.812
 20
19.5059
 11
-150.188
 21
19.5059
  0
LINE
  8
0
 10
149.906
 20
13.5029
 11
149.719
 21
13.5266
  0
LINE
  8
0
 10
149.719
 20
13.5266
 11
149.536
 21
13.5734
  0
LINE
  8
0
 10
149.536
 20
13.5734
 11
149.361
 21
13.6427
  0
LINE
  8
0
 10
149.361
 20
13.6427
 11
149.196
 21
13.7335
  0
LINE
  8
0
 10
149.196
 20
13.7335
 11
149.044
 21
13.8442
  0
LINE
  8
0
 10
149.044
 20
13.8442
 11
148.907
 21
13.9732
  0
LINE
  8
0
 10
148.907
 20
13.9732
 11
148.786
 21
14.1183
  0
LINE
  8
0
 10
148.786
 20
14.1183
 11
148.686
 21
14.2774
  0
LINE
  8
0
 10
148.686
 20
14.2774
 11
148.605
 21
14.4478
  0
LINE
  8
0
 10
148.605
 20
14.4478
 11
148.547
 21
14.627
  0
LINE
  8
0
 10
148.547
 20
14.627
 11
148.512
 21
14.812
  0
LINE
  8
0
 10
148.512
 20
14.812
 11
148.5
 21
15
  0
LINE
  8
0
 10
148.5
 20
15
 11
148.512
 21
15.188
  0
LINE
  8
0
 10
148.512
 20
15.188
 11
148.547
 21
15.373
  0
LINE
  8
0
 10
148.547
 20
15.373
 11
148.605
 21
15.5522
  0
LINE
  8
0
 10
148.605
 20
15.5522
 11
148.686
 21
15.7226
  0
LINE
  8
0
 10
148.686
 20
15.7226
 11
148.786
 21
15.8817
  0
LINE
  8
0
 10
148.786
 20
15.8817
 11
148.907
 21
16.0268
  0
LINE
  8
0
 10
148.907
 20
16.0268
 11
149.044
 21
16.1558
  0
LINE
  8
0
 10
149.044
 20
16.1558
 11
149.196
 21
16.2665
  0
LINE
  8
0
 10
149.196
 20
16.2665
 11
149.361
 21
16.3572
  0
LINE
  8
0
 10
149.361
 20
16.3572
 11
149.536
 21
16.4266
  0
LINE
  8
0
 10
149.536
 20
16.4266
 11
149.719
 21
16.4734
  0
LINE
  8
0
 10
149.719
 20
16.4734
 11
149.906
 21
16.497
  0
LINE
  8
0
 10
149.906
 20
16.497
 11
150.094
 21
16.497
  0
LINE
  8
0
 10
150.094
 20
16.497
 11
150.281
 21
16.4734
  0
LINE
  8
0
 10
150.281
 20
16.4734
 11
150.464
 21
16.4266
  0
LINE
  8
0
 10
150.464
 20
16.4266
 11
150.639
 21
16.3572
  0
LINE
  8
0
 10
150.639
 20
16.3572
 11
150.804
 21
16.2665
  0
LINE
  8
0
 10
150.804
 20
16.2665
 11
150.956
 21
16.1558
  0
LINE
  8
0
 10
150.956
 20
16.1558
 11
151.093
 21
16.0268
  0
LINE
  8
0
 10
151.093
 20
16.0268
 11
151.214
 21
15.8817
  0
LINE
  8
0
 10
151.214
 20
15.8817
 11
151.314
 21
15.7226
  0
LINE
  8
0
 10
151.314
 20
15.7226
 11
151.395
 21
15.5522
  0
LINE
  8
0
 10
151.395
 20
15.5522
 11
151.453
 21
15.373
  0
LINE
  8
0
 10
151.453
 20
15.373
 11
151.488
 21
15.188
  0
LINE
  8
0
 10
151.488
 20
15.188
 11
151.5
 21
15
  0
LINE
  8
0
 10
151.5
 20
15
 11
151.488
 21
14.812
  0
LINE
  8
0
 10
151.488
 20
14.812
 11
151.453
 21
14.627
  0
LINE
  8
0
 10
151.453
 20
14.627
 11
151.395
 21
14.4478
  0
LINE
  8
0
 10
151.395
 20
14.4478
 11
151.314
 21
14.2774
  0
LINE
  8
0
 10
151.314
 20
14.2774
 11
151.214
 21
14.1183
  0
LINE
  8
0
 10
151.214
 20
14.1183
 11
151.093
 21
13.9732
  0
LINE
  8
0
 10
151.093
 20
13.9732
 11
150.956
 21
13.8442
  0
LINE
  8
0
 10
150.956
 20
13.8442
 11
150.804
 21
13.7335
  0
LINE
  8
0
 10
150.804
 20
13.7335
 11
150.639
 21
13.6427
  0
LINE
  8
0
 10
150.639
 20
13.6427
 11
150.464
 21
13.5734
  0
LINE
  8
0
 10
150.464
 20
13.5734
 11
150.281
 21
13.5266
  0
LINE
  8
0
 10
150.281
 20
13.5266
 11
150.094
 21
13.5029
  0
LINE
  8
0
 10
150.094
 20
13.5029
 11
149.906
 21
13.5029
  0
LINE
  8
0
 10
-150.094
 20
13.5029
 11
-150.281
 21
13.5266
  0
LINE
  8
0
 10
-150.281
 20
13.5266
 11
-150.464
 21
13.5734
  0
LINE
  8
0
 10
-150.464
 20
13.5734
 11
-150.639
 21
13.6427
  0
LINE
  8
0
 10
-150.639
 20
13.6427
 11
-150.804
 21
13.7335
  0
LINE
  8
0
 10
-150.804
 20
13.7335
 11
-150.956
 21
13.8442
  0
LINE
  8
0
 10
-150.956
 20
13.8442
 11
-151.093
 21
13.9732
  0
LINE
  8
0
 10
-151.093
 20
13.9732
 11
-151.214
 21
14.1183
  0
LINE
  8
0
 10
-151.214
 20
14.1183
 11
-151.314
 21
14.2774
  0
LINE
  8
0
 10
-151.314
 20
14.2774
 11
-151.395
 21
14.4478
  0
LINE
  8
0
 10
-151.395
 20
14.4478
 11
-151.453
 21
14.627
  0
LINE
  8
0
 10
-151.453
 20
14.627
 11
-151.488
 21
14.812
  0
LINE
  8
0
 10
-151.488
 20
14.812
 11
-151.5
 21
15
  0
LINE
  8
0
 10
-151.5
 20
15
 11
-151.488
 21
15.188
  0
LINE
  8
0
 10
-151.488
 20
15.188
 11
-151.453
 21
15.373
  0
LINE
  8
0
 10
-151.453
 20
15.373
 11
-151.395
 21
15.5522
  0
LINE
  8
0
 10
-151.395
 20
15.5522
 11
-151.314
 21
15.7226
  0
LINE
  8
0
 10
-151.314
 20
15.7226
 11
-151.214
 21
15.8817
  0
LINE
  8
0
 10
-151.214
 20
15.8817
 11
-151.093
 21
16.0268
  0
LINE
  8
0
 10
-151.093
 20
16.0268
 11
-150.956
 21
16.1558
  0
LINE
  8
0
 10
-150.956
 20
16.1558
 11
-150.804
 21
16.2665
  0
LINE
  8
0
 10
-150.804
 20
16.2665
 11
-150.639
 21
16.3572
  0
LINE
  8
0
 10
-150.639
 20
16.3572
 11
-150.464
 21
16.4266
  0
LINE
  8
0
 10
-150.464
 20
16.4266
 11
-150.281
 21
16.4734
  0
LINE
  8
0
 10
-150.281
 20
16.4734
 11
-150.094
 21
16.497
  0
LINE
  8
0
 10
-150.094
 20
16.497
 11
-149.906
 21
16.497
  0
LINE
  8
0
 10
-149.906
 20
16.497
 11
-149.719
 21
16.4734
  0
LINE
  8
0
 10
-149.719
 20
16.4734
 11
-149.536
 21
16.4266
  0
LINE
  8
0
 10
-149.536
 20
16.4266
 11
-149.361
 21
16.3572
  0
LINE
  8
0
 10
-149.361
 20
16.3572
 11
-149.196
 21
16.2665
  0
LINE
  8
0
 10
-149.196
 20
16.2665
 11
-149.044
 21
16.1558
  0
LINE
  8
0
 10
-149.044
 20
16.1558
 11
-148.907
 21
16.0268
  0
LINE
  8
0
 10
-148.907
 20
16.0268
 11
-148.786
 21
15.8817
  0
LINE
  8
0
 10
-148.786
 20
15.8817
 11
-148.686
 21
15.7226
  0
LINE
  8
0
 10
-148.686
 20
15.7226
 11
-148.605
 21
15.5522
  0
LINE
  8
0
 10
-148.605
 20
15.5522
 11
-148.547
 21
15.373
  0
LINE
  8
0
 10
-148.547
 20
15.373
 11
-148.512
 21
15.188
  0
LINE
  8
0
 10
-148.512
 20
15.188
 11
-148.5
 21
15
  0
LINE
  8
0
 10
-148.5
 20
15
 11
-148.512
 21
14.812
  0
LINE
  8
0
 10
-148.512
 20
14.812
 11
-148.547
 21
14.627
  0
LINE
  8
0
 10
-148.547
 20
14.627
 11
-148.605
 21
14.4478
  0
LINE
  8
0
 10
-148.605
 20
14.4478
 11
-148.686
 21
14.2774
  0
LINE
  8
0
 10
-148.686
 20
14.2774
 11
-148.786
 21
14.1183
  0
LINE
  8
0
 10
-148.786
 20
14.1183
 11
-148.907
 21
13.9732
  0
LINE
  8
0
 10
-148.907
 20
13.9732
 11
-149.044
 21
13.8442
  0
LINE
  8
0
 10
-149.044
 20
13.8442
 11
-149.196
 21
13.7335
  0
LINE
  8
0
 10
-149.196
 20
13.7335
 11
-149.361
 21
13.6427
  0
LINE
  8
0
 10
-149.361
 20
13.6427
 11
-149.536
 21
13.5734
  0
LINE
  8
0
 10
-149.536
 20
13.5734
 11
-149.719
 21
13.5266
  0
LINE
  8
0
 10
-149.719
 20
13.5266
 11
-149.906
 21
13.5029
  0
LINE
  8
0
 10
-149.906
 20
13.5029
 11
-150.094
 21
13.5029
  0
LINE
  8
0
 10
-150.188
 20
4.50591
 11
-150.562
 21
4.55313
  0
LINE
  8
0
 10
-150.562
 20
4.55313
 11
-150.927
 21
4.64682
  0
LINE
  8
0
 10
-150.927
 20
4.64682
 11
-151.277
 21
4.78551
  0
LINE
  8
0
 10
-151.277
 20
4.78551
 11
-151.607
 21
4.96701
  0
LINE
  8
0
 10
-151.607
 20
4.96701
 11
-151.912
 21
5.18845
  0
LINE
  8
0
 10
-151.912
 20
5.18845
 11
-152.187
 21
5.44635
  0
LINE
  8
0
 10
-152.187
 20
5.44635
 11
-152.427
 21
5.73663
  0
LINE
  8
0
 10
-152.427
 20
5.73663
 11
-152.629
 21
6.05473
  0
LINE
  8
0
 10
-152.629
 20
6.05473
 11
-152.789
 21
6.39561
  0
LINE
  8
0
 10
-152.789
 20
6.39561
 11
-152.906
 21
6.75392
  0
LINE
  8
0
 10
-152.906
 20
6.75392
 11
-152.976
 21
7.12399
  0
LINE
  8
0
 10
-152.976
 20
7.12399
 11
-153
 21
7.5
  0
LINE
  8
0
 10
-153
 20
7.5
 11
-152.976
 21
7.87599
  0
LINE
  8
0
 10
-152.976
 20
7.87599
 11
-152.906
 21
8.24606
  0
LINE
  8
0
 10
-152.906
 20
8.24606
 11
-152.789
 21
8.60437
  0
LINE
  8
0
 10
-152.789
 20
8.60437
 11
-152.629
 21
8.94525
  0
LINE
  8
0
 10
-152.629
 20
8.94525
 11
-152.427
 21
9.26335
  0
LINE
  8
0
 10
-152.427
 20
9.26335
 11
-152.187
 21
9.55363
  0
LINE
  8
0
 10
-152.187
 20
9.55363
 11
-151.912
 21
9.81154
  0
LINE
  8
0
 10
-151.912
 20
9.81154
 11
-151.607
 21
10.033
  0
LINE
  8
0
 10
-151.607
 20
10.033
 11
-151.277
 21
10.2145
  0
LINE
  8
0
 10
-151.277
 20
10.2145
 11
-150.927
 21
10.3532
  0
LINE
  8
0
 10
-150.927
 20
10.3532
 11
-150.562
 21
10.4469
  0
LINE
  8
0
 10
-150.562
 20
10.4469
 11
-150.188
 21
10.4941
  0
LINE
  8
0
 10
-150.188
 20
10.4941
 11
-149.812
 21
10.4941
  0
LINE
  8
0
 10
-149.812
 20
10.4941
 11
-149.438
 21
10.4469
  0
LINE
  8
0
 10
-149.438
 20
10.4469
 11
-149.073
 21
10.3532
  0
LINE
  8
0
 10
-149.073
 20
10.3532
 11
-148.723
 21
10.2145
  0
LINE
  8
0
 10
-148.723
 20
10.2145
 11
-148.393
 21
10.033
  0
LINE
  8
0
 10
-148.393
 20
10.033
 11
-148.088
 21
9.81154
  0
LINE
  8
0
 10
-148.088
 20
9.81154
 11
-147.813
 21
9.55363
  0
LINE
  8
0
 10
-147.813
 20
9.55363
 11
-147.573
 21
9.26335
  0
LINE
  8
0
 10
-147.573
 20
9.26335
 11
-147.371
 21
8.94525
  0
LINE
  8
0
 10
-147.371
 20
8.94525
 11
-147.211
 21
8.60437
  0
LINE
  8
0
 10
-147.211
 20
8.60437
 11
-147.094
 21
8.24606
  0
LINE
  8
0
 10
-147.094
 20
8.24606
 11
-147.024
 21
7.87599
  0
LINE
  8
0
 10
-147.024
 20
7.87599
 11
-147
 21
7.5
  0
LINE
  8
0
 10
-147
 20
7.5
 11
-147.024
 21
7.12399
  0
LINE
  8
0
 10
-147.024
 20
7.12399
 11
-147.094
 21
6.75392
  0
LINE
  8
0
 10
-147.094
 20
6.75392
 11
-147.211
 21
6.39561
  0
LINE
  8
0
 10
-147.211
 20
6.39561
 11
-147.371
 21
6.05473
  0
LINE
  8
0
 10
-147.371
 20
6.05473
 11
-147.573
 21
5.73663
  0
LINE
  8
0
 10
-147.573
 20
5.73663
 11
-147.813
 21
5.44635
  0
LINE
  8
0
 10
-147.813
 20
5.44635
 11
-148.088
 21
5.18845
  0
LINE
  8
0
 10
-148.088
 20
5.18845
 11
-148.393
 21
4.96701
  0
LINE
  8
0
 10
-148.393
 20
4.96701
 11
-148.723
 21
4.78551
  0
LINE
  8
0
 10
-148.723
 20
4.78551
 11
-149.073
 21
4.64682
  0
LINE
  8
0
 10
-149.073
 20
4.64682
 11
-149.438
 21
4.55313
  0
LINE
  8
0
 10
-149.438
 20
4.55313
 11
-149.812
 21
4.50591
  0
LINE
  8
0
 10
-149.812
 20
4.50591
 11
-150.188
 21
4.50591
  0
LINE
  8
0
 10
149.812
 20
4.50591
 11
149.438
 21
4.55313
  0
LINE
  8
0
 10
149.438
 20
4.55313
 11
149.073
 21
4.64682
  0
LINE
  8
0
 10
149.073
 20
4.64682
 11
148.723
 21
4.78551
  0
LINE
  8
0
 10
148.723
 20
4.78551
 11
148.393
 21
4.96701
  0
LINE
  8
0
 10
148.393
 20
4.96701
 11
148.088
 21
5.18845
  0
LINE
  8
0
 10
148.088
 20
5.18845
 11
147.813
 21
5.44635
  0
LINE
  8
0
 10
147.813
 20
5.44635
 11
147.573
 21
5.73663
  0
LINE
  8
0
 10
147.573
 20
5.73663
 11
147.371
 21
6.05473
  0
LINE
  8
0
 10
147.371
 20
6.05473
 11
147.211
 21
6.39561
  0
LINE
  8
0
 10
147.211
 20
6.39561
 11
147.094
 21
6.75392
  0
LINE
  8
0
 10
147.094
 20
6.75392
 11
147.024
 21
7.12399
  0
LINE
  8
0
 10
147.024
 20
7.12399
 11
147
 21
7.5
  0
LINE
  8
0
 10
147
 20
7.5
 11
147.024
 21
7.87599
  0
LINE
  8
0
 10
147.024
 20
7.87599
 11
147.094
 21
8.24606
  0
LINE
  8
0
 10
147.094
 20
8.24606
 11
147.211
 21
8.60437
  0
LINE
  8
0
 10
147.211
 20
8.60437
 11
147.371
 21
8.94525
  0
LINE
  8
0
 10
147.371
 20
8.94525
 11
147.573
 21
9.26335
  0
LINE
  8
0
 10
147.573
 20
9.26335
 11
147.813
 21
9.55363
  0
LINE
  8
0
 10
147.813
 20
9.55363
 11
148.088
 21
9.81154
  0
LINE
  8
0
 10
148.088
 20
9.81154
 11
148.393
 21
10.033
  0
LINE
  8
0
 10
148.393
 20
10.033
 11
148.723
 21
10.2145
  0
LINE
  8
0
 10
148.723
 20
10.2145
 11
149.073
 21
10.3532
  0
LINE
  8
0
 10
149.073
 20
10.3532
 11
149.438
 21
10.4469
  0
LINE
  8
0
 10
149.438
 20
10.4469
 11
149.812
 21
10.4941
  0
LINE
  8
0
 10
149.812
 20
10.4941
 11
150.188
 21
10.4941
  0
LINE
  8
0
 10
150.188
 20
10.4941
 11
150.562
 21
10.4469
  0
LINE
  8
0
 10
150.562
 20
10.4469
 11
150.927
 21
10.3532
  0
LINE
  8
0
 10
150.927
 20
10.3532
 11
151.277
 21
10.2145
  0
LINE
  8
0
 10
151.277
 20
10.2145
 11
151.607
 21
10.033
  0
LINE
  8
0
 10
151.607
 20
10.033
 11
151.912
 21
9.81154
  0
LINE
  8
0
 10
151.912
 20
9.81154
 11
152.187
 21
9.55363
  0
LINE
  8
0
 10
152.187
 20
9.55363
 11
152.427
 21
9.26335
  0
LINE
  8
0
 10
152.427
 20
9.26335
 11
152.629
 21
8.94525
  0
LINE
  8
0
 10
152.629
 20
8.94525
 11
152.789
 21
8.60437
  0
LINE
  8
0
 10
152.789
 20
8.60437
 11
152.906
 21
8.24606
  0
LINE
  8
0
 10
152.906
 20
8.24606
 11
152.976
 21
7.87599
  0
LINE
  8
0
 10
152.976
 20
7.87599
 11
153
 21
7.5
  0
LINE
  8
0
 10
153
 20
7.5
 11
152.976
 21
7.12399
  0
LINE
  8
0
 10
152.976
 20
7.12399
 11
152.906
 21
6.75392
  0
LINE
  8
0
 10
152.906
 20
6.75392
 11
152.789
 21
6.39561
  0
LINE
  8
0
 10
152.789
 20
6.39561
 11
152.629
 21
6.05473
  0
LINE
  8
0
 10
152.629
 20
6.05473
 11
152.427
 21
5.73663
  0
LINE
  8
0
 10
152.427
 20
5.73663
 11
152.187
 21
5.44635
  0
LINE
  8
0
 10
152.187
 20
5.44635
 11
151.912
 21
5.18845
  0
LINE
  8
0
 10
151.912
 20
5.18845
 11
151.607
 21
4.96701
  0
LINE
  8
0
 10
151.607
 20
4.96701
 11
151.277
 21
4.78551
  0
LINE
  8
0
 10
151.277
 20
4.78551
 11
150.927
 21
4.64682
  0
LINE
  8
0
 10
150.927
 20
4.64682
 11
150.562
 21
4.55313
  0
LINE
  8
0
 10
150.562
 20
4.55313
 11
150.188
 21
4.50591
  0
LINE
  8
0
 10
150.188
 20
4.50591
 11
149.812
 21
4.50591
  0
LINE
  8
0
 10
149.906
 20
-1.49704
 11
149.719
 21
-1.47342
  0
LINE
  8
0
 10
149.719
 20
-1.47342
 11
149.536
 21
-1.42657
  0
LINE
  8
0
 10
149.536
 20
-1.42657
 11
149.361
 21
-1.35724
  0
LINE
  8
0
 10
149.361
 20
-1.35724
 11
149.196
 21
-1.26648
  0
LINE
  8
0
 10
149.196
 20
-1.26648
 11
149.044
 21
-1.15576
  0
LINE
  8
0
 10
149.044
 20
-1.15576
 11
148.907
 21
-1.02681
  0
LINE
  8
0
 10
148.907
 20
-1.02681
 11
148.786
 21
-0.881668
  0
LINE
  8
0
 10
148.786
 20
-0.881668
 11
148.686
 21
-0.722626
  0
LINE
  8
0
 10
148.686
 20
-0.722626
 11
148.605
 21
-0.552185
  0
LINE
  8
0
 10
148.605
 20
-0.552185
 11
148.547
 21
-0.373032
  0
LINE
  8
0
 10
148.547
 20
-0.373032
 11
148.512
 21
-0.187988
  0
LINE
  8
0
 10
148.512
 20
-0.187988
 11
148.5
 21
0
  0
LINE
  8
0
 10
148.5
 20
0
 11
148.512
 21
0.187988
  0
LINE
  8
0
 10
148.512
 20
0.187988
 11
148.547
 21
0.373032
  0
LINE
  8
0
 10
148.547
 20
0.373032
 11
148.605
 21
0.552185
  0
LINE
  8
0
 10
148.605
 20
0.552185
 11
148.686
 21
0.722626
  0
LINE
  8
0
 10
148.686
 20
0.722626
 11
148.786
 21
0.881668
  0
LINE
  8
0
 10
148.786
 20
0.881668
 11
148.907
 21
1.02681
  0
LINE
  8
0
 10
148.907
 20
1.02681
 11
149.044
 21
1.15576
  0
LINE
  8
0
 10
149.044
 20
1.15576
 11
149.196
 21
1.26648
  0
LINE
  8
0
 10
149.196
 20
1.26648
 11
149.361
 21
1.35724
  0
LINE
  8
0
 10
149.361
 20
1.35724
 11
149.536
 21
1.42657
  0
LINE
  8
0
 10
149.536
 20
1.42657
 11
149.719
 21
1.47342
  0
LINE
  8
0
 10
149.719
 20
1.47342
 11
149.906
 21
1.49704
  0
LINE
  8
0
 10
149.906
 20
1.49704
 11
150.094
 21
1.49704
  0
LINE
  8
0
 10
150.094
 20
1.49704
 11
150.281
 21
1.47342
  0
LINE
  8
0
 10
150.281
 20
1.47342
 11
150.464
 21
1.42657
  0
LINE
  8
0
 10
150.464
 20
1.42657
 11
150.639
 21
1.35724
  0
LINE
  8
0
 10
150.639
 20
1.35724
 11
150.804
 21
1.26648
  0
LINE
  8
0
 10
150.804
 20
1.26648
 11
150.956
 21
1.15576
  0
LINE
  8
0
 10
150.956
 20
1.15576
 11
151.093
 21
1.02681
  0
LINE
  8
0
 10
151.093
 20
1.02681
 11
151.214
 21
0.881668
  0
LINE
  8
0
 10
151.214
 20
0.881668
 11
151.314
 21
0.722626
  0
LINE
  8
0
 10
151.314
 20
0.722626
 11
151.395
 21
0.552185
  0
LINE
  8
0
 10
151.395
 20
0.552185
 11
151.453
 21
0.373032
  0
LINE
  8
0
 10
151.453
 20
0.373032
 11
151.488
 21
0.187988
  0
LINE
  8
0
 10
151.488
 20
0.187988
 11
151.5
 21
0
  0
LINE
  8
0
 10
151.5
 20
0
 11
151.488
 21
-0.187988
  0
LINE
  8
0
 10
151.488
 20
-0.187988
 11
151.453
 21
-0.373032
  0
LINE
  8
0
 10
151.453
 20
-0.373032
 11
151.395
 21
-0.552185
  0
LINE
  8
0
 10
151.395
 20
-0.552185
 11
151.314
 21
-0.722626
  0
LINE
  8
0
 10
151.314
 20
-0.722626
 11
151.214
 21
-0.881668
  0
LINE
  8
0
 10
151.214
 20
-0.881668
 11
151.093
 21
-1.02681
  0
LINE
  8
0
 10
151.093
 20
-1.02681
 11
150.956
 21
-1.15576
  0
LINE
  8
0
 10
150.956
 20
-1.15576
 11
150.804
 21
-1.26648
  0
LINE
  8
0
 10
150.804
 20
-1.26648
 11
150.639
 21
-1.35724
  0
LINE
  8
0
 10
150.639
 20
-1.35724
 11
150.464
 21
-1.42657
  0
LINE
  8
0
 10
150.464
 20
-1.42657
 11
150.281
 21
-1.47342
  0
LINE
  8
0
 10
150.281
 20
-1.47342
 11
150.094
 21
-1.49704
  0
LINE
  8
0
 10
150.094
 20
-1.49704
 11
149.906
 21
-1.49704
  0
LINE
  8
0
 10
-150.094
 20
-1.49704
 11
-150.281
 21
-1.47342
  0
LINE
  8
0
 10
-150.281
 20
-1.47342
 11
-150.464
 21
-1.42657
  0
LINE
  8
0
 10
-150.464
 20
-1.42657
 11
-150.639
 21
-1.35724
  0
LINE
  8
0
 10
-150.639
 20
-1.35724
 11
-150.804
 21
-1.26648
  0
LINE
  8
0
 10
-150.804
 20
-1.26648
 11
-150.956
 21
-1.15576
  0
LINE
  8
0
 10
-150.956
 20
-1.15576
 11
-151.093
 21
-1.02681
  0
LINE
  8
0
 10
-151.093
 20
-1.02681
 11
-151.214
 21
-0.881668
  0
LINE
  8
0
 10
-151.214
 20
-0.881668
 11
-151.314
 21
-0.722626
  0
LINE
  8
0
 10
-151.314
 20
-0.722626
 11
-151.395
 21
-0.552185
  0
LINE
  8
0
 10
-151.395
 20
-0.552185
 11
-151.453
 21
-0.373032
  0
LINE
  8
0
 10
-151.453
 20
-0.373032
 11
-151.488
 21
-0.187988
  0
LINE
  8
0
 10
-151.488
 20
-0.187988
 11
-151.5
 21
0
  0
LINE
  8
0
 10
-151.5
 20
0
 11
-151.488
 21
0.187988
  0
LINE
  8
0
 10
-151.488
 20
0.187988
 11
-151.453
 21
0.373032
  0
LINE
  8
0
 10
-151.453
 20
0.373032
 11
-151.395
 21
0.552185
  0
LINE
  8
0
 10
-151.395
 20
0.552185
 11
-151.314
 21
0.722626
  0
LINE
  8
0
 10
-151.314
 20
0.722626
 11
-151.214
 21
0.881668
  0
LINE
  8
0
 10
-151.214
 20
0.881668
 11
-151.093
 21
1.02681
  0
LINE
  8
0
 10
-151.093
 20
1.02681
 11
-150.956
 21
1.15576
  0
LINE
  8
0
 10
-150.956
 20
1.15576
 11
-150.804
 21
1.26648
  0
LINE
  8
0
 10
-150.804
 20
1.26648
 11
-150.639
 21
1.35724
  0
LINE
  8
0
 10
-150.639
 20
1.35724
 11
-150.464
 21
1.42657
  0
LINE
  8
0
 10
-150.464
 20
1.42657
 11
-150.281
 21
1.47342
  0
LINE
  8
0
 10
-150.281
 20
1.47342
 11
-150.094
 21
1.49704
  0
LINE
  8
0
 10
-150.094
 20
1.49704
 11
-149.906
 21
1.49704
  0
LINE
  8
0
 10
-149.906
 20
1.49704
 11
-149.719
 21
1.47342
  0
LINE
  8
0
 10
-149.719
 20
1.47342
 11
-149.536
 21
1.42657
  0
LINE
  8
0
 10
-149.536
 20
1.42657
 11
-149.361
 21
1.35724
  0
LINE
  8
0
 10
-149.361
 20
1.35724
 11
-149.196
 21
1.26648
  0
LINE
  8
0
 10
-149.196
 20
1.26648
 11
-149.044
 21
1.15576
  0
LINE
  8
0
 10
-149.044
 20
1.15576
 11
-148.907
 21
1.02681
  0
LINE
  8
0
 10
-148.907
 20
1.02681
 11
-148.786
 21
0.881668
  0
LINE
  8
0
 10
-148.786
 20
0.881668
 11
-148.686
 21
0.722626
  0
LINE
  8
0
 10
-148.686
 20
0.722626
 11
-148.605
 21
0.552185
  0
LINE
  8
0
 10
-148.605
 20
0.552185
 11
-148.547
 21
0.373032
  0
LINE
  8
0
 10
-148.547
 20
0.373032
 11
-148.512
 21
0.187988
  0
LINE
  8
0
 10
-148.512
 20
0.187988
 11
-148.5
 21
0
  0
LINE
  8
0
 10
-148.5
 20
0
 11
-148.512
 21
-0.187988
  0
LINE
  8
0
 10
-148.512
 20
-0.187988
 11
-148.547
 21
-0.373032
  0
LINE
  8
0
 10
-148.547
 20
-0.373032
 11
-148.605
 21
-0.552185
  0
LINE
  8
0
 10
-148.605
 20
-0.552185
 11
-148.686
 21
-0.722626
  0
LINE
  8
0
 10
-148.686
 20
-0.722626
 11
-148.786
 21
-0.881668
  0
LINE
  8
0
 10
-148.786
 20
-0.881668
 11
-148.907
 21
-1.02681
  0
LINE
  8
0
 10
-148.907
 20
-1.02681
 11
-149.044
 21
-1.15576
  0
LINE
  8
0
 10
-149.044
 20
-1.15576
 11
-149.196
 21
-1.26648
  0
LINE
  8
0
 10
-149.196
 20
-1.26648
 11
-149.361
 21
-1.35724
  0
LINE
  8
0
 10
-149.361
 20
-1.35724
 11
-149.536
 21
-1.42657
  0
LINE
  8
0
 10
-149.536
 20
-1.42657
 11
-149.719
 21
-1.47342
  0
LINE
  8
0
 10
-149.719
 20
-1.47342
 11
-149.906
 21
-1.49704
  0
LINE
  8
0
 10
-149.906
 20
-1.49704
 11
-150.094
 21
-1.49704
  0
LINE
  8
0
 10
-150.188
 20
-10.4941
 11
-150.562
 21
-10.4469
  0
LINE
  8
0
 10
-150.562
 20
-10.4469
 11
-150.927
 21
-10.3532
  0
LINE
  8
0
 10
-150.927
 20
-10.3532
 11
-151.277
 21
-10.2145
  0
LINE
  8
0
 10
-151.277
 20
-10.2145
 11
-151.607
 21
-10.033
  0
LINE
  8
0
 10
-151.607
 20
-10.033
 11
-151.912
 21
-9.81154
  0
LINE
  8
0
 10
-151.912
 20
-9.81154
 11
-152.187
 21
-9.55363
  0
LINE
  8
0
 10
-152.187
 20
-9.55363
 11
-152.427
 21
-9.26335
  0
LINE
  8
0
 10
-152.427
 20
-9.26335
 11
-152.629
 21
-8.94525
  0
LINE
  8
0
 10
-152.629
 20
-8.94525
 11
-152.789
 21
-8.60437
  0
LINE
  8
0
 10
-152.789
 20
-8.60437
 11
-152.906
 21
-8.24606
  0
LINE
  8
0
 10
-152.906
 20
-8.24606
 11
-152.976
 21
-7.87599
  0
LINE
  8
0
 10
-152.976
 20
-7.87599
 11
-153
 21
-7.5
  0
LINE
  8
0
 10
-153
 20
-7.5
 11
-152.976
 21
-7.12399
  0
LINE
  8
0
 10
-152.976
 20
-7.12399
 11
-152.906
 21
-6.75392
  0
LINE
  8
0
 10
-152.906
 20
-6.75392
 11
-152.789
 21
-6.39561
  0
LINE
  8
0
 10
-152.789
 20
-6.39561
 11
-152.629
 21
-6.05473
  0
LINE
  8
0
 10
-152.629
 20
-6.05473
 11
-152.427
 21
-5.73663
  0
LINE
  8
0
 10
-152.427
 20
-5.73663
 11
-152.187
 21
-5.44635
  0
LINE
  8
0
 10
-152.187
 20
-5.44635
 11
-151.912
 21
-5.18845
  0
LINE
  8
0
 10
-151.912
 20
-5.18845
 11
-151.607
 21
-4.96701
  0
LINE
  8
0
 10
-151.607
 20
-4.96701
 11
-151.277
 21
-4.78551
  0
LINE
  8
0
 10
-151.277
 20
-4.78551
 11
-150.927
 21
-4.64682
  0
LINE
  8
0
 10
-150.927
 20
-4.64682
 11
-150.562
 21
-4.55313
  0
LINE
  8
0
 10
-150.562
 20
-4.55313
 11
-150.188
 21
-4.50591
  0
LINE
  8
0
 10
-150.188
 20
-4.50591
 11
-149.812
 21
-4.50591
  0
LINE
  8
0
 10
-149.812
 20
-4.50591
 11
-149.438
 21
-4.55313
  0
LINE
  8
0
 10
-149.438
 20
-4.55313
 11
-149.073
 21
-4.64682
  0
LINE
  8
0
 10
-149.073
 20
-4.64682
 11
-148.723
 21
-4.78551
  0
LINE
  8
0
 10
-148.723
 20
-4.78551
 11
-148.393
 21
-4.96701
  0
LINE
  8
0
 10
-148.393
 20
-4.96701
 11
-148.088
 21
-5.18845
  0
LINE
  8
0
 10
-148.088
 20
-5.18845
 11
-147.813
 21
-5.44635
  0
LINE
  8
0
 10
-147.813
 20
-5.44635
 11
-147.573
 21
-5.73663
  0
LINE
  8
0
 10
-147.573
 20
-5.73663
 11
-147.371
 21
-6.05473
  0
LINE
  8
0
 10
-147.371
 20
-6.05473
 11
-147.211
 21
-6.39561
  0
LINE
  8
0
 10
-147.211
 20
-6.39561
 11
-147.094
 21
-6.75392
  0
LINE
  8
0
 10
-147.094
 20
-6.75392
 11
-147.024
 21
-7.12399
  0
LINE
  8
0
 10
-147.024
 20
-7.12399
 11
-147
 21
-7.5
  0
LINE
  8
0
 10
-147
 20
-7.5
 11
-147.024
 21
-7.87599
  0
LINE
  8
0
 10
-147.024
 20
-7.87599
 11
-147.094
 21
-8.24606
  0
LINE
  8
0
 10
-147.094
 20
-8.24606
 11
-147.211
 21
-8.60437
  0
LINE
  8
0
 10
-147.211
 20
-8.60437
 11
-147.371
 21
-8.94525
  0
LINE
  8
0
 10
-147.371
 20
-8.94525
 11
-147.573
 21
-9.26335
  0
LINE
  8
0
 10
-147.573
 20
-9.26335
 11
-147.813
 21
-9.55363
  0
LINE
  8
0
 10
-147.813
 20
-9.55363
 11
-148.088
 21
-9.81154
  0
LINE
  8
0
 10
-148.088
 20
-9.81154
 11
-148.393
 21
-10.033
  0
LINE
  8
0
 10
-148.393
 20
-10.033
 11
-148.723
 21
-10.2145
  0
LINE
  8
0
 10
-148.723
 20
-10.2145
 11
-149.073
 21
-10.3532
  0
LINE
  8
0
 10
-149.073
 20
-10.3532
 11
-149.438
 21
-10.4469
  0
LINE
  8
0
 10
-149.438
 20
-10.4469
 11
-149.812
 21
-10.4941
  0
LINE
  8
0
 10
-149.812
 20
-10.4941
 11
-150.188
 21
-10.4941
  0
LINE
  8
0
 10
149.812
 20
-10.4941
 11
149.438
 21
-10.4469
  0
LINE
  8
0
 10
149.438
 20
-10.4469
 11
149.073
 21
-10.3532
  0
LINE
  8
0
 10
149.073
 20
-10.3532
 11
148.723
 21
-10.2145
  0
LINE
  8
0
 10
148.723
 20
-10.2145
 11
148.393
 21
-10.033
  0
LINE
  8
0
 10
148.393
 20
-10.033
 11
148.088
 21
-9.81154
  0
LINE
  8
0
 10
148.088
 20
-9.81154
 11
147.813
 21
-9.55363
  0
LINE
  8
0
 10
147.813
 20
-9.55363
 11
147.573
 21
-9.26335
  0
LINE
  8
0
 10
147.573
 20
-9.26335
 11
147.371
 21
-8.94525
  0
LINE
  8
0
 10
147.371
 20
-8.94525
 11
147.211
 21
-8.60437
  0
LINE
  8
0
 10
147.211
 20
-8.60437
 11
147.094
 21
-8.24606
  0
LINE
  8
0
 10
147.094
 20
-8.24606
 11
147.024
 21
-7.87599
  0
LINE
  8
0
 10
147.024
 20
-7.87599
 11
147
 21
-7.5
  0
LINE
  8
0
 10
147
 20
-7.5
 11
147.024
 21
-7.12399
  0
LINE
  8
0
 10
147.024
 20
-7.12399
 11
147.094
 21
-6.75392
  0
LINE
  8
0
 10
147.094
 20
-6.75392
 11
147.211
 21
-6.39561
  0
LINE
  8
0
 10
147.211
 20
-6.39561
 11
147.371
 21
-6.05473
  0
LINE
  8
0
 10
147.371
 20
-6.05473
 11
147.573
 21
-5.73663
  0
LINE
  8
0
 10
147.573
 20
-5.73663
 11
147.813
 21
-5.44635
  0
LINE
  8
0
 10
147.813
 20
-5.44635
 11
148.088
 21
-5.18845
  0
LINE
  8
0
 10
148.088
 20
-5.18845
 11
148.393
 21
-4.96701
  0
LINE
  8
0
 10
148.393
 20
-4.96701
 11
148.723
 21
-4.78551
  0
LINE
  8
0
 10
148.723
 20
-4.78551
 11
149.073
 21
-4.64682
  0
LINE
  8
0
 10
149.073
 20
-4.64682
 11
149.438
 21
-4.55313
  0
LINE
  8
0
 10
149.438
 20
-4.55313
 11
149.812
 21
-4.50591
  0
LINE
  8
0
 10
149.812
 20
-4.50591
 11
150.188
 21
-4.50591
  0
LINE
  8
0
 10
150.188
 20
-4.50591
 11
150.562
 21
-4.55313
  0
LINE
  8
0
 10
150.562
 20
-4.55313
 11
150.927
 21
-4.64682
  0
LINE
  8
0
 10
150.927
 20
-4.64682
 11
151.277
 21
-4.78551
  0
LINE
  8
0
 10
151.277
 20
-4.78551
 11
151.607
 21
-4.96701
  0
LINE
  8
0
 10
151.607
 20
-4.96701
 11
151.912
 21
-5.18845
  0
LINE
  8
0
 10
151.912
 20
-5.18845
 11
152.187
 21
-5.44635
  0
LINE
  8
0
 10
152.187
 20
-5.44635
 11
152.427
 21
-5.73663
  0
LINE
  8
0
 10
152.427
 20
-5.73663
 11
152.629
 21
-6.05473
  0
LINE
  8
0
 10
152.629
 20
-6.05473
 11
152.789
 21
-6.39561
  0
LINE
  8
0
 10
152.789
 20
-6.39561
 11
152.906
 21
-6.75392
  0
LINE
  8
0
 10
152.906
 20
-6.75392
 11
152.976
 21
-7.12399
  0
LINE
  8
0
 10
152.976
 20
-7.12399
 11
153
 21
-7.5
  0
LINE
  8
0
 10
153
 20
-7.5
 11
152.976
 21
-7.87599
  0
LINE
  8
0
 10
152.976
 20
-7.87599
 11
152.906
 21
-8.24606
  0
LINE
  8
0
 10
152.906
 20
-8.24606
 11
152.789
 21
-8.60437
  0
LINE
  8
0
 10
152.789
 20
-8.60437
 11
152.629
 21
-8.94525
  0
LINE
  8
0
 10
152.629
 20
-8.94525
 11
152.427
 21
-9.26335
  0
LINE
  8
0
 10
152.427
 20
-9.26335
 11
152.187
 21
-9.55363
  0
LINE
  8
0
 10
152.187
 20
-9.55363
 11
151.912
 21
-9.81154
  0
LINE
  8
0
 10
151.912
 20
-9.81154
 11
151.607
 21
-10.033
  0
LINE
  8
0
 10
151.607
 20
-10.033
 11
151.277
 21
-10.2145
  0
LINE
  8
0
 10
151.277
 20
-10.2145
 11
150.927
 21
-10.3532
  0
LINE
  8
0
 10
150.927
 20
-10.3532
 11
150.562
 21
-10.4469
  0
LINE
  8
0
 10
150.562
 20
-10.4469
 11
150.188
 21
-10.4941
  0
LINE
  8
0
 10
150.188
 20
-10.4941
 11
149.812
 21
-10.4941
  0
LINE
  8
0
 10
149.906
 20
-16.497
 11
149.719
 21
-16.4734
  0
LINE
  8
0
 10
149.719
 20
-16.4734
 11
149.536
 21
-16.4266
  0
LINE
  8
0
 10
149.536
 20
-16.4266
 11
149.361
 21
-16.3572
  0
LINE
  8
0
 10
149.361
 20
-16.3572
 11
149.196
 21
-16.2665
  0
LINE
  8
0
 10
149.196
 20
-16.2665
 11
149.044
 21
-16.1558
  0
LINE
  8
0
 10
149.044
 20
-16.1558
 11
148.907
 21
-16.0268
  0
LINE
  8
0
 10
148.907
 20
-16.0268
 11
148.786
 21
-15.8817
  0
LINE
  8
0
 10
148.786
 20
-15.8817
 11
148.686
 21
-15.7226
  0
LINE
  8
0
 10
148.686
 20
-15.7226
 11
148.605
 21
-15.5522
  0
LINE
  8
0
 10
148.605
 20
-15.5522
 11
148.547
 21
-15.373
  0
LINE
  8
0
 10
148.547
 20
-15.373
 11
148.512
 21
-15.188
  0
LINE
  8
0
 10
148.512
 20
-15.188
 11
148.5
 21
-15
  0
LINE
  8
0
 10
148.5
 20
-15
 11
148.512
 21
-14.812
  0
LINE
  8
0
 10
148.512
 20
-14.812
 11
148.547
 21
-14.627
  0
LINE
  8
0
 10
148.547
 20
-14.627
 11
148.605
 21
-14.4478
  0
LINE
  8
0
 10
148.605
 20
-14.4478
 11
148.686
 21
-14.2774
  0
LINE
  8
0
 10
148.686
 20
-14.2774
 11
148.786
 21
-14.1183
  0
LINE
  8
0
 10
148.786
 20
-14.1183
 11
148.907
 21
-13.9732
  0
LINE
  8
0
 10
148.907
 20
-13.9732
 11
149.044
 21
-13.8442
  0
LINE
  8
0
 10
149.044
 20
-13.8442
 11
149.196
 21
-13.7335
  0
LINE
  8
0
 10
149.196
 20
-13.7335
 11
149.361
 21
-13.6427
  0
LINE
  8
0
 10
149.361
 20
-13.6427
 11
149.536
 21
-13.5734
  0
LINE
  8
0
 10
149.536
 20
-13.5734
 11
149.719
 21
-13.5266
  0
LINE
  8
0
 10
149.719
 20
-13.5266
 11
149.906
 21
-13.5029
  0
LINE
  8
0
 10
149.906
 20
-13.5029
 11
150.094
 21
-13.5029
  0
LINE
  8
0
 10
150.094
 20
-13.5029
 11
150.281
 21
-13.5266
  0
LINE
  8
0
 10
150.281
 20
-13.5266
 11
150.464
 21
-13.5734
  0
LINE
  8
0
 10
150.464
 20
-13.5734
 11
150.639
 21
-13.6427
  0
LINE
  8
0
 10
150.639
 20
-13.6427
 11
150.804
 21
-13.7335
  0
LINE
  8
0
 10
150.804
 20
-13.7335
 11
150.956
 21
-13.8442
  0
LINE
  8
0
 10
150.956
 20
-13.8442
 11
151.093
 21
-13.9732
  0
LINE
  8
0
 10
151.093
 20
-13.9732
 11
151.214
 21
-14.1183
  0
LINE
  8
0
 10
151.214
 20
-14.1183
 11
151.314
 21
-14.2774
  0
LINE
  8
0
 10
151.314
 20
-14.2774
 11
151.395
 21
-14.4478
  0
LINE
  8
0
 10
151.395
 20
-14.4478
 11
151.453
 21
-14.627
  0
LINE
  8
0
 10
151.453
 20
-14.627
 11
151.488
 21
-14.812
  0
LINE
  8
0
 10
151.488
 20
-14.812
 11
151.5
 21
-15
  0
LINE
  8
0
 10
151.5
 20
-15
 11
151.488
 21
-15.188
  0
LINE
  8
0
 10
151.488
 20
-15.188
 11
151.453
 21
-15.373
  0
LINE
  8
0
 10
151.453
 20
-15.373
 11
151.395
 21
-15.5522
  0
LINE
  8
0
 10
151.395
 20
-15.5522
 11
151.314
 21
-15.7226
  0
LINE
  8
0
 10
151.314
 20
-15.7226
 11
151.214
 21
-15.8817
  0
LINE
  8
0
 10
151.214
 20
-15.8817
 11
151.093
 21
-16.0268
  0
LINE
  8
0
 10
151.093
 20
-16.0268
 11
150.956
 21
-16.1558
  0
LINE
  8
0
 10
150.956
 20
-16.1558
 11
150.804
 21
-16.2665
  0
LINE
  8
0
 10
150.804
 20
-16.2665
 11
150.639
 21
-16.3572
  0
LINE
  8
0
 10
150.639
 20
-16.3572
 11
150.464
 21
-16.4266
  0
LINE
  8
0
 10
150.464
 20
-16.4266
 11
150.281
 21
-16.4734
  0
LINE
  8
0
 10
150.281
 20
-16.4734
 11
150.094
 21
-16.497
  0
LINE
  8
0
 10
150.094
 20
-16.497
 11
149.906
 21
-16.497
  0
LINE
  8
0
 10
-150.094
 20
-16.497
 11
-150.281
 21
-16.4734
  0
LINE
  8
0
 10
-150.281
 20
-16.4734
 11
-150.464
 21
-16.4266
  0
LINE
  8
0
 10
-150.464
 20
-16.4266
 11
-150.639
 21
-16.3572
  0
LINE
  8
0
 10
-150.639
 20
-16.3572
 11
-150.804
 21
-16.2665
  0
LINE
  8
0
 10
-150.804
 20
-16.2665
 11
-150.956
 21
-16.1558
  0
LINE
  8
0
 10
-150.956
 20
-16.1558
 11
-151.093
 21
-16.0268
  0
LINE
  8
0
 10
-151.093
 20
-16.0268
 11
-151.214
 21
-15.8817
  0
LINE
  8
0
 10
-151.214
 20
-15.8817
 11
-151.314
 21
-15.7226
  0
LINE
  8
0
 10
-151.314
 20
-15.7226
 11
-151.395
 21
-15.5522
  0
LINE
  8
0
 10
-151.395
 20
-15.5522
 11
-151.453
 21
-15.373
  0
LINE
  8
0
 10
-151.453
 20
-15.373
 11
-151.488
 21
-15.188
  0
LINE
  8
0
 10
-151.488
 20
-15.188
 11
-151.5
 21
-15
  0
LINE
  8
0
 10
-151.5
 20
-15
 11
-151.488
 21
-14.812
  0
LINE
  8
0
 10
-151.488
 20
-14.812
 11
-151.453
 21
-14.627
  0
LINE
  8
0
 10
-151.453
 20
-14.627
 11
-151.395
 21
-14.4478
  0
LINE
  8
0
 10
-151.395
 20
-14.4478
 11
-151.314
 21
-14.2774
  0
LINE
  8
0
 10
-151.314
 20
-14.2774
 11
-151.214
 21
-14.1183
  0
LINE
  8
0
 10
-151.214
 20
-14.1183
 11
-151.093
 21
-13.9732
  0
LINE
  8
0
 10
-151.093
 20
-13.9732
 11
-150.956
 21
-13.8442
  0
LINE
  8
0
 10
-150.956
 20
-13.8442
 11
-150.804
 21
-13.7335
  0
LINE
  8
0
 10
-150.804
 20
-13.7335
 11
-150.639
 21
-13.6427
  0
LINE
  8
0
 10
-150.639
 20
-13.6427
 11
-150.464
 21
-13.5734
  0
LINE
  8
0
 10
-150.464
 20
-13.5734
 11
-150.281
 21
-13.5266
  0
LINE
  8
0
 10
-150.281
 20
-13.5266
 11
-150.094
 21
-13.5029
  0
LINE
  8
0
 10
-150.094
 20
-13.5029
 11
-149.906
 21
-13.5029
  0
LINE
  8
0
 10
-149.906
 20
-13.5029
 11
-149.719
 21
-13.5266
  0
LINE
  8
0
 10
-149.719
 20
-13.5266
 11
-149.536
 21
-13.5734
  0
LINE
  8
0
 10
-149.536
 20
-13.5734
 11
-149.361
 21
-13.6427
  0
LINE
  8
0
 10
-149.361
 20
-13.6427
 11
-149.196
 21
-13.7335
  0
LINE
  8
0
 10
-149.196
 20
-13.7335
 11
-149.044
 21
-13.8442
  0
LINE
  8
0
 10
-149.044
 20
-13.8442
 11
-148.907
 21
-13.9732
  0
LINE
  8
0
 10
-148.907
 20
-13.9732
 11
-148.786
 21
-14.1183
  0
LINE
  8
0
 10
-148.786
 20
-14.1183
 11
-148.686
 21
-14.2774
  0
LINE
  8
0
 10
-148.686
 20
-14.2774
 11
-148.605
 21
-14.4478
  0
LINE
  8
0
 10
-148.605
 20
-14.4478
 11
-148.547
 21
-14.627
  0
LINE
  8
0
 10
-148.547
 20
-14.627
 11
-148.512
 21
-14.812
  0
LINE
  8
0
 10
-148.512
 20
-14.812
 11
-148.5
 21
-15
  0
LINE
  8
0
 10
-148.5
 20
-15
 11
-148.512
 21
-15.188
  0
LINE
  8
0
 10
-148.512
 20
-15.188
 11
-148.547
 21
-15.373
  0
LINE
  8
0
 10
-148.547
 20
-15.373
 11
-148.605
 21
-15.5522
  0
LINE
  8
0
 10
-148.605
 20
-15.5522
 11
-148.686
 21
-15.7226
  0
LINE
  8
0
 10
-148.686
 20
-15.7226
 11
-148.786
 21
-15.8817
  0
LINE
  8
0
 10
-148.786
 20
-15.8817
 11
-148.907
 21
-16.0268
  0
LINE
  8
0
 10
-148.907
 20
-16.0268
 11
-149.044
 21
-16.1558
  0
LINE
  8
0
 10
-149.044
 20
-16.1558
 11
-149.196
 21
-16.2665
  0
LINE
  8
0
 10
-149.196
 20
-16.2665
 11
-149.361
 21
-16.3572
  0
LINE
  8
0
 10
-149.361
 20
-16.3572
 11
-149.536
 21
-16.4266
  0
LINE
  8
0
 10
-149.536
 20
-16.4266
 11
-149.719
 21
-16.4734
  0
LINE
  8
0
 10
-149.719
 20
-16.4734
 11
-149.906
 21
-16.497
  0
LINE
  8
0
 10
-149.906
 20
-16.497
 11
-150.094
 21
-16.497
  0
LINE
  8
0
 10
149.812
 20
-25.4941
 11
149.438
 21
-25.4469
  0
LINE
  8
0
 10
149.438
 20
-25.4469
 11
149.073
 21
-25.3532
  0
LINE
  8
0
 10
149.073
 20
-25.3532
 11
148.723
 21
-25.2145
  0
LINE
  8
0
 10
148.723
 20
-25.2145
 11
148.393
 21
-25.033
  0
LINE
  8
0
 10
148.393
 20
-25.033
 11
148.088
 21
-24.8115
  0
LINE
  8
0
 10
148.088
 20
-24.8115
 11
147.813
 21
-24.5536
  0
LINE
  8
0
 10
147.813
 20
-24.5536
 11
147.573
 21
-24.2634
  0
LINE
  8
0
 10
147.573
 20
-24.2634
 11
147.371
 21
-23.9453
  0
LINE
  8
0
 10
147.371
 20
-23.9453
 11
147.211
 21
-23.6044
  0
LINE
  8
0
 10
147.211
 20
-23.6044
 11
147.094
 21
-23.2461
  0
LINE
  8
0
 10
147.094
 20
-23.2461
 11
147.024
 21
-22.876
  0
LINE
  8
0
 10
147.024
 20
-22.876
 11
147
 21
-22.5
  0
LINE
  8
0
 10
147
 20
-22.5
 11
147.024
 21
-22.124
  0
LINE
  8
0
 10
147.024
 20
-22.124
 11
147.094
 21
-21.7539
  0
LINE
  8
0
 10
147.094
 20
-21.7539
 11
147.211
 21
-21.3956
  0
LINE
  8
0
 10
147.211
 20
-21.3956
 11
147.371
 21
-21.0547
  0
LINE
  8
0
 10
147.371
 20
-21.0547
 11
147.573
 21
-20.7366
  0
LINE
  8
0
 10
147.573
 20
-20.7366
 11
147.813
 21
-20.4464
  0
LINE
  8
0
 10
147.813
 20
-20.4464
 11
148.088
 21
-20.1884
  0
LINE
  8
0
 10
148.088
 20
-20.1884
 11
148.393
 21
-19.967
  0
LINE
  8
0
 10
148.393
 20
-19.967
 11
148.723
 21
-19.7855
  0
LINE
  8
0
 10
148.723
 20
-19.7855
 11
149.073
 21
-19.6468
  0
LINE
  8
0
 10
149.073
 20
-19.6468
 11
149.438
 21
-19.5531
  0
LINE
  8
0
 10
149.438
 20
-19.5531
 11
149.812
 21
-19.5059
  0
LINE
  8
0
 10
149.812
 20
-19.5059
 11
150.188
 21
-19.5059
  0
LINE
  8
0
 10
150.188
 20
-19.5059
 11
150.562
 21
-19.5531
  0
LINE
  8
0
 10
150.562
 20
-19.5531
 11
150.927
 21
-19.6468
  0
LINE
  8
0
 10
150.927
 20
-19.6468
 11
151.277
 21
-19.7855
  0
LINE
  8
0
 10
151.277
 20
-19.7855
 11
151.607
 21
-19.967
  0
LINE
  8
0
 10
151.607
 20
-19.967
 11
151.912
 21
-20.1884
  0
LINE
  8
0
 10
151.912
 20
-20.1884
 11
152.187
 21
-20.4464
  0
LINE
  8
0
 10
152.187
 20
-20.4464
 11
152.427
 21
-20.7366
  0
LINE
  8
0
 10
152.427
 20
-20.7366
 11
152.629
 21
-21.0547
  0
LINE
  8
0
 10
152.629
 20
-21.0547
 11
152.789
 21
-21.3956
  0
LINE
  8
0
 10
152.789
 20
-21.3956
 11
152.906
 21
-21.7539
  0
LINE
  8
0
 10
152.906
 20
-21.7539
 11
152.976
 21
-22.124
  0
LINE
  8
0
 10
152.976
 20
-22.124
 11
153
 21
-22.5
  0
LINE
  8
0
 10
153
 20
-22.5
 11
152.976
 21
-22.876
  0
LINE
  8
0
 10
152.976
 20
-22.876
 11
152.906
 21
-23.2461
  0
LINE
  8
0
 10
152.906
 20
-23.2461
 11
152.789
 21
-23.6044
  0
LINE
  8
0
 10
152.789
 20
-23.6044
 11
152.629
 21
-23.9453
  0
LINE
  8
0
 10
152.629
 20
-23.9453
 11
152.427
 21
-24.2634
  0
LINE
  8
0
 10
152.427
 20
-24.2634
 11
152.187
 21
-24.5536
  0
LINE
  8
0
 10
152.187
 20
-24.5536
 11
151.912
 21
-24.8115
  0
LINE
  8
0
 10
151.912
 20
-24.8115
 11
151.607
 21
-25.033
  0
LINE
  8
0
 10
151.607
 20
-25.033
 11
151.277
 21
-25.2145
  0
LINE
  8
0
 10
151.277
 20
-25.2145
 11
150.927
 21
-25.3532
  0
LINE
  8
0
 10
150.927
 20
-25.3532
 11
150.562
 21
-25.4469
  0
LINE
  8
0
 10
150.562
 20
-25.4469
 11
150.188
 21
-25.4941
  0
LINE
  8
0
 10
150.188
 20
-25.4941
 11
149.812
 21
-25.4941
  0
LINE
  8
0
 10
-150.188
 20
-25.4941
 11
-150.562
 21
-25.4469
  0
LINE
  8
0
 10
-150.562
 20
-25.4469
 11
-150.927
 21
-25.3532
  0
LINE
  8
0
 10
-150.927
 20
-25.3532
 11
-151.277
 21
-25.2145
  0
LINE
  8
0
 10
-151.277
 20
-25.2145
 11
-151.607
 21
-25.033
  0
LINE
  8
0
 10
-151.607
 20
-25.033
 11
-151.912
 21
-24.8115
  0
LINE
  8
0
 10
-151.912
 20
-24.8115
 11
-152.187
 21
-24.5536
  0
LINE
  8
0
 10
-152.187
 20
-24.5536
 11
-152.427
 21
-24.2634
  0
LINE
  8
0
 10
-152.427
 20
-24.2634
 11
-152.629
 21
-23.9453
  0
LINE
  8
0
 10
-152.629
 20
-23.9453
 11
-152.789
 21
-23.6044
  0
LINE
  8
0
 10
-152.789
 20
-23.6044
 11
-152.906
 21
-23.2461
  0
LINE
  8
0
 10
-152.906
 20
-23.2461
 11
-152.976
 21
-22.876
  0
LINE
  8
0
 10
-152.976
 20
-22.876
 11
-153
 21
-22.5
  0
LINE
  8
0
 10
-153
 20
-22.5
 11
-152.976
 21
-22.124
  0
LINE
  8
0
 10
-152.976
 20
-22.124
 11
-152.906
 21
-21.7539
  0
LINE
  8
0
 10
-152.906
 20
-21.7539
 11
-152.789
 21
-21.3956
  0
LINE
  8
0
 10
-152.789
 20
-21.3956
 11
-152.629
 21
-21.0547
  0
LINE
  8
0
 10
-152.629
 20
-21.0547
 11
-152.427
 21
-20.7366
  0
LINE
  8
0
 10
-152.427
 20
-20.7366
 11
-152.187
 21
-20.4464
  0
LINE
  8
0
 10
-152.187
 20
-20.4464
 11
-151.912
 21
-20.1884
  0
LINE
  8
0
 10
-151.912
 20
-20.1884
 11
-151.607
 21
-19.967
  0
LINE
  8
0
 10
-151.607
 20
-19.967
 11
-151.277
 21
-19.7855
  0
LINE
  8
0
 10
-151.277
 20
-19.7855
 11
-150.927
 21
-19.6468
  0
LINE
  8
0
 10
-150.927
 20
-19.6468
 11
-150.562
 21
-19.5531
  0
LINE
  8
0
 10
-150.562
 20
-19.5531
 11
-150.188
 21
-19.5059
  0
LINE
  8
0
 10
-150.188
 20
-19.5059
 11
-149.812
 21
-19.5059
  0
LINE
  8
0
 10
-149.812
 20
-19.5059
 11
-149.438
 21
-19.5531
  0
LINE
  8
0
 10
-149.438
 20
-19.5531
 11
-149.073
 21
-19.6468
  0
LINE
  8
0
 10
-149.073
 20
-19.6468
 11
-148.723
 21
-19.7855
  0
LINE
  8
0
 10
-148.723
 20
-19.7855
 11
-148.393
 21
-19.967
  0
LINE
  8
0
 10
-148.393
 20
-19.967
 11
-148.088
 21
-20.1884
  0
LINE
  8
0
 10
-148.088
 20
-20.1884
 11
-147.813
 21
-20.4464
  0
LINE
  8
0
 10
-147.813
 20
-20.4464
 11
-147.573
 21
-20.7366
  0
LINE
  8
0
 10
-147.573
 20
-20.7366
 11
-147.371
 21
-21.0547
  0
LINE
  8
0
 10
-147.371
 20
-21.0547
 11
-147.211
 21
-21.3956
  0
LINE
  8
0
 10
-147.211
 20
-21.3956
 11
-147.094
 21
-21.7539
  0
LINE
  8
0
 10
-147.094
 20
-21.7539
 11
-147.024
 21
-22.124
  0
LINE
  8
0
 10
-147.024
 20
-22.124
 11
-147
 21
-22.5
  0
LINE
  8
0
 10
-147
 20
-22.5
 11
-147.024
 21
-22.876
  0
LINE
  8
0
 10
-147.024
 20
-22.876
 11
-147.094
 21
-23.2461
  0
LINE
  8
0
 10
-147.094
 20
-23.2461
 11
-147.211
 21
-23.6044
  0
LINE
  8
0
 10
-147.211
 20
-23.6044
 11
-147.371
 21
-23.9453
  0
LINE
  8
0
 10
-147.371
 20
-23.9453
 11
-147.573
 21
-24.2634
  0
LINE
  8
0
 10
-147.573
 20
-24.2634
 11
-147.813
 21
-24.5536
  0
LINE
  8
0
 10
-147.813
 20
-24.5536
 11
-148.088
 21
-24.8115
  0
LINE
  8
0
 10
-148.088
 20
-24.8115
 11
-148.393
 21
-25.033
  0
LINE
  8
0
 10
-148.393
 20
-25.033
 11
-148.723
 21
-25.2145
  0
LINE
  8
0
 10
-148.723
 20
-25.2145
 11
-149.073
 21
-25.3532
  0
LINE
  8
0
 10
-149.073
 20
-25.3532
 11
-149.438
 21
-25.4469
  0
LINE
  8
0
 10
-149.438
 20
-25.4469
 11
-149.812
 21
-25.4941
  0
LINE
  8
0
 10
-149.812
 20
-25.4941
 11
-150.188
 21
-25.4941
  0
LINE
  8
0
 10
149.906
 20
-31.497
 11
149.719
 21
-31.4734
  0
LINE
  8
0
 10
149.719
 20
-31.4734
 11
149.536
 21
-31.4266
  0
LINE
  8
0
 10
149.536
 20
-31.4266
 11
149.361
 21
-31.3572
  0
LINE
  8
0
 10
149.361
 20
-31.3572
 11
149.196
 21
-31.2665
  0
LINE
  8
0
 10
149.196
 20
-31.2665
 11
149.044
 21
-31.1558
  0
LINE
  8
0
 10
149.044
 20
-31.1558
 11
148.907
 21
-31.0268
  0
LINE
  8
0
 10
148.907
 20
-31.0268
 11
148.786
 21
-30.8817
  0
LINE
  8
0
 10
148.786
 20
-30.8817
 11
148.686
 21
-30.7226
  0
LINE
  8
0
 10
148.686
 20
-30.7226
 11
148.605
 21
-30.5522
  0
LINE
  8
0
 10
148.605
 20
-30.5522
 11
148.547
 21
-30.373
  0
LINE
  8
0
 10
148.547
 20
-30.373
 11
148.512
 21
-30.188
  0
LINE
  8
0
 10
148.512
 20
-30.188
 11
148.5
 21
-30
  0
LINE
  8
0
 10
148.5
 20
-30
 11
148.512
 21
-29.812
  0
LINE
  8
0
 10
148.512
 20
-29.812
 11
148.547
 21
-29.627
  0
LINE
  8
0
 10
148.547
 20
-29.627
 11
148.605
 21
-29.4478
  0
LINE
  8
0
 10
148.605
 20
-29.4478
 11
148.686
 21
-29.2774
  0
LINE
  8
0
 10
148.686
 20
-29.2774
 11
148.786
 21
-29.1183
  0
LINE
  8
0
 10
148.786
 20
-29.1183
 11
148.907
 21
-28.9732
  0
LINE
  8
0
 10
148.907
 20
-28.9732
 11
149.044
 21
-28.8442
  0
LINE
  8
0
 10
149.044
 20
-28.8442
 11
149.196
 21
-28.7335
  0
LINE
  8
0
 10
149.196
 20
-28.7335
 11
149.361
 21
-28.6427
  0
LINE
  8
0
 10
149.361
 20
-28.6427
 11
149.536
 21
-28.5734
  0
LINE
  8
0
 10
149.536
 20
-28.5734
 11
149.719
 21
-28.5266
  0
LINE
  8
0
 10
149.719
 20
-28.5266
 11
149.906
 21
-28.503
  0
LINE
  8
0
 10
149.906
 20
-28.503
 11
150.094
 21
-28.503
  0
LINE
  8
0
 10
150.094
 20
-28.503
 11
150.281
 21
-28.5266
  0
LINE
  8
0
 10
150.281
 20
-28.5266
 11
150.464
 21
-28.5734
  0
LINE
  8
0
 10
150.464
 20
-28.5734
 11
150.639
 21
-28.6427
  0
LINE
  8
0
 10
150.639
 20
-28.6427
 11
150.804
 21
-28.7335
  0
LINE
  8
0
 10
150.804
 20
-28.7335
 11
150.956
 21
-28.8442
  0
LINE
  8
0
 10
150.956
 20
-28.8442
 11
151.093
 21
-28.9732
  0
LINE
  8
0
 10
151.093
 20
-28.9732
 11
151.214
 21
-29.1183
  0
LINE
  8
0
 10
151.214
 20
-29.1183
 11
151.314
 21
-29.2774
  0
LINE
  8
0
 10
151.314
 20
-29.2774
 11
151.395
 21
-29.4478
  0
LINE
  8
0
 10
151.395
 20
-29.4478
 11
151.453
 21
-29.627
  0
LINE
  8
0
 10
151.453
 20
-29.627
 11
151.488
 21
-29.812
  0
LINE
  8
0
 10
151.488
 20
-29.812
 11
151.5
 21
-30
  0
LINE
  8
0
 10
151.5
 20
-30
 11
151.488
 21
-30.188
  0
LINE
  8
0
 10
151.488
 20
-30.188
 11
151.453
 21
-30.373
  0
LINE
  8
0
 10
151.453
 20
-30.373
 11
151.395
 21
-30.5522
  0
LINE
  8
0
 10
151.395
 20
-30.5522
 11
151.314
 21
-30.7226
  0
LINE
  8
0
 10
151.314
 20
-30.7226
 11
151.214
 21
-30.8817
  0
LINE
  8
0
 10
151.214
 20
-30.8817
 11
151.093
 21
-31.0268
  0
LINE
  8
0
 10
151.093
 20
-31.0268
 11
150.956
 21
-31.1558
  0
LINE
  8
0
 10
150.956
 20
-31.1558
 11
150.804
 21
-31.2665
  0
LINE
  8
0
 10
150.804
 20
-31.2665
 11
150.639
 21
-31.3572
  0
LINE
  8
0
 10
150.639
 20
-31.3572
 11
150.464
 21
-31.4266
  0
LINE
  8
0
 10
150.464
 20
-31.4266
 11
150.281
 21
-31.4734
  0
LINE
  8
0
 10
150.281
 20
-31.4734
 11
150.094
 21
-31.497
  0
LINE
  8
0
 10
150.094
 20
-31.497
 11
149.906
 21
-31.497
  0
LINE
  8
0
 10
-150.094
 20
-31.497
 11
-150.281
 21
-31.4734
  0
LINE
  8
0
 10
-150.281
 20
-31.4734
 11
-150.464
 21
-31.4266
  0
LINE
  8
0
 10
-150.464
 20
-31.4266
 11
-150.639
 21
-31.3572
  0
LINE
  8
0
 10
-150.639
 20
-31.3572
 11
-150.804
 21
-31.2665
  0
LINE
  8
0
 10
-150.804
 20
-31.2665
 11
-150.956
 21
-31.1558
  0
LINE
  8
0
 10
-150.956
 20
-31.1558
 11
-151.093
 21
-31.0268
  0
LINE
  8
0
 10
-151.093
 20
-31.0268
 11
-151.214
 21
-30.8817
  0
LINE
  8
0
 10
-151.214
 20
-30.8817
 11
-151.314
 21
-30.7226
  0
LINE
  8
0
 10
-151.314
 20
-30.7226
 11
-151.395
 21
-30.5522
  0
LINE
  8
0
 10
-151.395
 20
-30.5522
 11
-151.453
 21
-30.373
  0
LINE
  8
0
 10
-151.453
 20
-30.373
 11
-151.488
 21
-30.188
  0
LINE
  8
0
 10
-151.488
 20
-30.188
 11
-151.5
 21
-30
  0
LINE
  8
0
 10
-151.5
 20
-30
 11
-151.488
 21
-29.812
  0
LINE
  8
0
 10
-151.488
 20
-29.812
 11
-151.453
 21
-29.627
  0
LINE
  8
0
 10
-151.453
 20
-29.627
 11
-151.395
 21
-29.4478
  0
LINE
  8
0
 10
-151.395
 20
-29.4478
 11
-151.314
 21
-29.2774
  0
LINE
  8
0
 10
-151.314
 20
-29.2774
 11
-151.214
 21
-29.1183
  0
LINE
  8
0
 10
-151.214
 20
-29.1183
 11
-151.093
 21
-28.9732
  0
LINE
  8
0
 10
-151.093
 20
-28.9732
 11
-150.956
 21
-28.8442
  0
LINE
  8
0
 10
-150.956
 20
-28.8442
 11
-150.804
 21
-28.7335
  0
LINE
  8
0
 10
-150.804
 20
-28.7335
 11
-150.639
 21
-28.6427
  0
LINE
  8
0
 10
-150.639
 20
-28.6427
 11
-150.464
 21
-28.5734
  0
LINE
  8
0
 10
-150.464
 20
-28.5734
 11
-150.281
 21
-28.5266
  0
LINE
  8
0
 10
-150.281
 20
-28.5266
 11
-150.094
 21
-28.503
  0
LINE
  8
0
 10
-150.094
 20
-28.503
 11
-149.906
 21
-28.503
  0
LINE
  8
0
 10
-149.906
 20
-28.503
 11
-149.719
 21
-28.5266
  0
LINE
  8
0
 10
-149.719
 20
-28.5266
 11
-149.536
 21
-28.5734
  0
LINE
  8
0
 10
-149.536
 20
-28.5734
 11
-149.361
 21
-28.6427
  0
LINE
  8
0
 10
-149.361
 20
-28.6427
 11
-149.196
 21
-28.7335
  0
LINE
  8
0
 10
-149.196
 20
-28.7335
 11
-149.044
 21
-28.8442
  0
LINE
  8
0
 10
-149.044
 20
-28.8442
 11
-148.907
 21
-28.9732
  0
LINE
  8
0
 10
-148.907
 20
-28.9732
 11
-148.786
 21
-29.1183
  0
LINE
  8
0
 10
-148.786
 20
-29.1183
 11
-148.686
 21
-29.2774
  0
LINE
  8
0
 10
-148.686
 20
-29.2774
 11
-148.605
 21
-29.4478
  0
LINE
  8
0
 10
-148.605
 20
-29.4478
 11
-148.547
 21
-29.627
  0
LINE
  8
0
 10
-148.547
 20
-29.627
 11
-148.512
 21
-29.812
  0
LINE
  8
0
 10
-148.512
 20
-29.812
 11
-148.5
 21
-30
  0
LINE
  8
0
 10
-148.5
 20
-30
 11
-148.512
 21
-30.188
  0
LINE
  8
0
 10
-148.512
 20
-30.188
 11
-148.547
 21
-30.373
  0
LINE
  8
0
 10
-148.547
 20
-30.373
 11
-148.605
 21
-30.5522
  0
LINE
  8
0
 10
-148.605
 20
-30.5522
 11
-148.686
 21
-30.7226
  0
LINE
  8
0
 10
-148.686
 20
-30.7226
 11
-148.786
 21
-30.8817
  0
LINE
  8
0
 10
-148.786
 20
-30.8817
 11
-148.907
 21
-31.0268
  0
LINE
  8
0
 10
-148.907
 20
-31.0268
 11
-149.044
 21
-31.1558
  0
LINE
  8
0
 10
-149.044
 20
-31.1558
 11
-149.196
 21
-31.2665
  0
LINE
  8
0
 10
-149.196
 20
-31.2665
 11
-149.361
 21
-31.3572
  0
LINE
  8
0
 10
-149.361
 20
-31.3572
 11
-149.536
 21
-31.4266
  0
LINE
  8
0
 10
-149.536
 20
-31.4266
 11
-149.719
 21
-31.4734
  0
LINE
  8
0
 10
-149.719
 20
-31.4734
 11
-149.906
 21
-31.497
  0
LINE
  8
0
 10
-149.906
 20
-31.497
 11
-150.094
 21
-31.497
  0
LINE
  8
0
 10
149.812
 20
-40.4941
 11
149.438
 21
-40.4469
  0
LINE
  8
0
 10
149.438
 20
-40.4469
 11
149.073
 21
-40.3532
  0
LINE
  8
0
 10
149.073
 20
-40.3532
 11
148.723
 21
-40.2145
  0
LINE
  8
0
 10
148.723
 20
-40.2145
 11
148.393
 21
-40.033
  0
LINE
  8
0
 10
148.393
 20
-40.033
 11
148.088
 21
-39.8115
  0
LINE
  8
0
 10
148.088
 20
-39.8115
 11
147.813
 21
-39.5536
  0
LINE
  8
0
 10
147.813
 20
-39.5536
 11
147.573
 21
-39.2634
  0
LINE
  8
0
 10
147.573
 20
-39.2634
 11
147.371
 21
-38.9453
  0
LINE
  8
0
 10
147.371
 20
-38.9453
 11
147.211
 21
-38.6044
  0
LINE
  8
0
 10
147.211
 20
-38.6044
 11
147.094
 21
-38.2461
  0
LINE
  8
0
 10
147.094
 20
-38.2461
 11
147.024
 21
-37.876
  0
LINE
  8
0
 10
147.024
 20
-37.876
 11
147
 21
-37.5
  0
LINE
  8
0
 10
147
 20
-37.5
 11
147.024
 21
-37.124
  0
LINE
  8
0
 10
147.024
 20
-37.124
 11
147.094
 21
-36.7539
  0
LINE
  8
0
 10
147.094
 20
-36.7539
 11
147.211
 21
-36.3956
  0
LINE
  8
0
 10
147.211
 20
-36.3956
 11
147.371
 21
-36.0547
  0
LINE
  8
0
 10
147.371
 20
-36.0547
 11
147.573
 21
-35.7366
  0
LINE
  8
0
 10
147.573
 20
-35.7366
 11
147.813
 21
-35.4464
  0
LINE
  8
0
 10
147.813
 20
-35.4464
 11
148.088
 21
-35.1885
  0
LINE
  8
0
 10
148.088
 20
-35.1885
 11
148.393
 21
-34.967
  0
LINE
  8
0
 10
148.393
 20
-34.967
 11
148.723
 21
-34.7855
  0
LINE
  8
0
 10
148.723
 20
-34.7855
 11
149.073
 21
-34.6468
  0
LINE
  8
0
 10
149.073
 20
-34.6468
 11
149.438
 21
-34.5531
  0
LINE
  8
0
 10
149.438
 20
-34.5531
 11
149.812
 21
-34.5059
  0
LINE
  8
0
 10
149.812
 20
-34.5059
 11
150.188
 21
-34.5059
  0
LINE
  8
0
 10
150.188
 20
-34.5059
 11
150.562
 21
-34.5531
  0
LINE
  8
0
 10
150.562
 20
-34.5531
 11
150.927
 21
-34.6468
  0
LINE
  8
0
 10
150.927
 20
-34.6468
 11
151.277
 21
-34.7855
  0
LINE
  8
0
 10
151.277
 20
-34.7855
 11
151.607
 21
-34.967
  0
LINE
  8
0
 10
151.607
 20
-34.967
 11
151.912
 21
-35.1885
  0
LINE
  8
0
 10
151.912
 20
-35.1885
 11
152.187
 21
-35.4464
  0
LINE
  8
0
 10
152.187
 20
-35.4464
 11
152.427
 21
-35.7366
  0
LINE
  8
0
 10
152.427
 20
-35.7366
 11
152.629
 21
-36.0547
  0
LINE
  8
0
 10
152.629
 20
-36.0547
 11
152.789
 21
-36.3956
  0
LINE
  8
0
 10
152.789
 20
-36.3956
 11
152.906
 21
-36.7539
  0
LINE
  8
0
 10
152.906
 20
-36.7539
 11
152.976
 21
-37.124
  0
LINE
  8
0
 10
152.976
 20
-37.124
 11
153
 21
-37.5
  0
LINE
  8
0
 10
153
 20
-37.5
 11
152.976
 21
-37.876
  0
LINE
  8
0
 10
152.976
 20
-37.876
 11
152.906
 21
-38.2461
  0
LINE
  8
0
 10
152.906
 20
-38.2461
 11
152.789
 21
-38.6044
  0
LINE
  8
0
 10
152.789
 20
-38.6044
 11
152.629
 21
-38.9453
  0
LINE
  8
0
 10
152.629
 20
-38.9453
 11
152.427
 21
-39.2634
  0
LINE
  8
0
 10
152.427
 20
-39.2634
 11
152.187
 21
-39.5536
  0
LINE
  8
0
 10
152.187
 20
-39.5536
 11
151.912
 21
-39.8115
  0
LINE
  8
0
 10
151.912
 20
-39.8115
 11
151.607
 21
-40.033
  0
LINE
  8
0
 10
151.607
 20
-40.033
 11
151.277
 21
-40.2145
  0
LINE
  8
0
 10
151.277
 20
-40.2145
 11
150.927
 21
-40.3532
  0
LINE
  8
0
 10
150.927
 20
-40.3532
 11
150.562
 21
-40.4469
  0
LINE
  8
0
 10
150.562
 20
-40.4469
 11
150.188
 21
-40.4941
  0
LINE
  8
0
 10
150.188
 20
-40.4941
 11
149.812
 21
-40.4941
  0
LINE
  8
0
 10
-150.188
 20
-40.4941
 11
-150.562
 21
-40.4469
  0
LINE
  8
0
 10
-150.562
 20
-40.4469
 11
-150.927
 21
-40.3532
  0
LINE
  8
0
 10
-150.927
 20
-40.3532
 11
-151.277
 21
-40.2145
  0
LINE
  8
0
 10
-151.277
 20
-40.2145
 11
-151.607
 21
-40.033
  0
LINE
  8
0
 10
-151.607
 20
-40.033
 11
-151.912
 21
-39.8115
  0
LINE
  8
0
 10
-151.912
 20
-39.8115
 11
-152.187
 21
-39.5536
  0
LINE
  8
0
 10
-152.187
 20
-39.5536
 11
-152.427
 21
-39.2634
  0
LINE
  8
0
 10
-152.427
 20
-39.2634
 11
-152.629
 21
-38.9453
  0
LINE
  8
0
 10
-152.629
 20
-38.9453
 11
-152.789
 21
-38.6044
  0
LINE
  8
0
 10
-152.789
 20
-38.6044
 11
-152.906
 21
-38.2461
  0
LINE
  8
0
 10
-152.906
 20
-38.2461
 11
-152.976
 21
-37.876
  0
LINE
  8
0
 10
-152.976
 20
-37.876
 11
-153
 21
-37.5
  0
LINE
  8
0
 10
-153
 20
-37.5
 11
-152.976
 21
-37.124
  0
LINE
  8
0
 10
-152.976
 20
-37.124
 11
-152.906
 21
-36.7539
  0
LINE
  8
0
 10
-152.906
 20
-36.7539
 11
-152.789
 21
-36.3956
  0
LINE
  8
0
 10
-152.789
 20
-36.3956
 11
-152.629
 21
-36.0547
  0
LINE
  8
0
 10
-152.629
 20
-36.0547
 11
-152.427
 21
-35.7366
  0
LINE
  8
0
 10
-152.427
 20
-35.7366
 11
-152.187
 21
-35.4464
  0
LINE
  8
0
 10
-152.187
 20
-35.4464
 11
-151.912
 21
-35.1885
  0
LINE
  8
0
 10
-151.912
 20
-35.1885
 11
-151.607
 21
-34.967
  0
LINE
  8
0
 10
-151.607
 20
-34.967
 11
-151.277
 21
-34.7855
  0
LINE
  8
0
 10
-151.277
 20
-34.7855
 11
-150.927
 21
-34.6468
  0
LINE
  8
0
 10
-150.927
 20
-34.6468
 11
-150.562
 21
-34.5531
  0
LINE
  8
0
 10
-150.562
 20
-34.5531
 11
-150.188
 21
-34.5059
  0
LINE
  8
0
 10
-150.188
 20
-34.5059
 11
-149.812
 21
-34.5059
  0
LINE
  8
0
 10
-149.812
 20
-34.5059
 11
-149.438
 21
-34.5531
  0
LINE
  8
0
 10
-149.438
 20
-34.5531
 11
-149.073
 21
-34.6468
  0
LINE
  8
0
 10
-149.073
 20
-34.6468
 11
-148.723
 21
-34.7855
  0
LINE
  8
0
 10
-148.723
 20
-34.7855
 11
-148.393
 21
-34.967
  0
LINE
  8
0
 10
-148.393
 20
-34.967
 11
-148.088
 21
-35.1885
  0
LINE
  8
0
 10
-148.088
 20
-35.1885
 11
-147.813
 21
-35.4464
  0
LINE
  8
0
 10
-147.813
 20
-35.4464
 11
-147.573
 21
-35.7366
  0
LINE
  8
0
 10
-147.573
 20
-35.7366
 11
-147.371
 21
-36.0547
  0
LINE
  8
0
 10
-147.371
 20
-36.0547
 11
-147.211
 21
-36.3956
  0
LINE
  8
0
 10
-147.211
 20
-36.3956
 11
-147.094
 21
-36.7539
  0
LINE
  8
0
 10
-147.094
 20
-36.7539
 11
-147.024
 21
-37.124
  0
LINE
  8
0
 10
-147.024
 20
-37.124
 11
-147
 21
-37.5
  0
LINE
  8
0
 10
-147
 20
-37.5
 11
-147.024
 21
-37.876
  0
LINE
  8
0
 10
-147.024
 20
-37.876
 11
-147.094
 21
-38.2461
  0
LINE
  8
0
 10
-147.094
 20
-38.2461
 11
-147.211
 21
-38.6044
  0
LINE
  8
0
 10
-147.211
 20
-38.6044
 11
-147.371
 21
-38.9453
  0
LINE
  8
0
 10
-147.371
 20
-38.9453
 11
-147.573
 21
-39.2634
  0
LINE
  8
0
 10
-147.573
 20
-39.2634
 11
-147.813
 21
-39.5536
  0
LINE
  8
0
 10
-147.813
 20
-39.5536
 11
-148.088
 21
-39.8115
  0
LINE
  8
0
 10
-148.088
 20
-39.8115
 11
-148.393
 21
-40.033
  0
LINE
  8
0
 10
-148.393
 20
-40.033
 11
-148.723
 21
-40.2145
  0
LINE
  8
0
 10
-148.723
 20
-40.2145
 11
-149.073
 21
-40.3532
  0
LINE
  8
0
 10
-149.073
 20
-40.3532
 11
-149.438
 21
-40.4469
  0
LINE
  8
0
 10
-149.438
 20
-40.4469
 11
-149.812
 21
-40.4941
  0
LINE
  8
0
 10
-149.812
 20
-40.4941
 11
-150.188
 21
-40.4941
  0
LINE
  8
0
 10
149.906
 20
-46.497
 11
149.719
 21
-46.4734
  0
LINE
  8
0
 10
149.719
 20
-46.4734
 11
149.536
 21
-46.4266
  0
LINE
  8
0
 10
149.536
 20
-46.4266
 11
149.361
 21
-46.3572
  0
LINE
  8
0
 10
149.361
 20
-46.3572
 11
149.196
 21
-46.2665
  0
LINE
  8
0
 10
149.196
 20
-46.2665
 11
149.044
 21
-46.1558
  0
LINE
  8
0
 10
149.044
 20
-46.1558
 11
148.907
 21
-46.0268
  0
LINE
  8
0
 10
148.907
 20
-46.0268
 11
148.786
 21
-45.8817
  0
LINE
  8
0
 10
148.786
 20
-45.8817
 11
148.686
 21
-45.7226
  0
LINE
  8
0
 10
148.686
 20
-45.7226
 11
148.605
 21
-45.5522
  0
LINE
  8
0
 10
148.605
 20
-45.5522
 11
148.547
 21
-45.373
  0
LINE
  8
0
 10
148.547
 20
-45.373
 11
148.512
 21
-45.188
  0
LINE
  8
0
 10
148.512
 20
-45.188
 11
148.5
 21
-45
  0
LINE
  8
0
 10
148.5
 20
-45
 11
148.512
 21
-44.812
  0
LINE
  8
0
 10
148.512
 20
-44.812
 11
148.547
 21
-44.627
  0
LINE
  8
0
 10
148.547
 20
-44.627
 11
148.605
 21
-44.4478
  0
LINE
  8
0
 10
148.605
 20
-44.4478
 11
148.686
 21
-44.2774
  0
LINE
  8
0
 10
148.686
 20
-44.2774
 11
148.786
 21
-44.1183
  0
LINE
  8
0
 10
148.786
 20
-44.1183
 11
148.907
 21
-43.9732
  0
LINE
  8
0
 10
148.907
 20
-43.9732
 11
149.044
 21
-43.8442
  0
LINE
  8
0
 10
149.044
 20
-43.8442
 11
149.196
 21
-43.7335
  0
LINE
  8
0
 10
149.196
 20
-43.7335
 11
149.361
 21
-43.6428
  0
LINE
  8
0
 10
149.361
 20
-43.6428
 11
149.536
 21
-43.5734
  0
LINE
  8
0
 10
149.536
 20
-43.5734
 11
149.719
 21
-43.5266
  0
LINE
  8
0
 10
149.719
 20
-43.5266
 11
149.906
 21
-43.503
  0
LINE
  8
0
 10
149.906
 20
-43.503
 11
150.094
 21
-43.503
  0
LINE
  8
0
 10
150.094
 20
-43.503
 11
150.281
 21
-43.5266
  0
LINE
  8
0
 10
150.281
 20
-43.5266
 11
150.464
 21
-43.5734
  0
LINE
  8
0
 10
150.464
 20
-43.5734
 11
150.639
 21
-43.6428
  0
LINE
  8
0
 10
150.639
 20
-43.6428
 11
150.804
 21
-43.7335
  0
LINE
  8
0
 10
150.804
 20
-43.7335
 11
150.956
 21
-43.8442
  0
LINE
  8
0
 10
150.956
 20
-43.8442
 11
151.093
 21
-43.9732
  0
LINE
  8
0
 10
151.093
 20
-43.9732
 11
151.214
 21
-44.1183
  0
LINE
  8
0
 10
151.214
 20
-44.1183
 11
151.314
 21
-44.2774
  0
LINE
  8
0
 10
151.314
 20
-44.2774
 11
151.395
 21
-44.4478
  0
LINE
  8
0
 10
151.395
 20
-44.4478
 11
151.453
 21
-44.627
  0
LINE
  8
0
 10
151.453
 20
-44.627
 11
151.488
 21
-44.812
  0
LINE
  8
0
 10
151.488
 20
-44.812
 11
151.5
 21
-45
  0
LINE
  8
0
 10
151.5
 20
-45
 11
151.488
 21
-45.188
  0
LINE
  8
0
 10
151.488
 20
-45.188
 11
151.453
 21
-45.373
  0
LINE
  8
0
 10
151.453
 20
-45.373
 11
151.395
 21
-45.5522
  0
LINE
  8
0
 10
151.395
 20
-45.5522
 11
151.314
 21
-45.7226
  0
LINE
  8
0
 10
151.314
 20
-45.7226
 11
151.214
 21
-45.8817
  0
LINE
  8
0
 10
151.214
 20
-45.8817
 11
151.093
 21
-46.0268
  0
LINE
  8
0
 10
151.093
 20
-46.0268
 11
150.956
 21
-46.1558
  0
LINE
  8
0
 10
150.956
 20
-46.1558
 11
150.804
 21
-46.2665
  0
LINE
  8
0
 10
150.804
 20
-46.2665
 11
150.639
 21
-46.3572
  0
LINE
  8
0
 10
150.639
 20
-46.3572
 11
150.464
 21
-46.4266
  0
LINE
  8
0
 10
150.464
 20
-46.4266
 11
150.281
 21
-46.4734
  0
LINE
  8
0
 10
150.281
 20
-46.4734
 11
150.094
 21
-46.497
  0
LINE
  8
0
 10
150.094
 20
-46.497
 11
149.906
 21
-46.497
  0
LINE
  8
0
 10
-150.094
 20
-46.497
 11
-150.281
 21
-46.4734
  0
LINE
  8
0
 10
-150.281
 20
-46.4734
 11
-150.464
 21
-46.4266
  0
LINE
  8
0
 10
-150.464
 20
-46.4266
 11
-150.639
 21
-46.3572
  0
LINE
  8
0
 10
-150.639
 20
-46.3572
 11
-150.804
 21
-46.2665
  0
LINE
  8
0
 10
-150.804
 20
-46.2665
 11
-150.956
 21
-46.1558
  0
LINE
  8
0
 10
-150.956
 20
-46.1558
 11
-151.093
 21
-46.0268
  0
LINE
  8
0
 10
-151.093
 20
-46.0268
 11
-151.214
 21
-45.8817
  0
LINE
  8
0
 10
-151.214
 20
-45.8817
 11
-151.314
 21
-45.7226
  0
LINE
  8
0
 10
-151.314
 20
-45.7226
 11
-151.395
 21
-45.5522
  0
LINE
  8
0
 10
-151.395
 20
-45.5522
 11
-151.453
 21
-45.373
  0
LINE
  8
0
 10
-151.453
 20
-45.373
 11
-151.488
 21
-45.188
  0
LINE
  8
0
 10
-151.488
 20
-45.188
 11
-151.5
 21
-45
  0
LINE
  8
0
 10
-151.5
 20
-45
 11
-151.488
 21
-44.812
  0
LINE
  8
0
 10
-151.488
 20
-44.812
 11
-151.453
 21
-44.627
  0
LINE
  8
0
 10
-151.453
 20
-44.627
 11
-151.395
 21
-44.4478
  0
LINE
  8
0
 10
-151.395
 20
-44.4478
 11
-151.314
 21
-44.2774
  0
LINE
  8
0
 10
-151.314
 20
-44.2774
 11
-151.214
 21
-44.1183
  0
LINE
  8
0
 10
-151.214
 20
-44.1183
 11
-151.093
 21
-43.9732
  0
LINE
  8
0
 10
-151.093
 20
-43.9732
 11
-150.956
 21
-43.8442
  0
LINE
  8
0
 10
-150.956
 20
-43.8442
 11
-150.804
 21
-43.7335
  0
LINE
  8
0
 10
-150.804
 20
-43.7335
 11
-150.639
 21
-43.6428
  0
LINE
  8
0
 10
-150.639
 20
-43.6428
 11
-150.464
 21
-43.5734
  0
LINE
  8
0
 10
-150.464
 20
-43.5734
 11
-150.281
 21
-43.5266
  0
LINE
  8
0
 10
-150.281
 20
-43.5266
 11
-150.094
 21
-43.503
  0
LINE
  8
0
 10
-150.094
 20
-43.503
 11
-149.906
 21
-43.503
  0
LINE
  8
0
 10
-149.906
 20
-43.503
 11
-149.719
 21
-43.5266
  0
LINE
  8
0
 10
-149.719
 20
-43.5266
 11
-149.536
 21
-43.5734
  0
LINE
  8
0
 10
-149.536
 20
-43.5734
 11
-149.361
 21
-43.6428
  0
LINE
  8
0
 10
-149.361
 20
-43.6428
 11
-149.196
 21
-43.7335
  0
LINE
  8
0
 10
-149.196
 20
-43.7335
 11
-149.044
 21
-43.8442
  0
LINE
  8
0
 10
-149.044
 20
-43.8442
 11
-148.907
 21
-43.9732
  0
LINE
  8
0
 10
-148.907
 20
-43.9732
 11
-148.786
 21
-44.1183
  0
LINE
  8
0
 10
-148.786
 20
-44.1183
 11
-148.686
 21
-44.2774
  0
LINE
  8
0
 10
-148.686
 20
-44.2774
 11
-148.605
 21
-44.4478
  0
LINE
  8
0
 10
-148.605
 20
-44.4478
 11
-148.547
 21
-44.627
  0
LINE
  8
0
 10
-148.547
 20
-44.627
 11
-148.512
 21
-44.812
  0
LINE
  8
0
 10
-148.512
 20
-44.812
 11
-148.5
 21
-45
  0
LINE
  8
0
 10
-148.5
 20
-45
 11
-148.512
 21
-45.188
  0
LINE
  8
0
 10
-148.512
 20
-45.188
 11
-148.547
 21
-45.373
  0
LINE
  8
0
 10
-148.547
 20
-45.373
 11
-148.605
 21
-45.5522
  0
LINE
  8
0
 10
-148.605
 20
-45.5522
 11
-148.686
 21
-45.7226
  0
LINE
  8
0
 10
-148.686
 20
-45.7226
 11
-148.786
 21
-45.8817
  0
LINE
  8
0
 10
-148.786
 20
-45.8817
 11
-148.907
 21
-46.0268
  0
LINE
  8
0
 10
-148.907
 20
-46.0268
 11
-149.044
 21
-46.1558
  0
LINE
  8
0
 10
-149.044
 20
-46.1558
 11
-149.196
 21
-46.2665
  0
LINE
  8
0
 10
-149.196
 20
-46.2665
 11
-149.361
 21
-46.3572
  0
LINE
  8
0
 10
-149.361
 20
-46.3572
 11
-149.536
 21
-46.4266
  0
LINE
  8
0
 10
-149.536
 20
-46.4266
 11
-149.719
 21
-46.4734
  0
LINE
  8
0
 10
-149.719
 20
-46.4734
 11
-149.906
 21
-46.497
  0
LINE
  8
0
 10
-149.906
 20
-46.497
 11
-150.094
 21
-46.497
  0
LINE
  8
0
 10
149.812
 20
-55.4941
 11
149.438
 21
-55.4469
  0
LINE
  8
0
 10
149.438
 20
-55.4469
 11
149.073
 21
-55.3532
  0
LINE
  8
0
 10
149.073
 20
-55.3532
 11
148.723
 21
-55.2145
  0
LINE
  8
0
 10
148.723
 20
-55.2145
 11
148.393
 21
-55.033
  0
LINE
  8
0
 10
148.393
 20
-55.033
 11
148.088
 21
-54.8115
  0
LINE
  8
0
 10
148.088
 20
-54.8115
 11
147.813
 21
-54.5536
  0
LINE
  8
0
 10
147.813
 20
-54.5536
 11
147.573
 21
-54.2634
  0
LINE
  8
0
 10
147.573
 20
-54.2634
 11
147.371
 21
-53.9453
  0
LINE
  8
0
 10
147.371
 20
-53.9453
 11
147.211
 21
-53.6044
  0
LINE
  8
0
 10
147.211
 20
-53.6044
 11
147.094
 21
-53.2461
  0
LINE
  8
0
 10
147.094
 20
-53.2461
 11
147.024
 21
-52.876
  0
LINE
  8
0
 10
147.024
 20
-52.876
 11
147
 21
-52.5
  0
LINE
  8
0
 10
147
 20
-52.5
 11
147.024
 21
-52.124
  0
LINE
  8
0
 10
147.024
 20
-52.124
 11
147.094
 21
-51.7539
  0
LINE
  8
0
 10
147.094
 20
-51.7539
 11
147.211
 21
-51.3956
  0
LINE
  8
0
 10
147.211
 20
-51.3956
 11
147.371
 21
-51.0547
  0
LINE
  8
0
 10
147.371
 20
-51.0547
 11
147.573
 21
-50.7366
  0
LINE
  8
0
 10
147.573
 20
-50.7366
 11
147.813
 21
-50.4464
  0
LINE
  8
0
 10
147.813
 20
-50.4464
 11
148.088
 21
-50.1885
  0
LINE
  8
0
 10
148.088
 20
-50.1885
 11
148.393
 21
-49.967
  0
LINE
  8
0
 10
148.393
 20
-49.967
 11
148.723
 21
-49.7855
  0
LINE
  8
0
 10
148.723
 20
-49.7855
 11
149.073
 21
-49.6468
  0
LINE
  8
0
 10
149.073
 20
-49.6468
 11
149.438
 21
-49.5531
  0
LINE
  8
0
 10
149.438
 20
-49.5531
 11
149.812
 21
-49.5059
  0
LINE
  8
0
 10
149.812
 20
-49.5059
 11
150.188
 21
-49.5059
  0
LINE
  8
0
 10
150.188
 20
-49.5059
 11
150.562
 21
-49.5531
  0
LINE
  8
0
 10
150.562
 20
-49.5531
 11
150.927
 21
-49.6468
  0
LINE
  8
0
 10
150.927
 20
-49.6468
 11
151.277
 21
-49.7855
  0
LINE
  8
0
 10
151.277
 20
-49.7855
 11
151.607
 21
-49.967
  0
LINE
  8
0
 10
151.607
 20
-49.967
 11
151.912
 21
-50.1885
  0
LINE
  8
0
 10
151.912
 20
-50.1885
 11
152.187
 21
-50.4464
  0
LINE
  8
0
 10
152.187
 20
-50.4464
 11
152.427
 21
-50.7366
  0
LINE
  8
0
 10
152.427
 20
-50.7366
 11
152.629
 21
-51.0547
  0
LINE
  8
0
 10
152.629
 20
-51.0547
 11
152.789
 21
-51.3956
  0
LINE
  8
0
 10
152.789
 20
-51.3956
 11
152.906
 21
-51.7539
  0
LINE
  8
0
 10
152.906
 20
-51.7539
 11
152.976
 21
-52.124
  0
LINE
  8
0
 10
152.976
 20
-52.124
 11
153
 21
-52.5
  0
LINE
  8
0
 10
153
 20
-52.5
 11
152.976
 21
-52.876
  0
LINE
  8
0
 10
152.976
 20
-52.876
 11
152.906
 21
-53.2461
  0
LINE
  8
0
 10
152.906
 20
-53.2461
 11
152.789
 21
-53.6044
  0
LINE
  8
0
 10
152.789
 20
-53.6044
 11
152.629
 21
-53.9453
  0
LINE
  8
0
 10
152.629
 20
-53.9453
 11
152.427
 21
-54.2634
  0
LINE
  8
0
 10
152.427
 20
-54.2634
 11
152.187
 21
-54.5536
  0
LINE
  8
0
 10
152.187
 20
-54.5536
 11
151.912
 21
-54.8115
  0
LINE
  8
0
 10
151.912
 20
-54.8115
 11
151.607
 21
-55.033
  0
LINE
  8
0
 10
151.607
 20
-55.033
 11
151.277
 21
-55.2145
  0
LINE
  8
0
 10
151.277
 20
-55.2145
 11
150.927
 21
-55.3532
  0
LINE
  8
0
 10
150.927
 20
-55.3532
 11
150.562
 21
-55.4469
  0
LINE
  8
0
 10
150.562
 20
-55.4469
 11
150.188
 21
-55.4941
  0
LINE
  8
0
 10
150.188
 20
-55.4941
 11
149.812
 21
-55.4941
  0
LINE
  8
0
 10
-150.188
 20
-55.4941
 11
-150.562
 21
-55.4469
  0
LINE
  8
0
 10
-150.562
 20
-55.4469
 11
-150.927
 21
-55.3532
  0
LINE
  8
0
 10
-150.927
 20
-55.3532
 11
-151.277
 21
-55.2145
  0
LINE
  8
0
 10
-151.277
 20
-55.2145
 11
-151.607
 21
-55.033
  0
LINE
  8
0
 10
-151.607
 20
-55.033
 11
-151.912
 21
-54.8115
  0
LINE
  8
0
 10
-151.912
 20
-54.8115
 11
-152.187
 21
-54.5536
  0
LINE
  8
0
 10
-152.187
 20
-54.5536
 11
-152.427
 21
-54.2634
  0
LINE
  8
0
 10
-152.427
 20
-54.2634
 11
-152.629
 21
-53.9453
  0
LINE
  8
0
 10
-152.629
 20
-53.9453
 11
-152.789
 21
-53.6044
  0
LINE
  8
0
 10
-152.789
 20
-53.6044
 11
-152.906
 21
-53.2461
  0
LINE
  8
0
 10
-152.906
 20
-53.2461
 11
-152.976
 21
-52.876
  0
LINE
  8
0
 10
-152.976
 20
-52.876
 11
-153
 21
-52.5
  0
LINE
  8
0
 10
-153
 20
-52.5
 11
-152.976
 21
-52.124
  0
LINE
  8
0
 10
-152.976
 20
-52.124
 11
-152.906
 21
-51.7539
  0
LINE
  8
0
 10
-152.906
 20
-51.7539
 11
-152.789
 21
-51.3956
  0
LINE
  8
0
 10
-152.789
 20
-51.3956
 11
-152.629
 21
-51.0547
  0
LINE
  8
0
 10
-152.629
 20
-51.0547
 11
-152.427
 21
-50.7366
  0
LINE
  8
0
 10
-152.427
 20
-50.7366
 11
-152.187
 21
-50.4464
  0
LINE
  8
0
 10
-152.187
 20
-50.4464
 11
-151.912
 21
-50.1885
  0
LINE
  8
0
 10
-151.912
 20
-50.1885
 11
-151.607
 21
-49.967
  0
LINE
  8
0
 10
-151.607
 20
-49.967
 11
-151.277
 21
-49.7855
  0
LINE
  8
0
 10
-151.277
 20
-49.7855
 11
-150.927
 21
-49.6468
  0
LINE
  8
0
 10
-150.927
 20
-49.6468
 11
-150.562
 21
-49.5531
  0
LINE
  8
0
 10
-150.562
 20
-49.5531
 11
-150.188
 21
-49.5059
  0
LINE
  8
0
 10
-150.188
 20
-49.5059
 11
-149.812
 21
-49.5059
  0
LINE
  8
0
 10
-149.812
 20
-49.5059
 11
-149.438
 21
-49.5531
  0
LINE
  8
0
 10
-149.438
 20
-49.5531
 11
-149.073
 21
-49.6468
  0
LINE
  8
0
 10
-149.073
 20
-49.6468
 11
-148.723
 21
-49.7855
  0
LINE
  8
0
 10
-148.723
 20
-49.7855
 11
-148.393
 21
-49.967
  0
LINE
  8
0
 10
-148.393
 20
-49.967
 11
-148.088
 21
-50.1885
  0
LINE
  8
0
 10
-148.088
 20
-50.1885
 11
-147.813
 21
-50.4464
  0
LINE
  8
0
 10
-147.813
 20
-50.4464
 11
-147.573
 21
-50.7366
  0
LINE
  8
0
 10
-147.573
 20
-50.7366
 11
-147.371
 21
-51.0547
  0
LINE
  8
0
 10
-147.371
 20
-51.0547
 11
-147.211
 21
-51.3956
  0
LINE
  8
0
 10
-147.211
 20
-51.3956
 11
-147.094
 21
-51.7539
  0
LINE
  8
0
 10
-147.094
 20
-51.7539
 11
-147.024
 21
-52.124
  0
LINE
  8
0
 10
-147.024
 20
-52.124
 11
-147
 21
-52.5
  0
LINE
  8
0
 10
-147
 20
-52.5
 11
-147.024
 21
-52.876
  0
LINE
  8
0
 10
-147.024
 20
-52.876
 11
-147.094
 21
-53.2461
  0
LINE
  8
0
 10
-147.094
 20
-53.2461
 11
-147.211
 21
-53.6044
  0
LINE
  8
0
 10
-147.211
 20
-53.6044
 11
-147.371
 21
-53.9453
  0
LINE
  8
0
 10
-147.371
 20
-53.9453
 11
-147.573
 21
-54.2634
  0
LINE
  8
0
 10
-147.573
 20
-54.2634
 11
-147.813
 21
-54.5536
  0
LINE
  8
0
 10
-147.813
 20
-54.5536
 11
-148.088
 21
-54.8115
  0
LINE
  8
0
 10
-148.088
 20
-54.8115
 11
-148.393
 21
-55.033
  0
LINE
  8
0
 10
-148.393
 20
-55.033
 11
-148.723
 21
-55.2145
  0
LINE
  8
0
 10
-148.723
 20
-55.2145
 11
-149.073
 21
-55.3532
  0
LINE
  8
0
 10
-149.073
 20
-55.3532
 11
-149.438
 21
-55.4469
  0
LINE
  8
0
 10
-149.438
 20
-55.4469
 11
-149.812
 21
-55.4941
  0
LINE
  8
0
 10
-149.812
 20
-55.4941
 11
-150.188
 21
-55.4941
  0
LINE
  8
0
 10
-150.094
 20
-61.497
 11
-150.281
 21
-61.4734
  0
LINE
  8
0
 10
-150.281
 20
-61.4734
 11
-150.464
 21
-61.4266
  0
LINE
  8
0
 10
-150.464
 20
-61.4266
 11
-150.639
 21
-61.3572
  0
LINE
  8
0
 10
-150.639
 20
-61.3572
 11
-150.804
 21
-61.2665
  0
LINE
  8
0
 10
-150.804
 20
-61.2665
 11
-150.956
 21
-61.1558
  0
LINE
  8
0
 10
-150.956
 20
-61.1558
 11
-151.093
 21
-61.0268
  0
LINE
  8
0
 10
-151.093
 20
-61.0268
 11
-151.214
 21
-60.8817
  0
LINE
  8
0
 10
-151.214
 20
-60.8817
 11
-151.314
 21
-60.7226
  0
LINE
  8
0
 10
-151.314
 20
-60.7226
 11
-151.395
 21
-60.5522
  0
LINE
  8
0
 10
-151.395
 20
-60.5522
 11
-151.453
 21
-60.373
  0
LINE
  8
0
 10
-151.453
 20
-60.373
 11
-151.488
 21
-60.188
  0
LINE
  8
0
 10
-151.488
 20
-60.188
 11
-151.5
 21
-60
  0
LINE
  8
0
 10
-151.5
 20
-60
 11
-151.488
 21
-59.812
  0
LINE
  8
0
 10
-151.488
 20
-59.812
 11
-151.453
 21
-59.627
  0
LINE
  8
0
 10
-151.453
 20
-59.627
 11
-151.395
 21
-59.4478
  0
LINE
  8
0
 10
-151.395
 20
-59.4478
 11
-151.314
 21
-59.2774
  0
LINE
  8
0
 10
-151.314
 20
-59.2774
 11
-151.214
 21
-59.1183
  0
LINE
  8
0
 10
-151.214
 20
-59.1183
 11
-151.093
 21
-58.9732
  0
LINE
  8
0
 10
-151.093
 20
-58.9732
 11
-150.956
 21
-58.8442
  0
LINE
  8
0
 10
-150.956
 20
-58.8442
 11
-150.804
 21
-58.7335
  0
LINE
  8
0
 10
-150.804
 20
-58.7335
 11
-150.639
 21
-58.6428
  0
LINE
  8
0
 10
-150.639
 20
-58.6428
 11
-150.464
 21
-58.5734
  0
LINE
  8
0
 10
-150.464
 20
-58.5734
 11
-150.281
 21
-58.5266
  0
LINE
  8
0
 10
-150.281
 20
-58.5266
 11
-150.094
 21
-58.503
  0
LINE
  8
0
 10
-150.094
 20
-58.503
 11
-149.906
 21
-58.503
  0
LINE
  8
0
 10
-149.906
 20
-58.503
 11
-149.719
 21
-58.5266
  0
LINE
  8
0
 10
-149.719
 20
-58.5266
 11
-149.536
 21
-58.5734
  0
LINE
  8
0
 10
-149.536
 20
-58.5734
 11
-149.361
 21
-58.6428
  0
LINE
  8
0
 10
-149.361
 20
-58.6428
 11
-149.196
 21
-58.7335
  0
LINE
  8
0
 10
-149.196
 20
-58.7335
 11
-149.044
 21
-58.8442
  0
LINE
  8
0
 10
-149.044
 20
-58.8442
 11
-148.907
 21
-58.9732
  0
LINE
  8
0
 10
-148.907
 20
-58.9732
 11
-148.786
 21
-59.1183
  0
LINE
  8
0
 10
-148.786
 20
-59.1183
 11
-148.686
 21
-59.2774
  0
LINE
  8
0
 10
-148.686
 20
-59.2774
 11
-148.605
 21
-59.4478
  0
LINE
  8
0
 10
-148.605
 20
-59.4478
 11
-148.547
 21
-59.627
  0
LINE
  8
0
 10
-148.547
 20
-59.627
 11
-148.512
 21
-59.812
  0
LINE
  8
0
 10
-148.512
 20
-59.812
 11
-148.5
 21
-60
  0
LINE
  8
0
 10
-148.5
 20
-60
 11
-148.512
 21
-60.188
  0
LINE
  8
0
 10
-148.512
 20
-60.188
 11
-148.547
 21
-60.373
  0
LINE
  8
0
 10
-148.547
 20
-60.373
 11
-148.605
 21
-60.5522
  0
LINE
  8
0
 10
-148.605
 20
-60.5522
 11
-148.686
 21
-60.7226
  0
LINE
  8
0
 10
-148.686
 20
-60.7226
 11
-148.786
 21
-60.8817
  0
LINE
  8
0
 10
-148.786
 20
-60.8817
 11
-148.907
 21
-61.0268
  0
LINE
  8
0
 10
-148.907
 20
-61.0268
 11
-149.044
 21
-61.1558
  0
LINE
  8
0
 10
-149.044
 20
-61.1558
 11
-149.196
 21
-61.2665
  0
LINE
  8
0
 10
-149.196
 20
-61.2665
 11
-149.361
 21
-61.3572
  0
LINE
  8
0
 10
-149.361
 20
-61.3572
 11
-149.536
 21
-61.4266
  0
LINE
  8
0
 10
-149.536
 20
-61.4266
 11
-149.719
 21
-61.4734
  0
LINE
  8
0
 10
-149.719
 20
-61.4734
 11
-149.906
 21
-61.497
  0
LINE
  8
0
 10
-149.906
 20
-61.497
 11
-150.094
 21
-61.497
  0
LINE
  8
0
 10
149.906
 20
-61.497
 11
149.719
 21
-61.4734
  0
LINE
  8
0
 10
149.719
 20
-61.4734
 11
149.536
 21
-61.4266
  0
LINE
  8
0
 10
149.536
 20
-61.4266
 11
149.361
 21
-61.3572
  0
LINE
  8
0
 10
149.361
 20
-61.3572
 11
149.196
 21
-61.2665
  0
LINE
  8
0
 10
149.196
 20
-61.2665
 11
149.044
 21
-61.1558
  0
LINE
  8
0
 10
149.044
 20
-61.1558
 11
148.907
 21
-61.0268
  0
LINE
  8
0
 10
148.907
 20
-61.0268
 11
148.786
 21
-60.8817
  0
LINE
  8
0
 10
148.786
 20
-60.8817
 11
148.686
 21
-60.7226
  0
LINE
  8
0
 10
148.686
 20
-60.7226
 11
148.605
 21
-60.5522
  0
LINE
  8
0
 10
148.605
 20
-60.5522
 11
148.547
 21
-60.373
  0
LINE
  8
0
 10
148.547
 20
-60.373
 11
148.512
 21
-60.188
  0
LINE
  8
0
 10
148.512
 20
-60.188
 11
148.5
 21
-60
  0
LINE
  8
0
 10
148.5
 20
-60
 11
148.512
 21
-59.812
  0
LINE
  8
0
 10
148.512
 20
-59.812
 11
148.547
 21
-59.627
  0
LINE
  8
0
 10
148.547
 20
-59.627
 11
148.605
 21
-59.4478
  0
LINE
  8
0
 10
148.605
 20
-59.4478
 11
148.686
 21
-59.2774
  0
LINE
  8
0
 10
148.686
 20
-59.2774
 11
148.786
 21
-59.1183
  0
LINE
  8
0
 10
148.786
 20
-59.1183
 11
148.907
 21
-58.9732
  0
LINE
  8
0
 10
148.907
 20
-58.9732
 11
149.044
 21
-58.8442
  0
LINE
  8
0
 10
149.044
 20
-58.8442
 11
149.196
 21
-58.7335
  0
LINE
  8
0
 10
149.196
 20
-58.7335
 11
149.361
 21
-58.6428
  0
LINE
  8
0
 10
149.361
 20
-58.6428
 11
149.536
 21
-58.5734
  0
LINE
  8
0
 10
149.536
 20
-58.5734
 11
149.719
 21
-58.5266
  0
LINE
  8
0
 10
149.719
 20
-58.5266
 11
149.906
 21
-58.503
  0
LINE
  8
0
 10
149.906
 20
-58.503
 11
150.094
 21
-58.503
  0
LINE
  8
0
 10
150.094
 20
-58.503
 11
150.281
 21
-58.5266
  0
LINE
  8
0
 10
150.281
 20
-58.5266
 11
150.464
 21
-58.5734
  0
LINE
  8
0
 10
150.464
 20
-58.5734
 11
150.639
 21
-58.6428
  0
LINE
  8
0
 10
150.639
 20
-58.6428
 11
150.804
 21
-58.7335
  0
LINE
  8
0
 10
150.804
 20
-58.7335
 11
150.956
 21
-58.8442
  0
LINE
  8
0
 10
150.956
 20
-58.8442
 11
151.093
 21
-58.9732
  0
LINE
  8
0
 10
151.093
 20
-58.9732
 11
151.214
 21
-59.1183
  0
LINE
  8
0
 10
151.214
 20
-59.1183
 11
151.314
 21
-59.2774
  0
LINE
  8
0
 10
151.314
 20
-59.2774
 11
151.395
 21
-59.4478
  0
LINE
  8
0
 10
151.395
 20
-59.4478
 11
151.453
 21
-59.627
  0
LINE
  8
0
 10
151.453
 20
-59.627
 11
151.488
 21
-59.812
  0
LINE
  8
0
 10
151.488
 20
-59.812
 11
151.5
 21
-60
  0
LINE
  8
0
 10
151.5
 20
-60
 11
151.488
 21
-60.188
  0
LINE
  8
0
 10
151.488
 20
-60.188
 11
151.453
 21
-60.373
  0
LINE
  8
0
 10
151.453
 20
-60.373
 11
151.395
 21
-60.5522
  0
LINE
  8
0
 10
151.395
 20
-60.5522
 11
151.314
 21
-60.7226
  0
LINE
  8
0
 10
151.314
 20
-60.7226
 11
151.214
 21
-60.8817
  0
LINE
  8
0
 10
151.214
 20
-60.8817
 11
151.093
 21
-61.0268
  0
LINE
  8
0
 10
151.093
 20
-61.0268
 11
150.956
 21
-61.1558
  0
LINE
  8
0
 10
150.956
 20
-61.1558
 11
150.804
 21
-61.2665
  0
LINE
  8
0
 10
150.804
 20
-61.2665
 11
150.639
 21
-61.3572
  0
LINE
  8
0
 10
150.639
 20
-61.3572
 11
150.464
 21
-61.4266
  0
LINE
  8
0
 10
150.464
 20
-61.4266
 11
150.281
 21
-61.4734
  0
LINE
  8
0
 10
150.281
 20
-61.4734
 11
150.094
 21
-61.497
  0
LINE
  8
0
 10
150.094
 20
-61.497
 11
149.906
 21
-61.497
  0
LINE
  8
0
 10
-150.188
 20
-70.4941
 11
-150.562
 21
-70.4469
  0
LINE
  8
0
 10
-150.562
 20
-70.4469
 11
-150.927
 21
-70.3532
  0
LINE
  8
0
 10
-150.927
 20
-70.3532
 11
-151.277
 21
-70.2145
  0
LINE
  8
0
 10
-151.277
 20
-70.2145
 11
-151.607
 21
-70.033
  0
LINE
  8
0
 10
-151.607
 20
-70.033
 11
-151.912
 21
-69.8115
  0
LINE
  8
0
 10
-151.912
 20
-69.8115
 11
-152.187
 21
-69.5536
  0
LINE
  8
0
 10
-152.187
 20
-69.5536
 11
-152.427
 21
-69.2634
  0
LINE
  8
0
 10
-152.427
 20
-69.2634
 11
-152.629
 21
-68.9453
  0
LINE
  8
0
 10
-152.629
 20
-68.9453
 11
-152.789
 21
-68.6044
  0
LINE
  8
0
 10
-152.789
 20
-68.6044
 11
-152.906
 21
-68.2461
  0
LINE
  8
0
 10
-152.906
 20
-68.2461
 11
-152.976
 21
-67.876
  0
LINE
  8
0
 10
-152.976
 20
-67.876
 11
-153
 21
-67.5
  0
LINE
  8
0
 10
-153
 20
-67.5
 11
-152.976
 21
-67.124
  0
LINE
  8
0
 10
-152.976
 20
-67.124
 11
-152.906
 21
-66.7539
  0
LINE
  8
0
 10
-152.906
 20
-66.7539
 11
-152.789
 21
-66.3956
  0
LINE
  8
0
 10
-152.789
 20
-66.3956
 11
-152.629
 21
-66.0547
  0
LINE
  8
0
 10
-152.629
 20
-66.0547
 11
-152.427
 21
-65.7366
  0
LINE
  8
0
 10
-152.427
 20
-65.7366
 11
-152.187
 21
-65.4464
  0
LINE
  8
0
 10
-152.187
 20
-65.4464
 11
-151.912
 21
-65.1885
  0
LINE
  8
0
 10
-151.912
 20
-65.1885
 11
-151.607
 21
-64.967
  0
LINE
  8
0
 10
-151.607
 20
-64.967
 11
-151.277
 21
-64.7855
  0
LINE
  8
0
 10
-151.277
 20
-64.7855
 11
-150.927
 21
-64.6468
  0
LINE
  8
0
 10
-150.927
 20
-64.6468
 11
-150.562
 21
-64.5531
  0
LINE
  8
0
 10
-150.562
 20
-64.5531
 11
-150.188
 21
-64.5059
  0
LINE
  8
0
 10
-150.188
 20
-64.5059
 11
-149.812
 21
-64.5059
  0
LINE
  8
0
 10
-149.812
 20
-64.5059
 11
-149.438
 21
-64.5531
  0
LINE
  8
0
 10
-149.438
 20
-64.5531
 11
-149.073
 21
-64.6468
  0
LINE
  8
0
 10
-149.073
 20
-64.6468
 11
-148.723
 21
-64.7855
  0
LINE
  8
0
 10
-148.723
 20
-64.7855
 11
-148.393
 21
-64.967
  0
LINE
  8
0
 10
-148.393
 20
-64.967
 11
-148.088
 21
-65.1885
  0
LINE
  8
0
 10
-148.088
 20
-65.1885
 11
-147.813
 21
-65.4464
  0
LINE
  8
0
 10
-147.813
 20
-65.4464
 11
-147.573
 21
-65.7366
  0
LINE
  8
0
 10
-147.573
 20
-65.7366
 11
-147.371
 21
-66.0547
  0
LINE
  8
0
 10
-147.371
 20
-66.0547
 11
-147.211
 21
-66.3956
  0
LINE
  8
0
 10
-147.211
 20
-66.3956
 11
-147.094
 21
-66.7539
  0
LINE
  8
0
 10
-147.094
 20
-66.7539
 11
-147.024
 21
-67.124
  0
LINE
  8
0
 10
-147.024
 20
-67.124
 11
-147
 21
-67.5
  0
LINE
  8
0
 10
-147
 20
-67.5
 11
-147.024
 21
-67.876
  0
LINE
  8
0
 10
-147.024
 20
-67.876
 11
-147.094
 21
-68.2461
  0
LINE
  8
0
 10
-147.094
 20
-68.2461
 11
-147.211
 21
-68.6044
  0
LINE
  8
0
 10
-147.211
 20
-68.6044
 11
-147.371
 21
-68.9453
  0
LINE
  8
0
 10
-147.371
 20
-68.9453
 11
-147.573
 21
-69.2634
  0
LINE
  8
0
 10
-147.573
 20
-69.2634
 11
-147.813
 21
-69.5536
  0
LINE
  8
0
 10
-147.813
 20
-69.5536
 11
-148.088
 21
-69.8115
  0
LINE
  8
0
 10
-148.088
 20
-69.8115
 11
-148.393
 21
-70.033
  0
LINE
  8
0
 10
-148.393
 20
-70.033
 11
-148.723
 21
-70.2145
  0
LINE
  8
0
 10
-148.723
 20
-70.2145
 11
-149.073
 21
-70.3532
  0
LINE
  8
0
 10
-149.073
 20
-70.3532
 11
-149.438
 21
-70.4469
  0
LINE
  8
0
 10
-149.438
 20
-70.4469
 11
-149.812
 21
-70.4941
  0
LINE
  8
0
 10
-149.812
 20
-70.4941
 11
-150.188
 21
-70.4941
  0
LINE
  8
0
 10
149.812
 20
-70.4941
 11
149.438
 21
-70.4469
  0
LINE
  8
0
 10
149.438
 20
-70.4469
 11
149.073
 21
-70.3532
  0
LINE
  8
0
 10
149.073
 20
-70.3532
 11
148.723
 21
-70.2145
  0
LINE
  8
0
 10
148.723
 20
-70.2145
 11
148.393
 21
-70.033
  0
LINE
  8
0
 10
148.393
 20
-70.033
 11
148.088
 21
-69.8115
  0
LINE
  8
0
 10
148.088
 20
-69.8115
 11
147.813
 21
-69.5536
  0
LINE
  8
0
 10
147.813
 20
-69.5536
 11
147.573
 21
-69.2634
  0
LINE
  8
0
 10
147.573
 20
-69.2634
 11
147.371
 21
-68.9453
  0
LINE
  8
0
 10
147.371
 20
-68.9453
 11
147.211
 21
-68.6044
  0
LINE
  8
0
 10
147.211
 20
-68.6044
 11
147.094
 21
-68.2461
  0
LINE
  8
0
 10
147.094
 20
-68.2461
 11
147.024
 21
-67.876
  0
LINE
  8
0
 10
147.024
 20
-67.876
 11
147
 21
-67.5
  0
LINE
  8
0
 10
147
 20
-67.5
 11
147.024
 21
-67.124
  0
LINE
  8
0
 10
147.024
 20
-67.124
 11
147.094
 21
-66.7539
  0
LINE
  8
0
 10
147.094
 20
-66.7539
 11
147.211
 21
-66.3956
  0
LINE
  8
0
 10
147.211
 20
-66.3956
 11
147.371
 21
-66.0547
  0
LINE
  8
0
 10
147.371
 20
-66.0547
 11
147.573
 21
-65.7366
  0
LINE
  8
0
 10
147.573
 20
-65.7366
 11
147.813
 21
-65.4464
  0
LINE
  8
0
 10
147.813
 20
-65.4464
 11
148.088
 21
-65.1885
  0
LINE
  8
0
 10
148.088
 20
-65.1885
 11
148.393
 21
-64.967
  0
LINE
  8
0
 10
148.393
 20
-64.967
 11
148.723
 21
-64.7855
  0
LINE
  8
0
 10
148.723
 20
-64.7855
 11
149.073
 21
-64.6468
  0
LINE
  8
0
 10
149.073
 20
-64.6468
 11
149.438
 21
-64.5531
  0
LINE
  8
0
 10
149.438
 20
-64.5531
 11
149.812
 21
-64.5059
  0
LINE
  8
0
 10
149.812
 20
-64.5059
 11
150.188
 21
-64.5059
  0
LINE
  8
0
 10
150.188
 20
-64.5059
 11
150.562
 21
-64.5531
  0
LINE
  8
0
 10
150.562
 20
-64.5531
 11
150.927
 21
-64.6468
  0
LINE
  8
0
 10
150.927
 20
-64.6468
 11
151.277
 21
-64.7855
  0
LINE
  8
0
 10
151.277
 20
-64.7855
 11
151.607
 21
-64.967
  0
LINE
  8
0
 10
151.607
 20
-64.967
 11
151.912
 21
-65.1885
  0
LINE
  8
0
 10
151.912
 20
-65.1885
 11
152.187
 21
-65.4464
  0
LINE
  8
0
 10
152.187
 20
-65.4464
 11
152.427
 21
-65.7366
  0
LINE
  8
0
 10
152.427
 20
-65.7366
 11
152.629
 21
-66.0547
  0
LINE
  8
0
 10
152.629
 20
-66.0547
 11
152.789
 21
-66.3956
  0
LINE
  8
0
 10
152.789
 20
-66.3956
 11
152.906
 21
-66.7539
  0
LINE
  8
0
 10
152.906
 20
-66.7539
 11
152.976
 21
-67.124
  0
LINE
  8
0
 10
152.976
 20
-67.124
 11
153
 21
-67.5
  0
LINE
  8
0
 10
153
 20
-67.5
 11
152.976
 21
-67.876
  0
LINE
  8
0
 10
152.976
 20
-67.876
 11
152.906
 21
-68.2461
  0
LINE
  8
0
 10
152.906
 20
-68.2461
 11
152.789
 21
-68.6044
  0
LINE
  8
0
 10
152.789
 20
-68.6044
 11
152.629
 21
-68.9453
  0
LINE
  8
0
 10
152.629
 20
-68.9453
 11
152.427
 21
-69.2634
  0
LINE
  8
0
 10
152.427
 20
-69.2634
 11
152.187
 21
-69.5536
  0
LINE
  8
0
 10
152.187
 20
-69.5536
 11
151.912
 21
-69.8115
  0
LINE
  8
0
 10
151.912
 20
-69.8115
 11
151.607
 21
-70.033
  0
LINE
  8
0
 10
151.607
 20
-70.033
 11
151.277
 21
-70.2145
  0
LINE
  8
0
 10
151.277
 20
-70.2145
 11
150.927
 21
-70.3532
  0
LINE
  8
0
 10
150.927
 20
-70.3532
 11
150.562
 21
-70.4469
  0
LINE
  8
0
 10
150.562
 20
-70.4469
 11
150.188
 21
-70.4941
  0
LINE
  8
0
 10
150.188
 20
-70.4941
 11
149.812
 21
-70.4941
  0
ENDSEC
  0
SECTION
  2
OBJECTS
  0
DICTIONARY
  0
ENDSEC
  0
EOF
