<?xml version="1.0" standalone="no"?>
<!DOCTYPE svg PUBLIC "-//W3C//DTD SVG 1.1//EN" "http://www.w3.org/Graphics/SVG/1.1/DTD/svg11.dtd">
<svg width="164mm" height="164mm" viewBox="-82 -82 164 164" xmlns="http://www.w3.org/2000/svg" version="1.1">
<title>OpenSCAD Model</title>
<path d="
M 77.9369,81.9114 L 78.5451,81.7553 L 79.1289,81.5241 L 79.6791,81.2216 L 80.1871,80.8526 L 80.6448,80.4227
 L 81.0451,79.9389 L 81.3815,79.4088 L 81.6489,78.8406 L 81.8429,78.2434 L 81.9606,77.6267 L 82,77
 L 82,-77 L 81.9606,-77.6267 L 81.8429,-78.2434 L 81.6489,-78.8406 L 81.3815,-79.4088 L 81.0451,-79.9389
 L 80.6448,-80.4227 L 80.1871,-80.8526 L 79.6791,-81.2216 L 79.1289,-81.5241 L 78.5451,-81.7553 L 77.9369,-81.9114
 L 77.3139,-81.9901 L -77.3139,-81.9901 L -77.9369,-81.9114 L -78.5451,-81.7553 L -79.1289,-81.5241 L -79.6791,-81.2216
 L -80.1871,-80.8526 L -80.6448,-80.4227 L -81.0451,-79.9389 L -81.3815,-79.4088 L -81.6489,-78.8406 L -81.8429,-78.2434
 L -81.9606,-77.6267 L -82,-77 L -82,77 L -81.9606,77.6267 L -81.8429,78.2434 L -81.6489,78.8406
 L -81.3815,79.4088 L -81.0451,79.9389 L -80.6448,80.4227 L -80.1871,80.8526 L -79.6791,81.2216 L -79.1289,81.5241
 L -78.5451,81.7553 L -77.9369,81.9114 L -77.3139,81.9901 L 77.3139,81.9901 z
M 74.8116,-72.0059 L 74.4379,-72.0531 L 74.073,-72.1468 L 73.7227,-72.2855 L 73.3925,-72.467 L 73.0877,-72.6885
 L 72.8131,-72.9464 L 72.573,-73.2366 L 72.3711,-73.5547 L 72.2107,-73.8956 L 72.0943,-74.2539 L 72.0237,-74.624
 L 72,-75 L 72.0237,-75.376 L 72.0943,-75.7461 L 72.2107,-76.1044 L 72.3711,-76.4453 L 72.573,-76.7634
 L 72.8131,-77.0536 L 73.0877,-77.3115 L 73.3925,-77.533 L 73.7227,-77.7145 L 74.073,-77.8532 L 74.4379,-77.9469
 L 74.8116,-77.9941 L 75.1884,-77.9941 L 75.5621,-77.9469 L 75.927,-77.8532 L 76.2773,-77.7145 L 76.6075,-77.533
 L 76.9123,-77.3115 L 77.1869,-77.0536 L 77.427,-76.7634 L 77.6289,-76.4453 L 77.7893,-76.1044 L 77.9057,-75.7461
 L 77.9763,-75.376 L 78,-75 L 77.9763,-74.624 L 77.9057,-74.2539 L 77.7893,-73.8956 L 77.6289,-73.5547
 L 77.427,-73.2366 L 77.1869,-72.9464 L 76.9123,-72.6885 L 76.6075,-72.467 L 76.2773,-72.2855 L 75.927,-72.1468
 L 75.5621,-72.0531 L 75.1884,-72.0059 z
M -75.1884,-72.0059 L -75.5621,-72.0531 L -75.927,-72.1468 L -76.2773,-72.2855 L -76.6075,-72.467 L -76.9123,-72.6885
 L -77.1869,-72.9464 L -77.427,-73.2366 L -77.6289,-73.5547 L -77.7893,-73.8956 L -77.9057,-74.2539 L -77.9763,-74.624
 L -78,-75 L -77.9763,-75.376 L -77.9057,-75.7461 L -77.7893,-76.1044 L -77.6289,-76.4453 L -77.427,-76.7634
 L -77.1869,-77.0536 L -76.9123,-77.3115 L -76.6075,-77.533 L -76.2773,-77.7145 L -75.927,-77.8532 L -75.5621,-77.9469
 L -75.1884,-77.9941 L -74.8116,-77.9941 L -74.4379,-77.9469 L -74.073,-77.8532 L -73.7227,-77.7145 L -73.3925,-77.533
 L -73.0877,-77.3115 L -72.8131,-77.0536 L -72.573,-76.7634 L -72.3711,-76.4453 L -72.2107,-76.1044 L -72.0943,-75.7461
 L -72.0237,-75.376 L -72,-75 L -72.0237,-74.624 L -72.0943,-74.2539 L -72.2107,-73.8956 L -72.3711,-73.5547
 L -72.573,-73.2366 L -72.8131,-72.9464 L -73.0877,-72.6885 L -73.3925,-72.467 L -73.7227,-72.2855 L -74.073,-72.1468
 L -74.4379,-72.0531 L -74.8116,-72.0059 z
M -4.55231,72.3569 L -13.5851,71.2158 L -22.4037,68.9516 L -30.869,65.6 L -38.8474,61.2138 L -46.2132,55.8622
 L -52.8502,49.6297 L -58.6537,42.6144 L -63.5322,34.9271 L -67.4088,26.689 L -70.2223,18.03 L -71.9283,9.08665
 L -72.5,-0 L -71.9283,-9.08665 L -70.2223,-18.03 L -67.4088,-26.689 L -63.5322,-34.9271 L -58.6537,-42.6144
 L -52.8502,-49.6297 L -46.2132,-55.8622 L -38.8474,-61.2138 L -30.869,-65.6 L -22.4037,-68.9516 L -13.5851,-71.2158
 L -4.55231,-72.3569 L 4.55231,-72.3569 L 13.5851,-71.2158 L 22.4037,-68.9516 L 30.869,-65.6 L 38.8474,-61.2138
 L 46.2132,-55.8622 L 52.8502,-49.6297 L 58.6537,-42.6144 L 63.5322,-34.9271 L 67.4088,-26.689 L 70.2223,-18.03
 L 71.9283,-9.08665 L 72.5,-0 L 71.9283,9.08665 L 70.2223,18.03 L 67.4088,26.689 L 63.5322,34.9271
 L 58.6537,42.6144 L 52.8502,49.6297 L 46.2132,55.8622 L 38.8474,61.2138 L 30.869,65.6 L 22.4037,68.9516
 L 13.5851,71.2158 L 4.55231,72.3569 z
M 74.8116,77.9941 L 74.4379,77.9469 L 74.073,77.8532 L 73.7227,77.7145 L 73.3925,77.533 L 73.0877,77.3115
 L 72.8131,77.0536 L 72.573,76.7634 L 72.3711,76.4453 L 72.2107,76.1044 L 72.0943,75.7461 L 72.0237,75.376
 L 72,75 L 72.0237,74.624 L 72.0943,74.2539 L 72.2107,73.8956 L 72.3711,73.5547 L 72.573,73.2366
 L 72.8131,72.9464 L 73.0877,72.6885 L 73.3925,72.467 L 73.7227,72.2855 L 74.073,72.1468 L 74.4379,72.0531
 L 74.8116,72.0059 L 75.1884,72.0059 L 75.5621,72.0531 L 75.927,72.1468 L 76.2773,72.2855 L 76.6075,72.467
 L 76.9123,72.6885 L 77.1869,72.9464 L 77.427,73.2366 L 77.6289,73.5547 L 77.7893,73.8956 L 77.9057,74.2539
 L 77.9763,74.624 L 78,75 L 77.9763,75.376 L 77.9057,75.7461 L 77.7893,76.1044 L 77.6289,76.4453
 L 77.427,76.7634 L 77.1869,77.0536 L 76.9123,77.3115 L 76.6075,77.533 L 76.2773,77.7145 L 75.927,77.8532
 L 75.5621,77.9469 L 75.1884,77.9941 z
M -75.1884,77.9941 L -75.5621,77.9469 L -75.927,77.8532 L -76.2773,77.7145 L -76.6075,77.533 L -76.9123,77.3115
 L -77.1869,77.0536 L -77.427,76.7634 L -77.6289,76.4453 L -77.7893,76.1044 L -77.9057,75.7461 L -77.9763,75.376
 L -78,75 L -77.9763,74.624 L -77.9057,74.2539 L -77.7893,73.8956 L -77.6289,73.5547 L -77.427,73.2366
 L -77.1869,72.9464 L -76.9123,72.6885 L -76.6075,72.467 L -76.2773,72.2855 L -75.927,72.1468 L -75.5621,72.0531
 L -75.1884,72.0059 L -74.8116,72.0059 L -74.4379,72.0531 L -74.073,72.1468 L -73.7227,72.2855 L -73.3925,72.467
 L -73.0877,72.6885 L -72.8131,72.9464 L -72.573,73.2366 L -72.3711,73.5547 L -72.2107,73.8956 L -72.0943,74.2539
 L -72.0237,74.624 L -72,75 L -72.0237,75.376 L -72.0943,75.7461 L -72.2107,76.1044 L -72.3711,76.4453
 L -72.573,76.7634 L -72.8131,77.0536 L -73.0877,77.3115 L -73.3925,77.533 L -73.7227,77.7145 L -74.073,77.8532
 L -74.4379,77.9469 L -74.8116,77.9941 z
" stroke="black" fill="lightgray" stroke-width="0.5"/>
</svg>
