  0
SECTION
  2
BLOCKS
  0
ENDSEC
  0
SECTION
  2
ENTITIES
  0
LINE
  8
0
 10
47.9369
 20
-14.4114
 11
48.5451
 21
-14.2553
  0
LINE
  8
0
 10
48.5451
 20
-14.2553
 11
49.1289
 21
-14.0241
  0
LINE
  8
0
 10
49.1289
 20
-14.0241
 11
49.6791
 21
-13.7216
  0
LINE
  8
0
 10
49.6791
 20
-13.7216
 11
50.1871
 21
-13.3526
  0
LINE
  8
0
 10
50.1871
 20
-13.3526
 11
50.6448
 21
-12.9227
  0
LINE
  8
0
 10
50.6448
 20
-12.9227
 11
51.0451
 21
-12.4389
  0
LINE
  8
0
 10
51.0451
 20
-12.4389
 11
51.3815
 21
-11.9088
  0
LINE
  8
0
 10
51.3815
 20
-11.9088
 11
51.6489
 21
-11.3406
  0
LINE
  8
0
 10
51.6489
 20
-11.3406
 11
51.8429
 21
-10.7434
  0
LINE
  8
0
 10
51.8429
 20
-10.7434
 11
51.9606
 21
-10.1267
  0
LINE
  8
0
 10
51.9606
 20
-10.1267
 11
52
 21
-9.5
  0
LINE
  8
0
 10
52
 20
-9.5
 11
52
 21
9.5
  0
LINE
  8
0
 10
52
 20
9.5
 11
51.9606
 21
10.1267
  0
LINE
  8
0
 10
51.9606
 20
10.1267
 11
51.8429
 21
10.7434
  0
LINE
  8
0
 10
51.8429
 20
10.7434
 11
51.6489
 21
11.3406
  0
LINE
  8
0
 10
51.6489
 20
11.3406
 11
51.3815
 21
11.9088
  0
LINE
  8
0
 10
51.3815
 20
11.9088
 11
51.0451
 21
12.4389
  0
LINE
  8
0
 10
51.0451
 20
12.4389
 11
50.6448
 21
12.9227
  0
LINE
  8
0
 10
50.6448
 20
12.9227
 11
50.1871
 21
13.3526
  0
LINE
  8
0
 10
50.1871
 20
13.3526
 11
49.6791
 21
13.7216
  0
LINE
  8
0
 10
49.6791
 20
13.7216
 11
49.1289
 21
14.0241
  0
LINE
  8
0
 10
49.1289
 20
14.0241
 11
48.5451
 21
14.2553
  0
LINE
  8
0
 10
48.5451
 20
14.2553
 11
47.9369
 21
14.4114
  0
LINE
  8
0
 10
47.9369
 20
14.4114
 11
47.3139
 21
14.4901
  0
LINE
  8
0
 10
47.3139
 20
14.4901
 11
-47.3139
 21
14.4901
  0
LINE
  8
0
 10
-47.3139
 20
14.4901
 11
-47.9369
 21
14.4114
  0
LINE
  8
0
 10
-47.9369
 20
14.4114
 11
-48.5451
 21
14.2553
  0
LINE
  8
0
 10
-48.5451
 20
14.2553
 11
-49.1289
 21
14.0241
  0
LINE
  8
0
 10
-49.1289
 20
14.0241
 11
-49.6791
 21
13.7216
  0
LINE
  8
0
 10
-49.6791
 20
13.7216
 11
-50.1871
 21
13.3526
  0
LINE
  8
0
 10
-50.1871
 20
13.3526
 11
-50.6448
 21
12.9227
  0
LINE
  8
0
 10
-50.6448
 20
12.9227
 11
-51.0451
 21
12.4389
  0
LINE
  8
0
 10
-51.0451
 20
12.4389
 11
-51.3815
 21
11.9088
  0
LINE
  8
0
 10
-51.3815
 20
11.9088
 11
-51.6489
 21
11.3406
  0
LINE
  8
0
 10
-51.6489
 20
11.3406
 11
-51.8429
 21
10.7434
  0
LINE
  8
0
 10
-51.8429
 20
10.7434
 11
-51.9606
 21
10.1267
  0
LINE
  8
0
 10
-51.9606
 20
10.1267
 11
-52
 21
9.5
  0
LINE
  8
0
 10
-52
 20
9.5
 11
-52
 21
-9.5
  0
LINE
  8
0
 10
-52
 20
-9.5
 11
-51.9606
 21
-10.1267
  0
LINE
  8
0
 10
-51.9606
 20
-10.1267
 11
-51.8429
 21
-10.7434
  0
LINE
  8
0
 10
-51.8429
 20
-10.7434
 11
-51.6489
 21
-11.3406
  0
LINE
  8
0
 10
-51.6489
 20
-11.3406
 11
-51.3815
 21
-11.9088
  0
LINE
  8
0
 10
-51.3815
 20
-11.9088
 11
-51.0451
 21
-12.4389
  0
LINE
  8
0
 10
-51.0451
 20
-12.4389
 11
-50.6448
 21
-12.9227
  0
LINE
  8
0
 10
-50.6448
 20
-12.9227
 11
-50.1871
 21
-13.3526
  0
LINE
  8
0
 10
-50.1871
 20
-13.3526
 11
-49.6791
 21
-13.7216
  0
LINE
  8
0
 10
-49.6791
 20
-13.7216
 11
-49.1289
 21
-14.0241
  0
LINE
  8
0
 10
-49.1289
 20
-14.0241
 11
-48.5451
 21
-14.2553
  0
LINE
  8
0
 10
-48.5451
 20
-14.2553
 11
-47.9369
 21
-14.4114
  0
LINE
  8
0
 10
-47.9369
 20
-14.4114
 11
-47.3139
 21
-14.4901
  0
LINE
  8
0
 10
-47.3139
 20
-14.4901
 11
47.3139
 21
-14.4901
  0
LINE
  8
0
 10
47.3139
 20
-14.4901
 11
47.9369
 21
-14.4114
  0
LINE
  8
0
 10
27.2779
 20
-11.4773
 11
25.8451
 21
-11.2963
  0
LINE
  8
0
 10
25.8451
 20
-11.2963
 11
24.4463
 21
-10.9371
  0
LINE
  8
0
 10
24.4463
 20
-10.9371
 11
23.1035
 21
-10.4055
  0
LINE
  8
0
 10
23.1035
 20
-10.4055
 11
21.838
 21
-9.70976
  0
LINE
  8
0
 10
21.838
 20
-9.70976
 11
20.6696
 21
-8.8609
  0
LINE
  8
0
 10
20.6696
 20
-8.8609
 11
19.6169
 21
-7.87228
  0
LINE
  8
0
 10
19.6169
 20
-7.87228
 11
18.6963
 21
-6.75952
  0
LINE
  8
0
 10
18.6963
 20
-6.75952
 11
17.9225
 21
-5.54016
  0
LINE
  8
0
 10
17.9225
 20
-5.54016
 11
17.3076
 21
-4.23343
  0
LINE
  8
0
 10
17.3076
 20
-4.23343
 11
16.8613
 21
-2.85992
  0
LINE
  8
0
 10
16.8613
 20
-2.85992
 11
16.5907
 21
-1.44133
  0
LINE
  8
0
 10
16.5907
 20
-1.44133
 11
16.5
 21
0
  0
LINE
  8
0
 10
16.5
 20
0
 11
16.5907
 21
1.44133
  0
LINE
  8
0
 10
16.5907
 20
1.44133
 11
16.8613
 21
2.85992
  0
LINE
  8
0
 10
16.8613
 20
2.85992
 11
17.3076
 21
4.23343
  0
LINE
  8
0
 10
17.3076
 20
4.23343
 11
17.9225
 21
5.54016
  0
LINE
  8
0
 10
17.9225
 20
5.54016
 11
18.6963
 21
6.75952
  0
LINE
  8
0
 10
18.6963
 20
6.75952
 11
19.6169
 21
7.87228
  0
LINE
  8
0
 10
19.6169
 20
7.87228
 11
20.6696
 21
8.8609
  0
LINE
  8
0
 10
20.6696
 20
8.8609
 11
21.838
 21
9.70976
  0
LINE
  8
0
 10
21.838
 20
9.70976
 11
23.1035
 21
10.4055
  0
LINE
  8
0
 10
23.1035
 20
10.4055
 11
24.4463
 21
10.9371
  0
LINE
  8
0
 10
24.4463
 20
10.9371
 11
25.8451
 21
11.2963
  0
LINE
  8
0
 10
25.8451
 20
11.2963
 11
27.2779
 21
11.4773
  0
LINE
  8
0
 10
27.2779
 20
11.4773
 11
28.7221
 21
11.4773
  0
LINE
  8
0
 10
28.7221
 20
11.4773
 11
30.1549
 21
11.2963
  0
LINE
  8
0
 10
30.1549
 20
11.2963
 11
31.5537
 21
10.9371
  0
LINE
  8
0
 10
31.5537
 20
10.9371
 11
32.8965
 21
10.4055
  0
LINE
  8
0
 10
32.8965
 20
10.4055
 11
34.162
 21
9.70976
  0
LINE
  8
0
 10
34.162
 20
9.70976
 11
35.3304
 21
8.8609
  0
LINE
  8
0
 10
35.3304
 20
8.8609
 11
36.3831
 21
7.87228
  0
LINE
  8
0
 10
36.3831
 20
7.87228
 11
37.3037
 21
6.75952
  0
LINE
  8
0
 10
37.3037
 20
6.75952
 11
38.0775
 21
5.54016
  0
LINE
  8
0
 10
38.0775
 20
5.54016
 11
38.6924
 21
4.23343
  0
LINE
  8
0
 10
38.6924
 20
4.23343
 11
39.1387
 21
2.85992
  0
LINE
  8
0
 10
39.1387
 20
2.85992
 11
39.4093
 21
1.44133
  0
LINE
  8
0
 10
39.4093
 20
1.44133
 11
39.5
 21
0
  0
LINE
  8
0
 10
39.5
 20
0
 11
39.4093
 21
-1.44133
  0
LINE
  8
0
 10
39.4093
 20
-1.44133
 11
39.1387
 21
-2.85992
  0
LINE
  8
0
 10
39.1387
 20
-2.85992
 11
38.6924
 21
-4.23343
  0
LINE
  8
0
 10
38.6924
 20
-4.23343
 11
38.0775
 21
-5.54016
  0
LINE
  8
0
 10
38.0775
 20
-5.54016
 11
37.3037
 21
-6.75952
  0
LINE
  8
0
 10
37.3037
 20
-6.75952
 11
36.3831
 21
-7.87228
  0
LINE
  8
0
 10
36.3831
 20
-7.87228
 11
35.3304
 21
-8.8609
  0
LINE
  8
0
 10
35.3304
 20
-8.8609
 11
34.162
 21
-9.70976
  0
LINE
  8
0
 10
34.162
 20
-9.70976
 11
32.8965
 21
-10.4055
  0
LINE
  8
0
 10
32.8965
 20
-10.4055
 11
31.5537
 21
-10.9371
  0
LINE
  8
0
 10
31.5537
 20
-10.9371
 11
30.1549
 21
-11.2963
  0
LINE
  8
0
 10
30.1549
 20
-11.2963
 11
28.7221
 21
-11.4773
  0
LINE
  8
0
 10
28.7221
 20
-11.4773
 11
27.2779
 21
-11.4773
  0
LINE
  8
0
 10
-0.722076
 20
-11.4773
 11
-2.15488
 21
-11.2963
  0
LINE
  8
0
 10
-2.15488
 20
-11.2963
 11
-3.55368
 21
-10.9371
  0
LINE
  8
0
 10
-3.55368
 20
-10.9371
 11
-4.89645
 21
-10.4055
  0
LINE
  8
0
 10
-4.89645
 20
-10.4055
 11
-6.162
 21
-9.70976
  0
LINE
  8
0
 10
-6.162
 20
-9.70976
 11
-7.33037
 21
-8.8609
  0
LINE
  8
0
 10
-7.33037
 20
-8.8609
 11
-8.38313
 21
-7.87228
  0
LINE
  8
0
 10
-8.38313
 20
-7.87228
 11
-9.30368
 21
-6.75952
  0
LINE
  8
0
 10
-9.30368
 20
-6.75952
 11
-10.0775
 21
-5.54016
  0
LINE
  8
0
 10
-10.0775
 20
-5.54016
 11
-10.6924
 21
-4.23343
  0
LINE
  8
0
 10
-10.6924
 20
-4.23343
 11
-11.1387
 21
-2.85992
  0
LINE
  8
0
 10
-11.1387
 20
-2.85992
 11
-11.4093
 21
-1.44133
  0
LINE
  8
0
 10
-11.4093
 20
-1.44133
 11
-11.5
 21
0
  0
LINE
  8
0
 10
-11.5
 20
0
 11
-11.4093
 21
1.44133
  0
LINE
  8
0
 10
-11.4093
 20
1.44133
 11
-11.1387
 21
2.85992
  0
LINE
  8
0
 10
-11.1387
 20
2.85992
 11
-10.6924
 21
4.23343
  0
LINE
  8
0
 10
-10.6924
 20
4.23343
 11
-10.0775
 21
5.54016
  0
LINE
  8
0
 10
-10.0775
 20
5.54016
 11
-9.30368
 21
6.75952
  0
LINE
  8
0
 10
-9.30368
 20
6.75952
 11
-8.38313
 21
7.87228
  0
LINE
  8
0
 10
-8.38313
 20
7.87228
 11
-7.33037
 21
8.8609
  0
LINE
  8
0
 10
-7.33037
 20
8.8609
 11
-6.162
 21
9.70976
  0
LINE
  8
0
 10
-6.162
 20
9.70976
 11
-4.89645
 21
10.4055
  0
LINE
  8
0
 10
-4.89645
 20
10.4055
 11
-3.55368
 21
10.9371
  0
LINE
  8
0
 10
-3.55368
 20
10.9371
 11
-2.15488
 21
11.2963
  0
LINE
  8
0
 10
-2.15488
 20
11.2963
 11
-0.722076
 21
11.4773
  0
LINE
  8
0
 10
-0.722076
 20
11.4773
 11
0.722076
 21
11.4773
  0
LINE
  8
0
 10
0.722076
 20
11.4773
 11
2.15488
 21
11.2963
  0
LINE
  8
0
 10
2.15488
 20
11.2963
 11
3.55368
 21
10.9371
  0
LINE
  8
0
 10
3.55368
 20
10.9371
 11
4.89645
 21
10.4055
  0
LINE
  8
0
 10
4.89645
 20
10.4055
 11
6.162
 21
9.70976
  0
LINE
  8
0
 10
6.162
 20
9.70976
 11
7.33037
 21
8.8609
  0
LINE
  8
0
 10
7.33037
 20
8.8609
 11
8.38313
 21
7.87228
  0
LINE
  8
0
 10
8.38313
 20
7.87228
 11
9.30368
 21
6.75952
  0
LINE
  8
0
 10
9.30368
 20
6.75952
 11
10.0775
 21
5.54016
  0
LINE
  8
0
 10
10.0775
 20
5.54016
 11
10.6924
 21
4.23343
  0
LINE
  8
0
 10
10.6924
 20
4.23343
 11
11.1387
 21
2.85992
  0
LINE
  8
0
 10
11.1387
 20
2.85992
 11
11.4093
 21
1.44133
  0
LINE
  8
0
 10
11.4093
 20
1.44133
 11
11.5
 21
0
  0
LINE
  8
0
 10
11.5
 20
0
 11
11.4093
 21
-1.44133
  0
LINE
  8
0
 10
11.4093
 20
-1.44133
 11
11.1387
 21
-2.85992
  0
LINE
  8
0
 10
11.1387
 20
-2.85992
 11
10.6924
 21
-4.23343
  0
LINE
  8
0
 10
10.6924
 20
-4.23343
 11
10.0775
 21
-5.54016
  0
LINE
  8
0
 10
10.0775
 20
-5.54016
 11
9.30368
 21
-6.75952
  0
LINE
  8
0
 10
9.30368
 20
-6.75952
 11
8.38313
 21
-7.87228
  0
LINE
  8
0
 10
8.38313
 20
-7.87228
 11
7.33037
 21
-8.8609
  0
LINE
  8
0
 10
7.33037
 20
-8.8609
 11
6.162
 21
-9.70976
  0
LINE
  8
0
 10
6.162
 20
-9.70976
 11
4.89645
 21
-10.4055
  0
LINE
  8
0
 10
4.89645
 20
-10.4055
 11
3.55368
 21
-10.9371
  0
LINE
  8
0
 10
3.55368
 20
-10.9371
 11
2.15488
 21
-11.2963
  0
LINE
  8
0
 10
2.15488
 20
-11.2963
 11
0.722076
 21
-11.4773
  0
LINE
  8
0
 10
0.722076
 20
-11.4773
 11
-0.722076
 21
-11.4773
  0
LINE
  8
0
 10
-28.7221
 20
-11.4773
 11
-30.1549
 21
-11.2963
  0
LINE
  8
0
 10
-30.1549
 20
-11.2963
 11
-31.5537
 21
-10.9371
  0
LINE
  8
0
 10
-31.5537
 20
-10.9371
 11
-32.8965
 21
-10.4055
  0
LINE
  8
0
 10
-32.8965
 20
-10.4055
 11
-34.162
 21
-9.70976
  0
LINE
  8
0
 10
-34.162
 20
-9.70976
 11
-35.3304
 21
-8.8609
  0
LINE
  8
0
 10
-35.3304
 20
-8.8609
 11
-36.3831
 21
-7.87228
  0
LINE
  8
0
 10
-36.3831
 20
-7.87228
 11
-37.3037
 21
-6.75952
  0
LINE
  8
0
 10
-37.3037
 20
-6.75952
 11
-38.0775
 21
-5.54016
  0
LINE
  8
0
 10
-38.0775
 20
-5.54016
 11
-38.6924
 21
-4.23343
  0
LINE
  8
0
 10
-38.6924
 20
-4.23343
 11
-39.1387
 21
-2.85992
  0
LINE
  8
0
 10
-39.1387
 20
-2.85992
 11
-39.4093
 21
-1.44133
  0
LINE
  8
0
 10
-39.4093
 20
-1.44133
 11
-39.5
 21
0
  0
LINE
  8
0
 10
-39.5
 20
0
 11
-39.4093
 21
1.44133
  0
LINE
  8
0
 10
-39.4093
 20
1.44133
 11
-39.1387
 21
2.85992
  0
LINE
  8
0
 10
-39.1387
 20
2.85992
 11
-38.6924
 21
4.23343
  0
LINE
  8
0
 10
-38.6924
 20
4.23343
 11
-38.0775
 21
5.54016
  0
LINE
  8
0
 10
-38.0775
 20
5.54016
 11
-37.3037
 21
6.75952
  0
LINE
  8
0
 10
-37.3037
 20
6.75952
 11
-36.3831
 21
7.87228
  0
LINE
  8
0
 10
-36.3831
 20
7.87228
 11
-35.3304
 21
8.8609
  0
LINE
  8
0
 10
-35.3304
 20
8.8609
 11
-34.162
 21
9.70976
  0
LINE
  8
0
 10
-34.162
 20
9.70976
 11
-32.8965
 21
10.4055
  0
LINE
  8
0
 10
-32.8965
 20
10.4055
 11
-31.5537
 21
10.9371
  0
LINE
  8
0
 10
-31.5537
 20
10.9371
 11
-30.1549
 21
11.2963
  0
LINE
  8
0
 10
-30.1549
 20
11.2963
 11
-28.7221
 21
11.4773
  0
LINE
  8
0
 10
-28.7221
 20
11.4773
 11
-27.2779
 21
11.4773
  0
LINE
  8
0
 10
-27.2779
 20
11.4773
 11
-25.8451
 21
11.2963
  0
LINE
  8
0
 10
-25.8451
 20
11.2963
 11
-24.4463
 21
10.9371
  0
LINE
  8
0
 10
-24.4463
 20
10.9371
 11
-23.1035
 21
10.4055
  0
LINE
  8
0
 10
-23.1035
 20
10.4055
 11
-21.838
 21
9.70976
  0
LINE
  8
0
 10
-21.838
 20
9.70976
 11
-20.6696
 21
8.8609
  0
LINE
  8
0
 10
-20.6696
 20
8.8609
 11
-19.6169
 21
7.87228
  0
LINE
  8
0
 10
-19.6169
 20
7.87228
 11
-18.6963
 21
6.75952
  0
LINE
  8
0
 10
-18.6963
 20
6.75952
 11
-17.9225
 21
5.54016
  0
LINE
  8
0
 10
-17.9225
 20
5.54016
 11
-17.3076
 21
4.23343
  0
LINE
  8
0
 10
-17.3076
 20
4.23343
 11
-16.8613
 21
2.85992
  0
LINE
  8
0
 10
-16.8613
 20
2.85992
 11
-16.5907
 21
1.44133
  0
LINE
  8
0
 10
-16.5907
 20
1.44133
 11
-16.5
 21
0
  0
LINE
  8
0
 10
-16.5
 20
0
 11
-16.5907
 21
-1.44133
  0
LINE
  8
0
 10
-16.5907
 20
-1.44133
 11
-16.8613
 21
-2.85992
  0
LINE
  8
0
 10
-16.8613
 20
-2.85992
 11
-17.3076
 21
-4.23343
  0
LINE
  8
0
 10
-17.3076
 20
-4.23343
 11
-17.9225
 21
-5.54016
  0
LINE
  8
0
 10
-17.9225
 20
-5.54016
 11
-18.6963
 21
-6.75952
  0
LINE
  8
0
 10
-18.6963
 20
-6.75952
 11
-19.6169
 21
-7.87228
  0
LINE
  8
0
 10
-19.6169
 20
-7.87228
 11
-20.6696
 21
-8.8609
  0
LINE
  8
0
 10
-20.6696
 20
-8.8609
 11
-21.838
 21
-9.70976
  0
LINE
  8
0
 10
-21.838
 20
-9.70976
 11
-23.1035
 21
-10.4055
  0
LINE
  8
0
 10
-23.1035
 20
-10.4055
 11
-24.4463
 21
-10.9371
  0
LINE
  8
0
 10
-24.4463
 20
-10.9371
 11
-25.8451
 21
-11.2963
  0
LINE
  8
0
 10
-25.8451
 20
-11.2963
 11
-27.2779
 21
-11.4773
  0
LINE
  8
0
 10
-27.2779
 20
-11.4773
 11
-28.7221
 21
-11.4773
  0
LINE
  8
0
 10
-45.1884
 20
4.50591
 11
-45.5621
 21
4.55313
  0
LINE
  8
0
 10
-45.5621
 20
4.55313
 11
-45.927
 21
4.64682
  0
LINE
  8
0
 10
-45.927
 20
4.64682
 11
-46.2773
 21
4.78551
  0
LINE
  8
0
 10
-46.2773
 20
4.78551
 11
-46.6075
 21
4.96701
  0
LINE
  8
0
 10
-46.6075
 20
4.96701
 11
-46.9123
 21
5.18845
  0
LINE
  8
0
 10
-46.9123
 20
5.18845
 11
-47.1869
 21
5.44635
  0
LINE
  8
0
 10
-47.1869
 20
5.44635
 11
-47.427
 21
5.73663
  0
LINE
  8
0
 10
-47.427
 20
5.73663
 11
-47.6289
 21
6.05473
  0
LINE
  8
0
 10
-47.6289
 20
6.05473
 11
-47.7893
 21
6.39561
  0
LINE
  8
0
 10
-47.7893
 20
6.39561
 11
-47.9057
 21
6.75392
  0
LINE
  8
0
 10
-47.9057
 20
6.75392
 11
-47.9763
 21
7.12399
  0
LINE
  8
0
 10
-47.9763
 20
7.12399
 11
-48
 21
7.5
  0
LINE
  8
0
 10
-48
 20
7.5
 11
-47.9763
 21
7.87599
  0
LINE
  8
0
 10
-47.9763
 20
7.87599
 11
-47.9057
 21
8.24606
  0
LINE
  8
0
 10
-47.9057
 20
8.24606
 11
-47.7893
 21
8.60437
  0
LINE
  8
0
 10
-47.7893
 20
8.60437
 11
-47.6289
 21
8.94525
  0
LINE
  8
0
 10
-47.6289
 20
8.94525
 11
-47.427
 21
9.26335
  0
LINE
  8
0
 10
-47.427
 20
9.26335
 11
-47.1869
 21
9.55363
  0
LINE
  8
0
 10
-47.1869
 20
9.55363
 11
-46.9123
 21
9.81154
  0
LINE
  8
0
 10
-46.9123
 20
9.81154
 11
-46.6075
 21
10.033
  0
LINE
  8
0
 10
-46.6075
 20
10.033
 11
-46.2773
 21
10.2145
  0
LINE
  8
0
 10
-46.2773
 20
10.2145
 11
-45.927
 21
10.3532
  0
LINE
  8
0
 10
-45.927
 20
10.3532
 11
-45.5621
 21
10.4469
  0
LINE
  8
0
 10
-45.5621
 20
10.4469
 11
-45.1884
 21
10.4941
  0
LINE
  8
0
 10
-45.1884
 20
10.4941
 11
-44.8116
 21
10.4941
  0
LINE
  8
0
 10
-44.8116
 20
10.4941
 11
-44.4379
 21
10.4469
  0
LINE
  8
0
 10
-44.4379
 20
10.4469
 11
-44.0729
 21
10.3532
  0
LINE
  8
0
 10
-44.0729
 20
10.3532
 11
-43.7227
 21
10.2145
  0
LINE
  8
0
 10
-43.7227
 20
10.2145
 11
-43.3925
 21
10.033
  0
LINE
  8
0
 10
-43.3925
 20
10.033
 11
-43.0877
 21
9.81154
  0
LINE
  8
0
 10
-43.0877
 20
9.81154
 11
-42.8131
 21
9.55363
  0
LINE
  8
0
 10
-42.8131
 20
9.55363
 11
-42.5729
 21
9.26335
  0
LINE
  8
0
 10
-42.5729
 20
9.26335
 11
-42.3711
 21
8.94525
  0
LINE
  8
0
 10
-42.3711
 20
8.94525
 11
-42.2107
 21
8.60437
  0
LINE
  8
0
 10
-42.2107
 20
8.60437
 11
-42.0942
 21
8.24606
  0
LINE
  8
0
 10
-42.0942
 20
8.24606
 11
-42.0237
 21
7.87599
  0
LINE
  8
0
 10
-42.0237
 20
7.87599
 11
-42
 21
7.5
  0
LINE
  8
0
 10
-42
 20
7.5
 11
-42.0237
 21
7.12399
  0
LINE
  8
0
 10
-42.0237
 20
7.12399
 11
-42.0942
 21
6.75392
  0
LINE
  8
0
 10
-42.0942
 20
6.75392
 11
-42.2107
 21
6.39561
  0
LINE
  8
0
 10
-42.2107
 20
6.39561
 11
-42.3711
 21
6.05473
  0
LINE
  8
0
 10
-42.3711
 20
6.05473
 11
-42.5729
 21
5.73663
  0
LINE
  8
0
 10
-42.5729
 20
5.73663
 11
-42.8131
 21
5.44635
  0
LINE
  8
0
 10
-42.8131
 20
5.44635
 11
-43.0877
 21
5.18845
  0
LINE
  8
0
 10
-43.0877
 20
5.18845
 11
-43.3925
 21
4.96701
  0
LINE
  8
0
 10
-43.3925
 20
4.96701
 11
-43.7227
 21
4.78551
  0
LINE
  8
0
 10
-43.7227
 20
4.78551
 11
-44.0729
 21
4.64682
  0
LINE
  8
0
 10
-44.0729
 20
4.64682
 11
-44.4379
 21
4.55313
  0
LINE
  8
0
 10
-44.4379
 20
4.55313
 11
-44.8116
 21
4.50591
  0
LINE
  8
0
 10
-44.8116
 20
4.50591
 11
-45.1884
 21
4.50591
  0
LINE
  8
0
 10
44.8116
 20
4.50591
 11
44.4379
 21
4.55313
  0
LINE
  8
0
 10
44.4379
 20
4.55313
 11
44.0729
 21
4.64682
  0
LINE
  8
0
 10
44.0729
 20
4.64682
 11
43.7227
 21
4.78551
  0
LINE
  8
0
 10
43.7227
 20
4.78551
 11
43.3925
 21
4.96701
  0
LINE
  8
0
 10
43.3925
 20
4.96701
 11
43.0877
 21
5.18845
  0
LINE
  8
0
 10
43.0877
 20
5.18845
 11
42.8131
 21
5.44635
  0
LINE
  8
0
 10
42.8131
 20
5.44635
 11
42.5729
 21
5.73663
  0
LINE
  8
0
 10
42.5729
 20
5.73663
 11
42.3711
 21
6.05473
  0
LINE
  8
0
 10
42.3711
 20
6.05473
 11
42.2107
 21
6.39561
  0
LINE
  8
0
 10
42.2107
 20
6.39561
 11
42.0942
 21
6.75392
  0
LINE
  8
0
 10
42.0942
 20
6.75392
 11
42.0237
 21
7.12399
  0
LINE
  8
0
 10
42.0237
 20
7.12399
 11
42
 21
7.5
  0
LINE
  8
0
 10
42
 20
7.5
 11
42.0237
 21
7.87599
  0
LINE
  8
0
 10
42.0237
 20
7.87599
 11
42.0942
 21
8.24606
  0
LINE
  8
0
 10
42.0942
 20
8.24606
 11
42.2107
 21
8.60437
  0
LINE
  8
0
 10
42.2107
 20
8.60437
 11
42.3711
 21
8.94525
  0
LINE
  8
0
 10
42.3711
 20
8.94525
 11
42.5729
 21
9.26335
  0
LINE
  8
0
 10
42.5729
 20
9.26335
 11
42.8131
 21
9.55363
  0
LINE
  8
0
 10
42.8131
 20
9.55363
 11
43.0877
 21
9.81154
  0
LINE
  8
0
 10
43.0877
 20
9.81154
 11
43.3925
 21
10.033
  0
LINE
  8
0
 10
43.3925
 20
10.033
 11
43.7227
 21
10.2145
  0
LINE
  8
0
 10
43.7227
 20
10.2145
 11
44.0729
 21
10.3532
  0
LINE
  8
0
 10
44.0729
 20
10.3532
 11
44.4379
 21
10.4469
  0
LINE
  8
0
 10
44.4379
 20
10.4469
 11
44.8116
 21
10.4941
  0
LINE
  8
0
 10
44.8116
 20
10.4941
 11
45.1884
 21
10.4941
  0
LINE
  8
0
 10
45.1884
 20
10.4941
 11
45.5621
 21
10.4469
  0
LINE
  8
0
 10
45.5621
 20
10.4469
 11
45.927
 21
10.3532
  0
LINE
  8
0
 10
45.927
 20
10.3532
 11
46.2773
 21
10.2145
  0
LINE
  8
0
 10
46.2773
 20
10.2145
 11
46.6075
 21
10.033
  0
LINE
  8
0
 10
46.6075
 20
10.033
 11
46.9123
 21
9.81154
  0
LINE
  8
0
 10
46.9123
 20
9.81154
 11
47.1869
 21
9.55363
  0
LINE
  8
0
 10
47.1869
 20
9.55363
 11
47.427
 21
9.26335
  0
LINE
  8
0
 10
47.427
 20
9.26335
 11
47.6289
 21
8.94525
  0
LINE
  8
0
 10
47.6289
 20
8.94525
 11
47.7893
 21
8.60437
  0
LINE
  8
0
 10
47.7893
 20
8.60437
 11
47.9057
 21
8.24606
  0
LINE
  8
0
 10
47.9057
 20
8.24606
 11
47.9763
 21
7.87599
  0
LINE
  8
0
 10
47.9763
 20
7.87599
 11
48
 21
7.5
  0
LINE
  8
0
 10
48
 20
7.5
 11
47.9763
 21
7.12399
  0
LINE
  8
0
 10
47.9763
 20
7.12399
 11
47.9057
 21
6.75392
  0
LINE
  8
0
 10
47.9057
 20
6.75392
 11
47.7893
 21
6.39561
  0
LINE
  8
0
 10
47.7893
 20
6.39561
 11
47.6289
 21
6.05473
  0
LINE
  8
0
 10
47.6289
 20
6.05473
 11
47.427
 21
5.73663
  0
LINE
  8
0
 10
47.427
 20
5.73663
 11
47.1869
 21
5.44635
  0
LINE
  8
0
 10
47.1869
 20
5.44635
 11
46.9123
 21
5.18845
  0
LINE
  8
0
 10
46.9123
 20
5.18845
 11
46.6075
 21
4.96701
  0
LINE
  8
0
 10
46.6075
 20
4.96701
 11
46.2773
 21
4.78551
  0
LINE
  8
0
 10
46.2773
 20
4.78551
 11
45.927
 21
4.64682
  0
LINE
  8
0
 10
45.927
 20
4.64682
 11
45.5621
 21
4.55313
  0
LINE
  8
0
 10
45.5621
 20
4.55313
 11
45.1884
 21
4.50591
  0
LINE
  8
0
 10
45.1884
 20
4.50591
 11
44.8116
 21
4.50591
  0
LINE
  8
0
 10
44.9058
 20
-1.49704
 11
44.7189
 21
-1.47342
  0
LINE
  8
0
 10
44.7189
 20
-1.47342
 11
44.5365
 21
-1.42657
  0
LINE
  8
0
 10
44.5365
 20
-1.42657
 11
44.3613
 21
-1.35724
  0
LINE
  8
0
 10
44.3613
 20
-1.35724
 11
44.1963
 21
-1.26648
  0
LINE
  8
0
 10
44.1963
 20
-1.26648
 11
44.0439
 21
-1.15576
  0
LINE
  8
0
 10
44.0439
 20
-1.15576
 11
43.9065
 21
-1.02681
  0
LINE
  8
0
 10
43.9065
 20
-1.02681
 11
43.7865
 21
-0.881668
  0
LINE
  8
0
 10
43.7865
 20
-0.881668
 11
43.6855
 21
-0.722626
  0
LINE
  8
0
 10
43.6855
 20
-0.722626
 11
43.6053
 21
-0.552185
  0
LINE
  8
0
 10
43.6053
 20
-0.552185
 11
43.5471
 21
-0.373032
  0
LINE
  8
0
 10
43.5471
 20
-0.373032
 11
43.5118
 21
-0.187988
  0
LINE
  8
0
 10
43.5118
 20
-0.187988
 11
43.5
 21
0
  0
LINE
  8
0
 10
43.5
 20
0
 11
43.5118
 21
0.187988
  0
LINE
  8
0
 10
43.5118
 20
0.187988
 11
43.5471
 21
0.373032
  0
LINE
  8
0
 10
43.5471
 20
0.373032
 11
43.6053
 21
0.552185
  0
LINE
  8
0
 10
43.6053
 20
0.552185
 11
43.6855
 21
0.722626
  0
LINE
  8
0
 10
43.6855
 20
0.722626
 11
43.7865
 21
0.881668
  0
LINE
  8
0
 10
43.7865
 20
0.881668
 11
43.9065
 21
1.02681
  0
LINE
  8
0
 10
43.9065
 20
1.02681
 11
44.0439
 21
1.15576
  0
LINE
  8
0
 10
44.0439
 20
1.15576
 11
44.1963
 21
1.26648
  0
LINE
  8
0
 10
44.1963
 20
1.26648
 11
44.3613
 21
1.35724
  0
LINE
  8
0
 10
44.3613
 20
1.35724
 11
44.5365
 21
1.42657
  0
LINE
  8
0
 10
44.5365
 20
1.42657
 11
44.7189
 21
1.47342
  0
LINE
  8
0
 10
44.7189
 20
1.47342
 11
44.9058
 21
1.49704
  0
LINE
  8
0
 10
44.9058
 20
1.49704
 11
45.0942
 21
1.49704
  0
LINE
  8
0
 10
45.0942
 20
1.49704
 11
45.2811
 21
1.47342
  0
LINE
  8
0
 10
45.2811
 20
1.47342
 11
45.4635
 21
1.42657
  0
LINE
  8
0
 10
45.4635
 20
1.42657
 11
45.6387
 21
1.35724
  0
LINE
  8
0
 10
45.6387
 20
1.35724
 11
45.8037
 21
1.26648
  0
LINE
  8
0
 10
45.8037
 20
1.26648
 11
45.9561
 21
1.15576
  0
LINE
  8
0
 10
45.9561
 20
1.15576
 11
46.0934
 21
1.02681
  0
LINE
  8
0
 10
46.0934
 20
1.02681
 11
46.2135
 21
0.881668
  0
LINE
  8
0
 10
46.2135
 20
0.881668
 11
46.3145
 21
0.722626
  0
LINE
  8
0
 10
46.3145
 20
0.722626
 11
46.3947
 21
0.552185
  0
LINE
  8
0
 10
46.3947
 20
0.552185
 11
46.4529
 21
0.373032
  0
LINE
  8
0
 10
46.4529
 20
0.373032
 11
46.4882
 21
0.187988
  0
LINE
  8
0
 10
46.4882
 20
0.187988
 11
46.5
 21
0
  0
LINE
  8
0
 10
46.5
 20
0
 11
46.4882
 21
-0.187988
  0
LINE
  8
0
 10
46.4882
 20
-0.187988
 11
46.4529
 21
-0.373032
  0
LINE
  8
0
 10
46.4529
 20
-0.373032
 11
46.3947
 21
-0.552185
  0
LINE
  8
0
 10
46.3947
 20
-0.552185
 11
46.3145
 21
-0.722626
  0
LINE
  8
0
 10
46.3145
 20
-0.722626
 11
46.2135
 21
-0.881668
  0
LINE
  8
0
 10
46.2135
 20
-0.881668
 11
46.0934
 21
-1.02681
  0
LINE
  8
0
 10
46.0934
 20
-1.02681
 11
45.9561
 21
-1.15576
  0
LINE
  8
0
 10
45.9561
 20
-1.15576
 11
45.8037
 21
-1.26648
  0
LINE
  8
0
 10
45.8037
 20
-1.26648
 11
45.6387
 21
-1.35724
  0
LINE
  8
0
 10
45.6387
 20
-1.35724
 11
45.4635
 21
-1.42657
  0
LINE
  8
0
 10
45.4635
 20
-1.42657
 11
45.2811
 21
-1.47342
  0
LINE
  8
0
 10
45.2811
 20
-1.47342
 11
45.0942
 21
-1.49704
  0
LINE
  8
0
 10
45.0942
 20
-1.49704
 11
44.9058
 21
-1.49704
  0
LINE
  8
0
 10
-45.0942
 20
-1.49704
 11
-45.2811
 21
-1.47342
  0
LINE
  8
0
 10
-45.2811
 20
-1.47342
 11
-45.4635
 21
-1.42657
  0
LINE
  8
0
 10
-45.4635
 20
-1.42657
 11
-45.6387
 21
-1.35724
  0
LINE
  8
0
 10
-45.6387
 20
-1.35724
 11
-45.8037
 21
-1.26648
  0
LINE
  8
0
 10
-45.8037
 20
-1.26648
 11
-45.9561
 21
-1.15576
  0
LINE
  8
0
 10
-45.9561
 20
-1.15576
 11
-46.0934
 21
-1.02681
  0
LINE
  8
0
 10
-46.0934
 20
-1.02681
 11
-46.2135
 21
-0.881668
  0
LINE
  8
0
 10
-46.2135
 20
-0.881668
 11
-46.3145
 21
-0.722626
  0
LINE
  8
0
 10
-46.3145
 20
-0.722626
 11
-46.3947
 21
-0.552185
  0
LINE
  8
0
 10
-46.3947
 20
-0.552185
 11
-46.4529
 21
-0.373032
  0
LINE
  8
0
 10
-46.4529
 20
-0.373032
 11
-46.4882
 21
-0.187988
  0
LINE
  8
0
 10
-46.4882
 20
-0.187988
 11
-46.5
 21
0
  0
LINE
  8
0
 10
-46.5
 20
0
 11
-46.4882
 21
0.187988
  0
LINE
  8
0
 10
-46.4882
 20
0.187988
 11
-46.4529
 21
0.373032
  0
LINE
  8
0
 10
-46.4529
 20
0.373032
 11
-46.3947
 21
0.552185
  0
LINE
  8
0
 10
-46.3947
 20
0.552185
 11
-46.3145
 21
0.722626
  0
LINE
  8
0
 10
-46.3145
 20
0.722626
 11
-46.2135
 21
0.881668
  0
LINE
  8
0
 10
-46.2135
 20
0.881668
 11
-46.0934
 21
1.02681
  0
LINE
  8
0
 10
-46.0934
 20
1.02681
 11
-45.9561
 21
1.15576
  0
LINE
  8
0
 10
-45.9561
 20
1.15576
 11
-45.8037
 21
1.26648
  0
LINE
  8
0
 10
-45.8037
 20
1.26648
 11
-45.6387
 21
1.35724
  0
LINE
  8
0
 10
-45.6387
 20
1.35724
 11
-45.4635
 21
1.42657
  0
LINE
  8
0
 10
-45.4635
 20
1.42657
 11
-45.2811
 21
1.47342
  0
LINE
  8
0
 10
-45.2811
 20
1.47342
 11
-45.0942
 21
1.49704
  0
LINE
  8
0
 10
-45.0942
 20
1.49704
 11
-44.9058
 21
1.49704
  0
LINE
  8
0
 10
-44.9058
 20
1.49704
 11
-44.7189
 21
1.47342
  0
LINE
  8
0
 10
-44.7189
 20
1.47342
 11
-44.5365
 21
1.42657
  0
LINE
  8
0
 10
-44.5365
 20
1.42657
 11
-44.3613
 21
1.35724
  0
LINE
  8
0
 10
-44.3613
 20
1.35724
 11
-44.1963
 21
1.26648
  0
LINE
  8
0
 10
-44.1963
 20
1.26648
 11
-44.0439
 21
1.15576
  0
LINE
  8
0
 10
-44.0439
 20
1.15576
 11
-43.9065
 21
1.02681
  0
LINE
  8
0
 10
-43.9065
 20
1.02681
 11
-43.7865
 21
0.881668
  0
LINE
  8
0
 10
-43.7865
 20
0.881668
 11
-43.6855
 21
0.722626
  0
LINE
  8
0
 10
-43.6855
 20
0.722626
 11
-43.6053
 21
0.552185
  0
LINE
  8
0
 10
-43.6053
 20
0.552185
 11
-43.5471
 21
0.373032
  0
LINE
  8
0
 10
-43.5471
 20
0.373032
 11
-43.5118
 21
0.187988
  0
LINE
  8
0
 10
-43.5118
 20
0.187988
 11
-43.5
 21
0
  0
LINE
  8
0
 10
-43.5
 20
0
 11
-43.5118
 21
-0.187988
  0
LINE
  8
0
 10
-43.5118
 20
-0.187988
 11
-43.5471
 21
-0.373032
  0
LINE
  8
0
 10
-43.5471
 20
-0.373032
 11
-43.6053
 21
-0.552185
  0
LINE
  8
0
 10
-43.6053
 20
-0.552185
 11
-43.6855
 21
-0.722626
  0
LINE
  8
0
 10
-43.6855
 20
-0.722626
 11
-43.7865
 21
-0.881668
  0
LINE
  8
0
 10
-43.7865
 20
-0.881668
 11
-43.9065
 21
-1.02681
  0
LINE
  8
0
 10
-43.9065
 20
-1.02681
 11
-44.0439
 21
-1.15576
  0
LINE
  8
0
 10
-44.0439
 20
-1.15576
 11
-44.1963
 21
-1.26648
  0
LINE
  8
0
 10
-44.1963
 20
-1.26648
 11
-44.3613
 21
-1.35724
  0
LINE
  8
0
 10
-44.3613
 20
-1.35724
 11
-44.5365
 21
-1.42657
  0
LINE
  8
0
 10
-44.5365
 20
-1.42657
 11
-44.7189
 21
-1.47342
  0
LINE
  8
0
 10
-44.7189
 20
-1.47342
 11
-44.9058
 21
-1.49704
  0
LINE
  8
0
 10
-44.9058
 20
-1.49704
 11
-45.0942
 21
-1.49704
  0
LINE
  8
0
 10
44.8116
 20
-10.4941
 11
44.4379
 21
-10.4469
  0
LINE
  8
0
 10
44.4379
 20
-10.4469
 11
44.0729
 21
-10.3532
  0
LINE
  8
0
 10
44.0729
 20
-10.3532
 11
43.7227
 21
-10.2145
  0
LINE
  8
0
 10
43.7227
 20
-10.2145
 11
43.3925
 21
-10.033
  0
LINE
  8
0
 10
43.3925
 20
-10.033
 11
43.0877
 21
-9.81154
  0
LINE
  8
0
 10
43.0877
 20
-9.81154
 11
42.8131
 21
-9.55363
  0
LINE
  8
0
 10
42.8131
 20
-9.55363
 11
42.5729
 21
-9.26335
  0
LINE
  8
0
 10
42.5729
 20
-9.26335
 11
42.3711
 21
-8.94525
  0
LINE
  8
0
 10
42.3711
 20
-8.94525
 11
42.2107
 21
-8.60437
  0
LINE
  8
0
 10
42.2107
 20
-8.60437
 11
42.0942
 21
-8.24606
  0
LINE
  8
0
 10
42.0942
 20
-8.24606
 11
42.0237
 21
-7.87599
  0
LINE
  8
0
 10
42.0237
 20
-7.87599
 11
42
 21
-7.5
  0
LINE
  8
0
 10
42
 20
-7.5
 11
42.0237
 21
-7.12399
  0
LINE
  8
0
 10
42.0237
 20
-7.12399
 11
42.0942
 21
-6.75392
  0
LINE
  8
0
 10
42.0942
 20
-6.75392
 11
42.2107
 21
-6.39561
  0
LINE
  8
0
 10
42.2107
 20
-6.39561
 11
42.3711
 21
-6.05473
  0
LINE
  8
0
 10
42.3711
 20
-6.05473
 11
42.5729
 21
-5.73663
  0
LINE
  8
0
 10
42.5729
 20
-5.73663
 11
42.8131
 21
-5.44635
  0
LINE
  8
0
 10
42.8131
 20
-5.44635
 11
43.0877
 21
-5.18845
  0
LINE
  8
0
 10
43.0877
 20
-5.18845
 11
43.3925
 21
-4.96701
  0
LINE
  8
0
 10
43.3925
 20
-4.96701
 11
43.7227
 21
-4.78551
  0
LINE
  8
0
 10
43.7227
 20
-4.78551
 11
44.0729
 21
-4.64682
  0
LINE
  8
0
 10
44.0729
 20
-4.64682
 11
44.4379
 21
-4.55313
  0
LINE
  8
0
 10
44.4379
 20
-4.55313
 11
44.8116
 21
-4.50591
  0
LINE
  8
0
 10
44.8116
 20
-4.50591
 11
45.1884
 21
-4.50591
  0
LINE
  8
0
 10
45.1884
 20
-4.50591
 11
45.5621
 21
-4.55313
  0
LINE
  8
0
 10
45.5621
 20
-4.55313
 11
45.927
 21
-4.64682
  0
LINE
  8
0
 10
45.927
 20
-4.64682
 11
46.2773
 21
-4.78551
  0
LINE
  8
0
 10
46.2773
 20
-4.78551
 11
46.6075
 21
-4.96701
  0
LINE
  8
0
 10
46.6075
 20
-4.96701
 11
46.9123
 21
-5.18845
  0
LINE
  8
0
 10
46.9123
 20
-5.18845
 11
47.1869
 21
-5.44635
  0
LINE
  8
0
 10
47.1869
 20
-5.44635
 11
47.427
 21
-5.73663
  0
LINE
  8
0
 10
47.427
 20
-5.73663
 11
47.6289
 21
-6.05473
  0
LINE
  8
0
 10
47.6289
 20
-6.05473
 11
47.7893
 21
-6.39561
  0
LINE
  8
0
 10
47.7893
 20
-6.39561
 11
47.9057
 21
-6.75392
  0
LINE
  8
0
 10
47.9057
 20
-6.75392
 11
47.9763
 21
-7.12399
  0
LINE
  8
0
 10
47.9763
 20
-7.12399
 11
48
 21
-7.5
  0
LINE
  8
0
 10
48
 20
-7.5
 11
47.9763
 21
-7.87599
  0
LINE
  8
0
 10
47.9763
 20
-7.87599
 11
47.9057
 21
-8.24606
  0
LINE
  8
0
 10
47.9057
 20
-8.24606
 11
47.7893
 21
-8.60437
  0
LINE
  8
0
 10
47.7893
 20
-8.60437
 11
47.6289
 21
-8.94525
  0
LINE
  8
0
 10
47.6289
 20
-8.94525
 11
47.427
 21
-9.26335
  0
LINE
  8
0
 10
47.427
 20
-9.26335
 11
47.1869
 21
-9.55363
  0
LINE
  8
0
 10
47.1869
 20
-9.55363
 11
46.9123
 21
-9.81154
  0
LINE
  8
0
 10
46.9123
 20
-9.81154
 11
46.6075
 21
-10.033
  0
LINE
  8
0
 10
46.6075
 20
-10.033
 11
46.2773
 21
-10.2145
  0
LINE
  8
0
 10
46.2773
 20
-10.2145
 11
45.927
 21
-10.3532
  0
LINE
  8
0
 10
45.927
 20
-10.3532
 11
45.5621
 21
-10.4469
  0
LINE
  8
0
 10
45.5621
 20
-10.4469
 11
45.1884
 21
-10.4941
  0
LINE
  8
0
 10
45.1884
 20
-10.4941
 11
44.8116
 21
-10.4941
  0
LINE
  8
0
 10
-45.1884
 20
-10.4941
 11
-45.5621
 21
-10.4469
  0
LINE
  8
0
 10
-45.5621
 20
-10.4469
 11
-45.927
 21
-10.3532
  0
LINE
  8
0
 10
-45.927
 20
-10.3532
 11
-46.2773
 21
-10.2145
  0
LINE
  8
0
 10
-46.2773
 20
-10.2145
 11
-46.6075
 21
-10.033
  0
LINE
  8
0
 10
-46.6075
 20
-10.033
 11
-46.9123
 21
-9.81154
  0
LINE
  8
0
 10
-46.9123
 20
-9.81154
 11
-47.1869
 21
-9.55363
  0
LINE
  8
0
 10
-47.1869
 20
-9.55363
 11
-47.427
 21
-9.26335
  0
LINE
  8
0
 10
-47.427
 20
-9.26335
 11
-47.6289
 21
-8.94525
  0
LINE
  8
0
 10
-47.6289
 20
-8.94525
 11
-47.7893
 21
-8.60437
  0
LINE
  8
0
 10
-47.7893
 20
-8.60437
 11
-47.9057
 21
-8.24606
  0
LINE
  8
0
 10
-47.9057
 20
-8.24606
 11
-47.9763
 21
-7.87599
  0
LINE
  8
0
 10
-47.9763
 20
-7.87599
 11
-48
 21
-7.5
  0
LINE
  8
0
 10
-48
 20
-7.5
 11
-47.9763
 21
-7.12399
  0
LINE
  8
0
 10
-47.9763
 20
-7.12399
 11
-47.9057
 21
-6.75392
  0
LINE
  8
0
 10
-47.9057
 20
-6.75392
 11
-47.7893
 21
-6.39561
  0
LINE
  8
0
 10
-47.7893
 20
-6.39561
 11
-47.6289
 21
-6.05473
  0
LINE
  8
0
 10
-47.6289
 20
-6.05473
 11
-47.427
 21
-5.73663
  0
LINE
  8
0
 10
-47.427
 20
-5.73663
 11
-47.1869
 21
-5.44635
  0
LINE
  8
0
 10
-47.1869
 20
-5.44635
 11
-46.9123
 21
-5.18845
  0
LINE
  8
0
 10
-46.9123
 20
-5.18845
 11
-46.6075
 21
-4.96701
  0
LINE
  8
0
 10
-46.6075
 20
-4.96701
 11
-46.2773
 21
-4.78551
  0
LINE
  8
0
 10
-46.2773
 20
-4.78551
 11
-45.927
 21
-4.64682
  0
LINE
  8
0
 10
-45.927
 20
-4.64682
 11
-45.5621
 21
-4.55313
  0
LINE
  8
0
 10
-45.5621
 20
-4.55313
 11
-45.1884
 21
-4.50591
  0
LINE
  8
0
 10
-45.1884
 20
-4.50591
 11
-44.8116
 21
-4.50591
  0
LINE
  8
0
 10
-44.8116
 20
-4.50591
 11
-44.4379
 21
-4.55313
  0
LINE
  8
0
 10
-44.4379
 20
-4.55313
 11
-44.0729
 21
-4.64682
  0
LINE
  8
0
 10
-44.0729
 20
-4.64682
 11
-43.7227
 21
-4.78551
  0
LINE
  8
0
 10
-43.7227
 20
-4.78551
 11
-43.3925
 21
-4.96701
  0
LINE
  8
0
 10
-43.3925
 20
-4.96701
 11
-43.0877
 21
-5.18845
  0
LINE
  8
0
 10
-43.0877
 20
-5.18845
 11
-42.8131
 21
-5.44635
  0
LINE
  8
0
 10
-42.8131
 20
-5.44635
 11
-42.5729
 21
-5.73663
  0
LINE
  8
0
 10
-42.5729
 20
-5.73663
 11
-42.3711
 21
-6.05473
  0
LINE
  8
0
 10
-42.3711
 20
-6.05473
 11
-42.2107
 21
-6.39561
  0
LINE
  8
0
 10
-42.2107
 20
-6.39561
 11
-42.0942
 21
-6.75392
  0
LINE
  8
0
 10
-42.0942
 20
-6.75392
 11
-42.0237
 21
-7.12399
  0
LINE
  8
0
 10
-42.0237
 20
-7.12399
 11
-42
 21
-7.5
  0
LINE
  8
0
 10
-42
 20
-7.5
 11
-42.0237
 21
-7.87599
  0
LINE
  8
0
 10
-42.0237
 20
-7.87599
 11
-42.0942
 21
-8.24606
  0
LINE
  8
0
 10
-42.0942
 20
-8.24606
 11
-42.2107
 21
-8.60437
  0
LINE
  8
0
 10
-42.2107
 20
-8.60437
 11
-42.3711
 21
-8.94525
  0
LINE
  8
0
 10
-42.3711
 20
-8.94525
 11
-42.5729
 21
-9.26335
  0
LINE
  8
0
 10
-42.5729
 20
-9.26335
 11
-42.8131
 21
-9.55363
  0
LINE
  8
0
 10
-42.8131
 20
-9.55363
 11
-43.0877
 21
-9.81154
  0
LINE
  8
0
 10
-43.0877
 20
-9.81154
 11
-43.3925
 21
-10.033
  0
LINE
  8
0
 10
-43.3925
 20
-10.033
 11
-43.7227
 21
-10.2145
  0
LINE
  8
0
 10
-43.7227
 20
-10.2145
 11
-44.0729
 21
-10.3532
  0
LINE
  8
0
 10
-44.0729
 20
-10.3532
 11
-44.4379
 21
-10.4469
  0
LINE
  8
0
 10
-44.4379
 20
-10.4469
 11
-44.8116
 21
-10.4941
  0
LINE
  8
0
 10
-44.8116
 20
-10.4941
 11
-45.1884
 21
-10.4941
  0
ENDSEC
  0
SECTION
  2
OBJECTS
  0
DICTIONARY
  0
ENDSEC
  0
EOF
