<?xml version="1.0" standalone="no"?>
<!DOCTYPE svg PUBLIC "-//W3C//DTD SVG 1.1//EN" "http://www.w3.org/Graphics/SVG/1.1/DTD/svg11.dtd">
<svg width="44mm" height="30mm" viewBox="-22 -54 44 30" xmlns="http://www.w3.org/2000/svg" version="1.1">
<title>OpenSCAD Model</title>
<path d="
M 17.9369,-24.5886 L 18.5451,-24.7447 L 19.1289,-24.9759 L 19.6791,-25.2784 L 20.1871,-25.6474 L 20.6448,-26.0773
 L 21.0451,-26.5611 L 21.3815,-27.0912 L 21.6489,-27.6594 L 21.8429,-28.2566 L 21.9606,-28.8733 L 22,-29.5
 L 22,-48.5 L 21.9606,-49.1267 L 21.8429,-49.7434 L 21.6489,-50.3406 L 21.3815,-50.9088 L 21.0451,-51.4389
 L 20.6448,-51.9227 L 20.1871,-52.3526 L 19.6791,-52.7216 L 19.1289,-53.0241 L 18.5451,-53.2553 L 17.9369,-53.4114
 L 17.3139,-53.4901 L -17.3139,-53.4901 L -17.9369,-53.4114 L -18.5451,-53.2553 L -19.1289,-53.0241 L -19.6791,-52.7216
 L -20.1871,-52.3526 L -20.6448,-51.9227 L -21.0451,-51.4389 L -21.3815,-50.9088 L -21.6489,-50.3406 L -21.8429,-49.7434
 L -21.9606,-49.1267 L -22,-48.5 L -22,-29.5 L -21.9606,-28.8733 L -21.8429,-28.2566 L -21.6489,-27.6594
 L -21.3815,-27.0912 L -21.0451,-26.5611 L -20.6448,-26.0773 L -20.1871,-25.6474 L -19.6791,-25.2784 L -19.1289,-24.9759
 L -18.5451,-24.7447 L -17.9369,-24.5886 L -17.3139,-24.5099 L 17.3139,-24.5099 z
M 14.8116,-43.5059 L 14.4379,-43.5531 L 14.0729,-43.6468 L 13.7227,-43.7855 L 13.3925,-43.967 L 13.0877,-44.1884
 L 12.8131,-44.4464 L 12.5729,-44.7366 L 12.3711,-45.0547 L 12.2107,-45.3956 L 12.0942,-45.7539 L 12.0237,-46.124
 L 12,-46.5 L 12.0237,-46.876 L 12.0942,-47.2461 L 12.2107,-47.6044 L 12.3711,-47.9453 L 12.5729,-48.2634
 L 12.8131,-48.5536 L 13.0877,-48.8115 L 13.3925,-49.033 L 13.7227,-49.2145 L 14.0729,-49.3532 L 14.4379,-49.4469
 L 14.8116,-49.4941 L 15.1884,-49.4941 L 15.5621,-49.4469 L 15.927,-49.3532 L 16.2773,-49.2145 L 16.6075,-49.033
 L 16.9123,-48.8115 L 17.1869,-48.5536 L 17.427,-48.2634 L 17.6289,-47.9453 L 17.7893,-47.6044 L 17.9057,-47.2461
 L 17.9763,-46.876 L 18,-46.5 L 17.9763,-46.124 L 17.9057,-45.7539 L 17.7893,-45.3956 L 17.6289,-45.0547
 L 17.427,-44.7366 L 17.1869,-44.4464 L 16.9123,-44.1884 L 16.6075,-43.967 L 16.2773,-43.7855 L 15.927,-43.6468
 L 15.5621,-43.5531 L 15.1884,-43.5059 z
M -15.1884,-43.5059 L -15.5621,-43.5531 L -15.927,-43.6468 L -16.2773,-43.7855 L -16.6075,-43.967 L -16.9123,-44.1884
 L -17.1869,-44.4464 L -17.427,-44.7366 L -17.6289,-45.0547 L -17.7893,-45.3956 L -17.9057,-45.7539 L -17.9763,-46.124
 L -18,-46.5 L -17.9763,-46.876 L -17.9057,-47.2461 L -17.7893,-47.6044 L -17.6289,-47.9453 L -17.427,-48.2634
 L -17.1869,-48.5536 L -16.9123,-48.8115 L -16.6075,-49.033 L -16.2773,-49.2145 L -15.927,-49.3532 L -15.5621,-49.4469
 L -15.1884,-49.4941 L -14.8116,-49.4941 L -14.4379,-49.4469 L -14.0729,-49.3532 L -13.7227,-49.2145 L -13.3925,-49.033
 L -13.0877,-48.8115 L -12.8131,-48.5536 L -12.5729,-48.2634 L -12.3711,-47.9453 L -12.2107,-47.6044 L -12.0942,-47.2461
 L -12.0237,-46.876 L -12,-46.5 L -12.0237,-46.124 L -12.0942,-45.7539 L -12.2107,-45.3956 L -12.3711,-45.0547
 L -12.5729,-44.7366 L -12.8131,-44.4464 L -13.0877,-44.1884 L -13.3925,-43.967 L -13.7227,-43.7855 L -14.0729,-43.6468
 L -14.4379,-43.5531 L -14.8116,-43.5059 z
M -8.34534,-33.5109 L -9.03059,-33.5974 L -9.69958,-33.7692 L -10.3418,-34.0235 L -10.947,-34.3562 L -11.5058,-34.7622
 L -12.0093,-35.235 L -12.4496,-35.7672 L -12.8197,-36.3504 L -13.1138,-36.9753 L -13.3272,-37.6322 L -13.4566,-38.3107
 L -13.5,-39 L -13.4566,-39.6893 L -13.3272,-40.3678 L -13.1138,-41.0247 L -12.8197,-41.6496 L -12.4496,-42.2328
 L -12.0093,-42.765 L -11.5058,-43.2378 L -10.947,-43.6438 L -10.3418,-43.9765 L -9.69958,-44.2308 L -9.03059,-44.4026
 L -8.34534,-44.4891 L -7.65465,-44.4891 L -6.96939,-44.4026 L -6.3004,-44.2308 L -5.6582,-43.9765 L -5.05295,-43.6438
 L -4.49416,-43.2378 L -3.99066,-42.765 L -3.5504,-42.2328 L -3.18031,-41.6496 L -2.88622,-41.0247 L -2.67279,-40.3678
 L -2.54337,-39.6893 L -2.5,-39 L -2.54337,-38.3107 L -2.67279,-37.6322 L -2.88622,-36.9753 L -3.18031,-36.3504
 L -3.5504,-35.7672 L -3.99066,-35.235 L -4.49416,-34.7622 L -5.05295,-34.3562 L -5.6582,-34.0235 L -6.3004,-33.7692
 L -6.96939,-33.5974 L -7.65465,-33.5109 z
M 7.65465,-33.5109 L 6.96939,-33.5974 L 6.3004,-33.7692 L 5.6582,-34.0235 L 5.05295,-34.3562 L 4.49416,-34.7622
 L 3.99066,-35.235 L 3.5504,-35.7672 L 3.18031,-36.3504 L 2.88622,-36.9753 L 2.67279,-37.6322 L 2.54337,-38.3107
 L 2.5,-39 L 2.54337,-39.6893 L 2.67279,-40.3678 L 2.88622,-41.0247 L 3.18031,-41.6496 L 3.5504,-42.2328
 L 3.99066,-42.765 L 4.49416,-43.2378 L 5.05295,-43.6438 L 5.6582,-43.9765 L 6.3004,-44.2308 L 6.96939,-44.4026
 L 7.65465,-44.4891 L 8.34534,-44.4891 L 9.03059,-44.4026 L 9.69958,-44.2308 L 10.3418,-43.9765 L 10.947,-43.6438
 L 11.5058,-43.2378 L 12.0093,-42.765 L 12.4496,-42.2328 L 12.8197,-41.6496 L 13.1138,-41.0247 L 13.3272,-40.3678
 L 13.4566,-39.6893 L 13.5,-39 L 13.4566,-38.3107 L 13.3272,-37.6322 L 13.1138,-36.9753 L 12.8197,-36.3504
 L 12.4496,-35.7672 L 12.0093,-35.235 L 11.5058,-34.7622 L 10.947,-34.3562 L 10.3418,-34.0235 L 9.69958,-33.7692
 L 9.03059,-33.5974 L 8.34534,-33.5109 z
M 14.8116,-28.5059 L 14.4379,-28.5531 L 14.0729,-28.6468 L 13.7227,-28.7855 L 13.3925,-28.967 L 13.0877,-29.1885
 L 12.8131,-29.4464 L 12.5729,-29.7366 L 12.3711,-30.0547 L 12.2107,-30.3956 L 12.0942,-30.7539 L 12.0237,-31.124
 L 12,-31.5 L 12.0237,-31.876 L 12.0942,-32.2461 L 12.2107,-32.6044 L 12.3711,-32.9453 L 12.5729,-33.2634
 L 12.8131,-33.5536 L 13.0877,-33.8116 L 13.3925,-34.033 L 13.7227,-34.2145 L 14.0729,-34.3532 L 14.4379,-34.4469
 L 14.8116,-34.4941 L 15.1884,-34.4941 L 15.5621,-34.4469 L 15.927,-34.3532 L 16.2773,-34.2145 L 16.6075,-34.033
 L 16.9123,-33.8116 L 17.1869,-33.5536 L 17.427,-33.2634 L 17.6289,-32.9453 L 17.7893,-32.6044 L 17.9057,-32.2461
 L 17.9763,-31.876 L 18,-31.5 L 17.9763,-31.124 L 17.9057,-30.7539 L 17.7893,-30.3956 L 17.6289,-30.0547
 L 17.427,-29.7366 L 17.1869,-29.4464 L 16.9123,-29.1885 L 16.6075,-28.967 L 16.2773,-28.7855 L 15.927,-28.6468
 L 15.5621,-28.5531 L 15.1884,-28.5059 z
M -15.1884,-28.5059 L -15.5621,-28.5531 L -15.927,-28.6468 L -16.2773,-28.7855 L -16.6075,-28.967 L -16.9123,-29.1885
 L -17.1869,-29.4464 L -17.427,-29.7366 L -17.6289,-30.0547 L -17.7893,-30.3956 L -17.9057,-30.7539 L -17.9763,-31.124
 L -18,-31.5 L -17.9763,-31.876 L -17.9057,-32.2461 L -17.7893,-32.6044 L -17.6289,-32.9453 L -17.427,-33.2634
 L -17.1869,-33.5536 L -16.9123,-33.8116 L -16.6075,-34.033 L -16.2773,-34.2145 L -15.927,-34.3532 L -15.5621,-34.4469
 L -15.1884,-34.4941 L -14.8116,-34.4941 L -14.4379,-34.4469 L -14.0729,-34.3532 L -13.7227,-34.2145 L -13.3925,-34.033
 L -13.0877,-33.8116 L -12.8131,-33.5536 L -12.5729,-33.2634 L -12.3711,-32.9453 L -12.2107,-32.6044 L -12.0942,-32.2461
 L -12.0237,-31.876 L -12,-31.5 L -12.0237,-31.124 L -12.0942,-30.7539 L -12.2107,-30.3956 L -12.3711,-30.0547
 L -12.5729,-29.7366 L -12.8131,-29.4464 L -13.0877,-29.1885 L -13.3925,-28.967 L -13.7227,-28.7855 L -14.0729,-28.6468
 L -14.4379,-28.5531 L -14.8116,-28.5059 z
" stroke="black" fill="lightgray" stroke-width="0.5"/>
</svg>
