<?xml version="1.0" standalone="no"?>
<!DOCTYPE svg PUBLIC "-//W3C//DTD SVG 1.1//EN" "http://www.w3.org/Graphics/SVG/1.1/DTD/svg11.dtd">
<svg width="224mm" height="90mm" viewBox="-112 -45 224 90" xmlns="http://www.w3.org/2000/svg" version="1.1">
<title>OpenSCAD Model</title>
<path d="
M 107.937,44.4114 L 108.545,44.2553 L 109.129,44.0241 L 109.679,43.7216 L 110.187,43.3526 L 110.645,42.9227
 L 111.045,42.4389 L 111.382,41.9088 L 111.649,41.3406 L 111.843,40.7434 L 111.961,40.1267 L 112,39.5
 L 112,-39.5 L 111.961,-40.1267 L 111.843,-40.7434 L 111.649,-41.3406 L 111.382,-41.9088 L 111.045,-42.4389
 L 110.645,-42.9227 L 110.187,-43.3526 L 109.679,-43.7216 L 109.129,-44.0241 L 108.545,-44.2553 L 107.937,-44.4114
 L 107.314,-44.4901 L -107.314,-44.4901 L -107.937,-44.4114 L -108.545,-44.2553 L -109.129,-44.0241 L -109.679,-43.7216
 L -110.187,-43.3526 L -110.645,-42.9227 L -111.045,-42.4389 L -111.382,-41.9088 L -111.649,-41.3406 L -111.843,-40.7434
 L -111.961,-40.1267 L -112,-39.5 L -112,39.5 L -111.961,40.1267 L -111.843,40.7434 L -111.649,41.3406
 L -111.382,41.9088 L -111.045,42.4389 L -110.645,42.9227 L -110.187,43.3526 L -109.679,43.7216 L -109.129,44.0241
 L -108.545,44.2553 L -107.937,44.4114 L -107.314,44.4901 L 107.314,44.4901 z
M -105.188,-34.5059 L -105.562,-34.5531 L -105.927,-34.6468 L -106.277,-34.7855 L -106.607,-34.967 L -106.912,-35.1885
 L -107.187,-35.4464 L -107.427,-35.7366 L -107.629,-36.0547 L -107.789,-36.3956 L -107.906,-36.7539 L -107.976,-37.124
 L -108,-37.5 L -107.976,-37.876 L -107.906,-38.2461 L -107.789,-38.6044 L -107.629,-38.9453 L -107.427,-39.2634
 L -107.187,-39.5536 L -106.912,-39.8115 L -106.607,-40.033 L -106.277,-40.2145 L -105.927,-40.3532 L -105.562,-40.4469
 L -105.188,-40.4941 L -104.812,-40.4941 L -104.438,-40.4469 L -104.073,-40.3532 L -103.723,-40.2145 L -103.393,-40.033
 L -103.088,-39.8115 L -102.813,-39.5536 L -102.573,-39.2634 L -102.371,-38.9453 L -102.211,-38.6044 L -102.094,-38.2461
 L -102.024,-37.876 L -102,-37.5 L -102.024,-37.124 L -102.094,-36.7539 L -102.211,-36.3956 L -102.371,-36.0547
 L -102.573,-35.7366 L -102.813,-35.4464 L -103.088,-35.1885 L -103.393,-34.967 L -103.723,-34.7855 L -104.073,-34.6468
 L -104.438,-34.5531 L -104.812,-34.5059 z
M 104.812,-34.5059 L 104.438,-34.5531 L 104.073,-34.6468 L 103.723,-34.7855 L 103.393,-34.967 L 103.088,-35.1885
 L 102.813,-35.4464 L 102.573,-35.7366 L 102.371,-36.0547 L 102.211,-36.3956 L 102.094,-36.7539 L 102.024,-37.124
 L 102,-37.5 L 102.024,-37.876 L 102.094,-38.2461 L 102.211,-38.6044 L 102.371,-38.9453 L 102.573,-39.2634
 L 102.813,-39.5536 L 103.088,-39.8115 L 103.393,-40.033 L 103.723,-40.2145 L 104.073,-40.3532 L 104.438,-40.4469
 L 104.812,-40.4941 L 105.188,-40.4941 L 105.562,-40.4469 L 105.927,-40.3532 L 106.277,-40.2145 L 106.607,-40.033
 L 106.912,-39.8115 L 107.187,-39.5536 L 107.427,-39.2634 L 107.629,-38.9453 L 107.789,-38.6044 L 107.906,-38.2461
 L 107.976,-37.876 L 108,-37.5 L 107.976,-37.124 L 107.906,-36.7539 L 107.789,-36.3956 L 107.629,-36.0547
 L 107.427,-35.7366 L 107.187,-35.4464 L 106.912,-35.1885 L 106.607,-34.967 L 106.277,-34.7855 L 105.927,-34.6468
 L 105.562,-34.5531 L 105.188,-34.5059 z
M -75.1349,33.9329 L -79.371,33.3978 L -83.5066,32.3359 L -87.4765,30.7641 L -91.2181,28.7071 L -94.6724,26.1974
 L -97.7849,23.2746 L -100.507,19.9847 L -102.794,16.3796 L -104.612,12.5162 L -105.932,8.45544 L -106.732,4.26132
 L -107,-0 L -106.732,-4.26132 L -105.932,-8.45544 L -104.612,-12.5162 L -102.794,-16.3796 L -100.507,-19.9847
 L -97.7849,-23.2746 L -94.6724,-26.1974 L -91.2181,-28.7071 L -87.4765,-30.7641 L -83.5066,-32.3359 L -79.371,-33.3978
 L -75.1349,-33.9329 L -70.8651,-33.9329 L -66.629,-33.3978 L -62.4934,-32.3359 L -58.5235,-30.7641 L -54.7819,-28.7071
 L -51.3276,-26.1974 L -48.2151,-23.2746 L -45.4934,-19.9847 L -43.2056,-16.3796 L -41.3876,-12.5162 L -40.0682,-8.45544
 L -39.2681,-4.26132 L -39,-0 L -39.2681,4.26132 L -40.0682,8.45544 L -41.3876,12.5162 L -43.2056,16.3796
 L -45.4934,19.9847 L -48.2151,23.2746 L -51.3276,26.1974 L -54.7819,28.7071 L -58.5235,30.7641 L -62.4934,32.3359
 L -66.629,33.3978 L -70.8651,33.9329 z
M 70.8651,33.9329 L 66.629,33.3978 L 62.4934,32.3359 L 58.5235,30.7641 L 54.7819,28.7071 L 51.3276,26.1974
 L 48.2151,23.2746 L 45.4934,19.9847 L 43.2056,16.3796 L 41.3876,12.5162 L 40.0682,8.45544 L 39.2681,4.26132
 L 39,-0 L 39.2681,-4.26132 L 40.0682,-8.45544 L 41.3876,-12.5162 L 43.2056,-16.3796 L 45.4934,-19.9847
 L 48.2151,-23.2746 L 51.3276,-26.1974 L 54.7819,-28.7071 L 58.5235,-30.7641 L 62.4934,-32.3359 L 66.629,-33.3978
 L 70.8651,-33.9329 L 75.1349,-33.9329 L 79.371,-33.3978 L 83.5066,-32.3359 L 87.4765,-30.7641 L 91.2181,-28.7071
 L 94.6724,-26.1974 L 97.7849,-23.2746 L 100.507,-19.9847 L 102.794,-16.3796 L 104.612,-12.5162 L 105.932,-8.45544
 L 106.732,-4.26132 L 107,-0 L 106.732,4.26132 L 105.932,8.45544 L 104.612,12.5162 L 102.794,16.3796
 L 100.507,19.9847 L 97.7849,23.2746 L 94.6724,26.1974 L 91.2181,28.7071 L 87.4765,30.7641 L 83.5066,32.3359
 L 79.371,33.3978 L 75.1349,33.9329 z
M -2.13487,33.9329 L -6.37096,33.3978 L -10.5066,32.3359 L -14.4765,30.7641 L -18.2181,28.7071 L -21.6724,26.1974
 L -24.7849,23.2746 L -27.5066,19.9847 L -29.7944,16.3796 L -31.6124,12.5162 L -32.9318,8.45544 L -33.7319,4.26132
 L -34,-0 L -33.7319,-4.26132 L -32.9318,-8.45544 L -31.6124,-12.5162 L -29.7944,-16.3796 L -27.5066,-19.9847
 L -24.7849,-23.2746 L -21.6724,-26.1974 L -18.2181,-28.7071 L -14.4765,-30.7641 L -10.5066,-32.3359 L -6.37096,-33.3978
 L -2.13487,-33.9329 L 2.13487,-33.9329 L 6.37096,-33.3978 L 10.5066,-32.3359 L 14.4765,-30.7641 L 18.2181,-28.7071
 L 21.6724,-26.1974 L 24.7849,-23.2746 L 27.5066,-19.9847 L 29.7944,-16.3796 L 31.6124,-12.5162 L 32.9318,-8.45544
 L 33.7319,-4.26132 L 34,-0 L 33.7319,4.26132 L 32.9318,8.45544 L 31.6124,12.5162 L 29.7944,16.3796
 L 27.5066,19.9847 L 24.7849,23.2746 L 21.6724,26.1974 L 18.2181,28.7071 L 14.4765,30.7641 L 10.5066,32.3359
 L 6.37096,33.3978 L 2.13487,33.9329 z
M -105.188,40.4941 L -105.562,40.4469 L -105.927,40.3532 L -106.277,40.2145 L -106.607,40.033 L -106.912,39.8115
 L -107.187,39.5536 L -107.427,39.2634 L -107.629,38.9453 L -107.789,38.6044 L -107.906,38.2461 L -107.976,37.876
 L -108,37.5 L -107.976,37.124 L -107.906,36.7539 L -107.789,36.3956 L -107.629,36.0547 L -107.427,35.7366
 L -107.187,35.4464 L -106.912,35.1885 L -106.607,34.967 L -106.277,34.7855 L -105.927,34.6468 L -105.562,34.5531
 L -105.188,34.5059 L -104.812,34.5059 L -104.438,34.5531 L -104.073,34.6468 L -103.723,34.7855 L -103.393,34.967
 L -103.088,35.1885 L -102.813,35.4464 L -102.573,35.7366 L -102.371,36.0547 L -102.211,36.3956 L -102.094,36.7539
 L -102.024,37.124 L -102,37.5 L -102.024,37.876 L -102.094,38.2461 L -102.211,38.6044 L -102.371,38.9453
 L -102.573,39.2634 L -102.813,39.5536 L -103.088,39.8115 L -103.393,40.033 L -103.723,40.2145 L -104.073,40.3532
 L -104.438,40.4469 L -104.812,40.4941 z
M 104.812,40.4941 L 104.438,40.4469 L 104.073,40.3532 L 103.723,40.2145 L 103.393,40.033 L 103.088,39.8115
 L 102.813,39.5536 L 102.573,39.2634 L 102.371,38.9453 L 102.211,38.6044 L 102.094,38.2461 L 102.024,37.876
 L 102,37.5 L 102.024,37.124 L 102.094,36.7539 L 102.211,36.3956 L 102.371,36.0547 L 102.573,35.7366
 L 102.813,35.4464 L 103.088,35.1885 L 103.393,34.967 L 103.723,34.7855 L 104.073,34.6468 L 104.438,34.5531
 L 104.812,34.5059 L 105.188,34.5059 L 105.562,34.5531 L 105.927,34.6468 L 106.277,34.7855 L 106.607,34.967
 L 106.912,35.1885 L 107.187,35.4464 L 107.427,35.7366 L 107.629,36.0547 L 107.789,36.3956 L 107.906,36.7539
 L 107.976,37.124 L 108,37.5 L 107.976,37.876 L 107.906,38.2461 L 107.789,38.6044 L 107.629,38.9453
 L 107.427,39.2634 L 107.187,39.5536 L 106.912,39.8115 L 106.607,40.033 L 106.277,40.2145 L 105.927,40.3532
 L 105.562,40.4469 L 105.188,40.4941 z
" stroke="black" fill="lightgray" stroke-width="0.5"/>
</svg>
