<?xml version="1.0" standalone="no"?>
<!DOCTYPE svg PUBLIC "-//W3C//DTD SVG 1.1//EN" "http://www.w3.org/Graphics/SVG/1.1/DTD/svg11.dtd">
<svg width="300mm" height="74mm" viewBox="-150 -37 300 74" xmlns="http://www.w3.org/2000/svg" version="1.1">
<title>OpenSCAD Model</title>
<path d="
M 145.437,36.9114 L 146.045,36.7553 L 146.629,36.5241 L 147.179,36.2216 L 147.687,35.8526 L 148.145,35.4227
 L 148.545,34.9389 L 148.882,34.4088 L 149.149,33.8406 L 149.343,33.2434 L 149.461,32.6267 L 149.5,32
 L 149.5,-32 L 149.461,-32.6267 L 149.343,-33.2434 L 149.149,-33.8406 L 148.882,-34.4088 L 148.545,-34.9389
 L 148.145,-35.4227 L 147.687,-35.8526 L 147.179,-36.2216 L 146.629,-36.5241 L 146.045,-36.7553 L 145.437,-36.9114
 L 144.814,-36.9901 L -144.814,-36.9901 L -145.437,-36.9114 L -146.045,-36.7553 L -146.629,-36.5241 L -147.179,-36.2216
 L -147.687,-35.8526 L -148.145,-35.4227 L -148.545,-34.9389 L -148.882,-34.4088 L -149.149,-33.8406 L -149.343,-33.2434
 L -149.461,-32.6267 L -149.5,-32 L -149.5,32 L -149.461,32.6267 L -149.343,33.2434 L -149.149,33.8406
 L -148.882,34.4088 L -148.545,34.9389 L -148.145,35.4227 L -147.687,35.8526 L -147.179,36.2216 L -146.629,36.5241
 L -146.045,36.7553 L -145.437,36.9114 L -144.814,36.9901 L 144.814,36.9901 z
M 142.312,-27.0059 L 141.938,-27.0531 L 141.573,-27.1468 L 141.223,-27.2855 L 140.893,-27.467 L 140.588,-27.6884
 L 140.313,-27.9464 L 140.073,-28.2366 L 139.871,-28.5547 L 139.711,-28.8956 L 139.594,-29.2539 L 139.524,-29.624
 L 139.5,-30 L 139.524,-30.376 L 139.594,-30.7461 L 139.711,-31.1044 L 139.871,-31.4453 L 140.073,-31.7634
 L 140.313,-32.0536 L 140.588,-32.3115 L 140.893,-32.533 L 141.223,-32.7145 L 141.573,-32.8532 L 141.938,-32.9469
 L 142.312,-32.9941 L 142.688,-32.9941 L 143.062,-32.9469 L 143.427,-32.8532 L 143.777,-32.7145 L 144.107,-32.533
 L 144.412,-32.3115 L 144.687,-32.0536 L 144.927,-31.7634 L 145.129,-31.4453 L 145.289,-31.1044 L 145.406,-30.7461
 L 145.476,-30.376 L 145.5,-30 L 145.476,-29.624 L 145.406,-29.2539 L 145.289,-28.8956 L 145.129,-28.5547
 L 144.927,-28.2366 L 144.687,-27.9464 L 144.412,-27.6884 L 144.107,-27.467 L 143.777,-27.2855 L 143.427,-27.1468
 L 143.062,-27.0531 L 142.688,-27.0059 z
M -142.688,-27.0059 L -143.062,-27.0531 L -143.427,-27.1468 L -143.777,-27.2855 L -144.107,-27.467 L -144.412,-27.6884
 L -144.687,-27.9464 L -144.927,-28.2366 L -145.129,-28.5547 L -145.289,-28.8956 L -145.406,-29.2539 L -145.476,-29.624
 L -145.5,-30 L -145.476,-30.376 L -145.406,-30.7461 L -145.289,-31.1044 L -145.129,-31.4453 L -144.927,-31.7634
 L -144.687,-32.0536 L -144.412,-32.3115 L -144.107,-32.533 L -143.777,-32.7145 L -143.427,-32.8532 L -143.062,-32.9469
 L -142.688,-32.9941 L -142.312,-32.9941 L -141.938,-32.9469 L -141.573,-32.8532 L -141.223,-32.7145 L -140.893,-32.533
 L -140.588,-32.3115 L -140.313,-32.0536 L -140.073,-31.7634 L -139.871,-31.4453 L -139.711,-31.1044 L -139.594,-30.7461
 L -139.524,-30.376 L -139.5,-30 L -139.524,-29.624 L -139.594,-29.2539 L -139.711,-28.8956 L -139.871,-28.5547
 L -140.073,-28.2366 L -140.313,-27.9464 L -140.588,-27.6884 L -140.893,-27.467 L -141.223,-27.2855 L -141.573,-27.1468
 L -141.938,-27.0531 L -142.312,-27.0059 z
M -119.695,26.9467 L -123.059,26.5217 L -126.343,25.6785 L -129.496,24.4303 L -132.467,22.7968 L -135.21,20.8038
 L -137.682,18.4828 L -139.843,15.8702 L -141.66,13.0073 L -143.104,9.93936 L -144.152,6.71461 L -144.787,3.38399
 L -145,-0 L -144.787,-3.38399 L -144.152,-6.71461 L -143.104,-9.93936 L -141.66,-13.0073 L -139.843,-15.8702
 L -137.682,-18.4828 L -135.21,-20.8038 L -132.467,-22.7968 L -129.496,-24.4303 L -126.343,-25.6785 L -123.059,-26.5217
 L -119.695,-26.9467 L -116.305,-26.9467 L -112.941,-26.5217 L -109.657,-25.6785 L -106.504,-24.4303 L -103.533,-22.7968
 L -100.79,-20.8038 L -98.3178,-18.4828 L -96.1565,-15.8702 L -94.3397,-13.0073 L -92.896,-9.93936 L -91.8483,-6.71461
 L -91.2129,-3.38399 L -91,-0 L -91.2129,3.38399 L -91.8483,6.71461 L -92.896,9.93936 L -94.3397,13.0073
 L -96.1565,15.8702 L -98.3178,18.4828 L -100.79,20.8038 L -103.533,22.7968 L -106.504,24.4303 L -109.657,25.6785
 L -112.941,26.5217 L -116.305,26.9467 z
M -60.6953,26.9467 L -64.0593,26.5217 L -67.3435,25.6785 L -70.496,24.4303 L -73.4673,22.7968 L -76.2104,20.8038
 L -78.6821,18.4828 L -80.8435,15.8702 L -82.6603,13.0073 L -84.104,9.93936 L -85.1517,6.71461 L -85.7871,3.38399
 L -86,-0 L -85.7871,-3.38399 L -85.1517,-6.71461 L -84.104,-9.93936 L -82.6603,-13.0073 L -80.8435,-15.8702
 L -78.6821,-18.4828 L -76.2104,-20.8038 L -73.4673,-22.7968 L -70.496,-24.4303 L -67.3435,-25.6785 L -64.0593,-26.5217
 L -60.6953,-26.9467 L -57.3047,-26.9467 L -53.9407,-26.5217 L -50.6565,-25.6785 L -47.504,-24.4303 L -44.5327,-22.7968
 L -41.7896,-20.8038 L -39.3178,-18.4828 L -37.1565,-15.8702 L -35.3397,-13.0073 L -33.896,-9.93936 L -32.8483,-6.71461
 L -32.2129,-3.38399 L -32,-0 L -32.2129,3.38399 L -32.8483,6.71461 L -33.896,9.93936 L -35.3397,13.0073
 L -37.1565,15.8702 L -39.3178,18.4828 L -41.7896,20.8038 L -44.5327,22.7968 L -47.504,24.4303 L -50.6565,25.6785
 L -53.9407,26.5217 L -57.3047,26.9467 z
M 57.3047,26.9467 L 53.9407,26.5217 L 50.6565,25.6785 L 47.504,24.4303 L 44.5327,22.7968 L 41.7896,20.8038
 L 39.3178,18.4828 L 37.1565,15.8702 L 35.3397,13.0073 L 33.896,9.93936 L 32.8483,6.71461 L 32.2129,3.38399
 L 32,-0 L 32.2129,-3.38399 L 32.8483,-6.71461 L 33.896,-9.93936 L 35.3397,-13.0073 L 37.1565,-15.8702
 L 39.3178,-18.4828 L 41.7896,-20.8038 L 44.5327,-22.7968 L 47.504,-24.4303 L 50.6565,-25.6785 L 53.9407,-26.5217
 L 57.3047,-26.9467 L 60.6953,-26.9467 L 64.0593,-26.5217 L 67.3435,-25.6785 L 70.496,-24.4303 L 73.4673,-22.7968
 L 76.2104,-20.8038 L 78.6821,-18.4828 L 80.8435,-15.8702 L 82.6603,-13.0073 L 84.104,-9.93936 L 85.1517,-6.71461
 L 85.7871,-3.38399 L 86,-0 L 85.7871,3.38399 L 85.1517,6.71461 L 84.104,9.93936 L 82.6603,13.0073
 L 80.8435,15.8702 L 78.6821,18.4828 L 76.2104,20.8038 L 73.4673,22.7968 L 70.496,24.4303 L 67.3435,25.6785
 L 64.0593,26.5217 L 60.6953,26.9467 z
M 116.305,26.9467 L 112.941,26.5217 L 109.657,25.6785 L 106.504,24.4303 L 103.533,22.7968 L 100.79,20.8038
 L 98.3178,18.4828 L 96.1565,15.8702 L 94.3397,13.0073 L 92.896,9.93936 L 91.8483,6.71461 L 91.2129,3.38399
 L 91,-0 L 91.2129,-3.38399 L 91.8483,-6.71461 L 92.896,-9.93936 L 94.3397,-13.0073 L 96.1565,-15.8702
 L 98.3178,-18.4828 L 100.79,-20.8038 L 103.533,-22.7968 L 106.504,-24.4303 L 109.657,-25.6785 L 112.941,-26.5217
 L 116.305,-26.9467 L 119.695,-26.9467 L 123.059,-26.5217 L 126.343,-25.6785 L 129.496,-24.4303 L 132.467,-22.7968
 L 135.21,-20.8038 L 137.682,-18.4828 L 139.843,-15.8702 L 141.66,-13.0073 L 143.104,-9.93936 L 144.152,-6.71461
 L 144.787,-3.38399 L 145,-0 L 144.787,3.38399 L 144.152,6.71461 L 143.104,9.93936 L 141.66,13.0073
 L 139.843,15.8702 L 137.682,18.4828 L 135.21,20.8038 L 132.467,22.7968 L 129.496,24.4303 L 126.343,25.6785
 L 123.059,26.5217 L 119.695,26.9467 z
M -1.69534,26.9467 L -5.05928,26.5217 L -8.34344,25.6785 L -11.496,24.4303 L -14.4673,22.7968 L -17.2104,20.8038
 L -19.6821,18.4828 L -21.8434,15.8702 L -23.6603,13.0073 L -25.104,9.93936 L -26.1517,6.71461 L -26.7871,3.38399
 L -27,-0 L -26.7871,-3.38399 L -26.1517,-6.71461 L -25.104,-9.93936 L -23.6603,-13.0073 L -21.8434,-15.8702
 L -19.6821,-18.4828 L -17.2104,-20.8038 L -14.4673,-22.7968 L -11.496,-24.4303 L -8.34344,-25.6785 L -5.05928,-26.5217
 L -1.69534,-26.9467 L 1.69534,-26.9467 L 5.05928,-26.5217 L 8.34344,-25.6785 L 11.496,-24.4303 L 14.4673,-22.7968
 L 17.2104,-20.8038 L 19.6821,-18.4828 L 21.8434,-15.8702 L 23.6603,-13.0073 L 25.104,-9.93936 L 26.1517,-6.71461
 L 26.7871,-3.38399 L 27,-0 L 26.7871,3.38399 L 26.1517,6.71461 L 25.104,9.93936 L 23.6603,13.0073
 L 21.8434,15.8702 L 19.6821,18.4828 L 17.2104,20.8038 L 14.4673,22.7968 L 11.496,24.4303 L 8.34344,25.6785
 L 5.05928,26.5217 L 1.69534,26.9467 z
M 142.312,32.9941 L 141.938,32.9469 L 141.573,32.8532 L 141.223,32.7145 L 140.893,32.533 L 140.588,32.3115
 L 140.313,32.0536 L 140.073,31.7634 L 139.871,31.4453 L 139.711,31.1044 L 139.594,30.7461 L 139.524,30.376
 L 139.5,30 L 139.524,29.624 L 139.594,29.2539 L 139.711,28.8956 L 139.871,28.5547 L 140.073,28.2366
 L 140.313,27.9464 L 140.588,27.6884 L 140.893,27.467 L 141.223,27.2855 L 141.573,27.1468 L 141.938,27.0531
 L 142.312,27.0059 L 142.688,27.0059 L 143.062,27.0531 L 143.427,27.1468 L 143.777,27.2855 L 144.107,27.467
 L 144.412,27.6884 L 144.687,27.9464 L 144.927,28.2366 L 145.129,28.5547 L 145.289,28.8956 L 145.406,29.2539
 L 145.476,29.624 L 145.5,30 L 145.476,30.376 L 145.406,30.7461 L 145.289,31.1044 L 145.129,31.4453
 L 144.927,31.7634 L 144.687,32.0536 L 144.412,32.3115 L 144.107,32.533 L 143.777,32.7145 L 143.427,32.8532
 L 143.062,32.9469 L 142.688,32.9941 z
M -142.688,32.9941 L -143.062,32.9469 L -143.427,32.8532 L -143.777,32.7145 L -144.107,32.533 L -144.412,32.3115
 L -144.687,32.0536 L -144.927,31.7634 L -145.129,31.4453 L -145.289,31.1044 L -145.406,30.7461 L -145.476,30.376
 L -145.5,30 L -145.476,29.624 L -145.406,29.2539 L -145.289,28.8956 L -145.129,28.5547 L -144.927,28.2366
 L -144.687,27.9464 L -144.412,27.6884 L -144.107,27.467 L -143.777,27.2855 L -143.427,27.1468 L -143.062,27.0531
 L -142.688,27.0059 L -142.312,27.0059 L -141.938,27.0531 L -141.573,27.1468 L -141.223,27.2855 L -140.893,27.467
 L -140.588,27.6884 L -140.313,27.9464 L -140.073,28.2366 L -139.871,28.5547 L -139.711,28.8956 L -139.594,29.2539
 L -139.524,29.624 L -139.5,30 L -139.524,30.376 L -139.594,30.7461 L -139.711,31.1044 L -139.871,31.4453
 L -140.073,31.7634 L -140.313,32.0536 L -140.588,32.3115 L -140.893,32.533 L -141.223,32.7145 L -141.573,32.8532
 L -141.938,32.9469 L -142.312,32.9941 z
" stroke="black" fill="lightgray" stroke-width="0.5"/>
</svg>
