<?xml version="1.0" standalone="no"?>
<!DOCTYPE svg PUBLIC "-//W3C//DTD SVG 1.1//EN" "http://www.w3.org/Graphics/SVG/1.1/DTD/svg11.dtd">
<svg width="330mm" height="90mm" viewBox="-165 -45 330 90" xmlns="http://www.w3.org/2000/svg" version="1.1">
<title>OpenSCAD Model</title>
<path d="
M 160.437,44.4114 L 161.045,44.2553 L 161.629,44.0241 L 162.179,43.7216 L 162.687,43.3526 L 163.145,42.9227
 L 163.545,42.4389 L 163.882,41.9088 L 164.149,41.3406 L 164.343,40.7434 L 164.461,40.1267 L 164.5,39.5
 L 164.5,-39.5 L 164.461,-40.1267 L 164.343,-40.7434 L 164.149,-41.3406 L 163.882,-41.9088 L 163.545,-42.4389
 L 163.145,-42.9227 L 162.687,-43.3526 L 162.179,-43.7216 L 161.629,-44.0241 L 161.045,-44.2553 L 160.437,-44.4114
 L 159.814,-44.4901 L -159.814,-44.4901 L -160.437,-44.4114 L -161.045,-44.2553 L -161.629,-44.0241 L -162.179,-43.7216
 L -162.687,-43.3526 L -163.145,-42.9227 L -163.545,-42.4389 L -163.882,-41.9088 L -164.149,-41.3406 L -164.343,-40.7434
 L -164.461,-40.1267 L -164.5,-39.5 L -164.5,39.5 L -164.461,40.1267 L -164.343,40.7434 L -164.149,41.3406
 L -163.882,41.9088 L -163.545,42.4389 L -163.145,42.9227 L -162.687,43.3526 L -162.179,43.7216 L -161.629,44.0241
 L -161.045,44.2553 L -160.437,44.4114 L -159.814,44.4901 L 159.814,44.4901 z
M -157.688,-34.5059 L -158.062,-34.5531 L -158.427,-34.6468 L -158.777,-34.7855 L -159.107,-34.967 L -159.412,-35.1885
 L -159.687,-35.4464 L -159.927,-35.7366 L -160.129,-36.0547 L -160.289,-36.3956 L -160.406,-36.7539 L -160.476,-37.124
 L -160.5,-37.5 L -160.476,-37.876 L -160.406,-38.2461 L -160.289,-38.6044 L -160.129,-38.9453 L -159.927,-39.2634
 L -159.687,-39.5536 L -159.412,-39.8115 L -159.107,-40.033 L -158.777,-40.2145 L -158.427,-40.3532 L -158.062,-40.4469
 L -157.688,-40.4941 L -157.312,-40.4941 L -156.938,-40.4469 L -156.573,-40.3532 L -156.223,-40.2145 L -155.893,-40.033
 L -155.588,-39.8115 L -155.313,-39.5536 L -155.073,-39.2634 L -154.871,-38.9453 L -154.711,-38.6044 L -154.594,-38.2461
 L -154.524,-37.876 L -154.5,-37.5 L -154.524,-37.124 L -154.594,-36.7539 L -154.711,-36.3956 L -154.871,-36.0547
 L -155.073,-35.7366 L -155.313,-35.4464 L -155.588,-35.1885 L -155.893,-34.967 L -156.223,-34.7855 L -156.573,-34.6468
 L -156.938,-34.5531 L -157.312,-34.5059 z
M 157.312,-34.5059 L 156.938,-34.5531 L 156.573,-34.6468 L 156.223,-34.7855 L 155.893,-34.967 L 155.588,-35.1885
 L 155.313,-35.4464 L 155.073,-35.7366 L 154.871,-36.0547 L 154.711,-36.3956 L 154.594,-36.7539 L 154.524,-37.124
 L 154.5,-37.5 L 154.524,-37.876 L 154.594,-38.2461 L 154.711,-38.6044 L 154.871,-38.9453 L 155.073,-39.2634
 L 155.313,-39.5536 L 155.588,-39.8115 L 155.893,-40.033 L 156.223,-40.2145 L 156.573,-40.3532 L 156.938,-40.4469
 L 157.312,-40.4941 L 157.688,-40.4941 L 158.062,-40.4469 L 158.427,-40.3532 L 158.777,-40.2145 L 159.107,-40.033
 L 159.412,-39.8115 L 159.687,-39.5536 L 159.927,-39.2634 L 160.129,-38.9453 L 160.289,-38.6044 L 160.406,-38.2461
 L 160.476,-37.876 L 160.5,-37.5 L 160.476,-37.124 L 160.406,-36.7539 L 160.289,-36.3956 L 160.129,-36.0547
 L 159.927,-35.7366 L 159.687,-35.4464 L 159.412,-35.1885 L 159.107,-34.967 L 158.777,-34.7855 L 158.427,-34.6468
 L 158.062,-34.5531 L 157.688,-34.5059 z
M 119.114,37.925 L 114.38,37.3269 L 109.757,36.1401 L 105.32,34.3834 L 101.139,32.0845 L 97.2779,29.2795
 L 93.7992,26.0128 L 90.7574,22.3358 L 88.2003,18.3066 L 86.1685,13.9887 L 84.6938,9.45021 L 83.7996,4.76265
 L 83.5,-0 L 83.7996,-4.76265 L 84.6938,-9.45021 L 86.1685,-13.9887 L 88.2003,-18.3066 L 90.7574,-22.3358
 L 93.7992,-26.0128 L 97.2779,-29.2795 L 101.139,-32.0845 L 105.32,-34.3834 L 109.757,-36.1401 L 114.38,-37.3269
 L 119.114,-37.925 L 123.886,-37.925 L 128.62,-37.3269 L 133.243,-36.1401 L 137.68,-34.3834 L 141.861,-32.0845
 L 145.722,-29.2795 L 149.201,-26.0128 L 152.243,-22.3358 L 154.8,-18.3066 L 156.832,-13.9887 L 158.306,-9.45021
 L 159.2,-4.76265 L 159.5,-0 L 159.2,4.76265 L 158.306,9.45021 L 156.832,13.9887 L 154.8,18.3066
 L 152.243,22.3358 L 149.201,26.0128 L 145.722,29.2795 L 141.861,32.0845 L 137.68,34.3834 L 133.243,36.1401
 L 128.62,37.3269 L 123.886,37.925 z
M -123.886,37.925 L -128.62,37.3269 L -133.243,36.1401 L -137.68,34.3834 L -141.861,32.0845 L -145.722,29.2795
 L -149.201,26.0128 L -152.243,22.3358 L -154.8,18.3066 L -156.832,13.9887 L -158.306,9.45021 L -159.2,4.76265
 L -159.5,-0 L -159.2,-4.76265 L -158.306,-9.45021 L -156.832,-13.9887 L -154.8,-18.3066 L -152.243,-22.3358
 L -149.201,-26.0128 L -145.722,-29.2795 L -141.861,-32.0845 L -137.68,-34.3834 L -133.243,-36.1401 L -128.62,-37.3269
 L -123.886,-37.925 L -119.114,-37.925 L -114.38,-37.3269 L -109.757,-36.1401 L -105.32,-34.3834 L -101.139,-32.0845
 L -97.2779,-29.2795 L -93.7992,-26.0128 L -90.7574,-22.3358 L -88.2003,-18.3066 L -86.1685,-13.9887 L -84.6938,-9.45021
 L -83.7996,-4.76265 L -83.5,-0 L -83.7996,4.76265 L -84.6938,9.45021 L -86.1685,13.9887 L -88.2003,18.3066
 L -90.7574,22.3358 L -93.7992,26.0128 L -97.2779,29.2795 L -101.139,32.0845 L -105.32,34.3834 L -109.757,36.1401
 L -114.38,37.3269 L -119.114,37.925 z
M 38.114,37.925 L 33.3795,37.3269 L 28.7574,36.1401 L 24.3204,34.3834 L 20.1386,32.0845 L 16.2779,29.2795
 L 12.7992,26.0128 L 9.75734,22.3358 L 7.20033,18.3066 L 5.16849,13.9887 L 3.69383,9.45021 L 2.79964,4.76265
 L 2.5,-0 L 2.79964,-4.76265 L 3.69383,-9.45021 L 5.16849,-13.9887 L 7.20033,-18.3066 L 9.75734,-22.3358
 L 12.7992,-26.0128 L 16.2779,-29.2795 L 20.1386,-32.0845 L 24.3204,-34.3834 L 28.7574,-36.1401 L 33.3795,-37.3269
 L 38.114,-37.925 L 42.886,-37.925 L 47.6205,-37.3269 L 52.2426,-36.1401 L 56.6796,-34.3834 L 60.8614,-32.0845
 L 64.7221,-29.2795 L 68.2008,-26.0128 L 71.2426,-22.3358 L 73.7997,-18.3066 L 75.8315,-13.9887 L 77.3062,-9.45021
 L 78.2003,-4.76265 L 78.5,-0 L 78.2003,4.76265 L 77.3062,9.45021 L 75.8315,13.9887 L 73.7997,18.3066
 L 71.2426,22.3358 L 68.2008,26.0128 L 64.7221,29.2795 L 60.8614,32.0845 L 56.6796,34.3834 L 52.2426,36.1401
 L 47.6205,37.3269 L 42.886,37.925 z
M -42.886,37.925 L -47.6205,37.3269 L -52.2426,36.1401 L -56.6796,34.3834 L -60.8614,32.0845 L -64.7221,29.2795
 L -68.2008,26.0128 L -71.2426,22.3358 L -73.7997,18.3066 L -75.8315,13.9887 L -77.3062,9.45021 L -78.2003,4.76265
 L -78.5,-0 L -78.2003,-4.76265 L -77.3062,-9.45021 L -75.8315,-13.9887 L -73.7997,-18.3066 L -71.2426,-22.3358
 L -68.2008,-26.0128 L -64.7221,-29.2795 L -60.8614,-32.0845 L -56.6796,-34.3834 L -52.2426,-36.1401 L -47.6205,-37.3269
 L -42.886,-37.925 L -38.114,-37.925 L -33.3795,-37.3269 L -28.7574,-36.1401 L -24.3204,-34.3834 L -20.1386,-32.0845
 L -16.2779,-29.2795 L -12.7992,-26.0128 L -9.75734,-22.3358 L -7.20033,-18.3066 L -5.16849,-13.9887 L -3.69383,-9.45021
 L -2.79964,-4.76265 L -2.5,-0 L -2.79964,4.76265 L -3.69383,9.45021 L -5.16849,13.9887 L -7.20033,18.3066
 L -9.75734,22.3358 L -12.7992,26.0128 L -16.2779,29.2795 L -20.1386,32.0845 L -24.3204,34.3834 L -28.7574,36.1401
 L -33.3795,37.3269 L -38.114,37.925 z
M 157.312,40.4941 L 156.938,40.4469 L 156.573,40.3532 L 156.223,40.2145 L 155.893,40.033 L 155.588,39.8115
 L 155.313,39.5536 L 155.073,39.2634 L 154.871,38.9453 L 154.711,38.6044 L 154.594,38.2461 L 154.524,37.876
 L 154.5,37.5 L 154.524,37.124 L 154.594,36.7539 L 154.711,36.3956 L 154.871,36.0547 L 155.073,35.7366
 L 155.313,35.4464 L 155.588,35.1885 L 155.893,34.967 L 156.223,34.7855 L 156.573,34.6468 L 156.938,34.5531
 L 157.312,34.5059 L 157.688,34.5059 L 158.062,34.5531 L 158.427,34.6468 L 158.777,34.7855 L 159.107,34.967
 L 159.412,35.1885 L 159.687,35.4464 L 159.927,35.7366 L 160.129,36.0547 L 160.289,36.3956 L 160.406,36.7539
 L 160.476,37.124 L 160.5,37.5 L 160.476,37.876 L 160.406,38.2461 L 160.289,38.6044 L 160.129,38.9453
 L 159.927,39.2634 L 159.687,39.5536 L 159.412,39.8115 L 159.107,40.033 L 158.777,40.2145 L 158.427,40.3532
 L 158.062,40.4469 L 157.688,40.4941 z
M -157.688,40.4941 L -158.062,40.4469 L -158.427,40.3532 L -158.777,40.2145 L -159.107,40.033 L -159.412,39.8115
 L -159.687,39.5536 L -159.927,39.2634 L -160.129,38.9453 L -160.289,38.6044 L -160.406,38.2461 L -160.476,37.876
 L -160.5,37.5 L -160.476,37.124 L -160.406,36.7539 L -160.289,36.3956 L -160.129,36.0547 L -159.927,35.7366
 L -159.687,35.4464 L -159.412,35.1885 L -159.107,34.967 L -158.777,34.7855 L -158.427,34.6468 L -158.062,34.5531
 L -157.688,34.5059 L -157.312,34.5059 L -156.938,34.5531 L -156.573,34.6468 L -156.223,34.7855 L -155.893,34.967
 L -155.588,35.1885 L -155.313,35.4464 L -155.073,35.7366 L -154.871,36.0547 L -154.711,36.3956 L -154.594,36.7539
 L -154.524,37.124 L -154.5,37.5 L -154.524,37.876 L -154.594,38.2461 L -154.711,38.6044 L -154.871,38.9453
 L -155.073,39.2634 L -155.313,39.5536 L -155.588,39.8115 L -155.893,40.033 L -156.223,40.2145 L -156.573,40.3532
 L -156.938,40.4469 L -157.312,40.4941 z
" stroke="black" fill="lightgray" stroke-width="0.5"/>
</svg>
