<?xml version="1.0" standalone="no"?>
<!DOCTYPE svg PUBLIC "-//W3C//DTD SVG 1.1//EN" "http://www.w3.org/Graphics/SVG/1.1/DTD/svg11.dtd">
<svg width="44mm" height="30mm" viewBox="-22 -54 44 30" xmlns="http://www.w3.org/2000/svg" version="1.1">
<title>OpenSCAD Model</title>
<path d="
M 17.9369,-24.5886 L 18.5451,-24.7447 L 19.1289,-24.9759 L 19.6791,-25.2784 L 20.1871,-25.6474 L 20.6448,-26.0773
 L 21.0451,-26.5611 L 21.3815,-27.0912 L 21.6489,-27.6594 L 21.8429,-28.2566 L 21.9606,-28.8733 L 22,-29.5
 L 22,-48.5 L 21.9606,-49.1267 L 21.8429,-49.7434 L 21.6489,-50.3406 L 21.3815,-50.9088 L 21.0451,-51.4389
 L 20.6448,-51.9227 L 20.1871,-52.3526 L 19.6791,-52.7216 L 19.1289,-53.0241 L 18.5451,-53.2553 L 17.9369,-53.4114
 L 17.3139,-53.4901 L -17.3139,-53.4901 L -17.9369,-53.4114 L -18.5451,-53.2553 L -19.1289,-53.0241 L -19.6791,-52.7216
 L -20.1871,-52.3526 L -20.6448,-51.9227 L -21.0451,-51.4389 L -21.3815,-50.9088 L -21.6489,-50.3406 L -21.8429,-49.7434
 L -21.9606,-49.1267 L -22,-48.5 L -22,-29.5 L -21.9606,-28.8733 L -21.8429,-28.2566 L -21.6489,-27.6594
 L -21.3815,-27.0912 L -21.0451,-26.5611 L -20.6448,-26.0773 L -20.1871,-25.6474 L -19.6791,-25.2784 L -19.1289,-24.9759
 L -18.5451,-24.7447 L -17.9369,-24.5886 L -17.3139,-24.5099 L 17.3139,-24.5099 z
M 14.8116,-43.5059 L 14.4379,-43.5531 L 14.0729,-43.6468 L 13.7227,-43.7855 L 13.3925,-43.967 L 13.0877,-44.1884
 L 12.8131,-44.4464 L 12.5729,-44.7366 L 12.3711,-45.0547 L 12.2107,-45.3956 L 12.0942,-45.7539 L 12.0237,-46.124
 L 12,-46.5 L 12.0237,-46.876 L 12.0942,-47.2461 L 12.2107,-47.6044 L 12.3711,-47.9453 L 12.5729,-48.2634
 L 12.8131,-48.5536 L 13.0877,-48.8115 L 13.3925,-49.033 L 13.7227,-49.2145 L 14.0729,-49.3532 L 14.4379,-49.4469
 L 14.8116,-49.4941 L 15.1884,-49.4941 L 15.5621,-49.4469 L 15.927,-49.3532 L 16.2773,-49.2145 L 16.6075,-49.033
 L 16.9123,-48.8115 L 17.1869,-48.5536 L 17.427,-48.2634 L 17.6289,-47.9453 L 17.7893,-47.6044 L 17.9057,-47.2461
 L 17.9763,-46.876 L 18,-46.5 L 17.9763,-46.124 L 17.9057,-45.7539 L 17.7893,-45.3956 L 17.6289,-45.0547
 L 17.427,-44.7366 L 17.1869,-44.4464 L 16.9123,-44.1884 L 16.6075,-43.967 L 16.2773,-43.7855 L 15.927,-43.6468
 L 15.5621,-43.5531 L 15.1884,-43.5059 z
M -15.1884,-43.5059 L -15.5621,-43.5531 L -15.927,-43.6468 L -16.2773,-43.7855 L -16.6075,-43.967 L -16.9123,-44.1884
 L -17.1869,-44.4464 L -17.427,-44.7366 L -17.6289,-45.0547 L -17.7893,-45.3956 L -17.9057,-45.7539 L -17.9763,-46.124
 L -18,-46.5 L -17.9763,-46.876 L -17.9057,-47.2461 L -17.7893,-47.6044 L -17.6289,-47.9453 L -17.427,-48.2634
 L -17.1869,-48.5536 L -16.9123,-48.8115 L -16.6075,-49.033 L -16.2773,-49.2145 L -15.927,-49.3532 L -15.5621,-49.4469
 L -15.1884,-49.4941 L -14.8116,-49.4941 L -14.4379,-49.4469 L -14.0729,-49.3532 L -13.7227,-49.2145 L -13.3925,-49.033
 L -13.0877,-48.8115 L -12.8131,-48.5536 L -12.5729,-48.2634 L -12.3711,-47.9453 L -12.2107,-47.6044 L -12.0942,-47.2461
 L -12.0237,-46.876 L -12,-46.5 L -12.0237,-46.124 L -12.0942,-45.7539 L -12.2107,-45.3956 L -12.3711,-45.0547
 L -12.5729,-44.7366 L -12.8131,-44.4464 L -13.0877,-44.1884 L -13.3925,-43.967 L -13.7227,-43.7855 L -14.0729,-43.6468
 L -14.4379,-43.5531 L -14.8116,-43.5059 z
M -0.533707,-30.5168 L -1.59273,-30.6506 L -2.62663,-30.916 L -3.61911,-31.309 L -4.55452,-31.8232 L -5.41809,-32.4506
 L -6.19623,-33.1814 L -6.87663,-34.0038 L -7.44859,-34.9051 L -7.90309,-35.871 L -8.23296,-36.8861 L -8.43297,-37.9347
 L -8.5,-39 L -8.43297,-40.0653 L -8.23296,-41.1139 L -7.90309,-42.129 L -7.44859,-43.0949 L -6.87663,-43.9962
 L -6.19623,-44.8186 L -5.41809,-45.5494 L -4.55452,-46.1768 L -3.61911,-46.691 L -2.62663,-47.084 L -1.59273,-47.3494
 L -0.533707,-47.4832 L 0.533707,-47.4832 L 1.59273,-47.3494 L 2.62663,-47.084 L 3.61911,-46.691 L 4.55452,-46.1768
 L 5.41809,-45.5494 L 6.19623,-44.8186 L 6.87663,-43.9962 L 7.44859,-43.0949 L 7.90309,-42.129 L 8.23296,-41.1139
 L 8.43297,-40.0653 L 8.5,-39 L 8.43297,-37.9347 L 8.23296,-36.8861 L 7.90309,-35.871 L 7.44859,-34.9051
 L 6.87663,-34.0038 L 6.19623,-33.1814 L 5.41809,-32.4506 L 4.55452,-31.8232 L 3.61911,-31.309 L 2.62663,-30.916
 L 1.59273,-30.6506 L 0.533707,-30.5168 z
M -15.0942,-37.503 L -15.2811,-37.5266 L -15.4635,-37.5734 L -15.6387,-37.6428 L -15.8037,-37.7335 L -15.9561,-37.8442
 L -16.0934,-37.9732 L -16.2135,-38.1183 L -16.3145,-38.2774 L -16.3947,-38.4478 L -16.4529,-38.627 L -16.4882,-38.812
 L -16.5,-39 L -16.4882,-39.188 L -16.4529,-39.373 L -16.3947,-39.5522 L -16.3145,-39.7226 L -16.2135,-39.8817
 L -16.0934,-40.0268 L -15.9561,-40.1558 L -15.8037,-40.2665 L -15.6387,-40.3572 L -15.4635,-40.4266 L -15.2811,-40.4734
 L -15.0942,-40.497 L -14.9058,-40.497 L -14.7189,-40.4734 L -14.5365,-40.4266 L -14.3613,-40.3572 L -14.1963,-40.2665
 L -14.0439,-40.1558 L -13.9065,-40.0268 L -13.7865,-39.8817 L -13.6855,-39.7226 L -13.6053,-39.5522 L -13.5471,-39.373
 L -13.5118,-39.188 L -13.5,-39 L -13.5118,-38.812 L -13.5471,-38.627 L -13.6053,-38.4478 L -13.6855,-38.2774
 L -13.7865,-38.1183 L -13.9065,-37.9732 L -14.0439,-37.8442 L -14.1963,-37.7335 L -14.3613,-37.6428 L -14.5365,-37.5734
 L -14.7189,-37.5266 L -14.9058,-37.503 z
M 14.9058,-37.503 L 14.7189,-37.5266 L 14.5365,-37.5734 L 14.3613,-37.6428 L 14.1963,-37.7335 L 14.0439,-37.8442
 L 13.9065,-37.9732 L 13.7865,-38.1183 L 13.6855,-38.2774 L 13.6053,-38.4478 L 13.5471,-38.627 L 13.5118,-38.812
 L 13.5,-39 L 13.5118,-39.188 L 13.5471,-39.373 L 13.6053,-39.5522 L 13.6855,-39.7226 L 13.7865,-39.8817
 L 13.9065,-40.0268 L 14.0439,-40.1558 L 14.1963,-40.2665 L 14.3613,-40.3572 L 14.5365,-40.4266 L 14.7189,-40.4734
 L 14.9058,-40.497 L 15.0942,-40.497 L 15.2811,-40.4734 L 15.4635,-40.4266 L 15.6387,-40.3572 L 15.8037,-40.2665
 L 15.9561,-40.1558 L 16.0934,-40.0268 L 16.2135,-39.8817 L 16.3145,-39.7226 L 16.3947,-39.5522 L 16.4529,-39.373
 L 16.4882,-39.188 L 16.5,-39 L 16.4882,-38.812 L 16.4529,-38.627 L 16.3947,-38.4478 L 16.3145,-38.2774
 L 16.2135,-38.1183 L 16.0934,-37.9732 L 15.9561,-37.8442 L 15.8037,-37.7335 L 15.6387,-37.6428 L 15.4635,-37.5734
 L 15.2811,-37.5266 L 15.0942,-37.503 z
M 14.8116,-28.5059 L 14.4379,-28.5531 L 14.0729,-28.6468 L 13.7227,-28.7855 L 13.3925,-28.967 L 13.0877,-29.1885
 L 12.8131,-29.4464 L 12.5729,-29.7366 L 12.3711,-30.0547 L 12.2107,-30.3956 L 12.0942,-30.7539 L 12.0237,-31.124
 L 12,-31.5 L 12.0237,-31.876 L 12.0942,-32.2461 L 12.2107,-32.6044 L 12.3711,-32.9453 L 12.5729,-33.2634
 L 12.8131,-33.5536 L 13.0877,-33.8116 L 13.3925,-34.033 L 13.7227,-34.2145 L 14.0729,-34.3532 L 14.4379,-34.4469
 L 14.8116,-34.4941 L 15.1884,-34.4941 L 15.5621,-34.4469 L 15.927,-34.3532 L 16.2773,-34.2145 L 16.6075,-34.033
 L 16.9123,-33.8116 L 17.1869,-33.5536 L 17.427,-33.2634 L 17.6289,-32.9453 L 17.7893,-32.6044 L 17.9057,-32.2461
 L 17.9763,-31.876 L 18,-31.5 L 17.9763,-31.124 L 17.9057,-30.7539 L 17.7893,-30.3956 L 17.6289,-30.0547
 L 17.427,-29.7366 L 17.1869,-29.4464 L 16.9123,-29.1885 L 16.6075,-28.967 L 16.2773,-28.7855 L 15.927,-28.6468
 L 15.5621,-28.5531 L 15.1884,-28.5059 z
M -15.1884,-28.5059 L -15.5621,-28.5531 L -15.927,-28.6468 L -16.2773,-28.7855 L -16.6075,-28.967 L -16.9123,-29.1885
 L -17.1869,-29.4464 L -17.427,-29.7366 L -17.6289,-30.0547 L -17.7893,-30.3956 L -17.9057,-30.7539 L -17.9763,-31.124
 L -18,-31.5 L -17.9763,-31.876 L -17.9057,-32.2461 L -17.7893,-32.6044 L -17.6289,-32.9453 L -17.427,-33.2634
 L -17.1869,-33.5536 L -16.9123,-33.8116 L -16.6075,-34.033 L -16.2773,-34.2145 L -15.927,-34.3532 L -15.5621,-34.4469
 L -15.1884,-34.4941 L -14.8116,-34.4941 L -14.4379,-34.4469 L -14.0729,-34.3532 L -13.7227,-34.2145 L -13.3925,-34.033
 L -13.0877,-33.8116 L -12.8131,-33.5536 L -12.5729,-33.2634 L -12.3711,-32.9453 L -12.2107,-32.6044 L -12.0942,-32.2461
 L -12.0237,-31.876 L -12,-31.5 L -12.0237,-31.124 L -12.0942,-30.7539 L -12.2107,-30.3956 L -12.3711,-30.0547
 L -12.5729,-29.7366 L -12.8131,-29.4464 L -13.0877,-29.1885 L -13.3925,-28.967 L -13.7227,-28.7855 L -14.0729,-28.6468
 L -14.4379,-28.5531 L -14.8116,-28.5059 z
" stroke="black" fill="lightgray" stroke-width="0.5"/>
</svg>
