<?xml version="1.0" standalone="no"?>
<!DOCTYPE svg PUBLIC "-//W3C//DTD SVG 1.1//EN" "http://www.w3.org/Graphics/SVG/1.1/DTD/svg11.dtd">
<svg width="224mm" height="74mm" viewBox="-112 -37 224 74" xmlns="http://www.w3.org/2000/svg" version="1.1">
<title>OpenSCAD Model</title>
<path d="
M 107.937,36.9114 L 108.545,36.7553 L 109.129,36.5241 L 109.679,36.2216 L 110.187,35.8526 L 110.645,35.4227
 L 111.045,34.9389 L 111.382,34.4088 L 111.649,33.8406 L 111.843,33.2434 L 111.961,32.6267 L 112,32
 L 112,-32 L 111.961,-32.6267 L 111.843,-33.2434 L 111.649,-33.8406 L 111.382,-34.4088 L 111.045,-34.9389
 L 110.645,-35.4227 L 110.187,-35.8526 L 109.679,-36.2216 L 109.129,-36.5241 L 108.545,-36.7553 L 107.937,-36.9114
 L 107.314,-36.9901 L -107.314,-36.9901 L -107.937,-36.9114 L -108.545,-36.7553 L -109.129,-36.5241 L -109.679,-36.2216
 L -110.187,-35.8526 L -110.645,-35.4227 L -111.045,-34.9389 L -111.382,-34.4088 L -111.649,-33.8406 L -111.843,-33.2434
 L -111.961,-32.6267 L -112,-32 L -112,32 L -111.961,32.6267 L -111.843,33.2434 L -111.649,33.8406
 L -111.382,34.4088 L -111.045,34.9389 L -110.645,35.4227 L -110.187,35.8526 L -109.679,36.2216 L -109.129,36.5241
 L -108.545,36.7553 L -107.937,36.9114 L -107.314,36.9901 L 107.314,36.9901 z
M 29.8116,-27.0059 L 29.4379,-27.0531 L 29.0729,-27.1468 L 28.7227,-27.2855 L 28.3925,-27.467 L 28.0877,-27.6884
 L 27.8131,-27.9464 L 27.5729,-28.2366 L 27.3711,-28.5547 L 27.2107,-28.8956 L 27.0942,-29.2539 L 27.0237,-29.624
 L 27,-30 L 27.0237,-30.376 L 27.0942,-30.7461 L 27.2107,-31.1044 L 27.3711,-31.4453 L 27.5729,-31.7634
 L 27.8131,-32.0536 L 28.0877,-32.3115 L 28.3925,-32.533 L 28.7227,-32.7145 L 29.0729,-32.8532 L 29.4379,-32.9469
 L 29.8116,-32.9941 L 30.1884,-32.9941 L 30.5621,-32.9469 L 30.927,-32.8532 L 31.2773,-32.7145 L 31.6075,-32.533
 L 31.9123,-32.3115 L 32.1869,-32.0536 L 32.427,-31.7634 L 32.6289,-31.4453 L 32.7893,-31.1044 L 32.9057,-30.7461
 L 32.9763,-30.376 L 33,-30 L 32.9763,-29.624 L 32.9057,-29.2539 L 32.7893,-28.8956 L 32.6289,-28.5547
 L 32.427,-28.2366 L 32.1869,-27.9464 L 31.9123,-27.6884 L 31.6075,-27.467 L 31.2773,-27.2855 L 30.927,-27.1468
 L 30.5621,-27.0531 L 30.1884,-27.0059 z
M -0.18837,-27.0059 L -0.562134,-27.0531 L -0.927048,-27.1468 L -1.27733,-27.2855 L -1.60747,-27.467 L -1.91226,-27.6884
 L -2.1869,-27.9464 L -2.42705,-28.2366 L -2.62891,-28.5547 L -2.78932,-28.8956 L -2.90575,-29.2539 L -2.97633,-29.624
 L -3,-30 L -2.97633,-30.376 L -2.90575,-30.7461 L -2.78932,-31.1044 L -2.62891,-31.4453 L -2.42705,-31.7634
 L -2.1869,-32.0536 L -1.91226,-32.3115 L -1.60747,-32.533 L -1.27733,-32.7145 L -0.927048,-32.8532 L -0.562134,-32.9469
 L -0.18837,-32.9941 L 0.18837,-32.9941 L 0.562134,-32.9469 L 0.927048,-32.8532 L 1.27733,-32.7145 L 1.60747,-32.533
 L 1.91226,-32.3115 L 2.1869,-32.0536 L 2.42705,-31.7634 L 2.62891,-31.4453 L 2.78932,-31.1044 L 2.90575,-30.7461
 L 2.97633,-30.376 L 3,-30 L 2.97633,-29.624 L 2.90575,-29.2539 L 2.78932,-28.8956 L 2.62891,-28.5547
 L 2.42705,-28.2366 L 2.1869,-27.9464 L 1.91226,-27.6884 L 1.60747,-27.467 L 1.27733,-27.2855 L 0.927048,-27.1468
 L 0.562134,-27.0531 L 0.18837,-27.0059 z
M -30.1884,-27.0059 L -30.5621,-27.0531 L -30.927,-27.1468 L -31.2773,-27.2855 L -31.6075,-27.467 L -31.9123,-27.6884
 L -32.1869,-27.9464 L -32.427,-28.2366 L -32.6289,-28.5547 L -32.7893,-28.8956 L -32.9057,-29.2539 L -32.9763,-29.624
 L -33,-30 L -32.9763,-30.376 L -32.9057,-30.7461 L -32.7893,-31.1044 L -32.6289,-31.4453 L -32.427,-31.7634
 L -32.1869,-32.0536 L -31.9123,-32.3115 L -31.6075,-32.533 L -31.2773,-32.7145 L -30.927,-32.8532 L -30.5621,-32.9469
 L -30.1884,-32.9941 L -29.8116,-32.9941 L -29.4379,-32.9469 L -29.0729,-32.8532 L -28.7227,-32.7145 L -28.3925,-32.533
 L -28.0877,-32.3115 L -27.8131,-32.0536 L -27.5729,-31.7634 L -27.3711,-31.4453 L -27.2107,-31.1044 L -27.0942,-30.7461
 L -27.0237,-30.376 L -27,-30 L -27.0237,-29.624 L -27.0942,-29.2539 L -27.2107,-28.8956 L -27.3711,-28.5547
 L -27.5729,-28.2366 L -27.8131,-27.9464 L -28.0877,-27.6884 L -28.3925,-27.467 L -28.7227,-27.2855 L -29.0729,-27.1468
 L -29.4379,-27.0531 L -29.8116,-27.0059 z
M -47.9057,-30.7461 L -47.7893,-31.1044 L -47.6289,-31.4453 L -47.427,-31.7634 L -47.1869,-32.0536 L -46.9123,-32.3115
 L -46.6075,-32.533 L -46.2773,-32.7145 L -45.927,-32.8532 L -45.5621,-32.9469 L -45.1884,-32.9941 L -44.8116,-32.9941
 L -44.4379,-32.9469 L -44.0729,-32.8532 L -43.7227,-32.7145 L -43.3925,-32.533 L -43.0877,-32.3115 L -42.8131,-32.0536
 L -42.5729,-31.7634 L -42.3711,-31.4453 L -42.2107,-31.1044 L -42.0942,-30.7461 L -42.0237,-30.376 L -42,-30
 L -42.0237,-29.624 L -42.0942,-29.2539 L -42.2107,-28.8956 L -42.3711,-28.5547 L -42.5729,-28.2366 L -42.8131,-27.9464
 L -43.0877,-27.6884 L -43.3925,-27.467 L -43.7227,-27.2855 L -44.0729,-27.1468 L -44.4379,-27.0531 L -44.8116,-27.0059
 L -45.1884,-27.0059 L -45.5621,-27.0531 L -45.927,-27.1468 L -46.2773,-27.2855 L -46.6075,-27.467 L -46.9123,-27.6884
 L -47.1869,-27.9464 L -47.427,-28.2366 L -47.6289,-28.5547 L -47.7893,-28.8956 L -47.9057,-29.2539 L -47.9763,-29.624
 L -48,-30 L -47.9763,-30.376 z
M 74.8116,-27.0059 L 74.4379,-27.0531 L 74.073,-27.1468 L 73.7227,-27.2855 L 73.3925,-27.467 L 73.0877,-27.6884
 L 72.8131,-27.9464 L 72.573,-28.2366 L 72.3711,-28.5547 L 72.2107,-28.8956 L 72.0943,-29.2539 L 72.0237,-29.624
 L 72,-30 L 72.0237,-30.376 L 72.0943,-30.7461 L 72.2107,-31.1044 L 72.3711,-31.4453 L 72.573,-31.7634
 L 72.8131,-32.0536 L 73.0877,-32.3115 L 73.3925,-32.533 L 73.7227,-32.7145 L 74.073,-32.8532 L 74.4379,-32.9469
 L 74.8116,-32.9941 L 75.1884,-32.9941 L 75.5621,-32.9469 L 75.927,-32.8532 L 76.2773,-32.7145 L 76.6075,-32.533
 L 76.9123,-32.3115 L 77.1869,-32.0536 L 77.427,-31.7634 L 77.6289,-31.4453 L 77.7893,-31.1044 L 77.9057,-30.7461
 L 77.9763,-30.376 L 78,-30 L 77.9763,-29.624 L 77.9057,-29.2539 L 77.7893,-28.8956 L 77.6289,-28.5547
 L 77.427,-28.2366 L 77.1869,-27.9464 L 76.9123,-27.6884 L 76.6075,-27.467 L 76.2773,-27.2855 L 75.927,-27.1468
 L 75.5621,-27.0531 L 75.1884,-27.0059 z
M -75.1884,-27.0059 L -75.5621,-27.0531 L -75.927,-27.1468 L -76.2773,-27.2855 L -76.6075,-27.467 L -76.9123,-27.6884
 L -77.1869,-27.9464 L -77.427,-28.2366 L -77.6289,-28.5547 L -77.7893,-28.8956 L -77.9057,-29.2539 L -77.9763,-29.624
 L -78,-30 L -77.9763,-30.376 L -77.9057,-30.7461 L -77.7893,-31.1044 L -77.6289,-31.4453 L -77.427,-31.7634
 L -77.1869,-32.0536 L -76.9123,-32.3115 L -76.6075,-32.533 L -76.2773,-32.7145 L -75.927,-32.8532 L -75.5621,-32.9469
 L -75.1884,-32.9941 L -74.8116,-32.9941 L -74.4379,-32.9469 L -74.073,-32.8532 L -73.7227,-32.7145 L -73.3925,-32.533
 L -73.0877,-32.3115 L -72.8131,-32.0536 L -72.573,-31.7634 L -72.3711,-31.4453 L -72.2107,-31.1044 L -72.0943,-30.7461
 L -72.0237,-30.376 L -72,-30 L -72.0237,-29.624 L -72.0943,-29.2539 L -72.2107,-28.8956 L -72.3711,-28.5547
 L -72.573,-28.2366 L -72.8131,-27.9464 L -73.0877,-27.6884 L -73.3925,-27.467 L -73.7227,-27.2855 L -74.073,-27.1468
 L -74.4379,-27.0531 L -74.8116,-27.0059 z
M 14.8116,-27.0059 L 14.4379,-27.0531 L 14.0729,-27.1468 L 13.7227,-27.2855 L 13.3925,-27.467 L 13.0877,-27.6884
 L 12.8131,-27.9464 L 12.5729,-28.2366 L 12.3711,-28.5547 L 12.2107,-28.8956 L 12.0942,-29.2539 L 12.0237,-29.624
 L 12,-30 L 12.0237,-30.376 L 12.0942,-30.7461 L 12.2107,-31.1044 L 12.3711,-31.4453 L 12.5729,-31.7634
 L 12.8131,-32.0536 L 13.0877,-32.3115 L 13.3925,-32.533 L 13.7227,-32.7145 L 14.0729,-32.8532 L 14.4379,-32.9469
 L 14.8116,-32.9941 L 15.1884,-32.9941 L 15.5621,-32.9469 L 15.927,-32.8532 L 16.2773,-32.7145 L 16.6075,-32.533
 L 16.9123,-32.3115 L 17.1869,-32.0536 L 17.427,-31.7634 L 17.6289,-31.4453 L 17.7893,-31.1044 L 17.9057,-30.7461
 L 17.9763,-30.376 L 18,-30 L 17.9763,-29.624 L 17.9057,-29.2539 L 17.7893,-28.8956 L 17.6289,-28.5547
 L 17.427,-28.2366 L 17.1869,-27.9464 L 16.9123,-27.6884 L 16.6075,-27.467 L 16.2773,-27.2855 L 15.927,-27.1468
 L 15.5621,-27.0531 L 15.1884,-27.0059 z
M 89.8116,-27.0059 L 89.4379,-27.0531 L 89.073,-27.1468 L 88.7227,-27.2855 L 88.3925,-27.467 L 88.0877,-27.6884
 L 87.8131,-27.9464 L 87.573,-28.2366 L 87.3711,-28.5547 L 87.2107,-28.8956 L 87.0943,-29.2539 L 87.0237,-29.624
 L 87,-30 L 87.0237,-30.376 L 87.0943,-30.7461 L 87.2107,-31.1044 L 87.3711,-31.4453 L 87.573,-31.7634
 L 87.8131,-32.0536 L 88.0877,-32.3115 L 88.3925,-32.533 L 88.7227,-32.7145 L 89.073,-32.8532 L 89.4379,-32.9469
 L 89.8116,-32.9941 L 90.1884,-32.9941 L 90.5621,-32.9469 L 90.927,-32.8532 L 91.2773,-32.7145 L 91.6075,-32.533
 L 91.9123,-32.3115 L 92.1869,-32.0536 L 92.427,-31.7634 L 92.6289,-31.4453 L 92.7893,-31.1044 L 92.9057,-30.7461
 L 92.9763,-30.376 L 93,-30 L 92.9763,-29.624 L 92.9057,-29.2539 L 92.7893,-28.8956 L 92.6289,-28.5547
 L 92.427,-28.2366 L 92.1869,-27.9464 L 91.9123,-27.6884 L 91.6075,-27.467 L 91.2773,-27.2855 L 90.927,-27.1468
 L 90.5621,-27.0531 L 90.1884,-27.0059 z
M 59.8116,-27.0059 L 59.4379,-27.0531 L 59.0729,-27.1468 L 58.7227,-27.2855 L 58.3925,-27.467 L 58.0877,-27.6884
 L 57.8131,-27.9464 L 57.5729,-28.2366 L 57.3711,-28.5547 L 57.2107,-28.8956 L 57.0942,-29.2539 L 57.0237,-29.624
 L 57,-30 L 57.0237,-30.376 L 57.0942,-30.7461 L 57.2107,-31.1044 L 57.3711,-31.4453 L 57.5729,-31.7634
 L 57.8131,-32.0536 L 58.0877,-32.3115 L 58.3925,-32.533 L 58.7227,-32.7145 L 59.0729,-32.8532 L 59.4379,-32.9469
 L 59.8116,-32.9941 L 60.1884,-32.9941 L 60.5621,-32.9469 L 60.927,-32.8532 L 61.2773,-32.7145 L 61.6075,-32.533
 L 61.9123,-32.3115 L 62.1869,-32.0536 L 62.427,-31.7634 L 62.6289,-31.4453 L 62.7893,-31.1044 L 62.9057,-30.7461
 L 62.9763,-30.376 L 63,-30 L 62.9763,-29.624 L 62.9057,-29.2539 L 62.7893,-28.8956 L 62.6289,-28.5547
 L 62.427,-28.2366 L 62.1869,-27.9464 L 61.9123,-27.6884 L 61.6075,-27.467 L 61.2773,-27.2855 L 60.927,-27.1468
 L 60.5621,-27.0531 L 60.1884,-27.0059 z
M 44.8116,-27.0059 L 44.4379,-27.0531 L 44.0729,-27.1468 L 43.7227,-27.2855 L 43.3925,-27.467 L 43.0877,-27.6884
 L 42.8131,-27.9464 L 42.5729,-28.2366 L 42.3711,-28.5547 L 42.2107,-28.8956 L 42.0942,-29.2539 L 42.0237,-29.624
 L 42,-30 L 42.0237,-30.376 L 42.0942,-30.7461 L 42.2107,-31.1044 L 42.3711,-31.4453 L 42.5729,-31.7634
 L 42.8131,-32.0536 L 43.0877,-32.3115 L 43.3925,-32.533 L 43.7227,-32.7145 L 44.0729,-32.8532 L 44.4379,-32.9469
 L 44.8116,-32.9941 L 45.1884,-32.9941 L 45.5621,-32.9469 L 45.927,-32.8532 L 46.2773,-32.7145 L 46.6075,-32.533
 L 46.9123,-32.3115 L 47.1869,-32.0536 L 47.427,-31.7634 L 47.6289,-31.4453 L 47.7893,-31.1044 L 47.9057,-30.7461
 L 47.9763,-30.376 L 48,-30 L 47.9763,-29.624 L 47.9057,-29.2539 L 47.7893,-28.8956 L 47.6289,-28.5547
 L 47.427,-28.2366 L 47.1869,-27.9464 L 46.9123,-27.6884 L 46.6075,-27.467 L 46.2773,-27.2855 L 45.927,-27.1468
 L 45.5621,-27.0531 L 45.1884,-27.0059 z
M -60.1884,-27.0059 L -60.5621,-27.0531 L -60.927,-27.1468 L -61.2773,-27.2855 L -61.6075,-27.467 L -61.9123,-27.6884
 L -62.1869,-27.9464 L -62.427,-28.2366 L -62.6289,-28.5547 L -62.7893,-28.8956 L -62.9057,-29.2539 L -62.9763,-29.624
 L -63,-30 L -62.9763,-30.376 L -62.9057,-30.7461 L -62.7893,-31.1044 L -62.6289,-31.4453 L -62.427,-31.7634
 L -62.1869,-32.0536 L -61.9123,-32.3115 L -61.6075,-32.533 L -61.2773,-32.7145 L -60.927,-32.8532 L -60.5621,-32.9469
 L -60.1884,-32.9941 L -59.8116,-32.9941 L -59.4379,-32.9469 L -59.0729,-32.8532 L -58.7227,-32.7145 L -58.3925,-32.533
 L -58.0877,-32.3115 L -57.8131,-32.0536 L -57.5729,-31.7634 L -57.3711,-31.4453 L -57.2107,-31.1044 L -57.0942,-30.7461
 L -57.0237,-30.376 L -57,-30 L -57.0237,-29.624 L -57.0942,-29.2539 L -57.2107,-28.8956 L -57.3711,-28.5547
 L -57.5729,-28.2366 L -57.8131,-27.9464 L -58.0877,-27.6884 L -58.3925,-27.467 L -58.7227,-27.2855 L -59.0729,-27.1468
 L -59.4379,-27.0531 L -59.8116,-27.0059 z
M -15.1884,-27.0059 L -15.5621,-27.0531 L -15.927,-27.1468 L -16.2773,-27.2855 L -16.6075,-27.467 L -16.9123,-27.6884
 L -17.1869,-27.9464 L -17.427,-28.2366 L -17.6289,-28.5547 L -17.7893,-28.8956 L -17.9057,-29.2539 L -17.9763,-29.624
 L -18,-30 L -17.9763,-30.376 L -17.9057,-30.7461 L -17.7893,-31.1044 L -17.6289,-31.4453 L -17.427,-31.7634
 L -17.1869,-32.0536 L -16.9123,-32.3115 L -16.6075,-32.533 L -16.2773,-32.7145 L -15.927,-32.8532 L -15.5621,-32.9469
 L -15.1884,-32.9941 L -14.8116,-32.9941 L -14.4379,-32.9469 L -14.0729,-32.8532 L -13.7227,-32.7145 L -13.3925,-32.533
 L -13.0877,-32.3115 L -12.8131,-32.0536 L -12.5729,-31.7634 L -12.3711,-31.4453 L -12.2107,-31.1044 L -12.0942,-30.7461
 L -12.0237,-30.376 L -12,-30 L -12.0237,-29.624 L -12.0942,-29.2539 L -12.2107,-28.8956 L -12.3711,-28.5547
 L -12.5729,-28.2366 L -12.8131,-27.9464 L -13.0877,-27.6884 L -13.3925,-27.467 L -13.7227,-27.2855 L -14.0729,-27.1468
 L -14.4379,-27.0531 L -14.8116,-27.0059 z
M -105.188,-27.0059 L -105.562,-27.0531 L -105.927,-27.1468 L -106.277,-27.2855 L -106.607,-27.467 L -106.912,-27.6884
 L -107.187,-27.9464 L -107.427,-28.2366 L -107.629,-28.5547 L -107.789,-28.8956 L -107.906,-29.2539 L -107.976,-29.624
 L -108,-30 L -107.976,-30.376 L -107.906,-30.7461 L -107.789,-31.1044 L -107.629,-31.4453 L -107.427,-31.7634
 L -107.187,-32.0536 L -106.912,-32.3115 L -106.607,-32.533 L -106.277,-32.7145 L -105.927,-32.8532 L -105.562,-32.9469
 L -105.188,-32.9941 L -104.812,-32.9941 L -104.438,-32.9469 L -104.073,-32.8532 L -103.723,-32.7145 L -103.393,-32.533
 L -103.088,-32.3115 L -102.813,-32.0536 L -102.573,-31.7634 L -102.371,-31.4453 L -102.211,-31.1044 L -102.094,-30.7461
 L -102.024,-30.376 L -102,-30 L -102.024,-29.624 L -102.094,-29.2539 L -102.211,-28.8956 L -102.371,-28.5547
 L -102.573,-28.2366 L -102.813,-27.9464 L -103.088,-27.6884 L -103.393,-27.467 L -103.723,-27.2855 L -104.073,-27.1468
 L -104.438,-27.0531 L -104.812,-27.0059 z
M 104.812,-27.0059 L 104.438,-27.0531 L 104.073,-27.1468 L 103.723,-27.2855 L 103.393,-27.467 L 103.088,-27.6884
 L 102.813,-27.9464 L 102.573,-28.2366 L 102.371,-28.5547 L 102.211,-28.8956 L 102.094,-29.2539 L 102.024,-29.624
 L 102,-30 L 102.024,-30.376 L 102.094,-30.7461 L 102.211,-31.1044 L 102.371,-31.4453 L 102.573,-31.7634
 L 102.813,-32.0536 L 103.088,-32.3115 L 103.393,-32.533 L 103.723,-32.7145 L 104.073,-32.8532 L 104.438,-32.9469
 L 104.812,-32.9941 L 105.188,-32.9941 L 105.562,-32.9469 L 105.927,-32.8532 L 106.277,-32.7145 L 106.607,-32.533
 L 106.912,-32.3115 L 107.187,-32.0536 L 107.427,-31.7634 L 107.629,-31.4453 L 107.789,-31.1044 L 107.906,-30.7461
 L 107.976,-30.376 L 108,-30 L 107.976,-29.624 L 107.906,-29.2539 L 107.789,-28.8956 L 107.629,-28.5547
 L 107.427,-28.2366 L 107.187,-27.9464 L 106.912,-27.6884 L 106.607,-27.467 L 106.277,-27.2855 L 105.927,-27.1468
 L 105.562,-27.0531 L 105.188,-27.0059 z
M -92.9057,-30.7461 L -92.7893,-31.1044 L -92.6289,-31.4453 L -92.427,-31.7634 L -92.1869,-32.0536 L -91.9123,-32.3115
 L -91.6075,-32.533 L -91.2773,-32.7145 L -90.927,-32.8532 L -90.5621,-32.9469 L -90.1884,-32.9941 L -89.8116,-32.9941
 L -89.4379,-32.9469 L -89.073,-32.8532 L -88.7227,-32.7145 L -88.3925,-32.533 L -88.0877,-32.3115 L -87.8131,-32.0536
 L -87.573,-31.7634 L -87.3711,-31.4453 L -87.2107,-31.1044 L -87.0943,-30.7461 L -87.0237,-30.376 L -87,-30
 L -87.0237,-29.624 L -87.0943,-29.2539 L -87.2107,-28.8956 L -87.3711,-28.5547 L -87.573,-28.2366 L -87.8131,-27.9464
 L -88.0877,-27.6884 L -88.3925,-27.467 L -88.7227,-27.2855 L -89.073,-27.1468 L -89.4379,-27.0531 L -89.8116,-27.0059
 L -90.1884,-27.0059 L -90.5621,-27.0531 L -90.927,-27.1468 L -91.2773,-27.2855 L -91.6075,-27.467 L -91.9123,-27.6884
 L -92.1869,-27.9464 L -92.427,-28.2366 L -92.6289,-28.5547 L -92.7893,-28.8956 L -92.9057,-29.2539 L -92.9763,-29.624
 L -93,-30 L -92.9763,-30.376 z
M 97.4058,-28.503 L 97.2189,-28.5266 L 97.0365,-28.5734 L 96.8613,-28.6427 L 96.6963,-28.7335 L 96.5439,-28.8442
 L 96.4065,-28.9732 L 96.2865,-29.1183 L 96.1855,-29.2774 L 96.1053,-29.4478 L 96.0471,-29.627 L 96.0118,-29.812
 L 96,-30 L 96.0118,-30.188 L 96.0471,-30.373 L 96.1053,-30.5522 L 96.1855,-30.7226 L 96.2865,-30.8817
 L 96.4065,-31.0268 L 96.5439,-31.1558 L 96.6963,-31.2665 L 96.8613,-31.3572 L 97.0365,-31.4266 L 97.2189,-31.4734
 L 97.4058,-31.497 L 97.5942,-31.497 L 97.7811,-31.4734 L 97.9635,-31.4266 L 98.1387,-31.3572 L 98.3037,-31.2665
 L 98.4561,-31.1558 L 98.5934,-31.0268 L 98.7135,-30.8817 L 98.8145,-30.7226 L 98.8947,-30.5522 L 98.9529,-30.373
 L 98.9882,-30.188 L 99,-30 L 98.9882,-29.812 L 98.9529,-29.627 L 98.8947,-29.4478 L 98.8145,-29.2774
 L 98.7135,-29.1183 L 98.5934,-28.9732 L 98.4561,-28.8442 L 98.3037,-28.7335 L 98.1387,-28.6427 L 97.9635,-28.5734
 L 97.7811,-28.5266 L 97.5942,-28.503 z
M -67.5942,-28.503 L -67.7811,-28.5266 L -67.9635,-28.5734 L -68.1387,-28.6427 L -68.3037,-28.7335 L -68.4561,-28.8442
 L -68.5934,-28.9732 L -68.7135,-29.1183 L -68.8145,-29.2774 L -68.8947,-29.4478 L -68.9529,-29.627 L -68.9882,-29.812
 L -69,-30 L -68.9882,-30.188 L -68.9529,-30.373 L -68.8947,-30.5522 L -68.8145,-30.7226 L -68.7135,-30.8817
 L -68.5934,-31.0268 L -68.4561,-31.1558 L -68.3037,-31.2665 L -68.1387,-31.3572 L -67.9635,-31.4266 L -67.7811,-31.4734
 L -67.5942,-31.497 L -67.4058,-31.497 L -67.2189,-31.4734 L -67.0365,-31.4266 L -66.8613,-31.3572 L -66.6963,-31.2665
 L -66.5439,-31.1558 L -66.4065,-31.0268 L -66.2865,-30.8817 L -66.1855,-30.7226 L -66.1053,-30.5522 L -66.0471,-30.373
 L -66.0118,-30.188 L -66,-30 L -66.0118,-29.812 L -66.0471,-29.627 L -66.1053,-29.4478 L -66.1855,-29.2774
 L -66.2865,-29.1183 L -66.4065,-28.9732 L -66.5439,-28.8442 L -66.6963,-28.7335 L -66.8613,-28.6427 L -67.0365,-28.5734
 L -67.2189,-28.5266 L -67.4058,-28.503 z
M 67.4058,-28.503 L 67.2189,-28.5266 L 67.0365,-28.5734 L 66.8613,-28.6427 L 66.6963,-28.7335 L 66.5439,-28.8442
 L 66.4065,-28.9732 L 66.2865,-29.1183 L 66.1855,-29.2774 L 66.1053,-29.4478 L 66.0471,-29.627 L 66.0118,-29.812
 L 66,-30 L 66.0118,-30.188 L 66.0471,-30.373 L 66.1053,-30.5522 L 66.1855,-30.7226 L 66.2865,-30.8817
 L 66.4065,-31.0268 L 66.5439,-31.1558 L 66.6963,-31.2665 L 66.8613,-31.3572 L 67.0365,-31.4266 L 67.2189,-31.4734
 L 67.4058,-31.497 L 67.5942,-31.497 L 67.7811,-31.4734 L 67.9635,-31.4266 L 68.1387,-31.3572 L 68.3037,-31.2665
 L 68.4561,-31.1558 L 68.5934,-31.0268 L 68.7135,-30.8817 L 68.8145,-30.7226 L 68.8947,-30.5522 L 68.9529,-30.373
 L 68.9882,-30.188 L 69,-30 L 68.9882,-29.812 L 68.9529,-29.627 L 68.8947,-29.4478 L 68.8145,-29.2774
 L 68.7135,-29.1183 L 68.5934,-28.9732 L 68.4561,-28.8442 L 68.3037,-28.7335 L 68.1387,-28.6427 L 67.9635,-28.5734
 L 67.7811,-28.5266 L 67.5942,-28.503 z
M -82.5942,-28.503 L -82.7811,-28.5266 L -82.9635,-28.5734 L -83.1387,-28.6427 L -83.3037,-28.7335 L -83.4561,-28.8442
 L -83.5934,-28.9732 L -83.7135,-29.1183 L -83.8145,-29.2774 L -83.8947,-29.4478 L -83.9529,-29.627 L -83.9882,-29.812
 L -84,-30 L -83.9882,-30.188 L -83.9529,-30.373 L -83.8947,-30.5522 L -83.8145,-30.7226 L -83.7135,-30.8817
 L -83.5934,-31.0268 L -83.4561,-31.1558 L -83.3037,-31.2665 L -83.1387,-31.3572 L -82.9635,-31.4266 L -82.7811,-31.4734
 L -82.5942,-31.497 L -82.4058,-31.497 L -82.2189,-31.4734 L -82.0365,-31.4266 L -81.8613,-31.3572 L -81.6963,-31.2665
 L -81.5439,-31.1558 L -81.4065,-31.0268 L -81.2865,-30.8817 L -81.1855,-30.7226 L -81.1053,-30.5522 L -81.0471,-30.373
 L -81.0118,-30.188 L -81,-30 L -81.0118,-29.812 L -81.0471,-29.627 L -81.1053,-29.4478 L -81.1855,-29.2774
 L -81.2865,-29.1183 L -81.4065,-28.9732 L -81.5439,-28.8442 L -81.6963,-28.7335 L -81.8613,-28.6427 L -82.0365,-28.5734
 L -82.2189,-28.5266 L -82.4058,-28.503 z
M 82.4058,-28.503 L 82.2189,-28.5266 L 82.0365,-28.5734 L 81.8613,-28.6427 L 81.6963,-28.7335 L 81.5439,-28.8442
 L 81.4065,-28.9732 L 81.2865,-29.1183 L 81.1855,-29.2774 L 81.1053,-29.4478 L 81.0471,-29.627 L 81.0118,-29.812
 L 81,-30 L 81.0118,-30.188 L 81.0471,-30.373 L 81.1053,-30.5522 L 81.1855,-30.7226 L 81.2865,-30.8817
 L 81.4065,-31.0268 L 81.5439,-31.1558 L 81.6963,-31.2665 L 81.8613,-31.3572 L 82.0365,-31.4266 L 82.2189,-31.4734
 L 82.4058,-31.497 L 82.5942,-31.497 L 82.7811,-31.4734 L 82.9635,-31.4266 L 83.1387,-31.3572 L 83.3037,-31.2665
 L 83.4561,-31.1558 L 83.5934,-31.0268 L 83.7135,-30.8817 L 83.8145,-30.7226 L 83.8947,-30.5522 L 83.9529,-30.373
 L 83.9882,-30.188 L 84,-30 L 83.9882,-29.812 L 83.9529,-29.627 L 83.8947,-29.4478 L 83.8145,-29.2774
 L 83.7135,-29.1183 L 83.5934,-28.9732 L 83.4561,-28.8442 L 83.3037,-28.7335 L 83.1387,-28.6427 L 82.9635,-28.5734
 L 82.7811,-28.5266 L 82.5942,-28.503 z
M 7.40581,-28.503 L 7.21892,-28.5266 L 7.03647,-28.5734 L 6.86133,-28.6427 L 6.69626,-28.7335 L 6.54385,-28.8442
 L 6.40654,-28.9732 L 6.28647,-29.1183 L 6.18553,-29.2774 L 6.10533,-29.4478 L 6.04712,-29.627 L 6.01183,-29.812
 L 6,-30 L 6.01183,-30.188 L 6.04712,-30.373 L 6.10533,-30.5522 L 6.18553,-30.7226 L 6.28647,-30.8817
 L 6.40654,-31.0268 L 6.54385,-31.1558 L 6.69626,-31.2665 L 6.86133,-31.3572 L 7.03647,-31.4266 L 7.21892,-31.4734
 L 7.40581,-31.497 L 7.59418,-31.497 L 7.78107,-31.4734 L 7.96352,-31.4266 L 8.13866,-31.3572 L 8.30373,-31.2665
 L 8.45613,-31.1558 L 8.59344,-31.0268 L 8.71352,-30.8817 L 8.81445,-30.7226 L 8.89465,-30.5522 L 8.95287,-30.373
 L 8.98816,-30.188 L 9,-30 L 8.98816,-29.812 L 8.95287,-29.627 L 8.89465,-29.4478 L 8.81445,-29.2774
 L 8.71352,-29.1183 L 8.59344,-28.9732 L 8.45613,-28.8442 L 8.30373,-28.7335 L 8.13866,-28.6427 L 7.96352,-28.5734
 L 7.78107,-28.5266 L 7.59418,-28.503 z
M -22.5942,-28.503 L -22.7811,-28.5266 L -22.9635,-28.5734 L -23.1387,-28.6427 L -23.3037,-28.7335 L -23.4561,-28.8442
 L -23.5934,-28.9732 L -23.7135,-29.1183 L -23.8145,-29.2774 L -23.8947,-29.4478 L -23.9529,-29.627 L -23.9882,-29.812
 L -24,-30 L -23.9882,-30.188 L -23.9529,-30.373 L -23.8947,-30.5522 L -23.8145,-30.7226 L -23.7135,-30.8817
 L -23.5934,-31.0268 L -23.4561,-31.1558 L -23.3037,-31.2665 L -23.1387,-31.3572 L -22.9635,-31.4266 L -22.7811,-31.4734
 L -22.5942,-31.497 L -22.4058,-31.497 L -22.2189,-31.4734 L -22.0365,-31.4266 L -21.8613,-31.3572 L -21.6963,-31.2665
 L -21.5439,-31.1558 L -21.4065,-31.0268 L -21.2865,-30.8817 L -21.1855,-30.7226 L -21.1053,-30.5522 L -21.0471,-30.373
 L -21.0118,-30.188 L -21,-30 L -21.0118,-29.812 L -21.0471,-29.627 L -21.1053,-29.4478 L -21.1855,-29.2774
 L -21.2865,-29.1183 L -21.4065,-28.9732 L -21.5439,-28.8442 L -21.6963,-28.7335 L -21.8613,-28.6427 L -22.0365,-28.5734
 L -22.2189,-28.5266 L -22.4058,-28.503 z
M 37.4058,-28.503 L 37.2189,-28.5266 L 37.0365,-28.5734 L 36.8613,-28.6427 L 36.6963,-28.7335 L 36.5439,-28.8442
 L 36.4065,-28.9732 L 36.2865,-29.1183 L 36.1855,-29.2774 L 36.1053,-29.4478 L 36.0471,-29.627 L 36.0118,-29.812
 L 36,-30 L 36.0118,-30.188 L 36.0471,-30.373 L 36.1053,-30.5522 L 36.1855,-30.7226 L 36.2865,-30.8817
 L 36.4065,-31.0268 L 36.5439,-31.1558 L 36.6963,-31.2665 L 36.8613,-31.3572 L 37.0365,-31.4266 L 37.2189,-31.4734
 L 37.4058,-31.497 L 37.5942,-31.497 L 37.7811,-31.4734 L 37.9635,-31.4266 L 38.1387,-31.3572 L 38.3037,-31.2665
 L 38.4561,-31.1558 L 38.5934,-31.0268 L 38.7135,-30.8817 L 38.8145,-30.7226 L 38.8947,-30.5522 L 38.9529,-30.373
 L 38.9882,-30.188 L 39,-30 L 38.9882,-29.812 L 38.9529,-29.627 L 38.8947,-29.4478 L 38.8145,-29.2774
 L 38.7135,-29.1183 L 38.5934,-28.9732 L 38.4561,-28.8442 L 38.3037,-28.7335 L 38.1387,-28.6427 L 37.9635,-28.5734
 L 37.7811,-28.5266 L 37.5942,-28.503 z
M -7.59418,-28.503 L -7.78107,-28.5266 L -7.96352,-28.5734 L -8.13866,-28.6427 L -8.30373,-28.7335 L -8.45613,-28.8442
 L -8.59344,-28.9732 L -8.71352,-29.1183 L -8.81445,-29.2774 L -8.89465,-29.4478 L -8.95287,-29.627 L -8.98816,-29.812
 L -9,-30 L -8.98816,-30.188 L -8.95287,-30.373 L -8.89465,-30.5522 L -8.81445,-30.7226 L -8.71352,-30.8817
 L -8.59344,-31.0268 L -8.45613,-31.1558 L -8.30373,-31.2665 L -8.13866,-31.3572 L -7.96352,-31.4266 L -7.78107,-31.4734
 L -7.59418,-31.497 L -7.40581,-31.497 L -7.21892,-31.4734 L -7.03647,-31.4266 L -6.86133,-31.3572 L -6.69626,-31.2665
 L -6.54385,-31.1558 L -6.40654,-31.0268 L -6.28647,-30.8817 L -6.18553,-30.7226 L -6.10533,-30.5522 L -6.04712,-30.373
 L -6.01183,-30.188 L -6,-30 L -6.01183,-29.812 L -6.04712,-29.627 L -6.10533,-29.4478 L -6.18553,-29.2774
 L -6.28647,-29.1183 L -6.40654,-28.9732 L -6.54385,-28.8442 L -6.69626,-28.7335 L -6.86133,-28.6427 L -7.03647,-28.5734
 L -7.21892,-28.5266 L -7.40581,-28.503 z
M 52.4058,-28.503 L 52.2189,-28.5266 L 52.0365,-28.5734 L 51.8613,-28.6427 L 51.6963,-28.7335 L 51.5439,-28.8442
 L 51.4065,-28.9732 L 51.2865,-29.1183 L 51.1855,-29.2774 L 51.1053,-29.4478 L 51.0471,-29.627 L 51.0118,-29.812
 L 51,-30 L 51.0118,-30.188 L 51.0471,-30.373 L 51.1053,-30.5522 L 51.1855,-30.7226 L 51.2865,-30.8817
 L 51.4065,-31.0268 L 51.5439,-31.1558 L 51.6963,-31.2665 L 51.8613,-31.3572 L 52.0365,-31.4266 L 52.2189,-31.4734
 L 52.4058,-31.497 L 52.5942,-31.497 L 52.7811,-31.4734 L 52.9635,-31.4266 L 53.1387,-31.3572 L 53.3037,-31.2665
 L 53.4561,-31.1558 L 53.5934,-31.0268 L 53.7135,-30.8817 L 53.8145,-30.7226 L 53.8947,-30.5522 L 53.9529,-30.373
 L 53.9882,-30.188 L 54,-30 L 53.9882,-29.812 L 53.9529,-29.627 L 53.8947,-29.4478 L 53.8145,-29.2774
 L 53.7135,-29.1183 L 53.5934,-28.9732 L 53.4561,-28.8442 L 53.3037,-28.7335 L 53.1387,-28.6427 L 52.9635,-28.5734
 L 52.7811,-28.5266 L 52.5942,-28.503 z
M 22.4058,-28.503 L 22.2189,-28.5266 L 22.0365,-28.5734 L 21.8613,-28.6427 L 21.6963,-28.7335 L 21.5439,-28.8442
 L 21.4065,-28.9732 L 21.2865,-29.1183 L 21.1855,-29.2774 L 21.1053,-29.4478 L 21.0471,-29.627 L 21.0118,-29.812
 L 21,-30 L 21.0118,-30.188 L 21.0471,-30.373 L 21.1053,-30.5522 L 21.1855,-30.7226 L 21.2865,-30.8817
 L 21.4065,-31.0268 L 21.5439,-31.1558 L 21.6963,-31.2665 L 21.8613,-31.3572 L 22.0365,-31.4266 L 22.2189,-31.4734
 L 22.4058,-31.497 L 22.5942,-31.497 L 22.7811,-31.4734 L 22.9635,-31.4266 L 23.1387,-31.3572 L 23.3037,-31.2665
 L 23.4561,-31.1558 L 23.5934,-31.0268 L 23.7135,-30.8817 L 23.8145,-30.7226 L 23.8947,-30.5522 L 23.9529,-30.373
 L 23.9882,-30.188 L 24,-30 L 23.9882,-29.812 L 23.9529,-29.627 L 23.8947,-29.4478 L 23.8145,-29.2774
 L 23.7135,-29.1183 L 23.5934,-28.9732 L 23.4561,-28.8442 L 23.3037,-28.7335 L 23.1387,-28.6427 L 22.9635,-28.5734
 L 22.7811,-28.5266 L 22.5942,-28.503 z
M -37.5942,-28.503 L -37.7811,-28.5266 L -37.9635,-28.5734 L -38.1387,-28.6427 L -38.3037,-28.7335 L -38.4561,-28.8442
 L -38.5934,-28.9732 L -38.7135,-29.1183 L -38.8145,-29.2774 L -38.8947,-29.4478 L -38.9529,-29.627 L -38.9882,-29.812
 L -39,-30 L -38.9882,-30.188 L -38.9529,-30.373 L -38.8947,-30.5522 L -38.8145,-30.7226 L -38.7135,-30.8817
 L -38.5934,-31.0268 L -38.4561,-31.1558 L -38.3037,-31.2665 L -38.1387,-31.3572 L -37.9635,-31.4266 L -37.7811,-31.4734
 L -37.5942,-31.497 L -37.4058,-31.497 L -37.2189,-31.4734 L -37.0365,-31.4266 L -36.8613,-31.3572 L -36.6963,-31.2665
 L -36.5439,-31.1558 L -36.4065,-31.0268 L -36.2865,-30.8817 L -36.1855,-30.7226 L -36.1053,-30.5522 L -36.0471,-30.373
 L -36.0118,-30.188 L -36,-30 L -36.0118,-29.812 L -36.0471,-29.627 L -36.1053,-29.4478 L -36.1855,-29.2774
 L -36.2865,-29.1183 L -36.4065,-28.9732 L -36.5439,-28.8442 L -36.6963,-28.7335 L -36.8613,-28.6427 L -37.0365,-28.5734
 L -37.2189,-28.5266 L -37.4058,-28.503 z
M -105.094,-21.003 L -105.281,-21.0266 L -105.464,-21.0734 L -105.639,-21.1427 L -105.804,-21.2335 L -105.956,-21.3442
 L -106.093,-21.4732 L -106.214,-21.6183 L -106.314,-21.7774 L -106.395,-21.9478 L -106.453,-22.127 L -106.488,-22.312
 L -106.5,-22.5 L -106.488,-22.688 L -106.453,-22.873 L -106.395,-23.0522 L -106.314,-23.2226 L -106.214,-23.3817
 L -106.093,-23.5268 L -105.956,-23.6558 L -105.804,-23.7665 L -105.639,-23.8572 L -105.464,-23.9266 L -105.281,-23.9734
 L -105.094,-23.997 L -104.906,-23.997 L -104.719,-23.9734 L -104.536,-23.9266 L -104.361,-23.8572 L -104.196,-23.7665
 L -104.044,-23.6558 L -103.907,-23.5268 L -103.786,-23.3817 L -103.686,-23.2226 L -103.605,-23.0522 L -103.547,-22.873
 L -103.512,-22.688 L -103.5,-22.5 L -103.512,-22.312 L -103.547,-22.127 L -103.605,-21.9478 L -103.686,-21.7774
 L -103.786,-21.6183 L -103.907,-21.4732 L -104.044,-21.3442 L -104.196,-21.2335 L -104.361,-21.1427 L -104.536,-21.0734
 L -104.719,-21.0266 L -104.906,-21.003 z
M 104.906,-21.003 L 104.719,-21.0266 L 104.536,-21.0734 L 104.361,-21.1427 L 104.196,-21.2335 L 104.044,-21.3442
 L 103.907,-21.4732 L 103.786,-21.6183 L 103.686,-21.7774 L 103.605,-21.9478 L 103.547,-22.127 L 103.512,-22.312
 L 103.5,-22.5 L 103.512,-22.688 L 103.547,-22.873 L 103.605,-23.0522 L 103.686,-23.2226 L 103.786,-23.3817
 L 103.907,-23.5268 L 104.044,-23.6558 L 104.196,-23.7665 L 104.361,-23.8572 L 104.536,-23.9266 L 104.719,-23.9734
 L 104.906,-23.997 L 105.094,-23.997 L 105.281,-23.9734 L 105.464,-23.9266 L 105.639,-23.8572 L 105.804,-23.7665
 L 105.956,-23.6558 L 106.093,-23.5268 L 106.214,-23.3817 L 106.314,-23.2226 L 106.395,-23.0522 L 106.453,-22.873
 L 106.488,-22.688 L 106.5,-22.5 L 106.488,-22.312 L 106.453,-22.127 L 106.395,-21.9478 L 106.314,-21.7774
 L 106.214,-21.6183 L 106.093,-21.4732 L 105.956,-21.3442 L 105.804,-21.2335 L 105.639,-21.1427 L 105.464,-21.0734
 L 105.281,-21.0266 L 105.094,-21.003 z
M -74.8814,21.9566 L -77.6224,21.6103 L -80.2984,20.9232 L -82.8671,19.9062 L -85.2882,18.5752 L -87.5233,16.9513
 L -89.5373,15.06 L -91.2984,12.9313 L -92.7787,10.5986 L -93.9551,8.09874 L -94.8088,5.47118 L -95.3265,2.75732
 L -95.5,-0 L -95.3265,-2.75732 L -94.8088,-5.47118 L -93.9551,-8.09874 L -92.7787,-10.5986 L -91.2984,-12.9313
 L -89.5373,-15.06 L -87.5233,-16.9513 L -85.2882,-18.5752 L -82.8671,-19.9062 L -80.2984,-20.9232 L -77.6224,-21.6103
 L -74.8814,-21.9566 L -72.1186,-21.9566 L -69.3776,-21.6103 L -66.7016,-20.9232 L -64.1329,-19.9062 L -61.7118,-18.5752
 L -59.4767,-16.9513 L -57.4627,-15.06 L -55.7016,-12.9313 L -54.2213,-10.5986 L -53.0449,-8.09874 L -52.1912,-5.47118
 L -51.6735,-2.75732 L -51.5,-0 L -51.6735,2.75732 L -52.1912,5.47118 L -53.0449,8.09874 L -54.2213,10.5986
 L -55.7016,12.9313 L -57.4627,15.06 L -59.4767,16.9513 L -61.7118,18.5752 L -64.1329,19.9062 L -66.7016,20.9232
 L -69.3776,21.6103 L -72.1186,21.9566 z
M 6.70161,-12.9313 L 8.46268,-15.06 L 10.4767,-16.9513 L 12.7118,-18.5752 L 15.1328,-19.9062 L 17.7016,-20.9232
 L 20.3776,-21.6103 L 23.1186,-21.9566 L 25.8814,-21.9566 L 28.6224,-21.6103 L 31.2984,-20.9232 L 33.8671,-19.9062
 L 36.2882,-18.5752 L 38.5233,-16.9513 L 40.5373,-15.06 L 42.2984,-12.9313 L 43.7787,-10.5986 L 44.9551,-8.09874
 L 45.8088,-5.47118 L 46.3265,-2.75732 L 46.5,-0 L 46.3265,2.75732 L 45.8088,5.47118 L 44.9551,8.09874
 L 43.7787,10.5986 L 42.2984,12.9313 L 40.5373,15.06 L 38.5233,16.9513 L 36.2882,18.5752 L 33.8671,19.9062
 L 31.2984,20.9232 L 28.6224,21.6103 L 25.8814,21.9566 L 23.1186,21.9566 L 20.3776,21.6103 L 17.7016,20.9232
 L 15.1328,19.9062 L 12.7118,18.5752 L 10.4767,16.9513 L 8.46268,15.06 L 6.70161,12.9313 L 5.22125,10.5986
 L 4.04491,8.09874 L 3.19116,5.47118 L 2.67346,2.75732 L 2.5,-0 L 2.67346,-2.75732 L 3.19116,-5.47118
 L 4.04491,-8.09874 L 5.22125,-10.5986 z
M 72.1186,21.9566 L 69.3776,21.6103 L 66.7016,20.9232 L 64.1329,19.9062 L 61.7118,18.5752 L 59.4767,16.9513
 L 57.4627,15.06 L 55.7016,12.9313 L 54.2213,10.5986 L 53.0449,8.09874 L 52.1912,5.47118 L 51.6735,2.75732
 L 51.5,-0 L 51.6735,-2.75732 L 52.1912,-5.47118 L 53.0449,-8.09874 L 54.2213,-10.5986 L 55.7016,-12.9313
 L 57.4627,-15.06 L 59.4767,-16.9513 L 61.7118,-18.5752 L 64.1329,-19.9062 L 66.7016,-20.9232 L 69.3776,-21.6103
 L 72.1186,-21.9566 L 74.8814,-21.9566 L 77.6224,-21.6103 L 80.2984,-20.9232 L 82.8671,-19.9062 L 85.2882,-18.5752
 L 87.5233,-16.9513 L 89.5373,-15.06 L 91.2984,-12.9313 L 92.7787,-10.5986 L 93.9551,-8.09874 L 94.8088,-5.47118
 L 95.3265,-2.75732 L 95.5,-0 L 95.3265,2.75732 L 94.8088,5.47118 L 93.9551,8.09874 L 92.7787,10.5986
 L 91.2984,12.9313 L 89.5373,15.06 L 87.5233,16.9513 L 85.2882,18.5752 L 82.8671,19.9062 L 80.2984,20.9232
 L 77.6224,21.6103 L 74.8814,21.9566 z
M 104.812,-12.0059 L 104.438,-12.0531 L 104.073,-12.1468 L 103.723,-12.2855 L 103.393,-12.467 L 103.088,-12.6884
 L 102.813,-12.9464 L 102.573,-13.2366 L 102.371,-13.5547 L 102.211,-13.8956 L 102.094,-14.2539 L 102.024,-14.624
 L 102,-15 L 102.024,-15.376 L 102.094,-15.7461 L 102.211,-16.1044 L 102.371,-16.4453 L 102.573,-16.7634
 L 102.813,-17.0536 L 103.088,-17.3115 L 103.393,-17.533 L 103.723,-17.7145 L 104.073,-17.8532 L 104.438,-17.9469
 L 104.812,-17.9941 L 105.188,-17.9941 L 105.562,-17.9469 L 105.927,-17.8532 L 106.277,-17.7145 L 106.607,-17.533
 L 106.912,-17.3115 L 107.187,-17.0536 L 107.427,-16.7634 L 107.629,-16.4453 L 107.789,-16.1044 L 107.906,-15.7461
 L 107.976,-15.376 L 108,-15 L 107.976,-14.624 L 107.906,-14.2539 L 107.789,-13.8956 L 107.629,-13.5547
 L 107.427,-13.2366 L 107.187,-12.9464 L 106.912,-12.6884 L 106.607,-12.467 L 106.277,-12.2855 L 105.927,-12.1468
 L 105.562,-12.0531 L 105.188,-12.0059 z
M -105.188,-12.0059 L -105.562,-12.0531 L -105.927,-12.1468 L -106.277,-12.2855 L -106.607,-12.467 L -106.912,-12.6884
 L -107.187,-12.9464 L -107.427,-13.2366 L -107.629,-13.5547 L -107.789,-13.8956 L -107.906,-14.2539 L -107.976,-14.624
 L -108,-15 L -107.976,-15.376 L -107.906,-15.7461 L -107.789,-16.1044 L -107.629,-16.4453 L -107.427,-16.7634
 L -107.187,-17.0536 L -106.912,-17.3115 L -106.607,-17.533 L -106.277,-17.7145 L -105.927,-17.8532 L -105.562,-17.9469
 L -105.188,-17.9941 L -104.812,-17.9941 L -104.438,-17.9469 L -104.073,-17.8532 L -103.723,-17.7145 L -103.393,-17.533
 L -103.088,-17.3115 L -102.813,-17.0536 L -102.573,-16.7634 L -102.371,-16.4453 L -102.211,-16.1044 L -102.094,-15.7461
 L -102.024,-15.376 L -102,-15 L -102.024,-14.624 L -102.094,-14.2539 L -102.211,-13.8956 L -102.371,-13.5547
 L -102.573,-13.2366 L -102.813,-12.9464 L -103.088,-12.6884 L -103.393,-12.467 L -103.723,-12.2855 L -104.073,-12.1468
 L -104.438,-12.0531 L -104.812,-12.0059 z
M 104.906,-6.00294 L 104.719,-6.02657 L 104.536,-6.07341 L 104.361,-6.14275 L 104.196,-6.23351 L 104.044,-6.34422
 L 103.907,-6.47318 L 103.786,-6.61832 L 103.686,-6.77736 L 103.605,-6.9478 L 103.547,-7.12695 L 103.512,-7.312
 L 103.5,-7.5 L 103.512,-7.68799 L 103.547,-7.87303 L 103.605,-8.05219 L 103.686,-8.22263 L 103.786,-8.38167
 L 103.907,-8.52681 L 104.044,-8.65576 L 104.196,-8.76648 L 104.361,-8.85724 L 104.536,-8.92657 L 104.719,-8.97342
 L 104.906,-8.99704 L 105.094,-8.99704 L 105.281,-8.97342 L 105.464,-8.92657 L 105.639,-8.85724 L 105.804,-8.76648
 L 105.956,-8.65576 L 106.093,-8.52681 L 106.214,-8.38167 L 106.314,-8.22263 L 106.395,-8.05219 L 106.453,-7.87303
 L 106.488,-7.68799 L 106.5,-7.5 L 106.488,-7.312 L 106.453,-7.12695 L 106.395,-6.9478 L 106.314,-6.77736
 L 106.214,-6.61832 L 106.093,-6.47318 L 105.956,-6.34422 L 105.804,-6.23351 L 105.639,-6.14275 L 105.464,-6.07341
 L 105.281,-6.02657 L 105.094,-6.00294 z
M -105.094,-6.00294 L -105.281,-6.02657 L -105.464,-6.07341 L -105.639,-6.14275 L -105.804,-6.23351 L -105.956,-6.34422
 L -106.093,-6.47318 L -106.214,-6.61832 L -106.314,-6.77736 L -106.395,-6.9478 L -106.453,-7.12695 L -106.488,-7.312
 L -106.5,-7.5 L -106.488,-7.68799 L -106.453,-7.87303 L -106.395,-8.05219 L -106.314,-8.22263 L -106.214,-8.38167
 L -106.093,-8.52681 L -105.956,-8.65576 L -105.804,-8.76648 L -105.639,-8.85724 L -105.464,-8.92657 L -105.281,-8.97342
 L -105.094,-8.99704 L -104.906,-8.99704 L -104.719,-8.97342 L -104.536,-8.92657 L -104.361,-8.85724 L -104.196,-8.76648
 L -104.044,-8.65576 L -103.907,-8.52681 L -103.786,-8.38167 L -103.686,-8.22263 L -103.605,-8.05219 L -103.547,-7.87303
 L -103.512,-7.68799 L -103.5,-7.5 L -103.512,-7.312 L -103.547,-7.12695 L -103.605,-6.9478 L -103.686,-6.77736
 L -103.786,-6.61832 L -103.907,-6.47318 L -104.044,-6.34422 L -104.196,-6.23351 L -104.361,-6.14275 L -104.536,-6.07341
 L -104.719,-6.02657 L -104.906,-6.00294 z
M -105.188,2.99408 L -105.562,2.94685 L -105.927,2.85316 L -106.277,2.71448 L -106.607,2.53297 L -106.912,2.31154
 L -107.187,2.05363 L -107.427,1.76335 L -107.629,1.44525 L -107.789,1.10437 L -107.906,0.746063 L -107.976,0.375992
 L -108,-0 L -107.976,-0.375992 L -107.906,-0.746063 L -107.789,-1.10437 L -107.629,-1.44525 L -107.427,-1.76335
 L -107.187,-2.05363 L -106.912,-2.31154 L -106.607,-2.53297 L -106.277,-2.71448 L -105.927,-2.85316 L -105.562,-2.94685
 L -105.188,-2.99408 L -104.812,-2.99408 L -104.438,-2.94685 L -104.073,-2.85316 L -103.723,-2.71448 L -103.393,-2.53297
 L -103.088,-2.31154 L -102.813,-2.05363 L -102.573,-1.76335 L -102.371,-1.44525 L -102.211,-1.10437 L -102.094,-0.746063
 L -102.024,-0.375992 L -102,-0 L -102.024,0.375992 L -102.094,0.746063 L -102.211,1.10437 L -102.371,1.44525
 L -102.573,1.76335 L -102.813,2.05363 L -103.088,2.31154 L -103.393,2.53297 L -103.723,2.71448 L -104.073,2.85316
 L -104.438,2.94685 L -104.812,2.99408 z
M 104.812,2.99408 L 104.438,2.94685 L 104.073,2.85316 L 103.723,2.71448 L 103.393,2.53297 L 103.088,2.31154
 L 102.813,2.05363 L 102.573,1.76335 L 102.371,1.44525 L 102.211,1.10437 L 102.094,0.746063 L 102.024,0.375992
 L 102,-0 L 102.024,-0.375992 L 102.094,-0.746063 L 102.211,-1.10437 L 102.371,-1.44525 L 102.573,-1.76335
 L 102.813,-2.05363 L 103.088,-2.31154 L 103.393,-2.53297 L 103.723,-2.71448 L 104.073,-2.85316 L 104.438,-2.94685
 L 104.812,-2.99408 L 105.188,-2.99408 L 105.562,-2.94685 L 105.927,-2.85316 L 106.277,-2.71448 L 106.607,-2.53297
 L 106.912,-2.31154 L 107.187,-2.05363 L 107.427,-1.76335 L 107.629,-1.44525 L 107.789,-1.10437 L 107.906,-0.746063
 L 107.976,-0.375992 L 108,-0 L 107.976,0.375992 L 107.906,0.746063 L 107.789,1.10437 L 107.629,1.44525
 L 107.427,1.76335 L 107.187,2.05363 L 106.912,2.31154 L 106.607,2.53297 L 106.277,2.71448 L 105.927,2.85316
 L 105.562,2.94685 L 105.188,2.99408 z
M 104.906,8.99704 L 104.719,8.97342 L 104.536,8.92657 L 104.361,8.85724 L 104.196,8.76648 L 104.044,8.65576
 L 103.907,8.52681 L 103.786,8.38167 L 103.686,8.22263 L 103.605,8.05219 L 103.547,7.87303 L 103.512,7.68799
 L 103.5,7.5 L 103.512,7.312 L 103.547,7.12695 L 103.605,6.9478 L 103.686,6.77736 L 103.786,6.61832
 L 103.907,6.47318 L 104.044,6.34422 L 104.196,6.23351 L 104.361,6.14275 L 104.536,6.07341 L 104.719,6.02657
 L 104.906,6.00294 L 105.094,6.00294 L 105.281,6.02657 L 105.464,6.07341 L 105.639,6.14275 L 105.804,6.23351
 L 105.956,6.34422 L 106.093,6.47318 L 106.214,6.61832 L 106.314,6.77736 L 106.395,6.9478 L 106.453,7.12695
 L 106.488,7.312 L 106.5,7.5 L 106.488,7.68799 L 106.453,7.87303 L 106.395,8.05219 L 106.314,8.22263
 L 106.214,8.38167 L 106.093,8.52681 L 105.956,8.65576 L 105.804,8.76648 L 105.639,8.85724 L 105.464,8.92657
 L 105.281,8.97342 L 105.094,8.99704 z
M -105.094,8.99704 L -105.281,8.97342 L -105.464,8.92657 L -105.639,8.85724 L -105.804,8.76648 L -105.956,8.65576
 L -106.093,8.52681 L -106.214,8.38167 L -106.314,8.22263 L -106.395,8.05219 L -106.453,7.87303 L -106.488,7.68799
 L -106.5,7.5 L -106.488,7.312 L -106.453,7.12695 L -106.395,6.9478 L -106.314,6.77736 L -106.214,6.61832
 L -106.093,6.47318 L -105.956,6.34422 L -105.804,6.23351 L -105.639,6.14275 L -105.464,6.07341 L -105.281,6.02657
 L -105.094,6.00294 L -104.906,6.00294 L -104.719,6.02657 L -104.536,6.07341 L -104.361,6.14275 L -104.196,6.23351
 L -104.044,6.34422 L -103.907,6.47318 L -103.786,6.61832 L -103.686,6.77736 L -103.605,6.9478 L -103.547,7.12695
 L -103.512,7.312 L -103.5,7.5 L -103.512,7.68799 L -103.547,7.87303 L -103.605,8.05219 L -103.686,8.22263
 L -103.786,8.38167 L -103.907,8.52681 L -104.044,8.65576 L -104.196,8.76648 L -104.361,8.85724 L -104.536,8.92657
 L -104.719,8.97342 L -104.906,8.99704 z
M 104.812,17.9941 L 104.438,17.9469 L 104.073,17.8532 L 103.723,17.7145 L 103.393,17.533 L 103.088,17.3115
 L 102.813,17.0536 L 102.573,16.7634 L 102.371,16.4453 L 102.211,16.1044 L 102.094,15.7461 L 102.024,15.376
 L 102,15 L 102.024,14.624 L 102.094,14.2539 L 102.211,13.8956 L 102.371,13.5547 L 102.573,13.2366
 L 102.813,12.9464 L 103.088,12.6884 L 103.393,12.467 L 103.723,12.2855 L 104.073,12.1468 L 104.438,12.0531
 L 104.812,12.0059 L 105.188,12.0059 L 105.562,12.0531 L 105.927,12.1468 L 106.277,12.2855 L 106.607,12.467
 L 106.912,12.6884 L 107.187,12.9464 L 107.427,13.2366 L 107.629,13.5547 L 107.789,13.8956 L 107.906,14.2539
 L 107.976,14.624 L 108,15 L 107.976,15.376 L 107.906,15.7461 L 107.789,16.1044 L 107.629,16.4453
 L 107.427,16.7634 L 107.187,17.0536 L 106.912,17.3115 L 106.607,17.533 L 106.277,17.7145 L 105.927,17.8532
 L 105.562,17.9469 L 105.188,17.9941 z
M -105.188,17.9941 L -105.562,17.9469 L -105.927,17.8532 L -106.277,17.7145 L -106.607,17.533 L -106.912,17.3115
 L -107.187,17.0536 L -107.427,16.7634 L -107.629,16.4453 L -107.789,16.1044 L -107.906,15.7461 L -107.976,15.376
 L -108,15 L -107.976,14.624 L -107.906,14.2539 L -107.789,13.8956 L -107.629,13.5547 L -107.427,13.2366
 L -107.187,12.9464 L -106.912,12.6884 L -106.607,12.467 L -106.277,12.2855 L -105.927,12.1468 L -105.562,12.0531
 L -105.188,12.0059 L -104.812,12.0059 L -104.438,12.0531 L -104.073,12.1468 L -103.723,12.2855 L -103.393,12.467
 L -103.088,12.6884 L -102.813,12.9464 L -102.573,13.2366 L -102.371,13.5547 L -102.211,13.8956 L -102.094,14.2539
 L -102.024,14.624 L -102,15 L -102.024,15.376 L -102.094,15.7461 L -102.211,16.1044 L -102.371,16.4453
 L -102.573,16.7634 L -102.813,17.0536 L -103.088,17.3115 L -103.393,17.533 L -103.723,17.7145 L -104.073,17.8532
 L -104.438,17.9469 L -104.812,17.9941 z
M -105.094,23.997 L -105.281,23.9734 L -105.464,23.9266 L -105.639,23.8572 L -105.804,23.7665 L -105.956,23.6558
 L -106.093,23.5268 L -106.214,23.3817 L -106.314,23.2226 L -106.395,23.0522 L -106.453,22.873 L -106.488,22.688
 L -106.5,22.5 L -106.488,22.312 L -106.453,22.127 L -106.395,21.9478 L -106.314,21.7774 L -106.214,21.6183
 L -106.093,21.4732 L -105.956,21.3442 L -105.804,21.2335 L -105.639,21.1427 L -105.464,21.0734 L -105.281,21.0266
 L -105.094,21.003 L -104.906,21.003 L -104.719,21.0266 L -104.536,21.0734 L -104.361,21.1427 L -104.196,21.2335
 L -104.044,21.3442 L -103.907,21.4732 L -103.786,21.6183 L -103.686,21.7774 L -103.605,21.9478 L -103.547,22.127
 L -103.512,22.312 L -103.5,22.5 L -103.512,22.688 L -103.547,22.873 L -103.605,23.0522 L -103.686,23.2226
 L -103.786,23.3817 L -103.907,23.5268 L -104.044,23.6558 L -104.196,23.7665 L -104.361,23.8572 L -104.536,23.9266
 L -104.719,23.9734 L -104.906,23.997 z
M 104.906,23.997 L 104.719,23.9734 L 104.536,23.9266 L 104.361,23.8572 L 104.196,23.7665 L 104.044,23.6558
 L 103.907,23.5268 L 103.786,23.3817 L 103.686,23.2226 L 103.605,23.0522 L 103.547,22.873 L 103.512,22.688
 L 103.5,22.5 L 103.512,22.312 L 103.547,22.127 L 103.605,21.9478 L 103.686,21.7774 L 103.786,21.6183
 L 103.907,21.4732 L 104.044,21.3442 L 104.196,21.2335 L 104.361,21.1427 L 104.536,21.0734 L 104.719,21.0266
 L 104.906,21.003 L 105.094,21.003 L 105.281,21.0266 L 105.464,21.0734 L 105.639,21.1427 L 105.804,21.2335
 L 105.956,21.3442 L 106.093,21.4732 L 106.214,21.6183 L 106.314,21.7774 L 106.395,21.9478 L 106.453,22.127
 L 106.488,22.312 L 106.5,22.5 L 106.488,22.688 L 106.453,22.873 L 106.395,23.0522 L 106.314,23.2226
 L 106.214,23.3817 L 106.093,23.5268 L 105.956,23.6558 L 105.804,23.7665 L 105.639,23.8572 L 105.464,23.9266
 L 105.281,23.9734 L 105.094,23.997 z
M 104.812,32.9941 L 104.438,32.9469 L 104.073,32.8532 L 103.723,32.7145 L 103.393,32.533 L 103.088,32.3115
 L 102.813,32.0536 L 102.573,31.7634 L 102.371,31.4453 L 102.211,31.1044 L 102.094,30.7461 L 102.024,30.376
 L 102,30 L 102.024,29.624 L 102.094,29.2539 L 102.211,28.8956 L 102.371,28.5547 L 102.573,28.2366
 L 102.813,27.9464 L 103.088,27.6884 L 103.393,27.467 L 103.723,27.2855 L 104.073,27.1468 L 104.438,27.0531
 L 104.812,27.0059 L 105.188,27.0059 L 105.562,27.0531 L 105.927,27.1468 L 106.277,27.2855 L 106.607,27.467
 L 106.912,27.6884 L 107.187,27.9464 L 107.427,28.2366 L 107.629,28.5547 L 107.789,28.8956 L 107.906,29.2539
 L 107.976,29.624 L 108,30 L 107.976,30.376 L 107.906,30.7461 L 107.789,31.1044 L 107.629,31.4453
 L 107.427,31.7634 L 107.187,32.0536 L 106.912,32.3115 L 106.607,32.533 L 106.277,32.7145 L 105.927,32.8532
 L 105.562,32.9469 L 105.188,32.9941 z
M 74.8116,32.9941 L 74.4379,32.9469 L 74.073,32.8532 L 73.7227,32.7145 L 73.3925,32.533 L 73.0877,32.3115
 L 72.8131,32.0536 L 72.573,31.7634 L 72.3711,31.4453 L 72.2107,31.1044 L 72.0943,30.7461 L 72.0237,30.376
 L 72,30 L 72.0237,29.624 L 72.0943,29.2539 L 72.2107,28.8956 L 72.3711,28.5547 L 72.573,28.2366
 L 72.8131,27.9464 L 73.0877,27.6884 L 73.3925,27.467 L 73.7227,27.2855 L 74.073,27.1468 L 74.4379,27.0531
 L 74.8116,27.0059 L 75.1884,27.0059 L 75.5621,27.0531 L 75.927,27.1468 L 76.2773,27.2855 L 76.6075,27.467
 L 76.9123,27.6884 L 77.1869,27.9464 L 77.427,28.2366 L 77.6289,28.5547 L 77.7893,28.8956 L 77.9057,29.2539
 L 77.9763,29.624 L 78,30 L 77.9763,30.376 L 77.9057,30.7461 L 77.7893,31.1044 L 77.6289,31.4453
 L 77.427,31.7634 L 77.1869,32.0536 L 76.9123,32.3115 L 76.6075,32.533 L 76.2773,32.7145 L 75.927,32.8532
 L 75.5621,32.9469 L 75.1884,32.9941 z
M 59.8116,32.9941 L 59.4379,32.9469 L 59.0729,32.8532 L 58.7227,32.7145 L 58.3925,32.533 L 58.0877,32.3115
 L 57.8131,32.0536 L 57.5729,31.7634 L 57.3711,31.4453 L 57.2107,31.1044 L 57.0942,30.7461 L 57.0237,30.376
 L 57,30 L 57.0237,29.624 L 57.0942,29.2539 L 57.2107,28.8956 L 57.3711,28.5547 L 57.5729,28.2366
 L 57.8131,27.9464 L 58.0877,27.6884 L 58.3925,27.467 L 58.7227,27.2855 L 59.0729,27.1468 L 59.4379,27.0531
 L 59.8116,27.0059 L 60.1884,27.0059 L 60.5621,27.0531 L 60.927,27.1468 L 61.2773,27.2855 L 61.6075,27.467
 L 61.9123,27.6884 L 62.1869,27.9464 L 62.427,28.2366 L 62.6289,28.5547 L 62.7893,28.8956 L 62.9057,29.2539
 L 62.9763,29.624 L 63,30 L 62.9763,30.376 L 62.9057,30.7461 L 62.7893,31.1044 L 62.6289,31.4453
 L 62.427,31.7634 L 62.1869,32.0536 L 61.9123,32.3115 L 61.6075,32.533 L 61.2773,32.7145 L 60.927,32.8532
 L 60.5621,32.9469 L 60.1884,32.9941 z
M -45.1884,32.9941 L -45.5621,32.9469 L -45.927,32.8532 L -46.2773,32.7145 L -46.6075,32.533 L -46.9123,32.3115
 L -47.1869,32.0536 L -47.427,31.7634 L -47.6289,31.4453 L -47.7893,31.1044 L -47.9057,30.7461 L -47.9763,30.376
 L -48,30 L -47.9763,29.624 L -47.9057,29.2539 L -47.7893,28.8956 L -47.6289,28.5547 L -47.427,28.2366
 L -47.1869,27.9464 L -46.9123,27.6884 L -46.6075,27.467 L -46.2773,27.2855 L -45.927,27.1468 L -45.5621,27.0531
 L -45.1884,27.0059 L -44.8116,27.0059 L -44.4379,27.0531 L -44.0729,27.1468 L -43.7227,27.2855 L -43.3925,27.467
 L -43.0877,27.6884 L -42.8131,27.9464 L -42.5729,28.2366 L -42.3711,28.5547 L -42.2107,28.8956 L -42.0942,29.2539
 L -42.0237,29.624 L -42,30 L -42.0237,30.376 L -42.0942,30.7461 L -42.2107,31.1044 L -42.3711,31.4453
 L -42.5729,31.7634 L -42.8131,32.0536 L -43.0877,32.3115 L -43.3925,32.533 L -43.7227,32.7145 L -44.0729,32.8532
 L -44.4379,32.9469 L -44.8116,32.9941 z
M -15.1884,32.9941 L -15.5621,32.9469 L -15.927,32.8532 L -16.2773,32.7145 L -16.6075,32.533 L -16.9123,32.3115
 L -17.1869,32.0536 L -17.427,31.7634 L -17.6289,31.4453 L -17.7893,31.1044 L -17.9057,30.7461 L -17.9763,30.376
 L -18,30 L -17.9763,29.624 L -17.9057,29.2539 L -17.7893,28.8956 L -17.6289,28.5547 L -17.427,28.2366
 L -17.1869,27.9464 L -16.9123,27.6884 L -16.6075,27.467 L -16.2773,27.2855 L -15.927,27.1468 L -15.5621,27.0531
 L -15.1884,27.0059 L -14.8116,27.0059 L -14.4379,27.0531 L -14.0729,27.1468 L -13.7227,27.2855 L -13.3925,27.467
 L -13.0877,27.6884 L -12.8131,27.9464 L -12.5729,28.2366 L -12.3711,28.5547 L -12.2107,28.8956 L -12.0942,29.2539
 L -12.0237,29.624 L -12,30 L -12.0237,30.376 L -12.0942,30.7461 L -12.2107,31.1044 L -12.3711,31.4453
 L -12.5729,31.7634 L -12.8131,32.0536 L -13.0877,32.3115 L -13.3925,32.533 L -13.7227,32.7145 L -14.0729,32.8532
 L -14.4379,32.9469 L -14.8116,32.9941 z
M 89.8116,32.9941 L 89.4379,32.9469 L 89.073,32.8532 L 88.7227,32.7145 L 88.3925,32.533 L 88.0877,32.3115
 L 87.8131,32.0536 L 87.573,31.7634 L 87.3711,31.4453 L 87.2107,31.1044 L 87.0943,30.7461 L 87.0237,30.376
 L 87,30 L 87.0237,29.624 L 87.0943,29.2539 L 87.2107,28.8956 L 87.3711,28.5547 L 87.573,28.2366
 L 87.8131,27.9464 L 88.0877,27.6884 L 88.3925,27.467 L 88.7227,27.2855 L 89.073,27.1468 L 89.4379,27.0531
 L 89.8116,27.0059 L 90.1884,27.0059 L 90.5621,27.0531 L 90.927,27.1468 L 91.2773,27.2855 L 91.6075,27.467
 L 91.9123,27.6884 L 92.1869,27.9464 L 92.427,28.2366 L 92.6289,28.5547 L 92.7893,28.8956 L 92.9057,29.2539
 L 92.9763,29.624 L 93,30 L 92.9763,30.376 L 92.9057,30.7461 L 92.7893,31.1044 L 92.6289,31.4453
 L 92.427,31.7634 L 92.1869,32.0536 L 91.9123,32.3115 L 91.6075,32.533 L 91.2773,32.7145 L 90.927,32.8532
 L 90.5621,32.9469 L 90.1884,32.9941 z
M -0.18837,32.9941 L -0.562134,32.9469 L -0.927048,32.8532 L -1.27733,32.7145 L -1.60747,32.533 L -1.91226,32.3115
 L -2.1869,32.0536 L -2.42705,31.7634 L -2.62891,31.4453 L -2.78932,31.1044 L -2.90575,30.7461 L -2.97633,30.376
 L -3,30 L -2.97633,29.624 L -2.90575,29.2539 L -2.78932,28.8956 L -2.62891,28.5547 L -2.42705,28.2366
 L -2.1869,27.9464 L -1.91226,27.6884 L -1.60747,27.467 L -1.27733,27.2855 L -0.927048,27.1468 L -0.562134,27.0531
 L -0.18837,27.0059 L 0.18837,27.0059 L 0.562134,27.0531 L 0.927048,27.1468 L 1.27733,27.2855 L 1.60747,27.467
 L 1.91226,27.6884 L 2.1869,27.9464 L 2.42705,28.2366 L 2.62891,28.5547 L 2.78932,28.8956 L 2.90575,29.2539
 L 2.97633,29.624 L 3,30 L 2.97633,30.376 L 2.90575,30.7461 L 2.78932,31.1044 L 2.62891,31.4453
 L 2.42705,31.7634 L 2.1869,32.0536 L 1.91226,32.3115 L 1.60747,32.533 L 1.27733,32.7145 L 0.927048,32.8532
 L 0.562134,32.9469 L 0.18837,32.9941 z
M -30.1884,32.9941 L -30.5621,32.9469 L -30.927,32.8532 L -31.2773,32.7145 L -31.6075,32.533 L -31.9123,32.3115
 L -32.1869,32.0536 L -32.427,31.7634 L -32.6289,31.4453 L -32.7893,31.1044 L -32.9057,30.7461 L -32.9763,30.376
 L -33,30 L -32.9763,29.624 L -32.9057,29.2539 L -32.7893,28.8956 L -32.6289,28.5547 L -32.427,28.2366
 L -32.1869,27.9464 L -31.9123,27.6884 L -31.6075,27.467 L -31.2773,27.2855 L -30.927,27.1468 L -30.5621,27.0531
 L -30.1884,27.0059 L -29.8116,27.0059 L -29.4379,27.0531 L -29.0729,27.1468 L -28.7227,27.2855 L -28.3925,27.467
 L -28.0877,27.6884 L -27.8131,27.9464 L -27.5729,28.2366 L -27.3711,28.5547 L -27.2107,28.8956 L -27.0942,29.2539
 L -27.0237,29.624 L -27,30 L -27.0237,30.376 L -27.0942,30.7461 L -27.2107,31.1044 L -27.3711,31.4453
 L -27.5729,31.7634 L -27.8131,32.0536 L -28.0877,32.3115 L -28.3925,32.533 L -28.7227,32.7145 L -29.0729,32.8532
 L -29.4379,32.9469 L -29.8116,32.9941 z
M 29.8116,32.9941 L 29.4379,32.9469 L 29.0729,32.8532 L 28.7227,32.7145 L 28.3925,32.533 L 28.0877,32.3115
 L 27.8131,32.0536 L 27.5729,31.7634 L 27.3711,31.4453 L 27.2107,31.1044 L 27.0942,30.7461 L 27.0237,30.376
 L 27,30 L 27.0237,29.624 L 27.0942,29.2539 L 27.2107,28.8956 L 27.3711,28.5547 L 27.5729,28.2366
 L 27.8131,27.9464 L 28.0877,27.6884 L 28.3925,27.467 L 28.7227,27.2855 L 29.0729,27.1468 L 29.4379,27.0531
 L 29.8116,27.0059 L 30.1884,27.0059 L 30.5621,27.0531 L 30.927,27.1468 L 31.2773,27.2855 L 31.6075,27.467
 L 31.9123,27.6884 L 32.1869,27.9464 L 32.427,28.2366 L 32.6289,28.5547 L 32.7893,28.8956 L 32.9057,29.2539
 L 32.9763,29.624 L 33,30 L 32.9763,30.376 L 32.9057,30.7461 L 32.7893,31.1044 L 32.6289,31.4453
 L 32.427,31.7634 L 32.1869,32.0536 L 31.9123,32.3115 L 31.6075,32.533 L 31.2773,32.7145 L 30.927,32.8532
 L 30.5621,32.9469 L 30.1884,32.9941 z
M -75.1884,32.9941 L -75.5621,32.9469 L -75.927,32.8532 L -76.2773,32.7145 L -76.6075,32.533 L -76.9123,32.3115
 L -77.1869,32.0536 L -77.427,31.7634 L -77.6289,31.4453 L -77.7893,31.1044 L -77.9057,30.7461 L -77.9763,30.376
 L -78,30 L -77.9763,29.624 L -77.9057,29.2539 L -77.7893,28.8956 L -77.6289,28.5547 L -77.427,28.2366
 L -77.1869,27.9464 L -76.9123,27.6884 L -76.6075,27.467 L -76.2773,27.2855 L -75.927,27.1468 L -75.5621,27.0531
 L -75.1884,27.0059 L -74.8116,27.0059 L -74.4379,27.0531 L -74.073,27.1468 L -73.7227,27.2855 L -73.3925,27.467
 L -73.0877,27.6884 L -72.8131,27.9464 L -72.573,28.2366 L -72.3711,28.5547 L -72.2107,28.8956 L -72.0943,29.2539
 L -72.0237,29.624 L -72,30 L -72.0237,30.376 L -72.0943,30.7461 L -72.2107,31.1044 L -72.3711,31.4453
 L -72.573,31.7634 L -72.8131,32.0536 L -73.0877,32.3115 L -73.3925,32.533 L -73.7227,32.7145 L -74.073,32.8532
 L -74.4379,32.9469 L -74.8116,32.9941 z
M 14.8116,32.9941 L 14.4379,32.9469 L 14.0729,32.8532 L 13.7227,32.7145 L 13.3925,32.533 L 13.0877,32.3115
 L 12.8131,32.0536 L 12.5729,31.7634 L 12.3711,31.4453 L 12.2107,31.1044 L 12.0942,30.7461 L 12.0237,30.376
 L 12,30 L 12.0237,29.624 L 12.0942,29.2539 L 12.2107,28.8956 L 12.3711,28.5547 L 12.5729,28.2366
 L 12.8131,27.9464 L 13.0877,27.6884 L 13.3925,27.467 L 13.7227,27.2855 L 14.0729,27.1468 L 14.4379,27.0531
 L 14.8116,27.0059 L 15.1884,27.0059 L 15.5621,27.0531 L 15.927,27.1468 L 16.2773,27.2855 L 16.6075,27.467
 L 16.9123,27.6884 L 17.1869,27.9464 L 17.427,28.2366 L 17.6289,28.5547 L 17.7893,28.8956 L 17.9057,29.2539
 L 17.9763,29.624 L 18,30 L 17.9763,30.376 L 17.9057,30.7461 L 17.7893,31.1044 L 17.6289,31.4453
 L 17.427,31.7634 L 17.1869,32.0536 L 16.9123,32.3115 L 16.6075,32.533 L 16.2773,32.7145 L 15.927,32.8532
 L 15.5621,32.9469 L 15.1884,32.9941 z
M -60.1884,32.9941 L -60.5621,32.9469 L -60.927,32.8532 L -61.2773,32.7145 L -61.6075,32.533 L -61.9123,32.3115
 L -62.1869,32.0536 L -62.427,31.7634 L -62.6289,31.4453 L -62.7893,31.1044 L -62.9057,30.7461 L -62.9763,30.376
 L -63,30 L -62.9763,29.624 L -62.9057,29.2539 L -62.7893,28.8956 L -62.6289,28.5547 L -62.427,28.2366
 L -62.1869,27.9464 L -61.9123,27.6884 L -61.6075,27.467 L -61.2773,27.2855 L -60.927,27.1468 L -60.5621,27.0531
 L -60.1884,27.0059 L -59.8116,27.0059 L -59.4379,27.0531 L -59.0729,27.1468 L -58.7227,27.2855 L -58.3925,27.467
 L -58.0877,27.6884 L -57.8131,27.9464 L -57.5729,28.2366 L -57.3711,28.5547 L -57.2107,28.8956 L -57.0942,29.2539
 L -57.0237,29.624 L -57,30 L -57.0237,30.376 L -57.0942,30.7461 L -57.2107,31.1044 L -57.3711,31.4453
 L -57.5729,31.7634 L -57.8131,32.0536 L -58.0877,32.3115 L -58.3925,32.533 L -58.7227,32.7145 L -59.0729,32.8532
 L -59.4379,32.9469 L -59.8116,32.9941 z
M -90.1884,32.9941 L -90.5621,32.9469 L -90.927,32.8532 L -91.2773,32.7145 L -91.6075,32.533 L -91.9123,32.3115
 L -92.1869,32.0536 L -92.427,31.7634 L -92.6289,31.4453 L -92.7893,31.1044 L -92.9057,30.7461 L -92.9763,30.376
 L -93,30 L -92.9763,29.624 L -92.9057,29.2539 L -92.7893,28.8956 L -92.6289,28.5547 L -92.427,28.2366
 L -92.1869,27.9464 L -91.9123,27.6884 L -91.6075,27.467 L -91.2773,27.2855 L -90.927,27.1468 L -90.5621,27.0531
 L -90.1884,27.0059 L -89.8116,27.0059 L -89.4379,27.0531 L -89.073,27.1468 L -88.7227,27.2855 L -88.3925,27.467
 L -88.0877,27.6884 L -87.8131,27.9464 L -87.573,28.2366 L -87.3711,28.5547 L -87.2107,28.8956 L -87.0943,29.2539
 L -87.0237,29.624 L -87,30 L -87.0237,30.376 L -87.0943,30.7461 L -87.2107,31.1044 L -87.3711,31.4453
 L -87.573,31.7634 L -87.8131,32.0536 L -88.0877,32.3115 L -88.3925,32.533 L -88.7227,32.7145 L -89.073,32.8532
 L -89.4379,32.9469 L -89.8116,32.9941 z
M 44.8116,32.9941 L 44.4379,32.9469 L 44.0729,32.8532 L 43.7227,32.7145 L 43.3925,32.533 L 43.0877,32.3115
 L 42.8131,32.0536 L 42.5729,31.7634 L 42.3711,31.4453 L 42.2107,31.1044 L 42.0942,30.7461 L 42.0237,30.376
 L 42,30 L 42.0237,29.624 L 42.0942,29.2539 L 42.2107,28.8956 L 42.3711,28.5547 L 42.5729,28.2366
 L 42.8131,27.9464 L 43.0877,27.6884 L 43.3925,27.467 L 43.7227,27.2855 L 44.0729,27.1468 L 44.4379,27.0531
 L 44.8116,27.0059 L 45.1884,27.0059 L 45.5621,27.0531 L 45.927,27.1468 L 46.2773,27.2855 L 46.6075,27.467
 L 46.9123,27.6884 L 47.1869,27.9464 L 47.427,28.2366 L 47.6289,28.5547 L 47.7893,28.8956 L 47.9057,29.2539
 L 47.9763,29.624 L 48,30 L 47.9763,30.376 L 47.9057,30.7461 L 47.7893,31.1044 L 47.6289,31.4453
 L 47.427,31.7634 L 47.1869,32.0536 L 46.9123,32.3115 L 46.6075,32.533 L 46.2773,32.7145 L 45.927,32.8532
 L 45.5621,32.9469 L 45.1884,32.9941 z
M -105.188,32.9941 L -105.562,32.9469 L -105.927,32.8532 L -106.277,32.7145 L -106.607,32.533 L -106.912,32.3115
 L -107.187,32.0536 L -107.427,31.7634 L -107.629,31.4453 L -107.789,31.1044 L -107.906,30.7461 L -107.976,30.376
 L -108,30 L -107.976,29.624 L -107.906,29.2539 L -107.789,28.8956 L -107.629,28.5547 L -107.427,28.2366
 L -107.187,27.9464 L -106.912,27.6884 L -106.607,27.467 L -106.277,27.2855 L -105.927,27.1468 L -105.562,27.0531
 L -105.188,27.0059 L -104.812,27.0059 L -104.438,27.0531 L -104.073,27.1468 L -103.723,27.2855 L -103.393,27.467
 L -103.088,27.6884 L -102.813,27.9464 L -102.573,28.2366 L -102.371,28.5547 L -102.211,28.8956 L -102.094,29.2539
 L -102.024,29.624 L -102,30 L -102.024,30.376 L -102.094,30.7461 L -102.211,31.1044 L -102.371,31.4453
 L -102.573,31.7634 L -102.813,32.0536 L -103.088,32.3115 L -103.393,32.533 L -103.723,32.7145 L -104.073,32.8532
 L -104.438,32.9469 L -104.812,32.9941 z
M 22.4058,31.497 L 22.2189,31.4734 L 22.0365,31.4266 L 21.8613,31.3572 L 21.6963,31.2665 L 21.5439,31.1558
 L 21.4065,31.0268 L 21.2865,30.8817 L 21.1855,30.7226 L 21.1053,30.5522 L 21.0471,30.373 L 21.0118,30.188
 L 21,30 L 21.0118,29.812 L 21.0471,29.627 L 21.1053,29.4478 L 21.1855,29.2774 L 21.2865,29.1183
 L 21.4065,28.9732 L 21.5439,28.8442 L 21.6963,28.7335 L 21.8613,28.6427 L 22.0365,28.5734 L 22.2189,28.5266
 L 22.4058,28.503 L 22.5942,28.503 L 22.7811,28.5266 L 22.9635,28.5734 L 23.1387,28.6427 L 23.3037,28.7335
 L 23.4561,28.8442 L 23.5934,28.9732 L 23.7135,29.1183 L 23.8145,29.2774 L 23.8947,29.4478 L 23.9529,29.627
 L 23.9882,29.812 L 24,30 L 23.9882,30.188 L 23.9529,30.373 L 23.8947,30.5522 L 23.8145,30.7226
 L 23.7135,30.8817 L 23.5934,31.0268 L 23.4561,31.1558 L 23.3037,31.2665 L 23.1387,31.3572 L 22.9635,31.4266
 L 22.7811,31.4734 L 22.5942,31.497 z
M -37.5942,31.497 L -37.7811,31.4734 L -37.9635,31.4266 L -38.1387,31.3572 L -38.3037,31.2665 L -38.4561,31.1558
 L -38.5934,31.0268 L -38.7135,30.8817 L -38.8145,30.7226 L -38.8947,30.5522 L -38.9529,30.373 L -38.9882,30.188
 L -39,30 L -38.9882,29.812 L -38.9529,29.627 L -38.8947,29.4478 L -38.8145,29.2774 L -38.7135,29.1183
 L -38.5934,28.9732 L -38.4561,28.8442 L -38.3037,28.7335 L -38.1387,28.6427 L -37.9635,28.5734 L -37.7811,28.5266
 L -37.5942,28.503 L -37.4058,28.503 L -37.2189,28.5266 L -37.0365,28.5734 L -36.8613,28.6427 L -36.6963,28.7335
 L -36.5439,28.8442 L -36.4065,28.9732 L -36.2865,29.1183 L -36.1855,29.2774 L -36.1053,29.4478 L -36.0471,29.627
 L -36.0118,29.812 L -36,30 L -36.0118,30.188 L -36.0471,30.373 L -36.1053,30.5522 L -36.1855,30.7226
 L -36.2865,30.8817 L -36.4065,31.0268 L -36.5439,31.1558 L -36.6963,31.2665 L -36.8613,31.3572 L -37.0365,31.4266
 L -37.2189,31.4734 L -37.4058,31.497 z
M -7.59418,31.497 L -7.78107,31.4734 L -7.96352,31.4266 L -8.13866,31.3572 L -8.30373,31.2665 L -8.45613,31.1558
 L -8.59344,31.0268 L -8.71352,30.8817 L -8.81445,30.7226 L -8.89465,30.5522 L -8.95287,30.373 L -8.98816,30.188
 L -9,30 L -8.98816,29.812 L -8.95287,29.627 L -8.89465,29.4478 L -8.81445,29.2774 L -8.71352,29.1183
 L -8.59344,28.9732 L -8.45613,28.8442 L -8.30373,28.7335 L -8.13866,28.6427 L -7.96352,28.5734 L -7.78107,28.5266
 L -7.59418,28.503 L -7.40581,28.503 L -7.21892,28.5266 L -7.03647,28.5734 L -6.86133,28.6427 L -6.69626,28.7335
 L -6.54385,28.8442 L -6.40654,28.9732 L -6.28647,29.1183 L -6.18553,29.2774 L -6.10533,29.4478 L -6.04712,29.627
 L -6.01183,29.812 L -6,30 L -6.01183,30.188 L -6.04712,30.373 L -6.10533,30.5522 L -6.18553,30.7226
 L -6.28647,30.8817 L -6.40654,31.0268 L -6.54385,31.1558 L -6.69626,31.2665 L -6.86133,31.3572 L -7.03647,31.4266
 L -7.21892,31.4734 L -7.40581,31.497 z
M 7.40581,31.497 L 7.21892,31.4734 L 7.03647,31.4266 L 6.86133,31.3572 L 6.69626,31.2665 L 6.54385,31.1558
 L 6.40654,31.0268 L 6.28647,30.8817 L 6.18553,30.7226 L 6.10533,30.5522 L 6.04712,30.373 L 6.01183,30.188
 L 6,30 L 6.01183,29.812 L 6.04712,29.627 L 6.10533,29.4478 L 6.18553,29.2774 L 6.28647,29.1183
 L 6.40654,28.9732 L 6.54385,28.8442 L 6.69626,28.7335 L 6.86133,28.6427 L 7.03647,28.5734 L 7.21892,28.5266
 L 7.40581,28.503 L 7.59418,28.503 L 7.78107,28.5266 L 7.96352,28.5734 L 8.13866,28.6427 L 8.30373,28.7335
 L 8.45613,28.8442 L 8.59344,28.9732 L 8.71352,29.1183 L 8.81445,29.2774 L 8.89465,29.4478 L 8.95287,29.627
 L 8.98816,29.812 L 9,30 L 8.98816,30.188 L 8.95287,30.373 L 8.89465,30.5522 L 8.81445,30.7226
 L 8.71352,30.8817 L 8.59344,31.0268 L 8.45613,31.1558 L 8.30373,31.2665 L 8.13866,31.3572 L 7.96352,31.4266
 L 7.78107,31.4734 L 7.59418,31.497 z
M 97.4058,31.497 L 97.2189,31.4734 L 97.0365,31.4266 L 96.8613,31.3572 L 96.6963,31.2665 L 96.5439,31.1558
 L 96.4065,31.0268 L 96.2865,30.8817 L 96.1855,30.7226 L 96.1053,30.5522 L 96.0471,30.373 L 96.0118,30.188
 L 96,30 L 96.0118,29.812 L 96.0471,29.627 L 96.1053,29.4478 L 96.1855,29.2774 L 96.2865,29.1183
 L 96.4065,28.9732 L 96.5439,28.8442 L 96.6963,28.7335 L 96.8613,28.6427 L 97.0365,28.5734 L 97.2189,28.5266
 L 97.4058,28.503 L 97.5942,28.503 L 97.7811,28.5266 L 97.9635,28.5734 L 98.1387,28.6427 L 98.3037,28.7335
 L 98.4561,28.8442 L 98.5934,28.9732 L 98.7135,29.1183 L 98.8145,29.2774 L 98.8947,29.4478 L 98.9529,29.627
 L 98.9882,29.812 L 99,30 L 98.9882,30.188 L 98.9529,30.373 L 98.8947,30.5522 L 98.8145,30.7226
 L 98.7135,30.8817 L 98.5934,31.0268 L 98.4561,31.1558 L 98.3037,31.2665 L 98.1387,31.3572 L 97.9635,31.4266
 L 97.7811,31.4734 L 97.5942,31.497 z
M 67.4058,31.497 L 67.2189,31.4734 L 67.0365,31.4266 L 66.8613,31.3572 L 66.6963,31.2665 L 66.5439,31.1558
 L 66.4065,31.0268 L 66.2865,30.8817 L 66.1855,30.7226 L 66.1053,30.5522 L 66.0471,30.373 L 66.0118,30.188
 L 66,30 L 66.0118,29.812 L 66.0471,29.627 L 66.1053,29.4478 L 66.1855,29.2774 L 66.2865,29.1183
 L 66.4065,28.9732 L 66.5439,28.8442 L 66.6963,28.7335 L 66.8613,28.6427 L 67.0365,28.5734 L 67.2189,28.5266
 L 67.4058,28.503 L 67.5942,28.503 L 67.7811,28.5266 L 67.9635,28.5734 L 68.1387,28.6427 L 68.3037,28.7335
 L 68.4561,28.8442 L 68.5934,28.9732 L 68.7135,29.1183 L 68.8145,29.2774 L 68.8947,29.4478 L 68.9529,29.627
 L 68.9882,29.812 L 69,30 L 68.9882,30.188 L 68.9529,30.373 L 68.8947,30.5522 L 68.8145,30.7226
 L 68.7135,30.8817 L 68.5934,31.0268 L 68.4561,31.1558 L 68.3037,31.2665 L 68.1387,31.3572 L 67.9635,31.4266
 L 67.7811,31.4734 L 67.5942,31.497 z
M -52.5942,31.497 L -52.7811,31.4734 L -52.9635,31.4266 L -53.1387,31.3572 L -53.3037,31.2665 L -53.4561,31.1558
 L -53.5934,31.0268 L -53.7135,30.8817 L -53.8145,30.7226 L -53.8947,30.5522 L -53.9529,30.373 L -53.9882,30.188
 L -54,30 L -53.9882,29.812 L -53.9529,29.627 L -53.8947,29.4478 L -53.8145,29.2774 L -53.7135,29.1183
 L -53.5934,28.9732 L -53.4561,28.8442 L -53.3037,28.7335 L -53.1387,28.6427 L -52.9635,28.5734 L -52.7811,28.5266
 L -52.5942,28.503 L -52.4058,28.503 L -52.2189,28.5266 L -52.0365,28.5734 L -51.8613,28.6427 L -51.6963,28.7335
 L -51.5439,28.8442 L -51.4065,28.9732 L -51.2865,29.1183 L -51.1855,29.2774 L -51.1053,29.4478 L -51.0471,29.627
 L -51.0118,29.812 L -51,30 L -51.0118,30.188 L -51.0471,30.373 L -51.1053,30.5522 L -51.1855,30.7226
 L -51.2865,30.8817 L -51.4065,31.0268 L -51.5439,31.1558 L -51.6963,31.2665 L -51.8613,31.3572 L -52.0365,31.4266
 L -52.2189,31.4734 L -52.4058,31.497 z
M 82.4058,31.497 L 82.2189,31.4734 L 82.0365,31.4266 L 81.8613,31.3572 L 81.6963,31.2665 L 81.5439,31.1558
 L 81.4065,31.0268 L 81.2865,30.8817 L 81.1855,30.7226 L 81.1053,30.5522 L 81.0471,30.373 L 81.0118,30.188
 L 81,30 L 81.0118,29.812 L 81.0471,29.627 L 81.1053,29.4478 L 81.1855,29.2774 L 81.2865,29.1183
 L 81.4065,28.9732 L 81.5439,28.8442 L 81.6963,28.7335 L 81.8613,28.6427 L 82.0365,28.5734 L 82.2189,28.5266
 L 82.4058,28.503 L 82.5942,28.503 L 82.7811,28.5266 L 82.9635,28.5734 L 83.1387,28.6427 L 83.3037,28.7335
 L 83.4561,28.8442 L 83.5934,28.9732 L 83.7135,29.1183 L 83.8145,29.2774 L 83.8947,29.4478 L 83.9529,29.627
 L 83.9882,29.812 L 84,30 L 83.9882,30.188 L 83.9529,30.373 L 83.8947,30.5522 L 83.8145,30.7226
 L 83.7135,30.8817 L 83.5934,31.0268 L 83.4561,31.1558 L 83.3037,31.2665 L 83.1387,31.3572 L 82.9635,31.4266
 L 82.7811,31.4734 L 82.5942,31.497 z
M 37.4058,31.497 L 37.2189,31.4734 L 37.0365,31.4266 L 36.8613,31.3572 L 36.6963,31.2665 L 36.5439,31.1558
 L 36.4065,31.0268 L 36.2865,30.8817 L 36.1855,30.7226 L 36.1053,30.5522 L 36.0471,30.373 L 36.0118,30.188
 L 36,30 L 36.0118,29.812 L 36.0471,29.627 L 36.1053,29.4478 L 36.1855,29.2774 L 36.2865,29.1183
 L 36.4065,28.9732 L 36.5439,28.8442 L 36.6963,28.7335 L 36.8613,28.6427 L 37.0365,28.5734 L 37.2189,28.5266
 L 37.4058,28.503 L 37.5942,28.503 L 37.7811,28.5266 L 37.9635,28.5734 L 38.1387,28.6427 L 38.3037,28.7335
 L 38.4561,28.8442 L 38.5934,28.9732 L 38.7135,29.1183 L 38.8145,29.2774 L 38.8947,29.4478 L 38.9529,29.627
 L 38.9882,29.812 L 39,30 L 38.9882,30.188 L 38.9529,30.373 L 38.8947,30.5522 L 38.8145,30.7226
 L 38.7135,30.8817 L 38.5934,31.0268 L 38.4561,31.1558 L 38.3037,31.2665 L 38.1387,31.3572 L 37.9635,31.4266
 L 37.7811,31.4734 L 37.5942,31.497 z
M -67.5942,31.497 L -67.7811,31.4734 L -67.9635,31.4266 L -68.1387,31.3572 L -68.3037,31.2665 L -68.4561,31.1558
 L -68.5934,31.0268 L -68.7135,30.8817 L -68.8145,30.7226 L -68.8947,30.5522 L -68.9529,30.373 L -68.9882,30.188
 L -69,30 L -68.9882,29.812 L -68.9529,29.627 L -68.8947,29.4478 L -68.8145,29.2774 L -68.7135,29.1183
 L -68.5934,28.9732 L -68.4561,28.8442 L -68.3037,28.7335 L -68.1387,28.6427 L -67.9635,28.5734 L -67.7811,28.5266
 L -67.5942,28.503 L -67.4058,28.503 L -67.2189,28.5266 L -67.0365,28.5734 L -66.8613,28.6427 L -66.6963,28.7335
 L -66.5439,28.8442 L -66.4065,28.9732 L -66.2865,29.1183 L -66.1855,29.2774 L -66.1053,29.4478 L -66.0471,29.627
 L -66.0118,29.812 L -66,30 L -66.0118,30.188 L -66.0471,30.373 L -66.1053,30.5522 L -66.1855,30.7226
 L -66.2865,30.8817 L -66.4065,31.0268 L -66.5439,31.1558 L -66.6963,31.2665 L -66.8613,31.3572 L -67.0365,31.4266
 L -67.2189,31.4734 L -67.4058,31.497 z
M -97.5942,31.497 L -97.7811,31.4734 L -97.9635,31.4266 L -98.1387,31.3572 L -98.3037,31.2665 L -98.4561,31.1558
 L -98.5934,31.0268 L -98.7135,30.8817 L -98.8145,30.7226 L -98.8947,30.5522 L -98.9529,30.373 L -98.9882,30.188
 L -99,30 L -98.9882,29.812 L -98.9529,29.627 L -98.8947,29.4478 L -98.8145,29.2774 L -98.7135,29.1183
 L -98.5934,28.9732 L -98.4561,28.8442 L -98.3037,28.7335 L -98.1387,28.6427 L -97.9635,28.5734 L -97.7811,28.5266
 L -97.5942,28.503 L -97.4058,28.503 L -97.2189,28.5266 L -97.0365,28.5734 L -96.8613,28.6427 L -96.6963,28.7335
 L -96.5439,28.8442 L -96.4065,28.9732 L -96.2865,29.1183 L -96.1855,29.2774 L -96.1053,29.4478 L -96.0471,29.627
 L -96.0118,29.812 L -96,30 L -96.0118,30.188 L -96.0471,30.373 L -96.1053,30.5522 L -96.1855,30.7226
 L -96.2865,30.8817 L -96.4065,31.0268 L -96.5439,31.1558 L -96.6963,31.2665 L -96.8613,31.3572 L -97.0365,31.4266
 L -97.2189,31.4734 L -97.4058,31.497 z
M -22.5942,31.497 L -22.7811,31.4734 L -22.9635,31.4266 L -23.1387,31.3572 L -23.3037,31.2665 L -23.4561,31.1558
 L -23.5934,31.0268 L -23.7135,30.8817 L -23.8145,30.7226 L -23.8947,30.5522 L -23.9529,30.373 L -23.9882,30.188
 L -24,30 L -23.9882,29.812 L -23.9529,29.627 L -23.8947,29.4478 L -23.8145,29.2774 L -23.7135,29.1183
 L -23.5934,28.9732 L -23.4561,28.8442 L -23.3037,28.7335 L -23.1387,28.6427 L -22.9635,28.5734 L -22.7811,28.5266
 L -22.5942,28.503 L -22.4058,28.503 L -22.2189,28.5266 L -22.0365,28.5734 L -21.8613,28.6427 L -21.6963,28.7335
 L -21.5439,28.8442 L -21.4065,28.9732 L -21.2865,29.1183 L -21.1855,29.2774 L -21.1053,29.4478 L -21.0471,29.627
 L -21.0118,29.812 L -21,30 L -21.0118,30.188 L -21.0471,30.373 L -21.1053,30.5522 L -21.1855,30.7226
 L -21.2865,30.8817 L -21.4065,31.0268 L -21.5439,31.1558 L -21.6963,31.2665 L -21.8613,31.3572 L -22.0365,31.4266
 L -22.2189,31.4734 L -22.4058,31.497 z
M -82.5942,31.497 L -82.7811,31.4734 L -82.9635,31.4266 L -83.1387,31.3572 L -83.3037,31.2665 L -83.4561,31.1558
 L -83.5934,31.0268 L -83.7135,30.8817 L -83.8145,30.7226 L -83.8947,30.5522 L -83.9529,30.373 L -83.9882,30.188
 L -84,30 L -83.9882,29.812 L -83.9529,29.627 L -83.8947,29.4478 L -83.8145,29.2774 L -83.7135,29.1183
 L -83.5934,28.9732 L -83.4561,28.8442 L -83.3037,28.7335 L -83.1387,28.6427 L -82.9635,28.5734 L -82.7811,28.5266
 L -82.5942,28.503 L -82.4058,28.503 L -82.2189,28.5266 L -82.0365,28.5734 L -81.8613,28.6427 L -81.6963,28.7335
 L -81.5439,28.8442 L -81.4065,28.9732 L -81.2865,29.1183 L -81.1855,29.2774 L -81.1053,29.4478 L -81.0471,29.627
 L -81.0118,29.812 L -81,30 L -81.0118,30.188 L -81.0471,30.373 L -81.1053,30.5522 L -81.1855,30.7226
 L -81.2865,30.8817 L -81.4065,31.0268 L -81.5439,31.1558 L -81.6963,31.2665 L -81.8613,31.3572 L -82.0365,31.4266
 L -82.2189,31.4734 L -82.4058,31.497 z
M 52.4058,31.497 L 52.2189,31.4734 L 52.0365,31.4266 L 51.8613,31.3572 L 51.6963,31.2665 L 51.5439,31.1558
 L 51.4065,31.0268 L 51.2865,30.8817 L 51.1855,30.7226 L 51.1053,30.5522 L 51.0471,30.373 L 51.0118,30.188
 L 51,30 L 51.0118,29.812 L 51.0471,29.627 L 51.1053,29.4478 L 51.1855,29.2774 L 51.2865,29.1183
 L 51.4065,28.9732 L 51.5439,28.8442 L 51.6963,28.7335 L 51.8613,28.6427 L 52.0365,28.5734 L 52.2189,28.5266
 L 52.4058,28.503 L 52.5942,28.503 L 52.7811,28.5266 L 52.9635,28.5734 L 53.1387,28.6427 L 53.3037,28.7335
 L 53.4561,28.8442 L 53.5934,28.9732 L 53.7135,29.1183 L 53.8145,29.2774 L 53.8947,29.4478 L 53.9529,29.627
 L 53.9882,29.812 L 54,30 L 53.9882,30.188 L 53.9529,30.373 L 53.8947,30.5522 L 53.8145,30.7226
 L 53.7135,30.8817 L 53.5934,31.0268 L 53.4561,31.1558 L 53.3037,31.2665 L 53.1387,31.3572 L 52.9635,31.4266
 L 52.7811,31.4734 L 52.5942,31.497 z
M -51.0471,-29.627 L -51.1053,-29.4478 L -51.1855,-29.2774 L -51.2865,-29.1183 L -51.4065,-28.9732 L -51.5439,-28.8442
 L -51.6963,-28.7335 L -51.8613,-28.6427 L -52.0365,-28.5734 L -52.2189,-28.5266 L -52.4058,-28.503 L -52.5942,-28.503
 L -52.7811,-28.5266 L -52.9635,-28.5734 L -53.1387,-28.6427 L -53.3037,-28.7335 L -53.4561,-28.8442 L -53.5934,-28.9732
 L -53.7135,-29.1183 L -53.8145,-29.2774 L -53.8947,-29.4478 L -53.9529,-29.627 L -53.9882,-29.812 L -54,-30
 L -53.9882,-30.188 L -53.9529,-30.373 L -53.8947,-30.5522 L -53.8145,-30.7226 L -53.7135,-30.8817 L -53.5934,-31.0268
 L -53.4561,-31.1558 L -53.3037,-31.2665 L -53.1387,-31.3572 L -52.9635,-31.4266 L -52.7811,-31.4734 L -52.5942,-31.497
 L -52.4058,-31.497 L -52.2189,-31.4734 L -52.0365,-31.4266 L -51.8613,-31.3572 L -51.6963,-31.2665 L -51.5439,-31.1558
 L -51.4065,-31.0268 L -51.2865,-30.8817 L -51.1855,-30.7226 L -51.1053,-30.5522 L -51.0471,-30.373 L -51.0118,-30.188
 L -51,-30 L -51.0118,-29.812 z
M -96.0471,-29.627 L -96.1053,-29.4478 L -96.1855,-29.2774 L -96.2865,-29.1183 L -96.4065,-28.9732 L -96.5439,-28.8442
 L -96.6963,-28.7335 L -96.8613,-28.6427 L -97.0365,-28.5734 L -97.2189,-28.5266 L -97.4058,-28.503 L -97.5942,-28.503
 L -97.7811,-28.5266 L -97.9635,-28.5734 L -98.1387,-28.6427 L -98.3037,-28.7335 L -98.4561,-28.8442 L -98.5934,-28.9732
 L -98.7135,-29.1183 L -98.8145,-29.2774 L -98.8947,-29.4478 L -98.9529,-29.627 L -98.9882,-29.812 L -99,-30
 L -98.9882,-30.188 L -98.9529,-30.373 L -98.8947,-30.5522 L -98.8145,-30.7226 L -98.7135,-30.8817 L -98.5934,-31.0268
 L -98.4561,-31.1558 L -98.3037,-31.2665 L -98.1387,-31.3572 L -97.9635,-31.4266 L -97.7811,-31.4734 L -97.5942,-31.497
 L -97.4058,-31.497 L -97.2189,-31.4734 L -97.0365,-31.4266 L -96.8613,-31.3572 L -96.6963,-31.2665 L -96.5439,-31.1558
 L -96.4065,-31.0268 L -96.2865,-30.8817 L -96.1855,-30.7226 L -96.1053,-30.5522 L -96.0471,-30.373 L -96.0118,-30.188
 L -96,-30 L -96.0118,-29.812 z
M -2.67346,-2.75732 L -2.5,-0 L -2.67346,2.75732 L -3.19116,5.47118 L -4.04491,8.09874 L -5.22125,10.5986
 L -6.70161,12.9313 L -8.46268,15.06 L -10.4767,16.9513 L -12.7118,18.5752 L -15.1328,19.9062 L -17.7016,20.9232
 L -20.3776,21.6103 L -23.1186,21.9566 L -25.8814,21.9566 L -28.6224,21.6103 L -31.2984,20.9232 L -33.8671,19.9062
 L -36.2882,18.5752 L -38.5233,16.9513 L -40.5373,15.06 L -42.2984,12.9313 L -43.7787,10.5986 L -44.9551,8.09874
 L -45.8088,5.47118 L -46.3265,2.75732 L -46.5,-0 L -46.3265,-2.75732 L -45.8088,-5.47118 L -44.9551,-8.09874
 L -43.7787,-10.5986 L -42.2984,-12.9313 L -40.5373,-15.06 L -38.5233,-16.9513 L -36.2882,-18.5752 L -33.8671,-19.9062
 L -31.2984,-20.9232 L -28.6224,-21.6103 L -25.8814,-21.9566 L -23.1186,-21.9566 L -20.3776,-21.6103 L -17.7016,-20.9232
 L -15.1328,-19.9062 L -12.7118,-18.5752 L -10.4767,-16.9513 L -8.46268,-15.06 L -6.70161,-12.9313 L -5.22125,-10.5986
 L -4.04491,-8.09874 L -3.19116,-5.47118 z
" stroke="black" fill="lightgray" stroke-width="0.5"/>
</svg>
