<?xml version="1.0" standalone="no"?>
<!DOCTYPE svg PUBLIC "-//W3C//DTD SVG 1.1//EN" "http://www.w3.org/Graphics/SVG/1.1/DTD/svg11.dtd">
<svg width="104mm" height="60mm" viewBox="-52 -30 104 60" xmlns="http://www.w3.org/2000/svg" version="1.1">
<title>OpenSCAD Model</title>
<path d="
M 47.9369,29.4114 L 48.5451,29.2553 L 49.1289,29.0241 L 49.6791,28.7216 L 50.1871,28.3526 L 50.6448,27.9227
 L 51.0451,27.4389 L 51.3815,26.9088 L 51.6489,26.3406 L 51.8429,25.7434 L 51.9606,25.1267 L 52,24.5
 L 52,-24.5 L 51.9606,-25.1267 L 51.8429,-25.7434 L 51.6489,-26.3406 L 51.3815,-26.9088 L 51.0451,-27.4389
 L 50.6448,-27.9227 L 50.1871,-28.3526 L 49.6791,-28.7216 L 49.1289,-29.0241 L 48.5451,-29.2553 L 47.9369,-29.4114
 L 47.3139,-29.4901 L -47.3139,-29.4901 L -47.9369,-29.4114 L -48.5451,-29.2553 L -49.1289,-29.0241 L -49.6791,-28.7216
 L -50.1871,-28.3526 L -50.6448,-27.9227 L -51.0451,-27.4389 L -51.3815,-26.9088 L -51.6489,-26.3406 L -51.8429,-25.7434
 L -51.9606,-25.1267 L -52,-24.5 L -52,24.5 L -51.9606,25.1267 L -51.8429,25.7434 L -51.6489,26.3406
 L -51.3815,26.9088 L -51.0451,27.4389 L -50.6448,27.9227 L -50.1871,28.3526 L -49.6791,28.7216 L -49.1289,29.0241
 L -48.5451,29.2553 L -47.9369,29.4114 L -47.3139,29.4901 L 47.3139,29.4901 z
M -45.1884,-19.5059 L -45.5621,-19.5531 L -45.927,-19.6468 L -46.2773,-19.7855 L -46.6075,-19.967 L -46.9123,-20.1884
 L -47.1869,-20.4464 L -47.427,-20.7366 L -47.6289,-21.0547 L -47.7893,-21.3956 L -47.9057,-21.7539 L -47.9763,-22.124
 L -48,-22.5 L -47.9763,-22.876 L -47.9057,-23.2461 L -47.7893,-23.6044 L -47.6289,-23.9453 L -47.427,-24.2634
 L -47.1869,-24.5536 L -46.9123,-24.8115 L -46.6075,-25.033 L -46.2773,-25.2145 L -45.927,-25.3532 L -45.5621,-25.4469
 L -45.1884,-25.4941 L -44.8116,-25.4941 L -44.4379,-25.4469 L -44.0729,-25.3532 L -43.7227,-25.2145 L -43.3925,-25.033
 L -43.0877,-24.8115 L -42.8131,-24.5536 L -42.5729,-24.2634 L -42.3711,-23.9453 L -42.2107,-23.6044 L -42.0942,-23.2461
 L -42.0237,-22.876 L -42,-22.5 L -42.0237,-22.124 L -42.0942,-21.7539 L -42.2107,-21.3956 L -42.3711,-21.0547
 L -42.5729,-20.7366 L -42.8131,-20.4464 L -43.0877,-20.1884 L -43.3925,-19.967 L -43.7227,-19.7855 L -44.0729,-19.6468
 L -44.4379,-19.5531 L -44.8116,-19.5059 z
M 44.8116,-19.5059 L 44.4379,-19.5531 L 44.0729,-19.6468 L 43.7227,-19.7855 L 43.3925,-19.967 L 43.0877,-20.1884
 L 42.8131,-20.4464 L 42.5729,-20.7366 L 42.3711,-21.0547 L 42.2107,-21.3956 L 42.0942,-21.7539 L 42.0237,-22.124
 L 42,-22.5 L 42.0237,-22.876 L 42.0942,-23.2461 L 42.2107,-23.6044 L 42.3711,-23.9453 L 42.5729,-24.2634
 L 42.8131,-24.5536 L 43.0877,-24.8115 L 43.3925,-25.033 L 43.7227,-25.2145 L 44.0729,-25.3532 L 44.4379,-25.4469
 L 44.8116,-25.4941 L 45.1884,-25.4941 L 45.5621,-25.4469 L 45.927,-25.3532 L 46.2773,-25.2145 L 46.6075,-25.033
 L 46.9123,-24.8115 L 47.1869,-24.5536 L 47.427,-24.2634 L 47.6289,-23.9453 L 47.7893,-23.6044 L 47.9057,-23.2461
 L 47.9763,-22.876 L 48,-22.5 L 47.9763,-22.124 L 47.9057,-21.7539 L 47.7893,-21.3956 L 47.6289,-21.0547
 L 47.427,-20.7366 L 47.1869,-20.4464 L 46.9123,-20.1884 L 46.6075,-19.967 L 46.2773,-19.7855 L 45.927,-19.6468
 L 45.5621,-19.5531 L 45.1884,-19.5059 z
M 22.1814,20.9586 L 19.565,20.628 L 17.0106,19.9722 L 14.5586,19.0014 L 12.2476,17.7309 L 10.1141,16.1808
 L 8.19165,14.3755 L 6.51064,12.3435 L 5.09755,10.1168 L 3.97469,7.73061 L 3.15974,5.22247 L 2.66559,2.63199
 L 2.5,-0 L 2.66559,-2.63199 L 3.15974,-5.22247 L 3.97469,-7.73061 L 5.09755,-10.1168 L 6.51064,-12.3435
 L 8.19165,-14.3755 L 10.1141,-16.1808 L 12.2476,-17.7309 L 14.5586,-19.0014 L 17.0106,-19.9722 L 19.565,-20.628
 L 22.1814,-20.9586 L 24.8186,-20.9586 L 27.435,-20.628 L 29.9893,-19.9722 L 32.4414,-19.0014 L 34.7523,-17.7309
 L 36.8859,-16.1808 L 38.8083,-14.3755 L 40.4893,-12.3435 L 41.9024,-10.1168 L 43.0253,-7.73061 L 43.8402,-5.22247
 L 44.3344,-2.63199 L 44.5,-0 L 44.3344,2.63199 L 43.8402,5.22247 L 43.0253,7.73061 L 41.9024,10.1168
 L 40.4893,12.3435 L 38.8083,14.3755 L 36.8859,16.1808 L 34.7523,17.7309 L 32.4414,19.0014 L 29.9893,19.9722
 L 27.435,20.628 L 24.8186,20.9586 z
M -24.8186,20.9586 L -27.435,20.628 L -29.9893,19.9722 L -32.4414,19.0014 L -34.7523,17.7309 L -36.8859,16.1808
 L -38.8083,14.3755 L -40.4893,12.3435 L -41.9024,10.1168 L -43.0253,7.73061 L -43.8402,5.22247 L -44.3344,2.63199
 L -44.5,-0 L -44.3344,-2.63199 L -43.8402,-5.22247 L -43.0253,-7.73061 L -41.9024,-10.1168 L -40.4893,-12.3435
 L -38.8083,-14.3755 L -36.8859,-16.1808 L -34.7523,-17.7309 L -32.4414,-19.0014 L -29.9893,-19.9722 L -27.435,-20.628
 L -24.8186,-20.9586 L -22.1814,-20.9586 L -19.565,-20.628 L -17.0106,-19.9722 L -14.5586,-19.0014 L -12.2476,-17.7309
 L -10.1141,-16.1808 L -8.19165,-14.3755 L -6.51064,-12.3435 L -5.09755,-10.1168 L -3.97469,-7.73061 L -3.15974,-5.22247
 L -2.66559,-2.63199 L -2.5,-0 L -2.66559,2.63199 L -3.15974,5.22247 L -3.97469,7.73061 L -5.09755,10.1168
 L -6.51064,12.3435 L -8.19165,14.3755 L -10.1141,16.1808 L -12.2476,17.7309 L -14.5586,19.0014 L -17.0106,19.9722
 L -19.565,20.628 L -22.1814,20.9586 z
M -45.1884,25.4941 L -45.5621,25.4469 L -45.927,25.3532 L -46.2773,25.2145 L -46.6075,25.033 L -46.9123,24.8115
 L -47.1869,24.5536 L -47.427,24.2634 L -47.6289,23.9453 L -47.7893,23.6044 L -47.9057,23.2461 L -47.9763,22.876
 L -48,22.5 L -47.9763,22.124 L -47.9057,21.7539 L -47.7893,21.3956 L -47.6289,21.0547 L -47.427,20.7366
 L -47.1869,20.4464 L -46.9123,20.1884 L -46.6075,19.967 L -46.2773,19.7855 L -45.927,19.6468 L -45.5621,19.5531
 L -45.1884,19.5059 L -44.8116,19.5059 L -44.4379,19.5531 L -44.0729,19.6468 L -43.7227,19.7855 L -43.3925,19.967
 L -43.0877,20.1884 L -42.8131,20.4464 L -42.5729,20.7366 L -42.3711,21.0547 L -42.2107,21.3956 L -42.0942,21.7539
 L -42.0237,22.124 L -42,22.5 L -42.0237,22.876 L -42.0942,23.2461 L -42.2107,23.6044 L -42.3711,23.9453
 L -42.5729,24.2634 L -42.8131,24.5536 L -43.0877,24.8115 L -43.3925,25.033 L -43.7227,25.2145 L -44.0729,25.3532
 L -44.4379,25.4469 L -44.8116,25.4941 z
M 44.8116,25.4941 L 44.4379,25.4469 L 44.0729,25.3532 L 43.7227,25.2145 L 43.3925,25.033 L 43.0877,24.8115
 L 42.8131,24.5536 L 42.5729,24.2634 L 42.3711,23.9453 L 42.2107,23.6044 L 42.0942,23.2461 L 42.0237,22.876
 L 42,22.5 L 42.0237,22.124 L 42.0942,21.7539 L 42.2107,21.3956 L 42.3711,21.0547 L 42.5729,20.7366
 L 42.8131,20.4464 L 43.0877,20.1884 L 43.3925,19.967 L 43.7227,19.7855 L 44.0729,19.6468 L 44.4379,19.5531
 L 44.8116,19.5059 L 45.1884,19.5059 L 45.5621,19.5531 L 45.927,19.6468 L 46.2773,19.7855 L 46.6075,19.967
 L 46.9123,20.1884 L 47.1869,20.4464 L 47.427,20.7366 L 47.6289,21.0547 L 47.7893,21.3956 L 47.9057,21.7539
 L 47.9763,22.124 L 48,22.5 L 47.9763,22.876 L 47.9057,23.2461 L 47.7893,23.6044 L 47.6289,23.9453
 L 47.427,24.2634 L 47.1869,24.5536 L 46.9123,24.8115 L 46.6075,25.033 L 46.2773,25.2145 L 45.927,25.3532
 L 45.5621,25.4469 L 45.1884,25.4941 z
" stroke="black" fill="lightgray" stroke-width="0.5"/>
</svg>
