<?xml version="1.0" standalone="no"?>
<!DOCTYPE svg PUBLIC "-//W3C//DTD SVG 1.1//EN" "http://www.w3.org/Graphics/SVG/1.1/DTD/svg11.dtd">
<svg width="194mm" height="44mm" viewBox="-97 -22 194 44" xmlns="http://www.w3.org/2000/svg" version="1.1">
<title>OpenSCAD Model</title>
<path d="
M 92.9369,21.9114 L 93.5451,21.7553 L 94.1289,21.5241 L 94.6791,21.2216 L 95.1871,20.8526 L 95.6448,20.4227
 L 96.0451,19.9389 L 96.3815,19.4088 L 96.6489,18.8406 L 96.8429,18.2434 L 96.9606,17.6267 L 97,17
 L 97,-17 L 96.9606,-17.6267 L 96.8429,-18.2434 L 96.6489,-18.8406 L 96.3815,-19.4088 L 96.0451,-19.9389
 L 95.6448,-20.4227 L 95.1871,-20.8526 L 94.6791,-21.2216 L 94.1289,-21.5241 L 93.5451,-21.7553 L 92.9369,-21.9114
 L 92.3139,-21.9901 L -92.3139,-21.9901 L -92.9369,-21.9114 L -93.5451,-21.7553 L -94.1289,-21.5241 L -94.6791,-21.2216
 L -95.1871,-20.8526 L -95.6448,-20.4227 L -96.0451,-19.9389 L -96.3815,-19.4088 L -96.6489,-18.8406 L -96.8429,-18.2434
 L -96.9606,-17.6267 L -97,-17 L -97,17 L -96.9606,17.6267 L -96.8429,18.2434 L -96.6489,18.8406
 L -96.3815,19.4088 L -96.0451,19.9389 L -95.6448,20.4227 L -95.1871,20.8526 L -94.6791,21.2216 L -94.1289,21.5241
 L -93.5451,21.7553 L -92.9369,21.9114 L -92.3139,21.9901 L 92.3139,21.9901 z
M 61.8384,18.4635 L 59.5334,18.1723 L 57.2832,17.5945 L 55.1231,16.7393 L 53.0872,15.6201 L 51.2077,14.2545
 L 49.5141,12.6641 L 48.0332,10.874 L 46.7883,8.91243 L 45.7991,6.8103 L 45.0812,4.60075 L 44.6459,2.31866
 L 44.5,-0 L 44.6459,-2.31866 L 45.0812,-4.60075 L 45.7991,-6.8103 L 46.7883,-8.91243 L 48.0332,-10.874
 L 49.5141,-12.6641 L 51.2077,-14.2545 L 53.0872,-15.6201 L 55.1231,-16.7393 L 57.2832,-17.5945 L 59.5334,-18.1723
 L 61.8384,-18.4635 L 64.1616,-18.4635 L 66.4666,-18.1723 L 68.7168,-17.5945 L 70.8769,-16.7393 L 72.9128,-15.6201
 L 74.7923,-14.2545 L 76.4859,-12.6641 L 77.9668,-10.874 L 79.2117,-8.91243 L 80.2009,-6.8103 L 80.9188,-4.60075
 L 81.3541,-2.31866 L 81.5,-0 L 81.3541,2.31866 L 80.9188,4.60075 L 80.2009,6.8103 L 79.2117,8.91243
 L 77.9668,10.874 L 76.4859,12.6641 L 74.7923,14.2545 L 72.9128,15.6201 L 70.8769,16.7393 L 68.7168,17.5945
 L 66.4666,18.1723 L 64.1616,18.4635 z
M -64.1616,18.4635 L -66.4666,18.1723 L -68.7168,17.5945 L -70.8769,16.7393 L -72.9128,15.6201 L -74.7923,14.2545
 L -76.4859,12.6641 L -77.9668,10.874 L -79.2117,8.91243 L -80.2009,6.8103 L -80.9188,4.60075 L -81.3541,2.31866
 L -81.5,-0 L -81.3541,-2.31866 L -80.9188,-4.60075 L -80.2009,-6.8103 L -79.2117,-8.91243 L -77.9668,-10.874
 L -76.4859,-12.6641 L -74.7923,-14.2545 L -72.9128,-15.6201 L -70.8769,-16.7393 L -68.7168,-17.5945 L -66.4666,-18.1723
 L -64.1616,-18.4635 L -61.8384,-18.4635 L -59.5334,-18.1723 L -57.2832,-17.5945 L -55.1231,-16.7393 L -53.0872,-15.6201
 L -51.2077,-14.2545 L -49.5141,-12.6641 L -48.0332,-10.874 L -46.7883,-8.91243 L -45.7991,-6.8103 L -45.0812,-4.60075
 L -44.6459,-2.31866 L -44.5,-0 L -44.6459,2.31866 L -45.0812,4.60075 L -45.7991,6.8103 L -46.7883,8.91243
 L -48.0332,10.874 L -49.5141,12.6641 L -51.2077,14.2545 L -53.0872,15.6201 L -55.1231,16.7393 L -57.2832,17.5945
 L -59.5334,18.1723 L -61.8384,18.4635 z
M 19.8384,18.4635 L 17.5334,18.1723 L 15.2832,17.5945 L 13.1231,16.7393 L 11.0872,15.6201 L 9.20764,14.2545
 L 7.51407,12.6641 L 6.03317,10.874 L 4.78831,8.91243 L 3.79913,6.8103 L 3.08121,4.60075 L 2.64587,2.31866
 L 2.5,-0 L 2.64587,-2.31866 L 3.08121,-4.60075 L 3.79913,-6.8103 L 4.78831,-8.91243 L 6.03317,-10.874
 L 7.51407,-12.6641 L 9.20764,-14.2545 L 11.0872,-15.6201 L 13.1231,-16.7393 L 15.2832,-17.5945 L 17.5334,-18.1723
 L 19.8384,-18.4635 L 22.1616,-18.4635 L 24.4666,-18.1723 L 26.7168,-17.5945 L 28.8769,-16.7393 L 30.9128,-15.6201
 L 32.7923,-14.2545 L 34.4859,-12.6641 L 35.9668,-10.874 L 37.2117,-8.91243 L 38.2009,-6.8103 L 38.9188,-4.60075
 L 39.3541,-2.31866 L 39.5,-0 L 39.3541,2.31866 L 38.9188,4.60075 L 38.2009,6.8103 L 37.2117,8.91243
 L 35.9668,10.874 L 34.4859,12.6641 L 32.7923,14.2545 L 30.9128,15.6201 L 28.8769,16.7393 L 26.7168,17.5945
 L 24.4666,18.1723 L 22.1616,18.4635 z
M -22.1616,18.4635 L -24.4666,18.1723 L -26.7168,17.5945 L -28.8769,16.7393 L -30.9128,15.6201 L -32.7923,14.2545
 L -34.4859,12.6641 L -35.9668,10.874 L -37.2117,8.91243 L -38.2009,6.8103 L -38.9188,4.60075 L -39.3541,2.31866
 L -39.5,-0 L -39.3541,-2.31866 L -38.9188,-4.60075 L -38.2009,-6.8103 L -37.2117,-8.91243 L -35.9668,-10.874
 L -34.4859,-12.6641 L -32.7923,-14.2545 L -30.9128,-15.6201 L -28.8769,-16.7393 L -26.7168,-17.5945 L -24.4666,-18.1723
 L -22.1616,-18.4635 L -19.8384,-18.4635 L -17.5334,-18.1723 L -15.2832,-17.5945 L -13.1231,-16.7393 L -11.0872,-15.6201
 L -9.20764,-14.2545 L -7.51407,-12.6641 L -6.03317,-10.874 L -4.78831,-8.91243 L -3.79913,-6.8103 L -3.08121,-4.60075
 L -2.64587,-2.31866 L -2.5,-0 L -2.64587,2.31866 L -3.08121,4.60075 L -3.79913,6.8103 L -4.78831,8.91243
 L -6.03317,10.874 L -7.51407,12.6641 L -9.20764,14.2545 L -11.0872,15.6201 L -13.1231,16.7393 L -15.2832,17.5945
 L -17.5334,18.1723 L -19.8384,18.4635 z
M -90.1884,-12.0059 L -90.5621,-12.0531 L -90.927,-12.1468 L -91.2773,-12.2855 L -91.6075,-12.467 L -91.9123,-12.6884
 L -92.1869,-12.9464 L -92.427,-13.2366 L -92.6289,-13.5547 L -92.7893,-13.8956 L -92.9057,-14.2539 L -92.9763,-14.624
 L -93,-15 L -92.9763,-15.376 L -92.9057,-15.7461 L -92.7893,-16.1044 L -92.6289,-16.4453 L -92.427,-16.7634
 L -92.1869,-17.0536 L -91.9123,-17.3115 L -91.6075,-17.533 L -91.2773,-17.7145 L -90.927,-17.8532 L -90.5621,-17.9469
 L -90.1884,-17.9941 L -89.8116,-17.9941 L -89.4379,-17.9469 L -89.073,-17.8532 L -88.7227,-17.7145 L -88.3925,-17.533
 L -88.0877,-17.3115 L -87.8131,-17.0536 L -87.573,-16.7634 L -87.3711,-16.4453 L -87.2107,-16.1044 L -87.0943,-15.7461
 L -87.0237,-15.376 L -87,-15 L -87.0237,-14.624 L -87.0943,-14.2539 L -87.2107,-13.8956 L -87.3711,-13.5547
 L -87.573,-13.2366 L -87.8131,-12.9464 L -88.0877,-12.6884 L -88.3925,-12.467 L -88.7227,-12.2855 L -89.073,-12.1468
 L -89.4379,-12.0531 L -89.8116,-12.0059 z
M 89.8116,-12.0059 L 89.4379,-12.0531 L 89.073,-12.1468 L 88.7227,-12.2855 L 88.3925,-12.467 L 88.0877,-12.6884
 L 87.8131,-12.9464 L 87.573,-13.2366 L 87.3711,-13.5547 L 87.2107,-13.8956 L 87.0943,-14.2539 L 87.0237,-14.624
 L 87,-15 L 87.0237,-15.376 L 87.0943,-15.7461 L 87.2107,-16.1044 L 87.3711,-16.4453 L 87.573,-16.7634
 L 87.8131,-17.0536 L 88.0877,-17.3115 L 88.3925,-17.533 L 88.7227,-17.7145 L 89.073,-17.8532 L 89.4379,-17.9469
 L 89.8116,-17.9941 L 90.1884,-17.9941 L 90.5621,-17.9469 L 90.927,-17.8532 L 91.2773,-17.7145 L 91.6075,-17.533
 L 91.9123,-17.3115 L 92.1869,-17.0536 L 92.427,-16.7634 L 92.6289,-16.4453 L 92.7893,-16.1044 L 92.9057,-15.7461
 L 92.9763,-15.376 L 93,-15 L 92.9763,-14.624 L 92.9057,-14.2539 L 92.7893,-13.8956 L 92.6289,-13.5547
 L 92.427,-13.2366 L 92.1869,-12.9464 L 91.9123,-12.6884 L 91.6075,-12.467 L 91.2773,-12.2855 L 90.927,-12.1468
 L 90.5621,-12.0531 L 90.1884,-12.0059 z
M 89.9058,-6.00294 L 89.7189,-6.02657 L 89.5365,-6.07341 L 89.3613,-6.14275 L 89.1963,-6.23351 L 89.0439,-6.34422
 L 88.9065,-6.47318 L 88.7865,-6.61832 L 88.6855,-6.77736 L 88.6053,-6.9478 L 88.5471,-7.12695 L 88.5118,-7.312
 L 88.5,-7.5 L 88.5118,-7.68799 L 88.5471,-7.87303 L 88.6053,-8.05219 L 88.6855,-8.22263 L 88.7865,-8.38167
 L 88.9065,-8.52681 L 89.0439,-8.65576 L 89.1963,-8.76648 L 89.3613,-8.85724 L 89.5365,-8.92657 L 89.7189,-8.97342
 L 89.9058,-8.99704 L 90.0942,-8.99704 L 90.2811,-8.97342 L 90.4635,-8.92657 L 90.6387,-8.85724 L 90.8037,-8.76648
 L 90.9561,-8.65576 L 91.0934,-8.52681 L 91.2135,-8.38167 L 91.3145,-8.22263 L 91.3947,-8.05219 L 91.4529,-7.87303
 L 91.4882,-7.68799 L 91.5,-7.5 L 91.4882,-7.312 L 91.4529,-7.12695 L 91.3947,-6.9478 L 91.3145,-6.77736
 L 91.2135,-6.61832 L 91.0934,-6.47318 L 90.9561,-6.34422 L 90.8037,-6.23351 L 90.6387,-6.14275 L 90.4635,-6.07341
 L 90.2811,-6.02657 L 90.0942,-6.00294 z
M -90.0942,-6.00294 L -90.2811,-6.02657 L -90.4635,-6.07341 L -90.6387,-6.14275 L -90.8037,-6.23351 L -90.9561,-6.34422
 L -91.0934,-6.47318 L -91.2135,-6.61832 L -91.3145,-6.77736 L -91.3947,-6.9478 L -91.4529,-7.12695 L -91.4882,-7.312
 L -91.5,-7.5 L -91.4882,-7.68799 L -91.4529,-7.87303 L -91.3947,-8.05219 L -91.3145,-8.22263 L -91.2135,-8.38167
 L -91.0934,-8.52681 L -90.9561,-8.65576 L -90.8037,-8.76648 L -90.6387,-8.85724 L -90.4635,-8.92657 L -90.2811,-8.97342
 L -90.0942,-8.99704 L -89.9058,-8.99704 L -89.7189,-8.97342 L -89.5365,-8.92657 L -89.3613,-8.85724 L -89.1963,-8.76648
 L -89.0439,-8.65576 L -88.9065,-8.52681 L -88.7865,-8.38167 L -88.6855,-8.22263 L -88.6053,-8.05219 L -88.5471,-7.87303
 L -88.5118,-7.68799 L -88.5,-7.5 L -88.5118,-7.312 L -88.5471,-7.12695 L -88.6053,-6.9478 L -88.6855,-6.77736
 L -88.7865,-6.61832 L -88.9065,-6.47318 L -89.0439,-6.34422 L -89.1963,-6.23351 L -89.3613,-6.14275 L -89.5365,-6.07341
 L -89.7189,-6.02657 L -89.9058,-6.00294 z
M 89.8116,2.99408 L 89.4379,2.94685 L 89.073,2.85316 L 88.7227,2.71448 L 88.3925,2.53297 L 88.0877,2.31154
 L 87.8131,2.05363 L 87.573,1.76335 L 87.3711,1.44525 L 87.2107,1.10437 L 87.0943,0.746063 L 87.0237,0.375992
 L 87,-0 L 87.0237,-0.375992 L 87.0943,-0.746063 L 87.2107,-1.10437 L 87.3711,-1.44525 L 87.573,-1.76335
 L 87.8131,-2.05363 L 88.0877,-2.31154 L 88.3925,-2.53297 L 88.7227,-2.71448 L 89.073,-2.85316 L 89.4379,-2.94685
 L 89.8116,-2.99408 L 90.1884,-2.99408 L 90.5621,-2.94685 L 90.927,-2.85316 L 91.2773,-2.71448 L 91.6075,-2.53297
 L 91.9123,-2.31154 L 92.1869,-2.05363 L 92.427,-1.76335 L 92.6289,-1.44525 L 92.7893,-1.10437 L 92.9057,-0.746063
 L 92.9763,-0.375992 L 93,-0 L 92.9763,0.375992 L 92.9057,0.746063 L 92.7893,1.10437 L 92.6289,1.44525
 L 92.427,1.76335 L 92.1869,2.05363 L 91.9123,2.31154 L 91.6075,2.53297 L 91.2773,2.71448 L 90.927,2.85316
 L 90.5621,2.94685 L 90.1884,2.99408 z
M -90.1884,2.99408 L -90.5621,2.94685 L -90.927,2.85316 L -91.2773,2.71448 L -91.6075,2.53297 L -91.9123,2.31154
 L -92.1869,2.05363 L -92.427,1.76335 L -92.6289,1.44525 L -92.7893,1.10437 L -92.9057,0.746063 L -92.9763,0.375992
 L -93,-0 L -92.9763,-0.375992 L -92.9057,-0.746063 L -92.7893,-1.10437 L -92.6289,-1.44525 L -92.427,-1.76335
 L -92.1869,-2.05363 L -91.9123,-2.31154 L -91.6075,-2.53297 L -91.2773,-2.71448 L -90.927,-2.85316 L -90.5621,-2.94685
 L -90.1884,-2.99408 L -89.8116,-2.99408 L -89.4379,-2.94685 L -89.073,-2.85316 L -88.7227,-2.71448 L -88.3925,-2.53297
 L -88.0877,-2.31154 L -87.8131,-2.05363 L -87.573,-1.76335 L -87.3711,-1.44525 L -87.2107,-1.10437 L -87.0943,-0.746063
 L -87.0237,-0.375992 L -87,-0 L -87.0237,0.375992 L -87.0943,0.746063 L -87.2107,1.10437 L -87.3711,1.44525
 L -87.573,1.76335 L -87.8131,2.05363 L -88.0877,2.31154 L -88.3925,2.53297 L -88.7227,2.71448 L -89.073,2.85316
 L -89.4379,2.94685 L -89.8116,2.99408 z
M -90.0942,8.99704 L -90.2811,8.97342 L -90.4635,8.92657 L -90.6387,8.85724 L -90.8037,8.76648 L -90.9561,8.65576
 L -91.0934,8.52681 L -91.2135,8.38167 L -91.3145,8.22263 L -91.3947,8.05219 L -91.4529,7.87303 L -91.4882,7.68799
 L -91.5,7.5 L -91.4882,7.312 L -91.4529,7.12695 L -91.3947,6.9478 L -91.3145,6.77736 L -91.2135,6.61832
 L -91.0934,6.47318 L -90.9561,6.34422 L -90.8037,6.23351 L -90.6387,6.14275 L -90.4635,6.07341 L -90.2811,6.02657
 L -90.0942,6.00294 L -89.9058,6.00294 L -89.7189,6.02657 L -89.5365,6.07341 L -89.3613,6.14275 L -89.1963,6.23351
 L -89.0439,6.34422 L -88.9065,6.47318 L -88.7865,6.61832 L -88.6855,6.77736 L -88.6053,6.9478 L -88.5471,7.12695
 L -88.5118,7.312 L -88.5,7.5 L -88.5118,7.68799 L -88.5471,7.87303 L -88.6053,8.05219 L -88.6855,8.22263
 L -88.7865,8.38167 L -88.9065,8.52681 L -89.0439,8.65576 L -89.1963,8.76648 L -89.3613,8.85724 L -89.5365,8.92657
 L -89.7189,8.97342 L -89.9058,8.99704 z
M 89.9058,8.99704 L 89.7189,8.97342 L 89.5365,8.92657 L 89.3613,8.85724 L 89.1963,8.76648 L 89.0439,8.65576
 L 88.9065,8.52681 L 88.7865,8.38167 L 88.6855,8.22263 L 88.6053,8.05219 L 88.5471,7.87303 L 88.5118,7.68799
 L 88.5,7.5 L 88.5118,7.312 L 88.5471,7.12695 L 88.6053,6.9478 L 88.6855,6.77736 L 88.7865,6.61832
 L 88.9065,6.47318 L 89.0439,6.34422 L 89.1963,6.23351 L 89.3613,6.14275 L 89.5365,6.07341 L 89.7189,6.02657
 L 89.9058,6.00294 L 90.0942,6.00294 L 90.2811,6.02657 L 90.4635,6.07341 L 90.6387,6.14275 L 90.8037,6.23351
 L 90.9561,6.34422 L 91.0934,6.47318 L 91.2135,6.61832 L 91.3145,6.77736 L 91.3947,6.9478 L 91.4529,7.12695
 L 91.4882,7.312 L 91.5,7.5 L 91.4882,7.68799 L 91.4529,7.87303 L 91.3947,8.05219 L 91.3145,8.22263
 L 91.2135,8.38167 L 91.0934,8.52681 L 90.9561,8.65576 L 90.8037,8.76648 L 90.6387,8.85724 L 90.4635,8.92657
 L 90.2811,8.97342 L 90.0942,8.99704 z
M -90.1884,17.9941 L -90.5621,17.9469 L -90.927,17.8532 L -91.2773,17.7145 L -91.6075,17.533 L -91.9123,17.3115
 L -92.1869,17.0536 L -92.427,16.7634 L -92.6289,16.4453 L -92.7893,16.1044 L -92.9057,15.7461 L -92.9763,15.376
 L -93,15 L -92.9763,14.624 L -92.9057,14.2539 L -92.7893,13.8956 L -92.6289,13.5547 L -92.427,13.2366
 L -92.1869,12.9464 L -91.9123,12.6884 L -91.6075,12.467 L -91.2773,12.2855 L -90.927,12.1468 L -90.5621,12.0531
 L -90.1884,12.0059 L -89.8116,12.0059 L -89.4379,12.0531 L -89.073,12.1468 L -88.7227,12.2855 L -88.3925,12.467
 L -88.0877,12.6884 L -87.8131,12.9464 L -87.573,13.2366 L -87.3711,13.5547 L -87.2107,13.8956 L -87.0943,14.2539
 L -87.0237,14.624 L -87,15 L -87.0237,15.376 L -87.0943,15.7461 L -87.2107,16.1044 L -87.3711,16.4453
 L -87.573,16.7634 L -87.8131,17.0536 L -88.0877,17.3115 L -88.3925,17.533 L -88.7227,17.7145 L -89.073,17.8532
 L -89.4379,17.9469 L -89.8116,17.9941 z
M 89.8116,17.9941 L 89.4379,17.9469 L 89.073,17.8532 L 88.7227,17.7145 L 88.3925,17.533 L 88.0877,17.3115
 L 87.8131,17.0536 L 87.573,16.7634 L 87.3711,16.4453 L 87.2107,16.1044 L 87.0943,15.7461 L 87.0237,15.376
 L 87,15 L 87.0237,14.624 L 87.0943,14.2539 L 87.2107,13.8956 L 87.3711,13.5547 L 87.573,13.2366
 L 87.8131,12.9464 L 88.0877,12.6884 L 88.3925,12.467 L 88.7227,12.2855 L 89.073,12.1468 L 89.4379,12.0531
 L 89.8116,12.0059 L 90.1884,12.0059 L 90.5621,12.0531 L 90.927,12.1468 L 91.2773,12.2855 L 91.6075,12.467
 L 91.9123,12.6884 L 92.1869,12.9464 L 92.427,13.2366 L 92.6289,13.5547 L 92.7893,13.8956 L 92.9057,14.2539
 L 92.9763,14.624 L 93,15 L 92.9763,15.376 L 92.9057,15.7461 L 92.7893,16.1044 L 92.6289,16.4453
 L 92.427,16.7634 L 92.1869,17.0536 L 91.9123,17.3115 L 91.6075,17.533 L 91.2773,17.7145 L 90.927,17.8532
 L 90.5621,17.9469 L 90.1884,17.9941 z
" stroke="black" fill="lightgray" stroke-width="0.5"/>
</svg>
