<?xml version="1.0" standalone="no"?>
<!DOCTYPE svg PUBLIC "-//W3C//DTD SVG 1.1//EN" "http://www.w3.org/Graphics/SVG/1.1/DTD/svg11.dtd">
<svg width="224mm" height="90mm" viewBox="-112 -45 224 90" xmlns="http://www.w3.org/2000/svg" version="1.1">
<title>OpenSCAD Model</title>
<path d="
M 107.937,44.4114 L 108.545,44.2553 L 109.129,44.0241 L 109.679,43.7216 L 110.187,43.3526 L 110.645,42.9227
 L 111.045,42.4389 L 111.382,41.9088 L 111.649,41.3406 L 111.843,40.7434 L 111.961,40.1267 L 112,39.5
 L 112,-39.5 L 111.961,-40.1267 L 111.843,-40.7434 L 111.649,-41.3406 L 111.382,-41.9088 L 111.045,-42.4389
 L 110.645,-42.9227 L 110.187,-43.3526 L 109.679,-43.7216 L 109.129,-44.0241 L 108.545,-44.2553 L 107.937,-44.4114
 L 107.314,-44.4901 L -107.314,-44.4901 L -107.937,-44.4114 L -108.545,-44.2553 L -109.129,-44.0241 L -109.679,-43.7216
 L -110.187,-43.3526 L -110.645,-42.9227 L -111.045,-42.4389 L -111.382,-41.9088 L -111.649,-41.3406 L -111.843,-40.7434
 L -111.961,-40.1267 L -112,-39.5 L -112,39.5 L -111.961,40.1267 L -111.843,40.7434 L -111.649,41.3406
 L -111.382,41.9088 L -111.045,42.4389 L -110.645,42.9227 L -110.187,43.3526 L -109.679,43.7216 L -109.129,44.0241
 L -108.545,44.2553 L -107.937,44.4114 L -107.314,44.4901 L 107.314,44.4901 z
M 104.812,-34.5059 L 104.438,-34.5531 L 104.073,-34.6468 L 103.723,-34.7855 L 103.393,-34.967 L 103.088,-35.1885
 L 102.813,-35.4464 L 102.573,-35.7366 L 102.371,-36.0547 L 102.211,-36.3956 L 102.094,-36.7539 L 102.024,-37.124
 L 102,-37.5 L 102.024,-37.876 L 102.094,-38.2461 L 102.211,-38.6044 L 102.371,-38.9453 L 102.573,-39.2634
 L 102.813,-39.5536 L 103.088,-39.8115 L 103.393,-40.033 L 103.723,-40.2145 L 104.073,-40.3532 L 104.438,-40.4469
 L 104.812,-40.4941 L 105.188,-40.4941 L 105.562,-40.4469 L 105.927,-40.3532 L 106.277,-40.2145 L 106.607,-40.033
 L 106.912,-39.8115 L 107.187,-39.5536 L 107.427,-39.2634 L 107.629,-38.9453 L 107.789,-38.6044 L 107.906,-38.2461
 L 107.976,-37.876 L 108,-37.5 L 107.976,-37.124 L 107.906,-36.7539 L 107.789,-36.3956 L 107.629,-36.0547
 L 107.427,-35.7366 L 107.187,-35.4464 L 106.912,-35.1885 L 106.607,-34.967 L 106.277,-34.7855 L 105.927,-34.6468
 L 105.562,-34.5531 L 105.188,-34.5059 z
M -60.1884,-34.5059 L -60.5621,-34.5531 L -60.927,-34.6468 L -61.2773,-34.7855 L -61.6075,-34.967 L -61.9123,-35.1885
 L -62.1869,-35.4464 L -62.427,-35.7366 L -62.6289,-36.0547 L -62.7893,-36.3956 L -62.9057,-36.7539 L -62.9763,-37.124
 L -63,-37.5 L -62.9763,-37.876 L -62.9057,-38.2461 L -62.7893,-38.6044 L -62.6289,-38.9453 L -62.427,-39.2634
 L -62.1869,-39.5536 L -61.9123,-39.8115 L -61.6075,-40.033 L -61.2773,-40.2145 L -60.927,-40.3532 L -60.5621,-40.4469
 L -60.1884,-40.4941 L -59.8116,-40.4941 L -59.4379,-40.4469 L -59.0729,-40.3532 L -58.7227,-40.2145 L -58.3925,-40.033
 L -58.0877,-39.8115 L -57.8131,-39.5536 L -57.5729,-39.2634 L -57.3711,-38.9453 L -57.2107,-38.6044 L -57.0942,-38.2461
 L -57.0237,-37.876 L -57,-37.5 L -57.0237,-37.124 L -57.0942,-36.7539 L -57.2107,-36.3956 L -57.3711,-36.0547
 L -57.5729,-35.7366 L -57.8131,-35.4464 L -58.0877,-35.1885 L -58.3925,-34.967 L -58.7227,-34.7855 L -59.0729,-34.6468
 L -59.4379,-34.5531 L -59.8116,-34.5059 z
M -0.18837,-34.5059 L -0.562134,-34.5531 L -0.927048,-34.6468 L -1.27733,-34.7855 L -1.60747,-34.967 L -1.91226,-35.1885
 L -2.1869,-35.4464 L -2.42705,-35.7366 L -2.62891,-36.0547 L -2.78932,-36.3956 L -2.90575,-36.7539 L -2.97633,-37.124
 L -3,-37.5 L -2.97633,-37.876 L -2.90575,-38.2461 L -2.78932,-38.6044 L -2.62891,-38.9453 L -2.42705,-39.2634
 L -2.1869,-39.5536 L -1.91226,-39.8115 L -1.60747,-40.033 L -1.27733,-40.2145 L -0.927048,-40.3532 L -0.562134,-40.4469
 L -0.18837,-40.4941 L 0.18837,-40.4941 L 0.562134,-40.4469 L 0.927048,-40.3532 L 1.27733,-40.2145 L 1.60747,-40.033
 L 1.91226,-39.8115 L 2.1869,-39.5536 L 2.42705,-39.2634 L 2.62891,-38.9453 L 2.78932,-38.6044 L 2.90575,-38.2461
 L 2.97633,-37.876 L 3,-37.5 L 2.97633,-37.124 L 2.90575,-36.7539 L 2.78932,-36.3956 L 2.62891,-36.0547
 L 2.42705,-35.7366 L 2.1869,-35.4464 L 1.91226,-35.1885 L 1.60747,-34.967 L 1.27733,-34.7855 L 0.927048,-34.6468
 L 0.562134,-34.5531 L 0.18837,-34.5059 z
M -15.1884,-34.5059 L -15.5621,-34.5531 L -15.927,-34.6468 L -16.2773,-34.7855 L -16.6075,-34.967 L -16.9123,-35.1885
 L -17.1869,-35.4464 L -17.427,-35.7366 L -17.6289,-36.0547 L -17.7893,-36.3956 L -17.9057,-36.7539 L -17.9763,-37.124
 L -18,-37.5 L -17.9763,-37.876 L -17.9057,-38.2461 L -17.7893,-38.6044 L -17.6289,-38.9453 L -17.427,-39.2634
 L -17.1869,-39.5536 L -16.9123,-39.8115 L -16.6075,-40.033 L -16.2773,-40.2145 L -15.927,-40.3532 L -15.5621,-40.4469
 L -15.1884,-40.4941 L -14.8116,-40.4941 L -14.4379,-40.4469 L -14.0729,-40.3532 L -13.7227,-40.2145 L -13.3925,-40.033
 L -13.0877,-39.8115 L -12.8131,-39.5536 L -12.5729,-39.2634 L -12.3711,-38.9453 L -12.2107,-38.6044 L -12.0942,-38.2461
 L -12.0237,-37.876 L -12,-37.5 L -12.0237,-37.124 L -12.0942,-36.7539 L -12.2107,-36.3956 L -12.3711,-36.0547
 L -12.5729,-35.7366 L -12.8131,-35.4464 L -13.0877,-35.1885 L -13.3925,-34.967 L -13.7227,-34.7855 L -14.0729,-34.6468
 L -14.4379,-34.5531 L -14.8116,-34.5059 z
M 14.8116,-34.5059 L 14.4379,-34.5531 L 14.0729,-34.6468 L 13.7227,-34.7855 L 13.3925,-34.967 L 13.0877,-35.1885
 L 12.8131,-35.4464 L 12.5729,-35.7366 L 12.3711,-36.0547 L 12.2107,-36.3956 L 12.0942,-36.7539 L 12.0237,-37.124
 L 12,-37.5 L 12.0237,-37.876 L 12.0942,-38.2461 L 12.2107,-38.6044 L 12.3711,-38.9453 L 12.5729,-39.2634
 L 12.8131,-39.5536 L 13.0877,-39.8115 L 13.3925,-40.033 L 13.7227,-40.2145 L 14.0729,-40.3532 L 14.4379,-40.4469
 L 14.8116,-40.4941 L 15.1884,-40.4941 L 15.5621,-40.4469 L 15.927,-40.3532 L 16.2773,-40.2145 L 16.6075,-40.033
 L 16.9123,-39.8115 L 17.1869,-39.5536 L 17.427,-39.2634 L 17.6289,-38.9453 L 17.7893,-38.6044 L 17.9057,-38.2461
 L 17.9763,-37.876 L 18,-37.5 L 17.9763,-37.124 L 17.9057,-36.7539 L 17.7893,-36.3956 L 17.6289,-36.0547
 L 17.427,-35.7366 L 17.1869,-35.4464 L 16.9123,-35.1885 L 16.6075,-34.967 L 16.2773,-34.7855 L 15.927,-34.6468
 L 15.5621,-34.5531 L 15.1884,-34.5059 z
M -30.1884,-34.5059 L -30.5621,-34.5531 L -30.927,-34.6468 L -31.2773,-34.7855 L -31.6075,-34.967 L -31.9123,-35.1885
 L -32.1869,-35.4464 L -32.427,-35.7366 L -32.6289,-36.0547 L -32.7893,-36.3956 L -32.9057,-36.7539 L -32.9763,-37.124
 L -33,-37.5 L -32.9763,-37.876 L -32.9057,-38.2461 L -32.7893,-38.6044 L -32.6289,-38.9453 L -32.427,-39.2634
 L -32.1869,-39.5536 L -31.9123,-39.8115 L -31.6075,-40.033 L -31.2773,-40.2145 L -30.927,-40.3532 L -30.5621,-40.4469
 L -30.1884,-40.4941 L -29.8116,-40.4941 L -29.4379,-40.4469 L -29.0729,-40.3532 L -28.7227,-40.2145 L -28.3925,-40.033
 L -28.0877,-39.8115 L -27.8131,-39.5536 L -27.5729,-39.2634 L -27.3711,-38.9453 L -27.2107,-38.6044 L -27.0942,-38.2461
 L -27.0237,-37.876 L -27,-37.5 L -27.0237,-37.124 L -27.0942,-36.7539 L -27.2107,-36.3956 L -27.3711,-36.0547
 L -27.5729,-35.7366 L -27.8131,-35.4464 L -28.0877,-35.1885 L -28.3925,-34.967 L -28.7227,-34.7855 L -29.0729,-34.6468
 L -29.4379,-34.5531 L -29.8116,-34.5059 z
M -90.1884,-34.5059 L -90.5621,-34.5531 L -90.927,-34.6468 L -91.2773,-34.7855 L -91.6075,-34.967 L -91.9123,-35.1885
 L -92.1869,-35.4464 L -92.427,-35.7366 L -92.6289,-36.0547 L -92.7893,-36.3956 L -92.9057,-36.7539 L -92.9763,-37.124
 L -93,-37.5 L -92.9763,-37.876 L -92.9057,-38.2461 L -92.7893,-38.6044 L -92.6289,-38.9453 L -92.427,-39.2634
 L -92.1869,-39.5536 L -91.9123,-39.8115 L -91.6075,-40.033 L -91.2773,-40.2145 L -90.927,-40.3532 L -90.5621,-40.4469
 L -90.1884,-40.4941 L -89.8116,-40.4941 L -89.4379,-40.4469 L -89.073,-40.3532 L -88.7227,-40.2145 L -88.3925,-40.033
 L -88.0877,-39.8115 L -87.8131,-39.5536 L -87.573,-39.2634 L -87.3711,-38.9453 L -87.2107,-38.6044 L -87.0943,-38.2461
 L -87.0237,-37.876 L -87,-37.5 L -87.0237,-37.124 L -87.0943,-36.7539 L -87.2107,-36.3956 L -87.3711,-36.0547
 L -87.573,-35.7366 L -87.8131,-35.4464 L -88.0877,-35.1885 L -88.3925,-34.967 L -88.7227,-34.7855 L -89.073,-34.6468
 L -89.4379,-34.5531 L -89.8116,-34.5059 z
M 89.8116,-34.5059 L 89.4379,-34.5531 L 89.073,-34.6468 L 88.7227,-34.7855 L 88.3925,-34.967 L 88.0877,-35.1885
 L 87.8131,-35.4464 L 87.573,-35.7366 L 87.3711,-36.0547 L 87.2107,-36.3956 L 87.0943,-36.7539 L 87.0237,-37.124
 L 87,-37.5 L 87.0237,-37.876 L 87.0943,-38.2461 L 87.2107,-38.6044 L 87.3711,-38.9453 L 87.573,-39.2634
 L 87.8131,-39.5536 L 88.0877,-39.8115 L 88.3925,-40.033 L 88.7227,-40.2145 L 89.073,-40.3532 L 89.4379,-40.4469
 L 89.8116,-40.4941 L 90.1884,-40.4941 L 90.5621,-40.4469 L 90.927,-40.3532 L 91.2773,-40.2145 L 91.6075,-40.033
 L 91.9123,-39.8115 L 92.1869,-39.5536 L 92.427,-39.2634 L 92.6289,-38.9453 L 92.7893,-38.6044 L 92.9057,-38.2461
 L 92.9763,-37.876 L 93,-37.5 L 92.9763,-37.124 L 92.9057,-36.7539 L 92.7893,-36.3956 L 92.6289,-36.0547
 L 92.427,-35.7366 L 92.1869,-35.4464 L 91.9123,-35.1885 L 91.6075,-34.967 L 91.2773,-34.7855 L 90.927,-34.6468
 L 90.5621,-34.5531 L 90.1884,-34.5059 z
M 59.8116,-34.5059 L 59.4379,-34.5531 L 59.0729,-34.6468 L 58.7227,-34.7855 L 58.3925,-34.967 L 58.0877,-35.1885
 L 57.8131,-35.4464 L 57.5729,-35.7366 L 57.3711,-36.0547 L 57.2107,-36.3956 L 57.0942,-36.7539 L 57.0237,-37.124
 L 57,-37.5 L 57.0237,-37.876 L 57.0942,-38.2461 L 57.2107,-38.6044 L 57.3711,-38.9453 L 57.5729,-39.2634
 L 57.8131,-39.5536 L 58.0877,-39.8115 L 58.3925,-40.033 L 58.7227,-40.2145 L 59.0729,-40.3532 L 59.4379,-40.4469
 L 59.8116,-40.4941 L 60.1884,-40.4941 L 60.5621,-40.4469 L 60.927,-40.3532 L 61.2773,-40.2145 L 61.6075,-40.033
 L 61.9123,-39.8115 L 62.1869,-39.5536 L 62.427,-39.2634 L 62.6289,-38.9453 L 62.7893,-38.6044 L 62.9057,-38.2461
 L 62.9763,-37.876 L 63,-37.5 L 62.9763,-37.124 L 62.9057,-36.7539 L 62.7893,-36.3956 L 62.6289,-36.0547
 L 62.427,-35.7366 L 62.1869,-35.4464 L 61.9123,-35.1885 L 61.6075,-34.967 L 61.2773,-34.7855 L 60.927,-34.6468
 L 60.5621,-34.5531 L 60.1884,-34.5059 z
M 44.8116,-34.5059 L 44.4379,-34.5531 L 44.0729,-34.6468 L 43.7227,-34.7855 L 43.3925,-34.967 L 43.0877,-35.1885
 L 42.8131,-35.4464 L 42.5729,-35.7366 L 42.3711,-36.0547 L 42.2107,-36.3956 L 42.0942,-36.7539 L 42.0237,-37.124
 L 42,-37.5 L 42.0237,-37.876 L 42.0942,-38.2461 L 42.2107,-38.6044 L 42.3711,-38.9453 L 42.5729,-39.2634
 L 42.8131,-39.5536 L 43.0877,-39.8115 L 43.3925,-40.033 L 43.7227,-40.2145 L 44.0729,-40.3532 L 44.4379,-40.4469
 L 44.8116,-40.4941 L 45.1884,-40.4941 L 45.5621,-40.4469 L 45.927,-40.3532 L 46.2773,-40.2145 L 46.6075,-40.033
 L 46.9123,-39.8115 L 47.1869,-39.5536 L 47.427,-39.2634 L 47.6289,-38.9453 L 47.7893,-38.6044 L 47.9057,-38.2461
 L 47.9763,-37.876 L 48,-37.5 L 47.9763,-37.124 L 47.9057,-36.7539 L 47.7893,-36.3956 L 47.6289,-36.0547
 L 47.427,-35.7366 L 47.1869,-35.4464 L 46.9123,-35.1885 L 46.6075,-34.967 L 46.2773,-34.7855 L 45.927,-34.6468
 L 45.5621,-34.5531 L 45.1884,-34.5059 z
M -75.1884,-34.5059 L -75.5621,-34.5531 L -75.927,-34.6468 L -76.2773,-34.7855 L -76.6075,-34.967 L -76.9123,-35.1885
 L -77.1869,-35.4464 L -77.427,-35.7366 L -77.6289,-36.0547 L -77.7893,-36.3956 L -77.9057,-36.7539 L -77.9763,-37.124
 L -78,-37.5 L -77.9763,-37.876 L -77.9057,-38.2461 L -77.7893,-38.6044 L -77.6289,-38.9453 L -77.427,-39.2634
 L -77.1869,-39.5536 L -76.9123,-39.8115 L -76.6075,-40.033 L -76.2773,-40.2145 L -75.927,-40.3532 L -75.5621,-40.4469
 L -75.1884,-40.4941 L -74.8116,-40.4941 L -74.4379,-40.4469 L -74.073,-40.3532 L -73.7227,-40.2145 L -73.3925,-40.033
 L -73.0877,-39.8115 L -72.8131,-39.5536 L -72.573,-39.2634 L -72.3711,-38.9453 L -72.2107,-38.6044 L -72.0943,-38.2461
 L -72.0237,-37.876 L -72,-37.5 L -72.0237,-37.124 L -72.0943,-36.7539 L -72.2107,-36.3956 L -72.3711,-36.0547
 L -72.573,-35.7366 L -72.8131,-35.4464 L -73.0877,-35.1885 L -73.3925,-34.967 L -73.7227,-34.7855 L -74.073,-34.6468
 L -74.4379,-34.5531 L -74.8116,-34.5059 z
M -45.1884,-34.5059 L -45.5621,-34.5531 L -45.927,-34.6468 L -46.2773,-34.7855 L -46.6075,-34.967 L -46.9123,-35.1885
 L -47.1869,-35.4464 L -47.427,-35.7366 L -47.6289,-36.0547 L -47.7893,-36.3956 L -47.9057,-36.7539 L -47.9763,-37.124
 L -48,-37.5 L -47.9763,-37.876 L -47.9057,-38.2461 L -47.7893,-38.6044 L -47.6289,-38.9453 L -47.427,-39.2634
 L -47.1869,-39.5536 L -46.9123,-39.8115 L -46.6075,-40.033 L -46.2773,-40.2145 L -45.927,-40.3532 L -45.5621,-40.4469
 L -45.1884,-40.4941 L -44.8116,-40.4941 L -44.4379,-40.4469 L -44.0729,-40.3532 L -43.7227,-40.2145 L -43.3925,-40.033
 L -43.0877,-39.8115 L -42.8131,-39.5536 L -42.5729,-39.2634 L -42.3711,-38.9453 L -42.2107,-38.6044 L -42.0942,-38.2461
 L -42.0237,-37.876 L -42,-37.5 L -42.0237,-37.124 L -42.0942,-36.7539 L -42.2107,-36.3956 L -42.3711,-36.0547
 L -42.5729,-35.7366 L -42.8131,-35.4464 L -43.0877,-35.1885 L -43.3925,-34.967 L -43.7227,-34.7855 L -44.0729,-34.6468
 L -44.4379,-34.5531 L -44.8116,-34.5059 z
M -105.188,-34.5059 L -105.562,-34.5531 L -105.927,-34.6468 L -106.277,-34.7855 L -106.607,-34.967 L -106.912,-35.1885
 L -107.187,-35.4464 L -107.427,-35.7366 L -107.629,-36.0547 L -107.789,-36.3956 L -107.906,-36.7539 L -107.976,-37.124
 L -108,-37.5 L -107.976,-37.876 L -107.906,-38.2461 L -107.789,-38.6044 L -107.629,-38.9453 L -107.427,-39.2634
 L -107.187,-39.5536 L -106.912,-39.8115 L -106.607,-40.033 L -106.277,-40.2145 L -105.927,-40.3532 L -105.562,-40.4469
 L -105.188,-40.4941 L -104.812,-40.4941 L -104.438,-40.4469 L -104.073,-40.3532 L -103.723,-40.2145 L -103.393,-40.033
 L -103.088,-39.8115 L -102.813,-39.5536 L -102.573,-39.2634 L -102.371,-38.9453 L -102.211,-38.6044 L -102.094,-38.2461
 L -102.024,-37.876 L -102,-37.5 L -102.024,-37.124 L -102.094,-36.7539 L -102.211,-36.3956 L -102.371,-36.0547
 L -102.573,-35.7366 L -102.813,-35.4464 L -103.088,-35.1885 L -103.393,-34.967 L -103.723,-34.7855 L -104.073,-34.6468
 L -104.438,-34.5531 L -104.812,-34.5059 z
M 74.8116,-34.5059 L 74.4379,-34.5531 L 74.073,-34.6468 L 73.7227,-34.7855 L 73.3925,-34.967 L 73.0877,-35.1885
 L 72.8131,-35.4464 L 72.573,-35.7366 L 72.3711,-36.0547 L 72.2107,-36.3956 L 72.0943,-36.7539 L 72.0237,-37.124
 L 72,-37.5 L 72.0237,-37.876 L 72.0943,-38.2461 L 72.2107,-38.6044 L 72.3711,-38.9453 L 72.573,-39.2634
 L 72.8131,-39.5536 L 73.0877,-39.8115 L 73.3925,-40.033 L 73.7227,-40.2145 L 74.073,-40.3532 L 74.4379,-40.4469
 L 74.8116,-40.4941 L 75.1884,-40.4941 L 75.5621,-40.4469 L 75.927,-40.3532 L 76.2773,-40.2145 L 76.6075,-40.033
 L 76.9123,-39.8115 L 77.1869,-39.5536 L 77.427,-39.2634 L 77.6289,-38.9453 L 77.7893,-38.6044 L 77.9057,-38.2461
 L 77.9763,-37.876 L 78,-37.5 L 77.9763,-37.124 L 77.9057,-36.7539 L 77.7893,-36.3956 L 77.6289,-36.0547
 L 77.427,-35.7366 L 77.1869,-35.4464 L 76.9123,-35.1885 L 76.6075,-34.967 L 76.2773,-34.7855 L 75.927,-34.6468
 L 75.5621,-34.5531 L 75.1884,-34.5059 z
M 29.8116,-34.5059 L 29.4379,-34.5531 L 29.0729,-34.6468 L 28.7227,-34.7855 L 28.3925,-34.967 L 28.0877,-35.1885
 L 27.8131,-35.4464 L 27.5729,-35.7366 L 27.3711,-36.0547 L 27.2107,-36.3956 L 27.0942,-36.7539 L 27.0237,-37.124
 L 27,-37.5 L 27.0237,-37.876 L 27.0942,-38.2461 L 27.2107,-38.6044 L 27.3711,-38.9453 L 27.5729,-39.2634
 L 27.8131,-39.5536 L 28.0877,-39.8115 L 28.3925,-40.033 L 28.7227,-40.2145 L 29.0729,-40.3532 L 29.4379,-40.4469
 L 29.8116,-40.4941 L 30.1884,-40.4941 L 30.5621,-40.4469 L 30.927,-40.3532 L 31.2773,-40.2145 L 31.6075,-40.033
 L 31.9123,-39.8115 L 32.1869,-39.5536 L 32.427,-39.2634 L 32.6289,-38.9453 L 32.7893,-38.6044 L 32.9057,-38.2461
 L 32.9763,-37.876 L 33,-37.5 L 32.9763,-37.124 L 32.9057,-36.7539 L 32.7893,-36.3956 L 32.6289,-36.0547
 L 32.427,-35.7366 L 32.1869,-35.4464 L 31.9123,-35.1885 L 31.6075,-34.967 L 31.2773,-34.7855 L 30.927,-34.6468
 L 30.5621,-34.5531 L 30.1884,-34.5059 z
M -37.5942,-36.003 L -37.7811,-36.0266 L -37.9635,-36.0734 L -38.1387,-36.1428 L -38.3037,-36.2335 L -38.4561,-36.3442
 L -38.5934,-36.4732 L -38.7135,-36.6183 L -38.8145,-36.7774 L -38.8947,-36.9478 L -38.9529,-37.127 L -38.9882,-37.312
 L -39,-37.5 L -38.9882,-37.688 L -38.9529,-37.873 L -38.8947,-38.0522 L -38.8145,-38.2226 L -38.7135,-38.3817
 L -38.5934,-38.5268 L -38.4561,-38.6558 L -38.3037,-38.7665 L -38.1387,-38.8572 L -37.9635,-38.9266 L -37.7811,-38.9734
 L -37.5942,-38.997 L -37.4058,-38.997 L -37.2189,-38.9734 L -37.0365,-38.9266 L -36.8613,-38.8572 L -36.6963,-38.7665
 L -36.5439,-38.6558 L -36.4065,-38.5268 L -36.2865,-38.3817 L -36.1855,-38.2226 L -36.1053,-38.0522 L -36.0471,-37.873
 L -36.0118,-37.688 L -36,-37.5 L -36.0118,-37.312 L -36.0471,-37.127 L -36.1053,-36.9478 L -36.1855,-36.7774
 L -36.2865,-36.6183 L -36.4065,-36.4732 L -36.5439,-36.3442 L -36.6963,-36.2335 L -36.8613,-36.1428 L -37.0365,-36.0734
 L -37.2189,-36.0266 L -37.4058,-36.003 z
M 7.40581,-36.003 L 7.21892,-36.0266 L 7.03647,-36.0734 L 6.86133,-36.1428 L 6.69626,-36.2335 L 6.54385,-36.3442
 L 6.40654,-36.4732 L 6.28647,-36.6183 L 6.18553,-36.7774 L 6.10533,-36.9478 L 6.04712,-37.127 L 6.01183,-37.312
 L 6,-37.5 L 6.01183,-37.688 L 6.04712,-37.873 L 6.10533,-38.0522 L 6.18553,-38.2226 L 6.28647,-38.3817
 L 6.40654,-38.5268 L 6.54385,-38.6558 L 6.69626,-38.7665 L 6.86133,-38.8572 L 7.03647,-38.9266 L 7.21892,-38.9734
 L 7.40581,-38.997 L 7.59418,-38.997 L 7.78107,-38.9734 L 7.96352,-38.9266 L 8.13866,-38.8572 L 8.30373,-38.7665
 L 8.45613,-38.6558 L 8.59344,-38.5268 L 8.71352,-38.3817 L 8.81445,-38.2226 L 8.89465,-38.0522 L 8.95287,-37.873
 L 8.98816,-37.688 L 9,-37.5 L 8.98816,-37.312 L 8.95287,-37.127 L 8.89465,-36.9478 L 8.81445,-36.7774
 L 8.71352,-36.6183 L 8.59344,-36.4732 L 8.45613,-36.3442 L 8.30373,-36.2335 L 8.13866,-36.1428 L 7.96352,-36.0734
 L 7.78107,-36.0266 L 7.59418,-36.003 z
M -67.5942,-36.003 L -67.7811,-36.0266 L -67.9635,-36.0734 L -68.1387,-36.1428 L -68.3037,-36.2335 L -68.4561,-36.3442
 L -68.5934,-36.4732 L -68.7135,-36.6183 L -68.8145,-36.7774 L -68.8947,-36.9478 L -68.9529,-37.127 L -68.9882,-37.312
 L -69,-37.5 L -68.9882,-37.688 L -68.9529,-37.873 L -68.8947,-38.0522 L -68.8145,-38.2226 L -68.7135,-38.3817
 L -68.5934,-38.5268 L -68.4561,-38.6558 L -68.3037,-38.7665 L -68.1387,-38.8572 L -67.9635,-38.9266 L -67.7811,-38.9734
 L -67.5942,-38.997 L -67.4058,-38.997 L -67.2189,-38.9734 L -67.0365,-38.9266 L -66.8613,-38.8572 L -66.6963,-38.7665
 L -66.5439,-38.6558 L -66.4065,-38.5268 L -66.2865,-38.3817 L -66.1855,-38.2226 L -66.1053,-38.0522 L -66.0471,-37.873
 L -66.0118,-37.688 L -66,-37.5 L -66.0118,-37.312 L -66.0471,-37.127 L -66.1053,-36.9478 L -66.1855,-36.7774
 L -66.2865,-36.6183 L -66.4065,-36.4732 L -66.5439,-36.3442 L -66.6963,-36.2335 L -66.8613,-36.1428 L -67.0365,-36.0734
 L -67.2189,-36.0266 L -67.4058,-36.003 z
M 52.4058,-36.003 L 52.2189,-36.0266 L 52.0365,-36.0734 L 51.8613,-36.1428 L 51.6963,-36.2335 L 51.5439,-36.3442
 L 51.4065,-36.4732 L 51.2865,-36.6183 L 51.1855,-36.7774 L 51.1053,-36.9478 L 51.0471,-37.127 L 51.0118,-37.312
 L 51,-37.5 L 51.0118,-37.688 L 51.0471,-37.873 L 51.1053,-38.0522 L 51.1855,-38.2226 L 51.2865,-38.3817
 L 51.4065,-38.5268 L 51.5439,-38.6558 L 51.6963,-38.7665 L 51.8613,-38.8572 L 52.0365,-38.9266 L 52.2189,-38.9734
 L 52.4058,-38.997 L 52.5942,-38.997 L 52.7811,-38.9734 L 52.9635,-38.9266 L 53.1387,-38.8572 L 53.3037,-38.7665
 L 53.4561,-38.6558 L 53.5934,-38.5268 L 53.7135,-38.3817 L 53.8145,-38.2226 L 53.8947,-38.0522 L 53.9529,-37.873
 L 53.9882,-37.688 L 54,-37.5 L 53.9882,-37.312 L 53.9529,-37.127 L 53.8947,-36.9478 L 53.8145,-36.7774
 L 53.7135,-36.6183 L 53.5934,-36.4732 L 53.4561,-36.3442 L 53.3037,-36.2335 L 53.1387,-36.1428 L 52.9635,-36.0734
 L 52.7811,-36.0266 L 52.5942,-36.003 z
M -52.5942,-36.003 L -52.7811,-36.0266 L -52.9635,-36.0734 L -53.1387,-36.1428 L -53.3037,-36.2335 L -53.4561,-36.3442
 L -53.5934,-36.4732 L -53.7135,-36.6183 L -53.8145,-36.7774 L -53.8947,-36.9478 L -53.9529,-37.127 L -53.9882,-37.312
 L -54,-37.5 L -53.9882,-37.688 L -53.9529,-37.873 L -53.8947,-38.0522 L -53.8145,-38.2226 L -53.7135,-38.3817
 L -53.5934,-38.5268 L -53.4561,-38.6558 L -53.3037,-38.7665 L -53.1387,-38.8572 L -52.9635,-38.9266 L -52.7811,-38.9734
 L -52.5942,-38.997 L -52.4058,-38.997 L -52.2189,-38.9734 L -52.0365,-38.9266 L -51.8613,-38.8572 L -51.6963,-38.7665
 L -51.5439,-38.6558 L -51.4065,-38.5268 L -51.2865,-38.3817 L -51.1855,-38.2226 L -51.1053,-38.0522 L -51.0471,-37.873
 L -51.0118,-37.688 L -51,-37.5 L -51.0118,-37.312 L -51.0471,-37.127 L -51.1053,-36.9478 L -51.1855,-36.7774
 L -51.2865,-36.6183 L -51.4065,-36.4732 L -51.5439,-36.3442 L -51.6963,-36.2335 L -51.8613,-36.1428 L -52.0365,-36.0734
 L -52.2189,-36.0266 L -52.4058,-36.003 z
M -97.5942,-36.003 L -97.7811,-36.0266 L -97.9635,-36.0734 L -98.1387,-36.1428 L -98.3037,-36.2335 L -98.4561,-36.3442
 L -98.5934,-36.4732 L -98.7135,-36.6183 L -98.8145,-36.7774 L -98.8947,-36.9478 L -98.9529,-37.127 L -98.9882,-37.312
 L -99,-37.5 L -98.9882,-37.688 L -98.9529,-37.873 L -98.8947,-38.0522 L -98.8145,-38.2226 L -98.7135,-38.3817
 L -98.5934,-38.5268 L -98.4561,-38.6558 L -98.3037,-38.7665 L -98.1387,-38.8572 L -97.9635,-38.9266 L -97.7811,-38.9734
 L -97.5942,-38.997 L -97.4058,-38.997 L -97.2189,-38.9734 L -97.0365,-38.9266 L -96.8613,-38.8572 L -96.6963,-38.7665
 L -96.5439,-38.6558 L -96.4065,-38.5268 L -96.2865,-38.3817 L -96.1855,-38.2226 L -96.1053,-38.0522 L -96.0471,-37.873
 L -96.0118,-37.688 L -96,-37.5 L -96.0118,-37.312 L -96.0471,-37.127 L -96.1053,-36.9478 L -96.1855,-36.7774
 L -96.2865,-36.6183 L -96.4065,-36.4732 L -96.5439,-36.3442 L -96.6963,-36.2335 L -96.8613,-36.1428 L -97.0365,-36.0734
 L -97.2189,-36.0266 L -97.4058,-36.003 z
M 22.4058,-36.003 L 22.2189,-36.0266 L 22.0365,-36.0734 L 21.8613,-36.1428 L 21.6963,-36.2335 L 21.5439,-36.3442
 L 21.4065,-36.4732 L 21.2865,-36.6183 L 21.1855,-36.7774 L 21.1053,-36.9478 L 21.0471,-37.127 L 21.0118,-37.312
 L 21,-37.5 L 21.0118,-37.688 L 21.0471,-37.873 L 21.1053,-38.0522 L 21.1855,-38.2226 L 21.2865,-38.3817
 L 21.4065,-38.5268 L 21.5439,-38.6558 L 21.6963,-38.7665 L 21.8613,-38.8572 L 22.0365,-38.9266 L 22.2189,-38.9734
 L 22.4058,-38.997 L 22.5942,-38.997 L 22.7811,-38.9734 L 22.9635,-38.9266 L 23.1387,-38.8572 L 23.3037,-38.7665
 L 23.4561,-38.6558 L 23.5934,-38.5268 L 23.7135,-38.3817 L 23.8145,-38.2226 L 23.8947,-38.0522 L 23.9529,-37.873
 L 23.9882,-37.688 L 24,-37.5 L 23.9882,-37.312 L 23.9529,-37.127 L 23.8947,-36.9478 L 23.8145,-36.7774
 L 23.7135,-36.6183 L 23.5934,-36.4732 L 23.4561,-36.3442 L 23.3037,-36.2335 L 23.1387,-36.1428 L 22.9635,-36.0734
 L 22.7811,-36.0266 L 22.5942,-36.003 z
M 67.4058,-36.003 L 67.2189,-36.0266 L 67.0365,-36.0734 L 66.8613,-36.1428 L 66.6963,-36.2335 L 66.5439,-36.3442
 L 66.4065,-36.4732 L 66.2865,-36.6183 L 66.1855,-36.7774 L 66.1053,-36.9478 L 66.0471,-37.127 L 66.0118,-37.312
 L 66,-37.5 L 66.0118,-37.688 L 66.0471,-37.873 L 66.1053,-38.0522 L 66.1855,-38.2226 L 66.2865,-38.3817
 L 66.4065,-38.5268 L 66.5439,-38.6558 L 66.6963,-38.7665 L 66.8613,-38.8572 L 67.0365,-38.9266 L 67.2189,-38.9734
 L 67.4058,-38.997 L 67.5942,-38.997 L 67.7811,-38.9734 L 67.9635,-38.9266 L 68.1387,-38.8572 L 68.3037,-38.7665
 L 68.4561,-38.6558 L 68.5934,-38.5268 L 68.7135,-38.3817 L 68.8145,-38.2226 L 68.8947,-38.0522 L 68.9529,-37.873
 L 68.9882,-37.688 L 69,-37.5 L 68.9882,-37.312 L 68.9529,-37.127 L 68.8947,-36.9478 L 68.8145,-36.7774
 L 68.7135,-36.6183 L 68.5934,-36.4732 L 68.4561,-36.3442 L 68.3037,-36.2335 L 68.1387,-36.1428 L 67.9635,-36.0734
 L 67.7811,-36.0266 L 67.5942,-36.003 z
M 82.4058,-36.003 L 82.2189,-36.0266 L 82.0365,-36.0734 L 81.8613,-36.1428 L 81.6963,-36.2335 L 81.5439,-36.3442
 L 81.4065,-36.4732 L 81.2865,-36.6183 L 81.1855,-36.7774 L 81.1053,-36.9478 L 81.0471,-37.127 L 81.0118,-37.312
 L 81,-37.5 L 81.0118,-37.688 L 81.0471,-37.873 L 81.1053,-38.0522 L 81.1855,-38.2226 L 81.2865,-38.3817
 L 81.4065,-38.5268 L 81.5439,-38.6558 L 81.6963,-38.7665 L 81.8613,-38.8572 L 82.0365,-38.9266 L 82.2189,-38.9734
 L 82.4058,-38.997 L 82.5942,-38.997 L 82.7811,-38.9734 L 82.9635,-38.9266 L 83.1387,-38.8572 L 83.3037,-38.7665
 L 83.4561,-38.6558 L 83.5934,-38.5268 L 83.7135,-38.3817 L 83.8145,-38.2226 L 83.8947,-38.0522 L 83.9529,-37.873
 L 83.9882,-37.688 L 84,-37.5 L 83.9882,-37.312 L 83.9529,-37.127 L 83.8947,-36.9478 L 83.8145,-36.7774
 L 83.7135,-36.6183 L 83.5934,-36.4732 L 83.4561,-36.3442 L 83.3037,-36.2335 L 83.1387,-36.1428 L 82.9635,-36.0734
 L 82.7811,-36.0266 L 82.5942,-36.003 z
M -82.5942,-36.003 L -82.7811,-36.0266 L -82.9635,-36.0734 L -83.1387,-36.1428 L -83.3037,-36.2335 L -83.4561,-36.3442
 L -83.5934,-36.4732 L -83.7135,-36.6183 L -83.8145,-36.7774 L -83.8947,-36.9478 L -83.9529,-37.127 L -83.9882,-37.312
 L -84,-37.5 L -83.9882,-37.688 L -83.9529,-37.873 L -83.8947,-38.0522 L -83.8145,-38.2226 L -83.7135,-38.3817
 L -83.5934,-38.5268 L -83.4561,-38.6558 L -83.3037,-38.7665 L -83.1387,-38.8572 L -82.9635,-38.9266 L -82.7811,-38.9734
 L -82.5942,-38.997 L -82.4058,-38.997 L -82.2189,-38.9734 L -82.0365,-38.9266 L -81.8613,-38.8572 L -81.6963,-38.7665
 L -81.5439,-38.6558 L -81.4065,-38.5268 L -81.2865,-38.3817 L -81.1855,-38.2226 L -81.1053,-38.0522 L -81.0471,-37.873
 L -81.0118,-37.688 L -81,-37.5 L -81.0118,-37.312 L -81.0471,-37.127 L -81.1053,-36.9478 L -81.1855,-36.7774
 L -81.2865,-36.6183 L -81.4065,-36.4732 L -81.5439,-36.3442 L -81.6963,-36.2335 L -81.8613,-36.1428 L -82.0365,-36.0734
 L -82.2189,-36.0266 L -82.4058,-36.003 z
M -22.5942,-36.003 L -22.7811,-36.0266 L -22.9635,-36.0734 L -23.1387,-36.1428 L -23.3037,-36.2335 L -23.4561,-36.3442
 L -23.5934,-36.4732 L -23.7135,-36.6183 L -23.8145,-36.7774 L -23.8947,-36.9478 L -23.9529,-37.127 L -23.9882,-37.312
 L -24,-37.5 L -23.9882,-37.688 L -23.9529,-37.873 L -23.8947,-38.0522 L -23.8145,-38.2226 L -23.7135,-38.3817
 L -23.5934,-38.5268 L -23.4561,-38.6558 L -23.3037,-38.7665 L -23.1387,-38.8572 L -22.9635,-38.9266 L -22.7811,-38.9734
 L -22.5942,-38.997 L -22.4058,-38.997 L -22.2189,-38.9734 L -22.0365,-38.9266 L -21.8613,-38.8572 L -21.6963,-38.7665
 L -21.5439,-38.6558 L -21.4065,-38.5268 L -21.2865,-38.3817 L -21.1855,-38.2226 L -21.1053,-38.0522 L -21.0471,-37.873
 L -21.0118,-37.688 L -21,-37.5 L -21.0118,-37.312 L -21.0471,-37.127 L -21.1053,-36.9478 L -21.1855,-36.7774
 L -21.2865,-36.6183 L -21.4065,-36.4732 L -21.5439,-36.3442 L -21.6963,-36.2335 L -21.8613,-36.1428 L -22.0365,-36.0734
 L -22.2189,-36.0266 L -22.4058,-36.003 z
M 37.4058,-36.003 L 37.2189,-36.0266 L 37.0365,-36.0734 L 36.8613,-36.1428 L 36.6963,-36.2335 L 36.5439,-36.3442
 L 36.4065,-36.4732 L 36.2865,-36.6183 L 36.1855,-36.7774 L 36.1053,-36.9478 L 36.0471,-37.127 L 36.0118,-37.312
 L 36,-37.5 L 36.0118,-37.688 L 36.0471,-37.873 L 36.1053,-38.0522 L 36.1855,-38.2226 L 36.2865,-38.3817
 L 36.4065,-38.5268 L 36.5439,-38.6558 L 36.6963,-38.7665 L 36.8613,-38.8572 L 37.0365,-38.9266 L 37.2189,-38.9734
 L 37.4058,-38.997 L 37.5942,-38.997 L 37.7811,-38.9734 L 37.9635,-38.9266 L 38.1387,-38.8572 L 38.3037,-38.7665
 L 38.4561,-38.6558 L 38.5934,-38.5268 L 38.7135,-38.3817 L 38.8145,-38.2226 L 38.8947,-38.0522 L 38.9529,-37.873
 L 38.9882,-37.688 L 39,-37.5 L 38.9882,-37.312 L 38.9529,-37.127 L 38.8947,-36.9478 L 38.8145,-36.7774
 L 38.7135,-36.6183 L 38.5934,-36.4732 L 38.4561,-36.3442 L 38.3037,-36.2335 L 38.1387,-36.1428 L 37.9635,-36.0734
 L 37.7811,-36.0266 L 37.5942,-36.003 z
M -7.59418,-36.003 L -7.78107,-36.0266 L -7.96352,-36.0734 L -8.13866,-36.1428 L -8.30373,-36.2335 L -8.45613,-36.3442
 L -8.59344,-36.4732 L -8.71352,-36.6183 L -8.81445,-36.7774 L -8.89465,-36.9478 L -8.95287,-37.127 L -8.98816,-37.312
 L -9,-37.5 L -8.98816,-37.688 L -8.95287,-37.873 L -8.89465,-38.0522 L -8.81445,-38.2226 L -8.71352,-38.3817
 L -8.59344,-38.5268 L -8.45613,-38.6558 L -8.30373,-38.7665 L -8.13866,-38.8572 L -7.96352,-38.9266 L -7.78107,-38.9734
 L -7.59418,-38.997 L -7.40581,-38.997 L -7.21892,-38.9734 L -7.03647,-38.9266 L -6.86133,-38.8572 L -6.69626,-38.7665
 L -6.54385,-38.6558 L -6.40654,-38.5268 L -6.28647,-38.3817 L -6.18553,-38.2226 L -6.10533,-38.0522 L -6.04712,-37.873
 L -6.01183,-37.688 L -6,-37.5 L -6.01183,-37.312 L -6.04712,-37.127 L -6.10533,-36.9478 L -6.18553,-36.7774
 L -6.28647,-36.6183 L -6.40654,-36.4732 L -6.54385,-36.3442 L -6.69626,-36.2335 L -6.86133,-36.1428 L -7.03647,-36.0734
 L -7.21892,-36.0266 L -7.40581,-36.003 z
M 97.4058,-36.003 L 97.2189,-36.0266 L 97.0365,-36.0734 L 96.8613,-36.1428 L 96.6963,-36.2335 L 96.5439,-36.3442
 L 96.4065,-36.4732 L 96.2865,-36.6183 L 96.1855,-36.7774 L 96.1053,-36.9478 L 96.0471,-37.127 L 96.0118,-37.312
 L 96,-37.5 L 96.0118,-37.688 L 96.0471,-37.873 L 96.1053,-38.0522 L 96.1855,-38.2226 L 96.2865,-38.3817
 L 96.4065,-38.5268 L 96.5439,-38.6558 L 96.6963,-38.7665 L 96.8613,-38.8572 L 97.0365,-38.9266 L 97.2189,-38.9734
 L 97.4058,-38.997 L 97.5942,-38.997 L 97.7811,-38.9734 L 97.9635,-38.9266 L 98.1387,-38.8572 L 98.3037,-38.7665
 L 98.4561,-38.6558 L 98.5934,-38.5268 L 98.7135,-38.3817 L 98.8145,-38.2226 L 98.8947,-38.0522 L 98.9529,-37.873
 L 98.9882,-37.688 L 99,-37.5 L 98.9882,-37.312 L 98.9529,-37.127 L 98.8947,-36.9478 L 98.8145,-36.7774
 L 98.7135,-36.6183 L 98.5934,-36.4732 L 98.4561,-36.3442 L 98.3037,-36.2335 L 98.1387,-36.1428 L 97.9635,-36.0734
 L 97.7811,-36.0266 L 97.5942,-36.003 z
M 68.9279,32.9349 L 64.8164,32.4155 L 60.8024,31.3849 L 56.9493,29.8593 L 53.3177,27.8628 L 49.965,25.4269
 L 46.944,22.59 L 44.3024,19.3969 L 42.0819,15.8979 L 40.3174,12.1481 L 39.0367,8.20676 L 38.2602,4.13599
 L 38,-0 L 38.2602,-4.13599 L 39.0367,-8.20676 L 40.3174,-12.1481 L 42.0819,-15.8979 L 44.3024,-19.3969
 L 46.944,-22.59 L 49.965,-25.4269 L 53.3177,-27.8628 L 56.9493,-29.8593 L 60.8024,-31.3849 L 64.8164,-32.4155
 L 68.9279,-32.9349 L 73.0721,-32.9349 L 77.1836,-32.4155 L 81.1976,-31.3849 L 85.0507,-29.8593 L 88.6823,-27.8628
 L 92.035,-25.4269 L 95.056,-22.59 L 97.6976,-19.3969 L 99.9181,-15.8979 L 101.683,-12.1481 L 102.963,-8.20676
 L 103.74,-4.13599 L 104,-0 L 103.74,4.13599 L 102.963,8.20676 L 101.683,12.1481 L 99.9181,15.8979
 L 97.6976,19.3969 L 95.056,22.59 L 92.035,25.4269 L 88.6823,27.8628 L 85.0507,29.8593 L 81.1976,31.3849
 L 77.1836,32.4155 L 73.0721,32.9349 z
M -73.0721,32.9349 L -77.1836,32.4155 L -81.1976,31.3849 L -85.0507,29.8593 L -88.6823,27.8628 L -92.035,25.4269
 L -95.056,22.59 L -97.6976,19.3969 L -99.9181,15.8979 L -101.683,12.1481 L -102.963,8.20676 L -103.74,4.13599
 L -104,-0 L -103.74,-4.13599 L -102.963,-8.20676 L -101.683,-12.1481 L -99.9181,-15.8979 L -97.6976,-19.3969
 L -95.056,-22.59 L -92.035,-25.4269 L -88.6823,-27.8628 L -85.0507,-29.8593 L -81.1976,-31.3849 L -77.1836,-32.4155
 L -73.0721,-32.9349 L -68.9279,-32.9349 L -64.8164,-32.4155 L -60.8024,-31.3849 L -56.9493,-29.8593 L -53.3177,-27.8628
 L -49.965,-25.4269 L -46.944,-22.59 L -44.3024,-19.3969 L -42.0819,-15.8979 L -40.3174,-12.1481 L -39.0367,-8.20676
 L -38.2602,-4.13599 L -38,-0 L -38.2602,4.13599 L -39.0367,8.20676 L -40.3174,12.1481 L -42.0819,15.8979
 L -44.3024,19.3969 L -46.944,22.59 L -49.965,25.4269 L -53.3177,27.8628 L -56.9493,29.8593 L -60.8024,31.3849
 L -64.8164,32.4155 L -68.9279,32.9349 z
M -2.07208,32.9349 L -6.18358,32.4155 L -10.1976,31.3849 L -14.0507,29.8593 L -17.6823,27.8628 L -21.035,25.4269
 L -24.056,22.59 L -26.6976,19.3969 L -28.9181,15.8979 L -30.6826,12.1481 L -31.9632,8.20676 L -32.7398,4.13599
 L -33,-0 L -32.7398,-4.13599 L -31.9632,-8.20676 L -30.6826,-12.1481 L -28.9181,-15.8979 L -26.6976,-19.3969
 L -24.056,-22.59 L -21.035,-25.4269 L -17.6823,-27.8628 L -14.0507,-29.8593 L -10.1976,-31.3849 L -6.18358,-32.4155
 L -2.07208,-32.9349 L 2.07208,-32.9349 L 6.18358,-32.4155 L 10.1976,-31.3849 L 14.0507,-29.8593 L 17.6823,-27.8628
 L 21.035,-25.4269 L 24.056,-22.59 L 26.6976,-19.3969 L 28.9181,-15.8979 L 30.6826,-12.1481 L 31.9632,-8.20676
 L 32.7398,-4.13599 L 33,-0 L 32.7398,4.13599 L 31.9632,8.20676 L 30.6826,12.1481 L 28.9181,15.8979
 L 26.6976,19.3969 L 24.056,22.59 L 21.035,25.4269 L 17.6823,27.8628 L 14.0507,29.8593 L 10.1976,31.3849
 L 6.18358,32.4155 L 2.07208,32.9349 z
M -60.1884,40.4941 L -60.5621,40.4469 L -60.927,40.3532 L -61.2773,40.2145 L -61.6075,40.033 L -61.9123,39.8115
 L -62.1869,39.5536 L -62.427,39.2634 L -62.6289,38.9453 L -62.7893,38.6044 L -62.9057,38.2461 L -62.9763,37.876
 L -63,37.5 L -62.9763,37.124 L -62.9057,36.7539 L -62.7893,36.3956 L -62.6289,36.0547 L -62.427,35.7366
 L -62.1869,35.4464 L -61.9123,35.1885 L -61.6075,34.967 L -61.2773,34.7855 L -60.927,34.6468 L -60.5621,34.5531
 L -60.1884,34.5059 L -59.8116,34.5059 L -59.4379,34.5531 L -59.0729,34.6468 L -58.7227,34.7855 L -58.3925,34.967
 L -58.0877,35.1885 L -57.8131,35.4464 L -57.5729,35.7366 L -57.3711,36.0547 L -57.2107,36.3956 L -57.0942,36.7539
 L -57.0237,37.124 L -57,37.5 L -57.0237,37.876 L -57.0942,38.2461 L -57.2107,38.6044 L -57.3711,38.9453
 L -57.5729,39.2634 L -57.8131,39.5536 L -58.0877,39.8115 L -58.3925,40.033 L -58.7227,40.2145 L -59.0729,40.3532
 L -59.4379,40.4469 L -59.8116,40.4941 z
M -15.1884,40.4941 L -15.5621,40.4469 L -15.927,40.3532 L -16.2773,40.2145 L -16.6075,40.033 L -16.9123,39.8115
 L -17.1869,39.5536 L -17.427,39.2634 L -17.6289,38.9453 L -17.7893,38.6044 L -17.9057,38.2461 L -17.9763,37.876
 L -18,37.5 L -17.9763,37.124 L -17.9057,36.7539 L -17.7893,36.3956 L -17.6289,36.0547 L -17.427,35.7366
 L -17.1869,35.4464 L -16.9123,35.1885 L -16.6075,34.967 L -16.2773,34.7855 L -15.927,34.6468 L -15.5621,34.5531
 L -15.1884,34.5059 L -14.8116,34.5059 L -14.4379,34.5531 L -14.0729,34.6468 L -13.7227,34.7855 L -13.3925,34.967
 L -13.0877,35.1885 L -12.8131,35.4464 L -12.5729,35.7366 L -12.3711,36.0547 L -12.2107,36.3956 L -12.0942,36.7539
 L -12.0237,37.124 L -12,37.5 L -12.0237,37.876 L -12.0942,38.2461 L -12.2107,38.6044 L -12.3711,38.9453
 L -12.5729,39.2634 L -12.8131,39.5536 L -13.0877,39.8115 L -13.3925,40.033 L -13.7227,40.2145 L -14.0729,40.3532
 L -14.4379,40.4469 L -14.8116,40.4941 z
M -30.1884,40.4941 L -30.5621,40.4469 L -30.927,40.3532 L -31.2773,40.2145 L -31.6075,40.033 L -31.9123,39.8115
 L -32.1869,39.5536 L -32.427,39.2634 L -32.6289,38.9453 L -32.7893,38.6044 L -32.9057,38.2461 L -32.9763,37.876
 L -33,37.5 L -32.9763,37.124 L -32.9057,36.7539 L -32.7893,36.3956 L -32.6289,36.0547 L -32.427,35.7366
 L -32.1869,35.4464 L -31.9123,35.1885 L -31.6075,34.967 L -31.2773,34.7855 L -30.927,34.6468 L -30.5621,34.5531
 L -30.1884,34.5059 L -29.8116,34.5059 L -29.4379,34.5531 L -29.0729,34.6468 L -28.7227,34.7855 L -28.3925,34.967
 L -28.0877,35.1885 L -27.8131,35.4464 L -27.5729,35.7366 L -27.3711,36.0547 L -27.2107,36.3956 L -27.0942,36.7539
 L -27.0237,37.124 L -27,37.5 L -27.0237,37.876 L -27.0942,38.2461 L -27.2107,38.6044 L -27.3711,38.9453
 L -27.5729,39.2634 L -27.8131,39.5536 L -28.0877,39.8115 L -28.3925,40.033 L -28.7227,40.2145 L -29.0729,40.3532
 L -29.4379,40.4469 L -29.8116,40.4941 z
M 74.8116,40.4941 L 74.4379,40.4469 L 74.073,40.3532 L 73.7227,40.2145 L 73.3925,40.033 L 73.0877,39.8115
 L 72.8131,39.5536 L 72.573,39.2634 L 72.3711,38.9453 L 72.2107,38.6044 L 72.0943,38.2461 L 72.0237,37.876
 L 72,37.5 L 72.0237,37.124 L 72.0943,36.7539 L 72.2107,36.3956 L 72.3711,36.0547 L 72.573,35.7366
 L 72.8131,35.4464 L 73.0877,35.1885 L 73.3925,34.967 L 73.7227,34.7855 L 74.073,34.6468 L 74.4379,34.5531
 L 74.8116,34.5059 L 75.1884,34.5059 L 75.5621,34.5531 L 75.927,34.6468 L 76.2773,34.7855 L 76.6075,34.967
 L 76.9123,35.1885 L 77.1869,35.4464 L 77.427,35.7366 L 77.6289,36.0547 L 77.7893,36.3956 L 77.9057,36.7539
 L 77.9763,37.124 L 78,37.5 L 77.9763,37.876 L 77.9057,38.2461 L 77.7893,38.6044 L 77.6289,38.9453
 L 77.427,39.2634 L 77.1869,39.5536 L 76.9123,39.8115 L 76.6075,40.033 L 76.2773,40.2145 L 75.927,40.3532
 L 75.5621,40.4469 L 75.1884,40.4941 z
M 14.8116,40.4941 L 14.4379,40.4469 L 14.0729,40.3532 L 13.7227,40.2145 L 13.3925,40.033 L 13.0877,39.8115
 L 12.8131,39.5536 L 12.5729,39.2634 L 12.3711,38.9453 L 12.2107,38.6044 L 12.0942,38.2461 L 12.0237,37.876
 L 12,37.5 L 12.0237,37.124 L 12.0942,36.7539 L 12.2107,36.3956 L 12.3711,36.0547 L 12.5729,35.7366
 L 12.8131,35.4464 L 13.0877,35.1885 L 13.3925,34.967 L 13.7227,34.7855 L 14.0729,34.6468 L 14.4379,34.5531
 L 14.8116,34.5059 L 15.1884,34.5059 L 15.5621,34.5531 L 15.927,34.6468 L 16.2773,34.7855 L 16.6075,34.967
 L 16.9123,35.1885 L 17.1869,35.4464 L 17.427,35.7366 L 17.6289,36.0547 L 17.7893,36.3956 L 17.9057,36.7539
 L 17.9763,37.124 L 18,37.5 L 17.9763,37.876 L 17.9057,38.2461 L 17.7893,38.6044 L 17.6289,38.9453
 L 17.427,39.2634 L 17.1869,39.5536 L 16.9123,39.8115 L 16.6075,40.033 L 16.2773,40.2145 L 15.927,40.3532
 L 15.5621,40.4469 L 15.1884,40.4941 z
M -0.18837,40.4941 L -0.562134,40.4469 L -0.927048,40.3532 L -1.27733,40.2145 L -1.60747,40.033 L -1.91226,39.8115
 L -2.1869,39.5536 L -2.42705,39.2634 L -2.62891,38.9453 L -2.78932,38.6044 L -2.90575,38.2461 L -2.97633,37.876
 L -3,37.5 L -2.97633,37.124 L -2.90575,36.7539 L -2.78932,36.3956 L -2.62891,36.0547 L -2.42705,35.7366
 L -2.1869,35.4464 L -1.91226,35.1885 L -1.60747,34.967 L -1.27733,34.7855 L -0.927048,34.6468 L -0.562134,34.5531
 L -0.18837,34.5059 L 0.18837,34.5059 L 0.562134,34.5531 L 0.927048,34.6468 L 1.27733,34.7855 L 1.60747,34.967
 L 1.91226,35.1885 L 2.1869,35.4464 L 2.42705,35.7366 L 2.62891,36.0547 L 2.78932,36.3956 L 2.90575,36.7539
 L 2.97633,37.124 L 3,37.5 L 2.97633,37.876 L 2.90575,38.2461 L 2.78932,38.6044 L 2.62891,38.9453
 L 2.42705,39.2634 L 2.1869,39.5536 L 1.91226,39.8115 L 1.60747,40.033 L 1.27733,40.2145 L 0.927048,40.3532
 L 0.562134,40.4469 L 0.18837,40.4941 z
M 44.8116,40.4941 L 44.4379,40.4469 L 44.0729,40.3532 L 43.7227,40.2145 L 43.3925,40.033 L 43.0877,39.8115
 L 42.8131,39.5536 L 42.5729,39.2634 L 42.3711,38.9453 L 42.2107,38.6044 L 42.0942,38.2461 L 42.0237,37.876
 L 42,37.5 L 42.0237,37.124 L 42.0942,36.7539 L 42.2107,36.3956 L 42.3711,36.0547 L 42.5729,35.7366
 L 42.8131,35.4464 L 43.0877,35.1885 L 43.3925,34.967 L 43.7227,34.7855 L 44.0729,34.6468 L 44.4379,34.5531
 L 44.8116,34.5059 L 45.1884,34.5059 L 45.5621,34.5531 L 45.927,34.6468 L 46.2773,34.7855 L 46.6075,34.967
 L 46.9123,35.1885 L 47.1869,35.4464 L 47.427,35.7366 L 47.6289,36.0547 L 47.7893,36.3956 L 47.9057,36.7539
 L 47.9763,37.124 L 48,37.5 L 47.9763,37.876 L 47.9057,38.2461 L 47.7893,38.6044 L 47.6289,38.9453
 L 47.427,39.2634 L 47.1869,39.5536 L 46.9123,39.8115 L 46.6075,40.033 L 46.2773,40.2145 L 45.927,40.3532
 L 45.5621,40.4469 L 45.1884,40.4941 z
M -90.1884,40.4941 L -90.5621,40.4469 L -90.927,40.3532 L -91.2773,40.2145 L -91.6075,40.033 L -91.9123,39.8115
 L -92.1869,39.5536 L -92.427,39.2634 L -92.6289,38.9453 L -92.7893,38.6044 L -92.9057,38.2461 L -92.9763,37.876
 L -93,37.5 L -92.9763,37.124 L -92.9057,36.7539 L -92.7893,36.3956 L -92.6289,36.0547 L -92.427,35.7366
 L -92.1869,35.4464 L -91.9123,35.1885 L -91.6075,34.967 L -91.2773,34.7855 L -90.927,34.6468 L -90.5621,34.5531
 L -90.1884,34.5059 L -89.8116,34.5059 L -89.4379,34.5531 L -89.073,34.6468 L -88.7227,34.7855 L -88.3925,34.967
 L -88.0877,35.1885 L -87.8131,35.4464 L -87.573,35.7366 L -87.3711,36.0547 L -87.2107,36.3956 L -87.0943,36.7539
 L -87.0237,37.124 L -87,37.5 L -87.0237,37.876 L -87.0943,38.2461 L -87.2107,38.6044 L -87.3711,38.9453
 L -87.573,39.2634 L -87.8131,39.5536 L -88.0877,39.8115 L -88.3925,40.033 L -88.7227,40.2145 L -89.073,40.3532
 L -89.4379,40.4469 L -89.8116,40.4941 z
M -105.188,40.4941 L -105.562,40.4469 L -105.927,40.3532 L -106.277,40.2145 L -106.607,40.033 L -106.912,39.8115
 L -107.187,39.5536 L -107.427,39.2634 L -107.629,38.9453 L -107.789,38.6044 L -107.906,38.2461 L -107.976,37.876
 L -108,37.5 L -107.976,37.124 L -107.906,36.7539 L -107.789,36.3956 L -107.629,36.0547 L -107.427,35.7366
 L -107.187,35.4464 L -106.912,35.1885 L -106.607,34.967 L -106.277,34.7855 L -105.927,34.6468 L -105.562,34.5531
 L -105.188,34.5059 L -104.812,34.5059 L -104.438,34.5531 L -104.073,34.6468 L -103.723,34.7855 L -103.393,34.967
 L -103.088,35.1885 L -102.813,35.4464 L -102.573,35.7366 L -102.371,36.0547 L -102.211,36.3956 L -102.094,36.7539
 L -102.024,37.124 L -102,37.5 L -102.024,37.876 L -102.094,38.2461 L -102.211,38.6044 L -102.371,38.9453
 L -102.573,39.2634 L -102.813,39.5536 L -103.088,39.8115 L -103.393,40.033 L -103.723,40.2145 L -104.073,40.3532
 L -104.438,40.4469 L -104.812,40.4941 z
M -45.1884,40.4941 L -45.5621,40.4469 L -45.927,40.3532 L -46.2773,40.2145 L -46.6075,40.033 L -46.9123,39.8115
 L -47.1869,39.5536 L -47.427,39.2634 L -47.6289,38.9453 L -47.7893,38.6044 L -47.9057,38.2461 L -47.9763,37.876
 L -48,37.5 L -47.9763,37.124 L -47.9057,36.7539 L -47.7893,36.3956 L -47.6289,36.0547 L -47.427,35.7366
 L -47.1869,35.4464 L -46.9123,35.1885 L -46.6075,34.967 L -46.2773,34.7855 L -45.927,34.6468 L -45.5621,34.5531
 L -45.1884,34.5059 L -44.8116,34.5059 L -44.4379,34.5531 L -44.0729,34.6468 L -43.7227,34.7855 L -43.3925,34.967
 L -43.0877,35.1885 L -42.8131,35.4464 L -42.5729,35.7366 L -42.3711,36.0547 L -42.2107,36.3956 L -42.0942,36.7539
 L -42.0237,37.124 L -42,37.5 L -42.0237,37.876 L -42.0942,38.2461 L -42.2107,38.6044 L -42.3711,38.9453
 L -42.5729,39.2634 L -42.8131,39.5536 L -43.0877,39.8115 L -43.3925,40.033 L -43.7227,40.2145 L -44.0729,40.3532
 L -44.4379,40.4469 L -44.8116,40.4941 z
M 59.8116,40.4941 L 59.4379,40.4469 L 59.0729,40.3532 L 58.7227,40.2145 L 58.3925,40.033 L 58.0877,39.8115
 L 57.8131,39.5536 L 57.5729,39.2634 L 57.3711,38.9453 L 57.2107,38.6044 L 57.0942,38.2461 L 57.0237,37.876
 L 57,37.5 L 57.0237,37.124 L 57.0942,36.7539 L 57.2107,36.3956 L 57.3711,36.0547 L 57.5729,35.7366
 L 57.8131,35.4464 L 58.0877,35.1885 L 58.3925,34.967 L 58.7227,34.7855 L 59.0729,34.6468 L 59.4379,34.5531
 L 59.8116,34.5059 L 60.1884,34.5059 L 60.5621,34.5531 L 60.927,34.6468 L 61.2773,34.7855 L 61.6075,34.967
 L 61.9123,35.1885 L 62.1869,35.4464 L 62.427,35.7366 L 62.6289,36.0547 L 62.7893,36.3956 L 62.9057,36.7539
 L 62.9763,37.124 L 63,37.5 L 62.9763,37.876 L 62.9057,38.2461 L 62.7893,38.6044 L 62.6289,38.9453
 L 62.427,39.2634 L 62.1869,39.5536 L 61.9123,39.8115 L 61.6075,40.033 L 61.2773,40.2145 L 60.927,40.3532
 L 60.5621,40.4469 L 60.1884,40.4941 z
M 29.8116,40.4941 L 29.4379,40.4469 L 29.0729,40.3532 L 28.7227,40.2145 L 28.3925,40.033 L 28.0877,39.8115
 L 27.8131,39.5536 L 27.5729,39.2634 L 27.3711,38.9453 L 27.2107,38.6044 L 27.0942,38.2461 L 27.0237,37.876
 L 27,37.5 L 27.0237,37.124 L 27.0942,36.7539 L 27.2107,36.3956 L 27.3711,36.0547 L 27.5729,35.7366
 L 27.8131,35.4464 L 28.0877,35.1885 L 28.3925,34.967 L 28.7227,34.7855 L 29.0729,34.6468 L 29.4379,34.5531
 L 29.8116,34.5059 L 30.1884,34.5059 L 30.5621,34.5531 L 30.927,34.6468 L 31.2773,34.7855 L 31.6075,34.967
 L 31.9123,35.1885 L 32.1869,35.4464 L 32.427,35.7366 L 32.6289,36.0547 L 32.7893,36.3956 L 32.9057,36.7539
 L 32.9763,37.124 L 33,37.5 L 32.9763,37.876 L 32.9057,38.2461 L 32.7893,38.6044 L 32.6289,38.9453
 L 32.427,39.2634 L 32.1869,39.5536 L 31.9123,39.8115 L 31.6075,40.033 L 31.2773,40.2145 L 30.927,40.3532
 L 30.5621,40.4469 L 30.1884,40.4941 z
M -75.1884,40.4941 L -75.5621,40.4469 L -75.927,40.3532 L -76.2773,40.2145 L -76.6075,40.033 L -76.9123,39.8115
 L -77.1869,39.5536 L -77.427,39.2634 L -77.6289,38.9453 L -77.7893,38.6044 L -77.9057,38.2461 L -77.9763,37.876
 L -78,37.5 L -77.9763,37.124 L -77.9057,36.7539 L -77.7893,36.3956 L -77.6289,36.0547 L -77.427,35.7366
 L -77.1869,35.4464 L -76.9123,35.1885 L -76.6075,34.967 L -76.2773,34.7855 L -75.927,34.6468 L -75.5621,34.5531
 L -75.1884,34.5059 L -74.8116,34.5059 L -74.4379,34.5531 L -74.073,34.6468 L -73.7227,34.7855 L -73.3925,34.967
 L -73.0877,35.1885 L -72.8131,35.4464 L -72.573,35.7366 L -72.3711,36.0547 L -72.2107,36.3956 L -72.0943,36.7539
 L -72.0237,37.124 L -72,37.5 L -72.0237,37.876 L -72.0943,38.2461 L -72.2107,38.6044 L -72.3711,38.9453
 L -72.573,39.2634 L -72.8131,39.5536 L -73.0877,39.8115 L -73.3925,40.033 L -73.7227,40.2145 L -74.073,40.3532
 L -74.4379,40.4469 L -74.8116,40.4941 z
M 104.812,40.4941 L 104.438,40.4469 L 104.073,40.3532 L 103.723,40.2145 L 103.393,40.033 L 103.088,39.8115
 L 102.813,39.5536 L 102.573,39.2634 L 102.371,38.9453 L 102.211,38.6044 L 102.094,38.2461 L 102.024,37.876
 L 102,37.5 L 102.024,37.124 L 102.094,36.7539 L 102.211,36.3956 L 102.371,36.0547 L 102.573,35.7366
 L 102.813,35.4464 L 103.088,35.1885 L 103.393,34.967 L 103.723,34.7855 L 104.073,34.6468 L 104.438,34.5531
 L 104.812,34.5059 L 105.188,34.5059 L 105.562,34.5531 L 105.927,34.6468 L 106.277,34.7855 L 106.607,34.967
 L 106.912,35.1885 L 107.187,35.4464 L 107.427,35.7366 L 107.629,36.0547 L 107.789,36.3956 L 107.906,36.7539
 L 107.976,37.124 L 108,37.5 L 107.976,37.876 L 107.906,38.2461 L 107.789,38.6044 L 107.629,38.9453
 L 107.427,39.2634 L 107.187,39.5536 L 106.912,39.8115 L 106.607,40.033 L 106.277,40.2145 L 105.927,40.3532
 L 105.562,40.4469 L 105.188,40.4941 z
M 89.8116,40.4941 L 89.4379,40.4469 L 89.073,40.3532 L 88.7227,40.2145 L 88.3925,40.033 L 88.0877,39.8115
 L 87.8131,39.5536 L 87.573,39.2634 L 87.3711,38.9453 L 87.2107,38.6044 L 87.0943,38.2461 L 87.0237,37.876
 L 87,37.5 L 87.0237,37.124 L 87.0943,36.7539 L 87.2107,36.3956 L 87.3711,36.0547 L 87.573,35.7366
 L 87.8131,35.4464 L 88.0877,35.1885 L 88.3925,34.967 L 88.7227,34.7855 L 89.073,34.6468 L 89.4379,34.5531
 L 89.8116,34.5059 L 90.1884,34.5059 L 90.5621,34.5531 L 90.927,34.6468 L 91.2773,34.7855 L 91.6075,34.967
 L 91.9123,35.1885 L 92.1869,35.4464 L 92.427,35.7366 L 92.6289,36.0547 L 92.7893,36.3956 L 92.9057,36.7539
 L 92.9763,37.124 L 93,37.5 L 92.9763,37.876 L 92.9057,38.2461 L 92.7893,38.6044 L 92.6289,38.9453
 L 92.427,39.2634 L 92.1869,39.5536 L 91.9123,39.8115 L 91.6075,40.033 L 91.2773,40.2145 L 90.927,40.3532
 L 90.5621,40.4469 L 90.1884,40.4941 z
M 67.4058,38.997 L 67.2189,38.9734 L 67.0365,38.9266 L 66.8613,38.8572 L 66.6963,38.7665 L 66.5439,38.6558
 L 66.4065,38.5268 L 66.2865,38.3817 L 66.1855,38.2226 L 66.1053,38.0522 L 66.0471,37.873 L 66.0118,37.688
 L 66,37.5 L 66.0118,37.312 L 66.0471,37.127 L 66.1053,36.9478 L 66.1855,36.7774 L 66.2865,36.6183
 L 66.4065,36.4732 L 66.5439,36.3442 L 66.6963,36.2335 L 66.8613,36.1428 L 67.0365,36.0734 L 67.2189,36.0266
 L 67.4058,36.003 L 67.5942,36.003 L 67.7811,36.0266 L 67.9635,36.0734 L 68.1387,36.1428 L 68.3037,36.2335
 L 68.4561,36.3442 L 68.5934,36.4732 L 68.7135,36.6183 L 68.8145,36.7774 L 68.8947,36.9478 L 68.9529,37.127
 L 68.9882,37.312 L 69,37.5 L 68.9882,37.688 L 68.9529,37.873 L 68.8947,38.0522 L 68.8145,38.2226
 L 68.7135,38.3817 L 68.5934,38.5268 L 68.4561,38.6558 L 68.3037,38.7665 L 68.1387,38.8572 L 67.9635,38.9266
 L 67.7811,38.9734 L 67.5942,38.997 z
M 82.4058,38.997 L 82.2189,38.9734 L 82.0365,38.9266 L 81.8613,38.8572 L 81.6963,38.7665 L 81.5439,38.6558
 L 81.4065,38.5268 L 81.2865,38.3817 L 81.1855,38.2226 L 81.1053,38.0522 L 81.0471,37.873 L 81.0118,37.688
 L 81,37.5 L 81.0118,37.312 L 81.0471,37.127 L 81.1053,36.9478 L 81.1855,36.7774 L 81.2865,36.6183
 L 81.4065,36.4732 L 81.5439,36.3442 L 81.6963,36.2335 L 81.8613,36.1428 L 82.0365,36.0734 L 82.2189,36.0266
 L 82.4058,36.003 L 82.5942,36.003 L 82.7811,36.0266 L 82.9635,36.0734 L 83.1387,36.1428 L 83.3037,36.2335
 L 83.4561,36.3442 L 83.5934,36.4732 L 83.7135,36.6183 L 83.8145,36.7774 L 83.8947,36.9478 L 83.9529,37.127
 L 83.9882,37.312 L 84,37.5 L 83.9882,37.688 L 83.9529,37.873 L 83.8947,38.0522 L 83.8145,38.2226
 L 83.7135,38.3817 L 83.5934,38.5268 L 83.4561,38.6558 L 83.3037,38.7665 L 83.1387,38.8572 L 82.9635,38.9266
 L 82.7811,38.9734 L 82.5942,38.997 z
M -7.59418,38.997 L -7.78107,38.9734 L -7.96352,38.9266 L -8.13866,38.8572 L -8.30373,38.7665 L -8.45613,38.6558
 L -8.59344,38.5268 L -8.71352,38.3817 L -8.81445,38.2226 L -8.89465,38.0522 L -8.95287,37.873 L -8.98816,37.688
 L -9,37.5 L -8.98816,37.312 L -8.95287,37.127 L -8.89465,36.9478 L -8.81445,36.7774 L -8.71352,36.6183
 L -8.59344,36.4732 L -8.45613,36.3442 L -8.30373,36.2335 L -8.13866,36.1428 L -7.96352,36.0734 L -7.78107,36.0266
 L -7.59418,36.003 L -7.40581,36.003 L -7.21892,36.0266 L -7.03647,36.0734 L -6.86133,36.1428 L -6.69626,36.2335
 L -6.54385,36.3442 L -6.40654,36.4732 L -6.28647,36.6183 L -6.18553,36.7774 L -6.10533,36.9478 L -6.04712,37.127
 L -6.01183,37.312 L -6,37.5 L -6.01183,37.688 L -6.04712,37.873 L -6.10533,38.0522 L -6.18553,38.2226
 L -6.28647,38.3817 L -6.40654,38.5268 L -6.54385,38.6558 L -6.69626,38.7665 L -6.86133,38.8572 L -7.03647,38.9266
 L -7.21892,38.9734 L -7.40581,38.997 z
M 52.4058,38.997 L 52.2189,38.9734 L 52.0365,38.9266 L 51.8613,38.8572 L 51.6963,38.7665 L 51.5439,38.6558
 L 51.4065,38.5268 L 51.2865,38.3817 L 51.1855,38.2226 L 51.1053,38.0522 L 51.0471,37.873 L 51.0118,37.688
 L 51,37.5 L 51.0118,37.312 L 51.0471,37.127 L 51.1053,36.9478 L 51.1855,36.7774 L 51.2865,36.6183
 L 51.4065,36.4732 L 51.5439,36.3442 L 51.6963,36.2335 L 51.8613,36.1428 L 52.0365,36.0734 L 52.2189,36.0266
 L 52.4058,36.003 L 52.5942,36.003 L 52.7811,36.0266 L 52.9635,36.0734 L 53.1387,36.1428 L 53.3037,36.2335
 L 53.4561,36.3442 L 53.5934,36.4732 L 53.7135,36.6183 L 53.8145,36.7774 L 53.8947,36.9478 L 53.9529,37.127
 L 53.9882,37.312 L 54,37.5 L 53.9882,37.688 L 53.9529,37.873 L 53.8947,38.0522 L 53.8145,38.2226
 L 53.7135,38.3817 L 53.5934,38.5268 L 53.4561,38.6558 L 53.3037,38.7665 L 53.1387,38.8572 L 52.9635,38.9266
 L 52.7811,38.9734 L 52.5942,38.997 z
M 37.4058,38.997 L 37.2189,38.9734 L 37.0365,38.9266 L 36.8613,38.8572 L 36.6963,38.7665 L 36.5439,38.6558
 L 36.4065,38.5268 L 36.2865,38.3817 L 36.1855,38.2226 L 36.1053,38.0522 L 36.0471,37.873 L 36.0118,37.688
 L 36,37.5 L 36.0118,37.312 L 36.0471,37.127 L 36.1053,36.9478 L 36.1855,36.7774 L 36.2865,36.6183
 L 36.4065,36.4732 L 36.5439,36.3442 L 36.6963,36.2335 L 36.8613,36.1428 L 37.0365,36.0734 L 37.2189,36.0266
 L 37.4058,36.003 L 37.5942,36.003 L 37.7811,36.0266 L 37.9635,36.0734 L 38.1387,36.1428 L 38.3037,36.2335
 L 38.4561,36.3442 L 38.5934,36.4732 L 38.7135,36.6183 L 38.8145,36.7774 L 38.8947,36.9478 L 38.9529,37.127
 L 38.9882,37.312 L 39,37.5 L 38.9882,37.688 L 38.9529,37.873 L 38.8947,38.0522 L 38.8145,38.2226
 L 38.7135,38.3817 L 38.5934,38.5268 L 38.4561,38.6558 L 38.3037,38.7665 L 38.1387,38.8572 L 37.9635,38.9266
 L 37.7811,38.9734 L 37.5942,38.997 z
M 7.40581,38.997 L 7.21892,38.9734 L 7.03647,38.9266 L 6.86133,38.8572 L 6.69626,38.7665 L 6.54385,38.6558
 L 6.40654,38.5268 L 6.28647,38.3817 L 6.18553,38.2226 L 6.10533,38.0522 L 6.04712,37.873 L 6.01183,37.688
 L 6,37.5 L 6.01183,37.312 L 6.04712,37.127 L 6.10533,36.9478 L 6.18553,36.7774 L 6.28647,36.6183
 L 6.40654,36.4732 L 6.54385,36.3442 L 6.69626,36.2335 L 6.86133,36.1428 L 7.03647,36.0734 L 7.21892,36.0266
 L 7.40581,36.003 L 7.59418,36.003 L 7.78107,36.0266 L 7.96352,36.0734 L 8.13866,36.1428 L 8.30373,36.2335
 L 8.45613,36.3442 L 8.59344,36.4732 L 8.71352,36.6183 L 8.81445,36.7774 L 8.89465,36.9478 L 8.95287,37.127
 L 8.98816,37.312 L 9,37.5 L 8.98816,37.688 L 8.95287,37.873 L 8.89465,38.0522 L 8.81445,38.2226
 L 8.71352,38.3817 L 8.59344,38.5268 L 8.45613,38.6558 L 8.30373,38.7665 L 8.13866,38.8572 L 7.96352,38.9266
 L 7.78107,38.9734 L 7.59418,38.997 z
M 22.4058,38.997 L 22.2189,38.9734 L 22.0365,38.9266 L 21.8613,38.8572 L 21.6963,38.7665 L 21.5439,38.6558
 L 21.4065,38.5268 L 21.2865,38.3817 L 21.1855,38.2226 L 21.1053,38.0522 L 21.0471,37.873 L 21.0118,37.688
 L 21,37.5 L 21.0118,37.312 L 21.0471,37.127 L 21.1053,36.9478 L 21.1855,36.7774 L 21.2865,36.6183
 L 21.4065,36.4732 L 21.5439,36.3442 L 21.6963,36.2335 L 21.8613,36.1428 L 22.0365,36.0734 L 22.2189,36.0266
 L 22.4058,36.003 L 22.5942,36.003 L 22.7811,36.0266 L 22.9635,36.0734 L 23.1387,36.1428 L 23.3037,36.2335
 L 23.4561,36.3442 L 23.5934,36.4732 L 23.7135,36.6183 L 23.8145,36.7774 L 23.8947,36.9478 L 23.9529,37.127
 L 23.9882,37.312 L 24,37.5 L 23.9882,37.688 L 23.9529,37.873 L 23.8947,38.0522 L 23.8145,38.2226
 L 23.7135,38.3817 L 23.5934,38.5268 L 23.4561,38.6558 L 23.3037,38.7665 L 23.1387,38.8572 L 22.9635,38.9266
 L 22.7811,38.9734 L 22.5942,38.997 z
M -67.5942,38.997 L -67.7811,38.9734 L -67.9635,38.9266 L -68.1387,38.8572 L -68.3037,38.7665 L -68.4561,38.6558
 L -68.5934,38.5268 L -68.7135,38.3817 L -68.8145,38.2226 L -68.8947,38.0522 L -68.9529,37.873 L -68.9882,37.688
 L -69,37.5 L -68.9882,37.312 L -68.9529,37.127 L -68.8947,36.9478 L -68.8145,36.7774 L -68.7135,36.6183
 L -68.5934,36.4732 L -68.4561,36.3442 L -68.3037,36.2335 L -68.1387,36.1428 L -67.9635,36.0734 L -67.7811,36.0266
 L -67.5942,36.003 L -67.4058,36.003 L -67.2189,36.0266 L -67.0365,36.0734 L -66.8613,36.1428 L -66.6963,36.2335
 L -66.5439,36.3442 L -66.4065,36.4732 L -66.2865,36.6183 L -66.1855,36.7774 L -66.1053,36.9478 L -66.0471,37.127
 L -66.0118,37.312 L -66,37.5 L -66.0118,37.688 L -66.0471,37.873 L -66.1053,38.0522 L -66.1855,38.2226
 L -66.2865,38.3817 L -66.4065,38.5268 L -66.5439,38.6558 L -66.6963,38.7665 L -66.8613,38.8572 L -67.0365,38.9266
 L -67.2189,38.9734 L -67.4058,38.997 z
M -37.5942,38.997 L -37.7811,38.9734 L -37.9635,38.9266 L -38.1387,38.8572 L -38.3037,38.7665 L -38.4561,38.6558
 L -38.5934,38.5268 L -38.7135,38.3817 L -38.8145,38.2226 L -38.8947,38.0522 L -38.9529,37.873 L -38.9882,37.688
 L -39,37.5 L -38.9882,37.312 L -38.9529,37.127 L -38.8947,36.9478 L -38.8145,36.7774 L -38.7135,36.6183
 L -38.5934,36.4732 L -38.4561,36.3442 L -38.3037,36.2335 L -38.1387,36.1428 L -37.9635,36.0734 L -37.7811,36.0266
 L -37.5942,36.003 L -37.4058,36.003 L -37.2189,36.0266 L -37.0365,36.0734 L -36.8613,36.1428 L -36.6963,36.2335
 L -36.5439,36.3442 L -36.4065,36.4732 L -36.2865,36.6183 L -36.1855,36.7774 L -36.1053,36.9478 L -36.0471,37.127
 L -36.0118,37.312 L -36,37.5 L -36.0118,37.688 L -36.0471,37.873 L -36.1053,38.0522 L -36.1855,38.2226
 L -36.2865,38.3817 L -36.4065,38.5268 L -36.5439,38.6558 L -36.6963,38.7665 L -36.8613,38.8572 L -37.0365,38.9266
 L -37.2189,38.9734 L -37.4058,38.997 z
M -97.5942,38.997 L -97.7811,38.9734 L -97.9635,38.9266 L -98.1387,38.8572 L -98.3037,38.7665 L -98.4561,38.6558
 L -98.5934,38.5268 L -98.7135,38.3817 L -98.8145,38.2226 L -98.8947,38.0522 L -98.9529,37.873 L -98.9882,37.688
 L -99,37.5 L -98.9882,37.312 L -98.9529,37.127 L -98.8947,36.9478 L -98.8145,36.7774 L -98.7135,36.6183
 L -98.5934,36.4732 L -98.4561,36.3442 L -98.3037,36.2335 L -98.1387,36.1428 L -97.9635,36.0734 L -97.7811,36.0266
 L -97.5942,36.003 L -97.4058,36.003 L -97.2189,36.0266 L -97.0365,36.0734 L -96.8613,36.1428 L -96.6963,36.2335
 L -96.5439,36.3442 L -96.4065,36.4732 L -96.2865,36.6183 L -96.1855,36.7774 L -96.1053,36.9478 L -96.0471,37.127
 L -96.0118,37.312 L -96,37.5 L -96.0118,37.688 L -96.0471,37.873 L -96.1053,38.0522 L -96.1855,38.2226
 L -96.2865,38.3817 L -96.4065,38.5268 L -96.5439,38.6558 L -96.6963,38.7665 L -96.8613,38.8572 L -97.0365,38.9266
 L -97.2189,38.9734 L -97.4058,38.997 z
M -82.5942,38.997 L -82.7811,38.9734 L -82.9635,38.9266 L -83.1387,38.8572 L -83.3037,38.7665 L -83.4561,38.6558
 L -83.5934,38.5268 L -83.7135,38.3817 L -83.8145,38.2226 L -83.8947,38.0522 L -83.9529,37.873 L -83.9882,37.688
 L -84,37.5 L -83.9882,37.312 L -83.9529,37.127 L -83.8947,36.9478 L -83.8145,36.7774 L -83.7135,36.6183
 L -83.5934,36.4732 L -83.4561,36.3442 L -83.3037,36.2335 L -83.1387,36.1428 L -82.9635,36.0734 L -82.7811,36.0266
 L -82.5942,36.003 L -82.4058,36.003 L -82.2189,36.0266 L -82.0365,36.0734 L -81.8613,36.1428 L -81.6963,36.2335
 L -81.5439,36.3442 L -81.4065,36.4732 L -81.2865,36.6183 L -81.1855,36.7774 L -81.1053,36.9478 L -81.0471,37.127
 L -81.0118,37.312 L -81,37.5 L -81.0118,37.688 L -81.0471,37.873 L -81.1053,38.0522 L -81.1855,38.2226
 L -81.2865,38.3817 L -81.4065,38.5268 L -81.5439,38.6558 L -81.6963,38.7665 L -81.8613,38.8572 L -82.0365,38.9266
 L -82.2189,38.9734 L -82.4058,38.997 z
M 97.4058,38.997 L 97.2189,38.9734 L 97.0365,38.9266 L 96.8613,38.8572 L 96.6963,38.7665 L 96.5439,38.6558
 L 96.4065,38.5268 L 96.2865,38.3817 L 96.1855,38.2226 L 96.1053,38.0522 L 96.0471,37.873 L 96.0118,37.688
 L 96,37.5 L 96.0118,37.312 L 96.0471,37.127 L 96.1053,36.9478 L 96.1855,36.7774 L 96.2865,36.6183
 L 96.4065,36.4732 L 96.5439,36.3442 L 96.6963,36.2335 L 96.8613,36.1428 L 97.0365,36.0734 L 97.2189,36.0266
 L 97.4058,36.003 L 97.5942,36.003 L 97.7811,36.0266 L 97.9635,36.0734 L 98.1387,36.1428 L 98.3037,36.2335
 L 98.4561,36.3442 L 98.5934,36.4732 L 98.7135,36.6183 L 98.8145,36.7774 L 98.8947,36.9478 L 98.9529,37.127
 L 98.9882,37.312 L 99,37.5 L 98.9882,37.688 L 98.9529,37.873 L 98.8947,38.0522 L 98.8145,38.2226
 L 98.7135,38.3817 L 98.5934,38.5268 L 98.4561,38.6558 L 98.3037,38.7665 L 98.1387,38.8572 L 97.9635,38.9266
 L 97.7811,38.9734 L 97.5942,38.997 z
M -22.5942,38.997 L -22.7811,38.9734 L -22.9635,38.9266 L -23.1387,38.8572 L -23.3037,38.7665 L -23.4561,38.6558
 L -23.5934,38.5268 L -23.7135,38.3817 L -23.8145,38.2226 L -23.8947,38.0522 L -23.9529,37.873 L -23.9882,37.688
 L -24,37.5 L -23.9882,37.312 L -23.9529,37.127 L -23.8947,36.9478 L -23.8145,36.7774 L -23.7135,36.6183
 L -23.5934,36.4732 L -23.4561,36.3442 L -23.3037,36.2335 L -23.1387,36.1428 L -22.9635,36.0734 L -22.7811,36.0266
 L -22.5942,36.003 L -22.4058,36.003 L -22.2189,36.0266 L -22.0365,36.0734 L -21.8613,36.1428 L -21.6963,36.2335
 L -21.5439,36.3442 L -21.4065,36.4732 L -21.2865,36.6183 L -21.1855,36.7774 L -21.1053,36.9478 L -21.0471,37.127
 L -21.0118,37.312 L -21,37.5 L -21.0118,37.688 L -21.0471,37.873 L -21.1053,38.0522 L -21.1855,38.2226
 L -21.2865,38.3817 L -21.4065,38.5268 L -21.5439,38.6558 L -21.6963,38.7665 L -21.8613,38.8572 L -22.0365,38.9266
 L -22.2189,38.9734 L -22.4058,38.997 z
M -52.5942,38.997 L -52.7811,38.9734 L -52.9635,38.9266 L -53.1387,38.8572 L -53.3037,38.7665 L -53.4561,38.6558
 L -53.5934,38.5268 L -53.7135,38.3817 L -53.8145,38.2226 L -53.8947,38.0522 L -53.9529,37.873 L -53.9882,37.688
 L -54,37.5 L -53.9882,37.312 L -53.9529,37.127 L -53.8947,36.9478 L -53.8145,36.7774 L -53.7135,36.6183
 L -53.5934,36.4732 L -53.4561,36.3442 L -53.3037,36.2335 L -53.1387,36.1428 L -52.9635,36.0734 L -52.7811,36.0266
 L -52.5942,36.003 L -52.4058,36.003 L -52.2189,36.0266 L -52.0365,36.0734 L -51.8613,36.1428 L -51.6963,36.2335
 L -51.5439,36.3442 L -51.4065,36.4732 L -51.2865,36.6183 L -51.1855,36.7774 L -51.1053,36.9478 L -51.0471,37.127
 L -51.0118,37.312 L -51,37.5 L -51.0118,37.688 L -51.0471,37.873 L -51.1053,38.0522 L -51.1855,38.2226
 L -51.2865,38.3817 L -51.4065,38.5268 L -51.5439,38.6558 L -51.6963,38.7665 L -51.8613,38.8572 L -52.0365,38.9266
 L -52.2189,38.9734 L -52.4058,38.997 z
" stroke="black" fill="lightgray" stroke-width="0.5"/>
</svg>
