<?xml version="1.0" standalone="no"?>
<!DOCTYPE svg PUBLIC "-//W3C//DTD SVG 1.1//EN" "http://www.w3.org/Graphics/SVG/1.1/DTD/svg11.dtd">
<svg width="254mm" height="134mm" viewBox="-127 -67 254 134" xmlns="http://www.w3.org/2000/svg" version="1.1">
<title>OpenSCAD Model</title>
<path d="
M 122.937,66.9114 L 123.545,66.7553 L 124.129,66.5241 L 124.679,66.2216 L 125.187,65.8526 L 125.645,65.4227
 L 126.045,64.9389 L 126.382,64.4088 L 126.649,63.8406 L 126.843,63.2434 L 126.961,62.6267 L 127,62
 L 127,-62 L 126.961,-62.6267 L 126.843,-63.2434 L 126.649,-63.8406 L 126.382,-64.4088 L 126.045,-64.9389
 L 125.645,-65.4227 L 125.187,-65.8526 L 124.679,-66.2216 L 124.129,-66.5241 L 123.545,-66.7553 L 122.937,-66.9114
 L 122.314,-66.9901 L -122.314,-66.9901 L -122.937,-66.9114 L -123.545,-66.7553 L -124.129,-66.5241 L -124.679,-66.2216
 L -125.187,-65.8526 L -125.645,-65.4227 L -126.045,-64.9389 L -126.382,-64.4088 L -126.649,-63.8406 L -126.843,-63.2434
 L -126.961,-62.6267 L -127,-62 L -127,62 L -126.961,62.6267 L -126.843,63.2434 L -126.649,63.8406
 L -126.382,64.4088 L -126.045,64.9389 L -125.645,65.4227 L -125.187,65.8526 L -124.679,66.2216 L -124.129,66.5241
 L -123.545,66.7553 L -122.937,66.9114 L -122.314,66.9901 L 122.314,66.9901 z
M -120.188,-57.0059 L -120.562,-57.0531 L -120.927,-57.1468 L -121.277,-57.2855 L -121.607,-57.467 L -121.912,-57.6885
 L -122.187,-57.9464 L -122.427,-58.2366 L -122.629,-58.5547 L -122.789,-58.8956 L -122.906,-59.2539 L -122.976,-59.624
 L -123,-60 L -122.976,-60.376 L -122.906,-60.7461 L -122.789,-61.1044 L -122.629,-61.4453 L -122.427,-61.7634
 L -122.187,-62.0536 L -121.912,-62.3115 L -121.607,-62.533 L -121.277,-62.7145 L -120.927,-62.8532 L -120.562,-62.9469
 L -120.188,-62.9941 L -119.812,-62.9941 L -119.438,-62.9469 L -119.073,-62.8532 L -118.723,-62.7145 L -118.393,-62.533
 L -118.088,-62.3115 L -117.813,-62.0536 L -117.573,-61.7634 L -117.371,-61.4453 L -117.211,-61.1044 L -117.094,-60.7461
 L -117.024,-60.376 L -117,-60 L -117.024,-59.624 L -117.094,-59.2539 L -117.211,-58.8956 L -117.371,-58.5547
 L -117.573,-58.2366 L -117.813,-57.9464 L -118.088,-57.6885 L -118.393,-57.467 L -118.723,-57.2855 L -119.073,-57.1468
 L -119.438,-57.0531 L -119.812,-57.0059 z
M 119.812,-57.0059 L 119.438,-57.0531 L 119.073,-57.1468 L 118.723,-57.2855 L 118.393,-57.467 L 118.088,-57.6885
 L 117.813,-57.9464 L 117.573,-58.2366 L 117.371,-58.5547 L 117.211,-58.8956 L 117.094,-59.2539 L 117.024,-59.624
 L 117,-60 L 117.024,-60.376 L 117.094,-60.7461 L 117.211,-61.1044 L 117.371,-61.4453 L 117.573,-61.7634
 L 117.813,-62.0536 L 118.088,-62.3115 L 118.393,-62.533 L 118.723,-62.7145 L 119.073,-62.8532 L 119.438,-62.9469
 L 119.812,-62.9941 L 120.188,-62.9941 L 120.562,-62.9469 L 120.927,-62.8532 L 121.277,-62.7145 L 121.607,-62.533
 L 121.912,-62.3115 L 122.187,-62.0536 L 122.427,-61.7634 L 122.629,-61.4453 L 122.789,-61.1044 L 122.906,-60.7461
 L 122.976,-60.376 L 123,-60 L 122.976,-59.624 L 122.906,-59.2539 L 122.789,-58.8956 L 122.629,-58.5547
 L 122.427,-58.2366 L 122.187,-57.9464 L 121.912,-57.6885 L 121.607,-57.467 L 121.277,-57.2855 L 120.927,-57.1468
 L 120.562,-57.0531 L 120.188,-57.0059 z
M 58.7326,59.8816 L 51.2571,58.9372 L 43.959,57.0634 L 36.9532,54.2896 L 30.3504,50.6597 L 24.2545,46.2308
 L 18.7619,41.0728 L 13.959,35.2671 L 9.92159,28.9052 L 6.71341,22.0875 L 4.38501,14.9214 L 2.97311,7.51999
 L 2.5,-0 L 2.97311,-7.51999 L 4.38501,-14.9214 L 6.71341,-22.0875 L 9.92159,-28.9052 L 13.959,-35.2671
 L 18.7619,-41.0728 L 24.2545,-46.2308 L 30.3504,-50.6597 L 36.9532,-54.2896 L 43.959,-57.0634 L 51.2571,-58.9372
 L 58.7326,-59.8816 L 66.2674,-59.8816 L 73.7429,-58.9372 L 81.041,-57.0634 L 88.0468,-54.2896 L 94.6496,-50.6597
 L 100.745,-46.2308 L 106.238,-41.0728 L 111.041,-35.2671 L 115.078,-28.9052 L 118.287,-22.0875 L 120.615,-14.9214
 L 122.027,-7.51999 L 122.5,-0 L 122.027,7.51999 L 120.615,14.9214 L 118.287,22.0875 L 115.078,28.9052
 L 111.041,35.2671 L 106.238,41.0728 L 100.745,46.2308 L 94.6496,50.6597 L 88.0468,54.2896 L 81.041,57.0634
 L 73.7429,58.9372 L 66.2674,59.8816 z
M -66.2674,59.8816 L -73.7429,58.9372 L -81.041,57.0634 L -88.0468,54.2896 L -94.6496,50.6597 L -100.745,46.2308
 L -106.238,41.0728 L -111.041,35.2671 L -115.078,28.9052 L -118.287,22.0875 L -120.615,14.9214 L -122.027,7.51999
 L -122.5,-0 L -122.027,-7.51999 L -120.615,-14.9214 L -118.287,-22.0875 L -115.078,-28.9052 L -111.041,-35.2671
 L -106.238,-41.0728 L -100.745,-46.2308 L -94.6496,-50.6597 L -88.0468,-54.2896 L -81.041,-57.0634 L -73.7429,-58.9372
 L -66.2674,-59.8816 L -58.7326,-59.8816 L -51.2571,-58.9372 L -43.959,-57.0634 L -36.9532,-54.2896 L -30.3504,-50.6597
 L -24.2545,-46.2308 L -18.7619,-41.0728 L -13.959,-35.2671 L -9.92159,-28.9052 L -6.71341,-22.0875 L -4.38501,-14.9214
 L -2.97311,-7.51999 L -2.5,-0 L -2.97311,7.51999 L -4.38501,14.9214 L -6.71341,22.0875 L -9.92159,28.9052
 L -13.959,35.2671 L -18.7619,41.0728 L -24.2545,46.2308 L -30.3504,50.6597 L -36.9532,54.2896 L -43.959,57.0634
 L -51.2571,58.9372 L -58.7326,59.8816 z
M -120.188,62.9941 L -120.562,62.9469 L -120.927,62.8532 L -121.277,62.7145 L -121.607,62.533 L -121.912,62.3115
 L -122.187,62.0536 L -122.427,61.7634 L -122.629,61.4453 L -122.789,61.1044 L -122.906,60.7461 L -122.976,60.376
 L -123,60 L -122.976,59.624 L -122.906,59.2539 L -122.789,58.8956 L -122.629,58.5547 L -122.427,58.2366
 L -122.187,57.9464 L -121.912,57.6885 L -121.607,57.467 L -121.277,57.2855 L -120.927,57.1468 L -120.562,57.0531
 L -120.188,57.0059 L -119.812,57.0059 L -119.438,57.0531 L -119.073,57.1468 L -118.723,57.2855 L -118.393,57.467
 L -118.088,57.6885 L -117.813,57.9464 L -117.573,58.2366 L -117.371,58.5547 L -117.211,58.8956 L -117.094,59.2539
 L -117.024,59.624 L -117,60 L -117.024,60.376 L -117.094,60.7461 L -117.211,61.1044 L -117.371,61.4453
 L -117.573,61.7634 L -117.813,62.0536 L -118.088,62.3115 L -118.393,62.533 L -118.723,62.7145 L -119.073,62.8532
 L -119.438,62.9469 L -119.812,62.9941 z
M 119.812,62.9941 L 119.438,62.9469 L 119.073,62.8532 L 118.723,62.7145 L 118.393,62.533 L 118.088,62.3115
 L 117.813,62.0536 L 117.573,61.7634 L 117.371,61.4453 L 117.211,61.1044 L 117.094,60.7461 L 117.024,60.376
 L 117,60 L 117.024,59.624 L 117.094,59.2539 L 117.211,58.8956 L 117.371,58.5547 L 117.573,58.2366
 L 117.813,57.9464 L 118.088,57.6885 L 118.393,57.467 L 118.723,57.2855 L 119.073,57.1468 L 119.438,57.0531
 L 119.812,57.0059 L 120.188,57.0059 L 120.562,57.0531 L 120.927,57.1468 L 121.277,57.2855 L 121.607,57.467
 L 121.912,57.6885 L 122.187,57.9464 L 122.427,58.2366 L 122.629,58.5547 L 122.789,58.8956 L 122.906,59.2539
 L 122.976,59.624 L 123,60 L 122.976,60.376 L 122.906,60.7461 L 122.789,61.1044 L 122.629,61.4453
 L 122.427,61.7634 L 122.187,62.0536 L 121.912,62.3115 L 121.607,62.533 L 121.277,62.7145 L 120.927,62.8532
 L 120.562,62.9469 L 120.188,62.9941 z
" stroke="black" fill="lightgray" stroke-width="0.5"/>
</svg>
