<?xml version="1.0" standalone="no"?>
<!DOCTYPE svg PUBLIC "-//W3C//DTD SVG 1.1//EN" "http://www.w3.org/Graphics/SVG/1.1/DTD/svg11.dtd">
<svg width="120mm" height="60mm" viewBox="-60 -30 120 60" xmlns="http://www.w3.org/2000/svg" version="1.1">
<title>OpenSCAD Model</title>
<path d="
M 55.4369,29.4114 L 56.0451,29.2553 L 56.6289,29.0241 L 57.1791,28.7216 L 57.6871,28.3526 L 58.1448,27.9227
 L 58.5451,27.4389 L 58.8815,26.9088 L 59.1489,26.3406 L 59.3429,25.7434 L 59.4606,25.1267 L 59.5,24.5
 L 59.5,-24.5 L 59.4606,-25.1267 L 59.3429,-25.7434 L 59.1489,-26.3406 L 58.8815,-26.9088 L 58.5451,-27.4389
 L 58.1448,-27.9227 L 57.6871,-28.3526 L 57.1791,-28.7216 L 56.6289,-29.0241 L 56.0451,-29.2553 L 55.4369,-29.4114
 L 54.8139,-29.4901 L -54.8139,-29.4901 L -55.4369,-29.4114 L -56.0451,-29.2553 L -56.6289,-29.0241 L -57.1791,-28.7216
 L -57.6871,-28.3526 L -58.1448,-27.9227 L -58.5451,-27.4389 L -58.8815,-26.9088 L -59.1489,-26.3406 L -59.3429,-25.7434
 L -59.4606,-25.1267 L -59.5,-24.5 L -59.5,24.5 L -59.4606,25.1267 L -59.3429,25.7434 L -59.1489,26.3406
 L -58.8815,26.9088 L -58.5451,27.4389 L -58.1448,27.9227 L -57.6871,28.3526 L -57.1791,28.7216 L -56.6289,29.0241
 L -56.0451,29.2553 L -55.4369,29.4114 L -54.8139,29.4901 L 54.8139,29.4901 z
M -52.6884,-19.5059 L -53.0621,-19.5531 L -53.427,-19.6468 L -53.7773,-19.7855 L -54.1075,-19.967 L -54.4123,-20.1884
 L -54.6869,-20.4464 L -54.927,-20.7366 L -55.1289,-21.0547 L -55.2893,-21.3956 L -55.4057,-21.7539 L -55.4763,-22.124
 L -55.5,-22.5 L -55.4763,-22.876 L -55.4057,-23.2461 L -55.2893,-23.6044 L -55.1289,-23.9453 L -54.927,-24.2634
 L -54.6869,-24.5536 L -54.4123,-24.8115 L -54.1075,-25.033 L -53.7773,-25.2145 L -53.427,-25.3532 L -53.0621,-25.4469
 L -52.6884,-25.4941 L -52.3116,-25.4941 L -51.9379,-25.4469 L -51.5729,-25.3532 L -51.2227,-25.2145 L -50.8925,-25.033
 L -50.5877,-24.8115 L -50.3131,-24.5536 L -50.0729,-24.2634 L -49.8711,-23.9453 L -49.7107,-23.6044 L -49.5942,-23.2461
 L -49.5237,-22.876 L -49.5,-22.5 L -49.5237,-22.124 L -49.5942,-21.7539 L -49.7107,-21.3956 L -49.8711,-21.0547
 L -50.0729,-20.7366 L -50.3131,-20.4464 L -50.5877,-20.1884 L -50.8925,-19.967 L -51.2227,-19.7855 L -51.5729,-19.6468
 L -51.9379,-19.5531 L -52.3116,-19.5059 z
M 52.3116,-19.5059 L 51.9379,-19.5531 L 51.5729,-19.6468 L 51.2227,-19.7855 L 50.8925,-19.967 L 50.5877,-20.1884
 L 50.3131,-20.4464 L 50.0729,-20.7366 L 49.8711,-21.0547 L 49.7107,-21.3956 L 49.5942,-21.7539 L 49.5237,-22.124
 L 49.5,-22.5 L 49.5237,-22.876 L 49.5942,-23.2461 L 49.7107,-23.6044 L 49.8711,-23.9453 L 50.0729,-24.2634
 L 50.3131,-24.5536 L 50.5877,-24.8115 L 50.8925,-25.033 L 51.2227,-25.2145 L 51.5729,-25.3532 L 51.9379,-25.4469
 L 52.3116,-25.4941 L 52.6884,-25.4941 L 53.0621,-25.4469 L 53.427,-25.3532 L 53.7773,-25.2145 L 54.1075,-25.033
 L 54.4123,-24.8115 L 54.6869,-24.5536 L 54.927,-24.2634 L 55.1289,-23.9453 L 55.2893,-23.6044 L 55.4057,-23.2461
 L 55.4763,-22.876 L 55.5,-22.5 L 55.4763,-22.124 L 55.4057,-21.7539 L 55.2893,-21.3956 L 55.1289,-21.0547
 L 54.927,-20.7366 L 54.6869,-20.4464 L 54.4123,-20.1884 L 54.1075,-19.967 L 53.7773,-19.7855 L 53.427,-19.6468
 L 53.0621,-19.5531 L 52.6884,-19.5059 z
M -24.2872,20.4595 L -26.8413,20.1369 L -29.3348,19.4967 L -31.7285,18.549 L -33.9844,17.3087 L -36.0672,15.7955
 L -37.9438,14.0332 L -39.5848,12.0496 L -40.9643,9.87595 L -42.0604,7.54654 L -42.8559,5.09813 L -43.3383,2.56932
 L -43.5,-0 L -43.3383,-2.56932 L -42.8559,-5.09813 L -42.0604,-7.54654 L -40.9643,-9.87595 L -39.5848,-12.0496
 L -37.9438,-14.0332 L -36.0672,-15.7955 L -33.9844,-17.3087 L -31.7285,-18.549 L -29.3348,-19.4967 L -26.8413,-20.1369
 L -24.2872,-20.4595 L -21.7128,-20.4595 L -19.1587,-20.1369 L -16.6651,-19.4967 L -14.2715,-18.549 L -12.0155,-17.3087
 L -9.9328,-15.7955 L -8.05614,-14.0332 L -6.41515,-12.0496 L -5.03571,-9.87595 L -3.93958,-7.54654 L -3.14404,-5.09813
 L -2.66164,-2.56932 L -2.5,-0 L -2.66164,2.56932 L -3.14404,5.09813 L -3.93958,7.54654 L -5.03571,9.87595
 L -6.41515,12.0496 L -8.05614,14.0332 L -9.9328,15.7955 L -12.0155,17.3087 L -14.2715,18.549 L -16.6651,19.4967
 L -19.1587,20.1369 L -21.7128,20.4595 z
M 21.7128,20.4595 L 19.1587,20.1369 L 16.6651,19.4967 L 14.2715,18.549 L 12.0155,17.3087 L 9.9328,15.7955
 L 8.05614,14.0332 L 6.41515,12.0496 L 5.03571,9.87595 L 3.93958,7.54654 L 3.14404,5.09813 L 2.66164,2.56932
 L 2.5,-0 L 2.66164,-2.56932 L 3.14404,-5.09813 L 3.93958,-7.54654 L 5.03571,-9.87595 L 6.41515,-12.0496
 L 8.05614,-14.0332 L 9.9328,-15.7955 L 12.0155,-17.3087 L 14.2715,-18.549 L 16.6651,-19.4967 L 19.1587,-20.1369
 L 21.7128,-20.4595 L 24.2872,-20.4595 L 26.8413,-20.1369 L 29.3348,-19.4967 L 31.7285,-18.549 L 33.9844,-17.3087
 L 36.0672,-15.7955 L 37.9438,-14.0332 L 39.5848,-12.0496 L 40.9643,-9.87595 L 42.0604,-7.54654 L 42.8559,-5.09813
 L 43.3383,-2.56932 L 43.5,-0 L 43.3383,2.56932 L 42.8559,5.09813 L 42.0604,7.54654 L 40.9643,9.87595
 L 39.5848,12.0496 L 37.9438,14.0332 L 36.0672,15.7955 L 33.9844,17.3087 L 31.7285,18.549 L 29.3348,19.4967
 L 26.8413,20.1369 L 24.2872,20.4595 z
M 52.4058,-13.5029 L 52.2189,-13.5266 L 52.0365,-13.5734 L 51.8613,-13.6427 L 51.6963,-13.7335 L 51.5439,-13.8442
 L 51.4065,-13.9732 L 51.2865,-14.1183 L 51.1855,-14.2774 L 51.1053,-14.4478 L 51.0471,-14.627 L 51.0118,-14.812
 L 51,-15 L 51.0118,-15.188 L 51.0471,-15.373 L 51.1053,-15.5522 L 51.1855,-15.7226 L 51.2865,-15.8817
 L 51.4065,-16.0268 L 51.5439,-16.1558 L 51.6963,-16.2665 L 51.8613,-16.3572 L 52.0365,-16.4266 L 52.2189,-16.4734
 L 52.4058,-16.497 L 52.5942,-16.497 L 52.7811,-16.4734 L 52.9635,-16.4266 L 53.1387,-16.3572 L 53.3037,-16.2665
 L 53.4561,-16.1558 L 53.5934,-16.0268 L 53.7135,-15.8817 L 53.8145,-15.7226 L 53.8947,-15.5522 L 53.9529,-15.373
 L 53.9882,-15.188 L 54,-15 L 53.9882,-14.812 L 53.9529,-14.627 L 53.8947,-14.4478 L 53.8145,-14.2774
 L 53.7135,-14.1183 L 53.5934,-13.9732 L 53.4561,-13.8442 L 53.3037,-13.7335 L 53.1387,-13.6427 L 52.9635,-13.5734
 L 52.7811,-13.5266 L 52.5942,-13.5029 z
M -52.5942,-13.5029 L -52.7811,-13.5266 L -52.9635,-13.5734 L -53.1387,-13.6427 L -53.3037,-13.7335 L -53.4561,-13.8442
 L -53.5934,-13.9732 L -53.7135,-14.1183 L -53.8145,-14.2774 L -53.8947,-14.4478 L -53.9529,-14.627 L -53.9882,-14.812
 L -54,-15 L -53.9882,-15.188 L -53.9529,-15.373 L -53.8947,-15.5522 L -53.8145,-15.7226 L -53.7135,-15.8817
 L -53.5934,-16.0268 L -53.4561,-16.1558 L -53.3037,-16.2665 L -53.1387,-16.3572 L -52.9635,-16.4266 L -52.7811,-16.4734
 L -52.5942,-16.497 L -52.4058,-16.497 L -52.2189,-16.4734 L -52.0365,-16.4266 L -51.8613,-16.3572 L -51.6963,-16.2665
 L -51.5439,-16.1558 L -51.4065,-16.0268 L -51.2865,-15.8817 L -51.1855,-15.7226 L -51.1053,-15.5522 L -51.0471,-15.373
 L -51.0118,-15.188 L -51,-15 L -51.0118,-14.812 L -51.0471,-14.627 L -51.1053,-14.4478 L -51.1855,-14.2774
 L -51.2865,-14.1183 L -51.4065,-13.9732 L -51.5439,-13.8442 L -51.6963,-13.7335 L -51.8613,-13.6427 L -52.0365,-13.5734
 L -52.2189,-13.5266 L -52.4058,-13.5029 z
M 52.3116,-4.50591 L 51.9379,-4.55313 L 51.5729,-4.64682 L 51.2227,-4.78551 L 50.8925,-4.96701 L 50.5877,-5.18845
 L 50.3131,-5.44635 L 50.0729,-5.73663 L 49.8711,-6.05473 L 49.7107,-6.39561 L 49.5942,-6.75392 L 49.5237,-7.12399
 L 49.5,-7.5 L 49.5237,-7.87599 L 49.5942,-8.24606 L 49.7107,-8.60437 L 49.8711,-8.94525 L 50.0729,-9.26335
 L 50.3131,-9.55363 L 50.5877,-9.81154 L 50.8925,-10.033 L 51.2227,-10.2145 L 51.5729,-10.3532 L 51.9379,-10.4469
 L 52.3116,-10.4941 L 52.6884,-10.4941 L 53.0621,-10.4469 L 53.427,-10.3532 L 53.7773,-10.2145 L 54.1075,-10.033
 L 54.4123,-9.81154 L 54.6869,-9.55363 L 54.927,-9.26335 L 55.1289,-8.94525 L 55.2893,-8.60437 L 55.4057,-8.24606
 L 55.4763,-7.87599 L 55.5,-7.5 L 55.4763,-7.12399 L 55.4057,-6.75392 L 55.2893,-6.39561 L 55.1289,-6.05473
 L 54.927,-5.73663 L 54.6869,-5.44635 L 54.4123,-5.18845 L 54.1075,-4.96701 L 53.7773,-4.78551 L 53.427,-4.64682
 L 53.0621,-4.55313 L 52.6884,-4.50591 z
M -52.6884,-4.50591 L -53.0621,-4.55313 L -53.427,-4.64682 L -53.7773,-4.78551 L -54.1075,-4.96701 L -54.4123,-5.18845
 L -54.6869,-5.44635 L -54.927,-5.73663 L -55.1289,-6.05473 L -55.2893,-6.39561 L -55.4057,-6.75392 L -55.4763,-7.12399
 L -55.5,-7.5 L -55.4763,-7.87599 L -55.4057,-8.24606 L -55.2893,-8.60437 L -55.1289,-8.94525 L -54.927,-9.26335
 L -54.6869,-9.55363 L -54.4123,-9.81154 L -54.1075,-10.033 L -53.7773,-10.2145 L -53.427,-10.3532 L -53.0621,-10.4469
 L -52.6884,-10.4941 L -52.3116,-10.4941 L -51.9379,-10.4469 L -51.5729,-10.3532 L -51.2227,-10.2145 L -50.8925,-10.033
 L -50.5877,-9.81154 L -50.3131,-9.55363 L -50.0729,-9.26335 L -49.8711,-8.94525 L -49.7107,-8.60437 L -49.5942,-8.24606
 L -49.5237,-7.87599 L -49.5,-7.5 L -49.5237,-7.12399 L -49.5942,-6.75392 L -49.7107,-6.39561 L -49.8711,-6.05473
 L -50.0729,-5.73663 L -50.3131,-5.44635 L -50.5877,-5.18845 L -50.8925,-4.96701 L -51.2227,-4.78551 L -51.5729,-4.64682
 L -51.9379,-4.55313 L -52.3116,-4.50591 z
M -52.5942,1.49704 L -52.7811,1.47342 L -52.9635,1.42657 L -53.1387,1.35724 L -53.3037,1.26648 L -53.4561,1.15576
 L -53.5934,1.02681 L -53.7135,0.881668 L -53.8145,0.722626 L -53.8947,0.552185 L -53.9529,0.373032 L -53.9882,0.187988
 L -54,-0 L -53.9882,-0.187988 L -53.9529,-0.373032 L -53.8947,-0.552185 L -53.8145,-0.722626 L -53.7135,-0.881668
 L -53.5934,-1.02681 L -53.4561,-1.15576 L -53.3037,-1.26648 L -53.1387,-1.35724 L -52.9635,-1.42657 L -52.7811,-1.47342
 L -52.5942,-1.49704 L -52.4058,-1.49704 L -52.2189,-1.47342 L -52.0365,-1.42657 L -51.8613,-1.35724 L -51.6963,-1.26648
 L -51.5439,-1.15576 L -51.4065,-1.02681 L -51.2865,-0.881668 L -51.1855,-0.722626 L -51.1053,-0.552185 L -51.0471,-0.373032
 L -51.0118,-0.187988 L -51,-0 L -51.0118,0.187988 L -51.0471,0.373032 L -51.1053,0.552185 L -51.1855,0.722626
 L -51.2865,0.881668 L -51.4065,1.02681 L -51.5439,1.15576 L -51.6963,1.26648 L -51.8613,1.35724 L -52.0365,1.42657
 L -52.2189,1.47342 L -52.4058,1.49704 z
M 52.4058,1.49704 L 52.2189,1.47342 L 52.0365,1.42657 L 51.8613,1.35724 L 51.6963,1.26648 L 51.5439,1.15576
 L 51.4065,1.02681 L 51.2865,0.881668 L 51.1855,0.722626 L 51.1053,0.552185 L 51.0471,0.373032 L 51.0118,0.187988
 L 51,-0 L 51.0118,-0.187988 L 51.0471,-0.373032 L 51.1053,-0.552185 L 51.1855,-0.722626 L 51.2865,-0.881668
 L 51.4065,-1.02681 L 51.5439,-1.15576 L 51.6963,-1.26648 L 51.8613,-1.35724 L 52.0365,-1.42657 L 52.2189,-1.47342
 L 52.4058,-1.49704 L 52.5942,-1.49704 L 52.7811,-1.47342 L 52.9635,-1.42657 L 53.1387,-1.35724 L 53.3037,-1.26648
 L 53.4561,-1.15576 L 53.5934,-1.02681 L 53.7135,-0.881668 L 53.8145,-0.722626 L 53.8947,-0.552185 L 53.9529,-0.373032
 L 53.9882,-0.187988 L 54,-0 L 53.9882,0.187988 L 53.9529,0.373032 L 53.8947,0.552185 L 53.8145,0.722626
 L 53.7135,0.881668 L 53.5934,1.02681 L 53.4561,1.15576 L 53.3037,1.26648 L 53.1387,1.35724 L 52.9635,1.42657
 L 52.7811,1.47342 L 52.5942,1.49704 z
M 52.3116,10.4941 L 51.9379,10.4469 L 51.5729,10.3532 L 51.2227,10.2145 L 50.8925,10.033 L 50.5877,9.81154
 L 50.3131,9.55363 L 50.0729,9.26335 L 49.8711,8.94525 L 49.7107,8.60437 L 49.5942,8.24606 L 49.5237,7.87599
 L 49.5,7.5 L 49.5237,7.12399 L 49.5942,6.75392 L 49.7107,6.39561 L 49.8711,6.05473 L 50.0729,5.73663
 L 50.3131,5.44635 L 50.5877,5.18845 L 50.8925,4.96701 L 51.2227,4.78551 L 51.5729,4.64682 L 51.9379,4.55313
 L 52.3116,4.50591 L 52.6884,4.50591 L 53.0621,4.55313 L 53.427,4.64682 L 53.7773,4.78551 L 54.1075,4.96701
 L 54.4123,5.18845 L 54.6869,5.44635 L 54.927,5.73663 L 55.1289,6.05473 L 55.2893,6.39561 L 55.4057,6.75392
 L 55.4763,7.12399 L 55.5,7.5 L 55.4763,7.87599 L 55.4057,8.24606 L 55.2893,8.60437 L 55.1289,8.94525
 L 54.927,9.26335 L 54.6869,9.55363 L 54.4123,9.81154 L 54.1075,10.033 L 53.7773,10.2145 L 53.427,10.3532
 L 53.0621,10.4469 L 52.6884,10.4941 z
M -52.6884,10.4941 L -53.0621,10.4469 L -53.427,10.3532 L -53.7773,10.2145 L -54.1075,10.033 L -54.4123,9.81154
 L -54.6869,9.55363 L -54.927,9.26335 L -55.1289,8.94525 L -55.2893,8.60437 L -55.4057,8.24606 L -55.4763,7.87599
 L -55.5,7.5 L -55.4763,7.12399 L -55.4057,6.75392 L -55.2893,6.39561 L -55.1289,6.05473 L -54.927,5.73663
 L -54.6869,5.44635 L -54.4123,5.18845 L -54.1075,4.96701 L -53.7773,4.78551 L -53.427,4.64682 L -53.0621,4.55313
 L -52.6884,4.50591 L -52.3116,4.50591 L -51.9379,4.55313 L -51.5729,4.64682 L -51.2227,4.78551 L -50.8925,4.96701
 L -50.5877,5.18845 L -50.3131,5.44635 L -50.0729,5.73663 L -49.8711,6.05473 L -49.7107,6.39561 L -49.5942,6.75392
 L -49.5237,7.12399 L -49.5,7.5 L -49.5237,7.87599 L -49.5942,8.24606 L -49.7107,8.60437 L -49.8711,8.94525
 L -50.0729,9.26335 L -50.3131,9.55363 L -50.5877,9.81154 L -50.8925,10.033 L -51.2227,10.2145 L -51.5729,10.3532
 L -51.9379,10.4469 L -52.3116,10.4941 z
M -52.5942,16.497 L -52.7811,16.4734 L -52.9635,16.4266 L -53.1387,16.3572 L -53.3037,16.2665 L -53.4561,16.1558
 L -53.5934,16.0268 L -53.7135,15.8817 L -53.8145,15.7226 L -53.8947,15.5522 L -53.9529,15.373 L -53.9882,15.188
 L -54,15 L -53.9882,14.812 L -53.9529,14.627 L -53.8947,14.4478 L -53.8145,14.2774 L -53.7135,14.1183
 L -53.5934,13.9732 L -53.4561,13.8442 L -53.3037,13.7335 L -53.1387,13.6427 L -52.9635,13.5734 L -52.7811,13.5266
 L -52.5942,13.5029 L -52.4058,13.5029 L -52.2189,13.5266 L -52.0365,13.5734 L -51.8613,13.6427 L -51.6963,13.7335
 L -51.5439,13.8442 L -51.4065,13.9732 L -51.2865,14.1183 L -51.1855,14.2774 L -51.1053,14.4478 L -51.0471,14.627
 L -51.0118,14.812 L -51,15 L -51.0118,15.188 L -51.0471,15.373 L -51.1053,15.5522 L -51.1855,15.7226
 L -51.2865,15.8817 L -51.4065,16.0268 L -51.5439,16.1558 L -51.6963,16.2665 L -51.8613,16.3572 L -52.0365,16.4266
 L -52.2189,16.4734 L -52.4058,16.497 z
M 52.4058,16.497 L 52.2189,16.4734 L 52.0365,16.4266 L 51.8613,16.3572 L 51.6963,16.2665 L 51.5439,16.1558
 L 51.4065,16.0268 L 51.2865,15.8817 L 51.1855,15.7226 L 51.1053,15.5522 L 51.0471,15.373 L 51.0118,15.188
 L 51,15 L 51.0118,14.812 L 51.0471,14.627 L 51.1053,14.4478 L 51.1855,14.2774 L 51.2865,14.1183
 L 51.4065,13.9732 L 51.5439,13.8442 L 51.6963,13.7335 L 51.8613,13.6427 L 52.0365,13.5734 L 52.2189,13.5266
 L 52.4058,13.5029 L 52.5942,13.5029 L 52.7811,13.5266 L 52.9635,13.5734 L 53.1387,13.6427 L 53.3037,13.7335
 L 53.4561,13.8442 L 53.5934,13.9732 L 53.7135,14.1183 L 53.8145,14.2774 L 53.8947,14.4478 L 53.9529,14.627
 L 53.9882,14.812 L 54,15 L 53.9882,15.188 L 53.9529,15.373 L 53.8947,15.5522 L 53.8145,15.7226
 L 53.7135,15.8817 L 53.5934,16.0268 L 53.4561,16.1558 L 53.3037,16.2665 L 53.1387,16.3572 L 52.9635,16.4266
 L 52.7811,16.4734 L 52.5942,16.497 z
M 52.3116,25.4941 L 51.9379,25.4469 L 51.5729,25.3532 L 51.2227,25.2145 L 50.8925,25.033 L 50.5877,24.8115
 L 50.3131,24.5536 L 50.0729,24.2634 L 49.8711,23.9453 L 49.7107,23.6044 L 49.5942,23.2461 L 49.5237,22.876
 L 49.5,22.5 L 49.5237,22.124 L 49.5942,21.7539 L 49.7107,21.3956 L 49.8711,21.0547 L 50.0729,20.7366
 L 50.3131,20.4464 L 50.5877,20.1884 L 50.8925,19.967 L 51.2227,19.7855 L 51.5729,19.6468 L 51.9379,19.5531
 L 52.3116,19.5059 L 52.6884,19.5059 L 53.0621,19.5531 L 53.427,19.6468 L 53.7773,19.7855 L 54.1075,19.967
 L 54.4123,20.1884 L 54.6869,20.4464 L 54.927,20.7366 L 55.1289,21.0547 L 55.2893,21.3956 L 55.4057,21.7539
 L 55.4763,22.124 L 55.5,22.5 L 55.4763,22.876 L 55.4057,23.2461 L 55.2893,23.6044 L 55.1289,23.9453
 L 54.927,24.2634 L 54.6869,24.5536 L 54.4123,24.8115 L 54.1075,25.033 L 53.7773,25.2145 L 53.427,25.3532
 L 53.0621,25.4469 L 52.6884,25.4941 z
M -52.6884,25.4941 L -53.0621,25.4469 L -53.427,25.3532 L -53.7773,25.2145 L -54.1075,25.033 L -54.4123,24.8115
 L -54.6869,24.5536 L -54.927,24.2634 L -55.1289,23.9453 L -55.2893,23.6044 L -55.4057,23.2461 L -55.4763,22.876
 L -55.5,22.5 L -55.4763,22.124 L -55.4057,21.7539 L -55.2893,21.3956 L -55.1289,21.0547 L -54.927,20.7366
 L -54.6869,20.4464 L -54.4123,20.1884 L -54.1075,19.967 L -53.7773,19.7855 L -53.427,19.6468 L -53.0621,19.5531
 L -52.6884,19.5059 L -52.3116,19.5059 L -51.9379,19.5531 L -51.5729,19.6468 L -51.2227,19.7855 L -50.8925,19.967
 L -50.5877,20.1884 L -50.3131,20.4464 L -50.0729,20.7366 L -49.8711,21.0547 L -49.7107,21.3956 L -49.5942,21.7539
 L -49.5237,22.124 L -49.5,22.5 L -49.5237,22.876 L -49.5942,23.2461 L -49.7107,23.6044 L -49.8711,23.9453
 L -50.0729,24.2634 L -50.3131,24.5536 L -50.5877,24.8115 L -50.8925,25.033 L -51.2227,25.2145 L -51.5729,25.3532
 L -51.9379,25.4469 L -52.3116,25.4941 z
" stroke="black" fill="lightgray" stroke-width="0.5"/>
</svg>
