<?xml version="1.0" standalone="no"?>
<!DOCTYPE svg PUBLIC "-//W3C//DTD SVG 1.1//EN" "http://www.w3.org/Graphics/SVG/1.1/DTD/svg11.dtd">
<svg width="194mm" height="90mm" viewBox="-97 -45 194 90" xmlns="http://www.w3.org/2000/svg" version="1.1">
<title>OpenSCAD Model</title>
<path d="
M 92.9369,44.4114 L 93.5451,44.2553 L 94.1289,44.0241 L 94.6791,43.7216 L 95.1871,43.3526 L 95.6448,42.9227
 L 96.0451,42.4389 L 96.3815,41.9088 L 96.6489,41.3406 L 96.8429,40.7434 L 96.9606,40.1267 L 97,39.5
 L 97,-39.5 L 96.9606,-40.1267 L 96.8429,-40.7434 L 96.6489,-41.3406 L 96.3815,-41.9088 L 96.0451,-42.4389
 L 95.6448,-42.9227 L 95.1871,-43.3526 L 94.6791,-43.7216 L 94.1289,-44.0241 L 93.5451,-44.2553 L 92.9369,-44.4114
 L 92.3139,-44.4901 L -92.3139,-44.4901 L -92.9369,-44.4114 L -93.5451,-44.2553 L -94.1289,-44.0241 L -94.6791,-43.7216
 L -95.1871,-43.3526 L -95.6448,-42.9227 L -96.0451,-42.4389 L -96.3815,-41.9088 L -96.6489,-41.3406 L -96.8429,-40.7434
 L -96.9606,-40.1267 L -97,-39.5 L -97,39.5 L -96.9606,40.1267 L -96.8429,40.7434 L -96.6489,41.3406
 L -96.3815,41.9088 L -96.0451,42.4389 L -95.6448,42.9227 L -95.1871,43.3526 L -94.6791,43.7216 L -94.1289,44.0241
 L -93.5451,44.2553 L -92.9369,44.4114 L -92.3139,44.4901 L 92.3139,44.4901 z
M -90.1884,-34.5059 L -90.5621,-34.5531 L -90.927,-34.6468 L -91.2773,-34.7855 L -91.6075,-34.967 L -91.9123,-35.1885
 L -92.1869,-35.4464 L -92.427,-35.7366 L -92.6289,-36.0547 L -92.7893,-36.3956 L -92.9057,-36.7539 L -92.9763,-37.124
 L -93,-37.5 L -92.9763,-37.876 L -92.9057,-38.2461 L -92.7893,-38.6044 L -92.6289,-38.9453 L -92.427,-39.2634
 L -92.1869,-39.5536 L -91.9123,-39.8115 L -91.6075,-40.033 L -91.2773,-40.2145 L -90.927,-40.3532 L -90.5621,-40.4469
 L -90.1884,-40.4941 L -89.8116,-40.4941 L -89.4379,-40.4469 L -89.073,-40.3532 L -88.7227,-40.2145 L -88.3925,-40.033
 L -88.0877,-39.8115 L -87.8131,-39.5536 L -87.573,-39.2634 L -87.3711,-38.9453 L -87.2107,-38.6044 L -87.0943,-38.2461
 L -87.0237,-37.876 L -87,-37.5 L -87.0237,-37.124 L -87.0943,-36.7539 L -87.2107,-36.3956 L -87.3711,-36.0547
 L -87.573,-35.7366 L -87.8131,-35.4464 L -88.0877,-35.1885 L -88.3925,-34.967 L -88.7227,-34.7855 L -89.073,-34.6468
 L -89.4379,-34.5531 L -89.8116,-34.5059 z
M 89.8116,-34.5059 L 89.4379,-34.5531 L 89.073,-34.6468 L 88.7227,-34.7855 L 88.3925,-34.967 L 88.0877,-35.1885
 L 87.8131,-35.4464 L 87.573,-35.7366 L 87.3711,-36.0547 L 87.2107,-36.3956 L 87.0943,-36.7539 L 87.0237,-37.124
 L 87,-37.5 L 87.0237,-37.876 L 87.0943,-38.2461 L 87.2107,-38.6044 L 87.3711,-38.9453 L 87.573,-39.2634
 L 87.8131,-39.5536 L 88.0877,-39.8115 L 88.3925,-40.033 L 88.7227,-40.2145 L 89.073,-40.3532 L 89.4379,-40.4469
 L 89.8116,-40.4941 L 90.1884,-40.4941 L 90.5621,-40.4469 L 90.927,-40.3532 L 91.2773,-40.2145 L 91.6075,-40.033
 L 91.9123,-39.8115 L 92.1869,-39.5536 L 92.427,-39.2634 L 92.6289,-38.9453 L 92.7893,-38.6044 L 92.9057,-38.2461
 L 92.9763,-37.876 L 93,-37.5 L 92.9763,-37.124 L 92.9057,-36.7539 L 92.7893,-36.3956 L 92.6289,-36.0547
 L 92.427,-35.7366 L 92.1869,-35.4464 L 91.9123,-35.1885 L 91.6075,-34.967 L 91.2773,-34.7855 L 90.927,-34.6468
 L 90.5621,-34.5531 L 90.1884,-34.5059 z
M -43.9488,38.923 L -48.8079,38.3092 L -53.5517,37.0912 L -58.1054,35.2883 L -62.3972,32.9288 L -66.3595,30.05
 L -69.9298,26.6973 L -73.0517,22.9236 L -75.6759,18.7884 L -77.7613,14.3569 L -79.2747,9.6989 L -80.1925,4.88799
 L -80.5,-0 L -80.1925,-4.88799 L -79.2747,-9.6989 L -77.7613,-14.3569 L -75.6759,-18.7884 L -73.0517,-22.9236
 L -69.9298,-26.6973 L -66.3595,-30.05 L -62.3972,-32.9288 L -58.1054,-35.2883 L -53.5517,-37.0912 L -48.8079,-38.3092
 L -43.9488,-38.923 L -39.0512,-38.923 L -34.1921,-38.3092 L -29.4483,-37.0912 L -24.8946,-35.2883 L -20.6028,-32.9288
 L -16.6405,-30.05 L -13.0702,-26.6973 L -9.94833,-22.9236 L -7.32404,-18.7884 L -5.23871,-14.3569 L -3.72525,-9.6989
 L -2.80753,-4.88799 L -2.5,-0 L -2.80753,4.88799 L -3.72525,9.6989 L -5.23871,14.3569 L -7.32404,18.7884
 L -9.94833,22.9236 L -13.0702,26.6973 L -16.6405,30.05 L -20.6028,32.9288 L -24.8946,35.2883 L -29.4483,37.0912
 L -34.1921,38.3092 L -39.0512,38.923 z
M 39.0512,38.923 L 34.1921,38.3092 L 29.4483,37.0912 L 24.8946,35.2883 L 20.6028,32.9288 L 16.6405,30.05
 L 13.0702,26.6973 L 9.94833,22.9236 L 7.32404,18.7884 L 5.23871,14.3569 L 3.72525,9.6989 L 2.80753,4.88799
 L 2.5,-0 L 2.80753,-4.88799 L 3.72525,-9.6989 L 5.23871,-14.3569 L 7.32404,-18.7884 L 9.94833,-22.9236
 L 13.0702,-26.6973 L 16.6405,-30.05 L 20.6028,-32.9288 L 24.8946,-35.2883 L 29.4483,-37.0912 L 34.1921,-38.3092
 L 39.0512,-38.923 L 43.9488,-38.923 L 48.8079,-38.3092 L 53.5517,-37.0912 L 58.1054,-35.2883 L 62.3972,-32.9288
 L 66.3595,-30.05 L 69.9298,-26.6973 L 73.0517,-22.9236 L 75.6759,-18.7884 L 77.7613,-14.3569 L 79.2747,-9.6989
 L 80.1925,-4.88799 L 80.5,-0 L 80.1925,4.88799 L 79.2747,9.6989 L 77.7613,14.3569 L 75.6759,18.7884
 L 73.0517,22.9236 L 69.9298,26.6973 L 66.3595,30.05 L 62.3972,32.9288 L 58.1054,35.2883 L 53.5517,37.0912
 L 48.8079,38.3092 L 43.9488,38.923 z
M 89.9058,-28.503 L 89.7189,-28.5266 L 89.5365,-28.5734 L 89.3613,-28.6427 L 89.1963,-28.7335 L 89.0439,-28.8442
 L 88.9065,-28.9732 L 88.7865,-29.1183 L 88.6855,-29.2774 L 88.6053,-29.4478 L 88.5471,-29.627 L 88.5118,-29.812
 L 88.5,-30 L 88.5118,-30.188 L 88.5471,-30.373 L 88.6053,-30.5522 L 88.6855,-30.7226 L 88.7865,-30.8817
 L 88.9065,-31.0268 L 89.0439,-31.1558 L 89.1963,-31.2665 L 89.3613,-31.3572 L 89.5365,-31.4266 L 89.7189,-31.4734
 L 89.9058,-31.497 L 90.0942,-31.497 L 90.2811,-31.4734 L 90.4635,-31.4266 L 90.6387,-31.3572 L 90.8037,-31.2665
 L 90.9561,-31.1558 L 91.0934,-31.0268 L 91.2135,-30.8817 L 91.3145,-30.7226 L 91.3947,-30.5522 L 91.4529,-30.373
 L 91.4882,-30.188 L 91.5,-30 L 91.4882,-29.812 L 91.4529,-29.627 L 91.3947,-29.4478 L 91.3145,-29.2774
 L 91.2135,-29.1183 L 91.0934,-28.9732 L 90.9561,-28.8442 L 90.8037,-28.7335 L 90.6387,-28.6427 L 90.4635,-28.5734
 L 90.2811,-28.5266 L 90.0942,-28.503 z
M -90.0942,-28.503 L -90.2811,-28.5266 L -90.4635,-28.5734 L -90.6387,-28.6427 L -90.8037,-28.7335 L -90.9561,-28.8442
 L -91.0934,-28.9732 L -91.2135,-29.1183 L -91.3145,-29.2774 L -91.3947,-29.4478 L -91.4529,-29.627 L -91.4882,-29.812
 L -91.5,-30 L -91.4882,-30.188 L -91.4529,-30.373 L -91.3947,-30.5522 L -91.3145,-30.7226 L -91.2135,-30.8817
 L -91.0934,-31.0268 L -90.9561,-31.1558 L -90.8037,-31.2665 L -90.6387,-31.3572 L -90.4635,-31.4266 L -90.2811,-31.4734
 L -90.0942,-31.497 L -89.9058,-31.497 L -89.7189,-31.4734 L -89.5365,-31.4266 L -89.3613,-31.3572 L -89.1963,-31.2665
 L -89.0439,-31.1558 L -88.9065,-31.0268 L -88.7865,-30.8817 L -88.6855,-30.7226 L -88.6053,-30.5522 L -88.5471,-30.373
 L -88.5118,-30.188 L -88.5,-30 L -88.5118,-29.812 L -88.5471,-29.627 L -88.6053,-29.4478 L -88.6855,-29.2774
 L -88.7865,-29.1183 L -88.9065,-28.9732 L -89.0439,-28.8442 L -89.1963,-28.7335 L -89.3613,-28.6427 L -89.5365,-28.5734
 L -89.7189,-28.5266 L -89.9058,-28.503 z
M -90.1884,-19.5059 L -90.5621,-19.5531 L -90.927,-19.6468 L -91.2773,-19.7855 L -91.6075,-19.967 L -91.9123,-20.1884
 L -92.1869,-20.4464 L -92.427,-20.7366 L -92.6289,-21.0547 L -92.7893,-21.3956 L -92.9057,-21.7539 L -92.9763,-22.124
 L -93,-22.5 L -92.9763,-22.876 L -92.9057,-23.2461 L -92.7893,-23.6044 L -92.6289,-23.9453 L -92.427,-24.2634
 L -92.1869,-24.5536 L -91.9123,-24.8115 L -91.6075,-25.033 L -91.2773,-25.2145 L -90.927,-25.3532 L -90.5621,-25.4469
 L -90.1884,-25.4941 L -89.8116,-25.4941 L -89.4379,-25.4469 L -89.073,-25.3532 L -88.7227,-25.2145 L -88.3925,-25.033
 L -88.0877,-24.8115 L -87.8131,-24.5536 L -87.573,-24.2634 L -87.3711,-23.9453 L -87.2107,-23.6044 L -87.0943,-23.2461
 L -87.0237,-22.876 L -87,-22.5 L -87.0237,-22.124 L -87.0943,-21.7539 L -87.2107,-21.3956 L -87.3711,-21.0547
 L -87.573,-20.7366 L -87.8131,-20.4464 L -88.0877,-20.1884 L -88.3925,-19.967 L -88.7227,-19.7855 L -89.073,-19.6468
 L -89.4379,-19.5531 L -89.8116,-19.5059 z
M 89.8116,-19.5059 L 89.4379,-19.5531 L 89.073,-19.6468 L 88.7227,-19.7855 L 88.3925,-19.967 L 88.0877,-20.1884
 L 87.8131,-20.4464 L 87.573,-20.7366 L 87.3711,-21.0547 L 87.2107,-21.3956 L 87.0943,-21.7539 L 87.0237,-22.124
 L 87,-22.5 L 87.0237,-22.876 L 87.0943,-23.2461 L 87.2107,-23.6044 L 87.3711,-23.9453 L 87.573,-24.2634
 L 87.8131,-24.5536 L 88.0877,-24.8115 L 88.3925,-25.033 L 88.7227,-25.2145 L 89.073,-25.3532 L 89.4379,-25.4469
 L 89.8116,-25.4941 L 90.1884,-25.4941 L 90.5621,-25.4469 L 90.927,-25.3532 L 91.2773,-25.2145 L 91.6075,-25.033
 L 91.9123,-24.8115 L 92.1869,-24.5536 L 92.427,-24.2634 L 92.6289,-23.9453 L 92.7893,-23.6044 L 92.9057,-23.2461
 L 92.9763,-22.876 L 93,-22.5 L 92.9763,-22.124 L 92.9057,-21.7539 L 92.7893,-21.3956 L 92.6289,-21.0547
 L 92.427,-20.7366 L 92.1869,-20.4464 L 91.9123,-20.1884 L 91.6075,-19.967 L 91.2773,-19.7855 L 90.927,-19.6468
 L 90.5621,-19.5531 L 90.1884,-19.5059 z
M 89.9058,-13.5029 L 89.7189,-13.5266 L 89.5365,-13.5734 L 89.3613,-13.6427 L 89.1963,-13.7335 L 89.0439,-13.8442
 L 88.9065,-13.9732 L 88.7865,-14.1183 L 88.6855,-14.2774 L 88.6053,-14.4478 L 88.5471,-14.627 L 88.5118,-14.812
 L 88.5,-15 L 88.5118,-15.188 L 88.5471,-15.373 L 88.6053,-15.5522 L 88.6855,-15.7226 L 88.7865,-15.8817
 L 88.9065,-16.0268 L 89.0439,-16.1558 L 89.1963,-16.2665 L 89.3613,-16.3572 L 89.5365,-16.4266 L 89.7189,-16.4734
 L 89.9058,-16.497 L 90.0942,-16.497 L 90.2811,-16.4734 L 90.4635,-16.4266 L 90.6387,-16.3572 L 90.8037,-16.2665
 L 90.9561,-16.1558 L 91.0934,-16.0268 L 91.2135,-15.8817 L 91.3145,-15.7226 L 91.3947,-15.5522 L 91.4529,-15.373
 L 91.4882,-15.188 L 91.5,-15 L 91.4882,-14.812 L 91.4529,-14.627 L 91.3947,-14.4478 L 91.3145,-14.2774
 L 91.2135,-14.1183 L 91.0934,-13.9732 L 90.9561,-13.8442 L 90.8037,-13.7335 L 90.6387,-13.6427 L 90.4635,-13.5734
 L 90.2811,-13.5266 L 90.0942,-13.5029 z
M -90.0942,-13.5029 L -90.2811,-13.5266 L -90.4635,-13.5734 L -90.6387,-13.6427 L -90.8037,-13.7335 L -90.9561,-13.8442
 L -91.0934,-13.9732 L -91.2135,-14.1183 L -91.3145,-14.2774 L -91.3947,-14.4478 L -91.4529,-14.627 L -91.4882,-14.812
 L -91.5,-15 L -91.4882,-15.188 L -91.4529,-15.373 L -91.3947,-15.5522 L -91.3145,-15.7226 L -91.2135,-15.8817
 L -91.0934,-16.0268 L -90.9561,-16.1558 L -90.8037,-16.2665 L -90.6387,-16.3572 L -90.4635,-16.4266 L -90.2811,-16.4734
 L -90.0942,-16.497 L -89.9058,-16.497 L -89.7189,-16.4734 L -89.5365,-16.4266 L -89.3613,-16.3572 L -89.1963,-16.2665
 L -89.0439,-16.1558 L -88.9065,-16.0268 L -88.7865,-15.8817 L -88.6855,-15.7226 L -88.6053,-15.5522 L -88.5471,-15.373
 L -88.5118,-15.188 L -88.5,-15 L -88.5118,-14.812 L -88.5471,-14.627 L -88.6053,-14.4478 L -88.6855,-14.2774
 L -88.7865,-14.1183 L -88.9065,-13.9732 L -89.0439,-13.8442 L -89.1963,-13.7335 L -89.3613,-13.6427 L -89.5365,-13.5734
 L -89.7189,-13.5266 L -89.9058,-13.5029 z
M -90.1884,-4.50591 L -90.5621,-4.55313 L -90.927,-4.64682 L -91.2773,-4.78551 L -91.6075,-4.96701 L -91.9123,-5.18845
 L -92.1869,-5.44635 L -92.427,-5.73663 L -92.6289,-6.05473 L -92.7893,-6.39561 L -92.9057,-6.75392 L -92.9763,-7.12399
 L -93,-7.5 L -92.9763,-7.87599 L -92.9057,-8.24606 L -92.7893,-8.60437 L -92.6289,-8.94525 L -92.427,-9.26335
 L -92.1869,-9.55363 L -91.9123,-9.81154 L -91.6075,-10.033 L -91.2773,-10.2145 L -90.927,-10.3532 L -90.5621,-10.4469
 L -90.1884,-10.4941 L -89.8116,-10.4941 L -89.4379,-10.4469 L -89.073,-10.3532 L -88.7227,-10.2145 L -88.3925,-10.033
 L -88.0877,-9.81154 L -87.8131,-9.55363 L -87.573,-9.26335 L -87.3711,-8.94525 L -87.2107,-8.60437 L -87.0943,-8.24606
 L -87.0237,-7.87599 L -87,-7.5 L -87.0237,-7.12399 L -87.0943,-6.75392 L -87.2107,-6.39561 L -87.3711,-6.05473
 L -87.573,-5.73663 L -87.8131,-5.44635 L -88.0877,-5.18845 L -88.3925,-4.96701 L -88.7227,-4.78551 L -89.073,-4.64682
 L -89.4379,-4.55313 L -89.8116,-4.50591 z
M 89.8116,-4.50591 L 89.4379,-4.55313 L 89.073,-4.64682 L 88.7227,-4.78551 L 88.3925,-4.96701 L 88.0877,-5.18845
 L 87.8131,-5.44635 L 87.573,-5.73663 L 87.3711,-6.05473 L 87.2107,-6.39561 L 87.0943,-6.75392 L 87.0237,-7.12399
 L 87,-7.5 L 87.0237,-7.87599 L 87.0943,-8.24606 L 87.2107,-8.60437 L 87.3711,-8.94525 L 87.573,-9.26335
 L 87.8131,-9.55363 L 88.0877,-9.81154 L 88.3925,-10.033 L 88.7227,-10.2145 L 89.073,-10.3532 L 89.4379,-10.4469
 L 89.8116,-10.4941 L 90.1884,-10.4941 L 90.5621,-10.4469 L 90.927,-10.3532 L 91.2773,-10.2145 L 91.6075,-10.033
 L 91.9123,-9.81154 L 92.1869,-9.55363 L 92.427,-9.26335 L 92.6289,-8.94525 L 92.7893,-8.60437 L 92.9057,-8.24606
 L 92.9763,-7.87599 L 93,-7.5 L 92.9763,-7.12399 L 92.9057,-6.75392 L 92.7893,-6.39561 L 92.6289,-6.05473
 L 92.427,-5.73663 L 92.1869,-5.44635 L 91.9123,-5.18845 L 91.6075,-4.96701 L 91.2773,-4.78551 L 90.927,-4.64682
 L 90.5621,-4.55313 L 90.1884,-4.50591 z
M 89.9058,1.49704 L 89.7189,1.47342 L 89.5365,1.42657 L 89.3613,1.35724 L 89.1963,1.26648 L 89.0439,1.15576
 L 88.9065,1.02681 L 88.7865,0.881668 L 88.6855,0.722626 L 88.6053,0.552185 L 88.5471,0.373032 L 88.5118,0.187988
 L 88.5,-0 L 88.5118,-0.187988 L 88.5471,-0.373032 L 88.6053,-0.552185 L 88.6855,-0.722626 L 88.7865,-0.881668
 L 88.9065,-1.02681 L 89.0439,-1.15576 L 89.1963,-1.26648 L 89.3613,-1.35724 L 89.5365,-1.42657 L 89.7189,-1.47342
 L 89.9058,-1.49704 L 90.0942,-1.49704 L 90.2811,-1.47342 L 90.4635,-1.42657 L 90.6387,-1.35724 L 90.8037,-1.26648
 L 90.9561,-1.15576 L 91.0934,-1.02681 L 91.2135,-0.881668 L 91.3145,-0.722626 L 91.3947,-0.552185 L 91.4529,-0.373032
 L 91.4882,-0.187988 L 91.5,-0 L 91.4882,0.187988 L 91.4529,0.373032 L 91.3947,0.552185 L 91.3145,0.722626
 L 91.2135,0.881668 L 91.0934,1.02681 L 90.9561,1.15576 L 90.8037,1.26648 L 90.6387,1.35724 L 90.4635,1.42657
 L 90.2811,1.47342 L 90.0942,1.49704 z
M -90.0942,1.49704 L -90.2811,1.47342 L -90.4635,1.42657 L -90.6387,1.35724 L -90.8037,1.26648 L -90.9561,1.15576
 L -91.0934,1.02681 L -91.2135,0.881668 L -91.3145,0.722626 L -91.3947,0.552185 L -91.4529,0.373032 L -91.4882,0.187988
 L -91.5,-0 L -91.4882,-0.187988 L -91.4529,-0.373032 L -91.3947,-0.552185 L -91.3145,-0.722626 L -91.2135,-0.881668
 L -91.0934,-1.02681 L -90.9561,-1.15576 L -90.8037,-1.26648 L -90.6387,-1.35724 L -90.4635,-1.42657 L -90.2811,-1.47342
 L -90.0942,-1.49704 L -89.9058,-1.49704 L -89.7189,-1.47342 L -89.5365,-1.42657 L -89.3613,-1.35724 L -89.1963,-1.26648
 L -89.0439,-1.15576 L -88.9065,-1.02681 L -88.7865,-0.881668 L -88.6855,-0.722626 L -88.6053,-0.552185 L -88.5471,-0.373032
 L -88.5118,-0.187988 L -88.5,-0 L -88.5118,0.187988 L -88.5471,0.373032 L -88.6053,0.552185 L -88.6855,0.722626
 L -88.7865,0.881668 L -88.9065,1.02681 L -89.0439,1.15576 L -89.1963,1.26648 L -89.3613,1.35724 L -89.5365,1.42657
 L -89.7189,1.47342 L -89.9058,1.49704 z
M 89.8116,10.4941 L 89.4379,10.4469 L 89.073,10.3532 L 88.7227,10.2145 L 88.3925,10.033 L 88.0877,9.81154
 L 87.8131,9.55363 L 87.573,9.26335 L 87.3711,8.94525 L 87.2107,8.60437 L 87.0943,8.24606 L 87.0237,7.87599
 L 87,7.5 L 87.0237,7.12399 L 87.0943,6.75392 L 87.2107,6.39561 L 87.3711,6.05473 L 87.573,5.73663
 L 87.8131,5.44635 L 88.0877,5.18845 L 88.3925,4.96701 L 88.7227,4.78551 L 89.073,4.64682 L 89.4379,4.55313
 L 89.8116,4.50591 L 90.1884,4.50591 L 90.5621,4.55313 L 90.927,4.64682 L 91.2773,4.78551 L 91.6075,4.96701
 L 91.9123,5.18845 L 92.1869,5.44635 L 92.427,5.73663 L 92.6289,6.05473 L 92.7893,6.39561 L 92.9057,6.75392
 L 92.9763,7.12399 L 93,7.5 L 92.9763,7.87599 L 92.9057,8.24606 L 92.7893,8.60437 L 92.6289,8.94525
 L 92.427,9.26335 L 92.1869,9.55363 L 91.9123,9.81154 L 91.6075,10.033 L 91.2773,10.2145 L 90.927,10.3532
 L 90.5621,10.4469 L 90.1884,10.4941 z
M -90.1884,10.4941 L -90.5621,10.4469 L -90.927,10.3532 L -91.2773,10.2145 L -91.6075,10.033 L -91.9123,9.81154
 L -92.1869,9.55363 L -92.427,9.26335 L -92.6289,8.94525 L -92.7893,8.60437 L -92.9057,8.24606 L -92.9763,7.87599
 L -93,7.5 L -92.9763,7.12399 L -92.9057,6.75392 L -92.7893,6.39561 L -92.6289,6.05473 L -92.427,5.73663
 L -92.1869,5.44635 L -91.9123,5.18845 L -91.6075,4.96701 L -91.2773,4.78551 L -90.927,4.64682 L -90.5621,4.55313
 L -90.1884,4.50591 L -89.8116,4.50591 L -89.4379,4.55313 L -89.073,4.64682 L -88.7227,4.78551 L -88.3925,4.96701
 L -88.0877,5.18845 L -87.8131,5.44635 L -87.573,5.73663 L -87.3711,6.05473 L -87.2107,6.39561 L -87.0943,6.75392
 L -87.0237,7.12399 L -87,7.5 L -87.0237,7.87599 L -87.0943,8.24606 L -87.2107,8.60437 L -87.3711,8.94525
 L -87.573,9.26335 L -87.8131,9.55363 L -88.0877,9.81154 L -88.3925,10.033 L -88.7227,10.2145 L -89.073,10.3532
 L -89.4379,10.4469 L -89.8116,10.4941 z
M -90.0942,16.497 L -90.2811,16.4734 L -90.4635,16.4266 L -90.6387,16.3572 L -90.8037,16.2665 L -90.9561,16.1558
 L -91.0934,16.0268 L -91.2135,15.8817 L -91.3145,15.7226 L -91.3947,15.5522 L -91.4529,15.373 L -91.4882,15.188
 L -91.5,15 L -91.4882,14.812 L -91.4529,14.627 L -91.3947,14.4478 L -91.3145,14.2774 L -91.2135,14.1183
 L -91.0934,13.9732 L -90.9561,13.8442 L -90.8037,13.7335 L -90.6387,13.6427 L -90.4635,13.5734 L -90.2811,13.5266
 L -90.0942,13.5029 L -89.9058,13.5029 L -89.7189,13.5266 L -89.5365,13.5734 L -89.3613,13.6427 L -89.1963,13.7335
 L -89.0439,13.8442 L -88.9065,13.9732 L -88.7865,14.1183 L -88.6855,14.2774 L -88.6053,14.4478 L -88.5471,14.627
 L -88.5118,14.812 L -88.5,15 L -88.5118,15.188 L -88.5471,15.373 L -88.6053,15.5522 L -88.6855,15.7226
 L -88.7865,15.8817 L -88.9065,16.0268 L -89.0439,16.1558 L -89.1963,16.2665 L -89.3613,16.3572 L -89.5365,16.4266
 L -89.7189,16.4734 L -89.9058,16.497 z
M 89.9058,16.497 L 89.7189,16.4734 L 89.5365,16.4266 L 89.3613,16.3572 L 89.1963,16.2665 L 89.0439,16.1558
 L 88.9065,16.0268 L 88.7865,15.8817 L 88.6855,15.7226 L 88.6053,15.5522 L 88.5471,15.373 L 88.5118,15.188
 L 88.5,15 L 88.5118,14.812 L 88.5471,14.627 L 88.6053,14.4478 L 88.6855,14.2774 L 88.7865,14.1183
 L 88.9065,13.9732 L 89.0439,13.8442 L 89.1963,13.7335 L 89.3613,13.6427 L 89.5365,13.5734 L 89.7189,13.5266
 L 89.9058,13.5029 L 90.0942,13.5029 L 90.2811,13.5266 L 90.4635,13.5734 L 90.6387,13.6427 L 90.8037,13.7335
 L 90.9561,13.8442 L 91.0934,13.9732 L 91.2135,14.1183 L 91.3145,14.2774 L 91.3947,14.4478 L 91.4529,14.627
 L 91.4882,14.812 L 91.5,15 L 91.4882,15.188 L 91.4529,15.373 L 91.3947,15.5522 L 91.3145,15.7226
 L 91.2135,15.8817 L 91.0934,16.0268 L 90.9561,16.1558 L 90.8037,16.2665 L 90.6387,16.3572 L 90.4635,16.4266
 L 90.2811,16.4734 L 90.0942,16.497 z
M 89.8116,25.4941 L 89.4379,25.4469 L 89.073,25.3532 L 88.7227,25.2145 L 88.3925,25.033 L 88.0877,24.8115
 L 87.8131,24.5536 L 87.573,24.2634 L 87.3711,23.9453 L 87.2107,23.6044 L 87.0943,23.2461 L 87.0237,22.876
 L 87,22.5 L 87.0237,22.124 L 87.0943,21.7539 L 87.2107,21.3956 L 87.3711,21.0547 L 87.573,20.7366
 L 87.8131,20.4464 L 88.0877,20.1884 L 88.3925,19.967 L 88.7227,19.7855 L 89.073,19.6468 L 89.4379,19.5531
 L 89.8116,19.5059 L 90.1884,19.5059 L 90.5621,19.5531 L 90.927,19.6468 L 91.2773,19.7855 L 91.6075,19.967
 L 91.9123,20.1884 L 92.1869,20.4464 L 92.427,20.7366 L 92.6289,21.0547 L 92.7893,21.3956 L 92.9057,21.7539
 L 92.9763,22.124 L 93,22.5 L 92.9763,22.876 L 92.9057,23.2461 L 92.7893,23.6044 L 92.6289,23.9453
 L 92.427,24.2634 L 92.1869,24.5536 L 91.9123,24.8115 L 91.6075,25.033 L 91.2773,25.2145 L 90.927,25.3532
 L 90.5621,25.4469 L 90.1884,25.4941 z
M -90.1884,25.4941 L -90.5621,25.4469 L -90.927,25.3532 L -91.2773,25.2145 L -91.6075,25.033 L -91.9123,24.8115
 L -92.1869,24.5536 L -92.427,24.2634 L -92.6289,23.9453 L -92.7893,23.6044 L -92.9057,23.2461 L -92.9763,22.876
 L -93,22.5 L -92.9763,22.124 L -92.9057,21.7539 L -92.7893,21.3956 L -92.6289,21.0547 L -92.427,20.7366
 L -92.1869,20.4464 L -91.9123,20.1884 L -91.6075,19.967 L -91.2773,19.7855 L -90.927,19.6468 L -90.5621,19.5531
 L -90.1884,19.5059 L -89.8116,19.5059 L -89.4379,19.5531 L -89.073,19.6468 L -88.7227,19.7855 L -88.3925,19.967
 L -88.0877,20.1884 L -87.8131,20.4464 L -87.573,20.7366 L -87.3711,21.0547 L -87.2107,21.3956 L -87.0943,21.7539
 L -87.0237,22.124 L -87,22.5 L -87.0237,22.876 L -87.0943,23.2461 L -87.2107,23.6044 L -87.3711,23.9453
 L -87.573,24.2634 L -87.8131,24.5536 L -88.0877,24.8115 L -88.3925,25.033 L -88.7227,25.2145 L -89.073,25.3532
 L -89.4379,25.4469 L -89.8116,25.4941 z
M 89.9058,31.497 L 89.7189,31.4734 L 89.5365,31.4266 L 89.3613,31.3572 L 89.1963,31.2665 L 89.0439,31.1558
 L 88.9065,31.0268 L 88.7865,30.8817 L 88.6855,30.7226 L 88.6053,30.5522 L 88.5471,30.373 L 88.5118,30.188
 L 88.5,30 L 88.5118,29.812 L 88.5471,29.627 L 88.6053,29.4478 L 88.6855,29.2774 L 88.7865,29.1183
 L 88.9065,28.9732 L 89.0439,28.8442 L 89.1963,28.7335 L 89.3613,28.6427 L 89.5365,28.5734 L 89.7189,28.5266
 L 89.9058,28.503 L 90.0942,28.503 L 90.2811,28.5266 L 90.4635,28.5734 L 90.6387,28.6427 L 90.8037,28.7335
 L 90.9561,28.8442 L 91.0934,28.9732 L 91.2135,29.1183 L 91.3145,29.2774 L 91.3947,29.4478 L 91.4529,29.627
 L 91.4882,29.812 L 91.5,30 L 91.4882,30.188 L 91.4529,30.373 L 91.3947,30.5522 L 91.3145,30.7226
 L 91.2135,30.8817 L 91.0934,31.0268 L 90.9561,31.1558 L 90.8037,31.2665 L 90.6387,31.3572 L 90.4635,31.4266
 L 90.2811,31.4734 L 90.0942,31.497 z
M -90.0942,31.497 L -90.2811,31.4734 L -90.4635,31.4266 L -90.6387,31.3572 L -90.8037,31.2665 L -90.9561,31.1558
 L -91.0934,31.0268 L -91.2135,30.8817 L -91.3145,30.7226 L -91.3947,30.5522 L -91.4529,30.373 L -91.4882,30.188
 L -91.5,30 L -91.4882,29.812 L -91.4529,29.627 L -91.3947,29.4478 L -91.3145,29.2774 L -91.2135,29.1183
 L -91.0934,28.9732 L -90.9561,28.8442 L -90.8037,28.7335 L -90.6387,28.6427 L -90.4635,28.5734 L -90.2811,28.5266
 L -90.0942,28.503 L -89.9058,28.503 L -89.7189,28.5266 L -89.5365,28.5734 L -89.3613,28.6427 L -89.1963,28.7335
 L -89.0439,28.8442 L -88.9065,28.9732 L -88.7865,29.1183 L -88.6855,29.2774 L -88.6053,29.4478 L -88.5471,29.627
 L -88.5118,29.812 L -88.5,30 L -88.5118,30.188 L -88.5471,30.373 L -88.6053,30.5522 L -88.6855,30.7226
 L -88.7865,30.8817 L -88.9065,31.0268 L -89.0439,31.1558 L -89.1963,31.2665 L -89.3613,31.3572 L -89.5365,31.4266
 L -89.7189,31.4734 L -89.9058,31.497 z
M 89.8116,40.4941 L 89.4379,40.4469 L 89.073,40.3532 L 88.7227,40.2145 L 88.3925,40.033 L 88.0877,39.8115
 L 87.8131,39.5536 L 87.573,39.2634 L 87.3711,38.9453 L 87.2107,38.6044 L 87.0943,38.2461 L 87.0237,37.876
 L 87,37.5 L 87.0237,37.124 L 87.0943,36.7539 L 87.2107,36.3956 L 87.3711,36.0547 L 87.573,35.7366
 L 87.8131,35.4464 L 88.0877,35.1885 L 88.3925,34.967 L 88.7227,34.7855 L 89.073,34.6468 L 89.4379,34.5531
 L 89.8116,34.5059 L 90.1884,34.5059 L 90.5621,34.5531 L 90.927,34.6468 L 91.2773,34.7855 L 91.6075,34.967
 L 91.9123,35.1885 L 92.1869,35.4464 L 92.427,35.7366 L 92.6289,36.0547 L 92.7893,36.3956 L 92.9057,36.7539
 L 92.9763,37.124 L 93,37.5 L 92.9763,37.876 L 92.9057,38.2461 L 92.7893,38.6044 L 92.6289,38.9453
 L 92.427,39.2634 L 92.1869,39.5536 L 91.9123,39.8115 L 91.6075,40.033 L 91.2773,40.2145 L 90.927,40.3532
 L 90.5621,40.4469 L 90.1884,40.4941 z
M -90.1884,40.4941 L -90.5621,40.4469 L -90.927,40.3532 L -91.2773,40.2145 L -91.6075,40.033 L -91.9123,39.8115
 L -92.1869,39.5536 L -92.427,39.2634 L -92.6289,38.9453 L -92.7893,38.6044 L -92.9057,38.2461 L -92.9763,37.876
 L -93,37.5 L -92.9763,37.124 L -92.9057,36.7539 L -92.7893,36.3956 L -92.6289,36.0547 L -92.427,35.7366
 L -92.1869,35.4464 L -91.9123,35.1885 L -91.6075,34.967 L -91.2773,34.7855 L -90.927,34.6468 L -90.5621,34.5531
 L -90.1884,34.5059 L -89.8116,34.5059 L -89.4379,34.5531 L -89.073,34.6468 L -88.7227,34.7855 L -88.3925,34.967
 L -88.0877,35.1885 L -87.8131,35.4464 L -87.573,35.7366 L -87.3711,36.0547 L -87.2107,36.3956 L -87.0943,36.7539
 L -87.0237,37.124 L -87,37.5 L -87.0237,37.876 L -87.0943,38.2461 L -87.2107,38.6044 L -87.3711,38.9453
 L -87.573,39.2634 L -87.8131,39.5536 L -88.0877,39.8115 L -88.3925,40.033 L -88.7227,40.2145 L -89.073,40.3532
 L -89.4379,40.4469 L -89.8116,40.4941 z
" stroke="black" fill="lightgray" stroke-width="0.5"/>
</svg>
