<?xml version="1.0" standalone="no"?>
<!DOCTYPE svg PUBLIC "-//W3C//DTD SVG 1.1//EN" "http://www.w3.org/Graphics/SVG/1.1/DTD/svg11.dtd">
<svg width="134mm" height="44mm" viewBox="-67 -22 134 44" xmlns="http://www.w3.org/2000/svg" version="1.1">
<title>OpenSCAD Model</title>
<path d="
M 62.9369,21.9114 L 63.5451,21.7553 L 64.1289,21.5241 L 64.6791,21.2216 L 65.1871,20.8526 L 65.6448,20.4227
 L 66.0451,19.9389 L 66.3815,19.4088 L 66.6489,18.8406 L 66.8429,18.2434 L 66.9606,17.6267 L 67,17
 L 67,-17 L 66.9606,-17.6267 L 66.8429,-18.2434 L 66.6489,-18.8406 L 66.3815,-19.4088 L 66.0451,-19.9389
 L 65.6448,-20.4227 L 65.1871,-20.8526 L 64.6791,-21.2216 L 64.1289,-21.5241 L 63.5451,-21.7553 L 62.9369,-21.9114
 L 62.3139,-21.9901 L -62.3139,-21.9901 L -62.9369,-21.9114 L -63.5451,-21.7553 L -64.1289,-21.5241 L -64.6791,-21.2216
 L -65.1871,-20.8526 L -65.6448,-20.4227 L -66.0451,-19.9389 L -66.3815,-19.4088 L -66.6489,-18.8406 L -66.8429,-18.2434
 L -66.9606,-17.6267 L -67,-17 L -67,17 L -66.9606,17.6267 L -66.8429,18.2434 L -66.6489,18.8406
 L -66.3815,19.4088 L -66.0451,19.9389 L -65.6448,20.4227 L -65.1871,20.8526 L -64.6791,21.2216 L -64.1289,21.5241
 L -63.5451,21.7553 L -62.9369,21.9114 L -62.3139,21.9901 L 62.3139,21.9901 z
M -60.1884,-12.0059 L -60.5621,-12.0531 L -60.927,-12.1468 L -61.2773,-12.2855 L -61.6075,-12.467 L -61.9123,-12.6884
 L -62.1869,-12.9464 L -62.427,-13.2366 L -62.6289,-13.5547 L -62.7893,-13.8956 L -62.9057,-14.2539 L -62.9763,-14.624
 L -63,-15 L -62.9763,-15.376 L -62.9057,-15.7461 L -62.7893,-16.1044 L -62.6289,-16.4453 L -62.427,-16.7634
 L -62.1869,-17.0536 L -61.9123,-17.3115 L -61.6075,-17.533 L -61.2773,-17.7145 L -60.927,-17.8532 L -60.5621,-17.9469
 L -60.1884,-17.9941 L -59.8116,-17.9941 L -59.4379,-17.9469 L -59.0729,-17.8532 L -58.7227,-17.7145 L -58.3925,-17.533
 L -58.0877,-17.3115 L -57.8131,-17.0536 L -57.5729,-16.7634 L -57.3711,-16.4453 L -57.2107,-16.1044 L -57.0942,-15.7461
 L -57.0237,-15.376 L -57,-15 L -57.0237,-14.624 L -57.0942,-14.2539 L -57.2107,-13.8956 L -57.3711,-13.5547
 L -57.5729,-13.2366 L -57.8131,-12.9464 L -58.0877,-12.6884 L -58.3925,-12.467 L -58.7227,-12.2855 L -59.0729,-12.1468
 L -59.4379,-12.0531 L -59.8116,-12.0059 z
M 59.8116,-12.0059 L 59.4379,-12.0531 L 59.0729,-12.1468 L 58.7227,-12.2855 L 58.3925,-12.467 L 58.0877,-12.6884
 L 57.8131,-12.9464 L 57.5729,-13.2366 L 57.3711,-13.5547 L 57.2107,-13.8956 L 57.0942,-14.2539 L 57.0237,-14.624
 L 57,-15 L 57.0237,-15.376 L 57.0942,-15.7461 L 57.2107,-16.1044 L 57.3711,-16.4453 L 57.5729,-16.7634
 L 57.8131,-17.0536 L 58.0877,-17.3115 L 58.3925,-17.533 L 58.7227,-17.7145 L 59.0729,-17.8532 L 59.4379,-17.9469
 L 59.8116,-17.9941 L 60.1884,-17.9941 L 60.5621,-17.9469 L 60.927,-17.8532 L 61.2773,-17.7145 L 61.6075,-17.533
 L 61.9123,-17.3115 L 62.1869,-17.0536 L 62.427,-16.7634 L 62.6289,-16.4453 L 62.7893,-16.1044 L 62.9057,-15.7461
 L 62.9763,-15.376 L 63,-15 L 62.9763,-14.624 L 62.9057,-14.2539 L 62.7893,-13.8956 L 62.6289,-13.5547
 L 62.427,-13.2366 L 62.1869,-12.9464 L 61.9123,-12.6884 L 61.6075,-12.467 L 61.2773,-12.2855 L 60.927,-12.1468
 L 60.5621,-12.0531 L 60.1884,-12.0059 z
M 35.9953,15.9684 L 34.0019,15.7166 L 32.0557,15.2169 L 30.1875,14.4772 L 28.4268,13.5092 L 26.8012,12.3282
 L 25.3365,10.9527 L 24.0557,9.40456 L 22.9791,7.70805 L 22.1236,5.88998 L 21.5027,3.97903 L 21.1262,2.00533
 L 21,-0 L 21.1262,-2.00533 L 21.5027,-3.97903 L 22.1236,-5.88998 L 22.9791,-7.70805 L 24.0557,-9.40456
 L 25.3365,-10.9527 L 26.8012,-12.3282 L 28.4268,-13.5092 L 30.1875,-14.4772 L 32.0557,-15.2169 L 34.0019,-15.7166
 L 35.9953,-15.9684 L 38.0046,-15.9684 L 39.9981,-15.7166 L 41.9443,-15.2169 L 43.8125,-14.4772 L 45.5732,-13.5092
 L 47.1988,-12.3282 L 48.6635,-10.9527 L 49.9443,-9.40456 L 51.0209,-7.70805 L 51.8764,-5.88998 L 52.4973,-3.97903
 L 52.8738,-2.00533 L 53,-0 L 52.8738,2.00533 L 52.4973,3.97903 L 51.8764,5.88998 L 51.0209,7.70805
 L 49.9443,9.40456 L 48.6635,10.9527 L 47.1988,12.3282 L 45.5732,13.5092 L 43.8125,14.4772 L 41.9443,15.2169
 L 39.9981,15.7166 L 38.0046,15.9684 z
M -38.0046,15.9684 L -39.9981,15.7166 L -41.9443,15.2169 L -43.8125,14.4772 L -45.5732,13.5092 L -47.1988,12.3282
 L -48.6635,10.9527 L -49.9443,9.40456 L -51.0209,7.70805 L -51.8764,5.88998 L -52.4973,3.97903 L -52.8738,2.00533
 L -53,-0 L -52.8738,-2.00533 L -52.4973,-3.97903 L -51.8764,-5.88998 L -51.0209,-7.70805 L -49.9443,-9.40456
 L -48.6635,-10.9527 L -47.1988,-12.3282 L -45.5732,-13.5092 L -43.8125,-14.4772 L -41.9443,-15.2169 L -39.9981,-15.7166
 L -38.0046,-15.9684 L -35.9953,-15.9684 L -34.0019,-15.7166 L -32.0557,-15.2169 L -30.1875,-14.4772 L -28.4268,-13.5092
 L -26.8012,-12.3282 L -25.3365,-10.9527 L -24.0557,-9.40456 L -22.9791,-7.70805 L -22.1236,-5.88998 L -21.5027,-3.97903
 L -21.1262,-2.00533 L -21,-0 L -21.1262,2.00533 L -21.5027,3.97903 L -22.1236,5.88998 L -22.9791,7.70805
 L -24.0557,9.40456 L -25.3365,10.9527 L -26.8012,12.3282 L -28.4268,13.5092 L -30.1875,14.4772 L -32.0557,15.2169
 L -34.0019,15.7166 L -35.9953,15.9684 z
M -1.00464,15.9684 L -2.99809,15.7166 L -4.94426,15.2169 L -6.81245,14.4772 L -8.57323,13.5092 L -10.1988,12.3282
 L -11.6635,10.9527 L -12.9443,9.40456 L -14.0209,7.70805 L -14.8764,5.88998 L -15.4973,3.97903 L -15.8738,2.00533
 L -16,-0 L -15.8738,-2.00533 L -15.4973,-3.97903 L -14.8764,-5.88998 L -14.0209,-7.70805 L -12.9443,-9.40456
 L -11.6635,-10.9527 L -10.1988,-12.3282 L -8.57323,-13.5092 L -6.81245,-14.4772 L -4.94426,-15.2169 L -2.99809,-15.7166
 L -1.00464,-15.9684 L 1.00464,-15.9684 L 2.99809,-15.7166 L 4.94426,-15.2169 L 6.81245,-14.4772 L 8.57323,-13.5092
 L 10.1988,-12.3282 L 11.6635,-10.9527 L 12.9443,-9.40456 L 14.0209,-7.70805 L 14.8764,-5.88998 L 15.4973,-3.97903
 L 15.8738,-2.00533 L 16,-0 L 15.8738,2.00533 L 15.4973,3.97903 L 14.8764,5.88998 L 14.0209,7.70805
 L 12.9443,9.40456 L 11.6635,10.9527 L 10.1988,12.3282 L 8.57323,13.5092 L 6.81245,14.4772 L 4.94426,15.2169
 L 2.99809,15.7166 L 1.00464,15.9684 z
M -60.0942,-6.00294 L -60.2811,-6.02657 L -60.4635,-6.07341 L -60.6387,-6.14275 L -60.8037,-6.23351 L -60.9561,-6.34422
 L -61.0934,-6.47318 L -61.2135,-6.61832 L -61.3145,-6.77736 L -61.3947,-6.9478 L -61.4529,-7.12695 L -61.4882,-7.312
 L -61.5,-7.5 L -61.4882,-7.68799 L -61.4529,-7.87303 L -61.3947,-8.05219 L -61.3145,-8.22263 L -61.2135,-8.38167
 L -61.0934,-8.52681 L -60.9561,-8.65576 L -60.8037,-8.76648 L -60.6387,-8.85724 L -60.4635,-8.92657 L -60.2811,-8.97342
 L -60.0942,-8.99704 L -59.9058,-8.99704 L -59.7189,-8.97342 L -59.5365,-8.92657 L -59.3613,-8.85724 L -59.1963,-8.76648
 L -59.0439,-8.65576 L -58.9065,-8.52681 L -58.7865,-8.38167 L -58.6855,-8.22263 L -58.6053,-8.05219 L -58.5471,-7.87303
 L -58.5118,-7.68799 L -58.5,-7.5 L -58.5118,-7.312 L -58.5471,-7.12695 L -58.6053,-6.9478 L -58.6855,-6.77736
 L -58.7865,-6.61832 L -58.9065,-6.47318 L -59.0439,-6.34422 L -59.1963,-6.23351 L -59.3613,-6.14275 L -59.5365,-6.07341
 L -59.7189,-6.02657 L -59.9058,-6.00294 z
M 59.9058,-6.00294 L 59.7189,-6.02657 L 59.5365,-6.07341 L 59.3613,-6.14275 L 59.1963,-6.23351 L 59.0439,-6.34422
 L 58.9065,-6.47318 L 58.7865,-6.61832 L 58.6855,-6.77736 L 58.6053,-6.9478 L 58.5471,-7.12695 L 58.5118,-7.312
 L 58.5,-7.5 L 58.5118,-7.68799 L 58.5471,-7.87303 L 58.6053,-8.05219 L 58.6855,-8.22263 L 58.7865,-8.38167
 L 58.9065,-8.52681 L 59.0439,-8.65576 L 59.1963,-8.76648 L 59.3613,-8.85724 L 59.5365,-8.92657 L 59.7189,-8.97342
 L 59.9058,-8.99704 L 60.0942,-8.99704 L 60.2811,-8.97342 L 60.4635,-8.92657 L 60.6387,-8.85724 L 60.8037,-8.76648
 L 60.9561,-8.65576 L 61.0934,-8.52681 L 61.2135,-8.38167 L 61.3145,-8.22263 L 61.3947,-8.05219 L 61.4529,-7.87303
 L 61.4882,-7.68799 L 61.5,-7.5 L 61.4882,-7.312 L 61.4529,-7.12695 L 61.3947,-6.9478 L 61.3145,-6.77736
 L 61.2135,-6.61832 L 61.0934,-6.47318 L 60.9561,-6.34422 L 60.8037,-6.23351 L 60.6387,-6.14275 L 60.4635,-6.07341
 L 60.2811,-6.02657 L 60.0942,-6.00294 z
M 59.8116,2.99408 L 59.4379,2.94685 L 59.0729,2.85316 L 58.7227,2.71448 L 58.3925,2.53297 L 58.0877,2.31154
 L 57.8131,2.05363 L 57.5729,1.76335 L 57.3711,1.44525 L 57.2107,1.10437 L 57.0942,0.746063 L 57.0237,0.375992
 L 57,-0 L 57.0237,-0.375992 L 57.0942,-0.746063 L 57.2107,-1.10437 L 57.3711,-1.44525 L 57.5729,-1.76335
 L 57.8131,-2.05363 L 58.0877,-2.31154 L 58.3925,-2.53297 L 58.7227,-2.71448 L 59.0729,-2.85316 L 59.4379,-2.94685
 L 59.8116,-2.99408 L 60.1884,-2.99408 L 60.5621,-2.94685 L 60.927,-2.85316 L 61.2773,-2.71448 L 61.6075,-2.53297
 L 61.9123,-2.31154 L 62.1869,-2.05363 L 62.427,-1.76335 L 62.6289,-1.44525 L 62.7893,-1.10437 L 62.9057,-0.746063
 L 62.9763,-0.375992 L 63,-0 L 62.9763,0.375992 L 62.9057,0.746063 L 62.7893,1.10437 L 62.6289,1.44525
 L 62.427,1.76335 L 62.1869,2.05363 L 61.9123,2.31154 L 61.6075,2.53297 L 61.2773,2.71448 L 60.927,2.85316
 L 60.5621,2.94685 L 60.1884,2.99408 z
M -60.1884,2.99408 L -60.5621,2.94685 L -60.927,2.85316 L -61.2773,2.71448 L -61.6075,2.53297 L -61.9123,2.31154
 L -62.1869,2.05363 L -62.427,1.76335 L -62.6289,1.44525 L -62.7893,1.10437 L -62.9057,0.746063 L -62.9763,0.375992
 L -63,-0 L -62.9763,-0.375992 L -62.9057,-0.746063 L -62.7893,-1.10437 L -62.6289,-1.44525 L -62.427,-1.76335
 L -62.1869,-2.05363 L -61.9123,-2.31154 L -61.6075,-2.53297 L -61.2773,-2.71448 L -60.927,-2.85316 L -60.5621,-2.94685
 L -60.1884,-2.99408 L -59.8116,-2.99408 L -59.4379,-2.94685 L -59.0729,-2.85316 L -58.7227,-2.71448 L -58.3925,-2.53297
 L -58.0877,-2.31154 L -57.8131,-2.05363 L -57.5729,-1.76335 L -57.3711,-1.44525 L -57.2107,-1.10437 L -57.0942,-0.746063
 L -57.0237,-0.375992 L -57,-0 L -57.0237,0.375992 L -57.0942,0.746063 L -57.2107,1.10437 L -57.3711,1.44525
 L -57.5729,1.76335 L -57.8131,2.05363 L -58.0877,2.31154 L -58.3925,2.53297 L -58.7227,2.71448 L -59.0729,2.85316
 L -59.4379,2.94685 L -59.8116,2.99408 z
M -60.0942,8.99704 L -60.2811,8.97342 L -60.4635,8.92657 L -60.6387,8.85724 L -60.8037,8.76648 L -60.9561,8.65576
 L -61.0934,8.52681 L -61.2135,8.38167 L -61.3145,8.22263 L -61.3947,8.05219 L -61.4529,7.87303 L -61.4882,7.68799
 L -61.5,7.5 L -61.4882,7.312 L -61.4529,7.12695 L -61.3947,6.9478 L -61.3145,6.77736 L -61.2135,6.61832
 L -61.0934,6.47318 L -60.9561,6.34422 L -60.8037,6.23351 L -60.6387,6.14275 L -60.4635,6.07341 L -60.2811,6.02657
 L -60.0942,6.00294 L -59.9058,6.00294 L -59.7189,6.02657 L -59.5365,6.07341 L -59.3613,6.14275 L -59.1963,6.23351
 L -59.0439,6.34422 L -58.9065,6.47318 L -58.7865,6.61832 L -58.6855,6.77736 L -58.6053,6.9478 L -58.5471,7.12695
 L -58.5118,7.312 L -58.5,7.5 L -58.5118,7.68799 L -58.5471,7.87303 L -58.6053,8.05219 L -58.6855,8.22263
 L -58.7865,8.38167 L -58.9065,8.52681 L -59.0439,8.65576 L -59.1963,8.76648 L -59.3613,8.85724 L -59.5365,8.92657
 L -59.7189,8.97342 L -59.9058,8.99704 z
M 59.9058,8.99704 L 59.7189,8.97342 L 59.5365,8.92657 L 59.3613,8.85724 L 59.1963,8.76648 L 59.0439,8.65576
 L 58.9065,8.52681 L 58.7865,8.38167 L 58.6855,8.22263 L 58.6053,8.05219 L 58.5471,7.87303 L 58.5118,7.68799
 L 58.5,7.5 L 58.5118,7.312 L 58.5471,7.12695 L 58.6053,6.9478 L 58.6855,6.77736 L 58.7865,6.61832
 L 58.9065,6.47318 L 59.0439,6.34422 L 59.1963,6.23351 L 59.3613,6.14275 L 59.5365,6.07341 L 59.7189,6.02657
 L 59.9058,6.00294 L 60.0942,6.00294 L 60.2811,6.02657 L 60.4635,6.07341 L 60.6387,6.14275 L 60.8037,6.23351
 L 60.9561,6.34422 L 61.0934,6.47318 L 61.2135,6.61832 L 61.3145,6.77736 L 61.3947,6.9478 L 61.4529,7.12695
 L 61.4882,7.312 L 61.5,7.5 L 61.4882,7.68799 L 61.4529,7.87303 L 61.3947,8.05219 L 61.3145,8.22263
 L 61.2135,8.38167 L 61.0934,8.52681 L 60.9561,8.65576 L 60.8037,8.76648 L 60.6387,8.85724 L 60.4635,8.92657
 L 60.2811,8.97342 L 60.0942,8.99704 z
M 59.8116,17.9941 L 59.4379,17.9469 L 59.0729,17.8532 L 58.7227,17.7145 L 58.3925,17.533 L 58.0877,17.3115
 L 57.8131,17.0536 L 57.5729,16.7634 L 57.3711,16.4453 L 57.2107,16.1044 L 57.0942,15.7461 L 57.0237,15.376
 L 57,15 L 57.0237,14.624 L 57.0942,14.2539 L 57.2107,13.8956 L 57.3711,13.5547 L 57.5729,13.2366
 L 57.8131,12.9464 L 58.0877,12.6884 L 58.3925,12.467 L 58.7227,12.2855 L 59.0729,12.1468 L 59.4379,12.0531
 L 59.8116,12.0059 L 60.1884,12.0059 L 60.5621,12.0531 L 60.927,12.1468 L 61.2773,12.2855 L 61.6075,12.467
 L 61.9123,12.6884 L 62.1869,12.9464 L 62.427,13.2366 L 62.6289,13.5547 L 62.7893,13.8956 L 62.9057,14.2539
 L 62.9763,14.624 L 63,15 L 62.9763,15.376 L 62.9057,15.7461 L 62.7893,16.1044 L 62.6289,16.4453
 L 62.427,16.7634 L 62.1869,17.0536 L 61.9123,17.3115 L 61.6075,17.533 L 61.2773,17.7145 L 60.927,17.8532
 L 60.5621,17.9469 L 60.1884,17.9941 z
M -60.1884,17.9941 L -60.5621,17.9469 L -60.927,17.8532 L -61.2773,17.7145 L -61.6075,17.533 L -61.9123,17.3115
 L -62.1869,17.0536 L -62.427,16.7634 L -62.6289,16.4453 L -62.7893,16.1044 L -62.9057,15.7461 L -62.9763,15.376
 L -63,15 L -62.9763,14.624 L -62.9057,14.2539 L -62.7893,13.8956 L -62.6289,13.5547 L -62.427,13.2366
 L -62.1869,12.9464 L -61.9123,12.6884 L -61.6075,12.467 L -61.2773,12.2855 L -60.927,12.1468 L -60.5621,12.0531
 L -60.1884,12.0059 L -59.8116,12.0059 L -59.4379,12.0531 L -59.0729,12.1468 L -58.7227,12.2855 L -58.3925,12.467
 L -58.0877,12.6884 L -57.8131,12.9464 L -57.5729,13.2366 L -57.3711,13.5547 L -57.2107,13.8956 L -57.0942,14.2539
 L -57.0237,14.624 L -57,15 L -57.0237,15.376 L -57.0942,15.7461 L -57.2107,16.1044 L -57.3711,16.4453
 L -57.5729,16.7634 L -57.8131,17.0536 L -58.0877,17.3115 L -58.3925,17.533 L -58.7227,17.7145 L -59.0729,17.8532
 L -59.4379,17.9469 L -59.8116,17.9941 z
" stroke="black" fill="lightgray" stroke-width="0.5"/>
</svg>
