<?xml version="1.0" standalone="no"?>
<!DOCTYPE svg PUBLIC "-//W3C//DTD SVG 1.1//EN" "http://www.w3.org/Graphics/SVG/1.1/DTD/svg11.dtd">
<svg width="330mm" height="74mm" viewBox="-165 -37 330 74" xmlns="http://www.w3.org/2000/svg" version="1.1">
<title>OpenSCAD Model</title>
<path d="
M 160.437,36.9114 L 161.045,36.7553 L 161.629,36.5241 L 162.179,36.2216 L 162.687,35.8526 L 163.145,35.4227
 L 163.545,34.9389 L 163.882,34.4088 L 164.149,33.8406 L 164.343,33.2434 L 164.461,32.6267 L 164.5,32
 L 164.5,-32 L 164.461,-32.6267 L 164.343,-33.2434 L 164.149,-33.8406 L 163.882,-34.4088 L 163.545,-34.9389
 L 163.145,-35.4227 L 162.687,-35.8526 L 162.179,-36.2216 L 161.629,-36.5241 L 161.045,-36.7553 L 160.437,-36.9114
 L 159.814,-36.9901 L -159.814,-36.9901 L -160.437,-36.9114 L -161.045,-36.7553 L -161.629,-36.5241 L -162.179,-36.2216
 L -162.687,-35.8526 L -163.145,-35.4227 L -163.545,-34.9389 L -163.882,-34.4088 L -164.149,-33.8406 L -164.343,-33.2434
 L -164.461,-32.6267 L -164.5,-32 L -164.5,32 L -164.461,32.6267 L -164.343,33.2434 L -164.149,33.8406
 L -163.882,34.4088 L -163.545,34.9389 L -163.145,35.4227 L -162.687,35.8526 L -162.179,36.2216 L -161.629,36.5241
 L -161.045,36.7553 L -160.437,36.9114 L -159.814,36.9901 L 159.814,36.9901 z
M 157.312,-27.0059 L 156.938,-27.0531 L 156.573,-27.1468 L 156.223,-27.2855 L 155.893,-27.467 L 155.588,-27.6884
 L 155.313,-27.9464 L 155.073,-28.2366 L 154.871,-28.5547 L 154.711,-28.8956 L 154.594,-29.2539 L 154.524,-29.624
 L 154.5,-30 L 154.524,-30.376 L 154.594,-30.7461 L 154.711,-31.1044 L 154.871,-31.4453 L 155.073,-31.7634
 L 155.313,-32.0536 L 155.588,-32.3115 L 155.893,-32.533 L 156.223,-32.7145 L 156.573,-32.8532 L 156.938,-32.9469
 L 157.312,-32.9941 L 157.688,-32.9941 L 158.062,-32.9469 L 158.427,-32.8532 L 158.777,-32.7145 L 159.107,-32.533
 L 159.412,-32.3115 L 159.687,-32.0536 L 159.927,-31.7634 L 160.129,-31.4453 L 160.289,-31.1044 L 160.406,-30.7461
 L 160.476,-30.376 L 160.5,-30 L 160.476,-29.624 L 160.406,-29.2539 L 160.289,-28.8956 L 160.129,-28.5547
 L 159.927,-28.2366 L 159.687,-27.9464 L 159.412,-27.6884 L 159.107,-27.467 L 158.777,-27.2855 L 158.427,-27.1468
 L 158.062,-27.0531 L 157.688,-27.0059 z
M -157.688,-27.0059 L -158.062,-27.0531 L -158.427,-27.1468 L -158.777,-27.2855 L -159.107,-27.467 L -159.412,-27.6884
 L -159.687,-27.9464 L -159.927,-28.2366 L -160.129,-28.5547 L -160.289,-28.8956 L -160.406,-29.2539 L -160.476,-29.624
 L -160.5,-30 L -160.476,-30.376 L -160.406,-30.7461 L -160.289,-31.1044 L -160.129,-31.4453 L -159.927,-31.7634
 L -159.687,-32.0536 L -159.412,-32.3115 L -159.107,-32.533 L -158.777,-32.7145 L -158.427,-32.8532 L -158.062,-32.9469
 L -157.688,-32.9941 L -157.312,-32.9941 L -156.938,-32.9469 L -156.573,-32.8532 L -156.223,-32.7145 L -155.893,-32.533
 L -155.588,-32.3115 L -155.313,-32.0536 L -155.073,-31.7634 L -154.871,-31.4453 L -154.711,-31.1044 L -154.594,-30.7461
 L -154.524,-30.376 L -154.5,-30 L -154.524,-29.624 L -154.594,-29.2539 L -154.711,-28.8956 L -154.871,-28.5547
 L -155.073,-28.2366 L -155.313,-27.9464 L -155.588,-27.6884 L -155.893,-27.467 L -156.223,-27.2855 L -156.573,-27.1468
 L -156.938,-27.0531 L -157.312,-27.0059 z
M 63.1163,29.9408 L 59.3786,29.4686 L 55.7295,28.5317 L 52.2266,27.1448 L 48.9252,25.3298 L 45.8773,23.1154
 L 43.1309,20.5364 L 40.7295,17.6335 L 38.7108,14.4526 L 37.1067,11.0437 L 35.9425,7.46069 L 35.2366,3.75999
 L 35,-0 L 35.2366,-3.75999 L 35.9425,-7.46069 L 37.1067,-11.0437 L 38.7108,-14.4526 L 40.7295,-17.6335
 L 43.1309,-20.5364 L 45.8773,-23.1154 L 48.9252,-25.3298 L 52.2266,-27.1448 L 55.7295,-28.5317 L 59.3786,-29.4686
 L 63.1163,-29.9408 L 66.8837,-29.9408 L 70.6214,-29.4686 L 74.2705,-28.5317 L 77.7734,-27.1448 L 81.0748,-25.3298
 L 84.1227,-23.1154 L 86.869,-20.5364 L 89.2705,-17.6335 L 91.2892,-14.4526 L 92.8933,-11.0437 L 94.0575,-7.46069
 L 94.7634,-3.75999 L 95,-0 L 94.7634,3.75999 L 94.0575,7.46069 L 92.8933,11.0437 L 91.2892,14.4526
 L 89.2705,17.6335 L 86.869,20.5364 L 84.1227,23.1154 L 81.0748,25.3298 L 77.7734,27.1448 L 74.2705,28.5317
 L 70.6214,29.4686 L 66.8837,29.9408 z
M 128.116,29.9408 L 124.379,29.4686 L 120.729,28.5317 L 117.227,27.1448 L 113.925,25.3298 L 110.877,23.1154
 L 108.131,20.5364 L 105.729,17.6335 L 103.711,14.4526 L 102.107,11.0437 L 100.943,7.46069 L 100.237,3.75999
 L 100,-0 L 100.237,-3.75999 L 100.943,-7.46069 L 102.107,-11.0437 L 103.711,-14.4526 L 105.729,-17.6335
 L 108.131,-20.5364 L 110.877,-23.1154 L 113.925,-25.3298 L 117.227,-27.1448 L 120.729,-28.5317 L 124.379,-29.4686
 L 128.116,-29.9408 L 131.884,-29.9408 L 135.621,-29.4686 L 139.271,-28.5317 L 142.773,-27.1448 L 146.075,-25.3298
 L 149.123,-23.1154 L 151.869,-20.5364 L 154.271,-17.6335 L 156.289,-14.4526 L 157.893,-11.0437 L 159.057,-7.46069
 L 159.763,-3.75999 L 160,-0 L 159.763,3.75999 L 159.057,7.46069 L 157.893,11.0437 L 156.289,14.4526
 L 154.271,17.6335 L 151.869,20.5364 L 149.123,23.1154 L 146.075,25.3298 L 142.773,27.1448 L 139.271,28.5317
 L 135.621,29.4686 L 131.884,29.9408 z
M -66.8837,29.9408 L -70.6214,29.4686 L -74.2705,28.5317 L -77.7734,27.1448 L -81.0748,25.3298 L -84.1227,23.1154
 L -86.869,20.5364 L -89.2705,17.6335 L -91.2892,14.4526 L -92.8933,11.0437 L -94.0575,7.46069 L -94.7634,3.75999
 L -95,-0 L -94.7634,-3.75999 L -94.0575,-7.46069 L -92.8933,-11.0437 L -91.2892,-14.4526 L -89.2705,-17.6335
 L -86.869,-20.5364 L -84.1227,-23.1154 L -81.0748,-25.3298 L -77.7734,-27.1448 L -74.2705,-28.5317 L -70.6214,-29.4686
 L -66.8837,-29.9408 L -63.1163,-29.9408 L -59.3786,-29.4686 L -55.7295,-28.5317 L -52.2266,-27.1448 L -48.9252,-25.3298
 L -45.8773,-23.1154 L -43.1309,-20.5364 L -40.7295,-17.6335 L -38.7108,-14.4526 L -37.1067,-11.0437 L -35.9425,-7.46069
 L -35.2366,-3.75999 L -35,-0 L -35.2366,3.75999 L -35.9425,7.46069 L -37.1067,11.0437 L -38.7108,14.4526
 L -40.7295,17.6335 L -43.1309,20.5364 L -45.8773,23.1154 L -48.9252,25.3298 L -52.2266,27.1448 L -55.7295,28.5317
 L -59.3786,29.4686 L -63.1163,29.9408 z
M -131.884,29.9408 L -135.621,29.4686 L -139.271,28.5317 L -142.773,27.1448 L -146.075,25.3298 L -149.123,23.1154
 L -151.869,20.5364 L -154.271,17.6335 L -156.289,14.4526 L -157.893,11.0437 L -159.057,7.46069 L -159.763,3.75999
 L -160,-0 L -159.763,-3.75999 L -159.057,-7.46069 L -157.893,-11.0437 L -156.289,-14.4526 L -154.271,-17.6335
 L -151.869,-20.5364 L -149.123,-23.1154 L -146.075,-25.3298 L -142.773,-27.1448 L -139.271,-28.5317 L -135.621,-29.4686
 L -131.884,-29.9408 L -128.116,-29.9408 L -124.379,-29.4686 L -120.729,-28.5317 L -117.227,-27.1448 L -113.925,-25.3298
 L -110.877,-23.1154 L -108.131,-20.5364 L -105.729,-17.6335 L -103.711,-14.4526 L -102.107,-11.0437 L -100.943,-7.46069
 L -100.237,-3.75999 L -100,-0 L -100.237,3.75999 L -100.943,7.46069 L -102.107,11.0437 L -103.711,14.4526
 L -105.729,17.6335 L -108.131,20.5364 L -110.877,23.1154 L -113.925,25.3298 L -117.227,27.1448 L -120.729,28.5317
 L -124.379,29.4686 L -128.116,29.9408 z
M -1.88371,29.9408 L -5.62143,29.4686 L -9.27051,28.5317 L -12.7734,27.1448 L -16.0748,25.3298 L -19.1227,23.1154
 L -21.869,20.5364 L -24.2705,17.6335 L -26.2892,14.4526 L -27.8933,11.0437 L -29.0575,7.46069 L -29.7634,3.75999
 L -30,-0 L -29.7634,-3.75999 L -29.0575,-7.46069 L -27.8933,-11.0437 L -26.2892,-14.4526 L -24.2705,-17.6335
 L -21.869,-20.5364 L -19.1227,-23.1154 L -16.0748,-25.3298 L -12.7734,-27.1448 L -9.27051,-28.5317 L -5.62143,-29.4686
 L -1.88371,-29.9408 L 1.88371,-29.9408 L 5.62143,-29.4686 L 9.27051,-28.5317 L 12.7734,-27.1448 L 16.0748,-25.3298
 L 19.1227,-23.1154 L 21.869,-20.5364 L 24.2705,-17.6335 L 26.2892,-14.4526 L 27.8933,-11.0437 L 29.0575,-7.46069
 L 29.7634,-3.75999 L 30,-0 L 29.7634,3.75999 L 29.0575,7.46069 L 27.8933,11.0437 L 26.2892,14.4526
 L 24.2705,17.6335 L 21.869,20.5364 L 19.1227,23.1154 L 16.0748,25.3298 L 12.7734,27.1448 L 9.27051,28.5317
 L 5.62143,29.4686 L 1.88371,29.9408 z
M 157.312,32.9941 L 156.938,32.9469 L 156.573,32.8532 L 156.223,32.7145 L 155.893,32.533 L 155.588,32.3115
 L 155.313,32.0536 L 155.073,31.7634 L 154.871,31.4453 L 154.711,31.1044 L 154.594,30.7461 L 154.524,30.376
 L 154.5,30 L 154.524,29.624 L 154.594,29.2539 L 154.711,28.8956 L 154.871,28.5547 L 155.073,28.2366
 L 155.313,27.9464 L 155.588,27.6884 L 155.893,27.467 L 156.223,27.2855 L 156.573,27.1468 L 156.938,27.0531
 L 157.312,27.0059 L 157.688,27.0059 L 158.062,27.0531 L 158.427,27.1468 L 158.777,27.2855 L 159.107,27.467
 L 159.412,27.6884 L 159.687,27.9464 L 159.927,28.2366 L 160.129,28.5547 L 160.289,28.8956 L 160.406,29.2539
 L 160.476,29.624 L 160.5,30 L 160.476,30.376 L 160.406,30.7461 L 160.289,31.1044 L 160.129,31.4453
 L 159.927,31.7634 L 159.687,32.0536 L 159.412,32.3115 L 159.107,32.533 L 158.777,32.7145 L 158.427,32.8532
 L 158.062,32.9469 L 157.688,32.9941 z
M -157.688,32.9941 L -158.062,32.9469 L -158.427,32.8532 L -158.777,32.7145 L -159.107,32.533 L -159.412,32.3115
 L -159.687,32.0536 L -159.927,31.7634 L -160.129,31.4453 L -160.289,31.1044 L -160.406,30.7461 L -160.476,30.376
 L -160.5,30 L -160.476,29.624 L -160.406,29.2539 L -160.289,28.8956 L -160.129,28.5547 L -159.927,28.2366
 L -159.687,27.9464 L -159.412,27.6884 L -159.107,27.467 L -158.777,27.2855 L -158.427,27.1468 L -158.062,27.0531
 L -157.688,27.0059 L -157.312,27.0059 L -156.938,27.0531 L -156.573,27.1468 L -156.223,27.2855 L -155.893,27.467
 L -155.588,27.6884 L -155.313,27.9464 L -155.073,28.2366 L -154.871,28.5547 L -154.711,28.8956 L -154.594,29.2539
 L -154.524,29.624 L -154.5,30 L -154.524,30.376 L -154.594,30.7461 L -154.711,31.1044 L -154.871,31.4453
 L -155.073,31.7634 L -155.313,32.0536 L -155.588,32.3115 L -155.893,32.533 L -156.223,32.7145 L -156.573,32.8532
 L -156.938,32.9469 L -157.312,32.9941 z
" stroke="black" fill="lightgray" stroke-width="0.5"/>
</svg>
