  0
SECTION
  2
BLOCKS
  0
ENDSEC
  0
SECTION
  2
ENTITIES
  0
LINE
  8
0
 10
92.9369
 20
-51.9114
 11
93.5451
 21
-51.7553
  0
LINE
  8
0
 10
93.5451
 20
-51.7553
 11
94.1289
 21
-51.5241
  0
LINE
  8
0
 10
94.1289
 20
-51.5241
 11
94.6791
 21
-51.2216
  0
LINE
  8
0
 10
94.6791
 20
-51.2216
 11
95.1871
 21
-50.8526
  0
LINE
  8
0
 10
95.1871
 20
-50.8526
 11
95.6448
 21
-50.4227
  0
LINE
  8
0
 10
95.6448
 20
-50.4227
 11
96.0451
 21
-49.9389
  0
LINE
  8
0
 10
96.0451
 20
-49.9389
 11
96.3815
 21
-49.4088
  0
LINE
  8
0
 10
96.3815
 20
-49.4088
 11
96.6489
 21
-48.8406
  0
LINE
  8
0
 10
96.6489
 20
-48.8406
 11
96.8429
 21
-48.2434
  0
LINE
  8
0
 10
96.8429
 20
-48.2434
 11
96.9606
 21
-47.6267
  0
LINE
  8
0
 10
96.9606
 20
-47.6267
 11
97
 21
-47
  0
LINE
  8
0
 10
97
 20
-47
 11
97
 21
47
  0
LINE
  8
0
 10
97
 20
47
 11
96.9606
 21
47.6267
  0
LINE
  8
0
 10
96.9606
 20
47.6267
 11
96.8429
 21
48.2434
  0
LINE
  8
0
 10
96.8429
 20
48.2434
 11
96.6489
 21
48.8406
  0
LINE
  8
0
 10
96.6489
 20
48.8406
 11
96.3815
 21
49.4088
  0
LINE
  8
0
 10
96.3815
 20
49.4088
 11
96.0451
 21
49.9389
  0
LINE
  8
0
 10
96.0451
 20
49.9389
 11
95.6448
 21
50.4227
  0
LINE
  8
0
 10
95.6448
 20
50.4227
 11
95.1871
 21
50.8526
  0
LINE
  8
0
 10
95.1871
 20
50.8526
 11
94.6791
 21
51.2216
  0
LINE
  8
0
 10
94.6791
 20
51.2216
 11
94.1289
 21
51.5241
  0
LINE
  8
0
 10
94.1289
 20
51.5241
 11
93.5451
 21
51.7553
  0
LINE
  8
0
 10
93.5451
 20
51.7553
 11
92.9369
 21
51.9114
  0
LINE
  8
0
 10
92.9369
 20
51.9114
 11
92.3139
 21
51.9901
  0
LINE
  8
0
 10
92.3139
 20
51.9901
 11
-92.3139
 21
51.9901
  0
LINE
  8
0
 10
-92.3139
 20
51.9901
 11
-92.9369
 21
51.9114
  0
LINE
  8
0
 10
-92.9369
 20
51.9114
 11
-93.5451
 21
51.7553
  0
LINE
  8
0
 10
-93.5451
 20
51.7553
 11
-94.1289
 21
51.5241
  0
LINE
  8
0
 10
-94.1289
 20
51.5241
 11
-94.6791
 21
51.2216
  0
LINE
  8
0
 10
-94.6791
 20
51.2216
 11
-95.1871
 21
50.8526
  0
LINE
  8
0
 10
-95.1871
 20
50.8526
 11
-95.6448
 21
50.4227
  0
LINE
  8
0
 10
-95.6448
 20
50.4227
 11
-96.0451
 21
49.9389
  0
LINE
  8
0
 10
-96.0451
 20
49.9389
 11
-96.3815
 21
49.4088
  0
LINE
  8
0
 10
-96.3815
 20
49.4088
 11
-96.6489
 21
48.8406
  0
LINE
  8
0
 10
-96.6489
 20
48.8406
 11
-96.8429
 21
48.2434
  0
LINE
  8
0
 10
-96.8429
 20
48.2434
 11
-96.9606
 21
47.6267
  0
LINE
  8
0
 10
-96.9606
 20
47.6267
 11
-97
 21
47
  0
LINE
  8
0
 10
-97
 20
47
 11
-97
 21
-47
  0
LINE
  8
0
 10
-97
 20
-47
 11
-96.9606
 21
-47.6267
  0
LINE
  8
0
 10
-96.9606
 20
-47.6267
 11
-96.8429
 21
-48.2434
  0
LINE
  8
0
 10
-96.8429
 20
-48.2434
 11
-96.6489
 21
-48.8406
  0
LINE
  8
0
 10
-96.6489
 20
-48.8406
 11
-96.3815
 21
-49.4088
  0
LINE
  8
0
 10
-96.3815
 20
-49.4088
 11
-96.0451
 21
-49.9389
  0
LINE
  8
0
 10
-96.0451
 20
-49.9389
 11
-95.6448
 21
-50.4227
  0
LINE
  8
0
 10
-95.6448
 20
-50.4227
 11
-95.1871
 21
-50.8526
  0
LINE
  8
0
 10
-95.1871
 20
-50.8526
 11
-94.6791
 21
-51.2216
  0
LINE
  8
0
 10
-94.6791
 20
-51.2216
 11
-94.1289
 21
-51.5241
  0
LINE
  8
0
 10
-94.1289
 20
-51.5241
 11
-93.5451
 21
-51.7553
  0
LINE
  8
0
 10
-93.5451
 20
-51.7553
 11
-92.9369
 21
-51.9114
  0
LINE
  8
0
 10
-92.9369
 20
-51.9114
 11
-92.3139
 21
-51.9901
  0
LINE
  8
0
 10
-92.3139
 20
-51.9901
 11
92.3139
 21
-51.9901
  0
LINE
  8
0
 10
92.3139
 20
-51.9901
 11
92.9369
 21
-51.9114
  0
LINE
  8
0
 10
89.8116
 20
42.0059
 11
89.4379
 21
42.0531
  0
LINE
  8
0
 10
89.4379
 20
42.0531
 11
89.073
 21
42.1468
  0
LINE
  8
0
 10
89.073
 20
42.1468
 11
88.7227
 21
42.2855
  0
LINE
  8
0
 10
88.7227
 20
42.2855
 11
88.3925
 21
42.467
  0
LINE
  8
0
 10
88.3925
 20
42.467
 11
88.0877
 21
42.6885
  0
LINE
  8
0
 10
88.0877
 20
42.6885
 11
87.8131
 21
42.9464
  0
LINE
  8
0
 10
87.8131
 20
42.9464
 11
87.573
 21
43.2366
  0
LINE
  8
0
 10
87.573
 20
43.2366
 11
87.3711
 21
43.5547
  0
LINE
  8
0
 10
87.3711
 20
43.5547
 11
87.2107
 21
43.8956
  0
LINE
  8
0
 10
87.2107
 20
43.8956
 11
87.0943
 21
44.2539
  0
LINE
  8
0
 10
87.0943
 20
44.2539
 11
87.0237
 21
44.624
  0
LINE
  8
0
 10
87.0237
 20
44.624
 11
87
 21
45
  0
LINE
  8
0
 10
87
 20
45
 11
87.0237
 21
45.376
  0
LINE
  8
0
 10
87.0237
 20
45.376
 11
87.0943
 21
45.7461
  0
LINE
  8
0
 10
87.0943
 20
45.7461
 11
87.2107
 21
46.1044
  0
LINE
  8
0
 10
87.2107
 20
46.1044
 11
87.3711
 21
46.4453
  0
LINE
  8
0
 10
87.3711
 20
46.4453
 11
87.573
 21
46.7634
  0
LINE
  8
0
 10
87.573
 20
46.7634
 11
87.8131
 21
47.0536
  0
LINE
  8
0
 10
87.8131
 20
47.0536
 11
88.0877
 21
47.3115
  0
LINE
  8
0
 10
88.0877
 20
47.3115
 11
88.3925
 21
47.533
  0
LINE
  8
0
 10
88.3925
 20
47.533
 11
88.7227
 21
47.7145
  0
LINE
  8
0
 10
88.7227
 20
47.7145
 11
89.073
 21
47.8532
  0
LINE
  8
0
 10
89.073
 20
47.8532
 11
89.4379
 21
47.9469
  0
LINE
  8
0
 10
89.4379
 20
47.9469
 11
89.8116
 21
47.9941
  0
LINE
  8
0
 10
89.8116
 20
47.9941
 11
90.1884
 21
47.9941
  0
LINE
  8
0
 10
90.1884
 20
47.9941
 11
90.5621
 21
47.9469
  0
LINE
  8
0
 10
90.5621
 20
47.9469
 11
90.927
 21
47.8532
  0
LINE
  8
0
 10
90.927
 20
47.8532
 11
91.2773
 21
47.7145
  0
LINE
  8
0
 10
91.2773
 20
47.7145
 11
91.6075
 21
47.533
  0
LINE
  8
0
 10
91.6075
 20
47.533
 11
91.9123
 21
47.3115
  0
LINE
  8
0
 10
91.9123
 20
47.3115
 11
92.1869
 21
47.0536
  0
LINE
  8
0
 10
92.1869
 20
47.0536
 11
92.427
 21
46.7634
  0
LINE
  8
0
 10
92.427
 20
46.7634
 11
92.6289
 21
46.4453
  0
LINE
  8
0
 10
92.6289
 20
46.4453
 11
92.7893
 21
46.1044
  0
LINE
  8
0
 10
92.7893
 20
46.1044
 11
92.9057
 21
45.7461
  0
LINE
  8
0
 10
92.9057
 20
45.7461
 11
92.9763
 21
45.376
  0
LINE
  8
0
 10
92.9763
 20
45.376
 11
93
 21
45
  0
LINE
  8
0
 10
93
 20
45
 11
92.9763
 21
44.624
  0
LINE
  8
0
 10
92.9763
 20
44.624
 11
92.9057
 21
44.2539
  0
LINE
  8
0
 10
92.9057
 20
44.2539
 11
92.7893
 21
43.8956
  0
LINE
  8
0
 10
92.7893
 20
43.8956
 11
92.6289
 21
43.5547
  0
LINE
  8
0
 10
92.6289
 20
43.5547
 11
92.427
 21
43.2366
  0
LINE
  8
0
 10
92.427
 20
43.2366
 11
92.1869
 21
42.9464
  0
LINE
  8
0
 10
92.1869
 20
42.9464
 11
91.9123
 21
42.6885
  0
LINE
  8
0
 10
91.9123
 20
42.6885
 11
91.6075
 21
42.467
  0
LINE
  8
0
 10
91.6075
 20
42.467
 11
91.2773
 21
42.2855
  0
LINE
  8
0
 10
91.2773
 20
42.2855
 11
90.927
 21
42.1468
  0
LINE
  8
0
 10
90.927
 20
42.1468
 11
90.5621
 21
42.0531
  0
LINE
  8
0
 10
90.5621
 20
42.0531
 11
90.1884
 21
42.0059
  0
LINE
  8
0
 10
90.1884
 20
42.0059
 11
89.8116
 21
42.0059
  0
LINE
  8
0
 10
-90.1884
 20
42.0059
 11
-90.5621
 21
42.0531
  0
LINE
  8
0
 10
-90.5621
 20
42.0531
 11
-90.927
 21
42.1468
  0
LINE
  8
0
 10
-90.927
 20
42.1468
 11
-91.2773
 21
42.2855
  0
LINE
  8
0
 10
-91.2773
 20
42.2855
 11
-91.6075
 21
42.467
  0
LINE
  8
0
 10
-91.6075
 20
42.467
 11
-91.9123
 21
42.6885
  0
LINE
  8
0
 10
-91.9123
 20
42.6885
 11
-92.1869
 21
42.9464
  0
LINE
  8
0
 10
-92.1869
 20
42.9464
 11
-92.427
 21
43.2366
  0
LINE
  8
0
 10
-92.427
 20
43.2366
 11
-92.6289
 21
43.5547
  0
LINE
  8
0
 10
-92.6289
 20
43.5547
 11
-92.7893
 21
43.8956
  0
LINE
  8
0
 10
-92.7893
 20
43.8956
 11
-92.9057
 21
44.2539
  0
LINE
  8
0
 10
-92.9057
 20
44.2539
 11
-92.9763
 21
44.624
  0
LINE
  8
0
 10
-92.9763
 20
44.624
 11
-93
 21
45
  0
LINE
  8
0
 10
-93
 20
45
 11
-92.9763
 21
45.376
  0
LINE
  8
0
 10
-92.9763
 20
45.376
 11
-92.9057
 21
45.7461
  0
LINE
  8
0
 10
-92.9057
 20
45.7461
 11
-92.7893
 21
46.1044
  0
LINE
  8
0
 10
-92.7893
 20
46.1044
 11
-92.6289
 21
46.4453
  0
LINE
  8
0
 10
-92.6289
 20
46.4453
 11
-92.427
 21
46.7634
  0
LINE
  8
0
 10
-92.427
 20
46.7634
 11
-92.1869
 21
47.0536
  0
LINE
  8
0
 10
-92.1869
 20
47.0536
 11
-91.9123
 21
47.3115
  0
LINE
  8
0
 10
-91.9123
 20
47.3115
 11
-91.6075
 21
47.533
  0
LINE
  8
0
 10
-91.6075
 20
47.533
 11
-91.2773
 21
47.7145
  0
LINE
  8
0
 10
-91.2773
 20
47.7145
 11
-90.927
 21
47.8532
  0
LINE
  8
0
 10
-90.927
 20
47.8532
 11
-90.5621
 21
47.9469
  0
LINE
  8
0
 10
-90.5621
 20
47.9469
 11
-90.1884
 21
47.9941
  0
LINE
  8
0
 10
-90.1884
 20
47.9941
 11
-89.8116
 21
47.9941
  0
LINE
  8
0
 10
-89.8116
 20
47.9941
 11
-89.4379
 21
47.9469
  0
LINE
  8
0
 10
-89.4379
 20
47.9469
 11
-89.073
 21
47.8532
  0
LINE
  8
0
 10
-89.073
 20
47.8532
 11
-88.7227
 21
47.7145
  0
LINE
  8
0
 10
-88.7227
 20
47.7145
 11
-88.3925
 21
47.533
  0
LINE
  8
0
 10
-88.3925
 20
47.533
 11
-88.0877
 21
47.3115
  0
LINE
  8
0
 10
-88.0877
 20
47.3115
 11
-87.8131
 21
47.0536
  0
LINE
  8
0
 10
-87.8131
 20
47.0536
 11
-87.573
 21
46.7634
  0
LINE
  8
0
 10
-87.573
 20
46.7634
 11
-87.3711
 21
46.4453
  0
LINE
  8
0
 10
-87.3711
 20
46.4453
 11
-87.2107
 21
46.1044
  0
LINE
  8
0
 10
-87.2107
 20
46.1044
 11
-87.0943
 21
45.7461
  0
LINE
  8
0
 10
-87.0943
 20
45.7461
 11
-87.0237
 21
45.376
  0
LINE
  8
0
 10
-87.0237
 20
45.376
 11
-87
 21
45
  0
LINE
  8
0
 10
-87
 20
45
 11
-87.0237
 21
44.624
  0
LINE
  8
0
 10
-87.0237
 20
44.624
 11
-87.0943
 21
44.2539
  0
LINE
  8
0
 10
-87.0943
 20
44.2539
 11
-87.2107
 21
43.8956
  0
LINE
  8
0
 10
-87.2107
 20
43.8956
 11
-87.3711
 21
43.5547
  0
LINE
  8
0
 10
-87.3711
 20
43.5547
 11
-87.573
 21
43.2366
  0
LINE
  8
0
 10
-87.573
 20
43.2366
 11
-87.8131
 21
42.9464
  0
LINE
  8
0
 10
-87.8131
 20
42.9464
 11
-88.0877
 21
42.6885
  0
LINE
  8
0
 10
-88.0877
 20
42.6885
 11
-88.3925
 21
42.467
  0
LINE
  8
0
 10
-88.3925
 20
42.467
 11
-88.7227
 21
42.2855
  0
LINE
  8
0
 10
-88.7227
 20
42.2855
 11
-89.073
 21
42.1468
  0
LINE
  8
0
 10
-89.073
 20
42.1468
 11
-89.4379
 21
42.0531
  0
LINE
  8
0
 10
-89.4379
 20
42.0531
 11
-89.8116
 21
42.0059
  0
LINE
  8
0
 10
-89.8116
 20
42.0059
 11
-90.1884
 21
42.0059
  0
LINE
  8
0
 10
44.6744
 20
-44.9112
 11
39.0678
 21
-44.2029
  0
LINE
  8
0
 10
39.0678
 20
-44.2029
 11
33.5942
 21
-42.7975
  0
LINE
  8
0
 10
33.5942
 20
-42.7975
 11
28.3399
 21
-40.7172
  0
LINE
  8
0
 10
28.3399
 20
-40.7172
 11
23.3878
 21
-37.9948
  0
LINE
  8
0
 10
23.3878
 20
-37.9948
 11
18.8159
 21
-34.6731
  0
LINE
  8
0
 10
18.8159
 20
-34.6731
 11
14.6964
 21
-30.8046
  0
LINE
  8
0
 10
14.6964
 20
-30.8046
 11
11.0942
 21
-26.4503
  0
LINE
  8
0
 10
11.0942
 20
-26.4503
 11
8.06619
 21
-21.6789
  0
LINE
  8
0
 10
8.06619
 20
-21.6789
 11
5.66005
 21
-16.5656
  0
LINE
  8
0
 10
5.66005
 20
-16.5656
 11
3.91376
 21
-11.191
  0
LINE
  8
0
 10
3.91376
 20
-11.191
 11
2.85483
 21
-5.63998
  0
LINE
  8
0
 10
2.85483
 20
-5.63998
 11
2.5
 21
0
  0
LINE
  8
0
 10
2.5
 20
0
 11
2.85483
 21
5.63998
  0
LINE
  8
0
 10
2.85483
 20
5.63998
 11
3.91376
 21
11.191
  0
LINE
  8
0
 10
3.91376
 20
11.191
 11
5.66005
 21
16.5656
  0
LINE
  8
0
 10
5.66005
 20
16.5656
 11
8.06619
 21
21.6789
  0
LINE
  8
0
 10
8.06619
 20
21.6789
 11
11.0942
 21
26.4503
  0
LINE
  8
0
 10
11.0942
 20
26.4503
 11
14.6964
 21
30.8046
  0
LINE
  8
0
 10
14.6964
 20
30.8046
 11
18.8159
 21
34.6731
  0
LINE
  8
0
 10
18.8159
 20
34.6731
 11
23.3878
 21
37.9948
  0
LINE
  8
0
 10
23.3878
 20
37.9948
 11
28.3399
 21
40.7172
  0
LINE
  8
0
 10
28.3399
 20
40.7172
 11
33.5942
 21
42.7975
  0
LINE
  8
0
 10
33.5942
 20
42.7975
 11
39.0678
 21
44.2029
  0
LINE
  8
0
 10
39.0678
 20
44.2029
 11
44.6744
 21
44.9112
  0
LINE
  8
0
 10
44.6744
 20
44.9112
 11
50.3256
 21
44.9112
  0
LINE
  8
0
 10
50.3256
 20
44.9112
 11
55.9322
 21
44.2029
  0
LINE
  8
0
 10
55.9322
 20
44.2029
 11
61.4058
 21
42.7975
  0
LINE
  8
0
 10
61.4058
 20
42.7975
 11
66.6601
 21
40.7172
  0
LINE
  8
0
 10
66.6601
 20
40.7172
 11
71.6122
 21
37.9948
  0
LINE
  8
0
 10
71.6122
 20
37.9948
 11
76.1841
 21
34.6731
  0
LINE
  8
0
 10
76.1841
 20
34.6731
 11
80.3036
 21
30.8046
  0
LINE
  8
0
 10
80.3036
 20
30.8046
 11
83.9058
 21
26.4503
  0
LINE
  8
0
 10
83.9058
 20
26.4503
 11
86.9338
 21
21.6789
  0
LINE
  8
0
 10
86.9338
 20
21.6789
 11
89.3399
 21
16.5656
  0
LINE
  8
0
 10
89.3399
 20
16.5656
 11
91.0862
 21
11.191
  0
LINE
  8
0
 10
91.0862
 20
11.191
 11
92.1452
 21
5.63998
  0
LINE
  8
0
 10
92.1452
 20
5.63998
 11
92.5
 21
0
  0
LINE
  8
0
 10
92.5
 20
0
 11
92.1452
 21
-5.63998
  0
LINE
  8
0
 10
92.1452
 20
-5.63998
 11
91.0862
 21
-11.191
  0
LINE
  8
0
 10
91.0862
 20
-11.191
 11
89.3399
 21
-16.5656
  0
LINE
  8
0
 10
89.3399
 20
-16.5656
 11
86.9338
 21
-21.6789
  0
LINE
  8
0
 10
86.9338
 20
-21.6789
 11
83.9058
 21
-26.4503
  0
LINE
  8
0
 10
83.9058
 20
-26.4503
 11
80.3036
 21
-30.8046
  0
LINE
  8
0
 10
80.3036
 20
-30.8046
 11
76.1841
 21
-34.6731
  0
LINE
  8
0
 10
76.1841
 20
-34.6731
 11
71.6122
 21
-37.9948
  0
LINE
  8
0
 10
71.6122
 20
-37.9948
 11
66.6601
 21
-40.7172
  0
LINE
  8
0
 10
66.6601
 20
-40.7172
 11
61.4058
 21
-42.7975
  0
LINE
  8
0
 10
61.4058
 20
-42.7975
 11
55.9322
 21
-44.2029
  0
LINE
  8
0
 10
55.9322
 20
-44.2029
 11
50.3256
 21
-44.9112
  0
LINE
  8
0
 10
50.3256
 20
-44.9112
 11
44.6744
 21
-44.9112
  0
LINE
  8
0
 10
-50.3256
 20
-44.9112
 11
-55.9322
 21
-44.2029
  0
LINE
  8
0
 10
-55.9322
 20
-44.2029
 11
-61.4058
 21
-42.7975
  0
LINE
  8
0
 10
-61.4058
 20
-42.7975
 11
-66.6601
 21
-40.7172
  0
LINE
  8
0
 10
-66.6601
 20
-40.7172
 11
-71.6122
 21
-37.9948
  0
LINE
  8
0
 10
-71.6122
 20
-37.9948
 11
-76.1841
 21
-34.6731
  0
LINE
  8
0
 10
-76.1841
 20
-34.6731
 11
-80.3036
 21
-30.8046
  0
LINE
  8
0
 10
-80.3036
 20
-30.8046
 11
-83.9058
 21
-26.4503
  0
LINE
  8
0
 10
-83.9058
 20
-26.4503
 11
-86.9338
 21
-21.6789
  0
LINE
  8
0
 10
-86.9338
 20
-21.6789
 11
-89.3399
 21
-16.5656
  0
LINE
  8
0
 10
-89.3399
 20
-16.5656
 11
-91.0862
 21
-11.191
  0
LINE
  8
0
 10
-91.0862
 20
-11.191
 11
-92.1452
 21
-5.63998
  0
LINE
  8
0
 10
-92.1452
 20
-5.63998
 11
-92.5
 21
0
  0
LINE
  8
0
 10
-92.5
 20
0
 11
-92.1452
 21
5.63998
  0
LINE
  8
0
 10
-92.1452
 20
5.63998
 11
-91.0862
 21
11.191
  0
LINE
  8
0
 10
-91.0862
 20
11.191
 11
-89.3399
 21
16.5656
  0
LINE
  8
0
 10
-89.3399
 20
16.5656
 11
-86.9338
 21
21.6789
  0
LINE
  8
0
 10
-86.9338
 20
21.6789
 11
-83.9058
 21
26.4503
  0
LINE
  8
0
 10
-83.9058
 20
26.4503
 11
-80.3036
 21
30.8046
  0
LINE
  8
0
 10
-80.3036
 20
30.8046
 11
-76.1841
 21
34.6731
  0
LINE
  8
0
 10
-76.1841
 20
34.6731
 11
-71.6122
 21
37.9948
  0
LINE
  8
0
 10
-71.6122
 20
37.9948
 11
-66.6601
 21
40.7172
  0
LINE
  8
0
 10
-66.6601
 20
40.7172
 11
-61.4058
 21
42.7975
  0
LINE
  8
0
 10
-61.4058
 20
42.7975
 11
-55.9322
 21
44.2029
  0
LINE
  8
0
 10
-55.9322
 20
44.2029
 11
-50.3256
 21
44.9112
  0
LINE
  8
0
 10
-50.3256
 20
44.9112
 11
-44.6744
 21
44.9112
  0
LINE
  8
0
 10
-44.6744
 20
44.9112
 11
-39.0678
 21
44.2029
  0
LINE
  8
0
 10
-39.0678
 20
44.2029
 11
-33.5942
 21
42.7975
  0
LINE
  8
0
 10
-33.5942
 20
42.7975
 11
-28.3399
 21
40.7172
  0
LINE
  8
0
 10
-28.3399
 20
40.7172
 11
-23.3878
 21
37.9948
  0
LINE
  8
0
 10
-23.3878
 20
37.9948
 11
-18.8159
 21
34.6731
  0
LINE
  8
0
 10
-18.8159
 20
34.6731
 11
-14.6964
 21
30.8046
  0
LINE
  8
0
 10
-14.6964
 20
30.8046
 11
-11.0942
 21
26.4503
  0
LINE
  8
0
 10
-11.0942
 20
26.4503
 11
-8.06619
 21
21.6789
  0
LINE
  8
0
 10
-8.06619
 20
21.6789
 11
-5.66005
 21
16.5656
  0
LINE
  8
0
 10
-5.66005
 20
16.5656
 11
-3.91376
 21
11.191
  0
LINE
  8
0
 10
-3.91376
 20
11.191
 11
-2.85483
 21
5.63998
  0
LINE
  8
0
 10
-2.85483
 20
5.63998
 11
-2.5
 21
0
  0
LINE
  8
0
 10
-2.5
 20
0
 11
-2.85483
 21
-5.63998
  0
LINE
  8
0
 10
-2.85483
 20
-5.63998
 11
-3.91376
 21
-11.191
  0
LINE
  8
0
 10
-3.91376
 20
-11.191
 11
-5.66005
 21
-16.5656
  0
LINE
  8
0
 10
-5.66005
 20
-16.5656
 11
-8.06619
 21
-21.6789
  0
LINE
  8
0
 10
-8.06619
 20
-21.6789
 11
-11.0942
 21
-26.4503
  0
LINE
  8
0
 10
-11.0942
 20
-26.4503
 11
-14.6964
 21
-30.8046
  0
LINE
  8
0
 10
-14.6964
 20
-30.8046
 11
-18.8159
 21
-34.6731
  0
LINE
  8
0
 10
-18.8159
 20
-34.6731
 11
-23.3878
 21
-37.9948
  0
LINE
  8
0
 10
-23.3878
 20
-37.9948
 11
-28.3399
 21
-40.7172
  0
LINE
  8
0
 10
-28.3399
 20
-40.7172
 11
-33.5942
 21
-42.7975
  0
LINE
  8
0
 10
-33.5942
 20
-42.7975
 11
-39.0678
 21
-44.2029
  0
LINE
  8
0
 10
-39.0678
 20
-44.2029
 11
-44.6744
 21
-44.9112
  0
LINE
  8
0
 10
-44.6744
 20
-44.9112
 11
-50.3256
 21
-44.9112
  0
LINE
  8
0
 10
89.8116
 20
-47.9941
 11
89.4379
 21
-47.9469
  0
LINE
  8
0
 10
89.4379
 20
-47.9469
 11
89.073
 21
-47.8532
  0
LINE
  8
0
 10
89.073
 20
-47.8532
 11
88.7227
 21
-47.7145
  0
LINE
  8
0
 10
88.7227
 20
-47.7145
 11
88.3925
 21
-47.533
  0
LINE
  8
0
 10
88.3925
 20
-47.533
 11
88.0877
 21
-47.3115
  0
LINE
  8
0
 10
88.0877
 20
-47.3115
 11
87.8131
 21
-47.0536
  0
LINE
  8
0
 10
87.8131
 20
-47.0536
 11
87.573
 21
-46.7634
  0
LINE
  8
0
 10
87.573
 20
-46.7634
 11
87.3711
 21
-46.4453
  0
LINE
  8
0
 10
87.3711
 20
-46.4453
 11
87.2107
 21
-46.1044
  0
LINE
  8
0
 10
87.2107
 20
-46.1044
 11
87.0943
 21
-45.7461
  0
LINE
  8
0
 10
87.0943
 20
-45.7461
 11
87.0237
 21
-45.376
  0
LINE
  8
0
 10
87.0237
 20
-45.376
 11
87
 21
-45
  0
LINE
  8
0
 10
87
 20
-45
 11
87.0237
 21
-44.624
  0
LINE
  8
0
 10
87.0237
 20
-44.624
 11
87.0943
 21
-44.2539
  0
LINE
  8
0
 10
87.0943
 20
-44.2539
 11
87.2107
 21
-43.8956
  0
LINE
  8
0
 10
87.2107
 20
-43.8956
 11
87.3711
 21
-43.5547
  0
LINE
  8
0
 10
87.3711
 20
-43.5547
 11
87.573
 21
-43.2366
  0
LINE
  8
0
 10
87.573
 20
-43.2366
 11
87.8131
 21
-42.9464
  0
LINE
  8
0
 10
87.8131
 20
-42.9464
 11
88.0877
 21
-42.6885
  0
LINE
  8
0
 10
88.0877
 20
-42.6885
 11
88.3925
 21
-42.467
  0
LINE
  8
0
 10
88.3925
 20
-42.467
 11
88.7227
 21
-42.2855
  0
LINE
  8
0
 10
88.7227
 20
-42.2855
 11
89.073
 21
-42.1468
  0
LINE
  8
0
 10
89.073
 20
-42.1468
 11
89.4379
 21
-42.0531
  0
LINE
  8
0
 10
89.4379
 20
-42.0531
 11
89.8116
 21
-42.0059
  0
LINE
  8
0
 10
89.8116
 20
-42.0059
 11
90.1884
 21
-42.0059
  0
LINE
  8
0
 10
90.1884
 20
-42.0059
 11
90.5621
 21
-42.0531
  0
LINE
  8
0
 10
90.5621
 20
-42.0531
 11
90.927
 21
-42.1468
  0
LINE
  8
0
 10
90.927
 20
-42.1468
 11
91.2773
 21
-42.2855
  0
LINE
  8
0
 10
91.2773
 20
-42.2855
 11
91.6075
 21
-42.467
  0
LINE
  8
0
 10
91.6075
 20
-42.467
 11
91.9123
 21
-42.6885
  0
LINE
  8
0
 10
91.9123
 20
-42.6885
 11
92.1869
 21
-42.9464
  0
LINE
  8
0
 10
92.1869
 20
-42.9464
 11
92.427
 21
-43.2366
  0
LINE
  8
0
 10
92.427
 20
-43.2366
 11
92.6289
 21
-43.5547
  0
LINE
  8
0
 10
92.6289
 20
-43.5547
 11
92.7893
 21
-43.8956
  0
LINE
  8
0
 10
92.7893
 20
-43.8956
 11
92.9057
 21
-44.2539
  0
LINE
  8
0
 10
92.9057
 20
-44.2539
 11
92.9763
 21
-44.624
  0
LINE
  8
0
 10
92.9763
 20
-44.624
 11
93
 21
-45
  0
LINE
  8
0
 10
93
 20
-45
 11
92.9763
 21
-45.376
  0
LINE
  8
0
 10
92.9763
 20
-45.376
 11
92.9057
 21
-45.7461
  0
LINE
  8
0
 10
92.9057
 20
-45.7461
 11
92.7893
 21
-46.1044
  0
LINE
  8
0
 10
92.7893
 20
-46.1044
 11
92.6289
 21
-46.4453
  0
LINE
  8
0
 10
92.6289
 20
-46.4453
 11
92.427
 21
-46.7634
  0
LINE
  8
0
 10
92.427
 20
-46.7634
 11
92.1869
 21
-47.0536
  0
LINE
  8
0
 10
92.1869
 20
-47.0536
 11
91.9123
 21
-47.3115
  0
LINE
  8
0
 10
91.9123
 20
-47.3115
 11
91.6075
 21
-47.533
  0
LINE
  8
0
 10
91.6075
 20
-47.533
 11
91.2773
 21
-47.7145
  0
LINE
  8
0
 10
91.2773
 20
-47.7145
 11
90.927
 21
-47.8532
  0
LINE
  8
0
 10
90.927
 20
-47.8532
 11
90.5621
 21
-47.9469
  0
LINE
  8
0
 10
90.5621
 20
-47.9469
 11
90.1884
 21
-47.9941
  0
LINE
  8
0
 10
90.1884
 20
-47.9941
 11
89.8116
 21
-47.9941
  0
LINE
  8
0
 10
-90.1884
 20
-47.9941
 11
-90.5621
 21
-47.9469
  0
LINE
  8
0
 10
-90.5621
 20
-47.9469
 11
-90.927
 21
-47.8532
  0
LINE
  8
0
 10
-90.927
 20
-47.8532
 11
-91.2773
 21
-47.7145
  0
LINE
  8
0
 10
-91.2773
 20
-47.7145
 11
-91.6075
 21
-47.533
  0
LINE
  8
0
 10
-91.6075
 20
-47.533
 11
-91.9123
 21
-47.3115
  0
LINE
  8
0
 10
-91.9123
 20
-47.3115
 11
-92.1869
 21
-47.0536
  0
LINE
  8
0
 10
-92.1869
 20
-47.0536
 11
-92.427
 21
-46.7634
  0
LINE
  8
0
 10
-92.427
 20
-46.7634
 11
-92.6289
 21
-46.4453
  0
LINE
  8
0
 10
-92.6289
 20
-46.4453
 11
-92.7893
 21
-46.1044
  0
LINE
  8
0
 10
-92.7893
 20
-46.1044
 11
-92.9057
 21
-45.7461
  0
LINE
  8
0
 10
-92.9057
 20
-45.7461
 11
-92.9763
 21
-45.376
  0
LINE
  8
0
 10
-92.9763
 20
-45.376
 11
-93
 21
-45
  0
LINE
  8
0
 10
-93
 20
-45
 11
-92.9763
 21
-44.624
  0
LINE
  8
0
 10
-92.9763
 20
-44.624
 11
-92.9057
 21
-44.2539
  0
LINE
  8
0
 10
-92.9057
 20
-44.2539
 11
-92.7893
 21
-43.8956
  0
LINE
  8
0
 10
-92.7893
 20
-43.8956
 11
-92.6289
 21
-43.5547
  0
LINE
  8
0
 10
-92.6289
 20
-43.5547
 11
-92.427
 21
-43.2366
  0
LINE
  8
0
 10
-92.427
 20
-43.2366
 11
-92.1869
 21
-42.9464
  0
LINE
  8
0
 10
-92.1869
 20
-42.9464
 11
-91.9123
 21
-42.6885
  0
LINE
  8
0
 10
-91.9123
 20
-42.6885
 11
-91.6075
 21
-42.467
  0
LINE
  8
0
 10
-91.6075
 20
-42.467
 11
-91.2773
 21
-42.2855
  0
LINE
  8
0
 10
-91.2773
 20
-42.2855
 11
-90.927
 21
-42.1468
  0
LINE
  8
0
 10
-90.927
 20
-42.1468
 11
-90.5621
 21
-42.0531
  0
LINE
  8
0
 10
-90.5621
 20
-42.0531
 11
-90.1884
 21
-42.0059
  0
LINE
  8
0
 10
-90.1884
 20
-42.0059
 11
-89.8116
 21
-42.0059
  0
LINE
  8
0
 10
-89.8116
 20
-42.0059
 11
-89.4379
 21
-42.0531
  0
LINE
  8
0
 10
-89.4379
 20
-42.0531
 11
-89.073
 21
-42.1468
  0
LINE
  8
0
 10
-89.073
 20
-42.1468
 11
-88.7227
 21
-42.2855
  0
LINE
  8
0
 10
-88.7227
 20
-42.2855
 11
-88.3925
 21
-42.467
  0
LINE
  8
0
 10
-88.3925
 20
-42.467
 11
-88.0877
 21
-42.6885
  0
LINE
  8
0
 10
-88.0877
 20
-42.6885
 11
-87.8131
 21
-42.9464
  0
LINE
  8
0
 10
-87.8131
 20
-42.9464
 11
-87.573
 21
-43.2366
  0
LINE
  8
0
 10
-87.573
 20
-43.2366
 11
-87.3711
 21
-43.5547
  0
LINE
  8
0
 10
-87.3711
 20
-43.5547
 11
-87.2107
 21
-43.8956
  0
LINE
  8
0
 10
-87.2107
 20
-43.8956
 11
-87.0943
 21
-44.2539
  0
LINE
  8
0
 10
-87.0943
 20
-44.2539
 11
-87.0237
 21
-44.624
  0
LINE
  8
0
 10
-87.0237
 20
-44.624
 11
-87
 21
-45
  0
LINE
  8
0
 10
-87
 20
-45
 11
-87.0237
 21
-45.376
  0
LINE
  8
0
 10
-87.0237
 20
-45.376
 11
-87.0943
 21
-45.7461
  0
LINE
  8
0
 10
-87.0943
 20
-45.7461
 11
-87.2107
 21
-46.1044
  0
LINE
  8
0
 10
-87.2107
 20
-46.1044
 11
-87.3711
 21
-46.4453
  0
LINE
  8
0
 10
-87.3711
 20
-46.4453
 11
-87.573
 21
-46.7634
  0
LINE
  8
0
 10
-87.573
 20
-46.7634
 11
-87.8131
 21
-47.0536
  0
LINE
  8
0
 10
-87.8131
 20
-47.0536
 11
-88.0877
 21
-47.3115
  0
LINE
  8
0
 10
-88.0877
 20
-47.3115
 11
-88.3925
 21
-47.533
  0
LINE
  8
0
 10
-88.3925
 20
-47.533
 11
-88.7227
 21
-47.7145
  0
LINE
  8
0
 10
-88.7227
 20
-47.7145
 11
-89.073
 21
-47.8532
  0
LINE
  8
0
 10
-89.073
 20
-47.8532
 11
-89.4379
 21
-47.9469
  0
LINE
  8
0
 10
-89.4379
 20
-47.9469
 11
-89.8116
 21
-47.9941
  0
LINE
  8
0
 10
-89.8116
 20
-47.9941
 11
-90.1884
 21
-47.9941
  0
ENDSEC
  0
SECTION
  2
OBJECTS
  0
DICTIONARY
  0
ENDSEC
  0
EOF
