<?xml version="1.0" standalone="no"?>
<!DOCTYPE svg PUBLIC "-//W3C//DTD SVG 1.1//EN" "http://www.w3.org/Graphics/SVG/1.1/DTD/svg11.dtd">
<svg width="60mm" height="44mm" viewBox="-30 -22 60 44" xmlns="http://www.w3.org/2000/svg" version="1.1">
<title>OpenSCAD Model</title>
<path d="
M 25.4369,21.9114 L 26.0451,21.7553 L 26.6289,21.5241 L 27.1791,21.2216 L 27.6871,20.8526 L 28.1448,20.4227
 L 28.5451,19.9389 L 28.8815,19.4088 L 29.1489,18.8406 L 29.3429,18.2434 L 29.4606,17.6267 L 29.5,17
 L 29.5,-17 L 29.4606,-17.6267 L 29.3429,-18.2434 L 29.1489,-18.8406 L 28.8815,-19.4088 L 28.5451,-19.9389
 L 28.1448,-20.4227 L 27.6871,-20.8526 L 27.1791,-21.2216 L 26.6289,-21.5241 L 26.0451,-21.7553 L 25.4369,-21.9114
 L 24.8139,-21.9901 L -24.8139,-21.9901 L -25.4369,-21.9114 L -26.0451,-21.7553 L -26.6289,-21.5241 L -27.1791,-21.2216
 L -27.6871,-20.8526 L -28.1448,-20.4227 L -28.5451,-19.9389 L -28.8815,-19.4088 L -29.1489,-18.8406 L -29.3429,-18.2434
 L -29.4606,-17.6267 L -29.5,-17 L -29.5,17 L -29.4606,17.6267 L -29.3429,18.2434 L -29.1489,18.8406
 L -28.8815,19.4088 L -28.5451,19.9389 L -28.1448,20.4227 L -27.6871,20.8526 L -27.1791,21.2216 L -26.6289,21.5241
 L -26.0451,21.7553 L -25.4369,21.9114 L -24.8139,21.9901 L 24.8139,21.9901 z
M -1.19301,18.9625 L -3.56024,18.6635 L -5.87132,18.0701 L -8.0898,17.1917 L -10.1807,16.0422 L -12.1111,14.6397
 L -13.8504,13.0064 L -15.3713,11.1679 L -16.6498,9.15331 L -17.6657,6.99435 L -18.4031,4.7251 L -18.8502,2.38132
 L -19,-0 L -18.8502,-2.38132 L -18.4031,-4.7251 L -17.6657,-6.99435 L -16.6498,-9.15331 L -15.3713,-11.1679
 L -13.8504,-13.0064 L -12.1111,-14.6397 L -10.1807,-16.0422 L -8.0898,-17.1917 L -5.87132,-18.0701 L -3.56024,-18.6635
 L -1.19301,-18.9625 L 1.19301,-18.9625 L 3.56024,-18.6635 L 5.87132,-18.0701 L 8.0898,-17.1917 L 10.1807,-16.0422
 L 12.1111,-14.6397 L 13.8504,-13.0064 L 15.3713,-11.1679 L 16.6498,-9.15331 L 17.6657,-6.99435 L 18.4031,-4.7251
 L 18.8502,-2.38132 L 19,-0 L 18.8502,2.38132 L 18.4031,4.7251 L 17.6657,6.99435 L 16.6498,9.15331
 L 15.3713,11.1679 L 13.8504,13.0064 L 12.1111,14.6397 L 10.1807,16.0422 L 8.0898,17.1917 L 5.87132,18.0701
 L 3.56024,18.6635 L 1.19301,18.9625 z
M -22.6884,-12.0059 L -23.0621,-12.0531 L -23.427,-12.1468 L -23.7773,-12.2855 L -24.1075,-12.467 L -24.4123,-12.6884
 L -24.6869,-12.9464 L -24.927,-13.2366 L -25.1289,-13.5547 L -25.2893,-13.8956 L -25.4057,-14.2539 L -25.4763,-14.624
 L -25.5,-15 L -25.4763,-15.376 L -25.4057,-15.7461 L -25.2893,-16.1044 L -25.1289,-16.4453 L -24.927,-16.7634
 L -24.6869,-17.0536 L -24.4123,-17.3115 L -24.1075,-17.533 L -23.7773,-17.7145 L -23.427,-17.8532 L -23.0621,-17.9469
 L -22.6884,-17.9941 L -22.3116,-17.9941 L -21.9379,-17.9469 L -21.5729,-17.8532 L -21.2227,-17.7145 L -20.8925,-17.533
 L -20.5877,-17.3115 L -20.3131,-17.0536 L -20.0729,-16.7634 L -19.8711,-16.4453 L -19.7107,-16.1044 L -19.5942,-15.7461
 L -19.5237,-15.376 L -19.5,-15 L -19.5237,-14.624 L -19.5942,-14.2539 L -19.7107,-13.8956 L -19.8711,-13.5547
 L -20.0729,-13.2366 L -20.3131,-12.9464 L -20.5877,-12.6884 L -20.8925,-12.467 L -21.2227,-12.2855 L -21.5729,-12.1468
 L -21.9379,-12.0531 L -22.3116,-12.0059 z
M 22.3116,-12.0059 L 21.9379,-12.0531 L 21.5729,-12.1468 L 21.2227,-12.2855 L 20.8925,-12.467 L 20.5877,-12.6884
 L 20.3131,-12.9464 L 20.0729,-13.2366 L 19.8711,-13.5547 L 19.7107,-13.8956 L 19.5942,-14.2539 L 19.5237,-14.624
 L 19.5,-15 L 19.5237,-15.376 L 19.5942,-15.7461 L 19.7107,-16.1044 L 19.8711,-16.4453 L 20.0729,-16.7634
 L 20.3131,-17.0536 L 20.5877,-17.3115 L 20.8925,-17.533 L 21.2227,-17.7145 L 21.5729,-17.8532 L 21.9379,-17.9469
 L 22.3116,-17.9941 L 22.6884,-17.9941 L 23.0621,-17.9469 L 23.427,-17.8532 L 23.7773,-17.7145 L 24.1075,-17.533
 L 24.4123,-17.3115 L 24.6869,-17.0536 L 24.927,-16.7634 L 25.1289,-16.4453 L 25.2893,-16.1044 L 25.4057,-15.7461
 L 25.4763,-15.376 L 25.5,-15 L 25.4763,-14.624 L 25.4057,-14.2539 L 25.2893,-13.8956 L 25.1289,-13.5547
 L 24.927,-13.2366 L 24.6869,-12.9464 L 24.4123,-12.6884 L 24.1075,-12.467 L 23.7773,-12.2855 L 23.427,-12.1468
 L 23.0621,-12.0531 L 22.6884,-12.0059 z
M -22.6884,17.9941 L -23.0621,17.9469 L -23.427,17.8532 L -23.7773,17.7145 L -24.1075,17.533 L -24.4123,17.3115
 L -24.6869,17.0536 L -24.927,16.7634 L -25.1289,16.4453 L -25.2893,16.1044 L -25.4057,15.7461 L -25.4763,15.376
 L -25.5,15 L -25.4763,14.624 L -25.4057,14.2539 L -25.2893,13.8956 L -25.1289,13.5547 L -24.927,13.2366
 L -24.6869,12.9464 L -24.4123,12.6884 L -24.1075,12.467 L -23.7773,12.2855 L -23.427,12.1468 L -23.0621,12.0531
 L -22.6884,12.0059 L -22.3116,12.0059 L -21.9379,12.0531 L -21.5729,12.1468 L -21.2227,12.2855 L -20.8925,12.467
 L -20.5877,12.6884 L -20.3131,12.9464 L -20.0729,13.2366 L -19.8711,13.5547 L -19.7107,13.8956 L -19.5942,14.2539
 L -19.5237,14.624 L -19.5,15 L -19.5237,15.376 L -19.5942,15.7461 L -19.7107,16.1044 L -19.8711,16.4453
 L -20.0729,16.7634 L -20.3131,17.0536 L -20.5877,17.3115 L -20.8925,17.533 L -21.2227,17.7145 L -21.5729,17.8532
 L -21.9379,17.9469 L -22.3116,17.9941 z
M 22.3116,17.9941 L 21.9379,17.9469 L 21.5729,17.8532 L 21.2227,17.7145 L 20.8925,17.533 L 20.5877,17.3115
 L 20.3131,17.0536 L 20.0729,16.7634 L 19.8711,16.4453 L 19.7107,16.1044 L 19.5942,15.7461 L 19.5237,15.376
 L 19.5,15 L 19.5237,14.624 L 19.5942,14.2539 L 19.7107,13.8956 L 19.8711,13.5547 L 20.0729,13.2366
 L 20.3131,12.9464 L 20.5877,12.6884 L 20.8925,12.467 L 21.2227,12.2855 L 21.5729,12.1468 L 21.9379,12.0531
 L 22.3116,12.0059 L 22.6884,12.0059 L 23.0621,12.0531 L 23.427,12.1468 L 23.7773,12.2855 L 24.1075,12.467
 L 24.4123,12.6884 L 24.6869,12.9464 L 24.927,13.2366 L 25.1289,13.5547 L 25.2893,13.8956 L 25.4057,14.2539
 L 25.4763,14.624 L 25.5,15 L 25.4763,15.376 L 25.4057,15.7461 L 25.2893,16.1044 L 25.1289,16.4453
 L 24.927,16.7634 L 24.6869,17.0536 L 24.4123,17.3115 L 24.1075,17.533 L 23.7773,17.7145 L 23.427,17.8532
 L 23.0621,17.9469 L 22.6884,17.9941 z
" stroke="black" fill="lightgray" stroke-width="0.5"/>
</svg>
