  0
SECTION
  2
BLOCKS
  0
ENDSEC
  0
SECTION
  2
ENTITIES
  0
LINE
  8
0
 10
17.9369
 20
-14.4114
 11
18.5451
 21
-14.2553
  0
LINE
  8
0
 10
18.5451
 20
-14.2553
 11
19.1289
 21
-14.0241
  0
LINE
  8
0
 10
19.1289
 20
-14.0241
 11
19.6791
 21
-13.7216
  0
LINE
  8
0
 10
19.6791
 20
-13.7216
 11
20.1871
 21
-13.3526
  0
LINE
  8
0
 10
20.1871
 20
-13.3526
 11
20.6448
 21
-12.9227
  0
LINE
  8
0
 10
20.6448
 20
-12.9227
 11
21.0451
 21
-12.4389
  0
LINE
  8
0
 10
21.0451
 20
-12.4389
 11
21.3815
 21
-11.9088
  0
LINE
  8
0
 10
21.3815
 20
-11.9088
 11
21.6489
 21
-11.3406
  0
LINE
  8
0
 10
21.6489
 20
-11.3406
 11
21.8429
 21
-10.7434
  0
LINE
  8
0
 10
21.8429
 20
-10.7434
 11
21.9606
 21
-10.1267
  0
LINE
  8
0
 10
21.9606
 20
-10.1267
 11
22
 21
-9.5
  0
LINE
  8
0
 10
22
 20
-9.5
 11
22
 21
9.5
  0
LINE
  8
0
 10
22
 20
9.5
 11
21.9606
 21
10.1267
  0
LINE
  8
0
 10
21.9606
 20
10.1267
 11
21.8429
 21
10.7434
  0
LINE
  8
0
 10
21.8429
 20
10.7434
 11
21.6489
 21
11.3406
  0
LINE
  8
0
 10
21.6489
 20
11.3406
 11
21.3815
 21
11.9088
  0
LINE
  8
0
 10
21.3815
 20
11.9088
 11
21.0451
 21
12.4389
  0
LINE
  8
0
 10
21.0451
 20
12.4389
 11
20.6448
 21
12.9227
  0
LINE
  8
0
 10
20.6448
 20
12.9227
 11
20.1871
 21
13.3526
  0
LINE
  8
0
 10
20.1871
 20
13.3526
 11
19.6791
 21
13.7216
  0
LINE
  8
0
 10
19.6791
 20
13.7216
 11
19.1289
 21
14.0241
  0
LINE
  8
0
 10
19.1289
 20
14.0241
 11
18.5451
 21
14.2553
  0
LINE
  8
0
 10
18.5451
 20
14.2553
 11
17.9369
 21
14.4114
  0
LINE
  8
0
 10
17.9369
 20
14.4114
 11
17.3139
 21
14.4901
  0
LINE
  8
0
 10
17.3139
 20
14.4901
 11
-17.3139
 21
14.4901
  0
LINE
  8
0
 10
-17.3139
 20
14.4901
 11
-17.9369
 21
14.4114
  0
LINE
  8
0
 10
-17.9369
 20
14.4114
 11
-18.5451
 21
14.2553
  0
LINE
  8
0
 10
-18.5451
 20
14.2553
 11
-19.1289
 21
14.0241
  0
LINE
  8
0
 10
-19.1289
 20
14.0241
 11
-19.6791
 21
13.7216
  0
LINE
  8
0
 10
-19.6791
 20
13.7216
 11
-20.1871
 21
13.3526
  0
LINE
  8
0
 10
-20.1871
 20
13.3526
 11
-20.6448
 21
12.9227
  0
LINE
  8
0
 10
-20.6448
 20
12.9227
 11
-21.0451
 21
12.4389
  0
LINE
  8
0
 10
-21.0451
 20
12.4389
 11
-21.3815
 21
11.9088
  0
LINE
  8
0
 10
-21.3815
 20
11.9088
 11
-21.6489
 21
11.3406
  0
LINE
  8
0
 10
-21.6489
 20
11.3406
 11
-21.8429
 21
10.7434
  0
LINE
  8
0
 10
-21.8429
 20
10.7434
 11
-21.9606
 21
10.1267
  0
LINE
  8
0
 10
-21.9606
 20
10.1267
 11
-22
 21
9.5
  0
LINE
  8
0
 10
-22
 20
9.5
 11
-22
 21
-9.5
  0
LINE
  8
0
 10
-22
 20
-9.5
 11
-21.9606
 21
-10.1267
  0
LINE
  8
0
 10
-21.9606
 20
-10.1267
 11
-21.8429
 21
-10.7434
  0
LINE
  8
0
 10
-21.8429
 20
-10.7434
 11
-21.6489
 21
-11.3406
  0
LINE
  8
0
 10
-21.6489
 20
-11.3406
 11
-21.3815
 21
-11.9088
  0
LINE
  8
0
 10
-21.3815
 20
-11.9088
 11
-21.0451
 21
-12.4389
  0
LINE
  8
0
 10
-21.0451
 20
-12.4389
 11
-20.6448
 21
-12.9227
  0
LINE
  8
0
 10
-20.6448
 20
-12.9227
 11
-20.1871
 21
-13.3526
  0
LINE
  8
0
 10
-20.1871
 20
-13.3526
 11
-19.6791
 21
-13.7216
  0
LINE
  8
0
 10
-19.6791
 20
-13.7216
 11
-19.1289
 21
-14.0241
  0
LINE
  8
0
 10
-19.1289
 20
-14.0241
 11
-18.5451
 21
-14.2553
  0
LINE
  8
0
 10
-18.5451
 20
-14.2553
 11
-17.9369
 21
-14.4114
  0
LINE
  8
0
 10
-17.9369
 20
-14.4114
 11
-17.3139
 21
-14.4901
  0
LINE
  8
0
 10
-17.3139
 20
-14.4901
 11
17.3139
 21
-14.4901
  0
LINE
  8
0
 10
17.3139
 20
-14.4901
 11
17.9369
 21
-14.4114
  0
LINE
  8
0
 10
-15.1884
 20
4.50591
 11
-15.5621
 21
4.55313
  0
LINE
  8
0
 10
-15.5621
 20
4.55313
 11
-15.927
 21
4.64682
  0
LINE
  8
0
 10
-15.927
 20
4.64682
 11
-16.2773
 21
4.78551
  0
LINE
  8
0
 10
-16.2773
 20
4.78551
 11
-16.6075
 21
4.96701
  0
LINE
  8
0
 10
-16.6075
 20
4.96701
 11
-16.9123
 21
5.18845
  0
LINE
  8
0
 10
-16.9123
 20
5.18845
 11
-17.1869
 21
5.44635
  0
LINE
  8
0
 10
-17.1869
 20
5.44635
 11
-17.427
 21
5.73663
  0
LINE
  8
0
 10
-17.427
 20
5.73663
 11
-17.6289
 21
6.05473
  0
LINE
  8
0
 10
-17.6289
 20
6.05473
 11
-17.7893
 21
6.39561
  0
LINE
  8
0
 10
-17.7893
 20
6.39561
 11
-17.9057
 21
6.75392
  0
LINE
  8
0
 10
-17.9057
 20
6.75392
 11
-17.9763
 21
7.12399
  0
LINE
  8
0
 10
-17.9763
 20
7.12399
 11
-18
 21
7.5
  0
LINE
  8
0
 10
-18
 20
7.5
 11
-17.9763
 21
7.87599
  0
LINE
  8
0
 10
-17.9763
 20
7.87599
 11
-17.9057
 21
8.24606
  0
LINE
  8
0
 10
-17.9057
 20
8.24606
 11
-17.7893
 21
8.60437
  0
LINE
  8
0
 10
-17.7893
 20
8.60437
 11
-17.6289
 21
8.94525
  0
LINE
  8
0
 10
-17.6289
 20
8.94525
 11
-17.427
 21
9.26335
  0
LINE
  8
0
 10
-17.427
 20
9.26335
 11
-17.1869
 21
9.55363
  0
LINE
  8
0
 10
-17.1869
 20
9.55363
 11
-16.9123
 21
9.81154
  0
LINE
  8
0
 10
-16.9123
 20
9.81154
 11
-16.6075
 21
10.033
  0
LINE
  8
0
 10
-16.6075
 20
10.033
 11
-16.2773
 21
10.2145
  0
LINE
  8
0
 10
-16.2773
 20
10.2145
 11
-15.927
 21
10.3532
  0
LINE
  8
0
 10
-15.927
 20
10.3532
 11
-15.5621
 21
10.4469
  0
LINE
  8
0
 10
-15.5621
 20
10.4469
 11
-15.1884
 21
10.4941
  0
LINE
  8
0
 10
-15.1884
 20
10.4941
 11
-14.8116
 21
10.4941
  0
LINE
  8
0
 10
-14.8116
 20
10.4941
 11
-14.4379
 21
10.4469
  0
LINE
  8
0
 10
-14.4379
 20
10.4469
 11
-14.0729
 21
10.3532
  0
LINE
  8
0
 10
-14.0729
 20
10.3532
 11
-13.7227
 21
10.2145
  0
LINE
  8
0
 10
-13.7227
 20
10.2145
 11
-13.3925
 21
10.033
  0
LINE
  8
0
 10
-13.3925
 20
10.033
 11
-13.0877
 21
9.81154
  0
LINE
  8
0
 10
-13.0877
 20
9.81154
 11
-12.8131
 21
9.55363
  0
LINE
  8
0
 10
-12.8131
 20
9.55363
 11
-12.5729
 21
9.26335
  0
LINE
  8
0
 10
-12.5729
 20
9.26335
 11
-12.3711
 21
8.94525
  0
LINE
  8
0
 10
-12.3711
 20
8.94525
 11
-12.2107
 21
8.60437
  0
LINE
  8
0
 10
-12.2107
 20
8.60437
 11
-12.0942
 21
8.24606
  0
LINE
  8
0
 10
-12.0942
 20
8.24606
 11
-12.0237
 21
7.87599
  0
LINE
  8
0
 10
-12.0237
 20
7.87599
 11
-12
 21
7.5
  0
LINE
  8
0
 10
-12
 20
7.5
 11
-12.0237
 21
7.12399
  0
LINE
  8
0
 10
-12.0237
 20
7.12399
 11
-12.0942
 21
6.75392
  0
LINE
  8
0
 10
-12.0942
 20
6.75392
 11
-12.2107
 21
6.39561
  0
LINE
  8
0
 10
-12.2107
 20
6.39561
 11
-12.3711
 21
6.05473
  0
LINE
  8
0
 10
-12.3711
 20
6.05473
 11
-12.5729
 21
5.73663
  0
LINE
  8
0
 10
-12.5729
 20
5.73663
 11
-12.8131
 21
5.44635
  0
LINE
  8
0
 10
-12.8131
 20
5.44635
 11
-13.0877
 21
5.18845
  0
LINE
  8
0
 10
-13.0877
 20
5.18845
 11
-13.3925
 21
4.96701
  0
LINE
  8
0
 10
-13.3925
 20
4.96701
 11
-13.7227
 21
4.78551
  0
LINE
  8
0
 10
-13.7227
 20
4.78551
 11
-14.0729
 21
4.64682
  0
LINE
  8
0
 10
-14.0729
 20
4.64682
 11
-14.4379
 21
4.55313
  0
LINE
  8
0
 10
-14.4379
 20
4.55313
 11
-14.8116
 21
4.50591
  0
LINE
  8
0
 10
-14.8116
 20
4.50591
 11
-15.1884
 21
4.50591
  0
LINE
  8
0
 10
14.8116
 20
4.50591
 11
14.4379
 21
4.55313
  0
LINE
  8
0
 10
14.4379
 20
4.55313
 11
14.0729
 21
4.64682
  0
LINE
  8
0
 10
14.0729
 20
4.64682
 11
13.7227
 21
4.78551
  0
LINE
  8
0
 10
13.7227
 20
4.78551
 11
13.3925
 21
4.96701
  0
LINE
  8
0
 10
13.3925
 20
4.96701
 11
13.0877
 21
5.18845
  0
LINE
  8
0
 10
13.0877
 20
5.18845
 11
12.8131
 21
5.44635
  0
LINE
  8
0
 10
12.8131
 20
5.44635
 11
12.5729
 21
5.73663
  0
LINE
  8
0
 10
12.5729
 20
5.73663
 11
12.3711
 21
6.05473
  0
LINE
  8
0
 10
12.3711
 20
6.05473
 11
12.2107
 21
6.39561
  0
LINE
  8
0
 10
12.2107
 20
6.39561
 11
12.0942
 21
6.75392
  0
LINE
  8
0
 10
12.0942
 20
6.75392
 11
12.0237
 21
7.12399
  0
LINE
  8
0
 10
12.0237
 20
7.12399
 11
12
 21
7.5
  0
LINE
  8
0
 10
12
 20
7.5
 11
12.0237
 21
7.87599
  0
LINE
  8
0
 10
12.0237
 20
7.87599
 11
12.0942
 21
8.24606
  0
LINE
  8
0
 10
12.0942
 20
8.24606
 11
12.2107
 21
8.60437
  0
LINE
  8
0
 10
12.2107
 20
8.60437
 11
12.3711
 21
8.94525
  0
LINE
  8
0
 10
12.3711
 20
8.94525
 11
12.5729
 21
9.26335
  0
LINE
  8
0
 10
12.5729
 20
9.26335
 11
12.8131
 21
9.55363
  0
LINE
  8
0
 10
12.8131
 20
9.55363
 11
13.0877
 21
9.81154
  0
LINE
  8
0
 10
13.0877
 20
9.81154
 11
13.3925
 21
10.033
  0
LINE
  8
0
 10
13.3925
 20
10.033
 11
13.7227
 21
10.2145
  0
LINE
  8
0
 10
13.7227
 20
10.2145
 11
14.0729
 21
10.3532
  0
LINE
  8
0
 10
14.0729
 20
10.3532
 11
14.4379
 21
10.4469
  0
LINE
  8
0
 10
14.4379
 20
10.4469
 11
14.8116
 21
10.4941
  0
LINE
  8
0
 10
14.8116
 20
10.4941
 11
15.1884
 21
10.4941
  0
LINE
  8
0
 10
15.1884
 20
10.4941
 11
15.5621
 21
10.4469
  0
LINE
  8
0
 10
15.5621
 20
10.4469
 11
15.927
 21
10.3532
  0
LINE
  8
0
 10
15.927
 20
10.3532
 11
16.2773
 21
10.2145
  0
LINE
  8
0
 10
16.2773
 20
10.2145
 11
16.6075
 21
10.033
  0
LINE
  8
0
 10
16.6075
 20
10.033
 11
16.9123
 21
9.81154
  0
LINE
  8
0
 10
16.9123
 20
9.81154
 11
17.1869
 21
9.55363
  0
LINE
  8
0
 10
17.1869
 20
9.55363
 11
17.427
 21
9.26335
  0
LINE
  8
0
 10
17.427
 20
9.26335
 11
17.6289
 21
8.94525
  0
LINE
  8
0
 10
17.6289
 20
8.94525
 11
17.7893
 21
8.60437
  0
LINE
  8
0
 10
17.7893
 20
8.60437
 11
17.9057
 21
8.24606
  0
LINE
  8
0
 10
17.9057
 20
8.24606
 11
17.9763
 21
7.87599
  0
LINE
  8
0
 10
17.9763
 20
7.87599
 11
18
 21
7.5
  0
LINE
  8
0
 10
18
 20
7.5
 11
17.9763
 21
7.12399
  0
LINE
  8
0
 10
17.9763
 20
7.12399
 11
17.9057
 21
6.75392
  0
LINE
  8
0
 10
17.9057
 20
6.75392
 11
17.7893
 21
6.39561
  0
LINE
  8
0
 10
17.7893
 20
6.39561
 11
17.6289
 21
6.05473
  0
LINE
  8
0
 10
17.6289
 20
6.05473
 11
17.427
 21
5.73663
  0
LINE
  8
0
 10
17.427
 20
5.73663
 11
17.1869
 21
5.44635
  0
LINE
  8
0
 10
17.1869
 20
5.44635
 11
16.9123
 21
5.18845
  0
LINE
  8
0
 10
16.9123
 20
5.18845
 11
16.6075
 21
4.96701
  0
LINE
  8
0
 10
16.6075
 20
4.96701
 11
16.2773
 21
4.78551
  0
LINE
  8
0
 10
16.2773
 20
4.78551
 11
15.927
 21
4.64682
  0
LINE
  8
0
 10
15.927
 20
4.64682
 11
15.5621
 21
4.55313
  0
LINE
  8
0
 10
15.5621
 20
4.55313
 11
15.1884
 21
4.50591
  0
LINE
  8
0
 10
15.1884
 20
4.50591
 11
14.8116
 21
4.50591
  0
LINE
  8
0
 10
-0.282547
 20
-4.49112
 11
-0.843201
 21
-4.42029
  0
LINE
  8
0
 10
-0.843201
 20
-4.42029
 11
-1.39056
 21
-4.27974
  0
LINE
  8
0
 10
-1.39056
 20
-4.27974
 11
-1.916
 21
-4.07172
  0
LINE
  8
0
 10
-1.916
 20
-4.07172
 11
-2.41121
 21
-3.79947
  0
LINE
  8
0
 10
-2.41121
 20
-3.79947
 11
-2.86839
 21
-3.4673
  0
LINE
  8
0
 10
-2.86839
 20
-3.4673
 11
-3.28035
 21
-3.08046
  0
LINE
  8
0
 10
-3.28035
 20
-3.08046
 11
-3.64056
 21
-2.64502
  0
LINE
  8
0
 10
-3.64056
 20
-2.64502
 11
-3.94337
 21
-2.16788
  0
LINE
  8
0
 10
-3.94337
 20
-2.16788
 11
-4.18399
 21
-1.65656
  0
LINE
  8
0
 10
-4.18399
 20
-1.65656
 11
-4.35861
 21
-1.11909
  0
LINE
  8
0
 10
-4.35861
 20
-1.11909
 11
-4.46451
 21
-0.563995
  0
LINE
  8
0
 10
-4.46451
 20
-0.563995
 11
-4.5
 21
0
  0
LINE
  8
0
 10
-4.5
 20
0
 11
-4.46451
 21
0.563995
  0
LINE
  8
0
 10
-4.46451
 20
0.563995
 11
-4.35861
 21
1.11909
  0
LINE
  8
0
 10
-4.35861
 20
1.11909
 11
-4.18399
 21
1.65656
  0
LINE
  8
0
 10
-4.18399
 20
1.65656
 11
-3.94337
 21
2.16788
  0
LINE
  8
0
 10
-3.94337
 20
2.16788
 11
-3.64056
 21
2.64502
  0
LINE
  8
0
 10
-3.64056
 20
2.64502
 11
-3.28035
 21
3.08046
  0
LINE
  8
0
 10
-3.28035
 20
3.08046
 11
-2.86839
 21
3.4673
  0
LINE
  8
0
 10
-2.86839
 20
3.4673
 11
-2.41121
 21
3.79947
  0
LINE
  8
0
 10
-2.41121
 20
3.79947
 11
-1.916
 21
4.07172
  0
LINE
  8
0
 10
-1.916
 20
4.07172
 11
-1.39056
 21
4.27974
  0
LINE
  8
0
 10
-1.39056
 20
4.27974
 11
-0.843201
 21
4.42029
  0
LINE
  8
0
 10
-0.843201
 20
4.42029
 11
-0.282547
 21
4.49112
  0
LINE
  8
0
 10
-0.282547
 20
4.49112
 11
0.282547
 21
4.49112
  0
LINE
  8
0
 10
0.282547
 20
4.49112
 11
0.843201
 21
4.42029
  0
LINE
  8
0
 10
0.843201
 20
4.42029
 11
1.39056
 21
4.27974
  0
LINE
  8
0
 10
1.39056
 20
4.27974
 11
1.916
 21
4.07172
  0
LINE
  8
0
 10
1.916
 20
4.07172
 11
2.41121
 21
3.79947
  0
LINE
  8
0
 10
2.41121
 20
3.79947
 11
2.86839
 21
3.4673
  0
LINE
  8
0
 10
2.86839
 20
3.4673
 11
3.28035
 21
3.08046
  0
LINE
  8
0
 10
3.28035
 20
3.08046
 11
3.64056
 21
2.64502
  0
LINE
  8
0
 10
3.64056
 20
2.64502
 11
3.94337
 21
2.16788
  0
LINE
  8
0
 10
3.94337
 20
2.16788
 11
4.18399
 21
1.65656
  0
LINE
  8
0
 10
4.18399
 20
1.65656
 11
4.35861
 21
1.11909
  0
LINE
  8
0
 10
4.35861
 20
1.11909
 11
4.46451
 21
0.563995
  0
LINE
  8
0
 10
4.46451
 20
0.563995
 11
4.5
 21
0
  0
LINE
  8
0
 10
4.5
 20
0
 11
4.46451
 21
-0.563995
  0
LINE
  8
0
 10
4.46451
 20
-0.563995
 11
4.35861
 21
-1.11909
  0
LINE
  8
0
 10
4.35861
 20
-1.11909
 11
4.18399
 21
-1.65656
  0
LINE
  8
0
 10
4.18399
 20
-1.65656
 11
3.94337
 21
-2.16788
  0
LINE
  8
0
 10
3.94337
 20
-2.16788
 11
3.64056
 21
-2.64502
  0
LINE
  8
0
 10
3.64056
 20
-2.64502
 11
3.28035
 21
-3.08046
  0
LINE
  8
0
 10
3.28035
 20
-3.08046
 11
2.86839
 21
-3.4673
  0
LINE
  8
0
 10
2.86839
 20
-3.4673
 11
2.41121
 21
-3.79947
  0
LINE
  8
0
 10
2.41121
 20
-3.79947
 11
1.916
 21
-4.07172
  0
LINE
  8
0
 10
1.916
 20
-4.07172
 11
1.39056
 21
-4.27974
  0
LINE
  8
0
 10
1.39056
 20
-4.27974
 11
0.843201
 21
-4.42029
  0
LINE
  8
0
 10
0.843201
 20
-4.42029
 11
0.282547
 21
-4.49112
  0
LINE
  8
0
 10
0.282547
 20
-4.49112
 11
-0.282547
 21
-4.49112
  0
LINE
  8
0
 10
-15.0942
 20
-1.49704
 11
-15.2811
 21
-1.47342
  0
LINE
  8
0
 10
-15.2811
 20
-1.47342
 11
-15.4635
 21
-1.42657
  0
LINE
  8
0
 10
-15.4635
 20
-1.42657
 11
-15.6387
 21
-1.35724
  0
LINE
  8
0
 10
-15.6387
 20
-1.35724
 11
-15.8037
 21
-1.26648
  0
LINE
  8
0
 10
-15.8037
 20
-1.26648
 11
-15.9561
 21
-1.15576
  0
LINE
  8
0
 10
-15.9561
 20
-1.15576
 11
-16.0934
 21
-1.02681
  0
LINE
  8
0
 10
-16.0934
 20
-1.02681
 11
-16.2135
 21
-0.881668
  0
LINE
  8
0
 10
-16.2135
 20
-0.881668
 11
-16.3145
 21
-0.722626
  0
LINE
  8
0
 10
-16.3145
 20
-0.722626
 11
-16.3947
 21
-0.552185
  0
LINE
  8
0
 10
-16.3947
 20
-0.552185
 11
-16.4529
 21
-0.373032
  0
LINE
  8
0
 10
-16.4529
 20
-0.373032
 11
-16.4882
 21
-0.187988
  0
LINE
  8
0
 10
-16.4882
 20
-0.187988
 11
-16.5
 21
0
  0
LINE
  8
0
 10
-16.5
 20
0
 11
-16.4882
 21
0.187988
  0
LINE
  8
0
 10
-16.4882
 20
0.187988
 11
-16.4529
 21
0.373032
  0
LINE
  8
0
 10
-16.4529
 20
0.373032
 11
-16.3947
 21
0.552185
  0
LINE
  8
0
 10
-16.3947
 20
0.552185
 11
-16.3145
 21
0.722626
  0
LINE
  8
0
 10
-16.3145
 20
0.722626
 11
-16.2135
 21
0.881668
  0
LINE
  8
0
 10
-16.2135
 20
0.881668
 11
-16.0934
 21
1.02681
  0
LINE
  8
0
 10
-16.0934
 20
1.02681
 11
-15.9561
 21
1.15576
  0
LINE
  8
0
 10
-15.9561
 20
1.15576
 11
-15.8037
 21
1.26648
  0
LINE
  8
0
 10
-15.8037
 20
1.26648
 11
-15.6387
 21
1.35724
  0
LINE
  8
0
 10
-15.6387
 20
1.35724
 11
-15.4635
 21
1.42657
  0
LINE
  8
0
 10
-15.4635
 20
1.42657
 11
-15.2811
 21
1.47342
  0
LINE
  8
0
 10
-15.2811
 20
1.47342
 11
-15.0942
 21
1.49704
  0
LINE
  8
0
 10
-15.0942
 20
1.49704
 11
-14.9058
 21
1.49704
  0
LINE
  8
0
 10
-14.9058
 20
1.49704
 11
-14.7189
 21
1.47342
  0
LINE
  8
0
 10
-14.7189
 20
1.47342
 11
-14.5365
 21
1.42657
  0
LINE
  8
0
 10
-14.5365
 20
1.42657
 11
-14.3613
 21
1.35724
  0
LINE
  8
0
 10
-14.3613
 20
1.35724
 11
-14.1963
 21
1.26648
  0
LINE
  8
0
 10
-14.1963
 20
1.26648
 11
-14.0439
 21
1.15576
  0
LINE
  8
0
 10
-14.0439
 20
1.15576
 11
-13.9065
 21
1.02681
  0
LINE
  8
0
 10
-13.9065
 20
1.02681
 11
-13.7865
 21
0.881668
  0
LINE
  8
0
 10
-13.7865
 20
0.881668
 11
-13.6855
 21
0.722626
  0
LINE
  8
0
 10
-13.6855
 20
0.722626
 11
-13.6053
 21
0.552185
  0
LINE
  8
0
 10
-13.6053
 20
0.552185
 11
-13.5471
 21
0.373032
  0
LINE
  8
0
 10
-13.5471
 20
0.373032
 11
-13.5118
 21
0.187988
  0
LINE
  8
0
 10
-13.5118
 20
0.187988
 11
-13.5
 21
0
  0
LINE
  8
0
 10
-13.5
 20
0
 11
-13.5118
 21
-0.187988
  0
LINE
  8
0
 10
-13.5118
 20
-0.187988
 11
-13.5471
 21
-0.373032
  0
LINE
  8
0
 10
-13.5471
 20
-0.373032
 11
-13.6053
 21
-0.552185
  0
LINE
  8
0
 10
-13.6053
 20
-0.552185
 11
-13.6855
 21
-0.722626
  0
LINE
  8
0
 10
-13.6855
 20
-0.722626
 11
-13.7865
 21
-0.881668
  0
LINE
  8
0
 10
-13.7865
 20
-0.881668
 11
-13.9065
 21
-1.02681
  0
LINE
  8
0
 10
-13.9065
 20
-1.02681
 11
-14.0439
 21
-1.15576
  0
LINE
  8
0
 10
-14.0439
 20
-1.15576
 11
-14.1963
 21
-1.26648
  0
LINE
  8
0
 10
-14.1963
 20
-1.26648
 11
-14.3613
 21
-1.35724
  0
LINE
  8
0
 10
-14.3613
 20
-1.35724
 11
-14.5365
 21
-1.42657
  0
LINE
  8
0
 10
-14.5365
 20
-1.42657
 11
-14.7189
 21
-1.47342
  0
LINE
  8
0
 10
-14.7189
 20
-1.47342
 11
-14.9058
 21
-1.49704
  0
LINE
  8
0
 10
-14.9058
 20
-1.49704
 11
-15.0942
 21
-1.49704
  0
LINE
  8
0
 10
14.9058
 20
-1.49704
 11
14.7189
 21
-1.47342
  0
LINE
  8
0
 10
14.7189
 20
-1.47342
 11
14.5365
 21
-1.42657
  0
LINE
  8
0
 10
14.5365
 20
-1.42657
 11
14.3613
 21
-1.35724
  0
LINE
  8
0
 10
14.3613
 20
-1.35724
 11
14.1963
 21
-1.26648
  0
LINE
  8
0
 10
14.1963
 20
-1.26648
 11
14.0439
 21
-1.15576
  0
LINE
  8
0
 10
14.0439
 20
-1.15576
 11
13.9065
 21
-1.02681
  0
LINE
  8
0
 10
13.9065
 20
-1.02681
 11
13.7865
 21
-0.881668
  0
LINE
  8
0
 10
13.7865
 20
-0.881668
 11
13.6855
 21
-0.722626
  0
LINE
  8
0
 10
13.6855
 20
-0.722626
 11
13.6053
 21
-0.552185
  0
LINE
  8
0
 10
13.6053
 20
-0.552185
 11
13.5471
 21
-0.373032
  0
LINE
  8
0
 10
13.5471
 20
-0.373032
 11
13.5118
 21
-0.187988
  0
LINE
  8
0
 10
13.5118
 20
-0.187988
 11
13.5
 21
0
  0
LINE
  8
0
 10
13.5
 20
0
 11
13.5118
 21
0.187988
  0
LINE
  8
0
 10
13.5118
 20
0.187988
 11
13.5471
 21
0.373032
  0
LINE
  8
0
 10
13.5471
 20
0.373032
 11
13.6053
 21
0.552185
  0
LINE
  8
0
 10
13.6053
 20
0.552185
 11
13.6855
 21
0.722626
  0
LINE
  8
0
 10
13.6855
 20
0.722626
 11
13.7865
 21
0.881668
  0
LINE
  8
0
 10
13.7865
 20
0.881668
 11
13.9065
 21
1.02681
  0
LINE
  8
0
 10
13.9065
 20
1.02681
 11
14.0439
 21
1.15576
  0
LINE
  8
0
 10
14.0439
 20
1.15576
 11
14.1963
 21
1.26648
  0
LINE
  8
0
 10
14.1963
 20
1.26648
 11
14.3613
 21
1.35724
  0
LINE
  8
0
 10
14.3613
 20
1.35724
 11
14.5365
 21
1.42657
  0
LINE
  8
0
 10
14.5365
 20
1.42657
 11
14.7189
 21
1.47342
  0
LINE
  8
0
 10
14.7189
 20
1.47342
 11
14.9058
 21
1.49704
  0
LINE
  8
0
 10
14.9058
 20
1.49704
 11
15.0942
 21
1.49704
  0
LINE
  8
0
 10
15.0942
 20
1.49704
 11
15.2811
 21
1.47342
  0
LINE
  8
0
 10
15.2811
 20
1.47342
 11
15.4635
 21
1.42657
  0
LINE
  8
0
 10
15.4635
 20
1.42657
 11
15.6387
 21
1.35724
  0
LINE
  8
0
 10
15.6387
 20
1.35724
 11
15.8037
 21
1.26648
  0
LINE
  8
0
 10
15.8037
 20
1.26648
 11
15.9561
 21
1.15576
  0
LINE
  8
0
 10
15.9561
 20
1.15576
 11
16.0934
 21
1.02681
  0
LINE
  8
0
 10
16.0934
 20
1.02681
 11
16.2135
 21
0.881668
  0
LINE
  8
0
 10
16.2135
 20
0.881668
 11
16.3145
 21
0.722626
  0
LINE
  8
0
 10
16.3145
 20
0.722626
 11
16.3947
 21
0.552185
  0
LINE
  8
0
 10
16.3947
 20
0.552185
 11
16.4529
 21
0.373032
  0
LINE
  8
0
 10
16.4529
 20
0.373032
 11
16.4882
 21
0.187988
  0
LINE
  8
0
 10
16.4882
 20
0.187988
 11
16.5
 21
0
  0
LINE
  8
0
 10
16.5
 20
0
 11
16.4882
 21
-0.187988
  0
LINE
  8
0
 10
16.4882
 20
-0.187988
 11
16.4529
 21
-0.373032
  0
LINE
  8
0
 10
16.4529
 20
-0.373032
 11
16.3947
 21
-0.552185
  0
LINE
  8
0
 10
16.3947
 20
-0.552185
 11
16.3145
 21
-0.722626
  0
LINE
  8
0
 10
16.3145
 20
-0.722626
 11
16.2135
 21
-0.881668
  0
LINE
  8
0
 10
16.2135
 20
-0.881668
 11
16.0934
 21
-1.02681
  0
LINE
  8
0
 10
16.0934
 20
-1.02681
 11
15.9561
 21
-1.15576
  0
LINE
  8
0
 10
15.9561
 20
-1.15576
 11
15.8037
 21
-1.26648
  0
LINE
  8
0
 10
15.8037
 20
-1.26648
 11
15.6387
 21
-1.35724
  0
LINE
  8
0
 10
15.6387
 20
-1.35724
 11
15.4635
 21
-1.42657
  0
LINE
  8
0
 10
15.4635
 20
-1.42657
 11
15.2811
 21
-1.47342
  0
LINE
  8
0
 10
15.2811
 20
-1.47342
 11
15.0942
 21
-1.49704
  0
LINE
  8
0
 10
15.0942
 20
-1.49704
 11
14.9058
 21
-1.49704
  0
LINE
  8
0
 10
-15.1884
 20
-10.4941
 11
-15.5621
 21
-10.4469
  0
LINE
  8
0
 10
-15.5621
 20
-10.4469
 11
-15.927
 21
-10.3532
  0
LINE
  8
0
 10
-15.927
 20
-10.3532
 11
-16.2773
 21
-10.2145
  0
LINE
  8
0
 10
-16.2773
 20
-10.2145
 11
-16.6075
 21
-10.033
  0
LINE
  8
0
 10
-16.6075
 20
-10.033
 11
-16.9123
 21
-9.81154
  0
LINE
  8
0
 10
-16.9123
 20
-9.81154
 11
-17.1869
 21
-9.55363
  0
LINE
  8
0
 10
-17.1869
 20
-9.55363
 11
-17.427
 21
-9.26335
  0
LINE
  8
0
 10
-17.427
 20
-9.26335
 11
-17.6289
 21
-8.94525
  0
LINE
  8
0
 10
-17.6289
 20
-8.94525
 11
-17.7893
 21
-8.60437
  0
LINE
  8
0
 10
-17.7893
 20
-8.60437
 11
-17.9057
 21
-8.24606
  0
LINE
  8
0
 10
-17.9057
 20
-8.24606
 11
-17.9763
 21
-7.87599
  0
LINE
  8
0
 10
-17.9763
 20
-7.87599
 11
-18
 21
-7.5
  0
LINE
  8
0
 10
-18
 20
-7.5
 11
-17.9763
 21
-7.12399
  0
LINE
  8
0
 10
-17.9763
 20
-7.12399
 11
-17.9057
 21
-6.75392
  0
LINE
  8
0
 10
-17.9057
 20
-6.75392
 11
-17.7893
 21
-6.39561
  0
LINE
  8
0
 10
-17.7893
 20
-6.39561
 11
-17.6289
 21
-6.05473
  0
LINE
  8
0
 10
-17.6289
 20
-6.05473
 11
-17.427
 21
-5.73663
  0
LINE
  8
0
 10
-17.427
 20
-5.73663
 11
-17.1869
 21
-5.44635
  0
LINE
  8
0
 10
-17.1869
 20
-5.44635
 11
-16.9123
 21
-5.18845
  0
LINE
  8
0
 10
-16.9123
 20
-5.18845
 11
-16.6075
 21
-4.96701
  0
LINE
  8
0
 10
-16.6075
 20
-4.96701
 11
-16.2773
 21
-4.78551
  0
LINE
  8
0
 10
-16.2773
 20
-4.78551
 11
-15.927
 21
-4.64682
  0
LINE
  8
0
 10
-15.927
 20
-4.64682
 11
-15.5621
 21
-4.55313
  0
LINE
  8
0
 10
-15.5621
 20
-4.55313
 11
-15.1884
 21
-4.50591
  0
LINE
  8
0
 10
-15.1884
 20
-4.50591
 11
-14.8116
 21
-4.50591
  0
LINE
  8
0
 10
-14.8116
 20
-4.50591
 11
-14.4379
 21
-4.55313
  0
LINE
  8
0
 10
-14.4379
 20
-4.55313
 11
-14.0729
 21
-4.64682
  0
LINE
  8
0
 10
-14.0729
 20
-4.64682
 11
-13.7227
 21
-4.78551
  0
LINE
  8
0
 10
-13.7227
 20
-4.78551
 11
-13.3925
 21
-4.96701
  0
LINE
  8
0
 10
-13.3925
 20
-4.96701
 11
-13.0877
 21
-5.18845
  0
LINE
  8
0
 10
-13.0877
 20
-5.18845
 11
-12.8131
 21
-5.44635
  0
LINE
  8
0
 10
-12.8131
 20
-5.44635
 11
-12.5729
 21
-5.73663
  0
LINE
  8
0
 10
-12.5729
 20
-5.73663
 11
-12.3711
 21
-6.05473
  0
LINE
  8
0
 10
-12.3711
 20
-6.05473
 11
-12.2107
 21
-6.39561
  0
LINE
  8
0
 10
-12.2107
 20
-6.39561
 11
-12.0942
 21
-6.75392
  0
LINE
  8
0
 10
-12.0942
 20
-6.75392
 11
-12.0237
 21
-7.12399
  0
LINE
  8
0
 10
-12.0237
 20
-7.12399
 11
-12
 21
-7.5
  0
LINE
  8
0
 10
-12
 20
-7.5
 11
-12.0237
 21
-7.87599
  0
LINE
  8
0
 10
-12.0237
 20
-7.87599
 11
-12.0942
 21
-8.24606
  0
LINE
  8
0
 10
-12.0942
 20
-8.24606
 11
-12.2107
 21
-8.60437
  0
LINE
  8
0
 10
-12.2107
 20
-8.60437
 11
-12.3711
 21
-8.94525
  0
LINE
  8
0
 10
-12.3711
 20
-8.94525
 11
-12.5729
 21
-9.26335
  0
LINE
  8
0
 10
-12.5729
 20
-9.26335
 11
-12.8131
 21
-9.55363
  0
LINE
  8
0
 10
-12.8131
 20
-9.55363
 11
-13.0877
 21
-9.81154
  0
LINE
  8
0
 10
-13.0877
 20
-9.81154
 11
-13.3925
 21
-10.033
  0
LINE
  8
0
 10
-13.3925
 20
-10.033
 11
-13.7227
 21
-10.2145
  0
LINE
  8
0
 10
-13.7227
 20
-10.2145
 11
-14.0729
 21
-10.3532
  0
LINE
  8
0
 10
-14.0729
 20
-10.3532
 11
-14.4379
 21
-10.4469
  0
LINE
  8
0
 10
-14.4379
 20
-10.4469
 11
-14.8116
 21
-10.4941
  0
LINE
  8
0
 10
-14.8116
 20
-10.4941
 11
-15.1884
 21
-10.4941
  0
LINE
  8
0
 10
14.8116
 20
-10.4941
 11
14.4379
 21
-10.4469
  0
LINE
  8
0
 10
14.4379
 20
-10.4469
 11
14.0729
 21
-10.3532
  0
LINE
  8
0
 10
14.0729
 20
-10.3532
 11
13.7227
 21
-10.2145
  0
LINE
  8
0
 10
13.7227
 20
-10.2145
 11
13.3925
 21
-10.033
  0
LINE
  8
0
 10
13.3925
 20
-10.033
 11
13.0877
 21
-9.81154
  0
LINE
  8
0
 10
13.0877
 20
-9.81154
 11
12.8131
 21
-9.55363
  0
LINE
  8
0
 10
12.8131
 20
-9.55363
 11
12.5729
 21
-9.26335
  0
LINE
  8
0
 10
12.5729
 20
-9.26335
 11
12.3711
 21
-8.94525
  0
LINE
  8
0
 10
12.3711
 20
-8.94525
 11
12.2107
 21
-8.60437
  0
LINE
  8
0
 10
12.2107
 20
-8.60437
 11
12.0942
 21
-8.24606
  0
LINE
  8
0
 10
12.0942
 20
-8.24606
 11
12.0237
 21
-7.87599
  0
LINE
  8
0
 10
12.0237
 20
-7.87599
 11
12
 21
-7.5
  0
LINE
  8
0
 10
12
 20
-7.5
 11
12.0237
 21
-7.12399
  0
LINE
  8
0
 10
12.0237
 20
-7.12399
 11
12.0942
 21
-6.75392
  0
LINE
  8
0
 10
12.0942
 20
-6.75392
 11
12.2107
 21
-6.39561
  0
LINE
  8
0
 10
12.2107
 20
-6.39561
 11
12.3711
 21
-6.05473
  0
LINE
  8
0
 10
12.3711
 20
-6.05473
 11
12.5729
 21
-5.73663
  0
LINE
  8
0
 10
12.5729
 20
-5.73663
 11
12.8131
 21
-5.44635
  0
LINE
  8
0
 10
12.8131
 20
-5.44635
 11
13.0877
 21
-5.18845
  0
LINE
  8
0
 10
13.0877
 20
-5.18845
 11
13.3925
 21
-4.96701
  0
LINE
  8
0
 10
13.3925
 20
-4.96701
 11
13.7227
 21
-4.78551
  0
LINE
  8
0
 10
13.7227
 20
-4.78551
 11
14.0729
 21
-4.64682
  0
LINE
  8
0
 10
14.0729
 20
-4.64682
 11
14.4379
 21
-4.55313
  0
LINE
  8
0
 10
14.4379
 20
-4.55313
 11
14.8116
 21
-4.50591
  0
LINE
  8
0
 10
14.8116
 20
-4.50591
 11
15.1884
 21
-4.50591
  0
LINE
  8
0
 10
15.1884
 20
-4.50591
 11
15.5621
 21
-4.55313
  0
LINE
  8
0
 10
15.5621
 20
-4.55313
 11
15.927
 21
-4.64682
  0
LINE
  8
0
 10
15.927
 20
-4.64682
 11
16.2773
 21
-4.78551
  0
LINE
  8
0
 10
16.2773
 20
-4.78551
 11
16.6075
 21
-4.96701
  0
LINE
  8
0
 10
16.6075
 20
-4.96701
 11
16.9123
 21
-5.18845
  0
LINE
  8
0
 10
16.9123
 20
-5.18845
 11
17.1869
 21
-5.44635
  0
LINE
  8
0
 10
17.1869
 20
-5.44635
 11
17.427
 21
-5.73663
  0
LINE
  8
0
 10
17.427
 20
-5.73663
 11
17.6289
 21
-6.05473
  0
LINE
  8
0
 10
17.6289
 20
-6.05473
 11
17.7893
 21
-6.39561
  0
LINE
  8
0
 10
17.7893
 20
-6.39561
 11
17.9057
 21
-6.75392
  0
LINE
  8
0
 10
17.9057
 20
-6.75392
 11
17.9763
 21
-7.12399
  0
LINE
  8
0
 10
17.9763
 20
-7.12399
 11
18
 21
-7.5
  0
LINE
  8
0
 10
18
 20
-7.5
 11
17.9763
 21
-7.87599
  0
LINE
  8
0
 10
17.9763
 20
-7.87599
 11
17.9057
 21
-8.24606
  0
LINE
  8
0
 10
17.9057
 20
-8.24606
 11
17.7893
 21
-8.60437
  0
LINE
  8
0
 10
17.7893
 20
-8.60437
 11
17.6289
 21
-8.94525
  0
LINE
  8
0
 10
17.6289
 20
-8.94525
 11
17.427
 21
-9.26335
  0
LINE
  8
0
 10
17.427
 20
-9.26335
 11
17.1869
 21
-9.55363
  0
LINE
  8
0
 10
17.1869
 20
-9.55363
 11
16.9123
 21
-9.81154
  0
LINE
  8
0
 10
16.9123
 20
-9.81154
 11
16.6075
 21
-10.033
  0
LINE
  8
0
 10
16.6075
 20
-10.033
 11
16.2773
 21
-10.2145
  0
LINE
  8
0
 10
16.2773
 20
-10.2145
 11
15.927
 21
-10.3532
  0
LINE
  8
0
 10
15.927
 20
-10.3532
 11
15.5621
 21
-10.4469
  0
LINE
  8
0
 10
15.5621
 20
-10.4469
 11
15.1884
 21
-10.4941
  0
LINE
  8
0
 10
15.1884
 20
-10.4941
 11
14.8116
 21
-10.4941
  0
ENDSEC
  0
SECTION
  2
OBJECTS
  0
DICTIONARY
  0
ENDSEC
  0
EOF
