<?xml version="1.0" standalone="no"?>
<!DOCTYPE svg PUBLIC "-//W3C//DTD SVG 1.1//EN" "http://www.w3.org/Graphics/SVG/1.1/DTD/svg11.dtd">
<svg width="390mm" height="74mm" viewBox="-195 -37 390 74" xmlns="http://www.w3.org/2000/svg" version="1.1">
<title>OpenSCAD Model</title>
<path d="
M 190.437,36.9114 L 191.045,36.7553 L 191.629,36.5241 L 192.179,36.2216 L 192.687,35.8526 L 193.145,35.4227
 L 193.545,34.9389 L 193.882,34.4088 L 194.149,33.8406 L 194.343,33.2434 L 194.461,32.6267 L 194.5,32
 L 194.5,-32 L 194.461,-32.6267 L 194.343,-33.2434 L 194.149,-33.8406 L 193.882,-34.4088 L 193.545,-34.9389
 L 193.145,-35.4227 L 192.687,-35.8526 L 192.179,-36.2216 L 191.629,-36.5241 L 191.045,-36.7553 L 190.437,-36.9114
 L 189.814,-36.9901 L -189.814,-36.9901 L -190.437,-36.9114 L -191.045,-36.7553 L -191.629,-36.5241 L -192.179,-36.2216
 L -192.687,-35.8526 L -193.145,-35.4227 L -193.545,-34.9389 L -193.882,-34.4088 L -194.149,-33.8406 L -194.343,-33.2434
 L -194.461,-32.6267 L -194.5,-32 L -194.5,32 L -194.461,32.6267 L -194.343,33.2434 L -194.149,33.8406
 L -193.882,34.4088 L -193.545,34.9389 L -193.145,35.4227 L -192.687,35.8526 L -192.179,36.2216 L -191.629,36.5241
 L -191.045,36.7553 L -190.437,36.9114 L -189.814,36.9901 L 189.814,36.9901 z
M 70.8651,33.9329 L 66.629,33.3978 L 62.4934,32.3359 L 58.5235,30.7641 L 54.7819,28.7071 L 51.3276,26.1974
 L 48.2151,23.2746 L 45.4934,19.9847 L 43.2056,16.3796 L 41.3876,12.5162 L 40.0682,8.45544 L 39.2681,4.26132
 L 39,-0 L 39.2681,-4.26132 L 40.0682,-8.45544 L 41.3876,-12.5162 L 43.2056,-16.3796 L 45.4934,-19.9847
 L 48.2151,-23.2746 L 51.3276,-26.1974 L 54.7819,-28.7071 L 58.5235,-30.7641 L 62.4934,-32.3359 L 66.629,-33.3978
 L 70.8651,-33.9329 L 75.1349,-33.9329 L 79.371,-33.3978 L 83.5066,-32.3359 L 87.4765,-30.7641 L 91.2181,-28.7071
 L 94.6724,-26.1974 L 97.7849,-23.2746 L 100.507,-19.9847 L 102.794,-16.3796 L 104.612,-12.5162 L 105.932,-8.45544
 L 106.732,-4.26132 L 107,-0 L 106.732,4.26132 L 105.932,8.45544 L 104.612,12.5162 L 102.794,16.3796
 L 100.507,19.9847 L 97.7849,23.2746 L 94.6724,26.1974 L 91.2181,28.7071 L 87.4765,30.7641 L 83.5066,32.3359
 L 79.371,33.3978 L 75.1349,33.9329 z
M -75.1349,33.9329 L -79.371,33.3978 L -83.5066,32.3359 L -87.4765,30.7641 L -91.2181,28.7071 L -94.6724,26.1974
 L -97.7849,23.2746 L -100.507,19.9847 L -102.794,16.3796 L -104.612,12.5162 L -105.932,8.45544 L -106.732,4.26132
 L -107,-0 L -106.732,-4.26132 L -105.932,-8.45544 L -104.612,-12.5162 L -102.794,-16.3796 L -100.507,-19.9847
 L -97.7849,-23.2746 L -94.6724,-26.1974 L -91.2181,-28.7071 L -87.4765,-30.7641 L -83.5066,-32.3359 L -79.371,-33.3978
 L -75.1349,-33.9329 L -70.8651,-33.9329 L -66.629,-33.3978 L -62.4934,-32.3359 L -58.5235,-30.7641 L -54.7819,-28.7071
 L -51.3276,-26.1974 L -48.2151,-23.2746 L -45.4934,-19.9847 L -43.2056,-16.3796 L -41.3876,-12.5162 L -40.0682,-8.45544
 L -39.2681,-4.26132 L -39,-0 L -39.2681,4.26132 L -40.0682,8.45544 L -41.3876,12.5162 L -43.2056,16.3796
 L -45.4934,19.9847 L -48.2151,23.2746 L -51.3276,26.1974 L -54.7819,28.7071 L -58.5235,30.7641 L -62.4934,32.3359
 L -66.629,33.3978 L -70.8651,33.9329 z
M -2.13487,33.9329 L -6.37096,33.3978 L -10.5066,32.3359 L -14.4765,30.7641 L -18.2181,28.7071 L -21.6724,26.1974
 L -24.7849,23.2746 L -27.5066,19.9847 L -29.7944,16.3796 L -31.6124,12.5162 L -32.9318,8.45544 L -33.7319,4.26132
 L -34,-0 L -33.7319,-4.26132 L -32.9318,-8.45544 L -31.6124,-12.5162 L -29.7944,-16.3796 L -27.5066,-19.9847
 L -24.7849,-23.2746 L -21.6724,-26.1974 L -18.2181,-28.7071 L -14.4765,-30.7641 L -10.5066,-32.3359 L -6.37096,-33.3978
 L -2.13487,-33.9329 L 2.13487,-33.9329 L 6.37096,-33.3978 L 10.5066,-32.3359 L 14.4765,-30.7641 L 18.2181,-28.7071
 L 21.6724,-26.1974 L 24.7849,-23.2746 L 27.5066,-19.9847 L 29.7944,-16.3796 L 31.6124,-12.5162 L 32.9318,-8.45544
 L 33.7319,-4.26132 L 34,-0 L 33.7319,4.26132 L 32.9318,8.45544 L 31.6124,12.5162 L 29.7944,16.3796
 L 27.5066,19.9847 L 24.7849,23.2746 L 21.6724,26.1974 L 18.2181,28.7071 L 14.4765,30.7641 L 10.5066,32.3359
 L 6.37096,33.3978 L 2.13487,33.9329 z
M -148.135,33.9329 L -152.371,33.3978 L -156.507,32.3359 L -160.477,30.7641 L -164.218,28.7071 L -167.672,26.1974
 L -170.785,23.2746 L -173.507,19.9847 L -175.794,16.3796 L -177.612,12.5162 L -178.932,8.45544 L -179.732,4.26132
 L -180,-0 L -179.732,-4.26132 L -178.932,-8.45544 L -177.612,-12.5162 L -175.794,-16.3796 L -173.507,-19.9847
 L -170.785,-23.2746 L -167.672,-26.1974 L -164.218,-28.7071 L -160.477,-30.7641 L -156.507,-32.3359 L -152.371,-33.3978
 L -148.135,-33.9329 L -143.865,-33.9329 L -139.629,-33.3978 L -135.493,-32.3359 L -131.523,-30.7641 L -127.782,-28.7071
 L -124.328,-26.1974 L -121.215,-23.2746 L -118.493,-19.9847 L -116.206,-16.3796 L -114.388,-12.5162 L -113.068,-8.45544
 L -112.268,-4.26132 L -112,-0 L -112.268,4.26132 L -113.068,8.45544 L -114.388,12.5162 L -116.206,16.3796
 L -118.493,19.9847 L -121.215,23.2746 L -124.328,26.1974 L -127.782,28.7071 L -131.523,30.7641 L -135.493,32.3359
 L -139.629,33.3978 L -143.865,33.9329 z
M 143.865,33.9329 L 139.629,33.3978 L 135.493,32.3359 L 131.523,30.7641 L 127.782,28.7071 L 124.328,26.1974
 L 121.215,23.2746 L 118.493,19.9847 L 116.206,16.3796 L 114.388,12.5162 L 113.068,8.45544 L 112.268,4.26132
 L 112,-0 L 112.268,-4.26132 L 113.068,-8.45544 L 114.388,-12.5162 L 116.206,-16.3796 L 118.493,-19.9847
 L 121.215,-23.2746 L 124.328,-26.1974 L 127.782,-28.7071 L 131.523,-30.7641 L 135.493,-32.3359 L 139.629,-33.3978
 L 143.865,-33.9329 L 148.135,-33.9329 L 152.371,-33.3978 L 156.507,-32.3359 L 160.477,-30.7641 L 164.218,-28.7071
 L 167.672,-26.1974 L 170.785,-23.2746 L 173.507,-19.9847 L 175.794,-16.3796 L 177.612,-12.5162 L 178.932,-8.45544
 L 179.732,-4.26132 L 180,-0 L 179.732,4.26132 L 178.932,8.45544 L 177.612,12.5162 L 175.794,16.3796
 L 173.507,19.9847 L 170.785,23.2746 L 167.672,26.1974 L 164.218,28.7071 L 160.477,30.7641 L 156.507,32.3359
 L 152.371,33.3978 L 148.135,33.9329 z
M -187.688,-27.0059 L -188.062,-27.0531 L -188.427,-27.1468 L -188.777,-27.2855 L -189.107,-27.467 L -189.412,-27.6884
 L -189.687,-27.9464 L -189.927,-28.2366 L -190.129,-28.5547 L -190.289,-28.8956 L -190.406,-29.2539 L -190.476,-29.624
 L -190.5,-30 L -190.476,-30.376 L -190.406,-30.7461 L -190.289,-31.1044 L -190.129,-31.4453 L -189.927,-31.7634
 L -189.687,-32.0536 L -189.412,-32.3115 L -189.107,-32.533 L -188.777,-32.7145 L -188.427,-32.8532 L -188.062,-32.9469
 L -187.688,-32.9941 L -187.312,-32.9941 L -186.938,-32.9469 L -186.573,-32.8532 L -186.223,-32.7145 L -185.893,-32.533
 L -185.588,-32.3115 L -185.313,-32.0536 L -185.073,-31.7634 L -184.871,-31.4453 L -184.711,-31.1044 L -184.594,-30.7461
 L -184.524,-30.376 L -184.5,-30 L -184.524,-29.624 L -184.594,-29.2539 L -184.711,-28.8956 L -184.871,-28.5547
 L -185.073,-28.2366 L -185.313,-27.9464 L -185.588,-27.6884 L -185.893,-27.467 L -186.223,-27.2855 L -186.573,-27.1468
 L -186.938,-27.0531 L -187.312,-27.0059 z
M 187.312,-27.0059 L 186.938,-27.0531 L 186.573,-27.1468 L 186.223,-27.2855 L 185.893,-27.467 L 185.588,-27.6884
 L 185.313,-27.9464 L 185.073,-28.2366 L 184.871,-28.5547 L 184.711,-28.8956 L 184.594,-29.2539 L 184.524,-29.624
 L 184.5,-30 L 184.524,-30.376 L 184.594,-30.7461 L 184.711,-31.1044 L 184.871,-31.4453 L 185.073,-31.7634
 L 185.313,-32.0536 L 185.588,-32.3115 L 185.893,-32.533 L 186.223,-32.7145 L 186.573,-32.8532 L 186.938,-32.9469
 L 187.312,-32.9941 L 187.688,-32.9941 L 188.062,-32.9469 L 188.427,-32.8532 L 188.777,-32.7145 L 189.107,-32.533
 L 189.412,-32.3115 L 189.687,-32.0536 L 189.927,-31.7634 L 190.129,-31.4453 L 190.289,-31.1044 L 190.406,-30.7461
 L 190.476,-30.376 L 190.5,-30 L 190.476,-29.624 L 190.406,-29.2539 L 190.289,-28.8956 L 190.129,-28.5547
 L 189.927,-28.2366 L 189.687,-27.9464 L 189.412,-27.6884 L 189.107,-27.467 L 188.777,-27.2855 L 188.427,-27.1468
 L 188.062,-27.0531 L 187.688,-27.0059 z
M 187.406,-21.003 L 187.219,-21.0266 L 187.036,-21.0734 L 186.861,-21.1427 L 186.696,-21.2335 L 186.544,-21.3442
 L 186.407,-21.4732 L 186.286,-21.6183 L 186.186,-21.7774 L 186.105,-21.9478 L 186.047,-22.127 L 186.012,-22.312
 L 186,-22.5 L 186.012,-22.688 L 186.047,-22.873 L 186.105,-23.0522 L 186.186,-23.2226 L 186.286,-23.3817
 L 186.407,-23.5268 L 186.544,-23.6558 L 186.696,-23.7665 L 186.861,-23.8572 L 187.036,-23.9266 L 187.219,-23.9734
 L 187.406,-23.997 L 187.594,-23.997 L 187.781,-23.9734 L 187.964,-23.9266 L 188.139,-23.8572 L 188.304,-23.7665
 L 188.456,-23.6558 L 188.593,-23.5268 L 188.714,-23.3817 L 188.814,-23.2226 L 188.895,-23.0522 L 188.953,-22.873
 L 188.988,-22.688 L 189,-22.5 L 188.988,-22.312 L 188.953,-22.127 L 188.895,-21.9478 L 188.814,-21.7774
 L 188.714,-21.6183 L 188.593,-21.4732 L 188.456,-21.3442 L 188.304,-21.2335 L 188.139,-21.1427 L 187.964,-21.0734
 L 187.781,-21.0266 L 187.594,-21.003 z
M -187.594,-21.003 L -187.781,-21.0266 L -187.964,-21.0734 L -188.139,-21.1427 L -188.304,-21.2335 L -188.456,-21.3442
 L -188.593,-21.4732 L -188.714,-21.6183 L -188.814,-21.7774 L -188.895,-21.9478 L -188.953,-22.127 L -188.988,-22.312
 L -189,-22.5 L -188.988,-22.688 L -188.953,-22.873 L -188.895,-23.0522 L -188.814,-23.2226 L -188.714,-23.3817
 L -188.593,-23.5268 L -188.456,-23.6558 L -188.304,-23.7665 L -188.139,-23.8572 L -187.964,-23.9266 L -187.781,-23.9734
 L -187.594,-23.997 L -187.406,-23.997 L -187.219,-23.9734 L -187.036,-23.9266 L -186.861,-23.8572 L -186.696,-23.7665
 L -186.544,-23.6558 L -186.407,-23.5268 L -186.286,-23.3817 L -186.186,-23.2226 L -186.105,-23.0522 L -186.047,-22.873
 L -186.012,-22.688 L -186,-22.5 L -186.012,-22.312 L -186.047,-22.127 L -186.105,-21.9478 L -186.186,-21.7774
 L -186.286,-21.6183 L -186.407,-21.4732 L -186.544,-21.3442 L -186.696,-21.2335 L -186.861,-21.1427 L -187.036,-21.0734
 L -187.219,-21.0266 L -187.406,-21.003 z
M -187.688,-12.0059 L -188.062,-12.0531 L -188.427,-12.1468 L -188.777,-12.2855 L -189.107,-12.467 L -189.412,-12.6884
 L -189.687,-12.9464 L -189.927,-13.2366 L -190.129,-13.5547 L -190.289,-13.8956 L -190.406,-14.2539 L -190.476,-14.624
 L -190.5,-15 L -190.476,-15.376 L -190.406,-15.7461 L -190.289,-16.1044 L -190.129,-16.4453 L -189.927,-16.7634
 L -189.687,-17.0536 L -189.412,-17.3115 L -189.107,-17.533 L -188.777,-17.7145 L -188.427,-17.8532 L -188.062,-17.9469
 L -187.688,-17.9941 L -187.312,-17.9941 L -186.938,-17.9469 L -186.573,-17.8532 L -186.223,-17.7145 L -185.893,-17.533
 L -185.588,-17.3115 L -185.313,-17.0536 L -185.073,-16.7634 L -184.871,-16.4453 L -184.711,-16.1044 L -184.594,-15.7461
 L -184.524,-15.376 L -184.5,-15 L -184.524,-14.624 L -184.594,-14.2539 L -184.711,-13.8956 L -184.871,-13.5547
 L -185.073,-13.2366 L -185.313,-12.9464 L -185.588,-12.6884 L -185.893,-12.467 L -186.223,-12.2855 L -186.573,-12.1468
 L -186.938,-12.0531 L -187.312,-12.0059 z
M 187.312,-12.0059 L 186.938,-12.0531 L 186.573,-12.1468 L 186.223,-12.2855 L 185.893,-12.467 L 185.588,-12.6884
 L 185.313,-12.9464 L 185.073,-13.2366 L 184.871,-13.5547 L 184.711,-13.8956 L 184.594,-14.2539 L 184.524,-14.624
 L 184.5,-15 L 184.524,-15.376 L 184.594,-15.7461 L 184.711,-16.1044 L 184.871,-16.4453 L 185.073,-16.7634
 L 185.313,-17.0536 L 185.588,-17.3115 L 185.893,-17.533 L 186.223,-17.7145 L 186.573,-17.8532 L 186.938,-17.9469
 L 187.312,-17.9941 L 187.688,-17.9941 L 188.062,-17.9469 L 188.427,-17.8532 L 188.777,-17.7145 L 189.107,-17.533
 L 189.412,-17.3115 L 189.687,-17.0536 L 189.927,-16.7634 L 190.129,-16.4453 L 190.289,-16.1044 L 190.406,-15.7461
 L 190.476,-15.376 L 190.5,-15 L 190.476,-14.624 L 190.406,-14.2539 L 190.289,-13.8956 L 190.129,-13.5547
 L 189.927,-13.2366 L 189.687,-12.9464 L 189.412,-12.6884 L 189.107,-12.467 L 188.777,-12.2855 L 188.427,-12.1468
 L 188.062,-12.0531 L 187.688,-12.0059 z
M -187.594,-6.00294 L -187.781,-6.02657 L -187.964,-6.07341 L -188.139,-6.14275 L -188.304,-6.23351 L -188.456,-6.34422
 L -188.593,-6.47318 L -188.714,-6.61832 L -188.814,-6.77736 L -188.895,-6.9478 L -188.953,-7.12695 L -188.988,-7.312
 L -189,-7.5 L -188.988,-7.68799 L -188.953,-7.87303 L -188.895,-8.05219 L -188.814,-8.22263 L -188.714,-8.38167
 L -188.593,-8.52681 L -188.456,-8.65576 L -188.304,-8.76648 L -188.139,-8.85724 L -187.964,-8.92657 L -187.781,-8.97342
 L -187.594,-8.99704 L -187.406,-8.99704 L -187.219,-8.97342 L -187.036,-8.92657 L -186.861,-8.85724 L -186.696,-8.76648
 L -186.544,-8.65576 L -186.407,-8.52681 L -186.286,-8.38167 L -186.186,-8.22263 L -186.105,-8.05219 L -186.047,-7.87303
 L -186.012,-7.68799 L -186,-7.5 L -186.012,-7.312 L -186.047,-7.12695 L -186.105,-6.9478 L -186.186,-6.77736
 L -186.286,-6.61832 L -186.407,-6.47318 L -186.544,-6.34422 L -186.696,-6.23351 L -186.861,-6.14275 L -187.036,-6.07341
 L -187.219,-6.02657 L -187.406,-6.00294 z
M 187.406,-6.00294 L 187.219,-6.02657 L 187.036,-6.07341 L 186.861,-6.14275 L 186.696,-6.23351 L 186.544,-6.34422
 L 186.407,-6.47318 L 186.286,-6.61832 L 186.186,-6.77736 L 186.105,-6.9478 L 186.047,-7.12695 L 186.012,-7.312
 L 186,-7.5 L 186.012,-7.68799 L 186.047,-7.87303 L 186.105,-8.05219 L 186.186,-8.22263 L 186.286,-8.38167
 L 186.407,-8.52681 L 186.544,-8.65576 L 186.696,-8.76648 L 186.861,-8.85724 L 187.036,-8.92657 L 187.219,-8.97342
 L 187.406,-8.99704 L 187.594,-8.99704 L 187.781,-8.97342 L 187.964,-8.92657 L 188.139,-8.85724 L 188.304,-8.76648
 L 188.456,-8.65576 L 188.593,-8.52681 L 188.714,-8.38167 L 188.814,-8.22263 L 188.895,-8.05219 L 188.953,-7.87303
 L 188.988,-7.68799 L 189,-7.5 L 188.988,-7.312 L 188.953,-7.12695 L 188.895,-6.9478 L 188.814,-6.77736
 L 188.714,-6.61832 L 188.593,-6.47318 L 188.456,-6.34422 L 188.304,-6.23351 L 188.139,-6.14275 L 187.964,-6.07341
 L 187.781,-6.02657 L 187.594,-6.00294 z
M 187.312,2.99408 L 186.938,2.94685 L 186.573,2.85316 L 186.223,2.71448 L 185.893,2.53297 L 185.588,2.31154
 L 185.313,2.05363 L 185.073,1.76335 L 184.871,1.44525 L 184.711,1.10437 L 184.594,0.746063 L 184.524,0.375992
 L 184.5,-0 L 184.524,-0.375992 L 184.594,-0.746063 L 184.711,-1.10437 L 184.871,-1.44525 L 185.073,-1.76335
 L 185.313,-2.05363 L 185.588,-2.31154 L 185.893,-2.53297 L 186.223,-2.71448 L 186.573,-2.85316 L 186.938,-2.94685
 L 187.312,-2.99408 L 187.688,-2.99408 L 188.062,-2.94685 L 188.427,-2.85316 L 188.777,-2.71448 L 189.107,-2.53297
 L 189.412,-2.31154 L 189.687,-2.05363 L 189.927,-1.76335 L 190.129,-1.44525 L 190.289,-1.10437 L 190.406,-0.746063
 L 190.476,-0.375992 L 190.5,-0 L 190.476,0.375992 L 190.406,0.746063 L 190.289,1.10437 L 190.129,1.44525
 L 189.927,1.76335 L 189.687,2.05363 L 189.412,2.31154 L 189.107,2.53297 L 188.777,2.71448 L 188.427,2.85316
 L 188.062,2.94685 L 187.688,2.99408 z
M -187.688,2.99408 L -188.062,2.94685 L -188.427,2.85316 L -188.777,2.71448 L -189.107,2.53297 L -189.412,2.31154
 L -189.687,2.05363 L -189.927,1.76335 L -190.129,1.44525 L -190.289,1.10437 L -190.406,0.746063 L -190.476,0.375992
 L -190.5,-0 L -190.476,-0.375992 L -190.406,-0.746063 L -190.289,-1.10437 L -190.129,-1.44525 L -189.927,-1.76335
 L -189.687,-2.05363 L -189.412,-2.31154 L -189.107,-2.53297 L -188.777,-2.71448 L -188.427,-2.85316 L -188.062,-2.94685
 L -187.688,-2.99408 L -187.312,-2.99408 L -186.938,-2.94685 L -186.573,-2.85316 L -186.223,-2.71448 L -185.893,-2.53297
 L -185.588,-2.31154 L -185.313,-2.05363 L -185.073,-1.76335 L -184.871,-1.44525 L -184.711,-1.10437 L -184.594,-0.746063
 L -184.524,-0.375992 L -184.5,-0 L -184.524,0.375992 L -184.594,0.746063 L -184.711,1.10437 L -184.871,1.44525
 L -185.073,1.76335 L -185.313,2.05363 L -185.588,2.31154 L -185.893,2.53297 L -186.223,2.71448 L -186.573,2.85316
 L -186.938,2.94685 L -187.312,2.99408 z
M 187.406,8.99704 L 187.219,8.97342 L 187.036,8.92657 L 186.861,8.85724 L 186.696,8.76648 L 186.544,8.65576
 L 186.407,8.52681 L 186.286,8.38167 L 186.186,8.22263 L 186.105,8.05219 L 186.047,7.87303 L 186.012,7.68799
 L 186,7.5 L 186.012,7.312 L 186.047,7.12695 L 186.105,6.9478 L 186.186,6.77736 L 186.286,6.61832
 L 186.407,6.47318 L 186.544,6.34422 L 186.696,6.23351 L 186.861,6.14275 L 187.036,6.07341 L 187.219,6.02657
 L 187.406,6.00294 L 187.594,6.00294 L 187.781,6.02657 L 187.964,6.07341 L 188.139,6.14275 L 188.304,6.23351
 L 188.456,6.34422 L 188.593,6.47318 L 188.714,6.61832 L 188.814,6.77736 L 188.895,6.9478 L 188.953,7.12695
 L 188.988,7.312 L 189,7.5 L 188.988,7.68799 L 188.953,7.87303 L 188.895,8.05219 L 188.814,8.22263
 L 188.714,8.38167 L 188.593,8.52681 L 188.456,8.65576 L 188.304,8.76648 L 188.139,8.85724 L 187.964,8.92657
 L 187.781,8.97342 L 187.594,8.99704 z
M -187.594,8.99704 L -187.781,8.97342 L -187.964,8.92657 L -188.139,8.85724 L -188.304,8.76648 L -188.456,8.65576
 L -188.593,8.52681 L -188.714,8.38167 L -188.814,8.22263 L -188.895,8.05219 L -188.953,7.87303 L -188.988,7.68799
 L -189,7.5 L -188.988,7.312 L -188.953,7.12695 L -188.895,6.9478 L -188.814,6.77736 L -188.714,6.61832
 L -188.593,6.47318 L -188.456,6.34422 L -188.304,6.23351 L -188.139,6.14275 L -187.964,6.07341 L -187.781,6.02657
 L -187.594,6.00294 L -187.406,6.00294 L -187.219,6.02657 L -187.036,6.07341 L -186.861,6.14275 L -186.696,6.23351
 L -186.544,6.34422 L -186.407,6.47318 L -186.286,6.61832 L -186.186,6.77736 L -186.105,6.9478 L -186.047,7.12695
 L -186.012,7.312 L -186,7.5 L -186.012,7.68799 L -186.047,7.87303 L -186.105,8.05219 L -186.186,8.22263
 L -186.286,8.38167 L -186.407,8.52681 L -186.544,8.65576 L -186.696,8.76648 L -186.861,8.85724 L -187.036,8.92657
 L -187.219,8.97342 L -187.406,8.99704 z
M 187.312,17.9941 L 186.938,17.9469 L 186.573,17.8532 L 186.223,17.7145 L 185.893,17.533 L 185.588,17.3115
 L 185.313,17.0536 L 185.073,16.7634 L 184.871,16.4453 L 184.711,16.1044 L 184.594,15.7461 L 184.524,15.376
 L 184.5,15 L 184.524,14.624 L 184.594,14.2539 L 184.711,13.8956 L 184.871,13.5547 L 185.073,13.2366
 L 185.313,12.9464 L 185.588,12.6884 L 185.893,12.467 L 186.223,12.2855 L 186.573,12.1468 L 186.938,12.0531
 L 187.312,12.0059 L 187.688,12.0059 L 188.062,12.0531 L 188.427,12.1468 L 188.777,12.2855 L 189.107,12.467
 L 189.412,12.6884 L 189.687,12.9464 L 189.927,13.2366 L 190.129,13.5547 L 190.289,13.8956 L 190.406,14.2539
 L 190.476,14.624 L 190.5,15 L 190.476,15.376 L 190.406,15.7461 L 190.289,16.1044 L 190.129,16.4453
 L 189.927,16.7634 L 189.687,17.0536 L 189.412,17.3115 L 189.107,17.533 L 188.777,17.7145 L 188.427,17.8532
 L 188.062,17.9469 L 187.688,17.9941 z
M -187.688,17.9941 L -188.062,17.9469 L -188.427,17.8532 L -188.777,17.7145 L -189.107,17.533 L -189.412,17.3115
 L -189.687,17.0536 L -189.927,16.7634 L -190.129,16.4453 L -190.289,16.1044 L -190.406,15.7461 L -190.476,15.376
 L -190.5,15 L -190.476,14.624 L -190.406,14.2539 L -190.289,13.8956 L -190.129,13.5547 L -189.927,13.2366
 L -189.687,12.9464 L -189.412,12.6884 L -189.107,12.467 L -188.777,12.2855 L -188.427,12.1468 L -188.062,12.0531
 L -187.688,12.0059 L -187.312,12.0059 L -186.938,12.0531 L -186.573,12.1468 L -186.223,12.2855 L -185.893,12.467
 L -185.588,12.6884 L -185.313,12.9464 L -185.073,13.2366 L -184.871,13.5547 L -184.711,13.8956 L -184.594,14.2539
 L -184.524,14.624 L -184.5,15 L -184.524,15.376 L -184.594,15.7461 L -184.711,16.1044 L -184.871,16.4453
 L -185.073,16.7634 L -185.313,17.0536 L -185.588,17.3115 L -185.893,17.533 L -186.223,17.7145 L -186.573,17.8532
 L -186.938,17.9469 L -187.312,17.9941 z
M -187.594,23.997 L -187.781,23.9734 L -187.964,23.9266 L -188.139,23.8572 L -188.304,23.7665 L -188.456,23.6558
 L -188.593,23.5268 L -188.714,23.3817 L -188.814,23.2226 L -188.895,23.0522 L -188.953,22.873 L -188.988,22.688
 L -189,22.5 L -188.988,22.312 L -188.953,22.127 L -188.895,21.9478 L -188.814,21.7774 L -188.714,21.6183
 L -188.593,21.4732 L -188.456,21.3442 L -188.304,21.2335 L -188.139,21.1427 L -187.964,21.0734 L -187.781,21.0266
 L -187.594,21.003 L -187.406,21.003 L -187.219,21.0266 L -187.036,21.0734 L -186.861,21.1427 L -186.696,21.2335
 L -186.544,21.3442 L -186.407,21.4732 L -186.286,21.6183 L -186.186,21.7774 L -186.105,21.9478 L -186.047,22.127
 L -186.012,22.312 L -186,22.5 L -186.012,22.688 L -186.047,22.873 L -186.105,23.0522 L -186.186,23.2226
 L -186.286,23.3817 L -186.407,23.5268 L -186.544,23.6558 L -186.696,23.7665 L -186.861,23.8572 L -187.036,23.9266
 L -187.219,23.9734 L -187.406,23.997 z
M 187.406,23.997 L 187.219,23.9734 L 187.036,23.9266 L 186.861,23.8572 L 186.696,23.7665 L 186.544,23.6558
 L 186.407,23.5268 L 186.286,23.3817 L 186.186,23.2226 L 186.105,23.0522 L 186.047,22.873 L 186.012,22.688
 L 186,22.5 L 186.012,22.312 L 186.047,22.127 L 186.105,21.9478 L 186.186,21.7774 L 186.286,21.6183
 L 186.407,21.4732 L 186.544,21.3442 L 186.696,21.2335 L 186.861,21.1427 L 187.036,21.0734 L 187.219,21.0266
 L 187.406,21.003 L 187.594,21.003 L 187.781,21.0266 L 187.964,21.0734 L 188.139,21.1427 L 188.304,21.2335
 L 188.456,21.3442 L 188.593,21.4732 L 188.714,21.6183 L 188.814,21.7774 L 188.895,21.9478 L 188.953,22.127
 L 188.988,22.312 L 189,22.5 L 188.988,22.688 L 188.953,22.873 L 188.895,23.0522 L 188.814,23.2226
 L 188.714,23.3817 L 188.593,23.5268 L 188.456,23.6558 L 188.304,23.7665 L 188.139,23.8572 L 187.964,23.9266
 L 187.781,23.9734 L 187.594,23.997 z
M -187.688,32.9941 L -188.062,32.9469 L -188.427,32.8532 L -188.777,32.7145 L -189.107,32.533 L -189.412,32.3115
 L -189.687,32.0536 L -189.927,31.7634 L -190.129,31.4453 L -190.289,31.1044 L -190.406,30.7461 L -190.476,30.376
 L -190.5,30 L -190.476,29.624 L -190.406,29.2539 L -190.289,28.8956 L -190.129,28.5547 L -189.927,28.2366
 L -189.687,27.9464 L -189.412,27.6884 L -189.107,27.467 L -188.777,27.2855 L -188.427,27.1468 L -188.062,27.0531
 L -187.688,27.0059 L -187.312,27.0059 L -186.938,27.0531 L -186.573,27.1468 L -186.223,27.2855 L -185.893,27.467
 L -185.588,27.6884 L -185.313,27.9464 L -185.073,28.2366 L -184.871,28.5547 L -184.711,28.8956 L -184.594,29.2539
 L -184.524,29.624 L -184.5,30 L -184.524,30.376 L -184.594,30.7461 L -184.711,31.1044 L -184.871,31.4453
 L -185.073,31.7634 L -185.313,32.0536 L -185.588,32.3115 L -185.893,32.533 L -186.223,32.7145 L -186.573,32.8532
 L -186.938,32.9469 L -187.312,32.9941 z
M 187.312,32.9941 L 186.938,32.9469 L 186.573,32.8532 L 186.223,32.7145 L 185.893,32.533 L 185.588,32.3115
 L 185.313,32.0536 L 185.073,31.7634 L 184.871,31.4453 L 184.711,31.1044 L 184.594,30.7461 L 184.524,30.376
 L 184.5,30 L 184.524,29.624 L 184.594,29.2539 L 184.711,28.8956 L 184.871,28.5547 L 185.073,28.2366
 L 185.313,27.9464 L 185.588,27.6884 L 185.893,27.467 L 186.223,27.2855 L 186.573,27.1468 L 186.938,27.0531
 L 187.312,27.0059 L 187.688,27.0059 L 188.062,27.0531 L 188.427,27.1468 L 188.777,27.2855 L 189.107,27.467
 L 189.412,27.6884 L 189.687,27.9464 L 189.927,28.2366 L 190.129,28.5547 L 190.289,28.8956 L 190.406,29.2539
 L 190.476,29.624 L 190.5,30 L 190.476,30.376 L 190.406,30.7461 L 190.289,31.1044 L 190.129,31.4453
 L 189.927,31.7634 L 189.687,32.0536 L 189.412,32.3115 L 189.107,32.533 L 188.777,32.7145 L 188.427,32.8532
 L 188.062,32.9469 L 187.688,32.9941 z
" stroke="black" fill="lightgray" stroke-width="0.5"/>
</svg>
