<?xml version="1.0" standalone="no"?>
<!DOCTYPE svg PUBLIC "-//W3C//DTD SVG 1.1//EN" "http://www.w3.org/Graphics/SVG/1.1/DTD/svg11.dtd">
<svg width="164mm" height="164mm" viewBox="-82 -82 164 164" xmlns="http://www.w3.org/2000/svg" version="1.1">
<title>OpenSCAD Model</title>
<path d="
M 77.9369,81.9114 L 78.5451,81.7553 L 79.1289,81.5241 L 79.6791,81.2216 L 80.1871,80.8526 L 80.6448,80.4227
 L 81.0451,79.9389 L 81.3815,79.4088 L 81.6489,78.8406 L 81.8429,78.2434 L 81.9606,77.6267 L 82,77
 L 82,-77 L 81.9606,-77.6267 L 81.8429,-78.2434 L 81.6489,-78.8406 L 81.3815,-79.4088 L 81.0451,-79.9389
 L 80.6448,-80.4227 L 80.1871,-80.8526 L 79.6791,-81.2216 L 79.1289,-81.5241 L 78.5451,-81.7553 L 77.9369,-81.9114
 L 77.3139,-81.9901 L -77.3139,-81.9901 L -77.9369,-81.9114 L -78.5451,-81.7553 L -79.1289,-81.5241 L -79.6791,-81.2216
 L -80.1871,-80.8526 L -80.6448,-80.4227 L -81.0451,-79.9389 L -81.3815,-79.4088 L -81.6489,-78.8406 L -81.8429,-78.2434
 L -81.9606,-77.6267 L -82,-77 L -82,77 L -81.9606,77.6267 L -81.8429,78.2434 L -81.6489,78.8406
 L -81.3815,79.4088 L -81.0451,79.9389 L -80.6448,80.4227 L -80.1871,80.8526 L -79.6791,81.2216 L -79.1289,81.5241
 L -78.5451,81.7553 L -77.9369,81.9114 L -77.3139,81.9901 L 77.3139,81.9901 z
M 59.8116,-72.0059 L 59.4379,-72.0531 L 59.0729,-72.1468 L 58.7227,-72.2855 L 58.3925,-72.467 L 58.0877,-72.6885
 L 57.8131,-72.9464 L 57.5729,-73.2366 L 57.3711,-73.5547 L 57.2107,-73.8956 L 57.0942,-74.2539 L 57.0237,-74.624
 L 57,-75 L 57.0237,-75.376 L 57.0942,-75.7461 L 57.2107,-76.1044 L 57.3711,-76.4453 L 57.5729,-76.7634
 L 57.8131,-77.0536 L 58.0877,-77.3115 L 58.3925,-77.533 L 58.7227,-77.7145 L 59.0729,-77.8532 L 59.4379,-77.9469
 L 59.8116,-77.9941 L 60.1884,-77.9941 L 60.5621,-77.9469 L 60.927,-77.8532 L 61.2773,-77.7145 L 61.6075,-77.533
 L 61.9123,-77.3115 L 62.1869,-77.0536 L 62.427,-76.7634 L 62.6289,-76.4453 L 62.7893,-76.1044 L 62.9057,-75.7461
 L 62.9763,-75.376 L 63,-75 L 62.9763,-74.624 L 62.9057,-74.2539 L 62.7893,-73.8956 L 62.6289,-73.5547
 L 62.427,-73.2366 L 62.1869,-72.9464 L 61.9123,-72.6885 L 61.6075,-72.467 L 61.2773,-72.2855 L 60.927,-72.1468
 L 60.5621,-72.0531 L 60.1884,-72.0059 z
M -62.9057,-75.7461 L -62.7893,-76.1044 L -62.6289,-76.4453 L -62.427,-76.7634 L -62.1869,-77.0536 L -61.9123,-77.3115
 L -61.6075,-77.533 L -61.2773,-77.7145 L -60.927,-77.8532 L -60.5621,-77.9469 L -60.1884,-77.9941 L -59.8116,-77.9941
 L -59.4379,-77.9469 L -59.0729,-77.8532 L -58.7227,-77.7145 L -58.3925,-77.533 L -58.0877,-77.3115 L -57.8131,-77.0536
 L -57.5729,-76.7634 L -57.3711,-76.4453 L -57.2107,-76.1044 L -57.0942,-75.7461 L -57.0237,-75.376 L -57,-75
 L -57.0237,-74.624 L -57.0942,-74.2539 L -57.2107,-73.8956 L -57.3711,-73.5547 L -57.5729,-73.2366 L -57.8131,-72.9464
 L -58.0877,-72.6885 L -58.3925,-72.467 L -58.7227,-72.2855 L -59.0729,-72.1468 L -59.4379,-72.0531 L -59.8116,-72.0059
 L -60.1884,-72.0059 L -60.5621,-72.0531 L -60.927,-72.1468 L -61.2773,-72.2855 L -61.6075,-72.467 L -61.9123,-72.6885
 L -62.1869,-72.9464 L -62.427,-73.2366 L -62.6289,-73.5547 L -62.7893,-73.8956 L -62.9057,-74.2539 L -62.9763,-74.624
 L -63,-75 L -62.9763,-75.376 z
M 44.8116,-72.0059 L 44.4379,-72.0531 L 44.0729,-72.1468 L 43.7227,-72.2855 L 43.3925,-72.467 L 43.0877,-72.6885
 L 42.8131,-72.9464 L 42.5729,-73.2366 L 42.3711,-73.5547 L 42.2107,-73.8956 L 42.0942,-74.2539 L 42.0237,-74.624
 L 42,-75 L 42.0237,-75.376 L 42.0942,-75.7461 L 42.2107,-76.1044 L 42.3711,-76.4453 L 42.5729,-76.7634
 L 42.8131,-77.0536 L 43.0877,-77.3115 L 43.3925,-77.533 L 43.7227,-77.7145 L 44.0729,-77.8532 L 44.4379,-77.9469
 L 44.8116,-77.9941 L 45.1884,-77.9941 L 45.5621,-77.9469 L 45.927,-77.8532 L 46.2773,-77.7145 L 46.6075,-77.533
 L 46.9123,-77.3115 L 47.1869,-77.0536 L 47.427,-76.7634 L 47.6289,-76.4453 L 47.7893,-76.1044 L 47.9057,-75.7461
 L 47.9763,-75.376 L 48,-75 L 47.9763,-74.624 L 47.9057,-74.2539 L 47.7893,-73.8956 L 47.6289,-73.5547
 L 47.427,-73.2366 L 47.1869,-72.9464 L 46.9123,-72.6885 L 46.6075,-72.467 L 46.2773,-72.2855 L 45.927,-72.1468
 L 45.5621,-72.0531 L 45.1884,-72.0059 z
M 14.8116,-72.0059 L 14.4379,-72.0531 L 14.0729,-72.1468 L 13.7227,-72.2855 L 13.3925,-72.467 L 13.0877,-72.6885
 L 12.8131,-72.9464 L 12.5729,-73.2366 L 12.3711,-73.5547 L 12.2107,-73.8956 L 12.0942,-74.2539 L 12.0237,-74.624
 L 12,-75 L 12.0237,-75.376 L 12.0942,-75.7461 L 12.2107,-76.1044 L 12.3711,-76.4453 L 12.5729,-76.7634
 L 12.8131,-77.0536 L 13.0877,-77.3115 L 13.3925,-77.533 L 13.7227,-77.7145 L 14.0729,-77.8532 L 14.4379,-77.9469
 L 14.8116,-77.9941 L 15.1884,-77.9941 L 15.5621,-77.9469 L 15.927,-77.8532 L 16.2773,-77.7145 L 16.6075,-77.533
 L 16.9123,-77.3115 L 17.1869,-77.0536 L 17.427,-76.7634 L 17.6289,-76.4453 L 17.7893,-76.1044 L 17.9057,-75.7461
 L 17.9763,-75.376 L 18,-75 L 17.9763,-74.624 L 17.9057,-74.2539 L 17.7893,-73.8956 L 17.6289,-73.5547
 L 17.427,-73.2366 L 17.1869,-72.9464 L 16.9123,-72.6885 L 16.6075,-72.467 L 16.2773,-72.2855 L 15.927,-72.1468
 L 15.5621,-72.0531 L 15.1884,-72.0059 z
M -30.1884,-72.0059 L -30.5621,-72.0531 L -30.927,-72.1468 L -31.2773,-72.2855 L -31.6075,-72.467 L -31.9123,-72.6885
 L -32.1869,-72.9464 L -32.427,-73.2366 L -32.6289,-73.5547 L -32.7893,-73.8956 L -32.9057,-74.2539 L -32.9763,-74.624
 L -33,-75 L -32.9763,-75.376 L -32.9057,-75.7461 L -32.7893,-76.1044 L -32.6289,-76.4453 L -32.427,-76.7634
 L -32.1869,-77.0536 L -31.9123,-77.3115 L -31.6075,-77.533 L -31.2773,-77.7145 L -30.927,-77.8532 L -30.5621,-77.9469
 L -30.1884,-77.9941 L -29.8116,-77.9941 L -29.4379,-77.9469 L -29.0729,-77.8532 L -28.7227,-77.7145 L -28.3925,-77.533
 L -28.0877,-77.3115 L -27.8131,-77.0536 L -27.5729,-76.7634 L -27.3711,-76.4453 L -27.2107,-76.1044 L -27.0942,-75.7461
 L -27.0237,-75.376 L -27,-75 L -27.0237,-74.624 L -27.0942,-74.2539 L -27.2107,-73.8956 L -27.3711,-73.5547
 L -27.5729,-73.2366 L -27.8131,-72.9464 L -28.0877,-72.6885 L -28.3925,-72.467 L -28.7227,-72.2855 L -29.0729,-72.1468
 L -29.4379,-72.0531 L -29.8116,-72.0059 z
M 29.8116,-72.0059 L 29.4379,-72.0531 L 29.0729,-72.1468 L 28.7227,-72.2855 L 28.3925,-72.467 L 28.0877,-72.6885
 L 27.8131,-72.9464 L 27.5729,-73.2366 L 27.3711,-73.5547 L 27.2107,-73.8956 L 27.0942,-74.2539 L 27.0237,-74.624
 L 27,-75 L 27.0237,-75.376 L 27.0942,-75.7461 L 27.2107,-76.1044 L 27.3711,-76.4453 L 27.5729,-76.7634
 L 27.8131,-77.0536 L 28.0877,-77.3115 L 28.3925,-77.533 L 28.7227,-77.7145 L 29.0729,-77.8532 L 29.4379,-77.9469
 L 29.8116,-77.9941 L 30.1884,-77.9941 L 30.5621,-77.9469 L 30.927,-77.8532 L 31.2773,-77.7145 L 31.6075,-77.533
 L 31.9123,-77.3115 L 32.1869,-77.0536 L 32.427,-76.7634 L 32.6289,-76.4453 L 32.7893,-76.1044 L 32.9057,-75.7461
 L 32.9763,-75.376 L 33,-75 L 32.9763,-74.624 L 32.9057,-74.2539 L 32.7893,-73.8956 L 32.6289,-73.5547
 L 32.427,-73.2366 L 32.1869,-72.9464 L 31.9123,-72.6885 L 31.6075,-72.467 L 31.2773,-72.2855 L 30.927,-72.1468
 L 30.5621,-72.0531 L 30.1884,-72.0059 z
M -0.18837,-72.0059 L -0.562134,-72.0531 L -0.927048,-72.1468 L -1.27733,-72.2855 L -1.60747,-72.467 L -1.91226,-72.6885
 L -2.1869,-72.9464 L -2.42705,-73.2366 L -2.62891,-73.5547 L -2.78932,-73.8956 L -2.90575,-74.2539 L -2.97633,-74.624
 L -3,-75 L -2.97633,-75.376 L -2.90575,-75.7461 L -2.78932,-76.1044 L -2.62891,-76.4453 L -2.42705,-76.7634
 L -2.1869,-77.0536 L -1.91226,-77.3115 L -1.60747,-77.533 L -1.27733,-77.7145 L -0.927048,-77.8532 L -0.562134,-77.9469
 L -0.18837,-77.9941 L 0.18837,-77.9941 L 0.562134,-77.9469 L 0.927048,-77.8532 L 1.27733,-77.7145 L 1.60747,-77.533
 L 1.91226,-77.3115 L 2.1869,-77.0536 L 2.42705,-76.7634 L 2.62891,-76.4453 L 2.78932,-76.1044 L 2.90575,-75.7461
 L 2.97633,-75.376 L 3,-75 L 2.97633,-74.624 L 2.90575,-74.2539 L 2.78932,-73.8956 L 2.62891,-73.5547
 L 2.42705,-73.2366 L 2.1869,-72.9464 L 1.91226,-72.6885 L 1.60747,-72.467 L 1.27733,-72.2855 L 0.927048,-72.1468
 L 0.562134,-72.0531 L 0.18837,-72.0059 z
M -75.1884,-72.0059 L -75.5621,-72.0531 L -75.927,-72.1468 L -76.2773,-72.2855 L -76.6075,-72.467 L -76.9123,-72.6885
 L -77.1869,-72.9464 L -77.427,-73.2366 L -77.6289,-73.5547 L -77.7893,-73.8956 L -77.9057,-74.2539 L -77.9763,-74.624
 L -78,-75 L -77.9763,-75.376 L -77.9057,-75.7461 L -77.7893,-76.1044 L -77.6289,-76.4453 L -77.427,-76.7634
 L -77.1869,-77.0536 L -76.9123,-77.3115 L -76.6075,-77.533 L -76.2773,-77.7145 L -75.927,-77.8532 L -75.5621,-77.9469
 L -75.1884,-77.9941 L -74.8116,-77.9941 L -74.4379,-77.9469 L -74.073,-77.8532 L -73.7227,-77.7145 L -73.3925,-77.533
 L -73.0877,-77.3115 L -72.8131,-77.0536 L -72.573,-76.7634 L -72.3711,-76.4453 L -72.2107,-76.1044 L -72.0943,-75.7461
 L -72.0237,-75.376 L -72,-75 L -72.0237,-74.624 L -72.0943,-74.2539 L -72.2107,-73.8956 L -72.3711,-73.5547
 L -72.573,-73.2366 L -72.8131,-72.9464 L -73.0877,-72.6885 L -73.3925,-72.467 L -73.7227,-72.2855 L -74.073,-72.1468
 L -74.4379,-72.0531 L -74.8116,-72.0059 z
M -15.1884,-72.0059 L -15.5621,-72.0531 L -15.927,-72.1468 L -16.2773,-72.2855 L -16.6075,-72.467 L -16.9123,-72.6885
 L -17.1869,-72.9464 L -17.427,-73.2366 L -17.6289,-73.5547 L -17.7893,-73.8956 L -17.9057,-74.2539 L -17.9763,-74.624
 L -18,-75 L -17.9763,-75.376 L -17.9057,-75.7461 L -17.7893,-76.1044 L -17.6289,-76.4453 L -17.427,-76.7634
 L -17.1869,-77.0536 L -16.9123,-77.3115 L -16.6075,-77.533 L -16.2773,-77.7145 L -15.927,-77.8532 L -15.5621,-77.9469
 L -15.1884,-77.9941 L -14.8116,-77.9941 L -14.4379,-77.9469 L -14.0729,-77.8532 L -13.7227,-77.7145 L -13.3925,-77.533
 L -13.0877,-77.3115 L -12.8131,-77.0536 L -12.5729,-76.7634 L -12.3711,-76.4453 L -12.2107,-76.1044 L -12.0942,-75.7461
 L -12.0237,-75.376 L -12,-75 L -12.0237,-74.624 L -12.0942,-74.2539 L -12.2107,-73.8956 L -12.3711,-73.5547
 L -12.5729,-73.2366 L -12.8131,-72.9464 L -13.0877,-72.6885 L -13.3925,-72.467 L -13.7227,-72.2855 L -14.0729,-72.1468
 L -14.4379,-72.0531 L -14.8116,-72.0059 z
M 74.8116,-72.0059 L 74.4379,-72.0531 L 74.073,-72.1468 L 73.7227,-72.2855 L 73.3925,-72.467 L 73.0877,-72.6885
 L 72.8131,-72.9464 L 72.573,-73.2366 L 72.3711,-73.5547 L 72.2107,-73.8956 L 72.0943,-74.2539 L 72.0237,-74.624
 L 72,-75 L 72.0237,-75.376 L 72.0943,-75.7461 L 72.2107,-76.1044 L 72.3711,-76.4453 L 72.573,-76.7634
 L 72.8131,-77.0536 L 73.0877,-77.3115 L 73.3925,-77.533 L 73.7227,-77.7145 L 74.073,-77.8532 L 74.4379,-77.9469
 L 74.8116,-77.9941 L 75.1884,-77.9941 L 75.5621,-77.9469 L 75.927,-77.8532 L 76.2773,-77.7145 L 76.6075,-77.533
 L 76.9123,-77.3115 L 77.1869,-77.0536 L 77.427,-76.7634 L 77.6289,-76.4453 L 77.7893,-76.1044 L 77.9057,-75.7461
 L 77.9763,-75.376 L 78,-75 L 77.9763,-74.624 L 77.9057,-74.2539 L 77.7893,-73.8956 L 77.6289,-73.5547
 L 77.427,-73.2366 L 77.1869,-72.9464 L 76.9123,-72.6885 L 76.6075,-72.467 L 76.2773,-72.2855 L 75.927,-72.1468
 L 75.5621,-72.0531 L 75.1884,-72.0059 z
M -45.1884,-72.0059 L -45.5621,-72.0531 L -45.927,-72.1468 L -46.2773,-72.2855 L -46.6075,-72.467 L -46.9123,-72.6885
 L -47.1869,-72.9464 L -47.427,-73.2366 L -47.6289,-73.5547 L -47.7893,-73.8956 L -47.9057,-74.2539 L -47.9763,-74.624
 L -48,-75 L -47.9763,-75.376 L -47.9057,-75.7461 L -47.7893,-76.1044 L -47.6289,-76.4453 L -47.427,-76.7634
 L -47.1869,-77.0536 L -46.9123,-77.3115 L -46.6075,-77.533 L -46.2773,-77.7145 L -45.927,-77.8532 L -45.5621,-77.9469
 L -45.1884,-77.9941 L -44.8116,-77.9941 L -44.4379,-77.9469 L -44.0729,-77.8532 L -43.7227,-77.7145 L -43.3925,-77.533
 L -43.0877,-77.3115 L -42.8131,-77.0536 L -42.5729,-76.7634 L -42.3711,-76.4453 L -42.2107,-76.1044 L -42.0942,-75.7461
 L -42.0237,-75.376 L -42,-75 L -42.0237,-74.624 L -42.0942,-74.2539 L -42.2107,-73.8956 L -42.3711,-73.5547
 L -42.5729,-73.2366 L -42.8131,-72.9464 L -43.0877,-72.6885 L -43.3925,-72.467 L -43.7227,-72.2855 L -44.0729,-72.1468
 L -44.4379,-72.0531 L -44.8116,-72.0059 z
M 37.4058,-73.503 L 37.2189,-73.5266 L 37.0365,-73.5734 L 36.8613,-73.6428 L 36.6963,-73.7335 L 36.5439,-73.8442
 L 36.4065,-73.9732 L 36.2865,-74.1183 L 36.1855,-74.2774 L 36.1053,-74.4478 L 36.0471,-74.627 L 36.0118,-74.812
 L 36,-75 L 36.0118,-75.188 L 36.0471,-75.373 L 36.1053,-75.5522 L 36.1855,-75.7226 L 36.2865,-75.8817
 L 36.4065,-76.0268 L 36.5439,-76.1558 L 36.6963,-76.2665 L 36.8613,-76.3572 L 37.0365,-76.4266 L 37.2189,-76.4734
 L 37.4058,-76.497 L 37.5942,-76.497 L 37.7811,-76.4734 L 37.9635,-76.4266 L 38.1387,-76.3572 L 38.3037,-76.2665
 L 38.4561,-76.1558 L 38.5934,-76.0268 L 38.7135,-75.8817 L 38.8145,-75.7226 L 38.8947,-75.5522 L 38.9529,-75.373
 L 38.9882,-75.188 L 39,-75 L 38.9882,-74.812 L 38.9529,-74.627 L 38.8947,-74.4478 L 38.8145,-74.2774
 L 38.7135,-74.1183 L 38.5934,-73.9732 L 38.4561,-73.8442 L 38.3037,-73.7335 L 38.1387,-73.6428 L 37.9635,-73.5734
 L 37.7811,-73.5266 L 37.5942,-73.503 z
M -7.59418,-73.503 L -7.78107,-73.5266 L -7.96352,-73.5734 L -8.13866,-73.6428 L -8.30373,-73.7335 L -8.45613,-73.8442
 L -8.59344,-73.9732 L -8.71352,-74.1183 L -8.81445,-74.2774 L -8.89465,-74.4478 L -8.95287,-74.627 L -8.98816,-74.812
 L -9,-75 L -8.98816,-75.188 L -8.95287,-75.373 L -8.89465,-75.5522 L -8.81445,-75.7226 L -8.71352,-75.8817
 L -8.59344,-76.0268 L -8.45613,-76.1558 L -8.30373,-76.2665 L -8.13866,-76.3572 L -7.96352,-76.4266 L -7.78107,-76.4734
 L -7.59418,-76.497 L -7.40581,-76.497 L -7.21892,-76.4734 L -7.03647,-76.4266 L -6.86133,-76.3572 L -6.69626,-76.2665
 L -6.54385,-76.1558 L -6.40654,-76.0268 L -6.28647,-75.8817 L -6.18553,-75.7226 L -6.10533,-75.5522 L -6.04712,-75.373
 L -6.01183,-75.188 L -6,-75 L -6.01183,-74.812 L -6.04712,-74.627 L -6.10533,-74.4478 L -6.18553,-74.2774
 L -6.28647,-74.1183 L -6.40654,-73.9732 L -6.54385,-73.8442 L -6.69626,-73.7335 L -6.86133,-73.6428 L -7.03647,-73.5734
 L -7.21892,-73.5266 L -7.40581,-73.503 z
M -22.5942,-73.503 L -22.7811,-73.5266 L -22.9635,-73.5734 L -23.1387,-73.6428 L -23.3037,-73.7335 L -23.4561,-73.8442
 L -23.5934,-73.9732 L -23.7135,-74.1183 L -23.8145,-74.2774 L -23.8947,-74.4478 L -23.9529,-74.627 L -23.9882,-74.812
 L -24,-75 L -23.9882,-75.188 L -23.9529,-75.373 L -23.8947,-75.5522 L -23.8145,-75.7226 L -23.7135,-75.8817
 L -23.5934,-76.0268 L -23.4561,-76.1558 L -23.3037,-76.2665 L -23.1387,-76.3572 L -22.9635,-76.4266 L -22.7811,-76.4734
 L -22.5942,-76.497 L -22.4058,-76.497 L -22.2189,-76.4734 L -22.0365,-76.4266 L -21.8613,-76.3572 L -21.6963,-76.2665
 L -21.5439,-76.1558 L -21.4065,-76.0268 L -21.2865,-75.8817 L -21.1855,-75.7226 L -21.1053,-75.5522 L -21.0471,-75.373
 L -21.0118,-75.188 L -21,-75 L -21.0118,-74.812 L -21.0471,-74.627 L -21.1053,-74.4478 L -21.1855,-74.2774
 L -21.2865,-74.1183 L -21.4065,-73.9732 L -21.5439,-73.8442 L -21.6963,-73.7335 L -21.8613,-73.6428 L -22.0365,-73.5734
 L -22.2189,-73.5266 L -22.4058,-73.503 z
M 7.40581,-73.503 L 7.21892,-73.5266 L 7.03647,-73.5734 L 6.86133,-73.6428 L 6.69626,-73.7335 L 6.54385,-73.8442
 L 6.40654,-73.9732 L 6.28647,-74.1183 L 6.18553,-74.2774 L 6.10533,-74.4478 L 6.04712,-74.627 L 6.01183,-74.812
 L 6,-75 L 6.01183,-75.188 L 6.04712,-75.373 L 6.10533,-75.5522 L 6.18553,-75.7226 L 6.28647,-75.8817
 L 6.40654,-76.0268 L 6.54385,-76.1558 L 6.69626,-76.2665 L 6.86133,-76.3572 L 7.03647,-76.4266 L 7.21892,-76.4734
 L 7.40581,-76.497 L 7.59418,-76.497 L 7.78107,-76.4734 L 7.96352,-76.4266 L 8.13866,-76.3572 L 8.30373,-76.2665
 L 8.45613,-76.1558 L 8.59344,-76.0268 L 8.71352,-75.8817 L 8.81445,-75.7226 L 8.89465,-75.5522 L 8.95287,-75.373
 L 8.98816,-75.188 L 9,-75 L 8.98816,-74.812 L 8.95287,-74.627 L 8.89465,-74.4478 L 8.81445,-74.2774
 L 8.71352,-74.1183 L 8.59344,-73.9732 L 8.45613,-73.8442 L 8.30373,-73.7335 L 8.13866,-73.6428 L 7.96352,-73.5734
 L 7.78107,-73.5266 L 7.59418,-73.503 z
M -52.5942,-73.503 L -52.7811,-73.5266 L -52.9635,-73.5734 L -53.1387,-73.6428 L -53.3037,-73.7335 L -53.4561,-73.8442
 L -53.5934,-73.9732 L -53.7135,-74.1183 L -53.8145,-74.2774 L -53.8947,-74.4478 L -53.9529,-74.627 L -53.9882,-74.812
 L -54,-75 L -53.9882,-75.188 L -53.9529,-75.373 L -53.8947,-75.5522 L -53.8145,-75.7226 L -53.7135,-75.8817
 L -53.5934,-76.0268 L -53.4561,-76.1558 L -53.3037,-76.2665 L -53.1387,-76.3572 L -52.9635,-76.4266 L -52.7811,-76.4734
 L -52.5942,-76.497 L -52.4058,-76.497 L -52.2189,-76.4734 L -52.0365,-76.4266 L -51.8613,-76.3572 L -51.6963,-76.2665
 L -51.5439,-76.1558 L -51.4065,-76.0268 L -51.2865,-75.8817 L -51.1855,-75.7226 L -51.1053,-75.5522 L -51.0471,-75.373
 L -51.0118,-75.188 L -51,-75 L -51.0118,-74.812 L -51.0471,-74.627 L -51.1053,-74.4478 L -51.1855,-74.2774
 L -51.2865,-74.1183 L -51.4065,-73.9732 L -51.5439,-73.8442 L -51.6963,-73.7335 L -51.8613,-73.6428 L -52.0365,-73.5734
 L -52.2189,-73.5266 L -52.4058,-73.503 z
M -37.5942,-73.503 L -37.7811,-73.5266 L -37.9635,-73.5734 L -38.1387,-73.6428 L -38.3037,-73.7335 L -38.4561,-73.8442
 L -38.5934,-73.9732 L -38.7135,-74.1183 L -38.8145,-74.2774 L -38.8947,-74.4478 L -38.9529,-74.627 L -38.9882,-74.812
 L -39,-75 L -38.9882,-75.188 L -38.9529,-75.373 L -38.8947,-75.5522 L -38.8145,-75.7226 L -38.7135,-75.8817
 L -38.5934,-76.0268 L -38.4561,-76.1558 L -38.3037,-76.2665 L -38.1387,-76.3572 L -37.9635,-76.4266 L -37.7811,-76.4734
 L -37.5942,-76.497 L -37.4058,-76.497 L -37.2189,-76.4734 L -37.0365,-76.4266 L -36.8613,-76.3572 L -36.6963,-76.2665
 L -36.5439,-76.1558 L -36.4065,-76.0268 L -36.2865,-75.8817 L -36.1855,-75.7226 L -36.1053,-75.5522 L -36.0471,-75.373
 L -36.0118,-75.188 L -36,-75 L -36.0118,-74.812 L -36.0471,-74.627 L -36.1053,-74.4478 L -36.1855,-74.2774
 L -36.2865,-74.1183 L -36.4065,-73.9732 L -36.5439,-73.8442 L -36.6963,-73.7335 L -36.8613,-73.6428 L -37.0365,-73.5734
 L -37.2189,-73.5266 L -37.4058,-73.503 z
M 22.4058,-73.503 L 22.2189,-73.5266 L 22.0365,-73.5734 L 21.8613,-73.6428 L 21.6963,-73.7335 L 21.5439,-73.8442
 L 21.4065,-73.9732 L 21.2865,-74.1183 L 21.1855,-74.2774 L 21.1053,-74.4478 L 21.0471,-74.627 L 21.0118,-74.812
 L 21,-75 L 21.0118,-75.188 L 21.0471,-75.373 L 21.1053,-75.5522 L 21.1855,-75.7226 L 21.2865,-75.8817
 L 21.4065,-76.0268 L 21.5439,-76.1558 L 21.6963,-76.2665 L 21.8613,-76.3572 L 22.0365,-76.4266 L 22.2189,-76.4734
 L 22.4058,-76.497 L 22.5942,-76.497 L 22.7811,-76.4734 L 22.9635,-76.4266 L 23.1387,-76.3572 L 23.3037,-76.2665
 L 23.4561,-76.1558 L 23.5934,-76.0268 L 23.7135,-75.8817 L 23.8145,-75.7226 L 23.8947,-75.5522 L 23.9529,-75.373
 L 23.9882,-75.188 L 24,-75 L 23.9882,-74.812 L 23.9529,-74.627 L 23.8947,-74.4478 L 23.8145,-74.2774
 L 23.7135,-74.1183 L 23.5934,-73.9732 L 23.4561,-73.8442 L 23.3037,-73.7335 L 23.1387,-73.6428 L 22.9635,-73.5734
 L 22.7811,-73.5266 L 22.5942,-73.503 z
M 67.4058,-73.503 L 67.2189,-73.5266 L 67.0365,-73.5734 L 66.8613,-73.6428 L 66.6963,-73.7335 L 66.5439,-73.8442
 L 66.4065,-73.9732 L 66.2865,-74.1183 L 66.1855,-74.2774 L 66.1053,-74.4478 L 66.0471,-74.627 L 66.0118,-74.812
 L 66,-75 L 66.0118,-75.188 L 66.0471,-75.373 L 66.1053,-75.5522 L 66.1855,-75.7226 L 66.2865,-75.8817
 L 66.4065,-76.0268 L 66.5439,-76.1558 L 66.6963,-76.2665 L 66.8613,-76.3572 L 67.0365,-76.4266 L 67.2189,-76.4734
 L 67.4058,-76.497 L 67.5942,-76.497 L 67.7811,-76.4734 L 67.9635,-76.4266 L 68.1387,-76.3572 L 68.3037,-76.2665
 L 68.4561,-76.1558 L 68.5934,-76.0268 L 68.7135,-75.8817 L 68.8145,-75.7226 L 68.8947,-75.5522 L 68.9529,-75.373
 L 68.9882,-75.188 L 69,-75 L 68.9882,-74.812 L 68.9529,-74.627 L 68.8947,-74.4478 L 68.8145,-74.2774
 L 68.7135,-74.1183 L 68.5934,-73.9732 L 68.4561,-73.8442 L 68.3037,-73.7335 L 68.1387,-73.6428 L 67.9635,-73.5734
 L 67.7811,-73.5266 L 67.5942,-73.503 z
M 52.4058,-73.503 L 52.2189,-73.5266 L 52.0365,-73.5734 L 51.8613,-73.6428 L 51.6963,-73.7335 L 51.5439,-73.8442
 L 51.4065,-73.9732 L 51.2865,-74.1183 L 51.1855,-74.2774 L 51.1053,-74.4478 L 51.0471,-74.627 L 51.0118,-74.812
 L 51,-75 L 51.0118,-75.188 L 51.0471,-75.373 L 51.1053,-75.5522 L 51.1855,-75.7226 L 51.2865,-75.8817
 L 51.4065,-76.0268 L 51.5439,-76.1558 L 51.6963,-76.2665 L 51.8613,-76.3572 L 52.0365,-76.4266 L 52.2189,-76.4734
 L 52.4058,-76.497 L 52.5942,-76.497 L 52.7811,-76.4734 L 52.9635,-76.4266 L 53.1387,-76.3572 L 53.3037,-76.2665
 L 53.4561,-76.1558 L 53.5934,-76.0268 L 53.7135,-75.8817 L 53.8145,-75.7226 L 53.8947,-75.5522 L 53.9529,-75.373
 L 53.9882,-75.188 L 54,-75 L 53.9882,-74.812 L 53.9529,-74.627 L 53.8947,-74.4478 L 53.8145,-74.2774
 L 53.7135,-74.1183 L 53.5934,-73.9732 L 53.4561,-73.8442 L 53.3037,-73.7335 L 53.1387,-73.6428 L 52.9635,-73.5734
 L 52.7811,-73.5266 L 52.5942,-73.503 z
M 74.9058,-66.003 L 74.7189,-66.0266 L 74.5365,-66.0734 L 74.3613,-66.1428 L 74.1963,-66.2335 L 74.0439,-66.3442
 L 73.9065,-66.4732 L 73.7865,-66.6183 L 73.6855,-66.7774 L 73.6053,-66.9478 L 73.5471,-67.127 L 73.5118,-67.312
 L 73.5,-67.5 L 73.5118,-67.688 L 73.5471,-67.873 L 73.6053,-68.0522 L 73.6855,-68.2226 L 73.7865,-68.3817
 L 73.9065,-68.5268 L 74.0439,-68.6558 L 74.1963,-68.7665 L 74.3613,-68.8572 L 74.5365,-68.9266 L 74.7189,-68.9734
 L 74.9058,-68.997 L 75.0942,-68.997 L 75.2811,-68.9734 L 75.4635,-68.9266 L 75.6387,-68.8572 L 75.8037,-68.7665
 L 75.9561,-68.6558 L 76.0934,-68.5268 L 76.2135,-68.3817 L 76.3145,-68.2226 L 76.3947,-68.0522 L 76.4529,-67.873
 L 76.4882,-67.688 L 76.5,-67.5 L 76.4882,-67.312 L 76.4529,-67.127 L 76.3947,-66.9478 L 76.3145,-66.7774
 L 76.2135,-66.6183 L 76.0934,-66.4732 L 75.9561,-66.3442 L 75.8037,-66.2335 L 75.6387,-66.1428 L 75.4635,-66.0734
 L 75.2811,-66.0266 L 75.0942,-66.003 z
M -75.0942,-66.003 L -75.2811,-66.0266 L -75.4635,-66.0734 L -75.6387,-66.1428 L -75.8037,-66.2335 L -75.9561,-66.3442
 L -76.0934,-66.4732 L -76.2135,-66.6183 L -76.3145,-66.7774 L -76.3947,-66.9478 L -76.4529,-67.127 L -76.4882,-67.312
 L -76.5,-67.5 L -76.4882,-67.688 L -76.4529,-67.873 L -76.3947,-68.0522 L -76.3145,-68.2226 L -76.2135,-68.3817
 L -76.0934,-68.5268 L -75.9561,-68.6558 L -75.8037,-68.7665 L -75.6387,-68.8572 L -75.4635,-68.9266 L -75.2811,-68.9734
 L -75.0942,-68.997 L -74.9058,-68.997 L -74.7189,-68.9734 L -74.5365,-68.9266 L -74.3613,-68.8572 L -74.1963,-68.7665
 L -74.0439,-68.6558 L -73.9065,-68.5268 L -73.7865,-68.3817 L -73.6855,-68.2226 L -73.6053,-68.0522 L -73.5471,-67.873
 L -73.5118,-67.688 L -73.5,-67.5 L -73.5118,-67.312 L -73.5471,-67.127 L -73.6053,-66.9478 L -73.6855,-66.7774
 L -73.7865,-66.6183 L -73.9065,-66.4732 L -74.0439,-66.3442 L -74.1963,-66.2335 L -74.3613,-66.1428 L -74.5365,-66.0734
 L -74.7189,-66.0266 L -74.9058,-66.003 z
M -4.08138,64.8717 L -12.1798,63.8487 L -20.0861,61.8187 L -27.6756,58.8138 L -34.8287,54.8813 L -41.4326,50.0834
 L -47.3829,44.4956 L -52.5861,38.206 L -56.9599,31.314 L -60.4355,23.9281 L -62.9579,16.1648 L -64.4875,8.14665
 L -65,-0 L -64.4875,-8.14665 L -62.9579,-16.1648 L -60.4355,-23.9281 L -56.9599,-31.314 L -52.5861,-38.206
 L -47.3829,-44.4956 L -41.4326,-50.0834 L -34.8287,-54.8813 L -27.6756,-58.8138 L -20.0861,-61.8187 L -12.1798,-63.8487
 L -4.08138,-64.8717 L 4.08138,-64.8717 L 12.1798,-63.8487 L 20.0861,-61.8187 L 27.6756,-58.8138 L 34.8287,-54.8813
 L 41.4326,-50.0834 L 47.3829,-44.4956 L 52.5861,-38.206 L 56.9599,-31.314 L 60.4355,-23.9281 L 62.9579,-16.1648
 L 64.4875,-8.14665 L 65,-0 L 64.4875,8.14665 L 62.9579,16.1648 L 60.4355,23.9281 L 56.9599,31.314
 L 52.5861,38.206 L 47.3829,44.4956 L 41.4326,50.0834 L 34.8287,54.8813 L 27.6756,58.8138 L 20.0861,61.8187
 L 12.1798,63.8487 L 4.08138,64.8717 z
M -75.1884,-57.0059 L -75.5621,-57.0531 L -75.927,-57.1468 L -76.2773,-57.2855 L -76.6075,-57.467 L -76.9123,-57.6885
 L -77.1869,-57.9464 L -77.427,-58.2366 L -77.6289,-58.5547 L -77.7893,-58.8956 L -77.9057,-59.2539 L -77.9763,-59.624
 L -78,-60 L -77.9763,-60.376 L -77.9057,-60.7461 L -77.7893,-61.1044 L -77.6289,-61.4453 L -77.427,-61.7634
 L -77.1869,-62.0536 L -76.9123,-62.3115 L -76.6075,-62.533 L -76.2773,-62.7145 L -75.927,-62.8532 L -75.5621,-62.9469
 L -75.1884,-62.9941 L -74.8116,-62.9941 L -74.4379,-62.9469 L -74.073,-62.8532 L -73.7227,-62.7145 L -73.3925,-62.533
 L -73.0877,-62.3115 L -72.8131,-62.0536 L -72.573,-61.7634 L -72.3711,-61.4453 L -72.2107,-61.1044 L -72.0943,-60.7461
 L -72.0237,-60.376 L -72,-60 L -72.0237,-59.624 L -72.0943,-59.2539 L -72.2107,-58.8956 L -72.3711,-58.5547
 L -72.573,-58.2366 L -72.8131,-57.9464 L -73.0877,-57.6885 L -73.3925,-57.467 L -73.7227,-57.2855 L -74.073,-57.1468
 L -74.4379,-57.0531 L -74.8116,-57.0059 z
M 74.8116,-57.0059 L 74.4379,-57.0531 L 74.073,-57.1468 L 73.7227,-57.2855 L 73.3925,-57.467 L 73.0877,-57.6885
 L 72.8131,-57.9464 L 72.573,-58.2366 L 72.3711,-58.5547 L 72.2107,-58.8956 L 72.0943,-59.2539 L 72.0237,-59.624
 L 72,-60 L 72.0237,-60.376 L 72.0943,-60.7461 L 72.2107,-61.1044 L 72.3711,-61.4453 L 72.573,-61.7634
 L 72.8131,-62.0536 L 73.0877,-62.3115 L 73.3925,-62.533 L 73.7227,-62.7145 L 74.073,-62.8532 L 74.4379,-62.9469
 L 74.8116,-62.9941 L 75.1884,-62.9941 L 75.5621,-62.9469 L 75.927,-62.8532 L 76.2773,-62.7145 L 76.6075,-62.533
 L 76.9123,-62.3115 L 77.1869,-62.0536 L 77.427,-61.7634 L 77.6289,-61.4453 L 77.7893,-61.1044 L 77.9057,-60.7461
 L 77.9763,-60.376 L 78,-60 L 77.9763,-59.624 L 77.9057,-59.2539 L 77.7893,-58.8956 L 77.6289,-58.5547
 L 77.427,-58.2366 L 77.1869,-57.9464 L 76.9123,-57.6885 L 76.6075,-57.467 L 76.2773,-57.2855 L 75.927,-57.1468
 L 75.5621,-57.0531 L 75.1884,-57.0059 z
M -75.0942,-51.003 L -75.2811,-51.0266 L -75.4635,-51.0734 L -75.6387,-51.1428 L -75.8037,-51.2335 L -75.9561,-51.3442
 L -76.0934,-51.4732 L -76.2135,-51.6183 L -76.3145,-51.7774 L -76.3947,-51.9478 L -76.4529,-52.127 L -76.4882,-52.312
 L -76.5,-52.5 L -76.4882,-52.688 L -76.4529,-52.873 L -76.3947,-53.0522 L -76.3145,-53.2226 L -76.2135,-53.3817
 L -76.0934,-53.5268 L -75.9561,-53.6558 L -75.8037,-53.7665 L -75.6387,-53.8572 L -75.4635,-53.9266 L -75.2811,-53.9734
 L -75.0942,-53.997 L -74.9058,-53.997 L -74.7189,-53.9734 L -74.5365,-53.9266 L -74.3613,-53.8572 L -74.1963,-53.7665
 L -74.0439,-53.6558 L -73.9065,-53.5268 L -73.7865,-53.3817 L -73.6855,-53.2226 L -73.6053,-53.0522 L -73.5471,-52.873
 L -73.5118,-52.688 L -73.5,-52.5 L -73.5118,-52.312 L -73.5471,-52.127 L -73.6053,-51.9478 L -73.6855,-51.7774
 L -73.7865,-51.6183 L -73.9065,-51.4732 L -74.0439,-51.3442 L -74.1963,-51.2335 L -74.3613,-51.1428 L -74.5365,-51.0734
 L -74.7189,-51.0266 L -74.9058,-51.003 z
M 74.9058,-51.003 L 74.7189,-51.0266 L 74.5365,-51.0734 L 74.3613,-51.1428 L 74.1963,-51.2335 L 74.0439,-51.3442
 L 73.9065,-51.4732 L 73.7865,-51.6183 L 73.6855,-51.7774 L 73.6053,-51.9478 L 73.5471,-52.127 L 73.5118,-52.312
 L 73.5,-52.5 L 73.5118,-52.688 L 73.5471,-52.873 L 73.6053,-53.0522 L 73.6855,-53.2226 L 73.7865,-53.3817
 L 73.9065,-53.5268 L 74.0439,-53.6558 L 74.1963,-53.7665 L 74.3613,-53.8572 L 74.5365,-53.9266 L 74.7189,-53.9734
 L 74.9058,-53.997 L 75.0942,-53.997 L 75.2811,-53.9734 L 75.4635,-53.9266 L 75.6387,-53.8572 L 75.8037,-53.7665
 L 75.9561,-53.6558 L 76.0934,-53.5268 L 76.2135,-53.3817 L 76.3145,-53.2226 L 76.3947,-53.0522 L 76.4529,-52.873
 L 76.4882,-52.688 L 76.5,-52.5 L 76.4882,-52.312 L 76.4529,-52.127 L 76.3947,-51.9478 L 76.3145,-51.7774
 L 76.2135,-51.6183 L 76.0934,-51.4732 L 75.9561,-51.3442 L 75.8037,-51.2335 L 75.6387,-51.1428 L 75.4635,-51.0734
 L 75.2811,-51.0266 L 75.0942,-51.003 z
M 74.8116,-42.0059 L 74.4379,-42.0531 L 74.073,-42.1468 L 73.7227,-42.2855 L 73.3925,-42.467 L 73.0877,-42.6885
 L 72.8131,-42.9464 L 72.573,-43.2366 L 72.3711,-43.5547 L 72.2107,-43.8956 L 72.0943,-44.2539 L 72.0237,-44.624
 L 72,-45 L 72.0237,-45.376 L 72.0943,-45.7461 L 72.2107,-46.1044 L 72.3711,-46.4453 L 72.573,-46.7634
 L 72.8131,-47.0536 L 73.0877,-47.3115 L 73.3925,-47.533 L 73.7227,-47.7145 L 74.073,-47.8532 L 74.4379,-47.9469
 L 74.8116,-47.9941 L 75.1884,-47.9941 L 75.5621,-47.9469 L 75.927,-47.8532 L 76.2773,-47.7145 L 76.6075,-47.533
 L 76.9123,-47.3115 L 77.1869,-47.0536 L 77.427,-46.7634 L 77.6289,-46.4453 L 77.7893,-46.1044 L 77.9057,-45.7461
 L 77.9763,-45.376 L 78,-45 L 77.9763,-44.624 L 77.9057,-44.2539 L 77.7893,-43.8956 L 77.6289,-43.5547
 L 77.427,-43.2366 L 77.1869,-42.9464 L 76.9123,-42.6885 L 76.6075,-42.467 L 76.2773,-42.2855 L 75.927,-42.1468
 L 75.5621,-42.0531 L 75.1884,-42.0059 z
M -75.1884,-42.0059 L -75.5621,-42.0531 L -75.927,-42.1468 L -76.2773,-42.2855 L -76.6075,-42.467 L -76.9123,-42.6885
 L -77.1869,-42.9464 L -77.427,-43.2366 L -77.6289,-43.5547 L -77.7893,-43.8956 L -77.9057,-44.2539 L -77.9763,-44.624
 L -78,-45 L -77.9763,-45.376 L -77.9057,-45.7461 L -77.7893,-46.1044 L -77.6289,-46.4453 L -77.427,-46.7634
 L -77.1869,-47.0536 L -76.9123,-47.3115 L -76.6075,-47.533 L -76.2773,-47.7145 L -75.927,-47.8532 L -75.5621,-47.9469
 L -75.1884,-47.9941 L -74.8116,-47.9941 L -74.4379,-47.9469 L -74.073,-47.8532 L -73.7227,-47.7145 L -73.3925,-47.533
 L -73.0877,-47.3115 L -72.8131,-47.0536 L -72.573,-46.7634 L -72.3711,-46.4453 L -72.2107,-46.1044 L -72.0943,-45.7461
 L -72.0237,-45.376 L -72,-45 L -72.0237,-44.624 L -72.0943,-44.2539 L -72.2107,-43.8956 L -72.3711,-43.5547
 L -72.573,-43.2366 L -72.8131,-42.9464 L -73.0877,-42.6885 L -73.3925,-42.467 L -73.7227,-42.2855 L -74.073,-42.1468
 L -74.4379,-42.0531 L -74.8116,-42.0059 z
M 74.9058,-36.003 L 74.7189,-36.0266 L 74.5365,-36.0734 L 74.3613,-36.1428 L 74.1963,-36.2335 L 74.0439,-36.3442
 L 73.9065,-36.4732 L 73.7865,-36.6183 L 73.6855,-36.7774 L 73.6053,-36.9478 L 73.5471,-37.127 L 73.5118,-37.312
 L 73.5,-37.5 L 73.5118,-37.688 L 73.5471,-37.873 L 73.6053,-38.0522 L 73.6855,-38.2226 L 73.7865,-38.3817
 L 73.9065,-38.5268 L 74.0439,-38.6558 L 74.1963,-38.7665 L 74.3613,-38.8572 L 74.5365,-38.9266 L 74.7189,-38.9734
 L 74.9058,-38.997 L 75.0942,-38.997 L 75.2811,-38.9734 L 75.4635,-38.9266 L 75.6387,-38.8572 L 75.8037,-38.7665
 L 75.9561,-38.6558 L 76.0934,-38.5268 L 76.2135,-38.3817 L 76.3145,-38.2226 L 76.3947,-38.0522 L 76.4529,-37.873
 L 76.4882,-37.688 L 76.5,-37.5 L 76.4882,-37.312 L 76.4529,-37.127 L 76.3947,-36.9478 L 76.3145,-36.7774
 L 76.2135,-36.6183 L 76.0934,-36.4732 L 75.9561,-36.3442 L 75.8037,-36.2335 L 75.6387,-36.1428 L 75.4635,-36.0734
 L 75.2811,-36.0266 L 75.0942,-36.003 z
M -75.0942,-36.003 L -75.2811,-36.0266 L -75.4635,-36.0734 L -75.6387,-36.1428 L -75.8037,-36.2335 L -75.9561,-36.3442
 L -76.0934,-36.4732 L -76.2135,-36.6183 L -76.3145,-36.7774 L -76.3947,-36.9478 L -76.4529,-37.127 L -76.4882,-37.312
 L -76.5,-37.5 L -76.4882,-37.688 L -76.4529,-37.873 L -76.3947,-38.0522 L -76.3145,-38.2226 L -76.2135,-38.3817
 L -76.0934,-38.5268 L -75.9561,-38.6558 L -75.8037,-38.7665 L -75.6387,-38.8572 L -75.4635,-38.9266 L -75.2811,-38.9734
 L -75.0942,-38.997 L -74.9058,-38.997 L -74.7189,-38.9734 L -74.5365,-38.9266 L -74.3613,-38.8572 L -74.1963,-38.7665
 L -74.0439,-38.6558 L -73.9065,-38.5268 L -73.7865,-38.3817 L -73.6855,-38.2226 L -73.6053,-38.0522 L -73.5471,-37.873
 L -73.5118,-37.688 L -73.5,-37.5 L -73.5118,-37.312 L -73.5471,-37.127 L -73.6053,-36.9478 L -73.6855,-36.7774
 L -73.7865,-36.6183 L -73.9065,-36.4732 L -74.0439,-36.3442 L -74.1963,-36.2335 L -74.3613,-36.1428 L -74.5365,-36.0734
 L -74.7189,-36.0266 L -74.9058,-36.003 z
M -75.1884,-27.0059 L -75.5621,-27.0531 L -75.927,-27.1468 L -76.2773,-27.2855 L -76.6075,-27.467 L -76.9123,-27.6884
 L -77.1869,-27.9464 L -77.427,-28.2366 L -77.6289,-28.5547 L -77.7893,-28.8956 L -77.9057,-29.2539 L -77.9763,-29.624
 L -78,-30 L -77.9763,-30.376 L -77.9057,-30.7461 L -77.7893,-31.1044 L -77.6289,-31.4453 L -77.427,-31.7634
 L -77.1869,-32.0536 L -76.9123,-32.3115 L -76.6075,-32.533 L -76.2773,-32.7145 L -75.927,-32.8532 L -75.5621,-32.9469
 L -75.1884,-32.9941 L -74.8116,-32.9941 L -74.4379,-32.9469 L -74.073,-32.8532 L -73.7227,-32.7145 L -73.3925,-32.533
 L -73.0877,-32.3115 L -72.8131,-32.0536 L -72.573,-31.7634 L -72.3711,-31.4453 L -72.2107,-31.1044 L -72.0943,-30.7461
 L -72.0237,-30.376 L -72,-30 L -72.0237,-29.624 L -72.0943,-29.2539 L -72.2107,-28.8956 L -72.3711,-28.5547
 L -72.573,-28.2366 L -72.8131,-27.9464 L -73.0877,-27.6884 L -73.3925,-27.467 L -73.7227,-27.2855 L -74.073,-27.1468
 L -74.4379,-27.0531 L -74.8116,-27.0059 z
M 74.8116,-27.0059 L 74.4379,-27.0531 L 74.073,-27.1468 L 73.7227,-27.2855 L 73.3925,-27.467 L 73.0877,-27.6884
 L 72.8131,-27.9464 L 72.573,-28.2366 L 72.3711,-28.5547 L 72.2107,-28.8956 L 72.0943,-29.2539 L 72.0237,-29.624
 L 72,-30 L 72.0237,-30.376 L 72.0943,-30.7461 L 72.2107,-31.1044 L 72.3711,-31.4453 L 72.573,-31.7634
 L 72.8131,-32.0536 L 73.0877,-32.3115 L 73.3925,-32.533 L 73.7227,-32.7145 L 74.073,-32.8532 L 74.4379,-32.9469
 L 74.8116,-32.9941 L 75.1884,-32.9941 L 75.5621,-32.9469 L 75.927,-32.8532 L 76.2773,-32.7145 L 76.6075,-32.533
 L 76.9123,-32.3115 L 77.1869,-32.0536 L 77.427,-31.7634 L 77.6289,-31.4453 L 77.7893,-31.1044 L 77.9057,-30.7461
 L 77.9763,-30.376 L 78,-30 L 77.9763,-29.624 L 77.9057,-29.2539 L 77.7893,-28.8956 L 77.6289,-28.5547
 L 77.427,-28.2366 L 77.1869,-27.9464 L 76.9123,-27.6884 L 76.6075,-27.467 L 76.2773,-27.2855 L 75.927,-27.1468
 L 75.5621,-27.0531 L 75.1884,-27.0059 z
M 74.9058,-21.003 L 74.7189,-21.0266 L 74.5365,-21.0734 L 74.3613,-21.1427 L 74.1963,-21.2335 L 74.0439,-21.3442
 L 73.9065,-21.4732 L 73.7865,-21.6183 L 73.6855,-21.7774 L 73.6053,-21.9478 L 73.5471,-22.127 L 73.5118,-22.312
 L 73.5,-22.5 L 73.5118,-22.688 L 73.5471,-22.873 L 73.6053,-23.0522 L 73.6855,-23.2226 L 73.7865,-23.3817
 L 73.9065,-23.5268 L 74.0439,-23.6558 L 74.1963,-23.7665 L 74.3613,-23.8572 L 74.5365,-23.9266 L 74.7189,-23.9734
 L 74.9058,-23.997 L 75.0942,-23.997 L 75.2811,-23.9734 L 75.4635,-23.9266 L 75.6387,-23.8572 L 75.8037,-23.7665
 L 75.9561,-23.6558 L 76.0934,-23.5268 L 76.2135,-23.3817 L 76.3145,-23.2226 L 76.3947,-23.0522 L 76.4529,-22.873
 L 76.4882,-22.688 L 76.5,-22.5 L 76.4882,-22.312 L 76.4529,-22.127 L 76.3947,-21.9478 L 76.3145,-21.7774
 L 76.2135,-21.6183 L 76.0934,-21.4732 L 75.9561,-21.3442 L 75.8037,-21.2335 L 75.6387,-21.1427 L 75.4635,-21.0734
 L 75.2811,-21.0266 L 75.0942,-21.003 z
M -75.0942,-21.003 L -75.2811,-21.0266 L -75.4635,-21.0734 L -75.6387,-21.1427 L -75.8037,-21.2335 L -75.9561,-21.3442
 L -76.0934,-21.4732 L -76.2135,-21.6183 L -76.3145,-21.7774 L -76.3947,-21.9478 L -76.4529,-22.127 L -76.4882,-22.312
 L -76.5,-22.5 L -76.4882,-22.688 L -76.4529,-22.873 L -76.3947,-23.0522 L -76.3145,-23.2226 L -76.2135,-23.3817
 L -76.0934,-23.5268 L -75.9561,-23.6558 L -75.8037,-23.7665 L -75.6387,-23.8572 L -75.4635,-23.9266 L -75.2811,-23.9734
 L -75.0942,-23.997 L -74.9058,-23.997 L -74.7189,-23.9734 L -74.5365,-23.9266 L -74.3613,-23.8572 L -74.1963,-23.7665
 L -74.0439,-23.6558 L -73.9065,-23.5268 L -73.7865,-23.3817 L -73.6855,-23.2226 L -73.6053,-23.0522 L -73.5471,-22.873
 L -73.5118,-22.688 L -73.5,-22.5 L -73.5118,-22.312 L -73.5471,-22.127 L -73.6053,-21.9478 L -73.6855,-21.7774
 L -73.7865,-21.6183 L -73.9065,-21.4732 L -74.0439,-21.3442 L -74.1963,-21.2335 L -74.3613,-21.1427 L -74.5365,-21.0734
 L -74.7189,-21.0266 L -74.9058,-21.003 z
M 74.8116,-12.0059 L 74.4379,-12.0531 L 74.073,-12.1468 L 73.7227,-12.2855 L 73.3925,-12.467 L 73.0877,-12.6884
 L 72.8131,-12.9464 L 72.573,-13.2366 L 72.3711,-13.5547 L 72.2107,-13.8956 L 72.0943,-14.2539 L 72.0237,-14.624
 L 72,-15 L 72.0237,-15.376 L 72.0943,-15.7461 L 72.2107,-16.1044 L 72.3711,-16.4453 L 72.573,-16.7634
 L 72.8131,-17.0536 L 73.0877,-17.3115 L 73.3925,-17.533 L 73.7227,-17.7145 L 74.073,-17.8532 L 74.4379,-17.9469
 L 74.8116,-17.9941 L 75.1884,-17.9941 L 75.5621,-17.9469 L 75.927,-17.8532 L 76.2773,-17.7145 L 76.6075,-17.533
 L 76.9123,-17.3115 L 77.1869,-17.0536 L 77.427,-16.7634 L 77.6289,-16.4453 L 77.7893,-16.1044 L 77.9057,-15.7461
 L 77.9763,-15.376 L 78,-15 L 77.9763,-14.624 L 77.9057,-14.2539 L 77.7893,-13.8956 L 77.6289,-13.5547
 L 77.427,-13.2366 L 77.1869,-12.9464 L 76.9123,-12.6884 L 76.6075,-12.467 L 76.2773,-12.2855 L 75.927,-12.1468
 L 75.5621,-12.0531 L 75.1884,-12.0059 z
M -75.1884,-12.0059 L -75.5621,-12.0531 L -75.927,-12.1468 L -76.2773,-12.2855 L -76.6075,-12.467 L -76.9123,-12.6884
 L -77.1869,-12.9464 L -77.427,-13.2366 L -77.6289,-13.5547 L -77.7893,-13.8956 L -77.9057,-14.2539 L -77.9763,-14.624
 L -78,-15 L -77.9763,-15.376 L -77.9057,-15.7461 L -77.7893,-16.1044 L -77.6289,-16.4453 L -77.427,-16.7634
 L -77.1869,-17.0536 L -76.9123,-17.3115 L -76.6075,-17.533 L -76.2773,-17.7145 L -75.927,-17.8532 L -75.5621,-17.9469
 L -75.1884,-17.9941 L -74.8116,-17.9941 L -74.4379,-17.9469 L -74.073,-17.8532 L -73.7227,-17.7145 L -73.3925,-17.533
 L -73.0877,-17.3115 L -72.8131,-17.0536 L -72.573,-16.7634 L -72.3711,-16.4453 L -72.2107,-16.1044 L -72.0943,-15.7461
 L -72.0237,-15.376 L -72,-15 L -72.0237,-14.624 L -72.0943,-14.2539 L -72.2107,-13.8956 L -72.3711,-13.5547
 L -72.573,-13.2366 L -72.8131,-12.9464 L -73.0877,-12.6884 L -73.3925,-12.467 L -73.7227,-12.2855 L -74.073,-12.1468
 L -74.4379,-12.0531 L -74.8116,-12.0059 z
M -75.0942,-6.00294 L -75.2811,-6.02657 L -75.4635,-6.07341 L -75.6387,-6.14275 L -75.8037,-6.23351 L -75.9561,-6.34422
 L -76.0934,-6.47318 L -76.2135,-6.61832 L -76.3145,-6.77736 L -76.3947,-6.9478 L -76.4529,-7.12695 L -76.4882,-7.312
 L -76.5,-7.5 L -76.4882,-7.68799 L -76.4529,-7.87303 L -76.3947,-8.05219 L -76.3145,-8.22263 L -76.2135,-8.38167
 L -76.0934,-8.52681 L -75.9561,-8.65576 L -75.8037,-8.76648 L -75.6387,-8.85724 L -75.4635,-8.92657 L -75.2811,-8.97342
 L -75.0942,-8.99704 L -74.9058,-8.99704 L -74.7189,-8.97342 L -74.5365,-8.92657 L -74.3613,-8.85724 L -74.1963,-8.76648
 L -74.0439,-8.65576 L -73.9065,-8.52681 L -73.7865,-8.38167 L -73.6855,-8.22263 L -73.6053,-8.05219 L -73.5471,-7.87303
 L -73.5118,-7.68799 L -73.5,-7.5 L -73.5118,-7.312 L -73.5471,-7.12695 L -73.6053,-6.9478 L -73.6855,-6.77736
 L -73.7865,-6.61832 L -73.9065,-6.47318 L -74.0439,-6.34422 L -74.1963,-6.23351 L -74.3613,-6.14275 L -74.5365,-6.07341
 L -74.7189,-6.02657 L -74.9058,-6.00294 z
M 74.9058,-6.00294 L 74.7189,-6.02657 L 74.5365,-6.07341 L 74.3613,-6.14275 L 74.1963,-6.23351 L 74.0439,-6.34422
 L 73.9065,-6.47318 L 73.7865,-6.61832 L 73.6855,-6.77736 L 73.6053,-6.9478 L 73.5471,-7.12695 L 73.5118,-7.312
 L 73.5,-7.5 L 73.5118,-7.68799 L 73.5471,-7.87303 L 73.6053,-8.05219 L 73.6855,-8.22263 L 73.7865,-8.38167
 L 73.9065,-8.52681 L 74.0439,-8.65576 L 74.1963,-8.76648 L 74.3613,-8.85724 L 74.5365,-8.92657 L 74.7189,-8.97342
 L 74.9058,-8.99704 L 75.0942,-8.99704 L 75.2811,-8.97342 L 75.4635,-8.92657 L 75.6387,-8.85724 L 75.8037,-8.76648
 L 75.9561,-8.65576 L 76.0934,-8.52681 L 76.2135,-8.38167 L 76.3145,-8.22263 L 76.3947,-8.05219 L 76.4529,-7.87303
 L 76.4882,-7.68799 L 76.5,-7.5 L 76.4882,-7.312 L 76.4529,-7.12695 L 76.3947,-6.9478 L 76.3145,-6.77736
 L 76.2135,-6.61832 L 76.0934,-6.47318 L 75.9561,-6.34422 L 75.8037,-6.23351 L 75.6387,-6.14275 L 75.4635,-6.07341
 L 75.2811,-6.02657 L 75.0942,-6.00294 z
M 74.8116,2.99408 L 74.4379,2.94685 L 74.073,2.85316 L 73.7227,2.71448 L 73.3925,2.53297 L 73.0877,2.31154
 L 72.8131,2.05363 L 72.573,1.76335 L 72.3711,1.44525 L 72.2107,1.10437 L 72.0943,0.746063 L 72.0237,0.375992
 L 72,-0 L 72.0237,-0.375992 L 72.0943,-0.746063 L 72.2107,-1.10437 L 72.3711,-1.44525 L 72.573,-1.76335
 L 72.8131,-2.05363 L 73.0877,-2.31154 L 73.3925,-2.53297 L 73.7227,-2.71448 L 74.073,-2.85316 L 74.4379,-2.94685
 L 74.8116,-2.99408 L 75.1884,-2.99408 L 75.5621,-2.94685 L 75.927,-2.85316 L 76.2773,-2.71448 L 76.6075,-2.53297
 L 76.9123,-2.31154 L 77.1869,-2.05363 L 77.427,-1.76335 L 77.6289,-1.44525 L 77.7893,-1.10437 L 77.9057,-0.746063
 L 77.9763,-0.375992 L 78,-0 L 77.9763,0.375992 L 77.9057,0.746063 L 77.7893,1.10437 L 77.6289,1.44525
 L 77.427,1.76335 L 77.1869,2.05363 L 76.9123,2.31154 L 76.6075,2.53297 L 76.2773,2.71448 L 75.927,2.85316
 L 75.5621,2.94685 L 75.1884,2.99408 z
M -75.1884,2.99408 L -75.5621,2.94685 L -75.927,2.85316 L -76.2773,2.71448 L -76.6075,2.53297 L -76.9123,2.31154
 L -77.1869,2.05363 L -77.427,1.76335 L -77.6289,1.44525 L -77.7893,1.10437 L -77.9057,0.746063 L -77.9763,0.375992
 L -78,-0 L -77.9763,-0.375992 L -77.9057,-0.746063 L -77.7893,-1.10437 L -77.6289,-1.44525 L -77.427,-1.76335
 L -77.1869,-2.05363 L -76.9123,-2.31154 L -76.6075,-2.53297 L -76.2773,-2.71448 L -75.927,-2.85316 L -75.5621,-2.94685
 L -75.1884,-2.99408 L -74.8116,-2.99408 L -74.4379,-2.94685 L -74.073,-2.85316 L -73.7227,-2.71448 L -73.3925,-2.53297
 L -73.0877,-2.31154 L -72.8131,-2.05363 L -72.573,-1.76335 L -72.3711,-1.44525 L -72.2107,-1.10437 L -72.0943,-0.746063
 L -72.0237,-0.375992 L -72,-0 L -72.0237,0.375992 L -72.0943,0.746063 L -72.2107,1.10437 L -72.3711,1.44525
 L -72.573,1.76335 L -72.8131,2.05363 L -73.0877,2.31154 L -73.3925,2.53297 L -73.7227,2.71448 L -74.073,2.85316
 L -74.4379,2.94685 L -74.8116,2.99408 z
M 74.9058,8.99704 L 74.7189,8.97342 L 74.5365,8.92657 L 74.3613,8.85724 L 74.1963,8.76648 L 74.0439,8.65576
 L 73.9065,8.52681 L 73.7865,8.38167 L 73.6855,8.22263 L 73.6053,8.05219 L 73.5471,7.87303 L 73.5118,7.68799
 L 73.5,7.5 L 73.5118,7.312 L 73.5471,7.12695 L 73.6053,6.9478 L 73.6855,6.77736 L 73.7865,6.61832
 L 73.9065,6.47318 L 74.0439,6.34422 L 74.1963,6.23351 L 74.3613,6.14275 L 74.5365,6.07341 L 74.7189,6.02657
 L 74.9058,6.00294 L 75.0942,6.00294 L 75.2811,6.02657 L 75.4635,6.07341 L 75.6387,6.14275 L 75.8037,6.23351
 L 75.9561,6.34422 L 76.0934,6.47318 L 76.2135,6.61832 L 76.3145,6.77736 L 76.3947,6.9478 L 76.4529,7.12695
 L 76.4882,7.312 L 76.5,7.5 L 76.4882,7.68799 L 76.4529,7.87303 L 76.3947,8.05219 L 76.3145,8.22263
 L 76.2135,8.38167 L 76.0934,8.52681 L 75.9561,8.65576 L 75.8037,8.76648 L 75.6387,8.85724 L 75.4635,8.92657
 L 75.2811,8.97342 L 75.0942,8.99704 z
M -75.0942,8.99704 L -75.2811,8.97342 L -75.4635,8.92657 L -75.6387,8.85724 L -75.8037,8.76648 L -75.9561,8.65576
 L -76.0934,8.52681 L -76.2135,8.38167 L -76.3145,8.22263 L -76.3947,8.05219 L -76.4529,7.87303 L -76.4882,7.68799
 L -76.5,7.5 L -76.4882,7.312 L -76.4529,7.12695 L -76.3947,6.9478 L -76.3145,6.77736 L -76.2135,6.61832
 L -76.0934,6.47318 L -75.9561,6.34422 L -75.8037,6.23351 L -75.6387,6.14275 L -75.4635,6.07341 L -75.2811,6.02657
 L -75.0942,6.00294 L -74.9058,6.00294 L -74.7189,6.02657 L -74.5365,6.07341 L -74.3613,6.14275 L -74.1963,6.23351
 L -74.0439,6.34422 L -73.9065,6.47318 L -73.7865,6.61832 L -73.6855,6.77736 L -73.6053,6.9478 L -73.5471,7.12695
 L -73.5118,7.312 L -73.5,7.5 L -73.5118,7.68799 L -73.5471,7.87303 L -73.6053,8.05219 L -73.6855,8.22263
 L -73.7865,8.38167 L -73.9065,8.52681 L -74.0439,8.65576 L -74.1963,8.76648 L -74.3613,8.85724 L -74.5365,8.92657
 L -74.7189,8.97342 L -74.9058,8.99704 z
M -75.1884,17.9941 L -75.5621,17.9469 L -75.927,17.8532 L -76.2773,17.7145 L -76.6075,17.533 L -76.9123,17.3115
 L -77.1869,17.0536 L -77.427,16.7634 L -77.6289,16.4453 L -77.7893,16.1044 L -77.9057,15.7461 L -77.9763,15.376
 L -78,15 L -77.9763,14.624 L -77.9057,14.2539 L -77.7893,13.8956 L -77.6289,13.5547 L -77.427,13.2366
 L -77.1869,12.9464 L -76.9123,12.6884 L -76.6075,12.467 L -76.2773,12.2855 L -75.927,12.1468 L -75.5621,12.0531
 L -75.1884,12.0059 L -74.8116,12.0059 L -74.4379,12.0531 L -74.073,12.1468 L -73.7227,12.2855 L -73.3925,12.467
 L -73.0877,12.6884 L -72.8131,12.9464 L -72.573,13.2366 L -72.3711,13.5547 L -72.2107,13.8956 L -72.0943,14.2539
 L -72.0237,14.624 L -72,15 L -72.0237,15.376 L -72.0943,15.7461 L -72.2107,16.1044 L -72.3711,16.4453
 L -72.573,16.7634 L -72.8131,17.0536 L -73.0877,17.3115 L -73.3925,17.533 L -73.7227,17.7145 L -74.073,17.8532
 L -74.4379,17.9469 L -74.8116,17.9941 z
M 74.8116,17.9941 L 74.4379,17.9469 L 74.073,17.8532 L 73.7227,17.7145 L 73.3925,17.533 L 73.0877,17.3115
 L 72.8131,17.0536 L 72.573,16.7634 L 72.3711,16.4453 L 72.2107,16.1044 L 72.0943,15.7461 L 72.0237,15.376
 L 72,15 L 72.0237,14.624 L 72.0943,14.2539 L 72.2107,13.8956 L 72.3711,13.5547 L 72.573,13.2366
 L 72.8131,12.9464 L 73.0877,12.6884 L 73.3925,12.467 L 73.7227,12.2855 L 74.073,12.1468 L 74.4379,12.0531
 L 74.8116,12.0059 L 75.1884,12.0059 L 75.5621,12.0531 L 75.927,12.1468 L 76.2773,12.2855 L 76.6075,12.467
 L 76.9123,12.6884 L 77.1869,12.9464 L 77.427,13.2366 L 77.6289,13.5547 L 77.7893,13.8956 L 77.9057,14.2539
 L 77.9763,14.624 L 78,15 L 77.9763,15.376 L 77.9057,15.7461 L 77.7893,16.1044 L 77.6289,16.4453
 L 77.427,16.7634 L 77.1869,17.0536 L 76.9123,17.3115 L 76.6075,17.533 L 76.2773,17.7145 L 75.927,17.8532
 L 75.5621,17.9469 L 75.1884,17.9941 z
M 74.9058,23.997 L 74.7189,23.9734 L 74.5365,23.9266 L 74.3613,23.8572 L 74.1963,23.7665 L 74.0439,23.6558
 L 73.9065,23.5268 L 73.7865,23.3817 L 73.6855,23.2226 L 73.6053,23.0522 L 73.5471,22.873 L 73.5118,22.688
 L 73.5,22.5 L 73.5118,22.312 L 73.5471,22.127 L 73.6053,21.9478 L 73.6855,21.7774 L 73.7865,21.6183
 L 73.9065,21.4732 L 74.0439,21.3442 L 74.1963,21.2335 L 74.3613,21.1427 L 74.5365,21.0734 L 74.7189,21.0266
 L 74.9058,21.003 L 75.0942,21.003 L 75.2811,21.0266 L 75.4635,21.0734 L 75.6387,21.1427 L 75.8037,21.2335
 L 75.9561,21.3442 L 76.0934,21.4732 L 76.2135,21.6183 L 76.3145,21.7774 L 76.3947,21.9478 L 76.4529,22.127
 L 76.4882,22.312 L 76.5,22.5 L 76.4882,22.688 L 76.4529,22.873 L 76.3947,23.0522 L 76.3145,23.2226
 L 76.2135,23.3817 L 76.0934,23.5268 L 75.9561,23.6558 L 75.8037,23.7665 L 75.6387,23.8572 L 75.4635,23.9266
 L 75.2811,23.9734 L 75.0942,23.997 z
M -75.0942,23.997 L -75.2811,23.9734 L -75.4635,23.9266 L -75.6387,23.8572 L -75.8037,23.7665 L -75.9561,23.6558
 L -76.0934,23.5268 L -76.2135,23.3817 L -76.3145,23.2226 L -76.3947,23.0522 L -76.4529,22.873 L -76.4882,22.688
 L -76.5,22.5 L -76.4882,22.312 L -76.4529,22.127 L -76.3947,21.9478 L -76.3145,21.7774 L -76.2135,21.6183
 L -76.0934,21.4732 L -75.9561,21.3442 L -75.8037,21.2335 L -75.6387,21.1427 L -75.4635,21.0734 L -75.2811,21.0266
 L -75.0942,21.003 L -74.9058,21.003 L -74.7189,21.0266 L -74.5365,21.0734 L -74.3613,21.1427 L -74.1963,21.2335
 L -74.0439,21.3442 L -73.9065,21.4732 L -73.7865,21.6183 L -73.6855,21.7774 L -73.6053,21.9478 L -73.5471,22.127
 L -73.5118,22.312 L -73.5,22.5 L -73.5118,22.688 L -73.5471,22.873 L -73.6053,23.0522 L -73.6855,23.2226
 L -73.7865,23.3817 L -73.9065,23.5268 L -74.0439,23.6558 L -74.1963,23.7665 L -74.3613,23.8572 L -74.5365,23.9266
 L -74.7189,23.9734 L -74.9058,23.997 z
M 74.8116,32.9941 L 74.4379,32.9469 L 74.073,32.8532 L 73.7227,32.7145 L 73.3925,32.533 L 73.0877,32.3115
 L 72.8131,32.0536 L 72.573,31.7634 L 72.3711,31.4453 L 72.2107,31.1044 L 72.0943,30.7461 L 72.0237,30.376
 L 72,30 L 72.0237,29.624 L 72.0943,29.2539 L 72.2107,28.8956 L 72.3711,28.5547 L 72.573,28.2366
 L 72.8131,27.9464 L 73.0877,27.6884 L 73.3925,27.467 L 73.7227,27.2855 L 74.073,27.1468 L 74.4379,27.0531
 L 74.8116,27.0059 L 75.1884,27.0059 L 75.5621,27.0531 L 75.927,27.1468 L 76.2773,27.2855 L 76.6075,27.467
 L 76.9123,27.6884 L 77.1869,27.9464 L 77.427,28.2366 L 77.6289,28.5547 L 77.7893,28.8956 L 77.9057,29.2539
 L 77.9763,29.624 L 78,30 L 77.9763,30.376 L 77.9057,30.7461 L 77.7893,31.1044 L 77.6289,31.4453
 L 77.427,31.7634 L 77.1869,32.0536 L 76.9123,32.3115 L 76.6075,32.533 L 76.2773,32.7145 L 75.927,32.8532
 L 75.5621,32.9469 L 75.1884,32.9941 z
M -75.1884,32.9941 L -75.5621,32.9469 L -75.927,32.8532 L -76.2773,32.7145 L -76.6075,32.533 L -76.9123,32.3115
 L -77.1869,32.0536 L -77.427,31.7634 L -77.6289,31.4453 L -77.7893,31.1044 L -77.9057,30.7461 L -77.9763,30.376
 L -78,30 L -77.9763,29.624 L -77.9057,29.2539 L -77.7893,28.8956 L -77.6289,28.5547 L -77.427,28.2366
 L -77.1869,27.9464 L -76.9123,27.6884 L -76.6075,27.467 L -76.2773,27.2855 L -75.927,27.1468 L -75.5621,27.0531
 L -75.1884,27.0059 L -74.8116,27.0059 L -74.4379,27.0531 L -74.073,27.1468 L -73.7227,27.2855 L -73.3925,27.467
 L -73.0877,27.6884 L -72.8131,27.9464 L -72.573,28.2366 L -72.3711,28.5547 L -72.2107,28.8956 L -72.0943,29.2539
 L -72.0237,29.624 L -72,30 L -72.0237,30.376 L -72.0943,30.7461 L -72.2107,31.1044 L -72.3711,31.4453
 L -72.573,31.7634 L -72.8131,32.0536 L -73.0877,32.3115 L -73.3925,32.533 L -73.7227,32.7145 L -74.073,32.8532
 L -74.4379,32.9469 L -74.8116,32.9941 z
M 74.9058,38.997 L 74.7189,38.9734 L 74.5365,38.9266 L 74.3613,38.8572 L 74.1963,38.7665 L 74.0439,38.6558
 L 73.9065,38.5268 L 73.7865,38.3817 L 73.6855,38.2226 L 73.6053,38.0522 L 73.5471,37.873 L 73.5118,37.688
 L 73.5,37.5 L 73.5118,37.312 L 73.5471,37.127 L 73.6053,36.9478 L 73.6855,36.7774 L 73.7865,36.6183
 L 73.9065,36.4732 L 74.0439,36.3442 L 74.1963,36.2335 L 74.3613,36.1428 L 74.5365,36.0734 L 74.7189,36.0266
 L 74.9058,36.003 L 75.0942,36.003 L 75.2811,36.0266 L 75.4635,36.0734 L 75.6387,36.1428 L 75.8037,36.2335
 L 75.9561,36.3442 L 76.0934,36.4732 L 76.2135,36.6183 L 76.3145,36.7774 L 76.3947,36.9478 L 76.4529,37.127
 L 76.4882,37.312 L 76.5,37.5 L 76.4882,37.688 L 76.4529,37.873 L 76.3947,38.0522 L 76.3145,38.2226
 L 76.2135,38.3817 L 76.0934,38.5268 L 75.9561,38.6558 L 75.8037,38.7665 L 75.6387,38.8572 L 75.4635,38.9266
 L 75.2811,38.9734 L 75.0942,38.997 z
M -75.0942,38.997 L -75.2811,38.9734 L -75.4635,38.9266 L -75.6387,38.8572 L -75.8037,38.7665 L -75.9561,38.6558
 L -76.0934,38.5268 L -76.2135,38.3817 L -76.3145,38.2226 L -76.3947,38.0522 L -76.4529,37.873 L -76.4882,37.688
 L -76.5,37.5 L -76.4882,37.312 L -76.4529,37.127 L -76.3947,36.9478 L -76.3145,36.7774 L -76.2135,36.6183
 L -76.0934,36.4732 L -75.9561,36.3442 L -75.8037,36.2335 L -75.6387,36.1428 L -75.4635,36.0734 L -75.2811,36.0266
 L -75.0942,36.003 L -74.9058,36.003 L -74.7189,36.0266 L -74.5365,36.0734 L -74.3613,36.1428 L -74.1963,36.2335
 L -74.0439,36.3442 L -73.9065,36.4732 L -73.7865,36.6183 L -73.6855,36.7774 L -73.6053,36.9478 L -73.5471,37.127
 L -73.5118,37.312 L -73.5,37.5 L -73.5118,37.688 L -73.5471,37.873 L -73.6053,38.0522 L -73.6855,38.2226
 L -73.7865,38.3817 L -73.9065,38.5268 L -74.0439,38.6558 L -74.1963,38.7665 L -74.3613,38.8572 L -74.5365,38.9266
 L -74.7189,38.9734 L -74.9058,38.997 z
M 74.8116,47.9941 L 74.4379,47.9469 L 74.073,47.8532 L 73.7227,47.7145 L 73.3925,47.533 L 73.0877,47.3115
 L 72.8131,47.0536 L 72.573,46.7634 L 72.3711,46.4453 L 72.2107,46.1044 L 72.0943,45.7461 L 72.0237,45.376
 L 72,45 L 72.0237,44.624 L 72.0943,44.2539 L 72.2107,43.8956 L 72.3711,43.5547 L 72.573,43.2366
 L 72.8131,42.9464 L 73.0877,42.6885 L 73.3925,42.467 L 73.7227,42.2855 L 74.073,42.1468 L 74.4379,42.0531
 L 74.8116,42.0059 L 75.1884,42.0059 L 75.5621,42.0531 L 75.927,42.1468 L 76.2773,42.2855 L 76.6075,42.467
 L 76.9123,42.6885 L 77.1869,42.9464 L 77.427,43.2366 L 77.6289,43.5547 L 77.7893,43.8956 L 77.9057,44.2539
 L 77.9763,44.624 L 78,45 L 77.9763,45.376 L 77.9057,45.7461 L 77.7893,46.1044 L 77.6289,46.4453
 L 77.427,46.7634 L 77.1869,47.0536 L 76.9123,47.3115 L 76.6075,47.533 L 76.2773,47.7145 L 75.927,47.8532
 L 75.5621,47.9469 L 75.1884,47.9941 z
M -75.1884,47.9941 L -75.5621,47.9469 L -75.927,47.8532 L -76.2773,47.7145 L -76.6075,47.533 L -76.9123,47.3115
 L -77.1869,47.0536 L -77.427,46.7634 L -77.6289,46.4453 L -77.7893,46.1044 L -77.9057,45.7461 L -77.9763,45.376
 L -78,45 L -77.9763,44.624 L -77.9057,44.2539 L -77.7893,43.8956 L -77.6289,43.5547 L -77.427,43.2366
 L -77.1869,42.9464 L -76.9123,42.6885 L -76.6075,42.467 L -76.2773,42.2855 L -75.927,42.1468 L -75.5621,42.0531
 L -75.1884,42.0059 L -74.8116,42.0059 L -74.4379,42.0531 L -74.073,42.1468 L -73.7227,42.2855 L -73.3925,42.467
 L -73.0877,42.6885 L -72.8131,42.9464 L -72.573,43.2366 L -72.3711,43.5547 L -72.2107,43.8956 L -72.0943,44.2539
 L -72.0237,44.624 L -72,45 L -72.0237,45.376 L -72.0943,45.7461 L -72.2107,46.1044 L -72.3711,46.4453
 L -72.573,46.7634 L -72.8131,47.0536 L -73.0877,47.3115 L -73.3925,47.533 L -73.7227,47.7145 L -74.073,47.8532
 L -74.4379,47.9469 L -74.8116,47.9941 z
M -75.0942,53.997 L -75.2811,53.9734 L -75.4635,53.9266 L -75.6387,53.8572 L -75.8037,53.7665 L -75.9561,53.6558
 L -76.0934,53.5268 L -76.2135,53.3817 L -76.3145,53.2226 L -76.3947,53.0522 L -76.4529,52.873 L -76.4882,52.688
 L -76.5,52.5 L -76.4882,52.312 L -76.4529,52.127 L -76.3947,51.9478 L -76.3145,51.7774 L -76.2135,51.6183
 L -76.0934,51.4732 L -75.9561,51.3442 L -75.8037,51.2335 L -75.6387,51.1428 L -75.4635,51.0734 L -75.2811,51.0266
 L -75.0942,51.003 L -74.9058,51.003 L -74.7189,51.0266 L -74.5365,51.0734 L -74.3613,51.1428 L -74.1963,51.2335
 L -74.0439,51.3442 L -73.9065,51.4732 L -73.7865,51.6183 L -73.6855,51.7774 L -73.6053,51.9478 L -73.5471,52.127
 L -73.5118,52.312 L -73.5,52.5 L -73.5118,52.688 L -73.5471,52.873 L -73.6053,53.0522 L -73.6855,53.2226
 L -73.7865,53.3817 L -73.9065,53.5268 L -74.0439,53.6558 L -74.1963,53.7665 L -74.3613,53.8572 L -74.5365,53.9266
 L -74.7189,53.9734 L -74.9058,53.997 z
M 74.9058,53.997 L 74.7189,53.9734 L 74.5365,53.9266 L 74.3613,53.8572 L 74.1963,53.7665 L 74.0439,53.6558
 L 73.9065,53.5268 L 73.7865,53.3817 L 73.6855,53.2226 L 73.6053,53.0522 L 73.5471,52.873 L 73.5118,52.688
 L 73.5,52.5 L 73.5118,52.312 L 73.5471,52.127 L 73.6053,51.9478 L 73.6855,51.7774 L 73.7865,51.6183
 L 73.9065,51.4732 L 74.0439,51.3442 L 74.1963,51.2335 L 74.3613,51.1428 L 74.5365,51.0734 L 74.7189,51.0266
 L 74.9058,51.003 L 75.0942,51.003 L 75.2811,51.0266 L 75.4635,51.0734 L 75.6387,51.1428 L 75.8037,51.2335
 L 75.9561,51.3442 L 76.0934,51.4732 L 76.2135,51.6183 L 76.3145,51.7774 L 76.3947,51.9478 L 76.4529,52.127
 L 76.4882,52.312 L 76.5,52.5 L 76.4882,52.688 L 76.4529,52.873 L 76.3947,53.0522 L 76.3145,53.2226
 L 76.2135,53.3817 L 76.0934,53.5268 L 75.9561,53.6558 L 75.8037,53.7665 L 75.6387,53.8572 L 75.4635,53.9266
 L 75.2811,53.9734 L 75.0942,53.997 z
M 74.8116,62.9941 L 74.4379,62.9469 L 74.073,62.8532 L 73.7227,62.7145 L 73.3925,62.533 L 73.0877,62.3115
 L 72.8131,62.0536 L 72.573,61.7634 L 72.3711,61.4453 L 72.2107,61.1044 L 72.0943,60.7461 L 72.0237,60.376
 L 72,60 L 72.0237,59.624 L 72.0943,59.2539 L 72.2107,58.8956 L 72.3711,58.5547 L 72.573,58.2366
 L 72.8131,57.9464 L 73.0877,57.6885 L 73.3925,57.467 L 73.7227,57.2855 L 74.073,57.1468 L 74.4379,57.0531
 L 74.8116,57.0059 L 75.1884,57.0059 L 75.5621,57.0531 L 75.927,57.1468 L 76.2773,57.2855 L 76.6075,57.467
 L 76.9123,57.6885 L 77.1869,57.9464 L 77.427,58.2366 L 77.6289,58.5547 L 77.7893,58.8956 L 77.9057,59.2539
 L 77.9763,59.624 L 78,60 L 77.9763,60.376 L 77.9057,60.7461 L 77.7893,61.1044 L 77.6289,61.4453
 L 77.427,61.7634 L 77.1869,62.0536 L 76.9123,62.3115 L 76.6075,62.533 L 76.2773,62.7145 L 75.927,62.8532
 L 75.5621,62.9469 L 75.1884,62.9941 z
M -75.1884,62.9941 L -75.5621,62.9469 L -75.927,62.8532 L -76.2773,62.7145 L -76.6075,62.533 L -76.9123,62.3115
 L -77.1869,62.0536 L -77.427,61.7634 L -77.6289,61.4453 L -77.7893,61.1044 L -77.9057,60.7461 L -77.9763,60.376
 L -78,60 L -77.9763,59.624 L -77.9057,59.2539 L -77.7893,58.8956 L -77.6289,58.5547 L -77.427,58.2366
 L -77.1869,57.9464 L -76.9123,57.6885 L -76.6075,57.467 L -76.2773,57.2855 L -75.927,57.1468 L -75.5621,57.0531
 L -75.1884,57.0059 L -74.8116,57.0059 L -74.4379,57.0531 L -74.073,57.1468 L -73.7227,57.2855 L -73.3925,57.467
 L -73.0877,57.6885 L -72.8131,57.9464 L -72.573,58.2366 L -72.3711,58.5547 L -72.2107,58.8956 L -72.0943,59.2539
 L -72.0237,59.624 L -72,60 L -72.0237,60.376 L -72.0943,60.7461 L -72.2107,61.1044 L -72.3711,61.4453
 L -72.573,61.7634 L -72.8131,62.0536 L -73.0877,62.3115 L -73.3925,62.533 L -73.7227,62.7145 L -74.073,62.8532
 L -74.4379,62.9469 L -74.8116,62.9941 z
M -75.0942,68.997 L -75.2811,68.9734 L -75.4635,68.9266 L -75.6387,68.8572 L -75.8037,68.7665 L -75.9561,68.6558
 L -76.0934,68.5268 L -76.2135,68.3817 L -76.3145,68.2226 L -76.3947,68.0522 L -76.4529,67.873 L -76.4882,67.688
 L -76.5,67.5 L -76.4882,67.312 L -76.4529,67.127 L -76.3947,66.9478 L -76.3145,66.7774 L -76.2135,66.6183
 L -76.0934,66.4732 L -75.9561,66.3442 L -75.8037,66.2335 L -75.6387,66.1428 L -75.4635,66.0734 L -75.2811,66.0266
 L -75.0942,66.003 L -74.9058,66.003 L -74.7189,66.0266 L -74.5365,66.0734 L -74.3613,66.1428 L -74.1963,66.2335
 L -74.0439,66.3442 L -73.9065,66.4732 L -73.7865,66.6183 L -73.6855,66.7774 L -73.6053,66.9478 L -73.5471,67.127
 L -73.5118,67.312 L -73.5,67.5 L -73.5118,67.688 L -73.5471,67.873 L -73.6053,68.0522 L -73.6855,68.2226
 L -73.7865,68.3817 L -73.9065,68.5268 L -74.0439,68.6558 L -74.1963,68.7665 L -74.3613,68.8572 L -74.5365,68.9266
 L -74.7189,68.9734 L -74.9058,68.997 z
M 74.9058,68.997 L 74.7189,68.9734 L 74.5365,68.9266 L 74.3613,68.8572 L 74.1963,68.7665 L 74.0439,68.6558
 L 73.9065,68.5268 L 73.7865,68.3817 L 73.6855,68.2226 L 73.6053,68.0522 L 73.5471,67.873 L 73.5118,67.688
 L 73.5,67.5 L 73.5118,67.312 L 73.5471,67.127 L 73.6053,66.9478 L 73.6855,66.7774 L 73.7865,66.6183
 L 73.9065,66.4732 L 74.0439,66.3442 L 74.1963,66.2335 L 74.3613,66.1428 L 74.5365,66.0734 L 74.7189,66.0266
 L 74.9058,66.003 L 75.0942,66.003 L 75.2811,66.0266 L 75.4635,66.0734 L 75.6387,66.1428 L 75.8037,66.2335
 L 75.9561,66.3442 L 76.0934,66.4732 L 76.2135,66.6183 L 76.3145,66.7774 L 76.3947,66.9478 L 76.4529,67.127
 L 76.4882,67.312 L 76.5,67.5 L 76.4882,67.688 L 76.4529,67.873 L 76.3947,68.0522 L 76.3145,68.2226
 L 76.2135,68.3817 L 76.0934,68.5268 L 75.9561,68.6558 L 75.8037,68.7665 L 75.6387,68.8572 L 75.4635,68.9266
 L 75.2811,68.9734 L 75.0942,68.997 z
M 29.8116,77.9941 L 29.4379,77.9469 L 29.0729,77.8532 L 28.7227,77.7145 L 28.3925,77.533 L 28.0877,77.3115
 L 27.8131,77.0536 L 27.5729,76.7634 L 27.3711,76.4453 L 27.2107,76.1044 L 27.0942,75.7461 L 27.0237,75.376
 L 27,75 L 27.0237,74.624 L 27.0942,74.2539 L 27.2107,73.8956 L 27.3711,73.5547 L 27.5729,73.2366
 L 27.8131,72.9464 L 28.0877,72.6885 L 28.3925,72.467 L 28.7227,72.2855 L 29.0729,72.1468 L 29.4379,72.0531
 L 29.8116,72.0059 L 30.1884,72.0059 L 30.5621,72.0531 L 30.927,72.1468 L 31.2773,72.2855 L 31.6075,72.467
 L 31.9123,72.6885 L 32.1869,72.9464 L 32.427,73.2366 L 32.6289,73.5547 L 32.7893,73.8956 L 32.9057,74.2539
 L 32.9763,74.624 L 33,75 L 32.9763,75.376 L 32.9057,75.7461 L 32.7893,76.1044 L 32.6289,76.4453
 L 32.427,76.7634 L 32.1869,77.0536 L 31.9123,77.3115 L 31.6075,77.533 L 31.2773,77.7145 L 30.927,77.8532
 L 30.5621,77.9469 L 30.1884,77.9941 z
M -0.18837,77.9941 L -0.562134,77.9469 L -0.927048,77.8532 L -1.27733,77.7145 L -1.60747,77.533 L -1.91226,77.3115
 L -2.1869,77.0536 L -2.42705,76.7634 L -2.62891,76.4453 L -2.78932,76.1044 L -2.90575,75.7461 L -2.97633,75.376
 L -3,75 L -2.97633,74.624 L -2.90575,74.2539 L -2.78932,73.8956 L -2.62891,73.5547 L -2.42705,73.2366
 L -2.1869,72.9464 L -1.91226,72.6885 L -1.60747,72.467 L -1.27733,72.2855 L -0.927048,72.1468 L -0.562134,72.0531
 L -0.18837,72.0059 L 0.18837,72.0059 L 0.562134,72.0531 L 0.927048,72.1468 L 1.27733,72.2855 L 1.60747,72.467
 L 1.91226,72.6885 L 2.1869,72.9464 L 2.42705,73.2366 L 2.62891,73.5547 L 2.78932,73.8956 L 2.90575,74.2539
 L 2.97633,74.624 L 3,75 L 2.97633,75.376 L 2.90575,75.7461 L 2.78932,76.1044 L 2.62891,76.4453
 L 2.42705,76.7634 L 2.1869,77.0536 L 1.91226,77.3115 L 1.60747,77.533 L 1.27733,77.7145 L 0.927048,77.8532
 L 0.562134,77.9469 L 0.18837,77.9941 z
M -60.1884,77.9941 L -60.5621,77.9469 L -60.927,77.8532 L -61.2773,77.7145 L -61.6075,77.533 L -61.9123,77.3115
 L -62.1869,77.0536 L -62.427,76.7634 L -62.6289,76.4453 L -62.7893,76.1044 L -62.9057,75.7461 L -62.9763,75.376
 L -63,75 L -62.9763,74.624 L -62.9057,74.2539 L -62.7893,73.8956 L -62.6289,73.5547 L -62.427,73.2366
 L -62.1869,72.9464 L -61.9123,72.6885 L -61.6075,72.467 L -61.2773,72.2855 L -60.927,72.1468 L -60.5621,72.0531
 L -60.1884,72.0059 L -59.8116,72.0059 L -59.4379,72.0531 L -59.0729,72.1468 L -58.7227,72.2855 L -58.3925,72.467
 L -58.0877,72.6885 L -57.8131,72.9464 L -57.5729,73.2366 L -57.3711,73.5547 L -57.2107,73.8956 L -57.0942,74.2539
 L -57.0237,74.624 L -57,75 L -57.0237,75.376 L -57.0942,75.7461 L -57.2107,76.1044 L -57.3711,76.4453
 L -57.5729,76.7634 L -57.8131,77.0536 L -58.0877,77.3115 L -58.3925,77.533 L -58.7227,77.7145 L -59.0729,77.8532
 L -59.4379,77.9469 L -59.8116,77.9941 z
M -15.1884,77.9941 L -15.5621,77.9469 L -15.927,77.8532 L -16.2773,77.7145 L -16.6075,77.533 L -16.9123,77.3115
 L -17.1869,77.0536 L -17.427,76.7634 L -17.6289,76.4453 L -17.7893,76.1044 L -17.9057,75.7461 L -17.9763,75.376
 L -18,75 L -17.9763,74.624 L -17.9057,74.2539 L -17.7893,73.8956 L -17.6289,73.5547 L -17.427,73.2366
 L -17.1869,72.9464 L -16.9123,72.6885 L -16.6075,72.467 L -16.2773,72.2855 L -15.927,72.1468 L -15.5621,72.0531
 L -15.1884,72.0059 L -14.8116,72.0059 L -14.4379,72.0531 L -14.0729,72.1468 L -13.7227,72.2855 L -13.3925,72.467
 L -13.0877,72.6885 L -12.8131,72.9464 L -12.5729,73.2366 L -12.3711,73.5547 L -12.2107,73.8956 L -12.0942,74.2539
 L -12.0237,74.624 L -12,75 L -12.0237,75.376 L -12.0942,75.7461 L -12.2107,76.1044 L -12.3711,76.4453
 L -12.5729,76.7634 L -12.8131,77.0536 L -13.0877,77.3115 L -13.3925,77.533 L -13.7227,77.7145 L -14.0729,77.8532
 L -14.4379,77.9469 L -14.8116,77.9941 z
M -45.1884,77.9941 L -45.5621,77.9469 L -45.927,77.8532 L -46.2773,77.7145 L -46.6075,77.533 L -46.9123,77.3115
 L -47.1869,77.0536 L -47.427,76.7634 L -47.6289,76.4453 L -47.7893,76.1044 L -47.9057,75.7461 L -47.9763,75.376
 L -48,75 L -47.9763,74.624 L -47.9057,74.2539 L -47.7893,73.8956 L -47.6289,73.5547 L -47.427,73.2366
 L -47.1869,72.9464 L -46.9123,72.6885 L -46.6075,72.467 L -46.2773,72.2855 L -45.927,72.1468 L -45.5621,72.0531
 L -45.1884,72.0059 L -44.8116,72.0059 L -44.4379,72.0531 L -44.0729,72.1468 L -43.7227,72.2855 L -43.3925,72.467
 L -43.0877,72.6885 L -42.8131,72.9464 L -42.5729,73.2366 L -42.3711,73.5547 L -42.2107,73.8956 L -42.0942,74.2539
 L -42.0237,74.624 L -42,75 L -42.0237,75.376 L -42.0942,75.7461 L -42.2107,76.1044 L -42.3711,76.4453
 L -42.5729,76.7634 L -42.8131,77.0536 L -43.0877,77.3115 L -43.3925,77.533 L -43.7227,77.7145 L -44.0729,77.8532
 L -44.4379,77.9469 L -44.8116,77.9941 z
M -30.1884,77.9941 L -30.5621,77.9469 L -30.927,77.8532 L -31.2773,77.7145 L -31.6075,77.533 L -31.9123,77.3115
 L -32.1869,77.0536 L -32.427,76.7634 L -32.6289,76.4453 L -32.7893,76.1044 L -32.9057,75.7461 L -32.9763,75.376
 L -33,75 L -32.9763,74.624 L -32.9057,74.2539 L -32.7893,73.8956 L -32.6289,73.5547 L -32.427,73.2366
 L -32.1869,72.9464 L -31.9123,72.6885 L -31.6075,72.467 L -31.2773,72.2855 L -30.927,72.1468 L -30.5621,72.0531
 L -30.1884,72.0059 L -29.8116,72.0059 L -29.4379,72.0531 L -29.0729,72.1468 L -28.7227,72.2855 L -28.3925,72.467
 L -28.0877,72.6885 L -27.8131,72.9464 L -27.5729,73.2366 L -27.3711,73.5547 L -27.2107,73.8956 L -27.0942,74.2539
 L -27.0237,74.624 L -27,75 L -27.0237,75.376 L -27.0942,75.7461 L -27.2107,76.1044 L -27.3711,76.4453
 L -27.5729,76.7634 L -27.8131,77.0536 L -28.0877,77.3115 L -28.3925,77.533 L -28.7227,77.7145 L -29.0729,77.8532
 L -29.4379,77.9469 L -29.8116,77.9941 z
M -75.1884,77.9941 L -75.5621,77.9469 L -75.927,77.8532 L -76.2773,77.7145 L -76.6075,77.533 L -76.9123,77.3115
 L -77.1869,77.0536 L -77.427,76.7634 L -77.6289,76.4453 L -77.7893,76.1044 L -77.9057,75.7461 L -77.9763,75.376
 L -78,75 L -77.9763,74.624 L -77.9057,74.2539 L -77.7893,73.8956 L -77.6289,73.5547 L -77.427,73.2366
 L -77.1869,72.9464 L -76.9123,72.6885 L -76.6075,72.467 L -76.2773,72.2855 L -75.927,72.1468 L -75.5621,72.0531
 L -75.1884,72.0059 L -74.8116,72.0059 L -74.4379,72.0531 L -74.073,72.1468 L -73.7227,72.2855 L -73.3925,72.467
 L -73.0877,72.6885 L -72.8131,72.9464 L -72.573,73.2366 L -72.3711,73.5547 L -72.2107,73.8956 L -72.0943,74.2539
 L -72.0237,74.624 L -72,75 L -72.0237,75.376 L -72.0943,75.7461 L -72.2107,76.1044 L -72.3711,76.4453
 L -72.573,76.7634 L -72.8131,77.0536 L -73.0877,77.3115 L -73.3925,77.533 L -73.7227,77.7145 L -74.073,77.8532
 L -74.4379,77.9469 L -74.8116,77.9941 z
M 59.8116,77.9941 L 59.4379,77.9469 L 59.0729,77.8532 L 58.7227,77.7145 L 58.3925,77.533 L 58.0877,77.3115
 L 57.8131,77.0536 L 57.5729,76.7634 L 57.3711,76.4453 L 57.2107,76.1044 L 57.0942,75.7461 L 57.0237,75.376
 L 57,75 L 57.0237,74.624 L 57.0942,74.2539 L 57.2107,73.8956 L 57.3711,73.5547 L 57.5729,73.2366
 L 57.8131,72.9464 L 58.0877,72.6885 L 58.3925,72.467 L 58.7227,72.2855 L 59.0729,72.1468 L 59.4379,72.0531
 L 59.8116,72.0059 L 60.1884,72.0059 L 60.5621,72.0531 L 60.927,72.1468 L 61.2773,72.2855 L 61.6075,72.467
 L 61.9123,72.6885 L 62.1869,72.9464 L 62.427,73.2366 L 62.6289,73.5547 L 62.7893,73.8956 L 62.9057,74.2539
 L 62.9763,74.624 L 63,75 L 62.9763,75.376 L 62.9057,75.7461 L 62.7893,76.1044 L 62.6289,76.4453
 L 62.427,76.7634 L 62.1869,77.0536 L 61.9123,77.3115 L 61.6075,77.533 L 61.2773,77.7145 L 60.927,77.8532
 L 60.5621,77.9469 L 60.1884,77.9941 z
M 44.8116,77.9941 L 44.4379,77.9469 L 44.0729,77.8532 L 43.7227,77.7145 L 43.3925,77.533 L 43.0877,77.3115
 L 42.8131,77.0536 L 42.5729,76.7634 L 42.3711,76.4453 L 42.2107,76.1044 L 42.0942,75.7461 L 42.0237,75.376
 L 42,75 L 42.0237,74.624 L 42.0942,74.2539 L 42.2107,73.8956 L 42.3711,73.5547 L 42.5729,73.2366
 L 42.8131,72.9464 L 43.0877,72.6885 L 43.3925,72.467 L 43.7227,72.2855 L 44.0729,72.1468 L 44.4379,72.0531
 L 44.8116,72.0059 L 45.1884,72.0059 L 45.5621,72.0531 L 45.927,72.1468 L 46.2773,72.2855 L 46.6075,72.467
 L 46.9123,72.6885 L 47.1869,72.9464 L 47.427,73.2366 L 47.6289,73.5547 L 47.7893,73.8956 L 47.9057,74.2539
 L 47.9763,74.624 L 48,75 L 47.9763,75.376 L 47.9057,75.7461 L 47.7893,76.1044 L 47.6289,76.4453
 L 47.427,76.7634 L 47.1869,77.0536 L 46.9123,77.3115 L 46.6075,77.533 L 46.2773,77.7145 L 45.927,77.8532
 L 45.5621,77.9469 L 45.1884,77.9941 z
M 74.8116,77.9941 L 74.4379,77.9469 L 74.073,77.8532 L 73.7227,77.7145 L 73.3925,77.533 L 73.0877,77.3115
 L 72.8131,77.0536 L 72.573,76.7634 L 72.3711,76.4453 L 72.2107,76.1044 L 72.0943,75.7461 L 72.0237,75.376
 L 72,75 L 72.0237,74.624 L 72.0943,74.2539 L 72.2107,73.8956 L 72.3711,73.5547 L 72.573,73.2366
 L 72.8131,72.9464 L 73.0877,72.6885 L 73.3925,72.467 L 73.7227,72.2855 L 74.073,72.1468 L 74.4379,72.0531
 L 74.8116,72.0059 L 75.1884,72.0059 L 75.5621,72.0531 L 75.927,72.1468 L 76.2773,72.2855 L 76.6075,72.467
 L 76.9123,72.6885 L 77.1869,72.9464 L 77.427,73.2366 L 77.6289,73.5547 L 77.7893,73.8956 L 77.9057,74.2539
 L 77.9763,74.624 L 78,75 L 77.9763,75.376 L 77.9057,75.7461 L 77.7893,76.1044 L 77.6289,76.4453
 L 77.427,76.7634 L 77.1869,77.0536 L 76.9123,77.3115 L 76.6075,77.533 L 76.2773,77.7145 L 75.927,77.8532
 L 75.5621,77.9469 L 75.1884,77.9941 z
M 14.8116,77.9941 L 14.4379,77.9469 L 14.0729,77.8532 L 13.7227,77.7145 L 13.3925,77.533 L 13.0877,77.3115
 L 12.8131,77.0536 L 12.5729,76.7634 L 12.3711,76.4453 L 12.2107,76.1044 L 12.0942,75.7461 L 12.0237,75.376
 L 12,75 L 12.0237,74.624 L 12.0942,74.2539 L 12.2107,73.8956 L 12.3711,73.5547 L 12.5729,73.2366
 L 12.8131,72.9464 L 13.0877,72.6885 L 13.3925,72.467 L 13.7227,72.2855 L 14.0729,72.1468 L 14.4379,72.0531
 L 14.8116,72.0059 L 15.1884,72.0059 L 15.5621,72.0531 L 15.927,72.1468 L 16.2773,72.2855 L 16.6075,72.467
 L 16.9123,72.6885 L 17.1869,72.9464 L 17.427,73.2366 L 17.6289,73.5547 L 17.7893,73.8956 L 17.9057,74.2539
 L 17.9763,74.624 L 18,75 L 17.9763,75.376 L 17.9057,75.7461 L 17.7893,76.1044 L 17.6289,76.4453
 L 17.427,76.7634 L 17.1869,77.0536 L 16.9123,77.3115 L 16.6075,77.533 L 16.2773,77.7145 L 15.927,77.8532
 L 15.5621,77.9469 L 15.1884,77.9941 z
M 67.4058,76.497 L 67.2189,76.4734 L 67.0365,76.4266 L 66.8613,76.3572 L 66.6963,76.2665 L 66.5439,76.1558
 L 66.4065,76.0268 L 66.2865,75.8817 L 66.1855,75.7226 L 66.1053,75.5522 L 66.0471,75.373 L 66.0118,75.188
 L 66,75 L 66.0118,74.812 L 66.0471,74.627 L 66.1053,74.4478 L 66.1855,74.2774 L 66.2865,74.1183
 L 66.4065,73.9732 L 66.5439,73.8442 L 66.6963,73.7335 L 66.8613,73.6428 L 67.0365,73.5734 L 67.2189,73.5266
 L 67.4058,73.503 L 67.5942,73.503 L 67.7811,73.5266 L 67.9635,73.5734 L 68.1387,73.6428 L 68.3037,73.7335
 L 68.4561,73.8442 L 68.5934,73.9732 L 68.7135,74.1183 L 68.8145,74.2774 L 68.8947,74.4478 L 68.9529,74.627
 L 68.9882,74.812 L 69,75 L 68.9882,75.188 L 68.9529,75.373 L 68.8947,75.5522 L 68.8145,75.7226
 L 68.7135,75.8817 L 68.5934,76.0268 L 68.4561,76.1558 L 68.3037,76.2665 L 68.1387,76.3572 L 67.9635,76.4266
 L 67.7811,76.4734 L 67.5942,76.497 z
M -67.5942,76.497 L -67.7811,76.4734 L -67.9635,76.4266 L -68.1387,76.3572 L -68.3037,76.2665 L -68.4561,76.1558
 L -68.5934,76.0268 L -68.7135,75.8817 L -68.8145,75.7226 L -68.8947,75.5522 L -68.9529,75.373 L -68.9882,75.188
 L -69,75 L -68.9882,74.812 L -68.9529,74.627 L -68.8947,74.4478 L -68.8145,74.2774 L -68.7135,74.1183
 L -68.5934,73.9732 L -68.4561,73.8442 L -68.3037,73.7335 L -68.1387,73.6428 L -67.9635,73.5734 L -67.7811,73.5266
 L -67.5942,73.503 L -67.4058,73.503 L -67.2189,73.5266 L -67.0365,73.5734 L -66.8613,73.6428 L -66.6963,73.7335
 L -66.5439,73.8442 L -66.4065,73.9732 L -66.2865,74.1183 L -66.1855,74.2774 L -66.1053,74.4478 L -66.0471,74.627
 L -66.0118,74.812 L -66,75 L -66.0118,75.188 L -66.0471,75.373 L -66.1053,75.5522 L -66.1855,75.7226
 L -66.2865,75.8817 L -66.4065,76.0268 L -66.5439,76.1558 L -66.6963,76.2665 L -66.8613,76.3572 L -67.0365,76.4266
 L -67.2189,76.4734 L -67.4058,76.497 z
M 37.4058,76.497 L 37.2189,76.4734 L 37.0365,76.4266 L 36.8613,76.3572 L 36.6963,76.2665 L 36.5439,76.1558
 L 36.4065,76.0268 L 36.2865,75.8817 L 36.1855,75.7226 L 36.1053,75.5522 L 36.0471,75.373 L 36.0118,75.188
 L 36,75 L 36.0118,74.812 L 36.0471,74.627 L 36.1053,74.4478 L 36.1855,74.2774 L 36.2865,74.1183
 L 36.4065,73.9732 L 36.5439,73.8442 L 36.6963,73.7335 L 36.8613,73.6428 L 37.0365,73.5734 L 37.2189,73.5266
 L 37.4058,73.503 L 37.5942,73.503 L 37.7811,73.5266 L 37.9635,73.5734 L 38.1387,73.6428 L 38.3037,73.7335
 L 38.4561,73.8442 L 38.5934,73.9732 L 38.7135,74.1183 L 38.8145,74.2774 L 38.8947,74.4478 L 38.9529,74.627
 L 38.9882,74.812 L 39,75 L 38.9882,75.188 L 38.9529,75.373 L 38.8947,75.5522 L 38.8145,75.7226
 L 38.7135,75.8817 L 38.5934,76.0268 L 38.4561,76.1558 L 38.3037,76.2665 L 38.1387,76.3572 L 37.9635,76.4266
 L 37.7811,76.4734 L 37.5942,76.497 z
M 22.4058,76.497 L 22.2189,76.4734 L 22.0365,76.4266 L 21.8613,76.3572 L 21.6963,76.2665 L 21.5439,76.1558
 L 21.4065,76.0268 L 21.2865,75.8817 L 21.1855,75.7226 L 21.1053,75.5522 L 21.0471,75.373 L 21.0118,75.188
 L 21,75 L 21.0118,74.812 L 21.0471,74.627 L 21.1053,74.4478 L 21.1855,74.2774 L 21.2865,74.1183
 L 21.4065,73.9732 L 21.5439,73.8442 L 21.6963,73.7335 L 21.8613,73.6428 L 22.0365,73.5734 L 22.2189,73.5266
 L 22.4058,73.503 L 22.5942,73.503 L 22.7811,73.5266 L 22.9635,73.5734 L 23.1387,73.6428 L 23.3037,73.7335
 L 23.4561,73.8442 L 23.5934,73.9732 L 23.7135,74.1183 L 23.8145,74.2774 L 23.8947,74.4478 L 23.9529,74.627
 L 23.9882,74.812 L 24,75 L 23.9882,75.188 L 23.9529,75.373 L 23.8947,75.5522 L 23.8145,75.7226
 L 23.7135,75.8817 L 23.5934,76.0268 L 23.4561,76.1558 L 23.3037,76.2665 L 23.1387,76.3572 L 22.9635,76.4266
 L 22.7811,76.4734 L 22.5942,76.497 z
M 7.40581,76.497 L 7.21892,76.4734 L 7.03647,76.4266 L 6.86133,76.3572 L 6.69626,76.2665 L 6.54385,76.1558
 L 6.40654,76.0268 L 6.28647,75.8817 L 6.18553,75.7226 L 6.10533,75.5522 L 6.04712,75.373 L 6.01183,75.188
 L 6,75 L 6.01183,74.812 L 6.04712,74.627 L 6.10533,74.4478 L 6.18553,74.2774 L 6.28647,74.1183
 L 6.40654,73.9732 L 6.54385,73.8442 L 6.69626,73.7335 L 6.86133,73.6428 L 7.03647,73.5734 L 7.21892,73.5266
 L 7.40581,73.503 L 7.59418,73.503 L 7.78107,73.5266 L 7.96352,73.5734 L 8.13866,73.6428 L 8.30373,73.7335
 L 8.45613,73.8442 L 8.59344,73.9732 L 8.71352,74.1183 L 8.81445,74.2774 L 8.89465,74.4478 L 8.95287,74.627
 L 8.98816,74.812 L 9,75 L 8.98816,75.188 L 8.95287,75.373 L 8.89465,75.5522 L 8.81445,75.7226
 L 8.71352,75.8817 L 8.59344,76.0268 L 8.45613,76.1558 L 8.30373,76.2665 L 8.13866,76.3572 L 7.96352,76.4266
 L 7.78107,76.4734 L 7.59418,76.497 z
M 52.4058,76.497 L 52.2189,76.4734 L 52.0365,76.4266 L 51.8613,76.3572 L 51.6963,76.2665 L 51.5439,76.1558
 L 51.4065,76.0268 L 51.2865,75.8817 L 51.1855,75.7226 L 51.1053,75.5522 L 51.0471,75.373 L 51.0118,75.188
 L 51,75 L 51.0118,74.812 L 51.0471,74.627 L 51.1053,74.4478 L 51.1855,74.2774 L 51.2865,74.1183
 L 51.4065,73.9732 L 51.5439,73.8442 L 51.6963,73.7335 L 51.8613,73.6428 L 52.0365,73.5734 L 52.2189,73.5266
 L 52.4058,73.503 L 52.5942,73.503 L 52.7811,73.5266 L 52.9635,73.5734 L 53.1387,73.6428 L 53.3037,73.7335
 L 53.4561,73.8442 L 53.5934,73.9732 L 53.7135,74.1183 L 53.8145,74.2774 L 53.8947,74.4478 L 53.9529,74.627
 L 53.9882,74.812 L 54,75 L 53.9882,75.188 L 53.9529,75.373 L 53.8947,75.5522 L 53.8145,75.7226
 L 53.7135,75.8817 L 53.5934,76.0268 L 53.4561,76.1558 L 53.3037,76.2665 L 53.1387,76.3572 L 52.9635,76.4266
 L 52.7811,76.4734 L 52.5942,76.497 z
M -7.59418,76.497 L -7.78107,76.4734 L -7.96352,76.4266 L -8.13866,76.3572 L -8.30373,76.2665 L -8.45613,76.1558
 L -8.59344,76.0268 L -8.71352,75.8817 L -8.81445,75.7226 L -8.89465,75.5522 L -8.95287,75.373 L -8.98816,75.188
 L -9,75 L -8.98816,74.812 L -8.95287,74.627 L -8.89465,74.4478 L -8.81445,74.2774 L -8.71352,74.1183
 L -8.59344,73.9732 L -8.45613,73.8442 L -8.30373,73.7335 L -8.13866,73.6428 L -7.96352,73.5734 L -7.78107,73.5266
 L -7.59418,73.503 L -7.40581,73.503 L -7.21892,73.5266 L -7.03647,73.5734 L -6.86133,73.6428 L -6.69626,73.7335
 L -6.54385,73.8442 L -6.40654,73.9732 L -6.28647,74.1183 L -6.18553,74.2774 L -6.10533,74.4478 L -6.04712,74.627
 L -6.01183,74.812 L -6,75 L -6.01183,75.188 L -6.04712,75.373 L -6.10533,75.5522 L -6.18553,75.7226
 L -6.28647,75.8817 L -6.40654,76.0268 L -6.54385,76.1558 L -6.69626,76.2665 L -6.86133,76.3572 L -7.03647,76.4266
 L -7.21892,76.4734 L -7.40581,76.497 z
M -37.5942,76.497 L -37.7811,76.4734 L -37.9635,76.4266 L -38.1387,76.3572 L -38.3037,76.2665 L -38.4561,76.1558
 L -38.5934,76.0268 L -38.7135,75.8817 L -38.8145,75.7226 L -38.8947,75.5522 L -38.9529,75.373 L -38.9882,75.188
 L -39,75 L -38.9882,74.812 L -38.9529,74.627 L -38.8947,74.4478 L -38.8145,74.2774 L -38.7135,74.1183
 L -38.5934,73.9732 L -38.4561,73.8442 L -38.3037,73.7335 L -38.1387,73.6428 L -37.9635,73.5734 L -37.7811,73.5266
 L -37.5942,73.503 L -37.4058,73.503 L -37.2189,73.5266 L -37.0365,73.5734 L -36.8613,73.6428 L -36.6963,73.7335
 L -36.5439,73.8442 L -36.4065,73.9732 L -36.2865,74.1183 L -36.1855,74.2774 L -36.1053,74.4478 L -36.0471,74.627
 L -36.0118,74.812 L -36,75 L -36.0118,75.188 L -36.0471,75.373 L -36.1053,75.5522 L -36.1855,75.7226
 L -36.2865,75.8817 L -36.4065,76.0268 L -36.5439,76.1558 L -36.6963,76.2665 L -36.8613,76.3572 L -37.0365,76.4266
 L -37.2189,76.4734 L -37.4058,76.497 z
M -22.5942,76.497 L -22.7811,76.4734 L -22.9635,76.4266 L -23.1387,76.3572 L -23.3037,76.2665 L -23.4561,76.1558
 L -23.5934,76.0268 L -23.7135,75.8817 L -23.8145,75.7226 L -23.8947,75.5522 L -23.9529,75.373 L -23.9882,75.188
 L -24,75 L -23.9882,74.812 L -23.9529,74.627 L -23.8947,74.4478 L -23.8145,74.2774 L -23.7135,74.1183
 L -23.5934,73.9732 L -23.4561,73.8442 L -23.3037,73.7335 L -23.1387,73.6428 L -22.9635,73.5734 L -22.7811,73.5266
 L -22.5942,73.503 L -22.4058,73.503 L -22.2189,73.5266 L -22.0365,73.5734 L -21.8613,73.6428 L -21.6963,73.7335
 L -21.5439,73.8442 L -21.4065,73.9732 L -21.2865,74.1183 L -21.1855,74.2774 L -21.1053,74.4478 L -21.0471,74.627
 L -21.0118,74.812 L -21,75 L -21.0118,75.188 L -21.0471,75.373 L -21.1053,75.5522 L -21.1855,75.7226
 L -21.2865,75.8817 L -21.4065,76.0268 L -21.5439,76.1558 L -21.6963,76.2665 L -21.8613,76.3572 L -22.0365,76.4266
 L -22.2189,76.4734 L -22.4058,76.497 z
M -52.5942,76.497 L -52.7811,76.4734 L -52.9635,76.4266 L -53.1387,76.3572 L -53.3037,76.2665 L -53.4561,76.1558
 L -53.5934,76.0268 L -53.7135,75.8817 L -53.8145,75.7226 L -53.8947,75.5522 L -53.9529,75.373 L -53.9882,75.188
 L -54,75 L -53.9882,74.812 L -53.9529,74.627 L -53.8947,74.4478 L -53.8145,74.2774 L -53.7135,74.1183
 L -53.5934,73.9732 L -53.4561,73.8442 L -53.3037,73.7335 L -53.1387,73.6428 L -52.9635,73.5734 L -52.7811,73.5266
 L -52.5942,73.503 L -52.4058,73.503 L -52.2189,73.5266 L -52.0365,73.5734 L -51.8613,73.6428 L -51.6963,73.7335
 L -51.5439,73.8442 L -51.4065,73.9732 L -51.2865,74.1183 L -51.1855,74.2774 L -51.1053,74.4478 L -51.0471,74.627
 L -51.0118,74.812 L -51,75 L -51.0118,75.188 L -51.0471,75.373 L -51.1053,75.5522 L -51.1855,75.7226
 L -51.2865,75.8817 L -51.4065,76.0268 L -51.5439,76.1558 L -51.6963,76.2665 L -51.8613,76.3572 L -52.0365,76.4266
 L -52.2189,76.4734 L -52.4058,76.497 z
M -66.0471,-74.627 L -66.1053,-74.4478 L -66.1855,-74.2774 L -66.2865,-74.1183 L -66.4065,-73.9732 L -66.5439,-73.8442
 L -66.6963,-73.7335 L -66.8613,-73.6428 L -67.0365,-73.5734 L -67.2189,-73.5266 L -67.4058,-73.503 L -67.5942,-73.503
 L -67.7811,-73.5266 L -67.9635,-73.5734 L -68.1387,-73.6428 L -68.3037,-73.7335 L -68.4561,-73.8442 L -68.5934,-73.9732
 L -68.7135,-74.1183 L -68.8145,-74.2774 L -68.8947,-74.4478 L -68.9529,-74.627 L -68.9882,-74.812 L -69,-75
 L -68.9882,-75.188 L -68.9529,-75.373 L -68.8947,-75.5522 L -68.8145,-75.7226 L -68.7135,-75.8817 L -68.5934,-76.0268
 L -68.4561,-76.1558 L -68.3037,-76.2665 L -68.1387,-76.3572 L -67.9635,-76.4266 L -67.7811,-76.4734 L -67.5942,-76.497
 L -67.4058,-76.497 L -67.2189,-76.4734 L -67.0365,-76.4266 L -66.8613,-76.3572 L -66.6963,-76.2665 L -66.5439,-76.1558
 L -66.4065,-76.0268 L -66.2865,-75.8817 L -66.1855,-75.7226 L -66.1053,-75.5522 L -66.0471,-75.373 L -66.0118,-75.188
 L -66,-75 L -66.0118,-74.812 z
" stroke="black" fill="lightgray" stroke-width="0.5"/>
</svg>
