  0
SECTION
  2
BLOCKS
  0
ENDSEC
  0
SECTION
  2
ENTITIES
  0
LINE
  8
0
 10
92.9369
 20
-36.9114
 11
93.5451
 21
-36.7553
  0
LINE
  8
0
 10
93.5451
 20
-36.7553
 11
94.1289
 21
-36.5241
  0
LINE
  8
0
 10
94.1289
 20
-36.5241
 11
94.6791
 21
-36.2216
  0
LINE
  8
0
 10
94.6791
 20
-36.2216
 11
95.1871
 21
-35.8526
  0
LINE
  8
0
 10
95.1871
 20
-35.8526
 11
95.6448
 21
-35.4227
  0
LINE
  8
0
 10
95.6448
 20
-35.4227
 11
96.0451
 21
-34.9389
  0
LINE
  8
0
 10
96.0451
 20
-34.9389
 11
96.3815
 21
-34.4088
  0
LINE
  8
0
 10
96.3815
 20
-34.4088
 11
96.6489
 21
-33.8406
  0
LINE
  8
0
 10
96.6489
 20
-33.8406
 11
96.8429
 21
-33.2434
  0
LINE
  8
0
 10
96.8429
 20
-33.2434
 11
96.9606
 21
-32.6267
  0
LINE
  8
0
 10
96.9606
 20
-32.6267
 11
97
 21
-32
  0
LINE
  8
0
 10
97
 20
-32
 11
97
 21
32
  0
LINE
  8
0
 10
97
 20
32
 11
96.9606
 21
32.6267
  0
LINE
  8
0
 10
96.9606
 20
32.6267
 11
96.8429
 21
33.2434
  0
LINE
  8
0
 10
96.8429
 20
33.2434
 11
96.6489
 21
33.8406
  0
LINE
  8
0
 10
96.6489
 20
33.8406
 11
96.3815
 21
34.4088
  0
LINE
  8
0
 10
96.3815
 20
34.4088
 11
96.0451
 21
34.9389
  0
LINE
  8
0
 10
96.0451
 20
34.9389
 11
95.6448
 21
35.4227
  0
LINE
  8
0
 10
95.6448
 20
35.4227
 11
95.1871
 21
35.8526
  0
LINE
  8
0
 10
95.1871
 20
35.8526
 11
94.6791
 21
36.2216
  0
LINE
  8
0
 10
94.6791
 20
36.2216
 11
94.1289
 21
36.5241
  0
LINE
  8
0
 10
94.1289
 20
36.5241
 11
93.5451
 21
36.7553
  0
LINE
  8
0
 10
93.5451
 20
36.7553
 11
92.9369
 21
36.9114
  0
LINE
  8
0
 10
92.9369
 20
36.9114
 11
92.3139
 21
36.9901
  0
LINE
  8
0
 10
92.3139
 20
36.9901
 11
-92.3139
 21
36.9901
  0
LINE
  8
0
 10
-92.3139
 20
36.9901
 11
-92.9369
 21
36.9114
  0
LINE
  8
0
 10
-92.9369
 20
36.9114
 11
-93.5451
 21
36.7553
  0
LINE
  8
0
 10
-93.5451
 20
36.7553
 11
-94.1289
 21
36.5241
  0
LINE
  8
0
 10
-94.1289
 20
36.5241
 11
-94.6791
 21
36.2216
  0
LINE
  8
0
 10
-94.6791
 20
36.2216
 11
-95.1871
 21
35.8526
  0
LINE
  8
0
 10
-95.1871
 20
35.8526
 11
-95.6448
 21
35.4227
  0
LINE
  8
0
 10
-95.6448
 20
35.4227
 11
-96.0451
 21
34.9389
  0
LINE
  8
0
 10
-96.0451
 20
34.9389
 11
-96.3815
 21
34.4088
  0
LINE
  8
0
 10
-96.3815
 20
34.4088
 11
-96.6489
 21
33.8406
  0
LINE
  8
0
 10
-96.6489
 20
33.8406
 11
-96.8429
 21
33.2434
  0
LINE
  8
0
 10
-96.8429
 20
33.2434
 11
-96.9606
 21
32.6267
  0
LINE
  8
0
 10
-96.9606
 20
32.6267
 11
-97
 21
32
  0
LINE
  8
0
 10
-97
 20
32
 11
-97
 21
-32
  0
LINE
  8
0
 10
-97
 20
-32
 11
-96.9606
 21
-32.6267
  0
LINE
  8
0
 10
-96.9606
 20
-32.6267
 11
-96.8429
 21
-33.2434
  0
LINE
  8
0
 10
-96.8429
 20
-33.2434
 11
-96.6489
 21
-33.8406
  0
LINE
  8
0
 10
-96.6489
 20
-33.8406
 11
-96.3815
 21
-34.4088
  0
LINE
  8
0
 10
-96.3815
 20
-34.4088
 11
-96.0451
 21
-34.9389
  0
LINE
  8
0
 10
-96.0451
 20
-34.9389
 11
-95.6448
 21
-35.4227
  0
LINE
  8
0
 10
-95.6448
 20
-35.4227
 11
-95.1871
 21
-35.8526
  0
LINE
  8
0
 10
-95.1871
 20
-35.8526
 11
-94.6791
 21
-36.2216
  0
LINE
  8
0
 10
-94.6791
 20
-36.2216
 11
-94.1289
 21
-36.5241
  0
LINE
  8
0
 10
-94.1289
 20
-36.5241
 11
-93.5451
 21
-36.7553
  0
LINE
  8
0
 10
-93.5451
 20
-36.7553
 11
-92.9369
 21
-36.9114
  0
LINE
  8
0
 10
-92.9369
 20
-36.9114
 11
-92.3139
 21
-36.9901
  0
LINE
  8
0
 10
-92.3139
 20
-36.9901
 11
92.3139
 21
-36.9901
  0
LINE
  8
0
 10
92.3139
 20
-36.9901
 11
92.9369
 21
-36.9114
  0
LINE
  8
0
 10
-90.1884
 20
27.0059
 11
-90.5621
 21
27.0531
  0
LINE
  8
0
 10
-90.5621
 20
27.0531
 11
-90.927
 21
27.1468
  0
LINE
  8
0
 10
-90.927
 20
27.1468
 11
-91.2773
 21
27.2855
  0
LINE
  8
0
 10
-91.2773
 20
27.2855
 11
-91.6075
 21
27.467
  0
LINE
  8
0
 10
-91.6075
 20
27.467
 11
-91.9123
 21
27.6884
  0
LINE
  8
0
 10
-91.9123
 20
27.6884
 11
-92.1869
 21
27.9464
  0
LINE
  8
0
 10
-92.1869
 20
27.9464
 11
-92.427
 21
28.2366
  0
LINE
  8
0
 10
-92.427
 20
28.2366
 11
-92.6289
 21
28.5547
  0
LINE
  8
0
 10
-92.6289
 20
28.5547
 11
-92.7893
 21
28.8956
  0
LINE
  8
0
 10
-92.7893
 20
28.8956
 11
-92.9057
 21
29.2539
  0
LINE
  8
0
 10
-92.9057
 20
29.2539
 11
-92.9763
 21
29.624
  0
LINE
  8
0
 10
-92.9763
 20
29.624
 11
-93
 21
30
  0
LINE
  8
0
 10
-93
 20
30
 11
-92.9763
 21
30.376
  0
LINE
  8
0
 10
-92.9763
 20
30.376
 11
-92.9057
 21
30.7461
  0
LINE
  8
0
 10
-92.9057
 20
30.7461
 11
-92.7893
 21
31.1044
  0
LINE
  8
0
 10
-92.7893
 20
31.1044
 11
-92.6289
 21
31.4453
  0
LINE
  8
0
 10
-92.6289
 20
31.4453
 11
-92.427
 21
31.7634
  0
LINE
  8
0
 10
-92.427
 20
31.7634
 11
-92.1869
 21
32.0536
  0
LINE
  8
0
 10
-92.1869
 20
32.0536
 11
-91.9123
 21
32.3115
  0
LINE
  8
0
 10
-91.9123
 20
32.3115
 11
-91.6075
 21
32.533
  0
LINE
  8
0
 10
-91.6075
 20
32.533
 11
-91.2773
 21
32.7145
  0
LINE
  8
0
 10
-91.2773
 20
32.7145
 11
-90.927
 21
32.8532
  0
LINE
  8
0
 10
-90.927
 20
32.8532
 11
-90.5621
 21
32.9469
  0
LINE
  8
0
 10
-90.5621
 20
32.9469
 11
-90.1884
 21
32.9941
  0
LINE
  8
0
 10
-90.1884
 20
32.9941
 11
-89.8116
 21
32.9941
  0
LINE
  8
0
 10
-89.8116
 20
32.9941
 11
-89.4379
 21
32.9469
  0
LINE
  8
0
 10
-89.4379
 20
32.9469
 11
-89.073
 21
32.8532
  0
LINE
  8
0
 10
-89.073
 20
32.8532
 11
-88.7227
 21
32.7145
  0
LINE
  8
0
 10
-88.7227
 20
32.7145
 11
-88.3925
 21
32.533
  0
LINE
  8
0
 10
-88.3925
 20
32.533
 11
-88.0877
 21
32.3115
  0
LINE
  8
0
 10
-88.0877
 20
32.3115
 11
-87.8131
 21
32.0536
  0
LINE
  8
0
 10
-87.8131
 20
32.0536
 11
-87.573
 21
31.7634
  0
LINE
  8
0
 10
-87.573
 20
31.7634
 11
-87.3711
 21
31.4453
  0
LINE
  8
0
 10
-87.3711
 20
31.4453
 11
-87.2107
 21
31.1044
  0
LINE
  8
0
 10
-87.2107
 20
31.1044
 11
-87.0943
 21
30.7461
  0
LINE
  8
0
 10
-87.0943
 20
30.7461
 11
-87.0237
 21
30.376
  0
LINE
  8
0
 10
-87.0237
 20
30.376
 11
-87
 21
30
  0
LINE
  8
0
 10
-87
 20
30
 11
-87.0237
 21
29.624
  0
LINE
  8
0
 10
-87.0237
 20
29.624
 11
-87.0943
 21
29.2539
  0
LINE
  8
0
 10
-87.0943
 20
29.2539
 11
-87.2107
 21
28.8956
  0
LINE
  8
0
 10
-87.2107
 20
28.8956
 11
-87.3711
 21
28.5547
  0
LINE
  8
0
 10
-87.3711
 20
28.5547
 11
-87.573
 21
28.2366
  0
LINE
  8
0
 10
-87.573
 20
28.2366
 11
-87.8131
 21
27.9464
  0
LINE
  8
0
 10
-87.8131
 20
27.9464
 11
-88.0877
 21
27.6884
  0
LINE
  8
0
 10
-88.0877
 20
27.6884
 11
-88.3925
 21
27.467
  0
LINE
  8
0
 10
-88.3925
 20
27.467
 11
-88.7227
 21
27.2855
  0
LINE
  8
0
 10
-88.7227
 20
27.2855
 11
-89.073
 21
27.1468
  0
LINE
  8
0
 10
-89.073
 20
27.1468
 11
-89.4379
 21
27.0531
  0
LINE
  8
0
 10
-89.4379
 20
27.0531
 11
-89.8116
 21
27.0059
  0
LINE
  8
0
 10
-89.8116
 20
27.0059
 11
-90.1884
 21
27.0059
  0
LINE
  8
0
 10
89.8116
 20
27.0059
 11
89.4379
 21
27.0531
  0
LINE
  8
0
 10
89.4379
 20
27.0531
 11
89.073
 21
27.1468
  0
LINE
  8
0
 10
89.073
 20
27.1468
 11
88.7227
 21
27.2855
  0
LINE
  8
0
 10
88.7227
 20
27.2855
 11
88.3925
 21
27.467
  0
LINE
  8
0
 10
88.3925
 20
27.467
 11
88.0877
 21
27.6884
  0
LINE
  8
0
 10
88.0877
 20
27.6884
 11
87.8131
 21
27.9464
  0
LINE
  8
0
 10
87.8131
 20
27.9464
 11
87.573
 21
28.2366
  0
LINE
  8
0
 10
87.573
 20
28.2366
 11
87.3711
 21
28.5547
  0
LINE
  8
0
 10
87.3711
 20
28.5547
 11
87.2107
 21
28.8956
  0
LINE
  8
0
 10
87.2107
 20
28.8956
 11
87.0943
 21
29.2539
  0
LINE
  8
0
 10
87.0943
 20
29.2539
 11
87.0237
 21
29.624
  0
LINE
  8
0
 10
87.0237
 20
29.624
 11
87
 21
30
  0
LINE
  8
0
 10
87
 20
30
 11
87.0237
 21
30.376
  0
LINE
  8
0
 10
87.0237
 20
30.376
 11
87.0943
 21
30.7461
  0
LINE
  8
0
 10
87.0943
 20
30.7461
 11
87.2107
 21
31.1044
  0
LINE
  8
0
 10
87.2107
 20
31.1044
 11
87.3711
 21
31.4453
  0
LINE
  8
0
 10
87.3711
 20
31.4453
 11
87.573
 21
31.7634
  0
LINE
  8
0
 10
87.573
 20
31.7634
 11
87.8131
 21
32.0536
  0
LINE
  8
0
 10
87.8131
 20
32.0536
 11
88.0877
 21
32.3115
  0
LINE
  8
0
 10
88.0877
 20
32.3115
 11
88.3925
 21
32.533
  0
LINE
  8
0
 10
88.3925
 20
32.533
 11
88.7227
 21
32.7145
  0
LINE
  8
0
 10
88.7227
 20
32.7145
 11
89.073
 21
32.8532
  0
LINE
  8
0
 10
89.073
 20
32.8532
 11
89.4379
 21
32.9469
  0
LINE
  8
0
 10
89.4379
 20
32.9469
 11
89.8116
 21
32.9941
  0
LINE
  8
0
 10
89.8116
 20
32.9941
 11
90.1884
 21
32.9941
  0
LINE
  8
0
 10
90.1884
 20
32.9941
 11
90.5621
 21
32.9469
  0
LINE
  8
0
 10
90.5621
 20
32.9469
 11
90.927
 21
32.8532
  0
LINE
  8
0
 10
90.927
 20
32.8532
 11
91.2773
 21
32.7145
  0
LINE
  8
0
 10
91.2773
 20
32.7145
 11
91.6075
 21
32.533
  0
LINE
  8
0
 10
91.6075
 20
32.533
 11
91.9123
 21
32.3115
  0
LINE
  8
0
 10
91.9123
 20
32.3115
 11
92.1869
 21
32.0536
  0
LINE
  8
0
 10
92.1869
 20
32.0536
 11
92.427
 21
31.7634
  0
LINE
  8
0
 10
92.427
 20
31.7634
 11
92.6289
 21
31.4453
  0
LINE
  8
0
 10
92.6289
 20
31.4453
 11
92.7893
 21
31.1044
  0
LINE
  8
0
 10
92.7893
 20
31.1044
 11
92.9057
 21
30.7461
  0
LINE
  8
0
 10
92.9057
 20
30.7461
 11
92.9763
 21
30.376
  0
LINE
  8
0
 10
92.9763
 20
30.376
 11
93
 21
30
  0
LINE
  8
0
 10
93
 20
30
 11
92.9763
 21
29.624
  0
LINE
  8
0
 10
92.9763
 20
29.624
 11
92.9057
 21
29.2539
  0
LINE
  8
0
 10
92.9057
 20
29.2539
 11
92.7893
 21
28.8956
  0
LINE
  8
0
 10
92.7893
 20
28.8956
 11
92.6289
 21
28.5547
  0
LINE
  8
0
 10
92.6289
 20
28.5547
 11
92.427
 21
28.2366
  0
LINE
  8
0
 10
92.427
 20
28.2366
 11
92.1869
 21
27.9464
  0
LINE
  8
0
 10
92.1869
 20
27.9464
 11
91.9123
 21
27.6884
  0
LINE
  8
0
 10
91.9123
 20
27.6884
 11
91.6075
 21
27.467
  0
LINE
  8
0
 10
91.6075
 20
27.467
 11
91.2773
 21
27.2855
  0
LINE
  8
0
 10
91.2773
 20
27.2855
 11
90.927
 21
27.1468
  0
LINE
  8
0
 10
90.927
 20
27.1468
 11
90.5621
 21
27.0531
  0
LINE
  8
0
 10
90.5621
 20
27.0531
 11
90.1884
 21
27.0059
  0
LINE
  8
0
 10
90.1884
 20
27.0059
 11
89.8116
 21
27.0059
  0
LINE
  8
0
 10
-1.82092
 20
-28.9428
 11
-5.43405
 21
-28.4863
  0
LINE
  8
0
 10
-5.43405
 20
-28.4863
 11
-8.96149
 21
-27.5806
  0
LINE
  8
0
 10
-8.96149
 20
-27.5806
 11
-12.3476
 21
-26.24
  0
LINE
  8
0
 10
-12.3476
 20
-26.24
 11
-15.539
 21
-24.4855
  0
LINE
  8
0
 10
-15.539
 20
-24.4855
 11
-18.4853
 21
-22.3449
  0
LINE
  8
0
 10
-18.4853
 20
-22.3449
 11
-21.1401
 21
-19.8519
  0
LINE
  8
0
 10
-21.1401
 20
-19.8519
 11
-23.4615
 21
-17.0458
  0
LINE
  8
0
 10
-23.4615
 20
-17.0458
 11
-25.4129
 21
-13.9709
  0
LINE
  8
0
 10
-25.4129
 20
-13.9709
 11
-26.9635
 21
-10.6756
  0
LINE
  8
0
 10
-26.9635
 20
-10.6756
 11
-28.0889
 21
-7.21201
  0
LINE
  8
0
 10
-28.0889
 20
-7.21201
 11
-28.7713
 21
-3.63466
  0
LINE
  8
0
 10
-28.7713
 20
-3.63466
 11
-29
 21
0
  0
LINE
  8
0
 10
-29
 20
0
 11
-28.7713
 21
3.63466
  0
LINE
  8
0
 10
-28.7713
 20
3.63466
 11
-28.0889
 21
7.21201
  0
LINE
  8
0
 10
-28.0889
 20
7.21201
 11
-26.9635
 21
10.6756
  0
LINE
  8
0
 10
-26.9635
 20
10.6756
 11
-25.4129
 21
13.9709
  0
LINE
  8
0
 10
-25.4129
 20
13.9709
 11
-23.4615
 21
17.0458
  0
LINE
  8
0
 10
-23.4615
 20
17.0458
 11
-21.1401
 21
19.8519
  0
LINE
  8
0
 10
-21.1401
 20
19.8519
 11
-18.4853
 21
22.3449
  0
LINE
  8
0
 10
-18.4853
 20
22.3449
 11
-15.539
 21
24.4855
  0
LINE
  8
0
 10
-15.539
 20
24.4855
 11
-12.3476
 21
26.24
  0
LINE
  8
0
 10
-12.3476
 20
26.24
 11
-8.96149
 21
27.5806
  0
LINE
  8
0
 10
-8.96149
 20
27.5806
 11
-5.43405
 21
28.4863
  0
LINE
  8
0
 10
-5.43405
 20
28.4863
 11
-1.82092
 21
28.9428
  0
LINE
  8
0
 10
-1.82092
 20
28.9428
 11
1.82092
 21
28.9428
  0
LINE
  8
0
 10
1.82092
 20
28.9428
 11
5.43405
 21
28.4863
  0
LINE
  8
0
 10
5.43405
 20
28.4863
 11
8.96149
 21
27.5806
  0
LINE
  8
0
 10
8.96149
 20
27.5806
 11
12.3476
 21
26.24
  0
LINE
  8
0
 10
12.3476
 20
26.24
 11
15.539
 21
24.4855
  0
LINE
  8
0
 10
15.539
 20
24.4855
 11
18.4853
 21
22.3449
  0
LINE
  8
0
 10
18.4853
 20
22.3449
 11
21.1401
 21
19.8519
  0
LINE
  8
0
 10
21.1401
 20
19.8519
 11
23.4615
 21
17.0458
  0
LINE
  8
0
 10
23.4615
 20
17.0458
 11
25.4129
 21
13.9709
  0
LINE
  8
0
 10
25.4129
 20
13.9709
 11
26.9635
 21
10.6756
  0
LINE
  8
0
 10
26.9635
 20
10.6756
 11
28.0889
 21
7.21201
  0
LINE
  8
0
 10
28.0889
 20
7.21201
 11
28.7713
 21
3.63466
  0
LINE
  8
0
 10
28.7713
 20
3.63466
 11
29
 21
0
  0
LINE
  8
0
 10
29
 20
0
 11
28.7713
 21
-3.63466
  0
LINE
  8
0
 10
28.7713
 20
-3.63466
 11
28.0889
 21
-7.21201
  0
LINE
  8
0
 10
28.0889
 20
-7.21201
 11
26.9635
 21
-10.6756
  0
LINE
  8
0
 10
26.9635
 20
-10.6756
 11
25.4129
 21
-13.9709
  0
LINE
  8
0
 10
25.4129
 20
-13.9709
 11
23.4615
 21
-17.0458
  0
LINE
  8
0
 10
23.4615
 20
-17.0458
 11
21.1401
 21
-19.8519
  0
LINE
  8
0
 10
21.1401
 20
-19.8519
 11
18.4853
 21
-22.3449
  0
LINE
  8
0
 10
18.4853
 20
-22.3449
 11
15.539
 21
-24.4855
  0
LINE
  8
0
 10
15.539
 20
-24.4855
 11
12.3476
 21
-26.24
  0
LINE
  8
0
 10
12.3476
 20
-26.24
 11
8.96149
 21
-27.5806
  0
LINE
  8
0
 10
8.96149
 20
-27.5806
 11
5.43405
 21
-28.4863
  0
LINE
  8
0
 10
5.43405
 20
-28.4863
 11
1.82092
 21
-28.9428
  0
LINE
  8
0
 10
1.82092
 20
-28.9428
 11
-1.82092
 21
-28.9428
  0
LINE
  8
0
 10
61.1791
 20
-28.9428
 11
57.5659
 21
-28.4863
  0
LINE
  8
0
 10
57.5659
 20
-28.4863
 11
54.0385
 21
-27.5806
  0
LINE
  8
0
 10
54.0385
 20
-27.5806
 11
50.6524
 21
-26.24
  0
LINE
  8
0
 10
50.6524
 20
-26.24
 11
47.461
 21
-24.4855
  0
LINE
  8
0
 10
47.461
 20
-24.4855
 11
44.5147
 21
-22.3449
  0
LINE
  8
0
 10
44.5147
 20
-22.3449
 11
41.8599
 21
-19.8519
  0
LINE
  8
0
 10
41.8599
 20
-19.8519
 11
39.5385
 21
-17.0458
  0
LINE
  8
0
 10
39.5385
 20
-17.0458
 11
37.5871
 21
-13.9709
  0
LINE
  8
0
 10
37.5871
 20
-13.9709
 11
36.0365
 21
-10.6756
  0
LINE
  8
0
 10
36.0365
 20
-10.6756
 11
34.9111
 21
-7.21201
  0
LINE
  8
0
 10
34.9111
 20
-7.21201
 11
34.2287
 21
-3.63466
  0
LINE
  8
0
 10
34.2287
 20
-3.63466
 11
34
 21
0
  0
LINE
  8
0
 10
34
 20
0
 11
34.2287
 21
3.63466
  0
LINE
  8
0
 10
34.2287
 20
3.63466
 11
34.9111
 21
7.21201
  0
LINE
  8
0
 10
34.9111
 20
7.21201
 11
36.0365
 21
10.6756
  0
LINE
  8
0
 10
36.0365
 20
10.6756
 11
37.5871
 21
13.9709
  0
LINE
  8
0
 10
37.5871
 20
13.9709
 11
39.5385
 21
17.0458
  0
LINE
  8
0
 10
39.5385
 20
17.0458
 11
41.8599
 21
19.8519
  0
LINE
  8
0
 10
41.8599
 20
19.8519
 11
44.5147
 21
22.3449
  0
LINE
  8
0
 10
44.5147
 20
22.3449
 11
47.461
 21
24.4855
  0
LINE
  8
0
 10
47.461
 20
24.4855
 11
50.6524
 21
26.24
  0
LINE
  8
0
 10
50.6524
 20
26.24
 11
54.0385
 21
27.5806
  0
LINE
  8
0
 10
54.0385
 20
27.5806
 11
57.5659
 21
28.4863
  0
LINE
  8
0
 10
57.5659
 20
28.4863
 11
61.1791
 21
28.9428
  0
LINE
  8
0
 10
61.1791
 20
28.9428
 11
64.8209
 21
28.9428
  0
LINE
  8
0
 10
64.8209
 20
28.9428
 11
68.4341
 21
28.4863
  0
LINE
  8
0
 10
68.4341
 20
28.4863
 11
71.9615
 21
27.5806
  0
LINE
  8
0
 10
71.9615
 20
27.5806
 11
75.3476
 21
26.24
  0
LINE
  8
0
 10
75.3476
 20
26.24
 11
78.539
 21
24.4855
  0
LINE
  8
0
 10
78.539
 20
24.4855
 11
81.4853
 21
22.3449
  0
LINE
  8
0
 10
81.4853
 20
22.3449
 11
84.1401
 21
19.8519
  0
LINE
  8
0
 10
84.1401
 20
19.8519
 11
86.4615
 21
17.0458
  0
LINE
  8
0
 10
86.4615
 20
17.0458
 11
88.4129
 21
13.9709
  0
LINE
  8
0
 10
88.4129
 20
13.9709
 11
89.9635
 21
10.6756
  0
LINE
  8
0
 10
89.9635
 20
10.6756
 11
91.0889
 21
7.21201
  0
LINE
  8
0
 10
91.0889
 20
7.21201
 11
91.7713
 21
3.63466
  0
LINE
  8
0
 10
91.7713
 20
3.63466
 11
92
 21
0
  0
LINE
  8
0
 10
92
 20
0
 11
91.7713
 21
-3.63466
  0
LINE
  8
0
 10
91.7713
 20
-3.63466
 11
91.0889
 21
-7.21201
  0
LINE
  8
0
 10
91.0889
 20
-7.21201
 11
89.9635
 21
-10.6756
  0
LINE
  8
0
 10
89.9635
 20
-10.6756
 11
88.4129
 21
-13.9709
  0
LINE
  8
0
 10
88.4129
 20
-13.9709
 11
86.4615
 21
-17.0458
  0
LINE
  8
0
 10
86.4615
 20
-17.0458
 11
84.1401
 21
-19.8519
  0
LINE
  8
0
 10
84.1401
 20
-19.8519
 11
81.4853
 21
-22.3449
  0
LINE
  8
0
 10
81.4853
 20
-22.3449
 11
78.539
 21
-24.4855
  0
LINE
  8
0
 10
78.539
 20
-24.4855
 11
75.3476
 21
-26.24
  0
LINE
  8
0
 10
75.3476
 20
-26.24
 11
71.9615
 21
-27.5806
  0
LINE
  8
0
 10
71.9615
 20
-27.5806
 11
68.4341
 21
-28.4863
  0
LINE
  8
0
 10
68.4341
 20
-28.4863
 11
64.8209
 21
-28.9428
  0
LINE
  8
0
 10
64.8209
 20
-28.9428
 11
61.1791
 21
-28.9428
  0
LINE
  8
0
 10
-64.8209
 20
-28.9428
 11
-68.4341
 21
-28.4863
  0
LINE
  8
0
 10
-68.4341
 20
-28.4863
 11
-71.9615
 21
-27.5806
  0
LINE
  8
0
 10
-71.9615
 20
-27.5806
 11
-75.3476
 21
-26.24
  0
LINE
  8
0
 10
-75.3476
 20
-26.24
 11
-78.539
 21
-24.4855
  0
LINE
  8
0
 10
-78.539
 20
-24.4855
 11
-81.4853
 21
-22.3449
  0
LINE
  8
0
 10
-81.4853
 20
-22.3449
 11
-84.1401
 21
-19.8519
  0
LINE
  8
0
 10
-84.1401
 20
-19.8519
 11
-86.4615
 21
-17.0458
  0
LINE
  8
0
 10
-86.4615
 20
-17.0458
 11
-88.4129
 21
-13.9709
  0
LINE
  8
0
 10
-88.4129
 20
-13.9709
 11
-89.9635
 21
-10.6756
  0
LINE
  8
0
 10
-89.9635
 20
-10.6756
 11
-91.0889
 21
-7.21201
  0
LINE
  8
0
 10
-91.0889
 20
-7.21201
 11
-91.7713
 21
-3.63466
  0
LINE
  8
0
 10
-91.7713
 20
-3.63466
 11
-92
 21
0
  0
LINE
  8
0
 10
-92
 20
0
 11
-91.7713
 21
3.63466
  0
LINE
  8
0
 10
-91.7713
 20
3.63466
 11
-91.0889
 21
7.21201
  0
LINE
  8
0
 10
-91.0889
 20
7.21201
 11
-89.9635
 21
10.6756
  0
LINE
  8
0
 10
-89.9635
 20
10.6756
 11
-88.4129
 21
13.9709
  0
LINE
  8
0
 10
-88.4129
 20
13.9709
 11
-86.4615
 21
17.0458
  0
LINE
  8
0
 10
-86.4615
 20
17.0458
 11
-84.1401
 21
19.8519
  0
LINE
  8
0
 10
-84.1401
 20
19.8519
 11
-81.4853
 21
22.3449
  0
LINE
  8
0
 10
-81.4853
 20
22.3449
 11
-78.539
 21
24.4855
  0
LINE
  8
0
 10
-78.539
 20
24.4855
 11
-75.3476
 21
26.24
  0
LINE
  8
0
 10
-75.3476
 20
26.24
 11
-71.9615
 21
27.5806
  0
LINE
  8
0
 10
-71.9615
 20
27.5806
 11
-68.4341
 21
28.4863
  0
LINE
  8
0
 10
-68.4341
 20
28.4863
 11
-64.8209
 21
28.9428
  0
LINE
  8
0
 10
-64.8209
 20
28.9428
 11
-61.1791
 21
28.9428
  0
LINE
  8
0
 10
-61.1791
 20
28.9428
 11
-57.5659
 21
28.4863
  0
LINE
  8
0
 10
-57.5659
 20
28.4863
 11
-54.0385
 21
27.5806
  0
LINE
  8
0
 10
-54.0385
 20
27.5806
 11
-50.6524
 21
26.24
  0
LINE
  8
0
 10
-50.6524
 20
26.24
 11
-47.461
 21
24.4855
  0
LINE
  8
0
 10
-47.461
 20
24.4855
 11
-44.5147
 21
22.3449
  0
LINE
  8
0
 10
-44.5147
 20
22.3449
 11
-41.8599
 21
19.8519
  0
LINE
  8
0
 10
-41.8599
 20
19.8519
 11
-39.5385
 21
17.0458
  0
LINE
  8
0
 10
-39.5385
 20
17.0458
 11
-37.5871
 21
13.9709
  0
LINE
  8
0
 10
-37.5871
 20
13.9709
 11
-36.0365
 21
10.6756
  0
LINE
  8
0
 10
-36.0365
 20
10.6756
 11
-34.9111
 21
7.21201
  0
LINE
  8
0
 10
-34.9111
 20
7.21201
 11
-34.2287
 21
3.63466
  0
LINE
  8
0
 10
-34.2287
 20
3.63466
 11
-34
 21
0
  0
LINE
  8
0
 10
-34
 20
0
 11
-34.2287
 21
-3.63466
  0
LINE
  8
0
 10
-34.2287
 20
-3.63466
 11
-34.9111
 21
-7.21201
  0
LINE
  8
0
 10
-34.9111
 20
-7.21201
 11
-36.0365
 21
-10.6756
  0
LINE
  8
0
 10
-36.0365
 20
-10.6756
 11
-37.5871
 21
-13.9709
  0
LINE
  8
0
 10
-37.5871
 20
-13.9709
 11
-39.5385
 21
-17.0458
  0
LINE
  8
0
 10
-39.5385
 20
-17.0458
 11
-41.8599
 21
-19.8519
  0
LINE
  8
0
 10
-41.8599
 20
-19.8519
 11
-44.5147
 21
-22.3449
  0
LINE
  8
0
 10
-44.5147
 20
-22.3449
 11
-47.461
 21
-24.4855
  0
LINE
  8
0
 10
-47.461
 20
-24.4855
 11
-50.6524
 21
-26.24
  0
LINE
  8
0
 10
-50.6524
 20
-26.24
 11
-54.0385
 21
-27.5806
  0
LINE
  8
0
 10
-54.0385
 20
-27.5806
 11
-57.5659
 21
-28.4863
  0
LINE
  8
0
 10
-57.5659
 20
-28.4863
 11
-61.1791
 21
-28.9428
  0
LINE
  8
0
 10
-61.1791
 20
-28.9428
 11
-64.8209
 21
-28.9428
  0
LINE
  8
0
 10
89.8116
 20
-32.9941
 11
89.4379
 21
-32.9469
  0
LINE
  8
0
 10
89.4379
 20
-32.9469
 11
89.073
 21
-32.8532
  0
LINE
  8
0
 10
89.073
 20
-32.8532
 11
88.7227
 21
-32.7145
  0
LINE
  8
0
 10
88.7227
 20
-32.7145
 11
88.3925
 21
-32.533
  0
LINE
  8
0
 10
88.3925
 20
-32.533
 11
88.0877
 21
-32.3115
  0
LINE
  8
0
 10
88.0877
 20
-32.3115
 11
87.8131
 21
-32.0536
  0
LINE
  8
0
 10
87.8131
 20
-32.0536
 11
87.573
 21
-31.7634
  0
LINE
  8
0
 10
87.573
 20
-31.7634
 11
87.3711
 21
-31.4453
  0
LINE
  8
0
 10
87.3711
 20
-31.4453
 11
87.2107
 21
-31.1044
  0
LINE
  8
0
 10
87.2107
 20
-31.1044
 11
87.0943
 21
-30.7461
  0
LINE
  8
0
 10
87.0943
 20
-30.7461
 11
87.0237
 21
-30.376
  0
LINE
  8
0
 10
87.0237
 20
-30.376
 11
87
 21
-30
  0
LINE
  8
0
 10
87
 20
-30
 11
87.0237
 21
-29.624
  0
LINE
  8
0
 10
87.0237
 20
-29.624
 11
87.0943
 21
-29.2539
  0
LINE
  8
0
 10
87.0943
 20
-29.2539
 11
87.2107
 21
-28.8956
  0
LINE
  8
0
 10
87.2107
 20
-28.8956
 11
87.3711
 21
-28.5547
  0
LINE
  8
0
 10
87.3711
 20
-28.5547
 11
87.573
 21
-28.2366
  0
LINE
  8
0
 10
87.573
 20
-28.2366
 11
87.8131
 21
-27.9464
  0
LINE
  8
0
 10
87.8131
 20
-27.9464
 11
88.0877
 21
-27.6884
  0
LINE
  8
0
 10
88.0877
 20
-27.6884
 11
88.3925
 21
-27.467
  0
LINE
  8
0
 10
88.3925
 20
-27.467
 11
88.7227
 21
-27.2855
  0
LINE
  8
0
 10
88.7227
 20
-27.2855
 11
89.073
 21
-27.1468
  0
LINE
  8
0
 10
89.073
 20
-27.1468
 11
89.4379
 21
-27.0531
  0
LINE
  8
0
 10
89.4379
 20
-27.0531
 11
89.8116
 21
-27.0059
  0
LINE
  8
0
 10
89.8116
 20
-27.0059
 11
90.1884
 21
-27.0059
  0
LINE
  8
0
 10
90.1884
 20
-27.0059
 11
90.5621
 21
-27.0531
  0
LINE
  8
0
 10
90.5621
 20
-27.0531
 11
90.927
 21
-27.1468
  0
LINE
  8
0
 10
90.927
 20
-27.1468
 11
91.2773
 21
-27.2855
  0
LINE
  8
0
 10
91.2773
 20
-27.2855
 11
91.6075
 21
-27.467
  0
LINE
  8
0
 10
91.6075
 20
-27.467
 11
91.9123
 21
-27.6884
  0
LINE
  8
0
 10
91.9123
 20
-27.6884
 11
92.1869
 21
-27.9464
  0
LINE
  8
0
 10
92.1869
 20
-27.9464
 11
92.427
 21
-28.2366
  0
LINE
  8
0
 10
92.427
 20
-28.2366
 11
92.6289
 21
-28.5547
  0
LINE
  8
0
 10
92.6289
 20
-28.5547
 11
92.7893
 21
-28.8956
  0
LINE
  8
0
 10
92.7893
 20
-28.8956
 11
92.9057
 21
-29.2539
  0
LINE
  8
0
 10
92.9057
 20
-29.2539
 11
92.9763
 21
-29.624
  0
LINE
  8
0
 10
92.9763
 20
-29.624
 11
93
 21
-30
  0
LINE
  8
0
 10
93
 20
-30
 11
92.9763
 21
-30.376
  0
LINE
  8
0
 10
92.9763
 20
-30.376
 11
92.9057
 21
-30.7461
  0
LINE
  8
0
 10
92.9057
 20
-30.7461
 11
92.7893
 21
-31.1044
  0
LINE
  8
0
 10
92.7893
 20
-31.1044
 11
92.6289
 21
-31.4453
  0
LINE
  8
0
 10
92.6289
 20
-31.4453
 11
92.427
 21
-31.7634
  0
LINE
  8
0
 10
92.427
 20
-31.7634
 11
92.1869
 21
-32.0536
  0
LINE
  8
0
 10
92.1869
 20
-32.0536
 11
91.9123
 21
-32.3115
  0
LINE
  8
0
 10
91.9123
 20
-32.3115
 11
91.6075
 21
-32.533
  0
LINE
  8
0
 10
91.6075
 20
-32.533
 11
91.2773
 21
-32.7145
  0
LINE
  8
0
 10
91.2773
 20
-32.7145
 11
90.927
 21
-32.8532
  0
LINE
  8
0
 10
90.927
 20
-32.8532
 11
90.5621
 21
-32.9469
  0
LINE
  8
0
 10
90.5621
 20
-32.9469
 11
90.1884
 21
-32.9941
  0
LINE
  8
0
 10
90.1884
 20
-32.9941
 11
89.8116
 21
-32.9941
  0
LINE
  8
0
 10
-90.1884
 20
-32.9941
 11
-90.5621
 21
-32.9469
  0
LINE
  8
0
 10
-90.5621
 20
-32.9469
 11
-90.927
 21
-32.8532
  0
LINE
  8
0
 10
-90.927
 20
-32.8532
 11
-91.2773
 21
-32.7145
  0
LINE
  8
0
 10
-91.2773
 20
-32.7145
 11
-91.6075
 21
-32.533
  0
LINE
  8
0
 10
-91.6075
 20
-32.533
 11
-91.9123
 21
-32.3115
  0
LINE
  8
0
 10
-91.9123
 20
-32.3115
 11
-92.1869
 21
-32.0536
  0
LINE
  8
0
 10
-92.1869
 20
-32.0536
 11
-92.427
 21
-31.7634
  0
LINE
  8
0
 10
-92.427
 20
-31.7634
 11
-92.6289
 21
-31.4453
  0
LINE
  8
0
 10
-92.6289
 20
-31.4453
 11
-92.7893
 21
-31.1044
  0
LINE
  8
0
 10
-92.7893
 20
-31.1044
 11
-92.9057
 21
-30.7461
  0
LINE
  8
0
 10
-92.9057
 20
-30.7461
 11
-92.9763
 21
-30.376
  0
LINE
  8
0
 10
-92.9763
 20
-30.376
 11
-93
 21
-30
  0
LINE
  8
0
 10
-93
 20
-30
 11
-92.9763
 21
-29.624
  0
LINE
  8
0
 10
-92.9763
 20
-29.624
 11
-92.9057
 21
-29.2539
  0
LINE
  8
0
 10
-92.9057
 20
-29.2539
 11
-92.7893
 21
-28.8956
  0
LINE
  8
0
 10
-92.7893
 20
-28.8956
 11
-92.6289
 21
-28.5547
  0
LINE
  8
0
 10
-92.6289
 20
-28.5547
 11
-92.427
 21
-28.2366
  0
LINE
  8
0
 10
-92.427
 20
-28.2366
 11
-92.1869
 21
-27.9464
  0
LINE
  8
0
 10
-92.1869
 20
-27.9464
 11
-91.9123
 21
-27.6884
  0
LINE
  8
0
 10
-91.9123
 20
-27.6884
 11
-91.6075
 21
-27.467
  0
LINE
  8
0
 10
-91.6075
 20
-27.467
 11
-91.2773
 21
-27.2855
  0
LINE
  8
0
 10
-91.2773
 20
-27.2855
 11
-90.927
 21
-27.1468
  0
LINE
  8
0
 10
-90.927
 20
-27.1468
 11
-90.5621
 21
-27.0531
  0
LINE
  8
0
 10
-90.5621
 20
-27.0531
 11
-90.1884
 21
-27.0059
  0
LINE
  8
0
 10
-90.1884
 20
-27.0059
 11
-89.8116
 21
-27.0059
  0
LINE
  8
0
 10
-89.8116
 20
-27.0059
 11
-89.4379
 21
-27.0531
  0
LINE
  8
0
 10
-89.4379
 20
-27.0531
 11
-89.073
 21
-27.1468
  0
LINE
  8
0
 10
-89.073
 20
-27.1468
 11
-88.7227
 21
-27.2855
  0
LINE
  8
0
 10
-88.7227
 20
-27.2855
 11
-88.3925
 21
-27.467
  0
LINE
  8
0
 10
-88.3925
 20
-27.467
 11
-88.0877
 21
-27.6884
  0
LINE
  8
0
 10
-88.0877
 20
-27.6884
 11
-87.8131
 21
-27.9464
  0
LINE
  8
0
 10
-87.8131
 20
-27.9464
 11
-87.573
 21
-28.2366
  0
LINE
  8
0
 10
-87.573
 20
-28.2366
 11
-87.3711
 21
-28.5547
  0
LINE
  8
0
 10
-87.3711
 20
-28.5547
 11
-87.2107
 21
-28.8956
  0
LINE
  8
0
 10
-87.2107
 20
-28.8956
 11
-87.0943
 21
-29.2539
  0
LINE
  8
0
 10
-87.0943
 20
-29.2539
 11
-87.0237
 21
-29.624
  0
LINE
  8
0
 10
-87.0237
 20
-29.624
 11
-87
 21
-30
  0
LINE
  8
0
 10
-87
 20
-30
 11
-87.0237
 21
-30.376
  0
LINE
  8
0
 10
-87.0237
 20
-30.376
 11
-87.0943
 21
-30.7461
  0
LINE
  8
0
 10
-87.0943
 20
-30.7461
 11
-87.2107
 21
-31.1044
  0
LINE
  8
0
 10
-87.2107
 20
-31.1044
 11
-87.3711
 21
-31.4453
  0
LINE
  8
0
 10
-87.3711
 20
-31.4453
 11
-87.573
 21
-31.7634
  0
LINE
  8
0
 10
-87.573
 20
-31.7634
 11
-87.8131
 21
-32.0536
  0
LINE
  8
0
 10
-87.8131
 20
-32.0536
 11
-88.0877
 21
-32.3115
  0
LINE
  8
0
 10
-88.0877
 20
-32.3115
 11
-88.3925
 21
-32.533
  0
LINE
  8
0
 10
-88.3925
 20
-32.533
 11
-88.7227
 21
-32.7145
  0
LINE
  8
0
 10
-88.7227
 20
-32.7145
 11
-89.073
 21
-32.8532
  0
LINE
  8
0
 10
-89.073
 20
-32.8532
 11
-89.4379
 21
-32.9469
  0
LINE
  8
0
 10
-89.4379
 20
-32.9469
 11
-89.8116
 21
-32.9941
  0
LINE
  8
0
 10
-89.8116
 20
-32.9941
 11
-90.1884
 21
-32.9941
  0
ENDSEC
  0
SECTION
  2
OBJECTS
  0
DICTIONARY
  0
ENDSEC
  0
EOF
