  0
SECTION
  2
BLOCKS
  0
ENDSEC
  0
SECTION
  2
ENTITIES
  0
LINE
  8
0
 10
62.9369
 20
24.5886
 11
63.5451
 21
24.7447
  0
LINE
  8
0
 10
63.5451
 20
24.7447
 11
64.1289
 21
24.9759
  0
LINE
  8
0
 10
64.1289
 20
24.9759
 11
64.6791
 21
25.2784
  0
LINE
  8
0
 10
64.6791
 20
25.2784
 11
65.1871
 21
25.6474
  0
LINE
  8
0
 10
65.1871
 20
25.6474
 11
65.6448
 21
26.0773
  0
LINE
  8
0
 10
65.6448
 20
26.0773
 11
66.0451
 21
26.5611
  0
LINE
  8
0
 10
66.0451
 20
26.5611
 11
66.3815
 21
27.0912
  0
LINE
  8
0
 10
66.3815
 20
27.0912
 11
66.6489
 21
27.6594
  0
LINE
  8
0
 10
66.6489
 20
27.6594
 11
66.8429
 21
28.2566
  0
LINE
  8
0
 10
66.8429
 20
28.2566
 11
66.9606
 21
28.8733
  0
LINE
  8
0
 10
66.9606
 20
28.8733
 11
67
 21
29.5
  0
LINE
  8
0
 10
67
 20
29.5
 11
67
 21
48.5
  0
LINE
  8
0
 10
67
 20
48.5
 11
66.9606
 21
49.1267
  0
LINE
  8
0
 10
66.9606
 20
49.1267
 11
66.8429
 21
49.7434
  0
LINE
  8
0
 10
66.8429
 20
49.7434
 11
66.6489
 21
50.3406
  0
LINE
  8
0
 10
66.6489
 20
50.3406
 11
66.3815
 21
50.9088
  0
LINE
  8
0
 10
66.3815
 20
50.9088
 11
66.0451
 21
51.4389
  0
LINE
  8
0
 10
66.0451
 20
51.4389
 11
65.6448
 21
51.9227
  0
LINE
  8
0
 10
65.6448
 20
51.9227
 11
65.1871
 21
52.3526
  0
LINE
  8
0
 10
65.1871
 20
52.3526
 11
64.6791
 21
52.7216
  0
LINE
  8
0
 10
64.6791
 20
52.7216
 11
64.1289
 21
53.0241
  0
LINE
  8
0
 10
64.1289
 20
53.0241
 11
63.5451
 21
53.2553
  0
LINE
  8
0
 10
63.5451
 20
53.2553
 11
62.9369
 21
53.4114
  0
LINE
  8
0
 10
62.9369
 20
53.4114
 11
62.3139
 21
53.4901
  0
LINE
  8
0
 10
62.3139
 20
53.4901
 11
-62.3139
 21
53.4901
  0
LINE
  8
0
 10
-62.3139
 20
53.4901
 11
-62.9369
 21
53.4114
  0
LINE
  8
0
 10
-62.9369
 20
53.4114
 11
-63.5451
 21
53.2553
  0
LINE
  8
0
 10
-63.5451
 20
53.2553
 11
-64.1289
 21
53.0241
  0
LINE
  8
0
 10
-64.1289
 20
53.0241
 11
-64.6791
 21
52.7216
  0
LINE
  8
0
 10
-64.6791
 20
52.7216
 11
-65.1871
 21
52.3526
  0
LINE
  8
0
 10
-65.1871
 20
52.3526
 11
-65.6448
 21
51.9227
  0
LINE
  8
0
 10
-65.6448
 20
51.9227
 11
-66.0451
 21
51.4389
  0
LINE
  8
0
 10
-66.0451
 20
51.4389
 11
-66.3815
 21
50.9088
  0
LINE
  8
0
 10
-66.3815
 20
50.9088
 11
-66.6489
 21
50.3406
  0
LINE
  8
0
 10
-66.6489
 20
50.3406
 11
-66.8429
 21
49.7434
  0
LINE
  8
0
 10
-66.8429
 20
49.7434
 11
-66.9606
 21
49.1267
  0
LINE
  8
0
 10
-66.9606
 20
49.1267
 11
-67
 21
48.5
  0
LINE
  8
0
 10
-67
 20
48.5
 11
-67
 21
29.5
  0
LINE
  8
0
 10
-67
 20
29.5
 11
-66.9606
 21
28.8733
  0
LINE
  8
0
 10
-66.9606
 20
28.8733
 11
-66.8429
 21
28.2566
  0
LINE
  8
0
 10
-66.8429
 20
28.2566
 11
-66.6489
 21
27.6594
  0
LINE
  8
0
 10
-66.6489
 20
27.6594
 11
-66.3815
 21
27.0912
  0
LINE
  8
0
 10
-66.3815
 20
27.0912
 11
-66.0451
 21
26.5611
  0
LINE
  8
0
 10
-66.0451
 20
26.5611
 11
-65.6448
 21
26.0773
  0
LINE
  8
0
 10
-65.6448
 20
26.0773
 11
-65.1871
 21
25.6474
  0
LINE
  8
0
 10
-65.1871
 20
25.6474
 11
-64.6791
 21
25.2784
  0
LINE
  8
0
 10
-64.6791
 20
25.2784
 11
-64.1289
 21
24.9759
  0
LINE
  8
0
 10
-64.1289
 20
24.9759
 11
-63.5451
 21
24.7447
  0
LINE
  8
0
 10
-63.5451
 20
24.7447
 11
-62.9369
 21
24.5886
  0
LINE
  8
0
 10
-62.9369
 20
24.5886
 11
-62.3139
 21
24.5099
  0
LINE
  8
0
 10
-62.3139
 20
24.5099
 11
62.3139
 21
24.5099
  0
LINE
  8
0
 10
62.3139
 20
24.5099
 11
62.9369
 21
24.5886
  0
LINE
  8
0
 10
-60.1884
 20
28.5059
 11
-60.5621
 21
28.5531
  0
LINE
  8
0
 10
-60.5621
 20
28.5531
 11
-60.927
 21
28.6468
  0
LINE
  8
0
 10
-60.927
 20
28.6468
 11
-61.2773
 21
28.7855
  0
LINE
  8
0
 10
-61.2773
 20
28.7855
 11
-61.6075
 21
28.967
  0
LINE
  8
0
 10
-61.6075
 20
28.967
 11
-61.9123
 21
29.1885
  0
LINE
  8
0
 10
-61.9123
 20
29.1885
 11
-62.1869
 21
29.4464
  0
LINE
  8
0
 10
-62.1869
 20
29.4464
 11
-62.427
 21
29.7366
  0
LINE
  8
0
 10
-62.427
 20
29.7366
 11
-62.6289
 21
30.0547
  0
LINE
  8
0
 10
-62.6289
 20
30.0547
 11
-62.7893
 21
30.3956
  0
LINE
  8
0
 10
-62.7893
 20
30.3956
 11
-62.9057
 21
30.7539
  0
LINE
  8
0
 10
-62.9057
 20
30.7539
 11
-62.9763
 21
31.124
  0
LINE
  8
0
 10
-62.9763
 20
31.124
 11
-63
 21
31.5
  0
LINE
  8
0
 10
-63
 20
31.5
 11
-62.9763
 21
31.876
  0
LINE
  8
0
 10
-62.9763
 20
31.876
 11
-62.9057
 21
32.2461
  0
LINE
  8
0
 10
-62.9057
 20
32.2461
 11
-62.7893
 21
32.6044
  0
LINE
  8
0
 10
-62.7893
 20
32.6044
 11
-62.6289
 21
32.9453
  0
LINE
  8
0
 10
-62.6289
 20
32.9453
 11
-62.427
 21
33.2634
  0
LINE
  8
0
 10
-62.427
 20
33.2634
 11
-62.1869
 21
33.5536
  0
LINE
  8
0
 10
-62.1869
 20
33.5536
 11
-61.9123
 21
33.8116
  0
LINE
  8
0
 10
-61.9123
 20
33.8116
 11
-61.6075
 21
34.033
  0
LINE
  8
0
 10
-61.6075
 20
34.033
 11
-61.2773
 21
34.2145
  0
LINE
  8
0
 10
-61.2773
 20
34.2145
 11
-60.927
 21
34.3532
  0
LINE
  8
0
 10
-60.927
 20
34.3532
 11
-60.5621
 21
34.4469
  0
LINE
  8
0
 10
-60.5621
 20
34.4469
 11
-60.1884
 21
34.4941
  0
LINE
  8
0
 10
-60.1884
 20
34.4941
 11
-59.8116
 21
34.4941
  0
LINE
  8
0
 10
-59.8116
 20
34.4941
 11
-59.4379
 21
34.4469
  0
LINE
  8
0
 10
-59.4379
 20
34.4469
 11
-59.0729
 21
34.3532
  0
LINE
  8
0
 10
-59.0729
 20
34.3532
 11
-58.7908
 21
34.2415
  0
LINE
  8
0
 10
-58.7908
 20
34.2415
 11
-59.2978
 21
35.3188
  0
LINE
  8
0
 10
-59.2978
 20
35.3188
 11
-59.6858
 21
36.5131
  0
LINE
  8
0
 10
-59.6858
 20
36.5131
 11
-59.9211
 21
37.7467
  0
LINE
  8
0
 10
-59.9211
 20
37.7467
 11
-60
 21
39
  0
LINE
  8
0
 10
-60
 20
39
 11
-59.9211
 21
40.2533
  0
LINE
  8
0
 10
-59.9211
 20
40.2533
 11
-59.6858
 21
41.4869
  0
LINE
  8
0
 10
-59.6858
 20
41.4869
 11
-59.2978
 21
42.6812
  0
LINE
  8
0
 10
-59.2978
 20
42.6812
 11
-58.7908
 21
43.7585
  0
LINE
  8
0
 10
-58.7908
 20
43.7585
 11
-59.0729
 21
43.6468
  0
LINE
  8
0
 10
-59.0729
 20
43.6468
 11
-59.4379
 21
43.5531
  0
LINE
  8
0
 10
-59.4379
 20
43.5531
 11
-59.8116
 21
43.5059
  0
LINE
  8
0
 10
-59.8116
 20
43.5059
 11
-60.1884
 21
43.5059
  0
LINE
  8
0
 10
-60.1884
 20
43.5059
 11
-60.5621
 21
43.5531
  0
LINE
  8
0
 10
-60.5621
 20
43.5531
 11
-60.927
 21
43.6468
  0
LINE
  8
0
 10
-60.927
 20
43.6468
 11
-61.2773
 21
43.7855
  0
LINE
  8
0
 10
-61.2773
 20
43.7855
 11
-61.6075
 21
43.967
  0
LINE
  8
0
 10
-61.6075
 20
43.967
 11
-61.9123
 21
44.1884
  0
LINE
  8
0
 10
-61.9123
 20
44.1884
 11
-62.1869
 21
44.4464
  0
LINE
  8
0
 10
-62.1869
 20
44.4464
 11
-62.427
 21
44.7366
  0
LINE
  8
0
 10
-62.427
 20
44.7366
 11
-62.6289
 21
45.0547
  0
LINE
  8
0
 10
-62.6289
 20
45.0547
 11
-62.7893
 21
45.3956
  0
LINE
  8
0
 10
-62.7893
 20
45.3956
 11
-62.9057
 21
45.7539
  0
LINE
  8
0
 10
-62.9057
 20
45.7539
 11
-62.9763
 21
46.124
  0
LINE
  8
0
 10
-62.9763
 20
46.124
 11
-63
 21
46.5
  0
LINE
  8
0
 10
-63
 20
46.5
 11
-62.9763
 21
46.876
  0
LINE
  8
0
 10
-62.9763
 20
46.876
 11
-62.9057
 21
47.2461
  0
LINE
  8
0
 10
-62.9057
 20
47.2461
 11
-62.7893
 21
47.6044
  0
LINE
  8
0
 10
-62.7893
 20
47.6044
 11
-62.6289
 21
47.9453
  0
LINE
  8
0
 10
-62.6289
 20
47.9453
 11
-62.427
 21
48.2634
  0
LINE
  8
0
 10
-62.427
 20
48.2634
 11
-62.1869
 21
48.5536
  0
LINE
  8
0
 10
-62.1869
 20
48.5536
 11
-61.9123
 21
48.8115
  0
LINE
  8
0
 10
-61.9123
 20
48.8115
 11
-61.6075
 21
49.033
  0
LINE
  8
0
 10
-61.6075
 20
49.033
 11
-61.2773
 21
49.2145
  0
LINE
  8
0
 10
-61.2773
 20
49.2145
 11
-60.927
 21
49.3532
  0
LINE
  8
0
 10
-60.927
 20
49.3532
 11
-60.5621
 21
49.4469
  0
LINE
  8
0
 10
-60.5621
 20
49.4469
 11
-60.1884
 21
49.4941
  0
LINE
  8
0
 10
-60.1884
 20
49.4941
 11
-59.8116
 21
49.4941
  0
LINE
  8
0
 10
-59.8116
 20
49.4941
 11
-59.4379
 21
49.4469
  0
LINE
  8
0
 10
-59.4379
 20
49.4469
 11
-59.0729
 21
49.3532
  0
LINE
  8
0
 10
-59.0729
 20
49.3532
 11
-58.7227
 21
49.2145
  0
LINE
  8
0
 10
-58.7227
 20
49.2145
 11
-58.3925
 21
49.033
  0
LINE
  8
0
 10
-58.3925
 20
49.033
 11
-58.0877
 21
48.8115
  0
LINE
  8
0
 10
-58.0877
 20
48.8115
 11
-57.8131
 21
48.5536
  0
LINE
  8
0
 10
-57.8131
 20
48.5536
 11
-57.5729
 21
48.2634
  0
LINE
  8
0
 10
-57.5729
 20
48.2634
 11
-57.3711
 21
47.9453
  0
LINE
  8
0
 10
-57.3711
 20
47.9453
 11
-57.2107
 21
47.6044
  0
LINE
  8
0
 10
-57.2107
 20
47.6044
 11
-57.0942
 21
47.2461
  0
LINE
  8
0
 10
-57.0942
 20
47.2461
 11
-57.0237
 21
46.876
  0
LINE
  8
0
 10
-57.0237
 20
46.876
 11
-57
 21
46.5
  0
LINE
  8
0
 10
-57
 20
46.5
 11
-57.0237
 21
46.124
  0
LINE
  8
0
 10
-57.0237
 20
46.124
 11
-57.0303
 21
46.089
  0
LINE
  8
0
 10
-57.0303
 20
46.089
 11
-56.3742
 21
46.7051
  0
LINE
  8
0
 10
-56.3742
 20
46.7051
 11
-55.3583
 21
47.4433
  0
LINE
  8
0
 10
-55.3583
 20
47.4433
 11
-54.2578
 21
48.0483
  0
LINE
  8
0
 10
-54.2578
 20
48.0483
 11
-53.0902
 21
48.5106
  0
LINE
  8
0
 10
-53.0902
 20
48.5106
 11
-51.8738
 21
48.8229
  0
LINE
  8
0
 10
-51.8738
 20
48.8229
 11
-50.6279
 21
48.9803
  0
LINE
  8
0
 10
-50.6279
 20
48.9803
 11
-49.3721
 21
48.9803
  0
LINE
  8
0
 10
-49.3721
 20
48.9803
 11
-48.1262
 21
48.8229
  0
LINE
  8
0
 10
-48.1262
 20
48.8229
 11
-46.9098
 21
48.5106
  0
LINE
  8
0
 10
-46.9098
 20
48.5106
 11
-45.7422
 21
48.0483
  0
LINE
  8
0
 10
-45.7422
 20
48.0483
 11
-44.6417
 21
47.4433
  0
LINE
  8
0
 10
-44.6417
 20
47.4433
 11
-43.6257
 21
46.7051
  0
LINE
  8
0
 10
-43.6257
 20
46.7051
 11
-42.7103
 21
45.8455
  0
LINE
  8
0
 10
-42.7103
 20
45.8455
 11
-41.9098
 21
44.8778
  0
LINE
  8
0
 10
-41.9098
 20
44.8778
 11
-41.2369
 21
43.8175
  0
LINE
  8
0
 10
-41.2369
 20
43.8175
 11
-40.7022
 21
42.6812
  0
LINE
  8
0
 10
-40.7022
 20
42.6812
 11
-40.3142
 21
41.4869
  0
LINE
  8
0
 10
-40.3142
 20
41.4869
 11
-40.0788
 21
40.2533
  0
LINE
  8
0
 10
-40.0788
 20
40.2533
 11
-40
 21
39
  0
LINE
  8
0
 10
-40
 20
39
 11
-40.0788
 21
37.7467
  0
LINE
  8
0
 10
-40.0788
 20
37.7467
 11
-40.3142
 21
36.5131
  0
LINE
  8
0
 10
-40.3142
 20
36.5131
 11
-40.7022
 21
35.3188
  0
LINE
  8
0
 10
-40.7022
 20
35.3188
 11
-41.2369
 21
34.1825
  0
LINE
  8
0
 10
-41.2369
 20
34.1825
 11
-41.9098
 21
33.1222
  0
LINE
  8
0
 10
-41.9098
 20
33.1222
 11
-42.7103
 21
32.1545
  0
LINE
  8
0
 10
-42.7103
 20
32.1545
 11
-43.6257
 21
31.2949
  0
LINE
  8
0
 10
-43.6257
 20
31.2949
 11
-44.6417
 21
30.5567
  0
LINE
  8
0
 10
-44.6417
 20
30.5567
 11
-45.7422
 21
29.9517
  0
LINE
  8
0
 10
-45.7422
 20
29.9517
 11
-46.9098
 21
29.4894
  0
LINE
  8
0
 10
-46.9098
 20
29.4894
 11
-48.1262
 21
29.1771
  0
LINE
  8
0
 10
-48.1262
 20
29.1771
 11
-49.3721
 21
29.0197
  0
LINE
  8
0
 10
-49.3721
 20
29.0197
 11
-50.6279
 21
29.0197
  0
LINE
  8
0
 10
-50.6279
 20
29.0197
 11
-51.8738
 21
29.1771
  0
LINE
  8
0
 10
-51.8738
 20
29.1771
 11
-53.0902
 21
29.4894
  0
LINE
  8
0
 10
-53.0902
 20
29.4894
 11
-54.2578
 21
29.9517
  0
LINE
  8
0
 10
-54.2578
 20
29.9517
 11
-55.3583
 21
30.5567
  0
LINE
  8
0
 10
-55.3583
 20
30.5567
 11
-56.3742
 21
31.2949
  0
LINE
  8
0
 10
-56.3742
 20
31.2949
 11
-57.0303
 21
31.911
  0
LINE
  8
0
 10
-57.0303
 20
31.911
 11
-57.0237
 21
31.876
  0
LINE
  8
0
 10
-57.0237
 20
31.876
 11
-57
 21
31.5
  0
LINE
  8
0
 10
-57
 20
31.5
 11
-57.0237
 21
31.124
  0
LINE
  8
0
 10
-57.0237
 20
31.124
 11
-57.0942
 21
30.7539
  0
LINE
  8
0
 10
-57.0942
 20
30.7539
 11
-57.2107
 21
30.3956
  0
LINE
  8
0
 10
-57.2107
 20
30.3956
 11
-57.3711
 21
30.0547
  0
LINE
  8
0
 10
-57.3711
 20
30.0547
 11
-57.5729
 21
29.7366
  0
LINE
  8
0
 10
-57.5729
 20
29.7366
 11
-57.8131
 21
29.4464
  0
LINE
  8
0
 10
-57.8131
 20
29.4464
 11
-58.0877
 21
29.1885
  0
LINE
  8
0
 10
-58.0877
 20
29.1885
 11
-58.3925
 21
28.967
  0
LINE
  8
0
 10
-58.3925
 20
28.967
 11
-58.7227
 21
28.7855
  0
LINE
  8
0
 10
-58.7227
 20
28.7855
 11
-59.0729
 21
28.6468
  0
LINE
  8
0
 10
-59.0729
 20
28.6468
 11
-59.4379
 21
28.5531
  0
LINE
  8
0
 10
-59.4379
 20
28.5531
 11
-59.8116
 21
28.5059
  0
LINE
  8
0
 10
-59.8116
 20
28.5059
 11
-60.1884
 21
28.5059
  0
LINE
  8
0
 10
59.8116
 20
28.5059
 11
59.4379
 21
28.5531
  0
LINE
  8
0
 10
59.4379
 20
28.5531
 11
59.0729
 21
28.6468
  0
LINE
  8
0
 10
59.0729
 20
28.6468
 11
58.7227
 21
28.7855
  0
LINE
  8
0
 10
58.7227
 20
28.7855
 11
58.3925
 21
28.967
  0
LINE
  8
0
 10
58.3925
 20
28.967
 11
58.0877
 21
29.1885
  0
LINE
  8
0
 10
58.0877
 20
29.1885
 11
57.8131
 21
29.4464
  0
LINE
  8
0
 10
57.8131
 20
29.4464
 11
57.5729
 21
29.7366
  0
LINE
  8
0
 10
57.5729
 20
29.7366
 11
57.3711
 21
30.0547
  0
LINE
  8
0
 10
57.3711
 20
30.0547
 11
57.2107
 21
30.3956
  0
LINE
  8
0
 10
57.2107
 20
30.3956
 11
57.0942
 21
30.7539
  0
LINE
  8
0
 10
57.0942
 20
30.7539
 11
57.0237
 21
31.124
  0
LINE
  8
0
 10
57.0237
 20
31.124
 11
57
 21
31.5
  0
LINE
  8
0
 10
57
 20
31.5
 11
57.0237
 21
31.876
  0
LINE
  8
0
 10
57.0237
 20
31.876
 11
57.0303
 21
31.911
  0
LINE
  8
0
 10
57.0303
 20
31.911
 11
56.3742
 21
31.2949
  0
LINE
  8
0
 10
56.3742
 20
31.2949
 11
55.3583
 21
30.5567
  0
LINE
  8
0
 10
55.3583
 20
30.5567
 11
54.2578
 21
29.9517
  0
LINE
  8
0
 10
54.2578
 20
29.9517
 11
53.0902
 21
29.4894
  0
LINE
  8
0
 10
53.0902
 20
29.4894
 11
51.8738
 21
29.1771
  0
LINE
  8
0
 10
51.8738
 20
29.1771
 11
50.6279
 21
29.0197
  0
LINE
  8
0
 10
50.6279
 20
29.0197
 11
49.3721
 21
29.0197
  0
LINE
  8
0
 10
49.3721
 20
29.0197
 11
48.1262
 21
29.1771
  0
LINE
  8
0
 10
48.1262
 20
29.1771
 11
46.9098
 21
29.4894
  0
LINE
  8
0
 10
46.9098
 20
29.4894
 11
45.7422
 21
29.9517
  0
LINE
  8
0
 10
45.7422
 20
29.9517
 11
44.6417
 21
30.5567
  0
LINE
  8
0
 10
44.6417
 20
30.5567
 11
43.6257
 21
31.2949
  0
LINE
  8
0
 10
43.6257
 20
31.2949
 11
42.7103
 21
32.1545
  0
LINE
  8
0
 10
42.7103
 20
32.1545
 11
41.9098
 21
33.1222
  0
LINE
  8
0
 10
41.9098
 20
33.1222
 11
41.2369
 21
34.1825
  0
LINE
  8
0
 10
41.2369
 20
34.1825
 11
40.7022
 21
35.3188
  0
LINE
  8
0
 10
40.7022
 20
35.3188
 11
40.3142
 21
36.5131
  0
LINE
  8
0
 10
40.3142
 20
36.5131
 11
40.0788
 21
37.7467
  0
LINE
  8
0
 10
40.0788
 20
37.7467
 11
40
 21
39
  0
LINE
  8
0
 10
40
 20
39
 11
40.0788
 21
40.2533
  0
LINE
  8
0
 10
40.0788
 20
40.2533
 11
40.3142
 21
41.4869
  0
LINE
  8
0
 10
40.3142
 20
41.4869
 11
40.7022
 21
42.6812
  0
LINE
  8
0
 10
40.7022
 20
42.6812
 11
41.2369
 21
43.8175
  0
LINE
  8
0
 10
41.2369
 20
43.8175
 11
41.9098
 21
44.8778
  0
LINE
  8
0
 10
41.9098
 20
44.8778
 11
42.7103
 21
45.8455
  0
LINE
  8
0
 10
42.7103
 20
45.8455
 11
43.6257
 21
46.7051
  0
LINE
  8
0
 10
43.6257
 20
46.7051
 11
44.6417
 21
47.4433
  0
LINE
  8
0
 10
44.6417
 20
47.4433
 11
45.7422
 21
48.0483
  0
LINE
  8
0
 10
45.7422
 20
48.0483
 11
46.9098
 21
48.5106
  0
LINE
  8
0
 10
46.9098
 20
48.5106
 11
48.1262
 21
48.8229
  0
LINE
  8
0
 10
48.1262
 20
48.8229
 11
49.3721
 21
48.9803
  0
LINE
  8
0
 10
49.3721
 20
48.9803
 11
50.6279
 21
48.9803
  0
LINE
  8
0
 10
50.6279
 20
48.9803
 11
51.8738
 21
48.8229
  0
LINE
  8
0
 10
51.8738
 20
48.8229
 11
53.0902
 21
48.5106
  0
LINE
  8
0
 10
53.0902
 20
48.5106
 11
54.2578
 21
48.0483
  0
LINE
  8
0
 10
54.2578
 20
48.0483
 11
55.3583
 21
47.4433
  0
LINE
  8
0
 10
55.3583
 20
47.4433
 11
56.3742
 21
46.7051
  0
LINE
  8
0
 10
56.3742
 20
46.7051
 11
57.0303
 21
46.089
  0
LINE
  8
0
 10
57.0303
 20
46.089
 11
57.0237
 21
46.124
  0
LINE
  8
0
 10
57.0237
 20
46.124
 11
57
 21
46.5
  0
LINE
  8
0
 10
57
 20
46.5
 11
57.0237
 21
46.876
  0
LINE
  8
0
 10
57.0237
 20
46.876
 11
57.0942
 21
47.2461
  0
LINE
  8
0
 10
57.0942
 20
47.2461
 11
57.2107
 21
47.6044
  0
LINE
  8
0
 10
57.2107
 20
47.6044
 11
57.3711
 21
47.9453
  0
LINE
  8
0
 10
57.3711
 20
47.9453
 11
57.5729
 21
48.2634
  0
LINE
  8
0
 10
57.5729
 20
48.2634
 11
57.8131
 21
48.5536
  0
LINE
  8
0
 10
57.8131
 20
48.5536
 11
58.0877
 21
48.8115
  0
LINE
  8
0
 10
58.0877
 20
48.8115
 11
58.3925
 21
49.033
  0
LINE
  8
0
 10
58.3925
 20
49.033
 11
58.7227
 21
49.2145
  0
LINE
  8
0
 10
58.7227
 20
49.2145
 11
59.0729
 21
49.3532
  0
LINE
  8
0
 10
59.0729
 20
49.3532
 11
59.4379
 21
49.4469
  0
LINE
  8
0
 10
59.4379
 20
49.4469
 11
59.8116
 21
49.4941
  0
LINE
  8
0
 10
59.8116
 20
49.4941
 11
60.1884
 21
49.4941
  0
LINE
  8
0
 10
60.1884
 20
49.4941
 11
60.5621
 21
49.4469
  0
LINE
  8
0
 10
60.5621
 20
49.4469
 11
60.927
 21
49.3532
  0
LINE
  8
0
 10
60.927
 20
49.3532
 11
61.2773
 21
49.2145
  0
LINE
  8
0
 10
61.2773
 20
49.2145
 11
61.6075
 21
49.033
  0
LINE
  8
0
 10
61.6075
 20
49.033
 11
61.9123
 21
48.8115
  0
LINE
  8
0
 10
61.9123
 20
48.8115
 11
62.1869
 21
48.5536
  0
LINE
  8
0
 10
62.1869
 20
48.5536
 11
62.427
 21
48.2634
  0
LINE
  8
0
 10
62.427
 20
48.2634
 11
62.6289
 21
47.9453
  0
LINE
  8
0
 10
62.6289
 20
47.9453
 11
62.7893
 21
47.6044
  0
LINE
  8
0
 10
62.7893
 20
47.6044
 11
62.9057
 21
47.2461
  0
LINE
  8
0
 10
62.9057
 20
47.2461
 11
62.9763
 21
46.876
  0
LINE
  8
0
 10
62.9763
 20
46.876
 11
63
 21
46.5
  0
LINE
  8
0
 10
63
 20
46.5
 11
62.9763
 21
46.124
  0
LINE
  8
0
 10
62.9763
 20
46.124
 11
62.9057
 21
45.7539
  0
LINE
  8
0
 10
62.9057
 20
45.7539
 11
62.7893
 21
45.3956
  0
LINE
  8
0
 10
62.7893
 20
45.3956
 11
62.6289
 21
45.0547
  0
LINE
  8
0
 10
62.6289
 20
45.0547
 11
62.427
 21
44.7366
  0
LINE
  8
0
 10
62.427
 20
44.7366
 11
62.1869
 21
44.4464
  0
LINE
  8
0
 10
62.1869
 20
44.4464
 11
61.9123
 21
44.1884
  0
LINE
  8
0
 10
61.9123
 20
44.1884
 11
61.6075
 21
43.967
  0
LINE
  8
0
 10
61.6075
 20
43.967
 11
61.2773
 21
43.7855
  0
LINE
  8
0
 10
61.2773
 20
43.7855
 11
60.927
 21
43.6468
  0
LINE
  8
0
 10
60.927
 20
43.6468
 11
60.5621
 21
43.5531
  0
LINE
  8
0
 10
60.5621
 20
43.5531
 11
60.1884
 21
43.5059
  0
LINE
  8
0
 10
60.1884
 20
43.5059
 11
59.8116
 21
43.5059
  0
LINE
  8
0
 10
59.8116
 20
43.5059
 11
59.4379
 21
43.5531
  0
LINE
  8
0
 10
59.4379
 20
43.5531
 11
59.0729
 21
43.6468
  0
LINE
  8
0
 10
59.0729
 20
43.6468
 11
58.7908
 21
43.7585
  0
LINE
  8
0
 10
58.7908
 20
43.7585
 11
59.2978
 21
42.6812
  0
LINE
  8
0
 10
59.2978
 20
42.6812
 11
59.6858
 21
41.4869
  0
LINE
  8
0
 10
59.6858
 20
41.4869
 11
59.9211
 21
40.2533
  0
LINE
  8
0
 10
59.9211
 20
40.2533
 11
60
 21
39
  0
LINE
  8
0
 10
60
 20
39
 11
59.9211
 21
37.7467
  0
LINE
  8
0
 10
59.9211
 20
37.7467
 11
59.6858
 21
36.5131
  0
LINE
  8
0
 10
59.6858
 20
36.5131
 11
59.2978
 21
35.3188
  0
LINE
  8
0
 10
59.2978
 20
35.3188
 11
58.7908
 21
34.2415
  0
LINE
  8
0
 10
58.7908
 20
34.2415
 11
59.0729
 21
34.3532
  0
LINE
  8
0
 10
59.0729
 20
34.3532
 11
59.4379
 21
34.4469
  0
LINE
  8
0
 10
59.4379
 20
34.4469
 11
59.8116
 21
34.4941
  0
LINE
  8
0
 10
59.8116
 20
34.4941
 11
60.1884
 21
34.4941
  0
LINE
  8
0
 10
60.1884
 20
34.4941
 11
60.5621
 21
34.4469
  0
LINE
  8
0
 10
60.5621
 20
34.4469
 11
60.927
 21
34.3532
  0
LINE
  8
0
 10
60.927
 20
34.3532
 11
61.2773
 21
34.2145
  0
LINE
  8
0
 10
61.2773
 20
34.2145
 11
61.6075
 21
34.033
  0
LINE
  8
0
 10
61.6075
 20
34.033
 11
61.9123
 21
33.8116
  0
LINE
  8
0
 10
61.9123
 20
33.8116
 11
62.1869
 21
33.5536
  0
LINE
  8
0
 10
62.1869
 20
33.5536
 11
62.427
 21
33.2634
  0
LINE
  8
0
 10
62.427
 20
33.2634
 11
62.6289
 21
32.9453
  0
LINE
  8
0
 10
62.6289
 20
32.9453
 11
62.7893
 21
32.6044
  0
LINE
  8
0
 10
62.7893
 20
32.6044
 11
62.9057
 21
32.2461
  0
LINE
  8
0
 10
62.9057
 20
32.2461
 11
62.9763
 21
31.876
  0
LINE
  8
0
 10
62.9763
 20
31.876
 11
63
 21
31.5
  0
LINE
  8
0
 10
63
 20
31.5
 11
62.9763
 21
31.124
  0
LINE
  8
0
 10
62.9763
 20
31.124
 11
62.9057
 21
30.7539
  0
LINE
  8
0
 10
62.9057
 20
30.7539
 11
62.7893
 21
30.3956
  0
LINE
  8
0
 10
62.7893
 20
30.3956
 11
62.6289
 21
30.0547
  0
LINE
  8
0
 10
62.6289
 20
30.0547
 11
62.427
 21
29.7366
  0
LINE
  8
0
 10
62.427
 20
29.7366
 11
62.1869
 21
29.4464
  0
LINE
  8
0
 10
62.1869
 20
29.4464
 11
61.9123
 21
29.1885
  0
LINE
  8
0
 10
61.9123
 20
29.1885
 11
61.6075
 21
28.967
  0
LINE
  8
0
 10
61.6075
 20
28.967
 11
61.2773
 21
28.7855
  0
LINE
  8
0
 10
61.2773
 20
28.7855
 11
60.927
 21
28.6468
  0
LINE
  8
0
 10
60.927
 20
28.6468
 11
60.5621
 21
28.5531
  0
LINE
  8
0
 10
60.5621
 20
28.5531
 11
60.1884
 21
28.5059
  0
LINE
  8
0
 10
60.1884
 20
28.5059
 11
59.8116
 21
28.5059
  0
LINE
  8
0
 10
24.3721
 20
29.0197
 11
23.1262
 21
29.1771
  0
LINE
  8
0
 10
23.1262
 20
29.1771
 11
21.9098
 21
29.4894
  0
LINE
  8
0
 10
21.9098
 20
29.4894
 11
20.7422
 21
29.9517
  0
LINE
  8
0
 10
20.7422
 20
29.9517
 11
19.6417
 21
30.5567
  0
LINE
  8
0
 10
19.6417
 20
30.5567
 11
18.6257
 21
31.2949
  0
LINE
  8
0
 10
18.6257
 20
31.2949
 11
17.7103
 21
32.1545
  0
LINE
  8
0
 10
17.7103
 20
32.1545
 11
16.9098
 21
33.1222
  0
LINE
  8
0
 10
16.9098
 20
33.1222
 11
16.2369
 21
34.1825
  0
LINE
  8
0
 10
16.2369
 20
34.1825
 11
15.7022
 21
35.3188
  0
LINE
  8
0
 10
15.7022
 20
35.3188
 11
15.3142
 21
36.5131
  0
LINE
  8
0
 10
15.3142
 20
36.5131
 11
15.0788
 21
37.7467
  0
LINE
  8
0
 10
15.0788
 20
37.7467
 11
15
 21
39
  0
LINE
  8
0
 10
15
 20
39
 11
15.0788
 21
40.2533
  0
LINE
  8
0
 10
15.0788
 20
40.2533
 11
15.3142
 21
41.4869
  0
LINE
  8
0
 10
15.3142
 20
41.4869
 11
15.7022
 21
42.6812
  0
LINE
  8
0
 10
15.7022
 20
42.6812
 11
16.2369
 21
43.8175
  0
LINE
  8
0
 10
16.2369
 20
43.8175
 11
16.9098
 21
44.8778
  0
LINE
  8
0
 10
16.9098
 20
44.8778
 11
17.7103
 21
45.8455
  0
LINE
  8
0
 10
17.7103
 20
45.8455
 11
18.6257
 21
46.7051
  0
LINE
  8
0
 10
18.6257
 20
46.7051
 11
19.6417
 21
47.4433
  0
LINE
  8
0
 10
19.6417
 20
47.4433
 11
20.7422
 21
48.0483
  0
LINE
  8
0
 10
20.7422
 20
48.0483
 11
21.9098
 21
48.5106
  0
LINE
  8
0
 10
21.9098
 20
48.5106
 11
23.1262
 21
48.8229
  0
LINE
  8
0
 10
23.1262
 20
48.8229
 11
24.3721
 21
48.9803
  0
LINE
  8
0
 10
24.3721
 20
48.9803
 11
25.6279
 21
48.9803
  0
LINE
  8
0
 10
25.6279
 20
48.9803
 11
26.8738
 21
48.8229
  0
LINE
  8
0
 10
26.8738
 20
48.8229
 11
28.0902
 21
48.5106
  0
LINE
  8
0
 10
28.0902
 20
48.5106
 11
29.2578
 21
48.0483
  0
LINE
  8
0
 10
29.2578
 20
48.0483
 11
30.3583
 21
47.4433
  0
LINE
  8
0
 10
30.3583
 20
47.4433
 11
31.3742
 21
46.7051
  0
LINE
  8
0
 10
31.3742
 20
46.7051
 11
32.2897
 21
45.8455
  0
LINE
  8
0
 10
32.2897
 20
45.8455
 11
33.0902
 21
44.8778
  0
LINE
  8
0
 10
33.0902
 20
44.8778
 11
33.7631
 21
43.8175
  0
LINE
  8
0
 10
33.7631
 20
43.8175
 11
34.2978
 21
42.6812
  0
LINE
  8
0
 10
34.2978
 20
42.6812
 11
34.6858
 21
41.4869
  0
LINE
  8
0
 10
34.6858
 20
41.4869
 11
34.9211
 21
40.2533
  0
LINE
  8
0
 10
34.9211
 20
40.2533
 11
35
 21
39
  0
LINE
  8
0
 10
35
 20
39
 11
34.9211
 21
37.7467
  0
LINE
  8
0
 10
34.9211
 20
37.7467
 11
34.6858
 21
36.5131
  0
LINE
  8
0
 10
34.6858
 20
36.5131
 11
34.2978
 21
35.3188
  0
LINE
  8
0
 10
34.2978
 20
35.3188
 11
33.7631
 21
34.1825
  0
LINE
  8
0
 10
33.7631
 20
34.1825
 11
33.0902
 21
33.1222
  0
LINE
  8
0
 10
33.0902
 20
33.1222
 11
32.2897
 21
32.1545
  0
LINE
  8
0
 10
32.2897
 20
32.1545
 11
31.3742
 21
31.2949
  0
LINE
  8
0
 10
31.3742
 20
31.2949
 11
30.3583
 21
30.5567
  0
LINE
  8
0
 10
30.3583
 20
30.5567
 11
29.2578
 21
29.9517
  0
LINE
  8
0
 10
29.2578
 20
29.9517
 11
28.0902
 21
29.4894
  0
LINE
  8
0
 10
28.0902
 20
29.4894
 11
26.8738
 21
29.1771
  0
LINE
  8
0
 10
26.8738
 20
29.1771
 11
25.6279
 21
29.0197
  0
LINE
  8
0
 10
25.6279
 20
29.0197
 11
24.3721
 21
29.0197
  0
LINE
  8
0
 10
-25.6279
 20
29.0197
 11
-26.8738
 21
29.1771
  0
LINE
  8
0
 10
-26.8738
 20
29.1771
 11
-28.0902
 21
29.4894
  0
LINE
  8
0
 10
-28.0902
 20
29.4894
 11
-29.2578
 21
29.9517
  0
LINE
  8
0
 10
-29.2578
 20
29.9517
 11
-30.3583
 21
30.5567
  0
LINE
  8
0
 10
-30.3583
 20
30.5567
 11
-31.3742
 21
31.2949
  0
LINE
  8
0
 10
-31.3742
 20
31.2949
 11
-32.2897
 21
32.1545
  0
LINE
  8
0
 10
-32.2897
 20
32.1545
 11
-33.0902
 21
33.1222
  0
LINE
  8
0
 10
-33.0902
 20
33.1222
 11
-33.7631
 21
34.1825
  0
LINE
  8
0
 10
-33.7631
 20
34.1825
 11
-34.2978
 21
35.3188
  0
LINE
  8
0
 10
-34.2978
 20
35.3188
 11
-34.6858
 21
36.5131
  0
LINE
  8
0
 10
-34.6858
 20
36.5131
 11
-34.9211
 21
37.7467
  0
LINE
  8
0
 10
-34.9211
 20
37.7467
 11
-35
 21
39
  0
LINE
  8
0
 10
-35
 20
39
 11
-34.9211
 21
40.2533
  0
LINE
  8
0
 10
-34.9211
 20
40.2533
 11
-34.6858
 21
41.4869
  0
LINE
  8
0
 10
-34.6858
 20
41.4869
 11
-34.2978
 21
42.6812
  0
LINE
  8
0
 10
-34.2978
 20
42.6812
 11
-33.7631
 21
43.8175
  0
LINE
  8
0
 10
-33.7631
 20
43.8175
 11
-33.0902
 21
44.8778
  0
LINE
  8
0
 10
-33.0902
 20
44.8778
 11
-32.2897
 21
45.8455
  0
LINE
  8
0
 10
-32.2897
 20
45.8455
 11
-31.3742
 21
46.7051
  0
LINE
  8
0
 10
-31.3742
 20
46.7051
 11
-30.3583
 21
47.4433
  0
LINE
  8
0
 10
-30.3583
 20
47.4433
 11
-29.2578
 21
48.0483
  0
LINE
  8
0
 10
-29.2578
 20
48.0483
 11
-28.0902
 21
48.5106
  0
LINE
  8
0
 10
-28.0902
 20
48.5106
 11
-26.8738
 21
48.8229
  0
LINE
  8
0
 10
-26.8738
 20
48.8229
 11
-25.6279
 21
48.9803
  0
LINE
  8
0
 10
-25.6279
 20
48.9803
 11
-24.3721
 21
48.9803
  0
LINE
  8
0
 10
-24.3721
 20
48.9803
 11
-23.1262
 21
48.8229
  0
LINE
  8
0
 10
-23.1262
 20
48.8229
 11
-21.9098
 21
48.5106
  0
LINE
  8
0
 10
-21.9098
 20
48.5106
 11
-20.7422
 21
48.0483
  0
LINE
  8
0
 10
-20.7422
 20
48.0483
 11
-19.6417
 21
47.4433
  0
LINE
  8
0
 10
-19.6417
 20
47.4433
 11
-18.6257
 21
46.7051
  0
LINE
  8
0
 10
-18.6257
 20
46.7051
 11
-17.7103
 21
45.8455
  0
LINE
  8
0
 10
-17.7103
 20
45.8455
 11
-16.9098
 21
44.8778
  0
LINE
  8
0
 10
-16.9098
 20
44.8778
 11
-16.2369
 21
43.8175
  0
LINE
  8
0
 10
-16.2369
 20
43.8175
 11
-15.7022
 21
42.6812
  0
LINE
  8
0
 10
-15.7022
 20
42.6812
 11
-15.3142
 21
41.4869
  0
LINE
  8
0
 10
-15.3142
 20
41.4869
 11
-15.0788
 21
40.2533
  0
LINE
  8
0
 10
-15.0788
 20
40.2533
 11
-15
 21
39
  0
LINE
  8
0
 10
-15
 20
39
 11
-15.0788
 21
37.7467
  0
LINE
  8
0
 10
-15.0788
 20
37.7467
 11
-15.3142
 21
36.5131
  0
LINE
  8
0
 10
-15.3142
 20
36.5131
 11
-15.7022
 21
35.3188
  0
LINE
  8
0
 10
-15.7022
 20
35.3188
 11
-16.2369
 21
34.1825
  0
LINE
  8
0
 10
-16.2369
 20
34.1825
 11
-16.9098
 21
33.1222
  0
LINE
  8
0
 10
-16.9098
 20
33.1222
 11
-17.7103
 21
32.1545
  0
LINE
  8
0
 10
-17.7103
 20
32.1545
 11
-18.6257
 21
31.2949
  0
LINE
  8
0
 10
-18.6257
 20
31.2949
 11
-19.6417
 21
30.5567
  0
LINE
  8
0
 10
-19.6417
 20
30.5567
 11
-20.7422
 21
29.9517
  0
LINE
  8
0
 10
-20.7422
 20
29.9517
 11
-21.9098
 21
29.4894
  0
LINE
  8
0
 10
-21.9098
 20
29.4894
 11
-23.1262
 21
29.1771
  0
LINE
  8
0
 10
-23.1262
 20
29.1771
 11
-24.3721
 21
29.0197
  0
LINE
  8
0
 10
-24.3721
 20
29.0197
 11
-25.6279
 21
29.0197
  0
LINE
  8
0
 10
-0.627899
 20
29.0197
 11
-1.87381
 21
29.1771
  0
LINE
  8
0
 10
-1.87381
 20
29.1771
 11
-3.09016
 21
29.4894
  0
LINE
  8
0
 10
-3.09016
 20
29.4894
 11
-4.25778
 21
29.9517
  0
LINE
  8
0
 10
-4.25778
 20
29.9517
 11
-5.35826
 21
30.5567
  0
LINE
  8
0
 10
-5.35826
 20
30.5567
 11
-6.37424
 21
31.2949
  0
LINE
  8
0
 10
-6.37424
 20
31.2949
 11
-7.28967
 21
32.1545
  0
LINE
  8
0
 10
-7.28967
 20
32.1545
 11
-8.09016
 21
33.1222
  0
LINE
  8
0
 10
-8.09016
 20
33.1222
 11
-8.76306
 21
34.1825
  0
LINE
  8
0
 10
-8.76306
 20
34.1825
 11
-9.29776
 21
35.3188
  0
LINE
  8
0
 10
-9.29776
 20
35.3188
 11
-9.68582
 21
36.5131
  0
LINE
  8
0
 10
-9.68582
 20
36.5131
 11
-9.92114
 21
37.7467
  0
LINE
  8
0
 10
-9.92114
 20
37.7467
 11
-10
 21
39
  0
LINE
  8
0
 10
-10
 20
39
 11
-9.92114
 21
40.2533
  0
LINE
  8
0
 10
-9.92114
 20
40.2533
 11
-9.68582
 21
41.4869
  0
LINE
  8
0
 10
-9.68582
 20
41.4869
 11
-9.29776
 21
42.6812
  0
LINE
  8
0
 10
-9.29776
 20
42.6812
 11
-8.76306
 21
43.8175
  0
LINE
  8
0
 10
-8.76306
 20
43.8175
 11
-8.09016
 21
44.8778
  0
LINE
  8
0
 10
-8.09016
 20
44.8778
 11
-7.28967
 21
45.8455
  0
LINE
  8
0
 10
-7.28967
 20
45.8455
 11
-6.37424
 21
46.7051
  0
LINE
  8
0
 10
-6.37424
 20
46.7051
 11
-5.35826
 21
47.4433
  0
LINE
  8
0
 10
-5.35826
 20
47.4433
 11
-4.25778
 21
48.0483
  0
LINE
  8
0
 10
-4.25778
 20
48.0483
 11
-3.09016
 21
48.5106
  0
LINE
  8
0
 10
-3.09016
 20
48.5106
 11
-1.87381
 21
48.8229
  0
LINE
  8
0
 10
-1.87381
 20
48.8229
 11
-0.627899
 21
48.9803
  0
LINE
  8
0
 10
-0.627899
 20
48.9803
 11
0.627899
 21
48.9803
  0
LINE
  8
0
 10
0.627899
 20
48.9803
 11
1.87381
 21
48.8229
  0
LINE
  8
0
 10
1.87381
 20
48.8229
 11
3.09016
 21
48.5106
  0
LINE
  8
0
 10
3.09016
 20
48.5106
 11
4.25778
 21
48.0483
  0
LINE
  8
0
 10
4.25778
 20
48.0483
 11
5.35826
 21
47.4433
  0
LINE
  8
0
 10
5.35826
 20
47.4433
 11
6.37424
 21
46.7051
  0
LINE
  8
0
 10
6.37424
 20
46.7051
 11
7.28967
 21
45.8455
  0
LINE
  8
0
 10
7.28967
 20
45.8455
 11
8.09016
 21
44.8778
  0
LINE
  8
0
 10
8.09016
 20
44.8778
 11
8.76306
 21
43.8175
  0
LINE
  8
0
 10
8.76306
 20
43.8175
 11
9.29776
 21
42.6812
  0
LINE
  8
0
 10
9.29776
 20
42.6812
 11
9.68582
 21
41.4869
  0
LINE
  8
0
 10
9.68582
 20
41.4869
 11
9.92114
 21
40.2533
  0
LINE
  8
0
 10
9.92114
 20
40.2533
 11
10
 21
39
  0
LINE
  8
0
 10
10
 20
39
 11
9.92114
 21
37.7467
  0
LINE
  8
0
 10
9.92114
 20
37.7467
 11
9.68582
 21
36.5131
  0
LINE
  8
0
 10
9.68582
 20
36.5131
 11
9.29776
 21
35.3188
  0
LINE
  8
0
 10
9.29776
 20
35.3188
 11
8.76306
 21
34.1825
  0
LINE
  8
0
 10
8.76306
 20
34.1825
 11
8.09016
 21
33.1222
  0
LINE
  8
0
 10
8.09016
 20
33.1222
 11
7.28967
 21
32.1545
  0
LINE
  8
0
 10
7.28967
 20
32.1545
 11
6.37424
 21
31.2949
  0
LINE
  8
0
 10
6.37424
 20
31.2949
 11
5.35826
 21
30.5567
  0
LINE
  8
0
 10
5.35826
 20
30.5567
 11
4.25778
 21
29.9517
  0
LINE
  8
0
 10
4.25778
 20
29.9517
 11
3.09016
 21
29.4894
  0
LINE
  8
0
 10
3.09016
 20
29.4894
 11
1.87381
 21
29.1771
  0
LINE
  8
0
 10
1.87381
 20
29.1771
 11
0.627899
 21
29.0197
  0
LINE
  8
0
 10
0.627899
 20
29.0197
 11
-0.627899
 21
29.0197
  0
ENDSEC
  0
SECTION
  2
OBJECTS
  0
DICTIONARY
  0
ENDSEC
  0
EOF
