  0
SECTION
  2
BLOCKS
  0
ENDSEC
  0
SECTION
  2
ENTITIES
  0
LINE
  8
0
 10
40.4369
 20
153.589
 11
41.0451
 21
153.745
  0
LINE
  8
0
 10
41.0451
 20
153.745
 11
41.6289
 21
153.976
  0
LINE
  8
0
 10
41.6289
 20
153.976
 11
42.1791
 21
154.278
  0
LINE
  8
0
 10
42.1791
 20
154.278
 11
42.6871
 21
154.647
  0
LINE
  8
0
 10
42.6871
 20
154.647
 11
43.1448
 21
155.077
  0
LINE
  8
0
 10
43.1448
 20
155.077
 11
43.5451
 21
155.561
  0
LINE
  8
0
 10
43.5451
 20
155.561
 11
43.8815
 21
156.091
  0
LINE
  8
0
 10
43.8815
 20
156.091
 11
44.1489
 21
156.659
  0
LINE
  8
0
 10
44.1489
 20
156.659
 11
44.3429
 21
157.257
  0
LINE
  8
0
 10
44.3429
 20
157.257
 11
44.4606
 21
157.873
  0
LINE
  8
0
 10
44.4606
 20
157.873
 11
44.5
 21
158.5
  0
LINE
  8
0
 10
44.5
 20
158.5
 11
44.5
 21
237.5
  0
LINE
  8
0
 10
44.5
 20
237.5
 11
44.4606
 21
238.127
  0
LINE
  8
0
 10
44.4606
 20
238.127
 11
44.3429
 21
238.743
  0
LINE
  8
0
 10
44.3429
 20
238.743
 11
44.1489
 21
239.341
  0
LINE
  8
0
 10
44.1489
 20
239.341
 11
43.8815
 21
239.909
  0
LINE
  8
0
 10
43.8815
 20
239.909
 11
43.5451
 21
240.439
  0
LINE
  8
0
 10
43.5451
 20
240.439
 11
43.1448
 21
240.923
  0
LINE
  8
0
 10
43.1448
 20
240.923
 11
42.6871
 21
241.353
  0
LINE
  8
0
 10
42.6871
 20
241.353
 11
42.1791
 21
241.722
  0
LINE
  8
0
 10
42.1791
 20
241.722
 11
41.6289
 21
242.024
  0
LINE
  8
0
 10
41.6289
 20
242.024
 11
41.0451
 21
242.255
  0
LINE
  8
0
 10
41.0451
 20
242.255
 11
40.4369
 21
242.411
  0
LINE
  8
0
 10
40.4369
 20
242.411
 11
39.8139
 21
242.49
  0
LINE
  8
0
 10
39.8139
 20
242.49
 11
-39.8139
 21
242.49
  0
LINE
  8
0
 10
-39.8139
 20
242.49
 11
-40.4369
 21
242.411
  0
LINE
  8
0
 10
-40.4369
 20
242.411
 11
-41.0451
 21
242.255
  0
LINE
  8
0
 10
-41.0451
 20
242.255
 11
-41.6289
 21
242.024
  0
LINE
  8
0
 10
-41.6289
 20
242.024
 11
-42.1791
 21
241.722
  0
LINE
  8
0
 10
-42.1791
 20
241.722
 11
-42.6871
 21
241.353
  0
LINE
  8
0
 10
-42.6871
 20
241.353
 11
-43.1448
 21
240.923
  0
LINE
  8
0
 10
-43.1448
 20
240.923
 11
-43.5451
 21
240.439
  0
LINE
  8
0
 10
-43.5451
 20
240.439
 11
-43.8815
 21
239.909
  0
LINE
  8
0
 10
-43.8815
 20
239.909
 11
-44.1489
 21
239.341
  0
LINE
  8
0
 10
-44.1489
 20
239.341
 11
-44.3429
 21
238.743
  0
LINE
  8
0
 10
-44.3429
 20
238.743
 11
-44.4606
 21
238.127
  0
LINE
  8
0
 10
-44.4606
 20
238.127
 11
-44.5
 21
237.5
  0
LINE
  8
0
 10
-44.5
 20
237.5
 11
-44.5
 21
158.5
  0
LINE
  8
0
 10
-44.5
 20
158.5
 11
-44.4606
 21
157.873
  0
LINE
  8
0
 10
-44.4606
 20
157.873
 11
-44.3429
 21
157.257
  0
LINE
  8
0
 10
-44.3429
 20
157.257
 11
-44.1489
 21
156.659
  0
LINE
  8
0
 10
-44.1489
 20
156.659
 11
-43.8815
 21
156.091
  0
LINE
  8
0
 10
-43.8815
 20
156.091
 11
-43.5451
 21
155.561
  0
LINE
  8
0
 10
-43.5451
 20
155.561
 11
-43.1448
 21
155.077
  0
LINE
  8
0
 10
-43.1448
 20
155.077
 11
-42.6871
 21
154.647
  0
LINE
  8
0
 10
-42.6871
 20
154.647
 11
-42.1791
 21
154.278
  0
LINE
  8
0
 10
-42.1791
 20
154.278
 11
-41.6289
 21
153.976
  0
LINE
  8
0
 10
-41.6289
 20
153.976
 11
-41.0451
 21
153.745
  0
LINE
  8
0
 10
-41.0451
 20
153.745
 11
-40.4369
 21
153.589
  0
LINE
  8
0
 10
-40.4369
 20
153.589
 11
-39.8139
 21
153.51
  0
LINE
  8
0
 10
-39.8139
 20
153.51
 11
39.8139
 21
153.51
  0
LINE
  8
0
 10
39.8139
 20
153.51
 11
40.4369
 21
153.589
  0
LINE
  8
0
 10
-37.6884
 20
232.506
 11
-38.0621
 21
232.553
  0
LINE
  8
0
 10
-38.0621
 20
232.553
 11
-38.427
 21
232.647
  0
LINE
  8
0
 10
-38.427
 20
232.647
 11
-38.7773
 21
232.786
  0
LINE
  8
0
 10
-38.7773
 20
232.786
 11
-39.1075
 21
232.967
  0
LINE
  8
0
 10
-39.1075
 20
232.967
 11
-39.4123
 21
233.188
  0
LINE
  8
0
 10
-39.4123
 20
233.188
 11
-39.6869
 21
233.446
  0
LINE
  8
0
 10
-39.6869
 20
233.446
 11
-39.927
 21
233.737
  0
LINE
  8
0
 10
-39.927
 20
233.737
 11
-40.1289
 21
234.055
  0
LINE
  8
0
 10
-40.1289
 20
234.055
 11
-40.2893
 21
234.396
  0
LINE
  8
0
 10
-40.2893
 20
234.396
 11
-40.4057
 21
234.754
  0
LINE
  8
0
 10
-40.4057
 20
234.754
 11
-40.4763
 21
235.124
  0
LINE
  8
0
 10
-40.4763
 20
235.124
 11
-40.5
 21
235.5
  0
LINE
  8
0
 10
-40.5
 20
235.5
 11
-40.4763
 21
235.876
  0
LINE
  8
0
 10
-40.4763
 20
235.876
 11
-40.4057
 21
236.246
  0
LINE
  8
0
 10
-40.4057
 20
236.246
 11
-40.2893
 21
236.604
  0
LINE
  8
0
 10
-40.2893
 20
236.604
 11
-40.1289
 21
236.945
  0
LINE
  8
0
 10
-40.1289
 20
236.945
 11
-39.927
 21
237.263
  0
LINE
  8
0
 10
-39.927
 20
237.263
 11
-39.6869
 21
237.554
  0
LINE
  8
0
 10
-39.6869
 20
237.554
 11
-39.4123
 21
237.812
  0
LINE
  8
0
 10
-39.4123
 20
237.812
 11
-39.1075
 21
238.033
  0
LINE
  8
0
 10
-39.1075
 20
238.033
 11
-38.7773
 21
238.214
  0
LINE
  8
0
 10
-38.7773
 20
238.214
 11
-38.427
 21
238.353
  0
LINE
  8
0
 10
-38.427
 20
238.353
 11
-38.0621
 21
238.447
  0
LINE
  8
0
 10
-38.0621
 20
238.447
 11
-37.6884
 21
238.494
  0
LINE
  8
0
 10
-37.6884
 20
238.494
 11
-37.3116
 21
238.494
  0
LINE
  8
0
 10
-37.3116
 20
238.494
 11
-36.9379
 21
238.447
  0
LINE
  8
0
 10
-36.9379
 20
238.447
 11
-36.5729
 21
238.353
  0
LINE
  8
0
 10
-36.5729
 20
238.353
 11
-36.2227
 21
238.214
  0
LINE
  8
0
 10
-36.2227
 20
238.214
 11
-35.8925
 21
238.033
  0
LINE
  8
0
 10
-35.8925
 20
238.033
 11
-35.5877
 21
237.812
  0
LINE
  8
0
 10
-35.5877
 20
237.812
 11
-35.3131
 21
237.554
  0
LINE
  8
0
 10
-35.3131
 20
237.554
 11
-35.0729
 21
237.263
  0
LINE
  8
0
 10
-35.0729
 20
237.263
 11
-34.8711
 21
236.945
  0
LINE
  8
0
 10
-34.8711
 20
236.945
 11
-34.7107
 21
236.604
  0
LINE
  8
0
 10
-34.7107
 20
236.604
 11
-34.5942
 21
236.246
  0
LINE
  8
0
 10
-34.5942
 20
236.246
 11
-34.5237
 21
235.876
  0
LINE
  8
0
 10
-34.5237
 20
235.876
 11
-34.5
 21
235.5
  0
LINE
  8
0
 10
-34.5
 20
235.5
 11
-34.5237
 21
235.124
  0
LINE
  8
0
 10
-34.5237
 20
235.124
 11
-34.5942
 21
234.754
  0
LINE
  8
0
 10
-34.5942
 20
234.754
 11
-34.7107
 21
234.396
  0
LINE
  8
0
 10
-34.7107
 20
234.396
 11
-34.8711
 21
234.055
  0
LINE
  8
0
 10
-34.8711
 20
234.055
 11
-35.0729
 21
233.737
  0
LINE
  8
0
 10
-35.0729
 20
233.737
 11
-35.3131
 21
233.446
  0
LINE
  8
0
 10
-35.3131
 20
233.446
 11
-35.5877
 21
233.188
  0
LINE
  8
0
 10
-35.5877
 20
233.188
 11
-35.8925
 21
232.967
  0
LINE
  8
0
 10
-35.8925
 20
232.967
 11
-36.2227
 21
232.786
  0
LINE
  8
0
 10
-36.2227
 20
232.786
 11
-36.5729
 21
232.647
  0
LINE
  8
0
 10
-36.5729
 20
232.647
 11
-36.9379
 21
232.553
  0
LINE
  8
0
 10
-36.9379
 20
232.553
 11
-37.3116
 21
232.506
  0
LINE
  8
0
 10
-37.3116
 20
232.506
 11
-37.6884
 21
232.506
  0
LINE
  8
0
 10
37.3116
 20
232.506
 11
36.9379
 21
232.553
  0
LINE
  8
0
 10
36.9379
 20
232.553
 11
36.5729
 21
232.647
  0
LINE
  8
0
 10
36.5729
 20
232.647
 11
36.2227
 21
232.786
  0
LINE
  8
0
 10
36.2227
 20
232.786
 11
35.8925
 21
232.967
  0
LINE
  8
0
 10
35.8925
 20
232.967
 11
35.5877
 21
233.188
  0
LINE
  8
0
 10
35.5877
 20
233.188
 11
35.3131
 21
233.446
  0
LINE
  8
0
 10
35.3131
 20
233.446
 11
35.0729
 21
233.737
  0
LINE
  8
0
 10
35.0729
 20
233.737
 11
34.8711
 21
234.055
  0
LINE
  8
0
 10
34.8711
 20
234.055
 11
34.7107
 21
234.396
  0
LINE
  8
0
 10
34.7107
 20
234.396
 11
34.5942
 21
234.754
  0
LINE
  8
0
 10
34.5942
 20
234.754
 11
34.5237
 21
235.124
  0
LINE
  8
0
 10
34.5237
 20
235.124
 11
34.5
 21
235.5
  0
LINE
  8
0
 10
34.5
 20
235.5
 11
34.5237
 21
235.876
  0
LINE
  8
0
 10
34.5237
 20
235.876
 11
34.5942
 21
236.246
  0
LINE
  8
0
 10
34.5942
 20
236.246
 11
34.7107
 21
236.604
  0
LINE
  8
0
 10
34.7107
 20
236.604
 11
34.8711
 21
236.945
  0
LINE
  8
0
 10
34.8711
 20
236.945
 11
35.0729
 21
237.263
  0
LINE
  8
0
 10
35.0729
 20
237.263
 11
35.3131
 21
237.554
  0
LINE
  8
0
 10
35.3131
 20
237.554
 11
35.5877
 21
237.812
  0
LINE
  8
0
 10
35.5877
 20
237.812
 11
35.8925
 21
238.033
  0
LINE
  8
0
 10
35.8925
 20
238.033
 11
36.2227
 21
238.214
  0
LINE
  8
0
 10
36.2227
 20
238.214
 11
36.5729
 21
238.353
  0
LINE
  8
0
 10
36.5729
 20
238.353
 11
36.9379
 21
238.447
  0
LINE
  8
0
 10
36.9379
 20
238.447
 11
37.3116
 21
238.494
  0
LINE
  8
0
 10
37.3116
 20
238.494
 11
37.6884
 21
238.494
  0
LINE
  8
0
 10
37.6884
 20
238.494
 11
38.0621
 21
238.447
  0
LINE
  8
0
 10
38.0621
 20
238.447
 11
38.427
 21
238.353
  0
LINE
  8
0
 10
38.427
 20
238.353
 11
38.7773
 21
238.214
  0
LINE
  8
0
 10
38.7773
 20
238.214
 11
39.1075
 21
238.033
  0
LINE
  8
0
 10
39.1075
 20
238.033
 11
39.4123
 21
237.812
  0
LINE
  8
0
 10
39.4123
 20
237.812
 11
39.6869
 21
237.554
  0
LINE
  8
0
 10
39.6869
 20
237.554
 11
39.927
 21
237.263
  0
LINE
  8
0
 10
39.927
 20
237.263
 11
40.1289
 21
236.945
  0
LINE
  8
0
 10
40.1289
 20
236.945
 11
40.2893
 21
236.604
  0
LINE
  8
0
 10
40.2893
 20
236.604
 11
40.4057
 21
236.246
  0
LINE
  8
0
 10
40.4057
 20
236.246
 11
40.4763
 21
235.876
  0
LINE
  8
0
 10
40.4763
 20
235.876
 11
40.5
 21
235.5
  0
LINE
  8
0
 10
40.5
 20
235.5
 11
40.4763
 21
235.124
  0
LINE
  8
0
 10
40.4763
 20
235.124
 11
40.4057
 21
234.754
  0
LINE
  8
0
 10
40.4057
 20
234.754
 11
40.2893
 21
234.396
  0
LINE
  8
0
 10
40.2893
 20
234.396
 11
40.1289
 21
234.055
  0
LINE
  8
0
 10
40.1289
 20
234.055
 11
39.927
 21
233.737
  0
LINE
  8
0
 10
39.927
 20
233.737
 11
39.6869
 21
233.446
  0
LINE
  8
0
 10
39.6869
 20
233.446
 11
39.4123
 21
233.188
  0
LINE
  8
0
 10
39.4123
 20
233.188
 11
39.1075
 21
232.967
  0
LINE
  8
0
 10
39.1075
 20
232.967
 11
38.7773
 21
232.786
  0
LINE
  8
0
 10
38.7773
 20
232.786
 11
38.427
 21
232.647
  0
LINE
  8
0
 10
38.427
 20
232.647
 11
38.0621
 21
232.553
  0
LINE
  8
0
 10
38.0621
 20
232.553
 11
37.6884
 21
232.506
  0
LINE
  8
0
 10
37.6884
 20
232.506
 11
37.3116
 21
232.506
  0
LINE
  8
0
 10
-2.19766
 20
163.069
 11
-6.55833
 21
163.62
  0
LINE
  8
0
 10
-6.55833
 20
163.62
 11
-10.8156
 21
164.713
  0
LINE
  8
0
 10
-10.8156
 20
164.713
 11
-14.9023
 21
166.331
  0
LINE
  8
0
 10
-14.9023
 20
166.331
 11
-18.7539
 21
168.449
  0
LINE
  8
0
 10
-18.7539
 20
168.449
 11
-22.3098
 21
171.032
  0
LINE
  8
0
 10
-22.3098
 20
171.032
 11
-25.5139
 21
174.041
  0
LINE
  8
0
 10
-25.5139
 20
174.041
 11
-28.3156
 21
177.428
  0
LINE
  8
0
 10
-28.3156
 20
177.428
 11
-30.6707
 21
181.139
  0
LINE
  8
0
 10
-30.6707
 20
181.139
 11
-32.5422
 21
185.116
  0
LINE
  8
0
 10
-32.5422
 20
185.116
 11
-33.9004
 21
189.296
  0
LINE
  8
0
 10
-33.9004
 20
189.296
 11
-34.724
 21
193.613
  0
LINE
  8
0
 10
-34.724
 20
193.613
 11
-35
 21
198
  0
LINE
  8
0
 10
-35
 20
198
 11
-34.724
 21
202.387
  0
LINE
  8
0
 10
-34.724
 20
202.387
 11
-33.9004
 21
206.704
  0
LINE
  8
0
 10
-33.9004
 20
206.704
 11
-32.5422
 21
210.884
  0
LINE
  8
0
 10
-32.5422
 20
210.884
 11
-30.6707
 21
214.861
  0
LINE
  8
0
 10
-30.6707
 20
214.861
 11
-28.3156
 21
218.572
  0
LINE
  8
0
 10
-28.3156
 20
218.572
 11
-25.5139
 21
221.959
  0
LINE
  8
0
 10
-25.5139
 20
221.959
 11
-22.3098
 21
224.968
  0
LINE
  8
0
 10
-22.3098
 20
224.968
 11
-18.7539
 21
227.551
  0
LINE
  8
0
 10
-18.7539
 20
227.551
 11
-14.9023
 21
229.669
  0
LINE
  8
0
 10
-14.9023
 20
229.669
 11
-10.8156
 21
231.287
  0
LINE
  8
0
 10
-10.8156
 20
231.287
 11
-6.55833
 21
232.38
  0
LINE
  8
0
 10
-6.55833
 20
232.38
 11
-2.19766
 21
232.931
  0
LINE
  8
0
 10
-2.19766
 20
232.931
 11
2.19766
 21
232.931
  0
LINE
  8
0
 10
2.19766
 20
232.931
 11
6.55833
 21
232.38
  0
LINE
  8
0
 10
6.55833
 20
232.38
 11
10.8156
 21
231.287
  0
LINE
  8
0
 10
10.8156
 20
231.287
 11
14.9023
 21
229.669
  0
LINE
  8
0
 10
14.9023
 20
229.669
 11
18.7539
 21
227.551
  0
LINE
  8
0
 10
18.7539
 20
227.551
 11
22.3098
 21
224.968
  0
LINE
  8
0
 10
22.3098
 20
224.968
 11
25.5139
 21
221.959
  0
LINE
  8
0
 10
25.5139
 20
221.959
 11
28.3156
 21
218.572
  0
LINE
  8
0
 10
28.3156
 20
218.572
 11
30.6707
 21
214.861
  0
LINE
  8
0
 10
30.6707
 20
214.861
 11
32.5422
 21
210.884
  0
LINE
  8
0
 10
32.5422
 20
210.884
 11
33.9004
 21
206.704
  0
LINE
  8
0
 10
33.9004
 20
206.704
 11
34.724
 21
202.387
  0
LINE
  8
0
 10
34.724
 20
202.387
 11
35
 21
198
  0
LINE
  8
0
 10
35
 20
198
 11
34.724
 21
193.613
  0
LINE
  8
0
 10
34.724
 20
193.613
 11
33.9004
 21
189.296
  0
LINE
  8
0
 10
33.9004
 20
189.296
 11
32.5422
 21
185.116
  0
LINE
  8
0
 10
32.5422
 20
185.116
 11
30.6707
 21
181.139
  0
LINE
  8
0
 10
30.6707
 20
181.139
 11
28.3156
 21
177.428
  0
LINE
  8
0
 10
28.3156
 20
177.428
 11
25.5139
 21
174.041
  0
LINE
  8
0
 10
25.5139
 20
174.041
 11
22.3098
 21
171.032
  0
LINE
  8
0
 10
22.3098
 20
171.032
 11
18.7539
 21
168.449
  0
LINE
  8
0
 10
18.7539
 20
168.449
 11
14.9023
 21
166.331
  0
LINE
  8
0
 10
14.9023
 20
166.331
 11
10.8156
 21
164.713
  0
LINE
  8
0
 10
10.8156
 20
164.713
 11
6.55833
 21
163.62
  0
LINE
  8
0
 10
6.55833
 20
163.62
 11
2.19766
 21
163.069
  0
LINE
  8
0
 10
2.19766
 20
163.069
 11
-2.19766
 21
163.069
  0
LINE
  8
0
 10
37.3116
 20
157.506
 11
36.9379
 21
157.553
  0
LINE
  8
0
 10
36.9379
 20
157.553
 11
36.5729
 21
157.647
  0
LINE
  8
0
 10
36.5729
 20
157.647
 11
36.2227
 21
157.786
  0
LINE
  8
0
 10
36.2227
 20
157.786
 11
35.8925
 21
157.967
  0
LINE
  8
0
 10
35.8925
 20
157.967
 11
35.5877
 21
158.188
  0
LINE
  8
0
 10
35.5877
 20
158.188
 11
35.3131
 21
158.446
  0
LINE
  8
0
 10
35.3131
 20
158.446
 11
35.0729
 21
158.737
  0
LINE
  8
0
 10
35.0729
 20
158.737
 11
34.8711
 21
159.055
  0
LINE
  8
0
 10
34.8711
 20
159.055
 11
34.7107
 21
159.396
  0
LINE
  8
0
 10
34.7107
 20
159.396
 11
34.5942
 21
159.754
  0
LINE
  8
0
 10
34.5942
 20
159.754
 11
34.5237
 21
160.124
  0
LINE
  8
0
 10
34.5237
 20
160.124
 11
34.5
 21
160.5
  0
LINE
  8
0
 10
34.5
 20
160.5
 11
34.5237
 21
160.876
  0
LINE
  8
0
 10
34.5237
 20
160.876
 11
34.5942
 21
161.246
  0
LINE
  8
0
 10
34.5942
 20
161.246
 11
34.7107
 21
161.604
  0
LINE
  8
0
 10
34.7107
 20
161.604
 11
34.8711
 21
161.945
  0
LINE
  8
0
 10
34.8711
 20
161.945
 11
35.0729
 21
162.263
  0
LINE
  8
0
 10
35.0729
 20
162.263
 11
35.3131
 21
162.554
  0
LINE
  8
0
 10
35.3131
 20
162.554
 11
35.5877
 21
162.812
  0
LINE
  8
0
 10
35.5877
 20
162.812
 11
35.8925
 21
163.033
  0
LINE
  8
0
 10
35.8925
 20
163.033
 11
36.2227
 21
163.214
  0
LINE
  8
0
 10
36.2227
 20
163.214
 11
36.5729
 21
163.353
  0
LINE
  8
0
 10
36.5729
 20
163.353
 11
36.9379
 21
163.447
  0
LINE
  8
0
 10
36.9379
 20
163.447
 11
37.3116
 21
163.494
  0
LINE
  8
0
 10
37.3116
 20
163.494
 11
37.6884
 21
163.494
  0
LINE
  8
0
 10
37.6884
 20
163.494
 11
38.0621
 21
163.447
  0
LINE
  8
0
 10
38.0621
 20
163.447
 11
38.427
 21
163.353
  0
LINE
  8
0
 10
38.427
 20
163.353
 11
38.7773
 21
163.214
  0
LINE
  8
0
 10
38.7773
 20
163.214
 11
39.1075
 21
163.033
  0
LINE
  8
0
 10
39.1075
 20
163.033
 11
39.4123
 21
162.812
  0
LINE
  8
0
 10
39.4123
 20
162.812
 11
39.6869
 21
162.554
  0
LINE
  8
0
 10
39.6869
 20
162.554
 11
39.927
 21
162.263
  0
LINE
  8
0
 10
39.927
 20
162.263
 11
40.1289
 21
161.945
  0
LINE
  8
0
 10
40.1289
 20
161.945
 11
40.2893
 21
161.604
  0
LINE
  8
0
 10
40.2893
 20
161.604
 11
40.4057
 21
161.246
  0
LINE
  8
0
 10
40.4057
 20
161.246
 11
40.4763
 21
160.876
  0
LINE
  8
0
 10
40.4763
 20
160.876
 11
40.5
 21
160.5
  0
LINE
  8
0
 10
40.5
 20
160.5
 11
40.4763
 21
160.124
  0
LINE
  8
0
 10
40.4763
 20
160.124
 11
40.4057
 21
159.754
  0
LINE
  8
0
 10
40.4057
 20
159.754
 11
40.2893
 21
159.396
  0
LINE
  8
0
 10
40.2893
 20
159.396
 11
40.1289
 21
159.055
  0
LINE
  8
0
 10
40.1289
 20
159.055
 11
39.927
 21
158.737
  0
LINE
  8
0
 10
39.927
 20
158.737
 11
39.6869
 21
158.446
  0
LINE
  8
0
 10
39.6869
 20
158.446
 11
39.4123
 21
158.188
  0
LINE
  8
0
 10
39.4123
 20
158.188
 11
39.1075
 21
157.967
  0
LINE
  8
0
 10
39.1075
 20
157.967
 11
38.7773
 21
157.786
  0
LINE
  8
0
 10
38.7773
 20
157.786
 11
38.427
 21
157.647
  0
LINE
  8
0
 10
38.427
 20
157.647
 11
38.0621
 21
157.553
  0
LINE
  8
0
 10
38.0621
 20
157.553
 11
37.6884
 21
157.506
  0
LINE
  8
0
 10
37.6884
 20
157.506
 11
37.3116
 21
157.506
  0
LINE
  8
0
 10
-37.6884
 20
157.506
 11
-38.0621
 21
157.553
  0
LINE
  8
0
 10
-38.0621
 20
157.553
 11
-38.427
 21
157.647
  0
LINE
  8
0
 10
-38.427
 20
157.647
 11
-38.7773
 21
157.786
  0
LINE
  8
0
 10
-38.7773
 20
157.786
 11
-39.1075
 21
157.967
  0
LINE
  8
0
 10
-39.1075
 20
157.967
 11
-39.4123
 21
158.188
  0
LINE
  8
0
 10
-39.4123
 20
158.188
 11
-39.6869
 21
158.446
  0
LINE
  8
0
 10
-39.6869
 20
158.446
 11
-39.927
 21
158.737
  0
LINE
  8
0
 10
-39.927
 20
158.737
 11
-40.1289
 21
159.055
  0
LINE
  8
0
 10
-40.1289
 20
159.055
 11
-40.2893
 21
159.396
  0
LINE
  8
0
 10
-40.2893
 20
159.396
 11
-40.4057
 21
159.754
  0
LINE
  8
0
 10
-40.4057
 20
159.754
 11
-40.4763
 21
160.124
  0
LINE
  8
0
 10
-40.4763
 20
160.124
 11
-40.5
 21
160.5
  0
LINE
  8
0
 10
-40.5
 20
160.5
 11
-40.4763
 21
160.876
  0
LINE
  8
0
 10
-40.4763
 20
160.876
 11
-40.4057
 21
161.246
  0
LINE
  8
0
 10
-40.4057
 20
161.246
 11
-40.2893
 21
161.604
  0
LINE
  8
0
 10
-40.2893
 20
161.604
 11
-40.1289
 21
161.945
  0
LINE
  8
0
 10
-40.1289
 20
161.945
 11
-39.927
 21
162.263
  0
LINE
  8
0
 10
-39.927
 20
162.263
 11
-39.6869
 21
162.554
  0
LINE
  8
0
 10
-39.6869
 20
162.554
 11
-39.4123
 21
162.812
  0
LINE
  8
0
 10
-39.4123
 20
162.812
 11
-39.1075
 21
163.033
  0
LINE
  8
0
 10
-39.1075
 20
163.033
 11
-38.7773
 21
163.214
  0
LINE
  8
0
 10
-38.7773
 20
163.214
 11
-38.427
 21
163.353
  0
LINE
  8
0
 10
-38.427
 20
163.353
 11
-38.0621
 21
163.447
  0
LINE
  8
0
 10
-38.0621
 20
163.447
 11
-37.6884
 21
163.494
  0
LINE
  8
0
 10
-37.6884
 20
163.494
 11
-37.3116
 21
163.494
  0
LINE
  8
0
 10
-37.3116
 20
163.494
 11
-36.9379
 21
163.447
  0
LINE
  8
0
 10
-36.9379
 20
163.447
 11
-36.5729
 21
163.353
  0
LINE
  8
0
 10
-36.5729
 20
163.353
 11
-36.2227
 21
163.214
  0
LINE
  8
0
 10
-36.2227
 20
163.214
 11
-35.8925
 21
163.033
  0
LINE
  8
0
 10
-35.8925
 20
163.033
 11
-35.5877
 21
162.812
  0
LINE
  8
0
 10
-35.5877
 20
162.812
 11
-35.3131
 21
162.554
  0
LINE
  8
0
 10
-35.3131
 20
162.554
 11
-35.0729
 21
162.263
  0
LINE
  8
0
 10
-35.0729
 20
162.263
 11
-34.8711
 21
161.945
  0
LINE
  8
0
 10
-34.8711
 20
161.945
 11
-34.7107
 21
161.604
  0
LINE
  8
0
 10
-34.7107
 20
161.604
 11
-34.5942
 21
161.246
  0
LINE
  8
0
 10
-34.5942
 20
161.246
 11
-34.5237
 21
160.876
  0
LINE
  8
0
 10
-34.5237
 20
160.876
 11
-34.5
 21
160.5
  0
LINE
  8
0
 10
-34.5
 20
160.5
 11
-34.5237
 21
160.124
  0
LINE
  8
0
 10
-34.5237
 20
160.124
 11
-34.5942
 21
159.754
  0
LINE
  8
0
 10
-34.5942
 20
159.754
 11
-34.7107
 21
159.396
  0
LINE
  8
0
 10
-34.7107
 20
159.396
 11
-34.8711
 21
159.055
  0
LINE
  8
0
 10
-34.8711
 20
159.055
 11
-35.0729
 21
158.737
  0
LINE
  8
0
 10
-35.0729
 20
158.737
 11
-35.3131
 21
158.446
  0
LINE
  8
0
 10
-35.3131
 20
158.446
 11
-35.5877
 21
158.188
  0
LINE
  8
0
 10
-35.5877
 20
158.188
 11
-35.8925
 21
157.967
  0
LINE
  8
0
 10
-35.8925
 20
157.967
 11
-36.2227
 21
157.786
  0
LINE
  8
0
 10
-36.2227
 20
157.786
 11
-36.5729
 21
157.647
  0
LINE
  8
0
 10
-36.5729
 20
157.647
 11
-36.9379
 21
157.553
  0
LINE
  8
0
 10
-36.9379
 20
157.553
 11
-37.3116
 21
157.506
  0
LINE
  8
0
 10
-37.3116
 20
157.506
 11
-37.6884
 21
157.506
  0
LINE
  8
0
 10
40.4369
 20
54.5886
 11
41.0451
 21
54.7447
  0
LINE
  8
0
 10
41.0451
 20
54.7447
 11
41.6289
 21
54.9759
  0
LINE
  8
0
 10
41.6289
 20
54.9759
 11
42.1791
 21
55.2784
  0
LINE
  8
0
 10
42.1791
 20
55.2784
 11
42.6871
 21
55.6474
  0
LINE
  8
0
 10
42.6871
 20
55.6474
 11
43.1448
 21
56.0773
  0
LINE
  8
0
 10
43.1448
 20
56.0773
 11
43.5451
 21
56.5611
  0
LINE
  8
0
 10
43.5451
 20
56.5611
 11
43.8815
 21
57.0912
  0
LINE
  8
0
 10
43.8815
 20
57.0912
 11
44.1489
 21
57.6594
  0
LINE
  8
0
 10
44.1489
 20
57.6594
 11
44.3429
 21
58.2566
  0
LINE
  8
0
 10
44.3429
 20
58.2566
 11
44.4606
 21
58.8733
  0
LINE
  8
0
 10
44.4606
 20
58.8733
 11
44.5
 21
59.5
  0
LINE
  8
0
 10
44.5
 20
59.5
 11
44.5
 21
138.5
  0
LINE
  8
0
 10
44.5
 20
138.5
 11
44.4606
 21
139.127
  0
LINE
  8
0
 10
44.4606
 20
139.127
 11
44.3429
 21
139.743
  0
LINE
  8
0
 10
44.3429
 20
139.743
 11
44.1489
 21
140.341
  0
LINE
  8
0
 10
44.1489
 20
140.341
 11
43.8815
 21
140.909
  0
LINE
  8
0
 10
43.8815
 20
140.909
 11
43.5451
 21
141.439
  0
LINE
  8
0
 10
43.5451
 20
141.439
 11
43.1448
 21
141.923
  0
LINE
  8
0
 10
43.1448
 20
141.923
 11
42.6871
 21
142.353
  0
LINE
  8
0
 10
42.6871
 20
142.353
 11
42.1791
 21
142.722
  0
LINE
  8
0
 10
42.1791
 20
142.722
 11
41.6289
 21
143.024
  0
LINE
  8
0
 10
41.6289
 20
143.024
 11
41.0451
 21
143.255
  0
LINE
  8
0
 10
41.0451
 20
143.255
 11
40.4369
 21
143.411
  0
LINE
  8
0
 10
40.4369
 20
143.411
 11
39.8139
 21
143.49
  0
LINE
  8
0
 10
39.8139
 20
143.49
 11
-39.8139
 21
143.49
  0
LINE
  8
0
 10
-39.8139
 20
143.49
 11
-40.4369
 21
143.411
  0
LINE
  8
0
 10
-40.4369
 20
143.411
 11
-41.0451
 21
143.255
  0
LINE
  8
0
 10
-41.0451
 20
143.255
 11
-41.6289
 21
143.024
  0
LINE
  8
0
 10
-41.6289
 20
143.024
 11
-42.1791
 21
142.722
  0
LINE
  8
0
 10
-42.1791
 20
142.722
 11
-42.6871
 21
142.353
  0
LINE
  8
0
 10
-42.6871
 20
142.353
 11
-43.1448
 21
141.923
  0
LINE
  8
0
 10
-43.1448
 20
141.923
 11
-43.5451
 21
141.439
  0
LINE
  8
0
 10
-43.5451
 20
141.439
 11
-43.8815
 21
140.909
  0
LINE
  8
0
 10
-43.8815
 20
140.909
 11
-44.1489
 21
140.341
  0
LINE
  8
0
 10
-44.1489
 20
140.341
 11
-44.3429
 21
139.743
  0
LINE
  8
0
 10
-44.3429
 20
139.743
 11
-44.4606
 21
139.127
  0
LINE
  8
0
 10
-44.4606
 20
139.127
 11
-44.5
 21
138.5
  0
LINE
  8
0
 10
-44.5
 20
138.5
 11
-44.5
 21
59.5
  0
LINE
  8
0
 10
-44.5
 20
59.5
 11
-44.4606
 21
58.8733
  0
LINE
  8
0
 10
-44.4606
 20
58.8733
 11
-44.3429
 21
58.2566
  0
LINE
  8
0
 10
-44.3429
 20
58.2566
 11
-44.1489
 21
57.6594
  0
LINE
  8
0
 10
-44.1489
 20
57.6594
 11
-43.8815
 21
57.0912
  0
LINE
  8
0
 10
-43.8815
 20
57.0912
 11
-43.5451
 21
56.5611
  0
LINE
  8
0
 10
-43.5451
 20
56.5611
 11
-43.1448
 21
56.0773
  0
LINE
  8
0
 10
-43.1448
 20
56.0773
 11
-42.6871
 21
55.6474
  0
LINE
  8
0
 10
-42.6871
 20
55.6474
 11
-42.1791
 21
55.2784
  0
LINE
  8
0
 10
-42.1791
 20
55.2784
 11
-41.6289
 21
54.9759
  0
LINE
  8
0
 10
-41.6289
 20
54.9759
 11
-41.0451
 21
54.7447
  0
LINE
  8
0
 10
-41.0451
 20
54.7447
 11
-40.4369
 21
54.5886
  0
LINE
  8
0
 10
-40.4369
 20
54.5886
 11
-39.8139
 21
54.5099
  0
LINE
  8
0
 10
-39.8139
 20
54.5099
 11
39.8139
 21
54.5099
  0
LINE
  8
0
 10
39.8139
 20
54.5099
 11
40.4369
 21
54.5886
  0
LINE
  8
0
 10
-37.6884
 20
133.506
 11
-38.0621
 21
133.553
  0
LINE
  8
0
 10
-38.0621
 20
133.553
 11
-38.427
 21
133.647
  0
LINE
  8
0
 10
-38.427
 20
133.647
 11
-38.7773
 21
133.786
  0
LINE
  8
0
 10
-38.7773
 20
133.786
 11
-39.1075
 21
133.967
  0
LINE
  8
0
 10
-39.1075
 20
133.967
 11
-39.4123
 21
134.188
  0
LINE
  8
0
 10
-39.4123
 20
134.188
 11
-39.6869
 21
134.446
  0
LINE
  8
0
 10
-39.6869
 20
134.446
 11
-39.927
 21
134.737
  0
LINE
  8
0
 10
-39.927
 20
134.737
 11
-40.1289
 21
135.055
  0
LINE
  8
0
 10
-40.1289
 20
135.055
 11
-40.2893
 21
135.396
  0
LINE
  8
0
 10
-40.2893
 20
135.396
 11
-40.4057
 21
135.754
  0
LINE
  8
0
 10
-40.4057
 20
135.754
 11
-40.4763
 21
136.124
  0
LINE
  8
0
 10
-40.4763
 20
136.124
 11
-40.5
 21
136.5
  0
LINE
  8
0
 10
-40.5
 20
136.5
 11
-40.4763
 21
136.876
  0
LINE
  8
0
 10
-40.4763
 20
136.876
 11
-40.4057
 21
137.246
  0
LINE
  8
0
 10
-40.4057
 20
137.246
 11
-40.2893
 21
137.604
  0
LINE
  8
0
 10
-40.2893
 20
137.604
 11
-40.1289
 21
137.945
  0
LINE
  8
0
 10
-40.1289
 20
137.945
 11
-39.927
 21
138.263
  0
LINE
  8
0
 10
-39.927
 20
138.263
 11
-39.6869
 21
138.554
  0
LINE
  8
0
 10
-39.6869
 20
138.554
 11
-39.4123
 21
138.812
  0
LINE
  8
0
 10
-39.4123
 20
138.812
 11
-39.1075
 21
139.033
  0
LINE
  8
0
 10
-39.1075
 20
139.033
 11
-38.7773
 21
139.214
  0
LINE
  8
0
 10
-38.7773
 20
139.214
 11
-38.427
 21
139.353
  0
LINE
  8
0
 10
-38.427
 20
139.353
 11
-38.0621
 21
139.447
  0
LINE
  8
0
 10
-38.0621
 20
139.447
 11
-37.6884
 21
139.494
  0
LINE
  8
0
 10
-37.6884
 20
139.494
 11
-37.3116
 21
139.494
  0
LINE
  8
0
 10
-37.3116
 20
139.494
 11
-36.9379
 21
139.447
  0
LINE
  8
0
 10
-36.9379
 20
139.447
 11
-36.5729
 21
139.353
  0
LINE
  8
0
 10
-36.5729
 20
139.353
 11
-36.2227
 21
139.214
  0
LINE
  8
0
 10
-36.2227
 20
139.214
 11
-35.8925
 21
139.033
  0
LINE
  8
0
 10
-35.8925
 20
139.033
 11
-35.5877
 21
138.812
  0
LINE
  8
0
 10
-35.5877
 20
138.812
 11
-35.3131
 21
138.554
  0
LINE
  8
0
 10
-35.3131
 20
138.554
 11
-35.0729
 21
138.263
  0
LINE
  8
0
 10
-35.0729
 20
138.263
 11
-34.8711
 21
137.945
  0
LINE
  8
0
 10
-34.8711
 20
137.945
 11
-34.7107
 21
137.604
  0
LINE
  8
0
 10
-34.7107
 20
137.604
 11
-34.5942
 21
137.246
  0
LINE
  8
0
 10
-34.5942
 20
137.246
 11
-34.5237
 21
136.876
  0
LINE
  8
0
 10
-34.5237
 20
136.876
 11
-34.5
 21
136.5
  0
LINE
  8
0
 10
-34.5
 20
136.5
 11
-34.5237
 21
136.124
  0
LINE
  8
0
 10
-34.5237
 20
136.124
 11
-34.5942
 21
135.754
  0
LINE
  8
0
 10
-34.5942
 20
135.754
 11
-34.7107
 21
135.396
  0
LINE
  8
0
 10
-34.7107
 20
135.396
 11
-34.8711
 21
135.055
  0
LINE
  8
0
 10
-34.8711
 20
135.055
 11
-35.0729
 21
134.737
  0
LINE
  8
0
 10
-35.0729
 20
134.737
 11
-35.3131
 21
134.446
  0
LINE
  8
0
 10
-35.3131
 20
134.446
 11
-35.5877
 21
134.188
  0
LINE
  8
0
 10
-35.5877
 20
134.188
 11
-35.8925
 21
133.967
  0
LINE
  8
0
 10
-35.8925
 20
133.967
 11
-36.2227
 21
133.786
  0
LINE
  8
0
 10
-36.2227
 20
133.786
 11
-36.5729
 21
133.647
  0
LINE
  8
0
 10
-36.5729
 20
133.647
 11
-36.9379
 21
133.553
  0
LINE
  8
0
 10
-36.9379
 20
133.553
 11
-37.3116
 21
133.506
  0
LINE
  8
0
 10
-37.3116
 20
133.506
 11
-37.6884
 21
133.506
  0
LINE
  8
0
 10
37.3116
 20
133.506
 11
36.9379
 21
133.553
  0
LINE
  8
0
 10
36.9379
 20
133.553
 11
36.5729
 21
133.647
  0
LINE
  8
0
 10
36.5729
 20
133.647
 11
36.2227
 21
133.786
  0
LINE
  8
0
 10
36.2227
 20
133.786
 11
35.8925
 21
133.967
  0
LINE
  8
0
 10
35.8925
 20
133.967
 11
35.5877
 21
134.188
  0
LINE
  8
0
 10
35.5877
 20
134.188
 11
35.3131
 21
134.446
  0
LINE
  8
0
 10
35.3131
 20
134.446
 11
35.0729
 21
134.737
  0
LINE
  8
0
 10
35.0729
 20
134.737
 11
34.8711
 21
135.055
  0
LINE
  8
0
 10
34.8711
 20
135.055
 11
34.7107
 21
135.396
  0
LINE
  8
0
 10
34.7107
 20
135.396
 11
34.5942
 21
135.754
  0
LINE
  8
0
 10
34.5942
 20
135.754
 11
34.5237
 21
136.124
  0
LINE
  8
0
 10
34.5237
 20
136.124
 11
34.5
 21
136.5
  0
LINE
  8
0
 10
34.5
 20
136.5
 11
34.5237
 21
136.876
  0
LINE
  8
0
 10
34.5237
 20
136.876
 11
34.5942
 21
137.246
  0
LINE
  8
0
 10
34.5942
 20
137.246
 11
34.7107
 21
137.604
  0
LINE
  8
0
 10
34.7107
 20
137.604
 11
34.8711
 21
137.945
  0
LINE
  8
0
 10
34.8711
 20
137.945
 11
35.0729
 21
138.263
  0
LINE
  8
0
 10
35.0729
 20
138.263
 11
35.3131
 21
138.554
  0
LINE
  8
0
 10
35.3131
 20
138.554
 11
35.5877
 21
138.812
  0
LINE
  8
0
 10
35.5877
 20
138.812
 11
35.8925
 21
139.033
  0
LINE
  8
0
 10
35.8925
 20
139.033
 11
36.2227
 21
139.214
  0
LINE
  8
0
 10
36.2227
 20
139.214
 11
36.5729
 21
139.353
  0
LINE
  8
0
 10
36.5729
 20
139.353
 11
36.9379
 21
139.447
  0
LINE
  8
0
 10
36.9379
 20
139.447
 11
37.3116
 21
139.494
  0
LINE
  8
0
 10
37.3116
 20
139.494
 11
37.6884
 21
139.494
  0
LINE
  8
0
 10
37.6884
 20
139.494
 11
38.0621
 21
139.447
  0
LINE
  8
0
 10
38.0621
 20
139.447
 11
38.427
 21
139.353
  0
LINE
  8
0
 10
38.427
 20
139.353
 11
38.7773
 21
139.214
  0
LINE
  8
0
 10
38.7773
 20
139.214
 11
39.1075
 21
139.033
  0
LINE
  8
0
 10
39.1075
 20
139.033
 11
39.4123
 21
138.812
  0
LINE
  8
0
 10
39.4123
 20
138.812
 11
39.6869
 21
138.554
  0
LINE
  8
0
 10
39.6869
 20
138.554
 11
39.927
 21
138.263
  0
LINE
  8
0
 10
39.927
 20
138.263
 11
40.1289
 21
137.945
  0
LINE
  8
0
 10
40.1289
 20
137.945
 11
40.2893
 21
137.604
  0
LINE
  8
0
 10
40.2893
 20
137.604
 11
40.4057
 21
137.246
  0
LINE
  8
0
 10
40.4057
 20
137.246
 11
40.4763
 21
136.876
  0
LINE
  8
0
 10
40.4763
 20
136.876
 11
40.5
 21
136.5
  0
LINE
  8
0
 10
40.5
 20
136.5
 11
40.4763
 21
136.124
  0
LINE
  8
0
 10
40.4763
 20
136.124
 11
40.4057
 21
135.754
  0
LINE
  8
0
 10
40.4057
 20
135.754
 11
40.2893
 21
135.396
  0
LINE
  8
0
 10
40.2893
 20
135.396
 11
40.1289
 21
135.055
  0
LINE
  8
0
 10
40.1289
 20
135.055
 11
39.927
 21
134.737
  0
LINE
  8
0
 10
39.927
 20
134.737
 11
39.6869
 21
134.446
  0
LINE
  8
0
 10
39.6869
 20
134.446
 11
39.4123
 21
134.188
  0
LINE
  8
0
 10
39.4123
 20
134.188
 11
39.1075
 21
133.967
  0
LINE
  8
0
 10
39.1075
 20
133.967
 11
38.7773
 21
133.786
  0
LINE
  8
0
 10
38.7773
 20
133.786
 11
38.427
 21
133.647
  0
LINE
  8
0
 10
38.427
 20
133.647
 11
38.0621
 21
133.553
  0
LINE
  8
0
 10
38.0621
 20
133.553
 11
37.6884
 21
133.506
  0
LINE
  8
0
 10
37.6884
 20
133.506
 11
37.3116
 21
133.506
  0
LINE
  8
0
 10
-2.19766
 20
64.0691
 11
-6.55833
 21
64.6199
  0
LINE
  8
0
 10
-6.55833
 20
64.6199
 11
-10.8156
 21
65.713
  0
LINE
  8
0
 10
-10.8156
 20
65.713
 11
-14.9023
 21
67.3311
  0
LINE
  8
0
 10
-14.9023
 20
67.3311
 11
-18.7539
 21
69.4485
  0
LINE
  8
0
 10
-18.7539
 20
69.4485
 11
-22.3098
 21
72.032
  0
LINE
  8
0
 10
-22.3098
 20
72.032
 11
-25.5139
 21
75.0409
  0
LINE
  8
0
 10
-25.5139
 20
75.0409
 11
-28.3156
 21
78.4275
  0
LINE
  8
0
 10
-28.3156
 20
78.4275
 11
-30.6707
 21
82.1386
  0
LINE
  8
0
 10
-30.6707
 20
82.1386
 11
-32.5422
 21
86.1156
  0
LINE
  8
0
 10
-32.5422
 20
86.1156
 11
-33.9004
 21
90.2959
  0
LINE
  8
0
 10
-33.9004
 20
90.2959
 11
-34.724
 21
94.6133
  0
LINE
  8
0
 10
-34.724
 20
94.6133
 11
-35
 21
99
  0
LINE
  8
0
 10
-35
 20
99
 11
-34.724
 21
103.387
  0
LINE
  8
0
 10
-34.724
 20
103.387
 11
-33.9004
 21
107.704
  0
LINE
  8
0
 10
-33.9004
 20
107.704
 11
-32.5422
 21
111.884
  0
LINE
  8
0
 10
-32.5422
 20
111.884
 11
-30.6707
 21
115.861
  0
LINE
  8
0
 10
-30.6707
 20
115.861
 11
-28.3156
 21
119.572
  0
LINE
  8
0
 10
-28.3156
 20
119.572
 11
-25.5139
 21
122.959
  0
LINE
  8
0
 10
-25.5139
 20
122.959
 11
-22.3098
 21
125.968
  0
LINE
  8
0
 10
-22.3098
 20
125.968
 11
-18.7539
 21
128.551
  0
LINE
  8
0
 10
-18.7539
 20
128.551
 11
-14.9023
 21
130.669
  0
LINE
  8
0
 10
-14.9023
 20
130.669
 11
-10.8156
 21
132.287
  0
LINE
  8
0
 10
-10.8156
 20
132.287
 11
-6.55833
 21
133.38
  0
LINE
  8
0
 10
-6.55833
 20
133.38
 11
-2.19766
 21
133.931
  0
LINE
  8
0
 10
-2.19766
 20
133.931
 11
2.19766
 21
133.931
  0
LINE
  8
0
 10
2.19766
 20
133.931
 11
6.55833
 21
133.38
  0
LINE
  8
0
 10
6.55833
 20
133.38
 11
10.8156
 21
132.287
  0
LINE
  8
0
 10
10.8156
 20
132.287
 11
14.9023
 21
130.669
  0
LINE
  8
0
 10
14.9023
 20
130.669
 11
18.7539
 21
128.551
  0
LINE
  8
0
 10
18.7539
 20
128.551
 11
22.3098
 21
125.968
  0
LINE
  8
0
 10
22.3098
 20
125.968
 11
25.5139
 21
122.959
  0
LINE
  8
0
 10
25.5139
 20
122.959
 11
28.3156
 21
119.572
  0
LINE
  8
0
 10
28.3156
 20
119.572
 11
30.6707
 21
115.861
  0
LINE
  8
0
 10
30.6707
 20
115.861
 11
32.5422
 21
111.884
  0
LINE
  8
0
 10
32.5422
 20
111.884
 11
33.9004
 21
107.704
  0
LINE
  8
0
 10
33.9004
 20
107.704
 11
34.724
 21
103.387
  0
LINE
  8
0
 10
34.724
 20
103.387
 11
35
 21
99
  0
LINE
  8
0
 10
35
 20
99
 11
34.724
 21
94.6133
  0
LINE
  8
0
 10
34.724
 20
94.6133
 11
33.9004
 21
90.2959
  0
LINE
  8
0
 10
33.9004
 20
90.2959
 11
32.5422
 21
86.1156
  0
LINE
  8
0
 10
32.5422
 20
86.1156
 11
30.6707
 21
82.1386
  0
LINE
  8
0
 10
30.6707
 20
82.1386
 11
28.3156
 21
78.4275
  0
LINE
  8
0
 10
28.3156
 20
78.4275
 11
25.5139
 21
75.0409
  0
LINE
  8
0
 10
25.5139
 20
75.0409
 11
22.3098
 21
72.032
  0
LINE
  8
0
 10
22.3098
 20
72.032
 11
18.7539
 21
69.4485
  0
LINE
  8
0
 10
18.7539
 20
69.4485
 11
14.9023
 21
67.3311
  0
LINE
  8
0
 10
14.9023
 20
67.3311
 11
10.8156
 21
65.713
  0
LINE
  8
0
 10
10.8156
 20
65.713
 11
6.55833
 21
64.6199
  0
LINE
  8
0
 10
6.55833
 20
64.6199
 11
2.19766
 21
64.0691
  0
LINE
  8
0
 10
2.19766
 20
64.0691
 11
-2.19766
 21
64.0691
  0
LINE
  8
0
 10
37.3116
 20
58.5059
 11
36.9379
 21
58.5531
  0
LINE
  8
0
 10
36.9379
 20
58.5531
 11
36.5729
 21
58.6468
  0
LINE
  8
0
 10
36.5729
 20
58.6468
 11
36.2227
 21
58.7855
  0
LINE
  8
0
 10
36.2227
 20
58.7855
 11
35.8925
 21
58.967
  0
LINE
  8
0
 10
35.8925
 20
58.967
 11
35.5877
 21
59.1885
  0
LINE
  8
0
 10
35.5877
 20
59.1885
 11
35.3131
 21
59.4464
  0
LINE
  8
0
 10
35.3131
 20
59.4464
 11
35.0729
 21
59.7366
  0
LINE
  8
0
 10
35.0729
 20
59.7366
 11
34.8711
 21
60.0547
  0
LINE
  8
0
 10
34.8711
 20
60.0547
 11
34.7107
 21
60.3956
  0
LINE
  8
0
 10
34.7107
 20
60.3956
 11
34.5942
 21
60.7539
  0
LINE
  8
0
 10
34.5942
 20
60.7539
 11
34.5237
 21
61.124
  0
LINE
  8
0
 10
34.5237
 20
61.124
 11
34.5
 21
61.5
  0
LINE
  8
0
 10
34.5
 20
61.5
 11
34.5237
 21
61.876
  0
LINE
  8
0
 10
34.5237
 20
61.876
 11
34.5942
 21
62.2461
  0
LINE
  8
0
 10
34.5942
 20
62.2461
 11
34.7107
 21
62.6044
  0
LINE
  8
0
 10
34.7107
 20
62.6044
 11
34.8711
 21
62.9453
  0
LINE
  8
0
 10
34.8711
 20
62.9453
 11
35.0729
 21
63.2634
  0
LINE
  8
0
 10
35.0729
 20
63.2634
 11
35.3131
 21
63.5536
  0
LINE
  8
0
 10
35.3131
 20
63.5536
 11
35.5877
 21
63.8115
  0
LINE
  8
0
 10
35.5877
 20
63.8115
 11
35.8925
 21
64.033
  0
LINE
  8
0
 10
35.8925
 20
64.033
 11
36.2227
 21
64.2145
  0
LINE
  8
0
 10
36.2227
 20
64.2145
 11
36.5729
 21
64.3532
  0
LINE
  8
0
 10
36.5729
 20
64.3532
 11
36.9379
 21
64.4469
  0
LINE
  8
0
 10
36.9379
 20
64.4469
 11
37.3116
 21
64.4941
  0
LINE
  8
0
 10
37.3116
 20
64.4941
 11
37.6884
 21
64.4941
  0
LINE
  8
0
 10
37.6884
 20
64.4941
 11
38.0621
 21
64.4469
  0
LINE
  8
0
 10
38.0621
 20
64.4469
 11
38.427
 21
64.3532
  0
LINE
  8
0
 10
38.427
 20
64.3532
 11
38.7773
 21
64.2145
  0
LINE
  8
0
 10
38.7773
 20
64.2145
 11
39.1075
 21
64.033
  0
LINE
  8
0
 10
39.1075
 20
64.033
 11
39.4123
 21
63.8115
  0
LINE
  8
0
 10
39.4123
 20
63.8115
 11
39.6869
 21
63.5536
  0
LINE
  8
0
 10
39.6869
 20
63.5536
 11
39.927
 21
63.2634
  0
LINE
  8
0
 10
39.927
 20
63.2634
 11
40.1289
 21
62.9453
  0
LINE
  8
0
 10
40.1289
 20
62.9453
 11
40.2893
 21
62.6044
  0
LINE
  8
0
 10
40.2893
 20
62.6044
 11
40.4057
 21
62.2461
  0
LINE
  8
0
 10
40.4057
 20
62.2461
 11
40.4763
 21
61.876
  0
LINE
  8
0
 10
40.4763
 20
61.876
 11
40.5
 21
61.5
  0
LINE
  8
0
 10
40.5
 20
61.5
 11
40.4763
 21
61.124
  0
LINE
  8
0
 10
40.4763
 20
61.124
 11
40.4057
 21
60.7539
  0
LINE
  8
0
 10
40.4057
 20
60.7539
 11
40.2893
 21
60.3956
  0
LINE
  8
0
 10
40.2893
 20
60.3956
 11
40.1289
 21
60.0547
  0
LINE
  8
0
 10
40.1289
 20
60.0547
 11
39.927
 21
59.7366
  0
LINE
  8
0
 10
39.927
 20
59.7366
 11
39.6869
 21
59.4464
  0
LINE
  8
0
 10
39.6869
 20
59.4464
 11
39.4123
 21
59.1885
  0
LINE
  8
0
 10
39.4123
 20
59.1885
 11
39.1075
 21
58.967
  0
LINE
  8
0
 10
39.1075
 20
58.967
 11
38.7773
 21
58.7855
  0
LINE
  8
0
 10
38.7773
 20
58.7855
 11
38.427
 21
58.6468
  0
LINE
  8
0
 10
38.427
 20
58.6468
 11
38.0621
 21
58.5531
  0
LINE
  8
0
 10
38.0621
 20
58.5531
 11
37.6884
 21
58.5059
  0
LINE
  8
0
 10
37.6884
 20
58.5059
 11
37.3116
 21
58.5059
  0
LINE
  8
0
 10
-37.6884
 20
58.5059
 11
-38.0621
 21
58.5531
  0
LINE
  8
0
 10
-38.0621
 20
58.5531
 11
-38.427
 21
58.6468
  0
LINE
  8
0
 10
-38.427
 20
58.6468
 11
-38.7773
 21
58.7855
  0
LINE
  8
0
 10
-38.7773
 20
58.7855
 11
-39.1075
 21
58.967
  0
LINE
  8
0
 10
-39.1075
 20
58.967
 11
-39.4123
 21
59.1885
  0
LINE
  8
0
 10
-39.4123
 20
59.1885
 11
-39.6869
 21
59.4464
  0
LINE
  8
0
 10
-39.6869
 20
59.4464
 11
-39.927
 21
59.7366
  0
LINE
  8
0
 10
-39.927
 20
59.7366
 11
-40.1289
 21
60.0547
  0
LINE
  8
0
 10
-40.1289
 20
60.0547
 11
-40.2893
 21
60.3956
  0
LINE
  8
0
 10
-40.2893
 20
60.3956
 11
-40.4057
 21
60.7539
  0
LINE
  8
0
 10
-40.4057
 20
60.7539
 11
-40.4763
 21
61.124
  0
LINE
  8
0
 10
-40.4763
 20
61.124
 11
-40.5
 21
61.5
  0
LINE
  8
0
 10
-40.5
 20
61.5
 11
-40.4763
 21
61.876
  0
LINE
  8
0
 10
-40.4763
 20
61.876
 11
-40.4057
 21
62.2461
  0
LINE
  8
0
 10
-40.4057
 20
62.2461
 11
-40.2893
 21
62.6044
  0
LINE
  8
0
 10
-40.2893
 20
62.6044
 11
-40.1289
 21
62.9453
  0
LINE
  8
0
 10
-40.1289
 20
62.9453
 11
-39.927
 21
63.2634
  0
LINE
  8
0
 10
-39.927
 20
63.2634
 11
-39.6869
 21
63.5536
  0
LINE
  8
0
 10
-39.6869
 20
63.5536
 11
-39.4123
 21
63.8115
  0
LINE
  8
0
 10
-39.4123
 20
63.8115
 11
-39.1075
 21
64.033
  0
LINE
  8
0
 10
-39.1075
 20
64.033
 11
-38.7773
 21
64.2145
  0
LINE
  8
0
 10
-38.7773
 20
64.2145
 11
-38.427
 21
64.3532
  0
LINE
  8
0
 10
-38.427
 20
64.3532
 11
-38.0621
 21
64.4469
  0
LINE
  8
0
 10
-38.0621
 20
64.4469
 11
-37.6884
 21
64.4941
  0
LINE
  8
0
 10
-37.6884
 20
64.4941
 11
-37.3116
 21
64.4941
  0
LINE
  8
0
 10
-37.3116
 20
64.4941
 11
-36.9379
 21
64.4469
  0
LINE
  8
0
 10
-36.9379
 20
64.4469
 11
-36.5729
 21
64.3532
  0
LINE
  8
0
 10
-36.5729
 20
64.3532
 11
-36.2227
 21
64.2145
  0
LINE
  8
0
 10
-36.2227
 20
64.2145
 11
-35.8925
 21
64.033
  0
LINE
  8
0
 10
-35.8925
 20
64.033
 11
-35.5877
 21
63.8115
  0
LINE
  8
0
 10
-35.5877
 20
63.8115
 11
-35.3131
 21
63.5536
  0
LINE
  8
0
 10
-35.3131
 20
63.5536
 11
-35.0729
 21
63.2634
  0
LINE
  8
0
 10
-35.0729
 20
63.2634
 11
-34.8711
 21
62.9453
  0
LINE
  8
0
 10
-34.8711
 20
62.9453
 11
-34.7107
 21
62.6044
  0
LINE
  8
0
 10
-34.7107
 20
62.6044
 11
-34.5942
 21
62.2461
  0
LINE
  8
0
 10
-34.5942
 20
62.2461
 11
-34.5237
 21
61.876
  0
LINE
  8
0
 10
-34.5237
 20
61.876
 11
-34.5
 21
61.5
  0
LINE
  8
0
 10
-34.5
 20
61.5
 11
-34.5237
 21
61.124
  0
LINE
  8
0
 10
-34.5237
 20
61.124
 11
-34.5942
 21
60.7539
  0
LINE
  8
0
 10
-34.5942
 20
60.7539
 11
-34.7107
 21
60.3956
  0
LINE
  8
0
 10
-34.7107
 20
60.3956
 11
-34.8711
 21
60.0547
  0
LINE
  8
0
 10
-34.8711
 20
60.0547
 11
-35.0729
 21
59.7366
  0
LINE
  8
0
 10
-35.0729
 20
59.7366
 11
-35.3131
 21
59.4464
  0
LINE
  8
0
 10
-35.3131
 20
59.4464
 11
-35.5877
 21
59.1885
  0
LINE
  8
0
 10
-35.5877
 20
59.1885
 11
-35.8925
 21
58.967
  0
LINE
  8
0
 10
-35.8925
 20
58.967
 11
-36.2227
 21
58.7855
  0
LINE
  8
0
 10
-36.2227
 20
58.7855
 11
-36.5729
 21
58.6468
  0
LINE
  8
0
 10
-36.5729
 20
58.6468
 11
-36.9379
 21
58.5531
  0
LINE
  8
0
 10
-36.9379
 20
58.5531
 11
-37.3116
 21
58.5059
  0
LINE
  8
0
 10
-37.3116
 20
58.5059
 11
-37.6884
 21
58.5059
  0
ENDSEC
  0
SECTION
  2
OBJECTS
  0
DICTIONARY
  0
ENDSEC
  0
EOF
