  0
SECTION
  2
BLOCKS
  0
ENDSEC
  0
SECTION
  2
ENTITIES
  0
LINE
  8
0
 10
227.937
 20
-81.9114
 11
228.545
 21
-81.7553
  0
LINE
  8
0
 10
228.545
 20
-81.7553
 11
229.129
 21
-81.5241
  0
LINE
  8
0
 10
229.129
 20
-81.5241
 11
229.679
 21
-81.2216
  0
LINE
  8
0
 10
229.679
 20
-81.2216
 11
230.187
 21
-80.8526
  0
LINE
  8
0
 10
230.187
 20
-80.8526
 11
230.645
 21
-80.4227
  0
LINE
  8
0
 10
230.645
 20
-80.4227
 11
231.045
 21
-79.9389
  0
LINE
  8
0
 10
231.045
 20
-79.9389
 11
231.382
 21
-79.4088
  0
LINE
  8
0
 10
231.382
 20
-79.4088
 11
231.649
 21
-78.8406
  0
LINE
  8
0
 10
231.649
 20
-78.8406
 11
231.843
 21
-78.2434
  0
LINE
  8
0
 10
231.843
 20
-78.2434
 11
231.961
 21
-77.6267
  0
LINE
  8
0
 10
231.961
 20
-77.6267
 11
232
 21
-77
  0
LINE
  8
0
 10
232
 20
-77
 11
232
 21
77
  0
LINE
  8
0
 10
232
 20
77
 11
231.961
 21
77.6267
  0
LINE
  8
0
 10
231.961
 20
77.6267
 11
231.843
 21
78.2434
  0
LINE
  8
0
 10
231.843
 20
78.2434
 11
231.649
 21
78.8406
  0
LINE
  8
0
 10
231.649
 20
78.8406
 11
231.382
 21
79.4088
  0
LINE
  8
0
 10
231.382
 20
79.4088
 11
231.045
 21
79.9389
  0
LINE
  8
0
 10
231.045
 20
79.9389
 11
230.645
 21
80.4227
  0
LINE
  8
0
 10
230.645
 20
80.4227
 11
230.187
 21
80.8526
  0
LINE
  8
0
 10
230.187
 20
80.8526
 11
229.679
 21
81.2216
  0
LINE
  8
0
 10
229.679
 20
81.2216
 11
229.129
 21
81.5241
  0
LINE
  8
0
 10
229.129
 20
81.5241
 11
228.545
 21
81.7553
  0
LINE
  8
0
 10
228.545
 20
81.7553
 11
227.937
 21
81.9114
  0
LINE
  8
0
 10
227.937
 20
81.9114
 11
227.314
 21
81.9901
  0
LINE
  8
0
 10
227.314
 20
81.9901
 11
-227.314
 21
81.9901
  0
LINE
  8
0
 10
-227.314
 20
81.9901
 11
-227.937
 21
81.9114
  0
LINE
  8
0
 10
-227.937
 20
81.9114
 11
-228.545
 21
81.7553
  0
LINE
  8
0
 10
-228.545
 20
81.7553
 11
-229.129
 21
81.5241
  0
LINE
  8
0
 10
-229.129
 20
81.5241
 11
-229.679
 21
81.2216
  0
LINE
  8
0
 10
-229.679
 20
81.2216
 11
-230.187
 21
80.8526
  0
LINE
  8
0
 10
-230.187
 20
80.8526
 11
-230.645
 21
80.4227
  0
LINE
  8
0
 10
-230.645
 20
80.4227
 11
-231.045
 21
79.9389
  0
LINE
  8
0
 10
-231.045
 20
79.9389
 11
-231.382
 21
79.4088
  0
LINE
  8
0
 10
-231.382
 20
79.4088
 11
-231.649
 21
78.8406
  0
LINE
  8
0
 10
-231.649
 20
78.8406
 11
-231.843
 21
78.2434
  0
LINE
  8
0
 10
-231.843
 20
78.2434
 11
-231.961
 21
77.6267
  0
LINE
  8
0
 10
-231.961
 20
77.6267
 11
-232
 21
77
  0
LINE
  8
0
 10
-232
 20
77
 11
-232
 21
-77
  0
LINE
  8
0
 10
-232
 20
-77
 11
-231.961
 21
-77.6267
  0
LINE
  8
0
 10
-231.961
 20
-77.6267
 11
-231.843
 21
-78.2434
  0
LINE
  8
0
 10
-231.843
 20
-78.2434
 11
-231.649
 21
-78.8406
  0
LINE
  8
0
 10
-231.649
 20
-78.8406
 11
-231.382
 21
-79.4088
  0
LINE
  8
0
 10
-231.382
 20
-79.4088
 11
-231.045
 21
-79.9389
  0
LINE
  8
0
 10
-231.045
 20
-79.9389
 11
-230.645
 21
-80.4227
  0
LINE
  8
0
 10
-230.645
 20
-80.4227
 11
-230.187
 21
-80.8526
  0
LINE
  8
0
 10
-230.187
 20
-80.8526
 11
-229.679
 21
-81.2216
  0
LINE
  8
0
 10
-229.679
 20
-81.2216
 11
-229.129
 21
-81.5241
  0
LINE
  8
0
 10
-229.129
 20
-81.5241
 11
-228.545
 21
-81.7553
  0
LINE
  8
0
 10
-228.545
 20
-81.7553
 11
-227.937
 21
-81.9114
  0
LINE
  8
0
 10
-227.937
 20
-81.9114
 11
-227.314
 21
-81.9901
  0
LINE
  8
0
 10
-227.314
 20
-81.9901
 11
227.314
 21
-81.9901
  0
LINE
  8
0
 10
227.314
 20
-81.9901
 11
227.937
 21
-81.9114
  0
LINE
  8
0
 10
224.812
 20
72.0059
 11
224.438
 21
72.0531
  0
LINE
  8
0
 10
224.438
 20
72.0531
 11
224.073
 21
72.1468
  0
LINE
  8
0
 10
224.073
 20
72.1468
 11
223.723
 21
72.2855
  0
LINE
  8
0
 10
223.723
 20
72.2855
 11
223.393
 21
72.467
  0
LINE
  8
0
 10
223.393
 20
72.467
 11
223.088
 21
72.6885
  0
LINE
  8
0
 10
223.088
 20
72.6885
 11
222.813
 21
72.9464
  0
LINE
  8
0
 10
222.813
 20
72.9464
 11
222.573
 21
73.2366
  0
LINE
  8
0
 10
222.573
 20
73.2366
 11
222.371
 21
73.5547
  0
LINE
  8
0
 10
222.371
 20
73.5547
 11
222.211
 21
73.8956
  0
LINE
  8
0
 10
222.211
 20
73.8956
 11
222.094
 21
74.2539
  0
LINE
  8
0
 10
222.094
 20
74.2539
 11
222.024
 21
74.624
  0
LINE
  8
0
 10
222.024
 20
74.624
 11
222
 21
75
  0
LINE
  8
0
 10
222
 20
75
 11
222.024
 21
75.376
  0
LINE
  8
0
 10
222.024
 20
75.376
 11
222.094
 21
75.7461
  0
LINE
  8
0
 10
222.094
 20
75.7461
 11
222.211
 21
76.1044
  0
LINE
  8
0
 10
222.211
 20
76.1044
 11
222.371
 21
76.4453
  0
LINE
  8
0
 10
222.371
 20
76.4453
 11
222.573
 21
76.7634
  0
LINE
  8
0
 10
222.573
 20
76.7634
 11
222.813
 21
77.0536
  0
LINE
  8
0
 10
222.813
 20
77.0536
 11
223.088
 21
77.3115
  0
LINE
  8
0
 10
223.088
 20
77.3115
 11
223.393
 21
77.533
  0
LINE
  8
0
 10
223.393
 20
77.533
 11
223.723
 21
77.7145
  0
LINE
  8
0
 10
223.723
 20
77.7145
 11
224.073
 21
77.8532
  0
LINE
  8
0
 10
224.073
 20
77.8532
 11
224.438
 21
77.9469
  0
LINE
  8
0
 10
224.438
 20
77.9469
 11
224.812
 21
77.9941
  0
LINE
  8
0
 10
224.812
 20
77.9941
 11
225.188
 21
77.9941
  0
LINE
  8
0
 10
225.188
 20
77.9941
 11
225.562
 21
77.9469
  0
LINE
  8
0
 10
225.562
 20
77.9469
 11
225.927
 21
77.8532
  0
LINE
  8
0
 10
225.927
 20
77.8532
 11
226.277
 21
77.7145
  0
LINE
  8
0
 10
226.277
 20
77.7145
 11
226.607
 21
77.533
  0
LINE
  8
0
 10
226.607
 20
77.533
 11
226.912
 21
77.3115
  0
LINE
  8
0
 10
226.912
 20
77.3115
 11
227.187
 21
77.0536
  0
LINE
  8
0
 10
227.187
 20
77.0536
 11
227.427
 21
76.7634
  0
LINE
  8
0
 10
227.427
 20
76.7634
 11
227.629
 21
76.4453
  0
LINE
  8
0
 10
227.629
 20
76.4453
 11
227.789
 21
76.1044
  0
LINE
  8
0
 10
227.789
 20
76.1044
 11
227.906
 21
75.7461
  0
LINE
  8
0
 10
227.906
 20
75.7461
 11
227.976
 21
75.376
  0
LINE
  8
0
 10
227.976
 20
75.376
 11
228
 21
75
  0
LINE
  8
0
 10
228
 20
75
 11
227.976
 21
74.624
  0
LINE
  8
0
 10
227.976
 20
74.624
 11
227.906
 21
74.2539
  0
LINE
  8
0
 10
227.906
 20
74.2539
 11
227.789
 21
73.8956
  0
LINE
  8
0
 10
227.789
 20
73.8956
 11
227.629
 21
73.5547
  0
LINE
  8
0
 10
227.629
 20
73.5547
 11
227.427
 21
73.2366
  0
LINE
  8
0
 10
227.427
 20
73.2366
 11
227.187
 21
72.9464
  0
LINE
  8
0
 10
227.187
 20
72.9464
 11
226.912
 21
72.6885
  0
LINE
  8
0
 10
226.912
 20
72.6885
 11
226.607
 21
72.467
  0
LINE
  8
0
 10
226.607
 20
72.467
 11
226.277
 21
72.2855
  0
LINE
  8
0
 10
226.277
 20
72.2855
 11
225.927
 21
72.1468
  0
LINE
  8
0
 10
225.927
 20
72.1468
 11
225.562
 21
72.0531
  0
LINE
  8
0
 10
225.562
 20
72.0531
 11
225.188
 21
72.0059
  0
LINE
  8
0
 10
225.188
 20
72.0059
 11
224.812
 21
72.0059
  0
LINE
  8
0
 10
-225.188
 20
72.0059
 11
-225.562
 21
72.0531
  0
LINE
  8
0
 10
-225.562
 20
72.0531
 11
-225.927
 21
72.1468
  0
LINE
  8
0
 10
-225.927
 20
72.1468
 11
-226.277
 21
72.2855
  0
LINE
  8
0
 10
-226.277
 20
72.2855
 11
-226.607
 21
72.467
  0
LINE
  8
0
 10
-226.607
 20
72.467
 11
-226.912
 21
72.6885
  0
LINE
  8
0
 10
-226.912
 20
72.6885
 11
-227.187
 21
72.9464
  0
LINE
  8
0
 10
-227.187
 20
72.9464
 11
-227.427
 21
73.2366
  0
LINE
  8
0
 10
-227.427
 20
73.2366
 11
-227.629
 21
73.5547
  0
LINE
  8
0
 10
-227.629
 20
73.5547
 11
-227.789
 21
73.8956
  0
LINE
  8
0
 10
-227.789
 20
73.8956
 11
-227.906
 21
74.2539
  0
LINE
  8
0
 10
-227.906
 20
74.2539
 11
-227.976
 21
74.624
  0
LINE
  8
0
 10
-227.976
 20
74.624
 11
-228
 21
75
  0
LINE
  8
0
 10
-228
 20
75
 11
-227.976
 21
75.376
  0
LINE
  8
0
 10
-227.976
 20
75.376
 11
-227.906
 21
75.7461
  0
LINE
  8
0
 10
-227.906
 20
75.7461
 11
-227.789
 21
76.1044
  0
LINE
  8
0
 10
-227.789
 20
76.1044
 11
-227.629
 21
76.4453
  0
LINE
  8
0
 10
-227.629
 20
76.4453
 11
-227.427
 21
76.7634
  0
LINE
  8
0
 10
-227.427
 20
76.7634
 11
-227.187
 21
77.0536
  0
LINE
  8
0
 10
-227.187
 20
77.0536
 11
-226.912
 21
77.3115
  0
LINE
  8
0
 10
-226.912
 20
77.3115
 11
-226.607
 21
77.533
  0
LINE
  8
0
 10
-226.607
 20
77.533
 11
-226.277
 21
77.7145
  0
LINE
  8
0
 10
-226.277
 20
77.7145
 11
-225.927
 21
77.8532
  0
LINE
  8
0
 10
-225.927
 20
77.8532
 11
-225.562
 21
77.9469
  0
LINE
  8
0
 10
-225.562
 20
77.9469
 11
-225.188
 21
77.9941
  0
LINE
  8
0
 10
-225.188
 20
77.9941
 11
-224.812
 21
77.9941
  0
LINE
  8
0
 10
-224.812
 20
77.9941
 11
-224.438
 21
77.9469
  0
LINE
  8
0
 10
-224.438
 20
77.9469
 11
-224.073
 21
77.8532
  0
LINE
  8
0
 10
-224.073
 20
77.8532
 11
-223.723
 21
77.7145
  0
LINE
  8
0
 10
-223.723
 20
77.7145
 11
-223.393
 21
77.533
  0
LINE
  8
0
 10
-223.393
 20
77.533
 11
-223.088
 21
77.3115
  0
LINE
  8
0
 10
-223.088
 20
77.3115
 11
-222.813
 21
77.0536
  0
LINE
  8
0
 10
-222.813
 20
77.0536
 11
-222.573
 21
76.7634
  0
LINE
  8
0
 10
-222.573
 20
76.7634
 11
-222.371
 21
76.4453
  0
LINE
  8
0
 10
-222.371
 20
76.4453
 11
-222.211
 21
76.1044
  0
LINE
  8
0
 10
-222.211
 20
76.1044
 11
-222.094
 21
75.7461
  0
LINE
  8
0
 10
-222.094
 20
75.7461
 11
-222.024
 21
75.376
  0
LINE
  8
0
 10
-222.024
 20
75.376
 11
-222
 21
75
  0
LINE
  8
0
 10
-222
 20
75
 11
-222.024
 21
74.624
  0
LINE
  8
0
 10
-222.024
 20
74.624
 11
-222.094
 21
74.2539
  0
LINE
  8
0
 10
-222.094
 20
74.2539
 11
-222.211
 21
73.8956
  0
LINE
  8
0
 10
-222.211
 20
73.8956
 11
-222.371
 21
73.5547
  0
LINE
  8
0
 10
-222.371
 20
73.5547
 11
-222.573
 21
73.2366
  0
LINE
  8
0
 10
-222.573
 20
73.2366
 11
-222.813
 21
72.9464
  0
LINE
  8
0
 10
-222.813
 20
72.9464
 11
-223.088
 21
72.6885
  0
LINE
  8
0
 10
-223.088
 20
72.6885
 11
-223.393
 21
72.467
  0
LINE
  8
0
 10
-223.393
 20
72.467
 11
-223.723
 21
72.2855
  0
LINE
  8
0
 10
-223.723
 20
72.2855
 11
-224.073
 21
72.1468
  0
LINE
  8
0
 10
-224.073
 20
72.1468
 11
-224.438
 21
72.0531
  0
LINE
  8
0
 10
-224.438
 20
72.0531
 11
-224.812
 21
72.0059
  0
LINE
  8
0
 10
-224.812
 20
72.0059
 11
-225.188
 21
72.0059
  0
LINE
  8
0
 10
145.448
 20
-72.3569
 11
136.415
 21
-71.2158
  0
LINE
  8
0
 10
136.415
 20
-71.2158
 11
127.596
 21
-68.9516
  0
LINE
  8
0
 10
127.596
 20
-68.9516
 11
119.131
 21
-65.6
  0
LINE
  8
0
 10
119.131
 20
-65.6
 11
111.153
 21
-61.2138
  0
LINE
  8
0
 10
111.153
 20
-61.2138
 11
103.787
 21
-55.8622
  0
LINE
  8
0
 10
103.787
 20
-55.8622
 11
97.1498
 21
-49.6297
  0
LINE
  8
0
 10
97.1498
 20
-49.6297
 11
91.3463
 21
-42.6144
  0
LINE
  8
0
 10
91.3463
 20
-42.6144
 11
86.4678
 21
-34.9271
  0
LINE
  8
0
 10
86.4678
 20
-34.9271
 11
82.5912
 21
-26.689
  0
LINE
  8
0
 10
82.5912
 20
-26.689
 11
79.7777
 21
-18.03
  0
LINE
  8
0
 10
79.7777
 20
-18.03
 11
78.0717
 21
-9.08665
  0
LINE
  8
0
 10
78.0717
 20
-9.08665
 11
77.5
 21
0
  0
LINE
  8
0
 10
77.5
 20
0
 11
78.0717
 21
9.08665
  0
LINE
  8
0
 10
78.0717
 20
9.08665
 11
79.7777
 21
18.03
  0
LINE
  8
0
 10
79.7777
 20
18.03
 11
82.5912
 21
26.689
  0
LINE
  8
0
 10
82.5912
 20
26.689
 11
86.4678
 21
34.9271
  0
LINE
  8
0
 10
86.4678
 20
34.9271
 11
91.3463
 21
42.6144
  0
LINE
  8
0
 10
91.3463
 20
42.6144
 11
97.1498
 21
49.6297
  0
LINE
  8
0
 10
97.1498
 20
49.6297
 11
103.787
 21
55.8622
  0
LINE
  8
0
 10
103.787
 20
55.8622
 11
111.153
 21
61.2138
  0
LINE
  8
0
 10
111.153
 20
61.2138
 11
119.131
 21
65.6
  0
LINE
  8
0
 10
119.131
 20
65.6
 11
127.596
 21
68.9516
  0
LINE
  8
0
 10
127.596
 20
68.9516
 11
136.415
 21
71.2158
  0
LINE
  8
0
 10
136.415
 20
71.2158
 11
145.448
 21
72.3569
  0
LINE
  8
0
 10
145.448
 20
72.3569
 11
154.552
 21
72.3569
  0
LINE
  8
0
 10
154.552
 20
72.3569
 11
163.585
 21
71.2158
  0
LINE
  8
0
 10
163.585
 20
71.2158
 11
172.404
 21
68.9516
  0
LINE
  8
0
 10
172.404
 20
68.9516
 11
180.869
 21
65.6
  0
LINE
  8
0
 10
180.869
 20
65.6
 11
188.847
 21
61.2138
  0
LINE
  8
0
 10
188.847
 20
61.2138
 11
196.213
 21
55.8622
  0
LINE
  8
0
 10
196.213
 20
55.8622
 11
202.85
 21
49.6297
  0
LINE
  8
0
 10
202.85
 20
49.6297
 11
208.654
 21
42.6144
  0
LINE
  8
0
 10
208.654
 20
42.6144
 11
213.532
 21
34.9271
  0
LINE
  8
0
 10
213.532
 20
34.9271
 11
217.409
 21
26.689
  0
LINE
  8
0
 10
217.409
 20
26.689
 11
220.222
 21
18.03
  0
LINE
  8
0
 10
220.222
 20
18.03
 11
221.928
 21
9.08665
  0
LINE
  8
0
 10
221.928
 20
9.08665
 11
222.5
 21
0
  0
LINE
  8
0
 10
222.5
 20
0
 11
221.928
 21
-9.08665
  0
LINE
  8
0
 10
221.928
 20
-9.08665
 11
220.222
 21
-18.03
  0
LINE
  8
0
 10
220.222
 20
-18.03
 11
217.409
 21
-26.689
  0
LINE
  8
0
 10
217.409
 20
-26.689
 11
213.532
 21
-34.9271
  0
LINE
  8
0
 10
213.532
 20
-34.9271
 11
208.654
 21
-42.6144
  0
LINE
  8
0
 10
208.654
 20
-42.6144
 11
202.85
 21
-49.6297
  0
LINE
  8
0
 10
202.85
 20
-49.6297
 11
196.213
 21
-55.8622
  0
LINE
  8
0
 10
196.213
 20
-55.8622
 11
188.847
 21
-61.2138
  0
LINE
  8
0
 10
188.847
 20
-61.2138
 11
180.869
 21
-65.6
  0
LINE
  8
0
 10
180.869
 20
-65.6
 11
172.404
 21
-68.9516
  0
LINE
  8
0
 10
172.404
 20
-68.9516
 11
163.585
 21
-71.2158
  0
LINE
  8
0
 10
163.585
 20
-71.2158
 11
154.552
 21
-72.3569
  0
LINE
  8
0
 10
154.552
 20
-72.3569
 11
145.448
 21
-72.3569
  0
LINE
  8
0
 10
-4.55231
 20
-72.3569
 11
-13.5851
 21
-71.2158
  0
LINE
  8
0
 10
-13.5851
 20
-71.2158
 11
-22.4037
 21
-68.9516
  0
LINE
  8
0
 10
-22.4037
 20
-68.9516
 11
-30.869
 21
-65.6
  0
LINE
  8
0
 10
-30.869
 20
-65.6
 11
-38.8474
 21
-61.2138
  0
LINE
  8
0
 10
-38.8474
 20
-61.2138
 11
-46.2132
 21
-55.8622
  0
LINE
  8
0
 10
-46.2132
 20
-55.8622
 11
-52.8502
 21
-49.6297
  0
LINE
  8
0
 10
-52.8502
 20
-49.6297
 11
-58.6537
 21
-42.6144
  0
LINE
  8
0
 10
-58.6537
 20
-42.6144
 11
-63.5322
 21
-34.9271
  0
LINE
  8
0
 10
-63.5322
 20
-34.9271
 11
-67.4088
 21
-26.689
  0
LINE
  8
0
 10
-67.4088
 20
-26.689
 11
-70.2223
 21
-18.03
  0
LINE
  8
0
 10
-70.2223
 20
-18.03
 11
-71.9283
 21
-9.08665
  0
LINE
  8
0
 10
-71.9283
 20
-9.08665
 11
-72.5
 21
0
  0
LINE
  8
0
 10
-72.5
 20
0
 11
-71.9283
 21
9.08665
  0
LINE
  8
0
 10
-71.9283
 20
9.08665
 11
-70.2223
 21
18.03
  0
LINE
  8
0
 10
-70.2223
 20
18.03
 11
-67.4088
 21
26.689
  0
LINE
  8
0
 10
-67.4088
 20
26.689
 11
-63.5322
 21
34.9271
  0
LINE
  8
0
 10
-63.5322
 20
34.9271
 11
-58.6537
 21
42.6144
  0
LINE
  8
0
 10
-58.6537
 20
42.6144
 11
-52.8502
 21
49.6297
  0
LINE
  8
0
 10
-52.8502
 20
49.6297
 11
-46.2132
 21
55.8622
  0
LINE
  8
0
 10
-46.2132
 20
55.8622
 11
-38.8474
 21
61.2138
  0
LINE
  8
0
 10
-38.8474
 20
61.2138
 11
-30.869
 21
65.6
  0
LINE
  8
0
 10
-30.869
 20
65.6
 11
-22.4037
 21
68.9516
  0
LINE
  8
0
 10
-22.4037
 20
68.9516
 11
-13.5851
 21
71.2158
  0
LINE
  8
0
 10
-13.5851
 20
71.2158
 11
-4.55231
 21
72.3569
  0
LINE
  8
0
 10
-4.55231
 20
72.3569
 11
4.55231
 21
72.3569
  0
LINE
  8
0
 10
4.55231
 20
72.3569
 11
13.5851
 21
71.2158
  0
LINE
  8
0
 10
13.5851
 20
71.2158
 11
22.4037
 21
68.9516
  0
LINE
  8
0
 10
22.4037
 20
68.9516
 11
30.869
 21
65.6
  0
LINE
  8
0
 10
30.869
 20
65.6
 11
38.8474
 21
61.2138
  0
LINE
  8
0
 10
38.8474
 20
61.2138
 11
46.2132
 21
55.8622
  0
LINE
  8
0
 10
46.2132
 20
55.8622
 11
52.8502
 21
49.6297
  0
LINE
  8
0
 10
52.8502
 20
49.6297
 11
58.6537
 21
42.6144
  0
LINE
  8
0
 10
58.6537
 20
42.6144
 11
63.5322
 21
34.9271
  0
LINE
  8
0
 10
63.5322
 20
34.9271
 11
67.4088
 21
26.689
  0
LINE
  8
0
 10
67.4088
 20
26.689
 11
70.2223
 21
18.03
  0
LINE
  8
0
 10
70.2223
 20
18.03
 11
71.9283
 21
9.08665
  0
LINE
  8
0
 10
71.9283
 20
9.08665
 11
72.5
 21
0
  0
LINE
  8
0
 10
72.5
 20
0
 11
71.9283
 21
-9.08665
  0
LINE
  8
0
 10
71.9283
 20
-9.08665
 11
70.2223
 21
-18.03
  0
LINE
  8
0
 10
70.2223
 20
-18.03
 11
67.4088
 21
-26.689
  0
LINE
  8
0
 10
67.4088
 20
-26.689
 11
63.5322
 21
-34.9271
  0
LINE
  8
0
 10
63.5322
 20
-34.9271
 11
58.6537
 21
-42.6144
  0
LINE
  8
0
 10
58.6537
 20
-42.6144
 11
52.8502
 21
-49.6297
  0
LINE
  8
0
 10
52.8502
 20
-49.6297
 11
46.2132
 21
-55.8622
  0
LINE
  8
0
 10
46.2132
 20
-55.8622
 11
38.8474
 21
-61.2138
  0
LINE
  8
0
 10
38.8474
 20
-61.2138
 11
30.869
 21
-65.6
  0
LINE
  8
0
 10
30.869
 20
-65.6
 11
22.4037
 21
-68.9516
  0
LINE
  8
0
 10
22.4037
 20
-68.9516
 11
13.5851
 21
-71.2158
  0
LINE
  8
0
 10
13.5851
 20
-71.2158
 11
4.55231
 21
-72.3569
  0
LINE
  8
0
 10
4.55231
 20
-72.3569
 11
-4.55231
 21
-72.3569
  0
LINE
  8
0
 10
-154.552
 20
-72.3569
 11
-163.585
 21
-71.2158
  0
LINE
  8
0
 10
-163.585
 20
-71.2158
 11
-172.404
 21
-68.9516
  0
LINE
  8
0
 10
-172.404
 20
-68.9516
 11
-180.869
 21
-65.6
  0
LINE
  8
0
 10
-180.869
 20
-65.6
 11
-188.847
 21
-61.2138
  0
LINE
  8
0
 10
-188.847
 20
-61.2138
 11
-196.213
 21
-55.8622
  0
LINE
  8
0
 10
-196.213
 20
-55.8622
 11
-202.85
 21
-49.6297
  0
LINE
  8
0
 10
-202.85
 20
-49.6297
 11
-208.654
 21
-42.6144
  0
LINE
  8
0
 10
-208.654
 20
-42.6144
 11
-213.532
 21
-34.9271
  0
LINE
  8
0
 10
-213.532
 20
-34.9271
 11
-217.409
 21
-26.689
  0
LINE
  8
0
 10
-217.409
 20
-26.689
 11
-220.222
 21
-18.03
  0
LINE
  8
0
 10
-220.222
 20
-18.03
 11
-221.928
 21
-9.08665
  0
LINE
  8
0
 10
-221.928
 20
-9.08665
 11
-222.5
 21
0
  0
LINE
  8
0
 10
-222.5
 20
0
 11
-221.928
 21
9.08665
  0
LINE
  8
0
 10
-221.928
 20
9.08665
 11
-220.222
 21
18.03
  0
LINE
  8
0
 10
-220.222
 20
18.03
 11
-217.409
 21
26.689
  0
LINE
  8
0
 10
-217.409
 20
26.689
 11
-213.532
 21
34.9271
  0
LINE
  8
0
 10
-213.532
 20
34.9271
 11
-208.654
 21
42.6144
  0
LINE
  8
0
 10
-208.654
 20
42.6144
 11
-202.85
 21
49.6297
  0
LINE
  8
0
 10
-202.85
 20
49.6297
 11
-196.213
 21
55.8622
  0
LINE
  8
0
 10
-196.213
 20
55.8622
 11
-188.847
 21
61.2138
  0
LINE
  8
0
 10
-188.847
 20
61.2138
 11
-180.869
 21
65.6
  0
LINE
  8
0
 10
-180.869
 20
65.6
 11
-172.404
 21
68.9516
  0
LINE
  8
0
 10
-172.404
 20
68.9516
 11
-163.585
 21
71.2158
  0
LINE
  8
0
 10
-163.585
 20
71.2158
 11
-154.552
 21
72.3569
  0
LINE
  8
0
 10
-154.552
 20
72.3569
 11
-145.448
 21
72.3569
  0
LINE
  8
0
 10
-145.448
 20
72.3569
 11
-136.415
 21
71.2158
  0
LINE
  8
0
 10
-136.415
 20
71.2158
 11
-127.596
 21
68.9516
  0
LINE
  8
0
 10
-127.596
 20
68.9516
 11
-119.131
 21
65.6
  0
LINE
  8
0
 10
-119.131
 20
65.6
 11
-111.153
 21
61.2138
  0
LINE
  8
0
 10
-111.153
 20
61.2138
 11
-103.787
 21
55.8622
  0
LINE
  8
0
 10
-103.787
 20
55.8622
 11
-97.1498
 21
49.6297
  0
LINE
  8
0
 10
-97.1498
 20
49.6297
 11
-91.3463
 21
42.6144
  0
LINE
  8
0
 10
-91.3463
 20
42.6144
 11
-86.4678
 21
34.9271
  0
LINE
  8
0
 10
-86.4678
 20
34.9271
 11
-82.5912
 21
26.689
  0
LINE
  8
0
 10
-82.5912
 20
26.689
 11
-79.7777
 21
18.03
  0
LINE
  8
0
 10
-79.7777
 20
18.03
 11
-78.0717
 21
9.08665
  0
LINE
  8
0
 10
-78.0717
 20
9.08665
 11
-77.5
 21
0
  0
LINE
  8
0
 10
-77.5
 20
0
 11
-78.0717
 21
-9.08665
  0
LINE
  8
0
 10
-78.0717
 20
-9.08665
 11
-79.7777
 21
-18.03
  0
LINE
  8
0
 10
-79.7777
 20
-18.03
 11
-82.5912
 21
-26.689
  0
LINE
  8
0
 10
-82.5912
 20
-26.689
 11
-86.4678
 21
-34.9271
  0
LINE
  8
0
 10
-86.4678
 20
-34.9271
 11
-91.3463
 21
-42.6144
  0
LINE
  8
0
 10
-91.3463
 20
-42.6144
 11
-97.1498
 21
-49.6297
  0
LINE
  8
0
 10
-97.1498
 20
-49.6297
 11
-103.787
 21
-55.8622
  0
LINE
  8
0
 10
-103.787
 20
-55.8622
 11
-111.153
 21
-61.2138
  0
LINE
  8
0
 10
-111.153
 20
-61.2138
 11
-119.131
 21
-65.6
  0
LINE
  8
0
 10
-119.131
 20
-65.6
 11
-127.596
 21
-68.9516
  0
LINE
  8
0
 10
-127.596
 20
-68.9516
 11
-136.415
 21
-71.2158
  0
LINE
  8
0
 10
-136.415
 20
-71.2158
 11
-145.448
 21
-72.3569
  0
LINE
  8
0
 10
-145.448
 20
-72.3569
 11
-154.552
 21
-72.3569
  0
LINE
  8
0
 10
224.812
 20
-77.9941
 11
224.438
 21
-77.9469
  0
LINE
  8
0
 10
224.438
 20
-77.9469
 11
224.073
 21
-77.8532
  0
LINE
  8
0
 10
224.073
 20
-77.8532
 11
223.723
 21
-77.7145
  0
LINE
  8
0
 10
223.723
 20
-77.7145
 11
223.393
 21
-77.533
  0
LINE
  8
0
 10
223.393
 20
-77.533
 11
223.088
 21
-77.3115
  0
LINE
  8
0
 10
223.088
 20
-77.3115
 11
222.813
 21
-77.0536
  0
LINE
  8
0
 10
222.813
 20
-77.0536
 11
222.573
 21
-76.7634
  0
LINE
  8
0
 10
222.573
 20
-76.7634
 11
222.371
 21
-76.4453
  0
LINE
  8
0
 10
222.371
 20
-76.4453
 11
222.211
 21
-76.1044
  0
LINE
  8
0
 10
222.211
 20
-76.1044
 11
222.094
 21
-75.7461
  0
LINE
  8
0
 10
222.094
 20
-75.7461
 11
222.024
 21
-75.376
  0
LINE
  8
0
 10
222.024
 20
-75.376
 11
222
 21
-75
  0
LINE
  8
0
 10
222
 20
-75
 11
222.024
 21
-74.624
  0
LINE
  8
0
 10
222.024
 20
-74.624
 11
222.094
 21
-74.2539
  0
LINE
  8
0
 10
222.094
 20
-74.2539
 11
222.211
 21
-73.8956
  0
LINE
  8
0
 10
222.211
 20
-73.8956
 11
222.371
 21
-73.5547
  0
LINE
  8
0
 10
222.371
 20
-73.5547
 11
222.573
 21
-73.2366
  0
LINE
  8
0
 10
222.573
 20
-73.2366
 11
222.813
 21
-72.9464
  0
LINE
  8
0
 10
222.813
 20
-72.9464
 11
223.088
 21
-72.6885
  0
LINE
  8
0
 10
223.088
 20
-72.6885
 11
223.393
 21
-72.467
  0
LINE
  8
0
 10
223.393
 20
-72.467
 11
223.723
 21
-72.2855
  0
LINE
  8
0
 10
223.723
 20
-72.2855
 11
224.073
 21
-72.1468
  0
LINE
  8
0
 10
224.073
 20
-72.1468
 11
224.438
 21
-72.0531
  0
LINE
  8
0
 10
224.438
 20
-72.0531
 11
224.812
 21
-72.0059
  0
LINE
  8
0
 10
224.812
 20
-72.0059
 11
225.188
 21
-72.0059
  0
LINE
  8
0
 10
225.188
 20
-72.0059
 11
225.562
 21
-72.0531
  0
LINE
  8
0
 10
225.562
 20
-72.0531
 11
225.927
 21
-72.1468
  0
LINE
  8
0
 10
225.927
 20
-72.1468
 11
226.277
 21
-72.2855
  0
LINE
  8
0
 10
226.277
 20
-72.2855
 11
226.607
 21
-72.467
  0
LINE
  8
0
 10
226.607
 20
-72.467
 11
226.912
 21
-72.6885
  0
LINE
  8
0
 10
226.912
 20
-72.6885
 11
227.187
 21
-72.9464
  0
LINE
  8
0
 10
227.187
 20
-72.9464
 11
227.427
 21
-73.2366
  0
LINE
  8
0
 10
227.427
 20
-73.2366
 11
227.629
 21
-73.5547
  0
LINE
  8
0
 10
227.629
 20
-73.5547
 11
227.789
 21
-73.8956
  0
LINE
  8
0
 10
227.789
 20
-73.8956
 11
227.906
 21
-74.2539
  0
LINE
  8
0
 10
227.906
 20
-74.2539
 11
227.976
 21
-74.624
  0
LINE
  8
0
 10
227.976
 20
-74.624
 11
228
 21
-75
  0
LINE
  8
0
 10
228
 20
-75
 11
227.976
 21
-75.376
  0
LINE
  8
0
 10
227.976
 20
-75.376
 11
227.906
 21
-75.7461
  0
LINE
  8
0
 10
227.906
 20
-75.7461
 11
227.789
 21
-76.1044
  0
LINE
  8
0
 10
227.789
 20
-76.1044
 11
227.629
 21
-76.4453
  0
LINE
  8
0
 10
227.629
 20
-76.4453
 11
227.427
 21
-76.7634
  0
LINE
  8
0
 10
227.427
 20
-76.7634
 11
227.187
 21
-77.0536
  0
LINE
  8
0
 10
227.187
 20
-77.0536
 11
226.912
 21
-77.3115
  0
LINE
  8
0
 10
226.912
 20
-77.3115
 11
226.607
 21
-77.533
  0
LINE
  8
0
 10
226.607
 20
-77.533
 11
226.277
 21
-77.7145
  0
LINE
  8
0
 10
226.277
 20
-77.7145
 11
225.927
 21
-77.8532
  0
LINE
  8
0
 10
225.927
 20
-77.8532
 11
225.562
 21
-77.9469
  0
LINE
  8
0
 10
225.562
 20
-77.9469
 11
225.188
 21
-77.9941
  0
LINE
  8
0
 10
225.188
 20
-77.9941
 11
224.812
 21
-77.9941
  0
LINE
  8
0
 10
-225.188
 20
-77.9941
 11
-225.562
 21
-77.9469
  0
LINE
  8
0
 10
-225.562
 20
-77.9469
 11
-225.927
 21
-77.8532
  0
LINE
  8
0
 10
-225.927
 20
-77.8532
 11
-226.277
 21
-77.7145
  0
LINE
  8
0
 10
-226.277
 20
-77.7145
 11
-226.607
 21
-77.533
  0
LINE
  8
0
 10
-226.607
 20
-77.533
 11
-226.912
 21
-77.3115
  0
LINE
  8
0
 10
-226.912
 20
-77.3115
 11
-227.187
 21
-77.0536
  0
LINE
  8
0
 10
-227.187
 20
-77.0536
 11
-227.427
 21
-76.7634
  0
LINE
  8
0
 10
-227.427
 20
-76.7634
 11
-227.629
 21
-76.4453
  0
LINE
  8
0
 10
-227.629
 20
-76.4453
 11
-227.789
 21
-76.1044
  0
LINE
  8
0
 10
-227.789
 20
-76.1044
 11
-227.906
 21
-75.7461
  0
LINE
  8
0
 10
-227.906
 20
-75.7461
 11
-227.976
 21
-75.376
  0
LINE
  8
0
 10
-227.976
 20
-75.376
 11
-228
 21
-75
  0
LINE
  8
0
 10
-228
 20
-75
 11
-227.976
 21
-74.624
  0
LINE
  8
0
 10
-227.976
 20
-74.624
 11
-227.906
 21
-74.2539
  0
LINE
  8
0
 10
-227.906
 20
-74.2539
 11
-227.789
 21
-73.8956
  0
LINE
  8
0
 10
-227.789
 20
-73.8956
 11
-227.629
 21
-73.5547
  0
LINE
  8
0
 10
-227.629
 20
-73.5547
 11
-227.427
 21
-73.2366
  0
LINE
  8
0
 10
-227.427
 20
-73.2366
 11
-227.187
 21
-72.9464
  0
LINE
  8
0
 10
-227.187
 20
-72.9464
 11
-226.912
 21
-72.6885
  0
LINE
  8
0
 10
-226.912
 20
-72.6885
 11
-226.607
 21
-72.467
  0
LINE
  8
0
 10
-226.607
 20
-72.467
 11
-226.277
 21
-72.2855
  0
LINE
  8
0
 10
-226.277
 20
-72.2855
 11
-225.927
 21
-72.1468
  0
LINE
  8
0
 10
-225.927
 20
-72.1468
 11
-225.562
 21
-72.0531
  0
LINE
  8
0
 10
-225.562
 20
-72.0531
 11
-225.188
 21
-72.0059
  0
LINE
  8
0
 10
-225.188
 20
-72.0059
 11
-224.812
 21
-72.0059
  0
LINE
  8
0
 10
-224.812
 20
-72.0059
 11
-224.438
 21
-72.0531
  0
LINE
  8
0
 10
-224.438
 20
-72.0531
 11
-224.073
 21
-72.1468
  0
LINE
  8
0
 10
-224.073
 20
-72.1468
 11
-223.723
 21
-72.2855
  0
LINE
  8
0
 10
-223.723
 20
-72.2855
 11
-223.393
 21
-72.467
  0
LINE
  8
0
 10
-223.393
 20
-72.467
 11
-223.088
 21
-72.6885
  0
LINE
  8
0
 10
-223.088
 20
-72.6885
 11
-222.813
 21
-72.9464
  0
LINE
  8
0
 10
-222.813
 20
-72.9464
 11
-222.573
 21
-73.2366
  0
LINE
  8
0
 10
-222.573
 20
-73.2366
 11
-222.371
 21
-73.5547
  0
LINE
  8
0
 10
-222.371
 20
-73.5547
 11
-222.211
 21
-73.8956
  0
LINE
  8
0
 10
-222.211
 20
-73.8956
 11
-222.094
 21
-74.2539
  0
LINE
  8
0
 10
-222.094
 20
-74.2539
 11
-222.024
 21
-74.624
  0
LINE
  8
0
 10
-222.024
 20
-74.624
 11
-222
 21
-75
  0
LINE
  8
0
 10
-222
 20
-75
 11
-222.024
 21
-75.376
  0
LINE
  8
0
 10
-222.024
 20
-75.376
 11
-222.094
 21
-75.7461
  0
LINE
  8
0
 10
-222.094
 20
-75.7461
 11
-222.211
 21
-76.1044
  0
LINE
  8
0
 10
-222.211
 20
-76.1044
 11
-222.371
 21
-76.4453
  0
LINE
  8
0
 10
-222.371
 20
-76.4453
 11
-222.573
 21
-76.7634
  0
LINE
  8
0
 10
-222.573
 20
-76.7634
 11
-222.813
 21
-77.0536
  0
LINE
  8
0
 10
-222.813
 20
-77.0536
 11
-223.088
 21
-77.3115
  0
LINE
  8
0
 10
-223.088
 20
-77.3115
 11
-223.393
 21
-77.533
  0
LINE
  8
0
 10
-223.393
 20
-77.533
 11
-223.723
 21
-77.7145
  0
LINE
  8
0
 10
-223.723
 20
-77.7145
 11
-224.073
 21
-77.8532
  0
LINE
  8
0
 10
-224.073
 20
-77.8532
 11
-224.438
 21
-77.9469
  0
LINE
  8
0
 10
-224.438
 20
-77.9469
 11
-224.812
 21
-77.9941
  0
LINE
  8
0
 10
-224.812
 20
-77.9941
 11
-225.188
 21
-77.9941
  0
ENDSEC
  0
SECTION
  2
OBJECTS
  0
DICTIONARY
  0
ENDSEC
  0
EOF
