<?xml version="1.0" standalone="no"?>
<!DOCTYPE svg PUBLIC "-//W3C//DTD SVG 1.1//EN" "http://www.w3.org/Graphics/SVG/1.1/DTD/svg11.dtd">
<svg width="164mm" height="150mm" viewBox="-82 -75 164 150" xmlns="http://www.w3.org/2000/svg" version="1.1">
<title>OpenSCAD Model</title>
<path d="
M 77.9369,74.4114 L 78.5451,74.2553 L 79.1289,74.0241 L 79.6791,73.7216 L 80.1871,73.3526 L 80.6448,72.9227
 L 81.0451,72.4389 L 81.3815,71.9088 L 81.6489,71.3406 L 81.8429,70.7434 L 81.9606,70.1267 L 82,69.5
 L 82,-69.5 L 81.9606,-70.1267 L 81.8429,-70.7434 L 81.6489,-71.3406 L 81.3815,-71.9088 L 81.0451,-72.4389
 L 80.6448,-72.9227 L 80.1871,-73.3526 L 79.6791,-73.7216 L 79.1289,-74.0241 L 78.5451,-74.2553 L 77.9369,-74.4114
 L 77.3139,-74.4901 L -77.3139,-74.4901 L -77.9369,-74.4114 L -78.5451,-74.2553 L -79.1289,-74.0241 L -79.6791,-73.7216
 L -80.1871,-73.3526 L -80.6448,-72.9227 L -81.0451,-72.4389 L -81.3815,-71.9088 L -81.6489,-71.3406 L -81.8429,-70.7434
 L -81.9606,-70.1267 L -82,-69.5 L -82,69.5 L -81.9606,70.1267 L -81.8429,70.7434 L -81.6489,71.3406
 L -81.3815,71.9088 L -81.0451,72.4389 L -80.6448,72.9227 L -80.1871,73.3526 L -79.6791,73.7216 L -79.1289,74.0241
 L -78.5451,74.2553 L -77.9369,74.4114 L -77.3139,74.4901 L 77.3139,74.4901 z
M -75.1884,-64.5059 L -75.5621,-64.5531 L -75.927,-64.6468 L -76.2773,-64.7855 L -76.6075,-64.967 L -76.9123,-65.1885
 L -77.1869,-65.4464 L -77.427,-65.7366 L -77.6289,-66.0547 L -77.7893,-66.3956 L -77.9057,-66.7539 L -77.9763,-67.124
 L -78,-67.5 L -77.9763,-67.876 L -77.9057,-68.2461 L -77.7893,-68.6044 L -77.6289,-68.9453 L -77.427,-69.2634
 L -77.1869,-69.5536 L -76.9123,-69.8115 L -76.6075,-70.033 L -76.2773,-70.2145 L -75.927,-70.3532 L -75.5621,-70.4469
 L -75.1884,-70.4941 L -74.8116,-70.4941 L -74.4379,-70.4469 L -74.073,-70.3532 L -73.7227,-70.2145 L -73.3925,-70.033
 L -73.0877,-69.8115 L -72.8131,-69.5536 L -72.573,-69.2634 L -72.3711,-68.9453 L -72.2107,-68.6044 L -72.0943,-68.2461
 L -72.0237,-67.876 L -72,-67.5 L -72.0237,-67.124 L -72.0943,-66.7539 L -72.2107,-66.3956 L -72.3711,-66.0547
 L -72.573,-65.7366 L -72.8131,-65.4464 L -73.0877,-65.1885 L -73.3925,-64.967 L -73.7227,-64.7855 L -74.073,-64.6468
 L -74.4379,-64.5531 L -74.8116,-64.5059 z
M 74.8116,-64.5059 L 74.4379,-64.5531 L 74.073,-64.6468 L 73.7227,-64.7855 L 73.3925,-64.967 L 73.0877,-65.1885
 L 72.8131,-65.4464 L 72.573,-65.7366 L 72.3711,-66.0547 L 72.2107,-66.3956 L 72.0943,-66.7539 L 72.0237,-67.124
 L 72,-67.5 L 72.0237,-67.876 L 72.0943,-68.2461 L 72.2107,-68.6044 L 72.3711,-68.9453 L 72.573,-69.2634
 L 72.8131,-69.5536 L 73.0877,-69.8115 L 73.3925,-70.033 L 73.7227,-70.2145 L 74.073,-70.3532 L 74.4379,-70.4469
 L 74.8116,-70.4941 L 75.1884,-70.4941 L 75.5621,-70.4469 L 75.927,-70.3532 L 76.2773,-70.2145 L 76.6075,-70.033
 L 76.9123,-69.8115 L 77.1869,-69.5536 L 77.427,-69.2634 L 77.6289,-68.9453 L 77.7893,-68.6044 L 77.9057,-68.2461
 L 77.9763,-67.876 L 78,-67.5 L 77.9763,-67.124 L 77.9057,-66.7539 L 77.7893,-66.3956 L 77.6289,-66.0547
 L 77.427,-65.7366 L 77.1869,-65.4464 L 76.9123,-65.1885 L 76.6075,-64.967 L 76.2773,-64.7855 L 75.927,-64.6468
 L 75.5621,-64.5531 L 75.1884,-64.5059 z
M -4.08138,64.8717 L -12.1798,63.8487 L -20.0861,61.8187 L -27.6756,58.8138 L -34.8287,54.8813 L -41.4326,50.0834
 L -47.3829,44.4956 L -52.5861,38.206 L -56.9599,31.314 L -60.4355,23.9281 L -62.9579,16.1648 L -64.4875,8.14665
 L -65,-0 L -64.4875,-8.14665 L -62.9579,-16.1648 L -60.4355,-23.9281 L -56.9599,-31.314 L -52.5861,-38.206
 L -47.3829,-44.4956 L -41.4326,-50.0834 L -34.8287,-54.8813 L -27.6756,-58.8138 L -20.0861,-61.8187 L -12.1798,-63.8487
 L -4.08138,-64.8717 L 4.08138,-64.8717 L 12.1798,-63.8487 L 20.0861,-61.8187 L 27.6756,-58.8138 L 34.8287,-54.8813
 L 41.4326,-50.0834 L 47.3829,-44.4956 L 52.5861,-38.206 L 56.9599,-31.314 L 60.4355,-23.9281 L 62.9579,-16.1648
 L 64.4875,-8.14665 L 65,-0 L 64.4875,8.14665 L 62.9579,16.1648 L 60.4355,23.9281 L 56.9599,31.314
 L 52.5861,38.206 L 47.3829,44.4956 L 41.4326,50.0834 L 34.8287,54.8813 L 27.6756,58.8138 L 20.0861,61.8187
 L 12.1798,63.8487 L 4.08138,64.8717 z
M -75.0942,-58.503 L -75.2811,-58.5266 L -75.4635,-58.5734 L -75.6387,-58.6428 L -75.8037,-58.7335 L -75.9561,-58.8442
 L -76.0934,-58.9732 L -76.2135,-59.1183 L -76.3145,-59.2774 L -76.3947,-59.4478 L -76.4529,-59.627 L -76.4882,-59.812
 L -76.5,-60 L -76.4882,-60.188 L -76.4529,-60.373 L -76.3947,-60.5522 L -76.3145,-60.7226 L -76.2135,-60.8817
 L -76.0934,-61.0268 L -75.9561,-61.1558 L -75.8037,-61.2665 L -75.6387,-61.3572 L -75.4635,-61.4266 L -75.2811,-61.4734
 L -75.0942,-61.497 L -74.9058,-61.497 L -74.7189,-61.4734 L -74.5365,-61.4266 L -74.3613,-61.3572 L -74.1963,-61.2665
 L -74.0439,-61.1558 L -73.9065,-61.0268 L -73.7865,-60.8817 L -73.6855,-60.7226 L -73.6053,-60.5522 L -73.5471,-60.373
 L -73.5118,-60.188 L -73.5,-60 L -73.5118,-59.812 L -73.5471,-59.627 L -73.6053,-59.4478 L -73.6855,-59.2774
 L -73.7865,-59.1183 L -73.9065,-58.9732 L -74.0439,-58.8442 L -74.1963,-58.7335 L -74.3613,-58.6428 L -74.5365,-58.5734
 L -74.7189,-58.5266 L -74.9058,-58.503 z
M 74.9058,-58.503 L 74.7189,-58.5266 L 74.5365,-58.5734 L 74.3613,-58.6428 L 74.1963,-58.7335 L 74.0439,-58.8442
 L 73.9065,-58.9732 L 73.7865,-59.1183 L 73.6855,-59.2774 L 73.6053,-59.4478 L 73.5471,-59.627 L 73.5118,-59.812
 L 73.5,-60 L 73.5118,-60.188 L 73.5471,-60.373 L 73.6053,-60.5522 L 73.6855,-60.7226 L 73.7865,-60.8817
 L 73.9065,-61.0268 L 74.0439,-61.1558 L 74.1963,-61.2665 L 74.3613,-61.3572 L 74.5365,-61.4266 L 74.7189,-61.4734
 L 74.9058,-61.497 L 75.0942,-61.497 L 75.2811,-61.4734 L 75.4635,-61.4266 L 75.6387,-61.3572 L 75.8037,-61.2665
 L 75.9561,-61.1558 L 76.0934,-61.0268 L 76.2135,-60.8817 L 76.3145,-60.7226 L 76.3947,-60.5522 L 76.4529,-60.373
 L 76.4882,-60.188 L 76.5,-60 L 76.4882,-59.812 L 76.4529,-59.627 L 76.3947,-59.4478 L 76.3145,-59.2774
 L 76.2135,-59.1183 L 76.0934,-58.9732 L 75.9561,-58.8442 L 75.8037,-58.7335 L 75.6387,-58.6428 L 75.4635,-58.5734
 L 75.2811,-58.5266 L 75.0942,-58.503 z
M 74.8116,-49.5059 L 74.4379,-49.5531 L 74.073,-49.6468 L 73.7227,-49.7855 L 73.3925,-49.967 L 73.0877,-50.1885
 L 72.8131,-50.4464 L 72.573,-50.7366 L 72.3711,-51.0547 L 72.2107,-51.3956 L 72.0943,-51.7539 L 72.0237,-52.124
 L 72,-52.5 L 72.0237,-52.876 L 72.0943,-53.2461 L 72.2107,-53.6044 L 72.3711,-53.9453 L 72.573,-54.2634
 L 72.8131,-54.5536 L 73.0877,-54.8115 L 73.3925,-55.033 L 73.7227,-55.2145 L 74.073,-55.3532 L 74.4379,-55.4469
 L 74.8116,-55.4941 L 75.1884,-55.4941 L 75.5621,-55.4469 L 75.927,-55.3532 L 76.2773,-55.2145 L 76.6075,-55.033
 L 76.9123,-54.8115 L 77.1869,-54.5536 L 77.427,-54.2634 L 77.6289,-53.9453 L 77.7893,-53.6044 L 77.9057,-53.2461
 L 77.9763,-52.876 L 78,-52.5 L 77.9763,-52.124 L 77.9057,-51.7539 L 77.7893,-51.3956 L 77.6289,-51.0547
 L 77.427,-50.7366 L 77.1869,-50.4464 L 76.9123,-50.1885 L 76.6075,-49.967 L 76.2773,-49.7855 L 75.927,-49.6468
 L 75.5621,-49.5531 L 75.1884,-49.5059 z
M -75.1884,-49.5059 L -75.5621,-49.5531 L -75.927,-49.6468 L -76.2773,-49.7855 L -76.6075,-49.967 L -76.9123,-50.1885
 L -77.1869,-50.4464 L -77.427,-50.7366 L -77.6289,-51.0547 L -77.7893,-51.3956 L -77.9057,-51.7539 L -77.9763,-52.124
 L -78,-52.5 L -77.9763,-52.876 L -77.9057,-53.2461 L -77.7893,-53.6044 L -77.6289,-53.9453 L -77.427,-54.2634
 L -77.1869,-54.5536 L -76.9123,-54.8115 L -76.6075,-55.033 L -76.2773,-55.2145 L -75.927,-55.3532 L -75.5621,-55.4469
 L -75.1884,-55.4941 L -74.8116,-55.4941 L -74.4379,-55.4469 L -74.073,-55.3532 L -73.7227,-55.2145 L -73.3925,-55.033
 L -73.0877,-54.8115 L -72.8131,-54.5536 L -72.573,-54.2634 L -72.3711,-53.9453 L -72.2107,-53.6044 L -72.0943,-53.2461
 L -72.0237,-52.876 L -72,-52.5 L -72.0237,-52.124 L -72.0943,-51.7539 L -72.2107,-51.3956 L -72.3711,-51.0547
 L -72.573,-50.7366 L -72.8131,-50.4464 L -73.0877,-50.1885 L -73.3925,-49.967 L -73.7227,-49.7855 L -74.073,-49.6468
 L -74.4379,-49.5531 L -74.8116,-49.5059 z
M -75.0942,-43.503 L -75.2811,-43.5266 L -75.4635,-43.5734 L -75.6387,-43.6428 L -75.8037,-43.7335 L -75.9561,-43.8442
 L -76.0934,-43.9732 L -76.2135,-44.1183 L -76.3145,-44.2774 L -76.3947,-44.4478 L -76.4529,-44.627 L -76.4882,-44.812
 L -76.5,-45 L -76.4882,-45.188 L -76.4529,-45.373 L -76.3947,-45.5522 L -76.3145,-45.7226 L -76.2135,-45.8817
 L -76.0934,-46.0268 L -75.9561,-46.1558 L -75.8037,-46.2665 L -75.6387,-46.3572 L -75.4635,-46.4266 L -75.2811,-46.4734
 L -75.0942,-46.497 L -74.9058,-46.497 L -74.7189,-46.4734 L -74.5365,-46.4266 L -74.3613,-46.3572 L -74.1963,-46.2665
 L -74.0439,-46.1558 L -73.9065,-46.0268 L -73.7865,-45.8817 L -73.6855,-45.7226 L -73.6053,-45.5522 L -73.5471,-45.373
 L -73.5118,-45.188 L -73.5,-45 L -73.5118,-44.812 L -73.5471,-44.627 L -73.6053,-44.4478 L -73.6855,-44.2774
 L -73.7865,-44.1183 L -73.9065,-43.9732 L -74.0439,-43.8442 L -74.1963,-43.7335 L -74.3613,-43.6428 L -74.5365,-43.5734
 L -74.7189,-43.5266 L -74.9058,-43.503 z
M 74.9058,-43.503 L 74.7189,-43.5266 L 74.5365,-43.5734 L 74.3613,-43.6428 L 74.1963,-43.7335 L 74.0439,-43.8442
 L 73.9065,-43.9732 L 73.7865,-44.1183 L 73.6855,-44.2774 L 73.6053,-44.4478 L 73.5471,-44.627 L 73.5118,-44.812
 L 73.5,-45 L 73.5118,-45.188 L 73.5471,-45.373 L 73.6053,-45.5522 L 73.6855,-45.7226 L 73.7865,-45.8817
 L 73.9065,-46.0268 L 74.0439,-46.1558 L 74.1963,-46.2665 L 74.3613,-46.3572 L 74.5365,-46.4266 L 74.7189,-46.4734
 L 74.9058,-46.497 L 75.0942,-46.497 L 75.2811,-46.4734 L 75.4635,-46.4266 L 75.6387,-46.3572 L 75.8037,-46.2665
 L 75.9561,-46.1558 L 76.0934,-46.0268 L 76.2135,-45.8817 L 76.3145,-45.7226 L 76.3947,-45.5522 L 76.4529,-45.373
 L 76.4882,-45.188 L 76.5,-45 L 76.4882,-44.812 L 76.4529,-44.627 L 76.3947,-44.4478 L 76.3145,-44.2774
 L 76.2135,-44.1183 L 76.0934,-43.9732 L 75.9561,-43.8442 L 75.8037,-43.7335 L 75.6387,-43.6428 L 75.4635,-43.5734
 L 75.2811,-43.5266 L 75.0942,-43.503 z
M -75.1884,-34.5059 L -75.5621,-34.5531 L -75.927,-34.6468 L -76.2773,-34.7855 L -76.6075,-34.967 L -76.9123,-35.1885
 L -77.1869,-35.4464 L -77.427,-35.7366 L -77.6289,-36.0547 L -77.7893,-36.3956 L -77.9057,-36.7539 L -77.9763,-37.124
 L -78,-37.5 L -77.9763,-37.876 L -77.9057,-38.2461 L -77.7893,-38.6044 L -77.6289,-38.9453 L -77.427,-39.2634
 L -77.1869,-39.5536 L -76.9123,-39.8115 L -76.6075,-40.033 L -76.2773,-40.2145 L -75.927,-40.3532 L -75.5621,-40.4469
 L -75.1884,-40.4941 L -74.8116,-40.4941 L -74.4379,-40.4469 L -74.073,-40.3532 L -73.7227,-40.2145 L -73.3925,-40.033
 L -73.0877,-39.8115 L -72.8131,-39.5536 L -72.573,-39.2634 L -72.3711,-38.9453 L -72.2107,-38.6044 L -72.0943,-38.2461
 L -72.0237,-37.876 L -72,-37.5 L -72.0237,-37.124 L -72.0943,-36.7539 L -72.2107,-36.3956 L -72.3711,-36.0547
 L -72.573,-35.7366 L -72.8131,-35.4464 L -73.0877,-35.1885 L -73.3925,-34.967 L -73.7227,-34.7855 L -74.073,-34.6468
 L -74.4379,-34.5531 L -74.8116,-34.5059 z
M 74.8116,-34.5059 L 74.4379,-34.5531 L 74.073,-34.6468 L 73.7227,-34.7855 L 73.3925,-34.967 L 73.0877,-35.1885
 L 72.8131,-35.4464 L 72.573,-35.7366 L 72.3711,-36.0547 L 72.2107,-36.3956 L 72.0943,-36.7539 L 72.0237,-37.124
 L 72,-37.5 L 72.0237,-37.876 L 72.0943,-38.2461 L 72.2107,-38.6044 L 72.3711,-38.9453 L 72.573,-39.2634
 L 72.8131,-39.5536 L 73.0877,-39.8115 L 73.3925,-40.033 L 73.7227,-40.2145 L 74.073,-40.3532 L 74.4379,-40.4469
 L 74.8116,-40.4941 L 75.1884,-40.4941 L 75.5621,-40.4469 L 75.927,-40.3532 L 76.2773,-40.2145 L 76.6075,-40.033
 L 76.9123,-39.8115 L 77.1869,-39.5536 L 77.427,-39.2634 L 77.6289,-38.9453 L 77.7893,-38.6044 L 77.9057,-38.2461
 L 77.9763,-37.876 L 78,-37.5 L 77.9763,-37.124 L 77.9057,-36.7539 L 77.7893,-36.3956 L 77.6289,-36.0547
 L 77.427,-35.7366 L 77.1869,-35.4464 L 76.9123,-35.1885 L 76.6075,-34.967 L 76.2773,-34.7855 L 75.927,-34.6468
 L 75.5621,-34.5531 L 75.1884,-34.5059 z
M 74.9058,-28.503 L 74.7189,-28.5266 L 74.5365,-28.5734 L 74.3613,-28.6427 L 74.1963,-28.7335 L 74.0439,-28.8442
 L 73.9065,-28.9732 L 73.7865,-29.1183 L 73.6855,-29.2774 L 73.6053,-29.4478 L 73.5471,-29.627 L 73.5118,-29.812
 L 73.5,-30 L 73.5118,-30.188 L 73.5471,-30.373 L 73.6053,-30.5522 L 73.6855,-30.7226 L 73.7865,-30.8817
 L 73.9065,-31.0268 L 74.0439,-31.1558 L 74.1963,-31.2665 L 74.3613,-31.3572 L 74.5365,-31.4266 L 74.7189,-31.4734
 L 74.9058,-31.497 L 75.0942,-31.497 L 75.2811,-31.4734 L 75.4635,-31.4266 L 75.6387,-31.3572 L 75.8037,-31.2665
 L 75.9561,-31.1558 L 76.0934,-31.0268 L 76.2135,-30.8817 L 76.3145,-30.7226 L 76.3947,-30.5522 L 76.4529,-30.373
 L 76.4882,-30.188 L 76.5,-30 L 76.4882,-29.812 L 76.4529,-29.627 L 76.3947,-29.4478 L 76.3145,-29.2774
 L 76.2135,-29.1183 L 76.0934,-28.9732 L 75.9561,-28.8442 L 75.8037,-28.7335 L 75.6387,-28.6427 L 75.4635,-28.5734
 L 75.2811,-28.5266 L 75.0942,-28.503 z
M -75.0942,-28.503 L -75.2811,-28.5266 L -75.4635,-28.5734 L -75.6387,-28.6427 L -75.8037,-28.7335 L -75.9561,-28.8442
 L -76.0934,-28.9732 L -76.2135,-29.1183 L -76.3145,-29.2774 L -76.3947,-29.4478 L -76.4529,-29.627 L -76.4882,-29.812
 L -76.5,-30 L -76.4882,-30.188 L -76.4529,-30.373 L -76.3947,-30.5522 L -76.3145,-30.7226 L -76.2135,-30.8817
 L -76.0934,-31.0268 L -75.9561,-31.1558 L -75.8037,-31.2665 L -75.6387,-31.3572 L -75.4635,-31.4266 L -75.2811,-31.4734
 L -75.0942,-31.497 L -74.9058,-31.497 L -74.7189,-31.4734 L -74.5365,-31.4266 L -74.3613,-31.3572 L -74.1963,-31.2665
 L -74.0439,-31.1558 L -73.9065,-31.0268 L -73.7865,-30.8817 L -73.6855,-30.7226 L -73.6053,-30.5522 L -73.5471,-30.373
 L -73.5118,-30.188 L -73.5,-30 L -73.5118,-29.812 L -73.5471,-29.627 L -73.6053,-29.4478 L -73.6855,-29.2774
 L -73.7865,-29.1183 L -73.9065,-28.9732 L -74.0439,-28.8442 L -74.1963,-28.7335 L -74.3613,-28.6427 L -74.5365,-28.5734
 L -74.7189,-28.5266 L -74.9058,-28.503 z
M -75.1884,-19.5059 L -75.5621,-19.5531 L -75.927,-19.6468 L -76.2773,-19.7855 L -76.6075,-19.967 L -76.9123,-20.1884
 L -77.1869,-20.4464 L -77.427,-20.7366 L -77.6289,-21.0547 L -77.7893,-21.3956 L -77.9057,-21.7539 L -77.9763,-22.124
 L -78,-22.5 L -77.9763,-22.876 L -77.9057,-23.2461 L -77.7893,-23.6044 L -77.6289,-23.9453 L -77.427,-24.2634
 L -77.1869,-24.5536 L -76.9123,-24.8115 L -76.6075,-25.033 L -76.2773,-25.2145 L -75.927,-25.3532 L -75.5621,-25.4469
 L -75.1884,-25.4941 L -74.8116,-25.4941 L -74.4379,-25.4469 L -74.073,-25.3532 L -73.7227,-25.2145 L -73.3925,-25.033
 L -73.0877,-24.8115 L -72.8131,-24.5536 L -72.573,-24.2634 L -72.3711,-23.9453 L -72.2107,-23.6044 L -72.0943,-23.2461
 L -72.0237,-22.876 L -72,-22.5 L -72.0237,-22.124 L -72.0943,-21.7539 L -72.2107,-21.3956 L -72.3711,-21.0547
 L -72.573,-20.7366 L -72.8131,-20.4464 L -73.0877,-20.1884 L -73.3925,-19.967 L -73.7227,-19.7855 L -74.073,-19.6468
 L -74.4379,-19.5531 L -74.8116,-19.5059 z
M 74.8116,-19.5059 L 74.4379,-19.5531 L 74.073,-19.6468 L 73.7227,-19.7855 L 73.3925,-19.967 L 73.0877,-20.1884
 L 72.8131,-20.4464 L 72.573,-20.7366 L 72.3711,-21.0547 L 72.2107,-21.3956 L 72.0943,-21.7539 L 72.0237,-22.124
 L 72,-22.5 L 72.0237,-22.876 L 72.0943,-23.2461 L 72.2107,-23.6044 L 72.3711,-23.9453 L 72.573,-24.2634
 L 72.8131,-24.5536 L 73.0877,-24.8115 L 73.3925,-25.033 L 73.7227,-25.2145 L 74.073,-25.3532 L 74.4379,-25.4469
 L 74.8116,-25.4941 L 75.1884,-25.4941 L 75.5621,-25.4469 L 75.927,-25.3532 L 76.2773,-25.2145 L 76.6075,-25.033
 L 76.9123,-24.8115 L 77.1869,-24.5536 L 77.427,-24.2634 L 77.6289,-23.9453 L 77.7893,-23.6044 L 77.9057,-23.2461
 L 77.9763,-22.876 L 78,-22.5 L 77.9763,-22.124 L 77.9057,-21.7539 L 77.7893,-21.3956 L 77.6289,-21.0547
 L 77.427,-20.7366 L 77.1869,-20.4464 L 76.9123,-20.1884 L 76.6075,-19.967 L 76.2773,-19.7855 L 75.927,-19.6468
 L 75.5621,-19.5531 L 75.1884,-19.5059 z
M 74.9058,-13.5029 L 74.7189,-13.5266 L 74.5365,-13.5734 L 74.3613,-13.6427 L 74.1963,-13.7335 L 74.0439,-13.8442
 L 73.9065,-13.9732 L 73.7865,-14.1183 L 73.6855,-14.2774 L 73.6053,-14.4478 L 73.5471,-14.627 L 73.5118,-14.812
 L 73.5,-15 L 73.5118,-15.188 L 73.5471,-15.373 L 73.6053,-15.5522 L 73.6855,-15.7226 L 73.7865,-15.8817
 L 73.9065,-16.0268 L 74.0439,-16.1558 L 74.1963,-16.2665 L 74.3613,-16.3572 L 74.5365,-16.4266 L 74.7189,-16.4734
 L 74.9058,-16.497 L 75.0942,-16.497 L 75.2811,-16.4734 L 75.4635,-16.4266 L 75.6387,-16.3572 L 75.8037,-16.2665
 L 75.9561,-16.1558 L 76.0934,-16.0268 L 76.2135,-15.8817 L 76.3145,-15.7226 L 76.3947,-15.5522 L 76.4529,-15.373
 L 76.4882,-15.188 L 76.5,-15 L 76.4882,-14.812 L 76.4529,-14.627 L 76.3947,-14.4478 L 76.3145,-14.2774
 L 76.2135,-14.1183 L 76.0934,-13.9732 L 75.9561,-13.8442 L 75.8037,-13.7335 L 75.6387,-13.6427 L 75.4635,-13.5734
 L 75.2811,-13.5266 L 75.0942,-13.5029 z
M -75.0942,-13.5029 L -75.2811,-13.5266 L -75.4635,-13.5734 L -75.6387,-13.6427 L -75.8037,-13.7335 L -75.9561,-13.8442
 L -76.0934,-13.9732 L -76.2135,-14.1183 L -76.3145,-14.2774 L -76.3947,-14.4478 L -76.4529,-14.627 L -76.4882,-14.812
 L -76.5,-15 L -76.4882,-15.188 L -76.4529,-15.373 L -76.3947,-15.5522 L -76.3145,-15.7226 L -76.2135,-15.8817
 L -76.0934,-16.0268 L -75.9561,-16.1558 L -75.8037,-16.2665 L -75.6387,-16.3572 L -75.4635,-16.4266 L -75.2811,-16.4734
 L -75.0942,-16.497 L -74.9058,-16.497 L -74.7189,-16.4734 L -74.5365,-16.4266 L -74.3613,-16.3572 L -74.1963,-16.2665
 L -74.0439,-16.1558 L -73.9065,-16.0268 L -73.7865,-15.8817 L -73.6855,-15.7226 L -73.6053,-15.5522 L -73.5471,-15.373
 L -73.5118,-15.188 L -73.5,-15 L -73.5118,-14.812 L -73.5471,-14.627 L -73.6053,-14.4478 L -73.6855,-14.2774
 L -73.7865,-14.1183 L -73.9065,-13.9732 L -74.0439,-13.8442 L -74.1963,-13.7335 L -74.3613,-13.6427 L -74.5365,-13.5734
 L -74.7189,-13.5266 L -74.9058,-13.5029 z
M -75.1884,-4.50591 L -75.5621,-4.55313 L -75.927,-4.64682 L -76.2773,-4.78551 L -76.6075,-4.96701 L -76.9123,-5.18845
 L -77.1869,-5.44635 L -77.427,-5.73663 L -77.6289,-6.05473 L -77.7893,-6.39561 L -77.9057,-6.75392 L -77.9763,-7.12399
 L -78,-7.5 L -77.9763,-7.87599 L -77.9057,-8.24606 L -77.7893,-8.60437 L -77.6289,-8.94525 L -77.427,-9.26335
 L -77.1869,-9.55363 L -76.9123,-9.81154 L -76.6075,-10.033 L -76.2773,-10.2145 L -75.927,-10.3532 L -75.5621,-10.4469
 L -75.1884,-10.4941 L -74.8116,-10.4941 L -74.4379,-10.4469 L -74.073,-10.3532 L -73.7227,-10.2145 L -73.3925,-10.033
 L -73.0877,-9.81154 L -72.8131,-9.55363 L -72.573,-9.26335 L -72.3711,-8.94525 L -72.2107,-8.60437 L -72.0943,-8.24606
 L -72.0237,-7.87599 L -72,-7.5 L -72.0237,-7.12399 L -72.0943,-6.75392 L -72.2107,-6.39561 L -72.3711,-6.05473
 L -72.573,-5.73663 L -72.8131,-5.44635 L -73.0877,-5.18845 L -73.3925,-4.96701 L -73.7227,-4.78551 L -74.073,-4.64682
 L -74.4379,-4.55313 L -74.8116,-4.50591 z
M 74.8116,-4.50591 L 74.4379,-4.55313 L 74.073,-4.64682 L 73.7227,-4.78551 L 73.3925,-4.96701 L 73.0877,-5.18845
 L 72.8131,-5.44635 L 72.573,-5.73663 L 72.3711,-6.05473 L 72.2107,-6.39561 L 72.0943,-6.75392 L 72.0237,-7.12399
 L 72,-7.5 L 72.0237,-7.87599 L 72.0943,-8.24606 L 72.2107,-8.60437 L 72.3711,-8.94525 L 72.573,-9.26335
 L 72.8131,-9.55363 L 73.0877,-9.81154 L 73.3925,-10.033 L 73.7227,-10.2145 L 74.073,-10.3532 L 74.4379,-10.4469
 L 74.8116,-10.4941 L 75.1884,-10.4941 L 75.5621,-10.4469 L 75.927,-10.3532 L 76.2773,-10.2145 L 76.6075,-10.033
 L 76.9123,-9.81154 L 77.1869,-9.55363 L 77.427,-9.26335 L 77.6289,-8.94525 L 77.7893,-8.60437 L 77.9057,-8.24606
 L 77.9763,-7.87599 L 78,-7.5 L 77.9763,-7.12399 L 77.9057,-6.75392 L 77.7893,-6.39561 L 77.6289,-6.05473
 L 77.427,-5.73663 L 77.1869,-5.44635 L 76.9123,-5.18845 L 76.6075,-4.96701 L 76.2773,-4.78551 L 75.927,-4.64682
 L 75.5621,-4.55313 L 75.1884,-4.50591 z
M 74.9058,1.49704 L 74.7189,1.47342 L 74.5365,1.42657 L 74.3613,1.35724 L 74.1963,1.26648 L 74.0439,1.15576
 L 73.9065,1.02681 L 73.7865,0.881668 L 73.6855,0.722626 L 73.6053,0.552185 L 73.5471,0.373032 L 73.5118,0.187988
 L 73.5,-0 L 73.5118,-0.187988 L 73.5471,-0.373032 L 73.6053,-0.552185 L 73.6855,-0.722626 L 73.7865,-0.881668
 L 73.9065,-1.02681 L 74.0439,-1.15576 L 74.1963,-1.26648 L 74.3613,-1.35724 L 74.5365,-1.42657 L 74.7189,-1.47342
 L 74.9058,-1.49704 L 75.0942,-1.49704 L 75.2811,-1.47342 L 75.4635,-1.42657 L 75.6387,-1.35724 L 75.8037,-1.26648
 L 75.9561,-1.15576 L 76.0934,-1.02681 L 76.2135,-0.881668 L 76.3145,-0.722626 L 76.3947,-0.552185 L 76.4529,-0.373032
 L 76.4882,-0.187988 L 76.5,-0 L 76.4882,0.187988 L 76.4529,0.373032 L 76.3947,0.552185 L 76.3145,0.722626
 L 76.2135,0.881668 L 76.0934,1.02681 L 75.9561,1.15576 L 75.8037,1.26648 L 75.6387,1.35724 L 75.4635,1.42657
 L 75.2811,1.47342 L 75.0942,1.49704 z
M -75.0942,1.49704 L -75.2811,1.47342 L -75.4635,1.42657 L -75.6387,1.35724 L -75.8037,1.26648 L -75.9561,1.15576
 L -76.0934,1.02681 L -76.2135,0.881668 L -76.3145,0.722626 L -76.3947,0.552185 L -76.4529,0.373032 L -76.4882,0.187988
 L -76.5,-0 L -76.4882,-0.187988 L -76.4529,-0.373032 L -76.3947,-0.552185 L -76.3145,-0.722626 L -76.2135,-0.881668
 L -76.0934,-1.02681 L -75.9561,-1.15576 L -75.8037,-1.26648 L -75.6387,-1.35724 L -75.4635,-1.42657 L -75.2811,-1.47342
 L -75.0942,-1.49704 L -74.9058,-1.49704 L -74.7189,-1.47342 L -74.5365,-1.42657 L -74.3613,-1.35724 L -74.1963,-1.26648
 L -74.0439,-1.15576 L -73.9065,-1.02681 L -73.7865,-0.881668 L -73.6855,-0.722626 L -73.6053,-0.552185 L -73.5471,-0.373032
 L -73.5118,-0.187988 L -73.5,-0 L -73.5118,0.187988 L -73.5471,0.373032 L -73.6053,0.552185 L -73.6855,0.722626
 L -73.7865,0.881668 L -73.9065,1.02681 L -74.0439,1.15576 L -74.1963,1.26648 L -74.3613,1.35724 L -74.5365,1.42657
 L -74.7189,1.47342 L -74.9058,1.49704 z
M 74.8116,10.4941 L 74.4379,10.4469 L 74.073,10.3532 L 73.7227,10.2145 L 73.3925,10.033 L 73.0877,9.81154
 L 72.8131,9.55363 L 72.573,9.26335 L 72.3711,8.94525 L 72.2107,8.60437 L 72.0943,8.24606 L 72.0237,7.87599
 L 72,7.5 L 72.0237,7.12399 L 72.0943,6.75392 L 72.2107,6.39561 L 72.3711,6.05473 L 72.573,5.73663
 L 72.8131,5.44635 L 73.0877,5.18845 L 73.3925,4.96701 L 73.7227,4.78551 L 74.073,4.64682 L 74.4379,4.55313
 L 74.8116,4.50591 L 75.1884,4.50591 L 75.5621,4.55313 L 75.927,4.64682 L 76.2773,4.78551 L 76.6075,4.96701
 L 76.9123,5.18845 L 77.1869,5.44635 L 77.427,5.73663 L 77.6289,6.05473 L 77.7893,6.39561 L 77.9057,6.75392
 L 77.9763,7.12399 L 78,7.5 L 77.9763,7.87599 L 77.9057,8.24606 L 77.7893,8.60437 L 77.6289,8.94525
 L 77.427,9.26335 L 77.1869,9.55363 L 76.9123,9.81154 L 76.6075,10.033 L 76.2773,10.2145 L 75.927,10.3532
 L 75.5621,10.4469 L 75.1884,10.4941 z
M -75.1884,10.4941 L -75.5621,10.4469 L -75.927,10.3532 L -76.2773,10.2145 L -76.6075,10.033 L -76.9123,9.81154
 L -77.1869,9.55363 L -77.427,9.26335 L -77.6289,8.94525 L -77.7893,8.60437 L -77.9057,8.24606 L -77.9763,7.87599
 L -78,7.5 L -77.9763,7.12399 L -77.9057,6.75392 L -77.7893,6.39561 L -77.6289,6.05473 L -77.427,5.73663
 L -77.1869,5.44635 L -76.9123,5.18845 L -76.6075,4.96701 L -76.2773,4.78551 L -75.927,4.64682 L -75.5621,4.55313
 L -75.1884,4.50591 L -74.8116,4.50591 L -74.4379,4.55313 L -74.073,4.64682 L -73.7227,4.78551 L -73.3925,4.96701
 L -73.0877,5.18845 L -72.8131,5.44635 L -72.573,5.73663 L -72.3711,6.05473 L -72.2107,6.39561 L -72.0943,6.75392
 L -72.0237,7.12399 L -72,7.5 L -72.0237,7.87599 L -72.0943,8.24606 L -72.2107,8.60437 L -72.3711,8.94525
 L -72.573,9.26335 L -72.8131,9.55363 L -73.0877,9.81154 L -73.3925,10.033 L -73.7227,10.2145 L -74.073,10.3532
 L -74.4379,10.4469 L -74.8116,10.4941 z
M -75.0942,16.497 L -75.2811,16.4734 L -75.4635,16.4266 L -75.6387,16.3572 L -75.8037,16.2665 L -75.9561,16.1558
 L -76.0934,16.0268 L -76.2135,15.8817 L -76.3145,15.7226 L -76.3947,15.5522 L -76.4529,15.373 L -76.4882,15.188
 L -76.5,15 L -76.4882,14.812 L -76.4529,14.627 L -76.3947,14.4478 L -76.3145,14.2774 L -76.2135,14.1183
 L -76.0934,13.9732 L -75.9561,13.8442 L -75.8037,13.7335 L -75.6387,13.6427 L -75.4635,13.5734 L -75.2811,13.5266
 L -75.0942,13.5029 L -74.9058,13.5029 L -74.7189,13.5266 L -74.5365,13.5734 L -74.3613,13.6427 L -74.1963,13.7335
 L -74.0439,13.8442 L -73.9065,13.9732 L -73.7865,14.1183 L -73.6855,14.2774 L -73.6053,14.4478 L -73.5471,14.627
 L -73.5118,14.812 L -73.5,15 L -73.5118,15.188 L -73.5471,15.373 L -73.6053,15.5522 L -73.6855,15.7226
 L -73.7865,15.8817 L -73.9065,16.0268 L -74.0439,16.1558 L -74.1963,16.2665 L -74.3613,16.3572 L -74.5365,16.4266
 L -74.7189,16.4734 L -74.9058,16.497 z
M 74.9058,16.497 L 74.7189,16.4734 L 74.5365,16.4266 L 74.3613,16.3572 L 74.1963,16.2665 L 74.0439,16.1558
 L 73.9065,16.0268 L 73.7865,15.8817 L 73.6855,15.7226 L 73.6053,15.5522 L 73.5471,15.373 L 73.5118,15.188
 L 73.5,15 L 73.5118,14.812 L 73.5471,14.627 L 73.6053,14.4478 L 73.6855,14.2774 L 73.7865,14.1183
 L 73.9065,13.9732 L 74.0439,13.8442 L 74.1963,13.7335 L 74.3613,13.6427 L 74.5365,13.5734 L 74.7189,13.5266
 L 74.9058,13.5029 L 75.0942,13.5029 L 75.2811,13.5266 L 75.4635,13.5734 L 75.6387,13.6427 L 75.8037,13.7335
 L 75.9561,13.8442 L 76.0934,13.9732 L 76.2135,14.1183 L 76.3145,14.2774 L 76.3947,14.4478 L 76.4529,14.627
 L 76.4882,14.812 L 76.5,15 L 76.4882,15.188 L 76.4529,15.373 L 76.3947,15.5522 L 76.3145,15.7226
 L 76.2135,15.8817 L 76.0934,16.0268 L 75.9561,16.1558 L 75.8037,16.2665 L 75.6387,16.3572 L 75.4635,16.4266
 L 75.2811,16.4734 L 75.0942,16.497 z
M 74.8116,25.4941 L 74.4379,25.4469 L 74.073,25.3532 L 73.7227,25.2145 L 73.3925,25.033 L 73.0877,24.8115
 L 72.8131,24.5536 L 72.573,24.2634 L 72.3711,23.9453 L 72.2107,23.6044 L 72.0943,23.2461 L 72.0237,22.876
 L 72,22.5 L 72.0237,22.124 L 72.0943,21.7539 L 72.2107,21.3956 L 72.3711,21.0547 L 72.573,20.7366
 L 72.8131,20.4464 L 73.0877,20.1884 L 73.3925,19.967 L 73.7227,19.7855 L 74.073,19.6468 L 74.4379,19.5531
 L 74.8116,19.5059 L 75.1884,19.5059 L 75.5621,19.5531 L 75.927,19.6468 L 76.2773,19.7855 L 76.6075,19.967
 L 76.9123,20.1884 L 77.1869,20.4464 L 77.427,20.7366 L 77.6289,21.0547 L 77.7893,21.3956 L 77.9057,21.7539
 L 77.9763,22.124 L 78,22.5 L 77.9763,22.876 L 77.9057,23.2461 L 77.7893,23.6044 L 77.6289,23.9453
 L 77.427,24.2634 L 77.1869,24.5536 L 76.9123,24.8115 L 76.6075,25.033 L 76.2773,25.2145 L 75.927,25.3532
 L 75.5621,25.4469 L 75.1884,25.4941 z
M -75.1884,25.4941 L -75.5621,25.4469 L -75.927,25.3532 L -76.2773,25.2145 L -76.6075,25.033 L -76.9123,24.8115
 L -77.1869,24.5536 L -77.427,24.2634 L -77.6289,23.9453 L -77.7893,23.6044 L -77.9057,23.2461 L -77.9763,22.876
 L -78,22.5 L -77.9763,22.124 L -77.9057,21.7539 L -77.7893,21.3956 L -77.6289,21.0547 L -77.427,20.7366
 L -77.1869,20.4464 L -76.9123,20.1884 L -76.6075,19.967 L -76.2773,19.7855 L -75.927,19.6468 L -75.5621,19.5531
 L -75.1884,19.5059 L -74.8116,19.5059 L -74.4379,19.5531 L -74.073,19.6468 L -73.7227,19.7855 L -73.3925,19.967
 L -73.0877,20.1884 L -72.8131,20.4464 L -72.573,20.7366 L -72.3711,21.0547 L -72.2107,21.3956 L -72.0943,21.7539
 L -72.0237,22.124 L -72,22.5 L -72.0237,22.876 L -72.0943,23.2461 L -72.2107,23.6044 L -72.3711,23.9453
 L -72.573,24.2634 L -72.8131,24.5536 L -73.0877,24.8115 L -73.3925,25.033 L -73.7227,25.2145 L -74.073,25.3532
 L -74.4379,25.4469 L -74.8116,25.4941 z
M 74.9058,31.497 L 74.7189,31.4734 L 74.5365,31.4266 L 74.3613,31.3572 L 74.1963,31.2665 L 74.0439,31.1558
 L 73.9065,31.0268 L 73.7865,30.8817 L 73.6855,30.7226 L 73.6053,30.5522 L 73.5471,30.373 L 73.5118,30.188
 L 73.5,30 L 73.5118,29.812 L 73.5471,29.627 L 73.6053,29.4478 L 73.6855,29.2774 L 73.7865,29.1183
 L 73.9065,28.9732 L 74.0439,28.8442 L 74.1963,28.7335 L 74.3613,28.6427 L 74.5365,28.5734 L 74.7189,28.5266
 L 74.9058,28.503 L 75.0942,28.503 L 75.2811,28.5266 L 75.4635,28.5734 L 75.6387,28.6427 L 75.8037,28.7335
 L 75.9561,28.8442 L 76.0934,28.9732 L 76.2135,29.1183 L 76.3145,29.2774 L 76.3947,29.4478 L 76.4529,29.627
 L 76.4882,29.812 L 76.5,30 L 76.4882,30.188 L 76.4529,30.373 L 76.3947,30.5522 L 76.3145,30.7226
 L 76.2135,30.8817 L 76.0934,31.0268 L 75.9561,31.1558 L 75.8037,31.2665 L 75.6387,31.3572 L 75.4635,31.4266
 L 75.2811,31.4734 L 75.0942,31.497 z
M -75.0942,31.497 L -75.2811,31.4734 L -75.4635,31.4266 L -75.6387,31.3572 L -75.8037,31.2665 L -75.9561,31.1558
 L -76.0934,31.0268 L -76.2135,30.8817 L -76.3145,30.7226 L -76.3947,30.5522 L -76.4529,30.373 L -76.4882,30.188
 L -76.5,30 L -76.4882,29.812 L -76.4529,29.627 L -76.3947,29.4478 L -76.3145,29.2774 L -76.2135,29.1183
 L -76.0934,28.9732 L -75.9561,28.8442 L -75.8037,28.7335 L -75.6387,28.6427 L -75.4635,28.5734 L -75.2811,28.5266
 L -75.0942,28.503 L -74.9058,28.503 L -74.7189,28.5266 L -74.5365,28.5734 L -74.3613,28.6427 L -74.1963,28.7335
 L -74.0439,28.8442 L -73.9065,28.9732 L -73.7865,29.1183 L -73.6855,29.2774 L -73.6053,29.4478 L -73.5471,29.627
 L -73.5118,29.812 L -73.5,30 L -73.5118,30.188 L -73.5471,30.373 L -73.6053,30.5522 L -73.6855,30.7226
 L -73.7865,30.8817 L -73.9065,31.0268 L -74.0439,31.1558 L -74.1963,31.2665 L -74.3613,31.3572 L -74.5365,31.4266
 L -74.7189,31.4734 L -74.9058,31.497 z
M 74.8116,40.4941 L 74.4379,40.4469 L 74.073,40.3532 L 73.7227,40.2145 L 73.3925,40.033 L 73.0877,39.8115
 L 72.8131,39.5536 L 72.573,39.2634 L 72.3711,38.9453 L 72.2107,38.6044 L 72.0943,38.2461 L 72.0237,37.876
 L 72,37.5 L 72.0237,37.124 L 72.0943,36.7539 L 72.2107,36.3956 L 72.3711,36.0547 L 72.573,35.7366
 L 72.8131,35.4464 L 73.0877,35.1885 L 73.3925,34.967 L 73.7227,34.7855 L 74.073,34.6468 L 74.4379,34.5531
 L 74.8116,34.5059 L 75.1884,34.5059 L 75.5621,34.5531 L 75.927,34.6468 L 76.2773,34.7855 L 76.6075,34.967
 L 76.9123,35.1885 L 77.1869,35.4464 L 77.427,35.7366 L 77.6289,36.0547 L 77.7893,36.3956 L 77.9057,36.7539
 L 77.9763,37.124 L 78,37.5 L 77.9763,37.876 L 77.9057,38.2461 L 77.7893,38.6044 L 77.6289,38.9453
 L 77.427,39.2634 L 77.1869,39.5536 L 76.9123,39.8115 L 76.6075,40.033 L 76.2773,40.2145 L 75.927,40.3532
 L 75.5621,40.4469 L 75.1884,40.4941 z
M -75.1884,40.4941 L -75.5621,40.4469 L -75.927,40.3532 L -76.2773,40.2145 L -76.6075,40.033 L -76.9123,39.8115
 L -77.1869,39.5536 L -77.427,39.2634 L -77.6289,38.9453 L -77.7893,38.6044 L -77.9057,38.2461 L -77.9763,37.876
 L -78,37.5 L -77.9763,37.124 L -77.9057,36.7539 L -77.7893,36.3956 L -77.6289,36.0547 L -77.427,35.7366
 L -77.1869,35.4464 L -76.9123,35.1885 L -76.6075,34.967 L -76.2773,34.7855 L -75.927,34.6468 L -75.5621,34.5531
 L -75.1884,34.5059 L -74.8116,34.5059 L -74.4379,34.5531 L -74.073,34.6468 L -73.7227,34.7855 L -73.3925,34.967
 L -73.0877,35.1885 L -72.8131,35.4464 L -72.573,35.7366 L -72.3711,36.0547 L -72.2107,36.3956 L -72.0943,36.7539
 L -72.0237,37.124 L -72,37.5 L -72.0237,37.876 L -72.0943,38.2461 L -72.2107,38.6044 L -72.3711,38.9453
 L -72.573,39.2634 L -72.8131,39.5536 L -73.0877,39.8115 L -73.3925,40.033 L -73.7227,40.2145 L -74.073,40.3532
 L -74.4379,40.4469 L -74.8116,40.4941 z
M 74.9058,46.497 L 74.7189,46.4734 L 74.5365,46.4266 L 74.3613,46.3572 L 74.1963,46.2665 L 74.0439,46.1558
 L 73.9065,46.0268 L 73.7865,45.8817 L 73.6855,45.7226 L 73.6053,45.5522 L 73.5471,45.373 L 73.5118,45.188
 L 73.5,45 L 73.5118,44.812 L 73.5471,44.627 L 73.6053,44.4478 L 73.6855,44.2774 L 73.7865,44.1183
 L 73.9065,43.9732 L 74.0439,43.8442 L 74.1963,43.7335 L 74.3613,43.6428 L 74.5365,43.5734 L 74.7189,43.5266
 L 74.9058,43.503 L 75.0942,43.503 L 75.2811,43.5266 L 75.4635,43.5734 L 75.6387,43.6428 L 75.8037,43.7335
 L 75.9561,43.8442 L 76.0934,43.9732 L 76.2135,44.1183 L 76.3145,44.2774 L 76.3947,44.4478 L 76.4529,44.627
 L 76.4882,44.812 L 76.5,45 L 76.4882,45.188 L 76.4529,45.373 L 76.3947,45.5522 L 76.3145,45.7226
 L 76.2135,45.8817 L 76.0934,46.0268 L 75.9561,46.1558 L 75.8037,46.2665 L 75.6387,46.3572 L 75.4635,46.4266
 L 75.2811,46.4734 L 75.0942,46.497 z
M -75.0942,46.497 L -75.2811,46.4734 L -75.4635,46.4266 L -75.6387,46.3572 L -75.8037,46.2665 L -75.9561,46.1558
 L -76.0934,46.0268 L -76.2135,45.8817 L -76.3145,45.7226 L -76.3947,45.5522 L -76.4529,45.373 L -76.4882,45.188
 L -76.5,45 L -76.4882,44.812 L -76.4529,44.627 L -76.3947,44.4478 L -76.3145,44.2774 L -76.2135,44.1183
 L -76.0934,43.9732 L -75.9561,43.8442 L -75.8037,43.7335 L -75.6387,43.6428 L -75.4635,43.5734 L -75.2811,43.5266
 L -75.0942,43.503 L -74.9058,43.503 L -74.7189,43.5266 L -74.5365,43.5734 L -74.3613,43.6428 L -74.1963,43.7335
 L -74.0439,43.8442 L -73.9065,43.9732 L -73.7865,44.1183 L -73.6855,44.2774 L -73.6053,44.4478 L -73.5471,44.627
 L -73.5118,44.812 L -73.5,45 L -73.5118,45.188 L -73.5471,45.373 L -73.6053,45.5522 L -73.6855,45.7226
 L -73.7865,45.8817 L -73.9065,46.0268 L -74.0439,46.1558 L -74.1963,46.2665 L -74.3613,46.3572 L -74.5365,46.4266
 L -74.7189,46.4734 L -74.9058,46.497 z
M 74.8116,55.4941 L 74.4379,55.4469 L 74.073,55.3532 L 73.7227,55.2145 L 73.3925,55.033 L 73.0877,54.8115
 L 72.8131,54.5536 L 72.573,54.2634 L 72.3711,53.9453 L 72.2107,53.6044 L 72.0943,53.2461 L 72.0237,52.876
 L 72,52.5 L 72.0237,52.124 L 72.0943,51.7539 L 72.2107,51.3956 L 72.3711,51.0547 L 72.573,50.7366
 L 72.8131,50.4464 L 73.0877,50.1885 L 73.3925,49.967 L 73.7227,49.7855 L 74.073,49.6468 L 74.4379,49.5531
 L 74.8116,49.5059 L 75.1884,49.5059 L 75.5621,49.5531 L 75.927,49.6468 L 76.2773,49.7855 L 76.6075,49.967
 L 76.9123,50.1885 L 77.1869,50.4464 L 77.427,50.7366 L 77.6289,51.0547 L 77.7893,51.3956 L 77.9057,51.7539
 L 77.9763,52.124 L 78,52.5 L 77.9763,52.876 L 77.9057,53.2461 L 77.7893,53.6044 L 77.6289,53.9453
 L 77.427,54.2634 L 77.1869,54.5536 L 76.9123,54.8115 L 76.6075,55.033 L 76.2773,55.2145 L 75.927,55.3532
 L 75.5621,55.4469 L 75.1884,55.4941 z
M -75.1884,55.4941 L -75.5621,55.4469 L -75.927,55.3532 L -76.2773,55.2145 L -76.6075,55.033 L -76.9123,54.8115
 L -77.1869,54.5536 L -77.427,54.2634 L -77.6289,53.9453 L -77.7893,53.6044 L -77.9057,53.2461 L -77.9763,52.876
 L -78,52.5 L -77.9763,52.124 L -77.9057,51.7539 L -77.7893,51.3956 L -77.6289,51.0547 L -77.427,50.7366
 L -77.1869,50.4464 L -76.9123,50.1885 L -76.6075,49.967 L -76.2773,49.7855 L -75.927,49.6468 L -75.5621,49.5531
 L -75.1884,49.5059 L -74.8116,49.5059 L -74.4379,49.5531 L -74.073,49.6468 L -73.7227,49.7855 L -73.3925,49.967
 L -73.0877,50.1885 L -72.8131,50.4464 L -72.573,50.7366 L -72.3711,51.0547 L -72.2107,51.3956 L -72.0943,51.7539
 L -72.0237,52.124 L -72,52.5 L -72.0237,52.876 L -72.0943,53.2461 L -72.2107,53.6044 L -72.3711,53.9453
 L -72.573,54.2634 L -72.8131,54.5536 L -73.0877,54.8115 L -73.3925,55.033 L -73.7227,55.2145 L -74.073,55.3532
 L -74.4379,55.4469 L -74.8116,55.4941 z
M -75.0942,61.497 L -75.2811,61.4734 L -75.4635,61.4266 L -75.6387,61.3572 L -75.8037,61.2665 L -75.9561,61.1558
 L -76.0934,61.0268 L -76.2135,60.8817 L -76.3145,60.7226 L -76.3947,60.5522 L -76.4529,60.373 L -76.4882,60.188
 L -76.5,60 L -76.4882,59.812 L -76.4529,59.627 L -76.3947,59.4478 L -76.3145,59.2774 L -76.2135,59.1183
 L -76.0934,58.9732 L -75.9561,58.8442 L -75.8037,58.7335 L -75.6387,58.6428 L -75.4635,58.5734 L -75.2811,58.5266
 L -75.0942,58.503 L -74.9058,58.503 L -74.7189,58.5266 L -74.5365,58.5734 L -74.3613,58.6428 L -74.1963,58.7335
 L -74.0439,58.8442 L -73.9065,58.9732 L -73.7865,59.1183 L -73.6855,59.2774 L -73.6053,59.4478 L -73.5471,59.627
 L -73.5118,59.812 L -73.5,60 L -73.5118,60.188 L -73.5471,60.373 L -73.6053,60.5522 L -73.6855,60.7226
 L -73.7865,60.8817 L -73.9065,61.0268 L -74.0439,61.1558 L -74.1963,61.2665 L -74.3613,61.3572 L -74.5365,61.4266
 L -74.7189,61.4734 L -74.9058,61.497 z
M 74.9058,61.497 L 74.7189,61.4734 L 74.5365,61.4266 L 74.3613,61.3572 L 74.1963,61.2665 L 74.0439,61.1558
 L 73.9065,61.0268 L 73.7865,60.8817 L 73.6855,60.7226 L 73.6053,60.5522 L 73.5471,60.373 L 73.5118,60.188
 L 73.5,60 L 73.5118,59.812 L 73.5471,59.627 L 73.6053,59.4478 L 73.6855,59.2774 L 73.7865,59.1183
 L 73.9065,58.9732 L 74.0439,58.8442 L 74.1963,58.7335 L 74.3613,58.6428 L 74.5365,58.5734 L 74.7189,58.5266
 L 74.9058,58.503 L 75.0942,58.503 L 75.2811,58.5266 L 75.4635,58.5734 L 75.6387,58.6428 L 75.8037,58.7335
 L 75.9561,58.8442 L 76.0934,58.9732 L 76.2135,59.1183 L 76.3145,59.2774 L 76.3947,59.4478 L 76.4529,59.627
 L 76.4882,59.812 L 76.5,60 L 76.4882,60.188 L 76.4529,60.373 L 76.3947,60.5522 L 76.3145,60.7226
 L 76.2135,60.8817 L 76.0934,61.0268 L 75.9561,61.1558 L 75.8037,61.2665 L 75.6387,61.3572 L 75.4635,61.4266
 L 75.2811,61.4734 L 75.0942,61.497 z
M -75.1884,70.4941 L -75.5621,70.4469 L -75.927,70.3532 L -76.2773,70.2145 L -76.6075,70.033 L -76.9123,69.8115
 L -77.1869,69.5536 L -77.427,69.2634 L -77.6289,68.9453 L -77.7893,68.6044 L -77.9057,68.2461 L -77.9763,67.876
 L -78,67.5 L -77.9763,67.124 L -77.9057,66.7539 L -77.7893,66.3956 L -77.6289,66.0547 L -77.427,65.7366
 L -77.1869,65.4464 L -76.9123,65.1885 L -76.6075,64.967 L -76.2773,64.7855 L -75.927,64.6468 L -75.5621,64.5531
 L -75.1884,64.5059 L -74.8116,64.5059 L -74.4379,64.5531 L -74.073,64.6468 L -73.7227,64.7855 L -73.3925,64.967
 L -73.0877,65.1885 L -72.8131,65.4464 L -72.573,65.7366 L -72.3711,66.0547 L -72.2107,66.3956 L -72.0943,66.7539
 L -72.0237,67.124 L -72,67.5 L -72.0237,67.876 L -72.0943,68.2461 L -72.2107,68.6044 L -72.3711,68.9453
 L -72.573,69.2634 L -72.8131,69.5536 L -73.0877,69.8115 L -73.3925,70.033 L -73.7227,70.2145 L -74.073,70.3532
 L -74.4379,70.4469 L -74.8116,70.4941 z
M 74.8116,70.4941 L 74.4379,70.4469 L 74.073,70.3532 L 73.7227,70.2145 L 73.3925,70.033 L 73.0877,69.8115
 L 72.8131,69.5536 L 72.573,69.2634 L 72.3711,68.9453 L 72.2107,68.6044 L 72.0943,68.2461 L 72.0237,67.876
 L 72,67.5 L 72.0237,67.124 L 72.0943,66.7539 L 72.2107,66.3956 L 72.3711,66.0547 L 72.573,65.7366
 L 72.8131,65.4464 L 73.0877,65.1885 L 73.3925,64.967 L 73.7227,64.7855 L 74.073,64.6468 L 74.4379,64.5531
 L 74.8116,64.5059 L 75.1884,64.5059 L 75.5621,64.5531 L 75.927,64.6468 L 76.2773,64.7855 L 76.6075,64.967
 L 76.9123,65.1885 L 77.1869,65.4464 L 77.427,65.7366 L 77.6289,66.0547 L 77.7893,66.3956 L 77.9057,66.7539
 L 77.9763,67.124 L 78,67.5 L 77.9763,67.876 L 77.9057,68.2461 L 77.7893,68.6044 L 77.6289,68.9453
 L 77.427,69.2634 L 77.1869,69.5536 L 76.9123,69.8115 L 76.6075,70.033 L 76.2773,70.2145 L 75.927,70.3532
 L 75.5621,70.4469 L 75.1884,70.4941 z
" stroke="black" fill="lightgray" stroke-width="0.5"/>
</svg>
