  0
SECTION
  2
BLOCKS
  0
ENDSEC
  0
SECTION
  2
ENTITIES
  0
LINE
  8
0
 10
25.4369
 20
-6.91142
 11
26.0451
 21
-6.75528
  0
LINE
  8
0
 10
26.0451
 20
-6.75528
 11
26.6289
 21
-6.52412
  0
LINE
  8
0
 10
26.6289
 20
-6.52412
 11
27.1791
 21
-6.22163
  0
LINE
  8
0
 10
27.1791
 20
-6.22163
 11
27.6871
 21
-5.85255
  0
LINE
  8
0
 10
27.6871
 20
-5.85255
 11
28.1448
 21
-5.42273
  0
LINE
  8
0
 10
28.1448
 20
-5.42273
 11
28.5451
 21
-4.93892
  0
LINE
  8
0
 10
28.5451
 20
-4.93892
 11
28.8815
 21
-4.40877
  0
LINE
  8
0
 10
28.8815
 20
-4.40877
 11
29.1489
 21
-3.84062
  0
LINE
  8
0
 10
29.1489
 20
-3.84062
 11
29.3429
 21
-3.24344
  0
LINE
  8
0
 10
29.3429
 20
-3.24344
 11
29.4606
 21
-2.62666
  0
LINE
  8
0
 10
29.4606
 20
-2.62666
 11
29.5
 21
-2
  0
LINE
  8
0
 10
29.5
 20
-2
 11
29.5
 21
2
  0
LINE
  8
0
 10
29.5
 20
2
 11
29.4606
 21
2.62666
  0
LINE
  8
0
 10
29.4606
 20
2.62666
 11
29.3429
 21
3.24344
  0
LINE
  8
0
 10
29.3429
 20
3.24344
 11
29.1489
 21
3.84062
  0
LINE
  8
0
 10
29.1489
 20
3.84062
 11
28.8815
 21
4.40877
  0
LINE
  8
0
 10
28.8815
 20
4.40877
 11
28.5451
 21
4.93892
  0
LINE
  8
0
 10
28.5451
 20
4.93892
 11
28.1448
 21
5.42273
  0
LINE
  8
0
 10
28.1448
 20
5.42273
 11
27.6871
 21
5.85255
  0
LINE
  8
0
 10
27.6871
 20
5.85255
 11
27.1791
 21
6.22163
  0
LINE
  8
0
 10
27.1791
 20
6.22163
 11
26.6289
 21
6.52412
  0
LINE
  8
0
 10
26.6289
 20
6.52412
 11
26.0451
 21
6.75528
  0
LINE
  8
0
 10
26.0451
 20
6.75528
 11
25.4369
 21
6.91142
  0
LINE
  8
0
 10
25.4369
 20
6.91142
 11
24.8139
 21
6.99013
  0
LINE
  8
0
 10
24.8139
 20
6.99013
 11
-24.8139
 21
6.99013
  0
LINE
  8
0
 10
-24.8139
 20
6.99013
 11
-25.4369
 21
6.91142
  0
LINE
  8
0
 10
-25.4369
 20
6.91142
 11
-26.0451
 21
6.75528
  0
LINE
  8
0
 10
-26.0451
 20
6.75528
 11
-26.6289
 21
6.52412
  0
LINE
  8
0
 10
-26.6289
 20
6.52412
 11
-27.1791
 21
6.22163
  0
LINE
  8
0
 10
-27.1791
 20
6.22163
 11
-27.6871
 21
5.85255
  0
LINE
  8
0
 10
-27.6871
 20
5.85255
 11
-28.1448
 21
5.42273
  0
LINE
  8
0
 10
-28.1448
 20
5.42273
 11
-28.5451
 21
4.93892
  0
LINE
  8
0
 10
-28.5451
 20
4.93892
 11
-28.8815
 21
4.40877
  0
LINE
  8
0
 10
-28.8815
 20
4.40877
 11
-29.1489
 21
3.84062
  0
LINE
  8
0
 10
-29.1489
 20
3.84062
 11
-29.3429
 21
3.24344
  0
LINE
  8
0
 10
-29.3429
 20
3.24344
 11
-29.4606
 21
2.62666
  0
LINE
  8
0
 10
-29.4606
 20
2.62666
 11
-29.5
 21
2
  0
LINE
  8
0
 10
-29.5
 20
2
 11
-29.5
 21
-2
  0
LINE
  8
0
 10
-29.5
 20
-2
 11
-29.4606
 21
-2.62666
  0
LINE
  8
0
 10
-29.4606
 20
-2.62666
 11
-29.3429
 21
-3.24344
  0
LINE
  8
0
 10
-29.3429
 20
-3.24344
 11
-29.1489
 21
-3.84062
  0
LINE
  8
0
 10
-29.1489
 20
-3.84062
 11
-28.8815
 21
-4.40877
  0
LINE
  8
0
 10
-28.8815
 20
-4.40877
 11
-28.5451
 21
-4.93892
  0
LINE
  8
0
 10
-28.5451
 20
-4.93892
 11
-28.1448
 21
-5.42273
  0
LINE
  8
0
 10
-28.1448
 20
-5.42273
 11
-27.6871
 21
-5.85255
  0
LINE
  8
0
 10
-27.6871
 20
-5.85255
 11
-27.1791
 21
-6.22163
  0
LINE
  8
0
 10
-27.1791
 20
-6.22163
 11
-26.6289
 21
-6.52412
  0
LINE
  8
0
 10
-26.6289
 20
-6.52412
 11
-26.0451
 21
-6.75528
  0
LINE
  8
0
 10
-26.0451
 20
-6.75528
 11
-25.4369
 21
-6.91142
  0
LINE
  8
0
 10
-25.4369
 20
-6.91142
 11
-24.8139
 21
-6.99013
  0
LINE
  8
0
 10
-24.8139
 20
-6.99013
 11
24.8139
 21
-6.99013
  0
LINE
  8
0
 10
24.8139
 20
-6.99013
 11
25.4369
 21
-6.91142
  0
LINE
  8
0
 10
-12.2198
 20
-3.49309
 11
-12.6558
 21
-3.438
  0
LINE
  8
0
 10
-12.6558
 20
-3.438
 11
-13.0816
 21
-3.32869
  0
LINE
  8
0
 10
-13.0816
 20
-3.32869
 11
-13.4902
 21
-3.16689
  0
LINE
  8
0
 10
-13.4902
 20
-3.16689
 11
-13.8754
 21
-2.95514
  0
LINE
  8
0
 10
-13.8754
 20
-2.95514
 11
-14.231
 21
-2.69679
  0
LINE
  8
0
 10
-14.231
 20
-2.69679
 11
-14.5514
 21
-2.3959
  0
LINE
  8
0
 10
-14.5514
 20
-2.3959
 11
-14.8316
 21
-2.05724
  0
LINE
  8
0
 10
-14.8316
 20
-2.05724
 11
-15.0671
 21
-1.68613
  0
LINE
  8
0
 10
-15.0671
 20
-1.68613
 11
-15.2542
 21
-1.28842
  0
LINE
  8
0
 10
-15.2542
 20
-1.28842
 11
-15.39
 21
-0.870407
  0
LINE
  8
0
 10
-15.39
 20
-0.870407
 11
-15.4724
 21
-0.43866
  0
LINE
  8
0
 10
-15.4724
 20
-0.43866
 11
-15.5
 21
0
  0
LINE
  8
0
 10
-15.5
 20
0
 11
-15.4724
 21
0.43866
  0
LINE
  8
0
 10
-15.4724
 20
0.43866
 11
-15.39
 21
0.870407
  0
LINE
  8
0
 10
-15.39
 20
0.870407
 11
-15.2542
 21
1.28842
  0
LINE
  8
0
 10
-15.2542
 20
1.28842
 11
-15.0671
 21
1.68613
  0
LINE
  8
0
 10
-15.0671
 20
1.68613
 11
-14.8316
 21
2.05724
  0
LINE
  8
0
 10
-14.8316
 20
2.05724
 11
-14.5514
 21
2.3959
  0
LINE
  8
0
 10
-14.5514
 20
2.3959
 11
-14.231
 21
2.69679
  0
LINE
  8
0
 10
-14.231
 20
2.69679
 11
-13.8754
 21
2.95514
  0
LINE
  8
0
 10
-13.8754
 20
2.95514
 11
-13.4902
 21
3.16689
  0
LINE
  8
0
 10
-13.4902
 20
3.16689
 11
-13.0816
 21
3.32869
  0
LINE
  8
0
 10
-13.0816
 20
3.32869
 11
-12.6558
 21
3.438
  0
LINE
  8
0
 10
-12.6558
 20
3.438
 11
-12.2198
 21
3.49309
  0
LINE
  8
0
 10
-12.2198
 20
3.49309
 11
-11.7802
 21
3.49309
  0
LINE
  8
0
 10
-11.7802
 20
3.49309
 11
-11.3442
 21
3.438
  0
LINE
  8
0
 10
-11.3442
 20
3.438
 11
-10.9184
 21
3.32869
  0
LINE
  8
0
 10
-10.9184
 20
3.32869
 11
-10.5098
 21
3.16689
  0
LINE
  8
0
 10
-10.5098
 20
3.16689
 11
-10.1246
 21
2.95514
  0
LINE
  8
0
 10
-10.1246
 20
2.95514
 11
-9.76901
 21
2.69679
  0
LINE
  8
0
 10
-9.76901
 20
2.69679
 11
-9.44861
 21
2.3959
  0
LINE
  8
0
 10
-9.44861
 20
2.3959
 11
-9.16843
 21
2.05724
  0
LINE
  8
0
 10
-9.16843
 20
2.05724
 11
-8.93292
 21
1.68613
  0
LINE
  8
0
 10
-8.93292
 20
1.68613
 11
-8.74577
 21
1.28842
  0
LINE
  8
0
 10
-8.74577
 20
1.28842
 11
-8.60995
 21
0.870407
  0
LINE
  8
0
 10
-8.60995
 20
0.870407
 11
-8.52759
 21
0.43866
  0
LINE
  8
0
 10
-8.52759
 20
0.43866
 11
-8.5
 21
0
  0
LINE
  8
0
 10
-8.5
 20
0
 11
-8.52759
 21
-0.43866
  0
LINE
  8
0
 10
-8.52759
 20
-0.43866
 11
-8.60995
 21
-0.870407
  0
LINE
  8
0
 10
-8.60995
 20
-0.870407
 11
-8.74577
 21
-1.28842
  0
LINE
  8
0
 10
-8.74577
 20
-1.28842
 11
-8.93292
 21
-1.68613
  0
LINE
  8
0
 10
-8.93292
 20
-1.68613
 11
-9.16843
 21
-2.05724
  0
LINE
  8
0
 10
-9.16843
 20
-2.05724
 11
-9.44861
 21
-2.3959
  0
LINE
  8
0
 10
-9.44861
 20
-2.3959
 11
-9.76901
 21
-2.69679
  0
LINE
  8
0
 10
-9.76901
 20
-2.69679
 11
-10.1246
 21
-2.95514
  0
LINE
  8
0
 10
-10.1246
 20
-2.95514
 11
-10.5098
 21
-3.16689
  0
LINE
  8
0
 10
-10.5098
 20
-3.16689
 11
-10.9184
 21
-3.32869
  0
LINE
  8
0
 10
-10.9184
 20
-3.32869
 11
-11.3442
 21
-3.438
  0
LINE
  8
0
 10
-11.3442
 20
-3.438
 11
-11.7802
 21
-3.49309
  0
LINE
  8
0
 10
-11.7802
 20
-3.49309
 11
-12.2198
 21
-3.49309
  0
LINE
  8
0
 10
-0.219757
 20
-3.49309
 11
-0.655823
 21
-3.438
  0
LINE
  8
0
 10
-0.655823
 20
-3.438
 11
-1.08156
 21
-3.32869
  0
LINE
  8
0
 10
-1.08156
 20
-3.32869
 11
-1.49022
 21
-3.16689
  0
LINE
  8
0
 10
-1.49022
 20
-3.16689
 11
-1.87538
 21
-2.95514
  0
LINE
  8
0
 10
-1.87538
 20
-2.95514
 11
-2.23097
 21
-2.69679
  0
LINE
  8
0
 10
-2.23097
 20
-2.69679
 11
-2.55138
 21
-2.3959
  0
LINE
  8
0
 10
-2.55138
 20
-2.3959
 11
-2.83156
 21
-2.05724
  0
LINE
  8
0
 10
-2.83156
 20
-2.05724
 11
-3.06706
 21
-1.68613
  0
LINE
  8
0
 10
-3.06706
 20
-1.68613
 11
-3.25421
 21
-1.28842
  0
LINE
  8
0
 10
-3.25421
 20
-1.28842
 11
-3.39003
 21
-0.870407
  0
LINE
  8
0
 10
-3.39003
 20
-0.870407
 11
-3.4724
 21
-0.43866
  0
LINE
  8
0
 10
-3.4724
 20
-0.43866
 11
-3.5
 21
0
  0
LINE
  8
0
 10
-3.5
 20
0
 11
-3.4724
 21
0.43866
  0
LINE
  8
0
 10
-3.4724
 20
0.43866
 11
-3.39003
 21
0.870407
  0
LINE
  8
0
 10
-3.39003
 20
0.870407
 11
-3.25421
 21
1.28842
  0
LINE
  8
0
 10
-3.25421
 20
1.28842
 11
-3.06706
 21
1.68613
  0
LINE
  8
0
 10
-3.06706
 20
1.68613
 11
-2.83156
 21
2.05724
  0
LINE
  8
0
 10
-2.83156
 20
2.05724
 11
-2.55138
 21
2.3959
  0
LINE
  8
0
 10
-2.55138
 20
2.3959
 11
-2.23097
 21
2.69679
  0
LINE
  8
0
 10
-2.23097
 20
2.69679
 11
-1.87538
 21
2.95514
  0
LINE
  8
0
 10
-1.87538
 20
2.95514
 11
-1.49022
 21
3.16689
  0
LINE
  8
0
 10
-1.49022
 20
3.16689
 11
-1.08156
 21
3.32869
  0
LINE
  8
0
 10
-1.08156
 20
3.32869
 11
-0.655823
 21
3.438
  0
LINE
  8
0
 10
-0.655823
 20
3.438
 11
-0.219757
 21
3.49309
  0
LINE
  8
0
 10
-0.219757
 20
3.49309
 11
0.219757
 21
3.49309
  0
LINE
  8
0
 10
0.219757
 20
3.49309
 11
0.655823
 21
3.438
  0
LINE
  8
0
 10
0.655823
 20
3.438
 11
1.08156
 21
3.32869
  0
LINE
  8
0
 10
1.08156
 20
3.32869
 11
1.49022
 21
3.16689
  0
LINE
  8
0
 10
1.49022
 20
3.16689
 11
1.87538
 21
2.95514
  0
LINE
  8
0
 10
1.87538
 20
2.95514
 11
2.23097
 21
2.69679
  0
LINE
  8
0
 10
2.23097
 20
2.69679
 11
2.55138
 21
2.3959
  0
LINE
  8
0
 10
2.55138
 20
2.3959
 11
2.83156
 21
2.05724
  0
LINE
  8
0
 10
2.83156
 20
2.05724
 11
3.06706
 21
1.68613
  0
LINE
  8
0
 10
3.06706
 20
1.68613
 11
3.25421
 21
1.28842
  0
LINE
  8
0
 10
3.25421
 20
1.28842
 11
3.39003
 21
0.870407
  0
LINE
  8
0
 10
3.39003
 20
0.870407
 11
3.4724
 21
0.43866
  0
LINE
  8
0
 10
3.4724
 20
0.43866
 11
3.5
 21
0
  0
LINE
  8
0
 10
3.5
 20
0
 11
3.4724
 21
-0.43866
  0
LINE
  8
0
 10
3.4724
 20
-0.43866
 11
3.39003
 21
-0.870407
  0
LINE
  8
0
 10
3.39003
 20
-0.870407
 11
3.25421
 21
-1.28842
  0
LINE
  8
0
 10
3.25421
 20
-1.28842
 11
3.06706
 21
-1.68613
  0
LINE
  8
0
 10
3.06706
 20
-1.68613
 11
2.83156
 21
-2.05724
  0
LINE
  8
0
 10
2.83156
 20
-2.05724
 11
2.55138
 21
-2.3959
  0
LINE
  8
0
 10
2.55138
 20
-2.3959
 11
2.23097
 21
-2.69679
  0
LINE
  8
0
 10
2.23097
 20
-2.69679
 11
1.87538
 21
-2.95514
  0
LINE
  8
0
 10
1.87538
 20
-2.95514
 11
1.49022
 21
-3.16689
  0
LINE
  8
0
 10
1.49022
 20
-3.16689
 11
1.08156
 21
-3.32869
  0
LINE
  8
0
 10
1.08156
 20
-3.32869
 11
0.655823
 21
-3.438
  0
LINE
  8
0
 10
0.655823
 20
-3.438
 11
0.219757
 21
-3.49309
  0
LINE
  8
0
 10
0.219757
 20
-3.49309
 11
-0.219757
 21
-3.49309
  0
LINE
  8
0
 10
11.7802
 20
-3.49309
 11
11.3442
 21
-3.438
  0
LINE
  8
0
 10
11.3442
 20
-3.438
 11
10.9184
 21
-3.32869
  0
LINE
  8
0
 10
10.9184
 20
-3.32869
 11
10.5098
 21
-3.16689
  0
LINE
  8
0
 10
10.5098
 20
-3.16689
 11
10.1246
 21
-2.95514
  0
LINE
  8
0
 10
10.1246
 20
-2.95514
 11
9.76901
 21
-2.69679
  0
LINE
  8
0
 10
9.76901
 20
-2.69679
 11
9.44861
 21
-2.3959
  0
LINE
  8
0
 10
9.44861
 20
-2.3959
 11
9.16843
 21
-2.05724
  0
LINE
  8
0
 10
9.16843
 20
-2.05724
 11
8.93292
 21
-1.68613
  0
LINE
  8
0
 10
8.93292
 20
-1.68613
 11
8.74577
 21
-1.28842
  0
LINE
  8
0
 10
8.74577
 20
-1.28842
 11
8.60995
 21
-0.870407
  0
LINE
  8
0
 10
8.60995
 20
-0.870407
 11
8.52759
 21
-0.43866
  0
LINE
  8
0
 10
8.52759
 20
-0.43866
 11
8.5
 21
0
  0
LINE
  8
0
 10
8.5
 20
0
 11
8.52759
 21
0.43866
  0
LINE
  8
0
 10
8.52759
 20
0.43866
 11
8.60995
 21
0.870407
  0
LINE
  8
0
 10
8.60995
 20
0.870407
 11
8.74577
 21
1.28842
  0
LINE
  8
0
 10
8.74577
 20
1.28842
 11
8.93292
 21
1.68613
  0
LINE
  8
0
 10
8.93292
 20
1.68613
 11
9.16843
 21
2.05724
  0
LINE
  8
0
 10
9.16843
 20
2.05724
 11
9.44861
 21
2.3959
  0
LINE
  8
0
 10
9.44861
 20
2.3959
 11
9.76901
 21
2.69679
  0
LINE
  8
0
 10
9.76901
 20
2.69679
 11
10.1246
 21
2.95514
  0
LINE
  8
0
 10
10.1246
 20
2.95514
 11
10.5098
 21
3.16689
  0
LINE
  8
0
 10
10.5098
 20
3.16689
 11
10.9184
 21
3.32869
  0
LINE
  8
0
 10
10.9184
 20
3.32869
 11
11.3442
 21
3.438
  0
LINE
  8
0
 10
11.3442
 20
3.438
 11
11.7802
 21
3.49309
  0
LINE
  8
0
 10
11.7802
 20
3.49309
 11
12.2198
 21
3.49309
  0
LINE
  8
0
 10
12.2198
 20
3.49309
 11
12.6558
 21
3.438
  0
LINE
  8
0
 10
12.6558
 20
3.438
 11
13.0816
 21
3.32869
  0
LINE
  8
0
 10
13.0816
 20
3.32869
 11
13.4902
 21
3.16689
  0
LINE
  8
0
 10
13.4902
 20
3.16689
 11
13.8754
 21
2.95514
  0
LINE
  8
0
 10
13.8754
 20
2.95514
 11
14.231
 21
2.69679
  0
LINE
  8
0
 10
14.231
 20
2.69679
 11
14.5514
 21
2.3959
  0
LINE
  8
0
 10
14.5514
 20
2.3959
 11
14.8316
 21
2.05724
  0
LINE
  8
0
 10
14.8316
 20
2.05724
 11
15.0671
 21
1.68613
  0
LINE
  8
0
 10
15.0671
 20
1.68613
 11
15.2542
 21
1.28842
  0
LINE
  8
0
 10
15.2542
 20
1.28842
 11
15.39
 21
0.870407
  0
LINE
  8
0
 10
15.39
 20
0.870407
 11
15.4724
 21
0.43866
  0
LINE
  8
0
 10
15.4724
 20
0.43866
 11
15.5
 21
0
  0
LINE
  8
0
 10
15.5
 20
0
 11
15.4724
 21
-0.43866
  0
LINE
  8
0
 10
15.4724
 20
-0.43866
 11
15.39
 21
-0.870407
  0
LINE
  8
0
 10
15.39
 20
-0.870407
 11
15.2542
 21
-1.28842
  0
LINE
  8
0
 10
15.2542
 20
-1.28842
 11
15.0671
 21
-1.68613
  0
LINE
  8
0
 10
15.0671
 20
-1.68613
 11
14.8316
 21
-2.05724
  0
LINE
  8
0
 10
14.8316
 20
-2.05724
 11
14.5514
 21
-2.3959
  0
LINE
  8
0
 10
14.5514
 20
-2.3959
 11
14.231
 21
-2.69679
  0
LINE
  8
0
 10
14.231
 20
-2.69679
 11
13.8754
 21
-2.95514
  0
LINE
  8
0
 10
13.8754
 20
-2.95514
 11
13.4902
 21
-3.16689
  0
LINE
  8
0
 10
13.4902
 20
-3.16689
 11
13.0816
 21
-3.32869
  0
LINE
  8
0
 10
13.0816
 20
-3.32869
 11
12.6558
 21
-3.438
  0
LINE
  8
0
 10
12.6558
 20
-3.438
 11
12.2198
 21
-3.49309
  0
LINE
  8
0
 10
12.2198
 20
-3.49309
 11
11.7802
 21
-3.49309
  0
LINE
  8
0
 10
-22.6884
 20
-2.99408
 11
-23.0621
 21
-2.94685
  0
LINE
  8
0
 10
-23.0621
 20
-2.94685
 11
-23.427
 21
-2.85316
  0
LINE
  8
0
 10
-23.427
 20
-2.85316
 11
-23.7773
 21
-2.71448
  0
LINE
  8
0
 10
-23.7773
 20
-2.71448
 11
-24.1075
 21
-2.53297
  0
LINE
  8
0
 10
-24.1075
 20
-2.53297
 11
-24.4123
 21
-2.31154
  0
LINE
  8
0
 10
-24.4123
 20
-2.31154
 11
-24.6869
 21
-2.05363
  0
LINE
  8
0
 10
-24.6869
 20
-2.05363
 11
-24.927
 21
-1.76335
  0
LINE
  8
0
 10
-24.927
 20
-1.76335
 11
-25.1289
 21
-1.44525
  0
LINE
  8
0
 10
-25.1289
 20
-1.44525
 11
-25.2893
 21
-1.10437
  0
LINE
  8
0
 10
-25.2893
 20
-1.10437
 11
-25.4057
 21
-0.746063
  0
LINE
  8
0
 10
-25.4057
 20
-0.746063
 11
-25.4763
 21
-0.375992
  0
LINE
  8
0
 10
-25.4763
 20
-0.375992
 11
-25.5
 21
0
  0
LINE
  8
0
 10
-25.5
 20
0
 11
-25.4763
 21
0.375992
  0
LINE
  8
0
 10
-25.4763
 20
0.375992
 11
-25.4057
 21
0.746063
  0
LINE
  8
0
 10
-25.4057
 20
0.746063
 11
-25.2893
 21
1.10437
  0
LINE
  8
0
 10
-25.2893
 20
1.10437
 11
-25.1289
 21
1.44525
  0
LINE
  8
0
 10
-25.1289
 20
1.44525
 11
-24.927
 21
1.76335
  0
LINE
  8
0
 10
-24.927
 20
1.76335
 11
-24.6869
 21
2.05363
  0
LINE
  8
0
 10
-24.6869
 20
2.05363
 11
-24.4123
 21
2.31154
  0
LINE
  8
0
 10
-24.4123
 20
2.31154
 11
-24.1075
 21
2.53297
  0
LINE
  8
0
 10
-24.1075
 20
2.53297
 11
-23.7773
 21
2.71448
  0
LINE
  8
0
 10
-23.7773
 20
2.71448
 11
-23.427
 21
2.85316
  0
LINE
  8
0
 10
-23.427
 20
2.85316
 11
-23.0621
 21
2.94685
  0
LINE
  8
0
 10
-23.0621
 20
2.94685
 11
-22.6884
 21
2.99408
  0
LINE
  8
0
 10
-22.6884
 20
2.99408
 11
-22.3116
 21
2.99408
  0
LINE
  8
0
 10
-22.3116
 20
2.99408
 11
-21.9379
 21
2.94685
  0
LINE
  8
0
 10
-21.9379
 20
2.94685
 11
-21.5729
 21
2.85316
  0
LINE
  8
0
 10
-21.5729
 20
2.85316
 11
-21.2227
 21
2.71448
  0
LINE
  8
0
 10
-21.2227
 20
2.71448
 11
-20.8925
 21
2.53297
  0
LINE
  8
0
 10
-20.8925
 20
2.53297
 11
-20.5877
 21
2.31154
  0
LINE
  8
0
 10
-20.5877
 20
2.31154
 11
-20.3131
 21
2.05363
  0
LINE
  8
0
 10
-20.3131
 20
2.05363
 11
-20.0729
 21
1.76335
  0
LINE
  8
0
 10
-20.0729
 20
1.76335
 11
-19.8711
 21
1.44525
  0
LINE
  8
0
 10
-19.8711
 20
1.44525
 11
-19.7107
 21
1.10437
  0
LINE
  8
0
 10
-19.7107
 20
1.10437
 11
-19.5942
 21
0.746063
  0
LINE
  8
0
 10
-19.5942
 20
0.746063
 11
-19.5237
 21
0.375992
  0
LINE
  8
0
 10
-19.5237
 20
0.375992
 11
-19.5
 21
0
  0
LINE
  8
0
 10
-19.5
 20
0
 11
-19.5237
 21
-0.375992
  0
LINE
  8
0
 10
-19.5237
 20
-0.375992
 11
-19.5942
 21
-0.746063
  0
LINE
  8
0
 10
-19.5942
 20
-0.746063
 11
-19.7107
 21
-1.10437
  0
LINE
  8
0
 10
-19.7107
 20
-1.10437
 11
-19.8711
 21
-1.44525
  0
LINE
  8
0
 10
-19.8711
 20
-1.44525
 11
-20.0729
 21
-1.76335
  0
LINE
  8
0
 10
-20.0729
 20
-1.76335
 11
-20.3131
 21
-2.05363
  0
LINE
  8
0
 10
-20.3131
 20
-2.05363
 11
-20.5877
 21
-2.31154
  0
LINE
  8
0
 10
-20.5877
 20
-2.31154
 11
-20.8925
 21
-2.53297
  0
LINE
  8
0
 10
-20.8925
 20
-2.53297
 11
-21.2227
 21
-2.71448
  0
LINE
  8
0
 10
-21.2227
 20
-2.71448
 11
-21.5729
 21
-2.85316
  0
LINE
  8
0
 10
-21.5729
 20
-2.85316
 11
-21.9379
 21
-2.94685
  0
LINE
  8
0
 10
-21.9379
 20
-2.94685
 11
-22.3116
 21
-2.99408
  0
LINE
  8
0
 10
-22.3116
 20
-2.99408
 11
-22.6884
 21
-2.99408
  0
LINE
  8
0
 10
22.3116
 20
-2.99408
 11
21.9379
 21
-2.94685
  0
LINE
  8
0
 10
21.9379
 20
-2.94685
 11
21.5729
 21
-2.85316
  0
LINE
  8
0
 10
21.5729
 20
-2.85316
 11
21.2227
 21
-2.71448
  0
LINE
  8
0
 10
21.2227
 20
-2.71448
 11
20.8925
 21
-2.53297
  0
LINE
  8
0
 10
20.8925
 20
-2.53297
 11
20.5877
 21
-2.31154
  0
LINE
  8
0
 10
20.5877
 20
-2.31154
 11
20.3131
 21
-2.05363
  0
LINE
  8
0
 10
20.3131
 20
-2.05363
 11
20.0729
 21
-1.76335
  0
LINE
  8
0
 10
20.0729
 20
-1.76335
 11
19.8711
 21
-1.44525
  0
LINE
  8
0
 10
19.8711
 20
-1.44525
 11
19.7107
 21
-1.10437
  0
LINE
  8
0
 10
19.7107
 20
-1.10437
 11
19.5942
 21
-0.746063
  0
LINE
  8
0
 10
19.5942
 20
-0.746063
 11
19.5237
 21
-0.375992
  0
LINE
  8
0
 10
19.5237
 20
-0.375992
 11
19.5
 21
0
  0
LINE
  8
0
 10
19.5
 20
0
 11
19.5237
 21
0.375992
  0
LINE
  8
0
 10
19.5237
 20
0.375992
 11
19.5942
 21
0.746063
  0
LINE
  8
0
 10
19.5942
 20
0.746063
 11
19.7107
 21
1.10437
  0
LINE
  8
0
 10
19.7107
 20
1.10437
 11
19.8711
 21
1.44525
  0
LINE
  8
0
 10
19.8711
 20
1.44525
 11
20.0729
 21
1.76335
  0
LINE
  8
0
 10
20.0729
 20
1.76335
 11
20.3131
 21
2.05363
  0
LINE
  8
0
 10
20.3131
 20
2.05363
 11
20.5877
 21
2.31154
  0
LINE
  8
0
 10
20.5877
 20
2.31154
 11
20.8925
 21
2.53297
  0
LINE
  8
0
 10
20.8925
 20
2.53297
 11
21.2227
 21
2.71448
  0
LINE
  8
0
 10
21.2227
 20
2.71448
 11
21.5729
 21
2.85316
  0
LINE
  8
0
 10
21.5729
 20
2.85316
 11
21.9379
 21
2.94685
  0
LINE
  8
0
 10
21.9379
 20
2.94685
 11
22.3116
 21
2.99408
  0
LINE
  8
0
 10
22.3116
 20
2.99408
 11
22.6884
 21
2.99408
  0
LINE
  8
0
 10
22.6884
 20
2.99408
 11
23.0621
 21
2.94685
  0
LINE
  8
0
 10
23.0621
 20
2.94685
 11
23.427
 21
2.85316
  0
LINE
  8
0
 10
23.427
 20
2.85316
 11
23.7773
 21
2.71448
  0
LINE
  8
0
 10
23.7773
 20
2.71448
 11
24.1075
 21
2.53297
  0
LINE
  8
0
 10
24.1075
 20
2.53297
 11
24.4123
 21
2.31154
  0
LINE
  8
0
 10
24.4123
 20
2.31154
 11
24.6869
 21
2.05363
  0
LINE
  8
0
 10
24.6869
 20
2.05363
 11
24.927
 21
1.76335
  0
LINE
  8
0
 10
24.927
 20
1.76335
 11
25.1289
 21
1.44525
  0
LINE
  8
0
 10
25.1289
 20
1.44525
 11
25.2893
 21
1.10437
  0
LINE
  8
0
 10
25.2893
 20
1.10437
 11
25.4057
 21
0.746063
  0
LINE
  8
0
 10
25.4057
 20
0.746063
 11
25.4763
 21
0.375992
  0
LINE
  8
0
 10
25.4763
 20
0.375992
 11
25.5
 21
0
  0
LINE
  8
0
 10
25.5
 20
0
 11
25.4763
 21
-0.375992
  0
LINE
  8
0
 10
25.4763
 20
-0.375992
 11
25.4057
 21
-0.746063
  0
LINE
  8
0
 10
25.4057
 20
-0.746063
 11
25.2893
 21
-1.10437
  0
LINE
  8
0
 10
25.2893
 20
-1.10437
 11
25.1289
 21
-1.44525
  0
LINE
  8
0
 10
25.1289
 20
-1.44525
 11
24.927
 21
-1.76335
  0
LINE
  8
0
 10
24.927
 20
-1.76335
 11
24.6869
 21
-2.05363
  0
LINE
  8
0
 10
24.6869
 20
-2.05363
 11
24.4123
 21
-2.31154
  0
LINE
  8
0
 10
24.4123
 20
-2.31154
 11
24.1075
 21
-2.53297
  0
LINE
  8
0
 10
24.1075
 20
-2.53297
 11
23.7773
 21
-2.71448
  0
LINE
  8
0
 10
23.7773
 20
-2.71448
 11
23.427
 21
-2.85316
  0
LINE
  8
0
 10
23.427
 20
-2.85316
 11
23.0621
 21
-2.94685
  0
LINE
  8
0
 10
23.0621
 20
-2.94685
 11
22.6884
 21
-2.99408
  0
LINE
  8
0
 10
22.6884
 20
-2.99408
 11
22.3116
 21
-2.99408
  0
ENDSEC
  0
SECTION
  2
OBJECTS
  0
DICTIONARY
  0
ENDSEC
  0
EOF
