<?xml version="1.0" standalone="no"?>
<!DOCTYPE svg PUBLIC "-//W3C//DTD SVG 1.1//EN" "http://www.w3.org/Graphics/SVG/1.1/DTD/svg11.dtd">
<svg width="150mm" height="44mm" viewBox="-75 -22 150 44" xmlns="http://www.w3.org/2000/svg" version="1.1">
<title>OpenSCAD Model</title>
<path d="
M 70.4369,21.9114 L 71.0451,21.7553 L 71.6289,21.5241 L 72.1791,21.2216 L 72.6871,20.8526 L 73.1448,20.4227
 L 73.5451,19.9389 L 73.8815,19.4088 L 74.1489,18.8406 L 74.3429,18.2434 L 74.4606,17.6267 L 74.5,17
 L 74.5,-17 L 74.4606,-17.6267 L 74.3429,-18.2434 L 74.1489,-18.8406 L 73.8815,-19.4088 L 73.5451,-19.9389
 L 73.1448,-20.4227 L 72.6871,-20.8526 L 72.1791,-21.2216 L 71.6289,-21.5241 L 71.0451,-21.7553 L 70.4369,-21.9114
 L 69.8139,-21.9901 L -69.8139,-21.9901 L -70.4369,-21.9114 L -71.0451,-21.7553 L -71.6289,-21.5241 L -72.1791,-21.2216
 L -72.6871,-20.8526 L -73.1448,-20.4227 L -73.5451,-19.9389 L -73.8815,-19.4088 L -74.1489,-18.8406 L -74.3429,-18.2434
 L -74.4606,-17.6267 L -74.5,-17 L -74.5,17 L -74.4606,17.6267 L -74.3429,18.2434 L -74.1489,18.8406
 L -73.8815,19.4088 L -73.5451,19.9389 L -73.1448,20.4227 L -72.6871,20.8526 L -72.1791,21.2216 L -71.6289,21.5241
 L -71.0451,21.7553 L -70.4369,21.9114 L -69.8139,21.9901 L 69.8139,21.9901 z
M -67.6884,-12.0059 L -68.0621,-12.0531 L -68.427,-12.1468 L -68.7773,-12.2855 L -69.1075,-12.467 L -69.4123,-12.6884
 L -69.6869,-12.9464 L -69.927,-13.2366 L -70.1289,-13.5547 L -70.2893,-13.8956 L -70.4057,-14.2539 L -70.4763,-14.624
 L -70.5,-15 L -70.4763,-15.376 L -70.4057,-15.7461 L -70.2893,-16.1044 L -70.1289,-16.4453 L -69.927,-16.7634
 L -69.6869,-17.0536 L -69.4123,-17.3115 L -69.1075,-17.533 L -68.7773,-17.7145 L -68.427,-17.8532 L -68.0621,-17.9469
 L -67.6884,-17.9941 L -67.3116,-17.9941 L -66.9379,-17.9469 L -66.573,-17.8532 L -66.2227,-17.7145 L -65.8925,-17.533
 L -65.5877,-17.3115 L -65.3131,-17.0536 L -65.073,-16.7634 L -64.8711,-16.4453 L -64.7107,-16.1044 L -64.5943,-15.7461
 L -64.5237,-15.376 L -64.5,-15 L -64.5237,-14.624 L -64.5943,-14.2539 L -64.7107,-13.8956 L -64.8711,-13.5547
 L -65.073,-13.2366 L -65.3131,-12.9464 L -65.5877,-12.6884 L -65.8925,-12.467 L -66.2227,-12.2855 L -66.573,-12.1468
 L -66.9379,-12.0531 L -67.3116,-12.0059 z
M 67.3116,-12.0059 L 66.9379,-12.0531 L 66.573,-12.1468 L 66.2227,-12.2855 L 65.8925,-12.467 L 65.5877,-12.6884
 L 65.3131,-12.9464 L 65.073,-13.2366 L 64.8711,-13.5547 L 64.7107,-13.8956 L 64.5943,-14.2539 L 64.5237,-14.624
 L 64.5,-15 L 64.5237,-15.376 L 64.5943,-15.7461 L 64.7107,-16.1044 L 64.8711,-16.4453 L 65.073,-16.7634
 L 65.3131,-17.0536 L 65.5877,-17.3115 L 65.8925,-17.533 L 66.2227,-17.7145 L 66.573,-17.8532 L 66.9379,-17.9469
 L 67.3116,-17.9941 L 67.6884,-17.9941 L 68.0621,-17.9469 L 68.427,-17.8532 L 68.7773,-17.7145 L 69.1075,-17.533
 L 69.4123,-17.3115 L 69.6869,-17.0536 L 69.927,-16.7634 L 70.1289,-16.4453 L 70.2893,-16.1044 L 70.4057,-15.7461
 L 70.4763,-15.376 L 70.5,-15 L 70.4763,-14.624 L 70.4057,-14.2539 L 70.2893,-13.8956 L 70.1289,-13.5547
 L 69.927,-13.2366 L 69.6869,-12.9464 L 69.4123,-12.6884 L 69.1075,-12.467 L 68.7773,-12.2855 L 68.427,-12.1468
 L 68.0621,-12.0531 L 67.6884,-12.0059 z
M 38.9012,17.4655 L 36.7208,17.19 L 34.5922,16.6435 L 32.5489,15.8345 L 30.623,14.7757 L 28.8451,13.484
 L 27.243,11.9796 L 25.8422,10.2862 L 24.6646,8.43068 L 23.7289,6.44217 L 23.0498,4.35207 L 22.638,2.19333
 L 22.5,-0 L 22.638,-2.19333 L 23.0498,-4.35207 L 23.7289,-6.44217 L 24.6646,-8.43068 L 25.8422,-10.2862
 L 27.243,-11.9796 L 28.8451,-13.484 L 30.623,-14.7757 L 32.5489,-15.8345 L 34.5922,-16.6435 L 36.7208,-17.19
 L 38.9012,-17.4655 L 41.0988,-17.4655 L 43.2792,-17.19 L 45.4078,-16.6435 L 47.4511,-15.8345 L 49.377,-14.7757
 L 51.1549,-13.484 L 52.7569,-11.9796 L 54.1578,-10.2862 L 55.3354,-8.43068 L 56.2711,-6.44217 L 56.9502,-4.35207
 L 57.362,-2.19333 L 57.5,-0 L 57.362,2.19333 L 56.9502,4.35207 L 56.2711,6.44217 L 55.3354,8.43068
 L 54.1578,10.2862 L 52.7569,11.9796 L 51.1549,13.484 L 49.377,14.7757 L 47.4511,15.8345 L 45.4078,16.6435
 L 43.2792,17.19 L 41.0988,17.4655 z
M -56.9502,-4.35207 L -56.2711,-6.44217 L -55.3354,-8.43068 L -54.1578,-10.2862 L -52.7569,-11.9796 L -51.1549,-13.484
 L -49.377,-14.7757 L -47.4511,-15.8345 L -45.4078,-16.6435 L -43.2792,-17.19 L -41.0988,-17.4655 L -38.9012,-17.4655
 L -36.7208,-17.19 L -34.5922,-16.6435 L -32.5489,-15.8345 L -30.623,-14.7757 L -28.8451,-13.484 L -27.243,-11.9796
 L -25.8422,-10.2862 L -24.6646,-8.43068 L -23.7289,-6.44217 L -23.0498,-4.35207 L -22.638,-2.19333 L -22.5,-0
 L -22.638,2.19333 L -23.0498,4.35207 L -23.7289,6.44217 L -24.6646,8.43068 L -25.8422,10.2862 L -27.243,11.9796
 L -28.8451,13.484 L -30.623,14.7757 L -32.5489,15.8345 L -34.5922,16.6435 L -36.7208,17.19 L -38.9012,17.4655
 L -41.0988,17.4655 L -43.2792,17.19 L -45.4078,16.6435 L -47.4511,15.8345 L -49.377,14.7757 L -51.1549,13.484
 L -52.7569,11.9796 L -54.1578,10.2862 L -55.3354,8.43068 L -56.2711,6.44217 L -56.9502,4.35207 L -57.362,2.19333
 L -57.5,-0 L -57.362,-2.19333 z
M -1.09883,17.4655 L -3.27916,17.19 L -5.40779,16.6435 L -7.45113,15.8345 L -9.37697,14.7757 L -11.1549,13.484
 L -12.7569,11.9796 L -14.1578,10.2862 L -15.3354,8.43068 L -16.2711,6.44217 L -16.9502,4.35207 L -17.362,2.19333
 L -17.5,-0 L -17.362,-2.19333 L -16.9502,-4.35207 L -16.2711,-6.44217 L -15.3354,-8.43068 L -14.1578,-10.2862
 L -12.7569,-11.9796 L -11.1549,-13.484 L -9.37697,-14.7757 L -7.45113,-15.8345 L -5.40779,-16.6435 L -3.27916,-17.19
 L -1.09883,-17.4655 L 1.09883,-17.4655 L 3.27916,-17.19 L 5.40779,-16.6435 L 7.45113,-15.8345 L 9.37697,-14.7757
 L 11.1549,-13.484 L 12.7569,-11.9796 L 14.1578,-10.2862 L 15.3354,-8.43068 L 16.2711,-6.44217 L 16.9502,-4.35207
 L 17.362,-2.19333 L 17.5,-0 L 17.362,2.19333 L 16.9502,4.35207 L 16.2711,6.44217 L 15.3354,8.43068
 L 14.1578,10.2862 L 12.7569,11.9796 L 11.1549,13.484 L 9.37697,14.7757 L 7.45113,15.8345 L 5.40779,16.6435
 L 3.27916,17.19 L 1.09883,17.4655 z
M 67.4058,-6.00294 L 67.2189,-6.02657 L 67.0365,-6.07341 L 66.8613,-6.14275 L 66.6963,-6.23351 L 66.5439,-6.34422
 L 66.4065,-6.47318 L 66.2865,-6.61832 L 66.1855,-6.77736 L 66.1053,-6.9478 L 66.0471,-7.12695 L 66.0118,-7.312
 L 66,-7.5 L 66.0118,-7.68799 L 66.0471,-7.87303 L 66.1053,-8.05219 L 66.1855,-8.22263 L 66.2865,-8.38167
 L 66.4065,-8.52681 L 66.5439,-8.65576 L 66.6963,-8.76648 L 66.8613,-8.85724 L 67.0365,-8.92657 L 67.2189,-8.97342
 L 67.4058,-8.99704 L 67.5942,-8.99704 L 67.7811,-8.97342 L 67.9635,-8.92657 L 68.1387,-8.85724 L 68.3037,-8.76648
 L 68.4561,-8.65576 L 68.5934,-8.52681 L 68.7135,-8.38167 L 68.8145,-8.22263 L 68.8947,-8.05219 L 68.9529,-7.87303
 L 68.9882,-7.68799 L 69,-7.5 L 68.9882,-7.312 L 68.9529,-7.12695 L 68.8947,-6.9478 L 68.8145,-6.77736
 L 68.7135,-6.61832 L 68.5934,-6.47318 L 68.4561,-6.34422 L 68.3037,-6.23351 L 68.1387,-6.14275 L 67.9635,-6.07341
 L 67.7811,-6.02657 L 67.5942,-6.00294 z
M -67.5942,-6.00294 L -67.7811,-6.02657 L -67.9635,-6.07341 L -68.1387,-6.14275 L -68.3037,-6.23351 L -68.4561,-6.34422
 L -68.5934,-6.47318 L -68.7135,-6.61832 L -68.8145,-6.77736 L -68.8947,-6.9478 L -68.9529,-7.12695 L -68.9882,-7.312
 L -69,-7.5 L -68.9882,-7.68799 L -68.9529,-7.87303 L -68.8947,-8.05219 L -68.8145,-8.22263 L -68.7135,-8.38167
 L -68.5934,-8.52681 L -68.4561,-8.65576 L -68.3037,-8.76648 L -68.1387,-8.85724 L -67.9635,-8.92657 L -67.7811,-8.97342
 L -67.5942,-8.99704 L -67.4058,-8.99704 L -67.2189,-8.97342 L -67.0365,-8.92657 L -66.8613,-8.85724 L -66.6963,-8.76648
 L -66.5439,-8.65576 L -66.4065,-8.52681 L -66.2865,-8.38167 L -66.1855,-8.22263 L -66.1053,-8.05219 L -66.0471,-7.87303
 L -66.0118,-7.68799 L -66,-7.5 L -66.0118,-7.312 L -66.0471,-7.12695 L -66.1053,-6.9478 L -66.1855,-6.77736
 L -66.2865,-6.61832 L -66.4065,-6.47318 L -66.5439,-6.34422 L -66.6963,-6.23351 L -66.8613,-6.14275 L -67.0365,-6.07341
 L -67.2189,-6.02657 L -67.4058,-6.00294 z
M 67.3116,2.99408 L 66.9379,2.94685 L 66.573,2.85316 L 66.2227,2.71448 L 65.8925,2.53297 L 65.5877,2.31154
 L 65.3131,2.05363 L 65.073,1.76335 L 64.8711,1.44525 L 64.7107,1.10437 L 64.5943,0.746063 L 64.5237,0.375992
 L 64.5,-0 L 64.5237,-0.375992 L 64.5943,-0.746063 L 64.7107,-1.10437 L 64.8711,-1.44525 L 65.073,-1.76335
 L 65.3131,-2.05363 L 65.5877,-2.31154 L 65.8925,-2.53297 L 66.2227,-2.71448 L 66.573,-2.85316 L 66.9379,-2.94685
 L 67.3116,-2.99408 L 67.6884,-2.99408 L 68.0621,-2.94685 L 68.427,-2.85316 L 68.7773,-2.71448 L 69.1075,-2.53297
 L 69.4123,-2.31154 L 69.6869,-2.05363 L 69.927,-1.76335 L 70.1289,-1.44525 L 70.2893,-1.10437 L 70.4057,-0.746063
 L 70.4763,-0.375992 L 70.5,-0 L 70.4763,0.375992 L 70.4057,0.746063 L 70.2893,1.10437 L 70.1289,1.44525
 L 69.927,1.76335 L 69.6869,2.05363 L 69.4123,2.31154 L 69.1075,2.53297 L 68.7773,2.71448 L 68.427,2.85316
 L 68.0621,2.94685 L 67.6884,2.99408 z
M -67.5942,8.99704 L -67.7811,8.97342 L -67.9635,8.92657 L -68.1387,8.85724 L -68.3037,8.76648 L -68.4561,8.65576
 L -68.5934,8.52681 L -68.7135,8.38167 L -68.8145,8.22263 L -68.8947,8.05219 L -68.9529,7.87303 L -68.9882,7.68799
 L -69,7.5 L -68.9882,7.312 L -68.9529,7.12695 L -68.8947,6.9478 L -68.8145,6.77736 L -68.7135,6.61832
 L -68.5934,6.47318 L -68.4561,6.34422 L -68.3037,6.23351 L -68.1387,6.14275 L -67.9635,6.07341 L -67.7811,6.02657
 L -67.5942,6.00294 L -67.4058,6.00294 L -67.2189,6.02657 L -67.0365,6.07341 L -66.8613,6.14275 L -66.6963,6.23351
 L -66.5439,6.34422 L -66.4065,6.47318 L -66.2865,6.61832 L -66.1855,6.77736 L -66.1053,6.9478 L -66.0471,7.12695
 L -66.0118,7.312 L -66,7.5 L -66.0118,7.68799 L -66.0471,7.87303 L -66.1053,8.05219 L -66.1855,8.22263
 L -66.2865,8.38167 L -66.4065,8.52681 L -66.5439,8.65576 L -66.6963,8.76648 L -66.8613,8.85724 L -67.0365,8.92657
 L -67.2189,8.97342 L -67.4058,8.99704 z
M 67.4058,8.99704 L 67.2189,8.97342 L 67.0365,8.92657 L 66.8613,8.85724 L 66.6963,8.76648 L 66.5439,8.65576
 L 66.4065,8.52681 L 66.2865,8.38167 L 66.1855,8.22263 L 66.1053,8.05219 L 66.0471,7.87303 L 66.0118,7.68799
 L 66,7.5 L 66.0118,7.312 L 66.0471,7.12695 L 66.1053,6.9478 L 66.1855,6.77736 L 66.2865,6.61832
 L 66.4065,6.47318 L 66.5439,6.34422 L 66.6963,6.23351 L 66.8613,6.14275 L 67.0365,6.07341 L 67.2189,6.02657
 L 67.4058,6.00294 L 67.5942,6.00294 L 67.7811,6.02657 L 67.9635,6.07341 L 68.1387,6.14275 L 68.3037,6.23351
 L 68.4561,6.34422 L 68.5934,6.47318 L 68.7135,6.61832 L 68.8145,6.77736 L 68.8947,6.9478 L 68.9529,7.12695
 L 68.9882,7.312 L 69,7.5 L 68.9882,7.68799 L 68.9529,7.87303 L 68.8947,8.05219 L 68.8145,8.22263
 L 68.7135,8.38167 L 68.5934,8.52681 L 68.4561,8.65576 L 68.3037,8.76648 L 68.1387,8.85724 L 67.9635,8.92657
 L 67.7811,8.97342 L 67.5942,8.99704 z
M 67.3116,17.9941 L 66.9379,17.9469 L 66.573,17.8532 L 66.2227,17.7145 L 65.8925,17.533 L 65.5877,17.3115
 L 65.3131,17.0536 L 65.073,16.7634 L 64.8711,16.4453 L 64.7107,16.1044 L 64.5943,15.7461 L 64.5237,15.376
 L 64.5,15 L 64.5237,14.624 L 64.5943,14.2539 L 64.7107,13.8956 L 64.8711,13.5547 L 65.073,13.2366
 L 65.3131,12.9464 L 65.5877,12.6884 L 65.8925,12.467 L 66.2227,12.2855 L 66.573,12.1468 L 66.9379,12.0531
 L 67.3116,12.0059 L 67.6884,12.0059 L 68.0621,12.0531 L 68.427,12.1468 L 68.7773,12.2855 L 69.1075,12.467
 L 69.4123,12.6884 L 69.6869,12.9464 L 69.927,13.2366 L 70.1289,13.5547 L 70.2893,13.8956 L 70.4057,14.2539
 L 70.4763,14.624 L 70.5,15 L 70.4763,15.376 L 70.4057,15.7461 L 70.2893,16.1044 L 70.1289,16.4453
 L 69.927,16.7634 L 69.6869,17.0536 L 69.4123,17.3115 L 69.1075,17.533 L 68.7773,17.7145 L 68.427,17.8532
 L 68.0621,17.9469 L 67.6884,17.9941 z
M -67.6884,17.9941 L -68.0621,17.9469 L -68.427,17.8532 L -68.7773,17.7145 L -69.1075,17.533 L -69.4123,17.3115
 L -69.6869,17.0536 L -69.927,16.7634 L -70.1289,16.4453 L -70.2893,16.1044 L -70.4057,15.7461 L -70.4763,15.376
 L -70.5,15 L -70.4763,14.624 L -70.4057,14.2539 L -70.2893,13.8956 L -70.1289,13.5547 L -69.927,13.2366
 L -69.6869,12.9464 L -69.4123,12.6884 L -69.1075,12.467 L -68.7773,12.2855 L -68.427,12.1468 L -68.0621,12.0531
 L -67.6884,12.0059 L -67.3116,12.0059 L -66.9379,12.0531 L -66.573,12.1468 L -66.2227,12.2855 L -65.8925,12.467
 L -65.5877,12.6884 L -65.3131,12.9464 L -65.073,13.2366 L -64.8711,13.5547 L -64.7107,13.8956 L -64.5943,14.2539
 L -64.5237,14.624 L -64.5,15 L -64.5237,15.376 L -64.5943,15.7461 L -64.7107,16.1044 L -64.8711,16.4453
 L -65.073,16.7634 L -65.3131,17.0536 L -65.5877,17.3115 L -65.8925,17.533 L -66.2227,17.7145 L -66.573,17.8532
 L -66.9379,17.9469 L -67.3116,17.9941 z
M -64.5943,0.746063 L -64.7107,1.10437 L -64.8711,1.44525 L -65.073,1.76335 L -65.3131,2.05363 L -65.5877,2.31154
 L -65.8925,2.53297 L -66.2227,2.71448 L -66.573,2.85316 L -66.9379,2.94685 L -67.3116,2.99408 L -67.6884,2.99408
 L -68.0621,2.94685 L -68.427,2.85316 L -68.7773,2.71448 L -69.1075,2.53297 L -69.4123,2.31154 L -69.6869,2.05363
 L -69.927,1.76335 L -70.1289,1.44525 L -70.2893,1.10437 L -70.4057,0.746063 L -70.4763,0.375992 L -70.5,-0
 L -70.4763,-0.375992 L -70.4057,-0.746063 L -70.2893,-1.10437 L -70.1289,-1.44525 L -69.927,-1.76335 L -69.6869,-2.05363
 L -69.4123,-2.31154 L -69.1075,-2.53297 L -68.7773,-2.71448 L -68.427,-2.85316 L -68.0621,-2.94685 L -67.6884,-2.99408
 L -67.3116,-2.99408 L -66.9379,-2.94685 L -66.573,-2.85316 L -66.2227,-2.71448 L -65.8925,-2.53297 L -65.5877,-2.31154
 L -65.3131,-2.05363 L -65.073,-1.76335 L -64.8711,-1.44525 L -64.7107,-1.10437 L -64.5943,-0.746063 L -64.5237,-0.375992
 L -64.5,-0 L -64.5237,0.375992 z
" stroke="black" fill="lightgray" stroke-width="0.5"/>
</svg>
