  0
SECTION
  2
BLOCKS
  0
ENDSEC
  0
SECTION
  2
ENTITIES
  0
LINE
  8
0
 10
227.937
 20
-51.9114
 11
228.545
 21
-51.7553
  0
LINE
  8
0
 10
228.545
 20
-51.7553
 11
229.129
 21
-51.5241
  0
LINE
  8
0
 10
229.129
 20
-51.5241
 11
229.679
 21
-51.2216
  0
LINE
  8
0
 10
229.679
 20
-51.2216
 11
230.187
 21
-50.8526
  0
LINE
  8
0
 10
230.187
 20
-50.8526
 11
230.645
 21
-50.4227
  0
LINE
  8
0
 10
230.645
 20
-50.4227
 11
231.045
 21
-49.9389
  0
LINE
  8
0
 10
231.045
 20
-49.9389
 11
231.382
 21
-49.4088
  0
LINE
  8
0
 10
231.382
 20
-49.4088
 11
231.649
 21
-48.8406
  0
LINE
  8
0
 10
231.649
 20
-48.8406
 11
231.843
 21
-48.2434
  0
LINE
  8
0
 10
231.843
 20
-48.2434
 11
231.961
 21
-47.6267
  0
LINE
  8
0
 10
231.961
 20
-47.6267
 11
232
 21
-47
  0
LINE
  8
0
 10
232
 20
-47
 11
232
 21
47
  0
LINE
  8
0
 10
232
 20
47
 11
231.961
 21
47.6267
  0
LINE
  8
0
 10
231.961
 20
47.6267
 11
231.843
 21
48.2434
  0
LINE
  8
0
 10
231.843
 20
48.2434
 11
231.649
 21
48.8406
  0
LINE
  8
0
 10
231.649
 20
48.8406
 11
231.382
 21
49.4088
  0
LINE
  8
0
 10
231.382
 20
49.4088
 11
231.045
 21
49.9389
  0
LINE
  8
0
 10
231.045
 20
49.9389
 11
230.645
 21
50.4227
  0
LINE
  8
0
 10
230.645
 20
50.4227
 11
230.187
 21
50.8526
  0
LINE
  8
0
 10
230.187
 20
50.8526
 11
229.679
 21
51.2216
  0
LINE
  8
0
 10
229.679
 20
51.2216
 11
229.129
 21
51.5241
  0
LINE
  8
0
 10
229.129
 20
51.5241
 11
228.545
 21
51.7553
  0
LINE
  8
0
 10
228.545
 20
51.7553
 11
227.937
 21
51.9114
  0
LINE
  8
0
 10
227.937
 20
51.9114
 11
227.314
 21
51.9901
  0
LINE
  8
0
 10
227.314
 20
51.9901
 11
-227.314
 21
51.9901
  0
LINE
  8
0
 10
-227.314
 20
51.9901
 11
-227.937
 21
51.9114
  0
LINE
  8
0
 10
-227.937
 20
51.9114
 11
-228.545
 21
51.7553
  0
LINE
  8
0
 10
-228.545
 20
51.7553
 11
-229.129
 21
51.5241
  0
LINE
  8
0
 10
-229.129
 20
51.5241
 11
-229.679
 21
51.2216
  0
LINE
  8
0
 10
-229.679
 20
51.2216
 11
-230.187
 21
50.8526
  0
LINE
  8
0
 10
-230.187
 20
50.8526
 11
-230.645
 21
50.4227
  0
LINE
  8
0
 10
-230.645
 20
50.4227
 11
-231.045
 21
49.9389
  0
LINE
  8
0
 10
-231.045
 20
49.9389
 11
-231.382
 21
49.4088
  0
LINE
  8
0
 10
-231.382
 20
49.4088
 11
-231.649
 21
48.8406
  0
LINE
  8
0
 10
-231.649
 20
48.8406
 11
-231.843
 21
48.2434
  0
LINE
  8
0
 10
-231.843
 20
48.2434
 11
-231.961
 21
47.6267
  0
LINE
  8
0
 10
-231.961
 20
47.6267
 11
-232
 21
47
  0
LINE
  8
0
 10
-232
 20
47
 11
-232
 21
-47
  0
LINE
  8
0
 10
-232
 20
-47
 11
-231.961
 21
-47.6267
  0
LINE
  8
0
 10
-231.961
 20
-47.6267
 11
-231.843
 21
-48.2434
  0
LINE
  8
0
 10
-231.843
 20
-48.2434
 11
-231.649
 21
-48.8406
  0
LINE
  8
0
 10
-231.649
 20
-48.8406
 11
-231.382
 21
-49.4088
  0
LINE
  8
0
 10
-231.382
 20
-49.4088
 11
-231.045
 21
-49.9389
  0
LINE
  8
0
 10
-231.045
 20
-49.9389
 11
-230.645
 21
-50.4227
  0
LINE
  8
0
 10
-230.645
 20
-50.4227
 11
-230.187
 21
-50.8526
  0
LINE
  8
0
 10
-230.187
 20
-50.8526
 11
-229.679
 21
-51.2216
  0
LINE
  8
0
 10
-229.679
 20
-51.2216
 11
-229.129
 21
-51.5241
  0
LINE
  8
0
 10
-229.129
 20
-51.5241
 11
-228.545
 21
-51.7553
  0
LINE
  8
0
 10
-228.545
 20
-51.7553
 11
-227.937
 21
-51.9114
  0
LINE
  8
0
 10
-227.937
 20
-51.9114
 11
-227.314
 21
-51.9901
  0
LINE
  8
0
 10
-227.314
 20
-51.9901
 11
227.314
 21
-51.9901
  0
LINE
  8
0
 10
227.314
 20
-51.9901
 11
227.937
 21
-51.9114
  0
LINE
  8
0
 10
-225.188
 20
42.0059
 11
-225.562
 21
42.0531
  0
LINE
  8
0
 10
-225.562
 20
42.0531
 11
-225.927
 21
42.1468
  0
LINE
  8
0
 10
-225.927
 20
42.1468
 11
-226.277
 21
42.2855
  0
LINE
  8
0
 10
-226.277
 20
42.2855
 11
-226.607
 21
42.467
  0
LINE
  8
0
 10
-226.607
 20
42.467
 11
-226.912
 21
42.6885
  0
LINE
  8
0
 10
-226.912
 20
42.6885
 11
-227.187
 21
42.9464
  0
LINE
  8
0
 10
-227.187
 20
42.9464
 11
-227.427
 21
43.2366
  0
LINE
  8
0
 10
-227.427
 20
43.2366
 11
-227.629
 21
43.5547
  0
LINE
  8
0
 10
-227.629
 20
43.5547
 11
-227.789
 21
43.8956
  0
LINE
  8
0
 10
-227.789
 20
43.8956
 11
-227.906
 21
44.2539
  0
LINE
  8
0
 10
-227.906
 20
44.2539
 11
-227.976
 21
44.624
  0
LINE
  8
0
 10
-227.976
 20
44.624
 11
-228
 21
45
  0
LINE
  8
0
 10
-228
 20
45
 11
-227.976
 21
45.376
  0
LINE
  8
0
 10
-227.976
 20
45.376
 11
-227.906
 21
45.7461
  0
LINE
  8
0
 10
-227.906
 20
45.7461
 11
-227.789
 21
46.1044
  0
LINE
  8
0
 10
-227.789
 20
46.1044
 11
-227.629
 21
46.4453
  0
LINE
  8
0
 10
-227.629
 20
46.4453
 11
-227.427
 21
46.7634
  0
LINE
  8
0
 10
-227.427
 20
46.7634
 11
-227.187
 21
47.0536
  0
LINE
  8
0
 10
-227.187
 20
47.0536
 11
-226.912
 21
47.3115
  0
LINE
  8
0
 10
-226.912
 20
47.3115
 11
-226.607
 21
47.533
  0
LINE
  8
0
 10
-226.607
 20
47.533
 11
-226.277
 21
47.7145
  0
LINE
  8
0
 10
-226.277
 20
47.7145
 11
-225.927
 21
47.8532
  0
LINE
  8
0
 10
-225.927
 20
47.8532
 11
-225.562
 21
47.9469
  0
LINE
  8
0
 10
-225.562
 20
47.9469
 11
-225.188
 21
47.9941
  0
LINE
  8
0
 10
-225.188
 20
47.9941
 11
-224.812
 21
47.9941
  0
LINE
  8
0
 10
-224.812
 20
47.9941
 11
-224.438
 21
47.9469
  0
LINE
  8
0
 10
-224.438
 20
47.9469
 11
-224.073
 21
47.8532
  0
LINE
  8
0
 10
-224.073
 20
47.8532
 11
-223.723
 21
47.7145
  0
LINE
  8
0
 10
-223.723
 20
47.7145
 11
-223.393
 21
47.533
  0
LINE
  8
0
 10
-223.393
 20
47.533
 11
-223.088
 21
47.3115
  0
LINE
  8
0
 10
-223.088
 20
47.3115
 11
-222.813
 21
47.0536
  0
LINE
  8
0
 10
-222.813
 20
47.0536
 11
-222.573
 21
46.7634
  0
LINE
  8
0
 10
-222.573
 20
46.7634
 11
-222.371
 21
46.4453
  0
LINE
  8
0
 10
-222.371
 20
46.4453
 11
-222.211
 21
46.1044
  0
LINE
  8
0
 10
-222.211
 20
46.1044
 11
-222.094
 21
45.7461
  0
LINE
  8
0
 10
-222.094
 20
45.7461
 11
-222.024
 21
45.376
  0
LINE
  8
0
 10
-222.024
 20
45.376
 11
-222
 21
45
  0
LINE
  8
0
 10
-222
 20
45
 11
-222.024
 21
44.624
  0
LINE
  8
0
 10
-222.024
 20
44.624
 11
-222.094
 21
44.2539
  0
LINE
  8
0
 10
-222.094
 20
44.2539
 11
-222.211
 21
43.8956
  0
LINE
  8
0
 10
-222.211
 20
43.8956
 11
-222.371
 21
43.5547
  0
LINE
  8
0
 10
-222.371
 20
43.5547
 11
-222.573
 21
43.2366
  0
LINE
  8
0
 10
-222.573
 20
43.2366
 11
-222.813
 21
42.9464
  0
LINE
  8
0
 10
-222.813
 20
42.9464
 11
-223.088
 21
42.6885
  0
LINE
  8
0
 10
-223.088
 20
42.6885
 11
-223.393
 21
42.467
  0
LINE
  8
0
 10
-223.393
 20
42.467
 11
-223.723
 21
42.2855
  0
LINE
  8
0
 10
-223.723
 20
42.2855
 11
-224.073
 21
42.1468
  0
LINE
  8
0
 10
-224.073
 20
42.1468
 11
-224.438
 21
42.0531
  0
LINE
  8
0
 10
-224.438
 20
42.0531
 11
-224.812
 21
42.0059
  0
LINE
  8
0
 10
-224.812
 20
42.0059
 11
-225.188
 21
42.0059
  0
LINE
  8
0
 10
224.812
 20
42.0059
 11
224.438
 21
42.0531
  0
LINE
  8
0
 10
224.438
 20
42.0531
 11
224.073
 21
42.1468
  0
LINE
  8
0
 10
224.073
 20
42.1468
 11
223.723
 21
42.2855
  0
LINE
  8
0
 10
223.723
 20
42.2855
 11
223.393
 21
42.467
  0
LINE
  8
0
 10
223.393
 20
42.467
 11
223.088
 21
42.6885
  0
LINE
  8
0
 10
223.088
 20
42.6885
 11
222.813
 21
42.9464
  0
LINE
  8
0
 10
222.813
 20
42.9464
 11
222.573
 21
43.2366
  0
LINE
  8
0
 10
222.573
 20
43.2366
 11
222.371
 21
43.5547
  0
LINE
  8
0
 10
222.371
 20
43.5547
 11
222.211
 21
43.8956
  0
LINE
  8
0
 10
222.211
 20
43.8956
 11
222.094
 21
44.2539
  0
LINE
  8
0
 10
222.094
 20
44.2539
 11
222.024
 21
44.624
  0
LINE
  8
0
 10
222.024
 20
44.624
 11
222
 21
45
  0
LINE
  8
0
 10
222
 20
45
 11
222.024
 21
45.376
  0
LINE
  8
0
 10
222.024
 20
45.376
 11
222.094
 21
45.7461
  0
LINE
  8
0
 10
222.094
 20
45.7461
 11
222.211
 21
46.1044
  0
LINE
  8
0
 10
222.211
 20
46.1044
 11
222.371
 21
46.4453
  0
LINE
  8
0
 10
222.371
 20
46.4453
 11
222.573
 21
46.7634
  0
LINE
  8
0
 10
222.573
 20
46.7634
 11
222.813
 21
47.0536
  0
LINE
  8
0
 10
222.813
 20
47.0536
 11
223.088
 21
47.3115
  0
LINE
  8
0
 10
223.088
 20
47.3115
 11
223.393
 21
47.533
  0
LINE
  8
0
 10
223.393
 20
47.533
 11
223.723
 21
47.7145
  0
LINE
  8
0
 10
223.723
 20
47.7145
 11
224.073
 21
47.8532
  0
LINE
  8
0
 10
224.073
 20
47.8532
 11
224.438
 21
47.9469
  0
LINE
  8
0
 10
224.438
 20
47.9469
 11
224.812
 21
47.9941
  0
LINE
  8
0
 10
224.812
 20
47.9941
 11
225.188
 21
47.9941
  0
LINE
  8
0
 10
225.188
 20
47.9941
 11
225.562
 21
47.9469
  0
LINE
  8
0
 10
225.562
 20
47.9469
 11
225.927
 21
47.8532
  0
LINE
  8
0
 10
225.927
 20
47.8532
 11
226.277
 21
47.7145
  0
LINE
  8
0
 10
226.277
 20
47.7145
 11
226.607
 21
47.533
  0
LINE
  8
0
 10
226.607
 20
47.533
 11
226.912
 21
47.3115
  0
LINE
  8
0
 10
226.912
 20
47.3115
 11
227.187
 21
47.0536
  0
LINE
  8
0
 10
227.187
 20
47.0536
 11
227.427
 21
46.7634
  0
LINE
  8
0
 10
227.427
 20
46.7634
 11
227.629
 21
46.4453
  0
LINE
  8
0
 10
227.629
 20
46.4453
 11
227.789
 21
46.1044
  0
LINE
  8
0
 10
227.789
 20
46.1044
 11
227.906
 21
45.7461
  0
LINE
  8
0
 10
227.906
 20
45.7461
 11
227.976
 21
45.376
  0
LINE
  8
0
 10
227.976
 20
45.376
 11
228
 21
45
  0
LINE
  8
0
 10
228
 20
45
 11
227.976
 21
44.624
  0
LINE
  8
0
 10
227.976
 20
44.624
 11
227.906
 21
44.2539
  0
LINE
  8
0
 10
227.906
 20
44.2539
 11
227.789
 21
43.8956
  0
LINE
  8
0
 10
227.789
 20
43.8956
 11
227.629
 21
43.5547
  0
LINE
  8
0
 10
227.629
 20
43.5547
 11
227.427
 21
43.2366
  0
LINE
  8
0
 10
227.427
 20
43.2366
 11
227.187
 21
42.9464
  0
LINE
  8
0
 10
227.187
 20
42.9464
 11
226.912
 21
42.6885
  0
LINE
  8
0
 10
226.912
 20
42.6885
 11
226.607
 21
42.467
  0
LINE
  8
0
 10
226.607
 20
42.467
 11
226.277
 21
42.2855
  0
LINE
  8
0
 10
226.277
 20
42.2855
 11
225.927
 21
42.1468
  0
LINE
  8
0
 10
225.927
 20
42.1468
 11
225.562
 21
42.0531
  0
LINE
  8
0
 10
225.562
 20
42.0531
 11
225.188
 21
42.0059
  0
LINE
  8
0
 10
225.188
 20
42.0059
 11
224.812
 21
42.0059
  0
LINE
  8
0
 10
177.331
 20
-42.4161
 11
172.036
 21
-41.7472
  0
LINE
  8
0
 10
172.036
 20
-41.7472
 11
166.867
 21
-40.4199
  0
LINE
  8
0
 10
166.867
 20
-40.4199
 11
161.904
 21
-38.4551
  0
LINE
  8
0
 10
161.904
 20
-38.4551
 11
157.227
 21
-35.8839
  0
LINE
  8
0
 10
157.227
 20
-35.8839
 11
152.909
 21
-32.7468
  0
LINE
  8
0
 10
152.909
 20
-32.7468
 11
149.019
 21
-29.0932
  0
LINE
  8
0
 10
149.019
 20
-29.0932
 11
145.617
 21
-24.9809
  0
LINE
  8
0
 10
145.617
 20
-24.9809
 11
142.757
 21
-20.4745
  0
LINE
  8
0
 10
142.757
 20
-20.4745
 11
140.484
 21
-15.6453
  0
LINE
  8
0
 10
140.484
 20
-15.6453
 11
138.835
 21
-10.5693
  0
LINE
  8
0
 10
138.835
 20
-10.5693
 11
137.835
 21
-5.32666
  0
LINE
  8
0
 10
137.835
 20
-5.32666
 11
137.5
 21
0
  0
LINE
  8
0
 10
137.5
 20
0
 11
137.835
 21
5.32666
  0
LINE
  8
0
 10
137.835
 20
5.32666
 11
138.835
 21
10.5693
  0
LINE
  8
0
 10
138.835
 20
10.5693
 11
140.484
 21
15.6453
  0
LINE
  8
0
 10
140.484
 20
15.6453
 11
142.757
 21
20.4745
  0
LINE
  8
0
 10
142.757
 20
20.4745
 11
145.617
 21
24.9809
  0
LINE
  8
0
 10
145.617
 20
24.9809
 11
149.019
 21
29.0932
  0
LINE
  8
0
 10
149.019
 20
29.0932
 11
152.909
 21
32.7468
  0
LINE
  8
0
 10
152.909
 20
32.7468
 11
157.227
 21
35.8839
  0
LINE
  8
0
 10
157.227
 20
35.8839
 11
161.904
 21
38.4551
  0
LINE
  8
0
 10
161.904
 20
38.4551
 11
166.867
 21
40.4199
  0
LINE
  8
0
 10
166.867
 20
40.4199
 11
172.036
 21
41.7472
  0
LINE
  8
0
 10
172.036
 20
41.7472
 11
177.331
 21
42.4161
  0
LINE
  8
0
 10
177.331
 20
42.4161
 11
182.669
 21
42.4161
  0
LINE
  8
0
 10
182.669
 20
42.4161
 11
187.964
 21
41.7472
  0
LINE
  8
0
 10
187.964
 20
41.7472
 11
193.133
 21
40.4199
  0
LINE
  8
0
 10
193.133
 20
40.4199
 11
198.096
 21
38.4551
  0
LINE
  8
0
 10
198.096
 20
38.4551
 11
202.773
 21
35.8839
  0
LINE
  8
0
 10
202.773
 20
35.8839
 11
207.091
 21
32.7468
  0
LINE
  8
0
 10
207.091
 20
32.7468
 11
210.981
 21
29.0932
  0
LINE
  8
0
 10
210.981
 20
29.0932
 11
214.383
 21
24.9809
  0
LINE
  8
0
 10
214.383
 20
24.9809
 11
217.243
 21
20.4745
  0
LINE
  8
0
 10
217.243
 20
20.4745
 11
219.516
 21
15.6453
  0
LINE
  8
0
 10
219.516
 20
15.6453
 11
221.165
 21
10.5693
  0
LINE
  8
0
 10
221.165
 20
10.5693
 11
222.165
 21
5.32666
  0
LINE
  8
0
 10
222.165
 20
5.32666
 11
222.5
 21
0
  0
LINE
  8
0
 10
222.5
 20
0
 11
222.165
 21
-5.32666
  0
LINE
  8
0
 10
222.165
 20
-5.32666
 11
221.165
 21
-10.5693
  0
LINE
  8
0
 10
221.165
 20
-10.5693
 11
219.516
 21
-15.6453
  0
LINE
  8
0
 10
219.516
 20
-15.6453
 11
217.243
 21
-20.4745
  0
LINE
  8
0
 10
217.243
 20
-20.4745
 11
214.383
 21
-24.9809
  0
LINE
  8
0
 10
214.383
 20
-24.9809
 11
210.981
 21
-29.0932
  0
LINE
  8
0
 10
210.981
 20
-29.0932
 11
207.091
 21
-32.7468
  0
LINE
  8
0
 10
207.091
 20
-32.7468
 11
202.773
 21
-35.8839
  0
LINE
  8
0
 10
202.773
 20
-35.8839
 11
198.096
 21
-38.4551
  0
LINE
  8
0
 10
198.096
 20
-38.4551
 11
193.133
 21
-40.4199
  0
LINE
  8
0
 10
193.133
 20
-40.4199
 11
187.964
 21
-41.7472
  0
LINE
  8
0
 10
187.964
 20
-41.7472
 11
182.669
 21
-42.4161
  0
LINE
  8
0
 10
182.669
 20
-42.4161
 11
177.331
 21
-42.4161
  0
LINE
  8
0
 10
87.3314
 20
-42.4161
 11
82.0363
 21
-41.7472
  0
LINE
  8
0
 10
82.0363
 20
-41.7472
 11
76.8668
 21
-40.4199
  0
LINE
  8
0
 10
76.8668
 20
-40.4199
 11
71.9044
 21
-38.4551
  0
LINE
  8
0
 10
71.9044
 20
-38.4551
 11
67.2274
 21
-35.8839
  0
LINE
  8
0
 10
67.2274
 20
-35.8839
 11
62.9095
 21
-32.7468
  0
LINE
  8
0
 10
62.9095
 20
-32.7468
 11
59.0188
 21
-29.0932
  0
LINE
  8
0
 10
59.0188
 20
-29.0932
 11
55.6168
 21
-24.9809
  0
LINE
  8
0
 10
55.6168
 20
-24.9809
 11
52.757
 21
-20.4745
  0
LINE
  8
0
 10
52.757
 20
-20.4745
 11
50.4845
 21
-15.6453
  0
LINE
  8
0
 10
50.4845
 20
-15.6453
 11
48.8352
 21
-10.5693
  0
LINE
  8
0
 10
48.8352
 20
-10.5693
 11
47.8351
 21
-5.32666
  0
LINE
  8
0
 10
47.8351
 20
-5.32666
 11
47.5
 21
0
  0
LINE
  8
0
 10
47.5
 20
0
 11
47.8351
 21
5.32666
  0
LINE
  8
0
 10
47.8351
 20
5.32666
 11
48.8352
 21
10.5693
  0
LINE
  8
0
 10
48.8352
 20
10.5693
 11
50.4845
 21
15.6453
  0
LINE
  8
0
 10
50.4845
 20
15.6453
 11
52.757
 21
20.4745
  0
LINE
  8
0
 10
52.757
 20
20.4745
 11
55.6168
 21
24.9809
  0
LINE
  8
0
 10
55.6168
 20
24.9809
 11
59.0188
 21
29.0932
  0
LINE
  8
0
 10
59.0188
 20
29.0932
 11
62.9095
 21
32.7468
  0
LINE
  8
0
 10
62.9095
 20
32.7468
 11
67.2274
 21
35.8839
  0
LINE
  8
0
 10
67.2274
 20
35.8839
 11
71.9044
 21
38.4551
  0
LINE
  8
0
 10
71.9044
 20
38.4551
 11
76.8668
 21
40.4199
  0
LINE
  8
0
 10
76.8668
 20
40.4199
 11
82.0363
 21
41.7472
  0
LINE
  8
0
 10
82.0363
 20
41.7472
 11
87.3314
 21
42.4161
  0
LINE
  8
0
 10
87.3314
 20
42.4161
 11
92.6686
 21
42.4161
  0
LINE
  8
0
 10
92.6686
 20
42.4161
 11
97.9637
 21
41.7472
  0
LINE
  8
0
 10
97.9637
 20
41.7472
 11
103.133
 21
40.4199
  0
LINE
  8
0
 10
103.133
 20
40.4199
 11
108.096
 21
38.4551
  0
LINE
  8
0
 10
108.096
 20
38.4551
 11
112.773
 21
35.8839
  0
LINE
  8
0
 10
112.773
 20
35.8839
 11
117.091
 21
32.7468
  0
LINE
  8
0
 10
117.091
 20
32.7468
 11
120.981
 21
29.0932
  0
LINE
  8
0
 10
120.981
 20
29.0932
 11
124.383
 21
24.9809
  0
LINE
  8
0
 10
124.383
 20
24.9809
 11
127.243
 21
20.4745
  0
LINE
  8
0
 10
127.243
 20
20.4745
 11
129.516
 21
15.6453
  0
LINE
  8
0
 10
129.516
 20
15.6453
 11
131.165
 21
10.5693
  0
LINE
  8
0
 10
131.165
 20
10.5693
 11
132.165
 21
5.32666
  0
LINE
  8
0
 10
132.165
 20
5.32666
 11
132.5
 21
0
  0
LINE
  8
0
 10
132.5
 20
0
 11
132.165
 21
-5.32666
  0
LINE
  8
0
 10
132.165
 20
-5.32666
 11
131.165
 21
-10.5693
  0
LINE
  8
0
 10
131.165
 20
-10.5693
 11
129.516
 21
-15.6453
  0
LINE
  8
0
 10
129.516
 20
-15.6453
 11
127.243
 21
-20.4745
  0
LINE
  8
0
 10
127.243
 20
-20.4745
 11
124.383
 21
-24.9809
  0
LINE
  8
0
 10
124.383
 20
-24.9809
 11
120.981
 21
-29.0932
  0
LINE
  8
0
 10
120.981
 20
-29.0932
 11
117.091
 21
-32.7468
  0
LINE
  8
0
 10
117.091
 20
-32.7468
 11
112.773
 21
-35.8839
  0
LINE
  8
0
 10
112.773
 20
-35.8839
 11
108.096
 21
-38.4551
  0
LINE
  8
0
 10
108.096
 20
-38.4551
 11
103.133
 21
-40.4199
  0
LINE
  8
0
 10
103.133
 20
-40.4199
 11
97.9637
 21
-41.7472
  0
LINE
  8
0
 10
97.9637
 20
-41.7472
 11
92.6686
 21
-42.4161
  0
LINE
  8
0
 10
92.6686
 20
-42.4161
 11
87.3314
 21
-42.4161
  0
LINE
  8
0
 10
-2.66859
 20
-42.4161
 11
-7.9637
 21
-41.7472
  0
LINE
  8
0
 10
-7.9637
 20
-41.7472
 11
-13.1332
 21
-40.4199
  0
LINE
  8
0
 10
-13.1332
 20
-40.4199
 11
-18.0956
 21
-38.4551
  0
LINE
  8
0
 10
-18.0956
 20
-38.4551
 11
-22.7726
 21
-35.8839
  0
LINE
  8
0
 10
-22.7726
 20
-35.8839
 11
-27.0905
 21
-32.7468
  0
LINE
  8
0
 10
-27.0905
 20
-32.7468
 11
-30.9812
 21
-29.0932
  0
LINE
  8
0
 10
-30.9812
 20
-29.0932
 11
-34.3832
 21
-24.9809
  0
LINE
  8
0
 10
-34.3832
 20
-24.9809
 11
-37.243
 21
-20.4745
  0
LINE
  8
0
 10
-37.243
 20
-20.4745
 11
-39.5155
 21
-15.6453
  0
LINE
  8
0
 10
-39.5155
 20
-15.6453
 11
-41.1648
 21
-10.5693
  0
LINE
  8
0
 10
-41.1648
 20
-10.5693
 11
-42.1649
 21
-5.32666
  0
LINE
  8
0
 10
-42.1649
 20
-5.32666
 11
-42.5
 21
0
  0
LINE
  8
0
 10
-42.5
 20
0
 11
-42.1649
 21
5.32666
  0
LINE
  8
0
 10
-42.1649
 20
5.32666
 11
-41.1648
 21
10.5693
  0
LINE
  8
0
 10
-41.1648
 20
10.5693
 11
-39.5155
 21
15.6453
  0
LINE
  8
0
 10
-39.5155
 20
15.6453
 11
-37.243
 21
20.4745
  0
LINE
  8
0
 10
-37.243
 20
20.4745
 11
-34.3832
 21
24.9809
  0
LINE
  8
0
 10
-34.3832
 20
24.9809
 11
-30.9812
 21
29.0932
  0
LINE
  8
0
 10
-30.9812
 20
29.0932
 11
-27.0905
 21
32.7468
  0
LINE
  8
0
 10
-27.0905
 20
32.7468
 11
-22.7726
 21
35.8839
  0
LINE
  8
0
 10
-22.7726
 20
35.8839
 11
-18.0956
 21
38.4551
  0
LINE
  8
0
 10
-18.0956
 20
38.4551
 11
-13.1332
 21
40.4199
  0
LINE
  8
0
 10
-13.1332
 20
40.4199
 11
-7.9637
 21
41.7472
  0
LINE
  8
0
 10
-7.9637
 20
41.7472
 11
-2.66859
 21
42.4161
  0
LINE
  8
0
 10
-2.66859
 20
42.4161
 11
2.66859
 21
42.4161
  0
LINE
  8
0
 10
2.66859
 20
42.4161
 11
7.9637
 21
41.7472
  0
LINE
  8
0
 10
7.9637
 20
41.7472
 11
13.1332
 21
40.4199
  0
LINE
  8
0
 10
13.1332
 20
40.4199
 11
18.0956
 21
38.4551
  0
LINE
  8
0
 10
18.0956
 20
38.4551
 11
22.7726
 21
35.8839
  0
LINE
  8
0
 10
22.7726
 20
35.8839
 11
27.0905
 21
32.7468
  0
LINE
  8
0
 10
27.0905
 20
32.7468
 11
30.9812
 21
29.0932
  0
LINE
  8
0
 10
30.9812
 20
29.0932
 11
34.3832
 21
24.9809
  0
LINE
  8
0
 10
34.3832
 20
24.9809
 11
37.243
 21
20.4745
  0
LINE
  8
0
 10
37.243
 20
20.4745
 11
39.5155
 21
15.6453
  0
LINE
  8
0
 10
39.5155
 20
15.6453
 11
41.1648
 21
10.5693
  0
LINE
  8
0
 10
41.1648
 20
10.5693
 11
42.1649
 21
5.32666
  0
LINE
  8
0
 10
42.1649
 20
5.32666
 11
42.5
 21
0
  0
LINE
  8
0
 10
42.5
 20
0
 11
42.1649
 21
-5.32666
  0
LINE
  8
0
 10
42.1649
 20
-5.32666
 11
41.1648
 21
-10.5693
  0
LINE
  8
0
 10
41.1648
 20
-10.5693
 11
39.5155
 21
-15.6453
  0
LINE
  8
0
 10
39.5155
 20
-15.6453
 11
37.243
 21
-20.4745
  0
LINE
  8
0
 10
37.243
 20
-20.4745
 11
34.3832
 21
-24.9809
  0
LINE
  8
0
 10
34.3832
 20
-24.9809
 11
30.9812
 21
-29.0932
  0
LINE
  8
0
 10
30.9812
 20
-29.0932
 11
27.0905
 21
-32.7468
  0
LINE
  8
0
 10
27.0905
 20
-32.7468
 11
22.7726
 21
-35.8839
  0
LINE
  8
0
 10
22.7726
 20
-35.8839
 11
18.0956
 21
-38.4551
  0
LINE
  8
0
 10
18.0956
 20
-38.4551
 11
13.1332
 21
-40.4199
  0
LINE
  8
0
 10
13.1332
 20
-40.4199
 11
7.9637
 21
-41.7472
  0
LINE
  8
0
 10
7.9637
 20
-41.7472
 11
2.66859
 21
-42.4161
  0
LINE
  8
0
 10
2.66859
 20
-42.4161
 11
-2.66859
 21
-42.4161
  0
LINE
  8
0
 10
-92.6686
 20
-42.4161
 11
-97.9637
 21
-41.7472
  0
LINE
  8
0
 10
-97.9637
 20
-41.7472
 11
-103.133
 21
-40.4199
  0
LINE
  8
0
 10
-103.133
 20
-40.4199
 11
-108.096
 21
-38.4551
  0
LINE
  8
0
 10
-108.096
 20
-38.4551
 11
-112.773
 21
-35.8839
  0
LINE
  8
0
 10
-112.773
 20
-35.8839
 11
-117.091
 21
-32.7468
  0
LINE
  8
0
 10
-117.091
 20
-32.7468
 11
-120.981
 21
-29.0932
  0
LINE
  8
0
 10
-120.981
 20
-29.0932
 11
-124.383
 21
-24.9809
  0
LINE
  8
0
 10
-124.383
 20
-24.9809
 11
-127.243
 21
-20.4745
  0
LINE
  8
0
 10
-127.243
 20
-20.4745
 11
-129.516
 21
-15.6453
  0
LINE
  8
0
 10
-129.516
 20
-15.6453
 11
-131.165
 21
-10.5693
  0
LINE
  8
0
 10
-131.165
 20
-10.5693
 11
-132.165
 21
-5.32666
  0
LINE
  8
0
 10
-132.165
 20
-5.32666
 11
-132.5
 21
0
  0
LINE
  8
0
 10
-132.5
 20
0
 11
-132.165
 21
5.32666
  0
LINE
  8
0
 10
-132.165
 20
5.32666
 11
-131.165
 21
10.5693
  0
LINE
  8
0
 10
-131.165
 20
10.5693
 11
-129.516
 21
15.6453
  0
LINE
  8
0
 10
-129.516
 20
15.6453
 11
-127.243
 21
20.4745
  0
LINE
  8
0
 10
-127.243
 20
20.4745
 11
-124.383
 21
24.9809
  0
LINE
  8
0
 10
-124.383
 20
24.9809
 11
-120.981
 21
29.0932
  0
LINE
  8
0
 10
-120.981
 20
29.0932
 11
-117.091
 21
32.7468
  0
LINE
  8
0
 10
-117.091
 20
32.7468
 11
-112.773
 21
35.8839
  0
LINE
  8
0
 10
-112.773
 20
35.8839
 11
-108.096
 21
38.4551
  0
LINE
  8
0
 10
-108.096
 20
38.4551
 11
-103.133
 21
40.4199
  0
LINE
  8
0
 10
-103.133
 20
40.4199
 11
-97.9637
 21
41.7472
  0
LINE
  8
0
 10
-97.9637
 20
41.7472
 11
-92.6686
 21
42.4161
  0
LINE
  8
0
 10
-92.6686
 20
42.4161
 11
-87.3314
 21
42.4161
  0
LINE
  8
0
 10
-87.3314
 20
42.4161
 11
-82.0363
 21
41.7472
  0
LINE
  8
0
 10
-82.0363
 20
41.7472
 11
-76.8668
 21
40.4199
  0
LINE
  8
0
 10
-76.8668
 20
40.4199
 11
-71.9044
 21
38.4551
  0
LINE
  8
0
 10
-71.9044
 20
38.4551
 11
-67.2274
 21
35.8839
  0
LINE
  8
0
 10
-67.2274
 20
35.8839
 11
-62.9095
 21
32.7468
  0
LINE
  8
0
 10
-62.9095
 20
32.7468
 11
-59.0188
 21
29.0932
  0
LINE
  8
0
 10
-59.0188
 20
29.0932
 11
-55.6168
 21
24.9809
  0
LINE
  8
0
 10
-55.6168
 20
24.9809
 11
-52.757
 21
20.4745
  0
LINE
  8
0
 10
-52.757
 20
20.4745
 11
-50.4845
 21
15.6453
  0
LINE
  8
0
 10
-50.4845
 20
15.6453
 11
-48.8352
 21
10.5693
  0
LINE
  8
0
 10
-48.8352
 20
10.5693
 11
-47.8351
 21
5.32666
  0
LINE
  8
0
 10
-47.8351
 20
5.32666
 11
-47.5
 21
0
  0
LINE
  8
0
 10
-47.5
 20
0
 11
-47.8351
 21
-5.32666
  0
LINE
  8
0
 10
-47.8351
 20
-5.32666
 11
-48.8352
 21
-10.5693
  0
LINE
  8
0
 10
-48.8352
 20
-10.5693
 11
-50.4845
 21
-15.6453
  0
LINE
  8
0
 10
-50.4845
 20
-15.6453
 11
-52.757
 21
-20.4745
  0
LINE
  8
0
 10
-52.757
 20
-20.4745
 11
-55.6168
 21
-24.9809
  0
LINE
  8
0
 10
-55.6168
 20
-24.9809
 11
-59.0188
 21
-29.0932
  0
LINE
  8
0
 10
-59.0188
 20
-29.0932
 11
-62.9095
 21
-32.7468
  0
LINE
  8
0
 10
-62.9095
 20
-32.7468
 11
-67.2274
 21
-35.8839
  0
LINE
  8
0
 10
-67.2274
 20
-35.8839
 11
-71.9044
 21
-38.4551
  0
LINE
  8
0
 10
-71.9044
 20
-38.4551
 11
-76.8668
 21
-40.4199
  0
LINE
  8
0
 10
-76.8668
 20
-40.4199
 11
-82.0363
 21
-41.7472
  0
LINE
  8
0
 10
-82.0363
 20
-41.7472
 11
-87.3314
 21
-42.4161
  0
LINE
  8
0
 10
-87.3314
 20
-42.4161
 11
-92.6686
 21
-42.4161
  0
LINE
  8
0
 10
-182.669
 20
-42.4161
 11
-187.964
 21
-41.7472
  0
LINE
  8
0
 10
-187.964
 20
-41.7472
 11
-193.133
 21
-40.4199
  0
LINE
  8
0
 10
-193.133
 20
-40.4199
 11
-198.096
 21
-38.4551
  0
LINE
  8
0
 10
-198.096
 20
-38.4551
 11
-202.773
 21
-35.8839
  0
LINE
  8
0
 10
-202.773
 20
-35.8839
 11
-207.091
 21
-32.7468
  0
LINE
  8
0
 10
-207.091
 20
-32.7468
 11
-210.981
 21
-29.0932
  0
LINE
  8
0
 10
-210.981
 20
-29.0932
 11
-214.383
 21
-24.9809
  0
LINE
  8
0
 10
-214.383
 20
-24.9809
 11
-217.243
 21
-20.4745
  0
LINE
  8
0
 10
-217.243
 20
-20.4745
 11
-219.516
 21
-15.6453
  0
LINE
  8
0
 10
-219.516
 20
-15.6453
 11
-221.165
 21
-10.5693
  0
LINE
  8
0
 10
-221.165
 20
-10.5693
 11
-222.165
 21
-5.32666
  0
LINE
  8
0
 10
-222.165
 20
-5.32666
 11
-222.5
 21
0
  0
LINE
  8
0
 10
-222.5
 20
0
 11
-222.165
 21
5.32666
  0
LINE
  8
0
 10
-222.165
 20
5.32666
 11
-221.165
 21
10.5693
  0
LINE
  8
0
 10
-221.165
 20
10.5693
 11
-219.516
 21
15.6453
  0
LINE
  8
0
 10
-219.516
 20
15.6453
 11
-217.243
 21
20.4745
  0
LINE
  8
0
 10
-217.243
 20
20.4745
 11
-214.383
 21
24.9809
  0
LINE
  8
0
 10
-214.383
 20
24.9809
 11
-210.981
 21
29.0932
  0
LINE
  8
0
 10
-210.981
 20
29.0932
 11
-207.091
 21
32.7468
  0
LINE
  8
0
 10
-207.091
 20
32.7468
 11
-202.773
 21
35.8839
  0
LINE
  8
0
 10
-202.773
 20
35.8839
 11
-198.096
 21
38.4551
  0
LINE
  8
0
 10
-198.096
 20
38.4551
 11
-193.133
 21
40.4199
  0
LINE
  8
0
 10
-193.133
 20
40.4199
 11
-187.964
 21
41.7472
  0
LINE
  8
0
 10
-187.964
 20
41.7472
 11
-182.669
 21
42.4161
  0
LINE
  8
0
 10
-182.669
 20
42.4161
 11
-177.331
 21
42.4161
  0
LINE
  8
0
 10
-177.331
 20
42.4161
 11
-172.036
 21
41.7472
  0
LINE
  8
0
 10
-172.036
 20
41.7472
 11
-166.867
 21
40.4199
  0
LINE
  8
0
 10
-166.867
 20
40.4199
 11
-161.904
 21
38.4551
  0
LINE
  8
0
 10
-161.904
 20
38.4551
 11
-157.227
 21
35.8839
  0
LINE
  8
0
 10
-157.227
 20
35.8839
 11
-152.909
 21
32.7468
  0
LINE
  8
0
 10
-152.909
 20
32.7468
 11
-149.019
 21
29.0932
  0
LINE
  8
0
 10
-149.019
 20
29.0932
 11
-145.617
 21
24.9809
  0
LINE
  8
0
 10
-145.617
 20
24.9809
 11
-142.757
 21
20.4745
  0
LINE
  8
0
 10
-142.757
 20
20.4745
 11
-140.484
 21
15.6453
  0
LINE
  8
0
 10
-140.484
 20
15.6453
 11
-138.835
 21
10.5693
  0
LINE
  8
0
 10
-138.835
 20
10.5693
 11
-137.835
 21
5.32666
  0
LINE
  8
0
 10
-137.835
 20
5.32666
 11
-137.5
 21
0
  0
LINE
  8
0
 10
-137.5
 20
0
 11
-137.835
 21
-5.32666
  0
LINE
  8
0
 10
-137.835
 20
-5.32666
 11
-138.835
 21
-10.5693
  0
LINE
  8
0
 10
-138.835
 20
-10.5693
 11
-140.484
 21
-15.6453
  0
LINE
  8
0
 10
-140.484
 20
-15.6453
 11
-142.757
 21
-20.4745
  0
LINE
  8
0
 10
-142.757
 20
-20.4745
 11
-145.617
 21
-24.9809
  0
LINE
  8
0
 10
-145.617
 20
-24.9809
 11
-149.019
 21
-29.0932
  0
LINE
  8
0
 10
-149.019
 20
-29.0932
 11
-152.909
 21
-32.7468
  0
LINE
  8
0
 10
-152.909
 20
-32.7468
 11
-157.227
 21
-35.8839
  0
LINE
  8
0
 10
-157.227
 20
-35.8839
 11
-161.904
 21
-38.4551
  0
LINE
  8
0
 10
-161.904
 20
-38.4551
 11
-166.867
 21
-40.4199
  0
LINE
  8
0
 10
-166.867
 20
-40.4199
 11
-172.036
 21
-41.7472
  0
LINE
  8
0
 10
-172.036
 20
-41.7472
 11
-177.331
 21
-42.4161
  0
LINE
  8
0
 10
-177.331
 20
-42.4161
 11
-182.669
 21
-42.4161
  0
LINE
  8
0
 10
-225.188
 20
-47.9941
 11
-225.562
 21
-47.9469
  0
LINE
  8
0
 10
-225.562
 20
-47.9469
 11
-225.927
 21
-47.8532
  0
LINE
  8
0
 10
-225.927
 20
-47.8532
 11
-226.277
 21
-47.7145
  0
LINE
  8
0
 10
-226.277
 20
-47.7145
 11
-226.607
 21
-47.533
  0
LINE
  8
0
 10
-226.607
 20
-47.533
 11
-226.912
 21
-47.3115
  0
LINE
  8
0
 10
-226.912
 20
-47.3115
 11
-227.187
 21
-47.0536
  0
LINE
  8
0
 10
-227.187
 20
-47.0536
 11
-227.427
 21
-46.7634
  0
LINE
  8
0
 10
-227.427
 20
-46.7634
 11
-227.629
 21
-46.4453
  0
LINE
  8
0
 10
-227.629
 20
-46.4453
 11
-227.789
 21
-46.1044
  0
LINE
  8
0
 10
-227.789
 20
-46.1044
 11
-227.906
 21
-45.7461
  0
LINE
  8
0
 10
-227.906
 20
-45.7461
 11
-227.976
 21
-45.376
  0
LINE
  8
0
 10
-227.976
 20
-45.376
 11
-228
 21
-45
  0
LINE
  8
0
 10
-228
 20
-45
 11
-227.976
 21
-44.624
  0
LINE
  8
0
 10
-227.976
 20
-44.624
 11
-227.906
 21
-44.2539
  0
LINE
  8
0
 10
-227.906
 20
-44.2539
 11
-227.789
 21
-43.8956
  0
LINE
  8
0
 10
-227.789
 20
-43.8956
 11
-227.629
 21
-43.5547
  0
LINE
  8
0
 10
-227.629
 20
-43.5547
 11
-227.427
 21
-43.2366
  0
LINE
  8
0
 10
-227.427
 20
-43.2366
 11
-227.187
 21
-42.9464
  0
LINE
  8
0
 10
-227.187
 20
-42.9464
 11
-226.912
 21
-42.6885
  0
LINE
  8
0
 10
-226.912
 20
-42.6885
 11
-226.607
 21
-42.467
  0
LINE
  8
0
 10
-226.607
 20
-42.467
 11
-226.277
 21
-42.2855
  0
LINE
  8
0
 10
-226.277
 20
-42.2855
 11
-225.927
 21
-42.1468
  0
LINE
  8
0
 10
-225.927
 20
-42.1468
 11
-225.562
 21
-42.0531
  0
LINE
  8
0
 10
-225.562
 20
-42.0531
 11
-225.188
 21
-42.0059
  0
LINE
  8
0
 10
-225.188
 20
-42.0059
 11
-224.812
 21
-42.0059
  0
LINE
  8
0
 10
-224.812
 20
-42.0059
 11
-224.438
 21
-42.0531
  0
LINE
  8
0
 10
-224.438
 20
-42.0531
 11
-224.073
 21
-42.1468
  0
LINE
  8
0
 10
-224.073
 20
-42.1468
 11
-223.723
 21
-42.2855
  0
LINE
  8
0
 10
-223.723
 20
-42.2855
 11
-223.393
 21
-42.467
  0
LINE
  8
0
 10
-223.393
 20
-42.467
 11
-223.088
 21
-42.6885
  0
LINE
  8
0
 10
-223.088
 20
-42.6885
 11
-222.813
 21
-42.9464
  0
LINE
  8
0
 10
-222.813
 20
-42.9464
 11
-222.573
 21
-43.2366
  0
LINE
  8
0
 10
-222.573
 20
-43.2366
 11
-222.371
 21
-43.5547
  0
LINE
  8
0
 10
-222.371
 20
-43.5547
 11
-222.211
 21
-43.8956
  0
LINE
  8
0
 10
-222.211
 20
-43.8956
 11
-222.094
 21
-44.2539
  0
LINE
  8
0
 10
-222.094
 20
-44.2539
 11
-222.024
 21
-44.624
  0
LINE
  8
0
 10
-222.024
 20
-44.624
 11
-222
 21
-45
  0
LINE
  8
0
 10
-222
 20
-45
 11
-222.024
 21
-45.376
  0
LINE
  8
0
 10
-222.024
 20
-45.376
 11
-222.094
 21
-45.7461
  0
LINE
  8
0
 10
-222.094
 20
-45.7461
 11
-222.211
 21
-46.1044
  0
LINE
  8
0
 10
-222.211
 20
-46.1044
 11
-222.371
 21
-46.4453
  0
LINE
  8
0
 10
-222.371
 20
-46.4453
 11
-222.573
 21
-46.7634
  0
LINE
  8
0
 10
-222.573
 20
-46.7634
 11
-222.813
 21
-47.0536
  0
LINE
  8
0
 10
-222.813
 20
-47.0536
 11
-223.088
 21
-47.3115
  0
LINE
  8
0
 10
-223.088
 20
-47.3115
 11
-223.393
 21
-47.533
  0
LINE
  8
0
 10
-223.393
 20
-47.533
 11
-223.723
 21
-47.7145
  0
LINE
  8
0
 10
-223.723
 20
-47.7145
 11
-224.073
 21
-47.8532
  0
LINE
  8
0
 10
-224.073
 20
-47.8532
 11
-224.438
 21
-47.9469
  0
LINE
  8
0
 10
-224.438
 20
-47.9469
 11
-224.812
 21
-47.9941
  0
LINE
  8
0
 10
-224.812
 20
-47.9941
 11
-225.188
 21
-47.9941
  0
LINE
  8
0
 10
224.812
 20
-47.9941
 11
224.438
 21
-47.9469
  0
LINE
  8
0
 10
224.438
 20
-47.9469
 11
224.073
 21
-47.8532
  0
LINE
  8
0
 10
224.073
 20
-47.8532
 11
223.723
 21
-47.7145
  0
LINE
  8
0
 10
223.723
 20
-47.7145
 11
223.393
 21
-47.533
  0
LINE
  8
0
 10
223.393
 20
-47.533
 11
223.088
 21
-47.3115
  0
LINE
  8
0
 10
223.088
 20
-47.3115
 11
222.813
 21
-47.0536
  0
LINE
  8
0
 10
222.813
 20
-47.0536
 11
222.573
 21
-46.7634
  0
LINE
  8
0
 10
222.573
 20
-46.7634
 11
222.371
 21
-46.4453
  0
LINE
  8
0
 10
222.371
 20
-46.4453
 11
222.211
 21
-46.1044
  0
LINE
  8
0
 10
222.211
 20
-46.1044
 11
222.094
 21
-45.7461
  0
LINE
  8
0
 10
222.094
 20
-45.7461
 11
222.024
 21
-45.376
  0
LINE
  8
0
 10
222.024
 20
-45.376
 11
222
 21
-45
  0
LINE
  8
0
 10
222
 20
-45
 11
222.024
 21
-44.624
  0
LINE
  8
0
 10
222.024
 20
-44.624
 11
222.094
 21
-44.2539
  0
LINE
  8
0
 10
222.094
 20
-44.2539
 11
222.211
 21
-43.8956
  0
LINE
  8
0
 10
222.211
 20
-43.8956
 11
222.371
 21
-43.5547
  0
LINE
  8
0
 10
222.371
 20
-43.5547
 11
222.573
 21
-43.2366
  0
LINE
  8
0
 10
222.573
 20
-43.2366
 11
222.813
 21
-42.9464
  0
LINE
  8
0
 10
222.813
 20
-42.9464
 11
223.088
 21
-42.6885
  0
LINE
  8
0
 10
223.088
 20
-42.6885
 11
223.393
 21
-42.467
  0
LINE
  8
0
 10
223.393
 20
-42.467
 11
223.723
 21
-42.2855
  0
LINE
  8
0
 10
223.723
 20
-42.2855
 11
224.073
 21
-42.1468
  0
LINE
  8
0
 10
224.073
 20
-42.1468
 11
224.438
 21
-42.0531
  0
LINE
  8
0
 10
224.438
 20
-42.0531
 11
224.812
 21
-42.0059
  0
LINE
  8
0
 10
224.812
 20
-42.0059
 11
225.188
 21
-42.0059
  0
LINE
  8
0
 10
225.188
 20
-42.0059
 11
225.562
 21
-42.0531
  0
LINE
  8
0
 10
225.562
 20
-42.0531
 11
225.927
 21
-42.1468
  0
LINE
  8
0
 10
225.927
 20
-42.1468
 11
226.277
 21
-42.2855
  0
LINE
  8
0
 10
226.277
 20
-42.2855
 11
226.607
 21
-42.467
  0
LINE
  8
0
 10
226.607
 20
-42.467
 11
226.912
 21
-42.6885
  0
LINE
  8
0
 10
226.912
 20
-42.6885
 11
227.187
 21
-42.9464
  0
LINE
  8
0
 10
227.187
 20
-42.9464
 11
227.427
 21
-43.2366
  0
LINE
  8
0
 10
227.427
 20
-43.2366
 11
227.629
 21
-43.5547
  0
LINE
  8
0
 10
227.629
 20
-43.5547
 11
227.789
 21
-43.8956
  0
LINE
  8
0
 10
227.789
 20
-43.8956
 11
227.906
 21
-44.2539
  0
LINE
  8
0
 10
227.906
 20
-44.2539
 11
227.976
 21
-44.624
  0
LINE
  8
0
 10
227.976
 20
-44.624
 11
228
 21
-45
  0
LINE
  8
0
 10
228
 20
-45
 11
227.976
 21
-45.376
  0
LINE
  8
0
 10
227.976
 20
-45.376
 11
227.906
 21
-45.7461
  0
LINE
  8
0
 10
227.906
 20
-45.7461
 11
227.789
 21
-46.1044
  0
LINE
  8
0
 10
227.789
 20
-46.1044
 11
227.629
 21
-46.4453
  0
LINE
  8
0
 10
227.629
 20
-46.4453
 11
227.427
 21
-46.7634
  0
LINE
  8
0
 10
227.427
 20
-46.7634
 11
227.187
 21
-47.0536
  0
LINE
  8
0
 10
227.187
 20
-47.0536
 11
226.912
 21
-47.3115
  0
LINE
  8
0
 10
226.912
 20
-47.3115
 11
226.607
 21
-47.533
  0
LINE
  8
0
 10
226.607
 20
-47.533
 11
226.277
 21
-47.7145
  0
LINE
  8
0
 10
226.277
 20
-47.7145
 11
225.927
 21
-47.8532
  0
LINE
  8
0
 10
225.927
 20
-47.8532
 11
225.562
 21
-47.9469
  0
LINE
  8
0
 10
225.562
 20
-47.9469
 11
225.188
 21
-47.9941
  0
LINE
  8
0
 10
225.188
 20
-47.9941
 11
224.812
 21
-47.9941
  0
ENDSEC
  0
SECTION
  2
OBJECTS
  0
DICTIONARY
  0
ENDSEC
  0
EOF
