<?xml version="1.0" standalone="no"?>
<!DOCTYPE svg PUBLIC "-//W3C//DTD SVG 1.1//EN" "http://www.w3.org/Graphics/SVG/1.1/DTD/svg11.dtd">
<svg width="90mm" height="30mm" viewBox="-45 -54 90 30" xmlns="http://www.w3.org/2000/svg" version="1.1">
<title>OpenSCAD Model</title>
<path d="
M 40.4369,-24.5886 L 41.0451,-24.7447 L 41.6289,-24.9759 L 42.1791,-25.2784 L 42.6871,-25.6474 L 43.1448,-26.0773
 L 43.5451,-26.5611 L 43.8815,-27.0912 L 44.1489,-27.6594 L 44.3429,-28.2566 L 44.4606,-28.8733 L 44.5,-29.5
 L 44.5,-48.5 L 44.4606,-49.1267 L 44.3429,-49.7434 L 44.1489,-50.3406 L 43.8815,-50.9088 L 43.5451,-51.4389
 L 43.1448,-51.9227 L 42.6871,-52.3526 L 42.1791,-52.7216 L 41.6289,-53.0241 L 41.0451,-53.2553 L 40.4369,-53.4114
 L 39.8139,-53.4901 L -39.8139,-53.4901 L -40.4369,-53.4114 L -41.0451,-53.2553 L -41.6289,-53.0241 L -42.1791,-52.7216
 L -42.6871,-52.3526 L -43.1448,-51.9227 L -43.5451,-51.4389 L -43.8815,-50.9088 L -44.1489,-50.3406 L -44.3429,-49.7434
 L -44.4606,-49.1267 L -44.5,-48.5 L -44.5,-29.5 L -44.4606,-28.8733 L -44.3429,-28.2566 L -44.1489,-27.6594
 L -43.8815,-27.0912 L -43.5451,-26.5611 L -43.1448,-26.0773 L -42.6871,-25.6474 L -42.1791,-25.2784 L -41.6289,-24.9759
 L -41.0451,-24.7447 L -40.4369,-24.5886 L -39.8139,-24.5099 L 39.8139,-24.5099 z
M 37.3116,-43.5059 L 36.9379,-43.5531 L 36.5729,-43.6468 L 36.2227,-43.7855 L 35.8925,-43.967 L 35.5877,-44.1884
 L 35.3131,-44.4464 L 35.0729,-44.7366 L 34.8711,-45.0547 L 34.7107,-45.3956 L 34.5942,-45.7539 L 34.5237,-46.124
 L 34.5,-46.5 L 34.5237,-46.876 L 34.5942,-47.2461 L 34.7107,-47.6044 L 34.8711,-47.9453 L 35.0729,-48.2634
 L 35.3131,-48.5536 L 35.5877,-48.8115 L 35.8925,-49.033 L 36.2227,-49.2145 L 36.5729,-49.3532 L 36.9379,-49.4469
 L 37.3116,-49.4941 L 37.6884,-49.4941 L 38.0621,-49.4469 L 38.427,-49.3532 L 38.7773,-49.2145 L 39.1075,-49.033
 L 39.4123,-48.8115 L 39.6869,-48.5536 L 39.927,-48.2634 L 40.1289,-47.9453 L 40.2893,-47.6044 L 40.4057,-47.2461
 L 40.4763,-46.876 L 40.5,-46.5 L 40.4763,-46.124 L 40.4057,-45.7539 L 40.2893,-45.3956 L 40.1289,-45.0547
 L 39.927,-44.7366 L 39.6869,-44.4464 L 39.4123,-44.1884 L 39.1075,-43.967 L 38.7773,-43.7855 L 38.427,-43.6468
 L 38.0621,-43.5531 L 37.6884,-43.5059 z
M -37.6884,-43.5059 L -38.0621,-43.5531 L -38.427,-43.6468 L -38.7773,-43.7855 L -39.1075,-43.967 L -39.4123,-44.1884
 L -39.6869,-44.4464 L -39.927,-44.7366 L -40.1289,-45.0547 L -40.2893,-45.3956 L -40.4057,-45.7539 L -40.4763,-46.124
 L -40.5,-46.5 L -40.4763,-46.876 L -40.4057,-47.2461 L -40.2893,-47.6044 L -40.1289,-47.9453 L -39.927,-48.2634
 L -39.6869,-48.5536 L -39.4123,-48.8115 L -39.1075,-49.033 L -38.7773,-49.2145 L -38.427,-49.3532 L -38.0621,-49.4469
 L -37.6884,-49.4941 L -37.3116,-49.4941 L -36.9379,-49.4469 L -36.5729,-49.3532 L -36.2227,-49.2145 L -35.8925,-49.033
 L -35.5877,-48.8115 L -35.3131,-48.5536 L -35.0729,-48.2634 L -34.8711,-47.9453 L -34.7107,-47.6044 L -34.5942,-47.2461
 L -34.5237,-46.876 L -34.5,-46.5 L -34.5237,-46.124 L -34.5942,-45.7539 L -34.7107,-45.3956 L -34.8711,-45.0547
 L -35.0729,-44.7366 L -35.3131,-44.4464 L -35.5877,-44.1884 L -35.8925,-43.967 L -36.2227,-43.7855 L -36.5729,-43.6468
 L -36.9379,-43.5531 L -37.3116,-43.5059 z
M 7.65465,-33.5109 L 6.96939,-33.5974 L 6.3004,-33.7692 L 5.6582,-34.0235 L 5.05295,-34.3562 L 4.49416,-34.7622
 L 3.99066,-35.235 L 3.5504,-35.7672 L 3.18031,-36.3504 L 2.88622,-36.9753 L 2.67279,-37.6322 L 2.54337,-38.3107
 L 2.5,-39 L 2.54337,-39.6893 L 2.67279,-40.3678 L 2.88622,-41.0247 L 3.18031,-41.6496 L 3.5504,-42.2328
 L 3.99066,-42.765 L 4.49416,-43.2378 L 5.05295,-43.6438 L 5.6582,-43.9765 L 6.3004,-44.2308 L 6.96939,-44.4026
 L 7.65465,-44.4891 L 8.34534,-44.4891 L 9.03059,-44.4026 L 9.69958,-44.2308 L 10.3418,-43.9765 L 10.947,-43.6438
 L 11.5058,-43.2378 L 12.0093,-42.765 L 12.4496,-42.2328 L 12.8197,-41.6496 L 13.1138,-41.0247 L 13.3272,-40.3678
 L 13.4566,-39.6893 L 13.5,-39 L 13.4566,-38.3107 L 13.3272,-37.6322 L 13.1138,-36.9753 L 12.8197,-36.3504
 L 12.4496,-35.7672 L 12.0093,-35.235 L 11.5058,-34.7622 L 10.947,-34.3562 L 10.3418,-34.0235 L 9.69958,-33.7692
 L 9.03059,-33.5974 L 8.34534,-33.5109 z
M -24.3453,-33.5109 L -25.0306,-33.5974 L -25.6996,-33.7692 L -26.3418,-34.0235 L -26.947,-34.3562 L -27.5058,-34.7622
 L -28.0093,-35.235 L -28.4496,-35.7672 L -28.8197,-36.3504 L -29.1138,-36.9753 L -29.3272,-37.6322 L -29.4566,-38.3107
 L -29.5,-39 L -29.4566,-39.6893 L -29.3272,-40.3678 L -29.1138,-41.0247 L -28.8197,-41.6496 L -28.4496,-42.2328
 L -28.0093,-42.765 L -27.5058,-43.2378 L -26.947,-43.6438 L -26.3418,-43.9765 L -25.6996,-44.2308 L -25.0306,-44.4026
 L -24.3453,-44.4891 L -23.6546,-44.4891 L -22.9694,-44.4026 L -22.3004,-44.2308 L -21.6582,-43.9765 L -21.0529,-43.6438
 L -20.4942,-43.2378 L -19.9907,-42.765 L -19.5504,-42.2328 L -19.1803,-41.6496 L -18.8862,-41.0247 L -18.6728,-40.3678
 L -18.5434,-39.6893 L -18.5,-39 L -18.5434,-38.3107 L -18.6728,-37.6322 L -18.8862,-36.9753 L -19.1803,-36.3504
 L -19.5504,-35.7672 L -19.9907,-35.235 L -20.4942,-34.7622 L -21.0529,-34.3562 L -21.6582,-34.0235 L -22.3004,-33.7692
 L -22.9694,-33.5974 L -23.6546,-33.5109 z
M -8.34534,-33.5109 L -9.03059,-33.5974 L -9.69958,-33.7692 L -10.3418,-34.0235 L -10.947,-34.3562 L -11.5058,-34.7622
 L -12.0093,-35.235 L -12.4496,-35.7672 L -12.8197,-36.3504 L -13.1138,-36.9753 L -13.3272,-37.6322 L -13.4566,-38.3107
 L -13.5,-39 L -13.4566,-39.6893 L -13.3272,-40.3678 L -13.1138,-41.0247 L -12.8197,-41.6496 L -12.4496,-42.2328
 L -12.0093,-42.765 L -11.5058,-43.2378 L -10.947,-43.6438 L -10.3418,-43.9765 L -9.69958,-44.2308 L -9.03059,-44.4026
 L -8.34534,-44.4891 L -7.65465,-44.4891 L -6.96939,-44.4026 L -6.3004,-44.2308 L -5.6582,-43.9765 L -5.05295,-43.6438
 L -4.49416,-43.2378 L -3.99066,-42.765 L -3.5504,-42.2328 L -3.18031,-41.6496 L -2.88622,-41.0247 L -2.67279,-40.3678
 L -2.54337,-39.6893 L -2.5,-39 L -2.54337,-38.3107 L -2.67279,-37.6322 L -2.88622,-36.9753 L -3.18031,-36.3504
 L -3.5504,-35.7672 L -3.99066,-35.235 L -4.49416,-34.7622 L -5.05295,-34.3562 L -5.6582,-34.0235 L -6.3004,-33.7692
 L -6.96939,-33.5974 L -7.65465,-33.5109 z
M 23.6546,-33.5109 L 22.9694,-33.5974 L 22.3004,-33.7692 L 21.6582,-34.0235 L 21.0529,-34.3562 L 20.4942,-34.7622
 L 19.9907,-35.235 L 19.5504,-35.7672 L 19.1803,-36.3504 L 18.8862,-36.9753 L 18.6728,-37.6322 L 18.5434,-38.3107
 L 18.5,-39 L 18.5434,-39.6893 L 18.6728,-40.3678 L 18.8862,-41.0247 L 19.1803,-41.6496 L 19.5504,-42.2328
 L 19.9907,-42.765 L 20.4942,-43.2378 L 21.0529,-43.6438 L 21.6582,-43.9765 L 22.3004,-44.2308 L 22.9694,-44.4026
 L 23.6546,-44.4891 L 24.3453,-44.4891 L 25.0306,-44.4026 L 25.6996,-44.2308 L 26.3418,-43.9765 L 26.947,-43.6438
 L 27.5058,-43.2378 L 28.0093,-42.765 L 28.4496,-42.2328 L 28.8197,-41.6496 L 29.1138,-41.0247 L 29.3272,-40.3678
 L 29.4566,-39.6893 L 29.5,-39 L 29.4566,-38.3107 L 29.3272,-37.6322 L 29.1138,-36.9753 L 28.8197,-36.3504
 L 28.4496,-35.7672 L 28.0093,-35.235 L 27.5058,-34.7622 L 26.947,-34.3562 L 26.3418,-34.0235 L 25.6996,-33.7692
 L 25.0306,-33.5974 L 24.3453,-33.5109 z
M 37.4058,-37.503 L 37.2189,-37.5266 L 37.0365,-37.5734 L 36.8613,-37.6428 L 36.6963,-37.7335 L 36.5439,-37.8442
 L 36.4065,-37.9732 L 36.2865,-38.1183 L 36.1855,-38.2774 L 36.1053,-38.4478 L 36.0471,-38.627 L 36.0118,-38.812
 L 36,-39 L 36.0118,-39.188 L 36.0471,-39.373 L 36.1053,-39.5522 L 36.1855,-39.7226 L 36.2865,-39.8817
 L 36.4065,-40.0268 L 36.5439,-40.1558 L 36.6963,-40.2665 L 36.8613,-40.3572 L 37.0365,-40.4266 L 37.2189,-40.4734
 L 37.4058,-40.497 L 37.5942,-40.497 L 37.7811,-40.4734 L 37.9635,-40.4266 L 38.1387,-40.3572 L 38.3037,-40.2665
 L 38.4561,-40.1558 L 38.5934,-40.0268 L 38.7135,-39.8817 L 38.8145,-39.7226 L 38.8947,-39.5522 L 38.9529,-39.373
 L 38.9882,-39.188 L 39,-39 L 38.9882,-38.812 L 38.9529,-38.627 L 38.8947,-38.4478 L 38.8145,-38.2774
 L 38.7135,-38.1183 L 38.5934,-37.9732 L 38.4561,-37.8442 L 38.3037,-37.7335 L 38.1387,-37.6428 L 37.9635,-37.5734
 L 37.7811,-37.5266 L 37.5942,-37.503 z
M -37.5942,-37.503 L -37.7811,-37.5266 L -37.9635,-37.5734 L -38.1387,-37.6428 L -38.3037,-37.7335 L -38.4561,-37.8442
 L -38.5934,-37.9732 L -38.7135,-38.1183 L -38.8145,-38.2774 L -38.8947,-38.4478 L -38.9529,-38.627 L -38.9882,-38.812
 L -39,-39 L -38.9882,-39.188 L -38.9529,-39.373 L -38.8947,-39.5522 L -38.8145,-39.7226 L -38.7135,-39.8817
 L -38.5934,-40.0268 L -38.4561,-40.1558 L -38.3037,-40.2665 L -38.1387,-40.3572 L -37.9635,-40.4266 L -37.7811,-40.4734
 L -37.5942,-40.497 L -37.4058,-40.497 L -37.2189,-40.4734 L -37.0365,-40.4266 L -36.8613,-40.3572 L -36.6963,-40.2665
 L -36.5439,-40.1558 L -36.4065,-40.0268 L -36.2865,-39.8817 L -36.1855,-39.7226 L -36.1053,-39.5522 L -36.0471,-39.373
 L -36.0118,-39.188 L -36,-39 L -36.0118,-38.812 L -36.0471,-38.627 L -36.1053,-38.4478 L -36.1855,-38.2774
 L -36.2865,-38.1183 L -36.4065,-37.9732 L -36.5439,-37.8442 L -36.6963,-37.7335 L -36.8613,-37.6428 L -37.0365,-37.5734
 L -37.2189,-37.5266 L -37.4058,-37.503 z
M 37.3116,-28.5059 L 36.9379,-28.5531 L 36.5729,-28.6468 L 36.2227,-28.7855 L 35.8925,-28.967 L 35.5877,-29.1885
 L 35.3131,-29.4464 L 35.0729,-29.7366 L 34.8711,-30.0547 L 34.7107,-30.3956 L 34.5942,-30.7539 L 34.5237,-31.124
 L 34.5,-31.5 L 34.5237,-31.876 L 34.5942,-32.2461 L 34.7107,-32.6044 L 34.8711,-32.9453 L 35.0729,-33.2634
 L 35.3131,-33.5536 L 35.5877,-33.8116 L 35.8925,-34.033 L 36.2227,-34.2145 L 36.5729,-34.3532 L 36.9379,-34.4469
 L 37.3116,-34.4941 L 37.6884,-34.4941 L 38.0621,-34.4469 L 38.427,-34.3532 L 38.7773,-34.2145 L 39.1075,-34.033
 L 39.4123,-33.8116 L 39.6869,-33.5536 L 39.927,-33.2634 L 40.1289,-32.9453 L 40.2893,-32.6044 L 40.4057,-32.2461
 L 40.4763,-31.876 L 40.5,-31.5 L 40.4763,-31.124 L 40.4057,-30.7539 L 40.2893,-30.3956 L 40.1289,-30.0547
 L 39.927,-29.7366 L 39.6869,-29.4464 L 39.4123,-29.1885 L 39.1075,-28.967 L 38.7773,-28.7855 L 38.427,-28.6468
 L 38.0621,-28.5531 L 37.6884,-28.5059 z
M -37.6884,-28.5059 L -38.0621,-28.5531 L -38.427,-28.6468 L -38.7773,-28.7855 L -39.1075,-28.967 L -39.4123,-29.1885
 L -39.6869,-29.4464 L -39.927,-29.7366 L -40.1289,-30.0547 L -40.2893,-30.3956 L -40.4057,-30.7539 L -40.4763,-31.124
 L -40.5,-31.5 L -40.4763,-31.876 L -40.4057,-32.2461 L -40.2893,-32.6044 L -40.1289,-32.9453 L -39.927,-33.2634
 L -39.6869,-33.5536 L -39.4123,-33.8116 L -39.1075,-34.033 L -38.7773,-34.2145 L -38.427,-34.3532 L -38.0621,-34.4469
 L -37.6884,-34.4941 L -37.3116,-34.4941 L -36.9379,-34.4469 L -36.5729,-34.3532 L -36.2227,-34.2145 L -35.8925,-34.033
 L -35.5877,-33.8116 L -35.3131,-33.5536 L -35.0729,-33.2634 L -34.8711,-32.9453 L -34.7107,-32.6044 L -34.5942,-32.2461
 L -34.5237,-31.876 L -34.5,-31.5 L -34.5237,-31.124 L -34.5942,-30.7539 L -34.7107,-30.3956 L -34.8711,-30.0547
 L -35.0729,-29.7366 L -35.3131,-29.4464 L -35.5877,-29.1885 L -35.8925,-28.967 L -36.2227,-28.7855 L -36.5729,-28.6468
 L -36.9379,-28.5531 L -37.3116,-28.5059 z
" stroke="black" fill="lightgray" stroke-width="0.5"/>
</svg>
