<?xml version="1.0" standalone="no"?>
<!DOCTYPE svg PUBLIC "-//W3C//DTD SVG 1.1//EN" "http://www.w3.org/Graphics/SVG/1.1/DTD/svg11.dtd">
<svg width="164mm" height="44mm" viewBox="-82 -22 164 44" xmlns="http://www.w3.org/2000/svg" version="1.1">
<title>OpenSCAD Model</title>
<path d="
M 77.9369,21.9114 L 78.5451,21.7553 L 79.1289,21.5241 L 79.6791,21.2216 L 80.1871,20.8526 L 80.6448,20.4227
 L 81.0451,19.9389 L 81.3815,19.4088 L 81.6489,18.8406 L 81.8429,18.2434 L 81.9606,17.6267 L 82,17
 L 82,-17 L 81.9606,-17.6267 L 81.8429,-18.2434 L 81.6489,-18.8406 L 81.3815,-19.4088 L 81.0451,-19.9389
 L 80.6448,-20.4227 L 80.1871,-20.8526 L 79.6791,-21.2216 L 79.1289,-21.5241 L 78.5451,-21.7553 L 77.9369,-21.9114
 L 77.3139,-21.9901 L -77.3139,-21.9901 L -77.9369,-21.9114 L -78.5451,-21.7553 L -79.1289,-21.5241 L -79.6791,-21.2216
 L -80.1871,-20.8526 L -80.6448,-20.4227 L -81.0451,-19.9389 L -81.3815,-19.4088 L -81.6489,-18.8406 L -81.8429,-18.2434
 L -81.9606,-17.6267 L -82,-17 L -82,17 L -81.9606,17.6267 L -81.8429,18.2434 L -81.6489,18.8406
 L -81.3815,19.4088 L -81.0451,19.9389 L -80.6448,20.4227 L -80.1871,20.8526 L -79.6791,21.2216 L -79.1289,21.5241
 L -78.5451,21.7553 L -77.9369,21.9114 L -77.3139,21.9901 L 77.3139,21.9901 z
M -75.1884,-12.0059 L -75.5621,-12.0531 L -75.927,-12.1468 L -76.2773,-12.2855 L -76.6075,-12.467 L -76.9123,-12.6884
 L -77.1869,-12.9464 L -77.427,-13.2366 L -77.6289,-13.5547 L -77.7893,-13.8956 L -77.9057,-14.2539 L -77.9763,-14.624
 L -78,-15 L -77.9763,-15.376 L -77.9057,-15.7461 L -77.7893,-16.1044 L -77.6289,-16.4453 L -77.427,-16.7634
 L -77.1869,-17.0536 L -76.9123,-17.3115 L -76.6075,-17.533 L -76.2773,-17.7145 L -75.927,-17.8532 L -75.5621,-17.9469
 L -75.1884,-17.9941 L -74.8116,-17.9941 L -74.4379,-17.9469 L -74.073,-17.8532 L -73.7227,-17.7145 L -73.3925,-17.533
 L -73.0877,-17.3115 L -72.8131,-17.0536 L -72.573,-16.7634 L -72.3711,-16.4453 L -72.2107,-16.1044 L -72.0943,-15.7461
 L -72.0237,-15.376 L -72,-15 L -72.0237,-14.624 L -72.0943,-14.2539 L -72.2107,-13.8956 L -72.3711,-13.5547
 L -72.573,-13.2366 L -72.8131,-12.9464 L -73.0877,-12.6884 L -73.3925,-12.467 L -73.7227,-12.2855 L -74.073,-12.1468
 L -74.4379,-12.0531 L -74.8116,-12.0059 z
M 74.8116,-12.0059 L 74.4379,-12.0531 L 74.073,-12.1468 L 73.7227,-12.2855 L 73.3925,-12.467 L 73.0877,-12.6884
 L 72.8131,-12.9464 L 72.573,-13.2366 L 72.3711,-13.5547 L 72.2107,-13.8956 L 72.0943,-14.2539 L 72.0237,-14.624
 L 72,-15 L 72.0237,-15.376 L 72.0943,-15.7461 L 72.2107,-16.1044 L 72.3711,-16.4453 L 72.573,-16.7634
 L 72.8131,-17.0536 L 73.0877,-17.3115 L 73.3925,-17.533 L 73.7227,-17.7145 L 74.073,-17.8532 L 74.4379,-17.9469
 L 74.8116,-17.9941 L 75.1884,-17.9941 L 75.5621,-17.9469 L 75.927,-17.8532 L 76.2773,-17.7145 L 76.6075,-17.533
 L 76.9123,-17.3115 L 77.1869,-17.0536 L 77.427,-16.7634 L 77.6289,-16.4453 L 77.7893,-16.1044 L 77.9057,-15.7461
 L 77.9763,-15.376 L 78,-15 L 77.9763,-14.624 L 77.9057,-14.2539 L 77.7893,-13.8956 L 77.6289,-13.5547
 L 77.427,-13.2366 L 77.1869,-12.9464 L 76.9123,-12.6884 L 76.6075,-12.467 L 76.2773,-12.2855 L 75.927,-12.1468
 L 75.5621,-12.0531 L 75.1884,-12.0059 z
M 28.2465,11.9763 L 26.7514,11.7874 L 25.2918,11.4127 L 23.8906,10.8579 L 22.5701,10.1319 L 21.3509,9.24615
 L 20.2524,8.21455 L 19.2918,7.05342 L 18.4843,5.78104 L 17.8427,4.41748 L 17.377,2.98427 L 17.0946,1.504
 L 17,-0 L 17.0946,-1.504 L 17.377,-2.98427 L 17.8427,-4.41748 L 18.4843,-5.78104 L 19.2918,-7.05342
 L 20.2524,-8.21455 L 21.3509,-9.24615 L 22.5701,-10.1319 L 23.8906,-10.8579 L 25.2918,-11.4127 L 26.7514,-11.7874
 L 28.2465,-11.9763 L 29.7535,-11.9763 L 31.2486,-11.7874 L 32.7082,-11.4127 L 34.1093,-10.8579 L 35.4299,-10.1319
 L 36.6491,-9.24615 L 37.7476,-8.21455 L 38.7082,-7.05342 L 39.5157,-5.78104 L 40.1573,-4.41748 L 40.623,-2.98427
 L 40.9054,-1.504 L 41,-0 L 40.9054,1.504 L 40.623,2.98427 L 40.1573,4.41748 L 39.5157,5.78104
 L 38.7082,7.05342 L 37.7476,8.21455 L 36.6491,9.24615 L 35.4299,10.1319 L 34.1093,10.8579 L 32.7082,11.4127
 L 31.2486,11.7874 L 29.7535,11.9763 z
M 57.2465,11.9763 L 55.7514,11.7874 L 54.2918,11.4127 L 52.8906,10.8579 L 51.5701,10.1319 L 50.3509,9.24615
 L 49.2524,8.21455 L 48.2918,7.05342 L 47.4843,5.78104 L 46.8427,4.41748 L 46.377,2.98427 L 46.0946,1.504
 L 46,-0 L 46.0946,-1.504 L 46.377,-2.98427 L 46.8427,-4.41748 L 47.4843,-5.78104 L 48.2918,-7.05342
 L 49.2524,-8.21455 L 50.3509,-9.24615 L 51.5701,-10.1319 L 52.8906,-10.8579 L 54.2918,-11.4127 L 55.7514,-11.7874
 L 57.2465,-11.9763 L 58.7535,-11.9763 L 60.2486,-11.7874 L 61.7082,-11.4127 L 63.1093,-10.8579 L 64.4299,-10.1319
 L 65.6491,-9.24615 L 66.7476,-8.21455 L 67.7082,-7.05342 L 68.5157,-5.78104 L 69.1573,-4.41748 L 69.623,-2.98427
 L 69.9054,-1.504 L 70,-0 L 69.9054,1.504 L 69.623,2.98427 L 69.1573,4.41748 L 68.5157,5.78104
 L 67.7082,7.05342 L 66.7476,8.21455 L 65.6491,9.24615 L 64.4299,10.1319 L 63.1093,10.8579 L 61.7082,11.4127
 L 60.2486,11.7874 L 58.7535,11.9763 z
M -0.753479,11.9763 L -2.24857,11.7874 L -3.70819,11.4127 L -5.10934,10.8579 L -6.42992,10.1319 L -7.64908,9.24615
 L -8.74762,8.21455 L -9.70819,7.05342 L -10.5157,5.78104 L -11.1573,4.41748 L -11.623,2.98427 L -11.9054,1.504
 L -12,-0 L -11.9054,-1.504 L -11.623,-2.98427 L -11.1573,-4.41748 L -10.5157,-5.78104 L -9.70819,-7.05342
 L -8.74762,-8.21455 L -7.64908,-9.24615 L -6.42992,-10.1319 L -5.10934,-10.8579 L -3.70819,-11.4127 L -2.24857,-11.7874
 L -0.753479,-11.9763 L 0.753479,-11.9763 L 2.24857,-11.7874 L 3.70819,-11.4127 L 5.10934,-10.8579 L 6.42992,-10.1319
 L 7.64908,-9.24615 L 8.74762,-8.21455 L 9.70819,-7.05342 L 10.5157,-5.78104 L 11.1573,-4.41748 L 11.623,-2.98427
 L 11.9054,-1.504 L 12,-0 L 11.9054,1.504 L 11.623,2.98427 L 11.1573,4.41748 L 10.5157,5.78104
 L 9.70819,7.05342 L 8.74762,8.21455 L 7.64908,9.24615 L 6.42992,10.1319 L 5.10934,10.8579 L 3.70819,11.4127
 L 2.24857,11.7874 L 0.753479,11.9763 z
M -29.7535,11.9763 L -31.2486,11.7874 L -32.7082,11.4127 L -34.1093,10.8579 L -35.4299,10.1319 L -36.6491,9.24615
 L -37.7476,8.21455 L -38.7082,7.05342 L -39.5157,5.78104 L -40.1573,4.41748 L -40.623,2.98427 L -40.9054,1.504
 L -41,-0 L -40.9054,-1.504 L -40.623,-2.98427 L -40.1573,-4.41748 L -39.5157,-5.78104 L -38.7082,-7.05342
 L -37.7476,-8.21455 L -36.6491,-9.24615 L -35.4299,-10.1319 L -34.1093,-10.8579 L -32.7082,-11.4127 L -31.2486,-11.7874
 L -29.7535,-11.9763 L -28.2465,-11.9763 L -26.7514,-11.7874 L -25.2918,-11.4127 L -23.8906,-10.8579 L -22.5701,-10.1319
 L -21.3509,-9.24615 L -20.2524,-8.21455 L -19.2918,-7.05342 L -18.4843,-5.78104 L -17.8427,-4.41748 L -17.377,-2.98427
 L -17.0946,-1.504 L -17,-0 L -17.0946,1.504 L -17.377,2.98427 L -17.8427,4.41748 L -18.4843,5.78104
 L -19.2918,7.05342 L -20.2524,8.21455 L -21.3509,9.24615 L -22.5701,10.1319 L -23.8906,10.8579 L -25.2918,11.4127
 L -26.7514,11.7874 L -28.2465,11.9763 z
M -58.7535,11.9763 L -60.2486,11.7874 L -61.7082,11.4127 L -63.1093,10.8579 L -64.4299,10.1319 L -65.6491,9.24615
 L -66.7476,8.21455 L -67.7082,7.05342 L -68.5157,5.78104 L -69.1573,4.41748 L -69.623,2.98427 L -69.9054,1.504
 L -70,-0 L -69.9054,-1.504 L -69.623,-2.98427 L -69.1573,-4.41748 L -68.5157,-5.78104 L -67.7082,-7.05342
 L -66.7476,-8.21455 L -65.6491,-9.24615 L -64.4299,-10.1319 L -63.1093,-10.8579 L -61.7082,-11.4127 L -60.2486,-11.7874
 L -58.7535,-11.9763 L -57.2465,-11.9763 L -55.7514,-11.7874 L -54.2918,-11.4127 L -52.8906,-10.8579 L -51.5701,-10.1319
 L -50.3509,-9.24615 L -49.2524,-8.21455 L -48.2918,-7.05342 L -47.4843,-5.78104 L -46.8427,-4.41748 L -46.377,-2.98427
 L -46.0946,-1.504 L -46,-0 L -46.0946,1.504 L -46.377,2.98427 L -46.8427,4.41748 L -47.4843,5.78104
 L -48.2918,7.05342 L -49.2524,8.21455 L -50.3509,9.24615 L -51.5701,10.1319 L -52.8906,10.8579 L -54.2918,11.4127
 L -55.7514,11.7874 L -57.2465,11.9763 z
M -75.0942,-6.00294 L -75.2811,-6.02657 L -75.4635,-6.07341 L -75.6387,-6.14275 L -75.8037,-6.23351 L -75.9561,-6.34422
 L -76.0934,-6.47318 L -76.2135,-6.61832 L -76.3145,-6.77736 L -76.3947,-6.9478 L -76.4529,-7.12695 L -76.4882,-7.312
 L -76.5,-7.5 L -76.4882,-7.68799 L -76.4529,-7.87303 L -76.3947,-8.05219 L -76.3145,-8.22263 L -76.2135,-8.38167
 L -76.0934,-8.52681 L -75.9561,-8.65576 L -75.8037,-8.76648 L -75.6387,-8.85724 L -75.4635,-8.92657 L -75.2811,-8.97342
 L -75.0942,-8.99704 L -74.9058,-8.99704 L -74.7189,-8.97342 L -74.5365,-8.92657 L -74.3613,-8.85724 L -74.1963,-8.76648
 L -74.0439,-8.65576 L -73.9065,-8.52681 L -73.7865,-8.38167 L -73.6855,-8.22263 L -73.6053,-8.05219 L -73.5471,-7.87303
 L -73.5118,-7.68799 L -73.5,-7.5 L -73.5118,-7.312 L -73.5471,-7.12695 L -73.6053,-6.9478 L -73.6855,-6.77736
 L -73.7865,-6.61832 L -73.9065,-6.47318 L -74.0439,-6.34422 L -74.1963,-6.23351 L -74.3613,-6.14275 L -74.5365,-6.07341
 L -74.7189,-6.02657 L -74.9058,-6.00294 z
M 74.9058,-6.00294 L 74.7189,-6.02657 L 74.5365,-6.07341 L 74.3613,-6.14275 L 74.1963,-6.23351 L 74.0439,-6.34422
 L 73.9065,-6.47318 L 73.7865,-6.61832 L 73.6855,-6.77736 L 73.6053,-6.9478 L 73.5471,-7.12695 L 73.5118,-7.312
 L 73.5,-7.5 L 73.5118,-7.68799 L 73.5471,-7.87303 L 73.6053,-8.05219 L 73.6855,-8.22263 L 73.7865,-8.38167
 L 73.9065,-8.52681 L 74.0439,-8.65576 L 74.1963,-8.76648 L 74.3613,-8.85724 L 74.5365,-8.92657 L 74.7189,-8.97342
 L 74.9058,-8.99704 L 75.0942,-8.99704 L 75.2811,-8.97342 L 75.4635,-8.92657 L 75.6387,-8.85724 L 75.8037,-8.76648
 L 75.9561,-8.65576 L 76.0934,-8.52681 L 76.2135,-8.38167 L 76.3145,-8.22263 L 76.3947,-8.05219 L 76.4529,-7.87303
 L 76.4882,-7.68799 L 76.5,-7.5 L 76.4882,-7.312 L 76.4529,-7.12695 L 76.3947,-6.9478 L 76.3145,-6.77736
 L 76.2135,-6.61832 L 76.0934,-6.47318 L 75.9561,-6.34422 L 75.8037,-6.23351 L 75.6387,-6.14275 L 75.4635,-6.07341
 L 75.2811,-6.02657 L 75.0942,-6.00294 z
M 74.8116,2.99408 L 74.4379,2.94685 L 74.073,2.85316 L 73.7227,2.71448 L 73.3925,2.53297 L 73.0877,2.31154
 L 72.8131,2.05363 L 72.573,1.76335 L 72.3711,1.44525 L 72.2107,1.10437 L 72.0943,0.746063 L 72.0237,0.375992
 L 72,-0 L 72.0237,-0.375992 L 72.0943,-0.746063 L 72.2107,-1.10437 L 72.3711,-1.44525 L 72.573,-1.76335
 L 72.8131,-2.05363 L 73.0877,-2.31154 L 73.3925,-2.53297 L 73.7227,-2.71448 L 74.073,-2.85316 L 74.4379,-2.94685
 L 74.8116,-2.99408 L 75.1884,-2.99408 L 75.5621,-2.94685 L 75.927,-2.85316 L 76.2773,-2.71448 L 76.6075,-2.53297
 L 76.9123,-2.31154 L 77.1869,-2.05363 L 77.427,-1.76335 L 77.6289,-1.44525 L 77.7893,-1.10437 L 77.9057,-0.746063
 L 77.9763,-0.375992 L 78,-0 L 77.9763,0.375992 L 77.9057,0.746063 L 77.7893,1.10437 L 77.6289,1.44525
 L 77.427,1.76335 L 77.1869,2.05363 L 76.9123,2.31154 L 76.6075,2.53297 L 76.2773,2.71448 L 75.927,2.85316
 L 75.5621,2.94685 L 75.1884,2.99408 z
M -75.1884,2.99408 L -75.5621,2.94685 L -75.927,2.85316 L -76.2773,2.71448 L -76.6075,2.53297 L -76.9123,2.31154
 L -77.1869,2.05363 L -77.427,1.76335 L -77.6289,1.44525 L -77.7893,1.10437 L -77.9057,0.746063 L -77.9763,0.375992
 L -78,-0 L -77.9763,-0.375992 L -77.9057,-0.746063 L -77.7893,-1.10437 L -77.6289,-1.44525 L -77.427,-1.76335
 L -77.1869,-2.05363 L -76.9123,-2.31154 L -76.6075,-2.53297 L -76.2773,-2.71448 L -75.927,-2.85316 L -75.5621,-2.94685
 L -75.1884,-2.99408 L -74.8116,-2.99408 L -74.4379,-2.94685 L -74.073,-2.85316 L -73.7227,-2.71448 L -73.3925,-2.53297
 L -73.0877,-2.31154 L -72.8131,-2.05363 L -72.573,-1.76335 L -72.3711,-1.44525 L -72.2107,-1.10437 L -72.0943,-0.746063
 L -72.0237,-0.375992 L -72,-0 L -72.0237,0.375992 L -72.0943,0.746063 L -72.2107,1.10437 L -72.3711,1.44525
 L -72.573,1.76335 L -72.8131,2.05363 L -73.0877,2.31154 L -73.3925,2.53297 L -73.7227,2.71448 L -74.073,2.85316
 L -74.4379,2.94685 L -74.8116,2.99408 z
M 74.9058,8.99704 L 74.7189,8.97342 L 74.5365,8.92657 L 74.3613,8.85724 L 74.1963,8.76648 L 74.0439,8.65576
 L 73.9065,8.52681 L 73.7865,8.38167 L 73.6855,8.22263 L 73.6053,8.05219 L 73.5471,7.87303 L 73.5118,7.68799
 L 73.5,7.5 L 73.5118,7.312 L 73.5471,7.12695 L 73.6053,6.9478 L 73.6855,6.77736 L 73.7865,6.61832
 L 73.9065,6.47318 L 74.0439,6.34422 L 74.1963,6.23351 L 74.3613,6.14275 L 74.5365,6.07341 L 74.7189,6.02657
 L 74.9058,6.00294 L 75.0942,6.00294 L 75.2811,6.02657 L 75.4635,6.07341 L 75.6387,6.14275 L 75.8037,6.23351
 L 75.9561,6.34422 L 76.0934,6.47318 L 76.2135,6.61832 L 76.3145,6.77736 L 76.3947,6.9478 L 76.4529,7.12695
 L 76.4882,7.312 L 76.5,7.5 L 76.4882,7.68799 L 76.4529,7.87303 L 76.3947,8.05219 L 76.3145,8.22263
 L 76.2135,8.38167 L 76.0934,8.52681 L 75.9561,8.65576 L 75.8037,8.76648 L 75.6387,8.85724 L 75.4635,8.92657
 L 75.2811,8.97342 L 75.0942,8.99704 z
M -75.0942,8.99704 L -75.2811,8.97342 L -75.4635,8.92657 L -75.6387,8.85724 L -75.8037,8.76648 L -75.9561,8.65576
 L -76.0934,8.52681 L -76.2135,8.38167 L -76.3145,8.22263 L -76.3947,8.05219 L -76.4529,7.87303 L -76.4882,7.68799
 L -76.5,7.5 L -76.4882,7.312 L -76.4529,7.12695 L -76.3947,6.9478 L -76.3145,6.77736 L -76.2135,6.61832
 L -76.0934,6.47318 L -75.9561,6.34422 L -75.8037,6.23351 L -75.6387,6.14275 L -75.4635,6.07341 L -75.2811,6.02657
 L -75.0942,6.00294 L -74.9058,6.00294 L -74.7189,6.02657 L -74.5365,6.07341 L -74.3613,6.14275 L -74.1963,6.23351
 L -74.0439,6.34422 L -73.9065,6.47318 L -73.7865,6.61832 L -73.6855,6.77736 L -73.6053,6.9478 L -73.5471,7.12695
 L -73.5118,7.312 L -73.5,7.5 L -73.5118,7.68799 L -73.5471,7.87303 L -73.6053,8.05219 L -73.6855,8.22263
 L -73.7865,8.38167 L -73.9065,8.52681 L -74.0439,8.65576 L -74.1963,8.76648 L -74.3613,8.85724 L -74.5365,8.92657
 L -74.7189,8.97342 L -74.9058,8.99704 z
M 74.8116,17.9941 L 74.4379,17.9469 L 74.073,17.8532 L 73.7227,17.7145 L 73.3925,17.533 L 73.0877,17.3115
 L 72.8131,17.0536 L 72.573,16.7634 L 72.3711,16.4453 L 72.2107,16.1044 L 72.0943,15.7461 L 72.0237,15.376
 L 72,15 L 72.0237,14.624 L 72.0943,14.2539 L 72.2107,13.8956 L 72.3711,13.5547 L 72.573,13.2366
 L 72.8131,12.9464 L 73.0877,12.6884 L 73.3925,12.467 L 73.7227,12.2855 L 74.073,12.1468 L 74.4379,12.0531
 L 74.8116,12.0059 L 75.1884,12.0059 L 75.5621,12.0531 L 75.927,12.1468 L 76.2773,12.2855 L 76.6075,12.467
 L 76.9123,12.6884 L 77.1869,12.9464 L 77.427,13.2366 L 77.6289,13.5547 L 77.7893,13.8956 L 77.9057,14.2539
 L 77.9763,14.624 L 78,15 L 77.9763,15.376 L 77.9057,15.7461 L 77.7893,16.1044 L 77.6289,16.4453
 L 77.427,16.7634 L 77.1869,17.0536 L 76.9123,17.3115 L 76.6075,17.533 L 76.2773,17.7145 L 75.927,17.8532
 L 75.5621,17.9469 L 75.1884,17.9941 z
M -75.1884,17.9941 L -75.5621,17.9469 L -75.927,17.8532 L -76.2773,17.7145 L -76.6075,17.533 L -76.9123,17.3115
 L -77.1869,17.0536 L -77.427,16.7634 L -77.6289,16.4453 L -77.7893,16.1044 L -77.9057,15.7461 L -77.9763,15.376
 L -78,15 L -77.9763,14.624 L -77.9057,14.2539 L -77.7893,13.8956 L -77.6289,13.5547 L -77.427,13.2366
 L -77.1869,12.9464 L -76.9123,12.6884 L -76.6075,12.467 L -76.2773,12.2855 L -75.927,12.1468 L -75.5621,12.0531
 L -75.1884,12.0059 L -74.8116,12.0059 L -74.4379,12.0531 L -74.073,12.1468 L -73.7227,12.2855 L -73.3925,12.467
 L -73.0877,12.6884 L -72.8131,12.9464 L -72.573,13.2366 L -72.3711,13.5547 L -72.2107,13.8956 L -72.0943,14.2539
 L -72.0237,14.624 L -72,15 L -72.0237,15.376 L -72.0943,15.7461 L -72.2107,16.1044 L -72.3711,16.4453
 L -72.573,16.7634 L -72.8131,17.0536 L -73.0877,17.3115 L -73.3925,17.533 L -73.7227,17.7145 L -74.073,17.8532
 L -74.4379,17.9469 L -74.8116,17.9941 z
" stroke="black" fill="lightgray" stroke-width="0.5"/>
</svg>
