  0
SECTION
  2
BLOCKS
  0
ENDSEC
  0
SECTION
  2
ENTITIES
  0
LINE
  8
0
 10
47.9369
 20
32.0886
 11
48.5451
 21
32.2447
  0
LINE
  8
0
 10
48.5451
 20
32.2447
 11
49.1289
 21
32.4759
  0
LINE
  8
0
 10
49.1289
 20
32.4759
 11
49.6791
 21
32.7784
  0
LINE
  8
0
 10
49.6791
 20
32.7784
 11
50.1871
 21
33.1474
  0
LINE
  8
0
 10
50.1871
 20
33.1474
 11
50.6448
 21
33.5773
  0
LINE
  8
0
 10
50.6448
 20
33.5773
 11
51.0451
 21
34.0611
  0
LINE
  8
0
 10
51.0451
 20
34.0611
 11
51.3815
 21
34.5912
  0
LINE
  8
0
 10
51.3815
 20
34.5912
 11
51.6489
 21
35.1594
  0
LINE
  8
0
 10
51.6489
 20
35.1594
 11
51.8429
 21
35.7566
  0
LINE
  8
0
 10
51.8429
 20
35.7566
 11
51.9606
 21
36.3733
  0
LINE
  8
0
 10
51.9606
 20
36.3733
 11
52
 21
37
  0
LINE
  8
0
 10
52
 20
37
 11
52
 21
71
  0
LINE
  8
0
 10
52
 20
71
 11
51.9606
 21
71.6267
  0
LINE
  8
0
 10
51.9606
 20
71.6267
 11
51.8429
 21
72.2434
  0
LINE
  8
0
 10
51.8429
 20
72.2434
 11
51.6489
 21
72.8406
  0
LINE
  8
0
 10
51.6489
 20
72.8406
 11
51.3815
 21
73.4088
  0
LINE
  8
0
 10
51.3815
 20
73.4088
 11
51.0451
 21
73.9389
  0
LINE
  8
0
 10
51.0451
 20
73.9389
 11
50.6448
 21
74.4227
  0
LINE
  8
0
 10
50.6448
 20
74.4227
 11
50.1871
 21
74.8526
  0
LINE
  8
0
 10
50.1871
 20
74.8526
 11
49.6791
 21
75.2216
  0
LINE
  8
0
 10
49.6791
 20
75.2216
 11
49.1289
 21
75.5241
  0
LINE
  8
0
 10
49.1289
 20
75.5241
 11
48.5451
 21
75.7553
  0
LINE
  8
0
 10
48.5451
 20
75.7553
 11
47.9369
 21
75.9114
  0
LINE
  8
0
 10
47.9369
 20
75.9114
 11
47.3139
 21
75.9901
  0
LINE
  8
0
 10
47.3139
 20
75.9901
 11
-47.3139
 21
75.9901
  0
LINE
  8
0
 10
-47.3139
 20
75.9901
 11
-47.9369
 21
75.9114
  0
LINE
  8
0
 10
-47.9369
 20
75.9114
 11
-48.5451
 21
75.7553
  0
LINE
  8
0
 10
-48.5451
 20
75.7553
 11
-49.1289
 21
75.5241
  0
LINE
  8
0
 10
-49.1289
 20
75.5241
 11
-49.6791
 21
75.2216
  0
LINE
  8
0
 10
-49.6791
 20
75.2216
 11
-50.1871
 21
74.8526
  0
LINE
  8
0
 10
-50.1871
 20
74.8526
 11
-50.6448
 21
74.4227
  0
LINE
  8
0
 10
-50.6448
 20
74.4227
 11
-51.0451
 21
73.9389
  0
LINE
  8
0
 10
-51.0451
 20
73.9389
 11
-51.3815
 21
73.4088
  0
LINE
  8
0
 10
-51.3815
 20
73.4088
 11
-51.6489
 21
72.8406
  0
LINE
  8
0
 10
-51.6489
 20
72.8406
 11
-51.8429
 21
72.2434
  0
LINE
  8
0
 10
-51.8429
 20
72.2434
 11
-51.9606
 21
71.6267
  0
LINE
  8
0
 10
-51.9606
 20
71.6267
 11
-52
 21
71
  0
LINE
  8
0
 10
-52
 20
71
 11
-52
 21
37
  0
LINE
  8
0
 10
-52
 20
37
 11
-51.9606
 21
36.3733
  0
LINE
  8
0
 10
-51.9606
 20
36.3733
 11
-51.8429
 21
35.7566
  0
LINE
  8
0
 10
-51.8429
 20
35.7566
 11
-51.6489
 21
35.1594
  0
LINE
  8
0
 10
-51.6489
 20
35.1594
 11
-51.3815
 21
34.5912
  0
LINE
  8
0
 10
-51.3815
 20
34.5912
 11
-51.0451
 21
34.0611
  0
LINE
  8
0
 10
-51.0451
 20
34.0611
 11
-50.6448
 21
33.5773
  0
LINE
  8
0
 10
-50.6448
 20
33.5773
 11
-50.1871
 21
33.1474
  0
LINE
  8
0
 10
-50.1871
 20
33.1474
 11
-49.6791
 21
32.7784
  0
LINE
  8
0
 10
-49.6791
 20
32.7784
 11
-49.1289
 21
32.4759
  0
LINE
  8
0
 10
-49.1289
 20
32.4759
 11
-48.5451
 21
32.2447
  0
LINE
  8
0
 10
-48.5451
 20
32.2447
 11
-47.9369
 21
32.0886
  0
LINE
  8
0
 10
-47.9369
 20
32.0886
 11
-47.3139
 21
32.0099
  0
LINE
  8
0
 10
-47.3139
 20
32.0099
 11
47.3139
 21
32.0099
  0
LINE
  8
0
 10
47.3139
 20
32.0099
 11
47.9369
 21
32.0886
  0
LINE
  8
0
 10
-30.1884
 20
66.0059
 11
-30.5621
 21
66.0531
  0
LINE
  8
0
 10
-30.5621
 20
66.0531
 11
-30.927
 21
66.1468
  0
LINE
  8
0
 10
-30.927
 20
66.1468
 11
-31.2773
 21
66.2855
  0
LINE
  8
0
 10
-31.2773
 20
66.2855
 11
-31.6075
 21
66.467
  0
LINE
  8
0
 10
-31.6075
 20
66.467
 11
-31.9123
 21
66.6884
  0
LINE
  8
0
 10
-31.9123
 20
66.6884
 11
-32.1869
 21
66.9464
  0
LINE
  8
0
 10
-32.1869
 20
66.9464
 11
-32.427
 21
67.2366
  0
LINE
  8
0
 10
-32.427
 20
67.2366
 11
-32.6289
 21
67.5547
  0
LINE
  8
0
 10
-32.6289
 20
67.5547
 11
-32.7893
 21
67.8956
  0
LINE
  8
0
 10
-32.7893
 20
67.8956
 11
-32.9057
 21
68.2539
  0
LINE
  8
0
 10
-32.9057
 20
68.2539
 11
-32.9763
 21
68.624
  0
LINE
  8
0
 10
-32.9763
 20
68.624
 11
-33
 21
69
  0
LINE
  8
0
 10
-33
 20
69
 11
-32.9763
 21
69.376
  0
LINE
  8
0
 10
-32.9763
 20
69.376
 11
-32.9057
 21
69.7461
  0
LINE
  8
0
 10
-32.9057
 20
69.7461
 11
-32.7893
 21
70.1044
  0
LINE
  8
0
 10
-32.7893
 20
70.1044
 11
-32.6289
 21
70.4453
  0
LINE
  8
0
 10
-32.6289
 20
70.4453
 11
-32.427
 21
70.7634
  0
LINE
  8
0
 10
-32.427
 20
70.7634
 11
-32.1869
 21
71.0536
  0
LINE
  8
0
 10
-32.1869
 20
71.0536
 11
-31.9123
 21
71.3115
  0
LINE
  8
0
 10
-31.9123
 20
71.3115
 11
-31.6075
 21
71.533
  0
LINE
  8
0
 10
-31.6075
 20
71.533
 11
-31.2773
 21
71.7145
  0
LINE
  8
0
 10
-31.2773
 20
71.7145
 11
-30.927
 21
71.8532
  0
LINE
  8
0
 10
-30.927
 20
71.8532
 11
-30.5621
 21
71.9469
  0
LINE
  8
0
 10
-30.5621
 20
71.9469
 11
-30.1884
 21
71.9941
  0
LINE
  8
0
 10
-30.1884
 20
71.9941
 11
-29.8116
 21
71.9941
  0
LINE
  8
0
 10
-29.8116
 20
71.9941
 11
-29.4379
 21
71.9469
  0
LINE
  8
0
 10
-29.4379
 20
71.9469
 11
-29.0729
 21
71.8532
  0
LINE
  8
0
 10
-29.0729
 20
71.8532
 11
-28.7227
 21
71.7145
  0
LINE
  8
0
 10
-28.7227
 20
71.7145
 11
-28.3925
 21
71.533
  0
LINE
  8
0
 10
-28.3925
 20
71.533
 11
-28.0877
 21
71.3115
  0
LINE
  8
0
 10
-28.0877
 20
71.3115
 11
-27.8131
 21
71.0536
  0
LINE
  8
0
 10
-27.8131
 20
71.0536
 11
-27.5729
 21
70.7634
  0
LINE
  8
0
 10
-27.5729
 20
70.7634
 11
-27.3711
 21
70.4453
  0
LINE
  8
0
 10
-27.3711
 20
70.4453
 11
-27.2107
 21
70.1044
  0
LINE
  8
0
 10
-27.2107
 20
70.1044
 11
-27.0942
 21
69.7461
  0
LINE
  8
0
 10
-27.0942
 20
69.7461
 11
-27.0237
 21
69.376
  0
LINE
  8
0
 10
-27.0237
 20
69.376
 11
-27
 21
69
  0
LINE
  8
0
 10
-27
 20
69
 11
-27.0237
 21
68.624
  0
LINE
  8
0
 10
-27.0237
 20
68.624
 11
-27.0942
 21
68.2539
  0
LINE
  8
0
 10
-27.0942
 20
68.2539
 11
-27.2107
 21
67.8956
  0
LINE
  8
0
 10
-27.2107
 20
67.8956
 11
-27.3711
 21
67.5547
  0
LINE
  8
0
 10
-27.3711
 20
67.5547
 11
-27.5729
 21
67.2366
  0
LINE
  8
0
 10
-27.5729
 20
67.2366
 11
-27.8131
 21
66.9464
  0
LINE
  8
0
 10
-27.8131
 20
66.9464
 11
-28.0877
 21
66.6884
  0
LINE
  8
0
 10
-28.0877
 20
66.6884
 11
-28.3925
 21
66.467
  0
LINE
  8
0
 10
-28.3925
 20
66.467
 11
-28.7227
 21
66.2855
  0
LINE
  8
0
 10
-28.7227
 20
66.2855
 11
-29.0729
 21
66.1468
  0
LINE
  8
0
 10
-29.0729
 20
66.1468
 11
-29.4379
 21
66.0531
  0
LINE
  8
0
 10
-29.4379
 20
66.0531
 11
-29.8116
 21
66.0059
  0
LINE
  8
0
 10
-29.8116
 20
66.0059
 11
-30.1884
 21
66.0059
  0
LINE
  8
0
 10
14.8116
 20
66.0059
 11
14.4379
 21
66.0531
  0
LINE
  8
0
 10
14.4379
 20
66.0531
 11
14.0729
 21
66.1468
  0
LINE
  8
0
 10
14.0729
 20
66.1468
 11
13.7227
 21
66.2855
  0
LINE
  8
0
 10
13.7227
 20
66.2855
 11
13.3925
 21
66.467
  0
LINE
  8
0
 10
13.3925
 20
66.467
 11
13.0877
 21
66.6884
  0
LINE
  8
0
 10
13.0877
 20
66.6884
 11
12.8131
 21
66.9464
  0
LINE
  8
0
 10
12.8131
 20
66.9464
 11
12.5729
 21
67.2366
  0
LINE
  8
0
 10
12.5729
 20
67.2366
 11
12.3711
 21
67.5547
  0
LINE
  8
0
 10
12.3711
 20
67.5547
 11
12.2107
 21
67.8956
  0
LINE
  8
0
 10
12.2107
 20
67.8956
 11
12.0942
 21
68.2539
  0
LINE
  8
0
 10
12.0942
 20
68.2539
 11
12.0237
 21
68.624
  0
LINE
  8
0
 10
12.0237
 20
68.624
 11
12
 21
69
  0
LINE
  8
0
 10
12
 20
69
 11
12.0237
 21
69.376
  0
LINE
  8
0
 10
12.0237
 20
69.376
 11
12.0942
 21
69.7461
  0
LINE
  8
0
 10
12.0942
 20
69.7461
 11
12.2107
 21
70.1044
  0
LINE
  8
0
 10
12.2107
 20
70.1044
 11
12.3711
 21
70.4453
  0
LINE
  8
0
 10
12.3711
 20
70.4453
 11
12.5729
 21
70.7634
  0
LINE
  8
0
 10
12.5729
 20
70.7634
 11
12.8131
 21
71.0536
  0
LINE
  8
0
 10
12.8131
 20
71.0536
 11
13.0877
 21
71.3115
  0
LINE
  8
0
 10
13.0877
 20
71.3115
 11
13.3925
 21
71.533
  0
LINE
  8
0
 10
13.3925
 20
71.533
 11
13.7227
 21
71.7145
  0
LINE
  8
0
 10
13.7227
 20
71.7145
 11
14.0729
 21
71.8532
  0
LINE
  8
0
 10
14.0729
 20
71.8532
 11
14.4379
 21
71.9469
  0
LINE
  8
0
 10
14.4379
 20
71.9469
 11
14.8116
 21
71.9941
  0
LINE
  8
0
 10
14.8116
 20
71.9941
 11
15.1884
 21
71.9941
  0
LINE
  8
0
 10
15.1884
 20
71.9941
 11
15.5621
 21
71.9469
  0
LINE
  8
0
 10
15.5621
 20
71.9469
 11
15.927
 21
71.8532
  0
LINE
  8
0
 10
15.927
 20
71.8532
 11
16.2773
 21
71.7145
  0
LINE
  8
0
 10
16.2773
 20
71.7145
 11
16.6075
 21
71.533
  0
LINE
  8
0
 10
16.6075
 20
71.533
 11
16.9123
 21
71.3115
  0
LINE
  8
0
 10
16.9123
 20
71.3115
 11
17.1869
 21
71.0536
  0
LINE
  8
0
 10
17.1869
 20
71.0536
 11
17.427
 21
70.7634
  0
LINE
  8
0
 10
17.427
 20
70.7634
 11
17.6289
 21
70.4453
  0
LINE
  8
0
 10
17.6289
 20
70.4453
 11
17.7893
 21
70.1044
  0
LINE
  8
0
 10
17.7893
 20
70.1044
 11
17.9057
 21
69.7461
  0
LINE
  8
0
 10
17.9057
 20
69.7461
 11
17.9763
 21
69.376
  0
LINE
  8
0
 10
17.9763
 20
69.376
 11
18
 21
69
  0
LINE
  8
0
 10
18
 20
69
 11
17.9763
 21
68.624
  0
LINE
  8
0
 10
17.9763
 20
68.624
 11
17.9057
 21
68.2539
  0
LINE
  8
0
 10
17.9057
 20
68.2539
 11
17.7893
 21
67.8956
  0
LINE
  8
0
 10
17.7893
 20
67.8956
 11
17.6289
 21
67.5547
  0
LINE
  8
0
 10
17.6289
 20
67.5547
 11
17.427
 21
67.2366
  0
LINE
  8
0
 10
17.427
 20
67.2366
 11
17.1869
 21
66.9464
  0
LINE
  8
0
 10
17.1869
 20
66.9464
 11
16.9123
 21
66.6884
  0
LINE
  8
0
 10
16.9123
 20
66.6884
 11
16.6075
 21
66.467
  0
LINE
  8
0
 10
16.6075
 20
66.467
 11
16.2773
 21
66.2855
  0
LINE
  8
0
 10
16.2773
 20
66.2855
 11
15.927
 21
66.1468
  0
LINE
  8
0
 10
15.927
 20
66.1468
 11
15.5621
 21
66.0531
  0
LINE
  8
0
 10
15.5621
 20
66.0531
 11
15.1884
 21
66.0059
  0
LINE
  8
0
 10
15.1884
 20
66.0059
 11
14.8116
 21
66.0059
  0
LINE
  8
0
 10
-0.18837
 20
66.0059
 11
-0.562134
 21
66.0531
  0
LINE
  8
0
 10
-0.562134
 20
66.0531
 11
-0.927048
 21
66.1468
  0
LINE
  8
0
 10
-0.927048
 20
66.1468
 11
-1.27733
 21
66.2855
  0
LINE
  8
0
 10
-1.27733
 20
66.2855
 11
-1.60747
 21
66.467
  0
LINE
  8
0
 10
-1.60747
 20
66.467
 11
-1.91226
 21
66.6884
  0
LINE
  8
0
 10
-1.91226
 20
66.6884
 11
-2.1869
 21
66.9464
  0
LINE
  8
0
 10
-2.1869
 20
66.9464
 11
-2.42705
 21
67.2366
  0
LINE
  8
0
 10
-2.42705
 20
67.2366
 11
-2.62891
 21
67.5547
  0
LINE
  8
0
 10
-2.62891
 20
67.5547
 11
-2.78932
 21
67.8956
  0
LINE
  8
0
 10
-2.78932
 20
67.8956
 11
-2.90575
 21
68.2539
  0
LINE
  8
0
 10
-2.90575
 20
68.2539
 11
-2.97633
 21
68.624
  0
LINE
  8
0
 10
-2.97633
 20
68.624
 11
-3
 21
69
  0
LINE
  8
0
 10
-3
 20
69
 11
-2.97633
 21
69.376
  0
LINE
  8
0
 10
-2.97633
 20
69.376
 11
-2.90575
 21
69.7461
  0
LINE
  8
0
 10
-2.90575
 20
69.7461
 11
-2.78932
 21
70.1044
  0
LINE
  8
0
 10
-2.78932
 20
70.1044
 11
-2.62891
 21
70.4453
  0
LINE
  8
0
 10
-2.62891
 20
70.4453
 11
-2.42705
 21
70.7634
  0
LINE
  8
0
 10
-2.42705
 20
70.7634
 11
-2.1869
 21
71.0536
  0
LINE
  8
0
 10
-2.1869
 20
71.0536
 11
-1.91226
 21
71.3115
  0
LINE
  8
0
 10
-1.91226
 20
71.3115
 11
-1.60747
 21
71.533
  0
LINE
  8
0
 10
-1.60747
 20
71.533
 11
-1.27733
 21
71.7145
  0
LINE
  8
0
 10
-1.27733
 20
71.7145
 11
-0.927048
 21
71.8532
  0
LINE
  8
0
 10
-0.927048
 20
71.8532
 11
-0.562134
 21
71.9469
  0
LINE
  8
0
 10
-0.562134
 20
71.9469
 11
-0.18837
 21
71.9941
  0
LINE
  8
0
 10
-0.18837
 20
71.9941
 11
0.18837
 21
71.9941
  0
LINE
  8
0
 10
0.18837
 20
71.9941
 11
0.562134
 21
71.9469
  0
LINE
  8
0
 10
0.562134
 20
71.9469
 11
0.927048
 21
71.8532
  0
LINE
  8
0
 10
0.927048
 20
71.8532
 11
1.27733
 21
71.7145
  0
LINE
  8
0
 10
1.27733
 20
71.7145
 11
1.60747
 21
71.533
  0
LINE
  8
0
 10
1.60747
 20
71.533
 11
1.91226
 21
71.3115
  0
LINE
  8
0
 10
1.91226
 20
71.3115
 11
2.1869
 21
71.0536
  0
LINE
  8
0
 10
2.1869
 20
71.0536
 11
2.42705
 21
70.7634
  0
LINE
  8
0
 10
2.42705
 20
70.7634
 11
2.62891
 21
70.4453
  0
LINE
  8
0
 10
2.62891
 20
70.4453
 11
2.78932
 21
70.1044
  0
LINE
  8
0
 10
2.78932
 20
70.1044
 11
2.90575
 21
69.7461
  0
LINE
  8
0
 10
2.90575
 20
69.7461
 11
2.97633
 21
69.376
  0
LINE
  8
0
 10
2.97633
 20
69.376
 11
3
 21
69
  0
LINE
  8
0
 10
3
 20
69
 11
2.97633
 21
68.624
  0
LINE
  8
0
 10
2.97633
 20
68.624
 11
2.90575
 21
68.2539
  0
LINE
  8
0
 10
2.90575
 20
68.2539
 11
2.78932
 21
67.8956
  0
LINE
  8
0
 10
2.78932
 20
67.8956
 11
2.62891
 21
67.5547
  0
LINE
  8
0
 10
2.62891
 20
67.5547
 11
2.42705
 21
67.2366
  0
LINE
  8
0
 10
2.42705
 20
67.2366
 11
2.1869
 21
66.9464
  0
LINE
  8
0
 10
2.1869
 20
66.9464
 11
1.91226
 21
66.6884
  0
LINE
  8
0
 10
1.91226
 20
66.6884
 11
1.60747
 21
66.467
  0
LINE
  8
0
 10
1.60747
 20
66.467
 11
1.27733
 21
66.2855
  0
LINE
  8
0
 10
1.27733
 20
66.2855
 11
0.927048
 21
66.1468
  0
LINE
  8
0
 10
0.927048
 20
66.1468
 11
0.562134
 21
66.0531
  0
LINE
  8
0
 10
0.562134
 20
66.0531
 11
0.18837
 21
66.0059
  0
LINE
  8
0
 10
0.18837
 20
66.0059
 11
-0.18837
 21
66.0059
  0
LINE
  8
0
 10
44.8116
 20
66.0059
 11
44.4379
 21
66.0531
  0
LINE
  8
0
 10
44.4379
 20
66.0531
 11
44.0729
 21
66.1468
  0
LINE
  8
0
 10
44.0729
 20
66.1468
 11
43.7227
 21
66.2855
  0
LINE
  8
0
 10
43.7227
 20
66.2855
 11
43.3925
 21
66.467
  0
LINE
  8
0
 10
43.3925
 20
66.467
 11
43.0877
 21
66.6884
  0
LINE
  8
0
 10
43.0877
 20
66.6884
 11
42.8131
 21
66.9464
  0
LINE
  8
0
 10
42.8131
 20
66.9464
 11
42.5729
 21
67.2366
  0
LINE
  8
0
 10
42.5729
 20
67.2366
 11
42.3711
 21
67.5547
  0
LINE
  8
0
 10
42.3711
 20
67.5547
 11
42.2107
 21
67.8956
  0
LINE
  8
0
 10
42.2107
 20
67.8956
 11
42.0942
 21
68.2539
  0
LINE
  8
0
 10
42.0942
 20
68.2539
 11
42.0237
 21
68.624
  0
LINE
  8
0
 10
42.0237
 20
68.624
 11
42
 21
69
  0
LINE
  8
0
 10
42
 20
69
 11
42.0237
 21
69.376
  0
LINE
  8
0
 10
42.0237
 20
69.376
 11
42.0942
 21
69.7461
  0
LINE
  8
0
 10
42.0942
 20
69.7461
 11
42.2107
 21
70.1044
  0
LINE
  8
0
 10
42.2107
 20
70.1044
 11
42.3711
 21
70.4453
  0
LINE
  8
0
 10
42.3711
 20
70.4453
 11
42.5729
 21
70.7634
  0
LINE
  8
0
 10
42.5729
 20
70.7634
 11
42.8131
 21
71.0536
  0
LINE
  8
0
 10
42.8131
 20
71.0536
 11
43.0877
 21
71.3115
  0
LINE
  8
0
 10
43.0877
 20
71.3115
 11
43.3925
 21
71.533
  0
LINE
  8
0
 10
43.3925
 20
71.533
 11
43.7227
 21
71.7145
  0
LINE
  8
0
 10
43.7227
 20
71.7145
 11
44.0729
 21
71.8532
  0
LINE
  8
0
 10
44.0729
 20
71.8532
 11
44.4379
 21
71.9469
  0
LINE
  8
0
 10
44.4379
 20
71.9469
 11
44.8116
 21
71.9941
  0
LINE
  8
0
 10
44.8116
 20
71.9941
 11
45.1884
 21
71.9941
  0
LINE
  8
0
 10
45.1884
 20
71.9941
 11
45.5621
 21
71.9469
  0
LINE
  8
0
 10
45.5621
 20
71.9469
 11
45.927
 21
71.8532
  0
LINE
  8
0
 10
45.927
 20
71.8532
 11
46.2773
 21
71.7145
  0
LINE
  8
0
 10
46.2773
 20
71.7145
 11
46.6075
 21
71.533
  0
LINE
  8
0
 10
46.6075
 20
71.533
 11
46.9123
 21
71.3115
  0
LINE
  8
0
 10
46.9123
 20
71.3115
 11
47.1869
 21
71.0536
  0
LINE
  8
0
 10
47.1869
 20
71.0536
 11
47.427
 21
70.7634
  0
LINE
  8
0
 10
47.427
 20
70.7634
 11
47.6289
 21
70.4453
  0
LINE
  8
0
 10
47.6289
 20
70.4453
 11
47.7893
 21
70.1044
  0
LINE
  8
0
 10
47.7893
 20
70.1044
 11
47.9057
 21
69.7461
  0
LINE
  8
0
 10
47.9057
 20
69.7461
 11
47.9763
 21
69.376
  0
LINE
  8
0
 10
47.9763
 20
69.376
 11
48
 21
69
  0
LINE
  8
0
 10
48
 20
69
 11
47.9763
 21
68.624
  0
LINE
  8
0
 10
47.9763
 20
68.624
 11
47.9057
 21
68.2539
  0
LINE
  8
0
 10
47.9057
 20
68.2539
 11
47.7893
 21
67.8956
  0
LINE
  8
0
 10
47.7893
 20
67.8956
 11
47.6289
 21
67.5547
  0
LINE
  8
0
 10
47.6289
 20
67.5547
 11
47.427
 21
67.2366
  0
LINE
  8
0
 10
47.427
 20
67.2366
 11
47.1869
 21
66.9464
  0
LINE
  8
0
 10
47.1869
 20
66.9464
 11
46.9123
 21
66.6884
  0
LINE
  8
0
 10
46.9123
 20
66.6884
 11
46.6075
 21
66.467
  0
LINE
  8
0
 10
46.6075
 20
66.467
 11
46.2773
 21
66.2855
  0
LINE
  8
0
 10
46.2773
 20
66.2855
 11
45.927
 21
66.1468
  0
LINE
  8
0
 10
45.927
 20
66.1468
 11
45.5621
 21
66.0531
  0
LINE
  8
0
 10
45.5621
 20
66.0531
 11
45.1884
 21
66.0059
  0
LINE
  8
0
 10
45.1884
 20
66.0059
 11
44.8116
 21
66.0059
  0
LINE
  8
0
 10
29.8116
 20
66.0059
 11
29.4379
 21
66.0531
  0
LINE
  8
0
 10
29.4379
 20
66.0531
 11
29.0729
 21
66.1468
  0
LINE
  8
0
 10
29.0729
 20
66.1468
 11
28.7227
 21
66.2855
  0
LINE
  8
0
 10
28.7227
 20
66.2855
 11
28.3925
 21
66.467
  0
LINE
  8
0
 10
28.3925
 20
66.467
 11
28.0877
 21
66.6884
  0
LINE
  8
0
 10
28.0877
 20
66.6884
 11
27.8131
 21
66.9464
  0
LINE
  8
0
 10
27.8131
 20
66.9464
 11
27.5729
 21
67.2366
  0
LINE
  8
0
 10
27.5729
 20
67.2366
 11
27.3711
 21
67.5547
  0
LINE
  8
0
 10
27.3711
 20
67.5547
 11
27.2107
 21
67.8956
  0
LINE
  8
0
 10
27.2107
 20
67.8956
 11
27.0942
 21
68.2539
  0
LINE
  8
0
 10
27.0942
 20
68.2539
 11
27.0237
 21
68.624
  0
LINE
  8
0
 10
27.0237
 20
68.624
 11
27
 21
69
  0
LINE
  8
0
 10
27
 20
69
 11
27.0237
 21
69.376
  0
LINE
  8
0
 10
27.0237
 20
69.376
 11
27.0942
 21
69.7461
  0
LINE
  8
0
 10
27.0942
 20
69.7461
 11
27.2107
 21
70.1044
  0
LINE
  8
0
 10
27.2107
 20
70.1044
 11
27.3711
 21
70.4453
  0
LINE
  8
0
 10
27.3711
 20
70.4453
 11
27.5729
 21
70.7634
  0
LINE
  8
0
 10
27.5729
 20
70.7634
 11
27.8131
 21
71.0536
  0
LINE
  8
0
 10
27.8131
 20
71.0536
 11
28.0877
 21
71.3115
  0
LINE
  8
0
 10
28.0877
 20
71.3115
 11
28.3925
 21
71.533
  0
LINE
  8
0
 10
28.3925
 20
71.533
 11
28.7227
 21
71.7145
  0
LINE
  8
0
 10
28.7227
 20
71.7145
 11
29.0729
 21
71.8532
  0
LINE
  8
0
 10
29.0729
 20
71.8532
 11
29.4379
 21
71.9469
  0
LINE
  8
0
 10
29.4379
 20
71.9469
 11
29.8116
 21
71.9941
  0
LINE
  8
0
 10
29.8116
 20
71.9941
 11
30.1884
 21
71.9941
  0
LINE
  8
0
 10
30.1884
 20
71.9941
 11
30.5621
 21
71.9469
  0
LINE
  8
0
 10
30.5621
 20
71.9469
 11
30.927
 21
71.8532
  0
LINE
  8
0
 10
30.927
 20
71.8532
 11
31.2773
 21
71.7145
  0
LINE
  8
0
 10
31.2773
 20
71.7145
 11
31.6075
 21
71.533
  0
LINE
  8
0
 10
31.6075
 20
71.533
 11
31.9123
 21
71.3115
  0
LINE
  8
0
 10
31.9123
 20
71.3115
 11
32.1869
 21
71.0536
  0
LINE
  8
0
 10
32.1869
 20
71.0536
 11
32.427
 21
70.7634
  0
LINE
  8
0
 10
32.427
 20
70.7634
 11
32.6289
 21
70.4453
  0
LINE
  8
0
 10
32.6289
 20
70.4453
 11
32.7893
 21
70.1044
  0
LINE
  8
0
 10
32.7893
 20
70.1044
 11
32.9057
 21
69.7461
  0
LINE
  8
0
 10
32.9057
 20
69.7461
 11
32.9763
 21
69.376
  0
LINE
  8
0
 10
32.9763
 20
69.376
 11
33
 21
69
  0
LINE
  8
0
 10
33
 20
69
 11
32.9763
 21
68.624
  0
LINE
  8
0
 10
32.9763
 20
68.624
 11
32.9057
 21
68.2539
  0
LINE
  8
0
 10
32.9057
 20
68.2539
 11
32.7893
 21
67.8956
  0
LINE
  8
0
 10
32.7893
 20
67.8956
 11
32.6289
 21
67.5547
  0
LINE
  8
0
 10
32.6289
 20
67.5547
 11
32.427
 21
67.2366
  0
LINE
  8
0
 10
32.427
 20
67.2366
 11
32.1869
 21
66.9464
  0
LINE
  8
0
 10
32.1869
 20
66.9464
 11
31.9123
 21
66.6884
  0
LINE
  8
0
 10
31.9123
 20
66.6884
 11
31.6075
 21
66.467
  0
LINE
  8
0
 10
31.6075
 20
66.467
 11
31.2773
 21
66.2855
  0
LINE
  8
0
 10
31.2773
 20
66.2855
 11
30.927
 21
66.1468
  0
LINE
  8
0
 10
30.927
 20
66.1468
 11
30.5621
 21
66.0531
  0
LINE
  8
0
 10
30.5621
 20
66.0531
 11
30.1884
 21
66.0059
  0
LINE
  8
0
 10
30.1884
 20
66.0059
 11
29.8116
 21
66.0059
  0
LINE
  8
0
 10
-45.1884
 20
66.0059
 11
-45.5621
 21
66.0531
  0
LINE
  8
0
 10
-45.5621
 20
66.0531
 11
-45.927
 21
66.1468
  0
LINE
  8
0
 10
-45.927
 20
66.1468
 11
-46.2773
 21
66.2855
  0
LINE
  8
0
 10
-46.2773
 20
66.2855
 11
-46.6075
 21
66.467
  0
LINE
  8
0
 10
-46.6075
 20
66.467
 11
-46.9123
 21
66.6884
  0
LINE
  8
0
 10
-46.9123
 20
66.6884
 11
-47.1869
 21
66.9464
  0
LINE
  8
0
 10
-47.1869
 20
66.9464
 11
-47.427
 21
67.2366
  0
LINE
  8
0
 10
-47.427
 20
67.2366
 11
-47.6289
 21
67.5547
  0
LINE
  8
0
 10
-47.6289
 20
67.5547
 11
-47.7893
 21
67.8956
  0
LINE
  8
0
 10
-47.7893
 20
67.8956
 11
-47.9057
 21
68.2539
  0
LINE
  8
0
 10
-47.9057
 20
68.2539
 11
-47.9763
 21
68.624
  0
LINE
  8
0
 10
-47.9763
 20
68.624
 11
-48
 21
69
  0
LINE
  8
0
 10
-48
 20
69
 11
-47.9763
 21
69.376
  0
LINE
  8
0
 10
-47.9763
 20
69.376
 11
-47.9057
 21
69.7461
  0
LINE
  8
0
 10
-47.9057
 20
69.7461
 11
-47.7893
 21
70.1044
  0
LINE
  8
0
 10
-47.7893
 20
70.1044
 11
-47.6289
 21
70.4453
  0
LINE
  8
0
 10
-47.6289
 20
70.4453
 11
-47.427
 21
70.7634
  0
LINE
  8
0
 10
-47.427
 20
70.7634
 11
-47.1869
 21
71.0536
  0
LINE
  8
0
 10
-47.1869
 20
71.0536
 11
-46.9123
 21
71.3115
  0
LINE
  8
0
 10
-46.9123
 20
71.3115
 11
-46.6075
 21
71.533
  0
LINE
  8
0
 10
-46.6075
 20
71.533
 11
-46.2773
 21
71.7145
  0
LINE
  8
0
 10
-46.2773
 20
71.7145
 11
-45.927
 21
71.8532
  0
LINE
  8
0
 10
-45.927
 20
71.8532
 11
-45.5621
 21
71.9469
  0
LINE
  8
0
 10
-45.5621
 20
71.9469
 11
-45.1884
 21
71.9941
  0
LINE
  8
0
 10
-45.1884
 20
71.9941
 11
-44.8116
 21
71.9941
  0
LINE
  8
0
 10
-44.8116
 20
71.9941
 11
-44.4379
 21
71.9469
  0
LINE
  8
0
 10
-44.4379
 20
71.9469
 11
-44.0729
 21
71.8532
  0
LINE
  8
0
 10
-44.0729
 20
71.8532
 11
-43.7227
 21
71.7145
  0
LINE
  8
0
 10
-43.7227
 20
71.7145
 11
-43.3925
 21
71.533
  0
LINE
  8
0
 10
-43.3925
 20
71.533
 11
-43.0877
 21
71.3115
  0
LINE
  8
0
 10
-43.0877
 20
71.3115
 11
-42.8131
 21
71.0536
  0
LINE
  8
0
 10
-42.8131
 20
71.0536
 11
-42.5729
 21
70.7634
  0
LINE
  8
0
 10
-42.5729
 20
70.7634
 11
-42.3711
 21
70.4453
  0
LINE
  8
0
 10
-42.3711
 20
70.4453
 11
-42.2107
 21
70.1044
  0
LINE
  8
0
 10
-42.2107
 20
70.1044
 11
-42.0942
 21
69.7461
  0
LINE
  8
0
 10
-42.0942
 20
69.7461
 11
-42.0237
 21
69.376
  0
LINE
  8
0
 10
-42.0237
 20
69.376
 11
-42
 21
69
  0
LINE
  8
0
 10
-42
 20
69
 11
-42.0237
 21
68.624
  0
LINE
  8
0
 10
-42.0237
 20
68.624
 11
-42.0942
 21
68.2539
  0
LINE
  8
0
 10
-42.0942
 20
68.2539
 11
-42.2107
 21
67.8956
  0
LINE
  8
0
 10
-42.2107
 20
67.8956
 11
-42.3711
 21
67.5547
  0
LINE
  8
0
 10
-42.3711
 20
67.5547
 11
-42.5729
 21
67.2366
  0
LINE
  8
0
 10
-42.5729
 20
67.2366
 11
-42.8131
 21
66.9464
  0
LINE
  8
0
 10
-42.8131
 20
66.9464
 11
-43.0877
 21
66.6884
  0
LINE
  8
0
 10
-43.0877
 20
66.6884
 11
-43.3925
 21
66.467
  0
LINE
  8
0
 10
-43.3925
 20
66.467
 11
-43.7227
 21
66.2855
  0
LINE
  8
0
 10
-43.7227
 20
66.2855
 11
-44.0729
 21
66.1468
  0
LINE
  8
0
 10
-44.0729
 20
66.1468
 11
-44.4379
 21
66.0531
  0
LINE
  8
0
 10
-44.4379
 20
66.0531
 11
-44.8116
 21
66.0059
  0
LINE
  8
0
 10
-44.8116
 20
66.0059
 11
-45.1884
 21
66.0059
  0
LINE
  8
0
 10
-15.1884
 20
66.0059
 11
-15.5621
 21
66.0531
  0
LINE
  8
0
 10
-15.5621
 20
66.0531
 11
-15.927
 21
66.1468
  0
LINE
  8
0
 10
-15.927
 20
66.1468
 11
-16.2773
 21
66.2855
  0
LINE
  8
0
 10
-16.2773
 20
66.2855
 11
-16.6075
 21
66.467
  0
LINE
  8
0
 10
-16.6075
 20
66.467
 11
-16.9123
 21
66.6884
  0
LINE
  8
0
 10
-16.9123
 20
66.6884
 11
-17.1869
 21
66.9464
  0
LINE
  8
0
 10
-17.1869
 20
66.9464
 11
-17.427
 21
67.2366
  0
LINE
  8
0
 10
-17.427
 20
67.2366
 11
-17.6289
 21
67.5547
  0
LINE
  8
0
 10
-17.6289
 20
67.5547
 11
-17.7893
 21
67.8956
  0
LINE
  8
0
 10
-17.7893
 20
67.8956
 11
-17.9057
 21
68.2539
  0
LINE
  8
0
 10
-17.9057
 20
68.2539
 11
-17.9763
 21
68.624
  0
LINE
  8
0
 10
-17.9763
 20
68.624
 11
-18
 21
69
  0
LINE
  8
0
 10
-18
 20
69
 11
-17.9763
 21
69.376
  0
LINE
  8
0
 10
-17.9763
 20
69.376
 11
-17.9057
 21
69.7461
  0
LINE
  8
0
 10
-17.9057
 20
69.7461
 11
-17.7893
 21
70.1044
  0
LINE
  8
0
 10
-17.7893
 20
70.1044
 11
-17.6289
 21
70.4453
  0
LINE
  8
0
 10
-17.6289
 20
70.4453
 11
-17.427
 21
70.7634
  0
LINE
  8
0
 10
-17.427
 20
70.7634
 11
-17.1869
 21
71.0536
  0
LINE
  8
0
 10
-17.1869
 20
71.0536
 11
-16.9123
 21
71.3115
  0
LINE
  8
0
 10
-16.9123
 20
71.3115
 11
-16.6075
 21
71.533
  0
LINE
  8
0
 10
-16.6075
 20
71.533
 11
-16.2773
 21
71.7145
  0
LINE
  8
0
 10
-16.2773
 20
71.7145
 11
-15.927
 21
71.8532
  0
LINE
  8
0
 10
-15.927
 20
71.8532
 11
-15.5621
 21
71.9469
  0
LINE
  8
0
 10
-15.5621
 20
71.9469
 11
-15.1884
 21
71.9941
  0
LINE
  8
0
 10
-15.1884
 20
71.9941
 11
-14.8116
 21
71.9941
  0
LINE
  8
0
 10
-14.8116
 20
71.9941
 11
-14.4379
 21
71.9469
  0
LINE
  8
0
 10
-14.4379
 20
71.9469
 11
-14.0729
 21
71.8532
  0
LINE
  8
0
 10
-14.0729
 20
71.8532
 11
-13.7227
 21
71.7145
  0
LINE
  8
0
 10
-13.7227
 20
71.7145
 11
-13.3925
 21
71.533
  0
LINE
  8
0
 10
-13.3925
 20
71.533
 11
-13.0877
 21
71.3115
  0
LINE
  8
0
 10
-13.0877
 20
71.3115
 11
-12.8131
 21
71.0536
  0
LINE
  8
0
 10
-12.8131
 20
71.0536
 11
-12.5729
 21
70.7634
  0
LINE
  8
0
 10
-12.5729
 20
70.7634
 11
-12.3711
 21
70.4453
  0
LINE
  8
0
 10
-12.3711
 20
70.4453
 11
-12.2107
 21
70.1044
  0
LINE
  8
0
 10
-12.2107
 20
70.1044
 11
-12.0942
 21
69.7461
  0
LINE
  8
0
 10
-12.0942
 20
69.7461
 11
-12.0237
 21
69.376
  0
LINE
  8
0
 10
-12.0237
 20
69.376
 11
-12
 21
69
  0
LINE
  8
0
 10
-12
 20
69
 11
-12.0237
 21
68.624
  0
LINE
  8
0
 10
-12.0237
 20
68.624
 11
-12.0942
 21
68.2539
  0
LINE
  8
0
 10
-12.0942
 20
68.2539
 11
-12.2107
 21
67.8956
  0
LINE
  8
0
 10
-12.2107
 20
67.8956
 11
-12.3711
 21
67.5547
  0
LINE
  8
0
 10
-12.3711
 20
67.5547
 11
-12.5729
 21
67.2366
  0
LINE
  8
0
 10
-12.5729
 20
67.2366
 11
-12.8131
 21
66.9464
  0
LINE
  8
0
 10
-12.8131
 20
66.9464
 11
-13.0877
 21
66.6884
  0
LINE
  8
0
 10
-13.0877
 20
66.6884
 11
-13.3925
 21
66.467
  0
LINE
  8
0
 10
-13.3925
 20
66.467
 11
-13.7227
 21
66.2855
  0
LINE
  8
0
 10
-13.7227
 20
66.2855
 11
-14.0729
 21
66.1468
  0
LINE
  8
0
 10
-14.0729
 20
66.1468
 11
-14.4379
 21
66.0531
  0
LINE
  8
0
 10
-14.4379
 20
66.0531
 11
-14.8116
 21
66.0059
  0
LINE
  8
0
 10
-14.8116
 20
66.0059
 11
-15.1884
 21
66.0059
  0
LINE
  8
0
 10
-22.5942
 20
67.5029
 11
-22.7811
 21
67.5266
  0
LINE
  8
0
 10
-22.7811
 20
67.5266
 11
-22.9635
 21
67.5734
  0
LINE
  8
0
 10
-22.9635
 20
67.5734
 11
-23.1387
 21
67.6427
  0
LINE
  8
0
 10
-23.1387
 20
67.6427
 11
-23.3037
 21
67.7335
  0
LINE
  8
0
 10
-23.3037
 20
67.7335
 11
-23.4561
 21
67.8442
  0
LINE
  8
0
 10
-23.4561
 20
67.8442
 11
-23.5934
 21
67.9732
  0
LINE
  8
0
 10
-23.5934
 20
67.9732
 11
-23.7135
 21
68.1183
  0
LINE
  8
0
 10
-23.7135
 20
68.1183
 11
-23.8145
 21
68.2774
  0
LINE
  8
0
 10
-23.8145
 20
68.2774
 11
-23.8947
 21
68.4478
  0
LINE
  8
0
 10
-23.8947
 20
68.4478
 11
-23.9529
 21
68.627
  0
LINE
  8
0
 10
-23.9529
 20
68.627
 11
-23.9882
 21
68.812
  0
LINE
  8
0
 10
-23.9882
 20
68.812
 11
-24
 21
69
  0
LINE
  8
0
 10
-24
 20
69
 11
-23.9882
 21
69.188
  0
LINE
  8
0
 10
-23.9882
 20
69.188
 11
-23.9529
 21
69.373
  0
LINE
  8
0
 10
-23.9529
 20
69.373
 11
-23.8947
 21
69.5522
  0
LINE
  8
0
 10
-23.8947
 20
69.5522
 11
-23.8145
 21
69.7226
  0
LINE
  8
0
 10
-23.8145
 20
69.7226
 11
-23.7135
 21
69.8817
  0
LINE
  8
0
 10
-23.7135
 20
69.8817
 11
-23.5934
 21
70.0268
  0
LINE
  8
0
 10
-23.5934
 20
70.0268
 11
-23.4561
 21
70.1558
  0
LINE
  8
0
 10
-23.4561
 20
70.1558
 11
-23.3037
 21
70.2665
  0
LINE
  8
0
 10
-23.3037
 20
70.2665
 11
-23.1387
 21
70.3572
  0
LINE
  8
0
 10
-23.1387
 20
70.3572
 11
-22.9635
 21
70.4266
  0
LINE
  8
0
 10
-22.9635
 20
70.4266
 11
-22.7811
 21
70.4734
  0
LINE
  8
0
 10
-22.7811
 20
70.4734
 11
-22.5942
 21
70.497
  0
LINE
  8
0
 10
-22.5942
 20
70.497
 11
-22.4058
 21
70.497
  0
LINE
  8
0
 10
-22.4058
 20
70.497
 11
-22.2189
 21
70.4734
  0
LINE
  8
0
 10
-22.2189
 20
70.4734
 11
-22.0365
 21
70.4266
  0
LINE
  8
0
 10
-22.0365
 20
70.4266
 11
-21.8613
 21
70.3572
  0
LINE
  8
0
 10
-21.8613
 20
70.3572
 11
-21.6963
 21
70.2665
  0
LINE
  8
0
 10
-21.6963
 20
70.2665
 11
-21.5439
 21
70.1558
  0
LINE
  8
0
 10
-21.5439
 20
70.1558
 11
-21.4065
 21
70.0268
  0
LINE
  8
0
 10
-21.4065
 20
70.0268
 11
-21.2865
 21
69.8817
  0
LINE
  8
0
 10
-21.2865
 20
69.8817
 11
-21.1855
 21
69.7226
  0
LINE
  8
0
 10
-21.1855
 20
69.7226
 11
-21.1053
 21
69.5522
  0
LINE
  8
0
 10
-21.1053
 20
69.5522
 11
-21.0471
 21
69.373
  0
LINE
  8
0
 10
-21.0471
 20
69.373
 11
-21.0118
 21
69.188
  0
LINE
  8
0
 10
-21.0118
 20
69.188
 11
-21
 21
69
  0
LINE
  8
0
 10
-21
 20
69
 11
-21.0118
 21
68.812
  0
LINE
  8
0
 10
-21.0118
 20
68.812
 11
-21.0471
 21
68.627
  0
LINE
  8
0
 10
-21.0471
 20
68.627
 11
-21.1053
 21
68.4478
  0
LINE
  8
0
 10
-21.1053
 20
68.4478
 11
-21.1855
 21
68.2774
  0
LINE
  8
0
 10
-21.1855
 20
68.2774
 11
-21.2865
 21
68.1183
  0
LINE
  8
0
 10
-21.2865
 20
68.1183
 11
-21.4065
 21
67.9732
  0
LINE
  8
0
 10
-21.4065
 20
67.9732
 11
-21.5439
 21
67.8442
  0
LINE
  8
0
 10
-21.5439
 20
67.8442
 11
-21.6963
 21
67.7335
  0
LINE
  8
0
 10
-21.6963
 20
67.7335
 11
-21.8613
 21
67.6427
  0
LINE
  8
0
 10
-21.8613
 20
67.6427
 11
-22.0365
 21
67.5734
  0
LINE
  8
0
 10
-22.0365
 20
67.5734
 11
-22.2189
 21
67.5266
  0
LINE
  8
0
 10
-22.2189
 20
67.5266
 11
-22.4058
 21
67.5029
  0
LINE
  8
0
 10
-22.4058
 20
67.5029
 11
-22.5942
 21
67.5029
  0
LINE
  8
0
 10
22.4058
 20
67.5029
 11
22.2189
 21
67.5266
  0
LINE
  8
0
 10
22.2189
 20
67.5266
 11
22.0365
 21
67.5734
  0
LINE
  8
0
 10
22.0365
 20
67.5734
 11
21.8613
 21
67.6427
  0
LINE
  8
0
 10
21.8613
 20
67.6427
 11
21.6963
 21
67.7335
  0
LINE
  8
0
 10
21.6963
 20
67.7335
 11
21.5439
 21
67.8442
  0
LINE
  8
0
 10
21.5439
 20
67.8442
 11
21.4065
 21
67.9732
  0
LINE
  8
0
 10
21.4065
 20
67.9732
 11
21.2865
 21
68.1183
  0
LINE
  8
0
 10
21.2865
 20
68.1183
 11
21.1855
 21
68.2774
  0
LINE
  8
0
 10
21.1855
 20
68.2774
 11
21.1053
 21
68.4478
  0
LINE
  8
0
 10
21.1053
 20
68.4478
 11
21.0471
 21
68.627
  0
LINE
  8
0
 10
21.0471
 20
68.627
 11
21.0118
 21
68.812
  0
LINE
  8
0
 10
21.0118
 20
68.812
 11
21
 21
69
  0
LINE
  8
0
 10
21
 20
69
 11
21.0118
 21
69.188
  0
LINE
  8
0
 10
21.0118
 20
69.188
 11
21.0471
 21
69.373
  0
LINE
  8
0
 10
21.0471
 20
69.373
 11
21.1053
 21
69.5522
  0
LINE
  8
0
 10
21.1053
 20
69.5522
 11
21.1855
 21
69.7226
  0
LINE
  8
0
 10
21.1855
 20
69.7226
 11
21.2865
 21
69.8817
  0
LINE
  8
0
 10
21.2865
 20
69.8817
 11
21.4065
 21
70.0268
  0
LINE
  8
0
 10
21.4065
 20
70.0268
 11
21.5439
 21
70.1558
  0
LINE
  8
0
 10
21.5439
 20
70.1558
 11
21.6963
 21
70.2665
  0
LINE
  8
0
 10
21.6963
 20
70.2665
 11
21.8613
 21
70.3572
  0
LINE
  8
0
 10
21.8613
 20
70.3572
 11
22.0365
 21
70.4266
  0
LINE
  8
0
 10
22.0365
 20
70.4266
 11
22.2189
 21
70.4734
  0
LINE
  8
0
 10
22.2189
 20
70.4734
 11
22.4058
 21
70.497
  0
LINE
  8
0
 10
22.4058
 20
70.497
 11
22.5942
 21
70.497
  0
LINE
  8
0
 10
22.5942
 20
70.497
 11
22.7811
 21
70.4734
  0
LINE
  8
0
 10
22.7811
 20
70.4734
 11
22.9635
 21
70.4266
  0
LINE
  8
0
 10
22.9635
 20
70.4266
 11
23.1387
 21
70.3572
  0
LINE
  8
0
 10
23.1387
 20
70.3572
 11
23.3037
 21
70.2665
  0
LINE
  8
0
 10
23.3037
 20
70.2665
 11
23.4561
 21
70.1558
  0
LINE
  8
0
 10
23.4561
 20
70.1558
 11
23.5934
 21
70.0268
  0
LINE
  8
0
 10
23.5934
 20
70.0268
 11
23.7135
 21
69.8817
  0
LINE
  8
0
 10
23.7135
 20
69.8817
 11
23.8145
 21
69.7226
  0
LINE
  8
0
 10
23.8145
 20
69.7226
 11
23.8947
 21
69.5522
  0
LINE
  8
0
 10
23.8947
 20
69.5522
 11
23.9529
 21
69.373
  0
LINE
  8
0
 10
23.9529
 20
69.373
 11
23.9882
 21
69.188
  0
LINE
  8
0
 10
23.9882
 20
69.188
 11
24
 21
69
  0
LINE
  8
0
 10
24
 20
69
 11
23.9882
 21
68.812
  0
LINE
  8
0
 10
23.9882
 20
68.812
 11
23.9529
 21
68.627
  0
LINE
  8
0
 10
23.9529
 20
68.627
 11
23.8947
 21
68.4478
  0
LINE
  8
0
 10
23.8947
 20
68.4478
 11
23.8145
 21
68.2774
  0
LINE
  8
0
 10
23.8145
 20
68.2774
 11
23.7135
 21
68.1183
  0
LINE
  8
0
 10
23.7135
 20
68.1183
 11
23.5934
 21
67.9732
  0
LINE
  8
0
 10
23.5934
 20
67.9732
 11
23.4561
 21
67.8442
  0
LINE
  8
0
 10
23.4561
 20
67.8442
 11
23.3037
 21
67.7335
  0
LINE
  8
0
 10
23.3037
 20
67.7335
 11
23.1387
 21
67.6427
  0
LINE
  8
0
 10
23.1387
 20
67.6427
 11
22.9635
 21
67.5734
  0
LINE
  8
0
 10
22.9635
 20
67.5734
 11
22.7811
 21
67.5266
  0
LINE
  8
0
 10
22.7811
 20
67.5266
 11
22.5942
 21
67.5029
  0
LINE
  8
0
 10
22.5942
 20
67.5029
 11
22.4058
 21
67.5029
  0
LINE
  8
0
 10
-7.59418
 20
67.5029
 11
-7.78107
 21
67.5266
  0
LINE
  8
0
 10
-7.78107
 20
67.5266
 11
-7.96352
 21
67.5734
  0
LINE
  8
0
 10
-7.96352
 20
67.5734
 11
-8.13866
 21
67.6427
  0
LINE
  8
0
 10
-8.13866
 20
67.6427
 11
-8.30373
 21
67.7335
  0
LINE
  8
0
 10
-8.30373
 20
67.7335
 11
-8.45613
 21
67.8442
  0
LINE
  8
0
 10
-8.45613
 20
67.8442
 11
-8.59344
 21
67.9732
  0
LINE
  8
0
 10
-8.59344
 20
67.9732
 11
-8.71352
 21
68.1183
  0
LINE
  8
0
 10
-8.71352
 20
68.1183
 11
-8.81445
 21
68.2774
  0
LINE
  8
0
 10
-8.81445
 20
68.2774
 11
-8.89465
 21
68.4478
  0
LINE
  8
0
 10
-8.89465
 20
68.4478
 11
-8.95287
 21
68.627
  0
LINE
  8
0
 10
-8.95287
 20
68.627
 11
-8.98816
 21
68.812
  0
LINE
  8
0
 10
-8.98816
 20
68.812
 11
-9
 21
69
  0
LINE
  8
0
 10
-9
 20
69
 11
-8.98816
 21
69.188
  0
LINE
  8
0
 10
-8.98816
 20
69.188
 11
-8.95287
 21
69.373
  0
LINE
  8
0
 10
-8.95287
 20
69.373
 11
-8.89465
 21
69.5522
  0
LINE
  8
0
 10
-8.89465
 20
69.5522
 11
-8.81445
 21
69.7226
  0
LINE
  8
0
 10
-8.81445
 20
69.7226
 11
-8.71352
 21
69.8817
  0
LINE
  8
0
 10
-8.71352
 20
69.8817
 11
-8.59344
 21
70.0268
  0
LINE
  8
0
 10
-8.59344
 20
70.0268
 11
-8.45613
 21
70.1558
  0
LINE
  8
0
 10
-8.45613
 20
70.1558
 11
-8.30373
 21
70.2665
  0
LINE
  8
0
 10
-8.30373
 20
70.2665
 11
-8.13866
 21
70.3572
  0
LINE
  8
0
 10
-8.13866
 20
70.3572
 11
-7.96352
 21
70.4266
  0
LINE
  8
0
 10
-7.96352
 20
70.4266
 11
-7.78107
 21
70.4734
  0
LINE
  8
0
 10
-7.78107
 20
70.4734
 11
-7.59418
 21
70.497
  0
LINE
  8
0
 10
-7.59418
 20
70.497
 11
-7.40581
 21
70.497
  0
LINE
  8
0
 10
-7.40581
 20
70.497
 11
-7.21892
 21
70.4734
  0
LINE
  8
0
 10
-7.21892
 20
70.4734
 11
-7.03647
 21
70.4266
  0
LINE
  8
0
 10
-7.03647
 20
70.4266
 11
-6.86133
 21
70.3572
  0
LINE
  8
0
 10
-6.86133
 20
70.3572
 11
-6.69626
 21
70.2665
  0
LINE
  8
0
 10
-6.69626
 20
70.2665
 11
-6.54385
 21
70.1558
  0
LINE
  8
0
 10
-6.54385
 20
70.1558
 11
-6.40654
 21
70.0268
  0
LINE
  8
0
 10
-6.40654
 20
70.0268
 11
-6.28647
 21
69.8817
  0
LINE
  8
0
 10
-6.28647
 20
69.8817
 11
-6.18553
 21
69.7226
  0
LINE
  8
0
 10
-6.18553
 20
69.7226
 11
-6.10533
 21
69.5522
  0
LINE
  8
0
 10
-6.10533
 20
69.5522
 11
-6.04712
 21
69.373
  0
LINE
  8
0
 10
-6.04712
 20
69.373
 11
-6.01183
 21
69.188
  0
LINE
  8
0
 10
-6.01183
 20
69.188
 11
-6
 21
69
  0
LINE
  8
0
 10
-6
 20
69
 11
-6.01183
 21
68.812
  0
LINE
  8
0
 10
-6.01183
 20
68.812
 11
-6.04712
 21
68.627
  0
LINE
  8
0
 10
-6.04712
 20
68.627
 11
-6.10533
 21
68.4478
  0
LINE
  8
0
 10
-6.10533
 20
68.4478
 11
-6.18553
 21
68.2774
  0
LINE
  8
0
 10
-6.18553
 20
68.2774
 11
-6.28647
 21
68.1183
  0
LINE
  8
0
 10
-6.28647
 20
68.1183
 11
-6.40654
 21
67.9732
  0
LINE
  8
0
 10
-6.40654
 20
67.9732
 11
-6.54385
 21
67.8442
  0
LINE
  8
0
 10
-6.54385
 20
67.8442
 11
-6.69626
 21
67.7335
  0
LINE
  8
0
 10
-6.69626
 20
67.7335
 11
-6.86133
 21
67.6427
  0
LINE
  8
0
 10
-6.86133
 20
67.6427
 11
-7.03647
 21
67.5734
  0
LINE
  8
0
 10
-7.03647
 20
67.5734
 11
-7.21892
 21
67.5266
  0
LINE
  8
0
 10
-7.21892
 20
67.5266
 11
-7.40581
 21
67.5029
  0
LINE
  8
0
 10
-7.40581
 20
67.5029
 11
-7.59418
 21
67.5029
  0
LINE
  8
0
 10
-37.5942
 20
67.5029
 11
-37.7811
 21
67.5266
  0
LINE
  8
0
 10
-37.7811
 20
67.5266
 11
-37.9635
 21
67.5734
  0
LINE
  8
0
 10
-37.9635
 20
67.5734
 11
-38.1387
 21
67.6427
  0
LINE
  8
0
 10
-38.1387
 20
67.6427
 11
-38.3037
 21
67.7335
  0
LINE
  8
0
 10
-38.3037
 20
67.7335
 11
-38.4561
 21
67.8442
  0
LINE
  8
0
 10
-38.4561
 20
67.8442
 11
-38.5934
 21
67.9732
  0
LINE
  8
0
 10
-38.5934
 20
67.9732
 11
-38.7135
 21
68.1183
  0
LINE
  8
0
 10
-38.7135
 20
68.1183
 11
-38.8145
 21
68.2774
  0
LINE
  8
0
 10
-38.8145
 20
68.2774
 11
-38.8947
 21
68.4478
  0
LINE
  8
0
 10
-38.8947
 20
68.4478
 11
-38.9529
 21
68.627
  0
LINE
  8
0
 10
-38.9529
 20
68.627
 11
-38.9882
 21
68.812
  0
LINE
  8
0
 10
-38.9882
 20
68.812
 11
-39
 21
69
  0
LINE
  8
0
 10
-39
 20
69
 11
-38.9882
 21
69.188
  0
LINE
  8
0
 10
-38.9882
 20
69.188
 11
-38.9529
 21
69.373
  0
LINE
  8
0
 10
-38.9529
 20
69.373
 11
-38.8947
 21
69.5522
  0
LINE
  8
0
 10
-38.8947
 20
69.5522
 11
-38.8145
 21
69.7226
  0
LINE
  8
0
 10
-38.8145
 20
69.7226
 11
-38.7135
 21
69.8817
  0
LINE
  8
0
 10
-38.7135
 20
69.8817
 11
-38.5934
 21
70.0268
  0
LINE
  8
0
 10
-38.5934
 20
70.0268
 11
-38.4561
 21
70.1558
  0
LINE
  8
0
 10
-38.4561
 20
70.1558
 11
-38.3037
 21
70.2665
  0
LINE
  8
0
 10
-38.3037
 20
70.2665
 11
-38.1387
 21
70.3572
  0
LINE
  8
0
 10
-38.1387
 20
70.3572
 11
-37.9635
 21
70.4266
  0
LINE
  8
0
 10
-37.9635
 20
70.4266
 11
-37.7811
 21
70.4734
  0
LINE
  8
0
 10
-37.7811
 20
70.4734
 11
-37.5942
 21
70.497
  0
LINE
  8
0
 10
-37.5942
 20
70.497
 11
-37.4058
 21
70.497
  0
LINE
  8
0
 10
-37.4058
 20
70.497
 11
-37.2189
 21
70.4734
  0
LINE
  8
0
 10
-37.2189
 20
70.4734
 11
-37.0365
 21
70.4266
  0
LINE
  8
0
 10
-37.0365
 20
70.4266
 11
-36.8613
 21
70.3572
  0
LINE
  8
0
 10
-36.8613
 20
70.3572
 11
-36.6963
 21
70.2665
  0
LINE
  8
0
 10
-36.6963
 20
70.2665
 11
-36.5439
 21
70.1558
  0
LINE
  8
0
 10
-36.5439
 20
70.1558
 11
-36.4065
 21
70.0268
  0
LINE
  8
0
 10
-36.4065
 20
70.0268
 11
-36.2865
 21
69.8817
  0
LINE
  8
0
 10
-36.2865
 20
69.8817
 11
-36.1855
 21
69.7226
  0
LINE
  8
0
 10
-36.1855
 20
69.7226
 11
-36.1053
 21
69.5522
  0
LINE
  8
0
 10
-36.1053
 20
69.5522
 11
-36.0471
 21
69.373
  0
LINE
  8
0
 10
-36.0471
 20
69.373
 11
-36.0118
 21
69.188
  0
LINE
  8
0
 10
-36.0118
 20
69.188
 11
-36
 21
69
  0
LINE
  8
0
 10
-36
 20
69
 11
-36.0118
 21
68.812
  0
LINE
  8
0
 10
-36.0118
 20
68.812
 11
-36.0471
 21
68.627
  0
LINE
  8
0
 10
-36.0471
 20
68.627
 11
-36.1053
 21
68.4478
  0
LINE
  8
0
 10
-36.1053
 20
68.4478
 11
-36.1855
 21
68.2774
  0
LINE
  8
0
 10
-36.1855
 20
68.2774
 11
-36.2865
 21
68.1183
  0
LINE
  8
0
 10
-36.2865
 20
68.1183
 11
-36.4065
 21
67.9732
  0
LINE
  8
0
 10
-36.4065
 20
67.9732
 11
-36.5439
 21
67.8442
  0
LINE
  8
0
 10
-36.5439
 20
67.8442
 11
-36.6963
 21
67.7335
  0
LINE
  8
0
 10
-36.6963
 20
67.7335
 11
-36.8613
 21
67.6427
  0
LINE
  8
0
 10
-36.8613
 20
67.6427
 11
-37.0365
 21
67.5734
  0
LINE
  8
0
 10
-37.0365
 20
67.5734
 11
-37.2189
 21
67.5266
  0
LINE
  8
0
 10
-37.2189
 20
67.5266
 11
-37.4058
 21
67.5029
  0
LINE
  8
0
 10
-37.4058
 20
67.5029
 11
-37.5942
 21
67.5029
  0
LINE
  8
0
 10
37.4058
 20
67.5029
 11
37.2189
 21
67.5266
  0
LINE
  8
0
 10
37.2189
 20
67.5266
 11
37.0365
 21
67.5734
  0
LINE
  8
0
 10
37.0365
 20
67.5734
 11
36.8613
 21
67.6427
  0
LINE
  8
0
 10
36.8613
 20
67.6427
 11
36.6963
 21
67.7335
  0
LINE
  8
0
 10
36.6963
 20
67.7335
 11
36.5439
 21
67.8442
  0
LINE
  8
0
 10
36.5439
 20
67.8442
 11
36.4065
 21
67.9732
  0
LINE
  8
0
 10
36.4065
 20
67.9732
 11
36.2865
 21
68.1183
  0
LINE
  8
0
 10
36.2865
 20
68.1183
 11
36.1855
 21
68.2774
  0
LINE
  8
0
 10
36.1855
 20
68.2774
 11
36.1053
 21
68.4478
  0
LINE
  8
0
 10
36.1053
 20
68.4478
 11
36.0471
 21
68.627
  0
LINE
  8
0
 10
36.0471
 20
68.627
 11
36.0118
 21
68.812
  0
LINE
  8
0
 10
36.0118
 20
68.812
 11
36
 21
69
  0
LINE
  8
0
 10
36
 20
69
 11
36.0118
 21
69.188
  0
LINE
  8
0
 10
36.0118
 20
69.188
 11
36.0471
 21
69.373
  0
LINE
  8
0
 10
36.0471
 20
69.373
 11
36.1053
 21
69.5522
  0
LINE
  8
0
 10
36.1053
 20
69.5522
 11
36.1855
 21
69.7226
  0
LINE
  8
0
 10
36.1855
 20
69.7226
 11
36.2865
 21
69.8817
  0
LINE
  8
0
 10
36.2865
 20
69.8817
 11
36.4065
 21
70.0268
  0
LINE
  8
0
 10
36.4065
 20
70.0268
 11
36.5439
 21
70.1558
  0
LINE
  8
0
 10
36.5439
 20
70.1558
 11
36.6963
 21
70.2665
  0
LINE
  8
0
 10
36.6963
 20
70.2665
 11
36.8613
 21
70.3572
  0
LINE
  8
0
 10
36.8613
 20
70.3572
 11
37.0365
 21
70.4266
  0
LINE
  8
0
 10
37.0365
 20
70.4266
 11
37.2189
 21
70.4734
  0
LINE
  8
0
 10
37.2189
 20
70.4734
 11
37.4058
 21
70.497
  0
LINE
  8
0
 10
37.4058
 20
70.497
 11
37.5942
 21
70.497
  0
LINE
  8
0
 10
37.5942
 20
70.497
 11
37.7811
 21
70.4734
  0
LINE
  8
0
 10
37.7811
 20
70.4734
 11
37.9635
 21
70.4266
  0
LINE
  8
0
 10
37.9635
 20
70.4266
 11
38.1387
 21
70.3572
  0
LINE
  8
0
 10
38.1387
 20
70.3572
 11
38.3037
 21
70.2665
  0
LINE
  8
0
 10
38.3037
 20
70.2665
 11
38.4561
 21
70.1558
  0
LINE
  8
0
 10
38.4561
 20
70.1558
 11
38.5934
 21
70.0268
  0
LINE
  8
0
 10
38.5934
 20
70.0268
 11
38.7135
 21
69.8817
  0
LINE
  8
0
 10
38.7135
 20
69.8817
 11
38.8145
 21
69.7226
  0
LINE
  8
0
 10
38.8145
 20
69.7226
 11
38.8947
 21
69.5522
  0
LINE
  8
0
 10
38.8947
 20
69.5522
 11
38.9529
 21
69.373
  0
LINE
  8
0
 10
38.9529
 20
69.373
 11
38.9882
 21
69.188
  0
LINE
  8
0
 10
38.9882
 20
69.188
 11
39
 21
69
  0
LINE
  8
0
 10
39
 20
69
 11
38.9882
 21
68.812
  0
LINE
  8
0
 10
38.9882
 20
68.812
 11
38.9529
 21
68.627
  0
LINE
  8
0
 10
38.9529
 20
68.627
 11
38.8947
 21
68.4478
  0
LINE
  8
0
 10
38.8947
 20
68.4478
 11
38.8145
 21
68.2774
  0
LINE
  8
0
 10
38.8145
 20
68.2774
 11
38.7135
 21
68.1183
  0
LINE
  8
0
 10
38.7135
 20
68.1183
 11
38.5934
 21
67.9732
  0
LINE
  8
0
 10
38.5934
 20
67.9732
 11
38.4561
 21
67.8442
  0
LINE
  8
0
 10
38.4561
 20
67.8442
 11
38.3037
 21
67.7335
  0
LINE
  8
0
 10
38.3037
 20
67.7335
 11
38.1387
 21
67.6427
  0
LINE
  8
0
 10
38.1387
 20
67.6427
 11
37.9635
 21
67.5734
  0
LINE
  8
0
 10
37.9635
 20
67.5734
 11
37.7811
 21
67.5266
  0
LINE
  8
0
 10
37.7811
 20
67.5266
 11
37.5942
 21
67.5029
  0
LINE
  8
0
 10
37.5942
 20
67.5029
 11
37.4058
 21
67.5029
  0
LINE
  8
0
 10
7.40581
 20
67.5029
 11
7.21892
 21
67.5266
  0
LINE
  8
0
 10
7.21892
 20
67.5266
 11
7.03647
 21
67.5734
  0
LINE
  8
0
 10
7.03647
 20
67.5734
 11
6.86133
 21
67.6427
  0
LINE
  8
0
 10
6.86133
 20
67.6427
 11
6.69626
 21
67.7335
  0
LINE
  8
0
 10
6.69626
 20
67.7335
 11
6.54385
 21
67.8442
  0
LINE
  8
0
 10
6.54385
 20
67.8442
 11
6.40654
 21
67.9732
  0
LINE
  8
0
 10
6.40654
 20
67.9732
 11
6.28647
 21
68.1183
  0
LINE
  8
0
 10
6.28647
 20
68.1183
 11
6.18553
 21
68.2774
  0
LINE
  8
0
 10
6.18553
 20
68.2774
 11
6.10533
 21
68.4478
  0
LINE
  8
0
 10
6.10533
 20
68.4478
 11
6.04712
 21
68.627
  0
LINE
  8
0
 10
6.04712
 20
68.627
 11
6.01183
 21
68.812
  0
LINE
  8
0
 10
6.01183
 20
68.812
 11
6
 21
69
  0
LINE
  8
0
 10
6
 20
69
 11
6.01183
 21
69.188
  0
LINE
  8
0
 10
6.01183
 20
69.188
 11
6.04712
 21
69.373
  0
LINE
  8
0
 10
6.04712
 20
69.373
 11
6.10533
 21
69.5522
  0
LINE
  8
0
 10
6.10533
 20
69.5522
 11
6.18553
 21
69.7226
  0
LINE
  8
0
 10
6.18553
 20
69.7226
 11
6.28647
 21
69.8817
  0
LINE
  8
0
 10
6.28647
 20
69.8817
 11
6.40654
 21
70.0268
  0
LINE
  8
0
 10
6.40654
 20
70.0268
 11
6.54385
 21
70.1558
  0
LINE
  8
0
 10
6.54385
 20
70.1558
 11
6.69626
 21
70.2665
  0
LINE
  8
0
 10
6.69626
 20
70.2665
 11
6.86133
 21
70.3572
  0
LINE
  8
0
 10
6.86133
 20
70.3572
 11
7.03647
 21
70.4266
  0
LINE
  8
0
 10
7.03647
 20
70.4266
 11
7.21892
 21
70.4734
  0
LINE
  8
0
 10
7.21892
 20
70.4734
 11
7.40581
 21
70.497
  0
LINE
  8
0
 10
7.40581
 20
70.497
 11
7.59418
 21
70.497
  0
LINE
  8
0
 10
7.59418
 20
70.497
 11
7.78107
 21
70.4734
  0
LINE
  8
0
 10
7.78107
 20
70.4734
 11
7.96352
 21
70.4266
  0
LINE
  8
0
 10
7.96352
 20
70.4266
 11
8.13866
 21
70.3572
  0
LINE
  8
0
 10
8.13866
 20
70.3572
 11
8.30373
 21
70.2665
  0
LINE
  8
0
 10
8.30373
 20
70.2665
 11
8.45613
 21
70.1558
  0
LINE
  8
0
 10
8.45613
 20
70.1558
 11
8.59344
 21
70.0268
  0
LINE
  8
0
 10
8.59344
 20
70.0268
 11
8.71352
 21
69.8817
  0
LINE
  8
0
 10
8.71352
 20
69.8817
 11
8.81445
 21
69.7226
  0
LINE
  8
0
 10
8.81445
 20
69.7226
 11
8.89465
 21
69.5522
  0
LINE
  8
0
 10
8.89465
 20
69.5522
 11
8.95287
 21
69.373
  0
LINE
  8
0
 10
8.95287
 20
69.373
 11
8.98816
 21
69.188
  0
LINE
  8
0
 10
8.98816
 20
69.188
 11
9
 21
69
  0
LINE
  8
0
 10
9
 20
69
 11
8.98816
 21
68.812
  0
LINE
  8
0
 10
8.98816
 20
68.812
 11
8.95287
 21
68.627
  0
LINE
  8
0
 10
8.95287
 20
68.627
 11
8.89465
 21
68.4478
  0
LINE
  8
0
 10
8.89465
 20
68.4478
 11
8.81445
 21
68.2774
  0
LINE
  8
0
 10
8.81445
 20
68.2774
 11
8.71352
 21
68.1183
  0
LINE
  8
0
 10
8.71352
 20
68.1183
 11
8.59344
 21
67.9732
  0
LINE
  8
0
 10
8.59344
 20
67.9732
 11
8.45613
 21
67.8442
  0
LINE
  8
0
 10
8.45613
 20
67.8442
 11
8.30373
 21
67.7335
  0
LINE
  8
0
 10
8.30373
 20
67.7335
 11
8.13866
 21
67.6427
  0
LINE
  8
0
 10
8.13866
 20
67.6427
 11
7.96352
 21
67.5734
  0
LINE
  8
0
 10
7.96352
 20
67.5734
 11
7.78107
 21
67.5266
  0
LINE
  8
0
 10
7.78107
 20
67.5266
 11
7.59418
 21
67.5029
  0
LINE
  8
0
 10
7.59418
 20
67.5029
 11
7.40581
 21
67.5029
  0
LINE
  8
0
 10
-45.0942
 20
60.0029
 11
-45.2811
 21
60.0266
  0
LINE
  8
0
 10
-45.2811
 20
60.0266
 11
-45.4635
 21
60.0734
  0
LINE
  8
0
 10
-45.4635
 20
60.0734
 11
-45.6387
 21
60.1427
  0
LINE
  8
0
 10
-45.6387
 20
60.1427
 11
-45.8037
 21
60.2335
  0
LINE
  8
0
 10
-45.8037
 20
60.2335
 11
-45.9561
 21
60.3442
  0
LINE
  8
0
 10
-45.9561
 20
60.3442
 11
-46.0934
 21
60.4732
  0
LINE
  8
0
 10
-46.0934
 20
60.4732
 11
-46.2135
 21
60.6183
  0
LINE
  8
0
 10
-46.2135
 20
60.6183
 11
-46.3145
 21
60.7774
  0
LINE
  8
0
 10
-46.3145
 20
60.7774
 11
-46.3947
 21
60.9478
  0
LINE
  8
0
 10
-46.3947
 20
60.9478
 11
-46.4529
 21
61.127
  0
LINE
  8
0
 10
-46.4529
 20
61.127
 11
-46.4882
 21
61.312
  0
LINE
  8
0
 10
-46.4882
 20
61.312
 11
-46.5
 21
61.5
  0
LINE
  8
0
 10
-46.5
 20
61.5
 11
-46.4882
 21
61.688
  0
LINE
  8
0
 10
-46.4882
 20
61.688
 11
-46.4529
 21
61.873
  0
LINE
  8
0
 10
-46.4529
 20
61.873
 11
-46.3947
 21
62.0522
  0
LINE
  8
0
 10
-46.3947
 20
62.0522
 11
-46.3145
 21
62.2226
  0
LINE
  8
0
 10
-46.3145
 20
62.2226
 11
-46.2135
 21
62.3817
  0
LINE
  8
0
 10
-46.2135
 20
62.3817
 11
-46.0934
 21
62.5268
  0
LINE
  8
0
 10
-46.0934
 20
62.5268
 11
-45.9561
 21
62.6558
  0
LINE
  8
0
 10
-45.9561
 20
62.6558
 11
-45.8037
 21
62.7665
  0
LINE
  8
0
 10
-45.8037
 20
62.7665
 11
-45.6387
 21
62.8572
  0
LINE
  8
0
 10
-45.6387
 20
62.8572
 11
-45.4635
 21
62.9266
  0
LINE
  8
0
 10
-45.4635
 20
62.9266
 11
-45.2811
 21
62.9734
  0
LINE
  8
0
 10
-45.2811
 20
62.9734
 11
-45.0942
 21
62.997
  0
LINE
  8
0
 10
-45.0942
 20
62.997
 11
-44.9058
 21
62.997
  0
LINE
  8
0
 10
-44.9058
 20
62.997
 11
-44.7189
 21
62.9734
  0
LINE
  8
0
 10
-44.7189
 20
62.9734
 11
-44.5365
 21
62.9266
  0
LINE
  8
0
 10
-44.5365
 20
62.9266
 11
-44.3613
 21
62.8572
  0
LINE
  8
0
 10
-44.3613
 20
62.8572
 11
-44.1963
 21
62.7665
  0
LINE
  8
0
 10
-44.1963
 20
62.7665
 11
-44.0439
 21
62.6558
  0
LINE
  8
0
 10
-44.0439
 20
62.6558
 11
-43.9065
 21
62.5268
  0
LINE
  8
0
 10
-43.9065
 20
62.5268
 11
-43.7865
 21
62.3817
  0
LINE
  8
0
 10
-43.7865
 20
62.3817
 11
-43.6855
 21
62.2226
  0
LINE
  8
0
 10
-43.6855
 20
62.2226
 11
-43.6053
 21
62.0522
  0
LINE
  8
0
 10
-43.6053
 20
62.0522
 11
-43.5471
 21
61.873
  0
LINE
  8
0
 10
-43.5471
 20
61.873
 11
-43.5118
 21
61.688
  0
LINE
  8
0
 10
-43.5118
 20
61.688
 11
-43.5
 21
61.5
  0
LINE
  8
0
 10
-43.5
 20
61.5
 11
-43.5118
 21
61.312
  0
LINE
  8
0
 10
-43.5118
 20
61.312
 11
-43.5471
 21
61.127
  0
LINE
  8
0
 10
-43.5471
 20
61.127
 11
-43.6053
 21
60.9478
  0
LINE
  8
0
 10
-43.6053
 20
60.9478
 11
-43.6855
 21
60.7774
  0
LINE
  8
0
 10
-43.6855
 20
60.7774
 11
-43.7865
 21
60.6183
  0
LINE
  8
0
 10
-43.7865
 20
60.6183
 11
-43.9065
 21
60.4732
  0
LINE
  8
0
 10
-43.9065
 20
60.4732
 11
-44.0439
 21
60.3442
  0
LINE
  8
0
 10
-44.0439
 20
60.3442
 11
-44.1963
 21
60.2335
  0
LINE
  8
0
 10
-44.1963
 20
60.2335
 11
-44.3613
 21
60.1427
  0
LINE
  8
0
 10
-44.3613
 20
60.1427
 11
-44.5365
 21
60.0734
  0
LINE
  8
0
 10
-44.5365
 20
60.0734
 11
-44.7189
 21
60.0266
  0
LINE
  8
0
 10
-44.7189
 20
60.0266
 11
-44.9058
 21
60.0029
  0
LINE
  8
0
 10
-44.9058
 20
60.0029
 11
-45.0942
 21
60.0029
  0
LINE
  8
0
 10
44.9058
 20
60.0029
 11
44.7189
 21
60.0266
  0
LINE
  8
0
 10
44.7189
 20
60.0266
 11
44.5365
 21
60.0734
  0
LINE
  8
0
 10
44.5365
 20
60.0734
 11
44.3613
 21
60.1427
  0
LINE
  8
0
 10
44.3613
 20
60.1427
 11
44.1963
 21
60.2335
  0
LINE
  8
0
 10
44.1963
 20
60.2335
 11
44.0439
 21
60.3442
  0
LINE
  8
0
 10
44.0439
 20
60.3442
 11
43.9065
 21
60.4732
  0
LINE
  8
0
 10
43.9065
 20
60.4732
 11
43.7865
 21
60.6183
  0
LINE
  8
0
 10
43.7865
 20
60.6183
 11
43.6855
 21
60.7774
  0
LINE
  8
0
 10
43.6855
 20
60.7774
 11
43.6053
 21
60.9478
  0
LINE
  8
0
 10
43.6053
 20
60.9478
 11
43.5471
 21
61.127
  0
LINE
  8
0
 10
43.5471
 20
61.127
 11
43.5118
 21
61.312
  0
LINE
  8
0
 10
43.5118
 20
61.312
 11
43.5
 21
61.5
  0
LINE
  8
0
 10
43.5
 20
61.5
 11
43.5118
 21
61.688
  0
LINE
  8
0
 10
43.5118
 20
61.688
 11
43.5471
 21
61.873
  0
LINE
  8
0
 10
43.5471
 20
61.873
 11
43.6053
 21
62.0522
  0
LINE
  8
0
 10
43.6053
 20
62.0522
 11
43.6855
 21
62.2226
  0
LINE
  8
0
 10
43.6855
 20
62.2226
 11
43.7865
 21
62.3817
  0
LINE
  8
0
 10
43.7865
 20
62.3817
 11
43.9065
 21
62.5268
  0
LINE
  8
0
 10
43.9065
 20
62.5268
 11
44.0439
 21
62.6558
  0
LINE
  8
0
 10
44.0439
 20
62.6558
 11
44.1963
 21
62.7665
  0
LINE
  8
0
 10
44.1963
 20
62.7665
 11
44.3613
 21
62.8572
  0
LINE
  8
0
 10
44.3613
 20
62.8572
 11
44.5365
 21
62.9266
  0
LINE
  8
0
 10
44.5365
 20
62.9266
 11
44.7189
 21
62.9734
  0
LINE
  8
0
 10
44.7189
 20
62.9734
 11
44.9058
 21
62.997
  0
LINE
  8
0
 10
44.9058
 20
62.997
 11
45.0942
 21
62.997
  0
LINE
  8
0
 10
45.0942
 20
62.997
 11
45.2811
 21
62.9734
  0
LINE
  8
0
 10
45.2811
 20
62.9734
 11
45.4635
 21
62.9266
  0
LINE
  8
0
 10
45.4635
 20
62.9266
 11
45.6387
 21
62.8572
  0
LINE
  8
0
 10
45.6387
 20
62.8572
 11
45.8037
 21
62.7665
  0
LINE
  8
0
 10
45.8037
 20
62.7665
 11
45.9561
 21
62.6558
  0
LINE
  8
0
 10
45.9561
 20
62.6558
 11
46.0934
 21
62.5268
  0
LINE
  8
0
 10
46.0934
 20
62.5268
 11
46.2135
 21
62.3817
  0
LINE
  8
0
 10
46.2135
 20
62.3817
 11
46.3145
 21
62.2226
  0
LINE
  8
0
 10
46.3145
 20
62.2226
 11
46.3947
 21
62.0522
  0
LINE
  8
0
 10
46.3947
 20
62.0522
 11
46.4529
 21
61.873
  0
LINE
  8
0
 10
46.4529
 20
61.873
 11
46.4882
 21
61.688
  0
LINE
  8
0
 10
46.4882
 20
61.688
 11
46.5
 21
61.5
  0
LINE
  8
0
 10
46.5
 20
61.5
 11
46.4882
 21
61.312
  0
LINE
  8
0
 10
46.4882
 20
61.312
 11
46.4529
 21
61.127
  0
LINE
  8
0
 10
46.4529
 20
61.127
 11
46.3947
 21
60.9478
  0
LINE
  8
0
 10
46.3947
 20
60.9478
 11
46.3145
 21
60.7774
  0
LINE
  8
0
 10
46.3145
 20
60.7774
 11
46.2135
 21
60.6183
  0
LINE
  8
0
 10
46.2135
 20
60.6183
 11
46.0934
 21
60.4732
  0
LINE
  8
0
 10
46.0934
 20
60.4732
 11
45.9561
 21
60.3442
  0
LINE
  8
0
 10
45.9561
 20
60.3442
 11
45.8037
 21
60.2335
  0
LINE
  8
0
 10
45.8037
 20
60.2335
 11
45.6387
 21
60.1427
  0
LINE
  8
0
 10
45.6387
 20
60.1427
 11
45.4635
 21
60.0734
  0
LINE
  8
0
 10
45.4635
 20
60.0734
 11
45.2811
 21
60.0266
  0
LINE
  8
0
 10
45.2811
 20
60.0266
 11
45.0942
 21
60.0029
  0
LINE
  8
0
 10
45.0942
 20
60.0029
 11
44.9058
 21
60.0029
  0
LINE
  8
0
 10
-11.0023
 20
46.0158
 11
-11.999
 21
46.1417
  0
LINE
  8
0
 10
-11.999
 20
46.1417
 11
-12.9721
 21
46.3916
  0
LINE
  8
0
 10
-12.9721
 20
46.3916
 11
-13.9062
 21
46.7614
  0
LINE
  8
0
 10
-13.9062
 20
46.7614
 11
-14.7866
 21
47.2454
  0
LINE
  8
0
 10
-14.7866
 20
47.2454
 11
-15.5994
 21
47.8359
  0
LINE
  8
0
 10
-15.5994
 20
47.8359
 11
-16.3317
 21
48.5236
  0
LINE
  8
0
 10
-16.3317
 20
48.5236
 11
-16.9721
 21
49.2977
  0
LINE
  8
0
 10
-16.9721
 20
49.2977
 11
-17.5105
 21
50.146
  0
LINE
  8
0
 10
-17.5105
 20
50.146
 11
-17.9382
 21
51.055
  0
LINE
  8
0
 10
-17.9382
 20
51.055
 11
-18.2487
 21
52.0105
  0
LINE
  8
0
 10
-18.2487
 20
52.0105
 11
-18.4369
 21
52.9973
  0
LINE
  8
0
 10
-18.4369
 20
52.9973
 11
-18.5
 21
54
  0
LINE
  8
0
 10
-18.5
 20
54
 11
-18.4369
 21
55.0027
  0
LINE
  8
0
 10
-18.4369
 20
55.0027
 11
-18.2487
 21
55.9895
  0
LINE
  8
0
 10
-18.2487
 20
55.9895
 11
-17.9382
 21
56.945
  0
LINE
  8
0
 10
-17.9382
 20
56.945
 11
-17.5105
 21
57.854
  0
LINE
  8
0
 10
-17.5105
 20
57.854
 11
-16.9721
 21
58.7023
  0
LINE
  8
0
 10
-16.9721
 20
58.7023
 11
-16.3317
 21
59.4764
  0
LINE
  8
0
 10
-16.3317
 20
59.4764
 11
-15.5994
 21
60.1641
  0
LINE
  8
0
 10
-15.5994
 20
60.1641
 11
-14.7866
 21
60.7546
  0
LINE
  8
0
 10
-14.7866
 20
60.7546
 11
-13.9062
 21
61.2386
  0
LINE
  8
0
 10
-13.9062
 20
61.2386
 11
-12.9721
 21
61.6084
  0
LINE
  8
0
 10
-12.9721
 20
61.6084
 11
-11.999
 21
61.8583
  0
LINE
  8
0
 10
-11.999
 20
61.8583
 11
-11.0023
 21
61.9842
  0
LINE
  8
0
 10
-11.0023
 20
61.9842
 11
-9.99767
 21
61.9842
  0
LINE
  8
0
 10
-9.99767
 20
61.9842
 11
-9.00095
 21
61.8583
  0
LINE
  8
0
 10
-9.00095
 20
61.8583
 11
-8.02786
 21
61.6084
  0
LINE
  8
0
 10
-8.02786
 20
61.6084
 11
-7.09377
 21
61.2386
  0
LINE
  8
0
 10
-7.09377
 20
61.2386
 11
-6.21338
 21
60.7546
  0
LINE
  8
0
 10
-6.21338
 20
60.7546
 11
-5.4006
 21
60.1641
  0
LINE
  8
0
 10
-5.4006
 20
60.1641
 11
-4.66824
 21
59.4764
  0
LINE
  8
0
 10
-4.66824
 20
59.4764
 11
-4.02786
 21
58.7023
  0
LINE
  8
0
 10
-4.02786
 20
58.7023
 11
-3.48953
 21
57.854
  0
LINE
  8
0
 10
-3.48953
 20
57.854
 11
-3.06178
 21
56.945
  0
LINE
  8
0
 10
-3.06178
 20
56.945
 11
-2.75133
 21
55.9895
  0
LINE
  8
0
 10
-2.75133
 20
55.9895
 11
-2.56308
 21
55.0027
  0
LINE
  8
0
 10
-2.56308
 20
55.0027
 11
-2.5
 21
54
  0
LINE
  8
0
 10
-2.5
 20
54
 11
-2.56308
 21
52.9973
  0
LINE
  8
0
 10
-2.56308
 20
52.9973
 11
-2.75133
 21
52.0105
  0
LINE
  8
0
 10
-2.75133
 20
52.0105
 11
-3.06178
 21
51.055
  0
LINE
  8
0
 10
-3.06178
 20
51.055
 11
-3.48953
 21
50.146
  0
LINE
  8
0
 10
-3.48953
 20
50.146
 11
-4.02786
 21
49.2977
  0
LINE
  8
0
 10
-4.02786
 20
49.2977
 11
-4.66824
 21
48.5236
  0
LINE
  8
0
 10
-4.66824
 20
48.5236
 11
-5.4006
 21
47.8359
  0
LINE
  8
0
 10
-5.4006
 20
47.8359
 11
-6.21338
 21
47.2454
  0
LINE
  8
0
 10
-6.21338
 20
47.2454
 11
-7.09377
 21
46.7614
  0
LINE
  8
0
 10
-7.09377
 20
46.7614
 11
-8.02786
 21
46.3916
  0
LINE
  8
0
 10
-8.02786
 20
46.3916
 11
-9.00095
 21
46.1417
  0
LINE
  8
0
 10
-9.00095
 20
46.1417
 11
-9.99767
 21
46.0158
  0
LINE
  8
0
 10
-9.99767
 20
46.0158
 11
-11.0023
 21
46.0158
  0
LINE
  8
0
 10
30.9977
 20
46.0158
 11
30.0009
 21
46.1417
  0
LINE
  8
0
 10
30.0009
 20
46.1417
 11
29.0279
 21
46.3916
  0
LINE
  8
0
 10
29.0279
 20
46.3916
 11
28.0938
 21
46.7614
  0
LINE
  8
0
 10
28.0938
 20
46.7614
 11
27.2134
 21
47.2454
  0
LINE
  8
0
 10
27.2134
 20
47.2454
 11
26.4006
 21
47.8359
  0
LINE
  8
0
 10
26.4006
 20
47.8359
 11
25.6682
 21
48.5236
  0
LINE
  8
0
 10
25.6682
 20
48.5236
 11
25.0279
 21
49.2977
  0
LINE
  8
0
 10
25.0279
 20
49.2977
 11
24.4895
 21
50.146
  0
LINE
  8
0
 10
24.4895
 20
50.146
 11
24.0618
 21
51.055
  0
LINE
  8
0
 10
24.0618
 20
51.055
 11
23.7513
 21
52.0105
  0
LINE
  8
0
 10
23.7513
 20
52.0105
 11
23.5631
 21
52.9973
  0
LINE
  8
0
 10
23.5631
 20
52.9973
 11
23.5
 21
54
  0
LINE
  8
0
 10
23.5
 20
54
 11
23.5631
 21
55.0027
  0
LINE
  8
0
 10
23.5631
 20
55.0027
 11
23.7513
 21
55.9895
  0
LINE
  8
0
 10
23.7513
 20
55.9895
 11
24.0618
 21
56.945
  0
LINE
  8
0
 10
24.0618
 20
56.945
 11
24.4895
 21
57.854
  0
LINE
  8
0
 10
24.4895
 20
57.854
 11
25.0279
 21
58.7023
  0
LINE
  8
0
 10
25.0279
 20
58.7023
 11
25.6682
 21
59.4764
  0
LINE
  8
0
 10
25.6682
 20
59.4764
 11
26.4006
 21
60.1641
  0
LINE
  8
0
 10
26.4006
 20
60.1641
 11
27.2134
 21
60.7546
  0
LINE
  8
0
 10
27.2134
 20
60.7546
 11
28.0938
 21
61.2386
  0
LINE
  8
0
 10
28.0938
 20
61.2386
 11
29.0279
 21
61.6084
  0
LINE
  8
0
 10
29.0279
 20
61.6084
 11
30.0009
 21
61.8583
  0
LINE
  8
0
 10
30.0009
 20
61.8583
 11
30.9977
 21
61.9842
  0
LINE
  8
0
 10
30.9977
 20
61.9842
 11
32.0023
 21
61.9842
  0
LINE
  8
0
 10
32.0023
 20
61.9842
 11
32.999
 21
61.8583
  0
LINE
  8
0
 10
32.999
 20
61.8583
 11
33.9721
 21
61.6084
  0
LINE
  8
0
 10
33.9721
 20
61.6084
 11
34.9062
 21
61.2386
  0
LINE
  8
0
 10
34.9062
 20
61.2386
 11
35.7866
 21
60.7546
  0
LINE
  8
0
 10
35.7866
 20
60.7546
 11
36.5994
 21
60.1641
  0
LINE
  8
0
 10
36.5994
 20
60.1641
 11
37.3317
 21
59.4764
  0
LINE
  8
0
 10
37.3317
 20
59.4764
 11
37.9721
 21
58.7023
  0
LINE
  8
0
 10
37.9721
 20
58.7023
 11
38.5105
 21
57.854
  0
LINE
  8
0
 10
38.5105
 20
57.854
 11
38.9382
 21
56.945
  0
LINE
  8
0
 10
38.9382
 20
56.945
 11
39.2487
 21
55.9895
  0
LINE
  8
0
 10
39.2487
 20
55.9895
 11
39.4369
 21
55.0027
  0
LINE
  8
0
 10
39.4369
 20
55.0027
 11
39.5
 21
54
  0
LINE
  8
0
 10
39.5
 20
54
 11
39.4369
 21
52.9973
  0
LINE
  8
0
 10
39.4369
 20
52.9973
 11
39.2487
 21
52.0105
  0
LINE
  8
0
 10
39.2487
 20
52.0105
 11
38.9382
 21
51.055
  0
LINE
  8
0
 10
38.9382
 20
51.055
 11
38.5105
 21
50.146
  0
LINE
  8
0
 10
38.5105
 20
50.146
 11
37.9721
 21
49.2977
  0
LINE
  8
0
 10
37.9721
 20
49.2977
 11
37.3317
 21
48.5236
  0
LINE
  8
0
 10
37.3317
 20
48.5236
 11
36.5994
 21
47.8359
  0
LINE
  8
0
 10
36.5994
 20
47.8359
 11
35.7866
 21
47.2454
  0
LINE
  8
0
 10
35.7866
 20
47.2454
 11
34.9062
 21
46.7614
  0
LINE
  8
0
 10
34.9062
 20
46.7614
 11
33.9721
 21
46.3916
  0
LINE
  8
0
 10
33.9721
 20
46.3916
 11
32.999
 21
46.1417
  0
LINE
  8
0
 10
32.999
 20
46.1417
 11
32.0023
 21
46.0158
  0
LINE
  8
0
 10
32.0023
 20
46.0158
 11
30.9977
 21
46.0158
  0
LINE
  8
0
 10
9.99767
 20
46.0158
 11
9.00095
 21
46.1417
  0
LINE
  8
0
 10
9.00095
 20
46.1417
 11
8.02786
 21
46.3916
  0
LINE
  8
0
 10
8.02786
 20
46.3916
 11
7.09377
 21
46.7614
  0
LINE
  8
0
 10
7.09377
 20
46.7614
 11
6.21338
 21
47.2454
  0
LINE
  8
0
 10
6.21338
 20
47.2454
 11
5.4006
 21
47.8359
  0
LINE
  8
0
 10
5.4006
 20
47.8359
 11
4.66824
 21
48.5236
  0
LINE
  8
0
 10
4.66824
 20
48.5236
 11
4.02786
 21
49.2977
  0
LINE
  8
0
 10
4.02786
 20
49.2977
 11
3.48953
 21
50.146
  0
LINE
  8
0
 10
3.48953
 20
50.146
 11
3.06178
 21
51.055
  0
LINE
  8
0
 10
3.06178
 20
51.055
 11
2.75133
 21
52.0105
  0
LINE
  8
0
 10
2.75133
 20
52.0105
 11
2.56308
 21
52.9973
  0
LINE
  8
0
 10
2.56308
 20
52.9973
 11
2.5
 21
54
  0
LINE
  8
0
 10
2.5
 20
54
 11
2.56308
 21
55.0027
  0
LINE
  8
0
 10
2.56308
 20
55.0027
 11
2.75133
 21
55.9895
  0
LINE
  8
0
 10
2.75133
 20
55.9895
 11
3.06178
 21
56.945
  0
LINE
  8
0
 10
3.06178
 20
56.945
 11
3.48953
 21
57.854
  0
LINE
  8
0
 10
3.48953
 20
57.854
 11
4.02786
 21
58.7023
  0
LINE
  8
0
 10
4.02786
 20
58.7023
 11
4.66824
 21
59.4764
  0
LINE
  8
0
 10
4.66824
 20
59.4764
 11
5.4006
 21
60.1641
  0
LINE
  8
0
 10
5.4006
 20
60.1641
 11
6.21338
 21
60.7546
  0
LINE
  8
0
 10
6.21338
 20
60.7546
 11
7.09377
 21
61.2386
  0
LINE
  8
0
 10
7.09377
 20
61.2386
 11
8.02786
 21
61.6084
  0
LINE
  8
0
 10
8.02786
 20
61.6084
 11
9.00095
 21
61.8583
  0
LINE
  8
0
 10
9.00095
 20
61.8583
 11
9.99767
 21
61.9842
  0
LINE
  8
0
 10
9.99767
 20
61.9842
 11
11.0023
 21
61.9842
  0
LINE
  8
0
 10
11.0023
 20
61.9842
 11
11.999
 21
61.8583
  0
LINE
  8
0
 10
11.999
 20
61.8583
 11
12.9721
 21
61.6084
  0
LINE
  8
0
 10
12.9721
 20
61.6084
 11
13.9062
 21
61.2386
  0
LINE
  8
0
 10
13.9062
 20
61.2386
 11
14.7866
 21
60.7546
  0
LINE
  8
0
 10
14.7866
 20
60.7546
 11
15.5994
 21
60.1641
  0
LINE
  8
0
 10
15.5994
 20
60.1641
 11
16.3317
 21
59.4764
  0
LINE
  8
0
 10
16.3317
 20
59.4764
 11
16.9721
 21
58.7023
  0
LINE
  8
0
 10
16.9721
 20
58.7023
 11
17.5105
 21
57.854
  0
LINE
  8
0
 10
17.5105
 20
57.854
 11
17.9382
 21
56.945
  0
LINE
  8
0
 10
17.9382
 20
56.945
 11
18.2487
 21
55.9895
  0
LINE
  8
0
 10
18.2487
 20
55.9895
 11
18.4369
 21
55.0027
  0
LINE
  8
0
 10
18.4369
 20
55.0027
 11
18.5
 21
54
  0
LINE
  8
0
 10
18.5
 20
54
 11
18.4369
 21
52.9973
  0
LINE
  8
0
 10
18.4369
 20
52.9973
 11
18.2487
 21
52.0105
  0
LINE
  8
0
 10
18.2487
 20
52.0105
 11
17.9382
 21
51.055
  0
LINE
  8
0
 10
17.9382
 20
51.055
 11
17.5105
 21
50.146
  0
LINE
  8
0
 10
17.5105
 20
50.146
 11
16.9721
 21
49.2977
  0
LINE
  8
0
 10
16.9721
 20
49.2977
 11
16.3317
 21
48.5236
  0
LINE
  8
0
 10
16.3317
 20
48.5236
 11
15.5994
 21
47.8359
  0
LINE
  8
0
 10
15.5994
 20
47.8359
 11
14.7866
 21
47.2454
  0
LINE
  8
0
 10
14.7866
 20
47.2454
 11
13.9062
 21
46.7614
  0
LINE
  8
0
 10
13.9062
 20
46.7614
 11
12.9721
 21
46.3916
  0
LINE
  8
0
 10
12.9721
 20
46.3916
 11
11.999
 21
46.1417
  0
LINE
  8
0
 10
11.999
 20
46.1417
 11
11.0023
 21
46.0158
  0
LINE
  8
0
 10
11.0023
 20
46.0158
 11
9.99767
 21
46.0158
  0
LINE
  8
0
 10
-32.0023
 20
46.0158
 11
-32.999
 21
46.1417
  0
LINE
  8
0
 10
-32.999
 20
46.1417
 11
-33.9721
 21
46.3916
  0
LINE
  8
0
 10
-33.9721
 20
46.3916
 11
-34.9062
 21
46.7614
  0
LINE
  8
0
 10
-34.9062
 20
46.7614
 11
-35.7866
 21
47.2454
  0
LINE
  8
0
 10
-35.7866
 20
47.2454
 11
-36.5994
 21
47.8359
  0
LINE
  8
0
 10
-36.5994
 20
47.8359
 11
-37.3317
 21
48.5236
  0
LINE
  8
0
 10
-37.3317
 20
48.5236
 11
-37.9721
 21
49.2977
  0
LINE
  8
0
 10
-37.9721
 20
49.2977
 11
-38.5105
 21
50.146
  0
LINE
  8
0
 10
-38.5105
 20
50.146
 11
-38.9382
 21
51.055
  0
LINE
  8
0
 10
-38.9382
 20
51.055
 11
-39.2487
 21
52.0105
  0
LINE
  8
0
 10
-39.2487
 20
52.0105
 11
-39.4369
 21
52.9973
  0
LINE
  8
0
 10
-39.4369
 20
52.9973
 11
-39.5
 21
54
  0
LINE
  8
0
 10
-39.5
 20
54
 11
-39.4369
 21
55.0027
  0
LINE
  8
0
 10
-39.4369
 20
55.0027
 11
-39.2487
 21
55.9895
  0
LINE
  8
0
 10
-39.2487
 20
55.9895
 11
-38.9382
 21
56.945
  0
LINE
  8
0
 10
-38.9382
 20
56.945
 11
-38.5105
 21
57.854
  0
LINE
  8
0
 10
-38.5105
 20
57.854
 11
-37.9721
 21
58.7023
  0
LINE
  8
0
 10
-37.9721
 20
58.7023
 11
-37.3317
 21
59.4764
  0
LINE
  8
0
 10
-37.3317
 20
59.4764
 11
-36.5994
 21
60.1641
  0
LINE
  8
0
 10
-36.5994
 20
60.1641
 11
-35.7866
 21
60.7546
  0
LINE
  8
0
 10
-35.7866
 20
60.7546
 11
-34.9062
 21
61.2386
  0
LINE
  8
0
 10
-34.9062
 20
61.2386
 11
-33.9721
 21
61.6084
  0
LINE
  8
0
 10
-33.9721
 20
61.6084
 11
-32.999
 21
61.8583
  0
LINE
  8
0
 10
-32.999
 20
61.8583
 11
-32.0023
 21
61.9842
  0
LINE
  8
0
 10
-32.0023
 20
61.9842
 11
-30.9977
 21
61.9842
  0
LINE
  8
0
 10
-30.9977
 20
61.9842
 11
-30.0009
 21
61.8583
  0
LINE
  8
0
 10
-30.0009
 20
61.8583
 11
-29.0279
 21
61.6084
  0
LINE
  8
0
 10
-29.0279
 20
61.6084
 11
-28.0938
 21
61.2386
  0
LINE
  8
0
 10
-28.0938
 20
61.2386
 11
-27.2134
 21
60.7546
  0
LINE
  8
0
 10
-27.2134
 20
60.7546
 11
-26.4006
 21
60.1641
  0
LINE
  8
0
 10
-26.4006
 20
60.1641
 11
-25.6682
 21
59.4764
  0
LINE
  8
0
 10
-25.6682
 20
59.4764
 11
-25.0279
 21
58.7023
  0
LINE
  8
0
 10
-25.0279
 20
58.7023
 11
-24.4895
 21
57.854
  0
LINE
  8
0
 10
-24.4895
 20
57.854
 11
-24.0618
 21
56.945
  0
LINE
  8
0
 10
-24.0618
 20
56.945
 11
-23.7513
 21
55.9895
  0
LINE
  8
0
 10
-23.7513
 20
55.9895
 11
-23.5631
 21
55.0027
  0
LINE
  8
0
 10
-23.5631
 20
55.0027
 11
-23.5
 21
54
  0
LINE
  8
0
 10
-23.5
 20
54
 11
-23.5631
 21
52.9973
  0
LINE
  8
0
 10
-23.5631
 20
52.9973
 11
-23.7513
 21
52.0105
  0
LINE
  8
0
 10
-23.7513
 20
52.0105
 11
-24.0618
 21
51.055
  0
LINE
  8
0
 10
-24.0618
 20
51.055
 11
-24.4895
 21
50.146
  0
LINE
  8
0
 10
-24.4895
 20
50.146
 11
-25.0279
 21
49.2977
  0
LINE
  8
0
 10
-25.0279
 20
49.2977
 11
-25.6682
 21
48.5236
  0
LINE
  8
0
 10
-25.6682
 20
48.5236
 11
-26.4006
 21
47.8359
  0
LINE
  8
0
 10
-26.4006
 20
47.8359
 11
-27.2134
 21
47.2454
  0
LINE
  8
0
 10
-27.2134
 20
47.2454
 11
-28.0938
 21
46.7614
  0
LINE
  8
0
 10
-28.0938
 20
46.7614
 11
-29.0279
 21
46.3916
  0
LINE
  8
0
 10
-29.0279
 20
46.3916
 11
-30.0009
 21
46.1417
  0
LINE
  8
0
 10
-30.0009
 20
46.1417
 11
-30.9977
 21
46.0158
  0
LINE
  8
0
 10
-30.9977
 20
46.0158
 11
-32.0023
 21
46.0158
  0
LINE
  8
0
 10
44.8116
 20
51.0059
 11
44.4379
 21
51.0531
  0
LINE
  8
0
 10
44.4379
 20
51.0531
 11
44.0729
 21
51.1468
  0
LINE
  8
0
 10
44.0729
 20
51.1468
 11
43.7227
 21
51.2855
  0
LINE
  8
0
 10
43.7227
 20
51.2855
 11
43.3925
 21
51.467
  0
LINE
  8
0
 10
43.3925
 20
51.467
 11
43.0877
 21
51.6885
  0
LINE
  8
0
 10
43.0877
 20
51.6885
 11
42.8131
 21
51.9464
  0
LINE
  8
0
 10
42.8131
 20
51.9464
 11
42.5729
 21
52.2366
  0
LINE
  8
0
 10
42.5729
 20
52.2366
 11
42.3711
 21
52.5547
  0
LINE
  8
0
 10
42.3711
 20
52.5547
 11
42.2107
 21
52.8956
  0
LINE
  8
0
 10
42.2107
 20
52.8956
 11
42.0942
 21
53.2539
  0
LINE
  8
0
 10
42.0942
 20
53.2539
 11
42.0237
 21
53.624
  0
LINE
  8
0
 10
42.0237
 20
53.624
 11
42
 21
54
  0
LINE
  8
0
 10
42
 20
54
 11
42.0237
 21
54.376
  0
LINE
  8
0
 10
42.0237
 20
54.376
 11
42.0942
 21
54.7461
  0
LINE
  8
0
 10
42.0942
 20
54.7461
 11
42.2107
 21
55.1044
  0
LINE
  8
0
 10
42.2107
 20
55.1044
 11
42.3711
 21
55.4453
  0
LINE
  8
0
 10
42.3711
 20
55.4453
 11
42.5729
 21
55.7634
  0
LINE
  8
0
 10
42.5729
 20
55.7634
 11
42.8131
 21
56.0536
  0
LINE
  8
0
 10
42.8131
 20
56.0536
 11
43.0877
 21
56.3115
  0
LINE
  8
0
 10
43.0877
 20
56.3115
 11
43.3925
 21
56.533
  0
LINE
  8
0
 10
43.3925
 20
56.533
 11
43.7227
 21
56.7145
  0
LINE
  8
0
 10
43.7227
 20
56.7145
 11
44.0729
 21
56.8532
  0
LINE
  8
0
 10
44.0729
 20
56.8532
 11
44.4379
 21
56.9469
  0
LINE
  8
0
 10
44.4379
 20
56.9469
 11
44.8116
 21
56.9941
  0
LINE
  8
0
 10
44.8116
 20
56.9941
 11
45.1884
 21
56.9941
  0
LINE
  8
0
 10
45.1884
 20
56.9941
 11
45.5621
 21
56.9469
  0
LINE
  8
0
 10
45.5621
 20
56.9469
 11
45.927
 21
56.8532
  0
LINE
  8
0
 10
45.927
 20
56.8532
 11
46.2773
 21
56.7145
  0
LINE
  8
0
 10
46.2773
 20
56.7145
 11
46.6075
 21
56.533
  0
LINE
  8
0
 10
46.6075
 20
56.533
 11
46.9123
 21
56.3115
  0
LINE
  8
0
 10
46.9123
 20
56.3115
 11
47.1869
 21
56.0536
  0
LINE
  8
0
 10
47.1869
 20
56.0536
 11
47.427
 21
55.7634
  0
LINE
  8
0
 10
47.427
 20
55.7634
 11
47.6289
 21
55.4453
  0
LINE
  8
0
 10
47.6289
 20
55.4453
 11
47.7893
 21
55.1044
  0
LINE
  8
0
 10
47.7893
 20
55.1044
 11
47.9057
 21
54.7461
  0
LINE
  8
0
 10
47.9057
 20
54.7461
 11
47.9763
 21
54.376
  0
LINE
  8
0
 10
47.9763
 20
54.376
 11
48
 21
54
  0
LINE
  8
0
 10
48
 20
54
 11
47.9763
 21
53.624
  0
LINE
  8
0
 10
47.9763
 20
53.624
 11
47.9057
 21
53.2539
  0
LINE
  8
0
 10
47.9057
 20
53.2539
 11
47.7893
 21
52.8956
  0
LINE
  8
0
 10
47.7893
 20
52.8956
 11
47.6289
 21
52.5547
  0
LINE
  8
0
 10
47.6289
 20
52.5547
 11
47.427
 21
52.2366
  0
LINE
  8
0
 10
47.427
 20
52.2366
 11
47.1869
 21
51.9464
  0
LINE
  8
0
 10
47.1869
 20
51.9464
 11
46.9123
 21
51.6885
  0
LINE
  8
0
 10
46.9123
 20
51.6885
 11
46.6075
 21
51.467
  0
LINE
  8
0
 10
46.6075
 20
51.467
 11
46.2773
 21
51.2855
  0
LINE
  8
0
 10
46.2773
 20
51.2855
 11
45.927
 21
51.1468
  0
LINE
  8
0
 10
45.927
 20
51.1468
 11
45.5621
 21
51.0531
  0
LINE
  8
0
 10
45.5621
 20
51.0531
 11
45.1884
 21
51.0059
  0
LINE
  8
0
 10
45.1884
 20
51.0059
 11
44.8116
 21
51.0059
  0
LINE
  8
0
 10
-45.1884
 20
51.0059
 11
-45.5621
 21
51.0531
  0
LINE
  8
0
 10
-45.5621
 20
51.0531
 11
-45.927
 21
51.1468
  0
LINE
  8
0
 10
-45.927
 20
51.1468
 11
-46.2773
 21
51.2855
  0
LINE
  8
0
 10
-46.2773
 20
51.2855
 11
-46.6075
 21
51.467
  0
LINE
  8
0
 10
-46.6075
 20
51.467
 11
-46.9123
 21
51.6885
  0
LINE
  8
0
 10
-46.9123
 20
51.6885
 11
-47.1869
 21
51.9464
  0
LINE
  8
0
 10
-47.1869
 20
51.9464
 11
-47.427
 21
52.2366
  0
LINE
  8
0
 10
-47.427
 20
52.2366
 11
-47.6289
 21
52.5547
  0
LINE
  8
0
 10
-47.6289
 20
52.5547
 11
-47.7893
 21
52.8956
  0
LINE
  8
0
 10
-47.7893
 20
52.8956
 11
-47.9057
 21
53.2539
  0
LINE
  8
0
 10
-47.9057
 20
53.2539
 11
-47.9763
 21
53.624
  0
LINE
  8
0
 10
-47.9763
 20
53.624
 11
-48
 21
54
  0
LINE
  8
0
 10
-48
 20
54
 11
-47.9763
 21
54.376
  0
LINE
  8
0
 10
-47.9763
 20
54.376
 11
-47.9057
 21
54.7461
  0
LINE
  8
0
 10
-47.9057
 20
54.7461
 11
-47.7893
 21
55.1044
  0
LINE
  8
0
 10
-47.7893
 20
55.1044
 11
-47.6289
 21
55.4453
  0
LINE
  8
0
 10
-47.6289
 20
55.4453
 11
-47.427
 21
55.7634
  0
LINE
  8
0
 10
-47.427
 20
55.7634
 11
-47.1869
 21
56.0536
  0
LINE
  8
0
 10
-47.1869
 20
56.0536
 11
-46.9123
 21
56.3115
  0
LINE
  8
0
 10
-46.9123
 20
56.3115
 11
-46.6075
 21
56.533
  0
LINE
  8
0
 10
-46.6075
 20
56.533
 11
-46.2773
 21
56.7145
  0
LINE
  8
0
 10
-46.2773
 20
56.7145
 11
-45.927
 21
56.8532
  0
LINE
  8
0
 10
-45.927
 20
56.8532
 11
-45.5621
 21
56.9469
  0
LINE
  8
0
 10
-45.5621
 20
56.9469
 11
-45.1884
 21
56.9941
  0
LINE
  8
0
 10
-45.1884
 20
56.9941
 11
-44.8116
 21
56.9941
  0
LINE
  8
0
 10
-44.8116
 20
56.9941
 11
-44.4379
 21
56.9469
  0
LINE
  8
0
 10
-44.4379
 20
56.9469
 11
-44.0729
 21
56.8532
  0
LINE
  8
0
 10
-44.0729
 20
56.8532
 11
-43.7227
 21
56.7145
  0
LINE
  8
0
 10
-43.7227
 20
56.7145
 11
-43.3925
 21
56.533
  0
LINE
  8
0
 10
-43.3925
 20
56.533
 11
-43.0877
 21
56.3115
  0
LINE
  8
0
 10
-43.0877
 20
56.3115
 11
-42.8131
 21
56.0536
  0
LINE
  8
0
 10
-42.8131
 20
56.0536
 11
-42.5729
 21
55.7634
  0
LINE
  8
0
 10
-42.5729
 20
55.7634
 11
-42.3711
 21
55.4453
  0
LINE
  8
0
 10
-42.3711
 20
55.4453
 11
-42.2107
 21
55.1044
  0
LINE
  8
0
 10
-42.2107
 20
55.1044
 11
-42.0942
 21
54.7461
  0
LINE
  8
0
 10
-42.0942
 20
54.7461
 11
-42.0237
 21
54.376
  0
LINE
  8
0
 10
-42.0237
 20
54.376
 11
-42
 21
54
  0
LINE
  8
0
 10
-42
 20
54
 11
-42.0237
 21
53.624
  0
LINE
  8
0
 10
-42.0237
 20
53.624
 11
-42.0942
 21
53.2539
  0
LINE
  8
0
 10
-42.0942
 20
53.2539
 11
-42.2107
 21
52.8956
  0
LINE
  8
0
 10
-42.2107
 20
52.8956
 11
-42.3711
 21
52.5547
  0
LINE
  8
0
 10
-42.3711
 20
52.5547
 11
-42.5729
 21
52.2366
  0
LINE
  8
0
 10
-42.5729
 20
52.2366
 11
-42.8131
 21
51.9464
  0
LINE
  8
0
 10
-42.8131
 20
51.9464
 11
-43.0877
 21
51.6885
  0
LINE
  8
0
 10
-43.0877
 20
51.6885
 11
-43.3925
 21
51.467
  0
LINE
  8
0
 10
-43.3925
 20
51.467
 11
-43.7227
 21
51.2855
  0
LINE
  8
0
 10
-43.7227
 20
51.2855
 11
-44.0729
 21
51.1468
  0
LINE
  8
0
 10
-44.0729
 20
51.1468
 11
-44.4379
 21
51.0531
  0
LINE
  8
0
 10
-44.4379
 20
51.0531
 11
-44.8116
 21
51.0059
  0
LINE
  8
0
 10
-44.8116
 20
51.0059
 11
-45.1884
 21
51.0059
  0
LINE
  8
0
 10
-45.0942
 20
45.003
 11
-45.2811
 21
45.0266
  0
LINE
  8
0
 10
-45.2811
 20
45.0266
 11
-45.4635
 21
45.0734
  0
LINE
  8
0
 10
-45.4635
 20
45.0734
 11
-45.6387
 21
45.1428
  0
LINE
  8
0
 10
-45.6387
 20
45.1428
 11
-45.8037
 21
45.2335
  0
LINE
  8
0
 10
-45.8037
 20
45.2335
 11
-45.9561
 21
45.3442
  0
LINE
  8
0
 10
-45.9561
 20
45.3442
 11
-46.0934
 21
45.4732
  0
LINE
  8
0
 10
-46.0934
 20
45.4732
 11
-46.2135
 21
45.6183
  0
LINE
  8
0
 10
-46.2135
 20
45.6183
 11
-46.3145
 21
45.7774
  0
LINE
  8
0
 10
-46.3145
 20
45.7774
 11
-46.3947
 21
45.9478
  0
LINE
  8
0
 10
-46.3947
 20
45.9478
 11
-46.4529
 21
46.127
  0
LINE
  8
0
 10
-46.4529
 20
46.127
 11
-46.4882
 21
46.312
  0
LINE
  8
0
 10
-46.4882
 20
46.312
 11
-46.5
 21
46.5
  0
LINE
  8
0
 10
-46.5
 20
46.5
 11
-46.4882
 21
46.688
  0
LINE
  8
0
 10
-46.4882
 20
46.688
 11
-46.4529
 21
46.873
  0
LINE
  8
0
 10
-46.4529
 20
46.873
 11
-46.3947
 21
47.0522
  0
LINE
  8
0
 10
-46.3947
 20
47.0522
 11
-46.3145
 21
47.2226
  0
LINE
  8
0
 10
-46.3145
 20
47.2226
 11
-46.2135
 21
47.3817
  0
LINE
  8
0
 10
-46.2135
 20
47.3817
 11
-46.0934
 21
47.5268
  0
LINE
  8
0
 10
-46.0934
 20
47.5268
 11
-45.9561
 21
47.6558
  0
LINE
  8
0
 10
-45.9561
 20
47.6558
 11
-45.8037
 21
47.7665
  0
LINE
  8
0
 10
-45.8037
 20
47.7665
 11
-45.6387
 21
47.8573
  0
LINE
  8
0
 10
-45.6387
 20
47.8573
 11
-45.4635
 21
47.9266
  0
LINE
  8
0
 10
-45.4635
 20
47.9266
 11
-45.2811
 21
47.9734
  0
LINE
  8
0
 10
-45.2811
 20
47.9734
 11
-45.0942
 21
47.9971
  0
LINE
  8
0
 10
-45.0942
 20
47.9971
 11
-44.9058
 21
47.9971
  0
LINE
  8
0
 10
-44.9058
 20
47.9971
 11
-44.7189
 21
47.9734
  0
LINE
  8
0
 10
-44.7189
 20
47.9734
 11
-44.5365
 21
47.9266
  0
LINE
  8
0
 10
-44.5365
 20
47.9266
 11
-44.3613
 21
47.8573
  0
LINE
  8
0
 10
-44.3613
 20
47.8573
 11
-44.1963
 21
47.7665
  0
LINE
  8
0
 10
-44.1963
 20
47.7665
 11
-44.0439
 21
47.6558
  0
LINE
  8
0
 10
-44.0439
 20
47.6558
 11
-43.9065
 21
47.5268
  0
LINE
  8
0
 10
-43.9065
 20
47.5268
 11
-43.7865
 21
47.3817
  0
LINE
  8
0
 10
-43.7865
 20
47.3817
 11
-43.6855
 21
47.2226
  0
LINE
  8
0
 10
-43.6855
 20
47.2226
 11
-43.6053
 21
47.0522
  0
LINE
  8
0
 10
-43.6053
 20
47.0522
 11
-43.5471
 21
46.873
  0
LINE
  8
0
 10
-43.5471
 20
46.873
 11
-43.5118
 21
46.688
  0
LINE
  8
0
 10
-43.5118
 20
46.688
 11
-43.5
 21
46.5
  0
LINE
  8
0
 10
-43.5
 20
46.5
 11
-43.5118
 21
46.312
  0
LINE
  8
0
 10
-43.5118
 20
46.312
 11
-43.5471
 21
46.127
  0
LINE
  8
0
 10
-43.5471
 20
46.127
 11
-43.6053
 21
45.9478
  0
LINE
  8
0
 10
-43.6053
 20
45.9478
 11
-43.6855
 21
45.7774
  0
LINE
  8
0
 10
-43.6855
 20
45.7774
 11
-43.7865
 21
45.6183
  0
LINE
  8
0
 10
-43.7865
 20
45.6183
 11
-43.9065
 21
45.4732
  0
LINE
  8
0
 10
-43.9065
 20
45.4732
 11
-44.0439
 21
45.3442
  0
LINE
  8
0
 10
-44.0439
 20
45.3442
 11
-44.1963
 21
45.2335
  0
LINE
  8
0
 10
-44.1963
 20
45.2335
 11
-44.3613
 21
45.1428
  0
LINE
  8
0
 10
-44.3613
 20
45.1428
 11
-44.5365
 21
45.0734
  0
LINE
  8
0
 10
-44.5365
 20
45.0734
 11
-44.7189
 21
45.0266
  0
LINE
  8
0
 10
-44.7189
 20
45.0266
 11
-44.9058
 21
45.003
  0
LINE
  8
0
 10
-44.9058
 20
45.003
 11
-45.0942
 21
45.003
  0
LINE
  8
0
 10
44.9058
 20
45.003
 11
44.7189
 21
45.0266
  0
LINE
  8
0
 10
44.7189
 20
45.0266
 11
44.5365
 21
45.0734
  0
LINE
  8
0
 10
44.5365
 20
45.0734
 11
44.3613
 21
45.1428
  0
LINE
  8
0
 10
44.3613
 20
45.1428
 11
44.1963
 21
45.2335
  0
LINE
  8
0
 10
44.1963
 20
45.2335
 11
44.0439
 21
45.3442
  0
LINE
  8
0
 10
44.0439
 20
45.3442
 11
43.9065
 21
45.4732
  0
LINE
  8
0
 10
43.9065
 20
45.4732
 11
43.7865
 21
45.6183
  0
LINE
  8
0
 10
43.7865
 20
45.6183
 11
43.6855
 21
45.7774
  0
LINE
  8
0
 10
43.6855
 20
45.7774
 11
43.6053
 21
45.9478
  0
LINE
  8
0
 10
43.6053
 20
45.9478
 11
43.5471
 21
46.127
  0
LINE
  8
0
 10
43.5471
 20
46.127
 11
43.5118
 21
46.312
  0
LINE
  8
0
 10
43.5118
 20
46.312
 11
43.5
 21
46.5
  0
LINE
  8
0
 10
43.5
 20
46.5
 11
43.5118
 21
46.688
  0
LINE
  8
0
 10
43.5118
 20
46.688
 11
43.5471
 21
46.873
  0
LINE
  8
0
 10
43.5471
 20
46.873
 11
43.6053
 21
47.0522
  0
LINE
  8
0
 10
43.6053
 20
47.0522
 11
43.6855
 21
47.2226
  0
LINE
  8
0
 10
43.6855
 20
47.2226
 11
43.7865
 21
47.3817
  0
LINE
  8
0
 10
43.7865
 20
47.3817
 11
43.9065
 21
47.5268
  0
LINE
  8
0
 10
43.9065
 20
47.5268
 11
44.0439
 21
47.6558
  0
LINE
  8
0
 10
44.0439
 20
47.6558
 11
44.1963
 21
47.7665
  0
LINE
  8
0
 10
44.1963
 20
47.7665
 11
44.3613
 21
47.8573
  0
LINE
  8
0
 10
44.3613
 20
47.8573
 11
44.5365
 21
47.9266
  0
LINE
  8
0
 10
44.5365
 20
47.9266
 11
44.7189
 21
47.9734
  0
LINE
  8
0
 10
44.7189
 20
47.9734
 11
44.9058
 21
47.9971
  0
LINE
  8
0
 10
44.9058
 20
47.9971
 11
45.0942
 21
47.9971
  0
LINE
  8
0
 10
45.0942
 20
47.9971
 11
45.2811
 21
47.9734
  0
LINE
  8
0
 10
45.2811
 20
47.9734
 11
45.4635
 21
47.9266
  0
LINE
  8
0
 10
45.4635
 20
47.9266
 11
45.6387
 21
47.8573
  0
LINE
  8
0
 10
45.6387
 20
47.8573
 11
45.8037
 21
47.7665
  0
LINE
  8
0
 10
45.8037
 20
47.7665
 11
45.9561
 21
47.6558
  0
LINE
  8
0
 10
45.9561
 20
47.6558
 11
46.0934
 21
47.5268
  0
LINE
  8
0
 10
46.0934
 20
47.5268
 11
46.2135
 21
47.3817
  0
LINE
  8
0
 10
46.2135
 20
47.3817
 11
46.3145
 21
47.2226
  0
LINE
  8
0
 10
46.3145
 20
47.2226
 11
46.3947
 21
47.0522
  0
LINE
  8
0
 10
46.3947
 20
47.0522
 11
46.4529
 21
46.873
  0
LINE
  8
0
 10
46.4529
 20
46.873
 11
46.4882
 21
46.688
  0
LINE
  8
0
 10
46.4882
 20
46.688
 11
46.5
 21
46.5
  0
LINE
  8
0
 10
46.5
 20
46.5
 11
46.4882
 21
46.312
  0
LINE
  8
0
 10
46.4882
 20
46.312
 11
46.4529
 21
46.127
  0
LINE
  8
0
 10
46.4529
 20
46.127
 11
46.3947
 21
45.9478
  0
LINE
  8
0
 10
46.3947
 20
45.9478
 11
46.3145
 21
45.7774
  0
LINE
  8
0
 10
46.3145
 20
45.7774
 11
46.2135
 21
45.6183
  0
LINE
  8
0
 10
46.2135
 20
45.6183
 11
46.0934
 21
45.4732
  0
LINE
  8
0
 10
46.0934
 20
45.4732
 11
45.9561
 21
45.3442
  0
LINE
  8
0
 10
45.9561
 20
45.3442
 11
45.8037
 21
45.2335
  0
LINE
  8
0
 10
45.8037
 20
45.2335
 11
45.6387
 21
45.1428
  0
LINE
  8
0
 10
45.6387
 20
45.1428
 11
45.4635
 21
45.0734
  0
LINE
  8
0
 10
45.4635
 20
45.0734
 11
45.2811
 21
45.0266
  0
LINE
  8
0
 10
45.2811
 20
45.0266
 11
45.0942
 21
45.003
  0
LINE
  8
0
 10
45.0942
 20
45.003
 11
44.9058
 21
45.003
  0
LINE
  8
0
 10
-45.1884
 20
36.0059
 11
-45.5621
 21
36.0531
  0
LINE
  8
0
 10
-45.5621
 20
36.0531
 11
-45.927
 21
36.1468
  0
LINE
  8
0
 10
-45.927
 20
36.1468
 11
-46.2773
 21
36.2855
  0
LINE
  8
0
 10
-46.2773
 20
36.2855
 11
-46.6075
 21
36.467
  0
LINE
  8
0
 10
-46.6075
 20
36.467
 11
-46.9123
 21
36.6885
  0
LINE
  8
0
 10
-46.9123
 20
36.6885
 11
-47.1869
 21
36.9464
  0
LINE
  8
0
 10
-47.1869
 20
36.9464
 11
-47.427
 21
37.2366
  0
LINE
  8
0
 10
-47.427
 20
37.2366
 11
-47.6289
 21
37.5547
  0
LINE
  8
0
 10
-47.6289
 20
37.5547
 11
-47.7893
 21
37.8956
  0
LINE
  8
0
 10
-47.7893
 20
37.8956
 11
-47.9057
 21
38.2539
  0
LINE
  8
0
 10
-47.9057
 20
38.2539
 11
-47.9763
 21
38.624
  0
LINE
  8
0
 10
-47.9763
 20
38.624
 11
-48
 21
39
  0
LINE
  8
0
 10
-48
 20
39
 11
-47.9763
 21
39.376
  0
LINE
  8
0
 10
-47.9763
 20
39.376
 11
-47.9057
 21
39.7461
  0
LINE
  8
0
 10
-47.9057
 20
39.7461
 11
-47.7893
 21
40.1044
  0
LINE
  8
0
 10
-47.7893
 20
40.1044
 11
-47.6289
 21
40.4453
  0
LINE
  8
0
 10
-47.6289
 20
40.4453
 11
-47.427
 21
40.7634
  0
LINE
  8
0
 10
-47.427
 20
40.7634
 11
-47.1869
 21
41.0536
  0
LINE
  8
0
 10
-47.1869
 20
41.0536
 11
-46.9123
 21
41.3116
  0
LINE
  8
0
 10
-46.9123
 20
41.3116
 11
-46.6075
 21
41.533
  0
LINE
  8
0
 10
-46.6075
 20
41.533
 11
-46.2773
 21
41.7145
  0
LINE
  8
0
 10
-46.2773
 20
41.7145
 11
-45.927
 21
41.8532
  0
LINE
  8
0
 10
-45.927
 20
41.8532
 11
-45.5621
 21
41.9469
  0
LINE
  8
0
 10
-45.5621
 20
41.9469
 11
-45.1884
 21
41.9941
  0
LINE
  8
0
 10
-45.1884
 20
41.9941
 11
-44.8116
 21
41.9941
  0
LINE
  8
0
 10
-44.8116
 20
41.9941
 11
-44.4379
 21
41.9469
  0
LINE
  8
0
 10
-44.4379
 20
41.9469
 11
-44.0729
 21
41.8532
  0
LINE
  8
0
 10
-44.0729
 20
41.8532
 11
-43.7227
 21
41.7145
  0
LINE
  8
0
 10
-43.7227
 20
41.7145
 11
-43.3925
 21
41.533
  0
LINE
  8
0
 10
-43.3925
 20
41.533
 11
-43.0877
 21
41.3116
  0
LINE
  8
0
 10
-43.0877
 20
41.3116
 11
-42.8131
 21
41.0536
  0
LINE
  8
0
 10
-42.8131
 20
41.0536
 11
-42.5729
 21
40.7634
  0
LINE
  8
0
 10
-42.5729
 20
40.7634
 11
-42.3711
 21
40.4453
  0
LINE
  8
0
 10
-42.3711
 20
40.4453
 11
-42.2107
 21
40.1044
  0
LINE
  8
0
 10
-42.2107
 20
40.1044
 11
-42.0942
 21
39.7461
  0
LINE
  8
0
 10
-42.0942
 20
39.7461
 11
-42.0237
 21
39.376
  0
LINE
  8
0
 10
-42.0237
 20
39.376
 11
-42
 21
39
  0
LINE
  8
0
 10
-42
 20
39
 11
-42.0237
 21
38.624
  0
LINE
  8
0
 10
-42.0237
 20
38.624
 11
-42.0942
 21
38.2539
  0
LINE
  8
0
 10
-42.0942
 20
38.2539
 11
-42.2107
 21
37.8956
  0
LINE
  8
0
 10
-42.2107
 20
37.8956
 11
-42.3711
 21
37.5547
  0
LINE
  8
0
 10
-42.3711
 20
37.5547
 11
-42.5729
 21
37.2366
  0
LINE
  8
0
 10
-42.5729
 20
37.2366
 11
-42.8131
 21
36.9464
  0
LINE
  8
0
 10
-42.8131
 20
36.9464
 11
-43.0877
 21
36.6885
  0
LINE
  8
0
 10
-43.0877
 20
36.6885
 11
-43.3925
 21
36.467
  0
LINE
  8
0
 10
-43.3925
 20
36.467
 11
-43.7227
 21
36.2855
  0
LINE
  8
0
 10
-43.7227
 20
36.2855
 11
-44.0729
 21
36.1468
  0
LINE
  8
0
 10
-44.0729
 20
36.1468
 11
-44.4379
 21
36.0531
  0
LINE
  8
0
 10
-44.4379
 20
36.0531
 11
-44.8116
 21
36.0059
  0
LINE
  8
0
 10
-44.8116
 20
36.0059
 11
-45.1884
 21
36.0059
  0
LINE
  8
0
 10
14.8116
 20
36.0059
 11
14.4379
 21
36.0531
  0
LINE
  8
0
 10
14.4379
 20
36.0531
 11
14.0729
 21
36.1468
  0
LINE
  8
0
 10
14.0729
 20
36.1468
 11
13.7227
 21
36.2855
  0
LINE
  8
0
 10
13.7227
 20
36.2855
 11
13.3925
 21
36.467
  0
LINE
  8
0
 10
13.3925
 20
36.467
 11
13.0877
 21
36.6885
  0
LINE
  8
0
 10
13.0877
 20
36.6885
 11
12.8131
 21
36.9464
  0
LINE
  8
0
 10
12.8131
 20
36.9464
 11
12.5729
 21
37.2366
  0
LINE
  8
0
 10
12.5729
 20
37.2366
 11
12.3711
 21
37.5547
  0
LINE
  8
0
 10
12.3711
 20
37.5547
 11
12.2107
 21
37.8956
  0
LINE
  8
0
 10
12.2107
 20
37.8956
 11
12.0942
 21
38.2539
  0
LINE
  8
0
 10
12.0942
 20
38.2539
 11
12.0237
 21
38.624
  0
LINE
  8
0
 10
12.0237
 20
38.624
 11
12
 21
39
  0
LINE
  8
0
 10
12
 20
39
 11
12.0237
 21
39.376
  0
LINE
  8
0
 10
12.0237
 20
39.376
 11
12.0942
 21
39.7461
  0
LINE
  8
0
 10
12.0942
 20
39.7461
 11
12.2107
 21
40.1044
  0
LINE
  8
0
 10
12.2107
 20
40.1044
 11
12.3711
 21
40.4453
  0
LINE
  8
0
 10
12.3711
 20
40.4453
 11
12.5729
 21
40.7634
  0
LINE
  8
0
 10
12.5729
 20
40.7634
 11
12.8131
 21
41.0536
  0
LINE
  8
0
 10
12.8131
 20
41.0536
 11
13.0877
 21
41.3116
  0
LINE
  8
0
 10
13.0877
 20
41.3116
 11
13.3925
 21
41.533
  0
LINE
  8
0
 10
13.3925
 20
41.533
 11
13.7227
 21
41.7145
  0
LINE
  8
0
 10
13.7227
 20
41.7145
 11
14.0729
 21
41.8532
  0
LINE
  8
0
 10
14.0729
 20
41.8532
 11
14.4379
 21
41.9469
  0
LINE
  8
0
 10
14.4379
 20
41.9469
 11
14.8116
 21
41.9941
  0
LINE
  8
0
 10
14.8116
 20
41.9941
 11
15.1884
 21
41.9941
  0
LINE
  8
0
 10
15.1884
 20
41.9941
 11
15.5621
 21
41.9469
  0
LINE
  8
0
 10
15.5621
 20
41.9469
 11
15.927
 21
41.8532
  0
LINE
  8
0
 10
15.927
 20
41.8532
 11
16.2773
 21
41.7145
  0
LINE
  8
0
 10
16.2773
 20
41.7145
 11
16.6075
 21
41.533
  0
LINE
  8
0
 10
16.6075
 20
41.533
 11
16.9123
 21
41.3116
  0
LINE
  8
0
 10
16.9123
 20
41.3116
 11
17.1869
 21
41.0536
  0
LINE
  8
0
 10
17.1869
 20
41.0536
 11
17.427
 21
40.7634
  0
LINE
  8
0
 10
17.427
 20
40.7634
 11
17.6289
 21
40.4453
  0
LINE
  8
0
 10
17.6289
 20
40.4453
 11
17.7893
 21
40.1044
  0
LINE
  8
0
 10
17.7893
 20
40.1044
 11
17.9057
 21
39.7461
  0
LINE
  8
0
 10
17.9057
 20
39.7461
 11
17.9763
 21
39.376
  0
LINE
  8
0
 10
17.9763
 20
39.376
 11
18
 21
39
  0
LINE
  8
0
 10
18
 20
39
 11
17.9763
 21
38.624
  0
LINE
  8
0
 10
17.9763
 20
38.624
 11
17.9057
 21
38.2539
  0
LINE
  8
0
 10
17.9057
 20
38.2539
 11
17.7893
 21
37.8956
  0
LINE
  8
0
 10
17.7893
 20
37.8956
 11
17.6289
 21
37.5547
  0
LINE
  8
0
 10
17.6289
 20
37.5547
 11
17.427
 21
37.2366
  0
LINE
  8
0
 10
17.427
 20
37.2366
 11
17.1869
 21
36.9464
  0
LINE
  8
0
 10
17.1869
 20
36.9464
 11
16.9123
 21
36.6885
  0
LINE
  8
0
 10
16.9123
 20
36.6885
 11
16.6075
 21
36.467
  0
LINE
  8
0
 10
16.6075
 20
36.467
 11
16.2773
 21
36.2855
  0
LINE
  8
0
 10
16.2773
 20
36.2855
 11
15.927
 21
36.1468
  0
LINE
  8
0
 10
15.927
 20
36.1468
 11
15.5621
 21
36.0531
  0
LINE
  8
0
 10
15.5621
 20
36.0531
 11
15.1884
 21
36.0059
  0
LINE
  8
0
 10
15.1884
 20
36.0059
 11
14.8116
 21
36.0059
  0
LINE
  8
0
 10
-0.18837
 20
36.0059
 11
-0.562134
 21
36.0531
  0
LINE
  8
0
 10
-0.562134
 20
36.0531
 11
-0.927048
 21
36.1468
  0
LINE
  8
0
 10
-0.927048
 20
36.1468
 11
-1.27733
 21
36.2855
  0
LINE
  8
0
 10
-1.27733
 20
36.2855
 11
-1.60747
 21
36.467
  0
LINE
  8
0
 10
-1.60747
 20
36.467
 11
-1.91226
 21
36.6885
  0
LINE
  8
0
 10
-1.91226
 20
36.6885
 11
-2.1869
 21
36.9464
  0
LINE
  8
0
 10
-2.1869
 20
36.9464
 11
-2.42705
 21
37.2366
  0
LINE
  8
0
 10
-2.42705
 20
37.2366
 11
-2.62891
 21
37.5547
  0
LINE
  8
0
 10
-2.62891
 20
37.5547
 11
-2.78932
 21
37.8956
  0
LINE
  8
0
 10
-2.78932
 20
37.8956
 11
-2.90575
 21
38.2539
  0
LINE
  8
0
 10
-2.90575
 20
38.2539
 11
-2.97633
 21
38.624
  0
LINE
  8
0
 10
-2.97633
 20
38.624
 11
-3
 21
39
  0
LINE
  8
0
 10
-3
 20
39
 11
-2.97633
 21
39.376
  0
LINE
  8
0
 10
-2.97633
 20
39.376
 11
-2.90575
 21
39.7461
  0
LINE
  8
0
 10
-2.90575
 20
39.7461
 11
-2.78932
 21
40.1044
  0
LINE
  8
0
 10
-2.78932
 20
40.1044
 11
-2.62891
 21
40.4453
  0
LINE
  8
0
 10
-2.62891
 20
40.4453
 11
-2.42705
 21
40.7634
  0
LINE
  8
0
 10
-2.42705
 20
40.7634
 11
-2.1869
 21
41.0536
  0
LINE
  8
0
 10
-2.1869
 20
41.0536
 11
-1.91226
 21
41.3116
  0
LINE
  8
0
 10
-1.91226
 20
41.3116
 11
-1.60747
 21
41.533
  0
LINE
  8
0
 10
-1.60747
 20
41.533
 11
-1.27733
 21
41.7145
  0
LINE
  8
0
 10
-1.27733
 20
41.7145
 11
-0.927048
 21
41.8532
  0
LINE
  8
0
 10
-0.927048
 20
41.8532
 11
-0.562134
 21
41.9469
  0
LINE
  8
0
 10
-0.562134
 20
41.9469
 11
-0.18837
 21
41.9941
  0
LINE
  8
0
 10
-0.18837
 20
41.9941
 11
0.18837
 21
41.9941
  0
LINE
  8
0
 10
0.18837
 20
41.9941
 11
0.562134
 21
41.9469
  0
LINE
  8
0
 10
0.562134
 20
41.9469
 11
0.927048
 21
41.8532
  0
LINE
  8
0
 10
0.927048
 20
41.8532
 11
1.27733
 21
41.7145
  0
LINE
  8
0
 10
1.27733
 20
41.7145
 11
1.60747
 21
41.533
  0
LINE
  8
0
 10
1.60747
 20
41.533
 11
1.91226
 21
41.3116
  0
LINE
  8
0
 10
1.91226
 20
41.3116
 11
2.1869
 21
41.0536
  0
LINE
  8
0
 10
2.1869
 20
41.0536
 11
2.42705
 21
40.7634
  0
LINE
  8
0
 10
2.42705
 20
40.7634
 11
2.62891
 21
40.4453
  0
LINE
  8
0
 10
2.62891
 20
40.4453
 11
2.78932
 21
40.1044
  0
LINE
  8
0
 10
2.78932
 20
40.1044
 11
2.90575
 21
39.7461
  0
LINE
  8
0
 10
2.90575
 20
39.7461
 11
2.97633
 21
39.376
  0
LINE
  8
0
 10
2.97633
 20
39.376
 11
3
 21
39
  0
LINE
  8
0
 10
3
 20
39
 11
2.97633
 21
38.624
  0
LINE
  8
0
 10
2.97633
 20
38.624
 11
2.90575
 21
38.2539
  0
LINE
  8
0
 10
2.90575
 20
38.2539
 11
2.78932
 21
37.8956
  0
LINE
  8
0
 10
2.78932
 20
37.8956
 11
2.62891
 21
37.5547
  0
LINE
  8
0
 10
2.62891
 20
37.5547
 11
2.42705
 21
37.2366
  0
LINE
  8
0
 10
2.42705
 20
37.2366
 11
2.1869
 21
36.9464
  0
LINE
  8
0
 10
2.1869
 20
36.9464
 11
1.91226
 21
36.6885
  0
LINE
  8
0
 10
1.91226
 20
36.6885
 11
1.60747
 21
36.467
  0
LINE
  8
0
 10
1.60747
 20
36.467
 11
1.27733
 21
36.2855
  0
LINE
  8
0
 10
1.27733
 20
36.2855
 11
0.927048
 21
36.1468
  0
LINE
  8
0
 10
0.927048
 20
36.1468
 11
0.562134
 21
36.0531
  0
LINE
  8
0
 10
0.562134
 20
36.0531
 11
0.18837
 21
36.0059
  0
LINE
  8
0
 10
0.18837
 20
36.0059
 11
-0.18837
 21
36.0059
  0
LINE
  8
0
 10
44.8116
 20
36.0059
 11
44.4379
 21
36.0531
  0
LINE
  8
0
 10
44.4379
 20
36.0531
 11
44.0729
 21
36.1468
  0
LINE
  8
0
 10
44.0729
 20
36.1468
 11
43.7227
 21
36.2855
  0
LINE
  8
0
 10
43.7227
 20
36.2855
 11
43.3925
 21
36.467
  0
LINE
  8
0
 10
43.3925
 20
36.467
 11
43.0877
 21
36.6885
  0
LINE
  8
0
 10
43.0877
 20
36.6885
 11
42.8131
 21
36.9464
  0
LINE
  8
0
 10
42.8131
 20
36.9464
 11
42.5729
 21
37.2366
  0
LINE
  8
0
 10
42.5729
 20
37.2366
 11
42.3711
 21
37.5547
  0
LINE
  8
0
 10
42.3711
 20
37.5547
 11
42.2107
 21
37.8956
  0
LINE
  8
0
 10
42.2107
 20
37.8956
 11
42.0942
 21
38.2539
  0
LINE
  8
0
 10
42.0942
 20
38.2539
 11
42.0237
 21
38.624
  0
LINE
  8
0
 10
42.0237
 20
38.624
 11
42
 21
39
  0
LINE
  8
0
 10
42
 20
39
 11
42.0237
 21
39.376
  0
LINE
  8
0
 10
42.0237
 20
39.376
 11
42.0942
 21
39.7461
  0
LINE
  8
0
 10
42.0942
 20
39.7461
 11
42.2107
 21
40.1044
  0
LINE
  8
0
 10
42.2107
 20
40.1044
 11
42.3711
 21
40.4453
  0
LINE
  8
0
 10
42.3711
 20
40.4453
 11
42.5729
 21
40.7634
  0
LINE
  8
0
 10
42.5729
 20
40.7634
 11
42.8131
 21
41.0536
  0
LINE
  8
0
 10
42.8131
 20
41.0536
 11
43.0877
 21
41.3116
  0
LINE
  8
0
 10
43.0877
 20
41.3116
 11
43.3925
 21
41.533
  0
LINE
  8
0
 10
43.3925
 20
41.533
 11
43.7227
 21
41.7145
  0
LINE
  8
0
 10
43.7227
 20
41.7145
 11
44.0729
 21
41.8532
  0
LINE
  8
0
 10
44.0729
 20
41.8532
 11
44.4379
 21
41.9469
  0
LINE
  8
0
 10
44.4379
 20
41.9469
 11
44.8116
 21
41.9941
  0
LINE
  8
0
 10
44.8116
 20
41.9941
 11
45.1884
 21
41.9941
  0
LINE
  8
0
 10
45.1884
 20
41.9941
 11
45.5621
 21
41.9469
  0
LINE
  8
0
 10
45.5621
 20
41.9469
 11
45.927
 21
41.8532
  0
LINE
  8
0
 10
45.927
 20
41.8532
 11
46.2773
 21
41.7145
  0
LINE
  8
0
 10
46.2773
 20
41.7145
 11
46.6075
 21
41.533
  0
LINE
  8
0
 10
46.6075
 20
41.533
 11
46.9123
 21
41.3116
  0
LINE
  8
0
 10
46.9123
 20
41.3116
 11
47.1869
 21
41.0536
  0
LINE
  8
0
 10
47.1869
 20
41.0536
 11
47.427
 21
40.7634
  0
LINE
  8
0
 10
47.427
 20
40.7634
 11
47.6289
 21
40.4453
  0
LINE
  8
0
 10
47.6289
 20
40.4453
 11
47.7893
 21
40.1044
  0
LINE
  8
0
 10
47.7893
 20
40.1044
 11
47.9057
 21
39.7461
  0
LINE
  8
0
 10
47.9057
 20
39.7461
 11
47.9763
 21
39.376
  0
LINE
  8
0
 10
47.9763
 20
39.376
 11
48
 21
39
  0
LINE
  8
0
 10
48
 20
39
 11
47.9763
 21
38.624
  0
LINE
  8
0
 10
47.9763
 20
38.624
 11
47.9057
 21
38.2539
  0
LINE
  8
0
 10
47.9057
 20
38.2539
 11
47.7893
 21
37.8956
  0
LINE
  8
0
 10
47.7893
 20
37.8956
 11
47.6289
 21
37.5547
  0
LINE
  8
0
 10
47.6289
 20
37.5547
 11
47.427
 21
37.2366
  0
LINE
  8
0
 10
47.427
 20
37.2366
 11
47.1869
 21
36.9464
  0
LINE
  8
0
 10
47.1869
 20
36.9464
 11
46.9123
 21
36.6885
  0
LINE
  8
0
 10
46.9123
 20
36.6885
 11
46.6075
 21
36.467
  0
LINE
  8
0
 10
46.6075
 20
36.467
 11
46.2773
 21
36.2855
  0
LINE
  8
0
 10
46.2773
 20
36.2855
 11
45.927
 21
36.1468
  0
LINE
  8
0
 10
45.927
 20
36.1468
 11
45.5621
 21
36.0531
  0
LINE
  8
0
 10
45.5621
 20
36.0531
 11
45.1884
 21
36.0059
  0
LINE
  8
0
 10
45.1884
 20
36.0059
 11
44.8116
 21
36.0059
  0
LINE
  8
0
 10
-30.1884
 20
36.0059
 11
-30.5621
 21
36.0531
  0
LINE
  8
0
 10
-30.5621
 20
36.0531
 11
-30.927
 21
36.1468
  0
LINE
  8
0
 10
-30.927
 20
36.1468
 11
-31.2773
 21
36.2855
  0
LINE
  8
0
 10
-31.2773
 20
36.2855
 11
-31.6075
 21
36.467
  0
LINE
  8
0
 10
-31.6075
 20
36.467
 11
-31.9123
 21
36.6885
  0
LINE
  8
0
 10
-31.9123
 20
36.6885
 11
-32.1869
 21
36.9464
  0
LINE
  8
0
 10
-32.1869
 20
36.9464
 11
-32.427
 21
37.2366
  0
LINE
  8
0
 10
-32.427
 20
37.2366
 11
-32.6289
 21
37.5547
  0
LINE
  8
0
 10
-32.6289
 20
37.5547
 11
-32.7893
 21
37.8956
  0
LINE
  8
0
 10
-32.7893
 20
37.8956
 11
-32.9057
 21
38.2539
  0
LINE
  8
0
 10
-32.9057
 20
38.2539
 11
-32.9763
 21
38.624
  0
LINE
  8
0
 10
-32.9763
 20
38.624
 11
-33
 21
39
  0
LINE
  8
0
 10
-33
 20
39
 11
-32.9763
 21
39.376
  0
LINE
  8
0
 10
-32.9763
 20
39.376
 11
-32.9057
 21
39.7461
  0
LINE
  8
0
 10
-32.9057
 20
39.7461
 11
-32.7893
 21
40.1044
  0
LINE
  8
0
 10
-32.7893
 20
40.1044
 11
-32.6289
 21
40.4453
  0
LINE
  8
0
 10
-32.6289
 20
40.4453
 11
-32.427
 21
40.7634
  0
LINE
  8
0
 10
-32.427
 20
40.7634
 11
-32.1869
 21
41.0536
  0
LINE
  8
0
 10
-32.1869
 20
41.0536
 11
-31.9123
 21
41.3116
  0
LINE
  8
0
 10
-31.9123
 20
41.3116
 11
-31.6075
 21
41.533
  0
LINE
  8
0
 10
-31.6075
 20
41.533
 11
-31.2773
 21
41.7145
  0
LINE
  8
0
 10
-31.2773
 20
41.7145
 11
-30.927
 21
41.8532
  0
LINE
  8
0
 10
-30.927
 20
41.8532
 11
-30.5621
 21
41.9469
  0
LINE
  8
0
 10
-30.5621
 20
41.9469
 11
-30.1884
 21
41.9941
  0
LINE
  8
0
 10
-30.1884
 20
41.9941
 11
-29.8116
 21
41.9941
  0
LINE
  8
0
 10
-29.8116
 20
41.9941
 11
-29.4379
 21
41.9469
  0
LINE
  8
0
 10
-29.4379
 20
41.9469
 11
-29.0729
 21
41.8532
  0
LINE
  8
0
 10
-29.0729
 20
41.8532
 11
-28.7227
 21
41.7145
  0
LINE
  8
0
 10
-28.7227
 20
41.7145
 11
-28.3925
 21
41.533
  0
LINE
  8
0
 10
-28.3925
 20
41.533
 11
-28.0877
 21
41.3116
  0
LINE
  8
0
 10
-28.0877
 20
41.3116
 11
-27.8131
 21
41.0536
  0
LINE
  8
0
 10
-27.8131
 20
41.0536
 11
-27.5729
 21
40.7634
  0
LINE
  8
0
 10
-27.5729
 20
40.7634
 11
-27.3711
 21
40.4453
  0
LINE
  8
0
 10
-27.3711
 20
40.4453
 11
-27.2107
 21
40.1044
  0
LINE
  8
0
 10
-27.2107
 20
40.1044
 11
-27.0942
 21
39.7461
  0
LINE
  8
0
 10
-27.0942
 20
39.7461
 11
-27.0237
 21
39.376
  0
LINE
  8
0
 10
-27.0237
 20
39.376
 11
-27
 21
39
  0
LINE
  8
0
 10
-27
 20
39
 11
-27.0237
 21
38.624
  0
LINE
  8
0
 10
-27.0237
 20
38.624
 11
-27.0942
 21
38.2539
  0
LINE
  8
0
 10
-27.0942
 20
38.2539
 11
-27.2107
 21
37.8956
  0
LINE
  8
0
 10
-27.2107
 20
37.8956
 11
-27.3711
 21
37.5547
  0
LINE
  8
0
 10
-27.3711
 20
37.5547
 11
-27.5729
 21
37.2366
  0
LINE
  8
0
 10
-27.5729
 20
37.2366
 11
-27.8131
 21
36.9464
  0
LINE
  8
0
 10
-27.8131
 20
36.9464
 11
-28.0877
 21
36.6885
  0
LINE
  8
0
 10
-28.0877
 20
36.6885
 11
-28.3925
 21
36.467
  0
LINE
  8
0
 10
-28.3925
 20
36.467
 11
-28.7227
 21
36.2855
  0
LINE
  8
0
 10
-28.7227
 20
36.2855
 11
-29.0729
 21
36.1468
  0
LINE
  8
0
 10
-29.0729
 20
36.1468
 11
-29.4379
 21
36.0531
  0
LINE
  8
0
 10
-29.4379
 20
36.0531
 11
-29.8116
 21
36.0059
  0
LINE
  8
0
 10
-29.8116
 20
36.0059
 11
-30.1884
 21
36.0059
  0
LINE
  8
0
 10
-15.1884
 20
36.0059
 11
-15.5621
 21
36.0531
  0
LINE
  8
0
 10
-15.5621
 20
36.0531
 11
-15.927
 21
36.1468
  0
LINE
  8
0
 10
-15.927
 20
36.1468
 11
-16.2773
 21
36.2855
  0
LINE
  8
0
 10
-16.2773
 20
36.2855
 11
-16.6075
 21
36.467
  0
LINE
  8
0
 10
-16.6075
 20
36.467
 11
-16.9123
 21
36.6885
  0
LINE
  8
0
 10
-16.9123
 20
36.6885
 11
-17.1869
 21
36.9464
  0
LINE
  8
0
 10
-17.1869
 20
36.9464
 11
-17.427
 21
37.2366
  0
LINE
  8
0
 10
-17.427
 20
37.2366
 11
-17.6289
 21
37.5547
  0
LINE
  8
0
 10
-17.6289
 20
37.5547
 11
-17.7893
 21
37.8956
  0
LINE
  8
0
 10
-17.7893
 20
37.8956
 11
-17.9057
 21
38.2539
  0
LINE
  8
0
 10
-17.9057
 20
38.2539
 11
-17.9763
 21
38.624
  0
LINE
  8
0
 10
-17.9763
 20
38.624
 11
-18
 21
39
  0
LINE
  8
0
 10
-18
 20
39
 11
-17.9763
 21
39.376
  0
LINE
  8
0
 10
-17.9763
 20
39.376
 11
-17.9057
 21
39.7461
  0
LINE
  8
0
 10
-17.9057
 20
39.7461
 11
-17.7893
 21
40.1044
  0
LINE
  8
0
 10
-17.7893
 20
40.1044
 11
-17.6289
 21
40.4453
  0
LINE
  8
0
 10
-17.6289
 20
40.4453
 11
-17.427
 21
40.7634
  0
LINE
  8
0
 10
-17.427
 20
40.7634
 11
-17.1869
 21
41.0536
  0
LINE
  8
0
 10
-17.1869
 20
41.0536
 11
-16.9123
 21
41.3116
  0
LINE
  8
0
 10
-16.9123
 20
41.3116
 11
-16.6075
 21
41.533
  0
LINE
  8
0
 10
-16.6075
 20
41.533
 11
-16.2773
 21
41.7145
  0
LINE
  8
0
 10
-16.2773
 20
41.7145
 11
-15.927
 21
41.8532
  0
LINE
  8
0
 10
-15.927
 20
41.8532
 11
-15.5621
 21
41.9469
  0
LINE
  8
0
 10
-15.5621
 20
41.9469
 11
-15.1884
 21
41.9941
  0
LINE
  8
0
 10
-15.1884
 20
41.9941
 11
-14.8116
 21
41.9941
  0
LINE
  8
0
 10
-14.8116
 20
41.9941
 11
-14.4379
 21
41.9469
  0
LINE
  8
0
 10
-14.4379
 20
41.9469
 11
-14.0729
 21
41.8532
  0
LINE
  8
0
 10
-14.0729
 20
41.8532
 11
-13.7227
 21
41.7145
  0
LINE
  8
0
 10
-13.7227
 20
41.7145
 11
-13.3925
 21
41.533
  0
LINE
  8
0
 10
-13.3925
 20
41.533
 11
-13.0877
 21
41.3116
  0
LINE
  8
0
 10
-13.0877
 20
41.3116
 11
-12.8131
 21
41.0536
  0
LINE
  8
0
 10
-12.8131
 20
41.0536
 11
-12.5729
 21
40.7634
  0
LINE
  8
0
 10
-12.5729
 20
40.7634
 11
-12.3711
 21
40.4453
  0
LINE
  8
0
 10
-12.3711
 20
40.4453
 11
-12.2107
 21
40.1044
  0
LINE
  8
0
 10
-12.2107
 20
40.1044
 11
-12.0942
 21
39.7461
  0
LINE
  8
0
 10
-12.0942
 20
39.7461
 11
-12.0237
 21
39.376
  0
LINE
  8
0
 10
-12.0237
 20
39.376
 11
-12
 21
39
  0
LINE
  8
0
 10
-12
 20
39
 11
-12.0237
 21
38.624
  0
LINE
  8
0
 10
-12.0237
 20
38.624
 11
-12.0942
 21
38.2539
  0
LINE
  8
0
 10
-12.0942
 20
38.2539
 11
-12.2107
 21
37.8956
  0
LINE
  8
0
 10
-12.2107
 20
37.8956
 11
-12.3711
 21
37.5547
  0
LINE
  8
0
 10
-12.3711
 20
37.5547
 11
-12.5729
 21
37.2366
  0
LINE
  8
0
 10
-12.5729
 20
37.2366
 11
-12.8131
 21
36.9464
  0
LINE
  8
0
 10
-12.8131
 20
36.9464
 11
-13.0877
 21
36.6885
  0
LINE
  8
0
 10
-13.0877
 20
36.6885
 11
-13.3925
 21
36.467
  0
LINE
  8
0
 10
-13.3925
 20
36.467
 11
-13.7227
 21
36.2855
  0
LINE
  8
0
 10
-13.7227
 20
36.2855
 11
-14.0729
 21
36.1468
  0
LINE
  8
0
 10
-14.0729
 20
36.1468
 11
-14.4379
 21
36.0531
  0
LINE
  8
0
 10
-14.4379
 20
36.0531
 11
-14.8116
 21
36.0059
  0
LINE
  8
0
 10
-14.8116
 20
36.0059
 11
-15.1884
 21
36.0059
  0
LINE
  8
0
 10
29.8116
 20
36.0059
 11
29.4379
 21
36.0531
  0
LINE
  8
0
 10
29.4379
 20
36.0531
 11
29.0729
 21
36.1468
  0
LINE
  8
0
 10
29.0729
 20
36.1468
 11
28.7227
 21
36.2855
  0
LINE
  8
0
 10
28.7227
 20
36.2855
 11
28.3925
 21
36.467
  0
LINE
  8
0
 10
28.3925
 20
36.467
 11
28.0877
 21
36.6885
  0
LINE
  8
0
 10
28.0877
 20
36.6885
 11
27.8131
 21
36.9464
  0
LINE
  8
0
 10
27.8131
 20
36.9464
 11
27.5729
 21
37.2366
  0
LINE
  8
0
 10
27.5729
 20
37.2366
 11
27.3711
 21
37.5547
  0
LINE
  8
0
 10
27.3711
 20
37.5547
 11
27.2107
 21
37.8956
  0
LINE
  8
0
 10
27.2107
 20
37.8956
 11
27.0942
 21
38.2539
  0
LINE
  8
0
 10
27.0942
 20
38.2539
 11
27.0237
 21
38.624
  0
LINE
  8
0
 10
27.0237
 20
38.624
 11
27
 21
39
  0
LINE
  8
0
 10
27
 20
39
 11
27.0237
 21
39.376
  0
LINE
  8
0
 10
27.0237
 20
39.376
 11
27.0942
 21
39.7461
  0
LINE
  8
0
 10
27.0942
 20
39.7461
 11
27.2107
 21
40.1044
  0
LINE
  8
0
 10
27.2107
 20
40.1044
 11
27.3711
 21
40.4453
  0
LINE
  8
0
 10
27.3711
 20
40.4453
 11
27.5729
 21
40.7634
  0
LINE
  8
0
 10
27.5729
 20
40.7634
 11
27.8131
 21
41.0536
  0
LINE
  8
0
 10
27.8131
 20
41.0536
 11
28.0877
 21
41.3116
  0
LINE
  8
0
 10
28.0877
 20
41.3116
 11
28.3925
 21
41.533
  0
LINE
  8
0
 10
28.3925
 20
41.533
 11
28.7227
 21
41.7145
  0
LINE
  8
0
 10
28.7227
 20
41.7145
 11
29.0729
 21
41.8532
  0
LINE
  8
0
 10
29.0729
 20
41.8532
 11
29.4379
 21
41.9469
  0
LINE
  8
0
 10
29.4379
 20
41.9469
 11
29.8116
 21
41.9941
  0
LINE
  8
0
 10
29.8116
 20
41.9941
 11
30.1884
 21
41.9941
  0
LINE
  8
0
 10
30.1884
 20
41.9941
 11
30.5621
 21
41.9469
  0
LINE
  8
0
 10
30.5621
 20
41.9469
 11
30.927
 21
41.8532
  0
LINE
  8
0
 10
30.927
 20
41.8532
 11
31.2773
 21
41.7145
  0
LINE
  8
0
 10
31.2773
 20
41.7145
 11
31.6075
 21
41.533
  0
LINE
  8
0
 10
31.6075
 20
41.533
 11
31.9123
 21
41.3116
  0
LINE
  8
0
 10
31.9123
 20
41.3116
 11
32.1869
 21
41.0536
  0
LINE
  8
0
 10
32.1869
 20
41.0536
 11
32.427
 21
40.7634
  0
LINE
  8
0
 10
32.427
 20
40.7634
 11
32.6289
 21
40.4453
  0
LINE
  8
0
 10
32.6289
 20
40.4453
 11
32.7893
 21
40.1044
  0
LINE
  8
0
 10
32.7893
 20
40.1044
 11
32.9057
 21
39.7461
  0
LINE
  8
0
 10
32.9057
 20
39.7461
 11
32.9763
 21
39.376
  0
LINE
  8
0
 10
32.9763
 20
39.376
 11
33
 21
39
  0
LINE
  8
0
 10
33
 20
39
 11
32.9763
 21
38.624
  0
LINE
  8
0
 10
32.9763
 20
38.624
 11
32.9057
 21
38.2539
  0
LINE
  8
0
 10
32.9057
 20
38.2539
 11
32.7893
 21
37.8956
  0
LINE
  8
0
 10
32.7893
 20
37.8956
 11
32.6289
 21
37.5547
  0
LINE
  8
0
 10
32.6289
 20
37.5547
 11
32.427
 21
37.2366
  0
LINE
  8
0
 10
32.427
 20
37.2366
 11
32.1869
 21
36.9464
  0
LINE
  8
0
 10
32.1869
 20
36.9464
 11
31.9123
 21
36.6885
  0
LINE
  8
0
 10
31.9123
 20
36.6885
 11
31.6075
 21
36.467
  0
LINE
  8
0
 10
31.6075
 20
36.467
 11
31.2773
 21
36.2855
  0
LINE
  8
0
 10
31.2773
 20
36.2855
 11
30.927
 21
36.1468
  0
LINE
  8
0
 10
30.927
 20
36.1468
 11
30.5621
 21
36.0531
  0
LINE
  8
0
 10
30.5621
 20
36.0531
 11
30.1884
 21
36.0059
  0
LINE
  8
0
 10
30.1884
 20
36.0059
 11
29.8116
 21
36.0059
  0
LINE
  8
0
 10
-7.59418
 20
37.503
 11
-7.78107
 21
37.5266
  0
LINE
  8
0
 10
-7.78107
 20
37.5266
 11
-7.96352
 21
37.5734
  0
LINE
  8
0
 10
-7.96352
 20
37.5734
 11
-8.13866
 21
37.6428
  0
LINE
  8
0
 10
-8.13866
 20
37.6428
 11
-8.30373
 21
37.7335
  0
LINE
  8
0
 10
-8.30373
 20
37.7335
 11
-8.45613
 21
37.8442
  0
LINE
  8
0
 10
-8.45613
 20
37.8442
 11
-8.59344
 21
37.9732
  0
LINE
  8
0
 10
-8.59344
 20
37.9732
 11
-8.71352
 21
38.1183
  0
LINE
  8
0
 10
-8.71352
 20
38.1183
 11
-8.81445
 21
38.2774
  0
LINE
  8
0
 10
-8.81445
 20
38.2774
 11
-8.89465
 21
38.4478
  0
LINE
  8
0
 10
-8.89465
 20
38.4478
 11
-8.95287
 21
38.627
  0
LINE
  8
0
 10
-8.95287
 20
38.627
 11
-8.98816
 21
38.812
  0
LINE
  8
0
 10
-8.98816
 20
38.812
 11
-9
 21
39
  0
LINE
  8
0
 10
-9
 20
39
 11
-8.98816
 21
39.188
  0
LINE
  8
0
 10
-8.98816
 20
39.188
 11
-8.95287
 21
39.373
  0
LINE
  8
0
 10
-8.95287
 20
39.373
 11
-8.89465
 21
39.5522
  0
LINE
  8
0
 10
-8.89465
 20
39.5522
 11
-8.81445
 21
39.7226
  0
LINE
  8
0
 10
-8.81445
 20
39.7226
 11
-8.71352
 21
39.8817
  0
LINE
  8
0
 10
-8.71352
 20
39.8817
 11
-8.59344
 21
40.0268
  0
LINE
  8
0
 10
-8.59344
 20
40.0268
 11
-8.45613
 21
40.1558
  0
LINE
  8
0
 10
-8.45613
 20
40.1558
 11
-8.30373
 21
40.2665
  0
LINE
  8
0
 10
-8.30373
 20
40.2665
 11
-8.13866
 21
40.3573
  0
LINE
  8
0
 10
-8.13866
 20
40.3573
 11
-7.96352
 21
40.4266
  0
LINE
  8
0
 10
-7.96352
 20
40.4266
 11
-7.78107
 21
40.4734
  0
LINE
  8
0
 10
-7.78107
 20
40.4734
 11
-7.59418
 21
40.4971
  0
LINE
  8
0
 10
-7.59418
 20
40.4971
 11
-7.40581
 21
40.4971
  0
LINE
  8
0
 10
-7.40581
 20
40.4971
 11
-7.21892
 21
40.4734
  0
LINE
  8
0
 10
-7.21892
 20
40.4734
 11
-7.03647
 21
40.4266
  0
LINE
  8
0
 10
-7.03647
 20
40.4266
 11
-6.86133
 21
40.3573
  0
LINE
  8
0
 10
-6.86133
 20
40.3573
 11
-6.69626
 21
40.2665
  0
LINE
  8
0
 10
-6.69626
 20
40.2665
 11
-6.54385
 21
40.1558
  0
LINE
  8
0
 10
-6.54385
 20
40.1558
 11
-6.40654
 21
40.0268
  0
LINE
  8
0
 10
-6.40654
 20
40.0268
 11
-6.28647
 21
39.8817
  0
LINE
  8
0
 10
-6.28647
 20
39.8817
 11
-6.18553
 21
39.7226
  0
LINE
  8
0
 10
-6.18553
 20
39.7226
 11
-6.10533
 21
39.5522
  0
LINE
  8
0
 10
-6.10533
 20
39.5522
 11
-6.04712
 21
39.373
  0
LINE
  8
0
 10
-6.04712
 20
39.373
 11
-6.01183
 21
39.188
  0
LINE
  8
0
 10
-6.01183
 20
39.188
 11
-6
 21
39
  0
LINE
  8
0
 10
-6
 20
39
 11
-6.01183
 21
38.812
  0
LINE
  8
0
 10
-6.01183
 20
38.812
 11
-6.04712
 21
38.627
  0
LINE
  8
0
 10
-6.04712
 20
38.627
 11
-6.10533
 21
38.4478
  0
LINE
  8
0
 10
-6.10533
 20
38.4478
 11
-6.18553
 21
38.2774
  0
LINE
  8
0
 10
-6.18553
 20
38.2774
 11
-6.28647
 21
38.1183
  0
LINE
  8
0
 10
-6.28647
 20
38.1183
 11
-6.40654
 21
37.9732
  0
LINE
  8
0
 10
-6.40654
 20
37.9732
 11
-6.54385
 21
37.8442
  0
LINE
  8
0
 10
-6.54385
 20
37.8442
 11
-6.69626
 21
37.7335
  0
LINE
  8
0
 10
-6.69626
 20
37.7335
 11
-6.86133
 21
37.6428
  0
LINE
  8
0
 10
-6.86133
 20
37.6428
 11
-7.03647
 21
37.5734
  0
LINE
  8
0
 10
-7.03647
 20
37.5734
 11
-7.21892
 21
37.5266
  0
LINE
  8
0
 10
-7.21892
 20
37.5266
 11
-7.40581
 21
37.503
  0
LINE
  8
0
 10
-7.40581
 20
37.503
 11
-7.59418
 21
37.503
  0
LINE
  8
0
 10
7.40581
 20
37.503
 11
7.21892
 21
37.5266
  0
LINE
  8
0
 10
7.21892
 20
37.5266
 11
7.03647
 21
37.5734
  0
LINE
  8
0
 10
7.03647
 20
37.5734
 11
6.86133
 21
37.6428
  0
LINE
  8
0
 10
6.86133
 20
37.6428
 11
6.69626
 21
37.7335
  0
LINE
  8
0
 10
6.69626
 20
37.7335
 11
6.54385
 21
37.8442
  0
LINE
  8
0
 10
6.54385
 20
37.8442
 11
6.40654
 21
37.9732
  0
LINE
  8
0
 10
6.40654
 20
37.9732
 11
6.28647
 21
38.1183
  0
LINE
  8
0
 10
6.28647
 20
38.1183
 11
6.18553
 21
38.2774
  0
LINE
  8
0
 10
6.18553
 20
38.2774
 11
6.10533
 21
38.4478
  0
LINE
  8
0
 10
6.10533
 20
38.4478
 11
6.04712
 21
38.627
  0
LINE
  8
0
 10
6.04712
 20
38.627
 11
6.01183
 21
38.812
  0
LINE
  8
0
 10
6.01183
 20
38.812
 11
6
 21
39
  0
LINE
  8
0
 10
6
 20
39
 11
6.01183
 21
39.188
  0
LINE
  8
0
 10
6.01183
 20
39.188
 11
6.04712
 21
39.373
  0
LINE
  8
0
 10
6.04712
 20
39.373
 11
6.10533
 21
39.5522
  0
LINE
  8
0
 10
6.10533
 20
39.5522
 11
6.18553
 21
39.7226
  0
LINE
  8
0
 10
6.18553
 20
39.7226
 11
6.28647
 21
39.8817
  0
LINE
  8
0
 10
6.28647
 20
39.8817
 11
6.40654
 21
40.0268
  0
LINE
  8
0
 10
6.40654
 20
40.0268
 11
6.54385
 21
40.1558
  0
LINE
  8
0
 10
6.54385
 20
40.1558
 11
6.69626
 21
40.2665
  0
LINE
  8
0
 10
6.69626
 20
40.2665
 11
6.86133
 21
40.3573
  0
LINE
  8
0
 10
6.86133
 20
40.3573
 11
7.03647
 21
40.4266
  0
LINE
  8
0
 10
7.03647
 20
40.4266
 11
7.21892
 21
40.4734
  0
LINE
  8
0
 10
7.21892
 20
40.4734
 11
7.40581
 21
40.4971
  0
LINE
  8
0
 10
7.40581
 20
40.4971
 11
7.59418
 21
40.4971
  0
LINE
  8
0
 10
7.59418
 20
40.4971
 11
7.78107
 21
40.4734
  0
LINE
  8
0
 10
7.78107
 20
40.4734
 11
7.96352
 21
40.4266
  0
LINE
  8
0
 10
7.96352
 20
40.4266
 11
8.13866
 21
40.3573
  0
LINE
  8
0
 10
8.13866
 20
40.3573
 11
8.30373
 21
40.2665
  0
LINE
  8
0
 10
8.30373
 20
40.2665
 11
8.45613
 21
40.1558
  0
LINE
  8
0
 10
8.45613
 20
40.1558
 11
8.59344
 21
40.0268
  0
LINE
  8
0
 10
8.59344
 20
40.0268
 11
8.71352
 21
39.8817
  0
LINE
  8
0
 10
8.71352
 20
39.8817
 11
8.81445
 21
39.7226
  0
LINE
  8
0
 10
8.81445
 20
39.7226
 11
8.89465
 21
39.5522
  0
LINE
  8
0
 10
8.89465
 20
39.5522
 11
8.95287
 21
39.373
  0
LINE
  8
0
 10
8.95287
 20
39.373
 11
8.98816
 21
39.188
  0
LINE
  8
0
 10
8.98816
 20
39.188
 11
9
 21
39
  0
LINE
  8
0
 10
9
 20
39
 11
8.98816
 21
38.812
  0
LINE
  8
0
 10
8.98816
 20
38.812
 11
8.95287
 21
38.627
  0
LINE
  8
0
 10
8.95287
 20
38.627
 11
8.89465
 21
38.4478
  0
LINE
  8
0
 10
8.89465
 20
38.4478
 11
8.81445
 21
38.2774
  0
LINE
  8
0
 10
8.81445
 20
38.2774
 11
8.71352
 21
38.1183
  0
LINE
  8
0
 10
8.71352
 20
38.1183
 11
8.59344
 21
37.9732
  0
LINE
  8
0
 10
8.59344
 20
37.9732
 11
8.45613
 21
37.8442
  0
LINE
  8
0
 10
8.45613
 20
37.8442
 11
8.30373
 21
37.7335
  0
LINE
  8
0
 10
8.30373
 20
37.7335
 11
8.13866
 21
37.6428
  0
LINE
  8
0
 10
8.13866
 20
37.6428
 11
7.96352
 21
37.5734
  0
LINE
  8
0
 10
7.96352
 20
37.5734
 11
7.78107
 21
37.5266
  0
LINE
  8
0
 10
7.78107
 20
37.5266
 11
7.59418
 21
37.503
  0
LINE
  8
0
 10
7.59418
 20
37.503
 11
7.40581
 21
37.503
  0
LINE
  8
0
 10
-37.5942
 20
37.503
 11
-37.7811
 21
37.5266
  0
LINE
  8
0
 10
-37.7811
 20
37.5266
 11
-37.9635
 21
37.5734
  0
LINE
  8
0
 10
-37.9635
 20
37.5734
 11
-38.1387
 21
37.6428
  0
LINE
  8
0
 10
-38.1387
 20
37.6428
 11
-38.3037
 21
37.7335
  0
LINE
  8
0
 10
-38.3037
 20
37.7335
 11
-38.4561
 21
37.8442
  0
LINE
  8
0
 10
-38.4561
 20
37.8442
 11
-38.5934
 21
37.9732
  0
LINE
  8
0
 10
-38.5934
 20
37.9732
 11
-38.7135
 21
38.1183
  0
LINE
  8
0
 10
-38.7135
 20
38.1183
 11
-38.8145
 21
38.2774
  0
LINE
  8
0
 10
-38.8145
 20
38.2774
 11
-38.8947
 21
38.4478
  0
LINE
  8
0
 10
-38.8947
 20
38.4478
 11
-38.9529
 21
38.627
  0
LINE
  8
0
 10
-38.9529
 20
38.627
 11
-38.9882
 21
38.812
  0
LINE
  8
0
 10
-38.9882
 20
38.812
 11
-39
 21
39
  0
LINE
  8
0
 10
-39
 20
39
 11
-38.9882
 21
39.188
  0
LINE
  8
0
 10
-38.9882
 20
39.188
 11
-38.9529
 21
39.373
  0
LINE
  8
0
 10
-38.9529
 20
39.373
 11
-38.8947
 21
39.5522
  0
LINE
  8
0
 10
-38.8947
 20
39.5522
 11
-38.8145
 21
39.7226
  0
LINE
  8
0
 10
-38.8145
 20
39.7226
 11
-38.7135
 21
39.8817
  0
LINE
  8
0
 10
-38.7135
 20
39.8817
 11
-38.5934
 21
40.0268
  0
LINE
  8
0
 10
-38.5934
 20
40.0268
 11
-38.4561
 21
40.1558
  0
LINE
  8
0
 10
-38.4561
 20
40.1558
 11
-38.3037
 21
40.2665
  0
LINE
  8
0
 10
-38.3037
 20
40.2665
 11
-38.1387
 21
40.3573
  0
LINE
  8
0
 10
-38.1387
 20
40.3573
 11
-37.9635
 21
40.4266
  0
LINE
  8
0
 10
-37.9635
 20
40.4266
 11
-37.7811
 21
40.4734
  0
LINE
  8
0
 10
-37.7811
 20
40.4734
 11
-37.5942
 21
40.4971
  0
LINE
  8
0
 10
-37.5942
 20
40.4971
 11
-37.4058
 21
40.4971
  0
LINE
  8
0
 10
-37.4058
 20
40.4971
 11
-37.2189
 21
40.4734
  0
LINE
  8
0
 10
-37.2189
 20
40.4734
 11
-37.0365
 21
40.4266
  0
LINE
  8
0
 10
-37.0365
 20
40.4266
 11
-36.8613
 21
40.3573
  0
LINE
  8
0
 10
-36.8613
 20
40.3573
 11
-36.6963
 21
40.2665
  0
LINE
  8
0
 10
-36.6963
 20
40.2665
 11
-36.5439
 21
40.1558
  0
LINE
  8
0
 10
-36.5439
 20
40.1558
 11
-36.4065
 21
40.0268
  0
LINE
  8
0
 10
-36.4065
 20
40.0268
 11
-36.2865
 21
39.8817
  0
LINE
  8
0
 10
-36.2865
 20
39.8817
 11
-36.1855
 21
39.7226
  0
LINE
  8
0
 10
-36.1855
 20
39.7226
 11
-36.1053
 21
39.5522
  0
LINE
  8
0
 10
-36.1053
 20
39.5522
 11
-36.0471
 21
39.373
  0
LINE
  8
0
 10
-36.0471
 20
39.373
 11
-36.0118
 21
39.188
  0
LINE
  8
0
 10
-36.0118
 20
39.188
 11
-36
 21
39
  0
LINE
  8
0
 10
-36
 20
39
 11
-36.0118
 21
38.812
  0
LINE
  8
0
 10
-36.0118
 20
38.812
 11
-36.0471
 21
38.627
  0
LINE
  8
0
 10
-36.0471
 20
38.627
 11
-36.1053
 21
38.4478
  0
LINE
  8
0
 10
-36.1053
 20
38.4478
 11
-36.1855
 21
38.2774
  0
LINE
  8
0
 10
-36.1855
 20
38.2774
 11
-36.2865
 21
38.1183
  0
LINE
  8
0
 10
-36.2865
 20
38.1183
 11
-36.4065
 21
37.9732
  0
LINE
  8
0
 10
-36.4065
 20
37.9732
 11
-36.5439
 21
37.8442
  0
LINE
  8
0
 10
-36.5439
 20
37.8442
 11
-36.6963
 21
37.7335
  0
LINE
  8
0
 10
-36.6963
 20
37.7335
 11
-36.8613
 21
37.6428
  0
LINE
  8
0
 10
-36.8613
 20
37.6428
 11
-37.0365
 21
37.5734
  0
LINE
  8
0
 10
-37.0365
 20
37.5734
 11
-37.2189
 21
37.5266
  0
LINE
  8
0
 10
-37.2189
 20
37.5266
 11
-37.4058
 21
37.503
  0
LINE
  8
0
 10
-37.4058
 20
37.503
 11
-37.5942
 21
37.503
  0
LINE
  8
0
 10
-22.5942
 20
37.503
 11
-22.7811
 21
37.5266
  0
LINE
  8
0
 10
-22.7811
 20
37.5266
 11
-22.9635
 21
37.5734
  0
LINE
  8
0
 10
-22.9635
 20
37.5734
 11
-23.1387
 21
37.6428
  0
LINE
  8
0
 10
-23.1387
 20
37.6428
 11
-23.3037
 21
37.7335
  0
LINE
  8
0
 10
-23.3037
 20
37.7335
 11
-23.4561
 21
37.8442
  0
LINE
  8
0
 10
-23.4561
 20
37.8442
 11
-23.5934
 21
37.9732
  0
LINE
  8
0
 10
-23.5934
 20
37.9732
 11
-23.7135
 21
38.1183
  0
LINE
  8
0
 10
-23.7135
 20
38.1183
 11
-23.8145
 21
38.2774
  0
LINE
  8
0
 10
-23.8145
 20
38.2774
 11
-23.8947
 21
38.4478
  0
LINE
  8
0
 10
-23.8947
 20
38.4478
 11
-23.9529
 21
38.627
  0
LINE
  8
0
 10
-23.9529
 20
38.627
 11
-23.9882
 21
38.812
  0
LINE
  8
0
 10
-23.9882
 20
38.812
 11
-24
 21
39
  0
LINE
  8
0
 10
-24
 20
39
 11
-23.9882
 21
39.188
  0
LINE
  8
0
 10
-23.9882
 20
39.188
 11
-23.9529
 21
39.373
  0
LINE
  8
0
 10
-23.9529
 20
39.373
 11
-23.8947
 21
39.5522
  0
LINE
  8
0
 10
-23.8947
 20
39.5522
 11
-23.8145
 21
39.7226
  0
LINE
  8
0
 10
-23.8145
 20
39.7226
 11
-23.7135
 21
39.8817
  0
LINE
  8
0
 10
-23.7135
 20
39.8817
 11
-23.5934
 21
40.0268
  0
LINE
  8
0
 10
-23.5934
 20
40.0268
 11
-23.4561
 21
40.1558
  0
LINE
  8
0
 10
-23.4561
 20
40.1558
 11
-23.3037
 21
40.2665
  0
LINE
  8
0
 10
-23.3037
 20
40.2665
 11
-23.1387
 21
40.3573
  0
LINE
  8
0
 10
-23.1387
 20
40.3573
 11
-22.9635
 21
40.4266
  0
LINE
  8
0
 10
-22.9635
 20
40.4266
 11
-22.7811
 21
40.4734
  0
LINE
  8
0
 10
-22.7811
 20
40.4734
 11
-22.5942
 21
40.4971
  0
LINE
  8
0
 10
-22.5942
 20
40.4971
 11
-22.4058
 21
40.4971
  0
LINE
  8
0
 10
-22.4058
 20
40.4971
 11
-22.2189
 21
40.4734
  0
LINE
  8
0
 10
-22.2189
 20
40.4734
 11
-22.0365
 21
40.4266
  0
LINE
  8
0
 10
-22.0365
 20
40.4266
 11
-21.8613
 21
40.3573
  0
LINE
  8
0
 10
-21.8613
 20
40.3573
 11
-21.6963
 21
40.2665
  0
LINE
  8
0
 10
-21.6963
 20
40.2665
 11
-21.5439
 21
40.1558
  0
LINE
  8
0
 10
-21.5439
 20
40.1558
 11
-21.4065
 21
40.0268
  0
LINE
  8
0
 10
-21.4065
 20
40.0268
 11
-21.2865
 21
39.8817
  0
LINE
  8
0
 10
-21.2865
 20
39.8817
 11
-21.1855
 21
39.7226
  0
LINE
  8
0
 10
-21.1855
 20
39.7226
 11
-21.1053
 21
39.5522
  0
LINE
  8
0
 10
-21.1053
 20
39.5522
 11
-21.0471
 21
39.373
  0
LINE
  8
0
 10
-21.0471
 20
39.373
 11
-21.0118
 21
39.188
  0
LINE
  8
0
 10
-21.0118
 20
39.188
 11
-21
 21
39
  0
LINE
  8
0
 10
-21
 20
39
 11
-21.0118
 21
38.812
  0
LINE
  8
0
 10
-21.0118
 20
38.812
 11
-21.0471
 21
38.627
  0
LINE
  8
0
 10
-21.0471
 20
38.627
 11
-21.1053
 21
38.4478
  0
LINE
  8
0
 10
-21.1053
 20
38.4478
 11
-21.1855
 21
38.2774
  0
LINE
  8
0
 10
-21.1855
 20
38.2774
 11
-21.2865
 21
38.1183
  0
LINE
  8
0
 10
-21.2865
 20
38.1183
 11
-21.4065
 21
37.9732
  0
LINE
  8
0
 10
-21.4065
 20
37.9732
 11
-21.5439
 21
37.8442
  0
LINE
  8
0
 10
-21.5439
 20
37.8442
 11
-21.6963
 21
37.7335
  0
LINE
  8
0
 10
-21.6963
 20
37.7335
 11
-21.8613
 21
37.6428
  0
LINE
  8
0
 10
-21.8613
 20
37.6428
 11
-22.0365
 21
37.5734
  0
LINE
  8
0
 10
-22.0365
 20
37.5734
 11
-22.2189
 21
37.5266
  0
LINE
  8
0
 10
-22.2189
 20
37.5266
 11
-22.4058
 21
37.503
  0
LINE
  8
0
 10
-22.4058
 20
37.503
 11
-22.5942
 21
37.503
  0
LINE
  8
0
 10
37.4058
 20
37.503
 11
37.2189
 21
37.5266
  0
LINE
  8
0
 10
37.2189
 20
37.5266
 11
37.0365
 21
37.5734
  0
LINE
  8
0
 10
37.0365
 20
37.5734
 11
36.8613
 21
37.6428
  0
LINE
  8
0
 10
36.8613
 20
37.6428
 11
36.6963
 21
37.7335
  0
LINE
  8
0
 10
36.6963
 20
37.7335
 11
36.5439
 21
37.8442
  0
LINE
  8
0
 10
36.5439
 20
37.8442
 11
36.4065
 21
37.9732
  0
LINE
  8
0
 10
36.4065
 20
37.9732
 11
36.2865
 21
38.1183
  0
LINE
  8
0
 10
36.2865
 20
38.1183
 11
36.1855
 21
38.2774
  0
LINE
  8
0
 10
36.1855
 20
38.2774
 11
36.1053
 21
38.4478
  0
LINE
  8
0
 10
36.1053
 20
38.4478
 11
36.0471
 21
38.627
  0
LINE
  8
0
 10
36.0471
 20
38.627
 11
36.0118
 21
38.812
  0
LINE
  8
0
 10
36.0118
 20
38.812
 11
36
 21
39
  0
LINE
  8
0
 10
36
 20
39
 11
36.0118
 21
39.188
  0
LINE
  8
0
 10
36.0118
 20
39.188
 11
36.0471
 21
39.373
  0
LINE
  8
0
 10
36.0471
 20
39.373
 11
36.1053
 21
39.5522
  0
LINE
  8
0
 10
36.1053
 20
39.5522
 11
36.1855
 21
39.7226
  0
LINE
  8
0
 10
36.1855
 20
39.7226
 11
36.2865
 21
39.8817
  0
LINE
  8
0
 10
36.2865
 20
39.8817
 11
36.4065
 21
40.0268
  0
LINE
  8
0
 10
36.4065
 20
40.0268
 11
36.5439
 21
40.1558
  0
LINE
  8
0
 10
36.5439
 20
40.1558
 11
36.6963
 21
40.2665
  0
LINE
  8
0
 10
36.6963
 20
40.2665
 11
36.8613
 21
40.3573
  0
LINE
  8
0
 10
36.8613
 20
40.3573
 11
37.0365
 21
40.4266
  0
LINE
  8
0
 10
37.0365
 20
40.4266
 11
37.2189
 21
40.4734
  0
LINE
  8
0
 10
37.2189
 20
40.4734
 11
37.4058
 21
40.4971
  0
LINE
  8
0
 10
37.4058
 20
40.4971
 11
37.5942
 21
40.4971
  0
LINE
  8
0
 10
37.5942
 20
40.4971
 11
37.7811
 21
40.4734
  0
LINE
  8
0
 10
37.7811
 20
40.4734
 11
37.9635
 21
40.4266
  0
LINE
  8
0
 10
37.9635
 20
40.4266
 11
38.1387
 21
40.3573
  0
LINE
  8
0
 10
38.1387
 20
40.3573
 11
38.3037
 21
40.2665
  0
LINE
  8
0
 10
38.3037
 20
40.2665
 11
38.4561
 21
40.1558
  0
LINE
  8
0
 10
38.4561
 20
40.1558
 11
38.5934
 21
40.0268
  0
LINE
  8
0
 10
38.5934
 20
40.0268
 11
38.7135
 21
39.8817
  0
LINE
  8
0
 10
38.7135
 20
39.8817
 11
38.8145
 21
39.7226
  0
LINE
  8
0
 10
38.8145
 20
39.7226
 11
38.8947
 21
39.5522
  0
LINE
  8
0
 10
38.8947
 20
39.5522
 11
38.9529
 21
39.373
  0
LINE
  8
0
 10
38.9529
 20
39.373
 11
38.9882
 21
39.188
  0
LINE
  8
0
 10
38.9882
 20
39.188
 11
39
 21
39
  0
LINE
  8
0
 10
39
 20
39
 11
38.9882
 21
38.812
  0
LINE
  8
0
 10
38.9882
 20
38.812
 11
38.9529
 21
38.627
  0
LINE
  8
0
 10
38.9529
 20
38.627
 11
38.8947
 21
38.4478
  0
LINE
  8
0
 10
38.8947
 20
38.4478
 11
38.8145
 21
38.2774
  0
LINE
  8
0
 10
38.8145
 20
38.2774
 11
38.7135
 21
38.1183
  0
LINE
  8
0
 10
38.7135
 20
38.1183
 11
38.5934
 21
37.9732
  0
LINE
  8
0
 10
38.5934
 20
37.9732
 11
38.4561
 21
37.8442
  0
LINE
  8
0
 10
38.4561
 20
37.8442
 11
38.3037
 21
37.7335
  0
LINE
  8
0
 10
38.3037
 20
37.7335
 11
38.1387
 21
37.6428
  0
LINE
  8
0
 10
38.1387
 20
37.6428
 11
37.9635
 21
37.5734
  0
LINE
  8
0
 10
37.9635
 20
37.5734
 11
37.7811
 21
37.5266
  0
LINE
  8
0
 10
37.7811
 20
37.5266
 11
37.5942
 21
37.503
  0
LINE
  8
0
 10
37.5942
 20
37.503
 11
37.4058
 21
37.503
  0
LINE
  8
0
 10
22.4058
 20
37.503
 11
22.2189
 21
37.5266
  0
LINE
  8
0
 10
22.2189
 20
37.5266
 11
22.0365
 21
37.5734
  0
LINE
  8
0
 10
22.0365
 20
37.5734
 11
21.8613
 21
37.6428
  0
LINE
  8
0
 10
21.8613
 20
37.6428
 11
21.6963
 21
37.7335
  0
LINE
  8
0
 10
21.6963
 20
37.7335
 11
21.5439
 21
37.8442
  0
LINE
  8
0
 10
21.5439
 20
37.8442
 11
21.4065
 21
37.9732
  0
LINE
  8
0
 10
21.4065
 20
37.9732
 11
21.2865
 21
38.1183
  0
LINE
  8
0
 10
21.2865
 20
38.1183
 11
21.1855
 21
38.2774
  0
LINE
  8
0
 10
21.1855
 20
38.2774
 11
21.1053
 21
38.4478
  0
LINE
  8
0
 10
21.1053
 20
38.4478
 11
21.0471
 21
38.627
  0
LINE
  8
0
 10
21.0471
 20
38.627
 11
21.0118
 21
38.812
  0
LINE
  8
0
 10
21.0118
 20
38.812
 11
21
 21
39
  0
LINE
  8
0
 10
21
 20
39
 11
21.0118
 21
39.188
  0
LINE
  8
0
 10
21.0118
 20
39.188
 11
21.0471
 21
39.373
  0
LINE
  8
0
 10
21.0471
 20
39.373
 11
21.1053
 21
39.5522
  0
LINE
  8
0
 10
21.1053
 20
39.5522
 11
21.1855
 21
39.7226
  0
LINE
  8
0
 10
21.1855
 20
39.7226
 11
21.2865
 21
39.8817
  0
LINE
  8
0
 10
21.2865
 20
39.8817
 11
21.4065
 21
40.0268
  0
LINE
  8
0
 10
21.4065
 20
40.0268
 11
21.5439
 21
40.1558
  0
LINE
  8
0
 10
21.5439
 20
40.1558
 11
21.6963
 21
40.2665
  0
LINE
  8
0
 10
21.6963
 20
40.2665
 11
21.8613
 21
40.3573
  0
LINE
  8
0
 10
21.8613
 20
40.3573
 11
22.0365
 21
40.4266
  0
LINE
  8
0
 10
22.0365
 20
40.4266
 11
22.2189
 21
40.4734
  0
LINE
  8
0
 10
22.2189
 20
40.4734
 11
22.4058
 21
40.4971
  0
LINE
  8
0
 10
22.4058
 20
40.4971
 11
22.5942
 21
40.4971
  0
LINE
  8
0
 10
22.5942
 20
40.4971
 11
22.7811
 21
40.4734
  0
LINE
  8
0
 10
22.7811
 20
40.4734
 11
22.9635
 21
40.4266
  0
LINE
  8
0
 10
22.9635
 20
40.4266
 11
23.1387
 21
40.3573
  0
LINE
  8
0
 10
23.1387
 20
40.3573
 11
23.3037
 21
40.2665
  0
LINE
  8
0
 10
23.3037
 20
40.2665
 11
23.4561
 21
40.1558
  0
LINE
  8
0
 10
23.4561
 20
40.1558
 11
23.5934
 21
40.0268
  0
LINE
  8
0
 10
23.5934
 20
40.0268
 11
23.7135
 21
39.8817
  0
LINE
  8
0
 10
23.7135
 20
39.8817
 11
23.8145
 21
39.7226
  0
LINE
  8
0
 10
23.8145
 20
39.7226
 11
23.8947
 21
39.5522
  0
LINE
  8
0
 10
23.8947
 20
39.5522
 11
23.9529
 21
39.373
  0
LINE
  8
0
 10
23.9529
 20
39.373
 11
23.9882
 21
39.188
  0
LINE
  8
0
 10
23.9882
 20
39.188
 11
24
 21
39
  0
LINE
  8
0
 10
24
 20
39
 11
23.9882
 21
38.812
  0
LINE
  8
0
 10
23.9882
 20
38.812
 11
23.9529
 21
38.627
  0
LINE
  8
0
 10
23.9529
 20
38.627
 11
23.8947
 21
38.4478
  0
LINE
  8
0
 10
23.8947
 20
38.4478
 11
23.8145
 21
38.2774
  0
LINE
  8
0
 10
23.8145
 20
38.2774
 11
23.7135
 21
38.1183
  0
LINE
  8
0
 10
23.7135
 20
38.1183
 11
23.5934
 21
37.9732
  0
LINE
  8
0
 10
23.5934
 20
37.9732
 11
23.4561
 21
37.8442
  0
LINE
  8
0
 10
23.4561
 20
37.8442
 11
23.3037
 21
37.7335
  0
LINE
  8
0
 10
23.3037
 20
37.7335
 11
23.1387
 21
37.6428
  0
LINE
  8
0
 10
23.1387
 20
37.6428
 11
22.9635
 21
37.5734
  0
LINE
  8
0
 10
22.9635
 20
37.5734
 11
22.7811
 21
37.5266
  0
LINE
  8
0
 10
22.7811
 20
37.5266
 11
22.5942
 21
37.503
  0
LINE
  8
0
 10
22.5942
 20
37.503
 11
22.4058
 21
37.503
  0
ENDSEC
  0
SECTION
  2
OBJECTS
  0
DICTIONARY
  0
ENDSEC
  0
EOF
