<?xml version="1.0" standalone="no"?>
<!DOCTYPE svg PUBLIC "-//W3C//DTD SVG 1.1//EN" "http://www.w3.org/Graphics/SVG/1.1/DTD/svg11.dtd">
<svg width="150mm" height="60mm" viewBox="-75 -99 150 60" xmlns="http://www.w3.org/2000/svg" version="1.1">
<title>OpenSCAD Model</title>
<path d="
M 70.4369,-39.5886 L 71.0451,-39.7447 L 71.6289,-39.9759 L 72.1791,-40.2784 L 72.6871,-40.6474 L 73.1448,-41.0773
 L 73.5451,-41.5611 L 73.8815,-42.0912 L 74.1489,-42.6594 L 74.3429,-43.2566 L 74.4606,-43.8733 L 74.5,-44.5
 L 74.5,-93.5 L 74.4606,-94.1267 L 74.3429,-94.7434 L 74.1489,-95.3406 L 73.8815,-95.9088 L 73.5451,-96.4389
 L 73.1448,-96.9227 L 72.6871,-97.3526 L 72.1791,-97.7216 L 71.6289,-98.0241 L 71.0451,-98.2553 L 70.4369,-98.4114
 L 69.8139,-98.4901 L -69.8139,-98.4901 L -70.4369,-98.4114 L -71.0451,-98.2553 L -71.6289,-98.0241 L -72.1791,-97.7216
 L -72.6871,-97.3526 L -73.1448,-96.9227 L -73.5451,-96.4389 L -73.8815,-95.9088 L -74.1489,-95.3406 L -74.3429,-94.7434
 L -74.4606,-94.1267 L -74.5,-93.5 L -74.5,-44.5 L -74.4606,-43.8733 L -74.3429,-43.2566 L -74.1489,-42.6594
 L -73.8815,-42.0912 L -73.5451,-41.5611 L -73.1448,-41.0773 L -72.6871,-40.6474 L -72.1791,-40.2784 L -71.6289,-39.9759
 L -71.0451,-39.7447 L -70.4369,-39.5886 L -69.8139,-39.5099 L 69.8139,-39.5099 z
M -7.68837,-88.5059 L -8.06213,-88.5531 L -8.42705,-88.6468 L -8.77733,-88.7855 L -9.10747,-88.967 L -9.41226,-89.1884
 L -9.6869,-89.4464 L -9.92705,-89.7366 L -10.1289,-90.0547 L -10.2893,-90.3956 L -10.4057,-90.7539 L -10.4763,-91.124
 L -10.5,-91.5 L -10.4763,-91.876 L -10.4057,-92.2461 L -10.2893,-92.6044 L -10.1289,-92.9453 L -9.92705,-93.2634
 L -9.6869,-93.5536 L -9.41226,-93.8115 L -9.10747,-94.033 L -8.77733,-94.2145 L -8.42705,-94.3532 L -8.06213,-94.4469
 L -7.68837,-94.4941 L -7.31161,-94.4941 L -6.93785,-94.4469 L -6.57294,-94.3532 L -6.22266,-94.2145 L -5.89252,-94.033
 L -5.58772,-93.8115 L -5.31308,-93.5536 L -5.07294,-93.2634 L -4.87108,-92.9453 L -4.71066,-92.6044 L -4.59424,-92.2461
 L -4.52365,-91.876 L -4.5,-91.5 L -4.52365,-91.124 L -4.59424,-90.7539 L -4.71066,-90.3956 L -4.87108,-90.0547
 L -5.07294,-89.7366 L -5.31308,-89.4464 L -5.58772,-89.1884 L -5.89252,-88.967 L -6.22266,-88.7855 L -6.57294,-88.6468
 L -6.93785,-88.5531 L -7.31161,-88.5059 z
M -22.6884,-88.5059 L -23.0621,-88.5531 L -23.427,-88.6468 L -23.7773,-88.7855 L -24.1075,-88.967 L -24.4123,-89.1884
 L -24.6869,-89.4464 L -24.927,-89.7366 L -25.1289,-90.0547 L -25.2893,-90.3956 L -25.4057,-90.7539 L -25.4763,-91.124
 L -25.5,-91.5 L -25.4763,-91.876 L -25.4057,-92.2461 L -25.2893,-92.6044 L -25.1289,-92.9453 L -24.927,-93.2634
 L -24.6869,-93.5536 L -24.4123,-93.8115 L -24.1075,-94.033 L -23.7773,-94.2145 L -23.427,-94.3532 L -23.0621,-94.4469
 L -22.6884,-94.4941 L -22.3116,-94.4941 L -21.9379,-94.4469 L -21.5729,-94.3532 L -21.2227,-94.2145 L -20.8925,-94.033
 L -20.5877,-93.8115 L -20.3131,-93.5536 L -20.0729,-93.2634 L -19.8711,-92.9453 L -19.7107,-92.6044 L -19.5942,-92.2461
 L -19.5237,-91.876 L -19.5,-91.5 L -19.5237,-91.124 L -19.5942,-90.7539 L -19.7107,-90.3956 L -19.8711,-90.0547
 L -20.0729,-89.7366 L -20.3131,-89.4464 L -20.5877,-89.1884 L -20.8925,-88.967 L -21.2227,-88.7855 L -21.5729,-88.6468
 L -21.9379,-88.5531 L -22.3116,-88.5059 z
M -37.6884,-88.5059 L -38.0621,-88.5531 L -38.427,-88.6468 L -38.7773,-88.7855 L -39.1075,-88.967 L -39.4123,-89.1884
 L -39.6869,-89.4464 L -39.927,-89.7366 L -40.1289,-90.0547 L -40.2893,-90.3956 L -40.4057,-90.7539 L -40.4763,-91.124
 L -40.5,-91.5 L -40.4763,-91.876 L -40.4057,-92.2461 L -40.2893,-92.6044 L -40.1289,-92.9453 L -39.927,-93.2634
 L -39.6869,-93.5536 L -39.4123,-93.8115 L -39.1075,-94.033 L -38.7773,-94.2145 L -38.427,-94.3532 L -38.0621,-94.4469
 L -37.6884,-94.4941 L -37.3116,-94.4941 L -36.9379,-94.4469 L -36.5729,-94.3532 L -36.2227,-94.2145 L -35.8925,-94.033
 L -35.5877,-93.8115 L -35.3131,-93.5536 L -35.0729,-93.2634 L -34.8711,-92.9453 L -34.7107,-92.6044 L -34.5942,-92.2461
 L -34.5237,-91.876 L -34.5,-91.5 L -34.5237,-91.124 L -34.5942,-90.7539 L -34.7107,-90.3956 L -34.8711,-90.0547
 L -35.0729,-89.7366 L -35.3131,-89.4464 L -35.5877,-89.1884 L -35.8925,-88.967 L -36.2227,-88.7855 L -36.5729,-88.6468
 L -36.9379,-88.5531 L -37.3116,-88.5059 z
M -67.6884,-88.5059 L -68.0621,-88.5531 L -68.427,-88.6468 L -68.7773,-88.7855 L -69.1075,-88.967 L -69.4123,-89.1884
 L -69.6869,-89.4464 L -69.927,-89.7366 L -70.1289,-90.0547 L -70.2893,-90.3956 L -70.4057,-90.7539 L -70.4763,-91.124
 L -70.5,-91.5 L -70.4763,-91.876 L -70.4057,-92.2461 L -70.2893,-92.6044 L -70.1289,-92.9453 L -69.927,-93.2634
 L -69.6869,-93.5536 L -69.4123,-93.8115 L -69.1075,-94.033 L -68.7773,-94.2145 L -68.427,-94.3532 L -68.0621,-94.4469
 L -67.6884,-94.4941 L -67.3116,-94.4941 L -66.9379,-94.4469 L -66.573,-94.3532 L -66.2227,-94.2145 L -65.8925,-94.033
 L -65.5877,-93.8115 L -65.3131,-93.5536 L -65.073,-93.2634 L -64.8711,-92.9453 L -64.7107,-92.6044 L -64.5943,-92.2461
 L -64.5237,-91.876 L -64.5,-91.5 L -64.5237,-91.124 L -64.5943,-90.7539 L -64.7107,-90.3956 L -64.8711,-90.0547
 L -65.073,-89.7366 L -65.3131,-89.4464 L -65.5877,-89.1884 L -65.8925,-88.967 L -66.2227,-88.7855 L -66.573,-88.6468
 L -66.9379,-88.5531 L -67.3116,-88.5059 z
M 52.3116,-88.5059 L 51.9379,-88.5531 L 51.5729,-88.6468 L 51.2227,-88.7855 L 50.8925,-88.967 L 50.5877,-89.1884
 L 50.3131,-89.4464 L 50.0729,-89.7366 L 49.8711,-90.0547 L 49.7107,-90.3956 L 49.5942,-90.7539 L 49.5237,-91.124
 L 49.5,-91.5 L 49.5237,-91.876 L 49.5942,-92.2461 L 49.7107,-92.6044 L 49.8711,-92.9453 L 50.0729,-93.2634
 L 50.3131,-93.5536 L 50.5877,-93.8115 L 50.8925,-94.033 L 51.2227,-94.2145 L 51.5729,-94.3532 L 51.9379,-94.4469
 L 52.3116,-94.4941 L 52.6884,-94.4941 L 53.0621,-94.4469 L 53.427,-94.3532 L 53.7773,-94.2145 L 54.1075,-94.033
 L 54.4123,-93.8115 L 54.6869,-93.5536 L 54.927,-93.2634 L 55.1289,-92.9453 L 55.2893,-92.6044 L 55.4057,-92.2461
 L 55.4763,-91.876 L 55.5,-91.5 L 55.4763,-91.124 L 55.4057,-90.7539 L 55.2893,-90.3956 L 55.1289,-90.0547
 L 54.927,-89.7366 L 54.6869,-89.4464 L 54.4123,-89.1884 L 54.1075,-88.967 L 53.7773,-88.7855 L 53.427,-88.6468
 L 53.0621,-88.5531 L 52.6884,-88.5059 z
M 37.3116,-88.5059 L 36.9379,-88.5531 L 36.5729,-88.6468 L 36.2227,-88.7855 L 35.8925,-88.967 L 35.5877,-89.1884
 L 35.3131,-89.4464 L 35.0729,-89.7366 L 34.8711,-90.0547 L 34.7107,-90.3956 L 34.5942,-90.7539 L 34.5237,-91.124
 L 34.5,-91.5 L 34.5237,-91.876 L 34.5942,-92.2461 L 34.7107,-92.6044 L 34.8711,-92.9453 L 35.0729,-93.2634
 L 35.3131,-93.5536 L 35.5877,-93.8115 L 35.8925,-94.033 L 36.2227,-94.2145 L 36.5729,-94.3532 L 36.9379,-94.4469
 L 37.3116,-94.4941 L 37.6884,-94.4941 L 38.0621,-94.4469 L 38.427,-94.3532 L 38.7773,-94.2145 L 39.1075,-94.033
 L 39.4123,-93.8115 L 39.6869,-93.5536 L 39.927,-93.2634 L 40.1289,-92.9453 L 40.2893,-92.6044 L 40.4057,-92.2461
 L 40.4763,-91.876 L 40.5,-91.5 L 40.4763,-91.124 L 40.4057,-90.7539 L 40.2893,-90.3956 L 40.1289,-90.0547
 L 39.927,-89.7366 L 39.6869,-89.4464 L 39.4123,-89.1884 L 39.1075,-88.967 L 38.7773,-88.7855 L 38.427,-88.6468
 L 38.0621,-88.5531 L 37.6884,-88.5059 z
M 22.3116,-88.5059 L 21.9379,-88.5531 L 21.5729,-88.6468 L 21.2227,-88.7855 L 20.8925,-88.967 L 20.5877,-89.1884
 L 20.3131,-89.4464 L 20.0729,-89.7366 L 19.8711,-90.0547 L 19.7107,-90.3956 L 19.5942,-90.7539 L 19.5237,-91.124
 L 19.5,-91.5 L 19.5237,-91.876 L 19.5942,-92.2461 L 19.7107,-92.6044 L 19.8711,-92.9453 L 20.0729,-93.2634
 L 20.3131,-93.5536 L 20.5877,-93.8115 L 20.8925,-94.033 L 21.2227,-94.2145 L 21.5729,-94.3532 L 21.9379,-94.4469
 L 22.3116,-94.4941 L 22.6884,-94.4941 L 23.0621,-94.4469 L 23.427,-94.3532 L 23.7773,-94.2145 L 24.1075,-94.033
 L 24.4123,-93.8115 L 24.6869,-93.5536 L 24.927,-93.2634 L 25.1289,-92.9453 L 25.2893,-92.6044 L 25.4057,-92.2461
 L 25.4763,-91.876 L 25.5,-91.5 L 25.4763,-91.124 L 25.4057,-90.7539 L 25.2893,-90.3956 L 25.1289,-90.0547
 L 24.927,-89.7366 L 24.6869,-89.4464 L 24.4123,-89.1884 L 24.1075,-88.967 L 23.7773,-88.7855 L 23.427,-88.6468
 L 23.0621,-88.5531 L 22.6884,-88.5059 z
M 7.31161,-88.5059 L 6.93785,-88.5531 L 6.57294,-88.6468 L 6.22266,-88.7855 L 5.89252,-88.967 L 5.58772,-89.1884
 L 5.31308,-89.4464 L 5.07294,-89.7366 L 4.87108,-90.0547 L 4.71066,-90.3956 L 4.59424,-90.7539 L 4.52365,-91.124
 L 4.5,-91.5 L 4.52365,-91.876 L 4.59424,-92.2461 L 4.71066,-92.6044 L 4.87108,-92.9453 L 5.07294,-93.2634
 L 5.31308,-93.5536 L 5.58772,-93.8115 L 5.89252,-94.033 L 6.22266,-94.2145 L 6.57294,-94.3532 L 6.93785,-94.4469
 L 7.31161,-94.4941 L 7.68837,-94.4941 L 8.06213,-94.4469 L 8.42705,-94.3532 L 8.77733,-94.2145 L 9.10747,-94.033
 L 9.41226,-93.8115 L 9.6869,-93.5536 L 9.92705,-93.2634 L 10.1289,-92.9453 L 10.2893,-92.6044 L 10.4057,-92.2461
 L 10.4763,-91.876 L 10.5,-91.5 L 10.4763,-91.124 L 10.4057,-90.7539 L 10.2893,-90.3956 L 10.1289,-90.0547
 L 9.92705,-89.7366 L 9.6869,-89.4464 L 9.41226,-89.1884 L 9.10747,-88.967 L 8.77733,-88.7855 L 8.42705,-88.6468
 L 8.06213,-88.5531 L 7.68837,-88.5059 z
M 67.3116,-88.5059 L 66.9379,-88.5531 L 66.573,-88.6468 L 66.2227,-88.7855 L 65.8925,-88.967 L 65.5877,-89.1884
 L 65.3131,-89.4464 L 65.073,-89.7366 L 64.8711,-90.0547 L 64.7107,-90.3956 L 64.5943,-90.7539 L 64.5237,-91.124
 L 64.5,-91.5 L 64.5237,-91.876 L 64.5943,-92.2461 L 64.7107,-92.6044 L 64.8711,-92.9453 L 65.073,-93.2634
 L 65.3131,-93.5536 L 65.5877,-93.8115 L 65.8925,-94.033 L 66.2227,-94.2145 L 66.573,-94.3532 L 66.9379,-94.4469
 L 67.3116,-94.4941 L 67.6884,-94.4941 L 68.0621,-94.4469 L 68.427,-94.3532 L 68.7773,-94.2145 L 69.1075,-94.033
 L 69.4123,-93.8115 L 69.6869,-93.5536 L 69.927,-93.2634 L 70.1289,-92.9453 L 70.2893,-92.6044 L 70.4057,-92.2461
 L 70.4763,-91.876 L 70.5,-91.5 L 70.4763,-91.124 L 70.4057,-90.7539 L 70.2893,-90.3956 L 70.1289,-90.0547
 L 69.927,-89.7366 L 69.6869,-89.4464 L 69.4123,-89.1884 L 69.1075,-88.967 L 68.7773,-88.7855 L 68.427,-88.6468
 L 68.0621,-88.5531 L 67.6884,-88.5059 z
M -52.6884,-88.5059 L -53.0621,-88.5531 L -53.427,-88.6468 L -53.7773,-88.7855 L -54.1075,-88.967 L -54.4123,-89.1884
 L -54.6869,-89.4464 L -54.927,-89.7366 L -55.1289,-90.0547 L -55.2893,-90.3956 L -55.4057,-90.7539 L -55.4763,-91.124
 L -55.5,-91.5 L -55.4763,-91.876 L -55.4057,-92.2461 L -55.2893,-92.6044 L -55.1289,-92.9453 L -54.927,-93.2634
 L -54.6869,-93.5536 L -54.4123,-93.8115 L -54.1075,-94.033 L -53.7773,-94.2145 L -53.427,-94.3532 L -53.0621,-94.4469
 L -52.6884,-94.4941 L -52.3116,-94.4941 L -51.9379,-94.4469 L -51.5729,-94.3532 L -51.2227,-94.2145 L -50.8925,-94.033
 L -50.5877,-93.8115 L -50.3131,-93.5536 L -50.0729,-93.2634 L -49.8711,-92.9453 L -49.7107,-92.6044 L -49.5942,-92.2461
 L -49.5237,-91.876 L -49.5,-91.5 L -49.5237,-91.124 L -49.5942,-90.7539 L -49.7107,-90.3956 L -49.8711,-90.0547
 L -50.0729,-89.7366 L -50.3131,-89.4464 L -50.5877,-89.1884 L -50.8925,-88.967 L -51.2227,-88.7855 L -51.5729,-88.6468
 L -51.9379,-88.5531 L -52.3116,-88.5059 z
M -15.0942,-90.003 L -15.2811,-90.0266 L -15.4635,-90.0734 L -15.6387,-90.1427 L -15.8037,-90.2335 L -15.9561,-90.3442
 L -16.0934,-90.4732 L -16.2135,-90.6183 L -16.3145,-90.7774 L -16.3947,-90.9478 L -16.4529,-91.127 L -16.4882,-91.312
 L -16.5,-91.5 L -16.4882,-91.688 L -16.4529,-91.873 L -16.3947,-92.0522 L -16.3145,-92.2226 L -16.2135,-92.3817
 L -16.0934,-92.5268 L -15.9561,-92.6558 L -15.8037,-92.7665 L -15.6387,-92.8572 L -15.4635,-92.9266 L -15.2811,-92.9734
 L -15.0942,-92.997 L -14.9058,-92.997 L -14.7189,-92.9734 L -14.5365,-92.9266 L -14.3613,-92.8572 L -14.1963,-92.7665
 L -14.0439,-92.6558 L -13.9065,-92.5268 L -13.7865,-92.3817 L -13.6855,-92.2226 L -13.6053,-92.0522 L -13.5471,-91.873
 L -13.5118,-91.688 L -13.5,-91.5 L -13.5118,-91.312 L -13.5471,-91.127 L -13.6053,-90.9478 L -13.6855,-90.7774
 L -13.7865,-90.6183 L -13.9065,-90.4732 L -14.0439,-90.3442 L -14.1963,-90.2335 L -14.3613,-90.1427 L -14.5365,-90.0734
 L -14.7189,-90.0266 L -14.9058,-90.003 z
M -45.0942,-90.003 L -45.2811,-90.0266 L -45.4635,-90.0734 L -45.6387,-90.1427 L -45.8037,-90.2335 L -45.9561,-90.3442
 L -46.0934,-90.4732 L -46.2135,-90.6183 L -46.3145,-90.7774 L -46.3947,-90.9478 L -46.4529,-91.127 L -46.4882,-91.312
 L -46.5,-91.5 L -46.4882,-91.688 L -46.4529,-91.873 L -46.3947,-92.0522 L -46.3145,-92.2226 L -46.2135,-92.3817
 L -46.0934,-92.5268 L -45.9561,-92.6558 L -45.8037,-92.7665 L -45.6387,-92.8572 L -45.4635,-92.9266 L -45.2811,-92.9734
 L -45.0942,-92.997 L -44.9058,-92.997 L -44.7189,-92.9734 L -44.5365,-92.9266 L -44.3613,-92.8572 L -44.1963,-92.7665
 L -44.0439,-92.6558 L -43.9065,-92.5268 L -43.7865,-92.3817 L -43.6855,-92.2226 L -43.6053,-92.0522 L -43.5471,-91.873
 L -43.5118,-91.688 L -43.5,-91.5 L -43.5118,-91.312 L -43.5471,-91.127 L -43.6053,-90.9478 L -43.6855,-90.7774
 L -43.7865,-90.6183 L -43.9065,-90.4732 L -44.0439,-90.3442 L -44.1963,-90.2335 L -44.3613,-90.1427 L -44.5365,-90.0734
 L -44.7189,-90.0266 L -44.9058,-90.003 z
M 29.9058,-90.003 L 29.7189,-90.0266 L 29.5365,-90.0734 L 29.3613,-90.1427 L 29.1963,-90.2335 L 29.0439,-90.3442
 L 28.9065,-90.4732 L 28.7865,-90.6183 L 28.6855,-90.7774 L 28.6053,-90.9478 L 28.5471,-91.127 L 28.5118,-91.312
 L 28.5,-91.5 L 28.5118,-91.688 L 28.5471,-91.873 L 28.6053,-92.0522 L 28.6855,-92.2226 L 28.7865,-92.3817
 L 28.9065,-92.5268 L 29.0439,-92.6558 L 29.1963,-92.7665 L 29.3613,-92.8572 L 29.5365,-92.9266 L 29.7189,-92.9734
 L 29.9058,-92.997 L 30.0942,-92.997 L 30.2811,-92.9734 L 30.4635,-92.9266 L 30.6387,-92.8572 L 30.8037,-92.7665
 L 30.9561,-92.6558 L 31.0934,-92.5268 L 31.2135,-92.3817 L 31.3145,-92.2226 L 31.3947,-92.0522 L 31.4529,-91.873
 L 31.4882,-91.688 L 31.5,-91.5 L 31.4882,-91.312 L 31.4529,-91.127 L 31.3947,-90.9478 L 31.3145,-90.7774
 L 31.2135,-90.6183 L 31.0934,-90.4732 L 30.9561,-90.3442 L 30.8037,-90.2335 L 30.6387,-90.1427 L 30.4635,-90.0734
 L 30.2811,-90.0266 L 30.0942,-90.003 z
M 44.9058,-90.003 L 44.7189,-90.0266 L 44.5365,-90.0734 L 44.3613,-90.1427 L 44.1963,-90.2335 L 44.0439,-90.3442
 L 43.9065,-90.4732 L 43.7865,-90.6183 L 43.6855,-90.7774 L 43.6053,-90.9478 L 43.5471,-91.127 L 43.5118,-91.312
 L 43.5,-91.5 L 43.5118,-91.688 L 43.5471,-91.873 L 43.6053,-92.0522 L 43.6855,-92.2226 L 43.7865,-92.3817
 L 43.9065,-92.5268 L 44.0439,-92.6558 L 44.1963,-92.7665 L 44.3613,-92.8572 L 44.5365,-92.9266 L 44.7189,-92.9734
 L 44.9058,-92.997 L 45.0942,-92.997 L 45.2811,-92.9734 L 45.4635,-92.9266 L 45.6387,-92.8572 L 45.8037,-92.7665
 L 45.9561,-92.6558 L 46.0934,-92.5268 L 46.2135,-92.3817 L 46.3145,-92.2226 L 46.3947,-92.0522 L 46.4529,-91.873
 L 46.4882,-91.688 L 46.5,-91.5 L 46.4882,-91.312 L 46.4529,-91.127 L 46.3947,-90.9478 L 46.3145,-90.7774
 L 46.2135,-90.6183 L 46.0934,-90.4732 L 45.9561,-90.3442 L 45.8037,-90.2335 L 45.6387,-90.1427 L 45.4635,-90.0734
 L 45.2811,-90.0266 L 45.0942,-90.003 z
M 59.9058,-90.003 L 59.7189,-90.0266 L 59.5365,-90.0734 L 59.3613,-90.1427 L 59.1963,-90.2335 L 59.0439,-90.3442
 L 58.9065,-90.4732 L 58.7865,-90.6183 L 58.6855,-90.7774 L 58.6053,-90.9478 L 58.5471,-91.127 L 58.5118,-91.312
 L 58.5,-91.5 L 58.5118,-91.688 L 58.5471,-91.873 L 58.6053,-92.0522 L 58.6855,-92.2226 L 58.7865,-92.3817
 L 58.9065,-92.5268 L 59.0439,-92.6558 L 59.1963,-92.7665 L 59.3613,-92.8572 L 59.5365,-92.9266 L 59.7189,-92.9734
 L 59.9058,-92.997 L 60.0942,-92.997 L 60.2811,-92.9734 L 60.4635,-92.9266 L 60.6387,-92.8572 L 60.8037,-92.7665
 L 60.9561,-92.6558 L 61.0934,-92.5268 L 61.2135,-92.3817 L 61.3145,-92.2226 L 61.3947,-92.0522 L 61.4529,-91.873
 L 61.4882,-91.688 L 61.5,-91.5 L 61.4882,-91.312 L 61.4529,-91.127 L 61.3947,-90.9478 L 61.3145,-90.7774
 L 61.2135,-90.6183 L 61.0934,-90.4732 L 60.9561,-90.3442 L 60.8037,-90.2335 L 60.6387,-90.1427 L 60.4635,-90.0734
 L 60.2811,-90.0266 L 60.0942,-90.003 z
M 14.9058,-90.003 L 14.7189,-90.0266 L 14.5365,-90.0734 L 14.3613,-90.1427 L 14.1963,-90.2335 L 14.0439,-90.3442
 L 13.9065,-90.4732 L 13.7865,-90.6183 L 13.6855,-90.7774 L 13.6053,-90.9478 L 13.5471,-91.127 L 13.5118,-91.312
 L 13.5,-91.5 L 13.5118,-91.688 L 13.5471,-91.873 L 13.6053,-92.0522 L 13.6855,-92.2226 L 13.7865,-92.3817
 L 13.9065,-92.5268 L 14.0439,-92.6558 L 14.1963,-92.7665 L 14.3613,-92.8572 L 14.5365,-92.9266 L 14.7189,-92.9734
 L 14.9058,-92.997 L 15.0942,-92.997 L 15.2811,-92.9734 L 15.4635,-92.9266 L 15.6387,-92.8572 L 15.8037,-92.7665
 L 15.9561,-92.6558 L 16.0934,-92.5268 L 16.2135,-92.3817 L 16.3145,-92.2226 L 16.3947,-92.0522 L 16.4529,-91.873
 L 16.4882,-91.688 L 16.5,-91.5 L 16.4882,-91.312 L 16.4529,-91.127 L 16.3947,-90.9478 L 16.3145,-90.7774
 L 16.2135,-90.6183 L 16.0934,-90.4732 L 15.9561,-90.3442 L 15.8037,-90.2335 L 15.6387,-90.1427 L 15.4635,-90.0734
 L 15.2811,-90.0266 L 15.0942,-90.003 z
M -0.0941772,-90.003 L -0.281067,-90.0266 L -0.463516,-90.0734 L -0.638657,-90.1427 L -0.803726,-90.2335 L -0.956131,-90.3442
 L -1.09344,-90.4732 L -1.21352,-90.6183 L -1.31445,-90.7774 L -1.39465,-90.9478 L -1.45287,-91.127 L -1.48816,-91.312
 L -1.5,-91.5 L -1.48816,-91.688 L -1.45287,-91.873 L -1.39465,-92.0522 L -1.31445,-92.2226 L -1.21352,-92.3817
 L -1.09344,-92.5268 L -0.956131,-92.6558 L -0.803726,-92.7665 L -0.638657,-92.8572 L -0.463516,-92.9266 L -0.281067,-92.9734
 L -0.0941772,-92.997 L 0.0941772,-92.997 L 0.281067,-92.9734 L 0.463516,-92.9266 L 0.638657,-92.8572 L 0.803726,-92.7665
 L 0.956131,-92.6558 L 1.09344,-92.5268 L 1.21352,-92.3817 L 1.31445,-92.2226 L 1.39465,-92.0522 L 1.45287,-91.873
 L 1.48816,-91.688 L 1.5,-91.5 L 1.48816,-91.312 L 1.45287,-91.127 L 1.39465,-90.9478 L 1.31445,-90.7774
 L 1.21352,-90.6183 L 1.09344,-90.4732 L 0.956131,-90.3442 L 0.803726,-90.2335 L 0.638657,-90.1427 L 0.463516,-90.0734
 L 0.281067,-90.0266 L 0.0941772,-90.003 z
M -60.0942,-90.003 L -60.2811,-90.0266 L -60.4635,-90.0734 L -60.6387,-90.1427 L -60.8037,-90.2335 L -60.9561,-90.3442
 L -61.0934,-90.4732 L -61.2135,-90.6183 L -61.3145,-90.7774 L -61.3947,-90.9478 L -61.4529,-91.127 L -61.4882,-91.312
 L -61.5,-91.5 L -61.4882,-91.688 L -61.4529,-91.873 L -61.3947,-92.0522 L -61.3145,-92.2226 L -61.2135,-92.3817
 L -61.0934,-92.5268 L -60.9561,-92.6558 L -60.8037,-92.7665 L -60.6387,-92.8572 L -60.4635,-92.9266 L -60.2811,-92.9734
 L -60.0942,-92.997 L -59.9058,-92.997 L -59.7189,-92.9734 L -59.5365,-92.9266 L -59.3613,-92.8572 L -59.1963,-92.7665
 L -59.0439,-92.6558 L -58.9065,-92.5268 L -58.7865,-92.3817 L -58.6855,-92.2226 L -58.6053,-92.0522 L -58.5471,-91.873
 L -58.5118,-91.688 L -58.5,-91.5 L -58.5118,-91.312 L -58.5471,-91.127 L -58.6053,-90.9478 L -58.6855,-90.7774
 L -58.7865,-90.6183 L -58.9065,-90.4732 L -59.0439,-90.3442 L -59.1963,-90.2335 L -59.3613,-90.1427 L -59.5365,-90.0734
 L -59.7189,-90.0266 L -59.9058,-90.003 z
M -30.0942,-90.003 L -30.2811,-90.0266 L -30.4635,-90.0734 L -30.6387,-90.1427 L -30.8037,-90.2335 L -30.9561,-90.3442
 L -31.0934,-90.4732 L -31.2135,-90.6183 L -31.3145,-90.7774 L -31.3947,-90.9478 L -31.4529,-91.127 L -31.4882,-91.312
 L -31.5,-91.5 L -31.4882,-91.688 L -31.4529,-91.873 L -31.3947,-92.0522 L -31.3145,-92.2226 L -31.2135,-92.3817
 L -31.0934,-92.5268 L -30.9561,-92.6558 L -30.8037,-92.7665 L -30.6387,-92.8572 L -30.4635,-92.9266 L -30.2811,-92.9734
 L -30.0942,-92.997 L -29.9058,-92.997 L -29.7189,-92.9734 L -29.5365,-92.9266 L -29.3613,-92.8572 L -29.1963,-92.7665
 L -29.0439,-92.6558 L -28.9065,-92.5268 L -28.7865,-92.3817 L -28.6855,-92.2226 L -28.6053,-92.0522 L -28.5471,-91.873
 L -28.5118,-91.688 L -28.5,-91.5 L -28.5118,-91.312 L -28.5471,-91.127 L -28.6053,-90.9478 L -28.6855,-90.7774
 L -28.7865,-90.6183 L -28.9065,-90.4732 L -29.0439,-90.3442 L -29.1963,-90.2335 L -29.3613,-90.1427 L -29.5365,-90.0734
 L -29.7189,-90.0266 L -29.9058,-90.003 z
M -67.5942,-82.5029 L -67.7811,-82.5266 L -67.9635,-82.5734 L -68.1387,-82.6427 L -68.3037,-82.7335 L -68.4561,-82.8442
 L -68.5934,-82.9732 L -68.7135,-83.1183 L -68.8145,-83.2774 L -68.8947,-83.4478 L -68.9529,-83.627 L -68.9882,-83.812
 L -69,-84 L -68.9882,-84.188 L -68.9529,-84.373 L -68.8947,-84.5522 L -68.8145,-84.7226 L -68.7135,-84.8817
 L -68.5934,-85.0268 L -68.4561,-85.1558 L -68.3037,-85.2665 L -68.1387,-85.3572 L -67.9635,-85.4266 L -67.7811,-85.4734
 L -67.5942,-85.497 L -67.4058,-85.497 L -67.2189,-85.4734 L -67.0365,-85.4266 L -66.8613,-85.3572 L -66.6963,-85.2665
 L -66.5439,-85.1558 L -66.4065,-85.0268 L -66.2865,-84.8817 L -66.1855,-84.7226 L -66.1053,-84.5522 L -66.0471,-84.373
 L -66.0118,-84.188 L -66,-84 L -66.0118,-83.812 L -66.0471,-83.627 L -66.1053,-83.4478 L -66.1855,-83.2774
 L -66.2865,-83.1183 L -66.4065,-82.9732 L -66.5439,-82.8442 L -66.6963,-82.7335 L -66.8613,-82.6427 L -67.0365,-82.5734
 L -67.2189,-82.5266 L -67.4058,-82.5029 z
M 67.4058,-82.5029 L 67.2189,-82.5266 L 67.0365,-82.5734 L 66.8613,-82.6427 L 66.6963,-82.7335 L 66.5439,-82.8442
 L 66.4065,-82.9732 L 66.2865,-83.1183 L 66.1855,-83.2774 L 66.1053,-83.4478 L 66.0471,-83.627 L 66.0118,-83.812
 L 66,-84 L 66.0118,-84.188 L 66.0471,-84.373 L 66.1053,-84.5522 L 66.1855,-84.7226 L 66.2865,-84.8817
 L 66.4065,-85.0268 L 66.5439,-85.1558 L 66.6963,-85.2665 L 66.8613,-85.3572 L 67.0365,-85.4266 L 67.2189,-85.4734
 L 67.4058,-85.497 L 67.5942,-85.497 L 67.7811,-85.4734 L 67.9635,-85.4266 L 68.1387,-85.3572 L 68.3037,-85.2665
 L 68.4561,-85.1558 L 68.5934,-85.0268 L 68.7135,-84.8817 L 68.8145,-84.7226 L 68.8947,-84.5522 L 68.9529,-84.373
 L 68.9882,-84.188 L 69,-84 L 68.9882,-83.812 L 68.9529,-83.627 L 68.8947,-83.4478 L 68.8145,-83.2774
 L 68.7135,-83.1183 L 68.5934,-82.9732 L 68.4561,-82.8442 L 68.3037,-82.7335 L 68.1387,-82.6427 L 67.9635,-82.5734
 L 67.7811,-82.5266 L 67.5942,-82.5029 z
M 14.6837,-56.0257 L 13.064,-56.2303 L 11.4828,-56.6363 L 9.96486,-57.2373 L 8.53424,-58.0237 L 7.21349,-58.9833
 L 6.02341,-60.1009 L 4.98277,-61.3588 L 4.108,-62.7372 L 3.4129,-64.2144 L 2.90842,-65.767 L 2.60251,-67.3707
 L 2.5,-69 L 2.60251,-70.6293 L 2.90842,-72.233 L 3.4129,-73.7856 L 4.108,-75.2628 L 4.98277,-76.6412
 L 6.02341,-77.8991 L 7.21349,-79.0167 L 8.53424,-79.9763 L 9.96486,-80.7627 L 11.4828,-81.3637 L 13.064,-81.7697
 L 14.6837,-81.9743 L 16.3163,-81.9743 L 17.9359,-81.7697 L 19.5172,-81.3637 L 21.0351,-80.7627 L 22.4657,-79.9763
 L 23.7865,-79.0167 L 24.9766,-77.8991 L 26.0172,-76.6412 L 26.892,-75.2628 L 27.5871,-73.7856 L 28.0916,-72.233
 L 28.3975,-70.6293 L 28.5,-69 L 28.3975,-67.3707 L 28.0916,-65.767 L 27.5871,-64.2144 L 26.892,-62.7372
 L 26.0172,-61.3588 L 24.9766,-60.1009 L 23.7865,-58.9833 L 22.4657,-58.0237 L 21.0351,-57.2373 L 19.5172,-56.6363
 L 17.9359,-56.2303 L 16.3163,-56.0257 z
M -47.3163,-56.0257 L -48.936,-56.2303 L -50.5172,-56.6363 L -52.0351,-57.2373 L -53.4657,-58.0237 L -54.7865,-58.9833
 L -55.9766,-60.1009 L -57.0172,-61.3588 L -57.892,-62.7372 L -58.5871,-64.2144 L -59.0916,-65.767 L -59.3975,-67.3707
 L -59.5,-69 L -59.3975,-70.6293 L -59.0916,-72.233 L -58.5871,-73.7856 L -57.892,-75.2628 L -57.0172,-76.6412
 L -55.9766,-77.8991 L -54.7865,-79.0167 L -53.4657,-79.9763 L -52.0351,-80.7627 L -50.5172,-81.3637 L -48.936,-81.7697
 L -47.3163,-81.9743 L -45.6837,-81.9743 L -44.064,-81.7697 L -42.4828,-81.3637 L -40.9649,-80.7627 L -39.5342,-79.9763
 L -38.2135,-79.0167 L -37.0234,-77.8991 L -35.9828,-76.6412 L -35.108,-75.2628 L -34.4129,-73.7856 L -33.9084,-72.233
 L -33.6025,-70.6293 L -33.5,-69 L -33.6025,-67.3707 L -33.9084,-65.767 L -34.4129,-64.2144 L -35.108,-62.7372
 L -35.9828,-61.3588 L -37.0234,-60.1009 L -38.2135,-58.9833 L -39.5342,-58.0237 L -40.9649,-57.2373 L -42.4828,-56.6363
 L -44.064,-56.2303 L -45.6837,-56.0257 z
M 45.6837,-56.0257 L 44.064,-56.2303 L 42.4828,-56.6363 L 40.9649,-57.2373 L 39.5342,-58.0237 L 38.2135,-58.9833
 L 37.0234,-60.1009 L 35.9828,-61.3588 L 35.108,-62.7372 L 34.4129,-64.2144 L 33.9084,-65.767 L 33.6025,-67.3707
 L 33.5,-69 L 33.6025,-70.6293 L 33.9084,-72.233 L 34.4129,-73.7856 L 35.108,-75.2628 L 35.9828,-76.6412
 L 37.0234,-77.8991 L 38.2135,-79.0167 L 39.5342,-79.9763 L 40.9649,-80.7627 L 42.4828,-81.3637 L 44.064,-81.7697
 L 45.6837,-81.9743 L 47.3163,-81.9743 L 48.936,-81.7697 L 50.5172,-81.3637 L 52.0351,-80.7627 L 53.4657,-79.9763
 L 54.7865,-79.0167 L 55.9766,-77.8991 L 57.0172,-76.6412 L 57.892,-75.2628 L 58.5871,-73.7856 L 59.0916,-72.233
 L 59.3975,-70.6293 L 59.5,-69 L 59.3975,-67.3707 L 59.0916,-65.767 L 58.5871,-64.2144 L 57.892,-62.7372
 L 57.0172,-61.3588 L 55.9766,-60.1009 L 54.7865,-58.9833 L 53.4657,-58.0237 L 52.0351,-57.2373 L 50.5172,-56.6363
 L 48.936,-56.2303 L 47.3163,-56.0257 z
M -16.3163,-56.0257 L -17.9359,-56.2303 L -19.5172,-56.6363 L -21.0351,-57.2373 L -22.4657,-58.0237 L -23.7865,-58.9833
 L -24.9766,-60.1009 L -26.0172,-61.3588 L -26.892,-62.7372 L -27.5871,-64.2144 L -28.0916,-65.767 L -28.3975,-67.3707
 L -28.5,-69 L -28.3975,-70.6293 L -28.0916,-72.233 L -27.5871,-73.7856 L -26.892,-75.2628 L -26.0172,-76.6412
 L -24.9766,-77.8991 L -23.7865,-79.0167 L -22.4657,-79.9763 L -21.0351,-80.7627 L -19.5172,-81.3637 L -17.9359,-81.7697
 L -16.3163,-81.9743 L -14.6837,-81.9743 L -13.064,-81.7697 L -11.4828,-81.3637 L -9.96486,-80.7627 L -8.53424,-79.9763
 L -7.21349,-79.0167 L -6.02341,-77.8991 L -4.98277,-76.6412 L -4.108,-75.2628 L -3.4129,-73.7856 L -2.90842,-72.233
 L -2.60251,-70.6293 L -2.5,-69 L -2.60251,-67.3707 L -2.90842,-65.767 L -3.4129,-64.2144 L -4.108,-62.7372
 L -4.98277,-61.3588 L -6.02341,-60.1009 L -7.21349,-58.9833 L -8.53424,-58.0237 L -9.96486,-57.2373 L -11.4828,-56.6363
 L -13.064,-56.2303 L -14.6837,-56.0257 z
M -67.6884,-73.5059 L -68.0621,-73.5531 L -68.427,-73.6468 L -68.7773,-73.7855 L -69.1075,-73.967 L -69.4123,-74.1884
 L -69.6869,-74.4464 L -69.927,-74.7366 L -70.1289,-75.0547 L -70.2893,-75.3956 L -70.4057,-75.7539 L -70.4763,-76.124
 L -70.5,-76.5 L -70.4763,-76.876 L -70.4057,-77.2461 L -70.2893,-77.6044 L -70.1289,-77.9453 L -69.927,-78.2634
 L -69.6869,-78.5536 L -69.4123,-78.8115 L -69.1075,-79.033 L -68.7773,-79.2145 L -68.427,-79.3532 L -68.0621,-79.4469
 L -67.6884,-79.4941 L -67.3116,-79.4941 L -66.9379,-79.4469 L -66.573,-79.3532 L -66.2227,-79.2145 L -65.8925,-79.033
 L -65.5877,-78.8115 L -65.3131,-78.5536 L -65.073,-78.2634 L -64.8711,-77.9453 L -64.7107,-77.6044 L -64.5943,-77.2461
 L -64.5237,-76.876 L -64.5,-76.5 L -64.5237,-76.124 L -64.5943,-75.7539 L -64.7107,-75.3956 L -64.8711,-75.0547
 L -65.073,-74.7366 L -65.3131,-74.4464 L -65.5877,-74.1884 L -65.8925,-73.967 L -66.2227,-73.7855 L -66.573,-73.6468
 L -66.9379,-73.5531 L -67.3116,-73.5059 z
M 67.3116,-73.5059 L 66.9379,-73.5531 L 66.573,-73.6468 L 66.2227,-73.7855 L 65.8925,-73.967 L 65.5877,-74.1884
 L 65.3131,-74.4464 L 65.073,-74.7366 L 64.8711,-75.0547 L 64.7107,-75.3956 L 64.5943,-75.7539 L 64.5237,-76.124
 L 64.5,-76.5 L 64.5237,-76.876 L 64.5943,-77.2461 L 64.7107,-77.6044 L 64.8711,-77.9453 L 65.073,-78.2634
 L 65.3131,-78.5536 L 65.5877,-78.8115 L 65.8925,-79.033 L 66.2227,-79.2145 L 66.573,-79.3532 L 66.9379,-79.4469
 L 67.3116,-79.4941 L 67.6884,-79.4941 L 68.0621,-79.4469 L 68.427,-79.3532 L 68.7773,-79.2145 L 69.1075,-79.033
 L 69.4123,-78.8115 L 69.6869,-78.5536 L 69.927,-78.2634 L 70.1289,-77.9453 L 70.2893,-77.6044 L 70.4057,-77.2461
 L 70.4763,-76.876 L 70.5,-76.5 L 70.4763,-76.124 L 70.4057,-75.7539 L 70.2893,-75.3956 L 70.1289,-75.0547
 L 69.927,-74.7366 L 69.6869,-74.4464 L 69.4123,-74.1884 L 69.1075,-73.967 L 68.7773,-73.7855 L 68.427,-73.6468
 L 68.0621,-73.5531 L 67.6884,-73.5059 z
M 67.4058,-67.503 L 67.2189,-67.5266 L 67.0365,-67.5734 L 66.8613,-67.6428 L 66.6963,-67.7335 L 66.5439,-67.8442
 L 66.4065,-67.9732 L 66.2865,-68.1183 L 66.1855,-68.2774 L 66.1053,-68.4478 L 66.0471,-68.627 L 66.0118,-68.812
 L 66,-69 L 66.0118,-69.188 L 66.0471,-69.373 L 66.1053,-69.5522 L 66.1855,-69.7226 L 66.2865,-69.8817
 L 66.4065,-70.0268 L 66.5439,-70.1558 L 66.6963,-70.2665 L 66.8613,-70.3572 L 67.0365,-70.4266 L 67.2189,-70.4734
 L 67.4058,-70.497 L 67.5942,-70.497 L 67.7811,-70.4734 L 67.9635,-70.4266 L 68.1387,-70.3572 L 68.3037,-70.2665
 L 68.4561,-70.1558 L 68.5934,-70.0268 L 68.7135,-69.8817 L 68.8145,-69.7226 L 68.8947,-69.5522 L 68.9529,-69.373
 L 68.9882,-69.188 L 69,-69 L 68.9882,-68.812 L 68.9529,-68.627 L 68.8947,-68.4478 L 68.8145,-68.2774
 L 68.7135,-68.1183 L 68.5934,-67.9732 L 68.4561,-67.8442 L 68.3037,-67.7335 L 68.1387,-67.6428 L 67.9635,-67.5734
 L 67.7811,-67.5266 L 67.5942,-67.503 z
M -67.5942,-67.503 L -67.7811,-67.5266 L -67.9635,-67.5734 L -68.1387,-67.6428 L -68.3037,-67.7335 L -68.4561,-67.8442
 L -68.5934,-67.9732 L -68.7135,-68.1183 L -68.8145,-68.2774 L -68.8947,-68.4478 L -68.9529,-68.627 L -68.9882,-68.812
 L -69,-69 L -68.9882,-69.188 L -68.9529,-69.373 L -68.8947,-69.5522 L -68.8145,-69.7226 L -68.7135,-69.8817
 L -68.5934,-70.0268 L -68.4561,-70.1558 L -68.3037,-70.2665 L -68.1387,-70.3572 L -67.9635,-70.4266 L -67.7811,-70.4734
 L -67.5942,-70.497 L -67.4058,-70.497 L -67.2189,-70.4734 L -67.0365,-70.4266 L -66.8613,-70.3572 L -66.6963,-70.2665
 L -66.5439,-70.1558 L -66.4065,-70.0268 L -66.2865,-69.8817 L -66.1855,-69.7226 L -66.1053,-69.5522 L -66.0471,-69.373
 L -66.0118,-69.188 L -66,-69 L -66.0118,-68.812 L -66.0471,-68.627 L -66.1053,-68.4478 L -66.1855,-68.2774
 L -66.2865,-68.1183 L -66.4065,-67.9732 L -66.5439,-67.8442 L -66.6963,-67.7335 L -66.8613,-67.6428 L -67.0365,-67.5734
 L -67.2189,-67.5266 L -67.4058,-67.503 z
M 67.3116,-58.5059 L 66.9379,-58.5531 L 66.573,-58.6468 L 66.2227,-58.7855 L 65.8925,-58.967 L 65.5877,-59.1885
 L 65.3131,-59.4464 L 65.073,-59.7366 L 64.8711,-60.0547 L 64.7107,-60.3956 L 64.5943,-60.7539 L 64.5237,-61.124
 L 64.5,-61.5 L 64.5237,-61.876 L 64.5943,-62.2461 L 64.7107,-62.6044 L 64.8711,-62.9453 L 65.073,-63.2634
 L 65.3131,-63.5536 L 65.5877,-63.8116 L 65.8925,-64.033 L 66.2227,-64.2145 L 66.573,-64.3532 L 66.9379,-64.4469
 L 67.3116,-64.4941 L 67.6884,-64.4941 L 68.0621,-64.4469 L 68.427,-64.3532 L 68.7773,-64.2145 L 69.1075,-64.033
 L 69.4123,-63.8116 L 69.6869,-63.5536 L 69.927,-63.2634 L 70.1289,-62.9453 L 70.2893,-62.6044 L 70.4057,-62.2461
 L 70.4763,-61.876 L 70.5,-61.5 L 70.4763,-61.124 L 70.4057,-60.7539 L 70.2893,-60.3956 L 70.1289,-60.0547
 L 69.927,-59.7366 L 69.6869,-59.4464 L 69.4123,-59.1885 L 69.1075,-58.967 L 68.7773,-58.7855 L 68.427,-58.6468
 L 68.0621,-58.5531 L 67.6884,-58.5059 z
M -67.6884,-58.5059 L -68.0621,-58.5531 L -68.427,-58.6468 L -68.7773,-58.7855 L -69.1075,-58.967 L -69.4123,-59.1885
 L -69.6869,-59.4464 L -69.927,-59.7366 L -70.1289,-60.0547 L -70.2893,-60.3956 L -70.4057,-60.7539 L -70.4763,-61.124
 L -70.5,-61.5 L -70.4763,-61.876 L -70.4057,-62.2461 L -70.2893,-62.6044 L -70.1289,-62.9453 L -69.927,-63.2634
 L -69.6869,-63.5536 L -69.4123,-63.8116 L -69.1075,-64.033 L -68.7773,-64.2145 L -68.427,-64.3532 L -68.0621,-64.4469
 L -67.6884,-64.4941 L -67.3116,-64.4941 L -66.9379,-64.4469 L -66.573,-64.3532 L -66.2227,-64.2145 L -65.8925,-64.033
 L -65.5877,-63.8116 L -65.3131,-63.5536 L -65.073,-63.2634 L -64.8711,-62.9453 L -64.7107,-62.6044 L -64.5943,-62.2461
 L -64.5237,-61.876 L -64.5,-61.5 L -64.5237,-61.124 L -64.5943,-60.7539 L -64.7107,-60.3956 L -64.8711,-60.0547
 L -65.073,-59.7366 L -65.3131,-59.4464 L -65.5877,-59.1885 L -65.8925,-58.967 L -66.2227,-58.7855 L -66.573,-58.6468
 L -66.9379,-58.5531 L -67.3116,-58.5059 z
M 67.4058,-52.503 L 67.2189,-52.5266 L 67.0365,-52.5734 L 66.8613,-52.6428 L 66.6963,-52.7335 L 66.5439,-52.8442
 L 66.4065,-52.9732 L 66.2865,-53.1183 L 66.1855,-53.2774 L 66.1053,-53.4478 L 66.0471,-53.627 L 66.0118,-53.812
 L 66,-54 L 66.0118,-54.188 L 66.0471,-54.373 L 66.1053,-54.5522 L 66.1855,-54.7226 L 66.2865,-54.8817
 L 66.4065,-55.0268 L 66.5439,-55.1558 L 66.6963,-55.2665 L 66.8613,-55.3573 L 67.0365,-55.4266 L 67.2189,-55.4734
 L 67.4058,-55.4971 L 67.5942,-55.4971 L 67.7811,-55.4734 L 67.9635,-55.4266 L 68.1387,-55.3573 L 68.3037,-55.2665
 L 68.4561,-55.1558 L 68.5934,-55.0268 L 68.7135,-54.8817 L 68.8145,-54.7226 L 68.8947,-54.5522 L 68.9529,-54.373
 L 68.9882,-54.188 L 69,-54 L 68.9882,-53.812 L 68.9529,-53.627 L 68.8947,-53.4478 L 68.8145,-53.2774
 L 68.7135,-53.1183 L 68.5934,-52.9732 L 68.4561,-52.8442 L 68.3037,-52.7335 L 68.1387,-52.6428 L 67.9635,-52.5734
 L 67.7811,-52.5266 L 67.5942,-52.503 z
M -67.5942,-52.503 L -67.7811,-52.5266 L -67.9635,-52.5734 L -68.1387,-52.6428 L -68.3037,-52.7335 L -68.4561,-52.8442
 L -68.5934,-52.9732 L -68.7135,-53.1183 L -68.8145,-53.2774 L -68.8947,-53.4478 L -68.9529,-53.627 L -68.9882,-53.812
 L -69,-54 L -68.9882,-54.188 L -68.9529,-54.373 L -68.8947,-54.5522 L -68.8145,-54.7226 L -68.7135,-54.8817
 L -68.5934,-55.0268 L -68.4561,-55.1558 L -68.3037,-55.2665 L -68.1387,-55.3573 L -67.9635,-55.4266 L -67.7811,-55.4734
 L -67.5942,-55.4971 L -67.4058,-55.4971 L -67.2189,-55.4734 L -67.0365,-55.4266 L -66.8613,-55.3573 L -66.6963,-55.2665
 L -66.5439,-55.1558 L -66.4065,-55.0268 L -66.2865,-54.8817 L -66.1855,-54.7226 L -66.1053,-54.5522 L -66.0471,-54.373
 L -66.0118,-54.188 L -66,-54 L -66.0118,-53.812 L -66.0471,-53.627 L -66.1053,-53.4478 L -66.1855,-53.2774
 L -66.2865,-53.1183 L -66.4065,-52.9732 L -66.5439,-52.8442 L -66.6963,-52.7335 L -66.8613,-52.6428 L -67.0365,-52.5734
 L -67.2189,-52.5266 L -67.4058,-52.503 z
M -22.6884,-43.5059 L -23.0621,-43.5531 L -23.427,-43.6468 L -23.7773,-43.7855 L -24.1075,-43.967 L -24.4123,-44.1885
 L -24.6869,-44.4464 L -24.927,-44.7366 L -25.1289,-45.0547 L -25.2893,-45.3956 L -25.4057,-45.7539 L -25.4763,-46.124
 L -25.5,-46.5 L -25.4763,-46.876 L -25.4057,-47.2461 L -25.2893,-47.6044 L -25.1289,-47.9453 L -24.927,-48.2634
 L -24.6869,-48.5536 L -24.4123,-48.8116 L -24.1075,-49.033 L -23.7773,-49.2145 L -23.427,-49.3532 L -23.0621,-49.4469
 L -22.6884,-49.4941 L -22.3116,-49.4941 L -21.9379,-49.4469 L -21.5729,-49.3532 L -21.2227,-49.2145 L -20.8925,-49.033
 L -20.5877,-48.8116 L -20.3131,-48.5536 L -20.0729,-48.2634 L -19.8711,-47.9453 L -19.7107,-47.6044 L -19.5942,-47.2461
 L -19.5237,-46.876 L -19.5,-46.5 L -19.5237,-46.124 L -19.5942,-45.7539 L -19.7107,-45.3956 L -19.8711,-45.0547
 L -20.0729,-44.7366 L -20.3131,-44.4464 L -20.5877,-44.1885 L -20.8925,-43.967 L -21.2227,-43.7855 L -21.5729,-43.6468
 L -21.9379,-43.5531 L -22.3116,-43.5059 z
M 67.3116,-43.5059 L 66.9379,-43.5531 L 66.573,-43.6468 L 66.2227,-43.7855 L 65.8925,-43.967 L 65.5877,-44.1885
 L 65.3131,-44.4464 L 65.073,-44.7366 L 64.8711,-45.0547 L 64.7107,-45.3956 L 64.5943,-45.7539 L 64.5237,-46.124
 L 64.5,-46.5 L 64.5237,-46.876 L 64.5943,-47.2461 L 64.7107,-47.6044 L 64.8711,-47.9453 L 65.073,-48.2634
 L 65.3131,-48.5536 L 65.5877,-48.8116 L 65.8925,-49.033 L 66.2227,-49.2145 L 66.573,-49.3532 L 66.9379,-49.4469
 L 67.3116,-49.4941 L 67.6884,-49.4941 L 68.0621,-49.4469 L 68.427,-49.3532 L 68.7773,-49.2145 L 69.1075,-49.033
 L 69.4123,-48.8116 L 69.6869,-48.5536 L 69.927,-48.2634 L 70.1289,-47.9453 L 70.2893,-47.6044 L 70.4057,-47.2461
 L 70.4763,-46.876 L 70.5,-46.5 L 70.4763,-46.124 L 70.4057,-45.7539 L 70.2893,-45.3956 L 70.1289,-45.0547
 L 69.927,-44.7366 L 69.6869,-44.4464 L 69.4123,-44.1885 L 69.1075,-43.967 L 68.7773,-43.7855 L 68.427,-43.6468
 L 68.0621,-43.5531 L 67.6884,-43.5059 z
M -37.6884,-43.5059 L -38.0621,-43.5531 L -38.427,-43.6468 L -38.7773,-43.7855 L -39.1075,-43.967 L -39.4123,-44.1885
 L -39.6869,-44.4464 L -39.927,-44.7366 L -40.1289,-45.0547 L -40.2893,-45.3956 L -40.4057,-45.7539 L -40.4763,-46.124
 L -40.5,-46.5 L -40.4763,-46.876 L -40.4057,-47.2461 L -40.2893,-47.6044 L -40.1289,-47.9453 L -39.927,-48.2634
 L -39.6869,-48.5536 L -39.4123,-48.8116 L -39.1075,-49.033 L -38.7773,-49.2145 L -38.427,-49.3532 L -38.0621,-49.4469
 L -37.6884,-49.4941 L -37.3116,-49.4941 L -36.9379,-49.4469 L -36.5729,-49.3532 L -36.2227,-49.2145 L -35.8925,-49.033
 L -35.5877,-48.8116 L -35.3131,-48.5536 L -35.0729,-48.2634 L -34.8711,-47.9453 L -34.7107,-47.6044 L -34.5942,-47.2461
 L -34.5237,-46.876 L -34.5,-46.5 L -34.5237,-46.124 L -34.5942,-45.7539 L -34.7107,-45.3956 L -34.8711,-45.0547
 L -35.0729,-44.7366 L -35.3131,-44.4464 L -35.5877,-44.1885 L -35.8925,-43.967 L -36.2227,-43.7855 L -36.5729,-43.6468
 L -36.9379,-43.5531 L -37.3116,-43.5059 z
M 37.3116,-43.5059 L 36.9379,-43.5531 L 36.5729,-43.6468 L 36.2227,-43.7855 L 35.8925,-43.967 L 35.5877,-44.1885
 L 35.3131,-44.4464 L 35.0729,-44.7366 L 34.8711,-45.0547 L 34.7107,-45.3956 L 34.5942,-45.7539 L 34.5237,-46.124
 L 34.5,-46.5 L 34.5237,-46.876 L 34.5942,-47.2461 L 34.7107,-47.6044 L 34.8711,-47.9453 L 35.0729,-48.2634
 L 35.3131,-48.5536 L 35.5877,-48.8116 L 35.8925,-49.033 L 36.2227,-49.2145 L 36.5729,-49.3532 L 36.9379,-49.4469
 L 37.3116,-49.4941 L 37.6884,-49.4941 L 38.0621,-49.4469 L 38.427,-49.3532 L 38.7773,-49.2145 L 39.1075,-49.033
 L 39.4123,-48.8116 L 39.6869,-48.5536 L 39.927,-48.2634 L 40.1289,-47.9453 L 40.2893,-47.6044 L 40.4057,-47.2461
 L 40.4763,-46.876 L 40.5,-46.5 L 40.4763,-46.124 L 40.4057,-45.7539 L 40.2893,-45.3956 L 40.1289,-45.0547
 L 39.927,-44.7366 L 39.6869,-44.4464 L 39.4123,-44.1885 L 39.1075,-43.967 L 38.7773,-43.7855 L 38.427,-43.6468
 L 38.0621,-43.5531 L 37.6884,-43.5059 z
M 22.3116,-43.5059 L 21.9379,-43.5531 L 21.5729,-43.6468 L 21.2227,-43.7855 L 20.8925,-43.967 L 20.5877,-44.1885
 L 20.3131,-44.4464 L 20.0729,-44.7366 L 19.8711,-45.0547 L 19.7107,-45.3956 L 19.5942,-45.7539 L 19.5237,-46.124
 L 19.5,-46.5 L 19.5237,-46.876 L 19.5942,-47.2461 L 19.7107,-47.6044 L 19.8711,-47.9453 L 20.0729,-48.2634
 L 20.3131,-48.5536 L 20.5877,-48.8116 L 20.8925,-49.033 L 21.2227,-49.2145 L 21.5729,-49.3532 L 21.9379,-49.4469
 L 22.3116,-49.4941 L 22.6884,-49.4941 L 23.0621,-49.4469 L 23.427,-49.3532 L 23.7773,-49.2145 L 24.1075,-49.033
 L 24.4123,-48.8116 L 24.6869,-48.5536 L 24.927,-48.2634 L 25.1289,-47.9453 L 25.2893,-47.6044 L 25.4057,-47.2461
 L 25.4763,-46.876 L 25.5,-46.5 L 25.4763,-46.124 L 25.4057,-45.7539 L 25.2893,-45.3956 L 25.1289,-45.0547
 L 24.927,-44.7366 L 24.6869,-44.4464 L 24.4123,-44.1885 L 24.1075,-43.967 L 23.7773,-43.7855 L 23.427,-43.6468
 L 23.0621,-43.5531 L 22.6884,-43.5059 z
M -67.6884,-43.5059 L -68.0621,-43.5531 L -68.427,-43.6468 L -68.7773,-43.7855 L -69.1075,-43.967 L -69.4123,-44.1885
 L -69.6869,-44.4464 L -69.927,-44.7366 L -70.1289,-45.0547 L -70.2893,-45.3956 L -70.4057,-45.7539 L -70.4763,-46.124
 L -70.5,-46.5 L -70.4763,-46.876 L -70.4057,-47.2461 L -70.2893,-47.6044 L -70.1289,-47.9453 L -69.927,-48.2634
 L -69.6869,-48.5536 L -69.4123,-48.8116 L -69.1075,-49.033 L -68.7773,-49.2145 L -68.427,-49.3532 L -68.0621,-49.4469
 L -67.6884,-49.4941 L -67.3116,-49.4941 L -66.9379,-49.4469 L -66.573,-49.3532 L -66.2227,-49.2145 L -65.8925,-49.033
 L -65.5877,-48.8116 L -65.3131,-48.5536 L -65.073,-48.2634 L -64.8711,-47.9453 L -64.7107,-47.6044 L -64.5943,-47.2461
 L -64.5237,-46.876 L -64.5,-46.5 L -64.5237,-46.124 L -64.5943,-45.7539 L -64.7107,-45.3956 L -64.8711,-45.0547
 L -65.073,-44.7366 L -65.3131,-44.4464 L -65.5877,-44.1885 L -65.8925,-43.967 L -66.2227,-43.7855 L -66.573,-43.6468
 L -66.9379,-43.5531 L -67.3116,-43.5059 z
M 7.31161,-43.5059 L 6.93785,-43.5531 L 6.57294,-43.6468 L 6.22266,-43.7855 L 5.89252,-43.967 L 5.58772,-44.1885
 L 5.31308,-44.4464 L 5.07294,-44.7366 L 4.87108,-45.0547 L 4.71066,-45.3956 L 4.59424,-45.7539 L 4.52365,-46.124
 L 4.5,-46.5 L 4.52365,-46.876 L 4.59424,-47.2461 L 4.71066,-47.6044 L 4.87108,-47.9453 L 5.07294,-48.2634
 L 5.31308,-48.5536 L 5.58772,-48.8116 L 5.89252,-49.033 L 6.22266,-49.2145 L 6.57294,-49.3532 L 6.93785,-49.4469
 L 7.31161,-49.4941 L 7.68837,-49.4941 L 8.06213,-49.4469 L 8.42705,-49.3532 L 8.77733,-49.2145 L 9.10747,-49.033
 L 9.41226,-48.8116 L 9.6869,-48.5536 L 9.92705,-48.2634 L 10.1289,-47.9453 L 10.2893,-47.6044 L 10.4057,-47.2461
 L 10.4763,-46.876 L 10.5,-46.5 L 10.4763,-46.124 L 10.4057,-45.7539 L 10.2893,-45.3956 L 10.1289,-45.0547
 L 9.92705,-44.7366 L 9.6869,-44.4464 L 9.41226,-44.1885 L 9.10747,-43.967 L 8.77733,-43.7855 L 8.42705,-43.6468
 L 8.06213,-43.5531 L 7.68837,-43.5059 z
M -52.6884,-43.5059 L -53.0621,-43.5531 L -53.427,-43.6468 L -53.7773,-43.7855 L -54.1075,-43.967 L -54.4123,-44.1885
 L -54.6869,-44.4464 L -54.927,-44.7366 L -55.1289,-45.0547 L -55.2893,-45.3956 L -55.4057,-45.7539 L -55.4763,-46.124
 L -55.5,-46.5 L -55.4763,-46.876 L -55.4057,-47.2461 L -55.2893,-47.6044 L -55.1289,-47.9453 L -54.927,-48.2634
 L -54.6869,-48.5536 L -54.4123,-48.8116 L -54.1075,-49.033 L -53.7773,-49.2145 L -53.427,-49.3532 L -53.0621,-49.4469
 L -52.6884,-49.4941 L -52.3116,-49.4941 L -51.9379,-49.4469 L -51.5729,-49.3532 L -51.2227,-49.2145 L -50.8925,-49.033
 L -50.5877,-48.8116 L -50.3131,-48.5536 L -50.0729,-48.2634 L -49.8711,-47.9453 L -49.7107,-47.6044 L -49.5942,-47.2461
 L -49.5237,-46.876 L -49.5,-46.5 L -49.5237,-46.124 L -49.5942,-45.7539 L -49.7107,-45.3956 L -49.8711,-45.0547
 L -50.0729,-44.7366 L -50.3131,-44.4464 L -50.5877,-44.1885 L -50.8925,-43.967 L -51.2227,-43.7855 L -51.5729,-43.6468
 L -51.9379,-43.5531 L -52.3116,-43.5059 z
M -7.68837,-43.5059 L -8.06213,-43.5531 L -8.42705,-43.6468 L -8.77733,-43.7855 L -9.10747,-43.967 L -9.41226,-44.1885
 L -9.6869,-44.4464 L -9.92705,-44.7366 L -10.1289,-45.0547 L -10.2893,-45.3956 L -10.4057,-45.7539 L -10.4763,-46.124
 L -10.5,-46.5 L -10.4763,-46.876 L -10.4057,-47.2461 L -10.2893,-47.6044 L -10.1289,-47.9453 L -9.92705,-48.2634
 L -9.6869,-48.5536 L -9.41226,-48.8116 L -9.10747,-49.033 L -8.77733,-49.2145 L -8.42705,-49.3532 L -8.06213,-49.4469
 L -7.68837,-49.4941 L -7.31161,-49.4941 L -6.93785,-49.4469 L -6.57294,-49.3532 L -6.22266,-49.2145 L -5.89252,-49.033
 L -5.58772,-48.8116 L -5.31308,-48.5536 L -5.07294,-48.2634 L -4.87108,-47.9453 L -4.71066,-47.6044 L -4.59424,-47.2461
 L -4.52365,-46.876 L -4.5,-46.5 L -4.52365,-46.124 L -4.59424,-45.7539 L -4.71066,-45.3956 L -4.87108,-45.0547
 L -5.07294,-44.7366 L -5.31308,-44.4464 L -5.58772,-44.1885 L -5.89252,-43.967 L -6.22266,-43.7855 L -6.57294,-43.6468
 L -6.93785,-43.5531 L -7.31161,-43.5059 z
M 52.3116,-43.5059 L 51.9379,-43.5531 L 51.5729,-43.6468 L 51.2227,-43.7855 L 50.8925,-43.967 L 50.5877,-44.1885
 L 50.3131,-44.4464 L 50.0729,-44.7366 L 49.8711,-45.0547 L 49.7107,-45.3956 L 49.5942,-45.7539 L 49.5237,-46.124
 L 49.5,-46.5 L 49.5237,-46.876 L 49.5942,-47.2461 L 49.7107,-47.6044 L 49.8711,-47.9453 L 50.0729,-48.2634
 L 50.3131,-48.5536 L 50.5877,-48.8116 L 50.8925,-49.033 L 51.2227,-49.2145 L 51.5729,-49.3532 L 51.9379,-49.4469
 L 52.3116,-49.4941 L 52.6884,-49.4941 L 53.0621,-49.4469 L 53.427,-49.3532 L 53.7773,-49.2145 L 54.1075,-49.033
 L 54.4123,-48.8116 L 54.6869,-48.5536 L 54.927,-48.2634 L 55.1289,-47.9453 L 55.2893,-47.6044 L 55.4057,-47.2461
 L 55.4763,-46.876 L 55.5,-46.5 L 55.4763,-46.124 L 55.4057,-45.7539 L 55.2893,-45.3956 L 55.1289,-45.0547
 L 54.927,-44.7366 L 54.6869,-44.4464 L 54.4123,-44.1885 L 54.1075,-43.967 L 53.7773,-43.7855 L 53.427,-43.6468
 L 53.0621,-43.5531 L 52.6884,-43.5059 z
M -45.0942,-45.003 L -45.2811,-45.0266 L -45.4635,-45.0734 L -45.6387,-45.1428 L -45.8037,-45.2335 L -45.9561,-45.3442
 L -46.0934,-45.4732 L -46.2135,-45.6183 L -46.3145,-45.7774 L -46.3947,-45.9478 L -46.4529,-46.127 L -46.4882,-46.312
 L -46.5,-46.5 L -46.4882,-46.688 L -46.4529,-46.873 L -46.3947,-47.0522 L -46.3145,-47.2226 L -46.2135,-47.3817
 L -46.0934,-47.5268 L -45.9561,-47.6558 L -45.8037,-47.7665 L -45.6387,-47.8573 L -45.4635,-47.9266 L -45.2811,-47.9734
 L -45.0942,-47.997 L -44.9058,-47.997 L -44.7189,-47.9734 L -44.5365,-47.9266 L -44.3613,-47.8573 L -44.1963,-47.7665
 L -44.0439,-47.6558 L -43.9065,-47.5268 L -43.7865,-47.3817 L -43.6855,-47.2226 L -43.6053,-47.0522 L -43.5471,-46.873
 L -43.5118,-46.688 L -43.5,-46.5 L -43.5118,-46.312 L -43.5471,-46.127 L -43.6053,-45.9478 L -43.6855,-45.7774
 L -43.7865,-45.6183 L -43.9065,-45.4732 L -44.0439,-45.3442 L -44.1963,-45.2335 L -44.3613,-45.1428 L -44.5365,-45.0734
 L -44.7189,-45.0266 L -44.9058,-45.003 z
M -0.0941772,-45.003 L -0.281067,-45.0266 L -0.463516,-45.0734 L -0.638657,-45.1428 L -0.803726,-45.2335 L -0.956131,-45.3442
 L -1.09344,-45.4732 L -1.21352,-45.6183 L -1.31445,-45.7774 L -1.39465,-45.9478 L -1.45287,-46.127 L -1.48816,-46.312
 L -1.5,-46.5 L -1.48816,-46.688 L -1.45287,-46.873 L -1.39465,-47.0522 L -1.31445,-47.2226 L -1.21352,-47.3817
 L -1.09344,-47.5268 L -0.956131,-47.6558 L -0.803726,-47.7665 L -0.638657,-47.8573 L -0.463516,-47.9266 L -0.281067,-47.9734
 L -0.0941772,-47.997 L 0.0941772,-47.997 L 0.281067,-47.9734 L 0.463516,-47.9266 L 0.638657,-47.8573 L 0.803726,-47.7665
 L 0.956131,-47.6558 L 1.09344,-47.5268 L 1.21352,-47.3817 L 1.31445,-47.2226 L 1.39465,-47.0522 L 1.45287,-46.873
 L 1.48816,-46.688 L 1.5,-46.5 L 1.48816,-46.312 L 1.45287,-46.127 L 1.39465,-45.9478 L 1.31445,-45.7774
 L 1.21352,-45.6183 L 1.09344,-45.4732 L 0.956131,-45.3442 L 0.803726,-45.2335 L 0.638657,-45.1428 L 0.463516,-45.0734
 L 0.281067,-45.0266 L 0.0941772,-45.003 z
M -15.0942,-45.003 L -15.2811,-45.0266 L -15.4635,-45.0734 L -15.6387,-45.1428 L -15.8037,-45.2335 L -15.9561,-45.3442
 L -16.0934,-45.4732 L -16.2135,-45.6183 L -16.3145,-45.7774 L -16.3947,-45.9478 L -16.4529,-46.127 L -16.4882,-46.312
 L -16.5,-46.5 L -16.4882,-46.688 L -16.4529,-46.873 L -16.3947,-47.0522 L -16.3145,-47.2226 L -16.2135,-47.3817
 L -16.0934,-47.5268 L -15.9561,-47.6558 L -15.8037,-47.7665 L -15.6387,-47.8573 L -15.4635,-47.9266 L -15.2811,-47.9734
 L -15.0942,-47.997 L -14.9058,-47.997 L -14.7189,-47.9734 L -14.5365,-47.9266 L -14.3613,-47.8573 L -14.1963,-47.7665
 L -14.0439,-47.6558 L -13.9065,-47.5268 L -13.7865,-47.3817 L -13.6855,-47.2226 L -13.6053,-47.0522 L -13.5471,-46.873
 L -13.5118,-46.688 L -13.5,-46.5 L -13.5118,-46.312 L -13.5471,-46.127 L -13.6053,-45.9478 L -13.6855,-45.7774
 L -13.7865,-45.6183 L -13.9065,-45.4732 L -14.0439,-45.3442 L -14.1963,-45.2335 L -14.3613,-45.1428 L -14.5365,-45.0734
 L -14.7189,-45.0266 L -14.9058,-45.003 z
M -30.0942,-45.003 L -30.2811,-45.0266 L -30.4635,-45.0734 L -30.6387,-45.1428 L -30.8037,-45.2335 L -30.9561,-45.3442
 L -31.0934,-45.4732 L -31.2135,-45.6183 L -31.3145,-45.7774 L -31.3947,-45.9478 L -31.4529,-46.127 L -31.4882,-46.312
 L -31.5,-46.5 L -31.4882,-46.688 L -31.4529,-46.873 L -31.3947,-47.0522 L -31.3145,-47.2226 L -31.2135,-47.3817
 L -31.0934,-47.5268 L -30.9561,-47.6558 L -30.8037,-47.7665 L -30.6387,-47.8573 L -30.4635,-47.9266 L -30.2811,-47.9734
 L -30.0942,-47.997 L -29.9058,-47.997 L -29.7189,-47.9734 L -29.5365,-47.9266 L -29.3613,-47.8573 L -29.1963,-47.7665
 L -29.0439,-47.6558 L -28.9065,-47.5268 L -28.7865,-47.3817 L -28.6855,-47.2226 L -28.6053,-47.0522 L -28.5471,-46.873
 L -28.5118,-46.688 L -28.5,-46.5 L -28.5118,-46.312 L -28.5471,-46.127 L -28.6053,-45.9478 L -28.6855,-45.7774
 L -28.7865,-45.6183 L -28.9065,-45.4732 L -29.0439,-45.3442 L -29.1963,-45.2335 L -29.3613,-45.1428 L -29.5365,-45.0734
 L -29.7189,-45.0266 L -29.9058,-45.003 z
M 29.9058,-45.003 L 29.7189,-45.0266 L 29.5365,-45.0734 L 29.3613,-45.1428 L 29.1963,-45.2335 L 29.0439,-45.3442
 L 28.9065,-45.4732 L 28.7865,-45.6183 L 28.6855,-45.7774 L 28.6053,-45.9478 L 28.5471,-46.127 L 28.5118,-46.312
 L 28.5,-46.5 L 28.5118,-46.688 L 28.5471,-46.873 L 28.6053,-47.0522 L 28.6855,-47.2226 L 28.7865,-47.3817
 L 28.9065,-47.5268 L 29.0439,-47.6558 L 29.1963,-47.7665 L 29.3613,-47.8573 L 29.5365,-47.9266 L 29.7189,-47.9734
 L 29.9058,-47.997 L 30.0942,-47.997 L 30.2811,-47.9734 L 30.4635,-47.9266 L 30.6387,-47.8573 L 30.8037,-47.7665
 L 30.9561,-47.6558 L 31.0934,-47.5268 L 31.2135,-47.3817 L 31.3145,-47.2226 L 31.3947,-47.0522 L 31.4529,-46.873
 L 31.4882,-46.688 L 31.5,-46.5 L 31.4882,-46.312 L 31.4529,-46.127 L 31.3947,-45.9478 L 31.3145,-45.7774
 L 31.2135,-45.6183 L 31.0934,-45.4732 L 30.9561,-45.3442 L 30.8037,-45.2335 L 30.6387,-45.1428 L 30.4635,-45.0734
 L 30.2811,-45.0266 L 30.0942,-45.003 z
M 59.9058,-45.003 L 59.7189,-45.0266 L 59.5365,-45.0734 L 59.3613,-45.1428 L 59.1963,-45.2335 L 59.0439,-45.3442
 L 58.9065,-45.4732 L 58.7865,-45.6183 L 58.6855,-45.7774 L 58.6053,-45.9478 L 58.5471,-46.127 L 58.5118,-46.312
 L 58.5,-46.5 L 58.5118,-46.688 L 58.5471,-46.873 L 58.6053,-47.0522 L 58.6855,-47.2226 L 58.7865,-47.3817
 L 58.9065,-47.5268 L 59.0439,-47.6558 L 59.1963,-47.7665 L 59.3613,-47.8573 L 59.5365,-47.9266 L 59.7189,-47.9734
 L 59.9058,-47.997 L 60.0942,-47.997 L 60.2811,-47.9734 L 60.4635,-47.9266 L 60.6387,-47.8573 L 60.8037,-47.7665
 L 60.9561,-47.6558 L 61.0934,-47.5268 L 61.2135,-47.3817 L 61.3145,-47.2226 L 61.3947,-47.0522 L 61.4529,-46.873
 L 61.4882,-46.688 L 61.5,-46.5 L 61.4882,-46.312 L 61.4529,-46.127 L 61.3947,-45.9478 L 61.3145,-45.7774
 L 61.2135,-45.6183 L 61.0934,-45.4732 L 60.9561,-45.3442 L 60.8037,-45.2335 L 60.6387,-45.1428 L 60.4635,-45.0734
 L 60.2811,-45.0266 L 60.0942,-45.003 z
M 44.9058,-45.003 L 44.7189,-45.0266 L 44.5365,-45.0734 L 44.3613,-45.1428 L 44.1963,-45.2335 L 44.0439,-45.3442
 L 43.9065,-45.4732 L 43.7865,-45.6183 L 43.6855,-45.7774 L 43.6053,-45.9478 L 43.5471,-46.127 L 43.5118,-46.312
 L 43.5,-46.5 L 43.5118,-46.688 L 43.5471,-46.873 L 43.6053,-47.0522 L 43.6855,-47.2226 L 43.7865,-47.3817
 L 43.9065,-47.5268 L 44.0439,-47.6558 L 44.1963,-47.7665 L 44.3613,-47.8573 L 44.5365,-47.9266 L 44.7189,-47.9734
 L 44.9058,-47.997 L 45.0942,-47.997 L 45.2811,-47.9734 L 45.4635,-47.9266 L 45.6387,-47.8573 L 45.8037,-47.7665
 L 45.9561,-47.6558 L 46.0934,-47.5268 L 46.2135,-47.3817 L 46.3145,-47.2226 L 46.3947,-47.0522 L 46.4529,-46.873
 L 46.4882,-46.688 L 46.5,-46.5 L 46.4882,-46.312 L 46.4529,-46.127 L 46.3947,-45.9478 L 46.3145,-45.7774
 L 46.2135,-45.6183 L 46.0934,-45.4732 L 45.9561,-45.3442 L 45.8037,-45.2335 L 45.6387,-45.1428 L 45.4635,-45.0734
 L 45.2811,-45.0266 L 45.0942,-45.003 z
M -60.0942,-45.003 L -60.2811,-45.0266 L -60.4635,-45.0734 L -60.6387,-45.1428 L -60.8037,-45.2335 L -60.9561,-45.3442
 L -61.0934,-45.4732 L -61.2135,-45.6183 L -61.3145,-45.7774 L -61.3947,-45.9478 L -61.4529,-46.127 L -61.4882,-46.312
 L -61.5,-46.5 L -61.4882,-46.688 L -61.4529,-46.873 L -61.3947,-47.0522 L -61.3145,-47.2226 L -61.2135,-47.3817
 L -61.0934,-47.5268 L -60.9561,-47.6558 L -60.8037,-47.7665 L -60.6387,-47.8573 L -60.4635,-47.9266 L -60.2811,-47.9734
 L -60.0942,-47.997 L -59.9058,-47.997 L -59.7189,-47.9734 L -59.5365,-47.9266 L -59.3613,-47.8573 L -59.1963,-47.7665
 L -59.0439,-47.6558 L -58.9065,-47.5268 L -58.7865,-47.3817 L -58.6855,-47.2226 L -58.6053,-47.0522 L -58.5471,-46.873
 L -58.5118,-46.688 L -58.5,-46.5 L -58.5118,-46.312 L -58.5471,-46.127 L -58.6053,-45.9478 L -58.6855,-45.7774
 L -58.7865,-45.6183 L -58.9065,-45.4732 L -59.0439,-45.3442 L -59.1963,-45.2335 L -59.3613,-45.1428 L -59.5365,-45.0734
 L -59.7189,-45.0266 L -59.9058,-45.003 z
M 14.9058,-45.003 L 14.7189,-45.0266 L 14.5365,-45.0734 L 14.3613,-45.1428 L 14.1963,-45.2335 L 14.0439,-45.3442
 L 13.9065,-45.4732 L 13.7865,-45.6183 L 13.6855,-45.7774 L 13.6053,-45.9478 L 13.5471,-46.127 L 13.5118,-46.312
 L 13.5,-46.5 L 13.5118,-46.688 L 13.5471,-46.873 L 13.6053,-47.0522 L 13.6855,-47.2226 L 13.7865,-47.3817
 L 13.9065,-47.5268 L 14.0439,-47.6558 L 14.1963,-47.7665 L 14.3613,-47.8573 L 14.5365,-47.9266 L 14.7189,-47.9734
 L 14.9058,-47.997 L 15.0942,-47.997 L 15.2811,-47.9734 L 15.4635,-47.9266 L 15.6387,-47.8573 L 15.8037,-47.7665
 L 15.9561,-47.6558 L 16.0934,-47.5268 L 16.2135,-47.3817 L 16.3145,-47.2226 L 16.3947,-47.0522 L 16.4529,-46.873
 L 16.4882,-46.688 L 16.5,-46.5 L 16.4882,-46.312 L 16.4529,-46.127 L 16.3947,-45.9478 L 16.3145,-45.7774
 L 16.2135,-45.6183 L 16.0934,-45.4732 L 15.9561,-45.3442 L 15.8037,-45.2335 L 15.6387,-45.1428 L 15.4635,-45.0734
 L 15.2811,-45.0266 L 15.0942,-45.003 z
" stroke="black" fill="lightgray" stroke-width="0.5"/>
</svg>
