<?xml version="1.0" standalone="no"?>
<!DOCTYPE svg PUBLIC "-//W3C//DTD SVG 1.1//EN" "http://www.w3.org/Graphics/SVG/1.1/DTD/svg11.dtd">
<svg width="60mm" height="30mm" viewBox="-30 -15 60 30" xmlns="http://www.w3.org/2000/svg" version="1.1">
<title>OpenSCAD Model</title>
<path d="
M 25.4369,14.4114 L 26.0451,14.2553 L 26.6289,14.0241 L 27.1791,13.7216 L 27.6871,13.3526 L 28.1448,12.9227
 L 28.5451,12.4389 L 28.8815,11.9088 L 29.1489,11.3406 L 29.3429,10.7434 L 29.4606,10.1267 L 29.5,9.5
 L 29.5,-9.5 L 29.4606,-10.1267 L 29.3429,-10.7434 L 29.1489,-11.3406 L 28.8815,-11.9088 L 28.5451,-12.4389
 L 28.1448,-12.9227 L 27.6871,-13.3526 L 27.1791,-13.7216 L 26.6289,-14.0241 L 26.0451,-14.2553 L 25.4369,-14.4114
 L 24.8139,-14.4901 L -24.8139,-14.4901 L -25.4369,-14.4114 L -26.0451,-14.2553 L -26.6289,-14.0241 L -27.1791,-13.7216
 L -27.6871,-13.3526 L -28.1448,-12.9227 L -28.5451,-12.4389 L -28.8815,-11.9088 L -29.1489,-11.3406 L -29.3429,-10.7434
 L -29.4606,-10.1267 L -29.5,-9.5 L -29.5,9.5 L -29.4606,10.1267 L -29.3429,10.7434 L -29.1489,11.3406
 L -28.8815,11.9088 L -28.5451,12.4389 L -28.1448,12.9227 L -27.6871,13.3526 L -27.1791,13.7216 L -26.6289,14.0241
 L -26.0451,14.2553 L -25.4369,14.4114 L -24.8139,14.4901 L 24.8139,14.4901 z
M 22.3116,10.4941 L 21.9379,10.4469 L 21.5729,10.3532 L 21.2227,10.2145 L 20.8925,10.033 L 20.5877,9.81154
 L 20.3131,9.55363 L 20.0729,9.26335 L 19.8711,8.94525 L 19.7107,8.60437 L 19.5942,8.24606 L 19.5237,7.87599
 L 19.5,7.5 L 19.5237,7.12399 L 19.5527,6.97189 L 19.4395,6.98618 L 18.5605,6.98618 L 17.6883,6.87601
 L 16.8369,6.65739 L 16.0195,6.33379 L 15.2492,5.91029 L 14.538,5.39359 L 13.8972,4.79182 L 13.3369,4.11449
 L 12.8658,3.37227 L 12.4916,2.57686 L 12.2199,1.74081 L 12.0552,0.877319 L 12,-0 L 12.0552,-0.877319
 L 12.2199,-1.74081 L 12.4916,-2.57686 L 12.8658,-3.37227 L 13.3369,-4.11449 L 13.8972,-4.79182 L 14.538,-5.39359
 L 15.2492,-5.91029 L 16.0195,-6.33379 L 16.8369,-6.65739 L 17.6883,-6.87601 L 18.5605,-6.98618 L 19.4395,-6.98618
 L 19.5527,-6.97189 L 19.5237,-7.12399 L 19.5,-7.5 L 19.5237,-7.87599 L 19.5942,-8.24606 L 19.7107,-8.60437
 L 19.8711,-8.94525 L 20.0729,-9.26335 L 20.3131,-9.55363 L 20.5877,-9.81154 L 20.8925,-10.033 L 21.2227,-10.2145
 L 21.5729,-10.3532 L 21.9379,-10.4469 L 22.3116,-10.4941 L 22.6884,-10.4941 L 23.0621,-10.4469 L 23.427,-10.3532
 L 23.7773,-10.2145 L 24.1075,-10.033 L 24.4123,-9.81154 L 24.6869,-9.55363 L 24.927,-9.26335 L 25.1289,-8.94525
 L 25.2893,-8.60437 L 25.4057,-8.24606 L 25.4763,-7.87599 L 25.5,-7.5 L 25.4763,-7.12399 L 25.4057,-6.75392
 L 25.2893,-6.39561 L 25.1289,-6.05473 L 24.927,-5.73663 L 24.6869,-5.44635 L 24.4123,-5.18845 L 24.1075,-4.96701
 L 23.9868,-4.9007 L 24.1028,-4.79182 L 24.6631,-4.11449 L 25.1341,-3.37227 L 25.5084,-2.57686 L 25.7801,-1.74081
 L 25.9448,-0.877319 L 26,-0 L 25.9448,0.877319 L 25.7801,1.74081 L 25.5084,2.57686 L 25.1341,3.37227
 L 24.6631,4.11449 L 24.1028,4.79182 L 23.9868,4.9007 L 24.1075,4.96701 L 24.4123,5.18845 L 24.6869,5.44635
 L 24.927,5.73663 L 25.1289,6.05473 L 25.2893,6.39561 L 25.4057,6.75392 L 25.4763,7.12399 L 25.5,7.5
 L 25.4763,7.87599 L 25.4057,8.24606 L 25.2893,8.60437 L 25.1289,8.94525 L 24.927,9.26335 L 24.6869,9.55363
 L 24.4123,9.81154 L 24.1075,10.033 L 23.7773,10.2145 L 23.427,10.3532 L 23.0621,10.4469 L 22.6884,10.4941
 z
M -22.6884,10.4941 L -23.0621,10.4469 L -23.427,10.3532 L -23.7773,10.2145 L -24.1075,10.033 L -24.4123,9.81154
 L -24.6869,9.55363 L -24.927,9.26335 L -25.1289,8.94525 L -25.2893,8.60437 L -25.4057,8.24606 L -25.4763,7.87599
 L -25.5,7.5 L -25.4763,7.12399 L -25.4057,6.75392 L -25.2893,6.39561 L -25.1289,6.05473 L -24.927,5.73663
 L -24.6869,5.44635 L -24.4123,5.18845 L -24.1075,4.96701 L -23.9868,4.9007 L -24.1028,4.79182 L -24.6631,4.11449
 L -25.1341,3.37227 L -25.5084,2.57686 L -25.7801,1.74081 L -25.9448,0.877319 L -26,-0 L -25.9448,-0.877319
 L -25.7801,-1.74081 L -25.5084,-2.57686 L -25.1341,-3.37227 L -24.6631,-4.11449 L -24.1028,-4.79182 L -23.9868,-4.9007
 L -24.1075,-4.96701 L -24.4123,-5.18845 L -24.6869,-5.44635 L -24.927,-5.73663 L -25.1289,-6.05473 L -25.2893,-6.39561
 L -25.4057,-6.75392 L -25.4763,-7.12399 L -25.5,-7.5 L -25.4763,-7.87599 L -25.4057,-8.24606 L -25.2893,-8.60437
 L -25.1289,-8.94525 L -24.927,-9.26335 L -24.6869,-9.55363 L -24.4123,-9.81154 L -24.1075,-10.033 L -23.7773,-10.2145
 L -23.427,-10.3532 L -23.0621,-10.4469 L -22.6884,-10.4941 L -22.3116,-10.4941 L -21.9379,-10.4469 L -21.5729,-10.3532
 L -21.2227,-10.2145 L -20.8925,-10.033 L -20.5877,-9.81154 L -20.3131,-9.55363 L -20.0729,-9.26335 L -19.8711,-8.94525
 L -19.7107,-8.60437 L -19.5942,-8.24606 L -19.5237,-7.87599 L -19.5,-7.5 L -19.5237,-7.12399 L -19.5527,-6.97189
 L -19.4395,-6.98618 L -18.5605,-6.98618 L -17.6883,-6.87601 L -16.8369,-6.65739 L -16.0195,-6.33379 L -15.2492,-5.91029
 L -14.538,-5.39359 L -13.8972,-4.79182 L -13.3369,-4.11449 L -12.8658,-3.37227 L -12.4916,-2.57686 L -12.2199,-1.74081
 L -12.0552,-0.877319 L -12,-0 L -12.0552,0.877319 L -12.2199,1.74081 L -12.4916,2.57686 L -12.8658,3.37227
 L -13.3369,4.11449 L -13.8972,4.79182 L -14.538,5.39359 L -15.2492,5.91029 L -16.0195,6.33379 L -16.8369,6.65739
 L -17.6883,6.87601 L -18.5605,6.98618 L -19.4395,6.98618 L -19.5527,6.97189 L -19.5237,7.12399 L -19.5,7.5
 L -19.5237,7.87599 L -19.5942,8.24606 L -19.7107,8.60437 L -19.8711,8.94525 L -20.0729,9.26335 L -20.3131,9.55363
 L -20.5877,9.81154 L -20.8925,10.033 L -21.2227,10.2145 L -21.5729,10.3532 L -21.9379,10.4469 L -22.3116,10.4941
 z
M -0.439529,6.98618 L -1.31166,6.87601 L -2.16312,6.65739 L -2.98045,6.33379 L -3.75078,5.91029 L -4.46196,5.39359
 L -5.10277,4.79182 L -5.66312,4.11449 L -6.13414,3.37227 L -6.50842,2.57686 L -6.78008,1.74081 L -6.94479,0.877319
 L -7,-0 L -6.94479,-0.877319 L -6.78008,-1.74081 L -6.50842,-2.57686 L -6.13414,-3.37227 L -5.66312,-4.11449
 L -5.10277,-4.79182 L -4.46196,-5.39359 L -3.75078,-5.91029 L -2.98045,-6.33379 L -2.16312,-6.65739 L -1.31166,-6.87601
 L -0.439529,-6.98618 L 0.439529,-6.98618 L 1.31166,-6.87601 L 2.16312,-6.65739 L 2.98045,-6.33379 L 3.75078,-5.91029
 L 4.46196,-5.39359 L 5.10277,-4.79182 L 5.66312,-4.11449 L 6.13414,-3.37227 L 6.50842,-2.57686 L 6.78008,-1.74081
 L 6.94479,-0.877319 L 7,-0 L 6.94479,0.877319 L 6.78008,1.74081 L 6.50842,2.57686 L 6.13414,3.37227
 L 5.66312,4.11449 L 5.10277,4.79182 L 4.46196,5.39359 L 3.75078,5.91029 L 2.98045,6.33379 L 2.16312,6.65739
 L 1.31166,6.87601 L 0.439529,6.98618 z
" stroke="black" fill="lightgray" stroke-width="0.5"/>
</svg>
