<?xml version="1.0" standalone="no"?>
<!DOCTYPE svg PUBLIC "-//W3C//DTD SVG 1.1//EN" "http://www.w3.org/Graphics/SVG/1.1/DTD/svg11.dtd">
<svg width="14mm" height="14mm" viewBox="-7 -31 14 14" xmlns="http://www.w3.org/2000/svg" version="1.1">
<title>OpenSCAD Model</title>
<path d="
M 1.31166,-17.124 L 2.16312,-17.3426 L 2.98045,-17.6662 L 3.75078,-18.0897 L 4.46196,-18.6064 L 5.10277,-19.2082
 L 5.66312,-19.8855 L 6.13414,-20.6277 L 6.50842,-21.4231 L 6.78008,-22.2592 L 6.94479,-23.1227 L 7,-24
 L 6.94479,-24.8773 L 6.78008,-25.7408 L 6.50842,-26.5769 L 6.13414,-27.3723 L 5.66312,-28.1145 L 5.10277,-28.7918
 L 4.46196,-29.3936 L 3.75078,-29.9103 L 2.98045,-30.3338 L 2.16312,-30.6574 L 1.31166,-30.876 L 0.439529,-30.9862
 L -0.439529,-30.9862 L -1.31166,-30.876 L -2.16312,-30.6574 L -2.98045,-30.3338 L -3.75078,-29.9103 L -4.46196,-29.3936
 L -5.10277,-28.7918 L -5.66312,-28.1145 L -6.13414,-27.3723 L -6.50842,-26.5769 L -6.78008,-25.7408 L -6.94479,-24.8773
 L -7,-24 L -6.94479,-23.1227 L -6.78008,-22.2592 L -6.50842,-21.4231 L -6.13414,-20.6277 L -5.66312,-19.8855
 L -5.10277,-19.2082 L -4.46196,-18.6064 L -3.75078,-18.0897 L -2.98045,-17.6662 L -2.16312,-17.3426 L -1.31166,-17.124
 L -0.439529,-17.0138 L 0.439529,-17.0138 z
M -0.25116,-20.0079 L -0.749512,-20.0709 L -1.23605,-20.1958 L -1.70311,-20.3807 L -2.1433,-20.6227 L -2.54968,-20.918
 L -2.91586,-21.2618 L -3.23605,-21.6489 L -3.50522,-22.073 L -3.7191,-22.5275 L -3.87433,-23.0052 L -3.96844,-23.4987
 L -4,-24 L -3.96844,-24.5013 L -3.87433,-24.9948 L -3.7191,-25.4725 L -3.50522,-25.927 L -3.23605,-26.3511
 L -2.91586,-26.7382 L -2.54968,-27.082 L -2.1433,-27.3773 L -1.70311,-27.6193 L -1.23605,-27.8042 L -0.749512,-27.9291
 L -0.25116,-27.9921 L 0.25116,-27.9921 L 0.749512,-27.9291 L 1.23605,-27.8042 L 1.70311,-27.6193 L 2.1433,-27.3773
 L 2.54968,-27.082 L 2.91586,-26.7382 L 3.23605,-26.3511 L 3.50522,-25.927 L 3.7191,-25.4725 L 3.87433,-24.9948
 L 3.96844,-24.5013 L 4,-24 L 3.96844,-23.4987 L 3.87433,-23.0052 L 3.7191,-22.5275 L 3.50522,-22.073
 L 3.23605,-21.6489 L 2.91586,-21.2618 L 2.54968,-20.918 L 2.1433,-20.6227 L 1.70311,-20.3807 L 1.23605,-20.1958
 L 0.749512,-20.0709 L 0.25116,-20.0079 z
" stroke="black" fill="lightgray" stroke-width="0.5"/>
</svg>
