<?xml version="1.0" standalone="no"?>
<!DOCTYPE svg PUBLIC "-//W3C//DTD SVG 1.1//EN" "http://www.w3.org/Graphics/SVG/1.1/DTD/svg11.dtd">
<svg width="330mm" height="90mm" viewBox="-165 -45 330 90" xmlns="http://www.w3.org/2000/svg" version="1.1">
<title>OpenSCAD Model</title>
<path d="
M 160.437,44.4114 L 161.045,44.2553 L 161.629,44.0241 L 162.179,43.7216 L 162.687,43.3526 L 163.145,42.9227
 L 163.545,42.4389 L 163.882,41.9088 L 164.149,41.3406 L 164.343,40.7434 L 164.461,40.1267 L 164.5,39.5
 L 164.5,-39.5 L 164.461,-40.1267 L 164.343,-40.7434 L 164.149,-41.3406 L 163.882,-41.9088 L 163.545,-42.4389
 L 163.145,-42.9227 L 162.687,-43.3526 L 162.179,-43.7216 L 161.629,-44.0241 L 161.045,-44.2553 L 160.437,-44.4114
 L 159.814,-44.4901 L -159.814,-44.4901 L -160.437,-44.4114 L -161.045,-44.2553 L -161.629,-44.0241 L -162.179,-43.7216
 L -162.687,-43.3526 L -163.145,-42.9227 L -163.545,-42.4389 L -163.882,-41.9088 L -164.149,-41.3406 L -164.343,-40.7434
 L -164.461,-40.1267 L -164.5,-39.5 L -164.5,39.5 L -164.461,40.1267 L -164.343,40.7434 L -164.149,41.3406
 L -163.882,41.9088 L -163.545,42.4389 L -163.145,42.9227 L -162.687,43.3526 L -162.179,43.7216 L -161.629,44.0241
 L -161.045,44.2553 L -160.437,44.4114 L -159.814,44.4901 L 159.814,44.4901 z
M 157.312,-34.5059 L 156.938,-34.5531 L 156.573,-34.6468 L 156.223,-34.7855 L 155.893,-34.967 L 155.588,-35.1885
 L 155.313,-35.4464 L 155.073,-35.7366 L 154.871,-36.0547 L 154.711,-36.3956 L 154.594,-36.7539 L 154.524,-37.124
 L 154.5,-37.5 L 154.524,-37.876 L 154.594,-38.2461 L 154.711,-38.6044 L 154.871,-38.9453 L 155.073,-39.2634
 L 155.313,-39.5536 L 155.588,-39.8115 L 155.893,-40.033 L 156.223,-40.2145 L 156.573,-40.3532 L 156.938,-40.4469
 L 157.312,-40.4941 L 157.688,-40.4941 L 158.062,-40.4469 L 158.427,-40.3532 L 158.777,-40.2145 L 159.107,-40.033
 L 159.412,-39.8115 L 159.687,-39.5536 L 159.927,-39.2634 L 160.129,-38.9453 L 160.289,-38.6044 L 160.406,-38.2461
 L 160.476,-37.876 L 160.5,-37.5 L 160.476,-37.124 L 160.406,-36.7539 L 160.289,-36.3956 L 160.129,-36.0547
 L 159.927,-35.7366 L 159.687,-35.4464 L 159.412,-35.1885 L 159.107,-34.967 L 158.777,-34.7855 L 158.427,-34.6468
 L 158.062,-34.5531 L 157.688,-34.5059 z
M -157.688,-34.5059 L -158.062,-34.5531 L -158.427,-34.6468 L -158.777,-34.7855 L -159.107,-34.967 L -159.412,-35.1885
 L -159.687,-35.4464 L -159.927,-35.7366 L -160.129,-36.0547 L -160.289,-36.3956 L -160.406,-36.7539 L -160.476,-37.124
 L -160.5,-37.5 L -160.476,-37.876 L -160.406,-38.2461 L -160.289,-38.6044 L -160.129,-38.9453 L -159.927,-39.2634
 L -159.687,-39.5536 L -159.412,-39.8115 L -159.107,-40.033 L -158.777,-40.2145 L -158.427,-40.3532 L -158.062,-40.4469
 L -157.688,-40.4941 L -157.312,-40.4941 L -156.938,-40.4469 L -156.573,-40.3532 L -156.223,-40.2145 L -155.893,-40.033
 L -155.588,-39.8115 L -155.313,-39.5536 L -155.073,-39.2634 L -154.871,-38.9453 L -154.711,-38.6044 L -154.594,-38.2461
 L -154.524,-37.876 L -154.5,-37.5 L -154.524,-37.124 L -154.594,-36.7539 L -154.711,-36.3956 L -154.871,-36.0547
 L -155.073,-35.7366 L -155.313,-35.4464 L -155.588,-35.1885 L -155.893,-34.967 L -156.223,-34.7855 L -156.573,-34.6468
 L -156.938,-34.5531 L -157.312,-34.5059 z
M -39.6977,34.9309 L -44.0583,34.3801 L -48.3156,33.287 L -52.4023,31.6689 L -56.2539,29.5515 L -59.8098,26.968
 L -63.0139,23.9591 L -65.8156,20.5725 L -68.1707,16.8614 L -70.0422,12.8844 L -71.4004,8.70413 L -72.224,4.38666
 L -72.5,-0 L -72.224,-4.38666 L -71.4004,-8.70413 L -70.0422,-12.8844 L -68.1707,-16.8614 L -65.8156,-20.5725
 L -63.0139,-23.9591 L -59.8098,-26.968 L -56.2539,-29.5515 L -52.4023,-31.6689 L -48.3156,-33.287 L -44.0583,-34.3801
 L -39.6977,-34.9309 L -35.3023,-34.9309 L -30.9417,-34.3801 L -26.6844,-33.287 L -22.5977,-31.6689 L -18.746,-29.5515
 L -15.1902,-26.968 L -11.9861,-23.9591 L -9.1844,-20.5725 L -6.82925,-16.8614 L -4.95781,-12.8844 L -3.59958,-8.70413
 L -2.77597,-4.38666 L -2.5,-0 L -2.77597,4.38666 L -3.59958,8.70413 L -4.95781,12.8844 L -6.82925,16.8614
 L -9.1844,20.5725 L -11.9861,23.9591 L -15.1902,26.968 L -18.746,29.5515 L -22.5977,31.6689 L -26.6844,33.287
 L -30.9417,34.3801 L -35.3023,34.9309 z
M 35.3023,34.9309 L 30.9417,34.3801 L 26.6844,33.287 L 22.5977,31.6689 L 18.746,29.5515 L 15.1902,26.968
 L 11.9861,23.9591 L 9.1844,20.5725 L 6.82925,16.8614 L 4.95781,12.8844 L 3.59958,8.70413 L 2.77597,4.38666
 L 2.5,-0 L 2.77597,-4.38666 L 3.59958,-8.70413 L 4.95781,-12.8844 L 6.82925,-16.8614 L 9.1844,-20.5725
 L 11.9861,-23.9591 L 15.1902,-26.968 L 18.746,-29.5515 L 22.5977,-31.6689 L 26.6844,-33.287 L 30.9417,-34.3801
 L 35.3023,-34.9309 L 39.6977,-34.9309 L 44.0583,-34.3801 L 48.3156,-33.287 L 52.4023,-31.6689 L 56.2539,-29.5515
 L 59.8098,-26.968 L 63.0139,-23.9591 L 65.8156,-20.5725 L 68.1707,-16.8614 L 70.0422,-12.8844 L 71.4004,-8.70413
 L 72.224,-4.38666 L 72.5,-0 L 72.224,4.38666 L 71.4004,8.70413 L 70.0422,12.8844 L 68.1707,16.8614
 L 65.8156,20.5725 L 63.0139,23.9591 L 59.8098,26.968 L 56.2539,29.5515 L 52.4023,31.6689 L 48.3156,33.287
 L 44.0583,34.3801 L 39.6977,34.9309 z
M -114.698,34.9309 L -119.058,34.3801 L -123.316,33.287 L -127.402,31.6689 L -131.254,29.5515 L -134.81,26.968
 L -138.014,23.9591 L -140.816,20.5725 L -143.171,16.8614 L -145.042,12.8844 L -146.4,8.70413 L -147.224,4.38666
 L -147.5,-0 L -147.224,-4.38666 L -146.4,-8.70413 L -145.042,-12.8844 L -143.171,-16.8614 L -140.816,-20.5725
 L -138.014,-23.9591 L -134.81,-26.968 L -131.254,-29.5515 L -127.402,-31.6689 L -123.316,-33.287 L -119.058,-34.3801
 L -114.698,-34.9309 L -110.302,-34.9309 L -105.942,-34.3801 L -101.684,-33.287 L -97.5977,-31.6689 L -93.7461,-29.5515
 L -90.1902,-26.968 L -86.9861,-23.9591 L -84.1844,-20.5725 L -81.8293,-16.8614 L -79.9578,-12.8844 L -78.5996,-8.70413
 L -77.776,-4.38666 L -77.5,-0 L -77.776,4.38666 L -78.5996,8.70413 L -79.9578,12.8844 L -81.8293,16.8614
 L -84.1844,20.5725 L -86.9861,23.9591 L -90.1902,26.968 L -93.7461,29.5515 L -97.5977,31.6689 L -101.684,33.287
 L -105.942,34.3801 L -110.302,34.9309 z
M 110.302,34.9309 L 105.942,34.3801 L 101.684,33.287 L 97.5977,31.6689 L 93.7461,29.5515 L 90.1902,26.968
 L 86.9861,23.9591 L 84.1844,20.5725 L 81.8293,16.8614 L 79.9578,12.8844 L 78.5996,8.70413 L 77.776,4.38666
 L 77.5,-0 L 77.776,-4.38666 L 78.5996,-8.70413 L 79.9578,-12.8844 L 81.8293,-16.8614 L 84.1844,-20.5725
 L 86.9861,-23.9591 L 90.1902,-26.968 L 93.7461,-29.5515 L 97.5977,-31.6689 L 101.684,-33.287 L 105.942,-34.3801
 L 110.302,-34.9309 L 114.698,-34.9309 L 119.058,-34.3801 L 123.316,-33.287 L 127.402,-31.6689 L 131.254,-29.5515
 L 134.81,-26.968 L 138.014,-23.9591 L 140.816,-20.5725 L 143.171,-16.8614 L 145.042,-12.8844 L 146.4,-8.70413
 L 147.224,-4.38666 L 147.5,-0 L 147.224,4.38666 L 146.4,8.70413 L 145.042,12.8844 L 143.171,16.8614
 L 140.816,20.5725 L 138.014,23.9591 L 134.81,26.968 L 131.254,29.5515 L 127.402,31.6689 L 123.316,33.287
 L 119.058,34.3801 L 114.698,34.9309 z
M 157.406,-28.503 L 157.219,-28.5266 L 157.036,-28.5734 L 156.861,-28.6427 L 156.696,-28.7335 L 156.544,-28.8442
 L 156.407,-28.9732 L 156.286,-29.1183 L 156.186,-29.2774 L 156.105,-29.4478 L 156.047,-29.627 L 156.012,-29.812
 L 156,-30 L 156.012,-30.188 L 156.047,-30.373 L 156.105,-30.5522 L 156.186,-30.7226 L 156.286,-30.8817
 L 156.407,-31.0268 L 156.544,-31.1558 L 156.696,-31.2665 L 156.861,-31.3572 L 157.036,-31.4266 L 157.219,-31.4734
 L 157.406,-31.497 L 157.594,-31.497 L 157.781,-31.4734 L 157.964,-31.4266 L 158.139,-31.3572 L 158.304,-31.2665
 L 158.456,-31.1558 L 158.593,-31.0268 L 158.714,-30.8817 L 158.814,-30.7226 L 158.895,-30.5522 L 158.953,-30.373
 L 158.988,-30.188 L 159,-30 L 158.988,-29.812 L 158.953,-29.627 L 158.895,-29.4478 L 158.814,-29.2774
 L 158.714,-29.1183 L 158.593,-28.9732 L 158.456,-28.8442 L 158.304,-28.7335 L 158.139,-28.6427 L 157.964,-28.5734
 L 157.781,-28.5266 L 157.594,-28.503 z
M -157.594,-28.503 L -157.781,-28.5266 L -157.964,-28.5734 L -158.139,-28.6427 L -158.304,-28.7335 L -158.456,-28.8442
 L -158.593,-28.9732 L -158.714,-29.1183 L -158.814,-29.2774 L -158.895,-29.4478 L -158.953,-29.627 L -158.988,-29.812
 L -159,-30 L -158.988,-30.188 L -158.953,-30.373 L -158.895,-30.5522 L -158.814,-30.7226 L -158.714,-30.8817
 L -158.593,-31.0268 L -158.456,-31.1558 L -158.304,-31.2665 L -158.139,-31.3572 L -157.964,-31.4266 L -157.781,-31.4734
 L -157.594,-31.497 L -157.406,-31.497 L -157.219,-31.4734 L -157.036,-31.4266 L -156.861,-31.3572 L -156.696,-31.2665
 L -156.544,-31.1558 L -156.407,-31.0268 L -156.286,-30.8817 L -156.186,-30.7226 L -156.105,-30.5522 L -156.047,-30.373
 L -156.012,-30.188 L -156,-30 L -156.012,-29.812 L -156.047,-29.627 L -156.105,-29.4478 L -156.186,-29.2774
 L -156.286,-29.1183 L -156.407,-28.9732 L -156.544,-28.8442 L -156.696,-28.7335 L -156.861,-28.6427 L -157.036,-28.5734
 L -157.219,-28.5266 L -157.406,-28.503 z
M 157.312,-19.5059 L 156.938,-19.5531 L 156.573,-19.6468 L 156.223,-19.7855 L 155.893,-19.967 L 155.588,-20.1884
 L 155.313,-20.4464 L 155.073,-20.7366 L 154.871,-21.0547 L 154.711,-21.3956 L 154.594,-21.7539 L 154.524,-22.124
 L 154.5,-22.5 L 154.524,-22.876 L 154.594,-23.2461 L 154.711,-23.6044 L 154.871,-23.9453 L 155.073,-24.2634
 L 155.313,-24.5536 L 155.588,-24.8115 L 155.893,-25.033 L 156.223,-25.2145 L 156.573,-25.3532 L 156.938,-25.4469
 L 157.312,-25.4941 L 157.688,-25.4941 L 158.062,-25.4469 L 158.427,-25.3532 L 158.777,-25.2145 L 159.107,-25.033
 L 159.412,-24.8115 L 159.687,-24.5536 L 159.927,-24.2634 L 160.129,-23.9453 L 160.289,-23.6044 L 160.406,-23.2461
 L 160.476,-22.876 L 160.5,-22.5 L 160.476,-22.124 L 160.406,-21.7539 L 160.289,-21.3956 L 160.129,-21.0547
 L 159.927,-20.7366 L 159.687,-20.4464 L 159.412,-20.1884 L 159.107,-19.967 L 158.777,-19.7855 L 158.427,-19.6468
 L 158.062,-19.5531 L 157.688,-19.5059 z
M -157.688,-19.5059 L -158.062,-19.5531 L -158.427,-19.6468 L -158.777,-19.7855 L -159.107,-19.967 L -159.412,-20.1884
 L -159.687,-20.4464 L -159.927,-20.7366 L -160.129,-21.0547 L -160.289,-21.3956 L -160.406,-21.7539 L -160.476,-22.124
 L -160.5,-22.5 L -160.476,-22.876 L -160.406,-23.2461 L -160.289,-23.6044 L -160.129,-23.9453 L -159.927,-24.2634
 L -159.687,-24.5536 L -159.412,-24.8115 L -159.107,-25.033 L -158.777,-25.2145 L -158.427,-25.3532 L -158.062,-25.4469
 L -157.688,-25.4941 L -157.312,-25.4941 L -156.938,-25.4469 L -156.573,-25.3532 L -156.223,-25.2145 L -155.893,-25.033
 L -155.588,-24.8115 L -155.313,-24.5536 L -155.073,-24.2634 L -154.871,-23.9453 L -154.711,-23.6044 L -154.594,-23.2461
 L -154.524,-22.876 L -154.5,-22.5 L -154.524,-22.124 L -154.594,-21.7539 L -154.711,-21.3956 L -154.871,-21.0547
 L -155.073,-20.7366 L -155.313,-20.4464 L -155.588,-20.1884 L -155.893,-19.967 L -156.223,-19.7855 L -156.573,-19.6468
 L -156.938,-19.5531 L -157.312,-19.5059 z
M -157.594,-13.5029 L -157.781,-13.5266 L -157.964,-13.5734 L -158.139,-13.6427 L -158.304,-13.7335 L -158.456,-13.8442
 L -158.593,-13.9732 L -158.714,-14.1183 L -158.814,-14.2774 L -158.895,-14.4478 L -158.953,-14.627 L -158.988,-14.812
 L -159,-15 L -158.988,-15.188 L -158.953,-15.373 L -158.895,-15.5522 L -158.814,-15.7226 L -158.714,-15.8817
 L -158.593,-16.0268 L -158.456,-16.1558 L -158.304,-16.2665 L -158.139,-16.3572 L -157.964,-16.4266 L -157.781,-16.4734
 L -157.594,-16.497 L -157.406,-16.497 L -157.219,-16.4734 L -157.036,-16.4266 L -156.861,-16.3572 L -156.696,-16.2665
 L -156.544,-16.1558 L -156.407,-16.0268 L -156.286,-15.8817 L -156.186,-15.7226 L -156.105,-15.5522 L -156.047,-15.373
 L -156.012,-15.188 L -156,-15 L -156.012,-14.812 L -156.047,-14.627 L -156.105,-14.4478 L -156.186,-14.2774
 L -156.286,-14.1183 L -156.407,-13.9732 L -156.544,-13.8442 L -156.696,-13.7335 L -156.861,-13.6427 L -157.036,-13.5734
 L -157.219,-13.5266 L -157.406,-13.5029 z
M 157.406,-13.5029 L 157.219,-13.5266 L 157.036,-13.5734 L 156.861,-13.6427 L 156.696,-13.7335 L 156.544,-13.8442
 L 156.407,-13.9732 L 156.286,-14.1183 L 156.186,-14.2774 L 156.105,-14.4478 L 156.047,-14.627 L 156.012,-14.812
 L 156,-15 L 156.012,-15.188 L 156.047,-15.373 L 156.105,-15.5522 L 156.186,-15.7226 L 156.286,-15.8817
 L 156.407,-16.0268 L 156.544,-16.1558 L 156.696,-16.2665 L 156.861,-16.3572 L 157.036,-16.4266 L 157.219,-16.4734
 L 157.406,-16.497 L 157.594,-16.497 L 157.781,-16.4734 L 157.964,-16.4266 L 158.139,-16.3572 L 158.304,-16.2665
 L 158.456,-16.1558 L 158.593,-16.0268 L 158.714,-15.8817 L 158.814,-15.7226 L 158.895,-15.5522 L 158.953,-15.373
 L 158.988,-15.188 L 159,-15 L 158.988,-14.812 L 158.953,-14.627 L 158.895,-14.4478 L 158.814,-14.2774
 L 158.714,-14.1183 L 158.593,-13.9732 L 158.456,-13.8442 L 158.304,-13.7335 L 158.139,-13.6427 L 157.964,-13.5734
 L 157.781,-13.5266 L 157.594,-13.5029 z
M 157.312,-4.50591 L 156.938,-4.55313 L 156.573,-4.64682 L 156.223,-4.78551 L 155.893,-4.96701 L 155.588,-5.18845
 L 155.313,-5.44635 L 155.073,-5.73663 L 154.871,-6.05473 L 154.711,-6.39561 L 154.594,-6.75392 L 154.524,-7.12399
 L 154.5,-7.5 L 154.524,-7.87599 L 154.594,-8.24606 L 154.711,-8.60437 L 154.871,-8.94525 L 155.073,-9.26335
 L 155.313,-9.55363 L 155.588,-9.81154 L 155.893,-10.033 L 156.223,-10.2145 L 156.573,-10.3532 L 156.938,-10.4469
 L 157.312,-10.4941 L 157.688,-10.4941 L 158.062,-10.4469 L 158.427,-10.3532 L 158.777,-10.2145 L 159.107,-10.033
 L 159.412,-9.81154 L 159.687,-9.55363 L 159.927,-9.26335 L 160.129,-8.94525 L 160.289,-8.60437 L 160.406,-8.24606
 L 160.476,-7.87599 L 160.5,-7.5 L 160.476,-7.12399 L 160.406,-6.75392 L 160.289,-6.39561 L 160.129,-6.05473
 L 159.927,-5.73663 L 159.687,-5.44635 L 159.412,-5.18845 L 159.107,-4.96701 L 158.777,-4.78551 L 158.427,-4.64682
 L 158.062,-4.55313 L 157.688,-4.50591 z
M -157.688,-4.50591 L -158.062,-4.55313 L -158.427,-4.64682 L -158.777,-4.78551 L -159.107,-4.96701 L -159.412,-5.18845
 L -159.687,-5.44635 L -159.927,-5.73663 L -160.129,-6.05473 L -160.289,-6.39561 L -160.406,-6.75392 L -160.476,-7.12399
 L -160.5,-7.5 L -160.476,-7.87599 L -160.406,-8.24606 L -160.289,-8.60437 L -160.129,-8.94525 L -159.927,-9.26335
 L -159.687,-9.55363 L -159.412,-9.81154 L -159.107,-10.033 L -158.777,-10.2145 L -158.427,-10.3532 L -158.062,-10.4469
 L -157.688,-10.4941 L -157.312,-10.4941 L -156.938,-10.4469 L -156.573,-10.3532 L -156.223,-10.2145 L -155.893,-10.033
 L -155.588,-9.81154 L -155.313,-9.55363 L -155.073,-9.26335 L -154.871,-8.94525 L -154.711,-8.60437 L -154.594,-8.24606
 L -154.524,-7.87599 L -154.5,-7.5 L -154.524,-7.12399 L -154.594,-6.75392 L -154.711,-6.39561 L -154.871,-6.05473
 L -155.073,-5.73663 L -155.313,-5.44635 L -155.588,-5.18845 L -155.893,-4.96701 L -156.223,-4.78551 L -156.573,-4.64682
 L -156.938,-4.55313 L -157.312,-4.50591 z
M 157.406,1.49704 L 157.219,1.47342 L 157.036,1.42657 L 156.861,1.35724 L 156.696,1.26648 L 156.544,1.15576
 L 156.407,1.02681 L 156.286,0.881668 L 156.186,0.722626 L 156.105,0.552185 L 156.047,0.373032 L 156.012,0.187988
 L 156,-0 L 156.012,-0.187988 L 156.047,-0.373032 L 156.105,-0.552185 L 156.186,-0.722626 L 156.286,-0.881668
 L 156.407,-1.02681 L 156.544,-1.15576 L 156.696,-1.26648 L 156.861,-1.35724 L 157.036,-1.42657 L 157.219,-1.47342
 L 157.406,-1.49704 L 157.594,-1.49704 L 157.781,-1.47342 L 157.964,-1.42657 L 158.139,-1.35724 L 158.304,-1.26648
 L 158.456,-1.15576 L 158.593,-1.02681 L 158.714,-0.881668 L 158.814,-0.722626 L 158.895,-0.552185 L 158.953,-0.373032
 L 158.988,-0.187988 L 159,-0 L 158.988,0.187988 L 158.953,0.373032 L 158.895,0.552185 L 158.814,0.722626
 L 158.714,0.881668 L 158.593,1.02681 L 158.456,1.15576 L 158.304,1.26648 L 158.139,1.35724 L 157.964,1.42657
 L 157.781,1.47342 L 157.594,1.49704 z
M -157.594,1.49704 L -157.781,1.47342 L -157.964,1.42657 L -158.139,1.35724 L -158.304,1.26648 L -158.456,1.15576
 L -158.593,1.02681 L -158.714,0.881668 L -158.814,0.722626 L -158.895,0.552185 L -158.953,0.373032 L -158.988,0.187988
 L -159,-0 L -158.988,-0.187988 L -158.953,-0.373032 L -158.895,-0.552185 L -158.814,-0.722626 L -158.714,-0.881668
 L -158.593,-1.02681 L -158.456,-1.15576 L -158.304,-1.26648 L -158.139,-1.35724 L -157.964,-1.42657 L -157.781,-1.47342
 L -157.594,-1.49704 L -157.406,-1.49704 L -157.219,-1.47342 L -157.036,-1.42657 L -156.861,-1.35724 L -156.696,-1.26648
 L -156.544,-1.15576 L -156.407,-1.02681 L -156.286,-0.881668 L -156.186,-0.722626 L -156.105,-0.552185 L -156.047,-0.373032
 L -156.012,-0.187988 L -156,-0 L -156.012,0.187988 L -156.047,0.373032 L -156.105,0.552185 L -156.186,0.722626
 L -156.286,0.881668 L -156.407,1.02681 L -156.544,1.15576 L -156.696,1.26648 L -156.861,1.35724 L -157.036,1.42657
 L -157.219,1.47342 L -157.406,1.49704 z
M -157.688,10.4941 L -158.062,10.4469 L -158.427,10.3532 L -158.777,10.2145 L -159.107,10.033 L -159.412,9.81154
 L -159.687,9.55363 L -159.927,9.26335 L -160.129,8.94525 L -160.289,8.60437 L -160.406,8.24606 L -160.476,7.87599
 L -160.5,7.5 L -160.476,7.12399 L -160.406,6.75392 L -160.289,6.39561 L -160.129,6.05473 L -159.927,5.73663
 L -159.687,5.44635 L -159.412,5.18845 L -159.107,4.96701 L -158.777,4.78551 L -158.427,4.64682 L -158.062,4.55313
 L -157.688,4.50591 L -157.312,4.50591 L -156.938,4.55313 L -156.573,4.64682 L -156.223,4.78551 L -155.893,4.96701
 L -155.588,5.18845 L -155.313,5.44635 L -155.073,5.73663 L -154.871,6.05473 L -154.711,6.39561 L -154.594,6.75392
 L -154.524,7.12399 L -154.5,7.5 L -154.524,7.87599 L -154.594,8.24606 L -154.711,8.60437 L -154.871,8.94525
 L -155.073,9.26335 L -155.313,9.55363 L -155.588,9.81154 L -155.893,10.033 L -156.223,10.2145 L -156.573,10.3532
 L -156.938,10.4469 L -157.312,10.4941 z
M 157.312,10.4941 L 156.938,10.4469 L 156.573,10.3532 L 156.223,10.2145 L 155.893,10.033 L 155.588,9.81154
 L 155.313,9.55363 L 155.073,9.26335 L 154.871,8.94525 L 154.711,8.60437 L 154.594,8.24606 L 154.524,7.87599
 L 154.5,7.5 L 154.524,7.12399 L 154.594,6.75392 L 154.711,6.39561 L 154.871,6.05473 L 155.073,5.73663
 L 155.313,5.44635 L 155.588,5.18845 L 155.893,4.96701 L 156.223,4.78551 L 156.573,4.64682 L 156.938,4.55313
 L 157.312,4.50591 L 157.688,4.50591 L 158.062,4.55313 L 158.427,4.64682 L 158.777,4.78551 L 159.107,4.96701
 L 159.412,5.18845 L 159.687,5.44635 L 159.927,5.73663 L 160.129,6.05473 L 160.289,6.39561 L 160.406,6.75392
 L 160.476,7.12399 L 160.5,7.5 L 160.476,7.87599 L 160.406,8.24606 L 160.289,8.60437 L 160.129,8.94525
 L 159.927,9.26335 L 159.687,9.55363 L 159.412,9.81154 L 159.107,10.033 L 158.777,10.2145 L 158.427,10.3532
 L 158.062,10.4469 L 157.688,10.4941 z
M 157.406,16.497 L 157.219,16.4734 L 157.036,16.4266 L 156.861,16.3572 L 156.696,16.2665 L 156.544,16.1558
 L 156.407,16.0268 L 156.286,15.8817 L 156.186,15.7226 L 156.105,15.5522 L 156.047,15.373 L 156.012,15.188
 L 156,15 L 156.012,14.812 L 156.047,14.627 L 156.105,14.4478 L 156.186,14.2774 L 156.286,14.1183
 L 156.407,13.9732 L 156.544,13.8442 L 156.696,13.7335 L 156.861,13.6427 L 157.036,13.5734 L 157.219,13.5266
 L 157.406,13.5029 L 157.594,13.5029 L 157.781,13.5266 L 157.964,13.5734 L 158.139,13.6427 L 158.304,13.7335
 L 158.456,13.8442 L 158.593,13.9732 L 158.714,14.1183 L 158.814,14.2774 L 158.895,14.4478 L 158.953,14.627
 L 158.988,14.812 L 159,15 L 158.988,15.188 L 158.953,15.373 L 158.895,15.5522 L 158.814,15.7226
 L 158.714,15.8817 L 158.593,16.0268 L 158.456,16.1558 L 158.304,16.2665 L 158.139,16.3572 L 157.964,16.4266
 L 157.781,16.4734 L 157.594,16.497 z
M -157.594,16.497 L -157.781,16.4734 L -157.964,16.4266 L -158.139,16.3572 L -158.304,16.2665 L -158.456,16.1558
 L -158.593,16.0268 L -158.714,15.8817 L -158.814,15.7226 L -158.895,15.5522 L -158.953,15.373 L -158.988,15.188
 L -159,15 L -158.988,14.812 L -158.953,14.627 L -158.895,14.4478 L -158.814,14.2774 L -158.714,14.1183
 L -158.593,13.9732 L -158.456,13.8442 L -158.304,13.7335 L -158.139,13.6427 L -157.964,13.5734 L -157.781,13.5266
 L -157.594,13.5029 L -157.406,13.5029 L -157.219,13.5266 L -157.036,13.5734 L -156.861,13.6427 L -156.696,13.7335
 L -156.544,13.8442 L -156.407,13.9732 L -156.286,14.1183 L -156.186,14.2774 L -156.105,14.4478 L -156.047,14.627
 L -156.012,14.812 L -156,15 L -156.012,15.188 L -156.047,15.373 L -156.105,15.5522 L -156.186,15.7226
 L -156.286,15.8817 L -156.407,16.0268 L -156.544,16.1558 L -156.696,16.2665 L -156.861,16.3572 L -157.036,16.4266
 L -157.219,16.4734 L -157.406,16.497 z
M 157.312,25.4941 L 156.938,25.4469 L 156.573,25.3532 L 156.223,25.2145 L 155.893,25.033 L 155.588,24.8115
 L 155.313,24.5536 L 155.073,24.2634 L 154.871,23.9453 L 154.711,23.6044 L 154.594,23.2461 L 154.524,22.876
 L 154.5,22.5 L 154.524,22.124 L 154.594,21.7539 L 154.711,21.3956 L 154.871,21.0547 L 155.073,20.7366
 L 155.313,20.4464 L 155.588,20.1884 L 155.893,19.967 L 156.223,19.7855 L 156.573,19.6468 L 156.938,19.5531
 L 157.312,19.5059 L 157.688,19.5059 L 158.062,19.5531 L 158.427,19.6468 L 158.777,19.7855 L 159.107,19.967
 L 159.412,20.1884 L 159.687,20.4464 L 159.927,20.7366 L 160.129,21.0547 L 160.289,21.3956 L 160.406,21.7539
 L 160.476,22.124 L 160.5,22.5 L 160.476,22.876 L 160.406,23.2461 L 160.289,23.6044 L 160.129,23.9453
 L 159.927,24.2634 L 159.687,24.5536 L 159.412,24.8115 L 159.107,25.033 L 158.777,25.2145 L 158.427,25.3532
 L 158.062,25.4469 L 157.688,25.4941 z
M -157.688,25.4941 L -158.062,25.4469 L -158.427,25.3532 L -158.777,25.2145 L -159.107,25.033 L -159.412,24.8115
 L -159.687,24.5536 L -159.927,24.2634 L -160.129,23.9453 L -160.289,23.6044 L -160.406,23.2461 L -160.476,22.876
 L -160.5,22.5 L -160.476,22.124 L -160.406,21.7539 L -160.289,21.3956 L -160.129,21.0547 L -159.927,20.7366
 L -159.687,20.4464 L -159.412,20.1884 L -159.107,19.967 L -158.777,19.7855 L -158.427,19.6468 L -158.062,19.5531
 L -157.688,19.5059 L -157.312,19.5059 L -156.938,19.5531 L -156.573,19.6468 L -156.223,19.7855 L -155.893,19.967
 L -155.588,20.1884 L -155.313,20.4464 L -155.073,20.7366 L -154.871,21.0547 L -154.711,21.3956 L -154.594,21.7539
 L -154.524,22.124 L -154.5,22.5 L -154.524,22.876 L -154.594,23.2461 L -154.711,23.6044 L -154.871,23.9453
 L -155.073,24.2634 L -155.313,24.5536 L -155.588,24.8115 L -155.893,25.033 L -156.223,25.2145 L -156.573,25.3532
 L -156.938,25.4469 L -157.312,25.4941 z
M 157.406,31.497 L 157.219,31.4734 L 157.036,31.4266 L 156.861,31.3572 L 156.696,31.2665 L 156.544,31.1558
 L 156.407,31.0268 L 156.286,30.8817 L 156.186,30.7226 L 156.105,30.5522 L 156.047,30.373 L 156.012,30.188
 L 156,30 L 156.012,29.812 L 156.047,29.627 L 156.105,29.4478 L 156.186,29.2774 L 156.286,29.1183
 L 156.407,28.9732 L 156.544,28.8442 L 156.696,28.7335 L 156.861,28.6427 L 157.036,28.5734 L 157.219,28.5266
 L 157.406,28.503 L 157.594,28.503 L 157.781,28.5266 L 157.964,28.5734 L 158.139,28.6427 L 158.304,28.7335
 L 158.456,28.8442 L 158.593,28.9732 L 158.714,29.1183 L 158.814,29.2774 L 158.895,29.4478 L 158.953,29.627
 L 158.988,29.812 L 159,30 L 158.988,30.188 L 158.953,30.373 L 158.895,30.5522 L 158.814,30.7226
 L 158.714,30.8817 L 158.593,31.0268 L 158.456,31.1558 L 158.304,31.2665 L 158.139,31.3572 L 157.964,31.4266
 L 157.781,31.4734 L 157.594,31.497 z
M -157.594,31.497 L -157.781,31.4734 L -157.964,31.4266 L -158.139,31.3572 L -158.304,31.2665 L -158.456,31.1558
 L -158.593,31.0268 L -158.714,30.8817 L -158.814,30.7226 L -158.895,30.5522 L -158.953,30.373 L -158.988,30.188
 L -159,30 L -158.988,29.812 L -158.953,29.627 L -158.895,29.4478 L -158.814,29.2774 L -158.714,29.1183
 L -158.593,28.9732 L -158.456,28.8442 L -158.304,28.7335 L -158.139,28.6427 L -157.964,28.5734 L -157.781,28.5266
 L -157.594,28.503 L -157.406,28.503 L -157.219,28.5266 L -157.036,28.5734 L -156.861,28.6427 L -156.696,28.7335
 L -156.544,28.8442 L -156.407,28.9732 L -156.286,29.1183 L -156.186,29.2774 L -156.105,29.4478 L -156.047,29.627
 L -156.012,29.812 L -156,30 L -156.012,30.188 L -156.047,30.373 L -156.105,30.5522 L -156.186,30.7226
 L -156.286,30.8817 L -156.407,31.0268 L -156.544,31.1558 L -156.696,31.2665 L -156.861,31.3572 L -157.036,31.4266
 L -157.219,31.4734 L -157.406,31.497 z
M -157.688,40.4941 L -158.062,40.4469 L -158.427,40.3532 L -158.777,40.2145 L -159.107,40.033 L -159.412,39.8115
 L -159.687,39.5536 L -159.927,39.2634 L -160.129,38.9453 L -160.289,38.6044 L -160.406,38.2461 L -160.476,37.876
 L -160.5,37.5 L -160.476,37.124 L -160.406,36.7539 L -160.289,36.3956 L -160.129,36.0547 L -159.927,35.7366
 L -159.687,35.4464 L -159.412,35.1885 L -159.107,34.967 L -158.777,34.7855 L -158.427,34.6468 L -158.062,34.5531
 L -157.688,34.5059 L -157.312,34.5059 L -156.938,34.5531 L -156.573,34.6468 L -156.223,34.7855 L -155.893,34.967
 L -155.588,35.1885 L -155.313,35.4464 L -155.073,35.7366 L -154.871,36.0547 L -154.711,36.3956 L -154.594,36.7539
 L -154.524,37.124 L -154.5,37.5 L -154.524,37.876 L -154.594,38.2461 L -154.711,38.6044 L -154.871,38.9453
 L -155.073,39.2634 L -155.313,39.5536 L -155.588,39.8115 L -155.893,40.033 L -156.223,40.2145 L -156.573,40.3532
 L -156.938,40.4469 L -157.312,40.4941 z
M 157.312,40.4941 L 156.938,40.4469 L 156.573,40.3532 L 156.223,40.2145 L 155.893,40.033 L 155.588,39.8115
 L 155.313,39.5536 L 155.073,39.2634 L 154.871,38.9453 L 154.711,38.6044 L 154.594,38.2461 L 154.524,37.876
 L 154.5,37.5 L 154.524,37.124 L 154.594,36.7539 L 154.711,36.3956 L 154.871,36.0547 L 155.073,35.7366
 L 155.313,35.4464 L 155.588,35.1885 L 155.893,34.967 L 156.223,34.7855 L 156.573,34.6468 L 156.938,34.5531
 L 157.312,34.5059 L 157.688,34.5059 L 158.062,34.5531 L 158.427,34.6468 L 158.777,34.7855 L 159.107,34.967
 L 159.412,35.1885 L 159.687,35.4464 L 159.927,35.7366 L 160.129,36.0547 L 160.289,36.3956 L 160.406,36.7539
 L 160.476,37.124 L 160.5,37.5 L 160.476,37.876 L 160.406,38.2461 L 160.289,38.6044 L 160.129,38.9453
 L 159.927,39.2634 L 159.687,39.5536 L 159.412,39.8115 L 159.107,40.033 L 158.777,40.2145 L 158.427,40.3532
 L 158.062,40.4469 L 157.688,40.4941 z
" stroke="black" fill="lightgray" stroke-width="0.5"/>
</svg>
