<?xml version="1.0" standalone="no"?>
<!DOCTYPE svg PUBLIC "-//W3C//DTD SVG 1.1//EN" "http://www.w3.org/Graphics/SVG/1.1/DTD/svg11.dtd">
<svg width="134mm" height="30mm" viewBox="-67 -15 134 30" xmlns="http://www.w3.org/2000/svg" version="1.1">
<title>OpenSCAD Model</title>
<path d="
M 62.9369,14.4114 L 63.5451,14.2553 L 64.1289,14.0241 L 64.6791,13.7216 L 65.1871,13.3526 L 65.6448,12.9227
 L 66.0451,12.4389 L 66.3815,11.9088 L 66.6489,11.3406 L 66.8429,10.7434 L 66.9606,10.1267 L 67,9.5
 L 67,-9.5 L 66.9606,-10.1267 L 66.8429,-10.7434 L 66.6489,-11.3406 L 66.3815,-11.9088 L 66.0451,-12.4389
 L 65.6448,-12.9227 L 65.1871,-13.3526 L 64.6791,-13.7216 L 64.1289,-14.0241 L 63.5451,-14.2553 L 62.9369,-14.4114
 L 62.3139,-14.4901 L -62.3139,-14.4901 L -62.9369,-14.4114 L -63.5451,-14.2553 L -64.1289,-14.0241 L -64.6791,-13.7216
 L -65.1871,-13.3526 L -65.6448,-12.9227 L -66.0451,-12.4389 L -66.3815,-11.9088 L -66.6489,-11.3406 L -66.8429,-10.7434
 L -66.9606,-10.1267 L -67,-9.5 L -67,9.5 L -66.9606,10.1267 L -66.8429,10.7434 L -66.6489,11.3406
 L -66.3815,11.9088 L -66.0451,12.4389 L -65.6448,12.9227 L -65.1871,13.3526 L -64.6791,13.7216 L -64.1289,14.0241
 L -63.5451,14.2553 L -62.9369,14.4114 L -62.3139,14.4901 L 62.3139,14.4901 z
M 41.2779,11.4773 L 39.8451,11.2963 L 38.4463,10.9371 L 37.1035,10.4055 L 35.838,9.70976 L 34.6696,8.8609
 L 33.6169,7.87228 L 32.6963,6.75952 L 31.9225,5.54016 L 31.3076,4.23343 L 30.8613,2.85992 L 30.5907,1.44133
 L 30.5,-0 L 30.5907,-1.44133 L 30.8613,-2.85992 L 31.3076,-4.23343 L 31.9225,-5.54016 L 32.6963,-6.75952
 L 33.6169,-7.87228 L 34.6696,-8.8609 L 35.838,-9.70976 L 37.1035,-10.4055 L 38.4463,-10.9371 L 39.8451,-11.2963
 L 41.2779,-11.4773 L 42.7221,-11.4773 L 44.1549,-11.2963 L 45.5537,-10.9371 L 46.8965,-10.4055 L 48.162,-9.70976
 L 49.3304,-8.8609 L 50.3831,-7.87228 L 51.3037,-6.75952 L 52.0775,-5.54016 L 52.6924,-4.23343 L 53.1387,-2.85992
 L 53.4093,-1.44133 L 53.5,-0 L 53.4093,1.44133 L 53.1387,2.85992 L 52.6924,4.23343 L 52.0775,5.54016
 L 51.3037,6.75952 L 50.3831,7.87228 L 49.3304,8.8609 L 48.162,9.70976 L 46.8965,10.4055 L 45.5537,10.9371
 L 44.1549,11.2963 L 42.7221,11.4773 z
M -14.7221,11.4773 L -16.1549,11.2963 L -17.5537,10.9371 L -18.8965,10.4055 L -20.162,9.70976 L -21.3304,8.8609
 L -22.3831,7.87228 L -23.3037,6.75952 L -24.0775,5.54016 L -24.6924,4.23343 L -25.1387,2.85992 L -25.4093,1.44133
 L -25.5,-0 L -25.4093,-1.44133 L -25.1387,-2.85992 L -24.6924,-4.23343 L -24.0775,-5.54016 L -23.3037,-6.75952
 L -22.3831,-7.87228 L -21.3304,-8.8609 L -20.162,-9.70976 L -18.8965,-10.4055 L -17.5537,-10.9371 L -16.1549,-11.2963
 L -14.7221,-11.4773 L -13.2779,-11.4773 L -11.8451,-11.2963 L -10.4463,-10.9371 L -9.10353,-10.4055 L -7.83798,-9.70976
 L -6.66962,-8.8609 L -5.61685,-7.87228 L -4.6963,-6.75952 L -3.92247,-5.54016 L -3.30756,-4.23343 L -2.86128,-2.85992
 L -2.59067,-1.44133 L -2.5,-0 L -2.59067,1.44133 L -2.86128,2.85992 L -3.30756,4.23343 L -3.92247,5.54016
 L -4.6963,6.75952 L -5.61685,7.87228 L -6.66962,8.8609 L -7.83798,9.70976 L -9.10353,10.4055 L -10.4463,10.9371
 L -11.8451,11.2963 L -13.2779,11.4773 z
M -42.7221,11.4773 L -44.1549,11.2963 L -45.5537,10.9371 L -46.8965,10.4055 L -48.162,9.70976 L -49.3304,8.8609
 L -50.3831,7.87228 L -51.3037,6.75952 L -52.0775,5.54016 L -52.6924,4.23343 L -53.1387,2.85992 L -53.4093,1.44133
 L -53.5,-0 L -53.4093,-1.44133 L -53.1387,-2.85992 L -52.6924,-4.23343 L -52.0775,-5.54016 L -51.3037,-6.75952
 L -50.3831,-7.87228 L -49.3304,-8.8609 L -48.162,-9.70976 L -46.8965,-10.4055 L -45.5537,-10.9371 L -44.1549,-11.2963
 L -42.7221,-11.4773 L -41.2779,-11.4773 L -39.8451,-11.2963 L -38.4463,-10.9371 L -37.1035,-10.4055 L -35.838,-9.70976
 L -34.6696,-8.8609 L -33.6169,-7.87228 L -32.6963,-6.75952 L -31.9225,-5.54016 L -31.3076,-4.23343 L -30.8613,-2.85992
 L -30.5907,-1.44133 L -30.5,-0 L -30.5907,1.44133 L -30.8613,2.85992 L -31.3076,4.23343 L -31.9225,5.54016
 L -32.6963,6.75952 L -33.6169,7.87228 L -34.6696,8.8609 L -35.838,9.70976 L -37.1035,10.4055 L -38.4463,10.9371
 L -39.8451,11.2963 L -41.2779,11.4773 z
M 13.2779,11.4773 L 11.8451,11.2963 L 10.4463,10.9371 L 9.10353,10.4055 L 7.83798,9.70976 L 6.66962,8.8609
 L 5.61685,7.87228 L 4.6963,6.75952 L 3.92247,5.54016 L 3.30756,4.23343 L 2.86128,2.85992 L 2.59067,1.44133
 L 2.5,-0 L 2.59067,-1.44133 L 2.86128,-2.85992 L 3.30756,-4.23343 L 3.92247,-5.54016 L 4.6963,-6.75952
 L 5.61685,-7.87228 L 6.66962,-8.8609 L 7.83798,-9.70976 L 9.10353,-10.4055 L 10.4463,-10.9371 L 11.8451,-11.2963
 L 13.2779,-11.4773 L 14.7221,-11.4773 L 16.1549,-11.2963 L 17.5537,-10.9371 L 18.8965,-10.4055 L 20.162,-9.70976
 L 21.3304,-8.8609 L 22.3831,-7.87228 L 23.3037,-6.75952 L 24.0775,-5.54016 L 24.6924,-4.23343 L 25.1387,-2.85992
 L 25.4093,-1.44133 L 25.5,-0 L 25.4093,1.44133 L 25.1387,2.85992 L 24.6924,4.23343 L 24.0775,5.54016
 L 23.3037,6.75952 L 22.3831,7.87228 L 21.3304,8.8609 L 20.162,9.70976 L 18.8965,10.4055 L 17.5537,10.9371
 L 16.1549,11.2963 L 14.7221,11.4773 z
M -60.1884,-4.50591 L -60.5621,-4.55313 L -60.927,-4.64682 L -61.2773,-4.78551 L -61.6075,-4.96701 L -61.9123,-5.18845
 L -62.1869,-5.44635 L -62.427,-5.73663 L -62.6289,-6.05473 L -62.7893,-6.39561 L -62.9057,-6.75392 L -62.9763,-7.12399
 L -63,-7.5 L -62.9763,-7.87599 L -62.9057,-8.24606 L -62.7893,-8.60437 L -62.6289,-8.94525 L -62.427,-9.26335
 L -62.1869,-9.55363 L -61.9123,-9.81154 L -61.6075,-10.033 L -61.2773,-10.2145 L -60.927,-10.3532 L -60.5621,-10.4469
 L -60.1884,-10.4941 L -59.8116,-10.4941 L -59.4379,-10.4469 L -59.0729,-10.3532 L -58.7227,-10.2145 L -58.3925,-10.033
 L -58.0877,-9.81154 L -57.8131,-9.55363 L -57.5729,-9.26335 L -57.3711,-8.94525 L -57.2107,-8.60437 L -57.0942,-8.24606
 L -57.0237,-7.87599 L -57,-7.5 L -57.0237,-7.12399 L -57.0942,-6.75392 L -57.2107,-6.39561 L -57.3711,-6.05473
 L -57.5729,-5.73663 L -57.8131,-5.44635 L -58.0877,-5.18845 L -58.3925,-4.96701 L -58.7227,-4.78551 L -59.0729,-4.64682
 L -59.4379,-4.55313 L -59.8116,-4.50591 z
M 59.8116,-4.50591 L 59.4379,-4.55313 L 59.0729,-4.64682 L 58.7227,-4.78551 L 58.3925,-4.96701 L 58.0877,-5.18845
 L 57.8131,-5.44635 L 57.5729,-5.73663 L 57.3711,-6.05473 L 57.2107,-6.39561 L 57.0942,-6.75392 L 57.0237,-7.12399
 L 57,-7.5 L 57.0237,-7.87599 L 57.0942,-8.24606 L 57.2107,-8.60437 L 57.3711,-8.94525 L 57.5729,-9.26335
 L 57.8131,-9.55363 L 58.0877,-9.81154 L 58.3925,-10.033 L 58.7227,-10.2145 L 59.0729,-10.3532 L 59.4379,-10.4469
 L 59.8116,-10.4941 L 60.1884,-10.4941 L 60.5621,-10.4469 L 60.927,-10.3532 L 61.2773,-10.2145 L 61.6075,-10.033
 L 61.9123,-9.81154 L 62.1869,-9.55363 L 62.427,-9.26335 L 62.6289,-8.94525 L 62.7893,-8.60437 L 62.9057,-8.24606
 L 62.9763,-7.87599 L 63,-7.5 L 62.9763,-7.12399 L 62.9057,-6.75392 L 62.7893,-6.39561 L 62.6289,-6.05473
 L 62.427,-5.73663 L 62.1869,-5.44635 L 61.9123,-5.18845 L 61.6075,-4.96701 L 61.2773,-4.78551 L 60.927,-4.64682
 L 60.5621,-4.55313 L 60.1884,-4.50591 z
M -60.0942,1.49704 L -60.2811,1.47342 L -60.4635,1.42657 L -60.6387,1.35724 L -60.8037,1.26648 L -60.9561,1.15576
 L -61.0934,1.02681 L -61.2135,0.881668 L -61.3145,0.722626 L -61.3947,0.552185 L -61.4529,0.373032 L -61.4882,0.187988
 L -61.5,-0 L -61.4882,-0.187988 L -61.4529,-0.373032 L -61.3947,-0.552185 L -61.3145,-0.722626 L -61.2135,-0.881668
 L -61.0934,-1.02681 L -60.9561,-1.15576 L -60.8037,-1.26648 L -60.6387,-1.35724 L -60.4635,-1.42657 L -60.2811,-1.47342
 L -60.0942,-1.49704 L -59.9058,-1.49704 L -59.7189,-1.47342 L -59.5365,-1.42657 L -59.3613,-1.35724 L -59.1963,-1.26648
 L -59.0439,-1.15576 L -58.9065,-1.02681 L -58.7865,-0.881668 L -58.6855,-0.722626 L -58.6053,-0.552185 L -58.5471,-0.373032
 L -58.5118,-0.187988 L -58.5,-0 L -58.5118,0.187988 L -58.5471,0.373032 L -58.6053,0.552185 L -58.6855,0.722626
 L -58.7865,0.881668 L -58.9065,1.02681 L -59.0439,1.15576 L -59.1963,1.26648 L -59.3613,1.35724 L -59.5365,1.42657
 L -59.7189,1.47342 L -59.9058,1.49704 z
M 59.9058,1.49704 L 59.7189,1.47342 L 59.5365,1.42657 L 59.3613,1.35724 L 59.1963,1.26648 L 59.0439,1.15576
 L 58.9065,1.02681 L 58.7865,0.881668 L 58.6855,0.722626 L 58.6053,0.552185 L 58.5471,0.373032 L 58.5118,0.187988
 L 58.5,-0 L 58.5118,-0.187988 L 58.5471,-0.373032 L 58.6053,-0.552185 L 58.6855,-0.722626 L 58.7865,-0.881668
 L 58.9065,-1.02681 L 59.0439,-1.15576 L 59.1963,-1.26648 L 59.3613,-1.35724 L 59.5365,-1.42657 L 59.7189,-1.47342
 L 59.9058,-1.49704 L 60.0942,-1.49704 L 60.2811,-1.47342 L 60.4635,-1.42657 L 60.6387,-1.35724 L 60.8037,-1.26648
 L 60.9561,-1.15576 L 61.0934,-1.02681 L 61.2135,-0.881668 L 61.3145,-0.722626 L 61.3947,-0.552185 L 61.4529,-0.373032
 L 61.4882,-0.187988 L 61.5,-0 L 61.4882,0.187988 L 61.4529,0.373032 L 61.3947,0.552185 L 61.3145,0.722626
 L 61.2135,0.881668 L 61.0934,1.02681 L 60.9561,1.15576 L 60.8037,1.26648 L 60.6387,1.35724 L 60.4635,1.42657
 L 60.2811,1.47342 L 60.0942,1.49704 z
M -60.1884,10.4941 L -60.5621,10.4469 L -60.927,10.3532 L -61.2773,10.2145 L -61.6075,10.033 L -61.9123,9.81154
 L -62.1869,9.55363 L -62.427,9.26335 L -62.6289,8.94525 L -62.7893,8.60437 L -62.9057,8.24606 L -62.9763,7.87599
 L -63,7.5 L -62.9763,7.12399 L -62.9057,6.75392 L -62.7893,6.39561 L -62.6289,6.05473 L -62.427,5.73663
 L -62.1869,5.44635 L -61.9123,5.18845 L -61.6075,4.96701 L -61.2773,4.78551 L -60.927,4.64682 L -60.5621,4.55313
 L -60.1884,4.50591 L -59.8116,4.50591 L -59.4379,4.55313 L -59.0729,4.64682 L -58.7227,4.78551 L -58.3925,4.96701
 L -58.0877,5.18845 L -57.8131,5.44635 L -57.5729,5.73663 L -57.3711,6.05473 L -57.2107,6.39561 L -57.0942,6.75392
 L -57.0237,7.12399 L -57,7.5 L -57.0237,7.87599 L -57.0942,8.24606 L -57.2107,8.60437 L -57.3711,8.94525
 L -57.5729,9.26335 L -57.8131,9.55363 L -58.0877,9.81154 L -58.3925,10.033 L -58.7227,10.2145 L -59.0729,10.3532
 L -59.4379,10.4469 L -59.8116,10.4941 z
M 59.8116,10.4941 L 59.4379,10.4469 L 59.0729,10.3532 L 58.7227,10.2145 L 58.3925,10.033 L 58.0877,9.81154
 L 57.8131,9.55363 L 57.5729,9.26335 L 57.3711,8.94525 L 57.2107,8.60437 L 57.0942,8.24606 L 57.0237,7.87599
 L 57,7.5 L 57.0237,7.12399 L 57.0942,6.75392 L 57.2107,6.39561 L 57.3711,6.05473 L 57.5729,5.73663
 L 57.8131,5.44635 L 58.0877,5.18845 L 58.3925,4.96701 L 58.7227,4.78551 L 59.0729,4.64682 L 59.4379,4.55313
 L 59.8116,4.50591 L 60.1884,4.50591 L 60.5621,4.55313 L 60.927,4.64682 L 61.2773,4.78551 L 61.6075,4.96701
 L 61.9123,5.18845 L 62.1869,5.44635 L 62.427,5.73663 L 62.6289,6.05473 L 62.7893,6.39561 L 62.9057,6.75392
 L 62.9763,7.12399 L 63,7.5 L 62.9763,7.87599 L 62.9057,8.24606 L 62.7893,8.60437 L 62.6289,8.94525
 L 62.427,9.26335 L 62.1869,9.55363 L 61.9123,9.81154 L 61.6075,10.033 L 61.2773,10.2145 L 60.927,10.3532
 L 60.5621,10.4469 L 60.1884,10.4941 z
" stroke="black" fill="lightgray" stroke-width="0.5"/>
</svg>
