  0
SECTION
  2
BLOCKS
  0
ENDSEC
  0
SECTION
  2
ENTITIES
  0
LINE
  8
0
 10
62.9369
 20
-14.4114
 11
63.5451
 21
-14.2553
  0
LINE
  8
0
 10
63.5451
 20
-14.2553
 11
64.1289
 21
-14.0241
  0
LINE
  8
0
 10
64.1289
 20
-14.0241
 11
64.6791
 21
-13.7216
  0
LINE
  8
0
 10
64.6791
 20
-13.7216
 11
65.1871
 21
-13.3526
  0
LINE
  8
0
 10
65.1871
 20
-13.3526
 11
65.6448
 21
-12.9227
  0
LINE
  8
0
 10
65.6448
 20
-12.9227
 11
66.0451
 21
-12.4389
  0
LINE
  8
0
 10
66.0451
 20
-12.4389
 11
66.3815
 21
-11.9088
  0
LINE
  8
0
 10
66.3815
 20
-11.9088
 11
66.6489
 21
-11.3406
  0
LINE
  8
0
 10
66.6489
 20
-11.3406
 11
66.8429
 21
-10.7434
  0
LINE
  8
0
 10
66.8429
 20
-10.7434
 11
66.9606
 21
-10.1267
  0
LINE
  8
0
 10
66.9606
 20
-10.1267
 11
67
 21
-9.5
  0
LINE
  8
0
 10
67
 20
-9.5
 11
67
 21
9.5
  0
LINE
  8
0
 10
67
 20
9.5
 11
66.9606
 21
10.1267
  0
LINE
  8
0
 10
66.9606
 20
10.1267
 11
66.8429
 21
10.7434
  0
LINE
  8
0
 10
66.8429
 20
10.7434
 11
66.6489
 21
11.3406
  0
LINE
  8
0
 10
66.6489
 20
11.3406
 11
66.3815
 21
11.9088
  0
LINE
  8
0
 10
66.3815
 20
11.9088
 11
66.0451
 21
12.4389
  0
LINE
  8
0
 10
66.0451
 20
12.4389
 11
65.6448
 21
12.9227
  0
LINE
  8
0
 10
65.6448
 20
12.9227
 11
65.1871
 21
13.3526
  0
LINE
  8
0
 10
65.1871
 20
13.3526
 11
64.6791
 21
13.7216
  0
LINE
  8
0
 10
64.6791
 20
13.7216
 11
64.1289
 21
14.0241
  0
LINE
  8
0
 10
64.1289
 20
14.0241
 11
63.5451
 21
14.2553
  0
LINE
  8
0
 10
63.5451
 20
14.2553
 11
62.9369
 21
14.4114
  0
LINE
  8
0
 10
62.9369
 20
14.4114
 11
62.3139
 21
14.4901
  0
LINE
  8
0
 10
62.3139
 20
14.4901
 11
-62.3139
 21
14.4901
  0
LINE
  8
0
 10
-62.3139
 20
14.4901
 11
-62.9369
 21
14.4114
  0
LINE
  8
0
 10
-62.9369
 20
14.4114
 11
-63.5451
 21
14.2553
  0
LINE
  8
0
 10
-63.5451
 20
14.2553
 11
-64.1289
 21
14.0241
  0
LINE
  8
0
 10
-64.1289
 20
14.0241
 11
-64.6791
 21
13.7216
  0
LINE
  8
0
 10
-64.6791
 20
13.7216
 11
-65.1871
 21
13.3526
  0
LINE
  8
0
 10
-65.1871
 20
13.3526
 11
-65.6448
 21
12.9227
  0
LINE
  8
0
 10
-65.6448
 20
12.9227
 11
-66.0451
 21
12.4389
  0
LINE
  8
0
 10
-66.0451
 20
12.4389
 11
-66.3815
 21
11.9088
  0
LINE
  8
0
 10
-66.3815
 20
11.9088
 11
-66.6489
 21
11.3406
  0
LINE
  8
0
 10
-66.6489
 20
11.3406
 11
-66.8429
 21
10.7434
  0
LINE
  8
0
 10
-66.8429
 20
10.7434
 11
-66.9606
 21
10.1267
  0
LINE
  8
0
 10
-66.9606
 20
10.1267
 11
-67
 21
9.5
  0
LINE
  8
0
 10
-67
 20
9.5
 11
-67
 21
-9.5
  0
LINE
  8
0
 10
-67
 20
-9.5
 11
-66.9606
 21
-10.1267
  0
LINE
  8
0
 10
-66.9606
 20
-10.1267
 11
-66.8429
 21
-10.7434
  0
LINE
  8
0
 10
-66.8429
 20
-10.7434
 11
-66.6489
 21
-11.3406
  0
LINE
  8
0
 10
-66.6489
 20
-11.3406
 11
-66.3815
 21
-11.9088
  0
LINE
  8
0
 10
-66.3815
 20
-11.9088
 11
-66.0451
 21
-12.4389
  0
LINE
  8
0
 10
-66.0451
 20
-12.4389
 11
-65.6448
 21
-12.9227
  0
LINE
  8
0
 10
-65.6448
 20
-12.9227
 11
-65.1871
 21
-13.3526
  0
LINE
  8
0
 10
-65.1871
 20
-13.3526
 11
-64.6791
 21
-13.7216
  0
LINE
  8
0
 10
-64.6791
 20
-13.7216
 11
-64.1289
 21
-14.0241
  0
LINE
  8
0
 10
-64.1289
 20
-14.0241
 11
-63.5451
 21
-14.2553
  0
LINE
  8
0
 10
-63.5451
 20
-14.2553
 11
-62.9369
 21
-14.4114
  0
LINE
  8
0
 10
-62.9369
 20
-14.4114
 11
-62.3139
 21
-14.4901
  0
LINE
  8
0
 10
-62.3139
 20
-14.4901
 11
62.3139
 21
-14.4901
  0
LINE
  8
0
 10
62.3139
 20
-14.4901
 11
62.9369
 21
-14.4114
  0
LINE
  8
0
 10
41.2779
 20
-11.4773
 11
39.8451
 21
-11.2963
  0
LINE
  8
0
 10
39.8451
 20
-11.2963
 11
38.4463
 21
-10.9371
  0
LINE
  8
0
 10
38.4463
 20
-10.9371
 11
37.1035
 21
-10.4055
  0
LINE
  8
0
 10
37.1035
 20
-10.4055
 11
35.838
 21
-9.70976
  0
LINE
  8
0
 10
35.838
 20
-9.70976
 11
34.6696
 21
-8.8609
  0
LINE
  8
0
 10
34.6696
 20
-8.8609
 11
33.6169
 21
-7.87228
  0
LINE
  8
0
 10
33.6169
 20
-7.87228
 11
32.6963
 21
-6.75952
  0
LINE
  8
0
 10
32.6963
 20
-6.75952
 11
31.9225
 21
-5.54016
  0
LINE
  8
0
 10
31.9225
 20
-5.54016
 11
31.3076
 21
-4.23343
  0
LINE
  8
0
 10
31.3076
 20
-4.23343
 11
30.8613
 21
-2.85992
  0
LINE
  8
0
 10
30.8613
 20
-2.85992
 11
30.5907
 21
-1.44133
  0
LINE
  8
0
 10
30.5907
 20
-1.44133
 11
30.5
 21
0
  0
LINE
  8
0
 10
30.5
 20
0
 11
30.5907
 21
1.44133
  0
LINE
  8
0
 10
30.5907
 20
1.44133
 11
30.8613
 21
2.85992
  0
LINE
  8
0
 10
30.8613
 20
2.85992
 11
31.3076
 21
4.23343
  0
LINE
  8
0
 10
31.3076
 20
4.23343
 11
31.9225
 21
5.54016
  0
LINE
  8
0
 10
31.9225
 20
5.54016
 11
32.6963
 21
6.75952
  0
LINE
  8
0
 10
32.6963
 20
6.75952
 11
33.6169
 21
7.87228
  0
LINE
  8
0
 10
33.6169
 20
7.87228
 11
34.6696
 21
8.8609
  0
LINE
  8
0
 10
34.6696
 20
8.8609
 11
35.838
 21
9.70976
  0
LINE
  8
0
 10
35.838
 20
9.70976
 11
37.1035
 21
10.4055
  0
LINE
  8
0
 10
37.1035
 20
10.4055
 11
38.4463
 21
10.9371
  0
LINE
  8
0
 10
38.4463
 20
10.9371
 11
39.8451
 21
11.2963
  0
LINE
  8
0
 10
39.8451
 20
11.2963
 11
41.2779
 21
11.4773
  0
LINE
  8
0
 10
41.2779
 20
11.4773
 11
42.7221
 21
11.4773
  0
LINE
  8
0
 10
42.7221
 20
11.4773
 11
44.1549
 21
11.2963
  0
LINE
  8
0
 10
44.1549
 20
11.2963
 11
45.5537
 21
10.9371
  0
LINE
  8
0
 10
45.5537
 20
10.9371
 11
46.8965
 21
10.4055
  0
LINE
  8
0
 10
46.8965
 20
10.4055
 11
48.162
 21
9.70976
  0
LINE
  8
0
 10
48.162
 20
9.70976
 11
49.3304
 21
8.8609
  0
LINE
  8
0
 10
49.3304
 20
8.8609
 11
50.3831
 21
7.87228
  0
LINE
  8
0
 10
50.3831
 20
7.87228
 11
51.3037
 21
6.75952
  0
LINE
  8
0
 10
51.3037
 20
6.75952
 11
52.0775
 21
5.54016
  0
LINE
  8
0
 10
52.0775
 20
5.54016
 11
52.6924
 21
4.23343
  0
LINE
  8
0
 10
52.6924
 20
4.23343
 11
53.1387
 21
2.85992
  0
LINE
  8
0
 10
53.1387
 20
2.85992
 11
53.4093
 21
1.44133
  0
LINE
  8
0
 10
53.4093
 20
1.44133
 11
53.5
 21
0
  0
LINE
  8
0
 10
53.5
 20
0
 11
53.4093
 21
-1.44133
  0
LINE
  8
0
 10
53.4093
 20
-1.44133
 11
53.1387
 21
-2.85992
  0
LINE
  8
0
 10
53.1387
 20
-2.85992
 11
52.6924
 21
-4.23343
  0
LINE
  8
0
 10
52.6924
 20
-4.23343
 11
52.0775
 21
-5.54016
  0
LINE
  8
0
 10
52.0775
 20
-5.54016
 11
51.3037
 21
-6.75952
  0
LINE
  8
0
 10
51.3037
 20
-6.75952
 11
50.3831
 21
-7.87228
  0
LINE
  8
0
 10
50.3831
 20
-7.87228
 11
49.3304
 21
-8.8609
  0
LINE
  8
0
 10
49.3304
 20
-8.8609
 11
48.162
 21
-9.70976
  0
LINE
  8
0
 10
48.162
 20
-9.70976
 11
46.8965
 21
-10.4055
  0
LINE
  8
0
 10
46.8965
 20
-10.4055
 11
45.5537
 21
-10.9371
  0
LINE
  8
0
 10
45.5537
 20
-10.9371
 11
44.1549
 21
-11.2963
  0
LINE
  8
0
 10
44.1549
 20
-11.2963
 11
42.7221
 21
-11.4773
  0
LINE
  8
0
 10
42.7221
 20
-11.4773
 11
41.2779
 21
-11.4773
  0
LINE
  8
0
 10
-14.7221
 20
-11.4773
 11
-16.1549
 21
-11.2963
  0
LINE
  8
0
 10
-16.1549
 20
-11.2963
 11
-17.5537
 21
-10.9371
  0
LINE
  8
0
 10
-17.5537
 20
-10.9371
 11
-18.8965
 21
-10.4055
  0
LINE
  8
0
 10
-18.8965
 20
-10.4055
 11
-20.162
 21
-9.70976
  0
LINE
  8
0
 10
-20.162
 20
-9.70976
 11
-21.3304
 21
-8.8609
  0
LINE
  8
0
 10
-21.3304
 20
-8.8609
 11
-22.3831
 21
-7.87228
  0
LINE
  8
0
 10
-22.3831
 20
-7.87228
 11
-23.3037
 21
-6.75952
  0
LINE
  8
0
 10
-23.3037
 20
-6.75952
 11
-24.0775
 21
-5.54016
  0
LINE
  8
0
 10
-24.0775
 20
-5.54016
 11
-24.6924
 21
-4.23343
  0
LINE
  8
0
 10
-24.6924
 20
-4.23343
 11
-25.1387
 21
-2.85992
  0
LINE
  8
0
 10
-25.1387
 20
-2.85992
 11
-25.4093
 21
-1.44133
  0
LINE
  8
0
 10
-25.4093
 20
-1.44133
 11
-25.5
 21
0
  0
LINE
  8
0
 10
-25.5
 20
0
 11
-25.4093
 21
1.44133
  0
LINE
  8
0
 10
-25.4093
 20
1.44133
 11
-25.1387
 21
2.85992
  0
LINE
  8
0
 10
-25.1387
 20
2.85992
 11
-24.6924
 21
4.23343
  0
LINE
  8
0
 10
-24.6924
 20
4.23343
 11
-24.0775
 21
5.54016
  0
LINE
  8
0
 10
-24.0775
 20
5.54016
 11
-23.3037
 21
6.75952
  0
LINE
  8
0
 10
-23.3037
 20
6.75952
 11
-22.3831
 21
7.87228
  0
LINE
  8
0
 10
-22.3831
 20
7.87228
 11
-21.3304
 21
8.8609
  0
LINE
  8
0
 10
-21.3304
 20
8.8609
 11
-20.162
 21
9.70976
  0
LINE
  8
0
 10
-20.162
 20
9.70976
 11
-18.8965
 21
10.4055
  0
LINE
  8
0
 10
-18.8965
 20
10.4055
 11
-17.5537
 21
10.9371
  0
LINE
  8
0
 10
-17.5537
 20
10.9371
 11
-16.1549
 21
11.2963
  0
LINE
  8
0
 10
-16.1549
 20
11.2963
 11
-14.7221
 21
11.4773
  0
LINE
  8
0
 10
-14.7221
 20
11.4773
 11
-13.2779
 21
11.4773
  0
LINE
  8
0
 10
-13.2779
 20
11.4773
 11
-11.8451
 21
11.2963
  0
LINE
  8
0
 10
-11.8451
 20
11.2963
 11
-10.4463
 21
10.9371
  0
LINE
  8
0
 10
-10.4463
 20
10.9371
 11
-9.10353
 21
10.4055
  0
LINE
  8
0
 10
-9.10353
 20
10.4055
 11
-7.83798
 21
9.70976
  0
LINE
  8
0
 10
-7.83798
 20
9.70976
 11
-6.66962
 21
8.8609
  0
LINE
  8
0
 10
-6.66962
 20
8.8609
 11
-5.61685
 21
7.87228
  0
LINE
  8
0
 10
-5.61685
 20
7.87228
 11
-4.6963
 21
6.75952
  0
LINE
  8
0
 10
-4.6963
 20
6.75952
 11
-3.92247
 21
5.54016
  0
LINE
  8
0
 10
-3.92247
 20
5.54016
 11
-3.30756
 21
4.23343
  0
LINE
  8
0
 10
-3.30756
 20
4.23343
 11
-2.86128
 21
2.85992
  0
LINE
  8
0
 10
-2.86128
 20
2.85992
 11
-2.59067
 21
1.44133
  0
LINE
  8
0
 10
-2.59067
 20
1.44133
 11
-2.5
 21
0
  0
LINE
  8
0
 10
-2.5
 20
0
 11
-2.59067
 21
-1.44133
  0
LINE
  8
0
 10
-2.59067
 20
-1.44133
 11
-2.86128
 21
-2.85992
  0
LINE
  8
0
 10
-2.86128
 20
-2.85992
 11
-3.30756
 21
-4.23343
  0
LINE
  8
0
 10
-3.30756
 20
-4.23343
 11
-3.92247
 21
-5.54016
  0
LINE
  8
0
 10
-3.92247
 20
-5.54016
 11
-4.6963
 21
-6.75952
  0
LINE
  8
0
 10
-4.6963
 20
-6.75952
 11
-5.61685
 21
-7.87228
  0
LINE
  8
0
 10
-5.61685
 20
-7.87228
 11
-6.66962
 21
-8.8609
  0
LINE
  8
0
 10
-6.66962
 20
-8.8609
 11
-7.83798
 21
-9.70976
  0
LINE
  8
0
 10
-7.83798
 20
-9.70976
 11
-9.10353
 21
-10.4055
  0
LINE
  8
0
 10
-9.10353
 20
-10.4055
 11
-10.4463
 21
-10.9371
  0
LINE
  8
0
 10
-10.4463
 20
-10.9371
 11
-11.8451
 21
-11.2963
  0
LINE
  8
0
 10
-11.8451
 20
-11.2963
 11
-13.2779
 21
-11.4773
  0
LINE
  8
0
 10
-13.2779
 20
-11.4773
 11
-14.7221
 21
-11.4773
  0
LINE
  8
0
 10
-42.7221
 20
-11.4773
 11
-44.1549
 21
-11.2963
  0
LINE
  8
0
 10
-44.1549
 20
-11.2963
 11
-45.5537
 21
-10.9371
  0
LINE
  8
0
 10
-45.5537
 20
-10.9371
 11
-46.8965
 21
-10.4055
  0
LINE
  8
0
 10
-46.8965
 20
-10.4055
 11
-48.162
 21
-9.70976
  0
LINE
  8
0
 10
-48.162
 20
-9.70976
 11
-49.3304
 21
-8.8609
  0
LINE
  8
0
 10
-49.3304
 20
-8.8609
 11
-50.3831
 21
-7.87228
  0
LINE
  8
0
 10
-50.3831
 20
-7.87228
 11
-51.3037
 21
-6.75952
  0
LINE
  8
0
 10
-51.3037
 20
-6.75952
 11
-52.0775
 21
-5.54016
  0
LINE
  8
0
 10
-52.0775
 20
-5.54016
 11
-52.6924
 21
-4.23343
  0
LINE
  8
0
 10
-52.6924
 20
-4.23343
 11
-53.1387
 21
-2.85992
  0
LINE
  8
0
 10
-53.1387
 20
-2.85992
 11
-53.4093
 21
-1.44133
  0
LINE
  8
0
 10
-53.4093
 20
-1.44133
 11
-53.5
 21
0
  0
LINE
  8
0
 10
-53.5
 20
0
 11
-53.4093
 21
1.44133
  0
LINE
  8
0
 10
-53.4093
 20
1.44133
 11
-53.1387
 21
2.85992
  0
LINE
  8
0
 10
-53.1387
 20
2.85992
 11
-52.6924
 21
4.23343
  0
LINE
  8
0
 10
-52.6924
 20
4.23343
 11
-52.0775
 21
5.54016
  0
LINE
  8
0
 10
-52.0775
 20
5.54016
 11
-51.3037
 21
6.75952
  0
LINE
  8
0
 10
-51.3037
 20
6.75952
 11
-50.3831
 21
7.87228
  0
LINE
  8
0
 10
-50.3831
 20
7.87228
 11
-49.3304
 21
8.8609
  0
LINE
  8
0
 10
-49.3304
 20
8.8609
 11
-48.162
 21
9.70976
  0
LINE
  8
0
 10
-48.162
 20
9.70976
 11
-46.8965
 21
10.4055
  0
LINE
  8
0
 10
-46.8965
 20
10.4055
 11
-45.5537
 21
10.9371
  0
LINE
  8
0
 10
-45.5537
 20
10.9371
 11
-44.1549
 21
11.2963
  0
LINE
  8
0
 10
-44.1549
 20
11.2963
 11
-42.7221
 21
11.4773
  0
LINE
  8
0
 10
-42.7221
 20
11.4773
 11
-41.2779
 21
11.4773
  0
LINE
  8
0
 10
-41.2779
 20
11.4773
 11
-39.8451
 21
11.2963
  0
LINE
  8
0
 10
-39.8451
 20
11.2963
 11
-38.4463
 21
10.9371
  0
LINE
  8
0
 10
-38.4463
 20
10.9371
 11
-37.1035
 21
10.4055
  0
LINE
  8
0
 10
-37.1035
 20
10.4055
 11
-35.838
 21
9.70976
  0
LINE
  8
0
 10
-35.838
 20
9.70976
 11
-34.6696
 21
8.8609
  0
LINE
  8
0
 10
-34.6696
 20
8.8609
 11
-33.6169
 21
7.87228
  0
LINE
  8
0
 10
-33.6169
 20
7.87228
 11
-32.6963
 21
6.75952
  0
LINE
  8
0
 10
-32.6963
 20
6.75952
 11
-31.9225
 21
5.54016
  0
LINE
  8
0
 10
-31.9225
 20
5.54016
 11
-31.3076
 21
4.23343
  0
LINE
  8
0
 10
-31.3076
 20
4.23343
 11
-30.8613
 21
2.85992
  0
LINE
  8
0
 10
-30.8613
 20
2.85992
 11
-30.5907
 21
1.44133
  0
LINE
  8
0
 10
-30.5907
 20
1.44133
 11
-30.5
 21
0
  0
LINE
  8
0
 10
-30.5
 20
0
 11
-30.5907
 21
-1.44133
  0
LINE
  8
0
 10
-30.5907
 20
-1.44133
 11
-30.8613
 21
-2.85992
  0
LINE
  8
0
 10
-30.8613
 20
-2.85992
 11
-31.3076
 21
-4.23343
  0
LINE
  8
0
 10
-31.3076
 20
-4.23343
 11
-31.9225
 21
-5.54016
  0
LINE
  8
0
 10
-31.9225
 20
-5.54016
 11
-32.6963
 21
-6.75952
  0
LINE
  8
0
 10
-32.6963
 20
-6.75952
 11
-33.6169
 21
-7.87228
  0
LINE
  8
0
 10
-33.6169
 20
-7.87228
 11
-34.6696
 21
-8.8609
  0
LINE
  8
0
 10
-34.6696
 20
-8.8609
 11
-35.838
 21
-9.70976
  0
LINE
  8
0
 10
-35.838
 20
-9.70976
 11
-37.1035
 21
-10.4055
  0
LINE
  8
0
 10
-37.1035
 20
-10.4055
 11
-38.4463
 21
-10.9371
  0
LINE
  8
0
 10
-38.4463
 20
-10.9371
 11
-39.8451
 21
-11.2963
  0
LINE
  8
0
 10
-39.8451
 20
-11.2963
 11
-41.2779
 21
-11.4773
  0
LINE
  8
0
 10
-41.2779
 20
-11.4773
 11
-42.7221
 21
-11.4773
  0
LINE
  8
0
 10
13.2779
 20
-11.4773
 11
11.8451
 21
-11.2963
  0
LINE
  8
0
 10
11.8451
 20
-11.2963
 11
10.4463
 21
-10.9371
  0
LINE
  8
0
 10
10.4463
 20
-10.9371
 11
9.10353
 21
-10.4055
  0
LINE
  8
0
 10
9.10353
 20
-10.4055
 11
7.83798
 21
-9.70976
  0
LINE
  8
0
 10
7.83798
 20
-9.70976
 11
6.66962
 21
-8.8609
  0
LINE
  8
0
 10
6.66962
 20
-8.8609
 11
5.61685
 21
-7.87228
  0
LINE
  8
0
 10
5.61685
 20
-7.87228
 11
4.6963
 21
-6.75952
  0
LINE
  8
0
 10
4.6963
 20
-6.75952
 11
3.92247
 21
-5.54016
  0
LINE
  8
0
 10
3.92247
 20
-5.54016
 11
3.30756
 21
-4.23343
  0
LINE
  8
0
 10
3.30756
 20
-4.23343
 11
2.86128
 21
-2.85992
  0
LINE
  8
0
 10
2.86128
 20
-2.85992
 11
2.59067
 21
-1.44133
  0
LINE
  8
0
 10
2.59067
 20
-1.44133
 11
2.5
 21
0
  0
LINE
  8
0
 10
2.5
 20
0
 11
2.59067
 21
1.44133
  0
LINE
  8
0
 10
2.59067
 20
1.44133
 11
2.86128
 21
2.85992
  0
LINE
  8
0
 10
2.86128
 20
2.85992
 11
3.30756
 21
4.23343
  0
LINE
  8
0
 10
3.30756
 20
4.23343
 11
3.92247
 21
5.54016
  0
LINE
  8
0
 10
3.92247
 20
5.54016
 11
4.6963
 21
6.75952
  0
LINE
  8
0
 10
4.6963
 20
6.75952
 11
5.61685
 21
7.87228
  0
LINE
  8
0
 10
5.61685
 20
7.87228
 11
6.66962
 21
8.8609
  0
LINE
  8
0
 10
6.66962
 20
8.8609
 11
7.83798
 21
9.70976
  0
LINE
  8
0
 10
7.83798
 20
9.70976
 11
9.10353
 21
10.4055
  0
LINE
  8
0
 10
9.10353
 20
10.4055
 11
10.4463
 21
10.9371
  0
LINE
  8
0
 10
10.4463
 20
10.9371
 11
11.8451
 21
11.2963
  0
LINE
  8
0
 10
11.8451
 20
11.2963
 11
13.2779
 21
11.4773
  0
LINE
  8
0
 10
13.2779
 20
11.4773
 11
14.7221
 21
11.4773
  0
LINE
  8
0
 10
14.7221
 20
11.4773
 11
16.1549
 21
11.2963
  0
LINE
  8
0
 10
16.1549
 20
11.2963
 11
17.5537
 21
10.9371
  0
LINE
  8
0
 10
17.5537
 20
10.9371
 11
18.8965
 21
10.4055
  0
LINE
  8
0
 10
18.8965
 20
10.4055
 11
20.162
 21
9.70976
  0
LINE
  8
0
 10
20.162
 20
9.70976
 11
21.3304
 21
8.8609
  0
LINE
  8
0
 10
21.3304
 20
8.8609
 11
22.3831
 21
7.87228
  0
LINE
  8
0
 10
22.3831
 20
7.87228
 11
23.3037
 21
6.75952
  0
LINE
  8
0
 10
23.3037
 20
6.75952
 11
24.0775
 21
5.54016
  0
LINE
  8
0
 10
24.0775
 20
5.54016
 11
24.6924
 21
4.23343
  0
LINE
  8
0
 10
24.6924
 20
4.23343
 11
25.1387
 21
2.85992
  0
LINE
  8
0
 10
25.1387
 20
2.85992
 11
25.4093
 21
1.44133
  0
LINE
  8
0
 10
25.4093
 20
1.44133
 11
25.5
 21
0
  0
LINE
  8
0
 10
25.5
 20
0
 11
25.4093
 21
-1.44133
  0
LINE
  8
0
 10
25.4093
 20
-1.44133
 11
25.1387
 21
-2.85992
  0
LINE
  8
0
 10
25.1387
 20
-2.85992
 11
24.6924
 21
-4.23343
  0
LINE
  8
0
 10
24.6924
 20
-4.23343
 11
24.0775
 21
-5.54016
  0
LINE
  8
0
 10
24.0775
 20
-5.54016
 11
23.3037
 21
-6.75952
  0
LINE
  8
0
 10
23.3037
 20
-6.75952
 11
22.3831
 21
-7.87228
  0
LINE
  8
0
 10
22.3831
 20
-7.87228
 11
21.3304
 21
-8.8609
  0
LINE
  8
0
 10
21.3304
 20
-8.8609
 11
20.162
 21
-9.70976
  0
LINE
  8
0
 10
20.162
 20
-9.70976
 11
18.8965
 21
-10.4055
  0
LINE
  8
0
 10
18.8965
 20
-10.4055
 11
17.5537
 21
-10.9371
  0
LINE
  8
0
 10
17.5537
 20
-10.9371
 11
16.1549
 21
-11.2963
  0
LINE
  8
0
 10
16.1549
 20
-11.2963
 11
14.7221
 21
-11.4773
  0
LINE
  8
0
 10
14.7221
 20
-11.4773
 11
13.2779
 21
-11.4773
  0
LINE
  8
0
 10
-60.1884
 20
4.50591
 11
-60.5621
 21
4.55313
  0
LINE
  8
0
 10
-60.5621
 20
4.55313
 11
-60.927
 21
4.64682
  0
LINE
  8
0
 10
-60.927
 20
4.64682
 11
-61.2773
 21
4.78551
  0
LINE
  8
0
 10
-61.2773
 20
4.78551
 11
-61.6075
 21
4.96701
  0
LINE
  8
0
 10
-61.6075
 20
4.96701
 11
-61.9123
 21
5.18845
  0
LINE
  8
0
 10
-61.9123
 20
5.18845
 11
-62.1869
 21
5.44635
  0
LINE
  8
0
 10
-62.1869
 20
5.44635
 11
-62.427
 21
5.73663
  0
LINE
  8
0
 10
-62.427
 20
5.73663
 11
-62.6289
 21
6.05473
  0
LINE
  8
0
 10
-62.6289
 20
6.05473
 11
-62.7893
 21
6.39561
  0
LINE
  8
0
 10
-62.7893
 20
6.39561
 11
-62.9057
 21
6.75392
  0
LINE
  8
0
 10
-62.9057
 20
6.75392
 11
-62.9763
 21
7.12399
  0
LINE
  8
0
 10
-62.9763
 20
7.12399
 11
-63
 21
7.5
  0
LINE
  8
0
 10
-63
 20
7.5
 11
-62.9763
 21
7.87599
  0
LINE
  8
0
 10
-62.9763
 20
7.87599
 11
-62.9057
 21
8.24606
  0
LINE
  8
0
 10
-62.9057
 20
8.24606
 11
-62.7893
 21
8.60437
  0
LINE
  8
0
 10
-62.7893
 20
8.60437
 11
-62.6289
 21
8.94525
  0
LINE
  8
0
 10
-62.6289
 20
8.94525
 11
-62.427
 21
9.26335
  0
LINE
  8
0
 10
-62.427
 20
9.26335
 11
-62.1869
 21
9.55363
  0
LINE
  8
0
 10
-62.1869
 20
9.55363
 11
-61.9123
 21
9.81154
  0
LINE
  8
0
 10
-61.9123
 20
9.81154
 11
-61.6075
 21
10.033
  0
LINE
  8
0
 10
-61.6075
 20
10.033
 11
-61.2773
 21
10.2145
  0
LINE
  8
0
 10
-61.2773
 20
10.2145
 11
-60.927
 21
10.3532
  0
LINE
  8
0
 10
-60.927
 20
10.3532
 11
-60.5621
 21
10.4469
  0
LINE
  8
0
 10
-60.5621
 20
10.4469
 11
-60.1884
 21
10.4941
  0
LINE
  8
0
 10
-60.1884
 20
10.4941
 11
-59.8116
 21
10.4941
  0
LINE
  8
0
 10
-59.8116
 20
10.4941
 11
-59.4379
 21
10.4469
  0
LINE
  8
0
 10
-59.4379
 20
10.4469
 11
-59.0729
 21
10.3532
  0
LINE
  8
0
 10
-59.0729
 20
10.3532
 11
-58.7227
 21
10.2145
  0
LINE
  8
0
 10
-58.7227
 20
10.2145
 11
-58.3925
 21
10.033
  0
LINE
  8
0
 10
-58.3925
 20
10.033
 11
-58.0877
 21
9.81154
  0
LINE
  8
0
 10
-58.0877
 20
9.81154
 11
-57.8131
 21
9.55363
  0
LINE
  8
0
 10
-57.8131
 20
9.55363
 11
-57.5729
 21
9.26335
  0
LINE
  8
0
 10
-57.5729
 20
9.26335
 11
-57.3711
 21
8.94525
  0
LINE
  8
0
 10
-57.3711
 20
8.94525
 11
-57.2107
 21
8.60437
  0
LINE
  8
0
 10
-57.2107
 20
8.60437
 11
-57.0942
 21
8.24606
  0
LINE
  8
0
 10
-57.0942
 20
8.24606
 11
-57.0237
 21
7.87599
  0
LINE
  8
0
 10
-57.0237
 20
7.87599
 11
-57
 21
7.5
  0
LINE
  8
0
 10
-57
 20
7.5
 11
-57.0237
 21
7.12399
  0
LINE
  8
0
 10
-57.0237
 20
7.12399
 11
-57.0942
 21
6.75392
  0
LINE
  8
0
 10
-57.0942
 20
6.75392
 11
-57.2107
 21
6.39561
  0
LINE
  8
0
 10
-57.2107
 20
6.39561
 11
-57.3711
 21
6.05473
  0
LINE
  8
0
 10
-57.3711
 20
6.05473
 11
-57.5729
 21
5.73663
  0
LINE
  8
0
 10
-57.5729
 20
5.73663
 11
-57.8131
 21
5.44635
  0
LINE
  8
0
 10
-57.8131
 20
5.44635
 11
-58.0877
 21
5.18845
  0
LINE
  8
0
 10
-58.0877
 20
5.18845
 11
-58.3925
 21
4.96701
  0
LINE
  8
0
 10
-58.3925
 20
4.96701
 11
-58.7227
 21
4.78551
  0
LINE
  8
0
 10
-58.7227
 20
4.78551
 11
-59.0729
 21
4.64682
  0
LINE
  8
0
 10
-59.0729
 20
4.64682
 11
-59.4379
 21
4.55313
  0
LINE
  8
0
 10
-59.4379
 20
4.55313
 11
-59.8116
 21
4.50591
  0
LINE
  8
0
 10
-59.8116
 20
4.50591
 11
-60.1884
 21
4.50591
  0
LINE
  8
0
 10
59.8116
 20
4.50591
 11
59.4379
 21
4.55313
  0
LINE
  8
0
 10
59.4379
 20
4.55313
 11
59.0729
 21
4.64682
  0
LINE
  8
0
 10
59.0729
 20
4.64682
 11
58.7227
 21
4.78551
  0
LINE
  8
0
 10
58.7227
 20
4.78551
 11
58.3925
 21
4.96701
  0
LINE
  8
0
 10
58.3925
 20
4.96701
 11
58.0877
 21
5.18845
  0
LINE
  8
0
 10
58.0877
 20
5.18845
 11
57.8131
 21
5.44635
  0
LINE
  8
0
 10
57.8131
 20
5.44635
 11
57.5729
 21
5.73663
  0
LINE
  8
0
 10
57.5729
 20
5.73663
 11
57.3711
 21
6.05473
  0
LINE
  8
0
 10
57.3711
 20
6.05473
 11
57.2107
 21
6.39561
  0
LINE
  8
0
 10
57.2107
 20
6.39561
 11
57.0942
 21
6.75392
  0
LINE
  8
0
 10
57.0942
 20
6.75392
 11
57.0237
 21
7.12399
  0
LINE
  8
0
 10
57.0237
 20
7.12399
 11
57
 21
7.5
  0
LINE
  8
0
 10
57
 20
7.5
 11
57.0237
 21
7.87599
  0
LINE
  8
0
 10
57.0237
 20
7.87599
 11
57.0942
 21
8.24606
  0
LINE
  8
0
 10
57.0942
 20
8.24606
 11
57.2107
 21
8.60437
  0
LINE
  8
0
 10
57.2107
 20
8.60437
 11
57.3711
 21
8.94525
  0
LINE
  8
0
 10
57.3711
 20
8.94525
 11
57.5729
 21
9.26335
  0
LINE
  8
0
 10
57.5729
 20
9.26335
 11
57.8131
 21
9.55363
  0
LINE
  8
0
 10
57.8131
 20
9.55363
 11
58.0877
 21
9.81154
  0
LINE
  8
0
 10
58.0877
 20
9.81154
 11
58.3925
 21
10.033
  0
LINE
  8
0
 10
58.3925
 20
10.033
 11
58.7227
 21
10.2145
  0
LINE
  8
0
 10
58.7227
 20
10.2145
 11
59.0729
 21
10.3532
  0
LINE
  8
0
 10
59.0729
 20
10.3532
 11
59.4379
 21
10.4469
  0
LINE
  8
0
 10
59.4379
 20
10.4469
 11
59.8116
 21
10.4941
  0
LINE
  8
0
 10
59.8116
 20
10.4941
 11
60.1884
 21
10.4941
  0
LINE
  8
0
 10
60.1884
 20
10.4941
 11
60.5621
 21
10.4469
  0
LINE
  8
0
 10
60.5621
 20
10.4469
 11
60.927
 21
10.3532
  0
LINE
  8
0
 10
60.927
 20
10.3532
 11
61.2773
 21
10.2145
  0
LINE
  8
0
 10
61.2773
 20
10.2145
 11
61.6075
 21
10.033
  0
LINE
  8
0
 10
61.6075
 20
10.033
 11
61.9123
 21
9.81154
  0
LINE
  8
0
 10
61.9123
 20
9.81154
 11
62.1869
 21
9.55363
  0
LINE
  8
0
 10
62.1869
 20
9.55363
 11
62.427
 21
9.26335
  0
LINE
  8
0
 10
62.427
 20
9.26335
 11
62.6289
 21
8.94525
  0
LINE
  8
0
 10
62.6289
 20
8.94525
 11
62.7893
 21
8.60437
  0
LINE
  8
0
 10
62.7893
 20
8.60437
 11
62.9057
 21
8.24606
  0
LINE
  8
0
 10
62.9057
 20
8.24606
 11
62.9763
 21
7.87599
  0
LINE
  8
0
 10
62.9763
 20
7.87599
 11
63
 21
7.5
  0
LINE
  8
0
 10
63
 20
7.5
 11
62.9763
 21
7.12399
  0
LINE
  8
0
 10
62.9763
 20
7.12399
 11
62.9057
 21
6.75392
  0
LINE
  8
0
 10
62.9057
 20
6.75392
 11
62.7893
 21
6.39561
  0
LINE
  8
0
 10
62.7893
 20
6.39561
 11
62.6289
 21
6.05473
  0
LINE
  8
0
 10
62.6289
 20
6.05473
 11
62.427
 21
5.73663
  0
LINE
  8
0
 10
62.427
 20
5.73663
 11
62.1869
 21
5.44635
  0
LINE
  8
0
 10
62.1869
 20
5.44635
 11
61.9123
 21
5.18845
  0
LINE
  8
0
 10
61.9123
 20
5.18845
 11
61.6075
 21
4.96701
  0
LINE
  8
0
 10
61.6075
 20
4.96701
 11
61.2773
 21
4.78551
  0
LINE
  8
0
 10
61.2773
 20
4.78551
 11
60.927
 21
4.64682
  0
LINE
  8
0
 10
60.927
 20
4.64682
 11
60.5621
 21
4.55313
  0
LINE
  8
0
 10
60.5621
 20
4.55313
 11
60.1884
 21
4.50591
  0
LINE
  8
0
 10
60.1884
 20
4.50591
 11
59.8116
 21
4.50591
  0
LINE
  8
0
 10
-60.0942
 20
-1.49704
 11
-60.2811
 21
-1.47342
  0
LINE
  8
0
 10
-60.2811
 20
-1.47342
 11
-60.4635
 21
-1.42657
  0
LINE
  8
0
 10
-60.4635
 20
-1.42657
 11
-60.6387
 21
-1.35724
  0
LINE
  8
0
 10
-60.6387
 20
-1.35724
 11
-60.8037
 21
-1.26648
  0
LINE
  8
0
 10
-60.8037
 20
-1.26648
 11
-60.9561
 21
-1.15576
  0
LINE
  8
0
 10
-60.9561
 20
-1.15576
 11
-61.0934
 21
-1.02681
  0
LINE
  8
0
 10
-61.0934
 20
-1.02681
 11
-61.2135
 21
-0.881668
  0
LINE
  8
0
 10
-61.2135
 20
-0.881668
 11
-61.3145
 21
-0.722626
  0
LINE
  8
0
 10
-61.3145
 20
-0.722626
 11
-61.3947
 21
-0.552185
  0
LINE
  8
0
 10
-61.3947
 20
-0.552185
 11
-61.4529
 21
-0.373032
  0
LINE
  8
0
 10
-61.4529
 20
-0.373032
 11
-61.4882
 21
-0.187988
  0
LINE
  8
0
 10
-61.4882
 20
-0.187988
 11
-61.5
 21
0
  0
LINE
  8
0
 10
-61.5
 20
0
 11
-61.4882
 21
0.187988
  0
LINE
  8
0
 10
-61.4882
 20
0.187988
 11
-61.4529
 21
0.373032
  0
LINE
  8
0
 10
-61.4529
 20
0.373032
 11
-61.3947
 21
0.552185
  0
LINE
  8
0
 10
-61.3947
 20
0.552185
 11
-61.3145
 21
0.722626
  0
LINE
  8
0
 10
-61.3145
 20
0.722626
 11
-61.2135
 21
0.881668
  0
LINE
  8
0
 10
-61.2135
 20
0.881668
 11
-61.0934
 21
1.02681
  0
LINE
  8
0
 10
-61.0934
 20
1.02681
 11
-60.9561
 21
1.15576
  0
LINE
  8
0
 10
-60.9561
 20
1.15576
 11
-60.8037
 21
1.26648
  0
LINE
  8
0
 10
-60.8037
 20
1.26648
 11
-60.6387
 21
1.35724
  0
LINE
  8
0
 10
-60.6387
 20
1.35724
 11
-60.4635
 21
1.42657
  0
LINE
  8
0
 10
-60.4635
 20
1.42657
 11
-60.2811
 21
1.47342
  0
LINE
  8
0
 10
-60.2811
 20
1.47342
 11
-60.0942
 21
1.49704
  0
LINE
  8
0
 10
-60.0942
 20
1.49704
 11
-59.9058
 21
1.49704
  0
LINE
  8
0
 10
-59.9058
 20
1.49704
 11
-59.7189
 21
1.47342
  0
LINE
  8
0
 10
-59.7189
 20
1.47342
 11
-59.5365
 21
1.42657
  0
LINE
  8
0
 10
-59.5365
 20
1.42657
 11
-59.3613
 21
1.35724
  0
LINE
  8
0
 10
-59.3613
 20
1.35724
 11
-59.1963
 21
1.26648
  0
LINE
  8
0
 10
-59.1963
 20
1.26648
 11
-59.0439
 21
1.15576
  0
LINE
  8
0
 10
-59.0439
 20
1.15576
 11
-58.9065
 21
1.02681
  0
LINE
  8
0
 10
-58.9065
 20
1.02681
 11
-58.7865
 21
0.881668
  0
LINE
  8
0
 10
-58.7865
 20
0.881668
 11
-58.6855
 21
0.722626
  0
LINE
  8
0
 10
-58.6855
 20
0.722626
 11
-58.6053
 21
0.552185
  0
LINE
  8
0
 10
-58.6053
 20
0.552185
 11
-58.5471
 21
0.373032
  0
LINE
  8
0
 10
-58.5471
 20
0.373032
 11
-58.5118
 21
0.187988
  0
LINE
  8
0
 10
-58.5118
 20
0.187988
 11
-58.5
 21
0
  0
LINE
  8
0
 10
-58.5
 20
0
 11
-58.5118
 21
-0.187988
  0
LINE
  8
0
 10
-58.5118
 20
-0.187988
 11
-58.5471
 21
-0.373032
  0
LINE
  8
0
 10
-58.5471
 20
-0.373032
 11
-58.6053
 21
-0.552185
  0
LINE
  8
0
 10
-58.6053
 20
-0.552185
 11
-58.6855
 21
-0.722626
  0
LINE
  8
0
 10
-58.6855
 20
-0.722626
 11
-58.7865
 21
-0.881668
  0
LINE
  8
0
 10
-58.7865
 20
-0.881668
 11
-58.9065
 21
-1.02681
  0
LINE
  8
0
 10
-58.9065
 20
-1.02681
 11
-59.0439
 21
-1.15576
  0
LINE
  8
0
 10
-59.0439
 20
-1.15576
 11
-59.1963
 21
-1.26648
  0
LINE
  8
0
 10
-59.1963
 20
-1.26648
 11
-59.3613
 21
-1.35724
  0
LINE
  8
0
 10
-59.3613
 20
-1.35724
 11
-59.5365
 21
-1.42657
  0
LINE
  8
0
 10
-59.5365
 20
-1.42657
 11
-59.7189
 21
-1.47342
  0
LINE
  8
0
 10
-59.7189
 20
-1.47342
 11
-59.9058
 21
-1.49704
  0
LINE
  8
0
 10
-59.9058
 20
-1.49704
 11
-60.0942
 21
-1.49704
  0
LINE
  8
0
 10
59.9058
 20
-1.49704
 11
59.7189
 21
-1.47342
  0
LINE
  8
0
 10
59.7189
 20
-1.47342
 11
59.5365
 21
-1.42657
  0
LINE
  8
0
 10
59.5365
 20
-1.42657
 11
59.3613
 21
-1.35724
  0
LINE
  8
0
 10
59.3613
 20
-1.35724
 11
59.1963
 21
-1.26648
  0
LINE
  8
0
 10
59.1963
 20
-1.26648
 11
59.0439
 21
-1.15576
  0
LINE
  8
0
 10
59.0439
 20
-1.15576
 11
58.9065
 21
-1.02681
  0
LINE
  8
0
 10
58.9065
 20
-1.02681
 11
58.7865
 21
-0.881668
  0
LINE
  8
0
 10
58.7865
 20
-0.881668
 11
58.6855
 21
-0.722626
  0
LINE
  8
0
 10
58.6855
 20
-0.722626
 11
58.6053
 21
-0.552185
  0
LINE
  8
0
 10
58.6053
 20
-0.552185
 11
58.5471
 21
-0.373032
  0
LINE
  8
0
 10
58.5471
 20
-0.373032
 11
58.5118
 21
-0.187988
  0
LINE
  8
0
 10
58.5118
 20
-0.187988
 11
58.5
 21
0
  0
LINE
  8
0
 10
58.5
 20
0
 11
58.5118
 21
0.187988
  0
LINE
  8
0
 10
58.5118
 20
0.187988
 11
58.5471
 21
0.373032
  0
LINE
  8
0
 10
58.5471
 20
0.373032
 11
58.6053
 21
0.552185
  0
LINE
  8
0
 10
58.6053
 20
0.552185
 11
58.6855
 21
0.722626
  0
LINE
  8
0
 10
58.6855
 20
0.722626
 11
58.7865
 21
0.881668
  0
LINE
  8
0
 10
58.7865
 20
0.881668
 11
58.9065
 21
1.02681
  0
LINE
  8
0
 10
58.9065
 20
1.02681
 11
59.0439
 21
1.15576
  0
LINE
  8
0
 10
59.0439
 20
1.15576
 11
59.1963
 21
1.26648
  0
LINE
  8
0
 10
59.1963
 20
1.26648
 11
59.3613
 21
1.35724
  0
LINE
  8
0
 10
59.3613
 20
1.35724
 11
59.5365
 21
1.42657
  0
LINE
  8
0
 10
59.5365
 20
1.42657
 11
59.7189
 21
1.47342
  0
LINE
  8
0
 10
59.7189
 20
1.47342
 11
59.9058
 21
1.49704
  0
LINE
  8
0
 10
59.9058
 20
1.49704
 11
60.0942
 21
1.49704
  0
LINE
  8
0
 10
60.0942
 20
1.49704
 11
60.2811
 21
1.47342
  0
LINE
  8
0
 10
60.2811
 20
1.47342
 11
60.4635
 21
1.42657
  0
LINE
  8
0
 10
60.4635
 20
1.42657
 11
60.6387
 21
1.35724
  0
LINE
  8
0
 10
60.6387
 20
1.35724
 11
60.8037
 21
1.26648
  0
LINE
  8
0
 10
60.8037
 20
1.26648
 11
60.9561
 21
1.15576
  0
LINE
  8
0
 10
60.9561
 20
1.15576
 11
61.0934
 21
1.02681
  0
LINE
  8
0
 10
61.0934
 20
1.02681
 11
61.2135
 21
0.881668
  0
LINE
  8
0
 10
61.2135
 20
0.881668
 11
61.3145
 21
0.722626
  0
LINE
  8
0
 10
61.3145
 20
0.722626
 11
61.3947
 21
0.552185
  0
LINE
  8
0
 10
61.3947
 20
0.552185
 11
61.4529
 21
0.373032
  0
LINE
  8
0
 10
61.4529
 20
0.373032
 11
61.4882
 21
0.187988
  0
LINE
  8
0
 10
61.4882
 20
0.187988
 11
61.5
 21
0
  0
LINE
  8
0
 10
61.5
 20
0
 11
61.4882
 21
-0.187988
  0
LINE
  8
0
 10
61.4882
 20
-0.187988
 11
61.4529
 21
-0.373032
  0
LINE
  8
0
 10
61.4529
 20
-0.373032
 11
61.3947
 21
-0.552185
  0
LINE
  8
0
 10
61.3947
 20
-0.552185
 11
61.3145
 21
-0.722626
  0
LINE
  8
0
 10
61.3145
 20
-0.722626
 11
61.2135
 21
-0.881668
  0
LINE
  8
0
 10
61.2135
 20
-0.881668
 11
61.0934
 21
-1.02681
  0
LINE
  8
0
 10
61.0934
 20
-1.02681
 11
60.9561
 21
-1.15576
  0
LINE
  8
0
 10
60.9561
 20
-1.15576
 11
60.8037
 21
-1.26648
  0
LINE
  8
0
 10
60.8037
 20
-1.26648
 11
60.6387
 21
-1.35724
  0
LINE
  8
0
 10
60.6387
 20
-1.35724
 11
60.4635
 21
-1.42657
  0
LINE
  8
0
 10
60.4635
 20
-1.42657
 11
60.2811
 21
-1.47342
  0
LINE
  8
0
 10
60.2811
 20
-1.47342
 11
60.0942
 21
-1.49704
  0
LINE
  8
0
 10
60.0942
 20
-1.49704
 11
59.9058
 21
-1.49704
  0
LINE
  8
0
 10
-60.1884
 20
-10.4941
 11
-60.5621
 21
-10.4469
  0
LINE
  8
0
 10
-60.5621
 20
-10.4469
 11
-60.927
 21
-10.3532
  0
LINE
  8
0
 10
-60.927
 20
-10.3532
 11
-61.2773
 21
-10.2145
  0
LINE
  8
0
 10
-61.2773
 20
-10.2145
 11
-61.6075
 21
-10.033
  0
LINE
  8
0
 10
-61.6075
 20
-10.033
 11
-61.9123
 21
-9.81154
  0
LINE
  8
0
 10
-61.9123
 20
-9.81154
 11
-62.1869
 21
-9.55363
  0
LINE
  8
0
 10
-62.1869
 20
-9.55363
 11
-62.427
 21
-9.26335
  0
LINE
  8
0
 10
-62.427
 20
-9.26335
 11
-62.6289
 21
-8.94525
  0
LINE
  8
0
 10
-62.6289
 20
-8.94525
 11
-62.7893
 21
-8.60437
  0
LINE
  8
0
 10
-62.7893
 20
-8.60437
 11
-62.9057
 21
-8.24606
  0
LINE
  8
0
 10
-62.9057
 20
-8.24606
 11
-62.9763
 21
-7.87599
  0
LINE
  8
0
 10
-62.9763
 20
-7.87599
 11
-63
 21
-7.5
  0
LINE
  8
0
 10
-63
 20
-7.5
 11
-62.9763
 21
-7.12399
  0
LINE
  8
0
 10
-62.9763
 20
-7.12399
 11
-62.9057
 21
-6.75392
  0
LINE
  8
0
 10
-62.9057
 20
-6.75392
 11
-62.7893
 21
-6.39561
  0
LINE
  8
0
 10
-62.7893
 20
-6.39561
 11
-62.6289
 21
-6.05473
  0
LINE
  8
0
 10
-62.6289
 20
-6.05473
 11
-62.427
 21
-5.73663
  0
LINE
  8
0
 10
-62.427
 20
-5.73663
 11
-62.1869
 21
-5.44635
  0
LINE
  8
0
 10
-62.1869
 20
-5.44635
 11
-61.9123
 21
-5.18845
  0
LINE
  8
0
 10
-61.9123
 20
-5.18845
 11
-61.6075
 21
-4.96701
  0
LINE
  8
0
 10
-61.6075
 20
-4.96701
 11
-61.2773
 21
-4.78551
  0
LINE
  8
0
 10
-61.2773
 20
-4.78551
 11
-60.927
 21
-4.64682
  0
LINE
  8
0
 10
-60.927
 20
-4.64682
 11
-60.5621
 21
-4.55313
  0
LINE
  8
0
 10
-60.5621
 20
-4.55313
 11
-60.1884
 21
-4.50591
  0
LINE
  8
0
 10
-60.1884
 20
-4.50591
 11
-59.8116
 21
-4.50591
  0
LINE
  8
0
 10
-59.8116
 20
-4.50591
 11
-59.4379
 21
-4.55313
  0
LINE
  8
0
 10
-59.4379
 20
-4.55313
 11
-59.0729
 21
-4.64682
  0
LINE
  8
0
 10
-59.0729
 20
-4.64682
 11
-58.7227
 21
-4.78551
  0
LINE
  8
0
 10
-58.7227
 20
-4.78551
 11
-58.3925
 21
-4.96701
  0
LINE
  8
0
 10
-58.3925
 20
-4.96701
 11
-58.0877
 21
-5.18845
  0
LINE
  8
0
 10
-58.0877
 20
-5.18845
 11
-57.8131
 21
-5.44635
  0
LINE
  8
0
 10
-57.8131
 20
-5.44635
 11
-57.5729
 21
-5.73663
  0
LINE
  8
0
 10
-57.5729
 20
-5.73663
 11
-57.3711
 21
-6.05473
  0
LINE
  8
0
 10
-57.3711
 20
-6.05473
 11
-57.2107
 21
-6.39561
  0
LINE
  8
0
 10
-57.2107
 20
-6.39561
 11
-57.0942
 21
-6.75392
  0
LINE
  8
0
 10
-57.0942
 20
-6.75392
 11
-57.0237
 21
-7.12399
  0
LINE
  8
0
 10
-57.0237
 20
-7.12399
 11
-57
 21
-7.5
  0
LINE
  8
0
 10
-57
 20
-7.5
 11
-57.0237
 21
-7.87599
  0
LINE
  8
0
 10
-57.0237
 20
-7.87599
 11
-57.0942
 21
-8.24606
  0
LINE
  8
0
 10
-57.0942
 20
-8.24606
 11
-57.2107
 21
-8.60437
  0
LINE
  8
0
 10
-57.2107
 20
-8.60437
 11
-57.3711
 21
-8.94525
  0
LINE
  8
0
 10
-57.3711
 20
-8.94525
 11
-57.5729
 21
-9.26335
  0
LINE
  8
0
 10
-57.5729
 20
-9.26335
 11
-57.8131
 21
-9.55363
  0
LINE
  8
0
 10
-57.8131
 20
-9.55363
 11
-58.0877
 21
-9.81154
  0
LINE
  8
0
 10
-58.0877
 20
-9.81154
 11
-58.3925
 21
-10.033
  0
LINE
  8
0
 10
-58.3925
 20
-10.033
 11
-58.7227
 21
-10.2145
  0
LINE
  8
0
 10
-58.7227
 20
-10.2145
 11
-59.0729
 21
-10.3532
  0
LINE
  8
0
 10
-59.0729
 20
-10.3532
 11
-59.4379
 21
-10.4469
  0
LINE
  8
0
 10
-59.4379
 20
-10.4469
 11
-59.8116
 21
-10.4941
  0
LINE
  8
0
 10
-59.8116
 20
-10.4941
 11
-60.1884
 21
-10.4941
  0
LINE
  8
0
 10
59.8116
 20
-10.4941
 11
59.4379
 21
-10.4469
  0
LINE
  8
0
 10
59.4379
 20
-10.4469
 11
59.0729
 21
-10.3532
  0
LINE
  8
0
 10
59.0729
 20
-10.3532
 11
58.7227
 21
-10.2145
  0
LINE
  8
0
 10
58.7227
 20
-10.2145
 11
58.3925
 21
-10.033
  0
LINE
  8
0
 10
58.3925
 20
-10.033
 11
58.0877
 21
-9.81154
  0
LINE
  8
0
 10
58.0877
 20
-9.81154
 11
57.8131
 21
-9.55363
  0
LINE
  8
0
 10
57.8131
 20
-9.55363
 11
57.5729
 21
-9.26335
  0
LINE
  8
0
 10
57.5729
 20
-9.26335
 11
57.3711
 21
-8.94525
  0
LINE
  8
0
 10
57.3711
 20
-8.94525
 11
57.2107
 21
-8.60437
  0
LINE
  8
0
 10
57.2107
 20
-8.60437
 11
57.0942
 21
-8.24606
  0
LINE
  8
0
 10
57.0942
 20
-8.24606
 11
57.0237
 21
-7.87599
  0
LINE
  8
0
 10
57.0237
 20
-7.87599
 11
57
 21
-7.5
  0
LINE
  8
0
 10
57
 20
-7.5
 11
57.0237
 21
-7.12399
  0
LINE
  8
0
 10
57.0237
 20
-7.12399
 11
57.0942
 21
-6.75392
  0
LINE
  8
0
 10
57.0942
 20
-6.75392
 11
57.2107
 21
-6.39561
  0
LINE
  8
0
 10
57.2107
 20
-6.39561
 11
57.3711
 21
-6.05473
  0
LINE
  8
0
 10
57.3711
 20
-6.05473
 11
57.5729
 21
-5.73663
  0
LINE
  8
0
 10
57.5729
 20
-5.73663
 11
57.8131
 21
-5.44635
  0
LINE
  8
0
 10
57.8131
 20
-5.44635
 11
58.0877
 21
-5.18845
  0
LINE
  8
0
 10
58.0877
 20
-5.18845
 11
58.3925
 21
-4.96701
  0
LINE
  8
0
 10
58.3925
 20
-4.96701
 11
58.7227
 21
-4.78551
  0
LINE
  8
0
 10
58.7227
 20
-4.78551
 11
59.0729
 21
-4.64682
  0
LINE
  8
0
 10
59.0729
 20
-4.64682
 11
59.4379
 21
-4.55313
  0
LINE
  8
0
 10
59.4379
 20
-4.55313
 11
59.8116
 21
-4.50591
  0
LINE
  8
0
 10
59.8116
 20
-4.50591
 11
60.1884
 21
-4.50591
  0
LINE
  8
0
 10
60.1884
 20
-4.50591
 11
60.5621
 21
-4.55313
  0
LINE
  8
0
 10
60.5621
 20
-4.55313
 11
60.927
 21
-4.64682
  0
LINE
  8
0
 10
60.927
 20
-4.64682
 11
61.2773
 21
-4.78551
  0
LINE
  8
0
 10
61.2773
 20
-4.78551
 11
61.6075
 21
-4.96701
  0
LINE
  8
0
 10
61.6075
 20
-4.96701
 11
61.9123
 21
-5.18845
  0
LINE
  8
0
 10
61.9123
 20
-5.18845
 11
62.1869
 21
-5.44635
  0
LINE
  8
0
 10
62.1869
 20
-5.44635
 11
62.427
 21
-5.73663
  0
LINE
  8
0
 10
62.427
 20
-5.73663
 11
62.6289
 21
-6.05473
  0
LINE
  8
0
 10
62.6289
 20
-6.05473
 11
62.7893
 21
-6.39561
  0
LINE
  8
0
 10
62.7893
 20
-6.39561
 11
62.9057
 21
-6.75392
  0
LINE
  8
0
 10
62.9057
 20
-6.75392
 11
62.9763
 21
-7.12399
  0
LINE
  8
0
 10
62.9763
 20
-7.12399
 11
63
 21
-7.5
  0
LINE
  8
0
 10
63
 20
-7.5
 11
62.9763
 21
-7.87599
  0
LINE
  8
0
 10
62.9763
 20
-7.87599
 11
62.9057
 21
-8.24606
  0
LINE
  8
0
 10
62.9057
 20
-8.24606
 11
62.7893
 21
-8.60437
  0
LINE
  8
0
 10
62.7893
 20
-8.60437
 11
62.6289
 21
-8.94525
  0
LINE
  8
0
 10
62.6289
 20
-8.94525
 11
62.427
 21
-9.26335
  0
LINE
  8
0
 10
62.427
 20
-9.26335
 11
62.1869
 21
-9.55363
  0
LINE
  8
0
 10
62.1869
 20
-9.55363
 11
61.9123
 21
-9.81154
  0
LINE
  8
0
 10
61.9123
 20
-9.81154
 11
61.6075
 21
-10.033
  0
LINE
  8
0
 10
61.6075
 20
-10.033
 11
61.2773
 21
-10.2145
  0
LINE
  8
0
 10
61.2773
 20
-10.2145
 11
60.927
 21
-10.3532
  0
LINE
  8
0
 10
60.927
 20
-10.3532
 11
60.5621
 21
-10.4469
  0
LINE
  8
0
 10
60.5621
 20
-10.4469
 11
60.1884
 21
-10.4941
  0
LINE
  8
0
 10
60.1884
 20
-10.4941
 11
59.8116
 21
-10.4941
  0
ENDSEC
  0
SECTION
  2
OBJECTS
  0
DICTIONARY
  0
ENDSEC
  0
EOF
