  0
SECTION
  2
BLOCKS
  0
ENDSEC
  0
SECTION
  2
ENTITIES
  0
LINE
  8
0
 10
17.9369
 20
24.5886
 11
18.5451
 21
24.7447
  0
LINE
  8
0
 10
18.5451
 20
24.7447
 11
19.1289
 21
24.9759
  0
LINE
  8
0
 10
19.1289
 20
24.9759
 11
19.6791
 21
25.2784
  0
LINE
  8
0
 10
19.6791
 20
25.2784
 11
20.1871
 21
25.6474
  0
LINE
  8
0
 10
20.1871
 20
25.6474
 11
20.6448
 21
26.0773
  0
LINE
  8
0
 10
20.6448
 20
26.0773
 11
21.0451
 21
26.5611
  0
LINE
  8
0
 10
21.0451
 20
26.5611
 11
21.3815
 21
27.0912
  0
LINE
  8
0
 10
21.3815
 20
27.0912
 11
21.6489
 21
27.6594
  0
LINE
  8
0
 10
21.6489
 20
27.6594
 11
21.8429
 21
28.2566
  0
LINE
  8
0
 10
21.8429
 20
28.2566
 11
21.9606
 21
28.8733
  0
LINE
  8
0
 10
21.9606
 20
28.8733
 11
22
 21
29.5
  0
LINE
  8
0
 10
22
 20
29.5
 11
22
 21
48.5
  0
LINE
  8
0
 10
22
 20
48.5
 11
21.9606
 21
49.1267
  0
LINE
  8
0
 10
21.9606
 20
49.1267
 11
21.8429
 21
49.7434
  0
LINE
  8
0
 10
21.8429
 20
49.7434
 11
21.6489
 21
50.3406
  0
LINE
  8
0
 10
21.6489
 20
50.3406
 11
21.3815
 21
50.9088
  0
LINE
  8
0
 10
21.3815
 20
50.9088
 11
21.0451
 21
51.4389
  0
LINE
  8
0
 10
21.0451
 20
51.4389
 11
20.6448
 21
51.9227
  0
LINE
  8
0
 10
20.6448
 20
51.9227
 11
20.1871
 21
52.3526
  0
LINE
  8
0
 10
20.1871
 20
52.3526
 11
19.6791
 21
52.7216
  0
LINE
  8
0
 10
19.6791
 20
52.7216
 11
19.1289
 21
53.0241
  0
LINE
  8
0
 10
19.1289
 20
53.0241
 11
18.5451
 21
53.2553
  0
LINE
  8
0
 10
18.5451
 20
53.2553
 11
17.9369
 21
53.4114
  0
LINE
  8
0
 10
17.9369
 20
53.4114
 11
17.3139
 21
53.4901
  0
LINE
  8
0
 10
17.3139
 20
53.4901
 11
-17.3139
 21
53.4901
  0
LINE
  8
0
 10
-17.3139
 20
53.4901
 11
-17.9369
 21
53.4114
  0
LINE
  8
0
 10
-17.9369
 20
53.4114
 11
-18.5451
 21
53.2553
  0
LINE
  8
0
 10
-18.5451
 20
53.2553
 11
-19.1289
 21
53.0241
  0
LINE
  8
0
 10
-19.1289
 20
53.0241
 11
-19.6791
 21
52.7216
  0
LINE
  8
0
 10
-19.6791
 20
52.7216
 11
-20.1871
 21
52.3526
  0
LINE
  8
0
 10
-20.1871
 20
52.3526
 11
-20.6448
 21
51.9227
  0
LINE
  8
0
 10
-20.6448
 20
51.9227
 11
-21.0451
 21
51.4389
  0
LINE
  8
0
 10
-21.0451
 20
51.4389
 11
-21.3815
 21
50.9088
  0
LINE
  8
0
 10
-21.3815
 20
50.9088
 11
-21.6489
 21
50.3406
  0
LINE
  8
0
 10
-21.6489
 20
50.3406
 11
-21.8429
 21
49.7434
  0
LINE
  8
0
 10
-21.8429
 20
49.7434
 11
-21.9606
 21
49.1267
  0
LINE
  8
0
 10
-21.9606
 20
49.1267
 11
-22
 21
48.5
  0
LINE
  8
0
 10
-22
 20
48.5
 11
-22
 21
29.5
  0
LINE
  8
0
 10
-22
 20
29.5
 11
-21.9606
 21
28.8733
  0
LINE
  8
0
 10
-21.9606
 20
28.8733
 11
-21.8429
 21
28.2566
  0
LINE
  8
0
 10
-21.8429
 20
28.2566
 11
-21.6489
 21
27.6594
  0
LINE
  8
0
 10
-21.6489
 20
27.6594
 11
-21.3815
 21
27.0912
  0
LINE
  8
0
 10
-21.3815
 20
27.0912
 11
-21.0451
 21
26.5611
  0
LINE
  8
0
 10
-21.0451
 20
26.5611
 11
-20.6448
 21
26.0773
  0
LINE
  8
0
 10
-20.6448
 20
26.0773
 11
-20.1871
 21
25.6474
  0
LINE
  8
0
 10
-20.1871
 20
25.6474
 11
-19.6791
 21
25.2784
  0
LINE
  8
0
 10
-19.6791
 20
25.2784
 11
-19.1289
 21
24.9759
  0
LINE
  8
0
 10
-19.1289
 20
24.9759
 11
-18.5451
 21
24.7447
  0
LINE
  8
0
 10
-18.5451
 20
24.7447
 11
-17.9369
 21
24.5886
  0
LINE
  8
0
 10
-17.9369
 20
24.5886
 11
-17.3139
 21
24.5099
  0
LINE
  8
0
 10
-17.3139
 20
24.5099
 11
17.3139
 21
24.5099
  0
LINE
  8
0
 10
17.3139
 20
24.5099
 11
17.9369
 21
24.5886
  0
LINE
  8
0
 10
-15.1884
 20
43.5059
 11
-15.5621
 21
43.5531
  0
LINE
  8
0
 10
-15.5621
 20
43.5531
 11
-15.927
 21
43.6468
  0
LINE
  8
0
 10
-15.927
 20
43.6468
 11
-16.2773
 21
43.7855
  0
LINE
  8
0
 10
-16.2773
 20
43.7855
 11
-16.6075
 21
43.967
  0
LINE
  8
0
 10
-16.6075
 20
43.967
 11
-16.9123
 21
44.1884
  0
LINE
  8
0
 10
-16.9123
 20
44.1884
 11
-17.1869
 21
44.4464
  0
LINE
  8
0
 10
-17.1869
 20
44.4464
 11
-17.427
 21
44.7366
  0
LINE
  8
0
 10
-17.427
 20
44.7366
 11
-17.6289
 21
45.0547
  0
LINE
  8
0
 10
-17.6289
 20
45.0547
 11
-17.7893
 21
45.3956
  0
LINE
  8
0
 10
-17.7893
 20
45.3956
 11
-17.9057
 21
45.7539
  0
LINE
  8
0
 10
-17.9057
 20
45.7539
 11
-17.9763
 21
46.124
  0
LINE
  8
0
 10
-17.9763
 20
46.124
 11
-18
 21
46.5
  0
LINE
  8
0
 10
-18
 20
46.5
 11
-17.9763
 21
46.876
  0
LINE
  8
0
 10
-17.9763
 20
46.876
 11
-17.9057
 21
47.2461
  0
LINE
  8
0
 10
-17.9057
 20
47.2461
 11
-17.7893
 21
47.6044
  0
LINE
  8
0
 10
-17.7893
 20
47.6044
 11
-17.6289
 21
47.9453
  0
LINE
  8
0
 10
-17.6289
 20
47.9453
 11
-17.427
 21
48.2634
  0
LINE
  8
0
 10
-17.427
 20
48.2634
 11
-17.1869
 21
48.5536
  0
LINE
  8
0
 10
-17.1869
 20
48.5536
 11
-16.9123
 21
48.8115
  0
LINE
  8
0
 10
-16.9123
 20
48.8115
 11
-16.6075
 21
49.033
  0
LINE
  8
0
 10
-16.6075
 20
49.033
 11
-16.2773
 21
49.2145
  0
LINE
  8
0
 10
-16.2773
 20
49.2145
 11
-15.927
 21
49.3532
  0
LINE
  8
0
 10
-15.927
 20
49.3532
 11
-15.5621
 21
49.4469
  0
LINE
  8
0
 10
-15.5621
 20
49.4469
 11
-15.1884
 21
49.4941
  0
LINE
  8
0
 10
-15.1884
 20
49.4941
 11
-14.8116
 21
49.4941
  0
LINE
  8
0
 10
-14.8116
 20
49.4941
 11
-14.4379
 21
49.4469
  0
LINE
  8
0
 10
-14.4379
 20
49.4469
 11
-14.0729
 21
49.3532
  0
LINE
  8
0
 10
-14.0729
 20
49.3532
 11
-13.7227
 21
49.2145
  0
LINE
  8
0
 10
-13.7227
 20
49.2145
 11
-13.3925
 21
49.033
  0
LINE
  8
0
 10
-13.3925
 20
49.033
 11
-13.0877
 21
48.8115
  0
LINE
  8
0
 10
-13.0877
 20
48.8115
 11
-12.8131
 21
48.5536
  0
LINE
  8
0
 10
-12.8131
 20
48.5536
 11
-12.5729
 21
48.2634
  0
LINE
  8
0
 10
-12.5729
 20
48.2634
 11
-12.3711
 21
47.9453
  0
LINE
  8
0
 10
-12.3711
 20
47.9453
 11
-12.2107
 21
47.6044
  0
LINE
  8
0
 10
-12.2107
 20
47.6044
 11
-12.0942
 21
47.2461
  0
LINE
  8
0
 10
-12.0942
 20
47.2461
 11
-12.0237
 21
46.876
  0
LINE
  8
0
 10
-12.0237
 20
46.876
 11
-12
 21
46.5
  0
LINE
  8
0
 10
-12
 20
46.5
 11
-12.0237
 21
46.124
  0
LINE
  8
0
 10
-12.0237
 20
46.124
 11
-12.0942
 21
45.7539
  0
LINE
  8
0
 10
-12.0942
 20
45.7539
 11
-12.2107
 21
45.3956
  0
LINE
  8
0
 10
-12.2107
 20
45.3956
 11
-12.3711
 21
45.0547
  0
LINE
  8
0
 10
-12.3711
 20
45.0547
 11
-12.5729
 21
44.7366
  0
LINE
  8
0
 10
-12.5729
 20
44.7366
 11
-12.8131
 21
44.4464
  0
LINE
  8
0
 10
-12.8131
 20
44.4464
 11
-13.0877
 21
44.1884
  0
LINE
  8
0
 10
-13.0877
 20
44.1884
 11
-13.3925
 21
43.967
  0
LINE
  8
0
 10
-13.3925
 20
43.967
 11
-13.7227
 21
43.7855
  0
LINE
  8
0
 10
-13.7227
 20
43.7855
 11
-14.0729
 21
43.6468
  0
LINE
  8
0
 10
-14.0729
 20
43.6468
 11
-14.4379
 21
43.5531
  0
LINE
  8
0
 10
-14.4379
 20
43.5531
 11
-14.8116
 21
43.5059
  0
LINE
  8
0
 10
-14.8116
 20
43.5059
 11
-15.1884
 21
43.5059
  0
LINE
  8
0
 10
14.8116
 20
43.5059
 11
14.4379
 21
43.5531
  0
LINE
  8
0
 10
14.4379
 20
43.5531
 11
14.0729
 21
43.6468
  0
LINE
  8
0
 10
14.0729
 20
43.6468
 11
13.7227
 21
43.7855
  0
LINE
  8
0
 10
13.7227
 20
43.7855
 11
13.3925
 21
43.967
  0
LINE
  8
0
 10
13.3925
 20
43.967
 11
13.0877
 21
44.1884
  0
LINE
  8
0
 10
13.0877
 20
44.1884
 11
12.8131
 21
44.4464
  0
LINE
  8
0
 10
12.8131
 20
44.4464
 11
12.5729
 21
44.7366
  0
LINE
  8
0
 10
12.5729
 20
44.7366
 11
12.3711
 21
45.0547
  0
LINE
  8
0
 10
12.3711
 20
45.0547
 11
12.2107
 21
45.3956
  0
LINE
  8
0
 10
12.2107
 20
45.3956
 11
12.0942
 21
45.7539
  0
LINE
  8
0
 10
12.0942
 20
45.7539
 11
12.0237
 21
46.124
  0
LINE
  8
0
 10
12.0237
 20
46.124
 11
12
 21
46.5
  0
LINE
  8
0
 10
12
 20
46.5
 11
12.0237
 21
46.876
  0
LINE
  8
0
 10
12.0237
 20
46.876
 11
12.0942
 21
47.2461
  0
LINE
  8
0
 10
12.0942
 20
47.2461
 11
12.2107
 21
47.6044
  0
LINE
  8
0
 10
12.2107
 20
47.6044
 11
12.3711
 21
47.9453
  0
LINE
  8
0
 10
12.3711
 20
47.9453
 11
12.5729
 21
48.2634
  0
LINE
  8
0
 10
12.5729
 20
48.2634
 11
12.8131
 21
48.5536
  0
LINE
  8
0
 10
12.8131
 20
48.5536
 11
13.0877
 21
48.8115
  0
LINE
  8
0
 10
13.0877
 20
48.8115
 11
13.3925
 21
49.033
  0
LINE
  8
0
 10
13.3925
 20
49.033
 11
13.7227
 21
49.2145
  0
LINE
  8
0
 10
13.7227
 20
49.2145
 11
14.0729
 21
49.3532
  0
LINE
  8
0
 10
14.0729
 20
49.3532
 11
14.4379
 21
49.4469
  0
LINE
  8
0
 10
14.4379
 20
49.4469
 11
14.8116
 21
49.4941
  0
LINE
  8
0
 10
14.8116
 20
49.4941
 11
15.1884
 21
49.4941
  0
LINE
  8
0
 10
15.1884
 20
49.4941
 11
15.5621
 21
49.4469
  0
LINE
  8
0
 10
15.5621
 20
49.4469
 11
15.927
 21
49.3532
  0
LINE
  8
0
 10
15.927
 20
49.3532
 11
16.2773
 21
49.2145
  0
LINE
  8
0
 10
16.2773
 20
49.2145
 11
16.6075
 21
49.033
  0
LINE
  8
0
 10
16.6075
 20
49.033
 11
16.9123
 21
48.8115
  0
LINE
  8
0
 10
16.9123
 20
48.8115
 11
17.1869
 21
48.5536
  0
LINE
  8
0
 10
17.1869
 20
48.5536
 11
17.427
 21
48.2634
  0
LINE
  8
0
 10
17.427
 20
48.2634
 11
17.6289
 21
47.9453
  0
LINE
  8
0
 10
17.6289
 20
47.9453
 11
17.7893
 21
47.6044
  0
LINE
  8
0
 10
17.7893
 20
47.6044
 11
17.9057
 21
47.2461
  0
LINE
  8
0
 10
17.9057
 20
47.2461
 11
17.9763
 21
46.876
  0
LINE
  8
0
 10
17.9763
 20
46.876
 11
18
 21
46.5
  0
LINE
  8
0
 10
18
 20
46.5
 11
17.9763
 21
46.124
  0
LINE
  8
0
 10
17.9763
 20
46.124
 11
17.9057
 21
45.7539
  0
LINE
  8
0
 10
17.9057
 20
45.7539
 11
17.7893
 21
45.3956
  0
LINE
  8
0
 10
17.7893
 20
45.3956
 11
17.6289
 21
45.0547
  0
LINE
  8
0
 10
17.6289
 20
45.0547
 11
17.427
 21
44.7366
  0
LINE
  8
0
 10
17.427
 20
44.7366
 11
17.1869
 21
44.4464
  0
LINE
  8
0
 10
17.1869
 20
44.4464
 11
16.9123
 21
44.1884
  0
LINE
  8
0
 10
16.9123
 20
44.1884
 11
16.6075
 21
43.967
  0
LINE
  8
0
 10
16.6075
 20
43.967
 11
16.2773
 21
43.7855
  0
LINE
  8
0
 10
16.2773
 20
43.7855
 11
15.927
 21
43.6468
  0
LINE
  8
0
 10
15.927
 20
43.6468
 11
15.5621
 21
43.5531
  0
LINE
  8
0
 10
15.5621
 20
43.5531
 11
15.1884
 21
43.5059
  0
LINE
  8
0
 10
15.1884
 20
43.5059
 11
14.8116
 21
43.5059
  0
LINE
  8
0
 10
6.71744
 20
34.5089
 11
6.15678
 21
34.5797
  0
LINE
  8
0
 10
6.15678
 20
34.5797
 11
5.60942
 21
34.7203
  0
LINE
  8
0
 10
5.60942
 20
34.7203
 11
5.08398
 21
34.9283
  0
LINE
  8
0
 10
5.08398
 20
34.9283
 11
4.58878
 21
35.2005
  0
LINE
  8
0
 10
4.58878
 20
35.2005
 11
4.13159
 21
35.5327
  0
LINE
  8
0
 10
4.13159
 20
35.5327
 11
3.71964
 21
35.9195
  0
LINE
  8
0
 10
3.71964
 20
35.9195
 11
3.35942
 21
36.355
  0
LINE
  8
0
 10
3.35942
 20
36.355
 11
3.05661
 21
36.8321
  0
LINE
  8
0
 10
3.05661
 20
36.8321
 11
2.81599
 21
37.3434
  0
LINE
  8
0
 10
2.81599
 20
37.3434
 11
2.64137
 21
37.8809
  0
LINE
  8
0
 10
2.64137
 20
37.8809
 11
2.53548
 21
38.436
  0
LINE
  8
0
 10
2.53548
 20
38.436
 11
2.5
 21
39
  0
LINE
  8
0
 10
2.5
 20
39
 11
2.53548
 21
39.564
  0
LINE
  8
0
 10
2.53548
 20
39.564
 11
2.64137
 21
40.1191
  0
LINE
  8
0
 10
2.64137
 20
40.1191
 11
2.81599
 21
40.6566
  0
LINE
  8
0
 10
2.81599
 20
40.6566
 11
3.05661
 21
41.1679
  0
LINE
  8
0
 10
3.05661
 20
41.1679
 11
3.35942
 21
41.645
  0
LINE
  8
0
 10
3.35942
 20
41.645
 11
3.71964
 21
42.0805
  0
LINE
  8
0
 10
3.71964
 20
42.0805
 11
4.13159
 21
42.4673
  0
LINE
  8
0
 10
4.13159
 20
42.4673
 11
4.58878
 21
42.7995
  0
LINE
  8
0
 10
4.58878
 20
42.7995
 11
5.08398
 21
43.0717
  0
LINE
  8
0
 10
5.08398
 20
43.0717
 11
5.60942
 21
43.2797
  0
LINE
  8
0
 10
5.60942
 20
43.2797
 11
6.15678
 21
43.4203
  0
LINE
  8
0
 10
6.15678
 20
43.4203
 11
6.71744
 21
43.4911
  0
LINE
  8
0
 10
6.71744
 20
43.4911
 11
7.28255
 21
43.4911
  0
LINE
  8
0
 10
7.28255
 20
43.4911
 11
7.8432
 21
43.4203
  0
LINE
  8
0
 10
7.8432
 20
43.4203
 11
8.39056
 21
43.2797
  0
LINE
  8
0
 10
8.39056
 20
43.2797
 11
8.916
 21
43.0717
  0
LINE
  8
0
 10
8.916
 20
43.0717
 11
9.41121
 21
42.7995
  0
LINE
  8
0
 10
9.41121
 20
42.7995
 11
9.86839
 21
42.4673
  0
LINE
  8
0
 10
9.86839
 20
42.4673
 11
10.2803
 21
42.0805
  0
LINE
  8
0
 10
10.2803
 20
42.0805
 11
10.6406
 21
41.645
  0
LINE
  8
0
 10
10.6406
 20
41.645
 11
10.9434
 21
41.1679
  0
LINE
  8
0
 10
10.9434
 20
41.1679
 11
11.184
 21
40.6566
  0
LINE
  8
0
 10
11.184
 20
40.6566
 11
11.3586
 21
40.1191
  0
LINE
  8
0
 10
11.3586
 20
40.1191
 11
11.4645
 21
39.564
  0
LINE
  8
0
 10
11.4645
 20
39.564
 11
11.5
 21
39
  0
LINE
  8
0
 10
11.5
 20
39
 11
11.4645
 21
38.436
  0
LINE
  8
0
 10
11.4645
 20
38.436
 11
11.3586
 21
37.8809
  0
LINE
  8
0
 10
11.3586
 20
37.8809
 11
11.184
 21
37.3434
  0
LINE
  8
0
 10
11.184
 20
37.3434
 11
10.9434
 21
36.8321
  0
LINE
  8
0
 10
10.9434
 20
36.8321
 11
10.6406
 21
36.355
  0
LINE
  8
0
 10
10.6406
 20
36.355
 11
10.2803
 21
35.9195
  0
LINE
  8
0
 10
10.2803
 20
35.9195
 11
9.86839
 21
35.5327
  0
LINE
  8
0
 10
9.86839
 20
35.5327
 11
9.41121
 21
35.2005
  0
LINE
  8
0
 10
9.41121
 20
35.2005
 11
8.916
 21
34.9283
  0
LINE
  8
0
 10
8.916
 20
34.9283
 11
8.39056
 21
34.7203
  0
LINE
  8
0
 10
8.39056
 20
34.7203
 11
7.8432
 21
34.5797
  0
LINE
  8
0
 10
7.8432
 20
34.5797
 11
7.28255
 21
34.5089
  0
LINE
  8
0
 10
7.28255
 20
34.5089
 11
6.71744
 21
34.5089
  0
LINE
  8
0
 10
-7.28255
 20
34.5089
 11
-7.8432
 21
34.5797
  0
LINE
  8
0
 10
-7.8432
 20
34.5797
 11
-8.39056
 21
34.7203
  0
LINE
  8
0
 10
-8.39056
 20
34.7203
 11
-8.916
 21
34.9283
  0
LINE
  8
0
 10
-8.916
 20
34.9283
 11
-9.41121
 21
35.2005
  0
LINE
  8
0
 10
-9.41121
 20
35.2005
 11
-9.86839
 21
35.5327
  0
LINE
  8
0
 10
-9.86839
 20
35.5327
 11
-10.2803
 21
35.9195
  0
LINE
  8
0
 10
-10.2803
 20
35.9195
 11
-10.6406
 21
36.355
  0
LINE
  8
0
 10
-10.6406
 20
36.355
 11
-10.9434
 21
36.8321
  0
LINE
  8
0
 10
-10.9434
 20
36.8321
 11
-11.184
 21
37.3434
  0
LINE
  8
0
 10
-11.184
 20
37.3434
 11
-11.3586
 21
37.8809
  0
LINE
  8
0
 10
-11.3586
 20
37.8809
 11
-11.4645
 21
38.436
  0
LINE
  8
0
 10
-11.4645
 20
38.436
 11
-11.5
 21
39
  0
LINE
  8
0
 10
-11.5
 20
39
 11
-11.4645
 21
39.564
  0
LINE
  8
0
 10
-11.4645
 20
39.564
 11
-11.3586
 21
40.1191
  0
LINE
  8
0
 10
-11.3586
 20
40.1191
 11
-11.184
 21
40.6566
  0
LINE
  8
0
 10
-11.184
 20
40.6566
 11
-10.9434
 21
41.1679
  0
LINE
  8
0
 10
-10.9434
 20
41.1679
 11
-10.6406
 21
41.645
  0
LINE
  8
0
 10
-10.6406
 20
41.645
 11
-10.2803
 21
42.0805
  0
LINE
  8
0
 10
-10.2803
 20
42.0805
 11
-9.86839
 21
42.4673
  0
LINE
  8
0
 10
-9.86839
 20
42.4673
 11
-9.41121
 21
42.7995
  0
LINE
  8
0
 10
-9.41121
 20
42.7995
 11
-8.916
 21
43.0717
  0
LINE
  8
0
 10
-8.916
 20
43.0717
 11
-8.39056
 21
43.2797
  0
LINE
  8
0
 10
-8.39056
 20
43.2797
 11
-7.8432
 21
43.4203
  0
LINE
  8
0
 10
-7.8432
 20
43.4203
 11
-7.28255
 21
43.4911
  0
LINE
  8
0
 10
-7.28255
 20
43.4911
 11
-6.71744
 21
43.4911
  0
LINE
  8
0
 10
-6.71744
 20
43.4911
 11
-6.15678
 21
43.4203
  0
LINE
  8
0
 10
-6.15678
 20
43.4203
 11
-5.60942
 21
43.2797
  0
LINE
  8
0
 10
-5.60942
 20
43.2797
 11
-5.08398
 21
43.0717
  0
LINE
  8
0
 10
-5.08398
 20
43.0717
 11
-4.58878
 21
42.7995
  0
LINE
  8
0
 10
-4.58878
 20
42.7995
 11
-4.13159
 21
42.4673
  0
LINE
  8
0
 10
-4.13159
 20
42.4673
 11
-3.71964
 21
42.0805
  0
LINE
  8
0
 10
-3.71964
 20
42.0805
 11
-3.35942
 21
41.645
  0
LINE
  8
0
 10
-3.35942
 20
41.645
 11
-3.05661
 21
41.1679
  0
LINE
  8
0
 10
-3.05661
 20
41.1679
 11
-2.81599
 21
40.6566
  0
LINE
  8
0
 10
-2.81599
 20
40.6566
 11
-2.64137
 21
40.1191
  0
LINE
  8
0
 10
-2.64137
 20
40.1191
 11
-2.53548
 21
39.564
  0
LINE
  8
0
 10
-2.53548
 20
39.564
 11
-2.5
 21
39
  0
LINE
  8
0
 10
-2.5
 20
39
 11
-2.53548
 21
38.436
  0
LINE
  8
0
 10
-2.53548
 20
38.436
 11
-2.64137
 21
37.8809
  0
LINE
  8
0
 10
-2.64137
 20
37.8809
 11
-2.81599
 21
37.3434
  0
LINE
  8
0
 10
-2.81599
 20
37.3434
 11
-3.05661
 21
36.8321
  0
LINE
  8
0
 10
-3.05661
 20
36.8321
 11
-3.35942
 21
36.355
  0
LINE
  8
0
 10
-3.35942
 20
36.355
 11
-3.71964
 21
35.9195
  0
LINE
  8
0
 10
-3.71964
 20
35.9195
 11
-4.13159
 21
35.5327
  0
LINE
  8
0
 10
-4.13159
 20
35.5327
 11
-4.58878
 21
35.2005
  0
LINE
  8
0
 10
-4.58878
 20
35.2005
 11
-5.08398
 21
34.9283
  0
LINE
  8
0
 10
-5.08398
 20
34.9283
 11
-5.60942
 21
34.7203
  0
LINE
  8
0
 10
-5.60942
 20
34.7203
 11
-6.15678
 21
34.5797
  0
LINE
  8
0
 10
-6.15678
 20
34.5797
 11
-6.71744
 21
34.5089
  0
LINE
  8
0
 10
-6.71744
 20
34.5089
 11
-7.28255
 21
34.5089
  0
LINE
  8
0
 10
14.8116
 20
28.5059
 11
14.4379
 21
28.5531
  0
LINE
  8
0
 10
14.4379
 20
28.5531
 11
14.0729
 21
28.6468
  0
LINE
  8
0
 10
14.0729
 20
28.6468
 11
13.7227
 21
28.7855
  0
LINE
  8
0
 10
13.7227
 20
28.7855
 11
13.3925
 21
28.967
  0
LINE
  8
0
 10
13.3925
 20
28.967
 11
13.0877
 21
29.1885
  0
LINE
  8
0
 10
13.0877
 20
29.1885
 11
12.8131
 21
29.4464
  0
LINE
  8
0
 10
12.8131
 20
29.4464
 11
12.5729
 21
29.7366
  0
LINE
  8
0
 10
12.5729
 20
29.7366
 11
12.3711
 21
30.0547
  0
LINE
  8
0
 10
12.3711
 20
30.0547
 11
12.2107
 21
30.3956
  0
LINE
  8
0
 10
12.2107
 20
30.3956
 11
12.0942
 21
30.7539
  0
LINE
  8
0
 10
12.0942
 20
30.7539
 11
12.0237
 21
31.124
  0
LINE
  8
0
 10
12.0237
 20
31.124
 11
12
 21
31.5
  0
LINE
  8
0
 10
12
 20
31.5
 11
12.0237
 21
31.876
  0
LINE
  8
0
 10
12.0237
 20
31.876
 11
12.0942
 21
32.2461
  0
LINE
  8
0
 10
12.0942
 20
32.2461
 11
12.2107
 21
32.6044
  0
LINE
  8
0
 10
12.2107
 20
32.6044
 11
12.3711
 21
32.9453
  0
LINE
  8
0
 10
12.3711
 20
32.9453
 11
12.5729
 21
33.2634
  0
LINE
  8
0
 10
12.5729
 20
33.2634
 11
12.8131
 21
33.5536
  0
LINE
  8
0
 10
12.8131
 20
33.5536
 11
13.0877
 21
33.8116
  0
LINE
  8
0
 10
13.0877
 20
33.8116
 11
13.3925
 21
34.033
  0
LINE
  8
0
 10
13.3925
 20
34.033
 11
13.7227
 21
34.2145
  0
LINE
  8
0
 10
13.7227
 20
34.2145
 11
14.0729
 21
34.3532
  0
LINE
  8
0
 10
14.0729
 20
34.3532
 11
14.4379
 21
34.4469
  0
LINE
  8
0
 10
14.4379
 20
34.4469
 11
14.8116
 21
34.4941
  0
LINE
  8
0
 10
14.8116
 20
34.4941
 11
15.1884
 21
34.4941
  0
LINE
  8
0
 10
15.1884
 20
34.4941
 11
15.5621
 21
34.4469
  0
LINE
  8
0
 10
15.5621
 20
34.4469
 11
15.927
 21
34.3532
  0
LINE
  8
0
 10
15.927
 20
34.3532
 11
16.2773
 21
34.2145
  0
LINE
  8
0
 10
16.2773
 20
34.2145
 11
16.6075
 21
34.033
  0
LINE
  8
0
 10
16.6075
 20
34.033
 11
16.9123
 21
33.8116
  0
LINE
  8
0
 10
16.9123
 20
33.8116
 11
17.1869
 21
33.5536
  0
LINE
  8
0
 10
17.1869
 20
33.5536
 11
17.427
 21
33.2634
  0
LINE
  8
0
 10
17.427
 20
33.2634
 11
17.6289
 21
32.9453
  0
LINE
  8
0
 10
17.6289
 20
32.9453
 11
17.7893
 21
32.6044
  0
LINE
  8
0
 10
17.7893
 20
32.6044
 11
17.9057
 21
32.2461
  0
LINE
  8
0
 10
17.9057
 20
32.2461
 11
17.9763
 21
31.876
  0
LINE
  8
0
 10
17.9763
 20
31.876
 11
18
 21
31.5
  0
LINE
  8
0
 10
18
 20
31.5
 11
17.9763
 21
31.124
  0
LINE
  8
0
 10
17.9763
 20
31.124
 11
17.9057
 21
30.7539
  0
LINE
  8
0
 10
17.9057
 20
30.7539
 11
17.7893
 21
30.3956
  0
LINE
  8
0
 10
17.7893
 20
30.3956
 11
17.6289
 21
30.0547
  0
LINE
  8
0
 10
17.6289
 20
30.0547
 11
17.427
 21
29.7366
  0
LINE
  8
0
 10
17.427
 20
29.7366
 11
17.1869
 21
29.4464
  0
LINE
  8
0
 10
17.1869
 20
29.4464
 11
16.9123
 21
29.1885
  0
LINE
  8
0
 10
16.9123
 20
29.1885
 11
16.6075
 21
28.967
  0
LINE
  8
0
 10
16.6075
 20
28.967
 11
16.2773
 21
28.7855
  0
LINE
  8
0
 10
16.2773
 20
28.7855
 11
15.927
 21
28.6468
  0
LINE
  8
0
 10
15.927
 20
28.6468
 11
15.5621
 21
28.5531
  0
LINE
  8
0
 10
15.5621
 20
28.5531
 11
15.1884
 21
28.5059
  0
LINE
  8
0
 10
15.1884
 20
28.5059
 11
14.8116
 21
28.5059
  0
LINE
  8
0
 10
-15.1884
 20
28.5059
 11
-15.5621
 21
28.5531
  0
LINE
  8
0
 10
-15.5621
 20
28.5531
 11
-15.927
 21
28.6468
  0
LINE
  8
0
 10
-15.927
 20
28.6468
 11
-16.2773
 21
28.7855
  0
LINE
  8
0
 10
-16.2773
 20
28.7855
 11
-16.6075
 21
28.967
  0
LINE
  8
0
 10
-16.6075
 20
28.967
 11
-16.9123
 21
29.1885
  0
LINE
  8
0
 10
-16.9123
 20
29.1885
 11
-17.1869
 21
29.4464
  0
LINE
  8
0
 10
-17.1869
 20
29.4464
 11
-17.427
 21
29.7366
  0
LINE
  8
0
 10
-17.427
 20
29.7366
 11
-17.6289
 21
30.0547
  0
LINE
  8
0
 10
-17.6289
 20
30.0547
 11
-17.7893
 21
30.3956
  0
LINE
  8
0
 10
-17.7893
 20
30.3956
 11
-17.9057
 21
30.7539
  0
LINE
  8
0
 10
-17.9057
 20
30.7539
 11
-17.9763
 21
31.124
  0
LINE
  8
0
 10
-17.9763
 20
31.124
 11
-18
 21
31.5
  0
LINE
  8
0
 10
-18
 20
31.5
 11
-17.9763
 21
31.876
  0
LINE
  8
0
 10
-17.9763
 20
31.876
 11
-17.9057
 21
32.2461
  0
LINE
  8
0
 10
-17.9057
 20
32.2461
 11
-17.7893
 21
32.6044
  0
LINE
  8
0
 10
-17.7893
 20
32.6044
 11
-17.6289
 21
32.9453
  0
LINE
  8
0
 10
-17.6289
 20
32.9453
 11
-17.427
 21
33.2634
  0
LINE
  8
0
 10
-17.427
 20
33.2634
 11
-17.1869
 21
33.5536
  0
LINE
  8
0
 10
-17.1869
 20
33.5536
 11
-16.9123
 21
33.8116
  0
LINE
  8
0
 10
-16.9123
 20
33.8116
 11
-16.6075
 21
34.033
  0
LINE
  8
0
 10
-16.6075
 20
34.033
 11
-16.2773
 21
34.2145
  0
LINE
  8
0
 10
-16.2773
 20
34.2145
 11
-15.927
 21
34.3532
  0
LINE
  8
0
 10
-15.927
 20
34.3532
 11
-15.5621
 21
34.4469
  0
LINE
  8
0
 10
-15.5621
 20
34.4469
 11
-15.1884
 21
34.4941
  0
LINE
  8
0
 10
-15.1884
 20
34.4941
 11
-14.8116
 21
34.4941
  0
LINE
  8
0
 10
-14.8116
 20
34.4941
 11
-14.4379
 21
34.4469
  0
LINE
  8
0
 10
-14.4379
 20
34.4469
 11
-14.0729
 21
34.3532
  0
LINE
  8
0
 10
-14.0729
 20
34.3532
 11
-13.7227
 21
34.2145
  0
LINE
  8
0
 10
-13.7227
 20
34.2145
 11
-13.3925
 21
34.033
  0
LINE
  8
0
 10
-13.3925
 20
34.033
 11
-13.0877
 21
33.8116
  0
LINE
  8
0
 10
-13.0877
 20
33.8116
 11
-12.8131
 21
33.5536
  0
LINE
  8
0
 10
-12.8131
 20
33.5536
 11
-12.5729
 21
33.2634
  0
LINE
  8
0
 10
-12.5729
 20
33.2634
 11
-12.3711
 21
32.9453
  0
LINE
  8
0
 10
-12.3711
 20
32.9453
 11
-12.2107
 21
32.6044
  0
LINE
  8
0
 10
-12.2107
 20
32.6044
 11
-12.0942
 21
32.2461
  0
LINE
  8
0
 10
-12.0942
 20
32.2461
 11
-12.0237
 21
31.876
  0
LINE
  8
0
 10
-12.0237
 20
31.876
 11
-12
 21
31.5
  0
LINE
  8
0
 10
-12
 20
31.5
 11
-12.0237
 21
31.124
  0
LINE
  8
0
 10
-12.0237
 20
31.124
 11
-12.0942
 21
30.7539
  0
LINE
  8
0
 10
-12.0942
 20
30.7539
 11
-12.2107
 21
30.3956
  0
LINE
  8
0
 10
-12.2107
 20
30.3956
 11
-12.3711
 21
30.0547
  0
LINE
  8
0
 10
-12.3711
 20
30.0547
 11
-12.5729
 21
29.7366
  0
LINE
  8
0
 10
-12.5729
 20
29.7366
 11
-12.8131
 21
29.4464
  0
LINE
  8
0
 10
-12.8131
 20
29.4464
 11
-13.0877
 21
29.1885
  0
LINE
  8
0
 10
-13.0877
 20
29.1885
 11
-13.3925
 21
28.967
  0
LINE
  8
0
 10
-13.3925
 20
28.967
 11
-13.7227
 21
28.7855
  0
LINE
  8
0
 10
-13.7227
 20
28.7855
 11
-14.0729
 21
28.6468
  0
LINE
  8
0
 10
-14.0729
 20
28.6468
 11
-14.4379
 21
28.5531
  0
LINE
  8
0
 10
-14.4379
 20
28.5531
 11
-14.8116
 21
28.5059
  0
LINE
  8
0
 10
-14.8116
 20
28.5059
 11
-15.1884
 21
28.5059
  0
ENDSEC
  0
SECTION
  2
OBJECTS
  0
DICTIONARY
  0
ENDSEC
  0
EOF
