<?xml version="1.0" standalone="no"?>
<!DOCTYPE svg PUBLIC "-//W3C//DTD SVG 1.1//EN" "http://www.w3.org/Graphics/SVG/1.1/DTD/svg11.dtd">
<svg width="74mm" height="44mm" viewBox="-37 -22 74 44" xmlns="http://www.w3.org/2000/svg" version="1.1">
<title>OpenSCAD Model</title>
<path d="
M 32.9369,21.9114 L 33.5451,21.7553 L 34.1289,21.5241 L 34.6791,21.2216 L 35.1871,20.8526 L 35.6448,20.4227
 L 36.0451,19.9389 L 36.3815,19.4088 L 36.6489,18.8406 L 36.8429,18.2434 L 36.9606,17.6267 L 37,17
 L 37,-17 L 36.9606,-17.6267 L 36.8429,-18.2434 L 36.6489,-18.8406 L 36.3815,-19.4088 L 36.0451,-19.9389
 L 35.6448,-20.4227 L 35.1871,-20.8526 L 34.6791,-21.2216 L 34.1289,-21.5241 L 33.5451,-21.7553 L 32.9369,-21.9114
 L 32.3139,-21.9901 L -32.3139,-21.9901 L -32.9369,-21.9114 L -33.5451,-21.7553 L -34.1289,-21.5241 L -34.6791,-21.2216
 L -35.1871,-20.8526 L -35.6448,-20.4227 L -36.0451,-19.9389 L -36.3815,-19.4088 L -36.6489,-18.8406 L -36.8429,-18.2434
 L -36.9606,-17.6267 L -37,-17 L -37,17 L -36.9606,17.6267 L -36.8429,18.2434 L -36.6489,18.8406
 L -36.3815,19.4088 L -36.0451,19.9389 L -35.6448,20.4227 L -35.1871,20.8526 L -34.6791,21.2216 L -34.1289,21.5241
 L -33.5451,21.7553 L -32.9369,21.9114 L -32.3139,21.9901 L 32.3139,21.9901 z
M 29.8116,-12.0059 L 29.4379,-12.0531 L 29.0729,-12.1468 L 28.7227,-12.2855 L 28.3925,-12.467 L 28.0877,-12.6884
 L 27.8131,-12.9464 L 27.5729,-13.2366 L 27.3711,-13.5547 L 27.2107,-13.8956 L 27.0942,-14.2539 L 27.0237,-14.624
 L 27,-15 L 27.0237,-15.376 L 27.0942,-15.7461 L 27.2107,-16.1044 L 27.3711,-16.4453 L 27.5729,-16.7634
 L 27.8131,-17.0536 L 28.0877,-17.3115 L 28.3925,-17.533 L 28.7227,-17.7145 L 29.0729,-17.8532 L 29.4379,-17.9469
 L 29.8116,-17.9941 L 30.1884,-17.9941 L 30.5621,-17.9469 L 30.927,-17.8532 L 31.2773,-17.7145 L 31.6075,-17.533
 L 31.9123,-17.3115 L 32.1869,-17.0536 L 32.427,-16.7634 L 32.6289,-16.4453 L 32.7893,-16.1044 L 32.9057,-15.7461
 L 32.9763,-15.376 L 33,-15 L 32.9763,-14.624 L 32.9057,-14.2539 L 32.7893,-13.8956 L 32.6289,-13.5547
 L 32.427,-13.2366 L 32.1869,-12.9464 L 31.9123,-12.6884 L 31.6075,-12.467 L 31.2773,-12.2855 L 30.927,-12.1468
 L 30.5621,-12.0531 L 30.1884,-12.0059 z
M -30.1884,-12.0059 L -30.5621,-12.0531 L -30.927,-12.1468 L -31.2773,-12.2855 L -31.6075,-12.467 L -31.9123,-12.6884
 L -32.1869,-12.9464 L -32.427,-13.2366 L -32.6289,-13.5547 L -32.7893,-13.8956 L -32.9057,-14.2539 L -32.9763,-14.624
 L -33,-15 L -32.9763,-15.376 L -32.9057,-15.7461 L -32.7893,-16.1044 L -32.6289,-16.4453 L -32.427,-16.7634
 L -32.1869,-17.0536 L -31.9123,-17.3115 L -31.6075,-17.533 L -31.2773,-17.7145 L -30.927,-17.8532 L -30.5621,-17.9469
 L -30.1884,-17.9941 L -29.8116,-17.9941 L -29.4379,-17.9469 L -29.0729,-17.8532 L -28.7227,-17.7145 L -28.3925,-17.533
 L -28.0877,-17.3115 L -27.8131,-17.0536 L -27.5729,-16.7634 L -27.3711,-16.4453 L -27.2107,-16.1044 L -27.0942,-15.7461
 L -27.0237,-15.376 L -27,-15 L -27.0237,-14.624 L -27.0942,-14.2539 L -27.2107,-13.8956 L -27.3711,-13.5547
 L -27.5729,-13.2366 L -27.8131,-12.9464 L -28.0877,-12.6884 L -28.3925,-12.467 L -28.7227,-12.2855 L -29.0729,-12.1468
 L -29.4379,-12.0531 L -29.8116,-12.0059 z
M 13.2779,11.4773 L 11.8451,11.2963 L 10.4463,10.9371 L 9.10353,10.4055 L 7.83798,9.70976 L 6.66962,8.8609
 L 5.61685,7.87228 L 4.6963,6.75952 L 3.92247,5.54016 L 3.30756,4.23343 L 2.86128,2.85992 L 2.59067,1.44133
 L 2.5,-0 L 2.59067,-1.44133 L 2.86128,-2.85992 L 3.30756,-4.23343 L 3.92247,-5.54016 L 4.6963,-6.75952
 L 5.61685,-7.87228 L 6.66962,-8.8609 L 7.83798,-9.70976 L 9.10353,-10.4055 L 10.4463,-10.9371 L 11.8451,-11.2963
 L 13.2779,-11.4773 L 14.7221,-11.4773 L 16.1549,-11.2963 L 17.5537,-10.9371 L 18.8965,-10.4055 L 20.162,-9.70976
 L 21.3304,-8.8609 L 22.3831,-7.87228 L 23.3037,-6.75952 L 24.0775,-5.54016 L 24.6924,-4.23343 L 25.1387,-2.85992
 L 25.4093,-1.44133 L 25.5,-0 L 25.4093,1.44133 L 25.1387,2.85992 L 24.6924,4.23343 L 24.0775,5.54016
 L 23.3037,6.75952 L 22.3831,7.87228 L 21.3304,8.8609 L 20.162,9.70976 L 18.8965,10.4055 L 17.5537,10.9371
 L 16.1549,11.2963 L 14.7221,11.4773 z
M -14.7221,11.4773 L -16.1549,11.2963 L -17.5537,10.9371 L -18.8965,10.4055 L -20.162,9.70976 L -21.3304,8.8609
 L -22.3831,7.87228 L -23.3037,6.75952 L -24.0775,5.54016 L -24.6924,4.23343 L -25.1387,2.85992 L -25.4093,1.44133
 L -25.5,-0 L -25.4093,-1.44133 L -25.1387,-2.85992 L -24.6924,-4.23343 L -24.0775,-5.54016 L -23.3037,-6.75952
 L -22.3831,-7.87228 L -21.3304,-8.8609 L -20.162,-9.70976 L -18.8965,-10.4055 L -17.5537,-10.9371 L -16.1549,-11.2963
 L -14.7221,-11.4773 L -13.2779,-11.4773 L -11.8451,-11.2963 L -10.4463,-10.9371 L -9.10353,-10.4055 L -7.83798,-9.70976
 L -6.66962,-8.8609 L -5.61685,-7.87228 L -4.6963,-6.75952 L -3.92247,-5.54016 L -3.30756,-4.23343 L -2.86128,-2.85992
 L -2.59067,-1.44133 L -2.5,-0 L -2.59067,1.44133 L -2.86128,2.85992 L -3.30756,4.23343 L -3.92247,5.54016
 L -4.6963,6.75952 L -5.61685,7.87228 L -6.66962,8.8609 L -7.83798,9.70976 L -9.10353,10.4055 L -10.4463,10.9371
 L -11.8451,11.2963 L -13.2779,11.4773 z
M -30.0942,-6.00294 L -30.2811,-6.02657 L -30.4635,-6.07341 L -30.6387,-6.14275 L -30.8037,-6.23351 L -30.9561,-6.34422
 L -31.0934,-6.47318 L -31.2135,-6.61832 L -31.3145,-6.77736 L -31.3947,-6.9478 L -31.4529,-7.12695 L -31.4882,-7.312
 L -31.5,-7.5 L -31.4882,-7.68799 L -31.4529,-7.87303 L -31.3947,-8.05219 L -31.3145,-8.22263 L -31.2135,-8.38167
 L -31.0934,-8.52681 L -30.9561,-8.65576 L -30.8037,-8.76648 L -30.6387,-8.85724 L -30.4635,-8.92657 L -30.2811,-8.97342
 L -30.0942,-8.99704 L -29.9058,-8.99704 L -29.7189,-8.97342 L -29.5365,-8.92657 L -29.3613,-8.85724 L -29.1963,-8.76648
 L -29.0439,-8.65576 L -28.9065,-8.52681 L -28.7865,-8.38167 L -28.6855,-8.22263 L -28.6053,-8.05219 L -28.5471,-7.87303
 L -28.5118,-7.68799 L -28.5,-7.5 L -28.5118,-7.312 L -28.5471,-7.12695 L -28.6053,-6.9478 L -28.6855,-6.77736
 L -28.7865,-6.61832 L -28.9065,-6.47318 L -29.0439,-6.34422 L -29.1963,-6.23351 L -29.3613,-6.14275 L -29.5365,-6.07341
 L -29.7189,-6.02657 L -29.9058,-6.00294 z
M 29.9058,-6.00294 L 29.7189,-6.02657 L 29.5365,-6.07341 L 29.3613,-6.14275 L 29.1963,-6.23351 L 29.0439,-6.34422
 L 28.9065,-6.47318 L 28.7865,-6.61832 L 28.6855,-6.77736 L 28.6053,-6.9478 L 28.5471,-7.12695 L 28.5118,-7.312
 L 28.5,-7.5 L 28.5118,-7.68799 L 28.5471,-7.87303 L 28.6053,-8.05219 L 28.6855,-8.22263 L 28.7865,-8.38167
 L 28.9065,-8.52681 L 29.0439,-8.65576 L 29.1963,-8.76648 L 29.3613,-8.85724 L 29.5365,-8.92657 L 29.7189,-8.97342
 L 29.9058,-8.99704 L 30.0942,-8.99704 L 30.2811,-8.97342 L 30.4635,-8.92657 L 30.6387,-8.85724 L 30.8037,-8.76648
 L 30.9561,-8.65576 L 31.0934,-8.52681 L 31.2135,-8.38167 L 31.3145,-8.22263 L 31.3947,-8.05219 L 31.4529,-7.87303
 L 31.4882,-7.68799 L 31.5,-7.5 L 31.4882,-7.312 L 31.4529,-7.12695 L 31.3947,-6.9478 L 31.3145,-6.77736
 L 31.2135,-6.61832 L 31.0934,-6.47318 L 30.9561,-6.34422 L 30.8037,-6.23351 L 30.6387,-6.14275 L 30.4635,-6.07341
 L 30.2811,-6.02657 L 30.0942,-6.00294 z
M 29.8116,2.99408 L 29.4379,2.94685 L 29.0729,2.85316 L 28.7227,2.71448 L 28.3925,2.53297 L 28.0877,2.31154
 L 27.8131,2.05363 L 27.5729,1.76335 L 27.3711,1.44525 L 27.2107,1.10437 L 27.0942,0.746063 L 27.0237,0.375992
 L 27,-0 L 27.0237,-0.375992 L 27.0942,-0.746063 L 27.2107,-1.10437 L 27.3711,-1.44525 L 27.5729,-1.76335
 L 27.8131,-2.05363 L 28.0877,-2.31154 L 28.3925,-2.53297 L 28.7227,-2.71448 L 29.0729,-2.85316 L 29.4379,-2.94685
 L 29.8116,-2.99408 L 30.1884,-2.99408 L 30.5621,-2.94685 L 30.927,-2.85316 L 31.2773,-2.71448 L 31.6075,-2.53297
 L 31.9123,-2.31154 L 32.1869,-2.05363 L 32.427,-1.76335 L 32.6289,-1.44525 L 32.7893,-1.10437 L 32.9057,-0.746063
 L 32.9763,-0.375992 L 33,-0 L 32.9763,0.375992 L 32.9057,0.746063 L 32.7893,1.10437 L 32.6289,1.44525
 L 32.427,1.76335 L 32.1869,2.05363 L 31.9123,2.31154 L 31.6075,2.53297 L 31.2773,2.71448 L 30.927,2.85316
 L 30.5621,2.94685 L 30.1884,2.99408 z
M -30.1884,2.99408 L -30.5621,2.94685 L -30.927,2.85316 L -31.2773,2.71448 L -31.6075,2.53297 L -31.9123,2.31154
 L -32.1869,2.05363 L -32.427,1.76335 L -32.6289,1.44525 L -32.7893,1.10437 L -32.9057,0.746063 L -32.9763,0.375992
 L -33,-0 L -32.9763,-0.375992 L -32.9057,-0.746063 L -32.7893,-1.10437 L -32.6289,-1.44525 L -32.427,-1.76335
 L -32.1869,-2.05363 L -31.9123,-2.31154 L -31.6075,-2.53297 L -31.2773,-2.71448 L -30.927,-2.85316 L -30.5621,-2.94685
 L -30.1884,-2.99408 L -29.8116,-2.99408 L -29.4379,-2.94685 L -29.0729,-2.85316 L -28.7227,-2.71448 L -28.3925,-2.53297
 L -28.0877,-2.31154 L -27.8131,-2.05363 L -27.5729,-1.76335 L -27.3711,-1.44525 L -27.2107,-1.10437 L -27.0942,-0.746063
 L -27.0237,-0.375992 L -27,-0 L -27.0237,0.375992 L -27.0942,0.746063 L -27.2107,1.10437 L -27.3711,1.44525
 L -27.5729,1.76335 L -27.8131,2.05363 L -28.0877,2.31154 L -28.3925,2.53297 L -28.7227,2.71448 L -29.0729,2.85316
 L -29.4379,2.94685 L -29.8116,2.99408 z
M 29.9058,8.99704 L 29.7189,8.97342 L 29.5365,8.92657 L 29.3613,8.85724 L 29.1963,8.76648 L 29.0439,8.65576
 L 28.9065,8.52681 L 28.7865,8.38167 L 28.6855,8.22263 L 28.6053,8.05219 L 28.5471,7.87303 L 28.5118,7.68799
 L 28.5,7.5 L 28.5118,7.312 L 28.5471,7.12695 L 28.6053,6.9478 L 28.6855,6.77736 L 28.7865,6.61832
 L 28.9065,6.47318 L 29.0439,6.34422 L 29.1963,6.23351 L 29.3613,6.14275 L 29.5365,6.07341 L 29.7189,6.02657
 L 29.9058,6.00294 L 30.0942,6.00294 L 30.2811,6.02657 L 30.4635,6.07341 L 30.6387,6.14275 L 30.8037,6.23351
 L 30.9561,6.34422 L 31.0934,6.47318 L 31.2135,6.61832 L 31.3145,6.77736 L 31.3947,6.9478 L 31.4529,7.12695
 L 31.4882,7.312 L 31.5,7.5 L 31.4882,7.68799 L 31.4529,7.87303 L 31.3947,8.05219 L 31.3145,8.22263
 L 31.2135,8.38167 L 31.0934,8.52681 L 30.9561,8.65576 L 30.8037,8.76648 L 30.6387,8.85724 L 30.4635,8.92657
 L 30.2811,8.97342 L 30.0942,8.99704 z
M -30.0942,8.99704 L -30.2811,8.97342 L -30.4635,8.92657 L -30.6387,8.85724 L -30.8037,8.76648 L -30.9561,8.65576
 L -31.0934,8.52681 L -31.2135,8.38167 L -31.3145,8.22263 L -31.3947,8.05219 L -31.4529,7.87303 L -31.4882,7.68799
 L -31.5,7.5 L -31.4882,7.312 L -31.4529,7.12695 L -31.3947,6.9478 L -31.3145,6.77736 L -31.2135,6.61832
 L -31.0934,6.47318 L -30.9561,6.34422 L -30.8037,6.23351 L -30.6387,6.14275 L -30.4635,6.07341 L -30.2811,6.02657
 L -30.0942,6.00294 L -29.9058,6.00294 L -29.7189,6.02657 L -29.5365,6.07341 L -29.3613,6.14275 L -29.1963,6.23351
 L -29.0439,6.34422 L -28.9065,6.47318 L -28.7865,6.61832 L -28.6855,6.77736 L -28.6053,6.9478 L -28.5471,7.12695
 L -28.5118,7.312 L -28.5,7.5 L -28.5118,7.68799 L -28.5471,7.87303 L -28.6053,8.05219 L -28.6855,8.22263
 L -28.7865,8.38167 L -28.9065,8.52681 L -29.0439,8.65576 L -29.1963,8.76648 L -29.3613,8.85724 L -29.5365,8.92657
 L -29.7189,8.97342 L -29.9058,8.99704 z
M -30.1884,17.9941 L -30.5621,17.9469 L -30.927,17.8532 L -31.2773,17.7145 L -31.6075,17.533 L -31.9123,17.3115
 L -32.1869,17.0536 L -32.427,16.7634 L -32.6289,16.4453 L -32.7893,16.1044 L -32.9057,15.7461 L -32.9763,15.376
 L -33,15 L -32.9763,14.624 L -32.9057,14.2539 L -32.7893,13.8956 L -32.6289,13.5547 L -32.427,13.2366
 L -32.1869,12.9464 L -31.9123,12.6884 L -31.6075,12.467 L -31.2773,12.2855 L -30.927,12.1468 L -30.5621,12.0531
 L -30.1884,12.0059 L -29.8116,12.0059 L -29.4379,12.0531 L -29.0729,12.1468 L -28.7227,12.2855 L -28.3925,12.467
 L -28.0877,12.6884 L -27.8131,12.9464 L -27.5729,13.2366 L -27.3711,13.5547 L -27.2107,13.8956 L -27.0942,14.2539
 L -27.0237,14.624 L -27,15 L -27.0237,15.376 L -27.0942,15.7461 L -27.2107,16.1044 L -27.3711,16.4453
 L -27.5729,16.7634 L -27.8131,17.0536 L -28.0877,17.3115 L -28.3925,17.533 L -28.7227,17.7145 L -29.0729,17.8532
 L -29.4379,17.9469 L -29.8116,17.9941 z
M 29.8116,17.9941 L 29.4379,17.9469 L 29.0729,17.8532 L 28.7227,17.7145 L 28.3925,17.533 L 28.0877,17.3115
 L 27.8131,17.0536 L 27.5729,16.7634 L 27.3711,16.4453 L 27.2107,16.1044 L 27.0942,15.7461 L 27.0237,15.376
 L 27,15 L 27.0237,14.624 L 27.0942,14.2539 L 27.2107,13.8956 L 27.3711,13.5547 L 27.5729,13.2366
 L 27.8131,12.9464 L 28.0877,12.6884 L 28.3925,12.467 L 28.7227,12.2855 L 29.0729,12.1468 L 29.4379,12.0531
 L 29.8116,12.0059 L 30.1884,12.0059 L 30.5621,12.0531 L 30.927,12.1468 L 31.2773,12.2855 L 31.6075,12.467
 L 31.9123,12.6884 L 32.1869,12.9464 L 32.427,13.2366 L 32.6289,13.5547 L 32.7893,13.8956 L 32.9057,14.2539
 L 32.9763,14.624 L 33,15 L 32.9763,15.376 L 32.9057,15.7461 L 32.7893,16.1044 L 32.6289,16.4453
 L 32.427,16.7634 L 32.1869,17.0536 L 31.9123,17.3115 L 31.6075,17.533 L 31.2773,17.7145 L 30.927,17.8532
 L 30.5621,17.9469 L 30.1884,17.9941 z
" stroke="black" fill="lightgray" stroke-width="0.5"/>
</svg>
