<?xml version="1.0" standalone="no"?>
<!DOCTYPE svg PUBLIC "-//W3C//DTD SVG 1.1//EN" "http://www.w3.org/Graphics/SVG/1.1/DTD/svg11.dtd">
<svg width="74mm" height="30mm" viewBox="-37 -54 74 30" xmlns="http://www.w3.org/2000/svg" version="1.1">
<title>OpenSCAD Model</title>
<path d="
M 32.9369,-24.5886 L 33.5451,-24.7447 L 34.1289,-24.9759 L 34.6791,-25.2784 L 35.1871,-25.6474 L 35.6448,-26.0773
 L 36.0451,-26.5611 L 36.3815,-27.0912 L 36.6489,-27.6594 L 36.8429,-28.2566 L 36.9606,-28.8733 L 37,-29.5
 L 37,-48.5 L 36.9606,-49.1267 L 36.8429,-49.7434 L 36.6489,-50.3406 L 36.3815,-50.9088 L 36.0451,-51.4389
 L 35.6448,-51.9227 L 35.1871,-52.3526 L 34.6791,-52.7216 L 34.1289,-53.0241 L 33.5451,-53.2553 L 32.9369,-53.4114
 L 32.3139,-53.4901 L -32.3139,-53.4901 L -32.9369,-53.4114 L -33.5451,-53.2553 L -34.1289,-53.0241 L -34.6791,-52.7216
 L -35.1871,-52.3526 L -35.6448,-51.9227 L -36.0451,-51.4389 L -36.3815,-50.9088 L -36.6489,-50.3406 L -36.8429,-49.7434
 L -36.9606,-49.1267 L -37,-48.5 L -37,-29.5 L -36.9606,-28.8733 L -36.8429,-28.2566 L -36.6489,-27.6594
 L -36.3815,-27.0912 L -36.0451,-26.5611 L -35.6448,-26.0773 L -35.1871,-25.6474 L -34.6791,-25.2784 L -34.1289,-24.9759
 L -33.5451,-24.7447 L -32.9369,-24.5886 L -32.3139,-24.5099 L 32.3139,-24.5099 z
M -30.1884,-43.5059 L -30.5621,-43.5531 L -30.927,-43.6468 L -31.2773,-43.7855 L -31.6075,-43.967 L -31.9123,-44.1884
 L -32.1869,-44.4464 L -32.427,-44.7366 L -32.6289,-45.0547 L -32.7893,-45.3956 L -32.9057,-45.7539 L -32.9763,-46.124
 L -33,-46.5 L -32.9763,-46.876 L -32.9057,-47.2461 L -32.7893,-47.6044 L -32.6289,-47.9453 L -32.427,-48.2634
 L -32.1869,-48.5536 L -31.9123,-48.8115 L -31.6075,-49.033 L -31.2773,-49.2145 L -30.927,-49.3532 L -30.5621,-49.4469
 L -30.1884,-49.4941 L -29.8116,-49.4941 L -29.4379,-49.4469 L -29.0729,-49.3532 L -28.7227,-49.2145 L -28.3925,-49.033
 L -28.0877,-48.8115 L -27.8131,-48.5536 L -27.5729,-48.2634 L -27.3711,-47.9453 L -27.2107,-47.6044 L -27.0942,-47.2461
 L -27.0237,-46.876 L -27,-46.5 L -27.0237,-46.124 L -27.0942,-45.7539 L -27.2107,-45.3956 L -27.3711,-45.0547
 L -27.5729,-44.7366 L -27.8131,-44.4464 L -28.0877,-44.1884 L -28.3925,-43.967 L -28.7227,-43.7855 L -29.0729,-43.6468
 L -29.4379,-43.5531 L -29.8116,-43.5059 z
M 29.8116,-43.5059 L 29.4379,-43.5531 L 29.0729,-43.6468 L 28.7227,-43.7855 L 28.3925,-43.967 L 28.0877,-44.1884
 L 27.8131,-44.4464 L 27.5729,-44.7366 L 27.3711,-45.0547 L 27.2107,-45.3956 L 27.0942,-45.7539 L 27.0237,-46.124
 L 27,-46.5 L 27.0237,-46.876 L 27.0942,-47.2461 L 27.2107,-47.6044 L 27.3711,-47.9453 L 27.5729,-48.2634
 L 27.8131,-48.5536 L 28.0877,-48.8115 L 28.3925,-49.033 L 28.7227,-49.2145 L 29.0729,-49.3532 L 29.4379,-49.4469
 L 29.8116,-49.4941 L 30.1884,-49.4941 L 30.5621,-49.4469 L 30.927,-49.3532 L 31.2773,-49.2145 L 31.6075,-49.033
 L 31.9123,-48.8115 L 32.1869,-48.5536 L 32.427,-48.2634 L 32.6289,-47.9453 L 32.7893,-47.6044 L 32.9057,-47.2461
 L 32.9763,-46.876 L 33,-46.5 L 32.9763,-46.124 L 32.9057,-45.7539 L 32.7893,-45.3956 L 32.6289,-45.0547
 L 32.427,-44.7366 L 32.1869,-44.4464 L 31.9123,-44.1884 L 31.6075,-43.967 L 31.2773,-43.7855 L 30.927,-43.6468
 L 30.5621,-43.5531 L 30.1884,-43.5059 z
M 22.186,-34.0099 L 21.5631,-34.0886 L 20.9549,-34.2447 L 20.3711,-34.4759 L 19.8209,-34.7784 L 19.3129,-35.1474
 L 18.8551,-35.5773 L 18.4549,-36.0611 L 18.1185,-36.5912 L 17.8511,-37.1594 L 17.6571,-37.7566 L 17.5394,-38.3733
 L 17.5,-39 L 17.5394,-39.6267 L 17.6571,-40.2434 L 17.8511,-40.8406 L 18.1185,-41.4088 L 18.4549,-41.9389
 L 18.8551,-42.4227 L 19.3129,-42.8526 L 19.8209,-43.2216 L 20.3711,-43.5241 L 20.9549,-43.7553 L 21.5631,-43.9114
 L 22.186,-43.9901 L 22.8139,-43.9901 L 23.4369,-43.9114 L 24.0451,-43.7553 L 24.6289,-43.5241 L 25.1791,-43.2216
 L 25.6871,-42.8526 L 26.1448,-42.4227 L 26.5451,-41.9389 L 26.8815,-41.4088 L 27.1489,-40.8406 L 27.3429,-40.2434
 L 27.4606,-39.6267 L 27.5,-39 L 27.4606,-38.3733 L 27.3429,-37.7566 L 27.1489,-37.1594 L 26.8815,-36.5912
 L 26.5451,-36.0611 L 26.1448,-35.5773 L 25.6871,-35.1474 L 25.1791,-34.7784 L 24.6289,-34.4759 L 24.0451,-34.2447
 L 23.4369,-34.0886 L 22.8139,-34.0099 z
M -7.81395,-34.0099 L -8.4369,-34.0886 L -9.04507,-34.2447 L -9.62889,-34.4759 L -10.1791,-34.7784 L -10.6871,-35.1474
 L -11.1448,-35.5773 L -11.5451,-36.0611 L -11.8815,-36.5912 L -12.1489,-37.1594 L -12.3429,-37.7566 L -12.4606,-38.3733
 L -12.5,-39 L -12.4606,-39.6267 L -12.3429,-40.2434 L -12.1489,-40.8406 L -11.8815,-41.4088 L -11.5451,-41.9389
 L -11.1448,-42.4227 L -10.6871,-42.8526 L -10.1791,-43.2216 L -9.62889,-43.5241 L -9.04507,-43.7553 L -8.4369,-43.9114
 L -7.81395,-43.9901 L -7.18604,-43.9901 L -6.56308,-43.9114 L -5.95491,-43.7553 L -5.37109,-43.5241 L -4.82086,-43.2216
 L -4.31287,-42.8526 L -3.85515,-42.4227 L -3.45491,-41.9389 L -3.11845,-41.4088 L -2.8511,-40.8406 L -2.65707,-40.2434
 L -2.53941,-39.6267 L -2.5,-39 L -2.53941,-38.3733 L -2.65707,-37.7566 L -2.8511,-37.1594 L -3.11845,-36.5912
 L -3.45491,-36.0611 L -3.85515,-35.5773 L -4.31287,-35.1474 L -4.82086,-34.7784 L -5.37109,-34.4759 L -5.95491,-34.2447
 L -6.56308,-34.0886 L -7.18604,-34.0099 z
M -22.8139,-34.0099 L -23.4369,-34.0886 L -24.0451,-34.2447 L -24.6289,-34.4759 L -25.1791,-34.7784 L -25.6871,-35.1474
 L -26.1448,-35.5773 L -26.5451,-36.0611 L -26.8815,-36.5912 L -27.1489,-37.1594 L -27.3429,-37.7566 L -27.4606,-38.3733
 L -27.5,-39 L -27.4606,-39.6267 L -27.3429,-40.2434 L -27.1489,-40.8406 L -26.8815,-41.4088 L -26.5451,-41.9389
 L -26.1448,-42.4227 L -25.6871,-42.8526 L -25.1791,-43.2216 L -24.6289,-43.5241 L -24.0451,-43.7553 L -23.4369,-43.9114
 L -22.8139,-43.9901 L -22.186,-43.9901 L -21.5631,-43.9114 L -20.9549,-43.7553 L -20.3711,-43.5241 L -19.8209,-43.2216
 L -19.3129,-42.8526 L -18.8551,-42.4227 L -18.4549,-41.9389 L -18.1185,-41.4088 L -17.8511,-40.8406 L -17.6571,-40.2434
 L -17.5394,-39.6267 L -17.5,-39 L -17.5394,-38.3733 L -17.6571,-37.7566 L -17.8511,-37.1594 L -18.1185,-36.5912
 L -18.4549,-36.0611 L -18.8551,-35.5773 L -19.3129,-35.1474 L -19.8209,-34.7784 L -20.3711,-34.4759 L -20.9549,-34.2447
 L -21.5631,-34.0886 L -22.186,-34.0099 z
M 7.18604,-34.0099 L 6.56308,-34.0886 L 5.95491,-34.2447 L 5.37109,-34.4759 L 4.82086,-34.7784 L 4.31287,-35.1474
 L 3.85515,-35.5773 L 3.45491,-36.0611 L 3.11845,-36.5912 L 2.8511,-37.1594 L 2.65707,-37.7566 L 2.53941,-38.3733
 L 2.5,-39 L 2.53941,-39.6267 L 2.65707,-40.2434 L 2.8511,-40.8406 L 3.11845,-41.4088 L 3.45491,-41.9389
 L 3.85515,-42.4227 L 4.31287,-42.8526 L 4.82086,-43.2216 L 5.37109,-43.5241 L 5.95491,-43.7553 L 6.56308,-43.9114
 L 7.18604,-43.9901 L 7.81395,-43.9901 L 8.4369,-43.9114 L 9.04507,-43.7553 L 9.62889,-43.5241 L 10.1791,-43.2216
 L 10.6871,-42.8526 L 11.1448,-42.4227 L 11.5451,-41.9389 L 11.8815,-41.4088 L 12.1489,-40.8406 L 12.3429,-40.2434
 L 12.4606,-39.6267 L 12.5,-39 L 12.4606,-38.3733 L 12.3429,-37.7566 L 12.1489,-37.1594 L 11.8815,-36.5912
 L 11.5451,-36.0611 L 11.1448,-35.5773 L 10.6871,-35.1474 L 10.1791,-34.7784 L 9.62889,-34.4759 L 9.04507,-34.2447
 L 8.4369,-34.0886 L 7.81395,-34.0099 z
M 29.8116,-28.5059 L 29.4379,-28.5531 L 29.0729,-28.6468 L 28.7227,-28.7855 L 28.3925,-28.967 L 28.0877,-29.1885
 L 27.8131,-29.4464 L 27.5729,-29.7366 L 27.3711,-30.0547 L 27.2107,-30.3956 L 27.0942,-30.7539 L 27.0237,-31.124
 L 27,-31.5 L 27.0237,-31.876 L 27.0942,-32.2461 L 27.2107,-32.6044 L 27.3711,-32.9453 L 27.5729,-33.2634
 L 27.8131,-33.5536 L 28.0877,-33.8116 L 28.3925,-34.033 L 28.7227,-34.2145 L 29.0729,-34.3532 L 29.4379,-34.4469
 L 29.8116,-34.4941 L 30.1884,-34.4941 L 30.5621,-34.4469 L 30.927,-34.3532 L 31.2773,-34.2145 L 31.6075,-34.033
 L 31.9123,-33.8116 L 32.1869,-33.5536 L 32.427,-33.2634 L 32.6289,-32.9453 L 32.7893,-32.6044 L 32.9057,-32.2461
 L 32.9763,-31.876 L 33,-31.5 L 32.9763,-31.124 L 32.9057,-30.7539 L 32.7893,-30.3956 L 32.6289,-30.0547
 L 32.427,-29.7366 L 32.1869,-29.4464 L 31.9123,-29.1885 L 31.6075,-28.967 L 31.2773,-28.7855 L 30.927,-28.6468
 L 30.5621,-28.5531 L 30.1884,-28.5059 z
M -30.1884,-28.5059 L -30.5621,-28.5531 L -30.927,-28.6468 L -31.2773,-28.7855 L -31.6075,-28.967 L -31.9123,-29.1885
 L -32.1869,-29.4464 L -32.427,-29.7366 L -32.6289,-30.0547 L -32.7893,-30.3956 L -32.9057,-30.7539 L -32.9763,-31.124
 L -33,-31.5 L -32.9763,-31.876 L -32.9057,-32.2461 L -32.7893,-32.6044 L -32.6289,-32.9453 L -32.427,-33.2634
 L -32.1869,-33.5536 L -31.9123,-33.8116 L -31.6075,-34.033 L -31.2773,-34.2145 L -30.927,-34.3532 L -30.5621,-34.4469
 L -30.1884,-34.4941 L -29.8116,-34.4941 L -29.4379,-34.4469 L -29.0729,-34.3532 L -28.7227,-34.2145 L -28.3925,-34.033
 L -28.0877,-33.8116 L -27.8131,-33.5536 L -27.5729,-33.2634 L -27.3711,-32.9453 L -27.2107,-32.6044 L -27.0942,-32.2461
 L -27.0237,-31.876 L -27,-31.5 L -27.0237,-31.124 L -27.0942,-30.7539 L -27.2107,-30.3956 L -27.3711,-30.0547
 L -27.5729,-29.7366 L -27.8131,-29.4464 L -28.0877,-29.1885 L -28.3925,-28.967 L -28.7227,-28.7855 L -29.0729,-28.6468
 L -29.4379,-28.5531 L -29.8116,-28.5059 z
" stroke="black" fill="lightgray" stroke-width="0.5"/>
</svg>
