  0
SECTION
  2
BLOCKS
  0
ENDSEC
  0
SECTION
  2
ENTITIES
  0
LINE
  8
0
 10
17.9369
 20
-6.91142
 11
18.5451
 21
-6.75528
  0
LINE
  8
0
 10
18.5451
 20
-6.75528
 11
19.1289
 21
-6.52412
  0
LINE
  8
0
 10
19.1289
 20
-6.52412
 11
19.6791
 21
-6.22163
  0
LINE
  8
0
 10
19.6791
 20
-6.22163
 11
20.1871
 21
-5.85255
  0
LINE
  8
0
 10
20.1871
 20
-5.85255
 11
20.6448
 21
-5.42273
  0
LINE
  8
0
 10
20.6448
 20
-5.42273
 11
21.0451
 21
-4.93892
  0
LINE
  8
0
 10
21.0451
 20
-4.93892
 11
21.3815
 21
-4.40877
  0
LINE
  8
0
 10
21.3815
 20
-4.40877
 11
21.6489
 21
-3.84062
  0
LINE
  8
0
 10
21.6489
 20
-3.84062
 11
21.8429
 21
-3.24344
  0
LINE
  8
0
 10
21.8429
 20
-3.24344
 11
21.9606
 21
-2.62666
  0
LINE
  8
0
 10
21.9606
 20
-2.62666
 11
22
 21
-2
  0
LINE
  8
0
 10
22
 20
-2
 11
22
 21
2
  0
LINE
  8
0
 10
22
 20
2
 11
21.9606
 21
2.62666
  0
LINE
  8
0
 10
21.9606
 20
2.62666
 11
21.8429
 21
3.24344
  0
LINE
  8
0
 10
21.8429
 20
3.24344
 11
21.6489
 21
3.84062
  0
LINE
  8
0
 10
21.6489
 20
3.84062
 11
21.3815
 21
4.40877
  0
LINE
  8
0
 10
21.3815
 20
4.40877
 11
21.0451
 21
4.93892
  0
LINE
  8
0
 10
21.0451
 20
4.93892
 11
20.6448
 21
5.42273
  0
LINE
  8
0
 10
20.6448
 20
5.42273
 11
20.1871
 21
5.85255
  0
LINE
  8
0
 10
20.1871
 20
5.85255
 11
19.6791
 21
6.22163
  0
LINE
  8
0
 10
19.6791
 20
6.22163
 11
19.1289
 21
6.52412
  0
LINE
  8
0
 10
19.1289
 20
6.52412
 11
18.5451
 21
6.75528
  0
LINE
  8
0
 10
18.5451
 20
6.75528
 11
17.9369
 21
6.91142
  0
LINE
  8
0
 10
17.9369
 20
6.91142
 11
17.3139
 21
6.99013
  0
LINE
  8
0
 10
17.3139
 20
6.99013
 11
-17.3139
 21
6.99013
  0
LINE
  8
0
 10
-17.3139
 20
6.99013
 11
-17.9369
 21
6.91142
  0
LINE
  8
0
 10
-17.9369
 20
6.91142
 11
-18.5451
 21
6.75528
  0
LINE
  8
0
 10
-18.5451
 20
6.75528
 11
-19.1289
 21
6.52412
  0
LINE
  8
0
 10
-19.1289
 20
6.52412
 11
-19.6791
 21
6.22163
  0
LINE
  8
0
 10
-19.6791
 20
6.22163
 11
-20.1871
 21
5.85255
  0
LINE
  8
0
 10
-20.1871
 20
5.85255
 11
-20.6448
 21
5.42273
  0
LINE
  8
0
 10
-20.6448
 20
5.42273
 11
-21.0451
 21
4.93892
  0
LINE
  8
0
 10
-21.0451
 20
4.93892
 11
-21.3815
 21
4.40877
  0
LINE
  8
0
 10
-21.3815
 20
4.40877
 11
-21.6489
 21
3.84062
  0
LINE
  8
0
 10
-21.6489
 20
3.84062
 11
-21.8429
 21
3.24344
  0
LINE
  8
0
 10
-21.8429
 20
3.24344
 11
-21.9606
 21
2.62666
  0
LINE
  8
0
 10
-21.9606
 20
2.62666
 11
-22
 21
2
  0
LINE
  8
0
 10
-22
 20
2
 11
-22
 21
-2
  0
LINE
  8
0
 10
-22
 20
-2
 11
-21.9606
 21
-2.62666
  0
LINE
  8
0
 10
-21.9606
 20
-2.62666
 11
-21.8429
 21
-3.24344
  0
LINE
  8
0
 10
-21.8429
 20
-3.24344
 11
-21.6489
 21
-3.84062
  0
LINE
  8
0
 10
-21.6489
 20
-3.84062
 11
-21.3815
 21
-4.40877
  0
LINE
  8
0
 10
-21.3815
 20
-4.40877
 11
-21.0451
 21
-4.93892
  0
LINE
  8
0
 10
-21.0451
 20
-4.93892
 11
-20.6448
 21
-5.42273
  0
LINE
  8
0
 10
-20.6448
 20
-5.42273
 11
-20.1871
 21
-5.85255
  0
LINE
  8
0
 10
-20.1871
 20
-5.85255
 11
-19.6791
 21
-6.22163
  0
LINE
  8
0
 10
-19.6791
 20
-6.22163
 11
-19.1289
 21
-6.52412
  0
LINE
  8
0
 10
-19.1289
 20
-6.52412
 11
-18.5451
 21
-6.75528
  0
LINE
  8
0
 10
-18.5451
 20
-6.75528
 11
-17.9369
 21
-6.91142
  0
LINE
  8
0
 10
-17.9369
 20
-6.91142
 11
-17.3139
 21
-6.99013
  0
LINE
  8
0
 10
-17.3139
 20
-6.99013
 11
17.3139
 21
-6.99013
  0
LINE
  8
0
 10
17.3139
 20
-6.99013
 11
17.9369
 21
-6.91142
  0
LINE
  8
0
 10
-6.75116
 20
-3.9921
 11
-7.24951
 21
-3.92914
  0
LINE
  8
0
 10
-7.24951
 20
-3.92914
 11
-7.73605
 21
-3.80421
  0
LINE
  8
0
 10
-7.73605
 20
-3.80421
 11
-8.20311
 21
-3.61929
  0
LINE
  8
0
 10
-8.20311
 20
-3.61929
 11
-8.6433
 21
-3.3773
  0
LINE
  8
0
 10
-8.6433
 20
-3.3773
 11
-9.04968
 21
-3.08205
  0
LINE
  8
0
 10
-9.04968
 20
-3.08205
 11
-9.41586
 21
-2.73817
  0
LINE
  8
0
 10
-9.41586
 20
-2.73817
 11
-9.73605
 21
-2.35114
  0
LINE
  8
0
 10
-9.73605
 20
-2.35114
 11
-10.0052
 21
-1.927
  0
LINE
  8
0
 10
-10.0052
 20
-1.927
 11
-10.2191
 21
-1.47249
  0
LINE
  8
0
 10
-10.2191
 20
-1.47249
 11
-10.3743
 21
-0.994751
  0
LINE
  8
0
 10
-10.3743
 20
-0.994751
 11
-10.4684
 21
-0.501328
  0
LINE
  8
0
 10
-10.4684
 20
-0.501328
 11
-10.5
 21
0
  0
LINE
  8
0
 10
-10.5
 20
0
 11
-10.4684
 21
0.501328
  0
LINE
  8
0
 10
-10.4684
 20
0.501328
 11
-10.3743
 21
0.994751
  0
LINE
  8
0
 10
-10.3743
 20
0.994751
 11
-10.2191
 21
1.47249
  0
LINE
  8
0
 10
-10.2191
 20
1.47249
 11
-10.0052
 21
1.927
  0
LINE
  8
0
 10
-10.0052
 20
1.927
 11
-9.73605
 21
2.35114
  0
LINE
  8
0
 10
-9.73605
 20
2.35114
 11
-9.41586
 21
2.73817
  0
LINE
  8
0
 10
-9.41586
 20
2.73817
 11
-9.04968
 21
3.08205
  0
LINE
  8
0
 10
-9.04968
 20
3.08205
 11
-8.6433
 21
3.3773
  0
LINE
  8
0
 10
-8.6433
 20
3.3773
 11
-8.20311
 21
3.61929
  0
LINE
  8
0
 10
-8.20311
 20
3.61929
 11
-7.73605
 21
3.80421
  0
LINE
  8
0
 10
-7.73605
 20
3.80421
 11
-7.24951
 21
3.92914
  0
LINE
  8
0
 10
-7.24951
 20
3.92914
 11
-6.75116
 21
3.9921
  0
LINE
  8
0
 10
-6.75116
 20
3.9921
 11
-6.24883
 21
3.9921
  0
LINE
  8
0
 10
-6.24883
 20
3.9921
 11
-5.75047
 21
3.92914
  0
LINE
  8
0
 10
-5.75047
 20
3.92914
 11
-5.26393
 21
3.80421
  0
LINE
  8
0
 10
-5.26393
 20
3.80421
 11
-4.79688
 21
3.61929
  0
LINE
  8
0
 10
-4.79688
 20
3.61929
 11
-4.35669
 21
3.3773
  0
LINE
  8
0
 10
-4.35669
 20
3.3773
 11
-3.9503
 21
3.08205
  0
LINE
  8
0
 10
-3.9503
 20
3.08205
 11
-3.58412
 21
2.73817
  0
LINE
  8
0
 10
-3.58412
 20
2.73817
 11
-3.26393
 21
2.35114
  0
LINE
  8
0
 10
-3.26393
 20
2.35114
 11
-2.99477
 21
1.927
  0
LINE
  8
0
 10
-2.99477
 20
1.927
 11
-2.78088
 21
1.47249
  0
LINE
  8
0
 10
-2.78088
 20
1.47249
 11
-2.62566
 21
0.994751
  0
LINE
  8
0
 10
-2.62566
 20
0.994751
 11
-2.53154
 21
0.501328
  0
LINE
  8
0
 10
-2.53154
 20
0.501328
 11
-2.5
 21
0
  0
LINE
  8
0
 10
-2.5
 20
0
 11
-2.53154
 21
-0.501328
  0
LINE
  8
0
 10
-2.53154
 20
-0.501328
 11
-2.62566
 21
-0.994751
  0
LINE
  8
0
 10
-2.62566
 20
-0.994751
 11
-2.78088
 21
-1.47249
  0
LINE
  8
0
 10
-2.78088
 20
-1.47249
 11
-2.99477
 21
-1.927
  0
LINE
  8
0
 10
-2.99477
 20
-1.927
 11
-3.26393
 21
-2.35114
  0
LINE
  8
0
 10
-3.26393
 20
-2.35114
 11
-3.58412
 21
-2.73817
  0
LINE
  8
0
 10
-3.58412
 20
-2.73817
 11
-3.9503
 21
-3.08205
  0
LINE
  8
0
 10
-3.9503
 20
-3.08205
 11
-4.35669
 21
-3.3773
  0
LINE
  8
0
 10
-4.35669
 20
-3.3773
 11
-4.79688
 21
-3.61929
  0
LINE
  8
0
 10
-4.79688
 20
-3.61929
 11
-5.26393
 21
-3.80421
  0
LINE
  8
0
 10
-5.26393
 20
-3.80421
 11
-5.75047
 21
-3.92914
  0
LINE
  8
0
 10
-5.75047
 20
-3.92914
 11
-6.24883
 21
-3.9921
  0
LINE
  8
0
 10
-6.24883
 20
-3.9921
 11
-6.75116
 21
-3.9921
  0
LINE
  8
0
 10
6.24883
 20
-3.9921
 11
5.75047
 21
-3.92914
  0
LINE
  8
0
 10
5.75047
 20
-3.92914
 11
5.26393
 21
-3.80421
  0
LINE
  8
0
 10
5.26393
 20
-3.80421
 11
4.79688
 21
-3.61929
  0
LINE
  8
0
 10
4.79688
 20
-3.61929
 11
4.35669
 21
-3.3773
  0
LINE
  8
0
 10
4.35669
 20
-3.3773
 11
3.9503
 21
-3.08205
  0
LINE
  8
0
 10
3.9503
 20
-3.08205
 11
3.58412
 21
-2.73817
  0
LINE
  8
0
 10
3.58412
 20
-2.73817
 11
3.26393
 21
-2.35114
  0
LINE
  8
0
 10
3.26393
 20
-2.35114
 11
2.99477
 21
-1.927
  0
LINE
  8
0
 10
2.99477
 20
-1.927
 11
2.78088
 21
-1.47249
  0
LINE
  8
0
 10
2.78088
 20
-1.47249
 11
2.62566
 21
-0.994751
  0
LINE
  8
0
 10
2.62566
 20
-0.994751
 11
2.53154
 21
-0.501328
  0
LINE
  8
0
 10
2.53154
 20
-0.501328
 11
2.5
 21
0
  0
LINE
  8
0
 10
2.5
 20
0
 11
2.53154
 21
0.501328
  0
LINE
  8
0
 10
2.53154
 20
0.501328
 11
2.62566
 21
0.994751
  0
LINE
  8
0
 10
2.62566
 20
0.994751
 11
2.78088
 21
1.47249
  0
LINE
  8
0
 10
2.78088
 20
1.47249
 11
2.99477
 21
1.927
  0
LINE
  8
0
 10
2.99477
 20
1.927
 11
3.26393
 21
2.35114
  0
LINE
  8
0
 10
3.26393
 20
2.35114
 11
3.58412
 21
2.73817
  0
LINE
  8
0
 10
3.58412
 20
2.73817
 11
3.9503
 21
3.08205
  0
LINE
  8
0
 10
3.9503
 20
3.08205
 11
4.35669
 21
3.3773
  0
LINE
  8
0
 10
4.35669
 20
3.3773
 11
4.79688
 21
3.61929
  0
LINE
  8
0
 10
4.79688
 20
3.61929
 11
5.26393
 21
3.80421
  0
LINE
  8
0
 10
5.26393
 20
3.80421
 11
5.75047
 21
3.92914
  0
LINE
  8
0
 10
5.75047
 20
3.92914
 11
6.24883
 21
3.9921
  0
LINE
  8
0
 10
6.24883
 20
3.9921
 11
6.75116
 21
3.9921
  0
LINE
  8
0
 10
6.75116
 20
3.9921
 11
7.24951
 21
3.92914
  0
LINE
  8
0
 10
7.24951
 20
3.92914
 11
7.73605
 21
3.80421
  0
LINE
  8
0
 10
7.73605
 20
3.80421
 11
8.20311
 21
3.61929
  0
LINE
  8
0
 10
8.20311
 20
3.61929
 11
8.6433
 21
3.3773
  0
LINE
  8
0
 10
8.6433
 20
3.3773
 11
9.04968
 21
3.08205
  0
LINE
  8
0
 10
9.04968
 20
3.08205
 11
9.41586
 21
2.73817
  0
LINE
  8
0
 10
9.41586
 20
2.73817
 11
9.73605
 21
2.35114
  0
LINE
  8
0
 10
9.73605
 20
2.35114
 11
10.0052
 21
1.927
  0
LINE
  8
0
 10
10.0052
 20
1.927
 11
10.2191
 21
1.47249
  0
LINE
  8
0
 10
10.2191
 20
1.47249
 11
10.3743
 21
0.994751
  0
LINE
  8
0
 10
10.3743
 20
0.994751
 11
10.4684
 21
0.501328
  0
LINE
  8
0
 10
10.4684
 20
0.501328
 11
10.5
 21
0
  0
LINE
  8
0
 10
10.5
 20
0
 11
10.4684
 21
-0.501328
  0
LINE
  8
0
 10
10.4684
 20
-0.501328
 11
10.3743
 21
-0.994751
  0
LINE
  8
0
 10
10.3743
 20
-0.994751
 11
10.2191
 21
-1.47249
  0
LINE
  8
0
 10
10.2191
 20
-1.47249
 11
10.0052
 21
-1.927
  0
LINE
  8
0
 10
10.0052
 20
-1.927
 11
9.73605
 21
-2.35114
  0
LINE
  8
0
 10
9.73605
 20
-2.35114
 11
9.41586
 21
-2.73817
  0
LINE
  8
0
 10
9.41586
 20
-2.73817
 11
9.04968
 21
-3.08205
  0
LINE
  8
0
 10
9.04968
 20
-3.08205
 11
8.6433
 21
-3.3773
  0
LINE
  8
0
 10
8.6433
 20
-3.3773
 11
8.20311
 21
-3.61929
  0
LINE
  8
0
 10
8.20311
 20
-3.61929
 11
7.73605
 21
-3.80421
  0
LINE
  8
0
 10
7.73605
 20
-3.80421
 11
7.24951
 21
-3.92914
  0
LINE
  8
0
 10
7.24951
 20
-3.92914
 11
6.75116
 21
-3.9921
  0
LINE
  8
0
 10
6.75116
 20
-3.9921
 11
6.24883
 21
-3.9921
  0
LINE
  8
0
 10
-15.1884
 20
-2.99408
 11
-15.5621
 21
-2.94685
  0
LINE
  8
0
 10
-15.5621
 20
-2.94685
 11
-15.927
 21
-2.85316
  0
LINE
  8
0
 10
-15.927
 20
-2.85316
 11
-16.2773
 21
-2.71448
  0
LINE
  8
0
 10
-16.2773
 20
-2.71448
 11
-16.6075
 21
-2.53297
  0
LINE
  8
0
 10
-16.6075
 20
-2.53297
 11
-16.9123
 21
-2.31154
  0
LINE
  8
0
 10
-16.9123
 20
-2.31154
 11
-17.1869
 21
-2.05363
  0
LINE
  8
0
 10
-17.1869
 20
-2.05363
 11
-17.427
 21
-1.76335
  0
LINE
  8
0
 10
-17.427
 20
-1.76335
 11
-17.6289
 21
-1.44525
  0
LINE
  8
0
 10
-17.6289
 20
-1.44525
 11
-17.7893
 21
-1.10437
  0
LINE
  8
0
 10
-17.7893
 20
-1.10437
 11
-17.9057
 21
-0.746063
  0
LINE
  8
0
 10
-17.9057
 20
-0.746063
 11
-17.9763
 21
-0.375992
  0
LINE
  8
0
 10
-17.9763
 20
-0.375992
 11
-18
 21
0
  0
LINE
  8
0
 10
-18
 20
0
 11
-17.9763
 21
0.375992
  0
LINE
  8
0
 10
-17.9763
 20
0.375992
 11
-17.9057
 21
0.746063
  0
LINE
  8
0
 10
-17.9057
 20
0.746063
 11
-17.7893
 21
1.10437
  0
LINE
  8
0
 10
-17.7893
 20
1.10437
 11
-17.6289
 21
1.44525
  0
LINE
  8
0
 10
-17.6289
 20
1.44525
 11
-17.427
 21
1.76335
  0
LINE
  8
0
 10
-17.427
 20
1.76335
 11
-17.1869
 21
2.05363
  0
LINE
  8
0
 10
-17.1869
 20
2.05363
 11
-16.9123
 21
2.31154
  0
LINE
  8
0
 10
-16.9123
 20
2.31154
 11
-16.6075
 21
2.53297
  0
LINE
  8
0
 10
-16.6075
 20
2.53297
 11
-16.2773
 21
2.71448
  0
LINE
  8
0
 10
-16.2773
 20
2.71448
 11
-15.927
 21
2.85316
  0
LINE
  8
0
 10
-15.927
 20
2.85316
 11
-15.5621
 21
2.94685
  0
LINE
  8
0
 10
-15.5621
 20
2.94685
 11
-15.1884
 21
2.99408
  0
LINE
  8
0
 10
-15.1884
 20
2.99408
 11
-14.8116
 21
2.99408
  0
LINE
  8
0
 10
-14.8116
 20
2.99408
 11
-14.4379
 21
2.94685
  0
LINE
  8
0
 10
-14.4379
 20
2.94685
 11
-14.0729
 21
2.85316
  0
LINE
  8
0
 10
-14.0729
 20
2.85316
 11
-13.7227
 21
2.71448
  0
LINE
  8
0
 10
-13.7227
 20
2.71448
 11
-13.3925
 21
2.53297
  0
LINE
  8
0
 10
-13.3925
 20
2.53297
 11
-13.0877
 21
2.31154
  0
LINE
  8
0
 10
-13.0877
 20
2.31154
 11
-12.8131
 21
2.05363
  0
LINE
  8
0
 10
-12.8131
 20
2.05363
 11
-12.5729
 21
1.76335
  0
LINE
  8
0
 10
-12.5729
 20
1.76335
 11
-12.3711
 21
1.44525
  0
LINE
  8
0
 10
-12.3711
 20
1.44525
 11
-12.2107
 21
1.10437
  0
LINE
  8
0
 10
-12.2107
 20
1.10437
 11
-12.0942
 21
0.746063
  0
LINE
  8
0
 10
-12.0942
 20
0.746063
 11
-12.0237
 21
0.375992
  0
LINE
  8
0
 10
-12.0237
 20
0.375992
 11
-12
 21
0
  0
LINE
  8
0
 10
-12
 20
0
 11
-12.0237
 21
-0.375992
  0
LINE
  8
0
 10
-12.0237
 20
-0.375992
 11
-12.0942
 21
-0.746063
  0
LINE
  8
0
 10
-12.0942
 20
-0.746063
 11
-12.2107
 21
-1.10437
  0
LINE
  8
0
 10
-12.2107
 20
-1.10437
 11
-12.3711
 21
-1.44525
  0
LINE
  8
0
 10
-12.3711
 20
-1.44525
 11
-12.5729
 21
-1.76335
  0
LINE
  8
0
 10
-12.5729
 20
-1.76335
 11
-12.8131
 21
-2.05363
  0
LINE
  8
0
 10
-12.8131
 20
-2.05363
 11
-13.0877
 21
-2.31154
  0
LINE
  8
0
 10
-13.0877
 20
-2.31154
 11
-13.3925
 21
-2.53297
  0
LINE
  8
0
 10
-13.3925
 20
-2.53297
 11
-13.7227
 21
-2.71448
  0
LINE
  8
0
 10
-13.7227
 20
-2.71448
 11
-14.0729
 21
-2.85316
  0
LINE
  8
0
 10
-14.0729
 20
-2.85316
 11
-14.4379
 21
-2.94685
  0
LINE
  8
0
 10
-14.4379
 20
-2.94685
 11
-14.8116
 21
-2.99408
  0
LINE
  8
0
 10
-14.8116
 20
-2.99408
 11
-15.1884
 21
-2.99408
  0
LINE
  8
0
 10
14.8116
 20
-2.99408
 11
14.4379
 21
-2.94685
  0
LINE
  8
0
 10
14.4379
 20
-2.94685
 11
14.0729
 21
-2.85316
  0
LINE
  8
0
 10
14.0729
 20
-2.85316
 11
13.7227
 21
-2.71448
  0
LINE
  8
0
 10
13.7227
 20
-2.71448
 11
13.3925
 21
-2.53297
  0
LINE
  8
0
 10
13.3925
 20
-2.53297
 11
13.0877
 21
-2.31154
  0
LINE
  8
0
 10
13.0877
 20
-2.31154
 11
12.8131
 21
-2.05363
  0
LINE
  8
0
 10
12.8131
 20
-2.05363
 11
12.5729
 21
-1.76335
  0
LINE
  8
0
 10
12.5729
 20
-1.76335
 11
12.3711
 21
-1.44525
  0
LINE
  8
0
 10
12.3711
 20
-1.44525
 11
12.2107
 21
-1.10437
  0
LINE
  8
0
 10
12.2107
 20
-1.10437
 11
12.0942
 21
-0.746063
  0
LINE
  8
0
 10
12.0942
 20
-0.746063
 11
12.0237
 21
-0.375992
  0
LINE
  8
0
 10
12.0237
 20
-0.375992
 11
12
 21
0
  0
LINE
  8
0
 10
12
 20
0
 11
12.0237
 21
0.375992
  0
LINE
  8
0
 10
12.0237
 20
0.375992
 11
12.0942
 21
0.746063
  0
LINE
  8
0
 10
12.0942
 20
0.746063
 11
12.2107
 21
1.10437
  0
LINE
  8
0
 10
12.2107
 20
1.10437
 11
12.3711
 21
1.44525
  0
LINE
  8
0
 10
12.3711
 20
1.44525
 11
12.5729
 21
1.76335
  0
LINE
  8
0
 10
12.5729
 20
1.76335
 11
12.8131
 21
2.05363
  0
LINE
  8
0
 10
12.8131
 20
2.05363
 11
13.0877
 21
2.31154
  0
LINE
  8
0
 10
13.0877
 20
2.31154
 11
13.3925
 21
2.53297
  0
LINE
  8
0
 10
13.3925
 20
2.53297
 11
13.7227
 21
2.71448
  0
LINE
  8
0
 10
13.7227
 20
2.71448
 11
14.0729
 21
2.85316
  0
LINE
  8
0
 10
14.0729
 20
2.85316
 11
14.4379
 21
2.94685
  0
LINE
  8
0
 10
14.4379
 20
2.94685
 11
14.8116
 21
2.99408
  0
LINE
  8
0
 10
14.8116
 20
2.99408
 11
15.1884
 21
2.99408
  0
LINE
  8
0
 10
15.1884
 20
2.99408
 11
15.5621
 21
2.94685
  0
LINE
  8
0
 10
15.5621
 20
2.94685
 11
15.927
 21
2.85316
  0
LINE
  8
0
 10
15.927
 20
2.85316
 11
16.2773
 21
2.71448
  0
LINE
  8
0
 10
16.2773
 20
2.71448
 11
16.6075
 21
2.53297
  0
LINE
  8
0
 10
16.6075
 20
2.53297
 11
16.9123
 21
2.31154
  0
LINE
  8
0
 10
16.9123
 20
2.31154
 11
17.1869
 21
2.05363
  0
LINE
  8
0
 10
17.1869
 20
2.05363
 11
17.427
 21
1.76335
  0
LINE
  8
0
 10
17.427
 20
1.76335
 11
17.6289
 21
1.44525
  0
LINE
  8
0
 10
17.6289
 20
1.44525
 11
17.7893
 21
1.10437
  0
LINE
  8
0
 10
17.7893
 20
1.10437
 11
17.9057
 21
0.746063
  0
LINE
  8
0
 10
17.9057
 20
0.746063
 11
17.9763
 21
0.375992
  0
LINE
  8
0
 10
17.9763
 20
0.375992
 11
18
 21
0
  0
LINE
  8
0
 10
18
 20
0
 11
17.9763
 21
-0.375992
  0
LINE
  8
0
 10
17.9763
 20
-0.375992
 11
17.9057
 21
-0.746063
  0
LINE
  8
0
 10
17.9057
 20
-0.746063
 11
17.7893
 21
-1.10437
  0
LINE
  8
0
 10
17.7893
 20
-1.10437
 11
17.6289
 21
-1.44525
  0
LINE
  8
0
 10
17.6289
 20
-1.44525
 11
17.427
 21
-1.76335
  0
LINE
  8
0
 10
17.427
 20
-1.76335
 11
17.1869
 21
-2.05363
  0
LINE
  8
0
 10
17.1869
 20
-2.05363
 11
16.9123
 21
-2.31154
  0
LINE
  8
0
 10
16.9123
 20
-2.31154
 11
16.6075
 21
-2.53297
  0
LINE
  8
0
 10
16.6075
 20
-2.53297
 11
16.2773
 21
-2.71448
  0
LINE
  8
0
 10
16.2773
 20
-2.71448
 11
15.927
 21
-2.85316
  0
LINE
  8
0
 10
15.927
 20
-2.85316
 11
15.5621
 21
-2.94685
  0
LINE
  8
0
 10
15.5621
 20
-2.94685
 11
15.1884
 21
-2.99408
  0
LINE
  8
0
 10
15.1884
 20
-2.99408
 11
14.8116
 21
-2.99408
  0
ENDSEC
  0
SECTION
  2
OBJECTS
  0
DICTIONARY
  0
ENDSEC
  0
EOF
