  0
SECTION
  2
BLOCKS
  0
ENDSEC
  0
SECTION
  2
ENTITIES
  0
LINE
  8
0
 10
32.9369
 20
24.5886
 11
33.5451
 21
24.7447
  0
LINE
  8
0
 10
33.5451
 20
24.7447
 11
34.1289
 21
24.9759
  0
LINE
  8
0
 10
34.1289
 20
24.9759
 11
34.6791
 21
25.2784
  0
LINE
  8
0
 10
34.6791
 20
25.2784
 11
35.1871
 21
25.6474
  0
LINE
  8
0
 10
35.1871
 20
25.6474
 11
35.6448
 21
26.0773
  0
LINE
  8
0
 10
35.6448
 20
26.0773
 11
36.0451
 21
26.5611
  0
LINE
  8
0
 10
36.0451
 20
26.5611
 11
36.3815
 21
27.0912
  0
LINE
  8
0
 10
36.3815
 20
27.0912
 11
36.6489
 21
27.6594
  0
LINE
  8
0
 10
36.6489
 20
27.6594
 11
36.8429
 21
28.2566
  0
LINE
  8
0
 10
36.8429
 20
28.2566
 11
36.9606
 21
28.8733
  0
LINE
  8
0
 10
36.9606
 20
28.8733
 11
37
 21
29.5
  0
LINE
  8
0
 10
37
 20
29.5
 11
37
 21
48.5
  0
LINE
  8
0
 10
37
 20
48.5
 11
36.9606
 21
49.1267
  0
LINE
  8
0
 10
36.9606
 20
49.1267
 11
36.8429
 21
49.7434
  0
LINE
  8
0
 10
36.8429
 20
49.7434
 11
36.6489
 21
50.3406
  0
LINE
  8
0
 10
36.6489
 20
50.3406
 11
36.3815
 21
50.9088
  0
LINE
  8
0
 10
36.3815
 20
50.9088
 11
36.0451
 21
51.4389
  0
LINE
  8
0
 10
36.0451
 20
51.4389
 11
35.6448
 21
51.9227
  0
LINE
  8
0
 10
35.6448
 20
51.9227
 11
35.1871
 21
52.3526
  0
LINE
  8
0
 10
35.1871
 20
52.3526
 11
34.6791
 21
52.7216
  0
LINE
  8
0
 10
34.6791
 20
52.7216
 11
34.1289
 21
53.0241
  0
LINE
  8
0
 10
34.1289
 20
53.0241
 11
33.5451
 21
53.2553
  0
LINE
  8
0
 10
33.5451
 20
53.2553
 11
32.9369
 21
53.4114
  0
LINE
  8
0
 10
32.9369
 20
53.4114
 11
32.3139
 21
53.4901
  0
LINE
  8
0
 10
32.3139
 20
53.4901
 11
-32.3139
 21
53.4901
  0
LINE
  8
0
 10
-32.3139
 20
53.4901
 11
-32.9369
 21
53.4114
  0
LINE
  8
0
 10
-32.9369
 20
53.4114
 11
-33.5451
 21
53.2553
  0
LINE
  8
0
 10
-33.5451
 20
53.2553
 11
-34.1289
 21
53.0241
  0
LINE
  8
0
 10
-34.1289
 20
53.0241
 11
-34.6791
 21
52.7216
  0
LINE
  8
0
 10
-34.6791
 20
52.7216
 11
-35.1871
 21
52.3526
  0
LINE
  8
0
 10
-35.1871
 20
52.3526
 11
-35.6448
 21
51.9227
  0
LINE
  8
0
 10
-35.6448
 20
51.9227
 11
-36.0451
 21
51.4389
  0
LINE
  8
0
 10
-36.0451
 20
51.4389
 11
-36.3815
 21
50.9088
  0
LINE
  8
0
 10
-36.3815
 20
50.9088
 11
-36.6489
 21
50.3406
  0
LINE
  8
0
 10
-36.6489
 20
50.3406
 11
-36.8429
 21
49.7434
  0
LINE
  8
0
 10
-36.8429
 20
49.7434
 11
-36.9606
 21
49.1267
  0
LINE
  8
0
 10
-36.9606
 20
49.1267
 11
-37
 21
48.5
  0
LINE
  8
0
 10
-37
 20
48.5
 11
-37
 21
29.5
  0
LINE
  8
0
 10
-37
 20
29.5
 11
-36.9606
 21
28.8733
  0
LINE
  8
0
 10
-36.9606
 20
28.8733
 11
-36.8429
 21
28.2566
  0
LINE
  8
0
 10
-36.8429
 20
28.2566
 11
-36.6489
 21
27.6594
  0
LINE
  8
0
 10
-36.6489
 20
27.6594
 11
-36.3815
 21
27.0912
  0
LINE
  8
0
 10
-36.3815
 20
27.0912
 11
-36.0451
 21
26.5611
  0
LINE
  8
0
 10
-36.0451
 20
26.5611
 11
-35.6448
 21
26.0773
  0
LINE
  8
0
 10
-35.6448
 20
26.0773
 11
-35.1871
 21
25.6474
  0
LINE
  8
0
 10
-35.1871
 20
25.6474
 11
-34.6791
 21
25.2784
  0
LINE
  8
0
 10
-34.6791
 20
25.2784
 11
-34.1289
 21
24.9759
  0
LINE
  8
0
 10
-34.1289
 20
24.9759
 11
-33.5451
 21
24.7447
  0
LINE
  8
0
 10
-33.5451
 20
24.7447
 11
-32.9369
 21
24.5886
  0
LINE
  8
0
 10
-32.9369
 20
24.5886
 11
-32.3139
 21
24.5099
  0
LINE
  8
0
 10
-32.3139
 20
24.5099
 11
32.3139
 21
24.5099
  0
LINE
  8
0
 10
32.3139
 20
24.5099
 11
32.9369
 21
24.5886
  0
LINE
  8
0
 10
29.8116
 20
43.5059
 11
29.4379
 21
43.5531
  0
LINE
  8
0
 10
29.4379
 20
43.5531
 11
29.0729
 21
43.6468
  0
LINE
  8
0
 10
29.0729
 20
43.6468
 11
28.7227
 21
43.7855
  0
LINE
  8
0
 10
28.7227
 20
43.7855
 11
28.3925
 21
43.967
  0
LINE
  8
0
 10
28.3925
 20
43.967
 11
28.0877
 21
44.1884
  0
LINE
  8
0
 10
28.0877
 20
44.1884
 11
27.8131
 21
44.4464
  0
LINE
  8
0
 10
27.8131
 20
44.4464
 11
27.5729
 21
44.7366
  0
LINE
  8
0
 10
27.5729
 20
44.7366
 11
27.3711
 21
45.0547
  0
LINE
  8
0
 10
27.3711
 20
45.0547
 11
27.2107
 21
45.3956
  0
LINE
  8
0
 10
27.2107
 20
45.3956
 11
27.0942
 21
45.7539
  0
LINE
  8
0
 10
27.0942
 20
45.7539
 11
27.0237
 21
46.124
  0
LINE
  8
0
 10
27.0237
 20
46.124
 11
27
 21
46.5
  0
LINE
  8
0
 10
27
 20
46.5
 11
27.0237
 21
46.876
  0
LINE
  8
0
 10
27.0237
 20
46.876
 11
27.0942
 21
47.2461
  0
LINE
  8
0
 10
27.0942
 20
47.2461
 11
27.2107
 21
47.6044
  0
LINE
  8
0
 10
27.2107
 20
47.6044
 11
27.3711
 21
47.9453
  0
LINE
  8
0
 10
27.3711
 20
47.9453
 11
27.5729
 21
48.2634
  0
LINE
  8
0
 10
27.5729
 20
48.2634
 11
27.8131
 21
48.5536
  0
LINE
  8
0
 10
27.8131
 20
48.5536
 11
28.0877
 21
48.8115
  0
LINE
  8
0
 10
28.0877
 20
48.8115
 11
28.3925
 21
49.033
  0
LINE
  8
0
 10
28.3925
 20
49.033
 11
28.7227
 21
49.2145
  0
LINE
  8
0
 10
28.7227
 20
49.2145
 11
29.0729
 21
49.3532
  0
LINE
  8
0
 10
29.0729
 20
49.3532
 11
29.4379
 21
49.4469
  0
LINE
  8
0
 10
29.4379
 20
49.4469
 11
29.8116
 21
49.4941
  0
LINE
  8
0
 10
29.8116
 20
49.4941
 11
30.1884
 21
49.4941
  0
LINE
  8
0
 10
30.1884
 20
49.4941
 11
30.5621
 21
49.4469
  0
LINE
  8
0
 10
30.5621
 20
49.4469
 11
30.927
 21
49.3532
  0
LINE
  8
0
 10
30.927
 20
49.3532
 11
31.2773
 21
49.2145
  0
LINE
  8
0
 10
31.2773
 20
49.2145
 11
31.6075
 21
49.033
  0
LINE
  8
0
 10
31.6075
 20
49.033
 11
31.9123
 21
48.8115
  0
LINE
  8
0
 10
31.9123
 20
48.8115
 11
32.1869
 21
48.5536
  0
LINE
  8
0
 10
32.1869
 20
48.5536
 11
32.427
 21
48.2634
  0
LINE
  8
0
 10
32.427
 20
48.2634
 11
32.6289
 21
47.9453
  0
LINE
  8
0
 10
32.6289
 20
47.9453
 11
32.7893
 21
47.6044
  0
LINE
  8
0
 10
32.7893
 20
47.6044
 11
32.9057
 21
47.2461
  0
LINE
  8
0
 10
32.9057
 20
47.2461
 11
32.9763
 21
46.876
  0
LINE
  8
0
 10
32.9763
 20
46.876
 11
33
 21
46.5
  0
LINE
  8
0
 10
33
 20
46.5
 11
32.9763
 21
46.124
  0
LINE
  8
0
 10
32.9763
 20
46.124
 11
32.9057
 21
45.7539
  0
LINE
  8
0
 10
32.9057
 20
45.7539
 11
32.7893
 21
45.3956
  0
LINE
  8
0
 10
32.7893
 20
45.3956
 11
32.6289
 21
45.0547
  0
LINE
  8
0
 10
32.6289
 20
45.0547
 11
32.427
 21
44.7366
  0
LINE
  8
0
 10
32.427
 20
44.7366
 11
32.1869
 21
44.4464
  0
LINE
  8
0
 10
32.1869
 20
44.4464
 11
31.9123
 21
44.1884
  0
LINE
  8
0
 10
31.9123
 20
44.1884
 11
31.6075
 21
43.967
  0
LINE
  8
0
 10
31.6075
 20
43.967
 11
31.2773
 21
43.7855
  0
LINE
  8
0
 10
31.2773
 20
43.7855
 11
30.927
 21
43.6468
  0
LINE
  8
0
 10
30.927
 20
43.6468
 11
30.5621
 21
43.5531
  0
LINE
  8
0
 10
30.5621
 20
43.5531
 11
30.1884
 21
43.5059
  0
LINE
  8
0
 10
30.1884
 20
43.5059
 11
29.8116
 21
43.5059
  0
LINE
  8
0
 10
-30.1884
 20
43.5059
 11
-30.5621
 21
43.5531
  0
LINE
  8
0
 10
-30.5621
 20
43.5531
 11
-30.927
 21
43.6468
  0
LINE
  8
0
 10
-30.927
 20
43.6468
 11
-31.2773
 21
43.7855
  0
LINE
  8
0
 10
-31.2773
 20
43.7855
 11
-31.6075
 21
43.967
  0
LINE
  8
0
 10
-31.6075
 20
43.967
 11
-31.9123
 21
44.1884
  0
LINE
  8
0
 10
-31.9123
 20
44.1884
 11
-32.1869
 21
44.4464
  0
LINE
  8
0
 10
-32.1869
 20
44.4464
 11
-32.427
 21
44.7366
  0
LINE
  8
0
 10
-32.427
 20
44.7366
 11
-32.6289
 21
45.0547
  0
LINE
  8
0
 10
-32.6289
 20
45.0547
 11
-32.7893
 21
45.3956
  0
LINE
  8
0
 10
-32.7893
 20
45.3956
 11
-32.9057
 21
45.7539
  0
LINE
  8
0
 10
-32.9057
 20
45.7539
 11
-32.9763
 21
46.124
  0
LINE
  8
0
 10
-32.9763
 20
46.124
 11
-33
 21
46.5
  0
LINE
  8
0
 10
-33
 20
46.5
 11
-32.9763
 21
46.876
  0
LINE
  8
0
 10
-32.9763
 20
46.876
 11
-32.9057
 21
47.2461
  0
LINE
  8
0
 10
-32.9057
 20
47.2461
 11
-32.7893
 21
47.6044
  0
LINE
  8
0
 10
-32.7893
 20
47.6044
 11
-32.6289
 21
47.9453
  0
LINE
  8
0
 10
-32.6289
 20
47.9453
 11
-32.427
 21
48.2634
  0
LINE
  8
0
 10
-32.427
 20
48.2634
 11
-32.1869
 21
48.5536
  0
LINE
  8
0
 10
-32.1869
 20
48.5536
 11
-31.9123
 21
48.8115
  0
LINE
  8
0
 10
-31.9123
 20
48.8115
 11
-31.6075
 21
49.033
  0
LINE
  8
0
 10
-31.6075
 20
49.033
 11
-31.2773
 21
49.2145
  0
LINE
  8
0
 10
-31.2773
 20
49.2145
 11
-30.927
 21
49.3532
  0
LINE
  8
0
 10
-30.927
 20
49.3532
 11
-30.5621
 21
49.4469
  0
LINE
  8
0
 10
-30.5621
 20
49.4469
 11
-30.1884
 21
49.4941
  0
LINE
  8
0
 10
-30.1884
 20
49.4941
 11
-29.8116
 21
49.4941
  0
LINE
  8
0
 10
-29.8116
 20
49.4941
 11
-29.4379
 21
49.4469
  0
LINE
  8
0
 10
-29.4379
 20
49.4469
 11
-29.0729
 21
49.3532
  0
LINE
  8
0
 10
-29.0729
 20
49.3532
 11
-28.7227
 21
49.2145
  0
LINE
  8
0
 10
-28.7227
 20
49.2145
 11
-28.3925
 21
49.033
  0
LINE
  8
0
 10
-28.3925
 20
49.033
 11
-28.0877
 21
48.8115
  0
LINE
  8
0
 10
-28.0877
 20
48.8115
 11
-27.8131
 21
48.5536
  0
LINE
  8
0
 10
-27.8131
 20
48.5536
 11
-27.5729
 21
48.2634
  0
LINE
  8
0
 10
-27.5729
 20
48.2634
 11
-27.3711
 21
47.9453
  0
LINE
  8
0
 10
-27.3711
 20
47.9453
 11
-27.2107
 21
47.6044
  0
LINE
  8
0
 10
-27.2107
 20
47.6044
 11
-27.0942
 21
47.2461
  0
LINE
  8
0
 10
-27.0942
 20
47.2461
 11
-27.0237
 21
46.876
  0
LINE
  8
0
 10
-27.0237
 20
46.876
 11
-27
 21
46.5
  0
LINE
  8
0
 10
-27
 20
46.5
 11
-27.0237
 21
46.124
  0
LINE
  8
0
 10
-27.0237
 20
46.124
 11
-27.0942
 21
45.7539
  0
LINE
  8
0
 10
-27.0942
 20
45.7539
 11
-27.2107
 21
45.3956
  0
LINE
  8
0
 10
-27.2107
 20
45.3956
 11
-27.3711
 21
45.0547
  0
LINE
  8
0
 10
-27.3711
 20
45.0547
 11
-27.5729
 21
44.7366
  0
LINE
  8
0
 10
-27.5729
 20
44.7366
 11
-27.8131
 21
44.4464
  0
LINE
  8
0
 10
-27.8131
 20
44.4464
 11
-28.0877
 21
44.1884
  0
LINE
  8
0
 10
-28.0877
 20
44.1884
 11
-28.3925
 21
43.967
  0
LINE
  8
0
 10
-28.3925
 20
43.967
 11
-28.7227
 21
43.7855
  0
LINE
  8
0
 10
-28.7227
 20
43.7855
 11
-29.0729
 21
43.6468
  0
LINE
  8
0
 10
-29.0729
 20
43.6468
 11
-29.4379
 21
43.5531
  0
LINE
  8
0
 10
-29.4379
 20
43.5531
 11
-29.8116
 21
43.5059
  0
LINE
  8
0
 10
-29.8116
 20
43.5059
 11
-30.1884
 21
43.5059
  0
LINE
  8
0
 10
27.7174
 20
34.5089
 11
27.1568
 21
34.5797
  0
LINE
  8
0
 10
27.1568
 20
34.5797
 11
26.6094
 21
34.7203
  0
LINE
  8
0
 10
26.6094
 20
34.7203
 11
26.084
 21
34.9283
  0
LINE
  8
0
 10
26.084
 20
34.9283
 11
25.5888
 21
35.2005
  0
LINE
  8
0
 10
25.5888
 20
35.2005
 11
25.1316
 21
35.5327
  0
LINE
  8
0
 10
25.1316
 20
35.5327
 11
24.7196
 21
35.9195
  0
LINE
  8
0
 10
24.7196
 20
35.9195
 11
24.3594
 21
36.355
  0
LINE
  8
0
 10
24.3594
 20
36.355
 11
24.0566
 21
36.8321
  0
LINE
  8
0
 10
24.0566
 20
36.8321
 11
23.816
 21
37.3434
  0
LINE
  8
0
 10
23.816
 20
37.3434
 11
23.6414
 21
37.8809
  0
LINE
  8
0
 10
23.6414
 20
37.8809
 11
23.5355
 21
38.436
  0
LINE
  8
0
 10
23.5355
 20
38.436
 11
23.5
 21
39
  0
LINE
  8
0
 10
23.5
 20
39
 11
23.5355
 21
39.564
  0
LINE
  8
0
 10
23.5355
 20
39.564
 11
23.6414
 21
40.1191
  0
LINE
  8
0
 10
23.6414
 20
40.1191
 11
23.816
 21
40.6566
  0
LINE
  8
0
 10
23.816
 20
40.6566
 11
24.0566
 21
41.1679
  0
LINE
  8
0
 10
24.0566
 20
41.1679
 11
24.3594
 21
41.645
  0
LINE
  8
0
 10
24.3594
 20
41.645
 11
24.7196
 21
42.0805
  0
LINE
  8
0
 10
24.7196
 20
42.0805
 11
25.1316
 21
42.4673
  0
LINE
  8
0
 10
25.1316
 20
42.4673
 11
25.5888
 21
42.7995
  0
LINE
  8
0
 10
25.5888
 20
42.7995
 11
26.084
 21
43.0717
  0
LINE
  8
0
 10
26.084
 20
43.0717
 11
26.6094
 21
43.2797
  0
LINE
  8
0
 10
26.6094
 20
43.2797
 11
27.1568
 21
43.4203
  0
LINE
  8
0
 10
27.1568
 20
43.4203
 11
27.7174
 21
43.4911
  0
LINE
  8
0
 10
27.7174
 20
43.4911
 11
28.2825
 21
43.4911
  0
LINE
  8
0
 10
28.2825
 20
43.4911
 11
28.8432
 21
43.4203
  0
LINE
  8
0
 10
28.8432
 20
43.4203
 11
29.3906
 21
43.2797
  0
LINE
  8
0
 10
29.3906
 20
43.2797
 11
29.916
 21
43.0717
  0
LINE
  8
0
 10
29.916
 20
43.0717
 11
30.4112
 21
42.7995
  0
LINE
  8
0
 10
30.4112
 20
42.7995
 11
30.8684
 21
42.4673
  0
LINE
  8
0
 10
30.8684
 20
42.4673
 11
31.2803
 21
42.0805
  0
LINE
  8
0
 10
31.2803
 20
42.0805
 11
31.6406
 21
41.645
  0
LINE
  8
0
 10
31.6406
 20
41.645
 11
31.9434
 21
41.1679
  0
LINE
  8
0
 10
31.9434
 20
41.1679
 11
32.184
 21
40.6566
  0
LINE
  8
0
 10
32.184
 20
40.6566
 11
32.3586
 21
40.1191
  0
LINE
  8
0
 10
32.3586
 20
40.1191
 11
32.4645
 21
39.564
  0
LINE
  8
0
 10
32.4645
 20
39.564
 11
32.5
 21
39
  0
LINE
  8
0
 10
32.5
 20
39
 11
32.4645
 21
38.436
  0
LINE
  8
0
 10
32.4645
 20
38.436
 11
32.3586
 21
37.8809
  0
LINE
  8
0
 10
32.3586
 20
37.8809
 11
32.184
 21
37.3434
  0
LINE
  8
0
 10
32.184
 20
37.3434
 11
31.9434
 21
36.8321
  0
LINE
  8
0
 10
31.9434
 20
36.8321
 11
31.6406
 21
36.355
  0
LINE
  8
0
 10
31.6406
 20
36.355
 11
31.2803
 21
35.9195
  0
LINE
  8
0
 10
31.2803
 20
35.9195
 11
30.8684
 21
35.5327
  0
LINE
  8
0
 10
30.8684
 20
35.5327
 11
30.4112
 21
35.2005
  0
LINE
  8
0
 10
30.4112
 20
35.2005
 11
29.916
 21
34.9283
  0
LINE
  8
0
 10
29.916
 20
34.9283
 11
29.3906
 21
34.7203
  0
LINE
  8
0
 10
29.3906
 20
34.7203
 11
28.8432
 21
34.5797
  0
LINE
  8
0
 10
28.8432
 20
34.5797
 11
28.2825
 21
34.5089
  0
LINE
  8
0
 10
28.2825
 20
34.5089
 11
27.7174
 21
34.5089
  0
LINE
  8
0
 10
-14.2825
 20
34.5089
 11
-14.8432
 21
34.5797
  0
LINE
  8
0
 10
-14.8432
 20
34.5797
 11
-15.3906
 21
34.7203
  0
LINE
  8
0
 10
-15.3906
 20
34.7203
 11
-15.916
 21
34.9283
  0
LINE
  8
0
 10
-15.916
 20
34.9283
 11
-16.4112
 21
35.2005
  0
LINE
  8
0
 10
-16.4112
 20
35.2005
 11
-16.8684
 21
35.5327
  0
LINE
  8
0
 10
-16.8684
 20
35.5327
 11
-17.2803
 21
35.9195
  0
LINE
  8
0
 10
-17.2803
 20
35.9195
 11
-17.6406
 21
36.355
  0
LINE
  8
0
 10
-17.6406
 20
36.355
 11
-17.9434
 21
36.8321
  0
LINE
  8
0
 10
-17.9434
 20
36.8321
 11
-18.184
 21
37.3434
  0
LINE
  8
0
 10
-18.184
 20
37.3434
 11
-18.3586
 21
37.8809
  0
LINE
  8
0
 10
-18.3586
 20
37.8809
 11
-18.4645
 21
38.436
  0
LINE
  8
0
 10
-18.4645
 20
38.436
 11
-18.5
 21
39
  0
LINE
  8
0
 10
-18.5
 20
39
 11
-18.4645
 21
39.564
  0
LINE
  8
0
 10
-18.4645
 20
39.564
 11
-18.3586
 21
40.1191
  0
LINE
  8
0
 10
-18.3586
 20
40.1191
 11
-18.184
 21
40.6566
  0
LINE
  8
0
 10
-18.184
 20
40.6566
 11
-17.9434
 21
41.1679
  0
LINE
  8
0
 10
-17.9434
 20
41.1679
 11
-17.6406
 21
41.645
  0
LINE
  8
0
 10
-17.6406
 20
41.645
 11
-17.2803
 21
42.0805
  0
LINE
  8
0
 10
-17.2803
 20
42.0805
 11
-16.8684
 21
42.4673
  0
LINE
  8
0
 10
-16.8684
 20
42.4673
 11
-16.4112
 21
42.7995
  0
LINE
  8
0
 10
-16.4112
 20
42.7995
 11
-15.916
 21
43.0717
  0
LINE
  8
0
 10
-15.916
 20
43.0717
 11
-15.3906
 21
43.2797
  0
LINE
  8
0
 10
-15.3906
 20
43.2797
 11
-14.8432
 21
43.4203
  0
LINE
  8
0
 10
-14.8432
 20
43.4203
 11
-14.2825
 21
43.4911
  0
LINE
  8
0
 10
-14.2825
 20
43.4911
 11
-13.7174
 21
43.4911
  0
LINE
  8
0
 10
-13.7174
 20
43.4911
 11
-13.1568
 21
43.4203
  0
LINE
  8
0
 10
-13.1568
 20
43.4203
 11
-12.6094
 21
43.2797
  0
LINE
  8
0
 10
-12.6094
 20
43.2797
 11
-12.084
 21
43.0717
  0
LINE
  8
0
 10
-12.084
 20
43.0717
 11
-11.5888
 21
42.7995
  0
LINE
  8
0
 10
-11.5888
 20
42.7995
 11
-11.1316
 21
42.4673
  0
LINE
  8
0
 10
-11.1316
 20
42.4673
 11
-10.7196
 21
42.0805
  0
LINE
  8
0
 10
-10.7196
 20
42.0805
 11
-10.3594
 21
41.645
  0
LINE
  8
0
 10
-10.3594
 20
41.645
 11
-10.0566
 21
41.1679
  0
LINE
  8
0
 10
-10.0566
 20
41.1679
 11
-9.81599
 21
40.6566
  0
LINE
  8
0
 10
-9.81599
 20
40.6566
 11
-9.64137
 21
40.1191
  0
LINE
  8
0
 10
-9.64137
 20
40.1191
 11
-9.53548
 21
39.564
  0
LINE
  8
0
 10
-9.53548
 20
39.564
 11
-9.5
 21
39
  0
LINE
  8
0
 10
-9.5
 20
39
 11
-9.53548
 21
38.436
  0
LINE
  8
0
 10
-9.53548
 20
38.436
 11
-9.64137
 21
37.8809
  0
LINE
  8
0
 10
-9.64137
 20
37.8809
 11
-9.81599
 21
37.3434
  0
LINE
  8
0
 10
-9.81599
 20
37.3434
 11
-10.0566
 21
36.8321
  0
LINE
  8
0
 10
-10.0566
 20
36.8321
 11
-10.3594
 21
36.355
  0
LINE
  8
0
 10
-10.3594
 20
36.355
 11
-10.7196
 21
35.9195
  0
LINE
  8
0
 10
-10.7196
 20
35.9195
 11
-11.1316
 21
35.5327
  0
LINE
  8
0
 10
-11.1316
 20
35.5327
 11
-11.5888
 21
35.2005
  0
LINE
  8
0
 10
-11.5888
 20
35.2005
 11
-12.084
 21
34.9283
  0
LINE
  8
0
 10
-12.084
 20
34.9283
 11
-12.6094
 21
34.7203
  0
LINE
  8
0
 10
-12.6094
 20
34.7203
 11
-13.1568
 21
34.5797
  0
LINE
  8
0
 10
-13.1568
 20
34.5797
 11
-13.7174
 21
34.5089
  0
LINE
  8
0
 10
-13.7174
 20
34.5089
 11
-14.2825
 21
34.5089
  0
LINE
  8
0
 10
-0.282547
 20
34.5089
 11
-0.843201
 21
34.5797
  0
LINE
  8
0
 10
-0.843201
 20
34.5797
 11
-1.39056
 21
34.7203
  0
LINE
  8
0
 10
-1.39056
 20
34.7203
 11
-1.916
 21
34.9283
  0
LINE
  8
0
 10
-1.916
 20
34.9283
 11
-2.41121
 21
35.2005
  0
LINE
  8
0
 10
-2.41121
 20
35.2005
 11
-2.86839
 21
35.5327
  0
LINE
  8
0
 10
-2.86839
 20
35.5327
 11
-3.28035
 21
35.9195
  0
LINE
  8
0
 10
-3.28035
 20
35.9195
 11
-3.64056
 21
36.355
  0
LINE
  8
0
 10
-3.64056
 20
36.355
 11
-3.94337
 21
36.8321
  0
LINE
  8
0
 10
-3.94337
 20
36.8321
 11
-4.18399
 21
37.3434
  0
LINE
  8
0
 10
-4.18399
 20
37.3434
 11
-4.35861
 21
37.8809
  0
LINE
  8
0
 10
-4.35861
 20
37.8809
 11
-4.46451
 21
38.436
  0
LINE
  8
0
 10
-4.46451
 20
38.436
 11
-4.5
 21
39
  0
LINE
  8
0
 10
-4.5
 20
39
 11
-4.46451
 21
39.564
  0
LINE
  8
0
 10
-4.46451
 20
39.564
 11
-4.35861
 21
40.1191
  0
LINE
  8
0
 10
-4.35861
 20
40.1191
 11
-4.18399
 21
40.6566
  0
LINE
  8
0
 10
-4.18399
 20
40.6566
 11
-3.94337
 21
41.1679
  0
LINE
  8
0
 10
-3.94337
 20
41.1679
 11
-3.64056
 21
41.645
  0
LINE
  8
0
 10
-3.64056
 20
41.645
 11
-3.28035
 21
42.0805
  0
LINE
  8
0
 10
-3.28035
 20
42.0805
 11
-2.86839
 21
42.4673
  0
LINE
  8
0
 10
-2.86839
 20
42.4673
 11
-2.41121
 21
42.7995
  0
LINE
  8
0
 10
-2.41121
 20
42.7995
 11
-1.916
 21
43.0717
  0
LINE
  8
0
 10
-1.916
 20
43.0717
 11
-1.39056
 21
43.2797
  0
LINE
  8
0
 10
-1.39056
 20
43.2797
 11
-0.843201
 21
43.4203
  0
LINE
  8
0
 10
-0.843201
 20
43.4203
 11
-0.282547
 21
43.4911
  0
LINE
  8
0
 10
-0.282547
 20
43.4911
 11
0.282547
 21
43.4911
  0
LINE
  8
0
 10
0.282547
 20
43.4911
 11
0.843201
 21
43.4203
  0
LINE
  8
0
 10
0.843201
 20
43.4203
 11
1.39056
 21
43.2797
  0
LINE
  8
0
 10
1.39056
 20
43.2797
 11
1.916
 21
43.0717
  0
LINE
  8
0
 10
1.916
 20
43.0717
 11
2.41121
 21
42.7995
  0
LINE
  8
0
 10
2.41121
 20
42.7995
 11
2.86839
 21
42.4673
  0
LINE
  8
0
 10
2.86839
 20
42.4673
 11
3.28035
 21
42.0805
  0
LINE
  8
0
 10
3.28035
 20
42.0805
 11
3.64056
 21
41.645
  0
LINE
  8
0
 10
3.64056
 20
41.645
 11
3.94337
 21
41.1679
  0
LINE
  8
0
 10
3.94337
 20
41.1679
 11
4.18399
 21
40.6566
  0
LINE
  8
0
 10
4.18399
 20
40.6566
 11
4.35861
 21
40.1191
  0
LINE
  8
0
 10
4.35861
 20
40.1191
 11
4.46451
 21
39.564
  0
LINE
  8
0
 10
4.46451
 20
39.564
 11
4.5
 21
39
  0
LINE
  8
0
 10
4.5
 20
39
 11
4.46451
 21
38.436
  0
LINE
  8
0
 10
4.46451
 20
38.436
 11
4.35861
 21
37.8809
  0
LINE
  8
0
 10
4.35861
 20
37.8809
 11
4.18399
 21
37.3434
  0
LINE
  8
0
 10
4.18399
 20
37.3434
 11
3.94337
 21
36.8321
  0
LINE
  8
0
 10
3.94337
 20
36.8321
 11
3.64056
 21
36.355
  0
LINE
  8
0
 10
3.64056
 20
36.355
 11
3.28035
 21
35.9195
  0
LINE
  8
0
 10
3.28035
 20
35.9195
 11
2.86839
 21
35.5327
  0
LINE
  8
0
 10
2.86839
 20
35.5327
 11
2.41121
 21
35.2005
  0
LINE
  8
0
 10
2.41121
 20
35.2005
 11
1.916
 21
34.9283
  0
LINE
  8
0
 10
1.916
 20
34.9283
 11
1.39056
 21
34.7203
  0
LINE
  8
0
 10
1.39056
 20
34.7203
 11
0.843201
 21
34.5797
  0
LINE
  8
0
 10
0.843201
 20
34.5797
 11
0.282547
 21
34.5089
  0
LINE
  8
0
 10
0.282547
 20
34.5089
 11
-0.282547
 21
34.5089
  0
LINE
  8
0
 10
13.7174
 20
34.5089
 11
13.1568
 21
34.5797
  0
LINE
  8
0
 10
13.1568
 20
34.5797
 11
12.6094
 21
34.7203
  0
LINE
  8
0
 10
12.6094
 20
34.7203
 11
12.084
 21
34.9283
  0
LINE
  8
0
 10
12.084
 20
34.9283
 11
11.5888
 21
35.2005
  0
LINE
  8
0
 10
11.5888
 20
35.2005
 11
11.1316
 21
35.5327
  0
LINE
  8
0
 10
11.1316
 20
35.5327
 11
10.7196
 21
35.9195
  0
LINE
  8
0
 10
10.7196
 20
35.9195
 11
10.3594
 21
36.355
  0
LINE
  8
0
 10
10.3594
 20
36.355
 11
10.0566
 21
36.8321
  0
LINE
  8
0
 10
10.0566
 20
36.8321
 11
9.81599
 21
37.3434
  0
LINE
  8
0
 10
9.81599
 20
37.3434
 11
9.64137
 21
37.8809
  0
LINE
  8
0
 10
9.64137
 20
37.8809
 11
9.53548
 21
38.436
  0
LINE
  8
0
 10
9.53548
 20
38.436
 11
9.5
 21
39
  0
LINE
  8
0
 10
9.5
 20
39
 11
9.53548
 21
39.564
  0
LINE
  8
0
 10
9.53548
 20
39.564
 11
9.64137
 21
40.1191
  0
LINE
  8
0
 10
9.64137
 20
40.1191
 11
9.81599
 21
40.6566
  0
LINE
  8
0
 10
9.81599
 20
40.6566
 11
10.0566
 21
41.1679
  0
LINE
  8
0
 10
10.0566
 20
41.1679
 11
10.3594
 21
41.645
  0
LINE
  8
0
 10
10.3594
 20
41.645
 11
10.7196
 21
42.0805
  0
LINE
  8
0
 10
10.7196
 20
42.0805
 11
11.1316
 21
42.4673
  0
LINE
  8
0
 10
11.1316
 20
42.4673
 11
11.5888
 21
42.7995
  0
LINE
  8
0
 10
11.5888
 20
42.7995
 11
12.084
 21
43.0717
  0
LINE
  8
0
 10
12.084
 20
43.0717
 11
12.6094
 21
43.2797
  0
LINE
  8
0
 10
12.6094
 20
43.2797
 11
13.1568
 21
43.4203
  0
LINE
  8
0
 10
13.1568
 20
43.4203
 11
13.7174
 21
43.4911
  0
LINE
  8
0
 10
13.7174
 20
43.4911
 11
14.2825
 21
43.4911
  0
LINE
  8
0
 10
14.2825
 20
43.4911
 11
14.8432
 21
43.4203
  0
LINE
  8
0
 10
14.8432
 20
43.4203
 11
15.3906
 21
43.2797
  0
LINE
  8
0
 10
15.3906
 20
43.2797
 11
15.916
 21
43.0717
  0
LINE
  8
0
 10
15.916
 20
43.0717
 11
16.4112
 21
42.7995
  0
LINE
  8
0
 10
16.4112
 20
42.7995
 11
16.8684
 21
42.4673
  0
LINE
  8
0
 10
16.8684
 20
42.4673
 11
17.2803
 21
42.0805
  0
LINE
  8
0
 10
17.2803
 20
42.0805
 11
17.6406
 21
41.645
  0
LINE
  8
0
 10
17.6406
 20
41.645
 11
17.9434
 21
41.1679
  0
LINE
  8
0
 10
17.9434
 20
41.1679
 11
18.184
 21
40.6566
  0
LINE
  8
0
 10
18.184
 20
40.6566
 11
18.3586
 21
40.1191
  0
LINE
  8
0
 10
18.3586
 20
40.1191
 11
18.4645
 21
39.564
  0
LINE
  8
0
 10
18.4645
 20
39.564
 11
18.5
 21
39
  0
LINE
  8
0
 10
18.5
 20
39
 11
18.4645
 21
38.436
  0
LINE
  8
0
 10
18.4645
 20
38.436
 11
18.3586
 21
37.8809
  0
LINE
  8
0
 10
18.3586
 20
37.8809
 11
18.184
 21
37.3434
  0
LINE
  8
0
 10
18.184
 20
37.3434
 11
17.9434
 21
36.8321
  0
LINE
  8
0
 10
17.9434
 20
36.8321
 11
17.6406
 21
36.355
  0
LINE
  8
0
 10
17.6406
 20
36.355
 11
17.2803
 21
35.9195
  0
LINE
  8
0
 10
17.2803
 20
35.9195
 11
16.8684
 21
35.5327
  0
LINE
  8
0
 10
16.8684
 20
35.5327
 11
16.4112
 21
35.2005
  0
LINE
  8
0
 10
16.4112
 20
35.2005
 11
15.916
 21
34.9283
  0
LINE
  8
0
 10
15.916
 20
34.9283
 11
15.3906
 21
34.7203
  0
LINE
  8
0
 10
15.3906
 20
34.7203
 11
14.8432
 21
34.5797
  0
LINE
  8
0
 10
14.8432
 20
34.5797
 11
14.2825
 21
34.5089
  0
LINE
  8
0
 10
14.2825
 20
34.5089
 11
13.7174
 21
34.5089
  0
LINE
  8
0
 10
-28.2825
 20
34.5089
 11
-28.8432
 21
34.5797
  0
LINE
  8
0
 10
-28.8432
 20
34.5797
 11
-29.3906
 21
34.7203
  0
LINE
  8
0
 10
-29.3906
 20
34.7203
 11
-29.916
 21
34.9283
  0
LINE
  8
0
 10
-29.916
 20
34.9283
 11
-30.4112
 21
35.2005
  0
LINE
  8
0
 10
-30.4112
 20
35.2005
 11
-30.8684
 21
35.5327
  0
LINE
  8
0
 10
-30.8684
 20
35.5327
 11
-31.2803
 21
35.9195
  0
LINE
  8
0
 10
-31.2803
 20
35.9195
 11
-31.6406
 21
36.355
  0
LINE
  8
0
 10
-31.6406
 20
36.355
 11
-31.9434
 21
36.8321
  0
LINE
  8
0
 10
-31.9434
 20
36.8321
 11
-32.184
 21
37.3434
  0
LINE
  8
0
 10
-32.184
 20
37.3434
 11
-32.3586
 21
37.8809
  0
LINE
  8
0
 10
-32.3586
 20
37.8809
 11
-32.4645
 21
38.436
  0
LINE
  8
0
 10
-32.4645
 20
38.436
 11
-32.5
 21
39
  0
LINE
  8
0
 10
-32.5
 20
39
 11
-32.4645
 21
39.564
  0
LINE
  8
0
 10
-32.4645
 20
39.564
 11
-32.3586
 21
40.1191
  0
LINE
  8
0
 10
-32.3586
 20
40.1191
 11
-32.184
 21
40.6566
  0
LINE
  8
0
 10
-32.184
 20
40.6566
 11
-31.9434
 21
41.1679
  0
LINE
  8
0
 10
-31.9434
 20
41.1679
 11
-31.6406
 21
41.645
  0
LINE
  8
0
 10
-31.6406
 20
41.645
 11
-31.2803
 21
42.0805
  0
LINE
  8
0
 10
-31.2803
 20
42.0805
 11
-30.8684
 21
42.4673
  0
LINE
  8
0
 10
-30.8684
 20
42.4673
 11
-30.4112
 21
42.7995
  0
LINE
  8
0
 10
-30.4112
 20
42.7995
 11
-29.916
 21
43.0717
  0
LINE
  8
0
 10
-29.916
 20
43.0717
 11
-29.3906
 21
43.2797
  0
LINE
  8
0
 10
-29.3906
 20
43.2797
 11
-28.8432
 21
43.4203
  0
LINE
  8
0
 10
-28.8432
 20
43.4203
 11
-28.2825
 21
43.4911
  0
LINE
  8
0
 10
-28.2825
 20
43.4911
 11
-27.7174
 21
43.4911
  0
LINE
  8
0
 10
-27.7174
 20
43.4911
 11
-27.1568
 21
43.4203
  0
LINE
  8
0
 10
-27.1568
 20
43.4203
 11
-26.6094
 21
43.2797
  0
LINE
  8
0
 10
-26.6094
 20
43.2797
 11
-26.084
 21
43.0717
  0
LINE
  8
0
 10
-26.084
 20
43.0717
 11
-25.5888
 21
42.7995
  0
LINE
  8
0
 10
-25.5888
 20
42.7995
 11
-25.1316
 21
42.4673
  0
LINE
  8
0
 10
-25.1316
 20
42.4673
 11
-24.7196
 21
42.0805
  0
LINE
  8
0
 10
-24.7196
 20
42.0805
 11
-24.3594
 21
41.645
  0
LINE
  8
0
 10
-24.3594
 20
41.645
 11
-24.0566
 21
41.1679
  0
LINE
  8
0
 10
-24.0566
 20
41.1679
 11
-23.816
 21
40.6566
  0
LINE
  8
0
 10
-23.816
 20
40.6566
 11
-23.6414
 21
40.1191
  0
LINE
  8
0
 10
-23.6414
 20
40.1191
 11
-23.5355
 21
39.564
  0
LINE
  8
0
 10
-23.5355
 20
39.564
 11
-23.5
 21
39
  0
LINE
  8
0
 10
-23.5
 20
39
 11
-23.5355
 21
38.436
  0
LINE
  8
0
 10
-23.5355
 20
38.436
 11
-23.6414
 21
37.8809
  0
LINE
  8
0
 10
-23.6414
 20
37.8809
 11
-23.816
 21
37.3434
  0
LINE
  8
0
 10
-23.816
 20
37.3434
 11
-24.0566
 21
36.8321
  0
LINE
  8
0
 10
-24.0566
 20
36.8321
 11
-24.3594
 21
36.355
  0
LINE
  8
0
 10
-24.3594
 20
36.355
 11
-24.7196
 21
35.9195
  0
LINE
  8
0
 10
-24.7196
 20
35.9195
 11
-25.1316
 21
35.5327
  0
LINE
  8
0
 10
-25.1316
 20
35.5327
 11
-25.5888
 21
35.2005
  0
LINE
  8
0
 10
-25.5888
 20
35.2005
 11
-26.084
 21
34.9283
  0
LINE
  8
0
 10
-26.084
 20
34.9283
 11
-26.6094
 21
34.7203
  0
LINE
  8
0
 10
-26.6094
 20
34.7203
 11
-27.1568
 21
34.5797
  0
LINE
  8
0
 10
-27.1568
 20
34.5797
 11
-27.7174
 21
34.5089
  0
LINE
  8
0
 10
-27.7174
 20
34.5089
 11
-28.2825
 21
34.5089
  0
LINE
  8
0
 10
-30.1884
 20
28.5059
 11
-30.5621
 21
28.5531
  0
LINE
  8
0
 10
-30.5621
 20
28.5531
 11
-30.927
 21
28.6468
  0
LINE
  8
0
 10
-30.927
 20
28.6468
 11
-31.2773
 21
28.7855
  0
LINE
  8
0
 10
-31.2773
 20
28.7855
 11
-31.6075
 21
28.967
  0
LINE
  8
0
 10
-31.6075
 20
28.967
 11
-31.9123
 21
29.1885
  0
LINE
  8
0
 10
-31.9123
 20
29.1885
 11
-32.1869
 21
29.4464
  0
LINE
  8
0
 10
-32.1869
 20
29.4464
 11
-32.427
 21
29.7366
  0
LINE
  8
0
 10
-32.427
 20
29.7366
 11
-32.6289
 21
30.0547
  0
LINE
  8
0
 10
-32.6289
 20
30.0547
 11
-32.7893
 21
30.3956
  0
LINE
  8
0
 10
-32.7893
 20
30.3956
 11
-32.9057
 21
30.7539
  0
LINE
  8
0
 10
-32.9057
 20
30.7539
 11
-32.9763
 21
31.124
  0
LINE
  8
0
 10
-32.9763
 20
31.124
 11
-33
 21
31.5
  0
LINE
  8
0
 10
-33
 20
31.5
 11
-32.9763
 21
31.876
  0
LINE
  8
0
 10
-32.9763
 20
31.876
 11
-32.9057
 21
32.2461
  0
LINE
  8
0
 10
-32.9057
 20
32.2461
 11
-32.7893
 21
32.6044
  0
LINE
  8
0
 10
-32.7893
 20
32.6044
 11
-32.6289
 21
32.9453
  0
LINE
  8
0
 10
-32.6289
 20
32.9453
 11
-32.427
 21
33.2634
  0
LINE
  8
0
 10
-32.427
 20
33.2634
 11
-32.1869
 21
33.5536
  0
LINE
  8
0
 10
-32.1869
 20
33.5536
 11
-31.9123
 21
33.8116
  0
LINE
  8
0
 10
-31.9123
 20
33.8116
 11
-31.6075
 21
34.033
  0
LINE
  8
0
 10
-31.6075
 20
34.033
 11
-31.2773
 21
34.2145
  0
LINE
  8
0
 10
-31.2773
 20
34.2145
 11
-30.927
 21
34.3532
  0
LINE
  8
0
 10
-30.927
 20
34.3532
 11
-30.5621
 21
34.4469
  0
LINE
  8
0
 10
-30.5621
 20
34.4469
 11
-30.1884
 21
34.4941
  0
LINE
  8
0
 10
-30.1884
 20
34.4941
 11
-29.8116
 21
34.4941
  0
LINE
  8
0
 10
-29.8116
 20
34.4941
 11
-29.4379
 21
34.4469
  0
LINE
  8
0
 10
-29.4379
 20
34.4469
 11
-29.0729
 21
34.3532
  0
LINE
  8
0
 10
-29.0729
 20
34.3532
 11
-28.7227
 21
34.2145
  0
LINE
  8
0
 10
-28.7227
 20
34.2145
 11
-28.3925
 21
34.033
  0
LINE
  8
0
 10
-28.3925
 20
34.033
 11
-28.0877
 21
33.8116
  0
LINE
  8
0
 10
-28.0877
 20
33.8116
 11
-27.8131
 21
33.5536
  0
LINE
  8
0
 10
-27.8131
 20
33.5536
 11
-27.5729
 21
33.2634
  0
LINE
  8
0
 10
-27.5729
 20
33.2634
 11
-27.3711
 21
32.9453
  0
LINE
  8
0
 10
-27.3711
 20
32.9453
 11
-27.2107
 21
32.6044
  0
LINE
  8
0
 10
-27.2107
 20
32.6044
 11
-27.0942
 21
32.2461
  0
LINE
  8
0
 10
-27.0942
 20
32.2461
 11
-27.0237
 21
31.876
  0
LINE
  8
0
 10
-27.0237
 20
31.876
 11
-27
 21
31.5
  0
LINE
  8
0
 10
-27
 20
31.5
 11
-27.0237
 21
31.124
  0
LINE
  8
0
 10
-27.0237
 20
31.124
 11
-27.0942
 21
30.7539
  0
LINE
  8
0
 10
-27.0942
 20
30.7539
 11
-27.2107
 21
30.3956
  0
LINE
  8
0
 10
-27.2107
 20
30.3956
 11
-27.3711
 21
30.0547
  0
LINE
  8
0
 10
-27.3711
 20
30.0547
 11
-27.5729
 21
29.7366
  0
LINE
  8
0
 10
-27.5729
 20
29.7366
 11
-27.8131
 21
29.4464
  0
LINE
  8
0
 10
-27.8131
 20
29.4464
 11
-28.0877
 21
29.1885
  0
LINE
  8
0
 10
-28.0877
 20
29.1885
 11
-28.3925
 21
28.967
  0
LINE
  8
0
 10
-28.3925
 20
28.967
 11
-28.7227
 21
28.7855
  0
LINE
  8
0
 10
-28.7227
 20
28.7855
 11
-29.0729
 21
28.6468
  0
LINE
  8
0
 10
-29.0729
 20
28.6468
 11
-29.4379
 21
28.5531
  0
LINE
  8
0
 10
-29.4379
 20
28.5531
 11
-29.8116
 21
28.5059
  0
LINE
  8
0
 10
-29.8116
 20
28.5059
 11
-30.1884
 21
28.5059
  0
LINE
  8
0
 10
29.8116
 20
28.5059
 11
29.4379
 21
28.5531
  0
LINE
  8
0
 10
29.4379
 20
28.5531
 11
29.0729
 21
28.6468
  0
LINE
  8
0
 10
29.0729
 20
28.6468
 11
28.7227
 21
28.7855
  0
LINE
  8
0
 10
28.7227
 20
28.7855
 11
28.3925
 21
28.967
  0
LINE
  8
0
 10
28.3925
 20
28.967
 11
28.0877
 21
29.1885
  0
LINE
  8
0
 10
28.0877
 20
29.1885
 11
27.8131
 21
29.4464
  0
LINE
  8
0
 10
27.8131
 20
29.4464
 11
27.5729
 21
29.7366
  0
LINE
  8
0
 10
27.5729
 20
29.7366
 11
27.3711
 21
30.0547
  0
LINE
  8
0
 10
27.3711
 20
30.0547
 11
27.2107
 21
30.3956
  0
LINE
  8
0
 10
27.2107
 20
30.3956
 11
27.0942
 21
30.7539
  0
LINE
  8
0
 10
27.0942
 20
30.7539
 11
27.0237
 21
31.124
  0
LINE
  8
0
 10
27.0237
 20
31.124
 11
27
 21
31.5
  0
LINE
  8
0
 10
27
 20
31.5
 11
27.0237
 21
31.876
  0
LINE
  8
0
 10
27.0237
 20
31.876
 11
27.0942
 21
32.2461
  0
LINE
  8
0
 10
27.0942
 20
32.2461
 11
27.2107
 21
32.6044
  0
LINE
  8
0
 10
27.2107
 20
32.6044
 11
27.3711
 21
32.9453
  0
LINE
  8
0
 10
27.3711
 20
32.9453
 11
27.5729
 21
33.2634
  0
LINE
  8
0
 10
27.5729
 20
33.2634
 11
27.8131
 21
33.5536
  0
LINE
  8
0
 10
27.8131
 20
33.5536
 11
28.0877
 21
33.8116
  0
LINE
  8
0
 10
28.0877
 20
33.8116
 11
28.3925
 21
34.033
  0
LINE
  8
0
 10
28.3925
 20
34.033
 11
28.7227
 21
34.2145
  0
LINE
  8
0
 10
28.7227
 20
34.2145
 11
29.0729
 21
34.3532
  0
LINE
  8
0
 10
29.0729
 20
34.3532
 11
29.4379
 21
34.4469
  0
LINE
  8
0
 10
29.4379
 20
34.4469
 11
29.8116
 21
34.4941
  0
LINE
  8
0
 10
29.8116
 20
34.4941
 11
30.1884
 21
34.4941
  0
LINE
  8
0
 10
30.1884
 20
34.4941
 11
30.5621
 21
34.4469
  0
LINE
  8
0
 10
30.5621
 20
34.4469
 11
30.927
 21
34.3532
  0
LINE
  8
0
 10
30.927
 20
34.3532
 11
31.2773
 21
34.2145
  0
LINE
  8
0
 10
31.2773
 20
34.2145
 11
31.6075
 21
34.033
  0
LINE
  8
0
 10
31.6075
 20
34.033
 11
31.9123
 21
33.8116
  0
LINE
  8
0
 10
31.9123
 20
33.8116
 11
32.1869
 21
33.5536
  0
LINE
  8
0
 10
32.1869
 20
33.5536
 11
32.427
 21
33.2634
  0
LINE
  8
0
 10
32.427
 20
33.2634
 11
32.6289
 21
32.9453
  0
LINE
  8
0
 10
32.6289
 20
32.9453
 11
32.7893
 21
32.6044
  0
LINE
  8
0
 10
32.7893
 20
32.6044
 11
32.9057
 21
32.2461
  0
LINE
  8
0
 10
32.9057
 20
32.2461
 11
32.9763
 21
31.876
  0
LINE
  8
0
 10
32.9763
 20
31.876
 11
33
 21
31.5
  0
LINE
  8
0
 10
33
 20
31.5
 11
32.9763
 21
31.124
  0
LINE
  8
0
 10
32.9763
 20
31.124
 11
32.9057
 21
30.7539
  0
LINE
  8
0
 10
32.9057
 20
30.7539
 11
32.7893
 21
30.3956
  0
LINE
  8
0
 10
32.7893
 20
30.3956
 11
32.6289
 21
30.0547
  0
LINE
  8
0
 10
32.6289
 20
30.0547
 11
32.427
 21
29.7366
  0
LINE
  8
0
 10
32.427
 20
29.7366
 11
32.1869
 21
29.4464
  0
LINE
  8
0
 10
32.1869
 20
29.4464
 11
31.9123
 21
29.1885
  0
LINE
  8
0
 10
31.9123
 20
29.1885
 11
31.6075
 21
28.967
  0
LINE
  8
0
 10
31.6075
 20
28.967
 11
31.2773
 21
28.7855
  0
LINE
  8
0
 10
31.2773
 20
28.7855
 11
30.927
 21
28.6468
  0
LINE
  8
0
 10
30.927
 20
28.6468
 11
30.5621
 21
28.5531
  0
LINE
  8
0
 10
30.5621
 20
28.5531
 11
30.1884
 21
28.5059
  0
LINE
  8
0
 10
30.1884
 20
28.5059
 11
29.8116
 21
28.5059
  0
ENDSEC
  0
SECTION
  2
OBJECTS
  0
DICTIONARY
  0
ENDSEC
  0
EOF
