  0
SECTION
  2
BLOCKS
  0
ENDSEC
  0
SECTION
  2
ENTITIES
  0
LINE
  8
0
 10
32.9369
 20
24.5886
 11
33.5451
 21
24.7447
  0
LINE
  8
0
 10
33.5451
 20
24.7447
 11
34.1289
 21
24.9759
  0
LINE
  8
0
 10
34.1289
 20
24.9759
 11
34.6791
 21
25.2784
  0
LINE
  8
0
 10
34.6791
 20
25.2784
 11
35.1871
 21
25.6474
  0
LINE
  8
0
 10
35.1871
 20
25.6474
 11
35.6448
 21
26.0773
  0
LINE
  8
0
 10
35.6448
 20
26.0773
 11
36.0451
 21
26.5611
  0
LINE
  8
0
 10
36.0451
 20
26.5611
 11
36.3815
 21
27.0912
  0
LINE
  8
0
 10
36.3815
 20
27.0912
 11
36.6489
 21
27.6594
  0
LINE
  8
0
 10
36.6489
 20
27.6594
 11
36.8429
 21
28.2566
  0
LINE
  8
0
 10
36.8429
 20
28.2566
 11
36.9606
 21
28.8733
  0
LINE
  8
0
 10
36.9606
 20
28.8733
 11
37
 21
29.5
  0
LINE
  8
0
 10
37
 20
29.5
 11
37
 21
48.5
  0
LINE
  8
0
 10
37
 20
48.5
 11
36.9606
 21
49.1267
  0
LINE
  8
0
 10
36.9606
 20
49.1267
 11
36.8429
 21
49.7434
  0
LINE
  8
0
 10
36.8429
 20
49.7434
 11
36.6489
 21
50.3406
  0
LINE
  8
0
 10
36.6489
 20
50.3406
 11
36.3815
 21
50.9088
  0
LINE
  8
0
 10
36.3815
 20
50.9088
 11
36.0451
 21
51.4389
  0
LINE
  8
0
 10
36.0451
 20
51.4389
 11
35.6448
 21
51.9227
  0
LINE
  8
0
 10
35.6448
 20
51.9227
 11
35.1871
 21
52.3526
  0
LINE
  8
0
 10
35.1871
 20
52.3526
 11
34.6791
 21
52.7216
  0
LINE
  8
0
 10
34.6791
 20
52.7216
 11
34.1289
 21
53.0241
  0
LINE
  8
0
 10
34.1289
 20
53.0241
 11
33.5451
 21
53.2553
  0
LINE
  8
0
 10
33.5451
 20
53.2553
 11
32.9369
 21
53.4114
  0
LINE
  8
0
 10
32.9369
 20
53.4114
 11
32.3139
 21
53.4901
  0
LINE
  8
0
 10
32.3139
 20
53.4901
 11
-32.3139
 21
53.4901
  0
LINE
  8
0
 10
-32.3139
 20
53.4901
 11
-32.9369
 21
53.4114
  0
LINE
  8
0
 10
-32.9369
 20
53.4114
 11
-33.5451
 21
53.2553
  0
LINE
  8
0
 10
-33.5451
 20
53.2553
 11
-34.1289
 21
53.0241
  0
LINE
  8
0
 10
-34.1289
 20
53.0241
 11
-34.6791
 21
52.7216
  0
LINE
  8
0
 10
-34.6791
 20
52.7216
 11
-35.1871
 21
52.3526
  0
LINE
  8
0
 10
-35.1871
 20
52.3526
 11
-35.6448
 21
51.9227
  0
LINE
  8
0
 10
-35.6448
 20
51.9227
 11
-36.0451
 21
51.4389
  0
LINE
  8
0
 10
-36.0451
 20
51.4389
 11
-36.3815
 21
50.9088
  0
LINE
  8
0
 10
-36.3815
 20
50.9088
 11
-36.6489
 21
50.3406
  0
LINE
  8
0
 10
-36.6489
 20
50.3406
 11
-36.8429
 21
49.7434
  0
LINE
  8
0
 10
-36.8429
 20
49.7434
 11
-36.9606
 21
49.1267
  0
LINE
  8
0
 10
-36.9606
 20
49.1267
 11
-37
 21
48.5
  0
LINE
  8
0
 10
-37
 20
48.5
 11
-37
 21
29.5
  0
LINE
  8
0
 10
-37
 20
29.5
 11
-36.9606
 21
28.8733
  0
LINE
  8
0
 10
-36.9606
 20
28.8733
 11
-36.8429
 21
28.2566
  0
LINE
  8
0
 10
-36.8429
 20
28.2566
 11
-36.6489
 21
27.6594
  0
LINE
  8
0
 10
-36.6489
 20
27.6594
 11
-36.3815
 21
27.0912
  0
LINE
  8
0
 10
-36.3815
 20
27.0912
 11
-36.0451
 21
26.5611
  0
LINE
  8
0
 10
-36.0451
 20
26.5611
 11
-35.6448
 21
26.0773
  0
LINE
  8
0
 10
-35.6448
 20
26.0773
 11
-35.1871
 21
25.6474
  0
LINE
  8
0
 10
-35.1871
 20
25.6474
 11
-34.6791
 21
25.2784
  0
LINE
  8
0
 10
-34.6791
 20
25.2784
 11
-34.1289
 21
24.9759
  0
LINE
  8
0
 10
-34.1289
 20
24.9759
 11
-33.5451
 21
24.7447
  0
LINE
  8
0
 10
-33.5451
 20
24.7447
 11
-32.9369
 21
24.5886
  0
LINE
  8
0
 10
-32.9369
 20
24.5886
 11
-32.3139
 21
24.5099
  0
LINE
  8
0
 10
-32.3139
 20
24.5099
 11
32.3139
 21
24.5099
  0
LINE
  8
0
 10
32.3139
 20
24.5099
 11
32.9369
 21
24.5886
  0
LINE
  8
0
 10
12.8093
 20
28.0217
 11
11.4388
 21
28.1949
  0
LINE
  8
0
 10
11.4388
 20
28.1949
 11
10.1008
 21
28.5384
  0
LINE
  8
0
 10
10.1008
 20
28.5384
 11
8.81642
 21
29.0469
  0
LINE
  8
0
 10
8.81642
 20
29.0469
 11
7.6059
 21
29.7124
  0
LINE
  8
0
 10
7.6059
 20
29.7124
 11
6.48833
 21
30.5244
  0
LINE
  8
0
 10
6.48833
 20
30.5244
 11
5.48134
 21
31.47
  0
LINE
  8
0
 10
5.48134
 20
31.47
 11
4.6008
 21
32.5344
  0
LINE
  8
0
 10
4.6008
 20
32.5344
 11
3.86063
 21
33.7007
  0
LINE
  8
0
 10
3.86063
 20
33.7007
 11
3.27245
 21
34.9506
  0
LINE
  8
0
 10
3.27245
 20
34.9506
 11
2.84558
 21
36.2644
  0
LINE
  8
0
 10
2.84558
 20
36.2644
 11
2.58673
 21
37.6213
  0
LINE
  8
0
 10
2.58673
 20
37.6213
 11
2.5
 21
39
  0
LINE
  8
0
 10
2.5
 20
39
 11
2.58673
 21
40.3787
  0
LINE
  8
0
 10
2.58673
 20
40.3787
 11
2.84558
 21
41.7356
  0
LINE
  8
0
 10
2.84558
 20
41.7356
 11
3.27245
 21
43.0494
  0
LINE
  8
0
 10
3.27245
 20
43.0494
 11
3.86063
 21
44.2993
  0
LINE
  8
0
 10
3.86063
 20
44.2993
 11
4.6008
 21
45.4656
  0
LINE
  8
0
 10
4.6008
 20
45.4656
 11
5.48134
 21
46.53
  0
LINE
  8
0
 10
5.48134
 20
46.53
 11
6.48833
 21
47.4756
  0
LINE
  8
0
 10
6.48833
 20
47.4756
 11
7.6059
 21
48.2876
  0
LINE
  8
0
 10
7.6059
 20
48.2876
 11
8.81642
 21
48.9531
  0
LINE
  8
0
 10
8.81642
 20
48.9531
 11
10.1008
 21
49.4616
  0
LINE
  8
0
 10
10.1008
 20
49.4616
 11
11.4388
 21
49.8051
  0
LINE
  8
0
 10
11.4388
 20
49.8051
 11
12.8093
 21
49.9783
  0
LINE
  8
0
 10
12.8093
 20
49.9783
 11
14.1907
 21
49.9783
  0
LINE
  8
0
 10
14.1907
 20
49.9783
 11
15.5612
 21
49.8051
  0
LINE
  8
0
 10
15.5612
 20
49.8051
 11
16.8992
 21
49.4616
  0
LINE
  8
0
 10
16.8992
 20
49.4616
 11
18.1836
 21
48.9531
  0
LINE
  8
0
 10
18.1836
 20
48.9531
 11
19.3941
 21
48.2876
  0
LINE
  8
0
 10
19.3941
 20
48.2876
 11
20.5117
 21
47.4756
  0
LINE
  8
0
 10
20.5117
 20
47.4756
 11
21.5186
 21
46.53
  0
LINE
  8
0
 10
21.5186
 20
46.53
 11
22.3992
 21
45.4656
  0
LINE
  8
0
 10
22.3992
 20
45.4656
 11
23.1394
 21
44.2993
  0
LINE
  8
0
 10
23.1394
 20
44.2993
 11
23.7275
 21
43.0494
  0
LINE
  8
0
 10
23.7275
 20
43.0494
 11
24.1544
 21
41.7356
  0
LINE
  8
0
 10
24.1544
 20
41.7356
 11
24.4133
 21
40.3787
  0
LINE
  8
0
 10
24.4133
 20
40.3787
 11
24.5
 21
39
  0
LINE
  8
0
 10
24.5
 20
39
 11
24.4133
 21
37.6213
  0
LINE
  8
0
 10
24.4133
 20
37.6213
 11
24.1544
 21
36.2644
  0
LINE
  8
0
 10
24.1544
 20
36.2644
 11
23.7275
 21
34.9506
  0
LINE
  8
0
 10
23.7275
 20
34.9506
 11
23.1394
 21
33.7007
  0
LINE
  8
0
 10
23.1394
 20
33.7007
 11
22.3992
 21
32.5344
  0
LINE
  8
0
 10
22.3992
 20
32.5344
 11
21.5186
 21
31.47
  0
LINE
  8
0
 10
21.5186
 20
31.47
 11
20.5117
 21
30.5244
  0
LINE
  8
0
 10
20.5117
 20
30.5244
 11
19.3941
 21
29.7124
  0
LINE
  8
0
 10
19.3941
 20
29.7124
 11
18.1836
 21
29.0469
  0
LINE
  8
0
 10
18.1836
 20
29.0469
 11
16.8992
 21
28.5384
  0
LINE
  8
0
 10
16.8992
 20
28.5384
 11
15.5612
 21
28.1949
  0
LINE
  8
0
 10
15.5612
 20
28.1949
 11
14.1907
 21
28.0217
  0
LINE
  8
0
 10
14.1907
 20
28.0217
 11
12.8093
 21
28.0217
  0
LINE
  8
0
 10
-14.1907
 20
28.0217
 11
-15.5612
 21
28.1949
  0
LINE
  8
0
 10
-15.5612
 20
28.1949
 11
-16.8992
 21
28.5384
  0
LINE
  8
0
 10
-16.8992
 20
28.5384
 11
-18.1836
 21
29.0469
  0
LINE
  8
0
 10
-18.1836
 20
29.0469
 11
-19.3941
 21
29.7124
  0
LINE
  8
0
 10
-19.3941
 20
29.7124
 11
-20.5117
 21
30.5244
  0
LINE
  8
0
 10
-20.5117
 20
30.5244
 11
-21.5186
 21
31.47
  0
LINE
  8
0
 10
-21.5186
 20
31.47
 11
-22.3992
 21
32.5344
  0
LINE
  8
0
 10
-22.3992
 20
32.5344
 11
-23.1394
 21
33.7007
  0
LINE
  8
0
 10
-23.1394
 20
33.7007
 11
-23.7275
 21
34.9506
  0
LINE
  8
0
 10
-23.7275
 20
34.9506
 11
-24.1544
 21
36.2644
  0
LINE
  8
0
 10
-24.1544
 20
36.2644
 11
-24.4133
 21
37.6213
  0
LINE
  8
0
 10
-24.4133
 20
37.6213
 11
-24.5
 21
39
  0
LINE
  8
0
 10
-24.5
 20
39
 11
-24.4133
 21
40.3787
  0
LINE
  8
0
 10
-24.4133
 20
40.3787
 11
-24.1544
 21
41.7356
  0
LINE
  8
0
 10
-24.1544
 20
41.7356
 11
-23.7275
 21
43.0494
  0
LINE
  8
0
 10
-23.7275
 20
43.0494
 11
-23.1394
 21
44.2993
  0
LINE
  8
0
 10
-23.1394
 20
44.2993
 11
-22.3992
 21
45.4656
  0
LINE
  8
0
 10
-22.3992
 20
45.4656
 11
-21.5186
 21
46.53
  0
LINE
  8
0
 10
-21.5186
 20
46.53
 11
-20.5117
 21
47.4756
  0
LINE
  8
0
 10
-20.5117
 20
47.4756
 11
-19.3941
 21
48.2876
  0
LINE
  8
0
 10
-19.3941
 20
48.2876
 11
-18.1836
 21
48.9531
  0
LINE
  8
0
 10
-18.1836
 20
48.9531
 11
-16.8992
 21
49.4616
  0
LINE
  8
0
 10
-16.8992
 20
49.4616
 11
-15.5612
 21
49.8051
  0
LINE
  8
0
 10
-15.5612
 20
49.8051
 11
-14.1907
 21
49.9783
  0
LINE
  8
0
 10
-14.1907
 20
49.9783
 11
-12.8093
 21
49.9783
  0
LINE
  8
0
 10
-12.8093
 20
49.9783
 11
-11.4388
 21
49.8051
  0
LINE
  8
0
 10
-11.4388
 20
49.8051
 11
-10.1008
 21
49.4616
  0
LINE
  8
0
 10
-10.1008
 20
49.4616
 11
-8.81642
 21
48.9531
  0
LINE
  8
0
 10
-8.81642
 20
48.9531
 11
-7.6059
 21
48.2876
  0
LINE
  8
0
 10
-7.6059
 20
48.2876
 11
-6.48833
 21
47.4756
  0
LINE
  8
0
 10
-6.48833
 20
47.4756
 11
-5.48134
 21
46.53
  0
LINE
  8
0
 10
-5.48134
 20
46.53
 11
-4.6008
 21
45.4656
  0
LINE
  8
0
 10
-4.6008
 20
45.4656
 11
-3.86063
 21
44.2993
  0
LINE
  8
0
 10
-3.86063
 20
44.2993
 11
-3.27245
 21
43.0494
  0
LINE
  8
0
 10
-3.27245
 20
43.0494
 11
-2.84558
 21
41.7356
  0
LINE
  8
0
 10
-2.84558
 20
41.7356
 11
-2.58673
 21
40.3787
  0
LINE
  8
0
 10
-2.58673
 20
40.3787
 11
-2.5
 21
39
  0
LINE
  8
0
 10
-2.5
 20
39
 11
-2.58673
 21
37.6213
  0
LINE
  8
0
 10
-2.58673
 20
37.6213
 11
-2.84558
 21
36.2644
  0
LINE
  8
0
 10
-2.84558
 20
36.2644
 11
-3.27245
 21
34.9506
  0
LINE
  8
0
 10
-3.27245
 20
34.9506
 11
-3.86063
 21
33.7007
  0
LINE
  8
0
 10
-3.86063
 20
33.7007
 11
-4.6008
 21
32.5344
  0
LINE
  8
0
 10
-4.6008
 20
32.5344
 11
-5.48134
 21
31.47
  0
LINE
  8
0
 10
-5.48134
 20
31.47
 11
-6.48833
 21
30.5244
  0
LINE
  8
0
 10
-6.48833
 20
30.5244
 11
-7.6059
 21
29.7124
  0
LINE
  8
0
 10
-7.6059
 20
29.7124
 11
-8.81642
 21
29.0469
  0
LINE
  8
0
 10
-8.81642
 20
29.0469
 11
-10.1008
 21
28.5384
  0
LINE
  8
0
 10
-10.1008
 20
28.5384
 11
-11.4388
 21
28.1949
  0
LINE
  8
0
 10
-11.4388
 20
28.1949
 11
-12.8093
 21
28.0217
  0
LINE
  8
0
 10
-12.8093
 20
28.0217
 11
-14.1907
 21
28.0217
  0
LINE
  8
0
 10
-30.1884
 20
43.5059
 11
-30.5621
 21
43.5531
  0
LINE
  8
0
 10
-30.5621
 20
43.5531
 11
-30.927
 21
43.6468
  0
LINE
  8
0
 10
-30.927
 20
43.6468
 11
-31.2773
 21
43.7855
  0
LINE
  8
0
 10
-31.2773
 20
43.7855
 11
-31.6075
 21
43.967
  0
LINE
  8
0
 10
-31.6075
 20
43.967
 11
-31.9123
 21
44.1884
  0
LINE
  8
0
 10
-31.9123
 20
44.1884
 11
-32.1869
 21
44.4464
  0
LINE
  8
0
 10
-32.1869
 20
44.4464
 11
-32.427
 21
44.7366
  0
LINE
  8
0
 10
-32.427
 20
44.7366
 11
-32.6289
 21
45.0547
  0
LINE
  8
0
 10
-32.6289
 20
45.0547
 11
-32.7893
 21
45.3956
  0
LINE
  8
0
 10
-32.7893
 20
45.3956
 11
-32.9057
 21
45.7539
  0
LINE
  8
0
 10
-32.9057
 20
45.7539
 11
-32.9763
 21
46.124
  0
LINE
  8
0
 10
-32.9763
 20
46.124
 11
-33
 21
46.5
  0
LINE
  8
0
 10
-33
 20
46.5
 11
-32.9763
 21
46.876
  0
LINE
  8
0
 10
-32.9763
 20
46.876
 11
-32.9057
 21
47.2461
  0
LINE
  8
0
 10
-32.9057
 20
47.2461
 11
-32.7893
 21
47.6044
  0
LINE
  8
0
 10
-32.7893
 20
47.6044
 11
-32.6289
 21
47.9453
  0
LINE
  8
0
 10
-32.6289
 20
47.9453
 11
-32.427
 21
48.2634
  0
LINE
  8
0
 10
-32.427
 20
48.2634
 11
-32.1869
 21
48.5536
  0
LINE
  8
0
 10
-32.1869
 20
48.5536
 11
-31.9123
 21
48.8115
  0
LINE
  8
0
 10
-31.9123
 20
48.8115
 11
-31.6075
 21
49.033
  0
LINE
  8
0
 10
-31.6075
 20
49.033
 11
-31.2773
 21
49.2145
  0
LINE
  8
0
 10
-31.2773
 20
49.2145
 11
-30.927
 21
49.3532
  0
LINE
  8
0
 10
-30.927
 20
49.3532
 11
-30.5621
 21
49.4469
  0
LINE
  8
0
 10
-30.5621
 20
49.4469
 11
-30.1884
 21
49.4941
  0
LINE
  8
0
 10
-30.1884
 20
49.4941
 11
-29.8116
 21
49.4941
  0
LINE
  8
0
 10
-29.8116
 20
49.4941
 11
-29.4379
 21
49.4469
  0
LINE
  8
0
 10
-29.4379
 20
49.4469
 11
-29.0729
 21
49.3532
  0
LINE
  8
0
 10
-29.0729
 20
49.3532
 11
-28.7227
 21
49.2145
  0
LINE
  8
0
 10
-28.7227
 20
49.2145
 11
-28.3925
 21
49.033
  0
LINE
  8
0
 10
-28.3925
 20
49.033
 11
-28.0877
 21
48.8115
  0
LINE
  8
0
 10
-28.0877
 20
48.8115
 11
-27.8131
 21
48.5536
  0
LINE
  8
0
 10
-27.8131
 20
48.5536
 11
-27.5729
 21
48.2634
  0
LINE
  8
0
 10
-27.5729
 20
48.2634
 11
-27.3711
 21
47.9453
  0
LINE
  8
0
 10
-27.3711
 20
47.9453
 11
-27.2107
 21
47.6044
  0
LINE
  8
0
 10
-27.2107
 20
47.6044
 11
-27.0942
 21
47.2461
  0
LINE
  8
0
 10
-27.0942
 20
47.2461
 11
-27.0237
 21
46.876
  0
LINE
  8
0
 10
-27.0237
 20
46.876
 11
-27
 21
46.5
  0
LINE
  8
0
 10
-27
 20
46.5
 11
-27.0237
 21
46.124
  0
LINE
  8
0
 10
-27.0237
 20
46.124
 11
-27.0942
 21
45.7539
  0
LINE
  8
0
 10
-27.0942
 20
45.7539
 11
-27.2107
 21
45.3956
  0
LINE
  8
0
 10
-27.2107
 20
45.3956
 11
-27.3711
 21
45.0547
  0
LINE
  8
0
 10
-27.3711
 20
45.0547
 11
-27.5729
 21
44.7366
  0
LINE
  8
0
 10
-27.5729
 20
44.7366
 11
-27.8131
 21
44.4464
  0
LINE
  8
0
 10
-27.8131
 20
44.4464
 11
-28.0877
 21
44.1884
  0
LINE
  8
0
 10
-28.0877
 20
44.1884
 11
-28.3925
 21
43.967
  0
LINE
  8
0
 10
-28.3925
 20
43.967
 11
-28.7227
 21
43.7855
  0
LINE
  8
0
 10
-28.7227
 20
43.7855
 11
-29.0729
 21
43.6468
  0
LINE
  8
0
 10
-29.0729
 20
43.6468
 11
-29.4379
 21
43.5531
  0
LINE
  8
0
 10
-29.4379
 20
43.5531
 11
-29.8116
 21
43.5059
  0
LINE
  8
0
 10
-29.8116
 20
43.5059
 11
-30.1884
 21
43.5059
  0
LINE
  8
0
 10
29.8116
 20
43.5059
 11
29.4379
 21
43.5531
  0
LINE
  8
0
 10
29.4379
 20
43.5531
 11
29.0729
 21
43.6468
  0
LINE
  8
0
 10
29.0729
 20
43.6468
 11
28.7227
 21
43.7855
  0
LINE
  8
0
 10
28.7227
 20
43.7855
 11
28.3925
 21
43.967
  0
LINE
  8
0
 10
28.3925
 20
43.967
 11
28.0877
 21
44.1884
  0
LINE
  8
0
 10
28.0877
 20
44.1884
 11
27.8131
 21
44.4464
  0
LINE
  8
0
 10
27.8131
 20
44.4464
 11
27.5729
 21
44.7366
  0
LINE
  8
0
 10
27.5729
 20
44.7366
 11
27.3711
 21
45.0547
  0
LINE
  8
0
 10
27.3711
 20
45.0547
 11
27.2107
 21
45.3956
  0
LINE
  8
0
 10
27.2107
 20
45.3956
 11
27.0942
 21
45.7539
  0
LINE
  8
0
 10
27.0942
 20
45.7539
 11
27.0237
 21
46.124
  0
LINE
  8
0
 10
27.0237
 20
46.124
 11
27
 21
46.5
  0
LINE
  8
0
 10
27
 20
46.5
 11
27.0237
 21
46.876
  0
LINE
  8
0
 10
27.0237
 20
46.876
 11
27.0942
 21
47.2461
  0
LINE
  8
0
 10
27.0942
 20
47.2461
 11
27.2107
 21
47.6044
  0
LINE
  8
0
 10
27.2107
 20
47.6044
 11
27.3711
 21
47.9453
  0
LINE
  8
0
 10
27.3711
 20
47.9453
 11
27.5729
 21
48.2634
  0
LINE
  8
0
 10
27.5729
 20
48.2634
 11
27.8131
 21
48.5536
  0
LINE
  8
0
 10
27.8131
 20
48.5536
 11
28.0877
 21
48.8115
  0
LINE
  8
0
 10
28.0877
 20
48.8115
 11
28.3925
 21
49.033
  0
LINE
  8
0
 10
28.3925
 20
49.033
 11
28.7227
 21
49.2145
  0
LINE
  8
0
 10
28.7227
 20
49.2145
 11
29.0729
 21
49.3532
  0
LINE
  8
0
 10
29.0729
 20
49.3532
 11
29.4379
 21
49.4469
  0
LINE
  8
0
 10
29.4379
 20
49.4469
 11
29.8116
 21
49.4941
  0
LINE
  8
0
 10
29.8116
 20
49.4941
 11
30.1884
 21
49.4941
  0
LINE
  8
0
 10
30.1884
 20
49.4941
 11
30.5621
 21
49.4469
  0
LINE
  8
0
 10
30.5621
 20
49.4469
 11
30.927
 21
49.3532
  0
LINE
  8
0
 10
30.927
 20
49.3532
 11
31.2773
 21
49.2145
  0
LINE
  8
0
 10
31.2773
 20
49.2145
 11
31.6075
 21
49.033
  0
LINE
  8
0
 10
31.6075
 20
49.033
 11
31.9123
 21
48.8115
  0
LINE
  8
0
 10
31.9123
 20
48.8115
 11
32.1869
 21
48.5536
  0
LINE
  8
0
 10
32.1869
 20
48.5536
 11
32.427
 21
48.2634
  0
LINE
  8
0
 10
32.427
 20
48.2634
 11
32.6289
 21
47.9453
  0
LINE
  8
0
 10
32.6289
 20
47.9453
 11
32.7893
 21
47.6044
  0
LINE
  8
0
 10
32.7893
 20
47.6044
 11
32.9057
 21
47.2461
  0
LINE
  8
0
 10
32.9057
 20
47.2461
 11
32.9763
 21
46.876
  0
LINE
  8
0
 10
32.9763
 20
46.876
 11
33
 21
46.5
  0
LINE
  8
0
 10
33
 20
46.5
 11
32.9763
 21
46.124
  0
LINE
  8
0
 10
32.9763
 20
46.124
 11
32.9057
 21
45.7539
  0
LINE
  8
0
 10
32.9057
 20
45.7539
 11
32.7893
 21
45.3956
  0
LINE
  8
0
 10
32.7893
 20
45.3956
 11
32.6289
 21
45.0547
  0
LINE
  8
0
 10
32.6289
 20
45.0547
 11
32.427
 21
44.7366
  0
LINE
  8
0
 10
32.427
 20
44.7366
 11
32.1869
 21
44.4464
  0
LINE
  8
0
 10
32.1869
 20
44.4464
 11
31.9123
 21
44.1884
  0
LINE
  8
0
 10
31.9123
 20
44.1884
 11
31.6075
 21
43.967
  0
LINE
  8
0
 10
31.6075
 20
43.967
 11
31.2773
 21
43.7855
  0
LINE
  8
0
 10
31.2773
 20
43.7855
 11
30.927
 21
43.6468
  0
LINE
  8
0
 10
30.927
 20
43.6468
 11
30.5621
 21
43.5531
  0
LINE
  8
0
 10
30.5621
 20
43.5531
 11
30.1884
 21
43.5059
  0
LINE
  8
0
 10
30.1884
 20
43.5059
 11
29.8116
 21
43.5059
  0
LINE
  8
0
 10
29.9058
 20
37.503
 11
29.7189
 21
37.5266
  0
LINE
  8
0
 10
29.7189
 20
37.5266
 11
29.5365
 21
37.5734
  0
LINE
  8
0
 10
29.5365
 20
37.5734
 11
29.3613
 21
37.6428
  0
LINE
  8
0
 10
29.3613
 20
37.6428
 11
29.1963
 21
37.7335
  0
LINE
  8
0
 10
29.1963
 20
37.7335
 11
29.0439
 21
37.8442
  0
LINE
  8
0
 10
29.0439
 20
37.8442
 11
28.9065
 21
37.9732
  0
LINE
  8
0
 10
28.9065
 20
37.9732
 11
28.7865
 21
38.1183
  0
LINE
  8
0
 10
28.7865
 20
38.1183
 11
28.6855
 21
38.2774
  0
LINE
  8
0
 10
28.6855
 20
38.2774
 11
28.6053
 21
38.4478
  0
LINE
  8
0
 10
28.6053
 20
38.4478
 11
28.5471
 21
38.627
  0
LINE
  8
0
 10
28.5471
 20
38.627
 11
28.5118
 21
38.812
  0
LINE
  8
0
 10
28.5118
 20
38.812
 11
28.5
 21
39
  0
LINE
  8
0
 10
28.5
 20
39
 11
28.5118
 21
39.188
  0
LINE
  8
0
 10
28.5118
 20
39.188
 11
28.5471
 21
39.373
  0
LINE
  8
0
 10
28.5471
 20
39.373
 11
28.6053
 21
39.5522
  0
LINE
  8
0
 10
28.6053
 20
39.5522
 11
28.6855
 21
39.7226
  0
LINE
  8
0
 10
28.6855
 20
39.7226
 11
28.7865
 21
39.8817
  0
LINE
  8
0
 10
28.7865
 20
39.8817
 11
28.9065
 21
40.0268
  0
LINE
  8
0
 10
28.9065
 20
40.0268
 11
29.0439
 21
40.1558
  0
LINE
  8
0
 10
29.0439
 20
40.1558
 11
29.1963
 21
40.2665
  0
LINE
  8
0
 10
29.1963
 20
40.2665
 11
29.3613
 21
40.3572
  0
LINE
  8
0
 10
29.3613
 20
40.3572
 11
29.5365
 21
40.4266
  0
LINE
  8
0
 10
29.5365
 20
40.4266
 11
29.7189
 21
40.4734
  0
LINE
  8
0
 10
29.7189
 20
40.4734
 11
29.9058
 21
40.497
  0
LINE
  8
0
 10
29.9058
 20
40.497
 11
30.0942
 21
40.497
  0
LINE
  8
0
 10
30.0942
 20
40.497
 11
30.2811
 21
40.4734
  0
LINE
  8
0
 10
30.2811
 20
40.4734
 11
30.4635
 21
40.4266
  0
LINE
  8
0
 10
30.4635
 20
40.4266
 11
30.6387
 21
40.3572
  0
LINE
  8
0
 10
30.6387
 20
40.3572
 11
30.8037
 21
40.2665
  0
LINE
  8
0
 10
30.8037
 20
40.2665
 11
30.9561
 21
40.1558
  0
LINE
  8
0
 10
30.9561
 20
40.1558
 11
31.0934
 21
40.0268
  0
LINE
  8
0
 10
31.0934
 20
40.0268
 11
31.2135
 21
39.8817
  0
LINE
  8
0
 10
31.2135
 20
39.8817
 11
31.3145
 21
39.7226
  0
LINE
  8
0
 10
31.3145
 20
39.7226
 11
31.3947
 21
39.5522
  0
LINE
  8
0
 10
31.3947
 20
39.5522
 11
31.4529
 21
39.373
  0
LINE
  8
0
 10
31.4529
 20
39.373
 11
31.4882
 21
39.188
  0
LINE
  8
0
 10
31.4882
 20
39.188
 11
31.5
 21
39
  0
LINE
  8
0
 10
31.5
 20
39
 11
31.4882
 21
38.812
  0
LINE
  8
0
 10
31.4882
 20
38.812
 11
31.4529
 21
38.627
  0
LINE
  8
0
 10
31.4529
 20
38.627
 11
31.3947
 21
38.4478
  0
LINE
  8
0
 10
31.3947
 20
38.4478
 11
31.3145
 21
38.2774
  0
LINE
  8
0
 10
31.3145
 20
38.2774
 11
31.2135
 21
38.1183
  0
LINE
  8
0
 10
31.2135
 20
38.1183
 11
31.0934
 21
37.9732
  0
LINE
  8
0
 10
31.0934
 20
37.9732
 11
30.9561
 21
37.8442
  0
LINE
  8
0
 10
30.9561
 20
37.8442
 11
30.8037
 21
37.7335
  0
LINE
  8
0
 10
30.8037
 20
37.7335
 11
30.6387
 21
37.6428
  0
LINE
  8
0
 10
30.6387
 20
37.6428
 11
30.4635
 21
37.5734
  0
LINE
  8
0
 10
30.4635
 20
37.5734
 11
30.2811
 21
37.5266
  0
LINE
  8
0
 10
30.2811
 20
37.5266
 11
30.0942
 21
37.503
  0
LINE
  8
0
 10
30.0942
 20
37.503
 11
29.9058
 21
37.503
  0
LINE
  8
0
 10
-30.0942
 20
37.503
 11
-30.2811
 21
37.5266
  0
LINE
  8
0
 10
-30.2811
 20
37.5266
 11
-30.4635
 21
37.5734
  0
LINE
  8
0
 10
-30.4635
 20
37.5734
 11
-30.6387
 21
37.6428
  0
LINE
  8
0
 10
-30.6387
 20
37.6428
 11
-30.8037
 21
37.7335
  0
LINE
  8
0
 10
-30.8037
 20
37.7335
 11
-30.9561
 21
37.8442
  0
LINE
  8
0
 10
-30.9561
 20
37.8442
 11
-31.0934
 21
37.9732
  0
LINE
  8
0
 10
-31.0934
 20
37.9732
 11
-31.2135
 21
38.1183
  0
LINE
  8
0
 10
-31.2135
 20
38.1183
 11
-31.3145
 21
38.2774
  0
LINE
  8
0
 10
-31.3145
 20
38.2774
 11
-31.3947
 21
38.4478
  0
LINE
  8
0
 10
-31.3947
 20
38.4478
 11
-31.4529
 21
38.627
  0
LINE
  8
0
 10
-31.4529
 20
38.627
 11
-31.4882
 21
38.812
  0
LINE
  8
0
 10
-31.4882
 20
38.812
 11
-31.5
 21
39
  0
LINE
  8
0
 10
-31.5
 20
39
 11
-31.4882
 21
39.188
  0
LINE
  8
0
 10
-31.4882
 20
39.188
 11
-31.4529
 21
39.373
  0
LINE
  8
0
 10
-31.4529
 20
39.373
 11
-31.3947
 21
39.5522
  0
LINE
  8
0
 10
-31.3947
 20
39.5522
 11
-31.3145
 21
39.7226
  0
LINE
  8
0
 10
-31.3145
 20
39.7226
 11
-31.2135
 21
39.8817
  0
LINE
  8
0
 10
-31.2135
 20
39.8817
 11
-31.0934
 21
40.0268
  0
LINE
  8
0
 10
-31.0934
 20
40.0268
 11
-30.9561
 21
40.1558
  0
LINE
  8
0
 10
-30.9561
 20
40.1558
 11
-30.8037
 21
40.2665
  0
LINE
  8
0
 10
-30.8037
 20
40.2665
 11
-30.6387
 21
40.3572
  0
LINE
  8
0
 10
-30.6387
 20
40.3572
 11
-30.4635
 21
40.4266
  0
LINE
  8
0
 10
-30.4635
 20
40.4266
 11
-30.2811
 21
40.4734
  0
LINE
  8
0
 10
-30.2811
 20
40.4734
 11
-30.0942
 21
40.497
  0
LINE
  8
0
 10
-30.0942
 20
40.497
 11
-29.9058
 21
40.497
  0
LINE
  8
0
 10
-29.9058
 20
40.497
 11
-29.7189
 21
40.4734
  0
LINE
  8
0
 10
-29.7189
 20
40.4734
 11
-29.5365
 21
40.4266
  0
LINE
  8
0
 10
-29.5365
 20
40.4266
 11
-29.3613
 21
40.3572
  0
LINE
  8
0
 10
-29.3613
 20
40.3572
 11
-29.1963
 21
40.2665
  0
LINE
  8
0
 10
-29.1963
 20
40.2665
 11
-29.0439
 21
40.1558
  0
LINE
  8
0
 10
-29.0439
 20
40.1558
 11
-28.9065
 21
40.0268
  0
LINE
  8
0
 10
-28.9065
 20
40.0268
 11
-28.7865
 21
39.8817
  0
LINE
  8
0
 10
-28.7865
 20
39.8817
 11
-28.6855
 21
39.7226
  0
LINE
  8
0
 10
-28.6855
 20
39.7226
 11
-28.6053
 21
39.5522
  0
LINE
  8
0
 10
-28.6053
 20
39.5522
 11
-28.5471
 21
39.373
  0
LINE
  8
0
 10
-28.5471
 20
39.373
 11
-28.5118
 21
39.188
  0
LINE
  8
0
 10
-28.5118
 20
39.188
 11
-28.5
 21
39
  0
LINE
  8
0
 10
-28.5
 20
39
 11
-28.5118
 21
38.812
  0
LINE
  8
0
 10
-28.5118
 20
38.812
 11
-28.5471
 21
38.627
  0
LINE
  8
0
 10
-28.5471
 20
38.627
 11
-28.6053
 21
38.4478
  0
LINE
  8
0
 10
-28.6053
 20
38.4478
 11
-28.6855
 21
38.2774
  0
LINE
  8
0
 10
-28.6855
 20
38.2774
 11
-28.7865
 21
38.1183
  0
LINE
  8
0
 10
-28.7865
 20
38.1183
 11
-28.9065
 21
37.9732
  0
LINE
  8
0
 10
-28.9065
 20
37.9732
 11
-29.0439
 21
37.8442
  0
LINE
  8
0
 10
-29.0439
 20
37.8442
 11
-29.1963
 21
37.7335
  0
LINE
  8
0
 10
-29.1963
 20
37.7335
 11
-29.3613
 21
37.6428
  0
LINE
  8
0
 10
-29.3613
 20
37.6428
 11
-29.5365
 21
37.5734
  0
LINE
  8
0
 10
-29.5365
 20
37.5734
 11
-29.7189
 21
37.5266
  0
LINE
  8
0
 10
-29.7189
 20
37.5266
 11
-29.9058
 21
37.503
  0
LINE
  8
0
 10
-29.9058
 20
37.503
 11
-30.0942
 21
37.503
  0
LINE
  8
0
 10
-30.1884
 20
28.5059
 11
-30.5621
 21
28.5531
  0
LINE
  8
0
 10
-30.5621
 20
28.5531
 11
-30.927
 21
28.6468
  0
LINE
  8
0
 10
-30.927
 20
28.6468
 11
-31.2773
 21
28.7855
  0
LINE
  8
0
 10
-31.2773
 20
28.7855
 11
-31.6075
 21
28.967
  0
LINE
  8
0
 10
-31.6075
 20
28.967
 11
-31.9123
 21
29.1885
  0
LINE
  8
0
 10
-31.9123
 20
29.1885
 11
-32.1869
 21
29.4464
  0
LINE
  8
0
 10
-32.1869
 20
29.4464
 11
-32.427
 21
29.7366
  0
LINE
  8
0
 10
-32.427
 20
29.7366
 11
-32.6289
 21
30.0547
  0
LINE
  8
0
 10
-32.6289
 20
30.0547
 11
-32.7893
 21
30.3956
  0
LINE
  8
0
 10
-32.7893
 20
30.3956
 11
-32.9057
 21
30.7539
  0
LINE
  8
0
 10
-32.9057
 20
30.7539
 11
-32.9763
 21
31.124
  0
LINE
  8
0
 10
-32.9763
 20
31.124
 11
-33
 21
31.5
  0
LINE
  8
0
 10
-33
 20
31.5
 11
-32.9763
 21
31.876
  0
LINE
  8
0
 10
-32.9763
 20
31.876
 11
-32.9057
 21
32.2461
  0
LINE
  8
0
 10
-32.9057
 20
32.2461
 11
-32.7893
 21
32.6044
  0
LINE
  8
0
 10
-32.7893
 20
32.6044
 11
-32.6289
 21
32.9453
  0
LINE
  8
0
 10
-32.6289
 20
32.9453
 11
-32.427
 21
33.2634
  0
LINE
  8
0
 10
-32.427
 20
33.2634
 11
-32.1869
 21
33.5536
  0
LINE
  8
0
 10
-32.1869
 20
33.5536
 11
-31.9123
 21
33.8116
  0
LINE
  8
0
 10
-31.9123
 20
33.8116
 11
-31.6075
 21
34.033
  0
LINE
  8
0
 10
-31.6075
 20
34.033
 11
-31.2773
 21
34.2145
  0
LINE
  8
0
 10
-31.2773
 20
34.2145
 11
-30.927
 21
34.3532
  0
LINE
  8
0
 10
-30.927
 20
34.3532
 11
-30.5621
 21
34.4469
  0
LINE
  8
0
 10
-30.5621
 20
34.4469
 11
-30.1884
 21
34.4941
  0
LINE
  8
0
 10
-30.1884
 20
34.4941
 11
-29.8116
 21
34.4941
  0
LINE
  8
0
 10
-29.8116
 20
34.4941
 11
-29.4379
 21
34.4469
  0
LINE
  8
0
 10
-29.4379
 20
34.4469
 11
-29.0729
 21
34.3532
  0
LINE
  8
0
 10
-29.0729
 20
34.3532
 11
-28.7227
 21
34.2145
  0
LINE
  8
0
 10
-28.7227
 20
34.2145
 11
-28.3925
 21
34.033
  0
LINE
  8
0
 10
-28.3925
 20
34.033
 11
-28.0877
 21
33.8116
  0
LINE
  8
0
 10
-28.0877
 20
33.8116
 11
-27.8131
 21
33.5536
  0
LINE
  8
0
 10
-27.8131
 20
33.5536
 11
-27.5729
 21
33.2634
  0
LINE
  8
0
 10
-27.5729
 20
33.2634
 11
-27.3711
 21
32.9453
  0
LINE
  8
0
 10
-27.3711
 20
32.9453
 11
-27.2107
 21
32.6044
  0
LINE
  8
0
 10
-27.2107
 20
32.6044
 11
-27.0942
 21
32.2461
  0
LINE
  8
0
 10
-27.0942
 20
32.2461
 11
-27.0237
 21
31.876
  0
LINE
  8
0
 10
-27.0237
 20
31.876
 11
-27
 21
31.5
  0
LINE
  8
0
 10
-27
 20
31.5
 11
-27.0237
 21
31.124
  0
LINE
  8
0
 10
-27.0237
 20
31.124
 11
-27.0942
 21
30.7539
  0
LINE
  8
0
 10
-27.0942
 20
30.7539
 11
-27.2107
 21
30.3956
  0
LINE
  8
0
 10
-27.2107
 20
30.3956
 11
-27.3711
 21
30.0547
  0
LINE
  8
0
 10
-27.3711
 20
30.0547
 11
-27.5729
 21
29.7366
  0
LINE
  8
0
 10
-27.5729
 20
29.7366
 11
-27.8131
 21
29.4464
  0
LINE
  8
0
 10
-27.8131
 20
29.4464
 11
-28.0877
 21
29.1885
  0
LINE
  8
0
 10
-28.0877
 20
29.1885
 11
-28.3925
 21
28.967
  0
LINE
  8
0
 10
-28.3925
 20
28.967
 11
-28.7227
 21
28.7855
  0
LINE
  8
0
 10
-28.7227
 20
28.7855
 11
-29.0729
 21
28.6468
  0
LINE
  8
0
 10
-29.0729
 20
28.6468
 11
-29.4379
 21
28.5531
  0
LINE
  8
0
 10
-29.4379
 20
28.5531
 11
-29.8116
 21
28.5059
  0
LINE
  8
0
 10
-29.8116
 20
28.5059
 11
-30.1884
 21
28.5059
  0
LINE
  8
0
 10
29.8116
 20
28.5059
 11
29.4379
 21
28.5531
  0
LINE
  8
0
 10
29.4379
 20
28.5531
 11
29.0729
 21
28.6468
  0
LINE
  8
0
 10
29.0729
 20
28.6468
 11
28.7227
 21
28.7855
  0
LINE
  8
0
 10
28.7227
 20
28.7855
 11
28.3925
 21
28.967
  0
LINE
  8
0
 10
28.3925
 20
28.967
 11
28.0877
 21
29.1885
  0
LINE
  8
0
 10
28.0877
 20
29.1885
 11
27.8131
 21
29.4464
  0
LINE
  8
0
 10
27.8131
 20
29.4464
 11
27.5729
 21
29.7366
  0
LINE
  8
0
 10
27.5729
 20
29.7366
 11
27.3711
 21
30.0547
  0
LINE
  8
0
 10
27.3711
 20
30.0547
 11
27.2107
 21
30.3956
  0
LINE
  8
0
 10
27.2107
 20
30.3956
 11
27.0942
 21
30.7539
  0
LINE
  8
0
 10
27.0942
 20
30.7539
 11
27.0237
 21
31.124
  0
LINE
  8
0
 10
27.0237
 20
31.124
 11
27
 21
31.5
  0
LINE
  8
0
 10
27
 20
31.5
 11
27.0237
 21
31.876
  0
LINE
  8
0
 10
27.0237
 20
31.876
 11
27.0942
 21
32.2461
  0
LINE
  8
0
 10
27.0942
 20
32.2461
 11
27.2107
 21
32.6044
  0
LINE
  8
0
 10
27.2107
 20
32.6044
 11
27.3711
 21
32.9453
  0
LINE
  8
0
 10
27.3711
 20
32.9453
 11
27.5729
 21
33.2634
  0
LINE
  8
0
 10
27.5729
 20
33.2634
 11
27.8131
 21
33.5536
  0
LINE
  8
0
 10
27.8131
 20
33.5536
 11
28.0877
 21
33.8116
  0
LINE
  8
0
 10
28.0877
 20
33.8116
 11
28.3925
 21
34.033
  0
LINE
  8
0
 10
28.3925
 20
34.033
 11
28.7227
 21
34.2145
  0
LINE
  8
0
 10
28.7227
 20
34.2145
 11
29.0729
 21
34.3532
  0
LINE
  8
0
 10
29.0729
 20
34.3532
 11
29.4379
 21
34.4469
  0
LINE
  8
0
 10
29.4379
 20
34.4469
 11
29.8116
 21
34.4941
  0
LINE
  8
0
 10
29.8116
 20
34.4941
 11
30.1884
 21
34.4941
  0
LINE
  8
0
 10
30.1884
 20
34.4941
 11
30.5621
 21
34.4469
  0
LINE
  8
0
 10
30.5621
 20
34.4469
 11
30.927
 21
34.3532
  0
LINE
  8
0
 10
30.927
 20
34.3532
 11
31.2773
 21
34.2145
  0
LINE
  8
0
 10
31.2773
 20
34.2145
 11
31.6075
 21
34.033
  0
LINE
  8
0
 10
31.6075
 20
34.033
 11
31.9123
 21
33.8116
  0
LINE
  8
0
 10
31.9123
 20
33.8116
 11
32.1869
 21
33.5536
  0
LINE
  8
0
 10
32.1869
 20
33.5536
 11
32.427
 21
33.2634
  0
LINE
  8
0
 10
32.427
 20
33.2634
 11
32.6289
 21
32.9453
  0
LINE
  8
0
 10
32.6289
 20
32.9453
 11
32.7893
 21
32.6044
  0
LINE
  8
0
 10
32.7893
 20
32.6044
 11
32.9057
 21
32.2461
  0
LINE
  8
0
 10
32.9057
 20
32.2461
 11
32.9763
 21
31.876
  0
LINE
  8
0
 10
32.9763
 20
31.876
 11
33
 21
31.5
  0
LINE
  8
0
 10
33
 20
31.5
 11
32.9763
 21
31.124
  0
LINE
  8
0
 10
32.9763
 20
31.124
 11
32.9057
 21
30.7539
  0
LINE
  8
0
 10
32.9057
 20
30.7539
 11
32.7893
 21
30.3956
  0
LINE
  8
0
 10
32.7893
 20
30.3956
 11
32.6289
 21
30.0547
  0
LINE
  8
0
 10
32.6289
 20
30.0547
 11
32.427
 21
29.7366
  0
LINE
  8
0
 10
32.427
 20
29.7366
 11
32.1869
 21
29.4464
  0
LINE
  8
0
 10
32.1869
 20
29.4464
 11
31.9123
 21
29.1885
  0
LINE
  8
0
 10
31.9123
 20
29.1885
 11
31.6075
 21
28.967
  0
LINE
  8
0
 10
31.6075
 20
28.967
 11
31.2773
 21
28.7855
  0
LINE
  8
0
 10
31.2773
 20
28.7855
 11
30.927
 21
28.6468
  0
LINE
  8
0
 10
30.927
 20
28.6468
 11
30.5621
 21
28.5531
  0
LINE
  8
0
 10
30.5621
 20
28.5531
 11
30.1884
 21
28.5059
  0
LINE
  8
0
 10
30.1884
 20
28.5059
 11
29.8116
 21
28.5059
  0
ENDSEC
  0
SECTION
  2
OBJECTS
  0
DICTIONARY
  0
ENDSEC
  0
EOF
