  0
SECTION
  2
BLOCKS
  0
ENDSEC
  0
SECTION
  2
ENTITIES
  0
LINE
  8
0
 10
47.9369
 20
-14.4114
 11
48.5451
 21
-14.2553
  0
LINE
  8
0
 10
48.5451
 20
-14.2553
 11
49.1289
 21
-14.0241
  0
LINE
  8
0
 10
49.1289
 20
-14.0241
 11
49.6791
 21
-13.7216
  0
LINE
  8
0
 10
49.6791
 20
-13.7216
 11
50.1871
 21
-13.3526
  0
LINE
  8
0
 10
50.1871
 20
-13.3526
 11
50.6448
 21
-12.9227
  0
LINE
  8
0
 10
50.6448
 20
-12.9227
 11
51.0451
 21
-12.4389
  0
LINE
  8
0
 10
51.0451
 20
-12.4389
 11
51.3815
 21
-11.9088
  0
LINE
  8
0
 10
51.3815
 20
-11.9088
 11
51.6489
 21
-11.3406
  0
LINE
  8
0
 10
51.6489
 20
-11.3406
 11
51.8429
 21
-10.7434
  0
LINE
  8
0
 10
51.8429
 20
-10.7434
 11
51.9606
 21
-10.1267
  0
LINE
  8
0
 10
51.9606
 20
-10.1267
 11
52
 21
-9.5
  0
LINE
  8
0
 10
52
 20
-9.5
 11
52
 21
9.5
  0
LINE
  8
0
 10
52
 20
9.5
 11
51.9606
 21
10.1267
  0
LINE
  8
0
 10
51.9606
 20
10.1267
 11
51.8429
 21
10.7434
  0
LINE
  8
0
 10
51.8429
 20
10.7434
 11
51.6489
 21
11.3406
  0
LINE
  8
0
 10
51.6489
 20
11.3406
 11
51.3815
 21
11.9088
  0
LINE
  8
0
 10
51.3815
 20
11.9088
 11
51.0451
 21
12.4389
  0
LINE
  8
0
 10
51.0451
 20
12.4389
 11
50.6448
 21
12.9227
  0
LINE
  8
0
 10
50.6448
 20
12.9227
 11
50.1871
 21
13.3526
  0
LINE
  8
0
 10
50.1871
 20
13.3526
 11
49.6791
 21
13.7216
  0
LINE
  8
0
 10
49.6791
 20
13.7216
 11
49.1289
 21
14.0241
  0
LINE
  8
0
 10
49.1289
 20
14.0241
 11
48.5451
 21
14.2553
  0
LINE
  8
0
 10
48.5451
 20
14.2553
 11
47.9369
 21
14.4114
  0
LINE
  8
0
 10
47.9369
 20
14.4114
 11
47.3139
 21
14.4901
  0
LINE
  8
0
 10
47.3139
 20
14.4901
 11
-47.3139
 21
14.4901
  0
LINE
  8
0
 10
-47.3139
 20
14.4901
 11
-47.9369
 21
14.4114
  0
LINE
  8
0
 10
-47.9369
 20
14.4114
 11
-48.5451
 21
14.2553
  0
LINE
  8
0
 10
-48.5451
 20
14.2553
 11
-49.1289
 21
14.0241
  0
LINE
  8
0
 10
-49.1289
 20
14.0241
 11
-49.6791
 21
13.7216
  0
LINE
  8
0
 10
-49.6791
 20
13.7216
 11
-50.1871
 21
13.3526
  0
LINE
  8
0
 10
-50.1871
 20
13.3526
 11
-50.6448
 21
12.9227
  0
LINE
  8
0
 10
-50.6448
 20
12.9227
 11
-51.0451
 21
12.4389
  0
LINE
  8
0
 10
-51.0451
 20
12.4389
 11
-51.3815
 21
11.9088
  0
LINE
  8
0
 10
-51.3815
 20
11.9088
 11
-51.6489
 21
11.3406
  0
LINE
  8
0
 10
-51.6489
 20
11.3406
 11
-51.8429
 21
10.7434
  0
LINE
  8
0
 10
-51.8429
 20
10.7434
 11
-51.9606
 21
10.1267
  0
LINE
  8
0
 10
-51.9606
 20
10.1267
 11
-52
 21
9.5
  0
LINE
  8
0
 10
-52
 20
9.5
 11
-52
 21
-9.5
  0
LINE
  8
0
 10
-52
 20
-9.5
 11
-51.9606
 21
-10.1267
  0
LINE
  8
0
 10
-51.9606
 20
-10.1267
 11
-51.8429
 21
-10.7434
  0
LINE
  8
0
 10
-51.8429
 20
-10.7434
 11
-51.6489
 21
-11.3406
  0
LINE
  8
0
 10
-51.6489
 20
-11.3406
 11
-51.3815
 21
-11.9088
  0
LINE
  8
0
 10
-51.3815
 20
-11.9088
 11
-51.0451
 21
-12.4389
  0
LINE
  8
0
 10
-51.0451
 20
-12.4389
 11
-50.6448
 21
-12.9227
  0
LINE
  8
0
 10
-50.6448
 20
-12.9227
 11
-50.1871
 21
-13.3526
  0
LINE
  8
0
 10
-50.1871
 20
-13.3526
 11
-49.6791
 21
-13.7216
  0
LINE
  8
0
 10
-49.6791
 20
-13.7216
 11
-49.1289
 21
-14.0241
  0
LINE
  8
0
 10
-49.1289
 20
-14.0241
 11
-48.5451
 21
-14.2553
  0
LINE
  8
0
 10
-48.5451
 20
-14.2553
 11
-47.9369
 21
-14.4114
  0
LINE
  8
0
 10
-47.9369
 20
-14.4114
 11
-47.3139
 21
-14.4901
  0
LINE
  8
0
 10
-47.3139
 20
-14.4901
 11
47.3139
 21
-14.4901
  0
LINE
  8
0
 10
47.3139
 20
-14.4901
 11
47.9369
 21
-14.4114
  0
LINE
  8
0
 10
44.8116
 20
-10.4941
 11
44.4379
 21
-10.4469
  0
LINE
  8
0
 10
44.4379
 20
-10.4469
 11
44.0729
 21
-10.3532
  0
LINE
  8
0
 10
44.0729
 20
-10.3532
 11
43.7227
 21
-10.2145
  0
LINE
  8
0
 10
43.7227
 20
-10.2145
 11
43.3925
 21
-10.033
  0
LINE
  8
0
 10
43.3925
 20
-10.033
 11
43.0877
 21
-9.81154
  0
LINE
  8
0
 10
43.0877
 20
-9.81154
 11
42.8131
 21
-9.55363
  0
LINE
  8
0
 10
42.8131
 20
-9.55363
 11
42.5729
 21
-9.26335
  0
LINE
  8
0
 10
42.5729
 20
-9.26335
 11
42.3711
 21
-8.94525
  0
LINE
  8
0
 10
42.3711
 20
-8.94525
 11
42.2107
 21
-8.60437
  0
LINE
  8
0
 10
42.2107
 20
-8.60437
 11
42.0942
 21
-8.24606
  0
LINE
  8
0
 10
42.0942
 20
-8.24606
 11
42.0237
 21
-7.87599
  0
LINE
  8
0
 10
42.0237
 20
-7.87599
 11
42
 21
-7.5
  0
LINE
  8
0
 10
42
 20
-7.5
 11
42.0182
 21
-7.20978
  0
LINE
  8
0
 10
42.0182
 20
-7.20978
 11
41.4053
 21
-7.36714
  0
LINE
  8
0
 10
41.4053
 20
-7.36714
 11
40.4709
 21
-7.4852
  0
LINE
  8
0
 10
40.4709
 20
-7.4852
 11
39.5291
 21
-7.4852
  0
LINE
  8
0
 10
39.5291
 20
-7.4852
 11
38.5946
 21
-7.36714
  0
LINE
  8
0
 10
38.5946
 20
-7.36714
 11
37.6824
 21
-7.13292
  0
LINE
  8
0
 10
37.6824
 20
-7.13292
 11
36.8067
 21
-6.78619
  0
LINE
  8
0
 10
36.8067
 20
-6.78619
 11
35.9813
 21
-6.33246
  0
LINE
  8
0
 10
35.9813
 20
-6.33246
 11
35.2193
 21
-5.77884
  0
LINE
  8
0
 10
35.2193
 20
-5.77884
 11
34.5327
 21
-5.13409
  0
LINE
  8
0
 10
34.5327
 20
-5.13409
 11
33.9324
 21
-4.40839
  0
LINE
  8
0
 10
33.9324
 20
-4.40839
 11
33.4277
 21
-3.61314
  0
LINE
  8
0
 10
33.4277
 20
-3.61314
 11
33.0267
 21
-2.76093
  0
LINE
  8
0
 10
33.0267
 20
-2.76093
 11
32.7356
 21
-1.86517
  0
LINE
  8
0
 10
32.7356
 20
-1.86517
 11
32.5591
 21
-0.939987
  0
LINE
  8
0
 10
32.5591
 20
-0.939987
 11
32.5
 21
0
  0
LINE
  8
0
 10
32.5
 20
0
 11
32.5591
 21
0.939987
  0
LINE
  8
0
 10
32.5591
 20
0.939987
 11
32.7356
 21
1.86517
  0
LINE
  8
0
 10
32.7356
 20
1.86517
 11
33.0267
 21
2.76093
  0
LINE
  8
0
 10
33.0267
 20
2.76093
 11
33.4277
 21
3.61314
  0
LINE
  8
0
 10
33.4277
 20
3.61314
 11
33.9324
 21
4.40839
  0
LINE
  8
0
 10
33.9324
 20
4.40839
 11
34.5327
 21
5.13409
  0
LINE
  8
0
 10
34.5327
 20
5.13409
 11
35.2193
 21
5.77884
  0
LINE
  8
0
 10
35.2193
 20
5.77884
 11
35.9813
 21
6.33246
  0
LINE
  8
0
 10
35.9813
 20
6.33246
 11
36.8067
 21
6.78619
  0
LINE
  8
0
 10
36.8067
 20
6.78619
 11
37.6824
 21
7.13292
  0
LINE
  8
0
 10
37.6824
 20
7.13292
 11
38.5946
 21
7.36714
  0
LINE
  8
0
 10
38.5946
 20
7.36714
 11
39.5291
 21
7.4852
  0
LINE
  8
0
 10
39.5291
 20
7.4852
 11
40.4709
 21
7.4852
  0
LINE
  8
0
 10
40.4709
 20
7.4852
 11
41.4053
 21
7.36714
  0
LINE
  8
0
 10
41.4053
 20
7.36714
 11
42.0182
 21
7.20978
  0
LINE
  8
0
 10
42.0182
 20
7.20978
 11
42
 21
7.5
  0
LINE
  8
0
 10
42
 20
7.5
 11
42.0237
 21
7.87599
  0
LINE
  8
0
 10
42.0237
 20
7.87599
 11
42.0942
 21
8.24606
  0
LINE
  8
0
 10
42.0942
 20
8.24606
 11
42.2107
 21
8.60437
  0
LINE
  8
0
 10
42.2107
 20
8.60437
 11
42.3711
 21
8.94525
  0
LINE
  8
0
 10
42.3711
 20
8.94525
 11
42.5729
 21
9.26335
  0
LINE
  8
0
 10
42.5729
 20
9.26335
 11
42.8131
 21
9.55363
  0
LINE
  8
0
 10
42.8131
 20
9.55363
 11
43.0877
 21
9.81154
  0
LINE
  8
0
 10
43.0877
 20
9.81154
 11
43.3925
 21
10.033
  0
LINE
  8
0
 10
43.3925
 20
10.033
 11
43.7227
 21
10.2145
  0
LINE
  8
0
 10
43.7227
 20
10.2145
 11
44.0729
 21
10.3532
  0
LINE
  8
0
 10
44.0729
 20
10.3532
 11
44.4379
 21
10.4469
  0
LINE
  8
0
 10
44.4379
 20
10.4469
 11
44.8116
 21
10.4941
  0
LINE
  8
0
 10
44.8116
 20
10.4941
 11
45.1884
 21
10.4941
  0
LINE
  8
0
 10
45.1884
 20
10.4941
 11
45.5621
 21
10.4469
  0
LINE
  8
0
 10
45.5621
 20
10.4469
 11
45.927
 21
10.3532
  0
LINE
  8
0
 10
45.927
 20
10.3532
 11
46.2773
 21
10.2145
  0
LINE
  8
0
 10
46.2773
 20
10.2145
 11
46.6075
 21
10.033
  0
LINE
  8
0
 10
46.6075
 20
10.033
 11
46.9123
 21
9.81154
  0
LINE
  8
0
 10
46.9123
 20
9.81154
 11
47.1869
 21
9.55363
  0
LINE
  8
0
 10
47.1869
 20
9.55363
 11
47.427
 21
9.26335
  0
LINE
  8
0
 10
47.427
 20
9.26335
 11
47.6289
 21
8.94525
  0
LINE
  8
0
 10
47.6289
 20
8.94525
 11
47.7893
 21
8.60437
  0
LINE
  8
0
 10
47.7893
 20
8.60437
 11
47.9057
 21
8.24606
  0
LINE
  8
0
 10
47.9057
 20
8.24606
 11
47.9763
 21
7.87599
  0
LINE
  8
0
 10
47.9763
 20
7.87599
 11
48
 21
7.5
  0
LINE
  8
0
 10
48
 20
7.5
 11
47.9763
 21
7.12399
  0
LINE
  8
0
 10
47.9763
 20
7.12399
 11
47.9057
 21
6.75392
  0
LINE
  8
0
 10
47.9057
 20
6.75392
 11
47.7893
 21
6.39561
  0
LINE
  8
0
 10
47.7893
 20
6.39561
 11
47.6289
 21
6.05473
  0
LINE
  8
0
 10
47.6289
 20
6.05473
 11
47.427
 21
5.73663
  0
LINE
  8
0
 10
47.427
 20
5.73663
 11
47.1869
 21
5.44635
  0
LINE
  8
0
 10
47.1869
 20
5.44635
 11
46.9123
 21
5.18845
  0
LINE
  8
0
 10
46.9123
 20
5.18845
 11
46.6075
 21
4.96701
  0
LINE
  8
0
 10
46.6075
 20
4.96701
 11
46.2773
 21
4.78551
  0
LINE
  8
0
 10
46.2773
 20
4.78551
 11
45.927
 21
4.64682
  0
LINE
  8
0
 10
45.927
 20
4.64682
 11
45.8803
 21
4.63483
  0
LINE
  8
0
 10
45.8803
 20
4.63483
 11
46.0676
 21
4.40839
  0
LINE
  8
0
 10
46.0676
 20
4.40839
 11
46.5723
 21
3.61314
  0
LINE
  8
0
 10
46.5723
 20
3.61314
 11
46.9733
 21
2.76093
  0
LINE
  8
0
 10
46.9733
 20
2.76093
 11
47.2644
 21
1.86517
  0
LINE
  8
0
 10
47.2644
 20
1.86517
 11
47.4409
 21
0.939987
  0
LINE
  8
0
 10
47.4409
 20
0.939987
 11
47.5
 21
0
  0
LINE
  8
0
 10
47.5
 20
0
 11
47.4409
 21
-0.939987
  0
LINE
  8
0
 10
47.4409
 20
-0.939987
 11
47.2644
 21
-1.86517
  0
LINE
  8
0
 10
47.2644
 20
-1.86517
 11
46.9733
 21
-2.76093
  0
LINE
  8
0
 10
46.9733
 20
-2.76093
 11
46.5723
 21
-3.61314
  0
LINE
  8
0
 10
46.5723
 20
-3.61314
 11
46.0676
 21
-4.40839
  0
LINE
  8
0
 10
46.0676
 20
-4.40839
 11
45.8803
 21
-4.63483
  0
LINE
  8
0
 10
45.8803
 20
-4.63483
 11
45.927
 21
-4.64682
  0
LINE
  8
0
 10
45.927
 20
-4.64682
 11
46.2773
 21
-4.78551
  0
LINE
  8
0
 10
46.2773
 20
-4.78551
 11
46.6075
 21
-4.96701
  0
LINE
  8
0
 10
46.6075
 20
-4.96701
 11
46.9123
 21
-5.18845
  0
LINE
  8
0
 10
46.9123
 20
-5.18845
 11
47.1869
 21
-5.44635
  0
LINE
  8
0
 10
47.1869
 20
-5.44635
 11
47.427
 21
-5.73663
  0
LINE
  8
0
 10
47.427
 20
-5.73663
 11
47.6289
 21
-6.05473
  0
LINE
  8
0
 10
47.6289
 20
-6.05473
 11
47.7893
 21
-6.39561
  0
LINE
  8
0
 10
47.7893
 20
-6.39561
 11
47.9057
 21
-6.75392
  0
LINE
  8
0
 10
47.9057
 20
-6.75392
 11
47.9763
 21
-7.12399
  0
LINE
  8
0
 10
47.9763
 20
-7.12399
 11
48
 21
-7.5
  0
LINE
  8
0
 10
48
 20
-7.5
 11
47.9763
 21
-7.87599
  0
LINE
  8
0
 10
47.9763
 20
-7.87599
 11
47.9057
 21
-8.24606
  0
LINE
  8
0
 10
47.9057
 20
-8.24606
 11
47.7893
 21
-8.60437
  0
LINE
  8
0
 10
47.7893
 20
-8.60437
 11
47.6289
 21
-8.94525
  0
LINE
  8
0
 10
47.6289
 20
-8.94525
 11
47.427
 21
-9.26335
  0
LINE
  8
0
 10
47.427
 20
-9.26335
 11
47.1869
 21
-9.55363
  0
LINE
  8
0
 10
47.1869
 20
-9.55363
 11
46.9123
 21
-9.81154
  0
LINE
  8
0
 10
46.9123
 20
-9.81154
 11
46.6075
 21
-10.033
  0
LINE
  8
0
 10
46.6075
 20
-10.033
 11
46.2773
 21
-10.2145
  0
LINE
  8
0
 10
46.2773
 20
-10.2145
 11
45.927
 21
-10.3532
  0
LINE
  8
0
 10
45.927
 20
-10.3532
 11
45.5621
 21
-10.4469
  0
LINE
  8
0
 10
45.5621
 20
-10.4469
 11
45.1884
 21
-10.4941
  0
LINE
  8
0
 10
45.1884
 20
-10.4941
 11
44.8116
 21
-10.4941
  0
LINE
  8
0
 10
-45.1884
 20
-10.4941
 11
-45.5621
 21
-10.4469
  0
LINE
  8
0
 10
-45.5621
 20
-10.4469
 11
-45.927
 21
-10.3532
  0
LINE
  8
0
 10
-45.927
 20
-10.3532
 11
-46.2773
 21
-10.2145
  0
LINE
  8
0
 10
-46.2773
 20
-10.2145
 11
-46.6075
 21
-10.033
  0
LINE
  8
0
 10
-46.6075
 20
-10.033
 11
-46.9123
 21
-9.81154
  0
LINE
  8
0
 10
-46.9123
 20
-9.81154
 11
-47.1869
 21
-9.55363
  0
LINE
  8
0
 10
-47.1869
 20
-9.55363
 11
-47.427
 21
-9.26335
  0
LINE
  8
0
 10
-47.427
 20
-9.26335
 11
-47.6289
 21
-8.94525
  0
LINE
  8
0
 10
-47.6289
 20
-8.94525
 11
-47.7893
 21
-8.60437
  0
LINE
  8
0
 10
-47.7893
 20
-8.60437
 11
-47.9057
 21
-8.24606
  0
LINE
  8
0
 10
-47.9057
 20
-8.24606
 11
-47.9763
 21
-7.87599
  0
LINE
  8
0
 10
-47.9763
 20
-7.87599
 11
-48
 21
-7.5
  0
LINE
  8
0
 10
-48
 20
-7.5
 11
-47.9763
 21
-7.12399
  0
LINE
  8
0
 10
-47.9763
 20
-7.12399
 11
-47.9057
 21
-6.75392
  0
LINE
  8
0
 10
-47.9057
 20
-6.75392
 11
-47.7893
 21
-6.39561
  0
LINE
  8
0
 10
-47.7893
 20
-6.39561
 11
-47.6289
 21
-6.05473
  0
LINE
  8
0
 10
-47.6289
 20
-6.05473
 11
-47.427
 21
-5.73663
  0
LINE
  8
0
 10
-47.427
 20
-5.73663
 11
-47.1869
 21
-5.44635
  0
LINE
  8
0
 10
-47.1869
 20
-5.44635
 11
-46.9123
 21
-5.18845
  0
LINE
  8
0
 10
-46.9123
 20
-5.18845
 11
-46.6075
 21
-4.96701
  0
LINE
  8
0
 10
-46.6075
 20
-4.96701
 11
-46.2773
 21
-4.78551
  0
LINE
  8
0
 10
-46.2773
 20
-4.78551
 11
-45.927
 21
-4.64682
  0
LINE
  8
0
 10
-45.927
 20
-4.64682
 11
-45.8803
 21
-4.63483
  0
LINE
  8
0
 10
-45.8803
 20
-4.63483
 11
-46.0676
 21
-4.40839
  0
LINE
  8
0
 10
-46.0676
 20
-4.40839
 11
-46.5723
 21
-3.61314
  0
LINE
  8
0
 10
-46.5723
 20
-3.61314
 11
-46.9733
 21
-2.76093
  0
LINE
  8
0
 10
-46.9733
 20
-2.76093
 11
-47.2644
 21
-1.86517
  0
LINE
  8
0
 10
-47.2644
 20
-1.86517
 11
-47.4409
 21
-0.939987
  0
LINE
  8
0
 10
-47.4409
 20
-0.939987
 11
-47.5
 21
0
  0
LINE
  8
0
 10
-47.5
 20
0
 11
-47.4409
 21
0.939987
  0
LINE
  8
0
 10
-47.4409
 20
0.939987
 11
-47.2644
 21
1.86517
  0
LINE
  8
0
 10
-47.2644
 20
1.86517
 11
-46.9733
 21
2.76093
  0
LINE
  8
0
 10
-46.9733
 20
2.76093
 11
-46.5723
 21
3.61314
  0
LINE
  8
0
 10
-46.5723
 20
3.61314
 11
-46.0676
 21
4.40839
  0
LINE
  8
0
 10
-46.0676
 20
4.40839
 11
-45.8803
 21
4.63483
  0
LINE
  8
0
 10
-45.8803
 20
4.63483
 11
-45.927
 21
4.64682
  0
LINE
  8
0
 10
-45.927
 20
4.64682
 11
-46.2773
 21
4.78551
  0
LINE
  8
0
 10
-46.2773
 20
4.78551
 11
-46.6075
 21
4.96701
  0
LINE
  8
0
 10
-46.6075
 20
4.96701
 11
-46.9123
 21
5.18845
  0
LINE
  8
0
 10
-46.9123
 20
5.18845
 11
-47.1869
 21
5.44635
  0
LINE
  8
0
 10
-47.1869
 20
5.44635
 11
-47.427
 21
5.73663
  0
LINE
  8
0
 10
-47.427
 20
5.73663
 11
-47.6289
 21
6.05473
  0
LINE
  8
0
 10
-47.6289
 20
6.05473
 11
-47.7893
 21
6.39561
  0
LINE
  8
0
 10
-47.7893
 20
6.39561
 11
-47.9057
 21
6.75392
  0
LINE
  8
0
 10
-47.9057
 20
6.75392
 11
-47.9763
 21
7.12399
  0
LINE
  8
0
 10
-47.9763
 20
7.12399
 11
-48
 21
7.5
  0
LINE
  8
0
 10
-48
 20
7.5
 11
-47.9763
 21
7.87599
  0
LINE
  8
0
 10
-47.9763
 20
7.87599
 11
-47.9057
 21
8.24606
  0
LINE
  8
0
 10
-47.9057
 20
8.24606
 11
-47.7893
 21
8.60437
  0
LINE
  8
0
 10
-47.7893
 20
8.60437
 11
-47.6289
 21
8.94525
  0
LINE
  8
0
 10
-47.6289
 20
8.94525
 11
-47.427
 21
9.26335
  0
LINE
  8
0
 10
-47.427
 20
9.26335
 11
-47.1869
 21
9.55363
  0
LINE
  8
0
 10
-47.1869
 20
9.55363
 11
-46.9123
 21
9.81154
  0
LINE
  8
0
 10
-46.9123
 20
9.81154
 11
-46.6075
 21
10.033
  0
LINE
  8
0
 10
-46.6075
 20
10.033
 11
-46.2773
 21
10.2145
  0
LINE
  8
0
 10
-46.2773
 20
10.2145
 11
-45.927
 21
10.3532
  0
LINE
  8
0
 10
-45.927
 20
10.3532
 11
-45.5621
 21
10.4469
  0
LINE
  8
0
 10
-45.5621
 20
10.4469
 11
-45.1884
 21
10.4941
  0
LINE
  8
0
 10
-45.1884
 20
10.4941
 11
-44.8116
 21
10.4941
  0
LINE
  8
0
 10
-44.8116
 20
10.4941
 11
-44.4379
 21
10.4469
  0
LINE
  8
0
 10
-44.4379
 20
10.4469
 11
-44.0729
 21
10.3532
  0
LINE
  8
0
 10
-44.0729
 20
10.3532
 11
-43.7227
 21
10.2145
  0
LINE
  8
0
 10
-43.7227
 20
10.2145
 11
-43.3925
 21
10.033
  0
LINE
  8
0
 10
-43.3925
 20
10.033
 11
-43.0877
 21
9.81154
  0
LINE
  8
0
 10
-43.0877
 20
9.81154
 11
-42.8131
 21
9.55363
  0
LINE
  8
0
 10
-42.8131
 20
9.55363
 11
-42.5729
 21
9.26335
  0
LINE
  8
0
 10
-42.5729
 20
9.26335
 11
-42.3711
 21
8.94525
  0
LINE
  8
0
 10
-42.3711
 20
8.94525
 11
-42.2107
 21
8.60437
  0
LINE
  8
0
 10
-42.2107
 20
8.60437
 11
-42.0942
 21
8.24606
  0
LINE
  8
0
 10
-42.0942
 20
8.24606
 11
-42.0237
 21
7.87599
  0
LINE
  8
0
 10
-42.0237
 20
7.87599
 11
-42
 21
7.5
  0
LINE
  8
0
 10
-42
 20
7.5
 11
-42.0182
 21
7.20978
  0
LINE
  8
0
 10
-42.0182
 20
7.20978
 11
-41.4053
 21
7.36714
  0
LINE
  8
0
 10
-41.4053
 20
7.36714
 11
-40.4709
 21
7.4852
  0
LINE
  8
0
 10
-40.4709
 20
7.4852
 11
-39.5291
 21
7.4852
  0
LINE
  8
0
 10
-39.5291
 20
7.4852
 11
-38.5946
 21
7.36714
  0
LINE
  8
0
 10
-38.5946
 20
7.36714
 11
-37.6824
 21
7.13292
  0
LINE
  8
0
 10
-37.6824
 20
7.13292
 11
-36.8067
 21
6.78619
  0
LINE
  8
0
 10
-36.8067
 20
6.78619
 11
-35.9813
 21
6.33246
  0
LINE
  8
0
 10
-35.9813
 20
6.33246
 11
-35.2193
 21
5.77884
  0
LINE
  8
0
 10
-35.2193
 20
5.77884
 11
-34.5327
 21
5.13409
  0
LINE
  8
0
 10
-34.5327
 20
5.13409
 11
-33.9324
 21
4.40839
  0
LINE
  8
0
 10
-33.9324
 20
4.40839
 11
-33.4277
 21
3.61314
  0
LINE
  8
0
 10
-33.4277
 20
3.61314
 11
-33.0267
 21
2.76093
  0
LINE
  8
0
 10
-33.0267
 20
2.76093
 11
-32.7356
 21
1.86517
  0
LINE
  8
0
 10
-32.7356
 20
1.86517
 11
-32.5591
 21
0.939987
  0
LINE
  8
0
 10
-32.5591
 20
0.939987
 11
-32.5
 21
0
  0
LINE
  8
0
 10
-32.5
 20
0
 11
-32.5591
 21
-0.939987
  0
LINE
  8
0
 10
-32.5591
 20
-0.939987
 11
-32.7356
 21
-1.86517
  0
LINE
  8
0
 10
-32.7356
 20
-1.86517
 11
-33.0267
 21
-2.76093
  0
LINE
  8
0
 10
-33.0267
 20
-2.76093
 11
-33.4277
 21
-3.61314
  0
LINE
  8
0
 10
-33.4277
 20
-3.61314
 11
-33.9324
 21
-4.40839
  0
LINE
  8
0
 10
-33.9324
 20
-4.40839
 11
-34.5327
 21
-5.13409
  0
LINE
  8
0
 10
-34.5327
 20
-5.13409
 11
-35.2193
 21
-5.77884
  0
LINE
  8
0
 10
-35.2193
 20
-5.77884
 11
-35.9813
 21
-6.33246
  0
LINE
  8
0
 10
-35.9813
 20
-6.33246
 11
-36.8067
 21
-6.78619
  0
LINE
  8
0
 10
-36.8067
 20
-6.78619
 11
-37.6824
 21
-7.13292
  0
LINE
  8
0
 10
-37.6824
 20
-7.13292
 11
-38.5946
 21
-7.36714
  0
LINE
  8
0
 10
-38.5946
 20
-7.36714
 11
-39.5291
 21
-7.4852
  0
LINE
  8
0
 10
-39.5291
 20
-7.4852
 11
-40.4709
 21
-7.4852
  0
LINE
  8
0
 10
-40.4709
 20
-7.4852
 11
-41.4053
 21
-7.36714
  0
LINE
  8
0
 10
-41.4053
 20
-7.36714
 11
-42.0182
 21
-7.20978
  0
LINE
  8
0
 10
-42.0182
 20
-7.20978
 11
-42
 21
-7.5
  0
LINE
  8
0
 10
-42
 20
-7.5
 11
-42.0237
 21
-7.87599
  0
LINE
  8
0
 10
-42.0237
 20
-7.87599
 11
-42.0942
 21
-8.24606
  0
LINE
  8
0
 10
-42.0942
 20
-8.24606
 11
-42.2107
 21
-8.60437
  0
LINE
  8
0
 10
-42.2107
 20
-8.60437
 11
-42.3711
 21
-8.94525
  0
LINE
  8
0
 10
-42.3711
 20
-8.94525
 11
-42.5729
 21
-9.26335
  0
LINE
  8
0
 10
-42.5729
 20
-9.26335
 11
-42.8131
 21
-9.55363
  0
LINE
  8
0
 10
-42.8131
 20
-9.55363
 11
-43.0877
 21
-9.81154
  0
LINE
  8
0
 10
-43.0877
 20
-9.81154
 11
-43.3925
 21
-10.033
  0
LINE
  8
0
 10
-43.3925
 20
-10.033
 11
-43.7227
 21
-10.2145
  0
LINE
  8
0
 10
-43.7227
 20
-10.2145
 11
-44.0729
 21
-10.3532
  0
LINE
  8
0
 10
-44.0729
 20
-10.3532
 11
-44.4379
 21
-10.4469
  0
LINE
  8
0
 10
-44.4379
 20
-10.4469
 11
-44.8116
 21
-10.4941
  0
LINE
  8
0
 10
-44.8116
 20
-10.4941
 11
-45.1884
 21
-10.4941
  0
LINE
  8
0
 10
19.5291
 20
-7.4852
 11
18.5946
 21
-7.36714
  0
LINE
  8
0
 10
18.5946
 20
-7.36714
 11
17.6824
 21
-7.13292
  0
LINE
  8
0
 10
17.6824
 20
-7.13292
 11
16.8067
 21
-6.78619
  0
LINE
  8
0
 10
16.8067
 20
-6.78619
 11
15.9813
 21
-6.33246
  0
LINE
  8
0
 10
15.9813
 20
-6.33246
 11
15.2193
 21
-5.77884
  0
LINE
  8
0
 10
15.2193
 20
-5.77884
 11
14.5327
 21
-5.13409
  0
LINE
  8
0
 10
14.5327
 20
-5.13409
 11
13.9324
 21
-4.40839
  0
LINE
  8
0
 10
13.9324
 20
-4.40839
 11
13.4277
 21
-3.61314
  0
LINE
  8
0
 10
13.4277
 20
-3.61314
 11
13.0267
 21
-2.76093
  0
LINE
  8
0
 10
13.0267
 20
-2.76093
 11
12.7356
 21
-1.86517
  0
LINE
  8
0
 10
12.7356
 20
-1.86517
 11
12.5591
 21
-0.939987
  0
LINE
  8
0
 10
12.5591
 20
-0.939987
 11
12.5
 21
0
  0
LINE
  8
0
 10
12.5
 20
0
 11
12.5591
 21
0.939987
  0
LINE
  8
0
 10
12.5591
 20
0.939987
 11
12.7356
 21
1.86517
  0
LINE
  8
0
 10
12.7356
 20
1.86517
 11
13.0267
 21
2.76093
  0
LINE
  8
0
 10
13.0267
 20
2.76093
 11
13.4277
 21
3.61314
  0
LINE
  8
0
 10
13.4277
 20
3.61314
 11
13.9324
 21
4.40839
  0
LINE
  8
0
 10
13.9324
 20
4.40839
 11
14.5327
 21
5.13409
  0
LINE
  8
0
 10
14.5327
 20
5.13409
 11
15.2193
 21
5.77884
  0
LINE
  8
0
 10
15.2193
 20
5.77884
 11
15.9813
 21
6.33246
  0
LINE
  8
0
 10
15.9813
 20
6.33246
 11
16.8067
 21
6.78619
  0
LINE
  8
0
 10
16.8067
 20
6.78619
 11
17.6824
 21
7.13292
  0
LINE
  8
0
 10
17.6824
 20
7.13292
 11
18.5946
 21
7.36714
  0
LINE
  8
0
 10
18.5946
 20
7.36714
 11
19.5291
 21
7.4852
  0
LINE
  8
0
 10
19.5291
 20
7.4852
 11
20.4709
 21
7.4852
  0
LINE
  8
0
 10
20.4709
 20
7.4852
 11
21.4053
 21
7.36714
  0
LINE
  8
0
 10
21.4053
 20
7.36714
 11
22.3176
 21
7.13292
  0
LINE
  8
0
 10
22.3176
 20
7.13292
 11
23.1933
 21
6.78619
  0
LINE
  8
0
 10
23.1933
 20
6.78619
 11
24.0187
 21
6.33246
  0
LINE
  8
0
 10
24.0187
 20
6.33246
 11
24.7807
 21
5.77884
  0
LINE
  8
0
 10
24.7807
 20
5.77884
 11
25.4673
 21
5.13409
  0
LINE
  8
0
 10
25.4673
 20
5.13409
 11
26.0676
 21
4.40839
  0
LINE
  8
0
 10
26.0676
 20
4.40839
 11
26.5723
 21
3.61314
  0
LINE
  8
0
 10
26.5723
 20
3.61314
 11
26.9733
 21
2.76093
  0
LINE
  8
0
 10
26.9733
 20
2.76093
 11
27.2644
 21
1.86517
  0
LINE
  8
0
 10
27.2644
 20
1.86517
 11
27.4409
 21
0.939987
  0
LINE
  8
0
 10
27.4409
 20
0.939987
 11
27.5
 21
0
  0
LINE
  8
0
 10
27.5
 20
0
 11
27.4409
 21
-0.939987
  0
LINE
  8
0
 10
27.4409
 20
-0.939987
 11
27.2644
 21
-1.86517
  0
LINE
  8
0
 10
27.2644
 20
-1.86517
 11
26.9733
 21
-2.76093
  0
LINE
  8
0
 10
26.9733
 20
-2.76093
 11
26.5723
 21
-3.61314
  0
LINE
  8
0
 10
26.5723
 20
-3.61314
 11
26.0676
 21
-4.40839
  0
LINE
  8
0
 10
26.0676
 20
-4.40839
 11
25.4673
 21
-5.13409
  0
LINE
  8
0
 10
25.4673
 20
-5.13409
 11
24.7807
 21
-5.77884
  0
LINE
  8
0
 10
24.7807
 20
-5.77884
 11
24.0187
 21
-6.33246
  0
LINE
  8
0
 10
24.0187
 20
-6.33246
 11
23.1933
 21
-6.78619
  0
LINE
  8
0
 10
23.1933
 20
-6.78619
 11
22.3176
 21
-7.13292
  0
LINE
  8
0
 10
22.3176
 20
-7.13292
 11
21.4053
 21
-7.36714
  0
LINE
  8
0
 10
21.4053
 20
-7.36714
 11
20.4709
 21
-7.4852
  0
LINE
  8
0
 10
20.4709
 20
-7.4852
 11
19.5291
 21
-7.4852
  0
LINE
  8
0
 10
-20.4709
 20
-7.4852
 11
-21.4053
 21
-7.36714
  0
LINE
  8
0
 10
-21.4053
 20
-7.36714
 11
-22.3176
 21
-7.13292
  0
LINE
  8
0
 10
-22.3176
 20
-7.13292
 11
-23.1933
 21
-6.78619
  0
LINE
  8
0
 10
-23.1933
 20
-6.78619
 11
-24.0187
 21
-6.33246
  0
LINE
  8
0
 10
-24.0187
 20
-6.33246
 11
-24.7807
 21
-5.77884
  0
LINE
  8
0
 10
-24.7807
 20
-5.77884
 11
-25.4673
 21
-5.13409
  0
LINE
  8
0
 10
-25.4673
 20
-5.13409
 11
-26.0676
 21
-4.40839
  0
LINE
  8
0
 10
-26.0676
 20
-4.40839
 11
-26.5723
 21
-3.61314
  0
LINE
  8
0
 10
-26.5723
 20
-3.61314
 11
-26.9733
 21
-2.76093
  0
LINE
  8
0
 10
-26.9733
 20
-2.76093
 11
-27.2644
 21
-1.86517
  0
LINE
  8
0
 10
-27.2644
 20
-1.86517
 11
-27.4409
 21
-0.939987
  0
LINE
  8
0
 10
-27.4409
 20
-0.939987
 11
-27.5
 21
0
  0
LINE
  8
0
 10
-27.5
 20
0
 11
-27.4409
 21
0.939987
  0
LINE
  8
0
 10
-27.4409
 20
0.939987
 11
-27.2644
 21
1.86517
  0
LINE
  8
0
 10
-27.2644
 20
1.86517
 11
-26.9733
 21
2.76093
  0
LINE
  8
0
 10
-26.9733
 20
2.76093
 11
-26.5723
 21
3.61314
  0
LINE
  8
0
 10
-26.5723
 20
3.61314
 11
-26.0676
 21
4.40839
  0
LINE
  8
0
 10
-26.0676
 20
4.40839
 11
-25.4673
 21
5.13409
  0
LINE
  8
0
 10
-25.4673
 20
5.13409
 11
-24.7807
 21
5.77884
  0
LINE
  8
0
 10
-24.7807
 20
5.77884
 11
-24.0187
 21
6.33246
  0
LINE
  8
0
 10
-24.0187
 20
6.33246
 11
-23.1933
 21
6.78619
  0
LINE
  8
0
 10
-23.1933
 20
6.78619
 11
-22.3176
 21
7.13292
  0
LINE
  8
0
 10
-22.3176
 20
7.13292
 11
-21.4053
 21
7.36714
  0
LINE
  8
0
 10
-21.4053
 20
7.36714
 11
-20.4709
 21
7.4852
  0
LINE
  8
0
 10
-20.4709
 20
7.4852
 11
-19.5291
 21
7.4852
  0
LINE
  8
0
 10
-19.5291
 20
7.4852
 11
-18.5946
 21
7.36714
  0
LINE
  8
0
 10
-18.5946
 20
7.36714
 11
-17.6824
 21
7.13292
  0
LINE
  8
0
 10
-17.6824
 20
7.13292
 11
-16.8067
 21
6.78619
  0
LINE
  8
0
 10
-16.8067
 20
6.78619
 11
-15.9813
 21
6.33246
  0
LINE
  8
0
 10
-15.9813
 20
6.33246
 11
-15.2193
 21
5.77884
  0
LINE
  8
0
 10
-15.2193
 20
5.77884
 11
-14.5327
 21
5.13409
  0
LINE
  8
0
 10
-14.5327
 20
5.13409
 11
-13.9324
 21
4.40839
  0
LINE
  8
0
 10
-13.9324
 20
4.40839
 11
-13.4277
 21
3.61314
  0
LINE
  8
0
 10
-13.4277
 20
3.61314
 11
-13.0267
 21
2.76093
  0
LINE
  8
0
 10
-13.0267
 20
2.76093
 11
-12.7356
 21
1.86517
  0
LINE
  8
0
 10
-12.7356
 20
1.86517
 11
-12.5591
 21
0.939987
  0
LINE
  8
0
 10
-12.5591
 20
0.939987
 11
-12.5
 21
0
  0
LINE
  8
0
 10
-12.5
 20
0
 11
-12.5591
 21
-0.939987
  0
LINE
  8
0
 10
-12.5591
 20
-0.939987
 11
-12.7356
 21
-1.86517
  0
LINE
  8
0
 10
-12.7356
 20
-1.86517
 11
-13.0267
 21
-2.76093
  0
LINE
  8
0
 10
-13.0267
 20
-2.76093
 11
-13.4277
 21
-3.61314
  0
LINE
  8
0
 10
-13.4277
 20
-3.61314
 11
-13.9324
 21
-4.40839
  0
LINE
  8
0
 10
-13.9324
 20
-4.40839
 11
-14.5327
 21
-5.13409
  0
LINE
  8
0
 10
-14.5327
 20
-5.13409
 11
-15.2193
 21
-5.77884
  0
LINE
  8
0
 10
-15.2193
 20
-5.77884
 11
-15.9813
 21
-6.33246
  0
LINE
  8
0
 10
-15.9813
 20
-6.33246
 11
-16.8067
 21
-6.78619
  0
LINE
  8
0
 10
-16.8067
 20
-6.78619
 11
-17.6824
 21
-7.13292
  0
LINE
  8
0
 10
-17.6824
 20
-7.13292
 11
-18.5946
 21
-7.36714
  0
LINE
  8
0
 10
-18.5946
 20
-7.36714
 11
-19.5291
 21
-7.4852
  0
LINE
  8
0
 10
-19.5291
 20
-7.4852
 11
-20.4709
 21
-7.4852
  0
LINE
  8
0
 10
-0.470917
 20
-7.4852
 11
-1.40535
 21
-7.36714
  0
LINE
  8
0
 10
-1.40535
 20
-7.36714
 11
-2.31763
 21
-7.13292
  0
LINE
  8
0
 10
-2.31763
 20
-7.13292
 11
-3.19334
 21
-6.78619
  0
LINE
  8
0
 10
-3.19334
 20
-6.78619
 11
-4.01869
 21
-6.33246
  0
LINE
  8
0
 10
-4.01869
 20
-6.33246
 11
-4.78067
 21
-5.77884
  0
LINE
  8
0
 10
-4.78067
 20
-5.77884
 11
-5.46725
 21
-5.13409
  0
LINE
  8
0
 10
-5.46725
 20
-5.13409
 11
-6.06763
 21
-4.40839
  0
LINE
  8
0
 10
-6.06763
 20
-4.40839
 11
-6.5723
 21
-3.61314
  0
LINE
  8
0
 10
-6.5723
 20
-3.61314
 11
-6.97331
 21
-2.76093
  0
LINE
  8
0
 10
-6.97331
 20
-2.76093
 11
-7.26436
 21
-1.86517
  0
LINE
  8
0
 10
-7.26436
 20
-1.86517
 11
-7.44086
 21
-0.939987
  0
LINE
  8
0
 10
-7.44086
 20
-0.939987
 11
-7.5
 21
0
  0
LINE
  8
0
 10
-7.5
 20
0
 11
-7.44086
 21
0.939987
  0
LINE
  8
0
 10
-7.44086
 20
0.939987
 11
-7.26436
 21
1.86517
  0
LINE
  8
0
 10
-7.26436
 20
1.86517
 11
-6.97331
 21
2.76093
  0
LINE
  8
0
 10
-6.97331
 20
2.76093
 11
-6.5723
 21
3.61314
  0
LINE
  8
0
 10
-6.5723
 20
3.61314
 11
-6.06763
 21
4.40839
  0
LINE
  8
0
 10
-6.06763
 20
4.40839
 11
-5.46725
 21
5.13409
  0
LINE
  8
0
 10
-5.46725
 20
5.13409
 11
-4.78067
 21
5.77884
  0
LINE
  8
0
 10
-4.78067
 20
5.77884
 11
-4.01869
 21
6.33246
  0
LINE
  8
0
 10
-4.01869
 20
6.33246
 11
-3.19334
 21
6.78619
  0
LINE
  8
0
 10
-3.19334
 20
6.78619
 11
-2.31763
 21
7.13292
  0
LINE
  8
0
 10
-2.31763
 20
7.13292
 11
-1.40535
 21
7.36714
  0
LINE
  8
0
 10
-1.40535
 20
7.36714
 11
-0.470917
 21
7.4852
  0
LINE
  8
0
 10
-0.470917
 20
7.4852
 11
0.470917
 21
7.4852
  0
LINE
  8
0
 10
0.470917
 20
7.4852
 11
1.40535
 21
7.36714
  0
LINE
  8
0
 10
1.40535
 20
7.36714
 11
2.31763
 21
7.13292
  0
LINE
  8
0
 10
2.31763
 20
7.13292
 11
3.19334
 21
6.78619
  0
LINE
  8
0
 10
3.19334
 20
6.78619
 11
4.01869
 21
6.33246
  0
LINE
  8
0
 10
4.01869
 20
6.33246
 11
4.78067
 21
5.77884
  0
LINE
  8
0
 10
4.78067
 20
5.77884
 11
5.46725
 21
5.13409
  0
LINE
  8
0
 10
5.46725
 20
5.13409
 11
6.06763
 21
4.40839
  0
LINE
  8
0
 10
6.06763
 20
4.40839
 11
6.5723
 21
3.61314
  0
LINE
  8
0
 10
6.5723
 20
3.61314
 11
6.97331
 21
2.76093
  0
LINE
  8
0
 10
6.97331
 20
2.76093
 11
7.26436
 21
1.86517
  0
LINE
  8
0
 10
7.26436
 20
1.86517
 11
7.44086
 21
0.939987
  0
LINE
  8
0
 10
7.44086
 20
0.939987
 11
7.5
 21
0
  0
LINE
  8
0
 10
7.5
 20
0
 11
7.44086
 21
-0.939987
  0
LINE
  8
0
 10
7.44086
 20
-0.939987
 11
7.26436
 21
-1.86517
  0
LINE
  8
0
 10
7.26436
 20
-1.86517
 11
6.97331
 21
-2.76093
  0
LINE
  8
0
 10
6.97331
 20
-2.76093
 11
6.5723
 21
-3.61314
  0
LINE
  8
0
 10
6.5723
 20
-3.61314
 11
6.06763
 21
-4.40839
  0
LINE
  8
0
 10
6.06763
 20
-4.40839
 11
5.46725
 21
-5.13409
  0
LINE
  8
0
 10
5.46725
 20
-5.13409
 11
4.78067
 21
-5.77884
  0
LINE
  8
0
 10
4.78067
 20
-5.77884
 11
4.01869
 21
-6.33246
  0
LINE
  8
0
 10
4.01869
 20
-6.33246
 11
3.19334
 21
-6.78619
  0
LINE
  8
0
 10
3.19334
 20
-6.78619
 11
2.31763
 21
-7.13292
  0
LINE
  8
0
 10
2.31763
 20
-7.13292
 11
1.40535
 21
-7.36714
  0
LINE
  8
0
 10
1.40535
 20
-7.36714
 11
0.470917
 21
-7.4852
  0
LINE
  8
0
 10
0.470917
 20
-7.4852
 11
-0.470917
 21
-7.4852
  0
ENDSEC
  0
SECTION
  2
OBJECTS
  0
DICTIONARY
  0
ENDSEC
  0
EOF
