<?xml version="1.0" standalone="no"?>
<!DOCTYPE svg PUBLIC "-//W3C//DTD SVG 1.1//EN" "http://www.w3.org/Graphics/SVG/1.1/DTD/svg11.dtd">
<svg width="90mm" height="44mm" viewBox="-45 -76 90 44" xmlns="http://www.w3.org/2000/svg" version="1.1">
<title>OpenSCAD Model</title>
<path d="
M 40.4369,-32.0886 L 41.0451,-32.2447 L 41.6289,-32.4759 L 42.1791,-32.7784 L 42.6871,-33.1474 L 43.1448,-33.5773
 L 43.5451,-34.0611 L 43.8815,-34.5912 L 44.1489,-35.1594 L 44.3429,-35.7566 L 44.4606,-36.3733 L 44.5,-37
 L 44.5,-71 L 44.4606,-71.6267 L 44.3429,-72.2434 L 44.1489,-72.8406 L 43.8815,-73.4088 L 43.5451,-73.9389
 L 43.1448,-74.4227 L 42.6871,-74.8526 L 42.1791,-75.2216 L 41.6289,-75.5241 L 41.0451,-75.7553 L 40.4369,-75.9114
 L 39.8139,-75.9901 L -39.8139,-75.9901 L -40.4369,-75.9114 L -41.0451,-75.7553 L -41.6289,-75.5241 L -42.1791,-75.2216
 L -42.6871,-74.8526 L -43.1448,-74.4227 L -43.5451,-73.9389 L -43.8815,-73.4088 L -44.1489,-72.8406 L -44.3429,-72.2434
 L -44.4606,-71.6267 L -44.5,-71 L -44.5,-37 L -44.4606,-36.3733 L -44.3429,-35.7566 L -44.1489,-35.1594
 L -43.8815,-34.5912 L -43.5451,-34.0611 L -43.1448,-33.5773 L -42.6871,-33.1474 L -42.1791,-32.7784 L -41.6289,-32.4759
 L -41.0451,-32.2447 L -40.4369,-32.0886 L -39.8139,-32.0099 L 39.8139,-32.0099 z
M -37.6884,-66.0059 L -38.0621,-66.0531 L -38.427,-66.1468 L -38.7773,-66.2855 L -39.1075,-66.467 L -39.4123,-66.6884
 L -39.6869,-66.9464 L -39.927,-67.2366 L -40.1289,-67.5547 L -40.2893,-67.8956 L -40.4057,-68.2539 L -40.4763,-68.624
 L -40.5,-69 L -40.4763,-69.376 L -40.4057,-69.7461 L -40.2893,-70.1044 L -40.1289,-70.4453 L -39.927,-70.7634
 L -39.6869,-71.0536 L -39.4123,-71.3115 L -39.1075,-71.533 L -38.7773,-71.7145 L -38.427,-71.8532 L -38.0621,-71.9469
 L -37.6884,-71.9941 L -37.3116,-71.9941 L -36.9379,-71.9469 L -36.5729,-71.8532 L -36.2227,-71.7145 L -35.8925,-71.533
 L -35.5877,-71.3115 L -35.3131,-71.0536 L -35.0729,-70.7634 L -34.8711,-70.4453 L -34.7107,-70.1044 L -34.5942,-69.7461
 L -34.5237,-69.376 L -34.5,-69 L -34.5237,-68.624 L -34.5942,-68.2539 L -34.7107,-67.8956 L -34.8711,-67.5547
 L -35.0729,-67.2366 L -35.3131,-66.9464 L -35.5877,-66.6884 L -35.8925,-66.467 L -36.2227,-66.2855 L -36.5729,-66.1468
 L -36.9379,-66.0531 L -37.3116,-66.0059 z
M 37.3116,-66.0059 L 36.9379,-66.0531 L 36.5729,-66.1468 L 36.2227,-66.2855 L 35.8925,-66.467 L 35.5877,-66.6884
 L 35.3131,-66.9464 L 35.0729,-67.2366 L 34.8711,-67.5547 L 34.7107,-67.8956 L 34.5942,-68.2539 L 34.5237,-68.624
 L 34.5,-69 L 34.5237,-69.376 L 34.5942,-69.7461 L 34.7107,-70.1044 L 34.8711,-70.4453 L 35.0729,-70.7634
 L 35.3131,-71.0536 L 35.5877,-71.3115 L 35.8925,-71.533 L 36.2227,-71.7145 L 36.5729,-71.8532 L 36.9379,-71.9469
 L 37.3116,-71.9941 L 37.6884,-71.9941 L 38.0621,-71.9469 L 38.427,-71.8532 L 38.7773,-71.7145 L 39.1075,-71.533
 L 39.4123,-71.3115 L 39.6869,-71.0536 L 39.927,-70.7634 L 40.1289,-70.4453 L 40.2893,-70.1044 L 40.4057,-69.7461
 L 40.4763,-69.376 L 40.5,-69 L 40.4763,-68.624 L 40.4057,-68.2539 L 40.2893,-67.8956 L 40.1289,-67.5547
 L 39.927,-67.2366 L 39.6869,-66.9464 L 39.4123,-66.6884 L 39.1075,-66.467 L 38.7773,-66.2855 L 38.427,-66.1468
 L 38.0621,-66.0531 L 37.6884,-66.0059 z
M -0.753479,-42.0237 L -2.24857,-42.2126 L -3.70819,-42.5873 L -5.10934,-43.1421 L -6.42992,-43.8681 L -7.64908,-44.7538
 L -8.74762,-45.7854 L -9.70819,-46.9466 L -10.5157,-48.219 L -11.1573,-49.5825 L -11.623,-51.0157 L -11.9054,-52.496
 L -12,-54 L -11.9054,-55.504 L -11.623,-56.9843 L -11.1573,-58.4175 L -10.5157,-59.781 L -9.70819,-61.0534
 L -8.74762,-62.2146 L -7.64908,-63.2462 L -6.42992,-64.1319 L -5.10934,-64.8579 L -3.70819,-65.4127 L -2.24857,-65.7874
 L -0.753479,-65.9763 L 0.753479,-65.9763 L 2.24857,-65.7874 L 3.70819,-65.4127 L 5.10934,-64.8579 L 6.42992,-64.1319
 L 7.64908,-63.2462 L 8.74762,-62.2146 L 9.70819,-61.0534 L 10.5157,-59.781 L 11.1573,-58.4175 L 11.623,-56.9843
 L 11.9054,-55.504 L 12,-54 L 11.9054,-52.496 L 11.623,-51.0157 L 11.1573,-49.5825 L 10.5157,-48.219
 L 9.70819,-46.9466 L 8.74762,-45.7854 L 7.64908,-44.7538 L 6.42992,-43.8681 L 5.10934,-43.1421 L 3.70819,-42.5873
 L 2.24857,-42.2126 L 0.753479,-42.0237 z
M -29.7535,-42.0237 L -31.2486,-42.2126 L -32.7082,-42.5873 L -34.1093,-43.1421 L -35.4299,-43.8681 L -36.6491,-44.7538
 L -37.7476,-45.7854 L -38.7082,-46.9466 L -39.5157,-48.219 L -40.1573,-49.5825 L -40.623,-51.0157 L -40.9054,-52.496
 L -41,-54 L -40.9054,-55.504 L -40.623,-56.9843 L -40.1573,-58.4175 L -39.5157,-59.781 L -38.7082,-61.0534
 L -37.7476,-62.2146 L -36.6491,-63.2462 L -35.4299,-64.1319 L -34.1093,-64.8579 L -32.7082,-65.4127 L -31.2486,-65.7874
 L -29.7535,-65.9763 L -28.2465,-65.9763 L -26.7514,-65.7874 L -25.2918,-65.4127 L -23.8906,-64.8579 L -22.5701,-64.1319
 L -21.3509,-63.2462 L -20.2524,-62.2146 L -19.2918,-61.0534 L -18.4843,-59.781 L -17.8427,-58.4175 L -17.377,-56.9843
 L -17.0946,-55.504 L -17,-54 L -17.0946,-52.496 L -17.377,-51.0157 L -17.8427,-49.5825 L -18.4843,-48.219
 L -19.2918,-46.9466 L -20.2524,-45.7854 L -21.3509,-44.7538 L -22.5701,-43.8681 L -23.8906,-43.1421 L -25.2918,-42.5873
 L -26.7514,-42.2126 L -28.2465,-42.0237 z
M 28.2465,-42.0237 L 26.7514,-42.2126 L 25.2918,-42.5873 L 23.8906,-43.1421 L 22.5701,-43.8681 L 21.3509,-44.7538
 L 20.2524,-45.7854 L 19.2918,-46.9466 L 18.4843,-48.219 L 17.8427,-49.5825 L 17.377,-51.0157 L 17.0946,-52.496
 L 17,-54 L 17.0946,-55.504 L 17.377,-56.9843 L 17.8427,-58.4175 L 18.4843,-59.781 L 19.2918,-61.0534
 L 20.2524,-62.2146 L 21.3509,-63.2462 L 22.5701,-64.1319 L 23.8906,-64.8579 L 25.2918,-65.4127 L 26.7514,-65.7874
 L 28.2465,-65.9763 L 29.7535,-65.9763 L 31.2486,-65.7874 L 32.7082,-65.4127 L 34.1093,-64.8579 L 35.4299,-64.1319
 L 36.6491,-63.2462 L 37.7476,-62.2146 L 38.7082,-61.0534 L 39.5157,-59.781 L 40.1573,-58.4175 L 40.623,-56.9843
 L 40.9054,-55.504 L 41,-54 L 40.9054,-52.496 L 40.623,-51.0157 L 40.1573,-49.5825 L 39.5157,-48.219
 L 38.7082,-46.9466 L 37.7476,-45.7854 L 36.6491,-44.7538 L 35.4299,-43.8681 L 34.1093,-43.1421 L 32.7082,-42.5873
 L 31.2486,-42.2126 L 29.7535,-42.0237 z
M 37.3116,-36.0059 L 36.9379,-36.0531 L 36.5729,-36.1468 L 36.2227,-36.2855 L 35.8925,-36.467 L 35.5877,-36.6885
 L 35.3131,-36.9464 L 35.0729,-37.2366 L 34.8711,-37.5547 L 34.7107,-37.8956 L 34.5942,-38.2539 L 34.5237,-38.624
 L 34.5,-39 L 34.5237,-39.376 L 34.5942,-39.7461 L 34.7107,-40.1044 L 34.8711,-40.4453 L 35.0729,-40.7634
 L 35.3131,-41.0536 L 35.5877,-41.3116 L 35.8925,-41.533 L 36.2227,-41.7145 L 36.5729,-41.8532 L 36.9379,-41.9469
 L 37.3116,-41.9941 L 37.6884,-41.9941 L 38.0621,-41.9469 L 38.427,-41.8532 L 38.7773,-41.7145 L 39.1075,-41.533
 L 39.4123,-41.3116 L 39.6869,-41.0536 L 39.927,-40.7634 L 40.1289,-40.4453 L 40.2893,-40.1044 L 40.4057,-39.7461
 L 40.4763,-39.376 L 40.5,-39 L 40.4763,-38.624 L 40.4057,-38.2539 L 40.2893,-37.8956 L 40.1289,-37.5547
 L 39.927,-37.2366 L 39.6869,-36.9464 L 39.4123,-36.6885 L 39.1075,-36.467 L 38.7773,-36.2855 L 38.427,-36.1468
 L 38.0621,-36.0531 L 37.6884,-36.0059 z
M -37.6884,-36.0059 L -38.0621,-36.0531 L -38.427,-36.1468 L -38.7773,-36.2855 L -39.1075,-36.467 L -39.4123,-36.6885
 L -39.6869,-36.9464 L -39.927,-37.2366 L -40.1289,-37.5547 L -40.2893,-37.8956 L -40.4057,-38.2539 L -40.4763,-38.624
 L -40.5,-39 L -40.4763,-39.376 L -40.4057,-39.7461 L -40.2893,-40.1044 L -40.1289,-40.4453 L -39.927,-40.7634
 L -39.6869,-41.0536 L -39.4123,-41.3116 L -39.1075,-41.533 L -38.7773,-41.7145 L -38.427,-41.8532 L -38.0621,-41.9469
 L -37.6884,-41.9941 L -37.3116,-41.9941 L -36.9379,-41.9469 L -36.5729,-41.8532 L -36.2227,-41.7145 L -35.8925,-41.533
 L -35.5877,-41.3116 L -35.3131,-41.0536 L -35.0729,-40.7634 L -34.8711,-40.4453 L -34.7107,-40.1044 L -34.5942,-39.7461
 L -34.5237,-39.376 L -34.5,-39 L -34.5237,-38.624 L -34.5942,-38.2539 L -34.7107,-37.8956 L -34.8711,-37.5547
 L -35.0729,-37.2366 L -35.3131,-36.9464 L -35.5877,-36.6885 L -35.8925,-36.467 L -36.2227,-36.2855 L -36.5729,-36.1468
 L -36.9379,-36.0531 L -37.3116,-36.0059 z
" stroke="black" fill="lightgray" stroke-width="0.5"/>
</svg>
