<?xml version="1.0" standalone="no"?>
<!DOCTYPE svg PUBLIC "-//W3C//DTD SVG 1.1//EN" "http://www.w3.org/Graphics/SVG/1.1/DTD/svg11.dtd">
<svg width="60mm" height="44mm" viewBox="-30 -22 60 44" xmlns="http://www.w3.org/2000/svg" version="1.1">
<title>OpenSCAD Model</title>
<path d="
M 25.4369,21.9114 L 26.0451,21.7553 L 26.6289,21.5241 L 27.1791,21.2216 L 27.6871,20.8526 L 28.1448,20.4227
 L 28.5451,19.9389 L 28.8815,19.4088 L 29.1489,18.8406 L 29.3429,18.2434 L 29.4606,17.6267 L 29.5,17
 L 29.5,-17 L 29.4606,-17.6267 L 29.3429,-18.2434 L 29.1489,-18.8406 L 28.8815,-19.4088 L 28.5451,-19.9389
 L 28.1448,-20.4227 L 27.6871,-20.8526 L 27.1791,-21.2216 L 26.6289,-21.5241 L 26.0451,-21.7553 L 25.4369,-21.9114
 L 24.8139,-21.9901 L -24.8139,-21.9901 L -25.4369,-21.9114 L -26.0451,-21.7553 L -26.6289,-21.5241 L -27.1791,-21.2216
 L -27.6871,-20.8526 L -28.1448,-20.4227 L -28.5451,-19.9389 L -28.8815,-19.4088 L -29.1489,-18.8406 L -29.3429,-18.2434
 L -29.4606,-17.6267 L -29.5,-17 L -29.5,17 L -29.4606,17.6267 L -29.3429,18.2434 L -29.1489,18.8406
 L -28.8815,19.4088 L -28.5451,19.9389 L -28.1448,20.4227 L -27.6871,20.8526 L -27.1791,21.2216 L -26.6289,21.5241
 L -26.0451,21.7553 L -25.4369,21.9114 L -24.8139,21.9901 L 24.8139,21.9901 z
M -7.68837,-12.0059 L -8.06213,-12.0531 L -8.42705,-12.1468 L -8.77733,-12.2855 L -9.10747,-12.467 L -9.41226,-12.6884
 L -9.6869,-12.9464 L -9.92705,-13.2366 L -10.1289,-13.5547 L -10.2893,-13.8956 L -10.4057,-14.2539 L -10.4763,-14.624
 L -10.5,-15 L -10.4763,-15.376 L -10.4057,-15.7461 L -10.2893,-16.1044 L -10.1289,-16.4453 L -9.92705,-16.7634
 L -9.6869,-17.0536 L -9.41226,-17.3115 L -9.10747,-17.533 L -8.77733,-17.7145 L -8.42705,-17.8532 L -8.06213,-17.9469
 L -7.68837,-17.9941 L -7.31161,-17.9941 L -6.93785,-17.9469 L -6.57294,-17.8532 L -6.22266,-17.7145 L -5.89252,-17.533
 L -5.58772,-17.3115 L -5.31308,-17.0536 L -5.07294,-16.7634 L -4.87108,-16.4453 L -4.71066,-16.1044 L -4.59424,-15.7461
 L -4.52365,-15.376 L -4.5,-15 L -4.52365,-14.624 L -4.59424,-14.2539 L -4.71066,-13.8956 L -4.87108,-13.5547
 L -5.07294,-13.2366 L -5.31308,-12.9464 L -5.58772,-12.6884 L -5.89252,-12.467 L -6.22266,-12.2855 L -6.57294,-12.1468
 L -6.93785,-12.0531 L -7.31161,-12.0059 z
M -22.6884,-12.0059 L -23.0621,-12.0531 L -23.427,-12.1468 L -23.7773,-12.2855 L -24.1075,-12.467 L -24.4123,-12.6884
 L -24.6869,-12.9464 L -24.927,-13.2366 L -25.1289,-13.5547 L -25.2893,-13.8956 L -25.4057,-14.2539 L -25.4763,-14.624
 L -25.5,-15 L -25.4763,-15.376 L -25.4057,-15.7461 L -25.2893,-16.1044 L -25.1289,-16.4453 L -24.927,-16.7634
 L -24.6869,-17.0536 L -24.4123,-17.3115 L -24.1075,-17.533 L -23.7773,-17.7145 L -23.427,-17.8532 L -23.0621,-17.9469
 L -22.6884,-17.9941 L -22.3116,-17.9941 L -21.9379,-17.9469 L -21.5729,-17.8532 L -21.2227,-17.7145 L -20.8925,-17.533
 L -20.5877,-17.3115 L -20.3131,-17.0536 L -20.0729,-16.7634 L -19.8711,-16.4453 L -19.7107,-16.1044 L -19.5942,-15.7461
 L -19.5237,-15.376 L -19.5,-15 L -19.5237,-14.624 L -19.5942,-14.2539 L -19.7107,-13.8956 L -19.8711,-13.5547
 L -20.0729,-13.2366 L -20.3131,-12.9464 L -20.5877,-12.6884 L -20.8925,-12.467 L -21.2227,-12.2855 L -21.5729,-12.1468
 L -21.9379,-12.0531 L -22.3116,-12.0059 z
M 7.31161,-12.0059 L 6.93785,-12.0531 L 6.57294,-12.1468 L 6.22266,-12.2855 L 5.89252,-12.467 L 5.58772,-12.6884
 L 5.31308,-12.9464 L 5.07294,-13.2366 L 4.87108,-13.5547 L 4.71066,-13.8956 L 4.59424,-14.2539 L 4.52365,-14.624
 L 4.5,-15 L 4.52365,-15.376 L 4.59424,-15.7461 L 4.71066,-16.1044 L 4.87108,-16.4453 L 5.07294,-16.7634
 L 5.31308,-17.0536 L 5.58772,-17.3115 L 5.89252,-17.533 L 6.22266,-17.7145 L 6.57294,-17.8532 L 6.93785,-17.9469
 L 7.31161,-17.9941 L 7.68837,-17.9941 L 8.06213,-17.9469 L 8.42705,-17.8532 L 8.77733,-17.7145 L 9.10747,-17.533
 L 9.41226,-17.3115 L 9.6869,-17.0536 L 9.92705,-16.7634 L 10.1289,-16.4453 L 10.2893,-16.1044 L 10.4057,-15.7461
 L 10.4763,-15.376 L 10.5,-15 L 10.4763,-14.624 L 10.4057,-14.2539 L 10.2893,-13.8956 L 10.1289,-13.5547
 L 9.92705,-13.2366 L 9.6869,-12.9464 L 9.41226,-12.6884 L 9.10747,-12.467 L 8.77733,-12.2855 L 8.42705,-12.1468
 L 8.06213,-12.0531 L 7.68837,-12.0059 z
M 22.3116,-12.0059 L 21.9379,-12.0531 L 21.5729,-12.1468 L 21.2227,-12.2855 L 20.8925,-12.467 L 20.5877,-12.6884
 L 20.3131,-12.9464 L 20.0729,-13.2366 L 19.8711,-13.5547 L 19.7107,-13.8956 L 19.5942,-14.2539 L 19.5237,-14.624
 L 19.5,-15 L 19.5237,-15.376 L 19.5942,-15.7461 L 19.7107,-16.1044 L 19.8711,-16.4453 L 20.0729,-16.7634
 L 20.3131,-17.0536 L 20.5877,-17.3115 L 20.8925,-17.533 L 21.2227,-17.7145 L 21.5729,-17.8532 L 21.9379,-17.9469
 L 22.3116,-17.9941 L 22.6884,-17.9941 L 23.0621,-17.9469 L 23.427,-17.8532 L 23.7773,-17.7145 L 24.1075,-17.533
 L 24.4123,-17.3115 L 24.6869,-17.0536 L 24.927,-16.7634 L 25.1289,-16.4453 L 25.2893,-16.1044 L 25.4057,-15.7461
 L 25.4763,-15.376 L 25.5,-15 L 25.4763,-14.624 L 25.4057,-14.2539 L 25.2893,-13.8956 L 25.1289,-13.5547
 L 24.927,-13.2366 L 24.6869,-12.9464 L 24.4123,-12.6884 L 24.1075,-12.467 L 23.7773,-12.2855 L 23.427,-12.1468
 L 23.0621,-12.0531 L 22.6884,-12.0059 z
M -15.0942,-13.5029 L -15.2811,-13.5266 L -15.4635,-13.5734 L -15.6387,-13.6427 L -15.8037,-13.7335 L -15.9561,-13.8442
 L -16.0934,-13.9732 L -16.2135,-14.1183 L -16.3145,-14.2774 L -16.3947,-14.4478 L -16.4529,-14.627 L -16.4882,-14.812
 L -16.5,-15 L -16.4882,-15.188 L -16.4529,-15.373 L -16.3947,-15.5522 L -16.3145,-15.7226 L -16.2135,-15.8817
 L -16.0934,-16.0268 L -15.9561,-16.1558 L -15.8037,-16.2665 L -15.6387,-16.3572 L -15.4635,-16.4266 L -15.2811,-16.4734
 L -15.0942,-16.497 L -14.9058,-16.497 L -14.7189,-16.4734 L -14.5365,-16.4266 L -14.3613,-16.3572 L -14.1963,-16.2665
 L -14.0439,-16.1558 L -13.9065,-16.0268 L -13.7865,-15.8817 L -13.6855,-15.7226 L -13.6053,-15.5522 L -13.5471,-15.373
 L -13.5118,-15.188 L -13.5,-15 L -13.5118,-14.812 L -13.5471,-14.627 L -13.6053,-14.4478 L -13.6855,-14.2774
 L -13.7865,-14.1183 L -13.9065,-13.9732 L -14.0439,-13.8442 L -14.1963,-13.7335 L -14.3613,-13.6427 L -14.5365,-13.5734
 L -14.7189,-13.5266 L -14.9058,-13.5029 z
M -0.0941772,-13.5029 L -0.281067,-13.5266 L -0.463516,-13.5734 L -0.638657,-13.6427 L -0.803726,-13.7335 L -0.956131,-13.8442
 L -1.09344,-13.9732 L -1.21352,-14.1183 L -1.31445,-14.2774 L -1.39465,-14.4478 L -1.45287,-14.627 L -1.48816,-14.812
 L -1.5,-15 L -1.48816,-15.188 L -1.45287,-15.373 L -1.39465,-15.5522 L -1.31445,-15.7226 L -1.21352,-15.8817
 L -1.09344,-16.0268 L -0.956131,-16.1558 L -0.803726,-16.2665 L -0.638657,-16.3572 L -0.463516,-16.4266 L -0.281067,-16.4734
 L -0.0941772,-16.497 L 0.0941772,-16.497 L 0.281067,-16.4734 L 0.463516,-16.4266 L 0.638657,-16.3572 L 0.803726,-16.2665
 L 0.956131,-16.1558 L 1.09344,-16.0268 L 1.21352,-15.8817 L 1.31445,-15.7226 L 1.39465,-15.5522 L 1.45287,-15.373
 L 1.48816,-15.188 L 1.5,-15 L 1.48816,-14.812 L 1.45287,-14.627 L 1.39465,-14.4478 L 1.31445,-14.2774
 L 1.21352,-14.1183 L 1.09344,-13.9732 L 0.956131,-13.8442 L 0.803726,-13.7335 L 0.638657,-13.6427 L 0.463516,-13.5734
 L 0.281067,-13.5266 L 0.0941772,-13.5029 z
M 14.9058,-13.5029 L 14.7189,-13.5266 L 14.5365,-13.5734 L 14.3613,-13.6427 L 14.1963,-13.7335 L 14.0439,-13.8442
 L 13.9065,-13.9732 L 13.7865,-14.1183 L 13.6855,-14.2774 L 13.6053,-14.4478 L 13.5471,-14.627 L 13.5118,-14.812
 L 13.5,-15 L 13.5118,-15.188 L 13.5471,-15.373 L 13.6053,-15.5522 L 13.6855,-15.7226 L 13.7865,-15.8817
 L 13.9065,-16.0268 L 14.0439,-16.1558 L 14.1963,-16.2665 L 14.3613,-16.3572 L 14.5365,-16.4266 L 14.7189,-16.4734
 L 14.9058,-16.497 L 15.0942,-16.497 L 15.2811,-16.4734 L 15.4635,-16.4266 L 15.6387,-16.3572 L 15.8037,-16.2665
 L 15.9561,-16.1558 L 16.0934,-16.0268 L 16.2135,-15.8817 L 16.3145,-15.7226 L 16.3947,-15.5522 L 16.4529,-15.373
 L 16.4882,-15.188 L 16.5,-15 L 16.4882,-14.812 L 16.4529,-14.627 L 16.3947,-14.4478 L 16.3145,-14.2774
 L 16.2135,-14.1183 L 16.0934,-13.9732 L 15.9561,-13.8442 L 15.8037,-13.7335 L 15.6387,-13.6427 L 15.4635,-13.5734
 L 15.2811,-13.5266 L 15.0942,-13.5029 z
M 18.5605,6.98618 L 17.6883,6.87601 L 16.8369,6.65739 L 16.0195,6.33379 L 15.2492,5.91029 L 14.538,5.39359
 L 13.8972,4.79182 L 13.3369,4.11449 L 12.8658,3.37227 L 12.4916,2.57686 L 12.2199,1.74081 L 12.0552,0.877319
 L 12,-0 L 12.0552,-0.877319 L 12.2199,-1.74081 L 12.4916,-2.57686 L 12.8658,-3.37227 L 13.3369,-4.11449
 L 13.8972,-4.79182 L 14.538,-5.39359 L 15.2492,-5.91029 L 16.0195,-6.33379 L 16.8369,-6.65739 L 17.6883,-6.87601
 L 18.5605,-6.98618 L 19.4395,-6.98618 L 20.3117,-6.87601 L 21.1631,-6.65739 L 21.9805,-6.33379 L 22.7508,-5.91029
 L 23.462,-5.39359 L 24.1028,-4.79182 L 24.6631,-4.11449 L 25.1341,-3.37227 L 25.5084,-2.57686 L 25.7801,-1.74081
 L 25.9448,-0.877319 L 26,-0 L 25.9448,0.877319 L 25.7801,1.74081 L 25.5084,2.57686 L 25.1341,3.37227
 L 24.6631,4.11449 L 24.1028,4.79182 L 23.462,5.39359 L 22.7508,5.91029 L 21.9805,6.33379 L 21.1631,6.65739
 L 20.3117,6.87601 L 19.4395,6.98618 z
M -0.439529,6.98618 L -1.31166,6.87601 L -2.16312,6.65739 L -2.98045,6.33379 L -3.75078,5.91029 L -4.46196,5.39359
 L -5.10277,4.79182 L -5.66312,4.11449 L -6.13414,3.37227 L -6.50842,2.57686 L -6.78008,1.74081 L -6.94479,0.877319
 L -7,-0 L -6.94479,-0.877319 L -6.78008,-1.74081 L -6.50842,-2.57686 L -6.13414,-3.37227 L -5.66312,-4.11449
 L -5.10277,-4.79182 L -4.46196,-5.39359 L -3.75078,-5.91029 L -2.98045,-6.33379 L -2.16312,-6.65739 L -1.31166,-6.87601
 L -0.439529,-6.98618 L 0.439529,-6.98618 L 1.31166,-6.87601 L 2.16312,-6.65739 L 2.98045,-6.33379 L 3.75078,-5.91029
 L 4.46196,-5.39359 L 5.10277,-4.79182 L 5.66312,-4.11449 L 6.13414,-3.37227 L 6.50842,-2.57686 L 6.78008,-1.74081
 L 6.94479,-0.877319 L 7,-0 L 6.94479,0.877319 L 6.78008,1.74081 L 6.50842,2.57686 L 6.13414,3.37227
 L 5.66312,4.11449 L 5.10277,4.79182 L 4.46196,5.39359 L 3.75078,5.91029 L 2.98045,6.33379 L 2.16312,6.65739
 L 1.31166,6.87601 L 0.439529,6.98618 z
M -19.4395,6.98618 L -20.3117,6.87601 L -21.1631,6.65739 L -21.9805,6.33379 L -22.7508,5.91029 L -23.462,5.39359
 L -24.1028,4.79182 L -24.6631,4.11449 L -25.1341,3.37227 L -25.5084,2.57686 L -25.7801,1.74081 L -25.9448,0.877319
 L -26,-0 L -25.9448,-0.877319 L -25.7801,-1.74081 L -25.5084,-2.57686 L -25.1341,-3.37227 L -24.6631,-4.11449
 L -24.1028,-4.79182 L -23.462,-5.39359 L -22.7508,-5.91029 L -21.9805,-6.33379 L -21.1631,-6.65739 L -20.3117,-6.87601
 L -19.4395,-6.98618 L -18.5605,-6.98618 L -17.6883,-6.87601 L -16.8369,-6.65739 L -16.0195,-6.33379 L -15.2492,-5.91029
 L -14.538,-5.39359 L -13.8972,-4.79182 L -13.3369,-4.11449 L -12.8658,-3.37227 L -12.4916,-2.57686 L -12.2199,-1.74081
 L -12.0552,-0.877319 L -12,-0 L -12.0552,0.877319 L -12.2199,1.74081 L -12.4916,2.57686 L -12.8658,3.37227
 L -13.3369,4.11449 L -13.8972,4.79182 L -14.538,5.39359 L -15.2492,5.91029 L -16.0195,6.33379 L -16.8369,6.65739
 L -17.6883,6.87601 L -18.5605,6.98618 z
M 7.31161,17.9941 L 6.93785,17.9469 L 6.57294,17.8532 L 6.22266,17.7145 L 5.89252,17.533 L 5.58772,17.3115
 L 5.31308,17.0536 L 5.07294,16.7634 L 4.87108,16.4453 L 4.71066,16.1044 L 4.59424,15.7461 L 4.52365,15.376
 L 4.5,15 L 4.52365,14.624 L 4.59424,14.2539 L 4.71066,13.8956 L 4.87108,13.5547 L 5.07294,13.2366
 L 5.31308,12.9464 L 5.58772,12.6884 L 5.89252,12.467 L 6.22266,12.2855 L 6.57294,12.1468 L 6.93785,12.0531
 L 7.31161,12.0059 L 7.68837,12.0059 L 8.06213,12.0531 L 8.42705,12.1468 L 8.77733,12.2855 L 9.10747,12.467
 L 9.41226,12.6884 L 9.6869,12.9464 L 9.92705,13.2366 L 10.1289,13.5547 L 10.2893,13.8956 L 10.4057,14.2539
 L 10.4763,14.624 L 10.5,15 L 10.4763,15.376 L 10.4057,15.7461 L 10.2893,16.1044 L 10.1289,16.4453
 L 9.92705,16.7634 L 9.6869,17.0536 L 9.41226,17.3115 L 9.10747,17.533 L 8.77733,17.7145 L 8.42705,17.8532
 L 8.06213,17.9469 L 7.68837,17.9941 z
M -7.68837,17.9941 L -8.06213,17.9469 L -8.42705,17.8532 L -8.77733,17.7145 L -9.10747,17.533 L -9.41226,17.3115
 L -9.6869,17.0536 L -9.92705,16.7634 L -10.1289,16.4453 L -10.2893,16.1044 L -10.4057,15.7461 L -10.4763,15.376
 L -10.5,15 L -10.4763,14.624 L -10.4057,14.2539 L -10.2893,13.8956 L -10.1289,13.5547 L -9.92705,13.2366
 L -9.6869,12.9464 L -9.41226,12.6884 L -9.10747,12.467 L -8.77733,12.2855 L -8.42705,12.1468 L -8.06213,12.0531
 L -7.68837,12.0059 L -7.31161,12.0059 L -6.93785,12.0531 L -6.57294,12.1468 L -6.22266,12.2855 L -5.89252,12.467
 L -5.58772,12.6884 L -5.31308,12.9464 L -5.07294,13.2366 L -4.87108,13.5547 L -4.71066,13.8956 L -4.59424,14.2539
 L -4.52365,14.624 L -4.5,15 L -4.52365,15.376 L -4.59424,15.7461 L -4.71066,16.1044 L -4.87108,16.4453
 L -5.07294,16.7634 L -5.31308,17.0536 L -5.58772,17.3115 L -5.89252,17.533 L -6.22266,17.7145 L -6.57294,17.8532
 L -6.93785,17.9469 L -7.31161,17.9941 z
M -22.6884,17.9941 L -23.0621,17.9469 L -23.427,17.8532 L -23.7773,17.7145 L -24.1075,17.533 L -24.4123,17.3115
 L -24.6869,17.0536 L -24.927,16.7634 L -25.1289,16.4453 L -25.2893,16.1044 L -25.4057,15.7461 L -25.4763,15.376
 L -25.5,15 L -25.4763,14.624 L -25.4057,14.2539 L -25.2893,13.8956 L -25.1289,13.5547 L -24.927,13.2366
 L -24.6869,12.9464 L -24.4123,12.6884 L -24.1075,12.467 L -23.7773,12.2855 L -23.427,12.1468 L -23.0621,12.0531
 L -22.6884,12.0059 L -22.3116,12.0059 L -21.9379,12.0531 L -21.5729,12.1468 L -21.2227,12.2855 L -20.8925,12.467
 L -20.5877,12.6884 L -20.3131,12.9464 L -20.0729,13.2366 L -19.8711,13.5547 L -19.7107,13.8956 L -19.5942,14.2539
 L -19.5237,14.624 L -19.5,15 L -19.5237,15.376 L -19.5942,15.7461 L -19.7107,16.1044 L -19.8711,16.4453
 L -20.0729,16.7634 L -20.3131,17.0536 L -20.5877,17.3115 L -20.8925,17.533 L -21.2227,17.7145 L -21.5729,17.8532
 L -21.9379,17.9469 L -22.3116,17.9941 z
M 22.3116,17.9941 L 21.9379,17.9469 L 21.5729,17.8532 L 21.2227,17.7145 L 20.8925,17.533 L 20.5877,17.3115
 L 20.3131,17.0536 L 20.0729,16.7634 L 19.8711,16.4453 L 19.7107,16.1044 L 19.5942,15.7461 L 19.5237,15.376
 L 19.5,15 L 19.5237,14.624 L 19.5942,14.2539 L 19.7107,13.8956 L 19.8711,13.5547 L 20.0729,13.2366
 L 20.3131,12.9464 L 20.5877,12.6884 L 20.8925,12.467 L 21.2227,12.2855 L 21.5729,12.1468 L 21.9379,12.0531
 L 22.3116,12.0059 L 22.6884,12.0059 L 23.0621,12.0531 L 23.427,12.1468 L 23.7773,12.2855 L 24.1075,12.467
 L 24.4123,12.6884 L 24.6869,12.9464 L 24.927,13.2366 L 25.1289,13.5547 L 25.2893,13.8956 L 25.4057,14.2539
 L 25.4763,14.624 L 25.5,15 L 25.4763,15.376 L 25.4057,15.7461 L 25.2893,16.1044 L 25.1289,16.4453
 L 24.927,16.7634 L 24.6869,17.0536 L 24.4123,17.3115 L 24.1075,17.533 L 23.7773,17.7145 L 23.427,17.8532
 L 23.0621,17.9469 L 22.6884,17.9941 z
M -15.0942,16.497 L -15.2811,16.4734 L -15.4635,16.4266 L -15.6387,16.3572 L -15.8037,16.2665 L -15.9561,16.1558
 L -16.0934,16.0268 L -16.2135,15.8817 L -16.3145,15.7226 L -16.3947,15.5522 L -16.4529,15.373 L -16.4882,15.188
 L -16.5,15 L -16.4882,14.812 L -16.4529,14.627 L -16.3947,14.4478 L -16.3145,14.2774 L -16.2135,14.1183
 L -16.0934,13.9732 L -15.9561,13.8442 L -15.8037,13.7335 L -15.6387,13.6427 L -15.4635,13.5734 L -15.2811,13.5266
 L -15.0942,13.5029 L -14.9058,13.5029 L -14.7189,13.5266 L -14.5365,13.5734 L -14.3613,13.6427 L -14.1963,13.7335
 L -14.0439,13.8442 L -13.9065,13.9732 L -13.7865,14.1183 L -13.6855,14.2774 L -13.6053,14.4478 L -13.5471,14.627
 L -13.5118,14.812 L -13.5,15 L -13.5118,15.188 L -13.5471,15.373 L -13.6053,15.5522 L -13.6855,15.7226
 L -13.7865,15.8817 L -13.9065,16.0268 L -14.0439,16.1558 L -14.1963,16.2665 L -14.3613,16.3572 L -14.5365,16.4266
 L -14.7189,16.4734 L -14.9058,16.497 z
M -0.0941772,16.497 L -0.281067,16.4734 L -0.463516,16.4266 L -0.638657,16.3572 L -0.803726,16.2665 L -0.956131,16.1558
 L -1.09344,16.0268 L -1.21352,15.8817 L -1.31445,15.7226 L -1.39465,15.5522 L -1.45287,15.373 L -1.48816,15.188
 L -1.5,15 L -1.48816,14.812 L -1.45287,14.627 L -1.39465,14.4478 L -1.31445,14.2774 L -1.21352,14.1183
 L -1.09344,13.9732 L -0.956131,13.8442 L -0.803726,13.7335 L -0.638657,13.6427 L -0.463516,13.5734 L -0.281067,13.5266
 L -0.0941772,13.5029 L 0.0941772,13.5029 L 0.281067,13.5266 L 0.463516,13.5734 L 0.638657,13.6427 L 0.803726,13.7335
 L 0.956131,13.8442 L 1.09344,13.9732 L 1.21352,14.1183 L 1.31445,14.2774 L 1.39465,14.4478 L 1.45287,14.627
 L 1.48816,14.812 L 1.5,15 L 1.48816,15.188 L 1.45287,15.373 L 1.39465,15.5522 L 1.31445,15.7226
 L 1.21352,15.8817 L 1.09344,16.0268 L 0.956131,16.1558 L 0.803726,16.2665 L 0.638657,16.3572 L 0.463516,16.4266
 L 0.281067,16.4734 L 0.0941772,16.497 z
M 14.9058,16.497 L 14.7189,16.4734 L 14.5365,16.4266 L 14.3613,16.3572 L 14.1963,16.2665 L 14.0439,16.1558
 L 13.9065,16.0268 L 13.7865,15.8817 L 13.6855,15.7226 L 13.6053,15.5522 L 13.5471,15.373 L 13.5118,15.188
 L 13.5,15 L 13.5118,14.812 L 13.5471,14.627 L 13.6053,14.4478 L 13.6855,14.2774 L 13.7865,14.1183
 L 13.9065,13.9732 L 14.0439,13.8442 L 14.1963,13.7335 L 14.3613,13.6427 L 14.5365,13.5734 L 14.7189,13.5266
 L 14.9058,13.5029 L 15.0942,13.5029 L 15.2811,13.5266 L 15.4635,13.5734 L 15.6387,13.6427 L 15.8037,13.7335
 L 15.9561,13.8442 L 16.0934,13.9732 L 16.2135,14.1183 L 16.3145,14.2774 L 16.3947,14.4478 L 16.4529,14.627
 L 16.4882,14.812 L 16.5,15 L 16.4882,15.188 L 16.4529,15.373 L 16.3947,15.5522 L 16.3145,15.7226
 L 16.2135,15.8817 L 16.0934,16.0268 L 15.9561,16.1558 L 15.8037,16.2665 L 15.6387,16.3572 L 15.4635,16.4266
 L 15.2811,16.4734 L 15.0942,16.497 z
" stroke="black" fill="lightgray" stroke-width="0.5"/>
</svg>
