<?xml version="1.0" standalone="no"?>
<!DOCTYPE svg PUBLIC "-//W3C//DTD SVG 1.1//EN" "http://www.w3.org/Graphics/SVG/1.1/DTD/svg11.dtd">
<svg width="194mm" height="74mm" viewBox="-97 -37 194 74" xmlns="http://www.w3.org/2000/svg" version="1.1">
<title>OpenSCAD Model</title>
<path d="
M 92.9369,36.9114 L 93.5451,36.7553 L 94.1289,36.5241 L 94.6791,36.2216 L 95.1871,35.8526 L 95.6448,35.4227
 L 96.0451,34.9389 L 96.3815,34.4088 L 96.6489,33.8406 L 96.8429,33.2434 L 96.9606,32.6267 L 97,32
 L 97,-32 L 96.9606,-32.6267 L 96.8429,-33.2434 L 96.6489,-33.8406 L 96.3815,-34.4088 L 96.0451,-34.9389
 L 95.6448,-35.4227 L 95.1871,-35.8526 L 94.6791,-36.2216 L 94.1289,-36.5241 L 93.5451,-36.7553 L 92.9369,-36.9114
 L 92.3139,-36.9901 L -92.3139,-36.9901 L -92.9369,-36.9114 L -93.5451,-36.7553 L -94.1289,-36.5241 L -94.6791,-36.2216
 L -95.1871,-35.8526 L -95.6448,-35.4227 L -96.0451,-34.9389 L -96.3815,-34.4088 L -96.6489,-33.8406 L -96.8429,-33.2434
 L -96.9606,-32.6267 L -97,-32 L -97,32 L -96.9606,32.6267 L -96.8429,33.2434 L -96.6489,33.8406
 L -96.3815,34.4088 L -96.0451,34.9389 L -95.6448,35.4227 L -95.1871,35.8526 L -94.6791,36.2216 L -94.1289,36.5241
 L -93.5451,36.7553 L -92.9369,36.9114 L -92.3139,36.9901 L 92.3139,36.9901 z
M -90.1884,-27.0059 L -90.5621,-27.0531 L -90.927,-27.1468 L -91.2773,-27.2855 L -91.6075,-27.467 L -91.9123,-27.6884
 L -92.1869,-27.9464 L -92.427,-28.2366 L -92.6289,-28.5547 L -92.7893,-28.8956 L -92.9057,-29.2539 L -92.9763,-29.624
 L -93,-30 L -92.9763,-30.376 L -92.9057,-30.7461 L -92.7893,-31.1044 L -92.6289,-31.4453 L -92.427,-31.7634
 L -92.1869,-32.0536 L -91.9123,-32.3115 L -91.6075,-32.533 L -91.2773,-32.7145 L -90.927,-32.8532 L -90.5621,-32.9469
 L -90.1884,-32.9941 L -89.8116,-32.9941 L -89.4379,-32.9469 L -89.073,-32.8532 L -88.7227,-32.7145 L -88.3925,-32.533
 L -88.0877,-32.3115 L -87.8131,-32.0536 L -87.573,-31.7634 L -87.3711,-31.4453 L -87.2107,-31.1044 L -87.0943,-30.7461
 L -87.0237,-30.376 L -87,-30 L -87.0237,-29.624 L -87.0943,-29.2539 L -87.2107,-28.8956 L -87.3711,-28.5547
 L -87.573,-28.2366 L -87.8131,-27.9464 L -88.0877,-27.6884 L -88.3925,-27.467 L -88.7227,-27.2855 L -89.073,-27.1468
 L -89.4379,-27.0531 L -89.8116,-27.0059 z
M 89.8116,-27.0059 L 89.4379,-27.0531 L 89.073,-27.1468 L 88.7227,-27.2855 L 88.3925,-27.467 L 88.0877,-27.6884
 L 87.8131,-27.9464 L 87.573,-28.2366 L 87.3711,-28.5547 L 87.2107,-28.8956 L 87.0943,-29.2539 L 87.0237,-29.624
 L 87,-30 L 87.0237,-30.376 L 87.0943,-30.7461 L 87.2107,-31.1044 L 87.3711,-31.4453 L 87.573,-31.7634
 L 87.8131,-32.0536 L 88.0877,-32.3115 L 88.3925,-32.533 L 88.7227,-32.7145 L 89.073,-32.8532 L 89.4379,-32.9469
 L 89.8116,-32.9941 L 90.1884,-32.9941 L 90.5621,-32.9469 L 90.927,-32.8532 L 91.2773,-32.7145 L 91.6075,-32.533
 L 91.9123,-32.3115 L 92.1869,-32.0536 L 92.427,-31.7634 L 92.6289,-31.4453 L 92.7893,-31.1044 L 92.9057,-30.7461
 L 92.9763,-30.376 L 93,-30 L 92.9763,-29.624 L 92.9057,-29.2539 L 92.7893,-28.8956 L 92.6289,-28.5547
 L 92.427,-28.2366 L 92.1869,-27.9464 L 91.9123,-27.6884 L 91.6075,-27.467 L 91.2773,-27.2855 L 90.927,-27.1468
 L 90.5621,-27.0531 L 90.1884,-27.0059 z
M -60.6953,26.9467 L -64.0593,26.5217 L -67.3435,25.6785 L -70.496,24.4303 L -73.4673,22.7968 L -76.2104,20.8038
 L -78.6821,18.4828 L -80.8435,15.8702 L -82.6603,13.0073 L -84.104,9.93936 L -85.1517,6.71461 L -85.7871,3.38399
 L -86,-0 L -85.7871,-3.38399 L -85.1517,-6.71461 L -84.104,-9.93936 L -82.6603,-13.0073 L -80.8435,-15.8702
 L -78.6821,-18.4828 L -76.2104,-20.8038 L -73.4673,-22.7968 L -70.496,-24.4303 L -67.3435,-25.6785 L -64.0593,-26.5217
 L -60.6953,-26.9467 L -57.3047,-26.9467 L -53.9407,-26.5217 L -50.6565,-25.6785 L -47.504,-24.4303 L -44.5327,-22.7968
 L -41.7896,-20.8038 L -39.3178,-18.4828 L -37.1565,-15.8702 L -35.3397,-13.0073 L -33.896,-9.93936 L -32.8483,-6.71461
 L -32.2129,-3.38399 L -32,-0 L -32.2129,3.38399 L -32.8483,6.71461 L -33.896,9.93936 L -35.3397,13.0073
 L -37.1565,15.8702 L -39.3178,18.4828 L -41.7896,20.8038 L -44.5327,22.7968 L -47.504,24.4303 L -50.6565,25.6785
 L -53.9407,26.5217 L -57.3047,26.9467 z
M -1.69534,26.9467 L -5.05928,26.5217 L -8.34344,25.6785 L -11.496,24.4303 L -14.4673,22.7968 L -17.2104,20.8038
 L -19.6821,18.4828 L -21.8434,15.8702 L -23.6603,13.0073 L -25.104,9.93936 L -26.1517,6.71461 L -26.7871,3.38399
 L -27,-0 L -26.7871,-3.38399 L -26.1517,-6.71461 L -25.104,-9.93936 L -23.6603,-13.0073 L -21.8434,-15.8702
 L -19.6821,-18.4828 L -17.2104,-20.8038 L -14.4673,-22.7968 L -11.496,-24.4303 L -8.34344,-25.6785 L -5.05928,-26.5217
 L -1.69534,-26.9467 L 1.69534,-26.9467 L 5.05928,-26.5217 L 8.34344,-25.6785 L 11.496,-24.4303 L 14.4673,-22.7968
 L 17.2104,-20.8038 L 19.6821,-18.4828 L 21.8434,-15.8702 L 23.6603,-13.0073 L 25.104,-9.93936 L 26.1517,-6.71461
 L 26.7871,-3.38399 L 27,-0 L 26.7871,3.38399 L 26.1517,6.71461 L 25.104,9.93936 L 23.6603,13.0073
 L 21.8434,15.8702 L 19.6821,18.4828 L 17.2104,20.8038 L 14.4673,22.7968 L 11.496,24.4303 L 8.34344,25.6785
 L 5.05928,26.5217 L 1.69534,26.9467 z
M 57.3047,26.9467 L 53.9407,26.5217 L 50.6565,25.6785 L 47.504,24.4303 L 44.5327,22.7968 L 41.7896,20.8038
 L 39.3178,18.4828 L 37.1565,15.8702 L 35.3397,13.0073 L 33.896,9.93936 L 32.8483,6.71461 L 32.2129,3.38399
 L 32,-0 L 32.2129,-3.38399 L 32.8483,-6.71461 L 33.896,-9.93936 L 35.3397,-13.0073 L 37.1565,-15.8702
 L 39.3178,-18.4828 L 41.7896,-20.8038 L 44.5327,-22.7968 L 47.504,-24.4303 L 50.6565,-25.6785 L 53.9407,-26.5217
 L 57.3047,-26.9467 L 60.6953,-26.9467 L 64.0593,-26.5217 L 67.3435,-25.6785 L 70.496,-24.4303 L 73.4673,-22.7968
 L 76.2104,-20.8038 L 78.6821,-18.4828 L 80.8435,-15.8702 L 82.6603,-13.0073 L 84.104,-9.93936 L 85.1517,-6.71461
 L 85.7871,-3.38399 L 86,-0 L 85.7871,3.38399 L 85.1517,6.71461 L 84.104,9.93936 L 82.6603,13.0073
 L 80.8435,15.8702 L 78.6821,18.4828 L 76.2104,20.8038 L 73.4673,22.7968 L 70.496,24.4303 L 67.3435,25.6785
 L 64.0593,26.5217 L 60.6953,26.9467 z
M -90.0942,-21.003 L -90.2811,-21.0266 L -90.4635,-21.0734 L -90.6387,-21.1427 L -90.8037,-21.2335 L -90.9561,-21.3442
 L -91.0934,-21.4732 L -91.2135,-21.6183 L -91.3145,-21.7774 L -91.3947,-21.9478 L -91.4529,-22.127 L -91.4882,-22.312
 L -91.5,-22.5 L -91.4882,-22.688 L -91.4529,-22.873 L -91.3947,-23.0522 L -91.3145,-23.2226 L -91.2135,-23.3817
 L -91.0934,-23.5268 L -90.9561,-23.6558 L -90.8037,-23.7665 L -90.6387,-23.8572 L -90.4635,-23.9266 L -90.2811,-23.9734
 L -90.0942,-23.997 L -89.9058,-23.997 L -89.7189,-23.9734 L -89.5365,-23.9266 L -89.3613,-23.8572 L -89.1963,-23.7665
 L -89.0439,-23.6558 L -88.9065,-23.5268 L -88.7865,-23.3817 L -88.6855,-23.2226 L -88.6053,-23.0522 L -88.5471,-22.873
 L -88.5118,-22.688 L -88.5,-22.5 L -88.5118,-22.312 L -88.5471,-22.127 L -88.6053,-21.9478 L -88.6855,-21.7774
 L -88.7865,-21.6183 L -88.9065,-21.4732 L -89.0439,-21.3442 L -89.1963,-21.2335 L -89.3613,-21.1427 L -89.5365,-21.0734
 L -89.7189,-21.0266 L -89.9058,-21.003 z
M 89.9058,-21.003 L 89.7189,-21.0266 L 89.5365,-21.0734 L 89.3613,-21.1427 L 89.1963,-21.2335 L 89.0439,-21.3442
 L 88.9065,-21.4732 L 88.7865,-21.6183 L 88.6855,-21.7774 L 88.6053,-21.9478 L 88.5471,-22.127 L 88.5118,-22.312
 L 88.5,-22.5 L 88.5118,-22.688 L 88.5471,-22.873 L 88.6053,-23.0522 L 88.6855,-23.2226 L 88.7865,-23.3817
 L 88.9065,-23.5268 L 89.0439,-23.6558 L 89.1963,-23.7665 L 89.3613,-23.8572 L 89.5365,-23.9266 L 89.7189,-23.9734
 L 89.9058,-23.997 L 90.0942,-23.997 L 90.2811,-23.9734 L 90.4635,-23.9266 L 90.6387,-23.8572 L 90.8037,-23.7665
 L 90.9561,-23.6558 L 91.0934,-23.5268 L 91.2135,-23.3817 L 91.3145,-23.2226 L 91.3947,-23.0522 L 91.4529,-22.873
 L 91.4882,-22.688 L 91.5,-22.5 L 91.4882,-22.312 L 91.4529,-22.127 L 91.3947,-21.9478 L 91.3145,-21.7774
 L 91.2135,-21.6183 L 91.0934,-21.4732 L 90.9561,-21.3442 L 90.8037,-21.2335 L 90.6387,-21.1427 L 90.4635,-21.0734
 L 90.2811,-21.0266 L 90.0942,-21.003 z
M 89.8116,-12.0059 L 89.4379,-12.0531 L 89.073,-12.1468 L 88.7227,-12.2855 L 88.3925,-12.467 L 88.0877,-12.6884
 L 87.8131,-12.9464 L 87.573,-13.2366 L 87.3711,-13.5547 L 87.2107,-13.8956 L 87.0943,-14.2539 L 87.0237,-14.624
 L 87,-15 L 87.0237,-15.376 L 87.0943,-15.7461 L 87.2107,-16.1044 L 87.3711,-16.4453 L 87.573,-16.7634
 L 87.8131,-17.0536 L 88.0877,-17.3115 L 88.3925,-17.533 L 88.7227,-17.7145 L 89.073,-17.8532 L 89.4379,-17.9469
 L 89.8116,-17.9941 L 90.1884,-17.9941 L 90.5621,-17.9469 L 90.927,-17.8532 L 91.2773,-17.7145 L 91.6075,-17.533
 L 91.9123,-17.3115 L 92.1869,-17.0536 L 92.427,-16.7634 L 92.6289,-16.4453 L 92.7893,-16.1044 L 92.9057,-15.7461
 L 92.9763,-15.376 L 93,-15 L 92.9763,-14.624 L 92.9057,-14.2539 L 92.7893,-13.8956 L 92.6289,-13.5547
 L 92.427,-13.2366 L 92.1869,-12.9464 L 91.9123,-12.6884 L 91.6075,-12.467 L 91.2773,-12.2855 L 90.927,-12.1468
 L 90.5621,-12.0531 L 90.1884,-12.0059 z
M -90.1884,-12.0059 L -90.5621,-12.0531 L -90.927,-12.1468 L -91.2773,-12.2855 L -91.6075,-12.467 L -91.9123,-12.6884
 L -92.1869,-12.9464 L -92.427,-13.2366 L -92.6289,-13.5547 L -92.7893,-13.8956 L -92.9057,-14.2539 L -92.9763,-14.624
 L -93,-15 L -92.9763,-15.376 L -92.9057,-15.7461 L -92.7893,-16.1044 L -92.6289,-16.4453 L -92.427,-16.7634
 L -92.1869,-17.0536 L -91.9123,-17.3115 L -91.6075,-17.533 L -91.2773,-17.7145 L -90.927,-17.8532 L -90.5621,-17.9469
 L -90.1884,-17.9941 L -89.8116,-17.9941 L -89.4379,-17.9469 L -89.073,-17.8532 L -88.7227,-17.7145 L -88.3925,-17.533
 L -88.0877,-17.3115 L -87.8131,-17.0536 L -87.573,-16.7634 L -87.3711,-16.4453 L -87.2107,-16.1044 L -87.0943,-15.7461
 L -87.0237,-15.376 L -87,-15 L -87.0237,-14.624 L -87.0943,-14.2539 L -87.2107,-13.8956 L -87.3711,-13.5547
 L -87.573,-13.2366 L -87.8131,-12.9464 L -88.0877,-12.6884 L -88.3925,-12.467 L -88.7227,-12.2855 L -89.073,-12.1468
 L -89.4379,-12.0531 L -89.8116,-12.0059 z
M 89.9058,-6.00294 L 89.7189,-6.02657 L 89.5365,-6.07341 L 89.3613,-6.14275 L 89.1963,-6.23351 L 89.0439,-6.34422
 L 88.9065,-6.47318 L 88.7865,-6.61832 L 88.6855,-6.77736 L 88.6053,-6.9478 L 88.5471,-7.12695 L 88.5118,-7.312
 L 88.5,-7.5 L 88.5118,-7.68799 L 88.5471,-7.87303 L 88.6053,-8.05219 L 88.6855,-8.22263 L 88.7865,-8.38167
 L 88.9065,-8.52681 L 89.0439,-8.65576 L 89.1963,-8.76648 L 89.3613,-8.85724 L 89.5365,-8.92657 L 89.7189,-8.97342
 L 89.9058,-8.99704 L 90.0942,-8.99704 L 90.2811,-8.97342 L 90.4635,-8.92657 L 90.6387,-8.85724 L 90.8037,-8.76648
 L 90.9561,-8.65576 L 91.0934,-8.52681 L 91.2135,-8.38167 L 91.3145,-8.22263 L 91.3947,-8.05219 L 91.4529,-7.87303
 L 91.4882,-7.68799 L 91.5,-7.5 L 91.4882,-7.312 L 91.4529,-7.12695 L 91.3947,-6.9478 L 91.3145,-6.77736
 L 91.2135,-6.61832 L 91.0934,-6.47318 L 90.9561,-6.34422 L 90.8037,-6.23351 L 90.6387,-6.14275 L 90.4635,-6.07341
 L 90.2811,-6.02657 L 90.0942,-6.00294 z
M -90.0942,-6.00294 L -90.2811,-6.02657 L -90.4635,-6.07341 L -90.6387,-6.14275 L -90.8037,-6.23351 L -90.9561,-6.34422
 L -91.0934,-6.47318 L -91.2135,-6.61832 L -91.3145,-6.77736 L -91.3947,-6.9478 L -91.4529,-7.12695 L -91.4882,-7.312
 L -91.5,-7.5 L -91.4882,-7.68799 L -91.4529,-7.87303 L -91.3947,-8.05219 L -91.3145,-8.22263 L -91.2135,-8.38167
 L -91.0934,-8.52681 L -90.9561,-8.65576 L -90.8037,-8.76648 L -90.6387,-8.85724 L -90.4635,-8.92657 L -90.2811,-8.97342
 L -90.0942,-8.99704 L -89.9058,-8.99704 L -89.7189,-8.97342 L -89.5365,-8.92657 L -89.3613,-8.85724 L -89.1963,-8.76648
 L -89.0439,-8.65576 L -88.9065,-8.52681 L -88.7865,-8.38167 L -88.6855,-8.22263 L -88.6053,-8.05219 L -88.5471,-7.87303
 L -88.5118,-7.68799 L -88.5,-7.5 L -88.5118,-7.312 L -88.5471,-7.12695 L -88.6053,-6.9478 L -88.6855,-6.77736
 L -88.7865,-6.61832 L -88.9065,-6.47318 L -89.0439,-6.34422 L -89.1963,-6.23351 L -89.3613,-6.14275 L -89.5365,-6.07341
 L -89.7189,-6.02657 L -89.9058,-6.00294 z
M -90.1884,2.99408 L -90.5621,2.94685 L -90.927,2.85316 L -91.2773,2.71448 L -91.6075,2.53297 L -91.9123,2.31154
 L -92.1869,2.05363 L -92.427,1.76335 L -92.6289,1.44525 L -92.7893,1.10437 L -92.9057,0.746063 L -92.9763,0.375992
 L -93,-0 L -92.9763,-0.375992 L -92.9057,-0.746063 L -92.7893,-1.10437 L -92.6289,-1.44525 L -92.427,-1.76335
 L -92.1869,-2.05363 L -91.9123,-2.31154 L -91.6075,-2.53297 L -91.2773,-2.71448 L -90.927,-2.85316 L -90.5621,-2.94685
 L -90.1884,-2.99408 L -89.8116,-2.99408 L -89.4379,-2.94685 L -89.073,-2.85316 L -88.7227,-2.71448 L -88.3925,-2.53297
 L -88.0877,-2.31154 L -87.8131,-2.05363 L -87.573,-1.76335 L -87.3711,-1.44525 L -87.2107,-1.10437 L -87.0943,-0.746063
 L -87.0237,-0.375992 L -87,-0 L -87.0237,0.375992 L -87.0943,0.746063 L -87.2107,1.10437 L -87.3711,1.44525
 L -87.573,1.76335 L -87.8131,2.05363 L -88.0877,2.31154 L -88.3925,2.53297 L -88.7227,2.71448 L -89.073,2.85316
 L -89.4379,2.94685 L -89.8116,2.99408 z
M 89.8116,2.99408 L 89.4379,2.94685 L 89.073,2.85316 L 88.7227,2.71448 L 88.3925,2.53297 L 88.0877,2.31154
 L 87.8131,2.05363 L 87.573,1.76335 L 87.3711,1.44525 L 87.2107,1.10437 L 87.0943,0.746063 L 87.0237,0.375992
 L 87,-0 L 87.0237,-0.375992 L 87.0943,-0.746063 L 87.2107,-1.10437 L 87.3711,-1.44525 L 87.573,-1.76335
 L 87.8131,-2.05363 L 88.0877,-2.31154 L 88.3925,-2.53297 L 88.7227,-2.71448 L 89.073,-2.85316 L 89.4379,-2.94685
 L 89.8116,-2.99408 L 90.1884,-2.99408 L 90.5621,-2.94685 L 90.927,-2.85316 L 91.2773,-2.71448 L 91.6075,-2.53297
 L 91.9123,-2.31154 L 92.1869,-2.05363 L 92.427,-1.76335 L 92.6289,-1.44525 L 92.7893,-1.10437 L 92.9057,-0.746063
 L 92.9763,-0.375992 L 93,-0 L 92.9763,0.375992 L 92.9057,0.746063 L 92.7893,1.10437 L 92.6289,1.44525
 L 92.427,1.76335 L 92.1869,2.05363 L 91.9123,2.31154 L 91.6075,2.53297 L 91.2773,2.71448 L 90.927,2.85316
 L 90.5621,2.94685 L 90.1884,2.99408 z
M -90.0942,8.99704 L -90.2811,8.97342 L -90.4635,8.92657 L -90.6387,8.85724 L -90.8037,8.76648 L -90.9561,8.65576
 L -91.0934,8.52681 L -91.2135,8.38167 L -91.3145,8.22263 L -91.3947,8.05219 L -91.4529,7.87303 L -91.4882,7.68799
 L -91.5,7.5 L -91.4882,7.312 L -91.4529,7.12695 L -91.3947,6.9478 L -91.3145,6.77736 L -91.2135,6.61832
 L -91.0934,6.47318 L -90.9561,6.34422 L -90.8037,6.23351 L -90.6387,6.14275 L -90.4635,6.07341 L -90.2811,6.02657
 L -90.0942,6.00294 L -89.9058,6.00294 L -89.7189,6.02657 L -89.5365,6.07341 L -89.3613,6.14275 L -89.1963,6.23351
 L -89.0439,6.34422 L -88.9065,6.47318 L -88.7865,6.61832 L -88.6855,6.77736 L -88.6053,6.9478 L -88.5471,7.12695
 L -88.5118,7.312 L -88.5,7.5 L -88.5118,7.68799 L -88.5471,7.87303 L -88.6053,8.05219 L -88.6855,8.22263
 L -88.7865,8.38167 L -88.9065,8.52681 L -89.0439,8.65576 L -89.1963,8.76648 L -89.3613,8.85724 L -89.5365,8.92657
 L -89.7189,8.97342 L -89.9058,8.99704 z
M 89.9058,8.99704 L 89.7189,8.97342 L 89.5365,8.92657 L 89.3613,8.85724 L 89.1963,8.76648 L 89.0439,8.65576
 L 88.9065,8.52681 L 88.7865,8.38167 L 88.6855,8.22263 L 88.6053,8.05219 L 88.5471,7.87303 L 88.5118,7.68799
 L 88.5,7.5 L 88.5118,7.312 L 88.5471,7.12695 L 88.6053,6.9478 L 88.6855,6.77736 L 88.7865,6.61832
 L 88.9065,6.47318 L 89.0439,6.34422 L 89.1963,6.23351 L 89.3613,6.14275 L 89.5365,6.07341 L 89.7189,6.02657
 L 89.9058,6.00294 L 90.0942,6.00294 L 90.2811,6.02657 L 90.4635,6.07341 L 90.6387,6.14275 L 90.8037,6.23351
 L 90.9561,6.34422 L 91.0934,6.47318 L 91.2135,6.61832 L 91.3145,6.77736 L 91.3947,6.9478 L 91.4529,7.12695
 L 91.4882,7.312 L 91.5,7.5 L 91.4882,7.68799 L 91.4529,7.87303 L 91.3947,8.05219 L 91.3145,8.22263
 L 91.2135,8.38167 L 91.0934,8.52681 L 90.9561,8.65576 L 90.8037,8.76648 L 90.6387,8.85724 L 90.4635,8.92657
 L 90.2811,8.97342 L 90.0942,8.99704 z
M -90.1884,17.9941 L -90.5621,17.9469 L -90.927,17.8532 L -91.2773,17.7145 L -91.6075,17.533 L -91.9123,17.3115
 L -92.1869,17.0536 L -92.427,16.7634 L -92.6289,16.4453 L -92.7893,16.1044 L -92.9057,15.7461 L -92.9763,15.376
 L -93,15 L -92.9763,14.624 L -92.9057,14.2539 L -92.7893,13.8956 L -92.6289,13.5547 L -92.427,13.2366
 L -92.1869,12.9464 L -91.9123,12.6884 L -91.6075,12.467 L -91.2773,12.2855 L -90.927,12.1468 L -90.5621,12.0531
 L -90.1884,12.0059 L -89.8116,12.0059 L -89.4379,12.0531 L -89.073,12.1468 L -88.7227,12.2855 L -88.3925,12.467
 L -88.0877,12.6884 L -87.8131,12.9464 L -87.573,13.2366 L -87.3711,13.5547 L -87.2107,13.8956 L -87.0943,14.2539
 L -87.0237,14.624 L -87,15 L -87.0237,15.376 L -87.0943,15.7461 L -87.2107,16.1044 L -87.3711,16.4453
 L -87.573,16.7634 L -87.8131,17.0536 L -88.0877,17.3115 L -88.3925,17.533 L -88.7227,17.7145 L -89.073,17.8532
 L -89.4379,17.9469 L -89.8116,17.9941 z
M 89.8116,17.9941 L 89.4379,17.9469 L 89.073,17.8532 L 88.7227,17.7145 L 88.3925,17.533 L 88.0877,17.3115
 L 87.8131,17.0536 L 87.573,16.7634 L 87.3711,16.4453 L 87.2107,16.1044 L 87.0943,15.7461 L 87.0237,15.376
 L 87,15 L 87.0237,14.624 L 87.0943,14.2539 L 87.2107,13.8956 L 87.3711,13.5547 L 87.573,13.2366
 L 87.8131,12.9464 L 88.0877,12.6884 L 88.3925,12.467 L 88.7227,12.2855 L 89.073,12.1468 L 89.4379,12.0531
 L 89.8116,12.0059 L 90.1884,12.0059 L 90.5621,12.0531 L 90.927,12.1468 L 91.2773,12.2855 L 91.6075,12.467
 L 91.9123,12.6884 L 92.1869,12.9464 L 92.427,13.2366 L 92.6289,13.5547 L 92.7893,13.8956 L 92.9057,14.2539
 L 92.9763,14.624 L 93,15 L 92.9763,15.376 L 92.9057,15.7461 L 92.7893,16.1044 L 92.6289,16.4453
 L 92.427,16.7634 L 92.1869,17.0536 L 91.9123,17.3115 L 91.6075,17.533 L 91.2773,17.7145 L 90.927,17.8532
 L 90.5621,17.9469 L 90.1884,17.9941 z
M -90.0942,23.997 L -90.2811,23.9734 L -90.4635,23.9266 L -90.6387,23.8572 L -90.8037,23.7665 L -90.9561,23.6558
 L -91.0934,23.5268 L -91.2135,23.3817 L -91.3145,23.2226 L -91.3947,23.0522 L -91.4529,22.873 L -91.4882,22.688
 L -91.5,22.5 L -91.4882,22.312 L -91.4529,22.127 L -91.3947,21.9478 L -91.3145,21.7774 L -91.2135,21.6183
 L -91.0934,21.4732 L -90.9561,21.3442 L -90.8037,21.2335 L -90.6387,21.1427 L -90.4635,21.0734 L -90.2811,21.0266
 L -90.0942,21.003 L -89.9058,21.003 L -89.7189,21.0266 L -89.5365,21.0734 L -89.3613,21.1427 L -89.1963,21.2335
 L -89.0439,21.3442 L -88.9065,21.4732 L -88.7865,21.6183 L -88.6855,21.7774 L -88.6053,21.9478 L -88.5471,22.127
 L -88.5118,22.312 L -88.5,22.5 L -88.5118,22.688 L -88.5471,22.873 L -88.6053,23.0522 L -88.6855,23.2226
 L -88.7865,23.3817 L -88.9065,23.5268 L -89.0439,23.6558 L -89.1963,23.7665 L -89.3613,23.8572 L -89.5365,23.9266
 L -89.7189,23.9734 L -89.9058,23.997 z
M 89.9058,23.997 L 89.7189,23.9734 L 89.5365,23.9266 L 89.3613,23.8572 L 89.1963,23.7665 L 89.0439,23.6558
 L 88.9065,23.5268 L 88.7865,23.3817 L 88.6855,23.2226 L 88.6053,23.0522 L 88.5471,22.873 L 88.5118,22.688
 L 88.5,22.5 L 88.5118,22.312 L 88.5471,22.127 L 88.6053,21.9478 L 88.6855,21.7774 L 88.7865,21.6183
 L 88.9065,21.4732 L 89.0439,21.3442 L 89.1963,21.2335 L 89.3613,21.1427 L 89.5365,21.0734 L 89.7189,21.0266
 L 89.9058,21.003 L 90.0942,21.003 L 90.2811,21.0266 L 90.4635,21.0734 L 90.6387,21.1427 L 90.8037,21.2335
 L 90.9561,21.3442 L 91.0934,21.4732 L 91.2135,21.6183 L 91.3145,21.7774 L 91.3947,21.9478 L 91.4529,22.127
 L 91.4882,22.312 L 91.5,22.5 L 91.4882,22.688 L 91.4529,22.873 L 91.3947,23.0522 L 91.3145,23.2226
 L 91.2135,23.3817 L 91.0934,23.5268 L 90.9561,23.6558 L 90.8037,23.7665 L 90.6387,23.8572 L 90.4635,23.9266
 L 90.2811,23.9734 L 90.0942,23.997 z
M 89.8116,32.9941 L 89.4379,32.9469 L 89.073,32.8532 L 88.7227,32.7145 L 88.3925,32.533 L 88.0877,32.3115
 L 87.8131,32.0536 L 87.573,31.7634 L 87.3711,31.4453 L 87.2107,31.1044 L 87.0943,30.7461 L 87.0237,30.376
 L 87,30 L 87.0237,29.624 L 87.0943,29.2539 L 87.2107,28.8956 L 87.3711,28.5547 L 87.573,28.2366
 L 87.8131,27.9464 L 88.0877,27.6884 L 88.3925,27.467 L 88.7227,27.2855 L 89.073,27.1468 L 89.4379,27.0531
 L 89.8116,27.0059 L 90.1884,27.0059 L 90.5621,27.0531 L 90.927,27.1468 L 91.2773,27.2855 L 91.6075,27.467
 L 91.9123,27.6884 L 92.1869,27.9464 L 92.427,28.2366 L 92.6289,28.5547 L 92.7893,28.8956 L 92.9057,29.2539
 L 92.9763,29.624 L 93,30 L 92.9763,30.376 L 92.9057,30.7461 L 92.7893,31.1044 L 92.6289,31.4453
 L 92.427,31.7634 L 92.1869,32.0536 L 91.9123,32.3115 L 91.6075,32.533 L 91.2773,32.7145 L 90.927,32.8532
 L 90.5621,32.9469 L 90.1884,32.9941 z
M -90.1884,32.9941 L -90.5621,32.9469 L -90.927,32.8532 L -91.2773,32.7145 L -91.6075,32.533 L -91.9123,32.3115
 L -92.1869,32.0536 L -92.427,31.7634 L -92.6289,31.4453 L -92.7893,31.1044 L -92.9057,30.7461 L -92.9763,30.376
 L -93,30 L -92.9763,29.624 L -92.9057,29.2539 L -92.7893,28.8956 L -92.6289,28.5547 L -92.427,28.2366
 L -92.1869,27.9464 L -91.9123,27.6884 L -91.6075,27.467 L -91.2773,27.2855 L -90.927,27.1468 L -90.5621,27.0531
 L -90.1884,27.0059 L -89.8116,27.0059 L -89.4379,27.0531 L -89.073,27.1468 L -88.7227,27.2855 L -88.3925,27.467
 L -88.0877,27.6884 L -87.8131,27.9464 L -87.573,28.2366 L -87.3711,28.5547 L -87.2107,28.8956 L -87.0943,29.2539
 L -87.0237,29.624 L -87,30 L -87.0237,30.376 L -87.0943,30.7461 L -87.2107,31.1044 L -87.3711,31.4453
 L -87.573,31.7634 L -87.8131,32.0536 L -88.0877,32.3115 L -88.3925,32.533 L -88.7227,32.7145 L -89.073,32.8532
 L -89.4379,32.9469 L -89.8116,32.9941 z
" stroke="black" fill="lightgray" stroke-width="0.5"/>
</svg>
