  0
SECTION
  2
BLOCKS
  0
ENDSEC
  0
SECTION
  2
ENTITIES
  0
LINE
  8
0
 10
92.9369
 20
-36.9114
 11
93.5451
 21
-36.7553
  0
LINE
  8
0
 10
93.5451
 20
-36.7553
 11
94.1289
 21
-36.5241
  0
LINE
  8
0
 10
94.1289
 20
-36.5241
 11
94.6791
 21
-36.2216
  0
LINE
  8
0
 10
94.6791
 20
-36.2216
 11
95.1871
 21
-35.8526
  0
LINE
  8
0
 10
95.1871
 20
-35.8526
 11
95.6448
 21
-35.4227
  0
LINE
  8
0
 10
95.6448
 20
-35.4227
 11
96.0451
 21
-34.9389
  0
LINE
  8
0
 10
96.0451
 20
-34.9389
 11
96.3815
 21
-34.4088
  0
LINE
  8
0
 10
96.3815
 20
-34.4088
 11
96.6489
 21
-33.8406
  0
LINE
  8
0
 10
96.6489
 20
-33.8406
 11
96.8429
 21
-33.2434
  0
LINE
  8
0
 10
96.8429
 20
-33.2434
 11
96.9606
 21
-32.6267
  0
LINE
  8
0
 10
96.9606
 20
-32.6267
 11
97
 21
-32
  0
LINE
  8
0
 10
97
 20
-32
 11
97
 21
32
  0
LINE
  8
0
 10
97
 20
32
 11
96.9606
 21
32.6267
  0
LINE
  8
0
 10
96.9606
 20
32.6267
 11
96.8429
 21
33.2434
  0
LINE
  8
0
 10
96.8429
 20
33.2434
 11
96.6489
 21
33.8406
  0
LINE
  8
0
 10
96.6489
 20
33.8406
 11
96.3815
 21
34.4088
  0
LINE
  8
0
 10
96.3815
 20
34.4088
 11
96.0451
 21
34.9389
  0
LINE
  8
0
 10
96.0451
 20
34.9389
 11
95.6448
 21
35.4227
  0
LINE
  8
0
 10
95.6448
 20
35.4227
 11
95.1871
 21
35.8526
  0
LINE
  8
0
 10
95.1871
 20
35.8526
 11
94.6791
 21
36.2216
  0
LINE
  8
0
 10
94.6791
 20
36.2216
 11
94.1289
 21
36.5241
  0
LINE
  8
0
 10
94.1289
 20
36.5241
 11
93.5451
 21
36.7553
  0
LINE
  8
0
 10
93.5451
 20
36.7553
 11
92.9369
 21
36.9114
  0
LINE
  8
0
 10
92.9369
 20
36.9114
 11
92.3139
 21
36.9901
  0
LINE
  8
0
 10
92.3139
 20
36.9901
 11
-92.3139
 21
36.9901
  0
LINE
  8
0
 10
-92.3139
 20
36.9901
 11
-92.9369
 21
36.9114
  0
LINE
  8
0
 10
-92.9369
 20
36.9114
 11
-93.5451
 21
36.7553
  0
LINE
  8
0
 10
-93.5451
 20
36.7553
 11
-94.1289
 21
36.5241
  0
LINE
  8
0
 10
-94.1289
 20
36.5241
 11
-94.6791
 21
36.2216
  0
LINE
  8
0
 10
-94.6791
 20
36.2216
 11
-95.1871
 21
35.8526
  0
LINE
  8
0
 10
-95.1871
 20
35.8526
 11
-95.6448
 21
35.4227
  0
LINE
  8
0
 10
-95.6448
 20
35.4227
 11
-96.0451
 21
34.9389
  0
LINE
  8
0
 10
-96.0451
 20
34.9389
 11
-96.3815
 21
34.4088
  0
LINE
  8
0
 10
-96.3815
 20
34.4088
 11
-96.6489
 21
33.8406
  0
LINE
  8
0
 10
-96.6489
 20
33.8406
 11
-96.8429
 21
33.2434
  0
LINE
  8
0
 10
-96.8429
 20
33.2434
 11
-96.9606
 21
32.6267
  0
LINE
  8
0
 10
-96.9606
 20
32.6267
 11
-97
 21
32
  0
LINE
  8
0
 10
-97
 20
32
 11
-97
 21
-32
  0
LINE
  8
0
 10
-97
 20
-32
 11
-96.9606
 21
-32.6267
  0
LINE
  8
0
 10
-96.9606
 20
-32.6267
 11
-96.8429
 21
-33.2434
  0
LINE
  8
0
 10
-96.8429
 20
-33.2434
 11
-96.6489
 21
-33.8406
  0
LINE
  8
0
 10
-96.6489
 20
-33.8406
 11
-96.3815
 21
-34.4088
  0
LINE
  8
0
 10
-96.3815
 20
-34.4088
 11
-96.0451
 21
-34.9389
  0
LINE
  8
0
 10
-96.0451
 20
-34.9389
 11
-95.6448
 21
-35.4227
  0
LINE
  8
0
 10
-95.6448
 20
-35.4227
 11
-95.1871
 21
-35.8526
  0
LINE
  8
0
 10
-95.1871
 20
-35.8526
 11
-94.6791
 21
-36.2216
  0
LINE
  8
0
 10
-94.6791
 20
-36.2216
 11
-94.1289
 21
-36.5241
  0
LINE
  8
0
 10
-94.1289
 20
-36.5241
 11
-93.5451
 21
-36.7553
  0
LINE
  8
0
 10
-93.5451
 20
-36.7553
 11
-92.9369
 21
-36.9114
  0
LINE
  8
0
 10
-92.9369
 20
-36.9114
 11
-92.3139
 21
-36.9901
  0
LINE
  8
0
 10
-92.3139
 20
-36.9901
 11
92.3139
 21
-36.9901
  0
LINE
  8
0
 10
92.3139
 20
-36.9901
 11
92.9369
 21
-36.9114
  0
LINE
  8
0
 10
-90.1884
 20
27.0059
 11
-90.5621
 21
27.0531
  0
LINE
  8
0
 10
-90.5621
 20
27.0531
 11
-90.927
 21
27.1468
  0
LINE
  8
0
 10
-90.927
 20
27.1468
 11
-91.2773
 21
27.2855
  0
LINE
  8
0
 10
-91.2773
 20
27.2855
 11
-91.6075
 21
27.467
  0
LINE
  8
0
 10
-91.6075
 20
27.467
 11
-91.9123
 21
27.6884
  0
LINE
  8
0
 10
-91.9123
 20
27.6884
 11
-92.1869
 21
27.9464
  0
LINE
  8
0
 10
-92.1869
 20
27.9464
 11
-92.427
 21
28.2366
  0
LINE
  8
0
 10
-92.427
 20
28.2366
 11
-92.6289
 21
28.5547
  0
LINE
  8
0
 10
-92.6289
 20
28.5547
 11
-92.7893
 21
28.8956
  0
LINE
  8
0
 10
-92.7893
 20
28.8956
 11
-92.9057
 21
29.2539
  0
LINE
  8
0
 10
-92.9057
 20
29.2539
 11
-92.9763
 21
29.624
  0
LINE
  8
0
 10
-92.9763
 20
29.624
 11
-93
 21
30
  0
LINE
  8
0
 10
-93
 20
30
 11
-92.9763
 21
30.376
  0
LINE
  8
0
 10
-92.9763
 20
30.376
 11
-92.9057
 21
30.7461
  0
LINE
  8
0
 10
-92.9057
 20
30.7461
 11
-92.7893
 21
31.1044
  0
LINE
  8
0
 10
-92.7893
 20
31.1044
 11
-92.6289
 21
31.4453
  0
LINE
  8
0
 10
-92.6289
 20
31.4453
 11
-92.427
 21
31.7634
  0
LINE
  8
0
 10
-92.427
 20
31.7634
 11
-92.1869
 21
32.0536
  0
LINE
  8
0
 10
-92.1869
 20
32.0536
 11
-91.9123
 21
32.3115
  0
LINE
  8
0
 10
-91.9123
 20
32.3115
 11
-91.6075
 21
32.533
  0
LINE
  8
0
 10
-91.6075
 20
32.533
 11
-91.2773
 21
32.7145
  0
LINE
  8
0
 10
-91.2773
 20
32.7145
 11
-90.927
 21
32.8532
  0
LINE
  8
0
 10
-90.927
 20
32.8532
 11
-90.5621
 21
32.9469
  0
LINE
  8
0
 10
-90.5621
 20
32.9469
 11
-90.1884
 21
32.9941
  0
LINE
  8
0
 10
-90.1884
 20
32.9941
 11
-89.8116
 21
32.9941
  0
LINE
  8
0
 10
-89.8116
 20
32.9941
 11
-89.4379
 21
32.9469
  0
LINE
  8
0
 10
-89.4379
 20
32.9469
 11
-89.073
 21
32.8532
  0
LINE
  8
0
 10
-89.073
 20
32.8532
 11
-88.7227
 21
32.7145
  0
LINE
  8
0
 10
-88.7227
 20
32.7145
 11
-88.3925
 21
32.533
  0
LINE
  8
0
 10
-88.3925
 20
32.533
 11
-88.0877
 21
32.3115
  0
LINE
  8
0
 10
-88.0877
 20
32.3115
 11
-87.8131
 21
32.0536
  0
LINE
  8
0
 10
-87.8131
 20
32.0536
 11
-87.573
 21
31.7634
  0
LINE
  8
0
 10
-87.573
 20
31.7634
 11
-87.3711
 21
31.4453
  0
LINE
  8
0
 10
-87.3711
 20
31.4453
 11
-87.2107
 21
31.1044
  0
LINE
  8
0
 10
-87.2107
 20
31.1044
 11
-87.0943
 21
30.7461
  0
LINE
  8
0
 10
-87.0943
 20
30.7461
 11
-87.0237
 21
30.376
  0
LINE
  8
0
 10
-87.0237
 20
30.376
 11
-87
 21
30
  0
LINE
  8
0
 10
-87
 20
30
 11
-87.0237
 21
29.624
  0
LINE
  8
0
 10
-87.0237
 20
29.624
 11
-87.0943
 21
29.2539
  0
LINE
  8
0
 10
-87.0943
 20
29.2539
 11
-87.2107
 21
28.8956
  0
LINE
  8
0
 10
-87.2107
 20
28.8956
 11
-87.3711
 21
28.5547
  0
LINE
  8
0
 10
-87.3711
 20
28.5547
 11
-87.573
 21
28.2366
  0
LINE
  8
0
 10
-87.573
 20
28.2366
 11
-87.8131
 21
27.9464
  0
LINE
  8
0
 10
-87.8131
 20
27.9464
 11
-88.0877
 21
27.6884
  0
LINE
  8
0
 10
-88.0877
 20
27.6884
 11
-88.3925
 21
27.467
  0
LINE
  8
0
 10
-88.3925
 20
27.467
 11
-88.7227
 21
27.2855
  0
LINE
  8
0
 10
-88.7227
 20
27.2855
 11
-89.073
 21
27.1468
  0
LINE
  8
0
 10
-89.073
 20
27.1468
 11
-89.4379
 21
27.0531
  0
LINE
  8
0
 10
-89.4379
 20
27.0531
 11
-89.8116
 21
27.0059
  0
LINE
  8
0
 10
-89.8116
 20
27.0059
 11
-90.1884
 21
27.0059
  0
LINE
  8
0
 10
89.8116
 20
27.0059
 11
89.4379
 21
27.0531
  0
LINE
  8
0
 10
89.4379
 20
27.0531
 11
89.073
 21
27.1468
  0
LINE
  8
0
 10
89.073
 20
27.1468
 11
88.7227
 21
27.2855
  0
LINE
  8
0
 10
88.7227
 20
27.2855
 11
88.3925
 21
27.467
  0
LINE
  8
0
 10
88.3925
 20
27.467
 11
88.0877
 21
27.6884
  0
LINE
  8
0
 10
88.0877
 20
27.6884
 11
87.8131
 21
27.9464
  0
LINE
  8
0
 10
87.8131
 20
27.9464
 11
87.573
 21
28.2366
  0
LINE
  8
0
 10
87.573
 20
28.2366
 11
87.3711
 21
28.5547
  0
LINE
  8
0
 10
87.3711
 20
28.5547
 11
87.2107
 21
28.8956
  0
LINE
  8
0
 10
87.2107
 20
28.8956
 11
87.0943
 21
29.2539
  0
LINE
  8
0
 10
87.0943
 20
29.2539
 11
87.0237
 21
29.624
  0
LINE
  8
0
 10
87.0237
 20
29.624
 11
87
 21
30
  0
LINE
  8
0
 10
87
 20
30
 11
87.0237
 21
30.376
  0
LINE
  8
0
 10
87.0237
 20
30.376
 11
87.0943
 21
30.7461
  0
LINE
  8
0
 10
87.0943
 20
30.7461
 11
87.2107
 21
31.1044
  0
LINE
  8
0
 10
87.2107
 20
31.1044
 11
87.3711
 21
31.4453
  0
LINE
  8
0
 10
87.3711
 20
31.4453
 11
87.573
 21
31.7634
  0
LINE
  8
0
 10
87.573
 20
31.7634
 11
87.8131
 21
32.0536
  0
LINE
  8
0
 10
87.8131
 20
32.0536
 11
88.0877
 21
32.3115
  0
LINE
  8
0
 10
88.0877
 20
32.3115
 11
88.3925
 21
32.533
  0
LINE
  8
0
 10
88.3925
 20
32.533
 11
88.7227
 21
32.7145
  0
LINE
  8
0
 10
88.7227
 20
32.7145
 11
89.073
 21
32.8532
  0
LINE
  8
0
 10
89.073
 20
32.8532
 11
89.4379
 21
32.9469
  0
LINE
  8
0
 10
89.4379
 20
32.9469
 11
89.8116
 21
32.9941
  0
LINE
  8
0
 10
89.8116
 20
32.9941
 11
90.1884
 21
32.9941
  0
LINE
  8
0
 10
90.1884
 20
32.9941
 11
90.5621
 21
32.9469
  0
LINE
  8
0
 10
90.5621
 20
32.9469
 11
90.927
 21
32.8532
  0
LINE
  8
0
 10
90.927
 20
32.8532
 11
91.2773
 21
32.7145
  0
LINE
  8
0
 10
91.2773
 20
32.7145
 11
91.6075
 21
32.533
  0
LINE
  8
0
 10
91.6075
 20
32.533
 11
91.9123
 21
32.3115
  0
LINE
  8
0
 10
91.9123
 20
32.3115
 11
92.1869
 21
32.0536
  0
LINE
  8
0
 10
92.1869
 20
32.0536
 11
92.427
 21
31.7634
  0
LINE
  8
0
 10
92.427
 20
31.7634
 11
92.6289
 21
31.4453
  0
LINE
  8
0
 10
92.6289
 20
31.4453
 11
92.7893
 21
31.1044
  0
LINE
  8
0
 10
92.7893
 20
31.1044
 11
92.9057
 21
30.7461
  0
LINE
  8
0
 10
92.9057
 20
30.7461
 11
92.9763
 21
30.376
  0
LINE
  8
0
 10
92.9763
 20
30.376
 11
93
 21
30
  0
LINE
  8
0
 10
93
 20
30
 11
92.9763
 21
29.624
  0
LINE
  8
0
 10
92.9763
 20
29.624
 11
92.9057
 21
29.2539
  0
LINE
  8
0
 10
92.9057
 20
29.2539
 11
92.7893
 21
28.8956
  0
LINE
  8
0
 10
92.7893
 20
28.8956
 11
92.6289
 21
28.5547
  0
LINE
  8
0
 10
92.6289
 20
28.5547
 11
92.427
 21
28.2366
  0
LINE
  8
0
 10
92.427
 20
28.2366
 11
92.1869
 21
27.9464
  0
LINE
  8
0
 10
92.1869
 20
27.9464
 11
91.9123
 21
27.6884
  0
LINE
  8
0
 10
91.9123
 20
27.6884
 11
91.6075
 21
27.467
  0
LINE
  8
0
 10
91.6075
 20
27.467
 11
91.2773
 21
27.2855
  0
LINE
  8
0
 10
91.2773
 20
27.2855
 11
90.927
 21
27.1468
  0
LINE
  8
0
 10
90.927
 20
27.1468
 11
90.5621
 21
27.0531
  0
LINE
  8
0
 10
90.5621
 20
27.0531
 11
90.1884
 21
27.0059
  0
LINE
  8
0
 10
90.1884
 20
27.0059
 11
89.8116
 21
27.0059
  0
LINE
  8
0
 10
-60.6953
 20
-26.9467
 11
-64.0593
 21
-26.5217
  0
LINE
  8
0
 10
-64.0593
 20
-26.5217
 11
-67.3435
 21
-25.6785
  0
LINE
  8
0
 10
-67.3435
 20
-25.6785
 11
-70.496
 21
-24.4303
  0
LINE
  8
0
 10
-70.496
 20
-24.4303
 11
-73.4673
 21
-22.7968
  0
LINE
  8
0
 10
-73.4673
 20
-22.7968
 11
-76.2104
 21
-20.8038
  0
LINE
  8
0
 10
-76.2104
 20
-20.8038
 11
-78.6821
 21
-18.4828
  0
LINE
  8
0
 10
-78.6821
 20
-18.4828
 11
-80.8435
 21
-15.8702
  0
LINE
  8
0
 10
-80.8435
 20
-15.8702
 11
-82.6603
 21
-13.0073
  0
LINE
  8
0
 10
-82.6603
 20
-13.0073
 11
-84.104
 21
-9.93936
  0
LINE
  8
0
 10
-84.104
 20
-9.93936
 11
-85.1517
 21
-6.71461
  0
LINE
  8
0
 10
-85.1517
 20
-6.71461
 11
-85.7871
 21
-3.38399
  0
LINE
  8
0
 10
-85.7871
 20
-3.38399
 11
-86
 21
0
  0
LINE
  8
0
 10
-86
 20
0
 11
-85.7871
 21
3.38399
  0
LINE
  8
0
 10
-85.7871
 20
3.38399
 11
-85.1517
 21
6.71461
  0
LINE
  8
0
 10
-85.1517
 20
6.71461
 11
-84.104
 21
9.93936
  0
LINE
  8
0
 10
-84.104
 20
9.93936
 11
-82.6603
 21
13.0073
  0
LINE
  8
0
 10
-82.6603
 20
13.0073
 11
-80.8435
 21
15.8702
  0
LINE
  8
0
 10
-80.8435
 20
15.8702
 11
-78.6821
 21
18.4828
  0
LINE
  8
0
 10
-78.6821
 20
18.4828
 11
-76.2104
 21
20.8038
  0
LINE
  8
0
 10
-76.2104
 20
20.8038
 11
-73.4673
 21
22.7968
  0
LINE
  8
0
 10
-73.4673
 20
22.7968
 11
-70.496
 21
24.4303
  0
LINE
  8
0
 10
-70.496
 20
24.4303
 11
-67.3435
 21
25.6785
  0
LINE
  8
0
 10
-67.3435
 20
25.6785
 11
-64.0593
 21
26.5217
  0
LINE
  8
0
 10
-64.0593
 20
26.5217
 11
-60.6953
 21
26.9467
  0
LINE
  8
0
 10
-60.6953
 20
26.9467
 11
-57.3047
 21
26.9467
  0
LINE
  8
0
 10
-57.3047
 20
26.9467
 11
-53.9407
 21
26.5217
  0
LINE
  8
0
 10
-53.9407
 20
26.5217
 11
-50.6565
 21
25.6785
  0
LINE
  8
0
 10
-50.6565
 20
25.6785
 11
-47.504
 21
24.4303
  0
LINE
  8
0
 10
-47.504
 20
24.4303
 11
-44.5327
 21
22.7968
  0
LINE
  8
0
 10
-44.5327
 20
22.7968
 11
-41.7896
 21
20.8038
  0
LINE
  8
0
 10
-41.7896
 20
20.8038
 11
-39.3178
 21
18.4828
  0
LINE
  8
0
 10
-39.3178
 20
18.4828
 11
-37.1565
 21
15.8702
  0
LINE
  8
0
 10
-37.1565
 20
15.8702
 11
-35.3397
 21
13.0073
  0
LINE
  8
0
 10
-35.3397
 20
13.0073
 11
-33.896
 21
9.93936
  0
LINE
  8
0
 10
-33.896
 20
9.93936
 11
-32.8483
 21
6.71461
  0
LINE
  8
0
 10
-32.8483
 20
6.71461
 11
-32.2129
 21
3.38399
  0
LINE
  8
0
 10
-32.2129
 20
3.38399
 11
-32
 21
0
  0
LINE
  8
0
 10
-32
 20
0
 11
-32.2129
 21
-3.38399
  0
LINE
  8
0
 10
-32.2129
 20
-3.38399
 11
-32.8483
 21
-6.71461
  0
LINE
  8
0
 10
-32.8483
 20
-6.71461
 11
-33.896
 21
-9.93936
  0
LINE
  8
0
 10
-33.896
 20
-9.93936
 11
-35.3397
 21
-13.0073
  0
LINE
  8
0
 10
-35.3397
 20
-13.0073
 11
-37.1565
 21
-15.8702
  0
LINE
  8
0
 10
-37.1565
 20
-15.8702
 11
-39.3178
 21
-18.4828
  0
LINE
  8
0
 10
-39.3178
 20
-18.4828
 11
-41.7896
 21
-20.8038
  0
LINE
  8
0
 10
-41.7896
 20
-20.8038
 11
-44.5327
 21
-22.7968
  0
LINE
  8
0
 10
-44.5327
 20
-22.7968
 11
-47.504
 21
-24.4303
  0
LINE
  8
0
 10
-47.504
 20
-24.4303
 11
-50.6565
 21
-25.6785
  0
LINE
  8
0
 10
-50.6565
 20
-25.6785
 11
-53.9407
 21
-26.5217
  0
LINE
  8
0
 10
-53.9407
 20
-26.5217
 11
-57.3047
 21
-26.9467
  0
LINE
  8
0
 10
-57.3047
 20
-26.9467
 11
-60.6953
 21
-26.9467
  0
LINE
  8
0
 10
-1.69534
 20
-26.9467
 11
-5.05928
 21
-26.5217
  0
LINE
  8
0
 10
-5.05928
 20
-26.5217
 11
-8.34344
 21
-25.6785
  0
LINE
  8
0
 10
-8.34344
 20
-25.6785
 11
-11.496
 21
-24.4303
  0
LINE
  8
0
 10
-11.496
 20
-24.4303
 11
-14.4673
 21
-22.7968
  0
LINE
  8
0
 10
-14.4673
 20
-22.7968
 11
-17.2104
 21
-20.8038
  0
LINE
  8
0
 10
-17.2104
 20
-20.8038
 11
-19.6821
 21
-18.4828
  0
LINE
  8
0
 10
-19.6821
 20
-18.4828
 11
-21.8434
 21
-15.8702
  0
LINE
  8
0
 10
-21.8434
 20
-15.8702
 11
-23.6603
 21
-13.0073
  0
LINE
  8
0
 10
-23.6603
 20
-13.0073
 11
-25.104
 21
-9.93936
  0
LINE
  8
0
 10
-25.104
 20
-9.93936
 11
-26.1517
 21
-6.71461
  0
LINE
  8
0
 10
-26.1517
 20
-6.71461
 11
-26.7871
 21
-3.38399
  0
LINE
  8
0
 10
-26.7871
 20
-3.38399
 11
-27
 21
0
  0
LINE
  8
0
 10
-27
 20
0
 11
-26.7871
 21
3.38399
  0
LINE
  8
0
 10
-26.7871
 20
3.38399
 11
-26.1517
 21
6.71461
  0
LINE
  8
0
 10
-26.1517
 20
6.71461
 11
-25.104
 21
9.93936
  0
LINE
  8
0
 10
-25.104
 20
9.93936
 11
-23.6603
 21
13.0073
  0
LINE
  8
0
 10
-23.6603
 20
13.0073
 11
-21.8434
 21
15.8702
  0
LINE
  8
0
 10
-21.8434
 20
15.8702
 11
-19.6821
 21
18.4828
  0
LINE
  8
0
 10
-19.6821
 20
18.4828
 11
-17.2104
 21
20.8038
  0
LINE
  8
0
 10
-17.2104
 20
20.8038
 11
-14.4673
 21
22.7968
  0
LINE
  8
0
 10
-14.4673
 20
22.7968
 11
-11.496
 21
24.4303
  0
LINE
  8
0
 10
-11.496
 20
24.4303
 11
-8.34344
 21
25.6785
  0
LINE
  8
0
 10
-8.34344
 20
25.6785
 11
-5.05928
 21
26.5217
  0
LINE
  8
0
 10
-5.05928
 20
26.5217
 11
-1.69534
 21
26.9467
  0
LINE
  8
0
 10
-1.69534
 20
26.9467
 11
1.69534
 21
26.9467
  0
LINE
  8
0
 10
1.69534
 20
26.9467
 11
5.05928
 21
26.5217
  0
LINE
  8
0
 10
5.05928
 20
26.5217
 11
8.34344
 21
25.6785
  0
LINE
  8
0
 10
8.34344
 20
25.6785
 11
11.496
 21
24.4303
  0
LINE
  8
0
 10
11.496
 20
24.4303
 11
14.4673
 21
22.7968
  0
LINE
  8
0
 10
14.4673
 20
22.7968
 11
17.2104
 21
20.8038
  0
LINE
  8
0
 10
17.2104
 20
20.8038
 11
19.6821
 21
18.4828
  0
LINE
  8
0
 10
19.6821
 20
18.4828
 11
21.8434
 21
15.8702
  0
LINE
  8
0
 10
21.8434
 20
15.8702
 11
23.6603
 21
13.0073
  0
LINE
  8
0
 10
23.6603
 20
13.0073
 11
25.104
 21
9.93936
  0
LINE
  8
0
 10
25.104
 20
9.93936
 11
26.1517
 21
6.71461
  0
LINE
  8
0
 10
26.1517
 20
6.71461
 11
26.7871
 21
3.38399
  0
LINE
  8
0
 10
26.7871
 20
3.38399
 11
27
 21
0
  0
LINE
  8
0
 10
27
 20
0
 11
26.7871
 21
-3.38399
  0
LINE
  8
0
 10
26.7871
 20
-3.38399
 11
26.1517
 21
-6.71461
  0
LINE
  8
0
 10
26.1517
 20
-6.71461
 11
25.104
 21
-9.93936
  0
LINE
  8
0
 10
25.104
 20
-9.93936
 11
23.6603
 21
-13.0073
  0
LINE
  8
0
 10
23.6603
 20
-13.0073
 11
21.8434
 21
-15.8702
  0
LINE
  8
0
 10
21.8434
 20
-15.8702
 11
19.6821
 21
-18.4828
  0
LINE
  8
0
 10
19.6821
 20
-18.4828
 11
17.2104
 21
-20.8038
  0
LINE
  8
0
 10
17.2104
 20
-20.8038
 11
14.4673
 21
-22.7968
  0
LINE
  8
0
 10
14.4673
 20
-22.7968
 11
11.496
 21
-24.4303
  0
LINE
  8
0
 10
11.496
 20
-24.4303
 11
8.34344
 21
-25.6785
  0
LINE
  8
0
 10
8.34344
 20
-25.6785
 11
5.05928
 21
-26.5217
  0
LINE
  8
0
 10
5.05928
 20
-26.5217
 11
1.69534
 21
-26.9467
  0
LINE
  8
0
 10
1.69534
 20
-26.9467
 11
-1.69534
 21
-26.9467
  0
LINE
  8
0
 10
57.3047
 20
-26.9467
 11
53.9407
 21
-26.5217
  0
LINE
  8
0
 10
53.9407
 20
-26.5217
 11
50.6565
 21
-25.6785
  0
LINE
  8
0
 10
50.6565
 20
-25.6785
 11
47.504
 21
-24.4303
  0
LINE
  8
0
 10
47.504
 20
-24.4303
 11
44.5327
 21
-22.7968
  0
LINE
  8
0
 10
44.5327
 20
-22.7968
 11
41.7896
 21
-20.8038
  0
LINE
  8
0
 10
41.7896
 20
-20.8038
 11
39.3178
 21
-18.4828
  0
LINE
  8
0
 10
39.3178
 20
-18.4828
 11
37.1565
 21
-15.8702
  0
LINE
  8
0
 10
37.1565
 20
-15.8702
 11
35.3397
 21
-13.0073
  0
LINE
  8
0
 10
35.3397
 20
-13.0073
 11
33.896
 21
-9.93936
  0
LINE
  8
0
 10
33.896
 20
-9.93936
 11
32.8483
 21
-6.71461
  0
LINE
  8
0
 10
32.8483
 20
-6.71461
 11
32.2129
 21
-3.38399
  0
LINE
  8
0
 10
32.2129
 20
-3.38399
 11
32
 21
0
  0
LINE
  8
0
 10
32
 20
0
 11
32.2129
 21
3.38399
  0
LINE
  8
0
 10
32.2129
 20
3.38399
 11
32.8483
 21
6.71461
  0
LINE
  8
0
 10
32.8483
 20
6.71461
 11
33.896
 21
9.93936
  0
LINE
  8
0
 10
33.896
 20
9.93936
 11
35.3397
 21
13.0073
  0
LINE
  8
0
 10
35.3397
 20
13.0073
 11
37.1565
 21
15.8702
  0
LINE
  8
0
 10
37.1565
 20
15.8702
 11
39.3178
 21
18.4828
  0
LINE
  8
0
 10
39.3178
 20
18.4828
 11
41.7896
 21
20.8038
  0
LINE
  8
0
 10
41.7896
 20
20.8038
 11
44.5327
 21
22.7968
  0
LINE
  8
0
 10
44.5327
 20
22.7968
 11
47.504
 21
24.4303
  0
LINE
  8
0
 10
47.504
 20
24.4303
 11
50.6565
 21
25.6785
  0
LINE
  8
0
 10
50.6565
 20
25.6785
 11
53.9407
 21
26.5217
  0
LINE
  8
0
 10
53.9407
 20
26.5217
 11
57.3047
 21
26.9467
  0
LINE
  8
0
 10
57.3047
 20
26.9467
 11
60.6953
 21
26.9467
  0
LINE
  8
0
 10
60.6953
 20
26.9467
 11
64.0593
 21
26.5217
  0
LINE
  8
0
 10
64.0593
 20
26.5217
 11
67.3435
 21
25.6785
  0
LINE
  8
0
 10
67.3435
 20
25.6785
 11
70.496
 21
24.4303
  0
LINE
  8
0
 10
70.496
 20
24.4303
 11
73.4673
 21
22.7968
  0
LINE
  8
0
 10
73.4673
 20
22.7968
 11
76.2104
 21
20.8038
  0
LINE
  8
0
 10
76.2104
 20
20.8038
 11
78.6821
 21
18.4828
  0
LINE
  8
0
 10
78.6821
 20
18.4828
 11
80.8435
 21
15.8702
  0
LINE
  8
0
 10
80.8435
 20
15.8702
 11
82.6603
 21
13.0073
  0
LINE
  8
0
 10
82.6603
 20
13.0073
 11
84.104
 21
9.93936
  0
LINE
  8
0
 10
84.104
 20
9.93936
 11
85.1517
 21
6.71461
  0
LINE
  8
0
 10
85.1517
 20
6.71461
 11
85.7871
 21
3.38399
  0
LINE
  8
0
 10
85.7871
 20
3.38399
 11
86
 21
0
  0
LINE
  8
0
 10
86
 20
0
 11
85.7871
 21
-3.38399
  0
LINE
  8
0
 10
85.7871
 20
-3.38399
 11
85.1517
 21
-6.71461
  0
LINE
  8
0
 10
85.1517
 20
-6.71461
 11
84.104
 21
-9.93936
  0
LINE
  8
0
 10
84.104
 20
-9.93936
 11
82.6603
 21
-13.0073
  0
LINE
  8
0
 10
82.6603
 20
-13.0073
 11
80.8435
 21
-15.8702
  0
LINE
  8
0
 10
80.8435
 20
-15.8702
 11
78.6821
 21
-18.4828
  0
LINE
  8
0
 10
78.6821
 20
-18.4828
 11
76.2104
 21
-20.8038
  0
LINE
  8
0
 10
76.2104
 20
-20.8038
 11
73.4673
 21
-22.7968
  0
LINE
  8
0
 10
73.4673
 20
-22.7968
 11
70.496
 21
-24.4303
  0
LINE
  8
0
 10
70.496
 20
-24.4303
 11
67.3435
 21
-25.6785
  0
LINE
  8
0
 10
67.3435
 20
-25.6785
 11
64.0593
 21
-26.5217
  0
LINE
  8
0
 10
64.0593
 20
-26.5217
 11
60.6953
 21
-26.9467
  0
LINE
  8
0
 10
60.6953
 20
-26.9467
 11
57.3047
 21
-26.9467
  0
LINE
  8
0
 10
-90.0942
 20
21.003
 11
-90.2811
 21
21.0266
  0
LINE
  8
0
 10
-90.2811
 20
21.0266
 11
-90.4635
 21
21.0734
  0
LINE
  8
0
 10
-90.4635
 20
21.0734
 11
-90.6387
 21
21.1427
  0
LINE
  8
0
 10
-90.6387
 20
21.1427
 11
-90.8037
 21
21.2335
  0
LINE
  8
0
 10
-90.8037
 20
21.2335
 11
-90.9561
 21
21.3442
  0
LINE
  8
0
 10
-90.9561
 20
21.3442
 11
-91.0934
 21
21.4732
  0
LINE
  8
0
 10
-91.0934
 20
21.4732
 11
-91.2135
 21
21.6183
  0
LINE
  8
0
 10
-91.2135
 20
21.6183
 11
-91.3145
 21
21.7774
  0
LINE
  8
0
 10
-91.3145
 20
21.7774
 11
-91.3947
 21
21.9478
  0
LINE
  8
0
 10
-91.3947
 20
21.9478
 11
-91.4529
 21
22.127
  0
LINE
  8
0
 10
-91.4529
 20
22.127
 11
-91.4882
 21
22.312
  0
LINE
  8
0
 10
-91.4882
 20
22.312
 11
-91.5
 21
22.5
  0
LINE
  8
0
 10
-91.5
 20
22.5
 11
-91.4882
 21
22.688
  0
LINE
  8
0
 10
-91.4882
 20
22.688
 11
-91.4529
 21
22.873
  0
LINE
  8
0
 10
-91.4529
 20
22.873
 11
-91.3947
 21
23.0522
  0
LINE
  8
0
 10
-91.3947
 20
23.0522
 11
-91.3145
 21
23.2226
  0
LINE
  8
0
 10
-91.3145
 20
23.2226
 11
-91.2135
 21
23.3817
  0
LINE
  8
0
 10
-91.2135
 20
23.3817
 11
-91.0934
 21
23.5268
  0
LINE
  8
0
 10
-91.0934
 20
23.5268
 11
-90.9561
 21
23.6558
  0
LINE
  8
0
 10
-90.9561
 20
23.6558
 11
-90.8037
 21
23.7665
  0
LINE
  8
0
 10
-90.8037
 20
23.7665
 11
-90.6387
 21
23.8572
  0
LINE
  8
0
 10
-90.6387
 20
23.8572
 11
-90.4635
 21
23.9266
  0
LINE
  8
0
 10
-90.4635
 20
23.9266
 11
-90.2811
 21
23.9734
  0
LINE
  8
0
 10
-90.2811
 20
23.9734
 11
-90.0942
 21
23.997
  0
LINE
  8
0
 10
-90.0942
 20
23.997
 11
-89.9058
 21
23.997
  0
LINE
  8
0
 10
-89.9058
 20
23.997
 11
-89.7189
 21
23.9734
  0
LINE
  8
0
 10
-89.7189
 20
23.9734
 11
-89.5365
 21
23.9266
  0
LINE
  8
0
 10
-89.5365
 20
23.9266
 11
-89.3613
 21
23.8572
  0
LINE
  8
0
 10
-89.3613
 20
23.8572
 11
-89.1963
 21
23.7665
  0
LINE
  8
0
 10
-89.1963
 20
23.7665
 11
-89.0439
 21
23.6558
  0
LINE
  8
0
 10
-89.0439
 20
23.6558
 11
-88.9065
 21
23.5268
  0
LINE
  8
0
 10
-88.9065
 20
23.5268
 11
-88.7865
 21
23.3817
  0
LINE
  8
0
 10
-88.7865
 20
23.3817
 11
-88.6855
 21
23.2226
  0
LINE
  8
0
 10
-88.6855
 20
23.2226
 11
-88.6053
 21
23.0522
  0
LINE
  8
0
 10
-88.6053
 20
23.0522
 11
-88.5471
 21
22.873
  0
LINE
  8
0
 10
-88.5471
 20
22.873
 11
-88.5118
 21
22.688
  0
LINE
  8
0
 10
-88.5118
 20
22.688
 11
-88.5
 21
22.5
  0
LINE
  8
0
 10
-88.5
 20
22.5
 11
-88.5118
 21
22.312
  0
LINE
  8
0
 10
-88.5118
 20
22.312
 11
-88.5471
 21
22.127
  0
LINE
  8
0
 10
-88.5471
 20
22.127
 11
-88.6053
 21
21.9478
  0
LINE
  8
0
 10
-88.6053
 20
21.9478
 11
-88.6855
 21
21.7774
  0
LINE
  8
0
 10
-88.6855
 20
21.7774
 11
-88.7865
 21
21.6183
  0
LINE
  8
0
 10
-88.7865
 20
21.6183
 11
-88.9065
 21
21.4732
  0
LINE
  8
0
 10
-88.9065
 20
21.4732
 11
-89.0439
 21
21.3442
  0
LINE
  8
0
 10
-89.0439
 20
21.3442
 11
-89.1963
 21
21.2335
  0
LINE
  8
0
 10
-89.1963
 20
21.2335
 11
-89.3613
 21
21.1427
  0
LINE
  8
0
 10
-89.3613
 20
21.1427
 11
-89.5365
 21
21.0734
  0
LINE
  8
0
 10
-89.5365
 20
21.0734
 11
-89.7189
 21
21.0266
  0
LINE
  8
0
 10
-89.7189
 20
21.0266
 11
-89.9058
 21
21.003
  0
LINE
  8
0
 10
-89.9058
 20
21.003
 11
-90.0942
 21
21.003
  0
LINE
  8
0
 10
89.9058
 20
21.003
 11
89.7189
 21
21.0266
  0
LINE
  8
0
 10
89.7189
 20
21.0266
 11
89.5365
 21
21.0734
  0
LINE
  8
0
 10
89.5365
 20
21.0734
 11
89.3613
 21
21.1427
  0
LINE
  8
0
 10
89.3613
 20
21.1427
 11
89.1963
 21
21.2335
  0
LINE
  8
0
 10
89.1963
 20
21.2335
 11
89.0439
 21
21.3442
  0
LINE
  8
0
 10
89.0439
 20
21.3442
 11
88.9065
 21
21.4732
  0
LINE
  8
0
 10
88.9065
 20
21.4732
 11
88.7865
 21
21.6183
  0
LINE
  8
0
 10
88.7865
 20
21.6183
 11
88.6855
 21
21.7774
  0
LINE
  8
0
 10
88.6855
 20
21.7774
 11
88.6053
 21
21.9478
  0
LINE
  8
0
 10
88.6053
 20
21.9478
 11
88.5471
 21
22.127
  0
LINE
  8
0
 10
88.5471
 20
22.127
 11
88.5118
 21
22.312
  0
LINE
  8
0
 10
88.5118
 20
22.312
 11
88.5
 21
22.5
  0
LINE
  8
0
 10
88.5
 20
22.5
 11
88.5118
 21
22.688
  0
LINE
  8
0
 10
88.5118
 20
22.688
 11
88.5471
 21
22.873
  0
LINE
  8
0
 10
88.5471
 20
22.873
 11
88.6053
 21
23.0522
  0
LINE
  8
0
 10
88.6053
 20
23.0522
 11
88.6855
 21
23.2226
  0
LINE
  8
0
 10
88.6855
 20
23.2226
 11
88.7865
 21
23.3817
  0
LINE
  8
0
 10
88.7865
 20
23.3817
 11
88.9065
 21
23.5268
  0
LINE
  8
0
 10
88.9065
 20
23.5268
 11
89.0439
 21
23.6558
  0
LINE
  8
0
 10
89.0439
 20
23.6558
 11
89.1963
 21
23.7665
  0
LINE
  8
0
 10
89.1963
 20
23.7665
 11
89.3613
 21
23.8572
  0
LINE
  8
0
 10
89.3613
 20
23.8572
 11
89.5365
 21
23.9266
  0
LINE
  8
0
 10
89.5365
 20
23.9266
 11
89.7189
 21
23.9734
  0
LINE
  8
0
 10
89.7189
 20
23.9734
 11
89.9058
 21
23.997
  0
LINE
  8
0
 10
89.9058
 20
23.997
 11
90.0942
 21
23.997
  0
LINE
  8
0
 10
90.0942
 20
23.997
 11
90.2811
 21
23.9734
  0
LINE
  8
0
 10
90.2811
 20
23.9734
 11
90.4635
 21
23.9266
  0
LINE
  8
0
 10
90.4635
 20
23.9266
 11
90.6387
 21
23.8572
  0
LINE
  8
0
 10
90.6387
 20
23.8572
 11
90.8037
 21
23.7665
  0
LINE
  8
0
 10
90.8037
 20
23.7665
 11
90.9561
 21
23.6558
  0
LINE
  8
0
 10
90.9561
 20
23.6558
 11
91.0934
 21
23.5268
  0
LINE
  8
0
 10
91.0934
 20
23.5268
 11
91.2135
 21
23.3817
  0
LINE
  8
0
 10
91.2135
 20
23.3817
 11
91.3145
 21
23.2226
  0
LINE
  8
0
 10
91.3145
 20
23.2226
 11
91.3947
 21
23.0522
  0
LINE
  8
0
 10
91.3947
 20
23.0522
 11
91.4529
 21
22.873
  0
LINE
  8
0
 10
91.4529
 20
22.873
 11
91.4882
 21
22.688
  0
LINE
  8
0
 10
91.4882
 20
22.688
 11
91.5
 21
22.5
  0
LINE
  8
0
 10
91.5
 20
22.5
 11
91.4882
 21
22.312
  0
LINE
  8
0
 10
91.4882
 20
22.312
 11
91.4529
 21
22.127
  0
LINE
  8
0
 10
91.4529
 20
22.127
 11
91.3947
 21
21.9478
  0
LINE
  8
0
 10
91.3947
 20
21.9478
 11
91.3145
 21
21.7774
  0
LINE
  8
0
 10
91.3145
 20
21.7774
 11
91.2135
 21
21.6183
  0
LINE
  8
0
 10
91.2135
 20
21.6183
 11
91.0934
 21
21.4732
  0
LINE
  8
0
 10
91.0934
 20
21.4732
 11
90.9561
 21
21.3442
  0
LINE
  8
0
 10
90.9561
 20
21.3442
 11
90.8037
 21
21.2335
  0
LINE
  8
0
 10
90.8037
 20
21.2335
 11
90.6387
 21
21.1427
  0
LINE
  8
0
 10
90.6387
 20
21.1427
 11
90.4635
 21
21.0734
  0
LINE
  8
0
 10
90.4635
 20
21.0734
 11
90.2811
 21
21.0266
  0
LINE
  8
0
 10
90.2811
 20
21.0266
 11
90.0942
 21
21.003
  0
LINE
  8
0
 10
90.0942
 20
21.003
 11
89.9058
 21
21.003
  0
LINE
  8
0
 10
89.8116
 20
12.0059
 11
89.4379
 21
12.0531
  0
LINE
  8
0
 10
89.4379
 20
12.0531
 11
89.073
 21
12.1468
  0
LINE
  8
0
 10
89.073
 20
12.1468
 11
88.7227
 21
12.2855
  0
LINE
  8
0
 10
88.7227
 20
12.2855
 11
88.3925
 21
12.467
  0
LINE
  8
0
 10
88.3925
 20
12.467
 11
88.0877
 21
12.6884
  0
LINE
  8
0
 10
88.0877
 20
12.6884
 11
87.8131
 21
12.9464
  0
LINE
  8
0
 10
87.8131
 20
12.9464
 11
87.573
 21
13.2366
  0
LINE
  8
0
 10
87.573
 20
13.2366
 11
87.3711
 21
13.5547
  0
LINE
  8
0
 10
87.3711
 20
13.5547
 11
87.2107
 21
13.8956
  0
LINE
  8
0
 10
87.2107
 20
13.8956
 11
87.0943
 21
14.2539
  0
LINE
  8
0
 10
87.0943
 20
14.2539
 11
87.0237
 21
14.624
  0
LINE
  8
0
 10
87.0237
 20
14.624
 11
87
 21
15
  0
LINE
  8
0
 10
87
 20
15
 11
87.0237
 21
15.376
  0
LINE
  8
0
 10
87.0237
 20
15.376
 11
87.0943
 21
15.7461
  0
LINE
  8
0
 10
87.0943
 20
15.7461
 11
87.2107
 21
16.1044
  0
LINE
  8
0
 10
87.2107
 20
16.1044
 11
87.3711
 21
16.4453
  0
LINE
  8
0
 10
87.3711
 20
16.4453
 11
87.573
 21
16.7634
  0
LINE
  8
0
 10
87.573
 20
16.7634
 11
87.8131
 21
17.0536
  0
LINE
  8
0
 10
87.8131
 20
17.0536
 11
88.0877
 21
17.3115
  0
LINE
  8
0
 10
88.0877
 20
17.3115
 11
88.3925
 21
17.533
  0
LINE
  8
0
 10
88.3925
 20
17.533
 11
88.7227
 21
17.7145
  0
LINE
  8
0
 10
88.7227
 20
17.7145
 11
89.073
 21
17.8532
  0
LINE
  8
0
 10
89.073
 20
17.8532
 11
89.4379
 21
17.9469
  0
LINE
  8
0
 10
89.4379
 20
17.9469
 11
89.8116
 21
17.9941
  0
LINE
  8
0
 10
89.8116
 20
17.9941
 11
90.1884
 21
17.9941
  0
LINE
  8
0
 10
90.1884
 20
17.9941
 11
90.5621
 21
17.9469
  0
LINE
  8
0
 10
90.5621
 20
17.9469
 11
90.927
 21
17.8532
  0
LINE
  8
0
 10
90.927
 20
17.8532
 11
91.2773
 21
17.7145
  0
LINE
  8
0
 10
91.2773
 20
17.7145
 11
91.6075
 21
17.533
  0
LINE
  8
0
 10
91.6075
 20
17.533
 11
91.9123
 21
17.3115
  0
LINE
  8
0
 10
91.9123
 20
17.3115
 11
92.1869
 21
17.0536
  0
LINE
  8
0
 10
92.1869
 20
17.0536
 11
92.427
 21
16.7634
  0
LINE
  8
0
 10
92.427
 20
16.7634
 11
92.6289
 21
16.4453
  0
LINE
  8
0
 10
92.6289
 20
16.4453
 11
92.7893
 21
16.1044
  0
LINE
  8
0
 10
92.7893
 20
16.1044
 11
92.9057
 21
15.7461
  0
LINE
  8
0
 10
92.9057
 20
15.7461
 11
92.9763
 21
15.376
  0
LINE
  8
0
 10
92.9763
 20
15.376
 11
93
 21
15
  0
LINE
  8
0
 10
93
 20
15
 11
92.9763
 21
14.624
  0
LINE
  8
0
 10
92.9763
 20
14.624
 11
92.9057
 21
14.2539
  0
LINE
  8
0
 10
92.9057
 20
14.2539
 11
92.7893
 21
13.8956
  0
LINE
  8
0
 10
92.7893
 20
13.8956
 11
92.6289
 21
13.5547
  0
LINE
  8
0
 10
92.6289
 20
13.5547
 11
92.427
 21
13.2366
  0
LINE
  8
0
 10
92.427
 20
13.2366
 11
92.1869
 21
12.9464
  0
LINE
  8
0
 10
92.1869
 20
12.9464
 11
91.9123
 21
12.6884
  0
LINE
  8
0
 10
91.9123
 20
12.6884
 11
91.6075
 21
12.467
  0
LINE
  8
0
 10
91.6075
 20
12.467
 11
91.2773
 21
12.2855
  0
LINE
  8
0
 10
91.2773
 20
12.2855
 11
90.927
 21
12.1468
  0
LINE
  8
0
 10
90.927
 20
12.1468
 11
90.5621
 21
12.0531
  0
LINE
  8
0
 10
90.5621
 20
12.0531
 11
90.1884
 21
12.0059
  0
LINE
  8
0
 10
90.1884
 20
12.0059
 11
89.8116
 21
12.0059
  0
LINE
  8
0
 10
-90.1884
 20
12.0059
 11
-90.5621
 21
12.0531
  0
LINE
  8
0
 10
-90.5621
 20
12.0531
 11
-90.927
 21
12.1468
  0
LINE
  8
0
 10
-90.927
 20
12.1468
 11
-91.2773
 21
12.2855
  0
LINE
  8
0
 10
-91.2773
 20
12.2855
 11
-91.6075
 21
12.467
  0
LINE
  8
0
 10
-91.6075
 20
12.467
 11
-91.9123
 21
12.6884
  0
LINE
  8
0
 10
-91.9123
 20
12.6884
 11
-92.1869
 21
12.9464
  0
LINE
  8
0
 10
-92.1869
 20
12.9464
 11
-92.427
 21
13.2366
  0
LINE
  8
0
 10
-92.427
 20
13.2366
 11
-92.6289
 21
13.5547
  0
LINE
  8
0
 10
-92.6289
 20
13.5547
 11
-92.7893
 21
13.8956
  0
LINE
  8
0
 10
-92.7893
 20
13.8956
 11
-92.9057
 21
14.2539
  0
LINE
  8
0
 10
-92.9057
 20
14.2539
 11
-92.9763
 21
14.624
  0
LINE
  8
0
 10
-92.9763
 20
14.624
 11
-93
 21
15
  0
LINE
  8
0
 10
-93
 20
15
 11
-92.9763
 21
15.376
  0
LINE
  8
0
 10
-92.9763
 20
15.376
 11
-92.9057
 21
15.7461
  0
LINE
  8
0
 10
-92.9057
 20
15.7461
 11
-92.7893
 21
16.1044
  0
LINE
  8
0
 10
-92.7893
 20
16.1044
 11
-92.6289
 21
16.4453
  0
LINE
  8
0
 10
-92.6289
 20
16.4453
 11
-92.427
 21
16.7634
  0
LINE
  8
0
 10
-92.427
 20
16.7634
 11
-92.1869
 21
17.0536
  0
LINE
  8
0
 10
-92.1869
 20
17.0536
 11
-91.9123
 21
17.3115
  0
LINE
  8
0
 10
-91.9123
 20
17.3115
 11
-91.6075
 21
17.533
  0
LINE
  8
0
 10
-91.6075
 20
17.533
 11
-91.2773
 21
17.7145
  0
LINE
  8
0
 10
-91.2773
 20
17.7145
 11
-90.927
 21
17.8532
  0
LINE
  8
0
 10
-90.927
 20
17.8532
 11
-90.5621
 21
17.9469
  0
LINE
  8
0
 10
-90.5621
 20
17.9469
 11
-90.1884
 21
17.9941
  0
LINE
  8
0
 10
-90.1884
 20
17.9941
 11
-89.8116
 21
17.9941
  0
LINE
  8
0
 10
-89.8116
 20
17.9941
 11
-89.4379
 21
17.9469
  0
LINE
  8
0
 10
-89.4379
 20
17.9469
 11
-89.073
 21
17.8532
  0
LINE
  8
0
 10
-89.073
 20
17.8532
 11
-88.7227
 21
17.7145
  0
LINE
  8
0
 10
-88.7227
 20
17.7145
 11
-88.3925
 21
17.533
  0
LINE
  8
0
 10
-88.3925
 20
17.533
 11
-88.0877
 21
17.3115
  0
LINE
  8
0
 10
-88.0877
 20
17.3115
 11
-87.8131
 21
17.0536
  0
LINE
  8
0
 10
-87.8131
 20
17.0536
 11
-87.573
 21
16.7634
  0
LINE
  8
0
 10
-87.573
 20
16.7634
 11
-87.3711
 21
16.4453
  0
LINE
  8
0
 10
-87.3711
 20
16.4453
 11
-87.2107
 21
16.1044
  0
LINE
  8
0
 10
-87.2107
 20
16.1044
 11
-87.0943
 21
15.7461
  0
LINE
  8
0
 10
-87.0943
 20
15.7461
 11
-87.0237
 21
15.376
  0
LINE
  8
0
 10
-87.0237
 20
15.376
 11
-87
 21
15
  0
LINE
  8
0
 10
-87
 20
15
 11
-87.0237
 21
14.624
  0
LINE
  8
0
 10
-87.0237
 20
14.624
 11
-87.0943
 21
14.2539
  0
LINE
  8
0
 10
-87.0943
 20
14.2539
 11
-87.2107
 21
13.8956
  0
LINE
  8
0
 10
-87.2107
 20
13.8956
 11
-87.3711
 21
13.5547
  0
LINE
  8
0
 10
-87.3711
 20
13.5547
 11
-87.573
 21
13.2366
  0
LINE
  8
0
 10
-87.573
 20
13.2366
 11
-87.8131
 21
12.9464
  0
LINE
  8
0
 10
-87.8131
 20
12.9464
 11
-88.0877
 21
12.6884
  0
LINE
  8
0
 10
-88.0877
 20
12.6884
 11
-88.3925
 21
12.467
  0
LINE
  8
0
 10
-88.3925
 20
12.467
 11
-88.7227
 21
12.2855
  0
LINE
  8
0
 10
-88.7227
 20
12.2855
 11
-89.073
 21
12.1468
  0
LINE
  8
0
 10
-89.073
 20
12.1468
 11
-89.4379
 21
12.0531
  0
LINE
  8
0
 10
-89.4379
 20
12.0531
 11
-89.8116
 21
12.0059
  0
LINE
  8
0
 10
-89.8116
 20
12.0059
 11
-90.1884
 21
12.0059
  0
LINE
  8
0
 10
89.9058
 20
6.00294
 11
89.7189
 21
6.02657
  0
LINE
  8
0
 10
89.7189
 20
6.02657
 11
89.5365
 21
6.07341
  0
LINE
  8
0
 10
89.5365
 20
6.07341
 11
89.3613
 21
6.14275
  0
LINE
  8
0
 10
89.3613
 20
6.14275
 11
89.1963
 21
6.23351
  0
LINE
  8
0
 10
89.1963
 20
6.23351
 11
89.0439
 21
6.34422
  0
LINE
  8
0
 10
89.0439
 20
6.34422
 11
88.9065
 21
6.47318
  0
LINE
  8
0
 10
88.9065
 20
6.47318
 11
88.7865
 21
6.61832
  0
LINE
  8
0
 10
88.7865
 20
6.61832
 11
88.6855
 21
6.77736
  0
LINE
  8
0
 10
88.6855
 20
6.77736
 11
88.6053
 21
6.9478
  0
LINE
  8
0
 10
88.6053
 20
6.9478
 11
88.5471
 21
7.12695
  0
LINE
  8
0
 10
88.5471
 20
7.12695
 11
88.5118
 21
7.312
  0
LINE
  8
0
 10
88.5118
 20
7.312
 11
88.5
 21
7.5
  0
LINE
  8
0
 10
88.5
 20
7.5
 11
88.5118
 21
7.68799
  0
LINE
  8
0
 10
88.5118
 20
7.68799
 11
88.5471
 21
7.87303
  0
LINE
  8
0
 10
88.5471
 20
7.87303
 11
88.6053
 21
8.05219
  0
LINE
  8
0
 10
88.6053
 20
8.05219
 11
88.6855
 21
8.22263
  0
LINE
  8
0
 10
88.6855
 20
8.22263
 11
88.7865
 21
8.38167
  0
LINE
  8
0
 10
88.7865
 20
8.38167
 11
88.9065
 21
8.52681
  0
LINE
  8
0
 10
88.9065
 20
8.52681
 11
89.0439
 21
8.65576
  0
LINE
  8
0
 10
89.0439
 20
8.65576
 11
89.1963
 21
8.76648
  0
LINE
  8
0
 10
89.1963
 20
8.76648
 11
89.3613
 21
8.85724
  0
LINE
  8
0
 10
89.3613
 20
8.85724
 11
89.5365
 21
8.92657
  0
LINE
  8
0
 10
89.5365
 20
8.92657
 11
89.7189
 21
8.97342
  0
LINE
  8
0
 10
89.7189
 20
8.97342
 11
89.9058
 21
8.99704
  0
LINE
  8
0
 10
89.9058
 20
8.99704
 11
90.0942
 21
8.99704
  0
LINE
  8
0
 10
90.0942
 20
8.99704
 11
90.2811
 21
8.97342
  0
LINE
  8
0
 10
90.2811
 20
8.97342
 11
90.4635
 21
8.92657
  0
LINE
  8
0
 10
90.4635
 20
8.92657
 11
90.6387
 21
8.85724
  0
LINE
  8
0
 10
90.6387
 20
8.85724
 11
90.8037
 21
8.76648
  0
LINE
  8
0
 10
90.8037
 20
8.76648
 11
90.9561
 21
8.65576
  0
LINE
  8
0
 10
90.9561
 20
8.65576
 11
91.0934
 21
8.52681
  0
LINE
  8
0
 10
91.0934
 20
8.52681
 11
91.2135
 21
8.38167
  0
LINE
  8
0
 10
91.2135
 20
8.38167
 11
91.3145
 21
8.22263
  0
LINE
  8
0
 10
91.3145
 20
8.22263
 11
91.3947
 21
8.05219
  0
LINE
  8
0
 10
91.3947
 20
8.05219
 11
91.4529
 21
7.87303
  0
LINE
  8
0
 10
91.4529
 20
7.87303
 11
91.4882
 21
7.68799
  0
LINE
  8
0
 10
91.4882
 20
7.68799
 11
91.5
 21
7.5
  0
LINE
  8
0
 10
91.5
 20
7.5
 11
91.4882
 21
7.312
  0
LINE
  8
0
 10
91.4882
 20
7.312
 11
91.4529
 21
7.12695
  0
LINE
  8
0
 10
91.4529
 20
7.12695
 11
91.3947
 21
6.9478
  0
LINE
  8
0
 10
91.3947
 20
6.9478
 11
91.3145
 21
6.77736
  0
LINE
  8
0
 10
91.3145
 20
6.77736
 11
91.2135
 21
6.61832
  0
LINE
  8
0
 10
91.2135
 20
6.61832
 11
91.0934
 21
6.47318
  0
LINE
  8
0
 10
91.0934
 20
6.47318
 11
90.9561
 21
6.34422
  0
LINE
  8
0
 10
90.9561
 20
6.34422
 11
90.8037
 21
6.23351
  0
LINE
  8
0
 10
90.8037
 20
6.23351
 11
90.6387
 21
6.14275
  0
LINE
  8
0
 10
90.6387
 20
6.14275
 11
90.4635
 21
6.07341
  0
LINE
  8
0
 10
90.4635
 20
6.07341
 11
90.2811
 21
6.02657
  0
LINE
  8
0
 10
90.2811
 20
6.02657
 11
90.0942
 21
6.00294
  0
LINE
  8
0
 10
90.0942
 20
6.00294
 11
89.9058
 21
6.00294
  0
LINE
  8
0
 10
-90.0942
 20
6.00294
 11
-90.2811
 21
6.02657
  0
LINE
  8
0
 10
-90.2811
 20
6.02657
 11
-90.4635
 21
6.07341
  0
LINE
  8
0
 10
-90.4635
 20
6.07341
 11
-90.6387
 21
6.14275
  0
LINE
  8
0
 10
-90.6387
 20
6.14275
 11
-90.8037
 21
6.23351
  0
LINE
  8
0
 10
-90.8037
 20
6.23351
 11
-90.9561
 21
6.34422
  0
LINE
  8
0
 10
-90.9561
 20
6.34422
 11
-91.0934
 21
6.47318
  0
LINE
  8
0
 10
-91.0934
 20
6.47318
 11
-91.2135
 21
6.61832
  0
LINE
  8
0
 10
-91.2135
 20
6.61832
 11
-91.3145
 21
6.77736
  0
LINE
  8
0
 10
-91.3145
 20
6.77736
 11
-91.3947
 21
6.9478
  0
LINE
  8
0
 10
-91.3947
 20
6.9478
 11
-91.4529
 21
7.12695
  0
LINE
  8
0
 10
-91.4529
 20
7.12695
 11
-91.4882
 21
7.312
  0
LINE
  8
0
 10
-91.4882
 20
7.312
 11
-91.5
 21
7.5
  0
LINE
  8
0
 10
-91.5
 20
7.5
 11
-91.4882
 21
7.68799
  0
LINE
  8
0
 10
-91.4882
 20
7.68799
 11
-91.4529
 21
7.87303
  0
LINE
  8
0
 10
-91.4529
 20
7.87303
 11
-91.3947
 21
8.05219
  0
LINE
  8
0
 10
-91.3947
 20
8.05219
 11
-91.3145
 21
8.22263
  0
LINE
  8
0
 10
-91.3145
 20
8.22263
 11
-91.2135
 21
8.38167
  0
LINE
  8
0
 10
-91.2135
 20
8.38167
 11
-91.0934
 21
8.52681
  0
LINE
  8
0
 10
-91.0934
 20
8.52681
 11
-90.9561
 21
8.65576
  0
LINE
  8
0
 10
-90.9561
 20
8.65576
 11
-90.8037
 21
8.76648
  0
LINE
  8
0
 10
-90.8037
 20
8.76648
 11
-90.6387
 21
8.85724
  0
LINE
  8
0
 10
-90.6387
 20
8.85724
 11
-90.4635
 21
8.92657
  0
LINE
  8
0
 10
-90.4635
 20
8.92657
 11
-90.2811
 21
8.97342
  0
LINE
  8
0
 10
-90.2811
 20
8.97342
 11
-90.0942
 21
8.99704
  0
LINE
  8
0
 10
-90.0942
 20
8.99704
 11
-89.9058
 21
8.99704
  0
LINE
  8
0
 10
-89.9058
 20
8.99704
 11
-89.7189
 21
8.97342
  0
LINE
  8
0
 10
-89.7189
 20
8.97342
 11
-89.5365
 21
8.92657
  0
LINE
  8
0
 10
-89.5365
 20
8.92657
 11
-89.3613
 21
8.85724
  0
LINE
  8
0
 10
-89.3613
 20
8.85724
 11
-89.1963
 21
8.76648
  0
LINE
  8
0
 10
-89.1963
 20
8.76648
 11
-89.0439
 21
8.65576
  0
LINE
  8
0
 10
-89.0439
 20
8.65576
 11
-88.9065
 21
8.52681
  0
LINE
  8
0
 10
-88.9065
 20
8.52681
 11
-88.7865
 21
8.38167
  0
LINE
  8
0
 10
-88.7865
 20
8.38167
 11
-88.6855
 21
8.22263
  0
LINE
  8
0
 10
-88.6855
 20
8.22263
 11
-88.6053
 21
8.05219
  0
LINE
  8
0
 10
-88.6053
 20
8.05219
 11
-88.5471
 21
7.87303
  0
LINE
  8
0
 10
-88.5471
 20
7.87303
 11
-88.5118
 21
7.68799
  0
LINE
  8
0
 10
-88.5118
 20
7.68799
 11
-88.5
 21
7.5
  0
LINE
  8
0
 10
-88.5
 20
7.5
 11
-88.5118
 21
7.312
  0
LINE
  8
0
 10
-88.5118
 20
7.312
 11
-88.5471
 21
7.12695
  0
LINE
  8
0
 10
-88.5471
 20
7.12695
 11
-88.6053
 21
6.9478
  0
LINE
  8
0
 10
-88.6053
 20
6.9478
 11
-88.6855
 21
6.77736
  0
LINE
  8
0
 10
-88.6855
 20
6.77736
 11
-88.7865
 21
6.61832
  0
LINE
  8
0
 10
-88.7865
 20
6.61832
 11
-88.9065
 21
6.47318
  0
LINE
  8
0
 10
-88.9065
 20
6.47318
 11
-89.0439
 21
6.34422
  0
LINE
  8
0
 10
-89.0439
 20
6.34422
 11
-89.1963
 21
6.23351
  0
LINE
  8
0
 10
-89.1963
 20
6.23351
 11
-89.3613
 21
6.14275
  0
LINE
  8
0
 10
-89.3613
 20
6.14275
 11
-89.5365
 21
6.07341
  0
LINE
  8
0
 10
-89.5365
 20
6.07341
 11
-89.7189
 21
6.02657
  0
LINE
  8
0
 10
-89.7189
 20
6.02657
 11
-89.9058
 21
6.00294
  0
LINE
  8
0
 10
-89.9058
 20
6.00294
 11
-90.0942
 21
6.00294
  0
LINE
  8
0
 10
-90.1884
 20
-2.99408
 11
-90.5621
 21
-2.94685
  0
LINE
  8
0
 10
-90.5621
 20
-2.94685
 11
-90.927
 21
-2.85316
  0
LINE
  8
0
 10
-90.927
 20
-2.85316
 11
-91.2773
 21
-2.71448
  0
LINE
  8
0
 10
-91.2773
 20
-2.71448
 11
-91.6075
 21
-2.53297
  0
LINE
  8
0
 10
-91.6075
 20
-2.53297
 11
-91.9123
 21
-2.31154
  0
LINE
  8
0
 10
-91.9123
 20
-2.31154
 11
-92.1869
 21
-2.05363
  0
LINE
  8
0
 10
-92.1869
 20
-2.05363
 11
-92.427
 21
-1.76335
  0
LINE
  8
0
 10
-92.427
 20
-1.76335
 11
-92.6289
 21
-1.44525
  0
LINE
  8
0
 10
-92.6289
 20
-1.44525
 11
-92.7893
 21
-1.10437
  0
LINE
  8
0
 10
-92.7893
 20
-1.10437
 11
-92.9057
 21
-0.746063
  0
LINE
  8
0
 10
-92.9057
 20
-0.746063
 11
-92.9763
 21
-0.375992
  0
LINE
  8
0
 10
-92.9763
 20
-0.375992
 11
-93
 21
0
  0
LINE
  8
0
 10
-93
 20
0
 11
-92.9763
 21
0.375992
  0
LINE
  8
0
 10
-92.9763
 20
0.375992
 11
-92.9057
 21
0.746063
  0
LINE
  8
0
 10
-92.9057
 20
0.746063
 11
-92.7893
 21
1.10437
  0
LINE
  8
0
 10
-92.7893
 20
1.10437
 11
-92.6289
 21
1.44525
  0
LINE
  8
0
 10
-92.6289
 20
1.44525
 11
-92.427
 21
1.76335
  0
LINE
  8
0
 10
-92.427
 20
1.76335
 11
-92.1869
 21
2.05363
  0
LINE
  8
0
 10
-92.1869
 20
2.05363
 11
-91.9123
 21
2.31154
  0
LINE
  8
0
 10
-91.9123
 20
2.31154
 11
-91.6075
 21
2.53297
  0
LINE
  8
0
 10
-91.6075
 20
2.53297
 11
-91.2773
 21
2.71448
  0
LINE
  8
0
 10
-91.2773
 20
2.71448
 11
-90.927
 21
2.85316
  0
LINE
  8
0
 10
-90.927
 20
2.85316
 11
-90.5621
 21
2.94685
  0
LINE
  8
0
 10
-90.5621
 20
2.94685
 11
-90.1884
 21
2.99408
  0
LINE
  8
0
 10
-90.1884
 20
2.99408
 11
-89.8116
 21
2.99408
  0
LINE
  8
0
 10
-89.8116
 20
2.99408
 11
-89.4379
 21
2.94685
  0
LINE
  8
0
 10
-89.4379
 20
2.94685
 11
-89.073
 21
2.85316
  0
LINE
  8
0
 10
-89.073
 20
2.85316
 11
-88.7227
 21
2.71448
  0
LINE
  8
0
 10
-88.7227
 20
2.71448
 11
-88.3925
 21
2.53297
  0
LINE
  8
0
 10
-88.3925
 20
2.53297
 11
-88.0877
 21
2.31154
  0
LINE
  8
0
 10
-88.0877
 20
2.31154
 11
-87.8131
 21
2.05363
  0
LINE
  8
0
 10
-87.8131
 20
2.05363
 11
-87.573
 21
1.76335
  0
LINE
  8
0
 10
-87.573
 20
1.76335
 11
-87.3711
 21
1.44525
  0
LINE
  8
0
 10
-87.3711
 20
1.44525
 11
-87.2107
 21
1.10437
  0
LINE
  8
0
 10
-87.2107
 20
1.10437
 11
-87.0943
 21
0.746063
  0
LINE
  8
0
 10
-87.0943
 20
0.746063
 11
-87.0237
 21
0.375992
  0
LINE
  8
0
 10
-87.0237
 20
0.375992
 11
-87
 21
0
  0
LINE
  8
0
 10
-87
 20
0
 11
-87.0237
 21
-0.375992
  0
LINE
  8
0
 10
-87.0237
 20
-0.375992
 11
-87.0943
 21
-0.746063
  0
LINE
  8
0
 10
-87.0943
 20
-0.746063
 11
-87.2107
 21
-1.10437
  0
LINE
  8
0
 10
-87.2107
 20
-1.10437
 11
-87.3711
 21
-1.44525
  0
LINE
  8
0
 10
-87.3711
 20
-1.44525
 11
-87.573
 21
-1.76335
  0
LINE
  8
0
 10
-87.573
 20
-1.76335
 11
-87.8131
 21
-2.05363
  0
LINE
  8
0
 10
-87.8131
 20
-2.05363
 11
-88.0877
 21
-2.31154
  0
LINE
  8
0
 10
-88.0877
 20
-2.31154
 11
-88.3925
 21
-2.53297
  0
LINE
  8
0
 10
-88.3925
 20
-2.53297
 11
-88.7227
 21
-2.71448
  0
LINE
  8
0
 10
-88.7227
 20
-2.71448
 11
-89.073
 21
-2.85316
  0
LINE
  8
0
 10
-89.073
 20
-2.85316
 11
-89.4379
 21
-2.94685
  0
LINE
  8
0
 10
-89.4379
 20
-2.94685
 11
-89.8116
 21
-2.99408
  0
LINE
  8
0
 10
-89.8116
 20
-2.99408
 11
-90.1884
 21
-2.99408
  0
LINE
  8
0
 10
89.8116
 20
-2.99408
 11
89.4379
 21
-2.94685
  0
LINE
  8
0
 10
89.4379
 20
-2.94685
 11
89.073
 21
-2.85316
  0
LINE
  8
0
 10
89.073
 20
-2.85316
 11
88.7227
 21
-2.71448
  0
LINE
  8
0
 10
88.7227
 20
-2.71448
 11
88.3925
 21
-2.53297
  0
LINE
  8
0
 10
88.3925
 20
-2.53297
 11
88.0877
 21
-2.31154
  0
LINE
  8
0
 10
88.0877
 20
-2.31154
 11
87.8131
 21
-2.05363
  0
LINE
  8
0
 10
87.8131
 20
-2.05363
 11
87.573
 21
-1.76335
  0
LINE
  8
0
 10
87.573
 20
-1.76335
 11
87.3711
 21
-1.44525
  0
LINE
  8
0
 10
87.3711
 20
-1.44525
 11
87.2107
 21
-1.10437
  0
LINE
  8
0
 10
87.2107
 20
-1.10437
 11
87.0943
 21
-0.746063
  0
LINE
  8
0
 10
87.0943
 20
-0.746063
 11
87.0237
 21
-0.375992
  0
LINE
  8
0
 10
87.0237
 20
-0.375992
 11
87
 21
0
  0
LINE
  8
0
 10
87
 20
0
 11
87.0237
 21
0.375992
  0
LINE
  8
0
 10
87.0237
 20
0.375992
 11
87.0943
 21
0.746063
  0
LINE
  8
0
 10
87.0943
 20
0.746063
 11
87.2107
 21
1.10437
  0
LINE
  8
0
 10
87.2107
 20
1.10437
 11
87.3711
 21
1.44525
  0
LINE
  8
0
 10
87.3711
 20
1.44525
 11
87.573
 21
1.76335
  0
LINE
  8
0
 10
87.573
 20
1.76335
 11
87.8131
 21
2.05363
  0
LINE
  8
0
 10
87.8131
 20
2.05363
 11
88.0877
 21
2.31154
  0
LINE
  8
0
 10
88.0877
 20
2.31154
 11
88.3925
 21
2.53297
  0
LINE
  8
0
 10
88.3925
 20
2.53297
 11
88.7227
 21
2.71448
  0
LINE
  8
0
 10
88.7227
 20
2.71448
 11
89.073
 21
2.85316
  0
LINE
  8
0
 10
89.073
 20
2.85316
 11
89.4379
 21
2.94685
  0
LINE
  8
0
 10
89.4379
 20
2.94685
 11
89.8116
 21
2.99408
  0
LINE
  8
0
 10
89.8116
 20
2.99408
 11
90.1884
 21
2.99408
  0
LINE
  8
0
 10
90.1884
 20
2.99408
 11
90.5621
 21
2.94685
  0
LINE
  8
0
 10
90.5621
 20
2.94685
 11
90.927
 21
2.85316
  0
LINE
  8
0
 10
90.927
 20
2.85316
 11
91.2773
 21
2.71448
  0
LINE
  8
0
 10
91.2773
 20
2.71448
 11
91.6075
 21
2.53297
  0
LINE
  8
0
 10
91.6075
 20
2.53297
 11
91.9123
 21
2.31154
  0
LINE
  8
0
 10
91.9123
 20
2.31154
 11
92.1869
 21
2.05363
  0
LINE
  8
0
 10
92.1869
 20
2.05363
 11
92.427
 21
1.76335
  0
LINE
  8
0
 10
92.427
 20
1.76335
 11
92.6289
 21
1.44525
  0
LINE
  8
0
 10
92.6289
 20
1.44525
 11
92.7893
 21
1.10437
  0
LINE
  8
0
 10
92.7893
 20
1.10437
 11
92.9057
 21
0.746063
  0
LINE
  8
0
 10
92.9057
 20
0.746063
 11
92.9763
 21
0.375992
  0
LINE
  8
0
 10
92.9763
 20
0.375992
 11
93
 21
0
  0
LINE
  8
0
 10
93
 20
0
 11
92.9763
 21
-0.375992
  0
LINE
  8
0
 10
92.9763
 20
-0.375992
 11
92.9057
 21
-0.746063
  0
LINE
  8
0
 10
92.9057
 20
-0.746063
 11
92.7893
 21
-1.10437
  0
LINE
  8
0
 10
92.7893
 20
-1.10437
 11
92.6289
 21
-1.44525
  0
LINE
  8
0
 10
92.6289
 20
-1.44525
 11
92.427
 21
-1.76335
  0
LINE
  8
0
 10
92.427
 20
-1.76335
 11
92.1869
 21
-2.05363
  0
LINE
  8
0
 10
92.1869
 20
-2.05363
 11
91.9123
 21
-2.31154
  0
LINE
  8
0
 10
91.9123
 20
-2.31154
 11
91.6075
 21
-2.53297
  0
LINE
  8
0
 10
91.6075
 20
-2.53297
 11
91.2773
 21
-2.71448
  0
LINE
  8
0
 10
91.2773
 20
-2.71448
 11
90.927
 21
-2.85316
  0
LINE
  8
0
 10
90.927
 20
-2.85316
 11
90.5621
 21
-2.94685
  0
LINE
  8
0
 10
90.5621
 20
-2.94685
 11
90.1884
 21
-2.99408
  0
LINE
  8
0
 10
90.1884
 20
-2.99408
 11
89.8116
 21
-2.99408
  0
LINE
  8
0
 10
-90.0942
 20
-8.99704
 11
-90.2811
 21
-8.97342
  0
LINE
  8
0
 10
-90.2811
 20
-8.97342
 11
-90.4635
 21
-8.92657
  0
LINE
  8
0
 10
-90.4635
 20
-8.92657
 11
-90.6387
 21
-8.85724
  0
LINE
  8
0
 10
-90.6387
 20
-8.85724
 11
-90.8037
 21
-8.76648
  0
LINE
  8
0
 10
-90.8037
 20
-8.76648
 11
-90.9561
 21
-8.65576
  0
LINE
  8
0
 10
-90.9561
 20
-8.65576
 11
-91.0934
 21
-8.52681
  0
LINE
  8
0
 10
-91.0934
 20
-8.52681
 11
-91.2135
 21
-8.38167
  0
LINE
  8
0
 10
-91.2135
 20
-8.38167
 11
-91.3145
 21
-8.22263
  0
LINE
  8
0
 10
-91.3145
 20
-8.22263
 11
-91.3947
 21
-8.05219
  0
LINE
  8
0
 10
-91.3947
 20
-8.05219
 11
-91.4529
 21
-7.87303
  0
LINE
  8
0
 10
-91.4529
 20
-7.87303
 11
-91.4882
 21
-7.68799
  0
LINE
  8
0
 10
-91.4882
 20
-7.68799
 11
-91.5
 21
-7.5
  0
LINE
  8
0
 10
-91.5
 20
-7.5
 11
-91.4882
 21
-7.312
  0
LINE
  8
0
 10
-91.4882
 20
-7.312
 11
-91.4529
 21
-7.12695
  0
LINE
  8
0
 10
-91.4529
 20
-7.12695
 11
-91.3947
 21
-6.9478
  0
LINE
  8
0
 10
-91.3947
 20
-6.9478
 11
-91.3145
 21
-6.77736
  0
LINE
  8
0
 10
-91.3145
 20
-6.77736
 11
-91.2135
 21
-6.61832
  0
LINE
  8
0
 10
-91.2135
 20
-6.61832
 11
-91.0934
 21
-6.47318
  0
LINE
  8
0
 10
-91.0934
 20
-6.47318
 11
-90.9561
 21
-6.34422
  0
LINE
  8
0
 10
-90.9561
 20
-6.34422
 11
-90.8037
 21
-6.23351
  0
LINE
  8
0
 10
-90.8037
 20
-6.23351
 11
-90.6387
 21
-6.14275
  0
LINE
  8
0
 10
-90.6387
 20
-6.14275
 11
-90.4635
 21
-6.07341
  0
LINE
  8
0
 10
-90.4635
 20
-6.07341
 11
-90.2811
 21
-6.02657
  0
LINE
  8
0
 10
-90.2811
 20
-6.02657
 11
-90.0942
 21
-6.00294
  0
LINE
  8
0
 10
-90.0942
 20
-6.00294
 11
-89.9058
 21
-6.00294
  0
LINE
  8
0
 10
-89.9058
 20
-6.00294
 11
-89.7189
 21
-6.02657
  0
LINE
  8
0
 10
-89.7189
 20
-6.02657
 11
-89.5365
 21
-6.07341
  0
LINE
  8
0
 10
-89.5365
 20
-6.07341
 11
-89.3613
 21
-6.14275
  0
LINE
  8
0
 10
-89.3613
 20
-6.14275
 11
-89.1963
 21
-6.23351
  0
LINE
  8
0
 10
-89.1963
 20
-6.23351
 11
-89.0439
 21
-6.34422
  0
LINE
  8
0
 10
-89.0439
 20
-6.34422
 11
-88.9065
 21
-6.47318
  0
LINE
  8
0
 10
-88.9065
 20
-6.47318
 11
-88.7865
 21
-6.61832
  0
LINE
  8
0
 10
-88.7865
 20
-6.61832
 11
-88.6855
 21
-6.77736
  0
LINE
  8
0
 10
-88.6855
 20
-6.77736
 11
-88.6053
 21
-6.9478
  0
LINE
  8
0
 10
-88.6053
 20
-6.9478
 11
-88.5471
 21
-7.12695
  0
LINE
  8
0
 10
-88.5471
 20
-7.12695
 11
-88.5118
 21
-7.312
  0
LINE
  8
0
 10
-88.5118
 20
-7.312
 11
-88.5
 21
-7.5
  0
LINE
  8
0
 10
-88.5
 20
-7.5
 11
-88.5118
 21
-7.68799
  0
LINE
  8
0
 10
-88.5118
 20
-7.68799
 11
-88.5471
 21
-7.87303
  0
LINE
  8
0
 10
-88.5471
 20
-7.87303
 11
-88.6053
 21
-8.05219
  0
LINE
  8
0
 10
-88.6053
 20
-8.05219
 11
-88.6855
 21
-8.22263
  0
LINE
  8
0
 10
-88.6855
 20
-8.22263
 11
-88.7865
 21
-8.38167
  0
LINE
  8
0
 10
-88.7865
 20
-8.38167
 11
-88.9065
 21
-8.52681
  0
LINE
  8
0
 10
-88.9065
 20
-8.52681
 11
-89.0439
 21
-8.65576
  0
LINE
  8
0
 10
-89.0439
 20
-8.65576
 11
-89.1963
 21
-8.76648
  0
LINE
  8
0
 10
-89.1963
 20
-8.76648
 11
-89.3613
 21
-8.85724
  0
LINE
  8
0
 10
-89.3613
 20
-8.85724
 11
-89.5365
 21
-8.92657
  0
LINE
  8
0
 10
-89.5365
 20
-8.92657
 11
-89.7189
 21
-8.97342
  0
LINE
  8
0
 10
-89.7189
 20
-8.97342
 11
-89.9058
 21
-8.99704
  0
LINE
  8
0
 10
-89.9058
 20
-8.99704
 11
-90.0942
 21
-8.99704
  0
LINE
  8
0
 10
89.9058
 20
-8.99704
 11
89.7189
 21
-8.97342
  0
LINE
  8
0
 10
89.7189
 20
-8.97342
 11
89.5365
 21
-8.92657
  0
LINE
  8
0
 10
89.5365
 20
-8.92657
 11
89.3613
 21
-8.85724
  0
LINE
  8
0
 10
89.3613
 20
-8.85724
 11
89.1963
 21
-8.76648
  0
LINE
  8
0
 10
89.1963
 20
-8.76648
 11
89.0439
 21
-8.65576
  0
LINE
  8
0
 10
89.0439
 20
-8.65576
 11
88.9065
 21
-8.52681
  0
LINE
  8
0
 10
88.9065
 20
-8.52681
 11
88.7865
 21
-8.38167
  0
LINE
  8
0
 10
88.7865
 20
-8.38167
 11
88.6855
 21
-8.22263
  0
LINE
  8
0
 10
88.6855
 20
-8.22263
 11
88.6053
 21
-8.05219
  0
LINE
  8
0
 10
88.6053
 20
-8.05219
 11
88.5471
 21
-7.87303
  0
LINE
  8
0
 10
88.5471
 20
-7.87303
 11
88.5118
 21
-7.68799
  0
LINE
  8
0
 10
88.5118
 20
-7.68799
 11
88.5
 21
-7.5
  0
LINE
  8
0
 10
88.5
 20
-7.5
 11
88.5118
 21
-7.312
  0
LINE
  8
0
 10
88.5118
 20
-7.312
 11
88.5471
 21
-7.12695
  0
LINE
  8
0
 10
88.5471
 20
-7.12695
 11
88.6053
 21
-6.9478
  0
LINE
  8
0
 10
88.6053
 20
-6.9478
 11
88.6855
 21
-6.77736
  0
LINE
  8
0
 10
88.6855
 20
-6.77736
 11
88.7865
 21
-6.61832
  0
LINE
  8
0
 10
88.7865
 20
-6.61832
 11
88.9065
 21
-6.47318
  0
LINE
  8
0
 10
88.9065
 20
-6.47318
 11
89.0439
 21
-6.34422
  0
LINE
  8
0
 10
89.0439
 20
-6.34422
 11
89.1963
 21
-6.23351
  0
LINE
  8
0
 10
89.1963
 20
-6.23351
 11
89.3613
 21
-6.14275
  0
LINE
  8
0
 10
89.3613
 20
-6.14275
 11
89.5365
 21
-6.07341
  0
LINE
  8
0
 10
89.5365
 20
-6.07341
 11
89.7189
 21
-6.02657
  0
LINE
  8
0
 10
89.7189
 20
-6.02657
 11
89.9058
 21
-6.00294
  0
LINE
  8
0
 10
89.9058
 20
-6.00294
 11
90.0942
 21
-6.00294
  0
LINE
  8
0
 10
90.0942
 20
-6.00294
 11
90.2811
 21
-6.02657
  0
LINE
  8
0
 10
90.2811
 20
-6.02657
 11
90.4635
 21
-6.07341
  0
LINE
  8
0
 10
90.4635
 20
-6.07341
 11
90.6387
 21
-6.14275
  0
LINE
  8
0
 10
90.6387
 20
-6.14275
 11
90.8037
 21
-6.23351
  0
LINE
  8
0
 10
90.8037
 20
-6.23351
 11
90.9561
 21
-6.34422
  0
LINE
  8
0
 10
90.9561
 20
-6.34422
 11
91.0934
 21
-6.47318
  0
LINE
  8
0
 10
91.0934
 20
-6.47318
 11
91.2135
 21
-6.61832
  0
LINE
  8
0
 10
91.2135
 20
-6.61832
 11
91.3145
 21
-6.77736
  0
LINE
  8
0
 10
91.3145
 20
-6.77736
 11
91.3947
 21
-6.9478
  0
LINE
  8
0
 10
91.3947
 20
-6.9478
 11
91.4529
 21
-7.12695
  0
LINE
  8
0
 10
91.4529
 20
-7.12695
 11
91.4882
 21
-7.312
  0
LINE
  8
0
 10
91.4882
 20
-7.312
 11
91.5
 21
-7.5
  0
LINE
  8
0
 10
91.5
 20
-7.5
 11
91.4882
 21
-7.68799
  0
LINE
  8
0
 10
91.4882
 20
-7.68799
 11
91.4529
 21
-7.87303
  0
LINE
  8
0
 10
91.4529
 20
-7.87303
 11
91.3947
 21
-8.05219
  0
LINE
  8
0
 10
91.3947
 20
-8.05219
 11
91.3145
 21
-8.22263
  0
LINE
  8
0
 10
91.3145
 20
-8.22263
 11
91.2135
 21
-8.38167
  0
LINE
  8
0
 10
91.2135
 20
-8.38167
 11
91.0934
 21
-8.52681
  0
LINE
  8
0
 10
91.0934
 20
-8.52681
 11
90.9561
 21
-8.65576
  0
LINE
  8
0
 10
90.9561
 20
-8.65576
 11
90.8037
 21
-8.76648
  0
LINE
  8
0
 10
90.8037
 20
-8.76648
 11
90.6387
 21
-8.85724
  0
LINE
  8
0
 10
90.6387
 20
-8.85724
 11
90.4635
 21
-8.92657
  0
LINE
  8
0
 10
90.4635
 20
-8.92657
 11
90.2811
 21
-8.97342
  0
LINE
  8
0
 10
90.2811
 20
-8.97342
 11
90.0942
 21
-8.99704
  0
LINE
  8
0
 10
90.0942
 20
-8.99704
 11
89.9058
 21
-8.99704
  0
LINE
  8
0
 10
-90.1884
 20
-17.9941
 11
-90.5621
 21
-17.9469
  0
LINE
  8
0
 10
-90.5621
 20
-17.9469
 11
-90.927
 21
-17.8532
  0
LINE
  8
0
 10
-90.927
 20
-17.8532
 11
-91.2773
 21
-17.7145
  0
LINE
  8
0
 10
-91.2773
 20
-17.7145
 11
-91.6075
 21
-17.533
  0
LINE
  8
0
 10
-91.6075
 20
-17.533
 11
-91.9123
 21
-17.3115
  0
LINE
  8
0
 10
-91.9123
 20
-17.3115
 11
-92.1869
 21
-17.0536
  0
LINE
  8
0
 10
-92.1869
 20
-17.0536
 11
-92.427
 21
-16.7634
  0
LINE
  8
0
 10
-92.427
 20
-16.7634
 11
-92.6289
 21
-16.4453
  0
LINE
  8
0
 10
-92.6289
 20
-16.4453
 11
-92.7893
 21
-16.1044
  0
LINE
  8
0
 10
-92.7893
 20
-16.1044
 11
-92.9057
 21
-15.7461
  0
LINE
  8
0
 10
-92.9057
 20
-15.7461
 11
-92.9763
 21
-15.376
  0
LINE
  8
0
 10
-92.9763
 20
-15.376
 11
-93
 21
-15
  0
LINE
  8
0
 10
-93
 20
-15
 11
-92.9763
 21
-14.624
  0
LINE
  8
0
 10
-92.9763
 20
-14.624
 11
-92.9057
 21
-14.2539
  0
LINE
  8
0
 10
-92.9057
 20
-14.2539
 11
-92.7893
 21
-13.8956
  0
LINE
  8
0
 10
-92.7893
 20
-13.8956
 11
-92.6289
 21
-13.5547
  0
LINE
  8
0
 10
-92.6289
 20
-13.5547
 11
-92.427
 21
-13.2366
  0
LINE
  8
0
 10
-92.427
 20
-13.2366
 11
-92.1869
 21
-12.9464
  0
LINE
  8
0
 10
-92.1869
 20
-12.9464
 11
-91.9123
 21
-12.6884
  0
LINE
  8
0
 10
-91.9123
 20
-12.6884
 11
-91.6075
 21
-12.467
  0
LINE
  8
0
 10
-91.6075
 20
-12.467
 11
-91.2773
 21
-12.2855
  0
LINE
  8
0
 10
-91.2773
 20
-12.2855
 11
-90.927
 21
-12.1468
  0
LINE
  8
0
 10
-90.927
 20
-12.1468
 11
-90.5621
 21
-12.0531
  0
LINE
  8
0
 10
-90.5621
 20
-12.0531
 11
-90.1884
 21
-12.0059
  0
LINE
  8
0
 10
-90.1884
 20
-12.0059
 11
-89.8116
 21
-12.0059
  0
LINE
  8
0
 10
-89.8116
 20
-12.0059
 11
-89.4379
 21
-12.0531
  0
LINE
  8
0
 10
-89.4379
 20
-12.0531
 11
-89.073
 21
-12.1468
  0
LINE
  8
0
 10
-89.073
 20
-12.1468
 11
-88.7227
 21
-12.2855
  0
LINE
  8
0
 10
-88.7227
 20
-12.2855
 11
-88.3925
 21
-12.467
  0
LINE
  8
0
 10
-88.3925
 20
-12.467
 11
-88.0877
 21
-12.6884
  0
LINE
  8
0
 10
-88.0877
 20
-12.6884
 11
-87.8131
 21
-12.9464
  0
LINE
  8
0
 10
-87.8131
 20
-12.9464
 11
-87.573
 21
-13.2366
  0
LINE
  8
0
 10
-87.573
 20
-13.2366
 11
-87.3711
 21
-13.5547
  0
LINE
  8
0
 10
-87.3711
 20
-13.5547
 11
-87.2107
 21
-13.8956
  0
LINE
  8
0
 10
-87.2107
 20
-13.8956
 11
-87.0943
 21
-14.2539
  0
LINE
  8
0
 10
-87.0943
 20
-14.2539
 11
-87.0237
 21
-14.624
  0
LINE
  8
0
 10
-87.0237
 20
-14.624
 11
-87
 21
-15
  0
LINE
  8
0
 10
-87
 20
-15
 11
-87.0237
 21
-15.376
  0
LINE
  8
0
 10
-87.0237
 20
-15.376
 11
-87.0943
 21
-15.7461
  0
LINE
  8
0
 10
-87.0943
 20
-15.7461
 11
-87.2107
 21
-16.1044
  0
LINE
  8
0
 10
-87.2107
 20
-16.1044
 11
-87.3711
 21
-16.4453
  0
LINE
  8
0
 10
-87.3711
 20
-16.4453
 11
-87.573
 21
-16.7634
  0
LINE
  8
0
 10
-87.573
 20
-16.7634
 11
-87.8131
 21
-17.0536
  0
LINE
  8
0
 10
-87.8131
 20
-17.0536
 11
-88.0877
 21
-17.3115
  0
LINE
  8
0
 10
-88.0877
 20
-17.3115
 11
-88.3925
 21
-17.533
  0
LINE
  8
0
 10
-88.3925
 20
-17.533
 11
-88.7227
 21
-17.7145
  0
LINE
  8
0
 10
-88.7227
 20
-17.7145
 11
-89.073
 21
-17.8532
  0
LINE
  8
0
 10
-89.073
 20
-17.8532
 11
-89.4379
 21
-17.9469
  0
LINE
  8
0
 10
-89.4379
 20
-17.9469
 11
-89.8116
 21
-17.9941
  0
LINE
  8
0
 10
-89.8116
 20
-17.9941
 11
-90.1884
 21
-17.9941
  0
LINE
  8
0
 10
89.8116
 20
-17.9941
 11
89.4379
 21
-17.9469
  0
LINE
  8
0
 10
89.4379
 20
-17.9469
 11
89.073
 21
-17.8532
  0
LINE
  8
0
 10
89.073
 20
-17.8532
 11
88.7227
 21
-17.7145
  0
LINE
  8
0
 10
88.7227
 20
-17.7145
 11
88.3925
 21
-17.533
  0
LINE
  8
0
 10
88.3925
 20
-17.533
 11
88.0877
 21
-17.3115
  0
LINE
  8
0
 10
88.0877
 20
-17.3115
 11
87.8131
 21
-17.0536
  0
LINE
  8
0
 10
87.8131
 20
-17.0536
 11
87.573
 21
-16.7634
  0
LINE
  8
0
 10
87.573
 20
-16.7634
 11
87.3711
 21
-16.4453
  0
LINE
  8
0
 10
87.3711
 20
-16.4453
 11
87.2107
 21
-16.1044
  0
LINE
  8
0
 10
87.2107
 20
-16.1044
 11
87.0943
 21
-15.7461
  0
LINE
  8
0
 10
87.0943
 20
-15.7461
 11
87.0237
 21
-15.376
  0
LINE
  8
0
 10
87.0237
 20
-15.376
 11
87
 21
-15
  0
LINE
  8
0
 10
87
 20
-15
 11
87.0237
 21
-14.624
  0
LINE
  8
0
 10
87.0237
 20
-14.624
 11
87.0943
 21
-14.2539
  0
LINE
  8
0
 10
87.0943
 20
-14.2539
 11
87.2107
 21
-13.8956
  0
LINE
  8
0
 10
87.2107
 20
-13.8956
 11
87.3711
 21
-13.5547
  0
LINE
  8
0
 10
87.3711
 20
-13.5547
 11
87.573
 21
-13.2366
  0
LINE
  8
0
 10
87.573
 20
-13.2366
 11
87.8131
 21
-12.9464
  0
LINE
  8
0
 10
87.8131
 20
-12.9464
 11
88.0877
 21
-12.6884
  0
LINE
  8
0
 10
88.0877
 20
-12.6884
 11
88.3925
 21
-12.467
  0
LINE
  8
0
 10
88.3925
 20
-12.467
 11
88.7227
 21
-12.2855
  0
LINE
  8
0
 10
88.7227
 20
-12.2855
 11
89.073
 21
-12.1468
  0
LINE
  8
0
 10
89.073
 20
-12.1468
 11
89.4379
 21
-12.0531
  0
LINE
  8
0
 10
89.4379
 20
-12.0531
 11
89.8116
 21
-12.0059
  0
LINE
  8
0
 10
89.8116
 20
-12.0059
 11
90.1884
 21
-12.0059
  0
LINE
  8
0
 10
90.1884
 20
-12.0059
 11
90.5621
 21
-12.0531
  0
LINE
  8
0
 10
90.5621
 20
-12.0531
 11
90.927
 21
-12.1468
  0
LINE
  8
0
 10
90.927
 20
-12.1468
 11
91.2773
 21
-12.2855
  0
LINE
  8
0
 10
91.2773
 20
-12.2855
 11
91.6075
 21
-12.467
  0
LINE
  8
0
 10
91.6075
 20
-12.467
 11
91.9123
 21
-12.6884
  0
LINE
  8
0
 10
91.9123
 20
-12.6884
 11
92.1869
 21
-12.9464
  0
LINE
  8
0
 10
92.1869
 20
-12.9464
 11
92.427
 21
-13.2366
  0
LINE
  8
0
 10
92.427
 20
-13.2366
 11
92.6289
 21
-13.5547
  0
LINE
  8
0
 10
92.6289
 20
-13.5547
 11
92.7893
 21
-13.8956
  0
LINE
  8
0
 10
92.7893
 20
-13.8956
 11
92.9057
 21
-14.2539
  0
LINE
  8
0
 10
92.9057
 20
-14.2539
 11
92.9763
 21
-14.624
  0
LINE
  8
0
 10
92.9763
 20
-14.624
 11
93
 21
-15
  0
LINE
  8
0
 10
93
 20
-15
 11
92.9763
 21
-15.376
  0
LINE
  8
0
 10
92.9763
 20
-15.376
 11
92.9057
 21
-15.7461
  0
LINE
  8
0
 10
92.9057
 20
-15.7461
 11
92.7893
 21
-16.1044
  0
LINE
  8
0
 10
92.7893
 20
-16.1044
 11
92.6289
 21
-16.4453
  0
LINE
  8
0
 10
92.6289
 20
-16.4453
 11
92.427
 21
-16.7634
  0
LINE
  8
0
 10
92.427
 20
-16.7634
 11
92.1869
 21
-17.0536
  0
LINE
  8
0
 10
92.1869
 20
-17.0536
 11
91.9123
 21
-17.3115
  0
LINE
  8
0
 10
91.9123
 20
-17.3115
 11
91.6075
 21
-17.533
  0
LINE
  8
0
 10
91.6075
 20
-17.533
 11
91.2773
 21
-17.7145
  0
LINE
  8
0
 10
91.2773
 20
-17.7145
 11
90.927
 21
-17.8532
  0
LINE
  8
0
 10
90.927
 20
-17.8532
 11
90.5621
 21
-17.9469
  0
LINE
  8
0
 10
90.5621
 20
-17.9469
 11
90.1884
 21
-17.9941
  0
LINE
  8
0
 10
90.1884
 20
-17.9941
 11
89.8116
 21
-17.9941
  0
LINE
  8
0
 10
-90.0942
 20
-23.997
 11
-90.2811
 21
-23.9734
  0
LINE
  8
0
 10
-90.2811
 20
-23.9734
 11
-90.4635
 21
-23.9266
  0
LINE
  8
0
 10
-90.4635
 20
-23.9266
 11
-90.6387
 21
-23.8572
  0
LINE
  8
0
 10
-90.6387
 20
-23.8572
 11
-90.8037
 21
-23.7665
  0
LINE
  8
0
 10
-90.8037
 20
-23.7665
 11
-90.9561
 21
-23.6558
  0
LINE
  8
0
 10
-90.9561
 20
-23.6558
 11
-91.0934
 21
-23.5268
  0
LINE
  8
0
 10
-91.0934
 20
-23.5268
 11
-91.2135
 21
-23.3817
  0
LINE
  8
0
 10
-91.2135
 20
-23.3817
 11
-91.3145
 21
-23.2226
  0
LINE
  8
0
 10
-91.3145
 20
-23.2226
 11
-91.3947
 21
-23.0522
  0
LINE
  8
0
 10
-91.3947
 20
-23.0522
 11
-91.4529
 21
-22.873
  0
LINE
  8
0
 10
-91.4529
 20
-22.873
 11
-91.4882
 21
-22.688
  0
LINE
  8
0
 10
-91.4882
 20
-22.688
 11
-91.5
 21
-22.5
  0
LINE
  8
0
 10
-91.5
 20
-22.5
 11
-91.4882
 21
-22.312
  0
LINE
  8
0
 10
-91.4882
 20
-22.312
 11
-91.4529
 21
-22.127
  0
LINE
  8
0
 10
-91.4529
 20
-22.127
 11
-91.3947
 21
-21.9478
  0
LINE
  8
0
 10
-91.3947
 20
-21.9478
 11
-91.3145
 21
-21.7774
  0
LINE
  8
0
 10
-91.3145
 20
-21.7774
 11
-91.2135
 21
-21.6183
  0
LINE
  8
0
 10
-91.2135
 20
-21.6183
 11
-91.0934
 21
-21.4732
  0
LINE
  8
0
 10
-91.0934
 20
-21.4732
 11
-90.9561
 21
-21.3442
  0
LINE
  8
0
 10
-90.9561
 20
-21.3442
 11
-90.8037
 21
-21.2335
  0
LINE
  8
0
 10
-90.8037
 20
-21.2335
 11
-90.6387
 21
-21.1427
  0
LINE
  8
0
 10
-90.6387
 20
-21.1427
 11
-90.4635
 21
-21.0734
  0
LINE
  8
0
 10
-90.4635
 20
-21.0734
 11
-90.2811
 21
-21.0266
  0
LINE
  8
0
 10
-90.2811
 20
-21.0266
 11
-90.0942
 21
-21.003
  0
LINE
  8
0
 10
-90.0942
 20
-21.003
 11
-89.9058
 21
-21.003
  0
LINE
  8
0
 10
-89.9058
 20
-21.003
 11
-89.7189
 21
-21.0266
  0
LINE
  8
0
 10
-89.7189
 20
-21.0266
 11
-89.5365
 21
-21.0734
  0
LINE
  8
0
 10
-89.5365
 20
-21.0734
 11
-89.3613
 21
-21.1427
  0
LINE
  8
0
 10
-89.3613
 20
-21.1427
 11
-89.1963
 21
-21.2335
  0
LINE
  8
0
 10
-89.1963
 20
-21.2335
 11
-89.0439
 21
-21.3442
  0
LINE
  8
0
 10
-89.0439
 20
-21.3442
 11
-88.9065
 21
-21.4732
  0
LINE
  8
0
 10
-88.9065
 20
-21.4732
 11
-88.7865
 21
-21.6183
  0
LINE
  8
0
 10
-88.7865
 20
-21.6183
 11
-88.6855
 21
-21.7774
  0
LINE
  8
0
 10
-88.6855
 20
-21.7774
 11
-88.6053
 21
-21.9478
  0
LINE
  8
0
 10
-88.6053
 20
-21.9478
 11
-88.5471
 21
-22.127
  0
LINE
  8
0
 10
-88.5471
 20
-22.127
 11
-88.5118
 21
-22.312
  0
LINE
  8
0
 10
-88.5118
 20
-22.312
 11
-88.5
 21
-22.5
  0
LINE
  8
0
 10
-88.5
 20
-22.5
 11
-88.5118
 21
-22.688
  0
LINE
  8
0
 10
-88.5118
 20
-22.688
 11
-88.5471
 21
-22.873
  0
LINE
  8
0
 10
-88.5471
 20
-22.873
 11
-88.6053
 21
-23.0522
  0
LINE
  8
0
 10
-88.6053
 20
-23.0522
 11
-88.6855
 21
-23.2226
  0
LINE
  8
0
 10
-88.6855
 20
-23.2226
 11
-88.7865
 21
-23.3817
  0
LINE
  8
0
 10
-88.7865
 20
-23.3817
 11
-88.9065
 21
-23.5268
  0
LINE
  8
0
 10
-88.9065
 20
-23.5268
 11
-89.0439
 21
-23.6558
  0
LINE
  8
0
 10
-89.0439
 20
-23.6558
 11
-89.1963
 21
-23.7665
  0
LINE
  8
0
 10
-89.1963
 20
-23.7665
 11
-89.3613
 21
-23.8572
  0
LINE
  8
0
 10
-89.3613
 20
-23.8572
 11
-89.5365
 21
-23.9266
  0
LINE
  8
0
 10
-89.5365
 20
-23.9266
 11
-89.7189
 21
-23.9734
  0
LINE
  8
0
 10
-89.7189
 20
-23.9734
 11
-89.9058
 21
-23.997
  0
LINE
  8
0
 10
-89.9058
 20
-23.997
 11
-90.0942
 21
-23.997
  0
LINE
  8
0
 10
89.9058
 20
-23.997
 11
89.7189
 21
-23.9734
  0
LINE
  8
0
 10
89.7189
 20
-23.9734
 11
89.5365
 21
-23.9266
  0
LINE
  8
0
 10
89.5365
 20
-23.9266
 11
89.3613
 21
-23.8572
  0
LINE
  8
0
 10
89.3613
 20
-23.8572
 11
89.1963
 21
-23.7665
  0
LINE
  8
0
 10
89.1963
 20
-23.7665
 11
89.0439
 21
-23.6558
  0
LINE
  8
0
 10
89.0439
 20
-23.6558
 11
88.9065
 21
-23.5268
  0
LINE
  8
0
 10
88.9065
 20
-23.5268
 11
88.7865
 21
-23.3817
  0
LINE
  8
0
 10
88.7865
 20
-23.3817
 11
88.6855
 21
-23.2226
  0
LINE
  8
0
 10
88.6855
 20
-23.2226
 11
88.6053
 21
-23.0522
  0
LINE
  8
0
 10
88.6053
 20
-23.0522
 11
88.5471
 21
-22.873
  0
LINE
  8
0
 10
88.5471
 20
-22.873
 11
88.5118
 21
-22.688
  0
LINE
  8
0
 10
88.5118
 20
-22.688
 11
88.5
 21
-22.5
  0
LINE
  8
0
 10
88.5
 20
-22.5
 11
88.5118
 21
-22.312
  0
LINE
  8
0
 10
88.5118
 20
-22.312
 11
88.5471
 21
-22.127
  0
LINE
  8
0
 10
88.5471
 20
-22.127
 11
88.6053
 21
-21.9478
  0
LINE
  8
0
 10
88.6053
 20
-21.9478
 11
88.6855
 21
-21.7774
  0
LINE
  8
0
 10
88.6855
 20
-21.7774
 11
88.7865
 21
-21.6183
  0
LINE
  8
0
 10
88.7865
 20
-21.6183
 11
88.9065
 21
-21.4732
  0
LINE
  8
0
 10
88.9065
 20
-21.4732
 11
89.0439
 21
-21.3442
  0
LINE
  8
0
 10
89.0439
 20
-21.3442
 11
89.1963
 21
-21.2335
  0
LINE
  8
0
 10
89.1963
 20
-21.2335
 11
89.3613
 21
-21.1427
  0
LINE
  8
0
 10
89.3613
 20
-21.1427
 11
89.5365
 21
-21.0734
  0
LINE
  8
0
 10
89.5365
 20
-21.0734
 11
89.7189
 21
-21.0266
  0
LINE
  8
0
 10
89.7189
 20
-21.0266
 11
89.9058
 21
-21.003
  0
LINE
  8
0
 10
89.9058
 20
-21.003
 11
90.0942
 21
-21.003
  0
LINE
  8
0
 10
90.0942
 20
-21.003
 11
90.2811
 21
-21.0266
  0
LINE
  8
0
 10
90.2811
 20
-21.0266
 11
90.4635
 21
-21.0734
  0
LINE
  8
0
 10
90.4635
 20
-21.0734
 11
90.6387
 21
-21.1427
  0
LINE
  8
0
 10
90.6387
 20
-21.1427
 11
90.8037
 21
-21.2335
  0
LINE
  8
0
 10
90.8037
 20
-21.2335
 11
90.9561
 21
-21.3442
  0
LINE
  8
0
 10
90.9561
 20
-21.3442
 11
91.0934
 21
-21.4732
  0
LINE
  8
0
 10
91.0934
 20
-21.4732
 11
91.2135
 21
-21.6183
  0
LINE
  8
0
 10
91.2135
 20
-21.6183
 11
91.3145
 21
-21.7774
  0
LINE
  8
0
 10
91.3145
 20
-21.7774
 11
91.3947
 21
-21.9478
  0
LINE
  8
0
 10
91.3947
 20
-21.9478
 11
91.4529
 21
-22.127
  0
LINE
  8
0
 10
91.4529
 20
-22.127
 11
91.4882
 21
-22.312
  0
LINE
  8
0
 10
91.4882
 20
-22.312
 11
91.5
 21
-22.5
  0
LINE
  8
0
 10
91.5
 20
-22.5
 11
91.4882
 21
-22.688
  0
LINE
  8
0
 10
91.4882
 20
-22.688
 11
91.4529
 21
-22.873
  0
LINE
  8
0
 10
91.4529
 20
-22.873
 11
91.3947
 21
-23.0522
  0
LINE
  8
0
 10
91.3947
 20
-23.0522
 11
91.3145
 21
-23.2226
  0
LINE
  8
0
 10
91.3145
 20
-23.2226
 11
91.2135
 21
-23.3817
  0
LINE
  8
0
 10
91.2135
 20
-23.3817
 11
91.0934
 21
-23.5268
  0
LINE
  8
0
 10
91.0934
 20
-23.5268
 11
90.9561
 21
-23.6558
  0
LINE
  8
0
 10
90.9561
 20
-23.6558
 11
90.8037
 21
-23.7665
  0
LINE
  8
0
 10
90.8037
 20
-23.7665
 11
90.6387
 21
-23.8572
  0
LINE
  8
0
 10
90.6387
 20
-23.8572
 11
90.4635
 21
-23.9266
  0
LINE
  8
0
 10
90.4635
 20
-23.9266
 11
90.2811
 21
-23.9734
  0
LINE
  8
0
 10
90.2811
 20
-23.9734
 11
90.0942
 21
-23.997
  0
LINE
  8
0
 10
90.0942
 20
-23.997
 11
89.9058
 21
-23.997
  0
LINE
  8
0
 10
89.8116
 20
-32.9941
 11
89.4379
 21
-32.9469
  0
LINE
  8
0
 10
89.4379
 20
-32.9469
 11
89.073
 21
-32.8532
  0
LINE
  8
0
 10
89.073
 20
-32.8532
 11
88.7227
 21
-32.7145
  0
LINE
  8
0
 10
88.7227
 20
-32.7145
 11
88.3925
 21
-32.533
  0
LINE
  8
0
 10
88.3925
 20
-32.533
 11
88.0877
 21
-32.3115
  0
LINE
  8
0
 10
88.0877
 20
-32.3115
 11
87.8131
 21
-32.0536
  0
LINE
  8
0
 10
87.8131
 20
-32.0536
 11
87.573
 21
-31.7634
  0
LINE
  8
0
 10
87.573
 20
-31.7634
 11
87.3711
 21
-31.4453
  0
LINE
  8
0
 10
87.3711
 20
-31.4453
 11
87.2107
 21
-31.1044
  0
LINE
  8
0
 10
87.2107
 20
-31.1044
 11
87.0943
 21
-30.7461
  0
LINE
  8
0
 10
87.0943
 20
-30.7461
 11
87.0237
 21
-30.376
  0
LINE
  8
0
 10
87.0237
 20
-30.376
 11
87
 21
-30
  0
LINE
  8
0
 10
87
 20
-30
 11
87.0237
 21
-29.624
  0
LINE
  8
0
 10
87.0237
 20
-29.624
 11
87.0943
 21
-29.2539
  0
LINE
  8
0
 10
87.0943
 20
-29.2539
 11
87.2107
 21
-28.8956
  0
LINE
  8
0
 10
87.2107
 20
-28.8956
 11
87.3711
 21
-28.5547
  0
LINE
  8
0
 10
87.3711
 20
-28.5547
 11
87.573
 21
-28.2366
  0
LINE
  8
0
 10
87.573
 20
-28.2366
 11
87.8131
 21
-27.9464
  0
LINE
  8
0
 10
87.8131
 20
-27.9464
 11
88.0877
 21
-27.6884
  0
LINE
  8
0
 10
88.0877
 20
-27.6884
 11
88.3925
 21
-27.467
  0
LINE
  8
0
 10
88.3925
 20
-27.467
 11
88.7227
 21
-27.2855
  0
LINE
  8
0
 10
88.7227
 20
-27.2855
 11
89.073
 21
-27.1468
  0
LINE
  8
0
 10
89.073
 20
-27.1468
 11
89.4379
 21
-27.0531
  0
LINE
  8
0
 10
89.4379
 20
-27.0531
 11
89.8116
 21
-27.0059
  0
LINE
  8
0
 10
89.8116
 20
-27.0059
 11
90.1884
 21
-27.0059
  0
LINE
  8
0
 10
90.1884
 20
-27.0059
 11
90.5621
 21
-27.0531
  0
LINE
  8
0
 10
90.5621
 20
-27.0531
 11
90.927
 21
-27.1468
  0
LINE
  8
0
 10
90.927
 20
-27.1468
 11
91.2773
 21
-27.2855
  0
LINE
  8
0
 10
91.2773
 20
-27.2855
 11
91.6075
 21
-27.467
  0
LINE
  8
0
 10
91.6075
 20
-27.467
 11
91.9123
 21
-27.6884
  0
LINE
  8
0
 10
91.9123
 20
-27.6884
 11
92.1869
 21
-27.9464
  0
LINE
  8
0
 10
92.1869
 20
-27.9464
 11
92.427
 21
-28.2366
  0
LINE
  8
0
 10
92.427
 20
-28.2366
 11
92.6289
 21
-28.5547
  0
LINE
  8
0
 10
92.6289
 20
-28.5547
 11
92.7893
 21
-28.8956
  0
LINE
  8
0
 10
92.7893
 20
-28.8956
 11
92.9057
 21
-29.2539
  0
LINE
  8
0
 10
92.9057
 20
-29.2539
 11
92.9763
 21
-29.624
  0
LINE
  8
0
 10
92.9763
 20
-29.624
 11
93
 21
-30
  0
LINE
  8
0
 10
93
 20
-30
 11
92.9763
 21
-30.376
  0
LINE
  8
0
 10
92.9763
 20
-30.376
 11
92.9057
 21
-30.7461
  0
LINE
  8
0
 10
92.9057
 20
-30.7461
 11
92.7893
 21
-31.1044
  0
LINE
  8
0
 10
92.7893
 20
-31.1044
 11
92.6289
 21
-31.4453
  0
LINE
  8
0
 10
92.6289
 20
-31.4453
 11
92.427
 21
-31.7634
  0
LINE
  8
0
 10
92.427
 20
-31.7634
 11
92.1869
 21
-32.0536
  0
LINE
  8
0
 10
92.1869
 20
-32.0536
 11
91.9123
 21
-32.3115
  0
LINE
  8
0
 10
91.9123
 20
-32.3115
 11
91.6075
 21
-32.533
  0
LINE
  8
0
 10
91.6075
 20
-32.533
 11
91.2773
 21
-32.7145
  0
LINE
  8
0
 10
91.2773
 20
-32.7145
 11
90.927
 21
-32.8532
  0
LINE
  8
0
 10
90.927
 20
-32.8532
 11
90.5621
 21
-32.9469
  0
LINE
  8
0
 10
90.5621
 20
-32.9469
 11
90.1884
 21
-32.9941
  0
LINE
  8
0
 10
90.1884
 20
-32.9941
 11
89.8116
 21
-32.9941
  0
LINE
  8
0
 10
-90.1884
 20
-32.9941
 11
-90.5621
 21
-32.9469
  0
LINE
  8
0
 10
-90.5621
 20
-32.9469
 11
-90.927
 21
-32.8532
  0
LINE
  8
0
 10
-90.927
 20
-32.8532
 11
-91.2773
 21
-32.7145
  0
LINE
  8
0
 10
-91.2773
 20
-32.7145
 11
-91.6075
 21
-32.533
  0
LINE
  8
0
 10
-91.6075
 20
-32.533
 11
-91.9123
 21
-32.3115
  0
LINE
  8
0
 10
-91.9123
 20
-32.3115
 11
-92.1869
 21
-32.0536
  0
LINE
  8
0
 10
-92.1869
 20
-32.0536
 11
-92.427
 21
-31.7634
  0
LINE
  8
0
 10
-92.427
 20
-31.7634
 11
-92.6289
 21
-31.4453
  0
LINE
  8
0
 10
-92.6289
 20
-31.4453
 11
-92.7893
 21
-31.1044
  0
LINE
  8
0
 10
-92.7893
 20
-31.1044
 11
-92.9057
 21
-30.7461
  0
LINE
  8
0
 10
-92.9057
 20
-30.7461
 11
-92.9763
 21
-30.376
  0
LINE
  8
0
 10
-92.9763
 20
-30.376
 11
-93
 21
-30
  0
LINE
  8
0
 10
-93
 20
-30
 11
-92.9763
 21
-29.624
  0
LINE
  8
0
 10
-92.9763
 20
-29.624
 11
-92.9057
 21
-29.2539
  0
LINE
  8
0
 10
-92.9057
 20
-29.2539
 11
-92.7893
 21
-28.8956
  0
LINE
  8
0
 10
-92.7893
 20
-28.8956
 11
-92.6289
 21
-28.5547
  0
LINE
  8
0
 10
-92.6289
 20
-28.5547
 11
-92.427
 21
-28.2366
  0
LINE
  8
0
 10
-92.427
 20
-28.2366
 11
-92.1869
 21
-27.9464
  0
LINE
  8
0
 10
-92.1869
 20
-27.9464
 11
-91.9123
 21
-27.6884
  0
LINE
  8
0
 10
-91.9123
 20
-27.6884
 11
-91.6075
 21
-27.467
  0
LINE
  8
0
 10
-91.6075
 20
-27.467
 11
-91.2773
 21
-27.2855
  0
LINE
  8
0
 10
-91.2773
 20
-27.2855
 11
-90.927
 21
-27.1468
  0
LINE
  8
0
 10
-90.927
 20
-27.1468
 11
-90.5621
 21
-27.0531
  0
LINE
  8
0
 10
-90.5621
 20
-27.0531
 11
-90.1884
 21
-27.0059
  0
LINE
  8
0
 10
-90.1884
 20
-27.0059
 11
-89.8116
 21
-27.0059
  0
LINE
  8
0
 10
-89.8116
 20
-27.0059
 11
-89.4379
 21
-27.0531
  0
LINE
  8
0
 10
-89.4379
 20
-27.0531
 11
-89.073
 21
-27.1468
  0
LINE
  8
0
 10
-89.073
 20
-27.1468
 11
-88.7227
 21
-27.2855
  0
LINE
  8
0
 10
-88.7227
 20
-27.2855
 11
-88.3925
 21
-27.467
  0
LINE
  8
0
 10
-88.3925
 20
-27.467
 11
-88.0877
 21
-27.6884
  0
LINE
  8
0
 10
-88.0877
 20
-27.6884
 11
-87.8131
 21
-27.9464
  0
LINE
  8
0
 10
-87.8131
 20
-27.9464
 11
-87.573
 21
-28.2366
  0
LINE
  8
0
 10
-87.573
 20
-28.2366
 11
-87.3711
 21
-28.5547
  0
LINE
  8
0
 10
-87.3711
 20
-28.5547
 11
-87.2107
 21
-28.8956
  0
LINE
  8
0
 10
-87.2107
 20
-28.8956
 11
-87.0943
 21
-29.2539
  0
LINE
  8
0
 10
-87.0943
 20
-29.2539
 11
-87.0237
 21
-29.624
  0
LINE
  8
0
 10
-87.0237
 20
-29.624
 11
-87
 21
-30
  0
LINE
  8
0
 10
-87
 20
-30
 11
-87.0237
 21
-30.376
  0
LINE
  8
0
 10
-87.0237
 20
-30.376
 11
-87.0943
 21
-30.7461
  0
LINE
  8
0
 10
-87.0943
 20
-30.7461
 11
-87.2107
 21
-31.1044
  0
LINE
  8
0
 10
-87.2107
 20
-31.1044
 11
-87.3711
 21
-31.4453
  0
LINE
  8
0
 10
-87.3711
 20
-31.4453
 11
-87.573
 21
-31.7634
  0
LINE
  8
0
 10
-87.573
 20
-31.7634
 11
-87.8131
 21
-32.0536
  0
LINE
  8
0
 10
-87.8131
 20
-32.0536
 11
-88.0877
 21
-32.3115
  0
LINE
  8
0
 10
-88.0877
 20
-32.3115
 11
-88.3925
 21
-32.533
  0
LINE
  8
0
 10
-88.3925
 20
-32.533
 11
-88.7227
 21
-32.7145
  0
LINE
  8
0
 10
-88.7227
 20
-32.7145
 11
-89.073
 21
-32.8532
  0
LINE
  8
0
 10
-89.073
 20
-32.8532
 11
-89.4379
 21
-32.9469
  0
LINE
  8
0
 10
-89.4379
 20
-32.9469
 11
-89.8116
 21
-32.9941
  0
LINE
  8
0
 10
-89.8116
 20
-32.9941
 11
-90.1884
 21
-32.9941
  0
ENDSEC
  0
SECTION
  2
OBJECTS
  0
DICTIONARY
  0
ENDSEC
  0
EOF
