<?xml version="1.0" standalone="no"?>
<!DOCTYPE svg PUBLIC "-//W3C//DTD SVG 1.1//EN" "http://www.w3.org/Graphics/SVG/1.1/DTD/svg11.dtd">
<svg width="60mm" height="14mm" viewBox="-30 -7 60 14" xmlns="http://www.w3.org/2000/svg" version="1.1">
<title>OpenSCAD Model</title>
<path d="
M 25.4369,6.91142 L 26.0451,6.75528 L 26.6289,6.52412 L 27.1791,6.22163 L 27.6871,5.85255 L 28.1448,5.42273
 L 28.5451,4.93892 L 28.8815,4.40877 L 29.1489,3.84062 L 29.3429,3.24344 L 29.4606,2.62666 L 29.5,2
 L 29.5,-2 L 29.4606,-2.62666 L 29.3429,-3.24344 L 29.1489,-3.84062 L 28.8815,-4.40877 L 28.5451,-4.93892
 L 28.1448,-5.42273 L 27.6871,-5.85255 L 27.1791,-6.22163 L 26.6289,-6.52412 L 26.0451,-6.75528 L 25.4369,-6.91142
 L 24.8139,-6.99013 L -24.8139,-6.99013 L -25.4369,-6.91142 L -26.0451,-6.75528 L -26.6289,-6.52412 L -27.1791,-6.22163
 L -27.6871,-5.85255 L -28.1448,-5.42273 L -28.5451,-4.93892 L -28.8815,-4.40877 L -29.1489,-3.84062 L -29.3429,-3.24344
 L -29.4606,-2.62666 L -29.5,-2 L -29.5,2 L -29.4606,2.62666 L -29.3429,3.24344 L -29.1489,3.84062
 L -28.8815,4.40877 L -28.5451,4.93892 L -28.1448,5.42273 L -27.6871,5.85255 L -27.1791,6.22163 L -26.6289,6.52412
 L -26.0451,6.75528 L -25.4369,6.91142 L -24.8139,6.99013 L 24.8139,6.99013 z
M -22.6884,2.99408 L -23.0621,2.94685 L -23.427,2.85316 L -23.7773,2.71448 L -24.1075,2.53297 L -24.4123,2.31154
 L -24.6869,2.05363 L -24.927,1.76335 L -25.1289,1.44525 L -25.2893,1.10437 L -25.4057,0.746063 L -25.4763,0.375992
 L -25.5,-0 L -25.4763,-0.375992 L -25.4057,-0.746063 L -25.2893,-1.10437 L -25.1289,-1.44525 L -24.927,-1.76335
 L -24.6869,-2.05363 L -24.4123,-2.31154 L -24.1075,-2.53297 L -23.7773,-2.71448 L -23.427,-2.85316 L -23.0621,-2.94685
 L -22.6884,-2.99408 L -22.3116,-2.99408 L -21.9379,-2.94685 L -21.5729,-2.85316 L -21.2227,-2.71448 L -20.8925,-2.53297
 L -20.5877,-2.31154 L -20.3131,-2.05363 L -20.0729,-1.76335 L -19.8711,-1.44525 L -19.7107,-1.10437 L -19.5942,-0.746063
 L -19.5237,-0.375992 L -19.5,-0 L -19.5237,0.375992 L -19.5942,0.746063 L -19.7107,1.10437 L -19.8711,1.44525
 L -20.0729,1.76335 L -20.3131,2.05363 L -20.5877,2.31154 L -20.8925,2.53297 L -21.2227,2.71448 L -21.5729,2.85316
 L -21.9379,2.94685 L -22.3116,2.99408 z
M 22.3116,2.99408 L 21.9379,2.94685 L 21.5729,2.85316 L 21.2227,2.71448 L 20.8925,2.53297 L 20.5877,2.31154
 L 20.3131,2.05363 L 20.0729,1.76335 L 19.8711,1.44525 L 19.7107,1.10437 L 19.5942,0.746063 L 19.5237,0.375992
 L 19.5,-0 L 19.5237,-0.375992 L 19.5942,-0.746063 L 19.7107,-1.10437 L 19.8711,-1.44525 L 20.0729,-1.76335
 L 20.3131,-2.05363 L 20.5877,-2.31154 L 20.8925,-2.53297 L 21.2227,-2.71448 L 21.5729,-2.85316 L 21.9379,-2.94685
 L 22.3116,-2.99408 L 22.6884,-2.99408 L 23.0621,-2.94685 L 23.427,-2.85316 L 23.7773,-2.71448 L 24.1075,-2.53297
 L 24.4123,-2.31154 L 24.6869,-2.05363 L 24.927,-1.76335 L 25.1289,-1.44525 L 25.2893,-1.10437 L 25.4057,-0.746063
 L 25.4763,-0.375992 L 25.5,-0 L 25.4763,0.375992 L 25.4057,0.746063 L 25.2893,1.10437 L 25.1289,1.44525
 L 24.927,1.76335 L 24.6869,2.05363 L 24.4123,2.31154 L 24.1075,2.53297 L 23.7773,2.71448 L 23.427,2.85316
 L 23.0621,2.94685 L 22.6884,2.99408 z
M -13.6256,1.99605 L -13.8748,1.96457 L -14.118,1.9021 L -14.3515,1.80965 L -14.5716,1.68864 L -14.7748,1.54102
 L -14.9579,1.36908 L -15.118,1.17557 L -15.2526,0.963501 L -15.3595,0.736237 L -15.4372,0.497375 L -15.4842,0.250656
 L -15.5,-0 L -15.4842,-0.250656 L -15.4372,-0.497375 L -15.3595,-0.736237 L -15.2526,-0.963501 L -15.118,-1.17557
 L -14.9579,-1.36908 L -14.7748,-1.54102 L -14.5716,-1.68864 L -14.3515,-1.80965 L -14.118,-1.9021 L -13.8748,-1.96457
 L -13.6256,-1.99605 L -13.3744,-1.99605 L -13.1252,-1.96457 L -12.882,-1.9021 L -12.6484,-1.80965 L -12.4283,-1.68864
 L -12.2251,-1.54102 L -12.0421,-1.36908 L -11.882,-1.17557 L -11.7474,-0.963501 L -11.6404,-0.736237 L -11.5628,-0.497375
 L -11.5158,-0.250656 L -11.5,-0 L -11.5158,0.250656 L -11.5628,0.497375 L -11.6404,0.736237 L -11.7474,0.963501
 L -11.882,1.17557 L -12.0421,1.36908 L -12.2251,1.54102 L -12.4283,1.68864 L -12.6484,1.80965 L -12.882,1.9021
 L -13.1252,1.96457 L -13.3744,1.99605 z
M 13.3744,1.99605 L 13.1252,1.96457 L 12.882,1.9021 L 12.6484,1.80965 L 12.4283,1.68864 L 12.2251,1.54102
 L 12.0421,1.36908 L 11.882,1.17557 L 11.7474,0.963501 L 11.6404,0.736237 L 11.5628,0.497375 L 11.5158,0.250656
 L 11.5,-0 L 11.5158,-0.250656 L 11.5628,-0.497375 L 11.6404,-0.736237 L 11.7474,-0.963501 L 11.882,-1.17557
 L 12.0421,-1.36908 L 12.2251,-1.54102 L 12.4283,-1.68864 L 12.6484,-1.80965 L 12.882,-1.9021 L 13.1252,-1.96457
 L 13.3744,-1.99605 L 13.6256,-1.99605 L 13.8748,-1.96457 L 14.118,-1.9021 L 14.3515,-1.80965 L 14.5716,-1.68864
 L 14.7748,-1.54102 L 14.9579,-1.36908 L 15.118,-1.17557 L 15.2526,-0.963501 L 15.3595,-0.736237 L 15.4372,-0.497375
 L 15.4842,-0.250656 L 15.5,-0 L 15.4842,0.250656 L 15.4372,0.497375 L 15.3595,0.736237 L 15.2526,0.963501
 L 15.118,1.17557 L 14.9579,1.36908 L 14.7748,1.54102 L 14.5716,1.68864 L 14.3515,1.80965 L 14.118,1.9021
 L 13.8748,1.96457 L 13.6256,1.99605 z
M 4.3744,1.99605 L 4.12523,1.96457 L 3.88196,1.9021 L 3.64844,1.80965 L 3.42834,1.68864 L 3.22514,1.54102
 L 3.04205,1.36908 L 2.88196,1.17557 L 2.74738,0.963501 L 2.64044,0.736237 L 2.56282,0.497375 L 2.51576,0.250656
 L 2.5,-0 L 2.51576,-0.250656 L 2.56282,-0.497375 L 2.64044,-0.736237 L 2.74738,-0.963501 L 2.88196,-1.17557
 L 3.04205,-1.36908 L 3.22514,-1.54102 L 3.42834,-1.68864 L 3.64844,-1.80965 L 3.88196,-1.9021 L 4.12523,-1.96457
 L 4.3744,-1.99605 L 4.62558,-1.99605 L 4.87476,-1.96457 L 5.11803,-1.9021 L 5.35155,-1.80965 L 5.57164,-1.68864
 L 5.77484,-1.54102 L 5.95793,-1.36908 L 6.11803,-1.17557 L 6.25261,-0.963501 L 6.35954,-0.736237 L 6.43716,-0.497375
 L 6.48422,-0.250656 L 6.5,-0 L 6.48422,0.250656 L 6.43716,0.497375 L 6.35954,0.736237 L 6.25261,0.963501
 L 6.11803,1.17557 L 5.95793,1.36908 L 5.77484,1.54102 L 5.57164,1.68864 L 5.35155,1.80965 L 5.11803,1.9021
 L 4.87476,1.96457 L 4.62558,1.99605 z
M -4.62558,1.99605 L -4.87476,1.96457 L -5.11803,1.9021 L -5.35155,1.80965 L -5.57164,1.68864 L -5.77484,1.54102
 L -5.95793,1.36908 L -6.11803,1.17557 L -6.25261,0.963501 L -6.35954,0.736237 L -6.43716,0.497375 L -6.48422,0.250656
 L -6.5,-0 L -6.48422,-0.250656 L -6.43716,-0.497375 L -6.35954,-0.736237 L -6.25261,-0.963501 L -6.11803,-1.17557
 L -5.95793,-1.36908 L -5.77484,-1.54102 L -5.57164,-1.68864 L -5.35155,-1.80965 L -5.11803,-1.9021 L -4.87476,-1.96457
 L -4.62558,-1.99605 L -4.3744,-1.99605 L -4.12523,-1.96457 L -3.88196,-1.9021 L -3.64844,-1.80965 L -3.42834,-1.68864
 L -3.22514,-1.54102 L -3.04205,-1.36908 L -2.88196,-1.17557 L -2.74738,-0.963501 L -2.64044,-0.736237 L -2.56282,-0.497375
 L -2.51576,-0.250656 L -2.5,-0 L -2.51576,0.250656 L -2.56282,0.497375 L -2.64044,0.736237 L -2.74738,0.963501
 L -2.88196,1.17557 L -3.04205,1.36908 L -3.22514,1.54102 L -3.42834,1.68864 L -3.64844,1.80965 L -3.88196,1.9021
 L -4.12523,1.96457 L -4.3744,1.99605 z
" stroke="black" fill="lightgray" stroke-width="0.5"/>
</svg>
