<?xml version="1.0" standalone="no"?>
<!DOCTYPE svg PUBLIC "-//W3C//DTD SVG 1.1//EN" "http://www.w3.org/Graphics/SVG/1.1/DTD/svg11.dtd">
<svg width="134mm" height="44mm" viewBox="-67 -76 134 44" xmlns="http://www.w3.org/2000/svg" version="1.1">
<title>OpenSCAD Model</title>
<path d="
M 62.9369,-32.0886 L 63.5451,-32.2447 L 64.1289,-32.4759 L 64.6791,-32.7784 L 65.1871,-33.1474 L 65.6448,-33.5773
 L 66.0451,-34.0611 L 66.3815,-34.5912 L 66.6489,-35.1594 L 66.8429,-35.7566 L 66.9606,-36.3733 L 67,-37
 L 67,-71 L 66.9606,-71.6267 L 66.8429,-72.2434 L 66.6489,-72.8406 L 66.3815,-73.4088 L 66.0451,-73.9389
 L 65.6448,-74.4227 L 65.1871,-74.8526 L 64.6791,-75.2216 L 64.1289,-75.5241 L 63.5451,-75.7553 L 62.9369,-75.9114
 L 62.3139,-75.9901 L -62.3139,-75.9901 L -62.9369,-75.9114 L -63.5451,-75.7553 L -64.1289,-75.5241 L -64.6791,-75.2216
 L -65.1871,-74.8526 L -65.6448,-74.4227 L -66.0451,-73.9389 L -66.3815,-73.4088 L -66.6489,-72.8406 L -66.8429,-72.2434
 L -66.9606,-71.6267 L -67,-71 L -67,-37 L -66.9606,-36.3733 L -66.8429,-35.7566 L -66.6489,-35.1594
 L -66.3815,-34.5912 L -66.0451,-34.0611 L -65.6448,-33.5773 L -65.1871,-33.1474 L -64.6791,-32.7784 L -64.1289,-32.4759
 L -63.5451,-32.2447 L -62.9369,-32.0886 L -62.3139,-32.0099 L 62.3139,-32.0099 z
M 59.8116,-66.0059 L 59.4379,-66.0531 L 59.0729,-66.1468 L 58.7227,-66.2855 L 58.3925,-66.467 L 58.0877,-66.6884
 L 57.8131,-66.9464 L 57.5729,-67.2366 L 57.3711,-67.5547 L 57.2107,-67.8956 L 57.0942,-68.2539 L 57.0237,-68.624
 L 57,-69 L 57.0237,-69.376 L 57.0942,-69.7461 L 57.2107,-70.1044 L 57.3711,-70.4453 L 57.5729,-70.7634
 L 57.8131,-71.0536 L 58.0877,-71.3115 L 58.3925,-71.533 L 58.7227,-71.7145 L 59.0729,-71.8532 L 59.4379,-71.9469
 L 59.8116,-71.9941 L 60.1884,-71.9941 L 60.5621,-71.9469 L 60.927,-71.8532 L 61.2773,-71.7145 L 61.6075,-71.533
 L 61.9123,-71.3115 L 62.1869,-71.0536 L 62.427,-70.7634 L 62.6289,-70.4453 L 62.7893,-70.1044 L 62.9057,-69.7461
 L 62.9763,-69.376 L 63,-69 L 62.9763,-68.624 L 62.9057,-68.2539 L 62.7893,-67.8956 L 62.6289,-67.5547
 L 62.427,-67.2366 L 62.1869,-66.9464 L 61.9123,-66.6884 L 61.6075,-66.467 L 61.2773,-66.2855 L 60.927,-66.1468
 L 60.5621,-66.0531 L 60.1884,-66.0059 z
M -60.1884,-66.0059 L -60.5621,-66.0531 L -60.927,-66.1468 L -61.2773,-66.2855 L -61.6075,-66.467 L -61.9123,-66.6884
 L -62.1869,-66.9464 L -62.427,-67.2366 L -62.6289,-67.5547 L -62.7893,-67.8956 L -62.9057,-68.2539 L -62.9763,-68.624
 L -63,-69 L -62.9763,-69.376 L -62.9057,-69.7461 L -62.7893,-70.1044 L -62.6289,-70.4453 L -62.427,-70.7634
 L -62.1869,-71.0536 L -61.9123,-71.3115 L -61.6075,-71.533 L -61.2773,-71.7145 L -60.927,-71.8532 L -60.5621,-71.9469
 L -60.1884,-71.9941 L -59.8116,-71.9941 L -59.4379,-71.9469 L -59.0729,-71.8532 L -58.7227,-71.7145 L -58.3925,-71.533
 L -58.0877,-71.3115 L -57.8131,-71.0536 L -57.5729,-70.7634 L -57.3711,-70.4453 L -57.2107,-70.1044 L -57.0942,-69.7461
 L -57.0237,-69.376 L -57,-69 L -57.0237,-68.624 L -57.0942,-68.2539 L -57.2107,-67.8956 L -57.3711,-67.5547
 L -57.5729,-67.2366 L -57.8131,-66.9464 L -58.0877,-66.6884 L -58.3925,-66.467 L -58.7227,-66.2855 L -59.0729,-66.1468
 L -59.4379,-66.0531 L -59.8116,-66.0059 z
M 14.2151,-41.5247 L 12.6577,-41.7214 L 11.1373,-42.1118 L 9.67775,-42.6897 L 8.30215,-43.4459 L 7.0322,-44.3686
 L 5.88788,-45.4432 L 4.88728,-46.6527 L 4.04616,-47.9781 L 3.37779,-49.3985 L 2.8927,-50.8914 L 2.59856,-52.4333
 L 2.5,-54 L 2.59856,-55.5667 L 2.8927,-57.1086 L 3.37779,-58.6015 L 4.04616,-60.0219 L 4.88728,-61.3473
 L 5.88788,-62.5568 L 7.0322,-63.6314 L 8.30215,-64.5541 L 9.67775,-65.3103 L 11.1373,-65.8882 L 12.6577,-66.2786
 L 14.2151,-66.4753 L 15.7849,-66.4753 L 17.3423,-66.2786 L 18.8627,-65.8882 L 20.3222,-65.3103 L 21.6978,-64.5541
 L 22.9678,-63.6314 L 24.1121,-62.5568 L 25.1127,-61.3473 L 25.9538,-60.0219 L 26.6222,-58.6015 L 27.1073,-57.1086
 L 27.4014,-55.5667 L 27.5,-54 L 27.4014,-52.4333 L 27.1073,-50.8914 L 26.6222,-49.3985 L 25.9538,-47.9781
 L 25.1127,-46.6527 L 24.1121,-45.4432 L 22.9678,-44.3686 L 21.6978,-43.4459 L 20.3222,-42.6897 L 18.8627,-42.1118
 L 17.3423,-41.7214 L 15.7849,-41.5247 z
M -45.7849,-41.5247 L -47.3423,-41.7214 L -48.8627,-42.1118 L -50.3222,-42.6897 L -51.6978,-43.4459 L -52.9678,-44.3686
 L -54.1121,-45.4432 L -55.1127,-46.6527 L -55.9538,-47.9781 L -56.6222,-49.3985 L -57.1073,-50.8914 L -57.4014,-52.4333
 L -57.5,-54 L -57.4014,-55.5667 L -57.1073,-57.1086 L -56.6222,-58.6015 L -55.9538,-60.0219 L -55.1127,-61.3473
 L -54.1121,-62.5568 L -52.9678,-63.6314 L -51.6978,-64.5541 L -50.3222,-65.3103 L -48.8627,-65.8882 L -47.3423,-66.2786
 L -45.7849,-66.4753 L -44.2151,-66.4753 L -42.6577,-66.2786 L -41.1373,-65.8882 L -39.6777,-65.3103 L -38.3022,-64.5541
 L -37.0322,-63.6314 L -35.8879,-62.5568 L -34.8873,-61.3473 L -34.0462,-60.0219 L -33.3778,-58.6015 L -32.8927,-57.1086
 L -32.5986,-55.5667 L -32.5,-54 L -32.5986,-52.4333 L -32.8927,-50.8914 L -33.3778,-49.3985 L -34.0462,-47.9781
 L -34.8873,-46.6527 L -35.8879,-45.4432 L -37.0322,-44.3686 L -38.3022,-43.4459 L -39.6777,-42.6897 L -41.1373,-42.1118
 L -42.6577,-41.7214 L -44.2151,-41.5247 z
M 44.2151,-41.5247 L 42.6577,-41.7214 L 41.1373,-42.1118 L 39.6777,-42.6897 L 38.3022,-43.4459 L 37.0322,-44.3686
 L 35.8879,-45.4432 L 34.8873,-46.6527 L 34.0462,-47.9781 L 33.3778,-49.3985 L 32.8927,-50.8914 L 32.5986,-52.4333
 L 32.5,-54 L 32.5986,-55.5667 L 32.8927,-57.1086 L 33.3778,-58.6015 L 34.0462,-60.0219 L 34.8873,-61.3473
 L 35.8879,-62.5568 L 37.0322,-63.6314 L 38.3022,-64.5541 L 39.6777,-65.3103 L 41.1373,-65.8882 L 42.6577,-66.2786
 L 44.2151,-66.4753 L 45.7849,-66.4753 L 47.3423,-66.2786 L 48.8627,-65.8882 L 50.3222,-65.3103 L 51.6978,-64.5541
 L 52.9678,-63.6314 L 54.1121,-62.5568 L 55.1127,-61.3473 L 55.9538,-60.0219 L 56.6222,-58.6015 L 57.1073,-57.1086
 L 57.4014,-55.5667 L 57.5,-54 L 57.4014,-52.4333 L 57.1073,-50.8914 L 56.6222,-49.3985 L 55.9538,-47.9781
 L 55.1127,-46.6527 L 54.1121,-45.4432 L 52.9678,-44.3686 L 51.6978,-43.4459 L 50.3222,-42.6897 L 48.8627,-42.1118
 L 47.3423,-41.7214 L 45.7849,-41.5247 z
M -15.7849,-41.5247 L -17.3423,-41.7214 L -18.8627,-42.1118 L -20.3222,-42.6897 L -21.6978,-43.4459 L -22.9678,-44.3686
 L -24.1121,-45.4432 L -25.1127,-46.6527 L -25.9538,-47.9781 L -26.6222,-49.3985 L -27.1073,-50.8914 L -27.4014,-52.4333
 L -27.5,-54 L -27.4014,-55.5667 L -27.1073,-57.1086 L -26.6222,-58.6015 L -25.9538,-60.0219 L -25.1127,-61.3473
 L -24.1121,-62.5568 L -22.9678,-63.6314 L -21.6978,-64.5541 L -20.3222,-65.3103 L -18.8627,-65.8882 L -17.3423,-66.2786
 L -15.7849,-66.4753 L -14.2151,-66.4753 L -12.6577,-66.2786 L -11.1373,-65.8882 L -9.67775,-65.3103 L -8.30215,-64.5541
 L -7.0322,-63.6314 L -5.88788,-62.5568 L -4.88728,-61.3473 L -4.04616,-60.0219 L -3.37779,-58.6015 L -2.8927,-57.1086
 L -2.59856,-55.5667 L -2.5,-54 L -2.59856,-52.4333 L -2.8927,-50.8914 L -3.37779,-49.3985 L -4.04616,-47.9781
 L -4.88728,-46.6527 L -5.88788,-45.4432 L -7.0322,-44.3686 L -8.30215,-43.4459 L -9.67775,-42.6897 L -11.1373,-42.1118
 L -12.6577,-41.7214 L -14.2151,-41.5247 z
M -60.1884,-36.0059 L -60.5621,-36.0531 L -60.927,-36.1468 L -61.2773,-36.2855 L -61.6075,-36.467 L -61.9123,-36.6885
 L -62.1869,-36.9464 L -62.427,-37.2366 L -62.6289,-37.5547 L -62.7893,-37.8956 L -62.9057,-38.2539 L -62.9763,-38.624
 L -63,-39 L -62.9763,-39.376 L -62.9057,-39.7461 L -62.7893,-40.1044 L -62.6289,-40.4453 L -62.427,-40.7634
 L -62.1869,-41.0536 L -61.9123,-41.3116 L -61.6075,-41.533 L -61.2773,-41.7145 L -60.927,-41.8532 L -60.5621,-41.9469
 L -60.1884,-41.9941 L -59.8116,-41.9941 L -59.4379,-41.9469 L -59.0729,-41.8532 L -58.7227,-41.7145 L -58.3925,-41.533
 L -58.0877,-41.3116 L -57.8131,-41.0536 L -57.5729,-40.7634 L -57.3711,-40.4453 L -57.2107,-40.1044 L -57.0942,-39.7461
 L -57.0237,-39.376 L -57,-39 L -57.0237,-38.624 L -57.0942,-38.2539 L -57.2107,-37.8956 L -57.3711,-37.5547
 L -57.5729,-37.2366 L -57.8131,-36.9464 L -58.0877,-36.6885 L -58.3925,-36.467 L -58.7227,-36.2855 L -59.0729,-36.1468
 L -59.4379,-36.0531 L -59.8116,-36.0059 z
M 59.8116,-36.0059 L 59.4379,-36.0531 L 59.0729,-36.1468 L 58.7227,-36.2855 L 58.3925,-36.467 L 58.0877,-36.6885
 L 57.8131,-36.9464 L 57.5729,-37.2366 L 57.3711,-37.5547 L 57.2107,-37.8956 L 57.0942,-38.2539 L 57.0237,-38.624
 L 57,-39 L 57.0237,-39.376 L 57.0942,-39.7461 L 57.2107,-40.1044 L 57.3711,-40.4453 L 57.5729,-40.7634
 L 57.8131,-41.0536 L 58.0877,-41.3116 L 58.3925,-41.533 L 58.7227,-41.7145 L 59.0729,-41.8532 L 59.4379,-41.9469
 L 59.8116,-41.9941 L 60.1884,-41.9941 L 60.5621,-41.9469 L 60.927,-41.8532 L 61.2773,-41.7145 L 61.6075,-41.533
 L 61.9123,-41.3116 L 62.1869,-41.0536 L 62.427,-40.7634 L 62.6289,-40.4453 L 62.7893,-40.1044 L 62.9057,-39.7461
 L 62.9763,-39.376 L 63,-39 L 62.9763,-38.624 L 62.9057,-38.2539 L 62.7893,-37.8956 L 62.6289,-37.5547
 L 62.427,-37.2366 L 62.1869,-36.9464 L 61.9123,-36.6885 L 61.6075,-36.467 L 61.2773,-36.2855 L 60.927,-36.1468
 L 60.5621,-36.0531 L 60.1884,-36.0059 z
" stroke="black" fill="lightgray" stroke-width="0.5"/>
</svg>
