<?xml version="1.0" standalone="no"?>
<!DOCTYPE svg PUBLIC "-//W3C//DTD SVG 1.1//EN" "http://www.w3.org/Graphics/SVG/1.1/DTD/svg11.dtd">
<svg width="584mm" height="120mm" viewBox="-292 -60 584 120" xmlns="http://www.w3.org/2000/svg" version="1.1">
<title>OpenSCAD Model</title>
<path d="
M 287.937,59.4114 L 288.545,59.2553 L 289.129,59.0241 L 289.679,58.7216 L 290.187,58.3526 L 290.645,57.9227
 L 291.045,57.4389 L 291.382,56.9088 L 291.649,56.3406 L 291.843,55.7434 L 291.961,55.1267 L 292,54.5
 L 292,-54.5 L 291.961,-55.1267 L 291.843,-55.7434 L 291.649,-56.3406 L 291.382,-56.9088 L 291.045,-57.4389
 L 290.645,-57.9227 L 290.187,-58.3526 L 289.679,-58.7216 L 289.129,-59.0241 L 288.545,-59.2553 L 287.937,-59.4114
 L 287.314,-59.4901 L -287.314,-59.4901 L -287.937,-59.4114 L -288.545,-59.2553 L -289.129,-59.0241 L -289.679,-58.7216
 L -290.187,-58.3526 L -290.645,-57.9227 L -291.045,-57.4389 L -291.382,-56.9088 L -291.649,-56.3406 L -291.843,-55.7434
 L -291.961,-55.1267 L -292,-54.5 L -292,54.5 L -291.961,55.1267 L -291.843,55.7434 L -291.649,56.3406
 L -291.382,56.9088 L -291.045,57.4389 L -290.645,57.9227 L -290.187,58.3526 L -289.679,58.7216 L -289.129,59.0241
 L -288.545,59.2553 L -287.937,59.4114 L -287.314,59.4901 L 287.314,59.4901 z
M -285.188,-49.5059 L -285.562,-49.5531 L -285.927,-49.6468 L -286.277,-49.7855 L -286.607,-49.967 L -286.912,-50.1885
 L -287.187,-50.4464 L -287.427,-50.7366 L -287.629,-51.0547 L -287.789,-51.3956 L -287.906,-51.7539 L -287.976,-52.124
 L -288,-52.5 L -287.976,-52.876 L -287.906,-53.2461 L -287.789,-53.6044 L -287.629,-53.9453 L -287.427,-54.2634
 L -287.187,-54.5536 L -286.912,-54.8115 L -286.607,-55.033 L -286.277,-55.2145 L -285.927,-55.3532 L -285.562,-55.4469
 L -285.188,-55.4941 L -284.812,-55.4941 L -284.438,-55.4469 L -284.073,-55.3532 L -283.723,-55.2145 L -283.393,-55.033
 L -283.088,-54.8115 L -282.813,-54.5536 L -282.573,-54.2634 L -282.371,-53.9453 L -282.211,-53.6044 L -282.094,-53.2461
 L -282.024,-52.876 L -282,-52.5 L -282.024,-52.124 L -282.094,-51.7539 L -282.211,-51.3956 L -282.371,-51.0547
 L -282.573,-50.7366 L -282.813,-50.4464 L -283.088,-50.1885 L -283.393,-49.967 L -283.723,-49.7855 L -284.073,-49.6468
 L -284.438,-49.5531 L -284.812,-49.5059 z
M 284.812,-49.5059 L 284.438,-49.5531 L 284.073,-49.6468 L 283.723,-49.7855 L 283.393,-49.967 L 283.088,-50.1885
 L 282.813,-50.4464 L 282.573,-50.7366 L 282.371,-51.0547 L 282.211,-51.3956 L 282.094,-51.7539 L 282.024,-52.124
 L 282,-52.5 L 282.024,-52.876 L 282.094,-53.2461 L 282.211,-53.6044 L 282.371,-53.9453 L 282.573,-54.2634
 L 282.813,-54.5536 L 283.088,-54.8115 L 283.393,-55.033 L 283.723,-55.2145 L 284.073,-55.3532 L 284.438,-55.4469
 L 284.812,-55.4941 L 285.188,-55.4941 L 285.562,-55.4469 L 285.927,-55.3532 L 286.277,-55.2145 L 286.607,-55.033
 L 286.912,-54.8115 L 287.187,-54.5536 L 287.427,-54.2634 L 287.629,-53.9453 L 287.789,-53.6044 L 287.906,-53.2461
 L 287.976,-52.876 L 288,-52.5 L 287.976,-52.124 L 287.906,-51.7539 L 287.789,-51.3956 L 287.629,-51.0547
 L 287.427,-50.7366 L 287.187,-50.4464 L 286.912,-50.1885 L 286.607,-49.967 L 286.277,-49.7855 L 285.927,-49.6468
 L 285.562,-49.5531 L 285.188,-49.5059 z
M 226.547,54.8915 L 219.694,54.0258 L 213.004,52.3081 L 206.582,49.7655 L 200.53,46.438 L 194.942,42.3782
 L 189.907,37.6501 L 185.504,32.3282 L 181.803,26.4964 L 178.862,20.2468 L 176.728,13.6779 L 175.434,6.89333
 L 175,-0 L 175.434,-6.89333 L 176.728,-13.6779 L 178.862,-20.2468 L 181.803,-26.4964 L 185.504,-32.3282
 L 189.907,-37.6501 L 194.942,-42.3782 L 200.53,-46.438 L 206.582,-49.7655 L 213.004,-52.3081 L 219.694,-54.0258
 L 226.547,-54.8915 L 233.453,-54.8915 L 240.306,-54.0258 L 246.996,-52.3081 L 253.418,-49.7655 L 259.47,-46.438
 L 265.058,-42.3782 L 270.093,-37.6501 L 274.496,-32.3282 L 278.197,-26.4964 L 281.138,-20.2468 L 283.272,-13.6779
 L 284.566,-6.89333 L 285,-0 L 284.566,6.89333 L 283.272,13.6779 L 281.138,20.2468 L 278.197,26.4964
 L 274.496,32.3282 L 270.093,37.6501 L 265.058,42.3782 L 259.47,46.438 L 253.418,49.7655 L 246.996,52.3081
 L 240.306,54.0258 L 233.453,54.8915 z
M -233.453,54.8915 L -240.306,54.0258 L -246.996,52.3081 L -253.418,49.7655 L -259.47,46.438 L -265.058,42.3782
 L -270.093,37.6501 L -274.496,32.3282 L -278.197,26.4964 L -281.138,20.2468 L -283.272,13.6779 L -284.566,6.89333
 L -285,-0 L -284.566,-6.89333 L -283.272,-13.6779 L -281.138,-20.2468 L -278.197,-26.4964 L -274.496,-32.3282
 L -270.093,-37.6501 L -265.058,-42.3782 L -259.47,-46.438 L -253.418,-49.7655 L -246.996,-52.3081 L -240.306,-54.0258
 L -233.453,-54.8915 L -226.547,-54.8915 L -219.694,-54.0258 L -213.004,-52.3081 L -206.582,-49.7655 L -200.53,-46.438
 L -194.942,-42.3782 L -189.907,-37.6501 L -185.504,-32.3282 L -181.803,-26.4964 L -178.862,-20.2468 L -176.728,-13.6779
 L -175.434,-6.89333 L -175,-0 L -175.434,6.89333 L -176.728,13.6779 L -178.862,20.2468 L -181.803,26.4964
 L -185.504,32.3282 L -189.907,37.6501 L -194.942,42.3782 L -200.53,46.438 L -206.582,49.7655 L -213.004,52.3081
 L -219.694,54.0258 L -226.547,54.8915 z
M -118.453,54.8915 L -125.306,54.0258 L -131.996,52.3081 L -138.418,49.7655 L -144.47,46.438 L -150.058,42.3782
 L -155.093,37.6501 L -159.496,32.3282 L -163.197,26.4964 L -166.138,20.2468 L -168.272,13.6779 L -169.566,6.89333
 L -170,-0 L -169.566,-6.89333 L -168.272,-13.6779 L -166.138,-20.2468 L -163.197,-26.4964 L -159.496,-32.3282
 L -155.093,-37.6501 L -150.058,-42.3782 L -144.47,-46.438 L -138.418,-49.7655 L -131.996,-52.3081 L -125.306,-54.0258
 L -118.453,-54.8915 L -111.547,-54.8915 L -104.694,-54.0258 L -98.0041,-52.3081 L -91.5821,-49.7655 L -85.5295,-46.438
 L -79.9417,-42.3782 L -74.9067,-37.6501 L -70.5041,-32.3282 L -66.8031,-26.4964 L -63.8623,-20.2468 L -61.7279,-13.6779
 L -60.4337,-6.89333 L -60,-0 L -60.4337,6.89333 L -61.7279,13.6779 L -63.8623,20.2468 L -66.8031,26.4964
 L -70.5041,32.3282 L -74.9067,37.6501 L -79.9417,42.3782 L -85.5295,46.438 L -91.5821,49.7655 L -98.0041,52.3081
 L -104.694,54.0258 L -111.547,54.8915 z
M -3.45348,54.8915 L -10.306,54.0258 L -16.9959,52.3081 L -23.4179,49.7655 L -29.4705,46.438 L -35.0583,42.3782
 L -40.0933,37.6501 L -44.4959,32.3282 L -48.1969,26.4964 L -51.1377,20.2468 L -53.2721,13.6779 L -54.5663,6.89333
 L -55,-0 L -54.5663,-6.89333 L -53.2721,-13.6779 L -51.1377,-20.2468 L -48.1969,-26.4964 L -44.4959,-32.3282
 L -40.0933,-37.6501 L -35.0583,-42.3782 L -29.4705,-46.438 L -23.4179,-49.7655 L -16.9959,-52.3081 L -10.306,-54.0258
 L -3.45348,-54.8915 L 3.45348,-54.8915 L 10.306,-54.0258 L 16.9959,-52.3081 L 23.4179,-49.7655 L 29.4705,-46.438
 L 35.0583,-42.3782 L 40.0933,-37.6501 L 44.4959,-32.3282 L 48.1969,-26.4964 L 51.1377,-20.2468 L 53.2721,-13.6779
 L 54.5663,-6.89333 L 55,-0 L 54.5663,6.89333 L 53.2721,13.6779 L 51.1377,20.2468 L 48.1969,26.4964
 L 44.4959,32.3282 L 40.0933,37.6501 L 35.0583,42.3782 L 29.4705,46.438 L 23.4179,49.7655 L 16.9959,52.3081
 L 10.306,54.0258 L 3.45348,54.8915 z
M 111.547,54.8915 L 104.694,54.0258 L 98.0041,52.3081 L 91.5821,49.7655 L 85.5295,46.438 L 79.9417,42.3782
 L 74.9067,37.6501 L 70.5041,32.3282 L 66.8031,26.4964 L 63.8623,20.2468 L 61.7279,13.6779 L 60.4337,6.89333
 L 60,-0 L 60.4337,-6.89333 L 61.7279,-13.6779 L 63.8623,-20.2468 L 66.8031,-26.4964 L 70.5041,-32.3282
 L 74.9067,-37.6501 L 79.9417,-42.3782 L 85.5295,-46.438 L 91.5821,-49.7655 L 98.0041,-52.3081 L 104.694,-54.0258
 L 111.547,-54.8915 L 118.453,-54.8915 L 125.306,-54.0258 L 131.996,-52.3081 L 138.418,-49.7655 L 144.47,-46.438
 L 150.058,-42.3782 L 155.093,-37.6501 L 159.496,-32.3282 L 163.197,-26.4964 L 166.138,-20.2468 L 168.272,-13.6779
 L 169.566,-6.89333 L 170,-0 L 169.566,6.89333 L 168.272,13.6779 L 166.138,20.2468 L 163.197,26.4964
 L 159.496,32.3282 L 155.093,37.6501 L 150.058,42.3782 L 144.47,46.438 L 138.418,49.7655 L 131.996,52.3081
 L 125.306,54.0258 L 118.453,54.8915 z
M 284.812,55.4941 L 284.438,55.4469 L 284.073,55.3532 L 283.723,55.2145 L 283.393,55.033 L 283.088,54.8115
 L 282.813,54.5536 L 282.573,54.2634 L 282.371,53.9453 L 282.211,53.6044 L 282.094,53.2461 L 282.024,52.876
 L 282,52.5 L 282.024,52.124 L 282.094,51.7539 L 282.211,51.3956 L 282.371,51.0547 L 282.573,50.7366
 L 282.813,50.4464 L 283.088,50.1885 L 283.393,49.967 L 283.723,49.7855 L 284.073,49.6468 L 284.438,49.5531
 L 284.812,49.5059 L 285.188,49.5059 L 285.562,49.5531 L 285.927,49.6468 L 286.277,49.7855 L 286.607,49.967
 L 286.912,50.1885 L 287.187,50.4464 L 287.427,50.7366 L 287.629,51.0547 L 287.789,51.3956 L 287.906,51.7539
 L 287.976,52.124 L 288,52.5 L 287.976,52.876 L 287.906,53.2461 L 287.789,53.6044 L 287.629,53.9453
 L 287.427,54.2634 L 287.187,54.5536 L 286.912,54.8115 L 286.607,55.033 L 286.277,55.2145 L 285.927,55.3532
 L 285.562,55.4469 L 285.188,55.4941 z
M -285.188,55.4941 L -285.562,55.4469 L -285.927,55.3532 L -286.277,55.2145 L -286.607,55.033 L -286.912,54.8115
 L -287.187,54.5536 L -287.427,54.2634 L -287.629,53.9453 L -287.789,53.6044 L -287.906,53.2461 L -287.976,52.876
 L -288,52.5 L -287.976,52.124 L -287.906,51.7539 L -287.789,51.3956 L -287.629,51.0547 L -287.427,50.7366
 L -287.187,50.4464 L -286.912,50.1885 L -286.607,49.967 L -286.277,49.7855 L -285.927,49.6468 L -285.562,49.5531
 L -285.188,49.5059 L -284.812,49.5059 L -284.438,49.5531 L -284.073,49.6468 L -283.723,49.7855 L -283.393,49.967
 L -283.088,50.1885 L -282.813,50.4464 L -282.573,50.7366 L -282.371,51.0547 L -282.211,51.3956 L -282.094,51.7539
 L -282.024,52.124 L -282,52.5 L -282.024,52.876 L -282.094,53.2461 L -282.211,53.6044 L -282.371,53.9453
 L -282.573,54.2634 L -282.813,54.5536 L -283.088,54.8115 L -283.393,55.033 L -283.723,55.2145 L -284.073,55.3532
 L -284.438,55.4469 L -284.812,55.4941 z
" stroke="black" fill="lightgray" stroke-width="0.5"/>
</svg>
