<?xml version="1.0" standalone="no"?>
<!DOCTYPE svg PUBLIC "-//W3C//DTD SVG 1.1//EN" "http://www.w3.org/Graphics/SVG/1.1/DTD/svg11.dtd">
<svg width="60mm" height="44mm" viewBox="-30 -76 60 44" xmlns="http://www.w3.org/2000/svg" version="1.1">
<title>OpenSCAD Model</title>
<path d="
M 25.4369,-32.0886 L 26.0451,-32.2447 L 26.6289,-32.4759 L 27.1791,-32.7784 L 27.6871,-33.1474 L 28.1448,-33.5773
 L 28.5451,-34.0611 L 28.8815,-34.5912 L 29.1489,-35.1594 L 29.3429,-35.7566 L 29.4606,-36.3733 L 29.5,-37
 L 29.5,-71 L 29.4606,-71.6267 L 29.3429,-72.2434 L 29.1489,-72.8406 L 28.8815,-73.4088 L 28.5451,-73.9389
 L 28.1448,-74.4227 L 27.6871,-74.8526 L 27.1791,-75.2216 L 26.6289,-75.5241 L 26.0451,-75.7553 L 25.4369,-75.9114
 L 24.8139,-75.9901 L -24.8139,-75.9901 L -25.4369,-75.9114 L -26.0451,-75.7553 L -26.6289,-75.5241 L -27.1791,-75.2216
 L -27.6871,-74.8526 L -28.1448,-74.4227 L -28.5451,-73.9389 L -28.8815,-73.4088 L -29.1489,-72.8406 L -29.3429,-72.2434
 L -29.4606,-71.6267 L -29.5,-71 L -29.5,-37 L -29.4606,-36.3733 L -29.3429,-35.7566 L -29.1489,-35.1594
 L -28.8815,-34.5912 L -28.5451,-34.0611 L -28.1448,-33.5773 L -27.6871,-33.1474 L -27.1791,-32.7784 L -26.6289,-32.4759
 L -26.0451,-32.2447 L -25.4369,-32.0886 L -24.8139,-32.0099 L 24.8139,-32.0099 z
M 22.3116,-66.0059 L 21.9379,-66.0531 L 21.5729,-66.1468 L 21.2227,-66.2855 L 20.8925,-66.467 L 20.5877,-66.6884
 L 20.3131,-66.9464 L 20.0729,-67.2366 L 19.8711,-67.5547 L 19.7107,-67.8956 L 19.5942,-68.2539 L 19.5237,-68.624
 L 19.5,-69 L 19.5237,-69.376 L 19.5942,-69.7461 L 19.7107,-70.1044 L 19.8711,-70.4453 L 20.0729,-70.7634
 L 20.3131,-71.0536 L 20.5877,-71.3115 L 20.8925,-71.533 L 21.2227,-71.7145 L 21.5729,-71.8532 L 21.9379,-71.9469
 L 22.3116,-71.9941 L 22.6884,-71.9941 L 23.0621,-71.9469 L 23.427,-71.8532 L 23.7773,-71.7145 L 24.1075,-71.533
 L 24.4123,-71.3115 L 24.6869,-71.0536 L 24.927,-70.7634 L 25.1289,-70.4453 L 25.2893,-70.1044 L 25.4057,-69.7461
 L 25.4763,-69.376 L 25.5,-69 L 25.4763,-68.624 L 25.4057,-68.2539 L 25.2893,-67.8956 L 25.1289,-67.5547
 L 24.927,-67.2366 L 24.6869,-66.9464 L 24.4123,-66.6884 L 24.1075,-66.467 L 23.7773,-66.2855 L 23.427,-66.1468
 L 23.0621,-66.0531 L 22.6884,-66.0059 z
M -22.6884,-66.0059 L -23.0621,-66.0531 L -23.427,-66.1468 L -23.7773,-66.2855 L -24.1075,-66.467 L -24.4123,-66.6884
 L -24.6869,-66.9464 L -24.927,-67.2366 L -25.1289,-67.5547 L -25.2893,-67.8956 L -25.4057,-68.2539 L -25.4763,-68.624
 L -25.5,-69 L -25.4763,-69.376 L -25.4057,-69.7461 L -25.2893,-70.1044 L -25.1289,-70.4453 L -24.927,-70.7634
 L -24.6869,-71.0536 L -24.4123,-71.3115 L -24.1075,-71.533 L -23.7773,-71.7145 L -23.427,-71.8532 L -23.0621,-71.9469
 L -22.6884,-71.9941 L -22.3116,-71.9941 L -21.9379,-71.9469 L -21.5729,-71.8532 L -21.2227,-71.7145 L -20.8925,-71.533
 L -20.5877,-71.3115 L -20.3131,-71.0536 L -20.0729,-70.7634 L -19.8711,-70.4453 L -19.7107,-70.1044 L -19.5942,-69.7461
 L -19.5237,-69.376 L -19.5,-69 L -19.5237,-68.624 L -19.5942,-68.2539 L -19.7107,-67.8956 L -19.8711,-67.5547
 L -20.0729,-67.2366 L -20.3131,-66.9464 L -20.5877,-66.6884 L -20.8925,-66.467 L -21.2227,-66.2855 L -21.5729,-66.1468
 L -21.9379,-66.0531 L -22.3116,-66.0059 z
M 13.7465,-42.0237 L 12.2514,-42.2126 L 10.7918,-42.5873 L 9.39064,-43.1421 L 8.07007,-43.8681 L 6.85091,-44.7538
 L 5.75237,-45.7854 L 4.79179,-46.9466 L 3.98431,-48.219 L 3.34268,-49.5825 L 2.877,-51.0157 L 2.59462,-52.496
 L 2.5,-54 L 2.59462,-55.504 L 2.877,-56.9843 L 3.34268,-58.4175 L 3.98431,-59.781 L 4.79179,-61.0534
 L 5.75237,-62.2146 L 6.85091,-63.2462 L 8.07007,-64.1319 L 9.39064,-64.8579 L 10.7918,-65.4127 L 12.2514,-65.7874
 L 13.7465,-65.9763 L 15.2535,-65.9763 L 16.7486,-65.7874 L 18.2082,-65.4127 L 19.6093,-64.8579 L 20.9299,-64.1319
 L 22.1491,-63.2462 L 23.2476,-62.2146 L 24.2082,-61.0534 L 25.0157,-59.781 L 25.6573,-58.4175 L 26.123,-56.9843
 L 26.4054,-55.504 L 26.5,-54 L 26.4054,-52.496 L 26.123,-51.0157 L 25.6573,-49.5825 L 25.0157,-48.219
 L 24.2082,-46.9466 L 23.2476,-45.7854 L 22.1491,-44.7538 L 20.9299,-43.8681 L 19.6093,-43.1421 L 18.2082,-42.5873
 L 16.7486,-42.2126 L 15.2535,-42.0237 z
M -15.2535,-42.0237 L -16.7486,-42.2126 L -18.2082,-42.5873 L -19.6093,-43.1421 L -20.9299,-43.8681 L -22.1491,-44.7538
 L -23.2476,-45.7854 L -24.2082,-46.9466 L -25.0157,-48.219 L -25.6573,-49.5825 L -26.123,-51.0157 L -26.4054,-52.496
 L -26.5,-54 L -26.4054,-55.504 L -26.123,-56.9843 L -25.6573,-58.4175 L -25.0157,-59.781 L -24.2082,-61.0534
 L -23.2476,-62.2146 L -22.1491,-63.2462 L -20.9299,-64.1319 L -19.6093,-64.8579 L -18.2082,-65.4127 L -16.7486,-65.7874
 L -15.2535,-65.9763 L -13.7465,-65.9763 L -12.2514,-65.7874 L -10.7918,-65.4127 L -9.39064,-64.8579 L -8.07007,-64.1319
 L -6.85091,-63.2462 L -5.75237,-62.2146 L -4.79179,-61.0534 L -3.98431,-59.781 L -3.34268,-58.4175 L -2.877,-56.9843
 L -2.59462,-55.504 L -2.5,-54 L -2.59462,-52.496 L -2.877,-51.0157 L -3.34268,-49.5825 L -3.98431,-48.219
 L -4.79179,-46.9466 L -5.75237,-45.7854 L -6.85091,-44.7538 L -8.07007,-43.8681 L -9.39064,-43.1421 L -10.7918,-42.5873
 L -12.2514,-42.2126 L -13.7465,-42.0237 z
M 22.3116,-36.0059 L 21.9379,-36.0531 L 21.5729,-36.1468 L 21.2227,-36.2855 L 20.8925,-36.467 L 20.5877,-36.6885
 L 20.3131,-36.9464 L 20.0729,-37.2366 L 19.8711,-37.5547 L 19.7107,-37.8956 L 19.5942,-38.2539 L 19.5237,-38.624
 L 19.5,-39 L 19.5237,-39.376 L 19.5942,-39.7461 L 19.7107,-40.1044 L 19.8711,-40.4453 L 20.0729,-40.7634
 L 20.3131,-41.0536 L 20.5877,-41.3116 L 20.8925,-41.533 L 21.2227,-41.7145 L 21.5729,-41.8532 L 21.9379,-41.9469
 L 22.3116,-41.9941 L 22.6884,-41.9941 L 23.0621,-41.9469 L 23.427,-41.8532 L 23.7773,-41.7145 L 24.1075,-41.533
 L 24.4123,-41.3116 L 24.6869,-41.0536 L 24.927,-40.7634 L 25.1289,-40.4453 L 25.2893,-40.1044 L 25.4057,-39.7461
 L 25.4763,-39.376 L 25.5,-39 L 25.4763,-38.624 L 25.4057,-38.2539 L 25.2893,-37.8956 L 25.1289,-37.5547
 L 24.927,-37.2366 L 24.6869,-36.9464 L 24.4123,-36.6885 L 24.1075,-36.467 L 23.7773,-36.2855 L 23.427,-36.1468
 L 23.0621,-36.0531 L 22.6884,-36.0059 z
M -22.6884,-36.0059 L -23.0621,-36.0531 L -23.427,-36.1468 L -23.7773,-36.2855 L -24.1075,-36.467 L -24.4123,-36.6885
 L -24.6869,-36.9464 L -24.927,-37.2366 L -25.1289,-37.5547 L -25.2893,-37.8956 L -25.4057,-38.2539 L -25.4763,-38.624
 L -25.5,-39 L -25.4763,-39.376 L -25.4057,-39.7461 L -25.2893,-40.1044 L -25.1289,-40.4453 L -24.927,-40.7634
 L -24.6869,-41.0536 L -24.4123,-41.3116 L -24.1075,-41.533 L -23.7773,-41.7145 L -23.427,-41.8532 L -23.0621,-41.9469
 L -22.6884,-41.9941 L -22.3116,-41.9941 L -21.9379,-41.9469 L -21.5729,-41.8532 L -21.2227,-41.7145 L -20.8925,-41.533
 L -20.5877,-41.3116 L -20.3131,-41.0536 L -20.0729,-40.7634 L -19.8711,-40.4453 L -19.7107,-40.1044 L -19.5942,-39.7461
 L -19.5237,-39.376 L -19.5,-39 L -19.5237,-38.624 L -19.5942,-38.2539 L -19.7107,-37.8956 L -19.8711,-37.5547
 L -20.0729,-37.2366 L -20.3131,-36.9464 L -20.5877,-36.6885 L -20.8925,-36.467 L -21.2227,-36.2855 L -21.5729,-36.1468
 L -21.9379,-36.0531 L -22.3116,-36.0059 z
" stroke="black" fill="lightgray" stroke-width="0.5"/>
</svg>
