<?xml version="1.0" standalone="no"?>
<!DOCTYPE svg PUBLIC "-//W3C//DTD SVG 1.1//EN" "http://www.w3.org/Graphics/SVG/1.1/DTD/svg11.dtd">
<svg width="90mm" height="30mm" viewBox="-45 -54 90 30" xmlns="http://www.w3.org/2000/svg" version="1.1">
<title>OpenSCAD Model</title>
<path d="
M 40.4369,-24.5886 L 41.0451,-24.7447 L 41.6289,-24.9759 L 42.1791,-25.2784 L 42.6871,-25.6474 L 43.1448,-26.0773
 L 43.5451,-26.5611 L 43.8815,-27.0912 L 44.1489,-27.6594 L 44.3429,-28.2566 L 44.4606,-28.8733 L 44.5,-29.5
 L 44.5,-48.5 L 44.4606,-49.1267 L 44.3429,-49.7434 L 44.1489,-50.3406 L 43.8815,-50.9088 L 43.5451,-51.4389
 L 43.1448,-51.9227 L 42.6871,-52.3526 L 42.1791,-52.7216 L 41.6289,-53.0241 L 41.0451,-53.2553 L 40.4369,-53.4114
 L 39.8139,-53.4901 L -39.8139,-53.4901 L -40.4369,-53.4114 L -41.0451,-53.2553 L -41.6289,-53.0241 L -42.1791,-52.7216
 L -42.6871,-52.3526 L -43.1448,-51.9227 L -43.5451,-51.4389 L -43.8815,-50.9088 L -44.1489,-50.3406 L -44.3429,-49.7434
 L -44.4606,-49.1267 L -44.5,-48.5 L -44.5,-29.5 L -44.4606,-28.8733 L -44.3429,-28.2566 L -44.1489,-27.6594
 L -43.8815,-27.0912 L -43.5451,-26.5611 L -43.1448,-26.0773 L -42.6871,-25.6474 L -42.1791,-25.2784 L -41.6289,-24.9759
 L -41.0451,-24.7447 L -40.4369,-24.5886 L -39.8139,-24.5099 L 39.8139,-24.5099 z
M 37.3116,-43.5059 L 36.9379,-43.5531 L 36.5729,-43.6468 L 36.2227,-43.7855 L 35.8925,-43.967 L 35.5877,-44.1884
 L 35.3131,-44.4464 L 35.0729,-44.7366 L 34.8711,-45.0547 L 34.7107,-45.3956 L 34.5942,-45.7539 L 34.5237,-46.124
 L 34.5,-46.5 L 34.5237,-46.876 L 34.5942,-47.2461 L 34.7107,-47.6044 L 34.8711,-47.9453 L 35.0729,-48.2634
 L 35.3131,-48.5536 L 35.5877,-48.8115 L 35.8925,-49.033 L 36.2227,-49.2145 L 36.5729,-49.3532 L 36.9379,-49.4469
 L 37.3116,-49.4941 L 37.6884,-49.4941 L 38.0621,-49.4469 L 38.427,-49.3532 L 38.7773,-49.2145 L 39.1075,-49.033
 L 39.4123,-48.8115 L 39.6869,-48.5536 L 39.927,-48.2634 L 40.1289,-47.9453 L 40.2893,-47.6044 L 40.4057,-47.2461
 L 40.4763,-46.876 L 40.5,-46.5 L 40.4763,-46.124 L 40.4057,-45.7539 L 40.2893,-45.3956 L 40.1289,-45.0547
 L 39.927,-44.7366 L 39.6869,-44.4464 L 39.4123,-44.1884 L 39.1075,-43.967 L 38.7773,-43.7855 L 38.427,-43.6468
 L 38.0621,-43.5531 L 37.6884,-43.5059 z
M -37.6884,-43.5059 L -38.0621,-43.5531 L -38.427,-43.6468 L -38.7773,-43.7855 L -39.1075,-43.967 L -39.4123,-44.1884
 L -39.6869,-44.4464 L -39.927,-44.7366 L -40.1289,-45.0547 L -40.2893,-45.3956 L -40.4057,-45.7539 L -40.4763,-46.124
 L -40.5,-46.5 L -40.4763,-46.876 L -40.4057,-47.2461 L -40.2893,-47.6044 L -40.1289,-47.9453 L -39.927,-48.2634
 L -39.6869,-48.5536 L -39.4123,-48.8115 L -39.1075,-49.033 L -38.7773,-49.2145 L -38.427,-49.3532 L -38.0621,-49.4469
 L -37.6884,-49.4941 L -37.3116,-49.4941 L -36.9379,-49.4469 L -36.5729,-49.3532 L -36.2227,-49.2145 L -35.8925,-49.033
 L -35.5877,-48.8115 L -35.3131,-48.5536 L -35.0729,-48.2634 L -34.8711,-47.9453 L -34.7107,-47.6044 L -34.5942,-47.2461
 L -34.5237,-46.876 L -34.5,-46.5 L -34.5237,-46.124 L -34.5942,-45.7539 L -34.7107,-45.3956 L -34.8711,-45.0547
 L -35.0729,-44.7366 L -35.3131,-44.4464 L -35.5877,-44.1884 L -35.8925,-43.967 L -36.2227,-43.7855 L -36.5729,-43.6468
 L -36.9379,-43.5531 L -37.3116,-43.5059 z
M -22.8139,-34.0099 L -23.4369,-34.0886 L -24.0451,-34.2447 L -24.6289,-34.4759 L -25.1791,-34.7784 L -25.6871,-35.1474
 L -26.1448,-35.5773 L -26.5451,-36.0611 L -26.8815,-36.5912 L -27.1489,-37.1594 L -27.3429,-37.7566 L -27.4606,-38.3733
 L -27.5,-39 L -27.4606,-39.6267 L -27.3429,-40.2434 L -27.1489,-40.8406 L -26.8815,-41.4088 L -26.5451,-41.9389
 L -26.1448,-42.4227 L -25.6871,-42.8526 L -25.1791,-43.2216 L -24.6289,-43.5241 L -24.0451,-43.7553 L -23.4369,-43.9114
 L -22.8139,-43.9901 L -22.186,-43.9901 L -21.5631,-43.9114 L -20.9549,-43.7553 L -20.3711,-43.5241 L -19.8209,-43.2216
 L -19.3129,-42.8526 L -18.8551,-42.4227 L -18.4549,-41.9389 L -18.1185,-41.4088 L -17.8511,-40.8406 L -17.6571,-40.2434
 L -17.5394,-39.6267 L -17.5,-39 L -17.5394,-38.3733 L -17.6571,-37.7566 L -17.8511,-37.1594 L -18.1185,-36.5912
 L -18.4549,-36.0611 L -18.8551,-35.5773 L -19.3129,-35.1474 L -19.8209,-34.7784 L -20.3711,-34.4759 L -20.9549,-34.2447
 L -21.5631,-34.0886 L -22.186,-34.0099 z
M 22.186,-34.0099 L 21.5631,-34.0886 L 20.9549,-34.2447 L 20.3711,-34.4759 L 19.8209,-34.7784 L 19.3129,-35.1474
 L 18.8551,-35.5773 L 18.4549,-36.0611 L 18.1185,-36.5912 L 17.8511,-37.1594 L 17.6571,-37.7566 L 17.5394,-38.3733
 L 17.5,-39 L 17.5394,-39.6267 L 17.6571,-40.2434 L 17.8511,-40.8406 L 18.1185,-41.4088 L 18.4549,-41.9389
 L 18.8551,-42.4227 L 19.3129,-42.8526 L 19.8209,-43.2216 L 20.3711,-43.5241 L 20.9549,-43.7553 L 21.5631,-43.9114
 L 22.186,-43.9901 L 22.8139,-43.9901 L 23.4369,-43.9114 L 24.0451,-43.7553 L 24.6289,-43.5241 L 25.1791,-43.2216
 L 25.6871,-42.8526 L 26.1448,-42.4227 L 26.5451,-41.9389 L 26.8815,-41.4088 L 27.1489,-40.8406 L 27.3429,-40.2434
 L 27.4606,-39.6267 L 27.5,-39 L 27.4606,-38.3733 L 27.3429,-37.7566 L 27.1489,-37.1594 L 26.8815,-36.5912
 L 26.5451,-36.0611 L 26.1448,-35.5773 L 25.6871,-35.1474 L 25.1791,-34.7784 L 24.6289,-34.4759 L 24.0451,-34.2447
 L 23.4369,-34.0886 L 22.8139,-34.0099 z
M 7.18604,-34.0099 L 6.56308,-34.0886 L 5.95491,-34.2447 L 5.37109,-34.4759 L 4.82086,-34.7784 L 4.31287,-35.1474
 L 3.85515,-35.5773 L 3.45491,-36.0611 L 3.11845,-36.5912 L 2.8511,-37.1594 L 2.65707,-37.7566 L 2.53941,-38.3733
 L 2.5,-39 L 2.53941,-39.6267 L 2.65707,-40.2434 L 2.8511,-40.8406 L 3.11845,-41.4088 L 3.45491,-41.9389
 L 3.85515,-42.4227 L 4.31287,-42.8526 L 4.82086,-43.2216 L 5.37109,-43.5241 L 5.95491,-43.7553 L 6.56308,-43.9114
 L 7.18604,-43.9901 L 7.81395,-43.9901 L 8.4369,-43.9114 L 9.04507,-43.7553 L 9.62889,-43.5241 L 10.1791,-43.2216
 L 10.6871,-42.8526 L 11.1448,-42.4227 L 11.5451,-41.9389 L 11.8815,-41.4088 L 12.1489,-40.8406 L 12.3429,-40.2434
 L 12.4606,-39.6267 L 12.5,-39 L 12.4606,-38.3733 L 12.3429,-37.7566 L 12.1489,-37.1594 L 11.8815,-36.5912
 L 11.5451,-36.0611 L 11.1448,-35.5773 L 10.6871,-35.1474 L 10.1791,-34.7784 L 9.62889,-34.4759 L 9.04507,-34.2447
 L 8.4369,-34.0886 L 7.81395,-34.0099 z
M -7.81395,-34.0099 L -8.4369,-34.0886 L -9.04507,-34.2447 L -9.62889,-34.4759 L -10.1791,-34.7784 L -10.6871,-35.1474
 L -11.1448,-35.5773 L -11.5451,-36.0611 L -11.8815,-36.5912 L -12.1489,-37.1594 L -12.3429,-37.7566 L -12.4606,-38.3733
 L -12.5,-39 L -12.4606,-39.6267 L -12.3429,-40.2434 L -12.1489,-40.8406 L -11.8815,-41.4088 L -11.5451,-41.9389
 L -11.1448,-42.4227 L -10.6871,-42.8526 L -10.1791,-43.2216 L -9.62889,-43.5241 L -9.04507,-43.7553 L -8.4369,-43.9114
 L -7.81395,-43.9901 L -7.18604,-43.9901 L -6.56308,-43.9114 L -5.95491,-43.7553 L -5.37109,-43.5241 L -4.82086,-43.2216
 L -4.31287,-42.8526 L -3.85515,-42.4227 L -3.45491,-41.9389 L -3.11845,-41.4088 L -2.8511,-40.8406 L -2.65707,-40.2434
 L -2.53941,-39.6267 L -2.5,-39 L -2.53941,-38.3733 L -2.65707,-37.7566 L -2.8511,-37.1594 L -3.11845,-36.5912
 L -3.45491,-36.0611 L -3.85515,-35.5773 L -4.31287,-35.1474 L -4.82086,-34.7784 L -5.37109,-34.4759 L -5.95491,-34.2447
 L -6.56308,-34.0886 L -7.18604,-34.0099 z
M 37.4058,-37.503 L 37.2189,-37.5266 L 37.0365,-37.5734 L 36.8613,-37.6428 L 36.6963,-37.7335 L 36.5439,-37.8442
 L 36.4065,-37.9732 L 36.2865,-38.1183 L 36.1855,-38.2774 L 36.1053,-38.4478 L 36.0471,-38.627 L 36.0118,-38.812
 L 36,-39 L 36.0118,-39.188 L 36.0471,-39.373 L 36.1053,-39.5522 L 36.1855,-39.7226 L 36.2865,-39.8817
 L 36.4065,-40.0268 L 36.5439,-40.1558 L 36.6963,-40.2665 L 36.8613,-40.3572 L 37.0365,-40.4266 L 37.2189,-40.4734
 L 37.4058,-40.497 L 37.5942,-40.497 L 37.7811,-40.4734 L 37.9635,-40.4266 L 38.1387,-40.3572 L 38.3037,-40.2665
 L 38.4561,-40.1558 L 38.5934,-40.0268 L 38.7135,-39.8817 L 38.8145,-39.7226 L 38.8947,-39.5522 L 38.9529,-39.373
 L 38.9882,-39.188 L 39,-39 L 38.9882,-38.812 L 38.9529,-38.627 L 38.8947,-38.4478 L 38.8145,-38.2774
 L 38.7135,-38.1183 L 38.5934,-37.9732 L 38.4561,-37.8442 L 38.3037,-37.7335 L 38.1387,-37.6428 L 37.9635,-37.5734
 L 37.7811,-37.5266 L 37.5942,-37.503 z
M -37.5942,-37.503 L -37.7811,-37.5266 L -37.9635,-37.5734 L -38.1387,-37.6428 L -38.3037,-37.7335 L -38.4561,-37.8442
 L -38.5934,-37.9732 L -38.7135,-38.1183 L -38.8145,-38.2774 L -38.8947,-38.4478 L -38.9529,-38.627 L -38.9882,-38.812
 L -39,-39 L -38.9882,-39.188 L -38.9529,-39.373 L -38.8947,-39.5522 L -38.8145,-39.7226 L -38.7135,-39.8817
 L -38.5934,-40.0268 L -38.4561,-40.1558 L -38.3037,-40.2665 L -38.1387,-40.3572 L -37.9635,-40.4266 L -37.7811,-40.4734
 L -37.5942,-40.497 L -37.4058,-40.497 L -37.2189,-40.4734 L -37.0365,-40.4266 L -36.8613,-40.3572 L -36.6963,-40.2665
 L -36.5439,-40.1558 L -36.4065,-40.0268 L -36.2865,-39.8817 L -36.1855,-39.7226 L -36.1053,-39.5522 L -36.0471,-39.373
 L -36.0118,-39.188 L -36,-39 L -36.0118,-38.812 L -36.0471,-38.627 L -36.1053,-38.4478 L -36.1855,-38.2774
 L -36.2865,-38.1183 L -36.4065,-37.9732 L -36.5439,-37.8442 L -36.6963,-37.7335 L -36.8613,-37.6428 L -37.0365,-37.5734
 L -37.2189,-37.5266 L -37.4058,-37.503 z
M 37.3116,-28.5059 L 36.9379,-28.5531 L 36.5729,-28.6468 L 36.2227,-28.7855 L 35.8925,-28.967 L 35.5877,-29.1885
 L 35.3131,-29.4464 L 35.0729,-29.7366 L 34.8711,-30.0547 L 34.7107,-30.3956 L 34.5942,-30.7539 L 34.5237,-31.124
 L 34.5,-31.5 L 34.5237,-31.876 L 34.5942,-32.2461 L 34.7107,-32.6044 L 34.8711,-32.9453 L 35.0729,-33.2634
 L 35.3131,-33.5536 L 35.5877,-33.8116 L 35.8925,-34.033 L 36.2227,-34.2145 L 36.5729,-34.3532 L 36.9379,-34.4469
 L 37.3116,-34.4941 L 37.6884,-34.4941 L 38.0621,-34.4469 L 38.427,-34.3532 L 38.7773,-34.2145 L 39.1075,-34.033
 L 39.4123,-33.8116 L 39.6869,-33.5536 L 39.927,-33.2634 L 40.1289,-32.9453 L 40.2893,-32.6044 L 40.4057,-32.2461
 L 40.4763,-31.876 L 40.5,-31.5 L 40.4763,-31.124 L 40.4057,-30.7539 L 40.2893,-30.3956 L 40.1289,-30.0547
 L 39.927,-29.7366 L 39.6869,-29.4464 L 39.4123,-29.1885 L 39.1075,-28.967 L 38.7773,-28.7855 L 38.427,-28.6468
 L 38.0621,-28.5531 L 37.6884,-28.5059 z
M -37.6884,-28.5059 L -38.0621,-28.5531 L -38.427,-28.6468 L -38.7773,-28.7855 L -39.1075,-28.967 L -39.4123,-29.1885
 L -39.6869,-29.4464 L -39.927,-29.7366 L -40.1289,-30.0547 L -40.2893,-30.3956 L -40.4057,-30.7539 L -40.4763,-31.124
 L -40.5,-31.5 L -40.4763,-31.876 L -40.4057,-32.2461 L -40.2893,-32.6044 L -40.1289,-32.9453 L -39.927,-33.2634
 L -39.6869,-33.5536 L -39.4123,-33.8116 L -39.1075,-34.033 L -38.7773,-34.2145 L -38.427,-34.3532 L -38.0621,-34.4469
 L -37.6884,-34.4941 L -37.3116,-34.4941 L -36.9379,-34.4469 L -36.5729,-34.3532 L -36.2227,-34.2145 L -35.8925,-34.033
 L -35.5877,-33.8116 L -35.3131,-33.5536 L -35.0729,-33.2634 L -34.8711,-32.9453 L -34.7107,-32.6044 L -34.5942,-32.2461
 L -34.5237,-31.876 L -34.5,-31.5 L -34.5237,-31.124 L -34.5942,-30.7539 L -34.7107,-30.3956 L -34.8711,-30.0547
 L -35.0729,-29.7366 L -35.3131,-29.4464 L -35.5877,-29.1885 L -35.8925,-28.967 L -36.2227,-28.7855 L -36.5729,-28.6468
 L -36.9379,-28.5531 L -37.3116,-28.5059 z
" stroke="black" fill="lightgray" stroke-width="0.5"/>
</svg>
