  0
SECTION
  2
BLOCKS
  0
ENDSEC
  0
SECTION
  2
ENTITIES
  0
LINE
  8
0
 10
385.437
 20
-81.9114
 11
386.045
 21
-81.7553
  0
LINE
  8
0
 10
386.045
 20
-81.7553
 11
386.629
 21
-81.5241
  0
LINE
  8
0
 10
386.629
 20
-81.5241
 11
387.179
 21
-81.2216
  0
LINE
  8
0
 10
387.179
 20
-81.2216
 11
387.687
 21
-80.8526
  0
LINE
  8
0
 10
387.687
 20
-80.8526
 11
388.145
 21
-80.4227
  0
LINE
  8
0
 10
388.145
 20
-80.4227
 11
388.545
 21
-79.9389
  0
LINE
  8
0
 10
388.545
 20
-79.9389
 11
388.882
 21
-79.4088
  0
LINE
  8
0
 10
388.882
 20
-79.4088
 11
389.149
 21
-78.8406
  0
LINE
  8
0
 10
389.149
 20
-78.8406
 11
389.343
 21
-78.2434
  0
LINE
  8
0
 10
389.343
 20
-78.2434
 11
389.461
 21
-77.6267
  0
LINE
  8
0
 10
389.461
 20
-77.6267
 11
389.5
 21
-77
  0
LINE
  8
0
 10
389.5
 20
-77
 11
389.5
 21
77
  0
LINE
  8
0
 10
389.5
 20
77
 11
389.461
 21
77.6267
  0
LINE
  8
0
 10
389.461
 20
77.6267
 11
389.343
 21
78.2434
  0
LINE
  8
0
 10
389.343
 20
78.2434
 11
389.149
 21
78.8406
  0
LINE
  8
0
 10
389.149
 20
78.8406
 11
388.882
 21
79.4088
  0
LINE
  8
0
 10
388.882
 20
79.4088
 11
388.545
 21
79.9389
  0
LINE
  8
0
 10
388.545
 20
79.9389
 11
388.145
 21
80.4227
  0
LINE
  8
0
 10
388.145
 20
80.4227
 11
387.687
 21
80.8526
  0
LINE
  8
0
 10
387.687
 20
80.8526
 11
387.179
 21
81.2216
  0
LINE
  8
0
 10
387.179
 20
81.2216
 11
386.629
 21
81.5241
  0
LINE
  8
0
 10
386.629
 20
81.5241
 11
386.045
 21
81.7553
  0
LINE
  8
0
 10
386.045
 20
81.7553
 11
385.437
 21
81.9114
  0
LINE
  8
0
 10
385.437
 20
81.9114
 11
384.814
 21
81.9901
  0
LINE
  8
0
 10
384.814
 20
81.9901
 11
-384.814
 21
81.9901
  0
LINE
  8
0
 10
-384.814
 20
81.9901
 11
-385.437
 21
81.9114
  0
LINE
  8
0
 10
-385.437
 20
81.9114
 11
-386.045
 21
81.7553
  0
LINE
  8
0
 10
-386.045
 20
81.7553
 11
-386.629
 21
81.5241
  0
LINE
  8
0
 10
-386.629
 20
81.5241
 11
-387.179
 21
81.2216
  0
LINE
  8
0
 10
-387.179
 20
81.2216
 11
-387.687
 21
80.8526
  0
LINE
  8
0
 10
-387.687
 20
80.8526
 11
-388.145
 21
80.4227
  0
LINE
  8
0
 10
-388.145
 20
80.4227
 11
-388.545
 21
79.9389
  0
LINE
  8
0
 10
-388.545
 20
79.9389
 11
-388.882
 21
79.4088
  0
LINE
  8
0
 10
-388.882
 20
79.4088
 11
-389.149
 21
78.8406
  0
LINE
  8
0
 10
-389.149
 20
78.8406
 11
-389.343
 21
78.2434
  0
LINE
  8
0
 10
-389.343
 20
78.2434
 11
-389.461
 21
77.6267
  0
LINE
  8
0
 10
-389.461
 20
77.6267
 11
-389.5
 21
77
  0
LINE
  8
0
 10
-389.5
 20
77
 11
-389.5
 21
-77
  0
LINE
  8
0
 10
-389.5
 20
-77
 11
-389.461
 21
-77.6267
  0
LINE
  8
0
 10
-389.461
 20
-77.6267
 11
-389.343
 21
-78.2434
  0
LINE
  8
0
 10
-389.343
 20
-78.2434
 11
-389.149
 21
-78.8406
  0
LINE
  8
0
 10
-389.149
 20
-78.8406
 11
-388.882
 21
-79.4088
  0
LINE
  8
0
 10
-388.882
 20
-79.4088
 11
-388.545
 21
-79.9389
  0
LINE
  8
0
 10
-388.545
 20
-79.9389
 11
-388.145
 21
-80.4227
  0
LINE
  8
0
 10
-388.145
 20
-80.4227
 11
-387.687
 21
-80.8526
  0
LINE
  8
0
 10
-387.687
 20
-80.8526
 11
-387.179
 21
-81.2216
  0
LINE
  8
0
 10
-387.179
 20
-81.2216
 11
-386.629
 21
-81.5241
  0
LINE
  8
0
 10
-386.629
 20
-81.5241
 11
-386.045
 21
-81.7553
  0
LINE
  8
0
 10
-386.045
 20
-81.7553
 11
-385.437
 21
-81.9114
  0
LINE
  8
0
 10
-385.437
 20
-81.9114
 11
-384.814
 21
-81.9901
  0
LINE
  8
0
 10
-384.814
 20
-81.9901
 11
384.814
 21
-81.9901
  0
LINE
  8
0
 10
384.814
 20
-81.9901
 11
385.437
 21
-81.9114
  0
LINE
  8
0
 10
-382.688
 20
72.0059
 11
-383.062
 21
72.0531
  0
LINE
  8
0
 10
-383.062
 20
72.0531
 11
-383.427
 21
72.1468
  0
LINE
  8
0
 10
-383.427
 20
72.1468
 11
-383.777
 21
72.2855
  0
LINE
  8
0
 10
-383.777
 20
72.2855
 11
-384.107
 21
72.467
  0
LINE
  8
0
 10
-384.107
 20
72.467
 11
-384.412
 21
72.6885
  0
LINE
  8
0
 10
-384.412
 20
72.6885
 11
-384.687
 21
72.9464
  0
LINE
  8
0
 10
-384.687
 20
72.9464
 11
-384.927
 21
73.2366
  0
LINE
  8
0
 10
-384.927
 20
73.2366
 11
-385.129
 21
73.5547
  0
LINE
  8
0
 10
-385.129
 20
73.5547
 11
-385.289
 21
73.8956
  0
LINE
  8
0
 10
-385.289
 20
73.8956
 11
-385.406
 21
74.2539
  0
LINE
  8
0
 10
-385.406
 20
74.2539
 11
-385.476
 21
74.624
  0
LINE
  8
0
 10
-385.476
 20
74.624
 11
-385.5
 21
75
  0
LINE
  8
0
 10
-385.5
 20
75
 11
-385.476
 21
75.376
  0
LINE
  8
0
 10
-385.476
 20
75.376
 11
-385.406
 21
75.7461
  0
LINE
  8
0
 10
-385.406
 20
75.7461
 11
-385.289
 21
76.1044
  0
LINE
  8
0
 10
-385.289
 20
76.1044
 11
-385.129
 21
76.4453
  0
LINE
  8
0
 10
-385.129
 20
76.4453
 11
-384.927
 21
76.7634
  0
LINE
  8
0
 10
-384.927
 20
76.7634
 11
-384.687
 21
77.0536
  0
LINE
  8
0
 10
-384.687
 20
77.0536
 11
-384.412
 21
77.3115
  0
LINE
  8
0
 10
-384.412
 20
77.3115
 11
-384.107
 21
77.533
  0
LINE
  8
0
 10
-384.107
 20
77.533
 11
-383.777
 21
77.7145
  0
LINE
  8
0
 10
-383.777
 20
77.7145
 11
-383.427
 21
77.8532
  0
LINE
  8
0
 10
-383.427
 20
77.8532
 11
-383.062
 21
77.9469
  0
LINE
  8
0
 10
-383.062
 20
77.9469
 11
-382.688
 21
77.9941
  0
LINE
  8
0
 10
-382.688
 20
77.9941
 11
-382.312
 21
77.9941
  0
LINE
  8
0
 10
-382.312
 20
77.9941
 11
-381.938
 21
77.9469
  0
LINE
  8
0
 10
-381.938
 20
77.9469
 11
-381.573
 21
77.8532
  0
LINE
  8
0
 10
-381.573
 20
77.8532
 11
-381.223
 21
77.7145
  0
LINE
  8
0
 10
-381.223
 20
77.7145
 11
-380.893
 21
77.533
  0
LINE
  8
0
 10
-380.893
 20
77.533
 11
-380.588
 21
77.3115
  0
LINE
  8
0
 10
-380.588
 20
77.3115
 11
-380.313
 21
77.0536
  0
LINE
  8
0
 10
-380.313
 20
77.0536
 11
-380.073
 21
76.7634
  0
LINE
  8
0
 10
-380.073
 20
76.7634
 11
-379.871
 21
76.4453
  0
LINE
  8
0
 10
-379.871
 20
76.4453
 11
-379.711
 21
76.1044
  0
LINE
  8
0
 10
-379.711
 20
76.1044
 11
-379.594
 21
75.7461
  0
LINE
  8
0
 10
-379.594
 20
75.7461
 11
-379.524
 21
75.376
  0
LINE
  8
0
 10
-379.524
 20
75.376
 11
-379.5
 21
75
  0
LINE
  8
0
 10
-379.5
 20
75
 11
-379.524
 21
74.624
  0
LINE
  8
0
 10
-379.524
 20
74.624
 11
-379.594
 21
74.2539
  0
LINE
  8
0
 10
-379.594
 20
74.2539
 11
-379.711
 21
73.8956
  0
LINE
  8
0
 10
-379.711
 20
73.8956
 11
-379.871
 21
73.5547
  0
LINE
  8
0
 10
-379.871
 20
73.5547
 11
-380.073
 21
73.2366
  0
LINE
  8
0
 10
-380.073
 20
73.2366
 11
-380.313
 21
72.9464
  0
LINE
  8
0
 10
-380.313
 20
72.9464
 11
-380.588
 21
72.6885
  0
LINE
  8
0
 10
-380.588
 20
72.6885
 11
-380.893
 21
72.467
  0
LINE
  8
0
 10
-380.893
 20
72.467
 11
-381.223
 21
72.2855
  0
LINE
  8
0
 10
-381.223
 20
72.2855
 11
-381.573
 21
72.1468
  0
LINE
  8
0
 10
-381.573
 20
72.1468
 11
-381.938
 21
72.0531
  0
LINE
  8
0
 10
-381.938
 20
72.0531
 11
-382.312
 21
72.0059
  0
LINE
  8
0
 10
-382.312
 20
72.0059
 11
-382.688
 21
72.0059
  0
LINE
  8
0
 10
382.312
 20
72.0059
 11
381.938
 21
72.0531
  0
LINE
  8
0
 10
381.938
 20
72.0531
 11
381.573
 21
72.1468
  0
LINE
  8
0
 10
381.573
 20
72.1468
 11
381.223
 21
72.2855
  0
LINE
  8
0
 10
381.223
 20
72.2855
 11
380.893
 21
72.467
  0
LINE
  8
0
 10
380.893
 20
72.467
 11
380.588
 21
72.6885
  0
LINE
  8
0
 10
380.588
 20
72.6885
 11
380.313
 21
72.9464
  0
LINE
  8
0
 10
380.313
 20
72.9464
 11
380.073
 21
73.2366
  0
LINE
  8
0
 10
380.073
 20
73.2366
 11
379.871
 21
73.5547
  0
LINE
  8
0
 10
379.871
 20
73.5547
 11
379.711
 21
73.8956
  0
LINE
  8
0
 10
379.711
 20
73.8956
 11
379.594
 21
74.2539
  0
LINE
  8
0
 10
379.594
 20
74.2539
 11
379.524
 21
74.624
  0
LINE
  8
0
 10
379.524
 20
74.624
 11
379.5
 21
75
  0
LINE
  8
0
 10
379.5
 20
75
 11
379.524
 21
75.376
  0
LINE
  8
0
 10
379.524
 20
75.376
 11
379.594
 21
75.7461
  0
LINE
  8
0
 10
379.594
 20
75.7461
 11
379.711
 21
76.1044
  0
LINE
  8
0
 10
379.711
 20
76.1044
 11
379.871
 21
76.4453
  0
LINE
  8
0
 10
379.871
 20
76.4453
 11
380.073
 21
76.7634
  0
LINE
  8
0
 10
380.073
 20
76.7634
 11
380.313
 21
77.0536
  0
LINE
  8
0
 10
380.313
 20
77.0536
 11
380.588
 21
77.3115
  0
LINE
  8
0
 10
380.588
 20
77.3115
 11
380.893
 21
77.533
  0
LINE
  8
0
 10
380.893
 20
77.533
 11
381.223
 21
77.7145
  0
LINE
  8
0
 10
381.223
 20
77.7145
 11
381.573
 21
77.8532
  0
LINE
  8
0
 10
381.573
 20
77.8532
 11
381.938
 21
77.9469
  0
LINE
  8
0
 10
381.938
 20
77.9469
 11
382.312
 21
77.9941
  0
LINE
  8
0
 10
382.312
 20
77.9941
 11
382.688
 21
77.9941
  0
LINE
  8
0
 10
382.688
 20
77.9941
 11
383.062
 21
77.9469
  0
LINE
  8
0
 10
383.062
 20
77.9469
 11
383.427
 21
77.8532
  0
LINE
  8
0
 10
383.427
 20
77.8532
 11
383.777
 21
77.7145
  0
LINE
  8
0
 10
383.777
 20
77.7145
 11
384.107
 21
77.533
  0
LINE
  8
0
 10
384.107
 20
77.533
 11
384.412
 21
77.3115
  0
LINE
  8
0
 10
384.412
 20
77.3115
 11
384.687
 21
77.0536
  0
LINE
  8
0
 10
384.687
 20
77.0536
 11
384.927
 21
76.7634
  0
LINE
  8
0
 10
384.927
 20
76.7634
 11
385.129
 21
76.4453
  0
LINE
  8
0
 10
385.129
 20
76.4453
 11
385.289
 21
76.1044
  0
LINE
  8
0
 10
385.289
 20
76.1044
 11
385.406
 21
75.7461
  0
LINE
  8
0
 10
385.406
 20
75.7461
 11
385.476
 21
75.376
  0
LINE
  8
0
 10
385.476
 20
75.376
 11
385.5
 21
75
  0
LINE
  8
0
 10
385.5
 20
75
 11
385.476
 21
74.624
  0
LINE
  8
0
 10
385.476
 20
74.624
 11
385.406
 21
74.2539
  0
LINE
  8
0
 10
385.406
 20
74.2539
 11
385.289
 21
73.8956
  0
LINE
  8
0
 10
385.289
 20
73.8956
 11
385.129
 21
73.5547
  0
LINE
  8
0
 10
385.129
 20
73.5547
 11
384.927
 21
73.2366
  0
LINE
  8
0
 10
384.927
 20
73.2366
 11
384.687
 21
72.9464
  0
LINE
  8
0
 10
384.687
 20
72.9464
 11
384.412
 21
72.6885
  0
LINE
  8
0
 10
384.412
 20
72.6885
 11
384.107
 21
72.467
  0
LINE
  8
0
 10
384.107
 20
72.467
 11
383.777
 21
72.2855
  0
LINE
  8
0
 10
383.777
 20
72.2855
 11
383.427
 21
72.1468
  0
LINE
  8
0
 10
383.427
 20
72.1468
 11
383.062
 21
72.0531
  0
LINE
  8
0
 10
383.062
 20
72.0531
 11
382.688
 21
72.0059
  0
LINE
  8
0
 10
382.688
 20
72.0059
 11
382.312
 21
72.0059
  0
LINE
  8
0
 10
145.448
 20
-72.3569
 11
136.415
 21
-71.2158
  0
LINE
  8
0
 10
136.415
 20
-71.2158
 11
127.596
 21
-68.9516
  0
LINE
  8
0
 10
127.596
 20
-68.9516
 11
119.131
 21
-65.6
  0
LINE
  8
0
 10
119.131
 20
-65.6
 11
111.153
 21
-61.2138
  0
LINE
  8
0
 10
111.153
 20
-61.2138
 11
103.787
 21
-55.8622
  0
LINE
  8
0
 10
103.787
 20
-55.8622
 11
97.1498
 21
-49.6297
  0
LINE
  8
0
 10
97.1498
 20
-49.6297
 11
91.3463
 21
-42.6144
  0
LINE
  8
0
 10
91.3463
 20
-42.6144
 11
86.4678
 21
-34.9271
  0
LINE
  8
0
 10
86.4678
 20
-34.9271
 11
82.5912
 21
-26.689
  0
LINE
  8
0
 10
82.5912
 20
-26.689
 11
79.7777
 21
-18.03
  0
LINE
  8
0
 10
79.7777
 20
-18.03
 11
78.0717
 21
-9.08665
  0
LINE
  8
0
 10
78.0717
 20
-9.08665
 11
77.5
 21
0
  0
LINE
  8
0
 10
77.5
 20
0
 11
78.0717
 21
9.08665
  0
LINE
  8
0
 10
78.0717
 20
9.08665
 11
79.7777
 21
18.03
  0
LINE
  8
0
 10
79.7777
 20
18.03
 11
82.5912
 21
26.689
  0
LINE
  8
0
 10
82.5912
 20
26.689
 11
86.4678
 21
34.9271
  0
LINE
  8
0
 10
86.4678
 20
34.9271
 11
91.3463
 21
42.6144
  0
LINE
  8
0
 10
91.3463
 20
42.6144
 11
97.1498
 21
49.6297
  0
LINE
  8
0
 10
97.1498
 20
49.6297
 11
103.787
 21
55.8622
  0
LINE
  8
0
 10
103.787
 20
55.8622
 11
111.153
 21
61.2138
  0
LINE
  8
0
 10
111.153
 20
61.2138
 11
119.131
 21
65.6
  0
LINE
  8
0
 10
119.131
 20
65.6
 11
127.596
 21
68.9516
  0
LINE
  8
0
 10
127.596
 20
68.9516
 11
136.415
 21
71.2158
  0
LINE
  8
0
 10
136.415
 20
71.2158
 11
145.448
 21
72.3569
  0
LINE
  8
0
 10
145.448
 20
72.3569
 11
154.552
 21
72.3569
  0
LINE
  8
0
 10
154.552
 20
72.3569
 11
163.585
 21
71.2158
  0
LINE
  8
0
 10
163.585
 20
71.2158
 11
172.404
 21
68.9516
  0
LINE
  8
0
 10
172.404
 20
68.9516
 11
180.869
 21
65.6
  0
LINE
  8
0
 10
180.869
 20
65.6
 11
188.847
 21
61.2138
  0
LINE
  8
0
 10
188.847
 20
61.2138
 11
196.213
 21
55.8622
  0
LINE
  8
0
 10
196.213
 20
55.8622
 11
202.85
 21
49.6297
  0
LINE
  8
0
 10
202.85
 20
49.6297
 11
208.654
 21
42.6144
  0
LINE
  8
0
 10
208.654
 20
42.6144
 11
213.532
 21
34.9271
  0
LINE
  8
0
 10
213.532
 20
34.9271
 11
217.409
 21
26.689
  0
LINE
  8
0
 10
217.409
 20
26.689
 11
220.222
 21
18.03
  0
LINE
  8
0
 10
220.222
 20
18.03
 11
221.928
 21
9.08665
  0
LINE
  8
0
 10
221.928
 20
9.08665
 11
222.5
 21
0
  0
LINE
  8
0
 10
222.5
 20
0
 11
221.928
 21
-9.08665
  0
LINE
  8
0
 10
221.928
 20
-9.08665
 11
220.222
 21
-18.03
  0
LINE
  8
0
 10
220.222
 20
-18.03
 11
217.409
 21
-26.689
  0
LINE
  8
0
 10
217.409
 20
-26.689
 11
213.532
 21
-34.9271
  0
LINE
  8
0
 10
213.532
 20
-34.9271
 11
208.654
 21
-42.6144
  0
LINE
  8
0
 10
208.654
 20
-42.6144
 11
202.85
 21
-49.6297
  0
LINE
  8
0
 10
202.85
 20
-49.6297
 11
196.213
 21
-55.8622
  0
LINE
  8
0
 10
196.213
 20
-55.8622
 11
188.847
 21
-61.2138
  0
LINE
  8
0
 10
188.847
 20
-61.2138
 11
180.869
 21
-65.6
  0
LINE
  8
0
 10
180.869
 20
-65.6
 11
172.404
 21
-68.9516
  0
LINE
  8
0
 10
172.404
 20
-68.9516
 11
163.585
 21
-71.2158
  0
LINE
  8
0
 10
163.585
 20
-71.2158
 11
154.552
 21
-72.3569
  0
LINE
  8
0
 10
154.552
 20
-72.3569
 11
145.448
 21
-72.3569
  0
LINE
  8
0
 10
-4.55231
 20
-72.3569
 11
-13.5851
 21
-71.2158
  0
LINE
  8
0
 10
-13.5851
 20
-71.2158
 11
-22.4037
 21
-68.9516
  0
LINE
  8
0
 10
-22.4037
 20
-68.9516
 11
-30.869
 21
-65.6
  0
LINE
  8
0
 10
-30.869
 20
-65.6
 11
-38.8474
 21
-61.2138
  0
LINE
  8
0
 10
-38.8474
 20
-61.2138
 11
-46.2132
 21
-55.8622
  0
LINE
  8
0
 10
-46.2132
 20
-55.8622
 11
-52.8502
 21
-49.6297
  0
LINE
  8
0
 10
-52.8502
 20
-49.6297
 11
-58.6537
 21
-42.6144
  0
LINE
  8
0
 10
-58.6537
 20
-42.6144
 11
-63.5322
 21
-34.9271
  0
LINE
  8
0
 10
-63.5322
 20
-34.9271
 11
-67.4088
 21
-26.689
  0
LINE
  8
0
 10
-67.4088
 20
-26.689
 11
-70.2223
 21
-18.03
  0
LINE
  8
0
 10
-70.2223
 20
-18.03
 11
-71.9283
 21
-9.08665
  0
LINE
  8
0
 10
-71.9283
 20
-9.08665
 11
-72.5
 21
0
  0
LINE
  8
0
 10
-72.5
 20
0
 11
-71.9283
 21
9.08665
  0
LINE
  8
0
 10
-71.9283
 20
9.08665
 11
-70.2223
 21
18.03
  0
LINE
  8
0
 10
-70.2223
 20
18.03
 11
-67.4088
 21
26.689
  0
LINE
  8
0
 10
-67.4088
 20
26.689
 11
-63.5322
 21
34.9271
  0
LINE
  8
0
 10
-63.5322
 20
34.9271
 11
-58.6537
 21
42.6144
  0
LINE
  8
0
 10
-58.6537
 20
42.6144
 11
-52.8502
 21
49.6297
  0
LINE
  8
0
 10
-52.8502
 20
49.6297
 11
-46.2132
 21
55.8622
  0
LINE
  8
0
 10
-46.2132
 20
55.8622
 11
-38.8474
 21
61.2138
  0
LINE
  8
0
 10
-38.8474
 20
61.2138
 11
-30.869
 21
65.6
  0
LINE
  8
0
 10
-30.869
 20
65.6
 11
-22.4037
 21
68.9516
  0
LINE
  8
0
 10
-22.4037
 20
68.9516
 11
-13.5851
 21
71.2158
  0
LINE
  8
0
 10
-13.5851
 20
71.2158
 11
-4.55231
 21
72.3569
  0
LINE
  8
0
 10
-4.55231
 20
72.3569
 11
4.55231
 21
72.3569
  0
LINE
  8
0
 10
4.55231
 20
72.3569
 11
13.5851
 21
71.2158
  0
LINE
  8
0
 10
13.5851
 20
71.2158
 11
22.4037
 21
68.9516
  0
LINE
  8
0
 10
22.4037
 20
68.9516
 11
30.869
 21
65.6
  0
LINE
  8
0
 10
30.869
 20
65.6
 11
38.8474
 21
61.2138
  0
LINE
  8
0
 10
38.8474
 20
61.2138
 11
46.2132
 21
55.8622
  0
LINE
  8
0
 10
46.2132
 20
55.8622
 11
52.8502
 21
49.6297
  0
LINE
  8
0
 10
52.8502
 20
49.6297
 11
58.6537
 21
42.6144
  0
LINE
  8
0
 10
58.6537
 20
42.6144
 11
63.5322
 21
34.9271
  0
LINE
  8
0
 10
63.5322
 20
34.9271
 11
67.4088
 21
26.689
  0
LINE
  8
0
 10
67.4088
 20
26.689
 11
70.2223
 21
18.03
  0
LINE
  8
0
 10
70.2223
 20
18.03
 11
71.9283
 21
9.08665
  0
LINE
  8
0
 10
71.9283
 20
9.08665
 11
72.5
 21
0
  0
LINE
  8
0
 10
72.5
 20
0
 11
71.9283
 21
-9.08665
  0
LINE
  8
0
 10
71.9283
 20
-9.08665
 11
70.2223
 21
-18.03
  0
LINE
  8
0
 10
70.2223
 20
-18.03
 11
67.4088
 21
-26.689
  0
LINE
  8
0
 10
67.4088
 20
-26.689
 11
63.5322
 21
-34.9271
  0
LINE
  8
0
 10
63.5322
 20
-34.9271
 11
58.6537
 21
-42.6144
  0
LINE
  8
0
 10
58.6537
 20
-42.6144
 11
52.8502
 21
-49.6297
  0
LINE
  8
0
 10
52.8502
 20
-49.6297
 11
46.2132
 21
-55.8622
  0
LINE
  8
0
 10
46.2132
 20
-55.8622
 11
38.8474
 21
-61.2138
  0
LINE
  8
0
 10
38.8474
 20
-61.2138
 11
30.869
 21
-65.6
  0
LINE
  8
0
 10
30.869
 20
-65.6
 11
22.4037
 21
-68.9516
  0
LINE
  8
0
 10
22.4037
 20
-68.9516
 11
13.5851
 21
-71.2158
  0
LINE
  8
0
 10
13.5851
 20
-71.2158
 11
4.55231
 21
-72.3569
  0
LINE
  8
0
 10
4.55231
 20
-72.3569
 11
-4.55231
 21
-72.3569
  0
LINE
  8
0
 10
-304.552
 20
-72.3569
 11
-313.585
 21
-71.2158
  0
LINE
  8
0
 10
-313.585
 20
-71.2158
 11
-322.404
 21
-68.9516
  0
LINE
  8
0
 10
-322.404
 20
-68.9516
 11
-330.869
 21
-65.6
  0
LINE
  8
0
 10
-330.869
 20
-65.6
 11
-338.847
 21
-61.2138
  0
LINE
  8
0
 10
-338.847
 20
-61.2138
 11
-346.213
 21
-55.8622
  0
LINE
  8
0
 10
-346.213
 20
-55.8622
 11
-352.85
 21
-49.6297
  0
LINE
  8
0
 10
-352.85
 20
-49.6297
 11
-358.654
 21
-42.6144
  0
LINE
  8
0
 10
-358.654
 20
-42.6144
 11
-363.532
 21
-34.9271
  0
LINE
  8
0
 10
-363.532
 20
-34.9271
 11
-367.409
 21
-26.689
  0
LINE
  8
0
 10
-367.409
 20
-26.689
 11
-370.222
 21
-18.03
  0
LINE
  8
0
 10
-370.222
 20
-18.03
 11
-371.928
 21
-9.08665
  0
LINE
  8
0
 10
-371.928
 20
-9.08665
 11
-372.5
 21
0
  0
LINE
  8
0
 10
-372.5
 20
0
 11
-371.928
 21
9.08665
  0
LINE
  8
0
 10
-371.928
 20
9.08665
 11
-370.222
 21
18.03
  0
LINE
  8
0
 10
-370.222
 20
18.03
 11
-367.409
 21
26.689
  0
LINE
  8
0
 10
-367.409
 20
26.689
 11
-363.532
 21
34.9271
  0
LINE
  8
0
 10
-363.532
 20
34.9271
 11
-358.654
 21
42.6144
  0
LINE
  8
0
 10
-358.654
 20
42.6144
 11
-352.85
 21
49.6297
  0
LINE
  8
0
 10
-352.85
 20
49.6297
 11
-346.213
 21
55.8622
  0
LINE
  8
0
 10
-346.213
 20
55.8622
 11
-338.847
 21
61.2138
  0
LINE
  8
0
 10
-338.847
 20
61.2138
 11
-330.869
 21
65.6
  0
LINE
  8
0
 10
-330.869
 20
65.6
 11
-322.404
 21
68.9516
  0
LINE
  8
0
 10
-322.404
 20
68.9516
 11
-313.585
 21
71.2158
  0
LINE
  8
0
 10
-313.585
 20
71.2158
 11
-304.552
 21
72.3569
  0
LINE
  8
0
 10
-304.552
 20
72.3569
 11
-295.448
 21
72.3569
  0
LINE
  8
0
 10
-295.448
 20
72.3569
 11
-286.415
 21
71.2158
  0
LINE
  8
0
 10
-286.415
 20
71.2158
 11
-277.596
 21
68.9516
  0
LINE
  8
0
 10
-277.596
 20
68.9516
 11
-269.131
 21
65.6
  0
LINE
  8
0
 10
-269.131
 20
65.6
 11
-261.153
 21
61.2138
  0
LINE
  8
0
 10
-261.153
 20
61.2138
 11
-253.787
 21
55.8622
  0
LINE
  8
0
 10
-253.787
 20
55.8622
 11
-247.15
 21
49.6297
  0
LINE
  8
0
 10
-247.15
 20
49.6297
 11
-241.346
 21
42.6144
  0
LINE
  8
0
 10
-241.346
 20
42.6144
 11
-236.468
 21
34.9271
  0
LINE
  8
0
 10
-236.468
 20
34.9271
 11
-232.591
 21
26.689
  0
LINE
  8
0
 10
-232.591
 20
26.689
 11
-229.778
 21
18.03
  0
LINE
  8
0
 10
-229.778
 20
18.03
 11
-228.072
 21
9.08665
  0
LINE
  8
0
 10
-228.072
 20
9.08665
 11
-227.5
 21
0
  0
LINE
  8
0
 10
-227.5
 20
0
 11
-228.072
 21
-9.08665
  0
LINE
  8
0
 10
-228.072
 20
-9.08665
 11
-229.778
 21
-18.03
  0
LINE
  8
0
 10
-229.778
 20
-18.03
 11
-232.591
 21
-26.689
  0
LINE
  8
0
 10
-232.591
 20
-26.689
 11
-236.468
 21
-34.9271
  0
LINE
  8
0
 10
-236.468
 20
-34.9271
 11
-241.346
 21
-42.6144
  0
LINE
  8
0
 10
-241.346
 20
-42.6144
 11
-247.15
 21
-49.6297
  0
LINE
  8
0
 10
-247.15
 20
-49.6297
 11
-253.787
 21
-55.8622
  0
LINE
  8
0
 10
-253.787
 20
-55.8622
 11
-261.153
 21
-61.2138
  0
LINE
  8
0
 10
-261.153
 20
-61.2138
 11
-269.131
 21
-65.6
  0
LINE
  8
0
 10
-269.131
 20
-65.6
 11
-277.596
 21
-68.9516
  0
LINE
  8
0
 10
-277.596
 20
-68.9516
 11
-286.415
 21
-71.2158
  0
LINE
  8
0
 10
-286.415
 20
-71.2158
 11
-295.448
 21
-72.3569
  0
LINE
  8
0
 10
-295.448
 20
-72.3569
 11
-304.552
 21
-72.3569
  0
LINE
  8
0
 10
-154.552
 20
-72.3569
 11
-163.585
 21
-71.2158
  0
LINE
  8
0
 10
-163.585
 20
-71.2158
 11
-172.404
 21
-68.9516
  0
LINE
  8
0
 10
-172.404
 20
-68.9516
 11
-180.869
 21
-65.6
  0
LINE
  8
0
 10
-180.869
 20
-65.6
 11
-188.847
 21
-61.2138
  0
LINE
  8
0
 10
-188.847
 20
-61.2138
 11
-196.213
 21
-55.8622
  0
LINE
  8
0
 10
-196.213
 20
-55.8622
 11
-202.85
 21
-49.6297
  0
LINE
  8
0
 10
-202.85
 20
-49.6297
 11
-208.654
 21
-42.6144
  0
LINE
  8
0
 10
-208.654
 20
-42.6144
 11
-213.532
 21
-34.9271
  0
LINE
  8
0
 10
-213.532
 20
-34.9271
 11
-217.409
 21
-26.689
  0
LINE
  8
0
 10
-217.409
 20
-26.689
 11
-220.222
 21
-18.03
  0
LINE
  8
0
 10
-220.222
 20
-18.03
 11
-221.928
 21
-9.08665
  0
LINE
  8
0
 10
-221.928
 20
-9.08665
 11
-222.5
 21
0
  0
LINE
  8
0
 10
-222.5
 20
0
 11
-221.928
 21
9.08665
  0
LINE
  8
0
 10
-221.928
 20
9.08665
 11
-220.222
 21
18.03
  0
LINE
  8
0
 10
-220.222
 20
18.03
 11
-217.409
 21
26.689
  0
LINE
  8
0
 10
-217.409
 20
26.689
 11
-213.532
 21
34.9271
  0
LINE
  8
0
 10
-213.532
 20
34.9271
 11
-208.654
 21
42.6144
  0
LINE
  8
0
 10
-208.654
 20
42.6144
 11
-202.85
 21
49.6297
  0
LINE
  8
0
 10
-202.85
 20
49.6297
 11
-196.213
 21
55.8622
  0
LINE
  8
0
 10
-196.213
 20
55.8622
 11
-188.847
 21
61.2138
  0
LINE
  8
0
 10
-188.847
 20
61.2138
 11
-180.869
 21
65.6
  0
LINE
  8
0
 10
-180.869
 20
65.6
 11
-172.404
 21
68.9516
  0
LINE
  8
0
 10
-172.404
 20
68.9516
 11
-163.585
 21
71.2158
  0
LINE
  8
0
 10
-163.585
 20
71.2158
 11
-154.552
 21
72.3569
  0
LINE
  8
0
 10
-154.552
 20
72.3569
 11
-145.448
 21
72.3569
  0
LINE
  8
0
 10
-145.448
 20
72.3569
 11
-136.415
 21
71.2158
  0
LINE
  8
0
 10
-136.415
 20
71.2158
 11
-127.596
 21
68.9516
  0
LINE
  8
0
 10
-127.596
 20
68.9516
 11
-119.131
 21
65.6
  0
LINE
  8
0
 10
-119.131
 20
65.6
 11
-111.153
 21
61.2138
  0
LINE
  8
0
 10
-111.153
 20
61.2138
 11
-103.787
 21
55.8622
  0
LINE
  8
0
 10
-103.787
 20
55.8622
 11
-97.1498
 21
49.6297
  0
LINE
  8
0
 10
-97.1498
 20
49.6297
 11
-91.3463
 21
42.6144
  0
LINE
  8
0
 10
-91.3463
 20
42.6144
 11
-86.4678
 21
34.9271
  0
LINE
  8
0
 10
-86.4678
 20
34.9271
 11
-82.5912
 21
26.689
  0
LINE
  8
0
 10
-82.5912
 20
26.689
 11
-79.7777
 21
18.03
  0
LINE
  8
0
 10
-79.7777
 20
18.03
 11
-78.0717
 21
9.08665
  0
LINE
  8
0
 10
-78.0717
 20
9.08665
 11
-77.5
 21
0
  0
LINE
  8
0
 10
-77.5
 20
0
 11
-78.0717
 21
-9.08665
  0
LINE
  8
0
 10
-78.0717
 20
-9.08665
 11
-79.7777
 21
-18.03
  0
LINE
  8
0
 10
-79.7777
 20
-18.03
 11
-82.5912
 21
-26.689
  0
LINE
  8
0
 10
-82.5912
 20
-26.689
 11
-86.4678
 21
-34.9271
  0
LINE
  8
0
 10
-86.4678
 20
-34.9271
 11
-91.3463
 21
-42.6144
  0
LINE
  8
0
 10
-91.3463
 20
-42.6144
 11
-97.1498
 21
-49.6297
  0
LINE
  8
0
 10
-97.1498
 20
-49.6297
 11
-103.787
 21
-55.8622
  0
LINE
  8
0
 10
-103.787
 20
-55.8622
 11
-111.153
 21
-61.2138
  0
LINE
  8
0
 10
-111.153
 20
-61.2138
 11
-119.131
 21
-65.6
  0
LINE
  8
0
 10
-119.131
 20
-65.6
 11
-127.596
 21
-68.9516
  0
LINE
  8
0
 10
-127.596
 20
-68.9516
 11
-136.415
 21
-71.2158
  0
LINE
  8
0
 10
-136.415
 20
-71.2158
 11
-145.448
 21
-72.3569
  0
LINE
  8
0
 10
-145.448
 20
-72.3569
 11
-154.552
 21
-72.3569
  0
LINE
  8
0
 10
295.448
 20
-72.3569
 11
286.415
 21
-71.2158
  0
LINE
  8
0
 10
286.415
 20
-71.2158
 11
277.596
 21
-68.9516
  0
LINE
  8
0
 10
277.596
 20
-68.9516
 11
269.131
 21
-65.6
  0
LINE
  8
0
 10
269.131
 20
-65.6
 11
261.153
 21
-61.2138
  0
LINE
  8
0
 10
261.153
 20
-61.2138
 11
253.787
 21
-55.8622
  0
LINE
  8
0
 10
253.787
 20
-55.8622
 11
247.15
 21
-49.6297
  0
LINE
  8
0
 10
247.15
 20
-49.6297
 11
241.346
 21
-42.6144
  0
LINE
  8
0
 10
241.346
 20
-42.6144
 11
236.468
 21
-34.9271
  0
LINE
  8
0
 10
236.468
 20
-34.9271
 11
232.591
 21
-26.689
  0
LINE
  8
0
 10
232.591
 20
-26.689
 11
229.778
 21
-18.03
  0
LINE
  8
0
 10
229.778
 20
-18.03
 11
228.072
 21
-9.08665
  0
LINE
  8
0
 10
228.072
 20
-9.08665
 11
227.5
 21
0
  0
LINE
  8
0
 10
227.5
 20
0
 11
228.072
 21
9.08665
  0
LINE
  8
0
 10
228.072
 20
9.08665
 11
229.778
 21
18.03
  0
LINE
  8
0
 10
229.778
 20
18.03
 11
232.591
 21
26.689
  0
LINE
  8
0
 10
232.591
 20
26.689
 11
236.468
 21
34.9271
  0
LINE
  8
0
 10
236.468
 20
34.9271
 11
241.346
 21
42.6144
  0
LINE
  8
0
 10
241.346
 20
42.6144
 11
247.15
 21
49.6297
  0
LINE
  8
0
 10
247.15
 20
49.6297
 11
253.787
 21
55.8622
  0
LINE
  8
0
 10
253.787
 20
55.8622
 11
261.153
 21
61.2138
  0
LINE
  8
0
 10
261.153
 20
61.2138
 11
269.131
 21
65.6
  0
LINE
  8
0
 10
269.131
 20
65.6
 11
277.596
 21
68.9516
  0
LINE
  8
0
 10
277.596
 20
68.9516
 11
286.415
 21
71.2158
  0
LINE
  8
0
 10
286.415
 20
71.2158
 11
295.448
 21
72.3569
  0
LINE
  8
0
 10
295.448
 20
72.3569
 11
304.552
 21
72.3569
  0
LINE
  8
0
 10
304.552
 20
72.3569
 11
313.585
 21
71.2158
  0
LINE
  8
0
 10
313.585
 20
71.2158
 11
322.404
 21
68.9516
  0
LINE
  8
0
 10
322.404
 20
68.9516
 11
330.869
 21
65.6
  0
LINE
  8
0
 10
330.869
 20
65.6
 11
338.847
 21
61.2138
  0
LINE
  8
0
 10
338.847
 20
61.2138
 11
346.213
 21
55.8622
  0
LINE
  8
0
 10
346.213
 20
55.8622
 11
352.85
 21
49.6297
  0
LINE
  8
0
 10
352.85
 20
49.6297
 11
358.654
 21
42.6144
  0
LINE
  8
0
 10
358.654
 20
42.6144
 11
363.532
 21
34.9271
  0
LINE
  8
0
 10
363.532
 20
34.9271
 11
367.409
 21
26.689
  0
LINE
  8
0
 10
367.409
 20
26.689
 11
370.222
 21
18.03
  0
LINE
  8
0
 10
370.222
 20
18.03
 11
371.928
 21
9.08665
  0
LINE
  8
0
 10
371.928
 20
9.08665
 11
372.5
 21
0
  0
LINE
  8
0
 10
372.5
 20
0
 11
371.928
 21
-9.08665
  0
LINE
  8
0
 10
371.928
 20
-9.08665
 11
370.222
 21
-18.03
  0
LINE
  8
0
 10
370.222
 20
-18.03
 11
367.409
 21
-26.689
  0
LINE
  8
0
 10
367.409
 20
-26.689
 11
363.532
 21
-34.9271
  0
LINE
  8
0
 10
363.532
 20
-34.9271
 11
358.654
 21
-42.6144
  0
LINE
  8
0
 10
358.654
 20
-42.6144
 11
352.85
 21
-49.6297
  0
LINE
  8
0
 10
352.85
 20
-49.6297
 11
346.213
 21
-55.8622
  0
LINE
  8
0
 10
346.213
 20
-55.8622
 11
338.847
 21
-61.2138
  0
LINE
  8
0
 10
338.847
 20
-61.2138
 11
330.869
 21
-65.6
  0
LINE
  8
0
 10
330.869
 20
-65.6
 11
322.404
 21
-68.9516
  0
LINE
  8
0
 10
322.404
 20
-68.9516
 11
313.585
 21
-71.2158
  0
LINE
  8
0
 10
313.585
 20
-71.2158
 11
304.552
 21
-72.3569
  0
LINE
  8
0
 10
304.552
 20
-72.3569
 11
295.448
 21
-72.3569
  0
LINE
  8
0
 10
-382.594
 20
66.003
 11
-382.781
 21
66.0266
  0
LINE
  8
0
 10
-382.781
 20
66.0266
 11
-382.964
 21
66.0734
  0
LINE
  8
0
 10
-382.964
 20
66.0734
 11
-383.139
 21
66.1428
  0
LINE
  8
0
 10
-383.139
 20
66.1428
 11
-383.304
 21
66.2335
  0
LINE
  8
0
 10
-383.304
 20
66.2335
 11
-383.456
 21
66.3442
  0
LINE
  8
0
 10
-383.456
 20
66.3442
 11
-383.593
 21
66.4732
  0
LINE
  8
0
 10
-383.593
 20
66.4732
 11
-383.714
 21
66.6183
  0
LINE
  8
0
 10
-383.714
 20
66.6183
 11
-383.814
 21
66.7774
  0
LINE
  8
0
 10
-383.814
 20
66.7774
 11
-383.895
 21
66.9478
  0
LINE
  8
0
 10
-383.895
 20
66.9478
 11
-383.953
 21
67.127
  0
LINE
  8
0
 10
-383.953
 20
67.127
 11
-383.988
 21
67.312
  0
LINE
  8
0
 10
-383.988
 20
67.312
 11
-384
 21
67.5
  0
LINE
  8
0
 10
-384
 20
67.5
 11
-383.988
 21
67.688
  0
LINE
  8
0
 10
-383.988
 20
67.688
 11
-383.953
 21
67.873
  0
LINE
  8
0
 10
-383.953
 20
67.873
 11
-383.895
 21
68.0522
  0
LINE
  8
0
 10
-383.895
 20
68.0522
 11
-383.814
 21
68.2226
  0
LINE
  8
0
 10
-383.814
 20
68.2226
 11
-383.714
 21
68.3817
  0
LINE
  8
0
 10
-383.714
 20
68.3817
 11
-383.593
 21
68.5268
  0
LINE
  8
0
 10
-383.593
 20
68.5268
 11
-383.456
 21
68.6558
  0
LINE
  8
0
 10
-383.456
 20
68.6558
 11
-383.304
 21
68.7665
  0
LINE
  8
0
 10
-383.304
 20
68.7665
 11
-383.139
 21
68.8572
  0
LINE
  8
0
 10
-383.139
 20
68.8572
 11
-382.964
 21
68.9266
  0
LINE
  8
0
 10
-382.964
 20
68.9266
 11
-382.781
 21
68.9734
  0
LINE
  8
0
 10
-382.781
 20
68.9734
 11
-382.594
 21
68.997
  0
LINE
  8
0
 10
-382.594
 20
68.997
 11
-382.406
 21
68.997
  0
LINE
  8
0
 10
-382.406
 20
68.997
 11
-382.219
 21
68.9734
  0
LINE
  8
0
 10
-382.219
 20
68.9734
 11
-382.036
 21
68.9266
  0
LINE
  8
0
 10
-382.036
 20
68.9266
 11
-381.861
 21
68.8572
  0
LINE
  8
0
 10
-381.861
 20
68.8572
 11
-381.696
 21
68.7665
  0
LINE
  8
0
 10
-381.696
 20
68.7665
 11
-381.544
 21
68.6558
  0
LINE
  8
0
 10
-381.544
 20
68.6558
 11
-381.407
 21
68.5268
  0
LINE
  8
0
 10
-381.407
 20
68.5268
 11
-381.286
 21
68.3817
  0
LINE
  8
0
 10
-381.286
 20
68.3817
 11
-381.186
 21
68.2226
  0
LINE
  8
0
 10
-381.186
 20
68.2226
 11
-381.105
 21
68.0522
  0
LINE
  8
0
 10
-381.105
 20
68.0522
 11
-381.047
 21
67.873
  0
LINE
  8
0
 10
-381.047
 20
67.873
 11
-381.012
 21
67.688
  0
LINE
  8
0
 10
-381.012
 20
67.688
 11
-381
 21
67.5
  0
LINE
  8
0
 10
-381
 20
67.5
 11
-381.012
 21
67.312
  0
LINE
  8
0
 10
-381.012
 20
67.312
 11
-381.047
 21
67.127
  0
LINE
  8
0
 10
-381.047
 20
67.127
 11
-381.105
 21
66.9478
  0
LINE
  8
0
 10
-381.105
 20
66.9478
 11
-381.186
 21
66.7774
  0
LINE
  8
0
 10
-381.186
 20
66.7774
 11
-381.286
 21
66.6183
  0
LINE
  8
0
 10
-381.286
 20
66.6183
 11
-381.407
 21
66.4732
  0
LINE
  8
0
 10
-381.407
 20
66.4732
 11
-381.544
 21
66.3442
  0
LINE
  8
0
 10
-381.544
 20
66.3442
 11
-381.696
 21
66.2335
  0
LINE
  8
0
 10
-381.696
 20
66.2335
 11
-381.861
 21
66.1428
  0
LINE
  8
0
 10
-381.861
 20
66.1428
 11
-382.036
 21
66.0734
  0
LINE
  8
0
 10
-382.036
 20
66.0734
 11
-382.219
 21
66.0266
  0
LINE
  8
0
 10
-382.219
 20
66.0266
 11
-382.406
 21
66.003
  0
LINE
  8
0
 10
-382.406
 20
66.003
 11
-382.594
 21
66.003
  0
LINE
  8
0
 10
382.406
 20
66.003
 11
382.219
 21
66.0266
  0
LINE
  8
0
 10
382.219
 20
66.0266
 11
382.036
 21
66.0734
  0
LINE
  8
0
 10
382.036
 20
66.0734
 11
381.861
 21
66.1428
  0
LINE
  8
0
 10
381.861
 20
66.1428
 11
381.696
 21
66.2335
  0
LINE
  8
0
 10
381.696
 20
66.2335
 11
381.544
 21
66.3442
  0
LINE
  8
0
 10
381.544
 20
66.3442
 11
381.407
 21
66.4732
  0
LINE
  8
0
 10
381.407
 20
66.4732
 11
381.286
 21
66.6183
  0
LINE
  8
0
 10
381.286
 20
66.6183
 11
381.186
 21
66.7774
  0
LINE
  8
0
 10
381.186
 20
66.7774
 11
381.105
 21
66.9478
  0
LINE
  8
0
 10
381.105
 20
66.9478
 11
381.047
 21
67.127
  0
LINE
  8
0
 10
381.047
 20
67.127
 11
381.012
 21
67.312
  0
LINE
  8
0
 10
381.012
 20
67.312
 11
381
 21
67.5
  0
LINE
  8
0
 10
381
 20
67.5
 11
381.012
 21
67.688
  0
LINE
  8
0
 10
381.012
 20
67.688
 11
381.047
 21
67.873
  0
LINE
  8
0
 10
381.047
 20
67.873
 11
381.105
 21
68.0522
  0
LINE
  8
0
 10
381.105
 20
68.0522
 11
381.186
 21
68.2226
  0
LINE
  8
0
 10
381.186
 20
68.2226
 11
381.286
 21
68.3817
  0
LINE
  8
0
 10
381.286
 20
68.3817
 11
381.407
 21
68.5268
  0
LINE
  8
0
 10
381.407
 20
68.5268
 11
381.544
 21
68.6558
  0
LINE
  8
0
 10
381.544
 20
68.6558
 11
381.696
 21
68.7665
  0
LINE
  8
0
 10
381.696
 20
68.7665
 11
381.861
 21
68.8572
  0
LINE
  8
0
 10
381.861
 20
68.8572
 11
382.036
 21
68.9266
  0
LINE
  8
0
 10
382.036
 20
68.9266
 11
382.219
 21
68.9734
  0
LINE
  8
0
 10
382.219
 20
68.9734
 11
382.406
 21
68.997
  0
LINE
  8
0
 10
382.406
 20
68.997
 11
382.594
 21
68.997
  0
LINE
  8
0
 10
382.594
 20
68.997
 11
382.781
 21
68.9734
  0
LINE
  8
0
 10
382.781
 20
68.9734
 11
382.964
 21
68.9266
  0
LINE
  8
0
 10
382.964
 20
68.9266
 11
383.139
 21
68.8572
  0
LINE
  8
0
 10
383.139
 20
68.8572
 11
383.304
 21
68.7665
  0
LINE
  8
0
 10
383.304
 20
68.7665
 11
383.456
 21
68.6558
  0
LINE
  8
0
 10
383.456
 20
68.6558
 11
383.593
 21
68.5268
  0
LINE
  8
0
 10
383.593
 20
68.5268
 11
383.714
 21
68.3817
  0
LINE
  8
0
 10
383.714
 20
68.3817
 11
383.814
 21
68.2226
  0
LINE
  8
0
 10
383.814
 20
68.2226
 11
383.895
 21
68.0522
  0
LINE
  8
0
 10
383.895
 20
68.0522
 11
383.953
 21
67.873
  0
LINE
  8
0
 10
383.953
 20
67.873
 11
383.988
 21
67.688
  0
LINE
  8
0
 10
383.988
 20
67.688
 11
384
 21
67.5
  0
LINE
  8
0
 10
384
 20
67.5
 11
383.988
 21
67.312
  0
LINE
  8
0
 10
383.988
 20
67.312
 11
383.953
 21
67.127
  0
LINE
  8
0
 10
383.953
 20
67.127
 11
383.895
 21
66.9478
  0
LINE
  8
0
 10
383.895
 20
66.9478
 11
383.814
 21
66.7774
  0
LINE
  8
0
 10
383.814
 20
66.7774
 11
383.714
 21
66.6183
  0
LINE
  8
0
 10
383.714
 20
66.6183
 11
383.593
 21
66.4732
  0
LINE
  8
0
 10
383.593
 20
66.4732
 11
383.456
 21
66.3442
  0
LINE
  8
0
 10
383.456
 20
66.3442
 11
383.304
 21
66.2335
  0
LINE
  8
0
 10
383.304
 20
66.2335
 11
383.139
 21
66.1428
  0
LINE
  8
0
 10
383.139
 20
66.1428
 11
382.964
 21
66.0734
  0
LINE
  8
0
 10
382.964
 20
66.0734
 11
382.781
 21
66.0266
  0
LINE
  8
0
 10
382.781
 20
66.0266
 11
382.594
 21
66.003
  0
LINE
  8
0
 10
382.594
 20
66.003
 11
382.406
 21
66.003
  0
LINE
  8
0
 10
382.312
 20
57.0059
 11
381.938
 21
57.0531
  0
LINE
  8
0
 10
381.938
 20
57.0531
 11
381.573
 21
57.1468
  0
LINE
  8
0
 10
381.573
 20
57.1468
 11
381.223
 21
57.2855
  0
LINE
  8
0
 10
381.223
 20
57.2855
 11
380.893
 21
57.467
  0
LINE
  8
0
 10
380.893
 20
57.467
 11
380.588
 21
57.6885
  0
LINE
  8
0
 10
380.588
 20
57.6885
 11
380.313
 21
57.9464
  0
LINE
  8
0
 10
380.313
 20
57.9464
 11
380.073
 21
58.2366
  0
LINE
  8
0
 10
380.073
 20
58.2366
 11
379.871
 21
58.5547
  0
LINE
  8
0
 10
379.871
 20
58.5547
 11
379.711
 21
58.8956
  0
LINE
  8
0
 10
379.711
 20
58.8956
 11
379.594
 21
59.2539
  0
LINE
  8
0
 10
379.594
 20
59.2539
 11
379.524
 21
59.624
  0
LINE
  8
0
 10
379.524
 20
59.624
 11
379.5
 21
60
  0
LINE
  8
0
 10
379.5
 20
60
 11
379.524
 21
60.376
  0
LINE
  8
0
 10
379.524
 20
60.376
 11
379.594
 21
60.7461
  0
LINE
  8
0
 10
379.594
 20
60.7461
 11
379.711
 21
61.1044
  0
LINE
  8
0
 10
379.711
 20
61.1044
 11
379.871
 21
61.4453
  0
LINE
  8
0
 10
379.871
 20
61.4453
 11
380.073
 21
61.7634
  0
LINE
  8
0
 10
380.073
 20
61.7634
 11
380.313
 21
62.0536
  0
LINE
  8
0
 10
380.313
 20
62.0536
 11
380.588
 21
62.3115
  0
LINE
  8
0
 10
380.588
 20
62.3115
 11
380.893
 21
62.533
  0
LINE
  8
0
 10
380.893
 20
62.533
 11
381.223
 21
62.7145
  0
LINE
  8
0
 10
381.223
 20
62.7145
 11
381.573
 21
62.8532
  0
LINE
  8
0
 10
381.573
 20
62.8532
 11
381.938
 21
62.9469
  0
LINE
  8
0
 10
381.938
 20
62.9469
 11
382.312
 21
62.9941
  0
LINE
  8
0
 10
382.312
 20
62.9941
 11
382.688
 21
62.9941
  0
LINE
  8
0
 10
382.688
 20
62.9941
 11
383.062
 21
62.9469
  0
LINE
  8
0
 10
383.062
 20
62.9469
 11
383.427
 21
62.8532
  0
LINE
  8
0
 10
383.427
 20
62.8532
 11
383.777
 21
62.7145
  0
LINE
  8
0
 10
383.777
 20
62.7145
 11
384.107
 21
62.533
  0
LINE
  8
0
 10
384.107
 20
62.533
 11
384.412
 21
62.3115
  0
LINE
  8
0
 10
384.412
 20
62.3115
 11
384.687
 21
62.0536
  0
LINE
  8
0
 10
384.687
 20
62.0536
 11
384.927
 21
61.7634
  0
LINE
  8
0
 10
384.927
 20
61.7634
 11
385.129
 21
61.4453
  0
LINE
  8
0
 10
385.129
 20
61.4453
 11
385.289
 21
61.1044
  0
LINE
  8
0
 10
385.289
 20
61.1044
 11
385.406
 21
60.7461
  0
LINE
  8
0
 10
385.406
 20
60.7461
 11
385.476
 21
60.376
  0
LINE
  8
0
 10
385.476
 20
60.376
 11
385.5
 21
60
  0
LINE
  8
0
 10
385.5
 20
60
 11
385.476
 21
59.624
  0
LINE
  8
0
 10
385.476
 20
59.624
 11
385.406
 21
59.2539
  0
LINE
  8
0
 10
385.406
 20
59.2539
 11
385.289
 21
58.8956
  0
LINE
  8
0
 10
385.289
 20
58.8956
 11
385.129
 21
58.5547
  0
LINE
  8
0
 10
385.129
 20
58.5547
 11
384.927
 21
58.2366
  0
LINE
  8
0
 10
384.927
 20
58.2366
 11
384.687
 21
57.9464
  0
LINE
  8
0
 10
384.687
 20
57.9464
 11
384.412
 21
57.6885
  0
LINE
  8
0
 10
384.412
 20
57.6885
 11
384.107
 21
57.467
  0
LINE
  8
0
 10
384.107
 20
57.467
 11
383.777
 21
57.2855
  0
LINE
  8
0
 10
383.777
 20
57.2855
 11
383.427
 21
57.1468
  0
LINE
  8
0
 10
383.427
 20
57.1468
 11
383.062
 21
57.0531
  0
LINE
  8
0
 10
383.062
 20
57.0531
 11
382.688
 21
57.0059
  0
LINE
  8
0
 10
382.688
 20
57.0059
 11
382.312
 21
57.0059
  0
LINE
  8
0
 10
-382.688
 20
57.0059
 11
-383.062
 21
57.0531
  0
LINE
  8
0
 10
-383.062
 20
57.0531
 11
-383.427
 21
57.1468
  0
LINE
  8
0
 10
-383.427
 20
57.1468
 11
-383.777
 21
57.2855
  0
LINE
  8
0
 10
-383.777
 20
57.2855
 11
-384.107
 21
57.467
  0
LINE
  8
0
 10
-384.107
 20
57.467
 11
-384.412
 21
57.6885
  0
LINE
  8
0
 10
-384.412
 20
57.6885
 11
-384.687
 21
57.9464
  0
LINE
  8
0
 10
-384.687
 20
57.9464
 11
-384.927
 21
58.2366
  0
LINE
  8
0
 10
-384.927
 20
58.2366
 11
-385.129
 21
58.5547
  0
LINE
  8
0
 10
-385.129
 20
58.5547
 11
-385.289
 21
58.8956
  0
LINE
  8
0
 10
-385.289
 20
58.8956
 11
-385.406
 21
59.2539
  0
LINE
  8
0
 10
-385.406
 20
59.2539
 11
-385.476
 21
59.624
  0
LINE
  8
0
 10
-385.476
 20
59.624
 11
-385.5
 21
60
  0
LINE
  8
0
 10
-385.5
 20
60
 11
-385.476
 21
60.376
  0
LINE
  8
0
 10
-385.476
 20
60.376
 11
-385.406
 21
60.7461
  0
LINE
  8
0
 10
-385.406
 20
60.7461
 11
-385.289
 21
61.1044
  0
LINE
  8
0
 10
-385.289
 20
61.1044
 11
-385.129
 21
61.4453
  0
LINE
  8
0
 10
-385.129
 20
61.4453
 11
-384.927
 21
61.7634
  0
LINE
  8
0
 10
-384.927
 20
61.7634
 11
-384.687
 21
62.0536
  0
LINE
  8
0
 10
-384.687
 20
62.0536
 11
-384.412
 21
62.3115
  0
LINE
  8
0
 10
-384.412
 20
62.3115
 11
-384.107
 21
62.533
  0
LINE
  8
0
 10
-384.107
 20
62.533
 11
-383.777
 21
62.7145
  0
LINE
  8
0
 10
-383.777
 20
62.7145
 11
-383.427
 21
62.8532
  0
LINE
  8
0
 10
-383.427
 20
62.8532
 11
-383.062
 21
62.9469
  0
LINE
  8
0
 10
-383.062
 20
62.9469
 11
-382.688
 21
62.9941
  0
LINE
  8
0
 10
-382.688
 20
62.9941
 11
-382.312
 21
62.9941
  0
LINE
  8
0
 10
-382.312
 20
62.9941
 11
-381.938
 21
62.9469
  0
LINE
  8
0
 10
-381.938
 20
62.9469
 11
-381.573
 21
62.8532
  0
LINE
  8
0
 10
-381.573
 20
62.8532
 11
-381.223
 21
62.7145
  0
LINE
  8
0
 10
-381.223
 20
62.7145
 11
-380.893
 21
62.533
  0
LINE
  8
0
 10
-380.893
 20
62.533
 11
-380.588
 21
62.3115
  0
LINE
  8
0
 10
-380.588
 20
62.3115
 11
-380.313
 21
62.0536
  0
LINE
  8
0
 10
-380.313
 20
62.0536
 11
-380.073
 21
61.7634
  0
LINE
  8
0
 10
-380.073
 20
61.7634
 11
-379.871
 21
61.4453
  0
LINE
  8
0
 10
-379.871
 20
61.4453
 11
-379.711
 21
61.1044
  0
LINE
  8
0
 10
-379.711
 20
61.1044
 11
-379.594
 21
60.7461
  0
LINE
  8
0
 10
-379.594
 20
60.7461
 11
-379.524
 21
60.376
  0
LINE
  8
0
 10
-379.524
 20
60.376
 11
-379.5
 21
60
  0
LINE
  8
0
 10
-379.5
 20
60
 11
-379.524
 21
59.624
  0
LINE
  8
0
 10
-379.524
 20
59.624
 11
-379.594
 21
59.2539
  0
LINE
  8
0
 10
-379.594
 20
59.2539
 11
-379.711
 21
58.8956
  0
LINE
  8
0
 10
-379.711
 20
58.8956
 11
-379.871
 21
58.5547
  0
LINE
  8
0
 10
-379.871
 20
58.5547
 11
-380.073
 21
58.2366
  0
LINE
  8
0
 10
-380.073
 20
58.2366
 11
-380.313
 21
57.9464
  0
LINE
  8
0
 10
-380.313
 20
57.9464
 11
-380.588
 21
57.6885
  0
LINE
  8
0
 10
-380.588
 20
57.6885
 11
-380.893
 21
57.467
  0
LINE
  8
0
 10
-380.893
 20
57.467
 11
-381.223
 21
57.2855
  0
LINE
  8
0
 10
-381.223
 20
57.2855
 11
-381.573
 21
57.1468
  0
LINE
  8
0
 10
-381.573
 20
57.1468
 11
-381.938
 21
57.0531
  0
LINE
  8
0
 10
-381.938
 20
57.0531
 11
-382.312
 21
57.0059
  0
LINE
  8
0
 10
-382.312
 20
57.0059
 11
-382.688
 21
57.0059
  0
LINE
  8
0
 10
-382.594
 20
51.003
 11
-382.781
 21
51.0266
  0
LINE
  8
0
 10
-382.781
 20
51.0266
 11
-382.964
 21
51.0734
  0
LINE
  8
0
 10
-382.964
 20
51.0734
 11
-383.139
 21
51.1428
  0
LINE
  8
0
 10
-383.139
 20
51.1428
 11
-383.304
 21
51.2335
  0
LINE
  8
0
 10
-383.304
 20
51.2335
 11
-383.456
 21
51.3442
  0
LINE
  8
0
 10
-383.456
 20
51.3442
 11
-383.593
 21
51.4732
  0
LINE
  8
0
 10
-383.593
 20
51.4732
 11
-383.714
 21
51.6183
  0
LINE
  8
0
 10
-383.714
 20
51.6183
 11
-383.814
 21
51.7774
  0
LINE
  8
0
 10
-383.814
 20
51.7774
 11
-383.895
 21
51.9478
  0
LINE
  8
0
 10
-383.895
 20
51.9478
 11
-383.953
 21
52.127
  0
LINE
  8
0
 10
-383.953
 20
52.127
 11
-383.988
 21
52.312
  0
LINE
  8
0
 10
-383.988
 20
52.312
 11
-384
 21
52.5
  0
LINE
  8
0
 10
-384
 20
52.5
 11
-383.988
 21
52.688
  0
LINE
  8
0
 10
-383.988
 20
52.688
 11
-383.953
 21
52.873
  0
LINE
  8
0
 10
-383.953
 20
52.873
 11
-383.895
 21
53.0522
  0
LINE
  8
0
 10
-383.895
 20
53.0522
 11
-383.814
 21
53.2226
  0
LINE
  8
0
 10
-383.814
 20
53.2226
 11
-383.714
 21
53.3817
  0
LINE
  8
0
 10
-383.714
 20
53.3817
 11
-383.593
 21
53.5268
  0
LINE
  8
0
 10
-383.593
 20
53.5268
 11
-383.456
 21
53.6558
  0
LINE
  8
0
 10
-383.456
 20
53.6558
 11
-383.304
 21
53.7665
  0
LINE
  8
0
 10
-383.304
 20
53.7665
 11
-383.139
 21
53.8572
  0
LINE
  8
0
 10
-383.139
 20
53.8572
 11
-382.964
 21
53.9266
  0
LINE
  8
0
 10
-382.964
 20
53.9266
 11
-382.781
 21
53.9734
  0
LINE
  8
0
 10
-382.781
 20
53.9734
 11
-382.594
 21
53.997
  0
LINE
  8
0
 10
-382.594
 20
53.997
 11
-382.406
 21
53.997
  0
LINE
  8
0
 10
-382.406
 20
53.997
 11
-382.219
 21
53.9734
  0
LINE
  8
0
 10
-382.219
 20
53.9734
 11
-382.036
 21
53.9266
  0
LINE
  8
0
 10
-382.036
 20
53.9266
 11
-381.861
 21
53.8572
  0
LINE
  8
0
 10
-381.861
 20
53.8572
 11
-381.696
 21
53.7665
  0
LINE
  8
0
 10
-381.696
 20
53.7665
 11
-381.544
 21
53.6558
  0
LINE
  8
0
 10
-381.544
 20
53.6558
 11
-381.407
 21
53.5268
  0
LINE
  8
0
 10
-381.407
 20
53.5268
 11
-381.286
 21
53.3817
  0
LINE
  8
0
 10
-381.286
 20
53.3817
 11
-381.186
 21
53.2226
  0
LINE
  8
0
 10
-381.186
 20
53.2226
 11
-381.105
 21
53.0522
  0
LINE
  8
0
 10
-381.105
 20
53.0522
 11
-381.047
 21
52.873
  0
LINE
  8
0
 10
-381.047
 20
52.873
 11
-381.012
 21
52.688
  0
LINE
  8
0
 10
-381.012
 20
52.688
 11
-381
 21
52.5
  0
LINE
  8
0
 10
-381
 20
52.5
 11
-381.012
 21
52.312
  0
LINE
  8
0
 10
-381.012
 20
52.312
 11
-381.047
 21
52.127
  0
LINE
  8
0
 10
-381.047
 20
52.127
 11
-381.105
 21
51.9478
  0
LINE
  8
0
 10
-381.105
 20
51.9478
 11
-381.186
 21
51.7774
  0
LINE
  8
0
 10
-381.186
 20
51.7774
 11
-381.286
 21
51.6183
  0
LINE
  8
0
 10
-381.286
 20
51.6183
 11
-381.407
 21
51.4732
  0
LINE
  8
0
 10
-381.407
 20
51.4732
 11
-381.544
 21
51.3442
  0
LINE
  8
0
 10
-381.544
 20
51.3442
 11
-381.696
 21
51.2335
  0
LINE
  8
0
 10
-381.696
 20
51.2335
 11
-381.861
 21
51.1428
  0
LINE
  8
0
 10
-381.861
 20
51.1428
 11
-382.036
 21
51.0734
  0
LINE
  8
0
 10
-382.036
 20
51.0734
 11
-382.219
 21
51.0266
  0
LINE
  8
0
 10
-382.219
 20
51.0266
 11
-382.406
 21
51.003
  0
LINE
  8
0
 10
-382.406
 20
51.003
 11
-382.594
 21
51.003
  0
LINE
  8
0
 10
382.406
 20
51.003
 11
382.219
 21
51.0266
  0
LINE
  8
0
 10
382.219
 20
51.0266
 11
382.036
 21
51.0734
  0
LINE
  8
0
 10
382.036
 20
51.0734
 11
381.861
 21
51.1428
  0
LINE
  8
0
 10
381.861
 20
51.1428
 11
381.696
 21
51.2335
  0
LINE
  8
0
 10
381.696
 20
51.2335
 11
381.544
 21
51.3442
  0
LINE
  8
0
 10
381.544
 20
51.3442
 11
381.407
 21
51.4732
  0
LINE
  8
0
 10
381.407
 20
51.4732
 11
381.286
 21
51.6183
  0
LINE
  8
0
 10
381.286
 20
51.6183
 11
381.186
 21
51.7774
  0
LINE
  8
0
 10
381.186
 20
51.7774
 11
381.105
 21
51.9478
  0
LINE
  8
0
 10
381.105
 20
51.9478
 11
381.047
 21
52.127
  0
LINE
  8
0
 10
381.047
 20
52.127
 11
381.012
 21
52.312
  0
LINE
  8
0
 10
381.012
 20
52.312
 11
381
 21
52.5
  0
LINE
  8
0
 10
381
 20
52.5
 11
381.012
 21
52.688
  0
LINE
  8
0
 10
381.012
 20
52.688
 11
381.047
 21
52.873
  0
LINE
  8
0
 10
381.047
 20
52.873
 11
381.105
 21
53.0522
  0
LINE
  8
0
 10
381.105
 20
53.0522
 11
381.186
 21
53.2226
  0
LINE
  8
0
 10
381.186
 20
53.2226
 11
381.286
 21
53.3817
  0
LINE
  8
0
 10
381.286
 20
53.3817
 11
381.407
 21
53.5268
  0
LINE
  8
0
 10
381.407
 20
53.5268
 11
381.544
 21
53.6558
  0
LINE
  8
0
 10
381.544
 20
53.6558
 11
381.696
 21
53.7665
  0
LINE
  8
0
 10
381.696
 20
53.7665
 11
381.861
 21
53.8572
  0
LINE
  8
0
 10
381.861
 20
53.8572
 11
382.036
 21
53.9266
  0
LINE
  8
0
 10
382.036
 20
53.9266
 11
382.219
 21
53.9734
  0
LINE
  8
0
 10
382.219
 20
53.9734
 11
382.406
 21
53.997
  0
LINE
  8
0
 10
382.406
 20
53.997
 11
382.594
 21
53.997
  0
LINE
  8
0
 10
382.594
 20
53.997
 11
382.781
 21
53.9734
  0
LINE
  8
0
 10
382.781
 20
53.9734
 11
382.964
 21
53.9266
  0
LINE
  8
0
 10
382.964
 20
53.9266
 11
383.139
 21
53.8572
  0
LINE
  8
0
 10
383.139
 20
53.8572
 11
383.304
 21
53.7665
  0
LINE
  8
0
 10
383.304
 20
53.7665
 11
383.456
 21
53.6558
  0
LINE
  8
0
 10
383.456
 20
53.6558
 11
383.593
 21
53.5268
  0
LINE
  8
0
 10
383.593
 20
53.5268
 11
383.714
 21
53.3817
  0
LINE
  8
0
 10
383.714
 20
53.3817
 11
383.814
 21
53.2226
  0
LINE
  8
0
 10
383.814
 20
53.2226
 11
383.895
 21
53.0522
  0
LINE
  8
0
 10
383.895
 20
53.0522
 11
383.953
 21
52.873
  0
LINE
  8
0
 10
383.953
 20
52.873
 11
383.988
 21
52.688
  0
LINE
  8
0
 10
383.988
 20
52.688
 11
384
 21
52.5
  0
LINE
  8
0
 10
384
 20
52.5
 11
383.988
 21
52.312
  0
LINE
  8
0
 10
383.988
 20
52.312
 11
383.953
 21
52.127
  0
LINE
  8
0
 10
383.953
 20
52.127
 11
383.895
 21
51.9478
  0
LINE
  8
0
 10
383.895
 20
51.9478
 11
383.814
 21
51.7774
  0
LINE
  8
0
 10
383.814
 20
51.7774
 11
383.714
 21
51.6183
  0
LINE
  8
0
 10
383.714
 20
51.6183
 11
383.593
 21
51.4732
  0
LINE
  8
0
 10
383.593
 20
51.4732
 11
383.456
 21
51.3442
  0
LINE
  8
0
 10
383.456
 20
51.3442
 11
383.304
 21
51.2335
  0
LINE
  8
0
 10
383.304
 20
51.2335
 11
383.139
 21
51.1428
  0
LINE
  8
0
 10
383.139
 20
51.1428
 11
382.964
 21
51.0734
  0
LINE
  8
0
 10
382.964
 20
51.0734
 11
382.781
 21
51.0266
  0
LINE
  8
0
 10
382.781
 20
51.0266
 11
382.594
 21
51.003
  0
LINE
  8
0
 10
382.594
 20
51.003
 11
382.406
 21
51.003
  0
LINE
  8
0
 10
382.312
 20
42.0059
 11
381.938
 21
42.0531
  0
LINE
  8
0
 10
381.938
 20
42.0531
 11
381.573
 21
42.1468
  0
LINE
  8
0
 10
381.573
 20
42.1468
 11
381.223
 21
42.2855
  0
LINE
  8
0
 10
381.223
 20
42.2855
 11
380.893
 21
42.467
  0
LINE
  8
0
 10
380.893
 20
42.467
 11
380.588
 21
42.6885
  0
LINE
  8
0
 10
380.588
 20
42.6885
 11
380.313
 21
42.9464
  0
LINE
  8
0
 10
380.313
 20
42.9464
 11
380.073
 21
43.2366
  0
LINE
  8
0
 10
380.073
 20
43.2366
 11
379.871
 21
43.5547
  0
LINE
  8
0
 10
379.871
 20
43.5547
 11
379.711
 21
43.8956
  0
LINE
  8
0
 10
379.711
 20
43.8956
 11
379.594
 21
44.2539
  0
LINE
  8
0
 10
379.594
 20
44.2539
 11
379.524
 21
44.624
  0
LINE
  8
0
 10
379.524
 20
44.624
 11
379.5
 21
45
  0
LINE
  8
0
 10
379.5
 20
45
 11
379.524
 21
45.376
  0
LINE
  8
0
 10
379.524
 20
45.376
 11
379.594
 21
45.7461
  0
LINE
  8
0
 10
379.594
 20
45.7461
 11
379.711
 21
46.1044
  0
LINE
  8
0
 10
379.711
 20
46.1044
 11
379.871
 21
46.4453
  0
LINE
  8
0
 10
379.871
 20
46.4453
 11
380.073
 21
46.7634
  0
LINE
  8
0
 10
380.073
 20
46.7634
 11
380.313
 21
47.0536
  0
LINE
  8
0
 10
380.313
 20
47.0536
 11
380.588
 21
47.3115
  0
LINE
  8
0
 10
380.588
 20
47.3115
 11
380.893
 21
47.533
  0
LINE
  8
0
 10
380.893
 20
47.533
 11
381.223
 21
47.7145
  0
LINE
  8
0
 10
381.223
 20
47.7145
 11
381.573
 21
47.8532
  0
LINE
  8
0
 10
381.573
 20
47.8532
 11
381.938
 21
47.9469
  0
LINE
  8
0
 10
381.938
 20
47.9469
 11
382.312
 21
47.9941
  0
LINE
  8
0
 10
382.312
 20
47.9941
 11
382.688
 21
47.9941
  0
LINE
  8
0
 10
382.688
 20
47.9941
 11
383.062
 21
47.9469
  0
LINE
  8
0
 10
383.062
 20
47.9469
 11
383.427
 21
47.8532
  0
LINE
  8
0
 10
383.427
 20
47.8532
 11
383.777
 21
47.7145
  0
LINE
  8
0
 10
383.777
 20
47.7145
 11
384.107
 21
47.533
  0
LINE
  8
0
 10
384.107
 20
47.533
 11
384.412
 21
47.3115
  0
LINE
  8
0
 10
384.412
 20
47.3115
 11
384.687
 21
47.0536
  0
LINE
  8
0
 10
384.687
 20
47.0536
 11
384.927
 21
46.7634
  0
LINE
  8
0
 10
384.927
 20
46.7634
 11
385.129
 21
46.4453
  0
LINE
  8
0
 10
385.129
 20
46.4453
 11
385.289
 21
46.1044
  0
LINE
  8
0
 10
385.289
 20
46.1044
 11
385.406
 21
45.7461
  0
LINE
  8
0
 10
385.406
 20
45.7461
 11
385.476
 21
45.376
  0
LINE
  8
0
 10
385.476
 20
45.376
 11
385.5
 21
45
  0
LINE
  8
0
 10
385.5
 20
45
 11
385.476
 21
44.624
  0
LINE
  8
0
 10
385.476
 20
44.624
 11
385.406
 21
44.2539
  0
LINE
  8
0
 10
385.406
 20
44.2539
 11
385.289
 21
43.8956
  0
LINE
  8
0
 10
385.289
 20
43.8956
 11
385.129
 21
43.5547
  0
LINE
  8
0
 10
385.129
 20
43.5547
 11
384.927
 21
43.2366
  0
LINE
  8
0
 10
384.927
 20
43.2366
 11
384.687
 21
42.9464
  0
LINE
  8
0
 10
384.687
 20
42.9464
 11
384.412
 21
42.6885
  0
LINE
  8
0
 10
384.412
 20
42.6885
 11
384.107
 21
42.467
  0
LINE
  8
0
 10
384.107
 20
42.467
 11
383.777
 21
42.2855
  0
LINE
  8
0
 10
383.777
 20
42.2855
 11
383.427
 21
42.1468
  0
LINE
  8
0
 10
383.427
 20
42.1468
 11
383.062
 21
42.0531
  0
LINE
  8
0
 10
383.062
 20
42.0531
 11
382.688
 21
42.0059
  0
LINE
  8
0
 10
382.688
 20
42.0059
 11
382.312
 21
42.0059
  0
LINE
  8
0
 10
-382.688
 20
42.0059
 11
-383.062
 21
42.0531
  0
LINE
  8
0
 10
-383.062
 20
42.0531
 11
-383.427
 21
42.1468
  0
LINE
  8
0
 10
-383.427
 20
42.1468
 11
-383.777
 21
42.2855
  0
LINE
  8
0
 10
-383.777
 20
42.2855
 11
-384.107
 21
42.467
  0
LINE
  8
0
 10
-384.107
 20
42.467
 11
-384.412
 21
42.6885
  0
LINE
  8
0
 10
-384.412
 20
42.6885
 11
-384.687
 21
42.9464
  0
LINE
  8
0
 10
-384.687
 20
42.9464
 11
-384.927
 21
43.2366
  0
LINE
  8
0
 10
-384.927
 20
43.2366
 11
-385.129
 21
43.5547
  0
LINE
  8
0
 10
-385.129
 20
43.5547
 11
-385.289
 21
43.8956
  0
LINE
  8
0
 10
-385.289
 20
43.8956
 11
-385.406
 21
44.2539
  0
LINE
  8
0
 10
-385.406
 20
44.2539
 11
-385.476
 21
44.624
  0
LINE
  8
0
 10
-385.476
 20
44.624
 11
-385.5
 21
45
  0
LINE
  8
0
 10
-385.5
 20
45
 11
-385.476
 21
45.376
  0
LINE
  8
0
 10
-385.476
 20
45.376
 11
-385.406
 21
45.7461
  0
LINE
  8
0
 10
-385.406
 20
45.7461
 11
-385.289
 21
46.1044
  0
LINE
  8
0
 10
-385.289
 20
46.1044
 11
-385.129
 21
46.4453
  0
LINE
  8
0
 10
-385.129
 20
46.4453
 11
-384.927
 21
46.7634
  0
LINE
  8
0
 10
-384.927
 20
46.7634
 11
-384.687
 21
47.0536
  0
LINE
  8
0
 10
-384.687
 20
47.0536
 11
-384.412
 21
47.3115
  0
LINE
  8
0
 10
-384.412
 20
47.3115
 11
-384.107
 21
47.533
  0
LINE
  8
0
 10
-384.107
 20
47.533
 11
-383.777
 21
47.7145
  0
LINE
  8
0
 10
-383.777
 20
47.7145
 11
-383.427
 21
47.8532
  0
LINE
  8
0
 10
-383.427
 20
47.8532
 11
-383.062
 21
47.9469
  0
LINE
  8
0
 10
-383.062
 20
47.9469
 11
-382.688
 21
47.9941
  0
LINE
  8
0
 10
-382.688
 20
47.9941
 11
-382.312
 21
47.9941
  0
LINE
  8
0
 10
-382.312
 20
47.9941
 11
-381.938
 21
47.9469
  0
LINE
  8
0
 10
-381.938
 20
47.9469
 11
-381.573
 21
47.8532
  0
LINE
  8
0
 10
-381.573
 20
47.8532
 11
-381.223
 21
47.7145
  0
LINE
  8
0
 10
-381.223
 20
47.7145
 11
-380.893
 21
47.533
  0
LINE
  8
0
 10
-380.893
 20
47.533
 11
-380.588
 21
47.3115
  0
LINE
  8
0
 10
-380.588
 20
47.3115
 11
-380.313
 21
47.0536
  0
LINE
  8
0
 10
-380.313
 20
47.0536
 11
-380.073
 21
46.7634
  0
LINE
  8
0
 10
-380.073
 20
46.7634
 11
-379.871
 21
46.4453
  0
LINE
  8
0
 10
-379.871
 20
46.4453
 11
-379.711
 21
46.1044
  0
LINE
  8
0
 10
-379.711
 20
46.1044
 11
-379.594
 21
45.7461
  0
LINE
  8
0
 10
-379.594
 20
45.7461
 11
-379.524
 21
45.376
  0
LINE
  8
0
 10
-379.524
 20
45.376
 11
-379.5
 21
45
  0
LINE
  8
0
 10
-379.5
 20
45
 11
-379.524
 21
44.624
  0
LINE
  8
0
 10
-379.524
 20
44.624
 11
-379.594
 21
44.2539
  0
LINE
  8
0
 10
-379.594
 20
44.2539
 11
-379.711
 21
43.8956
  0
LINE
  8
0
 10
-379.711
 20
43.8956
 11
-379.871
 21
43.5547
  0
LINE
  8
0
 10
-379.871
 20
43.5547
 11
-380.073
 21
43.2366
  0
LINE
  8
0
 10
-380.073
 20
43.2366
 11
-380.313
 21
42.9464
  0
LINE
  8
0
 10
-380.313
 20
42.9464
 11
-380.588
 21
42.6885
  0
LINE
  8
0
 10
-380.588
 20
42.6885
 11
-380.893
 21
42.467
  0
LINE
  8
0
 10
-380.893
 20
42.467
 11
-381.223
 21
42.2855
  0
LINE
  8
0
 10
-381.223
 20
42.2855
 11
-381.573
 21
42.1468
  0
LINE
  8
0
 10
-381.573
 20
42.1468
 11
-381.938
 21
42.0531
  0
LINE
  8
0
 10
-381.938
 20
42.0531
 11
-382.312
 21
42.0059
  0
LINE
  8
0
 10
-382.312
 20
42.0059
 11
-382.688
 21
42.0059
  0
LINE
  8
0
 10
-382.594
 20
36.003
 11
-382.781
 21
36.0266
  0
LINE
  8
0
 10
-382.781
 20
36.0266
 11
-382.964
 21
36.0734
  0
LINE
  8
0
 10
-382.964
 20
36.0734
 11
-383.139
 21
36.1428
  0
LINE
  8
0
 10
-383.139
 20
36.1428
 11
-383.304
 21
36.2335
  0
LINE
  8
0
 10
-383.304
 20
36.2335
 11
-383.456
 21
36.3442
  0
LINE
  8
0
 10
-383.456
 20
36.3442
 11
-383.593
 21
36.4732
  0
LINE
  8
0
 10
-383.593
 20
36.4732
 11
-383.714
 21
36.6183
  0
LINE
  8
0
 10
-383.714
 20
36.6183
 11
-383.814
 21
36.7774
  0
LINE
  8
0
 10
-383.814
 20
36.7774
 11
-383.895
 21
36.9478
  0
LINE
  8
0
 10
-383.895
 20
36.9478
 11
-383.953
 21
37.127
  0
LINE
  8
0
 10
-383.953
 20
37.127
 11
-383.988
 21
37.312
  0
LINE
  8
0
 10
-383.988
 20
37.312
 11
-384
 21
37.5
  0
LINE
  8
0
 10
-384
 20
37.5
 11
-383.988
 21
37.688
  0
LINE
  8
0
 10
-383.988
 20
37.688
 11
-383.953
 21
37.873
  0
LINE
  8
0
 10
-383.953
 20
37.873
 11
-383.895
 21
38.0522
  0
LINE
  8
0
 10
-383.895
 20
38.0522
 11
-383.814
 21
38.2226
  0
LINE
  8
0
 10
-383.814
 20
38.2226
 11
-383.714
 21
38.3817
  0
LINE
  8
0
 10
-383.714
 20
38.3817
 11
-383.593
 21
38.5268
  0
LINE
  8
0
 10
-383.593
 20
38.5268
 11
-383.456
 21
38.6558
  0
LINE
  8
0
 10
-383.456
 20
38.6558
 11
-383.304
 21
38.7665
  0
LINE
  8
0
 10
-383.304
 20
38.7665
 11
-383.139
 21
38.8572
  0
LINE
  8
0
 10
-383.139
 20
38.8572
 11
-382.964
 21
38.9266
  0
LINE
  8
0
 10
-382.964
 20
38.9266
 11
-382.781
 21
38.9734
  0
LINE
  8
0
 10
-382.781
 20
38.9734
 11
-382.594
 21
38.997
  0
LINE
  8
0
 10
-382.594
 20
38.997
 11
-382.406
 21
38.997
  0
LINE
  8
0
 10
-382.406
 20
38.997
 11
-382.219
 21
38.9734
  0
LINE
  8
0
 10
-382.219
 20
38.9734
 11
-382.036
 21
38.9266
  0
LINE
  8
0
 10
-382.036
 20
38.9266
 11
-381.861
 21
38.8572
  0
LINE
  8
0
 10
-381.861
 20
38.8572
 11
-381.696
 21
38.7665
  0
LINE
  8
0
 10
-381.696
 20
38.7665
 11
-381.544
 21
38.6558
  0
LINE
  8
0
 10
-381.544
 20
38.6558
 11
-381.407
 21
38.5268
  0
LINE
  8
0
 10
-381.407
 20
38.5268
 11
-381.286
 21
38.3817
  0
LINE
  8
0
 10
-381.286
 20
38.3817
 11
-381.186
 21
38.2226
  0
LINE
  8
0
 10
-381.186
 20
38.2226
 11
-381.105
 21
38.0522
  0
LINE
  8
0
 10
-381.105
 20
38.0522
 11
-381.047
 21
37.873
  0
LINE
  8
0
 10
-381.047
 20
37.873
 11
-381.012
 21
37.688
  0
LINE
  8
0
 10
-381.012
 20
37.688
 11
-381
 21
37.5
  0
LINE
  8
0
 10
-381
 20
37.5
 11
-381.012
 21
37.312
  0
LINE
  8
0
 10
-381.012
 20
37.312
 11
-381.047
 21
37.127
  0
LINE
  8
0
 10
-381.047
 20
37.127
 11
-381.105
 21
36.9478
  0
LINE
  8
0
 10
-381.105
 20
36.9478
 11
-381.186
 21
36.7774
  0
LINE
  8
0
 10
-381.186
 20
36.7774
 11
-381.286
 21
36.6183
  0
LINE
  8
0
 10
-381.286
 20
36.6183
 11
-381.407
 21
36.4732
  0
LINE
  8
0
 10
-381.407
 20
36.4732
 11
-381.544
 21
36.3442
  0
LINE
  8
0
 10
-381.544
 20
36.3442
 11
-381.696
 21
36.2335
  0
LINE
  8
0
 10
-381.696
 20
36.2335
 11
-381.861
 21
36.1428
  0
LINE
  8
0
 10
-381.861
 20
36.1428
 11
-382.036
 21
36.0734
  0
LINE
  8
0
 10
-382.036
 20
36.0734
 11
-382.219
 21
36.0266
  0
LINE
  8
0
 10
-382.219
 20
36.0266
 11
-382.406
 21
36.003
  0
LINE
  8
0
 10
-382.406
 20
36.003
 11
-382.594
 21
36.003
  0
LINE
  8
0
 10
382.406
 20
36.003
 11
382.219
 21
36.0266
  0
LINE
  8
0
 10
382.219
 20
36.0266
 11
382.036
 21
36.0734
  0
LINE
  8
0
 10
382.036
 20
36.0734
 11
381.861
 21
36.1428
  0
LINE
  8
0
 10
381.861
 20
36.1428
 11
381.696
 21
36.2335
  0
LINE
  8
0
 10
381.696
 20
36.2335
 11
381.544
 21
36.3442
  0
LINE
  8
0
 10
381.544
 20
36.3442
 11
381.407
 21
36.4732
  0
LINE
  8
0
 10
381.407
 20
36.4732
 11
381.286
 21
36.6183
  0
LINE
  8
0
 10
381.286
 20
36.6183
 11
381.186
 21
36.7774
  0
LINE
  8
0
 10
381.186
 20
36.7774
 11
381.105
 21
36.9478
  0
LINE
  8
0
 10
381.105
 20
36.9478
 11
381.047
 21
37.127
  0
LINE
  8
0
 10
381.047
 20
37.127
 11
381.012
 21
37.312
  0
LINE
  8
0
 10
381.012
 20
37.312
 11
381
 21
37.5
  0
LINE
  8
0
 10
381
 20
37.5
 11
381.012
 21
37.688
  0
LINE
  8
0
 10
381.012
 20
37.688
 11
381.047
 21
37.873
  0
LINE
  8
0
 10
381.047
 20
37.873
 11
381.105
 21
38.0522
  0
LINE
  8
0
 10
381.105
 20
38.0522
 11
381.186
 21
38.2226
  0
LINE
  8
0
 10
381.186
 20
38.2226
 11
381.286
 21
38.3817
  0
LINE
  8
0
 10
381.286
 20
38.3817
 11
381.407
 21
38.5268
  0
LINE
  8
0
 10
381.407
 20
38.5268
 11
381.544
 21
38.6558
  0
LINE
  8
0
 10
381.544
 20
38.6558
 11
381.696
 21
38.7665
  0
LINE
  8
0
 10
381.696
 20
38.7665
 11
381.861
 21
38.8572
  0
LINE
  8
0
 10
381.861
 20
38.8572
 11
382.036
 21
38.9266
  0
LINE
  8
0
 10
382.036
 20
38.9266
 11
382.219
 21
38.9734
  0
LINE
  8
0
 10
382.219
 20
38.9734
 11
382.406
 21
38.997
  0
LINE
  8
0
 10
382.406
 20
38.997
 11
382.594
 21
38.997
  0
LINE
  8
0
 10
382.594
 20
38.997
 11
382.781
 21
38.9734
  0
LINE
  8
0
 10
382.781
 20
38.9734
 11
382.964
 21
38.9266
  0
LINE
  8
0
 10
382.964
 20
38.9266
 11
383.139
 21
38.8572
  0
LINE
  8
0
 10
383.139
 20
38.8572
 11
383.304
 21
38.7665
  0
LINE
  8
0
 10
383.304
 20
38.7665
 11
383.456
 21
38.6558
  0
LINE
  8
0
 10
383.456
 20
38.6558
 11
383.593
 21
38.5268
  0
LINE
  8
0
 10
383.593
 20
38.5268
 11
383.714
 21
38.3817
  0
LINE
  8
0
 10
383.714
 20
38.3817
 11
383.814
 21
38.2226
  0
LINE
  8
0
 10
383.814
 20
38.2226
 11
383.895
 21
38.0522
  0
LINE
  8
0
 10
383.895
 20
38.0522
 11
383.953
 21
37.873
  0
LINE
  8
0
 10
383.953
 20
37.873
 11
383.988
 21
37.688
  0
LINE
  8
0
 10
383.988
 20
37.688
 11
384
 21
37.5
  0
LINE
  8
0
 10
384
 20
37.5
 11
383.988
 21
37.312
  0
LINE
  8
0
 10
383.988
 20
37.312
 11
383.953
 21
37.127
  0
LINE
  8
0
 10
383.953
 20
37.127
 11
383.895
 21
36.9478
  0
LINE
  8
0
 10
383.895
 20
36.9478
 11
383.814
 21
36.7774
  0
LINE
  8
0
 10
383.814
 20
36.7774
 11
383.714
 21
36.6183
  0
LINE
  8
0
 10
383.714
 20
36.6183
 11
383.593
 21
36.4732
  0
LINE
  8
0
 10
383.593
 20
36.4732
 11
383.456
 21
36.3442
  0
LINE
  8
0
 10
383.456
 20
36.3442
 11
383.304
 21
36.2335
  0
LINE
  8
0
 10
383.304
 20
36.2335
 11
383.139
 21
36.1428
  0
LINE
  8
0
 10
383.139
 20
36.1428
 11
382.964
 21
36.0734
  0
LINE
  8
0
 10
382.964
 20
36.0734
 11
382.781
 21
36.0266
  0
LINE
  8
0
 10
382.781
 20
36.0266
 11
382.594
 21
36.003
  0
LINE
  8
0
 10
382.594
 20
36.003
 11
382.406
 21
36.003
  0
LINE
  8
0
 10
382.312
 20
27.0059
 11
381.938
 21
27.0531
  0
LINE
  8
0
 10
381.938
 20
27.0531
 11
381.573
 21
27.1468
  0
LINE
  8
0
 10
381.573
 20
27.1468
 11
381.223
 21
27.2855
  0
LINE
  8
0
 10
381.223
 20
27.2855
 11
380.893
 21
27.467
  0
LINE
  8
0
 10
380.893
 20
27.467
 11
380.588
 21
27.6884
  0
LINE
  8
0
 10
380.588
 20
27.6884
 11
380.313
 21
27.9464
  0
LINE
  8
0
 10
380.313
 20
27.9464
 11
380.073
 21
28.2366
  0
LINE
  8
0
 10
380.073
 20
28.2366
 11
379.871
 21
28.5547
  0
LINE
  8
0
 10
379.871
 20
28.5547
 11
379.711
 21
28.8956
  0
LINE
  8
0
 10
379.711
 20
28.8956
 11
379.594
 21
29.2539
  0
LINE
  8
0
 10
379.594
 20
29.2539
 11
379.524
 21
29.624
  0
LINE
  8
0
 10
379.524
 20
29.624
 11
379.5
 21
30
  0
LINE
  8
0
 10
379.5
 20
30
 11
379.524
 21
30.376
  0
LINE
  8
0
 10
379.524
 20
30.376
 11
379.594
 21
30.7461
  0
LINE
  8
0
 10
379.594
 20
30.7461
 11
379.711
 21
31.1044
  0
LINE
  8
0
 10
379.711
 20
31.1044
 11
379.871
 21
31.4453
  0
LINE
  8
0
 10
379.871
 20
31.4453
 11
380.073
 21
31.7634
  0
LINE
  8
0
 10
380.073
 20
31.7634
 11
380.313
 21
32.0536
  0
LINE
  8
0
 10
380.313
 20
32.0536
 11
380.588
 21
32.3115
  0
LINE
  8
0
 10
380.588
 20
32.3115
 11
380.893
 21
32.533
  0
LINE
  8
0
 10
380.893
 20
32.533
 11
381.223
 21
32.7145
  0
LINE
  8
0
 10
381.223
 20
32.7145
 11
381.573
 21
32.8532
  0
LINE
  8
0
 10
381.573
 20
32.8532
 11
381.938
 21
32.9469
  0
LINE
  8
0
 10
381.938
 20
32.9469
 11
382.312
 21
32.9941
  0
LINE
  8
0
 10
382.312
 20
32.9941
 11
382.688
 21
32.9941
  0
LINE
  8
0
 10
382.688
 20
32.9941
 11
383.062
 21
32.9469
  0
LINE
  8
0
 10
383.062
 20
32.9469
 11
383.427
 21
32.8532
  0
LINE
  8
0
 10
383.427
 20
32.8532
 11
383.777
 21
32.7145
  0
LINE
  8
0
 10
383.777
 20
32.7145
 11
384.107
 21
32.533
  0
LINE
  8
0
 10
384.107
 20
32.533
 11
384.412
 21
32.3115
  0
LINE
  8
0
 10
384.412
 20
32.3115
 11
384.687
 21
32.0536
  0
LINE
  8
0
 10
384.687
 20
32.0536
 11
384.927
 21
31.7634
  0
LINE
  8
0
 10
384.927
 20
31.7634
 11
385.129
 21
31.4453
  0
LINE
  8
0
 10
385.129
 20
31.4453
 11
385.289
 21
31.1044
  0
LINE
  8
0
 10
385.289
 20
31.1044
 11
385.406
 21
30.7461
  0
LINE
  8
0
 10
385.406
 20
30.7461
 11
385.476
 21
30.376
  0
LINE
  8
0
 10
385.476
 20
30.376
 11
385.5
 21
30
  0
LINE
  8
0
 10
385.5
 20
30
 11
385.476
 21
29.624
  0
LINE
  8
0
 10
385.476
 20
29.624
 11
385.406
 21
29.2539
  0
LINE
  8
0
 10
385.406
 20
29.2539
 11
385.289
 21
28.8956
  0
LINE
  8
0
 10
385.289
 20
28.8956
 11
385.129
 21
28.5547
  0
LINE
  8
0
 10
385.129
 20
28.5547
 11
384.927
 21
28.2366
  0
LINE
  8
0
 10
384.927
 20
28.2366
 11
384.687
 21
27.9464
  0
LINE
  8
0
 10
384.687
 20
27.9464
 11
384.412
 21
27.6884
  0
LINE
  8
0
 10
384.412
 20
27.6884
 11
384.107
 21
27.467
  0
LINE
  8
0
 10
384.107
 20
27.467
 11
383.777
 21
27.2855
  0
LINE
  8
0
 10
383.777
 20
27.2855
 11
383.427
 21
27.1468
  0
LINE
  8
0
 10
383.427
 20
27.1468
 11
383.062
 21
27.0531
  0
LINE
  8
0
 10
383.062
 20
27.0531
 11
382.688
 21
27.0059
  0
LINE
  8
0
 10
382.688
 20
27.0059
 11
382.312
 21
27.0059
  0
LINE
  8
0
 10
-382.688
 20
27.0059
 11
-383.062
 21
27.0531
  0
LINE
  8
0
 10
-383.062
 20
27.0531
 11
-383.427
 21
27.1468
  0
LINE
  8
0
 10
-383.427
 20
27.1468
 11
-383.777
 21
27.2855
  0
LINE
  8
0
 10
-383.777
 20
27.2855
 11
-384.107
 21
27.467
  0
LINE
  8
0
 10
-384.107
 20
27.467
 11
-384.412
 21
27.6884
  0
LINE
  8
0
 10
-384.412
 20
27.6884
 11
-384.687
 21
27.9464
  0
LINE
  8
0
 10
-384.687
 20
27.9464
 11
-384.927
 21
28.2366
  0
LINE
  8
0
 10
-384.927
 20
28.2366
 11
-385.129
 21
28.5547
  0
LINE
  8
0
 10
-385.129
 20
28.5547
 11
-385.289
 21
28.8956
  0
LINE
  8
0
 10
-385.289
 20
28.8956
 11
-385.406
 21
29.2539
  0
LINE
  8
0
 10
-385.406
 20
29.2539
 11
-385.476
 21
29.624
  0
LINE
  8
0
 10
-385.476
 20
29.624
 11
-385.5
 21
30
  0
LINE
  8
0
 10
-385.5
 20
30
 11
-385.476
 21
30.376
  0
LINE
  8
0
 10
-385.476
 20
30.376
 11
-385.406
 21
30.7461
  0
LINE
  8
0
 10
-385.406
 20
30.7461
 11
-385.289
 21
31.1044
  0
LINE
  8
0
 10
-385.289
 20
31.1044
 11
-385.129
 21
31.4453
  0
LINE
  8
0
 10
-385.129
 20
31.4453
 11
-384.927
 21
31.7634
  0
LINE
  8
0
 10
-384.927
 20
31.7634
 11
-384.687
 21
32.0536
  0
LINE
  8
0
 10
-384.687
 20
32.0536
 11
-384.412
 21
32.3115
  0
LINE
  8
0
 10
-384.412
 20
32.3115
 11
-384.107
 21
32.533
  0
LINE
  8
0
 10
-384.107
 20
32.533
 11
-383.777
 21
32.7145
  0
LINE
  8
0
 10
-383.777
 20
32.7145
 11
-383.427
 21
32.8532
  0
LINE
  8
0
 10
-383.427
 20
32.8532
 11
-383.062
 21
32.9469
  0
LINE
  8
0
 10
-383.062
 20
32.9469
 11
-382.688
 21
32.9941
  0
LINE
  8
0
 10
-382.688
 20
32.9941
 11
-382.312
 21
32.9941
  0
LINE
  8
0
 10
-382.312
 20
32.9941
 11
-381.938
 21
32.9469
  0
LINE
  8
0
 10
-381.938
 20
32.9469
 11
-381.573
 21
32.8532
  0
LINE
  8
0
 10
-381.573
 20
32.8532
 11
-381.223
 21
32.7145
  0
LINE
  8
0
 10
-381.223
 20
32.7145
 11
-380.893
 21
32.533
  0
LINE
  8
0
 10
-380.893
 20
32.533
 11
-380.588
 21
32.3115
  0
LINE
  8
0
 10
-380.588
 20
32.3115
 11
-380.313
 21
32.0536
  0
LINE
  8
0
 10
-380.313
 20
32.0536
 11
-380.073
 21
31.7634
  0
LINE
  8
0
 10
-380.073
 20
31.7634
 11
-379.871
 21
31.4453
  0
LINE
  8
0
 10
-379.871
 20
31.4453
 11
-379.711
 21
31.1044
  0
LINE
  8
0
 10
-379.711
 20
31.1044
 11
-379.594
 21
30.7461
  0
LINE
  8
0
 10
-379.594
 20
30.7461
 11
-379.524
 21
30.376
  0
LINE
  8
0
 10
-379.524
 20
30.376
 11
-379.5
 21
30
  0
LINE
  8
0
 10
-379.5
 20
30
 11
-379.524
 21
29.624
  0
LINE
  8
0
 10
-379.524
 20
29.624
 11
-379.594
 21
29.2539
  0
LINE
  8
0
 10
-379.594
 20
29.2539
 11
-379.711
 21
28.8956
  0
LINE
  8
0
 10
-379.711
 20
28.8956
 11
-379.871
 21
28.5547
  0
LINE
  8
0
 10
-379.871
 20
28.5547
 11
-380.073
 21
28.2366
  0
LINE
  8
0
 10
-380.073
 20
28.2366
 11
-380.313
 21
27.9464
  0
LINE
  8
0
 10
-380.313
 20
27.9464
 11
-380.588
 21
27.6884
  0
LINE
  8
0
 10
-380.588
 20
27.6884
 11
-380.893
 21
27.467
  0
LINE
  8
0
 10
-380.893
 20
27.467
 11
-381.223
 21
27.2855
  0
LINE
  8
0
 10
-381.223
 20
27.2855
 11
-381.573
 21
27.1468
  0
LINE
  8
0
 10
-381.573
 20
27.1468
 11
-381.938
 21
27.0531
  0
LINE
  8
0
 10
-381.938
 20
27.0531
 11
-382.312
 21
27.0059
  0
LINE
  8
0
 10
-382.312
 20
27.0059
 11
-382.688
 21
27.0059
  0
LINE
  8
0
 10
382.406
 20
21.003
 11
382.219
 21
21.0266
  0
LINE
  8
0
 10
382.219
 20
21.0266
 11
382.036
 21
21.0734
  0
LINE
  8
0
 10
382.036
 20
21.0734
 11
381.861
 21
21.1427
  0
LINE
  8
0
 10
381.861
 20
21.1427
 11
381.696
 21
21.2335
  0
LINE
  8
0
 10
381.696
 20
21.2335
 11
381.544
 21
21.3442
  0
LINE
  8
0
 10
381.544
 20
21.3442
 11
381.407
 21
21.4732
  0
LINE
  8
0
 10
381.407
 20
21.4732
 11
381.286
 21
21.6183
  0
LINE
  8
0
 10
381.286
 20
21.6183
 11
381.186
 21
21.7774
  0
LINE
  8
0
 10
381.186
 20
21.7774
 11
381.105
 21
21.9478
  0
LINE
  8
0
 10
381.105
 20
21.9478
 11
381.047
 21
22.127
  0
LINE
  8
0
 10
381.047
 20
22.127
 11
381.012
 21
22.312
  0
LINE
  8
0
 10
381.012
 20
22.312
 11
381
 21
22.5
  0
LINE
  8
0
 10
381
 20
22.5
 11
381.012
 21
22.688
  0
LINE
  8
0
 10
381.012
 20
22.688
 11
381.047
 21
22.873
  0
LINE
  8
0
 10
381.047
 20
22.873
 11
381.105
 21
23.0522
  0
LINE
  8
0
 10
381.105
 20
23.0522
 11
381.186
 21
23.2226
  0
LINE
  8
0
 10
381.186
 20
23.2226
 11
381.286
 21
23.3817
  0
LINE
  8
0
 10
381.286
 20
23.3817
 11
381.407
 21
23.5268
  0
LINE
  8
0
 10
381.407
 20
23.5268
 11
381.544
 21
23.6558
  0
LINE
  8
0
 10
381.544
 20
23.6558
 11
381.696
 21
23.7665
  0
LINE
  8
0
 10
381.696
 20
23.7665
 11
381.861
 21
23.8572
  0
LINE
  8
0
 10
381.861
 20
23.8572
 11
382.036
 21
23.9266
  0
LINE
  8
0
 10
382.036
 20
23.9266
 11
382.219
 21
23.9734
  0
LINE
  8
0
 10
382.219
 20
23.9734
 11
382.406
 21
23.997
  0
LINE
  8
0
 10
382.406
 20
23.997
 11
382.594
 21
23.997
  0
LINE
  8
0
 10
382.594
 20
23.997
 11
382.781
 21
23.9734
  0
LINE
  8
0
 10
382.781
 20
23.9734
 11
382.964
 21
23.9266
  0
LINE
  8
0
 10
382.964
 20
23.9266
 11
383.139
 21
23.8572
  0
LINE
  8
0
 10
383.139
 20
23.8572
 11
383.304
 21
23.7665
  0
LINE
  8
0
 10
383.304
 20
23.7665
 11
383.456
 21
23.6558
  0
LINE
  8
0
 10
383.456
 20
23.6558
 11
383.593
 21
23.5268
  0
LINE
  8
0
 10
383.593
 20
23.5268
 11
383.714
 21
23.3817
  0
LINE
  8
0
 10
383.714
 20
23.3817
 11
383.814
 21
23.2226
  0
LINE
  8
0
 10
383.814
 20
23.2226
 11
383.895
 21
23.0522
  0
LINE
  8
0
 10
383.895
 20
23.0522
 11
383.953
 21
22.873
  0
LINE
  8
0
 10
383.953
 20
22.873
 11
383.988
 21
22.688
  0
LINE
  8
0
 10
383.988
 20
22.688
 11
384
 21
22.5
  0
LINE
  8
0
 10
384
 20
22.5
 11
383.988
 21
22.312
  0
LINE
  8
0
 10
383.988
 20
22.312
 11
383.953
 21
22.127
  0
LINE
  8
0
 10
383.953
 20
22.127
 11
383.895
 21
21.9478
  0
LINE
  8
0
 10
383.895
 20
21.9478
 11
383.814
 21
21.7774
  0
LINE
  8
0
 10
383.814
 20
21.7774
 11
383.714
 21
21.6183
  0
LINE
  8
0
 10
383.714
 20
21.6183
 11
383.593
 21
21.4732
  0
LINE
  8
0
 10
383.593
 20
21.4732
 11
383.456
 21
21.3442
  0
LINE
  8
0
 10
383.456
 20
21.3442
 11
383.304
 21
21.2335
  0
LINE
  8
0
 10
383.304
 20
21.2335
 11
383.139
 21
21.1427
  0
LINE
  8
0
 10
383.139
 20
21.1427
 11
382.964
 21
21.0734
  0
LINE
  8
0
 10
382.964
 20
21.0734
 11
382.781
 21
21.0266
  0
LINE
  8
0
 10
382.781
 20
21.0266
 11
382.594
 21
21.003
  0
LINE
  8
0
 10
382.594
 20
21.003
 11
382.406
 21
21.003
  0
LINE
  8
0
 10
-382.594
 20
21.003
 11
-382.781
 21
21.0266
  0
LINE
  8
0
 10
-382.781
 20
21.0266
 11
-382.964
 21
21.0734
  0
LINE
  8
0
 10
-382.964
 20
21.0734
 11
-383.139
 21
21.1427
  0
LINE
  8
0
 10
-383.139
 20
21.1427
 11
-383.304
 21
21.2335
  0
LINE
  8
0
 10
-383.304
 20
21.2335
 11
-383.456
 21
21.3442
  0
LINE
  8
0
 10
-383.456
 20
21.3442
 11
-383.593
 21
21.4732
  0
LINE
  8
0
 10
-383.593
 20
21.4732
 11
-383.714
 21
21.6183
  0
LINE
  8
0
 10
-383.714
 20
21.6183
 11
-383.814
 21
21.7774
  0
LINE
  8
0
 10
-383.814
 20
21.7774
 11
-383.895
 21
21.9478
  0
LINE
  8
0
 10
-383.895
 20
21.9478
 11
-383.953
 21
22.127
  0
LINE
  8
0
 10
-383.953
 20
22.127
 11
-383.988
 21
22.312
  0
LINE
  8
0
 10
-383.988
 20
22.312
 11
-384
 21
22.5
  0
LINE
  8
0
 10
-384
 20
22.5
 11
-383.988
 21
22.688
  0
LINE
  8
0
 10
-383.988
 20
22.688
 11
-383.953
 21
22.873
  0
LINE
  8
0
 10
-383.953
 20
22.873
 11
-383.895
 21
23.0522
  0
LINE
  8
0
 10
-383.895
 20
23.0522
 11
-383.814
 21
23.2226
  0
LINE
  8
0
 10
-383.814
 20
23.2226
 11
-383.714
 21
23.3817
  0
LINE
  8
0
 10
-383.714
 20
23.3817
 11
-383.593
 21
23.5268
  0
LINE
  8
0
 10
-383.593
 20
23.5268
 11
-383.456
 21
23.6558
  0
LINE
  8
0
 10
-383.456
 20
23.6558
 11
-383.304
 21
23.7665
  0
LINE
  8
0
 10
-383.304
 20
23.7665
 11
-383.139
 21
23.8572
  0
LINE
  8
0
 10
-383.139
 20
23.8572
 11
-382.964
 21
23.9266
  0
LINE
  8
0
 10
-382.964
 20
23.9266
 11
-382.781
 21
23.9734
  0
LINE
  8
0
 10
-382.781
 20
23.9734
 11
-382.594
 21
23.997
  0
LINE
  8
0
 10
-382.594
 20
23.997
 11
-382.406
 21
23.997
  0
LINE
  8
0
 10
-382.406
 20
23.997
 11
-382.219
 21
23.9734
  0
LINE
  8
0
 10
-382.219
 20
23.9734
 11
-382.036
 21
23.9266
  0
LINE
  8
0
 10
-382.036
 20
23.9266
 11
-381.861
 21
23.8572
  0
LINE
  8
0
 10
-381.861
 20
23.8572
 11
-381.696
 21
23.7665
  0
LINE
  8
0
 10
-381.696
 20
23.7665
 11
-381.544
 21
23.6558
  0
LINE
  8
0
 10
-381.544
 20
23.6558
 11
-381.407
 21
23.5268
  0
LINE
  8
0
 10
-381.407
 20
23.5268
 11
-381.286
 21
23.3817
  0
LINE
  8
0
 10
-381.286
 20
23.3817
 11
-381.186
 21
23.2226
  0
LINE
  8
0
 10
-381.186
 20
23.2226
 11
-381.105
 21
23.0522
  0
LINE
  8
0
 10
-381.105
 20
23.0522
 11
-381.047
 21
22.873
  0
LINE
  8
0
 10
-381.047
 20
22.873
 11
-381.012
 21
22.688
  0
LINE
  8
0
 10
-381.012
 20
22.688
 11
-381
 21
22.5
  0
LINE
  8
0
 10
-381
 20
22.5
 11
-381.012
 21
22.312
  0
LINE
  8
0
 10
-381.012
 20
22.312
 11
-381.047
 21
22.127
  0
LINE
  8
0
 10
-381.047
 20
22.127
 11
-381.105
 21
21.9478
  0
LINE
  8
0
 10
-381.105
 20
21.9478
 11
-381.186
 21
21.7774
  0
LINE
  8
0
 10
-381.186
 20
21.7774
 11
-381.286
 21
21.6183
  0
LINE
  8
0
 10
-381.286
 20
21.6183
 11
-381.407
 21
21.4732
  0
LINE
  8
0
 10
-381.407
 20
21.4732
 11
-381.544
 21
21.3442
  0
LINE
  8
0
 10
-381.544
 20
21.3442
 11
-381.696
 21
21.2335
  0
LINE
  8
0
 10
-381.696
 20
21.2335
 11
-381.861
 21
21.1427
  0
LINE
  8
0
 10
-381.861
 20
21.1427
 11
-382.036
 21
21.0734
  0
LINE
  8
0
 10
-382.036
 20
21.0734
 11
-382.219
 21
21.0266
  0
LINE
  8
0
 10
-382.219
 20
21.0266
 11
-382.406
 21
21.003
  0
LINE
  8
0
 10
-382.406
 20
21.003
 11
-382.594
 21
21.003
  0
LINE
  8
0
 10
-382.688
 20
12.0059
 11
-383.062
 21
12.0531
  0
LINE
  8
0
 10
-383.062
 20
12.0531
 11
-383.427
 21
12.1468
  0
LINE
  8
0
 10
-383.427
 20
12.1468
 11
-383.777
 21
12.2855
  0
LINE
  8
0
 10
-383.777
 20
12.2855
 11
-384.107
 21
12.467
  0
LINE
  8
0
 10
-384.107
 20
12.467
 11
-384.412
 21
12.6884
  0
LINE
  8
0
 10
-384.412
 20
12.6884
 11
-384.687
 21
12.9464
  0
LINE
  8
0
 10
-384.687
 20
12.9464
 11
-384.927
 21
13.2366
  0
LINE
  8
0
 10
-384.927
 20
13.2366
 11
-385.129
 21
13.5547
  0
LINE
  8
0
 10
-385.129
 20
13.5547
 11
-385.289
 21
13.8956
  0
LINE
  8
0
 10
-385.289
 20
13.8956
 11
-385.406
 21
14.2539
  0
LINE
  8
0
 10
-385.406
 20
14.2539
 11
-385.476
 21
14.624
  0
LINE
  8
0
 10
-385.476
 20
14.624
 11
-385.5
 21
15
  0
LINE
  8
0
 10
-385.5
 20
15
 11
-385.476
 21
15.376
  0
LINE
  8
0
 10
-385.476
 20
15.376
 11
-385.406
 21
15.7461
  0
LINE
  8
0
 10
-385.406
 20
15.7461
 11
-385.289
 21
16.1044
  0
LINE
  8
0
 10
-385.289
 20
16.1044
 11
-385.129
 21
16.4453
  0
LINE
  8
0
 10
-385.129
 20
16.4453
 11
-384.927
 21
16.7634
  0
LINE
  8
0
 10
-384.927
 20
16.7634
 11
-384.687
 21
17.0536
  0
LINE
  8
0
 10
-384.687
 20
17.0536
 11
-384.412
 21
17.3115
  0
LINE
  8
0
 10
-384.412
 20
17.3115
 11
-384.107
 21
17.533
  0
LINE
  8
0
 10
-384.107
 20
17.533
 11
-383.777
 21
17.7145
  0
LINE
  8
0
 10
-383.777
 20
17.7145
 11
-383.427
 21
17.8532
  0
LINE
  8
0
 10
-383.427
 20
17.8532
 11
-383.062
 21
17.9469
  0
LINE
  8
0
 10
-383.062
 20
17.9469
 11
-382.688
 21
17.9941
  0
LINE
  8
0
 10
-382.688
 20
17.9941
 11
-382.312
 21
17.9941
  0
LINE
  8
0
 10
-382.312
 20
17.9941
 11
-381.938
 21
17.9469
  0
LINE
  8
0
 10
-381.938
 20
17.9469
 11
-381.573
 21
17.8532
  0
LINE
  8
0
 10
-381.573
 20
17.8532
 11
-381.223
 21
17.7145
  0
LINE
  8
0
 10
-381.223
 20
17.7145
 11
-380.893
 21
17.533
  0
LINE
  8
0
 10
-380.893
 20
17.533
 11
-380.588
 21
17.3115
  0
LINE
  8
0
 10
-380.588
 20
17.3115
 11
-380.313
 21
17.0536
  0
LINE
  8
0
 10
-380.313
 20
17.0536
 11
-380.073
 21
16.7634
  0
LINE
  8
0
 10
-380.073
 20
16.7634
 11
-379.871
 21
16.4453
  0
LINE
  8
0
 10
-379.871
 20
16.4453
 11
-379.711
 21
16.1044
  0
LINE
  8
0
 10
-379.711
 20
16.1044
 11
-379.594
 21
15.7461
  0
LINE
  8
0
 10
-379.594
 20
15.7461
 11
-379.524
 21
15.376
  0
LINE
  8
0
 10
-379.524
 20
15.376
 11
-379.5
 21
15
  0
LINE
  8
0
 10
-379.5
 20
15
 11
-379.524
 21
14.624
  0
LINE
  8
0
 10
-379.524
 20
14.624
 11
-379.594
 21
14.2539
  0
LINE
  8
0
 10
-379.594
 20
14.2539
 11
-379.711
 21
13.8956
  0
LINE
  8
0
 10
-379.711
 20
13.8956
 11
-379.871
 21
13.5547
  0
LINE
  8
0
 10
-379.871
 20
13.5547
 11
-380.073
 21
13.2366
  0
LINE
  8
0
 10
-380.073
 20
13.2366
 11
-380.313
 21
12.9464
  0
LINE
  8
0
 10
-380.313
 20
12.9464
 11
-380.588
 21
12.6884
  0
LINE
  8
0
 10
-380.588
 20
12.6884
 11
-380.893
 21
12.467
  0
LINE
  8
0
 10
-380.893
 20
12.467
 11
-381.223
 21
12.2855
  0
LINE
  8
0
 10
-381.223
 20
12.2855
 11
-381.573
 21
12.1468
  0
LINE
  8
0
 10
-381.573
 20
12.1468
 11
-381.938
 21
12.0531
  0
LINE
  8
0
 10
-381.938
 20
12.0531
 11
-382.312
 21
12.0059
  0
LINE
  8
0
 10
-382.312
 20
12.0059
 11
-382.688
 21
12.0059
  0
LINE
  8
0
 10
382.312
 20
12.0059
 11
381.938
 21
12.0531
  0
LINE
  8
0
 10
381.938
 20
12.0531
 11
381.573
 21
12.1468
  0
LINE
  8
0
 10
381.573
 20
12.1468
 11
381.223
 21
12.2855
  0
LINE
  8
0
 10
381.223
 20
12.2855
 11
380.893
 21
12.467
  0
LINE
  8
0
 10
380.893
 20
12.467
 11
380.588
 21
12.6884
  0
LINE
  8
0
 10
380.588
 20
12.6884
 11
380.313
 21
12.9464
  0
LINE
  8
0
 10
380.313
 20
12.9464
 11
380.073
 21
13.2366
  0
LINE
  8
0
 10
380.073
 20
13.2366
 11
379.871
 21
13.5547
  0
LINE
  8
0
 10
379.871
 20
13.5547
 11
379.711
 21
13.8956
  0
LINE
  8
0
 10
379.711
 20
13.8956
 11
379.594
 21
14.2539
  0
LINE
  8
0
 10
379.594
 20
14.2539
 11
379.524
 21
14.624
  0
LINE
  8
0
 10
379.524
 20
14.624
 11
379.5
 21
15
  0
LINE
  8
0
 10
379.5
 20
15
 11
379.524
 21
15.376
  0
LINE
  8
0
 10
379.524
 20
15.376
 11
379.594
 21
15.7461
  0
LINE
  8
0
 10
379.594
 20
15.7461
 11
379.711
 21
16.1044
  0
LINE
  8
0
 10
379.711
 20
16.1044
 11
379.871
 21
16.4453
  0
LINE
  8
0
 10
379.871
 20
16.4453
 11
380.073
 21
16.7634
  0
LINE
  8
0
 10
380.073
 20
16.7634
 11
380.313
 21
17.0536
  0
LINE
  8
0
 10
380.313
 20
17.0536
 11
380.588
 21
17.3115
  0
LINE
  8
0
 10
380.588
 20
17.3115
 11
380.893
 21
17.533
  0
LINE
  8
0
 10
380.893
 20
17.533
 11
381.223
 21
17.7145
  0
LINE
  8
0
 10
381.223
 20
17.7145
 11
381.573
 21
17.8532
  0
LINE
  8
0
 10
381.573
 20
17.8532
 11
381.938
 21
17.9469
  0
LINE
  8
0
 10
381.938
 20
17.9469
 11
382.312
 21
17.9941
  0
LINE
  8
0
 10
382.312
 20
17.9941
 11
382.688
 21
17.9941
  0
LINE
  8
0
 10
382.688
 20
17.9941
 11
383.062
 21
17.9469
  0
LINE
  8
0
 10
383.062
 20
17.9469
 11
383.427
 21
17.8532
  0
LINE
  8
0
 10
383.427
 20
17.8532
 11
383.777
 21
17.7145
  0
LINE
  8
0
 10
383.777
 20
17.7145
 11
384.107
 21
17.533
  0
LINE
  8
0
 10
384.107
 20
17.533
 11
384.412
 21
17.3115
  0
LINE
  8
0
 10
384.412
 20
17.3115
 11
384.687
 21
17.0536
  0
LINE
  8
0
 10
384.687
 20
17.0536
 11
384.927
 21
16.7634
  0
LINE
  8
0
 10
384.927
 20
16.7634
 11
385.129
 21
16.4453
  0
LINE
  8
0
 10
385.129
 20
16.4453
 11
385.289
 21
16.1044
  0
LINE
  8
0
 10
385.289
 20
16.1044
 11
385.406
 21
15.7461
  0
LINE
  8
0
 10
385.406
 20
15.7461
 11
385.476
 21
15.376
  0
LINE
  8
0
 10
385.476
 20
15.376
 11
385.5
 21
15
  0
LINE
  8
0
 10
385.5
 20
15
 11
385.476
 21
14.624
  0
LINE
  8
0
 10
385.476
 20
14.624
 11
385.406
 21
14.2539
  0
LINE
  8
0
 10
385.406
 20
14.2539
 11
385.289
 21
13.8956
  0
LINE
  8
0
 10
385.289
 20
13.8956
 11
385.129
 21
13.5547
  0
LINE
  8
0
 10
385.129
 20
13.5547
 11
384.927
 21
13.2366
  0
LINE
  8
0
 10
384.927
 20
13.2366
 11
384.687
 21
12.9464
  0
LINE
  8
0
 10
384.687
 20
12.9464
 11
384.412
 21
12.6884
  0
LINE
  8
0
 10
384.412
 20
12.6884
 11
384.107
 21
12.467
  0
LINE
  8
0
 10
384.107
 20
12.467
 11
383.777
 21
12.2855
  0
LINE
  8
0
 10
383.777
 20
12.2855
 11
383.427
 21
12.1468
  0
LINE
  8
0
 10
383.427
 20
12.1468
 11
383.062
 21
12.0531
  0
LINE
  8
0
 10
383.062
 20
12.0531
 11
382.688
 21
12.0059
  0
LINE
  8
0
 10
382.688
 20
12.0059
 11
382.312
 21
12.0059
  0
LINE
  8
0
 10
382.406
 20
6.00294
 11
382.219
 21
6.02657
  0
LINE
  8
0
 10
382.219
 20
6.02657
 11
382.036
 21
6.07341
  0
LINE
  8
0
 10
382.036
 20
6.07341
 11
381.861
 21
6.14275
  0
LINE
  8
0
 10
381.861
 20
6.14275
 11
381.696
 21
6.23351
  0
LINE
  8
0
 10
381.696
 20
6.23351
 11
381.544
 21
6.34422
  0
LINE
  8
0
 10
381.544
 20
6.34422
 11
381.407
 21
6.47318
  0
LINE
  8
0
 10
381.407
 20
6.47318
 11
381.286
 21
6.61832
  0
LINE
  8
0
 10
381.286
 20
6.61832
 11
381.186
 21
6.77736
  0
LINE
  8
0
 10
381.186
 20
6.77736
 11
381.105
 21
6.9478
  0
LINE
  8
0
 10
381.105
 20
6.9478
 11
381.047
 21
7.12695
  0
LINE
  8
0
 10
381.047
 20
7.12695
 11
381.012
 21
7.312
  0
LINE
  8
0
 10
381.012
 20
7.312
 11
381
 21
7.5
  0
LINE
  8
0
 10
381
 20
7.5
 11
381.012
 21
7.68799
  0
LINE
  8
0
 10
381.012
 20
7.68799
 11
381.047
 21
7.87303
  0
LINE
  8
0
 10
381.047
 20
7.87303
 11
381.105
 21
8.05219
  0
LINE
  8
0
 10
381.105
 20
8.05219
 11
381.186
 21
8.22263
  0
LINE
  8
0
 10
381.186
 20
8.22263
 11
381.286
 21
8.38167
  0
LINE
  8
0
 10
381.286
 20
8.38167
 11
381.407
 21
8.52681
  0
LINE
  8
0
 10
381.407
 20
8.52681
 11
381.544
 21
8.65576
  0
LINE
  8
0
 10
381.544
 20
8.65576
 11
381.696
 21
8.76648
  0
LINE
  8
0
 10
381.696
 20
8.76648
 11
381.861
 21
8.85724
  0
LINE
  8
0
 10
381.861
 20
8.85724
 11
382.036
 21
8.92657
  0
LINE
  8
0
 10
382.036
 20
8.92657
 11
382.219
 21
8.97342
  0
LINE
  8
0
 10
382.219
 20
8.97342
 11
382.406
 21
8.99704
  0
LINE
  8
0
 10
382.406
 20
8.99704
 11
382.594
 21
8.99704
  0
LINE
  8
0
 10
382.594
 20
8.99704
 11
382.781
 21
8.97342
  0
LINE
  8
0
 10
382.781
 20
8.97342
 11
382.964
 21
8.92657
  0
LINE
  8
0
 10
382.964
 20
8.92657
 11
383.139
 21
8.85724
  0
LINE
  8
0
 10
383.139
 20
8.85724
 11
383.304
 21
8.76648
  0
LINE
  8
0
 10
383.304
 20
8.76648
 11
383.456
 21
8.65576
  0
LINE
  8
0
 10
383.456
 20
8.65576
 11
383.593
 21
8.52681
  0
LINE
  8
0
 10
383.593
 20
8.52681
 11
383.714
 21
8.38167
  0
LINE
  8
0
 10
383.714
 20
8.38167
 11
383.814
 21
8.22263
  0
LINE
  8
0
 10
383.814
 20
8.22263
 11
383.895
 21
8.05219
  0
LINE
  8
0
 10
383.895
 20
8.05219
 11
383.953
 21
7.87303
  0
LINE
  8
0
 10
383.953
 20
7.87303
 11
383.988
 21
7.68799
  0
LINE
  8
0
 10
383.988
 20
7.68799
 11
384
 21
7.5
  0
LINE
  8
0
 10
384
 20
7.5
 11
383.988
 21
7.312
  0
LINE
  8
0
 10
383.988
 20
7.312
 11
383.953
 21
7.12695
  0
LINE
  8
0
 10
383.953
 20
7.12695
 11
383.895
 21
6.9478
  0
LINE
  8
0
 10
383.895
 20
6.9478
 11
383.814
 21
6.77736
  0
LINE
  8
0
 10
383.814
 20
6.77736
 11
383.714
 21
6.61832
  0
LINE
  8
0
 10
383.714
 20
6.61832
 11
383.593
 21
6.47318
  0
LINE
  8
0
 10
383.593
 20
6.47318
 11
383.456
 21
6.34422
  0
LINE
  8
0
 10
383.456
 20
6.34422
 11
383.304
 21
6.23351
  0
LINE
  8
0
 10
383.304
 20
6.23351
 11
383.139
 21
6.14275
  0
LINE
  8
0
 10
383.139
 20
6.14275
 11
382.964
 21
6.07341
  0
LINE
  8
0
 10
382.964
 20
6.07341
 11
382.781
 21
6.02657
  0
LINE
  8
0
 10
382.781
 20
6.02657
 11
382.594
 21
6.00294
  0
LINE
  8
0
 10
382.594
 20
6.00294
 11
382.406
 21
6.00294
  0
LINE
  8
0
 10
-382.594
 20
6.00294
 11
-382.781
 21
6.02657
  0
LINE
  8
0
 10
-382.781
 20
6.02657
 11
-382.964
 21
6.07341
  0
LINE
  8
0
 10
-382.964
 20
6.07341
 11
-383.139
 21
6.14275
  0
LINE
  8
0
 10
-383.139
 20
6.14275
 11
-383.304
 21
6.23351
  0
LINE
  8
0
 10
-383.304
 20
6.23351
 11
-383.456
 21
6.34422
  0
LINE
  8
0
 10
-383.456
 20
6.34422
 11
-383.593
 21
6.47318
  0
LINE
  8
0
 10
-383.593
 20
6.47318
 11
-383.714
 21
6.61832
  0
LINE
  8
0
 10
-383.714
 20
6.61832
 11
-383.814
 21
6.77736
  0
LINE
  8
0
 10
-383.814
 20
6.77736
 11
-383.895
 21
6.9478
  0
LINE
  8
0
 10
-383.895
 20
6.9478
 11
-383.953
 21
7.12695
  0
LINE
  8
0
 10
-383.953
 20
7.12695
 11
-383.988
 21
7.312
  0
LINE
  8
0
 10
-383.988
 20
7.312
 11
-384
 21
7.5
  0
LINE
  8
0
 10
-384
 20
7.5
 11
-383.988
 21
7.68799
  0
LINE
  8
0
 10
-383.988
 20
7.68799
 11
-383.953
 21
7.87303
  0
LINE
  8
0
 10
-383.953
 20
7.87303
 11
-383.895
 21
8.05219
  0
LINE
  8
0
 10
-383.895
 20
8.05219
 11
-383.814
 21
8.22263
  0
LINE
  8
0
 10
-383.814
 20
8.22263
 11
-383.714
 21
8.38167
  0
LINE
  8
0
 10
-383.714
 20
8.38167
 11
-383.593
 21
8.52681
  0
LINE
  8
0
 10
-383.593
 20
8.52681
 11
-383.456
 21
8.65576
  0
LINE
  8
0
 10
-383.456
 20
8.65576
 11
-383.304
 21
8.76648
  0
LINE
  8
0
 10
-383.304
 20
8.76648
 11
-383.139
 21
8.85724
  0
LINE
  8
0
 10
-383.139
 20
8.85724
 11
-382.964
 21
8.92657
  0
LINE
  8
0
 10
-382.964
 20
8.92657
 11
-382.781
 21
8.97342
  0
LINE
  8
0
 10
-382.781
 20
8.97342
 11
-382.594
 21
8.99704
  0
LINE
  8
0
 10
-382.594
 20
8.99704
 11
-382.406
 21
8.99704
  0
LINE
  8
0
 10
-382.406
 20
8.99704
 11
-382.219
 21
8.97342
  0
LINE
  8
0
 10
-382.219
 20
8.97342
 11
-382.036
 21
8.92657
  0
LINE
  8
0
 10
-382.036
 20
8.92657
 11
-381.861
 21
8.85724
  0
LINE
  8
0
 10
-381.861
 20
8.85724
 11
-381.696
 21
8.76648
  0
LINE
  8
0
 10
-381.696
 20
8.76648
 11
-381.544
 21
8.65576
  0
LINE
  8
0
 10
-381.544
 20
8.65576
 11
-381.407
 21
8.52681
  0
LINE
  8
0
 10
-381.407
 20
8.52681
 11
-381.286
 21
8.38167
  0
LINE
  8
0
 10
-381.286
 20
8.38167
 11
-381.186
 21
8.22263
  0
LINE
  8
0
 10
-381.186
 20
8.22263
 11
-381.105
 21
8.05219
  0
LINE
  8
0
 10
-381.105
 20
8.05219
 11
-381.047
 21
7.87303
  0
LINE
  8
0
 10
-381.047
 20
7.87303
 11
-381.012
 21
7.68799
  0
LINE
  8
0
 10
-381.012
 20
7.68799
 11
-381
 21
7.5
  0
LINE
  8
0
 10
-381
 20
7.5
 11
-381.012
 21
7.312
  0
LINE
  8
0
 10
-381.012
 20
7.312
 11
-381.047
 21
7.12695
  0
LINE
  8
0
 10
-381.047
 20
7.12695
 11
-381.105
 21
6.9478
  0
LINE
  8
0
 10
-381.105
 20
6.9478
 11
-381.186
 21
6.77736
  0
LINE
  8
0
 10
-381.186
 20
6.77736
 11
-381.286
 21
6.61832
  0
LINE
  8
0
 10
-381.286
 20
6.61832
 11
-381.407
 21
6.47318
  0
LINE
  8
0
 10
-381.407
 20
6.47318
 11
-381.544
 21
6.34422
  0
LINE
  8
0
 10
-381.544
 20
6.34422
 11
-381.696
 21
6.23351
  0
LINE
  8
0
 10
-381.696
 20
6.23351
 11
-381.861
 21
6.14275
  0
LINE
  8
0
 10
-381.861
 20
6.14275
 11
-382.036
 21
6.07341
  0
LINE
  8
0
 10
-382.036
 20
6.07341
 11
-382.219
 21
6.02657
  0
LINE
  8
0
 10
-382.219
 20
6.02657
 11
-382.406
 21
6.00294
  0
LINE
  8
0
 10
-382.406
 20
6.00294
 11
-382.594
 21
6.00294
  0
LINE
  8
0
 10
382.312
 20
-2.99408
 11
381.938
 21
-2.94685
  0
LINE
  8
0
 10
381.938
 20
-2.94685
 11
381.573
 21
-2.85316
  0
LINE
  8
0
 10
381.573
 20
-2.85316
 11
381.223
 21
-2.71448
  0
LINE
  8
0
 10
381.223
 20
-2.71448
 11
380.893
 21
-2.53297
  0
LINE
  8
0
 10
380.893
 20
-2.53297
 11
380.588
 21
-2.31154
  0
LINE
  8
0
 10
380.588
 20
-2.31154
 11
380.313
 21
-2.05363
  0
LINE
  8
0
 10
380.313
 20
-2.05363
 11
380.073
 21
-1.76335
  0
LINE
  8
0
 10
380.073
 20
-1.76335
 11
379.871
 21
-1.44525
  0
LINE
  8
0
 10
379.871
 20
-1.44525
 11
379.711
 21
-1.10437
  0
LINE
  8
0
 10
379.711
 20
-1.10437
 11
379.594
 21
-0.746063
  0
LINE
  8
0
 10
379.594
 20
-0.746063
 11
379.524
 21
-0.375992
  0
LINE
  8
0
 10
379.524
 20
-0.375992
 11
379.5
 21
0
  0
LINE
  8
0
 10
379.5
 20
0
 11
379.524
 21
0.375992
  0
LINE
  8
0
 10
379.524
 20
0.375992
 11
379.594
 21
0.746063
  0
LINE
  8
0
 10
379.594
 20
0.746063
 11
379.711
 21
1.10437
  0
LINE
  8
0
 10
379.711
 20
1.10437
 11
379.871
 21
1.44525
  0
LINE
  8
0
 10
379.871
 20
1.44525
 11
380.073
 21
1.76335
  0
LINE
  8
0
 10
380.073
 20
1.76335
 11
380.313
 21
2.05363
  0
LINE
  8
0
 10
380.313
 20
2.05363
 11
380.588
 21
2.31154
  0
LINE
  8
0
 10
380.588
 20
2.31154
 11
380.893
 21
2.53297
  0
LINE
  8
0
 10
380.893
 20
2.53297
 11
381.223
 21
2.71448
  0
LINE
  8
0
 10
381.223
 20
2.71448
 11
381.573
 21
2.85316
  0
LINE
  8
0
 10
381.573
 20
2.85316
 11
381.938
 21
2.94685
  0
LINE
  8
0
 10
381.938
 20
2.94685
 11
382.312
 21
2.99408
  0
LINE
  8
0
 10
382.312
 20
2.99408
 11
382.688
 21
2.99408
  0
LINE
  8
0
 10
382.688
 20
2.99408
 11
383.062
 21
2.94685
  0
LINE
  8
0
 10
383.062
 20
2.94685
 11
383.427
 21
2.85316
  0
LINE
  8
0
 10
383.427
 20
2.85316
 11
383.777
 21
2.71448
  0
LINE
  8
0
 10
383.777
 20
2.71448
 11
384.107
 21
2.53297
  0
LINE
  8
0
 10
384.107
 20
2.53297
 11
384.412
 21
2.31154
  0
LINE
  8
0
 10
384.412
 20
2.31154
 11
384.687
 21
2.05363
  0
LINE
  8
0
 10
384.687
 20
2.05363
 11
384.927
 21
1.76335
  0
LINE
  8
0
 10
384.927
 20
1.76335
 11
385.129
 21
1.44525
  0
LINE
  8
0
 10
385.129
 20
1.44525
 11
385.289
 21
1.10437
  0
LINE
  8
0
 10
385.289
 20
1.10437
 11
385.406
 21
0.746063
  0
LINE
  8
0
 10
385.406
 20
0.746063
 11
385.476
 21
0.375992
  0
LINE
  8
0
 10
385.476
 20
0.375992
 11
385.5
 21
0
  0
LINE
  8
0
 10
385.5
 20
0
 11
385.476
 21
-0.375992
  0
LINE
  8
0
 10
385.476
 20
-0.375992
 11
385.406
 21
-0.746063
  0
LINE
  8
0
 10
385.406
 20
-0.746063
 11
385.289
 21
-1.10437
  0
LINE
  8
0
 10
385.289
 20
-1.10437
 11
385.129
 21
-1.44525
  0
LINE
  8
0
 10
385.129
 20
-1.44525
 11
384.927
 21
-1.76335
  0
LINE
  8
0
 10
384.927
 20
-1.76335
 11
384.687
 21
-2.05363
  0
LINE
  8
0
 10
384.687
 20
-2.05363
 11
384.412
 21
-2.31154
  0
LINE
  8
0
 10
384.412
 20
-2.31154
 11
384.107
 21
-2.53297
  0
LINE
  8
0
 10
384.107
 20
-2.53297
 11
383.777
 21
-2.71448
  0
LINE
  8
0
 10
383.777
 20
-2.71448
 11
383.427
 21
-2.85316
  0
LINE
  8
0
 10
383.427
 20
-2.85316
 11
383.062
 21
-2.94685
  0
LINE
  8
0
 10
383.062
 20
-2.94685
 11
382.688
 21
-2.99408
  0
LINE
  8
0
 10
382.688
 20
-2.99408
 11
382.312
 21
-2.99408
  0
LINE
  8
0
 10
-382.688
 20
-2.99408
 11
-383.062
 21
-2.94685
  0
LINE
  8
0
 10
-383.062
 20
-2.94685
 11
-383.427
 21
-2.85316
  0
LINE
  8
0
 10
-383.427
 20
-2.85316
 11
-383.777
 21
-2.71448
  0
LINE
  8
0
 10
-383.777
 20
-2.71448
 11
-384.107
 21
-2.53297
  0
LINE
  8
0
 10
-384.107
 20
-2.53297
 11
-384.412
 21
-2.31154
  0
LINE
  8
0
 10
-384.412
 20
-2.31154
 11
-384.687
 21
-2.05363
  0
LINE
  8
0
 10
-384.687
 20
-2.05363
 11
-384.927
 21
-1.76335
  0
LINE
  8
0
 10
-384.927
 20
-1.76335
 11
-385.129
 21
-1.44525
  0
LINE
  8
0
 10
-385.129
 20
-1.44525
 11
-385.289
 21
-1.10437
  0
LINE
  8
0
 10
-385.289
 20
-1.10437
 11
-385.406
 21
-0.746063
  0
LINE
  8
0
 10
-385.406
 20
-0.746063
 11
-385.476
 21
-0.375992
  0
LINE
  8
0
 10
-385.476
 20
-0.375992
 11
-385.5
 21
0
  0
LINE
  8
0
 10
-385.5
 20
0
 11
-385.476
 21
0.375992
  0
LINE
  8
0
 10
-385.476
 20
0.375992
 11
-385.406
 21
0.746063
  0
LINE
  8
0
 10
-385.406
 20
0.746063
 11
-385.289
 21
1.10437
  0
LINE
  8
0
 10
-385.289
 20
1.10437
 11
-385.129
 21
1.44525
  0
LINE
  8
0
 10
-385.129
 20
1.44525
 11
-384.927
 21
1.76335
  0
LINE
  8
0
 10
-384.927
 20
1.76335
 11
-384.687
 21
2.05363
  0
LINE
  8
0
 10
-384.687
 20
2.05363
 11
-384.412
 21
2.31154
  0
LINE
  8
0
 10
-384.412
 20
2.31154
 11
-384.107
 21
2.53297
  0
LINE
  8
0
 10
-384.107
 20
2.53297
 11
-383.777
 21
2.71448
  0
LINE
  8
0
 10
-383.777
 20
2.71448
 11
-383.427
 21
2.85316
  0
LINE
  8
0
 10
-383.427
 20
2.85316
 11
-383.062
 21
2.94685
  0
LINE
  8
0
 10
-383.062
 20
2.94685
 11
-382.688
 21
2.99408
  0
LINE
  8
0
 10
-382.688
 20
2.99408
 11
-382.312
 21
2.99408
  0
LINE
  8
0
 10
-382.312
 20
2.99408
 11
-381.938
 21
2.94685
  0
LINE
  8
0
 10
-381.938
 20
2.94685
 11
-381.573
 21
2.85316
  0
LINE
  8
0
 10
-381.573
 20
2.85316
 11
-381.223
 21
2.71448
  0
LINE
  8
0
 10
-381.223
 20
2.71448
 11
-380.893
 21
2.53297
  0
LINE
  8
0
 10
-380.893
 20
2.53297
 11
-380.588
 21
2.31154
  0
LINE
  8
0
 10
-380.588
 20
2.31154
 11
-380.313
 21
2.05363
  0
LINE
  8
0
 10
-380.313
 20
2.05363
 11
-380.073
 21
1.76335
  0
LINE
  8
0
 10
-380.073
 20
1.76335
 11
-379.871
 21
1.44525
  0
LINE
  8
0
 10
-379.871
 20
1.44525
 11
-379.711
 21
1.10437
  0
LINE
  8
0
 10
-379.711
 20
1.10437
 11
-379.594
 21
0.746063
  0
LINE
  8
0
 10
-379.594
 20
0.746063
 11
-379.524
 21
0.375992
  0
LINE
  8
0
 10
-379.524
 20
0.375992
 11
-379.5
 21
0
  0
LINE
  8
0
 10
-379.5
 20
0
 11
-379.524
 21
-0.375992
  0
LINE
  8
0
 10
-379.524
 20
-0.375992
 11
-379.594
 21
-0.746063
  0
LINE
  8
0
 10
-379.594
 20
-0.746063
 11
-379.711
 21
-1.10437
  0
LINE
  8
0
 10
-379.711
 20
-1.10437
 11
-379.871
 21
-1.44525
  0
LINE
  8
0
 10
-379.871
 20
-1.44525
 11
-380.073
 21
-1.76335
  0
LINE
  8
0
 10
-380.073
 20
-1.76335
 11
-380.313
 21
-2.05363
  0
LINE
  8
0
 10
-380.313
 20
-2.05363
 11
-380.588
 21
-2.31154
  0
LINE
  8
0
 10
-380.588
 20
-2.31154
 11
-380.893
 21
-2.53297
  0
LINE
  8
0
 10
-380.893
 20
-2.53297
 11
-381.223
 21
-2.71448
  0
LINE
  8
0
 10
-381.223
 20
-2.71448
 11
-381.573
 21
-2.85316
  0
LINE
  8
0
 10
-381.573
 20
-2.85316
 11
-381.938
 21
-2.94685
  0
LINE
  8
0
 10
-381.938
 20
-2.94685
 11
-382.312
 21
-2.99408
  0
LINE
  8
0
 10
-382.312
 20
-2.99408
 11
-382.688
 21
-2.99408
  0
LINE
  8
0
 10
382.406
 20
-8.99704
 11
382.219
 21
-8.97342
  0
LINE
  8
0
 10
382.219
 20
-8.97342
 11
382.036
 21
-8.92657
  0
LINE
  8
0
 10
382.036
 20
-8.92657
 11
381.861
 21
-8.85724
  0
LINE
  8
0
 10
381.861
 20
-8.85724
 11
381.696
 21
-8.76648
  0
LINE
  8
0
 10
381.696
 20
-8.76648
 11
381.544
 21
-8.65576
  0
LINE
  8
0
 10
381.544
 20
-8.65576
 11
381.407
 21
-8.52681
  0
LINE
  8
0
 10
381.407
 20
-8.52681
 11
381.286
 21
-8.38167
  0
LINE
  8
0
 10
381.286
 20
-8.38167
 11
381.186
 21
-8.22263
  0
LINE
  8
0
 10
381.186
 20
-8.22263
 11
381.105
 21
-8.05219
  0
LINE
  8
0
 10
381.105
 20
-8.05219
 11
381.047
 21
-7.87303
  0
LINE
  8
0
 10
381.047
 20
-7.87303
 11
381.012
 21
-7.68799
  0
LINE
  8
0
 10
381.012
 20
-7.68799
 11
381
 21
-7.5
  0
LINE
  8
0
 10
381
 20
-7.5
 11
381.012
 21
-7.312
  0
LINE
  8
0
 10
381.012
 20
-7.312
 11
381.047
 21
-7.12695
  0
LINE
  8
0
 10
381.047
 20
-7.12695
 11
381.105
 21
-6.9478
  0
LINE
  8
0
 10
381.105
 20
-6.9478
 11
381.186
 21
-6.77736
  0
LINE
  8
0
 10
381.186
 20
-6.77736
 11
381.286
 21
-6.61832
  0
LINE
  8
0
 10
381.286
 20
-6.61832
 11
381.407
 21
-6.47318
  0
LINE
  8
0
 10
381.407
 20
-6.47318
 11
381.544
 21
-6.34422
  0
LINE
  8
0
 10
381.544
 20
-6.34422
 11
381.696
 21
-6.23351
  0
LINE
  8
0
 10
381.696
 20
-6.23351
 11
381.861
 21
-6.14275
  0
LINE
  8
0
 10
381.861
 20
-6.14275
 11
382.036
 21
-6.07341
  0
LINE
  8
0
 10
382.036
 20
-6.07341
 11
382.219
 21
-6.02657
  0
LINE
  8
0
 10
382.219
 20
-6.02657
 11
382.406
 21
-6.00294
  0
LINE
  8
0
 10
382.406
 20
-6.00294
 11
382.594
 21
-6.00294
  0
LINE
  8
0
 10
382.594
 20
-6.00294
 11
382.781
 21
-6.02657
  0
LINE
  8
0
 10
382.781
 20
-6.02657
 11
382.964
 21
-6.07341
  0
LINE
  8
0
 10
382.964
 20
-6.07341
 11
383.139
 21
-6.14275
  0
LINE
  8
0
 10
383.139
 20
-6.14275
 11
383.304
 21
-6.23351
  0
LINE
  8
0
 10
383.304
 20
-6.23351
 11
383.456
 21
-6.34422
  0
LINE
  8
0
 10
383.456
 20
-6.34422
 11
383.593
 21
-6.47318
  0
LINE
  8
0
 10
383.593
 20
-6.47318
 11
383.714
 21
-6.61832
  0
LINE
  8
0
 10
383.714
 20
-6.61832
 11
383.814
 21
-6.77736
  0
LINE
  8
0
 10
383.814
 20
-6.77736
 11
383.895
 21
-6.9478
  0
LINE
  8
0
 10
383.895
 20
-6.9478
 11
383.953
 21
-7.12695
  0
LINE
  8
0
 10
383.953
 20
-7.12695
 11
383.988
 21
-7.312
  0
LINE
  8
0
 10
383.988
 20
-7.312
 11
384
 21
-7.5
  0
LINE
  8
0
 10
384
 20
-7.5
 11
383.988
 21
-7.68799
  0
LINE
  8
0
 10
383.988
 20
-7.68799
 11
383.953
 21
-7.87303
  0
LINE
  8
0
 10
383.953
 20
-7.87303
 11
383.895
 21
-8.05219
  0
LINE
  8
0
 10
383.895
 20
-8.05219
 11
383.814
 21
-8.22263
  0
LINE
  8
0
 10
383.814
 20
-8.22263
 11
383.714
 21
-8.38167
  0
LINE
  8
0
 10
383.714
 20
-8.38167
 11
383.593
 21
-8.52681
  0
LINE
  8
0
 10
383.593
 20
-8.52681
 11
383.456
 21
-8.65576
  0
LINE
  8
0
 10
383.456
 20
-8.65576
 11
383.304
 21
-8.76648
  0
LINE
  8
0
 10
383.304
 20
-8.76648
 11
383.139
 21
-8.85724
  0
LINE
  8
0
 10
383.139
 20
-8.85724
 11
382.964
 21
-8.92657
  0
LINE
  8
0
 10
382.964
 20
-8.92657
 11
382.781
 21
-8.97342
  0
LINE
  8
0
 10
382.781
 20
-8.97342
 11
382.594
 21
-8.99704
  0
LINE
  8
0
 10
382.594
 20
-8.99704
 11
382.406
 21
-8.99704
  0
LINE
  8
0
 10
-382.594
 20
-8.99704
 11
-382.781
 21
-8.97342
  0
LINE
  8
0
 10
-382.781
 20
-8.97342
 11
-382.964
 21
-8.92657
  0
LINE
  8
0
 10
-382.964
 20
-8.92657
 11
-383.139
 21
-8.85724
  0
LINE
  8
0
 10
-383.139
 20
-8.85724
 11
-383.304
 21
-8.76648
  0
LINE
  8
0
 10
-383.304
 20
-8.76648
 11
-383.456
 21
-8.65576
  0
LINE
  8
0
 10
-383.456
 20
-8.65576
 11
-383.593
 21
-8.52681
  0
LINE
  8
0
 10
-383.593
 20
-8.52681
 11
-383.714
 21
-8.38167
  0
LINE
  8
0
 10
-383.714
 20
-8.38167
 11
-383.814
 21
-8.22263
  0
LINE
  8
0
 10
-383.814
 20
-8.22263
 11
-383.895
 21
-8.05219
  0
LINE
  8
0
 10
-383.895
 20
-8.05219
 11
-383.953
 21
-7.87303
  0
LINE
  8
0
 10
-383.953
 20
-7.87303
 11
-383.988
 21
-7.68799
  0
LINE
  8
0
 10
-383.988
 20
-7.68799
 11
-384
 21
-7.5
  0
LINE
  8
0
 10
-384
 20
-7.5
 11
-383.988
 21
-7.312
  0
LINE
  8
0
 10
-383.988
 20
-7.312
 11
-383.953
 21
-7.12695
  0
LINE
  8
0
 10
-383.953
 20
-7.12695
 11
-383.895
 21
-6.9478
  0
LINE
  8
0
 10
-383.895
 20
-6.9478
 11
-383.814
 21
-6.77736
  0
LINE
  8
0
 10
-383.814
 20
-6.77736
 11
-383.714
 21
-6.61832
  0
LINE
  8
0
 10
-383.714
 20
-6.61832
 11
-383.593
 21
-6.47318
  0
LINE
  8
0
 10
-383.593
 20
-6.47318
 11
-383.456
 21
-6.34422
  0
LINE
  8
0
 10
-383.456
 20
-6.34422
 11
-383.304
 21
-6.23351
  0
LINE
  8
0
 10
-383.304
 20
-6.23351
 11
-383.139
 21
-6.14275
  0
LINE
  8
0
 10
-383.139
 20
-6.14275
 11
-382.964
 21
-6.07341
  0
LINE
  8
0
 10
-382.964
 20
-6.07341
 11
-382.781
 21
-6.02657
  0
LINE
  8
0
 10
-382.781
 20
-6.02657
 11
-382.594
 21
-6.00294
  0
LINE
  8
0
 10
-382.594
 20
-6.00294
 11
-382.406
 21
-6.00294
  0
LINE
  8
0
 10
-382.406
 20
-6.00294
 11
-382.219
 21
-6.02657
  0
LINE
  8
0
 10
-382.219
 20
-6.02657
 11
-382.036
 21
-6.07341
  0
LINE
  8
0
 10
-382.036
 20
-6.07341
 11
-381.861
 21
-6.14275
  0
LINE
  8
0
 10
-381.861
 20
-6.14275
 11
-381.696
 21
-6.23351
  0
LINE
  8
0
 10
-381.696
 20
-6.23351
 11
-381.544
 21
-6.34422
  0
LINE
  8
0
 10
-381.544
 20
-6.34422
 11
-381.407
 21
-6.47318
  0
LINE
  8
0
 10
-381.407
 20
-6.47318
 11
-381.286
 21
-6.61832
  0
LINE
  8
0
 10
-381.286
 20
-6.61832
 11
-381.186
 21
-6.77736
  0
LINE
  8
0
 10
-381.186
 20
-6.77736
 11
-381.105
 21
-6.9478
  0
LINE
  8
0
 10
-381.105
 20
-6.9478
 11
-381.047
 21
-7.12695
  0
LINE
  8
0
 10
-381.047
 20
-7.12695
 11
-381.012
 21
-7.312
  0
LINE
  8
0
 10
-381.012
 20
-7.312
 11
-381
 21
-7.5
  0
LINE
  8
0
 10
-381
 20
-7.5
 11
-381.012
 21
-7.68799
  0
LINE
  8
0
 10
-381.012
 20
-7.68799
 11
-381.047
 21
-7.87303
  0
LINE
  8
0
 10
-381.047
 20
-7.87303
 11
-381.105
 21
-8.05219
  0
LINE
  8
0
 10
-381.105
 20
-8.05219
 11
-381.186
 21
-8.22263
  0
LINE
  8
0
 10
-381.186
 20
-8.22263
 11
-381.286
 21
-8.38167
  0
LINE
  8
0
 10
-381.286
 20
-8.38167
 11
-381.407
 21
-8.52681
  0
LINE
  8
0
 10
-381.407
 20
-8.52681
 11
-381.544
 21
-8.65576
  0
LINE
  8
0
 10
-381.544
 20
-8.65576
 11
-381.696
 21
-8.76648
  0
LINE
  8
0
 10
-381.696
 20
-8.76648
 11
-381.861
 21
-8.85724
  0
LINE
  8
0
 10
-381.861
 20
-8.85724
 11
-382.036
 21
-8.92657
  0
LINE
  8
0
 10
-382.036
 20
-8.92657
 11
-382.219
 21
-8.97342
  0
LINE
  8
0
 10
-382.219
 20
-8.97342
 11
-382.406
 21
-8.99704
  0
LINE
  8
0
 10
-382.406
 20
-8.99704
 11
-382.594
 21
-8.99704
  0
LINE
  8
0
 10
382.312
 20
-17.9941
 11
381.938
 21
-17.9469
  0
LINE
  8
0
 10
381.938
 20
-17.9469
 11
381.573
 21
-17.8532
  0
LINE
  8
0
 10
381.573
 20
-17.8532
 11
381.223
 21
-17.7145
  0
LINE
  8
0
 10
381.223
 20
-17.7145
 11
380.893
 21
-17.533
  0
LINE
  8
0
 10
380.893
 20
-17.533
 11
380.588
 21
-17.3115
  0
LINE
  8
0
 10
380.588
 20
-17.3115
 11
380.313
 21
-17.0536
  0
LINE
  8
0
 10
380.313
 20
-17.0536
 11
380.073
 21
-16.7634
  0
LINE
  8
0
 10
380.073
 20
-16.7634
 11
379.871
 21
-16.4453
  0
LINE
  8
0
 10
379.871
 20
-16.4453
 11
379.711
 21
-16.1044
  0
LINE
  8
0
 10
379.711
 20
-16.1044
 11
379.594
 21
-15.7461
  0
LINE
  8
0
 10
379.594
 20
-15.7461
 11
379.524
 21
-15.376
  0
LINE
  8
0
 10
379.524
 20
-15.376
 11
379.5
 21
-15
  0
LINE
  8
0
 10
379.5
 20
-15
 11
379.524
 21
-14.624
  0
LINE
  8
0
 10
379.524
 20
-14.624
 11
379.594
 21
-14.2539
  0
LINE
  8
0
 10
379.594
 20
-14.2539
 11
379.711
 21
-13.8956
  0
LINE
  8
0
 10
379.711
 20
-13.8956
 11
379.871
 21
-13.5547
  0
LINE
  8
0
 10
379.871
 20
-13.5547
 11
380.073
 21
-13.2366
  0
LINE
  8
0
 10
380.073
 20
-13.2366
 11
380.313
 21
-12.9464
  0
LINE
  8
0
 10
380.313
 20
-12.9464
 11
380.588
 21
-12.6884
  0
LINE
  8
0
 10
380.588
 20
-12.6884
 11
380.893
 21
-12.467
  0
LINE
  8
0
 10
380.893
 20
-12.467
 11
381.223
 21
-12.2855
  0
LINE
  8
0
 10
381.223
 20
-12.2855
 11
381.573
 21
-12.1468
  0
LINE
  8
0
 10
381.573
 20
-12.1468
 11
381.938
 21
-12.0531
  0
LINE
  8
0
 10
381.938
 20
-12.0531
 11
382.312
 21
-12.0059
  0
LINE
  8
0
 10
382.312
 20
-12.0059
 11
382.688
 21
-12.0059
  0
LINE
  8
0
 10
382.688
 20
-12.0059
 11
383.062
 21
-12.0531
  0
LINE
  8
0
 10
383.062
 20
-12.0531
 11
383.427
 21
-12.1468
  0
LINE
  8
0
 10
383.427
 20
-12.1468
 11
383.777
 21
-12.2855
  0
LINE
  8
0
 10
383.777
 20
-12.2855
 11
384.107
 21
-12.467
  0
LINE
  8
0
 10
384.107
 20
-12.467
 11
384.412
 21
-12.6884
  0
LINE
  8
0
 10
384.412
 20
-12.6884
 11
384.687
 21
-12.9464
  0
LINE
  8
0
 10
384.687
 20
-12.9464
 11
384.927
 21
-13.2366
  0
LINE
  8
0
 10
384.927
 20
-13.2366
 11
385.129
 21
-13.5547
  0
LINE
  8
0
 10
385.129
 20
-13.5547
 11
385.289
 21
-13.8956
  0
LINE
  8
0
 10
385.289
 20
-13.8956
 11
385.406
 21
-14.2539
  0
LINE
  8
0
 10
385.406
 20
-14.2539
 11
385.476
 21
-14.624
  0
LINE
  8
0
 10
385.476
 20
-14.624
 11
385.5
 21
-15
  0
LINE
  8
0
 10
385.5
 20
-15
 11
385.476
 21
-15.376
  0
LINE
  8
0
 10
385.476
 20
-15.376
 11
385.406
 21
-15.7461
  0
LINE
  8
0
 10
385.406
 20
-15.7461
 11
385.289
 21
-16.1044
  0
LINE
  8
0
 10
385.289
 20
-16.1044
 11
385.129
 21
-16.4453
  0
LINE
  8
0
 10
385.129
 20
-16.4453
 11
384.927
 21
-16.7634
  0
LINE
  8
0
 10
384.927
 20
-16.7634
 11
384.687
 21
-17.0536
  0
LINE
  8
0
 10
384.687
 20
-17.0536
 11
384.412
 21
-17.3115
  0
LINE
  8
0
 10
384.412
 20
-17.3115
 11
384.107
 21
-17.533
  0
LINE
  8
0
 10
384.107
 20
-17.533
 11
383.777
 21
-17.7145
  0
LINE
  8
0
 10
383.777
 20
-17.7145
 11
383.427
 21
-17.8532
  0
LINE
  8
0
 10
383.427
 20
-17.8532
 11
383.062
 21
-17.9469
  0
LINE
  8
0
 10
383.062
 20
-17.9469
 11
382.688
 21
-17.9941
  0
LINE
  8
0
 10
382.688
 20
-17.9941
 11
382.312
 21
-17.9941
  0
LINE
  8
0
 10
-382.688
 20
-17.9941
 11
-383.062
 21
-17.9469
  0
LINE
  8
0
 10
-383.062
 20
-17.9469
 11
-383.427
 21
-17.8532
  0
LINE
  8
0
 10
-383.427
 20
-17.8532
 11
-383.777
 21
-17.7145
  0
LINE
  8
0
 10
-383.777
 20
-17.7145
 11
-384.107
 21
-17.533
  0
LINE
  8
0
 10
-384.107
 20
-17.533
 11
-384.412
 21
-17.3115
  0
LINE
  8
0
 10
-384.412
 20
-17.3115
 11
-384.687
 21
-17.0536
  0
LINE
  8
0
 10
-384.687
 20
-17.0536
 11
-384.927
 21
-16.7634
  0
LINE
  8
0
 10
-384.927
 20
-16.7634
 11
-385.129
 21
-16.4453
  0
LINE
  8
0
 10
-385.129
 20
-16.4453
 11
-385.289
 21
-16.1044
  0
LINE
  8
0
 10
-385.289
 20
-16.1044
 11
-385.406
 21
-15.7461
  0
LINE
  8
0
 10
-385.406
 20
-15.7461
 11
-385.476
 21
-15.376
  0
LINE
  8
0
 10
-385.476
 20
-15.376
 11
-385.5
 21
-15
  0
LINE
  8
0
 10
-385.5
 20
-15
 11
-385.476
 21
-14.624
  0
LINE
  8
0
 10
-385.476
 20
-14.624
 11
-385.406
 21
-14.2539
  0
LINE
  8
0
 10
-385.406
 20
-14.2539
 11
-385.289
 21
-13.8956
  0
LINE
  8
0
 10
-385.289
 20
-13.8956
 11
-385.129
 21
-13.5547
  0
LINE
  8
0
 10
-385.129
 20
-13.5547
 11
-384.927
 21
-13.2366
  0
LINE
  8
0
 10
-384.927
 20
-13.2366
 11
-384.687
 21
-12.9464
  0
LINE
  8
0
 10
-384.687
 20
-12.9464
 11
-384.412
 21
-12.6884
  0
LINE
  8
0
 10
-384.412
 20
-12.6884
 11
-384.107
 21
-12.467
  0
LINE
  8
0
 10
-384.107
 20
-12.467
 11
-383.777
 21
-12.2855
  0
LINE
  8
0
 10
-383.777
 20
-12.2855
 11
-383.427
 21
-12.1468
  0
LINE
  8
0
 10
-383.427
 20
-12.1468
 11
-383.062
 21
-12.0531
  0
LINE
  8
0
 10
-383.062
 20
-12.0531
 11
-382.688
 21
-12.0059
  0
LINE
  8
0
 10
-382.688
 20
-12.0059
 11
-382.312
 21
-12.0059
  0
LINE
  8
0
 10
-382.312
 20
-12.0059
 11
-381.938
 21
-12.0531
  0
LINE
  8
0
 10
-381.938
 20
-12.0531
 11
-381.573
 21
-12.1468
  0
LINE
  8
0
 10
-381.573
 20
-12.1468
 11
-381.223
 21
-12.2855
  0
LINE
  8
0
 10
-381.223
 20
-12.2855
 11
-380.893
 21
-12.467
  0
LINE
  8
0
 10
-380.893
 20
-12.467
 11
-380.588
 21
-12.6884
  0
LINE
  8
0
 10
-380.588
 20
-12.6884
 11
-380.313
 21
-12.9464
  0
LINE
  8
0
 10
-380.313
 20
-12.9464
 11
-380.073
 21
-13.2366
  0
LINE
  8
0
 10
-380.073
 20
-13.2366
 11
-379.871
 21
-13.5547
  0
LINE
  8
0
 10
-379.871
 20
-13.5547
 11
-379.711
 21
-13.8956
  0
LINE
  8
0
 10
-379.711
 20
-13.8956
 11
-379.594
 21
-14.2539
  0
LINE
  8
0
 10
-379.594
 20
-14.2539
 11
-379.524
 21
-14.624
  0
LINE
  8
0
 10
-379.524
 20
-14.624
 11
-379.5
 21
-15
  0
LINE
  8
0
 10
-379.5
 20
-15
 11
-379.524
 21
-15.376
  0
LINE
  8
0
 10
-379.524
 20
-15.376
 11
-379.594
 21
-15.7461
  0
LINE
  8
0
 10
-379.594
 20
-15.7461
 11
-379.711
 21
-16.1044
  0
LINE
  8
0
 10
-379.711
 20
-16.1044
 11
-379.871
 21
-16.4453
  0
LINE
  8
0
 10
-379.871
 20
-16.4453
 11
-380.073
 21
-16.7634
  0
LINE
  8
0
 10
-380.073
 20
-16.7634
 11
-380.313
 21
-17.0536
  0
LINE
  8
0
 10
-380.313
 20
-17.0536
 11
-380.588
 21
-17.3115
  0
LINE
  8
0
 10
-380.588
 20
-17.3115
 11
-380.893
 21
-17.533
  0
LINE
  8
0
 10
-380.893
 20
-17.533
 11
-381.223
 21
-17.7145
  0
LINE
  8
0
 10
-381.223
 20
-17.7145
 11
-381.573
 21
-17.8532
  0
LINE
  8
0
 10
-381.573
 20
-17.8532
 11
-381.938
 21
-17.9469
  0
LINE
  8
0
 10
-381.938
 20
-17.9469
 11
-382.312
 21
-17.9941
  0
LINE
  8
0
 10
-382.312
 20
-17.9941
 11
-382.688
 21
-17.9941
  0
LINE
  8
0
 10
-382.594
 20
-23.997
 11
-382.781
 21
-23.9734
  0
LINE
  8
0
 10
-382.781
 20
-23.9734
 11
-382.964
 21
-23.9266
  0
LINE
  8
0
 10
-382.964
 20
-23.9266
 11
-383.139
 21
-23.8572
  0
LINE
  8
0
 10
-383.139
 20
-23.8572
 11
-383.304
 21
-23.7665
  0
LINE
  8
0
 10
-383.304
 20
-23.7665
 11
-383.456
 21
-23.6558
  0
LINE
  8
0
 10
-383.456
 20
-23.6558
 11
-383.593
 21
-23.5268
  0
LINE
  8
0
 10
-383.593
 20
-23.5268
 11
-383.714
 21
-23.3817
  0
LINE
  8
0
 10
-383.714
 20
-23.3817
 11
-383.814
 21
-23.2226
  0
LINE
  8
0
 10
-383.814
 20
-23.2226
 11
-383.895
 21
-23.0522
  0
LINE
  8
0
 10
-383.895
 20
-23.0522
 11
-383.953
 21
-22.873
  0
LINE
  8
0
 10
-383.953
 20
-22.873
 11
-383.988
 21
-22.688
  0
LINE
  8
0
 10
-383.988
 20
-22.688
 11
-384
 21
-22.5
  0
LINE
  8
0
 10
-384
 20
-22.5
 11
-383.988
 21
-22.312
  0
LINE
  8
0
 10
-383.988
 20
-22.312
 11
-383.953
 21
-22.127
  0
LINE
  8
0
 10
-383.953
 20
-22.127
 11
-383.895
 21
-21.9478
  0
LINE
  8
0
 10
-383.895
 20
-21.9478
 11
-383.814
 21
-21.7774
  0
LINE
  8
0
 10
-383.814
 20
-21.7774
 11
-383.714
 21
-21.6183
  0
LINE
  8
0
 10
-383.714
 20
-21.6183
 11
-383.593
 21
-21.4732
  0
LINE
  8
0
 10
-383.593
 20
-21.4732
 11
-383.456
 21
-21.3442
  0
LINE
  8
0
 10
-383.456
 20
-21.3442
 11
-383.304
 21
-21.2335
  0
LINE
  8
0
 10
-383.304
 20
-21.2335
 11
-383.139
 21
-21.1427
  0
LINE
  8
0
 10
-383.139
 20
-21.1427
 11
-382.964
 21
-21.0734
  0
LINE
  8
0
 10
-382.964
 20
-21.0734
 11
-382.781
 21
-21.0266
  0
LINE
  8
0
 10
-382.781
 20
-21.0266
 11
-382.594
 21
-21.003
  0
LINE
  8
0
 10
-382.594
 20
-21.003
 11
-382.406
 21
-21.003
  0
LINE
  8
0
 10
-382.406
 20
-21.003
 11
-382.219
 21
-21.0266
  0
LINE
  8
0
 10
-382.219
 20
-21.0266
 11
-382.036
 21
-21.0734
  0
LINE
  8
0
 10
-382.036
 20
-21.0734
 11
-381.861
 21
-21.1427
  0
LINE
  8
0
 10
-381.861
 20
-21.1427
 11
-381.696
 21
-21.2335
  0
LINE
  8
0
 10
-381.696
 20
-21.2335
 11
-381.544
 21
-21.3442
  0
LINE
  8
0
 10
-381.544
 20
-21.3442
 11
-381.407
 21
-21.4732
  0
LINE
  8
0
 10
-381.407
 20
-21.4732
 11
-381.286
 21
-21.6183
  0
LINE
  8
0
 10
-381.286
 20
-21.6183
 11
-381.186
 21
-21.7774
  0
LINE
  8
0
 10
-381.186
 20
-21.7774
 11
-381.105
 21
-21.9478
  0
LINE
  8
0
 10
-381.105
 20
-21.9478
 11
-381.047
 21
-22.127
  0
LINE
  8
0
 10
-381.047
 20
-22.127
 11
-381.012
 21
-22.312
  0
LINE
  8
0
 10
-381.012
 20
-22.312
 11
-381
 21
-22.5
  0
LINE
  8
0
 10
-381
 20
-22.5
 11
-381.012
 21
-22.688
  0
LINE
  8
0
 10
-381.012
 20
-22.688
 11
-381.047
 21
-22.873
  0
LINE
  8
0
 10
-381.047
 20
-22.873
 11
-381.105
 21
-23.0522
  0
LINE
  8
0
 10
-381.105
 20
-23.0522
 11
-381.186
 21
-23.2226
  0
LINE
  8
0
 10
-381.186
 20
-23.2226
 11
-381.286
 21
-23.3817
  0
LINE
  8
0
 10
-381.286
 20
-23.3817
 11
-381.407
 21
-23.5268
  0
LINE
  8
0
 10
-381.407
 20
-23.5268
 11
-381.544
 21
-23.6558
  0
LINE
  8
0
 10
-381.544
 20
-23.6558
 11
-381.696
 21
-23.7665
  0
LINE
  8
0
 10
-381.696
 20
-23.7665
 11
-381.861
 21
-23.8572
  0
LINE
  8
0
 10
-381.861
 20
-23.8572
 11
-382.036
 21
-23.9266
  0
LINE
  8
0
 10
-382.036
 20
-23.9266
 11
-382.219
 21
-23.9734
  0
LINE
  8
0
 10
-382.219
 20
-23.9734
 11
-382.406
 21
-23.997
  0
LINE
  8
0
 10
-382.406
 20
-23.997
 11
-382.594
 21
-23.997
  0
LINE
  8
0
 10
382.406
 20
-23.997
 11
382.219
 21
-23.9734
  0
LINE
  8
0
 10
382.219
 20
-23.9734
 11
382.036
 21
-23.9266
  0
LINE
  8
0
 10
382.036
 20
-23.9266
 11
381.861
 21
-23.8572
  0
LINE
  8
0
 10
381.861
 20
-23.8572
 11
381.696
 21
-23.7665
  0
LINE
  8
0
 10
381.696
 20
-23.7665
 11
381.544
 21
-23.6558
  0
LINE
  8
0
 10
381.544
 20
-23.6558
 11
381.407
 21
-23.5268
  0
LINE
  8
0
 10
381.407
 20
-23.5268
 11
381.286
 21
-23.3817
  0
LINE
  8
0
 10
381.286
 20
-23.3817
 11
381.186
 21
-23.2226
  0
LINE
  8
0
 10
381.186
 20
-23.2226
 11
381.105
 21
-23.0522
  0
LINE
  8
0
 10
381.105
 20
-23.0522
 11
381.047
 21
-22.873
  0
LINE
  8
0
 10
381.047
 20
-22.873
 11
381.012
 21
-22.688
  0
LINE
  8
0
 10
381.012
 20
-22.688
 11
381
 21
-22.5
  0
LINE
  8
0
 10
381
 20
-22.5
 11
381.012
 21
-22.312
  0
LINE
  8
0
 10
381.012
 20
-22.312
 11
381.047
 21
-22.127
  0
LINE
  8
0
 10
381.047
 20
-22.127
 11
381.105
 21
-21.9478
  0
LINE
  8
0
 10
381.105
 20
-21.9478
 11
381.186
 21
-21.7774
  0
LINE
  8
0
 10
381.186
 20
-21.7774
 11
381.286
 21
-21.6183
  0
LINE
  8
0
 10
381.286
 20
-21.6183
 11
381.407
 21
-21.4732
  0
LINE
  8
0
 10
381.407
 20
-21.4732
 11
381.544
 21
-21.3442
  0
LINE
  8
0
 10
381.544
 20
-21.3442
 11
381.696
 21
-21.2335
  0
LINE
  8
0
 10
381.696
 20
-21.2335
 11
381.861
 21
-21.1427
  0
LINE
  8
0
 10
381.861
 20
-21.1427
 11
382.036
 21
-21.0734
  0
LINE
  8
0
 10
382.036
 20
-21.0734
 11
382.219
 21
-21.0266
  0
LINE
  8
0
 10
382.219
 20
-21.0266
 11
382.406
 21
-21.003
  0
LINE
  8
0
 10
382.406
 20
-21.003
 11
382.594
 21
-21.003
  0
LINE
  8
0
 10
382.594
 20
-21.003
 11
382.781
 21
-21.0266
  0
LINE
  8
0
 10
382.781
 20
-21.0266
 11
382.964
 21
-21.0734
  0
LINE
  8
0
 10
382.964
 20
-21.0734
 11
383.139
 21
-21.1427
  0
LINE
  8
0
 10
383.139
 20
-21.1427
 11
383.304
 21
-21.2335
  0
LINE
  8
0
 10
383.304
 20
-21.2335
 11
383.456
 21
-21.3442
  0
LINE
  8
0
 10
383.456
 20
-21.3442
 11
383.593
 21
-21.4732
  0
LINE
  8
0
 10
383.593
 20
-21.4732
 11
383.714
 21
-21.6183
  0
LINE
  8
0
 10
383.714
 20
-21.6183
 11
383.814
 21
-21.7774
  0
LINE
  8
0
 10
383.814
 20
-21.7774
 11
383.895
 21
-21.9478
  0
LINE
  8
0
 10
383.895
 20
-21.9478
 11
383.953
 21
-22.127
  0
LINE
  8
0
 10
383.953
 20
-22.127
 11
383.988
 21
-22.312
  0
LINE
  8
0
 10
383.988
 20
-22.312
 11
384
 21
-22.5
  0
LINE
  8
0
 10
384
 20
-22.5
 11
383.988
 21
-22.688
  0
LINE
  8
0
 10
383.988
 20
-22.688
 11
383.953
 21
-22.873
  0
LINE
  8
0
 10
383.953
 20
-22.873
 11
383.895
 21
-23.0522
  0
LINE
  8
0
 10
383.895
 20
-23.0522
 11
383.814
 21
-23.2226
  0
LINE
  8
0
 10
383.814
 20
-23.2226
 11
383.714
 21
-23.3817
  0
LINE
  8
0
 10
383.714
 20
-23.3817
 11
383.593
 21
-23.5268
  0
LINE
  8
0
 10
383.593
 20
-23.5268
 11
383.456
 21
-23.6558
  0
LINE
  8
0
 10
383.456
 20
-23.6558
 11
383.304
 21
-23.7665
  0
LINE
  8
0
 10
383.304
 20
-23.7665
 11
383.139
 21
-23.8572
  0
LINE
  8
0
 10
383.139
 20
-23.8572
 11
382.964
 21
-23.9266
  0
LINE
  8
0
 10
382.964
 20
-23.9266
 11
382.781
 21
-23.9734
  0
LINE
  8
0
 10
382.781
 20
-23.9734
 11
382.594
 21
-23.997
  0
LINE
  8
0
 10
382.594
 20
-23.997
 11
382.406
 21
-23.997
  0
LINE
  8
0
 10
-382.688
 20
-32.9941
 11
-383.062
 21
-32.9469
  0
LINE
  8
0
 10
-383.062
 20
-32.9469
 11
-383.427
 21
-32.8532
  0
LINE
  8
0
 10
-383.427
 20
-32.8532
 11
-383.777
 21
-32.7145
  0
LINE
  8
0
 10
-383.777
 20
-32.7145
 11
-384.107
 21
-32.533
  0
LINE
  8
0
 10
-384.107
 20
-32.533
 11
-384.412
 21
-32.3115
  0
LINE
  8
0
 10
-384.412
 20
-32.3115
 11
-384.687
 21
-32.0536
  0
LINE
  8
0
 10
-384.687
 20
-32.0536
 11
-384.927
 21
-31.7634
  0
LINE
  8
0
 10
-384.927
 20
-31.7634
 11
-385.129
 21
-31.4453
  0
LINE
  8
0
 10
-385.129
 20
-31.4453
 11
-385.289
 21
-31.1044
  0
LINE
  8
0
 10
-385.289
 20
-31.1044
 11
-385.406
 21
-30.7461
  0
LINE
  8
0
 10
-385.406
 20
-30.7461
 11
-385.476
 21
-30.376
  0
LINE
  8
0
 10
-385.476
 20
-30.376
 11
-385.5
 21
-30
  0
LINE
  8
0
 10
-385.5
 20
-30
 11
-385.476
 21
-29.624
  0
LINE
  8
0
 10
-385.476
 20
-29.624
 11
-385.406
 21
-29.2539
  0
LINE
  8
0
 10
-385.406
 20
-29.2539
 11
-385.289
 21
-28.8956
  0
LINE
  8
0
 10
-385.289
 20
-28.8956
 11
-385.129
 21
-28.5547
  0
LINE
  8
0
 10
-385.129
 20
-28.5547
 11
-384.927
 21
-28.2366
  0
LINE
  8
0
 10
-384.927
 20
-28.2366
 11
-384.687
 21
-27.9464
  0
LINE
  8
0
 10
-384.687
 20
-27.9464
 11
-384.412
 21
-27.6884
  0
LINE
  8
0
 10
-384.412
 20
-27.6884
 11
-384.107
 21
-27.467
  0
LINE
  8
0
 10
-384.107
 20
-27.467
 11
-383.777
 21
-27.2855
  0
LINE
  8
0
 10
-383.777
 20
-27.2855
 11
-383.427
 21
-27.1468
  0
LINE
  8
0
 10
-383.427
 20
-27.1468
 11
-383.062
 21
-27.0531
  0
LINE
  8
0
 10
-383.062
 20
-27.0531
 11
-382.688
 21
-27.0059
  0
LINE
  8
0
 10
-382.688
 20
-27.0059
 11
-382.312
 21
-27.0059
  0
LINE
  8
0
 10
-382.312
 20
-27.0059
 11
-381.938
 21
-27.0531
  0
LINE
  8
0
 10
-381.938
 20
-27.0531
 11
-381.573
 21
-27.1468
  0
LINE
  8
0
 10
-381.573
 20
-27.1468
 11
-381.223
 21
-27.2855
  0
LINE
  8
0
 10
-381.223
 20
-27.2855
 11
-380.893
 21
-27.467
  0
LINE
  8
0
 10
-380.893
 20
-27.467
 11
-380.588
 21
-27.6884
  0
LINE
  8
0
 10
-380.588
 20
-27.6884
 11
-380.313
 21
-27.9464
  0
LINE
  8
0
 10
-380.313
 20
-27.9464
 11
-380.073
 21
-28.2366
  0
LINE
  8
0
 10
-380.073
 20
-28.2366
 11
-379.871
 21
-28.5547
  0
LINE
  8
0
 10
-379.871
 20
-28.5547
 11
-379.711
 21
-28.8956
  0
LINE
  8
0
 10
-379.711
 20
-28.8956
 11
-379.594
 21
-29.2539
  0
LINE
  8
0
 10
-379.594
 20
-29.2539
 11
-379.524
 21
-29.624
  0
LINE
  8
0
 10
-379.524
 20
-29.624
 11
-379.5
 21
-30
  0
LINE
  8
0
 10
-379.5
 20
-30
 11
-379.524
 21
-30.376
  0
LINE
  8
0
 10
-379.524
 20
-30.376
 11
-379.594
 21
-30.7461
  0
LINE
  8
0
 10
-379.594
 20
-30.7461
 11
-379.711
 21
-31.1044
  0
LINE
  8
0
 10
-379.711
 20
-31.1044
 11
-379.871
 21
-31.4453
  0
LINE
  8
0
 10
-379.871
 20
-31.4453
 11
-380.073
 21
-31.7634
  0
LINE
  8
0
 10
-380.073
 20
-31.7634
 11
-380.313
 21
-32.0536
  0
LINE
  8
0
 10
-380.313
 20
-32.0536
 11
-380.588
 21
-32.3115
  0
LINE
  8
0
 10
-380.588
 20
-32.3115
 11
-380.893
 21
-32.533
  0
LINE
  8
0
 10
-380.893
 20
-32.533
 11
-381.223
 21
-32.7145
  0
LINE
  8
0
 10
-381.223
 20
-32.7145
 11
-381.573
 21
-32.8532
  0
LINE
  8
0
 10
-381.573
 20
-32.8532
 11
-381.938
 21
-32.9469
  0
LINE
  8
0
 10
-381.938
 20
-32.9469
 11
-382.312
 21
-32.9941
  0
LINE
  8
0
 10
-382.312
 20
-32.9941
 11
-382.688
 21
-32.9941
  0
LINE
  8
0
 10
382.312
 20
-32.9941
 11
381.938
 21
-32.9469
  0
LINE
  8
0
 10
381.938
 20
-32.9469
 11
381.573
 21
-32.8532
  0
LINE
  8
0
 10
381.573
 20
-32.8532
 11
381.223
 21
-32.7145
  0
LINE
  8
0
 10
381.223
 20
-32.7145
 11
380.893
 21
-32.533
  0
LINE
  8
0
 10
380.893
 20
-32.533
 11
380.588
 21
-32.3115
  0
LINE
  8
0
 10
380.588
 20
-32.3115
 11
380.313
 21
-32.0536
  0
LINE
  8
0
 10
380.313
 20
-32.0536
 11
380.073
 21
-31.7634
  0
LINE
  8
0
 10
380.073
 20
-31.7634
 11
379.871
 21
-31.4453
  0
LINE
  8
0
 10
379.871
 20
-31.4453
 11
379.711
 21
-31.1044
  0
LINE
  8
0
 10
379.711
 20
-31.1044
 11
379.594
 21
-30.7461
  0
LINE
  8
0
 10
379.594
 20
-30.7461
 11
379.524
 21
-30.376
  0
LINE
  8
0
 10
379.524
 20
-30.376
 11
379.5
 21
-30
  0
LINE
  8
0
 10
379.5
 20
-30
 11
379.524
 21
-29.624
  0
LINE
  8
0
 10
379.524
 20
-29.624
 11
379.594
 21
-29.2539
  0
LINE
  8
0
 10
379.594
 20
-29.2539
 11
379.711
 21
-28.8956
  0
LINE
  8
0
 10
379.711
 20
-28.8956
 11
379.871
 21
-28.5547
  0
LINE
  8
0
 10
379.871
 20
-28.5547
 11
380.073
 21
-28.2366
  0
LINE
  8
0
 10
380.073
 20
-28.2366
 11
380.313
 21
-27.9464
  0
LINE
  8
0
 10
380.313
 20
-27.9464
 11
380.588
 21
-27.6884
  0
LINE
  8
0
 10
380.588
 20
-27.6884
 11
380.893
 21
-27.467
  0
LINE
  8
0
 10
380.893
 20
-27.467
 11
381.223
 21
-27.2855
  0
LINE
  8
0
 10
381.223
 20
-27.2855
 11
381.573
 21
-27.1468
  0
LINE
  8
0
 10
381.573
 20
-27.1468
 11
381.938
 21
-27.0531
  0
LINE
  8
0
 10
381.938
 20
-27.0531
 11
382.312
 21
-27.0059
  0
LINE
  8
0
 10
382.312
 20
-27.0059
 11
382.688
 21
-27.0059
  0
LINE
  8
0
 10
382.688
 20
-27.0059
 11
383.062
 21
-27.0531
  0
LINE
  8
0
 10
383.062
 20
-27.0531
 11
383.427
 21
-27.1468
  0
LINE
  8
0
 10
383.427
 20
-27.1468
 11
383.777
 21
-27.2855
  0
LINE
  8
0
 10
383.777
 20
-27.2855
 11
384.107
 21
-27.467
  0
LINE
  8
0
 10
384.107
 20
-27.467
 11
384.412
 21
-27.6884
  0
LINE
  8
0
 10
384.412
 20
-27.6884
 11
384.687
 21
-27.9464
  0
LINE
  8
0
 10
384.687
 20
-27.9464
 11
384.927
 21
-28.2366
  0
LINE
  8
0
 10
384.927
 20
-28.2366
 11
385.129
 21
-28.5547
  0
LINE
  8
0
 10
385.129
 20
-28.5547
 11
385.289
 21
-28.8956
  0
LINE
  8
0
 10
385.289
 20
-28.8956
 11
385.406
 21
-29.2539
  0
LINE
  8
0
 10
385.406
 20
-29.2539
 11
385.476
 21
-29.624
  0
LINE
  8
0
 10
385.476
 20
-29.624
 11
385.5
 21
-30
  0
LINE
  8
0
 10
385.5
 20
-30
 11
385.476
 21
-30.376
  0
LINE
  8
0
 10
385.476
 20
-30.376
 11
385.406
 21
-30.7461
  0
LINE
  8
0
 10
385.406
 20
-30.7461
 11
385.289
 21
-31.1044
  0
LINE
  8
0
 10
385.289
 20
-31.1044
 11
385.129
 21
-31.4453
  0
LINE
  8
0
 10
385.129
 20
-31.4453
 11
384.927
 21
-31.7634
  0
LINE
  8
0
 10
384.927
 20
-31.7634
 11
384.687
 21
-32.0536
  0
LINE
  8
0
 10
384.687
 20
-32.0536
 11
384.412
 21
-32.3115
  0
LINE
  8
0
 10
384.412
 20
-32.3115
 11
384.107
 21
-32.533
  0
LINE
  8
0
 10
384.107
 20
-32.533
 11
383.777
 21
-32.7145
  0
LINE
  8
0
 10
383.777
 20
-32.7145
 11
383.427
 21
-32.8532
  0
LINE
  8
0
 10
383.427
 20
-32.8532
 11
383.062
 21
-32.9469
  0
LINE
  8
0
 10
383.062
 20
-32.9469
 11
382.688
 21
-32.9941
  0
LINE
  8
0
 10
382.688
 20
-32.9941
 11
382.312
 21
-32.9941
  0
LINE
  8
0
 10
382.406
 20
-38.997
 11
382.219
 21
-38.9734
  0
LINE
  8
0
 10
382.219
 20
-38.9734
 11
382.036
 21
-38.9266
  0
LINE
  8
0
 10
382.036
 20
-38.9266
 11
381.861
 21
-38.8572
  0
LINE
  8
0
 10
381.861
 20
-38.8572
 11
381.696
 21
-38.7665
  0
LINE
  8
0
 10
381.696
 20
-38.7665
 11
381.544
 21
-38.6558
  0
LINE
  8
0
 10
381.544
 20
-38.6558
 11
381.407
 21
-38.5268
  0
LINE
  8
0
 10
381.407
 20
-38.5268
 11
381.286
 21
-38.3817
  0
LINE
  8
0
 10
381.286
 20
-38.3817
 11
381.186
 21
-38.2226
  0
LINE
  8
0
 10
381.186
 20
-38.2226
 11
381.105
 21
-38.0522
  0
LINE
  8
0
 10
381.105
 20
-38.0522
 11
381.047
 21
-37.873
  0
LINE
  8
0
 10
381.047
 20
-37.873
 11
381.012
 21
-37.688
  0
LINE
  8
0
 10
381.012
 20
-37.688
 11
381
 21
-37.5
  0
LINE
  8
0
 10
381
 20
-37.5
 11
381.012
 21
-37.312
  0
LINE
  8
0
 10
381.012
 20
-37.312
 11
381.047
 21
-37.127
  0
LINE
  8
0
 10
381.047
 20
-37.127
 11
381.105
 21
-36.9478
  0
LINE
  8
0
 10
381.105
 20
-36.9478
 11
381.186
 21
-36.7774
  0
LINE
  8
0
 10
381.186
 20
-36.7774
 11
381.286
 21
-36.6183
  0
LINE
  8
0
 10
381.286
 20
-36.6183
 11
381.407
 21
-36.4732
  0
LINE
  8
0
 10
381.407
 20
-36.4732
 11
381.544
 21
-36.3442
  0
LINE
  8
0
 10
381.544
 20
-36.3442
 11
381.696
 21
-36.2335
  0
LINE
  8
0
 10
381.696
 20
-36.2335
 11
381.861
 21
-36.1428
  0
LINE
  8
0
 10
381.861
 20
-36.1428
 11
382.036
 21
-36.0734
  0
LINE
  8
0
 10
382.036
 20
-36.0734
 11
382.219
 21
-36.0266
  0
LINE
  8
0
 10
382.219
 20
-36.0266
 11
382.406
 21
-36.003
  0
LINE
  8
0
 10
382.406
 20
-36.003
 11
382.594
 21
-36.003
  0
LINE
  8
0
 10
382.594
 20
-36.003
 11
382.781
 21
-36.0266
  0
LINE
  8
0
 10
382.781
 20
-36.0266
 11
382.964
 21
-36.0734
  0
LINE
  8
0
 10
382.964
 20
-36.0734
 11
383.139
 21
-36.1428
  0
LINE
  8
0
 10
383.139
 20
-36.1428
 11
383.304
 21
-36.2335
  0
LINE
  8
0
 10
383.304
 20
-36.2335
 11
383.456
 21
-36.3442
  0
LINE
  8
0
 10
383.456
 20
-36.3442
 11
383.593
 21
-36.4732
  0
LINE
  8
0
 10
383.593
 20
-36.4732
 11
383.714
 21
-36.6183
  0
LINE
  8
0
 10
383.714
 20
-36.6183
 11
383.814
 21
-36.7774
  0
LINE
  8
0
 10
383.814
 20
-36.7774
 11
383.895
 21
-36.9478
  0
LINE
  8
0
 10
383.895
 20
-36.9478
 11
383.953
 21
-37.127
  0
LINE
  8
0
 10
383.953
 20
-37.127
 11
383.988
 21
-37.312
  0
LINE
  8
0
 10
383.988
 20
-37.312
 11
384
 21
-37.5
  0
LINE
  8
0
 10
384
 20
-37.5
 11
383.988
 21
-37.688
  0
LINE
  8
0
 10
383.988
 20
-37.688
 11
383.953
 21
-37.873
  0
LINE
  8
0
 10
383.953
 20
-37.873
 11
383.895
 21
-38.0522
  0
LINE
  8
0
 10
383.895
 20
-38.0522
 11
383.814
 21
-38.2226
  0
LINE
  8
0
 10
383.814
 20
-38.2226
 11
383.714
 21
-38.3817
  0
LINE
  8
0
 10
383.714
 20
-38.3817
 11
383.593
 21
-38.5268
  0
LINE
  8
0
 10
383.593
 20
-38.5268
 11
383.456
 21
-38.6558
  0
LINE
  8
0
 10
383.456
 20
-38.6558
 11
383.304
 21
-38.7665
  0
LINE
  8
0
 10
383.304
 20
-38.7665
 11
383.139
 21
-38.8572
  0
LINE
  8
0
 10
383.139
 20
-38.8572
 11
382.964
 21
-38.9266
  0
LINE
  8
0
 10
382.964
 20
-38.9266
 11
382.781
 21
-38.9734
  0
LINE
  8
0
 10
382.781
 20
-38.9734
 11
382.594
 21
-38.997
  0
LINE
  8
0
 10
382.594
 20
-38.997
 11
382.406
 21
-38.997
  0
LINE
  8
0
 10
-382.594
 20
-38.997
 11
-382.781
 21
-38.9734
  0
LINE
  8
0
 10
-382.781
 20
-38.9734
 11
-382.964
 21
-38.9266
  0
LINE
  8
0
 10
-382.964
 20
-38.9266
 11
-383.139
 21
-38.8572
  0
LINE
  8
0
 10
-383.139
 20
-38.8572
 11
-383.304
 21
-38.7665
  0
LINE
  8
0
 10
-383.304
 20
-38.7665
 11
-383.456
 21
-38.6558
  0
LINE
  8
0
 10
-383.456
 20
-38.6558
 11
-383.593
 21
-38.5268
  0
LINE
  8
0
 10
-383.593
 20
-38.5268
 11
-383.714
 21
-38.3817
  0
LINE
  8
0
 10
-383.714
 20
-38.3817
 11
-383.814
 21
-38.2226
  0
LINE
  8
0
 10
-383.814
 20
-38.2226
 11
-383.895
 21
-38.0522
  0
LINE
  8
0
 10
-383.895
 20
-38.0522
 11
-383.953
 21
-37.873
  0
LINE
  8
0
 10
-383.953
 20
-37.873
 11
-383.988
 21
-37.688
  0
LINE
  8
0
 10
-383.988
 20
-37.688
 11
-384
 21
-37.5
  0
LINE
  8
0
 10
-384
 20
-37.5
 11
-383.988
 21
-37.312
  0
LINE
  8
0
 10
-383.988
 20
-37.312
 11
-383.953
 21
-37.127
  0
LINE
  8
0
 10
-383.953
 20
-37.127
 11
-383.895
 21
-36.9478
  0
LINE
  8
0
 10
-383.895
 20
-36.9478
 11
-383.814
 21
-36.7774
  0
LINE
  8
0
 10
-383.814
 20
-36.7774
 11
-383.714
 21
-36.6183
  0
LINE
  8
0
 10
-383.714
 20
-36.6183
 11
-383.593
 21
-36.4732
  0
LINE
  8
0
 10
-383.593
 20
-36.4732
 11
-383.456
 21
-36.3442
  0
LINE
  8
0
 10
-383.456
 20
-36.3442
 11
-383.304
 21
-36.2335
  0
LINE
  8
0
 10
-383.304
 20
-36.2335
 11
-383.139
 21
-36.1428
  0
LINE
  8
0
 10
-383.139
 20
-36.1428
 11
-382.964
 21
-36.0734
  0
LINE
  8
0
 10
-382.964
 20
-36.0734
 11
-382.781
 21
-36.0266
  0
LINE
  8
0
 10
-382.781
 20
-36.0266
 11
-382.594
 21
-36.003
  0
LINE
  8
0
 10
-382.594
 20
-36.003
 11
-382.406
 21
-36.003
  0
LINE
  8
0
 10
-382.406
 20
-36.003
 11
-382.219
 21
-36.0266
  0
LINE
  8
0
 10
-382.219
 20
-36.0266
 11
-382.036
 21
-36.0734
  0
LINE
  8
0
 10
-382.036
 20
-36.0734
 11
-381.861
 21
-36.1428
  0
LINE
  8
0
 10
-381.861
 20
-36.1428
 11
-381.696
 21
-36.2335
  0
LINE
  8
0
 10
-381.696
 20
-36.2335
 11
-381.544
 21
-36.3442
  0
LINE
  8
0
 10
-381.544
 20
-36.3442
 11
-381.407
 21
-36.4732
  0
LINE
  8
0
 10
-381.407
 20
-36.4732
 11
-381.286
 21
-36.6183
  0
LINE
  8
0
 10
-381.286
 20
-36.6183
 11
-381.186
 21
-36.7774
  0
LINE
  8
0
 10
-381.186
 20
-36.7774
 11
-381.105
 21
-36.9478
  0
LINE
  8
0
 10
-381.105
 20
-36.9478
 11
-381.047
 21
-37.127
  0
LINE
  8
0
 10
-381.047
 20
-37.127
 11
-381.012
 21
-37.312
  0
LINE
  8
0
 10
-381.012
 20
-37.312
 11
-381
 21
-37.5
  0
LINE
  8
0
 10
-381
 20
-37.5
 11
-381.012
 21
-37.688
  0
LINE
  8
0
 10
-381.012
 20
-37.688
 11
-381.047
 21
-37.873
  0
LINE
  8
0
 10
-381.047
 20
-37.873
 11
-381.105
 21
-38.0522
  0
LINE
  8
0
 10
-381.105
 20
-38.0522
 11
-381.186
 21
-38.2226
  0
LINE
  8
0
 10
-381.186
 20
-38.2226
 11
-381.286
 21
-38.3817
  0
LINE
  8
0
 10
-381.286
 20
-38.3817
 11
-381.407
 21
-38.5268
  0
LINE
  8
0
 10
-381.407
 20
-38.5268
 11
-381.544
 21
-38.6558
  0
LINE
  8
0
 10
-381.544
 20
-38.6558
 11
-381.696
 21
-38.7665
  0
LINE
  8
0
 10
-381.696
 20
-38.7665
 11
-381.861
 21
-38.8572
  0
LINE
  8
0
 10
-381.861
 20
-38.8572
 11
-382.036
 21
-38.9266
  0
LINE
  8
0
 10
-382.036
 20
-38.9266
 11
-382.219
 21
-38.9734
  0
LINE
  8
0
 10
-382.219
 20
-38.9734
 11
-382.406
 21
-38.997
  0
LINE
  8
0
 10
-382.406
 20
-38.997
 11
-382.594
 21
-38.997
  0
LINE
  8
0
 10
-382.688
 20
-47.9941
 11
-383.062
 21
-47.9469
  0
LINE
  8
0
 10
-383.062
 20
-47.9469
 11
-383.427
 21
-47.8532
  0
LINE
  8
0
 10
-383.427
 20
-47.8532
 11
-383.777
 21
-47.7145
  0
LINE
  8
0
 10
-383.777
 20
-47.7145
 11
-384.107
 21
-47.533
  0
LINE
  8
0
 10
-384.107
 20
-47.533
 11
-384.412
 21
-47.3115
  0
LINE
  8
0
 10
-384.412
 20
-47.3115
 11
-384.687
 21
-47.0536
  0
LINE
  8
0
 10
-384.687
 20
-47.0536
 11
-384.927
 21
-46.7634
  0
LINE
  8
0
 10
-384.927
 20
-46.7634
 11
-385.129
 21
-46.4453
  0
LINE
  8
0
 10
-385.129
 20
-46.4453
 11
-385.289
 21
-46.1044
  0
LINE
  8
0
 10
-385.289
 20
-46.1044
 11
-385.406
 21
-45.7461
  0
LINE
  8
0
 10
-385.406
 20
-45.7461
 11
-385.476
 21
-45.376
  0
LINE
  8
0
 10
-385.476
 20
-45.376
 11
-385.5
 21
-45
  0
LINE
  8
0
 10
-385.5
 20
-45
 11
-385.476
 21
-44.624
  0
LINE
  8
0
 10
-385.476
 20
-44.624
 11
-385.406
 21
-44.2539
  0
LINE
  8
0
 10
-385.406
 20
-44.2539
 11
-385.289
 21
-43.8956
  0
LINE
  8
0
 10
-385.289
 20
-43.8956
 11
-385.129
 21
-43.5547
  0
LINE
  8
0
 10
-385.129
 20
-43.5547
 11
-384.927
 21
-43.2366
  0
LINE
  8
0
 10
-384.927
 20
-43.2366
 11
-384.687
 21
-42.9464
  0
LINE
  8
0
 10
-384.687
 20
-42.9464
 11
-384.412
 21
-42.6885
  0
LINE
  8
0
 10
-384.412
 20
-42.6885
 11
-384.107
 21
-42.467
  0
LINE
  8
0
 10
-384.107
 20
-42.467
 11
-383.777
 21
-42.2855
  0
LINE
  8
0
 10
-383.777
 20
-42.2855
 11
-383.427
 21
-42.1468
  0
LINE
  8
0
 10
-383.427
 20
-42.1468
 11
-383.062
 21
-42.0531
  0
LINE
  8
0
 10
-383.062
 20
-42.0531
 11
-382.688
 21
-42.0059
  0
LINE
  8
0
 10
-382.688
 20
-42.0059
 11
-382.312
 21
-42.0059
  0
LINE
  8
0
 10
-382.312
 20
-42.0059
 11
-381.938
 21
-42.0531
  0
LINE
  8
0
 10
-381.938
 20
-42.0531
 11
-381.573
 21
-42.1468
  0
LINE
  8
0
 10
-381.573
 20
-42.1468
 11
-381.223
 21
-42.2855
  0
LINE
  8
0
 10
-381.223
 20
-42.2855
 11
-380.893
 21
-42.467
  0
LINE
  8
0
 10
-380.893
 20
-42.467
 11
-380.588
 21
-42.6885
  0
LINE
  8
0
 10
-380.588
 20
-42.6885
 11
-380.313
 21
-42.9464
  0
LINE
  8
0
 10
-380.313
 20
-42.9464
 11
-380.073
 21
-43.2366
  0
LINE
  8
0
 10
-380.073
 20
-43.2366
 11
-379.871
 21
-43.5547
  0
LINE
  8
0
 10
-379.871
 20
-43.5547
 11
-379.711
 21
-43.8956
  0
LINE
  8
0
 10
-379.711
 20
-43.8956
 11
-379.594
 21
-44.2539
  0
LINE
  8
0
 10
-379.594
 20
-44.2539
 11
-379.524
 21
-44.624
  0
LINE
  8
0
 10
-379.524
 20
-44.624
 11
-379.5
 21
-45
  0
LINE
  8
0
 10
-379.5
 20
-45
 11
-379.524
 21
-45.376
  0
LINE
  8
0
 10
-379.524
 20
-45.376
 11
-379.594
 21
-45.7461
  0
LINE
  8
0
 10
-379.594
 20
-45.7461
 11
-379.711
 21
-46.1044
  0
LINE
  8
0
 10
-379.711
 20
-46.1044
 11
-379.871
 21
-46.4453
  0
LINE
  8
0
 10
-379.871
 20
-46.4453
 11
-380.073
 21
-46.7634
  0
LINE
  8
0
 10
-380.073
 20
-46.7634
 11
-380.313
 21
-47.0536
  0
LINE
  8
0
 10
-380.313
 20
-47.0536
 11
-380.588
 21
-47.3115
  0
LINE
  8
0
 10
-380.588
 20
-47.3115
 11
-380.893
 21
-47.533
  0
LINE
  8
0
 10
-380.893
 20
-47.533
 11
-381.223
 21
-47.7145
  0
LINE
  8
0
 10
-381.223
 20
-47.7145
 11
-381.573
 21
-47.8532
  0
LINE
  8
0
 10
-381.573
 20
-47.8532
 11
-381.938
 21
-47.9469
  0
LINE
  8
0
 10
-381.938
 20
-47.9469
 11
-382.312
 21
-47.9941
  0
LINE
  8
0
 10
-382.312
 20
-47.9941
 11
-382.688
 21
-47.9941
  0
LINE
  8
0
 10
382.312
 20
-47.9941
 11
381.938
 21
-47.9469
  0
LINE
  8
0
 10
381.938
 20
-47.9469
 11
381.573
 21
-47.8532
  0
LINE
  8
0
 10
381.573
 20
-47.8532
 11
381.223
 21
-47.7145
  0
LINE
  8
0
 10
381.223
 20
-47.7145
 11
380.893
 21
-47.533
  0
LINE
  8
0
 10
380.893
 20
-47.533
 11
380.588
 21
-47.3115
  0
LINE
  8
0
 10
380.588
 20
-47.3115
 11
380.313
 21
-47.0536
  0
LINE
  8
0
 10
380.313
 20
-47.0536
 11
380.073
 21
-46.7634
  0
LINE
  8
0
 10
380.073
 20
-46.7634
 11
379.871
 21
-46.4453
  0
LINE
  8
0
 10
379.871
 20
-46.4453
 11
379.711
 21
-46.1044
  0
LINE
  8
0
 10
379.711
 20
-46.1044
 11
379.594
 21
-45.7461
  0
LINE
  8
0
 10
379.594
 20
-45.7461
 11
379.524
 21
-45.376
  0
LINE
  8
0
 10
379.524
 20
-45.376
 11
379.5
 21
-45
  0
LINE
  8
0
 10
379.5
 20
-45
 11
379.524
 21
-44.624
  0
LINE
  8
0
 10
379.524
 20
-44.624
 11
379.594
 21
-44.2539
  0
LINE
  8
0
 10
379.594
 20
-44.2539
 11
379.711
 21
-43.8956
  0
LINE
  8
0
 10
379.711
 20
-43.8956
 11
379.871
 21
-43.5547
  0
LINE
  8
0
 10
379.871
 20
-43.5547
 11
380.073
 21
-43.2366
  0
LINE
  8
0
 10
380.073
 20
-43.2366
 11
380.313
 21
-42.9464
  0
LINE
  8
0
 10
380.313
 20
-42.9464
 11
380.588
 21
-42.6885
  0
LINE
  8
0
 10
380.588
 20
-42.6885
 11
380.893
 21
-42.467
  0
LINE
  8
0
 10
380.893
 20
-42.467
 11
381.223
 21
-42.2855
  0
LINE
  8
0
 10
381.223
 20
-42.2855
 11
381.573
 21
-42.1468
  0
LINE
  8
0
 10
381.573
 20
-42.1468
 11
381.938
 21
-42.0531
  0
LINE
  8
0
 10
381.938
 20
-42.0531
 11
382.312
 21
-42.0059
  0
LINE
  8
0
 10
382.312
 20
-42.0059
 11
382.688
 21
-42.0059
  0
LINE
  8
0
 10
382.688
 20
-42.0059
 11
383.062
 21
-42.0531
  0
LINE
  8
0
 10
383.062
 20
-42.0531
 11
383.427
 21
-42.1468
  0
LINE
  8
0
 10
383.427
 20
-42.1468
 11
383.777
 21
-42.2855
  0
LINE
  8
0
 10
383.777
 20
-42.2855
 11
384.107
 21
-42.467
  0
LINE
  8
0
 10
384.107
 20
-42.467
 11
384.412
 21
-42.6885
  0
LINE
  8
0
 10
384.412
 20
-42.6885
 11
384.687
 21
-42.9464
  0
LINE
  8
0
 10
384.687
 20
-42.9464
 11
384.927
 21
-43.2366
  0
LINE
  8
0
 10
384.927
 20
-43.2366
 11
385.129
 21
-43.5547
  0
LINE
  8
0
 10
385.129
 20
-43.5547
 11
385.289
 21
-43.8956
  0
LINE
  8
0
 10
385.289
 20
-43.8956
 11
385.406
 21
-44.2539
  0
LINE
  8
0
 10
385.406
 20
-44.2539
 11
385.476
 21
-44.624
  0
LINE
  8
0
 10
385.476
 20
-44.624
 11
385.5
 21
-45
  0
LINE
  8
0
 10
385.5
 20
-45
 11
385.476
 21
-45.376
  0
LINE
  8
0
 10
385.476
 20
-45.376
 11
385.406
 21
-45.7461
  0
LINE
  8
0
 10
385.406
 20
-45.7461
 11
385.289
 21
-46.1044
  0
LINE
  8
0
 10
385.289
 20
-46.1044
 11
385.129
 21
-46.4453
  0
LINE
  8
0
 10
385.129
 20
-46.4453
 11
384.927
 21
-46.7634
  0
LINE
  8
0
 10
384.927
 20
-46.7634
 11
384.687
 21
-47.0536
  0
LINE
  8
0
 10
384.687
 20
-47.0536
 11
384.412
 21
-47.3115
  0
LINE
  8
0
 10
384.412
 20
-47.3115
 11
384.107
 21
-47.533
  0
LINE
  8
0
 10
384.107
 20
-47.533
 11
383.777
 21
-47.7145
  0
LINE
  8
0
 10
383.777
 20
-47.7145
 11
383.427
 21
-47.8532
  0
LINE
  8
0
 10
383.427
 20
-47.8532
 11
383.062
 21
-47.9469
  0
LINE
  8
0
 10
383.062
 20
-47.9469
 11
382.688
 21
-47.9941
  0
LINE
  8
0
 10
382.688
 20
-47.9941
 11
382.312
 21
-47.9941
  0
LINE
  8
0
 10
-382.594
 20
-53.997
 11
-382.781
 21
-53.9734
  0
LINE
  8
0
 10
-382.781
 20
-53.9734
 11
-382.964
 21
-53.9266
  0
LINE
  8
0
 10
-382.964
 20
-53.9266
 11
-383.139
 21
-53.8572
  0
LINE
  8
0
 10
-383.139
 20
-53.8572
 11
-383.304
 21
-53.7665
  0
LINE
  8
0
 10
-383.304
 20
-53.7665
 11
-383.456
 21
-53.6558
  0
LINE
  8
0
 10
-383.456
 20
-53.6558
 11
-383.593
 21
-53.5268
  0
LINE
  8
0
 10
-383.593
 20
-53.5268
 11
-383.714
 21
-53.3817
  0
LINE
  8
0
 10
-383.714
 20
-53.3817
 11
-383.814
 21
-53.2226
  0
LINE
  8
0
 10
-383.814
 20
-53.2226
 11
-383.895
 21
-53.0522
  0
LINE
  8
0
 10
-383.895
 20
-53.0522
 11
-383.953
 21
-52.873
  0
LINE
  8
0
 10
-383.953
 20
-52.873
 11
-383.988
 21
-52.688
  0
LINE
  8
0
 10
-383.988
 20
-52.688
 11
-384
 21
-52.5
  0
LINE
  8
0
 10
-384
 20
-52.5
 11
-383.988
 21
-52.312
  0
LINE
  8
0
 10
-383.988
 20
-52.312
 11
-383.953
 21
-52.127
  0
LINE
  8
0
 10
-383.953
 20
-52.127
 11
-383.895
 21
-51.9478
  0
LINE
  8
0
 10
-383.895
 20
-51.9478
 11
-383.814
 21
-51.7774
  0
LINE
  8
0
 10
-383.814
 20
-51.7774
 11
-383.714
 21
-51.6183
  0
LINE
  8
0
 10
-383.714
 20
-51.6183
 11
-383.593
 21
-51.4732
  0
LINE
  8
0
 10
-383.593
 20
-51.4732
 11
-383.456
 21
-51.3442
  0
LINE
  8
0
 10
-383.456
 20
-51.3442
 11
-383.304
 21
-51.2335
  0
LINE
  8
0
 10
-383.304
 20
-51.2335
 11
-383.139
 21
-51.1428
  0
LINE
  8
0
 10
-383.139
 20
-51.1428
 11
-382.964
 21
-51.0734
  0
LINE
  8
0
 10
-382.964
 20
-51.0734
 11
-382.781
 21
-51.0266
  0
LINE
  8
0
 10
-382.781
 20
-51.0266
 11
-382.594
 21
-51.003
  0
LINE
  8
0
 10
-382.594
 20
-51.003
 11
-382.406
 21
-51.003
  0
LINE
  8
0
 10
-382.406
 20
-51.003
 11
-382.219
 21
-51.0266
  0
LINE
  8
0
 10
-382.219
 20
-51.0266
 11
-382.036
 21
-51.0734
  0
LINE
  8
0
 10
-382.036
 20
-51.0734
 11
-381.861
 21
-51.1428
  0
LINE
  8
0
 10
-381.861
 20
-51.1428
 11
-381.696
 21
-51.2335
  0
LINE
  8
0
 10
-381.696
 20
-51.2335
 11
-381.544
 21
-51.3442
  0
LINE
  8
0
 10
-381.544
 20
-51.3442
 11
-381.407
 21
-51.4732
  0
LINE
  8
0
 10
-381.407
 20
-51.4732
 11
-381.286
 21
-51.6183
  0
LINE
  8
0
 10
-381.286
 20
-51.6183
 11
-381.186
 21
-51.7774
  0
LINE
  8
0
 10
-381.186
 20
-51.7774
 11
-381.105
 21
-51.9478
  0
LINE
  8
0
 10
-381.105
 20
-51.9478
 11
-381.047
 21
-52.127
  0
LINE
  8
0
 10
-381.047
 20
-52.127
 11
-381.012
 21
-52.312
  0
LINE
  8
0
 10
-381.012
 20
-52.312
 11
-381
 21
-52.5
  0
LINE
  8
0
 10
-381
 20
-52.5
 11
-381.012
 21
-52.688
  0
LINE
  8
0
 10
-381.012
 20
-52.688
 11
-381.047
 21
-52.873
  0
LINE
  8
0
 10
-381.047
 20
-52.873
 11
-381.105
 21
-53.0522
  0
LINE
  8
0
 10
-381.105
 20
-53.0522
 11
-381.186
 21
-53.2226
  0
LINE
  8
0
 10
-381.186
 20
-53.2226
 11
-381.286
 21
-53.3817
  0
LINE
  8
0
 10
-381.286
 20
-53.3817
 11
-381.407
 21
-53.5268
  0
LINE
  8
0
 10
-381.407
 20
-53.5268
 11
-381.544
 21
-53.6558
  0
LINE
  8
0
 10
-381.544
 20
-53.6558
 11
-381.696
 21
-53.7665
  0
LINE
  8
0
 10
-381.696
 20
-53.7665
 11
-381.861
 21
-53.8572
  0
LINE
  8
0
 10
-381.861
 20
-53.8572
 11
-382.036
 21
-53.9266
  0
LINE
  8
0
 10
-382.036
 20
-53.9266
 11
-382.219
 21
-53.9734
  0
LINE
  8
0
 10
-382.219
 20
-53.9734
 11
-382.406
 21
-53.997
  0
LINE
  8
0
 10
-382.406
 20
-53.997
 11
-382.594
 21
-53.997
  0
LINE
  8
0
 10
382.406
 20
-53.997
 11
382.219
 21
-53.9734
  0
LINE
  8
0
 10
382.219
 20
-53.9734
 11
382.036
 21
-53.9266
  0
LINE
  8
0
 10
382.036
 20
-53.9266
 11
381.861
 21
-53.8572
  0
LINE
  8
0
 10
381.861
 20
-53.8572
 11
381.696
 21
-53.7665
  0
LINE
  8
0
 10
381.696
 20
-53.7665
 11
381.544
 21
-53.6558
  0
LINE
  8
0
 10
381.544
 20
-53.6558
 11
381.407
 21
-53.5268
  0
LINE
  8
0
 10
381.407
 20
-53.5268
 11
381.286
 21
-53.3817
  0
LINE
  8
0
 10
381.286
 20
-53.3817
 11
381.186
 21
-53.2226
  0
LINE
  8
0
 10
381.186
 20
-53.2226
 11
381.105
 21
-53.0522
  0
LINE
  8
0
 10
381.105
 20
-53.0522
 11
381.047
 21
-52.873
  0
LINE
  8
0
 10
381.047
 20
-52.873
 11
381.012
 21
-52.688
  0
LINE
  8
0
 10
381.012
 20
-52.688
 11
381
 21
-52.5
  0
LINE
  8
0
 10
381
 20
-52.5
 11
381.012
 21
-52.312
  0
LINE
  8
0
 10
381.012
 20
-52.312
 11
381.047
 21
-52.127
  0
LINE
  8
0
 10
381.047
 20
-52.127
 11
381.105
 21
-51.9478
  0
LINE
  8
0
 10
381.105
 20
-51.9478
 11
381.186
 21
-51.7774
  0
LINE
  8
0
 10
381.186
 20
-51.7774
 11
381.286
 21
-51.6183
  0
LINE
  8
0
 10
381.286
 20
-51.6183
 11
381.407
 21
-51.4732
  0
LINE
  8
0
 10
381.407
 20
-51.4732
 11
381.544
 21
-51.3442
  0
LINE
  8
0
 10
381.544
 20
-51.3442
 11
381.696
 21
-51.2335
  0
LINE
  8
0
 10
381.696
 20
-51.2335
 11
381.861
 21
-51.1428
  0
LINE
  8
0
 10
381.861
 20
-51.1428
 11
382.036
 21
-51.0734
  0
LINE
  8
0
 10
382.036
 20
-51.0734
 11
382.219
 21
-51.0266
  0
LINE
  8
0
 10
382.219
 20
-51.0266
 11
382.406
 21
-51.003
  0
LINE
  8
0
 10
382.406
 20
-51.003
 11
382.594
 21
-51.003
  0
LINE
  8
0
 10
382.594
 20
-51.003
 11
382.781
 21
-51.0266
  0
LINE
  8
0
 10
382.781
 20
-51.0266
 11
382.964
 21
-51.0734
  0
LINE
  8
0
 10
382.964
 20
-51.0734
 11
383.139
 21
-51.1428
  0
LINE
  8
0
 10
383.139
 20
-51.1428
 11
383.304
 21
-51.2335
  0
LINE
  8
0
 10
383.304
 20
-51.2335
 11
383.456
 21
-51.3442
  0
LINE
  8
0
 10
383.456
 20
-51.3442
 11
383.593
 21
-51.4732
  0
LINE
  8
0
 10
383.593
 20
-51.4732
 11
383.714
 21
-51.6183
  0
LINE
  8
0
 10
383.714
 20
-51.6183
 11
383.814
 21
-51.7774
  0
LINE
  8
0
 10
383.814
 20
-51.7774
 11
383.895
 21
-51.9478
  0
LINE
  8
0
 10
383.895
 20
-51.9478
 11
383.953
 21
-52.127
  0
LINE
  8
0
 10
383.953
 20
-52.127
 11
383.988
 21
-52.312
  0
LINE
  8
0
 10
383.988
 20
-52.312
 11
384
 21
-52.5
  0
LINE
  8
0
 10
384
 20
-52.5
 11
383.988
 21
-52.688
  0
LINE
  8
0
 10
383.988
 20
-52.688
 11
383.953
 21
-52.873
  0
LINE
  8
0
 10
383.953
 20
-52.873
 11
383.895
 21
-53.0522
  0
LINE
  8
0
 10
383.895
 20
-53.0522
 11
383.814
 21
-53.2226
  0
LINE
  8
0
 10
383.814
 20
-53.2226
 11
383.714
 21
-53.3817
  0
LINE
  8
0
 10
383.714
 20
-53.3817
 11
383.593
 21
-53.5268
  0
LINE
  8
0
 10
383.593
 20
-53.5268
 11
383.456
 21
-53.6558
  0
LINE
  8
0
 10
383.456
 20
-53.6558
 11
383.304
 21
-53.7665
  0
LINE
  8
0
 10
383.304
 20
-53.7665
 11
383.139
 21
-53.8572
  0
LINE
  8
0
 10
383.139
 20
-53.8572
 11
382.964
 21
-53.9266
  0
LINE
  8
0
 10
382.964
 20
-53.9266
 11
382.781
 21
-53.9734
  0
LINE
  8
0
 10
382.781
 20
-53.9734
 11
382.594
 21
-53.997
  0
LINE
  8
0
 10
382.594
 20
-53.997
 11
382.406
 21
-53.997
  0
LINE
  8
0
 10
382.312
 20
-62.9941
 11
381.938
 21
-62.9469
  0
LINE
  8
0
 10
381.938
 20
-62.9469
 11
381.573
 21
-62.8532
  0
LINE
  8
0
 10
381.573
 20
-62.8532
 11
381.223
 21
-62.7145
  0
LINE
  8
0
 10
381.223
 20
-62.7145
 11
380.893
 21
-62.533
  0
LINE
  8
0
 10
380.893
 20
-62.533
 11
380.588
 21
-62.3115
  0
LINE
  8
0
 10
380.588
 20
-62.3115
 11
380.313
 21
-62.0536
  0
LINE
  8
0
 10
380.313
 20
-62.0536
 11
380.073
 21
-61.7634
  0
LINE
  8
0
 10
380.073
 20
-61.7634
 11
379.871
 21
-61.4453
  0
LINE
  8
0
 10
379.871
 20
-61.4453
 11
379.711
 21
-61.1044
  0
LINE
  8
0
 10
379.711
 20
-61.1044
 11
379.594
 21
-60.7461
  0
LINE
  8
0
 10
379.594
 20
-60.7461
 11
379.524
 21
-60.376
  0
LINE
  8
0
 10
379.524
 20
-60.376
 11
379.5
 21
-60
  0
LINE
  8
0
 10
379.5
 20
-60
 11
379.524
 21
-59.624
  0
LINE
  8
0
 10
379.524
 20
-59.624
 11
379.594
 21
-59.2539
  0
LINE
  8
0
 10
379.594
 20
-59.2539
 11
379.711
 21
-58.8956
  0
LINE
  8
0
 10
379.711
 20
-58.8956
 11
379.871
 21
-58.5547
  0
LINE
  8
0
 10
379.871
 20
-58.5547
 11
380.073
 21
-58.2366
  0
LINE
  8
0
 10
380.073
 20
-58.2366
 11
380.313
 21
-57.9464
  0
LINE
  8
0
 10
380.313
 20
-57.9464
 11
380.588
 21
-57.6885
  0
LINE
  8
0
 10
380.588
 20
-57.6885
 11
380.893
 21
-57.467
  0
LINE
  8
0
 10
380.893
 20
-57.467
 11
381.223
 21
-57.2855
  0
LINE
  8
0
 10
381.223
 20
-57.2855
 11
381.573
 21
-57.1468
  0
LINE
  8
0
 10
381.573
 20
-57.1468
 11
381.938
 21
-57.0531
  0
LINE
  8
0
 10
381.938
 20
-57.0531
 11
382.312
 21
-57.0059
  0
LINE
  8
0
 10
382.312
 20
-57.0059
 11
382.688
 21
-57.0059
  0
LINE
  8
0
 10
382.688
 20
-57.0059
 11
383.062
 21
-57.0531
  0
LINE
  8
0
 10
383.062
 20
-57.0531
 11
383.427
 21
-57.1468
  0
LINE
  8
0
 10
383.427
 20
-57.1468
 11
383.777
 21
-57.2855
  0
LINE
  8
0
 10
383.777
 20
-57.2855
 11
384.107
 21
-57.467
  0
LINE
  8
0
 10
384.107
 20
-57.467
 11
384.412
 21
-57.6885
  0
LINE
  8
0
 10
384.412
 20
-57.6885
 11
384.687
 21
-57.9464
  0
LINE
  8
0
 10
384.687
 20
-57.9464
 11
384.927
 21
-58.2366
  0
LINE
  8
0
 10
384.927
 20
-58.2366
 11
385.129
 21
-58.5547
  0
LINE
  8
0
 10
385.129
 20
-58.5547
 11
385.289
 21
-58.8956
  0
LINE
  8
0
 10
385.289
 20
-58.8956
 11
385.406
 21
-59.2539
  0
LINE
  8
0
 10
385.406
 20
-59.2539
 11
385.476
 21
-59.624
  0
LINE
  8
0
 10
385.476
 20
-59.624
 11
385.5
 21
-60
  0
LINE
  8
0
 10
385.5
 20
-60
 11
385.476
 21
-60.376
  0
LINE
  8
0
 10
385.476
 20
-60.376
 11
385.406
 21
-60.7461
  0
LINE
  8
0
 10
385.406
 20
-60.7461
 11
385.289
 21
-61.1044
  0
LINE
  8
0
 10
385.289
 20
-61.1044
 11
385.129
 21
-61.4453
  0
LINE
  8
0
 10
385.129
 20
-61.4453
 11
384.927
 21
-61.7634
  0
LINE
  8
0
 10
384.927
 20
-61.7634
 11
384.687
 21
-62.0536
  0
LINE
  8
0
 10
384.687
 20
-62.0536
 11
384.412
 21
-62.3115
  0
LINE
  8
0
 10
384.412
 20
-62.3115
 11
384.107
 21
-62.533
  0
LINE
  8
0
 10
384.107
 20
-62.533
 11
383.777
 21
-62.7145
  0
LINE
  8
0
 10
383.777
 20
-62.7145
 11
383.427
 21
-62.8532
  0
LINE
  8
0
 10
383.427
 20
-62.8532
 11
383.062
 21
-62.9469
  0
LINE
  8
0
 10
383.062
 20
-62.9469
 11
382.688
 21
-62.9941
  0
LINE
  8
0
 10
382.688
 20
-62.9941
 11
382.312
 21
-62.9941
  0
LINE
  8
0
 10
-382.688
 20
-62.9941
 11
-383.062
 21
-62.9469
  0
LINE
  8
0
 10
-383.062
 20
-62.9469
 11
-383.427
 21
-62.8532
  0
LINE
  8
0
 10
-383.427
 20
-62.8532
 11
-383.777
 21
-62.7145
  0
LINE
  8
0
 10
-383.777
 20
-62.7145
 11
-384.107
 21
-62.533
  0
LINE
  8
0
 10
-384.107
 20
-62.533
 11
-384.412
 21
-62.3115
  0
LINE
  8
0
 10
-384.412
 20
-62.3115
 11
-384.687
 21
-62.0536
  0
LINE
  8
0
 10
-384.687
 20
-62.0536
 11
-384.927
 21
-61.7634
  0
LINE
  8
0
 10
-384.927
 20
-61.7634
 11
-385.129
 21
-61.4453
  0
LINE
  8
0
 10
-385.129
 20
-61.4453
 11
-385.289
 21
-61.1044
  0
LINE
  8
0
 10
-385.289
 20
-61.1044
 11
-385.406
 21
-60.7461
  0
LINE
  8
0
 10
-385.406
 20
-60.7461
 11
-385.476
 21
-60.376
  0
LINE
  8
0
 10
-385.476
 20
-60.376
 11
-385.5
 21
-60
  0
LINE
  8
0
 10
-385.5
 20
-60
 11
-385.476
 21
-59.624
  0
LINE
  8
0
 10
-385.476
 20
-59.624
 11
-385.406
 21
-59.2539
  0
LINE
  8
0
 10
-385.406
 20
-59.2539
 11
-385.289
 21
-58.8956
  0
LINE
  8
0
 10
-385.289
 20
-58.8956
 11
-385.129
 21
-58.5547
  0
LINE
  8
0
 10
-385.129
 20
-58.5547
 11
-384.927
 21
-58.2366
  0
LINE
  8
0
 10
-384.927
 20
-58.2366
 11
-384.687
 21
-57.9464
  0
LINE
  8
0
 10
-384.687
 20
-57.9464
 11
-384.412
 21
-57.6885
  0
LINE
  8
0
 10
-384.412
 20
-57.6885
 11
-384.107
 21
-57.467
  0
LINE
  8
0
 10
-384.107
 20
-57.467
 11
-383.777
 21
-57.2855
  0
LINE
  8
0
 10
-383.777
 20
-57.2855
 11
-383.427
 21
-57.1468
  0
LINE
  8
0
 10
-383.427
 20
-57.1468
 11
-383.062
 21
-57.0531
  0
LINE
  8
0
 10
-383.062
 20
-57.0531
 11
-382.688
 21
-57.0059
  0
LINE
  8
0
 10
-382.688
 20
-57.0059
 11
-382.312
 21
-57.0059
  0
LINE
  8
0
 10
-382.312
 20
-57.0059
 11
-381.938
 21
-57.0531
  0
LINE
  8
0
 10
-381.938
 20
-57.0531
 11
-381.573
 21
-57.1468
  0
LINE
  8
0
 10
-381.573
 20
-57.1468
 11
-381.223
 21
-57.2855
  0
LINE
  8
0
 10
-381.223
 20
-57.2855
 11
-380.893
 21
-57.467
  0
LINE
  8
0
 10
-380.893
 20
-57.467
 11
-380.588
 21
-57.6885
  0
LINE
  8
0
 10
-380.588
 20
-57.6885
 11
-380.313
 21
-57.9464
  0
LINE
  8
0
 10
-380.313
 20
-57.9464
 11
-380.073
 21
-58.2366
  0
LINE
  8
0
 10
-380.073
 20
-58.2366
 11
-379.871
 21
-58.5547
  0
LINE
  8
0
 10
-379.871
 20
-58.5547
 11
-379.711
 21
-58.8956
  0
LINE
  8
0
 10
-379.711
 20
-58.8956
 11
-379.594
 21
-59.2539
  0
LINE
  8
0
 10
-379.594
 20
-59.2539
 11
-379.524
 21
-59.624
  0
LINE
  8
0
 10
-379.524
 20
-59.624
 11
-379.5
 21
-60
  0
LINE
  8
0
 10
-379.5
 20
-60
 11
-379.524
 21
-60.376
  0
LINE
  8
0
 10
-379.524
 20
-60.376
 11
-379.594
 21
-60.7461
  0
LINE
  8
0
 10
-379.594
 20
-60.7461
 11
-379.711
 21
-61.1044
  0
LINE
  8
0
 10
-379.711
 20
-61.1044
 11
-379.871
 21
-61.4453
  0
LINE
  8
0
 10
-379.871
 20
-61.4453
 11
-380.073
 21
-61.7634
  0
LINE
  8
0
 10
-380.073
 20
-61.7634
 11
-380.313
 21
-62.0536
  0
LINE
  8
0
 10
-380.313
 20
-62.0536
 11
-380.588
 21
-62.3115
  0
LINE
  8
0
 10
-380.588
 20
-62.3115
 11
-380.893
 21
-62.533
  0
LINE
  8
0
 10
-380.893
 20
-62.533
 11
-381.223
 21
-62.7145
  0
LINE
  8
0
 10
-381.223
 20
-62.7145
 11
-381.573
 21
-62.8532
  0
LINE
  8
0
 10
-381.573
 20
-62.8532
 11
-381.938
 21
-62.9469
  0
LINE
  8
0
 10
-381.938
 20
-62.9469
 11
-382.312
 21
-62.9941
  0
LINE
  8
0
 10
-382.312
 20
-62.9941
 11
-382.688
 21
-62.9941
  0
LINE
  8
0
 10
-382.594
 20
-68.997
 11
-382.781
 21
-68.9734
  0
LINE
  8
0
 10
-382.781
 20
-68.9734
 11
-382.964
 21
-68.9266
  0
LINE
  8
0
 10
-382.964
 20
-68.9266
 11
-383.139
 21
-68.8572
  0
LINE
  8
0
 10
-383.139
 20
-68.8572
 11
-383.304
 21
-68.7665
  0
LINE
  8
0
 10
-383.304
 20
-68.7665
 11
-383.456
 21
-68.6558
  0
LINE
  8
0
 10
-383.456
 20
-68.6558
 11
-383.593
 21
-68.5268
  0
LINE
  8
0
 10
-383.593
 20
-68.5268
 11
-383.714
 21
-68.3817
  0
LINE
  8
0
 10
-383.714
 20
-68.3817
 11
-383.814
 21
-68.2226
  0
LINE
  8
0
 10
-383.814
 20
-68.2226
 11
-383.895
 21
-68.0522
  0
LINE
  8
0
 10
-383.895
 20
-68.0522
 11
-383.953
 21
-67.873
  0
LINE
  8
0
 10
-383.953
 20
-67.873
 11
-383.988
 21
-67.688
  0
LINE
  8
0
 10
-383.988
 20
-67.688
 11
-384
 21
-67.5
  0
LINE
  8
0
 10
-384
 20
-67.5
 11
-383.988
 21
-67.312
  0
LINE
  8
0
 10
-383.988
 20
-67.312
 11
-383.953
 21
-67.127
  0
LINE
  8
0
 10
-383.953
 20
-67.127
 11
-383.895
 21
-66.9478
  0
LINE
  8
0
 10
-383.895
 20
-66.9478
 11
-383.814
 21
-66.7774
  0
LINE
  8
0
 10
-383.814
 20
-66.7774
 11
-383.714
 21
-66.6183
  0
LINE
  8
0
 10
-383.714
 20
-66.6183
 11
-383.593
 21
-66.4732
  0
LINE
  8
0
 10
-383.593
 20
-66.4732
 11
-383.456
 21
-66.3442
  0
LINE
  8
0
 10
-383.456
 20
-66.3442
 11
-383.304
 21
-66.2335
  0
LINE
  8
0
 10
-383.304
 20
-66.2335
 11
-383.139
 21
-66.1428
  0
LINE
  8
0
 10
-383.139
 20
-66.1428
 11
-382.964
 21
-66.0734
  0
LINE
  8
0
 10
-382.964
 20
-66.0734
 11
-382.781
 21
-66.0266
  0
LINE
  8
0
 10
-382.781
 20
-66.0266
 11
-382.594
 21
-66.003
  0
LINE
  8
0
 10
-382.594
 20
-66.003
 11
-382.406
 21
-66.003
  0
LINE
  8
0
 10
-382.406
 20
-66.003
 11
-382.219
 21
-66.0266
  0
LINE
  8
0
 10
-382.219
 20
-66.0266
 11
-382.036
 21
-66.0734
  0
LINE
  8
0
 10
-382.036
 20
-66.0734
 11
-381.861
 21
-66.1428
  0
LINE
  8
0
 10
-381.861
 20
-66.1428
 11
-381.696
 21
-66.2335
  0
LINE
  8
0
 10
-381.696
 20
-66.2335
 11
-381.544
 21
-66.3442
  0
LINE
  8
0
 10
-381.544
 20
-66.3442
 11
-381.407
 21
-66.4732
  0
LINE
  8
0
 10
-381.407
 20
-66.4732
 11
-381.286
 21
-66.6183
  0
LINE
  8
0
 10
-381.286
 20
-66.6183
 11
-381.186
 21
-66.7774
  0
LINE
  8
0
 10
-381.186
 20
-66.7774
 11
-381.105
 21
-66.9478
  0
LINE
  8
0
 10
-381.105
 20
-66.9478
 11
-381.047
 21
-67.127
  0
LINE
  8
0
 10
-381.047
 20
-67.127
 11
-381.012
 21
-67.312
  0
LINE
  8
0
 10
-381.012
 20
-67.312
 11
-381
 21
-67.5
  0
LINE
  8
0
 10
-381
 20
-67.5
 11
-381.012
 21
-67.688
  0
LINE
  8
0
 10
-381.012
 20
-67.688
 11
-381.047
 21
-67.873
  0
LINE
  8
0
 10
-381.047
 20
-67.873
 11
-381.105
 21
-68.0522
  0
LINE
  8
0
 10
-381.105
 20
-68.0522
 11
-381.186
 21
-68.2226
  0
LINE
  8
0
 10
-381.186
 20
-68.2226
 11
-381.286
 21
-68.3817
  0
LINE
  8
0
 10
-381.286
 20
-68.3817
 11
-381.407
 21
-68.5268
  0
LINE
  8
0
 10
-381.407
 20
-68.5268
 11
-381.544
 21
-68.6558
  0
LINE
  8
0
 10
-381.544
 20
-68.6558
 11
-381.696
 21
-68.7665
  0
LINE
  8
0
 10
-381.696
 20
-68.7665
 11
-381.861
 21
-68.8572
  0
LINE
  8
0
 10
-381.861
 20
-68.8572
 11
-382.036
 21
-68.9266
  0
LINE
  8
0
 10
-382.036
 20
-68.9266
 11
-382.219
 21
-68.9734
  0
LINE
  8
0
 10
-382.219
 20
-68.9734
 11
-382.406
 21
-68.997
  0
LINE
  8
0
 10
-382.406
 20
-68.997
 11
-382.594
 21
-68.997
  0
LINE
  8
0
 10
382.406
 20
-68.997
 11
382.219
 21
-68.9734
  0
LINE
  8
0
 10
382.219
 20
-68.9734
 11
382.036
 21
-68.9266
  0
LINE
  8
0
 10
382.036
 20
-68.9266
 11
381.861
 21
-68.8572
  0
LINE
  8
0
 10
381.861
 20
-68.8572
 11
381.696
 21
-68.7665
  0
LINE
  8
0
 10
381.696
 20
-68.7665
 11
381.544
 21
-68.6558
  0
LINE
  8
0
 10
381.544
 20
-68.6558
 11
381.407
 21
-68.5268
  0
LINE
  8
0
 10
381.407
 20
-68.5268
 11
381.286
 21
-68.3817
  0
LINE
  8
0
 10
381.286
 20
-68.3817
 11
381.186
 21
-68.2226
  0
LINE
  8
0
 10
381.186
 20
-68.2226
 11
381.105
 21
-68.0522
  0
LINE
  8
0
 10
381.105
 20
-68.0522
 11
381.047
 21
-67.873
  0
LINE
  8
0
 10
381.047
 20
-67.873
 11
381.012
 21
-67.688
  0
LINE
  8
0
 10
381.012
 20
-67.688
 11
381
 21
-67.5
  0
LINE
  8
0
 10
381
 20
-67.5
 11
381.012
 21
-67.312
  0
LINE
  8
0
 10
381.012
 20
-67.312
 11
381.047
 21
-67.127
  0
LINE
  8
0
 10
381.047
 20
-67.127
 11
381.105
 21
-66.9478
  0
LINE
  8
0
 10
381.105
 20
-66.9478
 11
381.186
 21
-66.7774
  0
LINE
  8
0
 10
381.186
 20
-66.7774
 11
381.286
 21
-66.6183
  0
LINE
  8
0
 10
381.286
 20
-66.6183
 11
381.407
 21
-66.4732
  0
LINE
  8
0
 10
381.407
 20
-66.4732
 11
381.544
 21
-66.3442
  0
LINE
  8
0
 10
381.544
 20
-66.3442
 11
381.696
 21
-66.2335
  0
LINE
  8
0
 10
381.696
 20
-66.2335
 11
381.861
 21
-66.1428
  0
LINE
  8
0
 10
381.861
 20
-66.1428
 11
382.036
 21
-66.0734
  0
LINE
  8
0
 10
382.036
 20
-66.0734
 11
382.219
 21
-66.0266
  0
LINE
  8
0
 10
382.219
 20
-66.0266
 11
382.406
 21
-66.003
  0
LINE
  8
0
 10
382.406
 20
-66.003
 11
382.594
 21
-66.003
  0
LINE
  8
0
 10
382.594
 20
-66.003
 11
382.781
 21
-66.0266
  0
LINE
  8
0
 10
382.781
 20
-66.0266
 11
382.964
 21
-66.0734
  0
LINE
  8
0
 10
382.964
 20
-66.0734
 11
383.139
 21
-66.1428
  0
LINE
  8
0
 10
383.139
 20
-66.1428
 11
383.304
 21
-66.2335
  0
LINE
  8
0
 10
383.304
 20
-66.2335
 11
383.456
 21
-66.3442
  0
LINE
  8
0
 10
383.456
 20
-66.3442
 11
383.593
 21
-66.4732
  0
LINE
  8
0
 10
383.593
 20
-66.4732
 11
383.714
 21
-66.6183
  0
LINE
  8
0
 10
383.714
 20
-66.6183
 11
383.814
 21
-66.7774
  0
LINE
  8
0
 10
383.814
 20
-66.7774
 11
383.895
 21
-66.9478
  0
LINE
  8
0
 10
383.895
 20
-66.9478
 11
383.953
 21
-67.127
  0
LINE
  8
0
 10
383.953
 20
-67.127
 11
383.988
 21
-67.312
  0
LINE
  8
0
 10
383.988
 20
-67.312
 11
384
 21
-67.5
  0
LINE
  8
0
 10
384
 20
-67.5
 11
383.988
 21
-67.688
  0
LINE
  8
0
 10
383.988
 20
-67.688
 11
383.953
 21
-67.873
  0
LINE
  8
0
 10
383.953
 20
-67.873
 11
383.895
 21
-68.0522
  0
LINE
  8
0
 10
383.895
 20
-68.0522
 11
383.814
 21
-68.2226
  0
LINE
  8
0
 10
383.814
 20
-68.2226
 11
383.714
 21
-68.3817
  0
LINE
  8
0
 10
383.714
 20
-68.3817
 11
383.593
 21
-68.5268
  0
LINE
  8
0
 10
383.593
 20
-68.5268
 11
383.456
 21
-68.6558
  0
LINE
  8
0
 10
383.456
 20
-68.6558
 11
383.304
 21
-68.7665
  0
LINE
  8
0
 10
383.304
 20
-68.7665
 11
383.139
 21
-68.8572
  0
LINE
  8
0
 10
383.139
 20
-68.8572
 11
382.964
 21
-68.9266
  0
LINE
  8
0
 10
382.964
 20
-68.9266
 11
382.781
 21
-68.9734
  0
LINE
  8
0
 10
382.781
 20
-68.9734
 11
382.594
 21
-68.997
  0
LINE
  8
0
 10
382.594
 20
-68.997
 11
382.406
 21
-68.997
  0
LINE
  8
0
 10
-382.688
 20
-77.9941
 11
-383.062
 21
-77.9469
  0
LINE
  8
0
 10
-383.062
 20
-77.9469
 11
-383.427
 21
-77.8532
  0
LINE
  8
0
 10
-383.427
 20
-77.8532
 11
-383.777
 21
-77.7145
  0
LINE
  8
0
 10
-383.777
 20
-77.7145
 11
-384.107
 21
-77.533
  0
LINE
  8
0
 10
-384.107
 20
-77.533
 11
-384.412
 21
-77.3115
  0
LINE
  8
0
 10
-384.412
 20
-77.3115
 11
-384.687
 21
-77.0536
  0
LINE
  8
0
 10
-384.687
 20
-77.0536
 11
-384.927
 21
-76.7634
  0
LINE
  8
0
 10
-384.927
 20
-76.7634
 11
-385.129
 21
-76.4453
  0
LINE
  8
0
 10
-385.129
 20
-76.4453
 11
-385.289
 21
-76.1044
  0
LINE
  8
0
 10
-385.289
 20
-76.1044
 11
-385.406
 21
-75.7461
  0
LINE
  8
0
 10
-385.406
 20
-75.7461
 11
-385.476
 21
-75.376
  0
LINE
  8
0
 10
-385.476
 20
-75.376
 11
-385.5
 21
-75
  0
LINE
  8
0
 10
-385.5
 20
-75
 11
-385.476
 21
-74.624
  0
LINE
  8
0
 10
-385.476
 20
-74.624
 11
-385.406
 21
-74.2539
  0
LINE
  8
0
 10
-385.406
 20
-74.2539
 11
-385.289
 21
-73.8956
  0
LINE
  8
0
 10
-385.289
 20
-73.8956
 11
-385.129
 21
-73.5547
  0
LINE
  8
0
 10
-385.129
 20
-73.5547
 11
-384.927
 21
-73.2366
  0
LINE
  8
0
 10
-384.927
 20
-73.2366
 11
-384.687
 21
-72.9464
  0
LINE
  8
0
 10
-384.687
 20
-72.9464
 11
-384.412
 21
-72.6885
  0
LINE
  8
0
 10
-384.412
 20
-72.6885
 11
-384.107
 21
-72.467
  0
LINE
  8
0
 10
-384.107
 20
-72.467
 11
-383.777
 21
-72.2855
  0
LINE
  8
0
 10
-383.777
 20
-72.2855
 11
-383.427
 21
-72.1468
  0
LINE
  8
0
 10
-383.427
 20
-72.1468
 11
-383.062
 21
-72.0531
  0
LINE
  8
0
 10
-383.062
 20
-72.0531
 11
-382.688
 21
-72.0059
  0
LINE
  8
0
 10
-382.688
 20
-72.0059
 11
-382.312
 21
-72.0059
  0
LINE
  8
0
 10
-382.312
 20
-72.0059
 11
-381.938
 21
-72.0531
  0
LINE
  8
0
 10
-381.938
 20
-72.0531
 11
-381.573
 21
-72.1468
  0
LINE
  8
0
 10
-381.573
 20
-72.1468
 11
-381.223
 21
-72.2855
  0
LINE
  8
0
 10
-381.223
 20
-72.2855
 11
-380.893
 21
-72.467
  0
LINE
  8
0
 10
-380.893
 20
-72.467
 11
-380.588
 21
-72.6885
  0
LINE
  8
0
 10
-380.588
 20
-72.6885
 11
-380.313
 21
-72.9464
  0
LINE
  8
0
 10
-380.313
 20
-72.9464
 11
-380.073
 21
-73.2366
  0
LINE
  8
0
 10
-380.073
 20
-73.2366
 11
-379.871
 21
-73.5547
  0
LINE
  8
0
 10
-379.871
 20
-73.5547
 11
-379.711
 21
-73.8956
  0
LINE
  8
0
 10
-379.711
 20
-73.8956
 11
-379.594
 21
-74.2539
  0
LINE
  8
0
 10
-379.594
 20
-74.2539
 11
-379.524
 21
-74.624
  0
LINE
  8
0
 10
-379.524
 20
-74.624
 11
-379.5
 21
-75
  0
LINE
  8
0
 10
-379.5
 20
-75
 11
-379.524
 21
-75.376
  0
LINE
  8
0
 10
-379.524
 20
-75.376
 11
-379.594
 21
-75.7461
  0
LINE
  8
0
 10
-379.594
 20
-75.7461
 11
-379.711
 21
-76.1044
  0
LINE
  8
0
 10
-379.711
 20
-76.1044
 11
-379.871
 21
-76.4453
  0
LINE
  8
0
 10
-379.871
 20
-76.4453
 11
-380.073
 21
-76.7634
  0
LINE
  8
0
 10
-380.073
 20
-76.7634
 11
-380.313
 21
-77.0536
  0
LINE
  8
0
 10
-380.313
 20
-77.0536
 11
-380.588
 21
-77.3115
  0
LINE
  8
0
 10
-380.588
 20
-77.3115
 11
-380.893
 21
-77.533
  0
LINE
  8
0
 10
-380.893
 20
-77.533
 11
-381.223
 21
-77.7145
  0
LINE
  8
0
 10
-381.223
 20
-77.7145
 11
-381.573
 21
-77.8532
  0
LINE
  8
0
 10
-381.573
 20
-77.8532
 11
-381.938
 21
-77.9469
  0
LINE
  8
0
 10
-381.938
 20
-77.9469
 11
-382.312
 21
-77.9941
  0
LINE
  8
0
 10
-382.312
 20
-77.9941
 11
-382.688
 21
-77.9941
  0
LINE
  8
0
 10
382.312
 20
-77.9941
 11
381.938
 21
-77.9469
  0
LINE
  8
0
 10
381.938
 20
-77.9469
 11
381.573
 21
-77.8532
  0
LINE
  8
0
 10
381.573
 20
-77.8532
 11
381.223
 21
-77.7145
  0
LINE
  8
0
 10
381.223
 20
-77.7145
 11
380.893
 21
-77.533
  0
LINE
  8
0
 10
380.893
 20
-77.533
 11
380.588
 21
-77.3115
  0
LINE
  8
0
 10
380.588
 20
-77.3115
 11
380.313
 21
-77.0536
  0
LINE
  8
0
 10
380.313
 20
-77.0536
 11
380.073
 21
-76.7634
  0
LINE
  8
0
 10
380.073
 20
-76.7634
 11
379.871
 21
-76.4453
  0
LINE
  8
0
 10
379.871
 20
-76.4453
 11
379.711
 21
-76.1044
  0
LINE
  8
0
 10
379.711
 20
-76.1044
 11
379.594
 21
-75.7461
  0
LINE
  8
0
 10
379.594
 20
-75.7461
 11
379.524
 21
-75.376
  0
LINE
  8
0
 10
379.524
 20
-75.376
 11
379.5
 21
-75
  0
LINE
  8
0
 10
379.5
 20
-75
 11
379.524
 21
-74.624
  0
LINE
  8
0
 10
379.524
 20
-74.624
 11
379.594
 21
-74.2539
  0
LINE
  8
0
 10
379.594
 20
-74.2539
 11
379.711
 21
-73.8956
  0
LINE
  8
0
 10
379.711
 20
-73.8956
 11
379.871
 21
-73.5547
  0
LINE
  8
0
 10
379.871
 20
-73.5547
 11
380.073
 21
-73.2366
  0
LINE
  8
0
 10
380.073
 20
-73.2366
 11
380.313
 21
-72.9464
  0
LINE
  8
0
 10
380.313
 20
-72.9464
 11
380.588
 21
-72.6885
  0
LINE
  8
0
 10
380.588
 20
-72.6885
 11
380.893
 21
-72.467
  0
LINE
  8
0
 10
380.893
 20
-72.467
 11
381.223
 21
-72.2855
  0
LINE
  8
0
 10
381.223
 20
-72.2855
 11
381.573
 21
-72.1468
  0
LINE
  8
0
 10
381.573
 20
-72.1468
 11
381.938
 21
-72.0531
  0
LINE
  8
0
 10
381.938
 20
-72.0531
 11
382.312
 21
-72.0059
  0
LINE
  8
0
 10
382.312
 20
-72.0059
 11
382.688
 21
-72.0059
  0
LINE
  8
0
 10
382.688
 20
-72.0059
 11
383.062
 21
-72.0531
  0
LINE
  8
0
 10
383.062
 20
-72.0531
 11
383.427
 21
-72.1468
  0
LINE
  8
0
 10
383.427
 20
-72.1468
 11
383.777
 21
-72.2855
  0
LINE
  8
0
 10
383.777
 20
-72.2855
 11
384.107
 21
-72.467
  0
LINE
  8
0
 10
384.107
 20
-72.467
 11
384.412
 21
-72.6885
  0
LINE
  8
0
 10
384.412
 20
-72.6885
 11
384.687
 21
-72.9464
  0
LINE
  8
0
 10
384.687
 20
-72.9464
 11
384.927
 21
-73.2366
  0
LINE
  8
0
 10
384.927
 20
-73.2366
 11
385.129
 21
-73.5547
  0
LINE
  8
0
 10
385.129
 20
-73.5547
 11
385.289
 21
-73.8956
  0
LINE
  8
0
 10
385.289
 20
-73.8956
 11
385.406
 21
-74.2539
  0
LINE
  8
0
 10
385.406
 20
-74.2539
 11
385.476
 21
-74.624
  0
LINE
  8
0
 10
385.476
 20
-74.624
 11
385.5
 21
-75
  0
LINE
  8
0
 10
385.5
 20
-75
 11
385.476
 21
-75.376
  0
LINE
  8
0
 10
385.476
 20
-75.376
 11
385.406
 21
-75.7461
  0
LINE
  8
0
 10
385.406
 20
-75.7461
 11
385.289
 21
-76.1044
  0
LINE
  8
0
 10
385.289
 20
-76.1044
 11
385.129
 21
-76.4453
  0
LINE
  8
0
 10
385.129
 20
-76.4453
 11
384.927
 21
-76.7634
  0
LINE
  8
0
 10
384.927
 20
-76.7634
 11
384.687
 21
-77.0536
  0
LINE
  8
0
 10
384.687
 20
-77.0536
 11
384.412
 21
-77.3115
  0
LINE
  8
0
 10
384.412
 20
-77.3115
 11
384.107
 21
-77.533
  0
LINE
  8
0
 10
384.107
 20
-77.533
 11
383.777
 21
-77.7145
  0
LINE
  8
0
 10
383.777
 20
-77.7145
 11
383.427
 21
-77.8532
  0
LINE
  8
0
 10
383.427
 20
-77.8532
 11
383.062
 21
-77.9469
  0
LINE
  8
0
 10
383.062
 20
-77.9469
 11
382.688
 21
-77.9941
  0
LINE
  8
0
 10
382.688
 20
-77.9941
 11
382.312
 21
-77.9941
  0
ENDSEC
  0
SECTION
  2
OBJECTS
  0
DICTIONARY
  0
ENDSEC
  0
EOF
