  0
SECTION
  2
BLOCKS
  0
ENDSEC
  0
SECTION
  2
ENTITIES
  0
LINE
  8
0
 10
122.937
 20
-29.4114
 11
123.545
 21
-29.2553
  0
LINE
  8
0
 10
123.545
 20
-29.2553
 11
124.129
 21
-29.0241
  0
LINE
  8
0
 10
124.129
 20
-29.0241
 11
124.679
 21
-28.7216
  0
LINE
  8
0
 10
124.679
 20
-28.7216
 11
125.187
 21
-28.3526
  0
LINE
  8
0
 10
125.187
 20
-28.3526
 11
125.645
 21
-27.9227
  0
LINE
  8
0
 10
125.645
 20
-27.9227
 11
126.045
 21
-27.4389
  0
LINE
  8
0
 10
126.045
 20
-27.4389
 11
126.382
 21
-26.9088
  0
LINE
  8
0
 10
126.382
 20
-26.9088
 11
126.649
 21
-26.3406
  0
LINE
  8
0
 10
126.649
 20
-26.3406
 11
126.843
 21
-25.7434
  0
LINE
  8
0
 10
126.843
 20
-25.7434
 11
126.961
 21
-25.1267
  0
LINE
  8
0
 10
126.961
 20
-25.1267
 11
127
 21
-24.5
  0
LINE
  8
0
 10
127
 20
-24.5
 11
127
 21
24.5
  0
LINE
  8
0
 10
127
 20
24.5
 11
126.961
 21
25.1267
  0
LINE
  8
0
 10
126.961
 20
25.1267
 11
126.843
 21
25.7434
  0
LINE
  8
0
 10
126.843
 20
25.7434
 11
126.649
 21
26.3406
  0
LINE
  8
0
 10
126.649
 20
26.3406
 11
126.382
 21
26.9088
  0
LINE
  8
0
 10
126.382
 20
26.9088
 11
126.045
 21
27.4389
  0
LINE
  8
0
 10
126.045
 20
27.4389
 11
125.645
 21
27.9227
  0
LINE
  8
0
 10
125.645
 20
27.9227
 11
125.187
 21
28.3526
  0
LINE
  8
0
 10
125.187
 20
28.3526
 11
124.679
 21
28.7216
  0
LINE
  8
0
 10
124.679
 20
28.7216
 11
124.129
 21
29.0241
  0
LINE
  8
0
 10
124.129
 20
29.0241
 11
123.545
 21
29.2553
  0
LINE
  8
0
 10
123.545
 20
29.2553
 11
122.937
 21
29.4114
  0
LINE
  8
0
 10
122.937
 20
29.4114
 11
122.314
 21
29.4901
  0
LINE
  8
0
 10
122.314
 20
29.4901
 11
-122.314
 21
29.4901
  0
LINE
  8
0
 10
-122.314
 20
29.4901
 11
-122.937
 21
29.4114
  0
LINE
  8
0
 10
-122.937
 20
29.4114
 11
-123.545
 21
29.2553
  0
LINE
  8
0
 10
-123.545
 20
29.2553
 11
-124.129
 21
29.0241
  0
LINE
  8
0
 10
-124.129
 20
29.0241
 11
-124.679
 21
28.7216
  0
LINE
  8
0
 10
-124.679
 20
28.7216
 11
-125.187
 21
28.3526
  0
LINE
  8
0
 10
-125.187
 20
28.3526
 11
-125.645
 21
27.9227
  0
LINE
  8
0
 10
-125.645
 20
27.9227
 11
-126.045
 21
27.4389
  0
LINE
  8
0
 10
-126.045
 20
27.4389
 11
-126.382
 21
26.9088
  0
LINE
  8
0
 10
-126.382
 20
26.9088
 11
-126.649
 21
26.3406
  0
LINE
  8
0
 10
-126.649
 20
26.3406
 11
-126.843
 21
25.7434
  0
LINE
  8
0
 10
-126.843
 20
25.7434
 11
-126.961
 21
25.1267
  0
LINE
  8
0
 10
-126.961
 20
25.1267
 11
-127
 21
24.5
  0
LINE
  8
0
 10
-127
 20
24.5
 11
-127
 21
-24.5
  0
LINE
  8
0
 10
-127
 20
-24.5
 11
-126.961
 21
-25.1267
  0
LINE
  8
0
 10
-126.961
 20
-25.1267
 11
-126.843
 21
-25.7434
  0
LINE
  8
0
 10
-126.843
 20
-25.7434
 11
-126.649
 21
-26.3406
  0
LINE
  8
0
 10
-126.649
 20
-26.3406
 11
-126.382
 21
-26.9088
  0
LINE
  8
0
 10
-126.382
 20
-26.9088
 11
-126.045
 21
-27.4389
  0
LINE
  8
0
 10
-126.045
 20
-27.4389
 11
-125.645
 21
-27.9227
  0
LINE
  8
0
 10
-125.645
 20
-27.9227
 11
-125.187
 21
-28.3526
  0
LINE
  8
0
 10
-125.187
 20
-28.3526
 11
-124.679
 21
-28.7216
  0
LINE
  8
0
 10
-124.679
 20
-28.7216
 11
-124.129
 21
-29.0241
  0
LINE
  8
0
 10
-124.129
 20
-29.0241
 11
-123.545
 21
-29.2553
  0
LINE
  8
0
 10
-123.545
 20
-29.2553
 11
-122.937
 21
-29.4114
  0
LINE
  8
0
 10
-122.937
 20
-29.4114
 11
-122.314
 21
-29.4901
  0
LINE
  8
0
 10
-122.314
 20
-29.4901
 11
122.314
 21
-29.4901
  0
LINE
  8
0
 10
122.314
 20
-29.4901
 11
122.937
 21
-29.4114
  0
LINE
  8
0
 10
-120.188
 20
19.5059
 11
-120.562
 21
19.5531
  0
LINE
  8
0
 10
-120.562
 20
19.5531
 11
-120.927
 21
19.6468
  0
LINE
  8
0
 10
-120.927
 20
19.6468
 11
-121.277
 21
19.7855
  0
LINE
  8
0
 10
-121.277
 20
19.7855
 11
-121.607
 21
19.967
  0
LINE
  8
0
 10
-121.607
 20
19.967
 11
-121.912
 21
20.1884
  0
LINE
  8
0
 10
-121.912
 20
20.1884
 11
-122.187
 21
20.4464
  0
LINE
  8
0
 10
-122.187
 20
20.4464
 11
-122.427
 21
20.7366
  0
LINE
  8
0
 10
-122.427
 20
20.7366
 11
-122.629
 21
21.0547
  0
LINE
  8
0
 10
-122.629
 20
21.0547
 11
-122.789
 21
21.3956
  0
LINE
  8
0
 10
-122.789
 20
21.3956
 11
-122.906
 21
21.7539
  0
LINE
  8
0
 10
-122.906
 20
21.7539
 11
-122.976
 21
22.124
  0
LINE
  8
0
 10
-122.976
 20
22.124
 11
-123
 21
22.5
  0
LINE
  8
0
 10
-123
 20
22.5
 11
-122.976
 21
22.876
  0
LINE
  8
0
 10
-122.976
 20
22.876
 11
-122.906
 21
23.2461
  0
LINE
  8
0
 10
-122.906
 20
23.2461
 11
-122.789
 21
23.6044
  0
LINE
  8
0
 10
-122.789
 20
23.6044
 11
-122.629
 21
23.9453
  0
LINE
  8
0
 10
-122.629
 20
23.9453
 11
-122.427
 21
24.2634
  0
LINE
  8
0
 10
-122.427
 20
24.2634
 11
-122.187
 21
24.5536
  0
LINE
  8
0
 10
-122.187
 20
24.5536
 11
-121.912
 21
24.8115
  0
LINE
  8
0
 10
-121.912
 20
24.8115
 11
-121.607
 21
25.033
  0
LINE
  8
0
 10
-121.607
 20
25.033
 11
-121.277
 21
25.2145
  0
LINE
  8
0
 10
-121.277
 20
25.2145
 11
-120.927
 21
25.3532
  0
LINE
  8
0
 10
-120.927
 20
25.3532
 11
-120.562
 21
25.4469
  0
LINE
  8
0
 10
-120.562
 20
25.4469
 11
-120.188
 21
25.4941
  0
LINE
  8
0
 10
-120.188
 20
25.4941
 11
-119.812
 21
25.4941
  0
LINE
  8
0
 10
-119.812
 20
25.4941
 11
-119.438
 21
25.4469
  0
LINE
  8
0
 10
-119.438
 20
25.4469
 11
-119.073
 21
25.3532
  0
LINE
  8
0
 10
-119.073
 20
25.3532
 11
-118.723
 21
25.2145
  0
LINE
  8
0
 10
-118.723
 20
25.2145
 11
-118.393
 21
25.033
  0
LINE
  8
0
 10
-118.393
 20
25.033
 11
-118.088
 21
24.8115
  0
LINE
  8
0
 10
-118.088
 20
24.8115
 11
-117.813
 21
24.5536
  0
LINE
  8
0
 10
-117.813
 20
24.5536
 11
-117.573
 21
24.2634
  0
LINE
  8
0
 10
-117.573
 20
24.2634
 11
-117.371
 21
23.9453
  0
LINE
  8
0
 10
-117.371
 20
23.9453
 11
-117.211
 21
23.6044
  0
LINE
  8
0
 10
-117.211
 20
23.6044
 11
-117.094
 21
23.2461
  0
LINE
  8
0
 10
-117.094
 20
23.2461
 11
-117.024
 21
22.876
  0
LINE
  8
0
 10
-117.024
 20
22.876
 11
-117
 21
22.5
  0
LINE
  8
0
 10
-117
 20
22.5
 11
-117.024
 21
22.124
  0
LINE
  8
0
 10
-117.024
 20
22.124
 11
-117.094
 21
21.7539
  0
LINE
  8
0
 10
-117.094
 20
21.7539
 11
-117.211
 21
21.3956
  0
LINE
  8
0
 10
-117.211
 20
21.3956
 11
-117.371
 21
21.0547
  0
LINE
  8
0
 10
-117.371
 20
21.0547
 11
-117.573
 21
20.7366
  0
LINE
  8
0
 10
-117.573
 20
20.7366
 11
-117.813
 21
20.4464
  0
LINE
  8
0
 10
-117.813
 20
20.4464
 11
-118.088
 21
20.1884
  0
LINE
  8
0
 10
-118.088
 20
20.1884
 11
-118.393
 21
19.967
  0
LINE
  8
0
 10
-118.393
 20
19.967
 11
-118.723
 21
19.7855
  0
LINE
  8
0
 10
-118.723
 20
19.7855
 11
-119.073
 21
19.6468
  0
LINE
  8
0
 10
-119.073
 20
19.6468
 11
-119.438
 21
19.5531
  0
LINE
  8
0
 10
-119.438
 20
19.5531
 11
-119.812
 21
19.5059
  0
LINE
  8
0
 10
-119.812
 20
19.5059
 11
-120.188
 21
19.5059
  0
LINE
  8
0
 10
119.812
 20
19.5059
 11
119.438
 21
19.5531
  0
LINE
  8
0
 10
119.438
 20
19.5531
 11
119.073
 21
19.6468
  0
LINE
  8
0
 10
119.073
 20
19.6468
 11
118.723
 21
19.7855
  0
LINE
  8
0
 10
118.723
 20
19.7855
 11
118.393
 21
19.967
  0
LINE
  8
0
 10
118.393
 20
19.967
 11
118.088
 21
20.1884
  0
LINE
  8
0
 10
118.088
 20
20.1884
 11
117.813
 21
20.4464
  0
LINE
  8
0
 10
117.813
 20
20.4464
 11
117.573
 21
20.7366
  0
LINE
  8
0
 10
117.573
 20
20.7366
 11
117.371
 21
21.0547
  0
LINE
  8
0
 10
117.371
 20
21.0547
 11
117.211
 21
21.3956
  0
LINE
  8
0
 10
117.211
 20
21.3956
 11
117.094
 21
21.7539
  0
LINE
  8
0
 10
117.094
 20
21.7539
 11
117.024
 21
22.124
  0
LINE
  8
0
 10
117.024
 20
22.124
 11
117
 21
22.5
  0
LINE
  8
0
 10
117
 20
22.5
 11
117.024
 21
22.876
  0
LINE
  8
0
 10
117.024
 20
22.876
 11
117.094
 21
23.2461
  0
LINE
  8
0
 10
117.094
 20
23.2461
 11
117.211
 21
23.6044
  0
LINE
  8
0
 10
117.211
 20
23.6044
 11
117.371
 21
23.9453
  0
LINE
  8
0
 10
117.371
 20
23.9453
 11
117.573
 21
24.2634
  0
LINE
  8
0
 10
117.573
 20
24.2634
 11
117.813
 21
24.5536
  0
LINE
  8
0
 10
117.813
 20
24.5536
 11
118.088
 21
24.8115
  0
LINE
  8
0
 10
118.088
 20
24.8115
 11
118.393
 21
25.033
  0
LINE
  8
0
 10
118.393
 20
25.033
 11
118.723
 21
25.2145
  0
LINE
  8
0
 10
118.723
 20
25.2145
 11
119.073
 21
25.3532
  0
LINE
  8
0
 10
119.073
 20
25.3532
 11
119.438
 21
25.4469
  0
LINE
  8
0
 10
119.438
 20
25.4469
 11
119.812
 21
25.4941
  0
LINE
  8
0
 10
119.812
 20
25.4941
 11
120.188
 21
25.4941
  0
LINE
  8
0
 10
120.188
 20
25.4941
 11
120.562
 21
25.4469
  0
LINE
  8
0
 10
120.562
 20
25.4469
 11
120.927
 21
25.3532
  0
LINE
  8
0
 10
120.927
 20
25.3532
 11
121.277
 21
25.2145
  0
LINE
  8
0
 10
121.277
 20
25.2145
 11
121.607
 21
25.033
  0
LINE
  8
0
 10
121.607
 20
25.033
 11
121.912
 21
24.8115
  0
LINE
  8
0
 10
121.912
 20
24.8115
 11
122.187
 21
24.5536
  0
LINE
  8
0
 10
122.187
 20
24.5536
 11
122.427
 21
24.2634
  0
LINE
  8
0
 10
122.427
 20
24.2634
 11
122.629
 21
23.9453
  0
LINE
  8
0
 10
122.629
 20
23.9453
 11
122.789
 21
23.6044
  0
LINE
  8
0
 10
122.789
 20
23.6044
 11
122.906
 21
23.2461
  0
LINE
  8
0
 10
122.906
 20
23.2461
 11
122.976
 21
22.876
  0
LINE
  8
0
 10
122.976
 20
22.876
 11
123
 21
22.5
  0
LINE
  8
0
 10
123
 20
22.5
 11
122.976
 21
22.124
  0
LINE
  8
0
 10
122.976
 20
22.124
 11
122.906
 21
21.7539
  0
LINE
  8
0
 10
122.906
 20
21.7539
 11
122.789
 21
21.3956
  0
LINE
  8
0
 10
122.789
 20
21.3956
 11
122.629
 21
21.0547
  0
LINE
  8
0
 10
122.629
 20
21.0547
 11
122.427
 21
20.7366
  0
LINE
  8
0
 10
122.427
 20
20.7366
 11
122.187
 21
20.4464
  0
LINE
  8
0
 10
122.187
 20
20.4464
 11
121.912
 21
20.1884
  0
LINE
  8
0
 10
121.912
 20
20.1884
 11
121.607
 21
19.967
  0
LINE
  8
0
 10
121.607
 20
19.967
 11
121.277
 21
19.7855
  0
LINE
  8
0
 10
121.277
 20
19.7855
 11
120.927
 21
19.6468
  0
LINE
  8
0
 10
120.927
 20
19.6468
 11
120.562
 21
19.5531
  0
LINE
  8
0
 10
120.562
 20
19.5531
 11
120.188
 21
19.5059
  0
LINE
  8
0
 10
120.188
 20
19.5059
 11
119.812
 21
19.5059
  0
LINE
  8
0
 10
-46.2558
 20
-19.9605
 11
-48.7476
 21
-19.6457
  0
LINE
  8
0
 10
-48.7476
 20
-19.6457
 11
-51.1803
 21
-19.0211
  0
LINE
  8
0
 10
-51.1803
 20
-19.0211
 11
-53.5156
 21
-18.0965
  0
LINE
  8
0
 10
-53.5156
 20
-18.0965
 11
-55.7165
 21
-16.8866
  0
LINE
  8
0
 10
-55.7165
 20
-16.8866
 11
-57.7485
 21
-15.4103
  0
LINE
  8
0
 10
-57.7485
 20
-15.4103
 11
-59.5794
 21
-13.6909
  0
LINE
  8
0
 10
-59.5794
 20
-13.6909
 11
-61.1803
 21
-11.7557
  0
LINE
  8
0
 10
-61.1803
 20
-11.7557
 11
-62.5261
 21
-9.63507
  0
LINE
  8
0
 10
-62.5261
 20
-9.63507
 11
-63.5955
 21
-7.36249
  0
LINE
  8
0
 10
-63.5955
 20
-7.36249
 11
-64.3717
 21
-4.97379
  0
LINE
  8
0
 10
-64.3717
 20
-4.97379
 11
-64.8423
 21
-2.50665
  0
LINE
  8
0
 10
-64.8423
 20
-2.50665
 11
-65
 21
0
  0
LINE
  8
0
 10
-65
 20
0
 11
-64.8423
 21
2.50665
  0
LINE
  8
0
 10
-64.8423
 20
2.50665
 11
-64.3717
 21
4.97379
  0
LINE
  8
0
 10
-64.3717
 20
4.97379
 11
-63.5955
 21
7.36249
  0
LINE
  8
0
 10
-63.5955
 20
7.36249
 11
-62.5261
 21
9.63507
  0
LINE
  8
0
 10
-62.5261
 20
9.63507
 11
-61.1803
 21
11.7557
  0
LINE
  8
0
 10
-61.1803
 20
11.7557
 11
-59.5794
 21
13.6909
  0
LINE
  8
0
 10
-59.5794
 20
13.6909
 11
-57.7485
 21
15.4103
  0
LINE
  8
0
 10
-57.7485
 20
15.4103
 11
-55.7165
 21
16.8866
  0
LINE
  8
0
 10
-55.7165
 20
16.8866
 11
-53.5156
 21
18.0965
  0
LINE
  8
0
 10
-53.5156
 20
18.0965
 11
-51.1803
 21
19.0211
  0
LINE
  8
0
 10
-51.1803
 20
19.0211
 11
-48.7476
 21
19.6457
  0
LINE
  8
0
 10
-48.7476
 20
19.6457
 11
-46.2558
 21
19.9605
  0
LINE
  8
0
 10
-46.2558
 20
19.9605
 11
-43.7442
 21
19.9605
  0
LINE
  8
0
 10
-43.7442
 20
19.9605
 11
-41.2524
 21
19.6457
  0
LINE
  8
0
 10
-41.2524
 20
19.6457
 11
-38.8197
 21
19.0211
  0
LINE
  8
0
 10
-38.8197
 20
19.0211
 11
-36.4844
 21
18.0965
  0
LINE
  8
0
 10
-36.4844
 20
18.0965
 11
-34.2835
 21
16.8866
  0
LINE
  8
0
 10
-34.2835
 20
16.8866
 11
-32.2515
 21
15.4103
  0
LINE
  8
0
 10
-32.2515
 20
15.4103
 11
-30.4206
 21
13.6909
  0
LINE
  8
0
 10
-30.4206
 20
13.6909
 11
-28.8197
 21
11.7557
  0
LINE
  8
0
 10
-28.8197
 20
11.7557
 11
-27.4739
 21
9.63507
  0
LINE
  8
0
 10
-27.4739
 20
9.63507
 11
-26.4045
 21
7.36249
  0
LINE
  8
0
 10
-26.4045
 20
7.36249
 11
-25.6283
 21
4.97379
  0
LINE
  8
0
 10
-25.6283
 20
4.97379
 11
-25.1577
 21
2.50665
  0
LINE
  8
0
 10
-25.1577
 20
2.50665
 11
-25
 21
0
  0
LINE
  8
0
 10
-25
 20
0
 11
-25.1577
 21
-2.50665
  0
LINE
  8
0
 10
-25.1577
 20
-2.50665
 11
-25.6283
 21
-4.97379
  0
LINE
  8
0
 10
-25.6283
 20
-4.97379
 11
-26.4045
 21
-7.36249
  0
LINE
  8
0
 10
-26.4045
 20
-7.36249
 11
-27.4739
 21
-9.63507
  0
LINE
  8
0
 10
-27.4739
 20
-9.63507
 11
-28.8197
 21
-11.7557
  0
LINE
  8
0
 10
-28.8197
 20
-11.7557
 11
-30.4206
 21
-13.6909
  0
LINE
  8
0
 10
-30.4206
 20
-13.6909
 11
-32.2515
 21
-15.4103
  0
LINE
  8
0
 10
-32.2515
 20
-15.4103
 11
-34.2835
 21
-16.8866
  0
LINE
  8
0
 10
-34.2835
 20
-16.8866
 11
-36.4844
 21
-18.0965
  0
LINE
  8
0
 10
-36.4844
 20
-18.0965
 11
-38.8197
 21
-19.0211
  0
LINE
  8
0
 10
-38.8197
 20
-19.0211
 11
-41.2524
 21
-19.6457
  0
LINE
  8
0
 10
-41.2524
 20
-19.6457
 11
-43.7442
 21
-19.9605
  0
LINE
  8
0
 10
-43.7442
 20
-19.9605
 11
-46.2558
 21
-19.9605
  0
LINE
  8
0
 10
-91.2558
 20
-19.9605
 11
-93.7476
 21
-19.6457
  0
LINE
  8
0
 10
-93.7476
 20
-19.6457
 11
-96.1803
 21
-19.0211
  0
LINE
  8
0
 10
-96.1803
 20
-19.0211
 11
-98.5156
 21
-18.0965
  0
LINE
  8
0
 10
-98.5156
 20
-18.0965
 11
-100.717
 21
-16.8866
  0
LINE
  8
0
 10
-100.717
 20
-16.8866
 11
-102.748
 21
-15.4103
  0
LINE
  8
0
 10
-102.748
 20
-15.4103
 11
-104.579
 21
-13.6909
  0
LINE
  8
0
 10
-104.579
 20
-13.6909
 11
-106.18
 21
-11.7557
  0
LINE
  8
0
 10
-106.18
 20
-11.7557
 11
-107.526
 21
-9.63507
  0
LINE
  8
0
 10
-107.526
 20
-9.63507
 11
-108.596
 21
-7.36249
  0
LINE
  8
0
 10
-108.596
 20
-7.36249
 11
-109.372
 21
-4.97379
  0
LINE
  8
0
 10
-109.372
 20
-4.97379
 11
-109.842
 21
-2.50665
  0
LINE
  8
0
 10
-109.842
 20
-2.50665
 11
-110
 21
0
  0
LINE
  8
0
 10
-110
 20
0
 11
-109.842
 21
2.50665
  0
LINE
  8
0
 10
-109.842
 20
2.50665
 11
-109.372
 21
4.97379
  0
LINE
  8
0
 10
-109.372
 20
4.97379
 11
-108.596
 21
7.36249
  0
LINE
  8
0
 10
-108.596
 20
7.36249
 11
-107.526
 21
9.63507
  0
LINE
  8
0
 10
-107.526
 20
9.63507
 11
-106.18
 21
11.7557
  0
LINE
  8
0
 10
-106.18
 20
11.7557
 11
-104.579
 21
13.6909
  0
LINE
  8
0
 10
-104.579
 20
13.6909
 11
-102.748
 21
15.4103
  0
LINE
  8
0
 10
-102.748
 20
15.4103
 11
-100.717
 21
16.8866
  0
LINE
  8
0
 10
-100.717
 20
16.8866
 11
-98.5156
 21
18.0965
  0
LINE
  8
0
 10
-98.5156
 20
18.0965
 11
-96.1803
 21
19.0211
  0
LINE
  8
0
 10
-96.1803
 20
19.0211
 11
-93.7476
 21
19.6457
  0
LINE
  8
0
 10
-93.7476
 20
19.6457
 11
-91.2558
 21
19.9605
  0
LINE
  8
0
 10
-91.2558
 20
19.9605
 11
-88.7442
 21
19.9605
  0
LINE
  8
0
 10
-88.7442
 20
19.9605
 11
-86.2524
 21
19.6457
  0
LINE
  8
0
 10
-86.2524
 20
19.6457
 11
-83.8197
 21
19.0211
  0
LINE
  8
0
 10
-83.8197
 20
19.0211
 11
-81.4844
 21
18.0965
  0
LINE
  8
0
 10
-81.4844
 20
18.0965
 11
-79.2835
 21
16.8866
  0
LINE
  8
0
 10
-79.2835
 20
16.8866
 11
-77.2515
 21
15.4103
  0
LINE
  8
0
 10
-77.2515
 20
15.4103
 11
-75.4206
 21
13.6909
  0
LINE
  8
0
 10
-75.4206
 20
13.6909
 11
-73.8197
 21
11.7557
  0
LINE
  8
0
 10
-73.8197
 20
11.7557
 11
-72.4739
 21
9.63507
  0
LINE
  8
0
 10
-72.4739
 20
9.63507
 11
-71.4045
 21
7.36249
  0
LINE
  8
0
 10
-71.4045
 20
7.36249
 11
-70.6283
 21
4.97379
  0
LINE
  8
0
 10
-70.6283
 20
4.97379
 11
-70.1577
 21
2.50665
  0
LINE
  8
0
 10
-70.1577
 20
2.50665
 11
-70
 21
0
  0
LINE
  8
0
 10
-70
 20
0
 11
-70.1577
 21
-2.50665
  0
LINE
  8
0
 10
-70.1577
 20
-2.50665
 11
-70.6283
 21
-4.97379
  0
LINE
  8
0
 10
-70.6283
 20
-4.97379
 11
-71.4045
 21
-7.36249
  0
LINE
  8
0
 10
-71.4045
 20
-7.36249
 11
-72.4739
 21
-9.63507
  0
LINE
  8
0
 10
-72.4739
 20
-9.63507
 11
-73.8197
 21
-11.7557
  0
LINE
  8
0
 10
-73.8197
 20
-11.7557
 11
-75.4206
 21
-13.6909
  0
LINE
  8
0
 10
-75.4206
 20
-13.6909
 11
-77.2515
 21
-15.4103
  0
LINE
  8
0
 10
-77.2515
 20
-15.4103
 11
-79.2835
 21
-16.8866
  0
LINE
  8
0
 10
-79.2835
 20
-16.8866
 11
-81.4844
 21
-18.0965
  0
LINE
  8
0
 10
-81.4844
 20
-18.0965
 11
-83.8197
 21
-19.0211
  0
LINE
  8
0
 10
-83.8197
 20
-19.0211
 11
-86.2524
 21
-19.6457
  0
LINE
  8
0
 10
-86.2524
 20
-19.6457
 11
-88.7442
 21
-19.9605
  0
LINE
  8
0
 10
-88.7442
 20
-19.9605
 11
-91.2558
 21
-19.9605
  0
LINE
  8
0
 10
-1.2558
 20
-19.9605
 11
-3.74762
 21
-19.6457
  0
LINE
  8
0
 10
-3.74762
 20
-19.6457
 11
-6.18033
 21
-19.0211
  0
LINE
  8
0
 10
-6.18033
 20
-19.0211
 11
-8.51558
 21
-18.0965
  0
LINE
  8
0
 10
-8.51558
 20
-18.0965
 11
-10.7165
 21
-16.8866
  0
LINE
  8
0
 10
-10.7165
 20
-16.8866
 11
-12.7485
 21
-15.4103
  0
LINE
  8
0
 10
-12.7485
 20
-15.4103
 11
-14.5794
 21
-13.6909
  0
LINE
  8
0
 10
-14.5794
 20
-13.6909
 11
-16.1803
 21
-11.7557
  0
LINE
  8
0
 10
-16.1803
 20
-11.7557
 11
-17.5261
 21
-9.63507
  0
LINE
  8
0
 10
-17.5261
 20
-9.63507
 11
-18.5955
 21
-7.36249
  0
LINE
  8
0
 10
-18.5955
 20
-7.36249
 11
-19.3717
 21
-4.97379
  0
LINE
  8
0
 10
-19.3717
 20
-4.97379
 11
-19.8423
 21
-2.50665
  0
LINE
  8
0
 10
-19.8423
 20
-2.50665
 11
-20
 21
0
  0
LINE
  8
0
 10
-20
 20
0
 11
-19.8423
 21
2.50665
  0
LINE
  8
0
 10
-19.8423
 20
2.50665
 11
-19.3717
 21
4.97379
  0
LINE
  8
0
 10
-19.3717
 20
4.97379
 11
-18.5955
 21
7.36249
  0
LINE
  8
0
 10
-18.5955
 20
7.36249
 11
-17.5261
 21
9.63507
  0
LINE
  8
0
 10
-17.5261
 20
9.63507
 11
-16.1803
 21
11.7557
  0
LINE
  8
0
 10
-16.1803
 20
11.7557
 11
-14.5794
 21
13.6909
  0
LINE
  8
0
 10
-14.5794
 20
13.6909
 11
-12.7485
 21
15.4103
  0
LINE
  8
0
 10
-12.7485
 20
15.4103
 11
-10.7165
 21
16.8866
  0
LINE
  8
0
 10
-10.7165
 20
16.8866
 11
-8.51558
 21
18.0965
  0
LINE
  8
0
 10
-8.51558
 20
18.0965
 11
-6.18033
 21
19.0211
  0
LINE
  8
0
 10
-6.18033
 20
19.0211
 11
-3.74762
 21
19.6457
  0
LINE
  8
0
 10
-3.74762
 20
19.6457
 11
-1.2558
 21
19.9605
  0
LINE
  8
0
 10
-1.2558
 20
19.9605
 11
1.2558
 21
19.9605
  0
LINE
  8
0
 10
1.2558
 20
19.9605
 11
3.74762
 21
19.6457
  0
LINE
  8
0
 10
3.74762
 20
19.6457
 11
6.18033
 21
19.0211
  0
LINE
  8
0
 10
6.18033
 20
19.0211
 11
8.51558
 21
18.0965
  0
LINE
  8
0
 10
8.51558
 20
18.0965
 11
10.7165
 21
16.8866
  0
LINE
  8
0
 10
10.7165
 20
16.8866
 11
12.7485
 21
15.4103
  0
LINE
  8
0
 10
12.7485
 20
15.4103
 11
14.5794
 21
13.6909
  0
LINE
  8
0
 10
14.5794
 20
13.6909
 11
16.1803
 21
11.7557
  0
LINE
  8
0
 10
16.1803
 20
11.7557
 11
17.5261
 21
9.63507
  0
LINE
  8
0
 10
17.5261
 20
9.63507
 11
18.5955
 21
7.36249
  0
LINE
  8
0
 10
18.5955
 20
7.36249
 11
19.3717
 21
4.97379
  0
LINE
  8
0
 10
19.3717
 20
4.97379
 11
19.8423
 21
2.50665
  0
LINE
  8
0
 10
19.8423
 20
2.50665
 11
20
 21
0
  0
LINE
  8
0
 10
20
 20
0
 11
19.8423
 21
-2.50665
  0
LINE
  8
0
 10
19.8423
 20
-2.50665
 11
19.3717
 21
-4.97379
  0
LINE
  8
0
 10
19.3717
 20
-4.97379
 11
18.5955
 21
-7.36249
  0
LINE
  8
0
 10
18.5955
 20
-7.36249
 11
17.5261
 21
-9.63507
  0
LINE
  8
0
 10
17.5261
 20
-9.63507
 11
16.1803
 21
-11.7557
  0
LINE
  8
0
 10
16.1803
 20
-11.7557
 11
14.5794
 21
-13.6909
  0
LINE
  8
0
 10
14.5794
 20
-13.6909
 11
12.7485
 21
-15.4103
  0
LINE
  8
0
 10
12.7485
 20
-15.4103
 11
10.7165
 21
-16.8866
  0
LINE
  8
0
 10
10.7165
 20
-16.8866
 11
8.51558
 21
-18.0965
  0
LINE
  8
0
 10
8.51558
 20
-18.0965
 11
6.18033
 21
-19.0211
  0
LINE
  8
0
 10
6.18033
 20
-19.0211
 11
3.74762
 21
-19.6457
  0
LINE
  8
0
 10
3.74762
 20
-19.6457
 11
1.2558
 21
-19.9605
  0
LINE
  8
0
 10
1.2558
 20
-19.9605
 11
-1.2558
 21
-19.9605
  0
LINE
  8
0
 10
43.7442
 20
-19.9605
 11
41.2524
 21
-19.6457
  0
LINE
  8
0
 10
41.2524
 20
-19.6457
 11
38.8197
 21
-19.0211
  0
LINE
  8
0
 10
38.8197
 20
-19.0211
 11
36.4844
 21
-18.0965
  0
LINE
  8
0
 10
36.4844
 20
-18.0965
 11
34.2835
 21
-16.8866
  0
LINE
  8
0
 10
34.2835
 20
-16.8866
 11
32.2515
 21
-15.4103
  0
LINE
  8
0
 10
32.2515
 20
-15.4103
 11
30.4206
 21
-13.6909
  0
LINE
  8
0
 10
30.4206
 20
-13.6909
 11
28.8197
 21
-11.7557
  0
LINE
  8
0
 10
28.8197
 20
-11.7557
 11
27.4739
 21
-9.63507
  0
LINE
  8
0
 10
27.4739
 20
-9.63507
 11
26.4045
 21
-7.36249
  0
LINE
  8
0
 10
26.4045
 20
-7.36249
 11
25.6283
 21
-4.97379
  0
LINE
  8
0
 10
25.6283
 20
-4.97379
 11
25.1577
 21
-2.50665
  0
LINE
  8
0
 10
25.1577
 20
-2.50665
 11
25
 21
0
  0
LINE
  8
0
 10
25
 20
0
 11
25.1577
 21
2.50665
  0
LINE
  8
0
 10
25.1577
 20
2.50665
 11
25.6283
 21
4.97379
  0
LINE
  8
0
 10
25.6283
 20
4.97379
 11
26.4045
 21
7.36249
  0
LINE
  8
0
 10
26.4045
 20
7.36249
 11
27.4739
 21
9.63507
  0
LINE
  8
0
 10
27.4739
 20
9.63507
 11
28.8197
 21
11.7557
  0
LINE
  8
0
 10
28.8197
 20
11.7557
 11
30.4206
 21
13.6909
  0
LINE
  8
0
 10
30.4206
 20
13.6909
 11
32.2515
 21
15.4103
  0
LINE
  8
0
 10
32.2515
 20
15.4103
 11
34.2835
 21
16.8866
  0
LINE
  8
0
 10
34.2835
 20
16.8866
 11
36.4844
 21
18.0965
  0
LINE
  8
0
 10
36.4844
 20
18.0965
 11
38.8197
 21
19.0211
  0
LINE
  8
0
 10
38.8197
 20
19.0211
 11
41.2524
 21
19.6457
  0
LINE
  8
0
 10
41.2524
 20
19.6457
 11
43.7442
 21
19.9605
  0
LINE
  8
0
 10
43.7442
 20
19.9605
 11
46.2558
 21
19.9605
  0
LINE
  8
0
 10
46.2558
 20
19.9605
 11
48.7476
 21
19.6457
  0
LINE
  8
0
 10
48.7476
 20
19.6457
 11
51.1803
 21
19.0211
  0
LINE
  8
0
 10
51.1803
 20
19.0211
 11
53.5156
 21
18.0965
  0
LINE
  8
0
 10
53.5156
 20
18.0965
 11
55.7165
 21
16.8866
  0
LINE
  8
0
 10
55.7165
 20
16.8866
 11
57.7485
 21
15.4103
  0
LINE
  8
0
 10
57.7485
 20
15.4103
 11
59.5794
 21
13.6909
  0
LINE
  8
0
 10
59.5794
 20
13.6909
 11
61.1803
 21
11.7557
  0
LINE
  8
0
 10
61.1803
 20
11.7557
 11
62.5261
 21
9.63507
  0
LINE
  8
0
 10
62.5261
 20
9.63507
 11
63.5955
 21
7.36249
  0
LINE
  8
0
 10
63.5955
 20
7.36249
 11
64.3717
 21
4.97379
  0
LINE
  8
0
 10
64.3717
 20
4.97379
 11
64.8423
 21
2.50665
  0
LINE
  8
0
 10
64.8423
 20
2.50665
 11
65
 21
0
  0
LINE
  8
0
 10
65
 20
0
 11
64.8423
 21
-2.50665
  0
LINE
  8
0
 10
64.8423
 20
-2.50665
 11
64.3717
 21
-4.97379
  0
LINE
  8
0
 10
64.3717
 20
-4.97379
 11
63.5955
 21
-7.36249
  0
LINE
  8
0
 10
63.5955
 20
-7.36249
 11
62.5261
 21
-9.63507
  0
LINE
  8
0
 10
62.5261
 20
-9.63507
 11
61.1803
 21
-11.7557
  0
LINE
  8
0
 10
61.1803
 20
-11.7557
 11
59.5794
 21
-13.6909
  0
LINE
  8
0
 10
59.5794
 20
-13.6909
 11
57.7485
 21
-15.4103
  0
LINE
  8
0
 10
57.7485
 20
-15.4103
 11
55.7165
 21
-16.8866
  0
LINE
  8
0
 10
55.7165
 20
-16.8866
 11
53.5156
 21
-18.0965
  0
LINE
  8
0
 10
53.5156
 20
-18.0965
 11
51.1803
 21
-19.0211
  0
LINE
  8
0
 10
51.1803
 20
-19.0211
 11
48.7476
 21
-19.6457
  0
LINE
  8
0
 10
48.7476
 20
-19.6457
 11
46.2558
 21
-19.9605
  0
LINE
  8
0
 10
46.2558
 20
-19.9605
 11
43.7442
 21
-19.9605
  0
LINE
  8
0
 10
88.7442
 20
-19.9605
 11
86.2524
 21
-19.6457
  0
LINE
  8
0
 10
86.2524
 20
-19.6457
 11
83.8197
 21
-19.0211
  0
LINE
  8
0
 10
83.8197
 20
-19.0211
 11
81.4844
 21
-18.0965
  0
LINE
  8
0
 10
81.4844
 20
-18.0965
 11
79.2835
 21
-16.8866
  0
LINE
  8
0
 10
79.2835
 20
-16.8866
 11
77.2515
 21
-15.4103
  0
LINE
  8
0
 10
77.2515
 20
-15.4103
 11
75.4206
 21
-13.6909
  0
LINE
  8
0
 10
75.4206
 20
-13.6909
 11
73.8197
 21
-11.7557
  0
LINE
  8
0
 10
73.8197
 20
-11.7557
 11
72.4739
 21
-9.63507
  0
LINE
  8
0
 10
72.4739
 20
-9.63507
 11
71.4045
 21
-7.36249
  0
LINE
  8
0
 10
71.4045
 20
-7.36249
 11
70.6283
 21
-4.97379
  0
LINE
  8
0
 10
70.6283
 20
-4.97379
 11
70.1577
 21
-2.50665
  0
LINE
  8
0
 10
70.1577
 20
-2.50665
 11
70
 21
0
  0
LINE
  8
0
 10
70
 20
0
 11
70.1577
 21
2.50665
  0
LINE
  8
0
 10
70.1577
 20
2.50665
 11
70.6283
 21
4.97379
  0
LINE
  8
0
 10
70.6283
 20
4.97379
 11
71.4045
 21
7.36249
  0
LINE
  8
0
 10
71.4045
 20
7.36249
 11
72.4739
 21
9.63507
  0
LINE
  8
0
 10
72.4739
 20
9.63507
 11
73.8197
 21
11.7557
  0
LINE
  8
0
 10
73.8197
 20
11.7557
 11
75.4206
 21
13.6909
  0
LINE
  8
0
 10
75.4206
 20
13.6909
 11
77.2515
 21
15.4103
  0
LINE
  8
0
 10
77.2515
 20
15.4103
 11
79.2835
 21
16.8866
  0
LINE
  8
0
 10
79.2835
 20
16.8866
 11
81.4844
 21
18.0965
  0
LINE
  8
0
 10
81.4844
 20
18.0965
 11
83.8197
 21
19.0211
  0
LINE
  8
0
 10
83.8197
 20
19.0211
 11
86.2524
 21
19.6457
  0
LINE
  8
0
 10
86.2524
 20
19.6457
 11
88.7442
 21
19.9605
  0
LINE
  8
0
 10
88.7442
 20
19.9605
 11
91.2558
 21
19.9605
  0
LINE
  8
0
 10
91.2558
 20
19.9605
 11
93.7476
 21
19.6457
  0
LINE
  8
0
 10
93.7476
 20
19.6457
 11
96.1803
 21
19.0211
  0
LINE
  8
0
 10
96.1803
 20
19.0211
 11
98.5156
 21
18.0965
  0
LINE
  8
0
 10
98.5156
 20
18.0965
 11
100.717
 21
16.8866
  0
LINE
  8
0
 10
100.717
 20
16.8866
 11
102.748
 21
15.4103
  0
LINE
  8
0
 10
102.748
 20
15.4103
 11
104.579
 21
13.6909
  0
LINE
  8
0
 10
104.579
 20
13.6909
 11
106.18
 21
11.7557
  0
LINE
  8
0
 10
106.18
 20
11.7557
 11
107.526
 21
9.63507
  0
LINE
  8
0
 10
107.526
 20
9.63507
 11
108.596
 21
7.36249
  0
LINE
  8
0
 10
108.596
 20
7.36249
 11
109.372
 21
4.97379
  0
LINE
  8
0
 10
109.372
 20
4.97379
 11
109.842
 21
2.50665
  0
LINE
  8
0
 10
109.842
 20
2.50665
 11
110
 21
0
  0
LINE
  8
0
 10
110
 20
0
 11
109.842
 21
-2.50665
  0
LINE
  8
0
 10
109.842
 20
-2.50665
 11
109.372
 21
-4.97379
  0
LINE
  8
0
 10
109.372
 20
-4.97379
 11
108.596
 21
-7.36249
  0
LINE
  8
0
 10
108.596
 20
-7.36249
 11
107.526
 21
-9.63507
  0
LINE
  8
0
 10
107.526
 20
-9.63507
 11
106.18
 21
-11.7557
  0
LINE
  8
0
 10
106.18
 20
-11.7557
 11
104.579
 21
-13.6909
  0
LINE
  8
0
 10
104.579
 20
-13.6909
 11
102.748
 21
-15.4103
  0
LINE
  8
0
 10
102.748
 20
-15.4103
 11
100.717
 21
-16.8866
  0
LINE
  8
0
 10
100.717
 20
-16.8866
 11
98.5156
 21
-18.0965
  0
LINE
  8
0
 10
98.5156
 20
-18.0965
 11
96.1803
 21
-19.0211
  0
LINE
  8
0
 10
96.1803
 20
-19.0211
 11
93.7476
 21
-19.6457
  0
LINE
  8
0
 10
93.7476
 20
-19.6457
 11
91.2558
 21
-19.9605
  0
LINE
  8
0
 10
91.2558
 20
-19.9605
 11
88.7442
 21
-19.9605
  0
LINE
  8
0
 10
119.906
 20
13.5029
 11
119.719
 21
13.5266
  0
LINE
  8
0
 10
119.719
 20
13.5266
 11
119.536
 21
13.5734
  0
LINE
  8
0
 10
119.536
 20
13.5734
 11
119.361
 21
13.6427
  0
LINE
  8
0
 10
119.361
 20
13.6427
 11
119.196
 21
13.7335
  0
LINE
  8
0
 10
119.196
 20
13.7335
 11
119.044
 21
13.8442
  0
LINE
  8
0
 10
119.044
 20
13.8442
 11
118.907
 21
13.9732
  0
LINE
  8
0
 10
118.907
 20
13.9732
 11
118.786
 21
14.1183
  0
LINE
  8
0
 10
118.786
 20
14.1183
 11
118.686
 21
14.2774
  0
LINE
  8
0
 10
118.686
 20
14.2774
 11
118.605
 21
14.4478
  0
LINE
  8
0
 10
118.605
 20
14.4478
 11
118.547
 21
14.627
  0
LINE
  8
0
 10
118.547
 20
14.627
 11
118.512
 21
14.812
  0
LINE
  8
0
 10
118.512
 20
14.812
 11
118.5
 21
15
  0
LINE
  8
0
 10
118.5
 20
15
 11
118.512
 21
15.188
  0
LINE
  8
0
 10
118.512
 20
15.188
 11
118.547
 21
15.373
  0
LINE
  8
0
 10
118.547
 20
15.373
 11
118.605
 21
15.5522
  0
LINE
  8
0
 10
118.605
 20
15.5522
 11
118.686
 21
15.7226
  0
LINE
  8
0
 10
118.686
 20
15.7226
 11
118.786
 21
15.8817
  0
LINE
  8
0
 10
118.786
 20
15.8817
 11
118.907
 21
16.0268
  0
LINE
  8
0
 10
118.907
 20
16.0268
 11
119.044
 21
16.1558
  0
LINE
  8
0
 10
119.044
 20
16.1558
 11
119.196
 21
16.2665
  0
LINE
  8
0
 10
119.196
 20
16.2665
 11
119.361
 21
16.3572
  0
LINE
  8
0
 10
119.361
 20
16.3572
 11
119.536
 21
16.4266
  0
LINE
  8
0
 10
119.536
 20
16.4266
 11
119.719
 21
16.4734
  0
LINE
  8
0
 10
119.719
 20
16.4734
 11
119.906
 21
16.497
  0
LINE
  8
0
 10
119.906
 20
16.497
 11
120.094
 21
16.497
  0
LINE
  8
0
 10
120.094
 20
16.497
 11
120.281
 21
16.4734
  0
LINE
  8
0
 10
120.281
 20
16.4734
 11
120.464
 21
16.4266
  0
LINE
  8
0
 10
120.464
 20
16.4266
 11
120.639
 21
16.3572
  0
LINE
  8
0
 10
120.639
 20
16.3572
 11
120.804
 21
16.2665
  0
LINE
  8
0
 10
120.804
 20
16.2665
 11
120.956
 21
16.1558
  0
LINE
  8
0
 10
120.956
 20
16.1558
 11
121.093
 21
16.0268
  0
LINE
  8
0
 10
121.093
 20
16.0268
 11
121.214
 21
15.8817
  0
LINE
  8
0
 10
121.214
 20
15.8817
 11
121.314
 21
15.7226
  0
LINE
  8
0
 10
121.314
 20
15.7226
 11
121.395
 21
15.5522
  0
LINE
  8
0
 10
121.395
 20
15.5522
 11
121.453
 21
15.373
  0
LINE
  8
0
 10
121.453
 20
15.373
 11
121.488
 21
15.188
  0
LINE
  8
0
 10
121.488
 20
15.188
 11
121.5
 21
15
  0
LINE
  8
0
 10
121.5
 20
15
 11
121.488
 21
14.812
  0
LINE
  8
0
 10
121.488
 20
14.812
 11
121.453
 21
14.627
  0
LINE
  8
0
 10
121.453
 20
14.627
 11
121.395
 21
14.4478
  0
LINE
  8
0
 10
121.395
 20
14.4478
 11
121.314
 21
14.2774
  0
LINE
  8
0
 10
121.314
 20
14.2774
 11
121.214
 21
14.1183
  0
LINE
  8
0
 10
121.214
 20
14.1183
 11
121.093
 21
13.9732
  0
LINE
  8
0
 10
121.093
 20
13.9732
 11
120.956
 21
13.8442
  0
LINE
  8
0
 10
120.956
 20
13.8442
 11
120.804
 21
13.7335
  0
LINE
  8
0
 10
120.804
 20
13.7335
 11
120.639
 21
13.6427
  0
LINE
  8
0
 10
120.639
 20
13.6427
 11
120.464
 21
13.5734
  0
LINE
  8
0
 10
120.464
 20
13.5734
 11
120.281
 21
13.5266
  0
LINE
  8
0
 10
120.281
 20
13.5266
 11
120.094
 21
13.5029
  0
LINE
  8
0
 10
120.094
 20
13.5029
 11
119.906
 21
13.5029
  0
LINE
  8
0
 10
-120.094
 20
13.5029
 11
-120.281
 21
13.5266
  0
LINE
  8
0
 10
-120.281
 20
13.5266
 11
-120.464
 21
13.5734
  0
LINE
  8
0
 10
-120.464
 20
13.5734
 11
-120.639
 21
13.6427
  0
LINE
  8
0
 10
-120.639
 20
13.6427
 11
-120.804
 21
13.7335
  0
LINE
  8
0
 10
-120.804
 20
13.7335
 11
-120.956
 21
13.8442
  0
LINE
  8
0
 10
-120.956
 20
13.8442
 11
-121.093
 21
13.9732
  0
LINE
  8
0
 10
-121.093
 20
13.9732
 11
-121.214
 21
14.1183
  0
LINE
  8
0
 10
-121.214
 20
14.1183
 11
-121.314
 21
14.2774
  0
LINE
  8
0
 10
-121.314
 20
14.2774
 11
-121.395
 21
14.4478
  0
LINE
  8
0
 10
-121.395
 20
14.4478
 11
-121.453
 21
14.627
  0
LINE
  8
0
 10
-121.453
 20
14.627
 11
-121.488
 21
14.812
  0
LINE
  8
0
 10
-121.488
 20
14.812
 11
-121.5
 21
15
  0
LINE
  8
0
 10
-121.5
 20
15
 11
-121.488
 21
15.188
  0
LINE
  8
0
 10
-121.488
 20
15.188
 11
-121.453
 21
15.373
  0
LINE
  8
0
 10
-121.453
 20
15.373
 11
-121.395
 21
15.5522
  0
LINE
  8
0
 10
-121.395
 20
15.5522
 11
-121.314
 21
15.7226
  0
LINE
  8
0
 10
-121.314
 20
15.7226
 11
-121.214
 21
15.8817
  0
LINE
  8
0
 10
-121.214
 20
15.8817
 11
-121.093
 21
16.0268
  0
LINE
  8
0
 10
-121.093
 20
16.0268
 11
-120.956
 21
16.1558
  0
LINE
  8
0
 10
-120.956
 20
16.1558
 11
-120.804
 21
16.2665
  0
LINE
  8
0
 10
-120.804
 20
16.2665
 11
-120.639
 21
16.3572
  0
LINE
  8
0
 10
-120.639
 20
16.3572
 11
-120.464
 21
16.4266
  0
LINE
  8
0
 10
-120.464
 20
16.4266
 11
-120.281
 21
16.4734
  0
LINE
  8
0
 10
-120.281
 20
16.4734
 11
-120.094
 21
16.497
  0
LINE
  8
0
 10
-120.094
 20
16.497
 11
-119.906
 21
16.497
  0
LINE
  8
0
 10
-119.906
 20
16.497
 11
-119.719
 21
16.4734
  0
LINE
  8
0
 10
-119.719
 20
16.4734
 11
-119.536
 21
16.4266
  0
LINE
  8
0
 10
-119.536
 20
16.4266
 11
-119.361
 21
16.3572
  0
LINE
  8
0
 10
-119.361
 20
16.3572
 11
-119.196
 21
16.2665
  0
LINE
  8
0
 10
-119.196
 20
16.2665
 11
-119.044
 21
16.1558
  0
LINE
  8
0
 10
-119.044
 20
16.1558
 11
-118.907
 21
16.0268
  0
LINE
  8
0
 10
-118.907
 20
16.0268
 11
-118.786
 21
15.8817
  0
LINE
  8
0
 10
-118.786
 20
15.8817
 11
-118.686
 21
15.7226
  0
LINE
  8
0
 10
-118.686
 20
15.7226
 11
-118.605
 21
15.5522
  0
LINE
  8
0
 10
-118.605
 20
15.5522
 11
-118.547
 21
15.373
  0
LINE
  8
0
 10
-118.547
 20
15.373
 11
-118.512
 21
15.188
  0
LINE
  8
0
 10
-118.512
 20
15.188
 11
-118.5
 21
15
  0
LINE
  8
0
 10
-118.5
 20
15
 11
-118.512
 21
14.812
  0
LINE
  8
0
 10
-118.512
 20
14.812
 11
-118.547
 21
14.627
  0
LINE
  8
0
 10
-118.547
 20
14.627
 11
-118.605
 21
14.4478
  0
LINE
  8
0
 10
-118.605
 20
14.4478
 11
-118.686
 21
14.2774
  0
LINE
  8
0
 10
-118.686
 20
14.2774
 11
-118.786
 21
14.1183
  0
LINE
  8
0
 10
-118.786
 20
14.1183
 11
-118.907
 21
13.9732
  0
LINE
  8
0
 10
-118.907
 20
13.9732
 11
-119.044
 21
13.8442
  0
LINE
  8
0
 10
-119.044
 20
13.8442
 11
-119.196
 21
13.7335
  0
LINE
  8
0
 10
-119.196
 20
13.7335
 11
-119.361
 21
13.6427
  0
LINE
  8
0
 10
-119.361
 20
13.6427
 11
-119.536
 21
13.5734
  0
LINE
  8
0
 10
-119.536
 20
13.5734
 11
-119.719
 21
13.5266
  0
LINE
  8
0
 10
-119.719
 20
13.5266
 11
-119.906
 21
13.5029
  0
LINE
  8
0
 10
-119.906
 20
13.5029
 11
-120.094
 21
13.5029
  0
LINE
  8
0
 10
-120.188
 20
4.50591
 11
-120.562
 21
4.55313
  0
LINE
  8
0
 10
-120.562
 20
4.55313
 11
-120.927
 21
4.64682
  0
LINE
  8
0
 10
-120.927
 20
4.64682
 11
-121.277
 21
4.78551
  0
LINE
  8
0
 10
-121.277
 20
4.78551
 11
-121.607
 21
4.96701
  0
LINE
  8
0
 10
-121.607
 20
4.96701
 11
-121.912
 21
5.18845
  0
LINE
  8
0
 10
-121.912
 20
5.18845
 11
-122.187
 21
5.44635
  0
LINE
  8
0
 10
-122.187
 20
5.44635
 11
-122.427
 21
5.73663
  0
LINE
  8
0
 10
-122.427
 20
5.73663
 11
-122.629
 21
6.05473
  0
LINE
  8
0
 10
-122.629
 20
6.05473
 11
-122.789
 21
6.39561
  0
LINE
  8
0
 10
-122.789
 20
6.39561
 11
-122.906
 21
6.75392
  0
LINE
  8
0
 10
-122.906
 20
6.75392
 11
-122.976
 21
7.12399
  0
LINE
  8
0
 10
-122.976
 20
7.12399
 11
-123
 21
7.5
  0
LINE
  8
0
 10
-123
 20
7.5
 11
-122.976
 21
7.87599
  0
LINE
  8
0
 10
-122.976
 20
7.87599
 11
-122.906
 21
8.24606
  0
LINE
  8
0
 10
-122.906
 20
8.24606
 11
-122.789
 21
8.60437
  0
LINE
  8
0
 10
-122.789
 20
8.60437
 11
-122.629
 21
8.94525
  0
LINE
  8
0
 10
-122.629
 20
8.94525
 11
-122.427
 21
9.26335
  0
LINE
  8
0
 10
-122.427
 20
9.26335
 11
-122.187
 21
9.55363
  0
LINE
  8
0
 10
-122.187
 20
9.55363
 11
-121.912
 21
9.81154
  0
LINE
  8
0
 10
-121.912
 20
9.81154
 11
-121.607
 21
10.033
  0
LINE
  8
0
 10
-121.607
 20
10.033
 11
-121.277
 21
10.2145
  0
LINE
  8
0
 10
-121.277
 20
10.2145
 11
-120.927
 21
10.3532
  0
LINE
  8
0
 10
-120.927
 20
10.3532
 11
-120.562
 21
10.4469
  0
LINE
  8
0
 10
-120.562
 20
10.4469
 11
-120.188
 21
10.4941
  0
LINE
  8
0
 10
-120.188
 20
10.4941
 11
-119.812
 21
10.4941
  0
LINE
  8
0
 10
-119.812
 20
10.4941
 11
-119.438
 21
10.4469
  0
LINE
  8
0
 10
-119.438
 20
10.4469
 11
-119.073
 21
10.3532
  0
LINE
  8
0
 10
-119.073
 20
10.3532
 11
-118.723
 21
10.2145
  0
LINE
  8
0
 10
-118.723
 20
10.2145
 11
-118.393
 21
10.033
  0
LINE
  8
0
 10
-118.393
 20
10.033
 11
-118.088
 21
9.81154
  0
LINE
  8
0
 10
-118.088
 20
9.81154
 11
-117.813
 21
9.55363
  0
LINE
  8
0
 10
-117.813
 20
9.55363
 11
-117.573
 21
9.26335
  0
LINE
  8
0
 10
-117.573
 20
9.26335
 11
-117.371
 21
8.94525
  0
LINE
  8
0
 10
-117.371
 20
8.94525
 11
-117.211
 21
8.60437
  0
LINE
  8
0
 10
-117.211
 20
8.60437
 11
-117.094
 21
8.24606
  0
LINE
  8
0
 10
-117.094
 20
8.24606
 11
-117.024
 21
7.87599
  0
LINE
  8
0
 10
-117.024
 20
7.87599
 11
-117
 21
7.5
  0
LINE
  8
0
 10
-117
 20
7.5
 11
-117.024
 21
7.12399
  0
LINE
  8
0
 10
-117.024
 20
7.12399
 11
-117.094
 21
6.75392
  0
LINE
  8
0
 10
-117.094
 20
6.75392
 11
-117.211
 21
6.39561
  0
LINE
  8
0
 10
-117.211
 20
6.39561
 11
-117.371
 21
6.05473
  0
LINE
  8
0
 10
-117.371
 20
6.05473
 11
-117.573
 21
5.73663
  0
LINE
  8
0
 10
-117.573
 20
5.73663
 11
-117.813
 21
5.44635
  0
LINE
  8
0
 10
-117.813
 20
5.44635
 11
-118.088
 21
5.18845
  0
LINE
  8
0
 10
-118.088
 20
5.18845
 11
-118.393
 21
4.96701
  0
LINE
  8
0
 10
-118.393
 20
4.96701
 11
-118.723
 21
4.78551
  0
LINE
  8
0
 10
-118.723
 20
4.78551
 11
-119.073
 21
4.64682
  0
LINE
  8
0
 10
-119.073
 20
4.64682
 11
-119.438
 21
4.55313
  0
LINE
  8
0
 10
-119.438
 20
4.55313
 11
-119.812
 21
4.50591
  0
LINE
  8
0
 10
-119.812
 20
4.50591
 11
-120.188
 21
4.50591
  0
LINE
  8
0
 10
119.812
 20
4.50591
 11
119.438
 21
4.55313
  0
LINE
  8
0
 10
119.438
 20
4.55313
 11
119.073
 21
4.64682
  0
LINE
  8
0
 10
119.073
 20
4.64682
 11
118.723
 21
4.78551
  0
LINE
  8
0
 10
118.723
 20
4.78551
 11
118.393
 21
4.96701
  0
LINE
  8
0
 10
118.393
 20
4.96701
 11
118.088
 21
5.18845
  0
LINE
  8
0
 10
118.088
 20
5.18845
 11
117.813
 21
5.44635
  0
LINE
  8
0
 10
117.813
 20
5.44635
 11
117.573
 21
5.73663
  0
LINE
  8
0
 10
117.573
 20
5.73663
 11
117.371
 21
6.05473
  0
LINE
  8
0
 10
117.371
 20
6.05473
 11
117.211
 21
6.39561
  0
LINE
  8
0
 10
117.211
 20
6.39561
 11
117.094
 21
6.75392
  0
LINE
  8
0
 10
117.094
 20
6.75392
 11
117.024
 21
7.12399
  0
LINE
  8
0
 10
117.024
 20
7.12399
 11
117
 21
7.5
  0
LINE
  8
0
 10
117
 20
7.5
 11
117.024
 21
7.87599
  0
LINE
  8
0
 10
117.024
 20
7.87599
 11
117.094
 21
8.24606
  0
LINE
  8
0
 10
117.094
 20
8.24606
 11
117.211
 21
8.60437
  0
LINE
  8
0
 10
117.211
 20
8.60437
 11
117.371
 21
8.94525
  0
LINE
  8
0
 10
117.371
 20
8.94525
 11
117.573
 21
9.26335
  0
LINE
  8
0
 10
117.573
 20
9.26335
 11
117.813
 21
9.55363
  0
LINE
  8
0
 10
117.813
 20
9.55363
 11
118.088
 21
9.81154
  0
LINE
  8
0
 10
118.088
 20
9.81154
 11
118.393
 21
10.033
  0
LINE
  8
0
 10
118.393
 20
10.033
 11
118.723
 21
10.2145
  0
LINE
  8
0
 10
118.723
 20
10.2145
 11
119.073
 21
10.3532
  0
LINE
  8
0
 10
119.073
 20
10.3532
 11
119.438
 21
10.4469
  0
LINE
  8
0
 10
119.438
 20
10.4469
 11
119.812
 21
10.4941
  0
LINE
  8
0
 10
119.812
 20
10.4941
 11
120.188
 21
10.4941
  0
LINE
  8
0
 10
120.188
 20
10.4941
 11
120.562
 21
10.4469
  0
LINE
  8
0
 10
120.562
 20
10.4469
 11
120.927
 21
10.3532
  0
LINE
  8
0
 10
120.927
 20
10.3532
 11
121.277
 21
10.2145
  0
LINE
  8
0
 10
121.277
 20
10.2145
 11
121.607
 21
10.033
  0
LINE
  8
0
 10
121.607
 20
10.033
 11
121.912
 21
9.81154
  0
LINE
  8
0
 10
121.912
 20
9.81154
 11
122.187
 21
9.55363
  0
LINE
  8
0
 10
122.187
 20
9.55363
 11
122.427
 21
9.26335
  0
LINE
  8
0
 10
122.427
 20
9.26335
 11
122.629
 21
8.94525
  0
LINE
  8
0
 10
122.629
 20
8.94525
 11
122.789
 21
8.60437
  0
LINE
  8
0
 10
122.789
 20
8.60437
 11
122.906
 21
8.24606
  0
LINE
  8
0
 10
122.906
 20
8.24606
 11
122.976
 21
7.87599
  0
LINE
  8
0
 10
122.976
 20
7.87599
 11
123
 21
7.5
  0
LINE
  8
0
 10
123
 20
7.5
 11
122.976
 21
7.12399
  0
LINE
  8
0
 10
122.976
 20
7.12399
 11
122.906
 21
6.75392
  0
LINE
  8
0
 10
122.906
 20
6.75392
 11
122.789
 21
6.39561
  0
LINE
  8
0
 10
122.789
 20
6.39561
 11
122.629
 21
6.05473
  0
LINE
  8
0
 10
122.629
 20
6.05473
 11
122.427
 21
5.73663
  0
LINE
  8
0
 10
122.427
 20
5.73663
 11
122.187
 21
5.44635
  0
LINE
  8
0
 10
122.187
 20
5.44635
 11
121.912
 21
5.18845
  0
LINE
  8
0
 10
121.912
 20
5.18845
 11
121.607
 21
4.96701
  0
LINE
  8
0
 10
121.607
 20
4.96701
 11
121.277
 21
4.78551
  0
LINE
  8
0
 10
121.277
 20
4.78551
 11
120.927
 21
4.64682
  0
LINE
  8
0
 10
120.927
 20
4.64682
 11
120.562
 21
4.55313
  0
LINE
  8
0
 10
120.562
 20
4.55313
 11
120.188
 21
4.50591
  0
LINE
  8
0
 10
120.188
 20
4.50591
 11
119.812
 21
4.50591
  0
LINE
  8
0
 10
-120.094
 20
-1.49704
 11
-120.281
 21
-1.47342
  0
LINE
  8
0
 10
-120.281
 20
-1.47342
 11
-120.464
 21
-1.42657
  0
LINE
  8
0
 10
-120.464
 20
-1.42657
 11
-120.639
 21
-1.35724
  0
LINE
  8
0
 10
-120.639
 20
-1.35724
 11
-120.804
 21
-1.26648
  0
LINE
  8
0
 10
-120.804
 20
-1.26648
 11
-120.956
 21
-1.15576
  0
LINE
  8
0
 10
-120.956
 20
-1.15576
 11
-121.093
 21
-1.02681
  0
LINE
  8
0
 10
-121.093
 20
-1.02681
 11
-121.214
 21
-0.881668
  0
LINE
  8
0
 10
-121.214
 20
-0.881668
 11
-121.314
 21
-0.722626
  0
LINE
  8
0
 10
-121.314
 20
-0.722626
 11
-121.395
 21
-0.552185
  0
LINE
  8
0
 10
-121.395
 20
-0.552185
 11
-121.453
 21
-0.373032
  0
LINE
  8
0
 10
-121.453
 20
-0.373032
 11
-121.488
 21
-0.187988
  0
LINE
  8
0
 10
-121.488
 20
-0.187988
 11
-121.5
 21
0
  0
LINE
  8
0
 10
-121.5
 20
0
 11
-121.488
 21
0.187988
  0
LINE
  8
0
 10
-121.488
 20
0.187988
 11
-121.453
 21
0.373032
  0
LINE
  8
0
 10
-121.453
 20
0.373032
 11
-121.395
 21
0.552185
  0
LINE
  8
0
 10
-121.395
 20
0.552185
 11
-121.314
 21
0.722626
  0
LINE
  8
0
 10
-121.314
 20
0.722626
 11
-121.214
 21
0.881668
  0
LINE
  8
0
 10
-121.214
 20
0.881668
 11
-121.093
 21
1.02681
  0
LINE
  8
0
 10
-121.093
 20
1.02681
 11
-120.956
 21
1.15576
  0
LINE
  8
0
 10
-120.956
 20
1.15576
 11
-120.804
 21
1.26648
  0
LINE
  8
0
 10
-120.804
 20
1.26648
 11
-120.639
 21
1.35724
  0
LINE
  8
0
 10
-120.639
 20
1.35724
 11
-120.464
 21
1.42657
  0
LINE
  8
0
 10
-120.464
 20
1.42657
 11
-120.281
 21
1.47342
  0
LINE
  8
0
 10
-120.281
 20
1.47342
 11
-120.094
 21
1.49704
  0
LINE
  8
0
 10
-120.094
 20
1.49704
 11
-119.906
 21
1.49704
  0
LINE
  8
0
 10
-119.906
 20
1.49704
 11
-119.719
 21
1.47342
  0
LINE
  8
0
 10
-119.719
 20
1.47342
 11
-119.536
 21
1.42657
  0
LINE
  8
0
 10
-119.536
 20
1.42657
 11
-119.361
 21
1.35724
  0
LINE
  8
0
 10
-119.361
 20
1.35724
 11
-119.196
 21
1.26648
  0
LINE
  8
0
 10
-119.196
 20
1.26648
 11
-119.044
 21
1.15576
  0
LINE
  8
0
 10
-119.044
 20
1.15576
 11
-118.907
 21
1.02681
  0
LINE
  8
0
 10
-118.907
 20
1.02681
 11
-118.786
 21
0.881668
  0
LINE
  8
0
 10
-118.786
 20
0.881668
 11
-118.686
 21
0.722626
  0
LINE
  8
0
 10
-118.686
 20
0.722626
 11
-118.605
 21
0.552185
  0
LINE
  8
0
 10
-118.605
 20
0.552185
 11
-118.547
 21
0.373032
  0
LINE
  8
0
 10
-118.547
 20
0.373032
 11
-118.512
 21
0.187988
  0
LINE
  8
0
 10
-118.512
 20
0.187988
 11
-118.5
 21
0
  0
LINE
  8
0
 10
-118.5
 20
0
 11
-118.512
 21
-0.187988
  0
LINE
  8
0
 10
-118.512
 20
-0.187988
 11
-118.547
 21
-0.373032
  0
LINE
  8
0
 10
-118.547
 20
-0.373032
 11
-118.605
 21
-0.552185
  0
LINE
  8
0
 10
-118.605
 20
-0.552185
 11
-118.686
 21
-0.722626
  0
LINE
  8
0
 10
-118.686
 20
-0.722626
 11
-118.786
 21
-0.881668
  0
LINE
  8
0
 10
-118.786
 20
-0.881668
 11
-118.907
 21
-1.02681
  0
LINE
  8
0
 10
-118.907
 20
-1.02681
 11
-119.044
 21
-1.15576
  0
LINE
  8
0
 10
-119.044
 20
-1.15576
 11
-119.196
 21
-1.26648
  0
LINE
  8
0
 10
-119.196
 20
-1.26648
 11
-119.361
 21
-1.35724
  0
LINE
  8
0
 10
-119.361
 20
-1.35724
 11
-119.536
 21
-1.42657
  0
LINE
  8
0
 10
-119.536
 20
-1.42657
 11
-119.719
 21
-1.47342
  0
LINE
  8
0
 10
-119.719
 20
-1.47342
 11
-119.906
 21
-1.49704
  0
LINE
  8
0
 10
-119.906
 20
-1.49704
 11
-120.094
 21
-1.49704
  0
LINE
  8
0
 10
119.906
 20
-1.49704
 11
119.719
 21
-1.47342
  0
LINE
  8
0
 10
119.719
 20
-1.47342
 11
119.536
 21
-1.42657
  0
LINE
  8
0
 10
119.536
 20
-1.42657
 11
119.361
 21
-1.35724
  0
LINE
  8
0
 10
119.361
 20
-1.35724
 11
119.196
 21
-1.26648
  0
LINE
  8
0
 10
119.196
 20
-1.26648
 11
119.044
 21
-1.15576
  0
LINE
  8
0
 10
119.044
 20
-1.15576
 11
118.907
 21
-1.02681
  0
LINE
  8
0
 10
118.907
 20
-1.02681
 11
118.786
 21
-0.881668
  0
LINE
  8
0
 10
118.786
 20
-0.881668
 11
118.686
 21
-0.722626
  0
LINE
  8
0
 10
118.686
 20
-0.722626
 11
118.605
 21
-0.552185
  0
LINE
  8
0
 10
118.605
 20
-0.552185
 11
118.547
 21
-0.373032
  0
LINE
  8
0
 10
118.547
 20
-0.373032
 11
118.512
 21
-0.187988
  0
LINE
  8
0
 10
118.512
 20
-0.187988
 11
118.5
 21
0
  0
LINE
  8
0
 10
118.5
 20
0
 11
118.512
 21
0.187988
  0
LINE
  8
0
 10
118.512
 20
0.187988
 11
118.547
 21
0.373032
  0
LINE
  8
0
 10
118.547
 20
0.373032
 11
118.605
 21
0.552185
  0
LINE
  8
0
 10
118.605
 20
0.552185
 11
118.686
 21
0.722626
  0
LINE
  8
0
 10
118.686
 20
0.722626
 11
118.786
 21
0.881668
  0
LINE
  8
0
 10
118.786
 20
0.881668
 11
118.907
 21
1.02681
  0
LINE
  8
0
 10
118.907
 20
1.02681
 11
119.044
 21
1.15576
  0
LINE
  8
0
 10
119.044
 20
1.15576
 11
119.196
 21
1.26648
  0
LINE
  8
0
 10
119.196
 20
1.26648
 11
119.361
 21
1.35724
  0
LINE
  8
0
 10
119.361
 20
1.35724
 11
119.536
 21
1.42657
  0
LINE
  8
0
 10
119.536
 20
1.42657
 11
119.719
 21
1.47342
  0
LINE
  8
0
 10
119.719
 20
1.47342
 11
119.906
 21
1.49704
  0
LINE
  8
0
 10
119.906
 20
1.49704
 11
120.094
 21
1.49704
  0
LINE
  8
0
 10
120.094
 20
1.49704
 11
120.281
 21
1.47342
  0
LINE
  8
0
 10
120.281
 20
1.47342
 11
120.464
 21
1.42657
  0
LINE
  8
0
 10
120.464
 20
1.42657
 11
120.639
 21
1.35724
  0
LINE
  8
0
 10
120.639
 20
1.35724
 11
120.804
 21
1.26648
  0
LINE
  8
0
 10
120.804
 20
1.26648
 11
120.956
 21
1.15576
  0
LINE
  8
0
 10
120.956
 20
1.15576
 11
121.093
 21
1.02681
  0
LINE
  8
0
 10
121.093
 20
1.02681
 11
121.214
 21
0.881668
  0
LINE
  8
0
 10
121.214
 20
0.881668
 11
121.314
 21
0.722626
  0
LINE
  8
0
 10
121.314
 20
0.722626
 11
121.395
 21
0.552185
  0
LINE
  8
0
 10
121.395
 20
0.552185
 11
121.453
 21
0.373032
  0
LINE
  8
0
 10
121.453
 20
0.373032
 11
121.488
 21
0.187988
  0
LINE
  8
0
 10
121.488
 20
0.187988
 11
121.5
 21
0
  0
LINE
  8
0
 10
121.5
 20
0
 11
121.488
 21
-0.187988
  0
LINE
  8
0
 10
121.488
 20
-0.187988
 11
121.453
 21
-0.373032
  0
LINE
  8
0
 10
121.453
 20
-0.373032
 11
121.395
 21
-0.552185
  0
LINE
  8
0
 10
121.395
 20
-0.552185
 11
121.314
 21
-0.722626
  0
LINE
  8
0
 10
121.314
 20
-0.722626
 11
121.214
 21
-0.881668
  0
LINE
  8
0
 10
121.214
 20
-0.881668
 11
121.093
 21
-1.02681
  0
LINE
  8
0
 10
121.093
 20
-1.02681
 11
120.956
 21
-1.15576
  0
LINE
  8
0
 10
120.956
 20
-1.15576
 11
120.804
 21
-1.26648
  0
LINE
  8
0
 10
120.804
 20
-1.26648
 11
120.639
 21
-1.35724
  0
LINE
  8
0
 10
120.639
 20
-1.35724
 11
120.464
 21
-1.42657
  0
LINE
  8
0
 10
120.464
 20
-1.42657
 11
120.281
 21
-1.47342
  0
LINE
  8
0
 10
120.281
 20
-1.47342
 11
120.094
 21
-1.49704
  0
LINE
  8
0
 10
120.094
 20
-1.49704
 11
119.906
 21
-1.49704
  0
LINE
  8
0
 10
119.812
 20
-10.4941
 11
119.438
 21
-10.4469
  0
LINE
  8
0
 10
119.438
 20
-10.4469
 11
119.073
 21
-10.3532
  0
LINE
  8
0
 10
119.073
 20
-10.3532
 11
118.723
 21
-10.2145
  0
LINE
  8
0
 10
118.723
 20
-10.2145
 11
118.393
 21
-10.033
  0
LINE
  8
0
 10
118.393
 20
-10.033
 11
118.088
 21
-9.81154
  0
LINE
  8
0
 10
118.088
 20
-9.81154
 11
117.813
 21
-9.55363
  0
LINE
  8
0
 10
117.813
 20
-9.55363
 11
117.573
 21
-9.26335
  0
LINE
  8
0
 10
117.573
 20
-9.26335
 11
117.371
 21
-8.94525
  0
LINE
  8
0
 10
117.371
 20
-8.94525
 11
117.211
 21
-8.60437
  0
LINE
  8
0
 10
117.211
 20
-8.60437
 11
117.094
 21
-8.24606
  0
LINE
  8
0
 10
117.094
 20
-8.24606
 11
117.024
 21
-7.87599
  0
LINE
  8
0
 10
117.024
 20
-7.87599
 11
117
 21
-7.5
  0
LINE
  8
0
 10
117
 20
-7.5
 11
117.024
 21
-7.12399
  0
LINE
  8
0
 10
117.024
 20
-7.12399
 11
117.094
 21
-6.75392
  0
LINE
  8
0
 10
117.094
 20
-6.75392
 11
117.211
 21
-6.39561
  0
LINE
  8
0
 10
117.211
 20
-6.39561
 11
117.371
 21
-6.05473
  0
LINE
  8
0
 10
117.371
 20
-6.05473
 11
117.573
 21
-5.73663
  0
LINE
  8
0
 10
117.573
 20
-5.73663
 11
117.813
 21
-5.44635
  0
LINE
  8
0
 10
117.813
 20
-5.44635
 11
118.088
 21
-5.18845
  0
LINE
  8
0
 10
118.088
 20
-5.18845
 11
118.393
 21
-4.96701
  0
LINE
  8
0
 10
118.393
 20
-4.96701
 11
118.723
 21
-4.78551
  0
LINE
  8
0
 10
118.723
 20
-4.78551
 11
119.073
 21
-4.64682
  0
LINE
  8
0
 10
119.073
 20
-4.64682
 11
119.438
 21
-4.55313
  0
LINE
  8
0
 10
119.438
 20
-4.55313
 11
119.812
 21
-4.50591
  0
LINE
  8
0
 10
119.812
 20
-4.50591
 11
120.188
 21
-4.50591
  0
LINE
  8
0
 10
120.188
 20
-4.50591
 11
120.562
 21
-4.55313
  0
LINE
  8
0
 10
120.562
 20
-4.55313
 11
120.927
 21
-4.64682
  0
LINE
  8
0
 10
120.927
 20
-4.64682
 11
121.277
 21
-4.78551
  0
LINE
  8
0
 10
121.277
 20
-4.78551
 11
121.607
 21
-4.96701
  0
LINE
  8
0
 10
121.607
 20
-4.96701
 11
121.912
 21
-5.18845
  0
LINE
  8
0
 10
121.912
 20
-5.18845
 11
122.187
 21
-5.44635
  0
LINE
  8
0
 10
122.187
 20
-5.44635
 11
122.427
 21
-5.73663
  0
LINE
  8
0
 10
122.427
 20
-5.73663
 11
122.629
 21
-6.05473
  0
LINE
  8
0
 10
122.629
 20
-6.05473
 11
122.789
 21
-6.39561
  0
LINE
  8
0
 10
122.789
 20
-6.39561
 11
122.906
 21
-6.75392
  0
LINE
  8
0
 10
122.906
 20
-6.75392
 11
122.976
 21
-7.12399
  0
LINE
  8
0
 10
122.976
 20
-7.12399
 11
123
 21
-7.5
  0
LINE
  8
0
 10
123
 20
-7.5
 11
122.976
 21
-7.87599
  0
LINE
  8
0
 10
122.976
 20
-7.87599
 11
122.906
 21
-8.24606
  0
LINE
  8
0
 10
122.906
 20
-8.24606
 11
122.789
 21
-8.60437
  0
LINE
  8
0
 10
122.789
 20
-8.60437
 11
122.629
 21
-8.94525
  0
LINE
  8
0
 10
122.629
 20
-8.94525
 11
122.427
 21
-9.26335
  0
LINE
  8
0
 10
122.427
 20
-9.26335
 11
122.187
 21
-9.55363
  0
LINE
  8
0
 10
122.187
 20
-9.55363
 11
121.912
 21
-9.81154
  0
LINE
  8
0
 10
121.912
 20
-9.81154
 11
121.607
 21
-10.033
  0
LINE
  8
0
 10
121.607
 20
-10.033
 11
121.277
 21
-10.2145
  0
LINE
  8
0
 10
121.277
 20
-10.2145
 11
120.927
 21
-10.3532
  0
LINE
  8
0
 10
120.927
 20
-10.3532
 11
120.562
 21
-10.4469
  0
LINE
  8
0
 10
120.562
 20
-10.4469
 11
120.188
 21
-10.4941
  0
LINE
  8
0
 10
120.188
 20
-10.4941
 11
119.812
 21
-10.4941
  0
LINE
  8
0
 10
-120.188
 20
-10.4941
 11
-120.562
 21
-10.4469
  0
LINE
  8
0
 10
-120.562
 20
-10.4469
 11
-120.927
 21
-10.3532
  0
LINE
  8
0
 10
-120.927
 20
-10.3532
 11
-121.277
 21
-10.2145
  0
LINE
  8
0
 10
-121.277
 20
-10.2145
 11
-121.607
 21
-10.033
  0
LINE
  8
0
 10
-121.607
 20
-10.033
 11
-121.912
 21
-9.81154
  0
LINE
  8
0
 10
-121.912
 20
-9.81154
 11
-122.187
 21
-9.55363
  0
LINE
  8
0
 10
-122.187
 20
-9.55363
 11
-122.427
 21
-9.26335
  0
LINE
  8
0
 10
-122.427
 20
-9.26335
 11
-122.629
 21
-8.94525
  0
LINE
  8
0
 10
-122.629
 20
-8.94525
 11
-122.789
 21
-8.60437
  0
LINE
  8
0
 10
-122.789
 20
-8.60437
 11
-122.906
 21
-8.24606
  0
LINE
  8
0
 10
-122.906
 20
-8.24606
 11
-122.976
 21
-7.87599
  0
LINE
  8
0
 10
-122.976
 20
-7.87599
 11
-123
 21
-7.5
  0
LINE
  8
0
 10
-123
 20
-7.5
 11
-122.976
 21
-7.12399
  0
LINE
  8
0
 10
-122.976
 20
-7.12399
 11
-122.906
 21
-6.75392
  0
LINE
  8
0
 10
-122.906
 20
-6.75392
 11
-122.789
 21
-6.39561
  0
LINE
  8
0
 10
-122.789
 20
-6.39561
 11
-122.629
 21
-6.05473
  0
LINE
  8
0
 10
-122.629
 20
-6.05473
 11
-122.427
 21
-5.73663
  0
LINE
  8
0
 10
-122.427
 20
-5.73663
 11
-122.187
 21
-5.44635
  0
LINE
  8
0
 10
-122.187
 20
-5.44635
 11
-121.912
 21
-5.18845
  0
LINE
  8
0
 10
-121.912
 20
-5.18845
 11
-121.607
 21
-4.96701
  0
LINE
  8
0
 10
-121.607
 20
-4.96701
 11
-121.277
 21
-4.78551
  0
LINE
  8
0
 10
-121.277
 20
-4.78551
 11
-120.927
 21
-4.64682
  0
LINE
  8
0
 10
-120.927
 20
-4.64682
 11
-120.562
 21
-4.55313
  0
LINE
  8
0
 10
-120.562
 20
-4.55313
 11
-120.188
 21
-4.50591
  0
LINE
  8
0
 10
-120.188
 20
-4.50591
 11
-119.812
 21
-4.50591
  0
LINE
  8
0
 10
-119.812
 20
-4.50591
 11
-119.438
 21
-4.55313
  0
LINE
  8
0
 10
-119.438
 20
-4.55313
 11
-119.073
 21
-4.64682
  0
LINE
  8
0
 10
-119.073
 20
-4.64682
 11
-118.723
 21
-4.78551
  0
LINE
  8
0
 10
-118.723
 20
-4.78551
 11
-118.393
 21
-4.96701
  0
LINE
  8
0
 10
-118.393
 20
-4.96701
 11
-118.088
 21
-5.18845
  0
LINE
  8
0
 10
-118.088
 20
-5.18845
 11
-117.813
 21
-5.44635
  0
LINE
  8
0
 10
-117.813
 20
-5.44635
 11
-117.573
 21
-5.73663
  0
LINE
  8
0
 10
-117.573
 20
-5.73663
 11
-117.371
 21
-6.05473
  0
LINE
  8
0
 10
-117.371
 20
-6.05473
 11
-117.211
 21
-6.39561
  0
LINE
  8
0
 10
-117.211
 20
-6.39561
 11
-117.094
 21
-6.75392
  0
LINE
  8
0
 10
-117.094
 20
-6.75392
 11
-117.024
 21
-7.12399
  0
LINE
  8
0
 10
-117.024
 20
-7.12399
 11
-117
 21
-7.5
  0
LINE
  8
0
 10
-117
 20
-7.5
 11
-117.024
 21
-7.87599
  0
LINE
  8
0
 10
-117.024
 20
-7.87599
 11
-117.094
 21
-8.24606
  0
LINE
  8
0
 10
-117.094
 20
-8.24606
 11
-117.211
 21
-8.60437
  0
LINE
  8
0
 10
-117.211
 20
-8.60437
 11
-117.371
 21
-8.94525
  0
LINE
  8
0
 10
-117.371
 20
-8.94525
 11
-117.573
 21
-9.26335
  0
LINE
  8
0
 10
-117.573
 20
-9.26335
 11
-117.813
 21
-9.55363
  0
LINE
  8
0
 10
-117.813
 20
-9.55363
 11
-118.088
 21
-9.81154
  0
LINE
  8
0
 10
-118.088
 20
-9.81154
 11
-118.393
 21
-10.033
  0
LINE
  8
0
 10
-118.393
 20
-10.033
 11
-118.723
 21
-10.2145
  0
LINE
  8
0
 10
-118.723
 20
-10.2145
 11
-119.073
 21
-10.3532
  0
LINE
  8
0
 10
-119.073
 20
-10.3532
 11
-119.438
 21
-10.4469
  0
LINE
  8
0
 10
-119.438
 20
-10.4469
 11
-119.812
 21
-10.4941
  0
LINE
  8
0
 10
-119.812
 20
-10.4941
 11
-120.188
 21
-10.4941
  0
LINE
  8
0
 10
-120.094
 20
-16.497
 11
-120.281
 21
-16.4734
  0
LINE
  8
0
 10
-120.281
 20
-16.4734
 11
-120.464
 21
-16.4266
  0
LINE
  8
0
 10
-120.464
 20
-16.4266
 11
-120.639
 21
-16.3572
  0
LINE
  8
0
 10
-120.639
 20
-16.3572
 11
-120.804
 21
-16.2665
  0
LINE
  8
0
 10
-120.804
 20
-16.2665
 11
-120.956
 21
-16.1558
  0
LINE
  8
0
 10
-120.956
 20
-16.1558
 11
-121.093
 21
-16.0268
  0
LINE
  8
0
 10
-121.093
 20
-16.0268
 11
-121.214
 21
-15.8817
  0
LINE
  8
0
 10
-121.214
 20
-15.8817
 11
-121.314
 21
-15.7226
  0
LINE
  8
0
 10
-121.314
 20
-15.7226
 11
-121.395
 21
-15.5522
  0
LINE
  8
0
 10
-121.395
 20
-15.5522
 11
-121.453
 21
-15.373
  0
LINE
  8
0
 10
-121.453
 20
-15.373
 11
-121.488
 21
-15.188
  0
LINE
  8
0
 10
-121.488
 20
-15.188
 11
-121.5
 21
-15
  0
LINE
  8
0
 10
-121.5
 20
-15
 11
-121.488
 21
-14.812
  0
LINE
  8
0
 10
-121.488
 20
-14.812
 11
-121.453
 21
-14.627
  0
LINE
  8
0
 10
-121.453
 20
-14.627
 11
-121.395
 21
-14.4478
  0
LINE
  8
0
 10
-121.395
 20
-14.4478
 11
-121.314
 21
-14.2774
  0
LINE
  8
0
 10
-121.314
 20
-14.2774
 11
-121.214
 21
-14.1183
  0
LINE
  8
0
 10
-121.214
 20
-14.1183
 11
-121.093
 21
-13.9732
  0
LINE
  8
0
 10
-121.093
 20
-13.9732
 11
-120.956
 21
-13.8442
  0
LINE
  8
0
 10
-120.956
 20
-13.8442
 11
-120.804
 21
-13.7335
  0
LINE
  8
0
 10
-120.804
 20
-13.7335
 11
-120.639
 21
-13.6427
  0
LINE
  8
0
 10
-120.639
 20
-13.6427
 11
-120.464
 21
-13.5734
  0
LINE
  8
0
 10
-120.464
 20
-13.5734
 11
-120.281
 21
-13.5266
  0
LINE
  8
0
 10
-120.281
 20
-13.5266
 11
-120.094
 21
-13.5029
  0
LINE
  8
0
 10
-120.094
 20
-13.5029
 11
-119.906
 21
-13.5029
  0
LINE
  8
0
 10
-119.906
 20
-13.5029
 11
-119.719
 21
-13.5266
  0
LINE
  8
0
 10
-119.719
 20
-13.5266
 11
-119.536
 21
-13.5734
  0
LINE
  8
0
 10
-119.536
 20
-13.5734
 11
-119.361
 21
-13.6427
  0
LINE
  8
0
 10
-119.361
 20
-13.6427
 11
-119.196
 21
-13.7335
  0
LINE
  8
0
 10
-119.196
 20
-13.7335
 11
-119.044
 21
-13.8442
  0
LINE
  8
0
 10
-119.044
 20
-13.8442
 11
-118.907
 21
-13.9732
  0
LINE
  8
0
 10
-118.907
 20
-13.9732
 11
-118.786
 21
-14.1183
  0
LINE
  8
0
 10
-118.786
 20
-14.1183
 11
-118.686
 21
-14.2774
  0
LINE
  8
0
 10
-118.686
 20
-14.2774
 11
-118.605
 21
-14.4478
  0
LINE
  8
0
 10
-118.605
 20
-14.4478
 11
-118.547
 21
-14.627
  0
LINE
  8
0
 10
-118.547
 20
-14.627
 11
-118.512
 21
-14.812
  0
LINE
  8
0
 10
-118.512
 20
-14.812
 11
-118.5
 21
-15
  0
LINE
  8
0
 10
-118.5
 20
-15
 11
-118.512
 21
-15.188
  0
LINE
  8
0
 10
-118.512
 20
-15.188
 11
-118.547
 21
-15.373
  0
LINE
  8
0
 10
-118.547
 20
-15.373
 11
-118.605
 21
-15.5522
  0
LINE
  8
0
 10
-118.605
 20
-15.5522
 11
-118.686
 21
-15.7226
  0
LINE
  8
0
 10
-118.686
 20
-15.7226
 11
-118.786
 21
-15.8817
  0
LINE
  8
0
 10
-118.786
 20
-15.8817
 11
-118.907
 21
-16.0268
  0
LINE
  8
0
 10
-118.907
 20
-16.0268
 11
-119.044
 21
-16.1558
  0
LINE
  8
0
 10
-119.044
 20
-16.1558
 11
-119.196
 21
-16.2665
  0
LINE
  8
0
 10
-119.196
 20
-16.2665
 11
-119.361
 21
-16.3572
  0
LINE
  8
0
 10
-119.361
 20
-16.3572
 11
-119.536
 21
-16.4266
  0
LINE
  8
0
 10
-119.536
 20
-16.4266
 11
-119.719
 21
-16.4734
  0
LINE
  8
0
 10
-119.719
 20
-16.4734
 11
-119.906
 21
-16.497
  0
LINE
  8
0
 10
-119.906
 20
-16.497
 11
-120.094
 21
-16.497
  0
LINE
  8
0
 10
119.906
 20
-16.497
 11
119.719
 21
-16.4734
  0
LINE
  8
0
 10
119.719
 20
-16.4734
 11
119.536
 21
-16.4266
  0
LINE
  8
0
 10
119.536
 20
-16.4266
 11
119.361
 21
-16.3572
  0
LINE
  8
0
 10
119.361
 20
-16.3572
 11
119.196
 21
-16.2665
  0
LINE
  8
0
 10
119.196
 20
-16.2665
 11
119.044
 21
-16.1558
  0
LINE
  8
0
 10
119.044
 20
-16.1558
 11
118.907
 21
-16.0268
  0
LINE
  8
0
 10
118.907
 20
-16.0268
 11
118.786
 21
-15.8817
  0
LINE
  8
0
 10
118.786
 20
-15.8817
 11
118.686
 21
-15.7226
  0
LINE
  8
0
 10
118.686
 20
-15.7226
 11
118.605
 21
-15.5522
  0
LINE
  8
0
 10
118.605
 20
-15.5522
 11
118.547
 21
-15.373
  0
LINE
  8
0
 10
118.547
 20
-15.373
 11
118.512
 21
-15.188
  0
LINE
  8
0
 10
118.512
 20
-15.188
 11
118.5
 21
-15
  0
LINE
  8
0
 10
118.5
 20
-15
 11
118.512
 21
-14.812
  0
LINE
  8
0
 10
118.512
 20
-14.812
 11
118.547
 21
-14.627
  0
LINE
  8
0
 10
118.547
 20
-14.627
 11
118.605
 21
-14.4478
  0
LINE
  8
0
 10
118.605
 20
-14.4478
 11
118.686
 21
-14.2774
  0
LINE
  8
0
 10
118.686
 20
-14.2774
 11
118.786
 21
-14.1183
  0
LINE
  8
0
 10
118.786
 20
-14.1183
 11
118.907
 21
-13.9732
  0
LINE
  8
0
 10
118.907
 20
-13.9732
 11
119.044
 21
-13.8442
  0
LINE
  8
0
 10
119.044
 20
-13.8442
 11
119.196
 21
-13.7335
  0
LINE
  8
0
 10
119.196
 20
-13.7335
 11
119.361
 21
-13.6427
  0
LINE
  8
0
 10
119.361
 20
-13.6427
 11
119.536
 21
-13.5734
  0
LINE
  8
0
 10
119.536
 20
-13.5734
 11
119.719
 21
-13.5266
  0
LINE
  8
0
 10
119.719
 20
-13.5266
 11
119.906
 21
-13.5029
  0
LINE
  8
0
 10
119.906
 20
-13.5029
 11
120.094
 21
-13.5029
  0
LINE
  8
0
 10
120.094
 20
-13.5029
 11
120.281
 21
-13.5266
  0
LINE
  8
0
 10
120.281
 20
-13.5266
 11
120.464
 21
-13.5734
  0
LINE
  8
0
 10
120.464
 20
-13.5734
 11
120.639
 21
-13.6427
  0
LINE
  8
0
 10
120.639
 20
-13.6427
 11
120.804
 21
-13.7335
  0
LINE
  8
0
 10
120.804
 20
-13.7335
 11
120.956
 21
-13.8442
  0
LINE
  8
0
 10
120.956
 20
-13.8442
 11
121.093
 21
-13.9732
  0
LINE
  8
0
 10
121.093
 20
-13.9732
 11
121.214
 21
-14.1183
  0
LINE
  8
0
 10
121.214
 20
-14.1183
 11
121.314
 21
-14.2774
  0
LINE
  8
0
 10
121.314
 20
-14.2774
 11
121.395
 21
-14.4478
  0
LINE
  8
0
 10
121.395
 20
-14.4478
 11
121.453
 21
-14.627
  0
LINE
  8
0
 10
121.453
 20
-14.627
 11
121.488
 21
-14.812
  0
LINE
  8
0
 10
121.488
 20
-14.812
 11
121.5
 21
-15
  0
LINE
  8
0
 10
121.5
 20
-15
 11
121.488
 21
-15.188
  0
LINE
  8
0
 10
121.488
 20
-15.188
 11
121.453
 21
-15.373
  0
LINE
  8
0
 10
121.453
 20
-15.373
 11
121.395
 21
-15.5522
  0
LINE
  8
0
 10
121.395
 20
-15.5522
 11
121.314
 21
-15.7226
  0
LINE
  8
0
 10
121.314
 20
-15.7226
 11
121.214
 21
-15.8817
  0
LINE
  8
0
 10
121.214
 20
-15.8817
 11
121.093
 21
-16.0268
  0
LINE
  8
0
 10
121.093
 20
-16.0268
 11
120.956
 21
-16.1558
  0
LINE
  8
0
 10
120.956
 20
-16.1558
 11
120.804
 21
-16.2665
  0
LINE
  8
0
 10
120.804
 20
-16.2665
 11
120.639
 21
-16.3572
  0
LINE
  8
0
 10
120.639
 20
-16.3572
 11
120.464
 21
-16.4266
  0
LINE
  8
0
 10
120.464
 20
-16.4266
 11
120.281
 21
-16.4734
  0
LINE
  8
0
 10
120.281
 20
-16.4734
 11
120.094
 21
-16.497
  0
LINE
  8
0
 10
120.094
 20
-16.497
 11
119.906
 21
-16.497
  0
LINE
  8
0
 10
-120.188
 20
-25.4941
 11
-120.562
 21
-25.4469
  0
LINE
  8
0
 10
-120.562
 20
-25.4469
 11
-120.927
 21
-25.3532
  0
LINE
  8
0
 10
-120.927
 20
-25.3532
 11
-121.277
 21
-25.2145
  0
LINE
  8
0
 10
-121.277
 20
-25.2145
 11
-121.607
 21
-25.033
  0
LINE
  8
0
 10
-121.607
 20
-25.033
 11
-121.912
 21
-24.8115
  0
LINE
  8
0
 10
-121.912
 20
-24.8115
 11
-122.187
 21
-24.5536
  0
LINE
  8
0
 10
-122.187
 20
-24.5536
 11
-122.427
 21
-24.2634
  0
LINE
  8
0
 10
-122.427
 20
-24.2634
 11
-122.629
 21
-23.9453
  0
LINE
  8
0
 10
-122.629
 20
-23.9453
 11
-122.789
 21
-23.6044
  0
LINE
  8
0
 10
-122.789
 20
-23.6044
 11
-122.906
 21
-23.2461
  0
LINE
  8
0
 10
-122.906
 20
-23.2461
 11
-122.976
 21
-22.876
  0
LINE
  8
0
 10
-122.976
 20
-22.876
 11
-123
 21
-22.5
  0
LINE
  8
0
 10
-123
 20
-22.5
 11
-122.976
 21
-22.124
  0
LINE
  8
0
 10
-122.976
 20
-22.124
 11
-122.906
 21
-21.7539
  0
LINE
  8
0
 10
-122.906
 20
-21.7539
 11
-122.789
 21
-21.3956
  0
LINE
  8
0
 10
-122.789
 20
-21.3956
 11
-122.629
 21
-21.0547
  0
LINE
  8
0
 10
-122.629
 20
-21.0547
 11
-122.427
 21
-20.7366
  0
LINE
  8
0
 10
-122.427
 20
-20.7366
 11
-122.187
 21
-20.4464
  0
LINE
  8
0
 10
-122.187
 20
-20.4464
 11
-121.912
 21
-20.1884
  0
LINE
  8
0
 10
-121.912
 20
-20.1884
 11
-121.607
 21
-19.967
  0
LINE
  8
0
 10
-121.607
 20
-19.967
 11
-121.277
 21
-19.7855
  0
LINE
  8
0
 10
-121.277
 20
-19.7855
 11
-120.927
 21
-19.6468
  0
LINE
  8
0
 10
-120.927
 20
-19.6468
 11
-120.562
 21
-19.5531
  0
LINE
  8
0
 10
-120.562
 20
-19.5531
 11
-120.188
 21
-19.5059
  0
LINE
  8
0
 10
-120.188
 20
-19.5059
 11
-119.812
 21
-19.5059
  0
LINE
  8
0
 10
-119.812
 20
-19.5059
 11
-119.438
 21
-19.5531
  0
LINE
  8
0
 10
-119.438
 20
-19.5531
 11
-119.073
 21
-19.6468
  0
LINE
  8
0
 10
-119.073
 20
-19.6468
 11
-118.723
 21
-19.7855
  0
LINE
  8
0
 10
-118.723
 20
-19.7855
 11
-118.393
 21
-19.967
  0
LINE
  8
0
 10
-118.393
 20
-19.967
 11
-118.088
 21
-20.1884
  0
LINE
  8
0
 10
-118.088
 20
-20.1884
 11
-117.813
 21
-20.4464
  0
LINE
  8
0
 10
-117.813
 20
-20.4464
 11
-117.573
 21
-20.7366
  0
LINE
  8
0
 10
-117.573
 20
-20.7366
 11
-117.371
 21
-21.0547
  0
LINE
  8
0
 10
-117.371
 20
-21.0547
 11
-117.211
 21
-21.3956
  0
LINE
  8
0
 10
-117.211
 20
-21.3956
 11
-117.094
 21
-21.7539
  0
LINE
  8
0
 10
-117.094
 20
-21.7539
 11
-117.024
 21
-22.124
  0
LINE
  8
0
 10
-117.024
 20
-22.124
 11
-117
 21
-22.5
  0
LINE
  8
0
 10
-117
 20
-22.5
 11
-117.024
 21
-22.876
  0
LINE
  8
0
 10
-117.024
 20
-22.876
 11
-117.094
 21
-23.2461
  0
LINE
  8
0
 10
-117.094
 20
-23.2461
 11
-117.211
 21
-23.6044
  0
LINE
  8
0
 10
-117.211
 20
-23.6044
 11
-117.371
 21
-23.9453
  0
LINE
  8
0
 10
-117.371
 20
-23.9453
 11
-117.573
 21
-24.2634
  0
LINE
  8
0
 10
-117.573
 20
-24.2634
 11
-117.813
 21
-24.5536
  0
LINE
  8
0
 10
-117.813
 20
-24.5536
 11
-118.088
 21
-24.8115
  0
LINE
  8
0
 10
-118.088
 20
-24.8115
 11
-118.393
 21
-25.033
  0
LINE
  8
0
 10
-118.393
 20
-25.033
 11
-118.723
 21
-25.2145
  0
LINE
  8
0
 10
-118.723
 20
-25.2145
 11
-119.073
 21
-25.3532
  0
LINE
  8
0
 10
-119.073
 20
-25.3532
 11
-119.438
 21
-25.4469
  0
LINE
  8
0
 10
-119.438
 20
-25.4469
 11
-119.812
 21
-25.4941
  0
LINE
  8
0
 10
-119.812
 20
-25.4941
 11
-120.188
 21
-25.4941
  0
LINE
  8
0
 10
119.812
 20
-25.4941
 11
119.438
 21
-25.4469
  0
LINE
  8
0
 10
119.438
 20
-25.4469
 11
119.073
 21
-25.3532
  0
LINE
  8
0
 10
119.073
 20
-25.3532
 11
118.723
 21
-25.2145
  0
LINE
  8
0
 10
118.723
 20
-25.2145
 11
118.393
 21
-25.033
  0
LINE
  8
0
 10
118.393
 20
-25.033
 11
118.088
 21
-24.8115
  0
LINE
  8
0
 10
118.088
 20
-24.8115
 11
117.813
 21
-24.5536
  0
LINE
  8
0
 10
117.813
 20
-24.5536
 11
117.573
 21
-24.2634
  0
LINE
  8
0
 10
117.573
 20
-24.2634
 11
117.371
 21
-23.9453
  0
LINE
  8
0
 10
117.371
 20
-23.9453
 11
117.211
 21
-23.6044
  0
LINE
  8
0
 10
117.211
 20
-23.6044
 11
117.094
 21
-23.2461
  0
LINE
  8
0
 10
117.094
 20
-23.2461
 11
117.024
 21
-22.876
  0
LINE
  8
0
 10
117.024
 20
-22.876
 11
117
 21
-22.5
  0
LINE
  8
0
 10
117
 20
-22.5
 11
117.024
 21
-22.124
  0
LINE
  8
0
 10
117.024
 20
-22.124
 11
117.094
 21
-21.7539
  0
LINE
  8
0
 10
117.094
 20
-21.7539
 11
117.211
 21
-21.3956
  0
LINE
  8
0
 10
117.211
 20
-21.3956
 11
117.371
 21
-21.0547
  0
LINE
  8
0
 10
117.371
 20
-21.0547
 11
117.573
 21
-20.7366
  0
LINE
  8
0
 10
117.573
 20
-20.7366
 11
117.813
 21
-20.4464
  0
LINE
  8
0
 10
117.813
 20
-20.4464
 11
118.088
 21
-20.1884
  0
LINE
  8
0
 10
118.088
 20
-20.1884
 11
118.393
 21
-19.967
  0
LINE
  8
0
 10
118.393
 20
-19.967
 11
118.723
 21
-19.7855
  0
LINE
  8
0
 10
118.723
 20
-19.7855
 11
119.073
 21
-19.6468
  0
LINE
  8
0
 10
119.073
 20
-19.6468
 11
119.438
 21
-19.5531
  0
LINE
  8
0
 10
119.438
 20
-19.5531
 11
119.812
 21
-19.5059
  0
LINE
  8
0
 10
119.812
 20
-19.5059
 11
120.188
 21
-19.5059
  0
LINE
  8
0
 10
120.188
 20
-19.5059
 11
120.562
 21
-19.5531
  0
LINE
  8
0
 10
120.562
 20
-19.5531
 11
120.927
 21
-19.6468
  0
LINE
  8
0
 10
120.927
 20
-19.6468
 11
121.277
 21
-19.7855
  0
LINE
  8
0
 10
121.277
 20
-19.7855
 11
121.607
 21
-19.967
  0
LINE
  8
0
 10
121.607
 20
-19.967
 11
121.912
 21
-20.1884
  0
LINE
  8
0
 10
121.912
 20
-20.1884
 11
122.187
 21
-20.4464
  0
LINE
  8
0
 10
122.187
 20
-20.4464
 11
122.427
 21
-20.7366
  0
LINE
  8
0
 10
122.427
 20
-20.7366
 11
122.629
 21
-21.0547
  0
LINE
  8
0
 10
122.629
 20
-21.0547
 11
122.789
 21
-21.3956
  0
LINE
  8
0
 10
122.789
 20
-21.3956
 11
122.906
 21
-21.7539
  0
LINE
  8
0
 10
122.906
 20
-21.7539
 11
122.976
 21
-22.124
  0
LINE
  8
0
 10
122.976
 20
-22.124
 11
123
 21
-22.5
  0
LINE
  8
0
 10
123
 20
-22.5
 11
122.976
 21
-22.876
  0
LINE
  8
0
 10
122.976
 20
-22.876
 11
122.906
 21
-23.2461
  0
LINE
  8
0
 10
122.906
 20
-23.2461
 11
122.789
 21
-23.6044
  0
LINE
  8
0
 10
122.789
 20
-23.6044
 11
122.629
 21
-23.9453
  0
LINE
  8
0
 10
122.629
 20
-23.9453
 11
122.427
 21
-24.2634
  0
LINE
  8
0
 10
122.427
 20
-24.2634
 11
122.187
 21
-24.5536
  0
LINE
  8
0
 10
122.187
 20
-24.5536
 11
121.912
 21
-24.8115
  0
LINE
  8
0
 10
121.912
 20
-24.8115
 11
121.607
 21
-25.033
  0
LINE
  8
0
 10
121.607
 20
-25.033
 11
121.277
 21
-25.2145
  0
LINE
  8
0
 10
121.277
 20
-25.2145
 11
120.927
 21
-25.3532
  0
LINE
  8
0
 10
120.927
 20
-25.3532
 11
120.562
 21
-25.4469
  0
LINE
  8
0
 10
120.562
 20
-25.4469
 11
120.188
 21
-25.4941
  0
LINE
  8
0
 10
120.188
 20
-25.4941
 11
119.812
 21
-25.4941
  0
ENDSEC
  0
SECTION
  2
OBJECTS
  0
DICTIONARY
  0
ENDSEC
  0
EOF
