<?xml version="1.0" standalone="no"?>
<!DOCTYPE svg PUBLIC "-//W3C//DTD SVG 1.1//EN" "http://www.w3.org/Graphics/SVG/1.1/DTD/svg11.dtd">
<svg width="134mm" height="30mm" viewBox="-67 -54 134 30" xmlns="http://www.w3.org/2000/svg" version="1.1">
<title>OpenSCAD Model</title>
<path d="
M 62.9369,-24.5886 L 63.5451,-24.7447 L 64.1289,-24.9759 L 64.6791,-25.2784 L 65.1871,-25.6474 L 65.6448,-26.0773
 L 66.0451,-26.5611 L 66.3815,-27.0912 L 66.6489,-27.6594 L 66.8429,-28.2566 L 66.9606,-28.8733 L 67,-29.5
 L 67,-48.5 L 66.9606,-49.1267 L 66.8429,-49.7434 L 66.6489,-50.3406 L 66.3815,-50.9088 L 66.0451,-51.4389
 L 65.6448,-51.9227 L 65.1871,-52.3526 L 64.6791,-52.7216 L 64.1289,-53.0241 L 63.5451,-53.2553 L 62.9369,-53.4114
 L 62.3139,-53.4901 L -62.3139,-53.4901 L -62.9369,-53.4114 L -63.5451,-53.2553 L -64.1289,-53.0241 L -64.6791,-52.7216
 L -65.1871,-52.3526 L -65.6448,-51.9227 L -66.0451,-51.4389 L -66.3815,-50.9088 L -66.6489,-50.3406 L -66.8429,-49.7434
 L -66.9606,-49.1267 L -67,-48.5 L -67,-29.5 L -66.9606,-28.8733 L -66.8429,-28.2566 L -66.6489,-27.6594
 L -66.3815,-27.0912 L -66.0451,-26.5611 L -65.6448,-26.0773 L -65.1871,-25.6474 L -64.6791,-25.2784 L -64.1289,-24.9759
 L -63.5451,-24.7447 L -62.9369,-24.5886 L -62.3139,-24.5099 L 62.3139,-24.5099 z
M 39.8093,-28.0217 L 38.4388,-28.1949 L 37.1008,-28.5384 L 35.8164,-29.0469 L 34.6059,-29.7124 L 33.4883,-30.5244
 L 32.4813,-31.47 L 31.6008,-32.5344 L 30.8606,-33.7007 L 30.2724,-34.9506 L 29.8456,-36.2644 L 29.5867,-37.6213
 L 29.5,-39 L 29.5867,-40.3787 L 29.8456,-41.7356 L 30.2724,-43.0494 L 30.8606,-44.2993 L 31.6008,-45.4656
 L 32.4813,-46.53 L 33.4883,-47.4756 L 34.6059,-48.2876 L 35.8164,-48.9531 L 37.1008,-49.4616 L 38.4388,-49.8051
 L 39.8093,-49.9783 L 41.1907,-49.9783 L 42.5612,-49.8051 L 43.8992,-49.4616 L 45.1836,-48.9531 L 46.3941,-48.2876
 L 47.5117,-47.4756 L 48.5186,-46.53 L 49.3992,-45.4656 L 50.1394,-44.2993 L 50.7275,-43.0494 L 51.1544,-41.7356
 L 51.4133,-40.3787 L 51.5,-39 L 51.4133,-37.6213 L 51.1544,-36.2644 L 50.7275,-34.9506 L 50.1394,-33.7007
 L 49.3992,-32.5344 L 48.5186,-31.47 L 47.5117,-30.5244 L 46.3941,-29.7124 L 45.1836,-29.0469 L 43.8992,-28.5384
 L 42.5612,-28.1949 L 41.1907,-28.0217 z
M -14.1907,-28.0217 L -15.5612,-28.1949 L -16.8992,-28.5384 L -18.1836,-29.0469 L -19.3941,-29.7124 L -20.5117,-30.5244
 L -21.5186,-31.47 L -22.3992,-32.5344 L -23.1394,-33.7007 L -23.7275,-34.9506 L -24.1544,-36.2644 L -24.4133,-37.6213
 L -24.5,-39 L -24.4133,-40.3787 L -24.1544,-41.7356 L -23.7275,-43.0494 L -23.1394,-44.2993 L -22.3992,-45.4656
 L -21.5186,-46.53 L -20.5117,-47.4756 L -19.3941,-48.2876 L -18.1836,-48.9531 L -16.8992,-49.4616 L -15.5612,-49.8051
 L -14.1907,-49.9783 L -12.8093,-49.9783 L -11.4388,-49.8051 L -10.1008,-49.4616 L -8.81642,-48.9531 L -7.6059,-48.2876
 L -6.48833,-47.4756 L -5.48134,-46.53 L -4.6008,-45.4656 L -3.86063,-44.2993 L -3.27245,-43.0494 L -2.84558,-41.7356
 L -2.58673,-40.3787 L -2.5,-39 L -2.58673,-37.6213 L -2.84558,-36.2644 L -3.27245,-34.9506 L -3.86063,-33.7007
 L -4.6008,-32.5344 L -5.48134,-31.47 L -6.48833,-30.5244 L -7.6059,-29.7124 L -8.81642,-29.0469 L -10.1008,-28.5384
 L -11.4388,-28.1949 L -12.8093,-28.0217 z
M -41.1907,-28.0217 L -42.5612,-28.1949 L -43.8992,-28.5384 L -45.1836,-29.0469 L -46.3941,-29.7124 L -47.5117,-30.5244
 L -48.5186,-31.47 L -49.3992,-32.5344 L -50.1394,-33.7007 L -50.7275,-34.9506 L -51.1544,-36.2644 L -51.4133,-37.6213
 L -51.5,-39 L -51.4133,-40.3787 L -51.1544,-41.7356 L -50.7275,-43.0494 L -50.1394,-44.2993 L -49.3992,-45.4656
 L -48.5186,-46.53 L -47.5117,-47.4756 L -46.3941,-48.2876 L -45.1836,-48.9531 L -43.8992,-49.4616 L -42.5612,-49.8051
 L -41.1907,-49.9783 L -39.8093,-49.9783 L -38.4388,-49.8051 L -37.1008,-49.4616 L -35.8164,-48.9531 L -34.6059,-48.2876
 L -33.4883,-47.4756 L -32.4813,-46.53 L -31.6008,-45.4656 L -30.8606,-44.2993 L -30.2724,-43.0494 L -29.8456,-41.7356
 L -29.5867,-40.3787 L -29.5,-39 L -29.5867,-37.6213 L -29.8456,-36.2644 L -30.2724,-34.9506 L -30.8606,-33.7007
 L -31.6008,-32.5344 L -32.4813,-31.47 L -33.4883,-30.5244 L -34.6059,-29.7124 L -35.8164,-29.0469 L -37.1008,-28.5384
 L -38.4388,-28.1949 L -39.8093,-28.0217 z
M 12.8093,-28.0217 L 11.4388,-28.1949 L 10.1008,-28.5384 L 8.81642,-29.0469 L 7.6059,-29.7124 L 6.48833,-30.5244
 L 5.48134,-31.47 L 4.6008,-32.5344 L 3.86063,-33.7007 L 3.27245,-34.9506 L 2.84558,-36.2644 L 2.58673,-37.6213
 L 2.5,-39 L 2.58673,-40.3787 L 2.84558,-41.7356 L 3.27245,-43.0494 L 3.86063,-44.2993 L 4.6008,-45.4656
 L 5.48134,-46.53 L 6.48833,-47.4756 L 7.6059,-48.2876 L 8.81642,-48.9531 L 10.1008,-49.4616 L 11.4388,-49.8051
 L 12.8093,-49.9783 L 14.1907,-49.9783 L 15.5612,-49.8051 L 16.8992,-49.4616 L 18.1836,-48.9531 L 19.3941,-48.2876
 L 20.5117,-47.4756 L 21.5186,-46.53 L 22.3992,-45.4656 L 23.1394,-44.2993 L 23.7275,-43.0494 L 24.1544,-41.7356
 L 24.4133,-40.3787 L 24.5,-39 L 24.4133,-37.6213 L 24.1544,-36.2644 L 23.7275,-34.9506 L 23.1394,-33.7007
 L 22.3992,-32.5344 L 21.5186,-31.47 L 20.5117,-30.5244 L 19.3941,-29.7124 L 18.1836,-29.0469 L 16.8992,-28.5384
 L 15.5612,-28.1949 L 14.1907,-28.0217 z
M -60.1884,-43.5059 L -60.5621,-43.5531 L -60.927,-43.6468 L -61.2773,-43.7855 L -61.6075,-43.967 L -61.9123,-44.1884
 L -62.1869,-44.4464 L -62.427,-44.7366 L -62.6289,-45.0547 L -62.7893,-45.3956 L -62.9057,-45.7539 L -62.9763,-46.124
 L -63,-46.5 L -62.9763,-46.876 L -62.9057,-47.2461 L -62.7893,-47.6044 L -62.6289,-47.9453 L -62.427,-48.2634
 L -62.1869,-48.5536 L -61.9123,-48.8115 L -61.6075,-49.033 L -61.2773,-49.2145 L -60.927,-49.3532 L -60.5621,-49.4469
 L -60.1884,-49.4941 L -59.8116,-49.4941 L -59.4379,-49.4469 L -59.0729,-49.3532 L -58.7227,-49.2145 L -58.3925,-49.033
 L -58.0877,-48.8115 L -57.8131,-48.5536 L -57.5729,-48.2634 L -57.3711,-47.9453 L -57.2107,-47.6044 L -57.0942,-47.2461
 L -57.0237,-46.876 L -57,-46.5 L -57.0237,-46.124 L -57.0942,-45.7539 L -57.2107,-45.3956 L -57.3711,-45.0547
 L -57.5729,-44.7366 L -57.8131,-44.4464 L -58.0877,-44.1884 L -58.3925,-43.967 L -58.7227,-43.7855 L -59.0729,-43.6468
 L -59.4379,-43.5531 L -59.8116,-43.5059 z
M 59.8116,-43.5059 L 59.4379,-43.5531 L 59.0729,-43.6468 L 58.7227,-43.7855 L 58.3925,-43.967 L 58.0877,-44.1884
 L 57.8131,-44.4464 L 57.5729,-44.7366 L 57.3711,-45.0547 L 57.2107,-45.3956 L 57.0942,-45.7539 L 57.0237,-46.124
 L 57,-46.5 L 57.0237,-46.876 L 57.0942,-47.2461 L 57.2107,-47.6044 L 57.3711,-47.9453 L 57.5729,-48.2634
 L 57.8131,-48.5536 L 58.0877,-48.8115 L 58.3925,-49.033 L 58.7227,-49.2145 L 59.0729,-49.3532 L 59.4379,-49.4469
 L 59.8116,-49.4941 L 60.1884,-49.4941 L 60.5621,-49.4469 L 60.927,-49.3532 L 61.2773,-49.2145 L 61.6075,-49.033
 L 61.9123,-48.8115 L 62.1869,-48.5536 L 62.427,-48.2634 L 62.6289,-47.9453 L 62.7893,-47.6044 L 62.9057,-47.2461
 L 62.9763,-46.876 L 63,-46.5 L 62.9763,-46.124 L 62.9057,-45.7539 L 62.7893,-45.3956 L 62.6289,-45.0547
 L 62.427,-44.7366 L 62.1869,-44.4464 L 61.9123,-44.1884 L 61.6075,-43.967 L 61.2773,-43.7855 L 60.927,-43.6468
 L 60.5621,-43.5531 L 60.1884,-43.5059 z
M -60.0942,-37.503 L -60.2811,-37.5266 L -60.4635,-37.5734 L -60.6387,-37.6428 L -60.8037,-37.7335 L -60.9561,-37.8442
 L -61.0934,-37.9732 L -61.2135,-38.1183 L -61.3145,-38.2774 L -61.3947,-38.4478 L -61.4529,-38.627 L -61.4882,-38.812
 L -61.5,-39 L -61.4882,-39.188 L -61.4529,-39.373 L -61.3947,-39.5522 L -61.3145,-39.7226 L -61.2135,-39.8817
 L -61.0934,-40.0268 L -60.9561,-40.1558 L -60.8037,-40.2665 L -60.6387,-40.3572 L -60.4635,-40.4266 L -60.2811,-40.4734
 L -60.0942,-40.497 L -59.9058,-40.497 L -59.7189,-40.4734 L -59.5365,-40.4266 L -59.3613,-40.3572 L -59.1963,-40.2665
 L -59.0439,-40.1558 L -58.9065,-40.0268 L -58.7865,-39.8817 L -58.6855,-39.7226 L -58.6053,-39.5522 L -58.5471,-39.373
 L -58.5118,-39.188 L -58.5,-39 L -58.5118,-38.812 L -58.5471,-38.627 L -58.6053,-38.4478 L -58.6855,-38.2774
 L -58.7865,-38.1183 L -58.9065,-37.9732 L -59.0439,-37.8442 L -59.1963,-37.7335 L -59.3613,-37.6428 L -59.5365,-37.5734
 L -59.7189,-37.5266 L -59.9058,-37.503 z
M 59.9058,-37.503 L 59.7189,-37.5266 L 59.5365,-37.5734 L 59.3613,-37.6428 L 59.1963,-37.7335 L 59.0439,-37.8442
 L 58.9065,-37.9732 L 58.7865,-38.1183 L 58.6855,-38.2774 L 58.6053,-38.4478 L 58.5471,-38.627 L 58.5118,-38.812
 L 58.5,-39 L 58.5118,-39.188 L 58.5471,-39.373 L 58.6053,-39.5522 L 58.6855,-39.7226 L 58.7865,-39.8817
 L 58.9065,-40.0268 L 59.0439,-40.1558 L 59.1963,-40.2665 L 59.3613,-40.3572 L 59.5365,-40.4266 L 59.7189,-40.4734
 L 59.9058,-40.497 L 60.0942,-40.497 L 60.2811,-40.4734 L 60.4635,-40.4266 L 60.6387,-40.3572 L 60.8037,-40.2665
 L 60.9561,-40.1558 L 61.0934,-40.0268 L 61.2135,-39.8817 L 61.3145,-39.7226 L 61.3947,-39.5522 L 61.4529,-39.373
 L 61.4882,-39.188 L 61.5,-39 L 61.4882,-38.812 L 61.4529,-38.627 L 61.3947,-38.4478 L 61.3145,-38.2774
 L 61.2135,-38.1183 L 61.0934,-37.9732 L 60.9561,-37.8442 L 60.8037,-37.7335 L 60.6387,-37.6428 L 60.4635,-37.5734
 L 60.2811,-37.5266 L 60.0942,-37.503 z
M 59.8116,-28.5059 L 59.4379,-28.5531 L 59.0729,-28.6468 L 58.7227,-28.7855 L 58.3925,-28.967 L 58.0877,-29.1885
 L 57.8131,-29.4464 L 57.5729,-29.7366 L 57.3711,-30.0547 L 57.2107,-30.3956 L 57.0942,-30.7539 L 57.0237,-31.124
 L 57,-31.5 L 57.0237,-31.876 L 57.0942,-32.2461 L 57.2107,-32.6044 L 57.3711,-32.9453 L 57.5729,-33.2634
 L 57.8131,-33.5536 L 58.0877,-33.8116 L 58.3925,-34.033 L 58.7227,-34.2145 L 59.0729,-34.3532 L 59.4379,-34.4469
 L 59.8116,-34.4941 L 60.1884,-34.4941 L 60.5621,-34.4469 L 60.927,-34.3532 L 61.2773,-34.2145 L 61.6075,-34.033
 L 61.9123,-33.8116 L 62.1869,-33.5536 L 62.427,-33.2634 L 62.6289,-32.9453 L 62.7893,-32.6044 L 62.9057,-32.2461
 L 62.9763,-31.876 L 63,-31.5 L 62.9763,-31.124 L 62.9057,-30.7539 L 62.7893,-30.3956 L 62.6289,-30.0547
 L 62.427,-29.7366 L 62.1869,-29.4464 L 61.9123,-29.1885 L 61.6075,-28.967 L 61.2773,-28.7855 L 60.927,-28.6468
 L 60.5621,-28.5531 L 60.1884,-28.5059 z
M -60.1884,-28.5059 L -60.5621,-28.5531 L -60.927,-28.6468 L -61.2773,-28.7855 L -61.6075,-28.967 L -61.9123,-29.1885
 L -62.1869,-29.4464 L -62.427,-29.7366 L -62.6289,-30.0547 L -62.7893,-30.3956 L -62.9057,-30.7539 L -62.9763,-31.124
 L -63,-31.5 L -62.9763,-31.876 L -62.9057,-32.2461 L -62.7893,-32.6044 L -62.6289,-32.9453 L -62.427,-33.2634
 L -62.1869,-33.5536 L -61.9123,-33.8116 L -61.6075,-34.033 L -61.2773,-34.2145 L -60.927,-34.3532 L -60.5621,-34.4469
 L -60.1884,-34.4941 L -59.8116,-34.4941 L -59.4379,-34.4469 L -59.0729,-34.3532 L -58.7227,-34.2145 L -58.3925,-34.033
 L -58.0877,-33.8116 L -57.8131,-33.5536 L -57.5729,-33.2634 L -57.3711,-32.9453 L -57.2107,-32.6044 L -57.0942,-32.2461
 L -57.0237,-31.876 L -57,-31.5 L -57.0237,-31.124 L -57.0942,-30.7539 L -57.2107,-30.3956 L -57.3711,-30.0547
 L -57.5729,-29.7366 L -57.8131,-29.4464 L -58.0877,-29.1885 L -58.3925,-28.967 L -58.7227,-28.7855 L -59.0729,-28.6468
 L -59.4379,-28.5531 L -59.8116,-28.5059 z
" stroke="black" fill="lightgray" stroke-width="0.5"/>
</svg>
