<?xml version="1.0" standalone="no"?>
<!DOCTYPE svg PUBLIC "-//W3C//DTD SVG 1.1//EN" "http://www.w3.org/Graphics/SVG/1.1/DTD/svg11.dtd">
<svg width="254mm" height="74mm" viewBox="-127 -37 254 74" xmlns="http://www.w3.org/2000/svg" version="1.1">
<title>OpenSCAD Model</title>
<path d="
M 122.937,36.9114 L 123.545,36.7553 L 124.129,36.5241 L 124.679,36.2216 L 125.187,35.8526 L 125.645,35.4227
 L 126.045,34.9389 L 126.382,34.4088 L 126.649,33.8406 L 126.843,33.2434 L 126.961,32.6267 L 127,32
 L 127,-32 L 126.961,-32.6267 L 126.843,-33.2434 L 126.649,-33.8406 L 126.382,-34.4088 L 126.045,-34.9389
 L 125.645,-35.4227 L 125.187,-35.8526 L 124.679,-36.2216 L 124.129,-36.5241 L 123.545,-36.7553 L 122.937,-36.9114
 L 122.314,-36.9901 L -122.314,-36.9901 L -122.937,-36.9114 L -123.545,-36.7553 L -124.129,-36.5241 L -124.679,-36.2216
 L -125.187,-35.8526 L -125.645,-35.4227 L -126.045,-34.9389 L -126.382,-34.4088 L -126.649,-33.8406 L -126.843,-33.2434
 L -126.961,-32.6267 L -127,-32 L -127,32 L -126.961,32.6267 L -126.843,33.2434 L -126.649,33.8406
 L -126.382,34.4088 L -126.045,34.9389 L -125.645,35.4227 L -125.187,35.8526 L -124.679,36.2216 L -124.129,36.5241
 L -123.545,36.7553 L -122.937,36.9114 L -122.314,36.9901 L 122.314,36.9901 z
M 119.812,-27.0059 L 119.438,-27.0531 L 119.073,-27.1468 L 118.723,-27.2855 L 118.393,-27.467 L 118.088,-27.6884
 L 117.813,-27.9464 L 117.573,-28.2366 L 117.371,-28.5547 L 117.211,-28.8956 L 117.094,-29.2539 L 117.024,-29.624
 L 117,-30 L 117.024,-30.376 L 117.094,-30.7461 L 117.211,-31.1044 L 117.371,-31.4453 L 117.573,-31.7634
 L 117.813,-32.0536 L 118.088,-32.3115 L 118.393,-32.533 L 118.723,-32.7145 L 119.073,-32.8532 L 119.438,-32.9469
 L 119.812,-32.9941 L 120.188,-32.9941 L 120.562,-32.9469 L 120.927,-32.8532 L 121.277,-32.7145 L 121.607,-32.533
 L 121.912,-32.3115 L 122.187,-32.0536 L 122.427,-31.7634 L 122.629,-31.4453 L 122.789,-31.1044 L 122.906,-30.7461
 L 122.976,-30.376 L 123,-30 L 122.976,-29.624 L 122.906,-29.2539 L 122.789,-28.8956 L 122.629,-28.5547
 L 122.427,-28.2366 L 122.187,-27.9464 L 121.912,-27.6884 L 121.607,-27.467 L 121.277,-27.2855 L 120.927,-27.1468
 L 120.562,-27.0531 L 120.188,-27.0059 z
M -120.188,-27.0059 L -120.562,-27.0531 L -120.927,-27.1468 L -121.277,-27.2855 L -121.607,-27.467 L -121.912,-27.6884
 L -122.187,-27.9464 L -122.427,-28.2366 L -122.629,-28.5547 L -122.789,-28.8956 L -122.906,-29.2539 L -122.976,-29.624
 L -123,-30 L -122.976,-30.376 L -122.906,-30.7461 L -122.789,-31.1044 L -122.629,-31.4453 L -122.427,-31.7634
 L -122.187,-32.0536 L -121.912,-32.3115 L -121.607,-32.533 L -121.277,-32.7145 L -120.927,-32.8532 L -120.562,-32.9469
 L -120.188,-32.9941 L -119.812,-32.9941 L -119.438,-32.9469 L -119.073,-32.8532 L -118.723,-32.7145 L -118.393,-32.533
 L -118.088,-32.3115 L -117.813,-32.0536 L -117.573,-31.7634 L -117.371,-31.4453 L -117.211,-31.1044 L -117.094,-30.7461
 L -117.024,-30.376 L -117,-30 L -117.024,-29.624 L -117.094,-29.2539 L -117.211,-28.8956 L -117.371,-28.5547
 L -117.573,-28.2366 L -117.813,-27.9464 L -118.088,-27.6884 L -118.393,-27.467 L -118.723,-27.2855 L -119.073,-27.1468
 L -119.438,-27.0531 L -119.812,-27.0059 z
M 92.6791,28.9428 L 89.0659,28.4863 L 85.5385,27.5806 L 82.1524,26.24 L 78.961,24.4855 L 76.0147,22.3449
 L 73.3599,19.8519 L 71.0385,17.0458 L 69.0871,13.9709 L 67.5365,10.6756 L 66.4111,7.21201 L 65.7287,3.63466
 L 65.5,-0 L 65.7287,-3.63466 L 66.4111,-7.21201 L 67.5365,-10.6756 L 69.0871,-13.9709 L 71.0385,-17.0458
 L 73.3599,-19.8519 L 76.0147,-22.3449 L 78.961,-24.4855 L 82.1524,-26.24 L 85.5385,-27.5806 L 89.0659,-28.4863
 L 92.6791,-28.9428 L 96.3209,-28.9428 L 99.9341,-28.4863 L 103.461,-27.5806 L 106.848,-26.24 L 110.039,-24.4855
 L 112.985,-22.3449 L 115.64,-19.8519 L 117.961,-17.0458 L 119.913,-13.9709 L 121.464,-10.6756 L 122.589,-7.21201
 L 123.271,-3.63466 L 123.5,-0 L 123.271,3.63466 L 122.589,7.21201 L 121.464,10.6756 L 119.913,13.9709
 L 117.961,17.0458 L 115.64,19.8519 L 112.985,22.3449 L 110.039,24.4855 L 106.848,26.24 L 103.461,27.5806
 L 99.9341,28.4863 L 96.3209,28.9428 z
M 29.6791,28.9428 L 26.0659,28.4863 L 22.5385,27.5806 L 19.1524,26.24 L 15.961,24.4855 L 13.0147,22.3449
 L 10.3599,19.8519 L 8.0385,17.0458 L 6.0871,13.9709 L 4.53647,10.6756 L 3.41109,7.21201 L 2.72867,3.63466
 L 2.5,-0 L 2.72867,-3.63466 L 3.41109,-7.21201 L 4.53647,-10.6756 L 6.0871,-13.9709 L 8.0385,-17.0458
 L 10.3599,-19.8519 L 13.0147,-22.3449 L 15.961,-24.4855 L 19.1524,-26.24 L 22.5385,-27.5806 L 26.0659,-28.4863
 L 29.6791,-28.9428 L 33.3209,-28.9428 L 36.9341,-28.4863 L 40.4615,-27.5806 L 43.8476,-26.24 L 47.039,-24.4855
 L 49.9853,-22.3449 L 52.6401,-19.8519 L 54.9615,-17.0458 L 56.9129,-13.9709 L 58.4635,-10.6756 L 59.5889,-7.21201
 L 60.2713,-3.63466 L 60.5,-0 L 60.2713,3.63466 L 59.5889,7.21201 L 58.4635,10.6756 L 56.9129,13.9709
 L 54.9615,17.0458 L 52.6401,19.8519 L 49.9853,22.3449 L 47.039,24.4855 L 43.8476,26.24 L 40.4615,27.5806
 L 36.9341,28.4863 L 33.3209,28.9428 z
M -96.3209,28.9428 L -99.9341,28.4863 L -103.461,27.5806 L -106.848,26.24 L -110.039,24.4855 L -112.985,22.3449
 L -115.64,19.8519 L -117.961,17.0458 L -119.913,13.9709 L -121.464,10.6756 L -122.589,7.21201 L -123.271,3.63466
 L -123.5,-0 L -123.271,-3.63466 L -122.589,-7.21201 L -121.464,-10.6756 L -119.913,-13.9709 L -117.961,-17.0458
 L -115.64,-19.8519 L -112.985,-22.3449 L -110.039,-24.4855 L -106.848,-26.24 L -103.461,-27.5806 L -99.9341,-28.4863
 L -96.3209,-28.9428 L -92.6791,-28.9428 L -89.0659,-28.4863 L -85.5385,-27.5806 L -82.1524,-26.24 L -78.961,-24.4855
 L -76.0147,-22.3449 L -73.3599,-19.8519 L -71.0385,-17.0458 L -69.0871,-13.9709 L -67.5365,-10.6756 L -66.4111,-7.21201
 L -65.7287,-3.63466 L -65.5,-0 L -65.7287,3.63466 L -66.4111,7.21201 L -67.5365,10.6756 L -69.0871,13.9709
 L -71.0385,17.0458 L -73.3599,19.8519 L -76.0147,22.3449 L -78.961,24.4855 L -82.1524,26.24 L -85.5385,27.5806
 L -89.0659,28.4863 L -92.6791,28.9428 z
M -33.3209,28.9428 L -36.9341,28.4863 L -40.4615,27.5806 L -43.8476,26.24 L -47.039,24.4855 L -49.9853,22.3449
 L -52.6401,19.8519 L -54.9615,17.0458 L -56.9129,13.9709 L -58.4635,10.6756 L -59.5889,7.21201 L -60.2713,3.63466
 L -60.5,-0 L -60.2713,-3.63466 L -59.5889,-7.21201 L -58.4635,-10.6756 L -56.9129,-13.9709 L -54.9615,-17.0458
 L -52.6401,-19.8519 L -49.9853,-22.3449 L -47.039,-24.4855 L -43.8476,-26.24 L -40.4615,-27.5806 L -36.9341,-28.4863
 L -33.3209,-28.9428 L -29.6791,-28.9428 L -26.0659,-28.4863 L -22.5385,-27.5806 L -19.1524,-26.24 L -15.961,-24.4855
 L -13.0147,-22.3449 L -10.3599,-19.8519 L -8.0385,-17.0458 L -6.0871,-13.9709 L -4.53647,-10.6756 L -3.41109,-7.21201
 L -2.72867,-3.63466 L -2.5,-0 L -2.72867,3.63466 L -3.41109,7.21201 L -4.53647,10.6756 L -6.0871,13.9709
 L -8.0385,17.0458 L -10.3599,19.8519 L -13.0147,22.3449 L -15.961,24.4855 L -19.1524,26.24 L -22.5385,27.5806
 L -26.0659,28.4863 L -29.6791,28.9428 z
M -120.188,32.9941 L -120.562,32.9469 L -120.927,32.8532 L -121.277,32.7145 L -121.607,32.533 L -121.912,32.3115
 L -122.187,32.0536 L -122.427,31.7634 L -122.629,31.4453 L -122.789,31.1044 L -122.906,30.7461 L -122.976,30.376
 L -123,30 L -122.976,29.624 L -122.906,29.2539 L -122.789,28.8956 L -122.629,28.5547 L -122.427,28.2366
 L -122.187,27.9464 L -121.912,27.6884 L -121.607,27.467 L -121.277,27.2855 L -120.927,27.1468 L -120.562,27.0531
 L -120.188,27.0059 L -119.812,27.0059 L -119.438,27.0531 L -119.073,27.1468 L -118.723,27.2855 L -118.393,27.467
 L -118.088,27.6884 L -117.813,27.9464 L -117.573,28.2366 L -117.371,28.5547 L -117.211,28.8956 L -117.094,29.2539
 L -117.024,29.624 L -117,30 L -117.024,30.376 L -117.094,30.7461 L -117.211,31.1044 L -117.371,31.4453
 L -117.573,31.7634 L -117.813,32.0536 L -118.088,32.3115 L -118.393,32.533 L -118.723,32.7145 L -119.073,32.8532
 L -119.438,32.9469 L -119.812,32.9941 z
M 119.812,32.9941 L 119.438,32.9469 L 119.073,32.8532 L 118.723,32.7145 L 118.393,32.533 L 118.088,32.3115
 L 117.813,32.0536 L 117.573,31.7634 L 117.371,31.4453 L 117.211,31.1044 L 117.094,30.7461 L 117.024,30.376
 L 117,30 L 117.024,29.624 L 117.094,29.2539 L 117.211,28.8956 L 117.371,28.5547 L 117.573,28.2366
 L 117.813,27.9464 L 118.088,27.6884 L 118.393,27.467 L 118.723,27.2855 L 119.073,27.1468 L 119.438,27.0531
 L 119.812,27.0059 L 120.188,27.0059 L 120.562,27.0531 L 120.927,27.1468 L 121.277,27.2855 L 121.607,27.467
 L 121.912,27.6884 L 122.187,27.9464 L 122.427,28.2366 L 122.629,28.5547 L 122.789,28.8956 L 122.906,29.2539
 L 122.976,29.624 L 123,30 L 122.976,30.376 L 122.906,30.7461 L 122.789,31.1044 L 122.629,31.4453
 L 122.427,31.7634 L 122.187,32.0536 L 121.912,32.3115 L 121.607,32.533 L 121.277,32.7145 L 120.927,32.8532
 L 120.562,32.9469 L 120.188,32.9941 z
" stroke="black" fill="lightgray" stroke-width="0.5"/>
</svg>
