<?xml version="1.0" standalone="no"?>
<!DOCTYPE svg PUBLIC "-//W3C//DTD SVG 1.1//EN" "http://www.w3.org/Graphics/SVG/1.1/DTD/svg11.dtd">
<svg width="90mm" height="44mm" viewBox="-45 -76 90 44" xmlns="http://www.w3.org/2000/svg" version="1.1">
<title>OpenSCAD Model</title>
<path d="
M 40.4369,-32.0886 L 41.0451,-32.2447 L 41.6289,-32.4759 L 42.1791,-32.7784 L 42.6871,-33.1474 L 43.1448,-33.5773
 L 43.5451,-34.0611 L 43.8815,-34.5912 L 44.1489,-35.1594 L 44.3429,-35.7566 L 44.4606,-36.3733 L 44.5,-37
 L 44.5,-71 L 44.4606,-71.6267 L 44.3429,-72.2434 L 44.1489,-72.8406 L 43.8815,-73.4088 L 43.5451,-73.9389
 L 43.1448,-74.4227 L 42.6871,-74.8526 L 42.1791,-75.2216 L 41.6289,-75.5241 L 41.0451,-75.7553 L 40.4369,-75.9114
 L 39.8139,-75.9901 L -39.8139,-75.9901 L -40.4369,-75.9114 L -41.0451,-75.7553 L -41.6289,-75.5241 L -42.1791,-75.2216
 L -42.6871,-74.8526 L -43.1448,-74.4227 L -43.5451,-73.9389 L -43.8815,-73.4088 L -44.1489,-72.8406 L -44.3429,-72.2434
 L -44.4606,-71.6267 L -44.5,-71 L -44.5,-37 L -44.4606,-36.3733 L -44.3429,-35.7566 L -44.1489,-35.1594
 L -43.8815,-34.5912 L -43.5451,-34.0611 L -43.1448,-33.5773 L -42.6871,-33.1474 L -42.1791,-32.7784 L -41.6289,-32.4759
 L -41.0451,-32.2447 L -40.4369,-32.0886 L -39.8139,-32.0099 L 39.8139,-32.0099 z
M -37.6884,-66.0059 L -38.0621,-66.0531 L -38.427,-66.1468 L -38.7773,-66.2855 L -39.1075,-66.467 L -39.4123,-66.6884
 L -39.6869,-66.9464 L -39.927,-67.2366 L -40.1289,-67.5547 L -40.2893,-67.8956 L -40.4057,-68.2539 L -40.4763,-68.624
 L -40.5,-69 L -40.4763,-69.376 L -40.4057,-69.7461 L -40.2893,-70.1044 L -40.1289,-70.4453 L -39.927,-70.7634
 L -39.6869,-71.0536 L -39.4123,-71.3115 L -39.1075,-71.533 L -38.7773,-71.7145 L -38.427,-71.8532 L -38.0621,-71.9469
 L -37.6884,-71.9941 L -37.3116,-71.9941 L -36.9379,-71.9469 L -36.5729,-71.8532 L -36.2227,-71.7145 L -35.8925,-71.533
 L -35.5877,-71.3115 L -35.3131,-71.0536 L -35.0729,-70.7634 L -34.8711,-70.4453 L -34.7107,-70.1044 L -34.5942,-69.7461
 L -34.5237,-69.376 L -34.5,-69 L -34.5237,-68.624 L -34.5942,-68.2539 L -34.7107,-67.8956 L -34.8711,-67.5547
 L -35.0729,-67.2366 L -35.3131,-66.9464 L -35.5877,-66.6884 L -35.8925,-66.467 L -36.2227,-66.2855 L -36.5729,-66.1468
 L -36.9379,-66.0531 L -37.3116,-66.0059 z
M 37.3116,-66.0059 L 36.9379,-66.0531 L 36.5729,-66.1468 L 36.2227,-66.2855 L 35.8925,-66.467 L 35.5877,-66.6884
 L 35.3131,-66.9464 L 35.0729,-67.2366 L 34.8711,-67.5547 L 34.7107,-67.8956 L 34.5942,-68.2539 L 34.5237,-68.624
 L 34.5,-69 L 34.5237,-69.376 L 34.5942,-69.7461 L 34.7107,-70.1044 L 34.8711,-70.4453 L 35.0729,-70.7634
 L 35.3131,-71.0536 L 35.5877,-71.3115 L 35.8925,-71.533 L 36.2227,-71.7145 L 36.5729,-71.8532 L 36.9379,-71.9469
 L 37.3116,-71.9941 L 37.6884,-71.9941 L 38.0621,-71.9469 L 38.427,-71.8532 L 38.7773,-71.7145 L 39.1075,-71.533
 L 39.4123,-71.3115 L 39.6869,-71.0536 L 39.927,-70.7634 L 40.1289,-70.4453 L 40.2893,-70.1044 L 40.4057,-69.7461
 L 40.4763,-69.376 L 40.5,-69 L 40.4763,-68.624 L 40.4057,-68.2539 L 40.2893,-67.8956 L 40.1289,-67.5547
 L 39.927,-67.2366 L 39.6869,-66.9464 L 39.4123,-66.6884 L 39.1075,-66.467 L 38.7773,-66.2855 L 38.427,-66.1468
 L 38.0621,-66.0531 L 37.6884,-66.0059 z
M 17.4953,-38.0316 L 15.5019,-38.2834 L 13.5557,-38.7831 L 11.6875,-39.5228 L 9.92676,-40.4908 L 8.30121,-41.6718
 L 6.83649,-43.0473 L 5.55573,-44.5954 L 4.47908,-46.2919 L 3.62357,-48.11 L 3.00266,-50.021 L 2.62616,-51.9947
 L 2.5,-54 L 2.62616,-56.0053 L 3.00266,-57.979 L 3.62357,-59.89 L 4.47908,-61.7081 L 5.55573,-63.4046
 L 6.83649,-64.9527 L 8.30121,-66.3282 L 9.92676,-67.5092 L 11.6875,-68.4772 L 13.5557,-69.2169 L 15.5019,-69.7166
 L 17.4953,-69.9684 L 19.5046,-69.9684 L 21.4981,-69.7166 L 23.4443,-69.2169 L 25.3125,-68.4772 L 27.0732,-67.5092
 L 28.6988,-66.3282 L 30.1635,-64.9527 L 31.4443,-63.4046 L 32.5209,-61.7081 L 33.3764,-59.89 L 33.9973,-57.979
 L 34.3738,-56.0053 L 34.5,-54 L 34.3738,-51.9947 L 33.9973,-50.021 L 33.3764,-48.11 L 32.5209,-46.2919
 L 31.4443,-44.5954 L 30.1635,-43.0473 L 28.6988,-41.6718 L 27.0732,-40.4908 L 25.3125,-39.5228 L 23.4443,-38.7831
 L 21.4981,-38.2834 L 19.5046,-38.0316 z
M -19.5046,-38.0316 L -21.4981,-38.2834 L -23.4443,-38.7831 L -25.3125,-39.5228 L -27.0732,-40.4908 L -28.6988,-41.6718
 L -30.1635,-43.0473 L -31.4443,-44.5954 L -32.5209,-46.2919 L -33.3764,-48.11 L -33.9973,-50.021 L -34.3738,-51.9947
 L -34.5,-54 L -34.3738,-56.0053 L -33.9973,-57.979 L -33.3764,-59.89 L -32.5209,-61.7081 L -31.4443,-63.4046
 L -30.1635,-64.9527 L -28.6988,-66.3282 L -27.0732,-67.5092 L -25.3125,-68.4772 L -23.4443,-69.2169 L -21.4981,-69.7166
 L -19.5046,-69.9684 L -17.4953,-69.9684 L -15.5019,-69.7166 L -13.5557,-69.2169 L -11.6875,-68.4772 L -9.92676,-67.5092
 L -8.30121,-66.3282 L -6.83649,-64.9527 L -5.55573,-63.4046 L -4.47908,-61.7081 L -3.62357,-59.89 L -3.00266,-57.979
 L -2.62616,-56.0053 L -2.5,-54 L -2.62616,-51.9947 L -3.00266,-50.021 L -3.62357,-48.11 L -4.47908,-46.2919
 L -5.55573,-44.5954 L -6.83649,-43.0473 L -8.30121,-41.6718 L -9.92676,-40.4908 L -11.6875,-39.5228 L -13.5557,-38.7831
 L -15.5019,-38.2834 L -17.4953,-38.0316 z
M 37.3116,-36.0059 L 36.9379,-36.0531 L 36.5729,-36.1468 L 36.2227,-36.2855 L 35.8925,-36.467 L 35.5877,-36.6885
 L 35.3131,-36.9464 L 35.0729,-37.2366 L 34.8711,-37.5547 L 34.7107,-37.8956 L 34.5942,-38.2539 L 34.5237,-38.624
 L 34.5,-39 L 34.5237,-39.376 L 34.5942,-39.7461 L 34.7107,-40.1044 L 34.8711,-40.4453 L 35.0729,-40.7634
 L 35.3131,-41.0536 L 35.5877,-41.3116 L 35.8925,-41.533 L 36.2227,-41.7145 L 36.5729,-41.8532 L 36.9379,-41.9469
 L 37.3116,-41.9941 L 37.6884,-41.9941 L 38.0621,-41.9469 L 38.427,-41.8532 L 38.7773,-41.7145 L 39.1075,-41.533
 L 39.4123,-41.3116 L 39.6869,-41.0536 L 39.927,-40.7634 L 40.1289,-40.4453 L 40.2893,-40.1044 L 40.4057,-39.7461
 L 40.4763,-39.376 L 40.5,-39 L 40.4763,-38.624 L 40.4057,-38.2539 L 40.2893,-37.8956 L 40.1289,-37.5547
 L 39.927,-37.2366 L 39.6869,-36.9464 L 39.4123,-36.6885 L 39.1075,-36.467 L 38.7773,-36.2855 L 38.427,-36.1468
 L 38.0621,-36.0531 L 37.6884,-36.0059 z
M -37.6884,-36.0059 L -38.0621,-36.0531 L -38.427,-36.1468 L -38.7773,-36.2855 L -39.1075,-36.467 L -39.4123,-36.6885
 L -39.6869,-36.9464 L -39.927,-37.2366 L -40.1289,-37.5547 L -40.2893,-37.8956 L -40.4057,-38.2539 L -40.4763,-38.624
 L -40.5,-39 L -40.4763,-39.376 L -40.4057,-39.7461 L -40.2893,-40.1044 L -40.1289,-40.4453 L -39.927,-40.7634
 L -39.6869,-41.0536 L -39.4123,-41.3116 L -39.1075,-41.533 L -38.7773,-41.7145 L -38.427,-41.8532 L -38.0621,-41.9469
 L -37.6884,-41.9941 L -37.3116,-41.9941 L -36.9379,-41.9469 L -36.5729,-41.8532 L -36.2227,-41.7145 L -35.8925,-41.533
 L -35.5877,-41.3116 L -35.3131,-41.0536 L -35.0729,-40.7634 L -34.8711,-40.4453 L -34.7107,-40.1044 L -34.5942,-39.7461
 L -34.5237,-39.376 L -34.5,-39 L -34.5237,-38.624 L -34.5942,-38.2539 L -34.7107,-37.8956 L -34.8711,-37.5547
 L -35.0729,-37.2366 L -35.3131,-36.9464 L -35.5877,-36.6885 L -35.8925,-36.467 L -36.2227,-36.2855 L -36.5729,-36.1468
 L -36.9379,-36.0531 L -37.3116,-36.0059 z
" stroke="black" fill="lightgray" stroke-width="0.5"/>
</svg>
