  0
SECTION
  2
BLOCKS
  0
ENDSEC
  0
SECTION
  2
ENTITIES
  0
LINE
  8
0
 10
130.437
 20
-66.9114
 11
131.045
 21
-66.7553
  0
LINE
  8
0
 10
131.045
 20
-66.7553
 11
131.629
 21
-66.5241
  0
LINE
  8
0
 10
131.629
 20
-66.5241
 11
132.179
 21
-66.2216
  0
LINE
  8
0
 10
132.179
 20
-66.2216
 11
132.687
 21
-65.8526
  0
LINE
  8
0
 10
132.687
 20
-65.8526
 11
133.145
 21
-65.4227
  0
LINE
  8
0
 10
133.145
 20
-65.4227
 11
133.545
 21
-64.9389
  0
LINE
  8
0
 10
133.545
 20
-64.9389
 11
133.882
 21
-64.4088
  0
LINE
  8
0
 10
133.882
 20
-64.4088
 11
134.149
 21
-63.8406
  0
LINE
  8
0
 10
134.149
 20
-63.8406
 11
134.343
 21
-63.2434
  0
LINE
  8
0
 10
134.343
 20
-63.2434
 11
134.461
 21
-62.6267
  0
LINE
  8
0
 10
134.461
 20
-62.6267
 11
134.5
 21
-62
  0
LINE
  8
0
 10
134.5
 20
-62
 11
134.5
 21
62
  0
LINE
  8
0
 10
134.5
 20
62
 11
134.461
 21
62.6267
  0
LINE
  8
0
 10
134.461
 20
62.6267
 11
134.343
 21
63.2434
  0
LINE
  8
0
 10
134.343
 20
63.2434
 11
134.149
 21
63.8406
  0
LINE
  8
0
 10
134.149
 20
63.8406
 11
133.882
 21
64.4088
  0
LINE
  8
0
 10
133.882
 20
64.4088
 11
133.545
 21
64.9389
  0
LINE
  8
0
 10
133.545
 20
64.9389
 11
133.145
 21
65.4227
  0
LINE
  8
0
 10
133.145
 20
65.4227
 11
132.687
 21
65.8526
  0
LINE
  8
0
 10
132.687
 20
65.8526
 11
132.179
 21
66.2216
  0
LINE
  8
0
 10
132.179
 20
66.2216
 11
131.629
 21
66.5241
  0
LINE
  8
0
 10
131.629
 20
66.5241
 11
131.045
 21
66.7553
  0
LINE
  8
0
 10
131.045
 20
66.7553
 11
130.437
 21
66.9114
  0
LINE
  8
0
 10
130.437
 20
66.9114
 11
129.814
 21
66.9901
  0
LINE
  8
0
 10
129.814
 20
66.9901
 11
-129.814
 21
66.9901
  0
LINE
  8
0
 10
-129.814
 20
66.9901
 11
-130.437
 21
66.9114
  0
LINE
  8
0
 10
-130.437
 20
66.9114
 11
-131.045
 21
66.7553
  0
LINE
  8
0
 10
-131.045
 20
66.7553
 11
-131.629
 21
66.5241
  0
LINE
  8
0
 10
-131.629
 20
66.5241
 11
-132.179
 21
66.2216
  0
LINE
  8
0
 10
-132.179
 20
66.2216
 11
-132.687
 21
65.8526
  0
LINE
  8
0
 10
-132.687
 20
65.8526
 11
-133.145
 21
65.4227
  0
LINE
  8
0
 10
-133.145
 20
65.4227
 11
-133.545
 21
64.9389
  0
LINE
  8
0
 10
-133.545
 20
64.9389
 11
-133.882
 21
64.4088
  0
LINE
  8
0
 10
-133.882
 20
64.4088
 11
-134.149
 21
63.8406
  0
LINE
  8
0
 10
-134.149
 20
63.8406
 11
-134.343
 21
63.2434
  0
LINE
  8
0
 10
-134.343
 20
63.2434
 11
-134.461
 21
62.6267
  0
LINE
  8
0
 10
-134.461
 20
62.6267
 11
-134.5
 21
62
  0
LINE
  8
0
 10
-134.5
 20
62
 11
-134.5
 21
-62
  0
LINE
  8
0
 10
-134.5
 20
-62
 11
-134.461
 21
-62.6267
  0
LINE
  8
0
 10
-134.461
 20
-62.6267
 11
-134.343
 21
-63.2434
  0
LINE
  8
0
 10
-134.343
 20
-63.2434
 11
-134.149
 21
-63.8406
  0
LINE
  8
0
 10
-134.149
 20
-63.8406
 11
-133.882
 21
-64.4088
  0
LINE
  8
0
 10
-133.882
 20
-64.4088
 11
-133.545
 21
-64.9389
  0
LINE
  8
0
 10
-133.545
 20
-64.9389
 11
-133.145
 21
-65.4227
  0
LINE
  8
0
 10
-133.145
 20
-65.4227
 11
-132.687
 21
-65.8526
  0
LINE
  8
0
 10
-132.687
 20
-65.8526
 11
-132.179
 21
-66.2216
  0
LINE
  8
0
 10
-132.179
 20
-66.2216
 11
-131.629
 21
-66.5241
  0
LINE
  8
0
 10
-131.629
 20
-66.5241
 11
-131.045
 21
-66.7553
  0
LINE
  8
0
 10
-131.045
 20
-66.7553
 11
-130.437
 21
-66.9114
  0
LINE
  8
0
 10
-130.437
 20
-66.9114
 11
-129.814
 21
-66.9901
  0
LINE
  8
0
 10
-129.814
 20
-66.9901
 11
129.814
 21
-66.9901
  0
LINE
  8
0
 10
129.814
 20
-66.9901
 11
130.437
 21
-66.9114
  0
LINE
  8
0
 10
-127.688
 20
57.0059
 11
-128.062
 21
57.0531
  0
LINE
  8
0
 10
-128.062
 20
57.0531
 11
-128.427
 21
57.1468
  0
LINE
  8
0
 10
-128.427
 20
57.1468
 11
-128.777
 21
57.2855
  0
LINE
  8
0
 10
-128.777
 20
57.2855
 11
-129.107
 21
57.467
  0
LINE
  8
0
 10
-129.107
 20
57.467
 11
-129.412
 21
57.6885
  0
LINE
  8
0
 10
-129.412
 20
57.6885
 11
-129.687
 21
57.9464
  0
LINE
  8
0
 10
-129.687
 20
57.9464
 11
-129.927
 21
58.2366
  0
LINE
  8
0
 10
-129.927
 20
58.2366
 11
-130.129
 21
58.5547
  0
LINE
  8
0
 10
-130.129
 20
58.5547
 11
-130.289
 21
58.8956
  0
LINE
  8
0
 10
-130.289
 20
58.8956
 11
-130.406
 21
59.2539
  0
LINE
  8
0
 10
-130.406
 20
59.2539
 11
-130.476
 21
59.624
  0
LINE
  8
0
 10
-130.476
 20
59.624
 11
-130.5
 21
60
  0
LINE
  8
0
 10
-130.5
 20
60
 11
-130.476
 21
60.376
  0
LINE
  8
0
 10
-130.476
 20
60.376
 11
-130.406
 21
60.7461
  0
LINE
  8
0
 10
-130.406
 20
60.7461
 11
-130.289
 21
61.1044
  0
LINE
  8
0
 10
-130.289
 20
61.1044
 11
-130.129
 21
61.4453
  0
LINE
  8
0
 10
-130.129
 20
61.4453
 11
-129.927
 21
61.7634
  0
LINE
  8
0
 10
-129.927
 20
61.7634
 11
-129.687
 21
62.0536
  0
LINE
  8
0
 10
-129.687
 20
62.0536
 11
-129.412
 21
62.3115
  0
LINE
  8
0
 10
-129.412
 20
62.3115
 11
-129.107
 21
62.533
  0
LINE
  8
0
 10
-129.107
 20
62.533
 11
-128.777
 21
62.7145
  0
LINE
  8
0
 10
-128.777
 20
62.7145
 11
-128.427
 21
62.8532
  0
LINE
  8
0
 10
-128.427
 20
62.8532
 11
-128.062
 21
62.9469
  0
LINE
  8
0
 10
-128.062
 20
62.9469
 11
-127.688
 21
62.9941
  0
LINE
  8
0
 10
-127.688
 20
62.9941
 11
-127.312
 21
62.9941
  0
LINE
  8
0
 10
-127.312
 20
62.9941
 11
-126.938
 21
62.9469
  0
LINE
  8
0
 10
-126.938
 20
62.9469
 11
-126.573
 21
62.8532
  0
LINE
  8
0
 10
-126.573
 20
62.8532
 11
-126.223
 21
62.7145
  0
LINE
  8
0
 10
-126.223
 20
62.7145
 11
-125.893
 21
62.533
  0
LINE
  8
0
 10
-125.893
 20
62.533
 11
-125.588
 21
62.3115
  0
LINE
  8
0
 10
-125.588
 20
62.3115
 11
-125.313
 21
62.0536
  0
LINE
  8
0
 10
-125.313
 20
62.0536
 11
-125.073
 21
61.7634
  0
LINE
  8
0
 10
-125.073
 20
61.7634
 11
-124.871
 21
61.4453
  0
LINE
  8
0
 10
-124.871
 20
61.4453
 11
-124.711
 21
61.1044
  0
LINE
  8
0
 10
-124.711
 20
61.1044
 11
-124.594
 21
60.7461
  0
LINE
  8
0
 10
-124.594
 20
60.7461
 11
-124.524
 21
60.376
  0
LINE
  8
0
 10
-124.524
 20
60.376
 11
-124.5
 21
60
  0
LINE
  8
0
 10
-124.5
 20
60
 11
-124.524
 21
59.624
  0
LINE
  8
0
 10
-124.524
 20
59.624
 11
-124.594
 21
59.2539
  0
LINE
  8
0
 10
-124.594
 20
59.2539
 11
-124.711
 21
58.8956
  0
LINE
  8
0
 10
-124.711
 20
58.8956
 11
-124.871
 21
58.5547
  0
LINE
  8
0
 10
-124.871
 20
58.5547
 11
-125.073
 21
58.2366
  0
LINE
  8
0
 10
-125.073
 20
58.2366
 11
-125.313
 21
57.9464
  0
LINE
  8
0
 10
-125.313
 20
57.9464
 11
-125.588
 21
57.6885
  0
LINE
  8
0
 10
-125.588
 20
57.6885
 11
-125.893
 21
57.467
  0
LINE
  8
0
 10
-125.893
 20
57.467
 11
-126.223
 21
57.2855
  0
LINE
  8
0
 10
-126.223
 20
57.2855
 11
-126.573
 21
57.1468
  0
LINE
  8
0
 10
-126.573
 20
57.1468
 11
-126.938
 21
57.0531
  0
LINE
  8
0
 10
-126.938
 20
57.0531
 11
-127.312
 21
57.0059
  0
LINE
  8
0
 10
-127.312
 20
57.0059
 11
-127.688
 21
57.0059
  0
LINE
  8
0
 10
127.312
 20
57.0059
 11
126.938
 21
57.0531
  0
LINE
  8
0
 10
126.938
 20
57.0531
 11
126.573
 21
57.1468
  0
LINE
  8
0
 10
126.573
 20
57.1468
 11
126.223
 21
57.2855
  0
LINE
  8
0
 10
126.223
 20
57.2855
 11
125.893
 21
57.467
  0
LINE
  8
0
 10
125.893
 20
57.467
 11
125.588
 21
57.6885
  0
LINE
  8
0
 10
125.588
 20
57.6885
 11
125.313
 21
57.9464
  0
LINE
  8
0
 10
125.313
 20
57.9464
 11
125.073
 21
58.2366
  0
LINE
  8
0
 10
125.073
 20
58.2366
 11
124.871
 21
58.5547
  0
LINE
  8
0
 10
124.871
 20
58.5547
 11
124.711
 21
58.8956
  0
LINE
  8
0
 10
124.711
 20
58.8956
 11
124.594
 21
59.2539
  0
LINE
  8
0
 10
124.594
 20
59.2539
 11
124.524
 21
59.624
  0
LINE
  8
0
 10
124.524
 20
59.624
 11
124.5
 21
60
  0
LINE
  8
0
 10
124.5
 20
60
 11
124.524
 21
60.376
  0
LINE
  8
0
 10
124.524
 20
60.376
 11
124.594
 21
60.7461
  0
LINE
  8
0
 10
124.594
 20
60.7461
 11
124.711
 21
61.1044
  0
LINE
  8
0
 10
124.711
 20
61.1044
 11
124.871
 21
61.4453
  0
LINE
  8
0
 10
124.871
 20
61.4453
 11
125.073
 21
61.7634
  0
LINE
  8
0
 10
125.073
 20
61.7634
 11
125.313
 21
62.0536
  0
LINE
  8
0
 10
125.313
 20
62.0536
 11
125.588
 21
62.3115
  0
LINE
  8
0
 10
125.588
 20
62.3115
 11
125.893
 21
62.533
  0
LINE
  8
0
 10
125.893
 20
62.533
 11
126.223
 21
62.7145
  0
LINE
  8
0
 10
126.223
 20
62.7145
 11
126.573
 21
62.8532
  0
LINE
  8
0
 10
126.573
 20
62.8532
 11
126.938
 21
62.9469
  0
LINE
  8
0
 10
126.938
 20
62.9469
 11
127.312
 21
62.9941
  0
LINE
  8
0
 10
127.312
 20
62.9941
 11
127.688
 21
62.9941
  0
LINE
  8
0
 10
127.688
 20
62.9941
 11
128.062
 21
62.9469
  0
LINE
  8
0
 10
128.062
 20
62.9469
 11
128.427
 21
62.8532
  0
LINE
  8
0
 10
128.427
 20
62.8532
 11
128.777
 21
62.7145
  0
LINE
  8
0
 10
128.777
 20
62.7145
 11
129.107
 21
62.533
  0
LINE
  8
0
 10
129.107
 20
62.533
 11
129.412
 21
62.3115
  0
LINE
  8
0
 10
129.412
 20
62.3115
 11
129.687
 21
62.0536
  0
LINE
  8
0
 10
129.687
 20
62.0536
 11
129.927
 21
61.7634
  0
LINE
  8
0
 10
129.927
 20
61.7634
 11
130.129
 21
61.4453
  0
LINE
  8
0
 10
130.129
 20
61.4453
 11
130.289
 21
61.1044
  0
LINE
  8
0
 10
130.289
 20
61.1044
 11
130.406
 21
60.7461
  0
LINE
  8
0
 10
130.406
 20
60.7461
 11
130.476
 21
60.376
  0
LINE
  8
0
 10
130.476
 20
60.376
 11
130.5
 21
60
  0
LINE
  8
0
 10
130.5
 20
60
 11
130.476
 21
59.624
  0
LINE
  8
0
 10
130.476
 20
59.624
 11
130.406
 21
59.2539
  0
LINE
  8
0
 10
130.406
 20
59.2539
 11
130.289
 21
58.8956
  0
LINE
  8
0
 10
130.289
 20
58.8956
 11
130.129
 21
58.5547
  0
LINE
  8
0
 10
130.129
 20
58.5547
 11
129.927
 21
58.2366
  0
LINE
  8
0
 10
129.927
 20
58.2366
 11
129.687
 21
57.9464
  0
LINE
  8
0
 10
129.687
 20
57.9464
 11
129.412
 21
57.6885
  0
LINE
  8
0
 10
129.412
 20
57.6885
 11
129.107
 21
57.467
  0
LINE
  8
0
 10
129.107
 20
57.467
 11
128.777
 21
57.2855
  0
LINE
  8
0
 10
128.777
 20
57.2855
 11
128.427
 21
57.1468
  0
LINE
  8
0
 10
128.427
 20
57.1468
 11
128.062
 21
57.0531
  0
LINE
  8
0
 10
128.062
 20
57.0531
 11
127.688
 21
57.0059
  0
LINE
  8
0
 10
127.688
 20
57.0059
 11
127.312
 21
57.0059
  0
LINE
  8
0
 10
-120.615
 20
14.9214
 11
-118.287
 21
22.0875
  0
LINE
  8
0
 10
-118.287
 20
22.0875
 11
-115.078
 21
28.9052
  0
LINE
  8
0
 10
-115.078
 20
28.9052
 11
-111.041
 21
35.2671
  0
LINE
  8
0
 10
-111.041
 20
35.2671
 11
-106.238
 21
41.0728
  0
LINE
  8
0
 10
-106.238
 20
41.0728
 11
-100.745
 21
46.2308
  0
LINE
  8
0
 10
-100.745
 20
46.2308
 11
-94.6496
 21
50.6597
  0
LINE
  8
0
 10
-94.6496
 20
50.6597
 11
-88.0468
 21
54.2896
  0
LINE
  8
0
 10
-88.0468
 20
54.2896
 11
-81.041
 21
57.0634
  0
LINE
  8
0
 10
-81.041
 20
57.0634
 11
-73.7429
 21
58.9372
  0
LINE
  8
0
 10
-73.7429
 20
58.9372
 11
-66.2674
 21
59.8816
  0
LINE
  8
0
 10
-66.2674
 20
59.8816
 11
-58.7326
 21
59.8816
  0
LINE
  8
0
 10
-58.7326
 20
59.8816
 11
-51.2571
 21
58.9372
  0
LINE
  8
0
 10
-51.2571
 20
58.9372
 11
-43.959
 21
57.0634
  0
LINE
  8
0
 10
-43.959
 20
57.0634
 11
-36.9532
 21
54.2896
  0
LINE
  8
0
 10
-36.9532
 20
54.2896
 11
-30.3504
 21
50.6597
  0
LINE
  8
0
 10
-30.3504
 20
50.6597
 11
-24.2545
 21
46.2308
  0
LINE
  8
0
 10
-24.2545
 20
46.2308
 11
-18.7619
 21
41.0728
  0
LINE
  8
0
 10
-18.7619
 20
41.0728
 11
-13.959
 21
35.2671
  0
LINE
  8
0
 10
-13.959
 20
35.2671
 11
-9.92159
 21
28.9052
  0
LINE
  8
0
 10
-9.92159
 20
28.9052
 11
-6.71341
 21
22.0875
  0
LINE
  8
0
 10
-6.71341
 20
22.0875
 11
-4.38501
 21
14.9214
  0
LINE
  8
0
 10
-4.38501
 20
14.9214
 11
-2.97311
 21
7.51999
  0
LINE
  8
0
 10
-2.97311
 20
7.51999
 11
-2.5
 21
0
  0
LINE
  8
0
 10
-2.5
 20
0
 11
-2.97311
 21
-7.51999
  0
LINE
  8
0
 10
-2.97311
 20
-7.51999
 11
-4.38501
 21
-14.9214
  0
LINE
  8
0
 10
-4.38501
 20
-14.9214
 11
-6.71341
 21
-22.0875
  0
LINE
  8
0
 10
-6.71341
 20
-22.0875
 11
-9.92159
 21
-28.9052
  0
LINE
  8
0
 10
-9.92159
 20
-28.9052
 11
-13.959
 21
-35.2671
  0
LINE
  8
0
 10
-13.959
 20
-35.2671
 11
-18.7619
 21
-41.0728
  0
LINE
  8
0
 10
-18.7619
 20
-41.0728
 11
-24.2545
 21
-46.2308
  0
LINE
  8
0
 10
-24.2545
 20
-46.2308
 11
-30.3504
 21
-50.6597
  0
LINE
  8
0
 10
-30.3504
 20
-50.6597
 11
-36.9532
 21
-54.2896
  0
LINE
  8
0
 10
-36.9532
 20
-54.2896
 11
-43.959
 21
-57.0634
  0
LINE
  8
0
 10
-43.959
 20
-57.0634
 11
-51.2571
 21
-58.9372
  0
LINE
  8
0
 10
-51.2571
 20
-58.9372
 11
-58.7326
 21
-59.8816
  0
LINE
  8
0
 10
-58.7326
 20
-59.8816
 11
-66.2674
 21
-59.8816
  0
LINE
  8
0
 10
-66.2674
 20
-59.8816
 11
-73.7429
 21
-58.9372
  0
LINE
  8
0
 10
-73.7429
 20
-58.9372
 11
-81.041
 21
-57.0634
  0
LINE
  8
0
 10
-81.041
 20
-57.0634
 11
-88.0468
 21
-54.2896
  0
LINE
  8
0
 10
-88.0468
 20
-54.2896
 11
-94.6496
 21
-50.6597
  0
LINE
  8
0
 10
-94.6496
 20
-50.6597
 11
-100.745
 21
-46.2308
  0
LINE
  8
0
 10
-100.745
 20
-46.2308
 11
-106.238
 21
-41.0728
  0
LINE
  8
0
 10
-106.238
 20
-41.0728
 11
-111.041
 21
-35.2671
  0
LINE
  8
0
 10
-111.041
 20
-35.2671
 11
-115.078
 21
-28.9052
  0
LINE
  8
0
 10
-115.078
 20
-28.9052
 11
-118.287
 21
-22.0875
  0
LINE
  8
0
 10
-118.287
 20
-22.0875
 11
-120.615
 21
-14.9214
  0
LINE
  8
0
 10
-120.615
 20
-14.9214
 11
-122.027
 21
-7.51999
  0
LINE
  8
0
 10
-122.027
 20
-7.51999
 11
-122.5
 21
0
  0
LINE
  8
0
 10
-122.5
 20
0
 11
-122.027
 21
7.51999
  0
LINE
  8
0
 10
-122.027
 20
7.51999
 11
-120.615
 21
14.9214
  0
LINE
  8
0
 10
58.7326
 20
-59.8816
 11
51.2571
 21
-58.9372
  0
LINE
  8
0
 10
51.2571
 20
-58.9372
 11
43.959
 21
-57.0634
  0
LINE
  8
0
 10
43.959
 20
-57.0634
 11
36.9532
 21
-54.2896
  0
LINE
  8
0
 10
36.9532
 20
-54.2896
 11
30.3504
 21
-50.6597
  0
LINE
  8
0
 10
30.3504
 20
-50.6597
 11
24.2545
 21
-46.2308
  0
LINE
  8
0
 10
24.2545
 20
-46.2308
 11
18.7619
 21
-41.0728
  0
LINE
  8
0
 10
18.7619
 20
-41.0728
 11
13.959
 21
-35.2671
  0
LINE
  8
0
 10
13.959
 20
-35.2671
 11
9.92159
 21
-28.9052
  0
LINE
  8
0
 10
9.92159
 20
-28.9052
 11
6.71341
 21
-22.0875
  0
LINE
  8
0
 10
6.71341
 20
-22.0875
 11
4.38501
 21
-14.9214
  0
LINE
  8
0
 10
4.38501
 20
-14.9214
 11
2.97311
 21
-7.51999
  0
LINE
  8
0
 10
2.97311
 20
-7.51999
 11
2.5
 21
0
  0
LINE
  8
0
 10
2.5
 20
0
 11
2.97311
 21
7.51999
  0
LINE
  8
0
 10
2.97311
 20
7.51999
 11
4.38501
 21
14.9214
  0
LINE
  8
0
 10
4.38501
 20
14.9214
 11
6.71341
 21
22.0875
  0
LINE
  8
0
 10
6.71341
 20
22.0875
 11
9.92159
 21
28.9052
  0
LINE
  8
0
 10
9.92159
 20
28.9052
 11
13.959
 21
35.2671
  0
LINE
  8
0
 10
13.959
 20
35.2671
 11
18.7619
 21
41.0728
  0
LINE
  8
0
 10
18.7619
 20
41.0728
 11
24.2545
 21
46.2308
  0
LINE
  8
0
 10
24.2545
 20
46.2308
 11
30.3504
 21
50.6597
  0
LINE
  8
0
 10
30.3504
 20
50.6597
 11
36.9532
 21
54.2896
  0
LINE
  8
0
 10
36.9532
 20
54.2896
 11
43.959
 21
57.0634
  0
LINE
  8
0
 10
43.959
 20
57.0634
 11
51.2571
 21
58.9372
  0
LINE
  8
0
 10
51.2571
 20
58.9372
 11
58.7326
 21
59.8816
  0
LINE
  8
0
 10
58.7326
 20
59.8816
 11
66.2674
 21
59.8816
  0
LINE
  8
0
 10
66.2674
 20
59.8816
 11
73.7429
 21
58.9372
  0
LINE
  8
0
 10
73.7429
 20
58.9372
 11
81.041
 21
57.0634
  0
LINE
  8
0
 10
81.041
 20
57.0634
 11
88.0468
 21
54.2896
  0
LINE
  8
0
 10
88.0468
 20
54.2896
 11
94.6496
 21
50.6597
  0
LINE
  8
0
 10
94.6496
 20
50.6597
 11
100.745
 21
46.2308
  0
LINE
  8
0
 10
100.745
 20
46.2308
 11
106.238
 21
41.0728
  0
LINE
  8
0
 10
106.238
 20
41.0728
 11
111.041
 21
35.2671
  0
LINE
  8
0
 10
111.041
 20
35.2671
 11
115.078
 21
28.9052
  0
LINE
  8
0
 10
115.078
 20
28.9052
 11
118.287
 21
22.0875
  0
LINE
  8
0
 10
118.287
 20
22.0875
 11
120.615
 21
14.9214
  0
LINE
  8
0
 10
120.615
 20
14.9214
 11
122.027
 21
7.51999
  0
LINE
  8
0
 10
122.027
 20
7.51999
 11
122.5
 21
0
  0
LINE
  8
0
 10
122.5
 20
0
 11
122.027
 21
-7.51999
  0
LINE
  8
0
 10
122.027
 20
-7.51999
 11
120.615
 21
-14.9214
  0
LINE
  8
0
 10
120.615
 20
-14.9214
 11
118.287
 21
-22.0875
  0
LINE
  8
0
 10
118.287
 20
-22.0875
 11
115.078
 21
-28.9052
  0
LINE
  8
0
 10
115.078
 20
-28.9052
 11
111.041
 21
-35.2671
  0
LINE
  8
0
 10
111.041
 20
-35.2671
 11
106.238
 21
-41.0728
  0
LINE
  8
0
 10
106.238
 20
-41.0728
 11
100.745
 21
-46.2308
  0
LINE
  8
0
 10
100.745
 20
-46.2308
 11
94.6496
 21
-50.6597
  0
LINE
  8
0
 10
94.6496
 20
-50.6597
 11
88.0468
 21
-54.2896
  0
LINE
  8
0
 10
88.0468
 20
-54.2896
 11
81.041
 21
-57.0634
  0
LINE
  8
0
 10
81.041
 20
-57.0634
 11
73.7429
 21
-58.9372
  0
LINE
  8
0
 10
73.7429
 20
-58.9372
 11
66.2674
 21
-59.8816
  0
LINE
  8
0
 10
66.2674
 20
-59.8816
 11
58.7326
 21
-59.8816
  0
LINE
  8
0
 10
127.406
 20
51.003
 11
127.219
 21
51.0266
  0
LINE
  8
0
 10
127.219
 20
51.0266
 11
127.036
 21
51.0734
  0
LINE
  8
0
 10
127.036
 20
51.0734
 11
126.861
 21
51.1428
  0
LINE
  8
0
 10
126.861
 20
51.1428
 11
126.696
 21
51.2335
  0
LINE
  8
0
 10
126.696
 20
51.2335
 11
126.544
 21
51.3442
  0
LINE
  8
0
 10
126.544
 20
51.3442
 11
126.407
 21
51.4732
  0
LINE
  8
0
 10
126.407
 20
51.4732
 11
126.286
 21
51.6183
  0
LINE
  8
0
 10
126.286
 20
51.6183
 11
126.186
 21
51.7774
  0
LINE
  8
0
 10
126.186
 20
51.7774
 11
126.105
 21
51.9478
  0
LINE
  8
0
 10
126.105
 20
51.9478
 11
126.047
 21
52.127
  0
LINE
  8
0
 10
126.047
 20
52.127
 11
126.012
 21
52.312
  0
LINE
  8
0
 10
126.012
 20
52.312
 11
126
 21
52.5
  0
LINE
  8
0
 10
126
 20
52.5
 11
126.012
 21
52.688
  0
LINE
  8
0
 10
126.012
 20
52.688
 11
126.047
 21
52.873
  0
LINE
  8
0
 10
126.047
 20
52.873
 11
126.105
 21
53.0522
  0
LINE
  8
0
 10
126.105
 20
53.0522
 11
126.186
 21
53.2226
  0
LINE
  8
0
 10
126.186
 20
53.2226
 11
126.286
 21
53.3817
  0
LINE
  8
0
 10
126.286
 20
53.3817
 11
126.407
 21
53.5268
  0
LINE
  8
0
 10
126.407
 20
53.5268
 11
126.544
 21
53.6558
  0
LINE
  8
0
 10
126.544
 20
53.6558
 11
126.696
 21
53.7665
  0
LINE
  8
0
 10
126.696
 20
53.7665
 11
126.861
 21
53.8572
  0
LINE
  8
0
 10
126.861
 20
53.8572
 11
127.036
 21
53.9266
  0
LINE
  8
0
 10
127.036
 20
53.9266
 11
127.219
 21
53.9734
  0
LINE
  8
0
 10
127.219
 20
53.9734
 11
127.406
 21
53.997
  0
LINE
  8
0
 10
127.406
 20
53.997
 11
127.594
 21
53.997
  0
LINE
  8
0
 10
127.594
 20
53.997
 11
127.781
 21
53.9734
  0
LINE
  8
0
 10
127.781
 20
53.9734
 11
127.964
 21
53.9266
  0
LINE
  8
0
 10
127.964
 20
53.9266
 11
128.139
 21
53.8572
  0
LINE
  8
0
 10
128.139
 20
53.8572
 11
128.304
 21
53.7665
  0
LINE
  8
0
 10
128.304
 20
53.7665
 11
128.456
 21
53.6558
  0
LINE
  8
0
 10
128.456
 20
53.6558
 11
128.593
 21
53.5268
  0
LINE
  8
0
 10
128.593
 20
53.5268
 11
128.714
 21
53.3817
  0
LINE
  8
0
 10
128.714
 20
53.3817
 11
128.814
 21
53.2226
  0
LINE
  8
0
 10
128.814
 20
53.2226
 11
128.895
 21
53.0522
  0
LINE
  8
0
 10
128.895
 20
53.0522
 11
128.953
 21
52.873
  0
LINE
  8
0
 10
128.953
 20
52.873
 11
128.988
 21
52.688
  0
LINE
  8
0
 10
128.988
 20
52.688
 11
129
 21
52.5
  0
LINE
  8
0
 10
129
 20
52.5
 11
128.988
 21
52.312
  0
LINE
  8
0
 10
128.988
 20
52.312
 11
128.953
 21
52.127
  0
LINE
  8
0
 10
128.953
 20
52.127
 11
128.895
 21
51.9478
  0
LINE
  8
0
 10
128.895
 20
51.9478
 11
128.814
 21
51.7774
  0
LINE
  8
0
 10
128.814
 20
51.7774
 11
128.714
 21
51.6183
  0
LINE
  8
0
 10
128.714
 20
51.6183
 11
128.593
 21
51.4732
  0
LINE
  8
0
 10
128.593
 20
51.4732
 11
128.456
 21
51.3442
  0
LINE
  8
0
 10
128.456
 20
51.3442
 11
128.304
 21
51.2335
  0
LINE
  8
0
 10
128.304
 20
51.2335
 11
128.139
 21
51.1428
  0
LINE
  8
0
 10
128.139
 20
51.1428
 11
127.964
 21
51.0734
  0
LINE
  8
0
 10
127.964
 20
51.0734
 11
127.781
 21
51.0266
  0
LINE
  8
0
 10
127.781
 20
51.0266
 11
127.594
 21
51.003
  0
LINE
  8
0
 10
127.594
 20
51.003
 11
127.406
 21
51.003
  0
LINE
  8
0
 10
-127.594
 20
51.003
 11
-127.781
 21
51.0266
  0
LINE
  8
0
 10
-127.781
 20
51.0266
 11
-127.964
 21
51.0734
  0
LINE
  8
0
 10
-127.964
 20
51.0734
 11
-128.139
 21
51.1428
  0
LINE
  8
0
 10
-128.139
 20
51.1428
 11
-128.304
 21
51.2335
  0
LINE
  8
0
 10
-128.304
 20
51.2335
 11
-128.456
 21
51.3442
  0
LINE
  8
0
 10
-128.456
 20
51.3442
 11
-128.593
 21
51.4732
  0
LINE
  8
0
 10
-128.593
 20
51.4732
 11
-128.714
 21
51.6183
  0
LINE
  8
0
 10
-128.714
 20
51.6183
 11
-128.814
 21
51.7774
  0
LINE
  8
0
 10
-128.814
 20
51.7774
 11
-128.895
 21
51.9478
  0
LINE
  8
0
 10
-128.895
 20
51.9478
 11
-128.953
 21
52.127
  0
LINE
  8
0
 10
-128.953
 20
52.127
 11
-128.988
 21
52.312
  0
LINE
  8
0
 10
-128.988
 20
52.312
 11
-129
 21
52.5
  0
LINE
  8
0
 10
-129
 20
52.5
 11
-128.988
 21
52.688
  0
LINE
  8
0
 10
-128.988
 20
52.688
 11
-128.953
 21
52.873
  0
LINE
  8
0
 10
-128.953
 20
52.873
 11
-128.895
 21
53.0522
  0
LINE
  8
0
 10
-128.895
 20
53.0522
 11
-128.814
 21
53.2226
  0
LINE
  8
0
 10
-128.814
 20
53.2226
 11
-128.714
 21
53.3817
  0
LINE
  8
0
 10
-128.714
 20
53.3817
 11
-128.593
 21
53.5268
  0
LINE
  8
0
 10
-128.593
 20
53.5268
 11
-128.456
 21
53.6558
  0
LINE
  8
0
 10
-128.456
 20
53.6558
 11
-128.304
 21
53.7665
  0
LINE
  8
0
 10
-128.304
 20
53.7665
 11
-128.139
 21
53.8572
  0
LINE
  8
0
 10
-128.139
 20
53.8572
 11
-127.964
 21
53.9266
  0
LINE
  8
0
 10
-127.964
 20
53.9266
 11
-127.781
 21
53.9734
  0
LINE
  8
0
 10
-127.781
 20
53.9734
 11
-127.594
 21
53.997
  0
LINE
  8
0
 10
-127.594
 20
53.997
 11
-127.406
 21
53.997
  0
LINE
  8
0
 10
-127.406
 20
53.997
 11
-127.219
 21
53.9734
  0
LINE
  8
0
 10
-127.219
 20
53.9734
 11
-127.036
 21
53.9266
  0
LINE
  8
0
 10
-127.036
 20
53.9266
 11
-126.861
 21
53.8572
  0
LINE
  8
0
 10
-126.861
 20
53.8572
 11
-126.696
 21
53.7665
  0
LINE
  8
0
 10
-126.696
 20
53.7665
 11
-126.544
 21
53.6558
  0
LINE
  8
0
 10
-126.544
 20
53.6558
 11
-126.407
 21
53.5268
  0
LINE
  8
0
 10
-126.407
 20
53.5268
 11
-126.286
 21
53.3817
  0
LINE
  8
0
 10
-126.286
 20
53.3817
 11
-126.186
 21
53.2226
  0
LINE
  8
0
 10
-126.186
 20
53.2226
 11
-126.105
 21
53.0522
  0
LINE
  8
0
 10
-126.105
 20
53.0522
 11
-126.047
 21
52.873
  0
LINE
  8
0
 10
-126.047
 20
52.873
 11
-126.012
 21
52.688
  0
LINE
  8
0
 10
-126.012
 20
52.688
 11
-126
 21
52.5
  0
LINE
  8
0
 10
-126
 20
52.5
 11
-126.012
 21
52.312
  0
LINE
  8
0
 10
-126.012
 20
52.312
 11
-126.047
 21
52.127
  0
LINE
  8
0
 10
-126.047
 20
52.127
 11
-126.105
 21
51.9478
  0
LINE
  8
0
 10
-126.105
 20
51.9478
 11
-126.186
 21
51.7774
  0
LINE
  8
0
 10
-126.186
 20
51.7774
 11
-126.286
 21
51.6183
  0
LINE
  8
0
 10
-126.286
 20
51.6183
 11
-126.407
 21
51.4732
  0
LINE
  8
0
 10
-126.407
 20
51.4732
 11
-126.544
 21
51.3442
  0
LINE
  8
0
 10
-126.544
 20
51.3442
 11
-126.696
 21
51.2335
  0
LINE
  8
0
 10
-126.696
 20
51.2335
 11
-126.861
 21
51.1428
  0
LINE
  8
0
 10
-126.861
 20
51.1428
 11
-127.036
 21
51.0734
  0
LINE
  8
0
 10
-127.036
 20
51.0734
 11
-127.219
 21
51.0266
  0
LINE
  8
0
 10
-127.219
 20
51.0266
 11
-127.406
 21
51.003
  0
LINE
  8
0
 10
-127.406
 20
51.003
 11
-127.594
 21
51.003
  0
LINE
  8
0
 10
-127.688
 20
42.0059
 11
-128.062
 21
42.0531
  0
LINE
  8
0
 10
-128.062
 20
42.0531
 11
-128.427
 21
42.1468
  0
LINE
  8
0
 10
-128.427
 20
42.1468
 11
-128.777
 21
42.2855
  0
LINE
  8
0
 10
-128.777
 20
42.2855
 11
-129.107
 21
42.467
  0
LINE
  8
0
 10
-129.107
 20
42.467
 11
-129.412
 21
42.6885
  0
LINE
  8
0
 10
-129.412
 20
42.6885
 11
-129.687
 21
42.9464
  0
LINE
  8
0
 10
-129.687
 20
42.9464
 11
-129.927
 21
43.2366
  0
LINE
  8
0
 10
-129.927
 20
43.2366
 11
-130.129
 21
43.5547
  0
LINE
  8
0
 10
-130.129
 20
43.5547
 11
-130.289
 21
43.8956
  0
LINE
  8
0
 10
-130.289
 20
43.8956
 11
-130.406
 21
44.2539
  0
LINE
  8
0
 10
-130.406
 20
44.2539
 11
-130.476
 21
44.624
  0
LINE
  8
0
 10
-130.476
 20
44.624
 11
-130.5
 21
45
  0
LINE
  8
0
 10
-130.5
 20
45
 11
-130.476
 21
45.376
  0
LINE
  8
0
 10
-130.476
 20
45.376
 11
-130.406
 21
45.7461
  0
LINE
  8
0
 10
-130.406
 20
45.7461
 11
-130.289
 21
46.1044
  0
LINE
  8
0
 10
-130.289
 20
46.1044
 11
-130.129
 21
46.4453
  0
LINE
  8
0
 10
-130.129
 20
46.4453
 11
-129.927
 21
46.7634
  0
LINE
  8
0
 10
-129.927
 20
46.7634
 11
-129.687
 21
47.0536
  0
LINE
  8
0
 10
-129.687
 20
47.0536
 11
-129.412
 21
47.3115
  0
LINE
  8
0
 10
-129.412
 20
47.3115
 11
-129.107
 21
47.533
  0
LINE
  8
0
 10
-129.107
 20
47.533
 11
-128.777
 21
47.7145
  0
LINE
  8
0
 10
-128.777
 20
47.7145
 11
-128.427
 21
47.8532
  0
LINE
  8
0
 10
-128.427
 20
47.8532
 11
-128.062
 21
47.9469
  0
LINE
  8
0
 10
-128.062
 20
47.9469
 11
-127.688
 21
47.9941
  0
LINE
  8
0
 10
-127.688
 20
47.9941
 11
-127.312
 21
47.9941
  0
LINE
  8
0
 10
-127.312
 20
47.9941
 11
-126.938
 21
47.9469
  0
LINE
  8
0
 10
-126.938
 20
47.9469
 11
-126.573
 21
47.8532
  0
LINE
  8
0
 10
-126.573
 20
47.8532
 11
-126.223
 21
47.7145
  0
LINE
  8
0
 10
-126.223
 20
47.7145
 11
-125.893
 21
47.533
  0
LINE
  8
0
 10
-125.893
 20
47.533
 11
-125.588
 21
47.3115
  0
LINE
  8
0
 10
-125.588
 20
47.3115
 11
-125.313
 21
47.0536
  0
LINE
  8
0
 10
-125.313
 20
47.0536
 11
-125.073
 21
46.7634
  0
LINE
  8
0
 10
-125.073
 20
46.7634
 11
-124.871
 21
46.4453
  0
LINE
  8
0
 10
-124.871
 20
46.4453
 11
-124.711
 21
46.1044
  0
LINE
  8
0
 10
-124.711
 20
46.1044
 11
-124.594
 21
45.7461
  0
LINE
  8
0
 10
-124.594
 20
45.7461
 11
-124.524
 21
45.376
  0
LINE
  8
0
 10
-124.524
 20
45.376
 11
-124.5
 21
45
  0
LINE
  8
0
 10
-124.5
 20
45
 11
-124.524
 21
44.624
  0
LINE
  8
0
 10
-124.524
 20
44.624
 11
-124.594
 21
44.2539
  0
LINE
  8
0
 10
-124.594
 20
44.2539
 11
-124.711
 21
43.8956
  0
LINE
  8
0
 10
-124.711
 20
43.8956
 11
-124.871
 21
43.5547
  0
LINE
  8
0
 10
-124.871
 20
43.5547
 11
-125.073
 21
43.2366
  0
LINE
  8
0
 10
-125.073
 20
43.2366
 11
-125.313
 21
42.9464
  0
LINE
  8
0
 10
-125.313
 20
42.9464
 11
-125.588
 21
42.6885
  0
LINE
  8
0
 10
-125.588
 20
42.6885
 11
-125.893
 21
42.467
  0
LINE
  8
0
 10
-125.893
 20
42.467
 11
-126.223
 21
42.2855
  0
LINE
  8
0
 10
-126.223
 20
42.2855
 11
-126.573
 21
42.1468
  0
LINE
  8
0
 10
-126.573
 20
42.1468
 11
-126.938
 21
42.0531
  0
LINE
  8
0
 10
-126.938
 20
42.0531
 11
-127.312
 21
42.0059
  0
LINE
  8
0
 10
-127.312
 20
42.0059
 11
-127.688
 21
42.0059
  0
LINE
  8
0
 10
127.312
 20
42.0059
 11
126.938
 21
42.0531
  0
LINE
  8
0
 10
126.938
 20
42.0531
 11
126.573
 21
42.1468
  0
LINE
  8
0
 10
126.573
 20
42.1468
 11
126.223
 21
42.2855
  0
LINE
  8
0
 10
126.223
 20
42.2855
 11
125.893
 21
42.467
  0
LINE
  8
0
 10
125.893
 20
42.467
 11
125.588
 21
42.6885
  0
LINE
  8
0
 10
125.588
 20
42.6885
 11
125.313
 21
42.9464
  0
LINE
  8
0
 10
125.313
 20
42.9464
 11
125.073
 21
43.2366
  0
LINE
  8
0
 10
125.073
 20
43.2366
 11
124.871
 21
43.5547
  0
LINE
  8
0
 10
124.871
 20
43.5547
 11
124.711
 21
43.8956
  0
LINE
  8
0
 10
124.711
 20
43.8956
 11
124.594
 21
44.2539
  0
LINE
  8
0
 10
124.594
 20
44.2539
 11
124.524
 21
44.624
  0
LINE
  8
0
 10
124.524
 20
44.624
 11
124.5
 21
45
  0
LINE
  8
0
 10
124.5
 20
45
 11
124.524
 21
45.376
  0
LINE
  8
0
 10
124.524
 20
45.376
 11
124.594
 21
45.7461
  0
LINE
  8
0
 10
124.594
 20
45.7461
 11
124.711
 21
46.1044
  0
LINE
  8
0
 10
124.711
 20
46.1044
 11
124.871
 21
46.4453
  0
LINE
  8
0
 10
124.871
 20
46.4453
 11
125.073
 21
46.7634
  0
LINE
  8
0
 10
125.073
 20
46.7634
 11
125.313
 21
47.0536
  0
LINE
  8
0
 10
125.313
 20
47.0536
 11
125.588
 21
47.3115
  0
LINE
  8
0
 10
125.588
 20
47.3115
 11
125.893
 21
47.533
  0
LINE
  8
0
 10
125.893
 20
47.533
 11
126.223
 21
47.7145
  0
LINE
  8
0
 10
126.223
 20
47.7145
 11
126.573
 21
47.8532
  0
LINE
  8
0
 10
126.573
 20
47.8532
 11
126.938
 21
47.9469
  0
LINE
  8
0
 10
126.938
 20
47.9469
 11
127.312
 21
47.9941
  0
LINE
  8
0
 10
127.312
 20
47.9941
 11
127.688
 21
47.9941
  0
LINE
  8
0
 10
127.688
 20
47.9941
 11
128.062
 21
47.9469
  0
LINE
  8
0
 10
128.062
 20
47.9469
 11
128.427
 21
47.8532
  0
LINE
  8
0
 10
128.427
 20
47.8532
 11
128.777
 21
47.7145
  0
LINE
  8
0
 10
128.777
 20
47.7145
 11
129.107
 21
47.533
  0
LINE
  8
0
 10
129.107
 20
47.533
 11
129.412
 21
47.3115
  0
LINE
  8
0
 10
129.412
 20
47.3115
 11
129.687
 21
47.0536
  0
LINE
  8
0
 10
129.687
 20
47.0536
 11
129.927
 21
46.7634
  0
LINE
  8
0
 10
129.927
 20
46.7634
 11
130.129
 21
46.4453
  0
LINE
  8
0
 10
130.129
 20
46.4453
 11
130.289
 21
46.1044
  0
LINE
  8
0
 10
130.289
 20
46.1044
 11
130.406
 21
45.7461
  0
LINE
  8
0
 10
130.406
 20
45.7461
 11
130.476
 21
45.376
  0
LINE
  8
0
 10
130.476
 20
45.376
 11
130.5
 21
45
  0
LINE
  8
0
 10
130.5
 20
45
 11
130.476
 21
44.624
  0
LINE
  8
0
 10
130.476
 20
44.624
 11
130.406
 21
44.2539
  0
LINE
  8
0
 10
130.406
 20
44.2539
 11
130.289
 21
43.8956
  0
LINE
  8
0
 10
130.289
 20
43.8956
 11
130.129
 21
43.5547
  0
LINE
  8
0
 10
130.129
 20
43.5547
 11
129.927
 21
43.2366
  0
LINE
  8
0
 10
129.927
 20
43.2366
 11
129.687
 21
42.9464
  0
LINE
  8
0
 10
129.687
 20
42.9464
 11
129.412
 21
42.6885
  0
LINE
  8
0
 10
129.412
 20
42.6885
 11
129.107
 21
42.467
  0
LINE
  8
0
 10
129.107
 20
42.467
 11
128.777
 21
42.2855
  0
LINE
  8
0
 10
128.777
 20
42.2855
 11
128.427
 21
42.1468
  0
LINE
  8
0
 10
128.427
 20
42.1468
 11
128.062
 21
42.0531
  0
LINE
  8
0
 10
128.062
 20
42.0531
 11
127.688
 21
42.0059
  0
LINE
  8
0
 10
127.688
 20
42.0059
 11
127.312
 21
42.0059
  0
LINE
  8
0
 10
-127.594
 20
36.003
 11
-127.781
 21
36.0266
  0
LINE
  8
0
 10
-127.781
 20
36.0266
 11
-127.964
 21
36.0734
  0
LINE
  8
0
 10
-127.964
 20
36.0734
 11
-128.139
 21
36.1428
  0
LINE
  8
0
 10
-128.139
 20
36.1428
 11
-128.304
 21
36.2335
  0
LINE
  8
0
 10
-128.304
 20
36.2335
 11
-128.456
 21
36.3442
  0
LINE
  8
0
 10
-128.456
 20
36.3442
 11
-128.593
 21
36.4732
  0
LINE
  8
0
 10
-128.593
 20
36.4732
 11
-128.714
 21
36.6183
  0
LINE
  8
0
 10
-128.714
 20
36.6183
 11
-128.814
 21
36.7774
  0
LINE
  8
0
 10
-128.814
 20
36.7774
 11
-128.895
 21
36.9478
  0
LINE
  8
0
 10
-128.895
 20
36.9478
 11
-128.953
 21
37.127
  0
LINE
  8
0
 10
-128.953
 20
37.127
 11
-128.988
 21
37.312
  0
LINE
  8
0
 10
-128.988
 20
37.312
 11
-129
 21
37.5
  0
LINE
  8
0
 10
-129
 20
37.5
 11
-128.988
 21
37.688
  0
LINE
  8
0
 10
-128.988
 20
37.688
 11
-128.953
 21
37.873
  0
LINE
  8
0
 10
-128.953
 20
37.873
 11
-128.895
 21
38.0522
  0
LINE
  8
0
 10
-128.895
 20
38.0522
 11
-128.814
 21
38.2226
  0
LINE
  8
0
 10
-128.814
 20
38.2226
 11
-128.714
 21
38.3817
  0
LINE
  8
0
 10
-128.714
 20
38.3817
 11
-128.593
 21
38.5268
  0
LINE
  8
0
 10
-128.593
 20
38.5268
 11
-128.456
 21
38.6558
  0
LINE
  8
0
 10
-128.456
 20
38.6558
 11
-128.304
 21
38.7665
  0
LINE
  8
0
 10
-128.304
 20
38.7665
 11
-128.139
 21
38.8572
  0
LINE
  8
0
 10
-128.139
 20
38.8572
 11
-127.964
 21
38.9266
  0
LINE
  8
0
 10
-127.964
 20
38.9266
 11
-127.781
 21
38.9734
  0
LINE
  8
0
 10
-127.781
 20
38.9734
 11
-127.594
 21
38.997
  0
LINE
  8
0
 10
-127.594
 20
38.997
 11
-127.406
 21
38.997
  0
LINE
  8
0
 10
-127.406
 20
38.997
 11
-127.219
 21
38.9734
  0
LINE
  8
0
 10
-127.219
 20
38.9734
 11
-127.036
 21
38.9266
  0
LINE
  8
0
 10
-127.036
 20
38.9266
 11
-126.861
 21
38.8572
  0
LINE
  8
0
 10
-126.861
 20
38.8572
 11
-126.696
 21
38.7665
  0
LINE
  8
0
 10
-126.696
 20
38.7665
 11
-126.544
 21
38.6558
  0
LINE
  8
0
 10
-126.544
 20
38.6558
 11
-126.407
 21
38.5268
  0
LINE
  8
0
 10
-126.407
 20
38.5268
 11
-126.286
 21
38.3817
  0
LINE
  8
0
 10
-126.286
 20
38.3817
 11
-126.186
 21
38.2226
  0
LINE
  8
0
 10
-126.186
 20
38.2226
 11
-126.105
 21
38.0522
  0
LINE
  8
0
 10
-126.105
 20
38.0522
 11
-126.047
 21
37.873
  0
LINE
  8
0
 10
-126.047
 20
37.873
 11
-126.012
 21
37.688
  0
LINE
  8
0
 10
-126.012
 20
37.688
 11
-126
 21
37.5
  0
LINE
  8
0
 10
-126
 20
37.5
 11
-126.012
 21
37.312
  0
LINE
  8
0
 10
-126.012
 20
37.312
 11
-126.047
 21
37.127
  0
LINE
  8
0
 10
-126.047
 20
37.127
 11
-126.105
 21
36.9478
  0
LINE
  8
0
 10
-126.105
 20
36.9478
 11
-126.186
 21
36.7774
  0
LINE
  8
0
 10
-126.186
 20
36.7774
 11
-126.286
 21
36.6183
  0
LINE
  8
0
 10
-126.286
 20
36.6183
 11
-126.407
 21
36.4732
  0
LINE
  8
0
 10
-126.407
 20
36.4732
 11
-126.544
 21
36.3442
  0
LINE
  8
0
 10
-126.544
 20
36.3442
 11
-126.696
 21
36.2335
  0
LINE
  8
0
 10
-126.696
 20
36.2335
 11
-126.861
 21
36.1428
  0
LINE
  8
0
 10
-126.861
 20
36.1428
 11
-127.036
 21
36.0734
  0
LINE
  8
0
 10
-127.036
 20
36.0734
 11
-127.219
 21
36.0266
  0
LINE
  8
0
 10
-127.219
 20
36.0266
 11
-127.406
 21
36.003
  0
LINE
  8
0
 10
-127.406
 20
36.003
 11
-127.594
 21
36.003
  0
LINE
  8
0
 10
127.406
 20
36.003
 11
127.219
 21
36.0266
  0
LINE
  8
0
 10
127.219
 20
36.0266
 11
127.036
 21
36.0734
  0
LINE
  8
0
 10
127.036
 20
36.0734
 11
126.861
 21
36.1428
  0
LINE
  8
0
 10
126.861
 20
36.1428
 11
126.696
 21
36.2335
  0
LINE
  8
0
 10
126.696
 20
36.2335
 11
126.544
 21
36.3442
  0
LINE
  8
0
 10
126.544
 20
36.3442
 11
126.407
 21
36.4732
  0
LINE
  8
0
 10
126.407
 20
36.4732
 11
126.286
 21
36.6183
  0
LINE
  8
0
 10
126.286
 20
36.6183
 11
126.186
 21
36.7774
  0
LINE
  8
0
 10
126.186
 20
36.7774
 11
126.105
 21
36.9478
  0
LINE
  8
0
 10
126.105
 20
36.9478
 11
126.047
 21
37.127
  0
LINE
  8
0
 10
126.047
 20
37.127
 11
126.012
 21
37.312
  0
LINE
  8
0
 10
126.012
 20
37.312
 11
126
 21
37.5
  0
LINE
  8
0
 10
126
 20
37.5
 11
126.012
 21
37.688
  0
LINE
  8
0
 10
126.012
 20
37.688
 11
126.047
 21
37.873
  0
LINE
  8
0
 10
126.047
 20
37.873
 11
126.105
 21
38.0522
  0
LINE
  8
0
 10
126.105
 20
38.0522
 11
126.186
 21
38.2226
  0
LINE
  8
0
 10
126.186
 20
38.2226
 11
126.286
 21
38.3817
  0
LINE
  8
0
 10
126.286
 20
38.3817
 11
126.407
 21
38.5268
  0
LINE
  8
0
 10
126.407
 20
38.5268
 11
126.544
 21
38.6558
  0
LINE
  8
0
 10
126.544
 20
38.6558
 11
126.696
 21
38.7665
  0
LINE
  8
0
 10
126.696
 20
38.7665
 11
126.861
 21
38.8572
  0
LINE
  8
0
 10
126.861
 20
38.8572
 11
127.036
 21
38.9266
  0
LINE
  8
0
 10
127.036
 20
38.9266
 11
127.219
 21
38.9734
  0
LINE
  8
0
 10
127.219
 20
38.9734
 11
127.406
 21
38.997
  0
LINE
  8
0
 10
127.406
 20
38.997
 11
127.594
 21
38.997
  0
LINE
  8
0
 10
127.594
 20
38.997
 11
127.781
 21
38.9734
  0
LINE
  8
0
 10
127.781
 20
38.9734
 11
127.964
 21
38.9266
  0
LINE
  8
0
 10
127.964
 20
38.9266
 11
128.139
 21
38.8572
  0
LINE
  8
0
 10
128.139
 20
38.8572
 11
128.304
 21
38.7665
  0
LINE
  8
0
 10
128.304
 20
38.7665
 11
128.456
 21
38.6558
  0
LINE
  8
0
 10
128.456
 20
38.6558
 11
128.593
 21
38.5268
  0
LINE
  8
0
 10
128.593
 20
38.5268
 11
128.714
 21
38.3817
  0
LINE
  8
0
 10
128.714
 20
38.3817
 11
128.814
 21
38.2226
  0
LINE
  8
0
 10
128.814
 20
38.2226
 11
128.895
 21
38.0522
  0
LINE
  8
0
 10
128.895
 20
38.0522
 11
128.953
 21
37.873
  0
LINE
  8
0
 10
128.953
 20
37.873
 11
128.988
 21
37.688
  0
LINE
  8
0
 10
128.988
 20
37.688
 11
129
 21
37.5
  0
LINE
  8
0
 10
129
 20
37.5
 11
128.988
 21
37.312
  0
LINE
  8
0
 10
128.988
 20
37.312
 11
128.953
 21
37.127
  0
LINE
  8
0
 10
128.953
 20
37.127
 11
128.895
 21
36.9478
  0
LINE
  8
0
 10
128.895
 20
36.9478
 11
128.814
 21
36.7774
  0
LINE
  8
0
 10
128.814
 20
36.7774
 11
128.714
 21
36.6183
  0
LINE
  8
0
 10
128.714
 20
36.6183
 11
128.593
 21
36.4732
  0
LINE
  8
0
 10
128.593
 20
36.4732
 11
128.456
 21
36.3442
  0
LINE
  8
0
 10
128.456
 20
36.3442
 11
128.304
 21
36.2335
  0
LINE
  8
0
 10
128.304
 20
36.2335
 11
128.139
 21
36.1428
  0
LINE
  8
0
 10
128.139
 20
36.1428
 11
127.964
 21
36.0734
  0
LINE
  8
0
 10
127.964
 20
36.0734
 11
127.781
 21
36.0266
  0
LINE
  8
0
 10
127.781
 20
36.0266
 11
127.594
 21
36.003
  0
LINE
  8
0
 10
127.594
 20
36.003
 11
127.406
 21
36.003
  0
LINE
  8
0
 10
-127.688
 20
27.0059
 11
-128.062
 21
27.0531
  0
LINE
  8
0
 10
-128.062
 20
27.0531
 11
-128.427
 21
27.1468
  0
LINE
  8
0
 10
-128.427
 20
27.1468
 11
-128.777
 21
27.2855
  0
LINE
  8
0
 10
-128.777
 20
27.2855
 11
-129.107
 21
27.467
  0
LINE
  8
0
 10
-129.107
 20
27.467
 11
-129.412
 21
27.6884
  0
LINE
  8
0
 10
-129.412
 20
27.6884
 11
-129.687
 21
27.9464
  0
LINE
  8
0
 10
-129.687
 20
27.9464
 11
-129.927
 21
28.2366
  0
LINE
  8
0
 10
-129.927
 20
28.2366
 11
-130.129
 21
28.5547
  0
LINE
  8
0
 10
-130.129
 20
28.5547
 11
-130.289
 21
28.8956
  0
LINE
  8
0
 10
-130.289
 20
28.8956
 11
-130.406
 21
29.2539
  0
LINE
  8
0
 10
-130.406
 20
29.2539
 11
-130.476
 21
29.624
  0
LINE
  8
0
 10
-130.476
 20
29.624
 11
-130.5
 21
30
  0
LINE
  8
0
 10
-130.5
 20
30
 11
-130.476
 21
30.376
  0
LINE
  8
0
 10
-130.476
 20
30.376
 11
-130.406
 21
30.7461
  0
LINE
  8
0
 10
-130.406
 20
30.7461
 11
-130.289
 21
31.1044
  0
LINE
  8
0
 10
-130.289
 20
31.1044
 11
-130.129
 21
31.4453
  0
LINE
  8
0
 10
-130.129
 20
31.4453
 11
-129.927
 21
31.7634
  0
LINE
  8
0
 10
-129.927
 20
31.7634
 11
-129.687
 21
32.0536
  0
LINE
  8
0
 10
-129.687
 20
32.0536
 11
-129.412
 21
32.3115
  0
LINE
  8
0
 10
-129.412
 20
32.3115
 11
-129.107
 21
32.533
  0
LINE
  8
0
 10
-129.107
 20
32.533
 11
-128.777
 21
32.7145
  0
LINE
  8
0
 10
-128.777
 20
32.7145
 11
-128.427
 21
32.8532
  0
LINE
  8
0
 10
-128.427
 20
32.8532
 11
-128.062
 21
32.9469
  0
LINE
  8
0
 10
-128.062
 20
32.9469
 11
-127.688
 21
32.9941
  0
LINE
  8
0
 10
-127.688
 20
32.9941
 11
-127.312
 21
32.9941
  0
LINE
  8
0
 10
-127.312
 20
32.9941
 11
-126.938
 21
32.9469
  0
LINE
  8
0
 10
-126.938
 20
32.9469
 11
-126.573
 21
32.8532
  0
LINE
  8
0
 10
-126.573
 20
32.8532
 11
-126.223
 21
32.7145
  0
LINE
  8
0
 10
-126.223
 20
32.7145
 11
-125.893
 21
32.533
  0
LINE
  8
0
 10
-125.893
 20
32.533
 11
-125.588
 21
32.3115
  0
LINE
  8
0
 10
-125.588
 20
32.3115
 11
-125.313
 21
32.0536
  0
LINE
  8
0
 10
-125.313
 20
32.0536
 11
-125.073
 21
31.7634
  0
LINE
  8
0
 10
-125.073
 20
31.7634
 11
-124.871
 21
31.4453
  0
LINE
  8
0
 10
-124.871
 20
31.4453
 11
-124.711
 21
31.1044
  0
LINE
  8
0
 10
-124.711
 20
31.1044
 11
-124.594
 21
30.7461
  0
LINE
  8
0
 10
-124.594
 20
30.7461
 11
-124.524
 21
30.376
  0
LINE
  8
0
 10
-124.524
 20
30.376
 11
-124.5
 21
30
  0
LINE
  8
0
 10
-124.5
 20
30
 11
-124.524
 21
29.624
  0
LINE
  8
0
 10
-124.524
 20
29.624
 11
-124.594
 21
29.2539
  0
LINE
  8
0
 10
-124.594
 20
29.2539
 11
-124.711
 21
28.8956
  0
LINE
  8
0
 10
-124.711
 20
28.8956
 11
-124.871
 21
28.5547
  0
LINE
  8
0
 10
-124.871
 20
28.5547
 11
-125.073
 21
28.2366
  0
LINE
  8
0
 10
-125.073
 20
28.2366
 11
-125.313
 21
27.9464
  0
LINE
  8
0
 10
-125.313
 20
27.9464
 11
-125.588
 21
27.6884
  0
LINE
  8
0
 10
-125.588
 20
27.6884
 11
-125.893
 21
27.467
  0
LINE
  8
0
 10
-125.893
 20
27.467
 11
-126.223
 21
27.2855
  0
LINE
  8
0
 10
-126.223
 20
27.2855
 11
-126.573
 21
27.1468
  0
LINE
  8
0
 10
-126.573
 20
27.1468
 11
-126.938
 21
27.0531
  0
LINE
  8
0
 10
-126.938
 20
27.0531
 11
-127.312
 21
27.0059
  0
LINE
  8
0
 10
-127.312
 20
27.0059
 11
-127.688
 21
27.0059
  0
LINE
  8
0
 10
127.312
 20
27.0059
 11
126.938
 21
27.0531
  0
LINE
  8
0
 10
126.938
 20
27.0531
 11
126.573
 21
27.1468
  0
LINE
  8
0
 10
126.573
 20
27.1468
 11
126.223
 21
27.2855
  0
LINE
  8
0
 10
126.223
 20
27.2855
 11
125.893
 21
27.467
  0
LINE
  8
0
 10
125.893
 20
27.467
 11
125.588
 21
27.6884
  0
LINE
  8
0
 10
125.588
 20
27.6884
 11
125.313
 21
27.9464
  0
LINE
  8
0
 10
125.313
 20
27.9464
 11
125.073
 21
28.2366
  0
LINE
  8
0
 10
125.073
 20
28.2366
 11
124.871
 21
28.5547
  0
LINE
  8
0
 10
124.871
 20
28.5547
 11
124.711
 21
28.8956
  0
LINE
  8
0
 10
124.711
 20
28.8956
 11
124.594
 21
29.2539
  0
LINE
  8
0
 10
124.594
 20
29.2539
 11
124.524
 21
29.624
  0
LINE
  8
0
 10
124.524
 20
29.624
 11
124.5
 21
30
  0
LINE
  8
0
 10
124.5
 20
30
 11
124.524
 21
30.376
  0
LINE
  8
0
 10
124.524
 20
30.376
 11
124.594
 21
30.7461
  0
LINE
  8
0
 10
124.594
 20
30.7461
 11
124.711
 21
31.1044
  0
LINE
  8
0
 10
124.711
 20
31.1044
 11
124.871
 21
31.4453
  0
LINE
  8
0
 10
124.871
 20
31.4453
 11
125.073
 21
31.7634
  0
LINE
  8
0
 10
125.073
 20
31.7634
 11
125.313
 21
32.0536
  0
LINE
  8
0
 10
125.313
 20
32.0536
 11
125.588
 21
32.3115
  0
LINE
  8
0
 10
125.588
 20
32.3115
 11
125.893
 21
32.533
  0
LINE
  8
0
 10
125.893
 20
32.533
 11
126.223
 21
32.7145
  0
LINE
  8
0
 10
126.223
 20
32.7145
 11
126.573
 21
32.8532
  0
LINE
  8
0
 10
126.573
 20
32.8532
 11
126.938
 21
32.9469
  0
LINE
  8
0
 10
126.938
 20
32.9469
 11
127.312
 21
32.9941
  0
LINE
  8
0
 10
127.312
 20
32.9941
 11
127.688
 21
32.9941
  0
LINE
  8
0
 10
127.688
 20
32.9941
 11
128.062
 21
32.9469
  0
LINE
  8
0
 10
128.062
 20
32.9469
 11
128.427
 21
32.8532
  0
LINE
  8
0
 10
128.427
 20
32.8532
 11
128.777
 21
32.7145
  0
LINE
  8
0
 10
128.777
 20
32.7145
 11
129.107
 21
32.533
  0
LINE
  8
0
 10
129.107
 20
32.533
 11
129.412
 21
32.3115
  0
LINE
  8
0
 10
129.412
 20
32.3115
 11
129.687
 21
32.0536
  0
LINE
  8
0
 10
129.687
 20
32.0536
 11
129.927
 21
31.7634
  0
LINE
  8
0
 10
129.927
 20
31.7634
 11
130.129
 21
31.4453
  0
LINE
  8
0
 10
130.129
 20
31.4453
 11
130.289
 21
31.1044
  0
LINE
  8
0
 10
130.289
 20
31.1044
 11
130.406
 21
30.7461
  0
LINE
  8
0
 10
130.406
 20
30.7461
 11
130.476
 21
30.376
  0
LINE
  8
0
 10
130.476
 20
30.376
 11
130.5
 21
30
  0
LINE
  8
0
 10
130.5
 20
30
 11
130.476
 21
29.624
  0
LINE
  8
0
 10
130.476
 20
29.624
 11
130.406
 21
29.2539
  0
LINE
  8
0
 10
130.406
 20
29.2539
 11
130.289
 21
28.8956
  0
LINE
  8
0
 10
130.289
 20
28.8956
 11
130.129
 21
28.5547
  0
LINE
  8
0
 10
130.129
 20
28.5547
 11
129.927
 21
28.2366
  0
LINE
  8
0
 10
129.927
 20
28.2366
 11
129.687
 21
27.9464
  0
LINE
  8
0
 10
129.687
 20
27.9464
 11
129.412
 21
27.6884
  0
LINE
  8
0
 10
129.412
 20
27.6884
 11
129.107
 21
27.467
  0
LINE
  8
0
 10
129.107
 20
27.467
 11
128.777
 21
27.2855
  0
LINE
  8
0
 10
128.777
 20
27.2855
 11
128.427
 21
27.1468
  0
LINE
  8
0
 10
128.427
 20
27.1468
 11
128.062
 21
27.0531
  0
LINE
  8
0
 10
128.062
 20
27.0531
 11
127.688
 21
27.0059
  0
LINE
  8
0
 10
127.688
 20
27.0059
 11
127.312
 21
27.0059
  0
LINE
  8
0
 10
-127.594
 20
21.003
 11
-127.781
 21
21.0266
  0
LINE
  8
0
 10
-127.781
 20
21.0266
 11
-127.964
 21
21.0734
  0
LINE
  8
0
 10
-127.964
 20
21.0734
 11
-128.139
 21
21.1427
  0
LINE
  8
0
 10
-128.139
 20
21.1427
 11
-128.304
 21
21.2335
  0
LINE
  8
0
 10
-128.304
 20
21.2335
 11
-128.456
 21
21.3442
  0
LINE
  8
0
 10
-128.456
 20
21.3442
 11
-128.593
 21
21.4732
  0
LINE
  8
0
 10
-128.593
 20
21.4732
 11
-128.714
 21
21.6183
  0
LINE
  8
0
 10
-128.714
 20
21.6183
 11
-128.814
 21
21.7774
  0
LINE
  8
0
 10
-128.814
 20
21.7774
 11
-128.895
 21
21.9478
  0
LINE
  8
0
 10
-128.895
 20
21.9478
 11
-128.953
 21
22.127
  0
LINE
  8
0
 10
-128.953
 20
22.127
 11
-128.988
 21
22.312
  0
LINE
  8
0
 10
-128.988
 20
22.312
 11
-129
 21
22.5
  0
LINE
  8
0
 10
-129
 20
22.5
 11
-128.988
 21
22.688
  0
LINE
  8
0
 10
-128.988
 20
22.688
 11
-128.953
 21
22.873
  0
LINE
  8
0
 10
-128.953
 20
22.873
 11
-128.895
 21
23.0522
  0
LINE
  8
0
 10
-128.895
 20
23.0522
 11
-128.814
 21
23.2226
  0
LINE
  8
0
 10
-128.814
 20
23.2226
 11
-128.714
 21
23.3817
  0
LINE
  8
0
 10
-128.714
 20
23.3817
 11
-128.593
 21
23.5268
  0
LINE
  8
0
 10
-128.593
 20
23.5268
 11
-128.456
 21
23.6558
  0
LINE
  8
0
 10
-128.456
 20
23.6558
 11
-128.304
 21
23.7665
  0
LINE
  8
0
 10
-128.304
 20
23.7665
 11
-128.139
 21
23.8572
  0
LINE
  8
0
 10
-128.139
 20
23.8572
 11
-127.964
 21
23.9266
  0
LINE
  8
0
 10
-127.964
 20
23.9266
 11
-127.781
 21
23.9734
  0
LINE
  8
0
 10
-127.781
 20
23.9734
 11
-127.594
 21
23.997
  0
LINE
  8
0
 10
-127.594
 20
23.997
 11
-127.406
 21
23.997
  0
LINE
  8
0
 10
-127.406
 20
23.997
 11
-127.219
 21
23.9734
  0
LINE
  8
0
 10
-127.219
 20
23.9734
 11
-127.036
 21
23.9266
  0
LINE
  8
0
 10
-127.036
 20
23.9266
 11
-126.861
 21
23.8572
  0
LINE
  8
0
 10
-126.861
 20
23.8572
 11
-126.696
 21
23.7665
  0
LINE
  8
0
 10
-126.696
 20
23.7665
 11
-126.544
 21
23.6558
  0
LINE
  8
0
 10
-126.544
 20
23.6558
 11
-126.407
 21
23.5268
  0
LINE
  8
0
 10
-126.407
 20
23.5268
 11
-126.286
 21
23.3817
  0
LINE
  8
0
 10
-126.286
 20
23.3817
 11
-126.186
 21
23.2226
  0
LINE
  8
0
 10
-126.186
 20
23.2226
 11
-126.105
 21
23.0522
  0
LINE
  8
0
 10
-126.105
 20
23.0522
 11
-126.047
 21
22.873
  0
LINE
  8
0
 10
-126.047
 20
22.873
 11
-126.012
 21
22.688
  0
LINE
  8
0
 10
-126.012
 20
22.688
 11
-126
 21
22.5
  0
LINE
  8
0
 10
-126
 20
22.5
 11
-126.012
 21
22.312
  0
LINE
  8
0
 10
-126.012
 20
22.312
 11
-126.047
 21
22.127
  0
LINE
  8
0
 10
-126.047
 20
22.127
 11
-126.105
 21
21.9478
  0
LINE
  8
0
 10
-126.105
 20
21.9478
 11
-126.186
 21
21.7774
  0
LINE
  8
0
 10
-126.186
 20
21.7774
 11
-126.286
 21
21.6183
  0
LINE
  8
0
 10
-126.286
 20
21.6183
 11
-126.407
 21
21.4732
  0
LINE
  8
0
 10
-126.407
 20
21.4732
 11
-126.544
 21
21.3442
  0
LINE
  8
0
 10
-126.544
 20
21.3442
 11
-126.696
 21
21.2335
  0
LINE
  8
0
 10
-126.696
 20
21.2335
 11
-126.861
 21
21.1427
  0
LINE
  8
0
 10
-126.861
 20
21.1427
 11
-127.036
 21
21.0734
  0
LINE
  8
0
 10
-127.036
 20
21.0734
 11
-127.219
 21
21.0266
  0
LINE
  8
0
 10
-127.219
 20
21.0266
 11
-127.406
 21
21.003
  0
LINE
  8
0
 10
-127.406
 20
21.003
 11
-127.594
 21
21.003
  0
LINE
  8
0
 10
127.406
 20
21.003
 11
127.219
 21
21.0266
  0
LINE
  8
0
 10
127.219
 20
21.0266
 11
127.036
 21
21.0734
  0
LINE
  8
0
 10
127.036
 20
21.0734
 11
126.861
 21
21.1427
  0
LINE
  8
0
 10
126.861
 20
21.1427
 11
126.696
 21
21.2335
  0
LINE
  8
0
 10
126.696
 20
21.2335
 11
126.544
 21
21.3442
  0
LINE
  8
0
 10
126.544
 20
21.3442
 11
126.407
 21
21.4732
  0
LINE
  8
0
 10
126.407
 20
21.4732
 11
126.286
 21
21.6183
  0
LINE
  8
0
 10
126.286
 20
21.6183
 11
126.186
 21
21.7774
  0
LINE
  8
0
 10
126.186
 20
21.7774
 11
126.105
 21
21.9478
  0
LINE
  8
0
 10
126.105
 20
21.9478
 11
126.047
 21
22.127
  0
LINE
  8
0
 10
126.047
 20
22.127
 11
126.012
 21
22.312
  0
LINE
  8
0
 10
126.012
 20
22.312
 11
126
 21
22.5
  0
LINE
  8
0
 10
126
 20
22.5
 11
126.012
 21
22.688
  0
LINE
  8
0
 10
126.012
 20
22.688
 11
126.047
 21
22.873
  0
LINE
  8
0
 10
126.047
 20
22.873
 11
126.105
 21
23.0522
  0
LINE
  8
0
 10
126.105
 20
23.0522
 11
126.186
 21
23.2226
  0
LINE
  8
0
 10
126.186
 20
23.2226
 11
126.286
 21
23.3817
  0
LINE
  8
0
 10
126.286
 20
23.3817
 11
126.407
 21
23.5268
  0
LINE
  8
0
 10
126.407
 20
23.5268
 11
126.544
 21
23.6558
  0
LINE
  8
0
 10
126.544
 20
23.6558
 11
126.696
 21
23.7665
  0
LINE
  8
0
 10
126.696
 20
23.7665
 11
126.861
 21
23.8572
  0
LINE
  8
0
 10
126.861
 20
23.8572
 11
127.036
 21
23.9266
  0
LINE
  8
0
 10
127.036
 20
23.9266
 11
127.219
 21
23.9734
  0
LINE
  8
0
 10
127.219
 20
23.9734
 11
127.406
 21
23.997
  0
LINE
  8
0
 10
127.406
 20
23.997
 11
127.594
 21
23.997
  0
LINE
  8
0
 10
127.594
 20
23.997
 11
127.781
 21
23.9734
  0
LINE
  8
0
 10
127.781
 20
23.9734
 11
127.964
 21
23.9266
  0
LINE
  8
0
 10
127.964
 20
23.9266
 11
128.139
 21
23.8572
  0
LINE
  8
0
 10
128.139
 20
23.8572
 11
128.304
 21
23.7665
  0
LINE
  8
0
 10
128.304
 20
23.7665
 11
128.456
 21
23.6558
  0
LINE
  8
0
 10
128.456
 20
23.6558
 11
128.593
 21
23.5268
  0
LINE
  8
0
 10
128.593
 20
23.5268
 11
128.714
 21
23.3817
  0
LINE
  8
0
 10
128.714
 20
23.3817
 11
128.814
 21
23.2226
  0
LINE
  8
0
 10
128.814
 20
23.2226
 11
128.895
 21
23.0522
  0
LINE
  8
0
 10
128.895
 20
23.0522
 11
128.953
 21
22.873
  0
LINE
  8
0
 10
128.953
 20
22.873
 11
128.988
 21
22.688
  0
LINE
  8
0
 10
128.988
 20
22.688
 11
129
 21
22.5
  0
LINE
  8
0
 10
129
 20
22.5
 11
128.988
 21
22.312
  0
LINE
  8
0
 10
128.988
 20
22.312
 11
128.953
 21
22.127
  0
LINE
  8
0
 10
128.953
 20
22.127
 11
128.895
 21
21.9478
  0
LINE
  8
0
 10
128.895
 20
21.9478
 11
128.814
 21
21.7774
  0
LINE
  8
0
 10
128.814
 20
21.7774
 11
128.714
 21
21.6183
  0
LINE
  8
0
 10
128.714
 20
21.6183
 11
128.593
 21
21.4732
  0
LINE
  8
0
 10
128.593
 20
21.4732
 11
128.456
 21
21.3442
  0
LINE
  8
0
 10
128.456
 20
21.3442
 11
128.304
 21
21.2335
  0
LINE
  8
0
 10
128.304
 20
21.2335
 11
128.139
 21
21.1427
  0
LINE
  8
0
 10
128.139
 20
21.1427
 11
127.964
 21
21.0734
  0
LINE
  8
0
 10
127.964
 20
21.0734
 11
127.781
 21
21.0266
  0
LINE
  8
0
 10
127.781
 20
21.0266
 11
127.594
 21
21.003
  0
LINE
  8
0
 10
127.594
 20
21.003
 11
127.406
 21
21.003
  0
LINE
  8
0
 10
-127.688
 20
12.0059
 11
-128.062
 21
12.0531
  0
LINE
  8
0
 10
-128.062
 20
12.0531
 11
-128.427
 21
12.1468
  0
LINE
  8
0
 10
-128.427
 20
12.1468
 11
-128.777
 21
12.2855
  0
LINE
  8
0
 10
-128.777
 20
12.2855
 11
-129.107
 21
12.467
  0
LINE
  8
0
 10
-129.107
 20
12.467
 11
-129.412
 21
12.6884
  0
LINE
  8
0
 10
-129.412
 20
12.6884
 11
-129.687
 21
12.9464
  0
LINE
  8
0
 10
-129.687
 20
12.9464
 11
-129.927
 21
13.2366
  0
LINE
  8
0
 10
-129.927
 20
13.2366
 11
-130.129
 21
13.5547
  0
LINE
  8
0
 10
-130.129
 20
13.5547
 11
-130.289
 21
13.8956
  0
LINE
  8
0
 10
-130.289
 20
13.8956
 11
-130.406
 21
14.2539
  0
LINE
  8
0
 10
-130.406
 20
14.2539
 11
-130.476
 21
14.624
  0
LINE
  8
0
 10
-130.476
 20
14.624
 11
-130.5
 21
15
  0
LINE
  8
0
 10
-130.5
 20
15
 11
-130.476
 21
15.376
  0
LINE
  8
0
 10
-130.476
 20
15.376
 11
-130.406
 21
15.7461
  0
LINE
  8
0
 10
-130.406
 20
15.7461
 11
-130.289
 21
16.1044
  0
LINE
  8
0
 10
-130.289
 20
16.1044
 11
-130.129
 21
16.4453
  0
LINE
  8
0
 10
-130.129
 20
16.4453
 11
-129.927
 21
16.7634
  0
LINE
  8
0
 10
-129.927
 20
16.7634
 11
-129.687
 21
17.0536
  0
LINE
  8
0
 10
-129.687
 20
17.0536
 11
-129.412
 21
17.3115
  0
LINE
  8
0
 10
-129.412
 20
17.3115
 11
-129.107
 21
17.533
  0
LINE
  8
0
 10
-129.107
 20
17.533
 11
-128.777
 21
17.7145
  0
LINE
  8
0
 10
-128.777
 20
17.7145
 11
-128.427
 21
17.8532
  0
LINE
  8
0
 10
-128.427
 20
17.8532
 11
-128.062
 21
17.9469
  0
LINE
  8
0
 10
-128.062
 20
17.9469
 11
-127.688
 21
17.9941
  0
LINE
  8
0
 10
-127.688
 20
17.9941
 11
-127.312
 21
17.9941
  0
LINE
  8
0
 10
-127.312
 20
17.9941
 11
-126.938
 21
17.9469
  0
LINE
  8
0
 10
-126.938
 20
17.9469
 11
-126.573
 21
17.8532
  0
LINE
  8
0
 10
-126.573
 20
17.8532
 11
-126.223
 21
17.7145
  0
LINE
  8
0
 10
-126.223
 20
17.7145
 11
-125.893
 21
17.533
  0
LINE
  8
0
 10
-125.893
 20
17.533
 11
-125.588
 21
17.3115
  0
LINE
  8
0
 10
-125.588
 20
17.3115
 11
-125.313
 21
17.0536
  0
LINE
  8
0
 10
-125.313
 20
17.0536
 11
-125.073
 21
16.7634
  0
LINE
  8
0
 10
-125.073
 20
16.7634
 11
-124.871
 21
16.4453
  0
LINE
  8
0
 10
-124.871
 20
16.4453
 11
-124.711
 21
16.1044
  0
LINE
  8
0
 10
-124.711
 20
16.1044
 11
-124.594
 21
15.7461
  0
LINE
  8
0
 10
-124.594
 20
15.7461
 11
-124.524
 21
15.376
  0
LINE
  8
0
 10
-124.524
 20
15.376
 11
-124.5
 21
15
  0
LINE
  8
0
 10
-124.5
 20
15
 11
-124.524
 21
14.624
  0
LINE
  8
0
 10
-124.524
 20
14.624
 11
-124.594
 21
14.2539
  0
LINE
  8
0
 10
-124.594
 20
14.2539
 11
-124.711
 21
13.8956
  0
LINE
  8
0
 10
-124.711
 20
13.8956
 11
-124.871
 21
13.5547
  0
LINE
  8
0
 10
-124.871
 20
13.5547
 11
-125.073
 21
13.2366
  0
LINE
  8
0
 10
-125.073
 20
13.2366
 11
-125.313
 21
12.9464
  0
LINE
  8
0
 10
-125.313
 20
12.9464
 11
-125.588
 21
12.6884
  0
LINE
  8
0
 10
-125.588
 20
12.6884
 11
-125.893
 21
12.467
  0
LINE
  8
0
 10
-125.893
 20
12.467
 11
-126.223
 21
12.2855
  0
LINE
  8
0
 10
-126.223
 20
12.2855
 11
-126.573
 21
12.1468
  0
LINE
  8
0
 10
-126.573
 20
12.1468
 11
-126.938
 21
12.0531
  0
LINE
  8
0
 10
-126.938
 20
12.0531
 11
-127.312
 21
12.0059
  0
LINE
  8
0
 10
-127.312
 20
12.0059
 11
-127.688
 21
12.0059
  0
LINE
  8
0
 10
127.312
 20
12.0059
 11
126.938
 21
12.0531
  0
LINE
  8
0
 10
126.938
 20
12.0531
 11
126.573
 21
12.1468
  0
LINE
  8
0
 10
126.573
 20
12.1468
 11
126.223
 21
12.2855
  0
LINE
  8
0
 10
126.223
 20
12.2855
 11
125.893
 21
12.467
  0
LINE
  8
0
 10
125.893
 20
12.467
 11
125.588
 21
12.6884
  0
LINE
  8
0
 10
125.588
 20
12.6884
 11
125.313
 21
12.9464
  0
LINE
  8
0
 10
125.313
 20
12.9464
 11
125.073
 21
13.2366
  0
LINE
  8
0
 10
125.073
 20
13.2366
 11
124.871
 21
13.5547
  0
LINE
  8
0
 10
124.871
 20
13.5547
 11
124.711
 21
13.8956
  0
LINE
  8
0
 10
124.711
 20
13.8956
 11
124.594
 21
14.2539
  0
LINE
  8
0
 10
124.594
 20
14.2539
 11
124.524
 21
14.624
  0
LINE
  8
0
 10
124.524
 20
14.624
 11
124.5
 21
15
  0
LINE
  8
0
 10
124.5
 20
15
 11
124.524
 21
15.376
  0
LINE
  8
0
 10
124.524
 20
15.376
 11
124.594
 21
15.7461
  0
LINE
  8
0
 10
124.594
 20
15.7461
 11
124.711
 21
16.1044
  0
LINE
  8
0
 10
124.711
 20
16.1044
 11
124.871
 21
16.4453
  0
LINE
  8
0
 10
124.871
 20
16.4453
 11
125.073
 21
16.7634
  0
LINE
  8
0
 10
125.073
 20
16.7634
 11
125.313
 21
17.0536
  0
LINE
  8
0
 10
125.313
 20
17.0536
 11
125.588
 21
17.3115
  0
LINE
  8
0
 10
125.588
 20
17.3115
 11
125.893
 21
17.533
  0
LINE
  8
0
 10
125.893
 20
17.533
 11
126.223
 21
17.7145
  0
LINE
  8
0
 10
126.223
 20
17.7145
 11
126.573
 21
17.8532
  0
LINE
  8
0
 10
126.573
 20
17.8532
 11
126.938
 21
17.9469
  0
LINE
  8
0
 10
126.938
 20
17.9469
 11
127.312
 21
17.9941
  0
LINE
  8
0
 10
127.312
 20
17.9941
 11
127.688
 21
17.9941
  0
LINE
  8
0
 10
127.688
 20
17.9941
 11
128.062
 21
17.9469
  0
LINE
  8
0
 10
128.062
 20
17.9469
 11
128.427
 21
17.8532
  0
LINE
  8
0
 10
128.427
 20
17.8532
 11
128.777
 21
17.7145
  0
LINE
  8
0
 10
128.777
 20
17.7145
 11
129.107
 21
17.533
  0
LINE
  8
0
 10
129.107
 20
17.533
 11
129.412
 21
17.3115
  0
LINE
  8
0
 10
129.412
 20
17.3115
 11
129.687
 21
17.0536
  0
LINE
  8
0
 10
129.687
 20
17.0536
 11
129.927
 21
16.7634
  0
LINE
  8
0
 10
129.927
 20
16.7634
 11
130.129
 21
16.4453
  0
LINE
  8
0
 10
130.129
 20
16.4453
 11
130.289
 21
16.1044
  0
LINE
  8
0
 10
130.289
 20
16.1044
 11
130.406
 21
15.7461
  0
LINE
  8
0
 10
130.406
 20
15.7461
 11
130.476
 21
15.376
  0
LINE
  8
0
 10
130.476
 20
15.376
 11
130.5
 21
15
  0
LINE
  8
0
 10
130.5
 20
15
 11
130.476
 21
14.624
  0
LINE
  8
0
 10
130.476
 20
14.624
 11
130.406
 21
14.2539
  0
LINE
  8
0
 10
130.406
 20
14.2539
 11
130.289
 21
13.8956
  0
LINE
  8
0
 10
130.289
 20
13.8956
 11
130.129
 21
13.5547
  0
LINE
  8
0
 10
130.129
 20
13.5547
 11
129.927
 21
13.2366
  0
LINE
  8
0
 10
129.927
 20
13.2366
 11
129.687
 21
12.9464
  0
LINE
  8
0
 10
129.687
 20
12.9464
 11
129.412
 21
12.6884
  0
LINE
  8
0
 10
129.412
 20
12.6884
 11
129.107
 21
12.467
  0
LINE
  8
0
 10
129.107
 20
12.467
 11
128.777
 21
12.2855
  0
LINE
  8
0
 10
128.777
 20
12.2855
 11
128.427
 21
12.1468
  0
LINE
  8
0
 10
128.427
 20
12.1468
 11
128.062
 21
12.0531
  0
LINE
  8
0
 10
128.062
 20
12.0531
 11
127.688
 21
12.0059
  0
LINE
  8
0
 10
127.688
 20
12.0059
 11
127.312
 21
12.0059
  0
LINE
  8
0
 10
-127.594
 20
6.00294
 11
-127.781
 21
6.02657
  0
LINE
  8
0
 10
-127.781
 20
6.02657
 11
-127.964
 21
6.07341
  0
LINE
  8
0
 10
-127.964
 20
6.07341
 11
-128.139
 21
6.14275
  0
LINE
  8
0
 10
-128.139
 20
6.14275
 11
-128.304
 21
6.23351
  0
LINE
  8
0
 10
-128.304
 20
6.23351
 11
-128.456
 21
6.34422
  0
LINE
  8
0
 10
-128.456
 20
6.34422
 11
-128.593
 21
6.47318
  0
LINE
  8
0
 10
-128.593
 20
6.47318
 11
-128.714
 21
6.61832
  0
LINE
  8
0
 10
-128.714
 20
6.61832
 11
-128.814
 21
6.77736
  0
LINE
  8
0
 10
-128.814
 20
6.77736
 11
-128.895
 21
6.9478
  0
LINE
  8
0
 10
-128.895
 20
6.9478
 11
-128.953
 21
7.12695
  0
LINE
  8
0
 10
-128.953
 20
7.12695
 11
-128.988
 21
7.312
  0
LINE
  8
0
 10
-128.988
 20
7.312
 11
-129
 21
7.5
  0
LINE
  8
0
 10
-129
 20
7.5
 11
-128.988
 21
7.68799
  0
LINE
  8
0
 10
-128.988
 20
7.68799
 11
-128.953
 21
7.87303
  0
LINE
  8
0
 10
-128.953
 20
7.87303
 11
-128.895
 21
8.05219
  0
LINE
  8
0
 10
-128.895
 20
8.05219
 11
-128.814
 21
8.22263
  0
LINE
  8
0
 10
-128.814
 20
8.22263
 11
-128.714
 21
8.38167
  0
LINE
  8
0
 10
-128.714
 20
8.38167
 11
-128.593
 21
8.52681
  0
LINE
  8
0
 10
-128.593
 20
8.52681
 11
-128.456
 21
8.65576
  0
LINE
  8
0
 10
-128.456
 20
8.65576
 11
-128.304
 21
8.76648
  0
LINE
  8
0
 10
-128.304
 20
8.76648
 11
-128.139
 21
8.85724
  0
LINE
  8
0
 10
-128.139
 20
8.85724
 11
-127.964
 21
8.92657
  0
LINE
  8
0
 10
-127.964
 20
8.92657
 11
-127.781
 21
8.97342
  0
LINE
  8
0
 10
-127.781
 20
8.97342
 11
-127.594
 21
8.99704
  0
LINE
  8
0
 10
-127.594
 20
8.99704
 11
-127.406
 21
8.99704
  0
LINE
  8
0
 10
-127.406
 20
8.99704
 11
-127.219
 21
8.97342
  0
LINE
  8
0
 10
-127.219
 20
8.97342
 11
-127.036
 21
8.92657
  0
LINE
  8
0
 10
-127.036
 20
8.92657
 11
-126.861
 21
8.85724
  0
LINE
  8
0
 10
-126.861
 20
8.85724
 11
-126.696
 21
8.76648
  0
LINE
  8
0
 10
-126.696
 20
8.76648
 11
-126.544
 21
8.65576
  0
LINE
  8
0
 10
-126.544
 20
8.65576
 11
-126.407
 21
8.52681
  0
LINE
  8
0
 10
-126.407
 20
8.52681
 11
-126.286
 21
8.38167
  0
LINE
  8
0
 10
-126.286
 20
8.38167
 11
-126.186
 21
8.22263
  0
LINE
  8
0
 10
-126.186
 20
8.22263
 11
-126.105
 21
8.05219
  0
LINE
  8
0
 10
-126.105
 20
8.05219
 11
-126.047
 21
7.87303
  0
LINE
  8
0
 10
-126.047
 20
7.87303
 11
-126.012
 21
7.68799
  0
LINE
  8
0
 10
-126.012
 20
7.68799
 11
-126
 21
7.5
  0
LINE
  8
0
 10
-126
 20
7.5
 11
-126.012
 21
7.312
  0
LINE
  8
0
 10
-126.012
 20
7.312
 11
-126.047
 21
7.12695
  0
LINE
  8
0
 10
-126.047
 20
7.12695
 11
-126.105
 21
6.9478
  0
LINE
  8
0
 10
-126.105
 20
6.9478
 11
-126.186
 21
6.77736
  0
LINE
  8
0
 10
-126.186
 20
6.77736
 11
-126.286
 21
6.61832
  0
LINE
  8
0
 10
-126.286
 20
6.61832
 11
-126.407
 21
6.47318
  0
LINE
  8
0
 10
-126.407
 20
6.47318
 11
-126.544
 21
6.34422
  0
LINE
  8
0
 10
-126.544
 20
6.34422
 11
-126.696
 21
6.23351
  0
LINE
  8
0
 10
-126.696
 20
6.23351
 11
-126.861
 21
6.14275
  0
LINE
  8
0
 10
-126.861
 20
6.14275
 11
-127.036
 21
6.07341
  0
LINE
  8
0
 10
-127.036
 20
6.07341
 11
-127.219
 21
6.02657
  0
LINE
  8
0
 10
-127.219
 20
6.02657
 11
-127.406
 21
6.00294
  0
LINE
  8
0
 10
-127.406
 20
6.00294
 11
-127.594
 21
6.00294
  0
LINE
  8
0
 10
127.406
 20
6.00294
 11
127.219
 21
6.02657
  0
LINE
  8
0
 10
127.219
 20
6.02657
 11
127.036
 21
6.07341
  0
LINE
  8
0
 10
127.036
 20
6.07341
 11
126.861
 21
6.14275
  0
LINE
  8
0
 10
126.861
 20
6.14275
 11
126.696
 21
6.23351
  0
LINE
  8
0
 10
126.696
 20
6.23351
 11
126.544
 21
6.34422
  0
LINE
  8
0
 10
126.544
 20
6.34422
 11
126.407
 21
6.47318
  0
LINE
  8
0
 10
126.407
 20
6.47318
 11
126.286
 21
6.61832
  0
LINE
  8
0
 10
126.286
 20
6.61832
 11
126.186
 21
6.77736
  0
LINE
  8
0
 10
126.186
 20
6.77736
 11
126.105
 21
6.9478
  0
LINE
  8
0
 10
126.105
 20
6.9478
 11
126.047
 21
7.12695
  0
LINE
  8
0
 10
126.047
 20
7.12695
 11
126.012
 21
7.312
  0
LINE
  8
0
 10
126.012
 20
7.312
 11
126
 21
7.5
  0
LINE
  8
0
 10
126
 20
7.5
 11
126.012
 21
7.68799
  0
LINE
  8
0
 10
126.012
 20
7.68799
 11
126.047
 21
7.87303
  0
LINE
  8
0
 10
126.047
 20
7.87303
 11
126.105
 21
8.05219
  0
LINE
  8
0
 10
126.105
 20
8.05219
 11
126.186
 21
8.22263
  0
LINE
  8
0
 10
126.186
 20
8.22263
 11
126.286
 21
8.38167
  0
LINE
  8
0
 10
126.286
 20
8.38167
 11
126.407
 21
8.52681
  0
LINE
  8
0
 10
126.407
 20
8.52681
 11
126.544
 21
8.65576
  0
LINE
  8
0
 10
126.544
 20
8.65576
 11
126.696
 21
8.76648
  0
LINE
  8
0
 10
126.696
 20
8.76648
 11
126.861
 21
8.85724
  0
LINE
  8
0
 10
126.861
 20
8.85724
 11
127.036
 21
8.92657
  0
LINE
  8
0
 10
127.036
 20
8.92657
 11
127.219
 21
8.97342
  0
LINE
  8
0
 10
127.219
 20
8.97342
 11
127.406
 21
8.99704
  0
LINE
  8
0
 10
127.406
 20
8.99704
 11
127.594
 21
8.99704
  0
LINE
  8
0
 10
127.594
 20
8.99704
 11
127.781
 21
8.97342
  0
LINE
  8
0
 10
127.781
 20
8.97342
 11
127.964
 21
8.92657
  0
LINE
  8
0
 10
127.964
 20
8.92657
 11
128.139
 21
8.85724
  0
LINE
  8
0
 10
128.139
 20
8.85724
 11
128.304
 21
8.76648
  0
LINE
  8
0
 10
128.304
 20
8.76648
 11
128.456
 21
8.65576
  0
LINE
  8
0
 10
128.456
 20
8.65576
 11
128.593
 21
8.52681
  0
LINE
  8
0
 10
128.593
 20
8.52681
 11
128.714
 21
8.38167
  0
LINE
  8
0
 10
128.714
 20
8.38167
 11
128.814
 21
8.22263
  0
LINE
  8
0
 10
128.814
 20
8.22263
 11
128.895
 21
8.05219
  0
LINE
  8
0
 10
128.895
 20
8.05219
 11
128.953
 21
7.87303
  0
LINE
  8
0
 10
128.953
 20
7.87303
 11
128.988
 21
7.68799
  0
LINE
  8
0
 10
128.988
 20
7.68799
 11
129
 21
7.5
  0
LINE
  8
0
 10
129
 20
7.5
 11
128.988
 21
7.312
  0
LINE
  8
0
 10
128.988
 20
7.312
 11
128.953
 21
7.12695
  0
LINE
  8
0
 10
128.953
 20
7.12695
 11
128.895
 21
6.9478
  0
LINE
  8
0
 10
128.895
 20
6.9478
 11
128.814
 21
6.77736
  0
LINE
  8
0
 10
128.814
 20
6.77736
 11
128.714
 21
6.61832
  0
LINE
  8
0
 10
128.714
 20
6.61832
 11
128.593
 21
6.47318
  0
LINE
  8
0
 10
128.593
 20
6.47318
 11
128.456
 21
6.34422
  0
LINE
  8
0
 10
128.456
 20
6.34422
 11
128.304
 21
6.23351
  0
LINE
  8
0
 10
128.304
 20
6.23351
 11
128.139
 21
6.14275
  0
LINE
  8
0
 10
128.139
 20
6.14275
 11
127.964
 21
6.07341
  0
LINE
  8
0
 10
127.964
 20
6.07341
 11
127.781
 21
6.02657
  0
LINE
  8
0
 10
127.781
 20
6.02657
 11
127.594
 21
6.00294
  0
LINE
  8
0
 10
127.594
 20
6.00294
 11
127.406
 21
6.00294
  0
LINE
  8
0
 10
127.312
 20
-2.99408
 11
126.938
 21
-2.94685
  0
LINE
  8
0
 10
126.938
 20
-2.94685
 11
126.573
 21
-2.85316
  0
LINE
  8
0
 10
126.573
 20
-2.85316
 11
126.223
 21
-2.71448
  0
LINE
  8
0
 10
126.223
 20
-2.71448
 11
125.893
 21
-2.53297
  0
LINE
  8
0
 10
125.893
 20
-2.53297
 11
125.588
 21
-2.31154
  0
LINE
  8
0
 10
125.588
 20
-2.31154
 11
125.313
 21
-2.05363
  0
LINE
  8
0
 10
125.313
 20
-2.05363
 11
125.073
 21
-1.76335
  0
LINE
  8
0
 10
125.073
 20
-1.76335
 11
124.871
 21
-1.44525
  0
LINE
  8
0
 10
124.871
 20
-1.44525
 11
124.711
 21
-1.10437
  0
LINE
  8
0
 10
124.711
 20
-1.10437
 11
124.594
 21
-0.746063
  0
LINE
  8
0
 10
124.594
 20
-0.746063
 11
124.524
 21
-0.375992
  0
LINE
  8
0
 10
124.524
 20
-0.375992
 11
124.5
 21
0
  0
LINE
  8
0
 10
124.5
 20
0
 11
124.524
 21
0.375992
  0
LINE
  8
0
 10
124.524
 20
0.375992
 11
124.594
 21
0.746063
  0
LINE
  8
0
 10
124.594
 20
0.746063
 11
124.711
 21
1.10437
  0
LINE
  8
0
 10
124.711
 20
1.10437
 11
124.871
 21
1.44525
  0
LINE
  8
0
 10
124.871
 20
1.44525
 11
125.073
 21
1.76335
  0
LINE
  8
0
 10
125.073
 20
1.76335
 11
125.313
 21
2.05363
  0
LINE
  8
0
 10
125.313
 20
2.05363
 11
125.588
 21
2.31154
  0
LINE
  8
0
 10
125.588
 20
2.31154
 11
125.893
 21
2.53297
  0
LINE
  8
0
 10
125.893
 20
2.53297
 11
126.223
 21
2.71448
  0
LINE
  8
0
 10
126.223
 20
2.71448
 11
126.573
 21
2.85316
  0
LINE
  8
0
 10
126.573
 20
2.85316
 11
126.938
 21
2.94685
  0
LINE
  8
0
 10
126.938
 20
2.94685
 11
127.312
 21
2.99408
  0
LINE
  8
0
 10
127.312
 20
2.99408
 11
127.688
 21
2.99408
  0
LINE
  8
0
 10
127.688
 20
2.99408
 11
128.062
 21
2.94685
  0
LINE
  8
0
 10
128.062
 20
2.94685
 11
128.427
 21
2.85316
  0
LINE
  8
0
 10
128.427
 20
2.85316
 11
128.777
 21
2.71448
  0
LINE
  8
0
 10
128.777
 20
2.71448
 11
129.107
 21
2.53297
  0
LINE
  8
0
 10
129.107
 20
2.53297
 11
129.412
 21
2.31154
  0
LINE
  8
0
 10
129.412
 20
2.31154
 11
129.687
 21
2.05363
  0
LINE
  8
0
 10
129.687
 20
2.05363
 11
129.927
 21
1.76335
  0
LINE
  8
0
 10
129.927
 20
1.76335
 11
130.129
 21
1.44525
  0
LINE
  8
0
 10
130.129
 20
1.44525
 11
130.289
 21
1.10437
  0
LINE
  8
0
 10
130.289
 20
1.10437
 11
130.406
 21
0.746063
  0
LINE
  8
0
 10
130.406
 20
0.746063
 11
130.476
 21
0.375992
  0
LINE
  8
0
 10
130.476
 20
0.375992
 11
130.5
 21
0
  0
LINE
  8
0
 10
130.5
 20
0
 11
130.476
 21
-0.375992
  0
LINE
  8
0
 10
130.476
 20
-0.375992
 11
130.406
 21
-0.746063
  0
LINE
  8
0
 10
130.406
 20
-0.746063
 11
130.289
 21
-1.10437
  0
LINE
  8
0
 10
130.289
 20
-1.10437
 11
130.129
 21
-1.44525
  0
LINE
  8
0
 10
130.129
 20
-1.44525
 11
129.927
 21
-1.76335
  0
LINE
  8
0
 10
129.927
 20
-1.76335
 11
129.687
 21
-2.05363
  0
LINE
  8
0
 10
129.687
 20
-2.05363
 11
129.412
 21
-2.31154
  0
LINE
  8
0
 10
129.412
 20
-2.31154
 11
129.107
 21
-2.53297
  0
LINE
  8
0
 10
129.107
 20
-2.53297
 11
128.777
 21
-2.71448
  0
LINE
  8
0
 10
128.777
 20
-2.71448
 11
128.427
 21
-2.85316
  0
LINE
  8
0
 10
128.427
 20
-2.85316
 11
128.062
 21
-2.94685
  0
LINE
  8
0
 10
128.062
 20
-2.94685
 11
127.688
 21
-2.99408
  0
LINE
  8
0
 10
127.688
 20
-2.99408
 11
127.312
 21
-2.99408
  0
LINE
  8
0
 10
-127.594
 20
-8.99704
 11
-127.781
 21
-8.97342
  0
LINE
  8
0
 10
-127.781
 20
-8.97342
 11
-127.964
 21
-8.92657
  0
LINE
  8
0
 10
-127.964
 20
-8.92657
 11
-128.139
 21
-8.85724
  0
LINE
  8
0
 10
-128.139
 20
-8.85724
 11
-128.304
 21
-8.76648
  0
LINE
  8
0
 10
-128.304
 20
-8.76648
 11
-128.456
 21
-8.65576
  0
LINE
  8
0
 10
-128.456
 20
-8.65576
 11
-128.593
 21
-8.52681
  0
LINE
  8
0
 10
-128.593
 20
-8.52681
 11
-128.714
 21
-8.38167
  0
LINE
  8
0
 10
-128.714
 20
-8.38167
 11
-128.814
 21
-8.22263
  0
LINE
  8
0
 10
-128.814
 20
-8.22263
 11
-128.895
 21
-8.05219
  0
LINE
  8
0
 10
-128.895
 20
-8.05219
 11
-128.953
 21
-7.87303
  0
LINE
  8
0
 10
-128.953
 20
-7.87303
 11
-128.988
 21
-7.68799
  0
LINE
  8
0
 10
-128.988
 20
-7.68799
 11
-129
 21
-7.5
  0
LINE
  8
0
 10
-129
 20
-7.5
 11
-128.988
 21
-7.312
  0
LINE
  8
0
 10
-128.988
 20
-7.312
 11
-128.953
 21
-7.12695
  0
LINE
  8
0
 10
-128.953
 20
-7.12695
 11
-128.895
 21
-6.9478
  0
LINE
  8
0
 10
-128.895
 20
-6.9478
 11
-128.814
 21
-6.77736
  0
LINE
  8
0
 10
-128.814
 20
-6.77736
 11
-128.714
 21
-6.61832
  0
LINE
  8
0
 10
-128.714
 20
-6.61832
 11
-128.593
 21
-6.47318
  0
LINE
  8
0
 10
-128.593
 20
-6.47318
 11
-128.456
 21
-6.34422
  0
LINE
  8
0
 10
-128.456
 20
-6.34422
 11
-128.304
 21
-6.23351
  0
LINE
  8
0
 10
-128.304
 20
-6.23351
 11
-128.139
 21
-6.14275
  0
LINE
  8
0
 10
-128.139
 20
-6.14275
 11
-127.964
 21
-6.07341
  0
LINE
  8
0
 10
-127.964
 20
-6.07341
 11
-127.781
 21
-6.02657
  0
LINE
  8
0
 10
-127.781
 20
-6.02657
 11
-127.594
 21
-6.00294
  0
LINE
  8
0
 10
-127.594
 20
-6.00294
 11
-127.406
 21
-6.00294
  0
LINE
  8
0
 10
-127.406
 20
-6.00294
 11
-127.219
 21
-6.02657
  0
LINE
  8
0
 10
-127.219
 20
-6.02657
 11
-127.036
 21
-6.07341
  0
LINE
  8
0
 10
-127.036
 20
-6.07341
 11
-126.861
 21
-6.14275
  0
LINE
  8
0
 10
-126.861
 20
-6.14275
 11
-126.696
 21
-6.23351
  0
LINE
  8
0
 10
-126.696
 20
-6.23351
 11
-126.544
 21
-6.34422
  0
LINE
  8
0
 10
-126.544
 20
-6.34422
 11
-126.407
 21
-6.47318
  0
LINE
  8
0
 10
-126.407
 20
-6.47318
 11
-126.286
 21
-6.61832
  0
LINE
  8
0
 10
-126.286
 20
-6.61832
 11
-126.186
 21
-6.77736
  0
LINE
  8
0
 10
-126.186
 20
-6.77736
 11
-126.105
 21
-6.9478
  0
LINE
  8
0
 10
-126.105
 20
-6.9478
 11
-126.047
 21
-7.12695
  0
LINE
  8
0
 10
-126.047
 20
-7.12695
 11
-126.012
 21
-7.312
  0
LINE
  8
0
 10
-126.012
 20
-7.312
 11
-126
 21
-7.5
  0
LINE
  8
0
 10
-126
 20
-7.5
 11
-126.012
 21
-7.68799
  0
LINE
  8
0
 10
-126.012
 20
-7.68799
 11
-126.047
 21
-7.87303
  0
LINE
  8
0
 10
-126.047
 20
-7.87303
 11
-126.105
 21
-8.05219
  0
LINE
  8
0
 10
-126.105
 20
-8.05219
 11
-126.186
 21
-8.22263
  0
LINE
  8
0
 10
-126.186
 20
-8.22263
 11
-126.286
 21
-8.38167
  0
LINE
  8
0
 10
-126.286
 20
-8.38167
 11
-126.407
 21
-8.52681
  0
LINE
  8
0
 10
-126.407
 20
-8.52681
 11
-126.544
 21
-8.65576
  0
LINE
  8
0
 10
-126.544
 20
-8.65576
 11
-126.696
 21
-8.76648
  0
LINE
  8
0
 10
-126.696
 20
-8.76648
 11
-126.861
 21
-8.85724
  0
LINE
  8
0
 10
-126.861
 20
-8.85724
 11
-127.036
 21
-8.92657
  0
LINE
  8
0
 10
-127.036
 20
-8.92657
 11
-127.219
 21
-8.97342
  0
LINE
  8
0
 10
-127.219
 20
-8.97342
 11
-127.406
 21
-8.99704
  0
LINE
  8
0
 10
-127.406
 20
-8.99704
 11
-127.594
 21
-8.99704
  0
LINE
  8
0
 10
127.406
 20
-8.99704
 11
127.219
 21
-8.97342
  0
LINE
  8
0
 10
127.219
 20
-8.97342
 11
127.036
 21
-8.92657
  0
LINE
  8
0
 10
127.036
 20
-8.92657
 11
126.861
 21
-8.85724
  0
LINE
  8
0
 10
126.861
 20
-8.85724
 11
126.696
 21
-8.76648
  0
LINE
  8
0
 10
126.696
 20
-8.76648
 11
126.544
 21
-8.65576
  0
LINE
  8
0
 10
126.544
 20
-8.65576
 11
126.407
 21
-8.52681
  0
LINE
  8
0
 10
126.407
 20
-8.52681
 11
126.286
 21
-8.38167
  0
LINE
  8
0
 10
126.286
 20
-8.38167
 11
126.186
 21
-8.22263
  0
LINE
  8
0
 10
126.186
 20
-8.22263
 11
126.105
 21
-8.05219
  0
LINE
  8
0
 10
126.105
 20
-8.05219
 11
126.047
 21
-7.87303
  0
LINE
  8
0
 10
126.047
 20
-7.87303
 11
126.012
 21
-7.68799
  0
LINE
  8
0
 10
126.012
 20
-7.68799
 11
126
 21
-7.5
  0
LINE
  8
0
 10
126
 20
-7.5
 11
126.012
 21
-7.312
  0
LINE
  8
0
 10
126.012
 20
-7.312
 11
126.047
 21
-7.12695
  0
LINE
  8
0
 10
126.047
 20
-7.12695
 11
126.105
 21
-6.9478
  0
LINE
  8
0
 10
126.105
 20
-6.9478
 11
126.186
 21
-6.77736
  0
LINE
  8
0
 10
126.186
 20
-6.77736
 11
126.286
 21
-6.61832
  0
LINE
  8
0
 10
126.286
 20
-6.61832
 11
126.407
 21
-6.47318
  0
LINE
  8
0
 10
126.407
 20
-6.47318
 11
126.544
 21
-6.34422
  0
LINE
  8
0
 10
126.544
 20
-6.34422
 11
126.696
 21
-6.23351
  0
LINE
  8
0
 10
126.696
 20
-6.23351
 11
126.861
 21
-6.14275
  0
LINE
  8
0
 10
126.861
 20
-6.14275
 11
127.036
 21
-6.07341
  0
LINE
  8
0
 10
127.036
 20
-6.07341
 11
127.219
 21
-6.02657
  0
LINE
  8
0
 10
127.219
 20
-6.02657
 11
127.406
 21
-6.00294
  0
LINE
  8
0
 10
127.406
 20
-6.00294
 11
127.594
 21
-6.00294
  0
LINE
  8
0
 10
127.594
 20
-6.00294
 11
127.781
 21
-6.02657
  0
LINE
  8
0
 10
127.781
 20
-6.02657
 11
127.964
 21
-6.07341
  0
LINE
  8
0
 10
127.964
 20
-6.07341
 11
128.139
 21
-6.14275
  0
LINE
  8
0
 10
128.139
 20
-6.14275
 11
128.304
 21
-6.23351
  0
LINE
  8
0
 10
128.304
 20
-6.23351
 11
128.456
 21
-6.34422
  0
LINE
  8
0
 10
128.456
 20
-6.34422
 11
128.593
 21
-6.47318
  0
LINE
  8
0
 10
128.593
 20
-6.47318
 11
128.714
 21
-6.61832
  0
LINE
  8
0
 10
128.714
 20
-6.61832
 11
128.814
 21
-6.77736
  0
LINE
  8
0
 10
128.814
 20
-6.77736
 11
128.895
 21
-6.9478
  0
LINE
  8
0
 10
128.895
 20
-6.9478
 11
128.953
 21
-7.12695
  0
LINE
  8
0
 10
128.953
 20
-7.12695
 11
128.988
 21
-7.312
  0
LINE
  8
0
 10
128.988
 20
-7.312
 11
129
 21
-7.5
  0
LINE
  8
0
 10
129
 20
-7.5
 11
128.988
 21
-7.68799
  0
LINE
  8
0
 10
128.988
 20
-7.68799
 11
128.953
 21
-7.87303
  0
LINE
  8
0
 10
128.953
 20
-7.87303
 11
128.895
 21
-8.05219
  0
LINE
  8
0
 10
128.895
 20
-8.05219
 11
128.814
 21
-8.22263
  0
LINE
  8
0
 10
128.814
 20
-8.22263
 11
128.714
 21
-8.38167
  0
LINE
  8
0
 10
128.714
 20
-8.38167
 11
128.593
 21
-8.52681
  0
LINE
  8
0
 10
128.593
 20
-8.52681
 11
128.456
 21
-8.65576
  0
LINE
  8
0
 10
128.456
 20
-8.65576
 11
128.304
 21
-8.76648
  0
LINE
  8
0
 10
128.304
 20
-8.76648
 11
128.139
 21
-8.85724
  0
LINE
  8
0
 10
128.139
 20
-8.85724
 11
127.964
 21
-8.92657
  0
LINE
  8
0
 10
127.964
 20
-8.92657
 11
127.781
 21
-8.97342
  0
LINE
  8
0
 10
127.781
 20
-8.97342
 11
127.594
 21
-8.99704
  0
LINE
  8
0
 10
127.594
 20
-8.99704
 11
127.406
 21
-8.99704
  0
LINE
  8
0
 10
127.312
 20
-17.9941
 11
126.938
 21
-17.9469
  0
LINE
  8
0
 10
126.938
 20
-17.9469
 11
126.573
 21
-17.8532
  0
LINE
  8
0
 10
126.573
 20
-17.8532
 11
126.223
 21
-17.7145
  0
LINE
  8
0
 10
126.223
 20
-17.7145
 11
125.893
 21
-17.533
  0
LINE
  8
0
 10
125.893
 20
-17.533
 11
125.588
 21
-17.3115
  0
LINE
  8
0
 10
125.588
 20
-17.3115
 11
125.313
 21
-17.0536
  0
LINE
  8
0
 10
125.313
 20
-17.0536
 11
125.073
 21
-16.7634
  0
LINE
  8
0
 10
125.073
 20
-16.7634
 11
124.871
 21
-16.4453
  0
LINE
  8
0
 10
124.871
 20
-16.4453
 11
124.711
 21
-16.1044
  0
LINE
  8
0
 10
124.711
 20
-16.1044
 11
124.594
 21
-15.7461
  0
LINE
  8
0
 10
124.594
 20
-15.7461
 11
124.524
 21
-15.376
  0
LINE
  8
0
 10
124.524
 20
-15.376
 11
124.5
 21
-15
  0
LINE
  8
0
 10
124.5
 20
-15
 11
124.524
 21
-14.624
  0
LINE
  8
0
 10
124.524
 20
-14.624
 11
124.594
 21
-14.2539
  0
LINE
  8
0
 10
124.594
 20
-14.2539
 11
124.711
 21
-13.8956
  0
LINE
  8
0
 10
124.711
 20
-13.8956
 11
124.871
 21
-13.5547
  0
LINE
  8
0
 10
124.871
 20
-13.5547
 11
125.073
 21
-13.2366
  0
LINE
  8
0
 10
125.073
 20
-13.2366
 11
125.313
 21
-12.9464
  0
LINE
  8
0
 10
125.313
 20
-12.9464
 11
125.588
 21
-12.6884
  0
LINE
  8
0
 10
125.588
 20
-12.6884
 11
125.893
 21
-12.467
  0
LINE
  8
0
 10
125.893
 20
-12.467
 11
126.223
 21
-12.2855
  0
LINE
  8
0
 10
126.223
 20
-12.2855
 11
126.573
 21
-12.1468
  0
LINE
  8
0
 10
126.573
 20
-12.1468
 11
126.938
 21
-12.0531
  0
LINE
  8
0
 10
126.938
 20
-12.0531
 11
127.312
 21
-12.0059
  0
LINE
  8
0
 10
127.312
 20
-12.0059
 11
127.688
 21
-12.0059
  0
LINE
  8
0
 10
127.688
 20
-12.0059
 11
128.062
 21
-12.0531
  0
LINE
  8
0
 10
128.062
 20
-12.0531
 11
128.427
 21
-12.1468
  0
LINE
  8
0
 10
128.427
 20
-12.1468
 11
128.777
 21
-12.2855
  0
LINE
  8
0
 10
128.777
 20
-12.2855
 11
129.107
 21
-12.467
  0
LINE
  8
0
 10
129.107
 20
-12.467
 11
129.412
 21
-12.6884
  0
LINE
  8
0
 10
129.412
 20
-12.6884
 11
129.687
 21
-12.9464
  0
LINE
  8
0
 10
129.687
 20
-12.9464
 11
129.927
 21
-13.2366
  0
LINE
  8
0
 10
129.927
 20
-13.2366
 11
130.129
 21
-13.5547
  0
LINE
  8
0
 10
130.129
 20
-13.5547
 11
130.289
 21
-13.8956
  0
LINE
  8
0
 10
130.289
 20
-13.8956
 11
130.406
 21
-14.2539
  0
LINE
  8
0
 10
130.406
 20
-14.2539
 11
130.476
 21
-14.624
  0
LINE
  8
0
 10
130.476
 20
-14.624
 11
130.5
 21
-15
  0
LINE
  8
0
 10
130.5
 20
-15
 11
130.476
 21
-15.376
  0
LINE
  8
0
 10
130.476
 20
-15.376
 11
130.406
 21
-15.7461
  0
LINE
  8
0
 10
130.406
 20
-15.7461
 11
130.289
 21
-16.1044
  0
LINE
  8
0
 10
130.289
 20
-16.1044
 11
130.129
 21
-16.4453
  0
LINE
  8
0
 10
130.129
 20
-16.4453
 11
129.927
 21
-16.7634
  0
LINE
  8
0
 10
129.927
 20
-16.7634
 11
129.687
 21
-17.0536
  0
LINE
  8
0
 10
129.687
 20
-17.0536
 11
129.412
 21
-17.3115
  0
LINE
  8
0
 10
129.412
 20
-17.3115
 11
129.107
 21
-17.533
  0
LINE
  8
0
 10
129.107
 20
-17.533
 11
128.777
 21
-17.7145
  0
LINE
  8
0
 10
128.777
 20
-17.7145
 11
128.427
 21
-17.8532
  0
LINE
  8
0
 10
128.427
 20
-17.8532
 11
128.062
 21
-17.9469
  0
LINE
  8
0
 10
128.062
 20
-17.9469
 11
127.688
 21
-17.9941
  0
LINE
  8
0
 10
127.688
 20
-17.9941
 11
127.312
 21
-17.9941
  0
LINE
  8
0
 10
-127.688
 20
-17.9941
 11
-128.062
 21
-17.9469
  0
LINE
  8
0
 10
-128.062
 20
-17.9469
 11
-128.427
 21
-17.8532
  0
LINE
  8
0
 10
-128.427
 20
-17.8532
 11
-128.777
 21
-17.7145
  0
LINE
  8
0
 10
-128.777
 20
-17.7145
 11
-129.107
 21
-17.533
  0
LINE
  8
0
 10
-129.107
 20
-17.533
 11
-129.412
 21
-17.3115
  0
LINE
  8
0
 10
-129.412
 20
-17.3115
 11
-129.687
 21
-17.0536
  0
LINE
  8
0
 10
-129.687
 20
-17.0536
 11
-129.927
 21
-16.7634
  0
LINE
  8
0
 10
-129.927
 20
-16.7634
 11
-130.129
 21
-16.4453
  0
LINE
  8
0
 10
-130.129
 20
-16.4453
 11
-130.289
 21
-16.1044
  0
LINE
  8
0
 10
-130.289
 20
-16.1044
 11
-130.406
 21
-15.7461
  0
LINE
  8
0
 10
-130.406
 20
-15.7461
 11
-130.476
 21
-15.376
  0
LINE
  8
0
 10
-130.476
 20
-15.376
 11
-130.5
 21
-15
  0
LINE
  8
0
 10
-130.5
 20
-15
 11
-130.476
 21
-14.624
  0
LINE
  8
0
 10
-130.476
 20
-14.624
 11
-130.406
 21
-14.2539
  0
LINE
  8
0
 10
-130.406
 20
-14.2539
 11
-130.289
 21
-13.8956
  0
LINE
  8
0
 10
-130.289
 20
-13.8956
 11
-130.129
 21
-13.5547
  0
LINE
  8
0
 10
-130.129
 20
-13.5547
 11
-129.927
 21
-13.2366
  0
LINE
  8
0
 10
-129.927
 20
-13.2366
 11
-129.687
 21
-12.9464
  0
LINE
  8
0
 10
-129.687
 20
-12.9464
 11
-129.412
 21
-12.6884
  0
LINE
  8
0
 10
-129.412
 20
-12.6884
 11
-129.107
 21
-12.467
  0
LINE
  8
0
 10
-129.107
 20
-12.467
 11
-128.777
 21
-12.2855
  0
LINE
  8
0
 10
-128.777
 20
-12.2855
 11
-128.427
 21
-12.1468
  0
LINE
  8
0
 10
-128.427
 20
-12.1468
 11
-128.062
 21
-12.0531
  0
LINE
  8
0
 10
-128.062
 20
-12.0531
 11
-127.688
 21
-12.0059
  0
LINE
  8
0
 10
-127.688
 20
-12.0059
 11
-127.312
 21
-12.0059
  0
LINE
  8
0
 10
-127.312
 20
-12.0059
 11
-126.938
 21
-12.0531
  0
LINE
  8
0
 10
-126.938
 20
-12.0531
 11
-126.573
 21
-12.1468
  0
LINE
  8
0
 10
-126.573
 20
-12.1468
 11
-126.223
 21
-12.2855
  0
LINE
  8
0
 10
-126.223
 20
-12.2855
 11
-125.893
 21
-12.467
  0
LINE
  8
0
 10
-125.893
 20
-12.467
 11
-125.588
 21
-12.6884
  0
LINE
  8
0
 10
-125.588
 20
-12.6884
 11
-125.313
 21
-12.9464
  0
LINE
  8
0
 10
-125.313
 20
-12.9464
 11
-125.073
 21
-13.2366
  0
LINE
  8
0
 10
-125.073
 20
-13.2366
 11
-124.871
 21
-13.5547
  0
LINE
  8
0
 10
-124.871
 20
-13.5547
 11
-124.711
 21
-13.8956
  0
LINE
  8
0
 10
-124.711
 20
-13.8956
 11
-124.594
 21
-14.2539
  0
LINE
  8
0
 10
-124.594
 20
-14.2539
 11
-124.524
 21
-14.624
  0
LINE
  8
0
 10
-124.524
 20
-14.624
 11
-124.5
 21
-15
  0
LINE
  8
0
 10
-124.5
 20
-15
 11
-124.524
 21
-15.376
  0
LINE
  8
0
 10
-124.524
 20
-15.376
 11
-124.594
 21
-15.7461
  0
LINE
  8
0
 10
-124.594
 20
-15.7461
 11
-124.711
 21
-16.1044
  0
LINE
  8
0
 10
-124.711
 20
-16.1044
 11
-124.871
 21
-16.4453
  0
LINE
  8
0
 10
-124.871
 20
-16.4453
 11
-125.073
 21
-16.7634
  0
LINE
  8
0
 10
-125.073
 20
-16.7634
 11
-125.313
 21
-17.0536
  0
LINE
  8
0
 10
-125.313
 20
-17.0536
 11
-125.588
 21
-17.3115
  0
LINE
  8
0
 10
-125.588
 20
-17.3115
 11
-125.893
 21
-17.533
  0
LINE
  8
0
 10
-125.893
 20
-17.533
 11
-126.223
 21
-17.7145
  0
LINE
  8
0
 10
-126.223
 20
-17.7145
 11
-126.573
 21
-17.8532
  0
LINE
  8
0
 10
-126.573
 20
-17.8532
 11
-126.938
 21
-17.9469
  0
LINE
  8
0
 10
-126.938
 20
-17.9469
 11
-127.312
 21
-17.9941
  0
LINE
  8
0
 10
-127.312
 20
-17.9941
 11
-127.688
 21
-17.9941
  0
LINE
  8
0
 10
-127.594
 20
-23.997
 11
-127.781
 21
-23.9734
  0
LINE
  8
0
 10
-127.781
 20
-23.9734
 11
-127.964
 21
-23.9266
  0
LINE
  8
0
 10
-127.964
 20
-23.9266
 11
-128.139
 21
-23.8572
  0
LINE
  8
0
 10
-128.139
 20
-23.8572
 11
-128.304
 21
-23.7665
  0
LINE
  8
0
 10
-128.304
 20
-23.7665
 11
-128.456
 21
-23.6558
  0
LINE
  8
0
 10
-128.456
 20
-23.6558
 11
-128.593
 21
-23.5268
  0
LINE
  8
0
 10
-128.593
 20
-23.5268
 11
-128.714
 21
-23.3817
  0
LINE
  8
0
 10
-128.714
 20
-23.3817
 11
-128.814
 21
-23.2226
  0
LINE
  8
0
 10
-128.814
 20
-23.2226
 11
-128.895
 21
-23.0522
  0
LINE
  8
0
 10
-128.895
 20
-23.0522
 11
-128.953
 21
-22.873
  0
LINE
  8
0
 10
-128.953
 20
-22.873
 11
-128.988
 21
-22.688
  0
LINE
  8
0
 10
-128.988
 20
-22.688
 11
-129
 21
-22.5
  0
LINE
  8
0
 10
-129
 20
-22.5
 11
-128.988
 21
-22.312
  0
LINE
  8
0
 10
-128.988
 20
-22.312
 11
-128.953
 21
-22.127
  0
LINE
  8
0
 10
-128.953
 20
-22.127
 11
-128.895
 21
-21.9478
  0
LINE
  8
0
 10
-128.895
 20
-21.9478
 11
-128.814
 21
-21.7774
  0
LINE
  8
0
 10
-128.814
 20
-21.7774
 11
-128.714
 21
-21.6183
  0
LINE
  8
0
 10
-128.714
 20
-21.6183
 11
-128.593
 21
-21.4732
  0
LINE
  8
0
 10
-128.593
 20
-21.4732
 11
-128.456
 21
-21.3442
  0
LINE
  8
0
 10
-128.456
 20
-21.3442
 11
-128.304
 21
-21.2335
  0
LINE
  8
0
 10
-128.304
 20
-21.2335
 11
-128.139
 21
-21.1427
  0
LINE
  8
0
 10
-128.139
 20
-21.1427
 11
-127.964
 21
-21.0734
  0
LINE
  8
0
 10
-127.964
 20
-21.0734
 11
-127.781
 21
-21.0266
  0
LINE
  8
0
 10
-127.781
 20
-21.0266
 11
-127.594
 21
-21.003
  0
LINE
  8
0
 10
-127.594
 20
-21.003
 11
-127.406
 21
-21.003
  0
LINE
  8
0
 10
-127.406
 20
-21.003
 11
-127.219
 21
-21.0266
  0
LINE
  8
0
 10
-127.219
 20
-21.0266
 11
-127.036
 21
-21.0734
  0
LINE
  8
0
 10
-127.036
 20
-21.0734
 11
-126.861
 21
-21.1427
  0
LINE
  8
0
 10
-126.861
 20
-21.1427
 11
-126.696
 21
-21.2335
  0
LINE
  8
0
 10
-126.696
 20
-21.2335
 11
-126.544
 21
-21.3442
  0
LINE
  8
0
 10
-126.544
 20
-21.3442
 11
-126.407
 21
-21.4732
  0
LINE
  8
0
 10
-126.407
 20
-21.4732
 11
-126.286
 21
-21.6183
  0
LINE
  8
0
 10
-126.286
 20
-21.6183
 11
-126.186
 21
-21.7774
  0
LINE
  8
0
 10
-126.186
 20
-21.7774
 11
-126.105
 21
-21.9478
  0
LINE
  8
0
 10
-126.105
 20
-21.9478
 11
-126.047
 21
-22.127
  0
LINE
  8
0
 10
-126.047
 20
-22.127
 11
-126.012
 21
-22.312
  0
LINE
  8
0
 10
-126.012
 20
-22.312
 11
-126
 21
-22.5
  0
LINE
  8
0
 10
-126
 20
-22.5
 11
-126.012
 21
-22.688
  0
LINE
  8
0
 10
-126.012
 20
-22.688
 11
-126.047
 21
-22.873
  0
LINE
  8
0
 10
-126.047
 20
-22.873
 11
-126.105
 21
-23.0522
  0
LINE
  8
0
 10
-126.105
 20
-23.0522
 11
-126.186
 21
-23.2226
  0
LINE
  8
0
 10
-126.186
 20
-23.2226
 11
-126.286
 21
-23.3817
  0
LINE
  8
0
 10
-126.286
 20
-23.3817
 11
-126.407
 21
-23.5268
  0
LINE
  8
0
 10
-126.407
 20
-23.5268
 11
-126.544
 21
-23.6558
  0
LINE
  8
0
 10
-126.544
 20
-23.6558
 11
-126.696
 21
-23.7665
  0
LINE
  8
0
 10
-126.696
 20
-23.7665
 11
-126.861
 21
-23.8572
  0
LINE
  8
0
 10
-126.861
 20
-23.8572
 11
-127.036
 21
-23.9266
  0
LINE
  8
0
 10
-127.036
 20
-23.9266
 11
-127.219
 21
-23.9734
  0
LINE
  8
0
 10
-127.219
 20
-23.9734
 11
-127.406
 21
-23.997
  0
LINE
  8
0
 10
-127.406
 20
-23.997
 11
-127.594
 21
-23.997
  0
LINE
  8
0
 10
127.406
 20
-23.997
 11
127.219
 21
-23.9734
  0
LINE
  8
0
 10
127.219
 20
-23.9734
 11
127.036
 21
-23.9266
  0
LINE
  8
0
 10
127.036
 20
-23.9266
 11
126.861
 21
-23.8572
  0
LINE
  8
0
 10
126.861
 20
-23.8572
 11
126.696
 21
-23.7665
  0
LINE
  8
0
 10
126.696
 20
-23.7665
 11
126.544
 21
-23.6558
  0
LINE
  8
0
 10
126.544
 20
-23.6558
 11
126.407
 21
-23.5268
  0
LINE
  8
0
 10
126.407
 20
-23.5268
 11
126.286
 21
-23.3817
  0
LINE
  8
0
 10
126.286
 20
-23.3817
 11
126.186
 21
-23.2226
  0
LINE
  8
0
 10
126.186
 20
-23.2226
 11
126.105
 21
-23.0522
  0
LINE
  8
0
 10
126.105
 20
-23.0522
 11
126.047
 21
-22.873
  0
LINE
  8
0
 10
126.047
 20
-22.873
 11
126.012
 21
-22.688
  0
LINE
  8
0
 10
126.012
 20
-22.688
 11
126
 21
-22.5
  0
LINE
  8
0
 10
126
 20
-22.5
 11
126.012
 21
-22.312
  0
LINE
  8
0
 10
126.012
 20
-22.312
 11
126.047
 21
-22.127
  0
LINE
  8
0
 10
126.047
 20
-22.127
 11
126.105
 21
-21.9478
  0
LINE
  8
0
 10
126.105
 20
-21.9478
 11
126.186
 21
-21.7774
  0
LINE
  8
0
 10
126.186
 20
-21.7774
 11
126.286
 21
-21.6183
  0
LINE
  8
0
 10
126.286
 20
-21.6183
 11
126.407
 21
-21.4732
  0
LINE
  8
0
 10
126.407
 20
-21.4732
 11
126.544
 21
-21.3442
  0
LINE
  8
0
 10
126.544
 20
-21.3442
 11
126.696
 21
-21.2335
  0
LINE
  8
0
 10
126.696
 20
-21.2335
 11
126.861
 21
-21.1427
  0
LINE
  8
0
 10
126.861
 20
-21.1427
 11
127.036
 21
-21.0734
  0
LINE
  8
0
 10
127.036
 20
-21.0734
 11
127.219
 21
-21.0266
  0
LINE
  8
0
 10
127.219
 20
-21.0266
 11
127.406
 21
-21.003
  0
LINE
  8
0
 10
127.406
 20
-21.003
 11
127.594
 21
-21.003
  0
LINE
  8
0
 10
127.594
 20
-21.003
 11
127.781
 21
-21.0266
  0
LINE
  8
0
 10
127.781
 20
-21.0266
 11
127.964
 21
-21.0734
  0
LINE
  8
0
 10
127.964
 20
-21.0734
 11
128.139
 21
-21.1427
  0
LINE
  8
0
 10
128.139
 20
-21.1427
 11
128.304
 21
-21.2335
  0
LINE
  8
0
 10
128.304
 20
-21.2335
 11
128.456
 21
-21.3442
  0
LINE
  8
0
 10
128.456
 20
-21.3442
 11
128.593
 21
-21.4732
  0
LINE
  8
0
 10
128.593
 20
-21.4732
 11
128.714
 21
-21.6183
  0
LINE
  8
0
 10
128.714
 20
-21.6183
 11
128.814
 21
-21.7774
  0
LINE
  8
0
 10
128.814
 20
-21.7774
 11
128.895
 21
-21.9478
  0
LINE
  8
0
 10
128.895
 20
-21.9478
 11
128.953
 21
-22.127
  0
LINE
  8
0
 10
128.953
 20
-22.127
 11
128.988
 21
-22.312
  0
LINE
  8
0
 10
128.988
 20
-22.312
 11
129
 21
-22.5
  0
LINE
  8
0
 10
129
 20
-22.5
 11
128.988
 21
-22.688
  0
LINE
  8
0
 10
128.988
 20
-22.688
 11
128.953
 21
-22.873
  0
LINE
  8
0
 10
128.953
 20
-22.873
 11
128.895
 21
-23.0522
  0
LINE
  8
0
 10
128.895
 20
-23.0522
 11
128.814
 21
-23.2226
  0
LINE
  8
0
 10
128.814
 20
-23.2226
 11
128.714
 21
-23.3817
  0
LINE
  8
0
 10
128.714
 20
-23.3817
 11
128.593
 21
-23.5268
  0
LINE
  8
0
 10
128.593
 20
-23.5268
 11
128.456
 21
-23.6558
  0
LINE
  8
0
 10
128.456
 20
-23.6558
 11
128.304
 21
-23.7665
  0
LINE
  8
0
 10
128.304
 20
-23.7665
 11
128.139
 21
-23.8572
  0
LINE
  8
0
 10
128.139
 20
-23.8572
 11
127.964
 21
-23.9266
  0
LINE
  8
0
 10
127.964
 20
-23.9266
 11
127.781
 21
-23.9734
  0
LINE
  8
0
 10
127.781
 20
-23.9734
 11
127.594
 21
-23.997
  0
LINE
  8
0
 10
127.594
 20
-23.997
 11
127.406
 21
-23.997
  0
LINE
  8
0
 10
-127.688
 20
-32.9941
 11
-128.062
 21
-32.9469
  0
LINE
  8
0
 10
-128.062
 20
-32.9469
 11
-128.427
 21
-32.8532
  0
LINE
  8
0
 10
-128.427
 20
-32.8532
 11
-128.777
 21
-32.7145
  0
LINE
  8
0
 10
-128.777
 20
-32.7145
 11
-129.107
 21
-32.533
  0
LINE
  8
0
 10
-129.107
 20
-32.533
 11
-129.412
 21
-32.3115
  0
LINE
  8
0
 10
-129.412
 20
-32.3115
 11
-129.687
 21
-32.0536
  0
LINE
  8
0
 10
-129.687
 20
-32.0536
 11
-129.927
 21
-31.7634
  0
LINE
  8
0
 10
-129.927
 20
-31.7634
 11
-130.129
 21
-31.4453
  0
LINE
  8
0
 10
-130.129
 20
-31.4453
 11
-130.289
 21
-31.1044
  0
LINE
  8
0
 10
-130.289
 20
-31.1044
 11
-130.406
 21
-30.7461
  0
LINE
  8
0
 10
-130.406
 20
-30.7461
 11
-130.476
 21
-30.376
  0
LINE
  8
0
 10
-130.476
 20
-30.376
 11
-130.5
 21
-30
  0
LINE
  8
0
 10
-130.5
 20
-30
 11
-130.476
 21
-29.624
  0
LINE
  8
0
 10
-130.476
 20
-29.624
 11
-130.406
 21
-29.2539
  0
LINE
  8
0
 10
-130.406
 20
-29.2539
 11
-130.289
 21
-28.8956
  0
LINE
  8
0
 10
-130.289
 20
-28.8956
 11
-130.129
 21
-28.5547
  0
LINE
  8
0
 10
-130.129
 20
-28.5547
 11
-129.927
 21
-28.2366
  0
LINE
  8
0
 10
-129.927
 20
-28.2366
 11
-129.687
 21
-27.9464
  0
LINE
  8
0
 10
-129.687
 20
-27.9464
 11
-129.412
 21
-27.6884
  0
LINE
  8
0
 10
-129.412
 20
-27.6884
 11
-129.107
 21
-27.467
  0
LINE
  8
0
 10
-129.107
 20
-27.467
 11
-128.777
 21
-27.2855
  0
LINE
  8
0
 10
-128.777
 20
-27.2855
 11
-128.427
 21
-27.1468
  0
LINE
  8
0
 10
-128.427
 20
-27.1468
 11
-128.062
 21
-27.0531
  0
LINE
  8
0
 10
-128.062
 20
-27.0531
 11
-127.688
 21
-27.0059
  0
LINE
  8
0
 10
-127.688
 20
-27.0059
 11
-127.312
 21
-27.0059
  0
LINE
  8
0
 10
-127.312
 20
-27.0059
 11
-126.938
 21
-27.0531
  0
LINE
  8
0
 10
-126.938
 20
-27.0531
 11
-126.573
 21
-27.1468
  0
LINE
  8
0
 10
-126.573
 20
-27.1468
 11
-126.223
 21
-27.2855
  0
LINE
  8
0
 10
-126.223
 20
-27.2855
 11
-125.893
 21
-27.467
  0
LINE
  8
0
 10
-125.893
 20
-27.467
 11
-125.588
 21
-27.6884
  0
LINE
  8
0
 10
-125.588
 20
-27.6884
 11
-125.313
 21
-27.9464
  0
LINE
  8
0
 10
-125.313
 20
-27.9464
 11
-125.073
 21
-28.2366
  0
LINE
  8
0
 10
-125.073
 20
-28.2366
 11
-124.871
 21
-28.5547
  0
LINE
  8
0
 10
-124.871
 20
-28.5547
 11
-124.711
 21
-28.8956
  0
LINE
  8
0
 10
-124.711
 20
-28.8956
 11
-124.594
 21
-29.2539
  0
LINE
  8
0
 10
-124.594
 20
-29.2539
 11
-124.524
 21
-29.624
  0
LINE
  8
0
 10
-124.524
 20
-29.624
 11
-124.5
 21
-30
  0
LINE
  8
0
 10
-124.5
 20
-30
 11
-124.524
 21
-30.376
  0
LINE
  8
0
 10
-124.524
 20
-30.376
 11
-124.594
 21
-30.7461
  0
LINE
  8
0
 10
-124.594
 20
-30.7461
 11
-124.711
 21
-31.1044
  0
LINE
  8
0
 10
-124.711
 20
-31.1044
 11
-124.871
 21
-31.4453
  0
LINE
  8
0
 10
-124.871
 20
-31.4453
 11
-125.073
 21
-31.7634
  0
LINE
  8
0
 10
-125.073
 20
-31.7634
 11
-125.313
 21
-32.0536
  0
LINE
  8
0
 10
-125.313
 20
-32.0536
 11
-125.588
 21
-32.3115
  0
LINE
  8
0
 10
-125.588
 20
-32.3115
 11
-125.893
 21
-32.533
  0
LINE
  8
0
 10
-125.893
 20
-32.533
 11
-126.223
 21
-32.7145
  0
LINE
  8
0
 10
-126.223
 20
-32.7145
 11
-126.573
 21
-32.8532
  0
LINE
  8
0
 10
-126.573
 20
-32.8532
 11
-126.938
 21
-32.9469
  0
LINE
  8
0
 10
-126.938
 20
-32.9469
 11
-127.312
 21
-32.9941
  0
LINE
  8
0
 10
-127.312
 20
-32.9941
 11
-127.688
 21
-32.9941
  0
LINE
  8
0
 10
127.312
 20
-32.9941
 11
126.938
 21
-32.9469
  0
LINE
  8
0
 10
126.938
 20
-32.9469
 11
126.573
 21
-32.8532
  0
LINE
  8
0
 10
126.573
 20
-32.8532
 11
126.223
 21
-32.7145
  0
LINE
  8
0
 10
126.223
 20
-32.7145
 11
125.893
 21
-32.533
  0
LINE
  8
0
 10
125.893
 20
-32.533
 11
125.588
 21
-32.3115
  0
LINE
  8
0
 10
125.588
 20
-32.3115
 11
125.313
 21
-32.0536
  0
LINE
  8
0
 10
125.313
 20
-32.0536
 11
125.073
 21
-31.7634
  0
LINE
  8
0
 10
125.073
 20
-31.7634
 11
124.871
 21
-31.4453
  0
LINE
  8
0
 10
124.871
 20
-31.4453
 11
124.711
 21
-31.1044
  0
LINE
  8
0
 10
124.711
 20
-31.1044
 11
124.594
 21
-30.7461
  0
LINE
  8
0
 10
124.594
 20
-30.7461
 11
124.524
 21
-30.376
  0
LINE
  8
0
 10
124.524
 20
-30.376
 11
124.5
 21
-30
  0
LINE
  8
0
 10
124.5
 20
-30
 11
124.524
 21
-29.624
  0
LINE
  8
0
 10
124.524
 20
-29.624
 11
124.594
 21
-29.2539
  0
LINE
  8
0
 10
124.594
 20
-29.2539
 11
124.711
 21
-28.8956
  0
LINE
  8
0
 10
124.711
 20
-28.8956
 11
124.871
 21
-28.5547
  0
LINE
  8
0
 10
124.871
 20
-28.5547
 11
125.073
 21
-28.2366
  0
LINE
  8
0
 10
125.073
 20
-28.2366
 11
125.313
 21
-27.9464
  0
LINE
  8
0
 10
125.313
 20
-27.9464
 11
125.588
 21
-27.6884
  0
LINE
  8
0
 10
125.588
 20
-27.6884
 11
125.893
 21
-27.467
  0
LINE
  8
0
 10
125.893
 20
-27.467
 11
126.223
 21
-27.2855
  0
LINE
  8
0
 10
126.223
 20
-27.2855
 11
126.573
 21
-27.1468
  0
LINE
  8
0
 10
126.573
 20
-27.1468
 11
126.938
 21
-27.0531
  0
LINE
  8
0
 10
126.938
 20
-27.0531
 11
127.312
 21
-27.0059
  0
LINE
  8
0
 10
127.312
 20
-27.0059
 11
127.688
 21
-27.0059
  0
LINE
  8
0
 10
127.688
 20
-27.0059
 11
128.062
 21
-27.0531
  0
LINE
  8
0
 10
128.062
 20
-27.0531
 11
128.427
 21
-27.1468
  0
LINE
  8
0
 10
128.427
 20
-27.1468
 11
128.777
 21
-27.2855
  0
LINE
  8
0
 10
128.777
 20
-27.2855
 11
129.107
 21
-27.467
  0
LINE
  8
0
 10
129.107
 20
-27.467
 11
129.412
 21
-27.6884
  0
LINE
  8
0
 10
129.412
 20
-27.6884
 11
129.687
 21
-27.9464
  0
LINE
  8
0
 10
129.687
 20
-27.9464
 11
129.927
 21
-28.2366
  0
LINE
  8
0
 10
129.927
 20
-28.2366
 11
130.129
 21
-28.5547
  0
LINE
  8
0
 10
130.129
 20
-28.5547
 11
130.289
 21
-28.8956
  0
LINE
  8
0
 10
130.289
 20
-28.8956
 11
130.406
 21
-29.2539
  0
LINE
  8
0
 10
130.406
 20
-29.2539
 11
130.476
 21
-29.624
  0
LINE
  8
0
 10
130.476
 20
-29.624
 11
130.5
 21
-30
  0
LINE
  8
0
 10
130.5
 20
-30
 11
130.476
 21
-30.376
  0
LINE
  8
0
 10
130.476
 20
-30.376
 11
130.406
 21
-30.7461
  0
LINE
  8
0
 10
130.406
 20
-30.7461
 11
130.289
 21
-31.1044
  0
LINE
  8
0
 10
130.289
 20
-31.1044
 11
130.129
 21
-31.4453
  0
LINE
  8
0
 10
130.129
 20
-31.4453
 11
129.927
 21
-31.7634
  0
LINE
  8
0
 10
129.927
 20
-31.7634
 11
129.687
 21
-32.0536
  0
LINE
  8
0
 10
129.687
 20
-32.0536
 11
129.412
 21
-32.3115
  0
LINE
  8
0
 10
129.412
 20
-32.3115
 11
129.107
 21
-32.533
  0
LINE
  8
0
 10
129.107
 20
-32.533
 11
128.777
 21
-32.7145
  0
LINE
  8
0
 10
128.777
 20
-32.7145
 11
128.427
 21
-32.8532
  0
LINE
  8
0
 10
128.427
 20
-32.8532
 11
128.062
 21
-32.9469
  0
LINE
  8
0
 10
128.062
 20
-32.9469
 11
127.688
 21
-32.9941
  0
LINE
  8
0
 10
127.688
 20
-32.9941
 11
127.312
 21
-32.9941
  0
LINE
  8
0
 10
127.406
 20
-38.997
 11
127.219
 21
-38.9734
  0
LINE
  8
0
 10
127.219
 20
-38.9734
 11
127.036
 21
-38.9266
  0
LINE
  8
0
 10
127.036
 20
-38.9266
 11
126.861
 21
-38.8572
  0
LINE
  8
0
 10
126.861
 20
-38.8572
 11
126.696
 21
-38.7665
  0
LINE
  8
0
 10
126.696
 20
-38.7665
 11
126.544
 21
-38.6558
  0
LINE
  8
0
 10
126.544
 20
-38.6558
 11
126.407
 21
-38.5268
  0
LINE
  8
0
 10
126.407
 20
-38.5268
 11
126.286
 21
-38.3817
  0
LINE
  8
0
 10
126.286
 20
-38.3817
 11
126.186
 21
-38.2226
  0
LINE
  8
0
 10
126.186
 20
-38.2226
 11
126.105
 21
-38.0522
  0
LINE
  8
0
 10
126.105
 20
-38.0522
 11
126.047
 21
-37.873
  0
LINE
  8
0
 10
126.047
 20
-37.873
 11
126.012
 21
-37.688
  0
LINE
  8
0
 10
126.012
 20
-37.688
 11
126
 21
-37.5
  0
LINE
  8
0
 10
126
 20
-37.5
 11
126.012
 21
-37.312
  0
LINE
  8
0
 10
126.012
 20
-37.312
 11
126.047
 21
-37.127
  0
LINE
  8
0
 10
126.047
 20
-37.127
 11
126.105
 21
-36.9478
  0
LINE
  8
0
 10
126.105
 20
-36.9478
 11
126.186
 21
-36.7774
  0
LINE
  8
0
 10
126.186
 20
-36.7774
 11
126.286
 21
-36.6183
  0
LINE
  8
0
 10
126.286
 20
-36.6183
 11
126.407
 21
-36.4732
  0
LINE
  8
0
 10
126.407
 20
-36.4732
 11
126.544
 21
-36.3442
  0
LINE
  8
0
 10
126.544
 20
-36.3442
 11
126.696
 21
-36.2335
  0
LINE
  8
0
 10
126.696
 20
-36.2335
 11
126.861
 21
-36.1428
  0
LINE
  8
0
 10
126.861
 20
-36.1428
 11
127.036
 21
-36.0734
  0
LINE
  8
0
 10
127.036
 20
-36.0734
 11
127.219
 21
-36.0266
  0
LINE
  8
0
 10
127.219
 20
-36.0266
 11
127.406
 21
-36.003
  0
LINE
  8
0
 10
127.406
 20
-36.003
 11
127.594
 21
-36.003
  0
LINE
  8
0
 10
127.594
 20
-36.003
 11
127.781
 21
-36.0266
  0
LINE
  8
0
 10
127.781
 20
-36.0266
 11
127.964
 21
-36.0734
  0
LINE
  8
0
 10
127.964
 20
-36.0734
 11
128.139
 21
-36.1428
  0
LINE
  8
0
 10
128.139
 20
-36.1428
 11
128.304
 21
-36.2335
  0
LINE
  8
0
 10
128.304
 20
-36.2335
 11
128.456
 21
-36.3442
  0
LINE
  8
0
 10
128.456
 20
-36.3442
 11
128.593
 21
-36.4732
  0
LINE
  8
0
 10
128.593
 20
-36.4732
 11
128.714
 21
-36.6183
  0
LINE
  8
0
 10
128.714
 20
-36.6183
 11
128.814
 21
-36.7774
  0
LINE
  8
0
 10
128.814
 20
-36.7774
 11
128.895
 21
-36.9478
  0
LINE
  8
0
 10
128.895
 20
-36.9478
 11
128.953
 21
-37.127
  0
LINE
  8
0
 10
128.953
 20
-37.127
 11
128.988
 21
-37.312
  0
LINE
  8
0
 10
128.988
 20
-37.312
 11
129
 21
-37.5
  0
LINE
  8
0
 10
129
 20
-37.5
 11
128.988
 21
-37.688
  0
LINE
  8
0
 10
128.988
 20
-37.688
 11
128.953
 21
-37.873
  0
LINE
  8
0
 10
128.953
 20
-37.873
 11
128.895
 21
-38.0522
  0
LINE
  8
0
 10
128.895
 20
-38.0522
 11
128.814
 21
-38.2226
  0
LINE
  8
0
 10
128.814
 20
-38.2226
 11
128.714
 21
-38.3817
  0
LINE
  8
0
 10
128.714
 20
-38.3817
 11
128.593
 21
-38.5268
  0
LINE
  8
0
 10
128.593
 20
-38.5268
 11
128.456
 21
-38.6558
  0
LINE
  8
0
 10
128.456
 20
-38.6558
 11
128.304
 21
-38.7665
  0
LINE
  8
0
 10
128.304
 20
-38.7665
 11
128.139
 21
-38.8572
  0
LINE
  8
0
 10
128.139
 20
-38.8572
 11
127.964
 21
-38.9266
  0
LINE
  8
0
 10
127.964
 20
-38.9266
 11
127.781
 21
-38.9734
  0
LINE
  8
0
 10
127.781
 20
-38.9734
 11
127.594
 21
-38.997
  0
LINE
  8
0
 10
127.594
 20
-38.997
 11
127.406
 21
-38.997
  0
LINE
  8
0
 10
-127.594
 20
-38.997
 11
-127.781
 21
-38.9734
  0
LINE
  8
0
 10
-127.781
 20
-38.9734
 11
-127.964
 21
-38.9266
  0
LINE
  8
0
 10
-127.964
 20
-38.9266
 11
-128.139
 21
-38.8572
  0
LINE
  8
0
 10
-128.139
 20
-38.8572
 11
-128.304
 21
-38.7665
  0
LINE
  8
0
 10
-128.304
 20
-38.7665
 11
-128.456
 21
-38.6558
  0
LINE
  8
0
 10
-128.456
 20
-38.6558
 11
-128.593
 21
-38.5268
  0
LINE
  8
0
 10
-128.593
 20
-38.5268
 11
-128.714
 21
-38.3817
  0
LINE
  8
0
 10
-128.714
 20
-38.3817
 11
-128.814
 21
-38.2226
  0
LINE
  8
0
 10
-128.814
 20
-38.2226
 11
-128.895
 21
-38.0522
  0
LINE
  8
0
 10
-128.895
 20
-38.0522
 11
-128.953
 21
-37.873
  0
LINE
  8
0
 10
-128.953
 20
-37.873
 11
-128.988
 21
-37.688
  0
LINE
  8
0
 10
-128.988
 20
-37.688
 11
-129
 21
-37.5
  0
LINE
  8
0
 10
-129
 20
-37.5
 11
-128.988
 21
-37.312
  0
LINE
  8
0
 10
-128.988
 20
-37.312
 11
-128.953
 21
-37.127
  0
LINE
  8
0
 10
-128.953
 20
-37.127
 11
-128.895
 21
-36.9478
  0
LINE
  8
0
 10
-128.895
 20
-36.9478
 11
-128.814
 21
-36.7774
  0
LINE
  8
0
 10
-128.814
 20
-36.7774
 11
-128.714
 21
-36.6183
  0
LINE
  8
0
 10
-128.714
 20
-36.6183
 11
-128.593
 21
-36.4732
  0
LINE
  8
0
 10
-128.593
 20
-36.4732
 11
-128.456
 21
-36.3442
  0
LINE
  8
0
 10
-128.456
 20
-36.3442
 11
-128.304
 21
-36.2335
  0
LINE
  8
0
 10
-128.304
 20
-36.2335
 11
-128.139
 21
-36.1428
  0
LINE
  8
0
 10
-128.139
 20
-36.1428
 11
-127.964
 21
-36.0734
  0
LINE
  8
0
 10
-127.964
 20
-36.0734
 11
-127.781
 21
-36.0266
  0
LINE
  8
0
 10
-127.781
 20
-36.0266
 11
-127.594
 21
-36.003
  0
LINE
  8
0
 10
-127.594
 20
-36.003
 11
-127.406
 21
-36.003
  0
LINE
  8
0
 10
-127.406
 20
-36.003
 11
-127.219
 21
-36.0266
  0
LINE
  8
0
 10
-127.219
 20
-36.0266
 11
-127.036
 21
-36.0734
  0
LINE
  8
0
 10
-127.036
 20
-36.0734
 11
-126.861
 21
-36.1428
  0
LINE
  8
0
 10
-126.861
 20
-36.1428
 11
-126.696
 21
-36.2335
  0
LINE
  8
0
 10
-126.696
 20
-36.2335
 11
-126.544
 21
-36.3442
  0
LINE
  8
0
 10
-126.544
 20
-36.3442
 11
-126.407
 21
-36.4732
  0
LINE
  8
0
 10
-126.407
 20
-36.4732
 11
-126.286
 21
-36.6183
  0
LINE
  8
0
 10
-126.286
 20
-36.6183
 11
-126.186
 21
-36.7774
  0
LINE
  8
0
 10
-126.186
 20
-36.7774
 11
-126.105
 21
-36.9478
  0
LINE
  8
0
 10
-126.105
 20
-36.9478
 11
-126.047
 21
-37.127
  0
LINE
  8
0
 10
-126.047
 20
-37.127
 11
-126.012
 21
-37.312
  0
LINE
  8
0
 10
-126.012
 20
-37.312
 11
-126
 21
-37.5
  0
LINE
  8
0
 10
-126
 20
-37.5
 11
-126.012
 21
-37.688
  0
LINE
  8
0
 10
-126.012
 20
-37.688
 11
-126.047
 21
-37.873
  0
LINE
  8
0
 10
-126.047
 20
-37.873
 11
-126.105
 21
-38.0522
  0
LINE
  8
0
 10
-126.105
 20
-38.0522
 11
-126.186
 21
-38.2226
  0
LINE
  8
0
 10
-126.186
 20
-38.2226
 11
-126.286
 21
-38.3817
  0
LINE
  8
0
 10
-126.286
 20
-38.3817
 11
-126.407
 21
-38.5268
  0
LINE
  8
0
 10
-126.407
 20
-38.5268
 11
-126.544
 21
-38.6558
  0
LINE
  8
0
 10
-126.544
 20
-38.6558
 11
-126.696
 21
-38.7665
  0
LINE
  8
0
 10
-126.696
 20
-38.7665
 11
-126.861
 21
-38.8572
  0
LINE
  8
0
 10
-126.861
 20
-38.8572
 11
-127.036
 21
-38.9266
  0
LINE
  8
0
 10
-127.036
 20
-38.9266
 11
-127.219
 21
-38.9734
  0
LINE
  8
0
 10
-127.219
 20
-38.9734
 11
-127.406
 21
-38.997
  0
LINE
  8
0
 10
-127.406
 20
-38.997
 11
-127.594
 21
-38.997
  0
LINE
  8
0
 10
127.312
 20
-47.9941
 11
126.938
 21
-47.9469
  0
LINE
  8
0
 10
126.938
 20
-47.9469
 11
126.573
 21
-47.8532
  0
LINE
  8
0
 10
126.573
 20
-47.8532
 11
126.223
 21
-47.7145
  0
LINE
  8
0
 10
126.223
 20
-47.7145
 11
125.893
 21
-47.533
  0
LINE
  8
0
 10
125.893
 20
-47.533
 11
125.588
 21
-47.3115
  0
LINE
  8
0
 10
125.588
 20
-47.3115
 11
125.313
 21
-47.0536
  0
LINE
  8
0
 10
125.313
 20
-47.0536
 11
125.073
 21
-46.7634
  0
LINE
  8
0
 10
125.073
 20
-46.7634
 11
124.871
 21
-46.4453
  0
LINE
  8
0
 10
124.871
 20
-46.4453
 11
124.711
 21
-46.1044
  0
LINE
  8
0
 10
124.711
 20
-46.1044
 11
124.594
 21
-45.7461
  0
LINE
  8
0
 10
124.594
 20
-45.7461
 11
124.524
 21
-45.376
  0
LINE
  8
0
 10
124.524
 20
-45.376
 11
124.5
 21
-45
  0
LINE
  8
0
 10
124.5
 20
-45
 11
124.524
 21
-44.624
  0
LINE
  8
0
 10
124.524
 20
-44.624
 11
124.594
 21
-44.2539
  0
LINE
  8
0
 10
124.594
 20
-44.2539
 11
124.711
 21
-43.8956
  0
LINE
  8
0
 10
124.711
 20
-43.8956
 11
124.871
 21
-43.5547
  0
LINE
  8
0
 10
124.871
 20
-43.5547
 11
125.073
 21
-43.2366
  0
LINE
  8
0
 10
125.073
 20
-43.2366
 11
125.313
 21
-42.9464
  0
LINE
  8
0
 10
125.313
 20
-42.9464
 11
125.588
 21
-42.6885
  0
LINE
  8
0
 10
125.588
 20
-42.6885
 11
125.893
 21
-42.467
  0
LINE
  8
0
 10
125.893
 20
-42.467
 11
126.223
 21
-42.2855
  0
LINE
  8
0
 10
126.223
 20
-42.2855
 11
126.573
 21
-42.1468
  0
LINE
  8
0
 10
126.573
 20
-42.1468
 11
126.938
 21
-42.0531
  0
LINE
  8
0
 10
126.938
 20
-42.0531
 11
127.312
 21
-42.0059
  0
LINE
  8
0
 10
127.312
 20
-42.0059
 11
127.688
 21
-42.0059
  0
LINE
  8
0
 10
127.688
 20
-42.0059
 11
128.062
 21
-42.0531
  0
LINE
  8
0
 10
128.062
 20
-42.0531
 11
128.427
 21
-42.1468
  0
LINE
  8
0
 10
128.427
 20
-42.1468
 11
128.777
 21
-42.2855
  0
LINE
  8
0
 10
128.777
 20
-42.2855
 11
129.107
 21
-42.467
  0
LINE
  8
0
 10
129.107
 20
-42.467
 11
129.412
 21
-42.6885
  0
LINE
  8
0
 10
129.412
 20
-42.6885
 11
129.687
 21
-42.9464
  0
LINE
  8
0
 10
129.687
 20
-42.9464
 11
129.927
 21
-43.2366
  0
LINE
  8
0
 10
129.927
 20
-43.2366
 11
130.129
 21
-43.5547
  0
LINE
  8
0
 10
130.129
 20
-43.5547
 11
130.289
 21
-43.8956
  0
LINE
  8
0
 10
130.289
 20
-43.8956
 11
130.406
 21
-44.2539
  0
LINE
  8
0
 10
130.406
 20
-44.2539
 11
130.476
 21
-44.624
  0
LINE
  8
0
 10
130.476
 20
-44.624
 11
130.5
 21
-45
  0
LINE
  8
0
 10
130.5
 20
-45
 11
130.476
 21
-45.376
  0
LINE
  8
0
 10
130.476
 20
-45.376
 11
130.406
 21
-45.7461
  0
LINE
  8
0
 10
130.406
 20
-45.7461
 11
130.289
 21
-46.1044
  0
LINE
  8
0
 10
130.289
 20
-46.1044
 11
130.129
 21
-46.4453
  0
LINE
  8
0
 10
130.129
 20
-46.4453
 11
129.927
 21
-46.7634
  0
LINE
  8
0
 10
129.927
 20
-46.7634
 11
129.687
 21
-47.0536
  0
LINE
  8
0
 10
129.687
 20
-47.0536
 11
129.412
 21
-47.3115
  0
LINE
  8
0
 10
129.412
 20
-47.3115
 11
129.107
 21
-47.533
  0
LINE
  8
0
 10
129.107
 20
-47.533
 11
128.777
 21
-47.7145
  0
LINE
  8
0
 10
128.777
 20
-47.7145
 11
128.427
 21
-47.8532
  0
LINE
  8
0
 10
128.427
 20
-47.8532
 11
128.062
 21
-47.9469
  0
LINE
  8
0
 10
128.062
 20
-47.9469
 11
127.688
 21
-47.9941
  0
LINE
  8
0
 10
127.688
 20
-47.9941
 11
127.312
 21
-47.9941
  0
LINE
  8
0
 10
-127.688
 20
-47.9941
 11
-128.062
 21
-47.9469
  0
LINE
  8
0
 10
-128.062
 20
-47.9469
 11
-128.427
 21
-47.8532
  0
LINE
  8
0
 10
-128.427
 20
-47.8532
 11
-128.777
 21
-47.7145
  0
LINE
  8
0
 10
-128.777
 20
-47.7145
 11
-129.107
 21
-47.533
  0
LINE
  8
0
 10
-129.107
 20
-47.533
 11
-129.412
 21
-47.3115
  0
LINE
  8
0
 10
-129.412
 20
-47.3115
 11
-129.687
 21
-47.0536
  0
LINE
  8
0
 10
-129.687
 20
-47.0536
 11
-129.927
 21
-46.7634
  0
LINE
  8
0
 10
-129.927
 20
-46.7634
 11
-130.129
 21
-46.4453
  0
LINE
  8
0
 10
-130.129
 20
-46.4453
 11
-130.289
 21
-46.1044
  0
LINE
  8
0
 10
-130.289
 20
-46.1044
 11
-130.406
 21
-45.7461
  0
LINE
  8
0
 10
-130.406
 20
-45.7461
 11
-130.476
 21
-45.376
  0
LINE
  8
0
 10
-130.476
 20
-45.376
 11
-130.5
 21
-45
  0
LINE
  8
0
 10
-130.5
 20
-45
 11
-130.476
 21
-44.624
  0
LINE
  8
0
 10
-130.476
 20
-44.624
 11
-130.406
 21
-44.2539
  0
LINE
  8
0
 10
-130.406
 20
-44.2539
 11
-130.289
 21
-43.8956
  0
LINE
  8
0
 10
-130.289
 20
-43.8956
 11
-130.129
 21
-43.5547
  0
LINE
  8
0
 10
-130.129
 20
-43.5547
 11
-129.927
 21
-43.2366
  0
LINE
  8
0
 10
-129.927
 20
-43.2366
 11
-129.687
 21
-42.9464
  0
LINE
  8
0
 10
-129.687
 20
-42.9464
 11
-129.412
 21
-42.6885
  0
LINE
  8
0
 10
-129.412
 20
-42.6885
 11
-129.107
 21
-42.467
  0
LINE
  8
0
 10
-129.107
 20
-42.467
 11
-128.777
 21
-42.2855
  0
LINE
  8
0
 10
-128.777
 20
-42.2855
 11
-128.427
 21
-42.1468
  0
LINE
  8
0
 10
-128.427
 20
-42.1468
 11
-128.062
 21
-42.0531
  0
LINE
  8
0
 10
-128.062
 20
-42.0531
 11
-127.688
 21
-42.0059
  0
LINE
  8
0
 10
-127.688
 20
-42.0059
 11
-127.312
 21
-42.0059
  0
LINE
  8
0
 10
-127.312
 20
-42.0059
 11
-126.938
 21
-42.0531
  0
LINE
  8
0
 10
-126.938
 20
-42.0531
 11
-126.573
 21
-42.1468
  0
LINE
  8
0
 10
-126.573
 20
-42.1468
 11
-126.223
 21
-42.2855
  0
LINE
  8
0
 10
-126.223
 20
-42.2855
 11
-125.893
 21
-42.467
  0
LINE
  8
0
 10
-125.893
 20
-42.467
 11
-125.588
 21
-42.6885
  0
LINE
  8
0
 10
-125.588
 20
-42.6885
 11
-125.313
 21
-42.9464
  0
LINE
  8
0
 10
-125.313
 20
-42.9464
 11
-125.073
 21
-43.2366
  0
LINE
  8
0
 10
-125.073
 20
-43.2366
 11
-124.871
 21
-43.5547
  0
LINE
  8
0
 10
-124.871
 20
-43.5547
 11
-124.711
 21
-43.8956
  0
LINE
  8
0
 10
-124.711
 20
-43.8956
 11
-124.594
 21
-44.2539
  0
LINE
  8
0
 10
-124.594
 20
-44.2539
 11
-124.524
 21
-44.624
  0
LINE
  8
0
 10
-124.524
 20
-44.624
 11
-124.5
 21
-45
  0
LINE
  8
0
 10
-124.5
 20
-45
 11
-124.524
 21
-45.376
  0
LINE
  8
0
 10
-124.524
 20
-45.376
 11
-124.594
 21
-45.7461
  0
LINE
  8
0
 10
-124.594
 20
-45.7461
 11
-124.711
 21
-46.1044
  0
LINE
  8
0
 10
-124.711
 20
-46.1044
 11
-124.871
 21
-46.4453
  0
LINE
  8
0
 10
-124.871
 20
-46.4453
 11
-125.073
 21
-46.7634
  0
LINE
  8
0
 10
-125.073
 20
-46.7634
 11
-125.313
 21
-47.0536
  0
LINE
  8
0
 10
-125.313
 20
-47.0536
 11
-125.588
 21
-47.3115
  0
LINE
  8
0
 10
-125.588
 20
-47.3115
 11
-125.893
 21
-47.533
  0
LINE
  8
0
 10
-125.893
 20
-47.533
 11
-126.223
 21
-47.7145
  0
LINE
  8
0
 10
-126.223
 20
-47.7145
 11
-126.573
 21
-47.8532
  0
LINE
  8
0
 10
-126.573
 20
-47.8532
 11
-126.938
 21
-47.9469
  0
LINE
  8
0
 10
-126.938
 20
-47.9469
 11
-127.312
 21
-47.9941
  0
LINE
  8
0
 10
-127.312
 20
-47.9941
 11
-127.688
 21
-47.9941
  0
LINE
  8
0
 10
-127.594
 20
-53.997
 11
-127.781
 21
-53.9734
  0
LINE
  8
0
 10
-127.781
 20
-53.9734
 11
-127.964
 21
-53.9266
  0
LINE
  8
0
 10
-127.964
 20
-53.9266
 11
-128.139
 21
-53.8572
  0
LINE
  8
0
 10
-128.139
 20
-53.8572
 11
-128.304
 21
-53.7665
  0
LINE
  8
0
 10
-128.304
 20
-53.7665
 11
-128.456
 21
-53.6558
  0
LINE
  8
0
 10
-128.456
 20
-53.6558
 11
-128.593
 21
-53.5268
  0
LINE
  8
0
 10
-128.593
 20
-53.5268
 11
-128.714
 21
-53.3817
  0
LINE
  8
0
 10
-128.714
 20
-53.3817
 11
-128.814
 21
-53.2226
  0
LINE
  8
0
 10
-128.814
 20
-53.2226
 11
-128.895
 21
-53.0522
  0
LINE
  8
0
 10
-128.895
 20
-53.0522
 11
-128.953
 21
-52.873
  0
LINE
  8
0
 10
-128.953
 20
-52.873
 11
-128.988
 21
-52.688
  0
LINE
  8
0
 10
-128.988
 20
-52.688
 11
-129
 21
-52.5
  0
LINE
  8
0
 10
-129
 20
-52.5
 11
-128.988
 21
-52.312
  0
LINE
  8
0
 10
-128.988
 20
-52.312
 11
-128.953
 21
-52.127
  0
LINE
  8
0
 10
-128.953
 20
-52.127
 11
-128.895
 21
-51.9478
  0
LINE
  8
0
 10
-128.895
 20
-51.9478
 11
-128.814
 21
-51.7774
  0
LINE
  8
0
 10
-128.814
 20
-51.7774
 11
-128.714
 21
-51.6183
  0
LINE
  8
0
 10
-128.714
 20
-51.6183
 11
-128.593
 21
-51.4732
  0
LINE
  8
0
 10
-128.593
 20
-51.4732
 11
-128.456
 21
-51.3442
  0
LINE
  8
0
 10
-128.456
 20
-51.3442
 11
-128.304
 21
-51.2335
  0
LINE
  8
0
 10
-128.304
 20
-51.2335
 11
-128.139
 21
-51.1428
  0
LINE
  8
0
 10
-128.139
 20
-51.1428
 11
-127.964
 21
-51.0734
  0
LINE
  8
0
 10
-127.964
 20
-51.0734
 11
-127.781
 21
-51.0266
  0
LINE
  8
0
 10
-127.781
 20
-51.0266
 11
-127.594
 21
-51.003
  0
LINE
  8
0
 10
-127.594
 20
-51.003
 11
-127.406
 21
-51.003
  0
LINE
  8
0
 10
-127.406
 20
-51.003
 11
-127.219
 21
-51.0266
  0
LINE
  8
0
 10
-127.219
 20
-51.0266
 11
-127.036
 21
-51.0734
  0
LINE
  8
0
 10
-127.036
 20
-51.0734
 11
-126.861
 21
-51.1428
  0
LINE
  8
0
 10
-126.861
 20
-51.1428
 11
-126.696
 21
-51.2335
  0
LINE
  8
0
 10
-126.696
 20
-51.2335
 11
-126.544
 21
-51.3442
  0
LINE
  8
0
 10
-126.544
 20
-51.3442
 11
-126.407
 21
-51.4732
  0
LINE
  8
0
 10
-126.407
 20
-51.4732
 11
-126.286
 21
-51.6183
  0
LINE
  8
0
 10
-126.286
 20
-51.6183
 11
-126.186
 21
-51.7774
  0
LINE
  8
0
 10
-126.186
 20
-51.7774
 11
-126.105
 21
-51.9478
  0
LINE
  8
0
 10
-126.105
 20
-51.9478
 11
-126.047
 21
-52.127
  0
LINE
  8
0
 10
-126.047
 20
-52.127
 11
-126.012
 21
-52.312
  0
LINE
  8
0
 10
-126.012
 20
-52.312
 11
-126
 21
-52.5
  0
LINE
  8
0
 10
-126
 20
-52.5
 11
-126.012
 21
-52.688
  0
LINE
  8
0
 10
-126.012
 20
-52.688
 11
-126.047
 21
-52.873
  0
LINE
  8
0
 10
-126.047
 20
-52.873
 11
-126.105
 21
-53.0522
  0
LINE
  8
0
 10
-126.105
 20
-53.0522
 11
-126.186
 21
-53.2226
  0
LINE
  8
0
 10
-126.186
 20
-53.2226
 11
-126.286
 21
-53.3817
  0
LINE
  8
0
 10
-126.286
 20
-53.3817
 11
-126.407
 21
-53.5268
  0
LINE
  8
0
 10
-126.407
 20
-53.5268
 11
-126.544
 21
-53.6558
  0
LINE
  8
0
 10
-126.544
 20
-53.6558
 11
-126.696
 21
-53.7665
  0
LINE
  8
0
 10
-126.696
 20
-53.7665
 11
-126.861
 21
-53.8572
  0
LINE
  8
0
 10
-126.861
 20
-53.8572
 11
-127.036
 21
-53.9266
  0
LINE
  8
0
 10
-127.036
 20
-53.9266
 11
-127.219
 21
-53.9734
  0
LINE
  8
0
 10
-127.219
 20
-53.9734
 11
-127.406
 21
-53.997
  0
LINE
  8
0
 10
-127.406
 20
-53.997
 11
-127.594
 21
-53.997
  0
LINE
  8
0
 10
127.406
 20
-53.997
 11
127.219
 21
-53.9734
  0
LINE
  8
0
 10
127.219
 20
-53.9734
 11
127.036
 21
-53.9266
  0
LINE
  8
0
 10
127.036
 20
-53.9266
 11
126.861
 21
-53.8572
  0
LINE
  8
0
 10
126.861
 20
-53.8572
 11
126.696
 21
-53.7665
  0
LINE
  8
0
 10
126.696
 20
-53.7665
 11
126.544
 21
-53.6558
  0
LINE
  8
0
 10
126.544
 20
-53.6558
 11
126.407
 21
-53.5268
  0
LINE
  8
0
 10
126.407
 20
-53.5268
 11
126.286
 21
-53.3817
  0
LINE
  8
0
 10
126.286
 20
-53.3817
 11
126.186
 21
-53.2226
  0
LINE
  8
0
 10
126.186
 20
-53.2226
 11
126.105
 21
-53.0522
  0
LINE
  8
0
 10
126.105
 20
-53.0522
 11
126.047
 21
-52.873
  0
LINE
  8
0
 10
126.047
 20
-52.873
 11
126.012
 21
-52.688
  0
LINE
  8
0
 10
126.012
 20
-52.688
 11
126
 21
-52.5
  0
LINE
  8
0
 10
126
 20
-52.5
 11
126.012
 21
-52.312
  0
LINE
  8
0
 10
126.012
 20
-52.312
 11
126.047
 21
-52.127
  0
LINE
  8
0
 10
126.047
 20
-52.127
 11
126.105
 21
-51.9478
  0
LINE
  8
0
 10
126.105
 20
-51.9478
 11
126.186
 21
-51.7774
  0
LINE
  8
0
 10
126.186
 20
-51.7774
 11
126.286
 21
-51.6183
  0
LINE
  8
0
 10
126.286
 20
-51.6183
 11
126.407
 21
-51.4732
  0
LINE
  8
0
 10
126.407
 20
-51.4732
 11
126.544
 21
-51.3442
  0
LINE
  8
0
 10
126.544
 20
-51.3442
 11
126.696
 21
-51.2335
  0
LINE
  8
0
 10
126.696
 20
-51.2335
 11
126.861
 21
-51.1428
  0
LINE
  8
0
 10
126.861
 20
-51.1428
 11
127.036
 21
-51.0734
  0
LINE
  8
0
 10
127.036
 20
-51.0734
 11
127.219
 21
-51.0266
  0
LINE
  8
0
 10
127.219
 20
-51.0266
 11
127.406
 21
-51.003
  0
LINE
  8
0
 10
127.406
 20
-51.003
 11
127.594
 21
-51.003
  0
LINE
  8
0
 10
127.594
 20
-51.003
 11
127.781
 21
-51.0266
  0
LINE
  8
0
 10
127.781
 20
-51.0266
 11
127.964
 21
-51.0734
  0
LINE
  8
0
 10
127.964
 20
-51.0734
 11
128.139
 21
-51.1428
  0
LINE
  8
0
 10
128.139
 20
-51.1428
 11
128.304
 21
-51.2335
  0
LINE
  8
0
 10
128.304
 20
-51.2335
 11
128.456
 21
-51.3442
  0
LINE
  8
0
 10
128.456
 20
-51.3442
 11
128.593
 21
-51.4732
  0
LINE
  8
0
 10
128.593
 20
-51.4732
 11
128.714
 21
-51.6183
  0
LINE
  8
0
 10
128.714
 20
-51.6183
 11
128.814
 21
-51.7774
  0
LINE
  8
0
 10
128.814
 20
-51.7774
 11
128.895
 21
-51.9478
  0
LINE
  8
0
 10
128.895
 20
-51.9478
 11
128.953
 21
-52.127
  0
LINE
  8
0
 10
128.953
 20
-52.127
 11
128.988
 21
-52.312
  0
LINE
  8
0
 10
128.988
 20
-52.312
 11
129
 21
-52.5
  0
LINE
  8
0
 10
129
 20
-52.5
 11
128.988
 21
-52.688
  0
LINE
  8
0
 10
128.988
 20
-52.688
 11
128.953
 21
-52.873
  0
LINE
  8
0
 10
128.953
 20
-52.873
 11
128.895
 21
-53.0522
  0
LINE
  8
0
 10
128.895
 20
-53.0522
 11
128.814
 21
-53.2226
  0
LINE
  8
0
 10
128.814
 20
-53.2226
 11
128.714
 21
-53.3817
  0
LINE
  8
0
 10
128.714
 20
-53.3817
 11
128.593
 21
-53.5268
  0
LINE
  8
0
 10
128.593
 20
-53.5268
 11
128.456
 21
-53.6558
  0
LINE
  8
0
 10
128.456
 20
-53.6558
 11
128.304
 21
-53.7665
  0
LINE
  8
0
 10
128.304
 20
-53.7665
 11
128.139
 21
-53.8572
  0
LINE
  8
0
 10
128.139
 20
-53.8572
 11
127.964
 21
-53.9266
  0
LINE
  8
0
 10
127.964
 20
-53.9266
 11
127.781
 21
-53.9734
  0
LINE
  8
0
 10
127.781
 20
-53.9734
 11
127.594
 21
-53.997
  0
LINE
  8
0
 10
127.594
 20
-53.997
 11
127.406
 21
-53.997
  0
LINE
  8
0
 10
-127.688
 20
-62.9941
 11
-128.062
 21
-62.9469
  0
LINE
  8
0
 10
-128.062
 20
-62.9469
 11
-128.427
 21
-62.8532
  0
LINE
  8
0
 10
-128.427
 20
-62.8532
 11
-128.777
 21
-62.7145
  0
LINE
  8
0
 10
-128.777
 20
-62.7145
 11
-129.107
 21
-62.533
  0
LINE
  8
0
 10
-129.107
 20
-62.533
 11
-129.412
 21
-62.3115
  0
LINE
  8
0
 10
-129.412
 20
-62.3115
 11
-129.687
 21
-62.0536
  0
LINE
  8
0
 10
-129.687
 20
-62.0536
 11
-129.927
 21
-61.7634
  0
LINE
  8
0
 10
-129.927
 20
-61.7634
 11
-130.129
 21
-61.4453
  0
LINE
  8
0
 10
-130.129
 20
-61.4453
 11
-130.289
 21
-61.1044
  0
LINE
  8
0
 10
-130.289
 20
-61.1044
 11
-130.406
 21
-60.7461
  0
LINE
  8
0
 10
-130.406
 20
-60.7461
 11
-130.476
 21
-60.376
  0
LINE
  8
0
 10
-130.476
 20
-60.376
 11
-130.5
 21
-60
  0
LINE
  8
0
 10
-130.5
 20
-60
 11
-130.476
 21
-59.624
  0
LINE
  8
0
 10
-130.476
 20
-59.624
 11
-130.406
 21
-59.2539
  0
LINE
  8
0
 10
-130.406
 20
-59.2539
 11
-130.289
 21
-58.8956
  0
LINE
  8
0
 10
-130.289
 20
-58.8956
 11
-130.129
 21
-58.5547
  0
LINE
  8
0
 10
-130.129
 20
-58.5547
 11
-129.927
 21
-58.2366
  0
LINE
  8
0
 10
-129.927
 20
-58.2366
 11
-129.687
 21
-57.9464
  0
LINE
  8
0
 10
-129.687
 20
-57.9464
 11
-129.412
 21
-57.6885
  0
LINE
  8
0
 10
-129.412
 20
-57.6885
 11
-129.107
 21
-57.467
  0
LINE
  8
0
 10
-129.107
 20
-57.467
 11
-128.777
 21
-57.2855
  0
LINE
  8
0
 10
-128.777
 20
-57.2855
 11
-128.427
 21
-57.1468
  0
LINE
  8
0
 10
-128.427
 20
-57.1468
 11
-128.062
 21
-57.0531
  0
LINE
  8
0
 10
-128.062
 20
-57.0531
 11
-127.688
 21
-57.0059
  0
LINE
  8
0
 10
-127.688
 20
-57.0059
 11
-127.312
 21
-57.0059
  0
LINE
  8
0
 10
-127.312
 20
-57.0059
 11
-126.938
 21
-57.0531
  0
LINE
  8
0
 10
-126.938
 20
-57.0531
 11
-126.573
 21
-57.1468
  0
LINE
  8
0
 10
-126.573
 20
-57.1468
 11
-126.223
 21
-57.2855
  0
LINE
  8
0
 10
-126.223
 20
-57.2855
 11
-125.893
 21
-57.467
  0
LINE
  8
0
 10
-125.893
 20
-57.467
 11
-125.588
 21
-57.6885
  0
LINE
  8
0
 10
-125.588
 20
-57.6885
 11
-125.313
 21
-57.9464
  0
LINE
  8
0
 10
-125.313
 20
-57.9464
 11
-125.073
 21
-58.2366
  0
LINE
  8
0
 10
-125.073
 20
-58.2366
 11
-124.871
 21
-58.5547
  0
LINE
  8
0
 10
-124.871
 20
-58.5547
 11
-124.711
 21
-58.8956
  0
LINE
  8
0
 10
-124.711
 20
-58.8956
 11
-124.594
 21
-59.2539
  0
LINE
  8
0
 10
-124.594
 20
-59.2539
 11
-124.524
 21
-59.624
  0
LINE
  8
0
 10
-124.524
 20
-59.624
 11
-124.5
 21
-60
  0
LINE
  8
0
 10
-124.5
 20
-60
 11
-124.524
 21
-60.376
  0
LINE
  8
0
 10
-124.524
 20
-60.376
 11
-124.594
 21
-60.7461
  0
LINE
  8
0
 10
-124.594
 20
-60.7461
 11
-124.711
 21
-61.1044
  0
LINE
  8
0
 10
-124.711
 20
-61.1044
 11
-124.871
 21
-61.4453
  0
LINE
  8
0
 10
-124.871
 20
-61.4453
 11
-125.073
 21
-61.7634
  0
LINE
  8
0
 10
-125.073
 20
-61.7634
 11
-125.313
 21
-62.0536
  0
LINE
  8
0
 10
-125.313
 20
-62.0536
 11
-125.588
 21
-62.3115
  0
LINE
  8
0
 10
-125.588
 20
-62.3115
 11
-125.893
 21
-62.533
  0
LINE
  8
0
 10
-125.893
 20
-62.533
 11
-126.223
 21
-62.7145
  0
LINE
  8
0
 10
-126.223
 20
-62.7145
 11
-126.573
 21
-62.8532
  0
LINE
  8
0
 10
-126.573
 20
-62.8532
 11
-126.938
 21
-62.9469
  0
LINE
  8
0
 10
-126.938
 20
-62.9469
 11
-127.312
 21
-62.9941
  0
LINE
  8
0
 10
-127.312
 20
-62.9941
 11
-127.688
 21
-62.9941
  0
LINE
  8
0
 10
127.312
 20
-62.9941
 11
126.938
 21
-62.9469
  0
LINE
  8
0
 10
126.938
 20
-62.9469
 11
126.573
 21
-62.8532
  0
LINE
  8
0
 10
126.573
 20
-62.8532
 11
126.223
 21
-62.7145
  0
LINE
  8
0
 10
126.223
 20
-62.7145
 11
125.893
 21
-62.533
  0
LINE
  8
0
 10
125.893
 20
-62.533
 11
125.588
 21
-62.3115
  0
LINE
  8
0
 10
125.588
 20
-62.3115
 11
125.313
 21
-62.0536
  0
LINE
  8
0
 10
125.313
 20
-62.0536
 11
125.073
 21
-61.7634
  0
LINE
  8
0
 10
125.073
 20
-61.7634
 11
124.871
 21
-61.4453
  0
LINE
  8
0
 10
124.871
 20
-61.4453
 11
124.711
 21
-61.1044
  0
LINE
  8
0
 10
124.711
 20
-61.1044
 11
124.594
 21
-60.7461
  0
LINE
  8
0
 10
124.594
 20
-60.7461
 11
124.524
 21
-60.376
  0
LINE
  8
0
 10
124.524
 20
-60.376
 11
124.5
 21
-60
  0
LINE
  8
0
 10
124.5
 20
-60
 11
124.524
 21
-59.624
  0
LINE
  8
0
 10
124.524
 20
-59.624
 11
124.594
 21
-59.2539
  0
LINE
  8
0
 10
124.594
 20
-59.2539
 11
124.711
 21
-58.8956
  0
LINE
  8
0
 10
124.711
 20
-58.8956
 11
124.871
 21
-58.5547
  0
LINE
  8
0
 10
124.871
 20
-58.5547
 11
125.073
 21
-58.2366
  0
LINE
  8
0
 10
125.073
 20
-58.2366
 11
125.313
 21
-57.9464
  0
LINE
  8
0
 10
125.313
 20
-57.9464
 11
125.588
 21
-57.6885
  0
LINE
  8
0
 10
125.588
 20
-57.6885
 11
125.893
 21
-57.467
  0
LINE
  8
0
 10
125.893
 20
-57.467
 11
126.223
 21
-57.2855
  0
LINE
  8
0
 10
126.223
 20
-57.2855
 11
126.573
 21
-57.1468
  0
LINE
  8
0
 10
126.573
 20
-57.1468
 11
126.938
 21
-57.0531
  0
LINE
  8
0
 10
126.938
 20
-57.0531
 11
127.312
 21
-57.0059
  0
LINE
  8
0
 10
127.312
 20
-57.0059
 11
127.688
 21
-57.0059
  0
LINE
  8
0
 10
127.688
 20
-57.0059
 11
128.062
 21
-57.0531
  0
LINE
  8
0
 10
128.062
 20
-57.0531
 11
128.427
 21
-57.1468
  0
LINE
  8
0
 10
128.427
 20
-57.1468
 11
128.777
 21
-57.2855
  0
LINE
  8
0
 10
128.777
 20
-57.2855
 11
129.107
 21
-57.467
  0
LINE
  8
0
 10
129.107
 20
-57.467
 11
129.412
 21
-57.6885
  0
LINE
  8
0
 10
129.412
 20
-57.6885
 11
129.687
 21
-57.9464
  0
LINE
  8
0
 10
129.687
 20
-57.9464
 11
129.927
 21
-58.2366
  0
LINE
  8
0
 10
129.927
 20
-58.2366
 11
130.129
 21
-58.5547
  0
LINE
  8
0
 10
130.129
 20
-58.5547
 11
130.289
 21
-58.8956
  0
LINE
  8
0
 10
130.289
 20
-58.8956
 11
130.406
 21
-59.2539
  0
LINE
  8
0
 10
130.406
 20
-59.2539
 11
130.476
 21
-59.624
  0
LINE
  8
0
 10
130.476
 20
-59.624
 11
130.5
 21
-60
  0
LINE
  8
0
 10
130.5
 20
-60
 11
130.476
 21
-60.376
  0
LINE
  8
0
 10
130.476
 20
-60.376
 11
130.406
 21
-60.7461
  0
LINE
  8
0
 10
130.406
 20
-60.7461
 11
130.289
 21
-61.1044
  0
LINE
  8
0
 10
130.289
 20
-61.1044
 11
130.129
 21
-61.4453
  0
LINE
  8
0
 10
130.129
 20
-61.4453
 11
129.927
 21
-61.7634
  0
LINE
  8
0
 10
129.927
 20
-61.7634
 11
129.687
 21
-62.0536
  0
LINE
  8
0
 10
129.687
 20
-62.0536
 11
129.412
 21
-62.3115
  0
LINE
  8
0
 10
129.412
 20
-62.3115
 11
129.107
 21
-62.533
  0
LINE
  8
0
 10
129.107
 20
-62.533
 11
128.777
 21
-62.7145
  0
LINE
  8
0
 10
128.777
 20
-62.7145
 11
128.427
 21
-62.8532
  0
LINE
  8
0
 10
128.427
 20
-62.8532
 11
128.062
 21
-62.9469
  0
LINE
  8
0
 10
128.062
 20
-62.9469
 11
127.688
 21
-62.9941
  0
LINE
  8
0
 10
127.688
 20
-62.9941
 11
127.312
 21
-62.9941
  0
LINE
  8
0
 10
-124.594
 20
-0.746063
 11
-124.711
 21
-1.10437
  0
LINE
  8
0
 10
-124.711
 20
-1.10437
 11
-124.871
 21
-1.44525
  0
LINE
  8
0
 10
-124.871
 20
-1.44525
 11
-125.073
 21
-1.76335
  0
LINE
  8
0
 10
-125.073
 20
-1.76335
 11
-125.313
 21
-2.05363
  0
LINE
  8
0
 10
-125.313
 20
-2.05363
 11
-125.588
 21
-2.31154
  0
LINE
  8
0
 10
-125.588
 20
-2.31154
 11
-125.893
 21
-2.53297
  0
LINE
  8
0
 10
-125.893
 20
-2.53297
 11
-126.223
 21
-2.71448
  0
LINE
  8
0
 10
-126.223
 20
-2.71448
 11
-126.573
 21
-2.85316
  0
LINE
  8
0
 10
-126.573
 20
-2.85316
 11
-126.938
 21
-2.94685
  0
LINE
  8
0
 10
-126.938
 20
-2.94685
 11
-127.312
 21
-2.99408
  0
LINE
  8
0
 10
-127.312
 20
-2.99408
 11
-127.688
 21
-2.99408
  0
LINE
  8
0
 10
-127.688
 20
-2.99408
 11
-128.062
 21
-2.94685
  0
LINE
  8
0
 10
-128.062
 20
-2.94685
 11
-128.427
 21
-2.85316
  0
LINE
  8
0
 10
-128.427
 20
-2.85316
 11
-128.777
 21
-2.71448
  0
LINE
  8
0
 10
-128.777
 20
-2.71448
 11
-129.107
 21
-2.53297
  0
LINE
  8
0
 10
-129.107
 20
-2.53297
 11
-129.412
 21
-2.31154
  0
LINE
  8
0
 10
-129.412
 20
-2.31154
 11
-129.687
 21
-2.05363
  0
LINE
  8
0
 10
-129.687
 20
-2.05363
 11
-129.927
 21
-1.76335
  0
LINE
  8
0
 10
-129.927
 20
-1.76335
 11
-130.129
 21
-1.44525
  0
LINE
  8
0
 10
-130.129
 20
-1.44525
 11
-130.289
 21
-1.10437
  0
LINE
  8
0
 10
-130.289
 20
-1.10437
 11
-130.406
 21
-0.746063
  0
LINE
  8
0
 10
-130.406
 20
-0.746063
 11
-130.476
 21
-0.375992
  0
LINE
  8
0
 10
-130.476
 20
-0.375992
 11
-130.5
 21
0
  0
LINE
  8
0
 10
-130.5
 20
0
 11
-130.476
 21
0.375992
  0
LINE
  8
0
 10
-130.476
 20
0.375992
 11
-130.406
 21
0.746063
  0
LINE
  8
0
 10
-130.406
 20
0.746063
 11
-130.289
 21
1.10437
  0
LINE
  8
0
 10
-130.289
 20
1.10437
 11
-130.129
 21
1.44525
  0
LINE
  8
0
 10
-130.129
 20
1.44525
 11
-129.927
 21
1.76335
  0
LINE
  8
0
 10
-129.927
 20
1.76335
 11
-129.687
 21
2.05363
  0
LINE
  8
0
 10
-129.687
 20
2.05363
 11
-129.412
 21
2.31154
  0
LINE
  8
0
 10
-129.412
 20
2.31154
 11
-129.107
 21
2.53297
  0
LINE
  8
0
 10
-129.107
 20
2.53297
 11
-128.777
 21
2.71448
  0
LINE
  8
0
 10
-128.777
 20
2.71448
 11
-128.427
 21
2.85316
  0
LINE
  8
0
 10
-128.427
 20
2.85316
 11
-128.062
 21
2.94685
  0
LINE
  8
0
 10
-128.062
 20
2.94685
 11
-127.688
 21
2.99408
  0
LINE
  8
0
 10
-127.688
 20
2.99408
 11
-127.312
 21
2.99408
  0
LINE
  8
0
 10
-127.312
 20
2.99408
 11
-126.938
 21
2.94685
  0
LINE
  8
0
 10
-126.938
 20
2.94685
 11
-126.573
 21
2.85316
  0
LINE
  8
0
 10
-126.573
 20
2.85316
 11
-126.223
 21
2.71448
  0
LINE
  8
0
 10
-126.223
 20
2.71448
 11
-125.893
 21
2.53297
  0
LINE
  8
0
 10
-125.893
 20
2.53297
 11
-125.588
 21
2.31154
  0
LINE
  8
0
 10
-125.588
 20
2.31154
 11
-125.313
 21
2.05363
  0
LINE
  8
0
 10
-125.313
 20
2.05363
 11
-125.073
 21
1.76335
  0
LINE
  8
0
 10
-125.073
 20
1.76335
 11
-124.871
 21
1.44525
  0
LINE
  8
0
 10
-124.871
 20
1.44525
 11
-124.711
 21
1.10437
  0
LINE
  8
0
 10
-124.711
 20
1.10437
 11
-124.594
 21
0.746063
  0
LINE
  8
0
 10
-124.594
 20
0.746063
 11
-124.524
 21
0.375992
  0
LINE
  8
0
 10
-124.524
 20
0.375992
 11
-124.5
 21
0
  0
LINE
  8
0
 10
-124.5
 20
0
 11
-124.524
 21
-0.375992
  0
LINE
  8
0
 10
-124.524
 20
-0.375992
 11
-124.594
 21
-0.746063
  0
ENDSEC
  0
SECTION
  2
OBJECTS
  0
DICTIONARY
  0
ENDSEC
  0
EOF
