<?xml version="1.0" standalone="no"?>
<!DOCTYPE svg PUBLIC "-//W3C//DTD SVG 1.1//EN" "http://www.w3.org/Graphics/SVG/1.1/DTD/svg11.dtd">
<svg width="270mm" height="134mm" viewBox="-135 -67 270 134" xmlns="http://www.w3.org/2000/svg" version="1.1">
<title>OpenSCAD Model</title>
<path d="
M 130.437,66.9114 L 131.045,66.7553 L 131.629,66.5241 L 132.179,66.2216 L 132.687,65.8526 L 133.145,65.4227
 L 133.545,64.9389 L 133.882,64.4088 L 134.149,63.8406 L 134.343,63.2434 L 134.461,62.6267 L 134.5,62
 L 134.5,-62 L 134.461,-62.6267 L 134.343,-63.2434 L 134.149,-63.8406 L 133.882,-64.4088 L 133.545,-64.9389
 L 133.145,-65.4227 L 132.687,-65.8526 L 132.179,-66.2216 L 131.629,-66.5241 L 131.045,-66.7553 L 130.437,-66.9114
 L 129.814,-66.9901 L -129.814,-66.9901 L -130.437,-66.9114 L -131.045,-66.7553 L -131.629,-66.5241 L -132.179,-66.2216
 L -132.687,-65.8526 L -133.145,-65.4227 L -133.545,-64.9389 L -133.882,-64.4088 L -134.149,-63.8406 L -134.343,-63.2434
 L -134.461,-62.6267 L -134.5,-62 L -134.5,62 L -134.461,62.6267 L -134.343,63.2434 L -134.149,63.8406
 L -133.882,64.4088 L -133.545,64.9389 L -133.145,65.4227 L -132.687,65.8526 L -132.179,66.2216 L -131.629,66.5241
 L -131.045,66.7553 L -130.437,66.9114 L -129.814,66.9901 L 129.814,66.9901 z
M -127.688,-57.0059 L -128.062,-57.0531 L -128.427,-57.1468 L -128.777,-57.2855 L -129.107,-57.467 L -129.412,-57.6885
 L -129.687,-57.9464 L -129.927,-58.2366 L -130.129,-58.5547 L -130.289,-58.8956 L -130.406,-59.2539 L -130.476,-59.624
 L -130.5,-60 L -130.476,-60.376 L -130.406,-60.7461 L -130.289,-61.1044 L -130.129,-61.4453 L -129.927,-61.7634
 L -129.687,-62.0536 L -129.412,-62.3115 L -129.107,-62.533 L -128.777,-62.7145 L -128.427,-62.8532 L -128.062,-62.9469
 L -127.688,-62.9941 L -127.312,-62.9941 L -126.938,-62.9469 L -126.573,-62.8532 L -126.223,-62.7145 L -125.893,-62.533
 L -125.588,-62.3115 L -125.313,-62.0536 L -125.073,-61.7634 L -124.871,-61.4453 L -124.711,-61.1044 L -124.594,-60.7461
 L -124.524,-60.376 L -124.5,-60 L -124.524,-59.624 L -124.594,-59.2539 L -124.711,-58.8956 L -124.871,-58.5547
 L -125.073,-58.2366 L -125.313,-57.9464 L -125.588,-57.6885 L -125.893,-57.467 L -126.223,-57.2855 L -126.573,-57.1468
 L -126.938,-57.0531 L -127.312,-57.0059 z
M 127.312,-57.0059 L 126.938,-57.0531 L 126.573,-57.1468 L 126.223,-57.2855 L 125.893,-57.467 L 125.588,-57.6885
 L 125.313,-57.9464 L 125.073,-58.2366 L 124.871,-58.5547 L 124.711,-58.8956 L 124.594,-59.2539 L 124.524,-59.624
 L 124.5,-60 L 124.524,-60.376 L 124.594,-60.7461 L 124.711,-61.1044 L 124.871,-61.4453 L 125.073,-61.7634
 L 125.313,-62.0536 L 125.588,-62.3115 L 125.893,-62.533 L 126.223,-62.7145 L 126.573,-62.8532 L 126.938,-62.9469
 L 127.312,-62.9941 L 127.688,-62.9941 L 128.062,-62.9469 L 128.427,-62.8532 L 128.777,-62.7145 L 129.107,-62.533
 L 129.412,-62.3115 L 129.687,-62.0536 L 129.927,-61.7634 L 130.129,-61.4453 L 130.289,-61.1044 L 130.406,-60.7461
 L 130.476,-60.376 L 130.5,-60 L 130.476,-59.624 L 130.406,-59.2539 L 130.289,-58.8956 L 130.129,-58.5547
 L 129.927,-58.2366 L 129.687,-57.9464 L 129.412,-57.6885 L 129.107,-57.467 L 128.777,-57.2855 L 128.427,-57.1468
 L 128.062,-57.0531 L 127.688,-57.0059 z
M 61.0756,62.3767 L 53.2887,61.3929 L 45.6864,59.441 L 38.3888,56.5517 L 31.5108,52.7705 L 25.161,48.1571
 L 19.4395,42.7842 L 14.4364,36.7366 L 10.2308,30.1096 L 6.88896,23.0078 L 4.46355,15.5431 L 2.99283,7.83331
 L 2.5,-0 L 2.99283,-7.83331 L 4.46355,-15.5431 L 6.88896,-23.0078 L 10.2308,-30.1096 L 14.4364,-36.7366
 L 19.4395,-42.7842 L 25.161,-48.1571 L 31.5108,-52.7705 L 38.3888,-56.5517 L 45.6864,-59.441 L 53.2887,-61.3929
 L 61.0756,-62.3767 L 68.9244,-62.3767 L 76.7113,-61.3929 L 84.3136,-59.441 L 91.6112,-56.5517 L 98.4892,-52.7705
 L 104.839,-48.1571 L 110.561,-42.7842 L 115.564,-36.7366 L 119.769,-30.1096 L 123.111,-23.0078 L 125.536,-15.5431
 L 127.007,-7.83331 L 127.5,-0 L 127.007,7.83331 L 125.536,15.5431 L 123.111,23.0078 L 119.769,30.1096
 L 115.564,36.7366 L 110.561,42.7842 L 104.839,48.1571 L 98.4892,52.7705 L 91.6112,56.5517 L 84.3136,59.441
 L 76.7113,61.3929 L 68.9244,62.3767 z
M -68.9244,62.3767 L -76.7113,61.3929 L -84.3136,59.441 L -91.6112,56.5517 L -98.4892,52.7705 L -104.839,48.1571
 L -110.561,42.7842 L -115.564,36.7366 L -119.769,30.1096 L -123.111,23.0078 L -125.536,15.5431 L -127.007,7.83331
 L -127.5,-0 L -127.007,-7.83331 L -125.536,-15.5431 L -123.111,-23.0078 L -119.769,-30.1096 L -115.564,-36.7366
 L -110.561,-42.7842 L -104.839,-48.1571 L -98.4892,-52.7705 L -91.6112,-56.5517 L -84.3136,-59.441 L -76.7113,-61.3929
 L -68.9244,-62.3767 L -61.0756,-62.3767 L -53.2887,-61.3929 L -45.6864,-59.441 L -38.3888,-56.5517 L -31.5108,-52.7705
 L -25.161,-48.1571 L -19.4395,-42.7842 L -14.4364,-36.7366 L -10.2308,-30.1096 L -6.88896,-23.0078 L -4.46355,-15.5431
 L -2.99283,-7.83331 L -2.5,-0 L -2.99283,7.83331 L -4.46355,15.5431 L -6.88896,23.0078 L -10.2308,30.1096
 L -14.4364,36.7366 L -19.4395,42.7842 L -25.161,48.1571 L -31.5108,52.7705 L -38.3888,56.5517 L -45.6864,59.441
 L -53.2887,61.3929 L -61.0756,62.3767 z
M -127.688,62.9941 L -128.062,62.9469 L -128.427,62.8532 L -128.777,62.7145 L -129.107,62.533 L -129.412,62.3115
 L -129.687,62.0536 L -129.927,61.7634 L -130.129,61.4453 L -130.289,61.1044 L -130.406,60.7461 L -130.476,60.376
 L -130.5,60 L -130.476,59.624 L -130.406,59.2539 L -130.289,58.8956 L -130.129,58.5547 L -129.927,58.2366
 L -129.687,57.9464 L -129.412,57.6885 L -129.107,57.467 L -128.777,57.2855 L -128.427,57.1468 L -128.062,57.0531
 L -127.688,57.0059 L -127.312,57.0059 L -126.938,57.0531 L -126.573,57.1468 L -126.223,57.2855 L -125.893,57.467
 L -125.588,57.6885 L -125.313,57.9464 L -125.073,58.2366 L -124.871,58.5547 L -124.711,58.8956 L -124.594,59.2539
 L -124.524,59.624 L -124.5,60 L -124.524,60.376 L -124.594,60.7461 L -124.711,61.1044 L -124.871,61.4453
 L -125.073,61.7634 L -125.313,62.0536 L -125.588,62.3115 L -125.893,62.533 L -126.223,62.7145 L -126.573,62.8532
 L -126.938,62.9469 L -127.312,62.9941 z
M 127.312,62.9941 L 126.938,62.9469 L 126.573,62.8532 L 126.223,62.7145 L 125.893,62.533 L 125.588,62.3115
 L 125.313,62.0536 L 125.073,61.7634 L 124.871,61.4453 L 124.711,61.1044 L 124.594,60.7461 L 124.524,60.376
 L 124.5,60 L 124.524,59.624 L 124.594,59.2539 L 124.711,58.8956 L 124.871,58.5547 L 125.073,58.2366
 L 125.313,57.9464 L 125.588,57.6885 L 125.893,57.467 L 126.223,57.2855 L 126.573,57.1468 L 126.938,57.0531
 L 127.312,57.0059 L 127.688,57.0059 L 128.062,57.0531 L 128.427,57.1468 L 128.777,57.2855 L 129.107,57.467
 L 129.412,57.6885 L 129.687,57.9464 L 129.927,58.2366 L 130.129,58.5547 L 130.289,58.8956 L 130.406,59.2539
 L 130.476,59.624 L 130.5,60 L 130.476,60.376 L 130.406,60.7461 L 130.289,61.1044 L 130.129,61.4453
 L 129.927,61.7634 L 129.687,62.0536 L 129.412,62.3115 L 129.107,62.533 L 128.777,62.7145 L 128.427,62.8532
 L 128.062,62.9469 L 127.688,62.9941 z
" stroke="black" fill="lightgray" stroke-width="0.5"/>
</svg>
