<?xml version="1.0" standalone="no"?>
<!DOCTYPE svg PUBLIC "-//W3C//DTD SVG 1.1//EN" "http://www.w3.org/Graphics/SVG/1.1/DTD/svg11.dtd">
<svg width="120mm" height="30mm" viewBox="-60 -54 120 30" xmlns="http://www.w3.org/2000/svg" version="1.1">
<title>OpenSCAD Model</title>
<path d="
M 55.4369,-24.5886 L 56.0451,-24.7447 L 56.6289,-24.9759 L 57.1791,-25.2784 L 57.6871,-25.6474 L 58.1448,-26.0773
 L 58.5451,-26.5611 L 58.8815,-27.0912 L 59.1489,-27.6594 L 59.3429,-28.2566 L 59.4606,-28.8733 L 59.5,-29.5
 L 59.5,-48.5 L 59.4606,-49.1267 L 59.3429,-49.7434 L 59.1489,-50.3406 L 58.8815,-50.9088 L 58.5451,-51.4389
 L 58.1448,-51.9227 L 57.6871,-52.3526 L 57.1791,-52.7216 L 56.6289,-53.0241 L 56.0451,-53.2553 L 55.4369,-53.4114
 L 54.8139,-53.4901 L -54.8139,-53.4901 L -55.4369,-53.4114 L -56.0451,-53.2553 L -56.6289,-53.0241 L -57.1791,-52.7216
 L -57.6871,-52.3526 L -58.1448,-51.9227 L -58.5451,-51.4389 L -58.8815,-50.9088 L -59.1489,-50.3406 L -59.3429,-49.7434
 L -59.4606,-49.1267 L -59.5,-48.5 L -59.5,-29.5 L -59.4606,-28.8733 L -59.3429,-28.2566 L -59.1489,-27.6594
 L -58.8815,-27.0912 L -58.5451,-26.5611 L -58.1448,-26.0773 L -57.6871,-25.6474 L -57.1791,-25.2784 L -56.6289,-24.9759
 L -56.0451,-24.7447 L -55.4369,-24.5886 L -54.8139,-24.5099 L 54.8139,-24.5099 z
M -52.6884,-43.5059 L -53.0621,-43.5531 L -53.427,-43.6468 L -53.7773,-43.7855 L -54.1075,-43.967 L -54.4123,-44.1884
 L -54.6869,-44.4464 L -54.927,-44.7366 L -55.1289,-45.0547 L -55.2893,-45.3956 L -55.4057,-45.7539 L -55.4763,-46.124
 L -55.5,-46.5 L -55.4763,-46.876 L -55.4057,-47.2461 L -55.2893,-47.6044 L -55.1289,-47.9453 L -54.927,-48.2634
 L -54.6869,-48.5536 L -54.4123,-48.8115 L -54.1075,-49.033 L -53.7773,-49.2145 L -53.427,-49.3532 L -53.0621,-49.4469
 L -52.6884,-49.4941 L -52.3116,-49.4941 L -51.9379,-49.4469 L -51.5729,-49.3532 L -51.2227,-49.2145 L -50.8925,-49.033
 L -50.5877,-48.8115 L -50.3131,-48.5536 L -50.0729,-48.2634 L -49.8711,-47.9453 L -49.7107,-47.6044 L -49.5942,-47.2461
 L -49.5237,-46.876 L -49.5,-46.5 L -49.5237,-46.124 L -49.5942,-45.7539 L -49.7107,-45.3956 L -49.8711,-45.0547
 L -50.0729,-44.7366 L -50.3131,-44.4464 L -50.5877,-44.1884 L -50.8925,-43.967 L -51.2227,-43.7855 L -51.5729,-43.6468
 L -51.9379,-43.5531 L -52.3116,-43.5059 z
M 52.3116,-43.5059 L 51.9379,-43.5531 L 51.5729,-43.6468 L 51.2227,-43.7855 L 50.8925,-43.967 L 50.5877,-44.1884
 L 50.3131,-44.4464 L 50.0729,-44.7366 L 49.8711,-45.0547 L 49.7107,-45.3956 L 49.5942,-45.7539 L 49.5237,-46.124
 L 49.5,-46.5 L 49.5237,-46.876 L 49.5942,-47.2461 L 49.7107,-47.6044 L 49.8711,-47.9453 L 50.0729,-48.2634
 L 50.3131,-48.5536 L 50.5877,-48.8115 L 50.8925,-49.033 L 51.2227,-49.2145 L 51.5729,-49.3532 L 51.9379,-49.4469
 L 52.3116,-49.4941 L 52.6884,-49.4941 L 53.0621,-49.4469 L 53.427,-49.3532 L 53.7773,-49.2145 L 54.1075,-49.033
 L 54.4123,-48.8115 L 54.6869,-48.5536 L 54.927,-48.2634 L 55.1289,-47.9453 L 55.2893,-47.6044 L 55.4057,-47.2461
 L 55.4763,-46.876 L 55.5,-46.5 L 55.4763,-46.124 L 55.4057,-45.7539 L 55.2893,-45.3956 L 55.1289,-45.0547
 L 54.927,-44.7366 L 54.6869,-44.4464 L 54.4123,-44.1884 L 54.1075,-43.967 L 53.7773,-43.7855 L 53.427,-43.6468
 L 53.0621,-43.5531 L 52.6884,-43.5059 z
M 33.9349,-30.0178 L 32.8136,-30.1594 L 31.7188,-30.4405 L 30.668,-30.8566 L 29.6776,-31.4011 L 28.7632,-32.0654
 L 27.9393,-32.8391 L 27.2188,-33.7099 L 26.6132,-34.6642 L 26.132,-35.6869 L 25.7827,-36.7618 L 25.571,-37.872
 L 25.5,-39 L 25.571,-40.128 L 25.7827,-41.2382 L 26.132,-42.3131 L 26.6132,-43.3358 L 27.2188,-44.2901
 L 27.9393,-45.1609 L 28.7632,-45.9346 L 29.6776,-46.5989 L 30.668,-47.1434 L 31.7188,-47.5595 L 32.8136,-47.8406
 L 33.9349,-47.9822 L 35.0651,-47.9822 L 36.1864,-47.8406 L 37.2811,-47.5595 L 38.332,-47.1434 L 39.3224,-46.5989
 L 40.2368,-45.9346 L 41.0607,-45.1609 L 41.7811,-44.2901 L 42.3867,-43.3358 L 42.868,-42.3131 L 43.2172,-41.2382
 L 43.429,-40.128 L 43.5,-39 L 43.429,-37.872 L 43.2172,-36.7618 L 42.868,-35.6869 L 42.3867,-34.6642
 L 41.7811,-33.7099 L 41.0607,-32.8391 L 40.2368,-32.0654 L 39.3224,-31.4011 L 38.332,-30.8566 L 37.2811,-30.4405
 L 36.1864,-30.1594 L 35.0651,-30.0178 z
M -35.0651,-30.0178 L -36.1864,-30.1594 L -37.2811,-30.4405 L -38.332,-30.8566 L -39.3224,-31.4011 L -40.2368,-32.0654
 L -41.0607,-32.8391 L -41.7811,-33.7099 L -42.3867,-34.6642 L -42.868,-35.6869 L -43.2172,-36.7618 L -43.429,-37.872
 L -43.5,-39 L -43.429,-40.128 L -43.2172,-41.2382 L -42.868,-42.3131 L -42.3867,-43.3358 L -41.7811,-44.2901
 L -41.0607,-45.1609 L -40.2368,-45.9346 L -39.3224,-46.5989 L -38.332,-47.1434 L -37.2811,-47.5595 L -36.1864,-47.8406
 L -35.0651,-47.9822 L -33.9349,-47.9822 L -32.8136,-47.8406 L -31.7188,-47.5595 L -30.668,-47.1434 L -29.6776,-46.5989
 L -28.7632,-45.9346 L -27.9393,-45.1609 L -27.2188,-44.2901 L -26.6132,-43.3358 L -26.132,-42.3131 L -25.7827,-41.2382
 L -25.571,-40.128 L -25.5,-39 L -25.571,-37.872 L -25.7827,-36.7618 L -26.132,-35.6869 L -26.6132,-34.6642
 L -27.2188,-33.7099 L -27.9393,-32.8391 L -28.7632,-32.0654 L -29.6776,-31.4011 L -30.668,-30.8566 L -31.7188,-30.4405
 L -32.8136,-30.1594 L -33.9349,-30.0178 z
M 10.9349,-30.0178 L 9.81357,-30.1594 L 8.71884,-30.4405 L 7.66798,-30.8566 L 6.67755,-31.4011 L 5.76318,-32.0654
 L 4.93927,-32.8391 L 4.21884,-33.7099 L 3.61324,-34.6642 L 3.132,-35.6869 L 2.78275,-36.7618 L 2.57095,-37.872
 L 2.5,-39 L 2.57095,-40.128 L 2.78275,-41.2382 L 3.132,-42.3131 L 3.61324,-43.3358 L 4.21884,-44.2901
 L 4.93927,-45.1609 L 5.76318,-45.9346 L 6.67755,-46.5989 L 7.66798,-47.1434 L 8.71884,-47.5595 L 9.81357,-47.8406
 L 10.9349,-47.9822 L 12.0651,-47.9822 L 13.1864,-47.8406 L 14.2811,-47.5595 L 15.332,-47.1434 L 16.3224,-46.5989
 L 17.2368,-45.9346 L 18.0607,-45.1609 L 18.7811,-44.2901 L 19.3867,-43.3358 L 19.868,-42.3131 L 20.2172,-41.2382
 L 20.429,-40.128 L 20.5,-39 L 20.429,-37.872 L 20.2172,-36.7618 L 19.868,-35.6869 L 19.3867,-34.6642
 L 18.7811,-33.7099 L 18.0607,-32.8391 L 17.2368,-32.0654 L 16.3224,-31.4011 L 15.332,-30.8566 L 14.2811,-30.4405
 L 13.1864,-30.1594 L 12.0651,-30.0178 z
M -12.0651,-30.0178 L -13.1864,-30.1594 L -14.2811,-30.4405 L -15.332,-30.8566 L -16.3224,-31.4011 L -17.2368,-32.0654
 L -18.0607,-32.8391 L -18.7811,-33.7099 L -19.3867,-34.6642 L -19.868,-35.6869 L -20.2172,-36.7618 L -20.429,-37.872
 L -20.5,-39 L -20.429,-40.128 L -20.2172,-41.2382 L -19.868,-42.3131 L -19.3867,-43.3358 L -18.7811,-44.2901
 L -18.0607,-45.1609 L -17.2368,-45.9346 L -16.3224,-46.5989 L -15.332,-47.1434 L -14.2811,-47.5595 L -13.1864,-47.8406
 L -12.0651,-47.9822 L -10.9349,-47.9822 L -9.81357,-47.8406 L -8.71884,-47.5595 L -7.66798,-47.1434 L -6.67755,-46.5989
 L -5.76318,-45.9346 L -4.93927,-45.1609 L -4.21884,-44.2901 L -3.61324,-43.3358 L -3.132,-42.3131 L -2.78275,-41.2382
 L -2.57095,-40.128 L -2.5,-39 L -2.57095,-37.872 L -2.78275,-36.7618 L -3.132,-35.6869 L -3.61324,-34.6642
 L -4.21884,-33.7099 L -4.93927,-32.8391 L -5.76318,-32.0654 L -6.67755,-31.4011 L -7.66798,-30.8566 L -8.71884,-30.4405
 L -9.81357,-30.1594 L -10.9349,-30.0178 z
M 52.4058,-37.503 L 52.2189,-37.5266 L 52.0365,-37.5734 L 51.8613,-37.6428 L 51.6963,-37.7335 L 51.5439,-37.8442
 L 51.4065,-37.9732 L 51.2865,-38.1183 L 51.1855,-38.2774 L 51.1053,-38.4478 L 51.0471,-38.627 L 51.0118,-38.812
 L 51,-39 L 51.0118,-39.188 L 51.0471,-39.373 L 51.1053,-39.5522 L 51.1855,-39.7226 L 51.2865,-39.8817
 L 51.4065,-40.0268 L 51.5439,-40.1558 L 51.6963,-40.2665 L 51.8613,-40.3572 L 52.0365,-40.4266 L 52.2189,-40.4734
 L 52.4058,-40.497 L 52.5942,-40.497 L 52.7811,-40.4734 L 52.9635,-40.4266 L 53.1387,-40.3572 L 53.3037,-40.2665
 L 53.4561,-40.1558 L 53.5934,-40.0268 L 53.7135,-39.8817 L 53.8145,-39.7226 L 53.8947,-39.5522 L 53.9529,-39.373
 L 53.9882,-39.188 L 54,-39 L 53.9882,-38.812 L 53.9529,-38.627 L 53.8947,-38.4478 L 53.8145,-38.2774
 L 53.7135,-38.1183 L 53.5934,-37.9732 L 53.4561,-37.8442 L 53.3037,-37.7335 L 53.1387,-37.6428 L 52.9635,-37.5734
 L 52.7811,-37.5266 L 52.5942,-37.503 z
M -52.5942,-37.503 L -52.7811,-37.5266 L -52.9635,-37.5734 L -53.1387,-37.6428 L -53.3037,-37.7335 L -53.4561,-37.8442
 L -53.5934,-37.9732 L -53.7135,-38.1183 L -53.8145,-38.2774 L -53.8947,-38.4478 L -53.9529,-38.627 L -53.9882,-38.812
 L -54,-39 L -53.9882,-39.188 L -53.9529,-39.373 L -53.8947,-39.5522 L -53.8145,-39.7226 L -53.7135,-39.8817
 L -53.5934,-40.0268 L -53.4561,-40.1558 L -53.3037,-40.2665 L -53.1387,-40.3572 L -52.9635,-40.4266 L -52.7811,-40.4734
 L -52.5942,-40.497 L -52.4058,-40.497 L -52.2189,-40.4734 L -52.0365,-40.4266 L -51.8613,-40.3572 L -51.6963,-40.2665
 L -51.5439,-40.1558 L -51.4065,-40.0268 L -51.2865,-39.8817 L -51.1855,-39.7226 L -51.1053,-39.5522 L -51.0471,-39.373
 L -51.0118,-39.188 L -51,-39 L -51.0118,-38.812 L -51.0471,-38.627 L -51.1053,-38.4478 L -51.1855,-38.2774
 L -51.2865,-38.1183 L -51.4065,-37.9732 L -51.5439,-37.8442 L -51.6963,-37.7335 L -51.8613,-37.6428 L -52.0365,-37.5734
 L -52.2189,-37.5266 L -52.4058,-37.503 z
M -52.6884,-28.5059 L -53.0621,-28.5531 L -53.427,-28.6468 L -53.7773,-28.7855 L -54.1075,-28.967 L -54.4123,-29.1885
 L -54.6869,-29.4464 L -54.927,-29.7366 L -55.1289,-30.0547 L -55.2893,-30.3956 L -55.4057,-30.7539 L -55.4763,-31.124
 L -55.5,-31.5 L -55.4763,-31.876 L -55.4057,-32.2461 L -55.2893,-32.6044 L -55.1289,-32.9453 L -54.927,-33.2634
 L -54.6869,-33.5536 L -54.4123,-33.8116 L -54.1075,-34.033 L -53.7773,-34.2145 L -53.427,-34.3532 L -53.0621,-34.4469
 L -52.6884,-34.4941 L -52.3116,-34.4941 L -51.9379,-34.4469 L -51.5729,-34.3532 L -51.2227,-34.2145 L -50.8925,-34.033
 L -50.5877,-33.8116 L -50.3131,-33.5536 L -50.0729,-33.2634 L -49.8711,-32.9453 L -49.7107,-32.6044 L -49.5942,-32.2461
 L -49.5237,-31.876 L -49.5,-31.5 L -49.5237,-31.124 L -49.5942,-30.7539 L -49.7107,-30.3956 L -49.8711,-30.0547
 L -50.0729,-29.7366 L -50.3131,-29.4464 L -50.5877,-29.1885 L -50.8925,-28.967 L -51.2227,-28.7855 L -51.5729,-28.6468
 L -51.9379,-28.5531 L -52.3116,-28.5059 z
M 52.3116,-28.5059 L 51.9379,-28.5531 L 51.5729,-28.6468 L 51.2227,-28.7855 L 50.8925,-28.967 L 50.5877,-29.1885
 L 50.3131,-29.4464 L 50.0729,-29.7366 L 49.8711,-30.0547 L 49.7107,-30.3956 L 49.5942,-30.7539 L 49.5237,-31.124
 L 49.5,-31.5 L 49.5237,-31.876 L 49.5942,-32.2461 L 49.7107,-32.6044 L 49.8711,-32.9453 L 50.0729,-33.2634
 L 50.3131,-33.5536 L 50.5877,-33.8116 L 50.8925,-34.033 L 51.2227,-34.2145 L 51.5729,-34.3532 L 51.9379,-34.4469
 L 52.3116,-34.4941 L 52.6884,-34.4941 L 53.0621,-34.4469 L 53.427,-34.3532 L 53.7773,-34.2145 L 54.1075,-34.033
 L 54.4123,-33.8116 L 54.6869,-33.5536 L 54.927,-33.2634 L 55.1289,-32.9453 L 55.2893,-32.6044 L 55.4057,-32.2461
 L 55.4763,-31.876 L 55.5,-31.5 L 55.4763,-31.124 L 55.4057,-30.7539 L 55.2893,-30.3956 L 55.1289,-30.0547
 L 54.927,-29.7366 L 54.6869,-29.4464 L 54.4123,-29.1885 L 54.1075,-28.967 L 53.7773,-28.7855 L 53.427,-28.6468
 L 53.0621,-28.5531 L 52.6884,-28.5059 z
" stroke="black" fill="lightgray" stroke-width="0.5"/>
</svg>
