<?xml version="1.0" standalone="no"?>
<!DOCTYPE svg PUBLIC "-//W3C//DTD SVG 1.1//EN" "http://www.w3.org/Graphics/SVG/1.1/DTD/svg11.dtd">
<svg width="14mm" height="30mm" viewBox="-7 -54 14 30" xmlns="http://www.w3.org/2000/svg" version="1.1">
<title>OpenSCAD Model</title>
<path d="
M 2.9369,-24.5886 L 3.54507,-24.7447 L 4.12889,-24.9759 L 4.67912,-25.2784 L 5.18712,-25.6474 L 5.64484,-26.0773
 L 6.04507,-26.5611 L 6.38153,-27.0912 L 6.64888,-27.6594 L 6.84291,-28.2566 L 6.96057,-28.8733 L 7,-29.5
 L 7,-48.5 L 6.96057,-49.1267 L 6.84291,-49.7434 L 6.64888,-50.3406 L 6.38153,-50.9088 L 6.04507,-51.4389
 L 5.64484,-51.9227 L 5.18712,-52.3526 L 4.67912,-52.7216 L 4.12889,-53.0241 L 3.54507,-53.2553 L 2.9369,-53.4114
 L 2.31395,-53.4901 L -2.31395,-53.4901 L -2.9369,-53.4114 L -3.54507,-53.2553 L -4.12889,-53.0241 L -4.67912,-52.7216
 L -5.18712,-52.3526 L -5.64484,-51.9227 L -6.04507,-51.4389 L -6.38153,-50.9088 L -6.64888,-50.3406 L -6.84291,-49.7434
 L -6.96057,-49.1267 L -7,-48.5 L -7,-29.5 L -6.96057,-28.8733 L -6.84291,-28.2566 L -6.64888,-27.6594
 L -6.38153,-27.0912 L -6.04507,-26.5611 L -5.64484,-26.0773 L -5.18712,-25.6474 L -4.67912,-25.2784 L -4.12889,-24.9759
 L -3.54507,-24.7447 L -2.9369,-24.5886 L -2.31395,-24.5099 L 2.31395,-24.5099 z
M -0.18837,-43.5059 L -0.562134,-43.5531 L -0.927048,-43.6468 L -1.27733,-43.7855 L -1.60747,-43.967 L -1.91226,-44.1884
 L -2.1869,-44.4464 L -2.42705,-44.7366 L -2.62891,-45.0547 L -2.78932,-45.3956 L -2.90575,-45.7539 L -2.97633,-46.124
 L -3,-46.5 L -2.97633,-46.876 L -2.90575,-47.2461 L -2.78932,-47.6044 L -2.62891,-47.9453 L -2.42705,-48.2634
 L -2.1869,-48.5536 L -1.91226,-48.8115 L -1.60747,-49.033 L -1.27733,-49.2145 L -0.927048,-49.3532 L -0.562134,-49.4469
 L -0.18837,-49.4941 L 0.18837,-49.4941 L 0.562134,-49.4469 L 0.927048,-49.3532 L 1.27733,-49.2145 L 1.60747,-49.033
 L 1.91226,-48.8115 L 2.1869,-48.5536 L 2.42705,-48.2634 L 2.62891,-47.9453 L 2.78932,-47.6044 L 2.90575,-47.2461
 L 2.97633,-46.876 L 3,-46.5 L 2.97633,-46.124 L 2.90575,-45.7539 L 2.78932,-45.3956 L 2.62891,-45.0547
 L 2.42705,-44.7366 L 2.1869,-44.4464 L 1.91226,-44.1884 L 1.60747,-43.967 L 1.27733,-43.7855 L 0.927048,-43.6468
 L 0.562134,-43.5531 L 0.18837,-43.5059 z
M -0.18837,-36.0059 L -0.562134,-36.0531 L -0.927048,-36.1468 L -1.27733,-36.2855 L -1.60747,-36.467 L -1.91226,-36.6885
 L -2.1869,-36.9464 L -2.42705,-37.2366 L -2.62891,-37.5547 L -2.78932,-37.8956 L -2.90575,-38.2539 L -2.97633,-38.624
 L -3,-39 L -2.97633,-39.376 L -2.90575,-39.7461 L -2.78932,-40.1044 L -2.62891,-40.4453 L -2.42705,-40.7634
 L -2.1869,-41.0536 L -1.91226,-41.3115 L -1.60747,-41.533 L -1.27733,-41.7145 L -0.927048,-41.8532 L -0.562134,-41.9469
 L -0.18837,-41.9941 L 0.18837,-41.9941 L 0.562134,-41.9469 L 0.927048,-41.8532 L 1.27733,-41.7145 L 1.60747,-41.533
 L 1.91226,-41.3115 L 2.1869,-41.0536 L 2.42705,-40.7634 L 2.62891,-40.4453 L 2.78932,-40.1044 L 2.90575,-39.7461
 L 2.97633,-39.376 L 3,-39 L 2.97633,-38.624 L 2.90575,-38.2539 L 2.78932,-37.8956 L 2.62891,-37.5547
 L 2.42705,-37.2366 L 2.1869,-36.9464 L 1.91226,-36.6885 L 1.60747,-36.467 L 1.27733,-36.2855 L 0.927048,-36.1468
 L 0.562134,-36.0531 L 0.18837,-36.0059 z
M -0.18837,-28.5059 L -0.562134,-28.5531 L -0.927048,-28.6468 L -1.27733,-28.7855 L -1.60747,-28.967 L -1.91226,-29.1885
 L -2.1869,-29.4464 L -2.42705,-29.7366 L -2.62891,-30.0547 L -2.78932,-30.3956 L -2.90575,-30.7539 L -2.97633,-31.124
 L -3,-31.5 L -2.97633,-31.876 L -2.90575,-32.2461 L -2.78932,-32.6044 L -2.62891,-32.9453 L -2.42705,-33.2634
 L -2.1869,-33.5536 L -1.91226,-33.8116 L -1.60747,-34.033 L -1.27733,-34.2145 L -0.927048,-34.3532 L -0.562134,-34.4469
 L -0.18837,-34.4941 L 0.18837,-34.4941 L 0.562134,-34.4469 L 0.927048,-34.3532 L 1.27733,-34.2145 L 1.60747,-34.033
 L 1.91226,-33.8116 L 2.1869,-33.5536 L 2.42705,-33.2634 L 2.62891,-32.9453 L 2.78932,-32.6044 L 2.90575,-32.2461
 L 2.97633,-31.876 L 3,-31.5 L 2.97633,-31.124 L 2.90575,-30.7539 L 2.78932,-30.3956 L 2.62891,-30.0547
 L 2.42705,-29.7366 L 2.1869,-29.4464 L 1.91226,-29.1885 L 1.60747,-28.967 L 1.27733,-28.7855 L 0.927048,-28.6468
 L 0.562134,-28.5531 L 0.18837,-28.5059 z
" stroke="black" fill="lightgray" stroke-width="0.5"/>
</svg>
