  0
SECTION
  2
BLOCKS
  0
ENDSEC
  0
SECTION
  2
ENTITIES
  0
LINE
  8
0
 10
70.4369
 20
-21.9114
 11
71.0451
 21
-21.7553
  0
LINE
  8
0
 10
71.0451
 20
-21.7553
 11
71.6289
 21
-21.5241
  0
LINE
  8
0
 10
71.6289
 20
-21.5241
 11
72.1791
 21
-21.2216
  0
LINE
  8
0
 10
72.1791
 20
-21.2216
 11
72.6871
 21
-20.8526
  0
LINE
  8
0
 10
72.6871
 20
-20.8526
 11
73.1448
 21
-20.4227
  0
LINE
  8
0
 10
73.1448
 20
-20.4227
 11
73.5451
 21
-19.9389
  0
LINE
  8
0
 10
73.5451
 20
-19.9389
 11
73.8815
 21
-19.4088
  0
LINE
  8
0
 10
73.8815
 20
-19.4088
 11
74.1489
 21
-18.8406
  0
LINE
  8
0
 10
74.1489
 20
-18.8406
 11
74.3429
 21
-18.2434
  0
LINE
  8
0
 10
74.3429
 20
-18.2434
 11
74.4606
 21
-17.6267
  0
LINE
  8
0
 10
74.4606
 20
-17.6267
 11
74.5
 21
-17
  0
LINE
  8
0
 10
74.5
 20
-17
 11
74.5
 21
17
  0
LINE
  8
0
 10
74.5
 20
17
 11
74.4606
 21
17.6267
  0
LINE
  8
0
 10
74.4606
 20
17.6267
 11
74.3429
 21
18.2434
  0
LINE
  8
0
 10
74.3429
 20
18.2434
 11
74.1489
 21
18.8406
  0
LINE
  8
0
 10
74.1489
 20
18.8406
 11
73.8815
 21
19.4088
  0
LINE
  8
0
 10
73.8815
 20
19.4088
 11
73.5451
 21
19.9389
  0
LINE
  8
0
 10
73.5451
 20
19.9389
 11
73.1448
 21
20.4227
  0
LINE
  8
0
 10
73.1448
 20
20.4227
 11
72.6871
 21
20.8526
  0
LINE
  8
0
 10
72.6871
 20
20.8526
 11
72.1791
 21
21.2216
  0
LINE
  8
0
 10
72.1791
 20
21.2216
 11
71.6289
 21
21.5241
  0
LINE
  8
0
 10
71.6289
 20
21.5241
 11
71.0451
 21
21.7553
  0
LINE
  8
0
 10
71.0451
 20
21.7553
 11
70.4369
 21
21.9114
  0
LINE
  8
0
 10
70.4369
 20
21.9114
 11
69.8139
 21
21.9901
  0
LINE
  8
0
 10
69.8139
 20
21.9901
 11
-69.8139
 21
21.9901
  0
LINE
  8
0
 10
-69.8139
 20
21.9901
 11
-70.4369
 21
21.9114
  0
LINE
  8
0
 10
-70.4369
 20
21.9114
 11
-71.0451
 21
21.7553
  0
LINE
  8
0
 10
-71.0451
 20
21.7553
 11
-71.6289
 21
21.5241
  0
LINE
  8
0
 10
-71.6289
 20
21.5241
 11
-72.1791
 21
21.2216
  0
LINE
  8
0
 10
-72.1791
 20
21.2216
 11
-72.6871
 21
20.8526
  0
LINE
  8
0
 10
-72.6871
 20
20.8526
 11
-73.1448
 21
20.4227
  0
LINE
  8
0
 10
-73.1448
 20
20.4227
 11
-73.5451
 21
19.9389
  0
LINE
  8
0
 10
-73.5451
 20
19.9389
 11
-73.8815
 21
19.4088
  0
LINE
  8
0
 10
-73.8815
 20
19.4088
 11
-74.1489
 21
18.8406
  0
LINE
  8
0
 10
-74.1489
 20
18.8406
 11
-74.3429
 21
18.2434
  0
LINE
  8
0
 10
-74.3429
 20
18.2434
 11
-74.4606
 21
17.6267
  0
LINE
  8
0
 10
-74.4606
 20
17.6267
 11
-74.5
 21
17
  0
LINE
  8
0
 10
-74.5
 20
17
 11
-74.5
 21
-17
  0
LINE
  8
0
 10
-74.5
 20
-17
 11
-74.4606
 21
-17.6267
  0
LINE
  8
0
 10
-74.4606
 20
-17.6267
 11
-74.3429
 21
-18.2434
  0
LINE
  8
0
 10
-74.3429
 20
-18.2434
 11
-74.1489
 21
-18.8406
  0
LINE
  8
0
 10
-74.1489
 20
-18.8406
 11
-73.8815
 21
-19.4088
  0
LINE
  8
0
 10
-73.8815
 20
-19.4088
 11
-73.5451
 21
-19.9389
  0
LINE
  8
0
 10
-73.5451
 20
-19.9389
 11
-73.1448
 21
-20.4227
  0
LINE
  8
0
 10
-73.1448
 20
-20.4227
 11
-72.6871
 21
-20.8526
  0
LINE
  8
0
 10
-72.6871
 20
-20.8526
 11
-72.1791
 21
-21.2216
  0
LINE
  8
0
 10
-72.1791
 20
-21.2216
 11
-71.6289
 21
-21.5241
  0
LINE
  8
0
 10
-71.6289
 20
-21.5241
 11
-71.0451
 21
-21.7553
  0
LINE
  8
0
 10
-71.0451
 20
-21.7553
 11
-70.4369
 21
-21.9114
  0
LINE
  8
0
 10
-70.4369
 20
-21.9114
 11
-69.8139
 21
-21.9901
  0
LINE
  8
0
 10
-69.8139
 20
-21.9901
 11
69.8139
 21
-21.9901
  0
LINE
  8
0
 10
69.8139
 20
-21.9901
 11
70.4369
 21
-21.9114
  0
LINE
  8
0
 10
41.807
 20
-18.9625
 11
39.4397
 21
-18.6635
  0
LINE
  8
0
 10
39.4397
 20
-18.6635
 11
37.1287
 21
-18.0701
  0
LINE
  8
0
 10
37.1287
 20
-18.0701
 11
34.9102
 21
-17.1917
  0
LINE
  8
0
 10
34.9102
 20
-17.1917
 11
32.8193
 21
-16.0422
  0
LINE
  8
0
 10
32.8193
 20
-16.0422
 11
30.8889
 21
-14.6397
  0
LINE
  8
0
 10
30.8889
 20
-14.6397
 11
29.1496
 21
-13.0064
  0
LINE
  8
0
 10
29.1496
 20
-13.0064
 11
27.6287
 21
-11.1679
  0
LINE
  8
0
 10
27.6287
 20
-11.1679
 11
26.3502
 21
-9.15331
  0
LINE
  8
0
 10
26.3502
 20
-9.15331
 11
25.3342
 21
-6.99435
  0
LINE
  8
0
 10
25.3342
 20
-6.99435
 11
24.5969
 21
-4.7251
  0
LINE
  8
0
 10
24.5969
 20
-4.7251
 11
24.1498
 21
-2.38132
  0
LINE
  8
0
 10
24.1498
 20
-2.38132
 11
24
 21
0
  0
LINE
  8
0
 10
24
 20
0
 11
24.1498
 21
2.38132
  0
LINE
  8
0
 10
24.1498
 20
2.38132
 11
24.5969
 21
4.7251
  0
LINE
  8
0
 10
24.5969
 20
4.7251
 11
25.3342
 21
6.99435
  0
LINE
  8
0
 10
25.3342
 20
6.99435
 11
26.3502
 21
9.15331
  0
LINE
  8
0
 10
26.3502
 20
9.15331
 11
27.6287
 21
11.1679
  0
LINE
  8
0
 10
27.6287
 20
11.1679
 11
29.1496
 21
13.0064
  0
LINE
  8
0
 10
29.1496
 20
13.0064
 11
30.8889
 21
14.6397
  0
LINE
  8
0
 10
30.8889
 20
14.6397
 11
32.8193
 21
16.0422
  0
LINE
  8
0
 10
32.8193
 20
16.0422
 11
34.9102
 21
17.1917
  0
LINE
  8
0
 10
34.9102
 20
17.1917
 11
37.1287
 21
18.0701
  0
LINE
  8
0
 10
37.1287
 20
18.0701
 11
39.4397
 21
18.6635
  0
LINE
  8
0
 10
39.4397
 20
18.6635
 11
41.807
 21
18.9625
  0
LINE
  8
0
 10
41.807
 20
18.9625
 11
44.193
 21
18.9625
  0
LINE
  8
0
 10
44.193
 20
18.9625
 11
46.5602
 21
18.6635
  0
LINE
  8
0
 10
46.5602
 20
18.6635
 11
48.8713
 21
18.0701
  0
LINE
  8
0
 10
48.8713
 20
18.0701
 11
51.0898
 21
17.1917
  0
LINE
  8
0
 10
51.0898
 20
17.1917
 11
53.1807
 21
16.0422
  0
LINE
  8
0
 10
53.1807
 20
16.0422
 11
55.1111
 21
14.6397
  0
LINE
  8
0
 10
55.1111
 20
14.6397
 11
56.8504
 21
13.0064
  0
LINE
  8
0
 10
56.8504
 20
13.0064
 11
58.3713
 21
11.1679
  0
LINE
  8
0
 10
58.3713
 20
11.1679
 11
59.6498
 21
9.15331
  0
LINE
  8
0
 10
59.6498
 20
9.15331
 11
60.6657
 21
6.99435
  0
LINE
  8
0
 10
60.6657
 20
6.99435
 11
61.4031
 21
4.7251
  0
LINE
  8
0
 10
61.4031
 20
4.7251
 11
61.8502
 21
2.38132
  0
LINE
  8
0
 10
61.8502
 20
2.38132
 11
62
 21
0
  0
LINE
  8
0
 10
62
 20
0
 11
61.8502
 21
-2.38132
  0
LINE
  8
0
 10
61.8502
 20
-2.38132
 11
61.4031
 21
-4.7251
  0
LINE
  8
0
 10
61.4031
 20
-4.7251
 11
60.6657
 21
-6.99435
  0
LINE
  8
0
 10
60.6657
 20
-6.99435
 11
59.6498
 21
-9.15331
  0
LINE
  8
0
 10
59.6498
 20
-9.15331
 11
58.3713
 21
-11.1679
  0
LINE
  8
0
 10
58.3713
 20
-11.1679
 11
56.8504
 21
-13.0064
  0
LINE
  8
0
 10
56.8504
 20
-13.0064
 11
55.1111
 21
-14.6397
  0
LINE
  8
0
 10
55.1111
 20
-14.6397
 11
53.1807
 21
-16.0422
  0
LINE
  8
0
 10
53.1807
 20
-16.0422
 11
51.0898
 21
-17.1917
  0
LINE
  8
0
 10
51.0898
 20
-17.1917
 11
48.8713
 21
-18.0701
  0
LINE
  8
0
 10
48.8713
 20
-18.0701
 11
46.5602
 21
-18.6635
  0
LINE
  8
0
 10
46.5602
 20
-18.6635
 11
44.193
 21
-18.9625
  0
LINE
  8
0
 10
44.193
 20
-18.9625
 11
41.807
 21
-18.9625
  0
LINE
  8
0
 10
-44.193
 20
-18.9625
 11
-46.5602
 21
-18.6635
  0
LINE
  8
0
 10
-46.5602
 20
-18.6635
 11
-48.8713
 21
-18.0701
  0
LINE
  8
0
 10
-48.8713
 20
-18.0701
 11
-51.0898
 21
-17.1917
  0
LINE
  8
0
 10
-51.0898
 20
-17.1917
 11
-53.1807
 21
-16.0422
  0
LINE
  8
0
 10
-53.1807
 20
-16.0422
 11
-55.1111
 21
-14.6397
  0
LINE
  8
0
 10
-55.1111
 20
-14.6397
 11
-56.8504
 21
-13.0064
  0
LINE
  8
0
 10
-56.8504
 20
-13.0064
 11
-58.3713
 21
-11.1679
  0
LINE
  8
0
 10
-58.3713
 20
-11.1679
 11
-59.6498
 21
-9.15331
  0
LINE
  8
0
 10
-59.6498
 20
-9.15331
 11
-60.6657
 21
-6.99435
  0
LINE
  8
0
 10
-60.6657
 20
-6.99435
 11
-61.4031
 21
-4.7251
  0
LINE
  8
0
 10
-61.4031
 20
-4.7251
 11
-61.8502
 21
-2.38132
  0
LINE
  8
0
 10
-61.8502
 20
-2.38132
 11
-62
 21
0
  0
LINE
  8
0
 10
-62
 20
0
 11
-61.8502
 21
2.38132
  0
LINE
  8
0
 10
-61.8502
 20
2.38132
 11
-61.4031
 21
4.7251
  0
LINE
  8
0
 10
-61.4031
 20
4.7251
 11
-60.6657
 21
6.99435
  0
LINE
  8
0
 10
-60.6657
 20
6.99435
 11
-59.6498
 21
9.15331
  0
LINE
  8
0
 10
-59.6498
 20
9.15331
 11
-58.3713
 21
11.1679
  0
LINE
  8
0
 10
-58.3713
 20
11.1679
 11
-56.8504
 21
13.0064
  0
LINE
  8
0
 10
-56.8504
 20
13.0064
 11
-55.1111
 21
14.6397
  0
LINE
  8
0
 10
-55.1111
 20
14.6397
 11
-53.1807
 21
16.0422
  0
LINE
  8
0
 10
-53.1807
 20
16.0422
 11
-51.0898
 21
17.1917
  0
LINE
  8
0
 10
-51.0898
 20
17.1917
 11
-48.8713
 21
18.0701
  0
LINE
  8
0
 10
-48.8713
 20
18.0701
 11
-46.5602
 21
18.6635
  0
LINE
  8
0
 10
-46.5602
 20
18.6635
 11
-44.193
 21
18.9625
  0
LINE
  8
0
 10
-44.193
 20
18.9625
 11
-41.807
 21
18.9625
  0
LINE
  8
0
 10
-41.807
 20
18.9625
 11
-39.4397
 21
18.6635
  0
LINE
  8
0
 10
-39.4397
 20
18.6635
 11
-37.1287
 21
18.0701
  0
LINE
  8
0
 10
-37.1287
 20
18.0701
 11
-34.9102
 21
17.1917
  0
LINE
  8
0
 10
-34.9102
 20
17.1917
 11
-32.8193
 21
16.0422
  0
LINE
  8
0
 10
-32.8193
 20
16.0422
 11
-30.8889
 21
14.6397
  0
LINE
  8
0
 10
-30.8889
 20
14.6397
 11
-29.1496
 21
13.0064
  0
LINE
  8
0
 10
-29.1496
 20
13.0064
 11
-27.6287
 21
11.1679
  0
LINE
  8
0
 10
-27.6287
 20
11.1679
 11
-26.3502
 21
9.15331
  0
LINE
  8
0
 10
-26.3502
 20
9.15331
 11
-25.3342
 21
6.99435
  0
LINE
  8
0
 10
-25.3342
 20
6.99435
 11
-24.5969
 21
4.7251
  0
LINE
  8
0
 10
-24.5969
 20
4.7251
 11
-24.1498
 21
2.38132
  0
LINE
  8
0
 10
-24.1498
 20
2.38132
 11
-24
 21
0
  0
LINE
  8
0
 10
-24
 20
0
 11
-24.1498
 21
-2.38132
  0
LINE
  8
0
 10
-24.1498
 20
-2.38132
 11
-24.5969
 21
-4.7251
  0
LINE
  8
0
 10
-24.5969
 20
-4.7251
 11
-25.3342
 21
-6.99435
  0
LINE
  8
0
 10
-25.3342
 20
-6.99435
 11
-26.3502
 21
-9.15331
  0
LINE
  8
0
 10
-26.3502
 20
-9.15331
 11
-27.6287
 21
-11.1679
  0
LINE
  8
0
 10
-27.6287
 20
-11.1679
 11
-29.1496
 21
-13.0064
  0
LINE
  8
0
 10
-29.1496
 20
-13.0064
 11
-30.8889
 21
-14.6397
  0
LINE
  8
0
 10
-30.8889
 20
-14.6397
 11
-32.8193
 21
-16.0422
  0
LINE
  8
0
 10
-32.8193
 20
-16.0422
 11
-34.9102
 21
-17.1917
  0
LINE
  8
0
 10
-34.9102
 20
-17.1917
 11
-37.1287
 21
-18.0701
  0
LINE
  8
0
 10
-37.1287
 20
-18.0701
 11
-39.4397
 21
-18.6635
  0
LINE
  8
0
 10
-39.4397
 20
-18.6635
 11
-41.807
 21
-18.9625
  0
LINE
  8
0
 10
-41.807
 20
-18.9625
 11
-44.193
 21
-18.9625
  0
LINE
  8
0
 10
-1.19301
 20
-18.9625
 11
-3.56024
 21
-18.6635
  0
LINE
  8
0
 10
-3.56024
 20
-18.6635
 11
-5.87132
 21
-18.0701
  0
LINE
  8
0
 10
-5.87132
 20
-18.0701
 11
-8.0898
 21
-17.1917
  0
LINE
  8
0
 10
-8.0898
 20
-17.1917
 11
-10.1807
 21
-16.0422
  0
LINE
  8
0
 10
-10.1807
 20
-16.0422
 11
-12.1111
 21
-14.6397
  0
LINE
  8
0
 10
-12.1111
 20
-14.6397
 11
-13.8504
 21
-13.0064
  0
LINE
  8
0
 10
-13.8504
 20
-13.0064
 11
-15.3713
 21
-11.1679
  0
LINE
  8
0
 10
-15.3713
 20
-11.1679
 11
-16.6498
 21
-9.15331
  0
LINE
  8
0
 10
-16.6498
 20
-9.15331
 11
-17.6657
 21
-6.99435
  0
LINE
  8
0
 10
-17.6657
 20
-6.99435
 11
-18.4031
 21
-4.7251
  0
LINE
  8
0
 10
-18.4031
 20
-4.7251
 11
-18.8502
 21
-2.38132
  0
LINE
  8
0
 10
-18.8502
 20
-2.38132
 11
-19
 21
0
  0
LINE
  8
0
 10
-19
 20
0
 11
-18.8502
 21
2.38132
  0
LINE
  8
0
 10
-18.8502
 20
2.38132
 11
-18.4031
 21
4.7251
  0
LINE
  8
0
 10
-18.4031
 20
4.7251
 11
-17.6657
 21
6.99435
  0
LINE
  8
0
 10
-17.6657
 20
6.99435
 11
-16.6498
 21
9.15331
  0
LINE
  8
0
 10
-16.6498
 20
9.15331
 11
-15.3713
 21
11.1679
  0
LINE
  8
0
 10
-15.3713
 20
11.1679
 11
-13.8504
 21
13.0064
  0
LINE
  8
0
 10
-13.8504
 20
13.0064
 11
-12.1111
 21
14.6397
  0
LINE
  8
0
 10
-12.1111
 20
14.6397
 11
-10.1807
 21
16.0422
  0
LINE
  8
0
 10
-10.1807
 20
16.0422
 11
-8.0898
 21
17.1917
  0
LINE
  8
0
 10
-8.0898
 20
17.1917
 11
-5.87132
 21
18.0701
  0
LINE
  8
0
 10
-5.87132
 20
18.0701
 11
-3.56024
 21
18.6635
  0
LINE
  8
0
 10
-3.56024
 20
18.6635
 11
-1.19301
 21
18.9625
  0
LINE
  8
0
 10
-1.19301
 20
18.9625
 11
1.19301
 21
18.9625
  0
LINE
  8
0
 10
1.19301
 20
18.9625
 11
3.56024
 21
18.6635
  0
LINE
  8
0
 10
3.56024
 20
18.6635
 11
5.87132
 21
18.0701
  0
LINE
  8
0
 10
5.87132
 20
18.0701
 11
8.0898
 21
17.1917
  0
LINE
  8
0
 10
8.0898
 20
17.1917
 11
10.1807
 21
16.0422
  0
LINE
  8
0
 10
10.1807
 20
16.0422
 11
12.1111
 21
14.6397
  0
LINE
  8
0
 10
12.1111
 20
14.6397
 11
13.8504
 21
13.0064
  0
LINE
  8
0
 10
13.8504
 20
13.0064
 11
15.3713
 21
11.1679
  0
LINE
  8
0
 10
15.3713
 20
11.1679
 11
16.6498
 21
9.15331
  0
LINE
  8
0
 10
16.6498
 20
9.15331
 11
17.6657
 21
6.99435
  0
LINE
  8
0
 10
17.6657
 20
6.99435
 11
18.4031
 21
4.7251
  0
LINE
  8
0
 10
18.4031
 20
4.7251
 11
18.8502
 21
2.38132
  0
LINE
  8
0
 10
18.8502
 20
2.38132
 11
19
 21
0
  0
LINE
  8
0
 10
19
 20
0
 11
18.8502
 21
-2.38132
  0
LINE
  8
0
 10
18.8502
 20
-2.38132
 11
18.4031
 21
-4.7251
  0
LINE
  8
0
 10
18.4031
 20
-4.7251
 11
17.6657
 21
-6.99435
  0
LINE
  8
0
 10
17.6657
 20
-6.99435
 11
16.6498
 21
-9.15331
  0
LINE
  8
0
 10
16.6498
 20
-9.15331
 11
15.3713
 21
-11.1679
  0
LINE
  8
0
 10
15.3713
 20
-11.1679
 11
13.8504
 21
-13.0064
  0
LINE
  8
0
 10
13.8504
 20
-13.0064
 11
12.1111
 21
-14.6397
  0
LINE
  8
0
 10
12.1111
 20
-14.6397
 11
10.1807
 21
-16.0422
  0
LINE
  8
0
 10
10.1807
 20
-16.0422
 11
8.0898
 21
-17.1917
  0
LINE
  8
0
 10
8.0898
 20
-17.1917
 11
5.87132
 21
-18.0701
  0
LINE
  8
0
 10
5.87132
 20
-18.0701
 11
3.56024
 21
-18.6635
  0
LINE
  8
0
 10
3.56024
 20
-18.6635
 11
1.19301
 21
-18.9625
  0
LINE
  8
0
 10
1.19301
 20
-18.9625
 11
-1.19301
 21
-18.9625
  0
LINE
  8
0
 10
-67.6884
 20
12.0059
 11
-68.0621
 21
12.0531
  0
LINE
  8
0
 10
-68.0621
 20
12.0531
 11
-68.427
 21
12.1468
  0
LINE
  8
0
 10
-68.427
 20
12.1468
 11
-68.7773
 21
12.2855
  0
LINE
  8
0
 10
-68.7773
 20
12.2855
 11
-69.1075
 21
12.467
  0
LINE
  8
0
 10
-69.1075
 20
12.467
 11
-69.4123
 21
12.6884
  0
LINE
  8
0
 10
-69.4123
 20
12.6884
 11
-69.6869
 21
12.9464
  0
LINE
  8
0
 10
-69.6869
 20
12.9464
 11
-69.927
 21
13.2366
  0
LINE
  8
0
 10
-69.927
 20
13.2366
 11
-70.1289
 21
13.5547
  0
LINE
  8
0
 10
-70.1289
 20
13.5547
 11
-70.2893
 21
13.8956
  0
LINE
  8
0
 10
-70.2893
 20
13.8956
 11
-70.4057
 21
14.2539
  0
LINE
  8
0
 10
-70.4057
 20
14.2539
 11
-70.4763
 21
14.624
  0
LINE
  8
0
 10
-70.4763
 20
14.624
 11
-70.5
 21
15
  0
LINE
  8
0
 10
-70.5
 20
15
 11
-70.4763
 21
15.376
  0
LINE
  8
0
 10
-70.4763
 20
15.376
 11
-70.4057
 21
15.7461
  0
LINE
  8
0
 10
-70.4057
 20
15.7461
 11
-70.2893
 21
16.1044
  0
LINE
  8
0
 10
-70.2893
 20
16.1044
 11
-70.1289
 21
16.4453
  0
LINE
  8
0
 10
-70.1289
 20
16.4453
 11
-69.927
 21
16.7634
  0
LINE
  8
0
 10
-69.927
 20
16.7634
 11
-69.6869
 21
17.0536
  0
LINE
  8
0
 10
-69.6869
 20
17.0536
 11
-69.4123
 21
17.3115
  0
LINE
  8
0
 10
-69.4123
 20
17.3115
 11
-69.1075
 21
17.533
  0
LINE
  8
0
 10
-69.1075
 20
17.533
 11
-68.7773
 21
17.7145
  0
LINE
  8
0
 10
-68.7773
 20
17.7145
 11
-68.427
 21
17.8532
  0
LINE
  8
0
 10
-68.427
 20
17.8532
 11
-68.0621
 21
17.9469
  0
LINE
  8
0
 10
-68.0621
 20
17.9469
 11
-67.6884
 21
17.9941
  0
LINE
  8
0
 10
-67.6884
 20
17.9941
 11
-67.3116
 21
17.9941
  0
LINE
  8
0
 10
-67.3116
 20
17.9941
 11
-66.9379
 21
17.9469
  0
LINE
  8
0
 10
-66.9379
 20
17.9469
 11
-66.573
 21
17.8532
  0
LINE
  8
0
 10
-66.573
 20
17.8532
 11
-66.2227
 21
17.7145
  0
LINE
  8
0
 10
-66.2227
 20
17.7145
 11
-65.8925
 21
17.533
  0
LINE
  8
0
 10
-65.8925
 20
17.533
 11
-65.5877
 21
17.3115
  0
LINE
  8
0
 10
-65.5877
 20
17.3115
 11
-65.3131
 21
17.0536
  0
LINE
  8
0
 10
-65.3131
 20
17.0536
 11
-65.073
 21
16.7634
  0
LINE
  8
0
 10
-65.073
 20
16.7634
 11
-64.8711
 21
16.4453
  0
LINE
  8
0
 10
-64.8711
 20
16.4453
 11
-64.7107
 21
16.1044
  0
LINE
  8
0
 10
-64.7107
 20
16.1044
 11
-64.5943
 21
15.7461
  0
LINE
  8
0
 10
-64.5943
 20
15.7461
 11
-64.5237
 21
15.376
  0
LINE
  8
0
 10
-64.5237
 20
15.376
 11
-64.5
 21
15
  0
LINE
  8
0
 10
-64.5
 20
15
 11
-64.5237
 21
14.624
  0
LINE
  8
0
 10
-64.5237
 20
14.624
 11
-64.5943
 21
14.2539
  0
LINE
  8
0
 10
-64.5943
 20
14.2539
 11
-64.7107
 21
13.8956
  0
LINE
  8
0
 10
-64.7107
 20
13.8956
 11
-64.8711
 21
13.5547
  0
LINE
  8
0
 10
-64.8711
 20
13.5547
 11
-65.073
 21
13.2366
  0
LINE
  8
0
 10
-65.073
 20
13.2366
 11
-65.3131
 21
12.9464
  0
LINE
  8
0
 10
-65.3131
 20
12.9464
 11
-65.5877
 21
12.6884
  0
LINE
  8
0
 10
-65.5877
 20
12.6884
 11
-65.8925
 21
12.467
  0
LINE
  8
0
 10
-65.8925
 20
12.467
 11
-66.2227
 21
12.2855
  0
LINE
  8
0
 10
-66.2227
 20
12.2855
 11
-66.573
 21
12.1468
  0
LINE
  8
0
 10
-66.573
 20
12.1468
 11
-66.9379
 21
12.0531
  0
LINE
  8
0
 10
-66.9379
 20
12.0531
 11
-67.3116
 21
12.0059
  0
LINE
  8
0
 10
-67.3116
 20
12.0059
 11
-67.6884
 21
12.0059
  0
LINE
  8
0
 10
67.3116
 20
12.0059
 11
66.9379
 21
12.0531
  0
LINE
  8
0
 10
66.9379
 20
12.0531
 11
66.573
 21
12.1468
  0
LINE
  8
0
 10
66.573
 20
12.1468
 11
66.2227
 21
12.2855
  0
LINE
  8
0
 10
66.2227
 20
12.2855
 11
65.8925
 21
12.467
  0
LINE
  8
0
 10
65.8925
 20
12.467
 11
65.5877
 21
12.6884
  0
LINE
  8
0
 10
65.5877
 20
12.6884
 11
65.3131
 21
12.9464
  0
LINE
  8
0
 10
65.3131
 20
12.9464
 11
65.073
 21
13.2366
  0
LINE
  8
0
 10
65.073
 20
13.2366
 11
64.8711
 21
13.5547
  0
LINE
  8
0
 10
64.8711
 20
13.5547
 11
64.7107
 21
13.8956
  0
LINE
  8
0
 10
64.7107
 20
13.8956
 11
64.5943
 21
14.2539
  0
LINE
  8
0
 10
64.5943
 20
14.2539
 11
64.5237
 21
14.624
  0
LINE
  8
0
 10
64.5237
 20
14.624
 11
64.5
 21
15
  0
LINE
  8
0
 10
64.5
 20
15
 11
64.5237
 21
15.376
  0
LINE
  8
0
 10
64.5237
 20
15.376
 11
64.5943
 21
15.7461
  0
LINE
  8
0
 10
64.5943
 20
15.7461
 11
64.7107
 21
16.1044
  0
LINE
  8
0
 10
64.7107
 20
16.1044
 11
64.8711
 21
16.4453
  0
LINE
  8
0
 10
64.8711
 20
16.4453
 11
65.073
 21
16.7634
  0
LINE
  8
0
 10
65.073
 20
16.7634
 11
65.3131
 21
17.0536
  0
LINE
  8
0
 10
65.3131
 20
17.0536
 11
65.5877
 21
17.3115
  0
LINE
  8
0
 10
65.5877
 20
17.3115
 11
65.8925
 21
17.533
  0
LINE
  8
0
 10
65.8925
 20
17.533
 11
66.2227
 21
17.7145
  0
LINE
  8
0
 10
66.2227
 20
17.7145
 11
66.573
 21
17.8532
  0
LINE
  8
0
 10
66.573
 20
17.8532
 11
66.9379
 21
17.9469
  0
LINE
  8
0
 10
66.9379
 20
17.9469
 11
67.3116
 21
17.9941
  0
LINE
  8
0
 10
67.3116
 20
17.9941
 11
67.6884
 21
17.9941
  0
LINE
  8
0
 10
67.6884
 20
17.9941
 11
68.0621
 21
17.9469
  0
LINE
  8
0
 10
68.0621
 20
17.9469
 11
68.427
 21
17.8532
  0
LINE
  8
0
 10
68.427
 20
17.8532
 11
68.7773
 21
17.7145
  0
LINE
  8
0
 10
68.7773
 20
17.7145
 11
69.1075
 21
17.533
  0
LINE
  8
0
 10
69.1075
 20
17.533
 11
69.4123
 21
17.3115
  0
LINE
  8
0
 10
69.4123
 20
17.3115
 11
69.6869
 21
17.0536
  0
LINE
  8
0
 10
69.6869
 20
17.0536
 11
69.927
 21
16.7634
  0
LINE
  8
0
 10
69.927
 20
16.7634
 11
70.1289
 21
16.4453
  0
LINE
  8
0
 10
70.1289
 20
16.4453
 11
70.2893
 21
16.1044
  0
LINE
  8
0
 10
70.2893
 20
16.1044
 11
70.4057
 21
15.7461
  0
LINE
  8
0
 10
70.4057
 20
15.7461
 11
70.4763
 21
15.376
  0
LINE
  8
0
 10
70.4763
 20
15.376
 11
70.5
 21
15
  0
LINE
  8
0
 10
70.5
 20
15
 11
70.4763
 21
14.624
  0
LINE
  8
0
 10
70.4763
 20
14.624
 11
70.4057
 21
14.2539
  0
LINE
  8
0
 10
70.4057
 20
14.2539
 11
70.2893
 21
13.8956
  0
LINE
  8
0
 10
70.2893
 20
13.8956
 11
70.1289
 21
13.5547
  0
LINE
  8
0
 10
70.1289
 20
13.5547
 11
69.927
 21
13.2366
  0
LINE
  8
0
 10
69.927
 20
13.2366
 11
69.6869
 21
12.9464
  0
LINE
  8
0
 10
69.6869
 20
12.9464
 11
69.4123
 21
12.6884
  0
LINE
  8
0
 10
69.4123
 20
12.6884
 11
69.1075
 21
12.467
  0
LINE
  8
0
 10
69.1075
 20
12.467
 11
68.7773
 21
12.2855
  0
LINE
  8
0
 10
68.7773
 20
12.2855
 11
68.427
 21
12.1468
  0
LINE
  8
0
 10
68.427
 20
12.1468
 11
68.0621
 21
12.0531
  0
LINE
  8
0
 10
68.0621
 20
12.0531
 11
67.6884
 21
12.0059
  0
LINE
  8
0
 10
67.6884
 20
12.0059
 11
67.3116
 21
12.0059
  0
LINE
  8
0
 10
-67.5942
 20
6.00294
 11
-67.7811
 21
6.02657
  0
LINE
  8
0
 10
-67.7811
 20
6.02657
 11
-67.9635
 21
6.07341
  0
LINE
  8
0
 10
-67.9635
 20
6.07341
 11
-68.1387
 21
6.14275
  0
LINE
  8
0
 10
-68.1387
 20
6.14275
 11
-68.3037
 21
6.23351
  0
LINE
  8
0
 10
-68.3037
 20
6.23351
 11
-68.4561
 21
6.34422
  0
LINE
  8
0
 10
-68.4561
 20
6.34422
 11
-68.5934
 21
6.47318
  0
LINE
  8
0
 10
-68.5934
 20
6.47318
 11
-68.7135
 21
6.61832
  0
LINE
  8
0
 10
-68.7135
 20
6.61832
 11
-68.8145
 21
6.77736
  0
LINE
  8
0
 10
-68.8145
 20
6.77736
 11
-68.8947
 21
6.9478
  0
LINE
  8
0
 10
-68.8947
 20
6.9478
 11
-68.9529
 21
7.12695
  0
LINE
  8
0
 10
-68.9529
 20
7.12695
 11
-68.9882
 21
7.312
  0
LINE
  8
0
 10
-68.9882
 20
7.312
 11
-69
 21
7.5
  0
LINE
  8
0
 10
-69
 20
7.5
 11
-68.9882
 21
7.68799
  0
LINE
  8
0
 10
-68.9882
 20
7.68799
 11
-68.9529
 21
7.87303
  0
LINE
  8
0
 10
-68.9529
 20
7.87303
 11
-68.8947
 21
8.05219
  0
LINE
  8
0
 10
-68.8947
 20
8.05219
 11
-68.8145
 21
8.22263
  0
LINE
  8
0
 10
-68.8145
 20
8.22263
 11
-68.7135
 21
8.38167
  0
LINE
  8
0
 10
-68.7135
 20
8.38167
 11
-68.5934
 21
8.52681
  0
LINE
  8
0
 10
-68.5934
 20
8.52681
 11
-68.4561
 21
8.65576
  0
LINE
  8
0
 10
-68.4561
 20
8.65576
 11
-68.3037
 21
8.76648
  0
LINE
  8
0
 10
-68.3037
 20
8.76648
 11
-68.1387
 21
8.85724
  0
LINE
  8
0
 10
-68.1387
 20
8.85724
 11
-67.9635
 21
8.92657
  0
LINE
  8
0
 10
-67.9635
 20
8.92657
 11
-67.7811
 21
8.97342
  0
LINE
  8
0
 10
-67.7811
 20
8.97342
 11
-67.5942
 21
8.99704
  0
LINE
  8
0
 10
-67.5942
 20
8.99704
 11
-67.4058
 21
8.99704
  0
LINE
  8
0
 10
-67.4058
 20
8.99704
 11
-67.2189
 21
8.97342
  0
LINE
  8
0
 10
-67.2189
 20
8.97342
 11
-67.0365
 21
8.92657
  0
LINE
  8
0
 10
-67.0365
 20
8.92657
 11
-66.8613
 21
8.85724
  0
LINE
  8
0
 10
-66.8613
 20
8.85724
 11
-66.6963
 21
8.76648
  0
LINE
  8
0
 10
-66.6963
 20
8.76648
 11
-66.5439
 21
8.65576
  0
LINE
  8
0
 10
-66.5439
 20
8.65576
 11
-66.4065
 21
8.52681
  0
LINE
  8
0
 10
-66.4065
 20
8.52681
 11
-66.2865
 21
8.38167
  0
LINE
  8
0
 10
-66.2865
 20
8.38167
 11
-66.1855
 21
8.22263
  0
LINE
  8
0
 10
-66.1855
 20
8.22263
 11
-66.1053
 21
8.05219
  0
LINE
  8
0
 10
-66.1053
 20
8.05219
 11
-66.0471
 21
7.87303
  0
LINE
  8
0
 10
-66.0471
 20
7.87303
 11
-66.0118
 21
7.68799
  0
LINE
  8
0
 10
-66.0118
 20
7.68799
 11
-66
 21
7.5
  0
LINE
  8
0
 10
-66
 20
7.5
 11
-66.0118
 21
7.312
  0
LINE
  8
0
 10
-66.0118
 20
7.312
 11
-66.0471
 21
7.12695
  0
LINE
  8
0
 10
-66.0471
 20
7.12695
 11
-66.1053
 21
6.9478
  0
LINE
  8
0
 10
-66.1053
 20
6.9478
 11
-66.1855
 21
6.77736
  0
LINE
  8
0
 10
-66.1855
 20
6.77736
 11
-66.2865
 21
6.61832
  0
LINE
  8
0
 10
-66.2865
 20
6.61832
 11
-66.4065
 21
6.47318
  0
LINE
  8
0
 10
-66.4065
 20
6.47318
 11
-66.5439
 21
6.34422
  0
LINE
  8
0
 10
-66.5439
 20
6.34422
 11
-66.6963
 21
6.23351
  0
LINE
  8
0
 10
-66.6963
 20
6.23351
 11
-66.8613
 21
6.14275
  0
LINE
  8
0
 10
-66.8613
 20
6.14275
 11
-67.0365
 21
6.07341
  0
LINE
  8
0
 10
-67.0365
 20
6.07341
 11
-67.2189
 21
6.02657
  0
LINE
  8
0
 10
-67.2189
 20
6.02657
 11
-67.4058
 21
6.00294
  0
LINE
  8
0
 10
-67.4058
 20
6.00294
 11
-67.5942
 21
6.00294
  0
LINE
  8
0
 10
67.4058
 20
6.00294
 11
67.2189
 21
6.02657
  0
LINE
  8
0
 10
67.2189
 20
6.02657
 11
67.0365
 21
6.07341
  0
LINE
  8
0
 10
67.0365
 20
6.07341
 11
66.8613
 21
6.14275
  0
LINE
  8
0
 10
66.8613
 20
6.14275
 11
66.6963
 21
6.23351
  0
LINE
  8
0
 10
66.6963
 20
6.23351
 11
66.5439
 21
6.34422
  0
LINE
  8
0
 10
66.5439
 20
6.34422
 11
66.4065
 21
6.47318
  0
LINE
  8
0
 10
66.4065
 20
6.47318
 11
66.2865
 21
6.61832
  0
LINE
  8
0
 10
66.2865
 20
6.61832
 11
66.1855
 21
6.77736
  0
LINE
  8
0
 10
66.1855
 20
6.77736
 11
66.1053
 21
6.9478
  0
LINE
  8
0
 10
66.1053
 20
6.9478
 11
66.0471
 21
7.12695
  0
LINE
  8
0
 10
66.0471
 20
7.12695
 11
66.0118
 21
7.312
  0
LINE
  8
0
 10
66.0118
 20
7.312
 11
66
 21
7.5
  0
LINE
  8
0
 10
66
 20
7.5
 11
66.0118
 21
7.68799
  0
LINE
  8
0
 10
66.0118
 20
7.68799
 11
66.0471
 21
7.87303
  0
LINE
  8
0
 10
66.0471
 20
7.87303
 11
66.1053
 21
8.05219
  0
LINE
  8
0
 10
66.1053
 20
8.05219
 11
66.1855
 21
8.22263
  0
LINE
  8
0
 10
66.1855
 20
8.22263
 11
66.2865
 21
8.38167
  0
LINE
  8
0
 10
66.2865
 20
8.38167
 11
66.4065
 21
8.52681
  0
LINE
  8
0
 10
66.4065
 20
8.52681
 11
66.5439
 21
8.65576
  0
LINE
  8
0
 10
66.5439
 20
8.65576
 11
66.6963
 21
8.76648
  0
LINE
  8
0
 10
66.6963
 20
8.76648
 11
66.8613
 21
8.85724
  0
LINE
  8
0
 10
66.8613
 20
8.85724
 11
67.0365
 21
8.92657
  0
LINE
  8
0
 10
67.0365
 20
8.92657
 11
67.2189
 21
8.97342
  0
LINE
  8
0
 10
67.2189
 20
8.97342
 11
67.4058
 21
8.99704
  0
LINE
  8
0
 10
67.4058
 20
8.99704
 11
67.5942
 21
8.99704
  0
LINE
  8
0
 10
67.5942
 20
8.99704
 11
67.7811
 21
8.97342
  0
LINE
  8
0
 10
67.7811
 20
8.97342
 11
67.9635
 21
8.92657
  0
LINE
  8
0
 10
67.9635
 20
8.92657
 11
68.1387
 21
8.85724
  0
LINE
  8
0
 10
68.1387
 20
8.85724
 11
68.3037
 21
8.76648
  0
LINE
  8
0
 10
68.3037
 20
8.76648
 11
68.4561
 21
8.65576
  0
LINE
  8
0
 10
68.4561
 20
8.65576
 11
68.5934
 21
8.52681
  0
LINE
  8
0
 10
68.5934
 20
8.52681
 11
68.7135
 21
8.38167
  0
LINE
  8
0
 10
68.7135
 20
8.38167
 11
68.8145
 21
8.22263
  0
LINE
  8
0
 10
68.8145
 20
8.22263
 11
68.8947
 21
8.05219
  0
LINE
  8
0
 10
68.8947
 20
8.05219
 11
68.9529
 21
7.87303
  0
LINE
  8
0
 10
68.9529
 20
7.87303
 11
68.9882
 21
7.68799
  0
LINE
  8
0
 10
68.9882
 20
7.68799
 11
69
 21
7.5
  0
LINE
  8
0
 10
69
 20
7.5
 11
68.9882
 21
7.312
  0
LINE
  8
0
 10
68.9882
 20
7.312
 11
68.9529
 21
7.12695
  0
LINE
  8
0
 10
68.9529
 20
7.12695
 11
68.8947
 21
6.9478
  0
LINE
  8
0
 10
68.8947
 20
6.9478
 11
68.8145
 21
6.77736
  0
LINE
  8
0
 10
68.8145
 20
6.77736
 11
68.7135
 21
6.61832
  0
LINE
  8
0
 10
68.7135
 20
6.61832
 11
68.5934
 21
6.47318
  0
LINE
  8
0
 10
68.5934
 20
6.47318
 11
68.4561
 21
6.34422
  0
LINE
  8
0
 10
68.4561
 20
6.34422
 11
68.3037
 21
6.23351
  0
LINE
  8
0
 10
68.3037
 20
6.23351
 11
68.1387
 21
6.14275
  0
LINE
  8
0
 10
68.1387
 20
6.14275
 11
67.9635
 21
6.07341
  0
LINE
  8
0
 10
67.9635
 20
6.07341
 11
67.7811
 21
6.02657
  0
LINE
  8
0
 10
67.7811
 20
6.02657
 11
67.5942
 21
6.00294
  0
LINE
  8
0
 10
67.5942
 20
6.00294
 11
67.4058
 21
6.00294
  0
LINE
  8
0
 10
67.3116
 20
-2.99408
 11
66.9379
 21
-2.94685
  0
LINE
  8
0
 10
66.9379
 20
-2.94685
 11
66.573
 21
-2.85316
  0
LINE
  8
0
 10
66.573
 20
-2.85316
 11
66.2227
 21
-2.71448
  0
LINE
  8
0
 10
66.2227
 20
-2.71448
 11
65.8925
 21
-2.53297
  0
LINE
  8
0
 10
65.8925
 20
-2.53297
 11
65.5877
 21
-2.31154
  0
LINE
  8
0
 10
65.5877
 20
-2.31154
 11
65.3131
 21
-2.05363
  0
LINE
  8
0
 10
65.3131
 20
-2.05363
 11
65.073
 21
-1.76335
  0
LINE
  8
0
 10
65.073
 20
-1.76335
 11
64.8711
 21
-1.44525
  0
LINE
  8
0
 10
64.8711
 20
-1.44525
 11
64.7107
 21
-1.10437
  0
LINE
  8
0
 10
64.7107
 20
-1.10437
 11
64.5943
 21
-0.746063
  0
LINE
  8
0
 10
64.5943
 20
-0.746063
 11
64.5237
 21
-0.375992
  0
LINE
  8
0
 10
64.5237
 20
-0.375992
 11
64.5
 21
0
  0
LINE
  8
0
 10
64.5
 20
0
 11
64.5237
 21
0.375992
  0
LINE
  8
0
 10
64.5237
 20
0.375992
 11
64.5943
 21
0.746063
  0
LINE
  8
0
 10
64.5943
 20
0.746063
 11
64.7107
 21
1.10437
  0
LINE
  8
0
 10
64.7107
 20
1.10437
 11
64.8711
 21
1.44525
  0
LINE
  8
0
 10
64.8711
 20
1.44525
 11
65.073
 21
1.76335
  0
LINE
  8
0
 10
65.073
 20
1.76335
 11
65.3131
 21
2.05363
  0
LINE
  8
0
 10
65.3131
 20
2.05363
 11
65.5877
 21
2.31154
  0
LINE
  8
0
 10
65.5877
 20
2.31154
 11
65.8925
 21
2.53297
  0
LINE
  8
0
 10
65.8925
 20
2.53297
 11
66.2227
 21
2.71448
  0
LINE
  8
0
 10
66.2227
 20
2.71448
 11
66.573
 21
2.85316
  0
LINE
  8
0
 10
66.573
 20
2.85316
 11
66.9379
 21
2.94685
  0
LINE
  8
0
 10
66.9379
 20
2.94685
 11
67.3116
 21
2.99408
  0
LINE
  8
0
 10
67.3116
 20
2.99408
 11
67.6884
 21
2.99408
  0
LINE
  8
0
 10
67.6884
 20
2.99408
 11
68.0621
 21
2.94685
  0
LINE
  8
0
 10
68.0621
 20
2.94685
 11
68.427
 21
2.85316
  0
LINE
  8
0
 10
68.427
 20
2.85316
 11
68.7773
 21
2.71448
  0
LINE
  8
0
 10
68.7773
 20
2.71448
 11
69.1075
 21
2.53297
  0
LINE
  8
0
 10
69.1075
 20
2.53297
 11
69.4123
 21
2.31154
  0
LINE
  8
0
 10
69.4123
 20
2.31154
 11
69.6869
 21
2.05363
  0
LINE
  8
0
 10
69.6869
 20
2.05363
 11
69.927
 21
1.76335
  0
LINE
  8
0
 10
69.927
 20
1.76335
 11
70.1289
 21
1.44525
  0
LINE
  8
0
 10
70.1289
 20
1.44525
 11
70.2893
 21
1.10437
  0
LINE
  8
0
 10
70.2893
 20
1.10437
 11
70.4057
 21
0.746063
  0
LINE
  8
0
 10
70.4057
 20
0.746063
 11
70.4763
 21
0.375992
  0
LINE
  8
0
 10
70.4763
 20
0.375992
 11
70.5
 21
0
  0
LINE
  8
0
 10
70.5
 20
0
 11
70.4763
 21
-0.375992
  0
LINE
  8
0
 10
70.4763
 20
-0.375992
 11
70.4057
 21
-0.746063
  0
LINE
  8
0
 10
70.4057
 20
-0.746063
 11
70.2893
 21
-1.10437
  0
LINE
  8
0
 10
70.2893
 20
-1.10437
 11
70.1289
 21
-1.44525
  0
LINE
  8
0
 10
70.1289
 20
-1.44525
 11
69.927
 21
-1.76335
  0
LINE
  8
0
 10
69.927
 20
-1.76335
 11
69.6869
 21
-2.05363
  0
LINE
  8
0
 10
69.6869
 20
-2.05363
 11
69.4123
 21
-2.31154
  0
LINE
  8
0
 10
69.4123
 20
-2.31154
 11
69.1075
 21
-2.53297
  0
LINE
  8
0
 10
69.1075
 20
-2.53297
 11
68.7773
 21
-2.71448
  0
LINE
  8
0
 10
68.7773
 20
-2.71448
 11
68.427
 21
-2.85316
  0
LINE
  8
0
 10
68.427
 20
-2.85316
 11
68.0621
 21
-2.94685
  0
LINE
  8
0
 10
68.0621
 20
-2.94685
 11
67.6884
 21
-2.99408
  0
LINE
  8
0
 10
67.6884
 20
-2.99408
 11
67.3116
 21
-2.99408
  0
LINE
  8
0
 10
-67.6884
 20
-2.99408
 11
-68.0621
 21
-2.94685
  0
LINE
  8
0
 10
-68.0621
 20
-2.94685
 11
-68.427
 21
-2.85316
  0
LINE
  8
0
 10
-68.427
 20
-2.85316
 11
-68.7773
 21
-2.71448
  0
LINE
  8
0
 10
-68.7773
 20
-2.71448
 11
-69.1075
 21
-2.53297
  0
LINE
  8
0
 10
-69.1075
 20
-2.53297
 11
-69.4123
 21
-2.31154
  0
LINE
  8
0
 10
-69.4123
 20
-2.31154
 11
-69.6869
 21
-2.05363
  0
LINE
  8
0
 10
-69.6869
 20
-2.05363
 11
-69.927
 21
-1.76335
  0
LINE
  8
0
 10
-69.927
 20
-1.76335
 11
-70.1289
 21
-1.44525
  0
LINE
  8
0
 10
-70.1289
 20
-1.44525
 11
-70.2893
 21
-1.10437
  0
LINE
  8
0
 10
-70.2893
 20
-1.10437
 11
-70.4057
 21
-0.746063
  0
LINE
  8
0
 10
-70.4057
 20
-0.746063
 11
-70.4763
 21
-0.375992
  0
LINE
  8
0
 10
-70.4763
 20
-0.375992
 11
-70.5
 21
0
  0
LINE
  8
0
 10
-70.5
 20
0
 11
-70.4763
 21
0.375992
  0
LINE
  8
0
 10
-70.4763
 20
0.375992
 11
-70.4057
 21
0.746063
  0
LINE
  8
0
 10
-70.4057
 20
0.746063
 11
-70.2893
 21
1.10437
  0
LINE
  8
0
 10
-70.2893
 20
1.10437
 11
-70.1289
 21
1.44525
  0
LINE
  8
0
 10
-70.1289
 20
1.44525
 11
-69.927
 21
1.76335
  0
LINE
  8
0
 10
-69.927
 20
1.76335
 11
-69.6869
 21
2.05363
  0
LINE
  8
0
 10
-69.6869
 20
2.05363
 11
-69.4123
 21
2.31154
  0
LINE
  8
0
 10
-69.4123
 20
2.31154
 11
-69.1075
 21
2.53297
  0
LINE
  8
0
 10
-69.1075
 20
2.53297
 11
-68.7773
 21
2.71448
  0
LINE
  8
0
 10
-68.7773
 20
2.71448
 11
-68.427
 21
2.85316
  0
LINE
  8
0
 10
-68.427
 20
2.85316
 11
-68.0621
 21
2.94685
  0
LINE
  8
0
 10
-68.0621
 20
2.94685
 11
-67.6884
 21
2.99408
  0
LINE
  8
0
 10
-67.6884
 20
2.99408
 11
-67.3116
 21
2.99408
  0
LINE
  8
0
 10
-67.3116
 20
2.99408
 11
-66.9379
 21
2.94685
  0
LINE
  8
0
 10
-66.9379
 20
2.94685
 11
-66.573
 21
2.85316
  0
LINE
  8
0
 10
-66.573
 20
2.85316
 11
-66.2227
 21
2.71448
  0
LINE
  8
0
 10
-66.2227
 20
2.71448
 11
-65.8925
 21
2.53297
  0
LINE
  8
0
 10
-65.8925
 20
2.53297
 11
-65.5877
 21
2.31154
  0
LINE
  8
0
 10
-65.5877
 20
2.31154
 11
-65.3131
 21
2.05363
  0
LINE
  8
0
 10
-65.3131
 20
2.05363
 11
-65.073
 21
1.76335
  0
LINE
  8
0
 10
-65.073
 20
1.76335
 11
-64.8711
 21
1.44525
  0
LINE
  8
0
 10
-64.8711
 20
1.44525
 11
-64.7107
 21
1.10437
  0
LINE
  8
0
 10
-64.7107
 20
1.10437
 11
-64.5943
 21
0.746063
  0
LINE
  8
0
 10
-64.5943
 20
0.746063
 11
-64.5237
 21
0.375992
  0
LINE
  8
0
 10
-64.5237
 20
0.375992
 11
-64.5
 21
0
  0
LINE
  8
0
 10
-64.5
 20
0
 11
-64.5237
 21
-0.375992
  0
LINE
  8
0
 10
-64.5237
 20
-0.375992
 11
-64.5943
 21
-0.746063
  0
LINE
  8
0
 10
-64.5943
 20
-0.746063
 11
-64.7107
 21
-1.10437
  0
LINE
  8
0
 10
-64.7107
 20
-1.10437
 11
-64.8711
 21
-1.44525
  0
LINE
  8
0
 10
-64.8711
 20
-1.44525
 11
-65.073
 21
-1.76335
  0
LINE
  8
0
 10
-65.073
 20
-1.76335
 11
-65.3131
 21
-2.05363
  0
LINE
  8
0
 10
-65.3131
 20
-2.05363
 11
-65.5877
 21
-2.31154
  0
LINE
  8
0
 10
-65.5877
 20
-2.31154
 11
-65.8925
 21
-2.53297
  0
LINE
  8
0
 10
-65.8925
 20
-2.53297
 11
-66.2227
 21
-2.71448
  0
LINE
  8
0
 10
-66.2227
 20
-2.71448
 11
-66.573
 21
-2.85316
  0
LINE
  8
0
 10
-66.573
 20
-2.85316
 11
-66.9379
 21
-2.94685
  0
LINE
  8
0
 10
-66.9379
 20
-2.94685
 11
-67.3116
 21
-2.99408
  0
LINE
  8
0
 10
-67.3116
 20
-2.99408
 11
-67.6884
 21
-2.99408
  0
LINE
  8
0
 10
67.4058
 20
-8.99704
 11
67.2189
 21
-8.97342
  0
LINE
  8
0
 10
67.2189
 20
-8.97342
 11
67.0365
 21
-8.92657
  0
LINE
  8
0
 10
67.0365
 20
-8.92657
 11
66.8613
 21
-8.85724
  0
LINE
  8
0
 10
66.8613
 20
-8.85724
 11
66.6963
 21
-8.76648
  0
LINE
  8
0
 10
66.6963
 20
-8.76648
 11
66.5439
 21
-8.65576
  0
LINE
  8
0
 10
66.5439
 20
-8.65576
 11
66.4065
 21
-8.52681
  0
LINE
  8
0
 10
66.4065
 20
-8.52681
 11
66.2865
 21
-8.38167
  0
LINE
  8
0
 10
66.2865
 20
-8.38167
 11
66.1855
 21
-8.22263
  0
LINE
  8
0
 10
66.1855
 20
-8.22263
 11
66.1053
 21
-8.05219
  0
LINE
  8
0
 10
66.1053
 20
-8.05219
 11
66.0471
 21
-7.87303
  0
LINE
  8
0
 10
66.0471
 20
-7.87303
 11
66.0118
 21
-7.68799
  0
LINE
  8
0
 10
66.0118
 20
-7.68799
 11
66
 21
-7.5
  0
LINE
  8
0
 10
66
 20
-7.5
 11
66.0118
 21
-7.312
  0
LINE
  8
0
 10
66.0118
 20
-7.312
 11
66.0471
 21
-7.12695
  0
LINE
  8
0
 10
66.0471
 20
-7.12695
 11
66.1053
 21
-6.9478
  0
LINE
  8
0
 10
66.1053
 20
-6.9478
 11
66.1855
 21
-6.77736
  0
LINE
  8
0
 10
66.1855
 20
-6.77736
 11
66.2865
 21
-6.61832
  0
LINE
  8
0
 10
66.2865
 20
-6.61832
 11
66.4065
 21
-6.47318
  0
LINE
  8
0
 10
66.4065
 20
-6.47318
 11
66.5439
 21
-6.34422
  0
LINE
  8
0
 10
66.5439
 20
-6.34422
 11
66.6963
 21
-6.23351
  0
LINE
  8
0
 10
66.6963
 20
-6.23351
 11
66.8613
 21
-6.14275
  0
LINE
  8
0
 10
66.8613
 20
-6.14275
 11
67.0365
 21
-6.07341
  0
LINE
  8
0
 10
67.0365
 20
-6.07341
 11
67.2189
 21
-6.02657
  0
LINE
  8
0
 10
67.2189
 20
-6.02657
 11
67.4058
 21
-6.00294
  0
LINE
  8
0
 10
67.4058
 20
-6.00294
 11
67.5942
 21
-6.00294
  0
LINE
  8
0
 10
67.5942
 20
-6.00294
 11
67.7811
 21
-6.02657
  0
LINE
  8
0
 10
67.7811
 20
-6.02657
 11
67.9635
 21
-6.07341
  0
LINE
  8
0
 10
67.9635
 20
-6.07341
 11
68.1387
 21
-6.14275
  0
LINE
  8
0
 10
68.1387
 20
-6.14275
 11
68.3037
 21
-6.23351
  0
LINE
  8
0
 10
68.3037
 20
-6.23351
 11
68.4561
 21
-6.34422
  0
LINE
  8
0
 10
68.4561
 20
-6.34422
 11
68.5934
 21
-6.47318
  0
LINE
  8
0
 10
68.5934
 20
-6.47318
 11
68.7135
 21
-6.61832
  0
LINE
  8
0
 10
68.7135
 20
-6.61832
 11
68.8145
 21
-6.77736
  0
LINE
  8
0
 10
68.8145
 20
-6.77736
 11
68.8947
 21
-6.9478
  0
LINE
  8
0
 10
68.8947
 20
-6.9478
 11
68.9529
 21
-7.12695
  0
LINE
  8
0
 10
68.9529
 20
-7.12695
 11
68.9882
 21
-7.312
  0
LINE
  8
0
 10
68.9882
 20
-7.312
 11
69
 21
-7.5
  0
LINE
  8
0
 10
69
 20
-7.5
 11
68.9882
 21
-7.68799
  0
LINE
  8
0
 10
68.9882
 20
-7.68799
 11
68.9529
 21
-7.87303
  0
LINE
  8
0
 10
68.9529
 20
-7.87303
 11
68.8947
 21
-8.05219
  0
LINE
  8
0
 10
68.8947
 20
-8.05219
 11
68.8145
 21
-8.22263
  0
LINE
  8
0
 10
68.8145
 20
-8.22263
 11
68.7135
 21
-8.38167
  0
LINE
  8
0
 10
68.7135
 20
-8.38167
 11
68.5934
 21
-8.52681
  0
LINE
  8
0
 10
68.5934
 20
-8.52681
 11
68.4561
 21
-8.65576
  0
LINE
  8
0
 10
68.4561
 20
-8.65576
 11
68.3037
 21
-8.76648
  0
LINE
  8
0
 10
68.3037
 20
-8.76648
 11
68.1387
 21
-8.85724
  0
LINE
  8
0
 10
68.1387
 20
-8.85724
 11
67.9635
 21
-8.92657
  0
LINE
  8
0
 10
67.9635
 20
-8.92657
 11
67.7811
 21
-8.97342
  0
LINE
  8
0
 10
67.7811
 20
-8.97342
 11
67.5942
 21
-8.99704
  0
LINE
  8
0
 10
67.5942
 20
-8.99704
 11
67.4058
 21
-8.99704
  0
LINE
  8
0
 10
-67.5942
 20
-8.99704
 11
-67.7811
 21
-8.97342
  0
LINE
  8
0
 10
-67.7811
 20
-8.97342
 11
-67.9635
 21
-8.92657
  0
LINE
  8
0
 10
-67.9635
 20
-8.92657
 11
-68.1387
 21
-8.85724
  0
LINE
  8
0
 10
-68.1387
 20
-8.85724
 11
-68.3037
 21
-8.76648
  0
LINE
  8
0
 10
-68.3037
 20
-8.76648
 11
-68.4561
 21
-8.65576
  0
LINE
  8
0
 10
-68.4561
 20
-8.65576
 11
-68.5934
 21
-8.52681
  0
LINE
  8
0
 10
-68.5934
 20
-8.52681
 11
-68.7135
 21
-8.38167
  0
LINE
  8
0
 10
-68.7135
 20
-8.38167
 11
-68.8145
 21
-8.22263
  0
LINE
  8
0
 10
-68.8145
 20
-8.22263
 11
-68.8947
 21
-8.05219
  0
LINE
  8
0
 10
-68.8947
 20
-8.05219
 11
-68.9529
 21
-7.87303
  0
LINE
  8
0
 10
-68.9529
 20
-7.87303
 11
-68.9882
 21
-7.68799
  0
LINE
  8
0
 10
-68.9882
 20
-7.68799
 11
-69
 21
-7.5
  0
LINE
  8
0
 10
-69
 20
-7.5
 11
-68.9882
 21
-7.312
  0
LINE
  8
0
 10
-68.9882
 20
-7.312
 11
-68.9529
 21
-7.12695
  0
LINE
  8
0
 10
-68.9529
 20
-7.12695
 11
-68.8947
 21
-6.9478
  0
LINE
  8
0
 10
-68.8947
 20
-6.9478
 11
-68.8145
 21
-6.77736
  0
LINE
  8
0
 10
-68.8145
 20
-6.77736
 11
-68.7135
 21
-6.61832
  0
LINE
  8
0
 10
-68.7135
 20
-6.61832
 11
-68.5934
 21
-6.47318
  0
LINE
  8
0
 10
-68.5934
 20
-6.47318
 11
-68.4561
 21
-6.34422
  0
LINE
  8
0
 10
-68.4561
 20
-6.34422
 11
-68.3037
 21
-6.23351
  0
LINE
  8
0
 10
-68.3037
 20
-6.23351
 11
-68.1387
 21
-6.14275
  0
LINE
  8
0
 10
-68.1387
 20
-6.14275
 11
-67.9635
 21
-6.07341
  0
LINE
  8
0
 10
-67.9635
 20
-6.07341
 11
-67.7811
 21
-6.02657
  0
LINE
  8
0
 10
-67.7811
 20
-6.02657
 11
-67.5942
 21
-6.00294
  0
LINE
  8
0
 10
-67.5942
 20
-6.00294
 11
-67.4058
 21
-6.00294
  0
LINE
  8
0
 10
-67.4058
 20
-6.00294
 11
-67.2189
 21
-6.02657
  0
LINE
  8
0
 10
-67.2189
 20
-6.02657
 11
-67.0365
 21
-6.07341
  0
LINE
  8
0
 10
-67.0365
 20
-6.07341
 11
-66.8613
 21
-6.14275
  0
LINE
  8
0
 10
-66.8613
 20
-6.14275
 11
-66.6963
 21
-6.23351
  0
LINE
  8
0
 10
-66.6963
 20
-6.23351
 11
-66.5439
 21
-6.34422
  0
LINE
  8
0
 10
-66.5439
 20
-6.34422
 11
-66.4065
 21
-6.47318
  0
LINE
  8
0
 10
-66.4065
 20
-6.47318
 11
-66.2865
 21
-6.61832
  0
LINE
  8
0
 10
-66.2865
 20
-6.61832
 11
-66.1855
 21
-6.77736
  0
LINE
  8
0
 10
-66.1855
 20
-6.77736
 11
-66.1053
 21
-6.9478
  0
LINE
  8
0
 10
-66.1053
 20
-6.9478
 11
-66.0471
 21
-7.12695
  0
LINE
  8
0
 10
-66.0471
 20
-7.12695
 11
-66.0118
 21
-7.312
  0
LINE
  8
0
 10
-66.0118
 20
-7.312
 11
-66
 21
-7.5
  0
LINE
  8
0
 10
-66
 20
-7.5
 11
-66.0118
 21
-7.68799
  0
LINE
  8
0
 10
-66.0118
 20
-7.68799
 11
-66.0471
 21
-7.87303
  0
LINE
  8
0
 10
-66.0471
 20
-7.87303
 11
-66.1053
 21
-8.05219
  0
LINE
  8
0
 10
-66.1053
 20
-8.05219
 11
-66.1855
 21
-8.22263
  0
LINE
  8
0
 10
-66.1855
 20
-8.22263
 11
-66.2865
 21
-8.38167
  0
LINE
  8
0
 10
-66.2865
 20
-8.38167
 11
-66.4065
 21
-8.52681
  0
LINE
  8
0
 10
-66.4065
 20
-8.52681
 11
-66.5439
 21
-8.65576
  0
LINE
  8
0
 10
-66.5439
 20
-8.65576
 11
-66.6963
 21
-8.76648
  0
LINE
  8
0
 10
-66.6963
 20
-8.76648
 11
-66.8613
 21
-8.85724
  0
LINE
  8
0
 10
-66.8613
 20
-8.85724
 11
-67.0365
 21
-8.92657
  0
LINE
  8
0
 10
-67.0365
 20
-8.92657
 11
-67.2189
 21
-8.97342
  0
LINE
  8
0
 10
-67.2189
 20
-8.97342
 11
-67.4058
 21
-8.99704
  0
LINE
  8
0
 10
-67.4058
 20
-8.99704
 11
-67.5942
 21
-8.99704
  0
LINE
  8
0
 10
67.3116
 20
-17.9941
 11
66.9379
 21
-17.9469
  0
LINE
  8
0
 10
66.9379
 20
-17.9469
 11
66.573
 21
-17.8532
  0
LINE
  8
0
 10
66.573
 20
-17.8532
 11
66.2227
 21
-17.7145
  0
LINE
  8
0
 10
66.2227
 20
-17.7145
 11
65.8925
 21
-17.533
  0
LINE
  8
0
 10
65.8925
 20
-17.533
 11
65.5877
 21
-17.3115
  0
LINE
  8
0
 10
65.5877
 20
-17.3115
 11
65.3131
 21
-17.0536
  0
LINE
  8
0
 10
65.3131
 20
-17.0536
 11
65.073
 21
-16.7634
  0
LINE
  8
0
 10
65.073
 20
-16.7634
 11
64.8711
 21
-16.4453
  0
LINE
  8
0
 10
64.8711
 20
-16.4453
 11
64.7107
 21
-16.1044
  0
LINE
  8
0
 10
64.7107
 20
-16.1044
 11
64.5943
 21
-15.7461
  0
LINE
  8
0
 10
64.5943
 20
-15.7461
 11
64.5237
 21
-15.376
  0
LINE
  8
0
 10
64.5237
 20
-15.376
 11
64.5
 21
-15
  0
LINE
  8
0
 10
64.5
 20
-15
 11
64.5237
 21
-14.624
  0
LINE
  8
0
 10
64.5237
 20
-14.624
 11
64.5943
 21
-14.2539
  0
LINE
  8
0
 10
64.5943
 20
-14.2539
 11
64.7107
 21
-13.8956
  0
LINE
  8
0
 10
64.7107
 20
-13.8956
 11
64.8711
 21
-13.5547
  0
LINE
  8
0
 10
64.8711
 20
-13.5547
 11
65.073
 21
-13.2366
  0
LINE
  8
0
 10
65.073
 20
-13.2366
 11
65.3131
 21
-12.9464
  0
LINE
  8
0
 10
65.3131
 20
-12.9464
 11
65.5877
 21
-12.6884
  0
LINE
  8
0
 10
65.5877
 20
-12.6884
 11
65.8925
 21
-12.467
  0
LINE
  8
0
 10
65.8925
 20
-12.467
 11
66.2227
 21
-12.2855
  0
LINE
  8
0
 10
66.2227
 20
-12.2855
 11
66.573
 21
-12.1468
  0
LINE
  8
0
 10
66.573
 20
-12.1468
 11
66.9379
 21
-12.0531
  0
LINE
  8
0
 10
66.9379
 20
-12.0531
 11
67.3116
 21
-12.0059
  0
LINE
  8
0
 10
67.3116
 20
-12.0059
 11
67.6884
 21
-12.0059
  0
LINE
  8
0
 10
67.6884
 20
-12.0059
 11
68.0621
 21
-12.0531
  0
LINE
  8
0
 10
68.0621
 20
-12.0531
 11
68.427
 21
-12.1468
  0
LINE
  8
0
 10
68.427
 20
-12.1468
 11
68.7773
 21
-12.2855
  0
LINE
  8
0
 10
68.7773
 20
-12.2855
 11
69.1075
 21
-12.467
  0
LINE
  8
0
 10
69.1075
 20
-12.467
 11
69.4123
 21
-12.6884
  0
LINE
  8
0
 10
69.4123
 20
-12.6884
 11
69.6869
 21
-12.9464
  0
LINE
  8
0
 10
69.6869
 20
-12.9464
 11
69.927
 21
-13.2366
  0
LINE
  8
0
 10
69.927
 20
-13.2366
 11
70.1289
 21
-13.5547
  0
LINE
  8
0
 10
70.1289
 20
-13.5547
 11
70.2893
 21
-13.8956
  0
LINE
  8
0
 10
70.2893
 20
-13.8956
 11
70.4057
 21
-14.2539
  0
LINE
  8
0
 10
70.4057
 20
-14.2539
 11
70.4763
 21
-14.624
  0
LINE
  8
0
 10
70.4763
 20
-14.624
 11
70.5
 21
-15
  0
LINE
  8
0
 10
70.5
 20
-15
 11
70.4763
 21
-15.376
  0
LINE
  8
0
 10
70.4763
 20
-15.376
 11
70.4057
 21
-15.7461
  0
LINE
  8
0
 10
70.4057
 20
-15.7461
 11
70.2893
 21
-16.1044
  0
LINE
  8
0
 10
70.2893
 20
-16.1044
 11
70.1289
 21
-16.4453
  0
LINE
  8
0
 10
70.1289
 20
-16.4453
 11
69.927
 21
-16.7634
  0
LINE
  8
0
 10
69.927
 20
-16.7634
 11
69.6869
 21
-17.0536
  0
LINE
  8
0
 10
69.6869
 20
-17.0536
 11
69.4123
 21
-17.3115
  0
LINE
  8
0
 10
69.4123
 20
-17.3115
 11
69.1075
 21
-17.533
  0
LINE
  8
0
 10
69.1075
 20
-17.533
 11
68.7773
 21
-17.7145
  0
LINE
  8
0
 10
68.7773
 20
-17.7145
 11
68.427
 21
-17.8532
  0
LINE
  8
0
 10
68.427
 20
-17.8532
 11
68.0621
 21
-17.9469
  0
LINE
  8
0
 10
68.0621
 20
-17.9469
 11
67.6884
 21
-17.9941
  0
LINE
  8
0
 10
67.6884
 20
-17.9941
 11
67.3116
 21
-17.9941
  0
LINE
  8
0
 10
-67.6884
 20
-17.9941
 11
-68.0621
 21
-17.9469
  0
LINE
  8
0
 10
-68.0621
 20
-17.9469
 11
-68.427
 21
-17.8532
  0
LINE
  8
0
 10
-68.427
 20
-17.8532
 11
-68.7773
 21
-17.7145
  0
LINE
  8
0
 10
-68.7773
 20
-17.7145
 11
-69.1075
 21
-17.533
  0
LINE
  8
0
 10
-69.1075
 20
-17.533
 11
-69.4123
 21
-17.3115
  0
LINE
  8
0
 10
-69.4123
 20
-17.3115
 11
-69.6869
 21
-17.0536
  0
LINE
  8
0
 10
-69.6869
 20
-17.0536
 11
-69.927
 21
-16.7634
  0
LINE
  8
0
 10
-69.927
 20
-16.7634
 11
-70.1289
 21
-16.4453
  0
LINE
  8
0
 10
-70.1289
 20
-16.4453
 11
-70.2893
 21
-16.1044
  0
LINE
  8
0
 10
-70.2893
 20
-16.1044
 11
-70.4057
 21
-15.7461
  0
LINE
  8
0
 10
-70.4057
 20
-15.7461
 11
-70.4763
 21
-15.376
  0
LINE
  8
0
 10
-70.4763
 20
-15.376
 11
-70.5
 21
-15
  0
LINE
  8
0
 10
-70.5
 20
-15
 11
-70.4763
 21
-14.624
  0
LINE
  8
0
 10
-70.4763
 20
-14.624
 11
-70.4057
 21
-14.2539
  0
LINE
  8
0
 10
-70.4057
 20
-14.2539
 11
-70.2893
 21
-13.8956
  0
LINE
  8
0
 10
-70.2893
 20
-13.8956
 11
-70.1289
 21
-13.5547
  0
LINE
  8
0
 10
-70.1289
 20
-13.5547
 11
-69.927
 21
-13.2366
  0
LINE
  8
0
 10
-69.927
 20
-13.2366
 11
-69.6869
 21
-12.9464
  0
LINE
  8
0
 10
-69.6869
 20
-12.9464
 11
-69.4123
 21
-12.6884
  0
LINE
  8
0
 10
-69.4123
 20
-12.6884
 11
-69.1075
 21
-12.467
  0
LINE
  8
0
 10
-69.1075
 20
-12.467
 11
-68.7773
 21
-12.2855
  0
LINE
  8
0
 10
-68.7773
 20
-12.2855
 11
-68.427
 21
-12.1468
  0
LINE
  8
0
 10
-68.427
 20
-12.1468
 11
-68.0621
 21
-12.0531
  0
LINE
  8
0
 10
-68.0621
 20
-12.0531
 11
-67.6884
 21
-12.0059
  0
LINE
  8
0
 10
-67.6884
 20
-12.0059
 11
-67.3116
 21
-12.0059
  0
LINE
  8
0
 10
-67.3116
 20
-12.0059
 11
-66.9379
 21
-12.0531
  0
LINE
  8
0
 10
-66.9379
 20
-12.0531
 11
-66.573
 21
-12.1468
  0
LINE
  8
0
 10
-66.573
 20
-12.1468
 11
-66.2227
 21
-12.2855
  0
LINE
  8
0
 10
-66.2227
 20
-12.2855
 11
-65.8925
 21
-12.467
  0
LINE
  8
0
 10
-65.8925
 20
-12.467
 11
-65.5877
 21
-12.6884
  0
LINE
  8
0
 10
-65.5877
 20
-12.6884
 11
-65.3131
 21
-12.9464
  0
LINE
  8
0
 10
-65.3131
 20
-12.9464
 11
-65.073
 21
-13.2366
  0
LINE
  8
0
 10
-65.073
 20
-13.2366
 11
-64.8711
 21
-13.5547
  0
LINE
  8
0
 10
-64.8711
 20
-13.5547
 11
-64.7107
 21
-13.8956
  0
LINE
  8
0
 10
-64.7107
 20
-13.8956
 11
-64.5943
 21
-14.2539
  0
LINE
  8
0
 10
-64.5943
 20
-14.2539
 11
-64.5237
 21
-14.624
  0
LINE
  8
0
 10
-64.5237
 20
-14.624
 11
-64.5
 21
-15
  0
LINE
  8
0
 10
-64.5
 20
-15
 11
-64.5237
 21
-15.376
  0
LINE
  8
0
 10
-64.5237
 20
-15.376
 11
-64.5943
 21
-15.7461
  0
LINE
  8
0
 10
-64.5943
 20
-15.7461
 11
-64.7107
 21
-16.1044
  0
LINE
  8
0
 10
-64.7107
 20
-16.1044
 11
-64.8711
 21
-16.4453
  0
LINE
  8
0
 10
-64.8711
 20
-16.4453
 11
-65.073
 21
-16.7634
  0
LINE
  8
0
 10
-65.073
 20
-16.7634
 11
-65.3131
 21
-17.0536
  0
LINE
  8
0
 10
-65.3131
 20
-17.0536
 11
-65.5877
 21
-17.3115
  0
LINE
  8
0
 10
-65.5877
 20
-17.3115
 11
-65.8925
 21
-17.533
  0
LINE
  8
0
 10
-65.8925
 20
-17.533
 11
-66.2227
 21
-17.7145
  0
LINE
  8
0
 10
-66.2227
 20
-17.7145
 11
-66.573
 21
-17.8532
  0
LINE
  8
0
 10
-66.573
 20
-17.8532
 11
-66.9379
 21
-17.9469
  0
LINE
  8
0
 10
-66.9379
 20
-17.9469
 11
-67.3116
 21
-17.9941
  0
LINE
  8
0
 10
-67.3116
 20
-17.9941
 11
-67.6884
 21
-17.9941
  0
ENDSEC
  0
SECTION
  2
OBJECTS
  0
DICTIONARY
  0
ENDSEC
  0
EOF
