  0
SECTION
  2
BLOCKS
  0
ENDSEC
  0
SECTION
  2
ENTITIES
  0
LINE
  8
0
 10
32.9369
 20
24.5886
 11
33.5451
 21
24.7447
  0
LINE
  8
0
 10
33.5451
 20
24.7447
 11
34.1289
 21
24.9759
  0
LINE
  8
0
 10
34.1289
 20
24.9759
 11
34.6791
 21
25.2784
  0
LINE
  8
0
 10
34.6791
 20
25.2784
 11
35.1871
 21
25.6474
  0
LINE
  8
0
 10
35.1871
 20
25.6474
 11
35.6448
 21
26.0773
  0
LINE
  8
0
 10
35.6448
 20
26.0773
 11
36.0451
 21
26.5611
  0
LINE
  8
0
 10
36.0451
 20
26.5611
 11
36.3815
 21
27.0912
  0
LINE
  8
0
 10
36.3815
 20
27.0912
 11
36.6489
 21
27.6594
  0
LINE
  8
0
 10
36.6489
 20
27.6594
 11
36.8429
 21
28.2566
  0
LINE
  8
0
 10
36.8429
 20
28.2566
 11
36.9606
 21
28.8733
  0
LINE
  8
0
 10
36.9606
 20
28.8733
 11
37
 21
29.5
  0
LINE
  8
0
 10
37
 20
29.5
 11
37
 21
48.5
  0
LINE
  8
0
 10
37
 20
48.5
 11
36.9606
 21
49.1267
  0
LINE
  8
0
 10
36.9606
 20
49.1267
 11
36.8429
 21
49.7434
  0
LINE
  8
0
 10
36.8429
 20
49.7434
 11
36.6489
 21
50.3406
  0
LINE
  8
0
 10
36.6489
 20
50.3406
 11
36.3815
 21
50.9088
  0
LINE
  8
0
 10
36.3815
 20
50.9088
 11
36.0451
 21
51.4389
  0
LINE
  8
0
 10
36.0451
 20
51.4389
 11
35.6448
 21
51.9227
  0
LINE
  8
0
 10
35.6448
 20
51.9227
 11
35.1871
 21
52.3526
  0
LINE
  8
0
 10
35.1871
 20
52.3526
 11
34.6791
 21
52.7216
  0
LINE
  8
0
 10
34.6791
 20
52.7216
 11
34.1289
 21
53.0241
  0
LINE
  8
0
 10
34.1289
 20
53.0241
 11
33.5451
 21
53.2553
  0
LINE
  8
0
 10
33.5451
 20
53.2553
 11
32.9369
 21
53.4114
  0
LINE
  8
0
 10
32.9369
 20
53.4114
 11
32.3139
 21
53.4901
  0
LINE
  8
0
 10
32.3139
 20
53.4901
 11
-32.3139
 21
53.4901
  0
LINE
  8
0
 10
-32.3139
 20
53.4901
 11
-32.9369
 21
53.4114
  0
LINE
  8
0
 10
-32.9369
 20
53.4114
 11
-33.5451
 21
53.2553
  0
LINE
  8
0
 10
-33.5451
 20
53.2553
 11
-34.1289
 21
53.0241
  0
LINE
  8
0
 10
-34.1289
 20
53.0241
 11
-34.6791
 21
52.7216
  0
LINE
  8
0
 10
-34.6791
 20
52.7216
 11
-35.1871
 21
52.3526
  0
LINE
  8
0
 10
-35.1871
 20
52.3526
 11
-35.6448
 21
51.9227
  0
LINE
  8
0
 10
-35.6448
 20
51.9227
 11
-36.0451
 21
51.4389
  0
LINE
  8
0
 10
-36.0451
 20
51.4389
 11
-36.3815
 21
50.9088
  0
LINE
  8
0
 10
-36.3815
 20
50.9088
 11
-36.6489
 21
50.3406
  0
LINE
  8
0
 10
-36.6489
 20
50.3406
 11
-36.8429
 21
49.7434
  0
LINE
  8
0
 10
-36.8429
 20
49.7434
 11
-36.9606
 21
49.1267
  0
LINE
  8
0
 10
-36.9606
 20
49.1267
 11
-37
 21
48.5
  0
LINE
  8
0
 10
-37
 20
48.5
 11
-37
 21
29.5
  0
LINE
  8
0
 10
-37
 20
29.5
 11
-36.9606
 21
28.8733
  0
LINE
  8
0
 10
-36.9606
 20
28.8733
 11
-36.8429
 21
28.2566
  0
LINE
  8
0
 10
-36.8429
 20
28.2566
 11
-36.6489
 21
27.6594
  0
LINE
  8
0
 10
-36.6489
 20
27.6594
 11
-36.3815
 21
27.0912
  0
LINE
  8
0
 10
-36.3815
 20
27.0912
 11
-36.0451
 21
26.5611
  0
LINE
  8
0
 10
-36.0451
 20
26.5611
 11
-35.6448
 21
26.0773
  0
LINE
  8
0
 10
-35.6448
 20
26.0773
 11
-35.1871
 21
25.6474
  0
LINE
  8
0
 10
-35.1871
 20
25.6474
 11
-34.6791
 21
25.2784
  0
LINE
  8
0
 10
-34.6791
 20
25.2784
 11
-34.1289
 21
24.9759
  0
LINE
  8
0
 10
-34.1289
 20
24.9759
 11
-33.5451
 21
24.7447
  0
LINE
  8
0
 10
-33.5451
 20
24.7447
 11
-32.9369
 21
24.5886
  0
LINE
  8
0
 10
-32.9369
 20
24.5886
 11
-32.3139
 21
24.5099
  0
LINE
  8
0
 10
-32.3139
 20
24.5099
 11
32.3139
 21
24.5099
  0
LINE
  8
0
 10
32.3139
 20
24.5099
 11
32.9369
 21
24.5886
  0
LINE
  8
0
 10
29.8116
 20
28.5059
 11
29.4379
 21
28.5531
  0
LINE
  8
0
 10
29.4379
 20
28.5531
 11
29.0729
 21
28.6468
  0
LINE
  8
0
 10
29.0729
 20
28.6468
 11
28.7227
 21
28.7855
  0
LINE
  8
0
 10
28.7227
 20
28.7855
 11
28.3925
 21
28.967
  0
LINE
  8
0
 10
28.3925
 20
28.967
 11
28.0877
 21
29.1885
  0
LINE
  8
0
 10
28.0877
 20
29.1885
 11
27.8131
 21
29.4464
  0
LINE
  8
0
 10
27.8131
 20
29.4464
 11
27.5729
 21
29.7366
  0
LINE
  8
0
 10
27.5729
 20
29.7366
 11
27.3711
 21
30.0547
  0
LINE
  8
0
 10
27.3711
 20
30.0547
 11
27.2107
 21
30.3956
  0
LINE
  8
0
 10
27.2107
 20
30.3956
 11
27.0942
 21
30.7539
  0
LINE
  8
0
 10
27.0942
 20
30.7539
 11
27.0237
 21
31.124
  0
LINE
  8
0
 10
27.0237
 20
31.124
 11
27
 21
31.5
  0
LINE
  8
0
 10
27
 20
31.5
 11
27.0237
 21
31.876
  0
LINE
  8
0
 10
27.0237
 20
31.876
 11
27.0874
 21
32.2104
  0
LINE
  8
0
 10
27.0874
 20
32.2104
 11
26.5545
 21
31.8232
  0
LINE
  8
0
 10
26.5545
 20
31.8232
 11
25.6191
 21
31.309
  0
LINE
  8
0
 10
25.6191
 20
31.309
 11
24.6266
 21
30.916
  0
LINE
  8
0
 10
24.6266
 20
30.916
 11
23.5927
 21
30.6506
  0
LINE
  8
0
 10
23.5927
 20
30.6506
 11
22.5337
 21
30.5168
  0
LINE
  8
0
 10
22.5337
 20
30.5168
 11
21.4663
 21
30.5168
  0
LINE
  8
0
 10
21.4663
 20
30.5168
 11
20.4073
 21
30.6506
  0
LINE
  8
0
 10
20.4073
 20
30.6506
 11
19.3734
 21
30.916
  0
LINE
  8
0
 10
19.3734
 20
30.916
 11
18.3809
 21
31.309
  0
LINE
  8
0
 10
18.3809
 20
31.309
 11
17.4455
 21
31.8232
  0
LINE
  8
0
 10
17.4455
 20
31.8232
 11
16.5819
 21
32.4506
  0
LINE
  8
0
 10
16.5819
 20
32.4506
 11
15.8038
 21
33.1814
  0
LINE
  8
0
 10
15.8038
 20
33.1814
 11
15.1234
 21
34.0038
  0
LINE
  8
0
 10
15.1234
 20
34.0038
 11
14.5514
 21
34.9051
  0
LINE
  8
0
 10
14.5514
 20
34.9051
 11
14.0969
 21
35.871
  0
LINE
  8
0
 10
14.0969
 20
35.871
 11
13.767
 21
36.8861
  0
LINE
  8
0
 10
13.767
 20
36.8861
 11
13.567
 21
37.9347
  0
LINE
  8
0
 10
13.567
 20
37.9347
 11
13.5
 21
39
  0
LINE
  8
0
 10
13.5
 20
39
 11
13.567
 21
40.0653
  0
LINE
  8
0
 10
13.567
 20
40.0653
 11
13.767
 21
41.1139
  0
LINE
  8
0
 10
13.767
 20
41.1139
 11
14.0969
 21
42.129
  0
LINE
  8
0
 10
14.0969
 20
42.129
 11
14.5514
 21
43.0949
  0
LINE
  8
0
 10
14.5514
 20
43.0949
 11
15.1234
 21
43.9962
  0
LINE
  8
0
 10
15.1234
 20
43.9962
 11
15.8038
 21
44.8186
  0
LINE
  8
0
 10
15.8038
 20
44.8186
 11
16.5819
 21
45.5494
  0
LINE
  8
0
 10
16.5819
 20
45.5494
 11
17.4455
 21
46.1768
  0
LINE
  8
0
 10
17.4455
 20
46.1768
 11
18.3809
 21
46.691
  0
LINE
  8
0
 10
18.3809
 20
46.691
 11
19.3734
 21
47.084
  0
LINE
  8
0
 10
19.3734
 20
47.084
 11
20.4073
 21
47.3494
  0
LINE
  8
0
 10
20.4073
 20
47.3494
 11
21.4663
 21
47.4832
  0
LINE
  8
0
 10
21.4663
 20
47.4832
 11
22.5337
 21
47.4832
  0
LINE
  8
0
 10
22.5337
 20
47.4832
 11
23.5927
 21
47.3494
  0
LINE
  8
0
 10
23.5927
 20
47.3494
 11
24.6266
 21
47.084
  0
LINE
  8
0
 10
24.6266
 20
47.084
 11
25.6191
 21
46.691
  0
LINE
  8
0
 10
25.6191
 20
46.691
 11
26.5545
 21
46.1768
  0
LINE
  8
0
 10
26.5545
 20
46.1768
 11
27.0874
 21
45.7896
  0
LINE
  8
0
 10
27.0874
 20
45.7896
 11
27.0237
 21
46.124
  0
LINE
  8
0
 10
27.0237
 20
46.124
 11
27
 21
46.5
  0
LINE
  8
0
 10
27
 20
46.5
 11
27.0237
 21
46.876
  0
LINE
  8
0
 10
27.0237
 20
46.876
 11
27.0942
 21
47.2461
  0
LINE
  8
0
 10
27.0942
 20
47.2461
 11
27.2107
 21
47.6044
  0
LINE
  8
0
 10
27.2107
 20
47.6044
 11
27.3711
 21
47.9453
  0
LINE
  8
0
 10
27.3711
 20
47.9453
 11
27.5729
 21
48.2634
  0
LINE
  8
0
 10
27.5729
 20
48.2634
 11
27.8131
 21
48.5536
  0
LINE
  8
0
 10
27.8131
 20
48.5536
 11
28.0877
 21
48.8115
  0
LINE
  8
0
 10
28.0877
 20
48.8115
 11
28.3925
 21
49.033
  0
LINE
  8
0
 10
28.3925
 20
49.033
 11
28.7227
 21
49.2145
  0
LINE
  8
0
 10
28.7227
 20
49.2145
 11
29.0729
 21
49.3532
  0
LINE
  8
0
 10
29.0729
 20
49.3532
 11
29.4379
 21
49.4469
  0
LINE
  8
0
 10
29.4379
 20
49.4469
 11
29.8116
 21
49.4941
  0
LINE
  8
0
 10
29.8116
 20
49.4941
 11
30.1884
 21
49.4941
  0
LINE
  8
0
 10
30.1884
 20
49.4941
 11
30.5621
 21
49.4469
  0
LINE
  8
0
 10
30.5621
 20
49.4469
 11
30.927
 21
49.3532
  0
LINE
  8
0
 10
30.927
 20
49.3532
 11
31.2773
 21
49.2145
  0
LINE
  8
0
 10
31.2773
 20
49.2145
 11
31.6075
 21
49.033
  0
LINE
  8
0
 10
31.6075
 20
49.033
 11
31.9123
 21
48.8115
  0
LINE
  8
0
 10
31.9123
 20
48.8115
 11
32.1869
 21
48.5536
  0
LINE
  8
0
 10
32.1869
 20
48.5536
 11
32.427
 21
48.2634
  0
LINE
  8
0
 10
32.427
 20
48.2634
 11
32.6289
 21
47.9453
  0
LINE
  8
0
 10
32.6289
 20
47.9453
 11
32.7893
 21
47.6044
  0
LINE
  8
0
 10
32.7893
 20
47.6044
 11
32.9057
 21
47.2461
  0
LINE
  8
0
 10
32.9057
 20
47.2461
 11
32.9763
 21
46.876
  0
LINE
  8
0
 10
32.9763
 20
46.876
 11
33
 21
46.5
  0
LINE
  8
0
 10
33
 20
46.5
 11
32.9763
 21
46.124
  0
LINE
  8
0
 10
32.9763
 20
46.124
 11
32.9057
 21
45.7539
  0
LINE
  8
0
 10
32.9057
 20
45.7539
 11
32.7893
 21
45.3956
  0
LINE
  8
0
 10
32.7893
 20
45.3956
 11
32.6289
 21
45.0547
  0
LINE
  8
0
 10
32.6289
 20
45.0547
 11
32.427
 21
44.7366
  0
LINE
  8
0
 10
32.427
 20
44.7366
 11
32.1869
 21
44.4464
  0
LINE
  8
0
 10
32.1869
 20
44.4464
 11
31.9123
 21
44.1884
  0
LINE
  8
0
 10
31.9123
 20
44.1884
 11
31.6075
 21
43.967
  0
LINE
  8
0
 10
31.6075
 20
43.967
 11
31.2773
 21
43.7855
  0
LINE
  8
0
 10
31.2773
 20
43.7855
 11
30.927
 21
43.6468
  0
LINE
  8
0
 10
30.927
 20
43.6468
 11
30.5621
 21
43.5531
  0
LINE
  8
0
 10
30.5621
 20
43.5531
 11
30.1884
 21
43.5059
  0
LINE
  8
0
 10
30.1884
 20
43.5059
 11
29.8116
 21
43.5059
  0
LINE
  8
0
 10
29.8116
 20
43.5059
 11
29.4379
 21
43.5531
  0
LINE
  8
0
 10
29.4379
 20
43.5531
 11
29.1033
 21
43.639
  0
LINE
  8
0
 10
29.1033
 20
43.639
 11
29.4486
 21
43.0949
  0
LINE
  8
0
 10
29.4486
 20
43.0949
 11
29.9031
 21
42.129
  0
LINE
  8
0
 10
29.9031
 20
42.129
 11
30.233
 21
41.1139
  0
LINE
  8
0
 10
30.233
 20
41.1139
 11
30.433
 21
40.0653
  0
LINE
  8
0
 10
30.433
 20
40.0653
 11
30.5
 21
39
  0
LINE
  8
0
 10
30.5
 20
39
 11
30.433
 21
37.9347
  0
LINE
  8
0
 10
30.433
 20
37.9347
 11
30.233
 21
36.8861
  0
LINE
  8
0
 10
30.233
 20
36.8861
 11
29.9031
 21
35.871
  0
LINE
  8
0
 10
29.9031
 20
35.871
 11
29.4486
 21
34.9051
  0
LINE
  8
0
 10
29.4486
 20
34.9051
 11
29.1033
 21
34.361
  0
LINE
  8
0
 10
29.1033
 20
34.361
 11
29.4379
 21
34.4469
  0
LINE
  8
0
 10
29.4379
 20
34.4469
 11
29.8116
 21
34.4941
  0
LINE
  8
0
 10
29.8116
 20
34.4941
 11
30.1884
 21
34.4941
  0
LINE
  8
0
 10
30.1884
 20
34.4941
 11
30.5621
 21
34.4469
  0
LINE
  8
0
 10
30.5621
 20
34.4469
 11
30.927
 21
34.3532
  0
LINE
  8
0
 10
30.927
 20
34.3532
 11
31.2773
 21
34.2145
  0
LINE
  8
0
 10
31.2773
 20
34.2145
 11
31.6075
 21
34.033
  0
LINE
  8
0
 10
31.6075
 20
34.033
 11
31.9123
 21
33.8116
  0
LINE
  8
0
 10
31.9123
 20
33.8116
 11
32.1869
 21
33.5536
  0
LINE
  8
0
 10
32.1869
 20
33.5536
 11
32.427
 21
33.2634
  0
LINE
  8
0
 10
32.427
 20
33.2634
 11
32.6289
 21
32.9453
  0
LINE
  8
0
 10
32.6289
 20
32.9453
 11
32.7893
 21
32.6044
  0
LINE
  8
0
 10
32.7893
 20
32.6044
 11
32.9057
 21
32.2461
  0
LINE
  8
0
 10
32.9057
 20
32.2461
 11
32.9763
 21
31.876
  0
LINE
  8
0
 10
32.9763
 20
31.876
 11
33
 21
31.5
  0
LINE
  8
0
 10
33
 20
31.5
 11
32.9763
 21
31.124
  0
LINE
  8
0
 10
32.9763
 20
31.124
 11
32.9057
 21
30.7539
  0
LINE
  8
0
 10
32.9057
 20
30.7539
 11
32.7893
 21
30.3956
  0
LINE
  8
0
 10
32.7893
 20
30.3956
 11
32.6289
 21
30.0547
  0
LINE
  8
0
 10
32.6289
 20
30.0547
 11
32.427
 21
29.7366
  0
LINE
  8
0
 10
32.427
 20
29.7366
 11
32.1869
 21
29.4464
  0
LINE
  8
0
 10
32.1869
 20
29.4464
 11
31.9123
 21
29.1885
  0
LINE
  8
0
 10
31.9123
 20
29.1885
 11
31.6075
 21
28.967
  0
LINE
  8
0
 10
31.6075
 20
28.967
 11
31.2773
 21
28.7855
  0
LINE
  8
0
 10
31.2773
 20
28.7855
 11
30.927
 21
28.6468
  0
LINE
  8
0
 10
30.927
 20
28.6468
 11
30.5621
 21
28.5531
  0
LINE
  8
0
 10
30.5621
 20
28.5531
 11
30.1884
 21
28.5059
  0
LINE
  8
0
 10
30.1884
 20
28.5059
 11
29.8116
 21
28.5059
  0
LINE
  8
0
 10
-30.1884
 20
28.5059
 11
-30.5621
 21
28.5531
  0
LINE
  8
0
 10
-30.5621
 20
28.5531
 11
-30.927
 21
28.6468
  0
LINE
  8
0
 10
-30.927
 20
28.6468
 11
-31.2773
 21
28.7855
  0
LINE
  8
0
 10
-31.2773
 20
28.7855
 11
-31.6075
 21
28.967
  0
LINE
  8
0
 10
-31.6075
 20
28.967
 11
-31.9123
 21
29.1885
  0
LINE
  8
0
 10
-31.9123
 20
29.1885
 11
-32.1869
 21
29.4464
  0
LINE
  8
0
 10
-32.1869
 20
29.4464
 11
-32.427
 21
29.7366
  0
LINE
  8
0
 10
-32.427
 20
29.7366
 11
-32.6289
 21
30.0547
  0
LINE
  8
0
 10
-32.6289
 20
30.0547
 11
-32.7893
 21
30.3956
  0
LINE
  8
0
 10
-32.7893
 20
30.3956
 11
-32.9057
 21
30.7539
  0
LINE
  8
0
 10
-32.9057
 20
30.7539
 11
-32.9763
 21
31.124
  0
LINE
  8
0
 10
-32.9763
 20
31.124
 11
-33
 21
31.5
  0
LINE
  8
0
 10
-33
 20
31.5
 11
-32.9763
 21
31.876
  0
LINE
  8
0
 10
-32.9763
 20
31.876
 11
-32.9057
 21
32.2461
  0
LINE
  8
0
 10
-32.9057
 20
32.2461
 11
-32.7893
 21
32.6044
  0
LINE
  8
0
 10
-32.7893
 20
32.6044
 11
-32.6289
 21
32.9453
  0
LINE
  8
0
 10
-32.6289
 20
32.9453
 11
-32.427
 21
33.2634
  0
LINE
  8
0
 10
-32.427
 20
33.2634
 11
-32.1869
 21
33.5536
  0
LINE
  8
0
 10
-32.1869
 20
33.5536
 11
-31.9123
 21
33.8116
  0
LINE
  8
0
 10
-31.9123
 20
33.8116
 11
-31.6075
 21
34.033
  0
LINE
  8
0
 10
-31.6075
 20
34.033
 11
-31.2773
 21
34.2145
  0
LINE
  8
0
 10
-31.2773
 20
34.2145
 11
-30.927
 21
34.3532
  0
LINE
  8
0
 10
-30.927
 20
34.3532
 11
-30.5621
 21
34.4469
  0
LINE
  8
0
 10
-30.5621
 20
34.4469
 11
-30.1884
 21
34.4941
  0
LINE
  8
0
 10
-30.1884
 20
34.4941
 11
-29.8116
 21
34.4941
  0
LINE
  8
0
 10
-29.8116
 20
34.4941
 11
-29.4379
 21
34.4469
  0
LINE
  8
0
 10
-29.4379
 20
34.4469
 11
-29.1033
 21
34.361
  0
LINE
  8
0
 10
-29.1033
 20
34.361
 11
-29.4486
 21
34.9051
  0
LINE
  8
0
 10
-29.4486
 20
34.9051
 11
-29.9031
 21
35.871
  0
LINE
  8
0
 10
-29.9031
 20
35.871
 11
-30.233
 21
36.8861
  0
LINE
  8
0
 10
-30.233
 20
36.8861
 11
-30.433
 21
37.9347
  0
LINE
  8
0
 10
-30.433
 20
37.9347
 11
-30.5
 21
39
  0
LINE
  8
0
 10
-30.5
 20
39
 11
-30.433
 21
40.0653
  0
LINE
  8
0
 10
-30.433
 20
40.0653
 11
-30.233
 21
41.1139
  0
LINE
  8
0
 10
-30.233
 20
41.1139
 11
-29.9031
 21
42.129
  0
LINE
  8
0
 10
-29.9031
 20
42.129
 11
-29.4486
 21
43.0949
  0
LINE
  8
0
 10
-29.4486
 20
43.0949
 11
-29.1033
 21
43.639
  0
LINE
  8
0
 10
-29.1033
 20
43.639
 11
-29.4379
 21
43.5531
  0
LINE
  8
0
 10
-29.4379
 20
43.5531
 11
-29.8116
 21
43.5059
  0
LINE
  8
0
 10
-29.8116
 20
43.5059
 11
-30.1884
 21
43.5059
  0
LINE
  8
0
 10
-30.1884
 20
43.5059
 11
-30.5621
 21
43.5531
  0
LINE
  8
0
 10
-30.5621
 20
43.5531
 11
-30.927
 21
43.6468
  0
LINE
  8
0
 10
-30.927
 20
43.6468
 11
-31.2773
 21
43.7855
  0
LINE
  8
0
 10
-31.2773
 20
43.7855
 11
-31.6075
 21
43.967
  0
LINE
  8
0
 10
-31.6075
 20
43.967
 11
-31.9123
 21
44.1884
  0
LINE
  8
0
 10
-31.9123
 20
44.1884
 11
-32.1869
 21
44.4464
  0
LINE
  8
0
 10
-32.1869
 20
44.4464
 11
-32.427
 21
44.7366
  0
LINE
  8
0
 10
-32.427
 20
44.7366
 11
-32.6289
 21
45.0547
  0
LINE
  8
0
 10
-32.6289
 20
45.0547
 11
-32.7893
 21
45.3956
  0
LINE
  8
0
 10
-32.7893
 20
45.3956
 11
-32.9057
 21
45.7539
  0
LINE
  8
0
 10
-32.9057
 20
45.7539
 11
-32.9763
 21
46.124
  0
LINE
  8
0
 10
-32.9763
 20
46.124
 11
-33
 21
46.5
  0
LINE
  8
0
 10
-33
 20
46.5
 11
-32.9763
 21
46.876
  0
LINE
  8
0
 10
-32.9763
 20
46.876
 11
-32.9057
 21
47.2461
  0
LINE
  8
0
 10
-32.9057
 20
47.2461
 11
-32.7893
 21
47.6044
  0
LINE
  8
0
 10
-32.7893
 20
47.6044
 11
-32.6289
 21
47.9453
  0
LINE
  8
0
 10
-32.6289
 20
47.9453
 11
-32.427
 21
48.2634
  0
LINE
  8
0
 10
-32.427
 20
48.2634
 11
-32.1869
 21
48.5536
  0
LINE
  8
0
 10
-32.1869
 20
48.5536
 11
-31.9123
 21
48.8115
  0
LINE
  8
0
 10
-31.9123
 20
48.8115
 11
-31.6075
 21
49.033
  0
LINE
  8
0
 10
-31.6075
 20
49.033
 11
-31.2773
 21
49.2145
  0
LINE
  8
0
 10
-31.2773
 20
49.2145
 11
-30.927
 21
49.3532
  0
LINE
  8
0
 10
-30.927
 20
49.3532
 11
-30.5621
 21
49.4469
  0
LINE
  8
0
 10
-30.5621
 20
49.4469
 11
-30.1884
 21
49.4941
  0
LINE
  8
0
 10
-30.1884
 20
49.4941
 11
-29.8116
 21
49.4941
  0
LINE
  8
0
 10
-29.8116
 20
49.4941
 11
-29.4379
 21
49.4469
  0
LINE
  8
0
 10
-29.4379
 20
49.4469
 11
-29.0729
 21
49.3532
  0
LINE
  8
0
 10
-29.0729
 20
49.3532
 11
-28.7227
 21
49.2145
  0
LINE
  8
0
 10
-28.7227
 20
49.2145
 11
-28.3925
 21
49.033
  0
LINE
  8
0
 10
-28.3925
 20
49.033
 11
-28.0877
 21
48.8115
  0
LINE
  8
0
 10
-28.0877
 20
48.8115
 11
-27.8131
 21
48.5536
  0
LINE
  8
0
 10
-27.8131
 20
48.5536
 11
-27.5729
 21
48.2634
  0
LINE
  8
0
 10
-27.5729
 20
48.2634
 11
-27.3711
 21
47.9453
  0
LINE
  8
0
 10
-27.3711
 20
47.9453
 11
-27.2107
 21
47.6044
  0
LINE
  8
0
 10
-27.2107
 20
47.6044
 11
-27.0942
 21
47.2461
  0
LINE
  8
0
 10
-27.0942
 20
47.2461
 11
-27.0237
 21
46.876
  0
LINE
  8
0
 10
-27.0237
 20
46.876
 11
-27
 21
46.5
  0
LINE
  8
0
 10
-27
 20
46.5
 11
-27.0237
 21
46.124
  0
LINE
  8
0
 10
-27.0237
 20
46.124
 11
-27.0874
 21
45.7896
  0
LINE
  8
0
 10
-27.0874
 20
45.7896
 11
-26.5545
 21
46.1768
  0
LINE
  8
0
 10
-26.5545
 20
46.1768
 11
-25.6191
 21
46.691
  0
LINE
  8
0
 10
-25.6191
 20
46.691
 11
-24.6266
 21
47.084
  0
LINE
  8
0
 10
-24.6266
 20
47.084
 11
-23.5927
 21
47.3494
  0
LINE
  8
0
 10
-23.5927
 20
47.3494
 11
-22.5337
 21
47.4832
  0
LINE
  8
0
 10
-22.5337
 20
47.4832
 11
-21.4663
 21
47.4832
  0
LINE
  8
0
 10
-21.4663
 20
47.4832
 11
-20.4073
 21
47.3494
  0
LINE
  8
0
 10
-20.4073
 20
47.3494
 11
-19.3734
 21
47.084
  0
LINE
  8
0
 10
-19.3734
 20
47.084
 11
-18.3809
 21
46.691
  0
LINE
  8
0
 10
-18.3809
 20
46.691
 11
-17.4455
 21
46.1768
  0
LINE
  8
0
 10
-17.4455
 20
46.1768
 11
-16.5819
 21
45.5494
  0
LINE
  8
0
 10
-16.5819
 20
45.5494
 11
-15.8038
 21
44.8186
  0
LINE
  8
0
 10
-15.8038
 20
44.8186
 11
-15.1234
 21
43.9962
  0
LINE
  8
0
 10
-15.1234
 20
43.9962
 11
-14.5514
 21
43.0949
  0
LINE
  8
0
 10
-14.5514
 20
43.0949
 11
-14.0969
 21
42.129
  0
LINE
  8
0
 10
-14.0969
 20
42.129
 11
-13.767
 21
41.1139
  0
LINE
  8
0
 10
-13.767
 20
41.1139
 11
-13.567
 21
40.0653
  0
LINE
  8
0
 10
-13.567
 20
40.0653
 11
-13.5
 21
39
  0
LINE
  8
0
 10
-13.5
 20
39
 11
-13.567
 21
37.9347
  0
LINE
  8
0
 10
-13.567
 20
37.9347
 11
-13.767
 21
36.8861
  0
LINE
  8
0
 10
-13.767
 20
36.8861
 11
-14.0969
 21
35.871
  0
LINE
  8
0
 10
-14.0969
 20
35.871
 11
-14.5514
 21
34.9051
  0
LINE
  8
0
 10
-14.5514
 20
34.9051
 11
-15.1234
 21
34.0038
  0
LINE
  8
0
 10
-15.1234
 20
34.0038
 11
-15.8038
 21
33.1814
  0
LINE
  8
0
 10
-15.8038
 20
33.1814
 11
-16.5819
 21
32.4506
  0
LINE
  8
0
 10
-16.5819
 20
32.4506
 11
-17.4455
 21
31.8232
  0
LINE
  8
0
 10
-17.4455
 20
31.8232
 11
-18.3809
 21
31.309
  0
LINE
  8
0
 10
-18.3809
 20
31.309
 11
-19.3734
 21
30.916
  0
LINE
  8
0
 10
-19.3734
 20
30.916
 11
-20.4073
 21
30.6506
  0
LINE
  8
0
 10
-20.4073
 20
30.6506
 11
-21.4663
 21
30.5168
  0
LINE
  8
0
 10
-21.4663
 20
30.5168
 11
-22.5337
 21
30.5168
  0
LINE
  8
0
 10
-22.5337
 20
30.5168
 11
-23.5927
 21
30.6506
  0
LINE
  8
0
 10
-23.5927
 20
30.6506
 11
-24.6266
 21
30.916
  0
LINE
  8
0
 10
-24.6266
 20
30.916
 11
-25.6191
 21
31.309
  0
LINE
  8
0
 10
-25.6191
 20
31.309
 11
-26.5545
 21
31.8232
  0
LINE
  8
0
 10
-26.5545
 20
31.8232
 11
-27.0874
 21
32.2104
  0
LINE
  8
0
 10
-27.0874
 20
32.2104
 11
-27.0237
 21
31.876
  0
LINE
  8
0
 10
-27.0237
 20
31.876
 11
-27
 21
31.5
  0
LINE
  8
0
 10
-27
 20
31.5
 11
-27.0237
 21
31.124
  0
LINE
  8
0
 10
-27.0237
 20
31.124
 11
-27.0942
 21
30.7539
  0
LINE
  8
0
 10
-27.0942
 20
30.7539
 11
-27.2107
 21
30.3956
  0
LINE
  8
0
 10
-27.2107
 20
30.3956
 11
-27.3711
 21
30.0547
  0
LINE
  8
0
 10
-27.3711
 20
30.0547
 11
-27.5729
 21
29.7366
  0
LINE
  8
0
 10
-27.5729
 20
29.7366
 11
-27.8131
 21
29.4464
  0
LINE
  8
0
 10
-27.8131
 20
29.4464
 11
-28.0877
 21
29.1885
  0
LINE
  8
0
 10
-28.0877
 20
29.1885
 11
-28.3925
 21
28.967
  0
LINE
  8
0
 10
-28.3925
 20
28.967
 11
-28.7227
 21
28.7855
  0
LINE
  8
0
 10
-28.7227
 20
28.7855
 11
-29.0729
 21
28.6468
  0
LINE
  8
0
 10
-29.0729
 20
28.6468
 11
-29.4379
 21
28.5531
  0
LINE
  8
0
 10
-29.4379
 20
28.5531
 11
-29.8116
 21
28.5059
  0
LINE
  8
0
 10
-29.8116
 20
28.5059
 11
-30.1884
 21
28.5059
  0
LINE
  8
0
 10
-0.533707
 20
30.5168
 11
-1.59273
 21
30.6506
  0
LINE
  8
0
 10
-1.59273
 20
30.6506
 11
-2.62663
 21
30.916
  0
LINE
  8
0
 10
-2.62663
 20
30.916
 11
-3.61911
 21
31.309
  0
LINE
  8
0
 10
-3.61911
 20
31.309
 11
-4.55452
 21
31.8232
  0
LINE
  8
0
 10
-4.55452
 20
31.8232
 11
-5.41809
 21
32.4506
  0
LINE
  8
0
 10
-5.41809
 20
32.4506
 11
-6.19623
 21
33.1814
  0
LINE
  8
0
 10
-6.19623
 20
33.1814
 11
-6.87663
 21
34.0038
  0
LINE
  8
0
 10
-6.87663
 20
34.0038
 11
-7.44859
 21
34.9051
  0
LINE
  8
0
 10
-7.44859
 20
34.9051
 11
-7.90309
 21
35.871
  0
LINE
  8
0
 10
-7.90309
 20
35.871
 11
-8.23296
 21
36.8861
  0
LINE
  8
0
 10
-8.23296
 20
36.8861
 11
-8.43297
 21
37.9347
  0
LINE
  8
0
 10
-8.43297
 20
37.9347
 11
-8.5
 21
39
  0
LINE
  8
0
 10
-8.5
 20
39
 11
-8.43297
 21
40.0653
  0
LINE
  8
0
 10
-8.43297
 20
40.0653
 11
-8.23296
 21
41.1139
  0
LINE
  8
0
 10
-8.23296
 20
41.1139
 11
-7.90309
 21
42.129
  0
LINE
  8
0
 10
-7.90309
 20
42.129
 11
-7.44859
 21
43.0949
  0
LINE
  8
0
 10
-7.44859
 20
43.0949
 11
-6.87663
 21
43.9962
  0
LINE
  8
0
 10
-6.87663
 20
43.9962
 11
-6.19623
 21
44.8186
  0
LINE
  8
0
 10
-6.19623
 20
44.8186
 11
-5.41809
 21
45.5494
  0
LINE
  8
0
 10
-5.41809
 20
45.5494
 11
-4.55452
 21
46.1768
  0
LINE
  8
0
 10
-4.55452
 20
46.1768
 11
-3.61911
 21
46.691
  0
LINE
  8
0
 10
-3.61911
 20
46.691
 11
-2.62663
 21
47.084
  0
LINE
  8
0
 10
-2.62663
 20
47.084
 11
-1.59273
 21
47.3494
  0
LINE
  8
0
 10
-1.59273
 20
47.3494
 11
-0.533707
 21
47.4832
  0
LINE
  8
0
 10
-0.533707
 20
47.4832
 11
0.533707
 21
47.4832
  0
LINE
  8
0
 10
0.533707
 20
47.4832
 11
1.59273
 21
47.3494
  0
LINE
  8
0
 10
1.59273
 20
47.3494
 11
2.62663
 21
47.084
  0
LINE
  8
0
 10
2.62663
 20
47.084
 11
3.61911
 21
46.691
  0
LINE
  8
0
 10
3.61911
 20
46.691
 11
4.55452
 21
46.1768
  0
LINE
  8
0
 10
4.55452
 20
46.1768
 11
5.41809
 21
45.5494
  0
LINE
  8
0
 10
5.41809
 20
45.5494
 11
6.19623
 21
44.8186
  0
LINE
  8
0
 10
6.19623
 20
44.8186
 11
6.87663
 21
43.9962
  0
LINE
  8
0
 10
6.87663
 20
43.9962
 11
7.44859
 21
43.0949
  0
LINE
  8
0
 10
7.44859
 20
43.0949
 11
7.90309
 21
42.129
  0
LINE
  8
0
 10
7.90309
 20
42.129
 11
8.23296
 21
41.1139
  0
LINE
  8
0
 10
8.23296
 20
41.1139
 11
8.43297
 21
40.0653
  0
LINE
  8
0
 10
8.43297
 20
40.0653
 11
8.5
 21
39
  0
LINE
  8
0
 10
8.5
 20
39
 11
8.43297
 21
37.9347
  0
LINE
  8
0
 10
8.43297
 20
37.9347
 11
8.23296
 21
36.8861
  0
LINE
  8
0
 10
8.23296
 20
36.8861
 11
7.90309
 21
35.871
  0
LINE
  8
0
 10
7.90309
 20
35.871
 11
7.44859
 21
34.9051
  0
LINE
  8
0
 10
7.44859
 20
34.9051
 11
6.87663
 21
34.0038
  0
LINE
  8
0
 10
6.87663
 20
34.0038
 11
6.19623
 21
33.1814
  0
LINE
  8
0
 10
6.19623
 20
33.1814
 11
5.41809
 21
32.4506
  0
LINE
  8
0
 10
5.41809
 20
32.4506
 11
4.55452
 21
31.8232
  0
LINE
  8
0
 10
4.55452
 20
31.8232
 11
3.61911
 21
31.309
  0
LINE
  8
0
 10
3.61911
 20
31.309
 11
2.62663
 21
30.916
  0
LINE
  8
0
 10
2.62663
 20
30.916
 11
1.59273
 21
30.6506
  0
LINE
  8
0
 10
1.59273
 20
30.6506
 11
0.533707
 21
30.5168
  0
LINE
  8
0
 10
0.533707
 20
30.5168
 11
-0.533707
 21
30.5168
  0
ENDSEC
  0
SECTION
  2
OBJECTS
  0
DICTIONARY
  0
ENDSEC
  0
EOF
