<?xml version="1.0" standalone="no"?>
<!DOCTYPE svg PUBLIC "-//W3C//DTD SVG 1.1//EN" "http://www.w3.org/Graphics/SVG/1.1/DTD/svg11.dtd">
<svg width="150mm" height="74mm" viewBox="-75 -37 150 74" xmlns="http://www.w3.org/2000/svg" version="1.1">
<title>OpenSCAD Model</title>
<path d="
M 70.4369,36.9114 L 71.0451,36.7553 L 71.6289,36.5241 L 72.1791,36.2216 L 72.6871,35.8526 L 73.1448,35.4227
 L 73.5451,34.9389 L 73.8815,34.4088 L 74.1489,33.8406 L 74.3429,33.2434 L 74.4606,32.6267 L 74.5,32
 L 74.5,-32 L 74.4606,-32.6267 L 74.3429,-33.2434 L 74.1489,-33.8406 L 73.8815,-34.4088 L 73.5451,-34.9389
 L 73.1448,-35.4227 L 72.6871,-35.8526 L 72.1791,-36.2216 L 71.6289,-36.5241 L 71.0451,-36.7553 L 70.4369,-36.9114
 L 69.8139,-36.9901 L -69.8139,-36.9901 L -70.4369,-36.9114 L -71.0451,-36.7553 L -71.6289,-36.5241 L -72.1791,-36.2216
 L -72.6871,-35.8526 L -73.1448,-35.4227 L -73.5451,-34.9389 L -73.8815,-34.4088 L -74.1489,-33.8406 L -74.3429,-33.2434
 L -74.4606,-32.6267 L -74.5,-32 L -74.5,32 L -74.4606,32.6267 L -74.3429,33.2434 L -74.1489,33.8406
 L -73.8815,34.4088 L -73.5451,34.9389 L -73.1448,35.4227 L -72.6871,35.8526 L -72.1791,36.2216 L -71.6289,36.5241
 L -71.0451,36.7553 L -70.4369,36.9114 L -69.8139,36.9901 L 69.8139,36.9901 z
M -67.6884,-27.0059 L -68.0621,-27.0531 L -68.427,-27.1468 L -68.7773,-27.2855 L -69.1075,-27.467 L -69.4123,-27.6884
 L -69.6869,-27.9464 L -69.927,-28.2366 L -70.1289,-28.5547 L -70.2893,-28.8956 L -70.4057,-29.2539 L -70.4763,-29.624
 L -70.5,-30 L -70.4763,-30.376 L -70.4057,-30.7461 L -70.2893,-31.1044 L -70.1289,-31.4453 L -69.927,-31.7634
 L -69.6869,-32.0536 L -69.4123,-32.3115 L -69.1075,-32.533 L -68.7773,-32.7145 L -68.427,-32.8532 L -68.0621,-32.9469
 L -67.6884,-32.9941 L -67.3116,-32.9941 L -66.9379,-32.9469 L -66.573,-32.8532 L -66.2227,-32.7145 L -65.8925,-32.533
 L -65.5877,-32.3115 L -65.3131,-32.0536 L -65.073,-31.7634 L -64.8711,-31.4453 L -64.7107,-31.1044 L -64.5943,-30.7461
 L -64.5237,-30.376 L -64.5,-30 L -64.5237,-29.624 L -64.5943,-29.2539 L -64.7107,-28.8956 L -64.8711,-28.5547
 L -65.073,-28.2366 L -65.3131,-27.9464 L -65.5877,-27.6884 L -65.8925,-27.467 L -66.2227,-27.2855 L -66.573,-27.1468
 L -66.9379,-27.0531 L -67.3116,-27.0059 z
M 67.3116,-27.0059 L 66.9379,-27.0531 L 66.573,-27.1468 L 66.2227,-27.2855 L 65.8925,-27.467 L 65.5877,-27.6884
 L 65.3131,-27.9464 L 65.073,-28.2366 L 64.8711,-28.5547 L 64.7107,-28.8956 L 64.5943,-29.2539 L 64.5237,-29.624
 L 64.5,-30 L 64.5237,-30.376 L 64.5943,-30.7461 L 64.7107,-31.1044 L 64.8711,-31.4453 L 65.073,-31.7634
 L 65.3131,-32.0536 L 65.5877,-32.3115 L 65.8925,-32.533 L 66.2227,-32.7145 L 66.573,-32.8532 L 66.9379,-32.9469
 L 67.3116,-32.9941 L 67.6884,-32.9941 L 68.0621,-32.9469 L 68.427,-32.8532 L 68.7773,-32.7145 L 69.1075,-32.533
 L 69.4123,-32.3115 L 69.6869,-32.0536 L 69.927,-31.7634 L 70.1289,-31.4453 L 70.2893,-31.1044 L 70.4057,-30.7461
 L 70.4763,-30.376 L 70.5,-30 L 70.4763,-29.624 L 70.4057,-29.2539 L 70.2893,-28.8956 L 70.1289,-28.5547
 L 69.927,-28.2366 L 69.6869,-27.9464 L 69.4123,-27.6884 L 69.1075,-27.467 L 68.7773,-27.2855 L 68.427,-27.1468
 L 68.0621,-27.0531 L 67.6884,-27.0059 z
M 31.5535,30.9388 L 27.6912,30.4509 L 23.9205,29.4827 L 20.3008,28.0496 L 16.8894,26.1742 L 13.7399,23.8859
 L 10.902,21.2209 L 8.42047,18.2213 L 6.33449,14.9344 L 4.67693,11.4118 L 3.47391,7.70938 L 2.74443,3.88533
 L 2.5,-0 L 2.74443,-3.88533 L 3.47391,-7.70938 L 4.67693,-11.4118 L 6.33449,-14.9344 L 8.42047,-18.2213
 L 10.902,-21.2209 L 13.7399,-23.8859 L 16.8894,-26.1742 L 20.3008,-28.0496 L 23.9205,-29.4827 L 27.6912,-30.4509
 L 31.5535,-30.9388 L 35.4465,-30.9388 L 39.3088,-30.4509 L 43.0795,-29.4827 L 46.6992,-28.0496 L 50.1106,-26.1742
 L 53.2601,-23.8859 L 56.098,-21.2209 L 58.5795,-18.2213 L 60.6655,-14.9344 L 62.3231,-11.4118 L 63.5261,-7.70938
 L 64.2556,-3.88533 L 64.5,-0 L 64.2556,3.88533 L 63.5261,7.70938 L 62.3231,11.4118 L 60.6655,14.9344
 L 58.5795,18.2213 L 56.098,21.2209 L 53.2601,23.8859 L 50.1106,26.1742 L 46.6992,28.0496 L 43.0795,29.4827
 L 39.3088,30.4509 L 35.4465,30.9388 z
M -35.4465,30.9388 L -39.3088,30.4509 L -43.0795,29.4827 L -46.6992,28.0496 L -50.1106,26.1742 L -53.2601,23.8859
 L -56.098,21.2209 L -58.5795,18.2213 L -60.6655,14.9344 L -62.3231,11.4118 L -63.5261,7.70938 L -64.2556,3.88533
 L -64.5,-0 L -64.2556,-3.88533 L -63.5261,-7.70938 L -62.3231,-11.4118 L -60.6655,-14.9344 L -58.5795,-18.2213
 L -56.098,-21.2209 L -53.2601,-23.8859 L -50.1106,-26.1742 L -46.6992,-28.0496 L -43.0795,-29.4827 L -39.3088,-30.4509
 L -35.4465,-30.9388 L -31.5535,-30.9388 L -27.6912,-30.4509 L -23.9205,-29.4827 L -20.3008,-28.0496 L -16.8894,-26.1742
 L -13.7399,-23.8859 L -10.902,-21.2209 L -8.42047,-18.2213 L -6.33449,-14.9344 L -4.67693,-11.4118 L -3.47391,-7.70938
 L -2.74443,-3.88533 L -2.5,-0 L -2.74443,3.88533 L -3.47391,7.70938 L -4.67693,11.4118 L -6.33449,14.9344
 L -8.42047,18.2213 L -10.902,21.2209 L -13.7399,23.8859 L -16.8894,26.1742 L -20.3008,28.0496 L -23.9205,29.4827
 L -27.6912,30.4509 L -31.5535,30.9388 z
M -67.6884,32.9941 L -68.0621,32.9469 L -68.427,32.8532 L -68.7773,32.7145 L -69.1075,32.533 L -69.4123,32.3115
 L -69.6869,32.0536 L -69.927,31.7634 L -70.1289,31.4453 L -70.2893,31.1044 L -70.4057,30.7461 L -70.4763,30.376
 L -70.5,30 L -70.4763,29.624 L -70.4057,29.2539 L -70.2893,28.8956 L -70.1289,28.5547 L -69.927,28.2366
 L -69.6869,27.9464 L -69.4123,27.6884 L -69.1075,27.467 L -68.7773,27.2855 L -68.427,27.1468 L -68.0621,27.0531
 L -67.6884,27.0059 L -67.3116,27.0059 L -66.9379,27.0531 L -66.573,27.1468 L -66.2227,27.2855 L -65.8925,27.467
 L -65.5877,27.6884 L -65.3131,27.9464 L -65.073,28.2366 L -64.8711,28.5547 L -64.7107,28.8956 L -64.5943,29.2539
 L -64.5237,29.624 L -64.5,30 L -64.5237,30.376 L -64.5943,30.7461 L -64.7107,31.1044 L -64.8711,31.4453
 L -65.073,31.7634 L -65.3131,32.0536 L -65.5877,32.3115 L -65.8925,32.533 L -66.2227,32.7145 L -66.573,32.8532
 L -66.9379,32.9469 L -67.3116,32.9941 z
M 67.3116,32.9941 L 66.9379,32.9469 L 66.573,32.8532 L 66.2227,32.7145 L 65.8925,32.533 L 65.5877,32.3115
 L 65.3131,32.0536 L 65.073,31.7634 L 64.8711,31.4453 L 64.7107,31.1044 L 64.5943,30.7461 L 64.5237,30.376
 L 64.5,30 L 64.5237,29.624 L 64.5943,29.2539 L 64.7107,28.8956 L 64.8711,28.5547 L 65.073,28.2366
 L 65.3131,27.9464 L 65.5877,27.6884 L 65.8925,27.467 L 66.2227,27.2855 L 66.573,27.1468 L 66.9379,27.0531
 L 67.3116,27.0059 L 67.6884,27.0059 L 68.0621,27.0531 L 68.427,27.1468 L 68.7773,27.2855 L 69.1075,27.467
 L 69.4123,27.6884 L 69.6869,27.9464 L 69.927,28.2366 L 70.1289,28.5547 L 70.2893,28.8956 L 70.4057,29.2539
 L 70.4763,29.624 L 70.5,30 L 70.4763,30.376 L 70.4057,30.7461 L 70.2893,31.1044 L 70.1289,31.4453
 L 69.927,31.7634 L 69.6869,32.0536 L 69.4123,32.3115 L 69.1075,32.533 L 68.7773,32.7145 L 68.427,32.8532
 L 68.0621,32.9469 L 67.6884,32.9941 z
" stroke="black" fill="lightgray" stroke-width="0.5"/>
</svg>
