<?xml version="1.0" standalone="no"?>
<!DOCTYPE svg PUBLIC "-//W3C//DTD SVG 1.1//EN" "http://www.w3.org/Graphics/SVG/1.1/DTD/svg11.dtd">
<svg width="14mm" height="30mm" viewBox="-7 -15 14 30" xmlns="http://www.w3.org/2000/svg" version="1.1">
<title>OpenSCAD Model</title>
<path d="
M 2.9369,14.4114 L 3.54507,14.2553 L 4.12889,14.0241 L 4.67912,13.7216 L 5.18712,13.3526 L 5.64484,12.9227
 L 6.04507,12.4389 L 6.38153,11.9088 L 6.64888,11.3406 L 6.84291,10.7434 L 6.96057,10.1267 L 7,9.5
 L 7,-9.5 L 6.96057,-10.1267 L 6.84291,-10.7434 L 6.64888,-11.3406 L 6.38153,-11.9088 L 6.04507,-12.4389
 L 5.64484,-12.9227 L 5.18712,-13.3526 L 4.67912,-13.7216 L 4.12889,-14.0241 L 3.54507,-14.2553 L 2.9369,-14.4114
 L 2.31395,-14.4901 L -2.31395,-14.4901 L -2.9369,-14.4114 L -3.54507,-14.2553 L -4.12889,-14.0241 L -4.67912,-13.7216
 L -5.18712,-13.3526 L -5.64484,-12.9227 L -6.04507,-12.4389 L -6.38153,-11.9088 L -6.64888,-11.3406 L -6.84291,-10.7434
 L -6.96057,-10.1267 L -7,-9.5 L -7,9.5 L -6.96057,10.1267 L -6.84291,10.7434 L -6.64888,11.3406
 L -6.38153,11.9088 L -6.04507,12.4389 L -5.64484,12.9227 L -5.18712,13.3526 L -4.67912,13.7216 L -4.12889,14.0241
 L -3.54507,14.2553 L -2.9369,14.4114 L -2.31395,14.4901 L 2.31395,14.4901 z
M -0.18837,-4.50591 L -0.562134,-4.55313 L -0.927048,-4.64682 L -1.27733,-4.78551 L -1.60747,-4.96701 L -1.91226,-5.18845
 L -2.1869,-5.44635 L -2.42705,-5.73663 L -2.62891,-6.05473 L -2.78932,-6.39561 L -2.90575,-6.75392 L -2.97633,-7.12399
 L -3,-7.5 L -2.97633,-7.87599 L -2.90575,-8.24606 L -2.78932,-8.60437 L -2.62891,-8.94525 L -2.42705,-9.26335
 L -2.1869,-9.55363 L -1.91226,-9.81154 L -1.60747,-10.033 L -1.27733,-10.2145 L -0.927048,-10.3532 L -0.562134,-10.4469
 L -0.18837,-10.4941 L 0.18837,-10.4941 L 0.562134,-10.4469 L 0.927048,-10.3532 L 1.27733,-10.2145 L 1.60747,-10.033
 L 1.91226,-9.81154 L 2.1869,-9.55363 L 2.42705,-9.26335 L 2.62891,-8.94525 L 2.78932,-8.60437 L 2.90575,-8.24606
 L 2.97633,-7.87599 L 3,-7.5 L 2.97633,-7.12399 L 2.90575,-6.75392 L 2.78932,-6.39561 L 2.62891,-6.05473
 L 2.42705,-5.73663 L 2.1869,-5.44635 L 1.91226,-5.18845 L 1.60747,-4.96701 L 1.27733,-4.78551 L 0.927048,-4.64682
 L 0.562134,-4.55313 L 0.18837,-4.50591 z
M -0.18837,2.99408 L -0.562134,2.94685 L -0.927048,2.85316 L -1.27733,2.71448 L -1.60747,2.53297 L -1.91226,2.31154
 L -2.1869,2.05363 L -2.42705,1.76335 L -2.62891,1.44525 L -2.78932,1.10437 L -2.90575,0.746063 L -2.97633,0.375992
 L -3,-0 L -2.97633,-0.375992 L -2.90575,-0.746063 L -2.78932,-1.10437 L -2.62891,-1.44525 L -2.42705,-1.76335
 L -2.1869,-2.05363 L -1.91226,-2.31154 L -1.60747,-2.53297 L -1.27733,-2.71448 L -0.927048,-2.85316 L -0.562134,-2.94685
 L -0.18837,-2.99408 L 0.18837,-2.99408 L 0.562134,-2.94685 L 0.927048,-2.85316 L 1.27733,-2.71448 L 1.60747,-2.53297
 L 1.91226,-2.31154 L 2.1869,-2.05363 L 2.42705,-1.76335 L 2.62891,-1.44525 L 2.78932,-1.10437 L 2.90575,-0.746063
 L 2.97633,-0.375992 L 3,-0 L 2.97633,0.375992 L 2.90575,0.746063 L 2.78932,1.10437 L 2.62891,1.44525
 L 2.42705,1.76335 L 2.1869,2.05363 L 1.91226,2.31154 L 1.60747,2.53297 L 1.27733,2.71448 L 0.927048,2.85316
 L 0.562134,2.94685 L 0.18837,2.99408 z
M -0.18837,10.4941 L -0.562134,10.4469 L -0.927048,10.3532 L -1.27733,10.2145 L -1.60747,10.033 L -1.91226,9.81154
 L -2.1869,9.55363 L -2.42705,9.26335 L -2.62891,8.94525 L -2.78932,8.60437 L -2.90575,8.24606 L -2.97633,7.87599
 L -3,7.5 L -2.97633,7.12399 L -2.90575,6.75392 L -2.78932,6.39561 L -2.62891,6.05473 L -2.42705,5.73663
 L -2.1869,5.44635 L -1.91226,5.18845 L -1.60747,4.96701 L -1.27733,4.78551 L -0.927048,4.64682 L -0.562134,4.55313
 L -0.18837,4.50591 L 0.18837,4.50591 L 0.562134,4.55313 L 0.927048,4.64682 L 1.27733,4.78551 L 1.60747,4.96701
 L 1.91226,5.18845 L 2.1869,5.44635 L 2.42705,5.73663 L 2.62891,6.05473 L 2.78932,6.39561 L 2.90575,6.75392
 L 2.97633,7.12399 L 3,7.5 L 2.97633,7.87599 L 2.90575,8.24606 L 2.78932,8.60437 L 2.62891,8.94525
 L 2.42705,9.26335 L 2.1869,9.55363 L 1.91226,9.81154 L 1.60747,10.033 L 1.27733,10.2145 L 0.927048,10.3532
 L 0.562134,10.4469 L 0.18837,10.4941 z
" stroke="black" fill="lightgray" stroke-width="0.5"/>
</svg>
