<?xml version="1.0" standalone="no"?>
<!DOCTYPE svg PUBLIC "-//W3C//DTD SVG 1.1//EN" "http://www.w3.org/Graphics/SVG/1.1/DTD/svg11.dtd">
<svg width="134mm" height="44mm" viewBox="-67 -76 134 44" xmlns="http://www.w3.org/2000/svg" version="1.1">
<title>OpenSCAD Model</title>
<path d="
M 62.9369,-32.0886 L 63.5451,-32.2447 L 64.1289,-32.4759 L 64.6791,-32.7784 L 65.1871,-33.1474 L 65.6448,-33.5773
 L 66.0451,-34.0611 L 66.3815,-34.5912 L 66.6489,-35.1594 L 66.8429,-35.7566 L 66.9606,-36.3733 L 67,-37
 L 67,-71 L 66.9606,-71.6267 L 66.8429,-72.2434 L 66.6489,-72.8406 L 66.3815,-73.4088 L 66.0451,-73.9389
 L 65.6448,-74.4227 L 65.1871,-74.8526 L 64.6791,-75.2216 L 64.1289,-75.5241 L 63.5451,-75.7553 L 62.9369,-75.9114
 L 62.3139,-75.9901 L -62.3139,-75.9901 L -62.9369,-75.9114 L -63.5451,-75.7553 L -64.1289,-75.5241 L -64.6791,-75.2216
 L -65.1871,-74.8526 L -65.6448,-74.4227 L -66.0451,-73.9389 L -66.3815,-73.4088 L -66.6489,-72.8406 L -66.8429,-72.2434
 L -66.9606,-71.6267 L -67,-71 L -67,-37 L -66.9606,-36.3733 L -66.8429,-35.7566 L -66.6489,-35.1594
 L -66.3815,-34.5912 L -66.0451,-34.0611 L -65.6448,-33.5773 L -65.1871,-33.1474 L -64.6791,-32.7784 L -64.1289,-32.4759
 L -63.5451,-32.2447 L -62.9369,-32.0886 L -62.3139,-32.0099 L 62.3139,-32.0099 z
M 59.8116,-66.0059 L 59.4379,-66.0531 L 59.0729,-66.1468 L 58.7227,-66.2855 L 58.3925,-66.467 L 58.0877,-66.6884
 L 57.8131,-66.9464 L 57.5729,-67.2366 L 57.3711,-67.5547 L 57.2107,-67.8956 L 57.0942,-68.2539 L 57.0237,-68.624
 L 57,-69 L 57.0237,-69.376 L 57.0942,-69.7461 L 57.2107,-70.1044 L 57.3711,-70.4453 L 57.5729,-70.7634
 L 57.8131,-71.0536 L 58.0877,-71.3115 L 58.3925,-71.533 L 58.7227,-71.7145 L 59.0729,-71.8532 L 59.4379,-71.9469
 L 59.8116,-71.9941 L 60.1884,-71.9941 L 60.5621,-71.9469 L 60.927,-71.8532 L 61.2773,-71.7145 L 61.6075,-71.533
 L 61.9123,-71.3115 L 62.1869,-71.0536 L 62.427,-70.7634 L 62.6289,-70.4453 L 62.7893,-70.1044 L 62.9057,-69.7461
 L 62.9763,-69.376 L 63,-69 L 62.9763,-68.624 L 62.9057,-68.2539 L 62.7893,-67.8956 L 62.6289,-67.5547
 L 62.427,-67.2366 L 62.1869,-66.9464 L 61.9123,-66.6884 L 61.6075,-66.467 L 61.2773,-66.2855 L 60.927,-66.1468
 L 60.5621,-66.0531 L 60.1884,-66.0059 z
M -30.1884,-66.0059 L -30.5621,-66.0531 L -30.927,-66.1468 L -31.2773,-66.2855 L -31.6075,-66.467 L -31.9123,-66.6884
 L -32.1869,-66.9464 L -32.427,-67.2366 L -32.6289,-67.5547 L -32.7893,-67.8956 L -32.9057,-68.2539 L -32.9763,-68.624
 L -33,-69 L -32.9763,-69.376 L -32.9057,-69.7461 L -32.7893,-70.1044 L -32.6289,-70.4453 L -32.427,-70.7634
 L -32.1869,-71.0536 L -31.9123,-71.3115 L -31.6075,-71.533 L -31.2773,-71.7145 L -30.927,-71.8532 L -30.5621,-71.9469
 L -30.1884,-71.9941 L -29.8116,-71.9941 L -29.4379,-71.9469 L -29.0729,-71.8532 L -28.7227,-71.7145 L -28.3925,-71.533
 L -28.0877,-71.3115 L -27.8131,-71.0536 L -27.5729,-70.7634 L -27.3711,-70.4453 L -27.2107,-70.1044 L -27.0942,-69.7461
 L -27.0237,-69.376 L -27,-69 L -27.0237,-68.624 L -27.0942,-68.2539 L -27.2107,-67.8956 L -27.3711,-67.5547
 L -27.5729,-67.2366 L -27.8131,-66.9464 L -28.0877,-66.6884 L -28.3925,-66.467 L -28.7227,-66.2855 L -29.0729,-66.1468
 L -29.4379,-66.0531 L -29.8116,-66.0059 z
M 14.8116,-66.0059 L 14.4379,-66.0531 L 14.0729,-66.1468 L 13.7227,-66.2855 L 13.3925,-66.467 L 13.0877,-66.6884
 L 12.8131,-66.9464 L 12.5729,-67.2366 L 12.3711,-67.5547 L 12.2107,-67.8956 L 12.0942,-68.2539 L 12.0237,-68.624
 L 12,-69 L 12.0237,-69.376 L 12.0942,-69.7461 L 12.2107,-70.1044 L 12.3711,-70.4453 L 12.5729,-70.7634
 L 12.8131,-71.0536 L 13.0877,-71.3115 L 13.3925,-71.533 L 13.7227,-71.7145 L 14.0729,-71.8532 L 14.4379,-71.9469
 L 14.8116,-71.9941 L 15.1884,-71.9941 L 15.5621,-71.9469 L 15.927,-71.8532 L 16.2773,-71.7145 L 16.6075,-71.533
 L 16.9123,-71.3115 L 17.1869,-71.0536 L 17.427,-70.7634 L 17.6289,-70.4453 L 17.7893,-70.1044 L 17.9057,-69.7461
 L 17.9763,-69.376 L 18,-69 L 17.9763,-68.624 L 17.9057,-68.2539 L 17.7893,-67.8956 L 17.6289,-67.5547
 L 17.427,-67.2366 L 17.1869,-66.9464 L 16.9123,-66.6884 L 16.6075,-66.467 L 16.2773,-66.2855 L 15.927,-66.1468
 L 15.5621,-66.0531 L 15.1884,-66.0059 z
M -15.1884,-66.0059 L -15.5621,-66.0531 L -15.927,-66.1468 L -16.2773,-66.2855 L -16.6075,-66.467 L -16.9123,-66.6884
 L -17.1869,-66.9464 L -17.427,-67.2366 L -17.6289,-67.5547 L -17.7893,-67.8956 L -17.9057,-68.2539 L -17.9763,-68.624
 L -18,-69 L -17.9763,-69.376 L -17.9057,-69.7461 L -17.7893,-70.1044 L -17.6289,-70.4453 L -17.427,-70.7634
 L -17.1869,-71.0536 L -16.9123,-71.3115 L -16.6075,-71.533 L -16.2773,-71.7145 L -15.927,-71.8532 L -15.5621,-71.9469
 L -15.1884,-71.9941 L -14.8116,-71.9941 L -14.4379,-71.9469 L -14.0729,-71.8532 L -13.7227,-71.7145 L -13.3925,-71.533
 L -13.0877,-71.3115 L -12.8131,-71.0536 L -12.5729,-70.7634 L -12.3711,-70.4453 L -12.2107,-70.1044 L -12.0942,-69.7461
 L -12.0237,-69.376 L -12,-69 L -12.0237,-68.624 L -12.0942,-68.2539 L -12.2107,-67.8956 L -12.3711,-67.5547
 L -12.5729,-67.2366 L -12.8131,-66.9464 L -13.0877,-66.6884 L -13.3925,-66.467 L -13.7227,-66.2855 L -14.0729,-66.1468
 L -14.4379,-66.0531 L -14.8116,-66.0059 z
M -45.1884,-66.0059 L -45.5621,-66.0531 L -45.927,-66.1468 L -46.2773,-66.2855 L -46.6075,-66.467 L -46.9123,-66.6884
 L -47.1869,-66.9464 L -47.427,-67.2366 L -47.6289,-67.5547 L -47.7893,-67.8956 L -47.9057,-68.2539 L -47.9763,-68.624
 L -48,-69 L -47.9763,-69.376 L -47.9057,-69.7461 L -47.7893,-70.1044 L -47.6289,-70.4453 L -47.427,-70.7634
 L -47.1869,-71.0536 L -46.9123,-71.3115 L -46.6075,-71.533 L -46.2773,-71.7145 L -45.927,-71.8532 L -45.5621,-71.9469
 L -45.1884,-71.9941 L -44.8116,-71.9941 L -44.4379,-71.9469 L -44.0729,-71.8532 L -43.7227,-71.7145 L -43.3925,-71.533
 L -43.0877,-71.3115 L -42.8131,-71.0536 L -42.5729,-70.7634 L -42.3711,-70.4453 L -42.2107,-70.1044 L -42.0942,-69.7461
 L -42.0237,-69.376 L -42,-69 L -42.0237,-68.624 L -42.0942,-68.2539 L -42.2107,-67.8956 L -42.3711,-67.5547
 L -42.5729,-67.2366 L -42.8131,-66.9464 L -43.0877,-66.6884 L -43.3925,-66.467 L -43.7227,-66.2855 L -44.0729,-66.1468
 L -44.4379,-66.0531 L -44.8116,-66.0059 z
M 44.8116,-66.0059 L 44.4379,-66.0531 L 44.0729,-66.1468 L 43.7227,-66.2855 L 43.3925,-66.467 L 43.0877,-66.6884
 L 42.8131,-66.9464 L 42.5729,-67.2366 L 42.3711,-67.5547 L 42.2107,-67.8956 L 42.0942,-68.2539 L 42.0237,-68.624
 L 42,-69 L 42.0237,-69.376 L 42.0942,-69.7461 L 42.2107,-70.1044 L 42.3711,-70.4453 L 42.5729,-70.7634
 L 42.8131,-71.0536 L 43.0877,-71.3115 L 43.3925,-71.533 L 43.7227,-71.7145 L 44.0729,-71.8532 L 44.4379,-71.9469
 L 44.8116,-71.9941 L 45.1884,-71.9941 L 45.5621,-71.9469 L 45.927,-71.8532 L 46.2773,-71.7145 L 46.6075,-71.533
 L 46.9123,-71.3115 L 47.1869,-71.0536 L 47.427,-70.7634 L 47.6289,-70.4453 L 47.7893,-70.1044 L 47.9057,-69.7461
 L 47.9763,-69.376 L 48,-69 L 47.9763,-68.624 L 47.9057,-68.2539 L 47.7893,-67.8956 L 47.6289,-67.5547
 L 47.427,-67.2366 L 47.1869,-66.9464 L 46.9123,-66.6884 L 46.6075,-66.467 L 46.2773,-66.2855 L 45.927,-66.1468
 L 45.5621,-66.0531 L 45.1884,-66.0059 z
M -60.1884,-66.0059 L -60.5621,-66.0531 L -60.927,-66.1468 L -61.2773,-66.2855 L -61.6075,-66.467 L -61.9123,-66.6884
 L -62.1869,-66.9464 L -62.427,-67.2366 L -62.6289,-67.5547 L -62.7893,-67.8956 L -62.9057,-68.2539 L -62.9763,-68.624
 L -63,-69 L -62.9763,-69.376 L -62.9057,-69.7461 L -62.7893,-70.1044 L -62.6289,-70.4453 L -62.427,-70.7634
 L -62.1869,-71.0536 L -61.9123,-71.3115 L -61.6075,-71.533 L -61.2773,-71.7145 L -60.927,-71.8532 L -60.5621,-71.9469
 L -60.1884,-71.9941 L -59.8116,-71.9941 L -59.4379,-71.9469 L -59.0729,-71.8532 L -58.7227,-71.7145 L -58.3925,-71.533
 L -58.0877,-71.3115 L -57.8131,-71.0536 L -57.5729,-70.7634 L -57.3711,-70.4453 L -57.2107,-70.1044 L -57.0942,-69.7461
 L -57.0237,-69.376 L -57,-69 L -57.0237,-68.624 L -57.0942,-68.2539 L -57.2107,-67.8956 L -57.3711,-67.5547
 L -57.5729,-67.2366 L -57.8131,-66.9464 L -58.0877,-66.6884 L -58.3925,-66.467 L -58.7227,-66.2855 L -59.0729,-66.1468
 L -59.4379,-66.0531 L -59.8116,-66.0059 z
M -0.18837,-66.0059 L -0.562134,-66.0531 L -0.927048,-66.1468 L -1.27733,-66.2855 L -1.60747,-66.467 L -1.91226,-66.6884
 L -2.1869,-66.9464 L -2.42705,-67.2366 L -2.62891,-67.5547 L -2.78932,-67.8956 L -2.90575,-68.2539 L -2.97633,-68.624
 L -3,-69 L -2.97633,-69.376 L -2.90575,-69.7461 L -2.78932,-70.1044 L -2.62891,-70.4453 L -2.42705,-70.7634
 L -2.1869,-71.0536 L -1.91226,-71.3115 L -1.60747,-71.533 L -1.27733,-71.7145 L -0.927048,-71.8532 L -0.562134,-71.9469
 L -0.18837,-71.9941 L 0.18837,-71.9941 L 0.562134,-71.9469 L 0.927048,-71.8532 L 1.27733,-71.7145 L 1.60747,-71.533
 L 1.91226,-71.3115 L 2.1869,-71.0536 L 2.42705,-70.7634 L 2.62891,-70.4453 L 2.78932,-70.1044 L 2.90575,-69.7461
 L 2.97633,-69.376 L 3,-69 L 2.97633,-68.624 L 2.90575,-68.2539 L 2.78932,-67.8956 L 2.62891,-67.5547
 L 2.42705,-67.2366 L 2.1869,-66.9464 L 1.91226,-66.6884 L 1.60747,-66.467 L 1.27733,-66.2855 L 0.927048,-66.1468
 L 0.562134,-66.0531 L 0.18837,-66.0059 z
M 29.8116,-66.0059 L 29.4379,-66.0531 L 29.0729,-66.1468 L 28.7227,-66.2855 L 28.3925,-66.467 L 28.0877,-66.6884
 L 27.8131,-66.9464 L 27.5729,-67.2366 L 27.3711,-67.5547 L 27.2107,-67.8956 L 27.0942,-68.2539 L 27.0237,-68.624
 L 27,-69 L 27.0237,-69.376 L 27.0942,-69.7461 L 27.2107,-70.1044 L 27.3711,-70.4453 L 27.5729,-70.7634
 L 27.8131,-71.0536 L 28.0877,-71.3115 L 28.3925,-71.533 L 28.7227,-71.7145 L 29.0729,-71.8532 L 29.4379,-71.9469
 L 29.8116,-71.9941 L 30.1884,-71.9941 L 30.5621,-71.9469 L 30.927,-71.8532 L 31.2773,-71.7145 L 31.6075,-71.533
 L 31.9123,-71.3115 L 32.1869,-71.0536 L 32.427,-70.7634 L 32.6289,-70.4453 L 32.7893,-70.1044 L 32.9057,-69.7461
 L 32.9763,-69.376 L 33,-69 L 32.9763,-68.624 L 32.9057,-68.2539 L 32.7893,-67.8956 L 32.6289,-67.5547
 L 32.427,-67.2366 L 32.1869,-66.9464 L 31.9123,-66.6884 L 31.6075,-66.467 L 31.2773,-66.2855 L 30.927,-66.1468
 L 30.5621,-66.0531 L 30.1884,-66.0059 z
M 22.4058,-67.5029 L 22.2189,-67.5266 L 22.0365,-67.5734 L 21.8613,-67.6427 L 21.6963,-67.7335 L 21.5439,-67.8442
 L 21.4065,-67.9732 L 21.2865,-68.1183 L 21.1855,-68.2774 L 21.1053,-68.4478 L 21.0471,-68.627 L 21.0118,-68.812
 L 21,-69 L 21.0118,-69.188 L 21.0471,-69.373 L 21.1053,-69.5522 L 21.1855,-69.7226 L 21.2865,-69.8817
 L 21.4065,-70.0268 L 21.5439,-70.1558 L 21.6963,-70.2665 L 21.8613,-70.3572 L 22.0365,-70.4266 L 22.2189,-70.4734
 L 22.4058,-70.497 L 22.5942,-70.497 L 22.7811,-70.4734 L 22.9635,-70.4266 L 23.1387,-70.3572 L 23.3037,-70.2665
 L 23.4561,-70.1558 L 23.5934,-70.0268 L 23.7135,-69.8817 L 23.8145,-69.7226 L 23.8947,-69.5522 L 23.9529,-69.373
 L 23.9882,-69.188 L 24,-69 L 23.9882,-68.812 L 23.9529,-68.627 L 23.8947,-68.4478 L 23.8145,-68.2774
 L 23.7135,-68.1183 L 23.5934,-67.9732 L 23.4561,-67.8442 L 23.3037,-67.7335 L 23.1387,-67.6427 L 22.9635,-67.5734
 L 22.7811,-67.5266 L 22.5942,-67.5029 z
M -22.5942,-67.5029 L -22.7811,-67.5266 L -22.9635,-67.5734 L -23.1387,-67.6427 L -23.3037,-67.7335 L -23.4561,-67.8442
 L -23.5934,-67.9732 L -23.7135,-68.1183 L -23.8145,-68.2774 L -23.8947,-68.4478 L -23.9529,-68.627 L -23.9882,-68.812
 L -24,-69 L -23.9882,-69.188 L -23.9529,-69.373 L -23.8947,-69.5522 L -23.8145,-69.7226 L -23.7135,-69.8817
 L -23.5934,-70.0268 L -23.4561,-70.1558 L -23.3037,-70.2665 L -23.1387,-70.3572 L -22.9635,-70.4266 L -22.7811,-70.4734
 L -22.5942,-70.497 L -22.4058,-70.497 L -22.2189,-70.4734 L -22.0365,-70.4266 L -21.8613,-70.3572 L -21.6963,-70.2665
 L -21.5439,-70.1558 L -21.4065,-70.0268 L -21.2865,-69.8817 L -21.1855,-69.7226 L -21.1053,-69.5522 L -21.0471,-69.373
 L -21.0118,-69.188 L -21,-69 L -21.0118,-68.812 L -21.0471,-68.627 L -21.1053,-68.4478 L -21.1855,-68.2774
 L -21.2865,-68.1183 L -21.4065,-67.9732 L -21.5439,-67.8442 L -21.6963,-67.7335 L -21.8613,-67.6427 L -22.0365,-67.5734
 L -22.2189,-67.5266 L -22.4058,-67.5029 z
M -37.5942,-67.5029 L -37.7811,-67.5266 L -37.9635,-67.5734 L -38.1387,-67.6427 L -38.3037,-67.7335 L -38.4561,-67.8442
 L -38.5934,-67.9732 L -38.7135,-68.1183 L -38.8145,-68.2774 L -38.8947,-68.4478 L -38.9529,-68.627 L -38.9882,-68.812
 L -39,-69 L -38.9882,-69.188 L -38.9529,-69.373 L -38.8947,-69.5522 L -38.8145,-69.7226 L -38.7135,-69.8817
 L -38.5934,-70.0268 L -38.4561,-70.1558 L -38.3037,-70.2665 L -38.1387,-70.3572 L -37.9635,-70.4266 L -37.7811,-70.4734
 L -37.5942,-70.497 L -37.4058,-70.497 L -37.2189,-70.4734 L -37.0365,-70.4266 L -36.8613,-70.3572 L -36.6963,-70.2665
 L -36.5439,-70.1558 L -36.4065,-70.0268 L -36.2865,-69.8817 L -36.1855,-69.7226 L -36.1053,-69.5522 L -36.0471,-69.373
 L -36.0118,-69.188 L -36,-69 L -36.0118,-68.812 L -36.0471,-68.627 L -36.1053,-68.4478 L -36.1855,-68.2774
 L -36.2865,-68.1183 L -36.4065,-67.9732 L -36.5439,-67.8442 L -36.6963,-67.7335 L -36.8613,-67.6427 L -37.0365,-67.5734
 L -37.2189,-67.5266 L -37.4058,-67.5029 z
M 37.4058,-67.5029 L 37.2189,-67.5266 L 37.0365,-67.5734 L 36.8613,-67.6427 L 36.6963,-67.7335 L 36.5439,-67.8442
 L 36.4065,-67.9732 L 36.2865,-68.1183 L 36.1855,-68.2774 L 36.1053,-68.4478 L 36.0471,-68.627 L 36.0118,-68.812
 L 36,-69 L 36.0118,-69.188 L 36.0471,-69.373 L 36.1053,-69.5522 L 36.1855,-69.7226 L 36.2865,-69.8817
 L 36.4065,-70.0268 L 36.5439,-70.1558 L 36.6963,-70.2665 L 36.8613,-70.3572 L 37.0365,-70.4266 L 37.2189,-70.4734
 L 37.4058,-70.497 L 37.5942,-70.497 L 37.7811,-70.4734 L 37.9635,-70.4266 L 38.1387,-70.3572 L 38.3037,-70.2665
 L 38.4561,-70.1558 L 38.5934,-70.0268 L 38.7135,-69.8817 L 38.8145,-69.7226 L 38.8947,-69.5522 L 38.9529,-69.373
 L 38.9882,-69.188 L 39,-69 L 38.9882,-68.812 L 38.9529,-68.627 L 38.8947,-68.4478 L 38.8145,-68.2774
 L 38.7135,-68.1183 L 38.5934,-67.9732 L 38.4561,-67.8442 L 38.3037,-67.7335 L 38.1387,-67.6427 L 37.9635,-67.5734
 L 37.7811,-67.5266 L 37.5942,-67.5029 z
M -7.59418,-67.5029 L -7.78107,-67.5266 L -7.96352,-67.5734 L -8.13866,-67.6427 L -8.30373,-67.7335 L -8.45613,-67.8442
 L -8.59344,-67.9732 L -8.71352,-68.1183 L -8.81445,-68.2774 L -8.89465,-68.4478 L -8.95287,-68.627 L -8.98816,-68.812
 L -9,-69 L -8.98816,-69.188 L -8.95287,-69.373 L -8.89465,-69.5522 L -8.81445,-69.7226 L -8.71352,-69.8817
 L -8.59344,-70.0268 L -8.45613,-70.1558 L -8.30373,-70.2665 L -8.13866,-70.3572 L -7.96352,-70.4266 L -7.78107,-70.4734
 L -7.59418,-70.497 L -7.40581,-70.497 L -7.21892,-70.4734 L -7.03647,-70.4266 L -6.86133,-70.3572 L -6.69626,-70.2665
 L -6.54385,-70.1558 L -6.40654,-70.0268 L -6.28647,-69.8817 L -6.18553,-69.7226 L -6.10533,-69.5522 L -6.04712,-69.373
 L -6.01183,-69.188 L -6,-69 L -6.01183,-68.812 L -6.04712,-68.627 L -6.10533,-68.4478 L -6.18553,-68.2774
 L -6.28647,-68.1183 L -6.40654,-67.9732 L -6.54385,-67.8442 L -6.69626,-67.7335 L -6.86133,-67.6427 L -7.03647,-67.5734
 L -7.21892,-67.5266 L -7.40581,-67.5029 z
M 52.4058,-67.5029 L 52.2189,-67.5266 L 52.0365,-67.5734 L 51.8613,-67.6427 L 51.6963,-67.7335 L 51.5439,-67.8442
 L 51.4065,-67.9732 L 51.2865,-68.1183 L 51.1855,-68.2774 L 51.1053,-68.4478 L 51.0471,-68.627 L 51.0118,-68.812
 L 51,-69 L 51.0118,-69.188 L 51.0471,-69.373 L 51.1053,-69.5522 L 51.1855,-69.7226 L 51.2865,-69.8817
 L 51.4065,-70.0268 L 51.5439,-70.1558 L 51.6963,-70.2665 L 51.8613,-70.3572 L 52.0365,-70.4266 L 52.2189,-70.4734
 L 52.4058,-70.497 L 52.5942,-70.497 L 52.7811,-70.4734 L 52.9635,-70.4266 L 53.1387,-70.3572 L 53.3037,-70.2665
 L 53.4561,-70.1558 L 53.5934,-70.0268 L 53.7135,-69.8817 L 53.8145,-69.7226 L 53.8947,-69.5522 L 53.9529,-69.373
 L 53.9882,-69.188 L 54,-69 L 53.9882,-68.812 L 53.9529,-68.627 L 53.8947,-68.4478 L 53.8145,-68.2774
 L 53.7135,-68.1183 L 53.5934,-67.9732 L 53.4561,-67.8442 L 53.3037,-67.7335 L 53.1387,-67.6427 L 52.9635,-67.5734
 L 52.7811,-67.5266 L 52.5942,-67.5029 z
M 7.40581,-67.5029 L 7.21892,-67.5266 L 7.03647,-67.5734 L 6.86133,-67.6427 L 6.69626,-67.7335 L 6.54385,-67.8442
 L 6.40654,-67.9732 L 6.28647,-68.1183 L 6.18553,-68.2774 L 6.10533,-68.4478 L 6.04712,-68.627 L 6.01183,-68.812
 L 6,-69 L 6.01183,-69.188 L 6.04712,-69.373 L 6.10533,-69.5522 L 6.18553,-69.7226 L 6.28647,-69.8817
 L 6.40654,-70.0268 L 6.54385,-70.1558 L 6.69626,-70.2665 L 6.86133,-70.3572 L 7.03647,-70.4266 L 7.21892,-70.4734
 L 7.40581,-70.497 L 7.59418,-70.497 L 7.78107,-70.4734 L 7.96352,-70.4266 L 8.13866,-70.3572 L 8.30373,-70.2665
 L 8.45613,-70.1558 L 8.59344,-70.0268 L 8.71352,-69.8817 L 8.81445,-69.7226 L 8.89465,-69.5522 L 8.95287,-69.373
 L 8.98816,-69.188 L 9,-69 L 8.98816,-68.812 L 8.95287,-68.627 L 8.89465,-68.4478 L 8.81445,-68.2774
 L 8.71352,-68.1183 L 8.59344,-67.9732 L 8.45613,-67.8442 L 8.30373,-67.7335 L 8.13866,-67.6427 L 7.96352,-67.5734
 L 7.78107,-67.5266 L 7.59418,-67.5029 z
M -52.5942,-67.5029 L -52.7811,-67.5266 L -52.9635,-67.5734 L -53.1387,-67.6427 L -53.3037,-67.7335 L -53.4561,-67.8442
 L -53.5934,-67.9732 L -53.7135,-68.1183 L -53.8145,-68.2774 L -53.8947,-68.4478 L -53.9529,-68.627 L -53.9882,-68.812
 L -54,-69 L -53.9882,-69.188 L -53.9529,-69.373 L -53.8947,-69.5522 L -53.8145,-69.7226 L -53.7135,-69.8817
 L -53.5934,-70.0268 L -53.4561,-70.1558 L -53.3037,-70.2665 L -53.1387,-70.3572 L -52.9635,-70.4266 L -52.7811,-70.4734
 L -52.5942,-70.497 L -52.4058,-70.497 L -52.2189,-70.4734 L -52.0365,-70.4266 L -51.8613,-70.3572 L -51.6963,-70.2665
 L -51.5439,-70.1558 L -51.4065,-70.0268 L -51.2865,-69.8817 L -51.1855,-69.7226 L -51.1053,-69.5522 L -51.0471,-69.373
 L -51.0118,-69.188 L -51,-69 L -51.0118,-68.812 L -51.0471,-68.627 L -51.1053,-68.4478 L -51.1855,-68.2774
 L -51.2865,-68.1183 L -51.4065,-67.9732 L -51.5439,-67.8442 L -51.6963,-67.7335 L -51.8613,-67.6427 L -52.0365,-67.5734
 L -52.2189,-67.5266 L -52.4058,-67.5029 z
M -0.659286,-43.5207 L -1.9675,-43.686 L -3.24467,-44.0139 L -4.47067,-44.4993 L -5.62617,-45.1346 L -6.69295,-45.9096
 L -7.65416,-46.8123 L -8.49467,-47.8283 L -9.20122,-48.9416 L -9.76265,-50.1347 L -10.1701,-51.3888 L -10.4172,-52.684
 L -10.5,-54 L -10.4172,-55.316 L -10.1701,-56.6112 L -9.76265,-57.8653 L -9.20122,-59.0584 L -8.49467,-60.1717
 L -7.65416,-61.1877 L -6.69295,-62.0904 L -5.62617,-62.8654 L -4.47067,-63.5007 L -3.24467,-63.9861 L -1.9675,-64.314
 L -0.659286,-64.4793 L 0.659286,-64.4793 L 1.9675,-64.314 L 3.24467,-63.9861 L 4.47067,-63.5007 L 5.62617,-62.8654
 L 6.69295,-62.0904 L 7.65416,-61.1877 L 8.49467,-60.1717 L 9.20122,-59.0584 L 9.76265,-57.8653 L 10.1701,-56.6112
 L 10.4172,-55.316 L 10.5,-54 L 10.4172,-52.684 L 10.1701,-51.3888 L 9.76265,-50.1347 L 9.20122,-48.9416
 L 8.49467,-47.8283 L 7.65416,-46.8123 L 6.69295,-45.9096 L 5.62617,-45.1346 L 4.47067,-44.4993 L 3.24467,-44.0139
 L 1.9675,-43.686 L 0.659286,-43.5207 z
M 51.3407,-43.5207 L 50.0325,-43.686 L 48.7553,-44.0139 L 47.5293,-44.4993 L 46.3738,-45.1346 L 45.307,-45.9096
 L 44.3458,-46.8123 L 43.5053,-47.8283 L 42.7988,-48.9416 L 42.2373,-50.1347 L 41.8299,-51.3888 L 41.5828,-52.684
 L 41.5,-54 L 41.5828,-55.316 L 41.8299,-56.6112 L 42.2373,-57.8653 L 42.7988,-59.0584 L 43.5053,-60.1717
 L 44.3458,-61.1877 L 45.307,-62.0904 L 46.3738,-62.8654 L 47.5293,-63.5007 L 48.7553,-63.9861 L 50.0325,-64.314
 L 51.3407,-64.4793 L 52.6593,-64.4793 L 53.9675,-64.314 L 55.2447,-63.9861 L 56.4707,-63.5007 L 57.6262,-62.8654
 L 58.6929,-62.0904 L 59.6542,-61.1877 L 60.4947,-60.1717 L 61.2012,-59.0584 L 61.7626,-57.8653 L 62.1701,-56.6112
 L 62.4172,-55.316 L 62.5,-54 L 62.4172,-52.684 L 62.1701,-51.3888 L 61.7626,-50.1347 L 61.2012,-48.9416
 L 60.4947,-47.8283 L 59.6542,-46.8123 L 58.6929,-45.9096 L 57.6262,-45.1346 L 56.4707,-44.4993 L 55.2447,-44.0139
 L 53.9675,-43.686 L 52.6593,-43.5207 z
M -26.6593,-43.5207 L -27.9675,-43.686 L -29.2447,-44.0139 L -30.4707,-44.4993 L -31.6262,-45.1346 L -32.6929,-45.9096
 L -33.6542,-46.8123 L -34.4947,-47.8283 L -35.2012,-48.9416 L -35.7626,-50.1347 L -36.1701,-51.3888 L -36.4172,-52.684
 L -36.5,-54 L -36.4172,-55.316 L -36.1701,-56.6112 L -35.7626,-57.8653 L -35.2012,-59.0584 L -34.4947,-60.1717
 L -33.6542,-61.1877 L -32.6929,-62.0904 L -31.6262,-62.8654 L -30.4707,-63.5007 L -29.2447,-63.9861 L -27.9675,-64.314
 L -26.6593,-64.4793 L -25.3407,-64.4793 L -24.0325,-64.314 L -22.7553,-63.9861 L -21.5293,-63.5007 L -20.3738,-62.8654
 L -19.307,-62.0904 L -18.3458,-61.1877 L -17.5053,-60.1717 L -16.7988,-59.0584 L -16.2373,-57.8653 L -15.8299,-56.6112
 L -15.5828,-55.316 L -15.5,-54 L -15.5828,-52.684 L -15.8299,-51.3888 L -16.2373,-50.1347 L -16.7988,-48.9416
 L -17.5053,-47.8283 L -18.3458,-46.8123 L -19.307,-45.9096 L -20.3738,-45.1346 L -21.5293,-44.4993 L -22.7553,-44.0139
 L -24.0325,-43.686 L -25.3407,-43.5207 z
M -52.6593,-43.5207 L -53.9675,-43.686 L -55.2447,-44.0139 L -56.4707,-44.4993 L -57.6262,-45.1346 L -58.6929,-45.9096
 L -59.6542,-46.8123 L -60.4947,-47.8283 L -61.2012,-48.9416 L -61.7626,-50.1347 L -62.1701,-51.3888 L -62.4172,-52.684
 L -62.5,-54 L -62.4172,-55.316 L -62.1701,-56.6112 L -61.7626,-57.8653 L -61.2012,-59.0584 L -60.4947,-60.1717
 L -59.6542,-61.1877 L -58.6929,-62.0904 L -57.6262,-62.8654 L -56.4707,-63.5007 L -55.2447,-63.9861 L -53.9675,-64.314
 L -52.6593,-64.4793 L -51.3407,-64.4793 L -50.0325,-64.314 L -48.7553,-63.9861 L -47.5293,-63.5007 L -46.3738,-62.8654
 L -45.307,-62.0904 L -44.3458,-61.1877 L -43.5053,-60.1717 L -42.7988,-59.0584 L -42.2373,-57.8653 L -41.8299,-56.6112
 L -41.5828,-55.316 L -41.5,-54 L -41.5828,-52.684 L -41.8299,-51.3888 L -42.2373,-50.1347 L -42.7988,-48.9416
 L -43.5053,-47.8283 L -44.3458,-46.8123 L -45.307,-45.9096 L -46.3738,-45.1346 L -47.5293,-44.4993 L -48.7553,-44.0139
 L -50.0325,-43.686 L -51.3407,-43.5207 z
M 25.3407,-43.5207 L 24.0325,-43.686 L 22.7553,-44.0139 L 21.5293,-44.4993 L 20.3738,-45.1346 L 19.307,-45.9096
 L 18.3458,-46.8123 L 17.5053,-47.8283 L 16.7988,-48.9416 L 16.2373,-50.1347 L 15.8299,-51.3888 L 15.5828,-52.684
 L 15.5,-54 L 15.5828,-55.316 L 15.8299,-56.6112 L 16.2373,-57.8653 L 16.7988,-59.0584 L 17.5053,-60.1717
 L 18.3458,-61.1877 L 19.307,-62.0904 L 20.3738,-62.8654 L 21.5293,-63.5007 L 22.7553,-63.9861 L 24.0325,-64.314
 L 25.3407,-64.4793 L 26.6593,-64.4793 L 27.9675,-64.314 L 29.2447,-63.9861 L 30.4707,-63.5007 L 31.6262,-62.8654
 L 32.6929,-62.0904 L 33.6542,-61.1877 L 34.4947,-60.1717 L 35.2012,-59.0584 L 35.7626,-57.8653 L 36.1701,-56.6112
 L 36.4172,-55.316 L 36.5,-54 L 36.4172,-52.684 L 36.1701,-51.3888 L 35.7626,-50.1347 L 35.2012,-48.9416
 L 34.4947,-47.8283 L 33.6542,-46.8123 L 32.6929,-45.9096 L 31.6262,-45.1346 L 30.4707,-44.4993 L 29.2447,-44.0139
 L 27.9675,-43.686 L 26.6593,-43.5207 z
M -60.1884,-36.0059 L -60.5621,-36.0531 L -60.927,-36.1468 L -61.2773,-36.2855 L -61.6075,-36.467 L -61.9123,-36.6885
 L -62.1869,-36.9464 L -62.427,-37.2366 L -62.6289,-37.5547 L -62.7893,-37.8956 L -62.9057,-38.2539 L -62.9763,-38.624
 L -63,-39 L -62.9763,-39.376 L -62.9057,-39.7461 L -62.7893,-40.1044 L -62.6289,-40.4453 L -62.427,-40.7634
 L -62.1869,-41.0536 L -61.9123,-41.3116 L -61.6075,-41.533 L -61.2773,-41.7145 L -60.927,-41.8532 L -60.5621,-41.9469
 L -60.1884,-41.9941 L -59.8116,-41.9941 L -59.4379,-41.9469 L -59.0729,-41.8532 L -58.7227,-41.7145 L -58.3925,-41.533
 L -58.0877,-41.3116 L -57.8131,-41.0536 L -57.5729,-40.7634 L -57.3711,-40.4453 L -57.2107,-40.1044 L -57.0942,-39.7461
 L -57.0237,-39.376 L -57,-39 L -57.0237,-38.624 L -57.0942,-38.2539 L -57.2107,-37.8956 L -57.3711,-37.5547
 L -57.5729,-37.2366 L -57.8131,-36.9464 L -58.0877,-36.6885 L -58.3925,-36.467 L -58.7227,-36.2855 L -59.0729,-36.1468
 L -59.4379,-36.0531 L -59.8116,-36.0059 z
M -0.18837,-36.0059 L -0.562134,-36.0531 L -0.927048,-36.1468 L -1.27733,-36.2855 L -1.60747,-36.467 L -1.91226,-36.6885
 L -2.1869,-36.9464 L -2.42705,-37.2366 L -2.62891,-37.5547 L -2.78932,-37.8956 L -2.90575,-38.2539 L -2.97633,-38.624
 L -3,-39 L -2.97633,-39.376 L -2.90575,-39.7461 L -2.78932,-40.1044 L -2.62891,-40.4453 L -2.42705,-40.7634
 L -2.1869,-41.0536 L -1.91226,-41.3116 L -1.60747,-41.533 L -1.27733,-41.7145 L -0.927048,-41.8532 L -0.562134,-41.9469
 L -0.18837,-41.9941 L 0.18837,-41.9941 L 0.562134,-41.9469 L 0.927048,-41.8532 L 1.27733,-41.7145 L 1.60747,-41.533
 L 1.91226,-41.3116 L 2.1869,-41.0536 L 2.42705,-40.7634 L 2.62891,-40.4453 L 2.78932,-40.1044 L 2.90575,-39.7461
 L 2.97633,-39.376 L 3,-39 L 2.97633,-38.624 L 2.90575,-38.2539 L 2.78932,-37.8956 L 2.62891,-37.5547
 L 2.42705,-37.2366 L 2.1869,-36.9464 L 1.91226,-36.6885 L 1.60747,-36.467 L 1.27733,-36.2855 L 0.927048,-36.1468
 L 0.562134,-36.0531 L 0.18837,-36.0059 z
M -30.1884,-36.0059 L -30.5621,-36.0531 L -30.927,-36.1468 L -31.2773,-36.2855 L -31.6075,-36.467 L -31.9123,-36.6885
 L -32.1869,-36.9464 L -32.427,-37.2366 L -32.6289,-37.5547 L -32.7893,-37.8956 L -32.9057,-38.2539 L -32.9763,-38.624
 L -33,-39 L -32.9763,-39.376 L -32.9057,-39.7461 L -32.7893,-40.1044 L -32.6289,-40.4453 L -32.427,-40.7634
 L -32.1869,-41.0536 L -31.9123,-41.3116 L -31.6075,-41.533 L -31.2773,-41.7145 L -30.927,-41.8532 L -30.5621,-41.9469
 L -30.1884,-41.9941 L -29.8116,-41.9941 L -29.4379,-41.9469 L -29.0729,-41.8532 L -28.7227,-41.7145 L -28.3925,-41.533
 L -28.0877,-41.3116 L -27.8131,-41.0536 L -27.5729,-40.7634 L -27.3711,-40.4453 L -27.2107,-40.1044 L -27.0942,-39.7461
 L -27.0237,-39.376 L -27,-39 L -27.0237,-38.624 L -27.0942,-38.2539 L -27.2107,-37.8956 L -27.3711,-37.5547
 L -27.5729,-37.2366 L -27.8131,-36.9464 L -28.0877,-36.6885 L -28.3925,-36.467 L -28.7227,-36.2855 L -29.0729,-36.1468
 L -29.4379,-36.0531 L -29.8116,-36.0059 z
M 29.8116,-36.0059 L 29.4379,-36.0531 L 29.0729,-36.1468 L 28.7227,-36.2855 L 28.3925,-36.467 L 28.0877,-36.6885
 L 27.8131,-36.9464 L 27.5729,-37.2366 L 27.3711,-37.5547 L 27.2107,-37.8956 L 27.0942,-38.2539 L 27.0237,-38.624
 L 27,-39 L 27.0237,-39.376 L 27.0942,-39.7461 L 27.2107,-40.1044 L 27.3711,-40.4453 L 27.5729,-40.7634
 L 27.8131,-41.0536 L 28.0877,-41.3116 L 28.3925,-41.533 L 28.7227,-41.7145 L 29.0729,-41.8532 L 29.4379,-41.9469
 L 29.8116,-41.9941 L 30.1884,-41.9941 L 30.5621,-41.9469 L 30.927,-41.8532 L 31.2773,-41.7145 L 31.6075,-41.533
 L 31.9123,-41.3116 L 32.1869,-41.0536 L 32.427,-40.7634 L 32.6289,-40.4453 L 32.7893,-40.1044 L 32.9057,-39.7461
 L 32.9763,-39.376 L 33,-39 L 32.9763,-38.624 L 32.9057,-38.2539 L 32.7893,-37.8956 L 32.6289,-37.5547
 L 32.427,-37.2366 L 32.1869,-36.9464 L 31.9123,-36.6885 L 31.6075,-36.467 L 31.2773,-36.2855 L 30.927,-36.1468
 L 30.5621,-36.0531 L 30.1884,-36.0059 z
M -15.1884,-36.0059 L -15.5621,-36.0531 L -15.927,-36.1468 L -16.2773,-36.2855 L -16.6075,-36.467 L -16.9123,-36.6885
 L -17.1869,-36.9464 L -17.427,-37.2366 L -17.6289,-37.5547 L -17.7893,-37.8956 L -17.9057,-38.2539 L -17.9763,-38.624
 L -18,-39 L -17.9763,-39.376 L -17.9057,-39.7461 L -17.7893,-40.1044 L -17.6289,-40.4453 L -17.427,-40.7634
 L -17.1869,-41.0536 L -16.9123,-41.3116 L -16.6075,-41.533 L -16.2773,-41.7145 L -15.927,-41.8532 L -15.5621,-41.9469
 L -15.1884,-41.9941 L -14.8116,-41.9941 L -14.4379,-41.9469 L -14.0729,-41.8532 L -13.7227,-41.7145 L -13.3925,-41.533
 L -13.0877,-41.3116 L -12.8131,-41.0536 L -12.5729,-40.7634 L -12.3711,-40.4453 L -12.2107,-40.1044 L -12.0942,-39.7461
 L -12.0237,-39.376 L -12,-39 L -12.0237,-38.624 L -12.0942,-38.2539 L -12.2107,-37.8956 L -12.3711,-37.5547
 L -12.5729,-37.2366 L -12.8131,-36.9464 L -13.0877,-36.6885 L -13.3925,-36.467 L -13.7227,-36.2855 L -14.0729,-36.1468
 L -14.4379,-36.0531 L -14.8116,-36.0059 z
M 14.8116,-36.0059 L 14.4379,-36.0531 L 14.0729,-36.1468 L 13.7227,-36.2855 L 13.3925,-36.467 L 13.0877,-36.6885
 L 12.8131,-36.9464 L 12.5729,-37.2366 L 12.3711,-37.5547 L 12.2107,-37.8956 L 12.0942,-38.2539 L 12.0237,-38.624
 L 12,-39 L 12.0237,-39.376 L 12.0942,-39.7461 L 12.2107,-40.1044 L 12.3711,-40.4453 L 12.5729,-40.7634
 L 12.8131,-41.0536 L 13.0877,-41.3116 L 13.3925,-41.533 L 13.7227,-41.7145 L 14.0729,-41.8532 L 14.4379,-41.9469
 L 14.8116,-41.9941 L 15.1884,-41.9941 L 15.5621,-41.9469 L 15.927,-41.8532 L 16.2773,-41.7145 L 16.6075,-41.533
 L 16.9123,-41.3116 L 17.1869,-41.0536 L 17.427,-40.7634 L 17.6289,-40.4453 L 17.7893,-40.1044 L 17.9057,-39.7461
 L 17.9763,-39.376 L 18,-39 L 17.9763,-38.624 L 17.9057,-38.2539 L 17.7893,-37.8956 L 17.6289,-37.5547
 L 17.427,-37.2366 L 17.1869,-36.9464 L 16.9123,-36.6885 L 16.6075,-36.467 L 16.2773,-36.2855 L 15.927,-36.1468
 L 15.5621,-36.0531 L 15.1884,-36.0059 z
M 59.8116,-36.0059 L 59.4379,-36.0531 L 59.0729,-36.1468 L 58.7227,-36.2855 L 58.3925,-36.467 L 58.0877,-36.6885
 L 57.8131,-36.9464 L 57.5729,-37.2366 L 57.3711,-37.5547 L 57.2107,-37.8956 L 57.0942,-38.2539 L 57.0237,-38.624
 L 57,-39 L 57.0237,-39.376 L 57.0942,-39.7461 L 57.2107,-40.1044 L 57.3711,-40.4453 L 57.5729,-40.7634
 L 57.8131,-41.0536 L 58.0877,-41.3116 L 58.3925,-41.533 L 58.7227,-41.7145 L 59.0729,-41.8532 L 59.4379,-41.9469
 L 59.8116,-41.9941 L 60.1884,-41.9941 L 60.5621,-41.9469 L 60.927,-41.8532 L 61.2773,-41.7145 L 61.6075,-41.533
 L 61.9123,-41.3116 L 62.1869,-41.0536 L 62.427,-40.7634 L 62.6289,-40.4453 L 62.7893,-40.1044 L 62.9057,-39.7461
 L 62.9763,-39.376 L 63,-39 L 62.9763,-38.624 L 62.9057,-38.2539 L 62.7893,-37.8956 L 62.6289,-37.5547
 L 62.427,-37.2366 L 62.1869,-36.9464 L 61.9123,-36.6885 L 61.6075,-36.467 L 61.2773,-36.2855 L 60.927,-36.1468
 L 60.5621,-36.0531 L 60.1884,-36.0059 z
M -45.1884,-36.0059 L -45.5621,-36.0531 L -45.927,-36.1468 L -46.2773,-36.2855 L -46.6075,-36.467 L -46.9123,-36.6885
 L -47.1869,-36.9464 L -47.427,-37.2366 L -47.6289,-37.5547 L -47.7893,-37.8956 L -47.9057,-38.2539 L -47.9763,-38.624
 L -48,-39 L -47.9763,-39.376 L -47.9057,-39.7461 L -47.7893,-40.1044 L -47.6289,-40.4453 L -47.427,-40.7634
 L -47.1869,-41.0536 L -46.9123,-41.3116 L -46.6075,-41.533 L -46.2773,-41.7145 L -45.927,-41.8532 L -45.5621,-41.9469
 L -45.1884,-41.9941 L -44.8116,-41.9941 L -44.4379,-41.9469 L -44.0729,-41.8532 L -43.7227,-41.7145 L -43.3925,-41.533
 L -43.0877,-41.3116 L -42.8131,-41.0536 L -42.5729,-40.7634 L -42.3711,-40.4453 L -42.2107,-40.1044 L -42.0942,-39.7461
 L -42.0237,-39.376 L -42,-39 L -42.0237,-38.624 L -42.0942,-38.2539 L -42.2107,-37.8956 L -42.3711,-37.5547
 L -42.5729,-37.2366 L -42.8131,-36.9464 L -43.0877,-36.6885 L -43.3925,-36.467 L -43.7227,-36.2855 L -44.0729,-36.1468
 L -44.4379,-36.0531 L -44.8116,-36.0059 z
M 44.8116,-36.0059 L 44.4379,-36.0531 L 44.0729,-36.1468 L 43.7227,-36.2855 L 43.3925,-36.467 L 43.0877,-36.6885
 L 42.8131,-36.9464 L 42.5729,-37.2366 L 42.3711,-37.5547 L 42.2107,-37.8956 L 42.0942,-38.2539 L 42.0237,-38.624
 L 42,-39 L 42.0237,-39.376 L 42.0942,-39.7461 L 42.2107,-40.1044 L 42.3711,-40.4453 L 42.5729,-40.7634
 L 42.8131,-41.0536 L 43.0877,-41.3116 L 43.3925,-41.533 L 43.7227,-41.7145 L 44.0729,-41.8532 L 44.4379,-41.9469
 L 44.8116,-41.9941 L 45.1884,-41.9941 L 45.5621,-41.9469 L 45.927,-41.8532 L 46.2773,-41.7145 L 46.6075,-41.533
 L 46.9123,-41.3116 L 47.1869,-41.0536 L 47.427,-40.7634 L 47.6289,-40.4453 L 47.7893,-40.1044 L 47.9057,-39.7461
 L 47.9763,-39.376 L 48,-39 L 47.9763,-38.624 L 47.9057,-38.2539 L 47.7893,-37.8956 L 47.6289,-37.5547
 L 47.427,-37.2366 L 47.1869,-36.9464 L 46.9123,-36.6885 L 46.6075,-36.467 L 46.2773,-36.2855 L 45.927,-36.1468
 L 45.5621,-36.0531 L 45.1884,-36.0059 z
M 37.4058,-37.503 L 37.2189,-37.5266 L 37.0365,-37.5734 L 36.8613,-37.6428 L 36.6963,-37.7335 L 36.5439,-37.8442
 L 36.4065,-37.9732 L 36.2865,-38.1183 L 36.1855,-38.2774 L 36.1053,-38.4478 L 36.0471,-38.627 L 36.0118,-38.812
 L 36,-39 L 36.0118,-39.188 L 36.0471,-39.373 L 36.1053,-39.5522 L 36.1855,-39.7226 L 36.2865,-39.8817
 L 36.4065,-40.0268 L 36.5439,-40.1558 L 36.6963,-40.2665 L 36.8613,-40.3573 L 37.0365,-40.4266 L 37.2189,-40.4734
 L 37.4058,-40.4971 L 37.5942,-40.4971 L 37.7811,-40.4734 L 37.9635,-40.4266 L 38.1387,-40.3573 L 38.3037,-40.2665
 L 38.4561,-40.1558 L 38.5934,-40.0268 L 38.7135,-39.8817 L 38.8145,-39.7226 L 38.8947,-39.5522 L 38.9529,-39.373
 L 38.9882,-39.188 L 39,-39 L 38.9882,-38.812 L 38.9529,-38.627 L 38.8947,-38.4478 L 38.8145,-38.2774
 L 38.7135,-38.1183 L 38.5934,-37.9732 L 38.4561,-37.8442 L 38.3037,-37.7335 L 38.1387,-37.6428 L 37.9635,-37.5734
 L 37.7811,-37.5266 L 37.5942,-37.503 z
M -22.5942,-37.503 L -22.7811,-37.5266 L -22.9635,-37.5734 L -23.1387,-37.6428 L -23.3037,-37.7335 L -23.4561,-37.8442
 L -23.5934,-37.9732 L -23.7135,-38.1183 L -23.8145,-38.2774 L -23.8947,-38.4478 L -23.9529,-38.627 L -23.9882,-38.812
 L -24,-39 L -23.9882,-39.188 L -23.9529,-39.373 L -23.8947,-39.5522 L -23.8145,-39.7226 L -23.7135,-39.8817
 L -23.5934,-40.0268 L -23.4561,-40.1558 L -23.3037,-40.2665 L -23.1387,-40.3573 L -22.9635,-40.4266 L -22.7811,-40.4734
 L -22.5942,-40.4971 L -22.4058,-40.4971 L -22.2189,-40.4734 L -22.0365,-40.4266 L -21.8613,-40.3573 L -21.6963,-40.2665
 L -21.5439,-40.1558 L -21.4065,-40.0268 L -21.2865,-39.8817 L -21.1855,-39.7226 L -21.1053,-39.5522 L -21.0471,-39.373
 L -21.0118,-39.188 L -21,-39 L -21.0118,-38.812 L -21.0471,-38.627 L -21.1053,-38.4478 L -21.1855,-38.2774
 L -21.2865,-38.1183 L -21.4065,-37.9732 L -21.5439,-37.8442 L -21.6963,-37.7335 L -21.8613,-37.6428 L -22.0365,-37.5734
 L -22.2189,-37.5266 L -22.4058,-37.503 z
M 52.4058,-37.503 L 52.2189,-37.5266 L 52.0365,-37.5734 L 51.8613,-37.6428 L 51.6963,-37.7335 L 51.5439,-37.8442
 L 51.4065,-37.9732 L 51.2865,-38.1183 L 51.1855,-38.2774 L 51.1053,-38.4478 L 51.0471,-38.627 L 51.0118,-38.812
 L 51,-39 L 51.0118,-39.188 L 51.0471,-39.373 L 51.1053,-39.5522 L 51.1855,-39.7226 L 51.2865,-39.8817
 L 51.4065,-40.0268 L 51.5439,-40.1558 L 51.6963,-40.2665 L 51.8613,-40.3573 L 52.0365,-40.4266 L 52.2189,-40.4734
 L 52.4058,-40.4971 L 52.5942,-40.4971 L 52.7811,-40.4734 L 52.9635,-40.4266 L 53.1387,-40.3573 L 53.3037,-40.2665
 L 53.4561,-40.1558 L 53.5934,-40.0268 L 53.7135,-39.8817 L 53.8145,-39.7226 L 53.8947,-39.5522 L 53.9529,-39.373
 L 53.9882,-39.188 L 54,-39 L 53.9882,-38.812 L 53.9529,-38.627 L 53.8947,-38.4478 L 53.8145,-38.2774
 L 53.7135,-38.1183 L 53.5934,-37.9732 L 53.4561,-37.8442 L 53.3037,-37.7335 L 53.1387,-37.6428 L 52.9635,-37.5734
 L 52.7811,-37.5266 L 52.5942,-37.503 z
M 7.40581,-37.503 L 7.21892,-37.5266 L 7.03647,-37.5734 L 6.86133,-37.6428 L 6.69626,-37.7335 L 6.54385,-37.8442
 L 6.40654,-37.9732 L 6.28647,-38.1183 L 6.18553,-38.2774 L 6.10533,-38.4478 L 6.04712,-38.627 L 6.01183,-38.812
 L 6,-39 L 6.01183,-39.188 L 6.04712,-39.373 L 6.10533,-39.5522 L 6.18553,-39.7226 L 6.28647,-39.8817
 L 6.40654,-40.0268 L 6.54385,-40.1558 L 6.69626,-40.2665 L 6.86133,-40.3573 L 7.03647,-40.4266 L 7.21892,-40.4734
 L 7.40581,-40.4971 L 7.59418,-40.4971 L 7.78107,-40.4734 L 7.96352,-40.4266 L 8.13866,-40.3573 L 8.30373,-40.2665
 L 8.45613,-40.1558 L 8.59344,-40.0268 L 8.71352,-39.8817 L 8.81445,-39.7226 L 8.89465,-39.5522 L 8.95287,-39.373
 L 8.98816,-39.188 L 9,-39 L 8.98816,-38.812 L 8.95287,-38.627 L 8.89465,-38.4478 L 8.81445,-38.2774
 L 8.71352,-38.1183 L 8.59344,-37.9732 L 8.45613,-37.8442 L 8.30373,-37.7335 L 8.13866,-37.6428 L 7.96352,-37.5734
 L 7.78107,-37.5266 L 7.59418,-37.503 z
M -37.5942,-37.503 L -37.7811,-37.5266 L -37.9635,-37.5734 L -38.1387,-37.6428 L -38.3037,-37.7335 L -38.4561,-37.8442
 L -38.5934,-37.9732 L -38.7135,-38.1183 L -38.8145,-38.2774 L -38.8947,-38.4478 L -38.9529,-38.627 L -38.9882,-38.812
 L -39,-39 L -38.9882,-39.188 L -38.9529,-39.373 L -38.8947,-39.5522 L -38.8145,-39.7226 L -38.7135,-39.8817
 L -38.5934,-40.0268 L -38.4561,-40.1558 L -38.3037,-40.2665 L -38.1387,-40.3573 L -37.9635,-40.4266 L -37.7811,-40.4734
 L -37.5942,-40.4971 L -37.4058,-40.4971 L -37.2189,-40.4734 L -37.0365,-40.4266 L -36.8613,-40.3573 L -36.6963,-40.2665
 L -36.5439,-40.1558 L -36.4065,-40.0268 L -36.2865,-39.8817 L -36.1855,-39.7226 L -36.1053,-39.5522 L -36.0471,-39.373
 L -36.0118,-39.188 L -36,-39 L -36.0118,-38.812 L -36.0471,-38.627 L -36.1053,-38.4478 L -36.1855,-38.2774
 L -36.2865,-38.1183 L -36.4065,-37.9732 L -36.5439,-37.8442 L -36.6963,-37.7335 L -36.8613,-37.6428 L -37.0365,-37.5734
 L -37.2189,-37.5266 L -37.4058,-37.503 z
M -7.59418,-37.503 L -7.78107,-37.5266 L -7.96352,-37.5734 L -8.13866,-37.6428 L -8.30373,-37.7335 L -8.45613,-37.8442
 L -8.59344,-37.9732 L -8.71352,-38.1183 L -8.81445,-38.2774 L -8.89465,-38.4478 L -8.95287,-38.627 L -8.98816,-38.812
 L -9,-39 L -8.98816,-39.188 L -8.95287,-39.373 L -8.89465,-39.5522 L -8.81445,-39.7226 L -8.71352,-39.8817
 L -8.59344,-40.0268 L -8.45613,-40.1558 L -8.30373,-40.2665 L -8.13866,-40.3573 L -7.96352,-40.4266 L -7.78107,-40.4734
 L -7.59418,-40.4971 L -7.40581,-40.4971 L -7.21892,-40.4734 L -7.03647,-40.4266 L -6.86133,-40.3573 L -6.69626,-40.2665
 L -6.54385,-40.1558 L -6.40654,-40.0268 L -6.28647,-39.8817 L -6.18553,-39.7226 L -6.10533,-39.5522 L -6.04712,-39.373
 L -6.01183,-39.188 L -6,-39 L -6.01183,-38.812 L -6.04712,-38.627 L -6.10533,-38.4478 L -6.18553,-38.2774
 L -6.28647,-38.1183 L -6.40654,-37.9732 L -6.54385,-37.8442 L -6.69626,-37.7335 L -6.86133,-37.6428 L -7.03647,-37.5734
 L -7.21892,-37.5266 L -7.40581,-37.503 z
M -52.5942,-37.503 L -52.7811,-37.5266 L -52.9635,-37.5734 L -53.1387,-37.6428 L -53.3037,-37.7335 L -53.4561,-37.8442
 L -53.5934,-37.9732 L -53.7135,-38.1183 L -53.8145,-38.2774 L -53.8947,-38.4478 L -53.9529,-38.627 L -53.9882,-38.812
 L -54,-39 L -53.9882,-39.188 L -53.9529,-39.373 L -53.8947,-39.5522 L -53.8145,-39.7226 L -53.7135,-39.8817
 L -53.5934,-40.0268 L -53.4561,-40.1558 L -53.3037,-40.2665 L -53.1387,-40.3573 L -52.9635,-40.4266 L -52.7811,-40.4734
 L -52.5942,-40.4971 L -52.4058,-40.4971 L -52.2189,-40.4734 L -52.0365,-40.4266 L -51.8613,-40.3573 L -51.6963,-40.2665
 L -51.5439,-40.1558 L -51.4065,-40.0268 L -51.2865,-39.8817 L -51.1855,-39.7226 L -51.1053,-39.5522 L -51.0471,-39.373
 L -51.0118,-39.188 L -51,-39 L -51.0118,-38.812 L -51.0471,-38.627 L -51.1053,-38.4478 L -51.1855,-38.2774
 L -51.2865,-38.1183 L -51.4065,-37.9732 L -51.5439,-37.8442 L -51.6963,-37.7335 L -51.8613,-37.6428 L -52.0365,-37.5734
 L -52.2189,-37.5266 L -52.4058,-37.503 z
M 22.4058,-37.503 L 22.2189,-37.5266 L 22.0365,-37.5734 L 21.8613,-37.6428 L 21.6963,-37.7335 L 21.5439,-37.8442
 L 21.4065,-37.9732 L 21.2865,-38.1183 L 21.1855,-38.2774 L 21.1053,-38.4478 L 21.0471,-38.627 L 21.0118,-38.812
 L 21,-39 L 21.0118,-39.188 L 21.0471,-39.373 L 21.1053,-39.5522 L 21.1855,-39.7226 L 21.2865,-39.8817
 L 21.4065,-40.0268 L 21.5439,-40.1558 L 21.6963,-40.2665 L 21.8613,-40.3573 L 22.0365,-40.4266 L 22.2189,-40.4734
 L 22.4058,-40.4971 L 22.5942,-40.4971 L 22.7811,-40.4734 L 22.9635,-40.4266 L 23.1387,-40.3573 L 23.3037,-40.2665
 L 23.4561,-40.1558 L 23.5934,-40.0268 L 23.7135,-39.8817 L 23.8145,-39.7226 L 23.8947,-39.5522 L 23.9529,-39.373
 L 23.9882,-39.188 L 24,-39 L 23.9882,-38.812 L 23.9529,-38.627 L 23.8947,-38.4478 L 23.8145,-38.2774
 L 23.7135,-38.1183 L 23.5934,-37.9732 L 23.4561,-37.8442 L 23.3037,-37.7335 L 23.1387,-37.6428 L 22.9635,-37.5734
 L 22.7811,-37.5266 L 22.5942,-37.503 z
" stroke="black" fill="lightgray" stroke-width="0.5"/>
</svg>
