<?xml version="1.0" standalone="no"?>
<!DOCTYPE svg PUBLIC "-//W3C//DTD SVG 1.1//EN" "http://www.w3.org/Graphics/SVG/1.1/DTD/svg11.dtd">
<svg width="360mm" height="120mm" viewBox="-180 -60 360 120" xmlns="http://www.w3.org/2000/svg" version="1.1">
<title>OpenSCAD Model</title>
<path d="
M 175.437,59.4114 L 176.045,59.2553 L 176.629,59.0241 L 177.179,58.7216 L 177.687,58.3526 L 178.145,57.9227
 L 178.545,57.4389 L 178.882,56.9088 L 179.149,56.3406 L 179.343,55.7434 L 179.461,55.1267 L 179.5,54.5
 L 179.5,-54.5 L 179.461,-55.1267 L 179.343,-55.7434 L 179.149,-56.3406 L 178.882,-56.9088 L 178.545,-57.4389
 L 178.145,-57.9227 L 177.687,-58.3526 L 177.179,-58.7216 L 176.629,-59.0241 L 176.045,-59.2553 L 175.437,-59.4114
 L 174.814,-59.4901 L -174.814,-59.4901 L -175.437,-59.4114 L -176.045,-59.2553 L -176.629,-59.0241 L -177.179,-58.7216
 L -177.687,-58.3526 L -178.145,-57.9227 L -178.545,-57.4389 L -178.882,-56.9088 L -179.149,-56.3406 L -179.343,-55.7434
 L -179.461,-55.1267 L -179.5,-54.5 L -179.5,54.5 L -179.461,55.1267 L -179.343,55.7434 L -179.149,56.3406
 L -178.882,56.9088 L -178.545,57.4389 L -178.145,57.9227 L -177.687,58.3526 L -177.179,58.7216 L -176.629,59.0241
 L -176.045,59.2553 L -175.437,59.4114 L -174.814,59.4901 L 174.814,59.4901 z
M -172.688,-49.5059 L -173.062,-49.5531 L -173.427,-49.6468 L -173.777,-49.7855 L -174.107,-49.967 L -174.412,-50.1885
 L -174.687,-50.4464 L -174.927,-50.7366 L -175.129,-51.0547 L -175.289,-51.3956 L -175.406,-51.7539 L -175.476,-52.124
 L -175.5,-52.5 L -175.476,-52.876 L -175.406,-53.2461 L -175.289,-53.6044 L -175.129,-53.9453 L -174.927,-54.2634
 L -174.687,-54.5536 L -174.412,-54.8115 L -174.107,-55.033 L -173.777,-55.2145 L -173.427,-55.3532 L -173.062,-55.4469
 L -172.688,-55.4941 L -172.312,-55.4941 L -171.938,-55.4469 L -171.573,-55.3532 L -171.223,-55.2145 L -170.893,-55.033
 L -170.588,-54.8115 L -170.313,-54.5536 L -170.073,-54.2634 L -169.871,-53.9453 L -169.711,-53.6044 L -169.594,-53.2461
 L -169.524,-52.876 L -169.5,-52.5 L -169.524,-52.124 L -169.594,-51.7539 L -169.711,-51.3956 L -169.871,-51.0547
 L -170.073,-50.7366 L -170.313,-50.4464 L -170.588,-50.1885 L -170.893,-49.967 L -171.223,-49.7855 L -171.573,-49.6468
 L -171.938,-49.5531 L -172.312,-49.5059 z
M 172.312,-49.5059 L 171.938,-49.5531 L 171.573,-49.6468 L 171.223,-49.7855 L 170.893,-49.967 L 170.588,-50.1885
 L 170.313,-50.4464 L 170.073,-50.7366 L 169.871,-51.0547 L 169.711,-51.3956 L 169.594,-51.7539 L 169.524,-52.124
 L 169.5,-52.5 L 169.524,-52.876 L 169.594,-53.2461 L 169.711,-53.6044 L 169.871,-53.9453 L 170.073,-54.2634
 L 170.313,-54.5536 L 170.588,-54.8115 L 170.893,-55.033 L 171.223,-55.2145 L 171.573,-55.3532 L 171.938,-55.4469
 L 172.312,-55.4941 L 172.688,-55.4941 L 173.062,-55.4469 L 173.427,-55.3532 L 173.777,-55.2145 L 174.107,-55.033
 L 174.412,-54.8115 L 174.687,-54.5536 L 174.927,-54.2634 L 175.129,-53.9453 L 175.289,-53.6044 L 175.406,-53.2461
 L 175.476,-52.876 L 175.5,-52.5 L 175.476,-52.124 L 175.406,-51.7539 L 175.289,-51.3956 L 175.129,-51.0547
 L 174.927,-50.7366 L 174.687,-50.4464 L 174.412,-50.1885 L 174.107,-49.967 L 173.777,-49.7855 L 173.427,-49.6468
 L 173.062,-49.5531 L 172.688,-49.5059 z
M -113.296,52.3964 L -119.838,51.5701 L -126.223,49.9305 L -132.353,47.5034 L -138.131,44.3272 L -143.465,40.4519
 L -148.271,35.9387 L -152.473,30.8587 L -156.006,25.2921 L -158.813,19.3265 L -160.851,13.0562 L -162.086,6.57999
 L -162.5,-0 L -162.086,-6.57999 L -160.851,-13.0562 L -158.813,-19.3265 L -156.006,-25.2921 L -152.473,-30.8587
 L -148.271,-35.9387 L -143.465,-40.4519 L -138.131,-44.3272 L -132.353,-47.5034 L -126.223,-49.9305 L -119.838,-51.5701
 L -113.296,-52.3964 L -106.703,-52.3964 L -100.162,-51.5701 L -93.7766,-49.9305 L -87.6466,-47.5034 L -81.8691,-44.3272
 L -76.5352,-40.4519 L -71.7291,-35.9387 L -67.5266,-30.8587 L -63.9939,-25.2921 L -61.1867,-19.3265 L -59.1494,-13.0562
 L -57.914,-6.57999 L -57.5,-0 L -57.914,6.57999 L -59.1494,13.0562 L -61.1867,19.3265 L -63.9939,25.2921
 L -67.5266,30.8587 L -71.7291,35.9387 L -76.5352,40.4519 L -81.8691,44.3272 L -87.6466,47.5034 L -93.7766,49.9305
 L -100.162,51.5701 L -106.703,52.3964 z
M -3.29649,52.3964 L -9.83751,51.5701 L -16.2234,49.9305 L -22.3534,47.5034 L -28.1309,44.3272 L -33.4648,40.4519
 L -38.2708,35.9387 L -42.4734,30.8587 L -46.0061,25.2921 L -48.8133,19.3265 L -50.8506,13.0562 L -52.086,6.57999
 L -52.5,-0 L -52.086,-6.57999 L -50.8506,-13.0562 L -48.8133,-19.3265 L -46.0061,-25.2921 L -42.4734,-30.8587
 L -38.2708,-35.9387 L -33.4648,-40.4519 L -28.1309,-44.3272 L -22.3534,-47.5034 L -16.2234,-49.9305 L -9.83751,-51.5701
 L -3.29649,-52.3964 L 3.29649,-52.3964 L 9.83751,-51.5701 L 16.2234,-49.9305 L 22.3534,-47.5034 L 28.1309,-44.3272
 L 33.4648,-40.4519 L 38.2708,-35.9387 L 42.4734,-30.8587 L 46.0061,-25.2921 L 48.8133,-19.3265 L 50.8506,-13.0562
 L 52.086,-6.57999 L 52.5,-0 L 52.086,6.57999 L 50.8506,13.0562 L 48.8133,19.3265 L 46.0061,25.2921
 L 42.4734,30.8587 L 38.2708,35.9387 L 33.4648,40.4519 L 28.1309,44.3272 L 22.3534,47.5034 L 16.2234,49.9305
 L 9.83751,51.5701 L 3.29649,52.3964 z
M 106.703,52.3964 L 100.162,51.5701 L 93.7766,49.9305 L 87.6466,47.5034 L 81.8691,44.3272 L 76.5352,40.4519
 L 71.7291,35.9387 L 67.5266,30.8587 L 63.9939,25.2921 L 61.1867,19.3265 L 59.1494,13.0562 L 57.914,6.57999
 L 57.5,-0 L 57.914,-6.57999 L 59.1494,-13.0562 L 61.1867,-19.3265 L 63.9939,-25.2921 L 67.5266,-30.8587
 L 71.7291,-35.9387 L 76.5352,-40.4519 L 81.8691,-44.3272 L 87.6466,-47.5034 L 93.7766,-49.9305 L 100.162,-51.5701
 L 106.703,-52.3964 L 113.296,-52.3964 L 119.838,-51.5701 L 126.223,-49.9305 L 132.353,-47.5034 L 138.131,-44.3272
 L 143.465,-40.4519 L 148.271,-35.9387 L 152.473,-30.8587 L 156.006,-25.2921 L 158.813,-19.3265 L 160.851,-13.0562
 L 162.086,-6.57999 L 162.5,-0 L 162.086,6.57999 L 160.851,13.0562 L 158.813,19.3265 L 156.006,25.2921
 L 152.473,30.8587 L 148.271,35.9387 L 143.465,40.4519 L 138.131,44.3272 L 132.353,47.5034 L 126.223,49.9305
 L 119.838,51.5701 L 113.296,52.3964 z
M -172.594,-43.503 L -172.781,-43.5266 L -172.964,-43.5734 L -173.139,-43.6428 L -173.304,-43.7335 L -173.456,-43.8442
 L -173.593,-43.9732 L -173.714,-44.1183 L -173.814,-44.2774 L -173.895,-44.4478 L -173.953,-44.627 L -173.988,-44.812
 L -174,-45 L -173.988,-45.188 L -173.953,-45.373 L -173.895,-45.5522 L -173.814,-45.7226 L -173.714,-45.8817
 L -173.593,-46.0268 L -173.456,-46.1558 L -173.304,-46.2665 L -173.139,-46.3572 L -172.964,-46.4266 L -172.781,-46.4734
 L -172.594,-46.497 L -172.406,-46.497 L -172.219,-46.4734 L -172.036,-46.4266 L -171.861,-46.3572 L -171.696,-46.2665
 L -171.544,-46.1558 L -171.407,-46.0268 L -171.286,-45.8817 L -171.186,-45.7226 L -171.105,-45.5522 L -171.047,-45.373
 L -171.012,-45.188 L -171,-45 L -171.012,-44.812 L -171.047,-44.627 L -171.105,-44.4478 L -171.186,-44.2774
 L -171.286,-44.1183 L -171.407,-43.9732 L -171.544,-43.8442 L -171.696,-43.7335 L -171.861,-43.6428 L -172.036,-43.5734
 L -172.219,-43.5266 L -172.406,-43.503 z
M 172.406,-43.503 L 172.219,-43.5266 L 172.036,-43.5734 L 171.861,-43.6428 L 171.696,-43.7335 L 171.544,-43.8442
 L 171.407,-43.9732 L 171.286,-44.1183 L 171.186,-44.2774 L 171.105,-44.4478 L 171.047,-44.627 L 171.012,-44.812
 L 171,-45 L 171.012,-45.188 L 171.047,-45.373 L 171.105,-45.5522 L 171.186,-45.7226 L 171.286,-45.8817
 L 171.407,-46.0268 L 171.544,-46.1558 L 171.696,-46.2665 L 171.861,-46.3572 L 172.036,-46.4266 L 172.219,-46.4734
 L 172.406,-46.497 L 172.594,-46.497 L 172.781,-46.4734 L 172.964,-46.4266 L 173.139,-46.3572 L 173.304,-46.2665
 L 173.456,-46.1558 L 173.593,-46.0268 L 173.714,-45.8817 L 173.814,-45.7226 L 173.895,-45.5522 L 173.953,-45.373
 L 173.988,-45.188 L 174,-45 L 173.988,-44.812 L 173.953,-44.627 L 173.895,-44.4478 L 173.814,-44.2774
 L 173.714,-44.1183 L 173.593,-43.9732 L 173.456,-43.8442 L 173.304,-43.7335 L 173.139,-43.6428 L 172.964,-43.5734
 L 172.781,-43.5266 L 172.594,-43.503 z
M -172.688,-34.5059 L -173.062,-34.5531 L -173.427,-34.6468 L -173.777,-34.7855 L -174.107,-34.967 L -174.412,-35.1885
 L -174.687,-35.4464 L -174.927,-35.7366 L -175.129,-36.0547 L -175.289,-36.3956 L -175.406,-36.7539 L -175.476,-37.124
 L -175.5,-37.5 L -175.476,-37.876 L -175.406,-38.2461 L -175.289,-38.6044 L -175.129,-38.9453 L -174.927,-39.2634
 L -174.687,-39.5536 L -174.412,-39.8115 L -174.107,-40.033 L -173.777,-40.2145 L -173.427,-40.3532 L -173.062,-40.4469
 L -172.688,-40.4941 L -172.312,-40.4941 L -171.938,-40.4469 L -171.573,-40.3532 L -171.223,-40.2145 L -170.893,-40.033
 L -170.588,-39.8115 L -170.313,-39.5536 L -170.073,-39.2634 L -169.871,-38.9453 L -169.711,-38.6044 L -169.594,-38.2461
 L -169.524,-37.876 L -169.5,-37.5 L -169.524,-37.124 L -169.594,-36.7539 L -169.711,-36.3956 L -169.871,-36.0547
 L -170.073,-35.7366 L -170.313,-35.4464 L -170.588,-35.1885 L -170.893,-34.967 L -171.223,-34.7855 L -171.573,-34.6468
 L -171.938,-34.5531 L -172.312,-34.5059 z
M 172.312,-34.5059 L 171.938,-34.5531 L 171.573,-34.6468 L 171.223,-34.7855 L 170.893,-34.967 L 170.588,-35.1885
 L 170.313,-35.4464 L 170.073,-35.7366 L 169.871,-36.0547 L 169.711,-36.3956 L 169.594,-36.7539 L 169.524,-37.124
 L 169.5,-37.5 L 169.524,-37.876 L 169.594,-38.2461 L 169.711,-38.6044 L 169.871,-38.9453 L 170.073,-39.2634
 L 170.313,-39.5536 L 170.588,-39.8115 L 170.893,-40.033 L 171.223,-40.2145 L 171.573,-40.3532 L 171.938,-40.4469
 L 172.312,-40.4941 L 172.688,-40.4941 L 173.062,-40.4469 L 173.427,-40.3532 L 173.777,-40.2145 L 174.107,-40.033
 L 174.412,-39.8115 L 174.687,-39.5536 L 174.927,-39.2634 L 175.129,-38.9453 L 175.289,-38.6044 L 175.406,-38.2461
 L 175.476,-37.876 L 175.5,-37.5 L 175.476,-37.124 L 175.406,-36.7539 L 175.289,-36.3956 L 175.129,-36.0547
 L 174.927,-35.7366 L 174.687,-35.4464 L 174.412,-35.1885 L 174.107,-34.967 L 173.777,-34.7855 L 173.427,-34.6468
 L 173.062,-34.5531 L 172.688,-34.5059 z
M 172.406,-28.503 L 172.219,-28.5266 L 172.036,-28.5734 L 171.861,-28.6427 L 171.696,-28.7335 L 171.544,-28.8442
 L 171.407,-28.9732 L 171.286,-29.1183 L 171.186,-29.2774 L 171.105,-29.4478 L 171.047,-29.627 L 171.012,-29.812
 L 171,-30 L 171.012,-30.188 L 171.047,-30.373 L 171.105,-30.5522 L 171.186,-30.7226 L 171.286,-30.8817
 L 171.407,-31.0268 L 171.544,-31.1558 L 171.696,-31.2665 L 171.861,-31.3572 L 172.036,-31.4266 L 172.219,-31.4734
 L 172.406,-31.497 L 172.594,-31.497 L 172.781,-31.4734 L 172.964,-31.4266 L 173.139,-31.3572 L 173.304,-31.2665
 L 173.456,-31.1558 L 173.593,-31.0268 L 173.714,-30.8817 L 173.814,-30.7226 L 173.895,-30.5522 L 173.953,-30.373
 L 173.988,-30.188 L 174,-30 L 173.988,-29.812 L 173.953,-29.627 L 173.895,-29.4478 L 173.814,-29.2774
 L 173.714,-29.1183 L 173.593,-28.9732 L 173.456,-28.8442 L 173.304,-28.7335 L 173.139,-28.6427 L 172.964,-28.5734
 L 172.781,-28.5266 L 172.594,-28.503 z
M -172.594,-28.503 L -172.781,-28.5266 L -172.964,-28.5734 L -173.139,-28.6427 L -173.304,-28.7335 L -173.456,-28.8442
 L -173.593,-28.9732 L -173.714,-29.1183 L -173.814,-29.2774 L -173.895,-29.4478 L -173.953,-29.627 L -173.988,-29.812
 L -174,-30 L -173.988,-30.188 L -173.953,-30.373 L -173.895,-30.5522 L -173.814,-30.7226 L -173.714,-30.8817
 L -173.593,-31.0268 L -173.456,-31.1558 L -173.304,-31.2665 L -173.139,-31.3572 L -172.964,-31.4266 L -172.781,-31.4734
 L -172.594,-31.497 L -172.406,-31.497 L -172.219,-31.4734 L -172.036,-31.4266 L -171.861,-31.3572 L -171.696,-31.2665
 L -171.544,-31.1558 L -171.407,-31.0268 L -171.286,-30.8817 L -171.186,-30.7226 L -171.105,-30.5522 L -171.047,-30.373
 L -171.012,-30.188 L -171,-30 L -171.012,-29.812 L -171.047,-29.627 L -171.105,-29.4478 L -171.186,-29.2774
 L -171.286,-29.1183 L -171.407,-28.9732 L -171.544,-28.8442 L -171.696,-28.7335 L -171.861,-28.6427 L -172.036,-28.5734
 L -172.219,-28.5266 L -172.406,-28.503 z
M 172.312,-19.5059 L 171.938,-19.5531 L 171.573,-19.6468 L 171.223,-19.7855 L 170.893,-19.967 L 170.588,-20.1884
 L 170.313,-20.4464 L 170.073,-20.7366 L 169.871,-21.0547 L 169.711,-21.3956 L 169.594,-21.7539 L 169.524,-22.124
 L 169.5,-22.5 L 169.524,-22.876 L 169.594,-23.2461 L 169.711,-23.6044 L 169.871,-23.9453 L 170.073,-24.2634
 L 170.313,-24.5536 L 170.588,-24.8115 L 170.893,-25.033 L 171.223,-25.2145 L 171.573,-25.3532 L 171.938,-25.4469
 L 172.312,-25.4941 L 172.688,-25.4941 L 173.062,-25.4469 L 173.427,-25.3532 L 173.777,-25.2145 L 174.107,-25.033
 L 174.412,-24.8115 L 174.687,-24.5536 L 174.927,-24.2634 L 175.129,-23.9453 L 175.289,-23.6044 L 175.406,-23.2461
 L 175.476,-22.876 L 175.5,-22.5 L 175.476,-22.124 L 175.406,-21.7539 L 175.289,-21.3956 L 175.129,-21.0547
 L 174.927,-20.7366 L 174.687,-20.4464 L 174.412,-20.1884 L 174.107,-19.967 L 173.777,-19.7855 L 173.427,-19.6468
 L 173.062,-19.5531 L 172.688,-19.5059 z
M -172.688,-19.5059 L -173.062,-19.5531 L -173.427,-19.6468 L -173.777,-19.7855 L -174.107,-19.967 L -174.412,-20.1884
 L -174.687,-20.4464 L -174.927,-20.7366 L -175.129,-21.0547 L -175.289,-21.3956 L -175.406,-21.7539 L -175.476,-22.124
 L -175.5,-22.5 L -175.476,-22.876 L -175.406,-23.2461 L -175.289,-23.6044 L -175.129,-23.9453 L -174.927,-24.2634
 L -174.687,-24.5536 L -174.412,-24.8115 L -174.107,-25.033 L -173.777,-25.2145 L -173.427,-25.3532 L -173.062,-25.4469
 L -172.688,-25.4941 L -172.312,-25.4941 L -171.938,-25.4469 L -171.573,-25.3532 L -171.223,-25.2145 L -170.893,-25.033
 L -170.588,-24.8115 L -170.313,-24.5536 L -170.073,-24.2634 L -169.871,-23.9453 L -169.711,-23.6044 L -169.594,-23.2461
 L -169.524,-22.876 L -169.5,-22.5 L -169.524,-22.124 L -169.594,-21.7539 L -169.711,-21.3956 L -169.871,-21.0547
 L -170.073,-20.7366 L -170.313,-20.4464 L -170.588,-20.1884 L -170.893,-19.967 L -171.223,-19.7855 L -171.573,-19.6468
 L -171.938,-19.5531 L -172.312,-19.5059 z
M -172.594,-13.5029 L -172.781,-13.5266 L -172.964,-13.5734 L -173.139,-13.6427 L -173.304,-13.7335 L -173.456,-13.8442
 L -173.593,-13.9732 L -173.714,-14.1183 L -173.814,-14.2774 L -173.895,-14.4478 L -173.953,-14.627 L -173.988,-14.812
 L -174,-15 L -173.988,-15.188 L -173.953,-15.373 L -173.895,-15.5522 L -173.814,-15.7226 L -173.714,-15.8817
 L -173.593,-16.0268 L -173.456,-16.1558 L -173.304,-16.2665 L -173.139,-16.3572 L -172.964,-16.4266 L -172.781,-16.4734
 L -172.594,-16.497 L -172.406,-16.497 L -172.219,-16.4734 L -172.036,-16.4266 L -171.861,-16.3572 L -171.696,-16.2665
 L -171.544,-16.1558 L -171.407,-16.0268 L -171.286,-15.8817 L -171.186,-15.7226 L -171.105,-15.5522 L -171.047,-15.373
 L -171.012,-15.188 L -171,-15 L -171.012,-14.812 L -171.047,-14.627 L -171.105,-14.4478 L -171.186,-14.2774
 L -171.286,-14.1183 L -171.407,-13.9732 L -171.544,-13.8442 L -171.696,-13.7335 L -171.861,-13.6427 L -172.036,-13.5734
 L -172.219,-13.5266 L -172.406,-13.5029 z
M 172.406,-13.5029 L 172.219,-13.5266 L 172.036,-13.5734 L 171.861,-13.6427 L 171.696,-13.7335 L 171.544,-13.8442
 L 171.407,-13.9732 L 171.286,-14.1183 L 171.186,-14.2774 L 171.105,-14.4478 L 171.047,-14.627 L 171.012,-14.812
 L 171,-15 L 171.012,-15.188 L 171.047,-15.373 L 171.105,-15.5522 L 171.186,-15.7226 L 171.286,-15.8817
 L 171.407,-16.0268 L 171.544,-16.1558 L 171.696,-16.2665 L 171.861,-16.3572 L 172.036,-16.4266 L 172.219,-16.4734
 L 172.406,-16.497 L 172.594,-16.497 L 172.781,-16.4734 L 172.964,-16.4266 L 173.139,-16.3572 L 173.304,-16.2665
 L 173.456,-16.1558 L 173.593,-16.0268 L 173.714,-15.8817 L 173.814,-15.7226 L 173.895,-15.5522 L 173.953,-15.373
 L 173.988,-15.188 L 174,-15 L 173.988,-14.812 L 173.953,-14.627 L 173.895,-14.4478 L 173.814,-14.2774
 L 173.714,-14.1183 L 173.593,-13.9732 L 173.456,-13.8442 L 173.304,-13.7335 L 173.139,-13.6427 L 172.964,-13.5734
 L 172.781,-13.5266 L 172.594,-13.5029 z
M -172.688,-4.50591 L -173.062,-4.55313 L -173.427,-4.64682 L -173.777,-4.78551 L -174.107,-4.96701 L -174.412,-5.18845
 L -174.687,-5.44635 L -174.927,-5.73663 L -175.129,-6.05473 L -175.289,-6.39561 L -175.406,-6.75392 L -175.476,-7.12399
 L -175.5,-7.5 L -175.476,-7.87599 L -175.406,-8.24606 L -175.289,-8.60437 L -175.129,-8.94525 L -174.927,-9.26335
 L -174.687,-9.55363 L -174.412,-9.81154 L -174.107,-10.033 L -173.777,-10.2145 L -173.427,-10.3532 L -173.062,-10.4469
 L -172.688,-10.4941 L -172.312,-10.4941 L -171.938,-10.4469 L -171.573,-10.3532 L -171.223,-10.2145 L -170.893,-10.033
 L -170.588,-9.81154 L -170.313,-9.55363 L -170.073,-9.26335 L -169.871,-8.94525 L -169.711,-8.60437 L -169.594,-8.24606
 L -169.524,-7.87599 L -169.5,-7.5 L -169.524,-7.12399 L -169.594,-6.75392 L -169.711,-6.39561 L -169.871,-6.05473
 L -170.073,-5.73663 L -170.313,-5.44635 L -170.588,-5.18845 L -170.893,-4.96701 L -171.223,-4.78551 L -171.573,-4.64682
 L -171.938,-4.55313 L -172.312,-4.50591 z
M 172.312,-4.50591 L 171.938,-4.55313 L 171.573,-4.64682 L 171.223,-4.78551 L 170.893,-4.96701 L 170.588,-5.18845
 L 170.313,-5.44635 L 170.073,-5.73663 L 169.871,-6.05473 L 169.711,-6.39561 L 169.594,-6.75392 L 169.524,-7.12399
 L 169.5,-7.5 L 169.524,-7.87599 L 169.594,-8.24606 L 169.711,-8.60437 L 169.871,-8.94525 L 170.073,-9.26335
 L 170.313,-9.55363 L 170.588,-9.81154 L 170.893,-10.033 L 171.223,-10.2145 L 171.573,-10.3532 L 171.938,-10.4469
 L 172.312,-10.4941 L 172.688,-10.4941 L 173.062,-10.4469 L 173.427,-10.3532 L 173.777,-10.2145 L 174.107,-10.033
 L 174.412,-9.81154 L 174.687,-9.55363 L 174.927,-9.26335 L 175.129,-8.94525 L 175.289,-8.60437 L 175.406,-8.24606
 L 175.476,-7.87599 L 175.5,-7.5 L 175.476,-7.12399 L 175.406,-6.75392 L 175.289,-6.39561 L 175.129,-6.05473
 L 174.927,-5.73663 L 174.687,-5.44635 L 174.412,-5.18845 L 174.107,-4.96701 L 173.777,-4.78551 L 173.427,-4.64682
 L 173.062,-4.55313 L 172.688,-4.50591 z
M 172.406,1.49704 L 172.219,1.47342 L 172.036,1.42657 L 171.861,1.35724 L 171.696,1.26648 L 171.544,1.15576
 L 171.407,1.02681 L 171.286,0.881668 L 171.186,0.722626 L 171.105,0.552185 L 171.047,0.373032 L 171.012,0.187988
 L 171,-0 L 171.012,-0.187988 L 171.047,-0.373032 L 171.105,-0.552185 L 171.186,-0.722626 L 171.286,-0.881668
 L 171.407,-1.02681 L 171.544,-1.15576 L 171.696,-1.26648 L 171.861,-1.35724 L 172.036,-1.42657 L 172.219,-1.47342
 L 172.406,-1.49704 L 172.594,-1.49704 L 172.781,-1.47342 L 172.964,-1.42657 L 173.139,-1.35724 L 173.304,-1.26648
 L 173.456,-1.15576 L 173.593,-1.02681 L 173.714,-0.881668 L 173.814,-0.722626 L 173.895,-0.552185 L 173.953,-0.373032
 L 173.988,-0.187988 L 174,-0 L 173.988,0.187988 L 173.953,0.373032 L 173.895,0.552185 L 173.814,0.722626
 L 173.714,0.881668 L 173.593,1.02681 L 173.456,1.15576 L 173.304,1.26648 L 173.139,1.35724 L 172.964,1.42657
 L 172.781,1.47342 L 172.594,1.49704 z
M -172.594,1.49704 L -172.781,1.47342 L -172.964,1.42657 L -173.139,1.35724 L -173.304,1.26648 L -173.456,1.15576
 L -173.593,1.02681 L -173.714,0.881668 L -173.814,0.722626 L -173.895,0.552185 L -173.953,0.373032 L -173.988,0.187988
 L -174,-0 L -173.988,-0.187988 L -173.953,-0.373032 L -173.895,-0.552185 L -173.814,-0.722626 L -173.714,-0.881668
 L -173.593,-1.02681 L -173.456,-1.15576 L -173.304,-1.26648 L -173.139,-1.35724 L -172.964,-1.42657 L -172.781,-1.47342
 L -172.594,-1.49704 L -172.406,-1.49704 L -172.219,-1.47342 L -172.036,-1.42657 L -171.861,-1.35724 L -171.696,-1.26648
 L -171.544,-1.15576 L -171.407,-1.02681 L -171.286,-0.881668 L -171.186,-0.722626 L -171.105,-0.552185 L -171.047,-0.373032
 L -171.012,-0.187988 L -171,-0 L -171.012,0.187988 L -171.047,0.373032 L -171.105,0.552185 L -171.186,0.722626
 L -171.286,0.881668 L -171.407,1.02681 L -171.544,1.15576 L -171.696,1.26648 L -171.861,1.35724 L -172.036,1.42657
 L -172.219,1.47342 L -172.406,1.49704 z
M -172.688,10.4941 L -173.062,10.4469 L -173.427,10.3532 L -173.777,10.2145 L -174.107,10.033 L -174.412,9.81154
 L -174.687,9.55363 L -174.927,9.26335 L -175.129,8.94525 L -175.289,8.60437 L -175.406,8.24606 L -175.476,7.87599
 L -175.5,7.5 L -175.476,7.12399 L -175.406,6.75392 L -175.289,6.39561 L -175.129,6.05473 L -174.927,5.73663
 L -174.687,5.44635 L -174.412,5.18845 L -174.107,4.96701 L -173.777,4.78551 L -173.427,4.64682 L -173.062,4.55313
 L -172.688,4.50591 L -172.312,4.50591 L -171.938,4.55313 L -171.573,4.64682 L -171.223,4.78551 L -170.893,4.96701
 L -170.588,5.18845 L -170.313,5.44635 L -170.073,5.73663 L -169.871,6.05473 L -169.711,6.39561 L -169.594,6.75392
 L -169.524,7.12399 L -169.5,7.5 L -169.524,7.87599 L -169.594,8.24606 L -169.711,8.60437 L -169.871,8.94525
 L -170.073,9.26335 L -170.313,9.55363 L -170.588,9.81154 L -170.893,10.033 L -171.223,10.2145 L -171.573,10.3532
 L -171.938,10.4469 L -172.312,10.4941 z
M 172.312,10.4941 L 171.938,10.4469 L 171.573,10.3532 L 171.223,10.2145 L 170.893,10.033 L 170.588,9.81154
 L 170.313,9.55363 L 170.073,9.26335 L 169.871,8.94525 L 169.711,8.60437 L 169.594,8.24606 L 169.524,7.87599
 L 169.5,7.5 L 169.524,7.12399 L 169.594,6.75392 L 169.711,6.39561 L 169.871,6.05473 L 170.073,5.73663
 L 170.313,5.44635 L 170.588,5.18845 L 170.893,4.96701 L 171.223,4.78551 L 171.573,4.64682 L 171.938,4.55313
 L 172.312,4.50591 L 172.688,4.50591 L 173.062,4.55313 L 173.427,4.64682 L 173.777,4.78551 L 174.107,4.96701
 L 174.412,5.18845 L 174.687,5.44635 L 174.927,5.73663 L 175.129,6.05473 L 175.289,6.39561 L 175.406,6.75392
 L 175.476,7.12399 L 175.5,7.5 L 175.476,7.87599 L 175.406,8.24606 L 175.289,8.60437 L 175.129,8.94525
 L 174.927,9.26335 L 174.687,9.55363 L 174.412,9.81154 L 174.107,10.033 L 173.777,10.2145 L 173.427,10.3532
 L 173.062,10.4469 L 172.688,10.4941 z
M 172.406,16.497 L 172.219,16.4734 L 172.036,16.4266 L 171.861,16.3572 L 171.696,16.2665 L 171.544,16.1558
 L 171.407,16.0268 L 171.286,15.8817 L 171.186,15.7226 L 171.105,15.5522 L 171.047,15.373 L 171.012,15.188
 L 171,15 L 171.012,14.812 L 171.047,14.627 L 171.105,14.4478 L 171.186,14.2774 L 171.286,14.1183
 L 171.407,13.9732 L 171.544,13.8442 L 171.696,13.7335 L 171.861,13.6427 L 172.036,13.5734 L 172.219,13.5266
 L 172.406,13.5029 L 172.594,13.5029 L 172.781,13.5266 L 172.964,13.5734 L 173.139,13.6427 L 173.304,13.7335
 L 173.456,13.8442 L 173.593,13.9732 L 173.714,14.1183 L 173.814,14.2774 L 173.895,14.4478 L 173.953,14.627
 L 173.988,14.812 L 174,15 L 173.988,15.188 L 173.953,15.373 L 173.895,15.5522 L 173.814,15.7226
 L 173.714,15.8817 L 173.593,16.0268 L 173.456,16.1558 L 173.304,16.2665 L 173.139,16.3572 L 172.964,16.4266
 L 172.781,16.4734 L 172.594,16.497 z
M -172.594,16.497 L -172.781,16.4734 L -172.964,16.4266 L -173.139,16.3572 L -173.304,16.2665 L -173.456,16.1558
 L -173.593,16.0268 L -173.714,15.8817 L -173.814,15.7226 L -173.895,15.5522 L -173.953,15.373 L -173.988,15.188
 L -174,15 L -173.988,14.812 L -173.953,14.627 L -173.895,14.4478 L -173.814,14.2774 L -173.714,14.1183
 L -173.593,13.9732 L -173.456,13.8442 L -173.304,13.7335 L -173.139,13.6427 L -172.964,13.5734 L -172.781,13.5266
 L -172.594,13.5029 L -172.406,13.5029 L -172.219,13.5266 L -172.036,13.5734 L -171.861,13.6427 L -171.696,13.7335
 L -171.544,13.8442 L -171.407,13.9732 L -171.286,14.1183 L -171.186,14.2774 L -171.105,14.4478 L -171.047,14.627
 L -171.012,14.812 L -171,15 L -171.012,15.188 L -171.047,15.373 L -171.105,15.5522 L -171.186,15.7226
 L -171.286,15.8817 L -171.407,16.0268 L -171.544,16.1558 L -171.696,16.2665 L -171.861,16.3572 L -172.036,16.4266
 L -172.219,16.4734 L -172.406,16.497 z
M 172.312,25.4941 L 171.938,25.4469 L 171.573,25.3532 L 171.223,25.2145 L 170.893,25.033 L 170.588,24.8115
 L 170.313,24.5536 L 170.073,24.2634 L 169.871,23.9453 L 169.711,23.6044 L 169.594,23.2461 L 169.524,22.876
 L 169.5,22.5 L 169.524,22.124 L 169.594,21.7539 L 169.711,21.3956 L 169.871,21.0547 L 170.073,20.7366
 L 170.313,20.4464 L 170.588,20.1884 L 170.893,19.967 L 171.223,19.7855 L 171.573,19.6468 L 171.938,19.5531
 L 172.312,19.5059 L 172.688,19.5059 L 173.062,19.5531 L 173.427,19.6468 L 173.777,19.7855 L 174.107,19.967
 L 174.412,20.1884 L 174.687,20.4464 L 174.927,20.7366 L 175.129,21.0547 L 175.289,21.3956 L 175.406,21.7539
 L 175.476,22.124 L 175.5,22.5 L 175.476,22.876 L 175.406,23.2461 L 175.289,23.6044 L 175.129,23.9453
 L 174.927,24.2634 L 174.687,24.5536 L 174.412,24.8115 L 174.107,25.033 L 173.777,25.2145 L 173.427,25.3532
 L 173.062,25.4469 L 172.688,25.4941 z
M -172.688,25.4941 L -173.062,25.4469 L -173.427,25.3532 L -173.777,25.2145 L -174.107,25.033 L -174.412,24.8115
 L -174.687,24.5536 L -174.927,24.2634 L -175.129,23.9453 L -175.289,23.6044 L -175.406,23.2461 L -175.476,22.876
 L -175.5,22.5 L -175.476,22.124 L -175.406,21.7539 L -175.289,21.3956 L -175.129,21.0547 L -174.927,20.7366
 L -174.687,20.4464 L -174.412,20.1884 L -174.107,19.967 L -173.777,19.7855 L -173.427,19.6468 L -173.062,19.5531
 L -172.688,19.5059 L -172.312,19.5059 L -171.938,19.5531 L -171.573,19.6468 L -171.223,19.7855 L -170.893,19.967
 L -170.588,20.1884 L -170.313,20.4464 L -170.073,20.7366 L -169.871,21.0547 L -169.711,21.3956 L -169.594,21.7539
 L -169.524,22.124 L -169.5,22.5 L -169.524,22.876 L -169.594,23.2461 L -169.711,23.6044 L -169.871,23.9453
 L -170.073,24.2634 L -170.313,24.5536 L -170.588,24.8115 L -170.893,25.033 L -171.223,25.2145 L -171.573,25.3532
 L -171.938,25.4469 L -172.312,25.4941 z
M -172.594,31.497 L -172.781,31.4734 L -172.964,31.4266 L -173.139,31.3572 L -173.304,31.2665 L -173.456,31.1558
 L -173.593,31.0268 L -173.714,30.8817 L -173.814,30.7226 L -173.895,30.5522 L -173.953,30.373 L -173.988,30.188
 L -174,30 L -173.988,29.812 L -173.953,29.627 L -173.895,29.4478 L -173.814,29.2774 L -173.714,29.1183
 L -173.593,28.9732 L -173.456,28.8442 L -173.304,28.7335 L -173.139,28.6427 L -172.964,28.5734 L -172.781,28.5266
 L -172.594,28.503 L -172.406,28.503 L -172.219,28.5266 L -172.036,28.5734 L -171.861,28.6427 L -171.696,28.7335
 L -171.544,28.8442 L -171.407,28.9732 L -171.286,29.1183 L -171.186,29.2774 L -171.105,29.4478 L -171.047,29.627
 L -171.012,29.812 L -171,30 L -171.012,30.188 L -171.047,30.373 L -171.105,30.5522 L -171.186,30.7226
 L -171.286,30.8817 L -171.407,31.0268 L -171.544,31.1558 L -171.696,31.2665 L -171.861,31.3572 L -172.036,31.4266
 L -172.219,31.4734 L -172.406,31.497 z
M 172.406,31.497 L 172.219,31.4734 L 172.036,31.4266 L 171.861,31.3572 L 171.696,31.2665 L 171.544,31.1558
 L 171.407,31.0268 L 171.286,30.8817 L 171.186,30.7226 L 171.105,30.5522 L 171.047,30.373 L 171.012,30.188
 L 171,30 L 171.012,29.812 L 171.047,29.627 L 171.105,29.4478 L 171.186,29.2774 L 171.286,29.1183
 L 171.407,28.9732 L 171.544,28.8442 L 171.696,28.7335 L 171.861,28.6427 L 172.036,28.5734 L 172.219,28.5266
 L 172.406,28.503 L 172.594,28.503 L 172.781,28.5266 L 172.964,28.5734 L 173.139,28.6427 L 173.304,28.7335
 L 173.456,28.8442 L 173.593,28.9732 L 173.714,29.1183 L 173.814,29.2774 L 173.895,29.4478 L 173.953,29.627
 L 173.988,29.812 L 174,30 L 173.988,30.188 L 173.953,30.373 L 173.895,30.5522 L 173.814,30.7226
 L 173.714,30.8817 L 173.593,31.0268 L 173.456,31.1558 L 173.304,31.2665 L 173.139,31.3572 L 172.964,31.4266
 L 172.781,31.4734 L 172.594,31.497 z
M -172.688,40.4941 L -173.062,40.4469 L -173.427,40.3532 L -173.777,40.2145 L -174.107,40.033 L -174.412,39.8115
 L -174.687,39.5536 L -174.927,39.2634 L -175.129,38.9453 L -175.289,38.6044 L -175.406,38.2461 L -175.476,37.876
 L -175.5,37.5 L -175.476,37.124 L -175.406,36.7539 L -175.289,36.3956 L -175.129,36.0547 L -174.927,35.7366
 L -174.687,35.4464 L -174.412,35.1885 L -174.107,34.967 L -173.777,34.7855 L -173.427,34.6468 L -173.062,34.5531
 L -172.688,34.5059 L -172.312,34.5059 L -171.938,34.5531 L -171.573,34.6468 L -171.223,34.7855 L -170.893,34.967
 L -170.588,35.1885 L -170.313,35.4464 L -170.073,35.7366 L -169.871,36.0547 L -169.711,36.3956 L -169.594,36.7539
 L -169.524,37.124 L -169.5,37.5 L -169.524,37.876 L -169.594,38.2461 L -169.711,38.6044 L -169.871,38.9453
 L -170.073,39.2634 L -170.313,39.5536 L -170.588,39.8115 L -170.893,40.033 L -171.223,40.2145 L -171.573,40.3532
 L -171.938,40.4469 L -172.312,40.4941 z
M 172.312,40.4941 L 171.938,40.4469 L 171.573,40.3532 L 171.223,40.2145 L 170.893,40.033 L 170.588,39.8115
 L 170.313,39.5536 L 170.073,39.2634 L 169.871,38.9453 L 169.711,38.6044 L 169.594,38.2461 L 169.524,37.876
 L 169.5,37.5 L 169.524,37.124 L 169.594,36.7539 L 169.711,36.3956 L 169.871,36.0547 L 170.073,35.7366
 L 170.313,35.4464 L 170.588,35.1885 L 170.893,34.967 L 171.223,34.7855 L 171.573,34.6468 L 171.938,34.5531
 L 172.312,34.5059 L 172.688,34.5059 L 173.062,34.5531 L 173.427,34.6468 L 173.777,34.7855 L 174.107,34.967
 L 174.412,35.1885 L 174.687,35.4464 L 174.927,35.7366 L 175.129,36.0547 L 175.289,36.3956 L 175.406,36.7539
 L 175.476,37.124 L 175.5,37.5 L 175.476,37.876 L 175.406,38.2461 L 175.289,38.6044 L 175.129,38.9453
 L 174.927,39.2634 L 174.687,39.5536 L 174.412,39.8115 L 174.107,40.033 L 173.777,40.2145 L 173.427,40.3532
 L 173.062,40.4469 L 172.688,40.4941 z
M -172.594,46.497 L -172.781,46.4734 L -172.964,46.4266 L -173.139,46.3572 L -173.304,46.2665 L -173.456,46.1558
 L -173.593,46.0268 L -173.714,45.8817 L -173.814,45.7226 L -173.895,45.5522 L -173.953,45.373 L -173.988,45.188
 L -174,45 L -173.988,44.812 L -173.953,44.627 L -173.895,44.4478 L -173.814,44.2774 L -173.714,44.1183
 L -173.593,43.9732 L -173.456,43.8442 L -173.304,43.7335 L -173.139,43.6428 L -172.964,43.5734 L -172.781,43.5266
 L -172.594,43.503 L -172.406,43.503 L -172.219,43.5266 L -172.036,43.5734 L -171.861,43.6428 L -171.696,43.7335
 L -171.544,43.8442 L -171.407,43.9732 L -171.286,44.1183 L -171.186,44.2774 L -171.105,44.4478 L -171.047,44.627
 L -171.012,44.812 L -171,45 L -171.012,45.188 L -171.047,45.373 L -171.105,45.5522 L -171.186,45.7226
 L -171.286,45.8817 L -171.407,46.0268 L -171.544,46.1558 L -171.696,46.2665 L -171.861,46.3572 L -172.036,46.4266
 L -172.219,46.4734 L -172.406,46.497 z
M 172.406,46.497 L 172.219,46.4734 L 172.036,46.4266 L 171.861,46.3572 L 171.696,46.2665 L 171.544,46.1558
 L 171.407,46.0268 L 171.286,45.8817 L 171.186,45.7226 L 171.105,45.5522 L 171.047,45.373 L 171.012,45.188
 L 171,45 L 171.012,44.812 L 171.047,44.627 L 171.105,44.4478 L 171.186,44.2774 L 171.286,44.1183
 L 171.407,43.9732 L 171.544,43.8442 L 171.696,43.7335 L 171.861,43.6428 L 172.036,43.5734 L 172.219,43.5266
 L 172.406,43.503 L 172.594,43.503 L 172.781,43.5266 L 172.964,43.5734 L 173.139,43.6428 L 173.304,43.7335
 L 173.456,43.8442 L 173.593,43.9732 L 173.714,44.1183 L 173.814,44.2774 L 173.895,44.4478 L 173.953,44.627
 L 173.988,44.812 L 174,45 L 173.988,45.188 L 173.953,45.373 L 173.895,45.5522 L 173.814,45.7226
 L 173.714,45.8817 L 173.593,46.0268 L 173.456,46.1558 L 173.304,46.2665 L 173.139,46.3572 L 172.964,46.4266
 L 172.781,46.4734 L 172.594,46.497 z
M 172.312,55.4941 L 171.938,55.4469 L 171.573,55.3532 L 171.223,55.2145 L 170.893,55.033 L 170.588,54.8115
 L 170.313,54.5536 L 170.073,54.2634 L 169.871,53.9453 L 169.711,53.6044 L 169.594,53.2461 L 169.524,52.876
 L 169.5,52.5 L 169.524,52.124 L 169.594,51.7539 L 169.711,51.3956 L 169.871,51.0547 L 170.073,50.7366
 L 170.313,50.4464 L 170.588,50.1885 L 170.893,49.967 L 171.223,49.7855 L 171.573,49.6468 L 171.938,49.5531
 L 172.312,49.5059 L 172.688,49.5059 L 173.062,49.5531 L 173.427,49.6468 L 173.777,49.7855 L 174.107,49.967
 L 174.412,50.1885 L 174.687,50.4464 L 174.927,50.7366 L 175.129,51.0547 L 175.289,51.3956 L 175.406,51.7539
 L 175.476,52.124 L 175.5,52.5 L 175.476,52.876 L 175.406,53.2461 L 175.289,53.6044 L 175.129,53.9453
 L 174.927,54.2634 L 174.687,54.5536 L 174.412,54.8115 L 174.107,55.033 L 173.777,55.2145 L 173.427,55.3532
 L 173.062,55.4469 L 172.688,55.4941 z
M -172.688,55.4941 L -173.062,55.4469 L -173.427,55.3532 L -173.777,55.2145 L -174.107,55.033 L -174.412,54.8115
 L -174.687,54.5536 L -174.927,54.2634 L -175.129,53.9453 L -175.289,53.6044 L -175.406,53.2461 L -175.476,52.876
 L -175.5,52.5 L -175.476,52.124 L -175.406,51.7539 L -175.289,51.3956 L -175.129,51.0547 L -174.927,50.7366
 L -174.687,50.4464 L -174.412,50.1885 L -174.107,49.967 L -173.777,49.7855 L -173.427,49.6468 L -173.062,49.5531
 L -172.688,49.5059 L -172.312,49.5059 L -171.938,49.5531 L -171.573,49.6468 L -171.223,49.7855 L -170.893,49.967
 L -170.588,50.1885 L -170.313,50.4464 L -170.073,50.7366 L -169.871,51.0547 L -169.711,51.3956 L -169.594,51.7539
 L -169.524,52.124 L -169.5,52.5 L -169.524,52.876 L -169.594,53.2461 L -169.711,53.6044 L -169.871,53.9453
 L -170.073,54.2634 L -170.313,54.5536 L -170.588,54.8115 L -170.893,55.033 L -171.223,55.2145 L -171.573,55.3532
 L -171.938,55.4469 L -172.312,55.4941 z
" stroke="black" fill="lightgray" stroke-width="0.5"/>
</svg>
