<?xml version="1.0" standalone="no"?>
<!DOCTYPE svg PUBLIC "-//W3C//DTD SVG 1.1//EN" "http://www.w3.org/Graphics/SVG/1.1/DTD/svg11.dtd">
<svg width="90mm" height="90mm" viewBox="-45 -45 90 90" xmlns="http://www.w3.org/2000/svg" version="1.1">
<title>OpenSCAD Model</title>
<path d="
M 40.4369,44.4114 L 41.0451,44.2553 L 41.6289,44.0241 L 42.1791,43.7216 L 42.6871,43.3526 L 43.1448,42.9227
 L 43.5451,42.4389 L 43.8815,41.9088 L 44.1489,41.3406 L 44.3429,40.7434 L 44.4606,40.1267 L 44.5,39.5
 L 44.5,-39.5 L 44.4606,-40.1267 L 44.3429,-40.7434 L 44.1489,-41.3406 L 43.8815,-41.9088 L 43.5451,-42.4389
 L 43.1448,-42.9227 L 42.6871,-43.3526 L 42.1791,-43.7216 L 41.6289,-44.0241 L 41.0451,-44.2553 L 40.4369,-44.4114
 L 39.8139,-44.4901 L -39.8139,-44.4901 L -40.4369,-44.4114 L -41.0451,-44.2553 L -41.6289,-44.0241 L -42.1791,-43.7216
 L -42.6871,-43.3526 L -43.1448,-42.9227 L -43.5451,-42.4389 L -43.8815,-41.9088 L -44.1489,-41.3406 L -44.3429,-40.7434
 L -44.4606,-40.1267 L -44.5,-39.5 L -44.5,39.5 L -44.4606,40.1267 L -44.3429,40.7434 L -44.1489,41.3406
 L -43.8815,41.9088 L -43.5451,42.4389 L -43.1448,42.9227 L -42.6871,43.3526 L -42.1791,43.7216 L -41.6289,44.0241
 L -41.0451,44.2553 L -40.4369,44.4114 L -39.8139,44.4901 L 39.8139,44.4901 z
M -37.6884,-34.5059 L -38.0621,-34.5531 L -38.427,-34.6468 L -38.7773,-34.7855 L -39.1075,-34.967 L -39.4123,-35.1885
 L -39.6869,-35.4464 L -39.927,-35.7366 L -40.1289,-36.0547 L -40.2893,-36.3956 L -40.4057,-36.7539 L -40.4763,-37.124
 L -40.5,-37.5 L -40.4763,-37.876 L -40.4057,-38.2461 L -40.2893,-38.6044 L -40.1289,-38.9453 L -39.927,-39.2634
 L -39.6869,-39.5536 L -39.4123,-39.8115 L -39.1075,-40.033 L -38.7773,-40.2145 L -38.427,-40.3532 L -38.0621,-40.4469
 L -37.6884,-40.4941 L -37.3116,-40.4941 L -36.9379,-40.4469 L -36.5729,-40.3532 L -36.2227,-40.2145 L -35.8925,-40.033
 L -35.5877,-39.8115 L -35.3131,-39.5536 L -35.0729,-39.2634 L -34.8711,-38.9453 L -34.7107,-38.6044 L -34.5942,-38.2461
 L -34.5237,-37.876 L -34.5,-37.5 L -34.5237,-37.124 L -34.5942,-36.7539 L -34.7107,-36.3956 L -34.8711,-36.0547
 L -35.0729,-35.7366 L -35.3131,-35.4464 L -35.5877,-35.1885 L -35.8925,-34.967 L -36.2227,-34.7855 L -36.5729,-34.6468
 L -36.9379,-34.5531 L -37.3116,-34.5059 z
M 37.3116,-34.5059 L 36.9379,-34.5531 L 36.5729,-34.6468 L 36.2227,-34.7855 L 35.8925,-34.967 L 35.5877,-35.1885
 L 35.3131,-35.4464 L 35.0729,-35.7366 L 34.8711,-36.0547 L 34.7107,-36.3956 L 34.5942,-36.7539 L 34.5237,-37.124
 L 34.5,-37.5 L 34.5237,-37.876 L 34.5942,-38.2461 L 34.7107,-38.6044 L 34.8711,-38.9453 L 35.0729,-39.2634
 L 35.3131,-39.5536 L 35.5877,-39.8115 L 35.8925,-40.033 L 36.2227,-40.2145 L 36.5729,-40.3532 L 36.9379,-40.4469
 L 37.3116,-40.4941 L 37.6884,-40.4941 L 38.0621,-40.4469 L 38.427,-40.3532 L 38.7773,-40.2145 L 39.1075,-40.033
 L 39.4123,-39.8115 L 39.6869,-39.5536 L 39.927,-39.2634 L 40.1289,-38.9453 L 40.2893,-38.6044 L 40.4057,-38.2461
 L 40.4763,-37.876 L 40.5,-37.5 L 40.4763,-37.124 L 40.4057,-36.7539 L 40.2893,-36.3956 L 40.1289,-36.0547
 L 39.927,-35.7366 L 39.6869,-35.4464 L 39.4123,-35.1885 L 39.1075,-34.967 L 38.7773,-34.7855 L 38.427,-34.6468
 L 38.0621,-34.5531 L 37.6884,-34.5059 z
M -2.19766,34.9309 L -6.55833,34.3801 L -10.8156,33.287 L -14.9023,31.6689 L -18.7539,29.5515 L -22.3098,26.968
 L -25.5139,23.9591 L -28.3156,20.5725 L -30.6707,16.8614 L -32.5422,12.8844 L -33.9004,8.70413 L -34.724,4.38666
 L -35,-0 L -34.724,-4.38666 L -33.9004,-8.70413 L -32.5422,-12.8844 L -30.6707,-16.8614 L -28.3156,-20.5725
 L -25.5139,-23.9591 L -22.3098,-26.968 L -18.7539,-29.5515 L -14.9023,-31.6689 L -10.8156,-33.287 L -6.55833,-34.3801
 L -2.19766,-34.9309 L 2.19766,-34.9309 L 6.55833,-34.3801 L 10.8156,-33.287 L 14.9023,-31.6689 L 18.7539,-29.5515
 L 22.3098,-26.968 L 25.5139,-23.9591 L 28.3156,-20.5725 L 30.6707,-16.8614 L 32.5422,-12.8844 L 33.9004,-8.70413
 L 34.724,-4.38666 L 35,-0 L 34.724,4.38666 L 33.9004,8.70413 L 32.5422,12.8844 L 30.6707,16.8614
 L 28.3156,20.5725 L 25.5139,23.9591 L 22.3098,26.968 L 18.7539,29.5515 L 14.9023,31.6689 L 10.8156,33.287
 L 6.55833,34.3801 L 2.19766,34.9309 z
M 37.3116,40.4941 L 36.9379,40.4469 L 36.5729,40.3532 L 36.2227,40.2145 L 35.8925,40.033 L 35.5877,39.8115
 L 35.3131,39.5536 L 35.0729,39.2634 L 34.8711,38.9453 L 34.7107,38.6044 L 34.5942,38.2461 L 34.5237,37.876
 L 34.5,37.5 L 34.5237,37.124 L 34.5942,36.7539 L 34.7107,36.3956 L 34.8711,36.0547 L 35.0729,35.7366
 L 35.3131,35.4464 L 35.5877,35.1885 L 35.8925,34.967 L 36.2227,34.7855 L 36.5729,34.6468 L 36.9379,34.5531
 L 37.3116,34.5059 L 37.6884,34.5059 L 38.0621,34.5531 L 38.427,34.6468 L 38.7773,34.7855 L 39.1075,34.967
 L 39.4123,35.1885 L 39.6869,35.4464 L 39.927,35.7366 L 40.1289,36.0547 L 40.2893,36.3956 L 40.4057,36.7539
 L 40.4763,37.124 L 40.5,37.5 L 40.4763,37.876 L 40.4057,38.2461 L 40.2893,38.6044 L 40.1289,38.9453
 L 39.927,39.2634 L 39.6869,39.5536 L 39.4123,39.8115 L 39.1075,40.033 L 38.7773,40.2145 L 38.427,40.3532
 L 38.0621,40.4469 L 37.6884,40.4941 z
M -37.6884,40.4941 L -38.0621,40.4469 L -38.427,40.3532 L -38.7773,40.2145 L -39.1075,40.033 L -39.4123,39.8115
 L -39.6869,39.5536 L -39.927,39.2634 L -40.1289,38.9453 L -40.2893,38.6044 L -40.4057,38.2461 L -40.4763,37.876
 L -40.5,37.5 L -40.4763,37.124 L -40.4057,36.7539 L -40.2893,36.3956 L -40.1289,36.0547 L -39.927,35.7366
 L -39.6869,35.4464 L -39.4123,35.1885 L -39.1075,34.967 L -38.7773,34.7855 L -38.427,34.6468 L -38.0621,34.5531
 L -37.6884,34.5059 L -37.3116,34.5059 L -36.9379,34.5531 L -36.5729,34.6468 L -36.2227,34.7855 L -35.8925,34.967
 L -35.5877,35.1885 L -35.3131,35.4464 L -35.0729,35.7366 L -34.8711,36.0547 L -34.7107,36.3956 L -34.5942,36.7539
 L -34.5237,37.124 L -34.5,37.5 L -34.5237,37.876 L -34.5942,38.2461 L -34.7107,38.6044 L -34.8711,38.9453
 L -35.0729,39.2634 L -35.3131,39.5536 L -35.5877,39.8115 L -35.8925,40.033 L -36.2227,40.2145 L -36.5729,40.3532
 L -36.9379,40.4469 L -37.3116,40.4941 z
" stroke="black" fill="lightgray" stroke-width="0.5"/>
</svg>
