  0
SECTION
  2
BLOCKS
  0
ENDSEC
  0
SECTION
  2
ENTITIES
  0
LINE
  8
0
 10
55.4369
 20
-14.4114
 11
56.0451
 21
-14.2553
  0
LINE
  8
0
 10
56.0451
 20
-14.2553
 11
56.6289
 21
-14.0241
  0
LINE
  8
0
 10
56.6289
 20
-14.0241
 11
57.1791
 21
-13.7216
  0
LINE
  8
0
 10
57.1791
 20
-13.7216
 11
57.6871
 21
-13.3526
  0
LINE
  8
0
 10
57.6871
 20
-13.3526
 11
58.1448
 21
-12.9227
  0
LINE
  8
0
 10
58.1448
 20
-12.9227
 11
58.5451
 21
-12.4389
  0
LINE
  8
0
 10
58.5451
 20
-12.4389
 11
58.8815
 21
-11.9088
  0
LINE
  8
0
 10
58.8815
 20
-11.9088
 11
59.1489
 21
-11.3406
  0
LINE
  8
0
 10
59.1489
 20
-11.3406
 11
59.3429
 21
-10.7434
  0
LINE
  8
0
 10
59.3429
 20
-10.7434
 11
59.4606
 21
-10.1267
  0
LINE
  8
0
 10
59.4606
 20
-10.1267
 11
59.5
 21
-9.5
  0
LINE
  8
0
 10
59.5
 20
-9.5
 11
59.5
 21
9.5
  0
LINE
  8
0
 10
59.5
 20
9.5
 11
59.4606
 21
10.1267
  0
LINE
  8
0
 10
59.4606
 20
10.1267
 11
59.3429
 21
10.7434
  0
LINE
  8
0
 10
59.3429
 20
10.7434
 11
59.1489
 21
11.3406
  0
LINE
  8
0
 10
59.1489
 20
11.3406
 11
58.8815
 21
11.9088
  0
LINE
  8
0
 10
58.8815
 20
11.9088
 11
58.5451
 21
12.4389
  0
LINE
  8
0
 10
58.5451
 20
12.4389
 11
58.1448
 21
12.9227
  0
LINE
  8
0
 10
58.1448
 20
12.9227
 11
57.6871
 21
13.3526
  0
LINE
  8
0
 10
57.6871
 20
13.3526
 11
57.1791
 21
13.7216
  0
LINE
  8
0
 10
57.1791
 20
13.7216
 11
56.6289
 21
14.0241
  0
LINE
  8
0
 10
56.6289
 20
14.0241
 11
56.0451
 21
14.2553
  0
LINE
  8
0
 10
56.0451
 20
14.2553
 11
55.4369
 21
14.4114
  0
LINE
  8
0
 10
55.4369
 20
14.4114
 11
54.8139
 21
14.4901
  0
LINE
  8
0
 10
54.8139
 20
14.4901
 11
-54.8139
 21
14.4901
  0
LINE
  8
0
 10
-54.8139
 20
14.4901
 11
-55.4369
 21
14.4114
  0
LINE
  8
0
 10
-55.4369
 20
14.4114
 11
-56.0451
 21
14.2553
  0
LINE
  8
0
 10
-56.0451
 20
14.2553
 11
-56.6289
 21
14.0241
  0
LINE
  8
0
 10
-56.6289
 20
14.0241
 11
-57.1791
 21
13.7216
  0
LINE
  8
0
 10
-57.1791
 20
13.7216
 11
-57.6871
 21
13.3526
  0
LINE
  8
0
 10
-57.6871
 20
13.3526
 11
-58.1448
 21
12.9227
  0
LINE
  8
0
 10
-58.1448
 20
12.9227
 11
-58.5451
 21
12.4389
  0
LINE
  8
0
 10
-58.5451
 20
12.4389
 11
-58.8815
 21
11.9088
  0
LINE
  8
0
 10
-58.8815
 20
11.9088
 11
-59.1489
 21
11.3406
  0
LINE
  8
0
 10
-59.1489
 20
11.3406
 11
-59.3429
 21
10.7434
  0
LINE
  8
0
 10
-59.3429
 20
10.7434
 11
-59.4606
 21
10.1267
  0
LINE
  8
0
 10
-59.4606
 20
10.1267
 11
-59.5
 21
9.5
  0
LINE
  8
0
 10
-59.5
 20
9.5
 11
-59.5
 21
-9.5
  0
LINE
  8
0
 10
-59.5
 20
-9.5
 11
-59.4606
 21
-10.1267
  0
LINE
  8
0
 10
-59.4606
 20
-10.1267
 11
-59.3429
 21
-10.7434
  0
LINE
  8
0
 10
-59.3429
 20
-10.7434
 11
-59.1489
 21
-11.3406
  0
LINE
  8
0
 10
-59.1489
 20
-11.3406
 11
-58.8815
 21
-11.9088
  0
LINE
  8
0
 10
-58.8815
 20
-11.9088
 11
-58.5451
 21
-12.4389
  0
LINE
  8
0
 10
-58.5451
 20
-12.4389
 11
-58.1448
 21
-12.9227
  0
LINE
  8
0
 10
-58.1448
 20
-12.9227
 11
-57.6871
 21
-13.3526
  0
LINE
  8
0
 10
-57.6871
 20
-13.3526
 11
-57.1791
 21
-13.7216
  0
LINE
  8
0
 10
-57.1791
 20
-13.7216
 11
-56.6289
 21
-14.0241
  0
LINE
  8
0
 10
-56.6289
 20
-14.0241
 11
-56.0451
 21
-14.2553
  0
LINE
  8
0
 10
-56.0451
 20
-14.2553
 11
-55.4369
 21
-14.4114
  0
LINE
  8
0
 10
-55.4369
 20
-14.4114
 11
-54.8139
 21
-14.4901
  0
LINE
  8
0
 10
-54.8139
 20
-14.4901
 11
54.8139
 21
-14.4901
  0
LINE
  8
0
 10
54.8139
 20
-14.4901
 11
55.4369
 21
-14.4114
  0
LINE
  8
0
 10
39.8093
 20
-10.9783
 11
38.4388
 21
-10.8051
  0
LINE
  8
0
 10
38.4388
 20
-10.8051
 11
37.1008
 21
-10.4616
  0
LINE
  8
0
 10
37.1008
 20
-10.4616
 11
35.8164
 21
-9.95309
  0
LINE
  8
0
 10
35.8164
 20
-9.95309
 11
34.6059
 21
-9.2876
  0
LINE
  8
0
 10
34.6059
 20
-9.2876
 11
33.4883
 21
-8.47563
  0
LINE
  8
0
 10
33.4883
 20
-8.47563
 11
32.4813
 21
-7.53001
  0
LINE
  8
0
 10
32.4813
 20
-7.53001
 11
31.6008
 21
-6.46564
  0
LINE
  8
0
 10
31.6008
 20
-6.46564
 11
30.8606
 21
-5.29929
  0
LINE
  8
0
 10
30.8606
 20
-5.29929
 11
30.2724
 21
-4.04936
  0
LINE
  8
0
 10
30.2724
 20
-4.04936
 11
29.8456
 21
-2.73558
  0
LINE
  8
0
 10
29.8456
 20
-2.73558
 11
29.5867
 21
-1.37866
  0
LINE
  8
0
 10
29.5867
 20
-1.37866
 11
29.5
 21
0
  0
LINE
  8
0
 10
29.5
 20
0
 11
29.5867
 21
1.37866
  0
LINE
  8
0
 10
29.5867
 20
1.37866
 11
29.8456
 21
2.73558
  0
LINE
  8
0
 10
29.8456
 20
2.73558
 11
30.2724
 21
4.04936
  0
LINE
  8
0
 10
30.2724
 20
4.04936
 11
30.8606
 21
5.29929
  0
LINE
  8
0
 10
30.8606
 20
5.29929
 11
31.6008
 21
6.46564
  0
LINE
  8
0
 10
31.6008
 20
6.46564
 11
32.4813
 21
7.53001
  0
LINE
  8
0
 10
32.4813
 20
7.53001
 11
33.4883
 21
8.47563
  0
LINE
  8
0
 10
33.4883
 20
8.47563
 11
34.6059
 21
9.2876
  0
LINE
  8
0
 10
34.6059
 20
9.2876
 11
35.8164
 21
9.95309
  0
LINE
  8
0
 10
35.8164
 20
9.95309
 11
37.1008
 21
10.4616
  0
LINE
  8
0
 10
37.1008
 20
10.4616
 11
38.4388
 21
10.8051
  0
LINE
  8
0
 10
38.4388
 20
10.8051
 11
39.8093
 21
10.9783
  0
LINE
  8
0
 10
39.8093
 20
10.9783
 11
41.1907
 21
10.9783
  0
LINE
  8
0
 10
41.1907
 20
10.9783
 11
42.5612
 21
10.8051
  0
LINE
  8
0
 10
42.5612
 20
10.8051
 11
43.8992
 21
10.4616
  0
LINE
  8
0
 10
43.8992
 20
10.4616
 11
45.1836
 21
9.95309
  0
LINE
  8
0
 10
45.1836
 20
9.95309
 11
46.3941
 21
9.2876
  0
LINE
  8
0
 10
46.3941
 20
9.2876
 11
47.5117
 21
8.47563
  0
LINE
  8
0
 10
47.5117
 20
8.47563
 11
48.5186
 21
7.53001
  0
LINE
  8
0
 10
48.5186
 20
7.53001
 11
49.3992
 21
6.46564
  0
LINE
  8
0
 10
49.3992
 20
6.46564
 11
50.1394
 21
5.29929
  0
LINE
  8
0
 10
50.1394
 20
5.29929
 11
50.7275
 21
4.04936
  0
LINE
  8
0
 10
50.7275
 20
4.04936
 11
51.1544
 21
2.73558
  0
LINE
  8
0
 10
51.1544
 20
2.73558
 11
51.4133
 21
1.37866
  0
LINE
  8
0
 10
51.4133
 20
1.37866
 11
51.5
 21
0
  0
LINE
  8
0
 10
51.5
 20
0
 11
51.4133
 21
-1.37866
  0
LINE
  8
0
 10
51.4133
 20
-1.37866
 11
51.1544
 21
-2.73558
  0
LINE
  8
0
 10
51.1544
 20
-2.73558
 11
50.7275
 21
-4.04936
  0
LINE
  8
0
 10
50.7275
 20
-4.04936
 11
50.1394
 21
-5.29929
  0
LINE
  8
0
 10
50.1394
 20
-5.29929
 11
49.3992
 21
-6.46564
  0
LINE
  8
0
 10
49.3992
 20
-6.46564
 11
48.5186
 21
-7.53001
  0
LINE
  8
0
 10
48.5186
 20
-7.53001
 11
47.5117
 21
-8.47563
  0
LINE
  8
0
 10
47.5117
 20
-8.47563
 11
46.3941
 21
-9.2876
  0
LINE
  8
0
 10
46.3941
 20
-9.2876
 11
45.1836
 21
-9.95309
  0
LINE
  8
0
 10
45.1836
 20
-9.95309
 11
43.8992
 21
-10.4616
  0
LINE
  8
0
 10
43.8992
 20
-10.4616
 11
42.5612
 21
-10.8051
  0
LINE
  8
0
 10
42.5612
 20
-10.8051
 11
41.1907
 21
-10.9783
  0
LINE
  8
0
 10
41.1907
 20
-10.9783
 11
39.8093
 21
-10.9783
  0
LINE
  8
0
 10
-41.1907
 20
-10.9783
 11
-42.5612
 21
-10.8051
  0
LINE
  8
0
 10
-42.5612
 20
-10.8051
 11
-43.8992
 21
-10.4616
  0
LINE
  8
0
 10
-43.8992
 20
-10.4616
 11
-45.1836
 21
-9.95309
  0
LINE
  8
0
 10
-45.1836
 20
-9.95309
 11
-46.3941
 21
-9.2876
  0
LINE
  8
0
 10
-46.3941
 20
-9.2876
 11
-47.5117
 21
-8.47563
  0
LINE
  8
0
 10
-47.5117
 20
-8.47563
 11
-48.5186
 21
-7.53001
  0
LINE
  8
0
 10
-48.5186
 20
-7.53001
 11
-49.3992
 21
-6.46564
  0
LINE
  8
0
 10
-49.3992
 20
-6.46564
 11
-50.1394
 21
-5.29929
  0
LINE
  8
0
 10
-50.1394
 20
-5.29929
 11
-50.7275
 21
-4.04936
  0
LINE
  8
0
 10
-50.7275
 20
-4.04936
 11
-51.1544
 21
-2.73558
  0
LINE
  8
0
 10
-51.1544
 20
-2.73558
 11
-51.4133
 21
-1.37866
  0
LINE
  8
0
 10
-51.4133
 20
-1.37866
 11
-51.5
 21
0
  0
LINE
  8
0
 10
-51.5
 20
0
 11
-51.4133
 21
1.37866
  0
LINE
  8
0
 10
-51.4133
 20
1.37866
 11
-51.1544
 21
2.73558
  0
LINE
  8
0
 10
-51.1544
 20
2.73558
 11
-50.7275
 21
4.04936
  0
LINE
  8
0
 10
-50.7275
 20
4.04936
 11
-50.1394
 21
5.29929
  0
LINE
  8
0
 10
-50.1394
 20
5.29929
 11
-49.3992
 21
6.46564
  0
LINE
  8
0
 10
-49.3992
 20
6.46564
 11
-48.5186
 21
7.53001
  0
LINE
  8
0
 10
-48.5186
 20
7.53001
 11
-47.5117
 21
8.47563
  0
LINE
  8
0
 10
-47.5117
 20
8.47563
 11
-46.3941
 21
9.2876
  0
LINE
  8
0
 10
-46.3941
 20
9.2876
 11
-45.1836
 21
9.95309
  0
LINE
  8
0
 10
-45.1836
 20
9.95309
 11
-43.8992
 21
10.4616
  0
LINE
  8
0
 10
-43.8992
 20
10.4616
 11
-42.5612
 21
10.8051
  0
LINE
  8
0
 10
-42.5612
 20
10.8051
 11
-41.1907
 21
10.9783
  0
LINE
  8
0
 10
-41.1907
 20
10.9783
 11
-39.8093
 21
10.9783
  0
LINE
  8
0
 10
-39.8093
 20
10.9783
 11
-38.4388
 21
10.8051
  0
LINE
  8
0
 10
-38.4388
 20
10.8051
 11
-37.1008
 21
10.4616
  0
LINE
  8
0
 10
-37.1008
 20
10.4616
 11
-35.8164
 21
9.95309
  0
LINE
  8
0
 10
-35.8164
 20
9.95309
 11
-34.6059
 21
9.2876
  0
LINE
  8
0
 10
-34.6059
 20
9.2876
 11
-33.4883
 21
8.47563
  0
LINE
  8
0
 10
-33.4883
 20
8.47563
 11
-32.4813
 21
7.53001
  0
LINE
  8
0
 10
-32.4813
 20
7.53001
 11
-31.6008
 21
6.46564
  0
LINE
  8
0
 10
-31.6008
 20
6.46564
 11
-30.8606
 21
5.29929
  0
LINE
  8
0
 10
-30.8606
 20
5.29929
 11
-30.2724
 21
4.04936
  0
LINE
  8
0
 10
-30.2724
 20
4.04936
 11
-29.8456
 21
2.73558
  0
LINE
  8
0
 10
-29.8456
 20
2.73558
 11
-29.5867
 21
1.37866
  0
LINE
  8
0
 10
-29.5867
 20
1.37866
 11
-29.5
 21
0
  0
LINE
  8
0
 10
-29.5
 20
0
 11
-29.5867
 21
-1.37866
  0
LINE
  8
0
 10
-29.5867
 20
-1.37866
 11
-29.8456
 21
-2.73558
  0
LINE
  8
0
 10
-29.8456
 20
-2.73558
 11
-30.2724
 21
-4.04936
  0
LINE
  8
0
 10
-30.2724
 20
-4.04936
 11
-30.8606
 21
-5.29929
  0
LINE
  8
0
 10
-30.8606
 20
-5.29929
 11
-31.6008
 21
-6.46564
  0
LINE
  8
0
 10
-31.6008
 20
-6.46564
 11
-32.4813
 21
-7.53001
  0
LINE
  8
0
 10
-32.4813
 20
-7.53001
 11
-33.4883
 21
-8.47563
  0
LINE
  8
0
 10
-33.4883
 20
-8.47563
 11
-34.6059
 21
-9.2876
  0
LINE
  8
0
 10
-34.6059
 20
-9.2876
 11
-35.8164
 21
-9.95309
  0
LINE
  8
0
 10
-35.8164
 20
-9.95309
 11
-37.1008
 21
-10.4616
  0
LINE
  8
0
 10
-37.1008
 20
-10.4616
 11
-38.4388
 21
-10.8051
  0
LINE
  8
0
 10
-38.4388
 20
-10.8051
 11
-39.8093
 21
-10.9783
  0
LINE
  8
0
 10
-39.8093
 20
-10.9783
 11
-41.1907
 21
-10.9783
  0
LINE
  8
0
 10
12.8093
 20
-10.9783
 11
11.4388
 21
-10.8051
  0
LINE
  8
0
 10
11.4388
 20
-10.8051
 11
10.1008
 21
-10.4616
  0
LINE
  8
0
 10
10.1008
 20
-10.4616
 11
8.81642
 21
-9.95309
  0
LINE
  8
0
 10
8.81642
 20
-9.95309
 11
7.6059
 21
-9.2876
  0
LINE
  8
0
 10
7.6059
 20
-9.2876
 11
6.48833
 21
-8.47563
  0
LINE
  8
0
 10
6.48833
 20
-8.47563
 11
5.48134
 21
-7.53001
  0
LINE
  8
0
 10
5.48134
 20
-7.53001
 11
4.6008
 21
-6.46564
  0
LINE
  8
0
 10
4.6008
 20
-6.46564
 11
3.86063
 21
-5.29929
  0
LINE
  8
0
 10
3.86063
 20
-5.29929
 11
3.27245
 21
-4.04936
  0
LINE
  8
0
 10
3.27245
 20
-4.04936
 11
2.84558
 21
-2.73558
  0
LINE
  8
0
 10
2.84558
 20
-2.73558
 11
2.58673
 21
-1.37866
  0
LINE
  8
0
 10
2.58673
 20
-1.37866
 11
2.5
 21
0
  0
LINE
  8
0
 10
2.5
 20
0
 11
2.58673
 21
1.37866
  0
LINE
  8
0
 10
2.58673
 20
1.37866
 11
2.84558
 21
2.73558
  0
LINE
  8
0
 10
2.84558
 20
2.73558
 11
3.27245
 21
4.04936
  0
LINE
  8
0
 10
3.27245
 20
4.04936
 11
3.86063
 21
5.29929
  0
LINE
  8
0
 10
3.86063
 20
5.29929
 11
4.6008
 21
6.46564
  0
LINE
  8
0
 10
4.6008
 20
6.46564
 11
5.48134
 21
7.53001
  0
LINE
  8
0
 10
5.48134
 20
7.53001
 11
6.48833
 21
8.47563
  0
LINE
  8
0
 10
6.48833
 20
8.47563
 11
7.6059
 21
9.2876
  0
LINE
  8
0
 10
7.6059
 20
9.2876
 11
8.81642
 21
9.95309
  0
LINE
  8
0
 10
8.81642
 20
9.95309
 11
10.1008
 21
10.4616
  0
LINE
  8
0
 10
10.1008
 20
10.4616
 11
11.4388
 21
10.8051
  0
LINE
  8
0
 10
11.4388
 20
10.8051
 11
12.8093
 21
10.9783
  0
LINE
  8
0
 10
12.8093
 20
10.9783
 11
14.1907
 21
10.9783
  0
LINE
  8
0
 10
14.1907
 20
10.9783
 11
15.5612
 21
10.8051
  0
LINE
  8
0
 10
15.5612
 20
10.8051
 11
16.8992
 21
10.4616
  0
LINE
  8
0
 10
16.8992
 20
10.4616
 11
18.1836
 21
9.95309
  0
LINE
  8
0
 10
18.1836
 20
9.95309
 11
19.3941
 21
9.2876
  0
LINE
  8
0
 10
19.3941
 20
9.2876
 11
20.5117
 21
8.47563
  0
LINE
  8
0
 10
20.5117
 20
8.47563
 11
21.5186
 21
7.53001
  0
LINE
  8
0
 10
21.5186
 20
7.53001
 11
22.3992
 21
6.46564
  0
LINE
  8
0
 10
22.3992
 20
6.46564
 11
23.1394
 21
5.29929
  0
LINE
  8
0
 10
23.1394
 20
5.29929
 11
23.7275
 21
4.04936
  0
LINE
  8
0
 10
23.7275
 20
4.04936
 11
24.1544
 21
2.73558
  0
LINE
  8
0
 10
24.1544
 20
2.73558
 11
24.4133
 21
1.37866
  0
LINE
  8
0
 10
24.4133
 20
1.37866
 11
24.5
 21
0
  0
LINE
  8
0
 10
24.5
 20
0
 11
24.4133
 21
-1.37866
  0
LINE
  8
0
 10
24.4133
 20
-1.37866
 11
24.1544
 21
-2.73558
  0
LINE
  8
0
 10
24.1544
 20
-2.73558
 11
23.7275
 21
-4.04936
  0
LINE
  8
0
 10
23.7275
 20
-4.04936
 11
23.1394
 21
-5.29929
  0
LINE
  8
0
 10
23.1394
 20
-5.29929
 11
22.3992
 21
-6.46564
  0
LINE
  8
0
 10
22.3992
 20
-6.46564
 11
21.5186
 21
-7.53001
  0
LINE
  8
0
 10
21.5186
 20
-7.53001
 11
20.5117
 21
-8.47563
  0
LINE
  8
0
 10
20.5117
 20
-8.47563
 11
19.3941
 21
-9.2876
  0
LINE
  8
0
 10
19.3941
 20
-9.2876
 11
18.1836
 21
-9.95309
  0
LINE
  8
0
 10
18.1836
 20
-9.95309
 11
16.8992
 21
-10.4616
  0
LINE
  8
0
 10
16.8992
 20
-10.4616
 11
15.5612
 21
-10.8051
  0
LINE
  8
0
 10
15.5612
 20
-10.8051
 11
14.1907
 21
-10.9783
  0
LINE
  8
0
 10
14.1907
 20
-10.9783
 11
12.8093
 21
-10.9783
  0
LINE
  8
0
 10
-14.1907
 20
-10.9783
 11
-15.5612
 21
-10.8051
  0
LINE
  8
0
 10
-15.5612
 20
-10.8051
 11
-16.8992
 21
-10.4616
  0
LINE
  8
0
 10
-16.8992
 20
-10.4616
 11
-18.1836
 21
-9.95309
  0
LINE
  8
0
 10
-18.1836
 20
-9.95309
 11
-19.3941
 21
-9.2876
  0
LINE
  8
0
 10
-19.3941
 20
-9.2876
 11
-20.5117
 21
-8.47563
  0
LINE
  8
0
 10
-20.5117
 20
-8.47563
 11
-21.5186
 21
-7.53001
  0
LINE
  8
0
 10
-21.5186
 20
-7.53001
 11
-22.3992
 21
-6.46564
  0
LINE
  8
0
 10
-22.3992
 20
-6.46564
 11
-23.1394
 21
-5.29929
  0
LINE
  8
0
 10
-23.1394
 20
-5.29929
 11
-23.7275
 21
-4.04936
  0
LINE
  8
0
 10
-23.7275
 20
-4.04936
 11
-24.1544
 21
-2.73558
  0
LINE
  8
0
 10
-24.1544
 20
-2.73558
 11
-24.4133
 21
-1.37866
  0
LINE
  8
0
 10
-24.4133
 20
-1.37866
 11
-24.5
 21
0
  0
LINE
  8
0
 10
-24.5
 20
0
 11
-24.4133
 21
1.37866
  0
LINE
  8
0
 10
-24.4133
 20
1.37866
 11
-24.1544
 21
2.73558
  0
LINE
  8
0
 10
-24.1544
 20
2.73558
 11
-23.7275
 21
4.04936
  0
LINE
  8
0
 10
-23.7275
 20
4.04936
 11
-23.1394
 21
5.29929
  0
LINE
  8
0
 10
-23.1394
 20
5.29929
 11
-22.3992
 21
6.46564
  0
LINE
  8
0
 10
-22.3992
 20
6.46564
 11
-21.5186
 21
7.53001
  0
LINE
  8
0
 10
-21.5186
 20
7.53001
 11
-20.5117
 21
8.47563
  0
LINE
  8
0
 10
-20.5117
 20
8.47563
 11
-19.3941
 21
9.2876
  0
LINE
  8
0
 10
-19.3941
 20
9.2876
 11
-18.1836
 21
9.95309
  0
LINE
  8
0
 10
-18.1836
 20
9.95309
 11
-16.8992
 21
10.4616
  0
LINE
  8
0
 10
-16.8992
 20
10.4616
 11
-15.5612
 21
10.8051
  0
LINE
  8
0
 10
-15.5612
 20
10.8051
 11
-14.1907
 21
10.9783
  0
LINE
  8
0
 10
-14.1907
 20
10.9783
 11
-12.8093
 21
10.9783
  0
LINE
  8
0
 10
-12.8093
 20
10.9783
 11
-11.4388
 21
10.8051
  0
LINE
  8
0
 10
-11.4388
 20
10.8051
 11
-10.1008
 21
10.4616
  0
LINE
  8
0
 10
-10.1008
 20
10.4616
 11
-8.81642
 21
9.95309
  0
LINE
  8
0
 10
-8.81642
 20
9.95309
 11
-7.6059
 21
9.2876
  0
LINE
  8
0
 10
-7.6059
 20
9.2876
 11
-6.48833
 21
8.47563
  0
LINE
  8
0
 10
-6.48833
 20
8.47563
 11
-5.48134
 21
7.53001
  0
LINE
  8
0
 10
-5.48134
 20
7.53001
 11
-4.6008
 21
6.46564
  0
LINE
  8
0
 10
-4.6008
 20
6.46564
 11
-3.86063
 21
5.29929
  0
LINE
  8
0
 10
-3.86063
 20
5.29929
 11
-3.27245
 21
4.04936
  0
LINE
  8
0
 10
-3.27245
 20
4.04936
 11
-2.84558
 21
2.73558
  0
LINE
  8
0
 10
-2.84558
 20
2.73558
 11
-2.58673
 21
1.37866
  0
LINE
  8
0
 10
-2.58673
 20
1.37866
 11
-2.5
 21
0
  0
LINE
  8
0
 10
-2.5
 20
0
 11
-2.58673
 21
-1.37866
  0
LINE
  8
0
 10
-2.58673
 20
-1.37866
 11
-2.84558
 21
-2.73558
  0
LINE
  8
0
 10
-2.84558
 20
-2.73558
 11
-3.27245
 21
-4.04936
  0
LINE
  8
0
 10
-3.27245
 20
-4.04936
 11
-3.86063
 21
-5.29929
  0
LINE
  8
0
 10
-3.86063
 20
-5.29929
 11
-4.6008
 21
-6.46564
  0
LINE
  8
0
 10
-4.6008
 20
-6.46564
 11
-5.48134
 21
-7.53001
  0
LINE
  8
0
 10
-5.48134
 20
-7.53001
 11
-6.48833
 21
-8.47563
  0
LINE
  8
0
 10
-6.48833
 20
-8.47563
 11
-7.6059
 21
-9.2876
  0
LINE
  8
0
 10
-7.6059
 20
-9.2876
 11
-8.81642
 21
-9.95309
  0
LINE
  8
0
 10
-8.81642
 20
-9.95309
 11
-10.1008
 21
-10.4616
  0
LINE
  8
0
 10
-10.1008
 20
-10.4616
 11
-11.4388
 21
-10.8051
  0
LINE
  8
0
 10
-11.4388
 20
-10.8051
 11
-12.8093
 21
-10.9783
  0
LINE
  8
0
 10
-12.8093
 20
-10.9783
 11
-14.1907
 21
-10.9783
  0
LINE
  8
0
 10
-52.6884
 20
4.50591
 11
-53.0621
 21
4.55313
  0
LINE
  8
0
 10
-53.0621
 20
4.55313
 11
-53.427
 21
4.64682
  0
LINE
  8
0
 10
-53.427
 20
4.64682
 11
-53.7773
 21
4.78551
  0
LINE
  8
0
 10
-53.7773
 20
4.78551
 11
-54.1075
 21
4.96701
  0
LINE
  8
0
 10
-54.1075
 20
4.96701
 11
-54.4123
 21
5.18845
  0
LINE
  8
0
 10
-54.4123
 20
5.18845
 11
-54.6869
 21
5.44635
  0
LINE
  8
0
 10
-54.6869
 20
5.44635
 11
-54.927
 21
5.73663
  0
LINE
  8
0
 10
-54.927
 20
5.73663
 11
-55.1289
 21
6.05473
  0
LINE
  8
0
 10
-55.1289
 20
6.05473
 11
-55.2893
 21
6.39561
  0
LINE
  8
0
 10
-55.2893
 20
6.39561
 11
-55.4057
 21
6.75392
  0
LINE
  8
0
 10
-55.4057
 20
6.75392
 11
-55.4763
 21
7.12399
  0
LINE
  8
0
 10
-55.4763
 20
7.12399
 11
-55.5
 21
7.5
  0
LINE
  8
0
 10
-55.5
 20
7.5
 11
-55.4763
 21
7.87599
  0
LINE
  8
0
 10
-55.4763
 20
7.87599
 11
-55.4057
 21
8.24606
  0
LINE
  8
0
 10
-55.4057
 20
8.24606
 11
-55.2893
 21
8.60437
  0
LINE
  8
0
 10
-55.2893
 20
8.60437
 11
-55.1289
 21
8.94525
  0
LINE
  8
0
 10
-55.1289
 20
8.94525
 11
-54.927
 21
9.26335
  0
LINE
  8
0
 10
-54.927
 20
9.26335
 11
-54.6869
 21
9.55363
  0
LINE
  8
0
 10
-54.6869
 20
9.55363
 11
-54.4123
 21
9.81154
  0
LINE
  8
0
 10
-54.4123
 20
9.81154
 11
-54.1075
 21
10.033
  0
LINE
  8
0
 10
-54.1075
 20
10.033
 11
-53.7773
 21
10.2145
  0
LINE
  8
0
 10
-53.7773
 20
10.2145
 11
-53.427
 21
10.3532
  0
LINE
  8
0
 10
-53.427
 20
10.3532
 11
-53.0621
 21
10.4469
  0
LINE
  8
0
 10
-53.0621
 20
10.4469
 11
-52.6884
 21
10.4941
  0
LINE
  8
0
 10
-52.6884
 20
10.4941
 11
-52.3116
 21
10.4941
  0
LINE
  8
0
 10
-52.3116
 20
10.4941
 11
-51.9379
 21
10.4469
  0
LINE
  8
0
 10
-51.9379
 20
10.4469
 11
-51.5729
 21
10.3532
  0
LINE
  8
0
 10
-51.5729
 20
10.3532
 11
-51.2227
 21
10.2145
  0
LINE
  8
0
 10
-51.2227
 20
10.2145
 11
-50.8925
 21
10.033
  0
LINE
  8
0
 10
-50.8925
 20
10.033
 11
-50.5877
 21
9.81154
  0
LINE
  8
0
 10
-50.5877
 20
9.81154
 11
-50.3131
 21
9.55363
  0
LINE
  8
0
 10
-50.3131
 20
9.55363
 11
-50.0729
 21
9.26335
  0
LINE
  8
0
 10
-50.0729
 20
9.26335
 11
-49.8711
 21
8.94525
  0
LINE
  8
0
 10
-49.8711
 20
8.94525
 11
-49.7107
 21
8.60437
  0
LINE
  8
0
 10
-49.7107
 20
8.60437
 11
-49.5942
 21
8.24606
  0
LINE
  8
0
 10
-49.5942
 20
8.24606
 11
-49.5237
 21
7.87599
  0
LINE
  8
0
 10
-49.5237
 20
7.87599
 11
-49.5
 21
7.5
  0
LINE
  8
0
 10
-49.5
 20
7.5
 11
-49.5237
 21
7.12399
  0
LINE
  8
0
 10
-49.5237
 20
7.12399
 11
-49.5942
 21
6.75392
  0
LINE
  8
0
 10
-49.5942
 20
6.75392
 11
-49.7107
 21
6.39561
  0
LINE
  8
0
 10
-49.7107
 20
6.39561
 11
-49.8711
 21
6.05473
  0
LINE
  8
0
 10
-49.8711
 20
6.05473
 11
-50.0729
 21
5.73663
  0
LINE
  8
0
 10
-50.0729
 20
5.73663
 11
-50.3131
 21
5.44635
  0
LINE
  8
0
 10
-50.3131
 20
5.44635
 11
-50.5877
 21
5.18845
  0
LINE
  8
0
 10
-50.5877
 20
5.18845
 11
-50.8925
 21
4.96701
  0
LINE
  8
0
 10
-50.8925
 20
4.96701
 11
-51.2227
 21
4.78551
  0
LINE
  8
0
 10
-51.2227
 20
4.78551
 11
-51.5729
 21
4.64682
  0
LINE
  8
0
 10
-51.5729
 20
4.64682
 11
-51.9379
 21
4.55313
  0
LINE
  8
0
 10
-51.9379
 20
4.55313
 11
-52.3116
 21
4.50591
  0
LINE
  8
0
 10
-52.3116
 20
4.50591
 11
-52.6884
 21
4.50591
  0
LINE
  8
0
 10
52.3116
 20
4.50591
 11
51.9379
 21
4.55313
  0
LINE
  8
0
 10
51.9379
 20
4.55313
 11
51.5729
 21
4.64682
  0
LINE
  8
0
 10
51.5729
 20
4.64682
 11
51.2227
 21
4.78551
  0
LINE
  8
0
 10
51.2227
 20
4.78551
 11
50.8925
 21
4.96701
  0
LINE
  8
0
 10
50.8925
 20
4.96701
 11
50.5877
 21
5.18845
  0
LINE
  8
0
 10
50.5877
 20
5.18845
 11
50.3131
 21
5.44635
  0
LINE
  8
0
 10
50.3131
 20
5.44635
 11
50.0729
 21
5.73663
  0
LINE
  8
0
 10
50.0729
 20
5.73663
 11
49.8711
 21
6.05473
  0
LINE
  8
0
 10
49.8711
 20
6.05473
 11
49.7107
 21
6.39561
  0
LINE
  8
0
 10
49.7107
 20
6.39561
 11
49.5942
 21
6.75392
  0
LINE
  8
0
 10
49.5942
 20
6.75392
 11
49.5237
 21
7.12399
  0
LINE
  8
0
 10
49.5237
 20
7.12399
 11
49.5
 21
7.5
  0
LINE
  8
0
 10
49.5
 20
7.5
 11
49.5237
 21
7.87599
  0
LINE
  8
0
 10
49.5237
 20
7.87599
 11
49.5942
 21
8.24606
  0
LINE
  8
0
 10
49.5942
 20
8.24606
 11
49.7107
 21
8.60437
  0
LINE
  8
0
 10
49.7107
 20
8.60437
 11
49.8711
 21
8.94525
  0
LINE
  8
0
 10
49.8711
 20
8.94525
 11
50.0729
 21
9.26335
  0
LINE
  8
0
 10
50.0729
 20
9.26335
 11
50.3131
 21
9.55363
  0
LINE
  8
0
 10
50.3131
 20
9.55363
 11
50.5877
 21
9.81154
  0
LINE
  8
0
 10
50.5877
 20
9.81154
 11
50.8925
 21
10.033
  0
LINE
  8
0
 10
50.8925
 20
10.033
 11
51.2227
 21
10.2145
  0
LINE
  8
0
 10
51.2227
 20
10.2145
 11
51.5729
 21
10.3532
  0
LINE
  8
0
 10
51.5729
 20
10.3532
 11
51.9379
 21
10.4469
  0
LINE
  8
0
 10
51.9379
 20
10.4469
 11
52.3116
 21
10.4941
  0
LINE
  8
0
 10
52.3116
 20
10.4941
 11
52.6884
 21
10.4941
  0
LINE
  8
0
 10
52.6884
 20
10.4941
 11
53.0621
 21
10.4469
  0
LINE
  8
0
 10
53.0621
 20
10.4469
 11
53.427
 21
10.3532
  0
LINE
  8
0
 10
53.427
 20
10.3532
 11
53.7773
 21
10.2145
  0
LINE
  8
0
 10
53.7773
 20
10.2145
 11
54.1075
 21
10.033
  0
LINE
  8
0
 10
54.1075
 20
10.033
 11
54.4123
 21
9.81154
  0
LINE
  8
0
 10
54.4123
 20
9.81154
 11
54.6869
 21
9.55363
  0
LINE
  8
0
 10
54.6869
 20
9.55363
 11
54.927
 21
9.26335
  0
LINE
  8
0
 10
54.927
 20
9.26335
 11
55.1289
 21
8.94525
  0
LINE
  8
0
 10
55.1289
 20
8.94525
 11
55.2893
 21
8.60437
  0
LINE
  8
0
 10
55.2893
 20
8.60437
 11
55.4057
 21
8.24606
  0
LINE
  8
0
 10
55.4057
 20
8.24606
 11
55.4763
 21
7.87599
  0
LINE
  8
0
 10
55.4763
 20
7.87599
 11
55.5
 21
7.5
  0
LINE
  8
0
 10
55.5
 20
7.5
 11
55.4763
 21
7.12399
  0
LINE
  8
0
 10
55.4763
 20
7.12399
 11
55.4057
 21
6.75392
  0
LINE
  8
0
 10
55.4057
 20
6.75392
 11
55.2893
 21
6.39561
  0
LINE
  8
0
 10
55.2893
 20
6.39561
 11
55.1289
 21
6.05473
  0
LINE
  8
0
 10
55.1289
 20
6.05473
 11
54.927
 21
5.73663
  0
LINE
  8
0
 10
54.927
 20
5.73663
 11
54.6869
 21
5.44635
  0
LINE
  8
0
 10
54.6869
 20
5.44635
 11
54.4123
 21
5.18845
  0
LINE
  8
0
 10
54.4123
 20
5.18845
 11
54.1075
 21
4.96701
  0
LINE
  8
0
 10
54.1075
 20
4.96701
 11
53.7773
 21
4.78551
  0
LINE
  8
0
 10
53.7773
 20
4.78551
 11
53.427
 21
4.64682
  0
LINE
  8
0
 10
53.427
 20
4.64682
 11
53.0621
 21
4.55313
  0
LINE
  8
0
 10
53.0621
 20
4.55313
 11
52.6884
 21
4.50591
  0
LINE
  8
0
 10
52.6884
 20
4.50591
 11
52.3116
 21
4.50591
  0
LINE
  8
0
 10
52.3116
 20
-10.4941
 11
51.9379
 21
-10.4469
  0
LINE
  8
0
 10
51.9379
 20
-10.4469
 11
51.5729
 21
-10.3532
  0
LINE
  8
0
 10
51.5729
 20
-10.3532
 11
51.2227
 21
-10.2145
  0
LINE
  8
0
 10
51.2227
 20
-10.2145
 11
50.8925
 21
-10.033
  0
LINE
  8
0
 10
50.8925
 20
-10.033
 11
50.5877
 21
-9.81154
  0
LINE
  8
0
 10
50.5877
 20
-9.81154
 11
50.3131
 21
-9.55363
  0
LINE
  8
0
 10
50.3131
 20
-9.55363
 11
50.0729
 21
-9.26335
  0
LINE
  8
0
 10
50.0729
 20
-9.26335
 11
49.8711
 21
-8.94525
  0
LINE
  8
0
 10
49.8711
 20
-8.94525
 11
49.7107
 21
-8.60437
  0
LINE
  8
0
 10
49.7107
 20
-8.60437
 11
49.5942
 21
-8.24606
  0
LINE
  8
0
 10
49.5942
 20
-8.24606
 11
49.5237
 21
-7.87599
  0
LINE
  8
0
 10
49.5237
 20
-7.87599
 11
49.5
 21
-7.5
  0
LINE
  8
0
 10
49.5
 20
-7.5
 11
49.5237
 21
-7.12399
  0
LINE
  8
0
 10
49.5237
 20
-7.12399
 11
49.5942
 21
-6.75392
  0
LINE
  8
0
 10
49.5942
 20
-6.75392
 11
49.7107
 21
-6.39561
  0
LINE
  8
0
 10
49.7107
 20
-6.39561
 11
49.8711
 21
-6.05473
  0
LINE
  8
0
 10
49.8711
 20
-6.05473
 11
50.0729
 21
-5.73663
  0
LINE
  8
0
 10
50.0729
 20
-5.73663
 11
50.3131
 21
-5.44635
  0
LINE
  8
0
 10
50.3131
 20
-5.44635
 11
50.5877
 21
-5.18845
  0
LINE
  8
0
 10
50.5877
 20
-5.18845
 11
50.8925
 21
-4.96701
  0
LINE
  8
0
 10
50.8925
 20
-4.96701
 11
51.2227
 21
-4.78551
  0
LINE
  8
0
 10
51.2227
 20
-4.78551
 11
51.5729
 21
-4.64682
  0
LINE
  8
0
 10
51.5729
 20
-4.64682
 11
51.9379
 21
-4.55313
  0
LINE
  8
0
 10
51.9379
 20
-4.55313
 11
52.3116
 21
-4.50591
  0
LINE
  8
0
 10
52.3116
 20
-4.50591
 11
52.6884
 21
-4.50591
  0
LINE
  8
0
 10
52.6884
 20
-4.50591
 11
53.0621
 21
-4.55313
  0
LINE
  8
0
 10
53.0621
 20
-4.55313
 11
53.427
 21
-4.64682
  0
LINE
  8
0
 10
53.427
 20
-4.64682
 11
53.7773
 21
-4.78551
  0
LINE
  8
0
 10
53.7773
 20
-4.78551
 11
54.1075
 21
-4.96701
  0
LINE
  8
0
 10
54.1075
 20
-4.96701
 11
54.4123
 21
-5.18845
  0
LINE
  8
0
 10
54.4123
 20
-5.18845
 11
54.6869
 21
-5.44635
  0
LINE
  8
0
 10
54.6869
 20
-5.44635
 11
54.927
 21
-5.73663
  0
LINE
  8
0
 10
54.927
 20
-5.73663
 11
55.1289
 21
-6.05473
  0
LINE
  8
0
 10
55.1289
 20
-6.05473
 11
55.2893
 21
-6.39561
  0
LINE
  8
0
 10
55.2893
 20
-6.39561
 11
55.4057
 21
-6.75392
  0
LINE
  8
0
 10
55.4057
 20
-6.75392
 11
55.4763
 21
-7.12399
  0
LINE
  8
0
 10
55.4763
 20
-7.12399
 11
55.5
 21
-7.5
  0
LINE
  8
0
 10
55.5
 20
-7.5
 11
55.4763
 21
-7.87599
  0
LINE
  8
0
 10
55.4763
 20
-7.87599
 11
55.4057
 21
-8.24606
  0
LINE
  8
0
 10
55.4057
 20
-8.24606
 11
55.2893
 21
-8.60437
  0
LINE
  8
0
 10
55.2893
 20
-8.60437
 11
55.1289
 21
-8.94525
  0
LINE
  8
0
 10
55.1289
 20
-8.94525
 11
54.927
 21
-9.26335
  0
LINE
  8
0
 10
54.927
 20
-9.26335
 11
54.6869
 21
-9.55363
  0
LINE
  8
0
 10
54.6869
 20
-9.55363
 11
54.4123
 21
-9.81154
  0
LINE
  8
0
 10
54.4123
 20
-9.81154
 11
54.1075
 21
-10.033
  0
LINE
  8
0
 10
54.1075
 20
-10.033
 11
53.7773
 21
-10.2145
  0
LINE
  8
0
 10
53.7773
 20
-10.2145
 11
53.427
 21
-10.3532
  0
LINE
  8
0
 10
53.427
 20
-10.3532
 11
53.0621
 21
-10.4469
  0
LINE
  8
0
 10
53.0621
 20
-10.4469
 11
52.6884
 21
-10.4941
  0
LINE
  8
0
 10
52.6884
 20
-10.4941
 11
52.3116
 21
-10.4941
  0
LINE
  8
0
 10
-52.6884
 20
-10.4941
 11
-53.0621
 21
-10.4469
  0
LINE
  8
0
 10
-53.0621
 20
-10.4469
 11
-53.427
 21
-10.3532
  0
LINE
  8
0
 10
-53.427
 20
-10.3532
 11
-53.7773
 21
-10.2145
  0
LINE
  8
0
 10
-53.7773
 20
-10.2145
 11
-54.1075
 21
-10.033
  0
LINE
  8
0
 10
-54.1075
 20
-10.033
 11
-54.4123
 21
-9.81154
  0
LINE
  8
0
 10
-54.4123
 20
-9.81154
 11
-54.6869
 21
-9.55363
  0
LINE
  8
0
 10
-54.6869
 20
-9.55363
 11
-54.927
 21
-9.26335
  0
LINE
  8
0
 10
-54.927
 20
-9.26335
 11
-55.1289
 21
-8.94525
  0
LINE
  8
0
 10
-55.1289
 20
-8.94525
 11
-55.2893
 21
-8.60437
  0
LINE
  8
0
 10
-55.2893
 20
-8.60437
 11
-55.4057
 21
-8.24606
  0
LINE
  8
0
 10
-55.4057
 20
-8.24606
 11
-55.4763
 21
-7.87599
  0
LINE
  8
0
 10
-55.4763
 20
-7.87599
 11
-55.5
 21
-7.5
  0
LINE
  8
0
 10
-55.5
 20
-7.5
 11
-55.4763
 21
-7.12399
  0
LINE
  8
0
 10
-55.4763
 20
-7.12399
 11
-55.4057
 21
-6.75392
  0
LINE
  8
0
 10
-55.4057
 20
-6.75392
 11
-55.2893
 21
-6.39561
  0
LINE
  8
0
 10
-55.2893
 20
-6.39561
 11
-55.1289
 21
-6.05473
  0
LINE
  8
0
 10
-55.1289
 20
-6.05473
 11
-54.927
 21
-5.73663
  0
LINE
  8
0
 10
-54.927
 20
-5.73663
 11
-54.6869
 21
-5.44635
  0
LINE
  8
0
 10
-54.6869
 20
-5.44635
 11
-54.4123
 21
-5.18845
  0
LINE
  8
0
 10
-54.4123
 20
-5.18845
 11
-54.1075
 21
-4.96701
  0
LINE
  8
0
 10
-54.1075
 20
-4.96701
 11
-53.7773
 21
-4.78551
  0
LINE
  8
0
 10
-53.7773
 20
-4.78551
 11
-53.427
 21
-4.64682
  0
LINE
  8
0
 10
-53.427
 20
-4.64682
 11
-53.0621
 21
-4.55313
  0
LINE
  8
0
 10
-53.0621
 20
-4.55313
 11
-52.6884
 21
-4.50591
  0
LINE
  8
0
 10
-52.6884
 20
-4.50591
 11
-52.3116
 21
-4.50591
  0
LINE
  8
0
 10
-52.3116
 20
-4.50591
 11
-51.9379
 21
-4.55313
  0
LINE
  8
0
 10
-51.9379
 20
-4.55313
 11
-51.5729
 21
-4.64682
  0
LINE
  8
0
 10
-51.5729
 20
-4.64682
 11
-51.2227
 21
-4.78551
  0
LINE
  8
0
 10
-51.2227
 20
-4.78551
 11
-50.8925
 21
-4.96701
  0
LINE
  8
0
 10
-50.8925
 20
-4.96701
 11
-50.5877
 21
-5.18845
  0
LINE
  8
0
 10
-50.5877
 20
-5.18845
 11
-50.3131
 21
-5.44635
  0
LINE
  8
0
 10
-50.3131
 20
-5.44635
 11
-50.0729
 21
-5.73663
  0
LINE
  8
0
 10
-50.0729
 20
-5.73663
 11
-49.8711
 21
-6.05473
  0
LINE
  8
0
 10
-49.8711
 20
-6.05473
 11
-49.7107
 21
-6.39561
  0
LINE
  8
0
 10
-49.7107
 20
-6.39561
 11
-49.5942
 21
-6.75392
  0
LINE
  8
0
 10
-49.5942
 20
-6.75392
 11
-49.5237
 21
-7.12399
  0
LINE
  8
0
 10
-49.5237
 20
-7.12399
 11
-49.5
 21
-7.5
  0
LINE
  8
0
 10
-49.5
 20
-7.5
 11
-49.5237
 21
-7.87599
  0
LINE
  8
0
 10
-49.5237
 20
-7.87599
 11
-49.5942
 21
-8.24606
  0
LINE
  8
0
 10
-49.5942
 20
-8.24606
 11
-49.7107
 21
-8.60437
  0
LINE
  8
0
 10
-49.7107
 20
-8.60437
 11
-49.8711
 21
-8.94525
  0
LINE
  8
0
 10
-49.8711
 20
-8.94525
 11
-50.0729
 21
-9.26335
  0
LINE
  8
0
 10
-50.0729
 20
-9.26335
 11
-50.3131
 21
-9.55363
  0
LINE
  8
0
 10
-50.3131
 20
-9.55363
 11
-50.5877
 21
-9.81154
  0
LINE
  8
0
 10
-50.5877
 20
-9.81154
 11
-50.8925
 21
-10.033
  0
LINE
  8
0
 10
-50.8925
 20
-10.033
 11
-51.2227
 21
-10.2145
  0
LINE
  8
0
 10
-51.2227
 20
-10.2145
 11
-51.5729
 21
-10.3532
  0
LINE
  8
0
 10
-51.5729
 20
-10.3532
 11
-51.9379
 21
-10.4469
  0
LINE
  8
0
 10
-51.9379
 20
-10.4469
 11
-52.3116
 21
-10.4941
  0
LINE
  8
0
 10
-52.3116
 20
-10.4941
 11
-52.6884
 21
-10.4941
  0
ENDSEC
  0
SECTION
  2
OBJECTS
  0
DICTIONARY
  0
ENDSEC
  0
EOF
