<?xml version="1.0" standalone="no"?>
<!DOCTYPE svg PUBLIC "-//W3C//DTD SVG 1.1//EN" "http://www.w3.org/Graphics/SVG/1.1/DTD/svg11.dtd">
<svg width="60mm" height="60mm" viewBox="-30 -99 60 60" xmlns="http://www.w3.org/2000/svg" version="1.1">
<title>OpenSCAD Model</title>
<path d="
M 25.4369,-39.5886 L 26.0451,-39.7447 L 26.6289,-39.9759 L 27.1791,-40.2784 L 27.6871,-40.6474 L 28.1448,-41.0773
 L 28.5451,-41.5611 L 28.8815,-42.0912 L 29.1489,-42.6594 L 29.3429,-43.2566 L 29.4606,-43.8733 L 29.5,-44.5
 L 29.5,-93.5 L 29.4606,-94.1267 L 29.3429,-94.7434 L 29.1489,-95.3406 L 28.8815,-95.9088 L 28.5451,-96.4389
 L 28.1448,-96.9227 L 27.6871,-97.3526 L 27.1791,-97.7216 L 26.6289,-98.0241 L 26.0451,-98.2553 L 25.4369,-98.4114
 L 24.8139,-98.4901 L -24.8139,-98.4901 L -25.4369,-98.4114 L -26.0451,-98.2553 L -26.6289,-98.0241 L -27.1791,-97.7216
 L -27.6871,-97.3526 L -28.1448,-96.9227 L -28.5451,-96.4389 L -28.8815,-95.9088 L -29.1489,-95.3406 L -29.3429,-94.7434
 L -29.4606,-94.1267 L -29.5,-93.5 L -29.5,-44.5 L -29.4606,-43.8733 L -29.3429,-43.2566 L -29.1489,-42.6594
 L -28.8815,-42.0912 L -28.5451,-41.5611 L -28.1448,-41.0773 L -27.6871,-40.6474 L -27.1791,-40.2784 L -26.6289,-39.9759
 L -26.0451,-39.7447 L -25.4369,-39.5886 L -24.8139,-39.5099 L 24.8139,-39.5099 z
M -7.68837,-88.5059 L -8.06213,-88.5531 L -8.42705,-88.6468 L -8.77733,-88.7855 L -9.10747,-88.967 L -9.41226,-89.1884
 L -9.6869,-89.4464 L -9.92705,-89.7366 L -10.1289,-90.0547 L -10.2893,-90.3956 L -10.4057,-90.7539 L -10.4763,-91.124
 L -10.5,-91.5 L -10.4763,-91.876 L -10.4057,-92.2461 L -10.2893,-92.6044 L -10.1289,-92.9453 L -9.92705,-93.2634
 L -9.6869,-93.5536 L -9.41226,-93.8115 L -9.10747,-94.033 L -8.77733,-94.2145 L -8.42705,-94.3532 L -8.06213,-94.4469
 L -7.68837,-94.4941 L -7.31161,-94.4941 L -6.93785,-94.4469 L -6.57294,-94.3532 L -6.22266,-94.2145 L -5.89252,-94.033
 L -5.58772,-93.8115 L -5.31308,-93.5536 L -5.07294,-93.2634 L -4.87108,-92.9453 L -4.71066,-92.6044 L -4.59424,-92.2461
 L -4.52365,-91.876 L -4.5,-91.5 L -4.52365,-91.124 L -4.59424,-90.7539 L -4.71066,-90.3956 L -4.87108,-90.0547
 L -5.07294,-89.7366 L -5.31308,-89.4464 L -5.58772,-89.1884 L -5.89252,-88.967 L -6.22266,-88.7855 L -6.57294,-88.6468
 L -6.93785,-88.5531 L -7.31161,-88.5059 z
M 22.3116,-88.5059 L 21.9379,-88.5531 L 21.5729,-88.6468 L 21.2227,-88.7855 L 20.8925,-88.967 L 20.5877,-89.1884
 L 20.3131,-89.4464 L 20.0729,-89.7366 L 19.8711,-90.0547 L 19.7107,-90.3956 L 19.5942,-90.7539 L 19.5237,-91.124
 L 19.5,-91.5 L 19.5237,-91.876 L 19.5942,-92.2461 L 19.7107,-92.6044 L 19.8711,-92.9453 L 20.0729,-93.2634
 L 20.3131,-93.5536 L 20.5877,-93.8115 L 20.8925,-94.033 L 21.2227,-94.2145 L 21.5729,-94.3532 L 21.9379,-94.4469
 L 22.3116,-94.4941 L 22.6884,-94.4941 L 23.0621,-94.4469 L 23.427,-94.3532 L 23.7773,-94.2145 L 24.1075,-94.033
 L 24.4123,-93.8115 L 24.6869,-93.5536 L 24.927,-93.2634 L 25.1289,-92.9453 L 25.2893,-92.6044 L 25.4057,-92.2461
 L 25.4763,-91.876 L 25.5,-91.5 L 25.4763,-91.124 L 25.4057,-90.7539 L 25.2893,-90.3956 L 25.1289,-90.0547
 L 24.927,-89.7366 L 24.6869,-89.4464 L 24.4123,-89.1884 L 24.1075,-88.967 L 23.7773,-88.7855 L 23.427,-88.6468
 L 23.0621,-88.5531 L 22.6884,-88.5059 z
M -22.6884,-88.5059 L -23.0621,-88.5531 L -23.427,-88.6468 L -23.7773,-88.7855 L -24.1075,-88.967 L -24.4123,-89.1884
 L -24.6869,-89.4464 L -24.927,-89.7366 L -25.1289,-90.0547 L -25.2893,-90.3956 L -25.4057,-90.7539 L -25.4763,-91.124
 L -25.5,-91.5 L -25.4763,-91.876 L -25.4057,-92.2461 L -25.2893,-92.6044 L -25.1289,-92.9453 L -24.927,-93.2634
 L -24.6869,-93.5536 L -24.4123,-93.8115 L -24.1075,-94.033 L -23.7773,-94.2145 L -23.427,-94.3532 L -23.0621,-94.4469
 L -22.6884,-94.4941 L -22.3116,-94.4941 L -21.9379,-94.4469 L -21.5729,-94.3532 L -21.2227,-94.2145 L -20.8925,-94.033
 L -20.5877,-93.8115 L -20.3131,-93.5536 L -20.0729,-93.2634 L -19.8711,-92.9453 L -19.7107,-92.6044 L -19.5942,-92.2461
 L -19.5237,-91.876 L -19.5,-91.5 L -19.5237,-91.124 L -19.5942,-90.7539 L -19.7107,-90.3956 L -19.8711,-90.0547
 L -20.0729,-89.7366 L -20.3131,-89.4464 L -20.5877,-89.1884 L -20.8925,-88.967 L -21.2227,-88.7855 L -21.5729,-88.6468
 L -21.9379,-88.5531 L -22.3116,-88.5059 z
M 7.31161,-88.5059 L 6.93785,-88.5531 L 6.57294,-88.6468 L 6.22266,-88.7855 L 5.89252,-88.967 L 5.58772,-89.1884
 L 5.31308,-89.4464 L 5.07294,-89.7366 L 4.87108,-90.0547 L 4.71066,-90.3956 L 4.59424,-90.7539 L 4.52365,-91.124
 L 4.5,-91.5 L 4.52365,-91.876 L 4.59424,-92.2461 L 4.71066,-92.6044 L 4.87108,-92.9453 L 5.07294,-93.2634
 L 5.31308,-93.5536 L 5.58772,-93.8115 L 5.89252,-94.033 L 6.22266,-94.2145 L 6.57294,-94.3532 L 6.93785,-94.4469
 L 7.31161,-94.4941 L 7.68837,-94.4941 L 8.06213,-94.4469 L 8.42705,-94.3532 L 8.77733,-94.2145 L 9.10747,-94.033
 L 9.41226,-93.8115 L 9.6869,-93.5536 L 9.92705,-93.2634 L 10.1289,-92.9453 L 10.2893,-92.6044 L 10.4057,-92.2461
 L 10.4763,-91.876 L 10.5,-91.5 L 10.4763,-91.124 L 10.4057,-90.7539 L 10.2893,-90.3956 L 10.1289,-90.0547
 L 9.92705,-89.7366 L 9.6869,-89.4464 L 9.41226,-89.1884 L 9.10747,-88.967 L 8.77733,-88.7855 L 8.42705,-88.6468
 L 8.06213,-88.5531 L 7.68837,-88.5059 z
M 14.9058,-90.003 L 14.7189,-90.0266 L 14.5365,-90.0734 L 14.3613,-90.1427 L 14.1963,-90.2335 L 14.0439,-90.3442
 L 13.9065,-90.4732 L 13.7865,-90.6183 L 13.6855,-90.7774 L 13.6053,-90.9478 L 13.5471,-91.127 L 13.5118,-91.312
 L 13.5,-91.5 L 13.5118,-91.688 L 13.5471,-91.873 L 13.6053,-92.0522 L 13.6855,-92.2226 L 13.7865,-92.3817
 L 13.9065,-92.5268 L 14.0439,-92.6558 L 14.1963,-92.7665 L 14.3613,-92.8572 L 14.5365,-92.9266 L 14.7189,-92.9734
 L 14.9058,-92.997 L 15.0942,-92.997 L 15.2811,-92.9734 L 15.4635,-92.9266 L 15.6387,-92.8572 L 15.8037,-92.7665
 L 15.9561,-92.6558 L 16.0934,-92.5268 L 16.2135,-92.3817 L 16.3145,-92.2226 L 16.3947,-92.0522 L 16.4529,-91.873
 L 16.4882,-91.688 L 16.5,-91.5 L 16.4882,-91.312 L 16.4529,-91.127 L 16.3947,-90.9478 L 16.3145,-90.7774
 L 16.2135,-90.6183 L 16.0934,-90.4732 L 15.9561,-90.3442 L 15.8037,-90.2335 L 15.6387,-90.1427 L 15.4635,-90.0734
 L 15.2811,-90.0266 L 15.0942,-90.003 z
M -0.0941772,-90.003 L -0.281067,-90.0266 L -0.463516,-90.0734 L -0.638657,-90.1427 L -0.803726,-90.2335 L -0.956131,-90.3442
 L -1.09344,-90.4732 L -1.21352,-90.6183 L -1.31445,-90.7774 L -1.39465,-90.9478 L -1.45287,-91.127 L -1.48816,-91.312
 L -1.5,-91.5 L -1.48816,-91.688 L -1.45287,-91.873 L -1.39465,-92.0522 L -1.31445,-92.2226 L -1.21352,-92.3817
 L -1.09344,-92.5268 L -0.956131,-92.6558 L -0.803726,-92.7665 L -0.638657,-92.8572 L -0.463516,-92.9266 L -0.281067,-92.9734
 L -0.0941772,-92.997 L 0.0941772,-92.997 L 0.281067,-92.9734 L 0.463516,-92.9266 L 0.638657,-92.8572 L 0.803726,-92.7665
 L 0.956131,-92.6558 L 1.09344,-92.5268 L 1.21352,-92.3817 L 1.31445,-92.2226 L 1.39465,-92.0522 L 1.45287,-91.873
 L 1.48816,-91.688 L 1.5,-91.5 L 1.48816,-91.312 L 1.45287,-91.127 L 1.39465,-90.9478 L 1.31445,-90.7774
 L 1.21352,-90.6183 L 1.09344,-90.4732 L 0.956131,-90.3442 L 0.803726,-90.2335 L 0.638657,-90.1427 L 0.463516,-90.0734
 L 0.281067,-90.0266 L 0.0941772,-90.003 z
M -15.0942,-90.003 L -15.2811,-90.0266 L -15.4635,-90.0734 L -15.6387,-90.1427 L -15.8037,-90.2335 L -15.9561,-90.3442
 L -16.0934,-90.4732 L -16.2135,-90.6183 L -16.3145,-90.7774 L -16.3947,-90.9478 L -16.4529,-91.127 L -16.4882,-91.312
 L -16.5,-91.5 L -16.4882,-91.688 L -16.4529,-91.873 L -16.3947,-92.0522 L -16.3145,-92.2226 L -16.2135,-92.3817
 L -16.0934,-92.5268 L -15.9561,-92.6558 L -15.8037,-92.7665 L -15.6387,-92.8572 L -15.4635,-92.9266 L -15.2811,-92.9734
 L -15.0942,-92.997 L -14.9058,-92.997 L -14.7189,-92.9734 L -14.5365,-92.9266 L -14.3613,-92.8572 L -14.1963,-92.7665
 L -14.0439,-92.6558 L -13.9065,-92.5268 L -13.7865,-92.3817 L -13.6855,-92.2226 L -13.6053,-92.0522 L -13.5471,-91.873
 L -13.5118,-91.688 L -13.5,-91.5 L -13.5118,-91.312 L -13.5471,-91.127 L -13.6053,-90.9478 L -13.6855,-90.7774
 L -13.7865,-90.6183 L -13.9065,-90.4732 L -14.0439,-90.3442 L -14.1963,-90.2335 L -14.3613,-90.1427 L -14.5365,-90.0734
 L -14.7189,-90.0266 L -14.9058,-90.003 z
M 22.4058,-82.5029 L 22.2189,-82.5266 L 22.0365,-82.5734 L 21.8613,-82.6427 L 21.6963,-82.7335 L 21.5439,-82.8442
 L 21.4065,-82.9732 L 21.2865,-83.1183 L 21.1855,-83.2774 L 21.1053,-83.4478 L 21.0471,-83.627 L 21.0118,-83.812
 L 21,-84 L 21.0118,-84.188 L 21.0471,-84.373 L 21.1053,-84.5522 L 21.1855,-84.7226 L 21.2865,-84.8817
 L 21.4065,-85.0268 L 21.5439,-85.1558 L 21.6963,-85.2665 L 21.8613,-85.3572 L 22.0365,-85.4266 L 22.2189,-85.4734
 L 22.4058,-85.497 L 22.5942,-85.497 L 22.7811,-85.4734 L 22.9635,-85.4266 L 23.1387,-85.3572 L 23.3037,-85.2665
 L 23.4561,-85.1558 L 23.5934,-85.0268 L 23.7135,-84.8817 L 23.8145,-84.7226 L 23.8947,-84.5522 L 23.9529,-84.373
 L 23.9882,-84.188 L 24,-84 L 23.9882,-83.812 L 23.9529,-83.627 L 23.8947,-83.4478 L 23.8145,-83.2774
 L 23.7135,-83.1183 L 23.5934,-82.9732 L 23.4561,-82.8442 L 23.3037,-82.7335 L 23.1387,-82.6427 L 22.9635,-82.5734
 L 22.7811,-82.5266 L 22.5942,-82.5029 z
M -22.5942,-82.5029 L -22.7811,-82.5266 L -22.9635,-82.5734 L -23.1387,-82.6427 L -23.3037,-82.7335 L -23.4561,-82.8442
 L -23.5934,-82.9732 L -23.7135,-83.1183 L -23.8145,-83.2774 L -23.8947,-83.4478 L -23.9529,-83.627 L -23.9882,-83.812
 L -24,-84 L -23.9882,-84.188 L -23.9529,-84.373 L -23.8947,-84.5522 L -23.8145,-84.7226 L -23.7135,-84.8817
 L -23.5934,-85.0268 L -23.4561,-85.1558 L -23.3037,-85.2665 L -23.1387,-85.3572 L -22.9635,-85.4266 L -22.7811,-85.4734
 L -22.5942,-85.497 L -22.4058,-85.497 L -22.2189,-85.4734 L -22.0365,-85.4266 L -21.8613,-85.3572 L -21.6963,-85.2665
 L -21.5439,-85.1558 L -21.4065,-85.0268 L -21.2865,-84.8817 L -21.1855,-84.7226 L -21.1053,-84.5522 L -21.0471,-84.373
 L -21.0118,-84.188 L -21,-84 L -21.0118,-83.812 L -21.0471,-83.627 L -21.1053,-83.4478 L -21.1855,-83.2774
 L -21.2865,-83.1183 L -21.4065,-82.9732 L -21.5439,-82.8442 L -21.6963,-82.7335 L -21.8613,-82.6427 L -22.0365,-82.5734
 L -22.2189,-82.5266 L -22.4058,-82.5029 z
M -0.753479,-57.0237 L -2.24857,-57.2126 L -3.70819,-57.5873 L -5.10934,-58.1421 L -6.42992,-58.8681 L -7.64908,-59.7538
 L -8.74762,-60.7854 L -9.70819,-61.9466 L -10.5157,-63.219 L -11.1573,-64.5825 L -11.623,-66.0157 L -11.9054,-67.496
 L -12,-69 L -11.9054,-70.504 L -11.623,-71.9843 L -11.1573,-73.4175 L -10.5157,-74.781 L -9.70819,-76.0534
 L -8.74762,-77.2146 L -7.64908,-78.2462 L -6.42992,-79.1319 L -5.10934,-79.8579 L -3.70819,-80.4127 L -2.24857,-80.7874
 L -0.753479,-80.9763 L 0.753479,-80.9763 L 2.24857,-80.7874 L 3.70819,-80.4127 L 5.10934,-79.8579 L 6.42992,-79.1319
 L 7.64908,-78.2462 L 8.74762,-77.2146 L 9.70819,-76.0534 L 10.5157,-74.781 L 11.1573,-73.4175 L 11.623,-71.9843
 L 11.9054,-70.504 L 12,-69 L 11.9054,-67.496 L 11.623,-66.0157 L 11.1573,-64.5825 L 10.5157,-63.219
 L 9.70819,-61.9466 L 8.74762,-60.7854 L 7.64908,-59.7538 L 6.42992,-58.8681 L 5.10934,-58.1421 L 3.70819,-57.5873
 L 2.24857,-57.2126 L 0.753479,-57.0237 z
M -22.6884,-73.5059 L -23.0621,-73.5531 L -23.427,-73.6468 L -23.7773,-73.7855 L -24.1075,-73.967 L -24.4123,-74.1884
 L -24.6869,-74.4464 L -24.927,-74.7366 L -25.1289,-75.0547 L -25.2893,-75.3956 L -25.4057,-75.7539 L -25.4763,-76.124
 L -25.5,-76.5 L -25.4763,-76.876 L -25.4057,-77.2461 L -25.2893,-77.6044 L -25.1289,-77.9453 L -24.927,-78.2634
 L -24.6869,-78.5536 L -24.4123,-78.8115 L -24.1075,-79.033 L -23.7773,-79.2145 L -23.427,-79.3532 L -23.0621,-79.4469
 L -22.6884,-79.4941 L -22.3116,-79.4941 L -21.9379,-79.4469 L -21.5729,-79.3532 L -21.2227,-79.2145 L -20.8925,-79.033
 L -20.5877,-78.8115 L -20.3131,-78.5536 L -20.0729,-78.2634 L -19.8711,-77.9453 L -19.7107,-77.6044 L -19.5942,-77.2461
 L -19.5237,-76.876 L -19.5,-76.5 L -19.5237,-76.124 L -19.5942,-75.7539 L -19.7107,-75.3956 L -19.8711,-75.0547
 L -20.0729,-74.7366 L -20.3131,-74.4464 L -20.5877,-74.1884 L -20.8925,-73.967 L -21.2227,-73.7855 L -21.5729,-73.6468
 L -21.9379,-73.5531 L -22.3116,-73.5059 z
M 22.3116,-73.5059 L 21.9379,-73.5531 L 21.5729,-73.6468 L 21.2227,-73.7855 L 20.8925,-73.967 L 20.5877,-74.1884
 L 20.3131,-74.4464 L 20.0729,-74.7366 L 19.8711,-75.0547 L 19.7107,-75.3956 L 19.5942,-75.7539 L 19.5237,-76.124
 L 19.5,-76.5 L 19.5237,-76.876 L 19.5942,-77.2461 L 19.7107,-77.6044 L 19.8711,-77.9453 L 20.0729,-78.2634
 L 20.3131,-78.5536 L 20.5877,-78.8115 L 20.8925,-79.033 L 21.2227,-79.2145 L 21.5729,-79.3532 L 21.9379,-79.4469
 L 22.3116,-79.4941 L 22.6884,-79.4941 L 23.0621,-79.4469 L 23.427,-79.3532 L 23.7773,-79.2145 L 24.1075,-79.033
 L 24.4123,-78.8115 L 24.6869,-78.5536 L 24.927,-78.2634 L 25.1289,-77.9453 L 25.2893,-77.6044 L 25.4057,-77.2461
 L 25.4763,-76.876 L 25.5,-76.5 L 25.4763,-76.124 L 25.4057,-75.7539 L 25.2893,-75.3956 L 25.1289,-75.0547
 L 24.927,-74.7366 L 24.6869,-74.4464 L 24.4123,-74.1884 L 24.1075,-73.967 L 23.7773,-73.7855 L 23.427,-73.6468
 L 23.0621,-73.5531 L 22.6884,-73.5059 z
M 22.4058,-67.503 L 22.2189,-67.5266 L 22.0365,-67.5734 L 21.8613,-67.6428 L 21.6963,-67.7335 L 21.5439,-67.8442
 L 21.4065,-67.9732 L 21.2865,-68.1183 L 21.1855,-68.2774 L 21.1053,-68.4478 L 21.0471,-68.627 L 21.0118,-68.812
 L 21,-69 L 21.0118,-69.188 L 21.0471,-69.373 L 21.1053,-69.5522 L 21.1855,-69.7226 L 21.2865,-69.8817
 L 21.4065,-70.0268 L 21.5439,-70.1558 L 21.6963,-70.2665 L 21.8613,-70.3572 L 22.0365,-70.4266 L 22.2189,-70.4734
 L 22.4058,-70.497 L 22.5942,-70.497 L 22.7811,-70.4734 L 22.9635,-70.4266 L 23.1387,-70.3572 L 23.3037,-70.2665
 L 23.4561,-70.1558 L 23.5934,-70.0268 L 23.7135,-69.8817 L 23.8145,-69.7226 L 23.8947,-69.5522 L 23.9529,-69.373
 L 23.9882,-69.188 L 24,-69 L 23.9882,-68.812 L 23.9529,-68.627 L 23.8947,-68.4478 L 23.8145,-68.2774
 L 23.7135,-68.1183 L 23.5934,-67.9732 L 23.4561,-67.8442 L 23.3037,-67.7335 L 23.1387,-67.6428 L 22.9635,-67.5734
 L 22.7811,-67.5266 L 22.5942,-67.503 z
M -22.5942,-67.503 L -22.7811,-67.5266 L -22.9635,-67.5734 L -23.1387,-67.6428 L -23.3037,-67.7335 L -23.4561,-67.8442
 L -23.5934,-67.9732 L -23.7135,-68.1183 L -23.8145,-68.2774 L -23.8947,-68.4478 L -23.9529,-68.627 L -23.9882,-68.812
 L -24,-69 L -23.9882,-69.188 L -23.9529,-69.373 L -23.8947,-69.5522 L -23.8145,-69.7226 L -23.7135,-69.8817
 L -23.5934,-70.0268 L -23.4561,-70.1558 L -23.3037,-70.2665 L -23.1387,-70.3572 L -22.9635,-70.4266 L -22.7811,-70.4734
 L -22.5942,-70.497 L -22.4058,-70.497 L -22.2189,-70.4734 L -22.0365,-70.4266 L -21.8613,-70.3572 L -21.6963,-70.2665
 L -21.5439,-70.1558 L -21.4065,-70.0268 L -21.2865,-69.8817 L -21.1855,-69.7226 L -21.1053,-69.5522 L -21.0471,-69.373
 L -21.0118,-69.188 L -21,-69 L -21.0118,-68.812 L -21.0471,-68.627 L -21.1053,-68.4478 L -21.1855,-68.2774
 L -21.2865,-68.1183 L -21.4065,-67.9732 L -21.5439,-67.8442 L -21.6963,-67.7335 L -21.8613,-67.6428 L -22.0365,-67.5734
 L -22.2189,-67.5266 L -22.4058,-67.503 z
M -22.6884,-58.5059 L -23.0621,-58.5531 L -23.427,-58.6468 L -23.7773,-58.7855 L -24.1075,-58.967 L -24.4123,-59.1885
 L -24.6869,-59.4464 L -24.927,-59.7366 L -25.1289,-60.0547 L -25.2893,-60.3956 L -25.4057,-60.7539 L -25.4763,-61.124
 L -25.5,-61.5 L -25.4763,-61.876 L -25.4057,-62.2461 L -25.2893,-62.6044 L -25.1289,-62.9453 L -24.927,-63.2634
 L -24.6869,-63.5536 L -24.4123,-63.8116 L -24.1075,-64.033 L -23.7773,-64.2145 L -23.427,-64.3532 L -23.0621,-64.4469
 L -22.6884,-64.4941 L -22.3116,-64.4941 L -21.9379,-64.4469 L -21.5729,-64.3532 L -21.2227,-64.2145 L -20.8925,-64.033
 L -20.5877,-63.8116 L -20.3131,-63.5536 L -20.0729,-63.2634 L -19.8711,-62.9453 L -19.7107,-62.6044 L -19.5942,-62.2461
 L -19.5237,-61.876 L -19.5,-61.5 L -19.5237,-61.124 L -19.5942,-60.7539 L -19.7107,-60.3956 L -19.8711,-60.0547
 L -20.0729,-59.7366 L -20.3131,-59.4464 L -20.5877,-59.1885 L -20.8925,-58.967 L -21.2227,-58.7855 L -21.5729,-58.6468
 L -21.9379,-58.5531 L -22.3116,-58.5059 z
M 22.3116,-58.5059 L 21.9379,-58.5531 L 21.5729,-58.6468 L 21.2227,-58.7855 L 20.8925,-58.967 L 20.5877,-59.1885
 L 20.3131,-59.4464 L 20.0729,-59.7366 L 19.8711,-60.0547 L 19.7107,-60.3956 L 19.5942,-60.7539 L 19.5237,-61.124
 L 19.5,-61.5 L 19.5237,-61.876 L 19.5942,-62.2461 L 19.7107,-62.6044 L 19.8711,-62.9453 L 20.0729,-63.2634
 L 20.3131,-63.5536 L 20.5877,-63.8116 L 20.8925,-64.033 L 21.2227,-64.2145 L 21.5729,-64.3532 L 21.9379,-64.4469
 L 22.3116,-64.4941 L 22.6884,-64.4941 L 23.0621,-64.4469 L 23.427,-64.3532 L 23.7773,-64.2145 L 24.1075,-64.033
 L 24.4123,-63.8116 L 24.6869,-63.5536 L 24.927,-63.2634 L 25.1289,-62.9453 L 25.2893,-62.6044 L 25.4057,-62.2461
 L 25.4763,-61.876 L 25.5,-61.5 L 25.4763,-61.124 L 25.4057,-60.7539 L 25.2893,-60.3956 L 25.1289,-60.0547
 L 24.927,-59.7366 L 24.6869,-59.4464 L 24.4123,-59.1885 L 24.1075,-58.967 L 23.7773,-58.7855 L 23.427,-58.6468
 L 23.0621,-58.5531 L 22.6884,-58.5059 z
M -22.5942,-52.503 L -22.7811,-52.5266 L -22.9635,-52.5734 L -23.1387,-52.6428 L -23.3037,-52.7335 L -23.4561,-52.8442
 L -23.5934,-52.9732 L -23.7135,-53.1183 L -23.8145,-53.2774 L -23.8947,-53.4478 L -23.9529,-53.627 L -23.9882,-53.812
 L -24,-54 L -23.9882,-54.188 L -23.9529,-54.373 L -23.8947,-54.5522 L -23.8145,-54.7226 L -23.7135,-54.8817
 L -23.5934,-55.0268 L -23.4561,-55.1558 L -23.3037,-55.2665 L -23.1387,-55.3573 L -22.9635,-55.4266 L -22.7811,-55.4734
 L -22.5942,-55.4971 L -22.4058,-55.4971 L -22.2189,-55.4734 L -22.0365,-55.4266 L -21.8613,-55.3573 L -21.6963,-55.2665
 L -21.5439,-55.1558 L -21.4065,-55.0268 L -21.2865,-54.8817 L -21.1855,-54.7226 L -21.1053,-54.5522 L -21.0471,-54.373
 L -21.0118,-54.188 L -21,-54 L -21.0118,-53.812 L -21.0471,-53.627 L -21.1053,-53.4478 L -21.1855,-53.2774
 L -21.2865,-53.1183 L -21.4065,-52.9732 L -21.5439,-52.8442 L -21.6963,-52.7335 L -21.8613,-52.6428 L -22.0365,-52.5734
 L -22.2189,-52.5266 L -22.4058,-52.503 z
M 22.4058,-52.503 L 22.2189,-52.5266 L 22.0365,-52.5734 L 21.8613,-52.6428 L 21.6963,-52.7335 L 21.5439,-52.8442
 L 21.4065,-52.9732 L 21.2865,-53.1183 L 21.1855,-53.2774 L 21.1053,-53.4478 L 21.0471,-53.627 L 21.0118,-53.812
 L 21,-54 L 21.0118,-54.188 L 21.0471,-54.373 L 21.1053,-54.5522 L 21.1855,-54.7226 L 21.2865,-54.8817
 L 21.4065,-55.0268 L 21.5439,-55.1558 L 21.6963,-55.2665 L 21.8613,-55.3573 L 22.0365,-55.4266 L 22.2189,-55.4734
 L 22.4058,-55.4971 L 22.5942,-55.4971 L 22.7811,-55.4734 L 22.9635,-55.4266 L 23.1387,-55.3573 L 23.3037,-55.2665
 L 23.4561,-55.1558 L 23.5934,-55.0268 L 23.7135,-54.8817 L 23.8145,-54.7226 L 23.8947,-54.5522 L 23.9529,-54.373
 L 23.9882,-54.188 L 24,-54 L 23.9882,-53.812 L 23.9529,-53.627 L 23.8947,-53.4478 L 23.8145,-53.2774
 L 23.7135,-53.1183 L 23.5934,-52.9732 L 23.4561,-52.8442 L 23.3037,-52.7335 L 23.1387,-52.6428 L 22.9635,-52.5734
 L 22.7811,-52.5266 L 22.5942,-52.503 z
M -22.6884,-43.5059 L -23.0621,-43.5531 L -23.427,-43.6468 L -23.7773,-43.7855 L -24.1075,-43.967 L -24.4123,-44.1885
 L -24.6869,-44.4464 L -24.927,-44.7366 L -25.1289,-45.0547 L -25.2893,-45.3956 L -25.4057,-45.7539 L -25.4763,-46.124
 L -25.5,-46.5 L -25.4763,-46.876 L -25.4057,-47.2461 L -25.2893,-47.6044 L -25.1289,-47.9453 L -24.927,-48.2634
 L -24.6869,-48.5536 L -24.4123,-48.8116 L -24.1075,-49.033 L -23.7773,-49.2145 L -23.427,-49.3532 L -23.0621,-49.4469
 L -22.6884,-49.4941 L -22.3116,-49.4941 L -21.9379,-49.4469 L -21.5729,-49.3532 L -21.2227,-49.2145 L -20.8925,-49.033
 L -20.5877,-48.8116 L -20.3131,-48.5536 L -20.0729,-48.2634 L -19.8711,-47.9453 L -19.7107,-47.6044 L -19.5942,-47.2461
 L -19.5237,-46.876 L -19.5,-46.5 L -19.5237,-46.124 L -19.5942,-45.7539 L -19.7107,-45.3956 L -19.8711,-45.0547
 L -20.0729,-44.7366 L -20.3131,-44.4464 L -20.5877,-44.1885 L -20.8925,-43.967 L -21.2227,-43.7855 L -21.5729,-43.6468
 L -21.9379,-43.5531 L -22.3116,-43.5059 z
M 22.3116,-43.5059 L 21.9379,-43.5531 L 21.5729,-43.6468 L 21.2227,-43.7855 L 20.8925,-43.967 L 20.5877,-44.1885
 L 20.3131,-44.4464 L 20.0729,-44.7366 L 19.8711,-45.0547 L 19.7107,-45.3956 L 19.5942,-45.7539 L 19.5237,-46.124
 L 19.5,-46.5 L 19.5237,-46.876 L 19.5942,-47.2461 L 19.7107,-47.6044 L 19.8711,-47.9453 L 20.0729,-48.2634
 L 20.3131,-48.5536 L 20.5877,-48.8116 L 20.8925,-49.033 L 21.2227,-49.2145 L 21.5729,-49.3532 L 21.9379,-49.4469
 L 22.3116,-49.4941 L 22.6884,-49.4941 L 23.0621,-49.4469 L 23.427,-49.3532 L 23.7773,-49.2145 L 24.1075,-49.033
 L 24.4123,-48.8116 L 24.6869,-48.5536 L 24.927,-48.2634 L 25.1289,-47.9453 L 25.2893,-47.6044 L 25.4057,-47.2461
 L 25.4763,-46.876 L 25.5,-46.5 L 25.4763,-46.124 L 25.4057,-45.7539 L 25.2893,-45.3956 L 25.1289,-45.0547
 L 24.927,-44.7366 L 24.6869,-44.4464 L 24.4123,-44.1885 L 24.1075,-43.967 L 23.7773,-43.7855 L 23.427,-43.6468
 L 23.0621,-43.5531 L 22.6884,-43.5059 z
M 7.31161,-43.5059 L 6.93785,-43.5531 L 6.57294,-43.6468 L 6.22266,-43.7855 L 5.89252,-43.967 L 5.58772,-44.1885
 L 5.31308,-44.4464 L 5.07294,-44.7366 L 4.87108,-45.0547 L 4.71066,-45.3956 L 4.59424,-45.7539 L 4.52365,-46.124
 L 4.5,-46.5 L 4.52365,-46.876 L 4.59424,-47.2461 L 4.71066,-47.6044 L 4.87108,-47.9453 L 5.07294,-48.2634
 L 5.31308,-48.5536 L 5.58772,-48.8116 L 5.89252,-49.033 L 6.22266,-49.2145 L 6.57294,-49.3532 L 6.93785,-49.4469
 L 7.31161,-49.4941 L 7.68837,-49.4941 L 8.06213,-49.4469 L 8.42705,-49.3532 L 8.77733,-49.2145 L 9.10747,-49.033
 L 9.41226,-48.8116 L 9.6869,-48.5536 L 9.92705,-48.2634 L 10.1289,-47.9453 L 10.2893,-47.6044 L 10.4057,-47.2461
 L 10.4763,-46.876 L 10.5,-46.5 L 10.4763,-46.124 L 10.4057,-45.7539 L 10.2893,-45.3956 L 10.1289,-45.0547
 L 9.92705,-44.7366 L 9.6869,-44.4464 L 9.41226,-44.1885 L 9.10747,-43.967 L 8.77733,-43.7855 L 8.42705,-43.6468
 L 8.06213,-43.5531 L 7.68837,-43.5059 z
M -7.68837,-43.5059 L -8.06213,-43.5531 L -8.42705,-43.6468 L -8.77733,-43.7855 L -9.10747,-43.967 L -9.41226,-44.1885
 L -9.6869,-44.4464 L -9.92705,-44.7366 L -10.1289,-45.0547 L -10.2893,-45.3956 L -10.4057,-45.7539 L -10.4763,-46.124
 L -10.5,-46.5 L -10.4763,-46.876 L -10.4057,-47.2461 L -10.2893,-47.6044 L -10.1289,-47.9453 L -9.92705,-48.2634
 L -9.6869,-48.5536 L -9.41226,-48.8116 L -9.10747,-49.033 L -8.77733,-49.2145 L -8.42705,-49.3532 L -8.06213,-49.4469
 L -7.68837,-49.4941 L -7.31161,-49.4941 L -6.93785,-49.4469 L -6.57294,-49.3532 L -6.22266,-49.2145 L -5.89252,-49.033
 L -5.58772,-48.8116 L -5.31308,-48.5536 L -5.07294,-48.2634 L -4.87108,-47.9453 L -4.71066,-47.6044 L -4.59424,-47.2461
 L -4.52365,-46.876 L -4.5,-46.5 L -4.52365,-46.124 L -4.59424,-45.7539 L -4.71066,-45.3956 L -4.87108,-45.0547
 L -5.07294,-44.7366 L -5.31308,-44.4464 L -5.58772,-44.1885 L -5.89252,-43.967 L -6.22266,-43.7855 L -6.57294,-43.6468
 L -6.93785,-43.5531 L -7.31161,-43.5059 z
M -15.0942,-45.003 L -15.2811,-45.0266 L -15.4635,-45.0734 L -15.6387,-45.1428 L -15.8037,-45.2335 L -15.9561,-45.3442
 L -16.0934,-45.4732 L -16.2135,-45.6183 L -16.3145,-45.7774 L -16.3947,-45.9478 L -16.4529,-46.127 L -16.4882,-46.312
 L -16.5,-46.5 L -16.4882,-46.688 L -16.4529,-46.873 L -16.3947,-47.0522 L -16.3145,-47.2226 L -16.2135,-47.3817
 L -16.0934,-47.5268 L -15.9561,-47.6558 L -15.8037,-47.7665 L -15.6387,-47.8573 L -15.4635,-47.9266 L -15.2811,-47.9734
 L -15.0942,-47.997 L -14.9058,-47.997 L -14.7189,-47.9734 L -14.5365,-47.9266 L -14.3613,-47.8573 L -14.1963,-47.7665
 L -14.0439,-47.6558 L -13.9065,-47.5268 L -13.7865,-47.3817 L -13.6855,-47.2226 L -13.6053,-47.0522 L -13.5471,-46.873
 L -13.5118,-46.688 L -13.5,-46.5 L -13.5118,-46.312 L -13.5471,-46.127 L -13.6053,-45.9478 L -13.6855,-45.7774
 L -13.7865,-45.6183 L -13.9065,-45.4732 L -14.0439,-45.3442 L -14.1963,-45.2335 L -14.3613,-45.1428 L -14.5365,-45.0734
 L -14.7189,-45.0266 L -14.9058,-45.003 z
M -0.0941772,-45.003 L -0.281067,-45.0266 L -0.463516,-45.0734 L -0.638657,-45.1428 L -0.803726,-45.2335 L -0.956131,-45.3442
 L -1.09344,-45.4732 L -1.21352,-45.6183 L -1.31445,-45.7774 L -1.39465,-45.9478 L -1.45287,-46.127 L -1.48816,-46.312
 L -1.5,-46.5 L -1.48816,-46.688 L -1.45287,-46.873 L -1.39465,-47.0522 L -1.31445,-47.2226 L -1.21352,-47.3817
 L -1.09344,-47.5268 L -0.956131,-47.6558 L -0.803726,-47.7665 L -0.638657,-47.8573 L -0.463516,-47.9266 L -0.281067,-47.9734
 L -0.0941772,-47.997 L 0.0941772,-47.997 L 0.281067,-47.9734 L 0.463516,-47.9266 L 0.638657,-47.8573 L 0.803726,-47.7665
 L 0.956131,-47.6558 L 1.09344,-47.5268 L 1.21352,-47.3817 L 1.31445,-47.2226 L 1.39465,-47.0522 L 1.45287,-46.873
 L 1.48816,-46.688 L 1.5,-46.5 L 1.48816,-46.312 L 1.45287,-46.127 L 1.39465,-45.9478 L 1.31445,-45.7774
 L 1.21352,-45.6183 L 1.09344,-45.4732 L 0.956131,-45.3442 L 0.803726,-45.2335 L 0.638657,-45.1428 L 0.463516,-45.0734
 L 0.281067,-45.0266 L 0.0941772,-45.003 z
M 14.9058,-45.003 L 14.7189,-45.0266 L 14.5365,-45.0734 L 14.3613,-45.1428 L 14.1963,-45.2335 L 14.0439,-45.3442
 L 13.9065,-45.4732 L 13.7865,-45.6183 L 13.6855,-45.7774 L 13.6053,-45.9478 L 13.5471,-46.127 L 13.5118,-46.312
 L 13.5,-46.5 L 13.5118,-46.688 L 13.5471,-46.873 L 13.6053,-47.0522 L 13.6855,-47.2226 L 13.7865,-47.3817
 L 13.9065,-47.5268 L 14.0439,-47.6558 L 14.1963,-47.7665 L 14.3613,-47.8573 L 14.5365,-47.9266 L 14.7189,-47.9734
 L 14.9058,-47.997 L 15.0942,-47.997 L 15.2811,-47.9734 L 15.4635,-47.9266 L 15.6387,-47.8573 L 15.8037,-47.7665
 L 15.9561,-47.6558 L 16.0934,-47.5268 L 16.2135,-47.3817 L 16.3145,-47.2226 L 16.3947,-47.0522 L 16.4529,-46.873
 L 16.4882,-46.688 L 16.5,-46.5 L 16.4882,-46.312 L 16.4529,-46.127 L 16.3947,-45.9478 L 16.3145,-45.7774
 L 16.2135,-45.6183 L 16.0934,-45.4732 L 15.9561,-45.3442 L 15.8037,-45.2335 L 15.6387,-45.1428 L 15.4635,-45.0734
 L 15.2811,-45.0266 L 15.0942,-45.003 z
" stroke="black" fill="lightgray" stroke-width="0.5"/>
</svg>
