<?xml version="1.0" standalone="no"?>
<!DOCTYPE svg PUBLIC "-//W3C//DTD SVG 1.1//EN" "http://www.w3.org/Graphics/SVG/1.1/DTD/svg11.dtd">
<svg width="240mm" height="60mm" viewBox="-120 -30 240 60" xmlns="http://www.w3.org/2000/svg" version="1.1">
<title>OpenSCAD Model</title>
<path d="
M 115.437,29.4114 L 116.045,29.2553 L 116.629,29.0241 L 117.179,28.7216 L 117.687,28.3526 L 118.145,27.9227
 L 118.545,27.4389 L 118.882,26.9088 L 119.149,26.3406 L 119.343,25.7434 L 119.461,25.1267 L 119.5,24.5
 L 119.5,-24.5 L 119.461,-25.1267 L 119.343,-25.7434 L 119.149,-26.3406 L 118.882,-26.9088 L 118.545,-27.4389
 L 118.145,-27.9227 L 117.687,-28.3526 L 117.179,-28.7216 L 116.629,-29.0241 L 116.045,-29.2553 L 115.437,-29.4114
 L 114.814,-29.4901 L -114.814,-29.4901 L -115.437,-29.4114 L -116.045,-29.2553 L -116.629,-29.0241 L -117.179,-28.7216
 L -117.687,-28.3526 L -118.145,-27.9227 L -118.545,-27.4389 L -118.882,-26.9088 L -119.149,-26.3406 L -119.343,-25.7434
 L -119.461,-25.1267 L -119.5,-24.5 L -119.5,24.5 L -119.461,25.1267 L -119.343,25.7434 L -119.149,26.3406
 L -118.882,26.9088 L -118.545,27.4389 L -118.145,27.9227 L -117.687,28.3526 L -117.179,28.7216 L -116.629,29.0241
 L -116.045,29.2553 L -115.437,29.4114 L -114.814,29.4901 L 114.814,29.4901 z
M 112.312,-19.5059 L 111.938,-19.5531 L 111.573,-19.6468 L 111.223,-19.7855 L 110.893,-19.967 L 110.588,-20.1884
 L 110.313,-20.4464 L 110.073,-20.7366 L 109.871,-21.0547 L 109.711,-21.3956 L 109.594,-21.7539 L 109.524,-22.124
 L 109.5,-22.5 L 109.524,-22.876 L 109.594,-23.2461 L 109.711,-23.6044 L 109.871,-23.9453 L 110.073,-24.2634
 L 110.313,-24.5536 L 110.588,-24.8115 L 110.893,-25.033 L 111.223,-25.2145 L 111.573,-25.3532 L 111.938,-25.4469
 L 112.312,-25.4941 L 112.688,-25.4941 L 113.062,-25.4469 L 113.427,-25.3532 L 113.777,-25.2145 L 114.107,-25.033
 L 114.412,-24.8115 L 114.687,-24.5536 L 114.927,-24.2634 L 115.129,-23.9453 L 115.289,-23.6044 L 115.406,-23.2461
 L 115.476,-22.876 L 115.5,-22.5 L 115.476,-22.124 L 115.406,-21.7539 L 115.289,-21.3956 L 115.129,-21.0547
 L 114.927,-20.7366 L 114.687,-20.4464 L 114.412,-20.1884 L 114.107,-19.967 L 113.777,-19.7855 L 113.427,-19.6468
 L 113.062,-19.5531 L 112.688,-19.5059 z
M -112.688,-19.5059 L -113.062,-19.5531 L -113.427,-19.6468 L -113.777,-19.7855 L -114.107,-19.967 L -114.412,-20.1884
 L -114.687,-20.4464 L -114.927,-20.7366 L -115.129,-21.0547 L -115.289,-21.3956 L -115.406,-21.7539 L -115.476,-22.124
 L -115.5,-22.5 L -115.476,-22.876 L -115.406,-23.2461 L -115.289,-23.6044 L -115.129,-23.9453 L -114.927,-24.2634
 L -114.687,-24.5536 L -114.412,-24.8115 L -114.107,-25.033 L -113.777,-25.2145 L -113.427,-25.3532 L -113.062,-25.4469
 L -112.688,-25.4941 L -112.312,-25.4941 L -111.938,-25.4469 L -111.573,-25.3532 L -111.223,-25.2145 L -110.893,-25.033
 L -110.588,-24.8115 L -110.313,-24.5536 L -110.073,-24.2634 L -109.871,-23.9453 L -109.711,-23.6044 L -109.594,-23.2461
 L -109.524,-22.876 L -109.5,-22.5 L -109.524,-22.124 L -109.594,-21.7539 L -109.711,-21.3956 L -109.871,-21.0547
 L -110.073,-20.7366 L -110.313,-20.4464 L -110.588,-20.1884 L -110.893,-19.967 L -111.223,-19.7855 L -111.573,-19.6468
 L -111.938,-19.5531 L -112.312,-19.5059 z
M -1.22441,19.4615 L -3.65393,19.1546 L -6.02582,18.5456 L -8.30269,17.6441 L -10.4486,16.4644 L -12.4298,15.025
 L -14.2149,13.3487 L -15.7758,11.4618 L -17.088,9.3942 L -18.1306,7.17842 L -18.8874,4.84944 L -19.3462,2.44398
 L -19.5,-0 L -19.3462,-2.44398 L -18.8874,-4.84944 L -18.1306,-7.17842 L -17.088,-9.3942 L -15.7758,-11.4618
 L -14.2149,-13.3487 L -12.4298,-15.025 L -10.4486,-16.4644 L -8.30269,-17.6441 L -6.02582,-18.5456 L -3.65393,-19.1546
 L -1.22441,-19.4615 L 1.22441,-19.4615 L 3.65393,-19.1546 L 6.02582,-18.5456 L 8.30269,-17.6441 L 10.4486,-16.4644
 L 12.4298,-15.025 L 14.2149,-13.3487 L 15.7758,-11.4618 L 17.088,-9.3942 L 18.1306,-7.17842 L 18.8874,-4.84944
 L 19.3462,-2.44398 L 19.5,-0 L 19.3462,2.44398 L 18.8874,4.84944 L 18.1306,7.17842 L 17.088,9.3942
 L 15.7758,11.4618 L 14.2149,13.3487 L 12.4298,15.025 L 10.4486,16.4644 L 8.30269,17.6441 L 6.02582,18.5456
 L 3.65393,19.1546 L 1.22441,19.4615 z
M -45.2244,19.4615 L -47.6539,19.1546 L -50.0258,18.5456 L -52.3027,17.6441 L -54.4486,16.4644 L -56.4298,15.025
 L -58.2149,13.3487 L -59.7758,11.4618 L -61.088,9.3942 L -62.1306,7.17842 L -62.8874,4.84944 L -63.3462,2.44398
 L -63.5,-0 L -63.3462,-2.44398 L -62.8874,-4.84944 L -62.1306,-7.17842 L -61.088,-9.3942 L -59.7758,-11.4618
 L -58.2149,-13.3487 L -56.4298,-15.025 L -54.4486,-16.4644 L -52.3027,-17.6441 L -50.0258,-18.5456 L -47.6539,-19.1546
 L -45.2244,-19.4615 L -42.7756,-19.4615 L -40.3461,-19.1546 L -37.9742,-18.5456 L -35.6973,-17.6441 L -33.5514,-16.4644
 L -31.5702,-15.025 L -29.7851,-13.3487 L -28.2242,-11.4618 L -26.912,-9.3942 L -25.8694,-7.17842 L -25.1126,-4.84944
 L -24.6538,-2.44398 L -24.5,-0 L -24.6538,2.44398 L -25.1126,4.84944 L -25.8694,7.17842 L -26.912,9.3942
 L -28.2242,11.4618 L -29.7851,13.3487 L -31.5702,15.025 L -33.5514,16.4644 L -35.6973,17.6441 L -37.9742,18.5456
 L -40.3461,19.1546 L -42.7756,19.4615 z
M 42.7756,19.4615 L 40.3461,19.1546 L 37.9742,18.5456 L 35.6973,17.6441 L 33.5514,16.4644 L 31.5702,15.025
 L 29.7851,13.3487 L 28.2242,11.4618 L 26.912,9.3942 L 25.8694,7.17842 L 25.1126,4.84944 L 24.6538,2.44398
 L 24.5,-0 L 24.6538,-2.44398 L 25.1126,-4.84944 L 25.8694,-7.17842 L 26.912,-9.3942 L 28.2242,-11.4618
 L 29.7851,-13.3487 L 31.5702,-15.025 L 33.5514,-16.4644 L 35.6973,-17.6441 L 37.9742,-18.5456 L 40.3461,-19.1546
 L 42.7756,-19.4615 L 45.2244,-19.4615 L 47.6539,-19.1546 L 50.0258,-18.5456 L 52.3027,-17.6441 L 54.4486,-16.4644
 L 56.4298,-15.025 L 58.2149,-13.3487 L 59.7758,-11.4618 L 61.088,-9.3942 L 62.1306,-7.17842 L 62.8874,-4.84944
 L 63.3462,-2.44398 L 63.5,-0 L 63.3462,2.44398 L 62.8874,4.84944 L 62.1306,7.17842 L 61.088,9.3942
 L 59.7758,11.4618 L 58.2149,13.3487 L 56.4298,15.025 L 54.4486,16.4644 L 52.3027,17.6441 L 50.0258,18.5456
 L 47.6539,19.1546 L 45.2244,19.4615 z
M 86.7756,19.4615 L 84.3461,19.1546 L 81.9742,18.5456 L 79.6973,17.6441 L 77.5514,16.4644 L 75.5702,15.025
 L 73.7851,13.3487 L 72.2242,11.4618 L 70.912,9.3942 L 69.8694,7.17842 L 69.1126,4.84944 L 68.6538,2.44398
 L 68.5,-0 L 68.6538,-2.44398 L 69.1126,-4.84944 L 69.8694,-7.17842 L 70.912,-9.3942 L 72.2242,-11.4618
 L 73.7851,-13.3487 L 75.5702,-15.025 L 77.5514,-16.4644 L 79.6973,-17.6441 L 81.9742,-18.5456 L 84.3461,-19.1546
 L 86.7756,-19.4615 L 89.2244,-19.4615 L 91.6539,-19.1546 L 94.0258,-18.5456 L 96.3027,-17.6441 L 98.4486,-16.4644
 L 100.43,-15.025 L 102.215,-13.3487 L 103.776,-11.4618 L 105.088,-9.3942 L 106.131,-7.17842 L 106.887,-4.84944
 L 107.346,-2.44398 L 107.5,-0 L 107.346,2.44398 L 106.887,4.84944 L 106.131,7.17842 L 105.088,9.3942
 L 103.776,11.4618 L 102.215,13.3487 L 100.43,15.025 L 98.4486,16.4644 L 96.3027,17.6441 L 94.0258,18.5456
 L 91.6539,19.1546 L 89.2244,19.4615 z
M -89.2244,19.4615 L -91.6539,19.1546 L -94.0258,18.5456 L -96.3027,17.6441 L -98.4486,16.4644 L -100.43,15.025
 L -102.215,13.3487 L -103.776,11.4618 L -105.088,9.3942 L -106.131,7.17842 L -106.887,4.84944 L -107.346,2.44398
 L -107.5,-0 L -107.346,-2.44398 L -106.887,-4.84944 L -106.131,-7.17842 L -105.088,-9.3942 L -103.776,-11.4618
 L -102.215,-13.3487 L -100.43,-15.025 L -98.4486,-16.4644 L -96.3027,-17.6441 L -94.0258,-18.5456 L -91.6539,-19.1546
 L -89.2244,-19.4615 L -86.7756,-19.4615 L -84.3461,-19.1546 L -81.9742,-18.5456 L -79.6973,-17.6441 L -77.5514,-16.4644
 L -75.5702,-15.025 L -73.7851,-13.3487 L -72.2242,-11.4618 L -70.912,-9.3942 L -69.8694,-7.17842 L -69.1126,-4.84944
 L -68.6538,-2.44398 L -68.5,-0 L -68.6538,2.44398 L -69.1126,4.84944 L -69.8694,7.17842 L -70.912,9.3942
 L -72.2242,11.4618 L -73.7851,13.3487 L -75.5702,15.025 L -77.5514,16.4644 L -79.6973,17.6441 L -81.9742,18.5456
 L -84.3461,19.1546 L -86.7756,19.4615 z
M -112.594,-13.5029 L -112.781,-13.5266 L -112.964,-13.5734 L -113.139,-13.6427 L -113.304,-13.7335 L -113.456,-13.8442
 L -113.593,-13.9732 L -113.714,-14.1183 L -113.814,-14.2774 L -113.895,-14.4478 L -113.953,-14.627 L -113.988,-14.812
 L -114,-15 L -113.988,-15.188 L -113.953,-15.373 L -113.895,-15.5522 L -113.814,-15.7226 L -113.714,-15.8817
 L -113.593,-16.0268 L -113.456,-16.1558 L -113.304,-16.2665 L -113.139,-16.3572 L -112.964,-16.4266 L -112.781,-16.4734
 L -112.594,-16.497 L -112.406,-16.497 L -112.219,-16.4734 L -112.036,-16.4266 L -111.861,-16.3572 L -111.696,-16.2665
 L -111.544,-16.1558 L -111.407,-16.0268 L -111.286,-15.8817 L -111.186,-15.7226 L -111.105,-15.5522 L -111.047,-15.373
 L -111.012,-15.188 L -111,-15 L -111.012,-14.812 L -111.047,-14.627 L -111.105,-14.4478 L -111.186,-14.2774
 L -111.286,-14.1183 L -111.407,-13.9732 L -111.544,-13.8442 L -111.696,-13.7335 L -111.861,-13.6427 L -112.036,-13.5734
 L -112.219,-13.5266 L -112.406,-13.5029 z
M 112.406,-13.5029 L 112.219,-13.5266 L 112.036,-13.5734 L 111.861,-13.6427 L 111.696,-13.7335 L 111.544,-13.8442
 L 111.407,-13.9732 L 111.286,-14.1183 L 111.186,-14.2774 L 111.105,-14.4478 L 111.047,-14.627 L 111.012,-14.812
 L 111,-15 L 111.012,-15.188 L 111.047,-15.373 L 111.105,-15.5522 L 111.186,-15.7226 L 111.286,-15.8817
 L 111.407,-16.0268 L 111.544,-16.1558 L 111.696,-16.2665 L 111.861,-16.3572 L 112.036,-16.4266 L 112.219,-16.4734
 L 112.406,-16.497 L 112.594,-16.497 L 112.781,-16.4734 L 112.964,-16.4266 L 113.139,-16.3572 L 113.304,-16.2665
 L 113.456,-16.1558 L 113.593,-16.0268 L 113.714,-15.8817 L 113.814,-15.7226 L 113.895,-15.5522 L 113.953,-15.373
 L 113.988,-15.188 L 114,-15 L 113.988,-14.812 L 113.953,-14.627 L 113.895,-14.4478 L 113.814,-14.2774
 L 113.714,-14.1183 L 113.593,-13.9732 L 113.456,-13.8442 L 113.304,-13.7335 L 113.139,-13.6427 L 112.964,-13.5734
 L 112.781,-13.5266 L 112.594,-13.5029 z
M 112.312,-4.50591 L 111.938,-4.55313 L 111.573,-4.64682 L 111.223,-4.78551 L 110.893,-4.96701 L 110.588,-5.18845
 L 110.313,-5.44635 L 110.073,-5.73663 L 109.871,-6.05473 L 109.711,-6.39561 L 109.594,-6.75392 L 109.524,-7.12399
 L 109.5,-7.5 L 109.524,-7.87599 L 109.594,-8.24606 L 109.711,-8.60437 L 109.871,-8.94525 L 110.073,-9.26335
 L 110.313,-9.55363 L 110.588,-9.81154 L 110.893,-10.033 L 111.223,-10.2145 L 111.573,-10.3532 L 111.938,-10.4469
 L 112.312,-10.4941 L 112.688,-10.4941 L 113.062,-10.4469 L 113.427,-10.3532 L 113.777,-10.2145 L 114.107,-10.033
 L 114.412,-9.81154 L 114.687,-9.55363 L 114.927,-9.26335 L 115.129,-8.94525 L 115.289,-8.60437 L 115.406,-8.24606
 L 115.476,-7.87599 L 115.5,-7.5 L 115.476,-7.12399 L 115.406,-6.75392 L 115.289,-6.39561 L 115.129,-6.05473
 L 114.927,-5.73663 L 114.687,-5.44635 L 114.412,-5.18845 L 114.107,-4.96701 L 113.777,-4.78551 L 113.427,-4.64682
 L 113.062,-4.55313 L 112.688,-4.50591 z
M -112.688,-4.50591 L -113.062,-4.55313 L -113.427,-4.64682 L -113.777,-4.78551 L -114.107,-4.96701 L -114.412,-5.18845
 L -114.687,-5.44635 L -114.927,-5.73663 L -115.129,-6.05473 L -115.289,-6.39561 L -115.406,-6.75392 L -115.476,-7.12399
 L -115.5,-7.5 L -115.476,-7.87599 L -115.406,-8.24606 L -115.289,-8.60437 L -115.129,-8.94525 L -114.927,-9.26335
 L -114.687,-9.55363 L -114.412,-9.81154 L -114.107,-10.033 L -113.777,-10.2145 L -113.427,-10.3532 L -113.062,-10.4469
 L -112.688,-10.4941 L -112.312,-10.4941 L -111.938,-10.4469 L -111.573,-10.3532 L -111.223,-10.2145 L -110.893,-10.033
 L -110.588,-9.81154 L -110.313,-9.55363 L -110.073,-9.26335 L -109.871,-8.94525 L -109.711,-8.60437 L -109.594,-8.24606
 L -109.524,-7.87599 L -109.5,-7.5 L -109.524,-7.12399 L -109.594,-6.75392 L -109.711,-6.39561 L -109.871,-6.05473
 L -110.073,-5.73663 L -110.313,-5.44635 L -110.588,-5.18845 L -110.893,-4.96701 L -111.223,-4.78551 L -111.573,-4.64682
 L -111.938,-4.55313 L -112.312,-4.50591 z
M 112.406,1.49704 L 112.219,1.47342 L 112.036,1.42657 L 111.861,1.35724 L 111.696,1.26648 L 111.544,1.15576
 L 111.407,1.02681 L 111.286,0.881668 L 111.186,0.722626 L 111.105,0.552185 L 111.047,0.373032 L 111.012,0.187988
 L 111,-0 L 111.012,-0.187988 L 111.047,-0.373032 L 111.105,-0.552185 L 111.186,-0.722626 L 111.286,-0.881668
 L 111.407,-1.02681 L 111.544,-1.15576 L 111.696,-1.26648 L 111.861,-1.35724 L 112.036,-1.42657 L 112.219,-1.47342
 L 112.406,-1.49704 L 112.594,-1.49704 L 112.781,-1.47342 L 112.964,-1.42657 L 113.139,-1.35724 L 113.304,-1.26648
 L 113.456,-1.15576 L 113.593,-1.02681 L 113.714,-0.881668 L 113.814,-0.722626 L 113.895,-0.552185 L 113.953,-0.373032
 L 113.988,-0.187988 L 114,-0 L 113.988,0.187988 L 113.953,0.373032 L 113.895,0.552185 L 113.814,0.722626
 L 113.714,0.881668 L 113.593,1.02681 L 113.456,1.15576 L 113.304,1.26648 L 113.139,1.35724 L 112.964,1.42657
 L 112.781,1.47342 L 112.594,1.49704 z
M -112.594,1.49704 L -112.781,1.47342 L -112.964,1.42657 L -113.139,1.35724 L -113.304,1.26648 L -113.456,1.15576
 L -113.593,1.02681 L -113.714,0.881668 L -113.814,0.722626 L -113.895,0.552185 L -113.953,0.373032 L -113.988,0.187988
 L -114,-0 L -113.988,-0.187988 L -113.953,-0.373032 L -113.895,-0.552185 L -113.814,-0.722626 L -113.714,-0.881668
 L -113.593,-1.02681 L -113.456,-1.15576 L -113.304,-1.26648 L -113.139,-1.35724 L -112.964,-1.42657 L -112.781,-1.47342
 L -112.594,-1.49704 L -112.406,-1.49704 L -112.219,-1.47342 L -112.036,-1.42657 L -111.861,-1.35724 L -111.696,-1.26648
 L -111.544,-1.15576 L -111.407,-1.02681 L -111.286,-0.881668 L -111.186,-0.722626 L -111.105,-0.552185 L -111.047,-0.373032
 L -111.012,-0.187988 L -111,-0 L -111.012,0.187988 L -111.047,0.373032 L -111.105,0.552185 L -111.186,0.722626
 L -111.286,0.881668 L -111.407,1.02681 L -111.544,1.15576 L -111.696,1.26648 L -111.861,1.35724 L -112.036,1.42657
 L -112.219,1.47342 L -112.406,1.49704 z
M -112.688,10.4941 L -113.062,10.4469 L -113.427,10.3532 L -113.777,10.2145 L -114.107,10.033 L -114.412,9.81154
 L -114.687,9.55363 L -114.927,9.26335 L -115.129,8.94525 L -115.289,8.60437 L -115.406,8.24606 L -115.476,7.87599
 L -115.5,7.5 L -115.476,7.12399 L -115.406,6.75392 L -115.289,6.39561 L -115.129,6.05473 L -114.927,5.73663
 L -114.687,5.44635 L -114.412,5.18845 L -114.107,4.96701 L -113.777,4.78551 L -113.427,4.64682 L -113.062,4.55313
 L -112.688,4.50591 L -112.312,4.50591 L -111.938,4.55313 L -111.573,4.64682 L -111.223,4.78551 L -110.893,4.96701
 L -110.588,5.18845 L -110.313,5.44635 L -110.073,5.73663 L -109.871,6.05473 L -109.711,6.39561 L -109.594,6.75392
 L -109.524,7.12399 L -109.5,7.5 L -109.524,7.87599 L -109.594,8.24606 L -109.711,8.60437 L -109.871,8.94525
 L -110.073,9.26335 L -110.313,9.55363 L -110.588,9.81154 L -110.893,10.033 L -111.223,10.2145 L -111.573,10.3532
 L -111.938,10.4469 L -112.312,10.4941 z
M 112.312,10.4941 L 111.938,10.4469 L 111.573,10.3532 L 111.223,10.2145 L 110.893,10.033 L 110.588,9.81154
 L 110.313,9.55363 L 110.073,9.26335 L 109.871,8.94525 L 109.711,8.60437 L 109.594,8.24606 L 109.524,7.87599
 L 109.5,7.5 L 109.524,7.12399 L 109.594,6.75392 L 109.711,6.39561 L 109.871,6.05473 L 110.073,5.73663
 L 110.313,5.44635 L 110.588,5.18845 L 110.893,4.96701 L 111.223,4.78551 L 111.573,4.64682 L 111.938,4.55313
 L 112.312,4.50591 L 112.688,4.50591 L 113.062,4.55313 L 113.427,4.64682 L 113.777,4.78551 L 114.107,4.96701
 L 114.412,5.18845 L 114.687,5.44635 L 114.927,5.73663 L 115.129,6.05473 L 115.289,6.39561 L 115.406,6.75392
 L 115.476,7.12399 L 115.5,7.5 L 115.476,7.87599 L 115.406,8.24606 L 115.289,8.60437 L 115.129,8.94525
 L 114.927,9.26335 L 114.687,9.55363 L 114.412,9.81154 L 114.107,10.033 L 113.777,10.2145 L 113.427,10.3532
 L 113.062,10.4469 L 112.688,10.4941 z
M 112.406,16.497 L 112.219,16.4734 L 112.036,16.4266 L 111.861,16.3572 L 111.696,16.2665 L 111.544,16.1558
 L 111.407,16.0268 L 111.286,15.8817 L 111.186,15.7226 L 111.105,15.5522 L 111.047,15.373 L 111.012,15.188
 L 111,15 L 111.012,14.812 L 111.047,14.627 L 111.105,14.4478 L 111.186,14.2774 L 111.286,14.1183
 L 111.407,13.9732 L 111.544,13.8442 L 111.696,13.7335 L 111.861,13.6427 L 112.036,13.5734 L 112.219,13.5266
 L 112.406,13.5029 L 112.594,13.5029 L 112.781,13.5266 L 112.964,13.5734 L 113.139,13.6427 L 113.304,13.7335
 L 113.456,13.8442 L 113.593,13.9732 L 113.714,14.1183 L 113.814,14.2774 L 113.895,14.4478 L 113.953,14.627
 L 113.988,14.812 L 114,15 L 113.988,15.188 L 113.953,15.373 L 113.895,15.5522 L 113.814,15.7226
 L 113.714,15.8817 L 113.593,16.0268 L 113.456,16.1558 L 113.304,16.2665 L 113.139,16.3572 L 112.964,16.4266
 L 112.781,16.4734 L 112.594,16.497 z
M -112.594,16.497 L -112.781,16.4734 L -112.964,16.4266 L -113.139,16.3572 L -113.304,16.2665 L -113.456,16.1558
 L -113.593,16.0268 L -113.714,15.8817 L -113.814,15.7226 L -113.895,15.5522 L -113.953,15.373 L -113.988,15.188
 L -114,15 L -113.988,14.812 L -113.953,14.627 L -113.895,14.4478 L -113.814,14.2774 L -113.714,14.1183
 L -113.593,13.9732 L -113.456,13.8442 L -113.304,13.7335 L -113.139,13.6427 L -112.964,13.5734 L -112.781,13.5266
 L -112.594,13.5029 L -112.406,13.5029 L -112.219,13.5266 L -112.036,13.5734 L -111.861,13.6427 L -111.696,13.7335
 L -111.544,13.8442 L -111.407,13.9732 L -111.286,14.1183 L -111.186,14.2774 L -111.105,14.4478 L -111.047,14.627
 L -111.012,14.812 L -111,15 L -111.012,15.188 L -111.047,15.373 L -111.105,15.5522 L -111.186,15.7226
 L -111.286,15.8817 L -111.407,16.0268 L -111.544,16.1558 L -111.696,16.2665 L -111.861,16.3572 L -112.036,16.4266
 L -112.219,16.4734 L -112.406,16.497 z
M 112.312,25.4941 L 111.938,25.4469 L 111.573,25.3532 L 111.223,25.2145 L 110.893,25.033 L 110.588,24.8115
 L 110.313,24.5536 L 110.073,24.2634 L 109.871,23.9453 L 109.711,23.6044 L 109.594,23.2461 L 109.524,22.876
 L 109.5,22.5 L 109.524,22.124 L 109.594,21.7539 L 109.711,21.3956 L 109.871,21.0547 L 110.073,20.7366
 L 110.313,20.4464 L 110.588,20.1884 L 110.893,19.967 L 111.223,19.7855 L 111.573,19.6468 L 111.938,19.5531
 L 112.312,19.5059 L 112.688,19.5059 L 113.062,19.5531 L 113.427,19.6468 L 113.777,19.7855 L 114.107,19.967
 L 114.412,20.1884 L 114.687,20.4464 L 114.927,20.7366 L 115.129,21.0547 L 115.289,21.3956 L 115.406,21.7539
 L 115.476,22.124 L 115.5,22.5 L 115.476,22.876 L 115.406,23.2461 L 115.289,23.6044 L 115.129,23.9453
 L 114.927,24.2634 L 114.687,24.5536 L 114.412,24.8115 L 114.107,25.033 L 113.777,25.2145 L 113.427,25.3532
 L 113.062,25.4469 L 112.688,25.4941 z
M -112.688,25.4941 L -113.062,25.4469 L -113.427,25.3532 L -113.777,25.2145 L -114.107,25.033 L -114.412,24.8115
 L -114.687,24.5536 L -114.927,24.2634 L -115.129,23.9453 L -115.289,23.6044 L -115.406,23.2461 L -115.476,22.876
 L -115.5,22.5 L -115.476,22.124 L -115.406,21.7539 L -115.289,21.3956 L -115.129,21.0547 L -114.927,20.7366
 L -114.687,20.4464 L -114.412,20.1884 L -114.107,19.967 L -113.777,19.7855 L -113.427,19.6468 L -113.062,19.5531
 L -112.688,19.5059 L -112.312,19.5059 L -111.938,19.5531 L -111.573,19.6468 L -111.223,19.7855 L -110.893,19.967
 L -110.588,20.1884 L -110.313,20.4464 L -110.073,20.7366 L -109.871,21.0547 L -109.711,21.3956 L -109.594,21.7539
 L -109.524,22.124 L -109.5,22.5 L -109.524,22.876 L -109.594,23.2461 L -109.711,23.6044 L -109.871,23.9453
 L -110.073,24.2634 L -110.313,24.5536 L -110.588,24.8115 L -110.893,25.033 L -111.223,25.2145 L -111.573,25.3532
 L -111.938,25.4469 L -112.312,25.4941 z
" stroke="black" fill="lightgray" stroke-width="0.5"/>
</svg>
