<?xml version="1.0" standalone="no"?>
<!DOCTYPE svg PUBLIC "-//W3C//DTD SVG 1.1//EN" "http://www.w3.org/Graphics/SVG/1.1/DTD/svg11.dtd">
<svg width="74mm" height="30mm" viewBox="-37 -15 74 30" xmlns="http://www.w3.org/2000/svg" version="1.1">
<title>OpenSCAD Model</title>
<path d="
M 32.9369,14.4114 L 33.5451,14.2553 L 34.1289,14.0241 L 34.6791,13.7216 L 35.1871,13.3526 L 35.6448,12.9227
 L 36.0451,12.4389 L 36.3815,11.9088 L 36.6489,11.3406 L 36.8429,10.7434 L 36.9606,10.1267 L 37,9.5
 L 37,-9.5 L 36.9606,-10.1267 L 36.8429,-10.7434 L 36.6489,-11.3406 L 36.3815,-11.9088 L 36.0451,-12.4389
 L 35.6448,-12.9227 L 35.1871,-13.3526 L 34.6791,-13.7216 L 34.1289,-14.0241 L 33.5451,-14.2553 L 32.9369,-14.4114
 L 32.3139,-14.4901 L -32.3139,-14.4901 L -32.9369,-14.4114 L -33.5451,-14.2553 L -34.1289,-14.0241 L -34.6791,-13.7216
 L -35.1871,-13.3526 L -35.6448,-12.9227 L -36.0451,-12.4389 L -36.3815,-11.9088 L -36.6489,-11.3406 L -36.8429,-10.7434
 L -36.9606,-10.1267 L -37,-9.5 L -37,9.5 L -36.9606,10.1267 L -36.8429,10.7434 L -36.6489,11.3406
 L -36.3815,11.9088 L -36.0451,12.4389 L -35.6448,12.9227 L -35.1871,13.3526 L -34.6791,13.7216 L -34.1289,14.0241
 L -33.5451,14.2553 L -32.9369,14.4114 L -32.3139,14.4901 L 32.3139,14.4901 z
M 29.8116,-4.50591 L 29.4379,-4.55313 L 29.0729,-4.64682 L 28.7227,-4.78551 L 28.3925,-4.96701 L 28.0877,-5.18845
 L 27.8131,-5.44635 L 27.5729,-5.73663 L 27.3711,-6.05473 L 27.2107,-6.39561 L 27.0942,-6.75392 L 27.0237,-7.12399
 L 27,-7.5 L 27.0237,-7.87599 L 27.0942,-8.24606 L 27.2107,-8.60437 L 27.3711,-8.94525 L 27.5729,-9.26335
 L 27.8131,-9.55363 L 28.0877,-9.81154 L 28.3925,-10.033 L 28.7227,-10.2145 L 29.0729,-10.3532 L 29.4379,-10.4469
 L 29.8116,-10.4941 L 30.1884,-10.4941 L 30.5621,-10.4469 L 30.927,-10.3532 L 31.2773,-10.2145 L 31.6075,-10.033
 L 31.9123,-9.81154 L 32.1869,-9.55363 L 32.427,-9.26335 L 32.6289,-8.94525 L 32.7893,-8.60437 L 32.9057,-8.24606
 L 32.9763,-7.87599 L 33,-7.5 L 32.9763,-7.12399 L 32.9057,-6.75392 L 32.7893,-6.39561 L 32.6289,-6.05473
 L 32.427,-5.73663 L 32.1869,-5.44635 L 31.9123,-5.18845 L 31.6075,-4.96701 L 31.2773,-4.78551 L 30.927,-4.64682
 L 30.5621,-4.55313 L 30.1884,-4.50591 z
M -30.1884,-4.50591 L -30.5621,-4.55313 L -30.927,-4.64682 L -31.2773,-4.78551 L -31.6075,-4.96701 L -31.9123,-5.18845
 L -32.1869,-5.44635 L -32.427,-5.73663 L -32.6289,-6.05473 L -32.7893,-6.39561 L -32.9057,-6.75392 L -32.9763,-7.12399
 L -33,-7.5 L -32.9763,-7.87599 L -32.9057,-8.24606 L -32.7893,-8.60437 L -32.6289,-8.94525 L -32.427,-9.26335
 L -32.1869,-9.55363 L -31.9123,-9.81154 L -31.6075,-10.033 L -31.2773,-10.2145 L -30.927,-10.3532 L -30.5621,-10.4469
 L -30.1884,-10.4941 L -29.8116,-10.4941 L -29.4379,-10.4469 L -29.0729,-10.3532 L -28.7227,-10.2145 L -28.3925,-10.033
 L -28.0877,-9.81154 L -27.8131,-9.55363 L -27.5729,-9.26335 L -27.3711,-8.94525 L -27.2107,-8.60437 L -27.0942,-8.24606
 L -27.0237,-7.87599 L -27,-7.5 L -27.0237,-7.12399 L -27.0942,-6.75392 L -27.2107,-6.39561 L -27.3711,-6.05473
 L -27.5729,-5.73663 L -27.8131,-5.44635 L -28.0877,-5.18845 L -28.3925,-4.96701 L -28.7227,-4.78551 L -29.0729,-4.64682
 L -29.4379,-4.55313 L -29.8116,-4.50591 z
M 16.6232,5.98816 L 15.8757,5.89372 L 15.1459,5.70633 L 14.4453,5.42896 L 13.785,5.06596 L 13.1754,4.62308
 L 12.6262,4.10727 L 12.1459,3.5267 L 11.7422,2.89052 L 11.4213,2.20874 L 11.1885,1.49213 L 11.0473,0.751999
 L 11,-0 L 11.0473,-0.751999 L 11.1885,-1.49213 L 11.4213,-2.20874 L 11.7422,-2.89052 L 12.1459,-3.5267
 L 12.6262,-4.10727 L 13.1754,-4.62308 L 13.785,-5.06596 L 14.4453,-5.42896 L 15.1459,-5.70633 L 15.8757,-5.89372
 L 16.6232,-5.98816 L 17.3767,-5.98816 L 18.1243,-5.89372 L 18.8541,-5.70633 L 19.5547,-5.42896 L 20.215,-5.06596
 L 20.8245,-4.62308 L 21.3738,-4.10727 L 21.8541,-3.5267 L 22.2578,-2.89052 L 22.5787,-2.20874 L 22.8115,-1.49213
 L 22.9527,-0.751999 L 23,-0 L 22.9527,0.751999 L 22.8115,1.49213 L 22.5787,2.20874 L 22.2578,2.89052
 L 21.8541,3.5267 L 21.3738,4.10727 L 20.8245,4.62308 L 20.215,5.06596 L 19.5547,5.42896 L 18.8541,5.70633
 L 18.1243,5.89372 L 17.3767,5.98816 z
M -17.3767,5.98816 L -18.1243,5.89372 L -18.8541,5.70633 L -19.5547,5.42896 L -20.215,5.06596 L -20.8245,4.62308
 L -21.3738,4.10727 L -21.8541,3.5267 L -22.2578,2.89052 L -22.5787,2.20874 L -22.8115,1.49213 L -22.9527,0.751999
 L -23,-0 L -22.9527,-0.751999 L -22.8115,-1.49213 L -22.5787,-2.20874 L -22.2578,-2.89052 L -21.8541,-3.5267
 L -21.3738,-4.10727 L -20.8245,-4.62308 L -20.215,-5.06596 L -19.5547,-5.42896 L -18.8541,-5.70633 L -18.1243,-5.89372
 L -17.3767,-5.98816 L -16.6232,-5.98816 L -15.8757,-5.89372 L -15.1459,-5.70633 L -14.4453,-5.42896 L -13.785,-5.06596
 L -13.1754,-4.62308 L -12.6262,-4.10727 L -12.1459,-3.5267 L -11.7422,-2.89052 L -11.4213,-2.20874 L -11.1885,-1.49213
 L -11.0473,-0.751999 L -11,-0 L -11.0473,0.751999 L -11.1885,1.49213 L -11.4213,2.20874 L -11.7422,2.89052
 L -12.1459,3.5267 L -12.6262,4.10727 L -13.1754,4.62308 L -13.785,5.06596 L -14.4453,5.42896 L -15.1459,5.70633
 L -15.8757,5.89372 L -16.6232,5.98816 z
M -0.37674,5.98816 L -1.12428,5.89372 L -1.8541,5.70633 L -2.55467,5.42896 L -3.21495,5.06596 L -3.82454,4.62308
 L -4.37381,4.10727 L -4.8541,3.5267 L -5.25783,2.89052 L -5.57864,2.20874 L -5.81149,1.49213 L -5.95268,0.751999
 L -6,-0 L -5.95268,-0.751999 L -5.81149,-1.49213 L -5.57864,-2.20874 L -5.25783,-2.89052 L -4.8541,-3.5267
 L -4.37381,-4.10727 L -3.82454,-4.62308 L -3.21495,-5.06596 L -2.55467,-5.42896 L -1.8541,-5.70633 L -1.12428,-5.89372
 L -0.37674,-5.98816 L 0.37674,-5.98816 L 1.12428,-5.89372 L 1.8541,-5.70633 L 2.55467,-5.42896 L 3.21495,-5.06596
 L 3.82454,-4.62308 L 4.37381,-4.10727 L 4.8541,-3.5267 L 5.25783,-2.89052 L 5.57864,-2.20874 L 5.81149,-1.49213
 L 5.95268,-0.751999 L 6,-0 L 5.95268,0.751999 L 5.81149,1.49213 L 5.57864,2.20874 L 5.25783,2.89052
 L 4.8541,3.5267 L 4.37381,4.10727 L 3.82454,4.62308 L 3.21495,5.06596 L 2.55467,5.42896 L 1.8541,5.70633
 L 1.12428,5.89372 L 0.37674,5.98816 z
M 29.9058,1.49704 L 29.7189,1.47342 L 29.5365,1.42657 L 29.3613,1.35724 L 29.1963,1.26648 L 29.0439,1.15576
 L 28.9065,1.02681 L 28.7865,0.881668 L 28.6855,0.722626 L 28.6053,0.552185 L 28.5471,0.373032 L 28.5118,0.187988
 L 28.5,-0 L 28.5118,-0.187988 L 28.5471,-0.373032 L 28.6053,-0.552185 L 28.6855,-0.722626 L 28.7865,-0.881668
 L 28.9065,-1.02681 L 29.0439,-1.15576 L 29.1963,-1.26648 L 29.3613,-1.35724 L 29.5365,-1.42657 L 29.7189,-1.47342
 L 29.9058,-1.49704 L 30.0942,-1.49704 L 30.2811,-1.47342 L 30.4635,-1.42657 L 30.6387,-1.35724 L 30.8037,-1.26648
 L 30.9561,-1.15576 L 31.0934,-1.02681 L 31.2135,-0.881668 L 31.3145,-0.722626 L 31.3947,-0.552185 L 31.4529,-0.373032
 L 31.4882,-0.187988 L 31.5,-0 L 31.4882,0.187988 L 31.4529,0.373032 L 31.3947,0.552185 L 31.3145,0.722626
 L 31.2135,0.881668 L 31.0934,1.02681 L 30.9561,1.15576 L 30.8037,1.26648 L 30.6387,1.35724 L 30.4635,1.42657
 L 30.2811,1.47342 L 30.0942,1.49704 z
M -30.0942,1.49704 L -30.2811,1.47342 L -30.4635,1.42657 L -30.6387,1.35724 L -30.8037,1.26648 L -30.9561,1.15576
 L -31.0934,1.02681 L -31.2135,0.881668 L -31.3145,0.722626 L -31.3947,0.552185 L -31.4529,0.373032 L -31.4882,0.187988
 L -31.5,-0 L -31.4882,-0.187988 L -31.4529,-0.373032 L -31.3947,-0.552185 L -31.3145,-0.722626 L -31.2135,-0.881668
 L -31.0934,-1.02681 L -30.9561,-1.15576 L -30.8037,-1.26648 L -30.6387,-1.35724 L -30.4635,-1.42657 L -30.2811,-1.47342
 L -30.0942,-1.49704 L -29.9058,-1.49704 L -29.7189,-1.47342 L -29.5365,-1.42657 L -29.3613,-1.35724 L -29.1963,-1.26648
 L -29.0439,-1.15576 L -28.9065,-1.02681 L -28.7865,-0.881668 L -28.6855,-0.722626 L -28.6053,-0.552185 L -28.5471,-0.373032
 L -28.5118,-0.187988 L -28.5,-0 L -28.5118,0.187988 L -28.5471,0.373032 L -28.6053,0.552185 L -28.6855,0.722626
 L -28.7865,0.881668 L -28.9065,1.02681 L -29.0439,1.15576 L -29.1963,1.26648 L -29.3613,1.35724 L -29.5365,1.42657
 L -29.7189,1.47342 L -29.9058,1.49704 z
M 29.8116,10.4941 L 29.4379,10.4469 L 29.0729,10.3532 L 28.7227,10.2145 L 28.3925,10.033 L 28.0877,9.81154
 L 27.8131,9.55363 L 27.5729,9.26335 L 27.3711,8.94525 L 27.2107,8.60437 L 27.0942,8.24606 L 27.0237,7.87599
 L 27,7.5 L 27.0237,7.12399 L 27.0942,6.75392 L 27.2107,6.39561 L 27.3711,6.05473 L 27.5729,5.73663
 L 27.8131,5.44635 L 28.0877,5.18845 L 28.3925,4.96701 L 28.7227,4.78551 L 29.0729,4.64682 L 29.4379,4.55313
 L 29.8116,4.50591 L 30.1884,4.50591 L 30.5621,4.55313 L 30.927,4.64682 L 31.2773,4.78551 L 31.6075,4.96701
 L 31.9123,5.18845 L 32.1869,5.44635 L 32.427,5.73663 L 32.6289,6.05473 L 32.7893,6.39561 L 32.9057,6.75392
 L 32.9763,7.12399 L 33,7.5 L 32.9763,7.87599 L 32.9057,8.24606 L 32.7893,8.60437 L 32.6289,8.94525
 L 32.427,9.26335 L 32.1869,9.55363 L 31.9123,9.81154 L 31.6075,10.033 L 31.2773,10.2145 L 30.927,10.3532
 L 30.5621,10.4469 L 30.1884,10.4941 z
M -30.1884,10.4941 L -30.5621,10.4469 L -30.927,10.3532 L -31.2773,10.2145 L -31.6075,10.033 L -31.9123,9.81154
 L -32.1869,9.55363 L -32.427,9.26335 L -32.6289,8.94525 L -32.7893,8.60437 L -32.9057,8.24606 L -32.9763,7.87599
 L -33,7.5 L -32.9763,7.12399 L -32.9057,6.75392 L -32.7893,6.39561 L -32.6289,6.05473 L -32.427,5.73663
 L -32.1869,5.44635 L -31.9123,5.18845 L -31.6075,4.96701 L -31.2773,4.78551 L -30.927,4.64682 L -30.5621,4.55313
 L -30.1884,4.50591 L -29.8116,4.50591 L -29.4379,4.55313 L -29.0729,4.64682 L -28.7227,4.78551 L -28.3925,4.96701
 L -28.0877,5.18845 L -27.8131,5.44635 L -27.5729,5.73663 L -27.3711,6.05473 L -27.2107,6.39561 L -27.0942,6.75392
 L -27.0237,7.12399 L -27,7.5 L -27.0237,7.87599 L -27.0942,8.24606 L -27.2107,8.60437 L -27.3711,8.94525
 L -27.5729,9.26335 L -27.8131,9.55363 L -28.0877,9.81154 L -28.3925,10.033 L -28.7227,10.2145 L -29.0729,10.3532
 L -29.4379,10.4469 L -29.8116,10.4941 z
" stroke="black" fill="lightgray" stroke-width="0.5"/>
</svg>
