<?xml version="1.0" standalone="no"?>
<!DOCTYPE svg PUBLIC "-//W3C//DTD SVG 1.1//EN" "http://www.w3.org/Graphics/SVG/1.1/DTD/svg11.dtd">
<svg width="44mm" height="60mm" viewBox="-22 -99 44 60" xmlns="http://www.w3.org/2000/svg" version="1.1">
<title>OpenSCAD Model</title>
<path d="
M 17.9369,-39.5886 L 18.5451,-39.7447 L 19.1289,-39.9759 L 19.6791,-40.2784 L 20.1871,-40.6474 L 20.6448,-41.0773
 L 21.0451,-41.5611 L 21.3815,-42.0912 L 21.6489,-42.6594 L 21.8429,-43.2566 L 21.9606,-43.8733 L 22,-44.5
 L 22,-93.5 L 21.9606,-94.1267 L 21.8429,-94.7434 L 21.6489,-95.3406 L 21.3815,-95.9088 L 21.0451,-96.4389
 L 20.6448,-96.9227 L 20.1871,-97.3526 L 19.6791,-97.7216 L 19.1289,-98.0241 L 18.5451,-98.2553 L 17.9369,-98.4114
 L 17.3139,-98.4901 L -17.3139,-98.4901 L -17.9369,-98.4114 L -18.5451,-98.2553 L -19.1289,-98.0241 L -19.6791,-97.7216
 L -20.1871,-97.3526 L -20.6448,-96.9227 L -21.0451,-96.4389 L -21.3815,-95.9088 L -21.6489,-95.3406 L -21.8429,-94.7434
 L -21.9606,-94.1267 L -22,-93.5 L -22,-44.5 L -21.9606,-43.8733 L -21.8429,-43.2566 L -21.6489,-42.6594
 L -21.3815,-42.0912 L -21.0451,-41.5611 L -20.6448,-41.0773 L -20.1871,-40.6474 L -19.6791,-40.2784 L -19.1289,-39.9759
 L -18.5451,-39.7447 L -17.9369,-39.5886 L -17.3139,-39.5099 L 17.3139,-39.5099 z
M -15.1884,-88.5059 L -15.5621,-88.5531 L -15.927,-88.6468 L -16.2773,-88.7855 L -16.6075,-88.967 L -16.9123,-89.1884
 L -17.1869,-89.4464 L -17.427,-89.7366 L -17.6289,-90.0547 L -17.7893,-90.3956 L -17.9057,-90.7539 L -17.9763,-91.124
 L -18,-91.5 L -17.9763,-91.876 L -17.9057,-92.2461 L -17.7893,-92.6044 L -17.6289,-92.9453 L -17.427,-93.2634
 L -17.1869,-93.5536 L -16.9123,-93.8115 L -16.6075,-94.033 L -16.2773,-94.2145 L -15.927,-94.3532 L -15.5621,-94.4469
 L -15.1884,-94.4941 L -14.8116,-94.4941 L -14.4379,-94.4469 L -14.0729,-94.3532 L -13.7227,-94.2145 L -13.3925,-94.033
 L -13.0877,-93.8115 L -12.8131,-93.5536 L -12.5729,-93.2634 L -12.3711,-92.9453 L -12.2107,-92.6044 L -12.0942,-92.2461
 L -12.0237,-91.876 L -12,-91.5 L -12.0237,-91.124 L -12.0942,-90.7539 L -12.2107,-90.3956 L -12.3711,-90.0547
 L -12.5729,-89.7366 L -12.8131,-89.4464 L -13.0877,-89.1884 L -13.3925,-88.967 L -13.7227,-88.7855 L -14.0729,-88.6468
 L -14.4379,-88.5531 L -14.8116,-88.5059 z
M -0.18837,-88.5059 L -0.562134,-88.5531 L -0.927048,-88.6468 L -1.27733,-88.7855 L -1.60747,-88.967 L -1.91226,-89.1884
 L -2.1869,-89.4464 L -2.42705,-89.7366 L -2.62891,-90.0547 L -2.78932,-90.3956 L -2.90575,-90.7539 L -2.97633,-91.124
 L -3,-91.5 L -2.97633,-91.876 L -2.90575,-92.2461 L -2.78932,-92.6044 L -2.62891,-92.9453 L -2.42705,-93.2634
 L -2.1869,-93.5536 L -1.91226,-93.8115 L -1.60747,-94.033 L -1.27733,-94.2145 L -0.927048,-94.3532 L -0.562134,-94.4469
 L -0.18837,-94.4941 L 0.18837,-94.4941 L 0.562134,-94.4469 L 0.927048,-94.3532 L 1.27733,-94.2145 L 1.60747,-94.033
 L 1.91226,-93.8115 L 2.1869,-93.5536 L 2.42705,-93.2634 L 2.62891,-92.9453 L 2.78932,-92.6044 L 2.90575,-92.2461
 L 2.97633,-91.876 L 3,-91.5 L 2.97633,-91.124 L 2.90575,-90.7539 L 2.78932,-90.3956 L 2.62891,-90.0547
 L 2.42705,-89.7366 L 2.1869,-89.4464 L 1.91226,-89.1884 L 1.60747,-88.967 L 1.27733,-88.7855 L 0.927048,-88.6468
 L 0.562134,-88.5531 L 0.18837,-88.5059 z
M 14.8116,-88.5059 L 14.4379,-88.5531 L 14.0729,-88.6468 L 13.7227,-88.7855 L 13.3925,-88.967 L 13.0877,-89.1884
 L 12.8131,-89.4464 L 12.5729,-89.7366 L 12.3711,-90.0547 L 12.2107,-90.3956 L 12.0942,-90.7539 L 12.0237,-91.124
 L 12,-91.5 L 12.0237,-91.876 L 12.0942,-92.2461 L 12.2107,-92.6044 L 12.3711,-92.9453 L 12.5729,-93.2634
 L 12.8131,-93.5536 L 13.0877,-93.8115 L 13.3925,-94.033 L 13.7227,-94.2145 L 14.0729,-94.3532 L 14.4379,-94.4469
 L 14.8116,-94.4941 L 15.1884,-94.4941 L 15.5621,-94.4469 L 15.927,-94.3532 L 16.2773,-94.2145 L 16.6075,-94.033
 L 16.9123,-93.8115 L 17.1869,-93.5536 L 17.427,-93.2634 L 17.6289,-92.9453 L 17.7893,-92.6044 L 17.9057,-92.2461
 L 17.9763,-91.876 L 18,-91.5 L 17.9763,-91.124 L 17.9057,-90.7539 L 17.7893,-90.3956 L 17.6289,-90.0547
 L 17.427,-89.7366 L 17.1869,-89.4464 L 16.9123,-89.1884 L 16.6075,-88.967 L 16.2773,-88.7855 L 15.927,-88.6468
 L 15.5621,-88.5531 L 15.1884,-88.5059 z
M 7.40581,-90.003 L 7.21892,-90.0266 L 7.03647,-90.0734 L 6.86133,-90.1427 L 6.69626,-90.2335 L 6.54385,-90.3442
 L 6.40654,-90.4732 L 6.28647,-90.6183 L 6.18553,-90.7774 L 6.10533,-90.9478 L 6.04712,-91.127 L 6.01183,-91.312
 L 6,-91.5 L 6.01183,-91.688 L 6.04712,-91.873 L 6.10533,-92.0522 L 6.18553,-92.2226 L 6.28647,-92.3817
 L 6.40654,-92.5268 L 6.54385,-92.6558 L 6.69626,-92.7665 L 6.86133,-92.8572 L 7.03647,-92.9266 L 7.21892,-92.9734
 L 7.40581,-92.997 L 7.59418,-92.997 L 7.78107,-92.9734 L 7.96352,-92.9266 L 8.13866,-92.8572 L 8.30373,-92.7665
 L 8.45613,-92.6558 L 8.59344,-92.5268 L 8.71352,-92.3817 L 8.81445,-92.2226 L 8.89465,-92.0522 L 8.95287,-91.873
 L 8.98816,-91.688 L 9,-91.5 L 8.98816,-91.312 L 8.95287,-91.127 L 8.89465,-90.9478 L 8.81445,-90.7774
 L 8.71352,-90.6183 L 8.59344,-90.4732 L 8.45613,-90.3442 L 8.30373,-90.2335 L 8.13866,-90.1427 L 7.96352,-90.0734
 L 7.78107,-90.0266 L 7.59418,-90.003 z
M -7.59418,-90.003 L -7.78107,-90.0266 L -7.96352,-90.0734 L -8.13866,-90.1427 L -8.30373,-90.2335 L -8.45613,-90.3442
 L -8.59344,-90.4732 L -8.71352,-90.6183 L -8.81445,-90.7774 L -8.89465,-90.9478 L -8.95287,-91.127 L -8.98816,-91.312
 L -9,-91.5 L -8.98816,-91.688 L -8.95287,-91.873 L -8.89465,-92.0522 L -8.81445,-92.2226 L -8.71352,-92.3817
 L -8.59344,-92.5268 L -8.45613,-92.6558 L -8.30373,-92.7665 L -8.13866,-92.8572 L -7.96352,-92.9266 L -7.78107,-92.9734
 L -7.59418,-92.997 L -7.40581,-92.997 L -7.21892,-92.9734 L -7.03647,-92.9266 L -6.86133,-92.8572 L -6.69626,-92.7665
 L -6.54385,-92.6558 L -6.40654,-92.5268 L -6.28647,-92.3817 L -6.18553,-92.2226 L -6.10533,-92.0522 L -6.04712,-91.873
 L -6.01183,-91.688 L -6,-91.5 L -6.01183,-91.312 L -6.04712,-91.127 L -6.10533,-90.9478 L -6.18553,-90.7774
 L -6.28647,-90.6183 L -6.40654,-90.4732 L -6.54385,-90.3442 L -6.69626,-90.2335 L -6.86133,-90.1427 L -7.03647,-90.0734
 L -7.21892,-90.0266 L -7.40581,-90.003 z
M -0.784866,-56.5247 L -2.34225,-56.7214 L -3.8627,-57.1118 L -5.32224,-57.6897 L -6.69783,-58.4459 L -7.96779,-59.3686
 L -9.11211,-60.4432 L -10.1127,-61.6527 L -10.9538,-62.9781 L -11.6222,-64.3985 L -12.1073,-65.8914 L -12.4014,-67.4333
 L -12.5,-69 L -12.4014,-70.5667 L -12.1073,-72.1086 L -11.6222,-73.6015 L -10.9538,-75.0219 L -10.1127,-76.3473
 L -9.11211,-77.5568 L -7.96779,-78.6314 L -6.69783,-79.5541 L -5.32224,-80.3103 L -3.8627,-80.8882 L -2.34225,-81.2786
 L -0.784866,-81.4753 L 0.784866,-81.4753 L 2.34225,-81.2786 L 3.8627,-80.8882 L 5.32224,-80.3103 L 6.69783,-79.5541
 L 7.96779,-78.6314 L 9.11211,-77.5568 L 10.1127,-76.3473 L 10.9538,-75.0219 L 11.6222,-73.6015 L 12.1073,-72.1086
 L 12.4014,-70.5667 L 12.5,-69 L 12.4014,-67.4333 L 12.1073,-65.8914 L 11.6222,-64.3985 L 10.9538,-62.9781
 L 10.1127,-61.6527 L 9.11211,-60.4432 L 7.96779,-59.3686 L 6.69783,-58.4459 L 5.32224,-57.6897 L 3.8627,-57.1118
 L 2.34225,-56.7214 L 0.784866,-56.5247 z
M 14.8116,-43.5059 L 14.4379,-43.5531 L 14.0729,-43.6468 L 13.7227,-43.7855 L 13.3925,-43.967 L 13.0877,-44.1885
 L 12.8131,-44.4464 L 12.5729,-44.7366 L 12.3711,-45.0547 L 12.2107,-45.3956 L 12.0942,-45.7539 L 12.0237,-46.124
 L 12,-46.5 L 12.0237,-46.876 L 12.0942,-47.2461 L 12.2107,-47.6044 L 12.3711,-47.9453 L 12.5729,-48.2634
 L 12.8131,-48.5536 L 13.0877,-48.8116 L 13.3925,-49.033 L 13.7227,-49.2145 L 14.0729,-49.3532 L 14.4379,-49.4469
 L 14.8116,-49.4941 L 15.1884,-49.4941 L 15.5621,-49.4469 L 15.927,-49.3532 L 16.2773,-49.2145 L 16.6075,-49.033
 L 16.9123,-48.8116 L 17.1869,-48.5536 L 17.427,-48.2634 L 17.6289,-47.9453 L 17.7893,-47.6044 L 17.9057,-47.2461
 L 17.9763,-46.876 L 18,-46.5 L 17.9763,-46.124 L 17.9057,-45.7539 L 17.7893,-45.3956 L 17.6289,-45.0547
 L 17.427,-44.7366 L 17.1869,-44.4464 L 16.9123,-44.1885 L 16.6075,-43.967 L 16.2773,-43.7855 L 15.927,-43.6468
 L 15.5621,-43.5531 L 15.1884,-43.5059 z
M -0.18837,-43.5059 L -0.562134,-43.5531 L -0.927048,-43.6468 L -1.27733,-43.7855 L -1.60747,-43.967 L -1.91226,-44.1885
 L -2.1869,-44.4464 L -2.42705,-44.7366 L -2.62891,-45.0547 L -2.78932,-45.3956 L -2.90575,-45.7539 L -2.97633,-46.124
 L -3,-46.5 L -2.97633,-46.876 L -2.90575,-47.2461 L -2.78932,-47.6044 L -2.62891,-47.9453 L -2.42705,-48.2634
 L -2.1869,-48.5536 L -1.91226,-48.8116 L -1.60747,-49.033 L -1.27733,-49.2145 L -0.927048,-49.3532 L -0.562134,-49.4469
 L -0.18837,-49.4941 L 0.18837,-49.4941 L 0.562134,-49.4469 L 0.927048,-49.3532 L 1.27733,-49.2145 L 1.60747,-49.033
 L 1.91226,-48.8116 L 2.1869,-48.5536 L 2.42705,-48.2634 L 2.62891,-47.9453 L 2.78932,-47.6044 L 2.90575,-47.2461
 L 2.97633,-46.876 L 3,-46.5 L 2.97633,-46.124 L 2.90575,-45.7539 L 2.78932,-45.3956 L 2.62891,-45.0547
 L 2.42705,-44.7366 L 2.1869,-44.4464 L 1.91226,-44.1885 L 1.60747,-43.967 L 1.27733,-43.7855 L 0.927048,-43.6468
 L 0.562134,-43.5531 L 0.18837,-43.5059 z
M -15.1884,-43.5059 L -15.5621,-43.5531 L -15.927,-43.6468 L -16.2773,-43.7855 L -16.6075,-43.967 L -16.9123,-44.1885
 L -17.1869,-44.4464 L -17.427,-44.7366 L -17.6289,-45.0547 L -17.7893,-45.3956 L -17.9057,-45.7539 L -17.9763,-46.124
 L -18,-46.5 L -17.9763,-46.876 L -17.9057,-47.2461 L -17.7893,-47.6044 L -17.6289,-47.9453 L -17.427,-48.2634
 L -17.1869,-48.5536 L -16.9123,-48.8116 L -16.6075,-49.033 L -16.2773,-49.2145 L -15.927,-49.3532 L -15.5621,-49.4469
 L -15.1884,-49.4941 L -14.8116,-49.4941 L -14.4379,-49.4469 L -14.0729,-49.3532 L -13.7227,-49.2145 L -13.3925,-49.033
 L -13.0877,-48.8116 L -12.8131,-48.5536 L -12.5729,-48.2634 L -12.3711,-47.9453 L -12.2107,-47.6044 L -12.0942,-47.2461
 L -12.0237,-46.876 L -12,-46.5 L -12.0237,-46.124 L -12.0942,-45.7539 L -12.2107,-45.3956 L -12.3711,-45.0547
 L -12.5729,-44.7366 L -12.8131,-44.4464 L -13.0877,-44.1885 L -13.3925,-43.967 L -13.7227,-43.7855 L -14.0729,-43.6468
 L -14.4379,-43.5531 L -14.8116,-43.5059 z
M 7.40581,-45.003 L 7.21892,-45.0266 L 7.03647,-45.0734 L 6.86133,-45.1428 L 6.69626,-45.2335 L 6.54385,-45.3442
 L 6.40654,-45.4732 L 6.28647,-45.6183 L 6.18553,-45.7774 L 6.10533,-45.9478 L 6.04712,-46.127 L 6.01183,-46.312
 L 6,-46.5 L 6.01183,-46.688 L 6.04712,-46.873 L 6.10533,-47.0522 L 6.18553,-47.2226 L 6.28647,-47.3817
 L 6.40654,-47.5268 L 6.54385,-47.6558 L 6.69626,-47.7665 L 6.86133,-47.8573 L 7.03647,-47.9266 L 7.21892,-47.9734
 L 7.40581,-47.997 L 7.59418,-47.997 L 7.78107,-47.9734 L 7.96352,-47.9266 L 8.13866,-47.8573 L 8.30373,-47.7665
 L 8.45613,-47.6558 L 8.59344,-47.5268 L 8.71352,-47.3817 L 8.81445,-47.2226 L 8.89465,-47.0522 L 8.95287,-46.873
 L 8.98816,-46.688 L 9,-46.5 L 8.98816,-46.312 L 8.95287,-46.127 L 8.89465,-45.9478 L 8.81445,-45.7774
 L 8.71352,-45.6183 L 8.59344,-45.4732 L 8.45613,-45.3442 L 8.30373,-45.2335 L 8.13866,-45.1428 L 7.96352,-45.0734
 L 7.78107,-45.0266 L 7.59418,-45.003 z
M -7.59418,-45.003 L -7.78107,-45.0266 L -7.96352,-45.0734 L -8.13866,-45.1428 L -8.30373,-45.2335 L -8.45613,-45.3442
 L -8.59344,-45.4732 L -8.71352,-45.6183 L -8.81445,-45.7774 L -8.89465,-45.9478 L -8.95287,-46.127 L -8.98816,-46.312
 L -9,-46.5 L -8.98816,-46.688 L -8.95287,-46.873 L -8.89465,-47.0522 L -8.81445,-47.2226 L -8.71352,-47.3817
 L -8.59344,-47.5268 L -8.45613,-47.6558 L -8.30373,-47.7665 L -8.13866,-47.8573 L -7.96352,-47.9266 L -7.78107,-47.9734
 L -7.59418,-47.997 L -7.40581,-47.997 L -7.21892,-47.9734 L -7.03647,-47.9266 L -6.86133,-47.8573 L -6.69626,-47.7665
 L -6.54385,-47.6558 L -6.40654,-47.5268 L -6.28647,-47.3817 L -6.18553,-47.2226 L -6.10533,-47.0522 L -6.04712,-46.873
 L -6.01183,-46.688 L -6,-46.5 L -6.01183,-46.312 L -6.04712,-46.127 L -6.10533,-45.9478 L -6.18553,-45.7774
 L -6.28647,-45.6183 L -6.40654,-45.4732 L -6.54385,-45.3442 L -6.69626,-45.2335 L -6.86133,-45.1428 L -7.03647,-45.0734
 L -7.21892,-45.0266 L -7.40581,-45.003 z
" stroke="black" fill="lightgray" stroke-width="0.5"/>
</svg>
