  0
SECTION
  2
BLOCKS
  0
ENDSEC
  0
SECTION
  2
ENTITIES
  0
LINE
  8
0
 10
47.9369
 20
62.0886
 11
48.5451
 21
62.2447
  0
LINE
  8
0
 10
48.5451
 20
62.2447
 11
49.1289
 21
62.4759
  0
LINE
  8
0
 10
49.1289
 20
62.4759
 11
49.6791
 21
62.7784
  0
LINE
  8
0
 10
49.6791
 20
62.7784
 11
50.1871
 21
63.1474
  0
LINE
  8
0
 10
50.1871
 20
63.1474
 11
50.6448
 21
63.5773
  0
LINE
  8
0
 10
50.6448
 20
63.5773
 11
51.0451
 21
64.0611
  0
LINE
  8
0
 10
51.0451
 20
64.0611
 11
51.3815
 21
64.5912
  0
LINE
  8
0
 10
51.3815
 20
64.5912
 11
51.6489
 21
65.1594
  0
LINE
  8
0
 10
51.6489
 20
65.1594
 11
51.8429
 21
65.7566
  0
LINE
  8
0
 10
51.8429
 20
65.7566
 11
51.9606
 21
66.3733
  0
LINE
  8
0
 10
51.9606
 20
66.3733
 11
52
 21
67
  0
LINE
  8
0
 10
52
 20
67
 11
52
 21
161
  0
LINE
  8
0
 10
52
 20
161
 11
51.9606
 21
161.627
  0
LINE
  8
0
 10
51.9606
 20
161.627
 11
51.8429
 21
162.243
  0
LINE
  8
0
 10
51.8429
 20
162.243
 11
51.6489
 21
162.841
  0
LINE
  8
0
 10
51.6489
 20
162.841
 11
51.3815
 21
163.409
  0
LINE
  8
0
 10
51.3815
 20
163.409
 11
51.0451
 21
163.939
  0
LINE
  8
0
 10
51.0451
 20
163.939
 11
50.6448
 21
164.423
  0
LINE
  8
0
 10
50.6448
 20
164.423
 11
50.1871
 21
164.853
  0
LINE
  8
0
 10
50.1871
 20
164.853
 11
49.6791
 21
165.222
  0
LINE
  8
0
 10
49.6791
 20
165.222
 11
49.1289
 21
165.524
  0
LINE
  8
0
 10
49.1289
 20
165.524
 11
48.5451
 21
165.755
  0
LINE
  8
0
 10
48.5451
 20
165.755
 11
47.9369
 21
165.911
  0
LINE
  8
0
 10
47.9369
 20
165.911
 11
47.3139
 21
165.99
  0
LINE
  8
0
 10
47.3139
 20
165.99
 11
-47.3139
 21
165.99
  0
LINE
  8
0
 10
-47.3139
 20
165.99
 11
-47.9369
 21
165.911
  0
LINE
  8
0
 10
-47.9369
 20
165.911
 11
-48.5451
 21
165.755
  0
LINE
  8
0
 10
-48.5451
 20
165.755
 11
-49.1289
 21
165.524
  0
LINE
  8
0
 10
-49.1289
 20
165.524
 11
-49.6791
 21
165.222
  0
LINE
  8
0
 10
-49.6791
 20
165.222
 11
-50.1871
 21
164.853
  0
LINE
  8
0
 10
-50.1871
 20
164.853
 11
-50.6448
 21
164.423
  0
LINE
  8
0
 10
-50.6448
 20
164.423
 11
-51.0451
 21
163.939
  0
LINE
  8
0
 10
-51.0451
 20
163.939
 11
-51.3815
 21
163.409
  0
LINE
  8
0
 10
-51.3815
 20
163.409
 11
-51.6489
 21
162.841
  0
LINE
  8
0
 10
-51.6489
 20
162.841
 11
-51.8429
 21
162.243
  0
LINE
  8
0
 10
-51.8429
 20
162.243
 11
-51.9606
 21
161.627
  0
LINE
  8
0
 10
-51.9606
 20
161.627
 11
-52
 21
161
  0
LINE
  8
0
 10
-52
 20
161
 11
-52
 21
67
  0
LINE
  8
0
 10
-52
 20
67
 11
-51.9606
 21
66.3733
  0
LINE
  8
0
 10
-51.9606
 20
66.3733
 11
-51.8429
 21
65.7566
  0
LINE
  8
0
 10
-51.8429
 20
65.7566
 11
-51.6489
 21
65.1594
  0
LINE
  8
0
 10
-51.6489
 20
65.1594
 11
-51.3815
 21
64.5912
  0
LINE
  8
0
 10
-51.3815
 20
64.5912
 11
-51.0451
 21
64.0611
  0
LINE
  8
0
 10
-51.0451
 20
64.0611
 11
-50.6448
 21
63.5773
  0
LINE
  8
0
 10
-50.6448
 20
63.5773
 11
-50.1871
 21
63.1474
  0
LINE
  8
0
 10
-50.1871
 20
63.1474
 11
-49.6791
 21
62.7784
  0
LINE
  8
0
 10
-49.6791
 20
62.7784
 11
-49.1289
 21
62.4759
  0
LINE
  8
0
 10
-49.1289
 20
62.4759
 11
-48.5451
 21
62.2447
  0
LINE
  8
0
 10
-48.5451
 20
62.2447
 11
-47.9369
 21
62.0886
  0
LINE
  8
0
 10
-47.9369
 20
62.0886
 11
-47.3139
 21
62.0099
  0
LINE
  8
0
 10
-47.3139
 20
62.0099
 11
47.3139
 21
62.0099
  0
LINE
  8
0
 10
47.3139
 20
62.0099
 11
47.9369
 21
62.0886
  0
LINE
  8
0
 10
14.8116
 20
156.006
 11
14.4379
 21
156.053
  0
LINE
  8
0
 10
14.4379
 20
156.053
 11
14.0729
 21
156.147
  0
LINE
  8
0
 10
14.0729
 20
156.147
 11
13.7227
 21
156.286
  0
LINE
  8
0
 10
13.7227
 20
156.286
 11
13.3925
 21
156.467
  0
LINE
  8
0
 10
13.3925
 20
156.467
 11
13.0877
 21
156.688
  0
LINE
  8
0
 10
13.0877
 20
156.688
 11
12.8131
 21
156.946
  0
LINE
  8
0
 10
12.8131
 20
156.946
 11
12.5729
 21
157.237
  0
LINE
  8
0
 10
12.5729
 20
157.237
 11
12.3711
 21
157.555
  0
LINE
  8
0
 10
12.3711
 20
157.555
 11
12.2107
 21
157.896
  0
LINE
  8
0
 10
12.2107
 20
157.896
 11
12.0942
 21
158.254
  0
LINE
  8
0
 10
12.0942
 20
158.254
 11
12.0237
 21
158.624
  0
LINE
  8
0
 10
12.0237
 20
158.624
 11
12
 21
159
  0
LINE
  8
0
 10
12
 20
159
 11
12.0237
 21
159.376
  0
LINE
  8
0
 10
12.0237
 20
159.376
 11
12.0942
 21
159.746
  0
LINE
  8
0
 10
12.0942
 20
159.746
 11
12.2107
 21
160.104
  0
LINE
  8
0
 10
12.2107
 20
160.104
 11
12.3711
 21
160.445
  0
LINE
  8
0
 10
12.3711
 20
160.445
 11
12.5729
 21
160.763
  0
LINE
  8
0
 10
12.5729
 20
160.763
 11
12.8131
 21
161.054
  0
LINE
  8
0
 10
12.8131
 20
161.054
 11
13.0877
 21
161.312
  0
LINE
  8
0
 10
13.0877
 20
161.312
 11
13.3925
 21
161.533
  0
LINE
  8
0
 10
13.3925
 20
161.533
 11
13.7227
 21
161.714
  0
LINE
  8
0
 10
13.7227
 20
161.714
 11
14.0729
 21
161.853
  0
LINE
  8
0
 10
14.0729
 20
161.853
 11
14.4379
 21
161.947
  0
LINE
  8
0
 10
14.4379
 20
161.947
 11
14.8116
 21
161.994
  0
LINE
  8
0
 10
14.8116
 20
161.994
 11
15.1884
 21
161.994
  0
LINE
  8
0
 10
15.1884
 20
161.994
 11
15.5621
 21
161.947
  0
LINE
  8
0
 10
15.5621
 20
161.947
 11
15.927
 21
161.853
  0
LINE
  8
0
 10
15.927
 20
161.853
 11
16.2773
 21
161.714
  0
LINE
  8
0
 10
16.2773
 20
161.714
 11
16.6075
 21
161.533
  0
LINE
  8
0
 10
16.6075
 20
161.533
 11
16.9123
 21
161.312
  0
LINE
  8
0
 10
16.9123
 20
161.312
 11
17.1869
 21
161.054
  0
LINE
  8
0
 10
17.1869
 20
161.054
 11
17.427
 21
160.763
  0
LINE
  8
0
 10
17.427
 20
160.763
 11
17.6289
 21
160.445
  0
LINE
  8
0
 10
17.6289
 20
160.445
 11
17.7893
 21
160.104
  0
LINE
  8
0
 10
17.7893
 20
160.104
 11
17.9057
 21
159.746
  0
LINE
  8
0
 10
17.9057
 20
159.746
 11
17.9763
 21
159.376
  0
LINE
  8
0
 10
17.9763
 20
159.376
 11
18
 21
159
  0
LINE
  8
0
 10
18
 20
159
 11
17.9763
 21
158.624
  0
LINE
  8
0
 10
17.9763
 20
158.624
 11
17.9057
 21
158.254
  0
LINE
  8
0
 10
17.9057
 20
158.254
 11
17.7893
 21
157.896
  0
LINE
  8
0
 10
17.7893
 20
157.896
 11
17.6289
 21
157.555
  0
LINE
  8
0
 10
17.6289
 20
157.555
 11
17.427
 21
157.237
  0
LINE
  8
0
 10
17.427
 20
157.237
 11
17.1869
 21
156.946
  0
LINE
  8
0
 10
17.1869
 20
156.946
 11
16.9123
 21
156.688
  0
LINE
  8
0
 10
16.9123
 20
156.688
 11
16.6075
 21
156.467
  0
LINE
  8
0
 10
16.6075
 20
156.467
 11
16.2773
 21
156.286
  0
LINE
  8
0
 10
16.2773
 20
156.286
 11
15.927
 21
156.147
  0
LINE
  8
0
 10
15.927
 20
156.147
 11
15.5621
 21
156.053
  0
LINE
  8
0
 10
15.5621
 20
156.053
 11
15.1884
 21
156.006
  0
LINE
  8
0
 10
15.1884
 20
156.006
 11
14.8116
 21
156.006
  0
LINE
  8
0
 10
29.8116
 20
156.006
 11
29.4379
 21
156.053
  0
LINE
  8
0
 10
29.4379
 20
156.053
 11
29.0729
 21
156.147
  0
LINE
  8
0
 10
29.0729
 20
156.147
 11
28.7227
 21
156.286
  0
LINE
  8
0
 10
28.7227
 20
156.286
 11
28.3925
 21
156.467
  0
LINE
  8
0
 10
28.3925
 20
156.467
 11
28.0877
 21
156.688
  0
LINE
  8
0
 10
28.0877
 20
156.688
 11
27.8131
 21
156.946
  0
LINE
  8
0
 10
27.8131
 20
156.946
 11
27.5729
 21
157.237
  0
LINE
  8
0
 10
27.5729
 20
157.237
 11
27.3711
 21
157.555
  0
LINE
  8
0
 10
27.3711
 20
157.555
 11
27.2107
 21
157.896
  0
LINE
  8
0
 10
27.2107
 20
157.896
 11
27.0942
 21
158.254
  0
LINE
  8
0
 10
27.0942
 20
158.254
 11
27.0237
 21
158.624
  0
LINE
  8
0
 10
27.0237
 20
158.624
 11
27
 21
159
  0
LINE
  8
0
 10
27
 20
159
 11
27.0237
 21
159.376
  0
LINE
  8
0
 10
27.0237
 20
159.376
 11
27.0942
 21
159.746
  0
LINE
  8
0
 10
27.0942
 20
159.746
 11
27.2107
 21
160.104
  0
LINE
  8
0
 10
27.2107
 20
160.104
 11
27.3711
 21
160.445
  0
LINE
  8
0
 10
27.3711
 20
160.445
 11
27.5729
 21
160.763
  0
LINE
  8
0
 10
27.5729
 20
160.763
 11
27.8131
 21
161.054
  0
LINE
  8
0
 10
27.8131
 20
161.054
 11
28.0877
 21
161.312
  0
LINE
  8
0
 10
28.0877
 20
161.312
 11
28.3925
 21
161.533
  0
LINE
  8
0
 10
28.3925
 20
161.533
 11
28.7227
 21
161.714
  0
LINE
  8
0
 10
28.7227
 20
161.714
 11
29.0729
 21
161.853
  0
LINE
  8
0
 10
29.0729
 20
161.853
 11
29.4379
 21
161.947
  0
LINE
  8
0
 10
29.4379
 20
161.947
 11
29.8116
 21
161.994
  0
LINE
  8
0
 10
29.8116
 20
161.994
 11
30.1884
 21
161.994
  0
LINE
  8
0
 10
30.1884
 20
161.994
 11
30.5621
 21
161.947
  0
LINE
  8
0
 10
30.5621
 20
161.947
 11
30.927
 21
161.853
  0
LINE
  8
0
 10
30.927
 20
161.853
 11
31.2773
 21
161.714
  0
LINE
  8
0
 10
31.2773
 20
161.714
 11
31.6075
 21
161.533
  0
LINE
  8
0
 10
31.6075
 20
161.533
 11
31.9123
 21
161.312
  0
LINE
  8
0
 10
31.9123
 20
161.312
 11
32.1869
 21
161.054
  0
LINE
  8
0
 10
32.1869
 20
161.054
 11
32.427
 21
160.763
  0
LINE
  8
0
 10
32.427
 20
160.763
 11
32.6289
 21
160.445
  0
LINE
  8
0
 10
32.6289
 20
160.445
 11
32.7893
 21
160.104
  0
LINE
  8
0
 10
32.7893
 20
160.104
 11
32.9057
 21
159.746
  0
LINE
  8
0
 10
32.9057
 20
159.746
 11
32.9763
 21
159.376
  0
LINE
  8
0
 10
32.9763
 20
159.376
 11
33
 21
159
  0
LINE
  8
0
 10
33
 20
159
 11
32.9763
 21
158.624
  0
LINE
  8
0
 10
32.9763
 20
158.624
 11
32.9057
 21
158.254
  0
LINE
  8
0
 10
32.9057
 20
158.254
 11
32.7893
 21
157.896
  0
LINE
  8
0
 10
32.7893
 20
157.896
 11
32.6289
 21
157.555
  0
LINE
  8
0
 10
32.6289
 20
157.555
 11
32.427
 21
157.237
  0
LINE
  8
0
 10
32.427
 20
157.237
 11
32.1869
 21
156.946
  0
LINE
  8
0
 10
32.1869
 20
156.946
 11
31.9123
 21
156.688
  0
LINE
  8
0
 10
31.9123
 20
156.688
 11
31.6075
 21
156.467
  0
LINE
  8
0
 10
31.6075
 20
156.467
 11
31.2773
 21
156.286
  0
LINE
  8
0
 10
31.2773
 20
156.286
 11
30.927
 21
156.147
  0
LINE
  8
0
 10
30.927
 20
156.147
 11
30.5621
 21
156.053
  0
LINE
  8
0
 10
30.5621
 20
156.053
 11
30.1884
 21
156.006
  0
LINE
  8
0
 10
30.1884
 20
156.006
 11
29.8116
 21
156.006
  0
LINE
  8
0
 10
-15.1884
 20
156.006
 11
-15.5621
 21
156.053
  0
LINE
  8
0
 10
-15.5621
 20
156.053
 11
-15.927
 21
156.147
  0
LINE
  8
0
 10
-15.927
 20
156.147
 11
-16.2773
 21
156.286
  0
LINE
  8
0
 10
-16.2773
 20
156.286
 11
-16.6075
 21
156.467
  0
LINE
  8
0
 10
-16.6075
 20
156.467
 11
-16.9123
 21
156.688
  0
LINE
  8
0
 10
-16.9123
 20
156.688
 11
-17.1869
 21
156.946
  0
LINE
  8
0
 10
-17.1869
 20
156.946
 11
-17.427
 21
157.237
  0
LINE
  8
0
 10
-17.427
 20
157.237
 11
-17.6289
 21
157.555
  0
LINE
  8
0
 10
-17.6289
 20
157.555
 11
-17.7893
 21
157.896
  0
LINE
  8
0
 10
-17.7893
 20
157.896
 11
-17.9057
 21
158.254
  0
LINE
  8
0
 10
-17.9057
 20
158.254
 11
-17.9763
 21
158.624
  0
LINE
  8
0
 10
-17.9763
 20
158.624
 11
-18
 21
159
  0
LINE
  8
0
 10
-18
 20
159
 11
-17.9763
 21
159.376
  0
LINE
  8
0
 10
-17.9763
 20
159.376
 11
-17.9057
 21
159.746
  0
LINE
  8
0
 10
-17.9057
 20
159.746
 11
-17.7893
 21
160.104
  0
LINE
  8
0
 10
-17.7893
 20
160.104
 11
-17.6289
 21
160.445
  0
LINE
  8
0
 10
-17.6289
 20
160.445
 11
-17.427
 21
160.763
  0
LINE
  8
0
 10
-17.427
 20
160.763
 11
-17.1869
 21
161.054
  0
LINE
  8
0
 10
-17.1869
 20
161.054
 11
-16.9123
 21
161.312
  0
LINE
  8
0
 10
-16.9123
 20
161.312
 11
-16.6075
 21
161.533
  0
LINE
  8
0
 10
-16.6075
 20
161.533
 11
-16.2773
 21
161.714
  0
LINE
  8
0
 10
-16.2773
 20
161.714
 11
-15.927
 21
161.853
  0
LINE
  8
0
 10
-15.927
 20
161.853
 11
-15.5621
 21
161.947
  0
LINE
  8
0
 10
-15.5621
 20
161.947
 11
-15.1884
 21
161.994
  0
LINE
  8
0
 10
-15.1884
 20
161.994
 11
-14.8116
 21
161.994
  0
LINE
  8
0
 10
-14.8116
 20
161.994
 11
-14.4379
 21
161.947
  0
LINE
  8
0
 10
-14.4379
 20
161.947
 11
-14.0729
 21
161.853
  0
LINE
  8
0
 10
-14.0729
 20
161.853
 11
-13.7227
 21
161.714
  0
LINE
  8
0
 10
-13.7227
 20
161.714
 11
-13.3925
 21
161.533
  0
LINE
  8
0
 10
-13.3925
 20
161.533
 11
-13.0877
 21
161.312
  0
LINE
  8
0
 10
-13.0877
 20
161.312
 11
-12.8131
 21
161.054
  0
LINE
  8
0
 10
-12.8131
 20
161.054
 11
-12.5729
 21
160.763
  0
LINE
  8
0
 10
-12.5729
 20
160.763
 11
-12.3711
 21
160.445
  0
LINE
  8
0
 10
-12.3711
 20
160.445
 11
-12.2107
 21
160.104
  0
LINE
  8
0
 10
-12.2107
 20
160.104
 11
-12.0942
 21
159.746
  0
LINE
  8
0
 10
-12.0942
 20
159.746
 11
-12.0237
 21
159.376
  0
LINE
  8
0
 10
-12.0237
 20
159.376
 11
-12
 21
159
  0
LINE
  8
0
 10
-12
 20
159
 11
-12.0237
 21
158.624
  0
LINE
  8
0
 10
-12.0237
 20
158.624
 11
-12.0942
 21
158.254
  0
LINE
  8
0
 10
-12.0942
 20
158.254
 11
-12.2107
 21
157.896
  0
LINE
  8
0
 10
-12.2107
 20
157.896
 11
-12.3711
 21
157.555
  0
LINE
  8
0
 10
-12.3711
 20
157.555
 11
-12.5729
 21
157.237
  0
LINE
  8
0
 10
-12.5729
 20
157.237
 11
-12.8131
 21
156.946
  0
LINE
  8
0
 10
-12.8131
 20
156.946
 11
-13.0877
 21
156.688
  0
LINE
  8
0
 10
-13.0877
 20
156.688
 11
-13.3925
 21
156.467
  0
LINE
  8
0
 10
-13.3925
 20
156.467
 11
-13.7227
 21
156.286
  0
LINE
  8
0
 10
-13.7227
 20
156.286
 11
-14.0729
 21
156.147
  0
LINE
  8
0
 10
-14.0729
 20
156.147
 11
-14.4379
 21
156.053
  0
LINE
  8
0
 10
-14.4379
 20
156.053
 11
-14.8116
 21
156.006
  0
LINE
  8
0
 10
-14.8116
 20
156.006
 11
-15.1884
 21
156.006
  0
LINE
  8
0
 10
-45.1884
 20
156.006
 11
-45.5621
 21
156.053
  0
LINE
  8
0
 10
-45.5621
 20
156.053
 11
-45.927
 21
156.147
  0
LINE
  8
0
 10
-45.927
 20
156.147
 11
-46.2773
 21
156.286
  0
LINE
  8
0
 10
-46.2773
 20
156.286
 11
-46.6075
 21
156.467
  0
LINE
  8
0
 10
-46.6075
 20
156.467
 11
-46.9123
 21
156.688
  0
LINE
  8
0
 10
-46.9123
 20
156.688
 11
-47.1869
 21
156.946
  0
LINE
  8
0
 10
-47.1869
 20
156.946
 11
-47.427
 21
157.237
  0
LINE
  8
0
 10
-47.427
 20
157.237
 11
-47.6289
 21
157.555
  0
LINE
  8
0
 10
-47.6289
 20
157.555
 11
-47.7893
 21
157.896
  0
LINE
  8
0
 10
-47.7893
 20
157.896
 11
-47.9057
 21
158.254
  0
LINE
  8
0
 10
-47.9057
 20
158.254
 11
-47.9763
 21
158.624
  0
LINE
  8
0
 10
-47.9763
 20
158.624
 11
-48
 21
159
  0
LINE
  8
0
 10
-48
 20
159
 11
-47.9763
 21
159.376
  0
LINE
  8
0
 10
-47.9763
 20
159.376
 11
-47.9057
 21
159.746
  0
LINE
  8
0
 10
-47.9057
 20
159.746
 11
-47.7893
 21
160.104
  0
LINE
  8
0
 10
-47.7893
 20
160.104
 11
-47.6289
 21
160.445
  0
LINE
  8
0
 10
-47.6289
 20
160.445
 11
-47.427
 21
160.763
  0
LINE
  8
0
 10
-47.427
 20
160.763
 11
-47.1869
 21
161.054
  0
LINE
  8
0
 10
-47.1869
 20
161.054
 11
-46.9123
 21
161.312
  0
LINE
  8
0
 10
-46.9123
 20
161.312
 11
-46.6075
 21
161.533
  0
LINE
  8
0
 10
-46.6075
 20
161.533
 11
-46.2773
 21
161.714
  0
LINE
  8
0
 10
-46.2773
 20
161.714
 11
-45.927
 21
161.853
  0
LINE
  8
0
 10
-45.927
 20
161.853
 11
-45.5621
 21
161.947
  0
LINE
  8
0
 10
-45.5621
 20
161.947
 11
-45.1884
 21
161.994
  0
LINE
  8
0
 10
-45.1884
 20
161.994
 11
-44.8116
 21
161.994
  0
LINE
  8
0
 10
-44.8116
 20
161.994
 11
-44.4379
 21
161.947
  0
LINE
  8
0
 10
-44.4379
 20
161.947
 11
-44.0729
 21
161.853
  0
LINE
  8
0
 10
-44.0729
 20
161.853
 11
-43.7227
 21
161.714
  0
LINE
  8
0
 10
-43.7227
 20
161.714
 11
-43.3925
 21
161.533
  0
LINE
  8
0
 10
-43.3925
 20
161.533
 11
-43.0877
 21
161.312
  0
LINE
  8
0
 10
-43.0877
 20
161.312
 11
-42.8131
 21
161.054
  0
LINE
  8
0
 10
-42.8131
 20
161.054
 11
-42.5729
 21
160.763
  0
LINE
  8
0
 10
-42.5729
 20
160.763
 11
-42.3711
 21
160.445
  0
LINE
  8
0
 10
-42.3711
 20
160.445
 11
-42.2107
 21
160.104
  0
LINE
  8
0
 10
-42.2107
 20
160.104
 11
-42.0942
 21
159.746
  0
LINE
  8
0
 10
-42.0942
 20
159.746
 11
-42.0237
 21
159.376
  0
LINE
  8
0
 10
-42.0237
 20
159.376
 11
-42
 21
159
  0
LINE
  8
0
 10
-42
 20
159
 11
-42.0237
 21
158.624
  0
LINE
  8
0
 10
-42.0237
 20
158.624
 11
-42.0942
 21
158.254
  0
LINE
  8
0
 10
-42.0942
 20
158.254
 11
-42.2107
 21
157.896
  0
LINE
  8
0
 10
-42.2107
 20
157.896
 11
-42.3711
 21
157.555
  0
LINE
  8
0
 10
-42.3711
 20
157.555
 11
-42.5729
 21
157.237
  0
LINE
  8
0
 10
-42.5729
 20
157.237
 11
-42.8131
 21
156.946
  0
LINE
  8
0
 10
-42.8131
 20
156.946
 11
-43.0877
 21
156.688
  0
LINE
  8
0
 10
-43.0877
 20
156.688
 11
-43.3925
 21
156.467
  0
LINE
  8
0
 10
-43.3925
 20
156.467
 11
-43.7227
 21
156.286
  0
LINE
  8
0
 10
-43.7227
 20
156.286
 11
-44.0729
 21
156.147
  0
LINE
  8
0
 10
-44.0729
 20
156.147
 11
-44.4379
 21
156.053
  0
LINE
  8
0
 10
-44.4379
 20
156.053
 11
-44.8116
 21
156.006
  0
LINE
  8
0
 10
-44.8116
 20
156.006
 11
-45.1884
 21
156.006
  0
LINE
  8
0
 10
-30.1884
 20
156.006
 11
-30.5621
 21
156.053
  0
LINE
  8
0
 10
-30.5621
 20
156.053
 11
-30.927
 21
156.147
  0
LINE
  8
0
 10
-30.927
 20
156.147
 11
-31.2773
 21
156.286
  0
LINE
  8
0
 10
-31.2773
 20
156.286
 11
-31.6075
 21
156.467
  0
LINE
  8
0
 10
-31.6075
 20
156.467
 11
-31.9123
 21
156.688
  0
LINE
  8
0
 10
-31.9123
 20
156.688
 11
-32.1869
 21
156.946
  0
LINE
  8
0
 10
-32.1869
 20
156.946
 11
-32.427
 21
157.237
  0
LINE
  8
0
 10
-32.427
 20
157.237
 11
-32.6289
 21
157.555
  0
LINE
  8
0
 10
-32.6289
 20
157.555
 11
-32.7893
 21
157.896
  0
LINE
  8
0
 10
-32.7893
 20
157.896
 11
-32.9057
 21
158.254
  0
LINE
  8
0
 10
-32.9057
 20
158.254
 11
-32.9763
 21
158.624
  0
LINE
  8
0
 10
-32.9763
 20
158.624
 11
-33
 21
159
  0
LINE
  8
0
 10
-33
 20
159
 11
-32.9763
 21
159.376
  0
LINE
  8
0
 10
-32.9763
 20
159.376
 11
-32.9057
 21
159.746
  0
LINE
  8
0
 10
-32.9057
 20
159.746
 11
-32.7893
 21
160.104
  0
LINE
  8
0
 10
-32.7893
 20
160.104
 11
-32.6289
 21
160.445
  0
LINE
  8
0
 10
-32.6289
 20
160.445
 11
-32.427
 21
160.763
  0
LINE
  8
0
 10
-32.427
 20
160.763
 11
-32.1869
 21
161.054
  0
LINE
  8
0
 10
-32.1869
 20
161.054
 11
-31.9123
 21
161.312
  0
LINE
  8
0
 10
-31.9123
 20
161.312
 11
-31.6075
 21
161.533
  0
LINE
  8
0
 10
-31.6075
 20
161.533
 11
-31.2773
 21
161.714
  0
LINE
  8
0
 10
-31.2773
 20
161.714
 11
-30.927
 21
161.853
  0
LINE
  8
0
 10
-30.927
 20
161.853
 11
-30.5621
 21
161.947
  0
LINE
  8
0
 10
-30.5621
 20
161.947
 11
-30.1884
 21
161.994
  0
LINE
  8
0
 10
-30.1884
 20
161.994
 11
-29.8116
 21
161.994
  0
LINE
  8
0
 10
-29.8116
 20
161.994
 11
-29.4379
 21
161.947
  0
LINE
  8
0
 10
-29.4379
 20
161.947
 11
-29.0729
 21
161.853
  0
LINE
  8
0
 10
-29.0729
 20
161.853
 11
-28.7227
 21
161.714
  0
LINE
  8
0
 10
-28.7227
 20
161.714
 11
-28.3925
 21
161.533
  0
LINE
  8
0
 10
-28.3925
 20
161.533
 11
-28.0877
 21
161.312
  0
LINE
  8
0
 10
-28.0877
 20
161.312
 11
-27.8131
 21
161.054
  0
LINE
  8
0
 10
-27.8131
 20
161.054
 11
-27.5729
 21
160.763
  0
LINE
  8
0
 10
-27.5729
 20
160.763
 11
-27.3711
 21
160.445
  0
LINE
  8
0
 10
-27.3711
 20
160.445
 11
-27.2107
 21
160.104
  0
LINE
  8
0
 10
-27.2107
 20
160.104
 11
-27.0942
 21
159.746
  0
LINE
  8
0
 10
-27.0942
 20
159.746
 11
-27.0237
 21
159.376
  0
LINE
  8
0
 10
-27.0237
 20
159.376
 11
-27
 21
159
  0
LINE
  8
0
 10
-27
 20
159
 11
-27.0237
 21
158.624
  0
LINE
  8
0
 10
-27.0237
 20
158.624
 11
-27.0942
 21
158.254
  0
LINE
  8
0
 10
-27.0942
 20
158.254
 11
-27.2107
 21
157.896
  0
LINE
  8
0
 10
-27.2107
 20
157.896
 11
-27.3711
 21
157.555
  0
LINE
  8
0
 10
-27.3711
 20
157.555
 11
-27.5729
 21
157.237
  0
LINE
  8
0
 10
-27.5729
 20
157.237
 11
-27.8131
 21
156.946
  0
LINE
  8
0
 10
-27.8131
 20
156.946
 11
-28.0877
 21
156.688
  0
LINE
  8
0
 10
-28.0877
 20
156.688
 11
-28.3925
 21
156.467
  0
LINE
  8
0
 10
-28.3925
 20
156.467
 11
-28.7227
 21
156.286
  0
LINE
  8
0
 10
-28.7227
 20
156.286
 11
-29.0729
 21
156.147
  0
LINE
  8
0
 10
-29.0729
 20
156.147
 11
-29.4379
 21
156.053
  0
LINE
  8
0
 10
-29.4379
 20
156.053
 11
-29.8116
 21
156.006
  0
LINE
  8
0
 10
-29.8116
 20
156.006
 11
-30.1884
 21
156.006
  0
LINE
  8
0
 10
44.8116
 20
156.006
 11
44.4379
 21
156.053
  0
LINE
  8
0
 10
44.4379
 20
156.053
 11
44.0729
 21
156.147
  0
LINE
  8
0
 10
44.0729
 20
156.147
 11
43.7227
 21
156.286
  0
LINE
  8
0
 10
43.7227
 20
156.286
 11
43.3925
 21
156.467
  0
LINE
  8
0
 10
43.3925
 20
156.467
 11
43.0877
 21
156.688
  0
LINE
  8
0
 10
43.0877
 20
156.688
 11
42.8131
 21
156.946
  0
LINE
  8
0
 10
42.8131
 20
156.946
 11
42.5729
 21
157.237
  0
LINE
  8
0
 10
42.5729
 20
157.237
 11
42.3711
 21
157.555
  0
LINE
  8
0
 10
42.3711
 20
157.555
 11
42.2107
 21
157.896
  0
LINE
  8
0
 10
42.2107
 20
157.896
 11
42.0942
 21
158.254
  0
LINE
  8
0
 10
42.0942
 20
158.254
 11
42.0237
 21
158.624
  0
LINE
  8
0
 10
42.0237
 20
158.624
 11
42
 21
159
  0
LINE
  8
0
 10
42
 20
159
 11
42.0237
 21
159.376
  0
LINE
  8
0
 10
42.0237
 20
159.376
 11
42.0942
 21
159.746
  0
LINE
  8
0
 10
42.0942
 20
159.746
 11
42.2107
 21
160.104
  0
LINE
  8
0
 10
42.2107
 20
160.104
 11
42.3711
 21
160.445
  0
LINE
  8
0
 10
42.3711
 20
160.445
 11
42.5729
 21
160.763
  0
LINE
  8
0
 10
42.5729
 20
160.763
 11
42.8131
 21
161.054
  0
LINE
  8
0
 10
42.8131
 20
161.054
 11
43.0877
 21
161.312
  0
LINE
  8
0
 10
43.0877
 20
161.312
 11
43.3925
 21
161.533
  0
LINE
  8
0
 10
43.3925
 20
161.533
 11
43.7227
 21
161.714
  0
LINE
  8
0
 10
43.7227
 20
161.714
 11
44.0729
 21
161.853
  0
LINE
  8
0
 10
44.0729
 20
161.853
 11
44.4379
 21
161.947
  0
LINE
  8
0
 10
44.4379
 20
161.947
 11
44.8116
 21
161.994
  0
LINE
  8
0
 10
44.8116
 20
161.994
 11
45.1884
 21
161.994
  0
LINE
  8
0
 10
45.1884
 20
161.994
 11
45.5621
 21
161.947
  0
LINE
  8
0
 10
45.5621
 20
161.947
 11
45.927
 21
161.853
  0
LINE
  8
0
 10
45.927
 20
161.853
 11
46.2773
 21
161.714
  0
LINE
  8
0
 10
46.2773
 20
161.714
 11
46.6075
 21
161.533
  0
LINE
  8
0
 10
46.6075
 20
161.533
 11
46.9123
 21
161.312
  0
LINE
  8
0
 10
46.9123
 20
161.312
 11
47.1869
 21
161.054
  0
LINE
  8
0
 10
47.1869
 20
161.054
 11
47.427
 21
160.763
  0
LINE
  8
0
 10
47.427
 20
160.763
 11
47.6289
 21
160.445
  0
LINE
  8
0
 10
47.6289
 20
160.445
 11
47.7893
 21
160.104
  0
LINE
  8
0
 10
47.7893
 20
160.104
 11
47.9057
 21
159.746
  0
LINE
  8
0
 10
47.9057
 20
159.746
 11
47.9763
 21
159.376
  0
LINE
  8
0
 10
47.9763
 20
159.376
 11
48
 21
159
  0
LINE
  8
0
 10
48
 20
159
 11
47.9763
 21
158.624
  0
LINE
  8
0
 10
47.9763
 20
158.624
 11
47.9057
 21
158.254
  0
LINE
  8
0
 10
47.9057
 20
158.254
 11
47.7893
 21
157.896
  0
LINE
  8
0
 10
47.7893
 20
157.896
 11
47.6289
 21
157.555
  0
LINE
  8
0
 10
47.6289
 20
157.555
 11
47.427
 21
157.237
  0
LINE
  8
0
 10
47.427
 20
157.237
 11
47.1869
 21
156.946
  0
LINE
  8
0
 10
47.1869
 20
156.946
 11
46.9123
 21
156.688
  0
LINE
  8
0
 10
46.9123
 20
156.688
 11
46.6075
 21
156.467
  0
LINE
  8
0
 10
46.6075
 20
156.467
 11
46.2773
 21
156.286
  0
LINE
  8
0
 10
46.2773
 20
156.286
 11
45.927
 21
156.147
  0
LINE
  8
0
 10
45.927
 20
156.147
 11
45.5621
 21
156.053
  0
LINE
  8
0
 10
45.5621
 20
156.053
 11
45.1884
 21
156.006
  0
LINE
  8
0
 10
45.1884
 20
156.006
 11
44.8116
 21
156.006
  0
LINE
  8
0
 10
-0.18837
 20
156.006
 11
-0.562134
 21
156.053
  0
LINE
  8
0
 10
-0.562134
 20
156.053
 11
-0.927048
 21
156.147
  0
LINE
  8
0
 10
-0.927048
 20
156.147
 11
-1.27733
 21
156.286
  0
LINE
  8
0
 10
-1.27733
 20
156.286
 11
-1.60747
 21
156.467
  0
LINE
  8
0
 10
-1.60747
 20
156.467
 11
-1.91226
 21
156.688
  0
LINE
  8
0
 10
-1.91226
 20
156.688
 11
-2.1869
 21
156.946
  0
LINE
  8
0
 10
-2.1869
 20
156.946
 11
-2.42705
 21
157.237
  0
LINE
  8
0
 10
-2.42705
 20
157.237
 11
-2.62891
 21
157.555
  0
LINE
  8
0
 10
-2.62891
 20
157.555
 11
-2.78932
 21
157.896
  0
LINE
  8
0
 10
-2.78932
 20
157.896
 11
-2.90575
 21
158.254
  0
LINE
  8
0
 10
-2.90575
 20
158.254
 11
-2.97633
 21
158.624
  0
LINE
  8
0
 10
-2.97633
 20
158.624
 11
-3
 21
159
  0
LINE
  8
0
 10
-3
 20
159
 11
-2.97633
 21
159.376
  0
LINE
  8
0
 10
-2.97633
 20
159.376
 11
-2.90575
 21
159.746
  0
LINE
  8
0
 10
-2.90575
 20
159.746
 11
-2.78932
 21
160.104
  0
LINE
  8
0
 10
-2.78932
 20
160.104
 11
-2.62891
 21
160.445
  0
LINE
  8
0
 10
-2.62891
 20
160.445
 11
-2.42705
 21
160.763
  0
LINE
  8
0
 10
-2.42705
 20
160.763
 11
-2.1869
 21
161.054
  0
LINE
  8
0
 10
-2.1869
 20
161.054
 11
-1.91226
 21
161.312
  0
LINE
  8
0
 10
-1.91226
 20
161.312
 11
-1.60747
 21
161.533
  0
LINE
  8
0
 10
-1.60747
 20
161.533
 11
-1.27733
 21
161.714
  0
LINE
  8
0
 10
-1.27733
 20
161.714
 11
-0.927048
 21
161.853
  0
LINE
  8
0
 10
-0.927048
 20
161.853
 11
-0.562134
 21
161.947
  0
LINE
  8
0
 10
-0.562134
 20
161.947
 11
-0.18837
 21
161.994
  0
LINE
  8
0
 10
-0.18837
 20
161.994
 11
0.18837
 21
161.994
  0
LINE
  8
0
 10
0.18837
 20
161.994
 11
0.562134
 21
161.947
  0
LINE
  8
0
 10
0.562134
 20
161.947
 11
0.927048
 21
161.853
  0
LINE
  8
0
 10
0.927048
 20
161.853
 11
1.27733
 21
161.714
  0
LINE
  8
0
 10
1.27733
 20
161.714
 11
1.60747
 21
161.533
  0
LINE
  8
0
 10
1.60747
 20
161.533
 11
1.91226
 21
161.312
  0
LINE
  8
0
 10
1.91226
 20
161.312
 11
2.1869
 21
161.054
  0
LINE
  8
0
 10
2.1869
 20
161.054
 11
2.42705
 21
160.763
  0
LINE
  8
0
 10
2.42705
 20
160.763
 11
2.62891
 21
160.445
  0
LINE
  8
0
 10
2.62891
 20
160.445
 11
2.78932
 21
160.104
  0
LINE
  8
0
 10
2.78932
 20
160.104
 11
2.90575
 21
159.746
  0
LINE
  8
0
 10
2.90575
 20
159.746
 11
2.97633
 21
159.376
  0
LINE
  8
0
 10
2.97633
 20
159.376
 11
3
 21
159
  0
LINE
  8
0
 10
3
 20
159
 11
2.97633
 21
158.624
  0
LINE
  8
0
 10
2.97633
 20
158.624
 11
2.90575
 21
158.254
  0
LINE
  8
0
 10
2.90575
 20
158.254
 11
2.78932
 21
157.896
  0
LINE
  8
0
 10
2.78932
 20
157.896
 11
2.62891
 21
157.555
  0
LINE
  8
0
 10
2.62891
 20
157.555
 11
2.42705
 21
157.237
  0
LINE
  8
0
 10
2.42705
 20
157.237
 11
2.1869
 21
156.946
  0
LINE
  8
0
 10
2.1869
 20
156.946
 11
1.91226
 21
156.688
  0
LINE
  8
0
 10
1.91226
 20
156.688
 11
1.60747
 21
156.467
  0
LINE
  8
0
 10
1.60747
 20
156.467
 11
1.27733
 21
156.286
  0
LINE
  8
0
 10
1.27733
 20
156.286
 11
0.927048
 21
156.147
  0
LINE
  8
0
 10
0.927048
 20
156.147
 11
0.562134
 21
156.053
  0
LINE
  8
0
 10
0.562134
 20
156.053
 11
0.18837
 21
156.006
  0
LINE
  8
0
 10
0.18837
 20
156.006
 11
-0.18837
 21
156.006
  0
LINE
  8
0
 10
-22.5942
 20
157.503
 11
-22.7811
 21
157.527
  0
LINE
  8
0
 10
-22.7811
 20
157.527
 11
-22.9635
 21
157.573
  0
LINE
  8
0
 10
-22.9635
 20
157.573
 11
-23.1387
 21
157.643
  0
LINE
  8
0
 10
-23.1387
 20
157.643
 11
-23.3037
 21
157.734
  0
LINE
  8
0
 10
-23.3037
 20
157.734
 11
-23.4561
 21
157.844
  0
LINE
  8
0
 10
-23.4561
 20
157.844
 11
-23.5934
 21
157.973
  0
LINE
  8
0
 10
-23.5934
 20
157.973
 11
-23.7135
 21
158.118
  0
LINE
  8
0
 10
-23.7135
 20
158.118
 11
-23.8145
 21
158.277
  0
LINE
  8
0
 10
-23.8145
 20
158.277
 11
-23.8947
 21
158.448
  0
LINE
  8
0
 10
-23.8947
 20
158.448
 11
-23.9529
 21
158.627
  0
LINE
  8
0
 10
-23.9529
 20
158.627
 11
-23.9882
 21
158.812
  0
LINE
  8
0
 10
-23.9882
 20
158.812
 11
-24
 21
159
  0
LINE
  8
0
 10
-24
 20
159
 11
-23.9882
 21
159.188
  0
LINE
  8
0
 10
-23.9882
 20
159.188
 11
-23.9529
 21
159.373
  0
LINE
  8
0
 10
-23.9529
 20
159.373
 11
-23.8947
 21
159.552
  0
LINE
  8
0
 10
-23.8947
 20
159.552
 11
-23.8145
 21
159.723
  0
LINE
  8
0
 10
-23.8145
 20
159.723
 11
-23.7135
 21
159.882
  0
LINE
  8
0
 10
-23.7135
 20
159.882
 11
-23.5934
 21
160.027
  0
LINE
  8
0
 10
-23.5934
 20
160.027
 11
-23.4561
 21
160.156
  0
LINE
  8
0
 10
-23.4561
 20
160.156
 11
-23.3037
 21
160.266
  0
LINE
  8
0
 10
-23.3037
 20
160.266
 11
-23.1387
 21
160.357
  0
LINE
  8
0
 10
-23.1387
 20
160.357
 11
-22.9635
 21
160.427
  0
LINE
  8
0
 10
-22.9635
 20
160.427
 11
-22.7811
 21
160.473
  0
LINE
  8
0
 10
-22.7811
 20
160.473
 11
-22.5942
 21
160.497
  0
LINE
  8
0
 10
-22.5942
 20
160.497
 11
-22.4058
 21
160.497
  0
LINE
  8
0
 10
-22.4058
 20
160.497
 11
-22.2189
 21
160.473
  0
LINE
  8
0
 10
-22.2189
 20
160.473
 11
-22.0365
 21
160.427
  0
LINE
  8
0
 10
-22.0365
 20
160.427
 11
-21.8613
 21
160.357
  0
LINE
  8
0
 10
-21.8613
 20
160.357
 11
-21.6963
 21
160.266
  0
LINE
  8
0
 10
-21.6963
 20
160.266
 11
-21.5439
 21
160.156
  0
LINE
  8
0
 10
-21.5439
 20
160.156
 11
-21.4065
 21
160.027
  0
LINE
  8
0
 10
-21.4065
 20
160.027
 11
-21.2865
 21
159.882
  0
LINE
  8
0
 10
-21.2865
 20
159.882
 11
-21.1855
 21
159.723
  0
LINE
  8
0
 10
-21.1855
 20
159.723
 11
-21.1053
 21
159.552
  0
LINE
  8
0
 10
-21.1053
 20
159.552
 11
-21.0471
 21
159.373
  0
LINE
  8
0
 10
-21.0471
 20
159.373
 11
-21.0118
 21
159.188
  0
LINE
  8
0
 10
-21.0118
 20
159.188
 11
-21
 21
159
  0
LINE
  8
0
 10
-21
 20
159
 11
-21.0118
 21
158.812
  0
LINE
  8
0
 10
-21.0118
 20
158.812
 11
-21.0471
 21
158.627
  0
LINE
  8
0
 10
-21.0471
 20
158.627
 11
-21.1053
 21
158.448
  0
LINE
  8
0
 10
-21.1053
 20
158.448
 11
-21.1855
 21
158.277
  0
LINE
  8
0
 10
-21.1855
 20
158.277
 11
-21.2865
 21
158.118
  0
LINE
  8
0
 10
-21.2865
 20
158.118
 11
-21.4065
 21
157.973
  0
LINE
  8
0
 10
-21.4065
 20
157.973
 11
-21.5439
 21
157.844
  0
LINE
  8
0
 10
-21.5439
 20
157.844
 11
-21.6963
 21
157.734
  0
LINE
  8
0
 10
-21.6963
 20
157.734
 11
-21.8613
 21
157.643
  0
LINE
  8
0
 10
-21.8613
 20
157.643
 11
-22.0365
 21
157.573
  0
LINE
  8
0
 10
-22.0365
 20
157.573
 11
-22.2189
 21
157.527
  0
LINE
  8
0
 10
-22.2189
 20
157.527
 11
-22.4058
 21
157.503
  0
LINE
  8
0
 10
-22.4058
 20
157.503
 11
-22.5942
 21
157.503
  0
LINE
  8
0
 10
37.4058
 20
157.503
 11
37.2189
 21
157.527
  0
LINE
  8
0
 10
37.2189
 20
157.527
 11
37.0365
 21
157.573
  0
LINE
  8
0
 10
37.0365
 20
157.573
 11
36.8613
 21
157.643
  0
LINE
  8
0
 10
36.8613
 20
157.643
 11
36.6963
 21
157.734
  0
LINE
  8
0
 10
36.6963
 20
157.734
 11
36.5439
 21
157.844
  0
LINE
  8
0
 10
36.5439
 20
157.844
 11
36.4065
 21
157.973
  0
LINE
  8
0
 10
36.4065
 20
157.973
 11
36.2865
 21
158.118
  0
LINE
  8
0
 10
36.2865
 20
158.118
 11
36.1855
 21
158.277
  0
LINE
  8
0
 10
36.1855
 20
158.277
 11
36.1053
 21
158.448
  0
LINE
  8
0
 10
36.1053
 20
158.448
 11
36.0471
 21
158.627
  0
LINE
  8
0
 10
36.0471
 20
158.627
 11
36.0118
 21
158.812
  0
LINE
  8
0
 10
36.0118
 20
158.812
 11
36
 21
159
  0
LINE
  8
0
 10
36
 20
159
 11
36.0118
 21
159.188
  0
LINE
  8
0
 10
36.0118
 20
159.188
 11
36.0471
 21
159.373
  0
LINE
  8
0
 10
36.0471
 20
159.373
 11
36.1053
 21
159.552
  0
LINE
  8
0
 10
36.1053
 20
159.552
 11
36.1855
 21
159.723
  0
LINE
  8
0
 10
36.1855
 20
159.723
 11
36.2865
 21
159.882
  0
LINE
  8
0
 10
36.2865
 20
159.882
 11
36.4065
 21
160.027
  0
LINE
  8
0
 10
36.4065
 20
160.027
 11
36.5439
 21
160.156
  0
LINE
  8
0
 10
36.5439
 20
160.156
 11
36.6963
 21
160.266
  0
LINE
  8
0
 10
36.6963
 20
160.266
 11
36.8613
 21
160.357
  0
LINE
  8
0
 10
36.8613
 20
160.357
 11
37.0365
 21
160.427
  0
LINE
  8
0
 10
37.0365
 20
160.427
 11
37.2189
 21
160.473
  0
LINE
  8
0
 10
37.2189
 20
160.473
 11
37.4058
 21
160.497
  0
LINE
  8
0
 10
37.4058
 20
160.497
 11
37.5942
 21
160.497
  0
LINE
  8
0
 10
37.5942
 20
160.497
 11
37.7811
 21
160.473
  0
LINE
  8
0
 10
37.7811
 20
160.473
 11
37.9635
 21
160.427
  0
LINE
  8
0
 10
37.9635
 20
160.427
 11
38.1387
 21
160.357
  0
LINE
  8
0
 10
38.1387
 20
160.357
 11
38.3037
 21
160.266
  0
LINE
  8
0
 10
38.3037
 20
160.266
 11
38.4561
 21
160.156
  0
LINE
  8
0
 10
38.4561
 20
160.156
 11
38.5934
 21
160.027
  0
LINE
  8
0
 10
38.5934
 20
160.027
 11
38.7135
 21
159.882
  0
LINE
  8
0
 10
38.7135
 20
159.882
 11
38.8145
 21
159.723
  0
LINE
  8
0
 10
38.8145
 20
159.723
 11
38.8947
 21
159.552
  0
LINE
  8
0
 10
38.8947
 20
159.552
 11
38.9529
 21
159.373
  0
LINE
  8
0
 10
38.9529
 20
159.373
 11
38.9882
 21
159.188
  0
LINE
  8
0
 10
38.9882
 20
159.188
 11
39
 21
159
  0
LINE
  8
0
 10
39
 20
159
 11
38.9882
 21
158.812
  0
LINE
  8
0
 10
38.9882
 20
158.812
 11
38.9529
 21
158.627
  0
LINE
  8
0
 10
38.9529
 20
158.627
 11
38.8947
 21
158.448
  0
LINE
  8
0
 10
38.8947
 20
158.448
 11
38.8145
 21
158.277
  0
LINE
  8
0
 10
38.8145
 20
158.277
 11
38.7135
 21
158.118
  0
LINE
  8
0
 10
38.7135
 20
158.118
 11
38.5934
 21
157.973
  0
LINE
  8
0
 10
38.5934
 20
157.973
 11
38.4561
 21
157.844
  0
LINE
  8
0
 10
38.4561
 20
157.844
 11
38.3037
 21
157.734
  0
LINE
  8
0
 10
38.3037
 20
157.734
 11
38.1387
 21
157.643
  0
LINE
  8
0
 10
38.1387
 20
157.643
 11
37.9635
 21
157.573
  0
LINE
  8
0
 10
37.9635
 20
157.573
 11
37.7811
 21
157.527
  0
LINE
  8
0
 10
37.7811
 20
157.527
 11
37.5942
 21
157.503
  0
LINE
  8
0
 10
37.5942
 20
157.503
 11
37.4058
 21
157.503
  0
LINE
  8
0
 10
7.40581
 20
157.503
 11
7.21892
 21
157.527
  0
LINE
  8
0
 10
7.21892
 20
157.527
 11
7.03647
 21
157.573
  0
LINE
  8
0
 10
7.03647
 20
157.573
 11
6.86133
 21
157.643
  0
LINE
  8
0
 10
6.86133
 20
157.643
 11
6.69626
 21
157.734
  0
LINE
  8
0
 10
6.69626
 20
157.734
 11
6.54385
 21
157.844
  0
LINE
  8
0
 10
6.54385
 20
157.844
 11
6.40654
 21
157.973
  0
LINE
  8
0
 10
6.40654
 20
157.973
 11
6.28647
 21
158.118
  0
LINE
  8
0
 10
6.28647
 20
158.118
 11
6.18553
 21
158.277
  0
LINE
  8
0
 10
6.18553
 20
158.277
 11
6.10533
 21
158.448
  0
LINE
  8
0
 10
6.10533
 20
158.448
 11
6.04712
 21
158.627
  0
LINE
  8
0
 10
6.04712
 20
158.627
 11
6.01183
 21
158.812
  0
LINE
  8
0
 10
6.01183
 20
158.812
 11
6
 21
159
  0
LINE
  8
0
 10
6
 20
159
 11
6.01183
 21
159.188
  0
LINE
  8
0
 10
6.01183
 20
159.188
 11
6.04712
 21
159.373
  0
LINE
  8
0
 10
6.04712
 20
159.373
 11
6.10533
 21
159.552
  0
LINE
  8
0
 10
6.10533
 20
159.552
 11
6.18553
 21
159.723
  0
LINE
  8
0
 10
6.18553
 20
159.723
 11
6.28647
 21
159.882
  0
LINE
  8
0
 10
6.28647
 20
159.882
 11
6.40654
 21
160.027
  0
LINE
  8
0
 10
6.40654
 20
160.027
 11
6.54385
 21
160.156
  0
LINE
  8
0
 10
6.54385
 20
160.156
 11
6.69626
 21
160.266
  0
LINE
  8
0
 10
6.69626
 20
160.266
 11
6.86133
 21
160.357
  0
LINE
  8
0
 10
6.86133
 20
160.357
 11
7.03647
 21
160.427
  0
LINE
  8
0
 10
7.03647
 20
160.427
 11
7.21892
 21
160.473
  0
LINE
  8
0
 10
7.21892
 20
160.473
 11
7.40581
 21
160.497
  0
LINE
  8
0
 10
7.40581
 20
160.497
 11
7.59418
 21
160.497
  0
LINE
  8
0
 10
7.59418
 20
160.497
 11
7.78107
 21
160.473
  0
LINE
  8
0
 10
7.78107
 20
160.473
 11
7.96352
 21
160.427
  0
LINE
  8
0
 10
7.96352
 20
160.427
 11
8.13866
 21
160.357
  0
LINE
  8
0
 10
8.13866
 20
160.357
 11
8.30373
 21
160.266
  0
LINE
  8
0
 10
8.30373
 20
160.266
 11
8.45613
 21
160.156
  0
LINE
  8
0
 10
8.45613
 20
160.156
 11
8.59344
 21
160.027
  0
LINE
  8
0
 10
8.59344
 20
160.027
 11
8.71352
 21
159.882
  0
LINE
  8
0
 10
8.71352
 20
159.882
 11
8.81445
 21
159.723
  0
LINE
  8
0
 10
8.81445
 20
159.723
 11
8.89465
 21
159.552
  0
LINE
  8
0
 10
8.89465
 20
159.552
 11
8.95287
 21
159.373
  0
LINE
  8
0
 10
8.95287
 20
159.373
 11
8.98816
 21
159.188
  0
LINE
  8
0
 10
8.98816
 20
159.188
 11
9
 21
159
  0
LINE
  8
0
 10
9
 20
159
 11
8.98816
 21
158.812
  0
LINE
  8
0
 10
8.98816
 20
158.812
 11
8.95287
 21
158.627
  0
LINE
  8
0
 10
8.95287
 20
158.627
 11
8.89465
 21
158.448
  0
LINE
  8
0
 10
8.89465
 20
158.448
 11
8.81445
 21
158.277
  0
LINE
  8
0
 10
8.81445
 20
158.277
 11
8.71352
 21
158.118
  0
LINE
  8
0
 10
8.71352
 20
158.118
 11
8.59344
 21
157.973
  0
LINE
  8
0
 10
8.59344
 20
157.973
 11
8.45613
 21
157.844
  0
LINE
  8
0
 10
8.45613
 20
157.844
 11
8.30373
 21
157.734
  0
LINE
  8
0
 10
8.30373
 20
157.734
 11
8.13866
 21
157.643
  0
LINE
  8
0
 10
8.13866
 20
157.643
 11
7.96352
 21
157.573
  0
LINE
  8
0
 10
7.96352
 20
157.573
 11
7.78107
 21
157.527
  0
LINE
  8
0
 10
7.78107
 20
157.527
 11
7.59418
 21
157.503
  0
LINE
  8
0
 10
7.59418
 20
157.503
 11
7.40581
 21
157.503
  0
LINE
  8
0
 10
22.4058
 20
157.503
 11
22.2189
 21
157.527
  0
LINE
  8
0
 10
22.2189
 20
157.527
 11
22.0365
 21
157.573
  0
LINE
  8
0
 10
22.0365
 20
157.573
 11
21.8613
 21
157.643
  0
LINE
  8
0
 10
21.8613
 20
157.643
 11
21.6963
 21
157.734
  0
LINE
  8
0
 10
21.6963
 20
157.734
 11
21.5439
 21
157.844
  0
LINE
  8
0
 10
21.5439
 20
157.844
 11
21.4065
 21
157.973
  0
LINE
  8
0
 10
21.4065
 20
157.973
 11
21.2865
 21
158.118
  0
LINE
  8
0
 10
21.2865
 20
158.118
 11
21.1855
 21
158.277
  0
LINE
  8
0
 10
21.1855
 20
158.277
 11
21.1053
 21
158.448
  0
LINE
  8
0
 10
21.1053
 20
158.448
 11
21.0471
 21
158.627
  0
LINE
  8
0
 10
21.0471
 20
158.627
 11
21.0118
 21
158.812
  0
LINE
  8
0
 10
21.0118
 20
158.812
 11
21
 21
159
  0
LINE
  8
0
 10
21
 20
159
 11
21.0118
 21
159.188
  0
LINE
  8
0
 10
21.0118
 20
159.188
 11
21.0471
 21
159.373
  0
LINE
  8
0
 10
21.0471
 20
159.373
 11
21.1053
 21
159.552
  0
LINE
  8
0
 10
21.1053
 20
159.552
 11
21.1855
 21
159.723
  0
LINE
  8
0
 10
21.1855
 20
159.723
 11
21.2865
 21
159.882
  0
LINE
  8
0
 10
21.2865
 20
159.882
 11
21.4065
 21
160.027
  0
LINE
  8
0
 10
21.4065
 20
160.027
 11
21.5439
 21
160.156
  0
LINE
  8
0
 10
21.5439
 20
160.156
 11
21.6963
 21
160.266
  0
LINE
  8
0
 10
21.6963
 20
160.266
 11
21.8613
 21
160.357
  0
LINE
  8
0
 10
21.8613
 20
160.357
 11
22.0365
 21
160.427
  0
LINE
  8
0
 10
22.0365
 20
160.427
 11
22.2189
 21
160.473
  0
LINE
  8
0
 10
22.2189
 20
160.473
 11
22.4058
 21
160.497
  0
LINE
  8
0
 10
22.4058
 20
160.497
 11
22.5942
 21
160.497
  0
LINE
  8
0
 10
22.5942
 20
160.497
 11
22.7811
 21
160.473
  0
LINE
  8
0
 10
22.7811
 20
160.473
 11
22.9635
 21
160.427
  0
LINE
  8
0
 10
22.9635
 20
160.427
 11
23.1387
 21
160.357
  0
LINE
  8
0
 10
23.1387
 20
160.357
 11
23.3037
 21
160.266
  0
LINE
  8
0
 10
23.3037
 20
160.266
 11
23.4561
 21
160.156
  0
LINE
  8
0
 10
23.4561
 20
160.156
 11
23.5934
 21
160.027
  0
LINE
  8
0
 10
23.5934
 20
160.027
 11
23.7135
 21
159.882
  0
LINE
  8
0
 10
23.7135
 20
159.882
 11
23.8145
 21
159.723
  0
LINE
  8
0
 10
23.8145
 20
159.723
 11
23.8947
 21
159.552
  0
LINE
  8
0
 10
23.8947
 20
159.552
 11
23.9529
 21
159.373
  0
LINE
  8
0
 10
23.9529
 20
159.373
 11
23.9882
 21
159.188
  0
LINE
  8
0
 10
23.9882
 20
159.188
 11
24
 21
159
  0
LINE
  8
0
 10
24
 20
159
 11
23.9882
 21
158.812
  0
LINE
  8
0
 10
23.9882
 20
158.812
 11
23.9529
 21
158.627
  0
LINE
  8
0
 10
23.9529
 20
158.627
 11
23.8947
 21
158.448
  0
LINE
  8
0
 10
23.8947
 20
158.448
 11
23.8145
 21
158.277
  0
LINE
  8
0
 10
23.8145
 20
158.277
 11
23.7135
 21
158.118
  0
LINE
  8
0
 10
23.7135
 20
158.118
 11
23.5934
 21
157.973
  0
LINE
  8
0
 10
23.5934
 20
157.973
 11
23.4561
 21
157.844
  0
LINE
  8
0
 10
23.4561
 20
157.844
 11
23.3037
 21
157.734
  0
LINE
  8
0
 10
23.3037
 20
157.734
 11
23.1387
 21
157.643
  0
LINE
  8
0
 10
23.1387
 20
157.643
 11
22.9635
 21
157.573
  0
LINE
  8
0
 10
22.9635
 20
157.573
 11
22.7811
 21
157.527
  0
LINE
  8
0
 10
22.7811
 20
157.527
 11
22.5942
 21
157.503
  0
LINE
  8
0
 10
22.5942
 20
157.503
 11
22.4058
 21
157.503
  0
LINE
  8
0
 10
-37.5942
 20
157.503
 11
-37.7811
 21
157.527
  0
LINE
  8
0
 10
-37.7811
 20
157.527
 11
-37.9635
 21
157.573
  0
LINE
  8
0
 10
-37.9635
 20
157.573
 11
-38.1387
 21
157.643
  0
LINE
  8
0
 10
-38.1387
 20
157.643
 11
-38.3037
 21
157.734
  0
LINE
  8
0
 10
-38.3037
 20
157.734
 11
-38.4561
 21
157.844
  0
LINE
  8
0
 10
-38.4561
 20
157.844
 11
-38.5934
 21
157.973
  0
LINE
  8
0
 10
-38.5934
 20
157.973
 11
-38.7135
 21
158.118
  0
LINE
  8
0
 10
-38.7135
 20
158.118
 11
-38.8145
 21
158.277
  0
LINE
  8
0
 10
-38.8145
 20
158.277
 11
-38.8947
 21
158.448
  0
LINE
  8
0
 10
-38.8947
 20
158.448
 11
-38.9529
 21
158.627
  0
LINE
  8
0
 10
-38.9529
 20
158.627
 11
-38.9882
 21
158.812
  0
LINE
  8
0
 10
-38.9882
 20
158.812
 11
-39
 21
159
  0
LINE
  8
0
 10
-39
 20
159
 11
-38.9882
 21
159.188
  0
LINE
  8
0
 10
-38.9882
 20
159.188
 11
-38.9529
 21
159.373
  0
LINE
  8
0
 10
-38.9529
 20
159.373
 11
-38.8947
 21
159.552
  0
LINE
  8
0
 10
-38.8947
 20
159.552
 11
-38.8145
 21
159.723
  0
LINE
  8
0
 10
-38.8145
 20
159.723
 11
-38.7135
 21
159.882
  0
LINE
  8
0
 10
-38.7135
 20
159.882
 11
-38.5934
 21
160.027
  0
LINE
  8
0
 10
-38.5934
 20
160.027
 11
-38.4561
 21
160.156
  0
LINE
  8
0
 10
-38.4561
 20
160.156
 11
-38.3037
 21
160.266
  0
LINE
  8
0
 10
-38.3037
 20
160.266
 11
-38.1387
 21
160.357
  0
LINE
  8
0
 10
-38.1387
 20
160.357
 11
-37.9635
 21
160.427
  0
LINE
  8
0
 10
-37.9635
 20
160.427
 11
-37.7811
 21
160.473
  0
LINE
  8
0
 10
-37.7811
 20
160.473
 11
-37.5942
 21
160.497
  0
LINE
  8
0
 10
-37.5942
 20
160.497
 11
-37.4058
 21
160.497
  0
LINE
  8
0
 10
-37.4058
 20
160.497
 11
-37.2189
 21
160.473
  0
LINE
  8
0
 10
-37.2189
 20
160.473
 11
-37.0365
 21
160.427
  0
LINE
  8
0
 10
-37.0365
 20
160.427
 11
-36.8613
 21
160.357
  0
LINE
  8
0
 10
-36.8613
 20
160.357
 11
-36.6963
 21
160.266
  0
LINE
  8
0
 10
-36.6963
 20
160.266
 11
-36.5439
 21
160.156
  0
LINE
  8
0
 10
-36.5439
 20
160.156
 11
-36.4065
 21
160.027
  0
LINE
  8
0
 10
-36.4065
 20
160.027
 11
-36.2865
 21
159.882
  0
LINE
  8
0
 10
-36.2865
 20
159.882
 11
-36.1855
 21
159.723
  0
LINE
  8
0
 10
-36.1855
 20
159.723
 11
-36.1053
 21
159.552
  0
LINE
  8
0
 10
-36.1053
 20
159.552
 11
-36.0471
 21
159.373
  0
LINE
  8
0
 10
-36.0471
 20
159.373
 11
-36.0118
 21
159.188
  0
LINE
  8
0
 10
-36.0118
 20
159.188
 11
-36
 21
159
  0
LINE
  8
0
 10
-36
 20
159
 11
-36.0118
 21
158.812
  0
LINE
  8
0
 10
-36.0118
 20
158.812
 11
-36.0471
 21
158.627
  0
LINE
  8
0
 10
-36.0471
 20
158.627
 11
-36.1053
 21
158.448
  0
LINE
  8
0
 10
-36.1053
 20
158.448
 11
-36.1855
 21
158.277
  0
LINE
  8
0
 10
-36.1855
 20
158.277
 11
-36.2865
 21
158.118
  0
LINE
  8
0
 10
-36.2865
 20
158.118
 11
-36.4065
 21
157.973
  0
LINE
  8
0
 10
-36.4065
 20
157.973
 11
-36.5439
 21
157.844
  0
LINE
  8
0
 10
-36.5439
 20
157.844
 11
-36.6963
 21
157.734
  0
LINE
  8
0
 10
-36.6963
 20
157.734
 11
-36.8613
 21
157.643
  0
LINE
  8
0
 10
-36.8613
 20
157.643
 11
-37.0365
 21
157.573
  0
LINE
  8
0
 10
-37.0365
 20
157.573
 11
-37.2189
 21
157.527
  0
LINE
  8
0
 10
-37.2189
 20
157.527
 11
-37.4058
 21
157.503
  0
LINE
  8
0
 10
-37.4058
 20
157.503
 11
-37.5942
 21
157.503
  0
LINE
  8
0
 10
-7.59418
 20
157.503
 11
-7.78107
 21
157.527
  0
LINE
  8
0
 10
-7.78107
 20
157.527
 11
-7.96352
 21
157.573
  0
LINE
  8
0
 10
-7.96352
 20
157.573
 11
-8.13866
 21
157.643
  0
LINE
  8
0
 10
-8.13866
 20
157.643
 11
-8.30373
 21
157.734
  0
LINE
  8
0
 10
-8.30373
 20
157.734
 11
-8.45613
 21
157.844
  0
LINE
  8
0
 10
-8.45613
 20
157.844
 11
-8.59344
 21
157.973
  0
LINE
  8
0
 10
-8.59344
 20
157.973
 11
-8.71352
 21
158.118
  0
LINE
  8
0
 10
-8.71352
 20
158.118
 11
-8.81445
 21
158.277
  0
LINE
  8
0
 10
-8.81445
 20
158.277
 11
-8.89465
 21
158.448
  0
LINE
  8
0
 10
-8.89465
 20
158.448
 11
-8.95287
 21
158.627
  0
LINE
  8
0
 10
-8.95287
 20
158.627
 11
-8.98816
 21
158.812
  0
LINE
  8
0
 10
-8.98816
 20
158.812
 11
-9
 21
159
  0
LINE
  8
0
 10
-9
 20
159
 11
-8.98816
 21
159.188
  0
LINE
  8
0
 10
-8.98816
 20
159.188
 11
-8.95287
 21
159.373
  0
LINE
  8
0
 10
-8.95287
 20
159.373
 11
-8.89465
 21
159.552
  0
LINE
  8
0
 10
-8.89465
 20
159.552
 11
-8.81445
 21
159.723
  0
LINE
  8
0
 10
-8.81445
 20
159.723
 11
-8.71352
 21
159.882
  0
LINE
  8
0
 10
-8.71352
 20
159.882
 11
-8.59344
 21
160.027
  0
LINE
  8
0
 10
-8.59344
 20
160.027
 11
-8.45613
 21
160.156
  0
LINE
  8
0
 10
-8.45613
 20
160.156
 11
-8.30373
 21
160.266
  0
LINE
  8
0
 10
-8.30373
 20
160.266
 11
-8.13866
 21
160.357
  0
LINE
  8
0
 10
-8.13866
 20
160.357
 11
-7.96352
 21
160.427
  0
LINE
  8
0
 10
-7.96352
 20
160.427
 11
-7.78107
 21
160.473
  0
LINE
  8
0
 10
-7.78107
 20
160.473
 11
-7.59418
 21
160.497
  0
LINE
  8
0
 10
-7.59418
 20
160.497
 11
-7.40581
 21
160.497
  0
LINE
  8
0
 10
-7.40581
 20
160.497
 11
-7.21892
 21
160.473
  0
LINE
  8
0
 10
-7.21892
 20
160.473
 11
-7.03647
 21
160.427
  0
LINE
  8
0
 10
-7.03647
 20
160.427
 11
-6.86133
 21
160.357
  0
LINE
  8
0
 10
-6.86133
 20
160.357
 11
-6.69626
 21
160.266
  0
LINE
  8
0
 10
-6.69626
 20
160.266
 11
-6.54385
 21
160.156
  0
LINE
  8
0
 10
-6.54385
 20
160.156
 11
-6.40654
 21
160.027
  0
LINE
  8
0
 10
-6.40654
 20
160.027
 11
-6.28647
 21
159.882
  0
LINE
  8
0
 10
-6.28647
 20
159.882
 11
-6.18553
 21
159.723
  0
LINE
  8
0
 10
-6.18553
 20
159.723
 11
-6.10533
 21
159.552
  0
LINE
  8
0
 10
-6.10533
 20
159.552
 11
-6.04712
 21
159.373
  0
LINE
  8
0
 10
-6.04712
 20
159.373
 11
-6.01183
 21
159.188
  0
LINE
  8
0
 10
-6.01183
 20
159.188
 11
-6
 21
159
  0
LINE
  8
0
 10
-6
 20
159
 11
-6.01183
 21
158.812
  0
LINE
  8
0
 10
-6.01183
 20
158.812
 11
-6.04712
 21
158.627
  0
LINE
  8
0
 10
-6.04712
 20
158.627
 11
-6.10533
 21
158.448
  0
LINE
  8
0
 10
-6.10533
 20
158.448
 11
-6.18553
 21
158.277
  0
LINE
  8
0
 10
-6.18553
 20
158.277
 11
-6.28647
 21
158.118
  0
LINE
  8
0
 10
-6.28647
 20
158.118
 11
-6.40654
 21
157.973
  0
LINE
  8
0
 10
-6.40654
 20
157.973
 11
-6.54385
 21
157.844
  0
LINE
  8
0
 10
-6.54385
 20
157.844
 11
-6.69626
 21
157.734
  0
LINE
  8
0
 10
-6.69626
 20
157.734
 11
-6.86133
 21
157.643
  0
LINE
  8
0
 10
-6.86133
 20
157.643
 11
-7.03647
 21
157.573
  0
LINE
  8
0
 10
-7.03647
 20
157.573
 11
-7.21892
 21
157.527
  0
LINE
  8
0
 10
-7.21892
 20
157.527
 11
-7.40581
 21
157.503
  0
LINE
  8
0
 10
-7.40581
 20
157.503
 11
-7.59418
 21
157.503
  0
LINE
  8
0
 10
-45.0942
 20
150.003
 11
-45.2811
 21
150.027
  0
LINE
  8
0
 10
-45.2811
 20
150.027
 11
-45.4635
 21
150.073
  0
LINE
  8
0
 10
-45.4635
 20
150.073
 11
-45.6387
 21
150.143
  0
LINE
  8
0
 10
-45.6387
 20
150.143
 11
-45.8037
 21
150.234
  0
LINE
  8
0
 10
-45.8037
 20
150.234
 11
-45.9561
 21
150.344
  0
LINE
  8
0
 10
-45.9561
 20
150.344
 11
-46.0934
 21
150.473
  0
LINE
  8
0
 10
-46.0934
 20
150.473
 11
-46.2135
 21
150.618
  0
LINE
  8
0
 10
-46.2135
 20
150.618
 11
-46.3145
 21
150.777
  0
LINE
  8
0
 10
-46.3145
 20
150.777
 11
-46.3947
 21
150.948
  0
LINE
  8
0
 10
-46.3947
 20
150.948
 11
-46.4529
 21
151.127
  0
LINE
  8
0
 10
-46.4529
 20
151.127
 11
-46.4882
 21
151.312
  0
LINE
  8
0
 10
-46.4882
 20
151.312
 11
-46.5
 21
151.5
  0
LINE
  8
0
 10
-46.5
 20
151.5
 11
-46.4882
 21
151.688
  0
LINE
  8
0
 10
-46.4882
 20
151.688
 11
-46.4529
 21
151.873
  0
LINE
  8
0
 10
-46.4529
 20
151.873
 11
-46.3947
 21
152.052
  0
LINE
  8
0
 10
-46.3947
 20
152.052
 11
-46.3145
 21
152.223
  0
LINE
  8
0
 10
-46.3145
 20
152.223
 11
-46.2135
 21
152.382
  0
LINE
  8
0
 10
-46.2135
 20
152.382
 11
-46.0934
 21
152.527
  0
LINE
  8
0
 10
-46.0934
 20
152.527
 11
-45.9561
 21
152.656
  0
LINE
  8
0
 10
-45.9561
 20
152.656
 11
-45.8037
 21
152.766
  0
LINE
  8
0
 10
-45.8037
 20
152.766
 11
-45.6387
 21
152.857
  0
LINE
  8
0
 10
-45.6387
 20
152.857
 11
-45.4635
 21
152.927
  0
LINE
  8
0
 10
-45.4635
 20
152.927
 11
-45.2811
 21
152.973
  0
LINE
  8
0
 10
-45.2811
 20
152.973
 11
-45.0942
 21
152.997
  0
LINE
  8
0
 10
-45.0942
 20
152.997
 11
-44.9058
 21
152.997
  0
LINE
  8
0
 10
-44.9058
 20
152.997
 11
-44.7189
 21
152.973
  0
LINE
  8
0
 10
-44.7189
 20
152.973
 11
-44.5365
 21
152.927
  0
LINE
  8
0
 10
-44.5365
 20
152.927
 11
-44.3613
 21
152.857
  0
LINE
  8
0
 10
-44.3613
 20
152.857
 11
-44.1963
 21
152.766
  0
LINE
  8
0
 10
-44.1963
 20
152.766
 11
-44.0439
 21
152.656
  0
LINE
  8
0
 10
-44.0439
 20
152.656
 11
-43.9065
 21
152.527
  0
LINE
  8
0
 10
-43.9065
 20
152.527
 11
-43.7865
 21
152.382
  0
LINE
  8
0
 10
-43.7865
 20
152.382
 11
-43.6855
 21
152.223
  0
LINE
  8
0
 10
-43.6855
 20
152.223
 11
-43.6053
 21
152.052
  0
LINE
  8
0
 10
-43.6053
 20
152.052
 11
-43.5471
 21
151.873
  0
LINE
  8
0
 10
-43.5471
 20
151.873
 11
-43.5118
 21
151.688
  0
LINE
  8
0
 10
-43.5118
 20
151.688
 11
-43.5
 21
151.5
  0
LINE
  8
0
 10
-43.5
 20
151.5
 11
-43.5118
 21
151.312
  0
LINE
  8
0
 10
-43.5118
 20
151.312
 11
-43.5471
 21
151.127
  0
LINE
  8
0
 10
-43.5471
 20
151.127
 11
-43.6053
 21
150.948
  0
LINE
  8
0
 10
-43.6053
 20
150.948
 11
-43.6855
 21
150.777
  0
LINE
  8
0
 10
-43.6855
 20
150.777
 11
-43.7865
 21
150.618
  0
LINE
  8
0
 10
-43.7865
 20
150.618
 11
-43.9065
 21
150.473
  0
LINE
  8
0
 10
-43.9065
 20
150.473
 11
-44.0439
 21
150.344
  0
LINE
  8
0
 10
-44.0439
 20
150.344
 11
-44.1963
 21
150.234
  0
LINE
  8
0
 10
-44.1963
 20
150.234
 11
-44.3613
 21
150.143
  0
LINE
  8
0
 10
-44.3613
 20
150.143
 11
-44.5365
 21
150.073
  0
LINE
  8
0
 10
-44.5365
 20
150.073
 11
-44.7189
 21
150.027
  0
LINE
  8
0
 10
-44.7189
 20
150.027
 11
-44.9058
 21
150.003
  0
LINE
  8
0
 10
-44.9058
 20
150.003
 11
-45.0942
 21
150.003
  0
LINE
  8
0
 10
44.9058
 20
150.003
 11
44.7189
 21
150.027
  0
LINE
  8
0
 10
44.7189
 20
150.027
 11
44.5365
 21
150.073
  0
LINE
  8
0
 10
44.5365
 20
150.073
 11
44.3613
 21
150.143
  0
LINE
  8
0
 10
44.3613
 20
150.143
 11
44.1963
 21
150.234
  0
LINE
  8
0
 10
44.1963
 20
150.234
 11
44.0439
 21
150.344
  0
LINE
  8
0
 10
44.0439
 20
150.344
 11
43.9065
 21
150.473
  0
LINE
  8
0
 10
43.9065
 20
150.473
 11
43.7865
 21
150.618
  0
LINE
  8
0
 10
43.7865
 20
150.618
 11
43.6855
 21
150.777
  0
LINE
  8
0
 10
43.6855
 20
150.777
 11
43.6053
 21
150.948
  0
LINE
  8
0
 10
43.6053
 20
150.948
 11
43.5471
 21
151.127
  0
LINE
  8
0
 10
43.5471
 20
151.127
 11
43.5118
 21
151.312
  0
LINE
  8
0
 10
43.5118
 20
151.312
 11
43.5
 21
151.5
  0
LINE
  8
0
 10
43.5
 20
151.5
 11
43.5118
 21
151.688
  0
LINE
  8
0
 10
43.5118
 20
151.688
 11
43.5471
 21
151.873
  0
LINE
  8
0
 10
43.5471
 20
151.873
 11
43.6053
 21
152.052
  0
LINE
  8
0
 10
43.6053
 20
152.052
 11
43.6855
 21
152.223
  0
LINE
  8
0
 10
43.6855
 20
152.223
 11
43.7865
 21
152.382
  0
LINE
  8
0
 10
43.7865
 20
152.382
 11
43.9065
 21
152.527
  0
LINE
  8
0
 10
43.9065
 20
152.527
 11
44.0439
 21
152.656
  0
LINE
  8
0
 10
44.0439
 20
152.656
 11
44.1963
 21
152.766
  0
LINE
  8
0
 10
44.1963
 20
152.766
 11
44.3613
 21
152.857
  0
LINE
  8
0
 10
44.3613
 20
152.857
 11
44.5365
 21
152.927
  0
LINE
  8
0
 10
44.5365
 20
152.927
 11
44.7189
 21
152.973
  0
LINE
  8
0
 10
44.7189
 20
152.973
 11
44.9058
 21
152.997
  0
LINE
  8
0
 10
44.9058
 20
152.997
 11
45.0942
 21
152.997
  0
LINE
  8
0
 10
45.0942
 20
152.997
 11
45.2811
 21
152.973
  0
LINE
  8
0
 10
45.2811
 20
152.973
 11
45.4635
 21
152.927
  0
LINE
  8
0
 10
45.4635
 20
152.927
 11
45.6387
 21
152.857
  0
LINE
  8
0
 10
45.6387
 20
152.857
 11
45.8037
 21
152.766
  0
LINE
  8
0
 10
45.8037
 20
152.766
 11
45.9561
 21
152.656
  0
LINE
  8
0
 10
45.9561
 20
152.656
 11
46.0934
 21
152.527
  0
LINE
  8
0
 10
46.0934
 20
152.527
 11
46.2135
 21
152.382
  0
LINE
  8
0
 10
46.2135
 20
152.382
 11
46.3145
 21
152.223
  0
LINE
  8
0
 10
46.3145
 20
152.223
 11
46.3947
 21
152.052
  0
LINE
  8
0
 10
46.3947
 20
152.052
 11
46.4529
 21
151.873
  0
LINE
  8
0
 10
46.4529
 20
151.873
 11
46.4882
 21
151.688
  0
LINE
  8
0
 10
46.4882
 20
151.688
 11
46.5
 21
151.5
  0
LINE
  8
0
 10
46.5
 20
151.5
 11
46.4882
 21
151.312
  0
LINE
  8
0
 10
46.4882
 20
151.312
 11
46.4529
 21
151.127
  0
LINE
  8
0
 10
46.4529
 20
151.127
 11
46.3947
 21
150.948
  0
LINE
  8
0
 10
46.3947
 20
150.948
 11
46.3145
 21
150.777
  0
LINE
  8
0
 10
46.3145
 20
150.777
 11
46.2135
 21
150.618
  0
LINE
  8
0
 10
46.2135
 20
150.618
 11
46.0934
 21
150.473
  0
LINE
  8
0
 10
46.0934
 20
150.473
 11
45.9561
 21
150.344
  0
LINE
  8
0
 10
45.9561
 20
150.344
 11
45.8037
 21
150.234
  0
LINE
  8
0
 10
45.8037
 20
150.234
 11
45.6387
 21
150.143
  0
LINE
  8
0
 10
45.6387
 20
150.143
 11
45.4635
 21
150.073
  0
LINE
  8
0
 10
45.4635
 20
150.073
 11
45.2811
 21
150.027
  0
LINE
  8
0
 10
45.2811
 20
150.027
 11
45.0942
 21
150.003
  0
LINE
  8
0
 10
45.0942
 20
150.003
 11
44.9058
 21
150.003
  0
LINE
  8
0
 10
-2.19766
 20
79.0691
 11
-6.55833
 21
79.6199
  0
LINE
  8
0
 10
-6.55833
 20
79.6199
 11
-10.8156
 21
80.713
  0
LINE
  8
0
 10
-10.8156
 20
80.713
 11
-14.9023
 21
82.3311
  0
LINE
  8
0
 10
-14.9023
 20
82.3311
 11
-18.7539
 21
84.4485
  0
LINE
  8
0
 10
-18.7539
 20
84.4485
 11
-22.3098
 21
87.032
  0
LINE
  8
0
 10
-22.3098
 20
87.032
 11
-25.5139
 21
90.0409
  0
LINE
  8
0
 10
-25.5139
 20
90.0409
 11
-28.3156
 21
93.4275
  0
LINE
  8
0
 10
-28.3156
 20
93.4275
 11
-30.6707
 21
97.1386
  0
LINE
  8
0
 10
-30.6707
 20
97.1386
 11
-32.5422
 21
101.116
  0
LINE
  8
0
 10
-32.5422
 20
101.116
 11
-33.9004
 21
105.296
  0
LINE
  8
0
 10
-33.9004
 20
105.296
 11
-34.724
 21
109.613
  0
LINE
  8
0
 10
-34.724
 20
109.613
 11
-35
 21
114
  0
LINE
  8
0
 10
-35
 20
114
 11
-34.724
 21
118.387
  0
LINE
  8
0
 10
-34.724
 20
118.387
 11
-33.9004
 21
122.704
  0
LINE
  8
0
 10
-33.9004
 20
122.704
 11
-32.5422
 21
126.884
  0
LINE
  8
0
 10
-32.5422
 20
126.884
 11
-30.6707
 21
130.861
  0
LINE
  8
0
 10
-30.6707
 20
130.861
 11
-28.3156
 21
134.572
  0
LINE
  8
0
 10
-28.3156
 20
134.572
 11
-25.5139
 21
137.959
  0
LINE
  8
0
 10
-25.5139
 20
137.959
 11
-22.3098
 21
140.968
  0
LINE
  8
0
 10
-22.3098
 20
140.968
 11
-18.7539
 21
143.551
  0
LINE
  8
0
 10
-18.7539
 20
143.551
 11
-14.9023
 21
145.669
  0
LINE
  8
0
 10
-14.9023
 20
145.669
 11
-10.8156
 21
147.287
  0
LINE
  8
0
 10
-10.8156
 20
147.287
 11
-6.55833
 21
148.38
  0
LINE
  8
0
 10
-6.55833
 20
148.38
 11
-2.19766
 21
148.931
  0
LINE
  8
0
 10
-2.19766
 20
148.931
 11
2.19766
 21
148.931
  0
LINE
  8
0
 10
2.19766
 20
148.931
 11
6.55833
 21
148.38
  0
LINE
  8
0
 10
6.55833
 20
148.38
 11
10.8156
 21
147.287
  0
LINE
  8
0
 10
10.8156
 20
147.287
 11
14.9023
 21
145.669
  0
LINE
  8
0
 10
14.9023
 20
145.669
 11
18.7539
 21
143.551
  0
LINE
  8
0
 10
18.7539
 20
143.551
 11
22.3098
 21
140.968
  0
LINE
  8
0
 10
22.3098
 20
140.968
 11
25.5139
 21
137.959
  0
LINE
  8
0
 10
25.5139
 20
137.959
 11
28.3156
 21
134.572
  0
LINE
  8
0
 10
28.3156
 20
134.572
 11
30.6707
 21
130.861
  0
LINE
  8
0
 10
30.6707
 20
130.861
 11
32.5422
 21
126.884
  0
LINE
  8
0
 10
32.5422
 20
126.884
 11
33.9004
 21
122.704
  0
LINE
  8
0
 10
33.9004
 20
122.704
 11
34.724
 21
118.387
  0
LINE
  8
0
 10
34.724
 20
118.387
 11
35
 21
114
  0
LINE
  8
0
 10
35
 20
114
 11
34.724
 21
109.613
  0
LINE
  8
0
 10
34.724
 20
109.613
 11
33.9004
 21
105.296
  0
LINE
  8
0
 10
33.9004
 20
105.296
 11
32.5422
 21
101.116
  0
LINE
  8
0
 10
32.5422
 20
101.116
 11
30.6707
 21
97.1386
  0
LINE
  8
0
 10
30.6707
 20
97.1386
 11
28.3156
 21
93.4275
  0
LINE
  8
0
 10
28.3156
 20
93.4275
 11
25.5139
 21
90.0409
  0
LINE
  8
0
 10
25.5139
 20
90.0409
 11
22.3098
 21
87.032
  0
LINE
  8
0
 10
22.3098
 20
87.032
 11
18.7539
 21
84.4485
  0
LINE
  8
0
 10
18.7539
 20
84.4485
 11
14.9023
 21
82.3311
  0
LINE
  8
0
 10
14.9023
 20
82.3311
 11
10.8156
 21
80.713
  0
LINE
  8
0
 10
10.8156
 20
80.713
 11
6.55833
 21
79.6199
  0
LINE
  8
0
 10
6.55833
 20
79.6199
 11
2.19766
 21
79.0691
  0
LINE
  8
0
 10
2.19766
 20
79.0691
 11
-2.19766
 21
79.0691
  0
LINE
  8
0
 10
-45.1884
 20
141.006
 11
-45.5621
 21
141.053
  0
LINE
  8
0
 10
-45.5621
 20
141.053
 11
-45.927
 21
141.147
  0
LINE
  8
0
 10
-45.927
 20
141.147
 11
-46.2773
 21
141.286
  0
LINE
  8
0
 10
-46.2773
 20
141.286
 11
-46.6075
 21
141.467
  0
LINE
  8
0
 10
-46.6075
 20
141.467
 11
-46.9123
 21
141.688
  0
LINE
  8
0
 10
-46.9123
 20
141.688
 11
-47.1869
 21
141.946
  0
LINE
  8
0
 10
-47.1869
 20
141.946
 11
-47.427
 21
142.237
  0
LINE
  8
0
 10
-47.427
 20
142.237
 11
-47.6289
 21
142.555
  0
LINE
  8
0
 10
-47.6289
 20
142.555
 11
-47.7893
 21
142.896
  0
LINE
  8
0
 10
-47.7893
 20
142.896
 11
-47.9057
 21
143.254
  0
LINE
  8
0
 10
-47.9057
 20
143.254
 11
-47.9763
 21
143.624
  0
LINE
  8
0
 10
-47.9763
 20
143.624
 11
-48
 21
144
  0
LINE
  8
0
 10
-48
 20
144
 11
-47.9763
 21
144.376
  0
LINE
  8
0
 10
-47.9763
 20
144.376
 11
-47.9057
 21
144.746
  0
LINE
  8
0
 10
-47.9057
 20
144.746
 11
-47.7893
 21
145.104
  0
LINE
  8
0
 10
-47.7893
 20
145.104
 11
-47.6289
 21
145.445
  0
LINE
  8
0
 10
-47.6289
 20
145.445
 11
-47.427
 21
145.763
  0
LINE
  8
0
 10
-47.427
 20
145.763
 11
-47.1869
 21
146.054
  0
LINE
  8
0
 10
-47.1869
 20
146.054
 11
-46.9123
 21
146.312
  0
LINE
  8
0
 10
-46.9123
 20
146.312
 11
-46.6075
 21
146.533
  0
LINE
  8
0
 10
-46.6075
 20
146.533
 11
-46.2773
 21
146.714
  0
LINE
  8
0
 10
-46.2773
 20
146.714
 11
-45.927
 21
146.853
  0
LINE
  8
0
 10
-45.927
 20
146.853
 11
-45.5621
 21
146.947
  0
LINE
  8
0
 10
-45.5621
 20
146.947
 11
-45.1884
 21
146.994
  0
LINE
  8
0
 10
-45.1884
 20
146.994
 11
-44.8116
 21
146.994
  0
LINE
  8
0
 10
-44.8116
 20
146.994
 11
-44.4379
 21
146.947
  0
LINE
  8
0
 10
-44.4379
 20
146.947
 11
-44.0729
 21
146.853
  0
LINE
  8
0
 10
-44.0729
 20
146.853
 11
-43.7227
 21
146.714
  0
LINE
  8
0
 10
-43.7227
 20
146.714
 11
-43.3925
 21
146.533
  0
LINE
  8
0
 10
-43.3925
 20
146.533
 11
-43.0877
 21
146.312
  0
LINE
  8
0
 10
-43.0877
 20
146.312
 11
-42.8131
 21
146.054
  0
LINE
  8
0
 10
-42.8131
 20
146.054
 11
-42.5729
 21
145.763
  0
LINE
  8
0
 10
-42.5729
 20
145.763
 11
-42.3711
 21
145.445
  0
LINE
  8
0
 10
-42.3711
 20
145.445
 11
-42.2107
 21
145.104
  0
LINE
  8
0
 10
-42.2107
 20
145.104
 11
-42.0942
 21
144.746
  0
LINE
  8
0
 10
-42.0942
 20
144.746
 11
-42.0237
 21
144.376
  0
LINE
  8
0
 10
-42.0237
 20
144.376
 11
-42
 21
144
  0
LINE
  8
0
 10
-42
 20
144
 11
-42.0237
 21
143.624
  0
LINE
  8
0
 10
-42.0237
 20
143.624
 11
-42.0942
 21
143.254
  0
LINE
  8
0
 10
-42.0942
 20
143.254
 11
-42.2107
 21
142.896
  0
LINE
  8
0
 10
-42.2107
 20
142.896
 11
-42.3711
 21
142.555
  0
LINE
  8
0
 10
-42.3711
 20
142.555
 11
-42.5729
 21
142.237
  0
LINE
  8
0
 10
-42.5729
 20
142.237
 11
-42.8131
 21
141.946
  0
LINE
  8
0
 10
-42.8131
 20
141.946
 11
-43.0877
 21
141.688
  0
LINE
  8
0
 10
-43.0877
 20
141.688
 11
-43.3925
 21
141.467
  0
LINE
  8
0
 10
-43.3925
 20
141.467
 11
-43.7227
 21
141.286
  0
LINE
  8
0
 10
-43.7227
 20
141.286
 11
-44.0729
 21
141.147
  0
LINE
  8
0
 10
-44.0729
 20
141.147
 11
-44.4379
 21
141.053
  0
LINE
  8
0
 10
-44.4379
 20
141.053
 11
-44.8116
 21
141.006
  0
LINE
  8
0
 10
-44.8116
 20
141.006
 11
-45.1884
 21
141.006
  0
LINE
  8
0
 10
44.8116
 20
141.006
 11
44.4379
 21
141.053
  0
LINE
  8
0
 10
44.4379
 20
141.053
 11
44.0729
 21
141.147
  0
LINE
  8
0
 10
44.0729
 20
141.147
 11
43.7227
 21
141.286
  0
LINE
  8
0
 10
43.7227
 20
141.286
 11
43.3925
 21
141.467
  0
LINE
  8
0
 10
43.3925
 20
141.467
 11
43.0877
 21
141.688
  0
LINE
  8
0
 10
43.0877
 20
141.688
 11
42.8131
 21
141.946
  0
LINE
  8
0
 10
42.8131
 20
141.946
 11
42.5729
 21
142.237
  0
LINE
  8
0
 10
42.5729
 20
142.237
 11
42.3711
 21
142.555
  0
LINE
  8
0
 10
42.3711
 20
142.555
 11
42.2107
 21
142.896
  0
LINE
  8
0
 10
42.2107
 20
142.896
 11
42.0942
 21
143.254
  0
LINE
  8
0
 10
42.0942
 20
143.254
 11
42.0237
 21
143.624
  0
LINE
  8
0
 10
42.0237
 20
143.624
 11
42
 21
144
  0
LINE
  8
0
 10
42
 20
144
 11
42.0237
 21
144.376
  0
LINE
  8
0
 10
42.0237
 20
144.376
 11
42.0942
 21
144.746
  0
LINE
  8
0
 10
42.0942
 20
144.746
 11
42.2107
 21
145.104
  0
LINE
  8
0
 10
42.2107
 20
145.104
 11
42.3711
 21
145.445
  0
LINE
  8
0
 10
42.3711
 20
145.445
 11
42.5729
 21
145.763
  0
LINE
  8
0
 10
42.5729
 20
145.763
 11
42.8131
 21
146.054
  0
LINE
  8
0
 10
42.8131
 20
146.054
 11
43.0877
 21
146.312
  0
LINE
  8
0
 10
43.0877
 20
146.312
 11
43.3925
 21
146.533
  0
LINE
  8
0
 10
43.3925
 20
146.533
 11
43.7227
 21
146.714
  0
LINE
  8
0
 10
43.7227
 20
146.714
 11
44.0729
 21
146.853
  0
LINE
  8
0
 10
44.0729
 20
146.853
 11
44.4379
 21
146.947
  0
LINE
  8
0
 10
44.4379
 20
146.947
 11
44.8116
 21
146.994
  0
LINE
  8
0
 10
44.8116
 20
146.994
 11
45.1884
 21
146.994
  0
LINE
  8
0
 10
45.1884
 20
146.994
 11
45.5621
 21
146.947
  0
LINE
  8
0
 10
45.5621
 20
146.947
 11
45.927
 21
146.853
  0
LINE
  8
0
 10
45.927
 20
146.853
 11
46.2773
 21
146.714
  0
LINE
  8
0
 10
46.2773
 20
146.714
 11
46.6075
 21
146.533
  0
LINE
  8
0
 10
46.6075
 20
146.533
 11
46.9123
 21
146.312
  0
LINE
  8
0
 10
46.9123
 20
146.312
 11
47.1869
 21
146.054
  0
LINE
  8
0
 10
47.1869
 20
146.054
 11
47.427
 21
145.763
  0
LINE
  8
0
 10
47.427
 20
145.763
 11
47.6289
 21
145.445
  0
LINE
  8
0
 10
47.6289
 20
145.445
 11
47.7893
 21
145.104
  0
LINE
  8
0
 10
47.7893
 20
145.104
 11
47.9057
 21
144.746
  0
LINE
  8
0
 10
47.9057
 20
144.746
 11
47.9763
 21
144.376
  0
LINE
  8
0
 10
47.9763
 20
144.376
 11
48
 21
144
  0
LINE
  8
0
 10
48
 20
144
 11
47.9763
 21
143.624
  0
LINE
  8
0
 10
47.9763
 20
143.624
 11
47.9057
 21
143.254
  0
LINE
  8
0
 10
47.9057
 20
143.254
 11
47.7893
 21
142.896
  0
LINE
  8
0
 10
47.7893
 20
142.896
 11
47.6289
 21
142.555
  0
LINE
  8
0
 10
47.6289
 20
142.555
 11
47.427
 21
142.237
  0
LINE
  8
0
 10
47.427
 20
142.237
 11
47.1869
 21
141.946
  0
LINE
  8
0
 10
47.1869
 20
141.946
 11
46.9123
 21
141.688
  0
LINE
  8
0
 10
46.9123
 20
141.688
 11
46.6075
 21
141.467
  0
LINE
  8
0
 10
46.6075
 20
141.467
 11
46.2773
 21
141.286
  0
LINE
  8
0
 10
46.2773
 20
141.286
 11
45.927
 21
141.147
  0
LINE
  8
0
 10
45.927
 20
141.147
 11
45.5621
 21
141.053
  0
LINE
  8
0
 10
45.5621
 20
141.053
 11
45.1884
 21
141.006
  0
LINE
  8
0
 10
45.1884
 20
141.006
 11
44.8116
 21
141.006
  0
LINE
  8
0
 10
44.9058
 20
135.003
 11
44.7189
 21
135.027
  0
LINE
  8
0
 10
44.7189
 20
135.027
 11
44.5365
 21
135.073
  0
LINE
  8
0
 10
44.5365
 20
135.073
 11
44.3613
 21
135.143
  0
LINE
  8
0
 10
44.3613
 20
135.143
 11
44.1963
 21
135.234
  0
LINE
  8
0
 10
44.1963
 20
135.234
 11
44.0439
 21
135.344
  0
LINE
  8
0
 10
44.0439
 20
135.344
 11
43.9065
 21
135.473
  0
LINE
  8
0
 10
43.9065
 20
135.473
 11
43.7865
 21
135.618
  0
LINE
  8
0
 10
43.7865
 20
135.618
 11
43.6855
 21
135.777
  0
LINE
  8
0
 10
43.6855
 20
135.777
 11
43.6053
 21
135.948
  0
LINE
  8
0
 10
43.6053
 20
135.948
 11
43.5471
 21
136.127
  0
LINE
  8
0
 10
43.5471
 20
136.127
 11
43.5118
 21
136.312
  0
LINE
  8
0
 10
43.5118
 20
136.312
 11
43.5
 21
136.5
  0
LINE
  8
0
 10
43.5
 20
136.5
 11
43.5118
 21
136.688
  0
LINE
  8
0
 10
43.5118
 20
136.688
 11
43.5471
 21
136.873
  0
LINE
  8
0
 10
43.5471
 20
136.873
 11
43.6053
 21
137.052
  0
LINE
  8
0
 10
43.6053
 20
137.052
 11
43.6855
 21
137.223
  0
LINE
  8
0
 10
43.6855
 20
137.223
 11
43.7865
 21
137.382
  0
LINE
  8
0
 10
43.7865
 20
137.382
 11
43.9065
 21
137.527
  0
LINE
  8
0
 10
43.9065
 20
137.527
 11
44.0439
 21
137.656
  0
LINE
  8
0
 10
44.0439
 20
137.656
 11
44.1963
 21
137.766
  0
LINE
  8
0
 10
44.1963
 20
137.766
 11
44.3613
 21
137.857
  0
LINE
  8
0
 10
44.3613
 20
137.857
 11
44.5365
 21
137.927
  0
LINE
  8
0
 10
44.5365
 20
137.927
 11
44.7189
 21
137.973
  0
LINE
  8
0
 10
44.7189
 20
137.973
 11
44.9058
 21
137.997
  0
LINE
  8
0
 10
44.9058
 20
137.997
 11
45.0942
 21
137.997
  0
LINE
  8
0
 10
45.0942
 20
137.997
 11
45.2811
 21
137.973
  0
LINE
  8
0
 10
45.2811
 20
137.973
 11
45.4635
 21
137.927
  0
LINE
  8
0
 10
45.4635
 20
137.927
 11
45.6387
 21
137.857
  0
LINE
  8
0
 10
45.6387
 20
137.857
 11
45.8037
 21
137.766
  0
LINE
  8
0
 10
45.8037
 20
137.766
 11
45.9561
 21
137.656
  0
LINE
  8
0
 10
45.9561
 20
137.656
 11
46.0934
 21
137.527
  0
LINE
  8
0
 10
46.0934
 20
137.527
 11
46.2135
 21
137.382
  0
LINE
  8
0
 10
46.2135
 20
137.382
 11
46.3145
 21
137.223
  0
LINE
  8
0
 10
46.3145
 20
137.223
 11
46.3947
 21
137.052
  0
LINE
  8
0
 10
46.3947
 20
137.052
 11
46.4529
 21
136.873
  0
LINE
  8
0
 10
46.4529
 20
136.873
 11
46.4882
 21
136.688
  0
LINE
  8
0
 10
46.4882
 20
136.688
 11
46.5
 21
136.5
  0
LINE
  8
0
 10
46.5
 20
136.5
 11
46.4882
 21
136.312
  0
LINE
  8
0
 10
46.4882
 20
136.312
 11
46.4529
 21
136.127
  0
LINE
  8
0
 10
46.4529
 20
136.127
 11
46.3947
 21
135.948
  0
LINE
  8
0
 10
46.3947
 20
135.948
 11
46.3145
 21
135.777
  0
LINE
  8
0
 10
46.3145
 20
135.777
 11
46.2135
 21
135.618
  0
LINE
  8
0
 10
46.2135
 20
135.618
 11
46.0934
 21
135.473
  0
LINE
  8
0
 10
46.0934
 20
135.473
 11
45.9561
 21
135.344
  0
LINE
  8
0
 10
45.9561
 20
135.344
 11
45.8037
 21
135.234
  0
LINE
  8
0
 10
45.8037
 20
135.234
 11
45.6387
 21
135.143
  0
LINE
  8
0
 10
45.6387
 20
135.143
 11
45.4635
 21
135.073
  0
LINE
  8
0
 10
45.4635
 20
135.073
 11
45.2811
 21
135.027
  0
LINE
  8
0
 10
45.2811
 20
135.027
 11
45.0942
 21
135.003
  0
LINE
  8
0
 10
45.0942
 20
135.003
 11
44.9058
 21
135.003
  0
LINE
  8
0
 10
-45.0942
 20
135.003
 11
-45.2811
 21
135.027
  0
LINE
  8
0
 10
-45.2811
 20
135.027
 11
-45.4635
 21
135.073
  0
LINE
  8
0
 10
-45.4635
 20
135.073
 11
-45.6387
 21
135.143
  0
LINE
  8
0
 10
-45.6387
 20
135.143
 11
-45.8037
 21
135.234
  0
LINE
  8
0
 10
-45.8037
 20
135.234
 11
-45.9561
 21
135.344
  0
LINE
  8
0
 10
-45.9561
 20
135.344
 11
-46.0934
 21
135.473
  0
LINE
  8
0
 10
-46.0934
 20
135.473
 11
-46.2135
 21
135.618
  0
LINE
  8
0
 10
-46.2135
 20
135.618
 11
-46.3145
 21
135.777
  0
LINE
  8
0
 10
-46.3145
 20
135.777
 11
-46.3947
 21
135.948
  0
LINE
  8
0
 10
-46.3947
 20
135.948
 11
-46.4529
 21
136.127
  0
LINE
  8
0
 10
-46.4529
 20
136.127
 11
-46.4882
 21
136.312
  0
LINE
  8
0
 10
-46.4882
 20
136.312
 11
-46.5
 21
136.5
  0
LINE
  8
0
 10
-46.5
 20
136.5
 11
-46.4882
 21
136.688
  0
LINE
  8
0
 10
-46.4882
 20
136.688
 11
-46.4529
 21
136.873
  0
LINE
  8
0
 10
-46.4529
 20
136.873
 11
-46.3947
 21
137.052
  0
LINE
  8
0
 10
-46.3947
 20
137.052
 11
-46.3145
 21
137.223
  0
LINE
  8
0
 10
-46.3145
 20
137.223
 11
-46.2135
 21
137.382
  0
LINE
  8
0
 10
-46.2135
 20
137.382
 11
-46.0934
 21
137.527
  0
LINE
  8
0
 10
-46.0934
 20
137.527
 11
-45.9561
 21
137.656
  0
LINE
  8
0
 10
-45.9561
 20
137.656
 11
-45.8037
 21
137.766
  0
LINE
  8
0
 10
-45.8037
 20
137.766
 11
-45.6387
 21
137.857
  0
LINE
  8
0
 10
-45.6387
 20
137.857
 11
-45.4635
 21
137.927
  0
LINE
  8
0
 10
-45.4635
 20
137.927
 11
-45.2811
 21
137.973
  0
LINE
  8
0
 10
-45.2811
 20
137.973
 11
-45.0942
 21
137.997
  0
LINE
  8
0
 10
-45.0942
 20
137.997
 11
-44.9058
 21
137.997
  0
LINE
  8
0
 10
-44.9058
 20
137.997
 11
-44.7189
 21
137.973
  0
LINE
  8
0
 10
-44.7189
 20
137.973
 11
-44.5365
 21
137.927
  0
LINE
  8
0
 10
-44.5365
 20
137.927
 11
-44.3613
 21
137.857
  0
LINE
  8
0
 10
-44.3613
 20
137.857
 11
-44.1963
 21
137.766
  0
LINE
  8
0
 10
-44.1963
 20
137.766
 11
-44.0439
 21
137.656
  0
LINE
  8
0
 10
-44.0439
 20
137.656
 11
-43.9065
 21
137.527
  0
LINE
  8
0
 10
-43.9065
 20
137.527
 11
-43.7865
 21
137.382
  0
LINE
  8
0
 10
-43.7865
 20
137.382
 11
-43.6855
 21
137.223
  0
LINE
  8
0
 10
-43.6855
 20
137.223
 11
-43.6053
 21
137.052
  0
LINE
  8
0
 10
-43.6053
 20
137.052
 11
-43.5471
 21
136.873
  0
LINE
  8
0
 10
-43.5471
 20
136.873
 11
-43.5118
 21
136.688
  0
LINE
  8
0
 10
-43.5118
 20
136.688
 11
-43.5
 21
136.5
  0
LINE
  8
0
 10
-43.5
 20
136.5
 11
-43.5118
 21
136.312
  0
LINE
  8
0
 10
-43.5118
 20
136.312
 11
-43.5471
 21
136.127
  0
LINE
  8
0
 10
-43.5471
 20
136.127
 11
-43.6053
 21
135.948
  0
LINE
  8
0
 10
-43.6053
 20
135.948
 11
-43.6855
 21
135.777
  0
LINE
  8
0
 10
-43.6855
 20
135.777
 11
-43.7865
 21
135.618
  0
LINE
  8
0
 10
-43.7865
 20
135.618
 11
-43.9065
 21
135.473
  0
LINE
  8
0
 10
-43.9065
 20
135.473
 11
-44.0439
 21
135.344
  0
LINE
  8
0
 10
-44.0439
 20
135.344
 11
-44.1963
 21
135.234
  0
LINE
  8
0
 10
-44.1963
 20
135.234
 11
-44.3613
 21
135.143
  0
LINE
  8
0
 10
-44.3613
 20
135.143
 11
-44.5365
 21
135.073
  0
LINE
  8
0
 10
-44.5365
 20
135.073
 11
-44.7189
 21
135.027
  0
LINE
  8
0
 10
-44.7189
 20
135.027
 11
-44.9058
 21
135.003
  0
LINE
  8
0
 10
-44.9058
 20
135.003
 11
-45.0942
 21
135.003
  0
LINE
  8
0
 10
-45.1884
 20
126.006
 11
-45.5621
 21
126.053
  0
LINE
  8
0
 10
-45.5621
 20
126.053
 11
-45.927
 21
126.147
  0
LINE
  8
0
 10
-45.927
 20
126.147
 11
-46.2773
 21
126.286
  0
LINE
  8
0
 10
-46.2773
 20
126.286
 11
-46.6075
 21
126.467
  0
LINE
  8
0
 10
-46.6075
 20
126.467
 11
-46.9123
 21
126.688
  0
LINE
  8
0
 10
-46.9123
 20
126.688
 11
-47.1869
 21
126.946
  0
LINE
  8
0
 10
-47.1869
 20
126.946
 11
-47.427
 21
127.237
  0
LINE
  8
0
 10
-47.427
 20
127.237
 11
-47.6289
 21
127.555
  0
LINE
  8
0
 10
-47.6289
 20
127.555
 11
-47.7893
 21
127.896
  0
LINE
  8
0
 10
-47.7893
 20
127.896
 11
-47.9057
 21
128.254
  0
LINE
  8
0
 10
-47.9057
 20
128.254
 11
-47.9763
 21
128.624
  0
LINE
  8
0
 10
-47.9763
 20
128.624
 11
-48
 21
129
  0
LINE
  8
0
 10
-48
 20
129
 11
-47.9763
 21
129.376
  0
LINE
  8
0
 10
-47.9763
 20
129.376
 11
-47.9057
 21
129.746
  0
LINE
  8
0
 10
-47.9057
 20
129.746
 11
-47.7893
 21
130.104
  0
LINE
  8
0
 10
-47.7893
 20
130.104
 11
-47.6289
 21
130.445
  0
LINE
  8
0
 10
-47.6289
 20
130.445
 11
-47.427
 21
130.763
  0
LINE
  8
0
 10
-47.427
 20
130.763
 11
-47.1869
 21
131.054
  0
LINE
  8
0
 10
-47.1869
 20
131.054
 11
-46.9123
 21
131.312
  0
LINE
  8
0
 10
-46.9123
 20
131.312
 11
-46.6075
 21
131.533
  0
LINE
  8
0
 10
-46.6075
 20
131.533
 11
-46.2773
 21
131.714
  0
LINE
  8
0
 10
-46.2773
 20
131.714
 11
-45.927
 21
131.853
  0
LINE
  8
0
 10
-45.927
 20
131.853
 11
-45.5621
 21
131.947
  0
LINE
  8
0
 10
-45.5621
 20
131.947
 11
-45.1884
 21
131.994
  0
LINE
  8
0
 10
-45.1884
 20
131.994
 11
-44.8116
 21
131.994
  0
LINE
  8
0
 10
-44.8116
 20
131.994
 11
-44.4379
 21
131.947
  0
LINE
  8
0
 10
-44.4379
 20
131.947
 11
-44.0729
 21
131.853
  0
LINE
  8
0
 10
-44.0729
 20
131.853
 11
-43.7227
 21
131.714
  0
LINE
  8
0
 10
-43.7227
 20
131.714
 11
-43.3925
 21
131.533
  0
LINE
  8
0
 10
-43.3925
 20
131.533
 11
-43.0877
 21
131.312
  0
LINE
  8
0
 10
-43.0877
 20
131.312
 11
-42.8131
 21
131.054
  0
LINE
  8
0
 10
-42.8131
 20
131.054
 11
-42.5729
 21
130.763
  0
LINE
  8
0
 10
-42.5729
 20
130.763
 11
-42.3711
 21
130.445
  0
LINE
  8
0
 10
-42.3711
 20
130.445
 11
-42.2107
 21
130.104
  0
LINE
  8
0
 10
-42.2107
 20
130.104
 11
-42.0942
 21
129.746
  0
LINE
  8
0
 10
-42.0942
 20
129.746
 11
-42.0237
 21
129.376
  0
LINE
  8
0
 10
-42.0237
 20
129.376
 11
-42
 21
129
  0
LINE
  8
0
 10
-42
 20
129
 11
-42.0237
 21
128.624
  0
LINE
  8
0
 10
-42.0237
 20
128.624
 11
-42.0942
 21
128.254
  0
LINE
  8
0
 10
-42.0942
 20
128.254
 11
-42.2107
 21
127.896
  0
LINE
  8
0
 10
-42.2107
 20
127.896
 11
-42.3711
 21
127.555
  0
LINE
  8
0
 10
-42.3711
 20
127.555
 11
-42.5729
 21
127.237
  0
LINE
  8
0
 10
-42.5729
 20
127.237
 11
-42.8131
 21
126.946
  0
LINE
  8
0
 10
-42.8131
 20
126.946
 11
-43.0877
 21
126.688
  0
LINE
  8
0
 10
-43.0877
 20
126.688
 11
-43.3925
 21
126.467
  0
LINE
  8
0
 10
-43.3925
 20
126.467
 11
-43.7227
 21
126.286
  0
LINE
  8
0
 10
-43.7227
 20
126.286
 11
-44.0729
 21
126.147
  0
LINE
  8
0
 10
-44.0729
 20
126.147
 11
-44.4379
 21
126.053
  0
LINE
  8
0
 10
-44.4379
 20
126.053
 11
-44.8116
 21
126.006
  0
LINE
  8
0
 10
-44.8116
 20
126.006
 11
-45.1884
 21
126.006
  0
LINE
  8
0
 10
44.8116
 20
126.006
 11
44.4379
 21
126.053
  0
LINE
  8
0
 10
44.4379
 20
126.053
 11
44.0729
 21
126.147
  0
LINE
  8
0
 10
44.0729
 20
126.147
 11
43.7227
 21
126.286
  0
LINE
  8
0
 10
43.7227
 20
126.286
 11
43.3925
 21
126.467
  0
LINE
  8
0
 10
43.3925
 20
126.467
 11
43.0877
 21
126.688
  0
LINE
  8
0
 10
43.0877
 20
126.688
 11
42.8131
 21
126.946
  0
LINE
  8
0
 10
42.8131
 20
126.946
 11
42.5729
 21
127.237
  0
LINE
  8
0
 10
42.5729
 20
127.237
 11
42.3711
 21
127.555
  0
LINE
  8
0
 10
42.3711
 20
127.555
 11
42.2107
 21
127.896
  0
LINE
  8
0
 10
42.2107
 20
127.896
 11
42.0942
 21
128.254
  0
LINE
  8
0
 10
42.0942
 20
128.254
 11
42.0237
 21
128.624
  0
LINE
  8
0
 10
42.0237
 20
128.624
 11
42
 21
129
  0
LINE
  8
0
 10
42
 20
129
 11
42.0237
 21
129.376
  0
LINE
  8
0
 10
42.0237
 20
129.376
 11
42.0942
 21
129.746
  0
LINE
  8
0
 10
42.0942
 20
129.746
 11
42.2107
 21
130.104
  0
LINE
  8
0
 10
42.2107
 20
130.104
 11
42.3711
 21
130.445
  0
LINE
  8
0
 10
42.3711
 20
130.445
 11
42.5729
 21
130.763
  0
LINE
  8
0
 10
42.5729
 20
130.763
 11
42.8131
 21
131.054
  0
LINE
  8
0
 10
42.8131
 20
131.054
 11
43.0877
 21
131.312
  0
LINE
  8
0
 10
43.0877
 20
131.312
 11
43.3925
 21
131.533
  0
LINE
  8
0
 10
43.3925
 20
131.533
 11
43.7227
 21
131.714
  0
LINE
  8
0
 10
43.7227
 20
131.714
 11
44.0729
 21
131.853
  0
LINE
  8
0
 10
44.0729
 20
131.853
 11
44.4379
 21
131.947
  0
LINE
  8
0
 10
44.4379
 20
131.947
 11
44.8116
 21
131.994
  0
LINE
  8
0
 10
44.8116
 20
131.994
 11
45.1884
 21
131.994
  0
LINE
  8
0
 10
45.1884
 20
131.994
 11
45.5621
 21
131.947
  0
LINE
  8
0
 10
45.5621
 20
131.947
 11
45.927
 21
131.853
  0
LINE
  8
0
 10
45.927
 20
131.853
 11
46.2773
 21
131.714
  0
LINE
  8
0
 10
46.2773
 20
131.714
 11
46.6075
 21
131.533
  0
LINE
  8
0
 10
46.6075
 20
131.533
 11
46.9123
 21
131.312
  0
LINE
  8
0
 10
46.9123
 20
131.312
 11
47.1869
 21
131.054
  0
LINE
  8
0
 10
47.1869
 20
131.054
 11
47.427
 21
130.763
  0
LINE
  8
0
 10
47.427
 20
130.763
 11
47.6289
 21
130.445
  0
LINE
  8
0
 10
47.6289
 20
130.445
 11
47.7893
 21
130.104
  0
LINE
  8
0
 10
47.7893
 20
130.104
 11
47.9057
 21
129.746
  0
LINE
  8
0
 10
47.9057
 20
129.746
 11
47.9763
 21
129.376
  0
LINE
  8
0
 10
47.9763
 20
129.376
 11
48
 21
129
  0
LINE
  8
0
 10
48
 20
129
 11
47.9763
 21
128.624
  0
LINE
  8
0
 10
47.9763
 20
128.624
 11
47.9057
 21
128.254
  0
LINE
  8
0
 10
47.9057
 20
128.254
 11
47.7893
 21
127.896
  0
LINE
  8
0
 10
47.7893
 20
127.896
 11
47.6289
 21
127.555
  0
LINE
  8
0
 10
47.6289
 20
127.555
 11
47.427
 21
127.237
  0
LINE
  8
0
 10
47.427
 20
127.237
 11
47.1869
 21
126.946
  0
LINE
  8
0
 10
47.1869
 20
126.946
 11
46.9123
 21
126.688
  0
LINE
  8
0
 10
46.9123
 20
126.688
 11
46.6075
 21
126.467
  0
LINE
  8
0
 10
46.6075
 20
126.467
 11
46.2773
 21
126.286
  0
LINE
  8
0
 10
46.2773
 20
126.286
 11
45.927
 21
126.147
  0
LINE
  8
0
 10
45.927
 20
126.147
 11
45.5621
 21
126.053
  0
LINE
  8
0
 10
45.5621
 20
126.053
 11
45.1884
 21
126.006
  0
LINE
  8
0
 10
45.1884
 20
126.006
 11
44.8116
 21
126.006
  0
LINE
  8
0
 10
44.9058
 20
120.003
 11
44.7189
 21
120.027
  0
LINE
  8
0
 10
44.7189
 20
120.027
 11
44.5365
 21
120.073
  0
LINE
  8
0
 10
44.5365
 20
120.073
 11
44.3613
 21
120.143
  0
LINE
  8
0
 10
44.3613
 20
120.143
 11
44.1963
 21
120.234
  0
LINE
  8
0
 10
44.1963
 20
120.234
 11
44.0439
 21
120.344
  0
LINE
  8
0
 10
44.0439
 20
120.344
 11
43.9065
 21
120.473
  0
LINE
  8
0
 10
43.9065
 20
120.473
 11
43.7865
 21
120.618
  0
LINE
  8
0
 10
43.7865
 20
120.618
 11
43.6855
 21
120.777
  0
LINE
  8
0
 10
43.6855
 20
120.777
 11
43.6053
 21
120.948
  0
LINE
  8
0
 10
43.6053
 20
120.948
 11
43.5471
 21
121.127
  0
LINE
  8
0
 10
43.5471
 20
121.127
 11
43.5118
 21
121.312
  0
LINE
  8
0
 10
43.5118
 20
121.312
 11
43.5
 21
121.5
  0
LINE
  8
0
 10
43.5
 20
121.5
 11
43.5118
 21
121.688
  0
LINE
  8
0
 10
43.5118
 20
121.688
 11
43.5471
 21
121.873
  0
LINE
  8
0
 10
43.5471
 20
121.873
 11
43.6053
 21
122.052
  0
LINE
  8
0
 10
43.6053
 20
122.052
 11
43.6855
 21
122.223
  0
LINE
  8
0
 10
43.6855
 20
122.223
 11
43.7865
 21
122.382
  0
LINE
  8
0
 10
43.7865
 20
122.382
 11
43.9065
 21
122.527
  0
LINE
  8
0
 10
43.9065
 20
122.527
 11
44.0439
 21
122.656
  0
LINE
  8
0
 10
44.0439
 20
122.656
 11
44.1963
 21
122.766
  0
LINE
  8
0
 10
44.1963
 20
122.766
 11
44.3613
 21
122.857
  0
LINE
  8
0
 10
44.3613
 20
122.857
 11
44.5365
 21
122.927
  0
LINE
  8
0
 10
44.5365
 20
122.927
 11
44.7189
 21
122.973
  0
LINE
  8
0
 10
44.7189
 20
122.973
 11
44.9058
 21
122.997
  0
LINE
  8
0
 10
44.9058
 20
122.997
 11
45.0942
 21
122.997
  0
LINE
  8
0
 10
45.0942
 20
122.997
 11
45.2811
 21
122.973
  0
LINE
  8
0
 10
45.2811
 20
122.973
 11
45.4635
 21
122.927
  0
LINE
  8
0
 10
45.4635
 20
122.927
 11
45.6387
 21
122.857
  0
LINE
  8
0
 10
45.6387
 20
122.857
 11
45.8037
 21
122.766
  0
LINE
  8
0
 10
45.8037
 20
122.766
 11
45.9561
 21
122.656
  0
LINE
  8
0
 10
45.9561
 20
122.656
 11
46.0934
 21
122.527
  0
LINE
  8
0
 10
46.0934
 20
122.527
 11
46.2135
 21
122.382
  0
LINE
  8
0
 10
46.2135
 20
122.382
 11
46.3145
 21
122.223
  0
LINE
  8
0
 10
46.3145
 20
122.223
 11
46.3947
 21
122.052
  0
LINE
  8
0
 10
46.3947
 20
122.052
 11
46.4529
 21
121.873
  0
LINE
  8
0
 10
46.4529
 20
121.873
 11
46.4882
 21
121.688
  0
LINE
  8
0
 10
46.4882
 20
121.688
 11
46.5
 21
121.5
  0
LINE
  8
0
 10
46.5
 20
121.5
 11
46.4882
 21
121.312
  0
LINE
  8
0
 10
46.4882
 20
121.312
 11
46.4529
 21
121.127
  0
LINE
  8
0
 10
46.4529
 20
121.127
 11
46.3947
 21
120.948
  0
LINE
  8
0
 10
46.3947
 20
120.948
 11
46.3145
 21
120.777
  0
LINE
  8
0
 10
46.3145
 20
120.777
 11
46.2135
 21
120.618
  0
LINE
  8
0
 10
46.2135
 20
120.618
 11
46.0934
 21
120.473
  0
LINE
  8
0
 10
46.0934
 20
120.473
 11
45.9561
 21
120.344
  0
LINE
  8
0
 10
45.9561
 20
120.344
 11
45.8037
 21
120.234
  0
LINE
  8
0
 10
45.8037
 20
120.234
 11
45.6387
 21
120.143
  0
LINE
  8
0
 10
45.6387
 20
120.143
 11
45.4635
 21
120.073
  0
LINE
  8
0
 10
45.4635
 20
120.073
 11
45.2811
 21
120.027
  0
LINE
  8
0
 10
45.2811
 20
120.027
 11
45.0942
 21
120.003
  0
LINE
  8
0
 10
45.0942
 20
120.003
 11
44.9058
 21
120.003
  0
LINE
  8
0
 10
-45.0942
 20
120.003
 11
-45.2811
 21
120.027
  0
LINE
  8
0
 10
-45.2811
 20
120.027
 11
-45.4635
 21
120.073
  0
LINE
  8
0
 10
-45.4635
 20
120.073
 11
-45.6387
 21
120.143
  0
LINE
  8
0
 10
-45.6387
 20
120.143
 11
-45.8037
 21
120.234
  0
LINE
  8
0
 10
-45.8037
 20
120.234
 11
-45.9561
 21
120.344
  0
LINE
  8
0
 10
-45.9561
 20
120.344
 11
-46.0934
 21
120.473
  0
LINE
  8
0
 10
-46.0934
 20
120.473
 11
-46.2135
 21
120.618
  0
LINE
  8
0
 10
-46.2135
 20
120.618
 11
-46.3145
 21
120.777
  0
LINE
  8
0
 10
-46.3145
 20
120.777
 11
-46.3947
 21
120.948
  0
LINE
  8
0
 10
-46.3947
 20
120.948
 11
-46.4529
 21
121.127
  0
LINE
  8
0
 10
-46.4529
 20
121.127
 11
-46.4882
 21
121.312
  0
LINE
  8
0
 10
-46.4882
 20
121.312
 11
-46.5
 21
121.5
  0
LINE
  8
0
 10
-46.5
 20
121.5
 11
-46.4882
 21
121.688
  0
LINE
  8
0
 10
-46.4882
 20
121.688
 11
-46.4529
 21
121.873
  0
LINE
  8
0
 10
-46.4529
 20
121.873
 11
-46.3947
 21
122.052
  0
LINE
  8
0
 10
-46.3947
 20
122.052
 11
-46.3145
 21
122.223
  0
LINE
  8
0
 10
-46.3145
 20
122.223
 11
-46.2135
 21
122.382
  0
LINE
  8
0
 10
-46.2135
 20
122.382
 11
-46.0934
 21
122.527
  0
LINE
  8
0
 10
-46.0934
 20
122.527
 11
-45.9561
 21
122.656
  0
LINE
  8
0
 10
-45.9561
 20
122.656
 11
-45.8037
 21
122.766
  0
LINE
  8
0
 10
-45.8037
 20
122.766
 11
-45.6387
 21
122.857
  0
LINE
  8
0
 10
-45.6387
 20
122.857
 11
-45.4635
 21
122.927
  0
LINE
  8
0
 10
-45.4635
 20
122.927
 11
-45.2811
 21
122.973
  0
LINE
  8
0
 10
-45.2811
 20
122.973
 11
-45.0942
 21
122.997
  0
LINE
  8
0
 10
-45.0942
 20
122.997
 11
-44.9058
 21
122.997
  0
LINE
  8
0
 10
-44.9058
 20
122.997
 11
-44.7189
 21
122.973
  0
LINE
  8
0
 10
-44.7189
 20
122.973
 11
-44.5365
 21
122.927
  0
LINE
  8
0
 10
-44.5365
 20
122.927
 11
-44.3613
 21
122.857
  0
LINE
  8
0
 10
-44.3613
 20
122.857
 11
-44.1963
 21
122.766
  0
LINE
  8
0
 10
-44.1963
 20
122.766
 11
-44.0439
 21
122.656
  0
LINE
  8
0
 10
-44.0439
 20
122.656
 11
-43.9065
 21
122.527
  0
LINE
  8
0
 10
-43.9065
 20
122.527
 11
-43.7865
 21
122.382
  0
LINE
  8
0
 10
-43.7865
 20
122.382
 11
-43.6855
 21
122.223
  0
LINE
  8
0
 10
-43.6855
 20
122.223
 11
-43.6053
 21
122.052
  0
LINE
  8
0
 10
-43.6053
 20
122.052
 11
-43.5471
 21
121.873
  0
LINE
  8
0
 10
-43.5471
 20
121.873
 11
-43.5118
 21
121.688
  0
LINE
  8
0
 10
-43.5118
 20
121.688
 11
-43.5
 21
121.5
  0
LINE
  8
0
 10
-43.5
 20
121.5
 11
-43.5118
 21
121.312
  0
LINE
  8
0
 10
-43.5118
 20
121.312
 11
-43.5471
 21
121.127
  0
LINE
  8
0
 10
-43.5471
 20
121.127
 11
-43.6053
 21
120.948
  0
LINE
  8
0
 10
-43.6053
 20
120.948
 11
-43.6855
 21
120.777
  0
LINE
  8
0
 10
-43.6855
 20
120.777
 11
-43.7865
 21
120.618
  0
LINE
  8
0
 10
-43.7865
 20
120.618
 11
-43.9065
 21
120.473
  0
LINE
  8
0
 10
-43.9065
 20
120.473
 11
-44.0439
 21
120.344
  0
LINE
  8
0
 10
-44.0439
 20
120.344
 11
-44.1963
 21
120.234
  0
LINE
  8
0
 10
-44.1963
 20
120.234
 11
-44.3613
 21
120.143
  0
LINE
  8
0
 10
-44.3613
 20
120.143
 11
-44.5365
 21
120.073
  0
LINE
  8
0
 10
-44.5365
 20
120.073
 11
-44.7189
 21
120.027
  0
LINE
  8
0
 10
-44.7189
 20
120.027
 11
-44.9058
 21
120.003
  0
LINE
  8
0
 10
-44.9058
 20
120.003
 11
-45.0942
 21
120.003
  0
LINE
  8
0
 10
44.8116
 20
111.006
 11
44.4379
 21
111.053
  0
LINE
  8
0
 10
44.4379
 20
111.053
 11
44.0729
 21
111.147
  0
LINE
  8
0
 10
44.0729
 20
111.147
 11
43.7227
 21
111.286
  0
LINE
  8
0
 10
43.7227
 20
111.286
 11
43.3925
 21
111.467
  0
LINE
  8
0
 10
43.3925
 20
111.467
 11
43.0877
 21
111.688
  0
LINE
  8
0
 10
43.0877
 20
111.688
 11
42.8131
 21
111.946
  0
LINE
  8
0
 10
42.8131
 20
111.946
 11
42.5729
 21
112.237
  0
LINE
  8
0
 10
42.5729
 20
112.237
 11
42.3711
 21
112.555
  0
LINE
  8
0
 10
42.3711
 20
112.555
 11
42.2107
 21
112.896
  0
LINE
  8
0
 10
42.2107
 20
112.896
 11
42.0942
 21
113.254
  0
LINE
  8
0
 10
42.0942
 20
113.254
 11
42.0237
 21
113.624
  0
LINE
  8
0
 10
42.0237
 20
113.624
 11
42
 21
114
  0
LINE
  8
0
 10
42
 20
114
 11
42.0237
 21
114.376
  0
LINE
  8
0
 10
42.0237
 20
114.376
 11
42.0942
 21
114.746
  0
LINE
  8
0
 10
42.0942
 20
114.746
 11
42.2107
 21
115.104
  0
LINE
  8
0
 10
42.2107
 20
115.104
 11
42.3711
 21
115.445
  0
LINE
  8
0
 10
42.3711
 20
115.445
 11
42.5729
 21
115.763
  0
LINE
  8
0
 10
42.5729
 20
115.763
 11
42.8131
 21
116.054
  0
LINE
  8
0
 10
42.8131
 20
116.054
 11
43.0877
 21
116.312
  0
LINE
  8
0
 10
43.0877
 20
116.312
 11
43.3925
 21
116.533
  0
LINE
  8
0
 10
43.3925
 20
116.533
 11
43.7227
 21
116.714
  0
LINE
  8
0
 10
43.7227
 20
116.714
 11
44.0729
 21
116.853
  0
LINE
  8
0
 10
44.0729
 20
116.853
 11
44.4379
 21
116.947
  0
LINE
  8
0
 10
44.4379
 20
116.947
 11
44.8116
 21
116.994
  0
LINE
  8
0
 10
44.8116
 20
116.994
 11
45.1884
 21
116.994
  0
LINE
  8
0
 10
45.1884
 20
116.994
 11
45.5621
 21
116.947
  0
LINE
  8
0
 10
45.5621
 20
116.947
 11
45.927
 21
116.853
  0
LINE
  8
0
 10
45.927
 20
116.853
 11
46.2773
 21
116.714
  0
LINE
  8
0
 10
46.2773
 20
116.714
 11
46.6075
 21
116.533
  0
LINE
  8
0
 10
46.6075
 20
116.533
 11
46.9123
 21
116.312
  0
LINE
  8
0
 10
46.9123
 20
116.312
 11
47.1869
 21
116.054
  0
LINE
  8
0
 10
47.1869
 20
116.054
 11
47.427
 21
115.763
  0
LINE
  8
0
 10
47.427
 20
115.763
 11
47.6289
 21
115.445
  0
LINE
  8
0
 10
47.6289
 20
115.445
 11
47.7893
 21
115.104
  0
LINE
  8
0
 10
47.7893
 20
115.104
 11
47.9057
 21
114.746
  0
LINE
  8
0
 10
47.9057
 20
114.746
 11
47.9763
 21
114.376
  0
LINE
  8
0
 10
47.9763
 20
114.376
 11
48
 21
114
  0
LINE
  8
0
 10
48
 20
114
 11
47.9763
 21
113.624
  0
LINE
  8
0
 10
47.9763
 20
113.624
 11
47.9057
 21
113.254
  0
LINE
  8
0
 10
47.9057
 20
113.254
 11
47.7893
 21
112.896
  0
LINE
  8
0
 10
47.7893
 20
112.896
 11
47.6289
 21
112.555
  0
LINE
  8
0
 10
47.6289
 20
112.555
 11
47.427
 21
112.237
  0
LINE
  8
0
 10
47.427
 20
112.237
 11
47.1869
 21
111.946
  0
LINE
  8
0
 10
47.1869
 20
111.946
 11
46.9123
 21
111.688
  0
LINE
  8
0
 10
46.9123
 20
111.688
 11
46.6075
 21
111.467
  0
LINE
  8
0
 10
46.6075
 20
111.467
 11
46.2773
 21
111.286
  0
LINE
  8
0
 10
46.2773
 20
111.286
 11
45.927
 21
111.147
  0
LINE
  8
0
 10
45.927
 20
111.147
 11
45.5621
 21
111.053
  0
LINE
  8
0
 10
45.5621
 20
111.053
 11
45.1884
 21
111.006
  0
LINE
  8
0
 10
45.1884
 20
111.006
 11
44.8116
 21
111.006
  0
LINE
  8
0
 10
-45.1884
 20
111.006
 11
-45.5621
 21
111.053
  0
LINE
  8
0
 10
-45.5621
 20
111.053
 11
-45.927
 21
111.147
  0
LINE
  8
0
 10
-45.927
 20
111.147
 11
-46.2773
 21
111.286
  0
LINE
  8
0
 10
-46.2773
 20
111.286
 11
-46.6075
 21
111.467
  0
LINE
  8
0
 10
-46.6075
 20
111.467
 11
-46.9123
 21
111.688
  0
LINE
  8
0
 10
-46.9123
 20
111.688
 11
-47.1869
 21
111.946
  0
LINE
  8
0
 10
-47.1869
 20
111.946
 11
-47.427
 21
112.237
  0
LINE
  8
0
 10
-47.427
 20
112.237
 11
-47.6289
 21
112.555
  0
LINE
  8
0
 10
-47.6289
 20
112.555
 11
-47.7893
 21
112.896
  0
LINE
  8
0
 10
-47.7893
 20
112.896
 11
-47.9057
 21
113.254
  0
LINE
  8
0
 10
-47.9057
 20
113.254
 11
-47.9763
 21
113.624
  0
LINE
  8
0
 10
-47.9763
 20
113.624
 11
-48
 21
114
  0
LINE
  8
0
 10
-48
 20
114
 11
-47.9763
 21
114.376
  0
LINE
  8
0
 10
-47.9763
 20
114.376
 11
-47.9057
 21
114.746
  0
LINE
  8
0
 10
-47.9057
 20
114.746
 11
-47.7893
 21
115.104
  0
LINE
  8
0
 10
-47.7893
 20
115.104
 11
-47.6289
 21
115.445
  0
LINE
  8
0
 10
-47.6289
 20
115.445
 11
-47.427
 21
115.763
  0
LINE
  8
0
 10
-47.427
 20
115.763
 11
-47.1869
 21
116.054
  0
LINE
  8
0
 10
-47.1869
 20
116.054
 11
-46.9123
 21
116.312
  0
LINE
  8
0
 10
-46.9123
 20
116.312
 11
-46.6075
 21
116.533
  0
LINE
  8
0
 10
-46.6075
 20
116.533
 11
-46.2773
 21
116.714
  0
LINE
  8
0
 10
-46.2773
 20
116.714
 11
-45.927
 21
116.853
  0
LINE
  8
0
 10
-45.927
 20
116.853
 11
-45.5621
 21
116.947
  0
LINE
  8
0
 10
-45.5621
 20
116.947
 11
-45.1884
 21
116.994
  0
LINE
  8
0
 10
-45.1884
 20
116.994
 11
-44.8116
 21
116.994
  0
LINE
  8
0
 10
-44.8116
 20
116.994
 11
-44.4379
 21
116.947
  0
LINE
  8
0
 10
-44.4379
 20
116.947
 11
-44.0729
 21
116.853
  0
LINE
  8
0
 10
-44.0729
 20
116.853
 11
-43.7227
 21
116.714
  0
LINE
  8
0
 10
-43.7227
 20
116.714
 11
-43.3925
 21
116.533
  0
LINE
  8
0
 10
-43.3925
 20
116.533
 11
-43.0877
 21
116.312
  0
LINE
  8
0
 10
-43.0877
 20
116.312
 11
-42.8131
 21
116.054
  0
LINE
  8
0
 10
-42.8131
 20
116.054
 11
-42.5729
 21
115.763
  0
LINE
  8
0
 10
-42.5729
 20
115.763
 11
-42.3711
 21
115.445
  0
LINE
  8
0
 10
-42.3711
 20
115.445
 11
-42.2107
 21
115.104
  0
LINE
  8
0
 10
-42.2107
 20
115.104
 11
-42.0942
 21
114.746
  0
LINE
  8
0
 10
-42.0942
 20
114.746
 11
-42.0237
 21
114.376
  0
LINE
  8
0
 10
-42.0237
 20
114.376
 11
-42
 21
114
  0
LINE
  8
0
 10
-42
 20
114
 11
-42.0237
 21
113.624
  0
LINE
  8
0
 10
-42.0237
 20
113.624
 11
-42.0942
 21
113.254
  0
LINE
  8
0
 10
-42.0942
 20
113.254
 11
-42.2107
 21
112.896
  0
LINE
  8
0
 10
-42.2107
 20
112.896
 11
-42.3711
 21
112.555
  0
LINE
  8
0
 10
-42.3711
 20
112.555
 11
-42.5729
 21
112.237
  0
LINE
  8
0
 10
-42.5729
 20
112.237
 11
-42.8131
 21
111.946
  0
LINE
  8
0
 10
-42.8131
 20
111.946
 11
-43.0877
 21
111.688
  0
LINE
  8
0
 10
-43.0877
 20
111.688
 11
-43.3925
 21
111.467
  0
LINE
  8
0
 10
-43.3925
 20
111.467
 11
-43.7227
 21
111.286
  0
LINE
  8
0
 10
-43.7227
 20
111.286
 11
-44.0729
 21
111.147
  0
LINE
  8
0
 10
-44.0729
 20
111.147
 11
-44.4379
 21
111.053
  0
LINE
  8
0
 10
-44.4379
 20
111.053
 11
-44.8116
 21
111.006
  0
LINE
  8
0
 10
-44.8116
 20
111.006
 11
-45.1884
 21
111.006
  0
LINE
  8
0
 10
-45.0942
 20
105.003
 11
-45.2811
 21
105.027
  0
LINE
  8
0
 10
-45.2811
 20
105.027
 11
-45.4635
 21
105.073
  0
LINE
  8
0
 10
-45.4635
 20
105.073
 11
-45.6387
 21
105.143
  0
LINE
  8
0
 10
-45.6387
 20
105.143
 11
-45.8037
 21
105.234
  0
LINE
  8
0
 10
-45.8037
 20
105.234
 11
-45.9561
 21
105.344
  0
LINE
  8
0
 10
-45.9561
 20
105.344
 11
-46.0934
 21
105.473
  0
LINE
  8
0
 10
-46.0934
 20
105.473
 11
-46.2135
 21
105.618
  0
LINE
  8
0
 10
-46.2135
 20
105.618
 11
-46.3145
 21
105.777
  0
LINE
  8
0
 10
-46.3145
 20
105.777
 11
-46.3947
 21
105.948
  0
LINE
  8
0
 10
-46.3947
 20
105.948
 11
-46.4529
 21
106.127
  0
LINE
  8
0
 10
-46.4529
 20
106.127
 11
-46.4882
 21
106.312
  0
LINE
  8
0
 10
-46.4882
 20
106.312
 11
-46.5
 21
106.5
  0
LINE
  8
0
 10
-46.5
 20
106.5
 11
-46.4882
 21
106.688
  0
LINE
  8
0
 10
-46.4882
 20
106.688
 11
-46.4529
 21
106.873
  0
LINE
  8
0
 10
-46.4529
 20
106.873
 11
-46.3947
 21
107.052
  0
LINE
  8
0
 10
-46.3947
 20
107.052
 11
-46.3145
 21
107.223
  0
LINE
  8
0
 10
-46.3145
 20
107.223
 11
-46.2135
 21
107.382
  0
LINE
  8
0
 10
-46.2135
 20
107.382
 11
-46.0934
 21
107.527
  0
LINE
  8
0
 10
-46.0934
 20
107.527
 11
-45.9561
 21
107.656
  0
LINE
  8
0
 10
-45.9561
 20
107.656
 11
-45.8037
 21
107.766
  0
LINE
  8
0
 10
-45.8037
 20
107.766
 11
-45.6387
 21
107.857
  0
LINE
  8
0
 10
-45.6387
 20
107.857
 11
-45.4635
 21
107.927
  0
LINE
  8
0
 10
-45.4635
 20
107.927
 11
-45.2811
 21
107.973
  0
LINE
  8
0
 10
-45.2811
 20
107.973
 11
-45.0942
 21
107.997
  0
LINE
  8
0
 10
-45.0942
 20
107.997
 11
-44.9058
 21
107.997
  0
LINE
  8
0
 10
-44.9058
 20
107.997
 11
-44.7189
 21
107.973
  0
LINE
  8
0
 10
-44.7189
 20
107.973
 11
-44.5365
 21
107.927
  0
LINE
  8
0
 10
-44.5365
 20
107.927
 11
-44.3613
 21
107.857
  0
LINE
  8
0
 10
-44.3613
 20
107.857
 11
-44.1963
 21
107.766
  0
LINE
  8
0
 10
-44.1963
 20
107.766
 11
-44.0439
 21
107.656
  0
LINE
  8
0
 10
-44.0439
 20
107.656
 11
-43.9065
 21
107.527
  0
LINE
  8
0
 10
-43.9065
 20
107.527
 11
-43.7865
 21
107.382
  0
LINE
  8
0
 10
-43.7865
 20
107.382
 11
-43.6855
 21
107.223
  0
LINE
  8
0
 10
-43.6855
 20
107.223
 11
-43.6053
 21
107.052
  0
LINE
  8
0
 10
-43.6053
 20
107.052
 11
-43.5471
 21
106.873
  0
LINE
  8
0
 10
-43.5471
 20
106.873
 11
-43.5118
 21
106.688
  0
LINE
  8
0
 10
-43.5118
 20
106.688
 11
-43.5
 21
106.5
  0
LINE
  8
0
 10
-43.5
 20
106.5
 11
-43.5118
 21
106.312
  0
LINE
  8
0
 10
-43.5118
 20
106.312
 11
-43.5471
 21
106.127
  0
LINE
  8
0
 10
-43.5471
 20
106.127
 11
-43.6053
 21
105.948
  0
LINE
  8
0
 10
-43.6053
 20
105.948
 11
-43.6855
 21
105.777
  0
LINE
  8
0
 10
-43.6855
 20
105.777
 11
-43.7865
 21
105.618
  0
LINE
  8
0
 10
-43.7865
 20
105.618
 11
-43.9065
 21
105.473
  0
LINE
  8
0
 10
-43.9065
 20
105.473
 11
-44.0439
 21
105.344
  0
LINE
  8
0
 10
-44.0439
 20
105.344
 11
-44.1963
 21
105.234
  0
LINE
  8
0
 10
-44.1963
 20
105.234
 11
-44.3613
 21
105.143
  0
LINE
  8
0
 10
-44.3613
 20
105.143
 11
-44.5365
 21
105.073
  0
LINE
  8
0
 10
-44.5365
 20
105.073
 11
-44.7189
 21
105.027
  0
LINE
  8
0
 10
-44.7189
 20
105.027
 11
-44.9058
 21
105.003
  0
LINE
  8
0
 10
-44.9058
 20
105.003
 11
-45.0942
 21
105.003
  0
LINE
  8
0
 10
44.9058
 20
105.003
 11
44.7189
 21
105.027
  0
LINE
  8
0
 10
44.7189
 20
105.027
 11
44.5365
 21
105.073
  0
LINE
  8
0
 10
44.5365
 20
105.073
 11
44.3613
 21
105.143
  0
LINE
  8
0
 10
44.3613
 20
105.143
 11
44.1963
 21
105.234
  0
LINE
  8
0
 10
44.1963
 20
105.234
 11
44.0439
 21
105.344
  0
LINE
  8
0
 10
44.0439
 20
105.344
 11
43.9065
 21
105.473
  0
LINE
  8
0
 10
43.9065
 20
105.473
 11
43.7865
 21
105.618
  0
LINE
  8
0
 10
43.7865
 20
105.618
 11
43.6855
 21
105.777
  0
LINE
  8
0
 10
43.6855
 20
105.777
 11
43.6053
 21
105.948
  0
LINE
  8
0
 10
43.6053
 20
105.948
 11
43.5471
 21
106.127
  0
LINE
  8
0
 10
43.5471
 20
106.127
 11
43.5118
 21
106.312
  0
LINE
  8
0
 10
43.5118
 20
106.312
 11
43.5
 21
106.5
  0
LINE
  8
0
 10
43.5
 20
106.5
 11
43.5118
 21
106.688
  0
LINE
  8
0
 10
43.5118
 20
106.688
 11
43.5471
 21
106.873
  0
LINE
  8
0
 10
43.5471
 20
106.873
 11
43.6053
 21
107.052
  0
LINE
  8
0
 10
43.6053
 20
107.052
 11
43.6855
 21
107.223
  0
LINE
  8
0
 10
43.6855
 20
107.223
 11
43.7865
 21
107.382
  0
LINE
  8
0
 10
43.7865
 20
107.382
 11
43.9065
 21
107.527
  0
LINE
  8
0
 10
43.9065
 20
107.527
 11
44.0439
 21
107.656
  0
LINE
  8
0
 10
44.0439
 20
107.656
 11
44.1963
 21
107.766
  0
LINE
  8
0
 10
44.1963
 20
107.766
 11
44.3613
 21
107.857
  0
LINE
  8
0
 10
44.3613
 20
107.857
 11
44.5365
 21
107.927
  0
LINE
  8
0
 10
44.5365
 20
107.927
 11
44.7189
 21
107.973
  0
LINE
  8
0
 10
44.7189
 20
107.973
 11
44.9058
 21
107.997
  0
LINE
  8
0
 10
44.9058
 20
107.997
 11
45.0942
 21
107.997
  0
LINE
  8
0
 10
45.0942
 20
107.997
 11
45.2811
 21
107.973
  0
LINE
  8
0
 10
45.2811
 20
107.973
 11
45.4635
 21
107.927
  0
LINE
  8
0
 10
45.4635
 20
107.927
 11
45.6387
 21
107.857
  0
LINE
  8
0
 10
45.6387
 20
107.857
 11
45.8037
 21
107.766
  0
LINE
  8
0
 10
45.8037
 20
107.766
 11
45.9561
 21
107.656
  0
LINE
  8
0
 10
45.9561
 20
107.656
 11
46.0934
 21
107.527
  0
LINE
  8
0
 10
46.0934
 20
107.527
 11
46.2135
 21
107.382
  0
LINE
  8
0
 10
46.2135
 20
107.382
 11
46.3145
 21
107.223
  0
LINE
  8
0
 10
46.3145
 20
107.223
 11
46.3947
 21
107.052
  0
LINE
  8
0
 10
46.3947
 20
107.052
 11
46.4529
 21
106.873
  0
LINE
  8
0
 10
46.4529
 20
106.873
 11
46.4882
 21
106.688
  0
LINE
  8
0
 10
46.4882
 20
106.688
 11
46.5
 21
106.5
  0
LINE
  8
0
 10
46.5
 20
106.5
 11
46.4882
 21
106.312
  0
LINE
  8
0
 10
46.4882
 20
106.312
 11
46.4529
 21
106.127
  0
LINE
  8
0
 10
46.4529
 20
106.127
 11
46.3947
 21
105.948
  0
LINE
  8
0
 10
46.3947
 20
105.948
 11
46.3145
 21
105.777
  0
LINE
  8
0
 10
46.3145
 20
105.777
 11
46.2135
 21
105.618
  0
LINE
  8
0
 10
46.2135
 20
105.618
 11
46.0934
 21
105.473
  0
LINE
  8
0
 10
46.0934
 20
105.473
 11
45.9561
 21
105.344
  0
LINE
  8
0
 10
45.9561
 20
105.344
 11
45.8037
 21
105.234
  0
LINE
  8
0
 10
45.8037
 20
105.234
 11
45.6387
 21
105.143
  0
LINE
  8
0
 10
45.6387
 20
105.143
 11
45.4635
 21
105.073
  0
LINE
  8
0
 10
45.4635
 20
105.073
 11
45.2811
 21
105.027
  0
LINE
  8
0
 10
45.2811
 20
105.027
 11
45.0942
 21
105.003
  0
LINE
  8
0
 10
45.0942
 20
105.003
 11
44.9058
 21
105.003
  0
LINE
  8
0
 10
-45.1884
 20
96.0059
 11
-45.5621
 21
96.0531
  0
LINE
  8
0
 10
-45.5621
 20
96.0531
 11
-45.927
 21
96.1468
  0
LINE
  8
0
 10
-45.927
 20
96.1468
 11
-46.2773
 21
96.2855
  0
LINE
  8
0
 10
-46.2773
 20
96.2855
 11
-46.6075
 21
96.467
  0
LINE
  8
0
 10
-46.6075
 20
96.467
 11
-46.9123
 21
96.6885
  0
LINE
  8
0
 10
-46.9123
 20
96.6885
 11
-47.1869
 21
96.9464
  0
LINE
  8
0
 10
-47.1869
 20
96.9464
 11
-47.427
 21
97.2366
  0
LINE
  8
0
 10
-47.427
 20
97.2366
 11
-47.6289
 21
97.5547
  0
LINE
  8
0
 10
-47.6289
 20
97.5547
 11
-47.7893
 21
97.8956
  0
LINE
  8
0
 10
-47.7893
 20
97.8956
 11
-47.9057
 21
98.2539
  0
LINE
  8
0
 10
-47.9057
 20
98.2539
 11
-47.9763
 21
98.624
  0
LINE
  8
0
 10
-47.9763
 20
98.624
 11
-48
 21
99
  0
LINE
  8
0
 10
-48
 20
99
 11
-47.9763
 21
99.376
  0
LINE
  8
0
 10
-47.9763
 20
99.376
 11
-47.9057
 21
99.7461
  0
LINE
  8
0
 10
-47.9057
 20
99.7461
 11
-47.7893
 21
100.104
  0
LINE
  8
0
 10
-47.7893
 20
100.104
 11
-47.6289
 21
100.445
  0
LINE
  8
0
 10
-47.6289
 20
100.445
 11
-47.427
 21
100.763
  0
LINE
  8
0
 10
-47.427
 20
100.763
 11
-47.1869
 21
101.054
  0
LINE
  8
0
 10
-47.1869
 20
101.054
 11
-46.9123
 21
101.312
  0
LINE
  8
0
 10
-46.9123
 20
101.312
 11
-46.6075
 21
101.533
  0
LINE
  8
0
 10
-46.6075
 20
101.533
 11
-46.2773
 21
101.714
  0
LINE
  8
0
 10
-46.2773
 20
101.714
 11
-45.927
 21
101.853
  0
LINE
  8
0
 10
-45.927
 20
101.853
 11
-45.5621
 21
101.947
  0
LINE
  8
0
 10
-45.5621
 20
101.947
 11
-45.1884
 21
101.994
  0
LINE
  8
0
 10
-45.1884
 20
101.994
 11
-44.8116
 21
101.994
  0
LINE
  8
0
 10
-44.8116
 20
101.994
 11
-44.4379
 21
101.947
  0
LINE
  8
0
 10
-44.4379
 20
101.947
 11
-44.0729
 21
101.853
  0
LINE
  8
0
 10
-44.0729
 20
101.853
 11
-43.7227
 21
101.714
  0
LINE
  8
0
 10
-43.7227
 20
101.714
 11
-43.3925
 21
101.533
  0
LINE
  8
0
 10
-43.3925
 20
101.533
 11
-43.0877
 21
101.312
  0
LINE
  8
0
 10
-43.0877
 20
101.312
 11
-42.8131
 21
101.054
  0
LINE
  8
0
 10
-42.8131
 20
101.054
 11
-42.5729
 21
100.763
  0
LINE
  8
0
 10
-42.5729
 20
100.763
 11
-42.3711
 21
100.445
  0
LINE
  8
0
 10
-42.3711
 20
100.445
 11
-42.2107
 21
100.104
  0
LINE
  8
0
 10
-42.2107
 20
100.104
 11
-42.0942
 21
99.7461
  0
LINE
  8
0
 10
-42.0942
 20
99.7461
 11
-42.0237
 21
99.376
  0
LINE
  8
0
 10
-42.0237
 20
99.376
 11
-42
 21
99
  0
LINE
  8
0
 10
-42
 20
99
 11
-42.0237
 21
98.624
  0
LINE
  8
0
 10
-42.0237
 20
98.624
 11
-42.0942
 21
98.2539
  0
LINE
  8
0
 10
-42.0942
 20
98.2539
 11
-42.2107
 21
97.8956
  0
LINE
  8
0
 10
-42.2107
 20
97.8956
 11
-42.3711
 21
97.5547
  0
LINE
  8
0
 10
-42.3711
 20
97.5547
 11
-42.5729
 21
97.2366
  0
LINE
  8
0
 10
-42.5729
 20
97.2366
 11
-42.8131
 21
96.9464
  0
LINE
  8
0
 10
-42.8131
 20
96.9464
 11
-43.0877
 21
96.6885
  0
LINE
  8
0
 10
-43.0877
 20
96.6885
 11
-43.3925
 21
96.467
  0
LINE
  8
0
 10
-43.3925
 20
96.467
 11
-43.7227
 21
96.2855
  0
LINE
  8
0
 10
-43.7227
 20
96.2855
 11
-44.0729
 21
96.1468
  0
LINE
  8
0
 10
-44.0729
 20
96.1468
 11
-44.4379
 21
96.0531
  0
LINE
  8
0
 10
-44.4379
 20
96.0531
 11
-44.8116
 21
96.0059
  0
LINE
  8
0
 10
-44.8116
 20
96.0059
 11
-45.1884
 21
96.0059
  0
LINE
  8
0
 10
44.8116
 20
96.0059
 11
44.4379
 21
96.0531
  0
LINE
  8
0
 10
44.4379
 20
96.0531
 11
44.0729
 21
96.1468
  0
LINE
  8
0
 10
44.0729
 20
96.1468
 11
43.7227
 21
96.2855
  0
LINE
  8
0
 10
43.7227
 20
96.2855
 11
43.3925
 21
96.467
  0
LINE
  8
0
 10
43.3925
 20
96.467
 11
43.0877
 21
96.6885
  0
LINE
  8
0
 10
43.0877
 20
96.6885
 11
42.8131
 21
96.9464
  0
LINE
  8
0
 10
42.8131
 20
96.9464
 11
42.5729
 21
97.2366
  0
LINE
  8
0
 10
42.5729
 20
97.2366
 11
42.3711
 21
97.5547
  0
LINE
  8
0
 10
42.3711
 20
97.5547
 11
42.2107
 21
97.8956
  0
LINE
  8
0
 10
42.2107
 20
97.8956
 11
42.0942
 21
98.2539
  0
LINE
  8
0
 10
42.0942
 20
98.2539
 11
42.0237
 21
98.624
  0
LINE
  8
0
 10
42.0237
 20
98.624
 11
42
 21
99
  0
LINE
  8
0
 10
42
 20
99
 11
42.0237
 21
99.376
  0
LINE
  8
0
 10
42.0237
 20
99.376
 11
42.0942
 21
99.7461
  0
LINE
  8
0
 10
42.0942
 20
99.7461
 11
42.2107
 21
100.104
  0
LINE
  8
0
 10
42.2107
 20
100.104
 11
42.3711
 21
100.445
  0
LINE
  8
0
 10
42.3711
 20
100.445
 11
42.5729
 21
100.763
  0
LINE
  8
0
 10
42.5729
 20
100.763
 11
42.8131
 21
101.054
  0
LINE
  8
0
 10
42.8131
 20
101.054
 11
43.0877
 21
101.312
  0
LINE
  8
0
 10
43.0877
 20
101.312
 11
43.3925
 21
101.533
  0
LINE
  8
0
 10
43.3925
 20
101.533
 11
43.7227
 21
101.714
  0
LINE
  8
0
 10
43.7227
 20
101.714
 11
44.0729
 21
101.853
  0
LINE
  8
0
 10
44.0729
 20
101.853
 11
44.4379
 21
101.947
  0
LINE
  8
0
 10
44.4379
 20
101.947
 11
44.8116
 21
101.994
  0
LINE
  8
0
 10
44.8116
 20
101.994
 11
45.1884
 21
101.994
  0
LINE
  8
0
 10
45.1884
 20
101.994
 11
45.5621
 21
101.947
  0
LINE
  8
0
 10
45.5621
 20
101.947
 11
45.927
 21
101.853
  0
LINE
  8
0
 10
45.927
 20
101.853
 11
46.2773
 21
101.714
  0
LINE
  8
0
 10
46.2773
 20
101.714
 11
46.6075
 21
101.533
  0
LINE
  8
0
 10
46.6075
 20
101.533
 11
46.9123
 21
101.312
  0
LINE
  8
0
 10
46.9123
 20
101.312
 11
47.1869
 21
101.054
  0
LINE
  8
0
 10
47.1869
 20
101.054
 11
47.427
 21
100.763
  0
LINE
  8
0
 10
47.427
 20
100.763
 11
47.6289
 21
100.445
  0
LINE
  8
0
 10
47.6289
 20
100.445
 11
47.7893
 21
100.104
  0
LINE
  8
0
 10
47.7893
 20
100.104
 11
47.9057
 21
99.7461
  0
LINE
  8
0
 10
47.9057
 20
99.7461
 11
47.9763
 21
99.376
  0
LINE
  8
0
 10
47.9763
 20
99.376
 11
48
 21
99
  0
LINE
  8
0
 10
48
 20
99
 11
47.9763
 21
98.624
  0
LINE
  8
0
 10
47.9763
 20
98.624
 11
47.9057
 21
98.2539
  0
LINE
  8
0
 10
47.9057
 20
98.2539
 11
47.7893
 21
97.8956
  0
LINE
  8
0
 10
47.7893
 20
97.8956
 11
47.6289
 21
97.5547
  0
LINE
  8
0
 10
47.6289
 20
97.5547
 11
47.427
 21
97.2366
  0
LINE
  8
0
 10
47.427
 20
97.2366
 11
47.1869
 21
96.9464
  0
LINE
  8
0
 10
47.1869
 20
96.9464
 11
46.9123
 21
96.6885
  0
LINE
  8
0
 10
46.9123
 20
96.6885
 11
46.6075
 21
96.467
  0
LINE
  8
0
 10
46.6075
 20
96.467
 11
46.2773
 21
96.2855
  0
LINE
  8
0
 10
46.2773
 20
96.2855
 11
45.927
 21
96.1468
  0
LINE
  8
0
 10
45.927
 20
96.1468
 11
45.5621
 21
96.0531
  0
LINE
  8
0
 10
45.5621
 20
96.0531
 11
45.1884
 21
96.0059
  0
LINE
  8
0
 10
45.1884
 20
96.0059
 11
44.8116
 21
96.0059
  0
LINE
  8
0
 10
-45.0942
 20
90.003
 11
-45.2811
 21
90.0266
  0
LINE
  8
0
 10
-45.2811
 20
90.0266
 11
-45.4635
 21
90.0734
  0
LINE
  8
0
 10
-45.4635
 20
90.0734
 11
-45.6387
 21
90.1428
  0
LINE
  8
0
 10
-45.6387
 20
90.1428
 11
-45.8037
 21
90.2335
  0
LINE
  8
0
 10
-45.8037
 20
90.2335
 11
-45.9561
 21
90.3442
  0
LINE
  8
0
 10
-45.9561
 20
90.3442
 11
-46.0934
 21
90.4732
  0
LINE
  8
0
 10
-46.0934
 20
90.4732
 11
-46.2135
 21
90.6183
  0
LINE
  8
0
 10
-46.2135
 20
90.6183
 11
-46.3145
 21
90.7774
  0
LINE
  8
0
 10
-46.3145
 20
90.7774
 11
-46.3947
 21
90.9478
  0
LINE
  8
0
 10
-46.3947
 20
90.9478
 11
-46.4529
 21
91.127
  0
LINE
  8
0
 10
-46.4529
 20
91.127
 11
-46.4882
 21
91.312
  0
LINE
  8
0
 10
-46.4882
 20
91.312
 11
-46.5
 21
91.5
  0
LINE
  8
0
 10
-46.5
 20
91.5
 11
-46.4882
 21
91.688
  0
LINE
  8
0
 10
-46.4882
 20
91.688
 11
-46.4529
 21
91.873
  0
LINE
  8
0
 10
-46.4529
 20
91.873
 11
-46.3947
 21
92.0522
  0
LINE
  8
0
 10
-46.3947
 20
92.0522
 11
-46.3145
 21
92.2226
  0
LINE
  8
0
 10
-46.3145
 20
92.2226
 11
-46.2135
 21
92.3817
  0
LINE
  8
0
 10
-46.2135
 20
92.3817
 11
-46.0934
 21
92.5268
  0
LINE
  8
0
 10
-46.0934
 20
92.5268
 11
-45.9561
 21
92.6558
  0
LINE
  8
0
 10
-45.9561
 20
92.6558
 11
-45.8037
 21
92.7665
  0
LINE
  8
0
 10
-45.8037
 20
92.7665
 11
-45.6387
 21
92.8573
  0
LINE
  8
0
 10
-45.6387
 20
92.8573
 11
-45.4635
 21
92.9266
  0
LINE
  8
0
 10
-45.4635
 20
92.9266
 11
-45.2811
 21
92.9734
  0
LINE
  8
0
 10
-45.2811
 20
92.9734
 11
-45.0942
 21
92.997
  0
LINE
  8
0
 10
-45.0942
 20
92.997
 11
-44.9058
 21
92.997
  0
LINE
  8
0
 10
-44.9058
 20
92.997
 11
-44.7189
 21
92.9734
  0
LINE
  8
0
 10
-44.7189
 20
92.9734
 11
-44.5365
 21
92.9266
  0
LINE
  8
0
 10
-44.5365
 20
92.9266
 11
-44.3613
 21
92.8573
  0
LINE
  8
0
 10
-44.3613
 20
92.8573
 11
-44.1963
 21
92.7665
  0
LINE
  8
0
 10
-44.1963
 20
92.7665
 11
-44.0439
 21
92.6558
  0
LINE
  8
0
 10
-44.0439
 20
92.6558
 11
-43.9065
 21
92.5268
  0
LINE
  8
0
 10
-43.9065
 20
92.5268
 11
-43.7865
 21
92.3817
  0
LINE
  8
0
 10
-43.7865
 20
92.3817
 11
-43.6855
 21
92.2226
  0
LINE
  8
0
 10
-43.6855
 20
92.2226
 11
-43.6053
 21
92.0522
  0
LINE
  8
0
 10
-43.6053
 20
92.0522
 11
-43.5471
 21
91.873
  0
LINE
  8
0
 10
-43.5471
 20
91.873
 11
-43.5118
 21
91.688
  0
LINE
  8
0
 10
-43.5118
 20
91.688
 11
-43.5
 21
91.5
  0
LINE
  8
0
 10
-43.5
 20
91.5
 11
-43.5118
 21
91.312
  0
LINE
  8
0
 10
-43.5118
 20
91.312
 11
-43.5471
 21
91.127
  0
LINE
  8
0
 10
-43.5471
 20
91.127
 11
-43.6053
 21
90.9478
  0
LINE
  8
0
 10
-43.6053
 20
90.9478
 11
-43.6855
 21
90.7774
  0
LINE
  8
0
 10
-43.6855
 20
90.7774
 11
-43.7865
 21
90.6183
  0
LINE
  8
0
 10
-43.7865
 20
90.6183
 11
-43.9065
 21
90.4732
  0
LINE
  8
0
 10
-43.9065
 20
90.4732
 11
-44.0439
 21
90.3442
  0
LINE
  8
0
 10
-44.0439
 20
90.3442
 11
-44.1963
 21
90.2335
  0
LINE
  8
0
 10
-44.1963
 20
90.2335
 11
-44.3613
 21
90.1428
  0
LINE
  8
0
 10
-44.3613
 20
90.1428
 11
-44.5365
 21
90.0734
  0
LINE
  8
0
 10
-44.5365
 20
90.0734
 11
-44.7189
 21
90.0266
  0
LINE
  8
0
 10
-44.7189
 20
90.0266
 11
-44.9058
 21
90.003
  0
LINE
  8
0
 10
-44.9058
 20
90.003
 11
-45.0942
 21
90.003
  0
LINE
  8
0
 10
44.9058
 20
90.003
 11
44.7189
 21
90.0266
  0
LINE
  8
0
 10
44.7189
 20
90.0266
 11
44.5365
 21
90.0734
  0
LINE
  8
0
 10
44.5365
 20
90.0734
 11
44.3613
 21
90.1428
  0
LINE
  8
0
 10
44.3613
 20
90.1428
 11
44.1963
 21
90.2335
  0
LINE
  8
0
 10
44.1963
 20
90.2335
 11
44.0439
 21
90.3442
  0
LINE
  8
0
 10
44.0439
 20
90.3442
 11
43.9065
 21
90.4732
  0
LINE
  8
0
 10
43.9065
 20
90.4732
 11
43.7865
 21
90.6183
  0
LINE
  8
0
 10
43.7865
 20
90.6183
 11
43.6855
 21
90.7774
  0
LINE
  8
0
 10
43.6855
 20
90.7774
 11
43.6053
 21
90.9478
  0
LINE
  8
0
 10
43.6053
 20
90.9478
 11
43.5471
 21
91.127
  0
LINE
  8
0
 10
43.5471
 20
91.127
 11
43.5118
 21
91.312
  0
LINE
  8
0
 10
43.5118
 20
91.312
 11
43.5
 21
91.5
  0
LINE
  8
0
 10
43.5
 20
91.5
 11
43.5118
 21
91.688
  0
LINE
  8
0
 10
43.5118
 20
91.688
 11
43.5471
 21
91.873
  0
LINE
  8
0
 10
43.5471
 20
91.873
 11
43.6053
 21
92.0522
  0
LINE
  8
0
 10
43.6053
 20
92.0522
 11
43.6855
 21
92.2226
  0
LINE
  8
0
 10
43.6855
 20
92.2226
 11
43.7865
 21
92.3817
  0
LINE
  8
0
 10
43.7865
 20
92.3817
 11
43.9065
 21
92.5268
  0
LINE
  8
0
 10
43.9065
 20
92.5268
 11
44.0439
 21
92.6558
  0
LINE
  8
0
 10
44.0439
 20
92.6558
 11
44.1963
 21
92.7665
  0
LINE
  8
0
 10
44.1963
 20
92.7665
 11
44.3613
 21
92.8573
  0
LINE
  8
0
 10
44.3613
 20
92.8573
 11
44.5365
 21
92.9266
  0
LINE
  8
0
 10
44.5365
 20
92.9266
 11
44.7189
 21
92.9734
  0
LINE
  8
0
 10
44.7189
 20
92.9734
 11
44.9058
 21
92.997
  0
LINE
  8
0
 10
44.9058
 20
92.997
 11
45.0942
 21
92.997
  0
LINE
  8
0
 10
45.0942
 20
92.997
 11
45.2811
 21
92.9734
  0
LINE
  8
0
 10
45.2811
 20
92.9734
 11
45.4635
 21
92.9266
  0
LINE
  8
0
 10
45.4635
 20
92.9266
 11
45.6387
 21
92.8573
  0
LINE
  8
0
 10
45.6387
 20
92.8573
 11
45.8037
 21
92.7665
  0
LINE
  8
0
 10
45.8037
 20
92.7665
 11
45.9561
 21
92.6558
  0
LINE
  8
0
 10
45.9561
 20
92.6558
 11
46.0934
 21
92.5268
  0
LINE
  8
0
 10
46.0934
 20
92.5268
 11
46.2135
 21
92.3817
  0
LINE
  8
0
 10
46.2135
 20
92.3817
 11
46.3145
 21
92.2226
  0
LINE
  8
0
 10
46.3145
 20
92.2226
 11
46.3947
 21
92.0522
  0
LINE
  8
0
 10
46.3947
 20
92.0522
 11
46.4529
 21
91.873
  0
LINE
  8
0
 10
46.4529
 20
91.873
 11
46.4882
 21
91.688
  0
LINE
  8
0
 10
46.4882
 20
91.688
 11
46.5
 21
91.5
  0
LINE
  8
0
 10
46.5
 20
91.5
 11
46.4882
 21
91.312
  0
LINE
  8
0
 10
46.4882
 20
91.312
 11
46.4529
 21
91.127
  0
LINE
  8
0
 10
46.4529
 20
91.127
 11
46.3947
 21
90.9478
  0
LINE
  8
0
 10
46.3947
 20
90.9478
 11
46.3145
 21
90.7774
  0
LINE
  8
0
 10
46.3145
 20
90.7774
 11
46.2135
 21
90.6183
  0
LINE
  8
0
 10
46.2135
 20
90.6183
 11
46.0934
 21
90.4732
  0
LINE
  8
0
 10
46.0934
 20
90.4732
 11
45.9561
 21
90.3442
  0
LINE
  8
0
 10
45.9561
 20
90.3442
 11
45.8037
 21
90.2335
  0
LINE
  8
0
 10
45.8037
 20
90.2335
 11
45.6387
 21
90.1428
  0
LINE
  8
0
 10
45.6387
 20
90.1428
 11
45.4635
 21
90.0734
  0
LINE
  8
0
 10
45.4635
 20
90.0734
 11
45.2811
 21
90.0266
  0
LINE
  8
0
 10
45.2811
 20
90.0266
 11
45.0942
 21
90.003
  0
LINE
  8
0
 10
45.0942
 20
90.003
 11
44.9058
 21
90.003
  0
LINE
  8
0
 10
-45.1884
 20
81.0059
 11
-45.5621
 21
81.0531
  0
LINE
  8
0
 10
-45.5621
 20
81.0531
 11
-45.927
 21
81.1468
  0
LINE
  8
0
 10
-45.927
 20
81.1468
 11
-46.2773
 21
81.2855
  0
LINE
  8
0
 10
-46.2773
 20
81.2855
 11
-46.6075
 21
81.467
  0
LINE
  8
0
 10
-46.6075
 20
81.467
 11
-46.9123
 21
81.6885
  0
LINE
  8
0
 10
-46.9123
 20
81.6885
 11
-47.1869
 21
81.9464
  0
LINE
  8
0
 10
-47.1869
 20
81.9464
 11
-47.427
 21
82.2366
  0
LINE
  8
0
 10
-47.427
 20
82.2366
 11
-47.6289
 21
82.5547
  0
LINE
  8
0
 10
-47.6289
 20
82.5547
 11
-47.7893
 21
82.8956
  0
LINE
  8
0
 10
-47.7893
 20
82.8956
 11
-47.9057
 21
83.2539
  0
LINE
  8
0
 10
-47.9057
 20
83.2539
 11
-47.9763
 21
83.624
  0
LINE
  8
0
 10
-47.9763
 20
83.624
 11
-48
 21
84
  0
LINE
  8
0
 10
-48
 20
84
 11
-47.9763
 21
84.376
  0
LINE
  8
0
 10
-47.9763
 20
84.376
 11
-47.9057
 21
84.7461
  0
LINE
  8
0
 10
-47.9057
 20
84.7461
 11
-47.7893
 21
85.1044
  0
LINE
  8
0
 10
-47.7893
 20
85.1044
 11
-47.6289
 21
85.4453
  0
LINE
  8
0
 10
-47.6289
 20
85.4453
 11
-47.427
 21
85.7634
  0
LINE
  8
0
 10
-47.427
 20
85.7634
 11
-47.1869
 21
86.0536
  0
LINE
  8
0
 10
-47.1869
 20
86.0536
 11
-46.9123
 21
86.3116
  0
LINE
  8
0
 10
-46.9123
 20
86.3116
 11
-46.6075
 21
86.533
  0
LINE
  8
0
 10
-46.6075
 20
86.533
 11
-46.2773
 21
86.7145
  0
LINE
  8
0
 10
-46.2773
 20
86.7145
 11
-45.927
 21
86.8532
  0
LINE
  8
0
 10
-45.927
 20
86.8532
 11
-45.5621
 21
86.9469
  0
LINE
  8
0
 10
-45.5621
 20
86.9469
 11
-45.1884
 21
86.9941
  0
LINE
  8
0
 10
-45.1884
 20
86.9941
 11
-44.8116
 21
86.9941
  0
LINE
  8
0
 10
-44.8116
 20
86.9941
 11
-44.4379
 21
86.9469
  0
LINE
  8
0
 10
-44.4379
 20
86.9469
 11
-44.0729
 21
86.8532
  0
LINE
  8
0
 10
-44.0729
 20
86.8532
 11
-43.7227
 21
86.7145
  0
LINE
  8
0
 10
-43.7227
 20
86.7145
 11
-43.3925
 21
86.533
  0
LINE
  8
0
 10
-43.3925
 20
86.533
 11
-43.0877
 21
86.3116
  0
LINE
  8
0
 10
-43.0877
 20
86.3116
 11
-42.8131
 21
86.0536
  0
LINE
  8
0
 10
-42.8131
 20
86.0536
 11
-42.5729
 21
85.7634
  0
LINE
  8
0
 10
-42.5729
 20
85.7634
 11
-42.3711
 21
85.4453
  0
LINE
  8
0
 10
-42.3711
 20
85.4453
 11
-42.2107
 21
85.1044
  0
LINE
  8
0
 10
-42.2107
 20
85.1044
 11
-42.0942
 21
84.7461
  0
LINE
  8
0
 10
-42.0942
 20
84.7461
 11
-42.0237
 21
84.376
  0
LINE
  8
0
 10
-42.0237
 20
84.376
 11
-42
 21
84
  0
LINE
  8
0
 10
-42
 20
84
 11
-42.0237
 21
83.624
  0
LINE
  8
0
 10
-42.0237
 20
83.624
 11
-42.0942
 21
83.2539
  0
LINE
  8
0
 10
-42.0942
 20
83.2539
 11
-42.2107
 21
82.8956
  0
LINE
  8
0
 10
-42.2107
 20
82.8956
 11
-42.3711
 21
82.5547
  0
LINE
  8
0
 10
-42.3711
 20
82.5547
 11
-42.5729
 21
82.2366
  0
LINE
  8
0
 10
-42.5729
 20
82.2366
 11
-42.8131
 21
81.9464
  0
LINE
  8
0
 10
-42.8131
 20
81.9464
 11
-43.0877
 21
81.6885
  0
LINE
  8
0
 10
-43.0877
 20
81.6885
 11
-43.3925
 21
81.467
  0
LINE
  8
0
 10
-43.3925
 20
81.467
 11
-43.7227
 21
81.2855
  0
LINE
  8
0
 10
-43.7227
 20
81.2855
 11
-44.0729
 21
81.1468
  0
LINE
  8
0
 10
-44.0729
 20
81.1468
 11
-44.4379
 21
81.0531
  0
LINE
  8
0
 10
-44.4379
 20
81.0531
 11
-44.8116
 21
81.0059
  0
LINE
  8
0
 10
-44.8116
 20
81.0059
 11
-45.1884
 21
81.0059
  0
LINE
  8
0
 10
44.8116
 20
81.0059
 11
44.4379
 21
81.0531
  0
LINE
  8
0
 10
44.4379
 20
81.0531
 11
44.0729
 21
81.1468
  0
LINE
  8
0
 10
44.0729
 20
81.1468
 11
43.7227
 21
81.2855
  0
LINE
  8
0
 10
43.7227
 20
81.2855
 11
43.3925
 21
81.467
  0
LINE
  8
0
 10
43.3925
 20
81.467
 11
43.0877
 21
81.6885
  0
LINE
  8
0
 10
43.0877
 20
81.6885
 11
42.8131
 21
81.9464
  0
LINE
  8
0
 10
42.8131
 20
81.9464
 11
42.5729
 21
82.2366
  0
LINE
  8
0
 10
42.5729
 20
82.2366
 11
42.3711
 21
82.5547
  0
LINE
  8
0
 10
42.3711
 20
82.5547
 11
42.2107
 21
82.8956
  0
LINE
  8
0
 10
42.2107
 20
82.8956
 11
42.0942
 21
83.2539
  0
LINE
  8
0
 10
42.0942
 20
83.2539
 11
42.0237
 21
83.624
  0
LINE
  8
0
 10
42.0237
 20
83.624
 11
42
 21
84
  0
LINE
  8
0
 10
42
 20
84
 11
42.0237
 21
84.376
  0
LINE
  8
0
 10
42.0237
 20
84.376
 11
42.0942
 21
84.7461
  0
LINE
  8
0
 10
42.0942
 20
84.7461
 11
42.2107
 21
85.1044
  0
LINE
  8
0
 10
42.2107
 20
85.1044
 11
42.3711
 21
85.4453
  0
LINE
  8
0
 10
42.3711
 20
85.4453
 11
42.5729
 21
85.7634
  0
LINE
  8
0
 10
42.5729
 20
85.7634
 11
42.8131
 21
86.0536
  0
LINE
  8
0
 10
42.8131
 20
86.0536
 11
43.0877
 21
86.3116
  0
LINE
  8
0
 10
43.0877
 20
86.3116
 11
43.3925
 21
86.533
  0
LINE
  8
0
 10
43.3925
 20
86.533
 11
43.7227
 21
86.7145
  0
LINE
  8
0
 10
43.7227
 20
86.7145
 11
44.0729
 21
86.8532
  0
LINE
  8
0
 10
44.0729
 20
86.8532
 11
44.4379
 21
86.9469
  0
LINE
  8
0
 10
44.4379
 20
86.9469
 11
44.8116
 21
86.9941
  0
LINE
  8
0
 10
44.8116
 20
86.9941
 11
45.1884
 21
86.9941
  0
LINE
  8
0
 10
45.1884
 20
86.9941
 11
45.5621
 21
86.9469
  0
LINE
  8
0
 10
45.5621
 20
86.9469
 11
45.927
 21
86.8532
  0
LINE
  8
0
 10
45.927
 20
86.8532
 11
46.2773
 21
86.7145
  0
LINE
  8
0
 10
46.2773
 20
86.7145
 11
46.6075
 21
86.533
  0
LINE
  8
0
 10
46.6075
 20
86.533
 11
46.9123
 21
86.3116
  0
LINE
  8
0
 10
46.9123
 20
86.3116
 11
47.1869
 21
86.0536
  0
LINE
  8
0
 10
47.1869
 20
86.0536
 11
47.427
 21
85.7634
  0
LINE
  8
0
 10
47.427
 20
85.7634
 11
47.6289
 21
85.4453
  0
LINE
  8
0
 10
47.6289
 20
85.4453
 11
47.7893
 21
85.1044
  0
LINE
  8
0
 10
47.7893
 20
85.1044
 11
47.9057
 21
84.7461
  0
LINE
  8
0
 10
47.9057
 20
84.7461
 11
47.9763
 21
84.376
  0
LINE
  8
0
 10
47.9763
 20
84.376
 11
48
 21
84
  0
LINE
  8
0
 10
48
 20
84
 11
47.9763
 21
83.624
  0
LINE
  8
0
 10
47.9763
 20
83.624
 11
47.9057
 21
83.2539
  0
LINE
  8
0
 10
47.9057
 20
83.2539
 11
47.7893
 21
82.8956
  0
LINE
  8
0
 10
47.7893
 20
82.8956
 11
47.6289
 21
82.5547
  0
LINE
  8
0
 10
47.6289
 20
82.5547
 11
47.427
 21
82.2366
  0
LINE
  8
0
 10
47.427
 20
82.2366
 11
47.1869
 21
81.9464
  0
LINE
  8
0
 10
47.1869
 20
81.9464
 11
46.9123
 21
81.6885
  0
LINE
  8
0
 10
46.9123
 20
81.6885
 11
46.6075
 21
81.467
  0
LINE
  8
0
 10
46.6075
 20
81.467
 11
46.2773
 21
81.2855
  0
LINE
  8
0
 10
46.2773
 20
81.2855
 11
45.927
 21
81.1468
  0
LINE
  8
0
 10
45.927
 20
81.1468
 11
45.5621
 21
81.0531
  0
LINE
  8
0
 10
45.5621
 20
81.0531
 11
45.1884
 21
81.0059
  0
LINE
  8
0
 10
45.1884
 20
81.0059
 11
44.8116
 21
81.0059
  0
LINE
  8
0
 10
44.9058
 20
75.003
 11
44.7189
 21
75.0266
  0
LINE
  8
0
 10
44.7189
 20
75.0266
 11
44.5365
 21
75.0734
  0
LINE
  8
0
 10
44.5365
 20
75.0734
 11
44.3613
 21
75.1428
  0
LINE
  8
0
 10
44.3613
 20
75.1428
 11
44.1963
 21
75.2335
  0
LINE
  8
0
 10
44.1963
 20
75.2335
 11
44.0439
 21
75.3442
  0
LINE
  8
0
 10
44.0439
 20
75.3442
 11
43.9065
 21
75.4732
  0
LINE
  8
0
 10
43.9065
 20
75.4732
 11
43.7865
 21
75.6183
  0
LINE
  8
0
 10
43.7865
 20
75.6183
 11
43.6855
 21
75.7774
  0
LINE
  8
0
 10
43.6855
 20
75.7774
 11
43.6053
 21
75.9478
  0
LINE
  8
0
 10
43.6053
 20
75.9478
 11
43.5471
 21
76.127
  0
LINE
  8
0
 10
43.5471
 20
76.127
 11
43.5118
 21
76.312
  0
LINE
  8
0
 10
43.5118
 20
76.312
 11
43.5
 21
76.5
  0
LINE
  8
0
 10
43.5
 20
76.5
 11
43.5118
 21
76.688
  0
LINE
  8
0
 10
43.5118
 20
76.688
 11
43.5471
 21
76.873
  0
LINE
  8
0
 10
43.5471
 20
76.873
 11
43.6053
 21
77.0522
  0
LINE
  8
0
 10
43.6053
 20
77.0522
 11
43.6855
 21
77.2226
  0
LINE
  8
0
 10
43.6855
 20
77.2226
 11
43.7865
 21
77.3817
  0
LINE
  8
0
 10
43.7865
 20
77.3817
 11
43.9065
 21
77.5268
  0
LINE
  8
0
 10
43.9065
 20
77.5268
 11
44.0439
 21
77.6558
  0
LINE
  8
0
 10
44.0439
 20
77.6558
 11
44.1963
 21
77.7665
  0
LINE
  8
0
 10
44.1963
 20
77.7665
 11
44.3613
 21
77.8572
  0
LINE
  8
0
 10
44.3613
 20
77.8572
 11
44.5365
 21
77.9266
  0
LINE
  8
0
 10
44.5365
 20
77.9266
 11
44.7189
 21
77.9734
  0
LINE
  8
0
 10
44.7189
 20
77.9734
 11
44.9058
 21
77.997
  0
LINE
  8
0
 10
44.9058
 20
77.997
 11
45.0942
 21
77.997
  0
LINE
  8
0
 10
45.0942
 20
77.997
 11
45.2811
 21
77.9734
  0
LINE
  8
0
 10
45.2811
 20
77.9734
 11
45.4635
 21
77.9266
  0
LINE
  8
0
 10
45.4635
 20
77.9266
 11
45.6387
 21
77.8572
  0
LINE
  8
0
 10
45.6387
 20
77.8572
 11
45.8037
 21
77.7665
  0
LINE
  8
0
 10
45.8037
 20
77.7665
 11
45.9561
 21
77.6558
  0
LINE
  8
0
 10
45.9561
 20
77.6558
 11
46.0934
 21
77.5268
  0
LINE
  8
0
 10
46.0934
 20
77.5268
 11
46.2135
 21
77.3817
  0
LINE
  8
0
 10
46.2135
 20
77.3817
 11
46.3145
 21
77.2226
  0
LINE
  8
0
 10
46.3145
 20
77.2226
 11
46.3947
 21
77.0522
  0
LINE
  8
0
 10
46.3947
 20
77.0522
 11
46.4529
 21
76.873
  0
LINE
  8
0
 10
46.4529
 20
76.873
 11
46.4882
 21
76.688
  0
LINE
  8
0
 10
46.4882
 20
76.688
 11
46.5
 21
76.5
  0
LINE
  8
0
 10
46.5
 20
76.5
 11
46.4882
 21
76.312
  0
LINE
  8
0
 10
46.4882
 20
76.312
 11
46.4529
 21
76.127
  0
LINE
  8
0
 10
46.4529
 20
76.127
 11
46.3947
 21
75.9478
  0
LINE
  8
0
 10
46.3947
 20
75.9478
 11
46.3145
 21
75.7774
  0
LINE
  8
0
 10
46.3145
 20
75.7774
 11
46.2135
 21
75.6183
  0
LINE
  8
0
 10
46.2135
 20
75.6183
 11
46.0934
 21
75.4732
  0
LINE
  8
0
 10
46.0934
 20
75.4732
 11
45.9561
 21
75.3442
  0
LINE
  8
0
 10
45.9561
 20
75.3442
 11
45.8037
 21
75.2335
  0
LINE
  8
0
 10
45.8037
 20
75.2335
 11
45.6387
 21
75.1428
  0
LINE
  8
0
 10
45.6387
 20
75.1428
 11
45.4635
 21
75.0734
  0
LINE
  8
0
 10
45.4635
 20
75.0734
 11
45.2811
 21
75.0266
  0
LINE
  8
0
 10
45.2811
 20
75.0266
 11
45.0942
 21
75.003
  0
LINE
  8
0
 10
45.0942
 20
75.003
 11
44.9058
 21
75.003
  0
LINE
  8
0
 10
-45.0942
 20
75.003
 11
-45.2811
 21
75.0266
  0
LINE
  8
0
 10
-45.2811
 20
75.0266
 11
-45.4635
 21
75.0734
  0
LINE
  8
0
 10
-45.4635
 20
75.0734
 11
-45.6387
 21
75.1428
  0
LINE
  8
0
 10
-45.6387
 20
75.1428
 11
-45.8037
 21
75.2335
  0
LINE
  8
0
 10
-45.8037
 20
75.2335
 11
-45.9561
 21
75.3442
  0
LINE
  8
0
 10
-45.9561
 20
75.3442
 11
-46.0934
 21
75.4732
  0
LINE
  8
0
 10
-46.0934
 20
75.4732
 11
-46.2135
 21
75.6183
  0
LINE
  8
0
 10
-46.2135
 20
75.6183
 11
-46.3145
 21
75.7774
  0
LINE
  8
0
 10
-46.3145
 20
75.7774
 11
-46.3947
 21
75.9478
  0
LINE
  8
0
 10
-46.3947
 20
75.9478
 11
-46.4529
 21
76.127
  0
LINE
  8
0
 10
-46.4529
 20
76.127
 11
-46.4882
 21
76.312
  0
LINE
  8
0
 10
-46.4882
 20
76.312
 11
-46.5
 21
76.5
  0
LINE
  8
0
 10
-46.5
 20
76.5
 11
-46.4882
 21
76.688
  0
LINE
  8
0
 10
-46.4882
 20
76.688
 11
-46.4529
 21
76.873
  0
LINE
  8
0
 10
-46.4529
 20
76.873
 11
-46.3947
 21
77.0522
  0
LINE
  8
0
 10
-46.3947
 20
77.0522
 11
-46.3145
 21
77.2226
  0
LINE
  8
0
 10
-46.3145
 20
77.2226
 11
-46.2135
 21
77.3817
  0
LINE
  8
0
 10
-46.2135
 20
77.3817
 11
-46.0934
 21
77.5268
  0
LINE
  8
0
 10
-46.0934
 20
77.5268
 11
-45.9561
 21
77.6558
  0
LINE
  8
0
 10
-45.9561
 20
77.6558
 11
-45.8037
 21
77.7665
  0
LINE
  8
0
 10
-45.8037
 20
77.7665
 11
-45.6387
 21
77.8572
  0
LINE
  8
0
 10
-45.6387
 20
77.8572
 11
-45.4635
 21
77.9266
  0
LINE
  8
0
 10
-45.4635
 20
77.9266
 11
-45.2811
 21
77.9734
  0
LINE
  8
0
 10
-45.2811
 20
77.9734
 11
-45.0942
 21
77.997
  0
LINE
  8
0
 10
-45.0942
 20
77.997
 11
-44.9058
 21
77.997
  0
LINE
  8
0
 10
-44.9058
 20
77.997
 11
-44.7189
 21
77.9734
  0
LINE
  8
0
 10
-44.7189
 20
77.9734
 11
-44.5365
 21
77.9266
  0
LINE
  8
0
 10
-44.5365
 20
77.9266
 11
-44.3613
 21
77.8572
  0
LINE
  8
0
 10
-44.3613
 20
77.8572
 11
-44.1963
 21
77.7665
  0
LINE
  8
0
 10
-44.1963
 20
77.7665
 11
-44.0439
 21
77.6558
  0
LINE
  8
0
 10
-44.0439
 20
77.6558
 11
-43.9065
 21
77.5268
  0
LINE
  8
0
 10
-43.9065
 20
77.5268
 11
-43.7865
 21
77.3817
  0
LINE
  8
0
 10
-43.7865
 20
77.3817
 11
-43.6855
 21
77.2226
  0
LINE
  8
0
 10
-43.6855
 20
77.2226
 11
-43.6053
 21
77.0522
  0
LINE
  8
0
 10
-43.6053
 20
77.0522
 11
-43.5471
 21
76.873
  0
LINE
  8
0
 10
-43.5471
 20
76.873
 11
-43.5118
 21
76.688
  0
LINE
  8
0
 10
-43.5118
 20
76.688
 11
-43.5
 21
76.5
  0
LINE
  8
0
 10
-43.5
 20
76.5
 11
-43.5118
 21
76.312
  0
LINE
  8
0
 10
-43.5118
 20
76.312
 11
-43.5471
 21
76.127
  0
LINE
  8
0
 10
-43.5471
 20
76.127
 11
-43.6053
 21
75.9478
  0
LINE
  8
0
 10
-43.6053
 20
75.9478
 11
-43.6855
 21
75.7774
  0
LINE
  8
0
 10
-43.6855
 20
75.7774
 11
-43.7865
 21
75.6183
  0
LINE
  8
0
 10
-43.7865
 20
75.6183
 11
-43.9065
 21
75.4732
  0
LINE
  8
0
 10
-43.9065
 20
75.4732
 11
-44.0439
 21
75.3442
  0
LINE
  8
0
 10
-44.0439
 20
75.3442
 11
-44.1963
 21
75.2335
  0
LINE
  8
0
 10
-44.1963
 20
75.2335
 11
-44.3613
 21
75.1428
  0
LINE
  8
0
 10
-44.3613
 20
75.1428
 11
-44.5365
 21
75.0734
  0
LINE
  8
0
 10
-44.5365
 20
75.0734
 11
-44.7189
 21
75.0266
  0
LINE
  8
0
 10
-44.7189
 20
75.0266
 11
-44.9058
 21
75.003
  0
LINE
  8
0
 10
-44.9058
 20
75.003
 11
-45.0942
 21
75.003
  0
LINE
  8
0
 10
14.8116
 20
66.0059
 11
14.4379
 21
66.0531
  0
LINE
  8
0
 10
14.4379
 20
66.0531
 11
14.0729
 21
66.1468
  0
LINE
  8
0
 10
14.0729
 20
66.1468
 11
13.7227
 21
66.2855
  0
LINE
  8
0
 10
13.7227
 20
66.2855
 11
13.3925
 21
66.467
  0
LINE
  8
0
 10
13.3925
 20
66.467
 11
13.0877
 21
66.6885
  0
LINE
  8
0
 10
13.0877
 20
66.6885
 11
12.8131
 21
66.9464
  0
LINE
  8
0
 10
12.8131
 20
66.9464
 11
12.5729
 21
67.2366
  0
LINE
  8
0
 10
12.5729
 20
67.2366
 11
12.3711
 21
67.5547
  0
LINE
  8
0
 10
12.3711
 20
67.5547
 11
12.2107
 21
67.8956
  0
LINE
  8
0
 10
12.2107
 20
67.8956
 11
12.0942
 21
68.2539
  0
LINE
  8
0
 10
12.0942
 20
68.2539
 11
12.0237
 21
68.624
  0
LINE
  8
0
 10
12.0237
 20
68.624
 11
12
 21
69
  0
LINE
  8
0
 10
12
 20
69
 11
12.0237
 21
69.376
  0
LINE
  8
0
 10
12.0237
 20
69.376
 11
12.0942
 21
69.7461
  0
LINE
  8
0
 10
12.0942
 20
69.7461
 11
12.2107
 21
70.1044
  0
LINE
  8
0
 10
12.2107
 20
70.1044
 11
12.3711
 21
70.4453
  0
LINE
  8
0
 10
12.3711
 20
70.4453
 11
12.5729
 21
70.7634
  0
LINE
  8
0
 10
12.5729
 20
70.7634
 11
12.8131
 21
71.0536
  0
LINE
  8
0
 10
12.8131
 20
71.0536
 11
13.0877
 21
71.3115
  0
LINE
  8
0
 10
13.0877
 20
71.3115
 11
13.3925
 21
71.533
  0
LINE
  8
0
 10
13.3925
 20
71.533
 11
13.7227
 21
71.7145
  0
LINE
  8
0
 10
13.7227
 20
71.7145
 11
14.0729
 21
71.8532
  0
LINE
  8
0
 10
14.0729
 20
71.8532
 11
14.4379
 21
71.9469
  0
LINE
  8
0
 10
14.4379
 20
71.9469
 11
14.8116
 21
71.9941
  0
LINE
  8
0
 10
14.8116
 20
71.9941
 11
15.1884
 21
71.9941
  0
LINE
  8
0
 10
15.1884
 20
71.9941
 11
15.5621
 21
71.9469
  0
LINE
  8
0
 10
15.5621
 20
71.9469
 11
15.927
 21
71.8532
  0
LINE
  8
0
 10
15.927
 20
71.8532
 11
16.2773
 21
71.7145
  0
LINE
  8
0
 10
16.2773
 20
71.7145
 11
16.6075
 21
71.533
  0
LINE
  8
0
 10
16.6075
 20
71.533
 11
16.9123
 21
71.3115
  0
LINE
  8
0
 10
16.9123
 20
71.3115
 11
17.1869
 21
71.0536
  0
LINE
  8
0
 10
17.1869
 20
71.0536
 11
17.427
 21
70.7634
  0
LINE
  8
0
 10
17.427
 20
70.7634
 11
17.6289
 21
70.4453
  0
LINE
  8
0
 10
17.6289
 20
70.4453
 11
17.7893
 21
70.1044
  0
LINE
  8
0
 10
17.7893
 20
70.1044
 11
17.9057
 21
69.7461
  0
LINE
  8
0
 10
17.9057
 20
69.7461
 11
17.9763
 21
69.376
  0
LINE
  8
0
 10
17.9763
 20
69.376
 11
18
 21
69
  0
LINE
  8
0
 10
18
 20
69
 11
17.9763
 21
68.624
  0
LINE
  8
0
 10
17.9763
 20
68.624
 11
17.9057
 21
68.2539
  0
LINE
  8
0
 10
17.9057
 20
68.2539
 11
17.7893
 21
67.8956
  0
LINE
  8
0
 10
17.7893
 20
67.8956
 11
17.6289
 21
67.5547
  0
LINE
  8
0
 10
17.6289
 20
67.5547
 11
17.427
 21
67.2366
  0
LINE
  8
0
 10
17.427
 20
67.2366
 11
17.1869
 21
66.9464
  0
LINE
  8
0
 10
17.1869
 20
66.9464
 11
16.9123
 21
66.6885
  0
LINE
  8
0
 10
16.9123
 20
66.6885
 11
16.6075
 21
66.467
  0
LINE
  8
0
 10
16.6075
 20
66.467
 11
16.2773
 21
66.2855
  0
LINE
  8
0
 10
16.2773
 20
66.2855
 11
15.927
 21
66.1468
  0
LINE
  8
0
 10
15.927
 20
66.1468
 11
15.5621
 21
66.0531
  0
LINE
  8
0
 10
15.5621
 20
66.0531
 11
15.1884
 21
66.0059
  0
LINE
  8
0
 10
15.1884
 20
66.0059
 11
14.8116
 21
66.0059
  0
LINE
  8
0
 10
29.8116
 20
66.0059
 11
29.4379
 21
66.0531
  0
LINE
  8
0
 10
29.4379
 20
66.0531
 11
29.0729
 21
66.1468
  0
LINE
  8
0
 10
29.0729
 20
66.1468
 11
28.7227
 21
66.2855
  0
LINE
  8
0
 10
28.7227
 20
66.2855
 11
28.3925
 21
66.467
  0
LINE
  8
0
 10
28.3925
 20
66.467
 11
28.0877
 21
66.6885
  0
LINE
  8
0
 10
28.0877
 20
66.6885
 11
27.8131
 21
66.9464
  0
LINE
  8
0
 10
27.8131
 20
66.9464
 11
27.5729
 21
67.2366
  0
LINE
  8
0
 10
27.5729
 20
67.2366
 11
27.3711
 21
67.5547
  0
LINE
  8
0
 10
27.3711
 20
67.5547
 11
27.2107
 21
67.8956
  0
LINE
  8
0
 10
27.2107
 20
67.8956
 11
27.0942
 21
68.2539
  0
LINE
  8
0
 10
27.0942
 20
68.2539
 11
27.0237
 21
68.624
  0
LINE
  8
0
 10
27.0237
 20
68.624
 11
27
 21
69
  0
LINE
  8
0
 10
27
 20
69
 11
27.0237
 21
69.376
  0
LINE
  8
0
 10
27.0237
 20
69.376
 11
27.0942
 21
69.7461
  0
LINE
  8
0
 10
27.0942
 20
69.7461
 11
27.2107
 21
70.1044
  0
LINE
  8
0
 10
27.2107
 20
70.1044
 11
27.3711
 21
70.4453
  0
LINE
  8
0
 10
27.3711
 20
70.4453
 11
27.5729
 21
70.7634
  0
LINE
  8
0
 10
27.5729
 20
70.7634
 11
27.8131
 21
71.0536
  0
LINE
  8
0
 10
27.8131
 20
71.0536
 11
28.0877
 21
71.3115
  0
LINE
  8
0
 10
28.0877
 20
71.3115
 11
28.3925
 21
71.533
  0
LINE
  8
0
 10
28.3925
 20
71.533
 11
28.7227
 21
71.7145
  0
LINE
  8
0
 10
28.7227
 20
71.7145
 11
29.0729
 21
71.8532
  0
LINE
  8
0
 10
29.0729
 20
71.8532
 11
29.4379
 21
71.9469
  0
LINE
  8
0
 10
29.4379
 20
71.9469
 11
29.8116
 21
71.9941
  0
LINE
  8
0
 10
29.8116
 20
71.9941
 11
30.1884
 21
71.9941
  0
LINE
  8
0
 10
30.1884
 20
71.9941
 11
30.5621
 21
71.9469
  0
LINE
  8
0
 10
30.5621
 20
71.9469
 11
30.927
 21
71.8532
  0
LINE
  8
0
 10
30.927
 20
71.8532
 11
31.2773
 21
71.7145
  0
LINE
  8
0
 10
31.2773
 20
71.7145
 11
31.6075
 21
71.533
  0
LINE
  8
0
 10
31.6075
 20
71.533
 11
31.9123
 21
71.3115
  0
LINE
  8
0
 10
31.9123
 20
71.3115
 11
32.1869
 21
71.0536
  0
LINE
  8
0
 10
32.1869
 20
71.0536
 11
32.427
 21
70.7634
  0
LINE
  8
0
 10
32.427
 20
70.7634
 11
32.6289
 21
70.4453
  0
LINE
  8
0
 10
32.6289
 20
70.4453
 11
32.7893
 21
70.1044
  0
LINE
  8
0
 10
32.7893
 20
70.1044
 11
32.9057
 21
69.7461
  0
LINE
  8
0
 10
32.9057
 20
69.7461
 11
32.9763
 21
69.376
  0
LINE
  8
0
 10
32.9763
 20
69.376
 11
33
 21
69
  0
LINE
  8
0
 10
33
 20
69
 11
32.9763
 21
68.624
  0
LINE
  8
0
 10
32.9763
 20
68.624
 11
32.9057
 21
68.2539
  0
LINE
  8
0
 10
32.9057
 20
68.2539
 11
32.7893
 21
67.8956
  0
LINE
  8
0
 10
32.7893
 20
67.8956
 11
32.6289
 21
67.5547
  0
LINE
  8
0
 10
32.6289
 20
67.5547
 11
32.427
 21
67.2366
  0
LINE
  8
0
 10
32.427
 20
67.2366
 11
32.1869
 21
66.9464
  0
LINE
  8
0
 10
32.1869
 20
66.9464
 11
31.9123
 21
66.6885
  0
LINE
  8
0
 10
31.9123
 20
66.6885
 11
31.6075
 21
66.467
  0
LINE
  8
0
 10
31.6075
 20
66.467
 11
31.2773
 21
66.2855
  0
LINE
  8
0
 10
31.2773
 20
66.2855
 11
30.927
 21
66.1468
  0
LINE
  8
0
 10
30.927
 20
66.1468
 11
30.5621
 21
66.0531
  0
LINE
  8
0
 10
30.5621
 20
66.0531
 11
30.1884
 21
66.0059
  0
LINE
  8
0
 10
30.1884
 20
66.0059
 11
29.8116
 21
66.0059
  0
LINE
  8
0
 10
-0.18837
 20
66.0059
 11
-0.562134
 21
66.0531
  0
LINE
  8
0
 10
-0.562134
 20
66.0531
 11
-0.927048
 21
66.1468
  0
LINE
  8
0
 10
-0.927048
 20
66.1468
 11
-1.27733
 21
66.2855
  0
LINE
  8
0
 10
-1.27733
 20
66.2855
 11
-1.60747
 21
66.467
  0
LINE
  8
0
 10
-1.60747
 20
66.467
 11
-1.91226
 21
66.6885
  0
LINE
  8
0
 10
-1.91226
 20
66.6885
 11
-2.1869
 21
66.9464
  0
LINE
  8
0
 10
-2.1869
 20
66.9464
 11
-2.42705
 21
67.2366
  0
LINE
  8
0
 10
-2.42705
 20
67.2366
 11
-2.62891
 21
67.5547
  0
LINE
  8
0
 10
-2.62891
 20
67.5547
 11
-2.78932
 21
67.8956
  0
LINE
  8
0
 10
-2.78932
 20
67.8956
 11
-2.90575
 21
68.2539
  0
LINE
  8
0
 10
-2.90575
 20
68.2539
 11
-2.97633
 21
68.624
  0
LINE
  8
0
 10
-2.97633
 20
68.624
 11
-3
 21
69
  0
LINE
  8
0
 10
-3
 20
69
 11
-2.97633
 21
69.376
  0
LINE
  8
0
 10
-2.97633
 20
69.376
 11
-2.90575
 21
69.7461
  0
LINE
  8
0
 10
-2.90575
 20
69.7461
 11
-2.78932
 21
70.1044
  0
LINE
  8
0
 10
-2.78932
 20
70.1044
 11
-2.62891
 21
70.4453
  0
LINE
  8
0
 10
-2.62891
 20
70.4453
 11
-2.42705
 21
70.7634
  0
LINE
  8
0
 10
-2.42705
 20
70.7634
 11
-2.1869
 21
71.0536
  0
LINE
  8
0
 10
-2.1869
 20
71.0536
 11
-1.91226
 21
71.3115
  0
LINE
  8
0
 10
-1.91226
 20
71.3115
 11
-1.60747
 21
71.533
  0
LINE
  8
0
 10
-1.60747
 20
71.533
 11
-1.27733
 21
71.7145
  0
LINE
  8
0
 10
-1.27733
 20
71.7145
 11
-0.927048
 21
71.8532
  0
LINE
  8
0
 10
-0.927048
 20
71.8532
 11
-0.562134
 21
71.9469
  0
LINE
  8
0
 10
-0.562134
 20
71.9469
 11
-0.18837
 21
71.9941
  0
LINE
  8
0
 10
-0.18837
 20
71.9941
 11
0.18837
 21
71.9941
  0
LINE
  8
0
 10
0.18837
 20
71.9941
 11
0.562134
 21
71.9469
  0
LINE
  8
0
 10
0.562134
 20
71.9469
 11
0.927048
 21
71.8532
  0
LINE
  8
0
 10
0.927048
 20
71.8532
 11
1.27733
 21
71.7145
  0
LINE
  8
0
 10
1.27733
 20
71.7145
 11
1.60747
 21
71.533
  0
LINE
  8
0
 10
1.60747
 20
71.533
 11
1.91226
 21
71.3115
  0
LINE
  8
0
 10
1.91226
 20
71.3115
 11
2.1869
 21
71.0536
  0
LINE
  8
0
 10
2.1869
 20
71.0536
 11
2.42705
 21
70.7634
  0
LINE
  8
0
 10
2.42705
 20
70.7634
 11
2.62891
 21
70.4453
  0
LINE
  8
0
 10
2.62891
 20
70.4453
 11
2.78932
 21
70.1044
  0
LINE
  8
0
 10
2.78932
 20
70.1044
 11
2.90575
 21
69.7461
  0
LINE
  8
0
 10
2.90575
 20
69.7461
 11
2.97633
 21
69.376
  0
LINE
  8
0
 10
2.97633
 20
69.376
 11
3
 21
69
  0
LINE
  8
0
 10
3
 20
69
 11
2.97633
 21
68.624
  0
LINE
  8
0
 10
2.97633
 20
68.624
 11
2.90575
 21
68.2539
  0
LINE
  8
0
 10
2.90575
 20
68.2539
 11
2.78932
 21
67.8956
  0
LINE
  8
0
 10
2.78932
 20
67.8956
 11
2.62891
 21
67.5547
  0
LINE
  8
0
 10
2.62891
 20
67.5547
 11
2.42705
 21
67.2366
  0
LINE
  8
0
 10
2.42705
 20
67.2366
 11
2.1869
 21
66.9464
  0
LINE
  8
0
 10
2.1869
 20
66.9464
 11
1.91226
 21
66.6885
  0
LINE
  8
0
 10
1.91226
 20
66.6885
 11
1.60747
 21
66.467
  0
LINE
  8
0
 10
1.60747
 20
66.467
 11
1.27733
 21
66.2855
  0
LINE
  8
0
 10
1.27733
 20
66.2855
 11
0.927048
 21
66.1468
  0
LINE
  8
0
 10
0.927048
 20
66.1468
 11
0.562134
 21
66.0531
  0
LINE
  8
0
 10
0.562134
 20
66.0531
 11
0.18837
 21
66.0059
  0
LINE
  8
0
 10
0.18837
 20
66.0059
 11
-0.18837
 21
66.0059
  0
LINE
  8
0
 10
-45.1884
 20
66.0059
 11
-45.5621
 21
66.0531
  0
LINE
  8
0
 10
-45.5621
 20
66.0531
 11
-45.927
 21
66.1468
  0
LINE
  8
0
 10
-45.927
 20
66.1468
 11
-46.2773
 21
66.2855
  0
LINE
  8
0
 10
-46.2773
 20
66.2855
 11
-46.6075
 21
66.467
  0
LINE
  8
0
 10
-46.6075
 20
66.467
 11
-46.9123
 21
66.6885
  0
LINE
  8
0
 10
-46.9123
 20
66.6885
 11
-47.1869
 21
66.9464
  0
LINE
  8
0
 10
-47.1869
 20
66.9464
 11
-47.427
 21
67.2366
  0
LINE
  8
0
 10
-47.427
 20
67.2366
 11
-47.6289
 21
67.5547
  0
LINE
  8
0
 10
-47.6289
 20
67.5547
 11
-47.7893
 21
67.8956
  0
LINE
  8
0
 10
-47.7893
 20
67.8956
 11
-47.9057
 21
68.2539
  0
LINE
  8
0
 10
-47.9057
 20
68.2539
 11
-47.9763
 21
68.624
  0
LINE
  8
0
 10
-47.9763
 20
68.624
 11
-48
 21
69
  0
LINE
  8
0
 10
-48
 20
69
 11
-47.9763
 21
69.376
  0
LINE
  8
0
 10
-47.9763
 20
69.376
 11
-47.9057
 21
69.7461
  0
LINE
  8
0
 10
-47.9057
 20
69.7461
 11
-47.7893
 21
70.1044
  0
LINE
  8
0
 10
-47.7893
 20
70.1044
 11
-47.6289
 21
70.4453
  0
LINE
  8
0
 10
-47.6289
 20
70.4453
 11
-47.427
 21
70.7634
  0
LINE
  8
0
 10
-47.427
 20
70.7634
 11
-47.1869
 21
71.0536
  0
LINE
  8
0
 10
-47.1869
 20
71.0536
 11
-46.9123
 21
71.3115
  0
LINE
  8
0
 10
-46.9123
 20
71.3115
 11
-46.6075
 21
71.533
  0
LINE
  8
0
 10
-46.6075
 20
71.533
 11
-46.2773
 21
71.7145
  0
LINE
  8
0
 10
-46.2773
 20
71.7145
 11
-45.927
 21
71.8532
  0
LINE
  8
0
 10
-45.927
 20
71.8532
 11
-45.5621
 21
71.9469
  0
LINE
  8
0
 10
-45.5621
 20
71.9469
 11
-45.1884
 21
71.9941
  0
LINE
  8
0
 10
-45.1884
 20
71.9941
 11
-44.8116
 21
71.9941
  0
LINE
  8
0
 10
-44.8116
 20
71.9941
 11
-44.4379
 21
71.9469
  0
LINE
  8
0
 10
-44.4379
 20
71.9469
 11
-44.0729
 21
71.8532
  0
LINE
  8
0
 10
-44.0729
 20
71.8532
 11
-43.7227
 21
71.7145
  0
LINE
  8
0
 10
-43.7227
 20
71.7145
 11
-43.3925
 21
71.533
  0
LINE
  8
0
 10
-43.3925
 20
71.533
 11
-43.0877
 21
71.3115
  0
LINE
  8
0
 10
-43.0877
 20
71.3115
 11
-42.8131
 21
71.0536
  0
LINE
  8
0
 10
-42.8131
 20
71.0536
 11
-42.5729
 21
70.7634
  0
LINE
  8
0
 10
-42.5729
 20
70.7634
 11
-42.3711
 21
70.4453
  0
LINE
  8
0
 10
-42.3711
 20
70.4453
 11
-42.2107
 21
70.1044
  0
LINE
  8
0
 10
-42.2107
 20
70.1044
 11
-42.0942
 21
69.7461
  0
LINE
  8
0
 10
-42.0942
 20
69.7461
 11
-42.0237
 21
69.376
  0
LINE
  8
0
 10
-42.0237
 20
69.376
 11
-42
 21
69
  0
LINE
  8
0
 10
-42
 20
69
 11
-42.0237
 21
68.624
  0
LINE
  8
0
 10
-42.0237
 20
68.624
 11
-42.0942
 21
68.2539
  0
LINE
  8
0
 10
-42.0942
 20
68.2539
 11
-42.2107
 21
67.8956
  0
LINE
  8
0
 10
-42.2107
 20
67.8956
 11
-42.3711
 21
67.5547
  0
LINE
  8
0
 10
-42.3711
 20
67.5547
 11
-42.5729
 21
67.2366
  0
LINE
  8
0
 10
-42.5729
 20
67.2366
 11
-42.8131
 21
66.9464
  0
LINE
  8
0
 10
-42.8131
 20
66.9464
 11
-43.0877
 21
66.6885
  0
LINE
  8
0
 10
-43.0877
 20
66.6885
 11
-43.3925
 21
66.467
  0
LINE
  8
0
 10
-43.3925
 20
66.467
 11
-43.7227
 21
66.2855
  0
LINE
  8
0
 10
-43.7227
 20
66.2855
 11
-44.0729
 21
66.1468
  0
LINE
  8
0
 10
-44.0729
 20
66.1468
 11
-44.4379
 21
66.0531
  0
LINE
  8
0
 10
-44.4379
 20
66.0531
 11
-44.8116
 21
66.0059
  0
LINE
  8
0
 10
-44.8116
 20
66.0059
 11
-45.1884
 21
66.0059
  0
LINE
  8
0
 10
-30.1884
 20
66.0059
 11
-30.5621
 21
66.0531
  0
LINE
  8
0
 10
-30.5621
 20
66.0531
 11
-30.927
 21
66.1468
  0
LINE
  8
0
 10
-30.927
 20
66.1468
 11
-31.2773
 21
66.2855
  0
LINE
  8
0
 10
-31.2773
 20
66.2855
 11
-31.6075
 21
66.467
  0
LINE
  8
0
 10
-31.6075
 20
66.467
 11
-31.9123
 21
66.6885
  0
LINE
  8
0
 10
-31.9123
 20
66.6885
 11
-32.1869
 21
66.9464
  0
LINE
  8
0
 10
-32.1869
 20
66.9464
 11
-32.427
 21
67.2366
  0
LINE
  8
0
 10
-32.427
 20
67.2366
 11
-32.6289
 21
67.5547
  0
LINE
  8
0
 10
-32.6289
 20
67.5547
 11
-32.7893
 21
67.8956
  0
LINE
  8
0
 10
-32.7893
 20
67.8956
 11
-32.9057
 21
68.2539
  0
LINE
  8
0
 10
-32.9057
 20
68.2539
 11
-32.9763
 21
68.624
  0
LINE
  8
0
 10
-32.9763
 20
68.624
 11
-33
 21
69
  0
LINE
  8
0
 10
-33
 20
69
 11
-32.9763
 21
69.376
  0
LINE
  8
0
 10
-32.9763
 20
69.376
 11
-32.9057
 21
69.7461
  0
LINE
  8
0
 10
-32.9057
 20
69.7461
 11
-32.7893
 21
70.1044
  0
LINE
  8
0
 10
-32.7893
 20
70.1044
 11
-32.6289
 21
70.4453
  0
LINE
  8
0
 10
-32.6289
 20
70.4453
 11
-32.427
 21
70.7634
  0
LINE
  8
0
 10
-32.427
 20
70.7634
 11
-32.1869
 21
71.0536
  0
LINE
  8
0
 10
-32.1869
 20
71.0536
 11
-31.9123
 21
71.3115
  0
LINE
  8
0
 10
-31.9123
 20
71.3115
 11
-31.6075
 21
71.533
  0
LINE
  8
0
 10
-31.6075
 20
71.533
 11
-31.2773
 21
71.7145
  0
LINE
  8
0
 10
-31.2773
 20
71.7145
 11
-30.927
 21
71.8532
  0
LINE
  8
0
 10
-30.927
 20
71.8532
 11
-30.5621
 21
71.9469
  0
LINE
  8
0
 10
-30.5621
 20
71.9469
 11
-30.1884
 21
71.9941
  0
LINE
  8
0
 10
-30.1884
 20
71.9941
 11
-29.8116
 21
71.9941
  0
LINE
  8
0
 10
-29.8116
 20
71.9941
 11
-29.4379
 21
71.9469
  0
LINE
  8
0
 10
-29.4379
 20
71.9469
 11
-29.0729
 21
71.8532
  0
LINE
  8
0
 10
-29.0729
 20
71.8532
 11
-28.7227
 21
71.7145
  0
LINE
  8
0
 10
-28.7227
 20
71.7145
 11
-28.3925
 21
71.533
  0
LINE
  8
0
 10
-28.3925
 20
71.533
 11
-28.0877
 21
71.3115
  0
LINE
  8
0
 10
-28.0877
 20
71.3115
 11
-27.8131
 21
71.0536
  0
LINE
  8
0
 10
-27.8131
 20
71.0536
 11
-27.5729
 21
70.7634
  0
LINE
  8
0
 10
-27.5729
 20
70.7634
 11
-27.3711
 21
70.4453
  0
LINE
  8
0
 10
-27.3711
 20
70.4453
 11
-27.2107
 21
70.1044
  0
LINE
  8
0
 10
-27.2107
 20
70.1044
 11
-27.0942
 21
69.7461
  0
LINE
  8
0
 10
-27.0942
 20
69.7461
 11
-27.0237
 21
69.376
  0
LINE
  8
0
 10
-27.0237
 20
69.376
 11
-27
 21
69
  0
LINE
  8
0
 10
-27
 20
69
 11
-27.0237
 21
68.624
  0
LINE
  8
0
 10
-27.0237
 20
68.624
 11
-27.0942
 21
68.2539
  0
LINE
  8
0
 10
-27.0942
 20
68.2539
 11
-27.2107
 21
67.8956
  0
LINE
  8
0
 10
-27.2107
 20
67.8956
 11
-27.3711
 21
67.5547
  0
LINE
  8
0
 10
-27.3711
 20
67.5547
 11
-27.5729
 21
67.2366
  0
LINE
  8
0
 10
-27.5729
 20
67.2366
 11
-27.8131
 21
66.9464
  0
LINE
  8
0
 10
-27.8131
 20
66.9464
 11
-28.0877
 21
66.6885
  0
LINE
  8
0
 10
-28.0877
 20
66.6885
 11
-28.3925
 21
66.467
  0
LINE
  8
0
 10
-28.3925
 20
66.467
 11
-28.7227
 21
66.2855
  0
LINE
  8
0
 10
-28.7227
 20
66.2855
 11
-29.0729
 21
66.1468
  0
LINE
  8
0
 10
-29.0729
 20
66.1468
 11
-29.4379
 21
66.0531
  0
LINE
  8
0
 10
-29.4379
 20
66.0531
 11
-29.8116
 21
66.0059
  0
LINE
  8
0
 10
-29.8116
 20
66.0059
 11
-30.1884
 21
66.0059
  0
LINE
  8
0
 10
-15.1884
 20
66.0059
 11
-15.5621
 21
66.0531
  0
LINE
  8
0
 10
-15.5621
 20
66.0531
 11
-15.927
 21
66.1468
  0
LINE
  8
0
 10
-15.927
 20
66.1468
 11
-16.2773
 21
66.2855
  0
LINE
  8
0
 10
-16.2773
 20
66.2855
 11
-16.6075
 21
66.467
  0
LINE
  8
0
 10
-16.6075
 20
66.467
 11
-16.9123
 21
66.6885
  0
LINE
  8
0
 10
-16.9123
 20
66.6885
 11
-17.1869
 21
66.9464
  0
LINE
  8
0
 10
-17.1869
 20
66.9464
 11
-17.427
 21
67.2366
  0
LINE
  8
0
 10
-17.427
 20
67.2366
 11
-17.6289
 21
67.5547
  0
LINE
  8
0
 10
-17.6289
 20
67.5547
 11
-17.7893
 21
67.8956
  0
LINE
  8
0
 10
-17.7893
 20
67.8956
 11
-17.9057
 21
68.2539
  0
LINE
  8
0
 10
-17.9057
 20
68.2539
 11
-17.9763
 21
68.624
  0
LINE
  8
0
 10
-17.9763
 20
68.624
 11
-18
 21
69
  0
LINE
  8
0
 10
-18
 20
69
 11
-17.9763
 21
69.376
  0
LINE
  8
0
 10
-17.9763
 20
69.376
 11
-17.9057
 21
69.7461
  0
LINE
  8
0
 10
-17.9057
 20
69.7461
 11
-17.7893
 21
70.1044
  0
LINE
  8
0
 10
-17.7893
 20
70.1044
 11
-17.6289
 21
70.4453
  0
LINE
  8
0
 10
-17.6289
 20
70.4453
 11
-17.427
 21
70.7634
  0
LINE
  8
0
 10
-17.427
 20
70.7634
 11
-17.1869
 21
71.0536
  0
LINE
  8
0
 10
-17.1869
 20
71.0536
 11
-16.9123
 21
71.3115
  0
LINE
  8
0
 10
-16.9123
 20
71.3115
 11
-16.6075
 21
71.533
  0
LINE
  8
0
 10
-16.6075
 20
71.533
 11
-16.2773
 21
71.7145
  0
LINE
  8
0
 10
-16.2773
 20
71.7145
 11
-15.927
 21
71.8532
  0
LINE
  8
0
 10
-15.927
 20
71.8532
 11
-15.5621
 21
71.9469
  0
LINE
  8
0
 10
-15.5621
 20
71.9469
 11
-15.1884
 21
71.9941
  0
LINE
  8
0
 10
-15.1884
 20
71.9941
 11
-14.8116
 21
71.9941
  0
LINE
  8
0
 10
-14.8116
 20
71.9941
 11
-14.4379
 21
71.9469
  0
LINE
  8
0
 10
-14.4379
 20
71.9469
 11
-14.0729
 21
71.8532
  0
LINE
  8
0
 10
-14.0729
 20
71.8532
 11
-13.7227
 21
71.7145
  0
LINE
  8
0
 10
-13.7227
 20
71.7145
 11
-13.3925
 21
71.533
  0
LINE
  8
0
 10
-13.3925
 20
71.533
 11
-13.0877
 21
71.3115
  0
LINE
  8
0
 10
-13.0877
 20
71.3115
 11
-12.8131
 21
71.0536
  0
LINE
  8
0
 10
-12.8131
 20
71.0536
 11
-12.5729
 21
70.7634
  0
LINE
  8
0
 10
-12.5729
 20
70.7634
 11
-12.3711
 21
70.4453
  0
LINE
  8
0
 10
-12.3711
 20
70.4453
 11
-12.2107
 21
70.1044
  0
LINE
  8
0
 10
-12.2107
 20
70.1044
 11
-12.0942
 21
69.7461
  0
LINE
  8
0
 10
-12.0942
 20
69.7461
 11
-12.0237
 21
69.376
  0
LINE
  8
0
 10
-12.0237
 20
69.376
 11
-12
 21
69
  0
LINE
  8
0
 10
-12
 20
69
 11
-12.0237
 21
68.624
  0
LINE
  8
0
 10
-12.0237
 20
68.624
 11
-12.0942
 21
68.2539
  0
LINE
  8
0
 10
-12.0942
 20
68.2539
 11
-12.2107
 21
67.8956
  0
LINE
  8
0
 10
-12.2107
 20
67.8956
 11
-12.3711
 21
67.5547
  0
LINE
  8
0
 10
-12.3711
 20
67.5547
 11
-12.5729
 21
67.2366
  0
LINE
  8
0
 10
-12.5729
 20
67.2366
 11
-12.8131
 21
66.9464
  0
LINE
  8
0
 10
-12.8131
 20
66.9464
 11
-13.0877
 21
66.6885
  0
LINE
  8
0
 10
-13.0877
 20
66.6885
 11
-13.3925
 21
66.467
  0
LINE
  8
0
 10
-13.3925
 20
66.467
 11
-13.7227
 21
66.2855
  0
LINE
  8
0
 10
-13.7227
 20
66.2855
 11
-14.0729
 21
66.1468
  0
LINE
  8
0
 10
-14.0729
 20
66.1468
 11
-14.4379
 21
66.0531
  0
LINE
  8
0
 10
-14.4379
 20
66.0531
 11
-14.8116
 21
66.0059
  0
LINE
  8
0
 10
-14.8116
 20
66.0059
 11
-15.1884
 21
66.0059
  0
LINE
  8
0
 10
44.8116
 20
66.0059
 11
44.4379
 21
66.0531
  0
LINE
  8
0
 10
44.4379
 20
66.0531
 11
44.0729
 21
66.1468
  0
LINE
  8
0
 10
44.0729
 20
66.1468
 11
43.7227
 21
66.2855
  0
LINE
  8
0
 10
43.7227
 20
66.2855
 11
43.3925
 21
66.467
  0
LINE
  8
0
 10
43.3925
 20
66.467
 11
43.0877
 21
66.6885
  0
LINE
  8
0
 10
43.0877
 20
66.6885
 11
42.8131
 21
66.9464
  0
LINE
  8
0
 10
42.8131
 20
66.9464
 11
42.5729
 21
67.2366
  0
LINE
  8
0
 10
42.5729
 20
67.2366
 11
42.3711
 21
67.5547
  0
LINE
  8
0
 10
42.3711
 20
67.5547
 11
42.2107
 21
67.8956
  0
LINE
  8
0
 10
42.2107
 20
67.8956
 11
42.0942
 21
68.2539
  0
LINE
  8
0
 10
42.0942
 20
68.2539
 11
42.0237
 21
68.624
  0
LINE
  8
0
 10
42.0237
 20
68.624
 11
42
 21
69
  0
LINE
  8
0
 10
42
 20
69
 11
42.0237
 21
69.376
  0
LINE
  8
0
 10
42.0237
 20
69.376
 11
42.0942
 21
69.7461
  0
LINE
  8
0
 10
42.0942
 20
69.7461
 11
42.2107
 21
70.1044
  0
LINE
  8
0
 10
42.2107
 20
70.1044
 11
42.3711
 21
70.4453
  0
LINE
  8
0
 10
42.3711
 20
70.4453
 11
42.5729
 21
70.7634
  0
LINE
  8
0
 10
42.5729
 20
70.7634
 11
42.8131
 21
71.0536
  0
LINE
  8
0
 10
42.8131
 20
71.0536
 11
43.0877
 21
71.3115
  0
LINE
  8
0
 10
43.0877
 20
71.3115
 11
43.3925
 21
71.533
  0
LINE
  8
0
 10
43.3925
 20
71.533
 11
43.7227
 21
71.7145
  0
LINE
  8
0
 10
43.7227
 20
71.7145
 11
44.0729
 21
71.8532
  0
LINE
  8
0
 10
44.0729
 20
71.8532
 11
44.4379
 21
71.9469
  0
LINE
  8
0
 10
44.4379
 20
71.9469
 11
44.8116
 21
71.9941
  0
LINE
  8
0
 10
44.8116
 20
71.9941
 11
45.1884
 21
71.9941
  0
LINE
  8
0
 10
45.1884
 20
71.9941
 11
45.5621
 21
71.9469
  0
LINE
  8
0
 10
45.5621
 20
71.9469
 11
45.927
 21
71.8532
  0
LINE
  8
0
 10
45.927
 20
71.8532
 11
46.2773
 21
71.7145
  0
LINE
  8
0
 10
46.2773
 20
71.7145
 11
46.6075
 21
71.533
  0
LINE
  8
0
 10
46.6075
 20
71.533
 11
46.9123
 21
71.3115
  0
LINE
  8
0
 10
46.9123
 20
71.3115
 11
47.1869
 21
71.0536
  0
LINE
  8
0
 10
47.1869
 20
71.0536
 11
47.427
 21
70.7634
  0
LINE
  8
0
 10
47.427
 20
70.7634
 11
47.6289
 21
70.4453
  0
LINE
  8
0
 10
47.6289
 20
70.4453
 11
47.7893
 21
70.1044
  0
LINE
  8
0
 10
47.7893
 20
70.1044
 11
47.9057
 21
69.7461
  0
LINE
  8
0
 10
47.9057
 20
69.7461
 11
47.9763
 21
69.376
  0
LINE
  8
0
 10
47.9763
 20
69.376
 11
48
 21
69
  0
LINE
  8
0
 10
48
 20
69
 11
47.9763
 21
68.624
  0
LINE
  8
0
 10
47.9763
 20
68.624
 11
47.9057
 21
68.2539
  0
LINE
  8
0
 10
47.9057
 20
68.2539
 11
47.7893
 21
67.8956
  0
LINE
  8
0
 10
47.7893
 20
67.8956
 11
47.6289
 21
67.5547
  0
LINE
  8
0
 10
47.6289
 20
67.5547
 11
47.427
 21
67.2366
  0
LINE
  8
0
 10
47.427
 20
67.2366
 11
47.1869
 21
66.9464
  0
LINE
  8
0
 10
47.1869
 20
66.9464
 11
46.9123
 21
66.6885
  0
LINE
  8
0
 10
46.9123
 20
66.6885
 11
46.6075
 21
66.467
  0
LINE
  8
0
 10
46.6075
 20
66.467
 11
46.2773
 21
66.2855
  0
LINE
  8
0
 10
46.2773
 20
66.2855
 11
45.927
 21
66.1468
  0
LINE
  8
0
 10
45.927
 20
66.1468
 11
45.5621
 21
66.0531
  0
LINE
  8
0
 10
45.5621
 20
66.0531
 11
45.1884
 21
66.0059
  0
LINE
  8
0
 10
45.1884
 20
66.0059
 11
44.8116
 21
66.0059
  0
LINE
  8
0
 10
-7.59418
 20
67.503
 11
-7.78107
 21
67.5266
  0
LINE
  8
0
 10
-7.78107
 20
67.5266
 11
-7.96352
 21
67.5734
  0
LINE
  8
0
 10
-7.96352
 20
67.5734
 11
-8.13866
 21
67.6428
  0
LINE
  8
0
 10
-8.13866
 20
67.6428
 11
-8.30373
 21
67.7335
  0
LINE
  8
0
 10
-8.30373
 20
67.7335
 11
-8.45613
 21
67.8442
  0
LINE
  8
0
 10
-8.45613
 20
67.8442
 11
-8.59344
 21
67.9732
  0
LINE
  8
0
 10
-8.59344
 20
67.9732
 11
-8.71352
 21
68.1183
  0
LINE
  8
0
 10
-8.71352
 20
68.1183
 11
-8.81445
 21
68.2774
  0
LINE
  8
0
 10
-8.81445
 20
68.2774
 11
-8.89465
 21
68.4478
  0
LINE
  8
0
 10
-8.89465
 20
68.4478
 11
-8.95287
 21
68.627
  0
LINE
  8
0
 10
-8.95287
 20
68.627
 11
-8.98816
 21
68.812
  0
LINE
  8
0
 10
-8.98816
 20
68.812
 11
-9
 21
69
  0
LINE
  8
0
 10
-9
 20
69
 11
-8.98816
 21
69.188
  0
LINE
  8
0
 10
-8.98816
 20
69.188
 11
-8.95287
 21
69.373
  0
LINE
  8
0
 10
-8.95287
 20
69.373
 11
-8.89465
 21
69.5522
  0
LINE
  8
0
 10
-8.89465
 20
69.5522
 11
-8.81445
 21
69.7226
  0
LINE
  8
0
 10
-8.81445
 20
69.7226
 11
-8.71352
 21
69.8817
  0
LINE
  8
0
 10
-8.71352
 20
69.8817
 11
-8.59344
 21
70.0268
  0
LINE
  8
0
 10
-8.59344
 20
70.0268
 11
-8.45613
 21
70.1558
  0
LINE
  8
0
 10
-8.45613
 20
70.1558
 11
-8.30373
 21
70.2665
  0
LINE
  8
0
 10
-8.30373
 20
70.2665
 11
-8.13866
 21
70.3572
  0
LINE
  8
0
 10
-8.13866
 20
70.3572
 11
-7.96352
 21
70.4266
  0
LINE
  8
0
 10
-7.96352
 20
70.4266
 11
-7.78107
 21
70.4734
  0
LINE
  8
0
 10
-7.78107
 20
70.4734
 11
-7.59418
 21
70.497
  0
LINE
  8
0
 10
-7.59418
 20
70.497
 11
-7.40581
 21
70.497
  0
LINE
  8
0
 10
-7.40581
 20
70.497
 11
-7.21892
 21
70.4734
  0
LINE
  8
0
 10
-7.21892
 20
70.4734
 11
-7.03647
 21
70.4266
  0
LINE
  8
0
 10
-7.03647
 20
70.4266
 11
-6.86133
 21
70.3572
  0
LINE
  8
0
 10
-6.86133
 20
70.3572
 11
-6.69626
 21
70.2665
  0
LINE
  8
0
 10
-6.69626
 20
70.2665
 11
-6.54385
 21
70.1558
  0
LINE
  8
0
 10
-6.54385
 20
70.1558
 11
-6.40654
 21
70.0268
  0
LINE
  8
0
 10
-6.40654
 20
70.0268
 11
-6.28647
 21
69.8817
  0
LINE
  8
0
 10
-6.28647
 20
69.8817
 11
-6.18553
 21
69.7226
  0
LINE
  8
0
 10
-6.18553
 20
69.7226
 11
-6.10533
 21
69.5522
  0
LINE
  8
0
 10
-6.10533
 20
69.5522
 11
-6.04712
 21
69.373
  0
LINE
  8
0
 10
-6.04712
 20
69.373
 11
-6.01183
 21
69.188
  0
LINE
  8
0
 10
-6.01183
 20
69.188
 11
-6
 21
69
  0
LINE
  8
0
 10
-6
 20
69
 11
-6.01183
 21
68.812
  0
LINE
  8
0
 10
-6.01183
 20
68.812
 11
-6.04712
 21
68.627
  0
LINE
  8
0
 10
-6.04712
 20
68.627
 11
-6.10533
 21
68.4478
  0
LINE
  8
0
 10
-6.10533
 20
68.4478
 11
-6.18553
 21
68.2774
  0
LINE
  8
0
 10
-6.18553
 20
68.2774
 11
-6.28647
 21
68.1183
  0
LINE
  8
0
 10
-6.28647
 20
68.1183
 11
-6.40654
 21
67.9732
  0
LINE
  8
0
 10
-6.40654
 20
67.9732
 11
-6.54385
 21
67.8442
  0
LINE
  8
0
 10
-6.54385
 20
67.8442
 11
-6.69626
 21
67.7335
  0
LINE
  8
0
 10
-6.69626
 20
67.7335
 11
-6.86133
 21
67.6428
  0
LINE
  8
0
 10
-6.86133
 20
67.6428
 11
-7.03647
 21
67.5734
  0
LINE
  8
0
 10
-7.03647
 20
67.5734
 11
-7.21892
 21
67.5266
  0
LINE
  8
0
 10
-7.21892
 20
67.5266
 11
-7.40581
 21
67.503
  0
LINE
  8
0
 10
-7.40581
 20
67.503
 11
-7.59418
 21
67.503
  0
LINE
  8
0
 10
7.40581
 20
67.503
 11
7.21892
 21
67.5266
  0
LINE
  8
0
 10
7.21892
 20
67.5266
 11
7.03647
 21
67.5734
  0
LINE
  8
0
 10
7.03647
 20
67.5734
 11
6.86133
 21
67.6428
  0
LINE
  8
0
 10
6.86133
 20
67.6428
 11
6.69626
 21
67.7335
  0
LINE
  8
0
 10
6.69626
 20
67.7335
 11
6.54385
 21
67.8442
  0
LINE
  8
0
 10
6.54385
 20
67.8442
 11
6.40654
 21
67.9732
  0
LINE
  8
0
 10
6.40654
 20
67.9732
 11
6.28647
 21
68.1183
  0
LINE
  8
0
 10
6.28647
 20
68.1183
 11
6.18553
 21
68.2774
  0
LINE
  8
0
 10
6.18553
 20
68.2774
 11
6.10533
 21
68.4478
  0
LINE
  8
0
 10
6.10533
 20
68.4478
 11
6.04712
 21
68.627
  0
LINE
  8
0
 10
6.04712
 20
68.627
 11
6.01183
 21
68.812
  0
LINE
  8
0
 10
6.01183
 20
68.812
 11
6
 21
69
  0
LINE
  8
0
 10
6
 20
69
 11
6.01183
 21
69.188
  0
LINE
  8
0
 10
6.01183
 20
69.188
 11
6.04712
 21
69.373
  0
LINE
  8
0
 10
6.04712
 20
69.373
 11
6.10533
 21
69.5522
  0
LINE
  8
0
 10
6.10533
 20
69.5522
 11
6.18553
 21
69.7226
  0
LINE
  8
0
 10
6.18553
 20
69.7226
 11
6.28647
 21
69.8817
  0
LINE
  8
0
 10
6.28647
 20
69.8817
 11
6.40654
 21
70.0268
  0
LINE
  8
0
 10
6.40654
 20
70.0268
 11
6.54385
 21
70.1558
  0
LINE
  8
0
 10
6.54385
 20
70.1558
 11
6.69626
 21
70.2665
  0
LINE
  8
0
 10
6.69626
 20
70.2665
 11
6.86133
 21
70.3572
  0
LINE
  8
0
 10
6.86133
 20
70.3572
 11
7.03647
 21
70.4266
  0
LINE
  8
0
 10
7.03647
 20
70.4266
 11
7.21892
 21
70.4734
  0
LINE
  8
0
 10
7.21892
 20
70.4734
 11
7.40581
 21
70.497
  0
LINE
  8
0
 10
7.40581
 20
70.497
 11
7.59418
 21
70.497
  0
LINE
  8
0
 10
7.59418
 20
70.497
 11
7.78107
 21
70.4734
  0
LINE
  8
0
 10
7.78107
 20
70.4734
 11
7.96352
 21
70.4266
  0
LINE
  8
0
 10
7.96352
 20
70.4266
 11
8.13866
 21
70.3572
  0
LINE
  8
0
 10
8.13866
 20
70.3572
 11
8.30373
 21
70.2665
  0
LINE
  8
0
 10
8.30373
 20
70.2665
 11
8.45613
 21
70.1558
  0
LINE
  8
0
 10
8.45613
 20
70.1558
 11
8.59344
 21
70.0268
  0
LINE
  8
0
 10
8.59344
 20
70.0268
 11
8.71352
 21
69.8817
  0
LINE
  8
0
 10
8.71352
 20
69.8817
 11
8.81445
 21
69.7226
  0
LINE
  8
0
 10
8.81445
 20
69.7226
 11
8.89465
 21
69.5522
  0
LINE
  8
0
 10
8.89465
 20
69.5522
 11
8.95287
 21
69.373
  0
LINE
  8
0
 10
8.95287
 20
69.373
 11
8.98816
 21
69.188
  0
LINE
  8
0
 10
8.98816
 20
69.188
 11
9
 21
69
  0
LINE
  8
0
 10
9
 20
69
 11
8.98816
 21
68.812
  0
LINE
  8
0
 10
8.98816
 20
68.812
 11
8.95287
 21
68.627
  0
LINE
  8
0
 10
8.95287
 20
68.627
 11
8.89465
 21
68.4478
  0
LINE
  8
0
 10
8.89465
 20
68.4478
 11
8.81445
 21
68.2774
  0
LINE
  8
0
 10
8.81445
 20
68.2774
 11
8.71352
 21
68.1183
  0
LINE
  8
0
 10
8.71352
 20
68.1183
 11
8.59344
 21
67.9732
  0
LINE
  8
0
 10
8.59344
 20
67.9732
 11
8.45613
 21
67.8442
  0
LINE
  8
0
 10
8.45613
 20
67.8442
 11
8.30373
 21
67.7335
  0
LINE
  8
0
 10
8.30373
 20
67.7335
 11
8.13866
 21
67.6428
  0
LINE
  8
0
 10
8.13866
 20
67.6428
 11
7.96352
 21
67.5734
  0
LINE
  8
0
 10
7.96352
 20
67.5734
 11
7.78107
 21
67.5266
  0
LINE
  8
0
 10
7.78107
 20
67.5266
 11
7.59418
 21
67.503
  0
LINE
  8
0
 10
7.59418
 20
67.503
 11
7.40581
 21
67.503
  0
LINE
  8
0
 10
37.4058
 20
67.503
 11
37.2189
 21
67.5266
  0
LINE
  8
0
 10
37.2189
 20
67.5266
 11
37.0365
 21
67.5734
  0
LINE
  8
0
 10
37.0365
 20
67.5734
 11
36.8613
 21
67.6428
  0
LINE
  8
0
 10
36.8613
 20
67.6428
 11
36.6963
 21
67.7335
  0
LINE
  8
0
 10
36.6963
 20
67.7335
 11
36.5439
 21
67.8442
  0
LINE
  8
0
 10
36.5439
 20
67.8442
 11
36.4065
 21
67.9732
  0
LINE
  8
0
 10
36.4065
 20
67.9732
 11
36.2865
 21
68.1183
  0
LINE
  8
0
 10
36.2865
 20
68.1183
 11
36.1855
 21
68.2774
  0
LINE
  8
0
 10
36.1855
 20
68.2774
 11
36.1053
 21
68.4478
  0
LINE
  8
0
 10
36.1053
 20
68.4478
 11
36.0471
 21
68.627
  0
LINE
  8
0
 10
36.0471
 20
68.627
 11
36.0118
 21
68.812
  0
LINE
  8
0
 10
36.0118
 20
68.812
 11
36
 21
69
  0
LINE
  8
0
 10
36
 20
69
 11
36.0118
 21
69.188
  0
LINE
  8
0
 10
36.0118
 20
69.188
 11
36.0471
 21
69.373
  0
LINE
  8
0
 10
36.0471
 20
69.373
 11
36.1053
 21
69.5522
  0
LINE
  8
0
 10
36.1053
 20
69.5522
 11
36.1855
 21
69.7226
  0
LINE
  8
0
 10
36.1855
 20
69.7226
 11
36.2865
 21
69.8817
  0
LINE
  8
0
 10
36.2865
 20
69.8817
 11
36.4065
 21
70.0268
  0
LINE
  8
0
 10
36.4065
 20
70.0268
 11
36.5439
 21
70.1558
  0
LINE
  8
0
 10
36.5439
 20
70.1558
 11
36.6963
 21
70.2665
  0
LINE
  8
0
 10
36.6963
 20
70.2665
 11
36.8613
 21
70.3572
  0
LINE
  8
0
 10
36.8613
 20
70.3572
 11
37.0365
 21
70.4266
  0
LINE
  8
0
 10
37.0365
 20
70.4266
 11
37.2189
 21
70.4734
  0
LINE
  8
0
 10
37.2189
 20
70.4734
 11
37.4058
 21
70.497
  0
LINE
  8
0
 10
37.4058
 20
70.497
 11
37.5942
 21
70.497
  0
LINE
  8
0
 10
37.5942
 20
70.497
 11
37.7811
 21
70.4734
  0
LINE
  8
0
 10
37.7811
 20
70.4734
 11
37.9635
 21
70.4266
  0
LINE
  8
0
 10
37.9635
 20
70.4266
 11
38.1387
 21
70.3572
  0
LINE
  8
0
 10
38.1387
 20
70.3572
 11
38.3037
 21
70.2665
  0
LINE
  8
0
 10
38.3037
 20
70.2665
 11
38.4561
 21
70.1558
  0
LINE
  8
0
 10
38.4561
 20
70.1558
 11
38.5934
 21
70.0268
  0
LINE
  8
0
 10
38.5934
 20
70.0268
 11
38.7135
 21
69.8817
  0
LINE
  8
0
 10
38.7135
 20
69.8817
 11
38.8145
 21
69.7226
  0
LINE
  8
0
 10
38.8145
 20
69.7226
 11
38.8947
 21
69.5522
  0
LINE
  8
0
 10
38.8947
 20
69.5522
 11
38.9529
 21
69.373
  0
LINE
  8
0
 10
38.9529
 20
69.373
 11
38.9882
 21
69.188
  0
LINE
  8
0
 10
38.9882
 20
69.188
 11
39
 21
69
  0
LINE
  8
0
 10
39
 20
69
 11
38.9882
 21
68.812
  0
LINE
  8
0
 10
38.9882
 20
68.812
 11
38.9529
 21
68.627
  0
LINE
  8
0
 10
38.9529
 20
68.627
 11
38.8947
 21
68.4478
  0
LINE
  8
0
 10
38.8947
 20
68.4478
 11
38.8145
 21
68.2774
  0
LINE
  8
0
 10
38.8145
 20
68.2774
 11
38.7135
 21
68.1183
  0
LINE
  8
0
 10
38.7135
 20
68.1183
 11
38.5934
 21
67.9732
  0
LINE
  8
0
 10
38.5934
 20
67.9732
 11
38.4561
 21
67.8442
  0
LINE
  8
0
 10
38.4561
 20
67.8442
 11
38.3037
 21
67.7335
  0
LINE
  8
0
 10
38.3037
 20
67.7335
 11
38.1387
 21
67.6428
  0
LINE
  8
0
 10
38.1387
 20
67.6428
 11
37.9635
 21
67.5734
  0
LINE
  8
0
 10
37.9635
 20
67.5734
 11
37.7811
 21
67.5266
  0
LINE
  8
0
 10
37.7811
 20
67.5266
 11
37.5942
 21
67.503
  0
LINE
  8
0
 10
37.5942
 20
67.503
 11
37.4058
 21
67.503
  0
LINE
  8
0
 10
-37.5942
 20
67.503
 11
-37.7811
 21
67.5266
  0
LINE
  8
0
 10
-37.7811
 20
67.5266
 11
-37.9635
 21
67.5734
  0
LINE
  8
0
 10
-37.9635
 20
67.5734
 11
-38.1387
 21
67.6428
  0
LINE
  8
0
 10
-38.1387
 20
67.6428
 11
-38.3037
 21
67.7335
  0
LINE
  8
0
 10
-38.3037
 20
67.7335
 11
-38.4561
 21
67.8442
  0
LINE
  8
0
 10
-38.4561
 20
67.8442
 11
-38.5934
 21
67.9732
  0
LINE
  8
0
 10
-38.5934
 20
67.9732
 11
-38.7135
 21
68.1183
  0
LINE
  8
0
 10
-38.7135
 20
68.1183
 11
-38.8145
 21
68.2774
  0
LINE
  8
0
 10
-38.8145
 20
68.2774
 11
-38.8947
 21
68.4478
  0
LINE
  8
0
 10
-38.8947
 20
68.4478
 11
-38.9529
 21
68.627
  0
LINE
  8
0
 10
-38.9529
 20
68.627
 11
-38.9882
 21
68.812
  0
LINE
  8
0
 10
-38.9882
 20
68.812
 11
-39
 21
69
  0
LINE
  8
0
 10
-39
 20
69
 11
-38.9882
 21
69.188
  0
LINE
  8
0
 10
-38.9882
 20
69.188
 11
-38.9529
 21
69.373
  0
LINE
  8
0
 10
-38.9529
 20
69.373
 11
-38.8947
 21
69.5522
  0
LINE
  8
0
 10
-38.8947
 20
69.5522
 11
-38.8145
 21
69.7226
  0
LINE
  8
0
 10
-38.8145
 20
69.7226
 11
-38.7135
 21
69.8817
  0
LINE
  8
0
 10
-38.7135
 20
69.8817
 11
-38.5934
 21
70.0268
  0
LINE
  8
0
 10
-38.5934
 20
70.0268
 11
-38.4561
 21
70.1558
  0
LINE
  8
0
 10
-38.4561
 20
70.1558
 11
-38.3037
 21
70.2665
  0
LINE
  8
0
 10
-38.3037
 20
70.2665
 11
-38.1387
 21
70.3572
  0
LINE
  8
0
 10
-38.1387
 20
70.3572
 11
-37.9635
 21
70.4266
  0
LINE
  8
0
 10
-37.9635
 20
70.4266
 11
-37.7811
 21
70.4734
  0
LINE
  8
0
 10
-37.7811
 20
70.4734
 11
-37.5942
 21
70.497
  0
LINE
  8
0
 10
-37.5942
 20
70.497
 11
-37.4058
 21
70.497
  0
LINE
  8
0
 10
-37.4058
 20
70.497
 11
-37.2189
 21
70.4734
  0
LINE
  8
0
 10
-37.2189
 20
70.4734
 11
-37.0365
 21
70.4266
  0
LINE
  8
0
 10
-37.0365
 20
70.4266
 11
-36.8613
 21
70.3572
  0
LINE
  8
0
 10
-36.8613
 20
70.3572
 11
-36.6963
 21
70.2665
  0
LINE
  8
0
 10
-36.6963
 20
70.2665
 11
-36.5439
 21
70.1558
  0
LINE
  8
0
 10
-36.5439
 20
70.1558
 11
-36.4065
 21
70.0268
  0
LINE
  8
0
 10
-36.4065
 20
70.0268
 11
-36.2865
 21
69.8817
  0
LINE
  8
0
 10
-36.2865
 20
69.8817
 11
-36.1855
 21
69.7226
  0
LINE
  8
0
 10
-36.1855
 20
69.7226
 11
-36.1053
 21
69.5522
  0
LINE
  8
0
 10
-36.1053
 20
69.5522
 11
-36.0471
 21
69.373
  0
LINE
  8
0
 10
-36.0471
 20
69.373
 11
-36.0118
 21
69.188
  0
LINE
  8
0
 10
-36.0118
 20
69.188
 11
-36
 21
69
  0
LINE
  8
0
 10
-36
 20
69
 11
-36.0118
 21
68.812
  0
LINE
  8
0
 10
-36.0118
 20
68.812
 11
-36.0471
 21
68.627
  0
LINE
  8
0
 10
-36.0471
 20
68.627
 11
-36.1053
 21
68.4478
  0
LINE
  8
0
 10
-36.1053
 20
68.4478
 11
-36.1855
 21
68.2774
  0
LINE
  8
0
 10
-36.1855
 20
68.2774
 11
-36.2865
 21
68.1183
  0
LINE
  8
0
 10
-36.2865
 20
68.1183
 11
-36.4065
 21
67.9732
  0
LINE
  8
0
 10
-36.4065
 20
67.9732
 11
-36.5439
 21
67.8442
  0
LINE
  8
0
 10
-36.5439
 20
67.8442
 11
-36.6963
 21
67.7335
  0
LINE
  8
0
 10
-36.6963
 20
67.7335
 11
-36.8613
 21
67.6428
  0
LINE
  8
0
 10
-36.8613
 20
67.6428
 11
-37.0365
 21
67.5734
  0
LINE
  8
0
 10
-37.0365
 20
67.5734
 11
-37.2189
 21
67.5266
  0
LINE
  8
0
 10
-37.2189
 20
67.5266
 11
-37.4058
 21
67.503
  0
LINE
  8
0
 10
-37.4058
 20
67.503
 11
-37.5942
 21
67.503
  0
LINE
  8
0
 10
22.4058
 20
67.503
 11
22.2189
 21
67.5266
  0
LINE
  8
0
 10
22.2189
 20
67.5266
 11
22.0365
 21
67.5734
  0
LINE
  8
0
 10
22.0365
 20
67.5734
 11
21.8613
 21
67.6428
  0
LINE
  8
0
 10
21.8613
 20
67.6428
 11
21.6963
 21
67.7335
  0
LINE
  8
0
 10
21.6963
 20
67.7335
 11
21.5439
 21
67.8442
  0
LINE
  8
0
 10
21.5439
 20
67.8442
 11
21.4065
 21
67.9732
  0
LINE
  8
0
 10
21.4065
 20
67.9732
 11
21.2865
 21
68.1183
  0
LINE
  8
0
 10
21.2865
 20
68.1183
 11
21.1855
 21
68.2774
  0
LINE
  8
0
 10
21.1855
 20
68.2774
 11
21.1053
 21
68.4478
  0
LINE
  8
0
 10
21.1053
 20
68.4478
 11
21.0471
 21
68.627
  0
LINE
  8
0
 10
21.0471
 20
68.627
 11
21.0118
 21
68.812
  0
LINE
  8
0
 10
21.0118
 20
68.812
 11
21
 21
69
  0
LINE
  8
0
 10
21
 20
69
 11
21.0118
 21
69.188
  0
LINE
  8
0
 10
21.0118
 20
69.188
 11
21.0471
 21
69.373
  0
LINE
  8
0
 10
21.0471
 20
69.373
 11
21.1053
 21
69.5522
  0
LINE
  8
0
 10
21.1053
 20
69.5522
 11
21.1855
 21
69.7226
  0
LINE
  8
0
 10
21.1855
 20
69.7226
 11
21.2865
 21
69.8817
  0
LINE
  8
0
 10
21.2865
 20
69.8817
 11
21.4065
 21
70.0268
  0
LINE
  8
0
 10
21.4065
 20
70.0268
 11
21.5439
 21
70.1558
  0
LINE
  8
0
 10
21.5439
 20
70.1558
 11
21.6963
 21
70.2665
  0
LINE
  8
0
 10
21.6963
 20
70.2665
 11
21.8613
 21
70.3572
  0
LINE
  8
0
 10
21.8613
 20
70.3572
 11
22.0365
 21
70.4266
  0
LINE
  8
0
 10
22.0365
 20
70.4266
 11
22.2189
 21
70.4734
  0
LINE
  8
0
 10
22.2189
 20
70.4734
 11
22.4058
 21
70.497
  0
LINE
  8
0
 10
22.4058
 20
70.497
 11
22.5942
 21
70.497
  0
LINE
  8
0
 10
22.5942
 20
70.497
 11
22.7811
 21
70.4734
  0
LINE
  8
0
 10
22.7811
 20
70.4734
 11
22.9635
 21
70.4266
  0
LINE
  8
0
 10
22.9635
 20
70.4266
 11
23.1387
 21
70.3572
  0
LINE
  8
0
 10
23.1387
 20
70.3572
 11
23.3037
 21
70.2665
  0
LINE
  8
0
 10
23.3037
 20
70.2665
 11
23.4561
 21
70.1558
  0
LINE
  8
0
 10
23.4561
 20
70.1558
 11
23.5934
 21
70.0268
  0
LINE
  8
0
 10
23.5934
 20
70.0268
 11
23.7135
 21
69.8817
  0
LINE
  8
0
 10
23.7135
 20
69.8817
 11
23.8145
 21
69.7226
  0
LINE
  8
0
 10
23.8145
 20
69.7226
 11
23.8947
 21
69.5522
  0
LINE
  8
0
 10
23.8947
 20
69.5522
 11
23.9529
 21
69.373
  0
LINE
  8
0
 10
23.9529
 20
69.373
 11
23.9882
 21
69.188
  0
LINE
  8
0
 10
23.9882
 20
69.188
 11
24
 21
69
  0
LINE
  8
0
 10
24
 20
69
 11
23.9882
 21
68.812
  0
LINE
  8
0
 10
23.9882
 20
68.812
 11
23.9529
 21
68.627
  0
LINE
  8
0
 10
23.9529
 20
68.627
 11
23.8947
 21
68.4478
  0
LINE
  8
0
 10
23.8947
 20
68.4478
 11
23.8145
 21
68.2774
  0
LINE
  8
0
 10
23.8145
 20
68.2774
 11
23.7135
 21
68.1183
  0
LINE
  8
0
 10
23.7135
 20
68.1183
 11
23.5934
 21
67.9732
  0
LINE
  8
0
 10
23.5934
 20
67.9732
 11
23.4561
 21
67.8442
  0
LINE
  8
0
 10
23.4561
 20
67.8442
 11
23.3037
 21
67.7335
  0
LINE
  8
0
 10
23.3037
 20
67.7335
 11
23.1387
 21
67.6428
  0
LINE
  8
0
 10
23.1387
 20
67.6428
 11
22.9635
 21
67.5734
  0
LINE
  8
0
 10
22.9635
 20
67.5734
 11
22.7811
 21
67.5266
  0
LINE
  8
0
 10
22.7811
 20
67.5266
 11
22.5942
 21
67.503
  0
LINE
  8
0
 10
22.5942
 20
67.503
 11
22.4058
 21
67.503
  0
LINE
  8
0
 10
-22.5942
 20
67.503
 11
-22.7811
 21
67.5266
  0
LINE
  8
0
 10
-22.7811
 20
67.5266
 11
-22.9635
 21
67.5734
  0
LINE
  8
0
 10
-22.9635
 20
67.5734
 11
-23.1387
 21
67.6428
  0
LINE
  8
0
 10
-23.1387
 20
67.6428
 11
-23.3037
 21
67.7335
  0
LINE
  8
0
 10
-23.3037
 20
67.7335
 11
-23.4561
 21
67.8442
  0
LINE
  8
0
 10
-23.4561
 20
67.8442
 11
-23.5934
 21
67.9732
  0
LINE
  8
0
 10
-23.5934
 20
67.9732
 11
-23.7135
 21
68.1183
  0
LINE
  8
0
 10
-23.7135
 20
68.1183
 11
-23.8145
 21
68.2774
  0
LINE
  8
0
 10
-23.8145
 20
68.2774
 11
-23.8947
 21
68.4478
  0
LINE
  8
0
 10
-23.8947
 20
68.4478
 11
-23.9529
 21
68.627
  0
LINE
  8
0
 10
-23.9529
 20
68.627
 11
-23.9882
 21
68.812
  0
LINE
  8
0
 10
-23.9882
 20
68.812
 11
-24
 21
69
  0
LINE
  8
0
 10
-24
 20
69
 11
-23.9882
 21
69.188
  0
LINE
  8
0
 10
-23.9882
 20
69.188
 11
-23.9529
 21
69.373
  0
LINE
  8
0
 10
-23.9529
 20
69.373
 11
-23.8947
 21
69.5522
  0
LINE
  8
0
 10
-23.8947
 20
69.5522
 11
-23.8145
 21
69.7226
  0
LINE
  8
0
 10
-23.8145
 20
69.7226
 11
-23.7135
 21
69.8817
  0
LINE
  8
0
 10
-23.7135
 20
69.8817
 11
-23.5934
 21
70.0268
  0
LINE
  8
0
 10
-23.5934
 20
70.0268
 11
-23.4561
 21
70.1558
  0
LINE
  8
0
 10
-23.4561
 20
70.1558
 11
-23.3037
 21
70.2665
  0
LINE
  8
0
 10
-23.3037
 20
70.2665
 11
-23.1387
 21
70.3572
  0
LINE
  8
0
 10
-23.1387
 20
70.3572
 11
-22.9635
 21
70.4266
  0
LINE
  8
0
 10
-22.9635
 20
70.4266
 11
-22.7811
 21
70.4734
  0
LINE
  8
0
 10
-22.7811
 20
70.4734
 11
-22.5942
 21
70.497
  0
LINE
  8
0
 10
-22.5942
 20
70.497
 11
-22.4058
 21
70.497
  0
LINE
  8
0
 10
-22.4058
 20
70.497
 11
-22.2189
 21
70.4734
  0
LINE
  8
0
 10
-22.2189
 20
70.4734
 11
-22.0365
 21
70.4266
  0
LINE
  8
0
 10
-22.0365
 20
70.4266
 11
-21.8613
 21
70.3572
  0
LINE
  8
0
 10
-21.8613
 20
70.3572
 11
-21.6963
 21
70.2665
  0
LINE
  8
0
 10
-21.6963
 20
70.2665
 11
-21.5439
 21
70.1558
  0
LINE
  8
0
 10
-21.5439
 20
70.1558
 11
-21.4065
 21
70.0268
  0
LINE
  8
0
 10
-21.4065
 20
70.0268
 11
-21.2865
 21
69.8817
  0
LINE
  8
0
 10
-21.2865
 20
69.8817
 11
-21.1855
 21
69.7226
  0
LINE
  8
0
 10
-21.1855
 20
69.7226
 11
-21.1053
 21
69.5522
  0
LINE
  8
0
 10
-21.1053
 20
69.5522
 11
-21.0471
 21
69.373
  0
LINE
  8
0
 10
-21.0471
 20
69.373
 11
-21.0118
 21
69.188
  0
LINE
  8
0
 10
-21.0118
 20
69.188
 11
-21
 21
69
  0
LINE
  8
0
 10
-21
 20
69
 11
-21.0118
 21
68.812
  0
LINE
  8
0
 10
-21.0118
 20
68.812
 11
-21.0471
 21
68.627
  0
LINE
  8
0
 10
-21.0471
 20
68.627
 11
-21.1053
 21
68.4478
  0
LINE
  8
0
 10
-21.1053
 20
68.4478
 11
-21.1855
 21
68.2774
  0
LINE
  8
0
 10
-21.1855
 20
68.2774
 11
-21.2865
 21
68.1183
  0
LINE
  8
0
 10
-21.2865
 20
68.1183
 11
-21.4065
 21
67.9732
  0
LINE
  8
0
 10
-21.4065
 20
67.9732
 11
-21.5439
 21
67.8442
  0
LINE
  8
0
 10
-21.5439
 20
67.8442
 11
-21.6963
 21
67.7335
  0
LINE
  8
0
 10
-21.6963
 20
67.7335
 11
-21.8613
 21
67.6428
  0
LINE
  8
0
 10
-21.8613
 20
67.6428
 11
-22.0365
 21
67.5734
  0
LINE
  8
0
 10
-22.0365
 20
67.5734
 11
-22.2189
 21
67.5266
  0
LINE
  8
0
 10
-22.2189
 20
67.5266
 11
-22.4058
 21
67.503
  0
LINE
  8
0
 10
-22.4058
 20
67.503
 11
-22.5942
 21
67.503
  0
ENDSEC
  0
SECTION
  2
OBJECTS
  0
DICTIONARY
  0
ENDSEC
  0
EOF
