  0
SECTION
  2
BLOCKS
  0
ENDSEC
  0
SECTION
  2
ENTITIES
  0
LINE
  8
0
 10
25.4369
 20
-14.4114
 11
26.0451
 21
-14.2553
  0
LINE
  8
0
 10
26.0451
 20
-14.2553
 11
26.6289
 21
-14.0241
  0
LINE
  8
0
 10
26.6289
 20
-14.0241
 11
27.1791
 21
-13.7216
  0
LINE
  8
0
 10
27.1791
 20
-13.7216
 11
27.6871
 21
-13.3526
  0
LINE
  8
0
 10
27.6871
 20
-13.3526
 11
28.1448
 21
-12.9227
  0
LINE
  8
0
 10
28.1448
 20
-12.9227
 11
28.5451
 21
-12.4389
  0
LINE
  8
0
 10
28.5451
 20
-12.4389
 11
28.8815
 21
-11.9088
  0
LINE
  8
0
 10
28.8815
 20
-11.9088
 11
29.1489
 21
-11.3406
  0
LINE
  8
0
 10
29.1489
 20
-11.3406
 11
29.3429
 21
-10.7434
  0
LINE
  8
0
 10
29.3429
 20
-10.7434
 11
29.4606
 21
-10.1267
  0
LINE
  8
0
 10
29.4606
 20
-10.1267
 11
29.5
 21
-9.5
  0
LINE
  8
0
 10
29.5
 20
-9.5
 11
29.5
 21
9.5
  0
LINE
  8
0
 10
29.5
 20
9.5
 11
29.4606
 21
10.1267
  0
LINE
  8
0
 10
29.4606
 20
10.1267
 11
29.3429
 21
10.7434
  0
LINE
  8
0
 10
29.3429
 20
10.7434
 11
29.1489
 21
11.3406
  0
LINE
  8
0
 10
29.1489
 20
11.3406
 11
28.8815
 21
11.9088
  0
LINE
  8
0
 10
28.8815
 20
11.9088
 11
28.5451
 21
12.4389
  0
LINE
  8
0
 10
28.5451
 20
12.4389
 11
28.1448
 21
12.9227
  0
LINE
  8
0
 10
28.1448
 20
12.9227
 11
27.6871
 21
13.3526
  0
LINE
  8
0
 10
27.6871
 20
13.3526
 11
27.1791
 21
13.7216
  0
LINE
  8
0
 10
27.1791
 20
13.7216
 11
26.6289
 21
14.0241
  0
LINE
  8
0
 10
26.6289
 20
14.0241
 11
26.0451
 21
14.2553
  0
LINE
  8
0
 10
26.0451
 20
14.2553
 11
25.4369
 21
14.4114
  0
LINE
  8
0
 10
25.4369
 20
14.4114
 11
24.8139
 21
14.4901
  0
LINE
  8
0
 10
24.8139
 20
14.4901
 11
-24.8139
 21
14.4901
  0
LINE
  8
0
 10
-24.8139
 20
14.4901
 11
-25.4369
 21
14.4114
  0
LINE
  8
0
 10
-25.4369
 20
14.4114
 11
-26.0451
 21
14.2553
  0
LINE
  8
0
 10
-26.0451
 20
14.2553
 11
-26.6289
 21
14.0241
  0
LINE
  8
0
 10
-26.6289
 20
14.0241
 11
-27.1791
 21
13.7216
  0
LINE
  8
0
 10
-27.1791
 20
13.7216
 11
-27.6871
 21
13.3526
  0
LINE
  8
0
 10
-27.6871
 20
13.3526
 11
-28.1448
 21
12.9227
  0
LINE
  8
0
 10
-28.1448
 20
12.9227
 11
-28.5451
 21
12.4389
  0
LINE
  8
0
 10
-28.5451
 20
12.4389
 11
-28.8815
 21
11.9088
  0
LINE
  8
0
 10
-28.8815
 20
11.9088
 11
-29.1489
 21
11.3406
  0
LINE
  8
0
 10
-29.1489
 20
11.3406
 11
-29.3429
 21
10.7434
  0
LINE
  8
0
 10
-29.3429
 20
10.7434
 11
-29.4606
 21
10.1267
  0
LINE
  8
0
 10
-29.4606
 20
10.1267
 11
-29.5
 21
9.5
  0
LINE
  8
0
 10
-29.5
 20
9.5
 11
-29.5
 21
-9.5
  0
LINE
  8
0
 10
-29.5
 20
-9.5
 11
-29.4606
 21
-10.1267
  0
LINE
  8
0
 10
-29.4606
 20
-10.1267
 11
-29.3429
 21
-10.7434
  0
LINE
  8
0
 10
-29.3429
 20
-10.7434
 11
-29.1489
 21
-11.3406
  0
LINE
  8
0
 10
-29.1489
 20
-11.3406
 11
-28.8815
 21
-11.9088
  0
LINE
  8
0
 10
-28.8815
 20
-11.9088
 11
-28.5451
 21
-12.4389
  0
LINE
  8
0
 10
-28.5451
 20
-12.4389
 11
-28.1448
 21
-12.9227
  0
LINE
  8
0
 10
-28.1448
 20
-12.9227
 11
-27.6871
 21
-13.3526
  0
LINE
  8
0
 10
-27.6871
 20
-13.3526
 11
-27.1791
 21
-13.7216
  0
LINE
  8
0
 10
-27.1791
 20
-13.7216
 11
-26.6289
 21
-14.0241
  0
LINE
  8
0
 10
-26.6289
 20
-14.0241
 11
-26.0451
 21
-14.2553
  0
LINE
  8
0
 10
-26.0451
 20
-14.2553
 11
-25.4369
 21
-14.4114
  0
LINE
  8
0
 10
-25.4369
 20
-14.4114
 11
-24.8139
 21
-14.4901
  0
LINE
  8
0
 10
-24.8139
 20
-14.4901
 11
24.8139
 21
-14.4901
  0
LINE
  8
0
 10
24.8139
 20
-14.4901
 11
25.4369
 21
-14.4114
  0
LINE
  8
0
 10
-22.6884
 20
4.50591
 11
-23.0621
 21
4.55313
  0
LINE
  8
0
 10
-23.0621
 20
4.55313
 11
-23.427
 21
4.64682
  0
LINE
  8
0
 10
-23.427
 20
4.64682
 11
-23.7773
 21
4.78551
  0
LINE
  8
0
 10
-23.7773
 20
4.78551
 11
-24.1075
 21
4.96701
  0
LINE
  8
0
 10
-24.1075
 20
4.96701
 11
-24.4123
 21
5.18845
  0
LINE
  8
0
 10
-24.4123
 20
5.18845
 11
-24.6869
 21
5.44635
  0
LINE
  8
0
 10
-24.6869
 20
5.44635
 11
-24.927
 21
5.73663
  0
LINE
  8
0
 10
-24.927
 20
5.73663
 11
-25.1289
 21
6.05473
  0
LINE
  8
0
 10
-25.1289
 20
6.05473
 11
-25.2893
 21
6.39561
  0
LINE
  8
0
 10
-25.2893
 20
6.39561
 11
-25.4057
 21
6.75392
  0
LINE
  8
0
 10
-25.4057
 20
6.75392
 11
-25.4763
 21
7.12399
  0
LINE
  8
0
 10
-25.4763
 20
7.12399
 11
-25.5
 21
7.5
  0
LINE
  8
0
 10
-25.5
 20
7.5
 11
-25.4763
 21
7.87599
  0
LINE
  8
0
 10
-25.4763
 20
7.87599
 11
-25.4057
 21
8.24606
  0
LINE
  8
0
 10
-25.4057
 20
8.24606
 11
-25.2893
 21
8.60437
  0
LINE
  8
0
 10
-25.2893
 20
8.60437
 11
-25.1289
 21
8.94525
  0
LINE
  8
0
 10
-25.1289
 20
8.94525
 11
-24.927
 21
9.26335
  0
LINE
  8
0
 10
-24.927
 20
9.26335
 11
-24.6869
 21
9.55363
  0
LINE
  8
0
 10
-24.6869
 20
9.55363
 11
-24.4123
 21
9.81154
  0
LINE
  8
0
 10
-24.4123
 20
9.81154
 11
-24.1075
 21
10.033
  0
LINE
  8
0
 10
-24.1075
 20
10.033
 11
-23.7773
 21
10.2145
  0
LINE
  8
0
 10
-23.7773
 20
10.2145
 11
-23.427
 21
10.3532
  0
LINE
  8
0
 10
-23.427
 20
10.3532
 11
-23.0621
 21
10.4469
  0
LINE
  8
0
 10
-23.0621
 20
10.4469
 11
-22.6884
 21
10.4941
  0
LINE
  8
0
 10
-22.6884
 20
10.4941
 11
-22.3116
 21
10.4941
  0
LINE
  8
0
 10
-22.3116
 20
10.4941
 11
-21.9379
 21
10.4469
  0
LINE
  8
0
 10
-21.9379
 20
10.4469
 11
-21.5729
 21
10.3532
  0
LINE
  8
0
 10
-21.5729
 20
10.3532
 11
-21.2227
 21
10.2145
  0
LINE
  8
0
 10
-21.2227
 20
10.2145
 11
-20.8925
 21
10.033
  0
LINE
  8
0
 10
-20.8925
 20
10.033
 11
-20.5877
 21
9.81154
  0
LINE
  8
0
 10
-20.5877
 20
9.81154
 11
-20.3131
 21
9.55363
  0
LINE
  8
0
 10
-20.3131
 20
9.55363
 11
-20.0729
 21
9.26335
  0
LINE
  8
0
 10
-20.0729
 20
9.26335
 11
-19.8711
 21
8.94525
  0
LINE
  8
0
 10
-19.8711
 20
8.94525
 11
-19.7107
 21
8.60437
  0
LINE
  8
0
 10
-19.7107
 20
8.60437
 11
-19.5942
 21
8.24606
  0
LINE
  8
0
 10
-19.5942
 20
8.24606
 11
-19.5237
 21
7.87599
  0
LINE
  8
0
 10
-19.5237
 20
7.87599
 11
-19.5
 21
7.5
  0
LINE
  8
0
 10
-19.5
 20
7.5
 11
-19.5237
 21
7.12399
  0
LINE
  8
0
 10
-19.5237
 20
7.12399
 11
-19.5942
 21
6.75392
  0
LINE
  8
0
 10
-19.5942
 20
6.75392
 11
-19.7107
 21
6.39561
  0
LINE
  8
0
 10
-19.7107
 20
6.39561
 11
-19.8711
 21
6.05473
  0
LINE
  8
0
 10
-19.8711
 20
6.05473
 11
-20.0729
 21
5.73663
  0
LINE
  8
0
 10
-20.0729
 20
5.73663
 11
-20.3131
 21
5.44635
  0
LINE
  8
0
 10
-20.3131
 20
5.44635
 11
-20.5877
 21
5.18845
  0
LINE
  8
0
 10
-20.5877
 20
5.18845
 11
-20.8925
 21
4.96701
  0
LINE
  8
0
 10
-20.8925
 20
4.96701
 11
-21.2227
 21
4.78551
  0
LINE
  8
0
 10
-21.2227
 20
4.78551
 11
-21.5729
 21
4.64682
  0
LINE
  8
0
 10
-21.5729
 20
4.64682
 11
-21.9379
 21
4.55313
  0
LINE
  8
0
 10
-21.9379
 20
4.55313
 11
-22.3116
 21
4.50591
  0
LINE
  8
0
 10
-22.3116
 20
4.50591
 11
-22.6884
 21
4.50591
  0
LINE
  8
0
 10
22.3116
 20
4.50591
 11
21.9379
 21
4.55313
  0
LINE
  8
0
 10
21.9379
 20
4.55313
 11
21.5729
 21
4.64682
  0
LINE
  8
0
 10
21.5729
 20
4.64682
 11
21.2227
 21
4.78551
  0
LINE
  8
0
 10
21.2227
 20
4.78551
 11
20.8925
 21
4.96701
  0
LINE
  8
0
 10
20.8925
 20
4.96701
 11
20.5877
 21
5.18845
  0
LINE
  8
0
 10
20.5877
 20
5.18845
 11
20.3131
 21
5.44635
  0
LINE
  8
0
 10
20.3131
 20
5.44635
 11
20.0729
 21
5.73663
  0
LINE
  8
0
 10
20.0729
 20
5.73663
 11
19.8711
 21
6.05473
  0
LINE
  8
0
 10
19.8711
 20
6.05473
 11
19.7107
 21
6.39561
  0
LINE
  8
0
 10
19.7107
 20
6.39561
 11
19.5942
 21
6.75392
  0
LINE
  8
0
 10
19.5942
 20
6.75392
 11
19.5237
 21
7.12399
  0
LINE
  8
0
 10
19.5237
 20
7.12399
 11
19.5
 21
7.5
  0
LINE
  8
0
 10
19.5
 20
7.5
 11
19.5237
 21
7.87599
  0
LINE
  8
0
 10
19.5237
 20
7.87599
 11
19.5942
 21
8.24606
  0
LINE
  8
0
 10
19.5942
 20
8.24606
 11
19.7107
 21
8.60437
  0
LINE
  8
0
 10
19.7107
 20
8.60437
 11
19.8711
 21
8.94525
  0
LINE
  8
0
 10
19.8711
 20
8.94525
 11
20.0729
 21
9.26335
  0
LINE
  8
0
 10
20.0729
 20
9.26335
 11
20.3131
 21
9.55363
  0
LINE
  8
0
 10
20.3131
 20
9.55363
 11
20.5877
 21
9.81154
  0
LINE
  8
0
 10
20.5877
 20
9.81154
 11
20.8925
 21
10.033
  0
LINE
  8
0
 10
20.8925
 20
10.033
 11
21.2227
 21
10.2145
  0
LINE
  8
0
 10
21.2227
 20
10.2145
 11
21.5729
 21
10.3532
  0
LINE
  8
0
 10
21.5729
 20
10.3532
 11
21.9379
 21
10.4469
  0
LINE
  8
0
 10
21.9379
 20
10.4469
 11
22.3116
 21
10.4941
  0
LINE
  8
0
 10
22.3116
 20
10.4941
 11
22.6884
 21
10.4941
  0
LINE
  8
0
 10
22.6884
 20
10.4941
 11
23.0621
 21
10.4469
  0
LINE
  8
0
 10
23.0621
 20
10.4469
 11
23.427
 21
10.3532
  0
LINE
  8
0
 10
23.427
 20
10.3532
 11
23.7773
 21
10.2145
  0
LINE
  8
0
 10
23.7773
 20
10.2145
 11
24.1075
 21
10.033
  0
LINE
  8
0
 10
24.1075
 20
10.033
 11
24.4123
 21
9.81154
  0
LINE
  8
0
 10
24.4123
 20
9.81154
 11
24.6869
 21
9.55363
  0
LINE
  8
0
 10
24.6869
 20
9.55363
 11
24.927
 21
9.26335
  0
LINE
  8
0
 10
24.927
 20
9.26335
 11
25.1289
 21
8.94525
  0
LINE
  8
0
 10
25.1289
 20
8.94525
 11
25.2893
 21
8.60437
  0
LINE
  8
0
 10
25.2893
 20
8.60437
 11
25.4057
 21
8.24606
  0
LINE
  8
0
 10
25.4057
 20
8.24606
 11
25.4763
 21
7.87599
  0
LINE
  8
0
 10
25.4763
 20
7.87599
 11
25.5
 21
7.5
  0
LINE
  8
0
 10
25.5
 20
7.5
 11
25.4763
 21
7.12399
  0
LINE
  8
0
 10
25.4763
 20
7.12399
 11
25.4057
 21
6.75392
  0
LINE
  8
0
 10
25.4057
 20
6.75392
 11
25.2893
 21
6.39561
  0
LINE
  8
0
 10
25.2893
 20
6.39561
 11
25.1289
 21
6.05473
  0
LINE
  8
0
 10
25.1289
 20
6.05473
 11
24.927
 21
5.73663
  0
LINE
  8
0
 10
24.927
 20
5.73663
 11
24.6869
 21
5.44635
  0
LINE
  8
0
 10
24.6869
 20
5.44635
 11
24.4123
 21
5.18845
  0
LINE
  8
0
 10
24.4123
 20
5.18845
 11
24.1075
 21
4.96701
  0
LINE
  8
0
 10
24.1075
 20
4.96701
 11
23.7773
 21
4.78551
  0
LINE
  8
0
 10
23.7773
 20
4.78551
 11
23.427
 21
4.64682
  0
LINE
  8
0
 10
23.427
 20
4.64682
 11
23.0621
 21
4.55313
  0
LINE
  8
0
 10
23.0621
 20
4.55313
 11
22.6884
 21
4.50591
  0
LINE
  8
0
 10
22.6884
 20
4.50591
 11
22.3116
 21
4.50591
  0
LINE
  8
0
 10
-12.5965
 20
-9.48125
 11
-13.7801
 21
-9.33173
  0
LINE
  8
0
 10
-13.7801
 20
-9.33173
 11
-14.9357
 21
-9.03503
  0
LINE
  8
0
 10
-14.9357
 20
-9.03503
 11
-16.0449
 21
-8.59586
  0
LINE
  8
0
 10
-16.0449
 20
-8.59586
 11
-17.0903
 21
-8.0211
  0
LINE
  8
0
 10
-17.0903
 20
-8.0211
 11
-18.0555
 21
-7.31987
  0
LINE
  8
0
 10
-18.0555
 20
-7.31987
 11
-18.9252
 21
-6.50319
  0
LINE
  8
0
 10
-18.9252
 20
-6.50319
 11
-19.6857
 21
-5.58395
  0
LINE
  8
0
 10
-19.6857
 20
-5.58395
 11
-20.3249
 21
-4.57664
  0
LINE
  8
0
 10
-20.3249
 20
-4.57664
 11
-20.8329
 21
-3.49718
  0
LINE
  8
0
 10
-20.8329
 20
-3.49718
 11
-21.2015
 21
-2.36255
  0
LINE
  8
0
 10
-21.2015
 20
-2.36255
 11
-21.4251
 21
-1.19066
  0
LINE
  8
0
 10
-21.4251
 20
-1.19066
 11
-21.5
 21
0
  0
LINE
  8
0
 10
-21.5
 20
0
 11
-21.4251
 21
1.19066
  0
LINE
  8
0
 10
-21.4251
 20
1.19066
 11
-21.2015
 21
2.36255
  0
LINE
  8
0
 10
-21.2015
 20
2.36255
 11
-20.8329
 21
3.49718
  0
LINE
  8
0
 10
-20.8329
 20
3.49718
 11
-20.3249
 21
4.57664
  0
LINE
  8
0
 10
-20.3249
 20
4.57664
 11
-19.6857
 21
5.58395
  0
LINE
  8
0
 10
-19.6857
 20
5.58395
 11
-18.9252
 21
6.50319
  0
LINE
  8
0
 10
-18.9252
 20
6.50319
 11
-18.0555
 21
7.31987
  0
LINE
  8
0
 10
-18.0555
 20
7.31987
 11
-17.0903
 21
8.0211
  0
LINE
  8
0
 10
-17.0903
 20
8.0211
 11
-16.0449
 21
8.59586
  0
LINE
  8
0
 10
-16.0449
 20
8.59586
 11
-14.9357
 21
9.03503
  0
LINE
  8
0
 10
-14.9357
 20
9.03503
 11
-13.7801
 21
9.33173
  0
LINE
  8
0
 10
-13.7801
 20
9.33173
 11
-12.5965
 21
9.48125
  0
LINE
  8
0
 10
-12.5965
 20
9.48125
 11
-11.4035
 21
9.48125
  0
LINE
  8
0
 10
-11.4035
 20
9.48125
 11
-10.2199
 21
9.33173
  0
LINE
  8
0
 10
-10.2199
 20
9.33173
 11
-9.06433
 21
9.03503
  0
LINE
  8
0
 10
-9.06433
 20
9.03503
 11
-7.95509
 21
8.59586
  0
LINE
  8
0
 10
-7.95509
 20
8.59586
 11
-6.90964
 21
8.0211
  0
LINE
  8
0
 10
-6.90964
 20
8.0211
 11
-5.94446
 21
7.31987
  0
LINE
  8
0
 10
-5.94446
 20
7.31987
 11
-5.07478
 21
6.50319
  0
LINE
  8
0
 10
-5.07478
 20
6.50319
 11
-4.31433
 21
5.58395
  0
LINE
  8
0
 10
-4.31433
 20
5.58395
 11
-3.67508
 21
4.57664
  0
LINE
  8
0
 10
-3.67508
 20
4.57664
 11
-3.16711
 21
3.49718
  0
LINE
  8
0
 10
-3.16711
 20
3.49718
 11
-2.79845
 21
2.36255
  0
LINE
  8
0
 10
-2.79845
 20
2.36255
 11
-2.57491
 21
1.19066
  0
LINE
  8
0
 10
-2.57491
 20
1.19066
 11
-2.5
 21
0
  0
LINE
  8
0
 10
-2.5
 20
0
 11
-2.57491
 21
-1.19066
  0
LINE
  8
0
 10
-2.57491
 20
-1.19066
 11
-2.79845
 21
-2.36255
  0
LINE
  8
0
 10
-2.79845
 20
-2.36255
 11
-3.16711
 21
-3.49718
  0
LINE
  8
0
 10
-3.16711
 20
-3.49718
 11
-3.67508
 21
-4.57664
  0
LINE
  8
0
 10
-3.67508
 20
-4.57664
 11
-4.31433
 21
-5.58395
  0
LINE
  8
0
 10
-4.31433
 20
-5.58395
 11
-5.07478
 21
-6.50319
  0
LINE
  8
0
 10
-5.07478
 20
-6.50319
 11
-5.94446
 21
-7.31987
  0
LINE
  8
0
 10
-5.94446
 20
-7.31987
 11
-6.90964
 21
-8.0211
  0
LINE
  8
0
 10
-6.90964
 20
-8.0211
 11
-7.95509
 21
-8.59586
  0
LINE
  8
0
 10
-7.95509
 20
-8.59586
 11
-9.06433
 21
-9.03503
  0
LINE
  8
0
 10
-9.06433
 20
-9.03503
 11
-10.2199
 21
-9.33173
  0
LINE
  8
0
 10
-10.2199
 20
-9.33173
 11
-11.4035
 21
-9.48125
  0
LINE
  8
0
 10
-11.4035
 20
-9.48125
 11
-12.5965
 21
-9.48125
  0
LINE
  8
0
 10
11.4035
 20
-9.48125
 11
10.2199
 21
-9.33173
  0
LINE
  8
0
 10
10.2199
 20
-9.33173
 11
9.06433
 21
-9.03503
  0
LINE
  8
0
 10
9.06433
 20
-9.03503
 11
7.95509
 21
-8.59586
  0
LINE
  8
0
 10
7.95509
 20
-8.59586
 11
6.90964
 21
-8.0211
  0
LINE
  8
0
 10
6.90964
 20
-8.0211
 11
5.94446
 21
-7.31987
  0
LINE
  8
0
 10
5.94446
 20
-7.31987
 11
5.07478
 21
-6.50319
  0
LINE
  8
0
 10
5.07478
 20
-6.50319
 11
4.31433
 21
-5.58395
  0
LINE
  8
0
 10
4.31433
 20
-5.58395
 11
3.67508
 21
-4.57664
  0
LINE
  8
0
 10
3.67508
 20
-4.57664
 11
3.16711
 21
-3.49718
  0
LINE
  8
0
 10
3.16711
 20
-3.49718
 11
2.79845
 21
-2.36255
  0
LINE
  8
0
 10
2.79845
 20
-2.36255
 11
2.57491
 21
-1.19066
  0
LINE
  8
0
 10
2.57491
 20
-1.19066
 11
2.5
 21
0
  0
LINE
  8
0
 10
2.5
 20
0
 11
2.57491
 21
1.19066
  0
LINE
  8
0
 10
2.57491
 20
1.19066
 11
2.79845
 21
2.36255
  0
LINE
  8
0
 10
2.79845
 20
2.36255
 11
3.16711
 21
3.49718
  0
LINE
  8
0
 10
3.16711
 20
3.49718
 11
3.67508
 21
4.57664
  0
LINE
  8
0
 10
3.67508
 20
4.57664
 11
4.31433
 21
5.58395
  0
LINE
  8
0
 10
4.31433
 20
5.58395
 11
5.07478
 21
6.50319
  0
LINE
  8
0
 10
5.07478
 20
6.50319
 11
5.94446
 21
7.31987
  0
LINE
  8
0
 10
5.94446
 20
7.31987
 11
6.90964
 21
8.0211
  0
LINE
  8
0
 10
6.90964
 20
8.0211
 11
7.95509
 21
8.59586
  0
LINE
  8
0
 10
7.95509
 20
8.59586
 11
9.06433
 21
9.03503
  0
LINE
  8
0
 10
9.06433
 20
9.03503
 11
10.2199
 21
9.33173
  0
LINE
  8
0
 10
10.2199
 20
9.33173
 11
11.4035
 21
9.48125
  0
LINE
  8
0
 10
11.4035
 20
9.48125
 11
12.5965
 21
9.48125
  0
LINE
  8
0
 10
12.5965
 20
9.48125
 11
13.7801
 21
9.33173
  0
LINE
  8
0
 10
13.7801
 20
9.33173
 11
14.9357
 21
9.03503
  0
LINE
  8
0
 10
14.9357
 20
9.03503
 11
16.0449
 21
8.59586
  0
LINE
  8
0
 10
16.0449
 20
8.59586
 11
17.0903
 21
8.0211
  0
LINE
  8
0
 10
17.0903
 20
8.0211
 11
18.0555
 21
7.31987
  0
LINE
  8
0
 10
18.0555
 20
7.31987
 11
18.9252
 21
6.50319
  0
LINE
  8
0
 10
18.9252
 20
6.50319
 11
19.6857
 21
5.58395
  0
LINE
  8
0
 10
19.6857
 20
5.58395
 11
20.3249
 21
4.57664
  0
LINE
  8
0
 10
20.3249
 20
4.57664
 11
20.8329
 21
3.49718
  0
LINE
  8
0
 10
20.8329
 20
3.49718
 11
21.2015
 21
2.36255
  0
LINE
  8
0
 10
21.2015
 20
2.36255
 11
21.4251
 21
1.19066
  0
LINE
  8
0
 10
21.4251
 20
1.19066
 11
21.5
 21
0
  0
LINE
  8
0
 10
21.5
 20
0
 11
21.4251
 21
-1.19066
  0
LINE
  8
0
 10
21.4251
 20
-1.19066
 11
21.2015
 21
-2.36255
  0
LINE
  8
0
 10
21.2015
 20
-2.36255
 11
20.8329
 21
-3.49718
  0
LINE
  8
0
 10
20.8329
 20
-3.49718
 11
20.3249
 21
-4.57664
  0
LINE
  8
0
 10
20.3249
 20
-4.57664
 11
19.6857
 21
-5.58395
  0
LINE
  8
0
 10
19.6857
 20
-5.58395
 11
18.9252
 21
-6.50319
  0
LINE
  8
0
 10
18.9252
 20
-6.50319
 11
18.0555
 21
-7.31987
  0
LINE
  8
0
 10
18.0555
 20
-7.31987
 11
17.0903
 21
-8.0211
  0
LINE
  8
0
 10
17.0903
 20
-8.0211
 11
16.0449
 21
-8.59586
  0
LINE
  8
0
 10
16.0449
 20
-8.59586
 11
14.9357
 21
-9.03503
  0
LINE
  8
0
 10
14.9357
 20
-9.03503
 11
13.7801
 21
-9.33173
  0
LINE
  8
0
 10
13.7801
 20
-9.33173
 11
12.5965
 21
-9.48125
  0
LINE
  8
0
 10
12.5965
 20
-9.48125
 11
11.4035
 21
-9.48125
  0
LINE
  8
0
 10
-22.6884
 20
-10.4941
 11
-23.0621
 21
-10.4469
  0
LINE
  8
0
 10
-23.0621
 20
-10.4469
 11
-23.427
 21
-10.3532
  0
LINE
  8
0
 10
-23.427
 20
-10.3532
 11
-23.7773
 21
-10.2145
  0
LINE
  8
0
 10
-23.7773
 20
-10.2145
 11
-24.1075
 21
-10.033
  0
LINE
  8
0
 10
-24.1075
 20
-10.033
 11
-24.4123
 21
-9.81154
  0
LINE
  8
0
 10
-24.4123
 20
-9.81154
 11
-24.6869
 21
-9.55363
  0
LINE
  8
0
 10
-24.6869
 20
-9.55363
 11
-24.927
 21
-9.26335
  0
LINE
  8
0
 10
-24.927
 20
-9.26335
 11
-25.1289
 21
-8.94525
  0
LINE
  8
0
 10
-25.1289
 20
-8.94525
 11
-25.2893
 21
-8.60437
  0
LINE
  8
0
 10
-25.2893
 20
-8.60437
 11
-25.4057
 21
-8.24606
  0
LINE
  8
0
 10
-25.4057
 20
-8.24606
 11
-25.4763
 21
-7.87599
  0
LINE
  8
0
 10
-25.4763
 20
-7.87599
 11
-25.5
 21
-7.5
  0
LINE
  8
0
 10
-25.5
 20
-7.5
 11
-25.4763
 21
-7.12399
  0
LINE
  8
0
 10
-25.4763
 20
-7.12399
 11
-25.4057
 21
-6.75392
  0
LINE
  8
0
 10
-25.4057
 20
-6.75392
 11
-25.2893
 21
-6.39561
  0
LINE
  8
0
 10
-25.2893
 20
-6.39561
 11
-25.1289
 21
-6.05473
  0
LINE
  8
0
 10
-25.1289
 20
-6.05473
 11
-24.927
 21
-5.73663
  0
LINE
  8
0
 10
-24.927
 20
-5.73663
 11
-24.6869
 21
-5.44635
  0
LINE
  8
0
 10
-24.6869
 20
-5.44635
 11
-24.4123
 21
-5.18845
  0
LINE
  8
0
 10
-24.4123
 20
-5.18845
 11
-24.1075
 21
-4.96701
  0
LINE
  8
0
 10
-24.1075
 20
-4.96701
 11
-23.7773
 21
-4.78551
  0
LINE
  8
0
 10
-23.7773
 20
-4.78551
 11
-23.427
 21
-4.64682
  0
LINE
  8
0
 10
-23.427
 20
-4.64682
 11
-23.0621
 21
-4.55313
  0
LINE
  8
0
 10
-23.0621
 20
-4.55313
 11
-22.6884
 21
-4.50591
  0
LINE
  8
0
 10
-22.6884
 20
-4.50591
 11
-22.3116
 21
-4.50591
  0
LINE
  8
0
 10
-22.3116
 20
-4.50591
 11
-21.9379
 21
-4.55313
  0
LINE
  8
0
 10
-21.9379
 20
-4.55313
 11
-21.5729
 21
-4.64682
  0
LINE
  8
0
 10
-21.5729
 20
-4.64682
 11
-21.2227
 21
-4.78551
  0
LINE
  8
0
 10
-21.2227
 20
-4.78551
 11
-20.8925
 21
-4.96701
  0
LINE
  8
0
 10
-20.8925
 20
-4.96701
 11
-20.5877
 21
-5.18845
  0
LINE
  8
0
 10
-20.5877
 20
-5.18845
 11
-20.3131
 21
-5.44635
  0
LINE
  8
0
 10
-20.3131
 20
-5.44635
 11
-20.0729
 21
-5.73663
  0
LINE
  8
0
 10
-20.0729
 20
-5.73663
 11
-19.8711
 21
-6.05473
  0
LINE
  8
0
 10
-19.8711
 20
-6.05473
 11
-19.7107
 21
-6.39561
  0
LINE
  8
0
 10
-19.7107
 20
-6.39561
 11
-19.5942
 21
-6.75392
  0
LINE
  8
0
 10
-19.5942
 20
-6.75392
 11
-19.5237
 21
-7.12399
  0
LINE
  8
0
 10
-19.5237
 20
-7.12399
 11
-19.5
 21
-7.5
  0
LINE
  8
0
 10
-19.5
 20
-7.5
 11
-19.5237
 21
-7.87599
  0
LINE
  8
0
 10
-19.5237
 20
-7.87599
 11
-19.5942
 21
-8.24606
  0
LINE
  8
0
 10
-19.5942
 20
-8.24606
 11
-19.7107
 21
-8.60437
  0
LINE
  8
0
 10
-19.7107
 20
-8.60437
 11
-19.8711
 21
-8.94525
  0
LINE
  8
0
 10
-19.8711
 20
-8.94525
 11
-20.0729
 21
-9.26335
  0
LINE
  8
0
 10
-20.0729
 20
-9.26335
 11
-20.3131
 21
-9.55363
  0
LINE
  8
0
 10
-20.3131
 20
-9.55363
 11
-20.5877
 21
-9.81154
  0
LINE
  8
0
 10
-20.5877
 20
-9.81154
 11
-20.8925
 21
-10.033
  0
LINE
  8
0
 10
-20.8925
 20
-10.033
 11
-21.2227
 21
-10.2145
  0
LINE
  8
0
 10
-21.2227
 20
-10.2145
 11
-21.5729
 21
-10.3532
  0
LINE
  8
0
 10
-21.5729
 20
-10.3532
 11
-21.9379
 21
-10.4469
  0
LINE
  8
0
 10
-21.9379
 20
-10.4469
 11
-22.3116
 21
-10.4941
  0
LINE
  8
0
 10
-22.3116
 20
-10.4941
 11
-22.6884
 21
-10.4941
  0
LINE
  8
0
 10
22.3116
 20
-10.4941
 11
21.9379
 21
-10.4469
  0
LINE
  8
0
 10
21.9379
 20
-10.4469
 11
21.5729
 21
-10.3532
  0
LINE
  8
0
 10
21.5729
 20
-10.3532
 11
21.2227
 21
-10.2145
  0
LINE
  8
0
 10
21.2227
 20
-10.2145
 11
20.8925
 21
-10.033
  0
LINE
  8
0
 10
20.8925
 20
-10.033
 11
20.5877
 21
-9.81154
  0
LINE
  8
0
 10
20.5877
 20
-9.81154
 11
20.3131
 21
-9.55363
  0
LINE
  8
0
 10
20.3131
 20
-9.55363
 11
20.0729
 21
-9.26335
  0
LINE
  8
0
 10
20.0729
 20
-9.26335
 11
19.8711
 21
-8.94525
  0
LINE
  8
0
 10
19.8711
 20
-8.94525
 11
19.7107
 21
-8.60437
  0
LINE
  8
0
 10
19.7107
 20
-8.60437
 11
19.5942
 21
-8.24606
  0
LINE
  8
0
 10
19.5942
 20
-8.24606
 11
19.5237
 21
-7.87599
  0
LINE
  8
0
 10
19.5237
 20
-7.87599
 11
19.5
 21
-7.5
  0
LINE
  8
0
 10
19.5
 20
-7.5
 11
19.5237
 21
-7.12399
  0
LINE
  8
0
 10
19.5237
 20
-7.12399
 11
19.5942
 21
-6.75392
  0
LINE
  8
0
 10
19.5942
 20
-6.75392
 11
19.7107
 21
-6.39561
  0
LINE
  8
0
 10
19.7107
 20
-6.39561
 11
19.8711
 21
-6.05473
  0
LINE
  8
0
 10
19.8711
 20
-6.05473
 11
20.0729
 21
-5.73663
  0
LINE
  8
0
 10
20.0729
 20
-5.73663
 11
20.3131
 21
-5.44635
  0
LINE
  8
0
 10
20.3131
 20
-5.44635
 11
20.5877
 21
-5.18845
  0
LINE
  8
0
 10
20.5877
 20
-5.18845
 11
20.8925
 21
-4.96701
  0
LINE
  8
0
 10
20.8925
 20
-4.96701
 11
21.2227
 21
-4.78551
  0
LINE
  8
0
 10
21.2227
 20
-4.78551
 11
21.5729
 21
-4.64682
  0
LINE
  8
0
 10
21.5729
 20
-4.64682
 11
21.9379
 21
-4.55313
  0
LINE
  8
0
 10
21.9379
 20
-4.55313
 11
22.3116
 21
-4.50591
  0
LINE
  8
0
 10
22.3116
 20
-4.50591
 11
22.6884
 21
-4.50591
  0
LINE
  8
0
 10
22.6884
 20
-4.50591
 11
23.0621
 21
-4.55313
  0
LINE
  8
0
 10
23.0621
 20
-4.55313
 11
23.427
 21
-4.64682
  0
LINE
  8
0
 10
23.427
 20
-4.64682
 11
23.7773
 21
-4.78551
  0
LINE
  8
0
 10
23.7773
 20
-4.78551
 11
24.1075
 21
-4.96701
  0
LINE
  8
0
 10
24.1075
 20
-4.96701
 11
24.4123
 21
-5.18845
  0
LINE
  8
0
 10
24.4123
 20
-5.18845
 11
24.6869
 21
-5.44635
  0
LINE
  8
0
 10
24.6869
 20
-5.44635
 11
24.927
 21
-5.73663
  0
LINE
  8
0
 10
24.927
 20
-5.73663
 11
25.1289
 21
-6.05473
  0
LINE
  8
0
 10
25.1289
 20
-6.05473
 11
25.2893
 21
-6.39561
  0
LINE
  8
0
 10
25.2893
 20
-6.39561
 11
25.4057
 21
-6.75392
  0
LINE
  8
0
 10
25.4057
 20
-6.75392
 11
25.4763
 21
-7.12399
  0
LINE
  8
0
 10
25.4763
 20
-7.12399
 11
25.5
 21
-7.5
  0
LINE
  8
0
 10
25.5
 20
-7.5
 11
25.4763
 21
-7.87599
  0
LINE
  8
0
 10
25.4763
 20
-7.87599
 11
25.4057
 21
-8.24606
  0
LINE
  8
0
 10
25.4057
 20
-8.24606
 11
25.2893
 21
-8.60437
  0
LINE
  8
0
 10
25.2893
 20
-8.60437
 11
25.1289
 21
-8.94525
  0
LINE
  8
0
 10
25.1289
 20
-8.94525
 11
24.927
 21
-9.26335
  0
LINE
  8
0
 10
24.927
 20
-9.26335
 11
24.6869
 21
-9.55363
  0
LINE
  8
0
 10
24.6869
 20
-9.55363
 11
24.4123
 21
-9.81154
  0
LINE
  8
0
 10
24.4123
 20
-9.81154
 11
24.1075
 21
-10.033
  0
LINE
  8
0
 10
24.1075
 20
-10.033
 11
23.7773
 21
-10.2145
  0
LINE
  8
0
 10
23.7773
 20
-10.2145
 11
23.427
 21
-10.3532
  0
LINE
  8
0
 10
23.427
 20
-10.3532
 11
23.0621
 21
-10.4469
  0
LINE
  8
0
 10
23.0621
 20
-10.4469
 11
22.6884
 21
-10.4941
  0
LINE
  8
0
 10
22.6884
 20
-10.4941
 11
22.3116
 21
-10.4941
  0
ENDSEC
  0
SECTION
  2
OBJECTS
  0
DICTIONARY
  0
ENDSEC
  0
EOF
