<?xml version="1.0" standalone="no"?>
<!DOCTYPE svg PUBLIC "-//W3C//DTD SVG 1.1//EN" "http://www.w3.org/Graphics/SVG/1.1/DTD/svg11.dtd">
<svg width="44mm" height="14mm" viewBox="-22 -31 44 14" xmlns="http://www.w3.org/2000/svg" version="1.1">
<title>OpenSCAD Model</title>
<path d="
M 17.9369,-17.0886 L 18.5451,-17.2447 L 19.1289,-17.4759 L 19.6791,-17.7784 L 20.1871,-18.1474 L 20.6448,-18.5773
 L 21.0451,-19.0611 L 21.3815,-19.5912 L 21.6489,-20.1594 L 21.8429,-20.7566 L 21.9606,-21.3733 L 22,-22
 L 22,-26 L 21.9606,-26.6267 L 21.8429,-27.2434 L 21.6489,-27.8406 L 21.3815,-28.4088 L 21.0451,-28.9389
 L 20.6448,-29.4227 L 20.1871,-29.8526 L 19.6791,-30.2216 L 19.1289,-30.5241 L 18.5451,-30.7553 L 17.9369,-30.9114
 L 17.3139,-30.9901 L -17.3139,-30.9901 L -17.9369,-30.9114 L -18.5451,-30.7553 L -19.1289,-30.5241 L -19.6791,-30.2216
 L -20.1871,-29.8526 L -20.6448,-29.4227 L -21.0451,-28.9389 L -21.3815,-28.4088 L -21.6489,-27.8406 L -21.8429,-27.2434
 L -21.9606,-26.6267 L -22,-26 L -22,-22 L -21.9606,-21.3733 L -21.8429,-20.7566 L -21.6489,-20.1594
 L -21.3815,-19.5912 L -21.0451,-19.0611 L -20.6448,-18.5773 L -20.1871,-18.1474 L -19.6791,-17.7784 L -19.1289,-17.4759
 L -18.5451,-17.2447 L -17.9369,-17.0886 L -17.3139,-17.0099 L 17.3139,-17.0099 z
M -12.2198,-20.5069 L -12.6558,-20.562 L -13.0816,-20.6713 L -13.4902,-20.8331 L -13.8754,-21.0449 L -14.0359,-21.1615
 L -14.0729,-21.1468 L -14.4379,-21.0531 L -14.8116,-21.0059 L -15.1884,-21.0059 L -15.5621,-21.0531 L -15.927,-21.1468
 L -16.2773,-21.2855 L -16.6075,-21.467 L -16.9123,-21.6885 L -17.1869,-21.9464 L -17.427,-22.2366 L -17.6289,-22.5547
 L -17.7893,-22.8956 L -17.9057,-23.2539 L -17.9763,-23.624 L -18,-24 L -17.9763,-24.376 L -17.9057,-24.7461
 L -17.7893,-25.1044 L -17.6289,-25.4453 L -17.427,-25.7634 L -17.1869,-26.0536 L -16.9123,-26.3115 L -16.6075,-26.533
 L -16.2773,-26.7145 L -15.927,-26.8532 L -15.5621,-26.9469 L -15.1884,-26.9941 L -14.8116,-26.9941 L -14.4379,-26.9469
 L -14.0729,-26.8532 L -14.0359,-26.8385 L -13.8754,-26.9551 L -13.4902,-27.1669 L -13.0816,-27.3287 L -12.6558,-27.438
 L -12.2198,-27.4931 L -11.7802,-27.4931 L -11.3442,-27.438 L -10.9184,-27.3287 L -10.5098,-27.1669 L -10.1246,-26.9551
 L -9.76901,-26.6968 L -9.44861,-26.3959 L -9.16843,-26.0572 L -8.93292,-25.6861 L -8.74577,-25.2884 L -8.60995,-24.8704
 L -8.52759,-24.4387 L -8.5,-24 L -8.52759,-23.5613 L -8.60995,-23.1296 L -8.74577,-22.7116 L -8.93292,-22.3139
 L -9.16843,-21.9428 L -9.44861,-21.6041 L -9.76901,-21.3032 L -10.1246,-21.0449 L -10.5098,-20.8331 L -10.9184,-20.6713
 L -11.3442,-20.562 L -11.7802,-20.5069 z
M -0.219757,-20.5069 L -0.655823,-20.562 L -1.08156,-20.6713 L -1.49022,-20.8331 L -1.87538,-21.0449 L -2.23097,-21.3032
 L -2.55138,-21.6041 L -2.83156,-21.9428 L -3.06706,-22.3139 L -3.25421,-22.7116 L -3.39003,-23.1296 L -3.4724,-23.5613
 L -3.5,-24 L -3.4724,-24.4387 L -3.39003,-24.8704 L -3.25421,-25.2884 L -3.06706,-25.6861 L -2.83156,-26.0572
 L -2.55138,-26.3959 L -2.23097,-26.6968 L -1.87538,-26.9551 L -1.49022,-27.1669 L -1.08156,-27.3287 L -0.655823,-27.438
 L -0.219757,-27.4931 L 0.219757,-27.4931 L 0.655823,-27.438 L 1.08156,-27.3287 L 1.49022,-27.1669 L 1.87538,-26.9551
 L 2.23097,-26.6968 L 2.55138,-26.3959 L 2.83156,-26.0572 L 3.06706,-25.6861 L 3.25421,-25.2884 L 3.39003,-24.8704
 L 3.4724,-24.4387 L 3.5,-24 L 3.4724,-23.5613 L 3.39003,-23.1296 L 3.25421,-22.7116 L 3.06706,-22.3139
 L 2.83156,-21.9428 L 2.55138,-21.6041 L 2.23097,-21.3032 L 1.87538,-21.0449 L 1.49022,-20.8331 L 1.08156,-20.6713
 L 0.655823,-20.562 L 0.219757,-20.5069 z
M 11.7802,-20.5069 L 11.3442,-20.562 L 10.9184,-20.6713 L 10.5098,-20.8331 L 10.1246,-21.0449 L 9.76901,-21.3032
 L 9.44861,-21.6041 L 9.16843,-21.9428 L 8.93292,-22.3139 L 8.74577,-22.7116 L 8.60995,-23.1296 L 8.52759,-23.5613
 L 8.5,-24 L 8.52759,-24.4387 L 8.60995,-24.8704 L 8.74577,-25.2884 L 8.93292,-25.6861 L 9.16843,-26.0572
 L 9.44861,-26.3959 L 9.76901,-26.6968 L 10.1246,-26.9551 L 10.5098,-27.1669 L 10.9184,-27.3287 L 11.3442,-27.438
 L 11.7802,-27.4931 L 12.2198,-27.4931 L 12.6558,-27.438 L 13.0816,-27.3287 L 13.4902,-27.1669 L 13.8754,-26.9551
 L 14.0359,-26.8385 L 14.0729,-26.8532 L 14.4379,-26.9469 L 14.8116,-26.9941 L 15.1884,-26.9941 L 15.5621,-26.9469
 L 15.927,-26.8532 L 16.2773,-26.7145 L 16.6075,-26.533 L 16.9123,-26.3115 L 17.1869,-26.0536 L 17.427,-25.7634
 L 17.6289,-25.4453 L 17.7893,-25.1044 L 17.9057,-24.7461 L 17.9763,-24.376 L 18,-24 L 17.9763,-23.624
 L 17.9057,-23.2539 L 17.7893,-22.8956 L 17.6289,-22.5547 L 17.427,-22.2366 L 17.1869,-21.9464 L 16.9123,-21.6885
 L 16.6075,-21.467 L 16.2773,-21.2855 L 15.927,-21.1468 L 15.5621,-21.0531 L 15.1884,-21.0059 L 14.8116,-21.0059
 L 14.4379,-21.0531 L 14.0729,-21.1468 L 14.0359,-21.1615 L 13.8754,-21.0449 L 13.4902,-20.8331 L 13.0816,-20.6713
 L 12.6558,-20.562 L 12.2198,-20.5069 z
" stroke="black" fill="lightgray" stroke-width="0.5"/>
</svg>
