  0
SECTION
  2
BLOCKS
  0
ENDSEC
  0
SECTION
  2
ENTITIES
  0
LINE
  8
0
 10
92.9369
 20
32.0886
 11
93.5451
 21
32.2447
  0
LINE
  8
0
 10
93.5451
 20
32.2447
 11
94.1289
 21
32.4759
  0
LINE
  8
0
 10
94.1289
 20
32.4759
 11
94.6791
 21
32.7784
  0
LINE
  8
0
 10
94.6791
 20
32.7784
 11
95.1871
 21
33.1474
  0
LINE
  8
0
 10
95.1871
 20
33.1474
 11
95.6448
 21
33.5773
  0
LINE
  8
0
 10
95.6448
 20
33.5773
 11
96.0451
 21
34.0611
  0
LINE
  8
0
 10
96.0451
 20
34.0611
 11
96.3815
 21
34.5912
  0
LINE
  8
0
 10
96.3815
 20
34.5912
 11
96.6489
 21
35.1594
  0
LINE
  8
0
 10
96.6489
 20
35.1594
 11
96.8429
 21
35.7566
  0
LINE
  8
0
 10
96.8429
 20
35.7566
 11
96.9606
 21
36.3733
  0
LINE
  8
0
 10
96.9606
 20
36.3733
 11
97
 21
37
  0
LINE
  8
0
 10
97
 20
37
 11
97
 21
71
  0
LINE
  8
0
 10
97
 20
71
 11
96.9606
 21
71.6267
  0
LINE
  8
0
 10
96.9606
 20
71.6267
 11
96.8429
 21
72.2434
  0
LINE
  8
0
 10
96.8429
 20
72.2434
 11
96.6489
 21
72.8406
  0
LINE
  8
0
 10
96.6489
 20
72.8406
 11
96.3815
 21
73.4088
  0
LINE
  8
0
 10
96.3815
 20
73.4088
 11
96.0451
 21
73.9389
  0
LINE
  8
0
 10
96.0451
 20
73.9389
 11
95.6448
 21
74.4227
  0
LINE
  8
0
 10
95.6448
 20
74.4227
 11
95.1871
 21
74.8526
  0
LINE
  8
0
 10
95.1871
 20
74.8526
 11
94.6791
 21
75.2216
  0
LINE
  8
0
 10
94.6791
 20
75.2216
 11
94.1289
 21
75.5241
  0
LINE
  8
0
 10
94.1289
 20
75.5241
 11
93.5451
 21
75.7553
  0
LINE
  8
0
 10
93.5451
 20
75.7553
 11
92.9369
 21
75.9114
  0
LINE
  8
0
 10
92.9369
 20
75.9114
 11
92.3139
 21
75.9901
  0
LINE
  8
0
 10
92.3139
 20
75.9901
 11
-92.3139
 21
75.9901
  0
LINE
  8
0
 10
-92.3139
 20
75.9901
 11
-92.9369
 21
75.9114
  0
LINE
  8
0
 10
-92.9369
 20
75.9114
 11
-93.5451
 21
75.7553
  0
LINE
  8
0
 10
-93.5451
 20
75.7553
 11
-94.1289
 21
75.5241
  0
LINE
  8
0
 10
-94.1289
 20
75.5241
 11
-94.6791
 21
75.2216
  0
LINE
  8
0
 10
-94.6791
 20
75.2216
 11
-95.1871
 21
74.8526
  0
LINE
  8
0
 10
-95.1871
 20
74.8526
 11
-95.6448
 21
74.4227
  0
LINE
  8
0
 10
-95.6448
 20
74.4227
 11
-96.0451
 21
73.9389
  0
LINE
  8
0
 10
-96.0451
 20
73.9389
 11
-96.3815
 21
73.4088
  0
LINE
  8
0
 10
-96.3815
 20
73.4088
 11
-96.6489
 21
72.8406
  0
LINE
  8
0
 10
-96.6489
 20
72.8406
 11
-96.8429
 21
72.2434
  0
LINE
  8
0
 10
-96.8429
 20
72.2434
 11
-96.9606
 21
71.6267
  0
LINE
  8
0
 10
-96.9606
 20
71.6267
 11
-97
 21
71
  0
LINE
  8
0
 10
-97
 20
71
 11
-97
 21
37
  0
LINE
  8
0
 10
-97
 20
37
 11
-96.9606
 21
36.3733
  0
LINE
  8
0
 10
-96.9606
 20
36.3733
 11
-96.8429
 21
35.7566
  0
LINE
  8
0
 10
-96.8429
 20
35.7566
 11
-96.6489
 21
35.1594
  0
LINE
  8
0
 10
-96.6489
 20
35.1594
 11
-96.3815
 21
34.5912
  0
LINE
  8
0
 10
-96.3815
 20
34.5912
 11
-96.0451
 21
34.0611
  0
LINE
  8
0
 10
-96.0451
 20
34.0611
 11
-95.6448
 21
33.5773
  0
LINE
  8
0
 10
-95.6448
 20
33.5773
 11
-95.1871
 21
33.1474
  0
LINE
  8
0
 10
-95.1871
 20
33.1474
 11
-94.6791
 21
32.7784
  0
LINE
  8
0
 10
-94.6791
 20
32.7784
 11
-94.1289
 21
32.4759
  0
LINE
  8
0
 10
-94.1289
 20
32.4759
 11
-93.5451
 21
32.2447
  0
LINE
  8
0
 10
-93.5451
 20
32.2447
 11
-92.9369
 21
32.0886
  0
LINE
  8
0
 10
-92.9369
 20
32.0886
 11
-92.3139
 21
32.0099
  0
LINE
  8
0
 10
-92.3139
 20
32.0099
 11
92.3139
 21
32.0099
  0
LINE
  8
0
 10
92.3139
 20
32.0099
 11
92.9369
 21
32.0886
  0
LINE
  8
0
 10
-90.1884
 20
66.0059
 11
-90.5621
 21
66.0531
  0
LINE
  8
0
 10
-90.5621
 20
66.0531
 11
-90.927
 21
66.1468
  0
LINE
  8
0
 10
-90.927
 20
66.1468
 11
-91.2773
 21
66.2855
  0
LINE
  8
0
 10
-91.2773
 20
66.2855
 11
-91.6075
 21
66.467
  0
LINE
  8
0
 10
-91.6075
 20
66.467
 11
-91.9123
 21
66.6884
  0
LINE
  8
0
 10
-91.9123
 20
66.6884
 11
-92.1869
 21
66.9464
  0
LINE
  8
0
 10
-92.1869
 20
66.9464
 11
-92.427
 21
67.2366
  0
LINE
  8
0
 10
-92.427
 20
67.2366
 11
-92.6289
 21
67.5547
  0
LINE
  8
0
 10
-92.6289
 20
67.5547
 11
-92.7893
 21
67.8956
  0
LINE
  8
0
 10
-92.7893
 20
67.8956
 11
-92.9057
 21
68.2539
  0
LINE
  8
0
 10
-92.9057
 20
68.2539
 11
-92.9763
 21
68.624
  0
LINE
  8
0
 10
-92.9763
 20
68.624
 11
-93
 21
69
  0
LINE
  8
0
 10
-93
 20
69
 11
-92.9763
 21
69.376
  0
LINE
  8
0
 10
-92.9763
 20
69.376
 11
-92.9057
 21
69.7461
  0
LINE
  8
0
 10
-92.9057
 20
69.7461
 11
-92.7893
 21
70.1044
  0
LINE
  8
0
 10
-92.7893
 20
70.1044
 11
-92.6289
 21
70.4453
  0
LINE
  8
0
 10
-92.6289
 20
70.4453
 11
-92.427
 21
70.7634
  0
LINE
  8
0
 10
-92.427
 20
70.7634
 11
-92.1869
 21
71.0536
  0
LINE
  8
0
 10
-92.1869
 20
71.0536
 11
-91.9123
 21
71.3115
  0
LINE
  8
0
 10
-91.9123
 20
71.3115
 11
-91.6075
 21
71.533
  0
LINE
  8
0
 10
-91.6075
 20
71.533
 11
-91.2773
 21
71.7145
  0
LINE
  8
0
 10
-91.2773
 20
71.7145
 11
-90.927
 21
71.8532
  0
LINE
  8
0
 10
-90.927
 20
71.8532
 11
-90.5621
 21
71.9469
  0
LINE
  8
0
 10
-90.5621
 20
71.9469
 11
-90.1884
 21
71.9941
  0
LINE
  8
0
 10
-90.1884
 20
71.9941
 11
-89.8116
 21
71.9941
  0
LINE
  8
0
 10
-89.8116
 20
71.9941
 11
-89.4379
 21
71.9469
  0
LINE
  8
0
 10
-89.4379
 20
71.9469
 11
-89.073
 21
71.8532
  0
LINE
  8
0
 10
-89.073
 20
71.8532
 11
-88.7227
 21
71.7145
  0
LINE
  8
0
 10
-88.7227
 20
71.7145
 11
-88.3925
 21
71.533
  0
LINE
  8
0
 10
-88.3925
 20
71.533
 11
-88.0877
 21
71.3115
  0
LINE
  8
0
 10
-88.0877
 20
71.3115
 11
-87.8131
 21
71.0536
  0
LINE
  8
0
 10
-87.8131
 20
71.0536
 11
-87.573
 21
70.7634
  0
LINE
  8
0
 10
-87.573
 20
70.7634
 11
-87.3711
 21
70.4453
  0
LINE
  8
0
 10
-87.3711
 20
70.4453
 11
-87.2107
 21
70.1044
  0
LINE
  8
0
 10
-87.2107
 20
70.1044
 11
-87.0943
 21
69.7461
  0
LINE
  8
0
 10
-87.0943
 20
69.7461
 11
-87.0237
 21
69.376
  0
LINE
  8
0
 10
-87.0237
 20
69.376
 11
-87
 21
69
  0
LINE
  8
0
 10
-87
 20
69
 11
-87.0237
 21
68.624
  0
LINE
  8
0
 10
-87.0237
 20
68.624
 11
-87.0943
 21
68.2539
  0
LINE
  8
0
 10
-87.0943
 20
68.2539
 11
-87.2107
 21
67.8956
  0
LINE
  8
0
 10
-87.2107
 20
67.8956
 11
-87.3711
 21
67.5547
  0
LINE
  8
0
 10
-87.3711
 20
67.5547
 11
-87.573
 21
67.2366
  0
LINE
  8
0
 10
-87.573
 20
67.2366
 11
-87.8131
 21
66.9464
  0
LINE
  8
0
 10
-87.8131
 20
66.9464
 11
-88.0877
 21
66.6884
  0
LINE
  8
0
 10
-88.0877
 20
66.6884
 11
-88.3925
 21
66.467
  0
LINE
  8
0
 10
-88.3925
 20
66.467
 11
-88.7227
 21
66.2855
  0
LINE
  8
0
 10
-88.7227
 20
66.2855
 11
-89.073
 21
66.1468
  0
LINE
  8
0
 10
-89.073
 20
66.1468
 11
-89.4379
 21
66.0531
  0
LINE
  8
0
 10
-89.4379
 20
66.0531
 11
-89.8116
 21
66.0059
  0
LINE
  8
0
 10
-89.8116
 20
66.0059
 11
-90.1884
 21
66.0059
  0
LINE
  8
0
 10
89.8116
 20
66.0059
 11
89.4379
 21
66.0531
  0
LINE
  8
0
 10
89.4379
 20
66.0531
 11
89.073
 21
66.1468
  0
LINE
  8
0
 10
89.073
 20
66.1468
 11
88.7227
 21
66.2855
  0
LINE
  8
0
 10
88.7227
 20
66.2855
 11
88.3925
 21
66.467
  0
LINE
  8
0
 10
88.3925
 20
66.467
 11
88.0877
 21
66.6884
  0
LINE
  8
0
 10
88.0877
 20
66.6884
 11
87.8131
 21
66.9464
  0
LINE
  8
0
 10
87.8131
 20
66.9464
 11
87.573
 21
67.2366
  0
LINE
  8
0
 10
87.573
 20
67.2366
 11
87.3711
 21
67.5547
  0
LINE
  8
0
 10
87.3711
 20
67.5547
 11
87.2107
 21
67.8956
  0
LINE
  8
0
 10
87.2107
 20
67.8956
 11
87.0943
 21
68.2539
  0
LINE
  8
0
 10
87.0943
 20
68.2539
 11
87.0237
 21
68.624
  0
LINE
  8
0
 10
87.0237
 20
68.624
 11
87
 21
69
  0
LINE
  8
0
 10
87
 20
69
 11
87.0237
 21
69.376
  0
LINE
  8
0
 10
87.0237
 20
69.376
 11
87.0943
 21
69.7461
  0
LINE
  8
0
 10
87.0943
 20
69.7461
 11
87.2107
 21
70.1044
  0
LINE
  8
0
 10
87.2107
 20
70.1044
 11
87.3711
 21
70.4453
  0
LINE
  8
0
 10
87.3711
 20
70.4453
 11
87.573
 21
70.7634
  0
LINE
  8
0
 10
87.573
 20
70.7634
 11
87.8131
 21
71.0536
  0
LINE
  8
0
 10
87.8131
 20
71.0536
 11
88.0877
 21
71.3115
  0
LINE
  8
0
 10
88.0877
 20
71.3115
 11
88.3925
 21
71.533
  0
LINE
  8
0
 10
88.3925
 20
71.533
 11
88.7227
 21
71.7145
  0
LINE
  8
0
 10
88.7227
 20
71.7145
 11
89.073
 21
71.8532
  0
LINE
  8
0
 10
89.073
 20
71.8532
 11
89.4379
 21
71.9469
  0
LINE
  8
0
 10
89.4379
 20
71.9469
 11
89.8116
 21
71.9941
  0
LINE
  8
0
 10
89.8116
 20
71.9941
 11
90.1884
 21
71.9941
  0
LINE
  8
0
 10
90.1884
 20
71.9941
 11
90.5621
 21
71.9469
  0
LINE
  8
0
 10
90.5621
 20
71.9469
 11
90.927
 21
71.8532
  0
LINE
  8
0
 10
90.927
 20
71.8532
 11
91.2773
 21
71.7145
  0
LINE
  8
0
 10
91.2773
 20
71.7145
 11
91.6075
 21
71.533
  0
LINE
  8
0
 10
91.6075
 20
71.533
 11
91.9123
 21
71.3115
  0
LINE
  8
0
 10
91.9123
 20
71.3115
 11
92.1869
 21
71.0536
  0
LINE
  8
0
 10
92.1869
 20
71.0536
 11
92.427
 21
70.7634
  0
LINE
  8
0
 10
92.427
 20
70.7634
 11
92.6289
 21
70.4453
  0
LINE
  8
0
 10
92.6289
 20
70.4453
 11
92.7893
 21
70.1044
  0
LINE
  8
0
 10
92.7893
 20
70.1044
 11
92.9057
 21
69.7461
  0
LINE
  8
0
 10
92.9057
 20
69.7461
 11
92.9763
 21
69.376
  0
LINE
  8
0
 10
92.9763
 20
69.376
 11
93
 21
69
  0
LINE
  8
0
 10
93
 20
69
 11
92.9763
 21
68.624
  0
LINE
  8
0
 10
92.9763
 20
68.624
 11
92.9057
 21
68.2539
  0
LINE
  8
0
 10
92.9057
 20
68.2539
 11
92.7893
 21
67.8956
  0
LINE
  8
0
 10
92.7893
 20
67.8956
 11
92.6289
 21
67.5547
  0
LINE
  8
0
 10
92.6289
 20
67.5547
 11
92.427
 21
67.2366
  0
LINE
  8
0
 10
92.427
 20
67.2366
 11
92.1869
 21
66.9464
  0
LINE
  8
0
 10
92.1869
 20
66.9464
 11
91.9123
 21
66.6884
  0
LINE
  8
0
 10
91.9123
 20
66.6884
 11
91.6075
 21
66.467
  0
LINE
  8
0
 10
91.6075
 20
66.467
 11
91.2773
 21
66.2855
  0
LINE
  8
0
 10
91.2773
 20
66.2855
 11
90.927
 21
66.1468
  0
LINE
  8
0
 10
90.927
 20
66.1468
 11
90.5621
 21
66.0531
  0
LINE
  8
0
 10
90.5621
 20
66.0531
 11
90.1884
 21
66.0059
  0
LINE
  8
0
 10
90.1884
 20
66.0059
 11
89.8116
 21
66.0059
  0
LINE
  8
0
 10
67.0895
 20
39.5286
 11
65.283
 21
39.7568
  0
LINE
  8
0
 10
65.283
 20
39.7568
 11
63.5192
 21
40.2097
  0
LINE
  8
0
 10
63.5192
 20
40.2097
 11
61.8262
 21
40.88
  0
LINE
  8
0
 10
61.8262
 20
40.88
 11
60.2305
 21
41.7572
  0
LINE
  8
0
 10
60.2305
 20
41.7572
 11
58.7573
 21
42.8276
  0
LINE
  8
0
 10
58.7573
 20
42.8276
 11
57.4299
 21
44.0741
  0
LINE
  8
0
 10
57.4299
 20
44.0741
 11
56.2692
 21
45.4771
  0
LINE
  8
0
 10
56.2692
 20
45.4771
 11
55.2935
 21
47.0146
  0
LINE
  8
0
 10
55.2935
 20
47.0146
 11
54.5182
 21
48.6622
  0
LINE
  8
0
 10
54.5182
 20
48.6622
 11
53.9555
 21
50.394
  0
LINE
  8
0
 10
53.9555
 20
50.394
 11
53.6143
 21
52.1827
  0
LINE
  8
0
 10
53.6143
 20
52.1827
 11
53.5
 21
54
  0
LINE
  8
0
 10
53.5
 20
54
 11
53.6143
 21
55.8173
  0
LINE
  8
0
 10
53.6143
 20
55.8173
 11
53.9555
 21
57.606
  0
LINE
  8
0
 10
53.9555
 20
57.606
 11
54.5182
 21
59.3378
  0
LINE
  8
0
 10
54.5182
 20
59.3378
 11
55.2935
 21
60.9854
  0
LINE
  8
0
 10
55.2935
 20
60.9854
 11
56.2692
 21
62.5229
  0
LINE
  8
0
 10
56.2692
 20
62.5229
 11
57.4299
 21
63.9259
  0
LINE
  8
0
 10
57.4299
 20
63.9259
 11
58.7573
 21
65.1724
  0
LINE
  8
0
 10
58.7573
 20
65.1724
 11
60.2305
 21
66.2428
  0
LINE
  8
0
 10
60.2305
 20
66.2428
 11
61.8262
 21
67.12
  0
LINE
  8
0
 10
61.8262
 20
67.12
 11
63.5192
 21
67.7903
  0
LINE
  8
0
 10
63.5192
 20
67.7903
 11
65.283
 21
68.2432
  0
LINE
  8
0
 10
65.283
 20
68.2432
 11
67.0895
 21
68.4714
  0
LINE
  8
0
 10
67.0895
 20
68.4714
 11
68.9105
 21
68.4714
  0
LINE
  8
0
 10
68.9105
 20
68.4714
 11
70.717
 21
68.2432
  0
LINE
  8
0
 10
70.717
 20
68.2432
 11
72.4807
 21
67.7903
  0
LINE
  8
0
 10
72.4807
 20
67.7903
 11
74.1738
 21
67.12
  0
LINE
  8
0
 10
74.1738
 20
67.12
 11
75.7695
 21
66.2428
  0
LINE
  8
0
 10
75.7695
 20
66.2428
 11
77.2426
 21
65.1724
  0
LINE
  8
0
 10
77.2426
 20
65.1724
 11
78.57
 21
63.9259
  0
LINE
  8
0
 10
78.57
 20
63.9259
 11
79.7307
 21
62.5229
  0
LINE
  8
0
 10
79.7307
 20
62.5229
 11
80.7064
 21
60.9854
  0
LINE
  8
0
 10
80.7064
 20
60.9854
 11
81.4818
 21
59.3378
  0
LINE
  8
0
 10
81.4818
 20
59.3378
 11
82.0444
 21
57.606
  0
LINE
  8
0
 10
82.0444
 20
57.606
 11
82.3857
 21
55.8173
  0
LINE
  8
0
 10
82.3857
 20
55.8173
 11
82.5
 21
54
  0
LINE
  8
0
 10
82.5
 20
54
 11
82.3857
 21
52.1827
  0
LINE
  8
0
 10
82.3857
 20
52.1827
 11
82.0444
 21
50.394
  0
LINE
  8
0
 10
82.0444
 20
50.394
 11
81.4818
 21
48.6622
  0
LINE
  8
0
 10
81.4818
 20
48.6622
 11
80.7064
 21
47.0146
  0
LINE
  8
0
 10
80.7064
 20
47.0146
 11
79.7307
 21
45.4771
  0
LINE
  8
0
 10
79.7307
 20
45.4771
 11
78.57
 21
44.0741
  0
LINE
  8
0
 10
78.57
 20
44.0741
 11
77.2426
 21
42.8276
  0
LINE
  8
0
 10
77.2426
 20
42.8276
 11
75.7695
 21
41.7572
  0
LINE
  8
0
 10
75.7695
 20
41.7572
 11
74.1738
 21
40.88
  0
LINE
  8
0
 10
74.1738
 20
40.88
 11
72.4807
 21
40.2097
  0
LINE
  8
0
 10
72.4807
 20
40.2097
 11
70.717
 21
39.7568
  0
LINE
  8
0
 10
70.717
 20
39.7568
 11
68.9105
 21
39.5286
  0
LINE
  8
0
 10
68.9105
 20
39.5286
 11
67.0895
 21
39.5286
  0
LINE
  8
0
 10
-68.9105
 20
39.5286
 11
-70.717
 21
39.7568
  0
LINE
  8
0
 10
-70.717
 20
39.7568
 11
-72.4807
 21
40.2097
  0
LINE
  8
0
 10
-72.4807
 20
40.2097
 11
-74.1738
 21
40.88
  0
LINE
  8
0
 10
-74.1738
 20
40.88
 11
-75.7695
 21
41.7572
  0
LINE
  8
0
 10
-75.7695
 20
41.7572
 11
-77.2426
 21
42.8276
  0
LINE
  8
0
 10
-77.2426
 20
42.8276
 11
-78.57
 21
44.0741
  0
LINE
  8
0
 10
-78.57
 20
44.0741
 11
-79.7307
 21
45.4771
  0
LINE
  8
0
 10
-79.7307
 20
45.4771
 11
-80.7064
 21
47.0146
  0
LINE
  8
0
 10
-80.7064
 20
47.0146
 11
-81.4818
 21
48.6622
  0
LINE
  8
0
 10
-81.4818
 20
48.6622
 11
-82.0444
 21
50.394
  0
LINE
  8
0
 10
-82.0444
 20
50.394
 11
-82.3857
 21
52.1827
  0
LINE
  8
0
 10
-82.3857
 20
52.1827
 11
-82.5
 21
54
  0
LINE
  8
0
 10
-82.5
 20
54
 11
-82.3857
 21
55.8173
  0
LINE
  8
0
 10
-82.3857
 20
55.8173
 11
-82.0444
 21
57.606
  0
LINE
  8
0
 10
-82.0444
 20
57.606
 11
-81.4818
 21
59.3378
  0
LINE
  8
0
 10
-81.4818
 20
59.3378
 11
-80.7064
 21
60.9854
  0
LINE
  8
0
 10
-80.7064
 20
60.9854
 11
-79.7307
 21
62.5229
  0
LINE
  8
0
 10
-79.7307
 20
62.5229
 11
-78.57
 21
63.9259
  0
LINE
  8
0
 10
-78.57
 20
63.9259
 11
-77.2426
 21
65.1724
  0
LINE
  8
0
 10
-77.2426
 20
65.1724
 11
-75.7695
 21
66.2428
  0
LINE
  8
0
 10
-75.7695
 20
66.2428
 11
-74.1738
 21
67.12
  0
LINE
  8
0
 10
-74.1738
 20
67.12
 11
-72.4807
 21
67.7903
  0
LINE
  8
0
 10
-72.4807
 20
67.7903
 11
-70.717
 21
68.2432
  0
LINE
  8
0
 10
-70.717
 20
68.2432
 11
-68.9105
 21
68.4714
  0
LINE
  8
0
 10
-68.9105
 20
68.4714
 11
-67.0895
 21
68.4714
  0
LINE
  8
0
 10
-67.0895
 20
68.4714
 11
-65.283
 21
68.2432
  0
LINE
  8
0
 10
-65.283
 20
68.2432
 11
-63.5192
 21
67.7903
  0
LINE
  8
0
 10
-63.5192
 20
67.7903
 11
-61.8262
 21
67.12
  0
LINE
  8
0
 10
-61.8262
 20
67.12
 11
-60.2305
 21
66.2428
  0
LINE
  8
0
 10
-60.2305
 20
66.2428
 11
-58.7573
 21
65.1724
  0
LINE
  8
0
 10
-58.7573
 20
65.1724
 11
-57.4299
 21
63.9259
  0
LINE
  8
0
 10
-57.4299
 20
63.9259
 11
-56.2692
 21
62.5229
  0
LINE
  8
0
 10
-56.2692
 20
62.5229
 11
-55.2935
 21
60.9854
  0
LINE
  8
0
 10
-55.2935
 20
60.9854
 11
-54.5182
 21
59.3378
  0
LINE
  8
0
 10
-54.5182
 20
59.3378
 11
-53.9555
 21
57.606
  0
LINE
  8
0
 10
-53.9555
 20
57.606
 11
-53.6143
 21
55.8173
  0
LINE
  8
0
 10
-53.6143
 20
55.8173
 11
-53.5
 21
54
  0
LINE
  8
0
 10
-53.5
 20
54
 11
-53.6143
 21
52.1827
  0
LINE
  8
0
 10
-53.6143
 20
52.1827
 11
-53.9555
 21
50.394
  0
LINE
  8
0
 10
-53.9555
 20
50.394
 11
-54.5182
 21
48.6622
  0
LINE
  8
0
 10
-54.5182
 20
48.6622
 11
-55.2935
 21
47.0146
  0
LINE
  8
0
 10
-55.2935
 20
47.0146
 11
-56.2692
 21
45.4771
  0
LINE
  8
0
 10
-56.2692
 20
45.4771
 11
-57.4299
 21
44.0741
  0
LINE
  8
0
 10
-57.4299
 20
44.0741
 11
-58.7573
 21
42.8276
  0
LINE
  8
0
 10
-58.7573
 20
42.8276
 11
-60.2305
 21
41.7572
  0
LINE
  8
0
 10
-60.2305
 20
41.7572
 11
-61.8262
 21
40.88
  0
LINE
  8
0
 10
-61.8262
 20
40.88
 11
-63.5192
 21
40.2097
  0
LINE
  8
0
 10
-63.5192
 20
40.2097
 11
-65.283
 21
39.7568
  0
LINE
  8
0
 10
-65.283
 20
39.7568
 11
-67.0895
 21
39.5286
  0
LINE
  8
0
 10
-67.0895
 20
39.5286
 11
-68.9105
 21
39.5286
  0
LINE
  8
0
 10
33.0895
 20
39.5286
 11
31.283
 21
39.7568
  0
LINE
  8
0
 10
31.283
 20
39.7568
 11
29.5192
 21
40.2097
  0
LINE
  8
0
 10
29.5192
 20
40.2097
 11
27.8262
 21
40.88
  0
LINE
  8
0
 10
27.8262
 20
40.88
 11
26.2305
 21
41.7572
  0
LINE
  8
0
 10
26.2305
 20
41.7572
 11
24.7573
 21
42.8276
  0
LINE
  8
0
 10
24.7573
 20
42.8276
 11
23.4299
 21
44.0741
  0
LINE
  8
0
 10
23.4299
 20
44.0741
 11
22.2692
 21
45.4771
  0
LINE
  8
0
 10
22.2692
 20
45.4771
 11
21.2935
 21
47.0146
  0
LINE
  8
0
 10
21.2935
 20
47.0146
 11
20.5182
 21
48.6622
  0
LINE
  8
0
 10
20.5182
 20
48.6622
 11
19.9555
 21
50.394
  0
LINE
  8
0
 10
19.9555
 20
50.394
 11
19.6143
 21
52.1827
  0
LINE
  8
0
 10
19.6143
 20
52.1827
 11
19.5
 21
54
  0
LINE
  8
0
 10
19.5
 20
54
 11
19.6143
 21
55.8173
  0
LINE
  8
0
 10
19.6143
 20
55.8173
 11
19.9555
 21
57.606
  0
LINE
  8
0
 10
19.9555
 20
57.606
 11
20.5182
 21
59.3378
  0
LINE
  8
0
 10
20.5182
 20
59.3378
 11
21.2935
 21
60.9854
  0
LINE
  8
0
 10
21.2935
 20
60.9854
 11
22.2692
 21
62.5229
  0
LINE
  8
0
 10
22.2692
 20
62.5229
 11
23.4299
 21
63.9259
  0
LINE
  8
0
 10
23.4299
 20
63.9259
 11
24.7573
 21
65.1724
  0
LINE
  8
0
 10
24.7573
 20
65.1724
 11
26.2305
 21
66.2428
  0
LINE
  8
0
 10
26.2305
 20
66.2428
 11
27.8262
 21
67.12
  0
LINE
  8
0
 10
27.8262
 20
67.12
 11
29.5192
 21
67.7903
  0
LINE
  8
0
 10
29.5192
 20
67.7903
 11
31.283
 21
68.2432
  0
LINE
  8
0
 10
31.283
 20
68.2432
 11
33.0895
 21
68.4714
  0
LINE
  8
0
 10
33.0895
 20
68.4714
 11
34.9105
 21
68.4714
  0
LINE
  8
0
 10
34.9105
 20
68.4714
 11
36.717
 21
68.2432
  0
LINE
  8
0
 10
36.717
 20
68.2432
 11
38.4807
 21
67.7903
  0
LINE
  8
0
 10
38.4807
 20
67.7903
 11
40.1738
 21
67.12
  0
LINE
  8
0
 10
40.1738
 20
67.12
 11
41.7695
 21
66.2428
  0
LINE
  8
0
 10
41.7695
 20
66.2428
 11
43.2426
 21
65.1724
  0
LINE
  8
0
 10
43.2426
 20
65.1724
 11
44.57
 21
63.9259
  0
LINE
  8
0
 10
44.57
 20
63.9259
 11
45.7307
 21
62.5229
  0
LINE
  8
0
 10
45.7307
 20
62.5229
 11
46.7064
 21
60.9854
  0
LINE
  8
0
 10
46.7064
 20
60.9854
 11
47.4818
 21
59.3378
  0
LINE
  8
0
 10
47.4818
 20
59.3378
 11
48.0444
 21
57.606
  0
LINE
  8
0
 10
48.0444
 20
57.606
 11
48.3857
 21
55.8173
  0
LINE
  8
0
 10
48.3857
 20
55.8173
 11
48.5
 21
54
  0
LINE
  8
0
 10
48.5
 20
54
 11
48.3857
 21
52.1827
  0
LINE
  8
0
 10
48.3857
 20
52.1827
 11
48.0444
 21
50.394
  0
LINE
  8
0
 10
48.0444
 20
50.394
 11
47.4818
 21
48.6622
  0
LINE
  8
0
 10
47.4818
 20
48.6622
 11
46.7064
 21
47.0146
  0
LINE
  8
0
 10
46.7064
 20
47.0146
 11
45.7307
 21
45.4771
  0
LINE
  8
0
 10
45.7307
 20
45.4771
 11
44.57
 21
44.0741
  0
LINE
  8
0
 10
44.57
 20
44.0741
 11
43.2426
 21
42.8276
  0
LINE
  8
0
 10
43.2426
 20
42.8276
 11
41.7695
 21
41.7572
  0
LINE
  8
0
 10
41.7695
 20
41.7572
 11
40.1738
 21
40.88
  0
LINE
  8
0
 10
40.1738
 20
40.88
 11
38.4807
 21
40.2097
  0
LINE
  8
0
 10
38.4807
 20
40.2097
 11
36.717
 21
39.7568
  0
LINE
  8
0
 10
36.717
 20
39.7568
 11
34.9105
 21
39.5286
  0
LINE
  8
0
 10
34.9105
 20
39.5286
 11
33.0895
 21
39.5286
  0
LINE
  8
0
 10
-34.9105
 20
39.5286
 11
-36.717
 21
39.7568
  0
LINE
  8
0
 10
-36.717
 20
39.7568
 11
-38.4807
 21
40.2097
  0
LINE
  8
0
 10
-38.4807
 20
40.2097
 11
-40.1738
 21
40.88
  0
LINE
  8
0
 10
-40.1738
 20
40.88
 11
-41.7695
 21
41.7572
  0
LINE
  8
0
 10
-41.7695
 20
41.7572
 11
-43.2426
 21
42.8276
  0
LINE
  8
0
 10
-43.2426
 20
42.8276
 11
-44.57
 21
44.0741
  0
LINE
  8
0
 10
-44.57
 20
44.0741
 11
-45.7307
 21
45.4771
  0
LINE
  8
0
 10
-45.7307
 20
45.4771
 11
-46.7064
 21
47.0146
  0
LINE
  8
0
 10
-46.7064
 20
47.0146
 11
-47.4818
 21
48.6622
  0
LINE
  8
0
 10
-47.4818
 20
48.6622
 11
-48.0444
 21
50.394
  0
LINE
  8
0
 10
-48.0444
 20
50.394
 11
-48.3857
 21
52.1827
  0
LINE
  8
0
 10
-48.3857
 20
52.1827
 11
-48.5
 21
54
  0
LINE
  8
0
 10
-48.5
 20
54
 11
-48.3857
 21
55.8173
  0
LINE
  8
0
 10
-48.3857
 20
55.8173
 11
-48.0444
 21
57.606
  0
LINE
  8
0
 10
-48.0444
 20
57.606
 11
-47.4818
 21
59.3378
  0
LINE
  8
0
 10
-47.4818
 20
59.3378
 11
-46.7064
 21
60.9854
  0
LINE
  8
0
 10
-46.7064
 20
60.9854
 11
-45.7307
 21
62.5229
  0
LINE
  8
0
 10
-45.7307
 20
62.5229
 11
-44.57
 21
63.9259
  0
LINE
  8
0
 10
-44.57
 20
63.9259
 11
-43.2426
 21
65.1724
  0
LINE
  8
0
 10
-43.2426
 20
65.1724
 11
-41.7695
 21
66.2428
  0
LINE
  8
0
 10
-41.7695
 20
66.2428
 11
-40.1738
 21
67.12
  0
LINE
  8
0
 10
-40.1738
 20
67.12
 11
-38.4807
 21
67.7903
  0
LINE
  8
0
 10
-38.4807
 20
67.7903
 11
-36.717
 21
68.2432
  0
LINE
  8
0
 10
-36.717
 20
68.2432
 11
-34.9105
 21
68.4714
  0
LINE
  8
0
 10
-34.9105
 20
68.4714
 11
-33.0895
 21
68.4714
  0
LINE
  8
0
 10
-33.0895
 20
68.4714
 11
-31.283
 21
68.2432
  0
LINE
  8
0
 10
-31.283
 20
68.2432
 11
-29.5192
 21
67.7903
  0
LINE
  8
0
 10
-29.5192
 20
67.7903
 11
-27.8262
 21
67.12
  0
LINE
  8
0
 10
-27.8262
 20
67.12
 11
-26.2305
 21
66.2428
  0
LINE
  8
0
 10
-26.2305
 20
66.2428
 11
-24.7573
 21
65.1724
  0
LINE
  8
0
 10
-24.7573
 20
65.1724
 11
-23.4299
 21
63.9259
  0
LINE
  8
0
 10
-23.4299
 20
63.9259
 11
-22.2692
 21
62.5229
  0
LINE
  8
0
 10
-22.2692
 20
62.5229
 11
-21.2935
 21
60.9854
  0
LINE
  8
0
 10
-21.2935
 20
60.9854
 11
-20.5182
 21
59.3378
  0
LINE
  8
0
 10
-20.5182
 20
59.3378
 11
-19.9555
 21
57.606
  0
LINE
  8
0
 10
-19.9555
 20
57.606
 11
-19.6143
 21
55.8173
  0
LINE
  8
0
 10
-19.6143
 20
55.8173
 11
-19.5
 21
54
  0
LINE
  8
0
 10
-19.5
 20
54
 11
-19.6143
 21
52.1827
  0
LINE
  8
0
 10
-19.6143
 20
52.1827
 11
-19.9555
 21
50.394
  0
LINE
  8
0
 10
-19.9555
 20
50.394
 11
-20.5182
 21
48.6622
  0
LINE
  8
0
 10
-20.5182
 20
48.6622
 11
-21.2935
 21
47.0146
  0
LINE
  8
0
 10
-21.2935
 20
47.0146
 11
-22.2692
 21
45.4771
  0
LINE
  8
0
 10
-22.2692
 20
45.4771
 11
-23.4299
 21
44.0741
  0
LINE
  8
0
 10
-23.4299
 20
44.0741
 11
-24.7573
 21
42.8276
  0
LINE
  8
0
 10
-24.7573
 20
42.8276
 11
-26.2305
 21
41.7572
  0
LINE
  8
0
 10
-26.2305
 20
41.7572
 11
-27.8262
 21
40.88
  0
LINE
  8
0
 10
-27.8262
 20
40.88
 11
-29.5192
 21
40.2097
  0
LINE
  8
0
 10
-29.5192
 20
40.2097
 11
-31.283
 21
39.7568
  0
LINE
  8
0
 10
-31.283
 20
39.7568
 11
-33.0895
 21
39.5286
  0
LINE
  8
0
 10
-33.0895
 20
39.5286
 11
-34.9105
 21
39.5286
  0
LINE
  8
0
 10
-0.910461
 20
39.5286
 11
-2.71703
 21
39.7568
  0
LINE
  8
0
 10
-2.71703
 20
39.7568
 11
-4.48074
 21
40.2097
  0
LINE
  8
0
 10
-4.48074
 20
40.2097
 11
-6.1738
 21
40.88
  0
LINE
  8
0
 10
-6.1738
 20
40.88
 11
-7.76949
 21
41.7572
  0
LINE
  8
0
 10
-7.76949
 20
41.7572
 11
-9.24265
 21
42.8276
  0
LINE
  8
0
 10
-9.24265
 20
42.8276
 11
-10.57
 21
44.0741
  0
LINE
  8
0
 10
-10.57
 20
44.0741
 11
-11.7307
 21
45.4771
  0
LINE
  8
0
 10
-11.7307
 20
45.4771
 11
-12.7064
 21
47.0146
  0
LINE
  8
0
 10
-12.7064
 20
47.0146
 11
-13.4818
 21
48.6622
  0
LINE
  8
0
 10
-13.4818
 20
48.6622
 11
-14.0444
 21
50.394
  0
LINE
  8
0
 10
-14.0444
 20
50.394
 11
-14.3857
 21
52.1827
  0
LINE
  8
0
 10
-14.3857
 20
52.1827
 11
-14.5
 21
54
  0
LINE
  8
0
 10
-14.5
 20
54
 11
-14.3857
 21
55.8173
  0
LINE
  8
0
 10
-14.3857
 20
55.8173
 11
-14.0444
 21
57.606
  0
LINE
  8
0
 10
-14.0444
 20
57.606
 11
-13.4818
 21
59.3378
  0
LINE
  8
0
 10
-13.4818
 20
59.3378
 11
-12.7064
 21
60.9854
  0
LINE
  8
0
 10
-12.7064
 20
60.9854
 11
-11.7307
 21
62.5229
  0
LINE
  8
0
 10
-11.7307
 20
62.5229
 11
-10.57
 21
63.9259
  0
LINE
  8
0
 10
-10.57
 20
63.9259
 11
-9.24265
 21
65.1724
  0
LINE
  8
0
 10
-9.24265
 20
65.1724
 11
-7.76949
 21
66.2428
  0
LINE
  8
0
 10
-7.76949
 20
66.2428
 11
-6.1738
 21
67.12
  0
LINE
  8
0
 10
-6.1738
 20
67.12
 11
-4.48074
 21
67.7903
  0
LINE
  8
0
 10
-4.48074
 20
67.7903
 11
-2.71703
 21
68.2432
  0
LINE
  8
0
 10
-2.71703
 20
68.2432
 11
-0.910461
 21
68.4714
  0
LINE
  8
0
 10
-0.910461
 20
68.4714
 11
0.910461
 21
68.4714
  0
LINE
  8
0
 10
0.910461
 20
68.4714
 11
2.71703
 21
68.2432
  0
LINE
  8
0
 10
2.71703
 20
68.2432
 11
4.48074
 21
67.7903
  0
LINE
  8
0
 10
4.48074
 20
67.7903
 11
6.1738
 21
67.12
  0
LINE
  8
0
 10
6.1738
 20
67.12
 11
7.76949
 21
66.2428
  0
LINE
  8
0
 10
7.76949
 20
66.2428
 11
9.24265
 21
65.1724
  0
LINE
  8
0
 10
9.24265
 20
65.1724
 11
10.57
 21
63.9259
  0
LINE
  8
0
 10
10.57
 20
63.9259
 11
11.7307
 21
62.5229
  0
LINE
  8
0
 10
11.7307
 20
62.5229
 11
12.7064
 21
60.9854
  0
LINE
  8
0
 10
12.7064
 20
60.9854
 11
13.4818
 21
59.3378
  0
LINE
  8
0
 10
13.4818
 20
59.3378
 11
14.0444
 21
57.606
  0
LINE
  8
0
 10
14.0444
 20
57.606
 11
14.3857
 21
55.8173
  0
LINE
  8
0
 10
14.3857
 20
55.8173
 11
14.5
 21
54
  0
LINE
  8
0
 10
14.5
 20
54
 11
14.3857
 21
52.1827
  0
LINE
  8
0
 10
14.3857
 20
52.1827
 11
14.0444
 21
50.394
  0
LINE
  8
0
 10
14.0444
 20
50.394
 11
13.4818
 21
48.6622
  0
LINE
  8
0
 10
13.4818
 20
48.6622
 11
12.7064
 21
47.0146
  0
LINE
  8
0
 10
12.7064
 20
47.0146
 11
11.7307
 21
45.4771
  0
LINE
  8
0
 10
11.7307
 20
45.4771
 11
10.57
 21
44.0741
  0
LINE
  8
0
 10
10.57
 20
44.0741
 11
9.24265
 21
42.8276
  0
LINE
  8
0
 10
9.24265
 20
42.8276
 11
7.76949
 21
41.7572
  0
LINE
  8
0
 10
7.76949
 20
41.7572
 11
6.1738
 21
40.88
  0
LINE
  8
0
 10
6.1738
 20
40.88
 11
4.48074
 21
40.2097
  0
LINE
  8
0
 10
4.48074
 20
40.2097
 11
2.71703
 21
39.7568
  0
LINE
  8
0
 10
2.71703
 20
39.7568
 11
0.910461
 21
39.5286
  0
LINE
  8
0
 10
0.910461
 20
39.5286
 11
-0.910461
 21
39.5286
  0
LINE
  8
0
 10
-90.0942
 20
60.0029
 11
-90.2811
 21
60.0266
  0
LINE
  8
0
 10
-90.2811
 20
60.0266
 11
-90.4635
 21
60.0734
  0
LINE
  8
0
 10
-90.4635
 20
60.0734
 11
-90.6387
 21
60.1427
  0
LINE
  8
0
 10
-90.6387
 20
60.1427
 11
-90.8037
 21
60.2335
  0
LINE
  8
0
 10
-90.8037
 20
60.2335
 11
-90.9561
 21
60.3442
  0
LINE
  8
0
 10
-90.9561
 20
60.3442
 11
-91.0934
 21
60.4732
  0
LINE
  8
0
 10
-91.0934
 20
60.4732
 11
-91.2135
 21
60.6183
  0
LINE
  8
0
 10
-91.2135
 20
60.6183
 11
-91.3145
 21
60.7774
  0
LINE
  8
0
 10
-91.3145
 20
60.7774
 11
-91.3947
 21
60.9478
  0
LINE
  8
0
 10
-91.3947
 20
60.9478
 11
-91.4529
 21
61.127
  0
LINE
  8
0
 10
-91.4529
 20
61.127
 11
-91.4882
 21
61.312
  0
LINE
  8
0
 10
-91.4882
 20
61.312
 11
-91.5
 21
61.5
  0
LINE
  8
0
 10
-91.5
 20
61.5
 11
-91.4882
 21
61.688
  0
LINE
  8
0
 10
-91.4882
 20
61.688
 11
-91.4529
 21
61.873
  0
LINE
  8
0
 10
-91.4529
 20
61.873
 11
-91.3947
 21
62.0522
  0
LINE
  8
0
 10
-91.3947
 20
62.0522
 11
-91.3145
 21
62.2226
  0
LINE
  8
0
 10
-91.3145
 20
62.2226
 11
-91.2135
 21
62.3817
  0
LINE
  8
0
 10
-91.2135
 20
62.3817
 11
-91.0934
 21
62.5268
  0
LINE
  8
0
 10
-91.0934
 20
62.5268
 11
-90.9561
 21
62.6558
  0
LINE
  8
0
 10
-90.9561
 20
62.6558
 11
-90.8037
 21
62.7665
  0
LINE
  8
0
 10
-90.8037
 20
62.7665
 11
-90.6387
 21
62.8572
  0
LINE
  8
0
 10
-90.6387
 20
62.8572
 11
-90.4635
 21
62.9266
  0
LINE
  8
0
 10
-90.4635
 20
62.9266
 11
-90.2811
 21
62.9734
  0
LINE
  8
0
 10
-90.2811
 20
62.9734
 11
-90.0942
 21
62.997
  0
LINE
  8
0
 10
-90.0942
 20
62.997
 11
-89.9058
 21
62.997
  0
LINE
  8
0
 10
-89.9058
 20
62.997
 11
-89.7189
 21
62.9734
  0
LINE
  8
0
 10
-89.7189
 20
62.9734
 11
-89.5365
 21
62.9266
  0
LINE
  8
0
 10
-89.5365
 20
62.9266
 11
-89.3613
 21
62.8572
  0
LINE
  8
0
 10
-89.3613
 20
62.8572
 11
-89.1963
 21
62.7665
  0
LINE
  8
0
 10
-89.1963
 20
62.7665
 11
-89.0439
 21
62.6558
  0
LINE
  8
0
 10
-89.0439
 20
62.6558
 11
-88.9065
 21
62.5268
  0
LINE
  8
0
 10
-88.9065
 20
62.5268
 11
-88.7865
 21
62.3817
  0
LINE
  8
0
 10
-88.7865
 20
62.3817
 11
-88.6855
 21
62.2226
  0
LINE
  8
0
 10
-88.6855
 20
62.2226
 11
-88.6053
 21
62.0522
  0
LINE
  8
0
 10
-88.6053
 20
62.0522
 11
-88.5471
 21
61.873
  0
LINE
  8
0
 10
-88.5471
 20
61.873
 11
-88.5118
 21
61.688
  0
LINE
  8
0
 10
-88.5118
 20
61.688
 11
-88.5
 21
61.5
  0
LINE
  8
0
 10
-88.5
 20
61.5
 11
-88.5118
 21
61.312
  0
LINE
  8
0
 10
-88.5118
 20
61.312
 11
-88.5471
 21
61.127
  0
LINE
  8
0
 10
-88.5471
 20
61.127
 11
-88.6053
 21
60.9478
  0
LINE
  8
0
 10
-88.6053
 20
60.9478
 11
-88.6855
 21
60.7774
  0
LINE
  8
0
 10
-88.6855
 20
60.7774
 11
-88.7865
 21
60.6183
  0
LINE
  8
0
 10
-88.7865
 20
60.6183
 11
-88.9065
 21
60.4732
  0
LINE
  8
0
 10
-88.9065
 20
60.4732
 11
-89.0439
 21
60.3442
  0
LINE
  8
0
 10
-89.0439
 20
60.3442
 11
-89.1963
 21
60.2335
  0
LINE
  8
0
 10
-89.1963
 20
60.2335
 11
-89.3613
 21
60.1427
  0
LINE
  8
0
 10
-89.3613
 20
60.1427
 11
-89.5365
 21
60.0734
  0
LINE
  8
0
 10
-89.5365
 20
60.0734
 11
-89.7189
 21
60.0266
  0
LINE
  8
0
 10
-89.7189
 20
60.0266
 11
-89.9058
 21
60.0029
  0
LINE
  8
0
 10
-89.9058
 20
60.0029
 11
-90.0942
 21
60.0029
  0
LINE
  8
0
 10
89.9058
 20
60.0029
 11
89.7189
 21
60.0266
  0
LINE
  8
0
 10
89.7189
 20
60.0266
 11
89.5365
 21
60.0734
  0
LINE
  8
0
 10
89.5365
 20
60.0734
 11
89.3613
 21
60.1427
  0
LINE
  8
0
 10
89.3613
 20
60.1427
 11
89.1963
 21
60.2335
  0
LINE
  8
0
 10
89.1963
 20
60.2335
 11
89.0439
 21
60.3442
  0
LINE
  8
0
 10
89.0439
 20
60.3442
 11
88.9065
 21
60.4732
  0
LINE
  8
0
 10
88.9065
 20
60.4732
 11
88.7865
 21
60.6183
  0
LINE
  8
0
 10
88.7865
 20
60.6183
 11
88.6855
 21
60.7774
  0
LINE
  8
0
 10
88.6855
 20
60.7774
 11
88.6053
 21
60.9478
  0
LINE
  8
0
 10
88.6053
 20
60.9478
 11
88.5471
 21
61.127
  0
LINE
  8
0
 10
88.5471
 20
61.127
 11
88.5118
 21
61.312
  0
LINE
  8
0
 10
88.5118
 20
61.312
 11
88.5
 21
61.5
  0
LINE
  8
0
 10
88.5
 20
61.5
 11
88.5118
 21
61.688
  0
LINE
  8
0
 10
88.5118
 20
61.688
 11
88.5471
 21
61.873
  0
LINE
  8
0
 10
88.5471
 20
61.873
 11
88.6053
 21
62.0522
  0
LINE
  8
0
 10
88.6053
 20
62.0522
 11
88.6855
 21
62.2226
  0
LINE
  8
0
 10
88.6855
 20
62.2226
 11
88.7865
 21
62.3817
  0
LINE
  8
0
 10
88.7865
 20
62.3817
 11
88.9065
 21
62.5268
  0
LINE
  8
0
 10
88.9065
 20
62.5268
 11
89.0439
 21
62.6558
  0
LINE
  8
0
 10
89.0439
 20
62.6558
 11
89.1963
 21
62.7665
  0
LINE
  8
0
 10
89.1963
 20
62.7665
 11
89.3613
 21
62.8572
  0
LINE
  8
0
 10
89.3613
 20
62.8572
 11
89.5365
 21
62.9266
  0
LINE
  8
0
 10
89.5365
 20
62.9266
 11
89.7189
 21
62.9734
  0
LINE
  8
0
 10
89.7189
 20
62.9734
 11
89.9058
 21
62.997
  0
LINE
  8
0
 10
89.9058
 20
62.997
 11
90.0942
 21
62.997
  0
LINE
  8
0
 10
90.0942
 20
62.997
 11
90.2811
 21
62.9734
  0
LINE
  8
0
 10
90.2811
 20
62.9734
 11
90.4635
 21
62.9266
  0
LINE
  8
0
 10
90.4635
 20
62.9266
 11
90.6387
 21
62.8572
  0
LINE
  8
0
 10
90.6387
 20
62.8572
 11
90.8037
 21
62.7665
  0
LINE
  8
0
 10
90.8037
 20
62.7665
 11
90.9561
 21
62.6558
  0
LINE
  8
0
 10
90.9561
 20
62.6558
 11
91.0934
 21
62.5268
  0
LINE
  8
0
 10
91.0934
 20
62.5268
 11
91.2135
 21
62.3817
  0
LINE
  8
0
 10
91.2135
 20
62.3817
 11
91.3145
 21
62.2226
  0
LINE
  8
0
 10
91.3145
 20
62.2226
 11
91.3947
 21
62.0522
  0
LINE
  8
0
 10
91.3947
 20
62.0522
 11
91.4529
 21
61.873
  0
LINE
  8
0
 10
91.4529
 20
61.873
 11
91.4882
 21
61.688
  0
LINE
  8
0
 10
91.4882
 20
61.688
 11
91.5
 21
61.5
  0
LINE
  8
0
 10
91.5
 20
61.5
 11
91.4882
 21
61.312
  0
LINE
  8
0
 10
91.4882
 20
61.312
 11
91.4529
 21
61.127
  0
LINE
  8
0
 10
91.4529
 20
61.127
 11
91.3947
 21
60.9478
  0
LINE
  8
0
 10
91.3947
 20
60.9478
 11
91.3145
 21
60.7774
  0
LINE
  8
0
 10
91.3145
 20
60.7774
 11
91.2135
 21
60.6183
  0
LINE
  8
0
 10
91.2135
 20
60.6183
 11
91.0934
 21
60.4732
  0
LINE
  8
0
 10
91.0934
 20
60.4732
 11
90.9561
 21
60.3442
  0
LINE
  8
0
 10
90.9561
 20
60.3442
 11
90.8037
 21
60.2335
  0
LINE
  8
0
 10
90.8037
 20
60.2335
 11
90.6387
 21
60.1427
  0
LINE
  8
0
 10
90.6387
 20
60.1427
 11
90.4635
 21
60.0734
  0
LINE
  8
0
 10
90.4635
 20
60.0734
 11
90.2811
 21
60.0266
  0
LINE
  8
0
 10
90.2811
 20
60.0266
 11
90.0942
 21
60.0029
  0
LINE
  8
0
 10
90.0942
 20
60.0029
 11
89.9058
 21
60.0029
  0
LINE
  8
0
 10
-90.1884
 20
51.0059
 11
-90.5621
 21
51.0531
  0
LINE
  8
0
 10
-90.5621
 20
51.0531
 11
-90.927
 21
51.1468
  0
LINE
  8
0
 10
-90.927
 20
51.1468
 11
-91.2773
 21
51.2855
  0
LINE
  8
0
 10
-91.2773
 20
51.2855
 11
-91.6075
 21
51.467
  0
LINE
  8
0
 10
-91.6075
 20
51.467
 11
-91.9123
 21
51.6885
  0
LINE
  8
0
 10
-91.9123
 20
51.6885
 11
-92.1869
 21
51.9464
  0
LINE
  8
0
 10
-92.1869
 20
51.9464
 11
-92.427
 21
52.2366
  0
LINE
  8
0
 10
-92.427
 20
52.2366
 11
-92.6289
 21
52.5547
  0
LINE
  8
0
 10
-92.6289
 20
52.5547
 11
-92.7893
 21
52.8956
  0
LINE
  8
0
 10
-92.7893
 20
52.8956
 11
-92.9057
 21
53.2539
  0
LINE
  8
0
 10
-92.9057
 20
53.2539
 11
-92.9763
 21
53.624
  0
LINE
  8
0
 10
-92.9763
 20
53.624
 11
-93
 21
54
  0
LINE
  8
0
 10
-93
 20
54
 11
-92.9763
 21
54.376
  0
LINE
  8
0
 10
-92.9763
 20
54.376
 11
-92.9057
 21
54.7461
  0
LINE
  8
0
 10
-92.9057
 20
54.7461
 11
-92.7893
 21
55.1044
  0
LINE
  8
0
 10
-92.7893
 20
55.1044
 11
-92.6289
 21
55.4453
  0
LINE
  8
0
 10
-92.6289
 20
55.4453
 11
-92.427
 21
55.7634
  0
LINE
  8
0
 10
-92.427
 20
55.7634
 11
-92.1869
 21
56.0536
  0
LINE
  8
0
 10
-92.1869
 20
56.0536
 11
-91.9123
 21
56.3115
  0
LINE
  8
0
 10
-91.9123
 20
56.3115
 11
-91.6075
 21
56.533
  0
LINE
  8
0
 10
-91.6075
 20
56.533
 11
-91.2773
 21
56.7145
  0
LINE
  8
0
 10
-91.2773
 20
56.7145
 11
-90.927
 21
56.8532
  0
LINE
  8
0
 10
-90.927
 20
56.8532
 11
-90.5621
 21
56.9469
  0
LINE
  8
0
 10
-90.5621
 20
56.9469
 11
-90.1884
 21
56.9941
  0
LINE
  8
0
 10
-90.1884
 20
56.9941
 11
-89.8116
 21
56.9941
  0
LINE
  8
0
 10
-89.8116
 20
56.9941
 11
-89.4379
 21
56.9469
  0
LINE
  8
0
 10
-89.4379
 20
56.9469
 11
-89.073
 21
56.8532
  0
LINE
  8
0
 10
-89.073
 20
56.8532
 11
-88.7227
 21
56.7145
  0
LINE
  8
0
 10
-88.7227
 20
56.7145
 11
-88.3925
 21
56.533
  0
LINE
  8
0
 10
-88.3925
 20
56.533
 11
-88.0877
 21
56.3115
  0
LINE
  8
0
 10
-88.0877
 20
56.3115
 11
-87.8131
 21
56.0536
  0
LINE
  8
0
 10
-87.8131
 20
56.0536
 11
-87.573
 21
55.7634
  0
LINE
  8
0
 10
-87.573
 20
55.7634
 11
-87.3711
 21
55.4453
  0
LINE
  8
0
 10
-87.3711
 20
55.4453
 11
-87.2107
 21
55.1044
  0
LINE
  8
0
 10
-87.2107
 20
55.1044
 11
-87.0943
 21
54.7461
  0
LINE
  8
0
 10
-87.0943
 20
54.7461
 11
-87.0237
 21
54.376
  0
LINE
  8
0
 10
-87.0237
 20
54.376
 11
-87
 21
54
  0
LINE
  8
0
 10
-87
 20
54
 11
-87.0237
 21
53.624
  0
LINE
  8
0
 10
-87.0237
 20
53.624
 11
-87.0943
 21
53.2539
  0
LINE
  8
0
 10
-87.0943
 20
53.2539
 11
-87.2107
 21
52.8956
  0
LINE
  8
0
 10
-87.2107
 20
52.8956
 11
-87.3711
 21
52.5547
  0
LINE
  8
0
 10
-87.3711
 20
52.5547
 11
-87.573
 21
52.2366
  0
LINE
  8
0
 10
-87.573
 20
52.2366
 11
-87.8131
 21
51.9464
  0
LINE
  8
0
 10
-87.8131
 20
51.9464
 11
-88.0877
 21
51.6885
  0
LINE
  8
0
 10
-88.0877
 20
51.6885
 11
-88.3925
 21
51.467
  0
LINE
  8
0
 10
-88.3925
 20
51.467
 11
-88.7227
 21
51.2855
  0
LINE
  8
0
 10
-88.7227
 20
51.2855
 11
-89.073
 21
51.1468
  0
LINE
  8
0
 10
-89.073
 20
51.1468
 11
-89.4379
 21
51.0531
  0
LINE
  8
0
 10
-89.4379
 20
51.0531
 11
-89.8116
 21
51.0059
  0
LINE
  8
0
 10
-89.8116
 20
51.0059
 11
-90.1884
 21
51.0059
  0
LINE
  8
0
 10
89.8116
 20
51.0059
 11
89.4379
 21
51.0531
  0
LINE
  8
0
 10
89.4379
 20
51.0531
 11
89.073
 21
51.1468
  0
LINE
  8
0
 10
89.073
 20
51.1468
 11
88.7227
 21
51.2855
  0
LINE
  8
0
 10
88.7227
 20
51.2855
 11
88.3925
 21
51.467
  0
LINE
  8
0
 10
88.3925
 20
51.467
 11
88.0877
 21
51.6885
  0
LINE
  8
0
 10
88.0877
 20
51.6885
 11
87.8131
 21
51.9464
  0
LINE
  8
0
 10
87.8131
 20
51.9464
 11
87.573
 21
52.2366
  0
LINE
  8
0
 10
87.573
 20
52.2366
 11
87.3711
 21
52.5547
  0
LINE
  8
0
 10
87.3711
 20
52.5547
 11
87.2107
 21
52.8956
  0
LINE
  8
0
 10
87.2107
 20
52.8956
 11
87.0943
 21
53.2539
  0
LINE
  8
0
 10
87.0943
 20
53.2539
 11
87.0237
 21
53.624
  0
LINE
  8
0
 10
87.0237
 20
53.624
 11
87
 21
54
  0
LINE
  8
0
 10
87
 20
54
 11
87.0237
 21
54.376
  0
LINE
  8
0
 10
87.0237
 20
54.376
 11
87.0943
 21
54.7461
  0
LINE
  8
0
 10
87.0943
 20
54.7461
 11
87.2107
 21
55.1044
  0
LINE
  8
0
 10
87.2107
 20
55.1044
 11
87.3711
 21
55.4453
  0
LINE
  8
0
 10
87.3711
 20
55.4453
 11
87.573
 21
55.7634
  0
LINE
  8
0
 10
87.573
 20
55.7634
 11
87.8131
 21
56.0536
  0
LINE
  8
0
 10
87.8131
 20
56.0536
 11
88.0877
 21
56.3115
  0
LINE
  8
0
 10
88.0877
 20
56.3115
 11
88.3925
 21
56.533
  0
LINE
  8
0
 10
88.3925
 20
56.533
 11
88.7227
 21
56.7145
  0
LINE
  8
0
 10
88.7227
 20
56.7145
 11
89.073
 21
56.8532
  0
LINE
  8
0
 10
89.073
 20
56.8532
 11
89.4379
 21
56.9469
  0
LINE
  8
0
 10
89.4379
 20
56.9469
 11
89.8116
 21
56.9941
  0
LINE
  8
0
 10
89.8116
 20
56.9941
 11
90.1884
 21
56.9941
  0
LINE
  8
0
 10
90.1884
 20
56.9941
 11
90.5621
 21
56.9469
  0
LINE
  8
0
 10
90.5621
 20
56.9469
 11
90.927
 21
56.8532
  0
LINE
  8
0
 10
90.927
 20
56.8532
 11
91.2773
 21
56.7145
  0
LINE
  8
0
 10
91.2773
 20
56.7145
 11
91.6075
 21
56.533
  0
LINE
  8
0
 10
91.6075
 20
56.533
 11
91.9123
 21
56.3115
  0
LINE
  8
0
 10
91.9123
 20
56.3115
 11
92.1869
 21
56.0536
  0
LINE
  8
0
 10
92.1869
 20
56.0536
 11
92.427
 21
55.7634
  0
LINE
  8
0
 10
92.427
 20
55.7634
 11
92.6289
 21
55.4453
  0
LINE
  8
0
 10
92.6289
 20
55.4453
 11
92.7893
 21
55.1044
  0
LINE
  8
0
 10
92.7893
 20
55.1044
 11
92.9057
 21
54.7461
  0
LINE
  8
0
 10
92.9057
 20
54.7461
 11
92.9763
 21
54.376
  0
LINE
  8
0
 10
92.9763
 20
54.376
 11
93
 21
54
  0
LINE
  8
0
 10
93
 20
54
 11
92.9763
 21
53.624
  0
LINE
  8
0
 10
92.9763
 20
53.624
 11
92.9057
 21
53.2539
  0
LINE
  8
0
 10
92.9057
 20
53.2539
 11
92.7893
 21
52.8956
  0
LINE
  8
0
 10
92.7893
 20
52.8956
 11
92.6289
 21
52.5547
  0
LINE
  8
0
 10
92.6289
 20
52.5547
 11
92.427
 21
52.2366
  0
LINE
  8
0
 10
92.427
 20
52.2366
 11
92.1869
 21
51.9464
  0
LINE
  8
0
 10
92.1869
 20
51.9464
 11
91.9123
 21
51.6885
  0
LINE
  8
0
 10
91.9123
 20
51.6885
 11
91.6075
 21
51.467
  0
LINE
  8
0
 10
91.6075
 20
51.467
 11
91.2773
 21
51.2855
  0
LINE
  8
0
 10
91.2773
 20
51.2855
 11
90.927
 21
51.1468
  0
LINE
  8
0
 10
90.927
 20
51.1468
 11
90.5621
 21
51.0531
  0
LINE
  8
0
 10
90.5621
 20
51.0531
 11
90.1884
 21
51.0059
  0
LINE
  8
0
 10
90.1884
 20
51.0059
 11
89.8116
 21
51.0059
  0
LINE
  8
0
 10
-90.0942
 20
45.003
 11
-90.2811
 21
45.0266
  0
LINE
  8
0
 10
-90.2811
 20
45.0266
 11
-90.4635
 21
45.0734
  0
LINE
  8
0
 10
-90.4635
 20
45.0734
 11
-90.6387
 21
45.1428
  0
LINE
  8
0
 10
-90.6387
 20
45.1428
 11
-90.8037
 21
45.2335
  0
LINE
  8
0
 10
-90.8037
 20
45.2335
 11
-90.9561
 21
45.3442
  0
LINE
  8
0
 10
-90.9561
 20
45.3442
 11
-91.0934
 21
45.4732
  0
LINE
  8
0
 10
-91.0934
 20
45.4732
 11
-91.2135
 21
45.6183
  0
LINE
  8
0
 10
-91.2135
 20
45.6183
 11
-91.3145
 21
45.7774
  0
LINE
  8
0
 10
-91.3145
 20
45.7774
 11
-91.3947
 21
45.9478
  0
LINE
  8
0
 10
-91.3947
 20
45.9478
 11
-91.4529
 21
46.127
  0
LINE
  8
0
 10
-91.4529
 20
46.127
 11
-91.4882
 21
46.312
  0
LINE
  8
0
 10
-91.4882
 20
46.312
 11
-91.5
 21
46.5
  0
LINE
  8
0
 10
-91.5
 20
46.5
 11
-91.4882
 21
46.688
  0
LINE
  8
0
 10
-91.4882
 20
46.688
 11
-91.4529
 21
46.873
  0
LINE
  8
0
 10
-91.4529
 20
46.873
 11
-91.3947
 21
47.0522
  0
LINE
  8
0
 10
-91.3947
 20
47.0522
 11
-91.3145
 21
47.2226
  0
LINE
  8
0
 10
-91.3145
 20
47.2226
 11
-91.2135
 21
47.3817
  0
LINE
  8
0
 10
-91.2135
 20
47.3817
 11
-91.0934
 21
47.5268
  0
LINE
  8
0
 10
-91.0934
 20
47.5268
 11
-90.9561
 21
47.6558
  0
LINE
  8
0
 10
-90.9561
 20
47.6558
 11
-90.8037
 21
47.7665
  0
LINE
  8
0
 10
-90.8037
 20
47.7665
 11
-90.6387
 21
47.8573
  0
LINE
  8
0
 10
-90.6387
 20
47.8573
 11
-90.4635
 21
47.9266
  0
LINE
  8
0
 10
-90.4635
 20
47.9266
 11
-90.2811
 21
47.9734
  0
LINE
  8
0
 10
-90.2811
 20
47.9734
 11
-90.0942
 21
47.9971
  0
LINE
  8
0
 10
-90.0942
 20
47.9971
 11
-89.9058
 21
47.9971
  0
LINE
  8
0
 10
-89.9058
 20
47.9971
 11
-89.7189
 21
47.9734
  0
LINE
  8
0
 10
-89.7189
 20
47.9734
 11
-89.5365
 21
47.9266
  0
LINE
  8
0
 10
-89.5365
 20
47.9266
 11
-89.3613
 21
47.8573
  0
LINE
  8
0
 10
-89.3613
 20
47.8573
 11
-89.1963
 21
47.7665
  0
LINE
  8
0
 10
-89.1963
 20
47.7665
 11
-89.0439
 21
47.6558
  0
LINE
  8
0
 10
-89.0439
 20
47.6558
 11
-88.9065
 21
47.5268
  0
LINE
  8
0
 10
-88.9065
 20
47.5268
 11
-88.7865
 21
47.3817
  0
LINE
  8
0
 10
-88.7865
 20
47.3817
 11
-88.6855
 21
47.2226
  0
LINE
  8
0
 10
-88.6855
 20
47.2226
 11
-88.6053
 21
47.0522
  0
LINE
  8
0
 10
-88.6053
 20
47.0522
 11
-88.5471
 21
46.873
  0
LINE
  8
0
 10
-88.5471
 20
46.873
 11
-88.5118
 21
46.688
  0
LINE
  8
0
 10
-88.5118
 20
46.688
 11
-88.5
 21
46.5
  0
LINE
  8
0
 10
-88.5
 20
46.5
 11
-88.5118
 21
46.312
  0
LINE
  8
0
 10
-88.5118
 20
46.312
 11
-88.5471
 21
46.127
  0
LINE
  8
0
 10
-88.5471
 20
46.127
 11
-88.6053
 21
45.9478
  0
LINE
  8
0
 10
-88.6053
 20
45.9478
 11
-88.6855
 21
45.7774
  0
LINE
  8
0
 10
-88.6855
 20
45.7774
 11
-88.7865
 21
45.6183
  0
LINE
  8
0
 10
-88.7865
 20
45.6183
 11
-88.9065
 21
45.4732
  0
LINE
  8
0
 10
-88.9065
 20
45.4732
 11
-89.0439
 21
45.3442
  0
LINE
  8
0
 10
-89.0439
 20
45.3442
 11
-89.1963
 21
45.2335
  0
LINE
  8
0
 10
-89.1963
 20
45.2335
 11
-89.3613
 21
45.1428
  0
LINE
  8
0
 10
-89.3613
 20
45.1428
 11
-89.5365
 21
45.0734
  0
LINE
  8
0
 10
-89.5365
 20
45.0734
 11
-89.7189
 21
45.0266
  0
LINE
  8
0
 10
-89.7189
 20
45.0266
 11
-89.9058
 21
45.003
  0
LINE
  8
0
 10
-89.9058
 20
45.003
 11
-90.0942
 21
45.003
  0
LINE
  8
0
 10
89.9058
 20
45.003
 11
89.7189
 21
45.0266
  0
LINE
  8
0
 10
89.7189
 20
45.0266
 11
89.5365
 21
45.0734
  0
LINE
  8
0
 10
89.5365
 20
45.0734
 11
89.3613
 21
45.1428
  0
LINE
  8
0
 10
89.3613
 20
45.1428
 11
89.1963
 21
45.2335
  0
LINE
  8
0
 10
89.1963
 20
45.2335
 11
89.0439
 21
45.3442
  0
LINE
  8
0
 10
89.0439
 20
45.3442
 11
88.9065
 21
45.4732
  0
LINE
  8
0
 10
88.9065
 20
45.4732
 11
88.7865
 21
45.6183
  0
LINE
  8
0
 10
88.7865
 20
45.6183
 11
88.6855
 21
45.7774
  0
LINE
  8
0
 10
88.6855
 20
45.7774
 11
88.6053
 21
45.9478
  0
LINE
  8
0
 10
88.6053
 20
45.9478
 11
88.5471
 21
46.127
  0
LINE
  8
0
 10
88.5471
 20
46.127
 11
88.5118
 21
46.312
  0
LINE
  8
0
 10
88.5118
 20
46.312
 11
88.5
 21
46.5
  0
LINE
  8
0
 10
88.5
 20
46.5
 11
88.5118
 21
46.688
  0
LINE
  8
0
 10
88.5118
 20
46.688
 11
88.5471
 21
46.873
  0
LINE
  8
0
 10
88.5471
 20
46.873
 11
88.6053
 21
47.0522
  0
LINE
  8
0
 10
88.6053
 20
47.0522
 11
88.6855
 21
47.2226
  0
LINE
  8
0
 10
88.6855
 20
47.2226
 11
88.7865
 21
47.3817
  0
LINE
  8
0
 10
88.7865
 20
47.3817
 11
88.9065
 21
47.5268
  0
LINE
  8
0
 10
88.9065
 20
47.5268
 11
89.0439
 21
47.6558
  0
LINE
  8
0
 10
89.0439
 20
47.6558
 11
89.1963
 21
47.7665
  0
LINE
  8
0
 10
89.1963
 20
47.7665
 11
89.3613
 21
47.8573
  0
LINE
  8
0
 10
89.3613
 20
47.8573
 11
89.5365
 21
47.9266
  0
LINE
  8
0
 10
89.5365
 20
47.9266
 11
89.7189
 21
47.9734
  0
LINE
  8
0
 10
89.7189
 20
47.9734
 11
89.9058
 21
47.9971
  0
LINE
  8
0
 10
89.9058
 20
47.9971
 11
90.0942
 21
47.9971
  0
LINE
  8
0
 10
90.0942
 20
47.9971
 11
90.2811
 21
47.9734
  0
LINE
  8
0
 10
90.2811
 20
47.9734
 11
90.4635
 21
47.9266
  0
LINE
  8
0
 10
90.4635
 20
47.9266
 11
90.6387
 21
47.8573
  0
LINE
  8
0
 10
90.6387
 20
47.8573
 11
90.8037
 21
47.7665
  0
LINE
  8
0
 10
90.8037
 20
47.7665
 11
90.9561
 21
47.6558
  0
LINE
  8
0
 10
90.9561
 20
47.6558
 11
91.0934
 21
47.5268
  0
LINE
  8
0
 10
91.0934
 20
47.5268
 11
91.2135
 21
47.3817
  0
LINE
  8
0
 10
91.2135
 20
47.3817
 11
91.3145
 21
47.2226
  0
LINE
  8
0
 10
91.3145
 20
47.2226
 11
91.3947
 21
47.0522
  0
LINE
  8
0
 10
91.3947
 20
47.0522
 11
91.4529
 21
46.873
  0
LINE
  8
0
 10
91.4529
 20
46.873
 11
91.4882
 21
46.688
  0
LINE
  8
0
 10
91.4882
 20
46.688
 11
91.5
 21
46.5
  0
LINE
  8
0
 10
91.5
 20
46.5
 11
91.4882
 21
46.312
  0
LINE
  8
0
 10
91.4882
 20
46.312
 11
91.4529
 21
46.127
  0
LINE
  8
0
 10
91.4529
 20
46.127
 11
91.3947
 21
45.9478
  0
LINE
  8
0
 10
91.3947
 20
45.9478
 11
91.3145
 21
45.7774
  0
LINE
  8
0
 10
91.3145
 20
45.7774
 11
91.2135
 21
45.6183
  0
LINE
  8
0
 10
91.2135
 20
45.6183
 11
91.0934
 21
45.4732
  0
LINE
  8
0
 10
91.0934
 20
45.4732
 11
90.9561
 21
45.3442
  0
LINE
  8
0
 10
90.9561
 20
45.3442
 11
90.8037
 21
45.2335
  0
LINE
  8
0
 10
90.8037
 20
45.2335
 11
90.6387
 21
45.1428
  0
LINE
  8
0
 10
90.6387
 20
45.1428
 11
90.4635
 21
45.0734
  0
LINE
  8
0
 10
90.4635
 20
45.0734
 11
90.2811
 21
45.0266
  0
LINE
  8
0
 10
90.2811
 20
45.0266
 11
90.0942
 21
45.003
  0
LINE
  8
0
 10
90.0942
 20
45.003
 11
89.9058
 21
45.003
  0
LINE
  8
0
 10
89.8116
 20
36.0059
 11
89.4379
 21
36.0531
  0
LINE
  8
0
 10
89.4379
 20
36.0531
 11
89.073
 21
36.1468
  0
LINE
  8
0
 10
89.073
 20
36.1468
 11
88.7227
 21
36.2855
  0
LINE
  8
0
 10
88.7227
 20
36.2855
 11
88.3925
 21
36.467
  0
LINE
  8
0
 10
88.3925
 20
36.467
 11
88.0877
 21
36.6885
  0
LINE
  8
0
 10
88.0877
 20
36.6885
 11
87.8131
 21
36.9464
  0
LINE
  8
0
 10
87.8131
 20
36.9464
 11
87.573
 21
37.2366
  0
LINE
  8
0
 10
87.573
 20
37.2366
 11
87.3711
 21
37.5547
  0
LINE
  8
0
 10
87.3711
 20
37.5547
 11
87.2107
 21
37.8956
  0
LINE
  8
0
 10
87.2107
 20
37.8956
 11
87.0943
 21
38.2539
  0
LINE
  8
0
 10
87.0943
 20
38.2539
 11
87.0237
 21
38.624
  0
LINE
  8
0
 10
87.0237
 20
38.624
 11
87
 21
39
  0
LINE
  8
0
 10
87
 20
39
 11
87.0237
 21
39.376
  0
LINE
  8
0
 10
87.0237
 20
39.376
 11
87.0943
 21
39.7461
  0
LINE
  8
0
 10
87.0943
 20
39.7461
 11
87.2107
 21
40.1044
  0
LINE
  8
0
 10
87.2107
 20
40.1044
 11
87.3711
 21
40.4453
  0
LINE
  8
0
 10
87.3711
 20
40.4453
 11
87.573
 21
40.7634
  0
LINE
  8
0
 10
87.573
 20
40.7634
 11
87.8131
 21
41.0536
  0
LINE
  8
0
 10
87.8131
 20
41.0536
 11
88.0877
 21
41.3116
  0
LINE
  8
0
 10
88.0877
 20
41.3116
 11
88.3925
 21
41.533
  0
LINE
  8
0
 10
88.3925
 20
41.533
 11
88.7227
 21
41.7145
  0
LINE
  8
0
 10
88.7227
 20
41.7145
 11
89.073
 21
41.8532
  0
LINE
  8
0
 10
89.073
 20
41.8532
 11
89.4379
 21
41.9469
  0
LINE
  8
0
 10
89.4379
 20
41.9469
 11
89.8116
 21
41.9941
  0
LINE
  8
0
 10
89.8116
 20
41.9941
 11
90.1884
 21
41.9941
  0
LINE
  8
0
 10
90.1884
 20
41.9941
 11
90.5621
 21
41.9469
  0
LINE
  8
0
 10
90.5621
 20
41.9469
 11
90.927
 21
41.8532
  0
LINE
  8
0
 10
90.927
 20
41.8532
 11
91.2773
 21
41.7145
  0
LINE
  8
0
 10
91.2773
 20
41.7145
 11
91.6075
 21
41.533
  0
LINE
  8
0
 10
91.6075
 20
41.533
 11
91.9123
 21
41.3116
  0
LINE
  8
0
 10
91.9123
 20
41.3116
 11
92.1869
 21
41.0536
  0
LINE
  8
0
 10
92.1869
 20
41.0536
 11
92.427
 21
40.7634
  0
LINE
  8
0
 10
92.427
 20
40.7634
 11
92.6289
 21
40.4453
  0
LINE
  8
0
 10
92.6289
 20
40.4453
 11
92.7893
 21
40.1044
  0
LINE
  8
0
 10
92.7893
 20
40.1044
 11
92.9057
 21
39.7461
  0
LINE
  8
0
 10
92.9057
 20
39.7461
 11
92.9763
 21
39.376
  0
LINE
  8
0
 10
92.9763
 20
39.376
 11
93
 21
39
  0
LINE
  8
0
 10
93
 20
39
 11
92.9763
 21
38.624
  0
LINE
  8
0
 10
92.9763
 20
38.624
 11
92.9057
 21
38.2539
  0
LINE
  8
0
 10
92.9057
 20
38.2539
 11
92.7893
 21
37.8956
  0
LINE
  8
0
 10
92.7893
 20
37.8956
 11
92.6289
 21
37.5547
  0
LINE
  8
0
 10
92.6289
 20
37.5547
 11
92.427
 21
37.2366
  0
LINE
  8
0
 10
92.427
 20
37.2366
 11
92.1869
 21
36.9464
  0
LINE
  8
0
 10
92.1869
 20
36.9464
 11
91.9123
 21
36.6885
  0
LINE
  8
0
 10
91.9123
 20
36.6885
 11
91.6075
 21
36.467
  0
LINE
  8
0
 10
91.6075
 20
36.467
 11
91.2773
 21
36.2855
  0
LINE
  8
0
 10
91.2773
 20
36.2855
 11
90.927
 21
36.1468
  0
LINE
  8
0
 10
90.927
 20
36.1468
 11
90.5621
 21
36.0531
  0
LINE
  8
0
 10
90.5621
 20
36.0531
 11
90.1884
 21
36.0059
  0
LINE
  8
0
 10
90.1884
 20
36.0059
 11
89.8116
 21
36.0059
  0
LINE
  8
0
 10
-90.1884
 20
36.0059
 11
-90.5621
 21
36.0531
  0
LINE
  8
0
 10
-90.5621
 20
36.0531
 11
-90.927
 21
36.1468
  0
LINE
  8
0
 10
-90.927
 20
36.1468
 11
-91.2773
 21
36.2855
  0
LINE
  8
0
 10
-91.2773
 20
36.2855
 11
-91.6075
 21
36.467
  0
LINE
  8
0
 10
-91.6075
 20
36.467
 11
-91.9123
 21
36.6885
  0
LINE
  8
0
 10
-91.9123
 20
36.6885
 11
-92.1869
 21
36.9464
  0
LINE
  8
0
 10
-92.1869
 20
36.9464
 11
-92.427
 21
37.2366
  0
LINE
  8
0
 10
-92.427
 20
37.2366
 11
-92.6289
 21
37.5547
  0
LINE
  8
0
 10
-92.6289
 20
37.5547
 11
-92.7893
 21
37.8956
  0
LINE
  8
0
 10
-92.7893
 20
37.8956
 11
-92.9057
 21
38.2539
  0
LINE
  8
0
 10
-92.9057
 20
38.2539
 11
-92.9763
 21
38.624
  0
LINE
  8
0
 10
-92.9763
 20
38.624
 11
-93
 21
39
  0
LINE
  8
0
 10
-93
 20
39
 11
-92.9763
 21
39.376
  0
LINE
  8
0
 10
-92.9763
 20
39.376
 11
-92.9057
 21
39.7461
  0
LINE
  8
0
 10
-92.9057
 20
39.7461
 11
-92.7893
 21
40.1044
  0
LINE
  8
0
 10
-92.7893
 20
40.1044
 11
-92.6289
 21
40.4453
  0
LINE
  8
0
 10
-92.6289
 20
40.4453
 11
-92.427
 21
40.7634
  0
LINE
  8
0
 10
-92.427
 20
40.7634
 11
-92.1869
 21
41.0536
  0
LINE
  8
0
 10
-92.1869
 20
41.0536
 11
-91.9123
 21
41.3116
  0
LINE
  8
0
 10
-91.9123
 20
41.3116
 11
-91.6075
 21
41.533
  0
LINE
  8
0
 10
-91.6075
 20
41.533
 11
-91.2773
 21
41.7145
  0
LINE
  8
0
 10
-91.2773
 20
41.7145
 11
-90.927
 21
41.8532
  0
LINE
  8
0
 10
-90.927
 20
41.8532
 11
-90.5621
 21
41.9469
  0
LINE
  8
0
 10
-90.5621
 20
41.9469
 11
-90.1884
 21
41.9941
  0
LINE
  8
0
 10
-90.1884
 20
41.9941
 11
-89.8116
 21
41.9941
  0
LINE
  8
0
 10
-89.8116
 20
41.9941
 11
-89.4379
 21
41.9469
  0
LINE
  8
0
 10
-89.4379
 20
41.9469
 11
-89.073
 21
41.8532
  0
LINE
  8
0
 10
-89.073
 20
41.8532
 11
-88.7227
 21
41.7145
  0
LINE
  8
0
 10
-88.7227
 20
41.7145
 11
-88.3925
 21
41.533
  0
LINE
  8
0
 10
-88.3925
 20
41.533
 11
-88.0877
 21
41.3116
  0
LINE
  8
0
 10
-88.0877
 20
41.3116
 11
-87.8131
 21
41.0536
  0
LINE
  8
0
 10
-87.8131
 20
41.0536
 11
-87.573
 21
40.7634
  0
LINE
  8
0
 10
-87.573
 20
40.7634
 11
-87.3711
 21
40.4453
  0
LINE
  8
0
 10
-87.3711
 20
40.4453
 11
-87.2107
 21
40.1044
  0
LINE
  8
0
 10
-87.2107
 20
40.1044
 11
-87.0943
 21
39.7461
  0
LINE
  8
0
 10
-87.0943
 20
39.7461
 11
-87.0237
 21
39.376
  0
LINE
  8
0
 10
-87.0237
 20
39.376
 11
-87
 21
39
  0
LINE
  8
0
 10
-87
 20
39
 11
-87.0237
 21
38.624
  0
LINE
  8
0
 10
-87.0237
 20
38.624
 11
-87.0943
 21
38.2539
  0
LINE
  8
0
 10
-87.0943
 20
38.2539
 11
-87.2107
 21
37.8956
  0
LINE
  8
0
 10
-87.2107
 20
37.8956
 11
-87.3711
 21
37.5547
  0
LINE
  8
0
 10
-87.3711
 20
37.5547
 11
-87.573
 21
37.2366
  0
LINE
  8
0
 10
-87.573
 20
37.2366
 11
-87.8131
 21
36.9464
  0
LINE
  8
0
 10
-87.8131
 20
36.9464
 11
-88.0877
 21
36.6885
  0
LINE
  8
0
 10
-88.0877
 20
36.6885
 11
-88.3925
 21
36.467
  0
LINE
  8
0
 10
-88.3925
 20
36.467
 11
-88.7227
 21
36.2855
  0
LINE
  8
0
 10
-88.7227
 20
36.2855
 11
-89.073
 21
36.1468
  0
LINE
  8
0
 10
-89.073
 20
36.1468
 11
-89.4379
 21
36.0531
  0
LINE
  8
0
 10
-89.4379
 20
36.0531
 11
-89.8116
 21
36.0059
  0
LINE
  8
0
 10
-89.8116
 20
36.0059
 11
-90.1884
 21
36.0059
  0
ENDSEC
  0
SECTION
  2
OBJECTS
  0
DICTIONARY
  0
ENDSEC
  0
EOF
