<?xml version="1.0" standalone="no"?>
<!DOCTYPE svg PUBLIC "-//W3C//DTD SVG 1.1//EN" "http://www.w3.org/Graphics/SVG/1.1/DTD/svg11.dtd">
<svg width="270mm" height="74mm" viewBox="-135 -37 270 74" xmlns="http://www.w3.org/2000/svg" version="1.1">
<title>OpenSCAD Model</title>
<path d="
M 130.437,36.9114 L 131.045,36.7553 L 131.629,36.5241 L 132.179,36.2216 L 132.687,35.8526 L 133.145,35.4227
 L 133.545,34.9389 L 133.882,34.4088 L 134.149,33.8406 L 134.343,33.2434 L 134.461,32.6267 L 134.5,32
 L 134.5,-32 L 134.461,-32.6267 L 134.343,-33.2434 L 134.149,-33.8406 L 133.882,-34.4088 L 133.545,-34.9389
 L 133.145,-35.4227 L 132.687,-35.8526 L 132.179,-36.2216 L 131.629,-36.5241 L 131.045,-36.7553 L 130.437,-36.9114
 L 129.814,-36.9901 L -129.814,-36.9901 L -130.437,-36.9114 L -131.045,-36.7553 L -131.629,-36.5241 L -132.179,-36.2216
 L -132.687,-35.8526 L -133.145,-35.4227 L -133.545,-34.9389 L -133.882,-34.4088 L -134.149,-33.8406 L -134.343,-33.2434
 L -134.461,-32.6267 L -134.5,-32 L -134.5,32 L -134.461,32.6267 L -134.343,33.2434 L -134.149,33.8406
 L -133.882,34.4088 L -133.545,34.9389 L -133.145,35.4227 L -132.687,35.8526 L -132.179,36.2216 L -131.629,36.5241
 L -131.045,36.7553 L -130.437,36.9114 L -129.814,36.9901 L 129.814,36.9901 z
M 127.312,-27.0059 L 126.938,-27.0531 L 126.573,-27.1468 L 126.223,-27.2855 L 125.893,-27.467 L 125.588,-27.6884
 L 125.313,-27.9464 L 125.073,-28.2366 L 124.871,-28.5547 L 124.711,-28.8956 L 124.594,-29.2539 L 124.524,-29.624
 L 124.5,-30 L 124.524,-30.376 L 124.594,-30.7461 L 124.711,-31.1044 L 124.871,-31.4453 L 125.073,-31.7634
 L 125.313,-32.0536 L 125.588,-32.3115 L 125.893,-32.533 L 126.223,-32.7145 L 126.573,-32.8532 L 126.938,-32.9469
 L 127.312,-32.9941 L 127.688,-32.9941 L 128.062,-32.9469 L 128.427,-32.8532 L 128.777,-32.7145 L 129.107,-32.533
 L 129.412,-32.3115 L 129.687,-32.0536 L 129.927,-31.7634 L 130.129,-31.4453 L 130.289,-31.1044 L 130.406,-30.7461
 L 130.476,-30.376 L 130.5,-30 L 130.476,-29.624 L 130.406,-29.2539 L 130.289,-28.8956 L 130.129,-28.5547
 L 129.927,-28.2366 L 129.687,-27.9464 L 129.412,-27.6884 L 129.107,-27.467 L 128.777,-27.2855 L 128.427,-27.1468
 L 128.062,-27.0531 L 127.688,-27.0059 z
M -127.688,-27.0059 L -128.062,-27.0531 L -128.427,-27.1468 L -128.777,-27.2855 L -129.107,-27.467 L -129.412,-27.6884
 L -129.687,-27.9464 L -129.927,-28.2366 L -130.129,-28.5547 L -130.289,-28.8956 L -130.406,-29.2539 L -130.476,-29.624
 L -130.5,-30 L -130.476,-30.376 L -130.406,-30.7461 L -130.289,-31.1044 L -130.129,-31.4453 L -129.927,-31.7634
 L -129.687,-32.0536 L -129.412,-32.3115 L -129.107,-32.533 L -128.777,-32.7145 L -128.427,-32.8532 L -128.062,-32.9469
 L -127.688,-32.9941 L -127.312,-32.9941 L -126.938,-32.9469 L -126.573,-32.8532 L -126.223,-32.7145 L -125.893,-32.533
 L -125.588,-32.3115 L -125.313,-32.0536 L -125.073,-31.7634 L -124.871,-31.4453 L -124.711,-31.1044 L -124.594,-30.7461
 L -124.524,-30.376 L -124.5,-30 L -124.524,-29.624 L -124.594,-29.2539 L -124.711,-28.8956 L -124.871,-28.5547
 L -125.073,-28.2366 L -125.313,-27.9464 L -125.588,-27.6884 L -125.893,-27.467 L -126.223,-27.2855 L -126.573,-27.1468
 L -126.938,-27.0531 L -127.312,-27.0059 z
M 98.5535,30.9388 L 94.6912,30.4509 L 90.9205,29.4827 L 87.3008,28.0496 L 83.8894,26.1742 L 80.7399,23.8859
 L 77.902,21.2209 L 75.4205,18.2213 L 73.3345,14.9344 L 71.6769,11.4118 L 70.4739,7.70938 L 69.7444,3.88533
 L 69.5,-0 L 69.7444,-3.88533 L 70.4739,-7.70938 L 71.6769,-11.4118 L 73.3345,-14.9344 L 75.4205,-18.2213
 L 77.902,-21.2209 L 80.7399,-23.8859 L 83.8894,-26.1742 L 87.3008,-28.0496 L 90.9205,-29.4827 L 94.6912,-30.4509
 L 98.5535,-30.9388 L 102.447,-30.9388 L 106.309,-30.4509 L 110.08,-29.4827 L 113.699,-28.0496 L 117.111,-26.1742
 L 120.26,-23.8859 L 123.098,-21.2209 L 125.58,-18.2213 L 127.665,-14.9344 L 129.323,-11.4118 L 130.526,-7.70938
 L 131.256,-3.88533 L 131.5,-0 L 131.256,3.88533 L 130.526,7.70938 L 129.323,11.4118 L 127.665,14.9344
 L 125.58,18.2213 L 123.098,21.2209 L 120.26,23.8859 L 117.111,26.1742 L 113.699,28.0496 L 110.08,29.4827
 L 106.309,30.4509 L 102.447,30.9388 z
M 31.5535,30.9388 L 27.6912,30.4509 L 23.9205,29.4827 L 20.3008,28.0496 L 16.8894,26.1742 L 13.7399,23.8859
 L 10.902,21.2209 L 8.42047,18.2213 L 6.33449,14.9344 L 4.67693,11.4118 L 3.47391,7.70938 L 2.74443,3.88533
 L 2.5,-0 L 2.74443,-3.88533 L 3.47391,-7.70938 L 4.67693,-11.4118 L 6.33449,-14.9344 L 8.42047,-18.2213
 L 10.902,-21.2209 L 13.7399,-23.8859 L 16.8894,-26.1742 L 20.3008,-28.0496 L 23.9205,-29.4827 L 27.6912,-30.4509
 L 31.5535,-30.9388 L 35.4465,-30.9388 L 39.3088,-30.4509 L 43.0795,-29.4827 L 46.6992,-28.0496 L 50.1106,-26.1742
 L 53.2601,-23.8859 L 56.098,-21.2209 L 58.5795,-18.2213 L 60.6655,-14.9344 L 62.3231,-11.4118 L 63.5261,-7.70938
 L 64.2556,-3.88533 L 64.5,-0 L 64.2556,3.88533 L 63.5261,7.70938 L 62.3231,11.4118 L 60.6655,14.9344
 L 58.5795,18.2213 L 56.098,21.2209 L 53.2601,23.8859 L 50.1106,26.1742 L 46.6992,28.0496 L 43.0795,29.4827
 L 39.3088,30.4509 L 35.4465,30.9388 z
M -102.447,30.9388 L -106.309,30.4509 L -110.08,29.4827 L -113.699,28.0496 L -117.111,26.1742 L -120.26,23.8859
 L -123.098,21.2209 L -125.58,18.2213 L -127.665,14.9344 L -129.323,11.4118 L -130.526,7.70938 L -131.256,3.88533
 L -131.5,-0 L -131.256,-3.88533 L -130.526,-7.70938 L -129.323,-11.4118 L -127.665,-14.9344 L -125.58,-18.2213
 L -123.098,-21.2209 L -120.26,-23.8859 L -117.111,-26.1742 L -113.699,-28.0496 L -110.08,-29.4827 L -106.309,-30.4509
 L -102.447,-30.9388 L -98.5535,-30.9388 L -94.6912,-30.4509 L -90.9205,-29.4827 L -87.3008,-28.0496 L -83.8894,-26.1742
 L -80.7399,-23.8859 L -77.902,-21.2209 L -75.4205,-18.2213 L -73.3345,-14.9344 L -71.6769,-11.4118 L -70.4739,-7.70938
 L -69.7444,-3.88533 L -69.5,-0 L -69.7444,3.88533 L -70.4739,7.70938 L -71.6769,11.4118 L -73.3345,14.9344
 L -75.4205,18.2213 L -77.902,21.2209 L -80.7399,23.8859 L -83.8894,26.1742 L -87.3008,28.0496 L -90.9205,29.4827
 L -94.6912,30.4509 L -98.5535,30.9388 z
M -35.4465,30.9388 L -39.3088,30.4509 L -43.0795,29.4827 L -46.6992,28.0496 L -50.1106,26.1742 L -53.2601,23.8859
 L -56.098,21.2209 L -58.5795,18.2213 L -60.6655,14.9344 L -62.3231,11.4118 L -63.5261,7.70938 L -64.2556,3.88533
 L -64.5,-0 L -64.2556,-3.88533 L -63.5261,-7.70938 L -62.3231,-11.4118 L -60.6655,-14.9344 L -58.5795,-18.2213
 L -56.098,-21.2209 L -53.2601,-23.8859 L -50.1106,-26.1742 L -46.6992,-28.0496 L -43.0795,-29.4827 L -39.3088,-30.4509
 L -35.4465,-30.9388 L -31.5535,-30.9388 L -27.6912,-30.4509 L -23.9205,-29.4827 L -20.3008,-28.0496 L -16.8894,-26.1742
 L -13.7399,-23.8859 L -10.902,-21.2209 L -8.42047,-18.2213 L -6.33449,-14.9344 L -4.67693,-11.4118 L -3.47391,-7.70938
 L -2.74443,-3.88533 L -2.5,-0 L -2.74443,3.88533 L -3.47391,7.70938 L -4.67693,11.4118 L -6.33449,14.9344
 L -8.42047,18.2213 L -10.902,21.2209 L -13.7399,23.8859 L -16.8894,26.1742 L -20.3008,28.0496 L -23.9205,29.4827
 L -27.6912,30.4509 L -31.5535,30.9388 z
M 127.312,32.9941 L 126.938,32.9469 L 126.573,32.8532 L 126.223,32.7145 L 125.893,32.533 L 125.588,32.3115
 L 125.313,32.0536 L 125.073,31.7634 L 124.871,31.4453 L 124.711,31.1044 L 124.594,30.7461 L 124.524,30.376
 L 124.5,30 L 124.524,29.624 L 124.594,29.2539 L 124.711,28.8956 L 124.871,28.5547 L 125.073,28.2366
 L 125.313,27.9464 L 125.588,27.6884 L 125.893,27.467 L 126.223,27.2855 L 126.573,27.1468 L 126.938,27.0531
 L 127.312,27.0059 L 127.688,27.0059 L 128.062,27.0531 L 128.427,27.1468 L 128.777,27.2855 L 129.107,27.467
 L 129.412,27.6884 L 129.687,27.9464 L 129.927,28.2366 L 130.129,28.5547 L 130.289,28.8956 L 130.406,29.2539
 L 130.476,29.624 L 130.5,30 L 130.476,30.376 L 130.406,30.7461 L 130.289,31.1044 L 130.129,31.4453
 L 129.927,31.7634 L 129.687,32.0536 L 129.412,32.3115 L 129.107,32.533 L 128.777,32.7145 L 128.427,32.8532
 L 128.062,32.9469 L 127.688,32.9941 z
M -127.688,32.9941 L -128.062,32.9469 L -128.427,32.8532 L -128.777,32.7145 L -129.107,32.533 L -129.412,32.3115
 L -129.687,32.0536 L -129.927,31.7634 L -130.129,31.4453 L -130.289,31.1044 L -130.406,30.7461 L -130.476,30.376
 L -130.5,30 L -130.476,29.624 L -130.406,29.2539 L -130.289,28.8956 L -130.129,28.5547 L -129.927,28.2366
 L -129.687,27.9464 L -129.412,27.6884 L -129.107,27.467 L -128.777,27.2855 L -128.427,27.1468 L -128.062,27.0531
 L -127.688,27.0059 L -127.312,27.0059 L -126.938,27.0531 L -126.573,27.1468 L -126.223,27.2855 L -125.893,27.467
 L -125.588,27.6884 L -125.313,27.9464 L -125.073,28.2366 L -124.871,28.5547 L -124.711,28.8956 L -124.594,29.2539
 L -124.524,29.624 L -124.5,30 L -124.524,30.376 L -124.594,30.7461 L -124.711,31.1044 L -124.871,31.4453
 L -125.073,31.7634 L -125.313,32.0536 L -125.588,32.3115 L -125.893,32.533 L -126.223,32.7145 L -126.573,32.8532
 L -126.938,32.9469 L -127.312,32.9941 z
" stroke="black" fill="lightgray" stroke-width="0.5"/>
</svg>
