<?xml version="1.0" standalone="no"?>
<!DOCTYPE svg PUBLIC "-//W3C//DTD SVG 1.1//EN" "http://www.w3.org/Graphics/SVG/1.1/DTD/svg11.dtd">
<svg width="74mm" height="30mm" viewBox="-37 -54 74 30" xmlns="http://www.w3.org/2000/svg" version="1.1">
<title>OpenSCAD Model</title>
<path d="
M 32.9369,-24.5886 L 33.5451,-24.7447 L 34.1289,-24.9759 L 34.6791,-25.2784 L 35.1871,-25.6474 L 35.6448,-26.0773
 L 36.0451,-26.5611 L 36.3815,-27.0912 L 36.6489,-27.6594 L 36.8429,-28.2566 L 36.9606,-28.8733 L 37,-29.5
 L 37,-48.5 L 36.9606,-49.1267 L 36.8429,-49.7434 L 36.6489,-50.3406 L 36.3815,-50.9088 L 36.0451,-51.4389
 L 35.6448,-51.9227 L 35.1871,-52.3526 L 34.6791,-52.7216 L 34.1289,-53.0241 L 33.5451,-53.2553 L 32.9369,-53.4114
 L 32.3139,-53.4901 L -32.3139,-53.4901 L -32.9369,-53.4114 L -33.5451,-53.2553 L -34.1289,-53.0241 L -34.6791,-52.7216
 L -35.1871,-52.3526 L -35.6448,-51.9227 L -36.0451,-51.4389 L -36.3815,-50.9088 L -36.6489,-50.3406 L -36.8429,-49.7434
 L -36.9606,-49.1267 L -37,-48.5 L -37,-29.5 L -36.9606,-28.8733 L -36.8429,-28.2566 L -36.6489,-27.6594
 L -36.3815,-27.0912 L -36.0451,-26.5611 L -35.6448,-26.0773 L -35.1871,-25.6474 L -34.6791,-25.2784 L -34.1289,-24.9759
 L -33.5451,-24.7447 L -32.9369,-24.5886 L -32.3139,-24.5099 L 32.3139,-24.5099 z
M -30.1884,-28.5059 L -30.5621,-28.5531 L -30.927,-28.6468 L -31.2773,-28.7855 L -31.6075,-28.967 L -31.9123,-29.1885
 L -32.1869,-29.4464 L -32.427,-29.7366 L -32.6289,-30.0547 L -32.7893,-30.3956 L -32.9057,-30.7539 L -32.9763,-31.124
 L -33,-31.5 L -32.9763,-31.876 L -32.9057,-32.2461 L -32.7893,-32.6044 L -32.6289,-32.9453 L -32.427,-33.2634
 L -32.1869,-33.5536 L -31.9123,-33.8116 L -31.6075,-34.033 L -31.2773,-34.2145 L -30.927,-34.3532 L -30.5621,-34.4469
 L -30.1884,-34.4941 L -29.8116,-34.4941 L -29.4379,-34.4469 L -29.3844,-34.4332 L -29.8738,-34.8927 L -30.3541,-35.4733
 L -30.7578,-36.1095 L -31.0787,-36.7913 L -31.3115,-37.5079 L -31.4527,-38.248 L -31.5,-39 L -31.4527,-39.752
 L -31.3115,-40.4921 L -31.0787,-41.2087 L -30.7578,-41.8905 L -30.3541,-42.5267 L -29.8738,-43.1073 L -29.3844,-43.5668
 L -29.4379,-43.5531 L -29.8116,-43.5059 L -30.1884,-43.5059 L -30.5621,-43.5531 L -30.927,-43.6468 L -31.2773,-43.7855
 L -31.6075,-43.967 L -31.9123,-44.1884 L -32.1869,-44.4464 L -32.427,-44.7366 L -32.6289,-45.0547 L -32.7893,-45.3956
 L -32.9057,-45.7539 L -32.9763,-46.124 L -33,-46.5 L -32.9763,-46.876 L -32.9057,-47.2461 L -32.7893,-47.6044
 L -32.6289,-47.9453 L -32.427,-48.2634 L -32.1869,-48.5536 L -31.9123,-48.8115 L -31.6075,-49.033 L -31.2773,-49.2145
 L -30.927,-49.3532 L -30.5621,-49.4469 L -30.1884,-49.4941 L -29.8116,-49.4941 L -29.4379,-49.4469 L -29.0729,-49.3532
 L -28.7227,-49.2145 L -28.3925,-49.033 L -28.0877,-48.8115 L -27.8131,-48.5536 L -27.5729,-48.2634 L -27.3711,-47.9453
 L -27.2107,-47.6044 L -27.0942,-47.2461 L -27.0237,-46.876 L -27,-46.5 L -27.0237,-46.124 L -27.0942,-45.7539
 L -27.2107,-45.3956 L -27.3711,-45.0547 L -27.5729,-44.7366 L -27.7168,-44.5627 L -27.3541,-44.7063 L -26.6243,-44.8937
 L -25.8767,-44.9882 L -25.1232,-44.9882 L -24.3757,-44.8937 L -23.6459,-44.7063 L -22.9453,-44.429 L -22.285,-44.066
 L -21.6754,-43.6231 L -21.1262,-43.1073 L -20.6459,-42.5267 L -20.2422,-41.8905 L -19.9213,-41.2087 L -19.6885,-40.4921
 L -19.5473,-39.752 L -19.5,-39 L -19.5473,-38.248 L -19.6885,-37.5079 L -19.9213,-36.7913 L -20.2422,-36.1095
 L -20.6459,-35.4733 L -21.1262,-34.8927 L -21.6754,-34.3769 L -22.285,-33.934 L -22.9453,-33.571 L -23.6459,-33.2937
 L -24.3757,-33.1063 L -25.1232,-33.0118 L -25.8767,-33.0118 L -26.6243,-33.1063 L -27.3541,-33.2937 L -27.7168,-33.4373
 L -27.5729,-33.2634 L -27.3711,-32.9453 L -27.2107,-32.6044 L -27.0942,-32.2461 L -27.0237,-31.876 L -27,-31.5
 L -27.0237,-31.124 L -27.0942,-30.7539 L -27.2107,-30.3956 L -27.3711,-30.0547 L -27.5729,-29.7366 L -27.8131,-29.4464
 L -28.0877,-29.1885 L -28.3925,-28.967 L -28.7227,-28.7855 L -29.0729,-28.6468 L -29.4379,-28.5531 L -29.8116,-28.5059
 z
M 29.8116,-28.5059 L 29.4379,-28.5531 L 29.0729,-28.6468 L 28.7227,-28.7855 L 28.3925,-28.967 L 28.0877,-29.1885
 L 27.8131,-29.4464 L 27.5729,-29.7366 L 27.3711,-30.0547 L 27.2107,-30.3956 L 27.0942,-30.7539 L 27.0237,-31.124
 L 27,-31.5 L 27.0237,-31.876 L 27.0942,-32.2461 L 27.2107,-32.6044 L 27.3711,-32.9453 L 27.5729,-33.2634
 L 27.7168,-33.4373 L 27.3541,-33.2937 L 26.6243,-33.1063 L 25.8767,-33.0118 L 25.1232,-33.0118 L 24.3757,-33.1063
 L 23.6459,-33.2937 L 22.9453,-33.571 L 22.285,-33.934 L 21.6754,-34.3769 L 21.1262,-34.8927 L 20.6459,-35.4733
 L 20.2422,-36.1095 L 19.9213,-36.7913 L 19.6885,-37.5079 L 19.5473,-38.248 L 19.5,-39 L 19.5473,-39.752
 L 19.6885,-40.4921 L 19.9213,-41.2087 L 20.2422,-41.8905 L 20.6459,-42.5267 L 21.1262,-43.1073 L 21.6754,-43.6231
 L 22.285,-44.066 L 22.9453,-44.429 L 23.6459,-44.7063 L 24.3757,-44.8937 L 25.1232,-44.9882 L 25.8767,-44.9882
 L 26.6243,-44.8937 L 27.3541,-44.7063 L 27.7168,-44.5627 L 27.5729,-44.7366 L 27.3711,-45.0547 L 27.2107,-45.3956
 L 27.0942,-45.7539 L 27.0237,-46.124 L 27,-46.5 L 27.0237,-46.876 L 27.0942,-47.2461 L 27.2107,-47.6044
 L 27.3711,-47.9453 L 27.5729,-48.2634 L 27.8131,-48.5536 L 28.0877,-48.8115 L 28.3925,-49.033 L 28.7227,-49.2145
 L 29.0729,-49.3532 L 29.4379,-49.4469 L 29.8116,-49.4941 L 30.1884,-49.4941 L 30.5621,-49.4469 L 30.927,-49.3532
 L 31.2773,-49.2145 L 31.6075,-49.033 L 31.9123,-48.8115 L 32.1869,-48.5536 L 32.427,-48.2634 L 32.6289,-47.9453
 L 32.7893,-47.6044 L 32.9057,-47.2461 L 32.9763,-46.876 L 33,-46.5 L 32.9763,-46.124 L 32.9057,-45.7539
 L 32.7893,-45.3956 L 32.6289,-45.0547 L 32.427,-44.7366 L 32.1869,-44.4464 L 31.9123,-44.1884 L 31.6075,-43.967
 L 31.2773,-43.7855 L 30.927,-43.6468 L 30.5621,-43.5531 L 30.1884,-43.5059 L 29.8116,-43.5059 L 29.4379,-43.5531
 L 29.3844,-43.5668 L 29.8738,-43.1073 L 30.3541,-42.5267 L 30.7578,-41.8905 L 31.0787,-41.2087 L 31.3115,-40.4921
 L 31.4527,-39.752 L 31.5,-39 L 31.4527,-38.248 L 31.3115,-37.5079 L 31.0787,-36.7913 L 30.7578,-36.1095
 L 30.3541,-35.4733 L 29.8738,-34.8927 L 29.3844,-34.4332 L 29.4379,-34.4469 L 29.8116,-34.4941 L 30.1884,-34.4941
 L 30.5621,-34.4469 L 30.927,-34.3532 L 31.2773,-34.2145 L 31.6075,-34.033 L 31.9123,-33.8116 L 32.1869,-33.5536
 L 32.427,-33.2634 L 32.6289,-32.9453 L 32.7893,-32.6044 L 32.9057,-32.2461 L 32.9763,-31.876 L 33,-31.5
 L 32.9763,-31.124 L 32.9057,-30.7539 L 32.7893,-30.3956 L 32.6289,-30.0547 L 32.427,-29.7366 L 32.1869,-29.4464
 L 31.9123,-29.1885 L 31.6075,-28.967 L 31.2773,-28.7855 L 30.927,-28.6468 L 30.5621,-28.5531 L 30.1884,-28.5059
 z
M 8.12325,-33.0118 L 7.3757,-33.1063 L 6.64589,-33.2937 L 5.94531,-33.571 L 5.28503,-33.934 L 4.67545,-34.3769
 L 4.12617,-34.8927 L 3.64589,-35.4733 L 3.24216,-36.1095 L 2.92134,-36.7913 L 2.68849,-37.5079 L 2.5473,-38.248
 L 2.5,-39 L 2.5473,-39.752 L 2.68849,-40.4921 L 2.92134,-41.2087 L 3.24216,-41.8905 L 3.64589,-42.5267
 L 4.12617,-43.1073 L 4.67545,-43.6231 L 5.28503,-44.066 L 5.94531,-44.429 L 6.64589,-44.7063 L 7.3757,-44.8937
 L 8.12325,-44.9882 L 8.87674,-44.9882 L 9.62428,-44.8937 L 10.3541,-44.7063 L 11.0547,-44.429 L 11.715,-44.066
 L 12.3245,-43.6231 L 12.8738,-43.1073 L 13.3541,-42.5267 L 13.7578,-41.8905 L 14.0786,-41.2087 L 14.3115,-40.4921
 L 14.4527,-39.752 L 14.5,-39 L 14.4527,-38.248 L 14.3115,-37.5079 L 14.0786,-36.7913 L 13.7578,-36.1095
 L 13.3541,-35.4733 L 12.8738,-34.8927 L 12.3245,-34.3769 L 11.715,-33.934 L 11.0547,-33.571 L 10.3541,-33.2937
 L 9.62428,-33.1063 L 8.87674,-33.0118 z
M -8.87674,-33.0118 L -9.62428,-33.1063 L -10.3541,-33.2937 L -11.0547,-33.571 L -11.715,-33.934 L -12.3245,-34.3769
 L -12.8738,-34.8927 L -13.3541,-35.4733 L -13.7578,-36.1095 L -14.0786,-36.7913 L -14.3115,-37.5079 L -14.4527,-38.248
 L -14.5,-39 L -14.4527,-39.752 L -14.3115,-40.4921 L -14.0786,-41.2087 L -13.7578,-41.8905 L -13.3541,-42.5267
 L -12.8738,-43.1073 L -12.3245,-43.6231 L -11.715,-44.066 L -11.0547,-44.429 L -10.3541,-44.7063 L -9.62428,-44.8937
 L -8.87674,-44.9882 L -8.12325,-44.9882 L -7.3757,-44.8937 L -6.64589,-44.7063 L -5.94531,-44.429 L -5.28503,-44.066
 L -4.67545,-43.6231 L -4.12617,-43.1073 L -3.64589,-42.5267 L -3.24216,-41.8905 L -2.92134,-41.2087 L -2.68849,-40.4921
 L -2.5473,-39.752 L -2.5,-39 L -2.5473,-38.248 L -2.68849,-37.5079 L -2.92134,-36.7913 L -3.24216,-36.1095
 L -3.64589,-35.4733 L -4.12617,-34.8927 L -4.67545,-34.3769 L -5.28503,-33.934 L -5.94531,-33.571 L -6.64589,-33.2937
 L -7.3757,-33.1063 L -8.12325,-33.0118 z
" stroke="black" fill="lightgray" stroke-width="0.5"/>
</svg>
