<?xml version="1.0" standalone="no"?>
<!DOCTYPE svg PUBLIC "-//W3C//DTD SVG 1.1//EN" "http://www.w3.org/Graphics/SVG/1.1/DTD/svg11.dtd">
<svg width="60mm" height="60mm" viewBox="-30 -30 60 60" xmlns="http://www.w3.org/2000/svg" version="1.1">
<title>OpenSCAD Model</title>
<path d="
M 25.4369,29.4114 L 26.0451,29.2553 L 26.6289,29.0241 L 27.1791,28.7216 L 27.6871,28.3526 L 28.1448,27.9227
 L 28.5451,27.4389 L 28.8815,26.9088 L 29.1489,26.3406 L 29.3429,25.7434 L 29.4606,25.1267 L 29.5,24.5
 L 29.5,-24.5 L 29.4606,-25.1267 L 29.3429,-25.7434 L 29.1489,-26.3406 L 28.8815,-26.9088 L 28.5451,-27.4389
 L 28.1448,-27.9227 L 27.6871,-28.3526 L 27.1791,-28.7216 L 26.6289,-29.0241 L 26.0451,-29.2553 L 25.4369,-29.4114
 L 24.8139,-29.4901 L -24.8139,-29.4901 L -25.4369,-29.4114 L -26.0451,-29.2553 L -26.6289,-29.0241 L -27.1791,-28.7216
 L -27.6871,-28.3526 L -28.1448,-27.9227 L -28.5451,-27.4389 L -28.8815,-26.9088 L -29.1489,-26.3406 L -29.3429,-25.7434
 L -29.4606,-25.1267 L -29.5,-24.5 L -29.5,24.5 L -29.4606,25.1267 L -29.3429,25.7434 L -29.1489,26.3406
 L -28.8815,26.9088 L -28.5451,27.4389 L -28.1448,27.9227 L -27.6871,28.3526 L -27.1791,28.7216 L -26.6289,29.0241
 L -26.0451,29.2553 L -25.4369,29.4114 L -24.8139,29.4901 L 24.8139,29.4901 z
M -22.6884,-19.5059 L -23.0621,-19.5531 L -23.427,-19.6468 L -23.7773,-19.7855 L -24.1075,-19.967 L -24.4123,-20.1884
 L -24.6869,-20.4464 L -24.927,-20.7366 L -25.1289,-21.0547 L -25.2893,-21.3956 L -25.4057,-21.7539 L -25.4763,-22.124
 L -25.5,-22.5 L -25.4763,-22.876 L -25.4057,-23.2461 L -25.2893,-23.6044 L -25.1289,-23.9453 L -24.927,-24.2634
 L -24.6869,-24.5536 L -24.4123,-24.8115 L -24.1075,-25.033 L -23.7773,-25.2145 L -23.427,-25.3532 L -23.0621,-25.4469
 L -22.6884,-25.4941 L -22.3116,-25.4941 L -21.9379,-25.4469 L -21.5729,-25.3532 L -21.2227,-25.2145 L -20.8925,-25.033
 L -20.5877,-24.8115 L -20.3131,-24.5536 L -20.0729,-24.2634 L -19.8711,-23.9453 L -19.7107,-23.6044 L -19.5942,-23.2461
 L -19.5237,-22.876 L -19.5,-22.5 L -19.5237,-22.124 L -19.5942,-21.7539 L -19.7107,-21.3956 L -19.8711,-21.0547
 L -20.0729,-20.7366 L -20.3131,-20.4464 L -20.5877,-20.1884 L -20.8925,-19.967 L -21.2227,-19.7855 L -21.5729,-19.6468
 L -21.9379,-19.5531 L -22.3116,-19.5059 z
M 22.3116,-19.5059 L 21.9379,-19.5531 L 21.5729,-19.6468 L 21.2227,-19.7855 L 20.8925,-19.967 L 20.5877,-20.1884
 L 20.3131,-20.4464 L 20.0729,-20.7366 L 19.8711,-21.0547 L 19.7107,-21.3956 L 19.5942,-21.7539 L 19.5237,-22.124
 L 19.5,-22.5 L 19.5237,-22.876 L 19.5942,-23.2461 L 19.7107,-23.6044 L 19.8711,-23.9453 L 20.0729,-24.2634
 L 20.3131,-24.5536 L 20.5877,-24.8115 L 20.8925,-25.033 L 21.2227,-25.2145 L 21.5729,-25.3532 L 21.9379,-25.4469
 L 22.3116,-25.4941 L 22.6884,-25.4941 L 23.0621,-25.4469 L 23.427,-25.3532 L 23.7773,-25.2145 L 24.1075,-25.033
 L 24.4123,-24.8115 L 24.6869,-24.5536 L 24.927,-24.2634 L 25.1289,-23.9453 L 25.2893,-23.6044 L 25.4057,-23.2461
 L 25.4763,-22.876 L 25.5,-22.5 L 25.4763,-22.124 L 25.4057,-21.7539 L 25.2893,-21.3956 L 25.1289,-21.0547
 L 24.927,-20.7366 L 24.6869,-20.4464 L 24.4123,-20.1884 L 24.1075,-19.967 L 23.7773,-19.7855 L 23.427,-19.6468
 L 23.0621,-19.5531 L 22.6884,-19.5059 z
M -1.22441,19.4615 L -3.65393,19.1546 L -6.02582,18.5456 L -8.30269,17.6441 L -10.4486,16.4644 L -12.4298,15.025
 L -14.2149,13.3487 L -15.7758,11.4618 L -17.088,9.3942 L -18.1306,7.17842 L -18.8874,4.84944 L -19.3462,2.44398
 L -19.5,-0 L -19.3462,-2.44398 L -18.8874,-4.84944 L -18.1306,-7.17842 L -17.088,-9.3942 L -15.7758,-11.4618
 L -14.2149,-13.3487 L -12.4298,-15.025 L -10.4486,-16.4644 L -8.30269,-17.6441 L -6.02582,-18.5456 L -3.65393,-19.1546
 L -1.22441,-19.4615 L 1.22441,-19.4615 L 3.65393,-19.1546 L 6.02582,-18.5456 L 8.30269,-17.6441 L 10.4486,-16.4644
 L 12.4298,-15.025 L 14.2149,-13.3487 L 15.7758,-11.4618 L 17.088,-9.3942 L 18.1306,-7.17842 L 18.8874,-4.84944
 L 19.3462,-2.44398 L 19.5,-0 L 19.3462,2.44398 L 18.8874,4.84944 L 18.1306,7.17842 L 17.088,9.3942
 L 15.7758,11.4618 L 14.2149,13.3487 L 12.4298,15.025 L 10.4486,16.4644 L 8.30269,17.6441 L 6.02582,18.5456
 L 3.65393,19.1546 L 1.22441,19.4615 z
M 22.3116,25.4941 L 21.9379,25.4469 L 21.5729,25.3532 L 21.2227,25.2145 L 20.8925,25.033 L 20.5877,24.8115
 L 20.3131,24.5536 L 20.0729,24.2634 L 19.8711,23.9453 L 19.7107,23.6044 L 19.5942,23.2461 L 19.5237,22.876
 L 19.5,22.5 L 19.5237,22.124 L 19.5942,21.7539 L 19.7107,21.3956 L 19.8711,21.0547 L 20.0729,20.7366
 L 20.3131,20.4464 L 20.5877,20.1884 L 20.8925,19.967 L 21.2227,19.7855 L 21.5729,19.6468 L 21.9379,19.5531
 L 22.3116,19.5059 L 22.6884,19.5059 L 23.0621,19.5531 L 23.427,19.6468 L 23.7773,19.7855 L 24.1075,19.967
 L 24.4123,20.1884 L 24.6869,20.4464 L 24.927,20.7366 L 25.1289,21.0547 L 25.2893,21.3956 L 25.4057,21.7539
 L 25.4763,22.124 L 25.5,22.5 L 25.4763,22.876 L 25.4057,23.2461 L 25.2893,23.6044 L 25.1289,23.9453
 L 24.927,24.2634 L 24.6869,24.5536 L 24.4123,24.8115 L 24.1075,25.033 L 23.7773,25.2145 L 23.427,25.3532
 L 23.0621,25.4469 L 22.6884,25.4941 z
M -22.6884,25.4941 L -23.0621,25.4469 L -23.427,25.3532 L -23.7773,25.2145 L -24.1075,25.033 L -24.4123,24.8115
 L -24.6869,24.5536 L -24.927,24.2634 L -25.1289,23.9453 L -25.2893,23.6044 L -25.4057,23.2461 L -25.4763,22.876
 L -25.5,22.5 L -25.4763,22.124 L -25.4057,21.7539 L -25.2893,21.3956 L -25.1289,21.0547 L -24.927,20.7366
 L -24.6869,20.4464 L -24.4123,20.1884 L -24.1075,19.967 L -23.7773,19.7855 L -23.427,19.6468 L -23.0621,19.5531
 L -22.6884,19.5059 L -22.3116,19.5059 L -21.9379,19.5531 L -21.5729,19.6468 L -21.2227,19.7855 L -20.8925,19.967
 L -20.5877,20.1884 L -20.3131,20.4464 L -20.0729,20.7366 L -19.8711,21.0547 L -19.7107,21.3956 L -19.5942,21.7539
 L -19.5237,22.124 L -19.5,22.5 L -19.5237,22.876 L -19.5942,23.2461 L -19.7107,23.6044 L -19.8711,23.9453
 L -20.0729,24.2634 L -20.3131,24.5536 L -20.5877,24.8115 L -20.8925,25.033 L -21.2227,25.2145 L -21.5729,25.3532
 L -21.9379,25.4469 L -22.3116,25.4941 z
" stroke="black" fill="lightgray" stroke-width="0.5"/>
</svg>
