<?xml version="1.0" standalone="no"?>
<!DOCTYPE svg PUBLIC "-//W3C//DTD SVG 1.1//EN" "http://www.w3.org/Graphics/SVG/1.1/DTD/svg11.dtd">
<svg width="630mm" height="134mm" viewBox="-315 -67 630 134" xmlns="http://www.w3.org/2000/svg" version="1.1">
<title>OpenSCAD Model</title>
<path d="
M 310.437,66.9114 L 311.045,66.7553 L 311.629,66.5241 L 312.179,66.2216 L 312.687,65.8526 L 313.145,65.4227
 L 313.545,64.9389 L 313.882,64.4088 L 314.149,63.8406 L 314.343,63.2434 L 314.461,62.6267 L 314.5,62
 L 314.5,-62 L 314.461,-62.6267 L 314.343,-63.2434 L 314.149,-63.8406 L 313.882,-64.4088 L 313.545,-64.9389
 L 313.145,-65.4227 L 312.687,-65.8526 L 312.179,-66.2216 L 311.629,-66.5241 L 311.045,-66.7553 L 310.437,-66.9114
 L 309.814,-66.9901 L -309.814,-66.9901 L -310.437,-66.9114 L -311.045,-66.7553 L -311.629,-66.5241 L -312.179,-66.2216
 L -312.687,-65.8526 L -313.145,-65.4227 L -313.545,-64.9389 L -313.882,-64.4088 L -314.149,-63.8406 L -314.343,-63.2434
 L -314.461,-62.6267 L -314.5,-62 L -314.5,62 L -314.461,62.6267 L -314.343,63.2434 L -314.149,63.8406
 L -313.882,64.4088 L -313.545,64.9389 L -313.145,65.4227 L -312.687,65.8526 L -312.179,66.2216 L -311.629,66.5241
 L -311.045,66.7553 L -310.437,66.9114 L -309.814,66.9901 L 309.814,66.9901 z
M 307.312,-57.0059 L 306.938,-57.0531 L 306.573,-57.1468 L 306.223,-57.2855 L 305.893,-57.467 L 305.588,-57.6885
 L 305.313,-57.9464 L 305.073,-58.2366 L 304.871,-58.5547 L 304.711,-58.8956 L 304.594,-59.2539 L 304.524,-59.624
 L 304.5,-60 L 304.524,-60.376 L 304.594,-60.7461 L 304.711,-61.1044 L 304.871,-61.4453 L 305.073,-61.7634
 L 305.313,-62.0536 L 305.588,-62.3115 L 305.893,-62.533 L 306.223,-62.7145 L 306.573,-62.8532 L 306.938,-62.9469
 L 307.312,-62.9941 L 307.688,-62.9941 L 308.062,-62.9469 L 308.427,-62.8532 L 308.777,-62.7145 L 309.107,-62.533
 L 309.412,-62.3115 L 309.687,-62.0536 L 309.927,-61.7634 L 310.129,-61.4453 L 310.289,-61.1044 L 310.406,-60.7461
 L 310.476,-60.376 L 310.5,-60 L 310.476,-59.624 L 310.406,-59.2539 L 310.289,-58.8956 L 310.129,-58.5547
 L 309.927,-58.2366 L 309.687,-57.9464 L 309.412,-57.6885 L 309.107,-57.467 L 308.777,-57.2855 L 308.427,-57.1468
 L 308.062,-57.0531 L 307.688,-57.0059 z
M -307.688,-57.0059 L -308.062,-57.0531 L -308.427,-57.1468 L -308.777,-57.2855 L -309.107,-57.467 L -309.412,-57.6885
 L -309.687,-57.9464 L -309.927,-58.2366 L -310.129,-58.5547 L -310.289,-58.8956 L -310.406,-59.2539 L -310.476,-59.624
 L -310.5,-60 L -310.476,-60.376 L -310.406,-60.7461 L -310.289,-61.1044 L -310.129,-61.4453 L -309.927,-61.7634
 L -309.687,-62.0536 L -309.412,-62.3115 L -309.107,-62.533 L -308.777,-62.7145 L -308.427,-62.8532 L -308.062,-62.9469
 L -307.688,-62.9941 L -307.312,-62.9941 L -306.938,-62.9469 L -306.573,-62.8532 L -306.223,-62.7145 L -305.893,-62.533
 L -305.588,-62.3115 L -305.313,-62.0536 L -305.073,-61.7634 L -304.871,-61.4453 L -304.711,-61.1044 L -304.594,-60.7461
 L -304.524,-60.376 L -304.5,-60 L -304.524,-59.624 L -304.594,-59.2539 L -304.711,-58.8956 L -304.871,-58.5547
 L -305.073,-58.2366 L -305.313,-57.9464 L -305.588,-57.6885 L -305.893,-57.467 L -306.223,-57.2855 L -306.573,-57.1468
 L -306.938,-57.0531 L -307.312,-57.0059 z
M 246.233,59.8816 L 238.757,58.9372 L 231.459,57.0634 L 224.453,54.2896 L 217.85,50.6597 L 211.755,46.2308
 L 206.262,41.0728 L 201.459,35.2671 L 197.422,28.9052 L 194.213,22.0875 L 191.885,14.9214 L 190.473,7.51999
 L 190,-0 L 190.473,-7.51999 L 191.885,-14.9214 L 194.213,-22.0875 L 197.422,-28.9052 L 201.459,-35.2671
 L 206.262,-41.0728 L 211.755,-46.2308 L 217.85,-50.6597 L 224.453,-54.2896 L 231.459,-57.0634 L 238.757,-58.9372
 L 246.233,-59.8816 L 253.767,-59.8816 L 261.243,-58.9372 L 268.541,-57.0634 L 275.547,-54.2896 L 282.15,-50.6597
 L 288.245,-46.2308 L 293.738,-41.0728 L 298.541,-35.2671 L 302.578,-28.9052 L 305.787,-22.0875 L 308.115,-14.9214
 L 309.527,-7.51999 L 310,-0 L 309.527,7.51999 L 308.115,14.9214 L 305.787,22.0875 L 302.578,28.9052
 L 298.541,35.2671 L 293.738,41.0728 L 288.245,46.2308 L 282.15,50.6597 L 275.547,54.2896 L 268.541,57.0634
 L 261.243,58.9372 L 253.767,59.8816 z
M -3.76743,59.8816 L -11.2429,58.9372 L -18.541,57.0634 L -25.5468,54.2896 L -32.1496,50.6597 L -38.2454,46.2308
 L -43.7381,41.0728 L -48.541,35.2671 L -52.5784,28.9052 L -55.7866,22.0875 L -58.115,14.9214 L -59.5269,7.51999
 L -60,-0 L -59.5269,-7.51999 L -58.115,-14.9214 L -55.7866,-22.0875 L -52.5784,-28.9052 L -48.541,-35.2671
 L -43.7381,-41.0728 L -38.2454,-46.2308 L -32.1496,-50.6597 L -25.5468,-54.2896 L -18.541,-57.0634 L -11.2429,-58.9372
 L -3.76743,-59.8816 L 3.76743,-59.8816 L 11.2429,-58.9372 L 18.541,-57.0634 L 25.5468,-54.2896 L 32.1496,-50.6597
 L 38.2454,-46.2308 L 43.7381,-41.0728 L 48.541,-35.2671 L 52.5784,-28.9052 L 55.7866,-22.0875 L 58.115,-14.9214
 L 59.5269,-7.51999 L 60,-0 L 59.5269,7.51999 L 58.115,14.9214 L 55.7866,22.0875 L 52.5784,28.9052
 L 48.541,35.2671 L 43.7381,41.0728 L 38.2454,46.2308 L 32.1496,50.6597 L 25.5468,54.2896 L 18.541,57.0634
 L 11.2429,58.9372 L 3.76743,59.8816 z
M -128.767,59.8816 L -136.243,58.9372 L -143.541,57.0634 L -150.547,54.2896 L -157.15,50.6597 L -163.245,46.2308
 L -168.738,41.0728 L -173.541,35.2671 L -177.578,28.9052 L -180.787,22.0875 L -183.115,14.9214 L -184.527,7.51999
 L -185,-0 L -184.527,-7.51999 L -183.115,-14.9214 L -180.787,-22.0875 L -177.578,-28.9052 L -173.541,-35.2671
 L -168.738,-41.0728 L -163.245,-46.2308 L -157.15,-50.6597 L -150.547,-54.2896 L -143.541,-57.0634 L -136.243,-58.9372
 L -128.767,-59.8816 L -121.233,-59.8816 L -113.757,-58.9372 L -106.459,-57.0634 L -99.4532,-54.2896 L -92.8504,-50.6597
 L -86.7546,-46.2308 L -81.2619,-41.0728 L -76.459,-35.2671 L -72.4216,-28.9052 L -69.2134,-22.0875 L -66.885,-14.9214
 L -65.4731,-7.51999 L -65,-0 L -65.4731,7.51999 L -66.885,14.9214 L -69.2134,22.0875 L -72.4216,28.9052
 L -76.459,35.2671 L -81.2619,41.0728 L -86.7546,46.2308 L -92.8504,50.6597 L -99.4532,54.2896 L -106.459,57.0634
 L -113.757,58.9372 L -121.233,59.8816 z
M -253.767,59.8816 L -261.243,58.9372 L -268.541,57.0634 L -275.547,54.2896 L -282.15,50.6597 L -288.245,46.2308
 L -293.738,41.0728 L -298.541,35.2671 L -302.578,28.9052 L -305.787,22.0875 L -308.115,14.9214 L -309.527,7.51999
 L -310,-0 L -309.527,-7.51999 L -308.115,-14.9214 L -305.787,-22.0875 L -302.578,-28.9052 L -298.541,-35.2671
 L -293.738,-41.0728 L -288.245,-46.2308 L -282.15,-50.6597 L -275.547,-54.2896 L -268.541,-57.0634 L -261.243,-58.9372
 L -253.767,-59.8816 L -246.233,-59.8816 L -238.757,-58.9372 L -231.459,-57.0634 L -224.453,-54.2896 L -217.85,-50.6597
 L -211.755,-46.2308 L -206.262,-41.0728 L -201.459,-35.2671 L -197.422,-28.9052 L -194.213,-22.0875 L -191.885,-14.9214
 L -190.473,-7.51999 L -190,-0 L -190.473,7.51999 L -191.885,14.9214 L -194.213,22.0875 L -197.422,28.9052
 L -201.459,35.2671 L -206.262,41.0728 L -211.755,46.2308 L -217.85,50.6597 L -224.453,54.2896 L -231.459,57.0634
 L -238.757,58.9372 L -246.233,59.8816 z
M 121.233,59.8816 L 113.757,58.9372 L 106.459,57.0634 L 99.4532,54.2896 L 92.8504,50.6597 L 86.7546,46.2308
 L 81.2619,41.0728 L 76.459,35.2671 L 72.4216,28.9052 L 69.2134,22.0875 L 66.885,14.9214 L 65.4731,7.51999
 L 65,-0 L 65.4731,-7.51999 L 66.885,-14.9214 L 69.2134,-22.0875 L 72.4216,-28.9052 L 76.459,-35.2671
 L 81.2619,-41.0728 L 86.7546,-46.2308 L 92.8504,-50.6597 L 99.4532,-54.2896 L 106.459,-57.0634 L 113.757,-58.9372
 L 121.233,-59.8816 L 128.767,-59.8816 L 136.243,-58.9372 L 143.541,-57.0634 L 150.547,-54.2896 L 157.15,-50.6597
 L 163.245,-46.2308 L 168.738,-41.0728 L 173.541,-35.2671 L 177.578,-28.9052 L 180.787,-22.0875 L 183.115,-14.9214
 L 184.527,-7.51999 L 185,-0 L 184.527,7.51999 L 183.115,14.9214 L 180.787,22.0875 L 177.578,28.9052
 L 173.541,35.2671 L 168.738,41.0728 L 163.245,46.2308 L 157.15,50.6597 L 150.547,54.2896 L 143.541,57.0634
 L 136.243,58.9372 L 128.767,59.8816 z
M -307.688,62.9941 L -308.062,62.9469 L -308.427,62.8532 L -308.777,62.7145 L -309.107,62.533 L -309.412,62.3115
 L -309.687,62.0536 L -309.927,61.7634 L -310.129,61.4453 L -310.289,61.1044 L -310.406,60.7461 L -310.476,60.376
 L -310.5,60 L -310.476,59.624 L -310.406,59.2539 L -310.289,58.8956 L -310.129,58.5547 L -309.927,58.2366
 L -309.687,57.9464 L -309.412,57.6885 L -309.107,57.467 L -308.777,57.2855 L -308.427,57.1468 L -308.062,57.0531
 L -307.688,57.0059 L -307.312,57.0059 L -306.938,57.0531 L -306.573,57.1468 L -306.223,57.2855 L -305.893,57.467
 L -305.588,57.6885 L -305.313,57.9464 L -305.073,58.2366 L -304.871,58.5547 L -304.711,58.8956 L -304.594,59.2539
 L -304.524,59.624 L -304.5,60 L -304.524,60.376 L -304.594,60.7461 L -304.711,61.1044 L -304.871,61.4453
 L -305.073,61.7634 L -305.313,62.0536 L -305.588,62.3115 L -305.893,62.533 L -306.223,62.7145 L -306.573,62.8532
 L -306.938,62.9469 L -307.312,62.9941 z
M 307.312,62.9941 L 306.938,62.9469 L 306.573,62.8532 L 306.223,62.7145 L 305.893,62.533 L 305.588,62.3115
 L 305.313,62.0536 L 305.073,61.7634 L 304.871,61.4453 L 304.711,61.1044 L 304.594,60.7461 L 304.524,60.376
 L 304.5,60 L 304.524,59.624 L 304.594,59.2539 L 304.711,58.8956 L 304.871,58.5547 L 305.073,58.2366
 L 305.313,57.9464 L 305.588,57.6885 L 305.893,57.467 L 306.223,57.2855 L 306.573,57.1468 L 306.938,57.0531
 L 307.312,57.0059 L 307.688,57.0059 L 308.062,57.0531 L 308.427,57.1468 L 308.777,57.2855 L 309.107,57.467
 L 309.412,57.6885 L 309.687,57.9464 L 309.927,58.2366 L 310.129,58.5547 L 310.289,58.8956 L 310.406,59.2539
 L 310.476,59.624 L 310.5,60 L 310.476,60.376 L 310.406,60.7461 L 310.289,61.1044 L 310.129,61.4453
 L 309.927,61.7634 L 309.687,62.0536 L 309.412,62.3115 L 309.107,62.533 L 308.777,62.7145 L 308.427,62.8532
 L 308.062,62.9469 L 307.688,62.9941 z
" stroke="black" fill="lightgray" stroke-width="0.5"/>
</svg>
