<?xml version="1.0" standalone="no"?>
<!DOCTYPE svg PUBLIC "-//W3C//DTD SVG 1.1//EN" "http://www.w3.org/Graphics/SVG/1.1/DTD/svg11.dtd">
<svg width="330mm" height="90mm" viewBox="-165 -45 330 90" xmlns="http://www.w3.org/2000/svg" version="1.1">
<title>OpenSCAD Model</title>
<path d="
M 160.437,44.4114 L 161.045,44.2553 L 161.629,44.0241 L 162.179,43.7216 L 162.687,43.3526 L 163.145,42.9227
 L 163.545,42.4389 L 163.882,41.9088 L 164.149,41.3406 L 164.343,40.7434 L 164.461,40.1267 L 164.5,39.5
 L 164.5,-39.5 L 164.461,-40.1267 L 164.343,-40.7434 L 164.149,-41.3406 L 163.882,-41.9088 L 163.545,-42.4389
 L 163.145,-42.9227 L 162.687,-43.3526 L 162.179,-43.7216 L 161.629,-44.0241 L 161.045,-44.2553 L 160.437,-44.4114
 L 159.814,-44.4901 L -159.814,-44.4901 L -160.437,-44.4114 L -161.045,-44.2553 L -161.629,-44.0241 L -162.179,-43.7216
 L -162.687,-43.3526 L -163.145,-42.9227 L -163.545,-42.4389 L -163.882,-41.9088 L -164.149,-41.3406 L -164.343,-40.7434
 L -164.461,-40.1267 L -164.5,-39.5 L -164.5,39.5 L -164.461,40.1267 L -164.343,40.7434 L -164.149,41.3406
 L -163.882,41.9088 L -163.545,42.4389 L -163.145,42.9227 L -162.687,43.3526 L -162.179,43.7216 L -161.629,44.0241
 L -161.045,44.2553 L -160.437,44.4114 L -159.814,44.4901 L 159.814,44.4901 z
M -157.688,-34.5059 L -158.062,-34.5531 L -158.427,-34.6468 L -158.777,-34.7855 L -159.107,-34.967 L -159.412,-35.1885
 L -159.687,-35.4464 L -159.927,-35.7366 L -160.129,-36.0547 L -160.289,-36.3956 L -160.406,-36.7539 L -160.476,-37.124
 L -160.5,-37.5 L -160.476,-37.876 L -160.406,-38.2461 L -160.289,-38.6044 L -160.129,-38.9453 L -159.927,-39.2634
 L -159.687,-39.5536 L -159.412,-39.8115 L -159.107,-40.033 L -158.777,-40.2145 L -158.427,-40.3532 L -158.062,-40.4469
 L -157.688,-40.4941 L -157.312,-40.4941 L -156.938,-40.4469 L -156.573,-40.3532 L -156.223,-40.2145 L -155.893,-40.033
 L -155.588,-39.8115 L -155.313,-39.5536 L -155.073,-39.2634 L -154.871,-38.9453 L -154.711,-38.6044 L -154.594,-38.2461
 L -154.524,-37.876 L -154.5,-37.5 L -154.524,-37.124 L -154.594,-36.7539 L -154.711,-36.3956 L -154.871,-36.0547
 L -155.073,-35.7366 L -155.313,-35.4464 L -155.588,-35.1885 L -155.893,-34.967 L -156.223,-34.7855 L -156.573,-34.6468
 L -156.938,-34.5531 L -157.312,-34.5059 z
M 157.312,-34.5059 L 156.938,-34.5531 L 156.573,-34.6468 L 156.223,-34.7855 L 155.893,-34.967 L 155.588,-35.1885
 L 155.313,-35.4464 L 155.073,-35.7366 L 154.871,-36.0547 L 154.711,-36.3956 L 154.594,-36.7539 L 154.524,-37.124
 L 154.5,-37.5 L 154.524,-37.876 L 154.594,-38.2461 L 154.711,-38.6044 L 154.871,-38.9453 L 155.073,-39.2634
 L 155.313,-39.5536 L 155.588,-39.8115 L 155.893,-40.033 L 156.223,-40.2145 L 156.573,-40.3532 L 156.938,-40.4469
 L 157.312,-40.4941 L 157.688,-40.4941 L 158.062,-40.4469 L 158.427,-40.3532 L 158.777,-40.2145 L 159.107,-40.033
 L 159.412,-39.8115 L 159.687,-39.5536 L 159.927,-39.2634 L 160.129,-38.9453 L 160.289,-38.6044 L 160.406,-38.2461
 L 160.476,-37.876 L 160.5,-37.5 L 160.476,-37.124 L 160.406,-36.7539 L 160.289,-36.3956 L 160.129,-36.0547
 L 159.927,-35.7366 L 159.687,-35.4464 L 159.412,-35.1885 L 159.107,-34.967 L 158.777,-34.7855 L 158.427,-34.6468
 L 158.062,-34.5531 L 157.688,-34.5059 z
M 116.177,36.927 L 111.567,36.3446 L 107.066,35.1891 L 102.746,33.4786 L 98.6744,31.2401 L 94.9153,28.509
 L 91.5282,25.3282 L 88.5664,21.748 L 86.0766,17.8249 L 84.0983,13.6206 L 82.6624,9.20152 L 81.7917,4.63733
 L 81.5,-0 L 81.7917,-4.63733 L 82.6624,-9.20152 L 84.0983,-13.6206 L 86.0766,-17.8249 L 88.5664,-21.748
 L 91.5282,-25.3282 L 94.9153,-28.509 L 98.6744,-31.2401 L 102.746,-33.4786 L 107.066,-35.1891 L 111.567,-36.3446
 L 116.177,-36.927 L 120.823,-36.927 L 125.433,-36.3446 L 129.934,-35.1891 L 134.254,-33.4786 L 138.326,-31.2401
 L 142.085,-28.509 L 145.472,-25.3282 L 148.434,-21.748 L 150.923,-17.8249 L 152.902,-13.6206 L 154.338,-9.20152
 L 155.208,-4.63733 L 155.5,-0 L 155.208,4.63733 L 154.338,9.20152 L 152.902,13.6206 L 150.923,17.8249
 L 148.434,21.748 L 145.472,25.3282 L 142.085,28.509 L 138.326,31.2401 L 134.254,33.4786 L 129.934,35.1891
 L 125.433,36.3446 L 120.823,36.927 z
M -41.8232,36.927 L -46.4331,36.3446 L -50.9336,35.1891 L -55.2538,33.4786 L -59.3256,31.2401 L -63.0847,28.509
 L -66.4718,25.3282 L -69.4336,21.748 L -71.9233,17.8249 L -73.9017,13.6206 L -75.3376,9.20152 L -76.2082,4.63733
 L -76.5,-0 L -76.2082,-4.63733 L -75.3376,-9.20152 L -73.9017,-13.6206 L -71.9233,-17.8249 L -69.4336,-21.748
 L -66.4718,-25.3282 L -63.0847,-28.509 L -59.3256,-31.2401 L -55.2538,-33.4786 L -50.9336,-35.1891 L -46.4331,-36.3446
 L -41.8232,-36.927 L -37.1767,-36.927 L -32.5669,-36.3446 L -28.0664,-35.1891 L -23.7462,-33.4786 L -19.6744,-31.2401
 L -15.9153,-28.509 L -12.5282,-25.3282 L -9.56636,-21.748 L -7.07664,-17.8249 L -5.09827,-13.6206 L -3.66241,-9.20152
 L -2.79175,-4.63733 L -2.5,-0 L -2.79175,4.63733 L -3.66241,9.20152 L -5.09827,13.6206 L -7.07664,17.8249
 L -9.56636,21.748 L -12.5282,25.3282 L -15.9153,28.509 L -19.6744,31.2401 L -23.7462,33.4786 L -28.0664,35.1891
 L -32.5669,36.3446 L -37.1767,36.927 z
M -120.823,36.927 L -125.433,36.3446 L -129.934,35.1891 L -134.254,33.4786 L -138.326,31.2401 L -142.085,28.509
 L -145.472,25.3282 L -148.434,21.748 L -150.923,17.8249 L -152.902,13.6206 L -154.338,9.20152 L -155.208,4.63733
 L -155.5,-0 L -155.208,-4.63733 L -154.338,-9.20152 L -152.902,-13.6206 L -150.923,-17.8249 L -148.434,-21.748
 L -145.472,-25.3282 L -142.085,-28.509 L -138.326,-31.2401 L -134.254,-33.4786 L -129.934,-35.1891 L -125.433,-36.3446
 L -120.823,-36.927 L -116.177,-36.927 L -111.567,-36.3446 L -107.066,-35.1891 L -102.746,-33.4786 L -98.6744,-31.2401
 L -94.9153,-28.509 L -91.5282,-25.3282 L -88.5664,-21.748 L -86.0766,-17.8249 L -84.0983,-13.6206 L -82.6624,-9.20152
 L -81.7917,-4.63733 L -81.5,-0 L -81.7917,4.63733 L -82.6624,9.20152 L -84.0983,13.6206 L -86.0766,17.8249
 L -88.5664,21.748 L -91.5282,25.3282 L -94.9153,28.509 L -98.6744,31.2401 L -102.746,33.4786 L -107.066,35.1891
 L -111.567,36.3446 L -116.177,36.927 z
M 37.1767,36.927 L 32.5669,36.3446 L 28.0664,35.1891 L 23.7462,33.4786 L 19.6744,31.2401 L 15.9153,28.509
 L 12.5282,25.3282 L 9.56636,21.748 L 7.07664,17.8249 L 5.09827,13.6206 L 3.66241,9.20152 L 2.79175,4.63733
 L 2.5,-0 L 2.79175,-4.63733 L 3.66241,-9.20152 L 5.09827,-13.6206 L 7.07664,-17.8249 L 9.56636,-21.748
 L 12.5282,-25.3282 L 15.9153,-28.509 L 19.6744,-31.2401 L 23.7462,-33.4786 L 28.0664,-35.1891 L 32.5669,-36.3446
 L 37.1767,-36.927 L 41.8232,-36.927 L 46.4331,-36.3446 L 50.9336,-35.1891 L 55.2538,-33.4786 L 59.3256,-31.2401
 L 63.0847,-28.509 L 66.4718,-25.3282 L 69.4336,-21.748 L 71.9233,-17.8249 L 73.9017,-13.6206 L 75.3376,-9.20152
 L 76.2082,-4.63733 L 76.5,-0 L 76.2082,4.63733 L 75.3376,9.20152 L 73.9017,13.6206 L 71.9233,17.8249
 L 69.4336,21.748 L 66.4718,25.3282 L 63.0847,28.509 L 59.3256,31.2401 L 55.2538,33.4786 L 50.9336,35.1891
 L 46.4331,36.3446 L 41.8232,36.927 z
M -157.688,40.4941 L -158.062,40.4469 L -158.427,40.3532 L -158.777,40.2145 L -159.107,40.033 L -159.412,39.8115
 L -159.687,39.5536 L -159.927,39.2634 L -160.129,38.9453 L -160.289,38.6044 L -160.406,38.2461 L -160.476,37.876
 L -160.5,37.5 L -160.476,37.124 L -160.406,36.7539 L -160.289,36.3956 L -160.129,36.0547 L -159.927,35.7366
 L -159.687,35.4464 L -159.412,35.1885 L -159.107,34.967 L -158.777,34.7855 L -158.427,34.6468 L -158.062,34.5531
 L -157.688,34.5059 L -157.312,34.5059 L -156.938,34.5531 L -156.573,34.6468 L -156.223,34.7855 L -155.893,34.967
 L -155.588,35.1885 L -155.313,35.4464 L -155.073,35.7366 L -154.871,36.0547 L -154.711,36.3956 L -154.594,36.7539
 L -154.524,37.124 L -154.5,37.5 L -154.524,37.876 L -154.594,38.2461 L -154.711,38.6044 L -154.871,38.9453
 L -155.073,39.2634 L -155.313,39.5536 L -155.588,39.8115 L -155.893,40.033 L -156.223,40.2145 L -156.573,40.3532
 L -156.938,40.4469 L -157.312,40.4941 z
M 157.312,40.4941 L 156.938,40.4469 L 156.573,40.3532 L 156.223,40.2145 L 155.893,40.033 L 155.588,39.8115
 L 155.313,39.5536 L 155.073,39.2634 L 154.871,38.9453 L 154.711,38.6044 L 154.594,38.2461 L 154.524,37.876
 L 154.5,37.5 L 154.524,37.124 L 154.594,36.7539 L 154.711,36.3956 L 154.871,36.0547 L 155.073,35.7366
 L 155.313,35.4464 L 155.588,35.1885 L 155.893,34.967 L 156.223,34.7855 L 156.573,34.6468 L 156.938,34.5531
 L 157.312,34.5059 L 157.688,34.5059 L 158.062,34.5531 L 158.427,34.6468 L 158.777,34.7855 L 159.107,34.967
 L 159.412,35.1885 L 159.687,35.4464 L 159.927,35.7366 L 160.129,36.0547 L 160.289,36.3956 L 160.406,36.7539
 L 160.476,37.124 L 160.5,37.5 L 160.476,37.876 L 160.406,38.2461 L 160.289,38.6044 L 160.129,38.9453
 L 159.927,39.2634 L 159.687,39.5536 L 159.412,39.8115 L 159.107,40.033 L 158.777,40.2145 L 158.427,40.3532
 L 158.062,40.4469 L 157.688,40.4941 z
" stroke="black" fill="lightgray" stroke-width="0.5"/>
</svg>
