<?xml version="1.0" standalone="no"?>
<!DOCTYPE svg PUBLIC "-//W3C//DTD SVG 1.1//EN" "http://www.w3.org/Graphics/SVG/1.1/DTD/svg11.dtd">
<svg width="134mm" height="44mm" viewBox="-67 -76 134 44" xmlns="http://www.w3.org/2000/svg" version="1.1">
<title>OpenSCAD Model</title>
<path d="
M 62.9369,-32.0886 L 63.5451,-32.2447 L 64.1289,-32.4759 L 64.6791,-32.7784 L 65.1871,-33.1474 L 65.6448,-33.5773
 L 66.0451,-34.0611 L 66.3815,-34.5912 L 66.6489,-35.1594 L 66.8429,-35.7566 L 66.9606,-36.3733 L 67,-37
 L 67,-71 L 66.9606,-71.6267 L 66.8429,-72.2434 L 66.6489,-72.8406 L 66.3815,-73.4088 L 66.0451,-73.9389
 L 65.6448,-74.4227 L 65.1871,-74.8526 L 64.6791,-75.2216 L 64.1289,-75.5241 L 63.5451,-75.7553 L 62.9369,-75.9114
 L 62.3139,-75.9901 L -62.3139,-75.9901 L -62.9369,-75.9114 L -63.5451,-75.7553 L -64.1289,-75.5241 L -64.6791,-75.2216
 L -65.1871,-74.8526 L -65.6448,-74.4227 L -66.0451,-73.9389 L -66.3815,-73.4088 L -66.6489,-72.8406 L -66.8429,-72.2434
 L -66.9606,-71.6267 L -67,-71 L -67,-37 L -66.9606,-36.3733 L -66.8429,-35.7566 L -66.6489,-35.1594
 L -66.3815,-34.5912 L -66.0451,-34.0611 L -65.6448,-33.5773 L -65.1871,-33.1474 L -64.6791,-32.7784 L -64.1289,-32.4759
 L -63.5451,-32.2447 L -62.9369,-32.0886 L -62.3139,-32.0099 L 62.3139,-32.0099 z
M -60.1884,-66.0059 L -60.5621,-66.0531 L -60.927,-66.1468 L -61.2773,-66.2855 L -61.6075,-66.467 L -61.9123,-66.6884
 L -62.1869,-66.9464 L -62.427,-67.2366 L -62.6289,-67.5547 L -62.7893,-67.8956 L -62.9057,-68.2539 L -62.9763,-68.624
 L -63,-69 L -62.9763,-69.376 L -62.9057,-69.7461 L -62.7893,-70.1044 L -62.6289,-70.4453 L -62.427,-70.7634
 L -62.1869,-71.0536 L -61.9123,-71.3115 L -61.6075,-71.533 L -61.2773,-71.7145 L -60.927,-71.8532 L -60.5621,-71.9469
 L -60.1884,-71.9941 L -59.8116,-71.9941 L -59.4379,-71.9469 L -59.0729,-71.8532 L -58.7227,-71.7145 L -58.3925,-71.533
 L -58.0877,-71.3115 L -57.8131,-71.0536 L -57.5729,-70.7634 L -57.3711,-70.4453 L -57.2107,-70.1044 L -57.0942,-69.7461
 L -57.0237,-69.376 L -57,-69 L -57.0237,-68.624 L -57.0942,-68.2539 L -57.2107,-67.8956 L -57.3711,-67.5547
 L -57.5729,-67.2366 L -57.8131,-66.9464 L -58.0877,-66.6884 L -58.3925,-66.467 L -58.7227,-66.2855 L -59.0729,-66.1468
 L -59.4379,-66.0531 L -59.8116,-66.0059 z
M 59.8116,-66.0059 L 59.4379,-66.0531 L 59.0729,-66.1468 L 58.7227,-66.2855 L 58.3925,-66.467 L 58.0877,-66.6884
 L 57.8131,-66.9464 L 57.5729,-67.2366 L 57.3711,-67.5547 L 57.2107,-67.8956 L 57.0942,-68.2539 L 57.0237,-68.624
 L 57,-69 L 57.0237,-69.376 L 57.0942,-69.7461 L 57.2107,-70.1044 L 57.3711,-70.4453 L 57.5729,-70.7634
 L 57.8131,-71.0536 L 58.0877,-71.3115 L 58.3925,-71.533 L 58.7227,-71.7145 L 59.0729,-71.8532 L 59.4379,-71.9469
 L 59.8116,-71.9941 L 60.1884,-71.9941 L 60.5621,-71.9469 L 60.927,-71.8532 L 61.2773,-71.7145 L 61.6075,-71.533
 L 61.9123,-71.3115 L 62.1869,-71.0536 L 62.427,-70.7634 L 62.6289,-70.4453 L 62.7893,-70.1044 L 62.9057,-69.7461
 L 62.9763,-69.376 L 63,-69 L 62.9763,-68.624 L 62.9057,-68.2539 L 62.7893,-67.8956 L 62.6289,-67.5547
 L 62.427,-67.2366 L 62.1869,-66.9464 L 61.9123,-66.6884 L 61.6075,-66.467 L 61.2773,-66.2855 L 60.927,-66.1468
 L 60.5621,-66.0531 L 60.1884,-66.0059 z
M 35.9953,-38.0316 L 34.0019,-38.2834 L 32.0557,-38.7831 L 30.1875,-39.5228 L 28.4268,-40.4908 L 26.8012,-41.6718
 L 25.3365,-43.0473 L 24.0557,-44.5954 L 22.9791,-46.2919 L 22.1236,-48.11 L 21.5027,-50.021 L 21.1262,-51.9947
 L 21,-54 L 21.1262,-56.0053 L 21.5027,-57.979 L 22.1236,-59.89 L 22.9791,-61.7081 L 24.0557,-63.4046
 L 25.3365,-64.9527 L 26.8012,-66.3282 L 28.4268,-67.5092 L 30.1875,-68.4772 L 32.0557,-69.2169 L 34.0019,-69.7166
 L 35.9953,-69.9684 L 38.0046,-69.9684 L 39.9981,-69.7166 L 41.9443,-69.2169 L 43.8125,-68.4772 L 45.5732,-67.5092
 L 47.1988,-66.3282 L 48.6635,-64.9527 L 49.9443,-63.4046 L 51.0209,-61.7081 L 51.8764,-59.89 L 52.4973,-57.979
 L 52.8738,-56.0053 L 53,-54 L 52.8738,-51.9947 L 52.4973,-50.021 L 51.8764,-48.11 L 51.0209,-46.2919
 L 49.9443,-44.5954 L 48.6635,-43.0473 L 47.1988,-41.6718 L 45.5732,-40.4908 L 43.8125,-39.5228 L 41.9443,-38.7831
 L 39.9981,-38.2834 L 38.0046,-38.0316 z
M -38.0046,-38.0316 L -39.9981,-38.2834 L -41.9443,-38.7831 L -43.8125,-39.5228 L -45.5732,-40.4908 L -47.1988,-41.6718
 L -48.6635,-43.0473 L -49.9443,-44.5954 L -51.0209,-46.2919 L -51.8764,-48.11 L -52.4973,-50.021 L -52.8738,-51.9947
 L -53,-54 L -52.8738,-56.0053 L -52.4973,-57.979 L -51.8764,-59.89 L -51.0209,-61.7081 L -49.9443,-63.4046
 L -48.6635,-64.9527 L -47.1988,-66.3282 L -45.5732,-67.5092 L -43.8125,-68.4772 L -41.9443,-69.2169 L -39.9981,-69.7166
 L -38.0046,-69.9684 L -35.9953,-69.9684 L -34.0019,-69.7166 L -32.0557,-69.2169 L -30.1875,-68.4772 L -28.4268,-67.5092
 L -26.8012,-66.3282 L -25.3365,-64.9527 L -24.0557,-63.4046 L -22.9791,-61.7081 L -22.1236,-59.89 L -21.5027,-57.979
 L -21.1262,-56.0053 L -21,-54 L -21.1262,-51.9947 L -21.5027,-50.021 L -22.1236,-48.11 L -22.9791,-46.2919
 L -24.0557,-44.5954 L -25.3365,-43.0473 L -26.8012,-41.6718 L -28.4268,-40.4908 L -30.1875,-39.5228 L -32.0557,-38.7831
 L -34.0019,-38.2834 L -35.9953,-38.0316 z
M -1.00464,-38.0316 L -2.99809,-38.2834 L -4.94426,-38.7831 L -6.81245,-39.5228 L -8.57323,-40.4908 L -10.1988,-41.6718
 L -11.6635,-43.0473 L -12.9443,-44.5954 L -14.0209,-46.2919 L -14.8764,-48.11 L -15.4973,-50.021 L -15.8738,-51.9947
 L -16,-54 L -15.8738,-56.0053 L -15.4973,-57.979 L -14.8764,-59.89 L -14.0209,-61.7081 L -12.9443,-63.4046
 L -11.6635,-64.9527 L -10.1988,-66.3282 L -8.57323,-67.5092 L -6.81245,-68.4772 L -4.94426,-69.2169 L -2.99809,-69.7166
 L -1.00464,-69.9684 L 1.00464,-69.9684 L 2.99809,-69.7166 L 4.94426,-69.2169 L 6.81245,-68.4772 L 8.57323,-67.5092
 L 10.1988,-66.3282 L 11.6635,-64.9527 L 12.9443,-63.4046 L 14.0209,-61.7081 L 14.8764,-59.89 L 15.4973,-57.979
 L 15.8738,-56.0053 L 16,-54 L 15.8738,-51.9947 L 15.4973,-50.021 L 14.8764,-48.11 L 14.0209,-46.2919
 L 12.9443,-44.5954 L 11.6635,-43.0473 L 10.1988,-41.6718 L 8.57323,-40.4908 L 6.81245,-39.5228 L 4.94426,-38.7831
 L 2.99809,-38.2834 L 1.00464,-38.0316 z
M -60.0942,-60.0029 L -60.2811,-60.0266 L -60.4635,-60.0734 L -60.6387,-60.1427 L -60.8037,-60.2335 L -60.9561,-60.3442
 L -61.0934,-60.4732 L -61.2135,-60.6183 L -61.3145,-60.7774 L -61.3947,-60.9478 L -61.4529,-61.127 L -61.4882,-61.312
 L -61.5,-61.5 L -61.4882,-61.688 L -61.4529,-61.873 L -61.3947,-62.0522 L -61.3145,-62.2226 L -61.2135,-62.3817
 L -61.0934,-62.5268 L -60.9561,-62.6558 L -60.8037,-62.7665 L -60.6387,-62.8572 L -60.4635,-62.9266 L -60.2811,-62.9734
 L -60.0942,-62.997 L -59.9058,-62.997 L -59.7189,-62.9734 L -59.5365,-62.9266 L -59.3613,-62.8572 L -59.1963,-62.7665
 L -59.0439,-62.6558 L -58.9065,-62.5268 L -58.7865,-62.3817 L -58.6855,-62.2226 L -58.6053,-62.0522 L -58.5471,-61.873
 L -58.5118,-61.688 L -58.5,-61.5 L -58.5118,-61.312 L -58.5471,-61.127 L -58.6053,-60.9478 L -58.6855,-60.7774
 L -58.7865,-60.6183 L -58.9065,-60.4732 L -59.0439,-60.3442 L -59.1963,-60.2335 L -59.3613,-60.1427 L -59.5365,-60.0734
 L -59.7189,-60.0266 L -59.9058,-60.0029 z
M 59.9058,-60.0029 L 59.7189,-60.0266 L 59.5365,-60.0734 L 59.3613,-60.1427 L 59.1963,-60.2335 L 59.0439,-60.3442
 L 58.9065,-60.4732 L 58.7865,-60.6183 L 58.6855,-60.7774 L 58.6053,-60.9478 L 58.5471,-61.127 L 58.5118,-61.312
 L 58.5,-61.5 L 58.5118,-61.688 L 58.5471,-61.873 L 58.6053,-62.0522 L 58.6855,-62.2226 L 58.7865,-62.3817
 L 58.9065,-62.5268 L 59.0439,-62.6558 L 59.1963,-62.7665 L 59.3613,-62.8572 L 59.5365,-62.9266 L 59.7189,-62.9734
 L 59.9058,-62.997 L 60.0942,-62.997 L 60.2811,-62.9734 L 60.4635,-62.9266 L 60.6387,-62.8572 L 60.8037,-62.7665
 L 60.9561,-62.6558 L 61.0934,-62.5268 L 61.2135,-62.3817 L 61.3145,-62.2226 L 61.3947,-62.0522 L 61.4529,-61.873
 L 61.4882,-61.688 L 61.5,-61.5 L 61.4882,-61.312 L 61.4529,-61.127 L 61.3947,-60.9478 L 61.3145,-60.7774
 L 61.2135,-60.6183 L 61.0934,-60.4732 L 60.9561,-60.3442 L 60.8037,-60.2335 L 60.6387,-60.1427 L 60.4635,-60.0734
 L 60.2811,-60.0266 L 60.0942,-60.0029 z
M 59.8116,-51.0059 L 59.4379,-51.0531 L 59.0729,-51.1468 L 58.7227,-51.2855 L 58.3925,-51.467 L 58.0877,-51.6885
 L 57.8131,-51.9464 L 57.5729,-52.2366 L 57.3711,-52.5547 L 57.2107,-52.8956 L 57.0942,-53.2539 L 57.0237,-53.624
 L 57,-54 L 57.0237,-54.376 L 57.0942,-54.7461 L 57.2107,-55.1044 L 57.3711,-55.4453 L 57.5729,-55.7634
 L 57.8131,-56.0536 L 58.0877,-56.3115 L 58.3925,-56.533 L 58.7227,-56.7145 L 59.0729,-56.8532 L 59.4379,-56.9469
 L 59.8116,-56.9941 L 60.1884,-56.9941 L 60.5621,-56.9469 L 60.927,-56.8532 L 61.2773,-56.7145 L 61.6075,-56.533
 L 61.9123,-56.3115 L 62.1869,-56.0536 L 62.427,-55.7634 L 62.6289,-55.4453 L 62.7893,-55.1044 L 62.9057,-54.7461
 L 62.9763,-54.376 L 63,-54 L 62.9763,-53.624 L 62.9057,-53.2539 L 62.7893,-52.8956 L 62.6289,-52.5547
 L 62.427,-52.2366 L 62.1869,-51.9464 L 61.9123,-51.6885 L 61.6075,-51.467 L 61.2773,-51.2855 L 60.927,-51.1468
 L 60.5621,-51.0531 L 60.1884,-51.0059 z
M -60.1884,-51.0059 L -60.5621,-51.0531 L -60.927,-51.1468 L -61.2773,-51.2855 L -61.6075,-51.467 L -61.9123,-51.6885
 L -62.1869,-51.9464 L -62.427,-52.2366 L -62.6289,-52.5547 L -62.7893,-52.8956 L -62.9057,-53.2539 L -62.9763,-53.624
 L -63,-54 L -62.9763,-54.376 L -62.9057,-54.7461 L -62.7893,-55.1044 L -62.6289,-55.4453 L -62.427,-55.7634
 L -62.1869,-56.0536 L -61.9123,-56.3115 L -61.6075,-56.533 L -61.2773,-56.7145 L -60.927,-56.8532 L -60.5621,-56.9469
 L -60.1884,-56.9941 L -59.8116,-56.9941 L -59.4379,-56.9469 L -59.0729,-56.8532 L -58.7227,-56.7145 L -58.3925,-56.533
 L -58.0877,-56.3115 L -57.8131,-56.0536 L -57.5729,-55.7634 L -57.3711,-55.4453 L -57.2107,-55.1044 L -57.0942,-54.7461
 L -57.0237,-54.376 L -57,-54 L -57.0237,-53.624 L -57.0942,-53.2539 L -57.2107,-52.8956 L -57.3711,-52.5547
 L -57.5729,-52.2366 L -57.8131,-51.9464 L -58.0877,-51.6885 L -58.3925,-51.467 L -58.7227,-51.2855 L -59.0729,-51.1468
 L -59.4379,-51.0531 L -59.8116,-51.0059 z
M -60.0942,-45.003 L -60.2811,-45.0266 L -60.4635,-45.0734 L -60.6387,-45.1428 L -60.8037,-45.2335 L -60.9561,-45.3442
 L -61.0934,-45.4732 L -61.2135,-45.6183 L -61.3145,-45.7774 L -61.3947,-45.9478 L -61.4529,-46.127 L -61.4882,-46.312
 L -61.5,-46.5 L -61.4882,-46.688 L -61.4529,-46.873 L -61.3947,-47.0522 L -61.3145,-47.2226 L -61.2135,-47.3817
 L -61.0934,-47.5268 L -60.9561,-47.6558 L -60.8037,-47.7665 L -60.6387,-47.8573 L -60.4635,-47.9266 L -60.2811,-47.9734
 L -60.0942,-47.9971 L -59.9058,-47.9971 L -59.7189,-47.9734 L -59.5365,-47.9266 L -59.3613,-47.8573 L -59.1963,-47.7665
 L -59.0439,-47.6558 L -58.9065,-47.5268 L -58.7865,-47.3817 L -58.6855,-47.2226 L -58.6053,-47.0522 L -58.5471,-46.873
 L -58.5118,-46.688 L -58.5,-46.5 L -58.5118,-46.312 L -58.5471,-46.127 L -58.6053,-45.9478 L -58.6855,-45.7774
 L -58.7865,-45.6183 L -58.9065,-45.4732 L -59.0439,-45.3442 L -59.1963,-45.2335 L -59.3613,-45.1428 L -59.5365,-45.0734
 L -59.7189,-45.0266 L -59.9058,-45.003 z
M 59.9058,-45.003 L 59.7189,-45.0266 L 59.5365,-45.0734 L 59.3613,-45.1428 L 59.1963,-45.2335 L 59.0439,-45.3442
 L 58.9065,-45.4732 L 58.7865,-45.6183 L 58.6855,-45.7774 L 58.6053,-45.9478 L 58.5471,-46.127 L 58.5118,-46.312
 L 58.5,-46.5 L 58.5118,-46.688 L 58.5471,-46.873 L 58.6053,-47.0522 L 58.6855,-47.2226 L 58.7865,-47.3817
 L 58.9065,-47.5268 L 59.0439,-47.6558 L 59.1963,-47.7665 L 59.3613,-47.8573 L 59.5365,-47.9266 L 59.7189,-47.9734
 L 59.9058,-47.9971 L 60.0942,-47.9971 L 60.2811,-47.9734 L 60.4635,-47.9266 L 60.6387,-47.8573 L 60.8037,-47.7665
 L 60.9561,-47.6558 L 61.0934,-47.5268 L 61.2135,-47.3817 L 61.3145,-47.2226 L 61.3947,-47.0522 L 61.4529,-46.873
 L 61.4882,-46.688 L 61.5,-46.5 L 61.4882,-46.312 L 61.4529,-46.127 L 61.3947,-45.9478 L 61.3145,-45.7774
 L 61.2135,-45.6183 L 61.0934,-45.4732 L 60.9561,-45.3442 L 60.8037,-45.2335 L 60.6387,-45.1428 L 60.4635,-45.0734
 L 60.2811,-45.0266 L 60.0942,-45.003 z
M 59.8116,-36.0059 L 59.4379,-36.0531 L 59.0729,-36.1468 L 58.7227,-36.2855 L 58.3925,-36.467 L 58.0877,-36.6885
 L 57.8131,-36.9464 L 57.5729,-37.2366 L 57.3711,-37.5547 L 57.2107,-37.8956 L 57.0942,-38.2539 L 57.0237,-38.624
 L 57,-39 L 57.0237,-39.376 L 57.0942,-39.7461 L 57.2107,-40.1044 L 57.3711,-40.4453 L 57.5729,-40.7634
 L 57.8131,-41.0536 L 58.0877,-41.3116 L 58.3925,-41.533 L 58.7227,-41.7145 L 59.0729,-41.8532 L 59.4379,-41.9469
 L 59.8116,-41.9941 L 60.1884,-41.9941 L 60.5621,-41.9469 L 60.927,-41.8532 L 61.2773,-41.7145 L 61.6075,-41.533
 L 61.9123,-41.3116 L 62.1869,-41.0536 L 62.427,-40.7634 L 62.6289,-40.4453 L 62.7893,-40.1044 L 62.9057,-39.7461
 L 62.9763,-39.376 L 63,-39 L 62.9763,-38.624 L 62.9057,-38.2539 L 62.7893,-37.8956 L 62.6289,-37.5547
 L 62.427,-37.2366 L 62.1869,-36.9464 L 61.9123,-36.6885 L 61.6075,-36.467 L 61.2773,-36.2855 L 60.927,-36.1468
 L 60.5621,-36.0531 L 60.1884,-36.0059 z
M -60.1884,-36.0059 L -60.5621,-36.0531 L -60.927,-36.1468 L -61.2773,-36.2855 L -61.6075,-36.467 L -61.9123,-36.6885
 L -62.1869,-36.9464 L -62.427,-37.2366 L -62.6289,-37.5547 L -62.7893,-37.8956 L -62.9057,-38.2539 L -62.9763,-38.624
 L -63,-39 L -62.9763,-39.376 L -62.9057,-39.7461 L -62.7893,-40.1044 L -62.6289,-40.4453 L -62.427,-40.7634
 L -62.1869,-41.0536 L -61.9123,-41.3116 L -61.6075,-41.533 L -61.2773,-41.7145 L -60.927,-41.8532 L -60.5621,-41.9469
 L -60.1884,-41.9941 L -59.8116,-41.9941 L -59.4379,-41.9469 L -59.0729,-41.8532 L -58.7227,-41.7145 L -58.3925,-41.533
 L -58.0877,-41.3116 L -57.8131,-41.0536 L -57.5729,-40.7634 L -57.3711,-40.4453 L -57.2107,-40.1044 L -57.0942,-39.7461
 L -57.0237,-39.376 L -57,-39 L -57.0237,-38.624 L -57.0942,-38.2539 L -57.2107,-37.8956 L -57.3711,-37.5547
 L -57.5729,-37.2366 L -57.8131,-36.9464 L -58.0877,-36.6885 L -58.3925,-36.467 L -58.7227,-36.2855 L -59.0729,-36.1468
 L -59.4379,-36.0531 L -59.8116,-36.0059 z
" stroke="black" fill="lightgray" stroke-width="0.5"/>
</svg>
