<?xml version="1.0" standalone="no"?>
<!DOCTYPE svg PUBLIC "-//W3C//DTD SVG 1.1//EN" "http://www.w3.org/Graphics/SVG/1.1/DTD/svg11.dtd">
<svg width="720mm" height="150mm" viewBox="-360 -75 720 150" xmlns="http://www.w3.org/2000/svg" version="1.1">
<title>OpenSCAD Model</title>
<path d="
M 355.437,74.4114 L 356.045,74.2553 L 356.629,74.0241 L 357.179,73.7216 L 357.687,73.3526 L 358.145,72.9227
 L 358.545,72.4389 L 358.882,71.9088 L 359.149,71.3406 L 359.343,70.7434 L 359.461,70.1267 L 359.5,69.5
 L 359.5,-69.5 L 359.461,-70.1267 L 359.343,-70.7434 L 359.149,-71.3406 L 358.882,-71.9088 L 358.545,-72.4389
 L 358.145,-72.9227 L 357.687,-73.3526 L 357.179,-73.7216 L 356.629,-74.0241 L 356.045,-74.2553 L 355.437,-74.4114
 L 354.814,-74.4901 L -354.814,-74.4901 L -355.437,-74.4114 L -356.045,-74.2553 L -356.629,-74.0241 L -357.179,-73.7216
 L -357.687,-73.3526 L -358.145,-72.9227 L -358.545,-72.4389 L -358.882,-71.9088 L -359.149,-71.3406 L -359.343,-70.7434
 L -359.461,-70.1267 L -359.5,-69.5 L -359.5,69.5 L -359.461,70.1267 L -359.343,70.7434 L -359.149,71.3406
 L -358.882,71.9088 L -358.545,72.4389 L -358.145,72.9227 L -357.687,73.3526 L -357.179,73.7216 L -356.629,74.0241
 L -356.045,74.2553 L -355.437,74.4114 L -354.814,74.4901 L 354.814,74.4901 z
M 352.312,-64.5059 L 351.938,-64.5531 L 351.573,-64.6468 L 351.223,-64.7855 L 350.893,-64.967 L 350.588,-65.1885
 L 350.313,-65.4464 L 350.073,-65.7366 L 349.871,-66.0547 L 349.711,-66.3956 L 349.594,-66.7539 L 349.524,-67.124
 L 349.5,-67.5 L 349.524,-67.876 L 349.594,-68.2461 L 349.711,-68.6044 L 349.871,-68.9453 L 350.073,-69.2634
 L 350.313,-69.5536 L 350.588,-69.8115 L 350.893,-70.033 L 351.223,-70.2145 L 351.573,-70.3532 L 351.938,-70.4469
 L 352.312,-70.4941 L 352.688,-70.4941 L 353.062,-70.4469 L 353.427,-70.3532 L 353.777,-70.2145 L 354.107,-70.033
 L 354.412,-69.8115 L 354.687,-69.5536 L 354.927,-69.2634 L 355.129,-68.9453 L 355.289,-68.6044 L 355.406,-68.2461
 L 355.476,-67.876 L 355.5,-67.5 L 355.476,-67.124 L 355.406,-66.7539 L 355.289,-66.3956 L 355.129,-66.0547
 L 354.927,-65.7366 L 354.687,-65.4464 L 354.412,-65.1885 L 354.107,-64.967 L 353.777,-64.7855 L 353.427,-64.6468
 L 353.062,-64.5531 L 352.688,-64.5059 z
M -352.688,-64.5059 L -353.062,-64.5531 L -353.427,-64.6468 L -353.777,-64.7855 L -354.107,-64.967 L -354.412,-65.1885
 L -354.687,-65.4464 L -354.927,-65.7366 L -355.129,-66.0547 L -355.289,-66.3956 L -355.406,-66.7539 L -355.476,-67.124
 L -355.5,-67.5 L -355.476,-67.876 L -355.406,-68.2461 L -355.289,-68.6044 L -355.129,-68.9453 L -354.927,-69.2634
 L -354.687,-69.5536 L -354.412,-69.8115 L -354.107,-70.033 L -353.777,-70.2145 L -353.427,-70.3532 L -353.062,-70.4469
 L -352.688,-70.4941 L -352.312,-70.4941 L -351.938,-70.4469 L -351.573,-70.3532 L -351.223,-70.2145 L -350.893,-70.033
 L -350.588,-69.8115 L -350.313,-69.5536 L -350.073,-69.2634 L -349.871,-68.9453 L -349.711,-68.6044 L -349.594,-68.2461
 L -349.524,-67.876 L -349.5,-67.5 L -349.524,-67.124 L -349.594,-66.7539 L -349.711,-66.3956 L -349.871,-66.0547
 L -350.073,-65.7366 L -350.313,-65.4464 L -350.588,-65.1885 L -350.893,-64.967 L -351.223,-64.7855 L -351.573,-64.6468
 L -351.938,-64.5531 L -352.312,-64.5059 z
M 135.762,67.3668 L 127.352,66.3044 L 119.141,64.1963 L 111.26,61.0758 L 103.832,56.9921 L 96.9739,52.0096
 L 90.7946,46.2069 L 85.3913,39.6755 L 80.8493,32.5184 L 77.2401,24.8484 L 74.6206,16.7866 L 73.0323,8.45999
 L 72.5,-0 L 73.0323,-8.45999 L 74.6206,-16.7866 L 77.2401,-24.8484 L 80.8493,-32.5184 L 85.3913,-39.6755
 L 90.7946,-46.2069 L 96.9739,-52.0096 L 103.832,-56.9921 L 111.26,-61.0758 L 119.141,-64.1963 L 127.352,-66.3044
 L 135.762,-67.3668 L 144.238,-67.3668 L 152.648,-66.3044 L 160.859,-64.1963 L 168.74,-61.0758 L 176.168,-56.9921
 L 183.026,-52.0096 L 189.205,-46.2069 L 194.609,-39.6755 L 199.151,-32.5184 L 202.76,-24.8484 L 205.379,-16.7866
 L 206.968,-8.45999 L 207.5,-0 L 206.968,8.45999 L 205.379,16.7866 L 202.76,24.8484 L 199.151,32.5184
 L 194.609,39.6755 L 189.205,46.2069 L 183.026,52.0096 L 176.168,56.9921 L 168.74,61.0758 L 160.859,64.1963
 L 152.648,66.3044 L 144.238,67.3668 z
M -284.238,67.3668 L -292.648,66.3044 L -300.859,64.1963 L -308.74,61.0758 L -316.168,56.9921 L -323.026,52.0096
 L -329.205,46.2069 L -334.609,39.6755 L -339.151,32.5184 L -342.76,24.8484 L -345.379,16.7866 L -346.968,8.45999
 L -347.5,-0 L -346.968,-8.45999 L -345.379,-16.7866 L -342.76,-24.8484 L -339.151,-32.5184 L -334.609,-39.6755
 L -329.205,-46.2069 L -323.026,-52.0096 L -316.168,-56.9921 L -308.74,-61.0758 L -300.859,-64.1963 L -292.648,-66.3044
 L -284.238,-67.3668 L -275.762,-67.3668 L -267.352,-66.3044 L -259.141,-64.1963 L -251.26,-61.0758 L -243.832,-56.9921
 L -236.974,-52.0096 L -230.795,-46.2069 L -225.391,-39.6755 L -220.849,-32.5184 L -217.24,-24.8484 L -214.621,-16.7866
 L -213.032,-8.45999 L -212.5,-0 L -213.032,8.45999 L -214.621,16.7866 L -217.24,24.8484 L -220.849,32.5184
 L -225.391,39.6755 L -230.795,46.2069 L -236.974,52.0096 L -243.832,56.9921 L -251.26,61.0758 L -259.141,64.1963
 L -267.352,66.3044 L -275.762,67.3668 z
M -4.23836,67.3668 L -12.6482,66.3044 L -20.8586,64.1963 L -28.7401,61.0758 L -36.1683,56.9921 L -43.0261,52.0096
 L -49.2054,46.2069 L -54.6086,39.6755 L -59.1507,32.5184 L -62.7599,24.8484 L -65.3794,16.7866 L -66.9677,8.45999
 L -67.5,-0 L -66.9677,-8.45999 L -65.3794,-16.7866 L -62.7599,-24.8484 L -59.1507,-32.5184 L -54.6086,-39.6755
 L -49.2054,-46.2069 L -43.0261,-52.0096 L -36.1683,-56.9921 L -28.7401,-61.0758 L -20.8586,-64.1963 L -12.6482,-66.3044
 L -4.23836,-67.3668 L 4.23836,-67.3668 L 12.6482,-66.3044 L 20.8586,-64.1963 L 28.7401,-61.0758 L 36.1683,-56.9921
 L 43.0261,-52.0096 L 49.2054,-46.2069 L 54.6086,-39.6755 L 59.1507,-32.5184 L 62.7599,-24.8484 L 65.3794,-16.7866
 L 66.9677,-8.45999 L 67.5,-0 L 66.9677,8.45999 L 65.3794,16.7866 L 62.7599,24.8484 L 59.1507,32.5184
 L 54.6086,39.6755 L 49.2054,46.2069 L 43.0261,52.0096 L 36.1683,56.9921 L 28.7401,61.0758 L 20.8586,64.1963
 L 12.6482,66.3044 L 4.23836,67.3668 z
M -144.238,67.3668 L -152.648,66.3044 L -160.859,64.1963 L -168.74,61.0758 L -176.168,56.9921 L -183.026,52.0096
 L -189.205,46.2069 L -194.609,39.6755 L -199.151,32.5184 L -202.76,24.8484 L -205.379,16.7866 L -206.968,8.45999
 L -207.5,-0 L -206.968,-8.45999 L -205.379,-16.7866 L -202.76,-24.8484 L -199.151,-32.5184 L -194.609,-39.6755
 L -189.205,-46.2069 L -183.026,-52.0096 L -176.168,-56.9921 L -168.74,-61.0758 L -160.859,-64.1963 L -152.648,-66.3044
 L -144.238,-67.3668 L -135.762,-67.3668 L -127.352,-66.3044 L -119.141,-64.1963 L -111.26,-61.0758 L -103.832,-56.9921
 L -96.9739,-52.0096 L -90.7946,-46.2069 L -85.3913,-39.6755 L -80.8493,-32.5184 L -77.2401,-24.8484 L -74.6206,-16.7866
 L -73.0323,-8.45999 L -72.5,-0 L -73.0323,8.45999 L -74.6206,16.7866 L -77.2401,24.8484 L -80.8493,32.5184
 L -85.3913,39.6755 L -90.7946,46.2069 L -96.9739,52.0096 L -103.832,56.9921 L -111.26,61.0758 L -119.141,64.1963
 L -127.352,66.3044 L -135.762,67.3668 z
M 275.762,67.3668 L 267.352,66.3044 L 259.141,64.1963 L 251.26,61.0758 L 243.832,56.9921 L 236.974,52.0096
 L 230.795,46.2069 L 225.391,39.6755 L 220.849,32.5184 L 217.24,24.8484 L 214.621,16.7866 L 213.032,8.45999
 L 212.5,-0 L 213.032,-8.45999 L 214.621,-16.7866 L 217.24,-24.8484 L 220.849,-32.5184 L 225.391,-39.6755
 L 230.795,-46.2069 L 236.974,-52.0096 L 243.832,-56.9921 L 251.26,-61.0758 L 259.141,-64.1963 L 267.352,-66.3044
 L 275.762,-67.3668 L 284.238,-67.3668 L 292.648,-66.3044 L 300.859,-64.1963 L 308.74,-61.0758 L 316.168,-56.9921
 L 323.026,-52.0096 L 329.205,-46.2069 L 334.609,-39.6755 L 339.151,-32.5184 L 342.76,-24.8484 L 345.379,-16.7866
 L 346.968,-8.45999 L 347.5,-0 L 346.968,8.45999 L 345.379,16.7866 L 342.76,24.8484 L 339.151,32.5184
 L 334.609,39.6755 L 329.205,46.2069 L 323.026,52.0096 L 316.168,56.9921 L 308.74,61.0758 L 300.859,64.1963
 L 292.648,66.3044 L 284.238,67.3668 z
M 352.406,-58.503 L 352.219,-58.5266 L 352.036,-58.5734 L 351.861,-58.6428 L 351.696,-58.7335 L 351.544,-58.8442
 L 351.407,-58.9732 L 351.286,-59.1183 L 351.186,-59.2774 L 351.105,-59.4478 L 351.047,-59.627 L 351.012,-59.812
 L 351,-60 L 351.012,-60.188 L 351.047,-60.373 L 351.105,-60.5522 L 351.186,-60.7226 L 351.286,-60.8817
 L 351.407,-61.0268 L 351.544,-61.1558 L 351.696,-61.2665 L 351.861,-61.3572 L 352.036,-61.4266 L 352.219,-61.4734
 L 352.406,-61.497 L 352.594,-61.497 L 352.781,-61.4734 L 352.964,-61.4266 L 353.139,-61.3572 L 353.304,-61.2665
 L 353.456,-61.1558 L 353.593,-61.0268 L 353.714,-60.8817 L 353.814,-60.7226 L 353.895,-60.5522 L 353.953,-60.373
 L 353.988,-60.188 L 354,-60 L 353.988,-59.812 L 353.953,-59.627 L 353.895,-59.4478 L 353.814,-59.2774
 L 353.714,-59.1183 L 353.593,-58.9732 L 353.456,-58.8442 L 353.304,-58.7335 L 353.139,-58.6428 L 352.964,-58.5734
 L 352.781,-58.5266 L 352.594,-58.503 z
M -352.594,-58.503 L -352.781,-58.5266 L -352.964,-58.5734 L -353.139,-58.6428 L -353.304,-58.7335 L -353.456,-58.8442
 L -353.593,-58.9732 L -353.714,-59.1183 L -353.814,-59.2774 L -353.895,-59.4478 L -353.953,-59.627 L -353.988,-59.812
 L -354,-60 L -353.988,-60.188 L -353.953,-60.373 L -353.895,-60.5522 L -353.814,-60.7226 L -353.714,-60.8817
 L -353.593,-61.0268 L -353.456,-61.1558 L -353.304,-61.2665 L -353.139,-61.3572 L -352.964,-61.4266 L -352.781,-61.4734
 L -352.594,-61.497 L -352.406,-61.497 L -352.219,-61.4734 L -352.036,-61.4266 L -351.861,-61.3572 L -351.696,-61.2665
 L -351.544,-61.1558 L -351.407,-61.0268 L -351.286,-60.8817 L -351.186,-60.7226 L -351.105,-60.5522 L -351.047,-60.373
 L -351.012,-60.188 L -351,-60 L -351.012,-59.812 L -351.047,-59.627 L -351.105,-59.4478 L -351.186,-59.2774
 L -351.286,-59.1183 L -351.407,-58.9732 L -351.544,-58.8442 L -351.696,-58.7335 L -351.861,-58.6428 L -352.036,-58.5734
 L -352.219,-58.5266 L -352.406,-58.503 z
M 352.312,-49.5059 L 351.938,-49.5531 L 351.573,-49.6468 L 351.223,-49.7855 L 350.893,-49.967 L 350.588,-50.1885
 L 350.313,-50.4464 L 350.073,-50.7366 L 349.871,-51.0547 L 349.711,-51.3956 L 349.594,-51.7539 L 349.524,-52.124
 L 349.5,-52.5 L 349.524,-52.876 L 349.594,-53.2461 L 349.711,-53.6044 L 349.871,-53.9453 L 350.073,-54.2634
 L 350.313,-54.5536 L 350.588,-54.8115 L 350.893,-55.033 L 351.223,-55.2145 L 351.573,-55.3532 L 351.938,-55.4469
 L 352.312,-55.4941 L 352.688,-55.4941 L 353.062,-55.4469 L 353.427,-55.3532 L 353.777,-55.2145 L 354.107,-55.033
 L 354.412,-54.8115 L 354.687,-54.5536 L 354.927,-54.2634 L 355.129,-53.9453 L 355.289,-53.6044 L 355.406,-53.2461
 L 355.476,-52.876 L 355.5,-52.5 L 355.476,-52.124 L 355.406,-51.7539 L 355.289,-51.3956 L 355.129,-51.0547
 L 354.927,-50.7366 L 354.687,-50.4464 L 354.412,-50.1885 L 354.107,-49.967 L 353.777,-49.7855 L 353.427,-49.6468
 L 353.062,-49.5531 L 352.688,-49.5059 z
M -352.688,-49.5059 L -353.062,-49.5531 L -353.427,-49.6468 L -353.777,-49.7855 L -354.107,-49.967 L -354.412,-50.1885
 L -354.687,-50.4464 L -354.927,-50.7366 L -355.129,-51.0547 L -355.289,-51.3956 L -355.406,-51.7539 L -355.476,-52.124
 L -355.5,-52.5 L -355.476,-52.876 L -355.406,-53.2461 L -355.289,-53.6044 L -355.129,-53.9453 L -354.927,-54.2634
 L -354.687,-54.5536 L -354.412,-54.8115 L -354.107,-55.033 L -353.777,-55.2145 L -353.427,-55.3532 L -353.062,-55.4469
 L -352.688,-55.4941 L -352.312,-55.4941 L -351.938,-55.4469 L -351.573,-55.3532 L -351.223,-55.2145 L -350.893,-55.033
 L -350.588,-54.8115 L -350.313,-54.5536 L -350.073,-54.2634 L -349.871,-53.9453 L -349.711,-53.6044 L -349.594,-53.2461
 L -349.524,-52.876 L -349.5,-52.5 L -349.524,-52.124 L -349.594,-51.7539 L -349.711,-51.3956 L -349.871,-51.0547
 L -350.073,-50.7366 L -350.313,-50.4464 L -350.588,-50.1885 L -350.893,-49.967 L -351.223,-49.7855 L -351.573,-49.6468
 L -351.938,-49.5531 L -352.312,-49.5059 z
M -352.594,-43.503 L -352.781,-43.5266 L -352.964,-43.5734 L -353.139,-43.6428 L -353.304,-43.7335 L -353.456,-43.8442
 L -353.593,-43.9732 L -353.714,-44.1183 L -353.814,-44.2774 L -353.895,-44.4478 L -353.953,-44.627 L -353.988,-44.812
 L -354,-45 L -353.988,-45.188 L -353.953,-45.373 L -353.895,-45.5522 L -353.814,-45.7226 L -353.714,-45.8817
 L -353.593,-46.0268 L -353.456,-46.1558 L -353.304,-46.2665 L -353.139,-46.3572 L -352.964,-46.4266 L -352.781,-46.4734
 L -352.594,-46.497 L -352.406,-46.497 L -352.219,-46.4734 L -352.036,-46.4266 L -351.861,-46.3572 L -351.696,-46.2665
 L -351.544,-46.1558 L -351.407,-46.0268 L -351.286,-45.8817 L -351.186,-45.7226 L -351.105,-45.5522 L -351.047,-45.373
 L -351.012,-45.188 L -351,-45 L -351.012,-44.812 L -351.047,-44.627 L -351.105,-44.4478 L -351.186,-44.2774
 L -351.286,-44.1183 L -351.407,-43.9732 L -351.544,-43.8442 L -351.696,-43.7335 L -351.861,-43.6428 L -352.036,-43.5734
 L -352.219,-43.5266 L -352.406,-43.503 z
M 352.406,-43.503 L 352.219,-43.5266 L 352.036,-43.5734 L 351.861,-43.6428 L 351.696,-43.7335 L 351.544,-43.8442
 L 351.407,-43.9732 L 351.286,-44.1183 L 351.186,-44.2774 L 351.105,-44.4478 L 351.047,-44.627 L 351.012,-44.812
 L 351,-45 L 351.012,-45.188 L 351.047,-45.373 L 351.105,-45.5522 L 351.186,-45.7226 L 351.286,-45.8817
 L 351.407,-46.0268 L 351.544,-46.1558 L 351.696,-46.2665 L 351.861,-46.3572 L 352.036,-46.4266 L 352.219,-46.4734
 L 352.406,-46.497 L 352.594,-46.497 L 352.781,-46.4734 L 352.964,-46.4266 L 353.139,-46.3572 L 353.304,-46.2665
 L 353.456,-46.1558 L 353.593,-46.0268 L 353.714,-45.8817 L 353.814,-45.7226 L 353.895,-45.5522 L 353.953,-45.373
 L 353.988,-45.188 L 354,-45 L 353.988,-44.812 L 353.953,-44.627 L 353.895,-44.4478 L 353.814,-44.2774
 L 353.714,-44.1183 L 353.593,-43.9732 L 353.456,-43.8442 L 353.304,-43.7335 L 353.139,-43.6428 L 352.964,-43.5734
 L 352.781,-43.5266 L 352.594,-43.503 z
M 352.312,-34.5059 L 351.938,-34.5531 L 351.573,-34.6468 L 351.223,-34.7855 L 350.893,-34.967 L 350.588,-35.1885
 L 350.313,-35.4464 L 350.073,-35.7366 L 349.871,-36.0547 L 349.711,-36.3956 L 349.594,-36.7539 L 349.524,-37.124
 L 349.5,-37.5 L 349.524,-37.876 L 349.594,-38.2461 L 349.711,-38.6044 L 349.871,-38.9453 L 350.073,-39.2634
 L 350.313,-39.5536 L 350.588,-39.8115 L 350.893,-40.033 L 351.223,-40.2145 L 351.573,-40.3532 L 351.938,-40.4469
 L 352.312,-40.4941 L 352.688,-40.4941 L 353.062,-40.4469 L 353.427,-40.3532 L 353.777,-40.2145 L 354.107,-40.033
 L 354.412,-39.8115 L 354.687,-39.5536 L 354.927,-39.2634 L 355.129,-38.9453 L 355.289,-38.6044 L 355.406,-38.2461
 L 355.476,-37.876 L 355.5,-37.5 L 355.476,-37.124 L 355.406,-36.7539 L 355.289,-36.3956 L 355.129,-36.0547
 L 354.927,-35.7366 L 354.687,-35.4464 L 354.412,-35.1885 L 354.107,-34.967 L 353.777,-34.7855 L 353.427,-34.6468
 L 353.062,-34.5531 L 352.688,-34.5059 z
M -352.688,-34.5059 L -353.062,-34.5531 L -353.427,-34.6468 L -353.777,-34.7855 L -354.107,-34.967 L -354.412,-35.1885
 L -354.687,-35.4464 L -354.927,-35.7366 L -355.129,-36.0547 L -355.289,-36.3956 L -355.406,-36.7539 L -355.476,-37.124
 L -355.5,-37.5 L -355.476,-37.876 L -355.406,-38.2461 L -355.289,-38.6044 L -355.129,-38.9453 L -354.927,-39.2634
 L -354.687,-39.5536 L -354.412,-39.8115 L -354.107,-40.033 L -353.777,-40.2145 L -353.427,-40.3532 L -353.062,-40.4469
 L -352.688,-40.4941 L -352.312,-40.4941 L -351.938,-40.4469 L -351.573,-40.3532 L -351.223,-40.2145 L -350.893,-40.033
 L -350.588,-39.8115 L -350.313,-39.5536 L -350.073,-39.2634 L -349.871,-38.9453 L -349.711,-38.6044 L -349.594,-38.2461
 L -349.524,-37.876 L -349.5,-37.5 L -349.524,-37.124 L -349.594,-36.7539 L -349.711,-36.3956 L -349.871,-36.0547
 L -350.073,-35.7366 L -350.313,-35.4464 L -350.588,-35.1885 L -350.893,-34.967 L -351.223,-34.7855 L -351.573,-34.6468
 L -351.938,-34.5531 L -352.312,-34.5059 z
M -352.594,-28.503 L -352.781,-28.5266 L -352.964,-28.5734 L -353.139,-28.6427 L -353.304,-28.7335 L -353.456,-28.8442
 L -353.593,-28.9732 L -353.714,-29.1183 L -353.814,-29.2774 L -353.895,-29.4478 L -353.953,-29.627 L -353.988,-29.812
 L -354,-30 L -353.988,-30.188 L -353.953,-30.373 L -353.895,-30.5522 L -353.814,-30.7226 L -353.714,-30.8817
 L -353.593,-31.0268 L -353.456,-31.1558 L -353.304,-31.2665 L -353.139,-31.3572 L -352.964,-31.4266 L -352.781,-31.4734
 L -352.594,-31.497 L -352.406,-31.497 L -352.219,-31.4734 L -352.036,-31.4266 L -351.861,-31.3572 L -351.696,-31.2665
 L -351.544,-31.1558 L -351.407,-31.0268 L -351.286,-30.8817 L -351.186,-30.7226 L -351.105,-30.5522 L -351.047,-30.373
 L -351.012,-30.188 L -351,-30 L -351.012,-29.812 L -351.047,-29.627 L -351.105,-29.4478 L -351.186,-29.2774
 L -351.286,-29.1183 L -351.407,-28.9732 L -351.544,-28.8442 L -351.696,-28.7335 L -351.861,-28.6427 L -352.036,-28.5734
 L -352.219,-28.5266 L -352.406,-28.503 z
M 352.406,-28.503 L 352.219,-28.5266 L 352.036,-28.5734 L 351.861,-28.6427 L 351.696,-28.7335 L 351.544,-28.8442
 L 351.407,-28.9732 L 351.286,-29.1183 L 351.186,-29.2774 L 351.105,-29.4478 L 351.047,-29.627 L 351.012,-29.812
 L 351,-30 L 351.012,-30.188 L 351.047,-30.373 L 351.105,-30.5522 L 351.186,-30.7226 L 351.286,-30.8817
 L 351.407,-31.0268 L 351.544,-31.1558 L 351.696,-31.2665 L 351.861,-31.3572 L 352.036,-31.4266 L 352.219,-31.4734
 L 352.406,-31.497 L 352.594,-31.497 L 352.781,-31.4734 L 352.964,-31.4266 L 353.139,-31.3572 L 353.304,-31.2665
 L 353.456,-31.1558 L 353.593,-31.0268 L 353.714,-30.8817 L 353.814,-30.7226 L 353.895,-30.5522 L 353.953,-30.373
 L 353.988,-30.188 L 354,-30 L 353.988,-29.812 L 353.953,-29.627 L 353.895,-29.4478 L 353.814,-29.2774
 L 353.714,-29.1183 L 353.593,-28.9732 L 353.456,-28.8442 L 353.304,-28.7335 L 353.139,-28.6427 L 352.964,-28.5734
 L 352.781,-28.5266 L 352.594,-28.503 z
M 352.312,-19.5059 L 351.938,-19.5531 L 351.573,-19.6468 L 351.223,-19.7855 L 350.893,-19.967 L 350.588,-20.1884
 L 350.313,-20.4464 L 350.073,-20.7366 L 349.871,-21.0547 L 349.711,-21.3956 L 349.594,-21.7539 L 349.524,-22.124
 L 349.5,-22.5 L 349.524,-22.876 L 349.594,-23.2461 L 349.711,-23.6044 L 349.871,-23.9453 L 350.073,-24.2634
 L 350.313,-24.5536 L 350.588,-24.8115 L 350.893,-25.033 L 351.223,-25.2145 L 351.573,-25.3532 L 351.938,-25.4469
 L 352.312,-25.4941 L 352.688,-25.4941 L 353.062,-25.4469 L 353.427,-25.3532 L 353.777,-25.2145 L 354.107,-25.033
 L 354.412,-24.8115 L 354.687,-24.5536 L 354.927,-24.2634 L 355.129,-23.9453 L 355.289,-23.6044 L 355.406,-23.2461
 L 355.476,-22.876 L 355.5,-22.5 L 355.476,-22.124 L 355.406,-21.7539 L 355.289,-21.3956 L 355.129,-21.0547
 L 354.927,-20.7366 L 354.687,-20.4464 L 354.412,-20.1884 L 354.107,-19.967 L 353.777,-19.7855 L 353.427,-19.6468
 L 353.062,-19.5531 L 352.688,-19.5059 z
M -352.688,-19.5059 L -353.062,-19.5531 L -353.427,-19.6468 L -353.777,-19.7855 L -354.107,-19.967 L -354.412,-20.1884
 L -354.687,-20.4464 L -354.927,-20.7366 L -355.129,-21.0547 L -355.289,-21.3956 L -355.406,-21.7539 L -355.476,-22.124
 L -355.5,-22.5 L -355.476,-22.876 L -355.406,-23.2461 L -355.289,-23.6044 L -355.129,-23.9453 L -354.927,-24.2634
 L -354.687,-24.5536 L -354.412,-24.8115 L -354.107,-25.033 L -353.777,-25.2145 L -353.427,-25.3532 L -353.062,-25.4469
 L -352.688,-25.4941 L -352.312,-25.4941 L -351.938,-25.4469 L -351.573,-25.3532 L -351.223,-25.2145 L -350.893,-25.033
 L -350.588,-24.8115 L -350.313,-24.5536 L -350.073,-24.2634 L -349.871,-23.9453 L -349.711,-23.6044 L -349.594,-23.2461
 L -349.524,-22.876 L -349.5,-22.5 L -349.524,-22.124 L -349.594,-21.7539 L -349.711,-21.3956 L -349.871,-21.0547
 L -350.073,-20.7366 L -350.313,-20.4464 L -350.588,-20.1884 L -350.893,-19.967 L -351.223,-19.7855 L -351.573,-19.6468
 L -351.938,-19.5531 L -352.312,-19.5059 z
M -352.594,-13.5029 L -352.781,-13.5266 L -352.964,-13.5734 L -353.139,-13.6427 L -353.304,-13.7335 L -353.456,-13.8442
 L -353.593,-13.9732 L -353.714,-14.1183 L -353.814,-14.2774 L -353.895,-14.4478 L -353.953,-14.627 L -353.988,-14.812
 L -354,-15 L -353.988,-15.188 L -353.953,-15.373 L -353.895,-15.5522 L -353.814,-15.7226 L -353.714,-15.8817
 L -353.593,-16.0268 L -353.456,-16.1558 L -353.304,-16.2665 L -353.139,-16.3572 L -352.964,-16.4266 L -352.781,-16.4734
 L -352.594,-16.497 L -352.406,-16.497 L -352.219,-16.4734 L -352.036,-16.4266 L -351.861,-16.3572 L -351.696,-16.2665
 L -351.544,-16.1558 L -351.407,-16.0268 L -351.286,-15.8817 L -351.186,-15.7226 L -351.105,-15.5522 L -351.047,-15.373
 L -351.012,-15.188 L -351,-15 L -351.012,-14.812 L -351.047,-14.627 L -351.105,-14.4478 L -351.186,-14.2774
 L -351.286,-14.1183 L -351.407,-13.9732 L -351.544,-13.8442 L -351.696,-13.7335 L -351.861,-13.6427 L -352.036,-13.5734
 L -352.219,-13.5266 L -352.406,-13.5029 z
M 352.406,-13.5029 L 352.219,-13.5266 L 352.036,-13.5734 L 351.861,-13.6427 L 351.696,-13.7335 L 351.544,-13.8442
 L 351.407,-13.9732 L 351.286,-14.1183 L 351.186,-14.2774 L 351.105,-14.4478 L 351.047,-14.627 L 351.012,-14.812
 L 351,-15 L 351.012,-15.188 L 351.047,-15.373 L 351.105,-15.5522 L 351.186,-15.7226 L 351.286,-15.8817
 L 351.407,-16.0268 L 351.544,-16.1558 L 351.696,-16.2665 L 351.861,-16.3572 L 352.036,-16.4266 L 352.219,-16.4734
 L 352.406,-16.497 L 352.594,-16.497 L 352.781,-16.4734 L 352.964,-16.4266 L 353.139,-16.3572 L 353.304,-16.2665
 L 353.456,-16.1558 L 353.593,-16.0268 L 353.714,-15.8817 L 353.814,-15.7226 L 353.895,-15.5522 L 353.953,-15.373
 L 353.988,-15.188 L 354,-15 L 353.988,-14.812 L 353.953,-14.627 L 353.895,-14.4478 L 353.814,-14.2774
 L 353.714,-14.1183 L 353.593,-13.9732 L 353.456,-13.8442 L 353.304,-13.7335 L 353.139,-13.6427 L 352.964,-13.5734
 L 352.781,-13.5266 L 352.594,-13.5029 z
M -352.688,-4.50591 L -353.062,-4.55313 L -353.427,-4.64682 L -353.777,-4.78551 L -354.107,-4.96701 L -354.412,-5.18845
 L -354.687,-5.44635 L -354.927,-5.73663 L -355.129,-6.05473 L -355.289,-6.39561 L -355.406,-6.75392 L -355.476,-7.12399
 L -355.5,-7.5 L -355.476,-7.87599 L -355.406,-8.24606 L -355.289,-8.60437 L -355.129,-8.94525 L -354.927,-9.26335
 L -354.687,-9.55363 L -354.412,-9.81154 L -354.107,-10.033 L -353.777,-10.2145 L -353.427,-10.3532 L -353.062,-10.4469
 L -352.688,-10.4941 L -352.312,-10.4941 L -351.938,-10.4469 L -351.573,-10.3532 L -351.223,-10.2145 L -350.893,-10.033
 L -350.588,-9.81154 L -350.313,-9.55363 L -350.073,-9.26335 L -349.871,-8.94525 L -349.711,-8.60437 L -349.594,-8.24606
 L -349.524,-7.87599 L -349.5,-7.5 L -349.524,-7.12399 L -349.594,-6.75392 L -349.711,-6.39561 L -349.871,-6.05473
 L -350.073,-5.73663 L -350.313,-5.44635 L -350.588,-5.18845 L -350.893,-4.96701 L -351.223,-4.78551 L -351.573,-4.64682
 L -351.938,-4.55313 L -352.312,-4.50591 z
M 352.312,-4.50591 L 351.938,-4.55313 L 351.573,-4.64682 L 351.223,-4.78551 L 350.893,-4.96701 L 350.588,-5.18845
 L 350.313,-5.44635 L 350.073,-5.73663 L 349.871,-6.05473 L 349.711,-6.39561 L 349.594,-6.75392 L 349.524,-7.12399
 L 349.5,-7.5 L 349.524,-7.87599 L 349.594,-8.24606 L 349.711,-8.60437 L 349.871,-8.94525 L 350.073,-9.26335
 L 350.313,-9.55363 L 350.588,-9.81154 L 350.893,-10.033 L 351.223,-10.2145 L 351.573,-10.3532 L 351.938,-10.4469
 L 352.312,-10.4941 L 352.688,-10.4941 L 353.062,-10.4469 L 353.427,-10.3532 L 353.777,-10.2145 L 354.107,-10.033
 L 354.412,-9.81154 L 354.687,-9.55363 L 354.927,-9.26335 L 355.129,-8.94525 L 355.289,-8.60437 L 355.406,-8.24606
 L 355.476,-7.87599 L 355.5,-7.5 L 355.476,-7.12399 L 355.406,-6.75392 L 355.289,-6.39561 L 355.129,-6.05473
 L 354.927,-5.73663 L 354.687,-5.44635 L 354.412,-5.18845 L 354.107,-4.96701 L 353.777,-4.78551 L 353.427,-4.64682
 L 353.062,-4.55313 L 352.688,-4.50591 z
M 352.406,1.49704 L 352.219,1.47342 L 352.036,1.42657 L 351.861,1.35724 L 351.696,1.26648 L 351.544,1.15576
 L 351.407,1.02681 L 351.286,0.881668 L 351.186,0.722626 L 351.105,0.552185 L 351.047,0.373032 L 351.012,0.187988
 L 351,-0 L 351.012,-0.187988 L 351.047,-0.373032 L 351.105,-0.552185 L 351.186,-0.722626 L 351.286,-0.881668
 L 351.407,-1.02681 L 351.544,-1.15576 L 351.696,-1.26648 L 351.861,-1.35724 L 352.036,-1.42657 L 352.219,-1.47342
 L 352.406,-1.49704 L 352.594,-1.49704 L 352.781,-1.47342 L 352.964,-1.42657 L 353.139,-1.35724 L 353.304,-1.26648
 L 353.456,-1.15576 L 353.593,-1.02681 L 353.714,-0.881668 L 353.814,-0.722626 L 353.895,-0.552185 L 353.953,-0.373032
 L 353.988,-0.187988 L 354,-0 L 353.988,0.187988 L 353.953,0.373032 L 353.895,0.552185 L 353.814,0.722626
 L 353.714,0.881668 L 353.593,1.02681 L 353.456,1.15576 L 353.304,1.26648 L 353.139,1.35724 L 352.964,1.42657
 L 352.781,1.47342 L 352.594,1.49704 z
M -352.594,1.49704 L -352.781,1.47342 L -352.964,1.42657 L -353.139,1.35724 L -353.304,1.26648 L -353.456,1.15576
 L -353.593,1.02681 L -353.714,0.881668 L -353.814,0.722626 L -353.895,0.552185 L -353.953,0.373032 L -353.988,0.187988
 L -354,-0 L -353.988,-0.187988 L -353.953,-0.373032 L -353.895,-0.552185 L -353.814,-0.722626 L -353.714,-0.881668
 L -353.593,-1.02681 L -353.456,-1.15576 L -353.304,-1.26648 L -353.139,-1.35724 L -352.964,-1.42657 L -352.781,-1.47342
 L -352.594,-1.49704 L -352.406,-1.49704 L -352.219,-1.47342 L -352.036,-1.42657 L -351.861,-1.35724 L -351.696,-1.26648
 L -351.544,-1.15576 L -351.407,-1.02681 L -351.286,-0.881668 L -351.186,-0.722626 L -351.105,-0.552185 L -351.047,-0.373032
 L -351.012,-0.187988 L -351,-0 L -351.012,0.187988 L -351.047,0.373032 L -351.105,0.552185 L -351.186,0.722626
 L -351.286,0.881668 L -351.407,1.02681 L -351.544,1.15576 L -351.696,1.26648 L -351.861,1.35724 L -352.036,1.42657
 L -352.219,1.47342 L -352.406,1.49704 z
M -352.688,10.4941 L -353.062,10.4469 L -353.427,10.3532 L -353.777,10.2145 L -354.107,10.033 L -354.412,9.81154
 L -354.687,9.55363 L -354.927,9.26335 L -355.129,8.94525 L -355.289,8.60437 L -355.406,8.24606 L -355.476,7.87599
 L -355.5,7.5 L -355.476,7.12399 L -355.406,6.75392 L -355.289,6.39561 L -355.129,6.05473 L -354.927,5.73663
 L -354.687,5.44635 L -354.412,5.18845 L -354.107,4.96701 L -353.777,4.78551 L -353.427,4.64682 L -353.062,4.55313
 L -352.688,4.50591 L -352.312,4.50591 L -351.938,4.55313 L -351.573,4.64682 L -351.223,4.78551 L -350.893,4.96701
 L -350.588,5.18845 L -350.313,5.44635 L -350.073,5.73663 L -349.871,6.05473 L -349.711,6.39561 L -349.594,6.75392
 L -349.524,7.12399 L -349.5,7.5 L -349.524,7.87599 L -349.594,8.24606 L -349.711,8.60437 L -349.871,8.94525
 L -350.073,9.26335 L -350.313,9.55363 L -350.588,9.81154 L -350.893,10.033 L -351.223,10.2145 L -351.573,10.3532
 L -351.938,10.4469 L -352.312,10.4941 z
M 352.312,10.4941 L 351.938,10.4469 L 351.573,10.3532 L 351.223,10.2145 L 350.893,10.033 L 350.588,9.81154
 L 350.313,9.55363 L 350.073,9.26335 L 349.871,8.94525 L 349.711,8.60437 L 349.594,8.24606 L 349.524,7.87599
 L 349.5,7.5 L 349.524,7.12399 L 349.594,6.75392 L 349.711,6.39561 L 349.871,6.05473 L 350.073,5.73663
 L 350.313,5.44635 L 350.588,5.18845 L 350.893,4.96701 L 351.223,4.78551 L 351.573,4.64682 L 351.938,4.55313
 L 352.312,4.50591 L 352.688,4.50591 L 353.062,4.55313 L 353.427,4.64682 L 353.777,4.78551 L 354.107,4.96701
 L 354.412,5.18845 L 354.687,5.44635 L 354.927,5.73663 L 355.129,6.05473 L 355.289,6.39561 L 355.406,6.75392
 L 355.476,7.12399 L 355.5,7.5 L 355.476,7.87599 L 355.406,8.24606 L 355.289,8.60437 L 355.129,8.94525
 L 354.927,9.26335 L 354.687,9.55363 L 354.412,9.81154 L 354.107,10.033 L 353.777,10.2145 L 353.427,10.3532
 L 353.062,10.4469 L 352.688,10.4941 z
M 352.406,16.497 L 352.219,16.4734 L 352.036,16.4266 L 351.861,16.3572 L 351.696,16.2665 L 351.544,16.1558
 L 351.407,16.0268 L 351.286,15.8817 L 351.186,15.7226 L 351.105,15.5522 L 351.047,15.373 L 351.012,15.188
 L 351,15 L 351.012,14.812 L 351.047,14.627 L 351.105,14.4478 L 351.186,14.2774 L 351.286,14.1183
 L 351.407,13.9732 L 351.544,13.8442 L 351.696,13.7335 L 351.861,13.6427 L 352.036,13.5734 L 352.219,13.5266
 L 352.406,13.5029 L 352.594,13.5029 L 352.781,13.5266 L 352.964,13.5734 L 353.139,13.6427 L 353.304,13.7335
 L 353.456,13.8442 L 353.593,13.9732 L 353.714,14.1183 L 353.814,14.2774 L 353.895,14.4478 L 353.953,14.627
 L 353.988,14.812 L 354,15 L 353.988,15.188 L 353.953,15.373 L 353.895,15.5522 L 353.814,15.7226
 L 353.714,15.8817 L 353.593,16.0268 L 353.456,16.1558 L 353.304,16.2665 L 353.139,16.3572 L 352.964,16.4266
 L 352.781,16.4734 L 352.594,16.497 z
M -352.594,16.497 L -352.781,16.4734 L -352.964,16.4266 L -353.139,16.3572 L -353.304,16.2665 L -353.456,16.1558
 L -353.593,16.0268 L -353.714,15.8817 L -353.814,15.7226 L -353.895,15.5522 L -353.953,15.373 L -353.988,15.188
 L -354,15 L -353.988,14.812 L -353.953,14.627 L -353.895,14.4478 L -353.814,14.2774 L -353.714,14.1183
 L -353.593,13.9732 L -353.456,13.8442 L -353.304,13.7335 L -353.139,13.6427 L -352.964,13.5734 L -352.781,13.5266
 L -352.594,13.5029 L -352.406,13.5029 L -352.219,13.5266 L -352.036,13.5734 L -351.861,13.6427 L -351.696,13.7335
 L -351.544,13.8442 L -351.407,13.9732 L -351.286,14.1183 L -351.186,14.2774 L -351.105,14.4478 L -351.047,14.627
 L -351.012,14.812 L -351,15 L -351.012,15.188 L -351.047,15.373 L -351.105,15.5522 L -351.186,15.7226
 L -351.286,15.8817 L -351.407,16.0268 L -351.544,16.1558 L -351.696,16.2665 L -351.861,16.3572 L -352.036,16.4266
 L -352.219,16.4734 L -352.406,16.497 z
M -352.688,25.4941 L -353.062,25.4469 L -353.427,25.3532 L -353.777,25.2145 L -354.107,25.033 L -354.412,24.8115
 L -354.687,24.5536 L -354.927,24.2634 L -355.129,23.9453 L -355.289,23.6044 L -355.406,23.2461 L -355.476,22.876
 L -355.5,22.5 L -355.476,22.124 L -355.406,21.7539 L -355.289,21.3956 L -355.129,21.0547 L -354.927,20.7366
 L -354.687,20.4464 L -354.412,20.1884 L -354.107,19.967 L -353.777,19.7855 L -353.427,19.6468 L -353.062,19.5531
 L -352.688,19.5059 L -352.312,19.5059 L -351.938,19.5531 L -351.573,19.6468 L -351.223,19.7855 L -350.893,19.967
 L -350.588,20.1884 L -350.313,20.4464 L -350.073,20.7366 L -349.871,21.0547 L -349.711,21.3956 L -349.594,21.7539
 L -349.524,22.124 L -349.5,22.5 L -349.524,22.876 L -349.594,23.2461 L -349.711,23.6044 L -349.871,23.9453
 L -350.073,24.2634 L -350.313,24.5536 L -350.588,24.8115 L -350.893,25.033 L -351.223,25.2145 L -351.573,25.3532
 L -351.938,25.4469 L -352.312,25.4941 z
M 352.312,25.4941 L 351.938,25.4469 L 351.573,25.3532 L 351.223,25.2145 L 350.893,25.033 L 350.588,24.8115
 L 350.313,24.5536 L 350.073,24.2634 L 349.871,23.9453 L 349.711,23.6044 L 349.594,23.2461 L 349.524,22.876
 L 349.5,22.5 L 349.524,22.124 L 349.594,21.7539 L 349.711,21.3956 L 349.871,21.0547 L 350.073,20.7366
 L 350.313,20.4464 L 350.588,20.1884 L 350.893,19.967 L 351.223,19.7855 L 351.573,19.6468 L 351.938,19.5531
 L 352.312,19.5059 L 352.688,19.5059 L 353.062,19.5531 L 353.427,19.6468 L 353.777,19.7855 L 354.107,19.967
 L 354.412,20.1884 L 354.687,20.4464 L 354.927,20.7366 L 355.129,21.0547 L 355.289,21.3956 L 355.406,21.7539
 L 355.476,22.124 L 355.5,22.5 L 355.476,22.876 L 355.406,23.2461 L 355.289,23.6044 L 355.129,23.9453
 L 354.927,24.2634 L 354.687,24.5536 L 354.412,24.8115 L 354.107,25.033 L 353.777,25.2145 L 353.427,25.3532
 L 353.062,25.4469 L 352.688,25.4941 z
M 352.406,31.497 L 352.219,31.4734 L 352.036,31.4266 L 351.861,31.3572 L 351.696,31.2665 L 351.544,31.1558
 L 351.407,31.0268 L 351.286,30.8817 L 351.186,30.7226 L 351.105,30.5522 L 351.047,30.373 L 351.012,30.188
 L 351,30 L 351.012,29.812 L 351.047,29.627 L 351.105,29.4478 L 351.186,29.2774 L 351.286,29.1183
 L 351.407,28.9732 L 351.544,28.8442 L 351.696,28.7335 L 351.861,28.6427 L 352.036,28.5734 L 352.219,28.5266
 L 352.406,28.503 L 352.594,28.503 L 352.781,28.5266 L 352.964,28.5734 L 353.139,28.6427 L 353.304,28.7335
 L 353.456,28.8442 L 353.593,28.9732 L 353.714,29.1183 L 353.814,29.2774 L 353.895,29.4478 L 353.953,29.627
 L 353.988,29.812 L 354,30 L 353.988,30.188 L 353.953,30.373 L 353.895,30.5522 L 353.814,30.7226
 L 353.714,30.8817 L 353.593,31.0268 L 353.456,31.1558 L 353.304,31.2665 L 353.139,31.3572 L 352.964,31.4266
 L 352.781,31.4734 L 352.594,31.497 z
M -352.594,31.497 L -352.781,31.4734 L -352.964,31.4266 L -353.139,31.3572 L -353.304,31.2665 L -353.456,31.1558
 L -353.593,31.0268 L -353.714,30.8817 L -353.814,30.7226 L -353.895,30.5522 L -353.953,30.373 L -353.988,30.188
 L -354,30 L -353.988,29.812 L -353.953,29.627 L -353.895,29.4478 L -353.814,29.2774 L -353.714,29.1183
 L -353.593,28.9732 L -353.456,28.8442 L -353.304,28.7335 L -353.139,28.6427 L -352.964,28.5734 L -352.781,28.5266
 L -352.594,28.503 L -352.406,28.503 L -352.219,28.5266 L -352.036,28.5734 L -351.861,28.6427 L -351.696,28.7335
 L -351.544,28.8442 L -351.407,28.9732 L -351.286,29.1183 L -351.186,29.2774 L -351.105,29.4478 L -351.047,29.627
 L -351.012,29.812 L -351,30 L -351.012,30.188 L -351.047,30.373 L -351.105,30.5522 L -351.186,30.7226
 L -351.286,30.8817 L -351.407,31.0268 L -351.544,31.1558 L -351.696,31.2665 L -351.861,31.3572 L -352.036,31.4266
 L -352.219,31.4734 L -352.406,31.497 z
M 352.312,40.4941 L 351.938,40.4469 L 351.573,40.3532 L 351.223,40.2145 L 350.893,40.033 L 350.588,39.8115
 L 350.313,39.5536 L 350.073,39.2634 L 349.871,38.9453 L 349.711,38.6044 L 349.594,38.2461 L 349.524,37.876
 L 349.5,37.5 L 349.524,37.124 L 349.594,36.7539 L 349.711,36.3956 L 349.871,36.0547 L 350.073,35.7366
 L 350.313,35.4464 L 350.588,35.1885 L 350.893,34.967 L 351.223,34.7855 L 351.573,34.6468 L 351.938,34.5531
 L 352.312,34.5059 L 352.688,34.5059 L 353.062,34.5531 L 353.427,34.6468 L 353.777,34.7855 L 354.107,34.967
 L 354.412,35.1885 L 354.687,35.4464 L 354.927,35.7366 L 355.129,36.0547 L 355.289,36.3956 L 355.406,36.7539
 L 355.476,37.124 L 355.5,37.5 L 355.476,37.876 L 355.406,38.2461 L 355.289,38.6044 L 355.129,38.9453
 L 354.927,39.2634 L 354.687,39.5536 L 354.412,39.8115 L 354.107,40.033 L 353.777,40.2145 L 353.427,40.3532
 L 353.062,40.4469 L 352.688,40.4941 z
M -352.688,40.4941 L -353.062,40.4469 L -353.427,40.3532 L -353.777,40.2145 L -354.107,40.033 L -354.412,39.8115
 L -354.687,39.5536 L -354.927,39.2634 L -355.129,38.9453 L -355.289,38.6044 L -355.406,38.2461 L -355.476,37.876
 L -355.5,37.5 L -355.476,37.124 L -355.406,36.7539 L -355.289,36.3956 L -355.129,36.0547 L -354.927,35.7366
 L -354.687,35.4464 L -354.412,35.1885 L -354.107,34.967 L -353.777,34.7855 L -353.427,34.6468 L -353.062,34.5531
 L -352.688,34.5059 L -352.312,34.5059 L -351.938,34.5531 L -351.573,34.6468 L -351.223,34.7855 L -350.893,34.967
 L -350.588,35.1885 L -350.313,35.4464 L -350.073,35.7366 L -349.871,36.0547 L -349.711,36.3956 L -349.594,36.7539
 L -349.524,37.124 L -349.5,37.5 L -349.524,37.876 L -349.594,38.2461 L -349.711,38.6044 L -349.871,38.9453
 L -350.073,39.2634 L -350.313,39.5536 L -350.588,39.8115 L -350.893,40.033 L -351.223,40.2145 L -351.573,40.3532
 L -351.938,40.4469 L -352.312,40.4941 z
M 352.406,46.497 L 352.219,46.4734 L 352.036,46.4266 L 351.861,46.3572 L 351.696,46.2665 L 351.544,46.1558
 L 351.407,46.0268 L 351.286,45.8817 L 351.186,45.7226 L 351.105,45.5522 L 351.047,45.373 L 351.012,45.188
 L 351,45 L 351.012,44.812 L 351.047,44.627 L 351.105,44.4478 L 351.186,44.2774 L 351.286,44.1183
 L 351.407,43.9732 L 351.544,43.8442 L 351.696,43.7335 L 351.861,43.6428 L 352.036,43.5734 L 352.219,43.5266
 L 352.406,43.503 L 352.594,43.503 L 352.781,43.5266 L 352.964,43.5734 L 353.139,43.6428 L 353.304,43.7335
 L 353.456,43.8442 L 353.593,43.9732 L 353.714,44.1183 L 353.814,44.2774 L 353.895,44.4478 L 353.953,44.627
 L 353.988,44.812 L 354,45 L 353.988,45.188 L 353.953,45.373 L 353.895,45.5522 L 353.814,45.7226
 L 353.714,45.8817 L 353.593,46.0268 L 353.456,46.1558 L 353.304,46.2665 L 353.139,46.3572 L 352.964,46.4266
 L 352.781,46.4734 L 352.594,46.497 z
M -352.594,46.497 L -352.781,46.4734 L -352.964,46.4266 L -353.139,46.3572 L -353.304,46.2665 L -353.456,46.1558
 L -353.593,46.0268 L -353.714,45.8817 L -353.814,45.7226 L -353.895,45.5522 L -353.953,45.373 L -353.988,45.188
 L -354,45 L -353.988,44.812 L -353.953,44.627 L -353.895,44.4478 L -353.814,44.2774 L -353.714,44.1183
 L -353.593,43.9732 L -353.456,43.8442 L -353.304,43.7335 L -353.139,43.6428 L -352.964,43.5734 L -352.781,43.5266
 L -352.594,43.503 L -352.406,43.503 L -352.219,43.5266 L -352.036,43.5734 L -351.861,43.6428 L -351.696,43.7335
 L -351.544,43.8442 L -351.407,43.9732 L -351.286,44.1183 L -351.186,44.2774 L -351.105,44.4478 L -351.047,44.627
 L -351.012,44.812 L -351,45 L -351.012,45.188 L -351.047,45.373 L -351.105,45.5522 L -351.186,45.7226
 L -351.286,45.8817 L -351.407,46.0268 L -351.544,46.1558 L -351.696,46.2665 L -351.861,46.3572 L -352.036,46.4266
 L -352.219,46.4734 L -352.406,46.497 z
M -352.688,55.4941 L -353.062,55.4469 L -353.427,55.3532 L -353.777,55.2145 L -354.107,55.033 L -354.412,54.8115
 L -354.687,54.5536 L -354.927,54.2634 L -355.129,53.9453 L -355.289,53.6044 L -355.406,53.2461 L -355.476,52.876
 L -355.5,52.5 L -355.476,52.124 L -355.406,51.7539 L -355.289,51.3956 L -355.129,51.0547 L -354.927,50.7366
 L -354.687,50.4464 L -354.412,50.1885 L -354.107,49.967 L -353.777,49.7855 L -353.427,49.6468 L -353.062,49.5531
 L -352.688,49.5059 L -352.312,49.5059 L -351.938,49.5531 L -351.573,49.6468 L -351.223,49.7855 L -350.893,49.967
 L -350.588,50.1885 L -350.313,50.4464 L -350.073,50.7366 L -349.871,51.0547 L -349.711,51.3956 L -349.594,51.7539
 L -349.524,52.124 L -349.5,52.5 L -349.524,52.876 L -349.594,53.2461 L -349.711,53.6044 L -349.871,53.9453
 L -350.073,54.2634 L -350.313,54.5536 L -350.588,54.8115 L -350.893,55.033 L -351.223,55.2145 L -351.573,55.3532
 L -351.938,55.4469 L -352.312,55.4941 z
M 352.312,55.4941 L 351.938,55.4469 L 351.573,55.3532 L 351.223,55.2145 L 350.893,55.033 L 350.588,54.8115
 L 350.313,54.5536 L 350.073,54.2634 L 349.871,53.9453 L 349.711,53.6044 L 349.594,53.2461 L 349.524,52.876
 L 349.5,52.5 L 349.524,52.124 L 349.594,51.7539 L 349.711,51.3956 L 349.871,51.0547 L 350.073,50.7366
 L 350.313,50.4464 L 350.588,50.1885 L 350.893,49.967 L 351.223,49.7855 L 351.573,49.6468 L 351.938,49.5531
 L 352.312,49.5059 L 352.688,49.5059 L 353.062,49.5531 L 353.427,49.6468 L 353.777,49.7855 L 354.107,49.967
 L 354.412,50.1885 L 354.687,50.4464 L 354.927,50.7366 L 355.129,51.0547 L 355.289,51.3956 L 355.406,51.7539
 L 355.476,52.124 L 355.5,52.5 L 355.476,52.876 L 355.406,53.2461 L 355.289,53.6044 L 355.129,53.9453
 L 354.927,54.2634 L 354.687,54.5536 L 354.412,54.8115 L 354.107,55.033 L 353.777,55.2145 L 353.427,55.3532
 L 353.062,55.4469 L 352.688,55.4941 z
M 352.406,61.497 L 352.219,61.4734 L 352.036,61.4266 L 351.861,61.3572 L 351.696,61.2665 L 351.544,61.1558
 L 351.407,61.0268 L 351.286,60.8817 L 351.186,60.7226 L 351.105,60.5522 L 351.047,60.373 L 351.012,60.188
 L 351,60 L 351.012,59.812 L 351.047,59.627 L 351.105,59.4478 L 351.186,59.2774 L 351.286,59.1183
 L 351.407,58.9732 L 351.544,58.8442 L 351.696,58.7335 L 351.861,58.6428 L 352.036,58.5734 L 352.219,58.5266
 L 352.406,58.503 L 352.594,58.503 L 352.781,58.5266 L 352.964,58.5734 L 353.139,58.6428 L 353.304,58.7335
 L 353.456,58.8442 L 353.593,58.9732 L 353.714,59.1183 L 353.814,59.2774 L 353.895,59.4478 L 353.953,59.627
 L 353.988,59.812 L 354,60 L 353.988,60.188 L 353.953,60.373 L 353.895,60.5522 L 353.814,60.7226
 L 353.714,60.8817 L 353.593,61.0268 L 353.456,61.1558 L 353.304,61.2665 L 353.139,61.3572 L 352.964,61.4266
 L 352.781,61.4734 L 352.594,61.497 z
M -352.594,61.497 L -352.781,61.4734 L -352.964,61.4266 L -353.139,61.3572 L -353.304,61.2665 L -353.456,61.1558
 L -353.593,61.0268 L -353.714,60.8817 L -353.814,60.7226 L -353.895,60.5522 L -353.953,60.373 L -353.988,60.188
 L -354,60 L -353.988,59.812 L -353.953,59.627 L -353.895,59.4478 L -353.814,59.2774 L -353.714,59.1183
 L -353.593,58.9732 L -353.456,58.8442 L -353.304,58.7335 L -353.139,58.6428 L -352.964,58.5734 L -352.781,58.5266
 L -352.594,58.503 L -352.406,58.503 L -352.219,58.5266 L -352.036,58.5734 L -351.861,58.6428 L -351.696,58.7335
 L -351.544,58.8442 L -351.407,58.9732 L -351.286,59.1183 L -351.186,59.2774 L -351.105,59.4478 L -351.047,59.627
 L -351.012,59.812 L -351,60 L -351.012,60.188 L -351.047,60.373 L -351.105,60.5522 L -351.186,60.7226
 L -351.286,60.8817 L -351.407,61.0268 L -351.544,61.1558 L -351.696,61.2665 L -351.861,61.3572 L -352.036,61.4266
 L -352.219,61.4734 L -352.406,61.497 z
M 352.312,70.4941 L 351.938,70.4469 L 351.573,70.3532 L 351.223,70.2145 L 350.893,70.033 L 350.588,69.8115
 L 350.313,69.5536 L 350.073,69.2634 L 349.871,68.9453 L 349.711,68.6044 L 349.594,68.2461 L 349.524,67.876
 L 349.5,67.5 L 349.524,67.124 L 349.594,66.7539 L 349.711,66.3956 L 349.871,66.0547 L 350.073,65.7366
 L 350.313,65.4464 L 350.588,65.1885 L 350.893,64.967 L 351.223,64.7855 L 351.573,64.6468 L 351.938,64.5531
 L 352.312,64.5059 L 352.688,64.5059 L 353.062,64.5531 L 353.427,64.6468 L 353.777,64.7855 L 354.107,64.967
 L 354.412,65.1885 L 354.687,65.4464 L 354.927,65.7366 L 355.129,66.0547 L 355.289,66.3956 L 355.406,66.7539
 L 355.476,67.124 L 355.5,67.5 L 355.476,67.876 L 355.406,68.2461 L 355.289,68.6044 L 355.129,68.9453
 L 354.927,69.2634 L 354.687,69.5536 L 354.412,69.8115 L 354.107,70.033 L 353.777,70.2145 L 353.427,70.3532
 L 353.062,70.4469 L 352.688,70.4941 z
M -352.688,70.4941 L -353.062,70.4469 L -353.427,70.3532 L -353.777,70.2145 L -354.107,70.033 L -354.412,69.8115
 L -354.687,69.5536 L -354.927,69.2634 L -355.129,68.9453 L -355.289,68.6044 L -355.406,68.2461 L -355.476,67.876
 L -355.5,67.5 L -355.476,67.124 L -355.406,66.7539 L -355.289,66.3956 L -355.129,66.0547 L -354.927,65.7366
 L -354.687,65.4464 L -354.412,65.1885 L -354.107,64.967 L -353.777,64.7855 L -353.427,64.6468 L -353.062,64.5531
 L -352.688,64.5059 L -352.312,64.5059 L -351.938,64.5531 L -351.573,64.6468 L -351.223,64.7855 L -350.893,64.967
 L -350.588,65.1885 L -350.313,65.4464 L -350.073,65.7366 L -349.871,66.0547 L -349.711,66.3956 L -349.594,66.7539
 L -349.524,67.124 L -349.5,67.5 L -349.524,67.876 L -349.594,68.2461 L -349.711,68.6044 L -349.871,68.9453
 L -350.073,69.2634 L -350.313,69.5536 L -350.588,69.8115 L -350.893,70.033 L -351.223,70.2145 L -351.573,70.3532
 L -351.938,70.4469 L -352.312,70.4941 z
" stroke="black" fill="lightgray" stroke-width="0.5"/>
</svg>
