<?xml version="1.0" standalone="no"?>
<!DOCTYPE svg PUBLIC "-//W3C//DTD SVG 1.1//EN" "http://www.w3.org/Graphics/SVG/1.1/DTD/svg11.dtd">
<svg width="480mm" height="104mm" viewBox="-240 -52 480 104" xmlns="http://www.w3.org/2000/svg" version="1.1">
<title>OpenSCAD Model</title>
<path d="
M 235.437,51.9114 L 236.045,51.7553 L 236.629,51.5241 L 237.179,51.2216 L 237.687,50.8526 L 238.145,50.4227
 L 238.545,49.9389 L 238.882,49.4088 L 239.149,48.8406 L 239.343,48.2434 L 239.461,47.6267 L 239.5,47
 L 239.5,-47 L 239.461,-47.6267 L 239.343,-48.2434 L 239.149,-48.8406 L 238.882,-49.4088 L 238.545,-49.9389
 L 238.145,-50.4227 L 237.687,-50.8526 L 237.179,-51.2216 L 236.629,-51.5241 L 236.045,-51.7553 L 235.437,-51.9114
 L 234.814,-51.9901 L -234.814,-51.9901 L -235.437,-51.9114 L -236.045,-51.7553 L -236.629,-51.5241 L -237.179,-51.2216
 L -237.687,-50.8526 L -238.145,-50.4227 L -238.545,-49.9389 L -238.882,-49.4088 L -239.149,-48.8406 L -239.343,-48.2434
 L -239.461,-47.6267 L -239.5,-47 L -239.5,47 L -239.461,47.6267 L -239.343,48.2434 L -239.149,48.8406
 L -238.882,49.4088 L -238.545,49.9389 L -238.145,50.4227 L -237.687,50.8526 L -237.179,51.2216 L -236.629,51.5241
 L -236.045,51.7553 L -235.437,51.9114 L -234.814,51.9901 L 234.814,51.9901 z
M -232.688,-42.0059 L -233.062,-42.0531 L -233.427,-42.1468 L -233.777,-42.2855 L -234.107,-42.467 L -234.412,-42.6885
 L -234.687,-42.9464 L -234.927,-43.2366 L -235.129,-43.5547 L -235.289,-43.8956 L -235.406,-44.2539 L -235.476,-44.624
 L -235.5,-45 L -235.476,-45.376 L -235.406,-45.7461 L -235.289,-46.1044 L -235.129,-46.4453 L -234.927,-46.7634
 L -234.687,-47.0536 L -234.412,-47.3115 L -234.107,-47.533 L -233.777,-47.7145 L -233.427,-47.8532 L -233.062,-47.9469
 L -232.688,-47.9941 L -232.312,-47.9941 L -231.938,-47.9469 L -231.573,-47.8532 L -231.223,-47.7145 L -230.893,-47.533
 L -230.588,-47.3115 L -230.313,-47.0536 L -230.073,-46.7634 L -229.871,-46.4453 L -229.711,-46.1044 L -229.594,-45.7461
 L -229.524,-45.376 L -229.5,-45 L -229.524,-44.624 L -229.594,-44.2539 L -229.711,-43.8956 L -229.871,-43.5547
 L -230.073,-43.2366 L -230.313,-42.9464 L -230.588,-42.6885 L -230.893,-42.467 L -231.223,-42.2855 L -231.573,-42.1468
 L -231.938,-42.0531 L -232.312,-42.0059 z
M 232.312,-42.0059 L 231.938,-42.0531 L 231.573,-42.1468 L 231.223,-42.2855 L 230.893,-42.467 L 230.588,-42.6885
 L 230.313,-42.9464 L 230.073,-43.2366 L 229.871,-43.5547 L 229.711,-43.8956 L 229.594,-44.2539 L 229.524,-44.624
 L 229.5,-45 L 229.524,-45.376 L 229.594,-45.7461 L 229.711,-46.1044 L 229.871,-46.4453 L 230.073,-46.7634
 L 230.313,-47.0536 L 230.588,-47.3115 L 230.893,-47.533 L 231.223,-47.7145 L 231.573,-47.8532 L 231.938,-47.9469
 L 232.312,-47.9941 L 232.688,-47.9941 L 233.062,-47.9469 L 233.427,-47.8532 L 233.777,-47.7145 L 234.107,-47.533
 L 234.412,-47.3115 L 234.687,-47.0536 L 234.927,-46.7634 L 235.129,-46.4453 L 235.289,-46.1044 L 235.406,-45.7461
 L 235.476,-45.376 L 235.5,-45 L 235.476,-44.624 L 235.406,-44.2539 L 235.289,-43.8956 L 235.129,-43.5547
 L 234.927,-43.2366 L 234.687,-42.9464 L 234.412,-42.6885 L 234.107,-42.467 L 233.777,-42.2855 L 233.427,-42.1468
 L 233.062,-42.0531 L 232.688,-42.0059 z
M -182.669,42.4161 L -187.964,41.7472 L -193.133,40.4199 L -198.096,38.4551 L -202.773,35.8839 L -207.091,32.7468
 L -210.981,29.0932 L -214.383,24.9809 L -217.243,20.4745 L -219.516,15.6453 L -221.165,10.5693 L -222.165,5.32666
 L -222.5,-0 L -222.165,-5.32666 L -221.165,-10.5693 L -219.516,-15.6453 L -217.243,-20.4745 L -214.383,-24.9809
 L -210.981,-29.0932 L -207.091,-32.7468 L -202.773,-35.8839 L -198.096,-38.4551 L -193.133,-40.4199 L -187.964,-41.7472
 L -182.669,-42.4161 L -177.331,-42.4161 L -172.036,-41.7472 L -166.867,-40.4199 L -161.904,-38.4551 L -157.227,-35.8839
 L -152.909,-32.7468 L -149.019,-29.0932 L -145.617,-24.9809 L -142.757,-20.4745 L -140.484,-15.6453 L -138.835,-10.5693
 L -137.835,-5.32666 L -137.5,-0 L -137.835,5.32666 L -138.835,10.5693 L -140.484,15.6453 L -142.757,20.4745
 L -145.617,24.9809 L -149.019,29.0932 L -152.909,32.7468 L -157.227,35.8839 L -161.904,38.4551 L -166.867,40.4199
 L -172.036,41.7472 L -177.331,42.4161 z
M -92.6686,42.4161 L -97.9637,41.7472 L -103.133,40.4199 L -108.096,38.4551 L -112.773,35.8839 L -117.091,32.7468
 L -120.981,29.0932 L -124.383,24.9809 L -127.243,20.4745 L -129.516,15.6453 L -131.165,10.5693 L -132.165,5.32666
 L -132.5,-0 L -132.165,-5.32666 L -131.165,-10.5693 L -129.516,-15.6453 L -127.243,-20.4745 L -124.383,-24.9809
 L -120.981,-29.0932 L -117.091,-32.7468 L -112.773,-35.8839 L -108.096,-38.4551 L -103.133,-40.4199 L -97.9637,-41.7472
 L -92.6686,-42.4161 L -87.3314,-42.4161 L -82.0363,-41.7472 L -76.8668,-40.4199 L -71.9044,-38.4551 L -67.2274,-35.8839
 L -62.9095,-32.7468 L -59.0188,-29.0932 L -55.6168,-24.9809 L -52.757,-20.4745 L -50.4845,-15.6453 L -48.8352,-10.5693
 L -47.8351,-5.32666 L -47.5,-0 L -47.8351,5.32666 L -48.8352,10.5693 L -50.4845,15.6453 L -52.757,20.4745
 L -55.6168,24.9809 L -59.0188,29.0932 L -62.9095,32.7468 L -67.2274,35.8839 L -71.9044,38.4551 L -76.8668,40.4199
 L -82.0363,41.7472 L -87.3314,42.4161 z
M 87.3314,42.4161 L 82.0363,41.7472 L 76.8668,40.4199 L 71.9044,38.4551 L 67.2274,35.8839 L 62.9095,32.7468
 L 59.0188,29.0932 L 55.6168,24.9809 L 52.757,20.4745 L 50.4845,15.6453 L 48.8352,10.5693 L 47.8351,5.32666
 L 47.5,-0 L 47.8351,-5.32666 L 48.8352,-10.5693 L 50.4845,-15.6453 L 52.757,-20.4745 L 55.6168,-24.9809
 L 59.0188,-29.0932 L 62.9095,-32.7468 L 67.2274,-35.8839 L 71.9044,-38.4551 L 76.8668,-40.4199 L 82.0363,-41.7472
 L 87.3314,-42.4161 L 92.6686,-42.4161 L 97.9637,-41.7472 L 103.133,-40.4199 L 108.096,-38.4551 L 112.773,-35.8839
 L 117.091,-32.7468 L 120.981,-29.0932 L 124.383,-24.9809 L 127.243,-20.4745 L 129.516,-15.6453 L 131.165,-10.5693
 L 132.165,-5.32666 L 132.5,-0 L 132.165,5.32666 L 131.165,10.5693 L 129.516,15.6453 L 127.243,20.4745
 L 124.383,24.9809 L 120.981,29.0932 L 117.091,32.7468 L 112.773,35.8839 L 108.096,38.4551 L 103.133,40.4199
 L 97.9637,41.7472 L 92.6686,42.4161 z
M -2.66859,42.4161 L -7.9637,41.7472 L -13.1332,40.4199 L -18.0956,38.4551 L -22.7726,35.8839 L -27.0905,32.7468
 L -30.9812,29.0932 L -34.3832,24.9809 L -37.243,20.4745 L -39.5155,15.6453 L -41.1648,10.5693 L -42.1649,5.32666
 L -42.5,-0 L -42.1649,-5.32666 L -41.1648,-10.5693 L -39.5155,-15.6453 L -37.243,-20.4745 L -34.3832,-24.9809
 L -30.9812,-29.0932 L -27.0905,-32.7468 L -22.7726,-35.8839 L -18.0956,-38.4551 L -13.1332,-40.4199 L -7.9637,-41.7472
 L -2.66859,-42.4161 L 2.66859,-42.4161 L 7.9637,-41.7472 L 13.1332,-40.4199 L 18.0956,-38.4551 L 22.7726,-35.8839
 L 27.0905,-32.7468 L 30.9812,-29.0932 L 34.3832,-24.9809 L 37.243,-20.4745 L 39.5155,-15.6453 L 41.1648,-10.5693
 L 42.1649,-5.32666 L 42.5,-0 L 42.1649,5.32666 L 41.1648,10.5693 L 39.5155,15.6453 L 37.243,20.4745
 L 34.3832,24.9809 L 30.9812,29.0932 L 27.0905,32.7468 L 22.7726,35.8839 L 18.0956,38.4551 L 13.1332,40.4199
 L 7.9637,41.7472 L 2.66859,42.4161 z
M 177.331,42.4161 L 172.036,41.7472 L 166.867,40.4199 L 161.904,38.4551 L 157.227,35.8839 L 152.909,32.7468
 L 149.019,29.0932 L 145.617,24.9809 L 142.757,20.4745 L 140.484,15.6453 L 138.835,10.5693 L 137.835,5.32666
 L 137.5,-0 L 137.835,-5.32666 L 138.835,-10.5693 L 140.484,-15.6453 L 142.757,-20.4745 L 145.617,-24.9809
 L 149.019,-29.0932 L 152.909,-32.7468 L 157.227,-35.8839 L 161.904,-38.4551 L 166.867,-40.4199 L 172.036,-41.7472
 L 177.331,-42.4161 L 182.669,-42.4161 L 187.964,-41.7472 L 193.133,-40.4199 L 198.096,-38.4551 L 202.773,-35.8839
 L 207.091,-32.7468 L 210.981,-29.0932 L 214.383,-24.9809 L 217.243,-20.4745 L 219.516,-15.6453 L 221.165,-10.5693
 L 222.165,-5.32666 L 222.5,-0 L 222.165,5.32666 L 221.165,10.5693 L 219.516,15.6453 L 217.243,20.4745
 L 214.383,24.9809 L 210.981,29.0932 L 207.091,32.7468 L 202.773,35.8839 L 198.096,38.4551 L 193.133,40.4199
 L 187.964,41.7472 L 182.669,42.4161 z
M -232.594,-36.003 L -232.781,-36.0266 L -232.964,-36.0734 L -233.139,-36.1428 L -233.304,-36.2335 L -233.456,-36.3442
 L -233.593,-36.4732 L -233.714,-36.6183 L -233.814,-36.7774 L -233.895,-36.9478 L -233.953,-37.127 L -233.988,-37.312
 L -234,-37.5 L -233.988,-37.688 L -233.953,-37.873 L -233.895,-38.0522 L -233.814,-38.2226 L -233.714,-38.3817
 L -233.593,-38.5268 L -233.456,-38.6558 L -233.304,-38.7665 L -233.139,-38.8572 L -232.964,-38.9266 L -232.781,-38.9734
 L -232.594,-38.997 L -232.406,-38.997 L -232.219,-38.9734 L -232.036,-38.9266 L -231.861,-38.8572 L -231.696,-38.7665
 L -231.544,-38.6558 L -231.407,-38.5268 L -231.286,-38.3817 L -231.186,-38.2226 L -231.105,-38.0522 L -231.047,-37.873
 L -231.012,-37.688 L -231,-37.5 L -231.012,-37.312 L -231.047,-37.127 L -231.105,-36.9478 L -231.186,-36.7774
 L -231.286,-36.6183 L -231.407,-36.4732 L -231.544,-36.3442 L -231.696,-36.2335 L -231.861,-36.1428 L -232.036,-36.0734
 L -232.219,-36.0266 L -232.406,-36.003 z
M 232.406,-36.003 L 232.219,-36.0266 L 232.036,-36.0734 L 231.861,-36.1428 L 231.696,-36.2335 L 231.544,-36.3442
 L 231.407,-36.4732 L 231.286,-36.6183 L 231.186,-36.7774 L 231.105,-36.9478 L 231.047,-37.127 L 231.012,-37.312
 L 231,-37.5 L 231.012,-37.688 L 231.047,-37.873 L 231.105,-38.0522 L 231.186,-38.2226 L 231.286,-38.3817
 L 231.407,-38.5268 L 231.544,-38.6558 L 231.696,-38.7665 L 231.861,-38.8572 L 232.036,-38.9266 L 232.219,-38.9734
 L 232.406,-38.997 L 232.594,-38.997 L 232.781,-38.9734 L 232.964,-38.9266 L 233.139,-38.8572 L 233.304,-38.7665
 L 233.456,-38.6558 L 233.593,-38.5268 L 233.714,-38.3817 L 233.814,-38.2226 L 233.895,-38.0522 L 233.953,-37.873
 L 233.988,-37.688 L 234,-37.5 L 233.988,-37.312 L 233.953,-37.127 L 233.895,-36.9478 L 233.814,-36.7774
 L 233.714,-36.6183 L 233.593,-36.4732 L 233.456,-36.3442 L 233.304,-36.2335 L 233.139,-36.1428 L 232.964,-36.0734
 L 232.781,-36.0266 L 232.594,-36.003 z
M 232.312,-27.0059 L 231.938,-27.0531 L 231.573,-27.1468 L 231.223,-27.2855 L 230.893,-27.467 L 230.588,-27.6884
 L 230.313,-27.9464 L 230.073,-28.2366 L 229.871,-28.5547 L 229.711,-28.8956 L 229.594,-29.2539 L 229.524,-29.624
 L 229.5,-30 L 229.524,-30.376 L 229.594,-30.7461 L 229.711,-31.1044 L 229.871,-31.4453 L 230.073,-31.7634
 L 230.313,-32.0536 L 230.588,-32.3115 L 230.893,-32.533 L 231.223,-32.7145 L 231.573,-32.8532 L 231.938,-32.9469
 L 232.312,-32.9941 L 232.688,-32.9941 L 233.062,-32.9469 L 233.427,-32.8532 L 233.777,-32.7145 L 234.107,-32.533
 L 234.412,-32.3115 L 234.687,-32.0536 L 234.927,-31.7634 L 235.129,-31.4453 L 235.289,-31.1044 L 235.406,-30.7461
 L 235.476,-30.376 L 235.5,-30 L 235.476,-29.624 L 235.406,-29.2539 L 235.289,-28.8956 L 235.129,-28.5547
 L 234.927,-28.2366 L 234.687,-27.9464 L 234.412,-27.6884 L 234.107,-27.467 L 233.777,-27.2855 L 233.427,-27.1468
 L 233.062,-27.0531 L 232.688,-27.0059 z
M -232.688,-27.0059 L -233.062,-27.0531 L -233.427,-27.1468 L -233.777,-27.2855 L -234.107,-27.467 L -234.412,-27.6884
 L -234.687,-27.9464 L -234.927,-28.2366 L -235.129,-28.5547 L -235.289,-28.8956 L -235.406,-29.2539 L -235.476,-29.624
 L -235.5,-30 L -235.476,-30.376 L -235.406,-30.7461 L -235.289,-31.1044 L -235.129,-31.4453 L -234.927,-31.7634
 L -234.687,-32.0536 L -234.412,-32.3115 L -234.107,-32.533 L -233.777,-32.7145 L -233.427,-32.8532 L -233.062,-32.9469
 L -232.688,-32.9941 L -232.312,-32.9941 L -231.938,-32.9469 L -231.573,-32.8532 L -231.223,-32.7145 L -230.893,-32.533
 L -230.588,-32.3115 L -230.313,-32.0536 L -230.073,-31.7634 L -229.871,-31.4453 L -229.711,-31.1044 L -229.594,-30.7461
 L -229.524,-30.376 L -229.5,-30 L -229.524,-29.624 L -229.594,-29.2539 L -229.711,-28.8956 L -229.871,-28.5547
 L -230.073,-28.2366 L -230.313,-27.9464 L -230.588,-27.6884 L -230.893,-27.467 L -231.223,-27.2855 L -231.573,-27.1468
 L -231.938,-27.0531 L -232.312,-27.0059 z
M -232.594,-21.003 L -232.781,-21.0266 L -232.964,-21.0734 L -233.139,-21.1427 L -233.304,-21.2335 L -233.456,-21.3442
 L -233.593,-21.4732 L -233.714,-21.6183 L -233.814,-21.7774 L -233.895,-21.9478 L -233.953,-22.127 L -233.988,-22.312
 L -234,-22.5 L -233.988,-22.688 L -233.953,-22.873 L -233.895,-23.0522 L -233.814,-23.2226 L -233.714,-23.3817
 L -233.593,-23.5268 L -233.456,-23.6558 L -233.304,-23.7665 L -233.139,-23.8572 L -232.964,-23.9266 L -232.781,-23.9734
 L -232.594,-23.997 L -232.406,-23.997 L -232.219,-23.9734 L -232.036,-23.9266 L -231.861,-23.8572 L -231.696,-23.7665
 L -231.544,-23.6558 L -231.407,-23.5268 L -231.286,-23.3817 L -231.186,-23.2226 L -231.105,-23.0522 L -231.047,-22.873
 L -231.012,-22.688 L -231,-22.5 L -231.012,-22.312 L -231.047,-22.127 L -231.105,-21.9478 L -231.186,-21.7774
 L -231.286,-21.6183 L -231.407,-21.4732 L -231.544,-21.3442 L -231.696,-21.2335 L -231.861,-21.1427 L -232.036,-21.0734
 L -232.219,-21.0266 L -232.406,-21.003 z
M 232.406,-21.003 L 232.219,-21.0266 L 232.036,-21.0734 L 231.861,-21.1427 L 231.696,-21.2335 L 231.544,-21.3442
 L 231.407,-21.4732 L 231.286,-21.6183 L 231.186,-21.7774 L 231.105,-21.9478 L 231.047,-22.127 L 231.012,-22.312
 L 231,-22.5 L 231.012,-22.688 L 231.047,-22.873 L 231.105,-23.0522 L 231.186,-23.2226 L 231.286,-23.3817
 L 231.407,-23.5268 L 231.544,-23.6558 L 231.696,-23.7665 L 231.861,-23.8572 L 232.036,-23.9266 L 232.219,-23.9734
 L 232.406,-23.997 L 232.594,-23.997 L 232.781,-23.9734 L 232.964,-23.9266 L 233.139,-23.8572 L 233.304,-23.7665
 L 233.456,-23.6558 L 233.593,-23.5268 L 233.714,-23.3817 L 233.814,-23.2226 L 233.895,-23.0522 L 233.953,-22.873
 L 233.988,-22.688 L 234,-22.5 L 233.988,-22.312 L 233.953,-22.127 L 233.895,-21.9478 L 233.814,-21.7774
 L 233.714,-21.6183 L 233.593,-21.4732 L 233.456,-21.3442 L 233.304,-21.2335 L 233.139,-21.1427 L 232.964,-21.0734
 L 232.781,-21.0266 L 232.594,-21.003 z
M 232.312,-12.0059 L 231.938,-12.0531 L 231.573,-12.1468 L 231.223,-12.2855 L 230.893,-12.467 L 230.588,-12.6884
 L 230.313,-12.9464 L 230.073,-13.2366 L 229.871,-13.5547 L 229.711,-13.8956 L 229.594,-14.2539 L 229.524,-14.624
 L 229.5,-15 L 229.524,-15.376 L 229.594,-15.7461 L 229.711,-16.1044 L 229.871,-16.4453 L 230.073,-16.7634
 L 230.313,-17.0536 L 230.588,-17.3115 L 230.893,-17.533 L 231.223,-17.7145 L 231.573,-17.8532 L 231.938,-17.9469
 L 232.312,-17.9941 L 232.688,-17.9941 L 233.062,-17.9469 L 233.427,-17.8532 L 233.777,-17.7145 L 234.107,-17.533
 L 234.412,-17.3115 L 234.687,-17.0536 L 234.927,-16.7634 L 235.129,-16.4453 L 235.289,-16.1044 L 235.406,-15.7461
 L 235.476,-15.376 L 235.5,-15 L 235.476,-14.624 L 235.406,-14.2539 L 235.289,-13.8956 L 235.129,-13.5547
 L 234.927,-13.2366 L 234.687,-12.9464 L 234.412,-12.6884 L 234.107,-12.467 L 233.777,-12.2855 L 233.427,-12.1468
 L 233.062,-12.0531 L 232.688,-12.0059 z
M -232.688,-12.0059 L -233.062,-12.0531 L -233.427,-12.1468 L -233.777,-12.2855 L -234.107,-12.467 L -234.412,-12.6884
 L -234.687,-12.9464 L -234.927,-13.2366 L -235.129,-13.5547 L -235.289,-13.8956 L -235.406,-14.2539 L -235.476,-14.624
 L -235.5,-15 L -235.476,-15.376 L -235.406,-15.7461 L -235.289,-16.1044 L -235.129,-16.4453 L -234.927,-16.7634
 L -234.687,-17.0536 L -234.412,-17.3115 L -234.107,-17.533 L -233.777,-17.7145 L -233.427,-17.8532 L -233.062,-17.9469
 L -232.688,-17.9941 L -232.312,-17.9941 L -231.938,-17.9469 L -231.573,-17.8532 L -231.223,-17.7145 L -230.893,-17.533
 L -230.588,-17.3115 L -230.313,-17.0536 L -230.073,-16.7634 L -229.871,-16.4453 L -229.711,-16.1044 L -229.594,-15.7461
 L -229.524,-15.376 L -229.5,-15 L -229.524,-14.624 L -229.594,-14.2539 L -229.711,-13.8956 L -229.871,-13.5547
 L -230.073,-13.2366 L -230.313,-12.9464 L -230.588,-12.6884 L -230.893,-12.467 L -231.223,-12.2855 L -231.573,-12.1468
 L -231.938,-12.0531 L -232.312,-12.0059 z
M 232.406,-6.00294 L 232.219,-6.02657 L 232.036,-6.07341 L 231.861,-6.14275 L 231.696,-6.23351 L 231.544,-6.34422
 L 231.407,-6.47318 L 231.286,-6.61832 L 231.186,-6.77736 L 231.105,-6.9478 L 231.047,-7.12695 L 231.012,-7.312
 L 231,-7.5 L 231.012,-7.68799 L 231.047,-7.87303 L 231.105,-8.05219 L 231.186,-8.22263 L 231.286,-8.38167
 L 231.407,-8.52681 L 231.544,-8.65576 L 231.696,-8.76648 L 231.861,-8.85724 L 232.036,-8.92657 L 232.219,-8.97342
 L 232.406,-8.99704 L 232.594,-8.99704 L 232.781,-8.97342 L 232.964,-8.92657 L 233.139,-8.85724 L 233.304,-8.76648
 L 233.456,-8.65576 L 233.593,-8.52681 L 233.714,-8.38167 L 233.814,-8.22263 L 233.895,-8.05219 L 233.953,-7.87303
 L 233.988,-7.68799 L 234,-7.5 L 233.988,-7.312 L 233.953,-7.12695 L 233.895,-6.9478 L 233.814,-6.77736
 L 233.714,-6.61832 L 233.593,-6.47318 L 233.456,-6.34422 L 233.304,-6.23351 L 233.139,-6.14275 L 232.964,-6.07341
 L 232.781,-6.02657 L 232.594,-6.00294 z
M -232.594,-6.00294 L -232.781,-6.02657 L -232.964,-6.07341 L -233.139,-6.14275 L -233.304,-6.23351 L -233.456,-6.34422
 L -233.593,-6.47318 L -233.714,-6.61832 L -233.814,-6.77736 L -233.895,-6.9478 L -233.953,-7.12695 L -233.988,-7.312
 L -234,-7.5 L -233.988,-7.68799 L -233.953,-7.87303 L -233.895,-8.05219 L -233.814,-8.22263 L -233.714,-8.38167
 L -233.593,-8.52681 L -233.456,-8.65576 L -233.304,-8.76648 L -233.139,-8.85724 L -232.964,-8.92657 L -232.781,-8.97342
 L -232.594,-8.99704 L -232.406,-8.99704 L -232.219,-8.97342 L -232.036,-8.92657 L -231.861,-8.85724 L -231.696,-8.76648
 L -231.544,-8.65576 L -231.407,-8.52681 L -231.286,-8.38167 L -231.186,-8.22263 L -231.105,-8.05219 L -231.047,-7.87303
 L -231.012,-7.68799 L -231,-7.5 L -231.012,-7.312 L -231.047,-7.12695 L -231.105,-6.9478 L -231.186,-6.77736
 L -231.286,-6.61832 L -231.407,-6.47318 L -231.544,-6.34422 L -231.696,-6.23351 L -231.861,-6.14275 L -232.036,-6.07341
 L -232.219,-6.02657 L -232.406,-6.00294 z
M 232.312,2.99408 L 231.938,2.94685 L 231.573,2.85316 L 231.223,2.71448 L 230.893,2.53297 L 230.588,2.31154
 L 230.313,2.05363 L 230.073,1.76335 L 229.871,1.44525 L 229.711,1.10437 L 229.594,0.746063 L 229.524,0.375992
 L 229.5,-0 L 229.524,-0.375992 L 229.594,-0.746063 L 229.711,-1.10437 L 229.871,-1.44525 L 230.073,-1.76335
 L 230.313,-2.05363 L 230.588,-2.31154 L 230.893,-2.53297 L 231.223,-2.71448 L 231.573,-2.85316 L 231.938,-2.94685
 L 232.312,-2.99408 L 232.688,-2.99408 L 233.062,-2.94685 L 233.427,-2.85316 L 233.777,-2.71448 L 234.107,-2.53297
 L 234.412,-2.31154 L 234.687,-2.05363 L 234.927,-1.76335 L 235.129,-1.44525 L 235.289,-1.10437 L 235.406,-0.746063
 L 235.476,-0.375992 L 235.5,-0 L 235.476,0.375992 L 235.406,0.746063 L 235.289,1.10437 L 235.129,1.44525
 L 234.927,1.76335 L 234.687,2.05363 L 234.412,2.31154 L 234.107,2.53297 L 233.777,2.71448 L 233.427,2.85316
 L 233.062,2.94685 L 232.688,2.99408 z
M -232.688,2.99408 L -233.062,2.94685 L -233.427,2.85316 L -233.777,2.71448 L -234.107,2.53297 L -234.412,2.31154
 L -234.687,2.05363 L -234.927,1.76335 L -235.129,1.44525 L -235.289,1.10437 L -235.406,0.746063 L -235.476,0.375992
 L -235.5,-0 L -235.476,-0.375992 L -235.406,-0.746063 L -235.289,-1.10437 L -235.129,-1.44525 L -234.927,-1.76335
 L -234.687,-2.05363 L -234.412,-2.31154 L -234.107,-2.53297 L -233.777,-2.71448 L -233.427,-2.85316 L -233.062,-2.94685
 L -232.688,-2.99408 L -232.312,-2.99408 L -231.938,-2.94685 L -231.573,-2.85316 L -231.223,-2.71448 L -230.893,-2.53297
 L -230.588,-2.31154 L -230.313,-2.05363 L -230.073,-1.76335 L -229.871,-1.44525 L -229.711,-1.10437 L -229.594,-0.746063
 L -229.524,-0.375992 L -229.5,-0 L -229.524,0.375992 L -229.594,0.746063 L -229.711,1.10437 L -229.871,1.44525
 L -230.073,1.76335 L -230.313,2.05363 L -230.588,2.31154 L -230.893,2.53297 L -231.223,2.71448 L -231.573,2.85316
 L -231.938,2.94685 L -232.312,2.99408 z
M 232.406,8.99704 L 232.219,8.97342 L 232.036,8.92657 L 231.861,8.85724 L 231.696,8.76648 L 231.544,8.65576
 L 231.407,8.52681 L 231.286,8.38167 L 231.186,8.22263 L 231.105,8.05219 L 231.047,7.87303 L 231.012,7.68799
 L 231,7.5 L 231.012,7.312 L 231.047,7.12695 L 231.105,6.9478 L 231.186,6.77736 L 231.286,6.61832
 L 231.407,6.47318 L 231.544,6.34422 L 231.696,6.23351 L 231.861,6.14275 L 232.036,6.07341 L 232.219,6.02657
 L 232.406,6.00294 L 232.594,6.00294 L 232.781,6.02657 L 232.964,6.07341 L 233.139,6.14275 L 233.304,6.23351
 L 233.456,6.34422 L 233.593,6.47318 L 233.714,6.61832 L 233.814,6.77736 L 233.895,6.9478 L 233.953,7.12695
 L 233.988,7.312 L 234,7.5 L 233.988,7.68799 L 233.953,7.87303 L 233.895,8.05219 L 233.814,8.22263
 L 233.714,8.38167 L 233.593,8.52681 L 233.456,8.65576 L 233.304,8.76648 L 233.139,8.85724 L 232.964,8.92657
 L 232.781,8.97342 L 232.594,8.99704 z
M -232.594,8.99704 L -232.781,8.97342 L -232.964,8.92657 L -233.139,8.85724 L -233.304,8.76648 L -233.456,8.65576
 L -233.593,8.52681 L -233.714,8.38167 L -233.814,8.22263 L -233.895,8.05219 L -233.953,7.87303 L -233.988,7.68799
 L -234,7.5 L -233.988,7.312 L -233.953,7.12695 L -233.895,6.9478 L -233.814,6.77736 L -233.714,6.61832
 L -233.593,6.47318 L -233.456,6.34422 L -233.304,6.23351 L -233.139,6.14275 L -232.964,6.07341 L -232.781,6.02657
 L -232.594,6.00294 L -232.406,6.00294 L -232.219,6.02657 L -232.036,6.07341 L -231.861,6.14275 L -231.696,6.23351
 L -231.544,6.34422 L -231.407,6.47318 L -231.286,6.61832 L -231.186,6.77736 L -231.105,6.9478 L -231.047,7.12695
 L -231.012,7.312 L -231,7.5 L -231.012,7.68799 L -231.047,7.87303 L -231.105,8.05219 L -231.186,8.22263
 L -231.286,8.38167 L -231.407,8.52681 L -231.544,8.65576 L -231.696,8.76648 L -231.861,8.85724 L -232.036,8.92657
 L -232.219,8.97342 L -232.406,8.99704 z
M -232.688,17.9941 L -233.062,17.9469 L -233.427,17.8532 L -233.777,17.7145 L -234.107,17.533 L -234.412,17.3115
 L -234.687,17.0536 L -234.927,16.7634 L -235.129,16.4453 L -235.289,16.1044 L -235.406,15.7461 L -235.476,15.376
 L -235.5,15 L -235.476,14.624 L -235.406,14.2539 L -235.289,13.8956 L -235.129,13.5547 L -234.927,13.2366
 L -234.687,12.9464 L -234.412,12.6884 L -234.107,12.467 L -233.777,12.2855 L -233.427,12.1468 L -233.062,12.0531
 L -232.688,12.0059 L -232.312,12.0059 L -231.938,12.0531 L -231.573,12.1468 L -231.223,12.2855 L -230.893,12.467
 L -230.588,12.6884 L -230.313,12.9464 L -230.073,13.2366 L -229.871,13.5547 L -229.711,13.8956 L -229.594,14.2539
 L -229.524,14.624 L -229.5,15 L -229.524,15.376 L -229.594,15.7461 L -229.711,16.1044 L -229.871,16.4453
 L -230.073,16.7634 L -230.313,17.0536 L -230.588,17.3115 L -230.893,17.533 L -231.223,17.7145 L -231.573,17.8532
 L -231.938,17.9469 L -232.312,17.9941 z
M 232.312,17.9941 L 231.938,17.9469 L 231.573,17.8532 L 231.223,17.7145 L 230.893,17.533 L 230.588,17.3115
 L 230.313,17.0536 L 230.073,16.7634 L 229.871,16.4453 L 229.711,16.1044 L 229.594,15.7461 L 229.524,15.376
 L 229.5,15 L 229.524,14.624 L 229.594,14.2539 L 229.711,13.8956 L 229.871,13.5547 L 230.073,13.2366
 L 230.313,12.9464 L 230.588,12.6884 L 230.893,12.467 L 231.223,12.2855 L 231.573,12.1468 L 231.938,12.0531
 L 232.312,12.0059 L 232.688,12.0059 L 233.062,12.0531 L 233.427,12.1468 L 233.777,12.2855 L 234.107,12.467
 L 234.412,12.6884 L 234.687,12.9464 L 234.927,13.2366 L 235.129,13.5547 L 235.289,13.8956 L 235.406,14.2539
 L 235.476,14.624 L 235.5,15 L 235.476,15.376 L 235.406,15.7461 L 235.289,16.1044 L 235.129,16.4453
 L 234.927,16.7634 L 234.687,17.0536 L 234.412,17.3115 L 234.107,17.533 L 233.777,17.7145 L 233.427,17.8532
 L 233.062,17.9469 L 232.688,17.9941 z
M -232.594,23.997 L -232.781,23.9734 L -232.964,23.9266 L -233.139,23.8572 L -233.304,23.7665 L -233.456,23.6558
 L -233.593,23.5268 L -233.714,23.3817 L -233.814,23.2226 L -233.895,23.0522 L -233.953,22.873 L -233.988,22.688
 L -234,22.5 L -233.988,22.312 L -233.953,22.127 L -233.895,21.9478 L -233.814,21.7774 L -233.714,21.6183
 L -233.593,21.4732 L -233.456,21.3442 L -233.304,21.2335 L -233.139,21.1427 L -232.964,21.0734 L -232.781,21.0266
 L -232.594,21.003 L -232.406,21.003 L -232.219,21.0266 L -232.036,21.0734 L -231.861,21.1427 L -231.696,21.2335
 L -231.544,21.3442 L -231.407,21.4732 L -231.286,21.6183 L -231.186,21.7774 L -231.105,21.9478 L -231.047,22.127
 L -231.012,22.312 L -231,22.5 L -231.012,22.688 L -231.047,22.873 L -231.105,23.0522 L -231.186,23.2226
 L -231.286,23.3817 L -231.407,23.5268 L -231.544,23.6558 L -231.696,23.7665 L -231.861,23.8572 L -232.036,23.9266
 L -232.219,23.9734 L -232.406,23.997 z
M 232.406,23.997 L 232.219,23.9734 L 232.036,23.9266 L 231.861,23.8572 L 231.696,23.7665 L 231.544,23.6558
 L 231.407,23.5268 L 231.286,23.3817 L 231.186,23.2226 L 231.105,23.0522 L 231.047,22.873 L 231.012,22.688
 L 231,22.5 L 231.012,22.312 L 231.047,22.127 L 231.105,21.9478 L 231.186,21.7774 L 231.286,21.6183
 L 231.407,21.4732 L 231.544,21.3442 L 231.696,21.2335 L 231.861,21.1427 L 232.036,21.0734 L 232.219,21.0266
 L 232.406,21.003 L 232.594,21.003 L 232.781,21.0266 L 232.964,21.0734 L 233.139,21.1427 L 233.304,21.2335
 L 233.456,21.3442 L 233.593,21.4732 L 233.714,21.6183 L 233.814,21.7774 L 233.895,21.9478 L 233.953,22.127
 L 233.988,22.312 L 234,22.5 L 233.988,22.688 L 233.953,22.873 L 233.895,23.0522 L 233.814,23.2226
 L 233.714,23.3817 L 233.593,23.5268 L 233.456,23.6558 L 233.304,23.7665 L 233.139,23.8572 L 232.964,23.9266
 L 232.781,23.9734 L 232.594,23.997 z
M -232.688,32.9941 L -233.062,32.9469 L -233.427,32.8532 L -233.777,32.7145 L -234.107,32.533 L -234.412,32.3115
 L -234.687,32.0536 L -234.927,31.7634 L -235.129,31.4453 L -235.289,31.1044 L -235.406,30.7461 L -235.476,30.376
 L -235.5,30 L -235.476,29.624 L -235.406,29.2539 L -235.289,28.8956 L -235.129,28.5547 L -234.927,28.2366
 L -234.687,27.9464 L -234.412,27.6884 L -234.107,27.467 L -233.777,27.2855 L -233.427,27.1468 L -233.062,27.0531
 L -232.688,27.0059 L -232.312,27.0059 L -231.938,27.0531 L -231.573,27.1468 L -231.223,27.2855 L -230.893,27.467
 L -230.588,27.6884 L -230.313,27.9464 L -230.073,28.2366 L -229.871,28.5547 L -229.711,28.8956 L -229.594,29.2539
 L -229.524,29.624 L -229.5,30 L -229.524,30.376 L -229.594,30.7461 L -229.711,31.1044 L -229.871,31.4453
 L -230.073,31.7634 L -230.313,32.0536 L -230.588,32.3115 L -230.893,32.533 L -231.223,32.7145 L -231.573,32.8532
 L -231.938,32.9469 L -232.312,32.9941 z
M 232.312,32.9941 L 231.938,32.9469 L 231.573,32.8532 L 231.223,32.7145 L 230.893,32.533 L 230.588,32.3115
 L 230.313,32.0536 L 230.073,31.7634 L 229.871,31.4453 L 229.711,31.1044 L 229.594,30.7461 L 229.524,30.376
 L 229.5,30 L 229.524,29.624 L 229.594,29.2539 L 229.711,28.8956 L 229.871,28.5547 L 230.073,28.2366
 L 230.313,27.9464 L 230.588,27.6884 L 230.893,27.467 L 231.223,27.2855 L 231.573,27.1468 L 231.938,27.0531
 L 232.312,27.0059 L 232.688,27.0059 L 233.062,27.0531 L 233.427,27.1468 L 233.777,27.2855 L 234.107,27.467
 L 234.412,27.6884 L 234.687,27.9464 L 234.927,28.2366 L 235.129,28.5547 L 235.289,28.8956 L 235.406,29.2539
 L 235.476,29.624 L 235.5,30 L 235.476,30.376 L 235.406,30.7461 L 235.289,31.1044 L 235.129,31.4453
 L 234.927,31.7634 L 234.687,32.0536 L 234.412,32.3115 L 234.107,32.533 L 233.777,32.7145 L 233.427,32.8532
 L 233.062,32.9469 L 232.688,32.9941 z
M -232.594,38.997 L -232.781,38.9734 L -232.964,38.9266 L -233.139,38.8572 L -233.304,38.7665 L -233.456,38.6558
 L -233.593,38.5268 L -233.714,38.3817 L -233.814,38.2226 L -233.895,38.0522 L -233.953,37.873 L -233.988,37.688
 L -234,37.5 L -233.988,37.312 L -233.953,37.127 L -233.895,36.9478 L -233.814,36.7774 L -233.714,36.6183
 L -233.593,36.4732 L -233.456,36.3442 L -233.304,36.2335 L -233.139,36.1428 L -232.964,36.0734 L -232.781,36.0266
 L -232.594,36.003 L -232.406,36.003 L -232.219,36.0266 L -232.036,36.0734 L -231.861,36.1428 L -231.696,36.2335
 L -231.544,36.3442 L -231.407,36.4732 L -231.286,36.6183 L -231.186,36.7774 L -231.105,36.9478 L -231.047,37.127
 L -231.012,37.312 L -231,37.5 L -231.012,37.688 L -231.047,37.873 L -231.105,38.0522 L -231.186,38.2226
 L -231.286,38.3817 L -231.407,38.5268 L -231.544,38.6558 L -231.696,38.7665 L -231.861,38.8572 L -232.036,38.9266
 L -232.219,38.9734 L -232.406,38.997 z
M 232.406,38.997 L 232.219,38.9734 L 232.036,38.9266 L 231.861,38.8572 L 231.696,38.7665 L 231.544,38.6558
 L 231.407,38.5268 L 231.286,38.3817 L 231.186,38.2226 L 231.105,38.0522 L 231.047,37.873 L 231.012,37.688
 L 231,37.5 L 231.012,37.312 L 231.047,37.127 L 231.105,36.9478 L 231.186,36.7774 L 231.286,36.6183
 L 231.407,36.4732 L 231.544,36.3442 L 231.696,36.2335 L 231.861,36.1428 L 232.036,36.0734 L 232.219,36.0266
 L 232.406,36.003 L 232.594,36.003 L 232.781,36.0266 L 232.964,36.0734 L 233.139,36.1428 L 233.304,36.2335
 L 233.456,36.3442 L 233.593,36.4732 L 233.714,36.6183 L 233.814,36.7774 L 233.895,36.9478 L 233.953,37.127
 L 233.988,37.312 L 234,37.5 L 233.988,37.688 L 233.953,37.873 L 233.895,38.0522 L 233.814,38.2226
 L 233.714,38.3817 L 233.593,38.5268 L 233.456,38.6558 L 233.304,38.7665 L 233.139,38.8572 L 232.964,38.9266
 L 232.781,38.9734 L 232.594,38.997 z
M -232.688,47.9941 L -233.062,47.9469 L -233.427,47.8532 L -233.777,47.7145 L -234.107,47.533 L -234.412,47.3115
 L -234.687,47.0536 L -234.927,46.7634 L -235.129,46.4453 L -235.289,46.1044 L -235.406,45.7461 L -235.476,45.376
 L -235.5,45 L -235.476,44.624 L -235.406,44.2539 L -235.289,43.8956 L -235.129,43.5547 L -234.927,43.2366
 L -234.687,42.9464 L -234.412,42.6885 L -234.107,42.467 L -233.777,42.2855 L -233.427,42.1468 L -233.062,42.0531
 L -232.688,42.0059 L -232.312,42.0059 L -231.938,42.0531 L -231.573,42.1468 L -231.223,42.2855 L -230.893,42.467
 L -230.588,42.6885 L -230.313,42.9464 L -230.073,43.2366 L -229.871,43.5547 L -229.711,43.8956 L -229.594,44.2539
 L -229.524,44.624 L -229.5,45 L -229.524,45.376 L -229.594,45.7461 L -229.711,46.1044 L -229.871,46.4453
 L -230.073,46.7634 L -230.313,47.0536 L -230.588,47.3115 L -230.893,47.533 L -231.223,47.7145 L -231.573,47.8532
 L -231.938,47.9469 L -232.312,47.9941 z
M 232.312,47.9941 L 231.938,47.9469 L 231.573,47.8532 L 231.223,47.7145 L 230.893,47.533 L 230.588,47.3115
 L 230.313,47.0536 L 230.073,46.7634 L 229.871,46.4453 L 229.711,46.1044 L 229.594,45.7461 L 229.524,45.376
 L 229.5,45 L 229.524,44.624 L 229.594,44.2539 L 229.711,43.8956 L 229.871,43.5547 L 230.073,43.2366
 L 230.313,42.9464 L 230.588,42.6885 L 230.893,42.467 L 231.223,42.2855 L 231.573,42.1468 L 231.938,42.0531
 L 232.312,42.0059 L 232.688,42.0059 L 233.062,42.0531 L 233.427,42.1468 L 233.777,42.2855 L 234.107,42.467
 L 234.412,42.6885 L 234.687,42.9464 L 234.927,43.2366 L 235.129,43.5547 L 235.289,43.8956 L 235.406,44.2539
 L 235.476,44.624 L 235.5,45 L 235.476,45.376 L 235.406,45.7461 L 235.289,46.1044 L 235.129,46.4453
 L 234.927,46.7634 L 234.687,47.0536 L 234.412,47.3115 L 234.107,47.533 L 233.777,47.7145 L 233.427,47.8532
 L 233.062,47.9469 L 232.688,47.9941 z
" stroke="black" fill="lightgray" stroke-width="0.5"/>
</svg>
