<?xml version="1.0" standalone="no"?>
<!DOCTYPE svg PUBLIC "-//W3C//DTD SVG 1.1//EN" "http://www.w3.org/Graphics/SVG/1.1/DTD/svg11.dtd">
<svg width="254mm" height="150mm" viewBox="-127 -75 254 150" xmlns="http://www.w3.org/2000/svg" version="1.1">
<title>OpenSCAD Model</title>
<path d="
M 122.937,74.4114 L 123.545,74.2553 L 124.129,74.0241 L 124.679,73.7216 L 125.187,73.3526 L 125.645,72.9227
 L 126.045,72.4389 L 126.382,71.9088 L 126.649,71.3406 L 126.843,70.7434 L 126.961,70.1267 L 127,69.5
 L 127,-69.5 L 126.961,-70.1267 L 126.843,-70.7434 L 126.649,-71.3406 L 126.382,-71.9088 L 126.045,-72.4389
 L 125.645,-72.9227 L 125.187,-73.3526 L 124.679,-73.7216 L 124.129,-74.0241 L 123.545,-74.2553 L 122.937,-74.4114
 L 122.314,-74.4901 L -122.314,-74.4901 L -122.937,-74.4114 L -123.545,-74.2553 L -124.129,-74.0241 L -124.679,-73.7216
 L -125.187,-73.3526 L -125.645,-72.9227 L -126.045,-72.4389 L -126.382,-71.9088 L -126.649,-71.3406 L -126.843,-70.7434
 L -126.961,-70.1267 L -127,-69.5 L -127,69.5 L -126.961,70.1267 L -126.843,70.7434 L -126.649,71.3406
 L -126.382,71.9088 L -126.045,72.4389 L -125.645,72.9227 L -125.187,73.3526 L -124.679,73.7216 L -124.129,74.0241
 L -123.545,74.2553 L -122.937,74.4114 L -122.314,74.4901 L 122.314,74.4901 z
M -90.1884,-64.5059 L -90.5621,-64.5531 L -90.927,-64.6468 L -91.2773,-64.7855 L -91.6075,-64.967 L -91.9123,-65.1885
 L -92.1869,-65.4464 L -92.427,-65.7366 L -92.6289,-66.0547 L -92.7893,-66.3956 L -92.9057,-66.7539 L -92.9763,-67.124
 L -93,-67.5 L -92.9763,-67.876 L -92.9057,-68.2461 L -92.7893,-68.6044 L -92.6289,-68.9453 L -92.427,-69.2634
 L -92.1869,-69.5536 L -91.9123,-69.8115 L -91.6075,-70.033 L -91.2773,-70.2145 L -90.927,-70.3532 L -90.5621,-70.4469
 L -90.1884,-70.4941 L -89.8116,-70.4941 L -89.4379,-70.4469 L -89.073,-70.3532 L -88.7227,-70.2145 L -88.3925,-70.033
 L -88.0877,-69.8115 L -87.8131,-69.5536 L -87.573,-69.2634 L -87.3711,-68.9453 L -87.2107,-68.6044 L -87.0943,-68.2461
 L -87.0237,-67.876 L -87,-67.5 L -87.0237,-67.124 L -87.0943,-66.7539 L -87.2107,-66.3956 L -87.3711,-66.0547
 L -87.573,-65.7366 L -87.8131,-65.4464 L -88.0877,-65.1885 L -88.3925,-64.967 L -88.7227,-64.7855 L -89.073,-64.6468
 L -89.4379,-64.5531 L -89.8116,-64.5059 z
M -75.1884,-64.5059 L -75.5621,-64.5531 L -75.927,-64.6468 L -76.2773,-64.7855 L -76.6075,-64.967 L -76.9123,-65.1885
 L -77.1869,-65.4464 L -77.427,-65.7366 L -77.6289,-66.0547 L -77.7893,-66.3956 L -77.9057,-66.7539 L -77.9763,-67.124
 L -78,-67.5 L -77.9763,-67.876 L -77.9057,-68.2461 L -77.7893,-68.6044 L -77.6289,-68.9453 L -77.427,-69.2634
 L -77.1869,-69.5536 L -76.9123,-69.8115 L -76.6075,-70.033 L -76.2773,-70.2145 L -75.927,-70.3532 L -75.5621,-70.4469
 L -75.1884,-70.4941 L -74.8116,-70.4941 L -74.4379,-70.4469 L -74.073,-70.3532 L -73.7227,-70.2145 L -73.3925,-70.033
 L -73.0877,-69.8115 L -72.8131,-69.5536 L -72.573,-69.2634 L -72.3711,-68.9453 L -72.2107,-68.6044 L -72.0943,-68.2461
 L -72.0237,-67.876 L -72,-67.5 L -72.0237,-67.124 L -72.0943,-66.7539 L -72.2107,-66.3956 L -72.3711,-66.0547
 L -72.573,-65.7366 L -72.8131,-65.4464 L -73.0877,-65.1885 L -73.3925,-64.967 L -73.7227,-64.7855 L -74.073,-64.6468
 L -74.4379,-64.5531 L -74.8116,-64.5059 z
M 14.8116,-64.5059 L 14.4379,-64.5531 L 14.0729,-64.6468 L 13.7227,-64.7855 L 13.3925,-64.967 L 13.0877,-65.1885
 L 12.8131,-65.4464 L 12.5729,-65.7366 L 12.3711,-66.0547 L 12.2107,-66.3956 L 12.0942,-66.7539 L 12.0237,-67.124
 L 12,-67.5 L 12.0237,-67.876 L 12.0942,-68.2461 L 12.2107,-68.6044 L 12.3711,-68.9453 L 12.5729,-69.2634
 L 12.8131,-69.5536 L 13.0877,-69.8115 L 13.3925,-70.033 L 13.7227,-70.2145 L 14.0729,-70.3532 L 14.4379,-70.4469
 L 14.8116,-70.4941 L 15.1884,-70.4941 L 15.5621,-70.4469 L 15.927,-70.3532 L 16.2773,-70.2145 L 16.6075,-70.033
 L 16.9123,-69.8115 L 17.1869,-69.5536 L 17.427,-69.2634 L 17.6289,-68.9453 L 17.7893,-68.6044 L 17.9057,-68.2461
 L 17.9763,-67.876 L 18,-67.5 L 17.9763,-67.124 L 17.9057,-66.7539 L 17.7893,-66.3956 L 17.6289,-66.0547
 L 17.427,-65.7366 L 17.1869,-65.4464 L 16.9123,-65.1885 L 16.6075,-64.967 L 16.2773,-64.7855 L 15.927,-64.6468
 L 15.5621,-64.5531 L 15.1884,-64.5059 z
M 74.8116,-64.5059 L 74.4379,-64.5531 L 74.073,-64.6468 L 73.7227,-64.7855 L 73.3925,-64.967 L 73.0877,-65.1885
 L 72.8131,-65.4464 L 72.573,-65.7366 L 72.3711,-66.0547 L 72.2107,-66.3956 L 72.0943,-66.7539 L 72.0237,-67.124
 L 72,-67.5 L 72.0237,-67.876 L 72.0943,-68.2461 L 72.2107,-68.6044 L 72.3711,-68.9453 L 72.573,-69.2634
 L 72.8131,-69.5536 L 73.0877,-69.8115 L 73.3925,-70.033 L 73.7227,-70.2145 L 74.073,-70.3532 L 74.4379,-70.4469
 L 74.8116,-70.4941 L 75.1884,-70.4941 L 75.5621,-70.4469 L 75.927,-70.3532 L 76.2773,-70.2145 L 76.6075,-70.033
 L 76.9123,-69.8115 L 77.1869,-69.5536 L 77.427,-69.2634 L 77.6289,-68.9453 L 77.7893,-68.6044 L 77.9057,-68.2461
 L 77.9763,-67.876 L 78,-67.5 L 77.9763,-67.124 L 77.9057,-66.7539 L 77.7893,-66.3956 L 77.6289,-66.0547
 L 77.427,-65.7366 L 77.1869,-65.4464 L 76.9123,-65.1885 L 76.6075,-64.967 L 76.2773,-64.7855 L 75.927,-64.6468
 L 75.5621,-64.5531 L 75.1884,-64.5059 z
M 29.8116,-64.5059 L 29.4379,-64.5531 L 29.0729,-64.6468 L 28.7227,-64.7855 L 28.3925,-64.967 L 28.0877,-65.1885
 L 27.8131,-65.4464 L 27.5729,-65.7366 L 27.3711,-66.0547 L 27.2107,-66.3956 L 27.0942,-66.7539 L 27.0237,-67.124
 L 27,-67.5 L 27.0237,-67.876 L 27.0942,-68.2461 L 27.2107,-68.6044 L 27.3711,-68.9453 L 27.5729,-69.2634
 L 27.8131,-69.5536 L 28.0877,-69.8115 L 28.3925,-70.033 L 28.7227,-70.2145 L 29.0729,-70.3532 L 29.4379,-70.4469
 L 29.8116,-70.4941 L 30.1884,-70.4941 L 30.5621,-70.4469 L 30.927,-70.3532 L 31.2773,-70.2145 L 31.6075,-70.033
 L 31.9123,-69.8115 L 32.1869,-69.5536 L 32.427,-69.2634 L 32.6289,-68.9453 L 32.7893,-68.6044 L 32.9057,-68.2461
 L 32.9763,-67.876 L 33,-67.5 L 32.9763,-67.124 L 32.9057,-66.7539 L 32.7893,-66.3956 L 32.6289,-66.0547
 L 32.427,-65.7366 L 32.1869,-65.4464 L 31.9123,-65.1885 L 31.6075,-64.967 L 31.2773,-64.7855 L 30.927,-64.6468
 L 30.5621,-64.5531 L 30.1884,-64.5059 z
M 104.812,-64.5059 L 104.438,-64.5531 L 104.073,-64.6468 L 103.723,-64.7855 L 103.393,-64.967 L 103.088,-65.1885
 L 102.813,-65.4464 L 102.573,-65.7366 L 102.371,-66.0547 L 102.211,-66.3956 L 102.094,-66.7539 L 102.024,-67.124
 L 102,-67.5 L 102.024,-67.876 L 102.094,-68.2461 L 102.211,-68.6044 L 102.371,-68.9453 L 102.573,-69.2634
 L 102.813,-69.5536 L 103.088,-69.8115 L 103.393,-70.033 L 103.723,-70.2145 L 104.073,-70.3532 L 104.438,-70.4469
 L 104.812,-70.4941 L 105.188,-70.4941 L 105.562,-70.4469 L 105.927,-70.3532 L 106.277,-70.2145 L 106.607,-70.033
 L 106.912,-69.8115 L 107.187,-69.5536 L 107.427,-69.2634 L 107.629,-68.9453 L 107.789,-68.6044 L 107.906,-68.2461
 L 107.976,-67.876 L 108,-67.5 L 107.976,-67.124 L 107.906,-66.7539 L 107.789,-66.3956 L 107.629,-66.0547
 L 107.427,-65.7366 L 107.187,-65.4464 L 106.912,-65.1885 L 106.607,-64.967 L 106.277,-64.7855 L 105.927,-64.6468
 L 105.562,-64.5531 L 105.188,-64.5059 z
M -15.1884,-64.5059 L -15.5621,-64.5531 L -15.927,-64.6468 L -16.2773,-64.7855 L -16.6075,-64.967 L -16.9123,-65.1885
 L -17.1869,-65.4464 L -17.427,-65.7366 L -17.6289,-66.0547 L -17.7893,-66.3956 L -17.9057,-66.7539 L -17.9763,-67.124
 L -18,-67.5 L -17.9763,-67.876 L -17.9057,-68.2461 L -17.7893,-68.6044 L -17.6289,-68.9453 L -17.427,-69.2634
 L -17.1869,-69.5536 L -16.9123,-69.8115 L -16.6075,-70.033 L -16.2773,-70.2145 L -15.927,-70.3532 L -15.5621,-70.4469
 L -15.1884,-70.4941 L -14.8116,-70.4941 L -14.4379,-70.4469 L -14.0729,-70.3532 L -13.7227,-70.2145 L -13.3925,-70.033
 L -13.0877,-69.8115 L -12.8131,-69.5536 L -12.5729,-69.2634 L -12.3711,-68.9453 L -12.2107,-68.6044 L -12.0942,-68.2461
 L -12.0237,-67.876 L -12,-67.5 L -12.0237,-67.124 L -12.0942,-66.7539 L -12.2107,-66.3956 L -12.3711,-66.0547
 L -12.5729,-65.7366 L -12.8131,-65.4464 L -13.0877,-65.1885 L -13.3925,-64.967 L -13.7227,-64.7855 L -14.0729,-64.6468
 L -14.4379,-64.5531 L -14.8116,-64.5059 z
M -0.18837,-64.5059 L -0.562134,-64.5531 L -0.927048,-64.6468 L -1.27733,-64.7855 L -1.60747,-64.967 L -1.91226,-65.1885
 L -2.1869,-65.4464 L -2.42705,-65.7366 L -2.62891,-66.0547 L -2.78932,-66.3956 L -2.90575,-66.7539 L -2.97633,-67.124
 L -3,-67.5 L -2.97633,-67.876 L -2.90575,-68.2461 L -2.78932,-68.6044 L -2.62891,-68.9453 L -2.42705,-69.2634
 L -2.1869,-69.5536 L -1.91226,-69.8115 L -1.60747,-70.033 L -1.27733,-70.2145 L -0.927048,-70.3532 L -0.562134,-70.4469
 L -0.18837,-70.4941 L 0.18837,-70.4941 L 0.562134,-70.4469 L 0.927048,-70.3532 L 1.27733,-70.2145 L 1.60747,-70.033
 L 1.91226,-69.8115 L 2.1869,-69.5536 L 2.42705,-69.2634 L 2.62891,-68.9453 L 2.78932,-68.6044 L 2.90575,-68.2461
 L 2.97633,-67.876 L 3,-67.5 L 2.97633,-67.124 L 2.90575,-66.7539 L 2.78932,-66.3956 L 2.62891,-66.0547
 L 2.42705,-65.7366 L 2.1869,-65.4464 L 1.91226,-65.1885 L 1.60747,-64.967 L 1.27733,-64.7855 L 0.927048,-64.6468
 L 0.562134,-64.5531 L 0.18837,-64.5059 z
M 44.8116,-64.5059 L 44.4379,-64.5531 L 44.0729,-64.6468 L 43.7227,-64.7855 L 43.3925,-64.967 L 43.0877,-65.1885
 L 42.8131,-65.4464 L 42.5729,-65.7366 L 42.3711,-66.0547 L 42.2107,-66.3956 L 42.0942,-66.7539 L 42.0237,-67.124
 L 42,-67.5 L 42.0237,-67.876 L 42.0942,-68.2461 L 42.2107,-68.6044 L 42.3711,-68.9453 L 42.5729,-69.2634
 L 42.8131,-69.5536 L 43.0877,-69.8115 L 43.3925,-70.033 L 43.7227,-70.2145 L 44.0729,-70.3532 L 44.4379,-70.4469
 L 44.8116,-70.4941 L 45.1884,-70.4941 L 45.5621,-70.4469 L 45.927,-70.3532 L 46.2773,-70.2145 L 46.6075,-70.033
 L 46.9123,-69.8115 L 47.1869,-69.5536 L 47.427,-69.2634 L 47.6289,-68.9453 L 47.7893,-68.6044 L 47.9057,-68.2461
 L 47.9763,-67.876 L 48,-67.5 L 47.9763,-67.124 L 47.9057,-66.7539 L 47.7893,-66.3956 L 47.6289,-66.0547
 L 47.427,-65.7366 L 47.1869,-65.4464 L 46.9123,-65.1885 L 46.6075,-64.967 L 46.2773,-64.7855 L 45.927,-64.6468
 L 45.5621,-64.5531 L 45.1884,-64.5059 z
M -105.188,-64.5059 L -105.562,-64.5531 L -105.927,-64.6468 L -106.277,-64.7855 L -106.607,-64.967 L -106.912,-65.1885
 L -107.187,-65.4464 L -107.427,-65.7366 L -107.629,-66.0547 L -107.789,-66.3956 L -107.906,-66.7539 L -107.976,-67.124
 L -108,-67.5 L -107.976,-67.876 L -107.906,-68.2461 L -107.789,-68.6044 L -107.629,-68.9453 L -107.427,-69.2634
 L -107.187,-69.5536 L -106.912,-69.8115 L -106.607,-70.033 L -106.277,-70.2145 L -105.927,-70.3532 L -105.562,-70.4469
 L -105.188,-70.4941 L -104.812,-70.4941 L -104.438,-70.4469 L -104.073,-70.3532 L -103.723,-70.2145 L -103.393,-70.033
 L -103.088,-69.8115 L -102.813,-69.5536 L -102.573,-69.2634 L -102.371,-68.9453 L -102.211,-68.6044 L -102.094,-68.2461
 L -102.024,-67.876 L -102,-67.5 L -102.024,-67.124 L -102.094,-66.7539 L -102.211,-66.3956 L -102.371,-66.0547
 L -102.573,-65.7366 L -102.813,-65.4464 L -103.088,-65.1885 L -103.393,-64.967 L -103.723,-64.7855 L -104.073,-64.6468
 L -104.438,-64.5531 L -104.812,-64.5059 z
M 89.8116,-64.5059 L 89.4379,-64.5531 L 89.073,-64.6468 L 88.7227,-64.7855 L 88.3925,-64.967 L 88.0877,-65.1885
 L 87.8131,-65.4464 L 87.573,-65.7366 L 87.3711,-66.0547 L 87.2107,-66.3956 L 87.0943,-66.7539 L 87.0237,-67.124
 L 87,-67.5 L 87.0237,-67.876 L 87.0943,-68.2461 L 87.2107,-68.6044 L 87.3711,-68.9453 L 87.573,-69.2634
 L 87.8131,-69.5536 L 88.0877,-69.8115 L 88.3925,-70.033 L 88.7227,-70.2145 L 89.073,-70.3532 L 89.4379,-70.4469
 L 89.8116,-70.4941 L 90.1884,-70.4941 L 90.5621,-70.4469 L 90.927,-70.3532 L 91.2773,-70.2145 L 91.6075,-70.033
 L 91.9123,-69.8115 L 92.1869,-69.5536 L 92.427,-69.2634 L 92.6289,-68.9453 L 92.7893,-68.6044 L 92.9057,-68.2461
 L 92.9763,-67.876 L 93,-67.5 L 92.9763,-67.124 L 92.9057,-66.7539 L 92.7893,-66.3956 L 92.6289,-66.0547
 L 92.427,-65.7366 L 92.1869,-65.4464 L 91.9123,-65.1885 L 91.6075,-64.967 L 91.2773,-64.7855 L 90.927,-64.6468
 L 90.5621,-64.5531 L 90.1884,-64.5059 z
M 59.8116,-64.5059 L 59.4379,-64.5531 L 59.0729,-64.6468 L 58.7227,-64.7855 L 58.3925,-64.967 L 58.0877,-65.1885
 L 57.8131,-65.4464 L 57.5729,-65.7366 L 57.3711,-66.0547 L 57.2107,-66.3956 L 57.0942,-66.7539 L 57.0237,-67.124
 L 57,-67.5 L 57.0237,-67.876 L 57.0942,-68.2461 L 57.2107,-68.6044 L 57.3711,-68.9453 L 57.5729,-69.2634
 L 57.8131,-69.5536 L 58.0877,-69.8115 L 58.3925,-70.033 L 58.7227,-70.2145 L 59.0729,-70.3532 L 59.4379,-70.4469
 L 59.8116,-70.4941 L 60.1884,-70.4941 L 60.5621,-70.4469 L 60.927,-70.3532 L 61.2773,-70.2145 L 61.6075,-70.033
 L 61.9123,-69.8115 L 62.1869,-69.5536 L 62.427,-69.2634 L 62.6289,-68.9453 L 62.7893,-68.6044 L 62.9057,-68.2461
 L 62.9763,-67.876 L 63,-67.5 L 62.9763,-67.124 L 62.9057,-66.7539 L 62.7893,-66.3956 L 62.6289,-66.0547
 L 62.427,-65.7366 L 62.1869,-65.4464 L 61.9123,-65.1885 L 61.6075,-64.967 L 61.2773,-64.7855 L 60.927,-64.6468
 L 60.5621,-64.5531 L 60.1884,-64.5059 z
M -120.188,-64.5059 L -120.562,-64.5531 L -120.927,-64.6468 L -121.277,-64.7855 L -121.607,-64.967 L -121.912,-65.1885
 L -122.187,-65.4464 L -122.427,-65.7366 L -122.629,-66.0547 L -122.789,-66.3956 L -122.906,-66.7539 L -122.976,-67.124
 L -123,-67.5 L -122.976,-67.876 L -122.906,-68.2461 L -122.789,-68.6044 L -122.629,-68.9453 L -122.427,-69.2634
 L -122.187,-69.5536 L -121.912,-69.8115 L -121.607,-70.033 L -121.277,-70.2145 L -120.927,-70.3532 L -120.562,-70.4469
 L -120.188,-70.4941 L -119.812,-70.4941 L -119.438,-70.4469 L -119.073,-70.3532 L -118.723,-70.2145 L -118.393,-70.033
 L -118.088,-69.8115 L -117.813,-69.5536 L -117.573,-69.2634 L -117.371,-68.9453 L -117.211,-68.6044 L -117.094,-68.2461
 L -117.024,-67.876 L -117,-67.5 L -117.024,-67.124 L -117.094,-66.7539 L -117.211,-66.3956 L -117.371,-66.0547
 L -117.573,-65.7366 L -117.813,-65.4464 L -118.088,-65.1885 L -118.393,-64.967 L -118.723,-64.7855 L -119.073,-64.6468
 L -119.438,-64.5531 L -119.812,-64.5059 z
M 119.812,-64.5059 L 119.438,-64.5531 L 119.073,-64.6468 L 118.723,-64.7855 L 118.393,-64.967 L 118.088,-65.1885
 L 117.813,-65.4464 L 117.573,-65.7366 L 117.371,-66.0547 L 117.211,-66.3956 L 117.094,-66.7539 L 117.024,-67.124
 L 117,-67.5 L 117.024,-67.876 L 117.094,-68.2461 L 117.211,-68.6044 L 117.371,-68.9453 L 117.573,-69.2634
 L 117.813,-69.5536 L 118.088,-69.8115 L 118.393,-70.033 L 118.723,-70.2145 L 119.073,-70.3532 L 119.438,-70.4469
 L 119.812,-70.4941 L 120.188,-70.4941 L 120.562,-70.4469 L 120.927,-70.3532 L 121.277,-70.2145 L 121.607,-70.033
 L 121.912,-69.8115 L 122.187,-69.5536 L 122.427,-69.2634 L 122.629,-68.9453 L 122.789,-68.6044 L 122.906,-68.2461
 L 122.976,-67.876 L 123,-67.5 L 122.976,-67.124 L 122.906,-66.7539 L 122.789,-66.3956 L 122.629,-66.0547
 L 122.427,-65.7366 L 122.187,-65.4464 L 121.912,-65.1885 L 121.607,-64.967 L 121.277,-64.7855 L 120.927,-64.6468
 L 120.562,-64.5531 L 120.188,-64.5059 z
M -45.1884,-64.5059 L -45.5621,-64.5531 L -45.927,-64.6468 L -46.2773,-64.7855 L -46.6075,-64.967 L -46.9123,-65.1885
 L -47.1869,-65.4464 L -47.427,-65.7366 L -47.6289,-66.0547 L -47.7893,-66.3956 L -47.9057,-66.7539 L -47.9763,-67.124
 L -48,-67.5 L -47.9763,-67.876 L -47.9057,-68.2461 L -47.7893,-68.6044 L -47.6289,-68.9453 L -47.427,-69.2634
 L -47.1869,-69.5536 L -46.9123,-69.8115 L -46.6075,-70.033 L -46.2773,-70.2145 L -45.927,-70.3532 L -45.5621,-70.4469
 L -45.1884,-70.4941 L -44.8116,-70.4941 L -44.4379,-70.4469 L -44.0729,-70.3532 L -43.7227,-70.2145 L -43.3925,-70.033
 L -43.0877,-69.8115 L -42.8131,-69.5536 L -42.5729,-69.2634 L -42.3711,-68.9453 L -42.2107,-68.6044 L -42.0942,-68.2461
 L -42.0237,-67.876 L -42,-67.5 L -42.0237,-67.124 L -42.0942,-66.7539 L -42.2107,-66.3956 L -42.3711,-66.0547
 L -42.5729,-65.7366 L -42.8131,-65.4464 L -43.0877,-65.1885 L -43.3925,-64.967 L -43.7227,-64.7855 L -44.0729,-64.6468
 L -44.4379,-64.5531 L -44.8116,-64.5059 z
M -60.1884,-64.5059 L -60.5621,-64.5531 L -60.927,-64.6468 L -61.2773,-64.7855 L -61.6075,-64.967 L -61.9123,-65.1885
 L -62.1869,-65.4464 L -62.427,-65.7366 L -62.6289,-66.0547 L -62.7893,-66.3956 L -62.9057,-66.7539 L -62.9763,-67.124
 L -63,-67.5 L -62.9763,-67.876 L -62.9057,-68.2461 L -62.7893,-68.6044 L -62.6289,-68.9453 L -62.427,-69.2634
 L -62.1869,-69.5536 L -61.9123,-69.8115 L -61.6075,-70.033 L -61.2773,-70.2145 L -60.927,-70.3532 L -60.5621,-70.4469
 L -60.1884,-70.4941 L -59.8116,-70.4941 L -59.4379,-70.4469 L -59.0729,-70.3532 L -58.7227,-70.2145 L -58.3925,-70.033
 L -58.0877,-69.8115 L -57.8131,-69.5536 L -57.5729,-69.2634 L -57.3711,-68.9453 L -57.2107,-68.6044 L -57.0942,-68.2461
 L -57.0237,-67.876 L -57,-67.5 L -57.0237,-67.124 L -57.0942,-66.7539 L -57.2107,-66.3956 L -57.3711,-66.0547
 L -57.5729,-65.7366 L -57.8131,-65.4464 L -58.0877,-65.1885 L -58.3925,-64.967 L -58.7227,-64.7855 L -59.0729,-64.6468
 L -59.4379,-64.5531 L -59.8116,-64.5059 z
M -29.4379,-70.4469 L -29.0729,-70.3532 L -28.7227,-70.2145 L -28.3925,-70.033 L -28.0877,-69.8115 L -27.8131,-69.5536
 L -27.5729,-69.2634 L -27.3711,-68.9453 L -27.2107,-68.6044 L -27.0942,-68.2461 L -27.0237,-67.876 L -27,-67.5
 L -27.0237,-67.124 L -27.0942,-66.7539 L -27.2107,-66.3956 L -27.3711,-66.0547 L -27.5729,-65.7366 L -27.8131,-65.4464
 L -28.0877,-65.1885 L -28.3925,-64.967 L -28.7227,-64.7855 L -29.0729,-64.6468 L -29.4379,-64.5531 L -29.8116,-64.5059
 L -30.1884,-64.5059 L -30.5621,-64.5531 L -30.927,-64.6468 L -31.2773,-64.7855 L -31.6075,-64.967 L -31.9123,-65.1885
 L -32.1869,-65.4464 L -32.427,-65.7366 L -32.6289,-66.0547 L -32.7893,-66.3956 L -32.9057,-66.7539 L -32.9763,-67.124
 L -33,-67.5 L -32.9763,-67.876 L -32.9057,-68.2461 L -32.7893,-68.6044 L -32.6289,-68.9453 L -32.427,-69.2634
 L -32.1869,-69.5536 L -31.9123,-69.8115 L -31.6075,-70.033 L -31.2773,-70.2145 L -30.927,-70.3532 L -30.5621,-70.4469
 L -30.1884,-70.4941 L -29.8116,-70.4941 z
M 7.40581,-66.003 L 7.21892,-66.0266 L 7.03647,-66.0734 L 6.86133,-66.1428 L 6.69626,-66.2335 L 6.54385,-66.3442
 L 6.40654,-66.4732 L 6.28647,-66.6183 L 6.18553,-66.7774 L 6.10533,-66.9478 L 6.04712,-67.127 L 6.01183,-67.312
 L 6,-67.5 L 6.01183,-67.688 L 6.04712,-67.873 L 6.10533,-68.0522 L 6.18553,-68.2226 L 6.28647,-68.3817
 L 6.40654,-68.5268 L 6.54385,-68.6558 L 6.69626,-68.7665 L 6.86133,-68.8572 L 7.03647,-68.9266 L 7.21892,-68.9734
 L 7.40581,-68.997 L 7.59418,-68.997 L 7.78107,-68.9734 L 7.96352,-68.9266 L 8.13866,-68.8572 L 8.30373,-68.7665
 L 8.45613,-68.6558 L 8.59344,-68.5268 L 8.71352,-68.3817 L 8.81445,-68.2226 L 8.89465,-68.0522 L 8.95287,-67.873
 L 8.98816,-67.688 L 9,-67.5 L 8.98816,-67.312 L 8.95287,-67.127 L 8.89465,-66.9478 L 8.81445,-66.7774
 L 8.71352,-66.6183 L 8.59344,-66.4732 L 8.45613,-66.3442 L 8.30373,-66.2335 L 8.13866,-66.1428 L 7.96352,-66.0734
 L 7.78107,-66.0266 L 7.59418,-66.003 z
M 97.4058,-66.003 L 97.2189,-66.0266 L 97.0365,-66.0734 L 96.8613,-66.1428 L 96.6963,-66.2335 L 96.5439,-66.3442
 L 96.4065,-66.4732 L 96.2865,-66.6183 L 96.1855,-66.7774 L 96.1053,-66.9478 L 96.0471,-67.127 L 96.0118,-67.312
 L 96,-67.5 L 96.0118,-67.688 L 96.0471,-67.873 L 96.1053,-68.0522 L 96.1855,-68.2226 L 96.2865,-68.3817
 L 96.4065,-68.5268 L 96.5439,-68.6558 L 96.6963,-68.7665 L 96.8613,-68.8572 L 97.0365,-68.9266 L 97.2189,-68.9734
 L 97.4058,-68.997 L 97.5942,-68.997 L 97.7811,-68.9734 L 97.9635,-68.9266 L 98.1387,-68.8572 L 98.3037,-68.7665
 L 98.4561,-68.6558 L 98.5934,-68.5268 L 98.7135,-68.3817 L 98.8145,-68.2226 L 98.8947,-68.0522 L 98.9529,-67.873
 L 98.9882,-67.688 L 99,-67.5 L 98.9882,-67.312 L 98.9529,-67.127 L 98.8947,-66.9478 L 98.8145,-66.7774
 L 98.7135,-66.6183 L 98.5934,-66.4732 L 98.4561,-66.3442 L 98.3037,-66.2335 L 98.1387,-66.1428 L 97.9635,-66.0734
 L 97.7811,-66.0266 L 97.5942,-66.003 z
M -67.5942,-66.003 L -67.7811,-66.0266 L -67.9635,-66.0734 L -68.1387,-66.1428 L -68.3037,-66.2335 L -68.4561,-66.3442
 L -68.5934,-66.4732 L -68.7135,-66.6183 L -68.8145,-66.7774 L -68.8947,-66.9478 L -68.9529,-67.127 L -68.9882,-67.312
 L -69,-67.5 L -68.9882,-67.688 L -68.9529,-67.873 L -68.8947,-68.0522 L -68.8145,-68.2226 L -68.7135,-68.3817
 L -68.5934,-68.5268 L -68.4561,-68.6558 L -68.3037,-68.7665 L -68.1387,-68.8572 L -67.9635,-68.9266 L -67.7811,-68.9734
 L -67.5942,-68.997 L -67.4058,-68.997 L -67.2189,-68.9734 L -67.0365,-68.9266 L -66.8613,-68.8572 L -66.6963,-68.7665
 L -66.5439,-68.6558 L -66.4065,-68.5268 L -66.2865,-68.3817 L -66.1855,-68.2226 L -66.1053,-68.0522 L -66.0471,-67.873
 L -66.0118,-67.688 L -66,-67.5 L -66.0118,-67.312 L -66.0471,-67.127 L -66.1053,-66.9478 L -66.1855,-66.7774
 L -66.2865,-66.6183 L -66.4065,-66.4732 L -66.5439,-66.3442 L -66.6963,-66.2335 L -66.8613,-66.1428 L -67.0365,-66.0734
 L -67.2189,-66.0266 L -67.4058,-66.003 z
M 67.4058,-66.003 L 67.2189,-66.0266 L 67.0365,-66.0734 L 66.8613,-66.1428 L 66.6963,-66.2335 L 66.5439,-66.3442
 L 66.4065,-66.4732 L 66.2865,-66.6183 L 66.1855,-66.7774 L 66.1053,-66.9478 L 66.0471,-67.127 L 66.0118,-67.312
 L 66,-67.5 L 66.0118,-67.688 L 66.0471,-67.873 L 66.1053,-68.0522 L 66.1855,-68.2226 L 66.2865,-68.3817
 L 66.4065,-68.5268 L 66.5439,-68.6558 L 66.6963,-68.7665 L 66.8613,-68.8572 L 67.0365,-68.9266 L 67.2189,-68.9734
 L 67.4058,-68.997 L 67.5942,-68.997 L 67.7811,-68.9734 L 67.9635,-68.9266 L 68.1387,-68.8572 L 68.3037,-68.7665
 L 68.4561,-68.6558 L 68.5934,-68.5268 L 68.7135,-68.3817 L 68.8145,-68.2226 L 68.8947,-68.0522 L 68.9529,-67.873
 L 68.9882,-67.688 L 69,-67.5 L 68.9882,-67.312 L 68.9529,-67.127 L 68.8947,-66.9478 L 68.8145,-66.7774
 L 68.7135,-66.6183 L 68.5934,-66.4732 L 68.4561,-66.3442 L 68.3037,-66.2335 L 68.1387,-66.1428 L 67.9635,-66.0734
 L 67.7811,-66.0266 L 67.5942,-66.003 z
M -112.594,-66.003 L -112.781,-66.0266 L -112.964,-66.0734 L -113.139,-66.1428 L -113.304,-66.2335 L -113.456,-66.3442
 L -113.593,-66.4732 L -113.714,-66.6183 L -113.814,-66.7774 L -113.895,-66.9478 L -113.953,-67.127 L -113.988,-67.312
 L -114,-67.5 L -113.988,-67.688 L -113.953,-67.873 L -113.895,-68.0522 L -113.814,-68.2226 L -113.714,-68.3817
 L -113.593,-68.5268 L -113.456,-68.6558 L -113.304,-68.7665 L -113.139,-68.8572 L -112.964,-68.9266 L -112.781,-68.9734
 L -112.594,-68.997 L -112.406,-68.997 L -112.219,-68.9734 L -112.036,-68.9266 L -111.861,-68.8572 L -111.696,-68.7665
 L -111.544,-68.6558 L -111.407,-68.5268 L -111.286,-68.3817 L -111.186,-68.2226 L -111.105,-68.0522 L -111.047,-67.873
 L -111.012,-67.688 L -111,-67.5 L -111.012,-67.312 L -111.047,-67.127 L -111.105,-66.9478 L -111.186,-66.7774
 L -111.286,-66.6183 L -111.407,-66.4732 L -111.544,-66.3442 L -111.696,-66.2335 L -111.861,-66.1428 L -112.036,-66.0734
 L -112.219,-66.0266 L -112.406,-66.003 z
M -82.5942,-66.003 L -82.7811,-66.0266 L -82.9635,-66.0734 L -83.1387,-66.1428 L -83.3037,-66.2335 L -83.4561,-66.3442
 L -83.5934,-66.4732 L -83.7135,-66.6183 L -83.8145,-66.7774 L -83.8947,-66.9478 L -83.9529,-67.127 L -83.9882,-67.312
 L -84,-67.5 L -83.9882,-67.688 L -83.9529,-67.873 L -83.8947,-68.0522 L -83.8145,-68.2226 L -83.7135,-68.3817
 L -83.5934,-68.5268 L -83.4561,-68.6558 L -83.3037,-68.7665 L -83.1387,-68.8572 L -82.9635,-68.9266 L -82.7811,-68.9734
 L -82.5942,-68.997 L -82.4058,-68.997 L -82.2189,-68.9734 L -82.0365,-68.9266 L -81.8613,-68.8572 L -81.6963,-68.7665
 L -81.5439,-68.6558 L -81.4065,-68.5268 L -81.2865,-68.3817 L -81.1855,-68.2226 L -81.1053,-68.0522 L -81.0471,-67.873
 L -81.0118,-67.688 L -81,-67.5 L -81.0118,-67.312 L -81.0471,-67.127 L -81.1053,-66.9478 L -81.1855,-66.7774
 L -81.2865,-66.6183 L -81.4065,-66.4732 L -81.5439,-66.3442 L -81.6963,-66.2335 L -81.8613,-66.1428 L -82.0365,-66.0734
 L -82.2189,-66.0266 L -82.4058,-66.003 z
M 82.4058,-66.003 L 82.2189,-66.0266 L 82.0365,-66.0734 L 81.8613,-66.1428 L 81.6963,-66.2335 L 81.5439,-66.3442
 L 81.4065,-66.4732 L 81.2865,-66.6183 L 81.1855,-66.7774 L 81.1053,-66.9478 L 81.0471,-67.127 L 81.0118,-67.312
 L 81,-67.5 L 81.0118,-67.688 L 81.0471,-67.873 L 81.1053,-68.0522 L 81.1855,-68.2226 L 81.2865,-68.3817
 L 81.4065,-68.5268 L 81.5439,-68.6558 L 81.6963,-68.7665 L 81.8613,-68.8572 L 82.0365,-68.9266 L 82.2189,-68.9734
 L 82.4058,-68.997 L 82.5942,-68.997 L 82.7811,-68.9734 L 82.9635,-68.9266 L 83.1387,-68.8572 L 83.3037,-68.7665
 L 83.4561,-68.6558 L 83.5934,-68.5268 L 83.7135,-68.3817 L 83.8145,-68.2226 L 83.8947,-68.0522 L 83.9529,-67.873
 L 83.9882,-67.688 L 84,-67.5 L 83.9882,-67.312 L 83.9529,-67.127 L 83.8947,-66.9478 L 83.8145,-66.7774
 L 83.7135,-66.6183 L 83.5934,-66.4732 L 83.4561,-66.3442 L 83.3037,-66.2335 L 83.1387,-66.1428 L 82.9635,-66.0734
 L 82.7811,-66.0266 L 82.5942,-66.003 z
M 37.4058,-66.003 L 37.2189,-66.0266 L 37.0365,-66.0734 L 36.8613,-66.1428 L 36.6963,-66.2335 L 36.5439,-66.3442
 L 36.4065,-66.4732 L 36.2865,-66.6183 L 36.1855,-66.7774 L 36.1053,-66.9478 L 36.0471,-67.127 L 36.0118,-67.312
 L 36,-67.5 L 36.0118,-67.688 L 36.0471,-67.873 L 36.1053,-68.0522 L 36.1855,-68.2226 L 36.2865,-68.3817
 L 36.4065,-68.5268 L 36.5439,-68.6558 L 36.6963,-68.7665 L 36.8613,-68.8572 L 37.0365,-68.9266 L 37.2189,-68.9734
 L 37.4058,-68.997 L 37.5942,-68.997 L 37.7811,-68.9734 L 37.9635,-68.9266 L 38.1387,-68.8572 L 38.3037,-68.7665
 L 38.4561,-68.6558 L 38.5934,-68.5268 L 38.7135,-68.3817 L 38.8145,-68.2226 L 38.8947,-68.0522 L 38.9529,-67.873
 L 38.9882,-67.688 L 39,-67.5 L 38.9882,-67.312 L 38.9529,-67.127 L 38.8947,-66.9478 L 38.8145,-66.7774
 L 38.7135,-66.6183 L 38.5934,-66.4732 L 38.4561,-66.3442 L 38.3037,-66.2335 L 38.1387,-66.1428 L 37.9635,-66.0734
 L 37.7811,-66.0266 L 37.5942,-66.003 z
M -97.5942,-66.003 L -97.7811,-66.0266 L -97.9635,-66.0734 L -98.1387,-66.1428 L -98.3037,-66.2335 L -98.4561,-66.3442
 L -98.5934,-66.4732 L -98.7135,-66.6183 L -98.8145,-66.7774 L -98.8947,-66.9478 L -98.9529,-67.127 L -98.9882,-67.312
 L -99,-67.5 L -98.9882,-67.688 L -98.9529,-67.873 L -98.8947,-68.0522 L -98.8145,-68.2226 L -98.7135,-68.3817
 L -98.5934,-68.5268 L -98.4561,-68.6558 L -98.3037,-68.7665 L -98.1387,-68.8572 L -97.9635,-68.9266 L -97.7811,-68.9734
 L -97.5942,-68.997 L -97.4058,-68.997 L -97.2189,-68.9734 L -97.0365,-68.9266 L -96.8613,-68.8572 L -96.6963,-68.7665
 L -96.5439,-68.6558 L -96.4065,-68.5268 L -96.2865,-68.3817 L -96.1855,-68.2226 L -96.1053,-68.0522 L -96.0471,-67.873
 L -96.0118,-67.688 L -96,-67.5 L -96.0118,-67.312 L -96.0471,-67.127 L -96.1053,-66.9478 L -96.1855,-66.7774
 L -96.2865,-66.6183 L -96.4065,-66.4732 L -96.5439,-66.3442 L -96.6963,-66.2335 L -96.8613,-66.1428 L -97.0365,-66.0734
 L -97.2189,-66.0266 L -97.4058,-66.003 z
M 52.4058,-66.003 L 52.2189,-66.0266 L 52.0365,-66.0734 L 51.8613,-66.1428 L 51.6963,-66.2335 L 51.5439,-66.3442
 L 51.4065,-66.4732 L 51.2865,-66.6183 L 51.1855,-66.7774 L 51.1053,-66.9478 L 51.0471,-67.127 L 51.0118,-67.312
 L 51,-67.5 L 51.0118,-67.688 L 51.0471,-67.873 L 51.1053,-68.0522 L 51.1855,-68.2226 L 51.2865,-68.3817
 L 51.4065,-68.5268 L 51.5439,-68.6558 L 51.6963,-68.7665 L 51.8613,-68.8572 L 52.0365,-68.9266 L 52.2189,-68.9734
 L 52.4058,-68.997 L 52.5942,-68.997 L 52.7811,-68.9734 L 52.9635,-68.9266 L 53.1387,-68.8572 L 53.3037,-68.7665
 L 53.4561,-68.6558 L 53.5934,-68.5268 L 53.7135,-68.3817 L 53.8145,-68.2226 L 53.8947,-68.0522 L 53.9529,-67.873
 L 53.9882,-67.688 L 54,-67.5 L 53.9882,-67.312 L 53.9529,-67.127 L 53.8947,-66.9478 L 53.8145,-66.7774
 L 53.7135,-66.6183 L 53.5934,-66.4732 L 53.4561,-66.3442 L 53.3037,-66.2335 L 53.1387,-66.1428 L 52.9635,-66.0734
 L 52.7811,-66.0266 L 52.5942,-66.003 z
M -52.5942,-66.003 L -52.7811,-66.0266 L -52.9635,-66.0734 L -53.1387,-66.1428 L -53.3037,-66.2335 L -53.4561,-66.3442
 L -53.5934,-66.4732 L -53.7135,-66.6183 L -53.8145,-66.7774 L -53.8947,-66.9478 L -53.9529,-67.127 L -53.9882,-67.312
 L -54,-67.5 L -53.9882,-67.688 L -53.9529,-67.873 L -53.8947,-68.0522 L -53.8145,-68.2226 L -53.7135,-68.3817
 L -53.5934,-68.5268 L -53.4561,-68.6558 L -53.3037,-68.7665 L -53.1387,-68.8572 L -52.9635,-68.9266 L -52.7811,-68.9734
 L -52.5942,-68.997 L -52.4058,-68.997 L -52.2189,-68.9734 L -52.0365,-68.9266 L -51.8613,-68.8572 L -51.6963,-68.7665
 L -51.5439,-68.6558 L -51.4065,-68.5268 L -51.2865,-68.3817 L -51.1855,-68.2226 L -51.1053,-68.0522 L -51.0471,-67.873
 L -51.0118,-67.688 L -51,-67.5 L -51.0118,-67.312 L -51.0471,-67.127 L -51.1053,-66.9478 L -51.1855,-66.7774
 L -51.2865,-66.6183 L -51.4065,-66.4732 L -51.5439,-66.3442 L -51.6963,-66.2335 L -51.8613,-66.1428 L -52.0365,-66.0734
 L -52.2189,-66.0266 L -52.4058,-66.003 z
M 22.4058,-66.003 L 22.2189,-66.0266 L 22.0365,-66.0734 L 21.8613,-66.1428 L 21.6963,-66.2335 L 21.5439,-66.3442
 L 21.4065,-66.4732 L 21.2865,-66.6183 L 21.1855,-66.7774 L 21.1053,-66.9478 L 21.0471,-67.127 L 21.0118,-67.312
 L 21,-67.5 L 21.0118,-67.688 L 21.0471,-67.873 L 21.1053,-68.0522 L 21.1855,-68.2226 L 21.2865,-68.3817
 L 21.4065,-68.5268 L 21.5439,-68.6558 L 21.6963,-68.7665 L 21.8613,-68.8572 L 22.0365,-68.9266 L 22.2189,-68.9734
 L 22.4058,-68.997 L 22.5942,-68.997 L 22.7811,-68.9734 L 22.9635,-68.9266 L 23.1387,-68.8572 L 23.3037,-68.7665
 L 23.4561,-68.6558 L 23.5934,-68.5268 L 23.7135,-68.3817 L 23.8145,-68.2226 L 23.8947,-68.0522 L 23.9529,-67.873
 L 23.9882,-67.688 L 24,-67.5 L 23.9882,-67.312 L 23.9529,-67.127 L 23.8947,-66.9478 L 23.8145,-66.7774
 L 23.7135,-66.6183 L 23.5934,-66.4732 L 23.4561,-66.3442 L 23.3037,-66.2335 L 23.1387,-66.1428 L 22.9635,-66.0734
 L 22.7811,-66.0266 L 22.5942,-66.003 z
M -7.59418,-66.003 L -7.78107,-66.0266 L -7.96352,-66.0734 L -8.13866,-66.1428 L -8.30373,-66.2335 L -8.45613,-66.3442
 L -8.59344,-66.4732 L -8.71352,-66.6183 L -8.81445,-66.7774 L -8.89465,-66.9478 L -8.95287,-67.127 L -8.98816,-67.312
 L -9,-67.5 L -8.98816,-67.688 L -8.95287,-67.873 L -8.89465,-68.0522 L -8.81445,-68.2226 L -8.71352,-68.3817
 L -8.59344,-68.5268 L -8.45613,-68.6558 L -8.30373,-68.7665 L -8.13866,-68.8572 L -7.96352,-68.9266 L -7.78107,-68.9734
 L -7.59418,-68.997 L -7.40581,-68.997 L -7.21892,-68.9734 L -7.03647,-68.9266 L -6.86133,-68.8572 L -6.69626,-68.7665
 L -6.54385,-68.6558 L -6.40654,-68.5268 L -6.28647,-68.3817 L -6.18553,-68.2226 L -6.10533,-68.0522 L -6.04712,-67.873
 L -6.01183,-67.688 L -6,-67.5 L -6.01183,-67.312 L -6.04712,-67.127 L -6.10533,-66.9478 L -6.18553,-66.7774
 L -6.28647,-66.6183 L -6.40654,-66.4732 L -6.54385,-66.3442 L -6.69626,-66.2335 L -6.86133,-66.1428 L -7.03647,-66.0734
 L -7.21892,-66.0266 L -7.40581,-66.003 z
M -22.5942,-66.003 L -22.7811,-66.0266 L -22.9635,-66.0734 L -23.1387,-66.1428 L -23.3037,-66.2335 L -23.4561,-66.3442
 L -23.5934,-66.4732 L -23.7135,-66.6183 L -23.8145,-66.7774 L -23.8947,-66.9478 L -23.9529,-67.127 L -23.9882,-67.312
 L -24,-67.5 L -23.9882,-67.688 L -23.9529,-67.873 L -23.8947,-68.0522 L -23.8145,-68.2226 L -23.7135,-68.3817
 L -23.5934,-68.5268 L -23.4561,-68.6558 L -23.3037,-68.7665 L -23.1387,-68.8572 L -22.9635,-68.9266 L -22.7811,-68.9734
 L -22.5942,-68.997 L -22.4058,-68.997 L -22.2189,-68.9734 L -22.0365,-68.9266 L -21.8613,-68.8572 L -21.6963,-68.7665
 L -21.5439,-68.6558 L -21.4065,-68.5268 L -21.2865,-68.3817 L -21.1855,-68.2226 L -21.1053,-68.0522 L -21.0471,-67.873
 L -21.0118,-67.688 L -21,-67.5 L -21.0118,-67.312 L -21.0471,-67.127 L -21.1053,-66.9478 L -21.1855,-66.7774
 L -21.2865,-66.6183 L -21.4065,-66.4732 L -21.5439,-66.3442 L -21.6963,-66.2335 L -21.8613,-66.1428 L -22.0365,-66.0734
 L -22.2189,-66.0266 L -22.4058,-66.003 z
M 112.406,-66.003 L 112.219,-66.0266 L 112.036,-66.0734 L 111.861,-66.1428 L 111.696,-66.2335 L 111.544,-66.3442
 L 111.407,-66.4732 L 111.286,-66.6183 L 111.186,-66.7774 L 111.105,-66.9478 L 111.047,-67.127 L 111.012,-67.312
 L 111,-67.5 L 111.012,-67.688 L 111.047,-67.873 L 111.105,-68.0522 L 111.186,-68.2226 L 111.286,-68.3817
 L 111.407,-68.5268 L 111.544,-68.6558 L 111.696,-68.7665 L 111.861,-68.8572 L 112.036,-68.9266 L 112.219,-68.9734
 L 112.406,-68.997 L 112.594,-68.997 L 112.781,-68.9734 L 112.964,-68.9266 L 113.139,-68.8572 L 113.304,-68.7665
 L 113.456,-68.6558 L 113.593,-68.5268 L 113.714,-68.3817 L 113.814,-68.2226 L 113.895,-68.0522 L 113.953,-67.873
 L 113.988,-67.688 L 114,-67.5 L 113.988,-67.312 L 113.953,-67.127 L 113.895,-66.9478 L 113.814,-66.7774
 L 113.714,-66.6183 L 113.593,-66.4732 L 113.456,-66.3442 L 113.304,-66.2335 L 113.139,-66.1428 L 112.964,-66.0734
 L 112.781,-66.0266 L 112.594,-66.003 z
M -37.5942,-66.003 L -37.7811,-66.0266 L -37.9635,-66.0734 L -38.1387,-66.1428 L -38.3037,-66.2335 L -38.4561,-66.3442
 L -38.5934,-66.4732 L -38.7135,-66.6183 L -38.8145,-66.7774 L -38.8947,-66.9478 L -38.9529,-67.127 L -38.9882,-67.312
 L -39,-67.5 L -38.9882,-67.688 L -38.9529,-67.873 L -38.8947,-68.0522 L -38.8145,-68.2226 L -38.7135,-68.3817
 L -38.5934,-68.5268 L -38.4561,-68.6558 L -38.3037,-68.7665 L -38.1387,-68.8572 L -37.9635,-68.9266 L -37.7811,-68.9734
 L -37.5942,-68.997 L -37.4058,-68.997 L -37.2189,-68.9734 L -37.0365,-68.9266 L -36.8613,-68.8572 L -36.6963,-68.7665
 L -36.5439,-68.6558 L -36.4065,-68.5268 L -36.2865,-68.3817 L -36.1855,-68.2226 L -36.1053,-68.0522 L -36.0471,-67.873
 L -36.0118,-67.688 L -36,-67.5 L -36.0118,-67.312 L -36.0471,-67.127 L -36.1053,-66.9478 L -36.1855,-66.7774
 L -36.2865,-66.6183 L -36.4065,-66.4732 L -36.5439,-66.3442 L -36.6963,-66.2335 L -36.8613,-66.1428 L -37.0365,-66.0734
 L -37.2189,-66.0266 L -37.4058,-66.003 z
M -66.2674,59.8816 L -73.7429,58.9372 L -81.041,57.0634 L -88.0468,54.2896 L -94.6496,50.6597 L -100.745,46.2308
 L -106.238,41.0728 L -111.041,35.2671 L -115.078,28.9052 L -118.287,22.0875 L -120.615,14.9214 L -122.027,7.51999
 L -122.5,-0 L -122.027,-7.51999 L -120.615,-14.9214 L -118.287,-22.0875 L -115.078,-28.9052 L -111.041,-35.2671
 L -106.238,-41.0728 L -100.745,-46.2308 L -94.6496,-50.6597 L -88.0468,-54.2896 L -81.041,-57.0634 L -73.7429,-58.9372
 L -66.2674,-59.8816 L -58.7326,-59.8816 L -51.2571,-58.9372 L -43.959,-57.0634 L -36.9532,-54.2896 L -30.3504,-50.6597
 L -24.2545,-46.2308 L -18.7619,-41.0728 L -13.959,-35.2671 L -9.92159,-28.9052 L -6.71341,-22.0875 L -4.38501,-14.9214
 L -2.97311,-7.51999 L -2.5,-0 L -2.97311,7.51999 L -4.38501,14.9214 L -6.71341,22.0875 L -9.92159,28.9052
 L -13.959,35.2671 L -18.7619,41.0728 L -24.2545,46.2308 L -30.3504,50.6597 L -36.9532,54.2896 L -43.959,57.0634
 L -51.2571,58.9372 L -58.7326,59.8816 z
M 58.7326,59.8816 L 51.2571,58.9372 L 43.959,57.0634 L 36.9532,54.2896 L 30.3504,50.6597 L 24.2545,46.2308
 L 18.7619,41.0728 L 13.959,35.2671 L 9.92159,28.9052 L 6.71341,22.0875 L 4.38501,14.9214 L 2.97311,7.51999
 L 2.5,-0 L 2.97311,-7.51999 L 4.38501,-14.9214 L 6.71341,-22.0875 L 9.92159,-28.9052 L 13.959,-35.2671
 L 18.7619,-41.0728 L 24.2545,-46.2308 L 30.3504,-50.6597 L 36.9532,-54.2896 L 43.959,-57.0634 L 51.2571,-58.9372
 L 58.7326,-59.8816 L 66.2674,-59.8816 L 73.7429,-58.9372 L 81.041,-57.0634 L 88.0468,-54.2896 L 94.6496,-50.6597
 L 100.745,-46.2308 L 106.238,-41.0728 L 111.041,-35.2671 L 115.078,-28.9052 L 118.287,-22.0875 L 120.615,-14.9214
 L 122.027,-7.51999 L 122.5,-0 L 122.027,7.51999 L 120.615,14.9214 L 118.287,22.0875 L 115.078,28.9052
 L 111.041,35.2671 L 106.238,41.0728 L 100.745,46.2308 L 94.6496,50.6597 L 88.0468,54.2896 L 81.041,57.0634
 L 73.7429,58.9372 L 66.2674,59.8816 z
M -0.18837,70.4941 L -0.562134,70.4469 L -0.927048,70.3532 L -1.27733,70.2145 L -1.60747,70.033 L -1.91226,69.8115
 L -2.1869,69.5536 L -2.42705,69.2634 L -2.62891,68.9453 L -2.78932,68.6044 L -2.90575,68.2461 L -2.97633,67.876
 L -3,67.5 L -2.97633,67.124 L -2.90575,66.7539 L -2.78932,66.3956 L -2.62891,66.0547 L -2.42705,65.7366
 L -2.1869,65.4464 L -1.91226,65.1885 L -1.60747,64.967 L -1.27733,64.7855 L -0.927048,64.6468 L -0.562134,64.5531
 L -0.18837,64.5059 L 0.18837,64.5059 L 0.562134,64.5531 L 0.927048,64.6468 L 1.27733,64.7855 L 1.60747,64.967
 L 1.91226,65.1885 L 2.1869,65.4464 L 2.42705,65.7366 L 2.62891,66.0547 L 2.78932,66.3956 L 2.90575,66.7539
 L 2.97633,67.124 L 3,67.5 L 2.97633,67.876 L 2.90575,68.2461 L 2.78932,68.6044 L 2.62891,68.9453
 L 2.42705,69.2634 L 2.1869,69.5536 L 1.91226,69.8115 L 1.60747,70.033 L 1.27733,70.2145 L 0.927048,70.3532
 L 0.562134,70.4469 L 0.18837,70.4941 z
M 119.812,70.4941 L 119.438,70.4469 L 119.073,70.3532 L 118.723,70.2145 L 118.393,70.033 L 118.088,69.8115
 L 117.813,69.5536 L 117.573,69.2634 L 117.371,68.9453 L 117.211,68.6044 L 117.094,68.2461 L 117.024,67.876
 L 117,67.5 L 117.024,67.124 L 117.094,66.7539 L 117.211,66.3956 L 117.371,66.0547 L 117.573,65.7366
 L 117.813,65.4464 L 118.088,65.1885 L 118.393,64.967 L 118.723,64.7855 L 119.073,64.6468 L 119.438,64.5531
 L 119.812,64.5059 L 120.188,64.5059 L 120.562,64.5531 L 120.927,64.6468 L 121.277,64.7855 L 121.607,64.967
 L 121.912,65.1885 L 122.187,65.4464 L 122.427,65.7366 L 122.629,66.0547 L 122.789,66.3956 L 122.906,66.7539
 L 122.976,67.124 L 123,67.5 L 122.976,67.876 L 122.906,68.2461 L 122.789,68.6044 L 122.629,68.9453
 L 122.427,69.2634 L 122.187,69.5536 L 121.912,69.8115 L 121.607,70.033 L 121.277,70.2145 L 120.927,70.3532
 L 120.562,70.4469 L 120.188,70.4941 z
M 29.8116,70.4941 L 29.4379,70.4469 L 29.0729,70.3532 L 28.7227,70.2145 L 28.3925,70.033 L 28.0877,69.8115
 L 27.8131,69.5536 L 27.5729,69.2634 L 27.3711,68.9453 L 27.2107,68.6044 L 27.0942,68.2461 L 27.0237,67.876
 L 27,67.5 L 27.0237,67.124 L 27.0942,66.7539 L 27.2107,66.3956 L 27.3711,66.0547 L 27.5729,65.7366
 L 27.8131,65.4464 L 28.0877,65.1885 L 28.3925,64.967 L 28.7227,64.7855 L 29.0729,64.6468 L 29.4379,64.5531
 L 29.8116,64.5059 L 30.1884,64.5059 L 30.5621,64.5531 L 30.927,64.6468 L 31.2773,64.7855 L 31.6075,64.967
 L 31.9123,65.1885 L 32.1869,65.4464 L 32.427,65.7366 L 32.6289,66.0547 L 32.7893,66.3956 L 32.9057,66.7539
 L 32.9763,67.124 L 33,67.5 L 32.9763,67.876 L 32.9057,68.2461 L 32.7893,68.6044 L 32.6289,68.9453
 L 32.427,69.2634 L 32.1869,69.5536 L 31.9123,69.8115 L 31.6075,70.033 L 31.2773,70.2145 L 30.927,70.3532
 L 30.5621,70.4469 L 30.1884,70.4941 z
M -30.1884,70.4941 L -30.5621,70.4469 L -30.927,70.3532 L -31.2773,70.2145 L -31.6075,70.033 L -31.9123,69.8115
 L -32.1869,69.5536 L -32.427,69.2634 L -32.6289,68.9453 L -32.7893,68.6044 L -32.9057,68.2461 L -32.9763,67.876
 L -33,67.5 L -32.9763,67.124 L -32.9057,66.7539 L -32.7893,66.3956 L -32.6289,66.0547 L -32.427,65.7366
 L -32.1869,65.4464 L -31.9123,65.1885 L -31.6075,64.967 L -31.2773,64.7855 L -30.927,64.6468 L -30.5621,64.5531
 L -30.1884,64.5059 L -29.8116,64.5059 L -29.4379,64.5531 L -29.0729,64.6468 L -28.7227,64.7855 L -28.3925,64.967
 L -28.0877,65.1885 L -27.8131,65.4464 L -27.5729,65.7366 L -27.3711,66.0547 L -27.2107,66.3956 L -27.0942,66.7539
 L -27.0237,67.124 L -27,67.5 L -27.0237,67.876 L -27.0942,68.2461 L -27.2107,68.6044 L -27.3711,68.9453
 L -27.5729,69.2634 L -27.8131,69.5536 L -28.0877,69.8115 L -28.3925,70.033 L -28.7227,70.2145 L -29.0729,70.3532
 L -29.4379,70.4469 L -29.8116,70.4941 z
M 14.8116,70.4941 L 14.4379,70.4469 L 14.0729,70.3532 L 13.7227,70.2145 L 13.3925,70.033 L 13.0877,69.8115
 L 12.8131,69.5536 L 12.5729,69.2634 L 12.3711,68.9453 L 12.2107,68.6044 L 12.0942,68.2461 L 12.0237,67.876
 L 12,67.5 L 12.0237,67.124 L 12.0942,66.7539 L 12.2107,66.3956 L 12.3711,66.0547 L 12.5729,65.7366
 L 12.8131,65.4464 L 13.0877,65.1885 L 13.3925,64.967 L 13.7227,64.7855 L 14.0729,64.6468 L 14.4379,64.5531
 L 14.8116,64.5059 L 15.1884,64.5059 L 15.5621,64.5531 L 15.927,64.6468 L 16.2773,64.7855 L 16.6075,64.967
 L 16.9123,65.1885 L 17.1869,65.4464 L 17.427,65.7366 L 17.6289,66.0547 L 17.7893,66.3956 L 17.9057,66.7539
 L 17.9763,67.124 L 18,67.5 L 17.9763,67.876 L 17.9057,68.2461 L 17.7893,68.6044 L 17.6289,68.9453
 L 17.427,69.2634 L 17.1869,69.5536 L 16.9123,69.8115 L 16.6075,70.033 L 16.2773,70.2145 L 15.927,70.3532
 L 15.5621,70.4469 L 15.1884,70.4941 z
M 59.8116,70.4941 L 59.4379,70.4469 L 59.0729,70.3532 L 58.7227,70.2145 L 58.3925,70.033 L 58.0877,69.8115
 L 57.8131,69.5536 L 57.5729,69.2634 L 57.3711,68.9453 L 57.2107,68.6044 L 57.0942,68.2461 L 57.0237,67.876
 L 57,67.5 L 57.0237,67.124 L 57.0942,66.7539 L 57.2107,66.3956 L 57.3711,66.0547 L 57.5729,65.7366
 L 57.8131,65.4464 L 58.0877,65.1885 L 58.3925,64.967 L 58.7227,64.7855 L 59.0729,64.6468 L 59.4379,64.5531
 L 59.8116,64.5059 L 60.1884,64.5059 L 60.5621,64.5531 L 60.927,64.6468 L 61.2773,64.7855 L 61.6075,64.967
 L 61.9123,65.1885 L 62.1869,65.4464 L 62.427,65.7366 L 62.6289,66.0547 L 62.7893,66.3956 L 62.9057,66.7539
 L 62.9763,67.124 L 63,67.5 L 62.9763,67.876 L 62.9057,68.2461 L 62.7893,68.6044 L 62.6289,68.9453
 L 62.427,69.2634 L 62.1869,69.5536 L 61.9123,69.8115 L 61.6075,70.033 L 61.2773,70.2145 L 60.927,70.3532
 L 60.5621,70.4469 L 60.1884,70.4941 z
M -105.188,70.4941 L -105.562,70.4469 L -105.927,70.3532 L -106.277,70.2145 L -106.607,70.033 L -106.912,69.8115
 L -107.187,69.5536 L -107.427,69.2634 L -107.629,68.9453 L -107.789,68.6044 L -107.906,68.2461 L -107.976,67.876
 L -108,67.5 L -107.976,67.124 L -107.906,66.7539 L -107.789,66.3956 L -107.629,66.0547 L -107.427,65.7366
 L -107.187,65.4464 L -106.912,65.1885 L -106.607,64.967 L -106.277,64.7855 L -105.927,64.6468 L -105.562,64.5531
 L -105.188,64.5059 L -104.812,64.5059 L -104.438,64.5531 L -104.073,64.6468 L -103.723,64.7855 L -103.393,64.967
 L -103.088,65.1885 L -102.813,65.4464 L -102.573,65.7366 L -102.371,66.0547 L -102.211,66.3956 L -102.094,66.7539
 L -102.024,67.124 L -102,67.5 L -102.024,67.876 L -102.094,68.2461 L -102.211,68.6044 L -102.371,68.9453
 L -102.573,69.2634 L -102.813,69.5536 L -103.088,69.8115 L -103.393,70.033 L -103.723,70.2145 L -104.073,70.3532
 L -104.438,70.4469 L -104.812,70.4941 z
M -75.1884,70.4941 L -75.5621,70.4469 L -75.927,70.3532 L -76.2773,70.2145 L -76.6075,70.033 L -76.9123,69.8115
 L -77.1869,69.5536 L -77.427,69.2634 L -77.6289,68.9453 L -77.7893,68.6044 L -77.9057,68.2461 L -77.9763,67.876
 L -78,67.5 L -77.9763,67.124 L -77.9057,66.7539 L -77.7893,66.3956 L -77.6289,66.0547 L -77.427,65.7366
 L -77.1869,65.4464 L -76.9123,65.1885 L -76.6075,64.967 L -76.2773,64.7855 L -75.927,64.6468 L -75.5621,64.5531
 L -75.1884,64.5059 L -74.8116,64.5059 L -74.4379,64.5531 L -74.073,64.6468 L -73.7227,64.7855 L -73.3925,64.967
 L -73.0877,65.1885 L -72.8131,65.4464 L -72.573,65.7366 L -72.3711,66.0547 L -72.2107,66.3956 L -72.0943,66.7539
 L -72.0237,67.124 L -72,67.5 L -72.0237,67.876 L -72.0943,68.2461 L -72.2107,68.6044 L -72.3711,68.9453
 L -72.573,69.2634 L -72.8131,69.5536 L -73.0877,69.8115 L -73.3925,70.033 L -73.7227,70.2145 L -74.073,70.3532
 L -74.4379,70.4469 L -74.8116,70.4941 z
M -120.188,70.4941 L -120.562,70.4469 L -120.927,70.3532 L -121.277,70.2145 L -121.607,70.033 L -121.912,69.8115
 L -122.187,69.5536 L -122.427,69.2634 L -122.629,68.9453 L -122.789,68.6044 L -122.906,68.2461 L -122.976,67.876
 L -123,67.5 L -122.976,67.124 L -122.906,66.7539 L -122.789,66.3956 L -122.629,66.0547 L -122.427,65.7366
 L -122.187,65.4464 L -121.912,65.1885 L -121.607,64.967 L -121.277,64.7855 L -120.927,64.6468 L -120.562,64.5531
 L -120.188,64.5059 L -119.812,64.5059 L -119.438,64.5531 L -119.073,64.6468 L -118.723,64.7855 L -118.393,64.967
 L -118.088,65.1885 L -117.813,65.4464 L -117.573,65.7366 L -117.371,66.0547 L -117.211,66.3956 L -117.094,66.7539
 L -117.024,67.124 L -117,67.5 L -117.024,67.876 L -117.094,68.2461 L -117.211,68.6044 L -117.371,68.9453
 L -117.573,69.2634 L -117.813,69.5536 L -118.088,69.8115 L -118.393,70.033 L -118.723,70.2145 L -119.073,70.3532
 L -119.438,70.4469 L -119.812,70.4941 z
M 89.8116,70.4941 L 89.4379,70.4469 L 89.073,70.3532 L 88.7227,70.2145 L 88.3925,70.033 L 88.0877,69.8115
 L 87.8131,69.5536 L 87.573,69.2634 L 87.3711,68.9453 L 87.2107,68.6044 L 87.0943,68.2461 L 87.0237,67.876
 L 87,67.5 L 87.0237,67.124 L 87.0943,66.7539 L 87.2107,66.3956 L 87.3711,66.0547 L 87.573,65.7366
 L 87.8131,65.4464 L 88.0877,65.1885 L 88.3925,64.967 L 88.7227,64.7855 L 89.073,64.6468 L 89.4379,64.5531
 L 89.8116,64.5059 L 90.1884,64.5059 L 90.5621,64.5531 L 90.927,64.6468 L 91.2773,64.7855 L 91.6075,64.967
 L 91.9123,65.1885 L 92.1869,65.4464 L 92.427,65.7366 L 92.6289,66.0547 L 92.7893,66.3956 L 92.9057,66.7539
 L 92.9763,67.124 L 93,67.5 L 92.9763,67.876 L 92.9057,68.2461 L 92.7893,68.6044 L 92.6289,68.9453
 L 92.427,69.2634 L 92.1869,69.5536 L 91.9123,69.8115 L 91.6075,70.033 L 91.2773,70.2145 L 90.927,70.3532
 L 90.5621,70.4469 L 90.1884,70.4941 z
M -60.1884,70.4941 L -60.5621,70.4469 L -60.927,70.3532 L -61.2773,70.2145 L -61.6075,70.033 L -61.9123,69.8115
 L -62.1869,69.5536 L -62.427,69.2634 L -62.6289,68.9453 L -62.7893,68.6044 L -62.9057,68.2461 L -62.9763,67.876
 L -63,67.5 L -62.9763,67.124 L -62.9057,66.7539 L -62.7893,66.3956 L -62.6289,66.0547 L -62.427,65.7366
 L -62.1869,65.4464 L -61.9123,65.1885 L -61.6075,64.967 L -61.2773,64.7855 L -60.927,64.6468 L -60.5621,64.5531
 L -60.1884,64.5059 L -59.8116,64.5059 L -59.4379,64.5531 L -59.0729,64.6468 L -58.7227,64.7855 L -58.3925,64.967
 L -58.0877,65.1885 L -57.8131,65.4464 L -57.5729,65.7366 L -57.3711,66.0547 L -57.2107,66.3956 L -57.0942,66.7539
 L -57.0237,67.124 L -57,67.5 L -57.0237,67.876 L -57.0942,68.2461 L -57.2107,68.6044 L -57.3711,68.9453
 L -57.5729,69.2634 L -57.8131,69.5536 L -58.0877,69.8115 L -58.3925,70.033 L -58.7227,70.2145 L -59.0729,70.3532
 L -59.4379,70.4469 L -59.8116,70.4941 z
M -90.1884,70.4941 L -90.5621,70.4469 L -90.927,70.3532 L -91.2773,70.2145 L -91.6075,70.033 L -91.9123,69.8115
 L -92.1869,69.5536 L -92.427,69.2634 L -92.6289,68.9453 L -92.7893,68.6044 L -92.9057,68.2461 L -92.9763,67.876
 L -93,67.5 L -92.9763,67.124 L -92.9057,66.7539 L -92.7893,66.3956 L -92.6289,66.0547 L -92.427,65.7366
 L -92.1869,65.4464 L -91.9123,65.1885 L -91.6075,64.967 L -91.2773,64.7855 L -90.927,64.6468 L -90.5621,64.5531
 L -90.1884,64.5059 L -89.8116,64.5059 L -89.4379,64.5531 L -89.073,64.6468 L -88.7227,64.7855 L -88.3925,64.967
 L -88.0877,65.1885 L -87.8131,65.4464 L -87.573,65.7366 L -87.3711,66.0547 L -87.2107,66.3956 L -87.0943,66.7539
 L -87.0237,67.124 L -87,67.5 L -87.0237,67.876 L -87.0943,68.2461 L -87.2107,68.6044 L -87.3711,68.9453
 L -87.573,69.2634 L -87.8131,69.5536 L -88.0877,69.8115 L -88.3925,70.033 L -88.7227,70.2145 L -89.073,70.3532
 L -89.4379,70.4469 L -89.8116,70.4941 z
M 74.8116,70.4941 L 74.4379,70.4469 L 74.073,70.3532 L 73.7227,70.2145 L 73.3925,70.033 L 73.0877,69.8115
 L 72.8131,69.5536 L 72.573,69.2634 L 72.3711,68.9453 L 72.2107,68.6044 L 72.0943,68.2461 L 72.0237,67.876
 L 72,67.5 L 72.0237,67.124 L 72.0943,66.7539 L 72.2107,66.3956 L 72.3711,66.0547 L 72.573,65.7366
 L 72.8131,65.4464 L 73.0877,65.1885 L 73.3925,64.967 L 73.7227,64.7855 L 74.073,64.6468 L 74.4379,64.5531
 L 74.8116,64.5059 L 75.1884,64.5059 L 75.5621,64.5531 L 75.927,64.6468 L 76.2773,64.7855 L 76.6075,64.967
 L 76.9123,65.1885 L 77.1869,65.4464 L 77.427,65.7366 L 77.6289,66.0547 L 77.7893,66.3956 L 77.9057,66.7539
 L 77.9763,67.124 L 78,67.5 L 77.9763,67.876 L 77.9057,68.2461 L 77.7893,68.6044 L 77.6289,68.9453
 L 77.427,69.2634 L 77.1869,69.5536 L 76.9123,69.8115 L 76.6075,70.033 L 76.2773,70.2145 L 75.927,70.3532
 L 75.5621,70.4469 L 75.1884,70.4941 z
M -45.1884,70.4941 L -45.5621,70.4469 L -45.927,70.3532 L -46.2773,70.2145 L -46.6075,70.033 L -46.9123,69.8115
 L -47.1869,69.5536 L -47.427,69.2634 L -47.6289,68.9453 L -47.7893,68.6044 L -47.9057,68.2461 L -47.9763,67.876
 L -48,67.5 L -47.9763,67.124 L -47.9057,66.7539 L -47.7893,66.3956 L -47.6289,66.0547 L -47.427,65.7366
 L -47.1869,65.4464 L -46.9123,65.1885 L -46.6075,64.967 L -46.2773,64.7855 L -45.927,64.6468 L -45.5621,64.5531
 L -45.1884,64.5059 L -44.8116,64.5059 L -44.4379,64.5531 L -44.0729,64.6468 L -43.7227,64.7855 L -43.3925,64.967
 L -43.0877,65.1885 L -42.8131,65.4464 L -42.5729,65.7366 L -42.3711,66.0547 L -42.2107,66.3956 L -42.0942,66.7539
 L -42.0237,67.124 L -42,67.5 L -42.0237,67.876 L -42.0942,68.2461 L -42.2107,68.6044 L -42.3711,68.9453
 L -42.5729,69.2634 L -42.8131,69.5536 L -43.0877,69.8115 L -43.3925,70.033 L -43.7227,70.2145 L -44.0729,70.3532
 L -44.4379,70.4469 L -44.8116,70.4941 z
M 44.8116,70.4941 L 44.4379,70.4469 L 44.0729,70.3532 L 43.7227,70.2145 L 43.3925,70.033 L 43.0877,69.8115
 L 42.8131,69.5536 L 42.5729,69.2634 L 42.3711,68.9453 L 42.2107,68.6044 L 42.0942,68.2461 L 42.0237,67.876
 L 42,67.5 L 42.0237,67.124 L 42.0942,66.7539 L 42.2107,66.3956 L 42.3711,66.0547 L 42.5729,65.7366
 L 42.8131,65.4464 L 43.0877,65.1885 L 43.3925,64.967 L 43.7227,64.7855 L 44.0729,64.6468 L 44.4379,64.5531
 L 44.8116,64.5059 L 45.1884,64.5059 L 45.5621,64.5531 L 45.927,64.6468 L 46.2773,64.7855 L 46.6075,64.967
 L 46.9123,65.1885 L 47.1869,65.4464 L 47.427,65.7366 L 47.6289,66.0547 L 47.7893,66.3956 L 47.9057,66.7539
 L 47.9763,67.124 L 48,67.5 L 47.9763,67.876 L 47.9057,68.2461 L 47.7893,68.6044 L 47.6289,68.9453
 L 47.427,69.2634 L 47.1869,69.5536 L 46.9123,69.8115 L 46.6075,70.033 L 46.2773,70.2145 L 45.927,70.3532
 L 45.5621,70.4469 L 45.1884,70.4941 z
M -15.1884,70.4941 L -15.5621,70.4469 L -15.927,70.3532 L -16.2773,70.2145 L -16.6075,70.033 L -16.9123,69.8115
 L -17.1869,69.5536 L -17.427,69.2634 L -17.6289,68.9453 L -17.7893,68.6044 L -17.9057,68.2461 L -17.9763,67.876
 L -18,67.5 L -17.9763,67.124 L -17.9057,66.7539 L -17.7893,66.3956 L -17.6289,66.0547 L -17.427,65.7366
 L -17.1869,65.4464 L -16.9123,65.1885 L -16.6075,64.967 L -16.2773,64.7855 L -15.927,64.6468 L -15.5621,64.5531
 L -15.1884,64.5059 L -14.8116,64.5059 L -14.4379,64.5531 L -14.0729,64.6468 L -13.7227,64.7855 L -13.3925,64.967
 L -13.0877,65.1885 L -12.8131,65.4464 L -12.5729,65.7366 L -12.3711,66.0547 L -12.2107,66.3956 L -12.0942,66.7539
 L -12.0237,67.124 L -12,67.5 L -12.0237,67.876 L -12.0942,68.2461 L -12.2107,68.6044 L -12.3711,68.9453
 L -12.5729,69.2634 L -12.8131,69.5536 L -13.0877,69.8115 L -13.3925,70.033 L -13.7227,70.2145 L -14.0729,70.3532
 L -14.4379,70.4469 L -14.8116,70.4941 z
M 104.812,70.4941 L 104.438,70.4469 L 104.073,70.3532 L 103.723,70.2145 L 103.393,70.033 L 103.088,69.8115
 L 102.813,69.5536 L 102.573,69.2634 L 102.371,68.9453 L 102.211,68.6044 L 102.094,68.2461 L 102.024,67.876
 L 102,67.5 L 102.024,67.124 L 102.094,66.7539 L 102.211,66.3956 L 102.371,66.0547 L 102.573,65.7366
 L 102.813,65.4464 L 103.088,65.1885 L 103.393,64.967 L 103.723,64.7855 L 104.073,64.6468 L 104.438,64.5531
 L 104.812,64.5059 L 105.188,64.5059 L 105.562,64.5531 L 105.927,64.6468 L 106.277,64.7855 L 106.607,64.967
 L 106.912,65.1885 L 107.187,65.4464 L 107.427,65.7366 L 107.629,66.0547 L 107.789,66.3956 L 107.906,66.7539
 L 107.976,67.124 L 108,67.5 L 107.976,67.876 L 107.906,68.2461 L 107.789,68.6044 L 107.629,68.9453
 L 107.427,69.2634 L 107.187,69.5536 L 106.912,69.8115 L 106.607,70.033 L 106.277,70.2145 L 105.927,70.3532
 L 105.562,70.4469 L 105.188,70.4941 z
M 112.406,68.997 L 112.219,68.9734 L 112.036,68.9266 L 111.861,68.8572 L 111.696,68.7665 L 111.544,68.6558
 L 111.407,68.5268 L 111.286,68.3817 L 111.186,68.2226 L 111.105,68.0522 L 111.047,67.873 L 111.012,67.688
 L 111,67.5 L 111.012,67.312 L 111.047,67.127 L 111.105,66.9478 L 111.186,66.7774 L 111.286,66.6183
 L 111.407,66.4732 L 111.544,66.3442 L 111.696,66.2335 L 111.861,66.1428 L 112.036,66.0734 L 112.219,66.0266
 L 112.406,66.003 L 112.594,66.003 L 112.781,66.0266 L 112.964,66.0734 L 113.139,66.1428 L 113.304,66.2335
 L 113.456,66.3442 L 113.593,66.4732 L 113.714,66.6183 L 113.814,66.7774 L 113.895,66.9478 L 113.953,67.127
 L 113.988,67.312 L 114,67.5 L 113.988,67.688 L 113.953,67.873 L 113.895,68.0522 L 113.814,68.2226
 L 113.714,68.3817 L 113.593,68.5268 L 113.456,68.6558 L 113.304,68.7665 L 113.139,68.8572 L 112.964,68.9266
 L 112.781,68.9734 L 112.594,68.997 z
M -97.5942,68.997 L -97.7811,68.9734 L -97.9635,68.9266 L -98.1387,68.8572 L -98.3037,68.7665 L -98.4561,68.6558
 L -98.5934,68.5268 L -98.7135,68.3817 L -98.8145,68.2226 L -98.8947,68.0522 L -98.9529,67.873 L -98.9882,67.688
 L -99,67.5 L -98.9882,67.312 L -98.9529,67.127 L -98.8947,66.9478 L -98.8145,66.7774 L -98.7135,66.6183
 L -98.5934,66.4732 L -98.4561,66.3442 L -98.3037,66.2335 L -98.1387,66.1428 L -97.9635,66.0734 L -97.7811,66.0266
 L -97.5942,66.003 L -97.4058,66.003 L -97.2189,66.0266 L -97.0365,66.0734 L -96.8613,66.1428 L -96.6963,66.2335
 L -96.5439,66.3442 L -96.4065,66.4732 L -96.2865,66.6183 L -96.1855,66.7774 L -96.1053,66.9478 L -96.0471,67.127
 L -96.0118,67.312 L -96,67.5 L -96.0118,67.688 L -96.0471,67.873 L -96.1053,68.0522 L -96.1855,68.2226
 L -96.2865,68.3817 L -96.4065,68.5268 L -96.5439,68.6558 L -96.6963,68.7665 L -96.8613,68.8572 L -97.0365,68.9266
 L -97.2189,68.9734 L -97.4058,68.997 z
M -22.5942,68.997 L -22.7811,68.9734 L -22.9635,68.9266 L -23.1387,68.8572 L -23.3037,68.7665 L -23.4561,68.6558
 L -23.5934,68.5268 L -23.7135,68.3817 L -23.8145,68.2226 L -23.8947,68.0522 L -23.9529,67.873 L -23.9882,67.688
 L -24,67.5 L -23.9882,67.312 L -23.9529,67.127 L -23.8947,66.9478 L -23.8145,66.7774 L -23.7135,66.6183
 L -23.5934,66.4732 L -23.4561,66.3442 L -23.3037,66.2335 L -23.1387,66.1428 L -22.9635,66.0734 L -22.7811,66.0266
 L -22.5942,66.003 L -22.4058,66.003 L -22.2189,66.0266 L -22.0365,66.0734 L -21.8613,66.1428 L -21.6963,66.2335
 L -21.5439,66.3442 L -21.4065,66.4732 L -21.2865,66.6183 L -21.1855,66.7774 L -21.1053,66.9478 L -21.0471,67.127
 L -21.0118,67.312 L -21,67.5 L -21.0118,67.688 L -21.0471,67.873 L -21.1053,68.0522 L -21.1855,68.2226
 L -21.2865,68.3817 L -21.4065,68.5268 L -21.5439,68.6558 L -21.6963,68.7665 L -21.8613,68.8572 L -22.0365,68.9266
 L -22.2189,68.9734 L -22.4058,68.997 z
M -82.5942,68.997 L -82.7811,68.9734 L -82.9635,68.9266 L -83.1387,68.8572 L -83.3037,68.7665 L -83.4561,68.6558
 L -83.5934,68.5268 L -83.7135,68.3817 L -83.8145,68.2226 L -83.8947,68.0522 L -83.9529,67.873 L -83.9882,67.688
 L -84,67.5 L -83.9882,67.312 L -83.9529,67.127 L -83.8947,66.9478 L -83.8145,66.7774 L -83.7135,66.6183
 L -83.5934,66.4732 L -83.4561,66.3442 L -83.3037,66.2335 L -83.1387,66.1428 L -82.9635,66.0734 L -82.7811,66.0266
 L -82.5942,66.003 L -82.4058,66.003 L -82.2189,66.0266 L -82.0365,66.0734 L -81.8613,66.1428 L -81.6963,66.2335
 L -81.5439,66.3442 L -81.4065,66.4732 L -81.2865,66.6183 L -81.1855,66.7774 L -81.1053,66.9478 L -81.0471,67.127
 L -81.0118,67.312 L -81,67.5 L -81.0118,67.688 L -81.0471,67.873 L -81.1053,68.0522 L -81.1855,68.2226
 L -81.2865,68.3817 L -81.4065,68.5268 L -81.5439,68.6558 L -81.6963,68.7665 L -81.8613,68.8572 L -82.0365,68.9266
 L -82.2189,68.9734 L -82.4058,68.997 z
M 7.40581,68.997 L 7.21892,68.9734 L 7.03647,68.9266 L 6.86133,68.8572 L 6.69626,68.7665 L 6.54385,68.6558
 L 6.40654,68.5268 L 6.28647,68.3817 L 6.18553,68.2226 L 6.10533,68.0522 L 6.04712,67.873 L 6.01183,67.688
 L 6,67.5 L 6.01183,67.312 L 6.04712,67.127 L 6.10533,66.9478 L 6.18553,66.7774 L 6.28647,66.6183
 L 6.40654,66.4732 L 6.54385,66.3442 L 6.69626,66.2335 L 6.86133,66.1428 L 7.03647,66.0734 L 7.21892,66.0266
 L 7.40581,66.003 L 7.59418,66.003 L 7.78107,66.0266 L 7.96352,66.0734 L 8.13866,66.1428 L 8.30373,66.2335
 L 8.45613,66.3442 L 8.59344,66.4732 L 8.71352,66.6183 L 8.81445,66.7774 L 8.89465,66.9478 L 8.95287,67.127
 L 8.98816,67.312 L 9,67.5 L 8.98816,67.688 L 8.95287,67.873 L 8.89465,68.0522 L 8.81445,68.2226
 L 8.71352,68.3817 L 8.59344,68.5268 L 8.45613,68.6558 L 8.30373,68.7665 L 8.13866,68.8572 L 7.96352,68.9266
 L 7.78107,68.9734 L 7.59418,68.997 z
M -52.5942,68.997 L -52.7811,68.9734 L -52.9635,68.9266 L -53.1387,68.8572 L -53.3037,68.7665 L -53.4561,68.6558
 L -53.5934,68.5268 L -53.7135,68.3817 L -53.8145,68.2226 L -53.8947,68.0522 L -53.9529,67.873 L -53.9882,67.688
 L -54,67.5 L -53.9882,67.312 L -53.9529,67.127 L -53.8947,66.9478 L -53.8145,66.7774 L -53.7135,66.6183
 L -53.5934,66.4732 L -53.4561,66.3442 L -53.3037,66.2335 L -53.1387,66.1428 L -52.9635,66.0734 L -52.7811,66.0266
 L -52.5942,66.003 L -52.4058,66.003 L -52.2189,66.0266 L -52.0365,66.0734 L -51.8613,66.1428 L -51.6963,66.2335
 L -51.5439,66.3442 L -51.4065,66.4732 L -51.2865,66.6183 L -51.1855,66.7774 L -51.1053,66.9478 L -51.0471,67.127
 L -51.0118,67.312 L -51,67.5 L -51.0118,67.688 L -51.0471,67.873 L -51.1053,68.0522 L -51.1855,68.2226
 L -51.2865,68.3817 L -51.4065,68.5268 L -51.5439,68.6558 L -51.6963,68.7665 L -51.8613,68.8572 L -52.0365,68.9266
 L -52.2189,68.9734 L -52.4058,68.997 z
M -67.5942,68.997 L -67.7811,68.9734 L -67.9635,68.9266 L -68.1387,68.8572 L -68.3037,68.7665 L -68.4561,68.6558
 L -68.5934,68.5268 L -68.7135,68.3817 L -68.8145,68.2226 L -68.8947,68.0522 L -68.9529,67.873 L -68.9882,67.688
 L -69,67.5 L -68.9882,67.312 L -68.9529,67.127 L -68.8947,66.9478 L -68.8145,66.7774 L -68.7135,66.6183
 L -68.5934,66.4732 L -68.4561,66.3442 L -68.3037,66.2335 L -68.1387,66.1428 L -67.9635,66.0734 L -67.7811,66.0266
 L -67.5942,66.003 L -67.4058,66.003 L -67.2189,66.0266 L -67.0365,66.0734 L -66.8613,66.1428 L -66.6963,66.2335
 L -66.5439,66.3442 L -66.4065,66.4732 L -66.2865,66.6183 L -66.1855,66.7774 L -66.1053,66.9478 L -66.0471,67.127
 L -66.0118,67.312 L -66,67.5 L -66.0118,67.688 L -66.0471,67.873 L -66.1053,68.0522 L -66.1855,68.2226
 L -66.2865,68.3817 L -66.4065,68.5268 L -66.5439,68.6558 L -66.6963,68.7665 L -66.8613,68.8572 L -67.0365,68.9266
 L -67.2189,68.9734 L -67.4058,68.997 z
M -112.594,68.997 L -112.781,68.9734 L -112.964,68.9266 L -113.139,68.8572 L -113.304,68.7665 L -113.456,68.6558
 L -113.593,68.5268 L -113.714,68.3817 L -113.814,68.2226 L -113.895,68.0522 L -113.953,67.873 L -113.988,67.688
 L -114,67.5 L -113.988,67.312 L -113.953,67.127 L -113.895,66.9478 L -113.814,66.7774 L -113.714,66.6183
 L -113.593,66.4732 L -113.456,66.3442 L -113.304,66.2335 L -113.139,66.1428 L -112.964,66.0734 L -112.781,66.0266
 L -112.594,66.003 L -112.406,66.003 L -112.219,66.0266 L -112.036,66.0734 L -111.861,66.1428 L -111.696,66.2335
 L -111.544,66.3442 L -111.407,66.4732 L -111.286,66.6183 L -111.186,66.7774 L -111.105,66.9478 L -111.047,67.127
 L -111.012,67.312 L -111,67.5 L -111.012,67.688 L -111.047,67.873 L -111.105,68.0522 L -111.186,68.2226
 L -111.286,68.3817 L -111.407,68.5268 L -111.544,68.6558 L -111.696,68.7665 L -111.861,68.8572 L -112.036,68.9266
 L -112.219,68.9734 L -112.406,68.997 z
M 97.4058,68.997 L 97.2189,68.9734 L 97.0365,68.9266 L 96.8613,68.8572 L 96.6963,68.7665 L 96.5439,68.6558
 L 96.4065,68.5268 L 96.2865,68.3817 L 96.1855,68.2226 L 96.1053,68.0522 L 96.0471,67.873 L 96.0118,67.688
 L 96,67.5 L 96.0118,67.312 L 96.0471,67.127 L 96.1053,66.9478 L 96.1855,66.7774 L 96.2865,66.6183
 L 96.4065,66.4732 L 96.5439,66.3442 L 96.6963,66.2335 L 96.8613,66.1428 L 97.0365,66.0734 L 97.2189,66.0266
 L 97.4058,66.003 L 97.5942,66.003 L 97.7811,66.0266 L 97.9635,66.0734 L 98.1387,66.1428 L 98.3037,66.2335
 L 98.4561,66.3442 L 98.5934,66.4732 L 98.7135,66.6183 L 98.8145,66.7774 L 98.8947,66.9478 L 98.9529,67.127
 L 98.9882,67.312 L 99,67.5 L 98.9882,67.688 L 98.9529,67.873 L 98.8947,68.0522 L 98.8145,68.2226
 L 98.7135,68.3817 L 98.5934,68.5268 L 98.4561,68.6558 L 98.3037,68.7665 L 98.1387,68.8572 L 97.9635,68.9266
 L 97.7811,68.9734 L 97.5942,68.997 z
M -37.5942,68.997 L -37.7811,68.9734 L -37.9635,68.9266 L -38.1387,68.8572 L -38.3037,68.7665 L -38.4561,68.6558
 L -38.5934,68.5268 L -38.7135,68.3817 L -38.8145,68.2226 L -38.8947,68.0522 L -38.9529,67.873 L -38.9882,67.688
 L -39,67.5 L -38.9882,67.312 L -38.9529,67.127 L -38.8947,66.9478 L -38.8145,66.7774 L -38.7135,66.6183
 L -38.5934,66.4732 L -38.4561,66.3442 L -38.3037,66.2335 L -38.1387,66.1428 L -37.9635,66.0734 L -37.7811,66.0266
 L -37.5942,66.003 L -37.4058,66.003 L -37.2189,66.0266 L -37.0365,66.0734 L -36.8613,66.1428 L -36.6963,66.2335
 L -36.5439,66.3442 L -36.4065,66.4732 L -36.2865,66.6183 L -36.1855,66.7774 L -36.1053,66.9478 L -36.0471,67.127
 L -36.0118,67.312 L -36,67.5 L -36.0118,67.688 L -36.0471,67.873 L -36.1053,68.0522 L -36.1855,68.2226
 L -36.2865,68.3817 L -36.4065,68.5268 L -36.5439,68.6558 L -36.6963,68.7665 L -36.8613,68.8572 L -37.0365,68.9266
 L -37.2189,68.9734 L -37.4058,68.997 z
M 22.4058,68.997 L 22.2189,68.9734 L 22.0365,68.9266 L 21.8613,68.8572 L 21.6963,68.7665 L 21.5439,68.6558
 L 21.4065,68.5268 L 21.2865,68.3817 L 21.1855,68.2226 L 21.1053,68.0522 L 21.0471,67.873 L 21.0118,67.688
 L 21,67.5 L 21.0118,67.312 L 21.0471,67.127 L 21.1053,66.9478 L 21.1855,66.7774 L 21.2865,66.6183
 L 21.4065,66.4732 L 21.5439,66.3442 L 21.6963,66.2335 L 21.8613,66.1428 L 22.0365,66.0734 L 22.2189,66.0266
 L 22.4058,66.003 L 22.5942,66.003 L 22.7811,66.0266 L 22.9635,66.0734 L 23.1387,66.1428 L 23.3037,66.2335
 L 23.4561,66.3442 L 23.5934,66.4732 L 23.7135,66.6183 L 23.8145,66.7774 L 23.8947,66.9478 L 23.9529,67.127
 L 23.9882,67.312 L 24,67.5 L 23.9882,67.688 L 23.9529,67.873 L 23.8947,68.0522 L 23.8145,68.2226
 L 23.7135,68.3817 L 23.5934,68.5268 L 23.4561,68.6558 L 23.3037,68.7665 L 23.1387,68.8572 L 22.9635,68.9266
 L 22.7811,68.9734 L 22.5942,68.997 z
M 37.4058,68.997 L 37.2189,68.9734 L 37.0365,68.9266 L 36.8613,68.8572 L 36.6963,68.7665 L 36.5439,68.6558
 L 36.4065,68.5268 L 36.2865,68.3817 L 36.1855,68.2226 L 36.1053,68.0522 L 36.0471,67.873 L 36.0118,67.688
 L 36,67.5 L 36.0118,67.312 L 36.0471,67.127 L 36.1053,66.9478 L 36.1855,66.7774 L 36.2865,66.6183
 L 36.4065,66.4732 L 36.5439,66.3442 L 36.6963,66.2335 L 36.8613,66.1428 L 37.0365,66.0734 L 37.2189,66.0266
 L 37.4058,66.003 L 37.5942,66.003 L 37.7811,66.0266 L 37.9635,66.0734 L 38.1387,66.1428 L 38.3037,66.2335
 L 38.4561,66.3442 L 38.5934,66.4732 L 38.7135,66.6183 L 38.8145,66.7774 L 38.8947,66.9478 L 38.9529,67.127
 L 38.9882,67.312 L 39,67.5 L 38.9882,67.688 L 38.9529,67.873 L 38.8947,68.0522 L 38.8145,68.2226
 L 38.7135,68.3817 L 38.5934,68.5268 L 38.4561,68.6558 L 38.3037,68.7665 L 38.1387,68.8572 L 37.9635,68.9266
 L 37.7811,68.9734 L 37.5942,68.997 z
M -7.59418,68.997 L -7.78107,68.9734 L -7.96352,68.9266 L -8.13866,68.8572 L -8.30373,68.7665 L -8.45613,68.6558
 L -8.59344,68.5268 L -8.71352,68.3817 L -8.81445,68.2226 L -8.89465,68.0522 L -8.95287,67.873 L -8.98816,67.688
 L -9,67.5 L -8.98816,67.312 L -8.95287,67.127 L -8.89465,66.9478 L -8.81445,66.7774 L -8.71352,66.6183
 L -8.59344,66.4732 L -8.45613,66.3442 L -8.30373,66.2335 L -8.13866,66.1428 L -7.96352,66.0734 L -7.78107,66.0266
 L -7.59418,66.003 L -7.40581,66.003 L -7.21892,66.0266 L -7.03647,66.0734 L -6.86133,66.1428 L -6.69626,66.2335
 L -6.54385,66.3442 L -6.40654,66.4732 L -6.28647,66.6183 L -6.18553,66.7774 L -6.10533,66.9478 L -6.04712,67.127
 L -6.01183,67.312 L -6,67.5 L -6.01183,67.688 L -6.04712,67.873 L -6.10533,68.0522 L -6.18553,68.2226
 L -6.28647,68.3817 L -6.40654,68.5268 L -6.54385,68.6558 L -6.69626,68.7665 L -6.86133,68.8572 L -7.03647,68.9266
 L -7.21892,68.9734 L -7.40581,68.997 z
M 67.4058,68.997 L 67.2189,68.9734 L 67.0365,68.9266 L 66.8613,68.8572 L 66.6963,68.7665 L 66.5439,68.6558
 L 66.4065,68.5268 L 66.2865,68.3817 L 66.1855,68.2226 L 66.1053,68.0522 L 66.0471,67.873 L 66.0118,67.688
 L 66,67.5 L 66.0118,67.312 L 66.0471,67.127 L 66.1053,66.9478 L 66.1855,66.7774 L 66.2865,66.6183
 L 66.4065,66.4732 L 66.5439,66.3442 L 66.6963,66.2335 L 66.8613,66.1428 L 67.0365,66.0734 L 67.2189,66.0266
 L 67.4058,66.003 L 67.5942,66.003 L 67.7811,66.0266 L 67.9635,66.0734 L 68.1387,66.1428 L 68.3037,66.2335
 L 68.4561,66.3442 L 68.5934,66.4732 L 68.7135,66.6183 L 68.8145,66.7774 L 68.8947,66.9478 L 68.9529,67.127
 L 68.9882,67.312 L 69,67.5 L 68.9882,67.688 L 68.9529,67.873 L 68.8947,68.0522 L 68.8145,68.2226
 L 68.7135,68.3817 L 68.5934,68.5268 L 68.4561,68.6558 L 68.3037,68.7665 L 68.1387,68.8572 L 67.9635,68.9266
 L 67.7811,68.9734 L 67.5942,68.997 z
M 52.4058,68.997 L 52.2189,68.9734 L 52.0365,68.9266 L 51.8613,68.8572 L 51.6963,68.7665 L 51.5439,68.6558
 L 51.4065,68.5268 L 51.2865,68.3817 L 51.1855,68.2226 L 51.1053,68.0522 L 51.0471,67.873 L 51.0118,67.688
 L 51,67.5 L 51.0118,67.312 L 51.0471,67.127 L 51.1053,66.9478 L 51.1855,66.7774 L 51.2865,66.6183
 L 51.4065,66.4732 L 51.5439,66.3442 L 51.6963,66.2335 L 51.8613,66.1428 L 52.0365,66.0734 L 52.2189,66.0266
 L 52.4058,66.003 L 52.5942,66.003 L 52.7811,66.0266 L 52.9635,66.0734 L 53.1387,66.1428 L 53.3037,66.2335
 L 53.4561,66.3442 L 53.5934,66.4732 L 53.7135,66.6183 L 53.8145,66.7774 L 53.8947,66.9478 L 53.9529,67.127
 L 53.9882,67.312 L 54,67.5 L 53.9882,67.688 L 53.9529,67.873 L 53.8947,68.0522 L 53.8145,68.2226
 L 53.7135,68.3817 L 53.5934,68.5268 L 53.4561,68.6558 L 53.3037,68.7665 L 53.1387,68.8572 L 52.9635,68.9266
 L 52.7811,68.9734 L 52.5942,68.997 z
M 82.4058,68.997 L 82.2189,68.9734 L 82.0365,68.9266 L 81.8613,68.8572 L 81.6963,68.7665 L 81.5439,68.6558
 L 81.4065,68.5268 L 81.2865,68.3817 L 81.1855,68.2226 L 81.1053,68.0522 L 81.0471,67.873 L 81.0118,67.688
 L 81,67.5 L 81.0118,67.312 L 81.0471,67.127 L 81.1053,66.9478 L 81.1855,66.7774 L 81.2865,66.6183
 L 81.4065,66.4732 L 81.5439,66.3442 L 81.6963,66.2335 L 81.8613,66.1428 L 82.0365,66.0734 L 82.2189,66.0266
 L 82.4058,66.003 L 82.5942,66.003 L 82.7811,66.0266 L 82.9635,66.0734 L 83.1387,66.1428 L 83.3037,66.2335
 L 83.4561,66.3442 L 83.5934,66.4732 L 83.7135,66.6183 L 83.8145,66.7774 L 83.8947,66.9478 L 83.9529,67.127
 L 83.9882,67.312 L 84,67.5 L 83.9882,67.688 L 83.9529,67.873 L 83.8947,68.0522 L 83.8145,68.2226
 L 83.7135,68.3817 L 83.5934,68.5268 L 83.4561,68.6558 L 83.3037,68.7665 L 83.1387,68.8572 L 82.9635,68.9266
 L 82.7811,68.9734 L 82.5942,68.997 z
" stroke="black" fill="lightgray" stroke-width="0.5"/>
</svg>
