<?xml version="1.0" standalone="no"?>
<!DOCTYPE svg PUBLIC "-//W3C//DTD SVG 1.1//EN" "http://www.w3.org/Graphics/SVG/1.1/DTD/svg11.dtd">
<svg width="150mm" height="30mm" viewBox="-75 -15 150 30" xmlns="http://www.w3.org/2000/svg" version="1.1">
<title>OpenSCAD Model</title>
<path d="
M 70.4369,14.4114 L 71.0451,14.2553 L 71.6289,14.0241 L 72.1791,13.7216 L 72.6871,13.3526 L 73.1448,12.9227
 L 73.5451,12.4389 L 73.8815,11.9088 L 74.1489,11.3406 L 74.3429,10.7434 L 74.4606,10.1267 L 74.5,9.5
 L 74.5,-9.5 L 74.4606,-10.1267 L 74.3429,-10.7434 L 74.1489,-11.3406 L 73.8815,-11.9088 L 73.5451,-12.4389
 L 73.1448,-12.9227 L 72.6871,-13.3526 L 72.1791,-13.7216 L 71.6289,-14.0241 L 71.0451,-14.2553 L 70.4369,-14.4114
 L 69.8139,-14.4901 L -69.8139,-14.4901 L -70.4369,-14.4114 L -71.0451,-14.2553 L -71.6289,-14.0241 L -72.1791,-13.7216
 L -72.6871,-13.3526 L -73.1448,-12.9227 L -73.5451,-12.4389 L -73.8815,-11.9088 L -74.1489,-11.3406 L -74.3429,-10.7434
 L -74.4606,-10.1267 L -74.5,-9.5 L -74.5,9.5 L -74.4606,10.1267 L -74.3429,10.7434 L -74.1489,11.3406
 L -73.8815,11.9088 L -73.5451,12.4389 L -73.1448,12.9227 L -72.6871,13.3526 L -72.1791,13.7216 L -71.6289,14.0241
 L -71.0451,14.2553 L -70.4369,14.4114 L -69.8139,14.4901 L 69.8139,14.4901 z
M 55.2779,11.4773 L 53.8451,11.2963 L 52.4463,10.9371 L 51.1035,10.4055 L 49.838,9.70976 L 48.6696,8.8609
 L 47.6169,7.87228 L 46.6963,6.75952 L 45.9225,5.54016 L 45.3076,4.23343 L 44.8613,2.85992 L 44.5907,1.44133
 L 44.5,-0 L 44.5907,-1.44133 L 44.8613,-2.85992 L 45.3076,-4.23343 L 45.9225,-5.54016 L 46.6963,-6.75952
 L 47.6169,-7.87228 L 48.6696,-8.8609 L 49.838,-9.70976 L 51.1035,-10.4055 L 52.4463,-10.9371 L 53.8451,-11.2963
 L 55.2779,-11.4773 L 56.7221,-11.4773 L 58.1549,-11.2963 L 59.5537,-10.9371 L 60.8965,-10.4055 L 62.162,-9.70976
 L 63.3304,-8.8609 L 64.3831,-7.87228 L 64.5135,-7.71469 L 64.5237,-7.87599 L 64.5943,-8.24606 L 64.7107,-8.60437
 L 64.8711,-8.94525 L 65.073,-9.26335 L 65.3131,-9.55363 L 65.5877,-9.81154 L 65.8925,-10.033 L 66.2227,-10.2145
 L 66.573,-10.3532 L 66.9379,-10.4469 L 67.3116,-10.4941 L 67.6884,-10.4941 L 68.0621,-10.4469 L 68.427,-10.3532
 L 68.7773,-10.2145 L 69.1075,-10.033 L 69.4123,-9.81154 L 69.6869,-9.55363 L 69.927,-9.26335 L 70.1289,-8.94525
 L 70.2893,-8.60437 L 70.4057,-8.24606 L 70.4763,-7.87599 L 70.5,-7.5 L 70.4763,-7.12399 L 70.4057,-6.75392
 L 70.2893,-6.39561 L 70.1289,-6.05473 L 69.927,-5.73663 L 69.6869,-5.44635 L 69.4123,-5.18845 L 69.1075,-4.96701
 L 68.7773,-4.78551 L 68.427,-4.64682 L 68.0621,-4.55313 L 67.6884,-4.50591 L 67.3116,-4.50591 L 66.9379,-4.55313
 L 66.573,-4.64682 L 66.4807,-4.68333 L 66.6924,-4.23343 L 67.1387,-2.85992 L 67.4093,-1.44133 L 67.5,-0
 L 67.4093,1.44133 L 67.1387,2.85992 L 66.6924,4.23343 L 66.4807,4.68333 L 66.573,4.64682 L 66.9379,4.55313
 L 67.3116,4.50591 L 67.6884,4.50591 L 68.0621,4.55313 L 68.427,4.64682 L 68.7773,4.78551 L 69.1075,4.96701
 L 69.4123,5.18845 L 69.6869,5.44635 L 69.927,5.73663 L 70.1289,6.05473 L 70.2893,6.39561 L 70.4057,6.75392
 L 70.4763,7.12399 L 70.5,7.5 L 70.4763,7.87599 L 70.4057,8.24606 L 70.2893,8.60437 L 70.1289,8.94525
 L 69.927,9.26335 L 69.6869,9.55363 L 69.4123,9.81154 L 69.1075,10.033 L 68.7773,10.2145 L 68.427,10.3532
 L 68.0621,10.4469 L 67.6884,10.4941 L 67.3116,10.4941 L 66.9379,10.4469 L 66.573,10.3532 L 66.2227,10.2145
 L 65.8925,10.033 L 65.5877,9.81154 L 65.3131,9.55363 L 65.073,9.26335 L 64.8711,8.94525 L 64.7107,8.60437
 L 64.5943,8.24606 L 64.5237,7.87599 L 64.5135,7.71469 L 64.3831,7.87228 L 63.3304,8.8609 L 62.162,9.70976
 L 60.8965,10.4055 L 59.5537,10.9371 L 58.1549,11.2963 L 56.7221,11.4773 z
M 27.2779,11.4773 L 25.8451,11.2963 L 24.4463,10.9371 L 23.1035,10.4055 L 21.838,9.70976 L 20.6696,8.8609
 L 19.6169,7.87228 L 18.6963,6.75952 L 17.9225,5.54016 L 17.3076,4.23343 L 16.8613,2.85992 L 16.5907,1.44133
 L 16.5,-0 L 16.5907,-1.44133 L 16.8613,-2.85992 L 17.3076,-4.23343 L 17.9225,-5.54016 L 18.6963,-6.75952
 L 19.6169,-7.87228 L 20.6696,-8.8609 L 21.838,-9.70976 L 23.1035,-10.4055 L 24.4463,-10.9371 L 25.8451,-11.2963
 L 27.2779,-11.4773 L 28.7221,-11.4773 L 30.1549,-11.2963 L 31.5537,-10.9371 L 32.8965,-10.4055 L 34.162,-9.70976
 L 35.3304,-8.8609 L 36.3831,-7.87228 L 37.3037,-6.75952 L 38.0775,-5.54016 L 38.6924,-4.23343 L 39.1387,-2.85992
 L 39.4093,-1.44133 L 39.5,-0 L 39.4093,1.44133 L 39.1387,2.85992 L 38.6924,4.23343 L 38.0775,5.54016
 L 37.3037,6.75952 L 36.3831,7.87228 L 35.3304,8.8609 L 34.162,9.70976 L 32.8965,10.4055 L 31.5537,10.9371
 L 30.1549,11.2963 L 28.7221,11.4773 z
M -28.7221,11.4773 L -30.1549,11.2963 L -31.5537,10.9371 L -32.8965,10.4055 L -34.162,9.70976 L -35.3304,8.8609
 L -36.3831,7.87228 L -37.3037,6.75952 L -38.0775,5.54016 L -38.6924,4.23343 L -39.1387,2.85992 L -39.4093,1.44133
 L -39.5,-0 L -39.4093,-1.44133 L -39.1387,-2.85992 L -38.6924,-4.23343 L -38.0775,-5.54016 L -37.3037,-6.75952
 L -36.3831,-7.87228 L -35.3304,-8.8609 L -34.162,-9.70976 L -32.8965,-10.4055 L -31.5537,-10.9371 L -30.1549,-11.2963
 L -28.7221,-11.4773 L -27.2779,-11.4773 L -25.8451,-11.2963 L -24.4463,-10.9371 L -23.1035,-10.4055 L -21.838,-9.70976
 L -20.6696,-8.8609 L -19.6169,-7.87228 L -18.6963,-6.75952 L -17.9225,-5.54016 L -17.3076,-4.23343 L -16.8613,-2.85992
 L -16.5907,-1.44133 L -16.5,-0 L -16.5907,1.44133 L -16.8613,2.85992 L -17.3076,4.23343 L -17.9225,5.54016
 L -18.6963,6.75952 L -19.6169,7.87228 L -20.6696,8.8609 L -21.838,9.70976 L -23.1035,10.4055 L -24.4463,10.9371
 L -25.8451,11.2963 L -27.2779,11.4773 z
M -56.7221,11.4773 L -58.1549,11.2963 L -59.5537,10.9371 L -60.8965,10.4055 L -62.162,9.70976 L -63.3304,8.8609
 L -64.3831,7.87228 L -64.5135,7.71469 L -64.5237,7.87599 L -64.5943,8.24606 L -64.7107,8.60437 L -64.8711,8.94525
 L -65.073,9.26335 L -65.3131,9.55363 L -65.5877,9.81154 L -65.8925,10.033 L -66.2227,10.2145 L -66.573,10.3532
 L -66.9379,10.4469 L -67.3116,10.4941 L -67.6884,10.4941 L -68.0621,10.4469 L -68.427,10.3532 L -68.7773,10.2145
 L -69.1075,10.033 L -69.4123,9.81154 L -69.6869,9.55363 L -69.927,9.26335 L -70.1289,8.94525 L -70.2893,8.60437
 L -70.4057,8.24606 L -70.4763,7.87599 L -70.5,7.5 L -70.4763,7.12399 L -70.4057,6.75392 L -70.2893,6.39561
 L -70.1289,6.05473 L -69.927,5.73663 L -69.6869,5.44635 L -69.4123,5.18845 L -69.1075,4.96701 L -68.7773,4.78551
 L -68.427,4.64682 L -68.0621,4.55313 L -67.6884,4.50591 L -67.3116,4.50591 L -66.9379,4.55313 L -66.573,4.64682
 L -66.4807,4.68333 L -66.6924,4.23343 L -67.1387,2.85992 L -67.4093,1.44133 L -67.5,-0 L -67.4093,-1.44133
 L -67.1387,-2.85992 L -66.6924,-4.23343 L -66.4807,-4.68333 L -66.573,-4.64682 L -66.9379,-4.55313 L -67.3116,-4.50591
 L -67.6884,-4.50591 L -68.0621,-4.55313 L -68.427,-4.64682 L -68.7773,-4.78551 L -69.1075,-4.96701 L -69.4123,-5.18845
 L -69.6869,-5.44635 L -69.927,-5.73663 L -70.1289,-6.05473 L -70.2893,-6.39561 L -70.4057,-6.75392 L -70.4763,-7.12399
 L -70.5,-7.5 L -70.4763,-7.87599 L -70.4057,-8.24606 L -70.2893,-8.60437 L -70.1289,-8.94525 L -69.927,-9.26335
 L -69.6869,-9.55363 L -69.4123,-9.81154 L -69.1075,-10.033 L -68.7773,-10.2145 L -68.427,-10.3532 L -68.0621,-10.4469
 L -67.6884,-10.4941 L -67.3116,-10.4941 L -66.9379,-10.4469 L -66.573,-10.3532 L -66.2227,-10.2145 L -65.8925,-10.033
 L -65.5877,-9.81154 L -65.3131,-9.55363 L -65.073,-9.26335 L -64.8711,-8.94525 L -64.7107,-8.60437 L -64.5943,-8.24606
 L -64.5237,-7.87599 L -64.5135,-7.71469 L -64.3831,-7.87228 L -63.3304,-8.8609 L -62.162,-9.70976 L -60.8965,-10.4055
 L -59.5537,-10.9371 L -58.1549,-11.2963 L -56.7221,-11.4773 L -55.2779,-11.4773 L -53.8451,-11.2963 L -52.4463,-10.9371
 L -51.1035,-10.4055 L -49.838,-9.70976 L -48.6696,-8.8609 L -47.6169,-7.87228 L -46.6963,-6.75952 L -45.9225,-5.54016
 L -45.3076,-4.23343 L -44.8613,-2.85992 L -44.5907,-1.44133 L -44.5,-0 L -44.5907,1.44133 L -44.8613,2.85992
 L -45.3076,4.23343 L -45.9225,5.54016 L -46.6963,6.75952 L -47.6169,7.87228 L -48.6696,8.8609 L -49.838,9.70976
 L -51.1035,10.4055 L -52.4463,10.9371 L -53.8451,11.2963 L -55.2779,11.4773 z
M -0.722076,11.4773 L -2.15488,11.2963 L -3.55368,10.9371 L -4.89645,10.4055 L -6.162,9.70976 L -7.33037,8.8609
 L -8.38313,7.87228 L -9.30368,6.75952 L -10.0775,5.54016 L -10.6924,4.23343 L -11.1387,2.85992 L -11.4093,1.44133
 L -11.5,-0 L -11.4093,-1.44133 L -11.1387,-2.85992 L -10.6924,-4.23343 L -10.0775,-5.54016 L -9.30368,-6.75952
 L -8.38313,-7.87228 L -7.33037,-8.8609 L -6.162,-9.70976 L -4.89645,-10.4055 L -3.55368,-10.9371 L -2.15488,-11.2963
 L -0.722076,-11.4773 L 0.722076,-11.4773 L 2.15488,-11.2963 L 3.55368,-10.9371 L 4.89645,-10.4055 L 6.162,-9.70976
 L 7.33037,-8.8609 L 8.38313,-7.87228 L 9.30368,-6.75952 L 10.0775,-5.54016 L 10.6924,-4.23343 L 11.1387,-2.85992
 L 11.4093,-1.44133 L 11.5,-0 L 11.4093,1.44133 L 11.1387,2.85992 L 10.6924,4.23343 L 10.0775,5.54016
 L 9.30368,6.75952 L 8.38313,7.87228 L 7.33037,8.8609 L 6.162,9.70976 L 4.89645,10.4055 L 3.55368,10.9371
 L 2.15488,11.2963 L 0.722076,11.4773 z
" stroke="black" fill="lightgray" stroke-width="0.5"/>
</svg>
