  0
SECTION
  2
BLOCKS
  0
ENDSEC
  0
SECTION
  2
ENTITIES
  0
LINE
  8
0
 10
70.4369
 20
-14.4114
 11
71.0451
 21
-14.2553
  0
LINE
  8
0
 10
71.0451
 20
-14.2553
 11
71.6289
 21
-14.0241
  0
LINE
  8
0
 10
71.6289
 20
-14.0241
 11
72.1791
 21
-13.7216
  0
LINE
  8
0
 10
72.1791
 20
-13.7216
 11
72.6871
 21
-13.3526
  0
LINE
  8
0
 10
72.6871
 20
-13.3526
 11
73.1448
 21
-12.9227
  0
LINE
  8
0
 10
73.1448
 20
-12.9227
 11
73.5451
 21
-12.4389
  0
LINE
  8
0
 10
73.5451
 20
-12.4389
 11
73.8815
 21
-11.9088
  0
LINE
  8
0
 10
73.8815
 20
-11.9088
 11
74.1489
 21
-11.3406
  0
LINE
  8
0
 10
74.1489
 20
-11.3406
 11
74.3429
 21
-10.7434
  0
LINE
  8
0
 10
74.3429
 20
-10.7434
 11
74.4606
 21
-10.1267
  0
LINE
  8
0
 10
74.4606
 20
-10.1267
 11
74.5
 21
-9.5
  0
LINE
  8
0
 10
74.5
 20
-9.5
 11
74.5
 21
9.5
  0
LINE
  8
0
 10
74.5
 20
9.5
 11
74.4606
 21
10.1267
  0
LINE
  8
0
 10
74.4606
 20
10.1267
 11
74.3429
 21
10.7434
  0
LINE
  8
0
 10
74.3429
 20
10.7434
 11
74.1489
 21
11.3406
  0
LINE
  8
0
 10
74.1489
 20
11.3406
 11
73.8815
 21
11.9088
  0
LINE
  8
0
 10
73.8815
 20
11.9088
 11
73.5451
 21
12.4389
  0
LINE
  8
0
 10
73.5451
 20
12.4389
 11
73.1448
 21
12.9227
  0
LINE
  8
0
 10
73.1448
 20
12.9227
 11
72.6871
 21
13.3526
  0
LINE
  8
0
 10
72.6871
 20
13.3526
 11
72.1791
 21
13.7216
  0
LINE
  8
0
 10
72.1791
 20
13.7216
 11
71.6289
 21
14.0241
  0
LINE
  8
0
 10
71.6289
 20
14.0241
 11
71.0451
 21
14.2553
  0
LINE
  8
0
 10
71.0451
 20
14.2553
 11
70.4369
 21
14.4114
  0
LINE
  8
0
 10
70.4369
 20
14.4114
 11
69.8139
 21
14.4901
  0
LINE
  8
0
 10
69.8139
 20
14.4901
 11
-69.8139
 21
14.4901
  0
LINE
  8
0
 10
-69.8139
 20
14.4901
 11
-70.4369
 21
14.4114
  0
LINE
  8
0
 10
-70.4369
 20
14.4114
 11
-71.0451
 21
14.2553
  0
LINE
  8
0
 10
-71.0451
 20
14.2553
 11
-71.6289
 21
14.0241
  0
LINE
  8
0
 10
-71.6289
 20
14.0241
 11
-72.1791
 21
13.7216
  0
LINE
  8
0
 10
-72.1791
 20
13.7216
 11
-72.6871
 21
13.3526
  0
LINE
  8
0
 10
-72.6871
 20
13.3526
 11
-73.1448
 21
12.9227
  0
LINE
  8
0
 10
-73.1448
 20
12.9227
 11
-73.5451
 21
12.4389
  0
LINE
  8
0
 10
-73.5451
 20
12.4389
 11
-73.8815
 21
11.9088
  0
LINE
  8
0
 10
-73.8815
 20
11.9088
 11
-74.1489
 21
11.3406
  0
LINE
  8
0
 10
-74.1489
 20
11.3406
 11
-74.3429
 21
10.7434
  0
LINE
  8
0
 10
-74.3429
 20
10.7434
 11
-74.4606
 21
10.1267
  0
LINE
  8
0
 10
-74.4606
 20
10.1267
 11
-74.5
 21
9.5
  0
LINE
  8
0
 10
-74.5
 20
9.5
 11
-74.5
 21
-9.5
  0
LINE
  8
0
 10
-74.5
 20
-9.5
 11
-74.4606
 21
-10.1267
  0
LINE
  8
0
 10
-74.4606
 20
-10.1267
 11
-74.3429
 21
-10.7434
  0
LINE
  8
0
 10
-74.3429
 20
-10.7434
 11
-74.1489
 21
-11.3406
  0
LINE
  8
0
 10
-74.1489
 20
-11.3406
 11
-73.8815
 21
-11.9088
  0
LINE
  8
0
 10
-73.8815
 20
-11.9088
 11
-73.5451
 21
-12.4389
  0
LINE
  8
0
 10
-73.5451
 20
-12.4389
 11
-73.1448
 21
-12.9227
  0
LINE
  8
0
 10
-73.1448
 20
-12.9227
 11
-72.6871
 21
-13.3526
  0
LINE
  8
0
 10
-72.6871
 20
-13.3526
 11
-72.1791
 21
-13.7216
  0
LINE
  8
0
 10
-72.1791
 20
-13.7216
 11
-71.6289
 21
-14.0241
  0
LINE
  8
0
 10
-71.6289
 20
-14.0241
 11
-71.0451
 21
-14.2553
  0
LINE
  8
0
 10
-71.0451
 20
-14.2553
 11
-70.4369
 21
-14.4114
  0
LINE
  8
0
 10
-70.4369
 20
-14.4114
 11
-69.8139
 21
-14.4901
  0
LINE
  8
0
 10
-69.8139
 20
-14.4901
 11
69.8139
 21
-14.4901
  0
LINE
  8
0
 10
69.8139
 20
-14.4901
 11
70.4369
 21
-14.4114
  0
LINE
  8
0
 10
-67.6884
 20
4.50591
 11
-68.0621
 21
4.55313
  0
LINE
  8
0
 10
-68.0621
 20
4.55313
 11
-68.427
 21
4.64682
  0
LINE
  8
0
 10
-68.427
 20
4.64682
 11
-68.7773
 21
4.78551
  0
LINE
  8
0
 10
-68.7773
 20
4.78551
 11
-69.1075
 21
4.96701
  0
LINE
  8
0
 10
-69.1075
 20
4.96701
 11
-69.4123
 21
5.18845
  0
LINE
  8
0
 10
-69.4123
 20
5.18845
 11
-69.6869
 21
5.44635
  0
LINE
  8
0
 10
-69.6869
 20
5.44635
 11
-69.927
 21
5.73663
  0
LINE
  8
0
 10
-69.927
 20
5.73663
 11
-70.1289
 21
6.05473
  0
LINE
  8
0
 10
-70.1289
 20
6.05473
 11
-70.2893
 21
6.39561
  0
LINE
  8
0
 10
-70.2893
 20
6.39561
 11
-70.4057
 21
6.75392
  0
LINE
  8
0
 10
-70.4057
 20
6.75392
 11
-70.4763
 21
7.12399
  0
LINE
  8
0
 10
-70.4763
 20
7.12399
 11
-70.5
 21
7.5
  0
LINE
  8
0
 10
-70.5
 20
7.5
 11
-70.4763
 21
7.87599
  0
LINE
  8
0
 10
-70.4763
 20
7.87599
 11
-70.4057
 21
8.24606
  0
LINE
  8
0
 10
-70.4057
 20
8.24606
 11
-70.2893
 21
8.60437
  0
LINE
  8
0
 10
-70.2893
 20
8.60437
 11
-70.1289
 21
8.94525
  0
LINE
  8
0
 10
-70.1289
 20
8.94525
 11
-69.927
 21
9.26335
  0
LINE
  8
0
 10
-69.927
 20
9.26335
 11
-69.6869
 21
9.55363
  0
LINE
  8
0
 10
-69.6869
 20
9.55363
 11
-69.4123
 21
9.81154
  0
LINE
  8
0
 10
-69.4123
 20
9.81154
 11
-69.1075
 21
10.033
  0
LINE
  8
0
 10
-69.1075
 20
10.033
 11
-68.7773
 21
10.2145
  0
LINE
  8
0
 10
-68.7773
 20
10.2145
 11
-68.427
 21
10.3532
  0
LINE
  8
0
 10
-68.427
 20
10.3532
 11
-68.0621
 21
10.4469
  0
LINE
  8
0
 10
-68.0621
 20
10.4469
 11
-67.6884
 21
10.4941
  0
LINE
  8
0
 10
-67.6884
 20
10.4941
 11
-67.3116
 21
10.4941
  0
LINE
  8
0
 10
-67.3116
 20
10.4941
 11
-66.9379
 21
10.4469
  0
LINE
  8
0
 10
-66.9379
 20
10.4469
 11
-66.573
 21
10.3532
  0
LINE
  8
0
 10
-66.573
 20
10.3532
 11
-66.2227
 21
10.2145
  0
LINE
  8
0
 10
-66.2227
 20
10.2145
 11
-65.8925
 21
10.033
  0
LINE
  8
0
 10
-65.8925
 20
10.033
 11
-65.5877
 21
9.81154
  0
LINE
  8
0
 10
-65.5877
 20
9.81154
 11
-65.3131
 21
9.55363
  0
LINE
  8
0
 10
-65.3131
 20
9.55363
 11
-65.073
 21
9.26335
  0
LINE
  8
0
 10
-65.073
 20
9.26335
 11
-64.8711
 21
8.94525
  0
LINE
  8
0
 10
-64.8711
 20
8.94525
 11
-64.7107
 21
8.60437
  0
LINE
  8
0
 10
-64.7107
 20
8.60437
 11
-64.5943
 21
8.24606
  0
LINE
  8
0
 10
-64.5943
 20
8.24606
 11
-64.5237
 21
7.87599
  0
LINE
  8
0
 10
-64.5237
 20
7.87599
 11
-64.5
 21
7.5
  0
LINE
  8
0
 10
-64.5
 20
7.5
 11
-64.5237
 21
7.12399
  0
LINE
  8
0
 10
-64.5237
 20
7.12399
 11
-64.5943
 21
6.75392
  0
LINE
  8
0
 10
-64.5943
 20
6.75392
 11
-64.7107
 21
6.39561
  0
LINE
  8
0
 10
-64.7107
 20
6.39561
 11
-64.8711
 21
6.05473
  0
LINE
  8
0
 10
-64.8711
 20
6.05473
 11
-65.073
 21
5.73663
  0
LINE
  8
0
 10
-65.073
 20
5.73663
 11
-65.3131
 21
5.44635
  0
LINE
  8
0
 10
-65.3131
 20
5.44635
 11
-65.5877
 21
5.18845
  0
LINE
  8
0
 10
-65.5877
 20
5.18845
 11
-65.8925
 21
4.96701
  0
LINE
  8
0
 10
-65.8925
 20
4.96701
 11
-66.2227
 21
4.78551
  0
LINE
  8
0
 10
-66.2227
 20
4.78551
 11
-66.573
 21
4.64682
  0
LINE
  8
0
 10
-66.573
 20
4.64682
 11
-66.9379
 21
4.55313
  0
LINE
  8
0
 10
-66.9379
 20
4.55313
 11
-67.3116
 21
4.50591
  0
LINE
  8
0
 10
-67.3116
 20
4.50591
 11
-67.6884
 21
4.50591
  0
LINE
  8
0
 10
67.3116
 20
4.50591
 11
66.9379
 21
4.55313
  0
LINE
  8
0
 10
66.9379
 20
4.55313
 11
66.573
 21
4.64682
  0
LINE
  8
0
 10
66.573
 20
4.64682
 11
66.2227
 21
4.78551
  0
LINE
  8
0
 10
66.2227
 20
4.78551
 11
65.8925
 21
4.96701
  0
LINE
  8
0
 10
65.8925
 20
4.96701
 11
65.5877
 21
5.18845
  0
LINE
  8
0
 10
65.5877
 20
5.18845
 11
65.3131
 21
5.44635
  0
LINE
  8
0
 10
65.3131
 20
5.44635
 11
65.073
 21
5.73663
  0
LINE
  8
0
 10
65.073
 20
5.73663
 11
64.8711
 21
6.05473
  0
LINE
  8
0
 10
64.8711
 20
6.05473
 11
64.7107
 21
6.39561
  0
LINE
  8
0
 10
64.7107
 20
6.39561
 11
64.5943
 21
6.75392
  0
LINE
  8
0
 10
64.5943
 20
6.75392
 11
64.5237
 21
7.12399
  0
LINE
  8
0
 10
64.5237
 20
7.12399
 11
64.5
 21
7.5
  0
LINE
  8
0
 10
64.5
 20
7.5
 11
64.5237
 21
7.87599
  0
LINE
  8
0
 10
64.5237
 20
7.87599
 11
64.5943
 21
8.24606
  0
LINE
  8
0
 10
64.5943
 20
8.24606
 11
64.7107
 21
8.60437
  0
LINE
  8
0
 10
64.7107
 20
8.60437
 11
64.8711
 21
8.94525
  0
LINE
  8
0
 10
64.8711
 20
8.94525
 11
65.073
 21
9.26335
  0
LINE
  8
0
 10
65.073
 20
9.26335
 11
65.3131
 21
9.55363
  0
LINE
  8
0
 10
65.3131
 20
9.55363
 11
65.5877
 21
9.81154
  0
LINE
  8
0
 10
65.5877
 20
9.81154
 11
65.8925
 21
10.033
  0
LINE
  8
0
 10
65.8925
 20
10.033
 11
66.2227
 21
10.2145
  0
LINE
  8
0
 10
66.2227
 20
10.2145
 11
66.573
 21
10.3532
  0
LINE
  8
0
 10
66.573
 20
10.3532
 11
66.9379
 21
10.4469
  0
LINE
  8
0
 10
66.9379
 20
10.4469
 11
67.3116
 21
10.4941
  0
LINE
  8
0
 10
67.3116
 20
10.4941
 11
67.6884
 21
10.4941
  0
LINE
  8
0
 10
67.6884
 20
10.4941
 11
68.0621
 21
10.4469
  0
LINE
  8
0
 10
68.0621
 20
10.4469
 11
68.427
 21
10.3532
  0
LINE
  8
0
 10
68.427
 20
10.3532
 11
68.7773
 21
10.2145
  0
LINE
  8
0
 10
68.7773
 20
10.2145
 11
69.1075
 21
10.033
  0
LINE
  8
0
 10
69.1075
 20
10.033
 11
69.4123
 21
9.81154
  0
LINE
  8
0
 10
69.4123
 20
9.81154
 11
69.6869
 21
9.55363
  0
LINE
  8
0
 10
69.6869
 20
9.55363
 11
69.927
 21
9.26335
  0
LINE
  8
0
 10
69.927
 20
9.26335
 11
70.1289
 21
8.94525
  0
LINE
  8
0
 10
70.1289
 20
8.94525
 11
70.2893
 21
8.60437
  0
LINE
  8
0
 10
70.2893
 20
8.60437
 11
70.4057
 21
8.24606
  0
LINE
  8
0
 10
70.4057
 20
8.24606
 11
70.4763
 21
7.87599
  0
LINE
  8
0
 10
70.4763
 20
7.87599
 11
70.5
 21
7.5
  0
LINE
  8
0
 10
70.5
 20
7.5
 11
70.4763
 21
7.12399
  0
LINE
  8
0
 10
70.4763
 20
7.12399
 11
70.4057
 21
6.75392
  0
LINE
  8
0
 10
70.4057
 20
6.75392
 11
70.2893
 21
6.39561
  0
LINE
  8
0
 10
70.2893
 20
6.39561
 11
70.1289
 21
6.05473
  0
LINE
  8
0
 10
70.1289
 20
6.05473
 11
69.927
 21
5.73663
  0
LINE
  8
0
 10
69.927
 20
5.73663
 11
69.6869
 21
5.44635
  0
LINE
  8
0
 10
69.6869
 20
5.44635
 11
69.4123
 21
5.18845
  0
LINE
  8
0
 10
69.4123
 20
5.18845
 11
69.1075
 21
4.96701
  0
LINE
  8
0
 10
69.1075
 20
4.96701
 11
68.7773
 21
4.78551
  0
LINE
  8
0
 10
68.7773
 20
4.78551
 11
68.427
 21
4.64682
  0
LINE
  8
0
 10
68.427
 20
4.64682
 11
68.0621
 21
4.55313
  0
LINE
  8
0
 10
68.0621
 20
4.55313
 11
67.6884
 21
4.50591
  0
LINE
  8
0
 10
67.6884
 20
4.50591
 11
67.3116
 21
4.50591
  0
LINE
  8
0
 10
51.3407
 20
-10.4793
 11
50.0325
 21
-10.314
  0
LINE
  8
0
 10
50.0325
 20
-10.314
 11
48.7553
 21
-9.98608
  0
LINE
  8
0
 10
48.7553
 20
-9.98608
 11
47.5293
 21
-9.50067
  0
LINE
  8
0
 10
47.5293
 20
-9.50067
 11
46.3738
 21
-8.86543
  0
LINE
  8
0
 10
46.3738
 20
-8.86543
 11
45.307
 21
-8.09038
  0
LINE
  8
0
 10
45.307
 20
-8.09038
 11
44.3458
 21
-7.18774
  0
LINE
  8
0
 10
44.3458
 20
-7.18774
 11
43.5053
 21
-6.17174
  0
LINE
  8
0
 10
43.5053
 20
-6.17174
 11
42.7988
 21
-5.05841
  0
LINE
  8
0
 10
42.7988
 20
-5.05841
 11
42.2373
 21
-3.8653
  0
LINE
  8
0
 10
42.2373
 20
-3.8653
 11
41.8299
 21
-2.61124
  0
LINE
  8
0
 10
41.8299
 20
-2.61124
 11
41.5828
 21
-1.31599
  0
LINE
  8
0
 10
41.5828
 20
-1.31599
 11
41.5
 21
0
  0
LINE
  8
0
 10
41.5
 20
0
 11
41.5828
 21
1.31599
  0
LINE
  8
0
 10
41.5828
 20
1.31599
 11
41.8299
 21
2.61124
  0
LINE
  8
0
 10
41.8299
 20
2.61124
 11
42.2373
 21
3.8653
  0
LINE
  8
0
 10
42.2373
 20
3.8653
 11
42.7988
 21
5.05841
  0
LINE
  8
0
 10
42.7988
 20
5.05841
 11
43.5053
 21
6.17174
  0
LINE
  8
0
 10
43.5053
 20
6.17174
 11
44.3458
 21
7.18774
  0
LINE
  8
0
 10
44.3458
 20
7.18774
 11
45.307
 21
8.09038
  0
LINE
  8
0
 10
45.307
 20
8.09038
 11
46.3738
 21
8.86543
  0
LINE
  8
0
 10
46.3738
 20
8.86543
 11
47.5293
 21
9.50067
  0
LINE
  8
0
 10
47.5293
 20
9.50067
 11
48.7553
 21
9.98608
  0
LINE
  8
0
 10
48.7553
 20
9.98608
 11
50.0325
 21
10.314
  0
LINE
  8
0
 10
50.0325
 20
10.314
 11
51.3407
 21
10.4793
  0
LINE
  8
0
 10
51.3407
 20
10.4793
 11
52.6593
 21
10.4793
  0
LINE
  8
0
 10
52.6593
 20
10.4793
 11
53.9675
 21
10.314
  0
LINE
  8
0
 10
53.9675
 20
10.314
 11
55.2447
 21
9.98608
  0
LINE
  8
0
 10
55.2447
 20
9.98608
 11
56.4707
 21
9.50067
  0
LINE
  8
0
 10
56.4707
 20
9.50067
 11
57.6262
 21
8.86543
  0
LINE
  8
0
 10
57.6262
 20
8.86543
 11
58.6929
 21
8.09038
  0
LINE
  8
0
 10
58.6929
 20
8.09038
 11
59.6542
 21
7.18774
  0
LINE
  8
0
 10
59.6542
 20
7.18774
 11
60.4947
 21
6.17174
  0
LINE
  8
0
 10
60.4947
 20
6.17174
 11
61.2012
 21
5.05841
  0
LINE
  8
0
 10
61.2012
 20
5.05841
 11
61.7626
 21
3.8653
  0
LINE
  8
0
 10
61.7626
 20
3.8653
 11
62.1701
 21
2.61124
  0
LINE
  8
0
 10
62.1701
 20
2.61124
 11
62.4172
 21
1.31599
  0
LINE
  8
0
 10
62.4172
 20
1.31599
 11
62.5
 21
0
  0
LINE
  8
0
 10
62.5
 20
0
 11
62.4172
 21
-1.31599
  0
LINE
  8
0
 10
62.4172
 20
-1.31599
 11
62.1701
 21
-2.61124
  0
LINE
  8
0
 10
62.1701
 20
-2.61124
 11
61.7626
 21
-3.8653
  0
LINE
  8
0
 10
61.7626
 20
-3.8653
 11
61.2012
 21
-5.05841
  0
LINE
  8
0
 10
61.2012
 20
-5.05841
 11
60.4947
 21
-6.17174
  0
LINE
  8
0
 10
60.4947
 20
-6.17174
 11
59.6542
 21
-7.18774
  0
LINE
  8
0
 10
59.6542
 20
-7.18774
 11
58.6929
 21
-8.09038
  0
LINE
  8
0
 10
58.6929
 20
-8.09038
 11
57.6262
 21
-8.86543
  0
LINE
  8
0
 10
57.6262
 20
-8.86543
 11
56.4707
 21
-9.50067
  0
LINE
  8
0
 10
56.4707
 20
-9.50067
 11
55.2447
 21
-9.98608
  0
LINE
  8
0
 10
55.2447
 20
-9.98608
 11
53.9675
 21
-10.314
  0
LINE
  8
0
 10
53.9675
 20
-10.314
 11
52.6593
 21
-10.4793
  0
LINE
  8
0
 10
52.6593
 20
-10.4793
 11
51.3407
 21
-10.4793
  0
LINE
  8
0
 10
-52.6593
 20
-10.4793
 11
-53.9675
 21
-10.314
  0
LINE
  8
0
 10
-53.9675
 20
-10.314
 11
-55.2447
 21
-9.98608
  0
LINE
  8
0
 10
-55.2447
 20
-9.98608
 11
-56.4707
 21
-9.50067
  0
LINE
  8
0
 10
-56.4707
 20
-9.50067
 11
-57.6262
 21
-8.86543
  0
LINE
  8
0
 10
-57.6262
 20
-8.86543
 11
-58.6929
 21
-8.09038
  0
LINE
  8
0
 10
-58.6929
 20
-8.09038
 11
-59.6542
 21
-7.18774
  0
LINE
  8
0
 10
-59.6542
 20
-7.18774
 11
-60.4947
 21
-6.17174
  0
LINE
  8
0
 10
-60.4947
 20
-6.17174
 11
-61.2012
 21
-5.05841
  0
LINE
  8
0
 10
-61.2012
 20
-5.05841
 11
-61.7626
 21
-3.8653
  0
LINE
  8
0
 10
-61.7626
 20
-3.8653
 11
-62.1701
 21
-2.61124
  0
LINE
  8
0
 10
-62.1701
 20
-2.61124
 11
-62.4172
 21
-1.31599
  0
LINE
  8
0
 10
-62.4172
 20
-1.31599
 11
-62.5
 21
0
  0
LINE
  8
0
 10
-62.5
 20
0
 11
-62.4172
 21
1.31599
  0
LINE
  8
0
 10
-62.4172
 20
1.31599
 11
-62.1701
 21
2.61124
  0
LINE
  8
0
 10
-62.1701
 20
2.61124
 11
-61.7626
 21
3.8653
  0
LINE
  8
0
 10
-61.7626
 20
3.8653
 11
-61.2012
 21
5.05841
  0
LINE
  8
0
 10
-61.2012
 20
5.05841
 11
-60.4947
 21
6.17174
  0
LINE
  8
0
 10
-60.4947
 20
6.17174
 11
-59.6542
 21
7.18774
  0
LINE
  8
0
 10
-59.6542
 20
7.18774
 11
-58.6929
 21
8.09038
  0
LINE
  8
0
 10
-58.6929
 20
8.09038
 11
-57.6262
 21
8.86543
  0
LINE
  8
0
 10
-57.6262
 20
8.86543
 11
-56.4707
 21
9.50067
  0
LINE
  8
0
 10
-56.4707
 20
9.50067
 11
-55.2447
 21
9.98608
  0
LINE
  8
0
 10
-55.2447
 20
9.98608
 11
-53.9675
 21
10.314
  0
LINE
  8
0
 10
-53.9675
 20
10.314
 11
-52.6593
 21
10.4793
  0
LINE
  8
0
 10
-52.6593
 20
10.4793
 11
-51.3407
 21
10.4793
  0
LINE
  8
0
 10
-51.3407
 20
10.4793
 11
-50.0325
 21
10.314
  0
LINE
  8
0
 10
-50.0325
 20
10.314
 11
-48.7553
 21
9.98608
  0
LINE
  8
0
 10
-48.7553
 20
9.98608
 11
-47.5293
 21
9.50067
  0
LINE
  8
0
 10
-47.5293
 20
9.50067
 11
-46.3738
 21
8.86543
  0
LINE
  8
0
 10
-46.3738
 20
8.86543
 11
-45.307
 21
8.09038
  0
LINE
  8
0
 10
-45.307
 20
8.09038
 11
-44.3458
 21
7.18774
  0
LINE
  8
0
 10
-44.3458
 20
7.18774
 11
-43.5053
 21
6.17174
  0
LINE
  8
0
 10
-43.5053
 20
6.17174
 11
-42.7988
 21
5.05841
  0
LINE
  8
0
 10
-42.7988
 20
5.05841
 11
-42.2373
 21
3.8653
  0
LINE
  8
0
 10
-42.2373
 20
3.8653
 11
-41.8299
 21
2.61124
  0
LINE
  8
0
 10
-41.8299
 20
2.61124
 11
-41.5828
 21
1.31599
  0
LINE
  8
0
 10
-41.5828
 20
1.31599
 11
-41.5
 21
0
  0
LINE
  8
0
 10
-41.5
 20
0
 11
-41.5828
 21
-1.31599
  0
LINE
  8
0
 10
-41.5828
 20
-1.31599
 11
-41.8299
 21
-2.61124
  0
LINE
  8
0
 10
-41.8299
 20
-2.61124
 11
-42.2373
 21
-3.8653
  0
LINE
  8
0
 10
-42.2373
 20
-3.8653
 11
-42.7988
 21
-5.05841
  0
LINE
  8
0
 10
-42.7988
 20
-5.05841
 11
-43.5053
 21
-6.17174
  0
LINE
  8
0
 10
-43.5053
 20
-6.17174
 11
-44.3458
 21
-7.18774
  0
LINE
  8
0
 10
-44.3458
 20
-7.18774
 11
-45.307
 21
-8.09038
  0
LINE
  8
0
 10
-45.307
 20
-8.09038
 11
-46.3738
 21
-8.86543
  0
LINE
  8
0
 10
-46.3738
 20
-8.86543
 11
-47.5293
 21
-9.50067
  0
LINE
  8
0
 10
-47.5293
 20
-9.50067
 11
-48.7553
 21
-9.98608
  0
LINE
  8
0
 10
-48.7553
 20
-9.98608
 11
-50.0325
 21
-10.314
  0
LINE
  8
0
 10
-50.0325
 20
-10.314
 11
-51.3407
 21
-10.4793
  0
LINE
  8
0
 10
-51.3407
 20
-10.4793
 11
-52.6593
 21
-10.4793
  0
LINE
  8
0
 10
25.3407
 20
-10.4793
 11
24.0325
 21
-10.314
  0
LINE
  8
0
 10
24.0325
 20
-10.314
 11
22.7553
 21
-9.98608
  0
LINE
  8
0
 10
22.7553
 20
-9.98608
 11
21.5293
 21
-9.50067
  0
LINE
  8
0
 10
21.5293
 20
-9.50067
 11
20.3738
 21
-8.86543
  0
LINE
  8
0
 10
20.3738
 20
-8.86543
 11
19.307
 21
-8.09038
  0
LINE
  8
0
 10
19.307
 20
-8.09038
 11
18.3458
 21
-7.18774
  0
LINE
  8
0
 10
18.3458
 20
-7.18774
 11
17.5053
 21
-6.17174
  0
LINE
  8
0
 10
17.5053
 20
-6.17174
 11
16.7988
 21
-5.05841
  0
LINE
  8
0
 10
16.7988
 20
-5.05841
 11
16.2373
 21
-3.8653
  0
LINE
  8
0
 10
16.2373
 20
-3.8653
 11
15.8299
 21
-2.61124
  0
LINE
  8
0
 10
15.8299
 20
-2.61124
 11
15.5828
 21
-1.31599
  0
LINE
  8
0
 10
15.5828
 20
-1.31599
 11
15.5
 21
0
  0
LINE
  8
0
 10
15.5
 20
0
 11
15.5828
 21
1.31599
  0
LINE
  8
0
 10
15.5828
 20
1.31599
 11
15.8299
 21
2.61124
  0
LINE
  8
0
 10
15.8299
 20
2.61124
 11
16.2373
 21
3.8653
  0
LINE
  8
0
 10
16.2373
 20
3.8653
 11
16.7988
 21
5.05841
  0
LINE
  8
0
 10
16.7988
 20
5.05841
 11
17.5053
 21
6.17174
  0
LINE
  8
0
 10
17.5053
 20
6.17174
 11
18.3458
 21
7.18774
  0
LINE
  8
0
 10
18.3458
 20
7.18774
 11
19.307
 21
8.09038
  0
LINE
  8
0
 10
19.307
 20
8.09038
 11
20.3738
 21
8.86543
  0
LINE
  8
0
 10
20.3738
 20
8.86543
 11
21.5293
 21
9.50067
  0
LINE
  8
0
 10
21.5293
 20
9.50067
 11
22.7553
 21
9.98608
  0
LINE
  8
0
 10
22.7553
 20
9.98608
 11
24.0325
 21
10.314
  0
LINE
  8
0
 10
24.0325
 20
10.314
 11
25.3407
 21
10.4793
  0
LINE
  8
0
 10
25.3407
 20
10.4793
 11
26.6593
 21
10.4793
  0
LINE
  8
0
 10
26.6593
 20
10.4793
 11
27.9675
 21
10.314
  0
LINE
  8
0
 10
27.9675
 20
10.314
 11
29.2447
 21
9.98608
  0
LINE
  8
0
 10
29.2447
 20
9.98608
 11
30.4707
 21
9.50067
  0
LINE
  8
0
 10
30.4707
 20
9.50067
 11
31.6262
 21
8.86543
  0
LINE
  8
0
 10
31.6262
 20
8.86543
 11
32.6929
 21
8.09038
  0
LINE
  8
0
 10
32.6929
 20
8.09038
 11
33.6542
 21
7.18774
  0
LINE
  8
0
 10
33.6542
 20
7.18774
 11
34.4947
 21
6.17174
  0
LINE
  8
0
 10
34.4947
 20
6.17174
 11
35.2012
 21
5.05841
  0
LINE
  8
0
 10
35.2012
 20
5.05841
 11
35.7626
 21
3.8653
  0
LINE
  8
0
 10
35.7626
 20
3.8653
 11
36.1701
 21
2.61124
  0
LINE
  8
0
 10
36.1701
 20
2.61124
 11
36.4172
 21
1.31599
  0
LINE
  8
0
 10
36.4172
 20
1.31599
 11
36.5
 21
0
  0
LINE
  8
0
 10
36.5
 20
0
 11
36.4172
 21
-1.31599
  0
LINE
  8
0
 10
36.4172
 20
-1.31599
 11
36.1701
 21
-2.61124
  0
LINE
  8
0
 10
36.1701
 20
-2.61124
 11
35.7626
 21
-3.8653
  0
LINE
  8
0
 10
35.7626
 20
-3.8653
 11
35.2012
 21
-5.05841
  0
LINE
  8
0
 10
35.2012
 20
-5.05841
 11
34.4947
 21
-6.17174
  0
LINE
  8
0
 10
34.4947
 20
-6.17174
 11
33.6542
 21
-7.18774
  0
LINE
  8
0
 10
33.6542
 20
-7.18774
 11
32.6929
 21
-8.09038
  0
LINE
  8
0
 10
32.6929
 20
-8.09038
 11
31.6262
 21
-8.86543
  0
LINE
  8
0
 10
31.6262
 20
-8.86543
 11
30.4707
 21
-9.50067
  0
LINE
  8
0
 10
30.4707
 20
-9.50067
 11
29.2447
 21
-9.98608
  0
LINE
  8
0
 10
29.2447
 20
-9.98608
 11
27.9675
 21
-10.314
  0
LINE
  8
0
 10
27.9675
 20
-10.314
 11
26.6593
 21
-10.4793
  0
LINE
  8
0
 10
26.6593
 20
-10.4793
 11
25.3407
 21
-10.4793
  0
LINE
  8
0
 10
-26.6593
 20
-10.4793
 11
-27.9675
 21
-10.314
  0
LINE
  8
0
 10
-27.9675
 20
-10.314
 11
-29.2447
 21
-9.98608
  0
LINE
  8
0
 10
-29.2447
 20
-9.98608
 11
-30.4707
 21
-9.50067
  0
LINE
  8
0
 10
-30.4707
 20
-9.50067
 11
-31.6262
 21
-8.86543
  0
LINE
  8
0
 10
-31.6262
 20
-8.86543
 11
-32.6929
 21
-8.09038
  0
LINE
  8
0
 10
-32.6929
 20
-8.09038
 11
-33.6542
 21
-7.18774
  0
LINE
  8
0
 10
-33.6542
 20
-7.18774
 11
-34.4947
 21
-6.17174
  0
LINE
  8
0
 10
-34.4947
 20
-6.17174
 11
-35.2012
 21
-5.05841
  0
LINE
  8
0
 10
-35.2012
 20
-5.05841
 11
-35.7626
 21
-3.8653
  0
LINE
  8
0
 10
-35.7626
 20
-3.8653
 11
-36.1701
 21
-2.61124
  0
LINE
  8
0
 10
-36.1701
 20
-2.61124
 11
-36.4172
 21
-1.31599
  0
LINE
  8
0
 10
-36.4172
 20
-1.31599
 11
-36.5
 21
0
  0
LINE
  8
0
 10
-36.5
 20
0
 11
-36.4172
 21
1.31599
  0
LINE
  8
0
 10
-36.4172
 20
1.31599
 11
-36.1701
 21
2.61124
  0
LINE
  8
0
 10
-36.1701
 20
2.61124
 11
-35.7626
 21
3.8653
  0
LINE
  8
0
 10
-35.7626
 20
3.8653
 11
-35.2012
 21
5.05841
  0
LINE
  8
0
 10
-35.2012
 20
5.05841
 11
-34.4947
 21
6.17174
  0
LINE
  8
0
 10
-34.4947
 20
6.17174
 11
-33.6542
 21
7.18774
  0
LINE
  8
0
 10
-33.6542
 20
7.18774
 11
-32.6929
 21
8.09038
  0
LINE
  8
0
 10
-32.6929
 20
8.09038
 11
-31.6262
 21
8.86543
  0
LINE
  8
0
 10
-31.6262
 20
8.86543
 11
-30.4707
 21
9.50067
  0
LINE
  8
0
 10
-30.4707
 20
9.50067
 11
-29.2447
 21
9.98608
  0
LINE
  8
0
 10
-29.2447
 20
9.98608
 11
-27.9675
 21
10.314
  0
LINE
  8
0
 10
-27.9675
 20
10.314
 11
-26.6593
 21
10.4793
  0
LINE
  8
0
 10
-26.6593
 20
10.4793
 11
-25.3407
 21
10.4793
  0
LINE
  8
0
 10
-25.3407
 20
10.4793
 11
-24.0325
 21
10.314
  0
LINE
  8
0
 10
-24.0325
 20
10.314
 11
-22.7553
 21
9.98608
  0
LINE
  8
0
 10
-22.7553
 20
9.98608
 11
-21.5293
 21
9.50067
  0
LINE
  8
0
 10
-21.5293
 20
9.50067
 11
-20.3738
 21
8.86543
  0
LINE
  8
0
 10
-20.3738
 20
8.86543
 11
-19.307
 21
8.09038
  0
LINE
  8
0
 10
-19.307
 20
8.09038
 11
-18.3458
 21
7.18774
  0
LINE
  8
0
 10
-18.3458
 20
7.18774
 11
-17.5053
 21
6.17174
  0
LINE
  8
0
 10
-17.5053
 20
6.17174
 11
-16.7988
 21
5.05841
  0
LINE
  8
0
 10
-16.7988
 20
5.05841
 11
-16.2373
 21
3.8653
  0
LINE
  8
0
 10
-16.2373
 20
3.8653
 11
-15.8299
 21
2.61124
  0
LINE
  8
0
 10
-15.8299
 20
2.61124
 11
-15.5828
 21
1.31599
  0
LINE
  8
0
 10
-15.5828
 20
1.31599
 11
-15.5
 21
0
  0
LINE
  8
0
 10
-15.5
 20
0
 11
-15.5828
 21
-1.31599
  0
LINE
  8
0
 10
-15.5828
 20
-1.31599
 11
-15.8299
 21
-2.61124
  0
LINE
  8
0
 10
-15.8299
 20
-2.61124
 11
-16.2373
 21
-3.8653
  0
LINE
  8
0
 10
-16.2373
 20
-3.8653
 11
-16.7988
 21
-5.05841
  0
LINE
  8
0
 10
-16.7988
 20
-5.05841
 11
-17.5053
 21
-6.17174
  0
LINE
  8
0
 10
-17.5053
 20
-6.17174
 11
-18.3458
 21
-7.18774
  0
LINE
  8
0
 10
-18.3458
 20
-7.18774
 11
-19.307
 21
-8.09038
  0
LINE
  8
0
 10
-19.307
 20
-8.09038
 11
-20.3738
 21
-8.86543
  0
LINE
  8
0
 10
-20.3738
 20
-8.86543
 11
-21.5293
 21
-9.50067
  0
LINE
  8
0
 10
-21.5293
 20
-9.50067
 11
-22.7553
 21
-9.98608
  0
LINE
  8
0
 10
-22.7553
 20
-9.98608
 11
-24.0325
 21
-10.314
  0
LINE
  8
0
 10
-24.0325
 20
-10.314
 11
-25.3407
 21
-10.4793
  0
LINE
  8
0
 10
-25.3407
 20
-10.4793
 11
-26.6593
 21
-10.4793
  0
LINE
  8
0
 10
-0.659286
 20
-10.4793
 11
-1.9675
 21
-10.314
  0
LINE
  8
0
 10
-1.9675
 20
-10.314
 11
-3.24467
 21
-9.98608
  0
LINE
  8
0
 10
-3.24467
 20
-9.98608
 11
-4.47067
 21
-9.50067
  0
LINE
  8
0
 10
-4.47067
 20
-9.50067
 11
-5.62617
 21
-8.86543
  0
LINE
  8
0
 10
-5.62617
 20
-8.86543
 11
-6.69295
 21
-8.09038
  0
LINE
  8
0
 10
-6.69295
 20
-8.09038
 11
-7.65416
 21
-7.18774
  0
LINE
  8
0
 10
-7.65416
 20
-7.18774
 11
-8.49467
 21
-6.17174
  0
LINE
  8
0
 10
-8.49467
 20
-6.17174
 11
-9.20122
 21
-5.05841
  0
LINE
  8
0
 10
-9.20122
 20
-5.05841
 11
-9.76265
 21
-3.8653
  0
LINE
  8
0
 10
-9.76265
 20
-3.8653
 11
-10.1701
 21
-2.61124
  0
LINE
  8
0
 10
-10.1701
 20
-2.61124
 11
-10.4172
 21
-1.31599
  0
LINE
  8
0
 10
-10.4172
 20
-1.31599
 11
-10.5
 21
0
  0
LINE
  8
0
 10
-10.5
 20
0
 11
-10.4172
 21
1.31599
  0
LINE
  8
0
 10
-10.4172
 20
1.31599
 11
-10.1701
 21
2.61124
  0
LINE
  8
0
 10
-10.1701
 20
2.61124
 11
-9.76265
 21
3.8653
  0
LINE
  8
0
 10
-9.76265
 20
3.8653
 11
-9.20122
 21
5.05841
  0
LINE
  8
0
 10
-9.20122
 20
5.05841
 11
-8.49467
 21
6.17174
  0
LINE
  8
0
 10
-8.49467
 20
6.17174
 11
-7.65416
 21
7.18774
  0
LINE
  8
0
 10
-7.65416
 20
7.18774
 11
-6.69295
 21
8.09038
  0
LINE
  8
0
 10
-6.69295
 20
8.09038
 11
-5.62617
 21
8.86543
  0
LINE
  8
0
 10
-5.62617
 20
8.86543
 11
-4.47067
 21
9.50067
  0
LINE
  8
0
 10
-4.47067
 20
9.50067
 11
-3.24467
 21
9.98608
  0
LINE
  8
0
 10
-3.24467
 20
9.98608
 11
-1.9675
 21
10.314
  0
LINE
  8
0
 10
-1.9675
 20
10.314
 11
-0.659286
 21
10.4793
  0
LINE
  8
0
 10
-0.659286
 20
10.4793
 11
0.659286
 21
10.4793
  0
LINE
  8
0
 10
0.659286
 20
10.4793
 11
1.9675
 21
10.314
  0
LINE
  8
0
 10
1.9675
 20
10.314
 11
3.24467
 21
9.98608
  0
LINE
  8
0
 10
3.24467
 20
9.98608
 11
4.47067
 21
9.50067
  0
LINE
  8
0
 10
4.47067
 20
9.50067
 11
5.62617
 21
8.86543
  0
LINE
  8
0
 10
5.62617
 20
8.86543
 11
6.69295
 21
8.09038
  0
LINE
  8
0
 10
6.69295
 20
8.09038
 11
7.65416
 21
7.18774
  0
LINE
  8
0
 10
7.65416
 20
7.18774
 11
8.49467
 21
6.17174
  0
LINE
  8
0
 10
8.49467
 20
6.17174
 11
9.20122
 21
5.05841
  0
LINE
  8
0
 10
9.20122
 20
5.05841
 11
9.76265
 21
3.8653
  0
LINE
  8
0
 10
9.76265
 20
3.8653
 11
10.1701
 21
2.61124
  0
LINE
  8
0
 10
10.1701
 20
2.61124
 11
10.4172
 21
1.31599
  0
LINE
  8
0
 10
10.4172
 20
1.31599
 11
10.5
 21
0
  0
LINE
  8
0
 10
10.5
 20
0
 11
10.4172
 21
-1.31599
  0
LINE
  8
0
 10
10.4172
 20
-1.31599
 11
10.1701
 21
-2.61124
  0
LINE
  8
0
 10
10.1701
 20
-2.61124
 11
9.76265
 21
-3.8653
  0
LINE
  8
0
 10
9.76265
 20
-3.8653
 11
9.20122
 21
-5.05841
  0
LINE
  8
0
 10
9.20122
 20
-5.05841
 11
8.49467
 21
-6.17174
  0
LINE
  8
0
 10
8.49467
 20
-6.17174
 11
7.65416
 21
-7.18774
  0
LINE
  8
0
 10
7.65416
 20
-7.18774
 11
6.69295
 21
-8.09038
  0
LINE
  8
0
 10
6.69295
 20
-8.09038
 11
5.62617
 21
-8.86543
  0
LINE
  8
0
 10
5.62617
 20
-8.86543
 11
4.47067
 21
-9.50067
  0
LINE
  8
0
 10
4.47067
 20
-9.50067
 11
3.24467
 21
-9.98608
  0
LINE
  8
0
 10
3.24467
 20
-9.98608
 11
1.9675
 21
-10.314
  0
LINE
  8
0
 10
1.9675
 20
-10.314
 11
0.659286
 21
-10.4793
  0
LINE
  8
0
 10
0.659286
 20
-10.4793
 11
-0.659286
 21
-10.4793
  0
LINE
  8
0
 10
67.4058
 20
-1.49704
 11
67.2189
 21
-1.47342
  0
LINE
  8
0
 10
67.2189
 20
-1.47342
 11
67.0365
 21
-1.42657
  0
LINE
  8
0
 10
67.0365
 20
-1.42657
 11
66.8613
 21
-1.35724
  0
LINE
  8
0
 10
66.8613
 20
-1.35724
 11
66.6963
 21
-1.26648
  0
LINE
  8
0
 10
66.6963
 20
-1.26648
 11
66.5439
 21
-1.15576
  0
LINE
  8
0
 10
66.5439
 20
-1.15576
 11
66.4065
 21
-1.02681
  0
LINE
  8
0
 10
66.4065
 20
-1.02681
 11
66.2865
 21
-0.881668
  0
LINE
  8
0
 10
66.2865
 20
-0.881668
 11
66.1855
 21
-0.722626
  0
LINE
  8
0
 10
66.1855
 20
-0.722626
 11
66.1053
 21
-0.552185
  0
LINE
  8
0
 10
66.1053
 20
-0.552185
 11
66.0471
 21
-0.373032
  0
LINE
  8
0
 10
66.0471
 20
-0.373032
 11
66.0118
 21
-0.187988
  0
LINE
  8
0
 10
66.0118
 20
-0.187988
 11
66
 21
0
  0
LINE
  8
0
 10
66
 20
0
 11
66.0118
 21
0.187988
  0
LINE
  8
0
 10
66.0118
 20
0.187988
 11
66.0471
 21
0.373032
  0
LINE
  8
0
 10
66.0471
 20
0.373032
 11
66.1053
 21
0.552185
  0
LINE
  8
0
 10
66.1053
 20
0.552185
 11
66.1855
 21
0.722626
  0
LINE
  8
0
 10
66.1855
 20
0.722626
 11
66.2865
 21
0.881668
  0
LINE
  8
0
 10
66.2865
 20
0.881668
 11
66.4065
 21
1.02681
  0
LINE
  8
0
 10
66.4065
 20
1.02681
 11
66.5439
 21
1.15576
  0
LINE
  8
0
 10
66.5439
 20
1.15576
 11
66.6963
 21
1.26648
  0
LINE
  8
0
 10
66.6963
 20
1.26648
 11
66.8613
 21
1.35724
  0
LINE
  8
0
 10
66.8613
 20
1.35724
 11
67.0365
 21
1.42657
  0
LINE
  8
0
 10
67.0365
 20
1.42657
 11
67.2189
 21
1.47342
  0
LINE
  8
0
 10
67.2189
 20
1.47342
 11
67.4058
 21
1.49704
  0
LINE
  8
0
 10
67.4058
 20
1.49704
 11
67.5942
 21
1.49704
  0
LINE
  8
0
 10
67.5942
 20
1.49704
 11
67.7811
 21
1.47342
  0
LINE
  8
0
 10
67.7811
 20
1.47342
 11
67.9635
 21
1.42657
  0
LINE
  8
0
 10
67.9635
 20
1.42657
 11
68.1387
 21
1.35724
  0
LINE
  8
0
 10
68.1387
 20
1.35724
 11
68.3037
 21
1.26648
  0
LINE
  8
0
 10
68.3037
 20
1.26648
 11
68.4561
 21
1.15576
  0
LINE
  8
0
 10
68.4561
 20
1.15576
 11
68.5934
 21
1.02681
  0
LINE
  8
0
 10
68.5934
 20
1.02681
 11
68.7135
 21
0.881668
  0
LINE
  8
0
 10
68.7135
 20
0.881668
 11
68.8145
 21
0.722626
  0
LINE
  8
0
 10
68.8145
 20
0.722626
 11
68.8947
 21
0.552185
  0
LINE
  8
0
 10
68.8947
 20
0.552185
 11
68.9529
 21
0.373032
  0
LINE
  8
0
 10
68.9529
 20
0.373032
 11
68.9882
 21
0.187988
  0
LINE
  8
0
 10
68.9882
 20
0.187988
 11
69
 21
0
  0
LINE
  8
0
 10
69
 20
0
 11
68.9882
 21
-0.187988
  0
LINE
  8
0
 10
68.9882
 20
-0.187988
 11
68.9529
 21
-0.373032
  0
LINE
  8
0
 10
68.9529
 20
-0.373032
 11
68.8947
 21
-0.552185
  0
LINE
  8
0
 10
68.8947
 20
-0.552185
 11
68.8145
 21
-0.722626
  0
LINE
  8
0
 10
68.8145
 20
-0.722626
 11
68.7135
 21
-0.881668
  0
LINE
  8
0
 10
68.7135
 20
-0.881668
 11
68.5934
 21
-1.02681
  0
LINE
  8
0
 10
68.5934
 20
-1.02681
 11
68.4561
 21
-1.15576
  0
LINE
  8
0
 10
68.4561
 20
-1.15576
 11
68.3037
 21
-1.26648
  0
LINE
  8
0
 10
68.3037
 20
-1.26648
 11
68.1387
 21
-1.35724
  0
LINE
  8
0
 10
68.1387
 20
-1.35724
 11
67.9635
 21
-1.42657
  0
LINE
  8
0
 10
67.9635
 20
-1.42657
 11
67.7811
 21
-1.47342
  0
LINE
  8
0
 10
67.7811
 20
-1.47342
 11
67.5942
 21
-1.49704
  0
LINE
  8
0
 10
67.5942
 20
-1.49704
 11
67.4058
 21
-1.49704
  0
LINE
  8
0
 10
-67.5942
 20
-1.49704
 11
-67.7811
 21
-1.47342
  0
LINE
  8
0
 10
-67.7811
 20
-1.47342
 11
-67.9635
 21
-1.42657
  0
LINE
  8
0
 10
-67.9635
 20
-1.42657
 11
-68.1387
 21
-1.35724
  0
LINE
  8
0
 10
-68.1387
 20
-1.35724
 11
-68.3037
 21
-1.26648
  0
LINE
  8
0
 10
-68.3037
 20
-1.26648
 11
-68.4561
 21
-1.15576
  0
LINE
  8
0
 10
-68.4561
 20
-1.15576
 11
-68.5934
 21
-1.02681
  0
LINE
  8
0
 10
-68.5934
 20
-1.02681
 11
-68.7135
 21
-0.881668
  0
LINE
  8
0
 10
-68.7135
 20
-0.881668
 11
-68.8145
 21
-0.722626
  0
LINE
  8
0
 10
-68.8145
 20
-0.722626
 11
-68.8947
 21
-0.552185
  0
LINE
  8
0
 10
-68.8947
 20
-0.552185
 11
-68.9529
 21
-0.373032
  0
LINE
  8
0
 10
-68.9529
 20
-0.373032
 11
-68.9882
 21
-0.187988
  0
LINE
  8
0
 10
-68.9882
 20
-0.187988
 11
-69
 21
0
  0
LINE
  8
0
 10
-69
 20
0
 11
-68.9882
 21
0.187988
  0
LINE
  8
0
 10
-68.9882
 20
0.187988
 11
-68.9529
 21
0.373032
  0
LINE
  8
0
 10
-68.9529
 20
0.373032
 11
-68.8947
 21
0.552185
  0
LINE
  8
0
 10
-68.8947
 20
0.552185
 11
-68.8145
 21
0.722626
  0
LINE
  8
0
 10
-68.8145
 20
0.722626
 11
-68.7135
 21
0.881668
  0
LINE
  8
0
 10
-68.7135
 20
0.881668
 11
-68.5934
 21
1.02681
  0
LINE
  8
0
 10
-68.5934
 20
1.02681
 11
-68.4561
 21
1.15576
  0
LINE
  8
0
 10
-68.4561
 20
1.15576
 11
-68.3037
 21
1.26648
  0
LINE
  8
0
 10
-68.3037
 20
1.26648
 11
-68.1387
 21
1.35724
  0
LINE
  8
0
 10
-68.1387
 20
1.35724
 11
-67.9635
 21
1.42657
  0
LINE
  8
0
 10
-67.9635
 20
1.42657
 11
-67.7811
 21
1.47342
  0
LINE
  8
0
 10
-67.7811
 20
1.47342
 11
-67.5942
 21
1.49704
  0
LINE
  8
0
 10
-67.5942
 20
1.49704
 11
-67.4058
 21
1.49704
  0
LINE
  8
0
 10
-67.4058
 20
1.49704
 11
-67.2189
 21
1.47342
  0
LINE
  8
0
 10
-67.2189
 20
1.47342
 11
-67.0365
 21
1.42657
  0
LINE
  8
0
 10
-67.0365
 20
1.42657
 11
-66.8613
 21
1.35724
  0
LINE
  8
0
 10
-66.8613
 20
1.35724
 11
-66.6963
 21
1.26648
  0
LINE
  8
0
 10
-66.6963
 20
1.26648
 11
-66.5439
 21
1.15576
  0
LINE
  8
0
 10
-66.5439
 20
1.15576
 11
-66.4065
 21
1.02681
  0
LINE
  8
0
 10
-66.4065
 20
1.02681
 11
-66.2865
 21
0.881668
  0
LINE
  8
0
 10
-66.2865
 20
0.881668
 11
-66.1855
 21
0.722626
  0
LINE
  8
0
 10
-66.1855
 20
0.722626
 11
-66.1053
 21
0.552185
  0
LINE
  8
0
 10
-66.1053
 20
0.552185
 11
-66.0471
 21
0.373032
  0
LINE
  8
0
 10
-66.0471
 20
0.373032
 11
-66.0118
 21
0.187988
  0
LINE
  8
0
 10
-66.0118
 20
0.187988
 11
-66
 21
0
  0
LINE
  8
0
 10
-66
 20
0
 11
-66.0118
 21
-0.187988
  0
LINE
  8
0
 10
-66.0118
 20
-0.187988
 11
-66.0471
 21
-0.373032
  0
LINE
  8
0
 10
-66.0471
 20
-0.373032
 11
-66.1053
 21
-0.552185
  0
LINE
  8
0
 10
-66.1053
 20
-0.552185
 11
-66.1855
 21
-0.722626
  0
LINE
  8
0
 10
-66.1855
 20
-0.722626
 11
-66.2865
 21
-0.881668
  0
LINE
  8
0
 10
-66.2865
 20
-0.881668
 11
-66.4065
 21
-1.02681
  0
LINE
  8
0
 10
-66.4065
 20
-1.02681
 11
-66.5439
 21
-1.15576
  0
LINE
  8
0
 10
-66.5439
 20
-1.15576
 11
-66.6963
 21
-1.26648
  0
LINE
  8
0
 10
-66.6963
 20
-1.26648
 11
-66.8613
 21
-1.35724
  0
LINE
  8
0
 10
-66.8613
 20
-1.35724
 11
-67.0365
 21
-1.42657
  0
LINE
  8
0
 10
-67.0365
 20
-1.42657
 11
-67.2189
 21
-1.47342
  0
LINE
  8
0
 10
-67.2189
 20
-1.47342
 11
-67.4058
 21
-1.49704
  0
LINE
  8
0
 10
-67.4058
 20
-1.49704
 11
-67.5942
 21
-1.49704
  0
LINE
  8
0
 10
67.3116
 20
-10.4941
 11
66.9379
 21
-10.4469
  0
LINE
  8
0
 10
66.9379
 20
-10.4469
 11
66.573
 21
-10.3532
  0
LINE
  8
0
 10
66.573
 20
-10.3532
 11
66.2227
 21
-10.2145
  0
LINE
  8
0
 10
66.2227
 20
-10.2145
 11
65.8925
 21
-10.033
  0
LINE
  8
0
 10
65.8925
 20
-10.033
 11
65.5877
 21
-9.81154
  0
LINE
  8
0
 10
65.5877
 20
-9.81154
 11
65.3131
 21
-9.55363
  0
LINE
  8
0
 10
65.3131
 20
-9.55363
 11
65.073
 21
-9.26335
  0
LINE
  8
0
 10
65.073
 20
-9.26335
 11
64.8711
 21
-8.94525
  0
LINE
  8
0
 10
64.8711
 20
-8.94525
 11
64.7107
 21
-8.60437
  0
LINE
  8
0
 10
64.7107
 20
-8.60437
 11
64.5943
 21
-8.24606
  0
LINE
  8
0
 10
64.5943
 20
-8.24606
 11
64.5237
 21
-7.87599
  0
LINE
  8
0
 10
64.5237
 20
-7.87599
 11
64.5
 21
-7.5
  0
LINE
  8
0
 10
64.5
 20
-7.5
 11
64.5237
 21
-7.12399
  0
LINE
  8
0
 10
64.5237
 20
-7.12399
 11
64.5943
 21
-6.75392
  0
LINE
  8
0
 10
64.5943
 20
-6.75392
 11
64.7107
 21
-6.39561
  0
LINE
  8
0
 10
64.7107
 20
-6.39561
 11
64.8711
 21
-6.05473
  0
LINE
  8
0
 10
64.8711
 20
-6.05473
 11
65.073
 21
-5.73663
  0
LINE
  8
0
 10
65.073
 20
-5.73663
 11
65.3131
 21
-5.44635
  0
LINE
  8
0
 10
65.3131
 20
-5.44635
 11
65.5877
 21
-5.18845
  0
LINE
  8
0
 10
65.5877
 20
-5.18845
 11
65.8925
 21
-4.96701
  0
LINE
  8
0
 10
65.8925
 20
-4.96701
 11
66.2227
 21
-4.78551
  0
LINE
  8
0
 10
66.2227
 20
-4.78551
 11
66.573
 21
-4.64682
  0
LINE
  8
0
 10
66.573
 20
-4.64682
 11
66.9379
 21
-4.55313
  0
LINE
  8
0
 10
66.9379
 20
-4.55313
 11
67.3116
 21
-4.50591
  0
LINE
  8
0
 10
67.3116
 20
-4.50591
 11
67.6884
 21
-4.50591
  0
LINE
  8
0
 10
67.6884
 20
-4.50591
 11
68.0621
 21
-4.55313
  0
LINE
  8
0
 10
68.0621
 20
-4.55313
 11
68.427
 21
-4.64682
  0
LINE
  8
0
 10
68.427
 20
-4.64682
 11
68.7773
 21
-4.78551
  0
LINE
  8
0
 10
68.7773
 20
-4.78551
 11
69.1075
 21
-4.96701
  0
LINE
  8
0
 10
69.1075
 20
-4.96701
 11
69.4123
 21
-5.18845
  0
LINE
  8
0
 10
69.4123
 20
-5.18845
 11
69.6869
 21
-5.44635
  0
LINE
  8
0
 10
69.6869
 20
-5.44635
 11
69.927
 21
-5.73663
  0
LINE
  8
0
 10
69.927
 20
-5.73663
 11
70.1289
 21
-6.05473
  0
LINE
  8
0
 10
70.1289
 20
-6.05473
 11
70.2893
 21
-6.39561
  0
LINE
  8
0
 10
70.2893
 20
-6.39561
 11
70.4057
 21
-6.75392
  0
LINE
  8
0
 10
70.4057
 20
-6.75392
 11
70.4763
 21
-7.12399
  0
LINE
  8
0
 10
70.4763
 20
-7.12399
 11
70.5
 21
-7.5
  0
LINE
  8
0
 10
70.5
 20
-7.5
 11
70.4763
 21
-7.87599
  0
LINE
  8
0
 10
70.4763
 20
-7.87599
 11
70.4057
 21
-8.24606
  0
LINE
  8
0
 10
70.4057
 20
-8.24606
 11
70.2893
 21
-8.60437
  0
LINE
  8
0
 10
70.2893
 20
-8.60437
 11
70.1289
 21
-8.94525
  0
LINE
  8
0
 10
70.1289
 20
-8.94525
 11
69.927
 21
-9.26335
  0
LINE
  8
0
 10
69.927
 20
-9.26335
 11
69.6869
 21
-9.55363
  0
LINE
  8
0
 10
69.6869
 20
-9.55363
 11
69.4123
 21
-9.81154
  0
LINE
  8
0
 10
69.4123
 20
-9.81154
 11
69.1075
 21
-10.033
  0
LINE
  8
0
 10
69.1075
 20
-10.033
 11
68.7773
 21
-10.2145
  0
LINE
  8
0
 10
68.7773
 20
-10.2145
 11
68.427
 21
-10.3532
  0
LINE
  8
0
 10
68.427
 20
-10.3532
 11
68.0621
 21
-10.4469
  0
LINE
  8
0
 10
68.0621
 20
-10.4469
 11
67.6884
 21
-10.4941
  0
LINE
  8
0
 10
67.6884
 20
-10.4941
 11
67.3116
 21
-10.4941
  0
LINE
  8
0
 10
-67.6884
 20
-10.4941
 11
-68.0621
 21
-10.4469
  0
LINE
  8
0
 10
-68.0621
 20
-10.4469
 11
-68.427
 21
-10.3532
  0
LINE
  8
0
 10
-68.427
 20
-10.3532
 11
-68.7773
 21
-10.2145
  0
LINE
  8
0
 10
-68.7773
 20
-10.2145
 11
-69.1075
 21
-10.033
  0
LINE
  8
0
 10
-69.1075
 20
-10.033
 11
-69.4123
 21
-9.81154
  0
LINE
  8
0
 10
-69.4123
 20
-9.81154
 11
-69.6869
 21
-9.55363
  0
LINE
  8
0
 10
-69.6869
 20
-9.55363
 11
-69.927
 21
-9.26335
  0
LINE
  8
0
 10
-69.927
 20
-9.26335
 11
-70.1289
 21
-8.94525
  0
LINE
  8
0
 10
-70.1289
 20
-8.94525
 11
-70.2893
 21
-8.60437
  0
LINE
  8
0
 10
-70.2893
 20
-8.60437
 11
-70.4057
 21
-8.24606
  0
LINE
  8
0
 10
-70.4057
 20
-8.24606
 11
-70.4763
 21
-7.87599
  0
LINE
  8
0
 10
-70.4763
 20
-7.87599
 11
-70.5
 21
-7.5
  0
LINE
  8
0
 10
-70.5
 20
-7.5
 11
-70.4763
 21
-7.12399
  0
LINE
  8
0
 10
-70.4763
 20
-7.12399
 11
-70.4057
 21
-6.75392
  0
LINE
  8
0
 10
-70.4057
 20
-6.75392
 11
-70.2893
 21
-6.39561
  0
LINE
  8
0
 10
-70.2893
 20
-6.39561
 11
-70.1289
 21
-6.05473
  0
LINE
  8
0
 10
-70.1289
 20
-6.05473
 11
-69.927
 21
-5.73663
  0
LINE
  8
0
 10
-69.927
 20
-5.73663
 11
-69.6869
 21
-5.44635
  0
LINE
  8
0
 10
-69.6869
 20
-5.44635
 11
-69.4123
 21
-5.18845
  0
LINE
  8
0
 10
-69.4123
 20
-5.18845
 11
-69.1075
 21
-4.96701
  0
LINE
  8
0
 10
-69.1075
 20
-4.96701
 11
-68.7773
 21
-4.78551
  0
LINE
  8
0
 10
-68.7773
 20
-4.78551
 11
-68.427
 21
-4.64682
  0
LINE
  8
0
 10
-68.427
 20
-4.64682
 11
-68.0621
 21
-4.55313
  0
LINE
  8
0
 10
-68.0621
 20
-4.55313
 11
-67.6884
 21
-4.50591
  0
LINE
  8
0
 10
-67.6884
 20
-4.50591
 11
-67.3116
 21
-4.50591
  0
LINE
  8
0
 10
-67.3116
 20
-4.50591
 11
-66.9379
 21
-4.55313
  0
LINE
  8
0
 10
-66.9379
 20
-4.55313
 11
-66.573
 21
-4.64682
  0
LINE
  8
0
 10
-66.573
 20
-4.64682
 11
-66.2227
 21
-4.78551
  0
LINE
  8
0
 10
-66.2227
 20
-4.78551
 11
-65.8925
 21
-4.96701
  0
LINE
  8
0
 10
-65.8925
 20
-4.96701
 11
-65.5877
 21
-5.18845
  0
LINE
  8
0
 10
-65.5877
 20
-5.18845
 11
-65.3131
 21
-5.44635
  0
LINE
  8
0
 10
-65.3131
 20
-5.44635
 11
-65.073
 21
-5.73663
  0
LINE
  8
0
 10
-65.073
 20
-5.73663
 11
-64.8711
 21
-6.05473
  0
LINE
  8
0
 10
-64.8711
 20
-6.05473
 11
-64.7107
 21
-6.39561
  0
LINE
  8
0
 10
-64.7107
 20
-6.39561
 11
-64.5943
 21
-6.75392
  0
LINE
  8
0
 10
-64.5943
 20
-6.75392
 11
-64.5237
 21
-7.12399
  0
LINE
  8
0
 10
-64.5237
 20
-7.12399
 11
-64.5
 21
-7.5
  0
LINE
  8
0
 10
-64.5
 20
-7.5
 11
-64.5237
 21
-7.87599
  0
LINE
  8
0
 10
-64.5237
 20
-7.87599
 11
-64.5943
 21
-8.24606
  0
LINE
  8
0
 10
-64.5943
 20
-8.24606
 11
-64.7107
 21
-8.60437
  0
LINE
  8
0
 10
-64.7107
 20
-8.60437
 11
-64.8711
 21
-8.94525
  0
LINE
  8
0
 10
-64.8711
 20
-8.94525
 11
-65.073
 21
-9.26335
  0
LINE
  8
0
 10
-65.073
 20
-9.26335
 11
-65.3131
 21
-9.55363
  0
LINE
  8
0
 10
-65.3131
 20
-9.55363
 11
-65.5877
 21
-9.81154
  0
LINE
  8
0
 10
-65.5877
 20
-9.81154
 11
-65.8925
 21
-10.033
  0
LINE
  8
0
 10
-65.8925
 20
-10.033
 11
-66.2227
 21
-10.2145
  0
LINE
  8
0
 10
-66.2227
 20
-10.2145
 11
-66.573
 21
-10.3532
  0
LINE
  8
0
 10
-66.573
 20
-10.3532
 11
-66.9379
 21
-10.4469
  0
LINE
  8
0
 10
-66.9379
 20
-10.4469
 11
-67.3116
 21
-10.4941
  0
LINE
  8
0
 10
-67.3116
 20
-10.4941
 11
-67.6884
 21
-10.4941
  0
ENDSEC
  0
SECTION
  2
OBJECTS
  0
DICTIONARY
  0
ENDSEC
  0
EOF
