<?xml version="1.0" standalone="no"?>
<!DOCTYPE svg PUBLIC "-//W3C//DTD SVG 1.1//EN" "http://www.w3.org/Graphics/SVG/1.1/DTD/svg11.dtd">
<svg width="180mm" height="44mm" viewBox="-90 -76 180 44" xmlns="http://www.w3.org/2000/svg" version="1.1">
<title>OpenSCAD Model</title>
<path d="
M 85.4369,-32.0886 L 86.0451,-32.2447 L 86.6289,-32.4759 L 87.1791,-32.7784 L 87.6871,-33.1474 L 88.1448,-33.5773
 L 88.5451,-34.0611 L 88.8815,-34.5912 L 89.1489,-35.1594 L 89.3429,-35.7566 L 89.4606,-36.3733 L 89.5,-37
 L 89.5,-71 L 89.4606,-71.6267 L 89.3429,-72.2434 L 89.1489,-72.8406 L 88.8815,-73.4088 L 88.5451,-73.9389
 L 88.1448,-74.4227 L 87.6871,-74.8526 L 87.1791,-75.2216 L 86.6289,-75.5241 L 86.0451,-75.7553 L 85.4369,-75.9114
 L 84.8139,-75.9901 L -84.8139,-75.9901 L -85.4369,-75.9114 L -86.0451,-75.7553 L -86.6289,-75.5241 L -87.1791,-75.2216
 L -87.6871,-74.8526 L -88.1448,-74.4227 L -88.5451,-73.9389 L -88.8815,-73.4088 L -89.1489,-72.8406 L -89.3429,-72.2434
 L -89.4606,-71.6267 L -89.5,-71 L -89.5,-37 L -89.4606,-36.3733 L -89.3429,-35.7566 L -89.1489,-35.1594
 L -88.8815,-34.5912 L -88.5451,-34.0611 L -88.1448,-33.5773 L -87.6871,-33.1474 L -87.1791,-32.7784 L -86.6289,-32.4759
 L -86.0451,-32.2447 L -85.4369,-32.0886 L -84.8139,-32.0099 L 84.8139,-32.0099 z
M -82.6884,-66.0059 L -83.0621,-66.0531 L -83.427,-66.1468 L -83.7773,-66.2855 L -84.1075,-66.467 L -84.4123,-66.6884
 L -84.6869,-66.9464 L -84.927,-67.2366 L -85.1289,-67.5547 L -85.2893,-67.8956 L -85.4057,-68.2539 L -85.4763,-68.624
 L -85.5,-69 L -85.4763,-69.376 L -85.4057,-69.7461 L -85.2893,-70.1044 L -85.1289,-70.4453 L -84.927,-70.7634
 L -84.6869,-71.0536 L -84.4123,-71.3115 L -84.1075,-71.533 L -83.7773,-71.7145 L -83.427,-71.8532 L -83.0621,-71.9469
 L -82.6884,-71.9941 L -82.3116,-71.9941 L -81.9379,-71.9469 L -81.573,-71.8532 L -81.2227,-71.7145 L -80.8925,-71.533
 L -80.5877,-71.3115 L -80.3131,-71.0536 L -80.073,-70.7634 L -79.8711,-70.4453 L -79.7107,-70.1044 L -79.5943,-69.7461
 L -79.5237,-69.376 L -79.5,-69 L -79.5237,-68.624 L -79.5943,-68.2539 L -79.7107,-67.8956 L -79.8711,-67.5547
 L -80.073,-67.2366 L -80.3131,-66.9464 L -80.5877,-66.6884 L -80.8925,-66.467 L -81.2227,-66.2855 L -81.573,-66.1468
 L -81.9379,-66.0531 L -82.3116,-66.0059 z
M 82.3116,-66.0059 L 81.9379,-66.0531 L 81.573,-66.1468 L 81.2227,-66.2855 L 80.8925,-66.467 L 80.5877,-66.6884
 L 80.3131,-66.9464 L 80.073,-67.2366 L 79.8711,-67.5547 L 79.7107,-67.8956 L 79.5943,-68.2539 L 79.5237,-68.624
 L 79.5,-69 L 79.5237,-69.376 L 79.5943,-69.7461 L 79.7107,-70.1044 L 79.8711,-70.4453 L 80.073,-70.7634
 L 80.3131,-71.0536 L 80.5877,-71.3115 L 80.8925,-71.533 L 81.2227,-71.7145 L 81.573,-71.8532 L 81.9379,-71.9469
 L 82.3116,-71.9941 L 82.6884,-71.9941 L 83.0621,-71.9469 L 83.427,-71.8532 L 83.7773,-71.7145 L 84.1075,-71.533
 L 84.4123,-71.3115 L 84.6869,-71.0536 L 84.927,-70.7634 L 85.1289,-70.4453 L 85.2893,-70.1044 L 85.4057,-69.7461
 L 85.4763,-69.376 L 85.5,-69 L 85.4763,-68.624 L 85.4057,-68.2539 L 85.2893,-67.8956 L 85.1289,-67.5547
 L 84.927,-67.2366 L 84.6869,-66.9464 L 84.4123,-66.6884 L 84.1075,-66.467 L 83.7773,-66.2855 L 83.427,-66.1468
 L 83.0621,-66.0531 L 82.6884,-66.0059 z
M 65.1209,-40.0276 L 63.3767,-40.248 L 61.6738,-40.6852 L 60.0391,-41.3324 L 58.4984,-42.1794 L 57.0761,-43.2128
 L 55.7944,-44.4164 L 54.6738,-45.771 L 53.7317,-47.2555 L 52.9831,-48.8463 L 52.4398,-50.5184 L 52.1104,-52.2453
 L 52,-54 L 52.1104,-55.7547 L 52.4398,-57.4816 L 52.9831,-59.1537 L 53.7317,-60.7445 L 54.6738,-62.229
 L 55.7944,-63.5836 L 57.0761,-64.7872 L 58.4984,-65.8206 L 60.0391,-66.6676 L 61.6738,-67.3148 L 63.3767,-67.752
 L 65.1209,-67.9724 L 66.8791,-67.9724 L 68.6233,-67.752 L 70.3262,-67.3148 L 71.9609,-66.6676 L 73.5016,-65.8206
 L 74.9239,-64.7872 L 76.2056,-63.5836 L 77.3262,-62.229 L 78.2683,-60.7445 L 79.0169,-59.1537 L 79.5602,-57.4816
 L 79.8896,-55.7547 L 80,-54 L 79.8896,-52.2453 L 79.5602,-50.5184 L 79.0169,-48.8463 L 78.2683,-47.2555
 L 77.3262,-45.771 L 76.2056,-44.4164 L 74.9239,-43.2128 L 73.5016,-42.1794 L 71.9609,-41.3324 L 70.3262,-40.6852
 L 68.6233,-40.248 L 66.8791,-40.0276 z
M 32.1209,-40.0276 L 30.3766,-40.248 L 28.6738,-40.6852 L 27.0391,-41.3324 L 25.4984,-42.1794 L 24.0761,-43.2128
 L 22.7944,-44.4164 L 21.6738,-45.771 L 20.7317,-47.2555 L 19.9831,-48.8463 L 19.4398,-50.5184 L 19.1104,-52.2453
 L 19,-54 L 19.1104,-55.7547 L 19.4398,-57.4816 L 19.9831,-59.1537 L 20.7317,-60.7445 L 21.6738,-62.229
 L 22.7944,-63.5836 L 24.0761,-64.7872 L 25.4984,-65.8206 L 27.0391,-66.6676 L 28.6738,-67.3148 L 30.3766,-67.752
 L 32.1209,-67.9724 L 33.8791,-67.9724 L 35.6233,-67.752 L 37.3262,-67.3148 L 38.9609,-66.6676 L 40.5016,-65.8206
 L 41.9239,-64.7872 L 43.2056,-63.5836 L 44.3262,-62.229 L 45.2683,-60.7445 L 46.0169,-59.1537 L 46.5602,-57.4816
 L 46.8896,-55.7547 L 47,-54 L 46.8896,-52.2453 L 46.5602,-50.5184 L 46.0169,-48.8463 L 45.2683,-47.2555
 L 44.3262,-45.771 L 43.2056,-44.4164 L 41.9239,-43.2128 L 40.5016,-42.1794 L 38.9609,-41.3324 L 37.3262,-40.6852
 L 35.6233,-40.248 L 33.8791,-40.0276 z
M -0.879059,-40.0276 L -2.62334,-40.248 L -4.32623,-40.6852 L -5.96091,-41.3324 L -7.50157,-42.1794 L -8.92393,-43.2128
 L -10.2056,-44.4164 L -11.3262,-45.771 L -12.2683,-47.2555 L -13.0169,-48.8463 L -13.5602,-50.5184 L -13.8896,-52.2453
 L -14,-54 L -13.8896,-55.7547 L -13.5602,-57.4816 L -13.0169,-59.1537 L -12.2683,-60.7445 L -11.3262,-62.229
 L -10.2056,-63.5836 L -8.92393,-64.7872 L -7.50157,-65.8206 L -5.96091,-66.6676 L -4.32623,-67.3148 L -2.62334,-67.752
 L -0.879059,-67.9724 L 0.879059,-67.9724 L 2.62334,-67.752 L 4.32623,-67.3148 L 5.96091,-66.6676 L 7.50157,-65.8206
 L 8.92393,-64.7872 L 10.2056,-63.5836 L 11.3262,-62.229 L 12.2683,-60.7445 L 13.0169,-59.1537 L 13.5602,-57.4816
 L 13.8896,-55.7547 L 14,-54 L 13.8896,-52.2453 L 13.5602,-50.5184 L 13.0169,-48.8463 L 12.2683,-47.2555
 L 11.3262,-45.771 L 10.2056,-44.4164 L 8.92393,-43.2128 L 7.50157,-42.1794 L 5.96091,-41.3324 L 4.32623,-40.6852
 L 2.62334,-40.248 L 0.879059,-40.0276 z
M -66.8791,-40.0276 L -68.6233,-40.248 L -70.3262,-40.6852 L -71.9609,-41.3324 L -73.5016,-42.1794 L -74.9239,-43.2128
 L -76.2056,-44.4164 L -77.3262,-45.771 L -78.2683,-47.2555 L -79.0169,-48.8463 L -79.5602,-50.5184 L -79.8896,-52.2453
 L -80,-54 L -79.8896,-55.7547 L -79.5602,-57.4816 L -79.0169,-59.1537 L -78.2683,-60.7445 L -77.3262,-62.229
 L -76.2056,-63.5836 L -74.9239,-64.7872 L -73.5016,-65.8206 L -71.9609,-66.6676 L -70.3262,-67.3148 L -68.6233,-67.752
 L -66.8791,-67.9724 L -65.1209,-67.9724 L -63.3767,-67.752 L -61.6738,-67.3148 L -60.0391,-66.6676 L -58.4984,-65.8206
 L -57.0761,-64.7872 L -55.7944,-63.5836 L -54.6738,-62.229 L -53.7317,-60.7445 L -52.9831,-59.1537 L -52.4398,-57.4816
 L -52.1104,-55.7547 L -52,-54 L -52.1104,-52.2453 L -52.4398,-50.5184 L -52.9831,-48.8463 L -53.7317,-47.2555
 L -54.6738,-45.771 L -55.7944,-44.4164 L -57.0761,-43.2128 L -58.4984,-42.1794 L -60.0391,-41.3324 L -61.6738,-40.6852
 L -63.3767,-40.248 L -65.1209,-40.0276 z
M -33.8791,-40.0276 L -35.6233,-40.248 L -37.3262,-40.6852 L -38.9609,-41.3324 L -40.5016,-42.1794 L -41.9239,-43.2128
 L -43.2056,-44.4164 L -44.3262,-45.771 L -45.2683,-47.2555 L -46.0169,-48.8463 L -46.5602,-50.5184 L -46.8896,-52.2453
 L -47,-54 L -46.8896,-55.7547 L -46.5602,-57.4816 L -46.0169,-59.1537 L -45.2683,-60.7445 L -44.3262,-62.229
 L -43.2056,-63.5836 L -41.9239,-64.7872 L -40.5016,-65.8206 L -38.9609,-66.6676 L -37.3262,-67.3148 L -35.6233,-67.752
 L -33.8791,-67.9724 L -32.1209,-67.9724 L -30.3766,-67.752 L -28.6738,-67.3148 L -27.0391,-66.6676 L -25.4984,-65.8206
 L -24.0761,-64.7872 L -22.7944,-63.5836 L -21.6738,-62.229 L -20.7317,-60.7445 L -19.9831,-59.1537 L -19.4398,-57.4816
 L -19.1104,-55.7547 L -19,-54 L -19.1104,-52.2453 L -19.4398,-50.5184 L -19.9831,-48.8463 L -20.7317,-47.2555
 L -21.6738,-45.771 L -22.7944,-44.4164 L -24.0761,-43.2128 L -25.4984,-42.1794 L -27.0391,-41.3324 L -28.6738,-40.6852
 L -30.3766,-40.248 L -32.1209,-40.0276 z
M -82.6884,-36.0059 L -83.0621,-36.0531 L -83.427,-36.1468 L -83.7773,-36.2855 L -84.1075,-36.467 L -84.4123,-36.6885
 L -84.6869,-36.9464 L -84.927,-37.2366 L -85.1289,-37.5547 L -85.2893,-37.8956 L -85.4057,-38.2539 L -85.4763,-38.624
 L -85.5,-39 L -85.4763,-39.376 L -85.4057,-39.7461 L -85.2893,-40.1044 L -85.1289,-40.4453 L -84.927,-40.7634
 L -84.6869,-41.0536 L -84.4123,-41.3116 L -84.1075,-41.533 L -83.7773,-41.7145 L -83.427,-41.8532 L -83.0621,-41.9469
 L -82.6884,-41.9941 L -82.3116,-41.9941 L -81.9379,-41.9469 L -81.573,-41.8532 L -81.2227,-41.7145 L -80.8925,-41.533
 L -80.5877,-41.3116 L -80.3131,-41.0536 L -80.073,-40.7634 L -79.8711,-40.4453 L -79.7107,-40.1044 L -79.5943,-39.7461
 L -79.5237,-39.376 L -79.5,-39 L -79.5237,-38.624 L -79.5943,-38.2539 L -79.7107,-37.8956 L -79.8711,-37.5547
 L -80.073,-37.2366 L -80.3131,-36.9464 L -80.5877,-36.6885 L -80.8925,-36.467 L -81.2227,-36.2855 L -81.573,-36.1468
 L -81.9379,-36.0531 L -82.3116,-36.0059 z
M 82.3116,-36.0059 L 81.9379,-36.0531 L 81.573,-36.1468 L 81.2227,-36.2855 L 80.8925,-36.467 L 80.5877,-36.6885
 L 80.3131,-36.9464 L 80.073,-37.2366 L 79.8711,-37.5547 L 79.7107,-37.8956 L 79.5943,-38.2539 L 79.5237,-38.624
 L 79.5,-39 L 79.5237,-39.376 L 79.5943,-39.7461 L 79.7107,-40.1044 L 79.8711,-40.4453 L 80.073,-40.7634
 L 80.3131,-41.0536 L 80.5877,-41.3116 L 80.8925,-41.533 L 81.2227,-41.7145 L 81.573,-41.8532 L 81.9379,-41.9469
 L 82.3116,-41.9941 L 82.6884,-41.9941 L 83.0621,-41.9469 L 83.427,-41.8532 L 83.7773,-41.7145 L 84.1075,-41.533
 L 84.4123,-41.3116 L 84.6869,-41.0536 L 84.927,-40.7634 L 85.1289,-40.4453 L 85.2893,-40.1044 L 85.4057,-39.7461
 L 85.4763,-39.376 L 85.5,-39 L 85.4763,-38.624 L 85.4057,-38.2539 L 85.2893,-37.8956 L 85.1289,-37.5547
 L 84.927,-37.2366 L 84.6869,-36.9464 L 84.4123,-36.6885 L 84.1075,-36.467 L 83.7773,-36.2855 L 83.427,-36.1468
 L 83.0621,-36.0531 L 82.6884,-36.0059 z
" stroke="black" fill="lightgray" stroke-width="0.5"/>
</svg>
