<?xml version="1.0" standalone="no"?>
<!DOCTYPE svg PUBLIC "-//W3C//DTD SVG 1.1//EN" "http://www.w3.org/Graphics/SVG/1.1/DTD/svg11.dtd">
<svg width="180mm" height="44mm" viewBox="-90 -22 180 44" xmlns="http://www.w3.org/2000/svg" version="1.1">
<title>OpenSCAD Model</title>
<path d="
M 85.4369,21.9114 L 86.0451,21.7553 L 86.6289,21.5241 L 87.1791,21.2216 L 87.6871,20.8526 L 88.1448,20.4227
 L 88.5451,19.9389 L 88.8815,19.4088 L 89.1489,18.8406 L 89.3429,18.2434 L 89.4606,17.6267 L 89.5,17
 L 89.5,-17 L 89.4606,-17.6267 L 89.3429,-18.2434 L 89.1489,-18.8406 L 88.8815,-19.4088 L 88.5451,-19.9389
 L 88.1448,-20.4227 L 87.6871,-20.8526 L 87.1791,-21.2216 L 86.6289,-21.5241 L 86.0451,-21.7553 L 85.4369,-21.9114
 L 84.8139,-21.9901 L -84.8139,-21.9901 L -85.4369,-21.9114 L -86.0451,-21.7553 L -86.6289,-21.5241 L -87.1791,-21.2216
 L -87.6871,-20.8526 L -88.1448,-20.4227 L -88.5451,-19.9389 L -88.8815,-19.4088 L -89.1489,-18.8406 L -89.3429,-18.2434
 L -89.4606,-17.6267 L -89.5,-17 L -89.5,17 L -89.4606,17.6267 L -89.3429,18.2434 L -89.1489,18.8406
 L -88.8815,19.4088 L -88.5451,19.9389 L -88.1448,20.4227 L -87.6871,20.8526 L -87.1791,21.2216 L -86.6289,21.5241
 L -86.0451,21.7553 L -85.4369,21.9114 L -84.8139,21.9901 L 84.8139,21.9901 z
M 82.3116,-12.0059 L 81.9379,-12.0531 L 81.573,-12.1468 L 81.2227,-12.2855 L 80.8925,-12.467 L 80.5877,-12.6884
 L 80.3131,-12.9464 L 80.073,-13.2366 L 79.8711,-13.5547 L 79.7107,-13.8956 L 79.5943,-14.2539 L 79.5237,-14.624
 L 79.5,-15 L 79.5237,-15.376 L 79.5943,-15.7461 L 79.7107,-16.1044 L 79.8711,-16.4453 L 80.073,-16.7634
 L 80.3131,-17.0536 L 80.5877,-17.3115 L 80.8925,-17.533 L 81.2227,-17.7145 L 81.573,-17.8532 L 81.9379,-17.9469
 L 82.3116,-17.9941 L 82.6884,-17.9941 L 83.0621,-17.9469 L 83.427,-17.8532 L 83.7773,-17.7145 L 84.1075,-17.533
 L 84.4123,-17.3115 L 84.6869,-17.0536 L 84.927,-16.7634 L 85.1289,-16.4453 L 85.2893,-16.1044 L 85.4057,-15.7461
 L 85.4763,-15.376 L 85.5,-15 L 85.4763,-14.624 L 85.4057,-14.2539 L 85.2893,-13.8956 L 85.1289,-13.5547
 L 84.927,-13.2366 L 84.6869,-12.9464 L 84.4123,-12.6884 L 84.1075,-12.467 L 83.7773,-12.2855 L 83.427,-12.1468
 L 83.0621,-12.0531 L 82.6884,-12.0059 z
M -82.6884,-12.0059 L -83.0621,-12.0531 L -83.427,-12.1468 L -83.7773,-12.2855 L -84.1075,-12.467 L -84.4123,-12.6884
 L -84.6869,-12.9464 L -84.927,-13.2366 L -85.1289,-13.5547 L -85.2893,-13.8956 L -85.4057,-14.2539 L -85.4763,-14.624
 L -85.5,-15 L -85.4763,-15.376 L -85.4057,-15.7461 L -85.2893,-16.1044 L -85.1289,-16.4453 L -84.927,-16.7634
 L -84.6869,-17.0536 L -84.4123,-17.3115 L -84.1075,-17.533 L -83.7773,-17.7145 L -83.427,-17.8532 L -83.0621,-17.9469
 L -82.6884,-17.9941 L -82.3116,-17.9941 L -81.9379,-17.9469 L -81.573,-17.8532 L -81.2227,-17.7145 L -80.8925,-17.533
 L -80.5877,-17.3115 L -80.3131,-17.0536 L -80.073,-16.7634 L -79.8711,-16.4453 L -79.7107,-16.1044 L -79.5943,-15.7461
 L -79.5237,-15.376 L -79.5,-15 L -79.5237,-14.624 L -79.5943,-14.2539 L -79.7107,-13.8956 L -79.8711,-13.5547
 L -80.073,-13.2366 L -80.3131,-12.9464 L -80.5877,-12.6884 L -80.8925,-12.467 L -81.2227,-12.2855 L -81.573,-12.1468
 L -81.9379,-12.0531 L -82.3116,-12.0059 z
M 69.0581,14.9704 L 67.1893,14.7343 L 65.3647,14.2658 L 63.6133,13.5724 L 61.9626,12.6649 L 60.4386,11.5577
 L 59.0655,10.2682 L 57.8647,8.81677 L 56.8554,7.2263 L 56.0533,5.52187 L 55.4713,3.73035 L 55.1183,1.87999
 L 55,-0 L 55.1183,-1.87999 L 55.4713,-3.73035 L 56.0533,-5.52187 L 56.8554,-7.2263 L 57.8647,-8.81677
 L 59.0655,-10.2682 L 60.4386,-11.5577 L 61.9626,-12.6649 L 63.6133,-13.5724 L 65.3647,-14.2658 L 67.1893,-14.7343
 L 69.0581,-14.9704 L 70.9418,-14.9704 L 72.8107,-14.7343 L 74.6353,-14.2658 L 76.3867,-13.5724 L 78.0374,-12.6649
 L 79.5614,-11.5577 L 80.9345,-10.2682 L 82.1353,-8.81677 L 83.1446,-7.2263 L 83.9466,-5.52187 L 84.5287,-3.73035
 L 84.8817,-1.87999 L 85,-0 L 84.8817,1.87999 L 84.5287,3.73035 L 83.9466,5.52187 L 83.1446,7.2263
 L 82.1353,8.81677 L 80.9345,10.2682 L 79.5614,11.5577 L 78.0374,12.6649 L 76.3867,13.5724 L 74.6353,14.2658
 L 72.8107,14.7343 L 70.9418,14.9704 z
M 34.0581,14.9704 L 32.1893,14.7343 L 30.3647,14.2658 L 28.6133,13.5724 L 26.9626,12.6649 L 25.4386,11.5577
 L 24.0655,10.2682 L 22.8647,8.81677 L 21.8554,7.2263 L 21.0533,5.52187 L 20.4713,3.73035 L 20.1183,1.87999
 L 20,-0 L 20.1183,-1.87999 L 20.4713,-3.73035 L 21.0533,-5.52187 L 21.8554,-7.2263 L 22.8647,-8.81677
 L 24.0655,-10.2682 L 25.4386,-11.5577 L 26.9626,-12.6649 L 28.6133,-13.5724 L 30.3647,-14.2658 L 32.1893,-14.7343
 L 34.0581,-14.9704 L 35.9418,-14.9704 L 37.8107,-14.7343 L 39.6353,-14.2658 L 41.3867,-13.5724 L 43.0374,-12.6649
 L 44.5614,-11.5577 L 45.9345,-10.2682 L 47.1353,-8.81677 L 48.1446,-7.2263 L 48.9466,-5.52187 L 49.5287,-3.73035
 L 49.8817,-1.87999 L 50,-0 L 49.8817,1.87999 L 49.5287,3.73035 L 48.9466,5.52187 L 48.1446,7.2263
 L 47.1353,8.81677 L 45.9345,10.2682 L 44.5614,11.5577 L 43.0374,12.6649 L 41.3867,13.5724 L 39.6353,14.2658
 L 37.8107,14.7343 L 35.9418,14.9704 z
M -70.9418,14.9704 L -72.8107,14.7343 L -74.6353,14.2658 L -76.3867,13.5724 L -78.0374,12.6649 L -79.5614,11.5577
 L -80.9345,10.2682 L -82.1353,8.81677 L -83.1446,7.2263 L -83.9466,5.52187 L -84.5287,3.73035 L -84.8817,1.87999
 L -85,-0 L -84.8817,-1.87999 L -84.5287,-3.73035 L -83.9466,-5.52187 L -83.1446,-7.2263 L -82.1353,-8.81677
 L -80.9345,-10.2682 L -79.5614,-11.5577 L -78.0374,-12.6649 L -76.3867,-13.5724 L -74.6353,-14.2658 L -72.8107,-14.7343
 L -70.9418,-14.9704 L -69.0581,-14.9704 L -67.1893,-14.7343 L -65.3647,-14.2658 L -63.6133,-13.5724 L -61.9626,-12.6649
 L -60.4386,-11.5577 L -59.0655,-10.2682 L -57.8647,-8.81677 L -56.8554,-7.2263 L -56.0533,-5.52187 L -55.4713,-3.73035
 L -55.1183,-1.87999 L -55,-0 L -55.1183,1.87999 L -55.4713,3.73035 L -56.0533,5.52187 L -56.8554,7.2263
 L -57.8647,8.81677 L -59.0655,10.2682 L -60.4386,11.5577 L -61.9626,12.6649 L -63.6133,13.5724 L -65.3647,14.2658
 L -67.1893,14.7343 L -69.0581,14.9704 z
M -0.941849,14.9704 L -2.81071,14.7343 L -4.63525,14.2658 L -6.38669,13.5724 L -8.0374,12.6649 L -9.56136,11.5577
 L -10.9345,10.2682 L -12.1353,8.81677 L -13.1446,7.2263 L -13.9466,5.52187 L -14.5287,3.73035 L -14.8817,1.87999
 L -15,-0 L -14.8817,-1.87999 L -14.5287,-3.73035 L -13.9466,-5.52187 L -13.1446,-7.2263 L -12.1353,-8.81677
 L -10.9345,-10.2682 L -9.56136,-11.5577 L -8.0374,-12.6649 L -6.38669,-13.5724 L -4.63525,-14.2658 L -2.81071,-14.7343
 L -0.941849,-14.9704 L 0.941849,-14.9704 L 2.81071,-14.7343 L 4.63525,-14.2658 L 6.38669,-13.5724 L 8.0374,-12.6649
 L 9.56136,-11.5577 L 10.9345,-10.2682 L 12.1353,-8.81677 L 13.1446,-7.2263 L 13.9466,-5.52187 L 14.5287,-3.73035
 L 14.8817,-1.87999 L 15,-0 L 14.8817,1.87999 L 14.5287,3.73035 L 13.9466,5.52187 L 13.1446,7.2263
 L 12.1353,8.81677 L 10.9345,10.2682 L 9.56136,11.5577 L 8.0374,12.6649 L 6.38669,13.5724 L 4.63525,14.2658
 L 2.81071,14.7343 L 0.941849,14.9704 z
M -35.9418,14.9704 L -37.8107,14.7343 L -39.6353,14.2658 L -41.3867,13.5724 L -43.0374,12.6649 L -44.5614,11.5577
 L -45.9345,10.2682 L -47.1353,8.81677 L -48.1446,7.2263 L -48.9466,5.52187 L -49.5287,3.73035 L -49.8817,1.87999
 L -50,-0 L -49.8817,-1.87999 L -49.5287,-3.73035 L -48.9466,-5.52187 L -48.1446,-7.2263 L -47.1353,-8.81677
 L -45.9345,-10.2682 L -44.5614,-11.5577 L -43.0374,-12.6649 L -41.3867,-13.5724 L -39.6353,-14.2658 L -37.8107,-14.7343
 L -35.9418,-14.9704 L -34.0581,-14.9704 L -32.1893,-14.7343 L -30.3647,-14.2658 L -28.6133,-13.5724 L -26.9626,-12.6649
 L -25.4386,-11.5577 L -24.0655,-10.2682 L -22.8647,-8.81677 L -21.8554,-7.2263 L -21.0533,-5.52187 L -20.4713,-3.73035
 L -20.1183,-1.87999 L -20,-0 L -20.1183,1.87999 L -20.4713,3.73035 L -21.0533,5.52187 L -21.8554,7.2263
 L -22.8647,8.81677 L -24.0655,10.2682 L -25.4386,11.5577 L -26.9626,12.6649 L -28.6133,13.5724 L -30.3647,14.2658
 L -32.1893,14.7343 L -34.0581,14.9704 z
M -82.6884,17.9941 L -83.0621,17.9469 L -83.427,17.8532 L -83.7773,17.7145 L -84.1075,17.533 L -84.4123,17.3115
 L -84.6869,17.0536 L -84.927,16.7634 L -85.1289,16.4453 L -85.2893,16.1044 L -85.4057,15.7461 L -85.4763,15.376
 L -85.5,15 L -85.4763,14.624 L -85.4057,14.2539 L -85.2893,13.8956 L -85.1289,13.5547 L -84.927,13.2366
 L -84.6869,12.9464 L -84.4123,12.6884 L -84.1075,12.467 L -83.7773,12.2855 L -83.427,12.1468 L -83.0621,12.0531
 L -82.6884,12.0059 L -82.3116,12.0059 L -81.9379,12.0531 L -81.573,12.1468 L -81.2227,12.2855 L -80.8925,12.467
 L -80.5877,12.6884 L -80.3131,12.9464 L -80.073,13.2366 L -79.8711,13.5547 L -79.7107,13.8956 L -79.5943,14.2539
 L -79.5237,14.624 L -79.5,15 L -79.5237,15.376 L -79.5943,15.7461 L -79.7107,16.1044 L -79.8711,16.4453
 L -80.073,16.7634 L -80.3131,17.0536 L -80.5877,17.3115 L -80.8925,17.533 L -81.2227,17.7145 L -81.573,17.8532
 L -81.9379,17.9469 L -82.3116,17.9941 z
M 82.3116,17.9941 L 81.9379,17.9469 L 81.573,17.8532 L 81.2227,17.7145 L 80.8925,17.533 L 80.5877,17.3115
 L 80.3131,17.0536 L 80.073,16.7634 L 79.8711,16.4453 L 79.7107,16.1044 L 79.5943,15.7461 L 79.5237,15.376
 L 79.5,15 L 79.5237,14.624 L 79.5943,14.2539 L 79.7107,13.8956 L 79.8711,13.5547 L 80.073,13.2366
 L 80.3131,12.9464 L 80.5877,12.6884 L 80.8925,12.467 L 81.2227,12.2855 L 81.573,12.1468 L 81.9379,12.0531
 L 82.3116,12.0059 L 82.6884,12.0059 L 83.0621,12.0531 L 83.427,12.1468 L 83.7773,12.2855 L 84.1075,12.467
 L 84.4123,12.6884 L 84.6869,12.9464 L 84.927,13.2366 L 85.1289,13.5547 L 85.2893,13.8956 L 85.4057,14.2539
 L 85.4763,14.624 L 85.5,15 L 85.4763,15.376 L 85.4057,15.7461 L 85.2893,16.1044 L 85.1289,16.4453
 L 84.927,16.7634 L 84.6869,17.0536 L 84.4123,17.3115 L 84.1075,17.533 L 83.7773,17.7145 L 83.427,17.8532
 L 83.0621,17.9469 L 82.6884,17.9941 z
" stroke="black" fill="lightgray" stroke-width="0.5"/>
</svg>
