<?xml version="1.0" standalone="no"?>
<!DOCTYPE svg PUBLIC "-//W3C//DTD SVG 1.1//EN" "http://www.w3.org/Graphics/SVG/1.1/DTD/svg11.dtd">
<svg width="30mm" height="30mm" viewBox="-15 -54 30 30" xmlns="http://www.w3.org/2000/svg" version="1.1">
<title>OpenSCAD Model</title>
<path d="
M 10.4369,-24.5886 L 11.0451,-24.7447 L 11.6289,-24.9759 L 12.1791,-25.2784 L 12.6871,-25.6474 L 13.1448,-26.0773
 L 13.5451,-26.5611 L 13.8815,-27.0912 L 14.1489,-27.6594 L 14.3429,-28.2566 L 14.4606,-28.8733 L 14.5,-29.5
 L 14.5,-48.5 L 14.4606,-49.1267 L 14.3429,-49.7434 L 14.1489,-50.3406 L 13.8815,-50.9088 L 13.5451,-51.4389
 L 13.1448,-51.9227 L 12.6871,-52.3526 L 12.1791,-52.7216 L 11.6289,-53.0241 L 11.0451,-53.2553 L 10.4369,-53.4114
 L 9.81395,-53.4901 L -9.81395,-53.4901 L -10.4369,-53.4114 L -11.0451,-53.2553 L -11.6289,-53.0241 L -12.1791,-52.7216
 L -12.6871,-52.3526 L -13.1448,-51.9227 L -13.5451,-51.4389 L -13.8815,-50.9088 L -14.1489,-50.3406 L -14.3429,-49.7434
 L -14.4606,-49.1267 L -14.5,-48.5 L -14.5,-29.5 L -14.4606,-28.8733 L -14.3429,-28.2566 L -14.1489,-27.6594
 L -13.8815,-27.0912 L -13.5451,-26.5611 L -13.1448,-26.0773 L -12.6871,-25.6474 L -12.1791,-25.2784 L -11.6289,-24.9759
 L -11.0451,-24.7447 L -10.4369,-24.5886 L -9.81395,-24.5099 L 9.81395,-24.5099 z
M -7.68837,-43.5059 L -8.06213,-43.5531 L -8.42705,-43.6468 L -8.77733,-43.7855 L -9.10747,-43.967 L -9.41226,-44.1884
 L -9.6869,-44.4464 L -9.92705,-44.7366 L -10.1289,-45.0547 L -10.2893,-45.3956 L -10.4057,-45.7539 L -10.4763,-46.124
 L -10.5,-46.5 L -10.4763,-46.876 L -10.4057,-47.2461 L -10.2893,-47.6044 L -10.1289,-47.9453 L -9.92705,-48.2634
 L -9.6869,-48.5536 L -9.41226,-48.8115 L -9.10747,-49.033 L -8.77733,-49.2145 L -8.42705,-49.3532 L -8.06213,-49.4469
 L -7.68837,-49.4941 L -7.31161,-49.4941 L -6.93785,-49.4469 L -6.57294,-49.3532 L -6.22266,-49.2145 L -5.89252,-49.033
 L -5.58772,-48.8115 L -5.31308,-48.5536 L -5.07294,-48.2634 L -4.87108,-47.9453 L -4.71066,-47.6044 L -4.59424,-47.2461
 L -4.52365,-46.876 L -4.5,-46.5 L -4.52365,-46.124 L -4.59424,-45.7539 L -4.71066,-45.3956 L -4.87108,-45.0547
 L -5.07294,-44.7366 L -5.31308,-44.4464 L -5.58772,-44.1884 L -5.89252,-43.967 L -6.22266,-43.7855 L -6.57294,-43.6468
 L -6.93785,-43.5531 L -7.31161,-43.5059 z
M 7.31161,-43.5059 L 6.93785,-43.5531 L 6.57294,-43.6468 L 6.22266,-43.7855 L 5.89252,-43.967 L 5.58772,-44.1884
 L 5.31308,-44.4464 L 5.07294,-44.7366 L 4.87108,-45.0547 L 4.71066,-45.3956 L 4.59424,-45.7539 L 4.52365,-46.124
 L 4.5,-46.5 L 4.52365,-46.876 L 4.59424,-47.2461 L 4.71066,-47.6044 L 4.87108,-47.9453 L 5.07294,-48.2634
 L 5.31308,-48.5536 L 5.58772,-48.8115 L 5.89252,-49.033 L 6.22266,-49.2145 L 6.57294,-49.3532 L 6.93785,-49.4469
 L 7.31161,-49.4941 L 7.68837,-49.4941 L 8.06213,-49.4469 L 8.42705,-49.3532 L 8.77733,-49.2145 L 9.10747,-49.033
 L 9.41226,-48.8115 L 9.6869,-48.5536 L 9.92705,-48.2634 L 10.1289,-47.9453 L 10.2893,-47.6044 L 10.4057,-47.2461
 L 10.4763,-46.876 L 10.5,-46.5 L 10.4763,-46.124 L 10.4057,-45.7539 L 10.2893,-45.3956 L 10.1289,-45.0547
 L 9.92705,-44.7366 L 9.6869,-44.4464 L 9.41226,-44.1884 L 9.10747,-43.967 L 8.77733,-43.7855 L 8.42705,-43.6468
 L 8.06213,-43.5531 L 7.68837,-43.5059 z
M -0.0941772,-45.0029 L -0.281067,-45.0266 L -0.463516,-45.0734 L -0.638657,-45.1427 L -0.803726,-45.2335 L -0.956131,-45.3442
 L -1.09344,-45.4732 L -1.21352,-45.6183 L -1.31445,-45.7774 L -1.39465,-45.9478 L -1.45287,-46.127 L -1.48816,-46.312
 L -1.5,-46.5 L -1.48816,-46.688 L -1.45287,-46.873 L -1.39465,-47.0522 L -1.31445,-47.2226 L -1.21352,-47.3817
 L -1.09344,-47.5268 L -0.956131,-47.6558 L -0.803726,-47.7665 L -0.638657,-47.8572 L -0.463516,-47.9266 L -0.281067,-47.9734
 L -0.0941772,-47.997 L 0.0941772,-47.997 L 0.281067,-47.9734 L 0.463516,-47.9266 L 0.638657,-47.8572 L 0.803726,-47.7665
 L 0.956131,-47.6558 L 1.09344,-47.5268 L 1.21352,-47.3817 L 1.31445,-47.2226 L 1.39465,-47.0522 L 1.45287,-46.873
 L 1.48816,-46.688 L 1.5,-46.5 L 1.48816,-46.312 L 1.45287,-46.127 L 1.39465,-45.9478 L 1.31445,-45.7774
 L 1.21352,-45.6183 L 1.09344,-45.4732 L 0.956131,-45.3442 L 0.803726,-45.2335 L 0.638657,-45.1427 L 0.463516,-45.0734
 L 0.281067,-45.0266 L 0.0941772,-45.0029 z
M -5.68837,-36.0059 L -6.06213,-36.0531 L -6.42705,-36.1468 L -6.77733,-36.2855 L -7.10747,-36.467 L -7.41226,-36.6885
 L -7.6869,-36.9464 L -7.92705,-37.2366 L -8.12891,-37.5547 L -8.28932,-37.8956 L -8.40575,-38.2539 L -8.47633,-38.624
 L -8.5,-39 L -8.47633,-39.376 L -8.40575,-39.7461 L -8.28932,-40.1044 L -8.12891,-40.4453 L -7.92705,-40.7634
 L -7.6869,-41.0536 L -7.41226,-41.3115 L -7.10747,-41.533 L -6.77733,-41.7145 L -6.42705,-41.8532 L -6.06213,-41.9469
 L -5.68837,-41.9941 L -5.31161,-41.9941 L -4.93785,-41.9469 L -4.57294,-41.8532 L -4.22266,-41.7145 L -3.89252,-41.533
 L -3.58772,-41.3115 L -3.31308,-41.0536 L -3.07294,-40.7634 L -2.87108,-40.4453 L -2.71066,-40.1044 L -2.59424,-39.7461
 L -2.52365,-39.376 L -2.5,-39 L -2.52365,-38.624 L -2.59424,-38.2539 L -2.71066,-37.8956 L -2.87108,-37.5547
 L -3.07294,-37.2366 L -3.31308,-36.9464 L -3.58772,-36.6885 L -3.89252,-36.467 L -4.22266,-36.2855 L -4.57294,-36.1468
 L -4.93785,-36.0531 L -5.31161,-36.0059 z
M 5.31161,-36.0059 L 4.93785,-36.0531 L 4.57294,-36.1468 L 4.22266,-36.2855 L 3.89252,-36.467 L 3.58772,-36.6885
 L 3.31308,-36.9464 L 3.07294,-37.2366 L 2.87108,-37.5547 L 2.71066,-37.8956 L 2.59424,-38.2539 L 2.52365,-38.624
 L 2.5,-39 L 2.52365,-39.376 L 2.59424,-39.7461 L 2.71066,-40.1044 L 2.87108,-40.4453 L 3.07294,-40.7634
 L 3.31308,-41.0536 L 3.58772,-41.3115 L 3.89252,-41.533 L 4.22266,-41.7145 L 4.57294,-41.8532 L 4.93785,-41.9469
 L 5.31161,-41.9941 L 5.68837,-41.9941 L 6.06213,-41.9469 L 6.42705,-41.8532 L 6.77733,-41.7145 L 7.10747,-41.533
 L 7.41226,-41.3115 L 7.6869,-41.0536 L 7.92705,-40.7634 L 8.12891,-40.4453 L 8.28932,-40.1044 L 8.40575,-39.7461
 L 8.47633,-39.376 L 8.5,-39 L 8.47633,-38.624 L 8.40575,-38.2539 L 8.28932,-37.8956 L 8.12891,-37.5547
 L 7.92705,-37.2366 L 7.6869,-36.9464 L 7.41226,-36.6885 L 7.10747,-36.467 L 6.77733,-36.2855 L 6.42705,-36.1468
 L 6.06213,-36.0531 L 5.68837,-36.0059 z
M -7.68837,-28.5059 L -8.06213,-28.5531 L -8.42705,-28.6468 L -8.77733,-28.7855 L -9.10747,-28.967 L -9.41226,-29.1885
 L -9.6869,-29.4464 L -9.92705,-29.7366 L -10.1289,-30.0547 L -10.2893,-30.3956 L -10.4057,-30.7539 L -10.4763,-31.124
 L -10.5,-31.5 L -10.4763,-31.876 L -10.4057,-32.2461 L -10.2893,-32.6044 L -10.1289,-32.9453 L -9.92705,-33.2634
 L -9.6869,-33.5536 L -9.41226,-33.8116 L -9.10747,-34.033 L -8.77733,-34.2145 L -8.42705,-34.3532 L -8.06213,-34.4469
 L -7.68837,-34.4941 L -7.31161,-34.4941 L -6.93785,-34.4469 L -6.57294,-34.3532 L -6.22266,-34.2145 L -5.89252,-34.033
 L -5.58772,-33.8116 L -5.31308,-33.5536 L -5.07294,-33.2634 L -4.87108,-32.9453 L -4.71066,-32.6044 L -4.59424,-32.2461
 L -4.52365,-31.876 L -4.5,-31.5 L -4.52365,-31.124 L -4.59424,-30.7539 L -4.71066,-30.3956 L -4.87108,-30.0547
 L -5.07294,-29.7366 L -5.31308,-29.4464 L -5.58772,-29.1885 L -5.89252,-28.967 L -6.22266,-28.7855 L -6.57294,-28.6468
 L -6.93785,-28.5531 L -7.31161,-28.5059 z
M 7.31161,-28.5059 L 6.93785,-28.5531 L 6.57294,-28.6468 L 6.22266,-28.7855 L 5.89252,-28.967 L 5.58772,-29.1885
 L 5.31308,-29.4464 L 5.07294,-29.7366 L 4.87108,-30.0547 L 4.71066,-30.3956 L 4.59424,-30.7539 L 4.52365,-31.124
 L 4.5,-31.5 L 4.52365,-31.876 L 4.59424,-32.2461 L 4.71066,-32.6044 L 4.87108,-32.9453 L 5.07294,-33.2634
 L 5.31308,-33.5536 L 5.58772,-33.8116 L 5.89252,-34.033 L 6.22266,-34.2145 L 6.57294,-34.3532 L 6.93785,-34.4469
 L 7.31161,-34.4941 L 7.68837,-34.4941 L 8.06213,-34.4469 L 8.42705,-34.3532 L 8.77733,-34.2145 L 9.10747,-34.033
 L 9.41226,-33.8116 L 9.6869,-33.5536 L 9.92705,-33.2634 L 10.1289,-32.9453 L 10.2893,-32.6044 L 10.4057,-32.2461
 L 10.4763,-31.876 L 10.5,-31.5 L 10.4763,-31.124 L 10.4057,-30.7539 L 10.2893,-30.3956 L 10.1289,-30.0547
 L 9.92705,-29.7366 L 9.6869,-29.4464 L 9.41226,-29.1885 L 9.10747,-28.967 L 8.77733,-28.7855 L 8.42705,-28.6468
 L 8.06213,-28.5531 L 7.68837,-28.5059 z
M -0.0941772,-30.003 L -0.281067,-30.0266 L -0.463516,-30.0734 L -0.638657,-30.1428 L -0.803726,-30.2335 L -0.956131,-30.3442
 L -1.09344,-30.4732 L -1.21352,-30.6183 L -1.31445,-30.7774 L -1.39465,-30.9478 L -1.45287,-31.127 L -1.48816,-31.312
 L -1.5,-31.5 L -1.48816,-31.688 L -1.45287,-31.873 L -1.39465,-32.0522 L -1.31445,-32.2226 L -1.21352,-32.3817
 L -1.09344,-32.5268 L -0.956131,-32.6558 L -0.803726,-32.7665 L -0.638657,-32.8573 L -0.463516,-32.9266 L -0.281067,-32.9734
 L -0.0941772,-32.9971 L 0.0941772,-32.9971 L 0.281067,-32.9734 L 0.463516,-32.9266 L 0.638657,-32.8573 L 0.803726,-32.7665
 L 0.956131,-32.6558 L 1.09344,-32.5268 L 1.21352,-32.3817 L 1.31445,-32.2226 L 1.39465,-32.0522 L 1.45287,-31.873
 L 1.48816,-31.688 L 1.5,-31.5 L 1.48816,-31.312 L 1.45287,-31.127 L 1.39465,-30.9478 L 1.31445,-30.7774
 L 1.21352,-30.6183 L 1.09344,-30.4732 L 0.956131,-30.3442 L 0.803726,-30.2335 L 0.638657,-30.1428 L 0.463516,-30.0734
 L 0.281067,-30.0266 L 0.0941772,-30.003 z
" stroke="black" fill="lightgray" stroke-width="0.5"/>
</svg>
