<?xml version="1.0" standalone="no"?>
<!DOCTYPE svg PUBLIC "-//W3C//DTD SVG 1.1//EN" "http://www.w3.org/Graphics/SVG/1.1/DTD/svg11.dtd">
<svg width="164mm" height="44mm" viewBox="-82 -22 164 44" xmlns="http://www.w3.org/2000/svg" version="1.1">
<title>OpenSCAD Model</title>
<path d="
M 77.9369,21.9114 L 78.5451,21.7553 L 79.1289,21.5241 L 79.6791,21.2216 L 80.1871,20.8526 L 80.6448,20.4227
 L 81.0451,19.9389 L 81.3815,19.4088 L 81.6489,18.8406 L 81.8429,18.2434 L 81.9606,17.6267 L 82,17
 L 82,-17 L 81.9606,-17.6267 L 81.8429,-18.2434 L 81.6489,-18.8406 L 81.3815,-19.4088 L 81.0451,-19.9389
 L 80.6448,-20.4227 L 80.1871,-20.8526 L 79.6791,-21.2216 L 79.1289,-21.5241 L 78.5451,-21.7553 L 77.9369,-21.9114
 L 77.3139,-21.9901 L -77.3139,-21.9901 L -77.9369,-21.9114 L -78.5451,-21.7553 L -79.1289,-21.5241 L -79.6791,-21.2216
 L -80.1871,-20.8526 L -80.6448,-20.4227 L -81.0451,-19.9389 L -81.3815,-19.4088 L -81.6489,-18.8406 L -81.8429,-18.2434
 L -81.9606,-17.6267 L -82,-17 L -82,17 L -81.9606,17.6267 L -81.8429,18.2434 L -81.6489,18.8406
 L -81.3815,19.4088 L -81.0451,19.9389 L -80.6448,20.4227 L -80.1871,20.8526 L -79.6791,21.2216 L -79.1289,21.5241
 L -78.5451,21.7553 L -77.9369,21.9114 L -77.3139,21.9901 L 77.3139,21.9901 z
M 74.8116,-12.0059 L 74.4379,-12.0531 L 74.073,-12.1468 L 73.7227,-12.2855 L 73.3925,-12.467 L 73.0877,-12.6884
 L 72.8131,-12.9464 L 72.573,-13.2366 L 72.3711,-13.5547 L 72.2107,-13.8956 L 72.0943,-14.2539 L 72.0237,-14.624
 L 72,-15 L 72.0237,-15.376 L 72.0943,-15.7461 L 72.2107,-16.1044 L 72.3711,-16.4453 L 72.573,-16.7634
 L 72.8131,-17.0536 L 73.0877,-17.3115 L 73.3925,-17.533 L 73.7227,-17.7145 L 74.073,-17.8532 L 74.4379,-17.9469
 L 74.8116,-17.9941 L 75.1884,-17.9941 L 75.5621,-17.9469 L 75.927,-17.8532 L 76.2773,-17.7145 L 76.6075,-17.533
 L 76.9123,-17.3115 L 77.1869,-17.0536 L 77.427,-16.7634 L 77.6289,-16.4453 L 77.7893,-16.1044 L 77.9057,-15.7461
 L 77.9763,-15.376 L 78,-15 L 77.9763,-14.624 L 77.9057,-14.2539 L 77.7893,-13.8956 L 77.6289,-13.5547
 L 77.427,-13.2366 L 77.1869,-12.9464 L 76.9123,-12.6884 L 76.6075,-12.467 L 76.2773,-12.2855 L 75.927,-12.1468
 L 75.5621,-12.0531 L 75.1884,-12.0059 z
M -75.1884,-12.0059 L -75.5621,-12.0531 L -75.927,-12.1468 L -76.2773,-12.2855 L -76.6075,-12.467 L -76.9123,-12.6884
 L -77.1869,-12.9464 L -77.427,-13.2366 L -77.6289,-13.5547 L -77.7893,-13.8956 L -77.9057,-14.2539 L -77.9763,-14.624
 L -78,-15 L -77.9763,-15.376 L -77.9057,-15.7461 L -77.7893,-16.1044 L -77.6289,-16.4453 L -77.427,-16.7634
 L -77.1869,-17.0536 L -76.9123,-17.3115 L -76.6075,-17.533 L -76.2773,-17.7145 L -75.927,-17.8532 L -75.5621,-17.9469
 L -75.1884,-17.9941 L -74.8116,-17.9941 L -74.4379,-17.9469 L -74.073,-17.8532 L -73.7227,-17.7145 L -73.3925,-17.533
 L -73.0877,-17.3115 L -72.8131,-17.0536 L -72.573,-16.7634 L -72.3711,-16.4453 L -72.2107,-16.1044 L -72.0943,-15.7461
 L -72.0237,-15.376 L -72,-15 L -72.0237,-14.624 L -72.0943,-14.2539 L -72.2107,-13.8956 L -72.3711,-13.5547
 L -72.573,-13.2366 L -72.8131,-12.9464 L -73.0877,-12.6884 L -73.3925,-12.467 L -73.7227,-12.2855 L -74.073,-12.1468
 L -74.4379,-12.0531 L -74.8116,-12.0059 z
M 30.1837,12.9743 L 28.564,12.7697 L 26.9828,12.3637 L 25.4649,11.7627 L 24.0342,10.9763 L 22.7135,10.0167
 L 21.5234,8.89911 L 20.4828,7.6412 L 19.608,6.26279 L 18.9129,4.78561 L 18.4084,3.23296 L 18.1025,1.62932
 L 18,-0 L 18.1025,-1.62932 L 18.4084,-3.23296 L 18.9129,-4.78561 L 19.608,-6.26279 L 20.4828,-7.6412
 L 21.5234,-8.89911 L 22.7135,-10.0167 L 24.0342,-10.9763 L 25.4649,-11.7627 L 26.9828,-12.3637 L 28.564,-12.7697
 L 30.1837,-12.9743 L 31.8163,-12.9743 L 33.436,-12.7697 L 35.0172,-12.3637 L 36.5351,-11.7627 L 37.9657,-10.9763
 L 39.2865,-10.0167 L 40.4766,-8.89911 L 41.5172,-7.6412 L 42.392,-6.26279 L 43.0871,-4.78561 L 43.5916,-3.23296
 L 43.8975,-1.62932 L 44,-0 L 43.8975,1.62932 L 43.5916,3.23296 L 43.0871,4.78561 L 42.392,6.26279
 L 41.5172,7.6412 L 40.4766,8.89911 L 39.2865,10.0167 L 37.9657,10.9763 L 36.5351,11.7627 L 35.0172,12.3637
 L 33.436,12.7697 L 31.8163,12.9743 z
M -62.8163,12.9743 L -64.436,12.7697 L -66.0172,12.3637 L -67.5351,11.7627 L -68.9657,10.9763 L -70.2865,10.0167
 L -71.4766,8.89911 L -72.5172,7.6412 L -73.392,6.26279 L -74.0871,4.78561 L -74.5916,3.23296 L -74.8975,1.62932
 L -75,-0 L -74.8975,-1.62932 L -74.5916,-3.23296 L -74.0871,-4.78561 L -73.392,-6.26279 L -72.5172,-7.6412
 L -71.4766,-8.89911 L -70.2865,-10.0167 L -68.9657,-10.9763 L -67.5351,-11.7627 L -66.0172,-12.3637 L -64.436,-12.7697
 L -62.8163,-12.9743 L -61.1837,-12.9743 L -59.564,-12.7697 L -57.9828,-12.3637 L -56.4649,-11.7627 L -55.0342,-10.9763
 L -53.7135,-10.0167 L -52.5234,-8.89911 L -51.4828,-7.6412 L -50.608,-6.26279 L -49.9129,-4.78561 L -49.4084,-3.23296
 L -49.1025,-1.62932 L -49,-0 L -49.1025,1.62932 L -49.4084,3.23296 L -49.9129,4.78561 L -50.608,6.26279
 L -51.4828,7.6412 L -52.5234,8.89911 L -53.7135,10.0167 L -55.0342,10.9763 L -56.4649,11.7627 L -57.9828,12.3637
 L -59.564,12.7697 L -61.1837,12.9743 z
M 61.1837,12.9743 L 59.564,12.7697 L 57.9828,12.3637 L 56.4649,11.7627 L 55.0342,10.9763 L 53.7135,10.0167
 L 52.5234,8.89911 L 51.4828,7.6412 L 50.608,6.26279 L 49.9129,4.78561 L 49.4084,3.23296 L 49.1025,1.62932
 L 49,-0 L 49.1025,-1.62932 L 49.4084,-3.23296 L 49.9129,-4.78561 L 50.608,-6.26279 L 51.4828,-7.6412
 L 52.5234,-8.89911 L 53.7135,-10.0167 L 55.0342,-10.9763 L 56.4649,-11.7627 L 57.9828,-12.3637 L 59.564,-12.7697
 L 61.1837,-12.9743 L 62.8163,-12.9743 L 64.436,-12.7697 L 66.0172,-12.3637 L 67.5351,-11.7627 L 68.9657,-10.9763
 L 70.2865,-10.0167 L 71.4766,-8.89911 L 72.5172,-7.6412 L 73.392,-6.26279 L 74.0871,-4.78561 L 74.5916,-3.23296
 L 74.8975,-1.62932 L 75,-0 L 74.8975,1.62932 L 74.5916,3.23296 L 74.0871,4.78561 L 73.392,6.26279
 L 72.5172,7.6412 L 71.4766,8.89911 L 70.2865,10.0167 L 68.9657,10.9763 L 67.5351,11.7627 L 66.0172,12.3637
 L 64.436,12.7697 L 62.8163,12.9743 z
M -0.816269,12.9743 L -2.43594,12.7697 L -4.01721,12.3637 L -5.53513,11.7627 L -6.96574,10.9763 L -8.2865,10.0167
 L -9.47658,8.89911 L -10.5172,7.6412 L -11.392,6.26279 L -12.0871,4.78561 L -12.5916,3.23296 L -12.8975,1.62932
 L -13,-0 L -12.8975,-1.62932 L -12.5916,-3.23296 L -12.0871,-4.78561 L -11.392,-6.26279 L -10.5172,-7.6412
 L -9.47658,-8.89911 L -8.2865,-10.0167 L -6.96574,-10.9763 L -5.53513,-11.7627 L -4.01721,-12.3637 L -2.43594,-12.7697
 L -0.816269,-12.9743 L 0.816269,-12.9743 L 2.43594,-12.7697 L 4.01721,-12.3637 L 5.53513,-11.7627 L 6.96574,-10.9763
 L 8.2865,-10.0167 L 9.47658,-8.89911 L 10.5172,-7.6412 L 11.392,-6.26279 L 12.0871,-4.78561 L 12.5916,-3.23296
 L 12.8975,-1.62932 L 13,-0 L 12.8975,1.62932 L 12.5916,3.23296 L 12.0871,4.78561 L 11.392,6.26279
 L 10.5172,7.6412 L 9.47658,8.89911 L 8.2865,10.0167 L 6.96574,10.9763 L 5.53513,11.7627 L 4.01721,12.3637
 L 2.43594,12.7697 L 0.816269,12.9743 z
M -31.8163,12.9743 L -33.436,12.7697 L -35.0172,12.3637 L -36.5351,11.7627 L -37.9657,10.9763 L -39.2865,10.0167
 L -40.4766,8.89911 L -41.5172,7.6412 L -42.392,6.26279 L -43.0871,4.78561 L -43.5916,3.23296 L -43.8975,1.62932
 L -44,-0 L -43.8975,-1.62932 L -43.5916,-3.23296 L -43.0871,-4.78561 L -42.392,-6.26279 L -41.5172,-7.6412
 L -40.4766,-8.89911 L -39.2865,-10.0167 L -37.9657,-10.9763 L -36.5351,-11.7627 L -35.0172,-12.3637 L -33.436,-12.7697
 L -31.8163,-12.9743 L -30.1837,-12.9743 L -28.564,-12.7697 L -26.9828,-12.3637 L -25.4649,-11.7627 L -24.0342,-10.9763
 L -22.7135,-10.0167 L -21.5234,-8.89911 L -20.4828,-7.6412 L -19.608,-6.26279 L -18.9129,-4.78561 L -18.4084,-3.23296
 L -18.1025,-1.62932 L -18,-0 L -18.1025,1.62932 L -18.4084,3.23296 L -18.9129,4.78561 L -19.608,6.26279
 L -20.4828,7.6412 L -21.5234,8.89911 L -22.7135,10.0167 L -24.0342,10.9763 L -25.4649,11.7627 L -26.9828,12.3637
 L -28.564,12.7697 L -30.1837,12.9743 z
M -75.1884,17.9941 L -75.5621,17.9469 L -75.927,17.8532 L -76.2773,17.7145 L -76.6075,17.533 L -76.9123,17.3115
 L -77.1869,17.0536 L -77.427,16.7634 L -77.6289,16.4453 L -77.7893,16.1044 L -77.9057,15.7461 L -77.9763,15.376
 L -78,15 L -77.9763,14.624 L -77.9057,14.2539 L -77.7893,13.8956 L -77.6289,13.5547 L -77.427,13.2366
 L -77.1869,12.9464 L -76.9123,12.6884 L -76.6075,12.467 L -76.2773,12.2855 L -75.927,12.1468 L -75.5621,12.0531
 L -75.1884,12.0059 L -74.8116,12.0059 L -74.4379,12.0531 L -74.073,12.1468 L -73.7227,12.2855 L -73.3925,12.467
 L -73.0877,12.6884 L -72.8131,12.9464 L -72.573,13.2366 L -72.3711,13.5547 L -72.2107,13.8956 L -72.0943,14.2539
 L -72.0237,14.624 L -72,15 L -72.0237,15.376 L -72.0943,15.7461 L -72.2107,16.1044 L -72.3711,16.4453
 L -72.573,16.7634 L -72.8131,17.0536 L -73.0877,17.3115 L -73.3925,17.533 L -73.7227,17.7145 L -74.073,17.8532
 L -74.4379,17.9469 L -74.8116,17.9941 z
M 74.8116,17.9941 L 74.4379,17.9469 L 74.073,17.8532 L 73.7227,17.7145 L 73.3925,17.533 L 73.0877,17.3115
 L 72.8131,17.0536 L 72.573,16.7634 L 72.3711,16.4453 L 72.2107,16.1044 L 72.0943,15.7461 L 72.0237,15.376
 L 72,15 L 72.0237,14.624 L 72.0943,14.2539 L 72.2107,13.8956 L 72.3711,13.5547 L 72.573,13.2366
 L 72.8131,12.9464 L 73.0877,12.6884 L 73.3925,12.467 L 73.7227,12.2855 L 74.073,12.1468 L 74.4379,12.0531
 L 74.8116,12.0059 L 75.1884,12.0059 L 75.5621,12.0531 L 75.927,12.1468 L 76.2773,12.2855 L 76.6075,12.467
 L 76.9123,12.6884 L 77.1869,12.9464 L 77.427,13.2366 L 77.6289,13.5547 L 77.7893,13.8956 L 77.9057,14.2539
 L 77.9763,14.624 L 78,15 L 77.9763,15.376 L 77.9057,15.7461 L 77.7893,16.1044 L 77.6289,16.4453
 L 77.427,16.7634 L 77.1869,17.0536 L 76.9123,17.3115 L 76.6075,17.533 L 76.2773,17.7145 L 75.927,17.8532
 L 75.5621,17.9469 L 75.1884,17.9941 z
" stroke="black" fill="lightgray" stroke-width="0.5"/>
</svg>
