<?xml version="1.0" standalone="no"?>
<!DOCTYPE svg PUBLIC "-//W3C//DTD SVG 1.1//EN" "http://www.w3.org/Graphics/SVG/1.1/DTD/svg11.dtd">
<svg width="104mm" height="120mm" viewBox="-52 -60 104 120" xmlns="http://www.w3.org/2000/svg" version="1.1">
<title>OpenSCAD Model</title>
<path d="
M 47.9369,59.4114 L 48.5451,59.2553 L 49.1289,59.0241 L 49.6791,58.7216 L 50.1871,58.3526 L 50.6448,57.9227
 L 51.0451,57.4389 L 51.3815,56.9088 L 51.6489,56.3406 L 51.8429,55.7434 L 51.9606,55.1267 L 52,54.5
 L 52,-54.5 L 51.9606,-55.1267 L 51.8429,-55.7434 L 51.6489,-56.3406 L 51.3815,-56.9088 L 51.0451,-57.4389
 L 50.6448,-57.9227 L 50.1871,-58.3526 L 49.6791,-58.7216 L 49.1289,-59.0241 L 48.5451,-59.2553 L 47.9369,-59.4114
 L 47.3139,-59.4901 L -47.3139,-59.4901 L -47.9369,-59.4114 L -48.5451,-59.2553 L -49.1289,-59.0241 L -49.6791,-58.7216
 L -50.1871,-58.3526 L -50.6448,-57.9227 L -51.0451,-57.4389 L -51.3815,-56.9088 L -51.6489,-56.3406 L -51.8429,-55.7434
 L -51.9606,-55.1267 L -52,-54.5 L -52,54.5 L -51.9606,55.1267 L -51.8429,55.7434 L -51.6489,56.3406
 L -51.3815,56.9088 L -51.0451,57.4389 L -50.6448,57.9227 L -50.1871,58.3526 L -49.6791,58.7216 L -49.1289,59.0241
 L -48.5451,59.2553 L -47.9369,59.4114 L -47.3139,59.4901 L 47.3139,59.4901 z
M 44.8116,-49.5059 L 44.4379,-49.5531 L 44.0729,-49.6468 L 43.7227,-49.7855 L 43.3925,-49.967 L 43.0877,-50.1885
 L 42.8131,-50.4464 L 42.5729,-50.7366 L 42.3711,-51.0547 L 42.2107,-51.3956 L 42.0942,-51.7539 L 42.0237,-52.124
 L 42,-52.5 L 42.0237,-52.876 L 42.0942,-53.2461 L 42.2107,-53.6044 L 42.3711,-53.9453 L 42.5729,-54.2634
 L 42.8131,-54.5536 L 43.0877,-54.8115 L 43.3925,-55.033 L 43.7227,-55.2145 L 44.0729,-55.3532 L 44.4379,-55.4469
 L 44.8116,-55.4941 L 45.1884,-55.4941 L 45.5621,-55.4469 L 45.927,-55.3532 L 46.2773,-55.2145 L 46.6075,-55.033
 L 46.9123,-54.8115 L 47.1869,-54.5536 L 47.427,-54.2634 L 47.6289,-53.9453 L 47.7893,-53.6044 L 47.9057,-53.2461
 L 47.9763,-52.876 L 48,-52.5 L 47.9763,-52.124 L 47.9057,-51.7539 L 47.7893,-51.3956 L 47.6289,-51.0547
 L 47.427,-50.7366 L 47.1869,-50.4464 L 46.9123,-50.1885 L 46.6075,-49.967 L 46.2773,-49.7855 L 45.927,-49.6468
 L 45.5621,-49.5531 L 45.1884,-49.5059 z
M -30.1884,-49.5059 L -30.5621,-49.5531 L -30.927,-49.6468 L -31.2773,-49.7855 L -31.6075,-49.967 L -31.9123,-50.1885
 L -32.1869,-50.4464 L -32.427,-50.7366 L -32.6289,-51.0547 L -32.7893,-51.3956 L -32.9057,-51.7539 L -32.9763,-52.124
 L -33,-52.5 L -32.9763,-52.876 L -32.9057,-53.2461 L -32.7893,-53.6044 L -32.6289,-53.9453 L -32.427,-54.2634
 L -32.1869,-54.5536 L -31.9123,-54.8115 L -31.6075,-55.033 L -31.2773,-55.2145 L -30.927,-55.3532 L -30.5621,-55.4469
 L -30.1884,-55.4941 L -29.8116,-55.4941 L -29.4379,-55.4469 L -29.0729,-55.3532 L -28.7227,-55.2145 L -28.3925,-55.033
 L -28.0877,-54.8115 L -27.8131,-54.5536 L -27.5729,-54.2634 L -27.3711,-53.9453 L -27.2107,-53.6044 L -27.0942,-53.2461
 L -27.0237,-52.876 L -27,-52.5 L -27.0237,-52.124 L -27.0942,-51.7539 L -27.2107,-51.3956 L -27.3711,-51.0547
 L -27.5729,-50.7366 L -27.8131,-50.4464 L -28.0877,-50.1885 L -28.3925,-49.967 L -28.7227,-49.7855 L -29.0729,-49.6468
 L -29.4379,-49.5531 L -29.8116,-49.5059 z
M -15.1884,-49.5059 L -15.5621,-49.5531 L -15.927,-49.6468 L -16.2773,-49.7855 L -16.6075,-49.967 L -16.9123,-50.1885
 L -17.1869,-50.4464 L -17.427,-50.7366 L -17.6289,-51.0547 L -17.7893,-51.3956 L -17.9057,-51.7539 L -17.9763,-52.124
 L -18,-52.5 L -17.9763,-52.876 L -17.9057,-53.2461 L -17.7893,-53.6044 L -17.6289,-53.9453 L -17.427,-54.2634
 L -17.1869,-54.5536 L -16.9123,-54.8115 L -16.6075,-55.033 L -16.2773,-55.2145 L -15.927,-55.3532 L -15.5621,-55.4469
 L -15.1884,-55.4941 L -14.8116,-55.4941 L -14.4379,-55.4469 L -14.0729,-55.3532 L -13.7227,-55.2145 L -13.3925,-55.033
 L -13.0877,-54.8115 L -12.8131,-54.5536 L -12.5729,-54.2634 L -12.3711,-53.9453 L -12.2107,-53.6044 L -12.0942,-53.2461
 L -12.0237,-52.876 L -12,-52.5 L -12.0237,-52.124 L -12.0942,-51.7539 L -12.2107,-51.3956 L -12.3711,-51.0547
 L -12.5729,-50.7366 L -12.8131,-50.4464 L -13.0877,-50.1885 L -13.3925,-49.967 L -13.7227,-49.7855 L -14.0729,-49.6468
 L -14.4379,-49.5531 L -14.8116,-49.5059 z
M 14.8116,-49.5059 L 14.4379,-49.5531 L 14.0729,-49.6468 L 13.7227,-49.7855 L 13.3925,-49.967 L 13.0877,-50.1885
 L 12.8131,-50.4464 L 12.5729,-50.7366 L 12.3711,-51.0547 L 12.2107,-51.3956 L 12.0942,-51.7539 L 12.0237,-52.124
 L 12,-52.5 L 12.0237,-52.876 L 12.0942,-53.2461 L 12.2107,-53.6044 L 12.3711,-53.9453 L 12.5729,-54.2634
 L 12.8131,-54.5536 L 13.0877,-54.8115 L 13.3925,-55.033 L 13.7227,-55.2145 L 14.0729,-55.3532 L 14.4379,-55.4469
 L 14.8116,-55.4941 L 15.1884,-55.4941 L 15.5621,-55.4469 L 15.927,-55.3532 L 16.2773,-55.2145 L 16.6075,-55.033
 L 16.9123,-54.8115 L 17.1869,-54.5536 L 17.427,-54.2634 L 17.6289,-53.9453 L 17.7893,-53.6044 L 17.9057,-53.2461
 L 17.9763,-52.876 L 18,-52.5 L 17.9763,-52.124 L 17.9057,-51.7539 L 17.7893,-51.3956 L 17.6289,-51.0547
 L 17.427,-50.7366 L 17.1869,-50.4464 L 16.9123,-50.1885 L 16.6075,-49.967 L 16.2773,-49.7855 L 15.927,-49.6468
 L 15.5621,-49.5531 L 15.1884,-49.5059 z
M -45.1884,-49.5059 L -45.5621,-49.5531 L -45.927,-49.6468 L -46.2773,-49.7855 L -46.6075,-49.967 L -46.9123,-50.1885
 L -47.1869,-50.4464 L -47.427,-50.7366 L -47.6289,-51.0547 L -47.7893,-51.3956 L -47.9057,-51.7539 L -47.9763,-52.124
 L -48,-52.5 L -47.9763,-52.876 L -47.9057,-53.2461 L -47.7893,-53.6044 L -47.6289,-53.9453 L -47.427,-54.2634
 L -47.1869,-54.5536 L -46.9123,-54.8115 L -46.6075,-55.033 L -46.2773,-55.2145 L -45.927,-55.3532 L -45.5621,-55.4469
 L -45.1884,-55.4941 L -44.8116,-55.4941 L -44.4379,-55.4469 L -44.0729,-55.3532 L -43.7227,-55.2145 L -43.3925,-55.033
 L -43.0877,-54.8115 L -42.8131,-54.5536 L -42.5729,-54.2634 L -42.3711,-53.9453 L -42.2107,-53.6044 L -42.0942,-53.2461
 L -42.0237,-52.876 L -42,-52.5 L -42.0237,-52.124 L -42.0942,-51.7539 L -42.2107,-51.3956 L -42.3711,-51.0547
 L -42.5729,-50.7366 L -42.8131,-50.4464 L -43.0877,-50.1885 L -43.3925,-49.967 L -43.7227,-49.7855 L -44.0729,-49.6468
 L -44.4379,-49.5531 L -44.8116,-49.5059 z
M -0.18837,-49.5059 L -0.562134,-49.5531 L -0.927048,-49.6468 L -1.27733,-49.7855 L -1.60747,-49.967 L -1.91226,-50.1885
 L -2.1869,-50.4464 L -2.42705,-50.7366 L -2.62891,-51.0547 L -2.78932,-51.3956 L -2.90575,-51.7539 L -2.97633,-52.124
 L -3,-52.5 L -2.97633,-52.876 L -2.90575,-53.2461 L -2.78932,-53.6044 L -2.62891,-53.9453 L -2.42705,-54.2634
 L -2.1869,-54.5536 L -1.91226,-54.8115 L -1.60747,-55.033 L -1.27733,-55.2145 L -0.927048,-55.3532 L -0.562134,-55.4469
 L -0.18837,-55.4941 L 0.18837,-55.4941 L 0.562134,-55.4469 L 0.927048,-55.3532 L 1.27733,-55.2145 L 1.60747,-55.033
 L 1.91226,-54.8115 L 2.1869,-54.5536 L 2.42705,-54.2634 L 2.62891,-53.9453 L 2.78932,-53.6044 L 2.90575,-53.2461
 L 2.97633,-52.876 L 3,-52.5 L 2.97633,-52.124 L 2.90575,-51.7539 L 2.78932,-51.3956 L 2.62891,-51.0547
 L 2.42705,-50.7366 L 2.1869,-50.4464 L 1.91226,-50.1885 L 1.60747,-49.967 L 1.27733,-49.7855 L 0.927048,-49.6468
 L 0.562134,-49.5531 L 0.18837,-49.5059 z
M 29.8116,-49.5059 L 29.4379,-49.5531 L 29.0729,-49.6468 L 28.7227,-49.7855 L 28.3925,-49.967 L 28.0877,-50.1885
 L 27.8131,-50.4464 L 27.5729,-50.7366 L 27.3711,-51.0547 L 27.2107,-51.3956 L 27.0942,-51.7539 L 27.0237,-52.124
 L 27,-52.5 L 27.0237,-52.876 L 27.0942,-53.2461 L 27.2107,-53.6044 L 27.3711,-53.9453 L 27.5729,-54.2634
 L 27.8131,-54.5536 L 28.0877,-54.8115 L 28.3925,-55.033 L 28.7227,-55.2145 L 29.0729,-55.3532 L 29.4379,-55.4469
 L 29.8116,-55.4941 L 30.1884,-55.4941 L 30.5621,-55.4469 L 30.927,-55.3532 L 31.2773,-55.2145 L 31.6075,-55.033
 L 31.9123,-54.8115 L 32.1869,-54.5536 L 32.427,-54.2634 L 32.6289,-53.9453 L 32.7893,-53.6044 L 32.9057,-53.2461
 L 32.9763,-52.876 L 33,-52.5 L 32.9763,-52.124 L 32.9057,-51.7539 L 32.7893,-51.3956 L 32.6289,-51.0547
 L 32.427,-50.7366 L 32.1869,-50.4464 L 31.9123,-50.1885 L 31.6075,-49.967 L 31.2773,-49.7855 L 30.927,-49.6468
 L 30.5621,-49.5531 L 30.1884,-49.5059 z
M 37.4058,-51.003 L 37.2189,-51.0266 L 37.0365,-51.0734 L 36.8613,-51.1428 L 36.6963,-51.2335 L 36.5439,-51.3442
 L 36.4065,-51.4732 L 36.2865,-51.6183 L 36.1855,-51.7774 L 36.1053,-51.9478 L 36.0471,-52.127 L 36.0118,-52.312
 L 36,-52.5 L 36.0118,-52.688 L 36.0471,-52.873 L 36.1053,-53.0522 L 36.1855,-53.2226 L 36.2865,-53.3817
 L 36.4065,-53.5268 L 36.5439,-53.6558 L 36.6963,-53.7665 L 36.8613,-53.8572 L 37.0365,-53.9266 L 37.2189,-53.9734
 L 37.4058,-53.997 L 37.5942,-53.997 L 37.7811,-53.9734 L 37.9635,-53.9266 L 38.1387,-53.8572 L 38.3037,-53.7665
 L 38.4561,-53.6558 L 38.5934,-53.5268 L 38.7135,-53.3817 L 38.8145,-53.2226 L 38.8947,-53.0522 L 38.9529,-52.873
 L 38.9882,-52.688 L 39,-52.5 L 38.9882,-52.312 L 38.9529,-52.127 L 38.8947,-51.9478 L 38.8145,-51.7774
 L 38.7135,-51.6183 L 38.5934,-51.4732 L 38.4561,-51.3442 L 38.3037,-51.2335 L 38.1387,-51.1428 L 37.9635,-51.0734
 L 37.7811,-51.0266 L 37.5942,-51.003 z
M 7.40581,-51.003 L 7.21892,-51.0266 L 7.03647,-51.0734 L 6.86133,-51.1428 L 6.69626,-51.2335 L 6.54385,-51.3442
 L 6.40654,-51.4732 L 6.28647,-51.6183 L 6.18553,-51.7774 L 6.10533,-51.9478 L 6.04712,-52.127 L 6.01183,-52.312
 L 6,-52.5 L 6.01183,-52.688 L 6.04712,-52.873 L 6.10533,-53.0522 L 6.18553,-53.2226 L 6.28647,-53.3817
 L 6.40654,-53.5268 L 6.54385,-53.6558 L 6.69626,-53.7665 L 6.86133,-53.8572 L 7.03647,-53.9266 L 7.21892,-53.9734
 L 7.40581,-53.997 L 7.59418,-53.997 L 7.78107,-53.9734 L 7.96352,-53.9266 L 8.13866,-53.8572 L 8.30373,-53.7665
 L 8.45613,-53.6558 L 8.59344,-53.5268 L 8.71352,-53.3817 L 8.81445,-53.2226 L 8.89465,-53.0522 L 8.95287,-52.873
 L 8.98816,-52.688 L 9,-52.5 L 8.98816,-52.312 L 8.95287,-52.127 L 8.89465,-51.9478 L 8.81445,-51.7774
 L 8.71352,-51.6183 L 8.59344,-51.4732 L 8.45613,-51.3442 L 8.30373,-51.2335 L 8.13866,-51.1428 L 7.96352,-51.0734
 L 7.78107,-51.0266 L 7.59418,-51.003 z
M -22.5942,-51.003 L -22.7811,-51.0266 L -22.9635,-51.0734 L -23.1387,-51.1428 L -23.3037,-51.2335 L -23.4561,-51.3442
 L -23.5934,-51.4732 L -23.7135,-51.6183 L -23.8145,-51.7774 L -23.8947,-51.9478 L -23.9529,-52.127 L -23.9882,-52.312
 L -24,-52.5 L -23.9882,-52.688 L -23.9529,-52.873 L -23.8947,-53.0522 L -23.8145,-53.2226 L -23.7135,-53.3817
 L -23.5934,-53.5268 L -23.4561,-53.6558 L -23.3037,-53.7665 L -23.1387,-53.8572 L -22.9635,-53.9266 L -22.7811,-53.9734
 L -22.5942,-53.997 L -22.4058,-53.997 L -22.2189,-53.9734 L -22.0365,-53.9266 L -21.8613,-53.8572 L -21.6963,-53.7665
 L -21.5439,-53.6558 L -21.4065,-53.5268 L -21.2865,-53.3817 L -21.1855,-53.2226 L -21.1053,-53.0522 L -21.0471,-52.873
 L -21.0118,-52.688 L -21,-52.5 L -21.0118,-52.312 L -21.0471,-52.127 L -21.1053,-51.9478 L -21.1855,-51.7774
 L -21.2865,-51.6183 L -21.4065,-51.4732 L -21.5439,-51.3442 L -21.6963,-51.2335 L -21.8613,-51.1428 L -22.0365,-51.0734
 L -22.2189,-51.0266 L -22.4058,-51.003 z
M 22.4058,-51.003 L 22.2189,-51.0266 L 22.0365,-51.0734 L 21.8613,-51.1428 L 21.6963,-51.2335 L 21.5439,-51.3442
 L 21.4065,-51.4732 L 21.2865,-51.6183 L 21.1855,-51.7774 L 21.1053,-51.9478 L 21.0471,-52.127 L 21.0118,-52.312
 L 21,-52.5 L 21.0118,-52.688 L 21.0471,-52.873 L 21.1053,-53.0522 L 21.1855,-53.2226 L 21.2865,-53.3817
 L 21.4065,-53.5268 L 21.5439,-53.6558 L 21.6963,-53.7665 L 21.8613,-53.8572 L 22.0365,-53.9266 L 22.2189,-53.9734
 L 22.4058,-53.997 L 22.5942,-53.997 L 22.7811,-53.9734 L 22.9635,-53.9266 L 23.1387,-53.8572 L 23.3037,-53.7665
 L 23.4561,-53.6558 L 23.5934,-53.5268 L 23.7135,-53.3817 L 23.8145,-53.2226 L 23.8947,-53.0522 L 23.9529,-52.873
 L 23.9882,-52.688 L 24,-52.5 L 23.9882,-52.312 L 23.9529,-52.127 L 23.8947,-51.9478 L 23.8145,-51.7774
 L 23.7135,-51.6183 L 23.5934,-51.4732 L 23.4561,-51.3442 L 23.3037,-51.2335 L 23.1387,-51.1428 L 22.9635,-51.0734
 L 22.7811,-51.0266 L 22.5942,-51.003 z
M -7.59418,-51.003 L -7.78107,-51.0266 L -7.96352,-51.0734 L -8.13866,-51.1428 L -8.30373,-51.2335 L -8.45613,-51.3442
 L -8.59344,-51.4732 L -8.71352,-51.6183 L -8.81445,-51.7774 L -8.89465,-51.9478 L -8.95287,-52.127 L -8.98816,-52.312
 L -9,-52.5 L -8.98816,-52.688 L -8.95287,-52.873 L -8.89465,-53.0522 L -8.81445,-53.2226 L -8.71352,-53.3817
 L -8.59344,-53.5268 L -8.45613,-53.6558 L -8.30373,-53.7665 L -8.13866,-53.8572 L -7.96352,-53.9266 L -7.78107,-53.9734
 L -7.59418,-53.997 L -7.40581,-53.997 L -7.21892,-53.9734 L -7.03647,-53.9266 L -6.86133,-53.8572 L -6.69626,-53.7665
 L -6.54385,-53.6558 L -6.40654,-53.5268 L -6.28647,-53.3817 L -6.18553,-53.2226 L -6.10533,-53.0522 L -6.04712,-52.873
 L -6.01183,-52.688 L -6,-52.5 L -6.01183,-52.312 L -6.04712,-52.127 L -6.10533,-51.9478 L -6.18553,-51.7774
 L -6.28647,-51.6183 L -6.40654,-51.4732 L -6.54385,-51.3442 L -6.69626,-51.2335 L -6.86133,-51.1428 L -7.03647,-51.0734
 L -7.21892,-51.0266 L -7.40581,-51.003 z
M -37.5942,-51.003 L -37.7811,-51.0266 L -37.9635,-51.0734 L -38.1387,-51.1428 L -38.3037,-51.2335 L -38.4561,-51.3442
 L -38.5934,-51.4732 L -38.7135,-51.6183 L -38.8145,-51.7774 L -38.8947,-51.9478 L -38.9529,-52.127 L -38.9882,-52.312
 L -39,-52.5 L -38.9882,-52.688 L -38.9529,-52.873 L -38.8947,-53.0522 L -38.8145,-53.2226 L -38.7135,-53.3817
 L -38.5934,-53.5268 L -38.4561,-53.6558 L -38.3037,-53.7665 L -38.1387,-53.8572 L -37.9635,-53.9266 L -37.7811,-53.9734
 L -37.5942,-53.997 L -37.4058,-53.997 L -37.2189,-53.9734 L -37.0365,-53.9266 L -36.8613,-53.8572 L -36.6963,-53.7665
 L -36.5439,-53.6558 L -36.4065,-53.5268 L -36.2865,-53.3817 L -36.1855,-53.2226 L -36.1053,-53.0522 L -36.0471,-52.873
 L -36.0118,-52.688 L -36,-52.5 L -36.0118,-52.312 L -36.0471,-52.127 L -36.1053,-51.9478 L -36.1855,-51.7774
 L -36.2865,-51.6183 L -36.4065,-51.4732 L -36.5439,-51.3442 L -36.6963,-51.2335 L -36.8613,-51.1428 L -37.0365,-51.0734
 L -37.2189,-51.0266 L -37.4058,-51.003 z
M -2.98254,47.4063 L -8.9006,46.6586 L -14.6783,45.1752 L -20.2245,42.9793 L -25.4518,40.1056 L -30.2776,36.5994
 L -34.626,32.516 L -38.4283,27.9198 L -41.6246,22.8833 L -44.1644,17.4859 L -46.0077,11.8128 L -47.1254,5.95332
 L -47.5,-0 L -47.1254,-5.95332 L -46.0077,-11.8128 L -44.1644,-17.4859 L -41.6246,-22.8833 L -38.4283,-27.9198
 L -34.626,-32.516 L -30.2776,-36.5994 L -25.4518,-40.1056 L -20.2245,-42.9793 L -14.6783,-45.1752 L -8.9006,-46.6586
 L -2.98254,-47.4063 L 2.98254,-47.4063 L 8.9006,-46.6586 L 14.6783,-45.1752 L 20.2245,-42.9793 L 25.4518,-40.1056
 L 30.2776,-36.5994 L 34.626,-32.516 L 38.4283,-27.9198 L 41.6246,-22.8833 L 44.1644,-17.4859 L 46.0077,-11.8128
 L 47.1254,-5.95332 L 47.5,-0 L 47.1254,5.95332 L 46.0077,11.8128 L 44.1644,17.4859 L 41.6246,22.8833
 L 38.4283,27.9198 L 34.626,32.516 L 30.2776,36.5994 L 25.4518,40.1056 L 20.2245,42.9793 L 14.6783,45.1752
 L 8.9006,46.6586 L 2.98254,47.4063 z
M 14.8116,55.4941 L 14.4379,55.4469 L 14.0729,55.3532 L 13.7227,55.2145 L 13.3925,55.033 L 13.0877,54.8115
 L 12.8131,54.5536 L 12.5729,54.2634 L 12.3711,53.9453 L 12.2107,53.6044 L 12.0942,53.2461 L 12.0237,52.876
 L 12,52.5 L 12.0237,52.124 L 12.0942,51.7539 L 12.2107,51.3956 L 12.3711,51.0547 L 12.5729,50.7366
 L 12.8131,50.4464 L 13.0877,50.1885 L 13.3925,49.967 L 13.7227,49.7855 L 14.0729,49.6468 L 14.4379,49.5531
 L 14.8116,49.5059 L 15.1884,49.5059 L 15.5621,49.5531 L 15.927,49.6468 L 16.2773,49.7855 L 16.6075,49.967
 L 16.9123,50.1885 L 17.1869,50.4464 L 17.427,50.7366 L 17.6289,51.0547 L 17.7893,51.3956 L 17.9057,51.7539
 L 17.9763,52.124 L 18,52.5 L 17.9763,52.876 L 17.9057,53.2461 L 17.7893,53.6044 L 17.6289,53.9453
 L 17.427,54.2634 L 17.1869,54.5536 L 16.9123,54.8115 L 16.6075,55.033 L 16.2773,55.2145 L 15.927,55.3532
 L 15.5621,55.4469 L 15.1884,55.4941 z
M -15.1884,55.4941 L -15.5621,55.4469 L -15.927,55.3532 L -16.2773,55.2145 L -16.6075,55.033 L -16.9123,54.8115
 L -17.1869,54.5536 L -17.427,54.2634 L -17.6289,53.9453 L -17.7893,53.6044 L -17.9057,53.2461 L -17.9763,52.876
 L -18,52.5 L -17.9763,52.124 L -17.9057,51.7539 L -17.7893,51.3956 L -17.6289,51.0547 L -17.427,50.7366
 L -17.1869,50.4464 L -16.9123,50.1885 L -16.6075,49.967 L -16.2773,49.7855 L -15.927,49.6468 L -15.5621,49.5531
 L -15.1884,49.5059 L -14.8116,49.5059 L -14.4379,49.5531 L -14.0729,49.6468 L -13.7227,49.7855 L -13.3925,49.967
 L -13.0877,50.1885 L -12.8131,50.4464 L -12.5729,50.7366 L -12.3711,51.0547 L -12.2107,51.3956 L -12.0942,51.7539
 L -12.0237,52.124 L -12,52.5 L -12.0237,52.876 L -12.0942,53.2461 L -12.2107,53.6044 L -12.3711,53.9453
 L -12.5729,54.2634 L -12.8131,54.5536 L -13.0877,54.8115 L -13.3925,55.033 L -13.7227,55.2145 L -14.0729,55.3532
 L -14.4379,55.4469 L -14.8116,55.4941 z
M -30.1884,55.4941 L -30.5621,55.4469 L -30.927,55.3532 L -31.2773,55.2145 L -31.6075,55.033 L -31.9123,54.8115
 L -32.1869,54.5536 L -32.427,54.2634 L -32.6289,53.9453 L -32.7893,53.6044 L -32.9057,53.2461 L -32.9763,52.876
 L -33,52.5 L -32.9763,52.124 L -32.9057,51.7539 L -32.7893,51.3956 L -32.6289,51.0547 L -32.427,50.7366
 L -32.1869,50.4464 L -31.9123,50.1885 L -31.6075,49.967 L -31.2773,49.7855 L -30.927,49.6468 L -30.5621,49.5531
 L -30.1884,49.5059 L -29.8116,49.5059 L -29.4379,49.5531 L -29.0729,49.6468 L -28.7227,49.7855 L -28.3925,49.967
 L -28.0877,50.1885 L -27.8131,50.4464 L -27.5729,50.7366 L -27.3711,51.0547 L -27.2107,51.3956 L -27.0942,51.7539
 L -27.0237,52.124 L -27,52.5 L -27.0237,52.876 L -27.0942,53.2461 L -27.2107,53.6044 L -27.3711,53.9453
 L -27.5729,54.2634 L -27.8131,54.5536 L -28.0877,54.8115 L -28.3925,55.033 L -28.7227,55.2145 L -29.0729,55.3532
 L -29.4379,55.4469 L -29.8116,55.4941 z
M -0.18837,55.4941 L -0.562134,55.4469 L -0.927048,55.3532 L -1.27733,55.2145 L -1.60747,55.033 L -1.91226,54.8115
 L -2.1869,54.5536 L -2.42705,54.2634 L -2.62891,53.9453 L -2.78932,53.6044 L -2.90575,53.2461 L -2.97633,52.876
 L -3,52.5 L -2.97633,52.124 L -2.90575,51.7539 L -2.78932,51.3956 L -2.62891,51.0547 L -2.42705,50.7366
 L -2.1869,50.4464 L -1.91226,50.1885 L -1.60747,49.967 L -1.27733,49.7855 L -0.927048,49.6468 L -0.562134,49.5531
 L -0.18837,49.5059 L 0.18837,49.5059 L 0.562134,49.5531 L 0.927048,49.6468 L 1.27733,49.7855 L 1.60747,49.967
 L 1.91226,50.1885 L 2.1869,50.4464 L 2.42705,50.7366 L 2.62891,51.0547 L 2.78932,51.3956 L 2.90575,51.7539
 L 2.97633,52.124 L 3,52.5 L 2.97633,52.876 L 2.90575,53.2461 L 2.78932,53.6044 L 2.62891,53.9453
 L 2.42705,54.2634 L 2.1869,54.5536 L 1.91226,54.8115 L 1.60747,55.033 L 1.27733,55.2145 L 0.927048,55.3532
 L 0.562134,55.4469 L 0.18837,55.4941 z
M 29.8116,55.4941 L 29.4379,55.4469 L 29.0729,55.3532 L 28.7227,55.2145 L 28.3925,55.033 L 28.0877,54.8115
 L 27.8131,54.5536 L 27.5729,54.2634 L 27.3711,53.9453 L 27.2107,53.6044 L 27.0942,53.2461 L 27.0237,52.876
 L 27,52.5 L 27.0237,52.124 L 27.0942,51.7539 L 27.2107,51.3956 L 27.3711,51.0547 L 27.5729,50.7366
 L 27.8131,50.4464 L 28.0877,50.1885 L 28.3925,49.967 L 28.7227,49.7855 L 29.0729,49.6468 L 29.4379,49.5531
 L 29.8116,49.5059 L 30.1884,49.5059 L 30.5621,49.5531 L 30.927,49.6468 L 31.2773,49.7855 L 31.6075,49.967
 L 31.9123,50.1885 L 32.1869,50.4464 L 32.427,50.7366 L 32.6289,51.0547 L 32.7893,51.3956 L 32.9057,51.7539
 L 32.9763,52.124 L 33,52.5 L 32.9763,52.876 L 32.9057,53.2461 L 32.7893,53.6044 L 32.6289,53.9453
 L 32.427,54.2634 L 32.1869,54.5536 L 31.9123,54.8115 L 31.6075,55.033 L 31.2773,55.2145 L 30.927,55.3532
 L 30.5621,55.4469 L 30.1884,55.4941 z
M 44.8116,55.4941 L 44.4379,55.4469 L 44.0729,55.3532 L 43.7227,55.2145 L 43.3925,55.033 L 43.0877,54.8115
 L 42.8131,54.5536 L 42.5729,54.2634 L 42.3711,53.9453 L 42.2107,53.6044 L 42.0942,53.2461 L 42.0237,52.876
 L 42,52.5 L 42.0237,52.124 L 42.0942,51.7539 L 42.2107,51.3956 L 42.3711,51.0547 L 42.5729,50.7366
 L 42.8131,50.4464 L 43.0877,50.1885 L 43.3925,49.967 L 43.7227,49.7855 L 44.0729,49.6468 L 44.4379,49.5531
 L 44.8116,49.5059 L 45.1884,49.5059 L 45.5621,49.5531 L 45.927,49.6468 L 46.2773,49.7855 L 46.6075,49.967
 L 46.9123,50.1885 L 47.1869,50.4464 L 47.427,50.7366 L 47.6289,51.0547 L 47.7893,51.3956 L 47.9057,51.7539
 L 47.9763,52.124 L 48,52.5 L 47.9763,52.876 L 47.9057,53.2461 L 47.7893,53.6044 L 47.6289,53.9453
 L 47.427,54.2634 L 47.1869,54.5536 L 46.9123,54.8115 L 46.6075,55.033 L 46.2773,55.2145 L 45.927,55.3532
 L 45.5621,55.4469 L 45.1884,55.4941 z
M -45.1884,55.4941 L -45.5621,55.4469 L -45.927,55.3532 L -46.2773,55.2145 L -46.6075,55.033 L -46.9123,54.8115
 L -47.1869,54.5536 L -47.427,54.2634 L -47.6289,53.9453 L -47.7893,53.6044 L -47.9057,53.2461 L -47.9763,52.876
 L -48,52.5 L -47.9763,52.124 L -47.9057,51.7539 L -47.7893,51.3956 L -47.6289,51.0547 L -47.427,50.7366
 L -47.1869,50.4464 L -46.9123,50.1885 L -46.6075,49.967 L -46.2773,49.7855 L -45.927,49.6468 L -45.5621,49.5531
 L -45.1884,49.5059 L -44.8116,49.5059 L -44.4379,49.5531 L -44.0729,49.6468 L -43.7227,49.7855 L -43.3925,49.967
 L -43.0877,50.1885 L -42.8131,50.4464 L -42.5729,50.7366 L -42.3711,51.0547 L -42.2107,51.3956 L -42.0942,51.7539
 L -42.0237,52.124 L -42,52.5 L -42.0237,52.876 L -42.0942,53.2461 L -42.2107,53.6044 L -42.3711,53.9453
 L -42.5729,54.2634 L -42.8131,54.5536 L -43.0877,54.8115 L -43.3925,55.033 L -43.7227,55.2145 L -44.0729,55.3532
 L -44.4379,55.4469 L -44.8116,55.4941 z
M -22.5942,53.997 L -22.7811,53.9734 L -22.9635,53.9266 L -23.1387,53.8572 L -23.3037,53.7665 L -23.4561,53.6558
 L -23.5934,53.5268 L -23.7135,53.3817 L -23.8145,53.2226 L -23.8947,53.0522 L -23.9529,52.873 L -23.9882,52.688
 L -24,52.5 L -23.9882,52.312 L -23.9529,52.127 L -23.8947,51.9478 L -23.8145,51.7774 L -23.7135,51.6183
 L -23.5934,51.4732 L -23.4561,51.3442 L -23.3037,51.2335 L -23.1387,51.1428 L -22.9635,51.0734 L -22.7811,51.0266
 L -22.5942,51.003 L -22.4058,51.003 L -22.2189,51.0266 L -22.0365,51.0734 L -21.8613,51.1428 L -21.6963,51.2335
 L -21.5439,51.3442 L -21.4065,51.4732 L -21.2865,51.6183 L -21.1855,51.7774 L -21.1053,51.9478 L -21.0471,52.127
 L -21.0118,52.312 L -21,52.5 L -21.0118,52.688 L -21.0471,52.873 L -21.1053,53.0522 L -21.1855,53.2226
 L -21.2865,53.3817 L -21.4065,53.5268 L -21.5439,53.6558 L -21.6963,53.7665 L -21.8613,53.8572 L -22.0365,53.9266
 L -22.2189,53.9734 L -22.4058,53.997 z
M 7.40581,53.997 L 7.21892,53.9734 L 7.03647,53.9266 L 6.86133,53.8572 L 6.69626,53.7665 L 6.54385,53.6558
 L 6.40654,53.5268 L 6.28647,53.3817 L 6.18553,53.2226 L 6.10533,53.0522 L 6.04712,52.873 L 6.01183,52.688
 L 6,52.5 L 6.01183,52.312 L 6.04712,52.127 L 6.10533,51.9478 L 6.18553,51.7774 L 6.28647,51.6183
 L 6.40654,51.4732 L 6.54385,51.3442 L 6.69626,51.2335 L 6.86133,51.1428 L 7.03647,51.0734 L 7.21892,51.0266
 L 7.40581,51.003 L 7.59418,51.003 L 7.78107,51.0266 L 7.96352,51.0734 L 8.13866,51.1428 L 8.30373,51.2335
 L 8.45613,51.3442 L 8.59344,51.4732 L 8.71352,51.6183 L 8.81445,51.7774 L 8.89465,51.9478 L 8.95287,52.127
 L 8.98816,52.312 L 9,52.5 L 8.98816,52.688 L 8.95287,52.873 L 8.89465,53.0522 L 8.81445,53.2226
 L 8.71352,53.3817 L 8.59344,53.5268 L 8.45613,53.6558 L 8.30373,53.7665 L 8.13866,53.8572 L 7.96352,53.9266
 L 7.78107,53.9734 L 7.59418,53.997 z
M 37.4058,53.997 L 37.2189,53.9734 L 37.0365,53.9266 L 36.8613,53.8572 L 36.6963,53.7665 L 36.5439,53.6558
 L 36.4065,53.5268 L 36.2865,53.3817 L 36.1855,53.2226 L 36.1053,53.0522 L 36.0471,52.873 L 36.0118,52.688
 L 36,52.5 L 36.0118,52.312 L 36.0471,52.127 L 36.1053,51.9478 L 36.1855,51.7774 L 36.2865,51.6183
 L 36.4065,51.4732 L 36.5439,51.3442 L 36.6963,51.2335 L 36.8613,51.1428 L 37.0365,51.0734 L 37.2189,51.0266
 L 37.4058,51.003 L 37.5942,51.003 L 37.7811,51.0266 L 37.9635,51.0734 L 38.1387,51.1428 L 38.3037,51.2335
 L 38.4561,51.3442 L 38.5934,51.4732 L 38.7135,51.6183 L 38.8145,51.7774 L 38.8947,51.9478 L 38.9529,52.127
 L 38.9882,52.312 L 39,52.5 L 38.9882,52.688 L 38.9529,52.873 L 38.8947,53.0522 L 38.8145,53.2226
 L 38.7135,53.3817 L 38.5934,53.5268 L 38.4561,53.6558 L 38.3037,53.7665 L 38.1387,53.8572 L 37.9635,53.9266
 L 37.7811,53.9734 L 37.5942,53.997 z
M 22.4058,53.997 L 22.2189,53.9734 L 22.0365,53.9266 L 21.8613,53.8572 L 21.6963,53.7665 L 21.5439,53.6558
 L 21.4065,53.5268 L 21.2865,53.3817 L 21.1855,53.2226 L 21.1053,53.0522 L 21.0471,52.873 L 21.0118,52.688
 L 21,52.5 L 21.0118,52.312 L 21.0471,52.127 L 21.1053,51.9478 L 21.1855,51.7774 L 21.2865,51.6183
 L 21.4065,51.4732 L 21.5439,51.3442 L 21.6963,51.2335 L 21.8613,51.1428 L 22.0365,51.0734 L 22.2189,51.0266
 L 22.4058,51.003 L 22.5942,51.003 L 22.7811,51.0266 L 22.9635,51.0734 L 23.1387,51.1428 L 23.3037,51.2335
 L 23.4561,51.3442 L 23.5934,51.4732 L 23.7135,51.6183 L 23.8145,51.7774 L 23.8947,51.9478 L 23.9529,52.127
 L 23.9882,52.312 L 24,52.5 L 23.9882,52.688 L 23.9529,52.873 L 23.8947,53.0522 L 23.8145,53.2226
 L 23.7135,53.3817 L 23.5934,53.5268 L 23.4561,53.6558 L 23.3037,53.7665 L 23.1387,53.8572 L 22.9635,53.9266
 L 22.7811,53.9734 L 22.5942,53.997 z
M -37.5942,53.997 L -37.7811,53.9734 L -37.9635,53.9266 L -38.1387,53.8572 L -38.3037,53.7665 L -38.4561,53.6558
 L -38.5934,53.5268 L -38.7135,53.3817 L -38.8145,53.2226 L -38.8947,53.0522 L -38.9529,52.873 L -38.9882,52.688
 L -39,52.5 L -38.9882,52.312 L -38.9529,52.127 L -38.8947,51.9478 L -38.8145,51.7774 L -38.7135,51.6183
 L -38.5934,51.4732 L -38.4561,51.3442 L -38.3037,51.2335 L -38.1387,51.1428 L -37.9635,51.0734 L -37.7811,51.0266
 L -37.5942,51.003 L -37.4058,51.003 L -37.2189,51.0266 L -37.0365,51.0734 L -36.8613,51.1428 L -36.6963,51.2335
 L -36.5439,51.3442 L -36.4065,51.4732 L -36.2865,51.6183 L -36.1855,51.7774 L -36.1053,51.9478 L -36.0471,52.127
 L -36.0118,52.312 L -36,52.5 L -36.0118,52.688 L -36.0471,52.873 L -36.1053,53.0522 L -36.1855,53.2226
 L -36.2865,53.3817 L -36.4065,53.5268 L -36.5439,53.6558 L -36.6963,53.7665 L -36.8613,53.8572 L -37.0365,53.9266
 L -37.2189,53.9734 L -37.4058,53.997 z
M -7.59418,53.997 L -7.78107,53.9734 L -7.96352,53.9266 L -8.13866,53.8572 L -8.30373,53.7665 L -8.45613,53.6558
 L -8.59344,53.5268 L -8.71352,53.3817 L -8.81445,53.2226 L -8.89465,53.0522 L -8.95287,52.873 L -8.98816,52.688
 L -9,52.5 L -8.98816,52.312 L -8.95287,52.127 L -8.89465,51.9478 L -8.81445,51.7774 L -8.71352,51.6183
 L -8.59344,51.4732 L -8.45613,51.3442 L -8.30373,51.2335 L -8.13866,51.1428 L -7.96352,51.0734 L -7.78107,51.0266
 L -7.59418,51.003 L -7.40581,51.003 L -7.21892,51.0266 L -7.03647,51.0734 L -6.86133,51.1428 L -6.69626,51.2335
 L -6.54385,51.3442 L -6.40654,51.4732 L -6.28647,51.6183 L -6.18553,51.7774 L -6.10533,51.9478 L -6.04712,52.127
 L -6.01183,52.312 L -6,52.5 L -6.01183,52.688 L -6.04712,52.873 L -6.10533,53.0522 L -6.18553,53.2226
 L -6.28647,53.3817 L -6.40654,53.5268 L -6.54385,53.6558 L -6.69626,53.7665 L -6.86133,53.8572 L -7.03647,53.9266
 L -7.21892,53.9734 L -7.40581,53.997 z
" stroke="black" fill="lightgray" stroke-width="0.5"/>
</svg>
