<?xml version="1.0" standalone="no"?>
<!DOCTYPE svg PUBLIC "-//W3C//DTD SVG 1.1//EN" "http://www.w3.org/Graphics/SVG/1.1/DTD/svg11.dtd">
<svg width="434mm" height="150mm" viewBox="-217 -75 434 150" xmlns="http://www.w3.org/2000/svg" version="1.1">
<title>OpenSCAD Model</title>
<path d="
M 212.937,74.4114 L 213.545,74.2553 L 214.129,74.0241 L 214.679,73.7216 L 215.187,73.3526 L 215.645,72.9227
 L 216.045,72.4389 L 216.382,71.9088 L 216.649,71.3406 L 216.843,70.7434 L 216.961,70.1267 L 217,69.5
 L 217,-69.5 L 216.961,-70.1267 L 216.843,-70.7434 L 216.649,-71.3406 L 216.382,-71.9088 L 216.045,-72.4389
 L 215.645,-72.9227 L 215.187,-73.3526 L 214.679,-73.7216 L 214.129,-74.0241 L 213.545,-74.2553 L 212.937,-74.4114
 L 212.314,-74.4901 L -212.314,-74.4901 L -212.937,-74.4114 L -213.545,-74.2553 L -214.129,-74.0241 L -214.679,-73.7216
 L -215.187,-73.3526 L -215.645,-72.9227 L -216.045,-72.4389 L -216.382,-71.9088 L -216.649,-71.3406 L -216.843,-70.7434
 L -216.961,-70.1267 L -217,-69.5 L -217,69.5 L -216.961,70.1267 L -216.843,70.7434 L -216.649,71.3406
 L -216.382,71.9088 L -216.045,72.4389 L -215.645,72.9227 L -215.187,73.3526 L -214.679,73.7216 L -214.129,74.0241
 L -213.545,74.2553 L -212.937,74.4114 L -212.314,74.4901 L 212.314,74.4901 z
M 209.812,-64.5059 L 209.438,-64.5531 L 209.073,-64.6468 L 208.723,-64.7855 L 208.393,-64.967 L 208.088,-65.1885
 L 207.813,-65.4464 L 207.573,-65.7366 L 207.371,-66.0547 L 207.211,-66.3956 L 207.094,-66.7539 L 207.024,-67.124
 L 207,-67.5 L 207.024,-67.876 L 207.094,-68.2461 L 207.211,-68.6044 L 207.371,-68.9453 L 207.573,-69.2634
 L 207.813,-69.5536 L 208.088,-69.8115 L 208.393,-70.033 L 208.723,-70.2145 L 209.073,-70.3532 L 209.438,-70.4469
 L 209.812,-70.4941 L 210.188,-70.4941 L 210.562,-70.4469 L 210.927,-70.3532 L 211.277,-70.2145 L 211.607,-70.033
 L 211.912,-69.8115 L 212.187,-69.5536 L 212.427,-69.2634 L 212.629,-68.9453 L 212.789,-68.6044 L 212.906,-68.2461
 L 212.976,-67.876 L 213,-67.5 L 212.976,-67.124 L 212.906,-66.7539 L 212.789,-66.3956 L 212.629,-66.0547
 L 212.427,-65.7366 L 212.187,-65.4464 L 211.912,-65.1885 L 211.607,-64.967 L 211.277,-64.7855 L 210.927,-64.6468
 L 210.562,-64.5531 L 210.188,-64.5059 z
M -210.188,-64.5059 L -210.562,-64.5531 L -210.927,-64.6468 L -211.277,-64.7855 L -211.607,-64.967 L -211.912,-65.1885
 L -212.187,-65.4464 L -212.427,-65.7366 L -212.629,-66.0547 L -212.789,-66.3956 L -212.906,-66.7539 L -212.976,-67.124
 L -213,-67.5 L -212.976,-67.876 L -212.906,-68.2461 L -212.789,-68.6044 L -212.629,-68.9453 L -212.427,-69.2634
 L -212.187,-69.5536 L -211.912,-69.8115 L -211.607,-70.033 L -211.277,-70.2145 L -210.927,-70.3532 L -210.562,-70.4469
 L -210.188,-70.4941 L -209.812,-70.4941 L -209.438,-70.4469 L -209.073,-70.3532 L -208.723,-70.2145 L -208.393,-70.033
 L -208.088,-69.8115 L -207.813,-69.5536 L -207.573,-69.2634 L -207.371,-68.9453 L -207.211,-68.6044 L -207.094,-68.2461
 L -207.024,-67.876 L -207,-67.5 L -207.024,-67.124 L -207.094,-66.7539 L -207.211,-66.3956 L -207.371,-66.0547
 L -207.573,-65.7366 L -207.813,-65.4464 L -208.088,-65.1885 L -208.393,-64.967 L -208.723,-64.7855 L -209.073,-64.6468
 L -209.438,-64.5531 L -209.812,-64.5059 z
M 135.762,67.3668 L 127.352,66.3044 L 119.141,64.1963 L 111.26,61.0758 L 103.832,56.9921 L 96.9739,52.0096
 L 90.7946,46.2069 L 85.3913,39.6755 L 80.8493,32.5184 L 77.2401,24.8484 L 74.6206,16.7866 L 73.0323,8.45999
 L 72.5,-0 L 73.0323,-8.45999 L 74.6206,-16.7866 L 77.2401,-24.8484 L 80.8493,-32.5184 L 85.3913,-39.6755
 L 90.7946,-46.2069 L 96.9739,-52.0096 L 103.832,-56.9921 L 111.26,-61.0758 L 119.141,-64.1963 L 127.352,-66.3044
 L 135.762,-67.3668 L 144.238,-67.3668 L 152.648,-66.3044 L 160.859,-64.1963 L 168.74,-61.0758 L 176.168,-56.9921
 L 183.026,-52.0096 L 189.205,-46.2069 L 194.609,-39.6755 L 199.151,-32.5184 L 202.76,-24.8484 L 205.379,-16.7866
 L 206.968,-8.45999 L 207.5,-0 L 206.968,8.45999 L 205.379,16.7866 L 202.76,24.8484 L 199.151,32.5184
 L 194.609,39.6755 L 189.205,46.2069 L 183.026,52.0096 L 176.168,56.9921 L 168.74,61.0758 L 160.859,64.1963
 L 152.648,66.3044 L 144.238,67.3668 z
M -144.238,67.3668 L -152.648,66.3044 L -160.859,64.1963 L -168.74,61.0758 L -176.168,56.9921 L -183.026,52.0096
 L -189.205,46.2069 L -194.609,39.6755 L -199.151,32.5184 L -202.76,24.8484 L -205.379,16.7866 L -206.968,8.45999
 L -207.5,-0 L -206.968,-8.45999 L -205.379,-16.7866 L -202.76,-24.8484 L -199.151,-32.5184 L -194.609,-39.6755
 L -189.205,-46.2069 L -183.026,-52.0096 L -176.168,-56.9921 L -168.74,-61.0758 L -160.859,-64.1963 L -152.648,-66.3044
 L -144.238,-67.3668 L -135.762,-67.3668 L -127.352,-66.3044 L -119.141,-64.1963 L -111.26,-61.0758 L -103.832,-56.9921
 L -96.9739,-52.0096 L -90.7946,-46.2069 L -85.3913,-39.6755 L -80.8493,-32.5184 L -77.2401,-24.8484 L -74.6206,-16.7866
 L -73.0323,-8.45999 L -72.5,-0 L -73.0323,8.45999 L -74.6206,16.7866 L -77.2401,24.8484 L -80.8493,32.5184
 L -85.3913,39.6755 L -90.7946,46.2069 L -96.9739,52.0096 L -103.832,56.9921 L -111.26,61.0758 L -119.141,64.1963
 L -127.352,66.3044 L -135.762,67.3668 z
M -4.23836,67.3668 L -12.6482,66.3044 L -20.8586,64.1963 L -28.7401,61.0758 L -36.1683,56.9921 L -43.0261,52.0096
 L -49.2054,46.2069 L -54.6086,39.6755 L -59.1507,32.5184 L -62.7599,24.8484 L -65.3794,16.7866 L -66.9677,8.45999
 L -67.5,-0 L -66.9677,-8.45999 L -65.3794,-16.7866 L -62.7599,-24.8484 L -59.1507,-32.5184 L -54.6086,-39.6755
 L -49.2054,-46.2069 L -43.0261,-52.0096 L -36.1683,-56.9921 L -28.7401,-61.0758 L -20.8586,-64.1963 L -12.6482,-66.3044
 L -4.23836,-67.3668 L 4.23836,-67.3668 L 12.6482,-66.3044 L 20.8586,-64.1963 L 28.7401,-61.0758 L 36.1683,-56.9921
 L 43.0261,-52.0096 L 49.2054,-46.2069 L 54.6086,-39.6755 L 59.1507,-32.5184 L 62.7599,-24.8484 L 65.3794,-16.7866
 L 66.9677,-8.45999 L 67.5,-0 L 66.9677,8.45999 L 65.3794,16.7866 L 62.7599,24.8484 L 59.1507,32.5184
 L 54.6086,39.6755 L 49.2054,46.2069 L 43.0261,52.0096 L 36.1683,56.9921 L 28.7401,61.0758 L 20.8586,64.1963
 L 12.6482,66.3044 L 4.23836,67.3668 z
M -210.188,70.4941 L -210.562,70.4469 L -210.927,70.3532 L -211.277,70.2145 L -211.607,70.033 L -211.912,69.8115
 L -212.187,69.5536 L -212.427,69.2634 L -212.629,68.9453 L -212.789,68.6044 L -212.906,68.2461 L -212.976,67.876
 L -213,67.5 L -212.976,67.124 L -212.906,66.7539 L -212.789,66.3956 L -212.629,66.0547 L -212.427,65.7366
 L -212.187,65.4464 L -211.912,65.1885 L -211.607,64.967 L -211.277,64.7855 L -210.927,64.6468 L -210.562,64.5531
 L -210.188,64.5059 L -209.812,64.5059 L -209.438,64.5531 L -209.073,64.6468 L -208.723,64.7855 L -208.393,64.967
 L -208.088,65.1885 L -207.813,65.4464 L -207.573,65.7366 L -207.371,66.0547 L -207.211,66.3956 L -207.094,66.7539
 L -207.024,67.124 L -207,67.5 L -207.024,67.876 L -207.094,68.2461 L -207.211,68.6044 L -207.371,68.9453
 L -207.573,69.2634 L -207.813,69.5536 L -208.088,69.8115 L -208.393,70.033 L -208.723,70.2145 L -209.073,70.3532
 L -209.438,70.4469 L -209.812,70.4941 z
M 209.812,70.4941 L 209.438,70.4469 L 209.073,70.3532 L 208.723,70.2145 L 208.393,70.033 L 208.088,69.8115
 L 207.813,69.5536 L 207.573,69.2634 L 207.371,68.9453 L 207.211,68.6044 L 207.094,68.2461 L 207.024,67.876
 L 207,67.5 L 207.024,67.124 L 207.094,66.7539 L 207.211,66.3956 L 207.371,66.0547 L 207.573,65.7366
 L 207.813,65.4464 L 208.088,65.1885 L 208.393,64.967 L 208.723,64.7855 L 209.073,64.6468 L 209.438,64.5531
 L 209.812,64.5059 L 210.188,64.5059 L 210.562,64.5531 L 210.927,64.6468 L 211.277,64.7855 L 211.607,64.967
 L 211.912,65.1885 L 212.187,65.4464 L 212.427,65.7366 L 212.629,66.0547 L 212.789,66.3956 L 212.906,66.7539
 L 212.976,67.124 L 213,67.5 L 212.976,67.876 L 212.906,68.2461 L 212.789,68.6044 L 212.629,68.9453
 L 212.427,69.2634 L 212.187,69.5536 L 211.912,69.8115 L 211.607,70.033 L 211.277,70.2145 L 210.927,70.3532
 L 210.562,70.4469 L 210.188,70.4941 z
" stroke="black" fill="lightgray" stroke-width="0.5"/>
</svg>
