<?xml version="1.0" standalone="no"?>
<!DOCTYPE svg PUBLIC "-//W3C//DTD SVG 1.1//EN" "http://www.w3.org/Graphics/SVG/1.1/DTD/svg11.dtd">
<svg width="420mm" height="150mm" viewBox="-210 -75 420 150" xmlns="http://www.w3.org/2000/svg" version="1.1">
<title>OpenSCAD Model</title>
<path d="
M 205.437,74.4114 L 206.045,74.2553 L 206.629,74.0241 L 207.179,73.7216 L 207.687,73.3526 L 208.145,72.9227
 L 208.545,72.4389 L 208.882,71.9088 L 209.149,71.3406 L 209.343,70.7434 L 209.461,70.1267 L 209.5,69.5
 L 209.5,-69.5 L 209.461,-70.1267 L 209.343,-70.7434 L 209.149,-71.3406 L 208.882,-71.9088 L 208.545,-72.4389
 L 208.145,-72.9227 L 207.687,-73.3526 L 207.179,-73.7216 L 206.629,-74.0241 L 206.045,-74.2553 L 205.437,-74.4114
 L 204.814,-74.4901 L -204.814,-74.4901 L -205.437,-74.4114 L -206.045,-74.2553 L -206.629,-74.0241 L -207.179,-73.7216
 L -207.687,-73.3526 L -208.145,-72.9227 L -208.545,-72.4389 L -208.882,-71.9088 L -209.149,-71.3406 L -209.343,-70.7434
 L -209.461,-70.1267 L -209.5,-69.5 L -209.5,69.5 L -209.461,70.1267 L -209.343,70.7434 L -209.149,71.3406
 L -208.882,71.9088 L -208.545,72.4389 L -208.145,72.9227 L -207.687,73.3526 L -207.179,73.7216 L -206.629,74.0241
 L -206.045,74.2553 L -205.437,74.4114 L -204.814,74.4901 L 204.814,74.4901 z
M 202.312,-64.5059 L 201.938,-64.5531 L 201.573,-64.6468 L 201.223,-64.7855 L 200.893,-64.967 L 200.588,-65.1885
 L 200.313,-65.4464 L 200.073,-65.7366 L 199.871,-66.0547 L 199.711,-66.3956 L 199.594,-66.7539 L 199.524,-67.124
 L 199.5,-67.5 L 199.524,-67.876 L 199.594,-68.2461 L 199.711,-68.6044 L 199.871,-68.9453 L 200.073,-69.2634
 L 200.313,-69.5536 L 200.588,-69.8115 L 200.893,-70.033 L 201.223,-70.2145 L 201.573,-70.3532 L 201.938,-70.4469
 L 202.312,-70.4941 L 202.688,-70.4941 L 203.062,-70.4469 L 203.427,-70.3532 L 203.777,-70.2145 L 204.107,-70.033
 L 204.412,-69.8115 L 204.687,-69.5536 L 204.927,-69.2634 L 205.129,-68.9453 L 205.289,-68.6044 L 205.406,-68.2461
 L 205.476,-67.876 L 205.5,-67.5 L 205.476,-67.124 L 205.406,-66.7539 L 205.289,-66.3956 L 205.129,-66.0547
 L 204.927,-65.7366 L 204.687,-65.4464 L 204.412,-65.1885 L 204.107,-64.967 L 203.777,-64.7855 L 203.427,-64.6468
 L 203.062,-64.5531 L 202.688,-64.5059 z
M -202.688,-64.5059 L -203.062,-64.5531 L -203.427,-64.6468 L -203.777,-64.7855 L -204.107,-64.967 L -204.412,-65.1885
 L -204.687,-65.4464 L -204.927,-65.7366 L -205.129,-66.0547 L -205.289,-66.3956 L -205.406,-66.7539 L -205.476,-67.124
 L -205.5,-67.5 L -205.476,-67.876 L -205.406,-68.2461 L -205.289,-68.6044 L -205.129,-68.9453 L -204.927,-69.2634
 L -204.687,-69.5536 L -204.412,-69.8115 L -204.107,-70.033 L -203.777,-70.2145 L -203.427,-70.3532 L -203.062,-70.4469
 L -202.688,-70.4941 L -202.312,-70.4941 L -201.938,-70.4469 L -201.573,-70.3532 L -201.223,-70.2145 L -200.893,-70.033
 L -200.588,-69.8115 L -200.313,-69.5536 L -200.073,-69.2634 L -199.871,-68.9453 L -199.711,-68.6044 L -199.594,-68.2461
 L -199.524,-67.876 L -199.5,-67.5 L -199.524,-67.124 L -199.594,-66.7539 L -199.711,-66.3956 L -199.871,-66.0547
 L -200.073,-65.7366 L -200.313,-65.4464 L -200.588,-65.1885 L -200.893,-64.967 L -201.223,-64.7855 L -201.573,-64.6468
 L -201.938,-64.5531 L -202.312,-64.5059 z
M 130.919,64.8717 L 122.82,63.8487 L 114.914,61.8187 L 107.324,58.8138 L 100.171,54.8813 L 93.5674,50.0834
 L 87.617,44.4956 L 82.4139,38.206 L 78.0401,31.314 L 74.5645,23.9281 L 72.0421,16.1648 L 70.5125,8.14665
 L 70,-0 L 70.5125,-8.14665 L 72.0421,-16.1648 L 74.5645,-23.9281 L 78.0401,-31.314 L 82.4139,-38.206
 L 87.617,-44.4956 L 93.5674,-50.0834 L 100.171,-54.8813 L 107.324,-58.8138 L 114.914,-61.8187 L 122.82,-63.8487
 L 130.919,-64.8717 L 139.081,-64.8717 L 147.18,-63.8487 L 155.086,-61.8187 L 162.676,-58.8138 L 169.829,-54.8813
 L 176.433,-50.0834 L 182.383,-44.4956 L 187.586,-38.206 L 191.96,-31.314 L 195.435,-23.9281 L 197.958,-16.1648
 L 199.487,-8.14665 L 200,-0 L 199.487,8.14665 L 197.958,16.1648 L 195.435,23.9281 L 191.96,31.314
 L 187.586,38.206 L 182.383,44.4956 L 176.433,50.0834 L 169.829,54.8813 L 162.676,58.8138 L 155.086,61.8187
 L 147.18,63.8487 L 139.081,64.8717 z
M -139.081,64.8717 L -147.18,63.8487 L -155.086,61.8187 L -162.676,58.8138 L -169.829,54.8813 L -176.433,50.0834
 L -182.383,44.4956 L -187.586,38.206 L -191.96,31.314 L -195.435,23.9281 L -197.958,16.1648 L -199.487,8.14665
 L -200,-0 L -199.487,-8.14665 L -197.958,-16.1648 L -195.435,-23.9281 L -191.96,-31.314 L -187.586,-38.206
 L -182.383,-44.4956 L -176.433,-50.0834 L -169.829,-54.8813 L -162.676,-58.8138 L -155.086,-61.8187 L -147.18,-63.8487
 L -139.081,-64.8717 L -130.919,-64.8717 L -122.82,-63.8487 L -114.914,-61.8187 L -107.324,-58.8138 L -100.171,-54.8813
 L -93.5674,-50.0834 L -87.617,-44.4956 L -82.4139,-38.206 L -78.0401,-31.314 L -74.5645,-23.9281 L -72.0421,-16.1648
 L -70.5125,-8.14665 L -70,-0 L -70.5125,8.14665 L -72.0421,16.1648 L -74.5645,23.9281 L -78.0401,31.314
 L -82.4139,38.206 L -87.617,44.4956 L -93.5674,50.0834 L -100.171,54.8813 L -107.324,58.8138 L -114.914,61.8187
 L -122.82,63.8487 L -130.919,64.8717 z
M -4.08138,64.8717 L -12.1798,63.8487 L -20.0861,61.8187 L -27.6756,58.8138 L -34.8287,54.8813 L -41.4326,50.0834
 L -47.3829,44.4956 L -52.5861,38.206 L -56.9599,31.314 L -60.4355,23.9281 L -62.9579,16.1648 L -64.4875,8.14665
 L -65,-0 L -64.4875,-8.14665 L -62.9579,-16.1648 L -60.4355,-23.9281 L -56.9599,-31.314 L -52.5861,-38.206
 L -47.3829,-44.4956 L -41.4326,-50.0834 L -34.8287,-54.8813 L -27.6756,-58.8138 L -20.0861,-61.8187 L -12.1798,-63.8487
 L -4.08138,-64.8717 L 4.08138,-64.8717 L 12.1798,-63.8487 L 20.0861,-61.8187 L 27.6756,-58.8138 L 34.8287,-54.8813
 L 41.4326,-50.0834 L 47.3829,-44.4956 L 52.5861,-38.206 L 56.9599,-31.314 L 60.4355,-23.9281 L 62.9579,-16.1648
 L 64.4875,-8.14665 L 65,-0 L 64.4875,8.14665 L 62.9579,16.1648 L 60.4355,23.9281 L 56.9599,31.314
 L 52.5861,38.206 L 47.3829,44.4956 L 41.4326,50.0834 L 34.8287,54.8813 L 27.6756,58.8138 L 20.0861,61.8187
 L 12.1798,63.8487 L 4.08138,64.8717 z
M 202.312,70.4941 L 201.938,70.4469 L 201.573,70.3532 L 201.223,70.2145 L 200.893,70.033 L 200.588,69.8115
 L 200.313,69.5536 L 200.073,69.2634 L 199.871,68.9453 L 199.711,68.6044 L 199.594,68.2461 L 199.524,67.876
 L 199.5,67.5 L 199.524,67.124 L 199.594,66.7539 L 199.711,66.3956 L 199.871,66.0547 L 200.073,65.7366
 L 200.313,65.4464 L 200.588,65.1885 L 200.893,64.967 L 201.223,64.7855 L 201.573,64.6468 L 201.938,64.5531
 L 202.312,64.5059 L 202.688,64.5059 L 203.062,64.5531 L 203.427,64.6468 L 203.777,64.7855 L 204.107,64.967
 L 204.412,65.1885 L 204.687,65.4464 L 204.927,65.7366 L 205.129,66.0547 L 205.289,66.3956 L 205.406,66.7539
 L 205.476,67.124 L 205.5,67.5 L 205.476,67.876 L 205.406,68.2461 L 205.289,68.6044 L 205.129,68.9453
 L 204.927,69.2634 L 204.687,69.5536 L 204.412,69.8115 L 204.107,70.033 L 203.777,70.2145 L 203.427,70.3532
 L 203.062,70.4469 L 202.688,70.4941 z
M -202.688,70.4941 L -203.062,70.4469 L -203.427,70.3532 L -203.777,70.2145 L -204.107,70.033 L -204.412,69.8115
 L -204.687,69.5536 L -204.927,69.2634 L -205.129,68.9453 L -205.289,68.6044 L -205.406,68.2461 L -205.476,67.876
 L -205.5,67.5 L -205.476,67.124 L -205.406,66.7539 L -205.289,66.3956 L -205.129,66.0547 L -204.927,65.7366
 L -204.687,65.4464 L -204.412,65.1885 L -204.107,64.967 L -203.777,64.7855 L -203.427,64.6468 L -203.062,64.5531
 L -202.688,64.5059 L -202.312,64.5059 L -201.938,64.5531 L -201.573,64.6468 L -201.223,64.7855 L -200.893,64.967
 L -200.588,65.1885 L -200.313,65.4464 L -200.073,65.7366 L -199.871,66.0547 L -199.711,66.3956 L -199.594,66.7539
 L -199.524,67.124 L -199.5,67.5 L -199.524,67.876 L -199.594,68.2461 L -199.711,68.6044 L -199.871,68.9453
 L -200.073,69.2634 L -200.313,69.5536 L -200.588,69.8115 L -200.893,70.033 L -201.223,70.2145 L -201.573,70.3532
 L -201.938,70.4469 L -202.312,70.4941 z
" stroke="black" fill="lightgray" stroke-width="0.5"/>
</svg>
