<?xml version="1.0" standalone="no"?>
<!DOCTYPE svg PUBLIC "-//W3C//DTD SVG 1.1//EN" "http://www.w3.org/Graphics/SVG/1.1/DTD/svg11.dtd">
<svg width="164mm" height="44mm" viewBox="-82 -22 164 44" xmlns="http://www.w3.org/2000/svg" version="1.1">
<title>OpenSCAD Model</title>
<path d="
M 77.9369,21.9114 L 78.5451,21.7553 L 79.1289,21.5241 L 79.6791,21.2216 L 80.1871,20.8526 L 80.6448,20.4227
 L 81.0451,19.9389 L 81.3815,19.4088 L 81.6489,18.8406 L 81.8429,18.2434 L 81.9606,17.6267 L 82,17
 L 82,-17 L 81.9606,-17.6267 L 81.8429,-18.2434 L 81.6489,-18.8406 L 81.3815,-19.4088 L 81.0451,-19.9389
 L 80.6448,-20.4227 L 80.1871,-20.8526 L 79.6791,-21.2216 L 79.1289,-21.5241 L 78.5451,-21.7553 L 77.9369,-21.9114
 L 77.3139,-21.9901 L -77.3139,-21.9901 L -77.9369,-21.9114 L -78.5451,-21.7553 L -79.1289,-21.5241 L -79.6791,-21.2216
 L -80.1871,-20.8526 L -80.6448,-20.4227 L -81.0451,-19.9389 L -81.3815,-19.4088 L -81.6489,-18.8406 L -81.8429,-18.2434
 L -81.9606,-17.6267 L -82,-17 L -82,17 L -81.9606,17.6267 L -81.8429,18.2434 L -81.6489,18.8406
 L -81.3815,19.4088 L -81.0451,19.9389 L -80.6448,20.4227 L -80.1871,20.8526 L -79.6791,21.2216 L -79.1289,21.5241
 L -78.5451,21.7553 L -77.9369,21.9114 L -77.3139,21.9901 L 77.3139,21.9901 z
M -75.1884,-12.0059 L -75.5621,-12.0531 L -75.927,-12.1468 L -76.2773,-12.2855 L -76.6075,-12.467 L -76.9123,-12.6884
 L -77.1869,-12.9464 L -77.427,-13.2366 L -77.6289,-13.5547 L -77.7893,-13.8956 L -77.9057,-14.2539 L -77.9763,-14.624
 L -78,-15 L -77.9763,-15.376 L -77.9057,-15.7461 L -77.7893,-16.1044 L -77.6289,-16.4453 L -77.427,-16.7634
 L -77.1869,-17.0536 L -76.9123,-17.3115 L -76.6075,-17.533 L -76.2773,-17.7145 L -75.927,-17.8532 L -75.5621,-17.9469
 L -75.1884,-17.9941 L -74.8116,-17.9941 L -74.4379,-17.9469 L -74.073,-17.8532 L -73.7227,-17.7145 L -73.3925,-17.533
 L -73.0877,-17.3115 L -72.8131,-17.0536 L -72.573,-16.7634 L -72.3711,-16.4453 L -72.2107,-16.1044 L -72.0943,-15.7461
 L -72.0237,-15.376 L -72,-15 L -72.0237,-14.624 L -72.0943,-14.2539 L -72.2107,-13.8956 L -72.3711,-13.5547
 L -72.573,-13.2366 L -72.8131,-12.9464 L -73.0877,-12.6884 L -73.3925,-12.467 L -73.7227,-12.2855 L -74.073,-12.1468
 L -74.4379,-12.0531 L -74.8116,-12.0059 z
M 74.8116,-12.0059 L 74.4379,-12.0531 L 74.073,-12.1468 L 73.7227,-12.2855 L 73.3925,-12.467 L 73.0877,-12.6884
 L 72.8131,-12.9464 L 72.573,-13.2366 L 72.3711,-13.5547 L 72.2107,-13.8956 L 72.0943,-14.2539 L 72.0237,-14.624
 L 72,-15 L 72.0237,-15.376 L 72.0943,-15.7461 L 72.2107,-16.1044 L 72.3711,-16.4453 L 72.573,-16.7634
 L 72.8131,-17.0536 L 73.0877,-17.3115 L 73.3925,-17.533 L 73.7227,-17.7145 L 74.073,-17.8532 L 74.4379,-17.9469
 L 74.8116,-17.9941 L 75.1884,-17.9941 L 75.5621,-17.9469 L 75.927,-17.8532 L 76.2773,-17.7145 L 76.6075,-17.533
 L 76.9123,-17.3115 L 77.1869,-17.0536 L 77.427,-16.7634 L 77.6289,-16.4453 L 77.7893,-16.1044 L 77.9057,-15.7461
 L 77.9763,-15.376 L 78,-15 L 77.9763,-14.624 L 77.9057,-14.2539 L 77.7893,-13.8956 L 77.6289,-13.5547
 L 77.427,-13.2366 L 77.1869,-12.9464 L 76.9123,-12.6884 L 76.6075,-12.467 L 76.2773,-12.2855 L 75.927,-12.1468
 L 75.5621,-12.0531 L 75.1884,-12.0059 z
M -54.9733,15.4694 L -56.9044,15.2254 L -58.7898,14.7414 L -60.5996,14.0248 L -62.3053,13.0871 L -63.8801,11.9429
 L -65.299,10.6105 L -66.5398,9.11066 L -67.5827,7.46718 L -68.4115,5.70592 L -69.013,3.85469 L -69.3778,1.94266
 L -69.5,-0 L -69.3778,-1.94266 L -69.013,-3.85469 L -68.4115,-5.70592 L -67.5827,-7.46718 L -66.5398,-9.11066
 L -65.299,-10.6105 L -63.8801,-11.9429 L -62.3053,-13.0871 L -60.5996,-14.0248 L -58.7898,-14.7414 L -56.9044,-15.2254
 L -54.9733,-15.4694 L -53.0267,-15.4694 L -51.0956,-15.2254 L -49.2102,-14.7414 L -47.4004,-14.0248 L -45.6947,-13.0871
 L -44.1199,-11.9429 L -42.701,-10.6105 L -41.4602,-9.11066 L -40.4172,-7.46718 L -39.5885,-5.70592 L -38.987,-3.85469
 L -38.6222,-1.94266 L -38.5,-0 L -38.6222,1.94266 L -38.987,3.85469 L -39.5885,5.70592 L -40.4172,7.46718
 L -41.4602,9.11066 L -42.701,10.6105 L -44.1199,11.9429 L -45.6947,13.0871 L -47.4004,14.0248 L -49.2102,14.7414
 L -51.0956,15.2254 L -53.0267,15.4694 z
M 17.0267,15.4694 L 15.0956,15.2254 L 13.2102,14.7414 L 11.4004,14.0248 L 9.69467,13.0871 L 8.11992,11.9429
 L 6.70097,10.6105 L 5.46024,9.11066 L 4.41724,7.46718 L 3.58846,5.70592 L 2.98695,3.85469 L 2.62221,1.94266
 L 2.5,-0 L 2.62221,-1.94266 L 2.98695,-3.85469 L 3.58846,-5.70592 L 4.41724,-7.46718 L 5.46024,-9.11066
 L 6.70097,-10.6105 L 8.11992,-11.9429 L 9.69467,-13.0871 L 11.4004,-14.0248 L 13.2102,-14.7414 L 15.0956,-15.2254
 L 17.0267,-15.4694 L 18.9733,-15.4694 L 20.9044,-15.2254 L 22.7897,-14.7414 L 24.5996,-14.0248 L 26.3053,-13.0871
 L 27.8801,-11.9429 L 29.299,-10.6105 L 30.5397,-9.11066 L 31.5827,-7.46718 L 32.4115,-5.70592 L 33.013,-3.85469
 L 33.3778,-1.94266 L 33.5,-0 L 33.3778,1.94266 L 33.013,3.85469 L 32.4115,5.70592 L 31.5827,7.46718
 L 30.5397,9.11066 L 29.299,10.6105 L 27.8801,11.9429 L 26.3053,13.0871 L 24.5996,14.0248 L 22.7897,14.7414
 L 20.9044,15.2254 L 18.9733,15.4694 z
M -18.9733,15.4694 L -20.9044,15.2254 L -22.7897,14.7414 L -24.5996,14.0248 L -26.3053,13.0871 L -27.8801,11.9429
 L -29.299,10.6105 L -30.5397,9.11066 L -31.5827,7.46718 L -32.4115,5.70592 L -33.013,3.85469 L -33.3778,1.94266
 L -33.5,-0 L -33.3778,-1.94266 L -33.013,-3.85469 L -32.4115,-5.70592 L -31.5827,-7.46718 L -30.5397,-9.11066
 L -29.299,-10.6105 L -27.8801,-11.9429 L -26.3053,-13.0871 L -24.5996,-14.0248 L -22.7897,-14.7414 L -20.9044,-15.2254
 L -18.9733,-15.4694 L -17.0267,-15.4694 L -15.0956,-15.2254 L -13.2102,-14.7414 L -11.4004,-14.0248 L -9.69467,-13.0871
 L -8.11992,-11.9429 L -6.70097,-10.6105 L -5.46024,-9.11066 L -4.41724,-7.46718 L -3.58846,-5.70592 L -2.98695,-3.85469
 L -2.62221,-1.94266 L -2.5,-0 L -2.62221,1.94266 L -2.98695,3.85469 L -3.58846,5.70592 L -4.41724,7.46718
 L -5.46024,9.11066 L -6.70097,10.6105 L -8.11992,11.9429 L -9.69467,13.0871 L -11.4004,14.0248 L -13.2102,14.7414
 L -15.0956,15.2254 L -17.0267,15.4694 z
M 53.0267,15.4694 L 51.0956,15.2254 L 49.2102,14.7414 L 47.4004,14.0248 L 45.6947,13.0871 L 44.1199,11.9429
 L 42.701,10.6105 L 41.4602,9.11066 L 40.4172,7.46718 L 39.5885,5.70592 L 38.987,3.85469 L 38.6222,1.94266
 L 38.5,-0 L 38.6222,-1.94266 L 38.987,-3.85469 L 39.5885,-5.70592 L 40.4172,-7.46718 L 41.4602,-9.11066
 L 42.701,-10.6105 L 44.1199,-11.9429 L 45.6947,-13.0871 L 47.4004,-14.0248 L 49.2102,-14.7414 L 51.0956,-15.2254
 L 53.0267,-15.4694 L 54.9733,-15.4694 L 56.9044,-15.2254 L 58.7898,-14.7414 L 60.5996,-14.0248 L 62.3053,-13.0871
 L 63.8801,-11.9429 L 65.299,-10.6105 L 66.5398,-9.11066 L 67.5827,-7.46718 L 68.4115,-5.70592 L 69.013,-3.85469
 L 69.3778,-1.94266 L 69.5,-0 L 69.3778,1.94266 L 69.013,3.85469 L 68.4115,5.70592 L 67.5827,7.46718
 L 66.5398,9.11066 L 65.299,10.6105 L 63.8801,11.9429 L 62.3053,13.0871 L 60.5996,14.0248 L 58.7898,14.7414
 L 56.9044,15.2254 L 54.9733,15.4694 z
M 74.9058,-6.00294 L 74.7189,-6.02657 L 74.5365,-6.07341 L 74.3613,-6.14275 L 74.1963,-6.23351 L 74.0439,-6.34422
 L 73.9065,-6.47318 L 73.7865,-6.61832 L 73.6855,-6.77736 L 73.6053,-6.9478 L 73.5471,-7.12695 L 73.5118,-7.312
 L 73.5,-7.5 L 73.5118,-7.68799 L 73.5471,-7.87303 L 73.6053,-8.05219 L 73.6855,-8.22263 L 73.7865,-8.38167
 L 73.9065,-8.52681 L 74.0439,-8.65576 L 74.1963,-8.76648 L 74.3613,-8.85724 L 74.5365,-8.92657 L 74.7189,-8.97342
 L 74.9058,-8.99704 L 75.0942,-8.99704 L 75.2811,-8.97342 L 75.4635,-8.92657 L 75.6387,-8.85724 L 75.8037,-8.76648
 L 75.9561,-8.65576 L 76.0934,-8.52681 L 76.2135,-8.38167 L 76.3145,-8.22263 L 76.3947,-8.05219 L 76.4529,-7.87303
 L 76.4882,-7.68799 L 76.5,-7.5 L 76.4882,-7.312 L 76.4529,-7.12695 L 76.3947,-6.9478 L 76.3145,-6.77736
 L 76.2135,-6.61832 L 76.0934,-6.47318 L 75.9561,-6.34422 L 75.8037,-6.23351 L 75.6387,-6.14275 L 75.4635,-6.07341
 L 75.2811,-6.02657 L 75.0942,-6.00294 z
M -75.0942,-6.00294 L -75.2811,-6.02657 L -75.4635,-6.07341 L -75.6387,-6.14275 L -75.8037,-6.23351 L -75.9561,-6.34422
 L -76.0934,-6.47318 L -76.2135,-6.61832 L -76.3145,-6.77736 L -76.3947,-6.9478 L -76.4529,-7.12695 L -76.4882,-7.312
 L -76.5,-7.5 L -76.4882,-7.68799 L -76.4529,-7.87303 L -76.3947,-8.05219 L -76.3145,-8.22263 L -76.2135,-8.38167
 L -76.0934,-8.52681 L -75.9561,-8.65576 L -75.8037,-8.76648 L -75.6387,-8.85724 L -75.4635,-8.92657 L -75.2811,-8.97342
 L -75.0942,-8.99704 L -74.9058,-8.99704 L -74.7189,-8.97342 L -74.5365,-8.92657 L -74.3613,-8.85724 L -74.1963,-8.76648
 L -74.0439,-8.65576 L -73.9065,-8.52681 L -73.7865,-8.38167 L -73.6855,-8.22263 L -73.6053,-8.05219 L -73.5471,-7.87303
 L -73.5118,-7.68799 L -73.5,-7.5 L -73.5118,-7.312 L -73.5471,-7.12695 L -73.6053,-6.9478 L -73.6855,-6.77736
 L -73.7865,-6.61832 L -73.9065,-6.47318 L -74.0439,-6.34422 L -74.1963,-6.23351 L -74.3613,-6.14275 L -74.5365,-6.07341
 L -74.7189,-6.02657 L -74.9058,-6.00294 z
M 74.8116,2.99408 L 74.4379,2.94685 L 74.073,2.85316 L 73.7227,2.71448 L 73.3925,2.53297 L 73.0877,2.31154
 L 72.8131,2.05363 L 72.573,1.76335 L 72.3711,1.44525 L 72.2107,1.10437 L 72.0943,0.746063 L 72.0237,0.375992
 L 72,-0 L 72.0237,-0.375992 L 72.0943,-0.746063 L 72.2107,-1.10437 L 72.3711,-1.44525 L 72.573,-1.76335
 L 72.8131,-2.05363 L 73.0877,-2.31154 L 73.3925,-2.53297 L 73.7227,-2.71448 L 74.073,-2.85316 L 74.4379,-2.94685
 L 74.8116,-2.99408 L 75.1884,-2.99408 L 75.5621,-2.94685 L 75.927,-2.85316 L 76.2773,-2.71448 L 76.6075,-2.53297
 L 76.9123,-2.31154 L 77.1869,-2.05363 L 77.427,-1.76335 L 77.6289,-1.44525 L 77.7893,-1.10437 L 77.9057,-0.746063
 L 77.9763,-0.375992 L 78,-0 L 77.9763,0.375992 L 77.9057,0.746063 L 77.7893,1.10437 L 77.6289,1.44525
 L 77.427,1.76335 L 77.1869,2.05363 L 76.9123,2.31154 L 76.6075,2.53297 L 76.2773,2.71448 L 75.927,2.85316
 L 75.5621,2.94685 L 75.1884,2.99408 z
M -75.1884,2.99408 L -75.5621,2.94685 L -75.927,2.85316 L -76.2773,2.71448 L -76.6075,2.53297 L -76.9123,2.31154
 L -77.1869,2.05363 L -77.427,1.76335 L -77.6289,1.44525 L -77.7893,1.10437 L -77.9057,0.746063 L -77.9763,0.375992
 L -78,-0 L -77.9763,-0.375992 L -77.9057,-0.746063 L -77.7893,-1.10437 L -77.6289,-1.44525 L -77.427,-1.76335
 L -77.1869,-2.05363 L -76.9123,-2.31154 L -76.6075,-2.53297 L -76.2773,-2.71448 L -75.927,-2.85316 L -75.5621,-2.94685
 L -75.1884,-2.99408 L -74.8116,-2.99408 L -74.4379,-2.94685 L -74.073,-2.85316 L -73.7227,-2.71448 L -73.3925,-2.53297
 L -73.0877,-2.31154 L -72.8131,-2.05363 L -72.573,-1.76335 L -72.3711,-1.44525 L -72.2107,-1.10437 L -72.0943,-0.746063
 L -72.0237,-0.375992 L -72,-0 L -72.0237,0.375992 L -72.0943,0.746063 L -72.2107,1.10437 L -72.3711,1.44525
 L -72.573,1.76335 L -72.8131,2.05363 L -73.0877,2.31154 L -73.3925,2.53297 L -73.7227,2.71448 L -74.073,2.85316
 L -74.4379,2.94685 L -74.8116,2.99408 z
M -75.0942,8.99704 L -75.2811,8.97342 L -75.4635,8.92657 L -75.6387,8.85724 L -75.8037,8.76648 L -75.9561,8.65576
 L -76.0934,8.52681 L -76.2135,8.38167 L -76.3145,8.22263 L -76.3947,8.05219 L -76.4529,7.87303 L -76.4882,7.68799
 L -76.5,7.5 L -76.4882,7.312 L -76.4529,7.12695 L -76.3947,6.9478 L -76.3145,6.77736 L -76.2135,6.61832
 L -76.0934,6.47318 L -75.9561,6.34422 L -75.8037,6.23351 L -75.6387,6.14275 L -75.4635,6.07341 L -75.2811,6.02657
 L -75.0942,6.00294 L -74.9058,6.00294 L -74.7189,6.02657 L -74.5365,6.07341 L -74.3613,6.14275 L -74.1963,6.23351
 L -74.0439,6.34422 L -73.9065,6.47318 L -73.7865,6.61832 L -73.6855,6.77736 L -73.6053,6.9478 L -73.5471,7.12695
 L -73.5118,7.312 L -73.5,7.5 L -73.5118,7.68799 L -73.5471,7.87303 L -73.6053,8.05219 L -73.6855,8.22263
 L -73.7865,8.38167 L -73.9065,8.52681 L -74.0439,8.65576 L -74.1963,8.76648 L -74.3613,8.85724 L -74.5365,8.92657
 L -74.7189,8.97342 L -74.9058,8.99704 z
M 74.9058,8.99704 L 74.7189,8.97342 L 74.5365,8.92657 L 74.3613,8.85724 L 74.1963,8.76648 L 74.0439,8.65576
 L 73.9065,8.52681 L 73.7865,8.38167 L 73.6855,8.22263 L 73.6053,8.05219 L 73.5471,7.87303 L 73.5118,7.68799
 L 73.5,7.5 L 73.5118,7.312 L 73.5471,7.12695 L 73.6053,6.9478 L 73.6855,6.77736 L 73.7865,6.61832
 L 73.9065,6.47318 L 74.0439,6.34422 L 74.1963,6.23351 L 74.3613,6.14275 L 74.5365,6.07341 L 74.7189,6.02657
 L 74.9058,6.00294 L 75.0942,6.00294 L 75.2811,6.02657 L 75.4635,6.07341 L 75.6387,6.14275 L 75.8037,6.23351
 L 75.9561,6.34422 L 76.0934,6.47318 L 76.2135,6.61832 L 76.3145,6.77736 L 76.3947,6.9478 L 76.4529,7.12695
 L 76.4882,7.312 L 76.5,7.5 L 76.4882,7.68799 L 76.4529,7.87303 L 76.3947,8.05219 L 76.3145,8.22263
 L 76.2135,8.38167 L 76.0934,8.52681 L 75.9561,8.65576 L 75.8037,8.76648 L 75.6387,8.85724 L 75.4635,8.92657
 L 75.2811,8.97342 L 75.0942,8.99704 z
M -75.1884,17.9941 L -75.5621,17.9469 L -75.927,17.8532 L -76.2773,17.7145 L -76.6075,17.533 L -76.9123,17.3115
 L -77.1869,17.0536 L -77.427,16.7634 L -77.6289,16.4453 L -77.7893,16.1044 L -77.9057,15.7461 L -77.9763,15.376
 L -78,15 L -77.9763,14.624 L -77.9057,14.2539 L -77.7893,13.8956 L -77.6289,13.5547 L -77.427,13.2366
 L -77.1869,12.9464 L -76.9123,12.6884 L -76.6075,12.467 L -76.2773,12.2855 L -75.927,12.1468 L -75.5621,12.0531
 L -75.1884,12.0059 L -74.8116,12.0059 L -74.4379,12.0531 L -74.073,12.1468 L -73.7227,12.2855 L -73.3925,12.467
 L -73.0877,12.6884 L -72.8131,12.9464 L -72.573,13.2366 L -72.3711,13.5547 L -72.2107,13.8956 L -72.0943,14.2539
 L -72.0237,14.624 L -72,15 L -72.0237,15.376 L -72.0943,15.7461 L -72.2107,16.1044 L -72.3711,16.4453
 L -72.573,16.7634 L -72.8131,17.0536 L -73.0877,17.3115 L -73.3925,17.533 L -73.7227,17.7145 L -74.073,17.8532
 L -74.4379,17.9469 L -74.8116,17.9941 z
M 74.8116,17.9941 L 74.4379,17.9469 L 74.073,17.8532 L 73.7227,17.7145 L 73.3925,17.533 L 73.0877,17.3115
 L 72.8131,17.0536 L 72.573,16.7634 L 72.3711,16.4453 L 72.2107,16.1044 L 72.0943,15.7461 L 72.0237,15.376
 L 72,15 L 72.0237,14.624 L 72.0943,14.2539 L 72.2107,13.8956 L 72.3711,13.5547 L 72.573,13.2366
 L 72.8131,12.9464 L 73.0877,12.6884 L 73.3925,12.467 L 73.7227,12.2855 L 74.073,12.1468 L 74.4379,12.0531
 L 74.8116,12.0059 L 75.1884,12.0059 L 75.5621,12.0531 L 75.927,12.1468 L 76.2773,12.2855 L 76.6075,12.467
 L 76.9123,12.6884 L 77.1869,12.9464 L 77.427,13.2366 L 77.6289,13.5547 L 77.7893,13.8956 L 77.9057,14.2539
 L 77.9763,14.624 L 78,15 L 77.9763,15.376 L 77.9057,15.7461 L 77.7893,16.1044 L 77.6289,16.4453
 L 77.427,16.7634 L 77.1869,17.0536 L 76.9123,17.3115 L 76.6075,17.533 L 76.2773,17.7145 L 75.927,17.8532
 L 75.5621,17.9469 L 75.1884,17.9941 z
" stroke="black" fill="lightgray" stroke-width="0.5"/>
</svg>
