<?xml version="1.0" standalone="no"?>
<!DOCTYPE svg PUBLIC "-//W3C//DTD SVG 1.1//EN" "http://www.w3.org/Graphics/SVG/1.1/DTD/svg11.dtd">
<svg width="210mm" height="44mm" viewBox="-105 -76 210 44" xmlns="http://www.w3.org/2000/svg" version="1.1">
<title>OpenSCAD Model</title>
<path d="
M 100.437,-32.0886 L 101.045,-32.2447 L 101.629,-32.4759 L 102.179,-32.7784 L 102.687,-33.1474 L 103.145,-33.5773
 L 103.545,-34.0611 L 103.882,-34.5912 L 104.149,-35.1594 L 104.343,-35.7566 L 104.461,-36.3733 L 104.5,-37
 L 104.5,-71 L 104.461,-71.6267 L 104.343,-72.2434 L 104.149,-72.8406 L 103.882,-73.4088 L 103.545,-73.9389
 L 103.145,-74.4227 L 102.687,-74.8526 L 102.179,-75.2216 L 101.629,-75.5241 L 101.045,-75.7553 L 100.437,-75.9114
 L 99.8139,-75.9901 L -99.8139,-75.9901 L -100.437,-75.9114 L -101.045,-75.7553 L -101.629,-75.5241 L -102.179,-75.2216
 L -102.687,-74.8526 L -103.145,-74.4227 L -103.545,-73.9389 L -103.882,-73.4088 L -104.149,-72.8406 L -104.343,-72.2434
 L -104.461,-71.6267 L -104.5,-71 L -104.5,-37 L -104.461,-36.3733 L -104.343,-35.7566 L -104.149,-35.1594
 L -103.882,-34.5912 L -103.545,-34.0611 L -103.145,-33.5773 L -102.687,-33.1474 L -102.179,-32.7784 L -101.629,-32.4759
 L -101.045,-32.2447 L -100.437,-32.0886 L -99.8139,-32.0099 L 99.8139,-32.0099 z
M -97.6884,-66.0059 L -98.0621,-66.0531 L -98.427,-66.1468 L -98.7773,-66.2855 L -99.1075,-66.467 L -99.4123,-66.6884
 L -99.6869,-66.9464 L -99.927,-67.2366 L -100.129,-67.5547 L -100.289,-67.8956 L -100.406,-68.2539 L -100.476,-68.624
 L -100.5,-69 L -100.476,-69.376 L -100.406,-69.7461 L -100.289,-70.1044 L -100.129,-70.4453 L -99.927,-70.7634
 L -99.6869,-71.0536 L -99.4123,-71.3115 L -99.1075,-71.533 L -98.7773,-71.7145 L -98.427,-71.8532 L -98.0621,-71.9469
 L -97.6884,-71.9941 L -97.3116,-71.9941 L -96.9379,-71.9469 L -96.573,-71.8532 L -96.2227,-71.7145 L -95.8925,-71.533
 L -95.5877,-71.3115 L -95.3131,-71.0536 L -95.073,-70.7634 L -94.8711,-70.4453 L -94.7107,-70.1044 L -94.5943,-69.7461
 L -94.5237,-69.376 L -94.5,-69 L -94.5237,-68.624 L -94.5943,-68.2539 L -94.7107,-67.8956 L -94.8711,-67.5547
 L -95.073,-67.2366 L -95.3131,-66.9464 L -95.5877,-66.6884 L -95.8925,-66.467 L -96.2227,-66.2855 L -96.573,-66.1468
 L -96.9379,-66.0531 L -97.3116,-66.0059 z
M 97.3116,-66.0059 L 96.9379,-66.0531 L 96.573,-66.1468 L 96.2227,-66.2855 L 95.8925,-66.467 L 95.5877,-66.6884
 L 95.3131,-66.9464 L 95.073,-67.2366 L 94.8711,-67.5547 L 94.7107,-67.8956 L 94.5943,-68.2539 L 94.5237,-68.624
 L 94.5,-69 L 94.5237,-69.376 L 94.5943,-69.7461 L 94.7107,-70.1044 L 94.8711,-70.4453 L 95.073,-70.7634
 L 95.3131,-71.0536 L 95.5877,-71.3115 L 95.8925,-71.533 L 96.2227,-71.7145 L 96.573,-71.8532 L 96.9379,-71.9469
 L 97.3116,-71.9941 L 97.6884,-71.9941 L 98.0621,-71.9469 L 98.427,-71.8532 L 98.7773,-71.7145 L 99.1075,-71.533
 L 99.4123,-71.3115 L 99.6869,-71.0536 L 99.927,-70.7634 L 100.129,-70.4453 L 100.289,-70.1044 L 100.406,-69.7461
 L 100.476,-69.376 L 100.5,-69 L 100.476,-68.624 L 100.406,-68.2539 L 100.289,-67.8956 L 100.129,-67.5547
 L 99.927,-67.2366 L 99.6869,-66.9464 L 99.4123,-66.6884 L 99.1075,-66.467 L 98.7773,-66.2855 L 98.427,-66.1468
 L 98.0621,-66.0531 L 97.6884,-66.0059 z
M -75.0046,-38.0316 L -76.9981,-38.2834 L -78.9443,-38.7831 L -80.8125,-39.5228 L -82.5732,-40.4908 L -84.1988,-41.6718
 L -85.6635,-43.0473 L -86.9443,-44.5954 L -88.0209,-46.2919 L -88.8764,-48.11 L -89.4973,-50.021 L -89.8738,-51.9947
 L -90,-54 L -89.8738,-56.0053 L -89.4973,-57.979 L -88.8764,-59.89 L -88.0209,-61.7081 L -86.9443,-63.4046
 L -85.6635,-64.9527 L -84.1988,-66.3282 L -82.5732,-67.5092 L -80.8125,-68.4772 L -78.9443,-69.2169 L -76.9981,-69.7166
 L -75.0046,-69.9684 L -72.9953,-69.9684 L -71.0019,-69.7166 L -69.0557,-69.2169 L -67.1875,-68.4772 L -65.4268,-67.5092
 L -63.8012,-66.3282 L -62.3365,-64.9527 L -61.0557,-63.4046 L -59.9791,-61.7081 L -59.1236,-59.89 L -58.5027,-57.979
 L -58.1262,-56.0053 L -58,-54 L -58.1262,-51.9947 L -58.5027,-50.021 L -59.1236,-48.11 L -59.9791,-46.2919
 L -61.0557,-44.5954 L -62.3365,-43.0473 L -63.8012,-41.6718 L -65.4268,-40.4908 L -67.1875,-39.5228 L -69.0557,-38.7831
 L -71.0019,-38.2834 L -72.9953,-38.0316 z
M 35.9953,-38.0316 L 34.0019,-38.2834 L 32.0557,-38.7831 L 30.1875,-39.5228 L 28.4268,-40.4908 L 26.8012,-41.6718
 L 25.3365,-43.0473 L 24.0557,-44.5954 L 22.9791,-46.2919 L 22.1236,-48.11 L 21.5027,-50.021 L 21.1262,-51.9947
 L 21,-54 L 21.1262,-56.0053 L 21.5027,-57.979 L 22.1236,-59.89 L 22.9791,-61.7081 L 24.0557,-63.4046
 L 25.3365,-64.9527 L 26.8012,-66.3282 L 28.4268,-67.5092 L 30.1875,-68.4772 L 32.0557,-69.2169 L 34.0019,-69.7166
 L 35.9953,-69.9684 L 38.0046,-69.9684 L 39.9981,-69.7166 L 41.9443,-69.2169 L 43.8125,-68.4772 L 45.5732,-67.5092
 L 47.1988,-66.3282 L 48.6635,-64.9527 L 49.9443,-63.4046 L 51.0209,-61.7081 L 51.8764,-59.89 L 52.4973,-57.979
 L 52.8738,-56.0053 L 53,-54 L 52.8738,-51.9947 L 52.4973,-50.021 L 51.8764,-48.11 L 51.0209,-46.2919
 L 49.9443,-44.5954 L 48.6635,-43.0473 L 47.1988,-41.6718 L 45.5732,-40.4908 L 43.8125,-39.5228 L 41.9443,-38.7831
 L 39.9981,-38.2834 L 38.0046,-38.0316 z
M -38.0046,-38.0316 L -39.9981,-38.2834 L -41.9443,-38.7831 L -43.8125,-39.5228 L -45.5732,-40.4908 L -47.1988,-41.6718
 L -48.6635,-43.0473 L -49.9443,-44.5954 L -51.0209,-46.2919 L -51.8764,-48.11 L -52.4973,-50.021 L -52.8738,-51.9947
 L -53,-54 L -52.8738,-56.0053 L -52.4973,-57.979 L -51.8764,-59.89 L -51.0209,-61.7081 L -49.9443,-63.4046
 L -48.6635,-64.9527 L -47.1988,-66.3282 L -45.5732,-67.5092 L -43.8125,-68.4772 L -41.9443,-69.2169 L -39.9981,-69.7166
 L -38.0046,-69.9684 L -35.9953,-69.9684 L -34.0019,-69.7166 L -32.0557,-69.2169 L -30.1875,-68.4772 L -28.4268,-67.5092
 L -26.8012,-66.3282 L -25.3365,-64.9527 L -24.0557,-63.4046 L -22.9791,-61.7081 L -22.1236,-59.89 L -21.5027,-57.979
 L -21.1262,-56.0053 L -21,-54 L -21.1262,-51.9947 L -21.5027,-50.021 L -22.1236,-48.11 L -22.9791,-46.2919
 L -24.0557,-44.5954 L -25.3365,-43.0473 L -26.8012,-41.6718 L -28.4268,-40.4908 L -30.1875,-39.5228 L -32.0557,-38.7831
 L -34.0019,-38.2834 L -35.9953,-38.0316 z
M 72.9953,-38.0316 L 71.0019,-38.2834 L 69.0557,-38.7831 L 67.1875,-39.5228 L 65.4268,-40.4908 L 63.8012,-41.6718
 L 62.3365,-43.0473 L 61.0557,-44.5954 L 59.9791,-46.2919 L 59.1236,-48.11 L 58.5027,-50.021 L 58.1262,-51.9947
 L 58,-54 L 58.1262,-56.0053 L 58.5027,-57.979 L 59.1236,-59.89 L 59.9791,-61.7081 L 61.0557,-63.4046
 L 62.3365,-64.9527 L 63.8012,-66.3282 L 65.4268,-67.5092 L 67.1875,-68.4772 L 69.0557,-69.2169 L 71.0019,-69.7166
 L 72.9953,-69.9684 L 75.0046,-69.9684 L 76.9981,-69.7166 L 78.9443,-69.2169 L 80.8125,-68.4772 L 82.5732,-67.5092
 L 84.1988,-66.3282 L 85.6635,-64.9527 L 86.9443,-63.4046 L 88.0209,-61.7081 L 88.8764,-59.89 L 89.4973,-57.979
 L 89.8738,-56.0053 L 90,-54 L 89.8738,-51.9947 L 89.4973,-50.021 L 88.8764,-48.11 L 88.0209,-46.2919
 L 86.9443,-44.5954 L 85.6635,-43.0473 L 84.1988,-41.6718 L 82.5732,-40.4908 L 80.8125,-39.5228 L 78.9443,-38.7831
 L 76.9981,-38.2834 L 75.0046,-38.0316 z
M -1.00464,-38.0316 L -2.99809,-38.2834 L -4.94426,-38.7831 L -6.81245,-39.5228 L -8.57323,-40.4908 L -10.1988,-41.6718
 L -11.6635,-43.0473 L -12.9443,-44.5954 L -14.0209,-46.2919 L -14.8764,-48.11 L -15.4973,-50.021 L -15.8738,-51.9947
 L -16,-54 L -15.8738,-56.0053 L -15.4973,-57.979 L -14.8764,-59.89 L -14.0209,-61.7081 L -12.9443,-63.4046
 L -11.6635,-64.9527 L -10.1988,-66.3282 L -8.57323,-67.5092 L -6.81245,-68.4772 L -4.94426,-69.2169 L -2.99809,-69.7166
 L -1.00464,-69.9684 L 1.00464,-69.9684 L 2.99809,-69.7166 L 4.94426,-69.2169 L 6.81245,-68.4772 L 8.57323,-67.5092
 L 10.1988,-66.3282 L 11.6635,-64.9527 L 12.9443,-63.4046 L 14.0209,-61.7081 L 14.8764,-59.89 L 15.4973,-57.979
 L 15.8738,-56.0053 L 16,-54 L 15.8738,-51.9947 L 15.4973,-50.021 L 14.8764,-48.11 L 14.0209,-46.2919
 L 12.9443,-44.5954 L 11.6635,-43.0473 L 10.1988,-41.6718 L 8.57323,-40.4908 L 6.81245,-39.5228 L 4.94426,-38.7831
 L 2.99809,-38.2834 L 1.00464,-38.0316 z
M 97.4058,-60.0029 L 97.2189,-60.0266 L 97.0365,-60.0734 L 96.8613,-60.1427 L 96.6963,-60.2335 L 96.5439,-60.3442
 L 96.4065,-60.4732 L 96.2865,-60.6183 L 96.1855,-60.7774 L 96.1053,-60.9478 L 96.0471,-61.127 L 96.0118,-61.312
 L 96,-61.5 L 96.0118,-61.688 L 96.0471,-61.873 L 96.1053,-62.0522 L 96.1855,-62.2226 L 96.2865,-62.3817
 L 96.4065,-62.5268 L 96.5439,-62.6558 L 96.6963,-62.7665 L 96.8613,-62.8572 L 97.0365,-62.9266 L 97.2189,-62.9734
 L 97.4058,-62.997 L 97.5942,-62.997 L 97.7811,-62.9734 L 97.9635,-62.9266 L 98.1387,-62.8572 L 98.3037,-62.7665
 L 98.4561,-62.6558 L 98.5934,-62.5268 L 98.7135,-62.3817 L 98.8145,-62.2226 L 98.8947,-62.0522 L 98.9529,-61.873
 L 98.9882,-61.688 L 99,-61.5 L 98.9882,-61.312 L 98.9529,-61.127 L 98.8947,-60.9478 L 98.8145,-60.7774
 L 98.7135,-60.6183 L 98.5934,-60.4732 L 98.4561,-60.3442 L 98.3037,-60.2335 L 98.1387,-60.1427 L 97.9635,-60.0734
 L 97.7811,-60.0266 L 97.5942,-60.0029 z
M -97.5942,-60.0029 L -97.7811,-60.0266 L -97.9635,-60.0734 L -98.1387,-60.1427 L -98.3037,-60.2335 L -98.4561,-60.3442
 L -98.5934,-60.4732 L -98.7135,-60.6183 L -98.8145,-60.7774 L -98.8947,-60.9478 L -98.9529,-61.127 L -98.9882,-61.312
 L -99,-61.5 L -98.9882,-61.688 L -98.9529,-61.873 L -98.8947,-62.0522 L -98.8145,-62.2226 L -98.7135,-62.3817
 L -98.5934,-62.5268 L -98.4561,-62.6558 L -98.3037,-62.7665 L -98.1387,-62.8572 L -97.9635,-62.9266 L -97.7811,-62.9734
 L -97.5942,-62.997 L -97.4058,-62.997 L -97.2189,-62.9734 L -97.0365,-62.9266 L -96.8613,-62.8572 L -96.6963,-62.7665
 L -96.5439,-62.6558 L -96.4065,-62.5268 L -96.2865,-62.3817 L -96.1855,-62.2226 L -96.1053,-62.0522 L -96.0471,-61.873
 L -96.0118,-61.688 L -96,-61.5 L -96.0118,-61.312 L -96.0471,-61.127 L -96.1053,-60.9478 L -96.1855,-60.7774
 L -96.2865,-60.6183 L -96.4065,-60.4732 L -96.5439,-60.3442 L -96.6963,-60.2335 L -96.8613,-60.1427 L -97.0365,-60.0734
 L -97.2189,-60.0266 L -97.4058,-60.0029 z
M -97.6884,-51.0059 L -98.0621,-51.0531 L -98.427,-51.1468 L -98.7773,-51.2855 L -99.1075,-51.467 L -99.4123,-51.6885
 L -99.6869,-51.9464 L -99.927,-52.2366 L -100.129,-52.5547 L -100.289,-52.8956 L -100.406,-53.2539 L -100.476,-53.624
 L -100.5,-54 L -100.476,-54.376 L -100.406,-54.7461 L -100.289,-55.1044 L -100.129,-55.4453 L -99.927,-55.7634
 L -99.6869,-56.0536 L -99.4123,-56.3115 L -99.1075,-56.533 L -98.7773,-56.7145 L -98.427,-56.8532 L -98.0621,-56.9469
 L -97.6884,-56.9941 L -97.3116,-56.9941 L -96.9379,-56.9469 L -96.573,-56.8532 L -96.2227,-56.7145 L -95.8925,-56.533
 L -95.5877,-56.3115 L -95.3131,-56.0536 L -95.073,-55.7634 L -94.8711,-55.4453 L -94.7107,-55.1044 L -94.5943,-54.7461
 L -94.5237,-54.376 L -94.5,-54 L -94.5237,-53.624 L -94.5943,-53.2539 L -94.7107,-52.8956 L -94.8711,-52.5547
 L -95.073,-52.2366 L -95.3131,-51.9464 L -95.5877,-51.6885 L -95.8925,-51.467 L -96.2227,-51.2855 L -96.573,-51.1468
 L -96.9379,-51.0531 L -97.3116,-51.0059 z
M 97.3116,-51.0059 L 96.9379,-51.0531 L 96.573,-51.1468 L 96.2227,-51.2855 L 95.8925,-51.467 L 95.5877,-51.6885
 L 95.3131,-51.9464 L 95.073,-52.2366 L 94.8711,-52.5547 L 94.7107,-52.8956 L 94.5943,-53.2539 L 94.5237,-53.624
 L 94.5,-54 L 94.5237,-54.376 L 94.5943,-54.7461 L 94.7107,-55.1044 L 94.8711,-55.4453 L 95.073,-55.7634
 L 95.3131,-56.0536 L 95.5877,-56.3115 L 95.8925,-56.533 L 96.2227,-56.7145 L 96.573,-56.8532 L 96.9379,-56.9469
 L 97.3116,-56.9941 L 97.6884,-56.9941 L 98.0621,-56.9469 L 98.427,-56.8532 L 98.7773,-56.7145 L 99.1075,-56.533
 L 99.4123,-56.3115 L 99.6869,-56.0536 L 99.927,-55.7634 L 100.129,-55.4453 L 100.289,-55.1044 L 100.406,-54.7461
 L 100.476,-54.376 L 100.5,-54 L 100.476,-53.624 L 100.406,-53.2539 L 100.289,-52.8956 L 100.129,-52.5547
 L 99.927,-52.2366 L 99.6869,-51.9464 L 99.4123,-51.6885 L 99.1075,-51.467 L 98.7773,-51.2855 L 98.427,-51.1468
 L 98.0621,-51.0531 L 97.6884,-51.0059 z
M -97.5942,-45.003 L -97.7811,-45.0266 L -97.9635,-45.0734 L -98.1387,-45.1428 L -98.3037,-45.2335 L -98.4561,-45.3442
 L -98.5934,-45.4732 L -98.7135,-45.6183 L -98.8145,-45.7774 L -98.8947,-45.9478 L -98.9529,-46.127 L -98.9882,-46.312
 L -99,-46.5 L -98.9882,-46.688 L -98.9529,-46.873 L -98.8947,-47.0522 L -98.8145,-47.2226 L -98.7135,-47.3817
 L -98.5934,-47.5268 L -98.4561,-47.6558 L -98.3037,-47.7665 L -98.1387,-47.8573 L -97.9635,-47.9266 L -97.7811,-47.9734
 L -97.5942,-47.9971 L -97.4058,-47.9971 L -97.2189,-47.9734 L -97.0365,-47.9266 L -96.8613,-47.8573 L -96.6963,-47.7665
 L -96.5439,-47.6558 L -96.4065,-47.5268 L -96.2865,-47.3817 L -96.1855,-47.2226 L -96.1053,-47.0522 L -96.0471,-46.873
 L -96.0118,-46.688 L -96,-46.5 L -96.0118,-46.312 L -96.0471,-46.127 L -96.1053,-45.9478 L -96.1855,-45.7774
 L -96.2865,-45.6183 L -96.4065,-45.4732 L -96.5439,-45.3442 L -96.6963,-45.2335 L -96.8613,-45.1428 L -97.0365,-45.0734
 L -97.2189,-45.0266 L -97.4058,-45.003 z
M 97.4058,-45.003 L 97.2189,-45.0266 L 97.0365,-45.0734 L 96.8613,-45.1428 L 96.6963,-45.2335 L 96.5439,-45.3442
 L 96.4065,-45.4732 L 96.2865,-45.6183 L 96.1855,-45.7774 L 96.1053,-45.9478 L 96.0471,-46.127 L 96.0118,-46.312
 L 96,-46.5 L 96.0118,-46.688 L 96.0471,-46.873 L 96.1053,-47.0522 L 96.1855,-47.2226 L 96.2865,-47.3817
 L 96.4065,-47.5268 L 96.5439,-47.6558 L 96.6963,-47.7665 L 96.8613,-47.8573 L 97.0365,-47.9266 L 97.2189,-47.9734
 L 97.4058,-47.9971 L 97.5942,-47.9971 L 97.7811,-47.9734 L 97.9635,-47.9266 L 98.1387,-47.8573 L 98.3037,-47.7665
 L 98.4561,-47.6558 L 98.5934,-47.5268 L 98.7135,-47.3817 L 98.8145,-47.2226 L 98.8947,-47.0522 L 98.9529,-46.873
 L 98.9882,-46.688 L 99,-46.5 L 98.9882,-46.312 L 98.9529,-46.127 L 98.8947,-45.9478 L 98.8145,-45.7774
 L 98.7135,-45.6183 L 98.5934,-45.4732 L 98.4561,-45.3442 L 98.3037,-45.2335 L 98.1387,-45.1428 L 97.9635,-45.0734
 L 97.7811,-45.0266 L 97.5942,-45.003 z
M 97.3116,-36.0059 L 96.9379,-36.0531 L 96.573,-36.1468 L 96.2227,-36.2855 L 95.8925,-36.467 L 95.5877,-36.6885
 L 95.3131,-36.9464 L 95.073,-37.2366 L 94.8711,-37.5547 L 94.7107,-37.8956 L 94.5943,-38.2539 L 94.5237,-38.624
 L 94.5,-39 L 94.5237,-39.376 L 94.5943,-39.7461 L 94.7107,-40.1044 L 94.8711,-40.4453 L 95.073,-40.7634
 L 95.3131,-41.0536 L 95.5877,-41.3116 L 95.8925,-41.533 L 96.2227,-41.7145 L 96.573,-41.8532 L 96.9379,-41.9469
 L 97.3116,-41.9941 L 97.6884,-41.9941 L 98.0621,-41.9469 L 98.427,-41.8532 L 98.7773,-41.7145 L 99.1075,-41.533
 L 99.4123,-41.3116 L 99.6869,-41.0536 L 99.927,-40.7634 L 100.129,-40.4453 L 100.289,-40.1044 L 100.406,-39.7461
 L 100.476,-39.376 L 100.5,-39 L 100.476,-38.624 L 100.406,-38.2539 L 100.289,-37.8956 L 100.129,-37.5547
 L 99.927,-37.2366 L 99.6869,-36.9464 L 99.4123,-36.6885 L 99.1075,-36.467 L 98.7773,-36.2855 L 98.427,-36.1468
 L 98.0621,-36.0531 L 97.6884,-36.0059 z
M -97.6884,-36.0059 L -98.0621,-36.0531 L -98.427,-36.1468 L -98.7773,-36.2855 L -99.1075,-36.467 L -99.4123,-36.6885
 L -99.6869,-36.9464 L -99.927,-37.2366 L -100.129,-37.5547 L -100.289,-37.8956 L -100.406,-38.2539 L -100.476,-38.624
 L -100.5,-39 L -100.476,-39.376 L -100.406,-39.7461 L -100.289,-40.1044 L -100.129,-40.4453 L -99.927,-40.7634
 L -99.6869,-41.0536 L -99.4123,-41.3116 L -99.1075,-41.533 L -98.7773,-41.7145 L -98.427,-41.8532 L -98.0621,-41.9469
 L -97.6884,-41.9941 L -97.3116,-41.9941 L -96.9379,-41.9469 L -96.573,-41.8532 L -96.2227,-41.7145 L -95.8925,-41.533
 L -95.5877,-41.3116 L -95.3131,-41.0536 L -95.073,-40.7634 L -94.8711,-40.4453 L -94.7107,-40.1044 L -94.5943,-39.7461
 L -94.5237,-39.376 L -94.5,-39 L -94.5237,-38.624 L -94.5943,-38.2539 L -94.7107,-37.8956 L -94.8711,-37.5547
 L -95.073,-37.2366 L -95.3131,-36.9464 L -95.5877,-36.6885 L -95.8925,-36.467 L -96.2227,-36.2855 L -96.573,-36.1468
 L -96.9379,-36.0531 L -97.3116,-36.0059 z
" stroke="black" fill="lightgray" stroke-width="0.5"/>
</svg>
