<?xml version="1.0" standalone="no"?>
<!DOCTYPE svg PUBLIC "-//W3C//DTD SVG 1.1//EN" "http://www.w3.org/Graphics/SVG/1.1/DTD/svg11.dtd">
<svg width="210mm" height="60mm" viewBox="-105 -30 210 60" xmlns="http://www.w3.org/2000/svg" version="1.1">
<title>OpenSCAD Model</title>
<path d="
M 100.437,29.4114 L 101.045,29.2553 L 101.629,29.0241 L 102.179,28.7216 L 102.687,28.3526 L 103.145,27.9227
 L 103.545,27.4389 L 103.882,26.9088 L 104.149,26.3406 L 104.343,25.7434 L 104.461,25.1267 L 104.5,24.5
 L 104.5,-24.5 L 104.461,-25.1267 L 104.343,-25.7434 L 104.149,-26.3406 L 103.882,-26.9088 L 103.545,-27.4389
 L 103.145,-27.9227 L 102.687,-28.3526 L 102.179,-28.7216 L 101.629,-29.0241 L 101.045,-29.2553 L 100.437,-29.4114
 L 99.8139,-29.4901 L -99.8139,-29.4901 L -100.437,-29.4114 L -101.045,-29.2553 L -101.629,-29.0241 L -102.179,-28.7216
 L -102.687,-28.3526 L -103.145,-27.9227 L -103.545,-27.4389 L -103.882,-26.9088 L -104.149,-26.3406 L -104.343,-25.7434
 L -104.461,-25.1267 L -104.5,-24.5 L -104.5,24.5 L -104.461,25.1267 L -104.343,25.7434 L -104.149,26.3406
 L -103.882,26.9088 L -103.545,27.4389 L -103.145,27.9227 L -102.687,28.3526 L -102.179,28.7216 L -101.629,29.0241
 L -101.045,29.2553 L -100.437,29.4114 L -99.8139,29.4901 L 99.8139,29.4901 z
M 97.3116,-19.5059 L 96.9379,-19.5531 L 96.573,-19.6468 L 96.2227,-19.7855 L 95.8925,-19.967 L 95.5877,-20.1884
 L 95.3131,-20.4464 L 95.073,-20.7366 L 94.8711,-21.0547 L 94.7107,-21.3956 L 94.5943,-21.7539 L 94.5237,-22.124
 L 94.5,-22.5 L 94.5237,-22.876 L 94.5943,-23.2461 L 94.7107,-23.6044 L 94.8711,-23.9453 L 95.073,-24.2634
 L 95.3131,-24.5536 L 95.5877,-24.8115 L 95.8925,-25.033 L 96.2227,-25.2145 L 96.573,-25.3532 L 96.9379,-25.4469
 L 97.3116,-25.4941 L 97.6884,-25.4941 L 98.0621,-25.4469 L 98.427,-25.3532 L 98.7773,-25.2145 L 99.1075,-25.033
 L 99.4123,-24.8115 L 99.6869,-24.5536 L 99.927,-24.2634 L 100.129,-23.9453 L 100.289,-23.6044 L 100.406,-23.2461
 L 100.476,-22.876 L 100.5,-22.5 L 100.476,-22.124 L 100.406,-21.7539 L 100.289,-21.3956 L 100.129,-21.0547
 L 99.927,-20.7366 L 99.6869,-20.4464 L 99.4123,-20.1884 L 99.1075,-19.967 L 98.7773,-19.7855 L 98.427,-19.6468
 L 98.0621,-19.5531 L 97.6884,-19.5059 z
M -97.6884,-19.5059 L -98.0621,-19.5531 L -98.427,-19.6468 L -98.7773,-19.7855 L -99.1075,-19.967 L -99.4123,-20.1884
 L -99.6869,-20.4464 L -99.927,-20.7366 L -100.129,-21.0547 L -100.289,-21.3956 L -100.406,-21.7539 L -100.476,-22.124
 L -100.5,-22.5 L -100.476,-22.876 L -100.406,-23.2461 L -100.289,-23.6044 L -100.129,-23.9453 L -99.927,-24.2634
 L -99.6869,-24.5536 L -99.4123,-24.8115 L -99.1075,-25.033 L -98.7773,-25.2145 L -98.427,-25.3532 L -98.0621,-25.4469
 L -97.6884,-25.4941 L -97.3116,-25.4941 L -96.9379,-25.4469 L -96.573,-25.3532 L -96.2227,-25.2145 L -95.8925,-25.033
 L -95.5877,-24.8115 L -95.3131,-24.5536 L -95.073,-24.2634 L -94.8711,-23.9453 L -94.7107,-23.6044 L -94.5943,-23.2461
 L -94.5237,-22.876 L -94.5,-22.5 L -94.5237,-22.124 L -94.5943,-21.7539 L -94.7107,-21.3956 L -94.8711,-21.0547
 L -95.073,-20.7366 L -95.3131,-20.4464 L -95.5877,-20.1884 L -95.8925,-19.967 L -96.2227,-19.7855 L -96.573,-19.6468
 L -96.9379,-19.5531 L -97.3116,-19.5059 z
M -23.7558,19.9605 L -26.2476,19.6457 L -28.6803,19.0211 L -31.0156,18.0965 L -33.2165,16.8866 L -35.2485,15.4103
 L -37.0794,13.6909 L -38.6803,11.7557 L -40.0261,9.63507 L -41.0955,7.36249 L -41.8717,4.97379 L -42.3423,2.50665
 L -42.5,-0 L -42.3423,-2.50665 L -41.8717,-4.97379 L -41.0955,-7.36249 L -40.0261,-9.63507 L -38.6803,-11.7557
 L -37.0794,-13.6909 L -35.2485,-15.4103 L -33.2165,-16.8866 L -31.0156,-18.0965 L -28.6803,-19.0211 L -26.2476,-19.6457
 L -23.7558,-19.9605 L -21.2442,-19.9605 L -18.7524,-19.6457 L -16.3197,-19.0211 L -13.9844,-18.0965 L -11.7835,-16.8866
 L -9.75151,-15.4103 L -7.92062,-13.6909 L -6.31966,-11.7557 L -4.97386,-9.63507 L -3.90446,-7.36249 L -3.12833,-4.97379
 L -2.6577,-2.50665 L -2.5,-0 L -2.6577,2.50665 L -3.12833,4.97379 L -3.90446,7.36249 L -4.97386,9.63507
 L -6.31966,11.7557 L -7.92062,13.6909 L -9.75151,15.4103 L -11.7835,16.8866 L -13.9844,18.0965 L -16.3197,19.0211
 L -18.7524,19.6457 L -21.2442,19.9605 z
M 66.2442,19.9605 L 63.7524,19.6457 L 61.3197,19.0211 L 58.9844,18.0965 L 56.7835,16.8866 L 54.7515,15.4103
 L 52.9206,13.6909 L 51.3197,11.7557 L 49.9739,9.63507 L 48.9045,7.36249 L 48.1283,4.97379 L 47.6577,2.50665
 L 47.5,-0 L 47.6577,-2.50665 L 48.1283,-4.97379 L 48.9045,-7.36249 L 49.9739,-9.63507 L 51.3197,-11.7557
 L 52.9206,-13.6909 L 54.7515,-15.4103 L 56.7835,-16.8866 L 58.9844,-18.0965 L 61.3197,-19.0211 L 63.7524,-19.6457
 L 66.2442,-19.9605 L 68.7558,-19.9605 L 71.2476,-19.6457 L 73.6803,-19.0211 L 76.0156,-18.0965 L 78.2165,-16.8866
 L 80.2485,-15.4103 L 82.0794,-13.6909 L 83.6803,-11.7557 L 85.0261,-9.63507 L 86.0955,-7.36249 L 86.8717,-4.97379
 L 87.3423,-2.50665 L 87.5,-0 L 87.3423,2.50665 L 86.8717,4.97379 L 86.0955,7.36249 L 85.0261,9.63507
 L 83.6803,11.7557 L 82.0794,13.6909 L 80.2485,15.4103 L 78.2165,16.8866 L 76.0156,18.0965 L 73.6803,19.0211
 L 71.2476,19.6457 L 68.7558,19.9605 z
M -68.7558,19.9605 L -71.2476,19.6457 L -73.6803,19.0211 L -76.0156,18.0965 L -78.2165,16.8866 L -80.2485,15.4103
 L -82.0794,13.6909 L -83.6803,11.7557 L -85.0261,9.63507 L -86.0955,7.36249 L -86.8717,4.97379 L -87.3423,2.50665
 L -87.5,-0 L -87.3423,-2.50665 L -86.8717,-4.97379 L -86.0955,-7.36249 L -85.0261,-9.63507 L -83.6803,-11.7557
 L -82.0794,-13.6909 L -80.2485,-15.4103 L -78.2165,-16.8866 L -76.0156,-18.0965 L -73.6803,-19.0211 L -71.2476,-19.6457
 L -68.7558,-19.9605 L -66.2442,-19.9605 L -63.7524,-19.6457 L -61.3197,-19.0211 L -58.9844,-18.0965 L -56.7835,-16.8866
 L -54.7515,-15.4103 L -52.9206,-13.6909 L -51.3197,-11.7557 L -49.9739,-9.63507 L -48.9045,-7.36249 L -48.1283,-4.97379
 L -47.6577,-2.50665 L -47.5,-0 L -47.6577,2.50665 L -48.1283,4.97379 L -48.9045,7.36249 L -49.9739,9.63507
 L -51.3197,11.7557 L -52.9206,13.6909 L -54.7515,15.4103 L -56.7835,16.8866 L -58.9844,18.0965 L -61.3197,19.0211
 L -63.7524,19.6457 L -66.2442,19.9605 z
M 21.2442,19.9605 L 18.7524,19.6457 L 16.3197,19.0211 L 13.9844,18.0965 L 11.7835,16.8866 L 9.75151,15.4103
 L 7.92062,13.6909 L 6.31966,11.7557 L 4.97386,9.63507 L 3.90446,7.36249 L 3.12833,4.97379 L 2.6577,2.50665
 L 2.5,-0 L 2.6577,-2.50665 L 3.12833,-4.97379 L 3.90446,-7.36249 L 4.97386,-9.63507 L 6.31966,-11.7557
 L 7.92062,-13.6909 L 9.75151,-15.4103 L 11.7835,-16.8866 L 13.9844,-18.0965 L 16.3197,-19.0211 L 18.7524,-19.6457
 L 21.2442,-19.9605 L 23.7558,-19.9605 L 26.2476,-19.6457 L 28.6803,-19.0211 L 31.0156,-18.0965 L 33.2165,-16.8866
 L 35.2485,-15.4103 L 37.0794,-13.6909 L 38.6803,-11.7557 L 40.0261,-9.63507 L 41.0955,-7.36249 L 41.8717,-4.97379
 L 42.3423,-2.50665 L 42.5,-0 L 42.3423,2.50665 L 41.8717,4.97379 L 41.0955,7.36249 L 40.0261,9.63507
 L 38.6803,11.7557 L 37.0794,13.6909 L 35.2485,15.4103 L 33.2165,16.8866 L 31.0156,18.0965 L 28.6803,19.0211
 L 26.2476,19.6457 L 23.7558,19.9605 z
M 97.4058,-13.5029 L 97.2189,-13.5266 L 97.0365,-13.5734 L 96.8613,-13.6427 L 96.6963,-13.7335 L 96.5439,-13.8442
 L 96.4065,-13.9732 L 96.2865,-14.1183 L 96.1855,-14.2774 L 96.1053,-14.4478 L 96.0471,-14.627 L 96.0118,-14.812
 L 96,-15 L 96.0118,-15.188 L 96.0471,-15.373 L 96.1053,-15.5522 L 96.1855,-15.7226 L 96.2865,-15.8817
 L 96.4065,-16.0268 L 96.5439,-16.1558 L 96.6963,-16.2665 L 96.8613,-16.3572 L 97.0365,-16.4266 L 97.2189,-16.4734
 L 97.4058,-16.497 L 97.5942,-16.497 L 97.7811,-16.4734 L 97.9635,-16.4266 L 98.1387,-16.3572 L 98.3037,-16.2665
 L 98.4561,-16.1558 L 98.5934,-16.0268 L 98.7135,-15.8817 L 98.8145,-15.7226 L 98.8947,-15.5522 L 98.9529,-15.373
 L 98.9882,-15.188 L 99,-15 L 98.9882,-14.812 L 98.9529,-14.627 L 98.8947,-14.4478 L 98.8145,-14.2774
 L 98.7135,-14.1183 L 98.5934,-13.9732 L 98.4561,-13.8442 L 98.3037,-13.7335 L 98.1387,-13.6427 L 97.9635,-13.5734
 L 97.7811,-13.5266 L 97.5942,-13.5029 z
M -97.5942,-13.5029 L -97.7811,-13.5266 L -97.9635,-13.5734 L -98.1387,-13.6427 L -98.3037,-13.7335 L -98.4561,-13.8442
 L -98.5934,-13.9732 L -98.7135,-14.1183 L -98.8145,-14.2774 L -98.8947,-14.4478 L -98.9529,-14.627 L -98.9882,-14.812
 L -99,-15 L -98.9882,-15.188 L -98.9529,-15.373 L -98.8947,-15.5522 L -98.8145,-15.7226 L -98.7135,-15.8817
 L -98.5934,-16.0268 L -98.4561,-16.1558 L -98.3037,-16.2665 L -98.1387,-16.3572 L -97.9635,-16.4266 L -97.7811,-16.4734
 L -97.5942,-16.497 L -97.4058,-16.497 L -97.2189,-16.4734 L -97.0365,-16.4266 L -96.8613,-16.3572 L -96.6963,-16.2665
 L -96.5439,-16.1558 L -96.4065,-16.0268 L -96.2865,-15.8817 L -96.1855,-15.7226 L -96.1053,-15.5522 L -96.0471,-15.373
 L -96.0118,-15.188 L -96,-15 L -96.0118,-14.812 L -96.0471,-14.627 L -96.1053,-14.4478 L -96.1855,-14.2774
 L -96.2865,-14.1183 L -96.4065,-13.9732 L -96.5439,-13.8442 L -96.6963,-13.7335 L -96.8613,-13.6427 L -97.0365,-13.5734
 L -97.2189,-13.5266 L -97.4058,-13.5029 z
M 97.3116,-4.50591 L 96.9379,-4.55313 L 96.573,-4.64682 L 96.2227,-4.78551 L 95.8925,-4.96701 L 95.5877,-5.18845
 L 95.3131,-5.44635 L 95.073,-5.73663 L 94.8711,-6.05473 L 94.7107,-6.39561 L 94.5943,-6.75392 L 94.5237,-7.12399
 L 94.5,-7.5 L 94.5237,-7.87599 L 94.5943,-8.24606 L 94.7107,-8.60437 L 94.8711,-8.94525 L 95.073,-9.26335
 L 95.3131,-9.55363 L 95.5877,-9.81154 L 95.8925,-10.033 L 96.2227,-10.2145 L 96.573,-10.3532 L 96.9379,-10.4469
 L 97.3116,-10.4941 L 97.6884,-10.4941 L 98.0621,-10.4469 L 98.427,-10.3532 L 98.7773,-10.2145 L 99.1075,-10.033
 L 99.4123,-9.81154 L 99.6869,-9.55363 L 99.927,-9.26335 L 100.129,-8.94525 L 100.289,-8.60437 L 100.406,-8.24606
 L 100.476,-7.87599 L 100.5,-7.5 L 100.476,-7.12399 L 100.406,-6.75392 L 100.289,-6.39561 L 100.129,-6.05473
 L 99.927,-5.73663 L 99.6869,-5.44635 L 99.4123,-5.18845 L 99.1075,-4.96701 L 98.7773,-4.78551 L 98.427,-4.64682
 L 98.0621,-4.55313 L 97.6884,-4.50591 z
M -97.6884,-4.50591 L -98.0621,-4.55313 L -98.427,-4.64682 L -98.7773,-4.78551 L -99.1075,-4.96701 L -99.4123,-5.18845
 L -99.6869,-5.44635 L -99.927,-5.73663 L -100.129,-6.05473 L -100.289,-6.39561 L -100.406,-6.75392 L -100.476,-7.12399
 L -100.5,-7.5 L -100.476,-7.87599 L -100.406,-8.24606 L -100.289,-8.60437 L -100.129,-8.94525 L -99.927,-9.26335
 L -99.6869,-9.55363 L -99.4123,-9.81154 L -99.1075,-10.033 L -98.7773,-10.2145 L -98.427,-10.3532 L -98.0621,-10.4469
 L -97.6884,-10.4941 L -97.3116,-10.4941 L -96.9379,-10.4469 L -96.573,-10.3532 L -96.2227,-10.2145 L -95.8925,-10.033
 L -95.5877,-9.81154 L -95.3131,-9.55363 L -95.073,-9.26335 L -94.8711,-8.94525 L -94.7107,-8.60437 L -94.5943,-8.24606
 L -94.5237,-7.87599 L -94.5,-7.5 L -94.5237,-7.12399 L -94.5943,-6.75392 L -94.7107,-6.39561 L -94.8711,-6.05473
 L -95.073,-5.73663 L -95.3131,-5.44635 L -95.5877,-5.18845 L -95.8925,-4.96701 L -96.2227,-4.78551 L -96.573,-4.64682
 L -96.9379,-4.55313 L -97.3116,-4.50591 z
M 97.4058,1.49704 L 97.2189,1.47342 L 97.0365,1.42657 L 96.8613,1.35724 L 96.6963,1.26648 L 96.5439,1.15576
 L 96.4065,1.02681 L 96.2865,0.881668 L 96.1855,0.722626 L 96.1053,0.552185 L 96.0471,0.373032 L 96.0118,0.187988
 L 96,-0 L 96.0118,-0.187988 L 96.0471,-0.373032 L 96.1053,-0.552185 L 96.1855,-0.722626 L 96.2865,-0.881668
 L 96.4065,-1.02681 L 96.5439,-1.15576 L 96.6963,-1.26648 L 96.8613,-1.35724 L 97.0365,-1.42657 L 97.2189,-1.47342
 L 97.4058,-1.49704 L 97.5942,-1.49704 L 97.7811,-1.47342 L 97.9635,-1.42657 L 98.1387,-1.35724 L 98.3037,-1.26648
 L 98.4561,-1.15576 L 98.5934,-1.02681 L 98.7135,-0.881668 L 98.8145,-0.722626 L 98.8947,-0.552185 L 98.9529,-0.373032
 L 98.9882,-0.187988 L 99,-0 L 98.9882,0.187988 L 98.9529,0.373032 L 98.8947,0.552185 L 98.8145,0.722626
 L 98.7135,0.881668 L 98.5934,1.02681 L 98.4561,1.15576 L 98.3037,1.26648 L 98.1387,1.35724 L 97.9635,1.42657
 L 97.7811,1.47342 L 97.5942,1.49704 z
M -97.5942,1.49704 L -97.7811,1.47342 L -97.9635,1.42657 L -98.1387,1.35724 L -98.3037,1.26648 L -98.4561,1.15576
 L -98.5934,1.02681 L -98.7135,0.881668 L -98.8145,0.722626 L -98.8947,0.552185 L -98.9529,0.373032 L -98.9882,0.187988
 L -99,-0 L -98.9882,-0.187988 L -98.9529,-0.373032 L -98.8947,-0.552185 L -98.8145,-0.722626 L -98.7135,-0.881668
 L -98.5934,-1.02681 L -98.4561,-1.15576 L -98.3037,-1.26648 L -98.1387,-1.35724 L -97.9635,-1.42657 L -97.7811,-1.47342
 L -97.5942,-1.49704 L -97.4058,-1.49704 L -97.2189,-1.47342 L -97.0365,-1.42657 L -96.8613,-1.35724 L -96.6963,-1.26648
 L -96.5439,-1.15576 L -96.4065,-1.02681 L -96.2865,-0.881668 L -96.1855,-0.722626 L -96.1053,-0.552185 L -96.0471,-0.373032
 L -96.0118,-0.187988 L -96,-0 L -96.0118,0.187988 L -96.0471,0.373032 L -96.1053,0.552185 L -96.1855,0.722626
 L -96.2865,0.881668 L -96.4065,1.02681 L -96.5439,1.15576 L -96.6963,1.26648 L -96.8613,1.35724 L -97.0365,1.42657
 L -97.2189,1.47342 L -97.4058,1.49704 z
M -97.6884,10.4941 L -98.0621,10.4469 L -98.427,10.3532 L -98.7773,10.2145 L -99.1075,10.033 L -99.4123,9.81154
 L -99.6869,9.55363 L -99.927,9.26335 L -100.129,8.94525 L -100.289,8.60437 L -100.406,8.24606 L -100.476,7.87599
 L -100.5,7.5 L -100.476,7.12399 L -100.406,6.75392 L -100.289,6.39561 L -100.129,6.05473 L -99.927,5.73663
 L -99.6869,5.44635 L -99.4123,5.18845 L -99.1075,4.96701 L -98.7773,4.78551 L -98.427,4.64682 L -98.0621,4.55313
 L -97.6884,4.50591 L -97.3116,4.50591 L -96.9379,4.55313 L -96.573,4.64682 L -96.2227,4.78551 L -95.8925,4.96701
 L -95.5877,5.18845 L -95.3131,5.44635 L -95.073,5.73663 L -94.8711,6.05473 L -94.7107,6.39561 L -94.5943,6.75392
 L -94.5237,7.12399 L -94.5,7.5 L -94.5237,7.87599 L -94.5943,8.24606 L -94.7107,8.60437 L -94.8711,8.94525
 L -95.073,9.26335 L -95.3131,9.55363 L -95.5877,9.81154 L -95.8925,10.033 L -96.2227,10.2145 L -96.573,10.3532
 L -96.9379,10.4469 L -97.3116,10.4941 z
M 97.3116,10.4941 L 96.9379,10.4469 L 96.573,10.3532 L 96.2227,10.2145 L 95.8925,10.033 L 95.5877,9.81154
 L 95.3131,9.55363 L 95.073,9.26335 L 94.8711,8.94525 L 94.7107,8.60437 L 94.5943,8.24606 L 94.5237,7.87599
 L 94.5,7.5 L 94.5237,7.12399 L 94.5943,6.75392 L 94.7107,6.39561 L 94.8711,6.05473 L 95.073,5.73663
 L 95.3131,5.44635 L 95.5877,5.18845 L 95.8925,4.96701 L 96.2227,4.78551 L 96.573,4.64682 L 96.9379,4.55313
 L 97.3116,4.50591 L 97.6884,4.50591 L 98.0621,4.55313 L 98.427,4.64682 L 98.7773,4.78551 L 99.1075,4.96701
 L 99.4123,5.18845 L 99.6869,5.44635 L 99.927,5.73663 L 100.129,6.05473 L 100.289,6.39561 L 100.406,6.75392
 L 100.476,7.12399 L 100.5,7.5 L 100.476,7.87599 L 100.406,8.24606 L 100.289,8.60437 L 100.129,8.94525
 L 99.927,9.26335 L 99.6869,9.55363 L 99.4123,9.81154 L 99.1075,10.033 L 98.7773,10.2145 L 98.427,10.3532
 L 98.0621,10.4469 L 97.6884,10.4941 z
M -97.5942,16.497 L -97.7811,16.4734 L -97.9635,16.4266 L -98.1387,16.3572 L -98.3037,16.2665 L -98.4561,16.1558
 L -98.5934,16.0268 L -98.7135,15.8817 L -98.8145,15.7226 L -98.8947,15.5522 L -98.9529,15.373 L -98.9882,15.188
 L -99,15 L -98.9882,14.812 L -98.9529,14.627 L -98.8947,14.4478 L -98.8145,14.2774 L -98.7135,14.1183
 L -98.5934,13.9732 L -98.4561,13.8442 L -98.3037,13.7335 L -98.1387,13.6427 L -97.9635,13.5734 L -97.7811,13.5266
 L -97.5942,13.5029 L -97.4058,13.5029 L -97.2189,13.5266 L -97.0365,13.5734 L -96.8613,13.6427 L -96.6963,13.7335
 L -96.5439,13.8442 L -96.4065,13.9732 L -96.2865,14.1183 L -96.1855,14.2774 L -96.1053,14.4478 L -96.0471,14.627
 L -96.0118,14.812 L -96,15 L -96.0118,15.188 L -96.0471,15.373 L -96.1053,15.5522 L -96.1855,15.7226
 L -96.2865,15.8817 L -96.4065,16.0268 L -96.5439,16.1558 L -96.6963,16.2665 L -96.8613,16.3572 L -97.0365,16.4266
 L -97.2189,16.4734 L -97.4058,16.497 z
M 97.4058,16.497 L 97.2189,16.4734 L 97.0365,16.4266 L 96.8613,16.3572 L 96.6963,16.2665 L 96.5439,16.1558
 L 96.4065,16.0268 L 96.2865,15.8817 L 96.1855,15.7226 L 96.1053,15.5522 L 96.0471,15.373 L 96.0118,15.188
 L 96,15 L 96.0118,14.812 L 96.0471,14.627 L 96.1053,14.4478 L 96.1855,14.2774 L 96.2865,14.1183
 L 96.4065,13.9732 L 96.5439,13.8442 L 96.6963,13.7335 L 96.8613,13.6427 L 97.0365,13.5734 L 97.2189,13.5266
 L 97.4058,13.5029 L 97.5942,13.5029 L 97.7811,13.5266 L 97.9635,13.5734 L 98.1387,13.6427 L 98.3037,13.7335
 L 98.4561,13.8442 L 98.5934,13.9732 L 98.7135,14.1183 L 98.8145,14.2774 L 98.8947,14.4478 L 98.9529,14.627
 L 98.9882,14.812 L 99,15 L 98.9882,15.188 L 98.9529,15.373 L 98.8947,15.5522 L 98.8145,15.7226
 L 98.7135,15.8817 L 98.5934,16.0268 L 98.4561,16.1558 L 98.3037,16.2665 L 98.1387,16.3572 L 97.9635,16.4266
 L 97.7811,16.4734 L 97.5942,16.497 z
M -97.6884,25.4941 L -98.0621,25.4469 L -98.427,25.3532 L -98.7773,25.2145 L -99.1075,25.033 L -99.4123,24.8115
 L -99.6869,24.5536 L -99.927,24.2634 L -100.129,23.9453 L -100.289,23.6044 L -100.406,23.2461 L -100.476,22.876
 L -100.5,22.5 L -100.476,22.124 L -100.406,21.7539 L -100.289,21.3956 L -100.129,21.0547 L -99.927,20.7366
 L -99.6869,20.4464 L -99.4123,20.1884 L -99.1075,19.967 L -98.7773,19.7855 L -98.427,19.6468 L -98.0621,19.5531
 L -97.6884,19.5059 L -97.3116,19.5059 L -96.9379,19.5531 L -96.573,19.6468 L -96.2227,19.7855 L -95.8925,19.967
 L -95.5877,20.1884 L -95.3131,20.4464 L -95.073,20.7366 L -94.8711,21.0547 L -94.7107,21.3956 L -94.5943,21.7539
 L -94.5237,22.124 L -94.5,22.5 L -94.5237,22.876 L -94.5943,23.2461 L -94.7107,23.6044 L -94.8711,23.9453
 L -95.073,24.2634 L -95.3131,24.5536 L -95.5877,24.8115 L -95.8925,25.033 L -96.2227,25.2145 L -96.573,25.3532
 L -96.9379,25.4469 L -97.3116,25.4941 z
M 97.3116,25.4941 L 96.9379,25.4469 L 96.573,25.3532 L 96.2227,25.2145 L 95.8925,25.033 L 95.5877,24.8115
 L 95.3131,24.5536 L 95.073,24.2634 L 94.8711,23.9453 L 94.7107,23.6044 L 94.5943,23.2461 L 94.5237,22.876
 L 94.5,22.5 L 94.5237,22.124 L 94.5943,21.7539 L 94.7107,21.3956 L 94.8711,21.0547 L 95.073,20.7366
 L 95.3131,20.4464 L 95.5877,20.1884 L 95.8925,19.967 L 96.2227,19.7855 L 96.573,19.6468 L 96.9379,19.5531
 L 97.3116,19.5059 L 97.6884,19.5059 L 98.0621,19.5531 L 98.427,19.6468 L 98.7773,19.7855 L 99.1075,19.967
 L 99.4123,20.1884 L 99.6869,20.4464 L 99.927,20.7366 L 100.129,21.0547 L 100.289,21.3956 L 100.406,21.7539
 L 100.476,22.124 L 100.5,22.5 L 100.476,22.876 L 100.406,23.2461 L 100.289,23.6044 L 100.129,23.9453
 L 99.927,24.2634 L 99.6869,24.5536 L 99.4123,24.8115 L 99.1075,25.033 L 98.7773,25.2145 L 98.427,25.3532
 L 98.0621,25.4469 L 97.6884,25.4941 z
" stroke="black" fill="lightgray" stroke-width="0.5"/>
</svg>
