<?xml version="1.0" standalone="no"?>
<!DOCTYPE svg PUBLIC "-//W3C//DTD SVG 1.1//EN" "http://www.w3.org/Graphics/SVG/1.1/DTD/svg11.dtd">
<svg width="120mm" height="44mm" viewBox="-60 -22 120 44" xmlns="http://www.w3.org/2000/svg" version="1.1">
<title>OpenSCAD Model</title>
<path d="
M 55.4369,21.9114 L 56.0451,21.7553 L 56.6289,21.5241 L 57.1791,21.2216 L 57.6871,20.8526 L 58.1448,20.4227
 L 58.5451,19.9389 L 58.8815,19.4088 L 59.1489,18.8406 L 59.3429,18.2434 L 59.4606,17.6267 L 59.5,17
 L 59.5,-17 L 59.4606,-17.6267 L 59.3429,-18.2434 L 59.1489,-18.8406 L 58.8815,-19.4088 L 58.5451,-19.9389
 L 58.1448,-20.4227 L 57.6871,-20.8526 L 57.1791,-21.2216 L 56.6289,-21.5241 L 56.0451,-21.7553 L 55.4369,-21.9114
 L 54.8139,-21.9901 L -54.8139,-21.9901 L -55.4369,-21.9114 L -56.0451,-21.7553 L -56.6289,-21.5241 L -57.1791,-21.2216
 L -57.6871,-20.8526 L -58.1448,-20.4227 L -58.5451,-19.9389 L -58.8815,-19.4088 L -59.1489,-18.8406 L -59.3429,-18.2434
 L -59.4606,-17.6267 L -59.5,-17 L -59.5,17 L -59.4606,17.6267 L -59.3429,18.2434 L -59.1489,18.8406
 L -58.8815,19.4088 L -58.5451,19.9389 L -58.1448,20.4227 L -57.6871,20.8526 L -57.1791,21.2216 L -56.6289,21.5241
 L -56.0451,21.7553 L -55.4369,21.9114 L -54.8139,21.9901 L 54.8139,21.9901 z
M -52.6884,-12.0059 L -53.0621,-12.0531 L -53.427,-12.1468 L -53.7773,-12.2855 L -54.1075,-12.467 L -54.4123,-12.6884
 L -54.6869,-12.9464 L -54.927,-13.2366 L -55.1289,-13.5547 L -55.2893,-13.8956 L -55.4057,-14.2539 L -55.4763,-14.624
 L -55.5,-15 L -55.4763,-15.376 L -55.4057,-15.7461 L -55.2893,-16.1044 L -55.1289,-16.4453 L -54.927,-16.7634
 L -54.6869,-17.0536 L -54.4123,-17.3115 L -54.1075,-17.533 L -53.7773,-17.7145 L -53.427,-17.8532 L -53.0621,-17.9469
 L -52.6884,-17.9941 L -52.3116,-17.9941 L -51.9379,-17.9469 L -51.5729,-17.8532 L -51.2227,-17.7145 L -50.8925,-17.533
 L -50.5877,-17.3115 L -50.3131,-17.0536 L -50.0729,-16.7634 L -49.8711,-16.4453 L -49.7107,-16.1044 L -49.5942,-15.7461
 L -49.5237,-15.376 L -49.5,-15 L -49.5237,-14.624 L -49.5942,-14.2539 L -49.7107,-13.8956 L -49.8711,-13.5547
 L -50.0729,-13.2366 L -50.3131,-12.9464 L -50.5877,-12.6884 L -50.8925,-12.467 L -51.2227,-12.2855 L -51.5729,-12.1468
 L -51.9379,-12.0531 L -52.3116,-12.0059 z
M 52.3116,-12.0059 L 51.9379,-12.0531 L 51.5729,-12.1468 L 51.2227,-12.2855 L 50.8925,-12.467 L 50.5877,-12.6884
 L 50.3131,-12.9464 L 50.0729,-13.2366 L 49.8711,-13.5547 L 49.7107,-13.8956 L 49.5942,-14.2539 L 49.5237,-14.624
 L 49.5,-15 L 49.5237,-15.376 L 49.5942,-15.7461 L 49.7107,-16.1044 L 49.8711,-16.4453 L 50.0729,-16.7634
 L 50.3131,-17.0536 L 50.5877,-17.3115 L 50.8925,-17.533 L 51.2227,-17.7145 L 51.5729,-17.8532 L 51.9379,-17.9469
 L 52.3116,-17.9941 L 52.6884,-17.9941 L 53.0621,-17.9469 L 53.427,-17.8532 L 53.7773,-17.7145 L 54.1075,-17.533
 L 54.4123,-17.3115 L 54.6869,-17.0536 L 54.927,-16.7634 L 55.1289,-16.4453 L 55.2893,-16.1044 L 55.4057,-15.7461
 L 55.4763,-15.376 L 55.5,-15 L 55.4763,-14.624 L 55.4057,-14.2539 L 55.2893,-13.8956 L 55.1289,-13.5547
 L 54.927,-13.2366 L 54.6869,-12.9464 L 54.4123,-12.6884 L 54.1075,-12.467 L 53.7773,-12.2855 L 53.427,-12.1468
 L 53.0621,-12.0531 L 52.6884,-12.0059 z
M -1.00464,15.9684 L -2.99809,15.7166 L -4.94426,15.2169 L -6.81245,14.4772 L -8.57323,13.5092 L -10.1988,12.3282
 L -11.6635,10.9527 L -12.9443,9.40456 L -14.0209,7.70805 L -14.8764,5.88998 L -15.4973,3.97903 L -15.8738,2.00533
 L -16,-0 L -15.8738,-2.00533 L -15.4973,-3.97903 L -14.8764,-5.88998 L -14.0209,-7.70805 L -12.9443,-9.40456
 L -11.6635,-10.9527 L -10.1988,-12.3282 L -8.57323,-13.5092 L -6.81245,-14.4772 L -4.94426,-15.2169 L -2.99809,-15.7166
 L -1.00464,-15.9684 L 1.00464,-15.9684 L 2.99809,-15.7166 L 4.94426,-15.2169 L 6.81245,-14.4772 L 8.57323,-13.5092
 L 10.1988,-12.3282 L 11.6635,-10.9527 L 12.9443,-9.40456 L 14.0209,-7.70805 L 14.8764,-5.88998 L 15.4973,-3.97903
 L 15.8738,-2.00533 L 16,-0 L 15.8738,2.00533 L 15.4973,3.97903 L 14.8764,5.88998 L 14.0209,7.70805
 L 12.9443,9.40456 L 11.6635,10.9527 L 10.1988,12.3282 L 8.57323,13.5092 L 6.81245,14.4772 L 4.94426,15.2169
 L 2.99809,15.7166 L 1.00464,15.9684 z
M 35.9953,15.9684 L 34.0019,15.7166 L 32.0557,15.2169 L 30.1875,14.4772 L 28.4268,13.5092 L 26.8012,12.3282
 L 25.3365,10.9527 L 24.0557,9.40456 L 22.9791,7.70805 L 22.1236,5.88998 L 21.5027,3.97903 L 21.1262,2.00533
 L 21,-0 L 21.1262,-2.00533 L 21.5027,-3.97903 L 22.1236,-5.88998 L 22.9791,-7.70805 L 24.0557,-9.40456
 L 25.3365,-10.9527 L 26.8012,-12.3282 L 28.4268,-13.5092 L 30.1875,-14.4772 L 32.0557,-15.2169 L 34.0019,-15.7166
 L 35.9953,-15.9684 L 38.0046,-15.9684 L 39.9981,-15.7166 L 41.9443,-15.2169 L 43.8125,-14.4772 L 45.5732,-13.5092
 L 47.1988,-12.3282 L 48.6635,-10.9527 L 49.9443,-9.40456 L 51.0209,-7.70805 L 51.8764,-5.88998 L 52.4973,-3.97903
 L 52.8738,-2.00533 L 53,-0 L 52.8738,2.00533 L 52.4973,3.97903 L 51.8764,5.88998 L 51.0209,7.70805
 L 49.9443,9.40456 L 48.6635,10.9527 L 47.1988,12.3282 L 45.5732,13.5092 L 43.8125,14.4772 L 41.9443,15.2169
 L 39.9981,15.7166 L 38.0046,15.9684 z
M -38.0046,15.9684 L -39.9981,15.7166 L -41.9443,15.2169 L -43.8125,14.4772 L -45.5732,13.5092 L -47.1988,12.3282
 L -48.6635,10.9527 L -49.9443,9.40456 L -51.0209,7.70805 L -51.8764,5.88998 L -52.4973,3.97903 L -52.8738,2.00533
 L -53,-0 L -52.8738,-2.00533 L -52.4973,-3.97903 L -51.8764,-5.88998 L -51.0209,-7.70805 L -49.9443,-9.40456
 L -48.6635,-10.9527 L -47.1988,-12.3282 L -45.5732,-13.5092 L -43.8125,-14.4772 L -41.9443,-15.2169 L -39.9981,-15.7166
 L -38.0046,-15.9684 L -35.9953,-15.9684 L -34.0019,-15.7166 L -32.0557,-15.2169 L -30.1875,-14.4772 L -28.4268,-13.5092
 L -26.8012,-12.3282 L -25.3365,-10.9527 L -24.0557,-9.40456 L -22.9791,-7.70805 L -22.1236,-5.88998 L -21.5027,-3.97903
 L -21.1262,-2.00533 L -21,-0 L -21.1262,2.00533 L -21.5027,3.97903 L -22.1236,5.88998 L -22.9791,7.70805
 L -24.0557,9.40456 L -25.3365,10.9527 L -26.8012,12.3282 L -28.4268,13.5092 L -30.1875,14.4772 L -32.0557,15.2169
 L -34.0019,15.7166 L -35.9953,15.9684 z
M -52.6884,17.9941 L -53.0621,17.9469 L -53.427,17.8532 L -53.7773,17.7145 L -54.1075,17.533 L -54.4123,17.3115
 L -54.6869,17.0536 L -54.927,16.7634 L -55.1289,16.4453 L -55.2893,16.1044 L -55.4057,15.7461 L -55.4763,15.376
 L -55.5,15 L -55.4763,14.624 L -55.4057,14.2539 L -55.2893,13.8956 L -55.1289,13.5547 L -54.927,13.2366
 L -54.6869,12.9464 L -54.4123,12.6884 L -54.1075,12.467 L -53.7773,12.2855 L -53.427,12.1468 L -53.0621,12.0531
 L -52.6884,12.0059 L -52.3116,12.0059 L -51.9379,12.0531 L -51.5729,12.1468 L -51.2227,12.2855 L -50.8925,12.467
 L -50.5877,12.6884 L -50.3131,12.9464 L -50.0729,13.2366 L -49.8711,13.5547 L -49.7107,13.8956 L -49.5942,14.2539
 L -49.5237,14.624 L -49.5,15 L -49.5237,15.376 L -49.5942,15.7461 L -49.7107,16.1044 L -49.8711,16.4453
 L -50.0729,16.7634 L -50.3131,17.0536 L -50.5877,17.3115 L -50.8925,17.533 L -51.2227,17.7145 L -51.5729,17.8532
 L -51.9379,17.9469 L -52.3116,17.9941 z
M 52.3116,17.9941 L 51.9379,17.9469 L 51.5729,17.8532 L 51.2227,17.7145 L 50.8925,17.533 L 50.5877,17.3115
 L 50.3131,17.0536 L 50.0729,16.7634 L 49.8711,16.4453 L 49.7107,16.1044 L 49.5942,15.7461 L 49.5237,15.376
 L 49.5,15 L 49.5237,14.624 L 49.5942,14.2539 L 49.7107,13.8956 L 49.8711,13.5547 L 50.0729,13.2366
 L 50.3131,12.9464 L 50.5877,12.6884 L 50.8925,12.467 L 51.2227,12.2855 L 51.5729,12.1468 L 51.9379,12.0531
 L 52.3116,12.0059 L 52.6884,12.0059 L 53.0621,12.0531 L 53.427,12.1468 L 53.7773,12.2855 L 54.1075,12.467
 L 54.4123,12.6884 L 54.6869,12.9464 L 54.927,13.2366 L 55.1289,13.5547 L 55.2893,13.8956 L 55.4057,14.2539
 L 55.4763,14.624 L 55.5,15 L 55.4763,15.376 L 55.4057,15.7461 L 55.2893,16.1044 L 55.1289,16.4453
 L 54.927,16.7634 L 54.6869,17.0536 L 54.4123,17.3115 L 54.1075,17.533 L 53.7773,17.7145 L 53.427,17.8532
 L 53.0621,17.9469 L 52.6884,17.9941 z
" stroke="black" fill="lightgray" stroke-width="0.5"/>
</svg>
