  0
SECTION
  2
BLOCKS
  0
ENDSEC
  0
SECTION
  2
ENTITIES
  0
LINE
  8
0
 10
25.4369
 20
-36.9114
 11
26.0451
 21
-36.7553
  0
LINE
  8
0
 10
26.0451
 20
-36.7553
 11
26.6289
 21
-36.5241
  0
LINE
  8
0
 10
26.6289
 20
-36.5241
 11
27.1791
 21
-36.2216
  0
LINE
  8
0
 10
27.1791
 20
-36.2216
 11
27.6871
 21
-35.8526
  0
LINE
  8
0
 10
27.6871
 20
-35.8526
 11
28.1448
 21
-35.4227
  0
LINE
  8
0
 10
28.1448
 20
-35.4227
 11
28.5451
 21
-34.9389
  0
LINE
  8
0
 10
28.5451
 20
-34.9389
 11
28.8815
 21
-34.4088
  0
LINE
  8
0
 10
28.8815
 20
-34.4088
 11
29.1489
 21
-33.8406
  0
LINE
  8
0
 10
29.1489
 20
-33.8406
 11
29.3429
 21
-33.2434
  0
LINE
  8
0
 10
29.3429
 20
-33.2434
 11
29.4606
 21
-32.6267
  0
LINE
  8
0
 10
29.4606
 20
-32.6267
 11
29.5
 21
-32
  0
LINE
  8
0
 10
29.5
 20
-32
 11
29.5
 21
32
  0
LINE
  8
0
 10
29.5
 20
32
 11
29.4606
 21
32.6267
  0
LINE
  8
0
 10
29.4606
 20
32.6267
 11
29.3429
 21
33.2434
  0
LINE
  8
0
 10
29.3429
 20
33.2434
 11
29.1489
 21
33.8406
  0
LINE
  8
0
 10
29.1489
 20
33.8406
 11
28.8815
 21
34.4088
  0
LINE
  8
0
 10
28.8815
 20
34.4088
 11
28.5451
 21
34.9389
  0
LINE
  8
0
 10
28.5451
 20
34.9389
 11
28.1448
 21
35.4227
  0
LINE
  8
0
 10
28.1448
 20
35.4227
 11
27.6871
 21
35.8526
  0
LINE
  8
0
 10
27.6871
 20
35.8526
 11
27.1791
 21
36.2216
  0
LINE
  8
0
 10
27.1791
 20
36.2216
 11
26.6289
 21
36.5241
  0
LINE
  8
0
 10
26.6289
 20
36.5241
 11
26.0451
 21
36.7553
  0
LINE
  8
0
 10
26.0451
 20
36.7553
 11
25.4369
 21
36.9114
  0
LINE
  8
0
 10
25.4369
 20
36.9114
 11
24.8139
 21
36.9901
  0
LINE
  8
0
 10
24.8139
 20
36.9901
 11
-24.8139
 21
36.9901
  0
LINE
  8
0
 10
-24.8139
 20
36.9901
 11
-25.4369
 21
36.9114
  0
LINE
  8
0
 10
-25.4369
 20
36.9114
 11
-26.0451
 21
36.7553
  0
LINE
  8
0
 10
-26.0451
 20
36.7553
 11
-26.6289
 21
36.5241
  0
LINE
  8
0
 10
-26.6289
 20
36.5241
 11
-27.1791
 21
36.2216
  0
LINE
  8
0
 10
-27.1791
 20
36.2216
 11
-27.6871
 21
35.8526
  0
LINE
  8
0
 10
-27.6871
 20
35.8526
 11
-28.1448
 21
35.4227
  0
LINE
  8
0
 10
-28.1448
 20
35.4227
 11
-28.5451
 21
34.9389
  0
LINE
  8
0
 10
-28.5451
 20
34.9389
 11
-28.8815
 21
34.4088
  0
LINE
  8
0
 10
-28.8815
 20
34.4088
 11
-29.1489
 21
33.8406
  0
LINE
  8
0
 10
-29.1489
 20
33.8406
 11
-29.3429
 21
33.2434
  0
LINE
  8
0
 10
-29.3429
 20
33.2434
 11
-29.4606
 21
32.6267
  0
LINE
  8
0
 10
-29.4606
 20
32.6267
 11
-29.5
 21
32
  0
LINE
  8
0
 10
-29.5
 20
32
 11
-29.5
 21
-32
  0
LINE
  8
0
 10
-29.5
 20
-32
 11
-29.4606
 21
-32.6267
  0
LINE
  8
0
 10
-29.4606
 20
-32.6267
 11
-29.3429
 21
-33.2434
  0
LINE
  8
0
 10
-29.3429
 20
-33.2434
 11
-29.1489
 21
-33.8406
  0
LINE
  8
0
 10
-29.1489
 20
-33.8406
 11
-28.8815
 21
-34.4088
  0
LINE
  8
0
 10
-28.8815
 20
-34.4088
 11
-28.5451
 21
-34.9389
  0
LINE
  8
0
 10
-28.5451
 20
-34.9389
 11
-28.1448
 21
-35.4227
  0
LINE
  8
0
 10
-28.1448
 20
-35.4227
 11
-27.6871
 21
-35.8526
  0
LINE
  8
0
 10
-27.6871
 20
-35.8526
 11
-27.1791
 21
-36.2216
  0
LINE
  8
0
 10
-27.1791
 20
-36.2216
 11
-26.6289
 21
-36.5241
  0
LINE
  8
0
 10
-26.6289
 20
-36.5241
 11
-26.0451
 21
-36.7553
  0
LINE
  8
0
 10
-26.0451
 20
-36.7553
 11
-25.4369
 21
-36.9114
  0
LINE
  8
0
 10
-25.4369
 20
-36.9114
 11
-24.8139
 21
-36.9901
  0
LINE
  8
0
 10
-24.8139
 20
-36.9901
 11
24.8139
 21
-36.9901
  0
LINE
  8
0
 10
24.8139
 20
-36.9901
 11
25.4369
 21
-36.9114
  0
LINE
  8
0
 10
-22.6884
 20
27.0059
 11
-23.0621
 21
27.0531
  0
LINE
  8
0
 10
-23.0621
 20
27.0531
 11
-23.427
 21
27.1468
  0
LINE
  8
0
 10
-23.427
 20
27.1468
 11
-23.7773
 21
27.2855
  0
LINE
  8
0
 10
-23.7773
 20
27.2855
 11
-24.1075
 21
27.467
  0
LINE
  8
0
 10
-24.1075
 20
27.467
 11
-24.4123
 21
27.6884
  0
LINE
  8
0
 10
-24.4123
 20
27.6884
 11
-24.6869
 21
27.9464
  0
LINE
  8
0
 10
-24.6869
 20
27.9464
 11
-24.927
 21
28.2366
  0
LINE
  8
0
 10
-24.927
 20
28.2366
 11
-25.1289
 21
28.5547
  0
LINE
  8
0
 10
-25.1289
 20
28.5547
 11
-25.2893
 21
28.8956
  0
LINE
  8
0
 10
-25.2893
 20
28.8956
 11
-25.4057
 21
29.2539
  0
LINE
  8
0
 10
-25.4057
 20
29.2539
 11
-25.4763
 21
29.624
  0
LINE
  8
0
 10
-25.4763
 20
29.624
 11
-25.5
 21
30
  0
LINE
  8
0
 10
-25.5
 20
30
 11
-25.4763
 21
30.376
  0
LINE
  8
0
 10
-25.4763
 20
30.376
 11
-25.4057
 21
30.7461
  0
LINE
  8
0
 10
-25.4057
 20
30.7461
 11
-25.2893
 21
31.1044
  0
LINE
  8
0
 10
-25.2893
 20
31.1044
 11
-25.1289
 21
31.4453
  0
LINE
  8
0
 10
-25.1289
 20
31.4453
 11
-24.927
 21
31.7634
  0
LINE
  8
0
 10
-24.927
 20
31.7634
 11
-24.6869
 21
32.0536
  0
LINE
  8
0
 10
-24.6869
 20
32.0536
 11
-24.4123
 21
32.3115
  0
LINE
  8
0
 10
-24.4123
 20
32.3115
 11
-24.1075
 21
32.533
  0
LINE
  8
0
 10
-24.1075
 20
32.533
 11
-23.7773
 21
32.7145
  0
LINE
  8
0
 10
-23.7773
 20
32.7145
 11
-23.427
 21
32.8532
  0
LINE
  8
0
 10
-23.427
 20
32.8532
 11
-23.0621
 21
32.9469
  0
LINE
  8
0
 10
-23.0621
 20
32.9469
 11
-22.6884
 21
32.9941
  0
LINE
  8
0
 10
-22.6884
 20
32.9941
 11
-22.3116
 21
32.9941
  0
LINE
  8
0
 10
-22.3116
 20
32.9941
 11
-21.9379
 21
32.9469
  0
LINE
  8
0
 10
-21.9379
 20
32.9469
 11
-21.5729
 21
32.8532
  0
LINE
  8
0
 10
-21.5729
 20
32.8532
 11
-21.2227
 21
32.7145
  0
LINE
  8
0
 10
-21.2227
 20
32.7145
 11
-20.8925
 21
32.533
  0
LINE
  8
0
 10
-20.8925
 20
32.533
 11
-20.5877
 21
32.3115
  0
LINE
  8
0
 10
-20.5877
 20
32.3115
 11
-20.3131
 21
32.0536
  0
LINE
  8
0
 10
-20.3131
 20
32.0536
 11
-20.0729
 21
31.7634
  0
LINE
  8
0
 10
-20.0729
 20
31.7634
 11
-19.8711
 21
31.4453
  0
LINE
  8
0
 10
-19.8711
 20
31.4453
 11
-19.7107
 21
31.1044
  0
LINE
  8
0
 10
-19.7107
 20
31.1044
 11
-19.5942
 21
30.7461
  0
LINE
  8
0
 10
-19.5942
 20
30.7461
 11
-19.5237
 21
30.376
  0
LINE
  8
0
 10
-19.5237
 20
30.376
 11
-19.5
 21
30
  0
LINE
  8
0
 10
-19.5
 20
30
 11
-19.5237
 21
29.624
  0
LINE
  8
0
 10
-19.5237
 20
29.624
 11
-19.5942
 21
29.2539
  0
LINE
  8
0
 10
-19.5942
 20
29.2539
 11
-19.7107
 21
28.8956
  0
LINE
  8
0
 10
-19.7107
 20
28.8956
 11
-19.8711
 21
28.5547
  0
LINE
  8
0
 10
-19.8711
 20
28.5547
 11
-20.0729
 21
28.2366
  0
LINE
  8
0
 10
-20.0729
 20
28.2366
 11
-20.3131
 21
27.9464
  0
LINE
  8
0
 10
-20.3131
 20
27.9464
 11
-20.5877
 21
27.6884
  0
LINE
  8
0
 10
-20.5877
 20
27.6884
 11
-20.8925
 21
27.467
  0
LINE
  8
0
 10
-20.8925
 20
27.467
 11
-21.2227
 21
27.2855
  0
LINE
  8
0
 10
-21.2227
 20
27.2855
 11
-21.5729
 21
27.1468
  0
LINE
  8
0
 10
-21.5729
 20
27.1468
 11
-21.9379
 21
27.0531
  0
LINE
  8
0
 10
-21.9379
 20
27.0531
 11
-22.3116
 21
27.0059
  0
LINE
  8
0
 10
-22.3116
 20
27.0059
 11
-22.6884
 21
27.0059
  0
LINE
  8
0
 10
22.3116
 20
27.0059
 11
21.9379
 21
27.0531
  0
LINE
  8
0
 10
21.9379
 20
27.0531
 11
21.5729
 21
27.1468
  0
LINE
  8
0
 10
21.5729
 20
27.1468
 11
21.2227
 21
27.2855
  0
LINE
  8
0
 10
21.2227
 20
27.2855
 11
20.8925
 21
27.467
  0
LINE
  8
0
 10
20.8925
 20
27.467
 11
20.5877
 21
27.6884
  0
LINE
  8
0
 10
20.5877
 20
27.6884
 11
20.3131
 21
27.9464
  0
LINE
  8
0
 10
20.3131
 20
27.9464
 11
20.0729
 21
28.2366
  0
LINE
  8
0
 10
20.0729
 20
28.2366
 11
19.8711
 21
28.5547
  0
LINE
  8
0
 10
19.8711
 20
28.5547
 11
19.7107
 21
28.8956
  0
LINE
  8
0
 10
19.7107
 20
28.8956
 11
19.5942
 21
29.2539
  0
LINE
  8
0
 10
19.5942
 20
29.2539
 11
19.5237
 21
29.624
  0
LINE
  8
0
 10
19.5237
 20
29.624
 11
19.5
 21
30
  0
LINE
  8
0
 10
19.5
 20
30
 11
19.5237
 21
30.376
  0
LINE
  8
0
 10
19.5237
 20
30.376
 11
19.5942
 21
30.7461
  0
LINE
  8
0
 10
19.5942
 20
30.7461
 11
19.7107
 21
31.1044
  0
LINE
  8
0
 10
19.7107
 20
31.1044
 11
19.8711
 21
31.4453
  0
LINE
  8
0
 10
19.8711
 20
31.4453
 11
20.0729
 21
31.7634
  0
LINE
  8
0
 10
20.0729
 20
31.7634
 11
20.3131
 21
32.0536
  0
LINE
  8
0
 10
20.3131
 20
32.0536
 11
20.5877
 21
32.3115
  0
LINE
  8
0
 10
20.5877
 20
32.3115
 11
20.8925
 21
32.533
  0
LINE
  8
0
 10
20.8925
 20
32.533
 11
21.2227
 21
32.7145
  0
LINE
  8
0
 10
21.2227
 20
32.7145
 11
21.5729
 21
32.8532
  0
LINE
  8
0
 10
21.5729
 20
32.8532
 11
21.9379
 21
32.9469
  0
LINE
  8
0
 10
21.9379
 20
32.9469
 11
22.3116
 21
32.9941
  0
LINE
  8
0
 10
22.3116
 20
32.9941
 11
22.6884
 21
32.9941
  0
LINE
  8
0
 10
22.6884
 20
32.9941
 11
23.0621
 21
32.9469
  0
LINE
  8
0
 10
23.0621
 20
32.9469
 11
23.427
 21
32.8532
  0
LINE
  8
0
 10
23.427
 20
32.8532
 11
23.7773
 21
32.7145
  0
LINE
  8
0
 10
23.7773
 20
32.7145
 11
24.1075
 21
32.533
  0
LINE
  8
0
 10
24.1075
 20
32.533
 11
24.4123
 21
32.3115
  0
LINE
  8
0
 10
24.4123
 20
32.3115
 11
24.6869
 21
32.0536
  0
LINE
  8
0
 10
24.6869
 20
32.0536
 11
24.927
 21
31.7634
  0
LINE
  8
0
 10
24.927
 20
31.7634
 11
25.1289
 21
31.4453
  0
LINE
  8
0
 10
25.1289
 20
31.4453
 11
25.2893
 21
31.1044
  0
LINE
  8
0
 10
25.2893
 20
31.1044
 11
25.4057
 21
30.7461
  0
LINE
  8
0
 10
25.4057
 20
30.7461
 11
25.4763
 21
30.376
  0
LINE
  8
0
 10
25.4763
 20
30.376
 11
25.5
 21
30
  0
LINE
  8
0
 10
25.5
 20
30
 11
25.4763
 21
29.624
  0
LINE
  8
0
 10
25.4763
 20
29.624
 11
25.4057
 21
29.2539
  0
LINE
  8
0
 10
25.4057
 20
29.2539
 11
25.2893
 21
28.8956
  0
LINE
  8
0
 10
25.2893
 20
28.8956
 11
25.1289
 21
28.5547
  0
LINE
  8
0
 10
25.1289
 20
28.5547
 11
24.927
 21
28.2366
  0
LINE
  8
0
 10
24.927
 20
28.2366
 11
24.6869
 21
27.9464
  0
LINE
  8
0
 10
24.6869
 20
27.9464
 11
24.4123
 21
27.6884
  0
LINE
  8
0
 10
24.4123
 20
27.6884
 11
24.1075
 21
27.467
  0
LINE
  8
0
 10
24.1075
 20
27.467
 11
23.7773
 21
27.2855
  0
LINE
  8
0
 10
23.7773
 20
27.2855
 11
23.427
 21
27.1468
  0
LINE
  8
0
 10
23.427
 20
27.1468
 11
23.0621
 21
27.0531
  0
LINE
  8
0
 10
23.0621
 20
27.0531
 11
22.6884
 21
27.0059
  0
LINE
  8
0
 10
22.6884
 20
27.0059
 11
22.3116
 21
27.0059
  0
LINE
  8
0
 10
-7.68837
 20
27.0059
 11
-8.06213
 21
27.0531
  0
LINE
  8
0
 10
-8.06213
 20
27.0531
 11
-8.42705
 21
27.1468
  0
LINE
  8
0
 10
-8.42705
 20
27.1468
 11
-8.77733
 21
27.2855
  0
LINE
  8
0
 10
-8.77733
 20
27.2855
 11
-9.10747
 21
27.467
  0
LINE
  8
0
 10
-9.10747
 20
27.467
 11
-9.41226
 21
27.6884
  0
LINE
  8
0
 10
-9.41226
 20
27.6884
 11
-9.6869
 21
27.9464
  0
LINE
  8
0
 10
-9.6869
 20
27.9464
 11
-9.92705
 21
28.2366
  0
LINE
  8
0
 10
-9.92705
 20
28.2366
 11
-10.1289
 21
28.5547
  0
LINE
  8
0
 10
-10.1289
 20
28.5547
 11
-10.2893
 21
28.8956
  0
LINE
  8
0
 10
-10.2893
 20
28.8956
 11
-10.4057
 21
29.2539
  0
LINE
  8
0
 10
-10.4057
 20
29.2539
 11
-10.4763
 21
29.624
  0
LINE
  8
0
 10
-10.4763
 20
29.624
 11
-10.5
 21
30
  0
LINE
  8
0
 10
-10.5
 20
30
 11
-10.4763
 21
30.376
  0
LINE
  8
0
 10
-10.4763
 20
30.376
 11
-10.4057
 21
30.7461
  0
LINE
  8
0
 10
-10.4057
 20
30.7461
 11
-10.2893
 21
31.1044
  0
LINE
  8
0
 10
-10.2893
 20
31.1044
 11
-10.1289
 21
31.4453
  0
LINE
  8
0
 10
-10.1289
 20
31.4453
 11
-9.92705
 21
31.7634
  0
LINE
  8
0
 10
-9.92705
 20
31.7634
 11
-9.6869
 21
32.0536
  0
LINE
  8
0
 10
-9.6869
 20
32.0536
 11
-9.41226
 21
32.3115
  0
LINE
  8
0
 10
-9.41226
 20
32.3115
 11
-9.10747
 21
32.533
  0
LINE
  8
0
 10
-9.10747
 20
32.533
 11
-8.77733
 21
32.7145
  0
LINE
  8
0
 10
-8.77733
 20
32.7145
 11
-8.42705
 21
32.8532
  0
LINE
  8
0
 10
-8.42705
 20
32.8532
 11
-8.06213
 21
32.9469
  0
LINE
  8
0
 10
-8.06213
 20
32.9469
 11
-7.68837
 21
32.9941
  0
LINE
  8
0
 10
-7.68837
 20
32.9941
 11
-7.31161
 21
32.9941
  0
LINE
  8
0
 10
-7.31161
 20
32.9941
 11
-6.93785
 21
32.9469
  0
LINE
  8
0
 10
-6.93785
 20
32.9469
 11
-6.57294
 21
32.8532
  0
LINE
  8
0
 10
-6.57294
 20
32.8532
 11
-6.22266
 21
32.7145
  0
LINE
  8
0
 10
-6.22266
 20
32.7145
 11
-5.89252
 21
32.533
  0
LINE
  8
0
 10
-5.89252
 20
32.533
 11
-5.58772
 21
32.3115
  0
LINE
  8
0
 10
-5.58772
 20
32.3115
 11
-5.31308
 21
32.0536
  0
LINE
  8
0
 10
-5.31308
 20
32.0536
 11
-5.07294
 21
31.7634
  0
LINE
  8
0
 10
-5.07294
 20
31.7634
 11
-4.87108
 21
31.4453
  0
LINE
  8
0
 10
-4.87108
 20
31.4453
 11
-4.71066
 21
31.1044
  0
LINE
  8
0
 10
-4.71066
 20
31.1044
 11
-4.59424
 21
30.7461
  0
LINE
  8
0
 10
-4.59424
 20
30.7461
 11
-4.52365
 21
30.376
  0
LINE
  8
0
 10
-4.52365
 20
30.376
 11
-4.5
 21
30
  0
LINE
  8
0
 10
-4.5
 20
30
 11
-4.52365
 21
29.624
  0
LINE
  8
0
 10
-4.52365
 20
29.624
 11
-4.59424
 21
29.2539
  0
LINE
  8
0
 10
-4.59424
 20
29.2539
 11
-4.71066
 21
28.8956
  0
LINE
  8
0
 10
-4.71066
 20
28.8956
 11
-4.87108
 21
28.5547
  0
LINE
  8
0
 10
-4.87108
 20
28.5547
 11
-5.07294
 21
28.2366
  0
LINE
  8
0
 10
-5.07294
 20
28.2366
 11
-5.31308
 21
27.9464
  0
LINE
  8
0
 10
-5.31308
 20
27.9464
 11
-5.58772
 21
27.6884
  0
LINE
  8
0
 10
-5.58772
 20
27.6884
 11
-5.89252
 21
27.467
  0
LINE
  8
0
 10
-5.89252
 20
27.467
 11
-6.22266
 21
27.2855
  0
LINE
  8
0
 10
-6.22266
 20
27.2855
 11
-6.57294
 21
27.1468
  0
LINE
  8
0
 10
-6.57294
 20
27.1468
 11
-6.93785
 21
27.0531
  0
LINE
  8
0
 10
-6.93785
 20
27.0531
 11
-7.31161
 21
27.0059
  0
LINE
  8
0
 10
-7.31161
 20
27.0059
 11
-7.68837
 21
27.0059
  0
LINE
  8
0
 10
7.31161
 20
27.0059
 11
6.93785
 21
27.0531
  0
LINE
  8
0
 10
6.93785
 20
27.0531
 11
6.57294
 21
27.1468
  0
LINE
  8
0
 10
6.57294
 20
27.1468
 11
6.22266
 21
27.2855
  0
LINE
  8
0
 10
6.22266
 20
27.2855
 11
5.89252
 21
27.467
  0
LINE
  8
0
 10
5.89252
 20
27.467
 11
5.58772
 21
27.6884
  0
LINE
  8
0
 10
5.58772
 20
27.6884
 11
5.31308
 21
27.9464
  0
LINE
  8
0
 10
5.31308
 20
27.9464
 11
5.07294
 21
28.2366
  0
LINE
  8
0
 10
5.07294
 20
28.2366
 11
4.87108
 21
28.5547
  0
LINE
  8
0
 10
4.87108
 20
28.5547
 11
4.71066
 21
28.8956
  0
LINE
  8
0
 10
4.71066
 20
28.8956
 11
4.59424
 21
29.2539
  0
LINE
  8
0
 10
4.59424
 20
29.2539
 11
4.52365
 21
29.624
  0
LINE
  8
0
 10
4.52365
 20
29.624
 11
4.5
 21
30
  0
LINE
  8
0
 10
4.5
 20
30
 11
4.52365
 21
30.376
  0
LINE
  8
0
 10
4.52365
 20
30.376
 11
4.59424
 21
30.7461
  0
LINE
  8
0
 10
4.59424
 20
30.7461
 11
4.71066
 21
31.1044
  0
LINE
  8
0
 10
4.71066
 20
31.1044
 11
4.87108
 21
31.4453
  0
LINE
  8
0
 10
4.87108
 20
31.4453
 11
5.07294
 21
31.7634
  0
LINE
  8
0
 10
5.07294
 20
31.7634
 11
5.31308
 21
32.0536
  0
LINE
  8
0
 10
5.31308
 20
32.0536
 11
5.58772
 21
32.3115
  0
LINE
  8
0
 10
5.58772
 20
32.3115
 11
5.89252
 21
32.533
  0
LINE
  8
0
 10
5.89252
 20
32.533
 11
6.22266
 21
32.7145
  0
LINE
  8
0
 10
6.22266
 20
32.7145
 11
6.57294
 21
32.8532
  0
LINE
  8
0
 10
6.57294
 20
32.8532
 11
6.93785
 21
32.9469
  0
LINE
  8
0
 10
6.93785
 20
32.9469
 11
7.31161
 21
32.9941
  0
LINE
  8
0
 10
7.31161
 20
32.9941
 11
7.68837
 21
32.9941
  0
LINE
  8
0
 10
7.68837
 20
32.9941
 11
8.06213
 21
32.9469
  0
LINE
  8
0
 10
8.06213
 20
32.9469
 11
8.42705
 21
32.8532
  0
LINE
  8
0
 10
8.42705
 20
32.8532
 11
8.77733
 21
32.7145
  0
LINE
  8
0
 10
8.77733
 20
32.7145
 11
9.10747
 21
32.533
  0
LINE
  8
0
 10
9.10747
 20
32.533
 11
9.41226
 21
32.3115
  0
LINE
  8
0
 10
9.41226
 20
32.3115
 11
9.6869
 21
32.0536
  0
LINE
  8
0
 10
9.6869
 20
32.0536
 11
9.92705
 21
31.7634
  0
LINE
  8
0
 10
9.92705
 20
31.7634
 11
10.1289
 21
31.4453
  0
LINE
  8
0
 10
10.1289
 20
31.4453
 11
10.2893
 21
31.1044
  0
LINE
  8
0
 10
10.2893
 20
31.1044
 11
10.4057
 21
30.7461
  0
LINE
  8
0
 10
10.4057
 20
30.7461
 11
10.4763
 21
30.376
  0
LINE
  8
0
 10
10.4763
 20
30.376
 11
10.5
 21
30
  0
LINE
  8
0
 10
10.5
 20
30
 11
10.4763
 21
29.624
  0
LINE
  8
0
 10
10.4763
 20
29.624
 11
10.4057
 21
29.2539
  0
LINE
  8
0
 10
10.4057
 20
29.2539
 11
10.2893
 21
28.8956
  0
LINE
  8
0
 10
10.2893
 20
28.8956
 11
10.1289
 21
28.5547
  0
LINE
  8
0
 10
10.1289
 20
28.5547
 11
9.92705
 21
28.2366
  0
LINE
  8
0
 10
9.92705
 20
28.2366
 11
9.6869
 21
27.9464
  0
LINE
  8
0
 10
9.6869
 20
27.9464
 11
9.41226
 21
27.6884
  0
LINE
  8
0
 10
9.41226
 20
27.6884
 11
9.10747
 21
27.467
  0
LINE
  8
0
 10
9.10747
 20
27.467
 11
8.77733
 21
27.2855
  0
LINE
  8
0
 10
8.77733
 20
27.2855
 11
8.42705
 21
27.1468
  0
LINE
  8
0
 10
8.42705
 20
27.1468
 11
8.06213
 21
27.0531
  0
LINE
  8
0
 10
8.06213
 20
27.0531
 11
7.68837
 21
27.0059
  0
LINE
  8
0
 10
7.68837
 20
27.0059
 11
7.31161
 21
27.0059
  0
LINE
  8
0
 10
14.9058
 20
28.503
 11
14.7189
 21
28.5266
  0
LINE
  8
0
 10
14.7189
 20
28.5266
 11
14.5365
 21
28.5734
  0
LINE
  8
0
 10
14.5365
 20
28.5734
 11
14.3613
 21
28.6427
  0
LINE
  8
0
 10
14.3613
 20
28.6427
 11
14.1963
 21
28.7335
  0
LINE
  8
0
 10
14.1963
 20
28.7335
 11
14.0439
 21
28.8442
  0
LINE
  8
0
 10
14.0439
 20
28.8442
 11
13.9065
 21
28.9732
  0
LINE
  8
0
 10
13.9065
 20
28.9732
 11
13.7865
 21
29.1183
  0
LINE
  8
0
 10
13.7865
 20
29.1183
 11
13.6855
 21
29.2774
  0
LINE
  8
0
 10
13.6855
 20
29.2774
 11
13.6053
 21
29.4478
  0
LINE
  8
0
 10
13.6053
 20
29.4478
 11
13.5471
 21
29.627
  0
LINE
  8
0
 10
13.5471
 20
29.627
 11
13.5118
 21
29.812
  0
LINE
  8
0
 10
13.5118
 20
29.812
 11
13.5
 21
30
  0
LINE
  8
0
 10
13.5
 20
30
 11
13.5118
 21
30.188
  0
LINE
  8
0
 10
13.5118
 20
30.188
 11
13.5471
 21
30.373
  0
LINE
  8
0
 10
13.5471
 20
30.373
 11
13.6053
 21
30.5522
  0
LINE
  8
0
 10
13.6053
 20
30.5522
 11
13.6855
 21
30.7226
  0
LINE
  8
0
 10
13.6855
 20
30.7226
 11
13.7865
 21
30.8817
  0
LINE
  8
0
 10
13.7865
 20
30.8817
 11
13.9065
 21
31.0268
  0
LINE
  8
0
 10
13.9065
 20
31.0268
 11
14.0439
 21
31.1558
  0
LINE
  8
0
 10
14.0439
 20
31.1558
 11
14.1963
 21
31.2665
  0
LINE
  8
0
 10
14.1963
 20
31.2665
 11
14.3613
 21
31.3572
  0
LINE
  8
0
 10
14.3613
 20
31.3572
 11
14.5365
 21
31.4266
  0
LINE
  8
0
 10
14.5365
 20
31.4266
 11
14.7189
 21
31.4734
  0
LINE
  8
0
 10
14.7189
 20
31.4734
 11
14.9058
 21
31.497
  0
LINE
  8
0
 10
14.9058
 20
31.497
 11
15.0942
 21
31.497
  0
LINE
  8
0
 10
15.0942
 20
31.497
 11
15.2811
 21
31.4734
  0
LINE
  8
0
 10
15.2811
 20
31.4734
 11
15.4635
 21
31.4266
  0
LINE
  8
0
 10
15.4635
 20
31.4266
 11
15.6387
 21
31.3572
  0
LINE
  8
0
 10
15.6387
 20
31.3572
 11
15.8037
 21
31.2665
  0
LINE
  8
0
 10
15.8037
 20
31.2665
 11
15.9561
 21
31.1558
  0
LINE
  8
0
 10
15.9561
 20
31.1558
 11
16.0934
 21
31.0268
  0
LINE
  8
0
 10
16.0934
 20
31.0268
 11
16.2135
 21
30.8817
  0
LINE
  8
0
 10
16.2135
 20
30.8817
 11
16.3145
 21
30.7226
  0
LINE
  8
0
 10
16.3145
 20
30.7226
 11
16.3947
 21
30.5522
  0
LINE
  8
0
 10
16.3947
 20
30.5522
 11
16.4529
 21
30.373
  0
LINE
  8
0
 10
16.4529
 20
30.373
 11
16.4882
 21
30.188
  0
LINE
  8
0
 10
16.4882
 20
30.188
 11
16.5
 21
30
  0
LINE
  8
0
 10
16.5
 20
30
 11
16.4882
 21
29.812
  0
LINE
  8
0
 10
16.4882
 20
29.812
 11
16.4529
 21
29.627
  0
LINE
  8
0
 10
16.4529
 20
29.627
 11
16.3947
 21
29.4478
  0
LINE
  8
0
 10
16.3947
 20
29.4478
 11
16.3145
 21
29.2774
  0
LINE
  8
0
 10
16.3145
 20
29.2774
 11
16.2135
 21
29.1183
  0
LINE
  8
0
 10
16.2135
 20
29.1183
 11
16.0934
 21
28.9732
  0
LINE
  8
0
 10
16.0934
 20
28.9732
 11
15.9561
 21
28.8442
  0
LINE
  8
0
 10
15.9561
 20
28.8442
 11
15.8037
 21
28.7335
  0
LINE
  8
0
 10
15.8037
 20
28.7335
 11
15.6387
 21
28.6427
  0
LINE
  8
0
 10
15.6387
 20
28.6427
 11
15.4635
 21
28.5734
  0
LINE
  8
0
 10
15.4635
 20
28.5734
 11
15.2811
 21
28.5266
  0
LINE
  8
0
 10
15.2811
 20
28.5266
 11
15.0942
 21
28.503
  0
LINE
  8
0
 10
15.0942
 20
28.503
 11
14.9058
 21
28.503
  0
LINE
  8
0
 10
-0.0941772
 20
28.503
 11
-0.281067
 21
28.5266
  0
LINE
  8
0
 10
-0.281067
 20
28.5266
 11
-0.463516
 21
28.5734
  0
LINE
  8
0
 10
-0.463516
 20
28.5734
 11
-0.638657
 21
28.6427
  0
LINE
  8
0
 10
-0.638657
 20
28.6427
 11
-0.803726
 21
28.7335
  0
LINE
  8
0
 10
-0.803726
 20
28.7335
 11
-0.956131
 21
28.8442
  0
LINE
  8
0
 10
-0.956131
 20
28.8442
 11
-1.09344
 21
28.9732
  0
LINE
  8
0
 10
-1.09344
 20
28.9732
 11
-1.21352
 21
29.1183
  0
LINE
  8
0
 10
-1.21352
 20
29.1183
 11
-1.31445
 21
29.2774
  0
LINE
  8
0
 10
-1.31445
 20
29.2774
 11
-1.39465
 21
29.4478
  0
LINE
  8
0
 10
-1.39465
 20
29.4478
 11
-1.45287
 21
29.627
  0
LINE
  8
0
 10
-1.45287
 20
29.627
 11
-1.48816
 21
29.812
  0
LINE
  8
0
 10
-1.48816
 20
29.812
 11
-1.5
 21
30
  0
LINE
  8
0
 10
-1.5
 20
30
 11
-1.48816
 21
30.188
  0
LINE
  8
0
 10
-1.48816
 20
30.188
 11
-1.45287
 21
30.373
  0
LINE
  8
0
 10
-1.45287
 20
30.373
 11
-1.39465
 21
30.5522
  0
LINE
  8
0
 10
-1.39465
 20
30.5522
 11
-1.31445
 21
30.7226
  0
LINE
  8
0
 10
-1.31445
 20
30.7226
 11
-1.21352
 21
30.8817
  0
LINE
  8
0
 10
-1.21352
 20
30.8817
 11
-1.09344
 21
31.0268
  0
LINE
  8
0
 10
-1.09344
 20
31.0268
 11
-0.956131
 21
31.1558
  0
LINE
  8
0
 10
-0.956131
 20
31.1558
 11
-0.803726
 21
31.2665
  0
LINE
  8
0
 10
-0.803726
 20
31.2665
 11
-0.638657
 21
31.3572
  0
LINE
  8
0
 10
-0.638657
 20
31.3572
 11
-0.463516
 21
31.4266
  0
LINE
  8
0
 10
-0.463516
 20
31.4266
 11
-0.281067
 21
31.4734
  0
LINE
  8
0
 10
-0.281067
 20
31.4734
 11
-0.0941772
 21
31.497
  0
LINE
  8
0
 10
-0.0941772
 20
31.497
 11
0.0941772
 21
31.497
  0
LINE
  8
0
 10
0.0941772
 20
31.497
 11
0.281067
 21
31.4734
  0
LINE
  8
0
 10
0.281067
 20
31.4734
 11
0.463516
 21
31.4266
  0
LINE
  8
0
 10
0.463516
 20
31.4266
 11
0.638657
 21
31.3572
  0
LINE
  8
0
 10
0.638657
 20
31.3572
 11
0.803726
 21
31.2665
  0
LINE
  8
0
 10
0.803726
 20
31.2665
 11
0.956131
 21
31.1558
  0
LINE
  8
0
 10
0.956131
 20
31.1558
 11
1.09344
 21
31.0268
  0
LINE
  8
0
 10
1.09344
 20
31.0268
 11
1.21352
 21
30.8817
  0
LINE
  8
0
 10
1.21352
 20
30.8817
 11
1.31445
 21
30.7226
  0
LINE
  8
0
 10
1.31445
 20
30.7226
 11
1.39465
 21
30.5522
  0
LINE
  8
0
 10
1.39465
 20
30.5522
 11
1.45287
 21
30.373
  0
LINE
  8
0
 10
1.45287
 20
30.373
 11
1.48816
 21
30.188
  0
LINE
  8
0
 10
1.48816
 20
30.188
 11
1.5
 21
30
  0
LINE
  8
0
 10
1.5
 20
30
 11
1.48816
 21
29.812
  0
LINE
  8
0
 10
1.48816
 20
29.812
 11
1.45287
 21
29.627
  0
LINE
  8
0
 10
1.45287
 20
29.627
 11
1.39465
 21
29.4478
  0
LINE
  8
0
 10
1.39465
 20
29.4478
 11
1.31445
 21
29.2774
  0
LINE
  8
0
 10
1.31445
 20
29.2774
 11
1.21352
 21
29.1183
  0
LINE
  8
0
 10
1.21352
 20
29.1183
 11
1.09344
 21
28.9732
  0
LINE
  8
0
 10
1.09344
 20
28.9732
 11
0.956131
 21
28.8442
  0
LINE
  8
0
 10
0.956131
 20
28.8442
 11
0.803726
 21
28.7335
  0
LINE
  8
0
 10
0.803726
 20
28.7335
 11
0.638657
 21
28.6427
  0
LINE
  8
0
 10
0.638657
 20
28.6427
 11
0.463516
 21
28.5734
  0
LINE
  8
0
 10
0.463516
 20
28.5734
 11
0.281067
 21
28.5266
  0
LINE
  8
0
 10
0.281067
 20
28.5266
 11
0.0941772
 21
28.503
  0
LINE
  8
0
 10
0.0941772
 20
28.503
 11
-0.0941772
 21
28.503
  0
LINE
  8
0
 10
-15.0942
 20
28.503
 11
-15.2811
 21
28.5266
  0
LINE
  8
0
 10
-15.2811
 20
28.5266
 11
-15.4635
 21
28.5734
  0
LINE
  8
0
 10
-15.4635
 20
28.5734
 11
-15.6387
 21
28.6427
  0
LINE
  8
0
 10
-15.6387
 20
28.6427
 11
-15.8037
 21
28.7335
  0
LINE
  8
0
 10
-15.8037
 20
28.7335
 11
-15.9561
 21
28.8442
  0
LINE
  8
0
 10
-15.9561
 20
28.8442
 11
-16.0934
 21
28.9732
  0
LINE
  8
0
 10
-16.0934
 20
28.9732
 11
-16.2135
 21
29.1183
  0
LINE
  8
0
 10
-16.2135
 20
29.1183
 11
-16.3145
 21
29.2774
  0
LINE
  8
0
 10
-16.3145
 20
29.2774
 11
-16.3947
 21
29.4478
  0
LINE
  8
0
 10
-16.3947
 20
29.4478
 11
-16.4529
 21
29.627
  0
LINE
  8
0
 10
-16.4529
 20
29.627
 11
-16.4882
 21
29.812
  0
LINE
  8
0
 10
-16.4882
 20
29.812
 11
-16.5
 21
30
  0
LINE
  8
0
 10
-16.5
 20
30
 11
-16.4882
 21
30.188
  0
LINE
  8
0
 10
-16.4882
 20
30.188
 11
-16.4529
 21
30.373
  0
LINE
  8
0
 10
-16.4529
 20
30.373
 11
-16.3947
 21
30.5522
  0
LINE
  8
0
 10
-16.3947
 20
30.5522
 11
-16.3145
 21
30.7226
  0
LINE
  8
0
 10
-16.3145
 20
30.7226
 11
-16.2135
 21
30.8817
  0
LINE
  8
0
 10
-16.2135
 20
30.8817
 11
-16.0934
 21
31.0268
  0
LINE
  8
0
 10
-16.0934
 20
31.0268
 11
-15.9561
 21
31.1558
  0
LINE
  8
0
 10
-15.9561
 20
31.1558
 11
-15.8037
 21
31.2665
  0
LINE
  8
0
 10
-15.8037
 20
31.2665
 11
-15.6387
 21
31.3572
  0
LINE
  8
0
 10
-15.6387
 20
31.3572
 11
-15.4635
 21
31.4266
  0
LINE
  8
0
 10
-15.4635
 20
31.4266
 11
-15.2811
 21
31.4734
  0
LINE
  8
0
 10
-15.2811
 20
31.4734
 11
-15.0942
 21
31.497
  0
LINE
  8
0
 10
-15.0942
 20
31.497
 11
-14.9058
 21
31.497
  0
LINE
  8
0
 10
-14.9058
 20
31.497
 11
-14.7189
 21
31.4734
  0
LINE
  8
0
 10
-14.7189
 20
31.4734
 11
-14.5365
 21
31.4266
  0
LINE
  8
0
 10
-14.5365
 20
31.4266
 11
-14.3613
 21
31.3572
  0
LINE
  8
0
 10
-14.3613
 20
31.3572
 11
-14.1963
 21
31.2665
  0
LINE
  8
0
 10
-14.1963
 20
31.2665
 11
-14.0439
 21
31.1558
  0
LINE
  8
0
 10
-14.0439
 20
31.1558
 11
-13.9065
 21
31.0268
  0
LINE
  8
0
 10
-13.9065
 20
31.0268
 11
-13.7865
 21
30.8817
  0
LINE
  8
0
 10
-13.7865
 20
30.8817
 11
-13.6855
 21
30.7226
  0
LINE
  8
0
 10
-13.6855
 20
30.7226
 11
-13.6053
 21
30.5522
  0
LINE
  8
0
 10
-13.6053
 20
30.5522
 11
-13.5471
 21
30.373
  0
LINE
  8
0
 10
-13.5471
 20
30.373
 11
-13.5118
 21
30.188
  0
LINE
  8
0
 10
-13.5118
 20
30.188
 11
-13.5
 21
30
  0
LINE
  8
0
 10
-13.5
 20
30
 11
-13.5118
 21
29.812
  0
LINE
  8
0
 10
-13.5118
 20
29.812
 11
-13.5471
 21
29.627
  0
LINE
  8
0
 10
-13.5471
 20
29.627
 11
-13.6053
 21
29.4478
  0
LINE
  8
0
 10
-13.6053
 20
29.4478
 11
-13.6855
 21
29.2774
  0
LINE
  8
0
 10
-13.6855
 20
29.2774
 11
-13.7865
 21
29.1183
  0
LINE
  8
0
 10
-13.7865
 20
29.1183
 11
-13.9065
 21
28.9732
  0
LINE
  8
0
 10
-13.9065
 20
28.9732
 11
-14.0439
 21
28.8442
  0
LINE
  8
0
 10
-14.0439
 20
28.8442
 11
-14.1963
 21
28.7335
  0
LINE
  8
0
 10
-14.1963
 20
28.7335
 11
-14.3613
 21
28.6427
  0
LINE
  8
0
 10
-14.3613
 20
28.6427
 11
-14.5365
 21
28.5734
  0
LINE
  8
0
 10
-14.5365
 20
28.5734
 11
-14.7189
 21
28.5266
  0
LINE
  8
0
 10
-14.7189
 20
28.5266
 11
-14.9058
 21
28.503
  0
LINE
  8
0
 10
-14.9058
 20
28.503
 11
-15.0942
 21
28.503
  0
LINE
  8
0
 10
-1.63255
 20
-25.9487
 11
-4.8719
 21
-25.5395
  0
LINE
  8
0
 10
-4.8719
 20
-25.5395
 11
-8.03444
 21
-24.7275
  0
LINE
  8
0
 10
-8.03444
 20
-24.7275
 11
-11.0703
 21
-23.5255
  0
LINE
  8
0
 10
-11.0703
 20
-23.5255
 11
-13.9315
 21
-21.9525
  0
LINE
  8
0
 10
-13.9315
 20
-21.9525
 11
-16.573
 21
-20.0333
  0
LINE
  8
0
 10
-16.573
 20
-20.0333
 11
-18.9532
 21
-17.7982
  0
LINE
  8
0
 10
-18.9532
 20
-17.7982
 11
-21.0344
 21
-15.2824
  0
LINE
  8
0
 10
-21.0344
 20
-15.2824
 11
-22.784
 21
-12.5256
  0
LINE
  8
0
 10
-22.784
 20
-12.5256
 11
-24.1742
 21
-9.57123
  0
LINE
  8
0
 10
-24.1742
 20
-9.57123
 11
-25.1832
 21
-6.46593
  0
LINE
  8
0
 10
-25.1832
 20
-6.46593
 11
-25.795
 21
-3.25865
  0
LINE
  8
0
 10
-25.795
 20
-3.25865
 11
-26
 21
0
  0
LINE
  8
0
 10
-26
 20
0
 11
-25.795
 21
3.25865
  0
LINE
  8
0
 10
-25.795
 20
3.25865
 11
-25.1832
 21
6.46593
  0
LINE
  8
0
 10
-25.1832
 20
6.46593
 11
-24.1742
 21
9.57123
  0
LINE
  8
0
 10
-24.1742
 20
9.57123
 11
-22.784
 21
12.5256
  0
LINE
  8
0
 10
-22.784
 20
12.5256
 11
-21.0344
 21
15.2824
  0
LINE
  8
0
 10
-21.0344
 20
15.2824
 11
-18.9532
 21
17.7982
  0
LINE
  8
0
 10
-18.9532
 20
17.7982
 11
-16.573
 21
20.0333
  0
LINE
  8
0
 10
-16.573
 20
20.0333
 11
-13.9315
 21
21.9525
  0
LINE
  8
0
 10
-13.9315
 20
21.9525
 11
-11.0703
 21
23.5255
  0
LINE
  8
0
 10
-11.0703
 20
23.5255
 11
-8.03444
 21
24.7275
  0
LINE
  8
0
 10
-8.03444
 20
24.7275
 11
-4.8719
 21
25.5395
  0
LINE
  8
0
 10
-4.8719
 20
25.5395
 11
-1.63255
 21
25.9487
  0
LINE
  8
0
 10
-1.63255
 20
25.9487
 11
1.63255
 21
25.9487
  0
LINE
  8
0
 10
1.63255
 20
25.9487
 11
4.8719
 21
25.5395
  0
LINE
  8
0
 10
4.8719
 20
25.5395
 11
8.03444
 21
24.7275
  0
LINE
  8
0
 10
8.03444
 20
24.7275
 11
11.0703
 21
23.5255
  0
LINE
  8
0
 10
11.0703
 20
23.5255
 11
13.9315
 21
21.9525
  0
LINE
  8
0
 10
13.9315
 20
21.9525
 11
16.573
 21
20.0333
  0
LINE
  8
0
 10
16.573
 20
20.0333
 11
18.9532
 21
17.7982
  0
LINE
  8
0
 10
18.9532
 20
17.7982
 11
21.0344
 21
15.2824
  0
LINE
  8
0
 10
21.0344
 20
15.2824
 11
22.784
 21
12.5256
  0
LINE
  8
0
 10
22.784
 20
12.5256
 11
24.1742
 21
9.57123
  0
LINE
  8
0
 10
24.1742
 20
9.57123
 11
25.1832
 21
6.46593
  0
LINE
  8
0
 10
25.1832
 20
6.46593
 11
25.795
 21
3.25865
  0
LINE
  8
0
 10
25.795
 20
3.25865
 11
26
 21
0
  0
LINE
  8
0
 10
26
 20
0
 11
25.795
 21
-3.25865
  0
LINE
  8
0
 10
25.795
 20
-3.25865
 11
25.1832
 21
-6.46593
  0
LINE
  8
0
 10
25.1832
 20
-6.46593
 11
24.1742
 21
-9.57123
  0
LINE
  8
0
 10
24.1742
 20
-9.57123
 11
22.784
 21
-12.5256
  0
LINE
  8
0
 10
22.784
 20
-12.5256
 11
21.0344
 21
-15.2824
  0
LINE
  8
0
 10
21.0344
 20
-15.2824
 11
18.9532
 21
-17.7982
  0
LINE
  8
0
 10
18.9532
 20
-17.7982
 11
16.573
 21
-20.0333
  0
LINE
  8
0
 10
16.573
 20
-20.0333
 11
13.9315
 21
-21.9525
  0
LINE
  8
0
 10
13.9315
 20
-21.9525
 11
11.0703
 21
-23.5255
  0
LINE
  8
0
 10
11.0703
 20
-23.5255
 11
8.03444
 21
-24.7275
  0
LINE
  8
0
 10
8.03444
 20
-24.7275
 11
4.8719
 21
-25.5395
  0
LINE
  8
0
 10
4.8719
 20
-25.5395
 11
1.63255
 21
-25.9487
  0
LINE
  8
0
 10
1.63255
 20
-25.9487
 11
-1.63255
 21
-25.9487
  0
LINE
  8
0
 10
22.3116
 20
-32.9941
 11
21.9379
 21
-32.9469
  0
LINE
  8
0
 10
21.9379
 20
-32.9469
 11
21.5729
 21
-32.8532
  0
LINE
  8
0
 10
21.5729
 20
-32.8532
 11
21.2227
 21
-32.7145
  0
LINE
  8
0
 10
21.2227
 20
-32.7145
 11
20.8925
 21
-32.533
  0
LINE
  8
0
 10
20.8925
 20
-32.533
 11
20.5877
 21
-32.3115
  0
LINE
  8
0
 10
20.5877
 20
-32.3115
 11
20.3131
 21
-32.0536
  0
LINE
  8
0
 10
20.3131
 20
-32.0536
 11
20.0729
 21
-31.7634
  0
LINE
  8
0
 10
20.0729
 20
-31.7634
 11
19.8711
 21
-31.4453
  0
LINE
  8
0
 10
19.8711
 20
-31.4453
 11
19.7107
 21
-31.1044
  0
LINE
  8
0
 10
19.7107
 20
-31.1044
 11
19.5942
 21
-30.7461
  0
LINE
  8
0
 10
19.5942
 20
-30.7461
 11
19.5237
 21
-30.376
  0
LINE
  8
0
 10
19.5237
 20
-30.376
 11
19.5
 21
-30
  0
LINE
  8
0
 10
19.5
 20
-30
 11
19.5237
 21
-29.624
  0
LINE
  8
0
 10
19.5237
 20
-29.624
 11
19.5942
 21
-29.2539
  0
LINE
  8
0
 10
19.5942
 20
-29.2539
 11
19.7107
 21
-28.8956
  0
LINE
  8
0
 10
19.7107
 20
-28.8956
 11
19.8711
 21
-28.5547
  0
LINE
  8
0
 10
19.8711
 20
-28.5547
 11
20.0729
 21
-28.2366
  0
LINE
  8
0
 10
20.0729
 20
-28.2366
 11
20.3131
 21
-27.9464
  0
LINE
  8
0
 10
20.3131
 20
-27.9464
 11
20.5877
 21
-27.6884
  0
LINE
  8
0
 10
20.5877
 20
-27.6884
 11
20.8925
 21
-27.467
  0
LINE
  8
0
 10
20.8925
 20
-27.467
 11
21.2227
 21
-27.2855
  0
LINE
  8
0
 10
21.2227
 20
-27.2855
 11
21.5729
 21
-27.1468
  0
LINE
  8
0
 10
21.5729
 20
-27.1468
 11
21.9379
 21
-27.0531
  0
LINE
  8
0
 10
21.9379
 20
-27.0531
 11
22.3116
 21
-27.0059
  0
LINE
  8
0
 10
22.3116
 20
-27.0059
 11
22.6884
 21
-27.0059
  0
LINE
  8
0
 10
22.6884
 20
-27.0059
 11
23.0621
 21
-27.0531
  0
LINE
  8
0
 10
23.0621
 20
-27.0531
 11
23.427
 21
-27.1468
  0
LINE
  8
0
 10
23.427
 20
-27.1468
 11
23.7773
 21
-27.2855
  0
LINE
  8
0
 10
23.7773
 20
-27.2855
 11
24.1075
 21
-27.467
  0
LINE
  8
0
 10
24.1075
 20
-27.467
 11
24.4123
 21
-27.6884
  0
LINE
  8
0
 10
24.4123
 20
-27.6884
 11
24.6869
 21
-27.9464
  0
LINE
  8
0
 10
24.6869
 20
-27.9464
 11
24.927
 21
-28.2366
  0
LINE
  8
0
 10
24.927
 20
-28.2366
 11
25.1289
 21
-28.5547
  0
LINE
  8
0
 10
25.1289
 20
-28.5547
 11
25.2893
 21
-28.8956
  0
LINE
  8
0
 10
25.2893
 20
-28.8956
 11
25.4057
 21
-29.2539
  0
LINE
  8
0
 10
25.4057
 20
-29.2539
 11
25.4763
 21
-29.624
  0
LINE
  8
0
 10
25.4763
 20
-29.624
 11
25.5
 21
-30
  0
LINE
  8
0
 10
25.5
 20
-30
 11
25.4763
 21
-30.376
  0
LINE
  8
0
 10
25.4763
 20
-30.376
 11
25.4057
 21
-30.7461
  0
LINE
  8
0
 10
25.4057
 20
-30.7461
 11
25.2893
 21
-31.1044
  0
LINE
  8
0
 10
25.2893
 20
-31.1044
 11
25.1289
 21
-31.4453
  0
LINE
  8
0
 10
25.1289
 20
-31.4453
 11
24.927
 21
-31.7634
  0
LINE
  8
0
 10
24.927
 20
-31.7634
 11
24.6869
 21
-32.0536
  0
LINE
  8
0
 10
24.6869
 20
-32.0536
 11
24.4123
 21
-32.3115
  0
LINE
  8
0
 10
24.4123
 20
-32.3115
 11
24.1075
 21
-32.533
  0
LINE
  8
0
 10
24.1075
 20
-32.533
 11
23.7773
 21
-32.7145
  0
LINE
  8
0
 10
23.7773
 20
-32.7145
 11
23.427
 21
-32.8532
  0
LINE
  8
0
 10
23.427
 20
-32.8532
 11
23.0621
 21
-32.9469
  0
LINE
  8
0
 10
23.0621
 20
-32.9469
 11
22.6884
 21
-32.9941
  0
LINE
  8
0
 10
22.6884
 20
-32.9941
 11
22.3116
 21
-32.9941
  0
LINE
  8
0
 10
7.31161
 20
-32.9941
 11
6.93785
 21
-32.9469
  0
LINE
  8
0
 10
6.93785
 20
-32.9469
 11
6.57294
 21
-32.8532
  0
LINE
  8
0
 10
6.57294
 20
-32.8532
 11
6.22266
 21
-32.7145
  0
LINE
  8
0
 10
6.22266
 20
-32.7145
 11
5.89252
 21
-32.533
  0
LINE
  8
0
 10
5.89252
 20
-32.533
 11
5.58772
 21
-32.3115
  0
LINE
  8
0
 10
5.58772
 20
-32.3115
 11
5.31308
 21
-32.0536
  0
LINE
  8
0
 10
5.31308
 20
-32.0536
 11
5.07294
 21
-31.7634
  0
LINE
  8
0
 10
5.07294
 20
-31.7634
 11
4.87108
 21
-31.4453
  0
LINE
  8
0
 10
4.87108
 20
-31.4453
 11
4.71066
 21
-31.1044
  0
LINE
  8
0
 10
4.71066
 20
-31.1044
 11
4.59424
 21
-30.7461
  0
LINE
  8
0
 10
4.59424
 20
-30.7461
 11
4.52365
 21
-30.376
  0
LINE
  8
0
 10
4.52365
 20
-30.376
 11
4.5
 21
-30
  0
LINE
  8
0
 10
4.5
 20
-30
 11
4.52365
 21
-29.624
  0
LINE
  8
0
 10
4.52365
 20
-29.624
 11
4.59424
 21
-29.2539
  0
LINE
  8
0
 10
4.59424
 20
-29.2539
 11
4.71066
 21
-28.8956
  0
LINE
  8
0
 10
4.71066
 20
-28.8956
 11
4.87108
 21
-28.5547
  0
LINE
  8
0
 10
4.87108
 20
-28.5547
 11
5.07294
 21
-28.2366
  0
LINE
  8
0
 10
5.07294
 20
-28.2366
 11
5.31308
 21
-27.9464
  0
LINE
  8
0
 10
5.31308
 20
-27.9464
 11
5.58772
 21
-27.6884
  0
LINE
  8
0
 10
5.58772
 20
-27.6884
 11
5.89252
 21
-27.467
  0
LINE
  8
0
 10
5.89252
 20
-27.467
 11
6.22266
 21
-27.2855
  0
LINE
  8
0
 10
6.22266
 20
-27.2855
 11
6.57294
 21
-27.1468
  0
LINE
  8
0
 10
6.57294
 20
-27.1468
 11
6.93785
 21
-27.0531
  0
LINE
  8
0
 10
6.93785
 20
-27.0531
 11
7.31161
 21
-27.0059
  0
LINE
  8
0
 10
7.31161
 20
-27.0059
 11
7.68837
 21
-27.0059
  0
LINE
  8
0
 10
7.68837
 20
-27.0059
 11
8.06213
 21
-27.0531
  0
LINE
  8
0
 10
8.06213
 20
-27.0531
 11
8.42705
 21
-27.1468
  0
LINE
  8
0
 10
8.42705
 20
-27.1468
 11
8.77733
 21
-27.2855
  0
LINE
  8
0
 10
8.77733
 20
-27.2855
 11
9.10747
 21
-27.467
  0
LINE
  8
0
 10
9.10747
 20
-27.467
 11
9.41226
 21
-27.6884
  0
LINE
  8
0
 10
9.41226
 20
-27.6884
 11
9.6869
 21
-27.9464
  0
LINE
  8
0
 10
9.6869
 20
-27.9464
 11
9.92705
 21
-28.2366
  0
LINE
  8
0
 10
9.92705
 20
-28.2366
 11
10.1289
 21
-28.5547
  0
LINE
  8
0
 10
10.1289
 20
-28.5547
 11
10.2893
 21
-28.8956
  0
LINE
  8
0
 10
10.2893
 20
-28.8956
 11
10.4057
 21
-29.2539
  0
LINE
  8
0
 10
10.4057
 20
-29.2539
 11
10.4763
 21
-29.624
  0
LINE
  8
0
 10
10.4763
 20
-29.624
 11
10.5
 21
-30
  0
LINE
  8
0
 10
10.5
 20
-30
 11
10.4763
 21
-30.376
  0
LINE
  8
0
 10
10.4763
 20
-30.376
 11
10.4057
 21
-30.7461
  0
LINE
  8
0
 10
10.4057
 20
-30.7461
 11
10.2893
 21
-31.1044
  0
LINE
  8
0
 10
10.2893
 20
-31.1044
 11
10.1289
 21
-31.4453
  0
LINE
  8
0
 10
10.1289
 20
-31.4453
 11
9.92705
 21
-31.7634
  0
LINE
  8
0
 10
9.92705
 20
-31.7634
 11
9.6869
 21
-32.0536
  0
LINE
  8
0
 10
9.6869
 20
-32.0536
 11
9.41226
 21
-32.3115
  0
LINE
  8
0
 10
9.41226
 20
-32.3115
 11
9.10747
 21
-32.533
  0
LINE
  8
0
 10
9.10747
 20
-32.533
 11
8.77733
 21
-32.7145
  0
LINE
  8
0
 10
8.77733
 20
-32.7145
 11
8.42705
 21
-32.8532
  0
LINE
  8
0
 10
8.42705
 20
-32.8532
 11
8.06213
 21
-32.9469
  0
LINE
  8
0
 10
8.06213
 20
-32.9469
 11
7.68837
 21
-32.9941
  0
LINE
  8
0
 10
7.68837
 20
-32.9941
 11
7.31161
 21
-32.9941
  0
LINE
  8
0
 10
-7.68837
 20
-32.9941
 11
-8.06213
 21
-32.9469
  0
LINE
  8
0
 10
-8.06213
 20
-32.9469
 11
-8.42705
 21
-32.8532
  0
LINE
  8
0
 10
-8.42705
 20
-32.8532
 11
-8.77733
 21
-32.7145
  0
LINE
  8
0
 10
-8.77733
 20
-32.7145
 11
-9.10747
 21
-32.533
  0
LINE
  8
0
 10
-9.10747
 20
-32.533
 11
-9.41226
 21
-32.3115
  0
LINE
  8
0
 10
-9.41226
 20
-32.3115
 11
-9.6869
 21
-32.0536
  0
LINE
  8
0
 10
-9.6869
 20
-32.0536
 11
-9.92705
 21
-31.7634
  0
LINE
  8
0
 10
-9.92705
 20
-31.7634
 11
-10.1289
 21
-31.4453
  0
LINE
  8
0
 10
-10.1289
 20
-31.4453
 11
-10.2893
 21
-31.1044
  0
LINE
  8
0
 10
-10.2893
 20
-31.1044
 11
-10.4057
 21
-30.7461
  0
LINE
  8
0
 10
-10.4057
 20
-30.7461
 11
-10.4763
 21
-30.376
  0
LINE
  8
0
 10
-10.4763
 20
-30.376
 11
-10.5
 21
-30
  0
LINE
  8
0
 10
-10.5
 20
-30
 11
-10.4763
 21
-29.624
  0
LINE
  8
0
 10
-10.4763
 20
-29.624
 11
-10.4057
 21
-29.2539
  0
LINE
  8
0
 10
-10.4057
 20
-29.2539
 11
-10.2893
 21
-28.8956
  0
LINE
  8
0
 10
-10.2893
 20
-28.8956
 11
-10.1289
 21
-28.5547
  0
LINE
  8
0
 10
-10.1289
 20
-28.5547
 11
-9.92705
 21
-28.2366
  0
LINE
  8
0
 10
-9.92705
 20
-28.2366
 11
-9.6869
 21
-27.9464
  0
LINE
  8
0
 10
-9.6869
 20
-27.9464
 11
-9.41226
 21
-27.6884
  0
LINE
  8
0
 10
-9.41226
 20
-27.6884
 11
-9.10747
 21
-27.467
  0
LINE
  8
0
 10
-9.10747
 20
-27.467
 11
-8.77733
 21
-27.2855
  0
LINE
  8
0
 10
-8.77733
 20
-27.2855
 11
-8.42705
 21
-27.1468
  0
LINE
  8
0
 10
-8.42705
 20
-27.1468
 11
-8.06213
 21
-27.0531
  0
LINE
  8
0
 10
-8.06213
 20
-27.0531
 11
-7.68837
 21
-27.0059
  0
LINE
  8
0
 10
-7.68837
 20
-27.0059
 11
-7.31161
 21
-27.0059
  0
LINE
  8
0
 10
-7.31161
 20
-27.0059
 11
-6.93785
 21
-27.0531
  0
LINE
  8
0
 10
-6.93785
 20
-27.0531
 11
-6.57294
 21
-27.1468
  0
LINE
  8
0
 10
-6.57294
 20
-27.1468
 11
-6.22266
 21
-27.2855
  0
LINE
  8
0
 10
-6.22266
 20
-27.2855
 11
-5.89252
 21
-27.467
  0
LINE
  8
0
 10
-5.89252
 20
-27.467
 11
-5.58772
 21
-27.6884
  0
LINE
  8
0
 10
-5.58772
 20
-27.6884
 11
-5.31308
 21
-27.9464
  0
LINE
  8
0
 10
-5.31308
 20
-27.9464
 11
-5.07294
 21
-28.2366
  0
LINE
  8
0
 10
-5.07294
 20
-28.2366
 11
-4.87108
 21
-28.5547
  0
LINE
  8
0
 10
-4.87108
 20
-28.5547
 11
-4.71066
 21
-28.8956
  0
LINE
  8
0
 10
-4.71066
 20
-28.8956
 11
-4.59424
 21
-29.2539
  0
LINE
  8
0
 10
-4.59424
 20
-29.2539
 11
-4.52365
 21
-29.624
  0
LINE
  8
0
 10
-4.52365
 20
-29.624
 11
-4.5
 21
-30
  0
LINE
  8
0
 10
-4.5
 20
-30
 11
-4.52365
 21
-30.376
  0
LINE
  8
0
 10
-4.52365
 20
-30.376
 11
-4.59424
 21
-30.7461
  0
LINE
  8
0
 10
-4.59424
 20
-30.7461
 11
-4.71066
 21
-31.1044
  0
LINE
  8
0
 10
-4.71066
 20
-31.1044
 11
-4.87108
 21
-31.4453
  0
LINE
  8
0
 10
-4.87108
 20
-31.4453
 11
-5.07294
 21
-31.7634
  0
LINE
  8
0
 10
-5.07294
 20
-31.7634
 11
-5.31308
 21
-32.0536
  0
LINE
  8
0
 10
-5.31308
 20
-32.0536
 11
-5.58772
 21
-32.3115
  0
LINE
  8
0
 10
-5.58772
 20
-32.3115
 11
-5.89252
 21
-32.533
  0
LINE
  8
0
 10
-5.89252
 20
-32.533
 11
-6.22266
 21
-32.7145
  0
LINE
  8
0
 10
-6.22266
 20
-32.7145
 11
-6.57294
 21
-32.8532
  0
LINE
  8
0
 10
-6.57294
 20
-32.8532
 11
-6.93785
 21
-32.9469
  0
LINE
  8
0
 10
-6.93785
 20
-32.9469
 11
-7.31161
 21
-32.9941
  0
LINE
  8
0
 10
-7.31161
 20
-32.9941
 11
-7.68837
 21
-32.9941
  0
LINE
  8
0
 10
-22.6884
 20
-32.9941
 11
-23.0621
 21
-32.9469
  0
LINE
  8
0
 10
-23.0621
 20
-32.9469
 11
-23.427
 21
-32.8532
  0
LINE
  8
0
 10
-23.427
 20
-32.8532
 11
-23.7773
 21
-32.7145
  0
LINE
  8
0
 10
-23.7773
 20
-32.7145
 11
-24.1075
 21
-32.533
  0
LINE
  8
0
 10
-24.1075
 20
-32.533
 11
-24.4123
 21
-32.3115
  0
LINE
  8
0
 10
-24.4123
 20
-32.3115
 11
-24.6869
 21
-32.0536
  0
LINE
  8
0
 10
-24.6869
 20
-32.0536
 11
-24.927
 21
-31.7634
  0
LINE
  8
0
 10
-24.927
 20
-31.7634
 11
-25.1289
 21
-31.4453
  0
LINE
  8
0
 10
-25.1289
 20
-31.4453
 11
-25.2893
 21
-31.1044
  0
LINE
  8
0
 10
-25.2893
 20
-31.1044
 11
-25.4057
 21
-30.7461
  0
LINE
  8
0
 10
-25.4057
 20
-30.7461
 11
-25.4763
 21
-30.376
  0
LINE
  8
0
 10
-25.4763
 20
-30.376
 11
-25.5
 21
-30
  0
LINE
  8
0
 10
-25.5
 20
-30
 11
-25.4763
 21
-29.624
  0
LINE
  8
0
 10
-25.4763
 20
-29.624
 11
-25.4057
 21
-29.2539
  0
LINE
  8
0
 10
-25.4057
 20
-29.2539
 11
-25.2893
 21
-28.8956
  0
LINE
  8
0
 10
-25.2893
 20
-28.8956
 11
-25.1289
 21
-28.5547
  0
LINE
  8
0
 10
-25.1289
 20
-28.5547
 11
-24.927
 21
-28.2366
  0
LINE
  8
0
 10
-24.927
 20
-28.2366
 11
-24.6869
 21
-27.9464
  0
LINE
  8
0
 10
-24.6869
 20
-27.9464
 11
-24.4123
 21
-27.6884
  0
LINE
  8
0
 10
-24.4123
 20
-27.6884
 11
-24.1075
 21
-27.467
  0
LINE
  8
0
 10
-24.1075
 20
-27.467
 11
-23.7773
 21
-27.2855
  0
LINE
  8
0
 10
-23.7773
 20
-27.2855
 11
-23.427
 21
-27.1468
  0
LINE
  8
0
 10
-23.427
 20
-27.1468
 11
-23.0621
 21
-27.0531
  0
LINE
  8
0
 10
-23.0621
 20
-27.0531
 11
-22.6884
 21
-27.0059
  0
LINE
  8
0
 10
-22.6884
 20
-27.0059
 11
-22.3116
 21
-27.0059
  0
LINE
  8
0
 10
-22.3116
 20
-27.0059
 11
-21.9379
 21
-27.0531
  0
LINE
  8
0
 10
-21.9379
 20
-27.0531
 11
-21.5729
 21
-27.1468
  0
LINE
  8
0
 10
-21.5729
 20
-27.1468
 11
-21.2227
 21
-27.2855
  0
LINE
  8
0
 10
-21.2227
 20
-27.2855
 11
-20.8925
 21
-27.467
  0
LINE
  8
0
 10
-20.8925
 20
-27.467
 11
-20.5877
 21
-27.6884
  0
LINE
  8
0
 10
-20.5877
 20
-27.6884
 11
-20.3131
 21
-27.9464
  0
LINE
  8
0
 10
-20.3131
 20
-27.9464
 11
-20.0729
 21
-28.2366
  0
LINE
  8
0
 10
-20.0729
 20
-28.2366
 11
-19.8711
 21
-28.5547
  0
LINE
  8
0
 10
-19.8711
 20
-28.5547
 11
-19.7107
 21
-28.8956
  0
LINE
  8
0
 10
-19.7107
 20
-28.8956
 11
-19.5942
 21
-29.2539
  0
LINE
  8
0
 10
-19.5942
 20
-29.2539
 11
-19.5237
 21
-29.624
  0
LINE
  8
0
 10
-19.5237
 20
-29.624
 11
-19.5
 21
-30
  0
LINE
  8
0
 10
-19.5
 20
-30
 11
-19.5237
 21
-30.376
  0
LINE
  8
0
 10
-19.5237
 20
-30.376
 11
-19.5942
 21
-30.7461
  0
LINE
  8
0
 10
-19.5942
 20
-30.7461
 11
-19.7107
 21
-31.1044
  0
LINE
  8
0
 10
-19.7107
 20
-31.1044
 11
-19.8711
 21
-31.4453
  0
LINE
  8
0
 10
-19.8711
 20
-31.4453
 11
-20.0729
 21
-31.7634
  0
LINE
  8
0
 10
-20.0729
 20
-31.7634
 11
-20.3131
 21
-32.0536
  0
LINE
  8
0
 10
-20.3131
 20
-32.0536
 11
-20.5877
 21
-32.3115
  0
LINE
  8
0
 10
-20.5877
 20
-32.3115
 11
-20.8925
 21
-32.533
  0
LINE
  8
0
 10
-20.8925
 20
-32.533
 11
-21.2227
 21
-32.7145
  0
LINE
  8
0
 10
-21.2227
 20
-32.7145
 11
-21.5729
 21
-32.8532
  0
LINE
  8
0
 10
-21.5729
 20
-32.8532
 11
-21.9379
 21
-32.9469
  0
LINE
  8
0
 10
-21.9379
 20
-32.9469
 11
-22.3116
 21
-32.9941
  0
LINE
  8
0
 10
-22.3116
 20
-32.9941
 11
-22.6884
 21
-32.9941
  0
LINE
  8
0
 10
-15.0942
 20
-31.497
 11
-15.2811
 21
-31.4734
  0
LINE
  8
0
 10
-15.2811
 20
-31.4734
 11
-15.4635
 21
-31.4266
  0
LINE
  8
0
 10
-15.4635
 20
-31.4266
 11
-15.6387
 21
-31.3572
  0
LINE
  8
0
 10
-15.6387
 20
-31.3572
 11
-15.8037
 21
-31.2665
  0
LINE
  8
0
 10
-15.8037
 20
-31.2665
 11
-15.9561
 21
-31.1558
  0
LINE
  8
0
 10
-15.9561
 20
-31.1558
 11
-16.0934
 21
-31.0268
  0
LINE
  8
0
 10
-16.0934
 20
-31.0268
 11
-16.2135
 21
-30.8817
  0
LINE
  8
0
 10
-16.2135
 20
-30.8817
 11
-16.3145
 21
-30.7226
  0
LINE
  8
0
 10
-16.3145
 20
-30.7226
 11
-16.3947
 21
-30.5522
  0
LINE
  8
0
 10
-16.3947
 20
-30.5522
 11
-16.4529
 21
-30.373
  0
LINE
  8
0
 10
-16.4529
 20
-30.373
 11
-16.4882
 21
-30.188
  0
LINE
  8
0
 10
-16.4882
 20
-30.188
 11
-16.5
 21
-30
  0
LINE
  8
0
 10
-16.5
 20
-30
 11
-16.4882
 21
-29.812
  0
LINE
  8
0
 10
-16.4882
 20
-29.812
 11
-16.4529
 21
-29.627
  0
LINE
  8
0
 10
-16.4529
 20
-29.627
 11
-16.3947
 21
-29.4478
  0
LINE
  8
0
 10
-16.3947
 20
-29.4478
 11
-16.3145
 21
-29.2774
  0
LINE
  8
0
 10
-16.3145
 20
-29.2774
 11
-16.2135
 21
-29.1183
  0
LINE
  8
0
 10
-16.2135
 20
-29.1183
 11
-16.0934
 21
-28.9732
  0
LINE
  8
0
 10
-16.0934
 20
-28.9732
 11
-15.9561
 21
-28.8442
  0
LINE
  8
0
 10
-15.9561
 20
-28.8442
 11
-15.8037
 21
-28.7335
  0
LINE
  8
0
 10
-15.8037
 20
-28.7335
 11
-15.6387
 21
-28.6427
  0
LINE
  8
0
 10
-15.6387
 20
-28.6427
 11
-15.4635
 21
-28.5734
  0
LINE
  8
0
 10
-15.4635
 20
-28.5734
 11
-15.2811
 21
-28.5266
  0
LINE
  8
0
 10
-15.2811
 20
-28.5266
 11
-15.0942
 21
-28.503
  0
LINE
  8
0
 10
-15.0942
 20
-28.503
 11
-14.9058
 21
-28.503
  0
LINE
  8
0
 10
-14.9058
 20
-28.503
 11
-14.7189
 21
-28.5266
  0
LINE
  8
0
 10
-14.7189
 20
-28.5266
 11
-14.5365
 21
-28.5734
  0
LINE
  8
0
 10
-14.5365
 20
-28.5734
 11
-14.3613
 21
-28.6427
  0
LINE
  8
0
 10
-14.3613
 20
-28.6427
 11
-14.1963
 21
-28.7335
  0
LINE
  8
0
 10
-14.1963
 20
-28.7335
 11
-14.0439
 21
-28.8442
  0
LINE
  8
0
 10
-14.0439
 20
-28.8442
 11
-13.9065
 21
-28.9732
  0
LINE
  8
0
 10
-13.9065
 20
-28.9732
 11
-13.7865
 21
-29.1183
  0
LINE
  8
0
 10
-13.7865
 20
-29.1183
 11
-13.6855
 21
-29.2774
  0
LINE
  8
0
 10
-13.6855
 20
-29.2774
 11
-13.6053
 21
-29.4478
  0
LINE
  8
0
 10
-13.6053
 20
-29.4478
 11
-13.5471
 21
-29.627
  0
LINE
  8
0
 10
-13.5471
 20
-29.627
 11
-13.5118
 21
-29.812
  0
LINE
  8
0
 10
-13.5118
 20
-29.812
 11
-13.5
 21
-30
  0
LINE
  8
0
 10
-13.5
 20
-30
 11
-13.5118
 21
-30.188
  0
LINE
  8
0
 10
-13.5118
 20
-30.188
 11
-13.5471
 21
-30.373
  0
LINE
  8
0
 10
-13.5471
 20
-30.373
 11
-13.6053
 21
-30.5522
  0
LINE
  8
0
 10
-13.6053
 20
-30.5522
 11
-13.6855
 21
-30.7226
  0
LINE
  8
0
 10
-13.6855
 20
-30.7226
 11
-13.7865
 21
-30.8817
  0
LINE
  8
0
 10
-13.7865
 20
-30.8817
 11
-13.9065
 21
-31.0268
  0
LINE
  8
0
 10
-13.9065
 20
-31.0268
 11
-14.0439
 21
-31.1558
  0
LINE
  8
0
 10
-14.0439
 20
-31.1558
 11
-14.1963
 21
-31.2665
  0
LINE
  8
0
 10
-14.1963
 20
-31.2665
 11
-14.3613
 21
-31.3572
  0
LINE
  8
0
 10
-14.3613
 20
-31.3572
 11
-14.5365
 21
-31.4266
  0
LINE
  8
0
 10
-14.5365
 20
-31.4266
 11
-14.7189
 21
-31.4734
  0
LINE
  8
0
 10
-14.7189
 20
-31.4734
 11
-14.9058
 21
-31.497
  0
LINE
  8
0
 10
-14.9058
 20
-31.497
 11
-15.0942
 21
-31.497
  0
LINE
  8
0
 10
14.9058
 20
-31.497
 11
14.7189
 21
-31.4734
  0
LINE
  8
0
 10
14.7189
 20
-31.4734
 11
14.5365
 21
-31.4266
  0
LINE
  8
0
 10
14.5365
 20
-31.4266
 11
14.3613
 21
-31.3572
  0
LINE
  8
0
 10
14.3613
 20
-31.3572
 11
14.1963
 21
-31.2665
  0
LINE
  8
0
 10
14.1963
 20
-31.2665
 11
14.0439
 21
-31.1558
  0
LINE
  8
0
 10
14.0439
 20
-31.1558
 11
13.9065
 21
-31.0268
  0
LINE
  8
0
 10
13.9065
 20
-31.0268
 11
13.7865
 21
-30.8817
  0
LINE
  8
0
 10
13.7865
 20
-30.8817
 11
13.6855
 21
-30.7226
  0
LINE
  8
0
 10
13.6855
 20
-30.7226
 11
13.6053
 21
-30.5522
  0
LINE
  8
0
 10
13.6053
 20
-30.5522
 11
13.5471
 21
-30.373
  0
LINE
  8
0
 10
13.5471
 20
-30.373
 11
13.5118
 21
-30.188
  0
LINE
  8
0
 10
13.5118
 20
-30.188
 11
13.5
 21
-30
  0
LINE
  8
0
 10
13.5
 20
-30
 11
13.5118
 21
-29.812
  0
LINE
  8
0
 10
13.5118
 20
-29.812
 11
13.5471
 21
-29.627
  0
LINE
  8
0
 10
13.5471
 20
-29.627
 11
13.6053
 21
-29.4478
  0
LINE
  8
0
 10
13.6053
 20
-29.4478
 11
13.6855
 21
-29.2774
  0
LINE
  8
0
 10
13.6855
 20
-29.2774
 11
13.7865
 21
-29.1183
  0
LINE
  8
0
 10
13.7865
 20
-29.1183
 11
13.9065
 21
-28.9732
  0
LINE
  8
0
 10
13.9065
 20
-28.9732
 11
14.0439
 21
-28.8442
  0
LINE
  8
0
 10
14.0439
 20
-28.8442
 11
14.1963
 21
-28.7335
  0
LINE
  8
0
 10
14.1963
 20
-28.7335
 11
14.3613
 21
-28.6427
  0
LINE
  8
0
 10
14.3613
 20
-28.6427
 11
14.5365
 21
-28.5734
  0
LINE
  8
0
 10
14.5365
 20
-28.5734
 11
14.7189
 21
-28.5266
  0
LINE
  8
0
 10
14.7189
 20
-28.5266
 11
14.9058
 21
-28.503
  0
LINE
  8
0
 10
14.9058
 20
-28.503
 11
15.0942
 21
-28.503
  0
LINE
  8
0
 10
15.0942
 20
-28.503
 11
15.2811
 21
-28.5266
  0
LINE
  8
0
 10
15.2811
 20
-28.5266
 11
15.4635
 21
-28.5734
  0
LINE
  8
0
 10
15.4635
 20
-28.5734
 11
15.6387
 21
-28.6427
  0
LINE
  8
0
 10
15.6387
 20
-28.6427
 11
15.8037
 21
-28.7335
  0
LINE
  8
0
 10
15.8037
 20
-28.7335
 11
15.9561
 21
-28.8442
  0
LINE
  8
0
 10
15.9561
 20
-28.8442
 11
16.0934
 21
-28.9732
  0
LINE
  8
0
 10
16.0934
 20
-28.9732
 11
16.2135
 21
-29.1183
  0
LINE
  8
0
 10
16.2135
 20
-29.1183
 11
16.3145
 21
-29.2774
  0
LINE
  8
0
 10
16.3145
 20
-29.2774
 11
16.3947
 21
-29.4478
  0
LINE
  8
0
 10
16.3947
 20
-29.4478
 11
16.4529
 21
-29.627
  0
LINE
  8
0
 10
16.4529
 20
-29.627
 11
16.4882
 21
-29.812
  0
LINE
  8
0
 10
16.4882
 20
-29.812
 11
16.5
 21
-30
  0
LINE
  8
0
 10
16.5
 20
-30
 11
16.4882
 21
-30.188
  0
LINE
  8
0
 10
16.4882
 20
-30.188
 11
16.4529
 21
-30.373
  0
LINE
  8
0
 10
16.4529
 20
-30.373
 11
16.3947
 21
-30.5522
  0
LINE
  8
0
 10
16.3947
 20
-30.5522
 11
16.3145
 21
-30.7226
  0
LINE
  8
0
 10
16.3145
 20
-30.7226
 11
16.2135
 21
-30.8817
  0
LINE
  8
0
 10
16.2135
 20
-30.8817
 11
16.0934
 21
-31.0268
  0
LINE
  8
0
 10
16.0934
 20
-31.0268
 11
15.9561
 21
-31.1558
  0
LINE
  8
0
 10
15.9561
 20
-31.1558
 11
15.8037
 21
-31.2665
  0
LINE
  8
0
 10
15.8037
 20
-31.2665
 11
15.6387
 21
-31.3572
  0
LINE
  8
0
 10
15.6387
 20
-31.3572
 11
15.4635
 21
-31.4266
  0
LINE
  8
0
 10
15.4635
 20
-31.4266
 11
15.2811
 21
-31.4734
  0
LINE
  8
0
 10
15.2811
 20
-31.4734
 11
15.0942
 21
-31.497
  0
LINE
  8
0
 10
15.0942
 20
-31.497
 11
14.9058
 21
-31.497
  0
LINE
  8
0
 10
-0.0941772
 20
-31.497
 11
-0.281067
 21
-31.4734
  0
LINE
  8
0
 10
-0.281067
 20
-31.4734
 11
-0.463516
 21
-31.4266
  0
LINE
  8
0
 10
-0.463516
 20
-31.4266
 11
-0.638657
 21
-31.3572
  0
LINE
  8
0
 10
-0.638657
 20
-31.3572
 11
-0.803726
 21
-31.2665
  0
LINE
  8
0
 10
-0.803726
 20
-31.2665
 11
-0.956131
 21
-31.1558
  0
LINE
  8
0
 10
-0.956131
 20
-31.1558
 11
-1.09344
 21
-31.0268
  0
LINE
  8
0
 10
-1.09344
 20
-31.0268
 11
-1.21352
 21
-30.8817
  0
LINE
  8
0
 10
-1.21352
 20
-30.8817
 11
-1.31445
 21
-30.7226
  0
LINE
  8
0
 10
-1.31445
 20
-30.7226
 11
-1.39465
 21
-30.5522
  0
LINE
  8
0
 10
-1.39465
 20
-30.5522
 11
-1.45287
 21
-30.373
  0
LINE
  8
0
 10
-1.45287
 20
-30.373
 11
-1.48816
 21
-30.188
  0
LINE
  8
0
 10
-1.48816
 20
-30.188
 11
-1.5
 21
-30
  0
LINE
  8
0
 10
-1.5
 20
-30
 11
-1.48816
 21
-29.812
  0
LINE
  8
0
 10
-1.48816
 20
-29.812
 11
-1.45287
 21
-29.627
  0
LINE
  8
0
 10
-1.45287
 20
-29.627
 11
-1.39465
 21
-29.4478
  0
LINE
  8
0
 10
-1.39465
 20
-29.4478
 11
-1.31445
 21
-29.2774
  0
LINE
  8
0
 10
-1.31445
 20
-29.2774
 11
-1.21352
 21
-29.1183
  0
LINE
  8
0
 10
-1.21352
 20
-29.1183
 11
-1.09344
 21
-28.9732
  0
LINE
  8
0
 10
-1.09344
 20
-28.9732
 11
-0.956131
 21
-28.8442
  0
LINE
  8
0
 10
-0.956131
 20
-28.8442
 11
-0.803726
 21
-28.7335
  0
LINE
  8
0
 10
-0.803726
 20
-28.7335
 11
-0.638657
 21
-28.6427
  0
LINE
  8
0
 10
-0.638657
 20
-28.6427
 11
-0.463516
 21
-28.5734
  0
LINE
  8
0
 10
-0.463516
 20
-28.5734
 11
-0.281067
 21
-28.5266
  0
LINE
  8
0
 10
-0.281067
 20
-28.5266
 11
-0.0941772
 21
-28.503
  0
LINE
  8
0
 10
-0.0941772
 20
-28.503
 11
0.0941772
 21
-28.503
  0
LINE
  8
0
 10
0.0941772
 20
-28.503
 11
0.281067
 21
-28.5266
  0
LINE
  8
0
 10
0.281067
 20
-28.5266
 11
0.463516
 21
-28.5734
  0
LINE
  8
0
 10
0.463516
 20
-28.5734
 11
0.638657
 21
-28.6427
  0
LINE
  8
0
 10
0.638657
 20
-28.6427
 11
0.803726
 21
-28.7335
  0
LINE
  8
0
 10
0.803726
 20
-28.7335
 11
0.956131
 21
-28.8442
  0
LINE
  8
0
 10
0.956131
 20
-28.8442
 11
1.09344
 21
-28.9732
  0
LINE
  8
0
 10
1.09344
 20
-28.9732
 11
1.21352
 21
-29.1183
  0
LINE
  8
0
 10
1.21352
 20
-29.1183
 11
1.31445
 21
-29.2774
  0
LINE
  8
0
 10
1.31445
 20
-29.2774
 11
1.39465
 21
-29.4478
  0
LINE
  8
0
 10
1.39465
 20
-29.4478
 11
1.45287
 21
-29.627
  0
LINE
  8
0
 10
1.45287
 20
-29.627
 11
1.48816
 21
-29.812
  0
LINE
  8
0
 10
1.48816
 20
-29.812
 11
1.5
 21
-30
  0
LINE
  8
0
 10
1.5
 20
-30
 11
1.48816
 21
-30.188
  0
LINE
  8
0
 10
1.48816
 20
-30.188
 11
1.45287
 21
-30.373
  0
LINE
  8
0
 10
1.45287
 20
-30.373
 11
1.39465
 21
-30.5522
  0
LINE
  8
0
 10
1.39465
 20
-30.5522
 11
1.31445
 21
-30.7226
  0
LINE
  8
0
 10
1.31445
 20
-30.7226
 11
1.21352
 21
-30.8817
  0
LINE
  8
0
 10
1.21352
 20
-30.8817
 11
1.09344
 21
-31.0268
  0
LINE
  8
0
 10
1.09344
 20
-31.0268
 11
0.956131
 21
-31.1558
  0
LINE
  8
0
 10
0.956131
 20
-31.1558
 11
0.803726
 21
-31.2665
  0
LINE
  8
0
 10
0.803726
 20
-31.2665
 11
0.638657
 21
-31.3572
  0
LINE
  8
0
 10
0.638657
 20
-31.3572
 11
0.463516
 21
-31.4266
  0
LINE
  8
0
 10
0.463516
 20
-31.4266
 11
0.281067
 21
-31.4734
  0
LINE
  8
0
 10
0.281067
 20
-31.4734
 11
0.0941772
 21
-31.497
  0
LINE
  8
0
 10
0.0941772
 20
-31.497
 11
-0.0941772
 21
-31.497
  0
ENDSEC
  0
SECTION
  2
OBJECTS
  0
DICTIONARY
  0
ENDSEC
  0
EOF
