<?xml version="1.0" standalone="no"?>
<!DOCTYPE svg PUBLIC "-//W3C//DTD SVG 1.1//EN" "http://www.w3.org/Graphics/SVG/1.1/DTD/svg11.dtd">
<svg width="374mm" height="134mm" viewBox="-187 -67 374 134" xmlns="http://www.w3.org/2000/svg" version="1.1">
<title>OpenSCAD Model</title>
<path d="
M 182.937,66.9114 L 183.545,66.7553 L 184.129,66.5241 L 184.679,66.2216 L 185.187,65.8526 L 185.645,65.4227
 L 186.045,64.9389 L 186.382,64.4088 L 186.649,63.8406 L 186.843,63.2434 L 186.961,62.6267 L 187,62
 L 187,-62 L 186.961,-62.6267 L 186.843,-63.2434 L 186.649,-63.8406 L 186.382,-64.4088 L 186.045,-64.9389
 L 185.645,-65.4227 L 185.187,-65.8526 L 184.679,-66.2216 L 184.129,-66.5241 L 183.545,-66.7553 L 182.937,-66.9114
 L 182.314,-66.9901 L -182.314,-66.9901 L -182.937,-66.9114 L -183.545,-66.7553 L -184.129,-66.5241 L -184.679,-66.2216
 L -185.187,-65.8526 L -185.645,-65.4227 L -186.045,-64.9389 L -186.382,-64.4088 L -186.649,-63.8406 L -186.843,-63.2434
 L -186.961,-62.6267 L -187,-62 L -187,62 L -186.961,62.6267 L -186.843,63.2434 L -186.649,63.8406
 L -186.382,64.4088 L -186.045,64.9389 L -185.645,65.4227 L -185.187,65.8526 L -184.679,66.2216 L -184.129,66.5241
 L -183.545,66.7553 L -182.937,66.9114 L -182.314,66.9901 L 182.314,66.9901 z
M -180.188,-57.0059 L -180.562,-57.0531 L -180.927,-57.1468 L -181.277,-57.2855 L -181.607,-57.467 L -181.912,-57.6885
 L -182.187,-57.9464 L -182.427,-58.2366 L -182.629,-58.5547 L -182.789,-58.8956 L -182.906,-59.2539 L -182.976,-59.624
 L -183,-60 L -182.976,-60.376 L -182.906,-60.7461 L -182.789,-61.1044 L -182.629,-61.4453 L -182.427,-61.7634
 L -182.187,-62.0536 L -181.912,-62.3115 L -181.607,-62.533 L -181.277,-62.7145 L -180.927,-62.8532 L -180.562,-62.9469
 L -180.188,-62.9941 L -179.812,-62.9941 L -179.438,-62.9469 L -179.073,-62.8532 L -178.723,-62.7145 L -178.393,-62.533
 L -178.088,-62.3115 L -177.813,-62.0536 L -177.573,-61.7634 L -177.371,-61.4453 L -177.211,-61.1044 L -177.094,-60.7461
 L -177.024,-60.376 L -177,-60 L -177.024,-59.624 L -177.094,-59.2539 L -177.211,-58.8956 L -177.371,-58.5547
 L -177.573,-58.2366 L -177.813,-57.9464 L -178.088,-57.6885 L -178.393,-57.467 L -178.723,-57.2855 L -179.073,-57.1468
 L -179.438,-57.0531 L -179.812,-57.0059 z
M 179.812,-57.0059 L 179.438,-57.0531 L 179.073,-57.1468 L 178.723,-57.2855 L 178.393,-57.467 L 178.088,-57.6885
 L 177.813,-57.9464 L 177.573,-58.2366 L 177.371,-58.5547 L 177.211,-58.8956 L 177.094,-59.2539 L 177.024,-59.624
 L 177,-60 L 177.024,-60.376 L 177.094,-60.7461 L 177.211,-61.1044 L 177.371,-61.4453 L 177.573,-61.7634
 L 177.813,-62.0536 L 178.088,-62.3115 L 178.393,-62.533 L 178.723,-62.7145 L 179.073,-62.8532 L 179.438,-62.9469
 L 179.812,-62.9941 L 180.188,-62.9941 L 180.562,-62.9469 L 180.927,-62.8532 L 181.277,-62.7145 L 181.607,-62.533
 L 181.912,-62.3115 L 182.187,-62.0536 L 182.427,-61.7634 L 182.629,-61.4453 L 182.789,-61.1044 L 182.906,-60.7461
 L 182.976,-60.376 L 183,-60 L 182.976,-59.624 L 182.906,-59.2539 L 182.789,-58.8956 L 182.629,-58.5547
 L 182.427,-58.2366 L 182.187,-57.9464 L 181.912,-57.6885 L 181.607,-57.467 L 181.277,-57.2855 L 180.927,-57.1468
 L 180.562,-57.0531 L 180.188,-57.0059 z
M 116.39,57.3865 L 109.226,56.4815 L 102.232,54.6857 L 95.5177,52.0276 L 89.19,48.5488 L 83.3481,44.3045
 L 78.0843,39.3615 L 73.4815,33.7977 L 69.6124,27.7008 L 66.5378,21.1672 L 64.3065,14.2997 L 62.9534,7.20665
 L 62.5,-0 L 62.9534,-7.20665 L 64.3065,-14.2997 L 66.5378,-21.1672 L 69.6124,-27.7008 L 73.4815,-33.7977
 L 78.0843,-39.3615 L 83.3481,-44.3045 L 89.19,-48.5488 L 95.5177,-52.0276 L 102.232,-54.6857 L 109.226,-56.4815
 L 116.39,-57.3865 L 123.61,-57.3865 L 130.774,-56.4815 L 137.768,-54.6857 L 144.482,-52.0276 L 150.81,-48.5488
 L 156.652,-44.3045 L 161.916,-39.3615 L 166.518,-33.7977 L 170.388,-27.7008 L 173.462,-21.1672 L 175.694,-14.2997
 L 177.047,-7.20665 L 177.5,-0 L 177.047,7.20665 L 175.694,14.2997 L 173.462,21.1672 L 170.388,27.7008
 L 166.518,33.7977 L 161.916,39.3615 L 156.652,44.3045 L 150.81,48.5488 L 144.482,52.0276 L 137.768,54.6857
 L 130.774,56.4815 L 123.61,57.3865 z
M -3.61044,57.3865 L -10.7744,56.4815 L -17.7685,54.6857 L -24.4823,52.0276 L -30.81,48.5488 L -36.6519,44.3045
 L -41.9157,39.3615 L -46.5185,33.7977 L -50.3876,27.7008 L -53.4621,21.1672 L -55.6935,14.2997 L -57.0466,7.20665
 L -57.5,-0 L -57.0466,-7.20665 L -55.6935,-14.2997 L -53.4621,-21.1672 L -50.3876,-27.7008 L -46.5185,-33.7977
 L -41.9157,-39.3615 L -36.6519,-44.3045 L -30.81,-48.5488 L -24.4823,-52.0276 L -17.7685,-54.6857 L -10.7744,-56.4815
 L -3.61044,-57.3865 L 3.61044,-57.3865 L 10.7744,-56.4815 L 17.7685,-54.6857 L 24.4823,-52.0276 L 30.81,-48.5488
 L 36.6519,-44.3045 L 41.9157,-39.3615 L 46.5185,-33.7977 L 50.3876,-27.7008 L 53.4621,-21.1672 L 55.6935,-14.2997
 L 57.0466,-7.20665 L 57.5,-0 L 57.0466,7.20665 L 55.6935,14.2997 L 53.4621,21.1672 L 50.3876,27.7008
 L 46.5185,33.7977 L 41.9157,39.3615 L 36.6519,44.3045 L 30.81,48.5488 L 24.4823,52.0276 L 17.7685,54.6857
 L 10.7744,56.4815 L 3.61044,57.3865 z
M -123.61,57.3865 L -130.774,56.4815 L -137.768,54.6857 L -144.482,52.0276 L -150.81,48.5488 L -156.652,44.3045
 L -161.916,39.3615 L -166.518,33.7977 L -170.388,27.7008 L -173.462,21.1672 L -175.694,14.2997 L -177.047,7.20665
 L -177.5,-0 L -177.047,-7.20665 L -175.694,-14.2997 L -173.462,-21.1672 L -170.388,-27.7008 L -166.518,-33.7977
 L -161.916,-39.3615 L -156.652,-44.3045 L -150.81,-48.5488 L -144.482,-52.0276 L -137.768,-54.6857 L -130.774,-56.4815
 L -123.61,-57.3865 L -116.39,-57.3865 L -109.226,-56.4815 L -102.232,-54.6857 L -95.5177,-52.0276 L -89.19,-48.5488
 L -83.3481,-44.3045 L -78.0843,-39.3615 L -73.4815,-33.7977 L -69.6124,-27.7008 L -66.5378,-21.1672 L -64.3065,-14.2997
 L -62.9534,-7.20665 L -62.5,-0 L -62.9534,7.20665 L -64.3065,14.2997 L -66.5378,21.1672 L -69.6124,27.7008
 L -73.4815,33.7977 L -78.0843,39.3615 L -83.3481,44.3045 L -89.19,48.5488 L -95.5177,52.0276 L -102.232,54.6857
 L -109.226,56.4815 L -116.39,57.3865 z
M 179.812,62.9941 L 179.438,62.9469 L 179.073,62.8532 L 178.723,62.7145 L 178.393,62.533 L 178.088,62.3115
 L 177.813,62.0536 L 177.573,61.7634 L 177.371,61.4453 L 177.211,61.1044 L 177.094,60.7461 L 177.024,60.376
 L 177,60 L 177.024,59.624 L 177.094,59.2539 L 177.211,58.8956 L 177.371,58.5547 L 177.573,58.2366
 L 177.813,57.9464 L 178.088,57.6885 L 178.393,57.467 L 178.723,57.2855 L 179.073,57.1468 L 179.438,57.0531
 L 179.812,57.0059 L 180.188,57.0059 L 180.562,57.0531 L 180.927,57.1468 L 181.277,57.2855 L 181.607,57.467
 L 181.912,57.6885 L 182.187,57.9464 L 182.427,58.2366 L 182.629,58.5547 L 182.789,58.8956 L 182.906,59.2539
 L 182.976,59.624 L 183,60 L 182.976,60.376 L 182.906,60.7461 L 182.789,61.1044 L 182.629,61.4453
 L 182.427,61.7634 L 182.187,62.0536 L 181.912,62.3115 L 181.607,62.533 L 181.277,62.7145 L 180.927,62.8532
 L 180.562,62.9469 L 180.188,62.9941 z
M -180.188,62.9941 L -180.562,62.9469 L -180.927,62.8532 L -181.277,62.7145 L -181.607,62.533 L -181.912,62.3115
 L -182.187,62.0536 L -182.427,61.7634 L -182.629,61.4453 L -182.789,61.1044 L -182.906,60.7461 L -182.976,60.376
 L -183,60 L -182.976,59.624 L -182.906,59.2539 L -182.789,58.8956 L -182.629,58.5547 L -182.427,58.2366
 L -182.187,57.9464 L -181.912,57.6885 L -181.607,57.467 L -181.277,57.2855 L -180.927,57.1468 L -180.562,57.0531
 L -180.188,57.0059 L -179.812,57.0059 L -179.438,57.0531 L -179.073,57.1468 L -178.723,57.2855 L -178.393,57.467
 L -178.088,57.6885 L -177.813,57.9464 L -177.573,58.2366 L -177.371,58.5547 L -177.211,58.8956 L -177.094,59.2539
 L -177.024,59.624 L -177,60 L -177.024,60.376 L -177.094,60.7461 L -177.211,61.1044 L -177.371,61.4453
 L -177.573,61.7634 L -177.813,62.0536 L -178.088,62.3115 L -178.393,62.533 L -178.723,62.7145 L -179.073,62.8532
 L -179.438,62.9469 L -179.812,62.9941 z
" stroke="black" fill="lightgray" stroke-width="0.5"/>
</svg>
