<?xml version="1.0" standalone="no"?>
<!DOCTYPE svg PUBLIC "-//W3C//DTD SVG 1.1//EN" "http://www.w3.org/Graphics/SVG/1.1/DTD/svg11.dtd">
<svg width="74mm" height="14mm" viewBox="-37 -31 74 14" xmlns="http://www.w3.org/2000/svg" version="1.1">
<title>OpenSCAD Model</title>
<path d="
M 32.9369,-17.0886 L 33.5451,-17.2447 L 34.1289,-17.4759 L 34.6791,-17.7784 L 35.1871,-18.1474 L 35.6448,-18.5773
 L 36.0451,-19.0611 L 36.3815,-19.5912 L 36.6489,-20.1594 L 36.8429,-20.7566 L 36.9606,-21.3733 L 37,-22
 L 37,-26 L 36.9606,-26.6267 L 36.8429,-27.2434 L 36.6489,-27.8406 L 36.3815,-28.4088 L 36.0451,-28.9389
 L 35.6448,-29.4227 L 35.1871,-29.8526 L 34.6791,-30.2216 L 34.1289,-30.5241 L 33.5451,-30.7553 L 32.9369,-30.9114
 L 32.3139,-30.9901 L -32.3139,-30.9901 L -32.9369,-30.9114 L -33.5451,-30.7553 L -34.1289,-30.5241 L -34.6791,-30.2216
 L -35.1871,-29.8526 L -35.6448,-29.4227 L -36.0451,-28.9389 L -36.3815,-28.4088 L -36.6489,-27.8406 L -36.8429,-27.2434
 L -36.9606,-26.6267 L -37,-26 L -37,-22 L -36.9606,-21.3733 L -36.8429,-20.7566 L -36.6489,-20.1594
 L -36.3815,-19.5912 L -36.0451,-19.0611 L -35.6448,-18.5773 L -35.1871,-18.1474 L -34.6791,-17.7784 L -34.1289,-17.4759
 L -33.5451,-17.2447 L -32.9369,-17.0886 L -32.3139,-17.0099 L 32.3139,-17.0099 z
M 10.8116,-21.0059 L 10.4379,-21.0531 L 10.0729,-21.1468 L 9.72266,-21.2855 L 9.39252,-21.467 L 9.08772,-21.6885
 L 8.81308,-21.9464 L 8.57294,-22.2366 L 8.37108,-22.5547 L 8.21066,-22.8956 L 8.09424,-23.2539 L 8.02365,-23.624
 L 8,-24 L 8.02365,-24.376 L 8.09424,-24.7461 L 8.21066,-25.1044 L 8.37108,-25.4453 L 8.57294,-25.7634
 L 8.81308,-26.0536 L 9.08772,-26.3115 L 9.39252,-26.533 L 9.72266,-26.7145 L 10.0729,-26.8532 L 10.4379,-26.9469
 L 10.8116,-26.9941 L 11.1884,-26.9941 L 11.5621,-26.9469 L 11.927,-26.8532 L 12.2773,-26.7145 L 12.6075,-26.533
 L 12.9123,-26.3115 L 13.1869,-26.0536 L 13.427,-25.7634 L 13.6289,-25.4453 L 13.7893,-25.1044 L 13.9057,-24.7461
 L 13.9763,-24.376 L 14,-24 L 13.9763,-23.624 L 13.9057,-23.2539 L 13.7893,-22.8956 L 13.6289,-22.5547
 L 13.427,-22.2366 L 13.1869,-21.9464 L 12.9123,-21.6885 L 12.6075,-21.467 L 12.2773,-21.2855 L 11.927,-21.1468
 L 11.5621,-21.0531 L 11.1884,-21.0059 z
M -11.1884,-21.0059 L -11.5621,-21.0531 L -11.927,-21.1468 L -12.2773,-21.2855 L -12.6075,-21.467 L -12.9123,-21.6885
 L -13.1869,-21.9464 L -13.427,-22.2366 L -13.6289,-22.5547 L -13.7893,-22.8956 L -13.9057,-23.2539 L -13.9763,-23.624
 L -14,-24 L -13.9763,-24.376 L -13.9057,-24.7461 L -13.7893,-25.1044 L -13.6289,-25.4453 L -13.427,-25.7634
 L -13.1869,-26.0536 L -12.9123,-26.3115 L -12.6075,-26.533 L -12.2773,-26.7145 L -11.927,-26.8532 L -11.5621,-26.9469
 L -11.1884,-26.9941 L -10.8116,-26.9941 L -10.4379,-26.9469 L -10.0729,-26.8532 L -9.72266,-26.7145 L -9.39252,-26.533
 L -9.08772,-26.3115 L -8.81308,-26.0536 L -8.57294,-25.7634 L -8.37108,-25.4453 L -8.21066,-25.1044 L -8.09424,-24.7461
 L -8.02365,-24.376 L -8,-24 L -8.02365,-23.624 L -8.09424,-23.2539 L -8.21066,-22.8956 L -8.37108,-22.5547
 L -8.57294,-22.2366 L -8.81308,-21.9464 L -9.08772,-21.6885 L -9.39252,-21.467 L -9.72266,-21.2855 L -10.0729,-21.1468
 L -10.4379,-21.0531 L -10.8116,-21.0059 z
M -0.18837,-21.0059 L -0.562134,-21.0531 L -0.927048,-21.1468 L -1.27733,-21.2855 L -1.60747,-21.467 L -1.91226,-21.6885
 L -2.1869,-21.9464 L -2.42705,-22.2366 L -2.62891,-22.5547 L -2.78932,-22.8956 L -2.90575,-23.2539 L -2.97633,-23.624
 L -3,-24 L -2.97633,-24.376 L -2.90575,-24.7461 L -2.78932,-25.1044 L -2.62891,-25.4453 L -2.42705,-25.7634
 L -2.1869,-26.0536 L -1.91226,-26.3115 L -1.60747,-26.533 L -1.27733,-26.7145 L -0.927048,-26.8532 L -0.562134,-26.9469
 L -0.18837,-26.9941 L 0.18837,-26.9941 L 0.562134,-26.9469 L 0.927048,-26.8532 L 1.27733,-26.7145 L 1.60747,-26.533
 L 1.91226,-26.3115 L 2.1869,-26.0536 L 2.42705,-25.7634 L 2.62891,-25.4453 L 2.78932,-25.1044 L 2.90575,-24.7461
 L 2.97633,-24.376 L 3,-24 L 2.97633,-23.624 L 2.90575,-23.2539 L 2.78932,-22.8956 L 2.62891,-22.5547
 L 2.42705,-22.2366 L 2.1869,-21.9464 L 1.91226,-21.6885 L 1.60747,-21.467 L 1.27733,-21.2855 L 0.927048,-21.1468
 L 0.562134,-21.0531 L 0.18837,-21.0059 z
M 21.8116,-21.0059 L 21.4379,-21.0531 L 21.0729,-21.1468 L 20.7227,-21.2855 L 20.3925,-21.467 L 20.0877,-21.6885
 L 19.8131,-21.9464 L 19.5729,-22.2366 L 19.3711,-22.5547 L 19.2107,-22.8956 L 19.0942,-23.2539 L 19.0237,-23.624
 L 19,-24 L 19.0237,-24.376 L 19.0942,-24.7461 L 19.2107,-25.1044 L 19.3711,-25.4453 L 19.5729,-25.7634
 L 19.8131,-26.0536 L 20.0877,-26.3115 L 20.3925,-26.533 L 20.7227,-26.7145 L 21.0729,-26.8532 L 21.4379,-26.9469
 L 21.8116,-26.9941 L 22.1884,-26.9941 L 22.5621,-26.9469 L 22.927,-26.8532 L 23.2773,-26.7145 L 23.6075,-26.533
 L 23.9123,-26.3115 L 24.1869,-26.0536 L 24.427,-25.7634 L 24.6289,-25.4453 L 24.7893,-25.1044 L 24.9057,-24.7461
 L 24.9763,-24.376 L 25,-24 L 24.9763,-23.624 L 24.9057,-23.2539 L 24.7893,-22.8956 L 24.6289,-22.5547
 L 24.427,-22.2366 L 24.1869,-21.9464 L 23.9123,-21.6885 L 23.6075,-21.467 L 23.2773,-21.2855 L 22.927,-21.1468
 L 22.5621,-21.0531 L 22.1884,-21.0059 z
M -30.1884,-21.0059 L -30.5621,-21.0531 L -30.927,-21.1468 L -31.2773,-21.2855 L -31.6075,-21.467 L -31.9123,-21.6885
 L -32.1869,-21.9464 L -32.427,-22.2366 L -32.6289,-22.5547 L -32.7893,-22.8956 L -32.9057,-23.2539 L -32.9763,-23.624
 L -33,-24 L -32.9763,-24.376 L -32.9057,-24.7461 L -32.7893,-25.1044 L -32.6289,-25.4453 L -32.427,-25.7634
 L -32.1869,-26.0536 L -31.9123,-26.3115 L -31.6075,-26.533 L -31.2773,-26.7145 L -30.927,-26.8532 L -30.5621,-26.9469
 L -30.1884,-26.9941 L -29.8116,-26.9941 L -29.4379,-26.9469 L -29.0729,-26.8532 L -28.7227,-26.7145 L -28.3925,-26.533
 L -28.0877,-26.3115 L -27.8131,-26.0536 L -27.5729,-25.7634 L -27.3711,-25.4453 L -27.2107,-25.1044 L -27.0942,-24.7461
 L -27.0237,-24.376 L -27,-24 L -27.0237,-23.624 L -27.0942,-23.2539 L -27.2107,-22.8956 L -27.3711,-22.5547
 L -27.5729,-22.2366 L -27.8131,-21.9464 L -28.0877,-21.6885 L -28.3925,-21.467 L -28.7227,-21.2855 L -29.0729,-21.1468
 L -29.4379,-21.0531 L -29.8116,-21.0059 z
M 29.8116,-21.0059 L 29.4379,-21.0531 L 29.0729,-21.1468 L 28.7227,-21.2855 L 28.3925,-21.467 L 28.0877,-21.6885
 L 27.8131,-21.9464 L 27.5729,-22.2366 L 27.3711,-22.5547 L 27.2107,-22.8956 L 27.0942,-23.2539 L 27.0237,-23.624
 L 27,-24 L 27.0237,-24.376 L 27.0942,-24.7461 L 27.2107,-25.1044 L 27.3711,-25.4453 L 27.5729,-25.7634
 L 27.8131,-26.0536 L 28.0877,-26.3115 L 28.3925,-26.533 L 28.7227,-26.7145 L 29.0729,-26.8532 L 29.4379,-26.9469
 L 29.8116,-26.9941 L 30.1884,-26.9941 L 30.5621,-26.9469 L 30.927,-26.8532 L 31.2773,-26.7145 L 31.6075,-26.533
 L 31.9123,-26.3115 L 32.1869,-26.0536 L 32.427,-25.7634 L 32.6289,-25.4453 L 32.7893,-25.1044 L 32.9057,-24.7461
 L 32.9763,-24.376 L 33,-24 L 32.9763,-23.624 L 32.9057,-23.2539 L 32.7893,-22.8956 L 32.6289,-22.5547
 L 32.427,-22.2366 L 32.1869,-21.9464 L 31.9123,-21.6885 L 31.6075,-21.467 L 31.2773,-21.2855 L 30.927,-21.1468
 L 30.5621,-21.0531 L 30.1884,-21.0059 z
M -22.1884,-21.0059 L -22.5621,-21.0531 L -22.927,-21.1468 L -23.2773,-21.2855 L -23.6075,-21.467 L -23.9123,-21.6885
 L -24.1869,-21.9464 L -24.427,-22.2366 L -24.6289,-22.5547 L -24.7893,-22.8956 L -24.9057,-23.2539 L -24.9763,-23.624
 L -25,-24 L -24.9763,-24.376 L -24.9057,-24.7461 L -24.7893,-25.1044 L -24.6289,-25.4453 L -24.427,-25.7634
 L -24.1869,-26.0536 L -23.9123,-26.3115 L -23.6075,-26.533 L -23.2773,-26.7145 L -22.927,-26.8532 L -22.5621,-26.9469
 L -22.1884,-26.9941 L -21.8116,-26.9941 L -21.4379,-26.9469 L -21.0729,-26.8532 L -20.7227,-26.7145 L -20.3925,-26.533
 L -20.0877,-26.3115 L -19.8131,-26.0536 L -19.5729,-25.7634 L -19.3711,-25.4453 L -19.2107,-25.1044 L -19.0942,-24.7461
 L -19.0237,-24.376 L -19,-24 L -19.0237,-23.624 L -19.0942,-23.2539 L -19.2107,-22.8956 L -19.3711,-22.5547
 L -19.5729,-22.2366 L -19.8131,-21.9464 L -20.0877,-21.6885 L -20.3925,-21.467 L -20.7227,-21.2855 L -21.0729,-21.1468
 L -21.4379,-21.0531 L -21.8116,-21.0059 z
" stroke="black" fill="lightgray" stroke-width="0.5"/>
</svg>
