<?xml version="1.0" standalone="no"?>
<!DOCTYPE svg PUBLIC "-//W3C//DTD SVG 1.1//EN" "http://www.w3.org/Graphics/SVG/1.1/DTD/svg11.dtd">
<svg width="164mm" height="44mm" viewBox="-82 -22 164 44" xmlns="http://www.w3.org/2000/svg" version="1.1">
<title>OpenSCAD Model</title>
<path d="
M 77.9369,21.9114 L 78.5451,21.7553 L 79.1289,21.5241 L 79.6791,21.2216 L 80.1871,20.8526 L 80.6448,20.4227
 L 81.0451,19.9389 L 81.3815,19.4088 L 81.6489,18.8406 L 81.8429,18.2434 L 81.9606,17.6267 L 82,17
 L 82,-17 L 81.9606,-17.6267 L 81.8429,-18.2434 L 81.6489,-18.8406 L 81.3815,-19.4088 L 81.0451,-19.9389
 L 80.6448,-20.4227 L 80.1871,-20.8526 L 79.6791,-21.2216 L 79.1289,-21.5241 L 78.5451,-21.7553 L 77.9369,-21.9114
 L 77.3139,-21.9901 L -77.3139,-21.9901 L -77.9369,-21.9114 L -78.5451,-21.7553 L -79.1289,-21.5241 L -79.6791,-21.2216
 L -80.1871,-20.8526 L -80.6448,-20.4227 L -81.0451,-19.9389 L -81.3815,-19.4088 L -81.6489,-18.8406 L -81.8429,-18.2434
 L -81.9606,-17.6267 L -82,-17 L -82,17 L -81.9606,17.6267 L -81.8429,18.2434 L -81.6489,18.8406
 L -81.3815,19.4088 L -81.0451,19.9389 L -80.6448,20.4227 L -80.1871,20.8526 L -79.6791,21.2216 L -79.1289,21.5241
 L -78.5451,21.7553 L -77.9369,21.9114 L -77.3139,21.9901 L 77.3139,21.9901 z
M -75.1884,-12.0059 L -75.5621,-12.0531 L -75.927,-12.1468 L -76.2773,-12.2855 L -76.6075,-12.467 L -76.9123,-12.6884
 L -77.1869,-12.9464 L -77.427,-13.2366 L -77.6289,-13.5547 L -77.7893,-13.8956 L -77.9057,-14.2539 L -77.9763,-14.624
 L -78,-15 L -77.9763,-15.376 L -77.9057,-15.7461 L -77.7893,-16.1044 L -77.6289,-16.4453 L -77.427,-16.7634
 L -77.1869,-17.0536 L -76.9123,-17.3115 L -76.6075,-17.533 L -76.2773,-17.7145 L -75.927,-17.8532 L -75.5621,-17.9469
 L -75.1884,-17.9941 L -74.8116,-17.9941 L -74.4379,-17.9469 L -74.073,-17.8532 L -73.7227,-17.7145 L -73.3925,-17.533
 L -73.0877,-17.3115 L -72.8131,-17.0536 L -72.573,-16.7634 L -72.3711,-16.4453 L -72.2107,-16.1044 L -72.0943,-15.7461
 L -72.0237,-15.376 L -72,-15 L -72.0237,-14.624 L -72.0943,-14.2539 L -72.2107,-13.8956 L -72.3711,-13.5547
 L -72.573,-13.2366 L -72.8131,-12.9464 L -73.0877,-12.6884 L -73.3925,-12.467 L -73.7227,-12.2855 L -74.073,-12.1468
 L -74.4379,-12.0531 L -74.8116,-12.0059 z
M 74.8116,-12.0059 L 74.4379,-12.0531 L 74.073,-12.1468 L 73.7227,-12.2855 L 73.3925,-12.467 L 73.0877,-12.6884
 L 72.8131,-12.9464 L 72.573,-13.2366 L 72.3711,-13.5547 L 72.2107,-13.8956 L 72.0943,-14.2539 L 72.0237,-14.624
 L 72,-15 L 72.0237,-15.376 L 72.0943,-15.7461 L 72.2107,-16.1044 L 72.3711,-16.4453 L 72.573,-16.7634
 L 72.8131,-17.0536 L 73.0877,-17.3115 L 73.3925,-17.533 L 73.7227,-17.7145 L 74.073,-17.8532 L 74.4379,-17.9469
 L 74.8116,-17.9941 L 75.1884,-17.9941 L 75.5621,-17.9469 L 75.927,-17.8532 L 76.2773,-17.7145 L 76.6075,-17.533
 L 76.9123,-17.3115 L 77.1869,-17.0536 L 77.427,-16.7634 L 77.6289,-16.4453 L 77.7893,-16.1044 L 77.9057,-15.7461
 L 77.9763,-15.376 L 78,-15 L 77.9763,-14.624 L 77.9057,-14.2539 L 77.7893,-13.8956 L 77.6289,-13.5547
 L 77.427,-13.2366 L 77.1869,-12.9464 L 76.9123,-12.6884 L 76.6075,-12.467 L 76.2773,-12.2855 L 75.927,-12.1468
 L 75.5621,-12.0531 L 75.1884,-12.0059 z
M 31.1523,13.4734 L 29.4704,13.2609 L 27.8283,12.8392 L 26.252,12.2152 L 24.7663,11.3984 L 23.3948,10.4019
 L 22.1589,9.24138 L 21.0783,7.93509 L 20.1698,6.50366 L 19.448,4.96968 L 18.9241,3.3573 L 18.6064,1.69199
 L 18.5,-0 L 18.6064,-1.69199 L 18.9241,-3.3573 L 19.448,-4.96968 L 20.1698,-6.50366 L 21.0783,-7.93509
 L 22.1589,-9.24138 L 23.3948,-10.4019 L 24.7663,-11.3984 L 26.252,-12.2152 L 27.8283,-12.8392 L 29.4704,-13.2609
 L 31.1523,-13.4734 L 32.8477,-13.4734 L 34.5296,-13.2609 L 36.1717,-12.8392 L 37.748,-12.2152 L 39.2337,-11.3984
 L 40.6052,-10.4019 L 41.8411,-9.24138 L 42.9217,-7.93509 L 43.8301,-6.50366 L 44.552,-4.96968 L 45.0759,-3.3573
 L 45.3935,-1.69199 L 45.5,-0 L 45.3935,1.69199 L 45.0759,3.3573 L 44.552,4.96968 L 43.8301,6.50366
 L 42.9217,7.93509 L 41.8411,9.24138 L 40.6052,10.4019 L 39.2337,11.3984 L 37.748,12.2152 L 36.1717,12.8392
 L 34.5296,13.2609 L 32.8477,13.4734 z
M 63.1523,13.4734 L 61.4704,13.2609 L 59.8283,12.8392 L 58.252,12.2152 L 56.7663,11.3984 L 55.3948,10.4019
 L 54.1589,9.24138 L 53.0783,7.93509 L 52.1699,6.50366 L 51.448,4.96968 L 50.9241,3.3573 L 50.6064,1.69199
 L 50.5,-0 L 50.6064,-1.69199 L 50.9241,-3.3573 L 51.448,-4.96968 L 52.1699,-6.50366 L 53.0783,-7.93509
 L 54.1589,-9.24138 L 55.3948,-10.4019 L 56.7663,-11.3984 L 58.252,-12.2152 L 59.8283,-12.8392 L 61.4704,-13.2609
 L 63.1523,-13.4734 L 64.8477,-13.4734 L 66.5296,-13.2609 L 68.1717,-12.8392 L 69.748,-12.2152 L 71.2337,-11.3984
 L 72.6052,-10.4019 L 73.8411,-9.24138 L 74.9217,-7.93509 L 75.8301,-6.50366 L 76.552,-4.96968 L 77.0759,-3.3573
 L 77.3935,-1.69199 L 77.5,-0 L 77.3935,1.69199 L 77.0759,3.3573 L 76.552,4.96968 L 75.8301,6.50366
 L 74.9217,7.93509 L 73.8411,9.24138 L 72.6052,10.4019 L 71.2337,11.3984 L 69.748,12.2152 L 68.1717,12.8392
 L 66.5296,13.2609 L 64.8477,13.4734 z
M -32.8477,13.4734 L -34.5296,13.2609 L -36.1717,12.8392 L -37.748,12.2152 L -39.2337,11.3984 L -40.6052,10.4019
 L -41.8411,9.24138 L -42.9217,7.93509 L -43.8301,6.50366 L -44.552,4.96968 L -45.0759,3.3573 L -45.3935,1.69199
 L -45.5,-0 L -45.3935,-1.69199 L -45.0759,-3.3573 L -44.552,-4.96968 L -43.8301,-6.50366 L -42.9217,-7.93509
 L -41.8411,-9.24138 L -40.6052,-10.4019 L -39.2337,-11.3984 L -37.748,-12.2152 L -36.1717,-12.8392 L -34.5296,-13.2609
 L -32.8477,-13.4734 L -31.1523,-13.4734 L -29.4704,-13.2609 L -27.8283,-12.8392 L -26.252,-12.2152 L -24.7663,-11.3984
 L -23.3948,-10.4019 L -22.1589,-9.24138 L -21.0783,-7.93509 L -20.1698,-6.50366 L -19.448,-4.96968 L -18.9241,-3.3573
 L -18.6064,-1.69199 L -18.5,-0 L -18.6064,1.69199 L -18.9241,3.3573 L -19.448,4.96968 L -20.1698,6.50366
 L -21.0783,7.93509 L -22.1589,9.24138 L -23.3948,10.4019 L -24.7663,11.3984 L -26.252,12.2152 L -27.8283,12.8392
 L -29.4704,13.2609 L -31.1523,13.4734 z
M -64.8477,13.4734 L -66.5296,13.2609 L -68.1717,12.8392 L -69.748,12.2152 L -71.2337,11.3984 L -72.6052,10.4019
 L -73.8411,9.24138 L -74.9217,7.93509 L -75.8301,6.50366 L -76.552,4.96968 L -77.0759,3.3573 L -77.3935,1.69199
 L -77.5,-0 L -77.3935,-1.69199 L -77.0759,-3.3573 L -76.552,-4.96968 L -75.8301,-6.50366 L -74.9217,-7.93509
 L -73.8411,-9.24138 L -72.6052,-10.4019 L -71.2337,-11.3984 L -69.748,-12.2152 L -68.1717,-12.8392 L -66.5296,-13.2609
 L -64.8477,-13.4734 L -63.1523,-13.4734 L -61.4704,-13.2609 L -59.8283,-12.8392 L -58.252,-12.2152 L -56.7663,-11.3984
 L -55.3948,-10.4019 L -54.1589,-9.24138 L -53.0783,-7.93509 L -52.1699,-6.50366 L -51.448,-4.96968 L -50.9241,-3.3573
 L -50.6064,-1.69199 L -50.5,-0 L -50.6064,1.69199 L -50.9241,3.3573 L -51.448,4.96968 L -52.1699,6.50366
 L -53.0783,7.93509 L -54.1589,9.24138 L -55.3948,10.4019 L -56.7663,11.3984 L -58.252,12.2152 L -59.8283,12.8392
 L -61.4704,13.2609 L -63.1523,13.4734 z
M -0.847672,13.4734 L -2.52963,13.2609 L -4.17172,12.8392 L -5.74802,12.2152 L -7.23366,11.3984 L -8.60521,10.4019
 L -9.84106,9.24138 L -10.9217,7.93509 L -11.8301,6.50366 L -12.552,4.96968 L -13.0759,3.3573 L -13.3935,1.69199
 L -13.5,-0 L -13.3935,-1.69199 L -13.0759,-3.3573 L -12.552,-4.96968 L -11.8301,-6.50366 L -10.9217,-7.93509
 L -9.84106,-9.24138 L -8.60521,-10.4019 L -7.23366,-11.3984 L -5.74802,-12.2152 L -4.17172,-12.8392 L -2.52963,-13.2609
 L -0.847672,-13.4734 L 0.847672,-13.4734 L 2.52963,-13.2609 L 4.17172,-12.8392 L 5.74802,-12.2152 L 7.23366,-11.3984
 L 8.60521,-10.4019 L 9.84106,-9.24138 L 10.9217,-7.93509 L 11.8301,-6.50366 L 12.552,-4.96968 L 13.0759,-3.3573
 L 13.3935,-1.69199 L 13.5,-0 L 13.3935,1.69199 L 13.0759,3.3573 L 12.552,4.96968 L 11.8301,6.50366
 L 10.9217,7.93509 L 9.84106,9.24138 L 8.60521,10.4019 L 7.23366,11.3984 L 5.74802,12.2152 L 4.17172,12.8392
 L 2.52963,13.2609 L 0.847672,13.4734 z
M 74.8116,17.9941 L 74.4379,17.9469 L 74.073,17.8532 L 73.7227,17.7145 L 73.3925,17.533 L 73.0877,17.3115
 L 72.8131,17.0536 L 72.573,16.7634 L 72.3711,16.4453 L 72.2107,16.1044 L 72.0943,15.7461 L 72.0237,15.376
 L 72,15 L 72.0237,14.624 L 72.0943,14.2539 L 72.2107,13.8956 L 72.3711,13.5547 L 72.573,13.2366
 L 72.8131,12.9464 L 73.0877,12.6884 L 73.3925,12.467 L 73.7227,12.2855 L 74.073,12.1468 L 74.4379,12.0531
 L 74.8116,12.0059 L 75.1884,12.0059 L 75.5621,12.0531 L 75.927,12.1468 L 76.2773,12.2855 L 76.6075,12.467
 L 76.9123,12.6884 L 77.1869,12.9464 L 77.427,13.2366 L 77.6289,13.5547 L 77.7893,13.8956 L 77.9057,14.2539
 L 77.9763,14.624 L 78,15 L 77.9763,15.376 L 77.9057,15.7461 L 77.7893,16.1044 L 77.6289,16.4453
 L 77.427,16.7634 L 77.1869,17.0536 L 76.9123,17.3115 L 76.6075,17.533 L 76.2773,17.7145 L 75.927,17.8532
 L 75.5621,17.9469 L 75.1884,17.9941 z
M -75.1884,17.9941 L -75.5621,17.9469 L -75.927,17.8532 L -76.2773,17.7145 L -76.6075,17.533 L -76.9123,17.3115
 L -77.1869,17.0536 L -77.427,16.7634 L -77.6289,16.4453 L -77.7893,16.1044 L -77.9057,15.7461 L -77.9763,15.376
 L -78,15 L -77.9763,14.624 L -77.9057,14.2539 L -77.7893,13.8956 L -77.6289,13.5547 L -77.427,13.2366
 L -77.1869,12.9464 L -76.9123,12.6884 L -76.6075,12.467 L -76.2773,12.2855 L -75.927,12.1468 L -75.5621,12.0531
 L -75.1884,12.0059 L -74.8116,12.0059 L -74.4379,12.0531 L -74.073,12.1468 L -73.7227,12.2855 L -73.3925,12.467
 L -73.0877,12.6884 L -72.8131,12.9464 L -72.573,13.2366 L -72.3711,13.5547 L -72.2107,13.8956 L -72.0943,14.2539
 L -72.0237,14.624 L -72,15 L -72.0237,15.376 L -72.0943,15.7461 L -72.2107,16.1044 L -72.3711,16.4453
 L -72.573,16.7634 L -72.8131,17.0536 L -73.0877,17.3115 L -73.3925,17.533 L -73.7227,17.7145 L -74.073,17.8532
 L -74.4379,17.9469 L -74.8116,17.9941 z
" stroke="black" fill="lightgray" stroke-width="0.5"/>
</svg>
