<?xml version="1.0" standalone="no"?>
<!DOCTYPE svg PUBLIC "-//W3C//DTD SVG 1.1//EN" "http://www.w3.org/Graphics/SVG/1.1/DTD/svg11.dtd">
<svg width="60mm" height="60mm" viewBox="-30 -30 60 60" xmlns="http://www.w3.org/2000/svg" version="1.1">
<title>OpenSCAD Model</title>
<path d="
M 25.4369,29.4114 L 26.0451,29.2553 L 26.6289,29.0241 L 27.1791,28.7216 L 27.6871,28.3526 L 28.1448,27.9227
 L 28.5451,27.4389 L 28.8815,26.9088 L 29.1489,26.3406 L 29.3429,25.7434 L 29.4606,25.1267 L 29.5,24.5
 L 29.5,-24.5 L 29.4606,-25.1267 L 29.3429,-25.7434 L 29.1489,-26.3406 L 28.8815,-26.9088 L 28.5451,-27.4389
 L 28.1448,-27.9227 L 27.6871,-28.3526 L 27.1791,-28.7216 L 26.6289,-29.0241 L 26.0451,-29.2553 L 25.4369,-29.4114
 L 24.8139,-29.4901 L -24.8139,-29.4901 L -25.4369,-29.4114 L -26.0451,-29.2553 L -26.6289,-29.0241 L -27.1791,-28.7216
 L -27.6871,-28.3526 L -28.1448,-27.9227 L -28.5451,-27.4389 L -28.8815,-26.9088 L -29.1489,-26.3406 L -29.3429,-25.7434
 L -29.4606,-25.1267 L -29.5,-24.5 L -29.5,24.5 L -29.4606,25.1267 L -29.3429,25.7434 L -29.1489,26.3406
 L -28.8815,26.9088 L -28.5451,27.4389 L -28.1448,27.9227 L -27.6871,28.3526 L -27.1791,28.7216 L -26.6289,29.0241
 L -26.0451,29.2553 L -25.4369,29.4114 L -24.8139,29.4901 L 24.8139,29.4901 z
M 7.31161,-19.5059 L 6.93785,-19.5531 L 6.57294,-19.6468 L 6.22266,-19.7855 L 5.89252,-19.967 L 5.58772,-20.1884
 L 5.31308,-20.4464 L 5.07294,-20.7366 L 4.87108,-21.0547 L 4.71066,-21.3956 L 4.59424,-21.7539 L 4.52365,-22.124
 L 4.5,-22.5 L 4.52365,-22.876 L 4.59424,-23.2461 L 4.71066,-23.6044 L 4.87108,-23.9453 L 5.07294,-24.2634
 L 5.31308,-24.5536 L 5.58772,-24.8115 L 5.89252,-25.033 L 6.22266,-25.2145 L 6.57294,-25.3532 L 6.93785,-25.4469
 L 7.31161,-25.4941 L 7.68837,-25.4941 L 8.06213,-25.4469 L 8.42705,-25.3532 L 8.77733,-25.2145 L 9.10747,-25.033
 L 9.41226,-24.8115 L 9.6869,-24.5536 L 9.92705,-24.2634 L 10.1289,-23.9453 L 10.2893,-23.6044 L 10.4057,-23.2461
 L 10.4763,-22.876 L 10.5,-22.5 L 10.4763,-22.124 L 10.4057,-21.7539 L 10.2893,-21.3956 L 10.1289,-21.0547
 L 9.92705,-20.7366 L 9.6869,-20.4464 L 9.41226,-20.1884 L 9.10747,-19.967 L 8.77733,-19.7855 L 8.42705,-19.6468
 L 8.06213,-19.5531 L 7.68837,-19.5059 z
M -7.68837,-19.5059 L -8.06213,-19.5531 L -8.42705,-19.6468 L -8.77733,-19.7855 L -9.10747,-19.967 L -9.41226,-20.1884
 L -9.6869,-20.4464 L -9.92705,-20.7366 L -10.1289,-21.0547 L -10.2893,-21.3956 L -10.4057,-21.7539 L -10.4763,-22.124
 L -10.5,-22.5 L -10.4763,-22.876 L -10.4057,-23.2461 L -10.2893,-23.6044 L -10.1289,-23.9453 L -9.92705,-24.2634
 L -9.6869,-24.5536 L -9.41226,-24.8115 L -9.10747,-25.033 L -8.77733,-25.2145 L -8.42705,-25.3532 L -8.06213,-25.4469
 L -7.68837,-25.4941 L -7.31161,-25.4941 L -6.93785,-25.4469 L -6.57294,-25.3532 L -6.22266,-25.2145 L -5.89252,-25.033
 L -5.58772,-24.8115 L -5.31308,-24.5536 L -5.07294,-24.2634 L -4.87108,-23.9453 L -4.71066,-23.6044 L -4.59424,-23.2461
 L -4.52365,-22.876 L -4.5,-22.5 L -4.52365,-22.124 L -4.59424,-21.7539 L -4.71066,-21.3956 L -4.87108,-21.0547
 L -5.07294,-20.7366 L -5.31308,-20.4464 L -5.58772,-20.1884 L -5.89252,-19.967 L -6.22266,-19.7855 L -6.57294,-19.6468
 L -6.93785,-19.5531 L -7.31161,-19.5059 z
M 22.3116,-19.5059 L 21.9379,-19.5531 L 21.5729,-19.6468 L 21.2227,-19.7855 L 20.8925,-19.967 L 20.5877,-20.1884
 L 20.3131,-20.4464 L 20.0729,-20.7366 L 19.8711,-21.0547 L 19.7107,-21.3956 L 19.5942,-21.7539 L 19.5237,-22.124
 L 19.5,-22.5 L 19.5237,-22.876 L 19.5942,-23.2461 L 19.7107,-23.6044 L 19.8711,-23.9453 L 20.0729,-24.2634
 L 20.3131,-24.5536 L 20.5877,-24.8115 L 20.8925,-25.033 L 21.2227,-25.2145 L 21.5729,-25.3532 L 21.9379,-25.4469
 L 22.3116,-25.4941 L 22.6884,-25.4941 L 23.0621,-25.4469 L 23.427,-25.3532 L 23.7773,-25.2145 L 24.1075,-25.033
 L 24.4123,-24.8115 L 24.6869,-24.5536 L 24.927,-24.2634 L 25.1289,-23.9453 L 25.2893,-23.6044 L 25.4057,-23.2461
 L 25.4763,-22.876 L 25.5,-22.5 L 25.4763,-22.124 L 25.4057,-21.7539 L 25.2893,-21.3956 L 25.1289,-21.0547
 L 24.927,-20.7366 L 24.6869,-20.4464 L 24.4123,-20.1884 L 24.1075,-19.967 L 23.7773,-19.7855 L 23.427,-19.6468
 L 23.0621,-19.5531 L 22.6884,-19.5059 z
M -22.6884,-19.5059 L -23.0621,-19.5531 L -23.427,-19.6468 L -23.7773,-19.7855 L -24.1075,-19.967 L -24.4123,-20.1884
 L -24.6869,-20.4464 L -24.927,-20.7366 L -25.1289,-21.0547 L -25.2893,-21.3956 L -25.4057,-21.7539 L -25.4763,-22.124
 L -25.5,-22.5 L -25.4763,-22.876 L -25.4057,-23.2461 L -25.2893,-23.6044 L -25.1289,-23.9453 L -24.927,-24.2634
 L -24.6869,-24.5536 L -24.4123,-24.8115 L -24.1075,-25.033 L -23.7773,-25.2145 L -23.427,-25.3532 L -23.0621,-25.4469
 L -22.6884,-25.4941 L -22.3116,-25.4941 L -21.9379,-25.4469 L -21.5729,-25.3532 L -21.2227,-25.2145 L -20.8925,-25.033
 L -20.5877,-24.8115 L -20.3131,-24.5536 L -20.0729,-24.2634 L -19.8711,-23.9453 L -19.7107,-23.6044 L -19.5942,-23.2461
 L -19.5237,-22.876 L -19.5,-22.5 L -19.5237,-22.124 L -19.5942,-21.7539 L -19.7107,-21.3956 L -19.8711,-21.0547
 L -20.0729,-20.7366 L -20.3131,-20.4464 L -20.5877,-20.1884 L -20.8925,-19.967 L -21.2227,-19.7855 L -21.5729,-19.6468
 L -21.9379,-19.5531 L -22.3116,-19.5059 z
M -0.0941772,-21.003 L -0.281067,-21.0266 L -0.463516,-21.0734 L -0.638657,-21.1427 L -0.803726,-21.2335 L -0.956131,-21.3442
 L -1.09344,-21.4732 L -1.21352,-21.6183 L -1.31445,-21.7774 L -1.39465,-21.9478 L -1.45287,-22.127 L -1.48816,-22.312
 L -1.5,-22.5 L -1.48816,-22.688 L -1.45287,-22.873 L -1.39465,-23.0522 L -1.31445,-23.2226 L -1.21352,-23.3817
 L -1.09344,-23.5268 L -0.956131,-23.6558 L -0.803726,-23.7665 L -0.638657,-23.8572 L -0.463516,-23.9266 L -0.281067,-23.9734
 L -0.0941772,-23.997 L 0.0941772,-23.997 L 0.281067,-23.9734 L 0.463516,-23.9266 L 0.638657,-23.8572 L 0.803726,-23.7665
 L 0.956131,-23.6558 L 1.09344,-23.5268 L 1.21352,-23.3817 L 1.31445,-23.2226 L 1.39465,-23.0522 L 1.45287,-22.873
 L 1.48816,-22.688 L 1.5,-22.5 L 1.48816,-22.312 L 1.45287,-22.127 L 1.39465,-21.9478 L 1.31445,-21.7774
 L 1.21352,-21.6183 L 1.09344,-21.4732 L 0.956131,-21.3442 L 0.803726,-21.2335 L 0.638657,-21.1427 L 0.463516,-21.0734
 L 0.281067,-21.0266 L 0.0941772,-21.003 z
M 14.9058,-21.003 L 14.7189,-21.0266 L 14.5365,-21.0734 L 14.3613,-21.1427 L 14.1963,-21.2335 L 14.0439,-21.3442
 L 13.9065,-21.4732 L 13.7865,-21.6183 L 13.6855,-21.7774 L 13.6053,-21.9478 L 13.5471,-22.127 L 13.5118,-22.312
 L 13.5,-22.5 L 13.5118,-22.688 L 13.5471,-22.873 L 13.6053,-23.0522 L 13.6855,-23.2226 L 13.7865,-23.3817
 L 13.9065,-23.5268 L 14.0439,-23.6558 L 14.1963,-23.7665 L 14.3613,-23.8572 L 14.5365,-23.9266 L 14.7189,-23.9734
 L 14.9058,-23.997 L 15.0942,-23.997 L 15.2811,-23.9734 L 15.4635,-23.9266 L 15.6387,-23.8572 L 15.8037,-23.7665
 L 15.9561,-23.6558 L 16.0934,-23.5268 L 16.2135,-23.3817 L 16.3145,-23.2226 L 16.3947,-23.0522 L 16.4529,-22.873
 L 16.4882,-22.688 L 16.5,-22.5 L 16.4882,-22.312 L 16.4529,-22.127 L 16.3947,-21.9478 L 16.3145,-21.7774
 L 16.2135,-21.6183 L 16.0934,-21.4732 L 15.9561,-21.3442 L 15.8037,-21.2335 L 15.6387,-21.1427 L 15.4635,-21.0734
 L 15.2811,-21.0266 L 15.0942,-21.003 z
M -15.0942,-21.003 L -15.2811,-21.0266 L -15.4635,-21.0734 L -15.6387,-21.1427 L -15.8037,-21.2335 L -15.9561,-21.3442
 L -16.0934,-21.4732 L -16.2135,-21.6183 L -16.3145,-21.7774 L -16.3947,-21.9478 L -16.4529,-22.127 L -16.4882,-22.312
 L -16.5,-22.5 L -16.4882,-22.688 L -16.4529,-22.873 L -16.3947,-23.0522 L -16.3145,-23.2226 L -16.2135,-23.3817
 L -16.0934,-23.5268 L -15.9561,-23.6558 L -15.8037,-23.7665 L -15.6387,-23.8572 L -15.4635,-23.9266 L -15.2811,-23.9734
 L -15.0942,-23.997 L -14.9058,-23.997 L -14.7189,-23.9734 L -14.5365,-23.9266 L -14.3613,-23.8572 L -14.1963,-23.7665
 L -14.0439,-23.6558 L -13.9065,-23.5268 L -13.7865,-23.3817 L -13.6855,-23.2226 L -13.6053,-23.0522 L -13.5471,-22.873
 L -13.5118,-22.688 L -13.5,-22.5 L -13.5118,-22.312 L -13.5471,-22.127 L -13.6053,-21.9478 L -13.6855,-21.7774
 L -13.7865,-21.6183 L -13.9065,-21.4732 L -14.0439,-21.3442 L -14.1963,-21.2335 L -14.3613,-21.1427 L -14.5365,-21.0734
 L -14.7189,-21.0266 L -14.9058,-21.003 z
M -15.2535,11.9763 L -16.7486,11.7874 L -18.2082,11.4127 L -19.6093,10.8579 L -20.9299,10.1319 L -22.1491,9.24615
 L -23.2476,8.21455 L -24.2082,7.05342 L -25.0157,5.78104 L -25.6573,4.41748 L -26.123,2.98427 L -26.4054,1.504
 L -26.5,-0 L -26.4054,-1.504 L -26.123,-2.98427 L -25.6573,-4.41748 L -25.0157,-5.78104 L -24.2082,-7.05342
 L -23.2476,-8.21455 L -22.1491,-9.24615 L -20.9299,-10.1319 L -19.6093,-10.8579 L -18.2082,-11.4127 L -16.7486,-11.7874
 L -15.2535,-11.9763 L -13.7465,-11.9763 L -12.2514,-11.7874 L -10.7918,-11.4127 L -9.39064,-10.8579 L -8.07007,-10.1319
 L -6.85091,-9.24615 L -5.75237,-8.21455 L -4.79179,-7.05342 L -3.98431,-5.78104 L -3.34268,-4.41748 L -2.877,-2.98427
 L -2.59462,-1.504 L -2.5,-0 L -2.59462,1.504 L -2.877,2.98427 L -3.34268,4.41748 L -3.98431,5.78104
 L -4.79179,7.05342 L -5.75237,8.21455 L -6.85091,9.24615 L -8.07007,10.1319 L -9.39064,10.8579 L -10.7918,11.4127
 L -12.2514,11.7874 L -13.7465,11.9763 z
M 13.7465,11.9763 L 12.2514,11.7874 L 10.7918,11.4127 L 9.39064,10.8579 L 8.07007,10.1319 L 6.85091,9.24615
 L 5.75237,8.21455 L 4.79179,7.05342 L 3.98431,5.78104 L 3.34268,4.41748 L 2.877,2.98427 L 2.59462,1.504
 L 2.5,-0 L 2.59462,-1.504 L 2.877,-2.98427 L 3.34268,-4.41748 L 3.98431,-5.78104 L 4.79179,-7.05342
 L 5.75237,-8.21455 L 6.85091,-9.24615 L 8.07007,-10.1319 L 9.39064,-10.8579 L 10.7918,-11.4127 L 12.2514,-11.7874
 L 13.7465,-11.9763 L 15.2535,-11.9763 L 16.7486,-11.7874 L 18.2082,-11.4127 L 19.6093,-10.8579 L 20.9299,-10.1319
 L 22.1491,-9.24615 L 23.2476,-8.21455 L 24.2082,-7.05342 L 25.0157,-5.78104 L 25.6573,-4.41748 L 26.123,-2.98427
 L 26.4054,-1.504 L 26.5,-0 L 26.4054,1.504 L 26.123,2.98427 L 25.6573,4.41748 L 25.0157,5.78104
 L 24.2082,7.05342 L 23.2476,8.21455 L 22.1491,9.24615 L 20.9299,10.1319 L 19.6093,10.8579 L 18.2082,11.4127
 L 16.7486,11.7874 L 15.2535,11.9763 z
M 7.31161,25.4941 L 6.93785,25.4469 L 6.57294,25.3532 L 6.22266,25.2145 L 5.89252,25.033 L 5.58772,24.8115
 L 5.31308,24.5536 L 5.07294,24.2634 L 4.87108,23.9453 L 4.71066,23.6044 L 4.59424,23.2461 L 4.52365,22.876
 L 4.5,22.5 L 4.52365,22.124 L 4.59424,21.7539 L 4.71066,21.3956 L 4.87108,21.0547 L 5.07294,20.7366
 L 5.31308,20.4464 L 5.58772,20.1884 L 5.89252,19.967 L 6.22266,19.7855 L 6.57294,19.6468 L 6.93785,19.5531
 L 7.31161,19.5059 L 7.68837,19.5059 L 8.06213,19.5531 L 8.42705,19.6468 L 8.77733,19.7855 L 9.10747,19.967
 L 9.41226,20.1884 L 9.6869,20.4464 L 9.92705,20.7366 L 10.1289,21.0547 L 10.2893,21.3956 L 10.4057,21.7539
 L 10.4763,22.124 L 10.5,22.5 L 10.4763,22.876 L 10.4057,23.2461 L 10.2893,23.6044 L 10.1289,23.9453
 L 9.92705,24.2634 L 9.6869,24.5536 L 9.41226,24.8115 L 9.10747,25.033 L 8.77733,25.2145 L 8.42705,25.3532
 L 8.06213,25.4469 L 7.68837,25.4941 z
M -22.6884,25.4941 L -23.0621,25.4469 L -23.427,25.3532 L -23.7773,25.2145 L -24.1075,25.033 L -24.4123,24.8115
 L -24.6869,24.5536 L -24.927,24.2634 L -25.1289,23.9453 L -25.2893,23.6044 L -25.4057,23.2461 L -25.4763,22.876
 L -25.5,22.5 L -25.4763,22.124 L -25.4057,21.7539 L -25.2893,21.3956 L -25.1289,21.0547 L -24.927,20.7366
 L -24.6869,20.4464 L -24.4123,20.1884 L -24.1075,19.967 L -23.7773,19.7855 L -23.427,19.6468 L -23.0621,19.5531
 L -22.6884,19.5059 L -22.3116,19.5059 L -21.9379,19.5531 L -21.5729,19.6468 L -21.2227,19.7855 L -20.8925,19.967
 L -20.5877,20.1884 L -20.3131,20.4464 L -20.0729,20.7366 L -19.8711,21.0547 L -19.7107,21.3956 L -19.5942,21.7539
 L -19.5237,22.124 L -19.5,22.5 L -19.5237,22.876 L -19.5942,23.2461 L -19.7107,23.6044 L -19.8711,23.9453
 L -20.0729,24.2634 L -20.3131,24.5536 L -20.5877,24.8115 L -20.8925,25.033 L -21.2227,25.2145 L -21.5729,25.3532
 L -21.9379,25.4469 L -22.3116,25.4941 z
M 22.3116,25.4941 L 21.9379,25.4469 L 21.5729,25.3532 L 21.2227,25.2145 L 20.8925,25.033 L 20.5877,24.8115
 L 20.3131,24.5536 L 20.0729,24.2634 L 19.8711,23.9453 L 19.7107,23.6044 L 19.5942,23.2461 L 19.5237,22.876
 L 19.5,22.5 L 19.5237,22.124 L 19.5942,21.7539 L 19.7107,21.3956 L 19.8711,21.0547 L 20.0729,20.7366
 L 20.3131,20.4464 L 20.5877,20.1884 L 20.8925,19.967 L 21.2227,19.7855 L 21.5729,19.6468 L 21.9379,19.5531
 L 22.3116,19.5059 L 22.6884,19.5059 L 23.0621,19.5531 L 23.427,19.6468 L 23.7773,19.7855 L 24.1075,19.967
 L 24.4123,20.1884 L 24.6869,20.4464 L 24.927,20.7366 L 25.1289,21.0547 L 25.2893,21.3956 L 25.4057,21.7539
 L 25.4763,22.124 L 25.5,22.5 L 25.4763,22.876 L 25.4057,23.2461 L 25.2893,23.6044 L 25.1289,23.9453
 L 24.927,24.2634 L 24.6869,24.5536 L 24.4123,24.8115 L 24.1075,25.033 L 23.7773,25.2145 L 23.427,25.3532
 L 23.0621,25.4469 L 22.6884,25.4941 z
M -7.68837,25.4941 L -8.06213,25.4469 L -8.42705,25.3532 L -8.77733,25.2145 L -9.10747,25.033 L -9.41226,24.8115
 L -9.6869,24.5536 L -9.92705,24.2634 L -10.1289,23.9453 L -10.2893,23.6044 L -10.4057,23.2461 L -10.4763,22.876
 L -10.5,22.5 L -10.4763,22.124 L -10.4057,21.7539 L -10.2893,21.3956 L -10.1289,21.0547 L -9.92705,20.7366
 L -9.6869,20.4464 L -9.41226,20.1884 L -9.10747,19.967 L -8.77733,19.7855 L -8.42705,19.6468 L -8.06213,19.5531
 L -7.68837,19.5059 L -7.31161,19.5059 L -6.93785,19.5531 L -6.57294,19.6468 L -6.22266,19.7855 L -5.89252,19.967
 L -5.58772,20.1884 L -5.31308,20.4464 L -5.07294,20.7366 L -4.87108,21.0547 L -4.71066,21.3956 L -4.59424,21.7539
 L -4.52365,22.124 L -4.5,22.5 L -4.52365,22.876 L -4.59424,23.2461 L -4.71066,23.6044 L -4.87108,23.9453
 L -5.07294,24.2634 L -5.31308,24.5536 L -5.58772,24.8115 L -5.89252,25.033 L -6.22266,25.2145 L -6.57294,25.3532
 L -6.93785,25.4469 L -7.31161,25.4941 z
M -15.0942,23.997 L -15.2811,23.9734 L -15.4635,23.9266 L -15.6387,23.8572 L -15.8037,23.7665 L -15.9561,23.6558
 L -16.0934,23.5268 L -16.2135,23.3817 L -16.3145,23.2226 L -16.3947,23.0522 L -16.4529,22.873 L -16.4882,22.688
 L -16.5,22.5 L -16.4882,22.312 L -16.4529,22.127 L -16.3947,21.9478 L -16.3145,21.7774 L -16.2135,21.6183
 L -16.0934,21.4732 L -15.9561,21.3442 L -15.8037,21.2335 L -15.6387,21.1427 L -15.4635,21.0734 L -15.2811,21.0266
 L -15.0942,21.003 L -14.9058,21.003 L -14.7189,21.0266 L -14.5365,21.0734 L -14.3613,21.1427 L -14.1963,21.2335
 L -14.0439,21.3442 L -13.9065,21.4732 L -13.7865,21.6183 L -13.6855,21.7774 L -13.6053,21.9478 L -13.5471,22.127
 L -13.5118,22.312 L -13.5,22.5 L -13.5118,22.688 L -13.5471,22.873 L -13.6053,23.0522 L -13.6855,23.2226
 L -13.7865,23.3817 L -13.9065,23.5268 L -14.0439,23.6558 L -14.1963,23.7665 L -14.3613,23.8572 L -14.5365,23.9266
 L -14.7189,23.9734 L -14.9058,23.997 z
M 14.9058,23.997 L 14.7189,23.9734 L 14.5365,23.9266 L 14.3613,23.8572 L 14.1963,23.7665 L 14.0439,23.6558
 L 13.9065,23.5268 L 13.7865,23.3817 L 13.6855,23.2226 L 13.6053,23.0522 L 13.5471,22.873 L 13.5118,22.688
 L 13.5,22.5 L 13.5118,22.312 L 13.5471,22.127 L 13.6053,21.9478 L 13.6855,21.7774 L 13.7865,21.6183
 L 13.9065,21.4732 L 14.0439,21.3442 L 14.1963,21.2335 L 14.3613,21.1427 L 14.5365,21.0734 L 14.7189,21.0266
 L 14.9058,21.003 L 15.0942,21.003 L 15.2811,21.0266 L 15.4635,21.0734 L 15.6387,21.1427 L 15.8037,21.2335
 L 15.9561,21.3442 L 16.0934,21.4732 L 16.2135,21.6183 L 16.3145,21.7774 L 16.3947,21.9478 L 16.4529,22.127
 L 16.4882,22.312 L 16.5,22.5 L 16.4882,22.688 L 16.4529,22.873 L 16.3947,23.0522 L 16.3145,23.2226
 L 16.2135,23.3817 L 16.0934,23.5268 L 15.9561,23.6558 L 15.8037,23.7665 L 15.6387,23.8572 L 15.4635,23.9266
 L 15.2811,23.9734 L 15.0942,23.997 z
M -0.0941772,23.997 L -0.281067,23.9734 L -0.463516,23.9266 L -0.638657,23.8572 L -0.803726,23.7665 L -0.956131,23.6558
 L -1.09344,23.5268 L -1.21352,23.3817 L -1.31445,23.2226 L -1.39465,23.0522 L -1.45287,22.873 L -1.48816,22.688
 L -1.5,22.5 L -1.48816,22.312 L -1.45287,22.127 L -1.39465,21.9478 L -1.31445,21.7774 L -1.21352,21.6183
 L -1.09344,21.4732 L -0.956131,21.3442 L -0.803726,21.2335 L -0.638657,21.1427 L -0.463516,21.0734 L -0.281067,21.0266
 L -0.0941772,21.003 L 0.0941772,21.003 L 0.281067,21.0266 L 0.463516,21.0734 L 0.638657,21.1427 L 0.803726,21.2335
 L 0.956131,21.3442 L 1.09344,21.4732 L 1.21352,21.6183 L 1.31445,21.7774 L 1.39465,21.9478 L 1.45287,22.127
 L 1.48816,22.312 L 1.5,22.5 L 1.48816,22.688 L 1.45287,22.873 L 1.39465,23.0522 L 1.31445,23.2226
 L 1.21352,23.3817 L 1.09344,23.5268 L 0.956131,23.6558 L 0.803726,23.7665 L 0.638657,23.8572 L 0.463516,23.9266
 L 0.281067,23.9734 L 0.0941772,23.997 z
" stroke="black" fill="lightgray" stroke-width="0.5"/>
</svg>
