<?xml version="1.0" standalone="no"?>
<!DOCTYPE svg PUBLIC "-//W3C//DTD SVG 1.1//EN" "http://www.w3.org/Graphics/SVG/1.1/DTD/svg11.dtd">
<svg width="150mm" height="150mm" viewBox="-75 -75 150 150" xmlns="http://www.w3.org/2000/svg" version="1.1">
<title>OpenSCAD Model</title>
<path d="
M 70.4369,74.4114 L 71.0451,74.2553 L 71.6289,74.0241 L 72.1791,73.7216 L 72.6871,73.3526 L 73.1448,72.9227
 L 73.5451,72.4389 L 73.8815,71.9088 L 74.1489,71.3406 L 74.3429,70.7434 L 74.4606,70.1267 L 74.5,69.5
 L 74.5,-69.5 L 74.4606,-70.1267 L 74.3429,-70.7434 L 74.1489,-71.3406 L 73.8815,-71.9088 L 73.5451,-72.4389
 L 73.1448,-72.9227 L 72.6871,-73.3526 L 72.1791,-73.7216 L 71.6289,-74.0241 L 71.0451,-74.2553 L 70.4369,-74.4114
 L 69.8139,-74.4901 L -69.8139,-74.4901 L -70.4369,-74.4114 L -71.0451,-74.2553 L -71.6289,-74.0241 L -72.1791,-73.7216
 L -72.6871,-73.3526 L -73.1448,-72.9227 L -73.5451,-72.4389 L -73.8815,-71.9088 L -74.1489,-71.3406 L -74.3429,-70.7434
 L -74.4606,-70.1267 L -74.5,-69.5 L -74.5,69.5 L -74.4606,70.1267 L -74.3429,70.7434 L -74.1489,71.3406
 L -73.8815,71.9088 L -73.5451,72.4389 L -73.1448,72.9227 L -72.6871,73.3526 L -72.1791,73.7216 L -71.6289,74.0241
 L -71.0451,74.2553 L -70.4369,74.4114 L -69.8139,74.4901 L 69.8139,74.4901 z
M 67.3116,-64.5059 L 66.9379,-64.5531 L 66.573,-64.6468 L 66.2227,-64.7855 L 65.8925,-64.967 L 65.5877,-65.1885
 L 65.3131,-65.4464 L 65.073,-65.7366 L 64.8711,-66.0547 L 64.7107,-66.3956 L 64.5943,-66.7539 L 64.5237,-67.124
 L 64.5,-67.5 L 64.5237,-67.876 L 64.5943,-68.2461 L 64.7107,-68.6044 L 64.8711,-68.9453 L 65.073,-69.2634
 L 65.3131,-69.5536 L 65.5877,-69.8115 L 65.8925,-70.033 L 66.2227,-70.2145 L 66.573,-70.3532 L 66.9379,-70.4469
 L 67.3116,-70.4941 L 67.6884,-70.4941 L 68.0621,-70.4469 L 68.427,-70.3532 L 68.7773,-70.2145 L 69.1075,-70.033
 L 69.4123,-69.8115 L 69.6869,-69.5536 L 69.927,-69.2634 L 70.1289,-68.9453 L 70.2893,-68.6044 L 70.4057,-68.2461
 L 70.4763,-67.876 L 70.5,-67.5 L 70.4763,-67.124 L 70.4057,-66.7539 L 70.2893,-66.3956 L 70.1289,-66.0547
 L 69.927,-65.7366 L 69.6869,-65.4464 L 69.4123,-65.1885 L 69.1075,-64.967 L 68.7773,-64.7855 L 68.427,-64.6468
 L 68.0621,-64.5531 L 67.6884,-64.5059 z
M -67.6884,-64.5059 L -68.0621,-64.5531 L -68.427,-64.6468 L -68.7773,-64.7855 L -69.1075,-64.967 L -69.4123,-65.1885
 L -69.6869,-65.4464 L -69.927,-65.7366 L -70.1289,-66.0547 L -70.2893,-66.3956 L -70.4057,-66.7539 L -70.4763,-67.124
 L -70.5,-67.5 L -70.4763,-67.876 L -70.4057,-68.2461 L -70.2893,-68.6044 L -70.1289,-68.9453 L -69.927,-69.2634
 L -69.6869,-69.5536 L -69.4123,-69.8115 L -69.1075,-70.033 L -68.7773,-70.2145 L -68.427,-70.3532 L -68.0621,-70.4469
 L -67.6884,-70.4941 L -67.3116,-70.4941 L -66.9379,-70.4469 L -66.573,-70.3532 L -66.2227,-70.2145 L -65.8925,-70.033
 L -65.5877,-69.8115 L -65.3131,-69.5536 L -65.073,-69.2634 L -64.8711,-68.9453 L -64.7107,-68.6044 L -64.5943,-68.2461
 L -64.5237,-67.876 L -64.5,-67.5 L -64.5237,-67.124 L -64.5943,-66.7539 L -64.7107,-66.3956 L -64.8711,-66.0547
 L -65.073,-65.7366 L -65.3131,-65.4464 L -65.5877,-65.1885 L -65.8925,-64.967 L -66.2227,-64.7855 L -66.573,-64.6468
 L -66.9379,-64.5531 L -67.3116,-64.5059 z
M -4.08138,64.8717 L -12.1798,63.8487 L -20.0861,61.8187 L -27.6756,58.8138 L -34.8287,54.8813 L -41.4326,50.0834
 L -47.3829,44.4956 L -52.5861,38.206 L -56.9599,31.314 L -60.4355,23.9281 L -62.9579,16.1648 L -64.4875,8.14665
 L -65,-0 L -64.4875,-8.14665 L -62.9579,-16.1648 L -60.4355,-23.9281 L -56.9599,-31.314 L -52.5861,-38.206
 L -47.3829,-44.4956 L -41.4326,-50.0834 L -34.8287,-54.8813 L -27.6756,-58.8138 L -20.0861,-61.8187 L -12.1798,-63.8487
 L -4.08138,-64.8717 L 4.08138,-64.8717 L 12.1798,-63.8487 L 20.0861,-61.8187 L 27.6756,-58.8138 L 34.8287,-54.8813
 L 41.4326,-50.0834 L 47.3829,-44.4956 L 52.5861,-38.206 L 56.9599,-31.314 L 60.4355,-23.9281 L 62.9579,-16.1648
 L 64.4875,-8.14665 L 65,-0 L 64.4875,8.14665 L 62.9579,16.1648 L 60.4355,23.9281 L 56.9599,31.314
 L 52.5861,38.206 L 47.3829,44.4956 L 41.4326,50.0834 L 34.8287,54.8813 L 27.6756,58.8138 L 20.0861,61.8187
 L 12.1798,63.8487 L 4.08138,64.8717 z
M 67.3116,70.4941 L 66.9379,70.4469 L 66.573,70.3532 L 66.2227,70.2145 L 65.8925,70.033 L 65.5877,69.8115
 L 65.3131,69.5536 L 65.073,69.2634 L 64.8711,68.9453 L 64.7107,68.6044 L 64.5943,68.2461 L 64.5237,67.876
 L 64.5,67.5 L 64.5237,67.124 L 64.5943,66.7539 L 64.7107,66.3956 L 64.8711,66.0547 L 65.073,65.7366
 L 65.3131,65.4464 L 65.5877,65.1885 L 65.8925,64.967 L 66.2227,64.7855 L 66.573,64.6468 L 66.9379,64.5531
 L 67.3116,64.5059 L 67.6884,64.5059 L 68.0621,64.5531 L 68.427,64.6468 L 68.7773,64.7855 L 69.1075,64.967
 L 69.4123,65.1885 L 69.6869,65.4464 L 69.927,65.7366 L 70.1289,66.0547 L 70.2893,66.3956 L 70.4057,66.7539
 L 70.4763,67.124 L 70.5,67.5 L 70.4763,67.876 L 70.4057,68.2461 L 70.2893,68.6044 L 70.1289,68.9453
 L 69.927,69.2634 L 69.6869,69.5536 L 69.4123,69.8115 L 69.1075,70.033 L 68.7773,70.2145 L 68.427,70.3532
 L 68.0621,70.4469 L 67.6884,70.4941 z
M -67.6884,70.4941 L -68.0621,70.4469 L -68.427,70.3532 L -68.7773,70.2145 L -69.1075,70.033 L -69.4123,69.8115
 L -69.6869,69.5536 L -69.927,69.2634 L -70.1289,68.9453 L -70.2893,68.6044 L -70.4057,68.2461 L -70.4763,67.876
 L -70.5,67.5 L -70.4763,67.124 L -70.4057,66.7539 L -70.2893,66.3956 L -70.1289,66.0547 L -69.927,65.7366
 L -69.6869,65.4464 L -69.4123,65.1885 L -69.1075,64.967 L -68.7773,64.7855 L -68.427,64.6468 L -68.0621,64.5531
 L -67.6884,64.5059 L -67.3116,64.5059 L -66.9379,64.5531 L -66.573,64.6468 L -66.2227,64.7855 L -65.8925,64.967
 L -65.5877,65.1885 L -65.3131,65.4464 L -65.073,65.7366 L -64.8711,66.0547 L -64.7107,66.3956 L -64.5943,66.7539
 L -64.5237,67.124 L -64.5,67.5 L -64.5237,67.876 L -64.5943,68.2461 L -64.7107,68.6044 L -64.8711,68.9453
 L -65.073,69.2634 L -65.3131,69.5536 L -65.5877,69.8115 L -65.8925,70.033 L -66.2227,70.2145 L -66.573,70.3532
 L -66.9379,70.4469 L -67.3116,70.4941 z
" stroke="black" fill="lightgray" stroke-width="0.5"/>
</svg>
