  0
SECTION
  2
BLOCKS
  0
ENDSEC
  0
SECTION
  2
ENTITIES
  0
LINE
  8
0
 10
40.4369
 20
32.0886
 11
41.0451
 21
32.2447
  0
LINE
  8
0
 10
41.0451
 20
32.2447
 11
41.6289
 21
32.4759
  0
LINE
  8
0
 10
41.6289
 20
32.4759
 11
42.1791
 21
32.7784
  0
LINE
  8
0
 10
42.1791
 20
32.7784
 11
42.6871
 21
33.1474
  0
LINE
  8
0
 10
42.6871
 20
33.1474
 11
43.1448
 21
33.5773
  0
LINE
  8
0
 10
43.1448
 20
33.5773
 11
43.5451
 21
34.0611
  0
LINE
  8
0
 10
43.5451
 20
34.0611
 11
43.8815
 21
34.5912
  0
LINE
  8
0
 10
43.8815
 20
34.5912
 11
44.1489
 21
35.1594
  0
LINE
  8
0
 10
44.1489
 20
35.1594
 11
44.3429
 21
35.7566
  0
LINE
  8
0
 10
44.3429
 20
35.7566
 11
44.4606
 21
36.3733
  0
LINE
  8
0
 10
44.4606
 20
36.3733
 11
44.5
 21
37
  0
LINE
  8
0
 10
44.5
 20
37
 11
44.5
 21
71
  0
LINE
  8
0
 10
44.5
 20
71
 11
44.4606
 21
71.6267
  0
LINE
  8
0
 10
44.4606
 20
71.6267
 11
44.3429
 21
72.2434
  0
LINE
  8
0
 10
44.3429
 20
72.2434
 11
44.1489
 21
72.8406
  0
LINE
  8
0
 10
44.1489
 20
72.8406
 11
43.8815
 21
73.4088
  0
LINE
  8
0
 10
43.8815
 20
73.4088
 11
43.5451
 21
73.9389
  0
LINE
  8
0
 10
43.5451
 20
73.9389
 11
43.1448
 21
74.4227
  0
LINE
  8
0
 10
43.1448
 20
74.4227
 11
42.6871
 21
74.8526
  0
LINE
  8
0
 10
42.6871
 20
74.8526
 11
42.1791
 21
75.2216
  0
LINE
  8
0
 10
42.1791
 20
75.2216
 11
41.6289
 21
75.5241
  0
LINE
  8
0
 10
41.6289
 20
75.5241
 11
41.0451
 21
75.7553
  0
LINE
  8
0
 10
41.0451
 20
75.7553
 11
40.4369
 21
75.9114
  0
LINE
  8
0
 10
40.4369
 20
75.9114
 11
39.8139
 21
75.9901
  0
LINE
  8
0
 10
39.8139
 20
75.9901
 11
-39.8139
 21
75.9901
  0
LINE
  8
0
 10
-39.8139
 20
75.9901
 11
-40.4369
 21
75.9114
  0
LINE
  8
0
 10
-40.4369
 20
75.9114
 11
-41.0451
 21
75.7553
  0
LINE
  8
0
 10
-41.0451
 20
75.7553
 11
-41.6289
 21
75.5241
  0
LINE
  8
0
 10
-41.6289
 20
75.5241
 11
-42.1791
 21
75.2216
  0
LINE
  8
0
 10
-42.1791
 20
75.2216
 11
-42.6871
 21
74.8526
  0
LINE
  8
0
 10
-42.6871
 20
74.8526
 11
-43.1448
 21
74.4227
  0
LINE
  8
0
 10
-43.1448
 20
74.4227
 11
-43.5451
 21
73.9389
  0
LINE
  8
0
 10
-43.5451
 20
73.9389
 11
-43.8815
 21
73.4088
  0
LINE
  8
0
 10
-43.8815
 20
73.4088
 11
-44.1489
 21
72.8406
  0
LINE
  8
0
 10
-44.1489
 20
72.8406
 11
-44.3429
 21
72.2434
  0
LINE
  8
0
 10
-44.3429
 20
72.2434
 11
-44.4606
 21
71.6267
  0
LINE
  8
0
 10
-44.4606
 20
71.6267
 11
-44.5
 21
71
  0
LINE
  8
0
 10
-44.5
 20
71
 11
-44.5
 21
37
  0
LINE
  8
0
 10
-44.5
 20
37
 11
-44.4606
 21
36.3733
  0
LINE
  8
0
 10
-44.4606
 20
36.3733
 11
-44.3429
 21
35.7566
  0
LINE
  8
0
 10
-44.3429
 20
35.7566
 11
-44.1489
 21
35.1594
  0
LINE
  8
0
 10
-44.1489
 20
35.1594
 11
-43.8815
 21
34.5912
  0
LINE
  8
0
 10
-43.8815
 20
34.5912
 11
-43.5451
 21
34.0611
  0
LINE
  8
0
 10
-43.5451
 20
34.0611
 11
-43.1448
 21
33.5773
  0
LINE
  8
0
 10
-43.1448
 20
33.5773
 11
-42.6871
 21
33.1474
  0
LINE
  8
0
 10
-42.6871
 20
33.1474
 11
-42.1791
 21
32.7784
  0
LINE
  8
0
 10
-42.1791
 20
32.7784
 11
-41.6289
 21
32.4759
  0
LINE
  8
0
 10
-41.6289
 20
32.4759
 11
-41.0451
 21
32.2447
  0
LINE
  8
0
 10
-41.0451
 20
32.2447
 11
-40.4369
 21
32.0886
  0
LINE
  8
0
 10
-40.4369
 20
32.0886
 11
-39.8139
 21
32.0099
  0
LINE
  8
0
 10
-39.8139
 20
32.0099
 11
39.8139
 21
32.0099
  0
LINE
  8
0
 10
39.8139
 20
32.0099
 11
40.4369
 21
32.0886
  0
LINE
  8
0
 10
-7.68837
 20
66.0059
 11
-8.06213
 21
66.0531
  0
LINE
  8
0
 10
-8.06213
 20
66.0531
 11
-8.42705
 21
66.1468
  0
LINE
  8
0
 10
-8.42705
 20
66.1468
 11
-8.77733
 21
66.2855
  0
LINE
  8
0
 10
-8.77733
 20
66.2855
 11
-9.10747
 21
66.467
  0
LINE
  8
0
 10
-9.10747
 20
66.467
 11
-9.41226
 21
66.6884
  0
LINE
  8
0
 10
-9.41226
 20
66.6884
 11
-9.6869
 21
66.9464
  0
LINE
  8
0
 10
-9.6869
 20
66.9464
 11
-9.92705
 21
67.2366
  0
LINE
  8
0
 10
-9.92705
 20
67.2366
 11
-10.1289
 21
67.5547
  0
LINE
  8
0
 10
-10.1289
 20
67.5547
 11
-10.2893
 21
67.8956
  0
LINE
  8
0
 10
-10.2893
 20
67.8956
 11
-10.4057
 21
68.2539
  0
LINE
  8
0
 10
-10.4057
 20
68.2539
 11
-10.4763
 21
68.624
  0
LINE
  8
0
 10
-10.4763
 20
68.624
 11
-10.5
 21
69
  0
LINE
  8
0
 10
-10.5
 20
69
 11
-10.4763
 21
69.376
  0
LINE
  8
0
 10
-10.4763
 20
69.376
 11
-10.4057
 21
69.7461
  0
LINE
  8
0
 10
-10.4057
 20
69.7461
 11
-10.2893
 21
70.1044
  0
LINE
  8
0
 10
-10.2893
 20
70.1044
 11
-10.1289
 21
70.4453
  0
LINE
  8
0
 10
-10.1289
 20
70.4453
 11
-9.92705
 21
70.7634
  0
LINE
  8
0
 10
-9.92705
 20
70.7634
 11
-9.6869
 21
71.0536
  0
LINE
  8
0
 10
-9.6869
 20
71.0536
 11
-9.41226
 21
71.3115
  0
LINE
  8
0
 10
-9.41226
 20
71.3115
 11
-9.10747
 21
71.533
  0
LINE
  8
0
 10
-9.10747
 20
71.533
 11
-8.77733
 21
71.7145
  0
LINE
  8
0
 10
-8.77733
 20
71.7145
 11
-8.42705
 21
71.8532
  0
LINE
  8
0
 10
-8.42705
 20
71.8532
 11
-8.06213
 21
71.9469
  0
LINE
  8
0
 10
-8.06213
 20
71.9469
 11
-7.68837
 21
71.9941
  0
LINE
  8
0
 10
-7.68837
 20
71.9941
 11
-7.31161
 21
71.9941
  0
LINE
  8
0
 10
-7.31161
 20
71.9941
 11
-6.93785
 21
71.9469
  0
LINE
  8
0
 10
-6.93785
 20
71.9469
 11
-6.57294
 21
71.8532
  0
LINE
  8
0
 10
-6.57294
 20
71.8532
 11
-6.22266
 21
71.7145
  0
LINE
  8
0
 10
-6.22266
 20
71.7145
 11
-5.89252
 21
71.533
  0
LINE
  8
0
 10
-5.89252
 20
71.533
 11
-5.58772
 21
71.3115
  0
LINE
  8
0
 10
-5.58772
 20
71.3115
 11
-5.31308
 21
71.0536
  0
LINE
  8
0
 10
-5.31308
 20
71.0536
 11
-5.07294
 21
70.7634
  0
LINE
  8
0
 10
-5.07294
 20
70.7634
 11
-4.87108
 21
70.4453
  0
LINE
  8
0
 10
-4.87108
 20
70.4453
 11
-4.71066
 21
70.1044
  0
LINE
  8
0
 10
-4.71066
 20
70.1044
 11
-4.59424
 21
69.7461
  0
LINE
  8
0
 10
-4.59424
 20
69.7461
 11
-4.52365
 21
69.376
  0
LINE
  8
0
 10
-4.52365
 20
69.376
 11
-4.5
 21
69
  0
LINE
  8
0
 10
-4.5
 20
69
 11
-4.52365
 21
68.624
  0
LINE
  8
0
 10
-4.52365
 20
68.624
 11
-4.59424
 21
68.2539
  0
LINE
  8
0
 10
-4.59424
 20
68.2539
 11
-4.71066
 21
67.8956
  0
LINE
  8
0
 10
-4.71066
 20
67.8956
 11
-4.87108
 21
67.5547
  0
LINE
  8
0
 10
-4.87108
 20
67.5547
 11
-5.07294
 21
67.2366
  0
LINE
  8
0
 10
-5.07294
 20
67.2366
 11
-5.31308
 21
66.9464
  0
LINE
  8
0
 10
-5.31308
 20
66.9464
 11
-5.58772
 21
66.6884
  0
LINE
  8
0
 10
-5.58772
 20
66.6884
 11
-5.89252
 21
66.467
  0
LINE
  8
0
 10
-5.89252
 20
66.467
 11
-6.22266
 21
66.2855
  0
LINE
  8
0
 10
-6.22266
 20
66.2855
 11
-6.57294
 21
66.1468
  0
LINE
  8
0
 10
-6.57294
 20
66.1468
 11
-6.93785
 21
66.0531
  0
LINE
  8
0
 10
-6.93785
 20
66.0531
 11
-7.31161
 21
66.0059
  0
LINE
  8
0
 10
-7.31161
 20
66.0059
 11
-7.68837
 21
66.0059
  0
LINE
  8
0
 10
-37.6884
 20
66.0059
 11
-38.0621
 21
66.0531
  0
LINE
  8
0
 10
-38.0621
 20
66.0531
 11
-38.427
 21
66.1468
  0
LINE
  8
0
 10
-38.427
 20
66.1468
 11
-38.7773
 21
66.2855
  0
LINE
  8
0
 10
-38.7773
 20
66.2855
 11
-39.1075
 21
66.467
  0
LINE
  8
0
 10
-39.1075
 20
66.467
 11
-39.4123
 21
66.6884
  0
LINE
  8
0
 10
-39.4123
 20
66.6884
 11
-39.6869
 21
66.9464
  0
LINE
  8
0
 10
-39.6869
 20
66.9464
 11
-39.927
 21
67.2366
  0
LINE
  8
0
 10
-39.927
 20
67.2366
 11
-40.1289
 21
67.5547
  0
LINE
  8
0
 10
-40.1289
 20
67.5547
 11
-40.2893
 21
67.8956
  0
LINE
  8
0
 10
-40.2893
 20
67.8956
 11
-40.4057
 21
68.2539
  0
LINE
  8
0
 10
-40.4057
 20
68.2539
 11
-40.4763
 21
68.624
  0
LINE
  8
0
 10
-40.4763
 20
68.624
 11
-40.5
 21
69
  0
LINE
  8
0
 10
-40.5
 20
69
 11
-40.4763
 21
69.376
  0
LINE
  8
0
 10
-40.4763
 20
69.376
 11
-40.4057
 21
69.7461
  0
LINE
  8
0
 10
-40.4057
 20
69.7461
 11
-40.2893
 21
70.1044
  0
LINE
  8
0
 10
-40.2893
 20
70.1044
 11
-40.1289
 21
70.4453
  0
LINE
  8
0
 10
-40.1289
 20
70.4453
 11
-39.927
 21
70.7634
  0
LINE
  8
0
 10
-39.927
 20
70.7634
 11
-39.6869
 21
71.0536
  0
LINE
  8
0
 10
-39.6869
 20
71.0536
 11
-39.4123
 21
71.3115
  0
LINE
  8
0
 10
-39.4123
 20
71.3115
 11
-39.1075
 21
71.533
  0
LINE
  8
0
 10
-39.1075
 20
71.533
 11
-38.7773
 21
71.7145
  0
LINE
  8
0
 10
-38.7773
 20
71.7145
 11
-38.427
 21
71.8532
  0
LINE
  8
0
 10
-38.427
 20
71.8532
 11
-38.0621
 21
71.9469
  0
LINE
  8
0
 10
-38.0621
 20
71.9469
 11
-37.6884
 21
71.9941
  0
LINE
  8
0
 10
-37.6884
 20
71.9941
 11
-37.3116
 21
71.9941
  0
LINE
  8
0
 10
-37.3116
 20
71.9941
 11
-36.9379
 21
71.9469
  0
LINE
  8
0
 10
-36.9379
 20
71.9469
 11
-36.5729
 21
71.8532
  0
LINE
  8
0
 10
-36.5729
 20
71.8532
 11
-36.2227
 21
71.7145
  0
LINE
  8
0
 10
-36.2227
 20
71.7145
 11
-35.8925
 21
71.533
  0
LINE
  8
0
 10
-35.8925
 20
71.533
 11
-35.5877
 21
71.3115
  0
LINE
  8
0
 10
-35.5877
 20
71.3115
 11
-35.3131
 21
71.0536
  0
LINE
  8
0
 10
-35.3131
 20
71.0536
 11
-35.0729
 21
70.7634
  0
LINE
  8
0
 10
-35.0729
 20
70.7634
 11
-34.8711
 21
70.4453
  0
LINE
  8
0
 10
-34.8711
 20
70.4453
 11
-34.7107
 21
70.1044
  0
LINE
  8
0
 10
-34.7107
 20
70.1044
 11
-34.5942
 21
69.7461
  0
LINE
  8
0
 10
-34.5942
 20
69.7461
 11
-34.5237
 21
69.376
  0
LINE
  8
0
 10
-34.5237
 20
69.376
 11
-34.5
 21
69
  0
LINE
  8
0
 10
-34.5
 20
69
 11
-34.5237
 21
68.624
  0
LINE
  8
0
 10
-34.5237
 20
68.624
 11
-34.5942
 21
68.2539
  0
LINE
  8
0
 10
-34.5942
 20
68.2539
 11
-34.7107
 21
67.8956
  0
LINE
  8
0
 10
-34.7107
 20
67.8956
 11
-34.8711
 21
67.5547
  0
LINE
  8
0
 10
-34.8711
 20
67.5547
 11
-35.0729
 21
67.2366
  0
LINE
  8
0
 10
-35.0729
 20
67.2366
 11
-35.3131
 21
66.9464
  0
LINE
  8
0
 10
-35.3131
 20
66.9464
 11
-35.5877
 21
66.6884
  0
LINE
  8
0
 10
-35.5877
 20
66.6884
 11
-35.8925
 21
66.467
  0
LINE
  8
0
 10
-35.8925
 20
66.467
 11
-36.2227
 21
66.2855
  0
LINE
  8
0
 10
-36.2227
 20
66.2855
 11
-36.5729
 21
66.1468
  0
LINE
  8
0
 10
-36.5729
 20
66.1468
 11
-36.9379
 21
66.0531
  0
LINE
  8
0
 10
-36.9379
 20
66.0531
 11
-37.3116
 21
66.0059
  0
LINE
  8
0
 10
-37.3116
 20
66.0059
 11
-37.6884
 21
66.0059
  0
LINE
  8
0
 10
-22.6884
 20
66.0059
 11
-23.0621
 21
66.0531
  0
LINE
  8
0
 10
-23.0621
 20
66.0531
 11
-23.427
 21
66.1468
  0
LINE
  8
0
 10
-23.427
 20
66.1468
 11
-23.7773
 21
66.2855
  0
LINE
  8
0
 10
-23.7773
 20
66.2855
 11
-24.1075
 21
66.467
  0
LINE
  8
0
 10
-24.1075
 20
66.467
 11
-24.4123
 21
66.6884
  0
LINE
  8
0
 10
-24.4123
 20
66.6884
 11
-24.6869
 21
66.9464
  0
LINE
  8
0
 10
-24.6869
 20
66.9464
 11
-24.927
 21
67.2366
  0
LINE
  8
0
 10
-24.927
 20
67.2366
 11
-25.1289
 21
67.5547
  0
LINE
  8
0
 10
-25.1289
 20
67.5547
 11
-25.2893
 21
67.8956
  0
LINE
  8
0
 10
-25.2893
 20
67.8956
 11
-25.4057
 21
68.2539
  0
LINE
  8
0
 10
-25.4057
 20
68.2539
 11
-25.4763
 21
68.624
  0
LINE
  8
0
 10
-25.4763
 20
68.624
 11
-25.5
 21
69
  0
LINE
  8
0
 10
-25.5
 20
69
 11
-25.4763
 21
69.376
  0
LINE
  8
0
 10
-25.4763
 20
69.376
 11
-25.4057
 21
69.7461
  0
LINE
  8
0
 10
-25.4057
 20
69.7461
 11
-25.2893
 21
70.1044
  0
LINE
  8
0
 10
-25.2893
 20
70.1044
 11
-25.1289
 21
70.4453
  0
LINE
  8
0
 10
-25.1289
 20
70.4453
 11
-24.927
 21
70.7634
  0
LINE
  8
0
 10
-24.927
 20
70.7634
 11
-24.6869
 21
71.0536
  0
LINE
  8
0
 10
-24.6869
 20
71.0536
 11
-24.4123
 21
71.3115
  0
LINE
  8
0
 10
-24.4123
 20
71.3115
 11
-24.1075
 21
71.533
  0
LINE
  8
0
 10
-24.1075
 20
71.533
 11
-23.7773
 21
71.7145
  0
LINE
  8
0
 10
-23.7773
 20
71.7145
 11
-23.427
 21
71.8532
  0
LINE
  8
0
 10
-23.427
 20
71.8532
 11
-23.0621
 21
71.9469
  0
LINE
  8
0
 10
-23.0621
 20
71.9469
 11
-22.6884
 21
71.9941
  0
LINE
  8
0
 10
-22.6884
 20
71.9941
 11
-22.3116
 21
71.9941
  0
LINE
  8
0
 10
-22.3116
 20
71.9941
 11
-21.9379
 21
71.9469
  0
LINE
  8
0
 10
-21.9379
 20
71.9469
 11
-21.5729
 21
71.8532
  0
LINE
  8
0
 10
-21.5729
 20
71.8532
 11
-21.2227
 21
71.7145
  0
LINE
  8
0
 10
-21.2227
 20
71.7145
 11
-20.8925
 21
71.533
  0
LINE
  8
0
 10
-20.8925
 20
71.533
 11
-20.5877
 21
71.3115
  0
LINE
  8
0
 10
-20.5877
 20
71.3115
 11
-20.3131
 21
71.0536
  0
LINE
  8
0
 10
-20.3131
 20
71.0536
 11
-20.0729
 21
70.7634
  0
LINE
  8
0
 10
-20.0729
 20
70.7634
 11
-19.8711
 21
70.4453
  0
LINE
  8
0
 10
-19.8711
 20
70.4453
 11
-19.7107
 21
70.1044
  0
LINE
  8
0
 10
-19.7107
 20
70.1044
 11
-19.5942
 21
69.7461
  0
LINE
  8
0
 10
-19.5942
 20
69.7461
 11
-19.5237
 21
69.376
  0
LINE
  8
0
 10
-19.5237
 20
69.376
 11
-19.5
 21
69
  0
LINE
  8
0
 10
-19.5
 20
69
 11
-19.5237
 21
68.624
  0
LINE
  8
0
 10
-19.5237
 20
68.624
 11
-19.5942
 21
68.2539
  0
LINE
  8
0
 10
-19.5942
 20
68.2539
 11
-19.7107
 21
67.8956
  0
LINE
  8
0
 10
-19.7107
 20
67.8956
 11
-19.8711
 21
67.5547
  0
LINE
  8
0
 10
-19.8711
 20
67.5547
 11
-20.0729
 21
67.2366
  0
LINE
  8
0
 10
-20.0729
 20
67.2366
 11
-20.3131
 21
66.9464
  0
LINE
  8
0
 10
-20.3131
 20
66.9464
 11
-20.5877
 21
66.6884
  0
LINE
  8
0
 10
-20.5877
 20
66.6884
 11
-20.8925
 21
66.467
  0
LINE
  8
0
 10
-20.8925
 20
66.467
 11
-21.2227
 21
66.2855
  0
LINE
  8
0
 10
-21.2227
 20
66.2855
 11
-21.5729
 21
66.1468
  0
LINE
  8
0
 10
-21.5729
 20
66.1468
 11
-21.9379
 21
66.0531
  0
LINE
  8
0
 10
-21.9379
 20
66.0531
 11
-22.3116
 21
66.0059
  0
LINE
  8
0
 10
-22.3116
 20
66.0059
 11
-22.6884
 21
66.0059
  0
LINE
  8
0
 10
22.3116
 20
66.0059
 11
21.9379
 21
66.0531
  0
LINE
  8
0
 10
21.9379
 20
66.0531
 11
21.5729
 21
66.1468
  0
LINE
  8
0
 10
21.5729
 20
66.1468
 11
21.2227
 21
66.2855
  0
LINE
  8
0
 10
21.2227
 20
66.2855
 11
20.8925
 21
66.467
  0
LINE
  8
0
 10
20.8925
 20
66.467
 11
20.5877
 21
66.6884
  0
LINE
  8
0
 10
20.5877
 20
66.6884
 11
20.3131
 21
66.9464
  0
LINE
  8
0
 10
20.3131
 20
66.9464
 11
20.0729
 21
67.2366
  0
LINE
  8
0
 10
20.0729
 20
67.2366
 11
19.8711
 21
67.5547
  0
LINE
  8
0
 10
19.8711
 20
67.5547
 11
19.7107
 21
67.8956
  0
LINE
  8
0
 10
19.7107
 20
67.8956
 11
19.5942
 21
68.2539
  0
LINE
  8
0
 10
19.5942
 20
68.2539
 11
19.5237
 21
68.624
  0
LINE
  8
0
 10
19.5237
 20
68.624
 11
19.5
 21
69
  0
LINE
  8
0
 10
19.5
 20
69
 11
19.5237
 21
69.376
  0
LINE
  8
0
 10
19.5237
 20
69.376
 11
19.5942
 21
69.7461
  0
LINE
  8
0
 10
19.5942
 20
69.7461
 11
19.7107
 21
70.1044
  0
LINE
  8
0
 10
19.7107
 20
70.1044
 11
19.8711
 21
70.4453
  0
LINE
  8
0
 10
19.8711
 20
70.4453
 11
20.0729
 21
70.7634
  0
LINE
  8
0
 10
20.0729
 20
70.7634
 11
20.3131
 21
71.0536
  0
LINE
  8
0
 10
20.3131
 20
71.0536
 11
20.5877
 21
71.3115
  0
LINE
  8
0
 10
20.5877
 20
71.3115
 11
20.8925
 21
71.533
  0
LINE
  8
0
 10
20.8925
 20
71.533
 11
21.2227
 21
71.7145
  0
LINE
  8
0
 10
21.2227
 20
71.7145
 11
21.5729
 21
71.8532
  0
LINE
  8
0
 10
21.5729
 20
71.8532
 11
21.9379
 21
71.9469
  0
LINE
  8
0
 10
21.9379
 20
71.9469
 11
22.3116
 21
71.9941
  0
LINE
  8
0
 10
22.3116
 20
71.9941
 11
22.6884
 21
71.9941
  0
LINE
  8
0
 10
22.6884
 20
71.9941
 11
23.0621
 21
71.9469
  0
LINE
  8
0
 10
23.0621
 20
71.9469
 11
23.427
 21
71.8532
  0
LINE
  8
0
 10
23.427
 20
71.8532
 11
23.7773
 21
71.7145
  0
LINE
  8
0
 10
23.7773
 20
71.7145
 11
24.1075
 21
71.533
  0
LINE
  8
0
 10
24.1075
 20
71.533
 11
24.4123
 21
71.3115
  0
LINE
  8
0
 10
24.4123
 20
71.3115
 11
24.6869
 21
71.0536
  0
LINE
  8
0
 10
24.6869
 20
71.0536
 11
24.927
 21
70.7634
  0
LINE
  8
0
 10
24.927
 20
70.7634
 11
25.1289
 21
70.4453
  0
LINE
  8
0
 10
25.1289
 20
70.4453
 11
25.2893
 21
70.1044
  0
LINE
  8
0
 10
25.2893
 20
70.1044
 11
25.4057
 21
69.7461
  0
LINE
  8
0
 10
25.4057
 20
69.7461
 11
25.4763
 21
69.376
  0
LINE
  8
0
 10
25.4763
 20
69.376
 11
25.5
 21
69
  0
LINE
  8
0
 10
25.5
 20
69
 11
25.4763
 21
68.624
  0
LINE
  8
0
 10
25.4763
 20
68.624
 11
25.4057
 21
68.2539
  0
LINE
  8
0
 10
25.4057
 20
68.2539
 11
25.2893
 21
67.8956
  0
LINE
  8
0
 10
25.2893
 20
67.8956
 11
25.1289
 21
67.5547
  0
LINE
  8
0
 10
25.1289
 20
67.5547
 11
24.927
 21
67.2366
  0
LINE
  8
0
 10
24.927
 20
67.2366
 11
24.6869
 21
66.9464
  0
LINE
  8
0
 10
24.6869
 20
66.9464
 11
24.4123
 21
66.6884
  0
LINE
  8
0
 10
24.4123
 20
66.6884
 11
24.1075
 21
66.467
  0
LINE
  8
0
 10
24.1075
 20
66.467
 11
23.7773
 21
66.2855
  0
LINE
  8
0
 10
23.7773
 20
66.2855
 11
23.427
 21
66.1468
  0
LINE
  8
0
 10
23.427
 20
66.1468
 11
23.0621
 21
66.0531
  0
LINE
  8
0
 10
23.0621
 20
66.0531
 11
22.6884
 21
66.0059
  0
LINE
  8
0
 10
22.6884
 20
66.0059
 11
22.3116
 21
66.0059
  0
LINE
  8
0
 10
37.3116
 20
66.0059
 11
36.9379
 21
66.0531
  0
LINE
  8
0
 10
36.9379
 20
66.0531
 11
36.5729
 21
66.1468
  0
LINE
  8
0
 10
36.5729
 20
66.1468
 11
36.2227
 21
66.2855
  0
LINE
  8
0
 10
36.2227
 20
66.2855
 11
35.8925
 21
66.467
  0
LINE
  8
0
 10
35.8925
 20
66.467
 11
35.5877
 21
66.6884
  0
LINE
  8
0
 10
35.5877
 20
66.6884
 11
35.3131
 21
66.9464
  0
LINE
  8
0
 10
35.3131
 20
66.9464
 11
35.0729
 21
67.2366
  0
LINE
  8
0
 10
35.0729
 20
67.2366
 11
34.8711
 21
67.5547
  0
LINE
  8
0
 10
34.8711
 20
67.5547
 11
34.7107
 21
67.8956
  0
LINE
  8
0
 10
34.7107
 20
67.8956
 11
34.5942
 21
68.2539
  0
LINE
  8
0
 10
34.5942
 20
68.2539
 11
34.5237
 21
68.624
  0
LINE
  8
0
 10
34.5237
 20
68.624
 11
34.5
 21
69
  0
LINE
  8
0
 10
34.5
 20
69
 11
34.5237
 21
69.376
  0
LINE
  8
0
 10
34.5237
 20
69.376
 11
34.5942
 21
69.7461
  0
LINE
  8
0
 10
34.5942
 20
69.7461
 11
34.7107
 21
70.1044
  0
LINE
  8
0
 10
34.7107
 20
70.1044
 11
34.8711
 21
70.4453
  0
LINE
  8
0
 10
34.8711
 20
70.4453
 11
35.0729
 21
70.7634
  0
LINE
  8
0
 10
35.0729
 20
70.7634
 11
35.3131
 21
71.0536
  0
LINE
  8
0
 10
35.3131
 20
71.0536
 11
35.5877
 21
71.3115
  0
LINE
  8
0
 10
35.5877
 20
71.3115
 11
35.8925
 21
71.533
  0
LINE
  8
0
 10
35.8925
 20
71.533
 11
36.2227
 21
71.7145
  0
LINE
  8
0
 10
36.2227
 20
71.7145
 11
36.5729
 21
71.8532
  0
LINE
  8
0
 10
36.5729
 20
71.8532
 11
36.9379
 21
71.9469
  0
LINE
  8
0
 10
36.9379
 20
71.9469
 11
37.3116
 21
71.9941
  0
LINE
  8
0
 10
37.3116
 20
71.9941
 11
37.6884
 21
71.9941
  0
LINE
  8
0
 10
37.6884
 20
71.9941
 11
38.0621
 21
71.9469
  0
LINE
  8
0
 10
38.0621
 20
71.9469
 11
38.427
 21
71.8532
  0
LINE
  8
0
 10
38.427
 20
71.8532
 11
38.7773
 21
71.7145
  0
LINE
  8
0
 10
38.7773
 20
71.7145
 11
39.1075
 21
71.533
  0
LINE
  8
0
 10
39.1075
 20
71.533
 11
39.4123
 21
71.3115
  0
LINE
  8
0
 10
39.4123
 20
71.3115
 11
39.6869
 21
71.0536
  0
LINE
  8
0
 10
39.6869
 20
71.0536
 11
39.927
 21
70.7634
  0
LINE
  8
0
 10
39.927
 20
70.7634
 11
40.1289
 21
70.4453
  0
LINE
  8
0
 10
40.1289
 20
70.4453
 11
40.2893
 21
70.1044
  0
LINE
  8
0
 10
40.2893
 20
70.1044
 11
40.4057
 21
69.7461
  0
LINE
  8
0
 10
40.4057
 20
69.7461
 11
40.4763
 21
69.376
  0
LINE
  8
0
 10
40.4763
 20
69.376
 11
40.5
 21
69
  0
LINE
  8
0
 10
40.5
 20
69
 11
40.4763
 21
68.624
  0
LINE
  8
0
 10
40.4763
 20
68.624
 11
40.4057
 21
68.2539
  0
LINE
  8
0
 10
40.4057
 20
68.2539
 11
40.2893
 21
67.8956
  0
LINE
  8
0
 10
40.2893
 20
67.8956
 11
40.1289
 21
67.5547
  0
LINE
  8
0
 10
40.1289
 20
67.5547
 11
39.927
 21
67.2366
  0
LINE
  8
0
 10
39.927
 20
67.2366
 11
39.6869
 21
66.9464
  0
LINE
  8
0
 10
39.6869
 20
66.9464
 11
39.4123
 21
66.6884
  0
LINE
  8
0
 10
39.4123
 20
66.6884
 11
39.1075
 21
66.467
  0
LINE
  8
0
 10
39.1075
 20
66.467
 11
38.7773
 21
66.2855
  0
LINE
  8
0
 10
38.7773
 20
66.2855
 11
38.427
 21
66.1468
  0
LINE
  8
0
 10
38.427
 20
66.1468
 11
38.0621
 21
66.0531
  0
LINE
  8
0
 10
38.0621
 20
66.0531
 11
37.6884
 21
66.0059
  0
LINE
  8
0
 10
37.6884
 20
66.0059
 11
37.3116
 21
66.0059
  0
LINE
  8
0
 10
7.31161
 20
66.0059
 11
6.93785
 21
66.0531
  0
LINE
  8
0
 10
6.93785
 20
66.0531
 11
6.57294
 21
66.1468
  0
LINE
  8
0
 10
6.57294
 20
66.1468
 11
6.22266
 21
66.2855
  0
LINE
  8
0
 10
6.22266
 20
66.2855
 11
5.89252
 21
66.467
  0
LINE
  8
0
 10
5.89252
 20
66.467
 11
5.58772
 21
66.6884
  0
LINE
  8
0
 10
5.58772
 20
66.6884
 11
5.31308
 21
66.9464
  0
LINE
  8
0
 10
5.31308
 20
66.9464
 11
5.07294
 21
67.2366
  0
LINE
  8
0
 10
5.07294
 20
67.2366
 11
4.87108
 21
67.5547
  0
LINE
  8
0
 10
4.87108
 20
67.5547
 11
4.71066
 21
67.8956
  0
LINE
  8
0
 10
4.71066
 20
67.8956
 11
4.59424
 21
68.2539
  0
LINE
  8
0
 10
4.59424
 20
68.2539
 11
4.52365
 21
68.624
  0
LINE
  8
0
 10
4.52365
 20
68.624
 11
4.5
 21
69
  0
LINE
  8
0
 10
4.5
 20
69
 11
4.52365
 21
69.376
  0
LINE
  8
0
 10
4.52365
 20
69.376
 11
4.59424
 21
69.7461
  0
LINE
  8
0
 10
4.59424
 20
69.7461
 11
4.71066
 21
70.1044
  0
LINE
  8
0
 10
4.71066
 20
70.1044
 11
4.87108
 21
70.4453
  0
LINE
  8
0
 10
4.87108
 20
70.4453
 11
5.07294
 21
70.7634
  0
LINE
  8
0
 10
5.07294
 20
70.7634
 11
5.31308
 21
71.0536
  0
LINE
  8
0
 10
5.31308
 20
71.0536
 11
5.58772
 21
71.3115
  0
LINE
  8
0
 10
5.58772
 20
71.3115
 11
5.89252
 21
71.533
  0
LINE
  8
0
 10
5.89252
 20
71.533
 11
6.22266
 21
71.7145
  0
LINE
  8
0
 10
6.22266
 20
71.7145
 11
6.57294
 21
71.8532
  0
LINE
  8
0
 10
6.57294
 20
71.8532
 11
6.93785
 21
71.9469
  0
LINE
  8
0
 10
6.93785
 20
71.9469
 11
7.31161
 21
71.9941
  0
LINE
  8
0
 10
7.31161
 20
71.9941
 11
7.68837
 21
71.9941
  0
LINE
  8
0
 10
7.68837
 20
71.9941
 11
8.06213
 21
71.9469
  0
LINE
  8
0
 10
8.06213
 20
71.9469
 11
8.42705
 21
71.8532
  0
LINE
  8
0
 10
8.42705
 20
71.8532
 11
8.77733
 21
71.7145
  0
LINE
  8
0
 10
8.77733
 20
71.7145
 11
9.10747
 21
71.533
  0
LINE
  8
0
 10
9.10747
 20
71.533
 11
9.41226
 21
71.3115
  0
LINE
  8
0
 10
9.41226
 20
71.3115
 11
9.6869
 21
71.0536
  0
LINE
  8
0
 10
9.6869
 20
71.0536
 11
9.92705
 21
70.7634
  0
LINE
  8
0
 10
9.92705
 20
70.7634
 11
10.1289
 21
70.4453
  0
LINE
  8
0
 10
10.1289
 20
70.4453
 11
10.2893
 21
70.1044
  0
LINE
  8
0
 10
10.2893
 20
70.1044
 11
10.4057
 21
69.7461
  0
LINE
  8
0
 10
10.4057
 20
69.7461
 11
10.4763
 21
69.376
  0
LINE
  8
0
 10
10.4763
 20
69.376
 11
10.5
 21
69
  0
LINE
  8
0
 10
10.5
 20
69
 11
10.4763
 21
68.624
  0
LINE
  8
0
 10
10.4763
 20
68.624
 11
10.4057
 21
68.2539
  0
LINE
  8
0
 10
10.4057
 20
68.2539
 11
10.2893
 21
67.8956
  0
LINE
  8
0
 10
10.2893
 20
67.8956
 11
10.1289
 21
67.5547
  0
LINE
  8
0
 10
10.1289
 20
67.5547
 11
9.92705
 21
67.2366
  0
LINE
  8
0
 10
9.92705
 20
67.2366
 11
9.6869
 21
66.9464
  0
LINE
  8
0
 10
9.6869
 20
66.9464
 11
9.41226
 21
66.6884
  0
LINE
  8
0
 10
9.41226
 20
66.6884
 11
9.10747
 21
66.467
  0
LINE
  8
0
 10
9.10747
 20
66.467
 11
8.77733
 21
66.2855
  0
LINE
  8
0
 10
8.77733
 20
66.2855
 11
8.42705
 21
66.1468
  0
LINE
  8
0
 10
8.42705
 20
66.1468
 11
8.06213
 21
66.0531
  0
LINE
  8
0
 10
8.06213
 20
66.0531
 11
7.68837
 21
66.0059
  0
LINE
  8
0
 10
7.68837
 20
66.0059
 11
7.31161
 21
66.0059
  0
LINE
  8
0
 10
-0.0941772
 20
67.5029
 11
-0.281067
 21
67.5266
  0
LINE
  8
0
 10
-0.281067
 20
67.5266
 11
-0.463516
 21
67.5734
  0
LINE
  8
0
 10
-0.463516
 20
67.5734
 11
-0.638657
 21
67.6427
  0
LINE
  8
0
 10
-0.638657
 20
67.6427
 11
-0.803726
 21
67.7335
  0
LINE
  8
0
 10
-0.803726
 20
67.7335
 11
-0.956131
 21
67.8442
  0
LINE
  8
0
 10
-0.956131
 20
67.8442
 11
-1.09344
 21
67.9732
  0
LINE
  8
0
 10
-1.09344
 20
67.9732
 11
-1.21352
 21
68.1183
  0
LINE
  8
0
 10
-1.21352
 20
68.1183
 11
-1.31445
 21
68.2774
  0
LINE
  8
0
 10
-1.31445
 20
68.2774
 11
-1.39465
 21
68.4478
  0
LINE
  8
0
 10
-1.39465
 20
68.4478
 11
-1.45287
 21
68.627
  0
LINE
  8
0
 10
-1.45287
 20
68.627
 11
-1.48816
 21
68.812
  0
LINE
  8
0
 10
-1.48816
 20
68.812
 11
-1.5
 21
69
  0
LINE
  8
0
 10
-1.5
 20
69
 11
-1.48816
 21
69.188
  0
LINE
  8
0
 10
-1.48816
 20
69.188
 11
-1.45287
 21
69.373
  0
LINE
  8
0
 10
-1.45287
 20
69.373
 11
-1.39465
 21
69.5522
  0
LINE
  8
0
 10
-1.39465
 20
69.5522
 11
-1.31445
 21
69.7226
  0
LINE
  8
0
 10
-1.31445
 20
69.7226
 11
-1.21352
 21
69.8817
  0
LINE
  8
0
 10
-1.21352
 20
69.8817
 11
-1.09344
 21
70.0268
  0
LINE
  8
0
 10
-1.09344
 20
70.0268
 11
-0.956131
 21
70.1558
  0
LINE
  8
0
 10
-0.956131
 20
70.1558
 11
-0.803726
 21
70.2665
  0
LINE
  8
0
 10
-0.803726
 20
70.2665
 11
-0.638657
 21
70.3572
  0
LINE
  8
0
 10
-0.638657
 20
70.3572
 11
-0.463516
 21
70.4266
  0
LINE
  8
0
 10
-0.463516
 20
70.4266
 11
-0.281067
 21
70.4734
  0
LINE
  8
0
 10
-0.281067
 20
70.4734
 11
-0.0941772
 21
70.497
  0
LINE
  8
0
 10
-0.0941772
 20
70.497
 11
0.0941772
 21
70.497
  0
LINE
  8
0
 10
0.0941772
 20
70.497
 11
0.281067
 21
70.4734
  0
LINE
  8
0
 10
0.281067
 20
70.4734
 11
0.463516
 21
70.4266
  0
LINE
  8
0
 10
0.463516
 20
70.4266
 11
0.638657
 21
70.3572
  0
LINE
  8
0
 10
0.638657
 20
70.3572
 11
0.803726
 21
70.2665
  0
LINE
  8
0
 10
0.803726
 20
70.2665
 11
0.956131
 21
70.1558
  0
LINE
  8
0
 10
0.956131
 20
70.1558
 11
1.09344
 21
70.0268
  0
LINE
  8
0
 10
1.09344
 20
70.0268
 11
1.21352
 21
69.8817
  0
LINE
  8
0
 10
1.21352
 20
69.8817
 11
1.31445
 21
69.7226
  0
LINE
  8
0
 10
1.31445
 20
69.7226
 11
1.39465
 21
69.5522
  0
LINE
  8
0
 10
1.39465
 20
69.5522
 11
1.45287
 21
69.373
  0
LINE
  8
0
 10
1.45287
 20
69.373
 11
1.48816
 21
69.188
  0
LINE
  8
0
 10
1.48816
 20
69.188
 11
1.5
 21
69
  0
LINE
  8
0
 10
1.5
 20
69
 11
1.48816
 21
68.812
  0
LINE
  8
0
 10
1.48816
 20
68.812
 11
1.45287
 21
68.627
  0
LINE
  8
0
 10
1.45287
 20
68.627
 11
1.39465
 21
68.4478
  0
LINE
  8
0
 10
1.39465
 20
68.4478
 11
1.31445
 21
68.2774
  0
LINE
  8
0
 10
1.31445
 20
68.2774
 11
1.21352
 21
68.1183
  0
LINE
  8
0
 10
1.21352
 20
68.1183
 11
1.09344
 21
67.9732
  0
LINE
  8
0
 10
1.09344
 20
67.9732
 11
0.956131
 21
67.8442
  0
LINE
  8
0
 10
0.956131
 20
67.8442
 11
0.803726
 21
67.7335
  0
LINE
  8
0
 10
0.803726
 20
67.7335
 11
0.638657
 21
67.6427
  0
LINE
  8
0
 10
0.638657
 20
67.6427
 11
0.463516
 21
67.5734
  0
LINE
  8
0
 10
0.463516
 20
67.5734
 11
0.281067
 21
67.5266
  0
LINE
  8
0
 10
0.281067
 20
67.5266
 11
0.0941772
 21
67.5029
  0
LINE
  8
0
 10
0.0941772
 20
67.5029
 11
-0.0941772
 21
67.5029
  0
LINE
  8
0
 10
-30.0942
 20
67.5029
 11
-30.2811
 21
67.5266
  0
LINE
  8
0
 10
-30.2811
 20
67.5266
 11
-30.4635
 21
67.5734
  0
LINE
  8
0
 10
-30.4635
 20
67.5734
 11
-30.6387
 21
67.6427
  0
LINE
  8
0
 10
-30.6387
 20
67.6427
 11
-30.8037
 21
67.7335
  0
LINE
  8
0
 10
-30.8037
 20
67.7335
 11
-30.9561
 21
67.8442
  0
LINE
  8
0
 10
-30.9561
 20
67.8442
 11
-31.0934
 21
67.9732
  0
LINE
  8
0
 10
-31.0934
 20
67.9732
 11
-31.2135
 21
68.1183
  0
LINE
  8
0
 10
-31.2135
 20
68.1183
 11
-31.3145
 21
68.2774
  0
LINE
  8
0
 10
-31.3145
 20
68.2774
 11
-31.3947
 21
68.4478
  0
LINE
  8
0
 10
-31.3947
 20
68.4478
 11
-31.4529
 21
68.627
  0
LINE
  8
0
 10
-31.4529
 20
68.627
 11
-31.4882
 21
68.812
  0
LINE
  8
0
 10
-31.4882
 20
68.812
 11
-31.5
 21
69
  0
LINE
  8
0
 10
-31.5
 20
69
 11
-31.4882
 21
69.188
  0
LINE
  8
0
 10
-31.4882
 20
69.188
 11
-31.4529
 21
69.373
  0
LINE
  8
0
 10
-31.4529
 20
69.373
 11
-31.3947
 21
69.5522
  0
LINE
  8
0
 10
-31.3947
 20
69.5522
 11
-31.3145
 21
69.7226
  0
LINE
  8
0
 10
-31.3145
 20
69.7226
 11
-31.2135
 21
69.8817
  0
LINE
  8
0
 10
-31.2135
 20
69.8817
 11
-31.0934
 21
70.0268
  0
LINE
  8
0
 10
-31.0934
 20
70.0268
 11
-30.9561
 21
70.1558
  0
LINE
  8
0
 10
-30.9561
 20
70.1558
 11
-30.8037
 21
70.2665
  0
LINE
  8
0
 10
-30.8037
 20
70.2665
 11
-30.6387
 21
70.3572
  0
LINE
  8
0
 10
-30.6387
 20
70.3572
 11
-30.4635
 21
70.4266
  0
LINE
  8
0
 10
-30.4635
 20
70.4266
 11
-30.2811
 21
70.4734
  0
LINE
  8
0
 10
-30.2811
 20
70.4734
 11
-30.0942
 21
70.497
  0
LINE
  8
0
 10
-30.0942
 20
70.497
 11
-29.9058
 21
70.497
  0
LINE
  8
0
 10
-29.9058
 20
70.497
 11
-29.7189
 21
70.4734
  0
LINE
  8
0
 10
-29.7189
 20
70.4734
 11
-29.5365
 21
70.4266
  0
LINE
  8
0
 10
-29.5365
 20
70.4266
 11
-29.3613
 21
70.3572
  0
LINE
  8
0
 10
-29.3613
 20
70.3572
 11
-29.1963
 21
70.2665
  0
LINE
  8
0
 10
-29.1963
 20
70.2665
 11
-29.0439
 21
70.1558
  0
LINE
  8
0
 10
-29.0439
 20
70.1558
 11
-28.9065
 21
70.0268
  0
LINE
  8
0
 10
-28.9065
 20
70.0268
 11
-28.7865
 21
69.8817
  0
LINE
  8
0
 10
-28.7865
 20
69.8817
 11
-28.6855
 21
69.7226
  0
LINE
  8
0
 10
-28.6855
 20
69.7226
 11
-28.6053
 21
69.5522
  0
LINE
  8
0
 10
-28.6053
 20
69.5522
 11
-28.5471
 21
69.373
  0
LINE
  8
0
 10
-28.5471
 20
69.373
 11
-28.5118
 21
69.188
  0
LINE
  8
0
 10
-28.5118
 20
69.188
 11
-28.5
 21
69
  0
LINE
  8
0
 10
-28.5
 20
69
 11
-28.5118
 21
68.812
  0
LINE
  8
0
 10
-28.5118
 20
68.812
 11
-28.5471
 21
68.627
  0
LINE
  8
0
 10
-28.5471
 20
68.627
 11
-28.6053
 21
68.4478
  0
LINE
  8
0
 10
-28.6053
 20
68.4478
 11
-28.6855
 21
68.2774
  0
LINE
  8
0
 10
-28.6855
 20
68.2774
 11
-28.7865
 21
68.1183
  0
LINE
  8
0
 10
-28.7865
 20
68.1183
 11
-28.9065
 21
67.9732
  0
LINE
  8
0
 10
-28.9065
 20
67.9732
 11
-29.0439
 21
67.8442
  0
LINE
  8
0
 10
-29.0439
 20
67.8442
 11
-29.1963
 21
67.7335
  0
LINE
  8
0
 10
-29.1963
 20
67.7335
 11
-29.3613
 21
67.6427
  0
LINE
  8
0
 10
-29.3613
 20
67.6427
 11
-29.5365
 21
67.5734
  0
LINE
  8
0
 10
-29.5365
 20
67.5734
 11
-29.7189
 21
67.5266
  0
LINE
  8
0
 10
-29.7189
 20
67.5266
 11
-29.9058
 21
67.5029
  0
LINE
  8
0
 10
-29.9058
 20
67.5029
 11
-30.0942
 21
67.5029
  0
LINE
  8
0
 10
29.9058
 20
67.5029
 11
29.7189
 21
67.5266
  0
LINE
  8
0
 10
29.7189
 20
67.5266
 11
29.5365
 21
67.5734
  0
LINE
  8
0
 10
29.5365
 20
67.5734
 11
29.3613
 21
67.6427
  0
LINE
  8
0
 10
29.3613
 20
67.6427
 11
29.1963
 21
67.7335
  0
LINE
  8
0
 10
29.1963
 20
67.7335
 11
29.0439
 21
67.8442
  0
LINE
  8
0
 10
29.0439
 20
67.8442
 11
28.9065
 21
67.9732
  0
LINE
  8
0
 10
28.9065
 20
67.9732
 11
28.7865
 21
68.1183
  0
LINE
  8
0
 10
28.7865
 20
68.1183
 11
28.6855
 21
68.2774
  0
LINE
  8
0
 10
28.6855
 20
68.2774
 11
28.6053
 21
68.4478
  0
LINE
  8
0
 10
28.6053
 20
68.4478
 11
28.5471
 21
68.627
  0
LINE
  8
0
 10
28.5471
 20
68.627
 11
28.5118
 21
68.812
  0
LINE
  8
0
 10
28.5118
 20
68.812
 11
28.5
 21
69
  0
LINE
  8
0
 10
28.5
 20
69
 11
28.5118
 21
69.188
  0
LINE
  8
0
 10
28.5118
 20
69.188
 11
28.5471
 21
69.373
  0
LINE
  8
0
 10
28.5471
 20
69.373
 11
28.6053
 21
69.5522
  0
LINE
  8
0
 10
28.6053
 20
69.5522
 11
28.6855
 21
69.7226
  0
LINE
  8
0
 10
28.6855
 20
69.7226
 11
28.7865
 21
69.8817
  0
LINE
  8
0
 10
28.7865
 20
69.8817
 11
28.9065
 21
70.0268
  0
LINE
  8
0
 10
28.9065
 20
70.0268
 11
29.0439
 21
70.1558
  0
LINE
  8
0
 10
29.0439
 20
70.1558
 11
29.1963
 21
70.2665
  0
LINE
  8
0
 10
29.1963
 20
70.2665
 11
29.3613
 21
70.3572
  0
LINE
  8
0
 10
29.3613
 20
70.3572
 11
29.5365
 21
70.4266
  0
LINE
  8
0
 10
29.5365
 20
70.4266
 11
29.7189
 21
70.4734
  0
LINE
  8
0
 10
29.7189
 20
70.4734
 11
29.9058
 21
70.497
  0
LINE
  8
0
 10
29.9058
 20
70.497
 11
30.0942
 21
70.497
  0
LINE
  8
0
 10
30.0942
 20
70.497
 11
30.2811
 21
70.4734
  0
LINE
  8
0
 10
30.2811
 20
70.4734
 11
30.4635
 21
70.4266
  0
LINE
  8
0
 10
30.4635
 20
70.4266
 11
30.6387
 21
70.3572
  0
LINE
  8
0
 10
30.6387
 20
70.3572
 11
30.8037
 21
70.2665
  0
LINE
  8
0
 10
30.8037
 20
70.2665
 11
30.9561
 21
70.1558
  0
LINE
  8
0
 10
30.9561
 20
70.1558
 11
31.0934
 21
70.0268
  0
LINE
  8
0
 10
31.0934
 20
70.0268
 11
31.2135
 21
69.8817
  0
LINE
  8
0
 10
31.2135
 20
69.8817
 11
31.3145
 21
69.7226
  0
LINE
  8
0
 10
31.3145
 20
69.7226
 11
31.3947
 21
69.5522
  0
LINE
  8
0
 10
31.3947
 20
69.5522
 11
31.4529
 21
69.373
  0
LINE
  8
0
 10
31.4529
 20
69.373
 11
31.4882
 21
69.188
  0
LINE
  8
0
 10
31.4882
 20
69.188
 11
31.5
 21
69
  0
LINE
  8
0
 10
31.5
 20
69
 11
31.4882
 21
68.812
  0
LINE
  8
0
 10
31.4882
 20
68.812
 11
31.4529
 21
68.627
  0
LINE
  8
0
 10
31.4529
 20
68.627
 11
31.3947
 21
68.4478
  0
LINE
  8
0
 10
31.3947
 20
68.4478
 11
31.3145
 21
68.2774
  0
LINE
  8
0
 10
31.3145
 20
68.2774
 11
31.2135
 21
68.1183
  0
LINE
  8
0
 10
31.2135
 20
68.1183
 11
31.0934
 21
67.9732
  0
LINE
  8
0
 10
31.0934
 20
67.9732
 11
30.9561
 21
67.8442
  0
LINE
  8
0
 10
30.9561
 20
67.8442
 11
30.8037
 21
67.7335
  0
LINE
  8
0
 10
30.8037
 20
67.7335
 11
30.6387
 21
67.6427
  0
LINE
  8
0
 10
30.6387
 20
67.6427
 11
30.4635
 21
67.5734
  0
LINE
  8
0
 10
30.4635
 20
67.5734
 11
30.2811
 21
67.5266
  0
LINE
  8
0
 10
30.2811
 20
67.5266
 11
30.0942
 21
67.5029
  0
LINE
  8
0
 10
30.0942
 20
67.5029
 11
29.9058
 21
67.5029
  0
LINE
  8
0
 10
-15.0942
 20
67.5029
 11
-15.2811
 21
67.5266
  0
LINE
  8
0
 10
-15.2811
 20
67.5266
 11
-15.4635
 21
67.5734
  0
LINE
  8
0
 10
-15.4635
 20
67.5734
 11
-15.6387
 21
67.6427
  0
LINE
  8
0
 10
-15.6387
 20
67.6427
 11
-15.8037
 21
67.7335
  0
LINE
  8
0
 10
-15.8037
 20
67.7335
 11
-15.9561
 21
67.8442
  0
LINE
  8
0
 10
-15.9561
 20
67.8442
 11
-16.0934
 21
67.9732
  0
LINE
  8
0
 10
-16.0934
 20
67.9732
 11
-16.2135
 21
68.1183
  0
LINE
  8
0
 10
-16.2135
 20
68.1183
 11
-16.3145
 21
68.2774
  0
LINE
  8
0
 10
-16.3145
 20
68.2774
 11
-16.3947
 21
68.4478
  0
LINE
  8
0
 10
-16.3947
 20
68.4478
 11
-16.4529
 21
68.627
  0
LINE
  8
0
 10
-16.4529
 20
68.627
 11
-16.4882
 21
68.812
  0
LINE
  8
0
 10
-16.4882
 20
68.812
 11
-16.5
 21
69
  0
LINE
  8
0
 10
-16.5
 20
69
 11
-16.4882
 21
69.188
  0
LINE
  8
0
 10
-16.4882
 20
69.188
 11
-16.4529
 21
69.373
  0
LINE
  8
0
 10
-16.4529
 20
69.373
 11
-16.3947
 21
69.5522
  0
LINE
  8
0
 10
-16.3947
 20
69.5522
 11
-16.3145
 21
69.7226
  0
LINE
  8
0
 10
-16.3145
 20
69.7226
 11
-16.2135
 21
69.8817
  0
LINE
  8
0
 10
-16.2135
 20
69.8817
 11
-16.0934
 21
70.0268
  0
LINE
  8
0
 10
-16.0934
 20
70.0268
 11
-15.9561
 21
70.1558
  0
LINE
  8
0
 10
-15.9561
 20
70.1558
 11
-15.8037
 21
70.2665
  0
LINE
  8
0
 10
-15.8037
 20
70.2665
 11
-15.6387
 21
70.3572
  0
LINE
  8
0
 10
-15.6387
 20
70.3572
 11
-15.4635
 21
70.4266
  0
LINE
  8
0
 10
-15.4635
 20
70.4266
 11
-15.2811
 21
70.4734
  0
LINE
  8
0
 10
-15.2811
 20
70.4734
 11
-15.0942
 21
70.497
  0
LINE
  8
0
 10
-15.0942
 20
70.497
 11
-14.9058
 21
70.497
  0
LINE
  8
0
 10
-14.9058
 20
70.497
 11
-14.7189
 21
70.4734
  0
LINE
  8
0
 10
-14.7189
 20
70.4734
 11
-14.5365
 21
70.4266
  0
LINE
  8
0
 10
-14.5365
 20
70.4266
 11
-14.3613
 21
70.3572
  0
LINE
  8
0
 10
-14.3613
 20
70.3572
 11
-14.1963
 21
70.2665
  0
LINE
  8
0
 10
-14.1963
 20
70.2665
 11
-14.0439
 21
70.1558
  0
LINE
  8
0
 10
-14.0439
 20
70.1558
 11
-13.9065
 21
70.0268
  0
LINE
  8
0
 10
-13.9065
 20
70.0268
 11
-13.7865
 21
69.8817
  0
LINE
  8
0
 10
-13.7865
 20
69.8817
 11
-13.6855
 21
69.7226
  0
LINE
  8
0
 10
-13.6855
 20
69.7226
 11
-13.6053
 21
69.5522
  0
LINE
  8
0
 10
-13.6053
 20
69.5522
 11
-13.5471
 21
69.373
  0
LINE
  8
0
 10
-13.5471
 20
69.373
 11
-13.5118
 21
69.188
  0
LINE
  8
0
 10
-13.5118
 20
69.188
 11
-13.5
 21
69
  0
LINE
  8
0
 10
-13.5
 20
69
 11
-13.5118
 21
68.812
  0
LINE
  8
0
 10
-13.5118
 20
68.812
 11
-13.5471
 21
68.627
  0
LINE
  8
0
 10
-13.5471
 20
68.627
 11
-13.6053
 21
68.4478
  0
LINE
  8
0
 10
-13.6053
 20
68.4478
 11
-13.6855
 21
68.2774
  0
LINE
  8
0
 10
-13.6855
 20
68.2774
 11
-13.7865
 21
68.1183
  0
LINE
  8
0
 10
-13.7865
 20
68.1183
 11
-13.9065
 21
67.9732
  0
LINE
  8
0
 10
-13.9065
 20
67.9732
 11
-14.0439
 21
67.8442
  0
LINE
  8
0
 10
-14.0439
 20
67.8442
 11
-14.1963
 21
67.7335
  0
LINE
  8
0
 10
-14.1963
 20
67.7335
 11
-14.3613
 21
67.6427
  0
LINE
  8
0
 10
-14.3613
 20
67.6427
 11
-14.5365
 21
67.5734
  0
LINE
  8
0
 10
-14.5365
 20
67.5734
 11
-14.7189
 21
67.5266
  0
LINE
  8
0
 10
-14.7189
 20
67.5266
 11
-14.9058
 21
67.5029
  0
LINE
  8
0
 10
-14.9058
 20
67.5029
 11
-15.0942
 21
67.5029
  0
LINE
  8
0
 10
14.9058
 20
67.5029
 11
14.7189
 21
67.5266
  0
LINE
  8
0
 10
14.7189
 20
67.5266
 11
14.5365
 21
67.5734
  0
LINE
  8
0
 10
14.5365
 20
67.5734
 11
14.3613
 21
67.6427
  0
LINE
  8
0
 10
14.3613
 20
67.6427
 11
14.1963
 21
67.7335
  0
LINE
  8
0
 10
14.1963
 20
67.7335
 11
14.0439
 21
67.8442
  0
LINE
  8
0
 10
14.0439
 20
67.8442
 11
13.9065
 21
67.9732
  0
LINE
  8
0
 10
13.9065
 20
67.9732
 11
13.7865
 21
68.1183
  0
LINE
  8
0
 10
13.7865
 20
68.1183
 11
13.6855
 21
68.2774
  0
LINE
  8
0
 10
13.6855
 20
68.2774
 11
13.6053
 21
68.4478
  0
LINE
  8
0
 10
13.6053
 20
68.4478
 11
13.5471
 21
68.627
  0
LINE
  8
0
 10
13.5471
 20
68.627
 11
13.5118
 21
68.812
  0
LINE
  8
0
 10
13.5118
 20
68.812
 11
13.5
 21
69
  0
LINE
  8
0
 10
13.5
 20
69
 11
13.5118
 21
69.188
  0
LINE
  8
0
 10
13.5118
 20
69.188
 11
13.5471
 21
69.373
  0
LINE
  8
0
 10
13.5471
 20
69.373
 11
13.6053
 21
69.5522
  0
LINE
  8
0
 10
13.6053
 20
69.5522
 11
13.6855
 21
69.7226
  0
LINE
  8
0
 10
13.6855
 20
69.7226
 11
13.7865
 21
69.8817
  0
LINE
  8
0
 10
13.7865
 20
69.8817
 11
13.9065
 21
70.0268
  0
LINE
  8
0
 10
13.9065
 20
70.0268
 11
14.0439
 21
70.1558
  0
LINE
  8
0
 10
14.0439
 20
70.1558
 11
14.1963
 21
70.2665
  0
LINE
  8
0
 10
14.1963
 20
70.2665
 11
14.3613
 21
70.3572
  0
LINE
  8
0
 10
14.3613
 20
70.3572
 11
14.5365
 21
70.4266
  0
LINE
  8
0
 10
14.5365
 20
70.4266
 11
14.7189
 21
70.4734
  0
LINE
  8
0
 10
14.7189
 20
70.4734
 11
14.9058
 21
70.497
  0
LINE
  8
0
 10
14.9058
 20
70.497
 11
15.0942
 21
70.497
  0
LINE
  8
0
 10
15.0942
 20
70.497
 11
15.2811
 21
70.4734
  0
LINE
  8
0
 10
15.2811
 20
70.4734
 11
15.4635
 21
70.4266
  0
LINE
  8
0
 10
15.4635
 20
70.4266
 11
15.6387
 21
70.3572
  0
LINE
  8
0
 10
15.6387
 20
70.3572
 11
15.8037
 21
70.2665
  0
LINE
  8
0
 10
15.8037
 20
70.2665
 11
15.9561
 21
70.1558
  0
LINE
  8
0
 10
15.9561
 20
70.1558
 11
16.0934
 21
70.0268
  0
LINE
  8
0
 10
16.0934
 20
70.0268
 11
16.2135
 21
69.8817
  0
LINE
  8
0
 10
16.2135
 20
69.8817
 11
16.3145
 21
69.7226
  0
LINE
  8
0
 10
16.3145
 20
69.7226
 11
16.3947
 21
69.5522
  0
LINE
  8
0
 10
16.3947
 20
69.5522
 11
16.4529
 21
69.373
  0
LINE
  8
0
 10
16.4529
 20
69.373
 11
16.4882
 21
69.188
  0
LINE
  8
0
 10
16.4882
 20
69.188
 11
16.5
 21
69
  0
LINE
  8
0
 10
16.5
 20
69
 11
16.4882
 21
68.812
  0
LINE
  8
0
 10
16.4882
 20
68.812
 11
16.4529
 21
68.627
  0
LINE
  8
0
 10
16.4529
 20
68.627
 11
16.3947
 21
68.4478
  0
LINE
  8
0
 10
16.3947
 20
68.4478
 11
16.3145
 21
68.2774
  0
LINE
  8
0
 10
16.3145
 20
68.2774
 11
16.2135
 21
68.1183
  0
LINE
  8
0
 10
16.2135
 20
68.1183
 11
16.0934
 21
67.9732
  0
LINE
  8
0
 10
16.0934
 20
67.9732
 11
15.9561
 21
67.8442
  0
LINE
  8
0
 10
15.9561
 20
67.8442
 11
15.8037
 21
67.7335
  0
LINE
  8
0
 10
15.8037
 20
67.7335
 11
15.6387
 21
67.6427
  0
LINE
  8
0
 10
15.6387
 20
67.6427
 11
15.4635
 21
67.5734
  0
LINE
  8
0
 10
15.4635
 20
67.5734
 11
15.2811
 21
67.5266
  0
LINE
  8
0
 10
15.2811
 20
67.5266
 11
15.0942
 21
67.5029
  0
LINE
  8
0
 10
15.0942
 20
67.5029
 11
14.9058
 21
67.5029
  0
LINE
  8
0
 10
9.52907
 20
46.5148
 11
8.59464
 21
46.6329
  0
LINE
  8
0
 10
8.59464
 20
46.6329
 11
7.68236
 21
46.8671
  0
LINE
  8
0
 10
7.68236
 20
46.8671
 11
6.80664
 21
47.2138
  0
LINE
  8
0
 10
6.80664
 20
47.2138
 11
5.98129
 21
47.6675
  0
LINE
  8
0
 10
5.98129
 20
47.6675
 11
5.21931
 21
48.2212
  0
LINE
  8
0
 10
5.21931
 20
48.2212
 11
4.53273
 21
48.8659
  0
LINE
  8
0
 10
4.53273
 20
48.8659
 11
3.93236
 21
49.5916
  0
LINE
  8
0
 10
3.93236
 20
49.5916
 11
3.42769
 21
50.3869
  0
LINE
  8
0
 10
3.42769
 20
50.3869
 11
3.02667
 21
51.2391
  0
LINE
  8
0
 10
3.02667
 20
51.2391
 11
2.73563
 21
52.1348
  0
LINE
  8
0
 10
2.73563
 20
52.1348
 11
2.55913
 21
53.06
  0
LINE
  8
0
 10
2.55913
 20
53.06
 11
2.5
 21
54
  0
LINE
  8
0
 10
2.5
 20
54
 11
2.55913
 21
54.94
  0
LINE
  8
0
 10
2.55913
 20
54.94
 11
2.73563
 21
55.8652
  0
LINE
  8
0
 10
2.73563
 20
55.8652
 11
3.02667
 21
56.7609
  0
LINE
  8
0
 10
3.02667
 20
56.7609
 11
3.42769
 21
57.6131
  0
LINE
  8
0
 10
3.42769
 20
57.6131
 11
3.93236
 21
58.4084
  0
LINE
  8
0
 10
3.93236
 20
58.4084
 11
4.53273
 21
59.1341
  0
LINE
  8
0
 10
4.53273
 20
59.1341
 11
5.21931
 21
59.7788
  0
LINE
  8
0
 10
5.21931
 20
59.7788
 11
5.98129
 21
60.3325
  0
LINE
  8
0
 10
5.98129
 20
60.3325
 11
6.80664
 21
60.7862
  0
LINE
  8
0
 10
6.80664
 20
60.7862
 11
7.68236
 21
61.1329
  0
LINE
  8
0
 10
7.68236
 20
61.1329
 11
8.59464
 21
61.3671
  0
LINE
  8
0
 10
8.59464
 20
61.3671
 11
9.52907
 21
61.4852
  0
LINE
  8
0
 10
9.52907
 20
61.4852
 11
10.4709
 21
61.4852
  0
LINE
  8
0
 10
10.4709
 20
61.4852
 11
11.4053
 21
61.3671
  0
LINE
  8
0
 10
11.4053
 20
61.3671
 11
12.3176
 21
61.1329
  0
LINE
  8
0
 10
12.3176
 20
61.1329
 11
13.1933
 21
60.7862
  0
LINE
  8
0
 10
13.1933
 20
60.7862
 11
14.0187
 21
60.3325
  0
LINE
  8
0
 10
14.0187
 20
60.3325
 11
14.7807
 21
59.7788
  0
LINE
  8
0
 10
14.7807
 20
59.7788
 11
15.4673
 21
59.1341
  0
LINE
  8
0
 10
15.4673
 20
59.1341
 11
16.0676
 21
58.4084
  0
LINE
  8
0
 10
16.0676
 20
58.4084
 11
16.5723
 21
57.6131
  0
LINE
  8
0
 10
16.5723
 20
57.6131
 11
16.9733
 21
56.7609
  0
LINE
  8
0
 10
16.9733
 20
56.7609
 11
17.2644
 21
55.8652
  0
LINE
  8
0
 10
17.2644
 20
55.8652
 11
17.4409
 21
54.94
  0
LINE
  8
0
 10
17.4409
 20
54.94
 11
17.5
 21
54
  0
LINE
  8
0
 10
17.5
 20
54
 11
17.4409
 21
53.06
  0
LINE
  8
0
 10
17.4409
 20
53.06
 11
17.2644
 21
52.1348
  0
LINE
  8
0
 10
17.2644
 20
52.1348
 11
16.9733
 21
51.2391
  0
LINE
  8
0
 10
16.9733
 20
51.2391
 11
16.5723
 21
50.3869
  0
LINE
  8
0
 10
16.5723
 20
50.3869
 11
16.0676
 21
49.5916
  0
LINE
  8
0
 10
16.0676
 20
49.5916
 11
15.4673
 21
48.8659
  0
LINE
  8
0
 10
15.4673
 20
48.8659
 11
14.7807
 21
48.2212
  0
LINE
  8
0
 10
14.7807
 20
48.2212
 11
14.0187
 21
47.6675
  0
LINE
  8
0
 10
14.0187
 20
47.6675
 11
13.1933
 21
47.2138
  0
LINE
  8
0
 10
13.1933
 20
47.2138
 11
12.3176
 21
46.8671
  0
LINE
  8
0
 10
12.3176
 20
46.8671
 11
11.4053
 21
46.6329
  0
LINE
  8
0
 10
11.4053
 20
46.6329
 11
10.4709
 21
46.5148
  0
LINE
  8
0
 10
10.4709
 20
46.5148
 11
9.52907
 21
46.5148
  0
LINE
  8
0
 10
-10.4709
 20
46.5148
 11
-11.4053
 21
46.6329
  0
LINE
  8
0
 10
-11.4053
 20
46.6329
 11
-12.3176
 21
46.8671
  0
LINE
  8
0
 10
-12.3176
 20
46.8671
 11
-13.1933
 21
47.2138
  0
LINE
  8
0
 10
-13.1933
 20
47.2138
 11
-14.0187
 21
47.6675
  0
LINE
  8
0
 10
-14.0187
 20
47.6675
 11
-14.7807
 21
48.2212
  0
LINE
  8
0
 10
-14.7807
 20
48.2212
 11
-15.4673
 21
48.8659
  0
LINE
  8
0
 10
-15.4673
 20
48.8659
 11
-16.0676
 21
49.5916
  0
LINE
  8
0
 10
-16.0676
 20
49.5916
 11
-16.5723
 21
50.3869
  0
LINE
  8
0
 10
-16.5723
 20
50.3869
 11
-16.9733
 21
51.2391
  0
LINE
  8
0
 10
-16.9733
 20
51.2391
 11
-17.2644
 21
52.1348
  0
LINE
  8
0
 10
-17.2644
 20
52.1348
 11
-17.4409
 21
53.06
  0
LINE
  8
0
 10
-17.4409
 20
53.06
 11
-17.5
 21
54
  0
LINE
  8
0
 10
-17.5
 20
54
 11
-17.4409
 21
54.94
  0
LINE
  8
0
 10
-17.4409
 20
54.94
 11
-17.2644
 21
55.8652
  0
LINE
  8
0
 10
-17.2644
 20
55.8652
 11
-16.9733
 21
56.7609
  0
LINE
  8
0
 10
-16.9733
 20
56.7609
 11
-16.5723
 21
57.6131
  0
LINE
  8
0
 10
-16.5723
 20
57.6131
 11
-16.0676
 21
58.4084
  0
LINE
  8
0
 10
-16.0676
 20
58.4084
 11
-15.4673
 21
59.1341
  0
LINE
  8
0
 10
-15.4673
 20
59.1341
 11
-14.7807
 21
59.7788
  0
LINE
  8
0
 10
-14.7807
 20
59.7788
 11
-14.0187
 21
60.3325
  0
LINE
  8
0
 10
-14.0187
 20
60.3325
 11
-13.1933
 21
60.7862
  0
LINE
  8
0
 10
-13.1933
 20
60.7862
 11
-12.3176
 21
61.1329
  0
LINE
  8
0
 10
-12.3176
 20
61.1329
 11
-11.4053
 21
61.3671
  0
LINE
  8
0
 10
-11.4053
 20
61.3671
 11
-10.4709
 21
61.4852
  0
LINE
  8
0
 10
-10.4709
 20
61.4852
 11
-9.52907
 21
61.4852
  0
LINE
  8
0
 10
-9.52907
 20
61.4852
 11
-8.59464
 21
61.3671
  0
LINE
  8
0
 10
-8.59464
 20
61.3671
 11
-7.68236
 21
61.1329
  0
LINE
  8
0
 10
-7.68236
 20
61.1329
 11
-6.80664
 21
60.7862
  0
LINE
  8
0
 10
-6.80664
 20
60.7862
 11
-5.98129
 21
60.3325
  0
LINE
  8
0
 10
-5.98129
 20
60.3325
 11
-5.21931
 21
59.7788
  0
LINE
  8
0
 10
-5.21931
 20
59.7788
 11
-4.53273
 21
59.1341
  0
LINE
  8
0
 10
-4.53273
 20
59.1341
 11
-3.93236
 21
58.4084
  0
LINE
  8
0
 10
-3.93236
 20
58.4084
 11
-3.42769
 21
57.6131
  0
LINE
  8
0
 10
-3.42769
 20
57.6131
 11
-3.02667
 21
56.7609
  0
LINE
  8
0
 10
-3.02667
 20
56.7609
 11
-2.73563
 21
55.8652
  0
LINE
  8
0
 10
-2.73563
 20
55.8652
 11
-2.55913
 21
54.94
  0
LINE
  8
0
 10
-2.55913
 20
54.94
 11
-2.5
 21
54
  0
LINE
  8
0
 10
-2.5
 20
54
 11
-2.55913
 21
53.06
  0
LINE
  8
0
 10
-2.55913
 20
53.06
 11
-2.73563
 21
52.1348
  0
LINE
  8
0
 10
-2.73563
 20
52.1348
 11
-3.02667
 21
51.2391
  0
LINE
  8
0
 10
-3.02667
 20
51.2391
 11
-3.42769
 21
50.3869
  0
LINE
  8
0
 10
-3.42769
 20
50.3869
 11
-3.93236
 21
49.5916
  0
LINE
  8
0
 10
-3.93236
 20
49.5916
 11
-4.53273
 21
48.8659
  0
LINE
  8
0
 10
-4.53273
 20
48.8659
 11
-5.21931
 21
48.2212
  0
LINE
  8
0
 10
-5.21931
 20
48.2212
 11
-5.98129
 21
47.6675
  0
LINE
  8
0
 10
-5.98129
 20
47.6675
 11
-6.80664
 21
47.2138
  0
LINE
  8
0
 10
-6.80664
 20
47.2138
 11
-7.68236
 21
46.8671
  0
LINE
  8
0
 10
-7.68236
 20
46.8671
 11
-8.59464
 21
46.6329
  0
LINE
  8
0
 10
-8.59464
 20
46.6329
 11
-9.52907
 21
46.5148
  0
LINE
  8
0
 10
-9.52907
 20
46.5148
 11
-10.4709
 21
46.5148
  0
LINE
  8
0
 10
-30.4709
 20
46.5148
 11
-31.4053
 21
46.6329
  0
LINE
  8
0
 10
-31.4053
 20
46.6329
 11
-32.3176
 21
46.8671
  0
LINE
  8
0
 10
-32.3176
 20
46.8671
 11
-33.1933
 21
47.2138
  0
LINE
  8
0
 10
-33.1933
 20
47.2138
 11
-34.0187
 21
47.6675
  0
LINE
  8
0
 10
-34.0187
 20
47.6675
 11
-34.7807
 21
48.2212
  0
LINE
  8
0
 10
-34.7807
 20
48.2212
 11
-35.4673
 21
48.8659
  0
LINE
  8
0
 10
-35.4673
 20
48.8659
 11
-36.0676
 21
49.5916
  0
LINE
  8
0
 10
-36.0676
 20
49.5916
 11
-36.5723
 21
50.3869
  0
LINE
  8
0
 10
-36.5723
 20
50.3869
 11
-36.9733
 21
51.2391
  0
LINE
  8
0
 10
-36.9733
 20
51.2391
 11
-37.2644
 21
52.1348
  0
LINE
  8
0
 10
-37.2644
 20
52.1348
 11
-37.4409
 21
53.06
  0
LINE
  8
0
 10
-37.4409
 20
53.06
 11
-37.5
 21
54
  0
LINE
  8
0
 10
-37.5
 20
54
 11
-37.4409
 21
54.94
  0
LINE
  8
0
 10
-37.4409
 20
54.94
 11
-37.2644
 21
55.8652
  0
LINE
  8
0
 10
-37.2644
 20
55.8652
 11
-36.9733
 21
56.7609
  0
LINE
  8
0
 10
-36.9733
 20
56.7609
 11
-36.5723
 21
57.6131
  0
LINE
  8
0
 10
-36.5723
 20
57.6131
 11
-36.0676
 21
58.4084
  0
LINE
  8
0
 10
-36.0676
 20
58.4084
 11
-35.4673
 21
59.1341
  0
LINE
  8
0
 10
-35.4673
 20
59.1341
 11
-34.7807
 21
59.7788
  0
LINE
  8
0
 10
-34.7807
 20
59.7788
 11
-34.0187
 21
60.3325
  0
LINE
  8
0
 10
-34.0187
 20
60.3325
 11
-33.1933
 21
60.7862
  0
LINE
  8
0
 10
-33.1933
 20
60.7862
 11
-32.3176
 21
61.1329
  0
LINE
  8
0
 10
-32.3176
 20
61.1329
 11
-31.4053
 21
61.3671
  0
LINE
  8
0
 10
-31.4053
 20
61.3671
 11
-30.4709
 21
61.4852
  0
LINE
  8
0
 10
-30.4709
 20
61.4852
 11
-29.5291
 21
61.4852
  0
LINE
  8
0
 10
-29.5291
 20
61.4852
 11
-28.5946
 21
61.3671
  0
LINE
  8
0
 10
-28.5946
 20
61.3671
 11
-27.6824
 21
61.1329
  0
LINE
  8
0
 10
-27.6824
 20
61.1329
 11
-26.8067
 21
60.7862
  0
LINE
  8
0
 10
-26.8067
 20
60.7862
 11
-25.9813
 21
60.3325
  0
LINE
  8
0
 10
-25.9813
 20
60.3325
 11
-25.2193
 21
59.7788
  0
LINE
  8
0
 10
-25.2193
 20
59.7788
 11
-24.5327
 21
59.1341
  0
LINE
  8
0
 10
-24.5327
 20
59.1341
 11
-23.9324
 21
58.4084
  0
LINE
  8
0
 10
-23.9324
 20
58.4084
 11
-23.4277
 21
57.6131
  0
LINE
  8
0
 10
-23.4277
 20
57.6131
 11
-23.0267
 21
56.7609
  0
LINE
  8
0
 10
-23.0267
 20
56.7609
 11
-22.7356
 21
55.8652
  0
LINE
  8
0
 10
-22.7356
 20
55.8652
 11
-22.5591
 21
54.94
  0
LINE
  8
0
 10
-22.5591
 20
54.94
 11
-22.5
 21
54
  0
LINE
  8
0
 10
-22.5
 20
54
 11
-22.5591
 21
53.06
  0
LINE
  8
0
 10
-22.5591
 20
53.06
 11
-22.7356
 21
52.1348
  0
LINE
  8
0
 10
-22.7356
 20
52.1348
 11
-23.0267
 21
51.2391
  0
LINE
  8
0
 10
-23.0267
 20
51.2391
 11
-23.4277
 21
50.3869
  0
LINE
  8
0
 10
-23.4277
 20
50.3869
 11
-23.9324
 21
49.5916
  0
LINE
  8
0
 10
-23.9324
 20
49.5916
 11
-24.5327
 21
48.8659
  0
LINE
  8
0
 10
-24.5327
 20
48.8659
 11
-25.2193
 21
48.2212
  0
LINE
  8
0
 10
-25.2193
 20
48.2212
 11
-25.9813
 21
47.6675
  0
LINE
  8
0
 10
-25.9813
 20
47.6675
 11
-26.8067
 21
47.2138
  0
LINE
  8
0
 10
-26.8067
 20
47.2138
 11
-27.6824
 21
46.8671
  0
LINE
  8
0
 10
-27.6824
 20
46.8671
 11
-28.5946
 21
46.6329
  0
LINE
  8
0
 10
-28.5946
 20
46.6329
 11
-29.5291
 21
46.5148
  0
LINE
  8
0
 10
-29.5291
 20
46.5148
 11
-30.4709
 21
46.5148
  0
LINE
  8
0
 10
29.5291
 20
46.5148
 11
28.5946
 21
46.6329
  0
LINE
  8
0
 10
28.5946
 20
46.6329
 11
27.6824
 21
46.8671
  0
LINE
  8
0
 10
27.6824
 20
46.8671
 11
26.8067
 21
47.2138
  0
LINE
  8
0
 10
26.8067
 20
47.2138
 11
25.9813
 21
47.6675
  0
LINE
  8
0
 10
25.9813
 20
47.6675
 11
25.2193
 21
48.2212
  0
LINE
  8
0
 10
25.2193
 20
48.2212
 11
24.5327
 21
48.8659
  0
LINE
  8
0
 10
24.5327
 20
48.8659
 11
23.9324
 21
49.5916
  0
LINE
  8
0
 10
23.9324
 20
49.5916
 11
23.4277
 21
50.3869
  0
LINE
  8
0
 10
23.4277
 20
50.3869
 11
23.0267
 21
51.2391
  0
LINE
  8
0
 10
23.0267
 20
51.2391
 11
22.7356
 21
52.1348
  0
LINE
  8
0
 10
22.7356
 20
52.1348
 11
22.5591
 21
53.06
  0
LINE
  8
0
 10
22.5591
 20
53.06
 11
22.5
 21
54
  0
LINE
  8
0
 10
22.5
 20
54
 11
22.5591
 21
54.94
  0
LINE
  8
0
 10
22.5591
 20
54.94
 11
22.7356
 21
55.8652
  0
LINE
  8
0
 10
22.7356
 20
55.8652
 11
23.0267
 21
56.7609
  0
LINE
  8
0
 10
23.0267
 20
56.7609
 11
23.4277
 21
57.6131
  0
LINE
  8
0
 10
23.4277
 20
57.6131
 11
23.9324
 21
58.4084
  0
LINE
  8
0
 10
23.9324
 20
58.4084
 11
24.5327
 21
59.1341
  0
LINE
  8
0
 10
24.5327
 20
59.1341
 11
25.2193
 21
59.7788
  0
LINE
  8
0
 10
25.2193
 20
59.7788
 11
25.9813
 21
60.3325
  0
LINE
  8
0
 10
25.9813
 20
60.3325
 11
26.8067
 21
60.7862
  0
LINE
  8
0
 10
26.8067
 20
60.7862
 11
27.6824
 21
61.1329
  0
LINE
  8
0
 10
27.6824
 20
61.1329
 11
28.5946
 21
61.3671
  0
LINE
  8
0
 10
28.5946
 20
61.3671
 11
29.5291
 21
61.4852
  0
LINE
  8
0
 10
29.5291
 20
61.4852
 11
30.4709
 21
61.4852
  0
LINE
  8
0
 10
30.4709
 20
61.4852
 11
31.4053
 21
61.3671
  0
LINE
  8
0
 10
31.4053
 20
61.3671
 11
32.3176
 21
61.1329
  0
LINE
  8
0
 10
32.3176
 20
61.1329
 11
33.1933
 21
60.7862
  0
LINE
  8
0
 10
33.1933
 20
60.7862
 11
34.0187
 21
60.3325
  0
LINE
  8
0
 10
34.0187
 20
60.3325
 11
34.7807
 21
59.7788
  0
LINE
  8
0
 10
34.7807
 20
59.7788
 11
35.4673
 21
59.1341
  0
LINE
  8
0
 10
35.4673
 20
59.1341
 11
36.0676
 21
58.4084
  0
LINE
  8
0
 10
36.0676
 20
58.4084
 11
36.5723
 21
57.6131
  0
LINE
  8
0
 10
36.5723
 20
57.6131
 11
36.9733
 21
56.7609
  0
LINE
  8
0
 10
36.9733
 20
56.7609
 11
37.2644
 21
55.8652
  0
LINE
  8
0
 10
37.2644
 20
55.8652
 11
37.4409
 21
54.94
  0
LINE
  8
0
 10
37.4409
 20
54.94
 11
37.5
 21
54
  0
LINE
  8
0
 10
37.5
 20
54
 11
37.4409
 21
53.06
  0
LINE
  8
0
 10
37.4409
 20
53.06
 11
37.2644
 21
52.1348
  0
LINE
  8
0
 10
37.2644
 20
52.1348
 11
36.9733
 21
51.2391
  0
LINE
  8
0
 10
36.9733
 20
51.2391
 11
36.5723
 21
50.3869
  0
LINE
  8
0
 10
36.5723
 20
50.3869
 11
36.0676
 21
49.5916
  0
LINE
  8
0
 10
36.0676
 20
49.5916
 11
35.4673
 21
48.8659
  0
LINE
  8
0
 10
35.4673
 20
48.8659
 11
34.7807
 21
48.2212
  0
LINE
  8
0
 10
34.7807
 20
48.2212
 11
34.0187
 21
47.6675
  0
LINE
  8
0
 10
34.0187
 20
47.6675
 11
33.1933
 21
47.2138
  0
LINE
  8
0
 10
33.1933
 20
47.2138
 11
32.3176
 21
46.8671
  0
LINE
  8
0
 10
32.3176
 20
46.8671
 11
31.4053
 21
46.6329
  0
LINE
  8
0
 10
31.4053
 20
46.6329
 11
30.4709
 21
46.5148
  0
LINE
  8
0
 10
30.4709
 20
46.5148
 11
29.5291
 21
46.5148
  0
LINE
  8
0
 10
22.3116
 20
36.0059
 11
21.9379
 21
36.0531
  0
LINE
  8
0
 10
21.9379
 20
36.0531
 11
21.5729
 21
36.1468
  0
LINE
  8
0
 10
21.5729
 20
36.1468
 11
21.2227
 21
36.2855
  0
LINE
  8
0
 10
21.2227
 20
36.2855
 11
20.8925
 21
36.467
  0
LINE
  8
0
 10
20.8925
 20
36.467
 11
20.5877
 21
36.6885
  0
LINE
  8
0
 10
20.5877
 20
36.6885
 11
20.3131
 21
36.9464
  0
LINE
  8
0
 10
20.3131
 20
36.9464
 11
20.0729
 21
37.2366
  0
LINE
  8
0
 10
20.0729
 20
37.2366
 11
19.8711
 21
37.5547
  0
LINE
  8
0
 10
19.8711
 20
37.5547
 11
19.7107
 21
37.8956
  0
LINE
  8
0
 10
19.7107
 20
37.8956
 11
19.5942
 21
38.2539
  0
LINE
  8
0
 10
19.5942
 20
38.2539
 11
19.5237
 21
38.624
  0
LINE
  8
0
 10
19.5237
 20
38.624
 11
19.5
 21
39
  0
LINE
  8
0
 10
19.5
 20
39
 11
19.5237
 21
39.376
  0
LINE
  8
0
 10
19.5237
 20
39.376
 11
19.5942
 21
39.7461
  0
LINE
  8
0
 10
19.5942
 20
39.7461
 11
19.7107
 21
40.1044
  0
LINE
  8
0
 10
19.7107
 20
40.1044
 11
19.8711
 21
40.4453
  0
LINE
  8
0
 10
19.8711
 20
40.4453
 11
20.0729
 21
40.7634
  0
LINE
  8
0
 10
20.0729
 20
40.7634
 11
20.3131
 21
41.0536
  0
LINE
  8
0
 10
20.3131
 20
41.0536
 11
20.5877
 21
41.3116
  0
LINE
  8
0
 10
20.5877
 20
41.3116
 11
20.8925
 21
41.533
  0
LINE
  8
0
 10
20.8925
 20
41.533
 11
21.2227
 21
41.7145
  0
LINE
  8
0
 10
21.2227
 20
41.7145
 11
21.5729
 21
41.8532
  0
LINE
  8
0
 10
21.5729
 20
41.8532
 11
21.9379
 21
41.9469
  0
LINE
  8
0
 10
21.9379
 20
41.9469
 11
22.3116
 21
41.9941
  0
LINE
  8
0
 10
22.3116
 20
41.9941
 11
22.6884
 21
41.9941
  0
LINE
  8
0
 10
22.6884
 20
41.9941
 11
23.0621
 21
41.9469
  0
LINE
  8
0
 10
23.0621
 20
41.9469
 11
23.427
 21
41.8532
  0
LINE
  8
0
 10
23.427
 20
41.8532
 11
23.7773
 21
41.7145
  0
LINE
  8
0
 10
23.7773
 20
41.7145
 11
24.1075
 21
41.533
  0
LINE
  8
0
 10
24.1075
 20
41.533
 11
24.4123
 21
41.3116
  0
LINE
  8
0
 10
24.4123
 20
41.3116
 11
24.6869
 21
41.0536
  0
LINE
  8
0
 10
24.6869
 20
41.0536
 11
24.927
 21
40.7634
  0
LINE
  8
0
 10
24.927
 20
40.7634
 11
25.1289
 21
40.4453
  0
LINE
  8
0
 10
25.1289
 20
40.4453
 11
25.2893
 21
40.1044
  0
LINE
  8
0
 10
25.2893
 20
40.1044
 11
25.4057
 21
39.7461
  0
LINE
  8
0
 10
25.4057
 20
39.7461
 11
25.4763
 21
39.376
  0
LINE
  8
0
 10
25.4763
 20
39.376
 11
25.5
 21
39
  0
LINE
  8
0
 10
25.5
 20
39
 11
25.4763
 21
38.624
  0
LINE
  8
0
 10
25.4763
 20
38.624
 11
25.4057
 21
38.2539
  0
LINE
  8
0
 10
25.4057
 20
38.2539
 11
25.2893
 21
37.8956
  0
LINE
  8
0
 10
25.2893
 20
37.8956
 11
25.1289
 21
37.5547
  0
LINE
  8
0
 10
25.1289
 20
37.5547
 11
24.927
 21
37.2366
  0
LINE
  8
0
 10
24.927
 20
37.2366
 11
24.6869
 21
36.9464
  0
LINE
  8
0
 10
24.6869
 20
36.9464
 11
24.4123
 21
36.6885
  0
LINE
  8
0
 10
24.4123
 20
36.6885
 11
24.1075
 21
36.467
  0
LINE
  8
0
 10
24.1075
 20
36.467
 11
23.7773
 21
36.2855
  0
LINE
  8
0
 10
23.7773
 20
36.2855
 11
23.427
 21
36.1468
  0
LINE
  8
0
 10
23.427
 20
36.1468
 11
23.0621
 21
36.0531
  0
LINE
  8
0
 10
23.0621
 20
36.0531
 11
22.6884
 21
36.0059
  0
LINE
  8
0
 10
22.6884
 20
36.0059
 11
22.3116
 21
36.0059
  0
LINE
  8
0
 10
-37.6884
 20
36.0059
 11
-38.0621
 21
36.0531
  0
LINE
  8
0
 10
-38.0621
 20
36.0531
 11
-38.427
 21
36.1468
  0
LINE
  8
0
 10
-38.427
 20
36.1468
 11
-38.7773
 21
36.2855
  0
LINE
  8
0
 10
-38.7773
 20
36.2855
 11
-39.1075
 21
36.467
  0
LINE
  8
0
 10
-39.1075
 20
36.467
 11
-39.4123
 21
36.6885
  0
LINE
  8
0
 10
-39.4123
 20
36.6885
 11
-39.6869
 21
36.9464
  0
LINE
  8
0
 10
-39.6869
 20
36.9464
 11
-39.927
 21
37.2366
  0
LINE
  8
0
 10
-39.927
 20
37.2366
 11
-40.1289
 21
37.5547
  0
LINE
  8
0
 10
-40.1289
 20
37.5547
 11
-40.2893
 21
37.8956
  0
LINE
  8
0
 10
-40.2893
 20
37.8956
 11
-40.4057
 21
38.2539
  0
LINE
  8
0
 10
-40.4057
 20
38.2539
 11
-40.4763
 21
38.624
  0
LINE
  8
0
 10
-40.4763
 20
38.624
 11
-40.5
 21
39
  0
LINE
  8
0
 10
-40.5
 20
39
 11
-40.4763
 21
39.376
  0
LINE
  8
0
 10
-40.4763
 20
39.376
 11
-40.4057
 21
39.7461
  0
LINE
  8
0
 10
-40.4057
 20
39.7461
 11
-40.2893
 21
40.1044
  0
LINE
  8
0
 10
-40.2893
 20
40.1044
 11
-40.1289
 21
40.4453
  0
LINE
  8
0
 10
-40.1289
 20
40.4453
 11
-39.927
 21
40.7634
  0
LINE
  8
0
 10
-39.927
 20
40.7634
 11
-39.6869
 21
41.0536
  0
LINE
  8
0
 10
-39.6869
 20
41.0536
 11
-39.4123
 21
41.3116
  0
LINE
  8
0
 10
-39.4123
 20
41.3116
 11
-39.1075
 21
41.533
  0
LINE
  8
0
 10
-39.1075
 20
41.533
 11
-38.7773
 21
41.7145
  0
LINE
  8
0
 10
-38.7773
 20
41.7145
 11
-38.427
 21
41.8532
  0
LINE
  8
0
 10
-38.427
 20
41.8532
 11
-38.0621
 21
41.9469
  0
LINE
  8
0
 10
-38.0621
 20
41.9469
 11
-37.6884
 21
41.9941
  0
LINE
  8
0
 10
-37.6884
 20
41.9941
 11
-37.3116
 21
41.9941
  0
LINE
  8
0
 10
-37.3116
 20
41.9941
 11
-36.9379
 21
41.9469
  0
LINE
  8
0
 10
-36.9379
 20
41.9469
 11
-36.5729
 21
41.8532
  0
LINE
  8
0
 10
-36.5729
 20
41.8532
 11
-36.2227
 21
41.7145
  0
LINE
  8
0
 10
-36.2227
 20
41.7145
 11
-35.8925
 21
41.533
  0
LINE
  8
0
 10
-35.8925
 20
41.533
 11
-35.5877
 21
41.3116
  0
LINE
  8
0
 10
-35.5877
 20
41.3116
 11
-35.3131
 21
41.0536
  0
LINE
  8
0
 10
-35.3131
 20
41.0536
 11
-35.0729
 21
40.7634
  0
LINE
  8
0
 10
-35.0729
 20
40.7634
 11
-34.8711
 21
40.4453
  0
LINE
  8
0
 10
-34.8711
 20
40.4453
 11
-34.7107
 21
40.1044
  0
LINE
  8
0
 10
-34.7107
 20
40.1044
 11
-34.5942
 21
39.7461
  0
LINE
  8
0
 10
-34.5942
 20
39.7461
 11
-34.5237
 21
39.376
  0
LINE
  8
0
 10
-34.5237
 20
39.376
 11
-34.5
 21
39
  0
LINE
  8
0
 10
-34.5
 20
39
 11
-34.5237
 21
38.624
  0
LINE
  8
0
 10
-34.5237
 20
38.624
 11
-34.5942
 21
38.2539
  0
LINE
  8
0
 10
-34.5942
 20
38.2539
 11
-34.7107
 21
37.8956
  0
LINE
  8
0
 10
-34.7107
 20
37.8956
 11
-34.8711
 21
37.5547
  0
LINE
  8
0
 10
-34.8711
 20
37.5547
 11
-35.0729
 21
37.2366
  0
LINE
  8
0
 10
-35.0729
 20
37.2366
 11
-35.3131
 21
36.9464
  0
LINE
  8
0
 10
-35.3131
 20
36.9464
 11
-35.5877
 21
36.6885
  0
LINE
  8
0
 10
-35.5877
 20
36.6885
 11
-35.8925
 21
36.467
  0
LINE
  8
0
 10
-35.8925
 20
36.467
 11
-36.2227
 21
36.2855
  0
LINE
  8
0
 10
-36.2227
 20
36.2855
 11
-36.5729
 21
36.1468
  0
LINE
  8
0
 10
-36.5729
 20
36.1468
 11
-36.9379
 21
36.0531
  0
LINE
  8
0
 10
-36.9379
 20
36.0531
 11
-37.3116
 21
36.0059
  0
LINE
  8
0
 10
-37.3116
 20
36.0059
 11
-37.6884
 21
36.0059
  0
LINE
  8
0
 10
7.31161
 20
36.0059
 11
6.93785
 21
36.0531
  0
LINE
  8
0
 10
6.93785
 20
36.0531
 11
6.57294
 21
36.1468
  0
LINE
  8
0
 10
6.57294
 20
36.1468
 11
6.22266
 21
36.2855
  0
LINE
  8
0
 10
6.22266
 20
36.2855
 11
5.89252
 21
36.467
  0
LINE
  8
0
 10
5.89252
 20
36.467
 11
5.58772
 21
36.6885
  0
LINE
  8
0
 10
5.58772
 20
36.6885
 11
5.31308
 21
36.9464
  0
LINE
  8
0
 10
5.31308
 20
36.9464
 11
5.07294
 21
37.2366
  0
LINE
  8
0
 10
5.07294
 20
37.2366
 11
4.87108
 21
37.5547
  0
LINE
  8
0
 10
4.87108
 20
37.5547
 11
4.71066
 21
37.8956
  0
LINE
  8
0
 10
4.71066
 20
37.8956
 11
4.59424
 21
38.2539
  0
LINE
  8
0
 10
4.59424
 20
38.2539
 11
4.52365
 21
38.624
  0
LINE
  8
0
 10
4.52365
 20
38.624
 11
4.5
 21
39
  0
LINE
  8
0
 10
4.5
 20
39
 11
4.52365
 21
39.376
  0
LINE
  8
0
 10
4.52365
 20
39.376
 11
4.59424
 21
39.7461
  0
LINE
  8
0
 10
4.59424
 20
39.7461
 11
4.71066
 21
40.1044
  0
LINE
  8
0
 10
4.71066
 20
40.1044
 11
4.87108
 21
40.4453
  0
LINE
  8
0
 10
4.87108
 20
40.4453
 11
5.07294
 21
40.7634
  0
LINE
  8
0
 10
5.07294
 20
40.7634
 11
5.31308
 21
41.0536
  0
LINE
  8
0
 10
5.31308
 20
41.0536
 11
5.58772
 21
41.3116
  0
LINE
  8
0
 10
5.58772
 20
41.3116
 11
5.89252
 21
41.533
  0
LINE
  8
0
 10
5.89252
 20
41.533
 11
6.22266
 21
41.7145
  0
LINE
  8
0
 10
6.22266
 20
41.7145
 11
6.57294
 21
41.8532
  0
LINE
  8
0
 10
6.57294
 20
41.8532
 11
6.93785
 21
41.9469
  0
LINE
  8
0
 10
6.93785
 20
41.9469
 11
7.31161
 21
41.9941
  0
LINE
  8
0
 10
7.31161
 20
41.9941
 11
7.68837
 21
41.9941
  0
LINE
  8
0
 10
7.68837
 20
41.9941
 11
8.06213
 21
41.9469
  0
LINE
  8
0
 10
8.06213
 20
41.9469
 11
8.42705
 21
41.8532
  0
LINE
  8
0
 10
8.42705
 20
41.8532
 11
8.77733
 21
41.7145
  0
LINE
  8
0
 10
8.77733
 20
41.7145
 11
9.10747
 21
41.533
  0
LINE
  8
0
 10
9.10747
 20
41.533
 11
9.41226
 21
41.3116
  0
LINE
  8
0
 10
9.41226
 20
41.3116
 11
9.6869
 21
41.0536
  0
LINE
  8
0
 10
9.6869
 20
41.0536
 11
9.92705
 21
40.7634
  0
LINE
  8
0
 10
9.92705
 20
40.7634
 11
10.1289
 21
40.4453
  0
LINE
  8
0
 10
10.1289
 20
40.4453
 11
10.2893
 21
40.1044
  0
LINE
  8
0
 10
10.2893
 20
40.1044
 11
10.4057
 21
39.7461
  0
LINE
  8
0
 10
10.4057
 20
39.7461
 11
10.4763
 21
39.376
  0
LINE
  8
0
 10
10.4763
 20
39.376
 11
10.5
 21
39
  0
LINE
  8
0
 10
10.5
 20
39
 11
10.4763
 21
38.624
  0
LINE
  8
0
 10
10.4763
 20
38.624
 11
10.4057
 21
38.2539
  0
LINE
  8
0
 10
10.4057
 20
38.2539
 11
10.2893
 21
37.8956
  0
LINE
  8
0
 10
10.2893
 20
37.8956
 11
10.1289
 21
37.5547
  0
LINE
  8
0
 10
10.1289
 20
37.5547
 11
9.92705
 21
37.2366
  0
LINE
  8
0
 10
9.92705
 20
37.2366
 11
9.6869
 21
36.9464
  0
LINE
  8
0
 10
9.6869
 20
36.9464
 11
9.41226
 21
36.6885
  0
LINE
  8
0
 10
9.41226
 20
36.6885
 11
9.10747
 21
36.467
  0
LINE
  8
0
 10
9.10747
 20
36.467
 11
8.77733
 21
36.2855
  0
LINE
  8
0
 10
8.77733
 20
36.2855
 11
8.42705
 21
36.1468
  0
LINE
  8
0
 10
8.42705
 20
36.1468
 11
8.06213
 21
36.0531
  0
LINE
  8
0
 10
8.06213
 20
36.0531
 11
7.68837
 21
36.0059
  0
LINE
  8
0
 10
7.68837
 20
36.0059
 11
7.31161
 21
36.0059
  0
LINE
  8
0
 10
37.3116
 20
36.0059
 11
36.9379
 21
36.0531
  0
LINE
  8
0
 10
36.9379
 20
36.0531
 11
36.5729
 21
36.1468
  0
LINE
  8
0
 10
36.5729
 20
36.1468
 11
36.2227
 21
36.2855
  0
LINE
  8
0
 10
36.2227
 20
36.2855
 11
35.8925
 21
36.467
  0
LINE
  8
0
 10
35.8925
 20
36.467
 11
35.5877
 21
36.6885
  0
LINE
  8
0
 10
35.5877
 20
36.6885
 11
35.3131
 21
36.9464
  0
LINE
  8
0
 10
35.3131
 20
36.9464
 11
35.0729
 21
37.2366
  0
LINE
  8
0
 10
35.0729
 20
37.2366
 11
34.8711
 21
37.5547
  0
LINE
  8
0
 10
34.8711
 20
37.5547
 11
34.7107
 21
37.8956
  0
LINE
  8
0
 10
34.7107
 20
37.8956
 11
34.5942
 21
38.2539
  0
LINE
  8
0
 10
34.5942
 20
38.2539
 11
34.5237
 21
38.624
  0
LINE
  8
0
 10
34.5237
 20
38.624
 11
34.5
 21
39
  0
LINE
  8
0
 10
34.5
 20
39
 11
34.5237
 21
39.376
  0
LINE
  8
0
 10
34.5237
 20
39.376
 11
34.5942
 21
39.7461
  0
LINE
  8
0
 10
34.5942
 20
39.7461
 11
34.7107
 21
40.1044
  0
LINE
  8
0
 10
34.7107
 20
40.1044
 11
34.8711
 21
40.4453
  0
LINE
  8
0
 10
34.8711
 20
40.4453
 11
35.0729
 21
40.7634
  0
LINE
  8
0
 10
35.0729
 20
40.7634
 11
35.3131
 21
41.0536
  0
LINE
  8
0
 10
35.3131
 20
41.0536
 11
35.5877
 21
41.3116
  0
LINE
  8
0
 10
35.5877
 20
41.3116
 11
35.8925
 21
41.533
  0
LINE
  8
0
 10
35.8925
 20
41.533
 11
36.2227
 21
41.7145
  0
LINE
  8
0
 10
36.2227
 20
41.7145
 11
36.5729
 21
41.8532
  0
LINE
  8
0
 10
36.5729
 20
41.8532
 11
36.9379
 21
41.9469
  0
LINE
  8
0
 10
36.9379
 20
41.9469
 11
37.3116
 21
41.9941
  0
LINE
  8
0
 10
37.3116
 20
41.9941
 11
37.6884
 21
41.9941
  0
LINE
  8
0
 10
37.6884
 20
41.9941
 11
38.0621
 21
41.9469
  0
LINE
  8
0
 10
38.0621
 20
41.9469
 11
38.427
 21
41.8532
  0
LINE
  8
0
 10
38.427
 20
41.8532
 11
38.7773
 21
41.7145
  0
LINE
  8
0
 10
38.7773
 20
41.7145
 11
39.1075
 21
41.533
  0
LINE
  8
0
 10
39.1075
 20
41.533
 11
39.4123
 21
41.3116
  0
LINE
  8
0
 10
39.4123
 20
41.3116
 11
39.6869
 21
41.0536
  0
LINE
  8
0
 10
39.6869
 20
41.0536
 11
39.927
 21
40.7634
  0
LINE
  8
0
 10
39.927
 20
40.7634
 11
40.1289
 21
40.4453
  0
LINE
  8
0
 10
40.1289
 20
40.4453
 11
40.2893
 21
40.1044
  0
LINE
  8
0
 10
40.2893
 20
40.1044
 11
40.4057
 21
39.7461
  0
LINE
  8
0
 10
40.4057
 20
39.7461
 11
40.4763
 21
39.376
  0
LINE
  8
0
 10
40.4763
 20
39.376
 11
40.5
 21
39
  0
LINE
  8
0
 10
40.5
 20
39
 11
40.4763
 21
38.624
  0
LINE
  8
0
 10
40.4763
 20
38.624
 11
40.4057
 21
38.2539
  0
LINE
  8
0
 10
40.4057
 20
38.2539
 11
40.2893
 21
37.8956
  0
LINE
  8
0
 10
40.2893
 20
37.8956
 11
40.1289
 21
37.5547
  0
LINE
  8
0
 10
40.1289
 20
37.5547
 11
39.927
 21
37.2366
  0
LINE
  8
0
 10
39.927
 20
37.2366
 11
39.6869
 21
36.9464
  0
LINE
  8
0
 10
39.6869
 20
36.9464
 11
39.4123
 21
36.6885
  0
LINE
  8
0
 10
39.4123
 20
36.6885
 11
39.1075
 21
36.467
  0
LINE
  8
0
 10
39.1075
 20
36.467
 11
38.7773
 21
36.2855
  0
LINE
  8
0
 10
38.7773
 20
36.2855
 11
38.427
 21
36.1468
  0
LINE
  8
0
 10
38.427
 20
36.1468
 11
38.0621
 21
36.0531
  0
LINE
  8
0
 10
38.0621
 20
36.0531
 11
37.6884
 21
36.0059
  0
LINE
  8
0
 10
37.6884
 20
36.0059
 11
37.3116
 21
36.0059
  0
LINE
  8
0
 10
-7.68837
 20
36.0059
 11
-8.06213
 21
36.0531
  0
LINE
  8
0
 10
-8.06213
 20
36.0531
 11
-8.42705
 21
36.1468
  0
LINE
  8
0
 10
-8.42705
 20
36.1468
 11
-8.77733
 21
36.2855
  0
LINE
  8
0
 10
-8.77733
 20
36.2855
 11
-9.10747
 21
36.467
  0
LINE
  8
0
 10
-9.10747
 20
36.467
 11
-9.41226
 21
36.6885
  0
LINE
  8
0
 10
-9.41226
 20
36.6885
 11
-9.6869
 21
36.9464
  0
LINE
  8
0
 10
-9.6869
 20
36.9464
 11
-9.92705
 21
37.2366
  0
LINE
  8
0
 10
-9.92705
 20
37.2366
 11
-10.1289
 21
37.5547
  0
LINE
  8
0
 10
-10.1289
 20
37.5547
 11
-10.2893
 21
37.8956
  0
LINE
  8
0
 10
-10.2893
 20
37.8956
 11
-10.4057
 21
38.2539
  0
LINE
  8
0
 10
-10.4057
 20
38.2539
 11
-10.4763
 21
38.624
  0
LINE
  8
0
 10
-10.4763
 20
38.624
 11
-10.5
 21
39
  0
LINE
  8
0
 10
-10.5
 20
39
 11
-10.4763
 21
39.376
  0
LINE
  8
0
 10
-10.4763
 20
39.376
 11
-10.4057
 21
39.7461
  0
LINE
  8
0
 10
-10.4057
 20
39.7461
 11
-10.2893
 21
40.1044
  0
LINE
  8
0
 10
-10.2893
 20
40.1044
 11
-10.1289
 21
40.4453
  0
LINE
  8
0
 10
-10.1289
 20
40.4453
 11
-9.92705
 21
40.7634
  0
LINE
  8
0
 10
-9.92705
 20
40.7634
 11
-9.6869
 21
41.0536
  0
LINE
  8
0
 10
-9.6869
 20
41.0536
 11
-9.41226
 21
41.3116
  0
LINE
  8
0
 10
-9.41226
 20
41.3116
 11
-9.10747
 21
41.533
  0
LINE
  8
0
 10
-9.10747
 20
41.533
 11
-8.77733
 21
41.7145
  0
LINE
  8
0
 10
-8.77733
 20
41.7145
 11
-8.42705
 21
41.8532
  0
LINE
  8
0
 10
-8.42705
 20
41.8532
 11
-8.06213
 21
41.9469
  0
LINE
  8
0
 10
-8.06213
 20
41.9469
 11
-7.68837
 21
41.9941
  0
LINE
  8
0
 10
-7.68837
 20
41.9941
 11
-7.31161
 21
41.9941
  0
LINE
  8
0
 10
-7.31161
 20
41.9941
 11
-6.93785
 21
41.9469
  0
LINE
  8
0
 10
-6.93785
 20
41.9469
 11
-6.57294
 21
41.8532
  0
LINE
  8
0
 10
-6.57294
 20
41.8532
 11
-6.22266
 21
41.7145
  0
LINE
  8
0
 10
-6.22266
 20
41.7145
 11
-5.89252
 21
41.533
  0
LINE
  8
0
 10
-5.89252
 20
41.533
 11
-5.58772
 21
41.3116
  0
LINE
  8
0
 10
-5.58772
 20
41.3116
 11
-5.31308
 21
41.0536
  0
LINE
  8
0
 10
-5.31308
 20
41.0536
 11
-5.07294
 21
40.7634
  0
LINE
  8
0
 10
-5.07294
 20
40.7634
 11
-4.87108
 21
40.4453
  0
LINE
  8
0
 10
-4.87108
 20
40.4453
 11
-4.71066
 21
40.1044
  0
LINE
  8
0
 10
-4.71066
 20
40.1044
 11
-4.59424
 21
39.7461
  0
LINE
  8
0
 10
-4.59424
 20
39.7461
 11
-4.52365
 21
39.376
  0
LINE
  8
0
 10
-4.52365
 20
39.376
 11
-4.5
 21
39
  0
LINE
  8
0
 10
-4.5
 20
39
 11
-4.52365
 21
38.624
  0
LINE
  8
0
 10
-4.52365
 20
38.624
 11
-4.59424
 21
38.2539
  0
LINE
  8
0
 10
-4.59424
 20
38.2539
 11
-4.71066
 21
37.8956
  0
LINE
  8
0
 10
-4.71066
 20
37.8956
 11
-4.87108
 21
37.5547
  0
LINE
  8
0
 10
-4.87108
 20
37.5547
 11
-5.07294
 21
37.2366
  0
LINE
  8
0
 10
-5.07294
 20
37.2366
 11
-5.31308
 21
36.9464
  0
LINE
  8
0
 10
-5.31308
 20
36.9464
 11
-5.58772
 21
36.6885
  0
LINE
  8
0
 10
-5.58772
 20
36.6885
 11
-5.89252
 21
36.467
  0
LINE
  8
0
 10
-5.89252
 20
36.467
 11
-6.22266
 21
36.2855
  0
LINE
  8
0
 10
-6.22266
 20
36.2855
 11
-6.57294
 21
36.1468
  0
LINE
  8
0
 10
-6.57294
 20
36.1468
 11
-6.93785
 21
36.0531
  0
LINE
  8
0
 10
-6.93785
 20
36.0531
 11
-7.31161
 21
36.0059
  0
LINE
  8
0
 10
-7.31161
 20
36.0059
 11
-7.68837
 21
36.0059
  0
LINE
  8
0
 10
-22.6884
 20
36.0059
 11
-23.0621
 21
36.0531
  0
LINE
  8
0
 10
-23.0621
 20
36.0531
 11
-23.427
 21
36.1468
  0
LINE
  8
0
 10
-23.427
 20
36.1468
 11
-23.7773
 21
36.2855
  0
LINE
  8
0
 10
-23.7773
 20
36.2855
 11
-24.1075
 21
36.467
  0
LINE
  8
0
 10
-24.1075
 20
36.467
 11
-24.4123
 21
36.6885
  0
LINE
  8
0
 10
-24.4123
 20
36.6885
 11
-24.6869
 21
36.9464
  0
LINE
  8
0
 10
-24.6869
 20
36.9464
 11
-24.927
 21
37.2366
  0
LINE
  8
0
 10
-24.927
 20
37.2366
 11
-25.1289
 21
37.5547
  0
LINE
  8
0
 10
-25.1289
 20
37.5547
 11
-25.2893
 21
37.8956
  0
LINE
  8
0
 10
-25.2893
 20
37.8956
 11
-25.4057
 21
38.2539
  0
LINE
  8
0
 10
-25.4057
 20
38.2539
 11
-25.4763
 21
38.624
  0
LINE
  8
0
 10
-25.4763
 20
38.624
 11
-25.5
 21
39
  0
LINE
  8
0
 10
-25.5
 20
39
 11
-25.4763
 21
39.376
  0
LINE
  8
0
 10
-25.4763
 20
39.376
 11
-25.4057
 21
39.7461
  0
LINE
  8
0
 10
-25.4057
 20
39.7461
 11
-25.2893
 21
40.1044
  0
LINE
  8
0
 10
-25.2893
 20
40.1044
 11
-25.1289
 21
40.4453
  0
LINE
  8
0
 10
-25.1289
 20
40.4453
 11
-24.927
 21
40.7634
  0
LINE
  8
0
 10
-24.927
 20
40.7634
 11
-24.6869
 21
41.0536
  0
LINE
  8
0
 10
-24.6869
 20
41.0536
 11
-24.4123
 21
41.3116
  0
LINE
  8
0
 10
-24.4123
 20
41.3116
 11
-24.1075
 21
41.533
  0
LINE
  8
0
 10
-24.1075
 20
41.533
 11
-23.7773
 21
41.7145
  0
LINE
  8
0
 10
-23.7773
 20
41.7145
 11
-23.427
 21
41.8532
  0
LINE
  8
0
 10
-23.427
 20
41.8532
 11
-23.0621
 21
41.9469
  0
LINE
  8
0
 10
-23.0621
 20
41.9469
 11
-22.6884
 21
41.9941
  0
LINE
  8
0
 10
-22.6884
 20
41.9941
 11
-22.3116
 21
41.9941
  0
LINE
  8
0
 10
-22.3116
 20
41.9941
 11
-21.9379
 21
41.9469
  0
LINE
  8
0
 10
-21.9379
 20
41.9469
 11
-21.5729
 21
41.8532
  0
LINE
  8
0
 10
-21.5729
 20
41.8532
 11
-21.2227
 21
41.7145
  0
LINE
  8
0
 10
-21.2227
 20
41.7145
 11
-20.8925
 21
41.533
  0
LINE
  8
0
 10
-20.8925
 20
41.533
 11
-20.5877
 21
41.3116
  0
LINE
  8
0
 10
-20.5877
 20
41.3116
 11
-20.3131
 21
41.0536
  0
LINE
  8
0
 10
-20.3131
 20
41.0536
 11
-20.0729
 21
40.7634
  0
LINE
  8
0
 10
-20.0729
 20
40.7634
 11
-19.8711
 21
40.4453
  0
LINE
  8
0
 10
-19.8711
 20
40.4453
 11
-19.7107
 21
40.1044
  0
LINE
  8
0
 10
-19.7107
 20
40.1044
 11
-19.5942
 21
39.7461
  0
LINE
  8
0
 10
-19.5942
 20
39.7461
 11
-19.5237
 21
39.376
  0
LINE
  8
0
 10
-19.5237
 20
39.376
 11
-19.5
 21
39
  0
LINE
  8
0
 10
-19.5
 20
39
 11
-19.5237
 21
38.624
  0
LINE
  8
0
 10
-19.5237
 20
38.624
 11
-19.5942
 21
38.2539
  0
LINE
  8
0
 10
-19.5942
 20
38.2539
 11
-19.7107
 21
37.8956
  0
LINE
  8
0
 10
-19.7107
 20
37.8956
 11
-19.8711
 21
37.5547
  0
LINE
  8
0
 10
-19.8711
 20
37.5547
 11
-20.0729
 21
37.2366
  0
LINE
  8
0
 10
-20.0729
 20
37.2366
 11
-20.3131
 21
36.9464
  0
LINE
  8
0
 10
-20.3131
 20
36.9464
 11
-20.5877
 21
36.6885
  0
LINE
  8
0
 10
-20.5877
 20
36.6885
 11
-20.8925
 21
36.467
  0
LINE
  8
0
 10
-20.8925
 20
36.467
 11
-21.2227
 21
36.2855
  0
LINE
  8
0
 10
-21.2227
 20
36.2855
 11
-21.5729
 21
36.1468
  0
LINE
  8
0
 10
-21.5729
 20
36.1468
 11
-21.9379
 21
36.0531
  0
LINE
  8
0
 10
-21.9379
 20
36.0531
 11
-22.3116
 21
36.0059
  0
LINE
  8
0
 10
-22.3116
 20
36.0059
 11
-22.6884
 21
36.0059
  0
LINE
  8
0
 10
14.9058
 20
37.503
 11
14.7189
 21
37.5266
  0
LINE
  8
0
 10
14.7189
 20
37.5266
 11
14.5365
 21
37.5734
  0
LINE
  8
0
 10
14.5365
 20
37.5734
 11
14.3613
 21
37.6428
  0
LINE
  8
0
 10
14.3613
 20
37.6428
 11
14.1963
 21
37.7335
  0
LINE
  8
0
 10
14.1963
 20
37.7335
 11
14.0439
 21
37.8442
  0
LINE
  8
0
 10
14.0439
 20
37.8442
 11
13.9065
 21
37.9732
  0
LINE
  8
0
 10
13.9065
 20
37.9732
 11
13.7865
 21
38.1183
  0
LINE
  8
0
 10
13.7865
 20
38.1183
 11
13.6855
 21
38.2774
  0
LINE
  8
0
 10
13.6855
 20
38.2774
 11
13.6053
 21
38.4478
  0
LINE
  8
0
 10
13.6053
 20
38.4478
 11
13.5471
 21
38.627
  0
LINE
  8
0
 10
13.5471
 20
38.627
 11
13.5118
 21
38.812
  0
LINE
  8
0
 10
13.5118
 20
38.812
 11
13.5
 21
39
  0
LINE
  8
0
 10
13.5
 20
39
 11
13.5118
 21
39.188
  0
LINE
  8
0
 10
13.5118
 20
39.188
 11
13.5471
 21
39.373
  0
LINE
  8
0
 10
13.5471
 20
39.373
 11
13.6053
 21
39.5522
  0
LINE
  8
0
 10
13.6053
 20
39.5522
 11
13.6855
 21
39.7226
  0
LINE
  8
0
 10
13.6855
 20
39.7226
 11
13.7865
 21
39.8817
  0
LINE
  8
0
 10
13.7865
 20
39.8817
 11
13.9065
 21
40.0268
  0
LINE
  8
0
 10
13.9065
 20
40.0268
 11
14.0439
 21
40.1558
  0
LINE
  8
0
 10
14.0439
 20
40.1558
 11
14.1963
 21
40.2665
  0
LINE
  8
0
 10
14.1963
 20
40.2665
 11
14.3613
 21
40.3573
  0
LINE
  8
0
 10
14.3613
 20
40.3573
 11
14.5365
 21
40.4266
  0
LINE
  8
0
 10
14.5365
 20
40.4266
 11
14.7189
 21
40.4734
  0
LINE
  8
0
 10
14.7189
 20
40.4734
 11
14.9058
 21
40.4971
  0
LINE
  8
0
 10
14.9058
 20
40.4971
 11
15.0942
 21
40.4971
  0
LINE
  8
0
 10
15.0942
 20
40.4971
 11
15.2811
 21
40.4734
  0
LINE
  8
0
 10
15.2811
 20
40.4734
 11
15.4635
 21
40.4266
  0
LINE
  8
0
 10
15.4635
 20
40.4266
 11
15.6387
 21
40.3573
  0
LINE
  8
0
 10
15.6387
 20
40.3573
 11
15.8037
 21
40.2665
  0
LINE
  8
0
 10
15.8037
 20
40.2665
 11
15.9561
 21
40.1558
  0
LINE
  8
0
 10
15.9561
 20
40.1558
 11
16.0934
 21
40.0268
  0
LINE
  8
0
 10
16.0934
 20
40.0268
 11
16.2135
 21
39.8817
  0
LINE
  8
0
 10
16.2135
 20
39.8817
 11
16.3145
 21
39.7226
  0
LINE
  8
0
 10
16.3145
 20
39.7226
 11
16.3947
 21
39.5522
  0
LINE
  8
0
 10
16.3947
 20
39.5522
 11
16.4529
 21
39.373
  0
LINE
  8
0
 10
16.4529
 20
39.373
 11
16.4882
 21
39.188
  0
LINE
  8
0
 10
16.4882
 20
39.188
 11
16.5
 21
39
  0
LINE
  8
0
 10
16.5
 20
39
 11
16.4882
 21
38.812
  0
LINE
  8
0
 10
16.4882
 20
38.812
 11
16.4529
 21
38.627
  0
LINE
  8
0
 10
16.4529
 20
38.627
 11
16.3947
 21
38.4478
  0
LINE
  8
0
 10
16.3947
 20
38.4478
 11
16.3145
 21
38.2774
  0
LINE
  8
0
 10
16.3145
 20
38.2774
 11
16.2135
 21
38.1183
  0
LINE
  8
0
 10
16.2135
 20
38.1183
 11
16.0934
 21
37.9732
  0
LINE
  8
0
 10
16.0934
 20
37.9732
 11
15.9561
 21
37.8442
  0
LINE
  8
0
 10
15.9561
 20
37.8442
 11
15.8037
 21
37.7335
  0
LINE
  8
0
 10
15.8037
 20
37.7335
 11
15.6387
 21
37.6428
  0
LINE
  8
0
 10
15.6387
 20
37.6428
 11
15.4635
 21
37.5734
  0
LINE
  8
0
 10
15.4635
 20
37.5734
 11
15.2811
 21
37.5266
  0
LINE
  8
0
 10
15.2811
 20
37.5266
 11
15.0942
 21
37.503
  0
LINE
  8
0
 10
15.0942
 20
37.503
 11
14.9058
 21
37.503
  0
LINE
  8
0
 10
-30.0942
 20
37.503
 11
-30.2811
 21
37.5266
  0
LINE
  8
0
 10
-30.2811
 20
37.5266
 11
-30.4635
 21
37.5734
  0
LINE
  8
0
 10
-30.4635
 20
37.5734
 11
-30.6387
 21
37.6428
  0
LINE
  8
0
 10
-30.6387
 20
37.6428
 11
-30.8037
 21
37.7335
  0
LINE
  8
0
 10
-30.8037
 20
37.7335
 11
-30.9561
 21
37.8442
  0
LINE
  8
0
 10
-30.9561
 20
37.8442
 11
-31.0934
 21
37.9732
  0
LINE
  8
0
 10
-31.0934
 20
37.9732
 11
-31.2135
 21
38.1183
  0
LINE
  8
0
 10
-31.2135
 20
38.1183
 11
-31.3145
 21
38.2774
  0
LINE
  8
0
 10
-31.3145
 20
38.2774
 11
-31.3947
 21
38.4478
  0
LINE
  8
0
 10
-31.3947
 20
38.4478
 11
-31.4529
 21
38.627
  0
LINE
  8
0
 10
-31.4529
 20
38.627
 11
-31.4882
 21
38.812
  0
LINE
  8
0
 10
-31.4882
 20
38.812
 11
-31.5
 21
39
  0
LINE
  8
0
 10
-31.5
 20
39
 11
-31.4882
 21
39.188
  0
LINE
  8
0
 10
-31.4882
 20
39.188
 11
-31.4529
 21
39.373
  0
LINE
  8
0
 10
-31.4529
 20
39.373
 11
-31.3947
 21
39.5522
  0
LINE
  8
0
 10
-31.3947
 20
39.5522
 11
-31.3145
 21
39.7226
  0
LINE
  8
0
 10
-31.3145
 20
39.7226
 11
-31.2135
 21
39.8817
  0
LINE
  8
0
 10
-31.2135
 20
39.8817
 11
-31.0934
 21
40.0268
  0
LINE
  8
0
 10
-31.0934
 20
40.0268
 11
-30.9561
 21
40.1558
  0
LINE
  8
0
 10
-30.9561
 20
40.1558
 11
-30.8037
 21
40.2665
  0
LINE
  8
0
 10
-30.8037
 20
40.2665
 11
-30.6387
 21
40.3573
  0
LINE
  8
0
 10
-30.6387
 20
40.3573
 11
-30.4635
 21
40.4266
  0
LINE
  8
0
 10
-30.4635
 20
40.4266
 11
-30.2811
 21
40.4734
  0
LINE
  8
0
 10
-30.2811
 20
40.4734
 11
-30.0942
 21
40.4971
  0
LINE
  8
0
 10
-30.0942
 20
40.4971
 11
-29.9058
 21
40.4971
  0
LINE
  8
0
 10
-29.9058
 20
40.4971
 11
-29.7189
 21
40.4734
  0
LINE
  8
0
 10
-29.7189
 20
40.4734
 11
-29.5365
 21
40.4266
  0
LINE
  8
0
 10
-29.5365
 20
40.4266
 11
-29.3613
 21
40.3573
  0
LINE
  8
0
 10
-29.3613
 20
40.3573
 11
-29.1963
 21
40.2665
  0
LINE
  8
0
 10
-29.1963
 20
40.2665
 11
-29.0439
 21
40.1558
  0
LINE
  8
0
 10
-29.0439
 20
40.1558
 11
-28.9065
 21
40.0268
  0
LINE
  8
0
 10
-28.9065
 20
40.0268
 11
-28.7865
 21
39.8817
  0
LINE
  8
0
 10
-28.7865
 20
39.8817
 11
-28.6855
 21
39.7226
  0
LINE
  8
0
 10
-28.6855
 20
39.7226
 11
-28.6053
 21
39.5522
  0
LINE
  8
0
 10
-28.6053
 20
39.5522
 11
-28.5471
 21
39.373
  0
LINE
  8
0
 10
-28.5471
 20
39.373
 11
-28.5118
 21
39.188
  0
LINE
  8
0
 10
-28.5118
 20
39.188
 11
-28.5
 21
39
  0
LINE
  8
0
 10
-28.5
 20
39
 11
-28.5118
 21
38.812
  0
LINE
  8
0
 10
-28.5118
 20
38.812
 11
-28.5471
 21
38.627
  0
LINE
  8
0
 10
-28.5471
 20
38.627
 11
-28.6053
 21
38.4478
  0
LINE
  8
0
 10
-28.6053
 20
38.4478
 11
-28.6855
 21
38.2774
  0
LINE
  8
0
 10
-28.6855
 20
38.2774
 11
-28.7865
 21
38.1183
  0
LINE
  8
0
 10
-28.7865
 20
38.1183
 11
-28.9065
 21
37.9732
  0
LINE
  8
0
 10
-28.9065
 20
37.9732
 11
-29.0439
 21
37.8442
  0
LINE
  8
0
 10
-29.0439
 20
37.8442
 11
-29.1963
 21
37.7335
  0
LINE
  8
0
 10
-29.1963
 20
37.7335
 11
-29.3613
 21
37.6428
  0
LINE
  8
0
 10
-29.3613
 20
37.6428
 11
-29.5365
 21
37.5734
  0
LINE
  8
0
 10
-29.5365
 20
37.5734
 11
-29.7189
 21
37.5266
  0
LINE
  8
0
 10
-29.7189
 20
37.5266
 11
-29.9058
 21
37.503
  0
LINE
  8
0
 10
-29.9058
 20
37.503
 11
-30.0942
 21
37.503
  0
LINE
  8
0
 10
-15.0942
 20
37.503
 11
-15.2811
 21
37.5266
  0
LINE
  8
0
 10
-15.2811
 20
37.5266
 11
-15.4635
 21
37.5734
  0
LINE
  8
0
 10
-15.4635
 20
37.5734
 11
-15.6387
 21
37.6428
  0
LINE
  8
0
 10
-15.6387
 20
37.6428
 11
-15.8037
 21
37.7335
  0
LINE
  8
0
 10
-15.8037
 20
37.7335
 11
-15.9561
 21
37.8442
  0
LINE
  8
0
 10
-15.9561
 20
37.8442
 11
-16.0934
 21
37.9732
  0
LINE
  8
0
 10
-16.0934
 20
37.9732
 11
-16.2135
 21
38.1183
  0
LINE
  8
0
 10
-16.2135
 20
38.1183
 11
-16.3145
 21
38.2774
  0
LINE
  8
0
 10
-16.3145
 20
38.2774
 11
-16.3947
 21
38.4478
  0
LINE
  8
0
 10
-16.3947
 20
38.4478
 11
-16.4529
 21
38.627
  0
LINE
  8
0
 10
-16.4529
 20
38.627
 11
-16.4882
 21
38.812
  0
LINE
  8
0
 10
-16.4882
 20
38.812
 11
-16.5
 21
39
  0
LINE
  8
0
 10
-16.5
 20
39
 11
-16.4882
 21
39.188
  0
LINE
  8
0
 10
-16.4882
 20
39.188
 11
-16.4529
 21
39.373
  0
LINE
  8
0
 10
-16.4529
 20
39.373
 11
-16.3947
 21
39.5522
  0
LINE
  8
0
 10
-16.3947
 20
39.5522
 11
-16.3145
 21
39.7226
  0
LINE
  8
0
 10
-16.3145
 20
39.7226
 11
-16.2135
 21
39.8817
  0
LINE
  8
0
 10
-16.2135
 20
39.8817
 11
-16.0934
 21
40.0268
  0
LINE
  8
0
 10
-16.0934
 20
40.0268
 11
-15.9561
 21
40.1558
  0
LINE
  8
0
 10
-15.9561
 20
40.1558
 11
-15.8037
 21
40.2665
  0
LINE
  8
0
 10
-15.8037
 20
40.2665
 11
-15.6387
 21
40.3573
  0
LINE
  8
0
 10
-15.6387
 20
40.3573
 11
-15.4635
 21
40.4266
  0
LINE
  8
0
 10
-15.4635
 20
40.4266
 11
-15.2811
 21
40.4734
  0
LINE
  8
0
 10
-15.2811
 20
40.4734
 11
-15.0942
 21
40.4971
  0
LINE
  8
0
 10
-15.0942
 20
40.4971
 11
-14.9058
 21
40.4971
  0
LINE
  8
0
 10
-14.9058
 20
40.4971
 11
-14.7189
 21
40.4734
  0
LINE
  8
0
 10
-14.7189
 20
40.4734
 11
-14.5365
 21
40.4266
  0
LINE
  8
0
 10
-14.5365
 20
40.4266
 11
-14.3613
 21
40.3573
  0
LINE
  8
0
 10
-14.3613
 20
40.3573
 11
-14.1963
 21
40.2665
  0
LINE
  8
0
 10
-14.1963
 20
40.2665
 11
-14.0439
 21
40.1558
  0
LINE
  8
0
 10
-14.0439
 20
40.1558
 11
-13.9065
 21
40.0268
  0
LINE
  8
0
 10
-13.9065
 20
40.0268
 11
-13.7865
 21
39.8817
  0
LINE
  8
0
 10
-13.7865
 20
39.8817
 11
-13.6855
 21
39.7226
  0
LINE
  8
0
 10
-13.6855
 20
39.7226
 11
-13.6053
 21
39.5522
  0
LINE
  8
0
 10
-13.6053
 20
39.5522
 11
-13.5471
 21
39.373
  0
LINE
  8
0
 10
-13.5471
 20
39.373
 11
-13.5118
 21
39.188
  0
LINE
  8
0
 10
-13.5118
 20
39.188
 11
-13.5
 21
39
  0
LINE
  8
0
 10
-13.5
 20
39
 11
-13.5118
 21
38.812
  0
LINE
  8
0
 10
-13.5118
 20
38.812
 11
-13.5471
 21
38.627
  0
LINE
  8
0
 10
-13.5471
 20
38.627
 11
-13.6053
 21
38.4478
  0
LINE
  8
0
 10
-13.6053
 20
38.4478
 11
-13.6855
 21
38.2774
  0
LINE
  8
0
 10
-13.6855
 20
38.2774
 11
-13.7865
 21
38.1183
  0
LINE
  8
0
 10
-13.7865
 20
38.1183
 11
-13.9065
 21
37.9732
  0
LINE
  8
0
 10
-13.9065
 20
37.9732
 11
-14.0439
 21
37.8442
  0
LINE
  8
0
 10
-14.0439
 20
37.8442
 11
-14.1963
 21
37.7335
  0
LINE
  8
0
 10
-14.1963
 20
37.7335
 11
-14.3613
 21
37.6428
  0
LINE
  8
0
 10
-14.3613
 20
37.6428
 11
-14.5365
 21
37.5734
  0
LINE
  8
0
 10
-14.5365
 20
37.5734
 11
-14.7189
 21
37.5266
  0
LINE
  8
0
 10
-14.7189
 20
37.5266
 11
-14.9058
 21
37.503
  0
LINE
  8
0
 10
-14.9058
 20
37.503
 11
-15.0942
 21
37.503
  0
LINE
  8
0
 10
29.9058
 20
37.503
 11
29.7189
 21
37.5266
  0
LINE
  8
0
 10
29.7189
 20
37.5266
 11
29.5365
 21
37.5734
  0
LINE
  8
0
 10
29.5365
 20
37.5734
 11
29.3613
 21
37.6428
  0
LINE
  8
0
 10
29.3613
 20
37.6428
 11
29.1963
 21
37.7335
  0
LINE
  8
0
 10
29.1963
 20
37.7335
 11
29.0439
 21
37.8442
  0
LINE
  8
0
 10
29.0439
 20
37.8442
 11
28.9065
 21
37.9732
  0
LINE
  8
0
 10
28.9065
 20
37.9732
 11
28.7865
 21
38.1183
  0
LINE
  8
0
 10
28.7865
 20
38.1183
 11
28.6855
 21
38.2774
  0
LINE
  8
0
 10
28.6855
 20
38.2774
 11
28.6053
 21
38.4478
  0
LINE
  8
0
 10
28.6053
 20
38.4478
 11
28.5471
 21
38.627
  0
LINE
  8
0
 10
28.5471
 20
38.627
 11
28.5118
 21
38.812
  0
LINE
  8
0
 10
28.5118
 20
38.812
 11
28.5
 21
39
  0
LINE
  8
0
 10
28.5
 20
39
 11
28.5118
 21
39.188
  0
LINE
  8
0
 10
28.5118
 20
39.188
 11
28.5471
 21
39.373
  0
LINE
  8
0
 10
28.5471
 20
39.373
 11
28.6053
 21
39.5522
  0
LINE
  8
0
 10
28.6053
 20
39.5522
 11
28.6855
 21
39.7226
  0
LINE
  8
0
 10
28.6855
 20
39.7226
 11
28.7865
 21
39.8817
  0
LINE
  8
0
 10
28.7865
 20
39.8817
 11
28.9065
 21
40.0268
  0
LINE
  8
0
 10
28.9065
 20
40.0268
 11
29.0439
 21
40.1558
  0
LINE
  8
0
 10
29.0439
 20
40.1558
 11
29.1963
 21
40.2665
  0
LINE
  8
0
 10
29.1963
 20
40.2665
 11
29.3613
 21
40.3573
  0
LINE
  8
0
 10
29.3613
 20
40.3573
 11
29.5365
 21
40.4266
  0
LINE
  8
0
 10
29.5365
 20
40.4266
 11
29.7189
 21
40.4734
  0
LINE
  8
0
 10
29.7189
 20
40.4734
 11
29.9058
 21
40.4971
  0
LINE
  8
0
 10
29.9058
 20
40.4971
 11
30.0942
 21
40.4971
  0
LINE
  8
0
 10
30.0942
 20
40.4971
 11
30.2811
 21
40.4734
  0
LINE
  8
0
 10
30.2811
 20
40.4734
 11
30.4635
 21
40.4266
  0
LINE
  8
0
 10
30.4635
 20
40.4266
 11
30.6387
 21
40.3573
  0
LINE
  8
0
 10
30.6387
 20
40.3573
 11
30.8037
 21
40.2665
  0
LINE
  8
0
 10
30.8037
 20
40.2665
 11
30.9561
 21
40.1558
  0
LINE
  8
0
 10
30.9561
 20
40.1558
 11
31.0934
 21
40.0268
  0
LINE
  8
0
 10
31.0934
 20
40.0268
 11
31.2135
 21
39.8817
  0
LINE
  8
0
 10
31.2135
 20
39.8817
 11
31.3145
 21
39.7226
  0
LINE
  8
0
 10
31.3145
 20
39.7226
 11
31.3947
 21
39.5522
  0
LINE
  8
0
 10
31.3947
 20
39.5522
 11
31.4529
 21
39.373
  0
LINE
  8
0
 10
31.4529
 20
39.373
 11
31.4882
 21
39.188
  0
LINE
  8
0
 10
31.4882
 20
39.188
 11
31.5
 21
39
  0
LINE
  8
0
 10
31.5
 20
39
 11
31.4882
 21
38.812
  0
LINE
  8
0
 10
31.4882
 20
38.812
 11
31.4529
 21
38.627
  0
LINE
  8
0
 10
31.4529
 20
38.627
 11
31.3947
 21
38.4478
  0
LINE
  8
0
 10
31.3947
 20
38.4478
 11
31.3145
 21
38.2774
  0
LINE
  8
0
 10
31.3145
 20
38.2774
 11
31.2135
 21
38.1183
  0
LINE
  8
0
 10
31.2135
 20
38.1183
 11
31.0934
 21
37.9732
  0
LINE
  8
0
 10
31.0934
 20
37.9732
 11
30.9561
 21
37.8442
  0
LINE
  8
0
 10
30.9561
 20
37.8442
 11
30.8037
 21
37.7335
  0
LINE
  8
0
 10
30.8037
 20
37.7335
 11
30.6387
 21
37.6428
  0
LINE
  8
0
 10
30.6387
 20
37.6428
 11
30.4635
 21
37.5734
  0
LINE
  8
0
 10
30.4635
 20
37.5734
 11
30.2811
 21
37.5266
  0
LINE
  8
0
 10
30.2811
 20
37.5266
 11
30.0942
 21
37.503
  0
LINE
  8
0
 10
30.0942
 20
37.503
 11
29.9058
 21
37.503
  0
LINE
  8
0
 10
-0.0941772
 20
37.503
 11
-0.281067
 21
37.5266
  0
LINE
  8
0
 10
-0.281067
 20
37.5266
 11
-0.463516
 21
37.5734
  0
LINE
  8
0
 10
-0.463516
 20
37.5734
 11
-0.638657
 21
37.6428
  0
LINE
  8
0
 10
-0.638657
 20
37.6428
 11
-0.803726
 21
37.7335
  0
LINE
  8
0
 10
-0.803726
 20
37.7335
 11
-0.956131
 21
37.8442
  0
LINE
  8
0
 10
-0.956131
 20
37.8442
 11
-1.09344
 21
37.9732
  0
LINE
  8
0
 10
-1.09344
 20
37.9732
 11
-1.21352
 21
38.1183
  0
LINE
  8
0
 10
-1.21352
 20
38.1183
 11
-1.31445
 21
38.2774
  0
LINE
  8
0
 10
-1.31445
 20
38.2774
 11
-1.39465
 21
38.4478
  0
LINE
  8
0
 10
-1.39465
 20
38.4478
 11
-1.45287
 21
38.627
  0
LINE
  8
0
 10
-1.45287
 20
38.627
 11
-1.48816
 21
38.812
  0
LINE
  8
0
 10
-1.48816
 20
38.812
 11
-1.5
 21
39
  0
LINE
  8
0
 10
-1.5
 20
39
 11
-1.48816
 21
39.188
  0
LINE
  8
0
 10
-1.48816
 20
39.188
 11
-1.45287
 21
39.373
  0
LINE
  8
0
 10
-1.45287
 20
39.373
 11
-1.39465
 21
39.5522
  0
LINE
  8
0
 10
-1.39465
 20
39.5522
 11
-1.31445
 21
39.7226
  0
LINE
  8
0
 10
-1.31445
 20
39.7226
 11
-1.21352
 21
39.8817
  0
LINE
  8
0
 10
-1.21352
 20
39.8817
 11
-1.09344
 21
40.0268
  0
LINE
  8
0
 10
-1.09344
 20
40.0268
 11
-0.956131
 21
40.1558
  0
LINE
  8
0
 10
-0.956131
 20
40.1558
 11
-0.803726
 21
40.2665
  0
LINE
  8
0
 10
-0.803726
 20
40.2665
 11
-0.638657
 21
40.3573
  0
LINE
  8
0
 10
-0.638657
 20
40.3573
 11
-0.463516
 21
40.4266
  0
LINE
  8
0
 10
-0.463516
 20
40.4266
 11
-0.281067
 21
40.4734
  0
LINE
  8
0
 10
-0.281067
 20
40.4734
 11
-0.0941772
 21
40.4971
  0
LINE
  8
0
 10
-0.0941772
 20
40.4971
 11
0.0941772
 21
40.4971
  0
LINE
  8
0
 10
0.0941772
 20
40.4971
 11
0.281067
 21
40.4734
  0
LINE
  8
0
 10
0.281067
 20
40.4734
 11
0.463516
 21
40.4266
  0
LINE
  8
0
 10
0.463516
 20
40.4266
 11
0.638657
 21
40.3573
  0
LINE
  8
0
 10
0.638657
 20
40.3573
 11
0.803726
 21
40.2665
  0
LINE
  8
0
 10
0.803726
 20
40.2665
 11
0.956131
 21
40.1558
  0
LINE
  8
0
 10
0.956131
 20
40.1558
 11
1.09344
 21
40.0268
  0
LINE
  8
0
 10
1.09344
 20
40.0268
 11
1.21352
 21
39.8817
  0
LINE
  8
0
 10
1.21352
 20
39.8817
 11
1.31445
 21
39.7226
  0
LINE
  8
0
 10
1.31445
 20
39.7226
 11
1.39465
 21
39.5522
  0
LINE
  8
0
 10
1.39465
 20
39.5522
 11
1.45287
 21
39.373
  0
LINE
  8
0
 10
1.45287
 20
39.373
 11
1.48816
 21
39.188
  0
LINE
  8
0
 10
1.48816
 20
39.188
 11
1.5
 21
39
  0
LINE
  8
0
 10
1.5
 20
39
 11
1.48816
 21
38.812
  0
LINE
  8
0
 10
1.48816
 20
38.812
 11
1.45287
 21
38.627
  0
LINE
  8
0
 10
1.45287
 20
38.627
 11
1.39465
 21
38.4478
  0
LINE
  8
0
 10
1.39465
 20
38.4478
 11
1.31445
 21
38.2774
  0
LINE
  8
0
 10
1.31445
 20
38.2774
 11
1.21352
 21
38.1183
  0
LINE
  8
0
 10
1.21352
 20
38.1183
 11
1.09344
 21
37.9732
  0
LINE
  8
0
 10
1.09344
 20
37.9732
 11
0.956131
 21
37.8442
  0
LINE
  8
0
 10
0.956131
 20
37.8442
 11
0.803726
 21
37.7335
  0
LINE
  8
0
 10
0.803726
 20
37.7335
 11
0.638657
 21
37.6428
  0
LINE
  8
0
 10
0.638657
 20
37.6428
 11
0.463516
 21
37.5734
  0
LINE
  8
0
 10
0.463516
 20
37.5734
 11
0.281067
 21
37.5266
  0
LINE
  8
0
 10
0.281067
 20
37.5266
 11
0.0941772
 21
37.503
  0
LINE
  8
0
 10
0.0941772
 20
37.503
 11
-0.0941772
 21
37.503
  0
ENDSEC
  0
SECTION
  2
OBJECTS
  0
DICTIONARY
  0
ENDSEC
  0
EOF
