<?xml version="1.0" standalone="no"?>
<!DOCTYPE svg PUBLIC "-//W3C//DTD SVG 1.1//EN" "http://www.w3.org/Graphics/SVG/1.1/DTD/svg11.dtd">
<svg width="150mm" height="44mm" viewBox="-75 -22 150 44" xmlns="http://www.w3.org/2000/svg" version="1.1">
<title>OpenSCAD Model</title>
<path d="
M 70.4369,21.9114 L 71.0451,21.7553 L 71.6289,21.5241 L 72.1791,21.2216 L 72.6871,20.8526 L 73.1448,20.4227
 L 73.5451,19.9389 L 73.8815,19.4088 L 74.1489,18.8406 L 74.3429,18.2434 L 74.4606,17.6267 L 74.5,17
 L 74.5,-17 L 74.4606,-17.6267 L 74.3429,-18.2434 L 74.1489,-18.8406 L 73.8815,-19.4088 L 73.5451,-19.9389
 L 73.1448,-20.4227 L 72.6871,-20.8526 L 72.1791,-21.2216 L 71.6289,-21.5241 L 71.0451,-21.7553 L 70.4369,-21.9114
 L 69.8139,-21.9901 L -69.8139,-21.9901 L -70.4369,-21.9114 L -71.0451,-21.7553 L -71.6289,-21.5241 L -72.1791,-21.2216
 L -72.6871,-20.8526 L -73.1448,-20.4227 L -73.5451,-19.9389 L -73.8815,-19.4088 L -74.1489,-18.8406 L -74.3429,-18.2434
 L -74.4606,-17.6267 L -74.5,-17 L -74.5,17 L -74.4606,17.6267 L -74.3429,18.2434 L -74.1489,18.8406
 L -73.8815,19.4088 L -73.5451,19.9389 L -73.1448,20.4227 L -72.6871,20.8526 L -72.1791,21.2216 L -71.6289,21.5241
 L -71.0451,21.7553 L -70.4369,21.9114 L -69.8139,21.9901 L 69.8139,21.9901 z
M -67.6884,-12.0059 L -68.0621,-12.0531 L -68.427,-12.1468 L -68.7773,-12.2855 L -69.1075,-12.467 L -69.4123,-12.6884
 L -69.6869,-12.9464 L -69.927,-13.2366 L -70.1289,-13.5547 L -70.2893,-13.8956 L -70.4057,-14.2539 L -70.4763,-14.624
 L -70.5,-15 L -70.4763,-15.376 L -70.4057,-15.7461 L -70.2893,-16.1044 L -70.1289,-16.4453 L -69.927,-16.7634
 L -69.6869,-17.0536 L -69.4123,-17.3115 L -69.1075,-17.533 L -68.7773,-17.7145 L -68.427,-17.8532 L -68.0621,-17.9469
 L -67.6884,-17.9941 L -67.3116,-17.9941 L -66.9379,-17.9469 L -66.573,-17.8532 L -66.2227,-17.7145 L -65.8925,-17.533
 L -65.5877,-17.3115 L -65.3131,-17.0536 L -65.073,-16.7634 L -64.8711,-16.4453 L -64.7107,-16.1044 L -64.5943,-15.7461
 L -64.5237,-15.376 L -64.5,-15 L -64.5237,-14.624 L -64.5943,-14.2539 L -64.7107,-13.8956 L -64.8711,-13.5547
 L -65.073,-13.2366 L -65.3131,-12.9464 L -65.5877,-12.6884 L -65.8925,-12.467 L -66.2227,-12.2855 L -66.573,-12.1468
 L -66.9379,-12.0531 L -67.3116,-12.0059 z
M 67.3116,-12.0059 L 66.9379,-12.0531 L 66.573,-12.1468 L 66.2227,-12.2855 L 65.8925,-12.467 L 65.5877,-12.6884
 L 65.3131,-12.9464 L 65.073,-13.2366 L 64.8711,-13.5547 L 64.7107,-13.8956 L 64.5943,-14.2539 L 64.5237,-14.624
 L 64.5,-15 L 64.5237,-15.376 L 64.5943,-15.7461 L 64.7107,-16.1044 L 64.8711,-16.4453 L 65.073,-16.7634
 L 65.3131,-17.0536 L 65.5877,-17.3115 L 65.8925,-17.533 L 66.2227,-17.7145 L 66.573,-17.8532 L 66.9379,-17.9469
 L 67.3116,-17.9941 L 67.6884,-17.9941 L 68.0621,-17.9469 L 68.427,-17.8532 L 68.7773,-17.7145 L 69.1075,-17.533
 L 69.4123,-17.3115 L 69.6869,-17.0536 L 69.927,-16.7634 L 70.1289,-16.4453 L 70.2893,-16.1044 L 70.4057,-15.7461
 L 70.4763,-15.376 L 70.5,-15 L 70.4763,-14.624 L 70.4057,-14.2539 L 70.2893,-13.8956 L 70.1289,-13.5547
 L 69.927,-13.2366 L 69.6869,-12.9464 L 69.4123,-12.6884 L 69.1075,-12.467 L 68.7773,-12.2855 L 68.427,-12.1468
 L 68.0621,-12.0531 L 67.6884,-12.0059 z
M 48.6209,13.9724 L 46.8767,13.752 L 45.1738,13.3148 L 43.5391,12.6676 L 41.9984,11.8206 L 40.5761,10.7872
 L 39.2944,9.58365 L 38.1738,8.22899 L 37.2317,6.74454 L 36.4831,5.15373 L 35.9398,3.48164 L 35.6104,1.75465
 L 35.5,-0 L 35.6104,-1.75465 L 35.9398,-3.48164 L 36.4831,-5.15373 L 37.2317,-6.74454 L 38.1738,-8.22899
 L 39.2944,-9.58365 L 40.5761,-10.7872 L 41.9984,-11.8206 L 43.5391,-12.6676 L 45.1738,-13.3148 L 46.8767,-13.752
 L 48.6209,-13.9724 L 50.3791,-13.9724 L 52.1233,-13.752 L 53.8262,-13.3148 L 55.4609,-12.6676 L 57.0016,-11.8206
 L 58.4239,-10.7872 L 59.7056,-9.58365 L 60.8262,-8.22899 L 61.7683,-6.74454 L 62.5169,-5.15373 L 63.0602,-3.48164
 L 63.3896,-1.75465 L 63.5,-0 L 63.3896,1.75465 L 63.0602,3.48164 L 62.5169,5.15373 L 61.7683,6.74454
 L 60.8262,8.22899 L 59.7056,9.58365 L 58.4239,10.7872 L 57.0016,11.8206 L 55.4609,12.6676 L 53.8262,13.3148
 L 52.1233,13.752 L 50.3791,13.9724 z
M -50.3791,13.9724 L -52.1233,13.752 L -53.8262,13.3148 L -55.4609,12.6676 L -57.0016,11.8206 L -58.4239,10.7872
 L -59.7056,9.58365 L -60.8262,8.22899 L -61.7683,6.74454 L -62.5169,5.15373 L -63.0602,3.48164 L -63.3896,1.75465
 L -63.5,-0 L -63.3896,-1.75465 L -63.0602,-3.48164 L -62.5169,-5.15373 L -61.7683,-6.74454 L -60.8262,-8.22899
 L -59.7056,-9.58365 L -58.4239,-10.7872 L -57.0016,-11.8206 L -55.4609,-12.6676 L -53.8262,-13.3148 L -52.1233,-13.752
 L -50.3791,-13.9724 L -48.6209,-13.9724 L -46.8767,-13.752 L -45.1738,-13.3148 L -43.5391,-12.6676 L -41.9984,-11.8206
 L -40.5761,-10.7872 L -39.2944,-9.58365 L -38.1738,-8.22899 L -37.2317,-6.74454 L -36.4831,-5.15373 L -35.9398,-3.48164
 L -35.6104,-1.75465 L -35.5,-0 L -35.6104,1.75465 L -35.9398,3.48164 L -36.4831,5.15373 L -37.2317,6.74454
 L -38.1738,8.22899 L -39.2944,9.58365 L -40.5761,10.7872 L -41.9984,11.8206 L -43.5391,12.6676 L -45.1738,13.3148
 L -46.8767,13.752 L -48.6209,13.9724 z
M 15.6209,13.9724 L 13.8766,13.752 L 12.1738,13.3148 L 10.5391,12.6676 L 8.99841,11.8206 L 7.57605,10.7872
 L 6.29443,9.58365 L 5.17375,8.22899 L 4.2317,6.74454 L 3.48312,5.15373 L 2.93983,3.48164 L 2.61038,1.75465
 L 2.5,-0 L 2.61038,-1.75465 L 2.93983,-3.48164 L 3.48312,-5.15373 L 4.2317,-6.74454 L 5.17375,-8.22899
 L 6.29443,-9.58365 L 7.57605,-10.7872 L 8.99841,-11.8206 L 10.5391,-12.6676 L 12.1738,-13.3148 L 13.8766,-13.752
 L 15.6209,-13.9724 L 17.3791,-13.9724 L 19.1233,-13.752 L 20.8262,-13.3148 L 22.4609,-12.6676 L 24.0016,-11.8206
 L 25.4239,-10.7872 L 26.7056,-9.58365 L 27.8262,-8.22899 L 28.7683,-6.74454 L 29.5169,-5.15373 L 30.0602,-3.48164
 L 30.3896,-1.75465 L 30.5,-0 L 30.3896,1.75465 L 30.0602,3.48164 L 29.5169,5.15373 L 28.7683,6.74454
 L 27.8262,8.22899 L 26.7056,9.58365 L 25.4239,10.7872 L 24.0016,11.8206 L 22.4609,12.6676 L 20.8262,13.3148
 L 19.1233,13.752 L 17.3791,13.9724 z
M -17.3791,13.9724 L -19.1233,13.752 L -20.8262,13.3148 L -22.4609,12.6676 L -24.0016,11.8206 L -25.4239,10.7872
 L -26.7056,9.58365 L -27.8262,8.22899 L -28.7683,6.74454 L -29.5169,5.15373 L -30.0602,3.48164 L -30.3896,1.75465
 L -30.5,-0 L -30.3896,-1.75465 L -30.0602,-3.48164 L -29.5169,-5.15373 L -28.7683,-6.74454 L -27.8262,-8.22899
 L -26.7056,-9.58365 L -25.4239,-10.7872 L -24.0016,-11.8206 L -22.4609,-12.6676 L -20.8262,-13.3148 L -19.1233,-13.752
 L -17.3791,-13.9724 L -15.6209,-13.9724 L -13.8766,-13.752 L -12.1738,-13.3148 L -10.5391,-12.6676 L -8.99841,-11.8206
 L -7.57605,-10.7872 L -6.29443,-9.58365 L -5.17375,-8.22899 L -4.2317,-6.74454 L -3.48312,-5.15373 L -2.93983,-3.48164
 L -2.61038,-1.75465 L -2.5,-0 L -2.61038,1.75465 L -2.93983,3.48164 L -3.48312,5.15373 L -4.2317,6.74454
 L -5.17375,8.22899 L -6.29443,9.58365 L -7.57605,10.7872 L -8.99841,11.8206 L -10.5391,12.6676 L -12.1738,13.3148
 L -13.8766,13.752 L -15.6209,13.9724 z
M -67.5942,-6.00294 L -67.7811,-6.02657 L -67.9635,-6.07341 L -68.1387,-6.14275 L -68.3037,-6.23351 L -68.4561,-6.34422
 L -68.5934,-6.47318 L -68.7135,-6.61832 L -68.8145,-6.77736 L -68.8947,-6.9478 L -68.9529,-7.12695 L -68.9882,-7.312
 L -69,-7.5 L -68.9882,-7.68799 L -68.9529,-7.87303 L -68.8947,-8.05219 L -68.8145,-8.22263 L -68.7135,-8.38167
 L -68.5934,-8.52681 L -68.4561,-8.65576 L -68.3037,-8.76648 L -68.1387,-8.85724 L -67.9635,-8.92657 L -67.7811,-8.97342
 L -67.5942,-8.99704 L -67.4058,-8.99704 L -67.2189,-8.97342 L -67.0365,-8.92657 L -66.8613,-8.85724 L -66.6963,-8.76648
 L -66.5439,-8.65576 L -66.4065,-8.52681 L -66.2865,-8.38167 L -66.1855,-8.22263 L -66.1053,-8.05219 L -66.0471,-7.87303
 L -66.0118,-7.68799 L -66,-7.5 L -66.0118,-7.312 L -66.0471,-7.12695 L -66.1053,-6.9478 L -66.1855,-6.77736
 L -66.2865,-6.61832 L -66.4065,-6.47318 L -66.5439,-6.34422 L -66.6963,-6.23351 L -66.8613,-6.14275 L -67.0365,-6.07341
 L -67.2189,-6.02657 L -67.4058,-6.00294 z
M 67.4058,-6.00294 L 67.2189,-6.02657 L 67.0365,-6.07341 L 66.8613,-6.14275 L 66.6963,-6.23351 L 66.5439,-6.34422
 L 66.4065,-6.47318 L 66.2865,-6.61832 L 66.1855,-6.77736 L 66.1053,-6.9478 L 66.0471,-7.12695 L 66.0118,-7.312
 L 66,-7.5 L 66.0118,-7.68799 L 66.0471,-7.87303 L 66.1053,-8.05219 L 66.1855,-8.22263 L 66.2865,-8.38167
 L 66.4065,-8.52681 L 66.5439,-8.65576 L 66.6963,-8.76648 L 66.8613,-8.85724 L 67.0365,-8.92657 L 67.2189,-8.97342
 L 67.4058,-8.99704 L 67.5942,-8.99704 L 67.7811,-8.97342 L 67.9635,-8.92657 L 68.1387,-8.85724 L 68.3037,-8.76648
 L 68.4561,-8.65576 L 68.5934,-8.52681 L 68.7135,-8.38167 L 68.8145,-8.22263 L 68.8947,-8.05219 L 68.9529,-7.87303
 L 68.9882,-7.68799 L 69,-7.5 L 68.9882,-7.312 L 68.9529,-7.12695 L 68.8947,-6.9478 L 68.8145,-6.77736
 L 68.7135,-6.61832 L 68.5934,-6.47318 L 68.4561,-6.34422 L 68.3037,-6.23351 L 68.1387,-6.14275 L 67.9635,-6.07341
 L 67.7811,-6.02657 L 67.5942,-6.00294 z
M 67.3116,2.99408 L 66.9379,2.94685 L 66.573,2.85316 L 66.2227,2.71448 L 65.8925,2.53297 L 65.5877,2.31154
 L 65.3131,2.05363 L 65.073,1.76335 L 64.8711,1.44525 L 64.7107,1.10437 L 64.5943,0.746063 L 64.5237,0.375992
 L 64.5,-0 L 64.5237,-0.375992 L 64.5943,-0.746063 L 64.7107,-1.10437 L 64.8711,-1.44525 L 65.073,-1.76335
 L 65.3131,-2.05363 L 65.5877,-2.31154 L 65.8925,-2.53297 L 66.2227,-2.71448 L 66.573,-2.85316 L 66.9379,-2.94685
 L 67.3116,-2.99408 L 67.6884,-2.99408 L 68.0621,-2.94685 L 68.427,-2.85316 L 68.7773,-2.71448 L 69.1075,-2.53297
 L 69.4123,-2.31154 L 69.6869,-2.05363 L 69.927,-1.76335 L 70.1289,-1.44525 L 70.2893,-1.10437 L 70.4057,-0.746063
 L 70.4763,-0.375992 L 70.5,-0 L 70.4763,0.375992 L 70.4057,0.746063 L 70.2893,1.10437 L 70.1289,1.44525
 L 69.927,1.76335 L 69.6869,2.05363 L 69.4123,2.31154 L 69.1075,2.53297 L 68.7773,2.71448 L 68.427,2.85316
 L 68.0621,2.94685 L 67.6884,2.99408 z
M -67.6884,2.99408 L -68.0621,2.94685 L -68.427,2.85316 L -68.7773,2.71448 L -69.1075,2.53297 L -69.4123,2.31154
 L -69.6869,2.05363 L -69.927,1.76335 L -70.1289,1.44525 L -70.2893,1.10437 L -70.4057,0.746063 L -70.4763,0.375992
 L -70.5,-0 L -70.4763,-0.375992 L -70.4057,-0.746063 L -70.2893,-1.10437 L -70.1289,-1.44525 L -69.927,-1.76335
 L -69.6869,-2.05363 L -69.4123,-2.31154 L -69.1075,-2.53297 L -68.7773,-2.71448 L -68.427,-2.85316 L -68.0621,-2.94685
 L -67.6884,-2.99408 L -67.3116,-2.99408 L -66.9379,-2.94685 L -66.573,-2.85316 L -66.2227,-2.71448 L -65.8925,-2.53297
 L -65.5877,-2.31154 L -65.3131,-2.05363 L -65.073,-1.76335 L -64.8711,-1.44525 L -64.7107,-1.10437 L -64.5943,-0.746063
 L -64.5237,-0.375992 L -64.5,-0 L -64.5237,0.375992 L -64.5943,0.746063 L -64.7107,1.10437 L -64.8711,1.44525
 L -65.073,1.76335 L -65.3131,2.05363 L -65.5877,2.31154 L -65.8925,2.53297 L -66.2227,2.71448 L -66.573,2.85316
 L -66.9379,2.94685 L -67.3116,2.99408 z
M 67.4058,8.99704 L 67.2189,8.97342 L 67.0365,8.92657 L 66.8613,8.85724 L 66.6963,8.76648 L 66.5439,8.65576
 L 66.4065,8.52681 L 66.2865,8.38167 L 66.1855,8.22263 L 66.1053,8.05219 L 66.0471,7.87303 L 66.0118,7.68799
 L 66,7.5 L 66.0118,7.312 L 66.0471,7.12695 L 66.1053,6.9478 L 66.1855,6.77736 L 66.2865,6.61832
 L 66.4065,6.47318 L 66.5439,6.34422 L 66.6963,6.23351 L 66.8613,6.14275 L 67.0365,6.07341 L 67.2189,6.02657
 L 67.4058,6.00294 L 67.5942,6.00294 L 67.7811,6.02657 L 67.9635,6.07341 L 68.1387,6.14275 L 68.3037,6.23351
 L 68.4561,6.34422 L 68.5934,6.47318 L 68.7135,6.61832 L 68.8145,6.77736 L 68.8947,6.9478 L 68.9529,7.12695
 L 68.9882,7.312 L 69,7.5 L 68.9882,7.68799 L 68.9529,7.87303 L 68.8947,8.05219 L 68.8145,8.22263
 L 68.7135,8.38167 L 68.5934,8.52681 L 68.4561,8.65576 L 68.3037,8.76648 L 68.1387,8.85724 L 67.9635,8.92657
 L 67.7811,8.97342 L 67.5942,8.99704 z
M -67.5942,8.99704 L -67.7811,8.97342 L -67.9635,8.92657 L -68.1387,8.85724 L -68.3037,8.76648 L -68.4561,8.65576
 L -68.5934,8.52681 L -68.7135,8.38167 L -68.8145,8.22263 L -68.8947,8.05219 L -68.9529,7.87303 L -68.9882,7.68799
 L -69,7.5 L -68.9882,7.312 L -68.9529,7.12695 L -68.8947,6.9478 L -68.8145,6.77736 L -68.7135,6.61832
 L -68.5934,6.47318 L -68.4561,6.34422 L -68.3037,6.23351 L -68.1387,6.14275 L -67.9635,6.07341 L -67.7811,6.02657
 L -67.5942,6.00294 L -67.4058,6.00294 L -67.2189,6.02657 L -67.0365,6.07341 L -66.8613,6.14275 L -66.6963,6.23351
 L -66.5439,6.34422 L -66.4065,6.47318 L -66.2865,6.61832 L -66.1855,6.77736 L -66.1053,6.9478 L -66.0471,7.12695
 L -66.0118,7.312 L -66,7.5 L -66.0118,7.68799 L -66.0471,7.87303 L -66.1053,8.05219 L -66.1855,8.22263
 L -66.2865,8.38167 L -66.4065,8.52681 L -66.5439,8.65576 L -66.6963,8.76648 L -66.8613,8.85724 L -67.0365,8.92657
 L -67.2189,8.97342 L -67.4058,8.99704 z
M 67.3116,17.9941 L 66.9379,17.9469 L 66.573,17.8532 L 66.2227,17.7145 L 65.8925,17.533 L 65.5877,17.3115
 L 65.3131,17.0536 L 65.073,16.7634 L 64.8711,16.4453 L 64.7107,16.1044 L 64.5943,15.7461 L 64.5237,15.376
 L 64.5,15 L 64.5237,14.624 L 64.5943,14.2539 L 64.7107,13.8956 L 64.8711,13.5547 L 65.073,13.2366
 L 65.3131,12.9464 L 65.5877,12.6884 L 65.8925,12.467 L 66.2227,12.2855 L 66.573,12.1468 L 66.9379,12.0531
 L 67.3116,12.0059 L 67.6884,12.0059 L 68.0621,12.0531 L 68.427,12.1468 L 68.7773,12.2855 L 69.1075,12.467
 L 69.4123,12.6884 L 69.6869,12.9464 L 69.927,13.2366 L 70.1289,13.5547 L 70.2893,13.8956 L 70.4057,14.2539
 L 70.4763,14.624 L 70.5,15 L 70.4763,15.376 L 70.4057,15.7461 L 70.2893,16.1044 L 70.1289,16.4453
 L 69.927,16.7634 L 69.6869,17.0536 L 69.4123,17.3115 L 69.1075,17.533 L 68.7773,17.7145 L 68.427,17.8532
 L 68.0621,17.9469 L 67.6884,17.9941 z
M -67.6884,17.9941 L -68.0621,17.9469 L -68.427,17.8532 L -68.7773,17.7145 L -69.1075,17.533 L -69.4123,17.3115
 L -69.6869,17.0536 L -69.927,16.7634 L -70.1289,16.4453 L -70.2893,16.1044 L -70.4057,15.7461 L -70.4763,15.376
 L -70.5,15 L -70.4763,14.624 L -70.4057,14.2539 L -70.2893,13.8956 L -70.1289,13.5547 L -69.927,13.2366
 L -69.6869,12.9464 L -69.4123,12.6884 L -69.1075,12.467 L -68.7773,12.2855 L -68.427,12.1468 L -68.0621,12.0531
 L -67.6884,12.0059 L -67.3116,12.0059 L -66.9379,12.0531 L -66.573,12.1468 L -66.2227,12.2855 L -65.8925,12.467
 L -65.5877,12.6884 L -65.3131,12.9464 L -65.073,13.2366 L -64.8711,13.5547 L -64.7107,13.8956 L -64.5943,14.2539
 L -64.5237,14.624 L -64.5,15 L -64.5237,15.376 L -64.5943,15.7461 L -64.7107,16.1044 L -64.8711,16.4453
 L -65.073,16.7634 L -65.3131,17.0536 L -65.5877,17.3115 L -65.8925,17.533 L -66.2227,17.7145 L -66.573,17.8532
 L -66.9379,17.9469 L -67.3116,17.9941 z
" stroke="black" fill="lightgray" stroke-width="0.5"/>
</svg>
