  0
SECTION
  2
BLOCKS
  0
ENDSEC
  0
SECTION
  2
ENTITIES
  0
LINE
  8
0
 10
212.937
 20
-74.4114
 11
213.545
 21
-74.2553
  0
LINE
  8
0
 10
213.545
 20
-74.2553
 11
214.129
 21
-74.0241
  0
LINE
  8
0
 10
214.129
 20
-74.0241
 11
214.679
 21
-73.7216
  0
LINE
  8
0
 10
214.679
 20
-73.7216
 11
215.187
 21
-73.3526
  0
LINE
  8
0
 10
215.187
 20
-73.3526
 11
215.645
 21
-72.9227
  0
LINE
  8
0
 10
215.645
 20
-72.9227
 11
216.045
 21
-72.4389
  0
LINE
  8
0
 10
216.045
 20
-72.4389
 11
216.382
 21
-71.9088
  0
LINE
  8
0
 10
216.382
 20
-71.9088
 11
216.649
 21
-71.3406
  0
LINE
  8
0
 10
216.649
 20
-71.3406
 11
216.843
 21
-70.7434
  0
LINE
  8
0
 10
216.843
 20
-70.7434
 11
216.961
 21
-70.1267
  0
LINE
  8
0
 10
216.961
 20
-70.1267
 11
217
 21
-69.5
  0
LINE
  8
0
 10
217
 20
-69.5
 11
217
 21
69.5
  0
LINE
  8
0
 10
217
 20
69.5
 11
216.961
 21
70.1267
  0
LINE
  8
0
 10
216.961
 20
70.1267
 11
216.843
 21
70.7434
  0
LINE
  8
0
 10
216.843
 20
70.7434
 11
216.649
 21
71.3406
  0
LINE
  8
0
 10
216.649
 20
71.3406
 11
216.382
 21
71.9088
  0
LINE
  8
0
 10
216.382
 20
71.9088
 11
216.045
 21
72.4389
  0
LINE
  8
0
 10
216.045
 20
72.4389
 11
215.645
 21
72.9227
  0
LINE
  8
0
 10
215.645
 20
72.9227
 11
215.187
 21
73.3526
  0
LINE
  8
0
 10
215.187
 20
73.3526
 11
214.679
 21
73.7216
  0
LINE
  8
0
 10
214.679
 20
73.7216
 11
214.129
 21
74.0241
  0
LINE
  8
0
 10
214.129
 20
74.0241
 11
213.545
 21
74.2553
  0
LINE
  8
0
 10
213.545
 20
74.2553
 11
212.937
 21
74.4114
  0
LINE
  8
0
 10
212.937
 20
74.4114
 11
212.314
 21
74.4901
  0
LINE
  8
0
 10
212.314
 20
74.4901
 11
-212.314
 21
74.4901
  0
LINE
  8
0
 10
-212.314
 20
74.4901
 11
-212.937
 21
74.4114
  0
LINE
  8
0
 10
-212.937
 20
74.4114
 11
-213.545
 21
74.2553
  0
LINE
  8
0
 10
-213.545
 20
74.2553
 11
-214.129
 21
74.0241
  0
LINE
  8
0
 10
-214.129
 20
74.0241
 11
-214.679
 21
73.7216
  0
LINE
  8
0
 10
-214.679
 20
73.7216
 11
-215.187
 21
73.3526
  0
LINE
  8
0
 10
-215.187
 20
73.3526
 11
-215.645
 21
72.9227
  0
LINE
  8
0
 10
-215.645
 20
72.9227
 11
-216.045
 21
72.4389
  0
LINE
  8
0
 10
-216.045
 20
72.4389
 11
-216.382
 21
71.9088
  0
LINE
  8
0
 10
-216.382
 20
71.9088
 11
-216.649
 21
71.3406
  0
LINE
  8
0
 10
-216.649
 20
71.3406
 11
-216.843
 21
70.7434
  0
LINE
  8
0
 10
-216.843
 20
70.7434
 11
-216.961
 21
70.1267
  0
LINE
  8
0
 10
-216.961
 20
70.1267
 11
-217
 21
69.5
  0
LINE
  8
0
 10
-217
 20
69.5
 11
-217
 21
-69.5
  0
LINE
  8
0
 10
-217
 20
-69.5
 11
-216.961
 21
-70.1267
  0
LINE
  8
0
 10
-216.961
 20
-70.1267
 11
-216.843
 21
-70.7434
  0
LINE
  8
0
 10
-216.843
 20
-70.7434
 11
-216.649
 21
-71.3406
  0
LINE
  8
0
 10
-216.649
 20
-71.3406
 11
-216.382
 21
-71.9088
  0
LINE
  8
0
 10
-216.382
 20
-71.9088
 11
-216.045
 21
-72.4389
  0
LINE
  8
0
 10
-216.045
 20
-72.4389
 11
-215.645
 21
-72.9227
  0
LINE
  8
0
 10
-215.645
 20
-72.9227
 11
-215.187
 21
-73.3526
  0
LINE
  8
0
 10
-215.187
 20
-73.3526
 11
-214.679
 21
-73.7216
  0
LINE
  8
0
 10
-214.679
 20
-73.7216
 11
-214.129
 21
-74.0241
  0
LINE
  8
0
 10
-214.129
 20
-74.0241
 11
-213.545
 21
-74.2553
  0
LINE
  8
0
 10
-213.545
 20
-74.2553
 11
-212.937
 21
-74.4114
  0
LINE
  8
0
 10
-212.937
 20
-74.4114
 11
-212.314
 21
-74.4901
  0
LINE
  8
0
 10
-212.314
 20
-74.4901
 11
212.314
 21
-74.4901
  0
LINE
  8
0
 10
212.314
 20
-74.4901
 11
212.937
 21
-74.4114
  0
LINE
  8
0
 10
209.812
 20
64.5059
 11
209.438
 21
64.5531
  0
LINE
  8
0
 10
209.438
 20
64.5531
 11
209.073
 21
64.6468
  0
LINE
  8
0
 10
209.073
 20
64.6468
 11
208.723
 21
64.7855
  0
LINE
  8
0
 10
208.723
 20
64.7855
 11
208.393
 21
64.967
  0
LINE
  8
0
 10
208.393
 20
64.967
 11
208.088
 21
65.1885
  0
LINE
  8
0
 10
208.088
 20
65.1885
 11
207.813
 21
65.4464
  0
LINE
  8
0
 10
207.813
 20
65.4464
 11
207.573
 21
65.7366
  0
LINE
  8
0
 10
207.573
 20
65.7366
 11
207.371
 21
66.0547
  0
LINE
  8
0
 10
207.371
 20
66.0547
 11
207.211
 21
66.3956
  0
LINE
  8
0
 10
207.211
 20
66.3956
 11
207.094
 21
66.7539
  0
LINE
  8
0
 10
207.094
 20
66.7539
 11
207.024
 21
67.124
  0
LINE
  8
0
 10
207.024
 20
67.124
 11
207
 21
67.5
  0
LINE
  8
0
 10
207
 20
67.5
 11
207.024
 21
67.876
  0
LINE
  8
0
 10
207.024
 20
67.876
 11
207.094
 21
68.2461
  0
LINE
  8
0
 10
207.094
 20
68.2461
 11
207.211
 21
68.6044
  0
LINE
  8
0
 10
207.211
 20
68.6044
 11
207.371
 21
68.9453
  0
LINE
  8
0
 10
207.371
 20
68.9453
 11
207.573
 21
69.2634
  0
LINE
  8
0
 10
207.573
 20
69.2634
 11
207.813
 21
69.5536
  0
LINE
  8
0
 10
207.813
 20
69.5536
 11
208.088
 21
69.8115
  0
LINE
  8
0
 10
208.088
 20
69.8115
 11
208.393
 21
70.033
  0
LINE
  8
0
 10
208.393
 20
70.033
 11
208.723
 21
70.2145
  0
LINE
  8
0
 10
208.723
 20
70.2145
 11
209.073
 21
70.3532
  0
LINE
  8
0
 10
209.073
 20
70.3532
 11
209.438
 21
70.4469
  0
LINE
  8
0
 10
209.438
 20
70.4469
 11
209.812
 21
70.4941
  0
LINE
  8
0
 10
209.812
 20
70.4941
 11
210.188
 21
70.4941
  0
LINE
  8
0
 10
210.188
 20
70.4941
 11
210.562
 21
70.4469
  0
LINE
  8
0
 10
210.562
 20
70.4469
 11
210.927
 21
70.3532
  0
LINE
  8
0
 10
210.927
 20
70.3532
 11
211.277
 21
70.2145
  0
LINE
  8
0
 10
211.277
 20
70.2145
 11
211.607
 21
70.033
  0
LINE
  8
0
 10
211.607
 20
70.033
 11
211.912
 21
69.8115
  0
LINE
  8
0
 10
211.912
 20
69.8115
 11
212.187
 21
69.5536
  0
LINE
  8
0
 10
212.187
 20
69.5536
 11
212.427
 21
69.2634
  0
LINE
  8
0
 10
212.427
 20
69.2634
 11
212.629
 21
68.9453
  0
LINE
  8
0
 10
212.629
 20
68.9453
 11
212.789
 21
68.6044
  0
LINE
  8
0
 10
212.789
 20
68.6044
 11
212.906
 21
68.2461
  0
LINE
  8
0
 10
212.906
 20
68.2461
 11
212.976
 21
67.876
  0
LINE
  8
0
 10
212.976
 20
67.876
 11
213
 21
67.5
  0
LINE
  8
0
 10
213
 20
67.5
 11
212.976
 21
67.124
  0
LINE
  8
0
 10
212.976
 20
67.124
 11
212.906
 21
66.7539
  0
LINE
  8
0
 10
212.906
 20
66.7539
 11
212.789
 21
66.3956
  0
LINE
  8
0
 10
212.789
 20
66.3956
 11
212.629
 21
66.0547
  0
LINE
  8
0
 10
212.629
 20
66.0547
 11
212.427
 21
65.7366
  0
LINE
  8
0
 10
212.427
 20
65.7366
 11
212.187
 21
65.4464
  0
LINE
  8
0
 10
212.187
 20
65.4464
 11
211.912
 21
65.1885
  0
LINE
  8
0
 10
211.912
 20
65.1885
 11
211.607
 21
64.967
  0
LINE
  8
0
 10
211.607
 20
64.967
 11
211.277
 21
64.7855
  0
LINE
  8
0
 10
211.277
 20
64.7855
 11
210.927
 21
64.6468
  0
LINE
  8
0
 10
210.927
 20
64.6468
 11
210.562
 21
64.5531
  0
LINE
  8
0
 10
210.562
 20
64.5531
 11
210.188
 21
64.5059
  0
LINE
  8
0
 10
210.188
 20
64.5059
 11
209.812
 21
64.5059
  0
LINE
  8
0
 10
-210.188
 20
64.5059
 11
-210.562
 21
64.5531
  0
LINE
  8
0
 10
-210.562
 20
64.5531
 11
-210.927
 21
64.6468
  0
LINE
  8
0
 10
-210.927
 20
64.6468
 11
-211.277
 21
64.7855
  0
LINE
  8
0
 10
-211.277
 20
64.7855
 11
-211.607
 21
64.967
  0
LINE
  8
0
 10
-211.607
 20
64.967
 11
-211.912
 21
65.1885
  0
LINE
  8
0
 10
-211.912
 20
65.1885
 11
-212.187
 21
65.4464
  0
LINE
  8
0
 10
-212.187
 20
65.4464
 11
-212.427
 21
65.7366
  0
LINE
  8
0
 10
-212.427
 20
65.7366
 11
-212.629
 21
66.0547
  0
LINE
  8
0
 10
-212.629
 20
66.0547
 11
-212.789
 21
66.3956
  0
LINE
  8
0
 10
-212.789
 20
66.3956
 11
-212.906
 21
66.7539
  0
LINE
  8
0
 10
-212.906
 20
66.7539
 11
-212.976
 21
67.124
  0
LINE
  8
0
 10
-212.976
 20
67.124
 11
-213
 21
67.5
  0
LINE
  8
0
 10
-213
 20
67.5
 11
-212.976
 21
67.876
  0
LINE
  8
0
 10
-212.976
 20
67.876
 11
-212.906
 21
68.2461
  0
LINE
  8
0
 10
-212.906
 20
68.2461
 11
-212.789
 21
68.6044
  0
LINE
  8
0
 10
-212.789
 20
68.6044
 11
-212.629
 21
68.9453
  0
LINE
  8
0
 10
-212.629
 20
68.9453
 11
-212.427
 21
69.2634
  0
LINE
  8
0
 10
-212.427
 20
69.2634
 11
-212.187
 21
69.5536
  0
LINE
  8
0
 10
-212.187
 20
69.5536
 11
-211.912
 21
69.8115
  0
LINE
  8
0
 10
-211.912
 20
69.8115
 11
-211.607
 21
70.033
  0
LINE
  8
0
 10
-211.607
 20
70.033
 11
-211.277
 21
70.2145
  0
LINE
  8
0
 10
-211.277
 20
70.2145
 11
-210.927
 21
70.3532
  0
LINE
  8
0
 10
-210.927
 20
70.3532
 11
-210.562
 21
70.4469
  0
LINE
  8
0
 10
-210.562
 20
70.4469
 11
-210.188
 21
70.4941
  0
LINE
  8
0
 10
-210.188
 20
70.4941
 11
-209.812
 21
70.4941
  0
LINE
  8
0
 10
-209.812
 20
70.4941
 11
-209.438
 21
70.4469
  0
LINE
  8
0
 10
-209.438
 20
70.4469
 11
-209.073
 21
70.3532
  0
LINE
  8
0
 10
-209.073
 20
70.3532
 11
-208.723
 21
70.2145
  0
LINE
  8
0
 10
-208.723
 20
70.2145
 11
-208.393
 21
70.033
  0
LINE
  8
0
 10
-208.393
 20
70.033
 11
-208.088
 21
69.8115
  0
LINE
  8
0
 10
-208.088
 20
69.8115
 11
-207.813
 21
69.5536
  0
LINE
  8
0
 10
-207.813
 20
69.5536
 11
-207.573
 21
69.2634
  0
LINE
  8
0
 10
-207.573
 20
69.2634
 11
-207.371
 21
68.9453
  0
LINE
  8
0
 10
-207.371
 20
68.9453
 11
-207.211
 21
68.6044
  0
LINE
  8
0
 10
-207.211
 20
68.6044
 11
-207.094
 21
68.2461
  0
LINE
  8
0
 10
-207.094
 20
68.2461
 11
-207.024
 21
67.876
  0
LINE
  8
0
 10
-207.024
 20
67.876
 11
-207
 21
67.5
  0
LINE
  8
0
 10
-207
 20
67.5
 11
-207.024
 21
67.124
  0
LINE
  8
0
 10
-207.024
 20
67.124
 11
-207.094
 21
66.7539
  0
LINE
  8
0
 10
-207.094
 20
66.7539
 11
-207.211
 21
66.3956
  0
LINE
  8
0
 10
-207.211
 20
66.3956
 11
-207.371
 21
66.0547
  0
LINE
  8
0
 10
-207.371
 20
66.0547
 11
-207.573
 21
65.7366
  0
LINE
  8
0
 10
-207.573
 20
65.7366
 11
-207.813
 21
65.4464
  0
LINE
  8
0
 10
-207.813
 20
65.4464
 11
-208.088
 21
65.1885
  0
LINE
  8
0
 10
-208.088
 20
65.1885
 11
-208.393
 21
64.967
  0
LINE
  8
0
 10
-208.393
 20
64.967
 11
-208.723
 21
64.7855
  0
LINE
  8
0
 10
-208.723
 20
64.7855
 11
-209.073
 21
64.6468
  0
LINE
  8
0
 10
-209.073
 20
64.6468
 11
-209.438
 21
64.5531
  0
LINE
  8
0
 10
-209.438
 20
64.5531
 11
-209.812
 21
64.5059
  0
LINE
  8
0
 10
-209.812
 20
64.5059
 11
-210.188
 21
64.5059
  0
LINE
  8
0
 10
-139.081
 20
-64.8717
 11
-147.18
 21
-63.8487
  0
LINE
  8
0
 10
-147.18
 20
-63.8487
 11
-155.086
 21
-61.8187
  0
LINE
  8
0
 10
-155.086
 20
-61.8187
 11
-162.676
 21
-58.8138
  0
LINE
  8
0
 10
-162.676
 20
-58.8138
 11
-169.829
 21
-54.8813
  0
LINE
  8
0
 10
-169.829
 20
-54.8813
 11
-176.433
 21
-50.0834
  0
LINE
  8
0
 10
-176.433
 20
-50.0834
 11
-182.383
 21
-44.4956
  0
LINE
  8
0
 10
-182.383
 20
-44.4956
 11
-187.586
 21
-38.206
  0
LINE
  8
0
 10
-187.586
 20
-38.206
 11
-191.96
 21
-31.314
  0
LINE
  8
0
 10
-191.96
 20
-31.314
 11
-195.435
 21
-23.9281
  0
LINE
  8
0
 10
-195.435
 20
-23.9281
 11
-197.958
 21
-16.1648
  0
LINE
  8
0
 10
-197.958
 20
-16.1648
 11
-199.487
 21
-8.14665
  0
LINE
  8
0
 10
-199.487
 20
-8.14665
 11
-200
 21
0
  0
LINE
  8
0
 10
-200
 20
0
 11
-199.487
 21
8.14665
  0
LINE
  8
0
 10
-199.487
 20
8.14665
 11
-197.958
 21
16.1648
  0
LINE
  8
0
 10
-197.958
 20
16.1648
 11
-195.435
 21
23.9281
  0
LINE
  8
0
 10
-195.435
 20
23.9281
 11
-191.96
 21
31.314
  0
LINE
  8
0
 10
-191.96
 20
31.314
 11
-187.586
 21
38.206
  0
LINE
  8
0
 10
-187.586
 20
38.206
 11
-182.383
 21
44.4956
  0
LINE
  8
0
 10
-182.383
 20
44.4956
 11
-176.433
 21
50.0834
  0
LINE
  8
0
 10
-176.433
 20
50.0834
 11
-169.829
 21
54.8813
  0
LINE
  8
0
 10
-169.829
 20
54.8813
 11
-162.676
 21
58.8138
  0
LINE
  8
0
 10
-162.676
 20
58.8138
 11
-155.086
 21
61.8187
  0
LINE
  8
0
 10
-155.086
 20
61.8187
 11
-147.18
 21
63.8487
  0
LINE
  8
0
 10
-147.18
 20
63.8487
 11
-139.081
 21
64.8717
  0
LINE
  8
0
 10
-139.081
 20
64.8717
 11
-130.919
 21
64.8717
  0
LINE
  8
0
 10
-130.919
 20
64.8717
 11
-122.82
 21
63.8487
  0
LINE
  8
0
 10
-122.82
 20
63.8487
 11
-114.914
 21
61.8187
  0
LINE
  8
0
 10
-114.914
 20
61.8187
 11
-107.324
 21
58.8138
  0
LINE
  8
0
 10
-107.324
 20
58.8138
 11
-100.171
 21
54.8813
  0
LINE
  8
0
 10
-100.171
 20
54.8813
 11
-93.5674
 21
50.0834
  0
LINE
  8
0
 10
-93.5674
 20
50.0834
 11
-87.617
 21
44.4956
  0
LINE
  8
0
 10
-87.617
 20
44.4956
 11
-82.4139
 21
38.206
  0
LINE
  8
0
 10
-82.4139
 20
38.206
 11
-78.0401
 21
31.314
  0
LINE
  8
0
 10
-78.0401
 20
31.314
 11
-74.5645
 21
23.9281
  0
LINE
  8
0
 10
-74.5645
 20
23.9281
 11
-72.0421
 21
16.1648
  0
LINE
  8
0
 10
-72.0421
 20
16.1648
 11
-70.5125
 21
8.14665
  0
LINE
  8
0
 10
-70.5125
 20
8.14665
 11
-70
 21
0
  0
LINE
  8
0
 10
-70
 20
0
 11
-70.5125
 21
-8.14665
  0
LINE
  8
0
 10
-70.5125
 20
-8.14665
 11
-72.0421
 21
-16.1648
  0
LINE
  8
0
 10
-72.0421
 20
-16.1648
 11
-74.5645
 21
-23.9281
  0
LINE
  8
0
 10
-74.5645
 20
-23.9281
 11
-78.0401
 21
-31.314
  0
LINE
  8
0
 10
-78.0401
 20
-31.314
 11
-82.4139
 21
-38.206
  0
LINE
  8
0
 10
-82.4139
 20
-38.206
 11
-87.617
 21
-44.4956
  0
LINE
  8
0
 10
-87.617
 20
-44.4956
 11
-93.5674
 21
-50.0834
  0
LINE
  8
0
 10
-93.5674
 20
-50.0834
 11
-100.171
 21
-54.8813
  0
LINE
  8
0
 10
-100.171
 20
-54.8813
 11
-107.324
 21
-58.8138
  0
LINE
  8
0
 10
-107.324
 20
-58.8138
 11
-114.914
 21
-61.8187
  0
LINE
  8
0
 10
-114.914
 20
-61.8187
 11
-122.82
 21
-63.8487
  0
LINE
  8
0
 10
-122.82
 20
-63.8487
 11
-130.919
 21
-64.8717
  0
LINE
  8
0
 10
-130.919
 20
-64.8717
 11
-139.081
 21
-64.8717
  0
LINE
  8
0
 10
-4.08138
 20
-64.8717
 11
-12.1798
 21
-63.8487
  0
LINE
  8
0
 10
-12.1798
 20
-63.8487
 11
-20.0861
 21
-61.8187
  0
LINE
  8
0
 10
-20.0861
 20
-61.8187
 11
-27.6756
 21
-58.8138
  0
LINE
  8
0
 10
-27.6756
 20
-58.8138
 11
-34.8287
 21
-54.8813
  0
LINE
  8
0
 10
-34.8287
 20
-54.8813
 11
-41.4326
 21
-50.0834
  0
LINE
  8
0
 10
-41.4326
 20
-50.0834
 11
-47.3829
 21
-44.4956
  0
LINE
  8
0
 10
-47.3829
 20
-44.4956
 11
-52.5861
 21
-38.206
  0
LINE
  8
0
 10
-52.5861
 20
-38.206
 11
-56.9599
 21
-31.314
  0
LINE
  8
0
 10
-56.9599
 20
-31.314
 11
-60.4355
 21
-23.9281
  0
LINE
  8
0
 10
-60.4355
 20
-23.9281
 11
-62.9579
 21
-16.1648
  0
LINE
  8
0
 10
-62.9579
 20
-16.1648
 11
-64.4875
 21
-8.14665
  0
LINE
  8
0
 10
-64.4875
 20
-8.14665
 11
-65
 21
0
  0
LINE
  8
0
 10
-65
 20
0
 11
-64.4875
 21
8.14665
  0
LINE
  8
0
 10
-64.4875
 20
8.14665
 11
-62.9579
 21
16.1648
  0
LINE
  8
0
 10
-62.9579
 20
16.1648
 11
-60.4355
 21
23.9281
  0
LINE
  8
0
 10
-60.4355
 20
23.9281
 11
-56.9599
 21
31.314
  0
LINE
  8
0
 10
-56.9599
 20
31.314
 11
-52.5861
 21
38.206
  0
LINE
  8
0
 10
-52.5861
 20
38.206
 11
-47.3829
 21
44.4956
  0
LINE
  8
0
 10
-47.3829
 20
44.4956
 11
-41.4326
 21
50.0834
  0
LINE
  8
0
 10
-41.4326
 20
50.0834
 11
-34.8287
 21
54.8813
  0
LINE
  8
0
 10
-34.8287
 20
54.8813
 11
-27.6756
 21
58.8138
  0
LINE
  8
0
 10
-27.6756
 20
58.8138
 11
-20.0861
 21
61.8187
  0
LINE
  8
0
 10
-20.0861
 20
61.8187
 11
-12.1798
 21
63.8487
  0
LINE
  8
0
 10
-12.1798
 20
63.8487
 11
-4.08138
 21
64.8717
  0
LINE
  8
0
 10
-4.08138
 20
64.8717
 11
4.08138
 21
64.8717
  0
LINE
  8
0
 10
4.08138
 20
64.8717
 11
12.1798
 21
63.8487
  0
LINE
  8
0
 10
12.1798
 20
63.8487
 11
20.0861
 21
61.8187
  0
LINE
  8
0
 10
20.0861
 20
61.8187
 11
27.6756
 21
58.8138
  0
LINE
  8
0
 10
27.6756
 20
58.8138
 11
34.8287
 21
54.8813
  0
LINE
  8
0
 10
34.8287
 20
54.8813
 11
41.4326
 21
50.0834
  0
LINE
  8
0
 10
41.4326
 20
50.0834
 11
47.3829
 21
44.4956
  0
LINE
  8
0
 10
47.3829
 20
44.4956
 11
52.5861
 21
38.206
  0
LINE
  8
0
 10
52.5861
 20
38.206
 11
56.9599
 21
31.314
  0
LINE
  8
0
 10
56.9599
 20
31.314
 11
60.4355
 21
23.9281
  0
LINE
  8
0
 10
60.4355
 20
23.9281
 11
62.9579
 21
16.1648
  0
LINE
  8
0
 10
62.9579
 20
16.1648
 11
64.4875
 21
8.14665
  0
LINE
  8
0
 10
64.4875
 20
8.14665
 11
65
 21
0
  0
LINE
  8
0
 10
65
 20
0
 11
64.4875
 21
-8.14665
  0
LINE
  8
0
 10
64.4875
 20
-8.14665
 11
62.9579
 21
-16.1648
  0
LINE
  8
0
 10
62.9579
 20
-16.1648
 11
60.4355
 21
-23.9281
  0
LINE
  8
0
 10
60.4355
 20
-23.9281
 11
56.9599
 21
-31.314
  0
LINE
  8
0
 10
56.9599
 20
-31.314
 11
52.5861
 21
-38.206
  0
LINE
  8
0
 10
52.5861
 20
-38.206
 11
47.3829
 21
-44.4956
  0
LINE
  8
0
 10
47.3829
 20
-44.4956
 11
41.4326
 21
-50.0834
  0
LINE
  8
0
 10
41.4326
 20
-50.0834
 11
34.8287
 21
-54.8813
  0
LINE
  8
0
 10
34.8287
 20
-54.8813
 11
27.6756
 21
-58.8138
  0
LINE
  8
0
 10
27.6756
 20
-58.8138
 11
20.0861
 21
-61.8187
  0
LINE
  8
0
 10
20.0861
 20
-61.8187
 11
12.1798
 21
-63.8487
  0
LINE
  8
0
 10
12.1798
 20
-63.8487
 11
4.08138
 21
-64.8717
  0
LINE
  8
0
 10
4.08138
 20
-64.8717
 11
-4.08138
 21
-64.8717
  0
LINE
  8
0
 10
130.919
 20
-64.8717
 11
122.82
 21
-63.8487
  0
LINE
  8
0
 10
122.82
 20
-63.8487
 11
114.914
 21
-61.8187
  0
LINE
  8
0
 10
114.914
 20
-61.8187
 11
107.324
 21
-58.8138
  0
LINE
  8
0
 10
107.324
 20
-58.8138
 11
100.171
 21
-54.8813
  0
LINE
  8
0
 10
100.171
 20
-54.8813
 11
93.5674
 21
-50.0834
  0
LINE
  8
0
 10
93.5674
 20
-50.0834
 11
87.617
 21
-44.4956
  0
LINE
  8
0
 10
87.617
 20
-44.4956
 11
82.4139
 21
-38.206
  0
LINE
  8
0
 10
82.4139
 20
-38.206
 11
78.0401
 21
-31.314
  0
LINE
  8
0
 10
78.0401
 20
-31.314
 11
74.5645
 21
-23.9281
  0
LINE
  8
0
 10
74.5645
 20
-23.9281
 11
72.0421
 21
-16.1648
  0
LINE
  8
0
 10
72.0421
 20
-16.1648
 11
70.5125
 21
-8.14665
  0
LINE
  8
0
 10
70.5125
 20
-8.14665
 11
70
 21
0
  0
LINE
  8
0
 10
70
 20
0
 11
70.5125
 21
8.14665
  0
LINE
  8
0
 10
70.5125
 20
8.14665
 11
72.0421
 21
16.1648
  0
LINE
  8
0
 10
72.0421
 20
16.1648
 11
74.5645
 21
23.9281
  0
LINE
  8
0
 10
74.5645
 20
23.9281
 11
78.0401
 21
31.314
  0
LINE
  8
0
 10
78.0401
 20
31.314
 11
82.4139
 21
38.206
  0
LINE
  8
0
 10
82.4139
 20
38.206
 11
87.617
 21
44.4956
  0
LINE
  8
0
 10
87.617
 20
44.4956
 11
93.5674
 21
50.0834
  0
LINE
  8
0
 10
93.5674
 20
50.0834
 11
100.171
 21
54.8813
  0
LINE
  8
0
 10
100.171
 20
54.8813
 11
107.324
 21
58.8138
  0
LINE
  8
0
 10
107.324
 20
58.8138
 11
114.914
 21
61.8187
  0
LINE
  8
0
 10
114.914
 20
61.8187
 11
122.82
 21
63.8487
  0
LINE
  8
0
 10
122.82
 20
63.8487
 11
130.919
 21
64.8717
  0
LINE
  8
0
 10
130.919
 20
64.8717
 11
139.081
 21
64.8717
  0
LINE
  8
0
 10
139.081
 20
64.8717
 11
147.18
 21
63.8487
  0
LINE
  8
0
 10
147.18
 20
63.8487
 11
155.086
 21
61.8187
  0
LINE
  8
0
 10
155.086
 20
61.8187
 11
162.676
 21
58.8138
  0
LINE
  8
0
 10
162.676
 20
58.8138
 11
169.829
 21
54.8813
  0
LINE
  8
0
 10
169.829
 20
54.8813
 11
176.433
 21
50.0834
  0
LINE
  8
0
 10
176.433
 20
50.0834
 11
182.383
 21
44.4956
  0
LINE
  8
0
 10
182.383
 20
44.4956
 11
187.586
 21
38.206
  0
LINE
  8
0
 10
187.586
 20
38.206
 11
191.96
 21
31.314
  0
LINE
  8
0
 10
191.96
 20
31.314
 11
195.435
 21
23.9281
  0
LINE
  8
0
 10
195.435
 20
23.9281
 11
197.958
 21
16.1648
  0
LINE
  8
0
 10
197.958
 20
16.1648
 11
199.487
 21
8.14665
  0
LINE
  8
0
 10
199.487
 20
8.14665
 11
200
 21
0
  0
LINE
  8
0
 10
200
 20
0
 11
199.487
 21
-8.14665
  0
LINE
  8
0
 10
199.487
 20
-8.14665
 11
197.958
 21
-16.1648
  0
LINE
  8
0
 10
197.958
 20
-16.1648
 11
195.435
 21
-23.9281
  0
LINE
  8
0
 10
195.435
 20
-23.9281
 11
191.96
 21
-31.314
  0
LINE
  8
0
 10
191.96
 20
-31.314
 11
187.586
 21
-38.206
  0
LINE
  8
0
 10
187.586
 20
-38.206
 11
182.383
 21
-44.4956
  0
LINE
  8
0
 10
182.383
 20
-44.4956
 11
176.433
 21
-50.0834
  0
LINE
  8
0
 10
176.433
 20
-50.0834
 11
169.829
 21
-54.8813
  0
LINE
  8
0
 10
169.829
 20
-54.8813
 11
162.676
 21
-58.8138
  0
LINE
  8
0
 10
162.676
 20
-58.8138
 11
155.086
 21
-61.8187
  0
LINE
  8
0
 10
155.086
 20
-61.8187
 11
147.18
 21
-63.8487
  0
LINE
  8
0
 10
147.18
 20
-63.8487
 11
139.081
 21
-64.8717
  0
LINE
  8
0
 10
139.081
 20
-64.8717
 11
130.919
 21
-64.8717
  0
LINE
  8
0
 10
-210.094
 20
58.503
 11
-210.281
 21
58.5266
  0
LINE
  8
0
 10
-210.281
 20
58.5266
 11
-210.464
 21
58.5734
  0
LINE
  8
0
 10
-210.464
 20
58.5734
 11
-210.639
 21
58.6428
  0
LINE
  8
0
 10
-210.639
 20
58.6428
 11
-210.804
 21
58.7335
  0
LINE
  8
0
 10
-210.804
 20
58.7335
 11
-210.956
 21
58.8442
  0
LINE
  8
0
 10
-210.956
 20
58.8442
 11
-211.093
 21
58.9732
  0
LINE
  8
0
 10
-211.093
 20
58.9732
 11
-211.214
 21
59.1183
  0
LINE
  8
0
 10
-211.214
 20
59.1183
 11
-211.314
 21
59.2774
  0
LINE
  8
0
 10
-211.314
 20
59.2774
 11
-211.395
 21
59.4478
  0
LINE
  8
0
 10
-211.395
 20
59.4478
 11
-211.453
 21
59.627
  0
LINE
  8
0
 10
-211.453
 20
59.627
 11
-211.488
 21
59.812
  0
LINE
  8
0
 10
-211.488
 20
59.812
 11
-211.5
 21
60
  0
LINE
  8
0
 10
-211.5
 20
60
 11
-211.488
 21
60.188
  0
LINE
  8
0
 10
-211.488
 20
60.188
 11
-211.453
 21
60.373
  0
LINE
  8
0
 10
-211.453
 20
60.373
 11
-211.395
 21
60.5522
  0
LINE
  8
0
 10
-211.395
 20
60.5522
 11
-211.314
 21
60.7226
  0
LINE
  8
0
 10
-211.314
 20
60.7226
 11
-211.214
 21
60.8817
  0
LINE
  8
0
 10
-211.214
 20
60.8817
 11
-211.093
 21
61.0268
  0
LINE
  8
0
 10
-211.093
 20
61.0268
 11
-210.956
 21
61.1558
  0
LINE
  8
0
 10
-210.956
 20
61.1558
 11
-210.804
 21
61.2665
  0
LINE
  8
0
 10
-210.804
 20
61.2665
 11
-210.639
 21
61.3572
  0
LINE
  8
0
 10
-210.639
 20
61.3572
 11
-210.464
 21
61.4266
  0
LINE
  8
0
 10
-210.464
 20
61.4266
 11
-210.281
 21
61.4734
  0
LINE
  8
0
 10
-210.281
 20
61.4734
 11
-210.094
 21
61.497
  0
LINE
  8
0
 10
-210.094
 20
61.497
 11
-209.906
 21
61.497
  0
LINE
  8
0
 10
-209.906
 20
61.497
 11
-209.719
 21
61.4734
  0
LINE
  8
0
 10
-209.719
 20
61.4734
 11
-209.536
 21
61.4266
  0
LINE
  8
0
 10
-209.536
 20
61.4266
 11
-209.361
 21
61.3572
  0
LINE
  8
0
 10
-209.361
 20
61.3572
 11
-209.196
 21
61.2665
  0
LINE
  8
0
 10
-209.196
 20
61.2665
 11
-209.044
 21
61.1558
  0
LINE
  8
0
 10
-209.044
 20
61.1558
 11
-208.907
 21
61.0268
  0
LINE
  8
0
 10
-208.907
 20
61.0268
 11
-208.786
 21
60.8817
  0
LINE
  8
0
 10
-208.786
 20
60.8817
 11
-208.686
 21
60.7226
  0
LINE
  8
0
 10
-208.686
 20
60.7226
 11
-208.605
 21
60.5522
  0
LINE
  8
0
 10
-208.605
 20
60.5522
 11
-208.547
 21
60.373
  0
LINE
  8
0
 10
-208.547
 20
60.373
 11
-208.512
 21
60.188
  0
LINE
  8
0
 10
-208.512
 20
60.188
 11
-208.5
 21
60
  0
LINE
  8
0
 10
-208.5
 20
60
 11
-208.512
 21
59.812
  0
LINE
  8
0
 10
-208.512
 20
59.812
 11
-208.547
 21
59.627
  0
LINE
  8
0
 10
-208.547
 20
59.627
 11
-208.605
 21
59.4478
  0
LINE
  8
0
 10
-208.605
 20
59.4478
 11
-208.686
 21
59.2774
  0
LINE
  8
0
 10
-208.686
 20
59.2774
 11
-208.786
 21
59.1183
  0
LINE
  8
0
 10
-208.786
 20
59.1183
 11
-208.907
 21
58.9732
  0
LINE
  8
0
 10
-208.907
 20
58.9732
 11
-209.044
 21
58.8442
  0
LINE
  8
0
 10
-209.044
 20
58.8442
 11
-209.196
 21
58.7335
  0
LINE
  8
0
 10
-209.196
 20
58.7335
 11
-209.361
 21
58.6428
  0
LINE
  8
0
 10
-209.361
 20
58.6428
 11
-209.536
 21
58.5734
  0
LINE
  8
0
 10
-209.536
 20
58.5734
 11
-209.719
 21
58.5266
  0
LINE
  8
0
 10
-209.719
 20
58.5266
 11
-209.906
 21
58.503
  0
LINE
  8
0
 10
-209.906
 20
58.503
 11
-210.094
 21
58.503
  0
LINE
  8
0
 10
209.906
 20
58.503
 11
209.719
 21
58.5266
  0
LINE
  8
0
 10
209.719
 20
58.5266
 11
209.536
 21
58.5734
  0
LINE
  8
0
 10
209.536
 20
58.5734
 11
209.361
 21
58.6428
  0
LINE
  8
0
 10
209.361
 20
58.6428
 11
209.196
 21
58.7335
  0
LINE
  8
0
 10
209.196
 20
58.7335
 11
209.044
 21
58.8442
  0
LINE
  8
0
 10
209.044
 20
58.8442
 11
208.907
 21
58.9732
  0
LINE
  8
0
 10
208.907
 20
58.9732
 11
208.786
 21
59.1183
  0
LINE
  8
0
 10
208.786
 20
59.1183
 11
208.686
 21
59.2774
  0
LINE
  8
0
 10
208.686
 20
59.2774
 11
208.605
 21
59.4478
  0
LINE
  8
0
 10
208.605
 20
59.4478
 11
208.547
 21
59.627
  0
LINE
  8
0
 10
208.547
 20
59.627
 11
208.512
 21
59.812
  0
LINE
  8
0
 10
208.512
 20
59.812
 11
208.5
 21
60
  0
LINE
  8
0
 10
208.5
 20
60
 11
208.512
 21
60.188
  0
LINE
  8
0
 10
208.512
 20
60.188
 11
208.547
 21
60.373
  0
LINE
  8
0
 10
208.547
 20
60.373
 11
208.605
 21
60.5522
  0
LINE
  8
0
 10
208.605
 20
60.5522
 11
208.686
 21
60.7226
  0
LINE
  8
0
 10
208.686
 20
60.7226
 11
208.786
 21
60.8817
  0
LINE
  8
0
 10
208.786
 20
60.8817
 11
208.907
 21
61.0268
  0
LINE
  8
0
 10
208.907
 20
61.0268
 11
209.044
 21
61.1558
  0
LINE
  8
0
 10
209.044
 20
61.1558
 11
209.196
 21
61.2665
  0
LINE
  8
0
 10
209.196
 20
61.2665
 11
209.361
 21
61.3572
  0
LINE
  8
0
 10
209.361
 20
61.3572
 11
209.536
 21
61.4266
  0
LINE
  8
0
 10
209.536
 20
61.4266
 11
209.719
 21
61.4734
  0
LINE
  8
0
 10
209.719
 20
61.4734
 11
209.906
 21
61.497
  0
LINE
  8
0
 10
209.906
 20
61.497
 11
210.094
 21
61.497
  0
LINE
  8
0
 10
210.094
 20
61.497
 11
210.281
 21
61.4734
  0
LINE
  8
0
 10
210.281
 20
61.4734
 11
210.464
 21
61.4266
  0
LINE
  8
0
 10
210.464
 20
61.4266
 11
210.639
 21
61.3572
  0
LINE
  8
0
 10
210.639
 20
61.3572
 11
210.804
 21
61.2665
  0
LINE
  8
0
 10
210.804
 20
61.2665
 11
210.956
 21
61.1558
  0
LINE
  8
0
 10
210.956
 20
61.1558
 11
211.093
 21
61.0268
  0
LINE
  8
0
 10
211.093
 20
61.0268
 11
211.214
 21
60.8817
  0
LINE
  8
0
 10
211.214
 20
60.8817
 11
211.314
 21
60.7226
  0
LINE
  8
0
 10
211.314
 20
60.7226
 11
211.395
 21
60.5522
  0
LINE
  8
0
 10
211.395
 20
60.5522
 11
211.453
 21
60.373
  0
LINE
  8
0
 10
211.453
 20
60.373
 11
211.488
 21
60.188
  0
LINE
  8
0
 10
211.488
 20
60.188
 11
211.5
 21
60
  0
LINE
  8
0
 10
211.5
 20
60
 11
211.488
 21
59.812
  0
LINE
  8
0
 10
211.488
 20
59.812
 11
211.453
 21
59.627
  0
LINE
  8
0
 10
211.453
 20
59.627
 11
211.395
 21
59.4478
  0
LINE
  8
0
 10
211.395
 20
59.4478
 11
211.314
 21
59.2774
  0
LINE
  8
0
 10
211.314
 20
59.2774
 11
211.214
 21
59.1183
  0
LINE
  8
0
 10
211.214
 20
59.1183
 11
211.093
 21
58.9732
  0
LINE
  8
0
 10
211.093
 20
58.9732
 11
210.956
 21
58.8442
  0
LINE
  8
0
 10
210.956
 20
58.8442
 11
210.804
 21
58.7335
  0
LINE
  8
0
 10
210.804
 20
58.7335
 11
210.639
 21
58.6428
  0
LINE
  8
0
 10
210.639
 20
58.6428
 11
210.464
 21
58.5734
  0
LINE
  8
0
 10
210.464
 20
58.5734
 11
210.281
 21
58.5266
  0
LINE
  8
0
 10
210.281
 20
58.5266
 11
210.094
 21
58.503
  0
LINE
  8
0
 10
210.094
 20
58.503
 11
209.906
 21
58.503
  0
LINE
  8
0
 10
-210.188
 20
49.5059
 11
-210.562
 21
49.5531
  0
LINE
  8
0
 10
-210.562
 20
49.5531
 11
-210.927
 21
49.6468
  0
LINE
  8
0
 10
-210.927
 20
49.6468
 11
-211.277
 21
49.7855
  0
LINE
  8
0
 10
-211.277
 20
49.7855
 11
-211.607
 21
49.967
  0
LINE
  8
0
 10
-211.607
 20
49.967
 11
-211.912
 21
50.1885
  0
LINE
  8
0
 10
-211.912
 20
50.1885
 11
-212.187
 21
50.4464
  0
LINE
  8
0
 10
-212.187
 20
50.4464
 11
-212.427
 21
50.7366
  0
LINE
  8
0
 10
-212.427
 20
50.7366
 11
-212.629
 21
51.0547
  0
LINE
  8
0
 10
-212.629
 20
51.0547
 11
-212.789
 21
51.3956
  0
LINE
  8
0
 10
-212.789
 20
51.3956
 11
-212.906
 21
51.7539
  0
LINE
  8
0
 10
-212.906
 20
51.7539
 11
-212.976
 21
52.124
  0
LINE
  8
0
 10
-212.976
 20
52.124
 11
-213
 21
52.5
  0
LINE
  8
0
 10
-213
 20
52.5
 11
-212.976
 21
52.876
  0
LINE
  8
0
 10
-212.976
 20
52.876
 11
-212.906
 21
53.2461
  0
LINE
  8
0
 10
-212.906
 20
53.2461
 11
-212.789
 21
53.6044
  0
LINE
  8
0
 10
-212.789
 20
53.6044
 11
-212.629
 21
53.9453
  0
LINE
  8
0
 10
-212.629
 20
53.9453
 11
-212.427
 21
54.2634
  0
LINE
  8
0
 10
-212.427
 20
54.2634
 11
-212.187
 21
54.5536
  0
LINE
  8
0
 10
-212.187
 20
54.5536
 11
-211.912
 21
54.8115
  0
LINE
  8
0
 10
-211.912
 20
54.8115
 11
-211.607
 21
55.033
  0
LINE
  8
0
 10
-211.607
 20
55.033
 11
-211.277
 21
55.2145
  0
LINE
  8
0
 10
-211.277
 20
55.2145
 11
-210.927
 21
55.3532
  0
LINE
  8
0
 10
-210.927
 20
55.3532
 11
-210.562
 21
55.4469
  0
LINE
  8
0
 10
-210.562
 20
55.4469
 11
-210.188
 21
55.4941
  0
LINE
  8
0
 10
-210.188
 20
55.4941
 11
-209.812
 21
55.4941
  0
LINE
  8
0
 10
-209.812
 20
55.4941
 11
-209.438
 21
55.4469
  0
LINE
  8
0
 10
-209.438
 20
55.4469
 11
-209.073
 21
55.3532
  0
LINE
  8
0
 10
-209.073
 20
55.3532
 11
-208.723
 21
55.2145
  0
LINE
  8
0
 10
-208.723
 20
55.2145
 11
-208.393
 21
55.033
  0
LINE
  8
0
 10
-208.393
 20
55.033
 11
-208.088
 21
54.8115
  0
LINE
  8
0
 10
-208.088
 20
54.8115
 11
-207.813
 21
54.5536
  0
LINE
  8
0
 10
-207.813
 20
54.5536
 11
-207.573
 21
54.2634
  0
LINE
  8
0
 10
-207.573
 20
54.2634
 11
-207.371
 21
53.9453
  0
LINE
  8
0
 10
-207.371
 20
53.9453
 11
-207.211
 21
53.6044
  0
LINE
  8
0
 10
-207.211
 20
53.6044
 11
-207.094
 21
53.2461
  0
LINE
  8
0
 10
-207.094
 20
53.2461
 11
-207.024
 21
52.876
  0
LINE
  8
0
 10
-207.024
 20
52.876
 11
-207
 21
52.5
  0
LINE
  8
0
 10
-207
 20
52.5
 11
-207.024
 21
52.124
  0
LINE
  8
0
 10
-207.024
 20
52.124
 11
-207.094
 21
51.7539
  0
LINE
  8
0
 10
-207.094
 20
51.7539
 11
-207.211
 21
51.3956
  0
LINE
  8
0
 10
-207.211
 20
51.3956
 11
-207.371
 21
51.0547
  0
LINE
  8
0
 10
-207.371
 20
51.0547
 11
-207.573
 21
50.7366
  0
LINE
  8
0
 10
-207.573
 20
50.7366
 11
-207.813
 21
50.4464
  0
LINE
  8
0
 10
-207.813
 20
50.4464
 11
-208.088
 21
50.1885
  0
LINE
  8
0
 10
-208.088
 20
50.1885
 11
-208.393
 21
49.967
  0
LINE
  8
0
 10
-208.393
 20
49.967
 11
-208.723
 21
49.7855
  0
LINE
  8
0
 10
-208.723
 20
49.7855
 11
-209.073
 21
49.6468
  0
LINE
  8
0
 10
-209.073
 20
49.6468
 11
-209.438
 21
49.5531
  0
LINE
  8
0
 10
-209.438
 20
49.5531
 11
-209.812
 21
49.5059
  0
LINE
  8
0
 10
-209.812
 20
49.5059
 11
-210.188
 21
49.5059
  0
LINE
  8
0
 10
209.812
 20
49.5059
 11
209.438
 21
49.5531
  0
LINE
  8
0
 10
209.438
 20
49.5531
 11
209.073
 21
49.6468
  0
LINE
  8
0
 10
209.073
 20
49.6468
 11
208.723
 21
49.7855
  0
LINE
  8
0
 10
208.723
 20
49.7855
 11
208.393
 21
49.967
  0
LINE
  8
0
 10
208.393
 20
49.967
 11
208.088
 21
50.1885
  0
LINE
  8
0
 10
208.088
 20
50.1885
 11
207.813
 21
50.4464
  0
LINE
  8
0
 10
207.813
 20
50.4464
 11
207.573
 21
50.7366
  0
LINE
  8
0
 10
207.573
 20
50.7366
 11
207.371
 21
51.0547
  0
LINE
  8
0
 10
207.371
 20
51.0547
 11
207.211
 21
51.3956
  0
LINE
  8
0
 10
207.211
 20
51.3956
 11
207.094
 21
51.7539
  0
LINE
  8
0
 10
207.094
 20
51.7539
 11
207.024
 21
52.124
  0
LINE
  8
0
 10
207.024
 20
52.124
 11
207
 21
52.5
  0
LINE
  8
0
 10
207
 20
52.5
 11
207.024
 21
52.876
  0
LINE
  8
0
 10
207.024
 20
52.876
 11
207.094
 21
53.2461
  0
LINE
  8
0
 10
207.094
 20
53.2461
 11
207.211
 21
53.6044
  0
LINE
  8
0
 10
207.211
 20
53.6044
 11
207.371
 21
53.9453
  0
LINE
  8
0
 10
207.371
 20
53.9453
 11
207.573
 21
54.2634
  0
LINE
  8
0
 10
207.573
 20
54.2634
 11
207.813
 21
54.5536
  0
LINE
  8
0
 10
207.813
 20
54.5536
 11
208.088
 21
54.8115
  0
LINE
  8
0
 10
208.088
 20
54.8115
 11
208.393
 21
55.033
  0
LINE
  8
0
 10
208.393
 20
55.033
 11
208.723
 21
55.2145
  0
LINE
  8
0
 10
208.723
 20
55.2145
 11
209.073
 21
55.3532
  0
LINE
  8
0
 10
209.073
 20
55.3532
 11
209.438
 21
55.4469
  0
LINE
  8
0
 10
209.438
 20
55.4469
 11
209.812
 21
55.4941
  0
LINE
  8
0
 10
209.812
 20
55.4941
 11
210.188
 21
55.4941
  0
LINE
  8
0
 10
210.188
 20
55.4941
 11
210.562
 21
55.4469
  0
LINE
  8
0
 10
210.562
 20
55.4469
 11
210.927
 21
55.3532
  0
LINE
  8
0
 10
210.927
 20
55.3532
 11
211.277
 21
55.2145
  0
LINE
  8
0
 10
211.277
 20
55.2145
 11
211.607
 21
55.033
  0
LINE
  8
0
 10
211.607
 20
55.033
 11
211.912
 21
54.8115
  0
LINE
  8
0
 10
211.912
 20
54.8115
 11
212.187
 21
54.5536
  0
LINE
  8
0
 10
212.187
 20
54.5536
 11
212.427
 21
54.2634
  0
LINE
  8
0
 10
212.427
 20
54.2634
 11
212.629
 21
53.9453
  0
LINE
  8
0
 10
212.629
 20
53.9453
 11
212.789
 21
53.6044
  0
LINE
  8
0
 10
212.789
 20
53.6044
 11
212.906
 21
53.2461
  0
LINE
  8
0
 10
212.906
 20
53.2461
 11
212.976
 21
52.876
  0
LINE
  8
0
 10
212.976
 20
52.876
 11
213
 21
52.5
  0
LINE
  8
0
 10
213
 20
52.5
 11
212.976
 21
52.124
  0
LINE
  8
0
 10
212.976
 20
52.124
 11
212.906
 21
51.7539
  0
LINE
  8
0
 10
212.906
 20
51.7539
 11
212.789
 21
51.3956
  0
LINE
  8
0
 10
212.789
 20
51.3956
 11
212.629
 21
51.0547
  0
LINE
  8
0
 10
212.629
 20
51.0547
 11
212.427
 21
50.7366
  0
LINE
  8
0
 10
212.427
 20
50.7366
 11
212.187
 21
50.4464
  0
LINE
  8
0
 10
212.187
 20
50.4464
 11
211.912
 21
50.1885
  0
LINE
  8
0
 10
211.912
 20
50.1885
 11
211.607
 21
49.967
  0
LINE
  8
0
 10
211.607
 20
49.967
 11
211.277
 21
49.7855
  0
LINE
  8
0
 10
211.277
 20
49.7855
 11
210.927
 21
49.6468
  0
LINE
  8
0
 10
210.927
 20
49.6468
 11
210.562
 21
49.5531
  0
LINE
  8
0
 10
210.562
 20
49.5531
 11
210.188
 21
49.5059
  0
LINE
  8
0
 10
210.188
 20
49.5059
 11
209.812
 21
49.5059
  0
LINE
  8
0
 10
-210.094
 20
43.503
 11
-210.281
 21
43.5266
  0
LINE
  8
0
 10
-210.281
 20
43.5266
 11
-210.464
 21
43.5734
  0
LINE
  8
0
 10
-210.464
 20
43.5734
 11
-210.639
 21
43.6428
  0
LINE
  8
0
 10
-210.639
 20
43.6428
 11
-210.804
 21
43.7335
  0
LINE
  8
0
 10
-210.804
 20
43.7335
 11
-210.956
 21
43.8442
  0
LINE
  8
0
 10
-210.956
 20
43.8442
 11
-211.093
 21
43.9732
  0
LINE
  8
0
 10
-211.093
 20
43.9732
 11
-211.214
 21
44.1183
  0
LINE
  8
0
 10
-211.214
 20
44.1183
 11
-211.314
 21
44.2774
  0
LINE
  8
0
 10
-211.314
 20
44.2774
 11
-211.395
 21
44.4478
  0
LINE
  8
0
 10
-211.395
 20
44.4478
 11
-211.453
 21
44.627
  0
LINE
  8
0
 10
-211.453
 20
44.627
 11
-211.488
 21
44.812
  0
LINE
  8
0
 10
-211.488
 20
44.812
 11
-211.5
 21
45
  0
LINE
  8
0
 10
-211.5
 20
45
 11
-211.488
 21
45.188
  0
LINE
  8
0
 10
-211.488
 20
45.188
 11
-211.453
 21
45.373
  0
LINE
  8
0
 10
-211.453
 20
45.373
 11
-211.395
 21
45.5522
  0
LINE
  8
0
 10
-211.395
 20
45.5522
 11
-211.314
 21
45.7226
  0
LINE
  8
0
 10
-211.314
 20
45.7226
 11
-211.214
 21
45.8817
  0
LINE
  8
0
 10
-211.214
 20
45.8817
 11
-211.093
 21
46.0268
  0
LINE
  8
0
 10
-211.093
 20
46.0268
 11
-210.956
 21
46.1558
  0
LINE
  8
0
 10
-210.956
 20
46.1558
 11
-210.804
 21
46.2665
  0
LINE
  8
0
 10
-210.804
 20
46.2665
 11
-210.639
 21
46.3572
  0
LINE
  8
0
 10
-210.639
 20
46.3572
 11
-210.464
 21
46.4266
  0
LINE
  8
0
 10
-210.464
 20
46.4266
 11
-210.281
 21
46.4734
  0
LINE
  8
0
 10
-210.281
 20
46.4734
 11
-210.094
 21
46.497
  0
LINE
  8
0
 10
-210.094
 20
46.497
 11
-209.906
 21
46.497
  0
LINE
  8
0
 10
-209.906
 20
46.497
 11
-209.719
 21
46.4734
  0
LINE
  8
0
 10
-209.719
 20
46.4734
 11
-209.536
 21
46.4266
  0
LINE
  8
0
 10
-209.536
 20
46.4266
 11
-209.361
 21
46.3572
  0
LINE
  8
0
 10
-209.361
 20
46.3572
 11
-209.196
 21
46.2665
  0
LINE
  8
0
 10
-209.196
 20
46.2665
 11
-209.044
 21
46.1558
  0
LINE
  8
0
 10
-209.044
 20
46.1558
 11
-208.907
 21
46.0268
  0
LINE
  8
0
 10
-208.907
 20
46.0268
 11
-208.786
 21
45.8817
  0
LINE
  8
0
 10
-208.786
 20
45.8817
 11
-208.686
 21
45.7226
  0
LINE
  8
0
 10
-208.686
 20
45.7226
 11
-208.605
 21
45.5522
  0
LINE
  8
0
 10
-208.605
 20
45.5522
 11
-208.547
 21
45.373
  0
LINE
  8
0
 10
-208.547
 20
45.373
 11
-208.512
 21
45.188
  0
LINE
  8
0
 10
-208.512
 20
45.188
 11
-208.5
 21
45
  0
LINE
  8
0
 10
-208.5
 20
45
 11
-208.512
 21
44.812
  0
LINE
  8
0
 10
-208.512
 20
44.812
 11
-208.547
 21
44.627
  0
LINE
  8
0
 10
-208.547
 20
44.627
 11
-208.605
 21
44.4478
  0
LINE
  8
0
 10
-208.605
 20
44.4478
 11
-208.686
 21
44.2774
  0
LINE
  8
0
 10
-208.686
 20
44.2774
 11
-208.786
 21
44.1183
  0
LINE
  8
0
 10
-208.786
 20
44.1183
 11
-208.907
 21
43.9732
  0
LINE
  8
0
 10
-208.907
 20
43.9732
 11
-209.044
 21
43.8442
  0
LINE
  8
0
 10
-209.044
 20
43.8442
 11
-209.196
 21
43.7335
  0
LINE
  8
0
 10
-209.196
 20
43.7335
 11
-209.361
 21
43.6428
  0
LINE
  8
0
 10
-209.361
 20
43.6428
 11
-209.536
 21
43.5734
  0
LINE
  8
0
 10
-209.536
 20
43.5734
 11
-209.719
 21
43.5266
  0
LINE
  8
0
 10
-209.719
 20
43.5266
 11
-209.906
 21
43.503
  0
LINE
  8
0
 10
-209.906
 20
43.503
 11
-210.094
 21
43.503
  0
LINE
  8
0
 10
209.906
 20
43.503
 11
209.719
 21
43.5266
  0
LINE
  8
0
 10
209.719
 20
43.5266
 11
209.536
 21
43.5734
  0
LINE
  8
0
 10
209.536
 20
43.5734
 11
209.361
 21
43.6428
  0
LINE
  8
0
 10
209.361
 20
43.6428
 11
209.196
 21
43.7335
  0
LINE
  8
0
 10
209.196
 20
43.7335
 11
209.044
 21
43.8442
  0
LINE
  8
0
 10
209.044
 20
43.8442
 11
208.907
 21
43.9732
  0
LINE
  8
0
 10
208.907
 20
43.9732
 11
208.786
 21
44.1183
  0
LINE
  8
0
 10
208.786
 20
44.1183
 11
208.686
 21
44.2774
  0
LINE
  8
0
 10
208.686
 20
44.2774
 11
208.605
 21
44.4478
  0
LINE
  8
0
 10
208.605
 20
44.4478
 11
208.547
 21
44.627
  0
LINE
  8
0
 10
208.547
 20
44.627
 11
208.512
 21
44.812
  0
LINE
  8
0
 10
208.512
 20
44.812
 11
208.5
 21
45
  0
LINE
  8
0
 10
208.5
 20
45
 11
208.512
 21
45.188
  0
LINE
  8
0
 10
208.512
 20
45.188
 11
208.547
 21
45.373
  0
LINE
  8
0
 10
208.547
 20
45.373
 11
208.605
 21
45.5522
  0
LINE
  8
0
 10
208.605
 20
45.5522
 11
208.686
 21
45.7226
  0
LINE
  8
0
 10
208.686
 20
45.7226
 11
208.786
 21
45.8817
  0
LINE
  8
0
 10
208.786
 20
45.8817
 11
208.907
 21
46.0268
  0
LINE
  8
0
 10
208.907
 20
46.0268
 11
209.044
 21
46.1558
  0
LINE
  8
0
 10
209.044
 20
46.1558
 11
209.196
 21
46.2665
  0
LINE
  8
0
 10
209.196
 20
46.2665
 11
209.361
 21
46.3572
  0
LINE
  8
0
 10
209.361
 20
46.3572
 11
209.536
 21
46.4266
  0
LINE
  8
0
 10
209.536
 20
46.4266
 11
209.719
 21
46.4734
  0
LINE
  8
0
 10
209.719
 20
46.4734
 11
209.906
 21
46.497
  0
LINE
  8
0
 10
209.906
 20
46.497
 11
210.094
 21
46.497
  0
LINE
  8
0
 10
210.094
 20
46.497
 11
210.281
 21
46.4734
  0
LINE
  8
0
 10
210.281
 20
46.4734
 11
210.464
 21
46.4266
  0
LINE
  8
0
 10
210.464
 20
46.4266
 11
210.639
 21
46.3572
  0
LINE
  8
0
 10
210.639
 20
46.3572
 11
210.804
 21
46.2665
  0
LINE
  8
0
 10
210.804
 20
46.2665
 11
210.956
 21
46.1558
  0
LINE
  8
0
 10
210.956
 20
46.1558
 11
211.093
 21
46.0268
  0
LINE
  8
0
 10
211.093
 20
46.0268
 11
211.214
 21
45.8817
  0
LINE
  8
0
 10
211.214
 20
45.8817
 11
211.314
 21
45.7226
  0
LINE
  8
0
 10
211.314
 20
45.7226
 11
211.395
 21
45.5522
  0
LINE
  8
0
 10
211.395
 20
45.5522
 11
211.453
 21
45.373
  0
LINE
  8
0
 10
211.453
 20
45.373
 11
211.488
 21
45.188
  0
LINE
  8
0
 10
211.488
 20
45.188
 11
211.5
 21
45
  0
LINE
  8
0
 10
211.5
 20
45
 11
211.488
 21
44.812
  0
LINE
  8
0
 10
211.488
 20
44.812
 11
211.453
 21
44.627
  0
LINE
  8
0
 10
211.453
 20
44.627
 11
211.395
 21
44.4478
  0
LINE
  8
0
 10
211.395
 20
44.4478
 11
211.314
 21
44.2774
  0
LINE
  8
0
 10
211.314
 20
44.2774
 11
211.214
 21
44.1183
  0
LINE
  8
0
 10
211.214
 20
44.1183
 11
211.093
 21
43.9732
  0
LINE
  8
0
 10
211.093
 20
43.9732
 11
210.956
 21
43.8442
  0
LINE
  8
0
 10
210.956
 20
43.8442
 11
210.804
 21
43.7335
  0
LINE
  8
0
 10
210.804
 20
43.7335
 11
210.639
 21
43.6428
  0
LINE
  8
0
 10
210.639
 20
43.6428
 11
210.464
 21
43.5734
  0
LINE
  8
0
 10
210.464
 20
43.5734
 11
210.281
 21
43.5266
  0
LINE
  8
0
 10
210.281
 20
43.5266
 11
210.094
 21
43.503
  0
LINE
  8
0
 10
210.094
 20
43.503
 11
209.906
 21
43.503
  0
LINE
  8
0
 10
209.812
 20
34.5059
 11
209.438
 21
34.5531
  0
LINE
  8
0
 10
209.438
 20
34.5531
 11
209.073
 21
34.6468
  0
LINE
  8
0
 10
209.073
 20
34.6468
 11
208.723
 21
34.7855
  0
LINE
  8
0
 10
208.723
 20
34.7855
 11
208.393
 21
34.967
  0
LINE
  8
0
 10
208.393
 20
34.967
 11
208.088
 21
35.1885
  0
LINE
  8
0
 10
208.088
 20
35.1885
 11
207.813
 21
35.4464
  0
LINE
  8
0
 10
207.813
 20
35.4464
 11
207.573
 21
35.7366
  0
LINE
  8
0
 10
207.573
 20
35.7366
 11
207.371
 21
36.0547
  0
LINE
  8
0
 10
207.371
 20
36.0547
 11
207.211
 21
36.3956
  0
LINE
  8
0
 10
207.211
 20
36.3956
 11
207.094
 21
36.7539
  0
LINE
  8
0
 10
207.094
 20
36.7539
 11
207.024
 21
37.124
  0
LINE
  8
0
 10
207.024
 20
37.124
 11
207
 21
37.5
  0
LINE
  8
0
 10
207
 20
37.5
 11
207.024
 21
37.876
  0
LINE
  8
0
 10
207.024
 20
37.876
 11
207.094
 21
38.2461
  0
LINE
  8
0
 10
207.094
 20
38.2461
 11
207.211
 21
38.6044
  0
LINE
  8
0
 10
207.211
 20
38.6044
 11
207.371
 21
38.9453
  0
LINE
  8
0
 10
207.371
 20
38.9453
 11
207.573
 21
39.2634
  0
LINE
  8
0
 10
207.573
 20
39.2634
 11
207.813
 21
39.5536
  0
LINE
  8
0
 10
207.813
 20
39.5536
 11
208.088
 21
39.8115
  0
LINE
  8
0
 10
208.088
 20
39.8115
 11
208.393
 21
40.033
  0
LINE
  8
0
 10
208.393
 20
40.033
 11
208.723
 21
40.2145
  0
LINE
  8
0
 10
208.723
 20
40.2145
 11
209.073
 21
40.3532
  0
LINE
  8
0
 10
209.073
 20
40.3532
 11
209.438
 21
40.4469
  0
LINE
  8
0
 10
209.438
 20
40.4469
 11
209.812
 21
40.4941
  0
LINE
  8
0
 10
209.812
 20
40.4941
 11
210.188
 21
40.4941
  0
LINE
  8
0
 10
210.188
 20
40.4941
 11
210.562
 21
40.4469
  0
LINE
  8
0
 10
210.562
 20
40.4469
 11
210.927
 21
40.3532
  0
LINE
  8
0
 10
210.927
 20
40.3532
 11
211.277
 21
40.2145
  0
LINE
  8
0
 10
211.277
 20
40.2145
 11
211.607
 21
40.033
  0
LINE
  8
0
 10
211.607
 20
40.033
 11
211.912
 21
39.8115
  0
LINE
  8
0
 10
211.912
 20
39.8115
 11
212.187
 21
39.5536
  0
LINE
  8
0
 10
212.187
 20
39.5536
 11
212.427
 21
39.2634
  0
LINE
  8
0
 10
212.427
 20
39.2634
 11
212.629
 21
38.9453
  0
LINE
  8
0
 10
212.629
 20
38.9453
 11
212.789
 21
38.6044
  0
LINE
  8
0
 10
212.789
 20
38.6044
 11
212.906
 21
38.2461
  0
LINE
  8
0
 10
212.906
 20
38.2461
 11
212.976
 21
37.876
  0
LINE
  8
0
 10
212.976
 20
37.876
 11
213
 21
37.5
  0
LINE
  8
0
 10
213
 20
37.5
 11
212.976
 21
37.124
  0
LINE
  8
0
 10
212.976
 20
37.124
 11
212.906
 21
36.7539
  0
LINE
  8
0
 10
212.906
 20
36.7539
 11
212.789
 21
36.3956
  0
LINE
  8
0
 10
212.789
 20
36.3956
 11
212.629
 21
36.0547
  0
LINE
  8
0
 10
212.629
 20
36.0547
 11
212.427
 21
35.7366
  0
LINE
  8
0
 10
212.427
 20
35.7366
 11
212.187
 21
35.4464
  0
LINE
  8
0
 10
212.187
 20
35.4464
 11
211.912
 21
35.1885
  0
LINE
  8
0
 10
211.912
 20
35.1885
 11
211.607
 21
34.967
  0
LINE
  8
0
 10
211.607
 20
34.967
 11
211.277
 21
34.7855
  0
LINE
  8
0
 10
211.277
 20
34.7855
 11
210.927
 21
34.6468
  0
LINE
  8
0
 10
210.927
 20
34.6468
 11
210.562
 21
34.5531
  0
LINE
  8
0
 10
210.562
 20
34.5531
 11
210.188
 21
34.5059
  0
LINE
  8
0
 10
210.188
 20
34.5059
 11
209.812
 21
34.5059
  0
LINE
  8
0
 10
-210.188
 20
34.5059
 11
-210.562
 21
34.5531
  0
LINE
  8
0
 10
-210.562
 20
34.5531
 11
-210.927
 21
34.6468
  0
LINE
  8
0
 10
-210.927
 20
34.6468
 11
-211.277
 21
34.7855
  0
LINE
  8
0
 10
-211.277
 20
34.7855
 11
-211.607
 21
34.967
  0
LINE
  8
0
 10
-211.607
 20
34.967
 11
-211.912
 21
35.1885
  0
LINE
  8
0
 10
-211.912
 20
35.1885
 11
-212.187
 21
35.4464
  0
LINE
  8
0
 10
-212.187
 20
35.4464
 11
-212.427
 21
35.7366
  0
LINE
  8
0
 10
-212.427
 20
35.7366
 11
-212.629
 21
36.0547
  0
LINE
  8
0
 10
-212.629
 20
36.0547
 11
-212.789
 21
36.3956
  0
LINE
  8
0
 10
-212.789
 20
36.3956
 11
-212.906
 21
36.7539
  0
LINE
  8
0
 10
-212.906
 20
36.7539
 11
-212.976
 21
37.124
  0
LINE
  8
0
 10
-212.976
 20
37.124
 11
-213
 21
37.5
  0
LINE
  8
0
 10
-213
 20
37.5
 11
-212.976
 21
37.876
  0
LINE
  8
0
 10
-212.976
 20
37.876
 11
-212.906
 21
38.2461
  0
LINE
  8
0
 10
-212.906
 20
38.2461
 11
-212.789
 21
38.6044
  0
LINE
  8
0
 10
-212.789
 20
38.6044
 11
-212.629
 21
38.9453
  0
LINE
  8
0
 10
-212.629
 20
38.9453
 11
-212.427
 21
39.2634
  0
LINE
  8
0
 10
-212.427
 20
39.2634
 11
-212.187
 21
39.5536
  0
LINE
  8
0
 10
-212.187
 20
39.5536
 11
-211.912
 21
39.8115
  0
LINE
  8
0
 10
-211.912
 20
39.8115
 11
-211.607
 21
40.033
  0
LINE
  8
0
 10
-211.607
 20
40.033
 11
-211.277
 21
40.2145
  0
LINE
  8
0
 10
-211.277
 20
40.2145
 11
-210.927
 21
40.3532
  0
LINE
  8
0
 10
-210.927
 20
40.3532
 11
-210.562
 21
40.4469
  0
LINE
  8
0
 10
-210.562
 20
40.4469
 11
-210.188
 21
40.4941
  0
LINE
  8
0
 10
-210.188
 20
40.4941
 11
-209.812
 21
40.4941
  0
LINE
  8
0
 10
-209.812
 20
40.4941
 11
-209.438
 21
40.4469
  0
LINE
  8
0
 10
-209.438
 20
40.4469
 11
-209.073
 21
40.3532
  0
LINE
  8
0
 10
-209.073
 20
40.3532
 11
-208.723
 21
40.2145
  0
LINE
  8
0
 10
-208.723
 20
40.2145
 11
-208.393
 21
40.033
  0
LINE
  8
0
 10
-208.393
 20
40.033
 11
-208.088
 21
39.8115
  0
LINE
  8
0
 10
-208.088
 20
39.8115
 11
-207.813
 21
39.5536
  0
LINE
  8
0
 10
-207.813
 20
39.5536
 11
-207.573
 21
39.2634
  0
LINE
  8
0
 10
-207.573
 20
39.2634
 11
-207.371
 21
38.9453
  0
LINE
  8
0
 10
-207.371
 20
38.9453
 11
-207.211
 21
38.6044
  0
LINE
  8
0
 10
-207.211
 20
38.6044
 11
-207.094
 21
38.2461
  0
LINE
  8
0
 10
-207.094
 20
38.2461
 11
-207.024
 21
37.876
  0
LINE
  8
0
 10
-207.024
 20
37.876
 11
-207
 21
37.5
  0
LINE
  8
0
 10
-207
 20
37.5
 11
-207.024
 21
37.124
  0
LINE
  8
0
 10
-207.024
 20
37.124
 11
-207.094
 21
36.7539
  0
LINE
  8
0
 10
-207.094
 20
36.7539
 11
-207.211
 21
36.3956
  0
LINE
  8
0
 10
-207.211
 20
36.3956
 11
-207.371
 21
36.0547
  0
LINE
  8
0
 10
-207.371
 20
36.0547
 11
-207.573
 21
35.7366
  0
LINE
  8
0
 10
-207.573
 20
35.7366
 11
-207.813
 21
35.4464
  0
LINE
  8
0
 10
-207.813
 20
35.4464
 11
-208.088
 21
35.1885
  0
LINE
  8
0
 10
-208.088
 20
35.1885
 11
-208.393
 21
34.967
  0
LINE
  8
0
 10
-208.393
 20
34.967
 11
-208.723
 21
34.7855
  0
LINE
  8
0
 10
-208.723
 20
34.7855
 11
-209.073
 21
34.6468
  0
LINE
  8
0
 10
-209.073
 20
34.6468
 11
-209.438
 21
34.5531
  0
LINE
  8
0
 10
-209.438
 20
34.5531
 11
-209.812
 21
34.5059
  0
LINE
  8
0
 10
-209.812
 20
34.5059
 11
-210.188
 21
34.5059
  0
LINE
  8
0
 10
209.906
 20
28.503
 11
209.719
 21
28.5266
  0
LINE
  8
0
 10
209.719
 20
28.5266
 11
209.536
 21
28.5734
  0
LINE
  8
0
 10
209.536
 20
28.5734
 11
209.361
 21
28.6427
  0
LINE
  8
0
 10
209.361
 20
28.6427
 11
209.196
 21
28.7335
  0
LINE
  8
0
 10
209.196
 20
28.7335
 11
209.044
 21
28.8442
  0
LINE
  8
0
 10
209.044
 20
28.8442
 11
208.907
 21
28.9732
  0
LINE
  8
0
 10
208.907
 20
28.9732
 11
208.786
 21
29.1183
  0
LINE
  8
0
 10
208.786
 20
29.1183
 11
208.686
 21
29.2774
  0
LINE
  8
0
 10
208.686
 20
29.2774
 11
208.605
 21
29.4478
  0
LINE
  8
0
 10
208.605
 20
29.4478
 11
208.547
 21
29.627
  0
LINE
  8
0
 10
208.547
 20
29.627
 11
208.512
 21
29.812
  0
LINE
  8
0
 10
208.512
 20
29.812
 11
208.5
 21
30
  0
LINE
  8
0
 10
208.5
 20
30
 11
208.512
 21
30.188
  0
LINE
  8
0
 10
208.512
 20
30.188
 11
208.547
 21
30.373
  0
LINE
  8
0
 10
208.547
 20
30.373
 11
208.605
 21
30.5522
  0
LINE
  8
0
 10
208.605
 20
30.5522
 11
208.686
 21
30.7226
  0
LINE
  8
0
 10
208.686
 20
30.7226
 11
208.786
 21
30.8817
  0
LINE
  8
0
 10
208.786
 20
30.8817
 11
208.907
 21
31.0268
  0
LINE
  8
0
 10
208.907
 20
31.0268
 11
209.044
 21
31.1558
  0
LINE
  8
0
 10
209.044
 20
31.1558
 11
209.196
 21
31.2665
  0
LINE
  8
0
 10
209.196
 20
31.2665
 11
209.361
 21
31.3572
  0
LINE
  8
0
 10
209.361
 20
31.3572
 11
209.536
 21
31.4266
  0
LINE
  8
0
 10
209.536
 20
31.4266
 11
209.719
 21
31.4734
  0
LINE
  8
0
 10
209.719
 20
31.4734
 11
209.906
 21
31.497
  0
LINE
  8
0
 10
209.906
 20
31.497
 11
210.094
 21
31.497
  0
LINE
  8
0
 10
210.094
 20
31.497
 11
210.281
 21
31.4734
  0
LINE
  8
0
 10
210.281
 20
31.4734
 11
210.464
 21
31.4266
  0
LINE
  8
0
 10
210.464
 20
31.4266
 11
210.639
 21
31.3572
  0
LINE
  8
0
 10
210.639
 20
31.3572
 11
210.804
 21
31.2665
  0
LINE
  8
0
 10
210.804
 20
31.2665
 11
210.956
 21
31.1558
  0
LINE
  8
0
 10
210.956
 20
31.1558
 11
211.093
 21
31.0268
  0
LINE
  8
0
 10
211.093
 20
31.0268
 11
211.214
 21
30.8817
  0
LINE
  8
0
 10
211.214
 20
30.8817
 11
211.314
 21
30.7226
  0
LINE
  8
0
 10
211.314
 20
30.7226
 11
211.395
 21
30.5522
  0
LINE
  8
0
 10
211.395
 20
30.5522
 11
211.453
 21
30.373
  0
LINE
  8
0
 10
211.453
 20
30.373
 11
211.488
 21
30.188
  0
LINE
  8
0
 10
211.488
 20
30.188
 11
211.5
 21
30
  0
LINE
  8
0
 10
211.5
 20
30
 11
211.488
 21
29.812
  0
LINE
  8
0
 10
211.488
 20
29.812
 11
211.453
 21
29.627
  0
LINE
  8
0
 10
211.453
 20
29.627
 11
211.395
 21
29.4478
  0
LINE
  8
0
 10
211.395
 20
29.4478
 11
211.314
 21
29.2774
  0
LINE
  8
0
 10
211.314
 20
29.2774
 11
211.214
 21
29.1183
  0
LINE
  8
0
 10
211.214
 20
29.1183
 11
211.093
 21
28.9732
  0
LINE
  8
0
 10
211.093
 20
28.9732
 11
210.956
 21
28.8442
  0
LINE
  8
0
 10
210.956
 20
28.8442
 11
210.804
 21
28.7335
  0
LINE
  8
0
 10
210.804
 20
28.7335
 11
210.639
 21
28.6427
  0
LINE
  8
0
 10
210.639
 20
28.6427
 11
210.464
 21
28.5734
  0
LINE
  8
0
 10
210.464
 20
28.5734
 11
210.281
 21
28.5266
  0
LINE
  8
0
 10
210.281
 20
28.5266
 11
210.094
 21
28.503
  0
LINE
  8
0
 10
210.094
 20
28.503
 11
209.906
 21
28.503
  0
LINE
  8
0
 10
-210.094
 20
28.503
 11
-210.281
 21
28.5266
  0
LINE
  8
0
 10
-210.281
 20
28.5266
 11
-210.464
 21
28.5734
  0
LINE
  8
0
 10
-210.464
 20
28.5734
 11
-210.639
 21
28.6427
  0
LINE
  8
0
 10
-210.639
 20
28.6427
 11
-210.804
 21
28.7335
  0
LINE
  8
0
 10
-210.804
 20
28.7335
 11
-210.956
 21
28.8442
  0
LINE
  8
0
 10
-210.956
 20
28.8442
 11
-211.093
 21
28.9732
  0
LINE
  8
0
 10
-211.093
 20
28.9732
 11
-211.214
 21
29.1183
  0
LINE
  8
0
 10
-211.214
 20
29.1183
 11
-211.314
 21
29.2774
  0
LINE
  8
0
 10
-211.314
 20
29.2774
 11
-211.395
 21
29.4478
  0
LINE
  8
0
 10
-211.395
 20
29.4478
 11
-211.453
 21
29.627
  0
LINE
  8
0
 10
-211.453
 20
29.627
 11
-211.488
 21
29.812
  0
LINE
  8
0
 10
-211.488
 20
29.812
 11
-211.5
 21
30
  0
LINE
  8
0
 10
-211.5
 20
30
 11
-211.488
 21
30.188
  0
LINE
  8
0
 10
-211.488
 20
30.188
 11
-211.453
 21
30.373
  0
LINE
  8
0
 10
-211.453
 20
30.373
 11
-211.395
 21
30.5522
  0
LINE
  8
0
 10
-211.395
 20
30.5522
 11
-211.314
 21
30.7226
  0
LINE
  8
0
 10
-211.314
 20
30.7226
 11
-211.214
 21
30.8817
  0
LINE
  8
0
 10
-211.214
 20
30.8817
 11
-211.093
 21
31.0268
  0
LINE
  8
0
 10
-211.093
 20
31.0268
 11
-210.956
 21
31.1558
  0
LINE
  8
0
 10
-210.956
 20
31.1558
 11
-210.804
 21
31.2665
  0
LINE
  8
0
 10
-210.804
 20
31.2665
 11
-210.639
 21
31.3572
  0
LINE
  8
0
 10
-210.639
 20
31.3572
 11
-210.464
 21
31.4266
  0
LINE
  8
0
 10
-210.464
 20
31.4266
 11
-210.281
 21
31.4734
  0
LINE
  8
0
 10
-210.281
 20
31.4734
 11
-210.094
 21
31.497
  0
LINE
  8
0
 10
-210.094
 20
31.497
 11
-209.906
 21
31.497
  0
LINE
  8
0
 10
-209.906
 20
31.497
 11
-209.719
 21
31.4734
  0
LINE
  8
0
 10
-209.719
 20
31.4734
 11
-209.536
 21
31.4266
  0
LINE
  8
0
 10
-209.536
 20
31.4266
 11
-209.361
 21
31.3572
  0
LINE
  8
0
 10
-209.361
 20
31.3572
 11
-209.196
 21
31.2665
  0
LINE
  8
0
 10
-209.196
 20
31.2665
 11
-209.044
 21
31.1558
  0
LINE
  8
0
 10
-209.044
 20
31.1558
 11
-208.907
 21
31.0268
  0
LINE
  8
0
 10
-208.907
 20
31.0268
 11
-208.786
 21
30.8817
  0
LINE
  8
0
 10
-208.786
 20
30.8817
 11
-208.686
 21
30.7226
  0
LINE
  8
0
 10
-208.686
 20
30.7226
 11
-208.605
 21
30.5522
  0
LINE
  8
0
 10
-208.605
 20
30.5522
 11
-208.547
 21
30.373
  0
LINE
  8
0
 10
-208.547
 20
30.373
 11
-208.512
 21
30.188
  0
LINE
  8
0
 10
-208.512
 20
30.188
 11
-208.5
 21
30
  0
LINE
  8
0
 10
-208.5
 20
30
 11
-208.512
 21
29.812
  0
LINE
  8
0
 10
-208.512
 20
29.812
 11
-208.547
 21
29.627
  0
LINE
  8
0
 10
-208.547
 20
29.627
 11
-208.605
 21
29.4478
  0
LINE
  8
0
 10
-208.605
 20
29.4478
 11
-208.686
 21
29.2774
  0
LINE
  8
0
 10
-208.686
 20
29.2774
 11
-208.786
 21
29.1183
  0
LINE
  8
0
 10
-208.786
 20
29.1183
 11
-208.907
 21
28.9732
  0
LINE
  8
0
 10
-208.907
 20
28.9732
 11
-209.044
 21
28.8442
  0
LINE
  8
0
 10
-209.044
 20
28.8442
 11
-209.196
 21
28.7335
  0
LINE
  8
0
 10
-209.196
 20
28.7335
 11
-209.361
 21
28.6427
  0
LINE
  8
0
 10
-209.361
 20
28.6427
 11
-209.536
 21
28.5734
  0
LINE
  8
0
 10
-209.536
 20
28.5734
 11
-209.719
 21
28.5266
  0
LINE
  8
0
 10
-209.719
 20
28.5266
 11
-209.906
 21
28.503
  0
LINE
  8
0
 10
-209.906
 20
28.503
 11
-210.094
 21
28.503
  0
LINE
  8
0
 10
209.812
 20
19.5059
 11
209.438
 21
19.5531
  0
LINE
  8
0
 10
209.438
 20
19.5531
 11
209.073
 21
19.6468
  0
LINE
  8
0
 10
209.073
 20
19.6468
 11
208.723
 21
19.7855
  0
LINE
  8
0
 10
208.723
 20
19.7855
 11
208.393
 21
19.967
  0
LINE
  8
0
 10
208.393
 20
19.967
 11
208.088
 21
20.1884
  0
LINE
  8
0
 10
208.088
 20
20.1884
 11
207.813
 21
20.4464
  0
LINE
  8
0
 10
207.813
 20
20.4464
 11
207.573
 21
20.7366
  0
LINE
  8
0
 10
207.573
 20
20.7366
 11
207.371
 21
21.0547
  0
LINE
  8
0
 10
207.371
 20
21.0547
 11
207.211
 21
21.3956
  0
LINE
  8
0
 10
207.211
 20
21.3956
 11
207.094
 21
21.7539
  0
LINE
  8
0
 10
207.094
 20
21.7539
 11
207.024
 21
22.124
  0
LINE
  8
0
 10
207.024
 20
22.124
 11
207
 21
22.5
  0
LINE
  8
0
 10
207
 20
22.5
 11
207.024
 21
22.876
  0
LINE
  8
0
 10
207.024
 20
22.876
 11
207.094
 21
23.2461
  0
LINE
  8
0
 10
207.094
 20
23.2461
 11
207.211
 21
23.6044
  0
LINE
  8
0
 10
207.211
 20
23.6044
 11
207.371
 21
23.9453
  0
LINE
  8
0
 10
207.371
 20
23.9453
 11
207.573
 21
24.2634
  0
LINE
  8
0
 10
207.573
 20
24.2634
 11
207.813
 21
24.5536
  0
LINE
  8
0
 10
207.813
 20
24.5536
 11
208.088
 21
24.8115
  0
LINE
  8
0
 10
208.088
 20
24.8115
 11
208.393
 21
25.033
  0
LINE
  8
0
 10
208.393
 20
25.033
 11
208.723
 21
25.2145
  0
LINE
  8
0
 10
208.723
 20
25.2145
 11
209.073
 21
25.3532
  0
LINE
  8
0
 10
209.073
 20
25.3532
 11
209.438
 21
25.4469
  0
LINE
  8
0
 10
209.438
 20
25.4469
 11
209.812
 21
25.4941
  0
LINE
  8
0
 10
209.812
 20
25.4941
 11
210.188
 21
25.4941
  0
LINE
  8
0
 10
210.188
 20
25.4941
 11
210.562
 21
25.4469
  0
LINE
  8
0
 10
210.562
 20
25.4469
 11
210.927
 21
25.3532
  0
LINE
  8
0
 10
210.927
 20
25.3532
 11
211.277
 21
25.2145
  0
LINE
  8
0
 10
211.277
 20
25.2145
 11
211.607
 21
25.033
  0
LINE
  8
0
 10
211.607
 20
25.033
 11
211.912
 21
24.8115
  0
LINE
  8
0
 10
211.912
 20
24.8115
 11
212.187
 21
24.5536
  0
LINE
  8
0
 10
212.187
 20
24.5536
 11
212.427
 21
24.2634
  0
LINE
  8
0
 10
212.427
 20
24.2634
 11
212.629
 21
23.9453
  0
LINE
  8
0
 10
212.629
 20
23.9453
 11
212.789
 21
23.6044
  0
LINE
  8
0
 10
212.789
 20
23.6044
 11
212.906
 21
23.2461
  0
LINE
  8
0
 10
212.906
 20
23.2461
 11
212.976
 21
22.876
  0
LINE
  8
0
 10
212.976
 20
22.876
 11
213
 21
22.5
  0
LINE
  8
0
 10
213
 20
22.5
 11
212.976
 21
22.124
  0
LINE
  8
0
 10
212.976
 20
22.124
 11
212.906
 21
21.7539
  0
LINE
  8
0
 10
212.906
 20
21.7539
 11
212.789
 21
21.3956
  0
LINE
  8
0
 10
212.789
 20
21.3956
 11
212.629
 21
21.0547
  0
LINE
  8
0
 10
212.629
 20
21.0547
 11
212.427
 21
20.7366
  0
LINE
  8
0
 10
212.427
 20
20.7366
 11
212.187
 21
20.4464
  0
LINE
  8
0
 10
212.187
 20
20.4464
 11
211.912
 21
20.1884
  0
LINE
  8
0
 10
211.912
 20
20.1884
 11
211.607
 21
19.967
  0
LINE
  8
0
 10
211.607
 20
19.967
 11
211.277
 21
19.7855
  0
LINE
  8
0
 10
211.277
 20
19.7855
 11
210.927
 21
19.6468
  0
LINE
  8
0
 10
210.927
 20
19.6468
 11
210.562
 21
19.5531
  0
LINE
  8
0
 10
210.562
 20
19.5531
 11
210.188
 21
19.5059
  0
LINE
  8
0
 10
210.188
 20
19.5059
 11
209.812
 21
19.5059
  0
LINE
  8
0
 10
-210.188
 20
19.5059
 11
-210.562
 21
19.5531
  0
LINE
  8
0
 10
-210.562
 20
19.5531
 11
-210.927
 21
19.6468
  0
LINE
  8
0
 10
-210.927
 20
19.6468
 11
-211.277
 21
19.7855
  0
LINE
  8
0
 10
-211.277
 20
19.7855
 11
-211.607
 21
19.967
  0
LINE
  8
0
 10
-211.607
 20
19.967
 11
-211.912
 21
20.1884
  0
LINE
  8
0
 10
-211.912
 20
20.1884
 11
-212.187
 21
20.4464
  0
LINE
  8
0
 10
-212.187
 20
20.4464
 11
-212.427
 21
20.7366
  0
LINE
  8
0
 10
-212.427
 20
20.7366
 11
-212.629
 21
21.0547
  0
LINE
  8
0
 10
-212.629
 20
21.0547
 11
-212.789
 21
21.3956
  0
LINE
  8
0
 10
-212.789
 20
21.3956
 11
-212.906
 21
21.7539
  0
LINE
  8
0
 10
-212.906
 20
21.7539
 11
-212.976
 21
22.124
  0
LINE
  8
0
 10
-212.976
 20
22.124
 11
-213
 21
22.5
  0
LINE
  8
0
 10
-213
 20
22.5
 11
-212.976
 21
22.876
  0
LINE
  8
0
 10
-212.976
 20
22.876
 11
-212.906
 21
23.2461
  0
LINE
  8
0
 10
-212.906
 20
23.2461
 11
-212.789
 21
23.6044
  0
LINE
  8
0
 10
-212.789
 20
23.6044
 11
-212.629
 21
23.9453
  0
LINE
  8
0
 10
-212.629
 20
23.9453
 11
-212.427
 21
24.2634
  0
LINE
  8
0
 10
-212.427
 20
24.2634
 11
-212.187
 21
24.5536
  0
LINE
  8
0
 10
-212.187
 20
24.5536
 11
-211.912
 21
24.8115
  0
LINE
  8
0
 10
-211.912
 20
24.8115
 11
-211.607
 21
25.033
  0
LINE
  8
0
 10
-211.607
 20
25.033
 11
-211.277
 21
25.2145
  0
LINE
  8
0
 10
-211.277
 20
25.2145
 11
-210.927
 21
25.3532
  0
LINE
  8
0
 10
-210.927
 20
25.3532
 11
-210.562
 21
25.4469
  0
LINE
  8
0
 10
-210.562
 20
25.4469
 11
-210.188
 21
25.4941
  0
LINE
  8
0
 10
-210.188
 20
25.4941
 11
-209.812
 21
25.4941
  0
LINE
  8
0
 10
-209.812
 20
25.4941
 11
-209.438
 21
25.4469
  0
LINE
  8
0
 10
-209.438
 20
25.4469
 11
-209.073
 21
25.3532
  0
LINE
  8
0
 10
-209.073
 20
25.3532
 11
-208.723
 21
25.2145
  0
LINE
  8
0
 10
-208.723
 20
25.2145
 11
-208.393
 21
25.033
  0
LINE
  8
0
 10
-208.393
 20
25.033
 11
-208.088
 21
24.8115
  0
LINE
  8
0
 10
-208.088
 20
24.8115
 11
-207.813
 21
24.5536
  0
LINE
  8
0
 10
-207.813
 20
24.5536
 11
-207.573
 21
24.2634
  0
LINE
  8
0
 10
-207.573
 20
24.2634
 11
-207.371
 21
23.9453
  0
LINE
  8
0
 10
-207.371
 20
23.9453
 11
-207.211
 21
23.6044
  0
LINE
  8
0
 10
-207.211
 20
23.6044
 11
-207.094
 21
23.2461
  0
LINE
  8
0
 10
-207.094
 20
23.2461
 11
-207.024
 21
22.876
  0
LINE
  8
0
 10
-207.024
 20
22.876
 11
-207
 21
22.5
  0
LINE
  8
0
 10
-207
 20
22.5
 11
-207.024
 21
22.124
  0
LINE
  8
0
 10
-207.024
 20
22.124
 11
-207.094
 21
21.7539
  0
LINE
  8
0
 10
-207.094
 20
21.7539
 11
-207.211
 21
21.3956
  0
LINE
  8
0
 10
-207.211
 20
21.3956
 11
-207.371
 21
21.0547
  0
LINE
  8
0
 10
-207.371
 20
21.0547
 11
-207.573
 21
20.7366
  0
LINE
  8
0
 10
-207.573
 20
20.7366
 11
-207.813
 21
20.4464
  0
LINE
  8
0
 10
-207.813
 20
20.4464
 11
-208.088
 21
20.1884
  0
LINE
  8
0
 10
-208.088
 20
20.1884
 11
-208.393
 21
19.967
  0
LINE
  8
0
 10
-208.393
 20
19.967
 11
-208.723
 21
19.7855
  0
LINE
  8
0
 10
-208.723
 20
19.7855
 11
-209.073
 21
19.6468
  0
LINE
  8
0
 10
-209.073
 20
19.6468
 11
-209.438
 21
19.5531
  0
LINE
  8
0
 10
-209.438
 20
19.5531
 11
-209.812
 21
19.5059
  0
LINE
  8
0
 10
-209.812
 20
19.5059
 11
-210.188
 21
19.5059
  0
LINE
  8
0
 10
209.906
 20
13.5029
 11
209.719
 21
13.5266
  0
LINE
  8
0
 10
209.719
 20
13.5266
 11
209.536
 21
13.5734
  0
LINE
  8
0
 10
209.536
 20
13.5734
 11
209.361
 21
13.6427
  0
LINE
  8
0
 10
209.361
 20
13.6427
 11
209.196
 21
13.7335
  0
LINE
  8
0
 10
209.196
 20
13.7335
 11
209.044
 21
13.8442
  0
LINE
  8
0
 10
209.044
 20
13.8442
 11
208.907
 21
13.9732
  0
LINE
  8
0
 10
208.907
 20
13.9732
 11
208.786
 21
14.1183
  0
LINE
  8
0
 10
208.786
 20
14.1183
 11
208.686
 21
14.2774
  0
LINE
  8
0
 10
208.686
 20
14.2774
 11
208.605
 21
14.4478
  0
LINE
  8
0
 10
208.605
 20
14.4478
 11
208.547
 21
14.627
  0
LINE
  8
0
 10
208.547
 20
14.627
 11
208.512
 21
14.812
  0
LINE
  8
0
 10
208.512
 20
14.812
 11
208.5
 21
15
  0
LINE
  8
0
 10
208.5
 20
15
 11
208.512
 21
15.188
  0
LINE
  8
0
 10
208.512
 20
15.188
 11
208.547
 21
15.373
  0
LINE
  8
0
 10
208.547
 20
15.373
 11
208.605
 21
15.5522
  0
LINE
  8
0
 10
208.605
 20
15.5522
 11
208.686
 21
15.7226
  0
LINE
  8
0
 10
208.686
 20
15.7226
 11
208.786
 21
15.8817
  0
LINE
  8
0
 10
208.786
 20
15.8817
 11
208.907
 21
16.0268
  0
LINE
  8
0
 10
208.907
 20
16.0268
 11
209.044
 21
16.1558
  0
LINE
  8
0
 10
209.044
 20
16.1558
 11
209.196
 21
16.2665
  0
LINE
  8
0
 10
209.196
 20
16.2665
 11
209.361
 21
16.3572
  0
LINE
  8
0
 10
209.361
 20
16.3572
 11
209.536
 21
16.4266
  0
LINE
  8
0
 10
209.536
 20
16.4266
 11
209.719
 21
16.4734
  0
LINE
  8
0
 10
209.719
 20
16.4734
 11
209.906
 21
16.497
  0
LINE
  8
0
 10
209.906
 20
16.497
 11
210.094
 21
16.497
  0
LINE
  8
0
 10
210.094
 20
16.497
 11
210.281
 21
16.4734
  0
LINE
  8
0
 10
210.281
 20
16.4734
 11
210.464
 21
16.4266
  0
LINE
  8
0
 10
210.464
 20
16.4266
 11
210.639
 21
16.3572
  0
LINE
  8
0
 10
210.639
 20
16.3572
 11
210.804
 21
16.2665
  0
LINE
  8
0
 10
210.804
 20
16.2665
 11
210.956
 21
16.1558
  0
LINE
  8
0
 10
210.956
 20
16.1558
 11
211.093
 21
16.0268
  0
LINE
  8
0
 10
211.093
 20
16.0268
 11
211.214
 21
15.8817
  0
LINE
  8
0
 10
211.214
 20
15.8817
 11
211.314
 21
15.7226
  0
LINE
  8
0
 10
211.314
 20
15.7226
 11
211.395
 21
15.5522
  0
LINE
  8
0
 10
211.395
 20
15.5522
 11
211.453
 21
15.373
  0
LINE
  8
0
 10
211.453
 20
15.373
 11
211.488
 21
15.188
  0
LINE
  8
0
 10
211.488
 20
15.188
 11
211.5
 21
15
  0
LINE
  8
0
 10
211.5
 20
15
 11
211.488
 21
14.812
  0
LINE
  8
0
 10
211.488
 20
14.812
 11
211.453
 21
14.627
  0
LINE
  8
0
 10
211.453
 20
14.627
 11
211.395
 21
14.4478
  0
LINE
  8
0
 10
211.395
 20
14.4478
 11
211.314
 21
14.2774
  0
LINE
  8
0
 10
211.314
 20
14.2774
 11
211.214
 21
14.1183
  0
LINE
  8
0
 10
211.214
 20
14.1183
 11
211.093
 21
13.9732
  0
LINE
  8
0
 10
211.093
 20
13.9732
 11
210.956
 21
13.8442
  0
LINE
  8
0
 10
210.956
 20
13.8442
 11
210.804
 21
13.7335
  0
LINE
  8
0
 10
210.804
 20
13.7335
 11
210.639
 21
13.6427
  0
LINE
  8
0
 10
210.639
 20
13.6427
 11
210.464
 21
13.5734
  0
LINE
  8
0
 10
210.464
 20
13.5734
 11
210.281
 21
13.5266
  0
LINE
  8
0
 10
210.281
 20
13.5266
 11
210.094
 21
13.5029
  0
LINE
  8
0
 10
210.094
 20
13.5029
 11
209.906
 21
13.5029
  0
LINE
  8
0
 10
-210.094
 20
13.5029
 11
-210.281
 21
13.5266
  0
LINE
  8
0
 10
-210.281
 20
13.5266
 11
-210.464
 21
13.5734
  0
LINE
  8
0
 10
-210.464
 20
13.5734
 11
-210.639
 21
13.6427
  0
LINE
  8
0
 10
-210.639
 20
13.6427
 11
-210.804
 21
13.7335
  0
LINE
  8
0
 10
-210.804
 20
13.7335
 11
-210.956
 21
13.8442
  0
LINE
  8
0
 10
-210.956
 20
13.8442
 11
-211.093
 21
13.9732
  0
LINE
  8
0
 10
-211.093
 20
13.9732
 11
-211.214
 21
14.1183
  0
LINE
  8
0
 10
-211.214
 20
14.1183
 11
-211.314
 21
14.2774
  0
LINE
  8
0
 10
-211.314
 20
14.2774
 11
-211.395
 21
14.4478
  0
LINE
  8
0
 10
-211.395
 20
14.4478
 11
-211.453
 21
14.627
  0
LINE
  8
0
 10
-211.453
 20
14.627
 11
-211.488
 21
14.812
  0
LINE
  8
0
 10
-211.488
 20
14.812
 11
-211.5
 21
15
  0
LINE
  8
0
 10
-211.5
 20
15
 11
-211.488
 21
15.188
  0
LINE
  8
0
 10
-211.488
 20
15.188
 11
-211.453
 21
15.373
  0
LINE
  8
0
 10
-211.453
 20
15.373
 11
-211.395
 21
15.5522
  0
LINE
  8
0
 10
-211.395
 20
15.5522
 11
-211.314
 21
15.7226
  0
LINE
  8
0
 10
-211.314
 20
15.7226
 11
-211.214
 21
15.8817
  0
LINE
  8
0
 10
-211.214
 20
15.8817
 11
-211.093
 21
16.0268
  0
LINE
  8
0
 10
-211.093
 20
16.0268
 11
-210.956
 21
16.1558
  0
LINE
  8
0
 10
-210.956
 20
16.1558
 11
-210.804
 21
16.2665
  0
LINE
  8
0
 10
-210.804
 20
16.2665
 11
-210.639
 21
16.3572
  0
LINE
  8
0
 10
-210.639
 20
16.3572
 11
-210.464
 21
16.4266
  0
LINE
  8
0
 10
-210.464
 20
16.4266
 11
-210.281
 21
16.4734
  0
LINE
  8
0
 10
-210.281
 20
16.4734
 11
-210.094
 21
16.497
  0
LINE
  8
0
 10
-210.094
 20
16.497
 11
-209.906
 21
16.497
  0
LINE
  8
0
 10
-209.906
 20
16.497
 11
-209.719
 21
16.4734
  0
LINE
  8
0
 10
-209.719
 20
16.4734
 11
-209.536
 21
16.4266
  0
LINE
  8
0
 10
-209.536
 20
16.4266
 11
-209.361
 21
16.3572
  0
LINE
  8
0
 10
-209.361
 20
16.3572
 11
-209.196
 21
16.2665
  0
LINE
  8
0
 10
-209.196
 20
16.2665
 11
-209.044
 21
16.1558
  0
LINE
  8
0
 10
-209.044
 20
16.1558
 11
-208.907
 21
16.0268
  0
LINE
  8
0
 10
-208.907
 20
16.0268
 11
-208.786
 21
15.8817
  0
LINE
  8
0
 10
-208.786
 20
15.8817
 11
-208.686
 21
15.7226
  0
LINE
  8
0
 10
-208.686
 20
15.7226
 11
-208.605
 21
15.5522
  0
LINE
  8
0
 10
-208.605
 20
15.5522
 11
-208.547
 21
15.373
  0
LINE
  8
0
 10
-208.547
 20
15.373
 11
-208.512
 21
15.188
  0
LINE
  8
0
 10
-208.512
 20
15.188
 11
-208.5
 21
15
  0
LINE
  8
0
 10
-208.5
 20
15
 11
-208.512
 21
14.812
  0
LINE
  8
0
 10
-208.512
 20
14.812
 11
-208.547
 21
14.627
  0
LINE
  8
0
 10
-208.547
 20
14.627
 11
-208.605
 21
14.4478
  0
LINE
  8
0
 10
-208.605
 20
14.4478
 11
-208.686
 21
14.2774
  0
LINE
  8
0
 10
-208.686
 20
14.2774
 11
-208.786
 21
14.1183
  0
LINE
  8
0
 10
-208.786
 20
14.1183
 11
-208.907
 21
13.9732
  0
LINE
  8
0
 10
-208.907
 20
13.9732
 11
-209.044
 21
13.8442
  0
LINE
  8
0
 10
-209.044
 20
13.8442
 11
-209.196
 21
13.7335
  0
LINE
  8
0
 10
-209.196
 20
13.7335
 11
-209.361
 21
13.6427
  0
LINE
  8
0
 10
-209.361
 20
13.6427
 11
-209.536
 21
13.5734
  0
LINE
  8
0
 10
-209.536
 20
13.5734
 11
-209.719
 21
13.5266
  0
LINE
  8
0
 10
-209.719
 20
13.5266
 11
-209.906
 21
13.5029
  0
LINE
  8
0
 10
-209.906
 20
13.5029
 11
-210.094
 21
13.5029
  0
LINE
  8
0
 10
209.812
 20
4.50591
 11
209.438
 21
4.55313
  0
LINE
  8
0
 10
209.438
 20
4.55313
 11
209.073
 21
4.64682
  0
LINE
  8
0
 10
209.073
 20
4.64682
 11
208.723
 21
4.78551
  0
LINE
  8
0
 10
208.723
 20
4.78551
 11
208.393
 21
4.96701
  0
LINE
  8
0
 10
208.393
 20
4.96701
 11
208.088
 21
5.18845
  0
LINE
  8
0
 10
208.088
 20
5.18845
 11
207.813
 21
5.44635
  0
LINE
  8
0
 10
207.813
 20
5.44635
 11
207.573
 21
5.73663
  0
LINE
  8
0
 10
207.573
 20
5.73663
 11
207.371
 21
6.05473
  0
LINE
  8
0
 10
207.371
 20
6.05473
 11
207.211
 21
6.39561
  0
LINE
  8
0
 10
207.211
 20
6.39561
 11
207.094
 21
6.75392
  0
LINE
  8
0
 10
207.094
 20
6.75392
 11
207.024
 21
7.12399
  0
LINE
  8
0
 10
207.024
 20
7.12399
 11
207
 21
7.5
  0
LINE
  8
0
 10
207
 20
7.5
 11
207.024
 21
7.87599
  0
LINE
  8
0
 10
207.024
 20
7.87599
 11
207.094
 21
8.24606
  0
LINE
  8
0
 10
207.094
 20
8.24606
 11
207.211
 21
8.60437
  0
LINE
  8
0
 10
207.211
 20
8.60437
 11
207.371
 21
8.94525
  0
LINE
  8
0
 10
207.371
 20
8.94525
 11
207.573
 21
9.26335
  0
LINE
  8
0
 10
207.573
 20
9.26335
 11
207.813
 21
9.55363
  0
LINE
  8
0
 10
207.813
 20
9.55363
 11
208.088
 21
9.81154
  0
LINE
  8
0
 10
208.088
 20
9.81154
 11
208.393
 21
10.033
  0
LINE
  8
0
 10
208.393
 20
10.033
 11
208.723
 21
10.2145
  0
LINE
  8
0
 10
208.723
 20
10.2145
 11
209.073
 21
10.3532
  0
LINE
  8
0
 10
209.073
 20
10.3532
 11
209.438
 21
10.4469
  0
LINE
  8
0
 10
209.438
 20
10.4469
 11
209.812
 21
10.4941
  0
LINE
  8
0
 10
209.812
 20
10.4941
 11
210.188
 21
10.4941
  0
LINE
  8
0
 10
210.188
 20
10.4941
 11
210.562
 21
10.4469
  0
LINE
  8
0
 10
210.562
 20
10.4469
 11
210.927
 21
10.3532
  0
LINE
  8
0
 10
210.927
 20
10.3532
 11
211.277
 21
10.2145
  0
LINE
  8
0
 10
211.277
 20
10.2145
 11
211.607
 21
10.033
  0
LINE
  8
0
 10
211.607
 20
10.033
 11
211.912
 21
9.81154
  0
LINE
  8
0
 10
211.912
 20
9.81154
 11
212.187
 21
9.55363
  0
LINE
  8
0
 10
212.187
 20
9.55363
 11
212.427
 21
9.26335
  0
LINE
  8
0
 10
212.427
 20
9.26335
 11
212.629
 21
8.94525
  0
LINE
  8
0
 10
212.629
 20
8.94525
 11
212.789
 21
8.60437
  0
LINE
  8
0
 10
212.789
 20
8.60437
 11
212.906
 21
8.24606
  0
LINE
  8
0
 10
212.906
 20
8.24606
 11
212.976
 21
7.87599
  0
LINE
  8
0
 10
212.976
 20
7.87599
 11
213
 21
7.5
  0
LINE
  8
0
 10
213
 20
7.5
 11
212.976
 21
7.12399
  0
LINE
  8
0
 10
212.976
 20
7.12399
 11
212.906
 21
6.75392
  0
LINE
  8
0
 10
212.906
 20
6.75392
 11
212.789
 21
6.39561
  0
LINE
  8
0
 10
212.789
 20
6.39561
 11
212.629
 21
6.05473
  0
LINE
  8
0
 10
212.629
 20
6.05473
 11
212.427
 21
5.73663
  0
LINE
  8
0
 10
212.427
 20
5.73663
 11
212.187
 21
5.44635
  0
LINE
  8
0
 10
212.187
 20
5.44635
 11
211.912
 21
5.18845
  0
LINE
  8
0
 10
211.912
 20
5.18845
 11
211.607
 21
4.96701
  0
LINE
  8
0
 10
211.607
 20
4.96701
 11
211.277
 21
4.78551
  0
LINE
  8
0
 10
211.277
 20
4.78551
 11
210.927
 21
4.64682
  0
LINE
  8
0
 10
210.927
 20
4.64682
 11
210.562
 21
4.55313
  0
LINE
  8
0
 10
210.562
 20
4.55313
 11
210.188
 21
4.50591
  0
LINE
  8
0
 10
210.188
 20
4.50591
 11
209.812
 21
4.50591
  0
LINE
  8
0
 10
-210.188
 20
4.50591
 11
-210.562
 21
4.55313
  0
LINE
  8
0
 10
-210.562
 20
4.55313
 11
-210.927
 21
4.64682
  0
LINE
  8
0
 10
-210.927
 20
4.64682
 11
-211.277
 21
4.78551
  0
LINE
  8
0
 10
-211.277
 20
4.78551
 11
-211.607
 21
4.96701
  0
LINE
  8
0
 10
-211.607
 20
4.96701
 11
-211.912
 21
5.18845
  0
LINE
  8
0
 10
-211.912
 20
5.18845
 11
-212.187
 21
5.44635
  0
LINE
  8
0
 10
-212.187
 20
5.44635
 11
-212.427
 21
5.73663
  0
LINE
  8
0
 10
-212.427
 20
5.73663
 11
-212.629
 21
6.05473
  0
LINE
  8
0
 10
-212.629
 20
6.05473
 11
-212.789
 21
6.39561
  0
LINE
  8
0
 10
-212.789
 20
6.39561
 11
-212.906
 21
6.75392
  0
LINE
  8
0
 10
-212.906
 20
6.75392
 11
-212.976
 21
7.12399
  0
LINE
  8
0
 10
-212.976
 20
7.12399
 11
-213
 21
7.5
  0
LINE
  8
0
 10
-213
 20
7.5
 11
-212.976
 21
7.87599
  0
LINE
  8
0
 10
-212.976
 20
7.87599
 11
-212.906
 21
8.24606
  0
LINE
  8
0
 10
-212.906
 20
8.24606
 11
-212.789
 21
8.60437
  0
LINE
  8
0
 10
-212.789
 20
8.60437
 11
-212.629
 21
8.94525
  0
LINE
  8
0
 10
-212.629
 20
8.94525
 11
-212.427
 21
9.26335
  0
LINE
  8
0
 10
-212.427
 20
9.26335
 11
-212.187
 21
9.55363
  0
LINE
  8
0
 10
-212.187
 20
9.55363
 11
-211.912
 21
9.81154
  0
LINE
  8
0
 10
-211.912
 20
9.81154
 11
-211.607
 21
10.033
  0
LINE
  8
0
 10
-211.607
 20
10.033
 11
-211.277
 21
10.2145
  0
LINE
  8
0
 10
-211.277
 20
10.2145
 11
-210.927
 21
10.3532
  0
LINE
  8
0
 10
-210.927
 20
10.3532
 11
-210.562
 21
10.4469
  0
LINE
  8
0
 10
-210.562
 20
10.4469
 11
-210.188
 21
10.4941
  0
LINE
  8
0
 10
-210.188
 20
10.4941
 11
-209.812
 21
10.4941
  0
LINE
  8
0
 10
-209.812
 20
10.4941
 11
-209.438
 21
10.4469
  0
LINE
  8
0
 10
-209.438
 20
10.4469
 11
-209.073
 21
10.3532
  0
LINE
  8
0
 10
-209.073
 20
10.3532
 11
-208.723
 21
10.2145
  0
LINE
  8
0
 10
-208.723
 20
10.2145
 11
-208.393
 21
10.033
  0
LINE
  8
0
 10
-208.393
 20
10.033
 11
-208.088
 21
9.81154
  0
LINE
  8
0
 10
-208.088
 20
9.81154
 11
-207.813
 21
9.55363
  0
LINE
  8
0
 10
-207.813
 20
9.55363
 11
-207.573
 21
9.26335
  0
LINE
  8
0
 10
-207.573
 20
9.26335
 11
-207.371
 21
8.94525
  0
LINE
  8
0
 10
-207.371
 20
8.94525
 11
-207.211
 21
8.60437
  0
LINE
  8
0
 10
-207.211
 20
8.60437
 11
-207.094
 21
8.24606
  0
LINE
  8
0
 10
-207.094
 20
8.24606
 11
-207.024
 21
7.87599
  0
LINE
  8
0
 10
-207.024
 20
7.87599
 11
-207
 21
7.5
  0
LINE
  8
0
 10
-207
 20
7.5
 11
-207.024
 21
7.12399
  0
LINE
  8
0
 10
-207.024
 20
7.12399
 11
-207.094
 21
6.75392
  0
LINE
  8
0
 10
-207.094
 20
6.75392
 11
-207.211
 21
6.39561
  0
LINE
  8
0
 10
-207.211
 20
6.39561
 11
-207.371
 21
6.05473
  0
LINE
  8
0
 10
-207.371
 20
6.05473
 11
-207.573
 21
5.73663
  0
LINE
  8
0
 10
-207.573
 20
5.73663
 11
-207.813
 21
5.44635
  0
LINE
  8
0
 10
-207.813
 20
5.44635
 11
-208.088
 21
5.18845
  0
LINE
  8
0
 10
-208.088
 20
5.18845
 11
-208.393
 21
4.96701
  0
LINE
  8
0
 10
-208.393
 20
4.96701
 11
-208.723
 21
4.78551
  0
LINE
  8
0
 10
-208.723
 20
4.78551
 11
-209.073
 21
4.64682
  0
LINE
  8
0
 10
-209.073
 20
4.64682
 11
-209.438
 21
4.55313
  0
LINE
  8
0
 10
-209.438
 20
4.55313
 11
-209.812
 21
4.50591
  0
LINE
  8
0
 10
-209.812
 20
4.50591
 11
-210.188
 21
4.50591
  0
LINE
  8
0
 10
-210.094
 20
-1.49704
 11
-210.281
 21
-1.47342
  0
LINE
  8
0
 10
-210.281
 20
-1.47342
 11
-210.464
 21
-1.42657
  0
LINE
  8
0
 10
-210.464
 20
-1.42657
 11
-210.639
 21
-1.35724
  0
LINE
  8
0
 10
-210.639
 20
-1.35724
 11
-210.804
 21
-1.26648
  0
LINE
  8
0
 10
-210.804
 20
-1.26648
 11
-210.956
 21
-1.15576
  0
LINE
  8
0
 10
-210.956
 20
-1.15576
 11
-211.093
 21
-1.02681
  0
LINE
  8
0
 10
-211.093
 20
-1.02681
 11
-211.214
 21
-0.881668
  0
LINE
  8
0
 10
-211.214
 20
-0.881668
 11
-211.314
 21
-0.722626
  0
LINE
  8
0
 10
-211.314
 20
-0.722626
 11
-211.395
 21
-0.552185
  0
LINE
  8
0
 10
-211.395
 20
-0.552185
 11
-211.453
 21
-0.373032
  0
LINE
  8
0
 10
-211.453
 20
-0.373032
 11
-211.488
 21
-0.187988
  0
LINE
  8
0
 10
-211.488
 20
-0.187988
 11
-211.5
 21
0
  0
LINE
  8
0
 10
-211.5
 20
0
 11
-211.488
 21
0.187988
  0
LINE
  8
0
 10
-211.488
 20
0.187988
 11
-211.453
 21
0.373032
  0
LINE
  8
0
 10
-211.453
 20
0.373032
 11
-211.395
 21
0.552185
  0
LINE
  8
0
 10
-211.395
 20
0.552185
 11
-211.314
 21
0.722626
  0
LINE
  8
0
 10
-211.314
 20
0.722626
 11
-211.214
 21
0.881668
  0
LINE
  8
0
 10
-211.214
 20
0.881668
 11
-211.093
 21
1.02681
  0
LINE
  8
0
 10
-211.093
 20
1.02681
 11
-210.956
 21
1.15576
  0
LINE
  8
0
 10
-210.956
 20
1.15576
 11
-210.804
 21
1.26648
  0
LINE
  8
0
 10
-210.804
 20
1.26648
 11
-210.639
 21
1.35724
  0
LINE
  8
0
 10
-210.639
 20
1.35724
 11
-210.464
 21
1.42657
  0
LINE
  8
0
 10
-210.464
 20
1.42657
 11
-210.281
 21
1.47342
  0
LINE
  8
0
 10
-210.281
 20
1.47342
 11
-210.094
 21
1.49704
  0
LINE
  8
0
 10
-210.094
 20
1.49704
 11
-209.906
 21
1.49704
  0
LINE
  8
0
 10
-209.906
 20
1.49704
 11
-209.719
 21
1.47342
  0
LINE
  8
0
 10
-209.719
 20
1.47342
 11
-209.536
 21
1.42657
  0
LINE
  8
0
 10
-209.536
 20
1.42657
 11
-209.361
 21
1.35724
  0
LINE
  8
0
 10
-209.361
 20
1.35724
 11
-209.196
 21
1.26648
  0
LINE
  8
0
 10
-209.196
 20
1.26648
 11
-209.044
 21
1.15576
  0
LINE
  8
0
 10
-209.044
 20
1.15576
 11
-208.907
 21
1.02681
  0
LINE
  8
0
 10
-208.907
 20
1.02681
 11
-208.786
 21
0.881668
  0
LINE
  8
0
 10
-208.786
 20
0.881668
 11
-208.686
 21
0.722626
  0
LINE
  8
0
 10
-208.686
 20
0.722626
 11
-208.605
 21
0.552185
  0
LINE
  8
0
 10
-208.605
 20
0.552185
 11
-208.547
 21
0.373032
  0
LINE
  8
0
 10
-208.547
 20
0.373032
 11
-208.512
 21
0.187988
  0
LINE
  8
0
 10
-208.512
 20
0.187988
 11
-208.5
 21
0
  0
LINE
  8
0
 10
-208.5
 20
0
 11
-208.512
 21
-0.187988
  0
LINE
  8
0
 10
-208.512
 20
-0.187988
 11
-208.547
 21
-0.373032
  0
LINE
  8
0
 10
-208.547
 20
-0.373032
 11
-208.605
 21
-0.552185
  0
LINE
  8
0
 10
-208.605
 20
-0.552185
 11
-208.686
 21
-0.722626
  0
LINE
  8
0
 10
-208.686
 20
-0.722626
 11
-208.786
 21
-0.881668
  0
LINE
  8
0
 10
-208.786
 20
-0.881668
 11
-208.907
 21
-1.02681
  0
LINE
  8
0
 10
-208.907
 20
-1.02681
 11
-209.044
 21
-1.15576
  0
LINE
  8
0
 10
-209.044
 20
-1.15576
 11
-209.196
 21
-1.26648
  0
LINE
  8
0
 10
-209.196
 20
-1.26648
 11
-209.361
 21
-1.35724
  0
LINE
  8
0
 10
-209.361
 20
-1.35724
 11
-209.536
 21
-1.42657
  0
LINE
  8
0
 10
-209.536
 20
-1.42657
 11
-209.719
 21
-1.47342
  0
LINE
  8
0
 10
-209.719
 20
-1.47342
 11
-209.906
 21
-1.49704
  0
LINE
  8
0
 10
-209.906
 20
-1.49704
 11
-210.094
 21
-1.49704
  0
LINE
  8
0
 10
209.906
 20
-1.49704
 11
209.719
 21
-1.47342
  0
LINE
  8
0
 10
209.719
 20
-1.47342
 11
209.536
 21
-1.42657
  0
LINE
  8
0
 10
209.536
 20
-1.42657
 11
209.361
 21
-1.35724
  0
LINE
  8
0
 10
209.361
 20
-1.35724
 11
209.196
 21
-1.26648
  0
LINE
  8
0
 10
209.196
 20
-1.26648
 11
209.044
 21
-1.15576
  0
LINE
  8
0
 10
209.044
 20
-1.15576
 11
208.907
 21
-1.02681
  0
LINE
  8
0
 10
208.907
 20
-1.02681
 11
208.786
 21
-0.881668
  0
LINE
  8
0
 10
208.786
 20
-0.881668
 11
208.686
 21
-0.722626
  0
LINE
  8
0
 10
208.686
 20
-0.722626
 11
208.605
 21
-0.552185
  0
LINE
  8
0
 10
208.605
 20
-0.552185
 11
208.547
 21
-0.373032
  0
LINE
  8
0
 10
208.547
 20
-0.373032
 11
208.512
 21
-0.187988
  0
LINE
  8
0
 10
208.512
 20
-0.187988
 11
208.5
 21
0
  0
LINE
  8
0
 10
208.5
 20
0
 11
208.512
 21
0.187988
  0
LINE
  8
0
 10
208.512
 20
0.187988
 11
208.547
 21
0.373032
  0
LINE
  8
0
 10
208.547
 20
0.373032
 11
208.605
 21
0.552185
  0
LINE
  8
0
 10
208.605
 20
0.552185
 11
208.686
 21
0.722626
  0
LINE
  8
0
 10
208.686
 20
0.722626
 11
208.786
 21
0.881668
  0
LINE
  8
0
 10
208.786
 20
0.881668
 11
208.907
 21
1.02681
  0
LINE
  8
0
 10
208.907
 20
1.02681
 11
209.044
 21
1.15576
  0
LINE
  8
0
 10
209.044
 20
1.15576
 11
209.196
 21
1.26648
  0
LINE
  8
0
 10
209.196
 20
1.26648
 11
209.361
 21
1.35724
  0
LINE
  8
0
 10
209.361
 20
1.35724
 11
209.536
 21
1.42657
  0
LINE
  8
0
 10
209.536
 20
1.42657
 11
209.719
 21
1.47342
  0
LINE
  8
0
 10
209.719
 20
1.47342
 11
209.906
 21
1.49704
  0
LINE
  8
0
 10
209.906
 20
1.49704
 11
210.094
 21
1.49704
  0
LINE
  8
0
 10
210.094
 20
1.49704
 11
210.281
 21
1.47342
  0
LINE
  8
0
 10
210.281
 20
1.47342
 11
210.464
 21
1.42657
  0
LINE
  8
0
 10
210.464
 20
1.42657
 11
210.639
 21
1.35724
  0
LINE
  8
0
 10
210.639
 20
1.35724
 11
210.804
 21
1.26648
  0
LINE
  8
0
 10
210.804
 20
1.26648
 11
210.956
 21
1.15576
  0
LINE
  8
0
 10
210.956
 20
1.15576
 11
211.093
 21
1.02681
  0
LINE
  8
0
 10
211.093
 20
1.02681
 11
211.214
 21
0.881668
  0
LINE
  8
0
 10
211.214
 20
0.881668
 11
211.314
 21
0.722626
  0
LINE
  8
0
 10
211.314
 20
0.722626
 11
211.395
 21
0.552185
  0
LINE
  8
0
 10
211.395
 20
0.552185
 11
211.453
 21
0.373032
  0
LINE
  8
0
 10
211.453
 20
0.373032
 11
211.488
 21
0.187988
  0
LINE
  8
0
 10
211.488
 20
0.187988
 11
211.5
 21
0
  0
LINE
  8
0
 10
211.5
 20
0
 11
211.488
 21
-0.187988
  0
LINE
  8
0
 10
211.488
 20
-0.187988
 11
211.453
 21
-0.373032
  0
LINE
  8
0
 10
211.453
 20
-0.373032
 11
211.395
 21
-0.552185
  0
LINE
  8
0
 10
211.395
 20
-0.552185
 11
211.314
 21
-0.722626
  0
LINE
  8
0
 10
211.314
 20
-0.722626
 11
211.214
 21
-0.881668
  0
LINE
  8
0
 10
211.214
 20
-0.881668
 11
211.093
 21
-1.02681
  0
LINE
  8
0
 10
211.093
 20
-1.02681
 11
210.956
 21
-1.15576
  0
LINE
  8
0
 10
210.956
 20
-1.15576
 11
210.804
 21
-1.26648
  0
LINE
  8
0
 10
210.804
 20
-1.26648
 11
210.639
 21
-1.35724
  0
LINE
  8
0
 10
210.639
 20
-1.35724
 11
210.464
 21
-1.42657
  0
LINE
  8
0
 10
210.464
 20
-1.42657
 11
210.281
 21
-1.47342
  0
LINE
  8
0
 10
210.281
 20
-1.47342
 11
210.094
 21
-1.49704
  0
LINE
  8
0
 10
210.094
 20
-1.49704
 11
209.906
 21
-1.49704
  0
LINE
  8
0
 10
209.812
 20
-10.4941
 11
209.438
 21
-10.4469
  0
LINE
  8
0
 10
209.438
 20
-10.4469
 11
209.073
 21
-10.3532
  0
LINE
  8
0
 10
209.073
 20
-10.3532
 11
208.723
 21
-10.2145
  0
LINE
  8
0
 10
208.723
 20
-10.2145
 11
208.393
 21
-10.033
  0
LINE
  8
0
 10
208.393
 20
-10.033
 11
208.088
 21
-9.81154
  0
LINE
  8
0
 10
208.088
 20
-9.81154
 11
207.813
 21
-9.55363
  0
LINE
  8
0
 10
207.813
 20
-9.55363
 11
207.573
 21
-9.26335
  0
LINE
  8
0
 10
207.573
 20
-9.26335
 11
207.371
 21
-8.94525
  0
LINE
  8
0
 10
207.371
 20
-8.94525
 11
207.211
 21
-8.60437
  0
LINE
  8
0
 10
207.211
 20
-8.60437
 11
207.094
 21
-8.24606
  0
LINE
  8
0
 10
207.094
 20
-8.24606
 11
207.024
 21
-7.87599
  0
LINE
  8
0
 10
207.024
 20
-7.87599
 11
207
 21
-7.5
  0
LINE
  8
0
 10
207
 20
-7.5
 11
207.024
 21
-7.12399
  0
LINE
  8
0
 10
207.024
 20
-7.12399
 11
207.094
 21
-6.75392
  0
LINE
  8
0
 10
207.094
 20
-6.75392
 11
207.211
 21
-6.39561
  0
LINE
  8
0
 10
207.211
 20
-6.39561
 11
207.371
 21
-6.05473
  0
LINE
  8
0
 10
207.371
 20
-6.05473
 11
207.573
 21
-5.73663
  0
LINE
  8
0
 10
207.573
 20
-5.73663
 11
207.813
 21
-5.44635
  0
LINE
  8
0
 10
207.813
 20
-5.44635
 11
208.088
 21
-5.18845
  0
LINE
  8
0
 10
208.088
 20
-5.18845
 11
208.393
 21
-4.96701
  0
LINE
  8
0
 10
208.393
 20
-4.96701
 11
208.723
 21
-4.78551
  0
LINE
  8
0
 10
208.723
 20
-4.78551
 11
209.073
 21
-4.64682
  0
LINE
  8
0
 10
209.073
 20
-4.64682
 11
209.438
 21
-4.55313
  0
LINE
  8
0
 10
209.438
 20
-4.55313
 11
209.812
 21
-4.50591
  0
LINE
  8
0
 10
209.812
 20
-4.50591
 11
210.188
 21
-4.50591
  0
LINE
  8
0
 10
210.188
 20
-4.50591
 11
210.562
 21
-4.55313
  0
LINE
  8
0
 10
210.562
 20
-4.55313
 11
210.927
 21
-4.64682
  0
LINE
  8
0
 10
210.927
 20
-4.64682
 11
211.277
 21
-4.78551
  0
LINE
  8
0
 10
211.277
 20
-4.78551
 11
211.607
 21
-4.96701
  0
LINE
  8
0
 10
211.607
 20
-4.96701
 11
211.912
 21
-5.18845
  0
LINE
  8
0
 10
211.912
 20
-5.18845
 11
212.187
 21
-5.44635
  0
LINE
  8
0
 10
212.187
 20
-5.44635
 11
212.427
 21
-5.73663
  0
LINE
  8
0
 10
212.427
 20
-5.73663
 11
212.629
 21
-6.05473
  0
LINE
  8
0
 10
212.629
 20
-6.05473
 11
212.789
 21
-6.39561
  0
LINE
  8
0
 10
212.789
 20
-6.39561
 11
212.906
 21
-6.75392
  0
LINE
  8
0
 10
212.906
 20
-6.75392
 11
212.976
 21
-7.12399
  0
LINE
  8
0
 10
212.976
 20
-7.12399
 11
213
 21
-7.5
  0
LINE
  8
0
 10
213
 20
-7.5
 11
212.976
 21
-7.87599
  0
LINE
  8
0
 10
212.976
 20
-7.87599
 11
212.906
 21
-8.24606
  0
LINE
  8
0
 10
212.906
 20
-8.24606
 11
212.789
 21
-8.60437
  0
LINE
  8
0
 10
212.789
 20
-8.60437
 11
212.629
 21
-8.94525
  0
LINE
  8
0
 10
212.629
 20
-8.94525
 11
212.427
 21
-9.26335
  0
LINE
  8
0
 10
212.427
 20
-9.26335
 11
212.187
 21
-9.55363
  0
LINE
  8
0
 10
212.187
 20
-9.55363
 11
211.912
 21
-9.81154
  0
LINE
  8
0
 10
211.912
 20
-9.81154
 11
211.607
 21
-10.033
  0
LINE
  8
0
 10
211.607
 20
-10.033
 11
211.277
 21
-10.2145
  0
LINE
  8
0
 10
211.277
 20
-10.2145
 11
210.927
 21
-10.3532
  0
LINE
  8
0
 10
210.927
 20
-10.3532
 11
210.562
 21
-10.4469
  0
LINE
  8
0
 10
210.562
 20
-10.4469
 11
210.188
 21
-10.4941
  0
LINE
  8
0
 10
210.188
 20
-10.4941
 11
209.812
 21
-10.4941
  0
LINE
  8
0
 10
-210.188
 20
-10.4941
 11
-210.562
 21
-10.4469
  0
LINE
  8
0
 10
-210.562
 20
-10.4469
 11
-210.927
 21
-10.3532
  0
LINE
  8
0
 10
-210.927
 20
-10.3532
 11
-211.277
 21
-10.2145
  0
LINE
  8
0
 10
-211.277
 20
-10.2145
 11
-211.607
 21
-10.033
  0
LINE
  8
0
 10
-211.607
 20
-10.033
 11
-211.912
 21
-9.81154
  0
LINE
  8
0
 10
-211.912
 20
-9.81154
 11
-212.187
 21
-9.55363
  0
LINE
  8
0
 10
-212.187
 20
-9.55363
 11
-212.427
 21
-9.26335
  0
LINE
  8
0
 10
-212.427
 20
-9.26335
 11
-212.629
 21
-8.94525
  0
LINE
  8
0
 10
-212.629
 20
-8.94525
 11
-212.789
 21
-8.60437
  0
LINE
  8
0
 10
-212.789
 20
-8.60437
 11
-212.906
 21
-8.24606
  0
LINE
  8
0
 10
-212.906
 20
-8.24606
 11
-212.976
 21
-7.87599
  0
LINE
  8
0
 10
-212.976
 20
-7.87599
 11
-213
 21
-7.5
  0
LINE
  8
0
 10
-213
 20
-7.5
 11
-212.976
 21
-7.12399
  0
LINE
  8
0
 10
-212.976
 20
-7.12399
 11
-212.906
 21
-6.75392
  0
LINE
  8
0
 10
-212.906
 20
-6.75392
 11
-212.789
 21
-6.39561
  0
LINE
  8
0
 10
-212.789
 20
-6.39561
 11
-212.629
 21
-6.05473
  0
LINE
  8
0
 10
-212.629
 20
-6.05473
 11
-212.427
 21
-5.73663
  0
LINE
  8
0
 10
-212.427
 20
-5.73663
 11
-212.187
 21
-5.44635
  0
LINE
  8
0
 10
-212.187
 20
-5.44635
 11
-211.912
 21
-5.18845
  0
LINE
  8
0
 10
-211.912
 20
-5.18845
 11
-211.607
 21
-4.96701
  0
LINE
  8
0
 10
-211.607
 20
-4.96701
 11
-211.277
 21
-4.78551
  0
LINE
  8
0
 10
-211.277
 20
-4.78551
 11
-210.927
 21
-4.64682
  0
LINE
  8
0
 10
-210.927
 20
-4.64682
 11
-210.562
 21
-4.55313
  0
LINE
  8
0
 10
-210.562
 20
-4.55313
 11
-210.188
 21
-4.50591
  0
LINE
  8
0
 10
-210.188
 20
-4.50591
 11
-209.812
 21
-4.50591
  0
LINE
  8
0
 10
-209.812
 20
-4.50591
 11
-209.438
 21
-4.55313
  0
LINE
  8
0
 10
-209.438
 20
-4.55313
 11
-209.073
 21
-4.64682
  0
LINE
  8
0
 10
-209.073
 20
-4.64682
 11
-208.723
 21
-4.78551
  0
LINE
  8
0
 10
-208.723
 20
-4.78551
 11
-208.393
 21
-4.96701
  0
LINE
  8
0
 10
-208.393
 20
-4.96701
 11
-208.088
 21
-5.18845
  0
LINE
  8
0
 10
-208.088
 20
-5.18845
 11
-207.813
 21
-5.44635
  0
LINE
  8
0
 10
-207.813
 20
-5.44635
 11
-207.573
 21
-5.73663
  0
LINE
  8
0
 10
-207.573
 20
-5.73663
 11
-207.371
 21
-6.05473
  0
LINE
  8
0
 10
-207.371
 20
-6.05473
 11
-207.211
 21
-6.39561
  0
LINE
  8
0
 10
-207.211
 20
-6.39561
 11
-207.094
 21
-6.75392
  0
LINE
  8
0
 10
-207.094
 20
-6.75392
 11
-207.024
 21
-7.12399
  0
LINE
  8
0
 10
-207.024
 20
-7.12399
 11
-207
 21
-7.5
  0
LINE
  8
0
 10
-207
 20
-7.5
 11
-207.024
 21
-7.87599
  0
LINE
  8
0
 10
-207.024
 20
-7.87599
 11
-207.094
 21
-8.24606
  0
LINE
  8
0
 10
-207.094
 20
-8.24606
 11
-207.211
 21
-8.60437
  0
LINE
  8
0
 10
-207.211
 20
-8.60437
 11
-207.371
 21
-8.94525
  0
LINE
  8
0
 10
-207.371
 20
-8.94525
 11
-207.573
 21
-9.26335
  0
LINE
  8
0
 10
-207.573
 20
-9.26335
 11
-207.813
 21
-9.55363
  0
LINE
  8
0
 10
-207.813
 20
-9.55363
 11
-208.088
 21
-9.81154
  0
LINE
  8
0
 10
-208.088
 20
-9.81154
 11
-208.393
 21
-10.033
  0
LINE
  8
0
 10
-208.393
 20
-10.033
 11
-208.723
 21
-10.2145
  0
LINE
  8
0
 10
-208.723
 20
-10.2145
 11
-209.073
 21
-10.3532
  0
LINE
  8
0
 10
-209.073
 20
-10.3532
 11
-209.438
 21
-10.4469
  0
LINE
  8
0
 10
-209.438
 20
-10.4469
 11
-209.812
 21
-10.4941
  0
LINE
  8
0
 10
-209.812
 20
-10.4941
 11
-210.188
 21
-10.4941
  0
LINE
  8
0
 10
-210.094
 20
-16.497
 11
-210.281
 21
-16.4734
  0
LINE
  8
0
 10
-210.281
 20
-16.4734
 11
-210.464
 21
-16.4266
  0
LINE
  8
0
 10
-210.464
 20
-16.4266
 11
-210.639
 21
-16.3572
  0
LINE
  8
0
 10
-210.639
 20
-16.3572
 11
-210.804
 21
-16.2665
  0
LINE
  8
0
 10
-210.804
 20
-16.2665
 11
-210.956
 21
-16.1558
  0
LINE
  8
0
 10
-210.956
 20
-16.1558
 11
-211.093
 21
-16.0268
  0
LINE
  8
0
 10
-211.093
 20
-16.0268
 11
-211.214
 21
-15.8817
  0
LINE
  8
0
 10
-211.214
 20
-15.8817
 11
-211.314
 21
-15.7226
  0
LINE
  8
0
 10
-211.314
 20
-15.7226
 11
-211.395
 21
-15.5522
  0
LINE
  8
0
 10
-211.395
 20
-15.5522
 11
-211.453
 21
-15.373
  0
LINE
  8
0
 10
-211.453
 20
-15.373
 11
-211.488
 21
-15.188
  0
LINE
  8
0
 10
-211.488
 20
-15.188
 11
-211.5
 21
-15
  0
LINE
  8
0
 10
-211.5
 20
-15
 11
-211.488
 21
-14.812
  0
LINE
  8
0
 10
-211.488
 20
-14.812
 11
-211.453
 21
-14.627
  0
LINE
  8
0
 10
-211.453
 20
-14.627
 11
-211.395
 21
-14.4478
  0
LINE
  8
0
 10
-211.395
 20
-14.4478
 11
-211.314
 21
-14.2774
  0
LINE
  8
0
 10
-211.314
 20
-14.2774
 11
-211.214
 21
-14.1183
  0
LINE
  8
0
 10
-211.214
 20
-14.1183
 11
-211.093
 21
-13.9732
  0
LINE
  8
0
 10
-211.093
 20
-13.9732
 11
-210.956
 21
-13.8442
  0
LINE
  8
0
 10
-210.956
 20
-13.8442
 11
-210.804
 21
-13.7335
  0
LINE
  8
0
 10
-210.804
 20
-13.7335
 11
-210.639
 21
-13.6427
  0
LINE
  8
0
 10
-210.639
 20
-13.6427
 11
-210.464
 21
-13.5734
  0
LINE
  8
0
 10
-210.464
 20
-13.5734
 11
-210.281
 21
-13.5266
  0
LINE
  8
0
 10
-210.281
 20
-13.5266
 11
-210.094
 21
-13.5029
  0
LINE
  8
0
 10
-210.094
 20
-13.5029
 11
-209.906
 21
-13.5029
  0
LINE
  8
0
 10
-209.906
 20
-13.5029
 11
-209.719
 21
-13.5266
  0
LINE
  8
0
 10
-209.719
 20
-13.5266
 11
-209.536
 21
-13.5734
  0
LINE
  8
0
 10
-209.536
 20
-13.5734
 11
-209.361
 21
-13.6427
  0
LINE
  8
0
 10
-209.361
 20
-13.6427
 11
-209.196
 21
-13.7335
  0
LINE
  8
0
 10
-209.196
 20
-13.7335
 11
-209.044
 21
-13.8442
  0
LINE
  8
0
 10
-209.044
 20
-13.8442
 11
-208.907
 21
-13.9732
  0
LINE
  8
0
 10
-208.907
 20
-13.9732
 11
-208.786
 21
-14.1183
  0
LINE
  8
0
 10
-208.786
 20
-14.1183
 11
-208.686
 21
-14.2774
  0
LINE
  8
0
 10
-208.686
 20
-14.2774
 11
-208.605
 21
-14.4478
  0
LINE
  8
0
 10
-208.605
 20
-14.4478
 11
-208.547
 21
-14.627
  0
LINE
  8
0
 10
-208.547
 20
-14.627
 11
-208.512
 21
-14.812
  0
LINE
  8
0
 10
-208.512
 20
-14.812
 11
-208.5
 21
-15
  0
LINE
  8
0
 10
-208.5
 20
-15
 11
-208.512
 21
-15.188
  0
LINE
  8
0
 10
-208.512
 20
-15.188
 11
-208.547
 21
-15.373
  0
LINE
  8
0
 10
-208.547
 20
-15.373
 11
-208.605
 21
-15.5522
  0
LINE
  8
0
 10
-208.605
 20
-15.5522
 11
-208.686
 21
-15.7226
  0
LINE
  8
0
 10
-208.686
 20
-15.7226
 11
-208.786
 21
-15.8817
  0
LINE
  8
0
 10
-208.786
 20
-15.8817
 11
-208.907
 21
-16.0268
  0
LINE
  8
0
 10
-208.907
 20
-16.0268
 11
-209.044
 21
-16.1558
  0
LINE
  8
0
 10
-209.044
 20
-16.1558
 11
-209.196
 21
-16.2665
  0
LINE
  8
0
 10
-209.196
 20
-16.2665
 11
-209.361
 21
-16.3572
  0
LINE
  8
0
 10
-209.361
 20
-16.3572
 11
-209.536
 21
-16.4266
  0
LINE
  8
0
 10
-209.536
 20
-16.4266
 11
-209.719
 21
-16.4734
  0
LINE
  8
0
 10
-209.719
 20
-16.4734
 11
-209.906
 21
-16.497
  0
LINE
  8
0
 10
-209.906
 20
-16.497
 11
-210.094
 21
-16.497
  0
LINE
  8
0
 10
209.906
 20
-16.497
 11
209.719
 21
-16.4734
  0
LINE
  8
0
 10
209.719
 20
-16.4734
 11
209.536
 21
-16.4266
  0
LINE
  8
0
 10
209.536
 20
-16.4266
 11
209.361
 21
-16.3572
  0
LINE
  8
0
 10
209.361
 20
-16.3572
 11
209.196
 21
-16.2665
  0
LINE
  8
0
 10
209.196
 20
-16.2665
 11
209.044
 21
-16.1558
  0
LINE
  8
0
 10
209.044
 20
-16.1558
 11
208.907
 21
-16.0268
  0
LINE
  8
0
 10
208.907
 20
-16.0268
 11
208.786
 21
-15.8817
  0
LINE
  8
0
 10
208.786
 20
-15.8817
 11
208.686
 21
-15.7226
  0
LINE
  8
0
 10
208.686
 20
-15.7226
 11
208.605
 21
-15.5522
  0
LINE
  8
0
 10
208.605
 20
-15.5522
 11
208.547
 21
-15.373
  0
LINE
  8
0
 10
208.547
 20
-15.373
 11
208.512
 21
-15.188
  0
LINE
  8
0
 10
208.512
 20
-15.188
 11
208.5
 21
-15
  0
LINE
  8
0
 10
208.5
 20
-15
 11
208.512
 21
-14.812
  0
LINE
  8
0
 10
208.512
 20
-14.812
 11
208.547
 21
-14.627
  0
LINE
  8
0
 10
208.547
 20
-14.627
 11
208.605
 21
-14.4478
  0
LINE
  8
0
 10
208.605
 20
-14.4478
 11
208.686
 21
-14.2774
  0
LINE
  8
0
 10
208.686
 20
-14.2774
 11
208.786
 21
-14.1183
  0
LINE
  8
0
 10
208.786
 20
-14.1183
 11
208.907
 21
-13.9732
  0
LINE
  8
0
 10
208.907
 20
-13.9732
 11
209.044
 21
-13.8442
  0
LINE
  8
0
 10
209.044
 20
-13.8442
 11
209.196
 21
-13.7335
  0
LINE
  8
0
 10
209.196
 20
-13.7335
 11
209.361
 21
-13.6427
  0
LINE
  8
0
 10
209.361
 20
-13.6427
 11
209.536
 21
-13.5734
  0
LINE
  8
0
 10
209.536
 20
-13.5734
 11
209.719
 21
-13.5266
  0
LINE
  8
0
 10
209.719
 20
-13.5266
 11
209.906
 21
-13.5029
  0
LINE
  8
0
 10
209.906
 20
-13.5029
 11
210.094
 21
-13.5029
  0
LINE
  8
0
 10
210.094
 20
-13.5029
 11
210.281
 21
-13.5266
  0
LINE
  8
0
 10
210.281
 20
-13.5266
 11
210.464
 21
-13.5734
  0
LINE
  8
0
 10
210.464
 20
-13.5734
 11
210.639
 21
-13.6427
  0
LINE
  8
0
 10
210.639
 20
-13.6427
 11
210.804
 21
-13.7335
  0
LINE
  8
0
 10
210.804
 20
-13.7335
 11
210.956
 21
-13.8442
  0
LINE
  8
0
 10
210.956
 20
-13.8442
 11
211.093
 21
-13.9732
  0
LINE
  8
0
 10
211.093
 20
-13.9732
 11
211.214
 21
-14.1183
  0
LINE
  8
0
 10
211.214
 20
-14.1183
 11
211.314
 21
-14.2774
  0
LINE
  8
0
 10
211.314
 20
-14.2774
 11
211.395
 21
-14.4478
  0
LINE
  8
0
 10
211.395
 20
-14.4478
 11
211.453
 21
-14.627
  0
LINE
  8
0
 10
211.453
 20
-14.627
 11
211.488
 21
-14.812
  0
LINE
  8
0
 10
211.488
 20
-14.812
 11
211.5
 21
-15
  0
LINE
  8
0
 10
211.5
 20
-15
 11
211.488
 21
-15.188
  0
LINE
  8
0
 10
211.488
 20
-15.188
 11
211.453
 21
-15.373
  0
LINE
  8
0
 10
211.453
 20
-15.373
 11
211.395
 21
-15.5522
  0
LINE
  8
0
 10
211.395
 20
-15.5522
 11
211.314
 21
-15.7226
  0
LINE
  8
0
 10
211.314
 20
-15.7226
 11
211.214
 21
-15.8817
  0
LINE
  8
0
 10
211.214
 20
-15.8817
 11
211.093
 21
-16.0268
  0
LINE
  8
0
 10
211.093
 20
-16.0268
 11
210.956
 21
-16.1558
  0
LINE
  8
0
 10
210.956
 20
-16.1558
 11
210.804
 21
-16.2665
  0
LINE
  8
0
 10
210.804
 20
-16.2665
 11
210.639
 21
-16.3572
  0
LINE
  8
0
 10
210.639
 20
-16.3572
 11
210.464
 21
-16.4266
  0
LINE
  8
0
 10
210.464
 20
-16.4266
 11
210.281
 21
-16.4734
  0
LINE
  8
0
 10
210.281
 20
-16.4734
 11
210.094
 21
-16.497
  0
LINE
  8
0
 10
210.094
 20
-16.497
 11
209.906
 21
-16.497
  0
LINE
  8
0
 10
209.812
 20
-25.4941
 11
209.438
 21
-25.4469
  0
LINE
  8
0
 10
209.438
 20
-25.4469
 11
209.073
 21
-25.3532
  0
LINE
  8
0
 10
209.073
 20
-25.3532
 11
208.723
 21
-25.2145
  0
LINE
  8
0
 10
208.723
 20
-25.2145
 11
208.393
 21
-25.033
  0
LINE
  8
0
 10
208.393
 20
-25.033
 11
208.088
 21
-24.8115
  0
LINE
  8
0
 10
208.088
 20
-24.8115
 11
207.813
 21
-24.5536
  0
LINE
  8
0
 10
207.813
 20
-24.5536
 11
207.573
 21
-24.2634
  0
LINE
  8
0
 10
207.573
 20
-24.2634
 11
207.371
 21
-23.9453
  0
LINE
  8
0
 10
207.371
 20
-23.9453
 11
207.211
 21
-23.6044
  0
LINE
  8
0
 10
207.211
 20
-23.6044
 11
207.094
 21
-23.2461
  0
LINE
  8
0
 10
207.094
 20
-23.2461
 11
207.024
 21
-22.876
  0
LINE
  8
0
 10
207.024
 20
-22.876
 11
207
 21
-22.5
  0
LINE
  8
0
 10
207
 20
-22.5
 11
207.024
 21
-22.124
  0
LINE
  8
0
 10
207.024
 20
-22.124
 11
207.094
 21
-21.7539
  0
LINE
  8
0
 10
207.094
 20
-21.7539
 11
207.211
 21
-21.3956
  0
LINE
  8
0
 10
207.211
 20
-21.3956
 11
207.371
 21
-21.0547
  0
LINE
  8
0
 10
207.371
 20
-21.0547
 11
207.573
 21
-20.7366
  0
LINE
  8
0
 10
207.573
 20
-20.7366
 11
207.813
 21
-20.4464
  0
LINE
  8
0
 10
207.813
 20
-20.4464
 11
208.088
 21
-20.1884
  0
LINE
  8
0
 10
208.088
 20
-20.1884
 11
208.393
 21
-19.967
  0
LINE
  8
0
 10
208.393
 20
-19.967
 11
208.723
 21
-19.7855
  0
LINE
  8
0
 10
208.723
 20
-19.7855
 11
209.073
 21
-19.6468
  0
LINE
  8
0
 10
209.073
 20
-19.6468
 11
209.438
 21
-19.5531
  0
LINE
  8
0
 10
209.438
 20
-19.5531
 11
209.812
 21
-19.5059
  0
LINE
  8
0
 10
209.812
 20
-19.5059
 11
210.188
 21
-19.5059
  0
LINE
  8
0
 10
210.188
 20
-19.5059
 11
210.562
 21
-19.5531
  0
LINE
  8
0
 10
210.562
 20
-19.5531
 11
210.927
 21
-19.6468
  0
LINE
  8
0
 10
210.927
 20
-19.6468
 11
211.277
 21
-19.7855
  0
LINE
  8
0
 10
211.277
 20
-19.7855
 11
211.607
 21
-19.967
  0
LINE
  8
0
 10
211.607
 20
-19.967
 11
211.912
 21
-20.1884
  0
LINE
  8
0
 10
211.912
 20
-20.1884
 11
212.187
 21
-20.4464
  0
LINE
  8
0
 10
212.187
 20
-20.4464
 11
212.427
 21
-20.7366
  0
LINE
  8
0
 10
212.427
 20
-20.7366
 11
212.629
 21
-21.0547
  0
LINE
  8
0
 10
212.629
 20
-21.0547
 11
212.789
 21
-21.3956
  0
LINE
  8
0
 10
212.789
 20
-21.3956
 11
212.906
 21
-21.7539
  0
LINE
  8
0
 10
212.906
 20
-21.7539
 11
212.976
 21
-22.124
  0
LINE
  8
0
 10
212.976
 20
-22.124
 11
213
 21
-22.5
  0
LINE
  8
0
 10
213
 20
-22.5
 11
212.976
 21
-22.876
  0
LINE
  8
0
 10
212.976
 20
-22.876
 11
212.906
 21
-23.2461
  0
LINE
  8
0
 10
212.906
 20
-23.2461
 11
212.789
 21
-23.6044
  0
LINE
  8
0
 10
212.789
 20
-23.6044
 11
212.629
 21
-23.9453
  0
LINE
  8
0
 10
212.629
 20
-23.9453
 11
212.427
 21
-24.2634
  0
LINE
  8
0
 10
212.427
 20
-24.2634
 11
212.187
 21
-24.5536
  0
LINE
  8
0
 10
212.187
 20
-24.5536
 11
211.912
 21
-24.8115
  0
LINE
  8
0
 10
211.912
 20
-24.8115
 11
211.607
 21
-25.033
  0
LINE
  8
0
 10
211.607
 20
-25.033
 11
211.277
 21
-25.2145
  0
LINE
  8
0
 10
211.277
 20
-25.2145
 11
210.927
 21
-25.3532
  0
LINE
  8
0
 10
210.927
 20
-25.3532
 11
210.562
 21
-25.4469
  0
LINE
  8
0
 10
210.562
 20
-25.4469
 11
210.188
 21
-25.4941
  0
LINE
  8
0
 10
210.188
 20
-25.4941
 11
209.812
 21
-25.4941
  0
LINE
  8
0
 10
-210.188
 20
-25.4941
 11
-210.562
 21
-25.4469
  0
LINE
  8
0
 10
-210.562
 20
-25.4469
 11
-210.927
 21
-25.3532
  0
LINE
  8
0
 10
-210.927
 20
-25.3532
 11
-211.277
 21
-25.2145
  0
LINE
  8
0
 10
-211.277
 20
-25.2145
 11
-211.607
 21
-25.033
  0
LINE
  8
0
 10
-211.607
 20
-25.033
 11
-211.912
 21
-24.8115
  0
LINE
  8
0
 10
-211.912
 20
-24.8115
 11
-212.187
 21
-24.5536
  0
LINE
  8
0
 10
-212.187
 20
-24.5536
 11
-212.427
 21
-24.2634
  0
LINE
  8
0
 10
-212.427
 20
-24.2634
 11
-212.629
 21
-23.9453
  0
LINE
  8
0
 10
-212.629
 20
-23.9453
 11
-212.789
 21
-23.6044
  0
LINE
  8
0
 10
-212.789
 20
-23.6044
 11
-212.906
 21
-23.2461
  0
LINE
  8
0
 10
-212.906
 20
-23.2461
 11
-212.976
 21
-22.876
  0
LINE
  8
0
 10
-212.976
 20
-22.876
 11
-213
 21
-22.5
  0
LINE
  8
0
 10
-213
 20
-22.5
 11
-212.976
 21
-22.124
  0
LINE
  8
0
 10
-212.976
 20
-22.124
 11
-212.906
 21
-21.7539
  0
LINE
  8
0
 10
-212.906
 20
-21.7539
 11
-212.789
 21
-21.3956
  0
LINE
  8
0
 10
-212.789
 20
-21.3956
 11
-212.629
 21
-21.0547
  0
LINE
  8
0
 10
-212.629
 20
-21.0547
 11
-212.427
 21
-20.7366
  0
LINE
  8
0
 10
-212.427
 20
-20.7366
 11
-212.187
 21
-20.4464
  0
LINE
  8
0
 10
-212.187
 20
-20.4464
 11
-211.912
 21
-20.1884
  0
LINE
  8
0
 10
-211.912
 20
-20.1884
 11
-211.607
 21
-19.967
  0
LINE
  8
0
 10
-211.607
 20
-19.967
 11
-211.277
 21
-19.7855
  0
LINE
  8
0
 10
-211.277
 20
-19.7855
 11
-210.927
 21
-19.6468
  0
LINE
  8
0
 10
-210.927
 20
-19.6468
 11
-210.562
 21
-19.5531
  0
LINE
  8
0
 10
-210.562
 20
-19.5531
 11
-210.188
 21
-19.5059
  0
LINE
  8
0
 10
-210.188
 20
-19.5059
 11
-209.812
 21
-19.5059
  0
LINE
  8
0
 10
-209.812
 20
-19.5059
 11
-209.438
 21
-19.5531
  0
LINE
  8
0
 10
-209.438
 20
-19.5531
 11
-209.073
 21
-19.6468
  0
LINE
  8
0
 10
-209.073
 20
-19.6468
 11
-208.723
 21
-19.7855
  0
LINE
  8
0
 10
-208.723
 20
-19.7855
 11
-208.393
 21
-19.967
  0
LINE
  8
0
 10
-208.393
 20
-19.967
 11
-208.088
 21
-20.1884
  0
LINE
  8
0
 10
-208.088
 20
-20.1884
 11
-207.813
 21
-20.4464
  0
LINE
  8
0
 10
-207.813
 20
-20.4464
 11
-207.573
 21
-20.7366
  0
LINE
  8
0
 10
-207.573
 20
-20.7366
 11
-207.371
 21
-21.0547
  0
LINE
  8
0
 10
-207.371
 20
-21.0547
 11
-207.211
 21
-21.3956
  0
LINE
  8
0
 10
-207.211
 20
-21.3956
 11
-207.094
 21
-21.7539
  0
LINE
  8
0
 10
-207.094
 20
-21.7539
 11
-207.024
 21
-22.124
  0
LINE
  8
0
 10
-207.024
 20
-22.124
 11
-207
 21
-22.5
  0
LINE
  8
0
 10
-207
 20
-22.5
 11
-207.024
 21
-22.876
  0
LINE
  8
0
 10
-207.024
 20
-22.876
 11
-207.094
 21
-23.2461
  0
LINE
  8
0
 10
-207.094
 20
-23.2461
 11
-207.211
 21
-23.6044
  0
LINE
  8
0
 10
-207.211
 20
-23.6044
 11
-207.371
 21
-23.9453
  0
LINE
  8
0
 10
-207.371
 20
-23.9453
 11
-207.573
 21
-24.2634
  0
LINE
  8
0
 10
-207.573
 20
-24.2634
 11
-207.813
 21
-24.5536
  0
LINE
  8
0
 10
-207.813
 20
-24.5536
 11
-208.088
 21
-24.8115
  0
LINE
  8
0
 10
-208.088
 20
-24.8115
 11
-208.393
 21
-25.033
  0
LINE
  8
0
 10
-208.393
 20
-25.033
 11
-208.723
 21
-25.2145
  0
LINE
  8
0
 10
-208.723
 20
-25.2145
 11
-209.073
 21
-25.3532
  0
LINE
  8
0
 10
-209.073
 20
-25.3532
 11
-209.438
 21
-25.4469
  0
LINE
  8
0
 10
-209.438
 20
-25.4469
 11
-209.812
 21
-25.4941
  0
LINE
  8
0
 10
-209.812
 20
-25.4941
 11
-210.188
 21
-25.4941
  0
LINE
  8
0
 10
209.906
 20
-31.497
 11
209.719
 21
-31.4734
  0
LINE
  8
0
 10
209.719
 20
-31.4734
 11
209.536
 21
-31.4266
  0
LINE
  8
0
 10
209.536
 20
-31.4266
 11
209.361
 21
-31.3572
  0
LINE
  8
0
 10
209.361
 20
-31.3572
 11
209.196
 21
-31.2665
  0
LINE
  8
0
 10
209.196
 20
-31.2665
 11
209.044
 21
-31.1558
  0
LINE
  8
0
 10
209.044
 20
-31.1558
 11
208.907
 21
-31.0268
  0
LINE
  8
0
 10
208.907
 20
-31.0268
 11
208.786
 21
-30.8817
  0
LINE
  8
0
 10
208.786
 20
-30.8817
 11
208.686
 21
-30.7226
  0
LINE
  8
0
 10
208.686
 20
-30.7226
 11
208.605
 21
-30.5522
  0
LINE
  8
0
 10
208.605
 20
-30.5522
 11
208.547
 21
-30.373
  0
LINE
  8
0
 10
208.547
 20
-30.373
 11
208.512
 21
-30.188
  0
LINE
  8
0
 10
208.512
 20
-30.188
 11
208.5
 21
-30
  0
LINE
  8
0
 10
208.5
 20
-30
 11
208.512
 21
-29.812
  0
LINE
  8
0
 10
208.512
 20
-29.812
 11
208.547
 21
-29.627
  0
LINE
  8
0
 10
208.547
 20
-29.627
 11
208.605
 21
-29.4478
  0
LINE
  8
0
 10
208.605
 20
-29.4478
 11
208.686
 21
-29.2774
  0
LINE
  8
0
 10
208.686
 20
-29.2774
 11
208.786
 21
-29.1183
  0
LINE
  8
0
 10
208.786
 20
-29.1183
 11
208.907
 21
-28.9732
  0
LINE
  8
0
 10
208.907
 20
-28.9732
 11
209.044
 21
-28.8442
  0
LINE
  8
0
 10
209.044
 20
-28.8442
 11
209.196
 21
-28.7335
  0
LINE
  8
0
 10
209.196
 20
-28.7335
 11
209.361
 21
-28.6427
  0
LINE
  8
0
 10
209.361
 20
-28.6427
 11
209.536
 21
-28.5734
  0
LINE
  8
0
 10
209.536
 20
-28.5734
 11
209.719
 21
-28.5266
  0
LINE
  8
0
 10
209.719
 20
-28.5266
 11
209.906
 21
-28.503
  0
LINE
  8
0
 10
209.906
 20
-28.503
 11
210.094
 21
-28.503
  0
LINE
  8
0
 10
210.094
 20
-28.503
 11
210.281
 21
-28.5266
  0
LINE
  8
0
 10
210.281
 20
-28.5266
 11
210.464
 21
-28.5734
  0
LINE
  8
0
 10
210.464
 20
-28.5734
 11
210.639
 21
-28.6427
  0
LINE
  8
0
 10
210.639
 20
-28.6427
 11
210.804
 21
-28.7335
  0
LINE
  8
0
 10
210.804
 20
-28.7335
 11
210.956
 21
-28.8442
  0
LINE
  8
0
 10
210.956
 20
-28.8442
 11
211.093
 21
-28.9732
  0
LINE
  8
0
 10
211.093
 20
-28.9732
 11
211.214
 21
-29.1183
  0
LINE
  8
0
 10
211.214
 20
-29.1183
 11
211.314
 21
-29.2774
  0
LINE
  8
0
 10
211.314
 20
-29.2774
 11
211.395
 21
-29.4478
  0
LINE
  8
0
 10
211.395
 20
-29.4478
 11
211.453
 21
-29.627
  0
LINE
  8
0
 10
211.453
 20
-29.627
 11
211.488
 21
-29.812
  0
LINE
  8
0
 10
211.488
 20
-29.812
 11
211.5
 21
-30
  0
LINE
  8
0
 10
211.5
 20
-30
 11
211.488
 21
-30.188
  0
LINE
  8
0
 10
211.488
 20
-30.188
 11
211.453
 21
-30.373
  0
LINE
  8
0
 10
211.453
 20
-30.373
 11
211.395
 21
-30.5522
  0
LINE
  8
0
 10
211.395
 20
-30.5522
 11
211.314
 21
-30.7226
  0
LINE
  8
0
 10
211.314
 20
-30.7226
 11
211.214
 21
-30.8817
  0
LINE
  8
0
 10
211.214
 20
-30.8817
 11
211.093
 21
-31.0268
  0
LINE
  8
0
 10
211.093
 20
-31.0268
 11
210.956
 21
-31.1558
  0
LINE
  8
0
 10
210.956
 20
-31.1558
 11
210.804
 21
-31.2665
  0
LINE
  8
0
 10
210.804
 20
-31.2665
 11
210.639
 21
-31.3572
  0
LINE
  8
0
 10
210.639
 20
-31.3572
 11
210.464
 21
-31.4266
  0
LINE
  8
0
 10
210.464
 20
-31.4266
 11
210.281
 21
-31.4734
  0
LINE
  8
0
 10
210.281
 20
-31.4734
 11
210.094
 21
-31.497
  0
LINE
  8
0
 10
210.094
 20
-31.497
 11
209.906
 21
-31.497
  0
LINE
  8
0
 10
-210.094
 20
-31.497
 11
-210.281
 21
-31.4734
  0
LINE
  8
0
 10
-210.281
 20
-31.4734
 11
-210.464
 21
-31.4266
  0
LINE
  8
0
 10
-210.464
 20
-31.4266
 11
-210.639
 21
-31.3572
  0
LINE
  8
0
 10
-210.639
 20
-31.3572
 11
-210.804
 21
-31.2665
  0
LINE
  8
0
 10
-210.804
 20
-31.2665
 11
-210.956
 21
-31.1558
  0
LINE
  8
0
 10
-210.956
 20
-31.1558
 11
-211.093
 21
-31.0268
  0
LINE
  8
0
 10
-211.093
 20
-31.0268
 11
-211.214
 21
-30.8817
  0
LINE
  8
0
 10
-211.214
 20
-30.8817
 11
-211.314
 21
-30.7226
  0
LINE
  8
0
 10
-211.314
 20
-30.7226
 11
-211.395
 21
-30.5522
  0
LINE
  8
0
 10
-211.395
 20
-30.5522
 11
-211.453
 21
-30.373
  0
LINE
  8
0
 10
-211.453
 20
-30.373
 11
-211.488
 21
-30.188
  0
LINE
  8
0
 10
-211.488
 20
-30.188
 11
-211.5
 21
-30
  0
LINE
  8
0
 10
-211.5
 20
-30
 11
-211.488
 21
-29.812
  0
LINE
  8
0
 10
-211.488
 20
-29.812
 11
-211.453
 21
-29.627
  0
LINE
  8
0
 10
-211.453
 20
-29.627
 11
-211.395
 21
-29.4478
  0
LINE
  8
0
 10
-211.395
 20
-29.4478
 11
-211.314
 21
-29.2774
  0
LINE
  8
0
 10
-211.314
 20
-29.2774
 11
-211.214
 21
-29.1183
  0
LINE
  8
0
 10
-211.214
 20
-29.1183
 11
-211.093
 21
-28.9732
  0
LINE
  8
0
 10
-211.093
 20
-28.9732
 11
-210.956
 21
-28.8442
  0
LINE
  8
0
 10
-210.956
 20
-28.8442
 11
-210.804
 21
-28.7335
  0
LINE
  8
0
 10
-210.804
 20
-28.7335
 11
-210.639
 21
-28.6427
  0
LINE
  8
0
 10
-210.639
 20
-28.6427
 11
-210.464
 21
-28.5734
  0
LINE
  8
0
 10
-210.464
 20
-28.5734
 11
-210.281
 21
-28.5266
  0
LINE
  8
0
 10
-210.281
 20
-28.5266
 11
-210.094
 21
-28.503
  0
LINE
  8
0
 10
-210.094
 20
-28.503
 11
-209.906
 21
-28.503
  0
LINE
  8
0
 10
-209.906
 20
-28.503
 11
-209.719
 21
-28.5266
  0
LINE
  8
0
 10
-209.719
 20
-28.5266
 11
-209.536
 21
-28.5734
  0
LINE
  8
0
 10
-209.536
 20
-28.5734
 11
-209.361
 21
-28.6427
  0
LINE
  8
0
 10
-209.361
 20
-28.6427
 11
-209.196
 21
-28.7335
  0
LINE
  8
0
 10
-209.196
 20
-28.7335
 11
-209.044
 21
-28.8442
  0
LINE
  8
0
 10
-209.044
 20
-28.8442
 11
-208.907
 21
-28.9732
  0
LINE
  8
0
 10
-208.907
 20
-28.9732
 11
-208.786
 21
-29.1183
  0
LINE
  8
0
 10
-208.786
 20
-29.1183
 11
-208.686
 21
-29.2774
  0
LINE
  8
0
 10
-208.686
 20
-29.2774
 11
-208.605
 21
-29.4478
  0
LINE
  8
0
 10
-208.605
 20
-29.4478
 11
-208.547
 21
-29.627
  0
LINE
  8
0
 10
-208.547
 20
-29.627
 11
-208.512
 21
-29.812
  0
LINE
  8
0
 10
-208.512
 20
-29.812
 11
-208.5
 21
-30
  0
LINE
  8
0
 10
-208.5
 20
-30
 11
-208.512
 21
-30.188
  0
LINE
  8
0
 10
-208.512
 20
-30.188
 11
-208.547
 21
-30.373
  0
LINE
  8
0
 10
-208.547
 20
-30.373
 11
-208.605
 21
-30.5522
  0
LINE
  8
0
 10
-208.605
 20
-30.5522
 11
-208.686
 21
-30.7226
  0
LINE
  8
0
 10
-208.686
 20
-30.7226
 11
-208.786
 21
-30.8817
  0
LINE
  8
0
 10
-208.786
 20
-30.8817
 11
-208.907
 21
-31.0268
  0
LINE
  8
0
 10
-208.907
 20
-31.0268
 11
-209.044
 21
-31.1558
  0
LINE
  8
0
 10
-209.044
 20
-31.1558
 11
-209.196
 21
-31.2665
  0
LINE
  8
0
 10
-209.196
 20
-31.2665
 11
-209.361
 21
-31.3572
  0
LINE
  8
0
 10
-209.361
 20
-31.3572
 11
-209.536
 21
-31.4266
  0
LINE
  8
0
 10
-209.536
 20
-31.4266
 11
-209.719
 21
-31.4734
  0
LINE
  8
0
 10
-209.719
 20
-31.4734
 11
-209.906
 21
-31.497
  0
LINE
  8
0
 10
-209.906
 20
-31.497
 11
-210.094
 21
-31.497
  0
LINE
  8
0
 10
209.812
 20
-40.4941
 11
209.438
 21
-40.4469
  0
LINE
  8
0
 10
209.438
 20
-40.4469
 11
209.073
 21
-40.3532
  0
LINE
  8
0
 10
209.073
 20
-40.3532
 11
208.723
 21
-40.2145
  0
LINE
  8
0
 10
208.723
 20
-40.2145
 11
208.393
 21
-40.033
  0
LINE
  8
0
 10
208.393
 20
-40.033
 11
208.088
 21
-39.8115
  0
LINE
  8
0
 10
208.088
 20
-39.8115
 11
207.813
 21
-39.5536
  0
LINE
  8
0
 10
207.813
 20
-39.5536
 11
207.573
 21
-39.2634
  0
LINE
  8
0
 10
207.573
 20
-39.2634
 11
207.371
 21
-38.9453
  0
LINE
  8
0
 10
207.371
 20
-38.9453
 11
207.211
 21
-38.6044
  0
LINE
  8
0
 10
207.211
 20
-38.6044
 11
207.094
 21
-38.2461
  0
LINE
  8
0
 10
207.094
 20
-38.2461
 11
207.024
 21
-37.876
  0
LINE
  8
0
 10
207.024
 20
-37.876
 11
207
 21
-37.5
  0
LINE
  8
0
 10
207
 20
-37.5
 11
207.024
 21
-37.124
  0
LINE
  8
0
 10
207.024
 20
-37.124
 11
207.094
 21
-36.7539
  0
LINE
  8
0
 10
207.094
 20
-36.7539
 11
207.211
 21
-36.3956
  0
LINE
  8
0
 10
207.211
 20
-36.3956
 11
207.371
 21
-36.0547
  0
LINE
  8
0
 10
207.371
 20
-36.0547
 11
207.573
 21
-35.7366
  0
LINE
  8
0
 10
207.573
 20
-35.7366
 11
207.813
 21
-35.4464
  0
LINE
  8
0
 10
207.813
 20
-35.4464
 11
208.088
 21
-35.1885
  0
LINE
  8
0
 10
208.088
 20
-35.1885
 11
208.393
 21
-34.967
  0
LINE
  8
0
 10
208.393
 20
-34.967
 11
208.723
 21
-34.7855
  0
LINE
  8
0
 10
208.723
 20
-34.7855
 11
209.073
 21
-34.6468
  0
LINE
  8
0
 10
209.073
 20
-34.6468
 11
209.438
 21
-34.5531
  0
LINE
  8
0
 10
209.438
 20
-34.5531
 11
209.812
 21
-34.5059
  0
LINE
  8
0
 10
209.812
 20
-34.5059
 11
210.188
 21
-34.5059
  0
LINE
  8
0
 10
210.188
 20
-34.5059
 11
210.562
 21
-34.5531
  0
LINE
  8
0
 10
210.562
 20
-34.5531
 11
210.927
 21
-34.6468
  0
LINE
  8
0
 10
210.927
 20
-34.6468
 11
211.277
 21
-34.7855
  0
LINE
  8
0
 10
211.277
 20
-34.7855
 11
211.607
 21
-34.967
  0
LINE
  8
0
 10
211.607
 20
-34.967
 11
211.912
 21
-35.1885
  0
LINE
  8
0
 10
211.912
 20
-35.1885
 11
212.187
 21
-35.4464
  0
LINE
  8
0
 10
212.187
 20
-35.4464
 11
212.427
 21
-35.7366
  0
LINE
  8
0
 10
212.427
 20
-35.7366
 11
212.629
 21
-36.0547
  0
LINE
  8
0
 10
212.629
 20
-36.0547
 11
212.789
 21
-36.3956
  0
LINE
  8
0
 10
212.789
 20
-36.3956
 11
212.906
 21
-36.7539
  0
LINE
  8
0
 10
212.906
 20
-36.7539
 11
212.976
 21
-37.124
  0
LINE
  8
0
 10
212.976
 20
-37.124
 11
213
 21
-37.5
  0
LINE
  8
0
 10
213
 20
-37.5
 11
212.976
 21
-37.876
  0
LINE
  8
0
 10
212.976
 20
-37.876
 11
212.906
 21
-38.2461
  0
LINE
  8
0
 10
212.906
 20
-38.2461
 11
212.789
 21
-38.6044
  0
LINE
  8
0
 10
212.789
 20
-38.6044
 11
212.629
 21
-38.9453
  0
LINE
  8
0
 10
212.629
 20
-38.9453
 11
212.427
 21
-39.2634
  0
LINE
  8
0
 10
212.427
 20
-39.2634
 11
212.187
 21
-39.5536
  0
LINE
  8
0
 10
212.187
 20
-39.5536
 11
211.912
 21
-39.8115
  0
LINE
  8
0
 10
211.912
 20
-39.8115
 11
211.607
 21
-40.033
  0
LINE
  8
0
 10
211.607
 20
-40.033
 11
211.277
 21
-40.2145
  0
LINE
  8
0
 10
211.277
 20
-40.2145
 11
210.927
 21
-40.3532
  0
LINE
  8
0
 10
210.927
 20
-40.3532
 11
210.562
 21
-40.4469
  0
LINE
  8
0
 10
210.562
 20
-40.4469
 11
210.188
 21
-40.4941
  0
LINE
  8
0
 10
210.188
 20
-40.4941
 11
209.812
 21
-40.4941
  0
LINE
  8
0
 10
-210.188
 20
-40.4941
 11
-210.562
 21
-40.4469
  0
LINE
  8
0
 10
-210.562
 20
-40.4469
 11
-210.927
 21
-40.3532
  0
LINE
  8
0
 10
-210.927
 20
-40.3532
 11
-211.277
 21
-40.2145
  0
LINE
  8
0
 10
-211.277
 20
-40.2145
 11
-211.607
 21
-40.033
  0
LINE
  8
0
 10
-211.607
 20
-40.033
 11
-211.912
 21
-39.8115
  0
LINE
  8
0
 10
-211.912
 20
-39.8115
 11
-212.187
 21
-39.5536
  0
LINE
  8
0
 10
-212.187
 20
-39.5536
 11
-212.427
 21
-39.2634
  0
LINE
  8
0
 10
-212.427
 20
-39.2634
 11
-212.629
 21
-38.9453
  0
LINE
  8
0
 10
-212.629
 20
-38.9453
 11
-212.789
 21
-38.6044
  0
LINE
  8
0
 10
-212.789
 20
-38.6044
 11
-212.906
 21
-38.2461
  0
LINE
  8
0
 10
-212.906
 20
-38.2461
 11
-212.976
 21
-37.876
  0
LINE
  8
0
 10
-212.976
 20
-37.876
 11
-213
 21
-37.5
  0
LINE
  8
0
 10
-213
 20
-37.5
 11
-212.976
 21
-37.124
  0
LINE
  8
0
 10
-212.976
 20
-37.124
 11
-212.906
 21
-36.7539
  0
LINE
  8
0
 10
-212.906
 20
-36.7539
 11
-212.789
 21
-36.3956
  0
LINE
  8
0
 10
-212.789
 20
-36.3956
 11
-212.629
 21
-36.0547
  0
LINE
  8
0
 10
-212.629
 20
-36.0547
 11
-212.427
 21
-35.7366
  0
LINE
  8
0
 10
-212.427
 20
-35.7366
 11
-212.187
 21
-35.4464
  0
LINE
  8
0
 10
-212.187
 20
-35.4464
 11
-211.912
 21
-35.1885
  0
LINE
  8
0
 10
-211.912
 20
-35.1885
 11
-211.607
 21
-34.967
  0
LINE
  8
0
 10
-211.607
 20
-34.967
 11
-211.277
 21
-34.7855
  0
LINE
  8
0
 10
-211.277
 20
-34.7855
 11
-210.927
 21
-34.6468
  0
LINE
  8
0
 10
-210.927
 20
-34.6468
 11
-210.562
 21
-34.5531
  0
LINE
  8
0
 10
-210.562
 20
-34.5531
 11
-210.188
 21
-34.5059
  0
LINE
  8
0
 10
-210.188
 20
-34.5059
 11
-209.812
 21
-34.5059
  0
LINE
  8
0
 10
-209.812
 20
-34.5059
 11
-209.438
 21
-34.5531
  0
LINE
  8
0
 10
-209.438
 20
-34.5531
 11
-209.073
 21
-34.6468
  0
LINE
  8
0
 10
-209.073
 20
-34.6468
 11
-208.723
 21
-34.7855
  0
LINE
  8
0
 10
-208.723
 20
-34.7855
 11
-208.393
 21
-34.967
  0
LINE
  8
0
 10
-208.393
 20
-34.967
 11
-208.088
 21
-35.1885
  0
LINE
  8
0
 10
-208.088
 20
-35.1885
 11
-207.813
 21
-35.4464
  0
LINE
  8
0
 10
-207.813
 20
-35.4464
 11
-207.573
 21
-35.7366
  0
LINE
  8
0
 10
-207.573
 20
-35.7366
 11
-207.371
 21
-36.0547
  0
LINE
  8
0
 10
-207.371
 20
-36.0547
 11
-207.211
 21
-36.3956
  0
LINE
  8
0
 10
-207.211
 20
-36.3956
 11
-207.094
 21
-36.7539
  0
LINE
  8
0
 10
-207.094
 20
-36.7539
 11
-207.024
 21
-37.124
  0
LINE
  8
0
 10
-207.024
 20
-37.124
 11
-207
 21
-37.5
  0
LINE
  8
0
 10
-207
 20
-37.5
 11
-207.024
 21
-37.876
  0
LINE
  8
0
 10
-207.024
 20
-37.876
 11
-207.094
 21
-38.2461
  0
LINE
  8
0
 10
-207.094
 20
-38.2461
 11
-207.211
 21
-38.6044
  0
LINE
  8
0
 10
-207.211
 20
-38.6044
 11
-207.371
 21
-38.9453
  0
LINE
  8
0
 10
-207.371
 20
-38.9453
 11
-207.573
 21
-39.2634
  0
LINE
  8
0
 10
-207.573
 20
-39.2634
 11
-207.813
 21
-39.5536
  0
LINE
  8
0
 10
-207.813
 20
-39.5536
 11
-208.088
 21
-39.8115
  0
LINE
  8
0
 10
-208.088
 20
-39.8115
 11
-208.393
 21
-40.033
  0
LINE
  8
0
 10
-208.393
 20
-40.033
 11
-208.723
 21
-40.2145
  0
LINE
  8
0
 10
-208.723
 20
-40.2145
 11
-209.073
 21
-40.3532
  0
LINE
  8
0
 10
-209.073
 20
-40.3532
 11
-209.438
 21
-40.4469
  0
LINE
  8
0
 10
-209.438
 20
-40.4469
 11
-209.812
 21
-40.4941
  0
LINE
  8
0
 10
-209.812
 20
-40.4941
 11
-210.188
 21
-40.4941
  0
LINE
  8
0
 10
209.906
 20
-46.497
 11
209.719
 21
-46.4734
  0
LINE
  8
0
 10
209.719
 20
-46.4734
 11
209.536
 21
-46.4266
  0
LINE
  8
0
 10
209.536
 20
-46.4266
 11
209.361
 21
-46.3572
  0
LINE
  8
0
 10
209.361
 20
-46.3572
 11
209.196
 21
-46.2665
  0
LINE
  8
0
 10
209.196
 20
-46.2665
 11
209.044
 21
-46.1558
  0
LINE
  8
0
 10
209.044
 20
-46.1558
 11
208.907
 21
-46.0268
  0
LINE
  8
0
 10
208.907
 20
-46.0268
 11
208.786
 21
-45.8817
  0
LINE
  8
0
 10
208.786
 20
-45.8817
 11
208.686
 21
-45.7226
  0
LINE
  8
0
 10
208.686
 20
-45.7226
 11
208.605
 21
-45.5522
  0
LINE
  8
0
 10
208.605
 20
-45.5522
 11
208.547
 21
-45.373
  0
LINE
  8
0
 10
208.547
 20
-45.373
 11
208.512
 21
-45.188
  0
LINE
  8
0
 10
208.512
 20
-45.188
 11
208.5
 21
-45
  0
LINE
  8
0
 10
208.5
 20
-45
 11
208.512
 21
-44.812
  0
LINE
  8
0
 10
208.512
 20
-44.812
 11
208.547
 21
-44.627
  0
LINE
  8
0
 10
208.547
 20
-44.627
 11
208.605
 21
-44.4478
  0
LINE
  8
0
 10
208.605
 20
-44.4478
 11
208.686
 21
-44.2774
  0
LINE
  8
0
 10
208.686
 20
-44.2774
 11
208.786
 21
-44.1183
  0
LINE
  8
0
 10
208.786
 20
-44.1183
 11
208.907
 21
-43.9732
  0
LINE
  8
0
 10
208.907
 20
-43.9732
 11
209.044
 21
-43.8442
  0
LINE
  8
0
 10
209.044
 20
-43.8442
 11
209.196
 21
-43.7335
  0
LINE
  8
0
 10
209.196
 20
-43.7335
 11
209.361
 21
-43.6428
  0
LINE
  8
0
 10
209.361
 20
-43.6428
 11
209.536
 21
-43.5734
  0
LINE
  8
0
 10
209.536
 20
-43.5734
 11
209.719
 21
-43.5266
  0
LINE
  8
0
 10
209.719
 20
-43.5266
 11
209.906
 21
-43.503
  0
LINE
  8
0
 10
209.906
 20
-43.503
 11
210.094
 21
-43.503
  0
LINE
  8
0
 10
210.094
 20
-43.503
 11
210.281
 21
-43.5266
  0
LINE
  8
0
 10
210.281
 20
-43.5266
 11
210.464
 21
-43.5734
  0
LINE
  8
0
 10
210.464
 20
-43.5734
 11
210.639
 21
-43.6428
  0
LINE
  8
0
 10
210.639
 20
-43.6428
 11
210.804
 21
-43.7335
  0
LINE
  8
0
 10
210.804
 20
-43.7335
 11
210.956
 21
-43.8442
  0
LINE
  8
0
 10
210.956
 20
-43.8442
 11
211.093
 21
-43.9732
  0
LINE
  8
0
 10
211.093
 20
-43.9732
 11
211.214
 21
-44.1183
  0
LINE
  8
0
 10
211.214
 20
-44.1183
 11
211.314
 21
-44.2774
  0
LINE
  8
0
 10
211.314
 20
-44.2774
 11
211.395
 21
-44.4478
  0
LINE
  8
0
 10
211.395
 20
-44.4478
 11
211.453
 21
-44.627
  0
LINE
  8
0
 10
211.453
 20
-44.627
 11
211.488
 21
-44.812
  0
LINE
  8
0
 10
211.488
 20
-44.812
 11
211.5
 21
-45
  0
LINE
  8
0
 10
211.5
 20
-45
 11
211.488
 21
-45.188
  0
LINE
  8
0
 10
211.488
 20
-45.188
 11
211.453
 21
-45.373
  0
LINE
  8
0
 10
211.453
 20
-45.373
 11
211.395
 21
-45.5522
  0
LINE
  8
0
 10
211.395
 20
-45.5522
 11
211.314
 21
-45.7226
  0
LINE
  8
0
 10
211.314
 20
-45.7226
 11
211.214
 21
-45.8817
  0
LINE
  8
0
 10
211.214
 20
-45.8817
 11
211.093
 21
-46.0268
  0
LINE
  8
0
 10
211.093
 20
-46.0268
 11
210.956
 21
-46.1558
  0
LINE
  8
0
 10
210.956
 20
-46.1558
 11
210.804
 21
-46.2665
  0
LINE
  8
0
 10
210.804
 20
-46.2665
 11
210.639
 21
-46.3572
  0
LINE
  8
0
 10
210.639
 20
-46.3572
 11
210.464
 21
-46.4266
  0
LINE
  8
0
 10
210.464
 20
-46.4266
 11
210.281
 21
-46.4734
  0
LINE
  8
0
 10
210.281
 20
-46.4734
 11
210.094
 21
-46.497
  0
LINE
  8
0
 10
210.094
 20
-46.497
 11
209.906
 21
-46.497
  0
LINE
  8
0
 10
-210.094
 20
-46.497
 11
-210.281
 21
-46.4734
  0
LINE
  8
0
 10
-210.281
 20
-46.4734
 11
-210.464
 21
-46.4266
  0
LINE
  8
0
 10
-210.464
 20
-46.4266
 11
-210.639
 21
-46.3572
  0
LINE
  8
0
 10
-210.639
 20
-46.3572
 11
-210.804
 21
-46.2665
  0
LINE
  8
0
 10
-210.804
 20
-46.2665
 11
-210.956
 21
-46.1558
  0
LINE
  8
0
 10
-210.956
 20
-46.1558
 11
-211.093
 21
-46.0268
  0
LINE
  8
0
 10
-211.093
 20
-46.0268
 11
-211.214
 21
-45.8817
  0
LINE
  8
0
 10
-211.214
 20
-45.8817
 11
-211.314
 21
-45.7226
  0
LINE
  8
0
 10
-211.314
 20
-45.7226
 11
-211.395
 21
-45.5522
  0
LINE
  8
0
 10
-211.395
 20
-45.5522
 11
-211.453
 21
-45.373
  0
LINE
  8
0
 10
-211.453
 20
-45.373
 11
-211.488
 21
-45.188
  0
LINE
  8
0
 10
-211.488
 20
-45.188
 11
-211.5
 21
-45
  0
LINE
  8
0
 10
-211.5
 20
-45
 11
-211.488
 21
-44.812
  0
LINE
  8
0
 10
-211.488
 20
-44.812
 11
-211.453
 21
-44.627
  0
LINE
  8
0
 10
-211.453
 20
-44.627
 11
-211.395
 21
-44.4478
  0
LINE
  8
0
 10
-211.395
 20
-44.4478
 11
-211.314
 21
-44.2774
  0
LINE
  8
0
 10
-211.314
 20
-44.2774
 11
-211.214
 21
-44.1183
  0
LINE
  8
0
 10
-211.214
 20
-44.1183
 11
-211.093
 21
-43.9732
  0
LINE
  8
0
 10
-211.093
 20
-43.9732
 11
-210.956
 21
-43.8442
  0
LINE
  8
0
 10
-210.956
 20
-43.8442
 11
-210.804
 21
-43.7335
  0
LINE
  8
0
 10
-210.804
 20
-43.7335
 11
-210.639
 21
-43.6428
  0
LINE
  8
0
 10
-210.639
 20
-43.6428
 11
-210.464
 21
-43.5734
  0
LINE
  8
0
 10
-210.464
 20
-43.5734
 11
-210.281
 21
-43.5266
  0
LINE
  8
0
 10
-210.281
 20
-43.5266
 11
-210.094
 21
-43.503
  0
LINE
  8
0
 10
-210.094
 20
-43.503
 11
-209.906
 21
-43.503
  0
LINE
  8
0
 10
-209.906
 20
-43.503
 11
-209.719
 21
-43.5266
  0
LINE
  8
0
 10
-209.719
 20
-43.5266
 11
-209.536
 21
-43.5734
  0
LINE
  8
0
 10
-209.536
 20
-43.5734
 11
-209.361
 21
-43.6428
  0
LINE
  8
0
 10
-209.361
 20
-43.6428
 11
-209.196
 21
-43.7335
  0
LINE
  8
0
 10
-209.196
 20
-43.7335
 11
-209.044
 21
-43.8442
  0
LINE
  8
0
 10
-209.044
 20
-43.8442
 11
-208.907
 21
-43.9732
  0
LINE
  8
0
 10
-208.907
 20
-43.9732
 11
-208.786
 21
-44.1183
  0
LINE
  8
0
 10
-208.786
 20
-44.1183
 11
-208.686
 21
-44.2774
  0
LINE
  8
0
 10
-208.686
 20
-44.2774
 11
-208.605
 21
-44.4478
  0
LINE
  8
0
 10
-208.605
 20
-44.4478
 11
-208.547
 21
-44.627
  0
LINE
  8
0
 10
-208.547
 20
-44.627
 11
-208.512
 21
-44.812
  0
LINE
  8
0
 10
-208.512
 20
-44.812
 11
-208.5
 21
-45
  0
LINE
  8
0
 10
-208.5
 20
-45
 11
-208.512
 21
-45.188
  0
LINE
  8
0
 10
-208.512
 20
-45.188
 11
-208.547
 21
-45.373
  0
LINE
  8
0
 10
-208.547
 20
-45.373
 11
-208.605
 21
-45.5522
  0
LINE
  8
0
 10
-208.605
 20
-45.5522
 11
-208.686
 21
-45.7226
  0
LINE
  8
0
 10
-208.686
 20
-45.7226
 11
-208.786
 21
-45.8817
  0
LINE
  8
0
 10
-208.786
 20
-45.8817
 11
-208.907
 21
-46.0268
  0
LINE
  8
0
 10
-208.907
 20
-46.0268
 11
-209.044
 21
-46.1558
  0
LINE
  8
0
 10
-209.044
 20
-46.1558
 11
-209.196
 21
-46.2665
  0
LINE
  8
0
 10
-209.196
 20
-46.2665
 11
-209.361
 21
-46.3572
  0
LINE
  8
0
 10
-209.361
 20
-46.3572
 11
-209.536
 21
-46.4266
  0
LINE
  8
0
 10
-209.536
 20
-46.4266
 11
-209.719
 21
-46.4734
  0
LINE
  8
0
 10
-209.719
 20
-46.4734
 11
-209.906
 21
-46.497
  0
LINE
  8
0
 10
-209.906
 20
-46.497
 11
-210.094
 21
-46.497
  0
LINE
  8
0
 10
209.812
 20
-55.4941
 11
209.438
 21
-55.4469
  0
LINE
  8
0
 10
209.438
 20
-55.4469
 11
209.073
 21
-55.3532
  0
LINE
  8
0
 10
209.073
 20
-55.3532
 11
208.723
 21
-55.2145
  0
LINE
  8
0
 10
208.723
 20
-55.2145
 11
208.393
 21
-55.033
  0
LINE
  8
0
 10
208.393
 20
-55.033
 11
208.088
 21
-54.8115
  0
LINE
  8
0
 10
208.088
 20
-54.8115
 11
207.813
 21
-54.5536
  0
LINE
  8
0
 10
207.813
 20
-54.5536
 11
207.573
 21
-54.2634
  0
LINE
  8
0
 10
207.573
 20
-54.2634
 11
207.371
 21
-53.9453
  0
LINE
  8
0
 10
207.371
 20
-53.9453
 11
207.211
 21
-53.6044
  0
LINE
  8
0
 10
207.211
 20
-53.6044
 11
207.094
 21
-53.2461
  0
LINE
  8
0
 10
207.094
 20
-53.2461
 11
207.024
 21
-52.876
  0
LINE
  8
0
 10
207.024
 20
-52.876
 11
207
 21
-52.5
  0
LINE
  8
0
 10
207
 20
-52.5
 11
207.024
 21
-52.124
  0
LINE
  8
0
 10
207.024
 20
-52.124
 11
207.094
 21
-51.7539
  0
LINE
  8
0
 10
207.094
 20
-51.7539
 11
207.211
 21
-51.3956
  0
LINE
  8
0
 10
207.211
 20
-51.3956
 11
207.371
 21
-51.0547
  0
LINE
  8
0
 10
207.371
 20
-51.0547
 11
207.573
 21
-50.7366
  0
LINE
  8
0
 10
207.573
 20
-50.7366
 11
207.813
 21
-50.4464
  0
LINE
  8
0
 10
207.813
 20
-50.4464
 11
208.088
 21
-50.1885
  0
LINE
  8
0
 10
208.088
 20
-50.1885
 11
208.393
 21
-49.967
  0
LINE
  8
0
 10
208.393
 20
-49.967
 11
208.723
 21
-49.7855
  0
LINE
  8
0
 10
208.723
 20
-49.7855
 11
209.073
 21
-49.6468
  0
LINE
  8
0
 10
209.073
 20
-49.6468
 11
209.438
 21
-49.5531
  0
LINE
  8
0
 10
209.438
 20
-49.5531
 11
209.812
 21
-49.5059
  0
LINE
  8
0
 10
209.812
 20
-49.5059
 11
210.188
 21
-49.5059
  0
LINE
  8
0
 10
210.188
 20
-49.5059
 11
210.562
 21
-49.5531
  0
LINE
  8
0
 10
210.562
 20
-49.5531
 11
210.927
 21
-49.6468
  0
LINE
  8
0
 10
210.927
 20
-49.6468
 11
211.277
 21
-49.7855
  0
LINE
  8
0
 10
211.277
 20
-49.7855
 11
211.607
 21
-49.967
  0
LINE
  8
0
 10
211.607
 20
-49.967
 11
211.912
 21
-50.1885
  0
LINE
  8
0
 10
211.912
 20
-50.1885
 11
212.187
 21
-50.4464
  0
LINE
  8
0
 10
212.187
 20
-50.4464
 11
212.427
 21
-50.7366
  0
LINE
  8
0
 10
212.427
 20
-50.7366
 11
212.629
 21
-51.0547
  0
LINE
  8
0
 10
212.629
 20
-51.0547
 11
212.789
 21
-51.3956
  0
LINE
  8
0
 10
212.789
 20
-51.3956
 11
212.906
 21
-51.7539
  0
LINE
  8
0
 10
212.906
 20
-51.7539
 11
212.976
 21
-52.124
  0
LINE
  8
0
 10
212.976
 20
-52.124
 11
213
 21
-52.5
  0
LINE
  8
0
 10
213
 20
-52.5
 11
212.976
 21
-52.876
  0
LINE
  8
0
 10
212.976
 20
-52.876
 11
212.906
 21
-53.2461
  0
LINE
  8
0
 10
212.906
 20
-53.2461
 11
212.789
 21
-53.6044
  0
LINE
  8
0
 10
212.789
 20
-53.6044
 11
212.629
 21
-53.9453
  0
LINE
  8
0
 10
212.629
 20
-53.9453
 11
212.427
 21
-54.2634
  0
LINE
  8
0
 10
212.427
 20
-54.2634
 11
212.187
 21
-54.5536
  0
LINE
  8
0
 10
212.187
 20
-54.5536
 11
211.912
 21
-54.8115
  0
LINE
  8
0
 10
211.912
 20
-54.8115
 11
211.607
 21
-55.033
  0
LINE
  8
0
 10
211.607
 20
-55.033
 11
211.277
 21
-55.2145
  0
LINE
  8
0
 10
211.277
 20
-55.2145
 11
210.927
 21
-55.3532
  0
LINE
  8
0
 10
210.927
 20
-55.3532
 11
210.562
 21
-55.4469
  0
LINE
  8
0
 10
210.562
 20
-55.4469
 11
210.188
 21
-55.4941
  0
LINE
  8
0
 10
210.188
 20
-55.4941
 11
209.812
 21
-55.4941
  0
LINE
  8
0
 10
-210.188
 20
-55.4941
 11
-210.562
 21
-55.4469
  0
LINE
  8
0
 10
-210.562
 20
-55.4469
 11
-210.927
 21
-55.3532
  0
LINE
  8
0
 10
-210.927
 20
-55.3532
 11
-211.277
 21
-55.2145
  0
LINE
  8
0
 10
-211.277
 20
-55.2145
 11
-211.607
 21
-55.033
  0
LINE
  8
0
 10
-211.607
 20
-55.033
 11
-211.912
 21
-54.8115
  0
LINE
  8
0
 10
-211.912
 20
-54.8115
 11
-212.187
 21
-54.5536
  0
LINE
  8
0
 10
-212.187
 20
-54.5536
 11
-212.427
 21
-54.2634
  0
LINE
  8
0
 10
-212.427
 20
-54.2634
 11
-212.629
 21
-53.9453
  0
LINE
  8
0
 10
-212.629
 20
-53.9453
 11
-212.789
 21
-53.6044
  0
LINE
  8
0
 10
-212.789
 20
-53.6044
 11
-212.906
 21
-53.2461
  0
LINE
  8
0
 10
-212.906
 20
-53.2461
 11
-212.976
 21
-52.876
  0
LINE
  8
0
 10
-212.976
 20
-52.876
 11
-213
 21
-52.5
  0
LINE
  8
0
 10
-213
 20
-52.5
 11
-212.976
 21
-52.124
  0
LINE
  8
0
 10
-212.976
 20
-52.124
 11
-212.906
 21
-51.7539
  0
LINE
  8
0
 10
-212.906
 20
-51.7539
 11
-212.789
 21
-51.3956
  0
LINE
  8
0
 10
-212.789
 20
-51.3956
 11
-212.629
 21
-51.0547
  0
LINE
  8
0
 10
-212.629
 20
-51.0547
 11
-212.427
 21
-50.7366
  0
LINE
  8
0
 10
-212.427
 20
-50.7366
 11
-212.187
 21
-50.4464
  0
LINE
  8
0
 10
-212.187
 20
-50.4464
 11
-211.912
 21
-50.1885
  0
LINE
  8
0
 10
-211.912
 20
-50.1885
 11
-211.607
 21
-49.967
  0
LINE
  8
0
 10
-211.607
 20
-49.967
 11
-211.277
 21
-49.7855
  0
LINE
  8
0
 10
-211.277
 20
-49.7855
 11
-210.927
 21
-49.6468
  0
LINE
  8
0
 10
-210.927
 20
-49.6468
 11
-210.562
 21
-49.5531
  0
LINE
  8
0
 10
-210.562
 20
-49.5531
 11
-210.188
 21
-49.5059
  0
LINE
  8
0
 10
-210.188
 20
-49.5059
 11
-209.812
 21
-49.5059
  0
LINE
  8
0
 10
-209.812
 20
-49.5059
 11
-209.438
 21
-49.5531
  0
LINE
  8
0
 10
-209.438
 20
-49.5531
 11
-209.073
 21
-49.6468
  0
LINE
  8
0
 10
-209.073
 20
-49.6468
 11
-208.723
 21
-49.7855
  0
LINE
  8
0
 10
-208.723
 20
-49.7855
 11
-208.393
 21
-49.967
  0
LINE
  8
0
 10
-208.393
 20
-49.967
 11
-208.088
 21
-50.1885
  0
LINE
  8
0
 10
-208.088
 20
-50.1885
 11
-207.813
 21
-50.4464
  0
LINE
  8
0
 10
-207.813
 20
-50.4464
 11
-207.573
 21
-50.7366
  0
LINE
  8
0
 10
-207.573
 20
-50.7366
 11
-207.371
 21
-51.0547
  0
LINE
  8
0
 10
-207.371
 20
-51.0547
 11
-207.211
 21
-51.3956
  0
LINE
  8
0
 10
-207.211
 20
-51.3956
 11
-207.094
 21
-51.7539
  0
LINE
  8
0
 10
-207.094
 20
-51.7539
 11
-207.024
 21
-52.124
  0
LINE
  8
0
 10
-207.024
 20
-52.124
 11
-207
 21
-52.5
  0
LINE
  8
0
 10
-207
 20
-52.5
 11
-207.024
 21
-52.876
  0
LINE
  8
0
 10
-207.024
 20
-52.876
 11
-207.094
 21
-53.2461
  0
LINE
  8
0
 10
-207.094
 20
-53.2461
 11
-207.211
 21
-53.6044
  0
LINE
  8
0
 10
-207.211
 20
-53.6044
 11
-207.371
 21
-53.9453
  0
LINE
  8
0
 10
-207.371
 20
-53.9453
 11
-207.573
 21
-54.2634
  0
LINE
  8
0
 10
-207.573
 20
-54.2634
 11
-207.813
 21
-54.5536
  0
LINE
  8
0
 10
-207.813
 20
-54.5536
 11
-208.088
 21
-54.8115
  0
LINE
  8
0
 10
-208.088
 20
-54.8115
 11
-208.393
 21
-55.033
  0
LINE
  8
0
 10
-208.393
 20
-55.033
 11
-208.723
 21
-55.2145
  0
LINE
  8
0
 10
-208.723
 20
-55.2145
 11
-209.073
 21
-55.3532
  0
LINE
  8
0
 10
-209.073
 20
-55.3532
 11
-209.438
 21
-55.4469
  0
LINE
  8
0
 10
-209.438
 20
-55.4469
 11
-209.812
 21
-55.4941
  0
LINE
  8
0
 10
-209.812
 20
-55.4941
 11
-210.188
 21
-55.4941
  0
LINE
  8
0
 10
-210.094
 20
-61.497
 11
-210.281
 21
-61.4734
  0
LINE
  8
0
 10
-210.281
 20
-61.4734
 11
-210.464
 21
-61.4266
  0
LINE
  8
0
 10
-210.464
 20
-61.4266
 11
-210.639
 21
-61.3572
  0
LINE
  8
0
 10
-210.639
 20
-61.3572
 11
-210.804
 21
-61.2665
  0
LINE
  8
0
 10
-210.804
 20
-61.2665
 11
-210.956
 21
-61.1558
  0
LINE
  8
0
 10
-210.956
 20
-61.1558
 11
-211.093
 21
-61.0268
  0
LINE
  8
0
 10
-211.093
 20
-61.0268
 11
-211.214
 21
-60.8817
  0
LINE
  8
0
 10
-211.214
 20
-60.8817
 11
-211.314
 21
-60.7226
  0
LINE
  8
0
 10
-211.314
 20
-60.7226
 11
-211.395
 21
-60.5522
  0
LINE
  8
0
 10
-211.395
 20
-60.5522
 11
-211.453
 21
-60.373
  0
LINE
  8
0
 10
-211.453
 20
-60.373
 11
-211.488
 21
-60.188
  0
LINE
  8
0
 10
-211.488
 20
-60.188
 11
-211.5
 21
-60
  0
LINE
  8
0
 10
-211.5
 20
-60
 11
-211.488
 21
-59.812
  0
LINE
  8
0
 10
-211.488
 20
-59.812
 11
-211.453
 21
-59.627
  0
LINE
  8
0
 10
-211.453
 20
-59.627
 11
-211.395
 21
-59.4478
  0
LINE
  8
0
 10
-211.395
 20
-59.4478
 11
-211.314
 21
-59.2774
  0
LINE
  8
0
 10
-211.314
 20
-59.2774
 11
-211.214
 21
-59.1183
  0
LINE
  8
0
 10
-211.214
 20
-59.1183
 11
-211.093
 21
-58.9732
  0
LINE
  8
0
 10
-211.093
 20
-58.9732
 11
-210.956
 21
-58.8442
  0
LINE
  8
0
 10
-210.956
 20
-58.8442
 11
-210.804
 21
-58.7335
  0
LINE
  8
0
 10
-210.804
 20
-58.7335
 11
-210.639
 21
-58.6428
  0
LINE
  8
0
 10
-210.639
 20
-58.6428
 11
-210.464
 21
-58.5734
  0
LINE
  8
0
 10
-210.464
 20
-58.5734
 11
-210.281
 21
-58.5266
  0
LINE
  8
0
 10
-210.281
 20
-58.5266
 11
-210.094
 21
-58.503
  0
LINE
  8
0
 10
-210.094
 20
-58.503
 11
-209.906
 21
-58.503
  0
LINE
  8
0
 10
-209.906
 20
-58.503
 11
-209.719
 21
-58.5266
  0
LINE
  8
0
 10
-209.719
 20
-58.5266
 11
-209.536
 21
-58.5734
  0
LINE
  8
0
 10
-209.536
 20
-58.5734
 11
-209.361
 21
-58.6428
  0
LINE
  8
0
 10
-209.361
 20
-58.6428
 11
-209.196
 21
-58.7335
  0
LINE
  8
0
 10
-209.196
 20
-58.7335
 11
-209.044
 21
-58.8442
  0
LINE
  8
0
 10
-209.044
 20
-58.8442
 11
-208.907
 21
-58.9732
  0
LINE
  8
0
 10
-208.907
 20
-58.9732
 11
-208.786
 21
-59.1183
  0
LINE
  8
0
 10
-208.786
 20
-59.1183
 11
-208.686
 21
-59.2774
  0
LINE
  8
0
 10
-208.686
 20
-59.2774
 11
-208.605
 21
-59.4478
  0
LINE
  8
0
 10
-208.605
 20
-59.4478
 11
-208.547
 21
-59.627
  0
LINE
  8
0
 10
-208.547
 20
-59.627
 11
-208.512
 21
-59.812
  0
LINE
  8
0
 10
-208.512
 20
-59.812
 11
-208.5
 21
-60
  0
LINE
  8
0
 10
-208.5
 20
-60
 11
-208.512
 21
-60.188
  0
LINE
  8
0
 10
-208.512
 20
-60.188
 11
-208.547
 21
-60.373
  0
LINE
  8
0
 10
-208.547
 20
-60.373
 11
-208.605
 21
-60.5522
  0
LINE
  8
0
 10
-208.605
 20
-60.5522
 11
-208.686
 21
-60.7226
  0
LINE
  8
0
 10
-208.686
 20
-60.7226
 11
-208.786
 21
-60.8817
  0
LINE
  8
0
 10
-208.786
 20
-60.8817
 11
-208.907
 21
-61.0268
  0
LINE
  8
0
 10
-208.907
 20
-61.0268
 11
-209.044
 21
-61.1558
  0
LINE
  8
0
 10
-209.044
 20
-61.1558
 11
-209.196
 21
-61.2665
  0
LINE
  8
0
 10
-209.196
 20
-61.2665
 11
-209.361
 21
-61.3572
  0
LINE
  8
0
 10
-209.361
 20
-61.3572
 11
-209.536
 21
-61.4266
  0
LINE
  8
0
 10
-209.536
 20
-61.4266
 11
-209.719
 21
-61.4734
  0
LINE
  8
0
 10
-209.719
 20
-61.4734
 11
-209.906
 21
-61.497
  0
LINE
  8
0
 10
-209.906
 20
-61.497
 11
-210.094
 21
-61.497
  0
LINE
  8
0
 10
209.906
 20
-61.497
 11
209.719
 21
-61.4734
  0
LINE
  8
0
 10
209.719
 20
-61.4734
 11
209.536
 21
-61.4266
  0
LINE
  8
0
 10
209.536
 20
-61.4266
 11
209.361
 21
-61.3572
  0
LINE
  8
0
 10
209.361
 20
-61.3572
 11
209.196
 21
-61.2665
  0
LINE
  8
0
 10
209.196
 20
-61.2665
 11
209.044
 21
-61.1558
  0
LINE
  8
0
 10
209.044
 20
-61.1558
 11
208.907
 21
-61.0268
  0
LINE
  8
0
 10
208.907
 20
-61.0268
 11
208.786
 21
-60.8817
  0
LINE
  8
0
 10
208.786
 20
-60.8817
 11
208.686
 21
-60.7226
  0
LINE
  8
0
 10
208.686
 20
-60.7226
 11
208.605
 21
-60.5522
  0
LINE
  8
0
 10
208.605
 20
-60.5522
 11
208.547
 21
-60.373
  0
LINE
  8
0
 10
208.547
 20
-60.373
 11
208.512
 21
-60.188
  0
LINE
  8
0
 10
208.512
 20
-60.188
 11
208.5
 21
-60
  0
LINE
  8
0
 10
208.5
 20
-60
 11
208.512
 21
-59.812
  0
LINE
  8
0
 10
208.512
 20
-59.812
 11
208.547
 21
-59.627
  0
LINE
  8
0
 10
208.547
 20
-59.627
 11
208.605
 21
-59.4478
  0
LINE
  8
0
 10
208.605
 20
-59.4478
 11
208.686
 21
-59.2774
  0
LINE
  8
0
 10
208.686
 20
-59.2774
 11
208.786
 21
-59.1183
  0
LINE
  8
0
 10
208.786
 20
-59.1183
 11
208.907
 21
-58.9732
  0
LINE
  8
0
 10
208.907
 20
-58.9732
 11
209.044
 21
-58.8442
  0
LINE
  8
0
 10
209.044
 20
-58.8442
 11
209.196
 21
-58.7335
  0
LINE
  8
0
 10
209.196
 20
-58.7335
 11
209.361
 21
-58.6428
  0
LINE
  8
0
 10
209.361
 20
-58.6428
 11
209.536
 21
-58.5734
  0
LINE
  8
0
 10
209.536
 20
-58.5734
 11
209.719
 21
-58.5266
  0
LINE
  8
0
 10
209.719
 20
-58.5266
 11
209.906
 21
-58.503
  0
LINE
  8
0
 10
209.906
 20
-58.503
 11
210.094
 21
-58.503
  0
LINE
  8
0
 10
210.094
 20
-58.503
 11
210.281
 21
-58.5266
  0
LINE
  8
0
 10
210.281
 20
-58.5266
 11
210.464
 21
-58.5734
  0
LINE
  8
0
 10
210.464
 20
-58.5734
 11
210.639
 21
-58.6428
  0
LINE
  8
0
 10
210.639
 20
-58.6428
 11
210.804
 21
-58.7335
  0
LINE
  8
0
 10
210.804
 20
-58.7335
 11
210.956
 21
-58.8442
  0
LINE
  8
0
 10
210.956
 20
-58.8442
 11
211.093
 21
-58.9732
  0
LINE
  8
0
 10
211.093
 20
-58.9732
 11
211.214
 21
-59.1183
  0
LINE
  8
0
 10
211.214
 20
-59.1183
 11
211.314
 21
-59.2774
  0
LINE
  8
0
 10
211.314
 20
-59.2774
 11
211.395
 21
-59.4478
  0
LINE
  8
0
 10
211.395
 20
-59.4478
 11
211.453
 21
-59.627
  0
LINE
  8
0
 10
211.453
 20
-59.627
 11
211.488
 21
-59.812
  0
LINE
  8
0
 10
211.488
 20
-59.812
 11
211.5
 21
-60
  0
LINE
  8
0
 10
211.5
 20
-60
 11
211.488
 21
-60.188
  0
LINE
  8
0
 10
211.488
 20
-60.188
 11
211.453
 21
-60.373
  0
LINE
  8
0
 10
211.453
 20
-60.373
 11
211.395
 21
-60.5522
  0
LINE
  8
0
 10
211.395
 20
-60.5522
 11
211.314
 21
-60.7226
  0
LINE
  8
0
 10
211.314
 20
-60.7226
 11
211.214
 21
-60.8817
  0
LINE
  8
0
 10
211.214
 20
-60.8817
 11
211.093
 21
-61.0268
  0
LINE
  8
0
 10
211.093
 20
-61.0268
 11
210.956
 21
-61.1558
  0
LINE
  8
0
 10
210.956
 20
-61.1558
 11
210.804
 21
-61.2665
  0
LINE
  8
0
 10
210.804
 20
-61.2665
 11
210.639
 21
-61.3572
  0
LINE
  8
0
 10
210.639
 20
-61.3572
 11
210.464
 21
-61.4266
  0
LINE
  8
0
 10
210.464
 20
-61.4266
 11
210.281
 21
-61.4734
  0
LINE
  8
0
 10
210.281
 20
-61.4734
 11
210.094
 21
-61.497
  0
LINE
  8
0
 10
210.094
 20
-61.497
 11
209.906
 21
-61.497
  0
LINE
  8
0
 10
-210.188
 20
-70.4941
 11
-210.562
 21
-70.4469
  0
LINE
  8
0
 10
-210.562
 20
-70.4469
 11
-210.927
 21
-70.3532
  0
LINE
  8
0
 10
-210.927
 20
-70.3532
 11
-211.277
 21
-70.2145
  0
LINE
  8
0
 10
-211.277
 20
-70.2145
 11
-211.607
 21
-70.033
  0
LINE
  8
0
 10
-211.607
 20
-70.033
 11
-211.912
 21
-69.8115
  0
LINE
  8
0
 10
-211.912
 20
-69.8115
 11
-212.187
 21
-69.5536
  0
LINE
  8
0
 10
-212.187
 20
-69.5536
 11
-212.427
 21
-69.2634
  0
LINE
  8
0
 10
-212.427
 20
-69.2634
 11
-212.629
 21
-68.9453
  0
LINE
  8
0
 10
-212.629
 20
-68.9453
 11
-212.789
 21
-68.6044
  0
LINE
  8
0
 10
-212.789
 20
-68.6044
 11
-212.906
 21
-68.2461
  0
LINE
  8
0
 10
-212.906
 20
-68.2461
 11
-212.976
 21
-67.876
  0
LINE
  8
0
 10
-212.976
 20
-67.876
 11
-213
 21
-67.5
  0
LINE
  8
0
 10
-213
 20
-67.5
 11
-212.976
 21
-67.124
  0
LINE
  8
0
 10
-212.976
 20
-67.124
 11
-212.906
 21
-66.7539
  0
LINE
  8
0
 10
-212.906
 20
-66.7539
 11
-212.789
 21
-66.3956
  0
LINE
  8
0
 10
-212.789
 20
-66.3956
 11
-212.629
 21
-66.0547
  0
LINE
  8
0
 10
-212.629
 20
-66.0547
 11
-212.427
 21
-65.7366
  0
LINE
  8
0
 10
-212.427
 20
-65.7366
 11
-212.187
 21
-65.4464
  0
LINE
  8
0
 10
-212.187
 20
-65.4464
 11
-211.912
 21
-65.1885
  0
LINE
  8
0
 10
-211.912
 20
-65.1885
 11
-211.607
 21
-64.967
  0
LINE
  8
0
 10
-211.607
 20
-64.967
 11
-211.277
 21
-64.7855
  0
LINE
  8
0
 10
-211.277
 20
-64.7855
 11
-210.927
 21
-64.6468
  0
LINE
  8
0
 10
-210.927
 20
-64.6468
 11
-210.562
 21
-64.5531
  0
LINE
  8
0
 10
-210.562
 20
-64.5531
 11
-210.188
 21
-64.5059
  0
LINE
  8
0
 10
-210.188
 20
-64.5059
 11
-209.812
 21
-64.5059
  0
LINE
  8
0
 10
-209.812
 20
-64.5059
 11
-209.438
 21
-64.5531
  0
LINE
  8
0
 10
-209.438
 20
-64.5531
 11
-209.073
 21
-64.6468
  0
LINE
  8
0
 10
-209.073
 20
-64.6468
 11
-208.723
 21
-64.7855
  0
LINE
  8
0
 10
-208.723
 20
-64.7855
 11
-208.393
 21
-64.967
  0
LINE
  8
0
 10
-208.393
 20
-64.967
 11
-208.088
 21
-65.1885
  0
LINE
  8
0
 10
-208.088
 20
-65.1885
 11
-207.813
 21
-65.4464
  0
LINE
  8
0
 10
-207.813
 20
-65.4464
 11
-207.573
 21
-65.7366
  0
LINE
  8
0
 10
-207.573
 20
-65.7366
 11
-207.371
 21
-66.0547
  0
LINE
  8
0
 10
-207.371
 20
-66.0547
 11
-207.211
 21
-66.3956
  0
LINE
  8
0
 10
-207.211
 20
-66.3956
 11
-207.094
 21
-66.7539
  0
LINE
  8
0
 10
-207.094
 20
-66.7539
 11
-207.024
 21
-67.124
  0
LINE
  8
0
 10
-207.024
 20
-67.124
 11
-207
 21
-67.5
  0
LINE
  8
0
 10
-207
 20
-67.5
 11
-207.024
 21
-67.876
  0
LINE
  8
0
 10
-207.024
 20
-67.876
 11
-207.094
 21
-68.2461
  0
LINE
  8
0
 10
-207.094
 20
-68.2461
 11
-207.211
 21
-68.6044
  0
LINE
  8
0
 10
-207.211
 20
-68.6044
 11
-207.371
 21
-68.9453
  0
LINE
  8
0
 10
-207.371
 20
-68.9453
 11
-207.573
 21
-69.2634
  0
LINE
  8
0
 10
-207.573
 20
-69.2634
 11
-207.813
 21
-69.5536
  0
LINE
  8
0
 10
-207.813
 20
-69.5536
 11
-208.088
 21
-69.8115
  0
LINE
  8
0
 10
-208.088
 20
-69.8115
 11
-208.393
 21
-70.033
  0
LINE
  8
0
 10
-208.393
 20
-70.033
 11
-208.723
 21
-70.2145
  0
LINE
  8
0
 10
-208.723
 20
-70.2145
 11
-209.073
 21
-70.3532
  0
LINE
  8
0
 10
-209.073
 20
-70.3532
 11
-209.438
 21
-70.4469
  0
LINE
  8
0
 10
-209.438
 20
-70.4469
 11
-209.812
 21
-70.4941
  0
LINE
  8
0
 10
-209.812
 20
-70.4941
 11
-210.188
 21
-70.4941
  0
LINE
  8
0
 10
209.812
 20
-70.4941
 11
209.438
 21
-70.4469
  0
LINE
  8
0
 10
209.438
 20
-70.4469
 11
209.073
 21
-70.3532
  0
LINE
  8
0
 10
209.073
 20
-70.3532
 11
208.723
 21
-70.2145
  0
LINE
  8
0
 10
208.723
 20
-70.2145
 11
208.393
 21
-70.033
  0
LINE
  8
0
 10
208.393
 20
-70.033
 11
208.088
 21
-69.8115
  0
LINE
  8
0
 10
208.088
 20
-69.8115
 11
207.813
 21
-69.5536
  0
LINE
  8
0
 10
207.813
 20
-69.5536
 11
207.573
 21
-69.2634
  0
LINE
  8
0
 10
207.573
 20
-69.2634
 11
207.371
 21
-68.9453
  0
LINE
  8
0
 10
207.371
 20
-68.9453
 11
207.211
 21
-68.6044
  0
LINE
  8
0
 10
207.211
 20
-68.6044
 11
207.094
 21
-68.2461
  0
LINE
  8
0
 10
207.094
 20
-68.2461
 11
207.024
 21
-67.876
  0
LINE
  8
0
 10
207.024
 20
-67.876
 11
207
 21
-67.5
  0
LINE
  8
0
 10
207
 20
-67.5
 11
207.024
 21
-67.124
  0
LINE
  8
0
 10
207.024
 20
-67.124
 11
207.094
 21
-66.7539
  0
LINE
  8
0
 10
207.094
 20
-66.7539
 11
207.211
 21
-66.3956
  0
LINE
  8
0
 10
207.211
 20
-66.3956
 11
207.371
 21
-66.0547
  0
LINE
  8
0
 10
207.371
 20
-66.0547
 11
207.573
 21
-65.7366
  0
LINE
  8
0
 10
207.573
 20
-65.7366
 11
207.813
 21
-65.4464
  0
LINE
  8
0
 10
207.813
 20
-65.4464
 11
208.088
 21
-65.1885
  0
LINE
  8
0
 10
208.088
 20
-65.1885
 11
208.393
 21
-64.967
  0
LINE
  8
0
 10
208.393
 20
-64.967
 11
208.723
 21
-64.7855
  0
LINE
  8
0
 10
208.723
 20
-64.7855
 11
209.073
 21
-64.6468
  0
LINE
  8
0
 10
209.073
 20
-64.6468
 11
209.438
 21
-64.5531
  0
LINE
  8
0
 10
209.438
 20
-64.5531
 11
209.812
 21
-64.5059
  0
LINE
  8
0
 10
209.812
 20
-64.5059
 11
210.188
 21
-64.5059
  0
LINE
  8
0
 10
210.188
 20
-64.5059
 11
210.562
 21
-64.5531
  0
LINE
  8
0
 10
210.562
 20
-64.5531
 11
210.927
 21
-64.6468
  0
LINE
  8
0
 10
210.927
 20
-64.6468
 11
211.277
 21
-64.7855
  0
LINE
  8
0
 10
211.277
 20
-64.7855
 11
211.607
 21
-64.967
  0
LINE
  8
0
 10
211.607
 20
-64.967
 11
211.912
 21
-65.1885
  0
LINE
  8
0
 10
211.912
 20
-65.1885
 11
212.187
 21
-65.4464
  0
LINE
  8
0
 10
212.187
 20
-65.4464
 11
212.427
 21
-65.7366
  0
LINE
  8
0
 10
212.427
 20
-65.7366
 11
212.629
 21
-66.0547
  0
LINE
  8
0
 10
212.629
 20
-66.0547
 11
212.789
 21
-66.3956
  0
LINE
  8
0
 10
212.789
 20
-66.3956
 11
212.906
 21
-66.7539
  0
LINE
  8
0
 10
212.906
 20
-66.7539
 11
212.976
 21
-67.124
  0
LINE
  8
0
 10
212.976
 20
-67.124
 11
213
 21
-67.5
  0
LINE
  8
0
 10
213
 20
-67.5
 11
212.976
 21
-67.876
  0
LINE
  8
0
 10
212.976
 20
-67.876
 11
212.906
 21
-68.2461
  0
LINE
  8
0
 10
212.906
 20
-68.2461
 11
212.789
 21
-68.6044
  0
LINE
  8
0
 10
212.789
 20
-68.6044
 11
212.629
 21
-68.9453
  0
LINE
  8
0
 10
212.629
 20
-68.9453
 11
212.427
 21
-69.2634
  0
LINE
  8
0
 10
212.427
 20
-69.2634
 11
212.187
 21
-69.5536
  0
LINE
  8
0
 10
212.187
 20
-69.5536
 11
211.912
 21
-69.8115
  0
LINE
  8
0
 10
211.912
 20
-69.8115
 11
211.607
 21
-70.033
  0
LINE
  8
0
 10
211.607
 20
-70.033
 11
211.277
 21
-70.2145
  0
LINE
  8
0
 10
211.277
 20
-70.2145
 11
210.927
 21
-70.3532
  0
LINE
  8
0
 10
210.927
 20
-70.3532
 11
210.562
 21
-70.4469
  0
LINE
  8
0
 10
210.562
 20
-70.4469
 11
210.188
 21
-70.4941
  0
LINE
  8
0
 10
210.188
 20
-70.4941
 11
209.812
 21
-70.4941
  0
ENDSEC
  0
SECTION
  2
OBJECTS
  0
DICTIONARY
  0
ENDSEC
  0
EOF
