  0
SECTION
  2
BLOCKS
  0
ENDSEC
  0
SECTION
  2
ENTITIES
  0
LINE
  8
0
 10
17.9369
 20
-14.4114
 11
18.5451
 21
-14.2553
  0
LINE
  8
0
 10
18.5451
 20
-14.2553
 11
19.1289
 21
-14.0241
  0
LINE
  8
0
 10
19.1289
 20
-14.0241
 11
19.6791
 21
-13.7216
  0
LINE
  8
0
 10
19.6791
 20
-13.7216
 11
20.1871
 21
-13.3526
  0
LINE
  8
0
 10
20.1871
 20
-13.3526
 11
20.6448
 21
-12.9227
  0
LINE
  8
0
 10
20.6448
 20
-12.9227
 11
21.0451
 21
-12.4389
  0
LINE
  8
0
 10
21.0451
 20
-12.4389
 11
21.3815
 21
-11.9088
  0
LINE
  8
0
 10
21.3815
 20
-11.9088
 11
21.6489
 21
-11.3406
  0
LINE
  8
0
 10
21.6489
 20
-11.3406
 11
21.8429
 21
-10.7434
  0
LINE
  8
0
 10
21.8429
 20
-10.7434
 11
21.9606
 21
-10.1267
  0
LINE
  8
0
 10
21.9606
 20
-10.1267
 11
22
 21
-9.5
  0
LINE
  8
0
 10
22
 20
-9.5
 11
22
 21
9.5
  0
LINE
  8
0
 10
22
 20
9.5
 11
21.9606
 21
10.1267
  0
LINE
  8
0
 10
21.9606
 20
10.1267
 11
21.8429
 21
10.7434
  0
LINE
  8
0
 10
21.8429
 20
10.7434
 11
21.6489
 21
11.3406
  0
LINE
  8
0
 10
21.6489
 20
11.3406
 11
21.3815
 21
11.9088
  0
LINE
  8
0
 10
21.3815
 20
11.9088
 11
21.0451
 21
12.4389
  0
LINE
  8
0
 10
21.0451
 20
12.4389
 11
20.6448
 21
12.9227
  0
LINE
  8
0
 10
20.6448
 20
12.9227
 11
20.1871
 21
13.3526
  0
LINE
  8
0
 10
20.1871
 20
13.3526
 11
19.6791
 21
13.7216
  0
LINE
  8
0
 10
19.6791
 20
13.7216
 11
19.1289
 21
14.0241
  0
LINE
  8
0
 10
19.1289
 20
14.0241
 11
18.5451
 21
14.2553
  0
LINE
  8
0
 10
18.5451
 20
14.2553
 11
17.9369
 21
14.4114
  0
LINE
  8
0
 10
17.9369
 20
14.4114
 11
17.3139
 21
14.4901
  0
LINE
  8
0
 10
17.3139
 20
14.4901
 11
-17.3139
 21
14.4901
  0
LINE
  8
0
 10
-17.3139
 20
14.4901
 11
-17.9369
 21
14.4114
  0
LINE
  8
0
 10
-17.9369
 20
14.4114
 11
-18.5451
 21
14.2553
  0
LINE
  8
0
 10
-18.5451
 20
14.2553
 11
-19.1289
 21
14.0241
  0
LINE
  8
0
 10
-19.1289
 20
14.0241
 11
-19.6791
 21
13.7216
  0
LINE
  8
0
 10
-19.6791
 20
13.7216
 11
-20.1871
 21
13.3526
  0
LINE
  8
0
 10
-20.1871
 20
13.3526
 11
-20.6448
 21
12.9227
  0
LINE
  8
0
 10
-20.6448
 20
12.9227
 11
-21.0451
 21
12.4389
  0
LINE
  8
0
 10
-21.0451
 20
12.4389
 11
-21.3815
 21
11.9088
  0
LINE
  8
0
 10
-21.3815
 20
11.9088
 11
-21.6489
 21
11.3406
  0
LINE
  8
0
 10
-21.6489
 20
11.3406
 11
-21.8429
 21
10.7434
  0
LINE
  8
0
 10
-21.8429
 20
10.7434
 11
-21.9606
 21
10.1267
  0
LINE
  8
0
 10
-21.9606
 20
10.1267
 11
-22
 21
9.5
  0
LINE
  8
0
 10
-22
 20
9.5
 11
-22
 21
-9.5
  0
LINE
  8
0
 10
-22
 20
-9.5
 11
-21.9606
 21
-10.1267
  0
LINE
  8
0
 10
-21.9606
 20
-10.1267
 11
-21.8429
 21
-10.7434
  0
LINE
  8
0
 10
-21.8429
 20
-10.7434
 11
-21.6489
 21
-11.3406
  0
LINE
  8
0
 10
-21.6489
 20
-11.3406
 11
-21.3815
 21
-11.9088
  0
LINE
  8
0
 10
-21.3815
 20
-11.9088
 11
-21.0451
 21
-12.4389
  0
LINE
  8
0
 10
-21.0451
 20
-12.4389
 11
-20.6448
 21
-12.9227
  0
LINE
  8
0
 10
-20.6448
 20
-12.9227
 11
-20.1871
 21
-13.3526
  0
LINE
  8
0
 10
-20.1871
 20
-13.3526
 11
-19.6791
 21
-13.7216
  0
LINE
  8
0
 10
-19.6791
 20
-13.7216
 11
-19.1289
 21
-14.0241
  0
LINE
  8
0
 10
-19.1289
 20
-14.0241
 11
-18.5451
 21
-14.2553
  0
LINE
  8
0
 10
-18.5451
 20
-14.2553
 11
-17.9369
 21
-14.4114
  0
LINE
  8
0
 10
-17.9369
 20
-14.4114
 11
-17.3139
 21
-14.4901
  0
LINE
  8
0
 10
-17.3139
 20
-14.4901
 11
17.3139
 21
-14.4901
  0
LINE
  8
0
 10
17.3139
 20
-14.4901
 11
17.9369
 21
-14.4114
  0
LINE
  8
0
 10
-0.722076
 20
-11.4773
 11
-2.15488
 21
-11.2963
  0
LINE
  8
0
 10
-2.15488
 20
-11.2963
 11
-3.55368
 21
-10.9371
  0
LINE
  8
0
 10
-3.55368
 20
-10.9371
 11
-4.89645
 21
-10.4055
  0
LINE
  8
0
 10
-4.89645
 20
-10.4055
 11
-6.162
 21
-9.70976
  0
LINE
  8
0
 10
-6.162
 20
-9.70976
 11
-7.33037
 21
-8.8609
  0
LINE
  8
0
 10
-7.33037
 20
-8.8609
 11
-8.38313
 21
-7.87228
  0
LINE
  8
0
 10
-8.38313
 20
-7.87228
 11
-9.30368
 21
-6.75952
  0
LINE
  8
0
 10
-9.30368
 20
-6.75952
 11
-10.0775
 21
-5.54016
  0
LINE
  8
0
 10
-10.0775
 20
-5.54016
 11
-10.6924
 21
-4.23343
  0
LINE
  8
0
 10
-10.6924
 20
-4.23343
 11
-11.1387
 21
-2.85992
  0
LINE
  8
0
 10
-11.1387
 20
-2.85992
 11
-11.4093
 21
-1.44133
  0
LINE
  8
0
 10
-11.4093
 20
-1.44133
 11
-11.5
 21
0
  0
LINE
  8
0
 10
-11.5
 20
0
 11
-11.4093
 21
1.44133
  0
LINE
  8
0
 10
-11.4093
 20
1.44133
 11
-11.1387
 21
2.85992
  0
LINE
  8
0
 10
-11.1387
 20
2.85992
 11
-10.6924
 21
4.23343
  0
LINE
  8
0
 10
-10.6924
 20
4.23343
 11
-10.0775
 21
5.54016
  0
LINE
  8
0
 10
-10.0775
 20
5.54016
 11
-9.30368
 21
6.75952
  0
LINE
  8
0
 10
-9.30368
 20
6.75952
 11
-8.38313
 21
7.87228
  0
LINE
  8
0
 10
-8.38313
 20
7.87228
 11
-7.33037
 21
8.8609
  0
LINE
  8
0
 10
-7.33037
 20
8.8609
 11
-6.162
 21
9.70976
  0
LINE
  8
0
 10
-6.162
 20
9.70976
 11
-4.89645
 21
10.4055
  0
LINE
  8
0
 10
-4.89645
 20
10.4055
 11
-3.55368
 21
10.9371
  0
LINE
  8
0
 10
-3.55368
 20
10.9371
 11
-2.15488
 21
11.2963
  0
LINE
  8
0
 10
-2.15488
 20
11.2963
 11
-0.722076
 21
11.4773
  0
LINE
  8
0
 10
-0.722076
 20
11.4773
 11
0.722076
 21
11.4773
  0
LINE
  8
0
 10
0.722076
 20
11.4773
 11
2.15488
 21
11.2963
  0
LINE
  8
0
 10
2.15488
 20
11.2963
 11
3.55368
 21
10.9371
  0
LINE
  8
0
 10
3.55368
 20
10.9371
 11
4.89645
 21
10.4055
  0
LINE
  8
0
 10
4.89645
 20
10.4055
 11
6.162
 21
9.70976
  0
LINE
  8
0
 10
6.162
 20
9.70976
 11
7.33037
 21
8.8609
  0
LINE
  8
0
 10
7.33037
 20
8.8609
 11
8.38313
 21
7.87228
  0
LINE
  8
0
 10
8.38313
 20
7.87228
 11
9.30368
 21
6.75952
  0
LINE
  8
0
 10
9.30368
 20
6.75952
 11
10.0775
 21
5.54016
  0
LINE
  8
0
 10
10.0775
 20
5.54016
 11
10.6924
 21
4.23343
  0
LINE
  8
0
 10
10.6924
 20
4.23343
 11
11.1387
 21
2.85992
  0
LINE
  8
0
 10
11.1387
 20
2.85992
 11
11.4093
 21
1.44133
  0
LINE
  8
0
 10
11.4093
 20
1.44133
 11
11.5
 21
0
  0
LINE
  8
0
 10
11.5
 20
0
 11
11.4093
 21
-1.44133
  0
LINE
  8
0
 10
11.4093
 20
-1.44133
 11
11.1387
 21
-2.85992
  0
LINE
  8
0
 10
11.1387
 20
-2.85992
 11
10.6924
 21
-4.23343
  0
LINE
  8
0
 10
10.6924
 20
-4.23343
 11
10.0775
 21
-5.54016
  0
LINE
  8
0
 10
10.0775
 20
-5.54016
 11
9.30368
 21
-6.75952
  0
LINE
  8
0
 10
9.30368
 20
-6.75952
 11
8.38313
 21
-7.87228
  0
LINE
  8
0
 10
8.38313
 20
-7.87228
 11
7.33037
 21
-8.8609
  0
LINE
  8
0
 10
7.33037
 20
-8.8609
 11
6.162
 21
-9.70976
  0
LINE
  8
0
 10
6.162
 20
-9.70976
 11
4.89645
 21
-10.4055
  0
LINE
  8
0
 10
4.89645
 20
-10.4055
 11
3.55368
 21
-10.9371
  0
LINE
  8
0
 10
3.55368
 20
-10.9371
 11
2.15488
 21
-11.2963
  0
LINE
  8
0
 10
2.15488
 20
-11.2963
 11
0.722076
 21
-11.4773
  0
LINE
  8
0
 10
0.722076
 20
-11.4773
 11
-0.722076
 21
-11.4773
  0
LINE
  8
0
 10
-15.1884
 20
4.50591
 11
-15.5621
 21
4.55313
  0
LINE
  8
0
 10
-15.5621
 20
4.55313
 11
-15.927
 21
4.64682
  0
LINE
  8
0
 10
-15.927
 20
4.64682
 11
-16.2773
 21
4.78551
  0
LINE
  8
0
 10
-16.2773
 20
4.78551
 11
-16.6075
 21
4.96701
  0
LINE
  8
0
 10
-16.6075
 20
4.96701
 11
-16.9123
 21
5.18845
  0
LINE
  8
0
 10
-16.9123
 20
5.18845
 11
-17.1869
 21
5.44635
  0
LINE
  8
0
 10
-17.1869
 20
5.44635
 11
-17.427
 21
5.73663
  0
LINE
  8
0
 10
-17.427
 20
5.73663
 11
-17.6289
 21
6.05473
  0
LINE
  8
0
 10
-17.6289
 20
6.05473
 11
-17.7893
 21
6.39561
  0
LINE
  8
0
 10
-17.7893
 20
6.39561
 11
-17.9057
 21
6.75392
  0
LINE
  8
0
 10
-17.9057
 20
6.75392
 11
-17.9763
 21
7.12399
  0
LINE
  8
0
 10
-17.9763
 20
7.12399
 11
-18
 21
7.5
  0
LINE
  8
0
 10
-18
 20
7.5
 11
-17.9763
 21
7.87599
  0
LINE
  8
0
 10
-17.9763
 20
7.87599
 11
-17.9057
 21
8.24606
  0
LINE
  8
0
 10
-17.9057
 20
8.24606
 11
-17.7893
 21
8.60437
  0
LINE
  8
0
 10
-17.7893
 20
8.60437
 11
-17.6289
 21
8.94525
  0
LINE
  8
0
 10
-17.6289
 20
8.94525
 11
-17.427
 21
9.26335
  0
LINE
  8
0
 10
-17.427
 20
9.26335
 11
-17.1869
 21
9.55363
  0
LINE
  8
0
 10
-17.1869
 20
9.55363
 11
-16.9123
 21
9.81154
  0
LINE
  8
0
 10
-16.9123
 20
9.81154
 11
-16.6075
 21
10.033
  0
LINE
  8
0
 10
-16.6075
 20
10.033
 11
-16.2773
 21
10.2145
  0
LINE
  8
0
 10
-16.2773
 20
10.2145
 11
-15.927
 21
10.3532
  0
LINE
  8
0
 10
-15.927
 20
10.3532
 11
-15.5621
 21
10.4469
  0
LINE
  8
0
 10
-15.5621
 20
10.4469
 11
-15.1884
 21
10.4941
  0
LINE
  8
0
 10
-15.1884
 20
10.4941
 11
-14.8116
 21
10.4941
  0
LINE
  8
0
 10
-14.8116
 20
10.4941
 11
-14.4379
 21
10.4469
  0
LINE
  8
0
 10
-14.4379
 20
10.4469
 11
-14.0729
 21
10.3532
  0
LINE
  8
0
 10
-14.0729
 20
10.3532
 11
-13.7227
 21
10.2145
  0
LINE
  8
0
 10
-13.7227
 20
10.2145
 11
-13.3925
 21
10.033
  0
LINE
  8
0
 10
-13.3925
 20
10.033
 11
-13.0877
 21
9.81154
  0
LINE
  8
0
 10
-13.0877
 20
9.81154
 11
-12.8131
 21
9.55363
  0
LINE
  8
0
 10
-12.8131
 20
9.55363
 11
-12.5729
 21
9.26335
  0
LINE
  8
0
 10
-12.5729
 20
9.26335
 11
-12.3711
 21
8.94525
  0
LINE
  8
0
 10
-12.3711
 20
8.94525
 11
-12.2107
 21
8.60437
  0
LINE
  8
0
 10
-12.2107
 20
8.60437
 11
-12.0942
 21
8.24606
  0
LINE
  8
0
 10
-12.0942
 20
8.24606
 11
-12.0237
 21
7.87599
  0
LINE
  8
0
 10
-12.0237
 20
7.87599
 11
-12
 21
7.5
  0
LINE
  8
0
 10
-12
 20
7.5
 11
-12.0237
 21
7.12399
  0
LINE
  8
0
 10
-12.0237
 20
7.12399
 11
-12.0942
 21
6.75392
  0
LINE
  8
0
 10
-12.0942
 20
6.75392
 11
-12.2107
 21
6.39561
  0
LINE
  8
0
 10
-12.2107
 20
6.39561
 11
-12.3711
 21
6.05473
  0
LINE
  8
0
 10
-12.3711
 20
6.05473
 11
-12.5729
 21
5.73663
  0
LINE
  8
0
 10
-12.5729
 20
5.73663
 11
-12.8131
 21
5.44635
  0
LINE
  8
0
 10
-12.8131
 20
5.44635
 11
-13.0877
 21
5.18845
  0
LINE
  8
0
 10
-13.0877
 20
5.18845
 11
-13.3925
 21
4.96701
  0
LINE
  8
0
 10
-13.3925
 20
4.96701
 11
-13.7227
 21
4.78551
  0
LINE
  8
0
 10
-13.7227
 20
4.78551
 11
-14.0729
 21
4.64682
  0
LINE
  8
0
 10
-14.0729
 20
4.64682
 11
-14.4379
 21
4.55313
  0
LINE
  8
0
 10
-14.4379
 20
4.55313
 11
-14.8116
 21
4.50591
  0
LINE
  8
0
 10
-14.8116
 20
4.50591
 11
-15.1884
 21
4.50591
  0
LINE
  8
0
 10
14.8116
 20
4.50591
 11
14.4379
 21
4.55313
  0
LINE
  8
0
 10
14.4379
 20
4.55313
 11
14.0729
 21
4.64682
  0
LINE
  8
0
 10
14.0729
 20
4.64682
 11
13.7227
 21
4.78551
  0
LINE
  8
0
 10
13.7227
 20
4.78551
 11
13.3925
 21
4.96701
  0
LINE
  8
0
 10
13.3925
 20
4.96701
 11
13.0877
 21
5.18845
  0
LINE
  8
0
 10
13.0877
 20
5.18845
 11
12.8131
 21
5.44635
  0
LINE
  8
0
 10
12.8131
 20
5.44635
 11
12.5729
 21
5.73663
  0
LINE
  8
0
 10
12.5729
 20
5.73663
 11
12.3711
 21
6.05473
  0
LINE
  8
0
 10
12.3711
 20
6.05473
 11
12.2107
 21
6.39561
  0
LINE
  8
0
 10
12.2107
 20
6.39561
 11
12.0942
 21
6.75392
  0
LINE
  8
0
 10
12.0942
 20
6.75392
 11
12.0237
 21
7.12399
  0
LINE
  8
0
 10
12.0237
 20
7.12399
 11
12
 21
7.5
  0
LINE
  8
0
 10
12
 20
7.5
 11
12.0237
 21
7.87599
  0
LINE
  8
0
 10
12.0237
 20
7.87599
 11
12.0942
 21
8.24606
  0
LINE
  8
0
 10
12.0942
 20
8.24606
 11
12.2107
 21
8.60437
  0
LINE
  8
0
 10
12.2107
 20
8.60437
 11
12.3711
 21
8.94525
  0
LINE
  8
0
 10
12.3711
 20
8.94525
 11
12.5729
 21
9.26335
  0
LINE
  8
0
 10
12.5729
 20
9.26335
 11
12.8131
 21
9.55363
  0
LINE
  8
0
 10
12.8131
 20
9.55363
 11
13.0877
 21
9.81154
  0
LINE
  8
0
 10
13.0877
 20
9.81154
 11
13.3925
 21
10.033
  0
LINE
  8
0
 10
13.3925
 20
10.033
 11
13.7227
 21
10.2145
  0
LINE
  8
0
 10
13.7227
 20
10.2145
 11
14.0729
 21
10.3532
  0
LINE
  8
0
 10
14.0729
 20
10.3532
 11
14.4379
 21
10.4469
  0
LINE
  8
0
 10
14.4379
 20
10.4469
 11
14.8116
 21
10.4941
  0
LINE
  8
0
 10
14.8116
 20
10.4941
 11
15.1884
 21
10.4941
  0
LINE
  8
0
 10
15.1884
 20
10.4941
 11
15.5621
 21
10.4469
  0
LINE
  8
0
 10
15.5621
 20
10.4469
 11
15.927
 21
10.3532
  0
LINE
  8
0
 10
15.927
 20
10.3532
 11
16.2773
 21
10.2145
  0
LINE
  8
0
 10
16.2773
 20
10.2145
 11
16.6075
 21
10.033
  0
LINE
  8
0
 10
16.6075
 20
10.033
 11
16.9123
 21
9.81154
  0
LINE
  8
0
 10
16.9123
 20
9.81154
 11
17.1869
 21
9.55363
  0
LINE
  8
0
 10
17.1869
 20
9.55363
 11
17.427
 21
9.26335
  0
LINE
  8
0
 10
17.427
 20
9.26335
 11
17.6289
 21
8.94525
  0
LINE
  8
0
 10
17.6289
 20
8.94525
 11
17.7893
 21
8.60437
  0
LINE
  8
0
 10
17.7893
 20
8.60437
 11
17.9057
 21
8.24606
  0
LINE
  8
0
 10
17.9057
 20
8.24606
 11
17.9763
 21
7.87599
  0
LINE
  8
0
 10
17.9763
 20
7.87599
 11
18
 21
7.5
  0
LINE
  8
0
 10
18
 20
7.5
 11
17.9763
 21
7.12399
  0
LINE
  8
0
 10
17.9763
 20
7.12399
 11
17.9057
 21
6.75392
  0
LINE
  8
0
 10
17.9057
 20
6.75392
 11
17.7893
 21
6.39561
  0
LINE
  8
0
 10
17.7893
 20
6.39561
 11
17.6289
 21
6.05473
  0
LINE
  8
0
 10
17.6289
 20
6.05473
 11
17.427
 21
5.73663
  0
LINE
  8
0
 10
17.427
 20
5.73663
 11
17.1869
 21
5.44635
  0
LINE
  8
0
 10
17.1869
 20
5.44635
 11
16.9123
 21
5.18845
  0
LINE
  8
0
 10
16.9123
 20
5.18845
 11
16.6075
 21
4.96701
  0
LINE
  8
0
 10
16.6075
 20
4.96701
 11
16.2773
 21
4.78551
  0
LINE
  8
0
 10
16.2773
 20
4.78551
 11
15.927
 21
4.64682
  0
LINE
  8
0
 10
15.927
 20
4.64682
 11
15.5621
 21
4.55313
  0
LINE
  8
0
 10
15.5621
 20
4.55313
 11
15.1884
 21
4.50591
  0
LINE
  8
0
 10
15.1884
 20
4.50591
 11
14.8116
 21
4.50591
  0
LINE
  8
0
 10
-15.1884
 20
-10.4941
 11
-15.5621
 21
-10.4469
  0
LINE
  8
0
 10
-15.5621
 20
-10.4469
 11
-15.927
 21
-10.3532
  0
LINE
  8
0
 10
-15.927
 20
-10.3532
 11
-16.2773
 21
-10.2145
  0
LINE
  8
0
 10
-16.2773
 20
-10.2145
 11
-16.6075
 21
-10.033
  0
LINE
  8
0
 10
-16.6075
 20
-10.033
 11
-16.9123
 21
-9.81154
  0
LINE
  8
0
 10
-16.9123
 20
-9.81154
 11
-17.1869
 21
-9.55363
  0
LINE
  8
0
 10
-17.1869
 20
-9.55363
 11
-17.427
 21
-9.26335
  0
LINE
  8
0
 10
-17.427
 20
-9.26335
 11
-17.6289
 21
-8.94525
  0
LINE
  8
0
 10
-17.6289
 20
-8.94525
 11
-17.7893
 21
-8.60437
  0
LINE
  8
0
 10
-17.7893
 20
-8.60437
 11
-17.9057
 21
-8.24606
  0
LINE
  8
0
 10
-17.9057
 20
-8.24606
 11
-17.9763
 21
-7.87599
  0
LINE
  8
0
 10
-17.9763
 20
-7.87599
 11
-18
 21
-7.5
  0
LINE
  8
0
 10
-18
 20
-7.5
 11
-17.9763
 21
-7.12399
  0
LINE
  8
0
 10
-17.9763
 20
-7.12399
 11
-17.9057
 21
-6.75392
  0
LINE
  8
0
 10
-17.9057
 20
-6.75392
 11
-17.7893
 21
-6.39561
  0
LINE
  8
0
 10
-17.7893
 20
-6.39561
 11
-17.6289
 21
-6.05473
  0
LINE
  8
0
 10
-17.6289
 20
-6.05473
 11
-17.427
 21
-5.73663
  0
LINE
  8
0
 10
-17.427
 20
-5.73663
 11
-17.1869
 21
-5.44635
  0
LINE
  8
0
 10
-17.1869
 20
-5.44635
 11
-16.9123
 21
-5.18845
  0
LINE
  8
0
 10
-16.9123
 20
-5.18845
 11
-16.6075
 21
-4.96701
  0
LINE
  8
0
 10
-16.6075
 20
-4.96701
 11
-16.2773
 21
-4.78551
  0
LINE
  8
0
 10
-16.2773
 20
-4.78551
 11
-15.927
 21
-4.64682
  0
LINE
  8
0
 10
-15.927
 20
-4.64682
 11
-15.5621
 21
-4.55313
  0
LINE
  8
0
 10
-15.5621
 20
-4.55313
 11
-15.1884
 21
-4.50591
  0
LINE
  8
0
 10
-15.1884
 20
-4.50591
 11
-14.8116
 21
-4.50591
  0
LINE
  8
0
 10
-14.8116
 20
-4.50591
 11
-14.4379
 21
-4.55313
  0
LINE
  8
0
 10
-14.4379
 20
-4.55313
 11
-14.0729
 21
-4.64682
  0
LINE
  8
0
 10
-14.0729
 20
-4.64682
 11
-13.7227
 21
-4.78551
  0
LINE
  8
0
 10
-13.7227
 20
-4.78551
 11
-13.3925
 21
-4.96701
  0
LINE
  8
0
 10
-13.3925
 20
-4.96701
 11
-13.0877
 21
-5.18845
  0
LINE
  8
0
 10
-13.0877
 20
-5.18845
 11
-12.8131
 21
-5.44635
  0
LINE
  8
0
 10
-12.8131
 20
-5.44635
 11
-12.5729
 21
-5.73663
  0
LINE
  8
0
 10
-12.5729
 20
-5.73663
 11
-12.3711
 21
-6.05473
  0
LINE
  8
0
 10
-12.3711
 20
-6.05473
 11
-12.2107
 21
-6.39561
  0
LINE
  8
0
 10
-12.2107
 20
-6.39561
 11
-12.0942
 21
-6.75392
  0
LINE
  8
0
 10
-12.0942
 20
-6.75392
 11
-12.0237
 21
-7.12399
  0
LINE
  8
0
 10
-12.0237
 20
-7.12399
 11
-12
 21
-7.5
  0
LINE
  8
0
 10
-12
 20
-7.5
 11
-12.0237
 21
-7.87599
  0
LINE
  8
0
 10
-12.0237
 20
-7.87599
 11
-12.0942
 21
-8.24606
  0
LINE
  8
0
 10
-12.0942
 20
-8.24606
 11
-12.2107
 21
-8.60437
  0
LINE
  8
0
 10
-12.2107
 20
-8.60437
 11
-12.3711
 21
-8.94525
  0
LINE
  8
0
 10
-12.3711
 20
-8.94525
 11
-12.5729
 21
-9.26335
  0
LINE
  8
0
 10
-12.5729
 20
-9.26335
 11
-12.8131
 21
-9.55363
  0
LINE
  8
0
 10
-12.8131
 20
-9.55363
 11
-13.0877
 21
-9.81154
  0
LINE
  8
0
 10
-13.0877
 20
-9.81154
 11
-13.3925
 21
-10.033
  0
LINE
  8
0
 10
-13.3925
 20
-10.033
 11
-13.7227
 21
-10.2145
  0
LINE
  8
0
 10
-13.7227
 20
-10.2145
 11
-14.0729
 21
-10.3532
  0
LINE
  8
0
 10
-14.0729
 20
-10.3532
 11
-14.4379
 21
-10.4469
  0
LINE
  8
0
 10
-14.4379
 20
-10.4469
 11
-14.8116
 21
-10.4941
  0
LINE
  8
0
 10
-14.8116
 20
-10.4941
 11
-15.1884
 21
-10.4941
  0
LINE
  8
0
 10
14.8116
 20
-10.4941
 11
14.4379
 21
-10.4469
  0
LINE
  8
0
 10
14.4379
 20
-10.4469
 11
14.0729
 21
-10.3532
  0
LINE
  8
0
 10
14.0729
 20
-10.3532
 11
13.7227
 21
-10.2145
  0
LINE
  8
0
 10
13.7227
 20
-10.2145
 11
13.3925
 21
-10.033
  0
LINE
  8
0
 10
13.3925
 20
-10.033
 11
13.0877
 21
-9.81154
  0
LINE
  8
0
 10
13.0877
 20
-9.81154
 11
12.8131
 21
-9.55363
  0
LINE
  8
0
 10
12.8131
 20
-9.55363
 11
12.5729
 21
-9.26335
  0
LINE
  8
0
 10
12.5729
 20
-9.26335
 11
12.3711
 21
-8.94525
  0
LINE
  8
0
 10
12.3711
 20
-8.94525
 11
12.2107
 21
-8.60437
  0
LINE
  8
0
 10
12.2107
 20
-8.60437
 11
12.0942
 21
-8.24606
  0
LINE
  8
0
 10
12.0942
 20
-8.24606
 11
12.0237
 21
-7.87599
  0
LINE
  8
0
 10
12.0237
 20
-7.87599
 11
12
 21
-7.5
  0
LINE
  8
0
 10
12
 20
-7.5
 11
12.0237
 21
-7.12399
  0
LINE
  8
0
 10
12.0237
 20
-7.12399
 11
12.0942
 21
-6.75392
  0
LINE
  8
0
 10
12.0942
 20
-6.75392
 11
12.2107
 21
-6.39561
  0
LINE
  8
0
 10
12.2107
 20
-6.39561
 11
12.3711
 21
-6.05473
  0
LINE
  8
0
 10
12.3711
 20
-6.05473
 11
12.5729
 21
-5.73663
  0
LINE
  8
0
 10
12.5729
 20
-5.73663
 11
12.8131
 21
-5.44635
  0
LINE
  8
0
 10
12.8131
 20
-5.44635
 11
13.0877
 21
-5.18845
  0
LINE
  8
0
 10
13.0877
 20
-5.18845
 11
13.3925
 21
-4.96701
  0
LINE
  8
0
 10
13.3925
 20
-4.96701
 11
13.7227
 21
-4.78551
  0
LINE
  8
0
 10
13.7227
 20
-4.78551
 11
14.0729
 21
-4.64682
  0
LINE
  8
0
 10
14.0729
 20
-4.64682
 11
14.4379
 21
-4.55313
  0
LINE
  8
0
 10
14.4379
 20
-4.55313
 11
14.8116
 21
-4.50591
  0
LINE
  8
0
 10
14.8116
 20
-4.50591
 11
15.1884
 21
-4.50591
  0
LINE
  8
0
 10
15.1884
 20
-4.50591
 11
15.5621
 21
-4.55313
  0
LINE
  8
0
 10
15.5621
 20
-4.55313
 11
15.927
 21
-4.64682
  0
LINE
  8
0
 10
15.927
 20
-4.64682
 11
16.2773
 21
-4.78551
  0
LINE
  8
0
 10
16.2773
 20
-4.78551
 11
16.6075
 21
-4.96701
  0
LINE
  8
0
 10
16.6075
 20
-4.96701
 11
16.9123
 21
-5.18845
  0
LINE
  8
0
 10
16.9123
 20
-5.18845
 11
17.1869
 21
-5.44635
  0
LINE
  8
0
 10
17.1869
 20
-5.44635
 11
17.427
 21
-5.73663
  0
LINE
  8
0
 10
17.427
 20
-5.73663
 11
17.6289
 21
-6.05473
  0
LINE
  8
0
 10
17.6289
 20
-6.05473
 11
17.7893
 21
-6.39561
  0
LINE
  8
0
 10
17.7893
 20
-6.39561
 11
17.9057
 21
-6.75392
  0
LINE
  8
0
 10
17.9057
 20
-6.75392
 11
17.9763
 21
-7.12399
  0
LINE
  8
0
 10
17.9763
 20
-7.12399
 11
18
 21
-7.5
  0
LINE
  8
0
 10
18
 20
-7.5
 11
17.9763
 21
-7.87599
  0
LINE
  8
0
 10
17.9763
 20
-7.87599
 11
17.9057
 21
-8.24606
  0
LINE
  8
0
 10
17.9057
 20
-8.24606
 11
17.7893
 21
-8.60437
  0
LINE
  8
0
 10
17.7893
 20
-8.60437
 11
17.6289
 21
-8.94525
  0
LINE
  8
0
 10
17.6289
 20
-8.94525
 11
17.427
 21
-9.26335
  0
LINE
  8
0
 10
17.427
 20
-9.26335
 11
17.1869
 21
-9.55363
  0
LINE
  8
0
 10
17.1869
 20
-9.55363
 11
16.9123
 21
-9.81154
  0
LINE
  8
0
 10
16.9123
 20
-9.81154
 11
16.6075
 21
-10.033
  0
LINE
  8
0
 10
16.6075
 20
-10.033
 11
16.2773
 21
-10.2145
  0
LINE
  8
0
 10
16.2773
 20
-10.2145
 11
15.927
 21
-10.3532
  0
LINE
  8
0
 10
15.927
 20
-10.3532
 11
15.5621
 21
-10.4469
  0
LINE
  8
0
 10
15.5621
 20
-10.4469
 11
15.1884
 21
-10.4941
  0
LINE
  8
0
 10
15.1884
 20
-10.4941
 11
14.8116
 21
-10.4941
  0
ENDSEC
  0
SECTION
  2
OBJECTS
  0
DICTIONARY
  0
ENDSEC
  0
EOF
