<?xml version="1.0" standalone="no"?>
<!DOCTYPE svg PUBLIC "-//W3C//DTD SVG 1.1//EN" "http://www.w3.org/Graphics/SVG/1.1/DTD/svg11.dtd">
<svg width="74mm" height="30mm" viewBox="-37 -54 74 30" xmlns="http://www.w3.org/2000/svg" version="1.1">
<title>OpenSCAD Model</title>
<path d="
M 32.9369,-24.5886 L 33.5451,-24.7447 L 34.1289,-24.9759 L 34.6791,-25.2784 L 35.1871,-25.6474 L 35.6448,-26.0773
 L 36.0451,-26.5611 L 36.3815,-27.0912 L 36.6489,-27.6594 L 36.8429,-28.2566 L 36.9606,-28.8733 L 37,-29.5
 L 37,-48.5 L 36.9606,-49.1267 L 36.8429,-49.7434 L 36.6489,-50.3406 L 36.3815,-50.9088 L 36.0451,-51.4389
 L 35.6448,-51.9227 L 35.1871,-52.3526 L 34.6791,-52.7216 L 34.1289,-53.0241 L 33.5451,-53.2553 L 32.9369,-53.4114
 L 32.3139,-53.4901 L -32.3139,-53.4901 L -32.9369,-53.4114 L -33.5451,-53.2553 L -34.1289,-53.0241 L -34.6791,-52.7216
 L -35.1871,-52.3526 L -35.6448,-51.9227 L -36.0451,-51.4389 L -36.3815,-50.9088 L -36.6489,-50.3406 L -36.8429,-49.7434
 L -36.9606,-49.1267 L -37,-48.5 L -37,-29.5 L -36.9606,-28.8733 L -36.8429,-28.2566 L -36.6489,-27.6594
 L -36.3815,-27.0912 L -36.0451,-26.5611 L -35.6448,-26.0773 L -35.1871,-25.6474 L -34.6791,-25.2784 L -34.1289,-24.9759
 L -33.5451,-24.7447 L -32.9369,-24.5886 L -32.3139,-24.5099 L 32.3139,-24.5099 z
M 13.2779,-27.5227 L 11.8451,-27.7037 L 10.4463,-28.0629 L 9.10353,-28.5945 L 7.83798,-29.2902 L 6.66962,-30.1391
 L 5.61685,-31.1277 L 4.6963,-32.2405 L 3.92247,-33.4598 L 3.30756,-34.7666 L 2.86128,-36.1401 L 2.59067,-37.5587
 L 2.5,-39 L 2.59067,-40.4413 L 2.86128,-41.8599 L 3.30756,-43.2334 L 3.92247,-44.5402 L 4.6963,-45.7595
 L 5.61685,-46.8723 L 6.66962,-47.8609 L 7.83798,-48.7098 L 9.10353,-49.4055 L 10.4463,-49.9371 L 11.8451,-50.2963
 L 13.2779,-50.4773 L 14.7221,-50.4773 L 16.1549,-50.2963 L 17.5537,-49.9371 L 18.8965,-49.4055 L 20.162,-48.7098
 L 21.3304,-47.8609 L 22.3831,-46.8723 L 23.3037,-45.7595 L 24.0775,-44.5402 L 24.6924,-43.2334 L 25.1387,-41.8599
 L 25.4093,-40.4413 L 25.5,-39 L 25.4093,-37.5587 L 25.1387,-36.1401 L 24.6924,-34.7666 L 24.0775,-33.4598
 L 23.3037,-32.2405 L 22.3831,-31.1277 L 21.3304,-30.1391 L 20.162,-29.2902 L 18.8965,-28.5945 L 17.5537,-28.0629
 L 16.1549,-27.7037 L 14.7221,-27.5227 z
M -14.7221,-27.5227 L -16.1549,-27.7037 L -17.5537,-28.0629 L -18.8965,-28.5945 L -20.162,-29.2902 L -21.3304,-30.1391
 L -22.3831,-31.1277 L -23.3037,-32.2405 L -24.0775,-33.4598 L -24.6924,-34.7666 L -25.1387,-36.1401 L -25.4093,-37.5587
 L -25.5,-39 L -25.4093,-40.4413 L -25.1387,-41.8599 L -24.6924,-43.2334 L -24.0775,-44.5402 L -23.3037,-45.7595
 L -22.3831,-46.8723 L -21.3304,-47.8609 L -20.162,-48.7098 L -18.8965,-49.4055 L -17.5537,-49.9371 L -16.1549,-50.2963
 L -14.7221,-50.4773 L -13.2779,-50.4773 L -11.8451,-50.2963 L -10.4463,-49.9371 L -9.10353,-49.4055 L -7.83798,-48.7098
 L -6.66962,-47.8609 L -5.61685,-46.8723 L -4.6963,-45.7595 L -3.92247,-44.5402 L -3.30756,-43.2334 L -2.86128,-41.8599
 L -2.59067,-40.4413 L -2.5,-39 L -2.59067,-37.5587 L -2.86128,-36.1401 L -3.30756,-34.7666 L -3.92247,-33.4598
 L -4.6963,-32.2405 L -5.61685,-31.1277 L -6.66962,-30.1391 L -7.83798,-29.2902 L -9.10353,-28.5945 L -10.4463,-28.0629
 L -11.8451,-27.7037 L -13.2779,-27.5227 z
M 29.8116,-43.5059 L 29.4379,-43.5531 L 29.0729,-43.6468 L 28.7227,-43.7855 L 28.3925,-43.967 L 28.0877,-44.1884
 L 27.8131,-44.4464 L 27.5729,-44.7366 L 27.3711,-45.0547 L 27.2107,-45.3956 L 27.0942,-45.7539 L 27.0237,-46.124
 L 27,-46.5 L 27.0237,-46.876 L 27.0942,-47.2461 L 27.2107,-47.6044 L 27.3711,-47.9453 L 27.5729,-48.2634
 L 27.8131,-48.5536 L 28.0877,-48.8115 L 28.3925,-49.033 L 28.7227,-49.2145 L 29.0729,-49.3532 L 29.4379,-49.4469
 L 29.8116,-49.4941 L 30.1884,-49.4941 L 30.5621,-49.4469 L 30.927,-49.3532 L 31.2773,-49.2145 L 31.6075,-49.033
 L 31.9123,-48.8115 L 32.1869,-48.5536 L 32.427,-48.2634 L 32.6289,-47.9453 L 32.7893,-47.6044 L 32.9057,-47.2461
 L 32.9763,-46.876 L 33,-46.5 L 32.9763,-46.124 L 32.9057,-45.7539 L 32.7893,-45.3956 L 32.6289,-45.0547
 L 32.427,-44.7366 L 32.1869,-44.4464 L 31.9123,-44.1884 L 31.6075,-43.967 L 31.2773,-43.7855 L 30.927,-43.6468
 L 30.5621,-43.5531 L 30.1884,-43.5059 z
M -30.1884,-43.5059 L -30.5621,-43.5531 L -30.927,-43.6468 L -31.2773,-43.7855 L -31.6075,-43.967 L -31.9123,-44.1884
 L -32.1869,-44.4464 L -32.427,-44.7366 L -32.6289,-45.0547 L -32.7893,-45.3956 L -32.9057,-45.7539 L -32.9763,-46.124
 L -33,-46.5 L -32.9763,-46.876 L -32.9057,-47.2461 L -32.7893,-47.6044 L -32.6289,-47.9453 L -32.427,-48.2634
 L -32.1869,-48.5536 L -31.9123,-48.8115 L -31.6075,-49.033 L -31.2773,-49.2145 L -30.927,-49.3532 L -30.5621,-49.4469
 L -30.1884,-49.4941 L -29.8116,-49.4941 L -29.4379,-49.4469 L -29.0729,-49.3532 L -28.7227,-49.2145 L -28.3925,-49.033
 L -28.0877,-48.8115 L -27.8131,-48.5536 L -27.5729,-48.2634 L -27.3711,-47.9453 L -27.2107,-47.6044 L -27.0942,-47.2461
 L -27.0237,-46.876 L -27,-46.5 L -27.0237,-46.124 L -27.0942,-45.7539 L -27.2107,-45.3956 L -27.3711,-45.0547
 L -27.5729,-44.7366 L -27.8131,-44.4464 L -28.0877,-44.1884 L -28.3925,-43.967 L -28.7227,-43.7855 L -29.0729,-43.6468
 L -29.4379,-43.5531 L -29.8116,-43.5059 z
M 29.9058,-37.503 L 29.7189,-37.5266 L 29.5365,-37.5734 L 29.3613,-37.6428 L 29.1963,-37.7335 L 29.0439,-37.8442
 L 28.9065,-37.9732 L 28.7865,-38.1183 L 28.6855,-38.2774 L 28.6053,-38.4478 L 28.5471,-38.627 L 28.5118,-38.812
 L 28.5,-39 L 28.5118,-39.188 L 28.5471,-39.373 L 28.6053,-39.5522 L 28.6855,-39.7226 L 28.7865,-39.8817
 L 28.9065,-40.0268 L 29.0439,-40.1558 L 29.1963,-40.2665 L 29.3613,-40.3572 L 29.5365,-40.4266 L 29.7189,-40.4734
 L 29.9058,-40.497 L 30.0942,-40.497 L 30.2811,-40.4734 L 30.4635,-40.4266 L 30.6387,-40.3572 L 30.8037,-40.2665
 L 30.9561,-40.1558 L 31.0934,-40.0268 L 31.2135,-39.8817 L 31.3145,-39.7226 L 31.3947,-39.5522 L 31.4529,-39.373
 L 31.4882,-39.188 L 31.5,-39 L 31.4882,-38.812 L 31.4529,-38.627 L 31.3947,-38.4478 L 31.3145,-38.2774
 L 31.2135,-38.1183 L 31.0934,-37.9732 L 30.9561,-37.8442 L 30.8037,-37.7335 L 30.6387,-37.6428 L 30.4635,-37.5734
 L 30.2811,-37.5266 L 30.0942,-37.503 z
M -30.0942,-37.503 L -30.2811,-37.5266 L -30.4635,-37.5734 L -30.6387,-37.6428 L -30.8037,-37.7335 L -30.9561,-37.8442
 L -31.0934,-37.9732 L -31.2135,-38.1183 L -31.3145,-38.2774 L -31.3947,-38.4478 L -31.4529,-38.627 L -31.4882,-38.812
 L -31.5,-39 L -31.4882,-39.188 L -31.4529,-39.373 L -31.3947,-39.5522 L -31.3145,-39.7226 L -31.2135,-39.8817
 L -31.0934,-40.0268 L -30.9561,-40.1558 L -30.8037,-40.2665 L -30.6387,-40.3572 L -30.4635,-40.4266 L -30.2811,-40.4734
 L -30.0942,-40.497 L -29.9058,-40.497 L -29.7189,-40.4734 L -29.5365,-40.4266 L -29.3613,-40.3572 L -29.1963,-40.2665
 L -29.0439,-40.1558 L -28.9065,-40.0268 L -28.7865,-39.8817 L -28.6855,-39.7226 L -28.6053,-39.5522 L -28.5471,-39.373
 L -28.5118,-39.188 L -28.5,-39 L -28.5118,-38.812 L -28.5471,-38.627 L -28.6053,-38.4478 L -28.6855,-38.2774
 L -28.7865,-38.1183 L -28.9065,-37.9732 L -29.0439,-37.8442 L -29.1963,-37.7335 L -29.3613,-37.6428 L -29.5365,-37.5734
 L -29.7189,-37.5266 L -29.9058,-37.503 z
M 29.8116,-28.5059 L 29.4379,-28.5531 L 29.0729,-28.6468 L 28.7227,-28.7855 L 28.3925,-28.967 L 28.0877,-29.1885
 L 27.8131,-29.4464 L 27.5729,-29.7366 L 27.3711,-30.0547 L 27.2107,-30.3956 L 27.0942,-30.7539 L 27.0237,-31.124
 L 27,-31.5 L 27.0237,-31.876 L 27.0942,-32.2461 L 27.2107,-32.6044 L 27.3711,-32.9453 L 27.5729,-33.2634
 L 27.8131,-33.5536 L 28.0877,-33.8116 L 28.3925,-34.033 L 28.7227,-34.2145 L 29.0729,-34.3532 L 29.4379,-34.4469
 L 29.8116,-34.4941 L 30.1884,-34.4941 L 30.5621,-34.4469 L 30.927,-34.3532 L 31.2773,-34.2145 L 31.6075,-34.033
 L 31.9123,-33.8116 L 32.1869,-33.5536 L 32.427,-33.2634 L 32.6289,-32.9453 L 32.7893,-32.6044 L 32.9057,-32.2461
 L 32.9763,-31.876 L 33,-31.5 L 32.9763,-31.124 L 32.9057,-30.7539 L 32.7893,-30.3956 L 32.6289,-30.0547
 L 32.427,-29.7366 L 32.1869,-29.4464 L 31.9123,-29.1885 L 31.6075,-28.967 L 31.2773,-28.7855 L 30.927,-28.6468
 L 30.5621,-28.5531 L 30.1884,-28.5059 z
M -30.1884,-28.5059 L -30.5621,-28.5531 L -30.927,-28.6468 L -31.2773,-28.7855 L -31.6075,-28.967 L -31.9123,-29.1885
 L -32.1869,-29.4464 L -32.427,-29.7366 L -32.6289,-30.0547 L -32.7893,-30.3956 L -32.9057,-30.7539 L -32.9763,-31.124
 L -33,-31.5 L -32.9763,-31.876 L -32.9057,-32.2461 L -32.7893,-32.6044 L -32.6289,-32.9453 L -32.427,-33.2634
 L -32.1869,-33.5536 L -31.9123,-33.8116 L -31.6075,-34.033 L -31.2773,-34.2145 L -30.927,-34.3532 L -30.5621,-34.4469
 L -30.1884,-34.4941 L -29.8116,-34.4941 L -29.4379,-34.4469 L -29.0729,-34.3532 L -28.7227,-34.2145 L -28.3925,-34.033
 L -28.0877,-33.8116 L -27.8131,-33.5536 L -27.5729,-33.2634 L -27.3711,-32.9453 L -27.2107,-32.6044 L -27.0942,-32.2461
 L -27.0237,-31.876 L -27,-31.5 L -27.0237,-31.124 L -27.0942,-30.7539 L -27.2107,-30.3956 L -27.3711,-30.0547
 L -27.5729,-29.7366 L -27.8131,-29.4464 L -28.0877,-29.1885 L -28.3925,-28.967 L -28.7227,-28.7855 L -29.0729,-28.6468
 L -29.4379,-28.5531 L -29.8116,-28.5059 z
" stroke="black" fill="lightgray" stroke-width="0.5"/>
</svg>
