<?xml version="1.0" standalone="no"?>
<!DOCTYPE svg PUBLIC "-//W3C//DTD SVG 1.1//EN" "http://www.w3.org/Graphics/SVG/1.1/DTD/svg11.dtd">
<svg width="104mm" height="44mm" viewBox="-52 -76 104 44" xmlns="http://www.w3.org/2000/svg" version="1.1">
<title>OpenSCAD Model</title>
<path d="
M 47.9369,-32.0886 L 48.5451,-32.2447 L 49.1289,-32.4759 L 49.6791,-32.7784 L 50.1871,-33.1474 L 50.6448,-33.5773
 L 51.0451,-34.0611 L 51.3815,-34.5912 L 51.6489,-35.1594 L 51.8429,-35.7566 L 51.9606,-36.3733 L 52,-37
 L 52,-71 L 51.9606,-71.6267 L 51.8429,-72.2434 L 51.6489,-72.8406 L 51.3815,-73.4088 L 51.0451,-73.9389
 L 50.6448,-74.4227 L 50.1871,-74.8526 L 49.6791,-75.2216 L 49.1289,-75.5241 L 48.5451,-75.7553 L 47.9369,-75.9114
 L 47.3139,-75.9901 L -47.3139,-75.9901 L -47.9369,-75.9114 L -48.5451,-75.7553 L -49.1289,-75.5241 L -49.6791,-75.2216
 L -50.1871,-74.8526 L -50.6448,-74.4227 L -51.0451,-73.9389 L -51.3815,-73.4088 L -51.6489,-72.8406 L -51.8429,-72.2434
 L -51.9606,-71.6267 L -52,-71 L -52,-37 L -51.9606,-36.3733 L -51.8429,-35.7566 L -51.6489,-35.1594
 L -51.3815,-34.5912 L -51.0451,-34.0611 L -50.6448,-33.5773 L -50.1871,-33.1474 L -49.6791,-32.7784 L -49.1289,-32.4759
 L -48.5451,-32.2447 L -47.9369,-32.0886 L -47.3139,-32.0099 L 47.3139,-32.0099 z
M -45.1884,-66.0059 L -45.5621,-66.0531 L -45.927,-66.1468 L -46.2773,-66.2855 L -46.6075,-66.467 L -46.9123,-66.6884
 L -47.1869,-66.9464 L -47.427,-67.2366 L -47.6289,-67.5547 L -47.7893,-67.8956 L -47.9057,-68.2539 L -47.9763,-68.624
 L -48,-69 L -47.9763,-69.376 L -47.9057,-69.7461 L -47.7893,-70.1044 L -47.6289,-70.4453 L -47.427,-70.7634
 L -47.1869,-71.0536 L -46.9123,-71.3115 L -46.6075,-71.533 L -46.2773,-71.7145 L -45.927,-71.8532 L -45.5621,-71.9469
 L -45.1884,-71.9941 L -44.8116,-71.9941 L -44.4379,-71.9469 L -44.0729,-71.8532 L -43.7227,-71.7145 L -43.3925,-71.533
 L -43.0877,-71.3115 L -42.8131,-71.0536 L -42.5729,-70.7634 L -42.3711,-70.4453 L -42.2107,-70.1044 L -42.0942,-69.7461
 L -42.0237,-69.376 L -42,-69 L -42.0237,-68.624 L -42.0942,-68.2539 L -42.2107,-67.8956 L -42.3711,-67.5547
 L -42.5729,-67.2366 L -42.8131,-66.9464 L -43.0877,-66.6884 L -43.3925,-66.467 L -43.7227,-66.2855 L -44.0729,-66.1468
 L -44.4379,-66.0531 L -44.8116,-66.0059 z
M 44.8116,-66.0059 L 44.4379,-66.0531 L 44.0729,-66.1468 L 43.7227,-66.2855 L 43.3925,-66.467 L 43.0877,-66.6884
 L 42.8131,-66.9464 L 42.5729,-67.2366 L 42.3711,-67.5547 L 42.2107,-67.8956 L 42.0942,-68.2539 L 42.0237,-68.624
 L 42,-69 L 42.0237,-69.376 L 42.0942,-69.7461 L 42.2107,-70.1044 L 42.3711,-70.4453 L 42.5729,-70.7634
 L 42.8131,-71.0536 L 43.0877,-71.3115 L 43.3925,-71.533 L 43.7227,-71.7145 L 44.0729,-71.8532 L 44.4379,-71.9469
 L 44.8116,-71.9941 L 45.1884,-71.9941 L 45.5621,-71.9469 L 45.927,-71.8532 L 46.2773,-71.7145 L 46.6075,-71.533
 L 46.9123,-71.3115 L 47.1869,-71.0536 L 47.427,-70.7634 L 47.6289,-70.4453 L 47.7893,-70.1044 L 47.9057,-69.7461
 L 47.9763,-69.376 L 48,-69 L 47.9763,-68.624 L 47.9057,-68.2539 L 47.7893,-67.8956 L 47.6289,-67.5547
 L 47.427,-67.2366 L 47.1869,-66.9464 L 46.9123,-66.6884 L 46.6075,-66.467 L 46.2773,-66.2855 L 45.927,-66.1468
 L 45.5621,-66.0531 L 45.1884,-66.0059 z
M 17.4953,-38.0316 L 15.5019,-38.2834 L 13.5557,-38.7831 L 11.6875,-39.5228 L 9.92676,-40.4908 L 8.30121,-41.6718
 L 6.83649,-43.0473 L 5.55573,-44.5954 L 4.47908,-46.2919 L 3.62357,-48.11 L 3.00266,-50.021 L 2.62616,-51.9947
 L 2.5,-54 L 2.62616,-56.0053 L 3.00266,-57.979 L 3.62357,-59.89 L 4.47908,-61.7081 L 5.55573,-63.4046
 L 6.83649,-64.9527 L 8.30121,-66.3282 L 9.92676,-67.5092 L 11.6875,-68.4772 L 13.5557,-69.2169 L 15.5019,-69.7166
 L 17.4953,-69.9684 L 19.5046,-69.9684 L 21.4981,-69.7166 L 23.4443,-69.2169 L 25.3125,-68.4772 L 27.0732,-67.5092
 L 28.6988,-66.3282 L 30.1635,-64.9527 L 31.4443,-63.4046 L 32.5209,-61.7081 L 33.3764,-59.89 L 33.9973,-57.979
 L 34.3738,-56.0053 L 34.5,-54 L 34.3738,-51.9947 L 33.9973,-50.021 L 33.3764,-48.11 L 32.5209,-46.2919
 L 31.4443,-44.5954 L 30.1635,-43.0473 L 28.6988,-41.6718 L 27.0732,-40.4908 L 25.3125,-39.5228 L 23.4443,-38.7831
 L 21.4981,-38.2834 L 19.5046,-38.0316 z
M -19.5046,-38.0316 L -21.4981,-38.2834 L -23.4443,-38.7831 L -25.3125,-39.5228 L -27.0732,-40.4908 L -28.6988,-41.6718
 L -30.1635,-43.0473 L -31.4443,-44.5954 L -32.5209,-46.2919 L -33.3764,-48.11 L -33.9973,-50.021 L -34.3738,-51.9947
 L -34.5,-54 L -34.3738,-56.0053 L -33.9973,-57.979 L -33.3764,-59.89 L -32.5209,-61.7081 L -31.4443,-63.4046
 L -30.1635,-64.9527 L -28.6988,-66.3282 L -27.0732,-67.5092 L -25.3125,-68.4772 L -23.4443,-69.2169 L -21.4981,-69.7166
 L -19.5046,-69.9684 L -17.4953,-69.9684 L -15.5019,-69.7166 L -13.5557,-69.2169 L -11.6875,-68.4772 L -9.92676,-67.5092
 L -8.30121,-66.3282 L -6.83649,-64.9527 L -5.55573,-63.4046 L -4.47908,-61.7081 L -3.62357,-59.89 L -3.00266,-57.979
 L -2.62616,-56.0053 L -2.5,-54 L -2.62616,-51.9947 L -3.00266,-50.021 L -3.62357,-48.11 L -4.47908,-46.2919
 L -5.55573,-44.5954 L -6.83649,-43.0473 L -8.30121,-41.6718 L -9.92676,-40.4908 L -11.6875,-39.5228 L -13.5557,-38.7831
 L -15.5019,-38.2834 L -17.4953,-38.0316 z
M -45.0942,-60.0029 L -45.2811,-60.0266 L -45.4635,-60.0734 L -45.6387,-60.1427 L -45.8037,-60.2335 L -45.9561,-60.3442
 L -46.0934,-60.4732 L -46.2135,-60.6183 L -46.3145,-60.7774 L -46.3947,-60.9478 L -46.4529,-61.127 L -46.4882,-61.312
 L -46.5,-61.5 L -46.4882,-61.688 L -46.4529,-61.873 L -46.3947,-62.0522 L -46.3145,-62.2226 L -46.2135,-62.3817
 L -46.0934,-62.5268 L -45.9561,-62.6558 L -45.8037,-62.7665 L -45.6387,-62.8572 L -45.4635,-62.9266 L -45.2811,-62.9734
 L -45.0942,-62.997 L -44.9058,-62.997 L -44.7189,-62.9734 L -44.5365,-62.9266 L -44.3613,-62.8572 L -44.1963,-62.7665
 L -44.0439,-62.6558 L -43.9065,-62.5268 L -43.7865,-62.3817 L -43.6855,-62.2226 L -43.6053,-62.0522 L -43.5471,-61.873
 L -43.5118,-61.688 L -43.5,-61.5 L -43.5118,-61.312 L -43.5471,-61.127 L -43.6053,-60.9478 L -43.6855,-60.7774
 L -43.7865,-60.6183 L -43.9065,-60.4732 L -44.0439,-60.3442 L -44.1963,-60.2335 L -44.3613,-60.1427 L -44.5365,-60.0734
 L -44.7189,-60.0266 L -44.9058,-60.0029 z
M 44.9058,-60.0029 L 44.7189,-60.0266 L 44.5365,-60.0734 L 44.3613,-60.1427 L 44.1963,-60.2335 L 44.0439,-60.3442
 L 43.9065,-60.4732 L 43.7865,-60.6183 L 43.6855,-60.7774 L 43.6053,-60.9478 L 43.5471,-61.127 L 43.5118,-61.312
 L 43.5,-61.5 L 43.5118,-61.688 L 43.5471,-61.873 L 43.6053,-62.0522 L 43.6855,-62.2226 L 43.7865,-62.3817
 L 43.9065,-62.5268 L 44.0439,-62.6558 L 44.1963,-62.7665 L 44.3613,-62.8572 L 44.5365,-62.9266 L 44.7189,-62.9734
 L 44.9058,-62.997 L 45.0942,-62.997 L 45.2811,-62.9734 L 45.4635,-62.9266 L 45.6387,-62.8572 L 45.8037,-62.7665
 L 45.9561,-62.6558 L 46.0934,-62.5268 L 46.2135,-62.3817 L 46.3145,-62.2226 L 46.3947,-62.0522 L 46.4529,-61.873
 L 46.4882,-61.688 L 46.5,-61.5 L 46.4882,-61.312 L 46.4529,-61.127 L 46.3947,-60.9478 L 46.3145,-60.7774
 L 46.2135,-60.6183 L 46.0934,-60.4732 L 45.9561,-60.3442 L 45.8037,-60.2335 L 45.6387,-60.1427 L 45.4635,-60.0734
 L 45.2811,-60.0266 L 45.0942,-60.0029 z
M 44.8116,-51.0059 L 44.4379,-51.0531 L 44.0729,-51.1468 L 43.7227,-51.2855 L 43.3925,-51.467 L 43.0877,-51.6885
 L 42.8131,-51.9464 L 42.5729,-52.2366 L 42.3711,-52.5547 L 42.2107,-52.8956 L 42.0942,-53.2539 L 42.0237,-53.624
 L 42,-54 L 42.0237,-54.376 L 42.0942,-54.7461 L 42.2107,-55.1044 L 42.3711,-55.4453 L 42.5729,-55.7634
 L 42.8131,-56.0536 L 43.0877,-56.3115 L 43.3925,-56.533 L 43.7227,-56.7145 L 44.0729,-56.8532 L 44.4379,-56.9469
 L 44.8116,-56.9941 L 45.1884,-56.9941 L 45.5621,-56.9469 L 45.927,-56.8532 L 46.2773,-56.7145 L 46.6075,-56.533
 L 46.9123,-56.3115 L 47.1869,-56.0536 L 47.427,-55.7634 L 47.6289,-55.4453 L 47.7893,-55.1044 L 47.9057,-54.7461
 L 47.9763,-54.376 L 48,-54 L 47.9763,-53.624 L 47.9057,-53.2539 L 47.7893,-52.8956 L 47.6289,-52.5547
 L 47.427,-52.2366 L 47.1869,-51.9464 L 46.9123,-51.6885 L 46.6075,-51.467 L 46.2773,-51.2855 L 45.927,-51.1468
 L 45.5621,-51.0531 L 45.1884,-51.0059 z
M -45.1884,-51.0059 L -45.5621,-51.0531 L -45.927,-51.1468 L -46.2773,-51.2855 L -46.6075,-51.467 L -46.9123,-51.6885
 L -47.1869,-51.9464 L -47.427,-52.2366 L -47.6289,-52.5547 L -47.7893,-52.8956 L -47.9057,-53.2539 L -47.9763,-53.624
 L -48,-54 L -47.9763,-54.376 L -47.9057,-54.7461 L -47.7893,-55.1044 L -47.6289,-55.4453 L -47.427,-55.7634
 L -47.1869,-56.0536 L -46.9123,-56.3115 L -46.6075,-56.533 L -46.2773,-56.7145 L -45.927,-56.8532 L -45.5621,-56.9469
 L -45.1884,-56.9941 L -44.8116,-56.9941 L -44.4379,-56.9469 L -44.0729,-56.8532 L -43.7227,-56.7145 L -43.3925,-56.533
 L -43.0877,-56.3115 L -42.8131,-56.0536 L -42.5729,-55.7634 L -42.3711,-55.4453 L -42.2107,-55.1044 L -42.0942,-54.7461
 L -42.0237,-54.376 L -42,-54 L -42.0237,-53.624 L -42.0942,-53.2539 L -42.2107,-52.8956 L -42.3711,-52.5547
 L -42.5729,-52.2366 L -42.8131,-51.9464 L -43.0877,-51.6885 L -43.3925,-51.467 L -43.7227,-51.2855 L -44.0729,-51.1468
 L -44.4379,-51.0531 L -44.8116,-51.0059 z
M -45.0942,-45.003 L -45.2811,-45.0266 L -45.4635,-45.0734 L -45.6387,-45.1428 L -45.8037,-45.2335 L -45.9561,-45.3442
 L -46.0934,-45.4732 L -46.2135,-45.6183 L -46.3145,-45.7774 L -46.3947,-45.9478 L -46.4529,-46.127 L -46.4882,-46.312
 L -46.5,-46.5 L -46.4882,-46.688 L -46.4529,-46.873 L -46.3947,-47.0522 L -46.3145,-47.2226 L -46.2135,-47.3817
 L -46.0934,-47.5268 L -45.9561,-47.6558 L -45.8037,-47.7665 L -45.6387,-47.8573 L -45.4635,-47.9266 L -45.2811,-47.9734
 L -45.0942,-47.9971 L -44.9058,-47.9971 L -44.7189,-47.9734 L -44.5365,-47.9266 L -44.3613,-47.8573 L -44.1963,-47.7665
 L -44.0439,-47.6558 L -43.9065,-47.5268 L -43.7865,-47.3817 L -43.6855,-47.2226 L -43.6053,-47.0522 L -43.5471,-46.873
 L -43.5118,-46.688 L -43.5,-46.5 L -43.5118,-46.312 L -43.5471,-46.127 L -43.6053,-45.9478 L -43.6855,-45.7774
 L -43.7865,-45.6183 L -43.9065,-45.4732 L -44.0439,-45.3442 L -44.1963,-45.2335 L -44.3613,-45.1428 L -44.5365,-45.0734
 L -44.7189,-45.0266 L -44.9058,-45.003 z
M 44.9058,-45.003 L 44.7189,-45.0266 L 44.5365,-45.0734 L 44.3613,-45.1428 L 44.1963,-45.2335 L 44.0439,-45.3442
 L 43.9065,-45.4732 L 43.7865,-45.6183 L 43.6855,-45.7774 L 43.6053,-45.9478 L 43.5471,-46.127 L 43.5118,-46.312
 L 43.5,-46.5 L 43.5118,-46.688 L 43.5471,-46.873 L 43.6053,-47.0522 L 43.6855,-47.2226 L 43.7865,-47.3817
 L 43.9065,-47.5268 L 44.0439,-47.6558 L 44.1963,-47.7665 L 44.3613,-47.8573 L 44.5365,-47.9266 L 44.7189,-47.9734
 L 44.9058,-47.9971 L 45.0942,-47.9971 L 45.2811,-47.9734 L 45.4635,-47.9266 L 45.6387,-47.8573 L 45.8037,-47.7665
 L 45.9561,-47.6558 L 46.0934,-47.5268 L 46.2135,-47.3817 L 46.3145,-47.2226 L 46.3947,-47.0522 L 46.4529,-46.873
 L 46.4882,-46.688 L 46.5,-46.5 L 46.4882,-46.312 L 46.4529,-46.127 L 46.3947,-45.9478 L 46.3145,-45.7774
 L 46.2135,-45.6183 L 46.0934,-45.4732 L 45.9561,-45.3442 L 45.8037,-45.2335 L 45.6387,-45.1428 L 45.4635,-45.0734
 L 45.2811,-45.0266 L 45.0942,-45.003 z
M 44.8116,-36.0059 L 44.4379,-36.0531 L 44.0729,-36.1468 L 43.7227,-36.2855 L 43.3925,-36.467 L 43.0877,-36.6885
 L 42.8131,-36.9464 L 42.5729,-37.2366 L 42.3711,-37.5547 L 42.2107,-37.8956 L 42.0942,-38.2539 L 42.0237,-38.624
 L 42,-39 L 42.0237,-39.376 L 42.0942,-39.7461 L 42.2107,-40.1044 L 42.3711,-40.4453 L 42.5729,-40.7634
 L 42.8131,-41.0536 L 43.0877,-41.3116 L 43.3925,-41.533 L 43.7227,-41.7145 L 44.0729,-41.8532 L 44.4379,-41.9469
 L 44.8116,-41.9941 L 45.1884,-41.9941 L 45.5621,-41.9469 L 45.927,-41.8532 L 46.2773,-41.7145 L 46.6075,-41.533
 L 46.9123,-41.3116 L 47.1869,-41.0536 L 47.427,-40.7634 L 47.6289,-40.4453 L 47.7893,-40.1044 L 47.9057,-39.7461
 L 47.9763,-39.376 L 48,-39 L 47.9763,-38.624 L 47.9057,-38.2539 L 47.7893,-37.8956 L 47.6289,-37.5547
 L 47.427,-37.2366 L 47.1869,-36.9464 L 46.9123,-36.6885 L 46.6075,-36.467 L 46.2773,-36.2855 L 45.927,-36.1468
 L 45.5621,-36.0531 L 45.1884,-36.0059 z
M -45.1884,-36.0059 L -45.5621,-36.0531 L -45.927,-36.1468 L -46.2773,-36.2855 L -46.6075,-36.467 L -46.9123,-36.6885
 L -47.1869,-36.9464 L -47.427,-37.2366 L -47.6289,-37.5547 L -47.7893,-37.8956 L -47.9057,-38.2539 L -47.9763,-38.624
 L -48,-39 L -47.9763,-39.376 L -47.9057,-39.7461 L -47.7893,-40.1044 L -47.6289,-40.4453 L -47.427,-40.7634
 L -47.1869,-41.0536 L -46.9123,-41.3116 L -46.6075,-41.533 L -46.2773,-41.7145 L -45.927,-41.8532 L -45.5621,-41.9469
 L -45.1884,-41.9941 L -44.8116,-41.9941 L -44.4379,-41.9469 L -44.0729,-41.8532 L -43.7227,-41.7145 L -43.3925,-41.533
 L -43.0877,-41.3116 L -42.8131,-41.0536 L -42.5729,-40.7634 L -42.3711,-40.4453 L -42.2107,-40.1044 L -42.0942,-39.7461
 L -42.0237,-39.376 L -42,-39 L -42.0237,-38.624 L -42.0942,-38.2539 L -42.2107,-37.8956 L -42.3711,-37.5547
 L -42.5729,-37.2366 L -42.8131,-36.9464 L -43.0877,-36.6885 L -43.3925,-36.467 L -43.7227,-36.2855 L -44.0729,-36.1468
 L -44.4379,-36.0531 L -44.8116,-36.0059 z
" stroke="black" fill="lightgray" stroke-width="0.5"/>
</svg>
