  0
SECTION
  2
BLOCKS
  0
ENDSEC
  0
SECTION
  2
ENTITIES
  0
LINE
  8
0
 10
10.4369
 20
-6.91142
 11
11.0451
 21
-6.75528
  0
LINE
  8
0
 10
11.0451
 20
-6.75528
 11
11.6289
 21
-6.52412
  0
LINE
  8
0
 10
11.6289
 20
-6.52412
 11
12.1791
 21
-6.22163
  0
LINE
  8
0
 10
12.1791
 20
-6.22163
 11
12.6871
 21
-5.85255
  0
LINE
  8
0
 10
12.6871
 20
-5.85255
 11
13.1448
 21
-5.42273
  0
LINE
  8
0
 10
13.1448
 20
-5.42273
 11
13.5451
 21
-4.93892
  0
LINE
  8
0
 10
13.5451
 20
-4.93892
 11
13.8815
 21
-4.40877
  0
LINE
  8
0
 10
13.8815
 20
-4.40877
 11
14.1489
 21
-3.84062
  0
LINE
  8
0
 10
14.1489
 20
-3.84062
 11
14.3429
 21
-3.24344
  0
LINE
  8
0
 10
14.3429
 20
-3.24344
 11
14.4606
 21
-2.62666
  0
LINE
  8
0
 10
14.4606
 20
-2.62666
 11
14.5
 21
-2
  0
LINE
  8
0
 10
14.5
 20
-2
 11
14.5
 21
2
  0
LINE
  8
0
 10
14.5
 20
2
 11
14.4606
 21
2.62666
  0
LINE
  8
0
 10
14.4606
 20
2.62666
 11
14.3429
 21
3.24344
  0
LINE
  8
0
 10
14.3429
 20
3.24344
 11
14.1489
 21
3.84062
  0
LINE
  8
0
 10
14.1489
 20
3.84062
 11
13.8815
 21
4.40877
  0
LINE
  8
0
 10
13.8815
 20
4.40877
 11
13.5451
 21
4.93892
  0
LINE
  8
0
 10
13.5451
 20
4.93892
 11
13.1448
 21
5.42273
  0
LINE
  8
0
 10
13.1448
 20
5.42273
 11
12.6871
 21
5.85255
  0
LINE
  8
0
 10
12.6871
 20
5.85255
 11
12.1791
 21
6.22163
  0
LINE
  8
0
 10
12.1791
 20
6.22163
 11
11.6289
 21
6.52412
  0
LINE
  8
0
 10
11.6289
 20
6.52412
 11
11.0451
 21
6.75528
  0
LINE
  8
0
 10
11.0451
 20
6.75528
 11
10.4369
 21
6.91142
  0
LINE
  8
0
 10
10.4369
 20
6.91142
 11
9.81395
 21
6.99013
  0
LINE
  8
0
 10
9.81395
 20
6.99013
 11
-9.81395
 21
6.99013
  0
LINE
  8
0
 10
-9.81395
 20
6.99013
 11
-10.4369
 21
6.91142
  0
LINE
  8
0
 10
-10.4369
 20
6.91142
 11
-11.0451
 21
6.75528
  0
LINE
  8
0
 10
-11.0451
 20
6.75528
 11
-11.6289
 21
6.52412
  0
LINE
  8
0
 10
-11.6289
 20
6.52412
 11
-12.1791
 21
6.22163
  0
LINE
  8
0
 10
-12.1791
 20
6.22163
 11
-12.6871
 21
5.85255
  0
LINE
  8
0
 10
-12.6871
 20
5.85255
 11
-13.1448
 21
5.42273
  0
LINE
  8
0
 10
-13.1448
 20
5.42273
 11
-13.5451
 21
4.93892
  0
LINE
  8
0
 10
-13.5451
 20
4.93892
 11
-13.8815
 21
4.40877
  0
LINE
  8
0
 10
-13.8815
 20
4.40877
 11
-14.1489
 21
3.84062
  0
LINE
  8
0
 10
-14.1489
 20
3.84062
 11
-14.3429
 21
3.24344
  0
LINE
  8
0
 10
-14.3429
 20
3.24344
 11
-14.4606
 21
2.62666
  0
LINE
  8
0
 10
-14.4606
 20
2.62666
 11
-14.5
 21
2
  0
LINE
  8
0
 10
-14.5
 20
2
 11
-14.5
 21
-2
  0
LINE
  8
0
 10
-14.5
 20
-2
 11
-14.4606
 21
-2.62666
  0
LINE
  8
0
 10
-14.4606
 20
-2.62666
 11
-14.3429
 21
-3.24344
  0
LINE
  8
0
 10
-14.3429
 20
-3.24344
 11
-14.1489
 21
-3.84062
  0
LINE
  8
0
 10
-14.1489
 20
-3.84062
 11
-13.8815
 21
-4.40877
  0
LINE
  8
0
 10
-13.8815
 20
-4.40877
 11
-13.5451
 21
-4.93892
  0
LINE
  8
0
 10
-13.5451
 20
-4.93892
 11
-13.1448
 21
-5.42273
  0
LINE
  8
0
 10
-13.1448
 20
-5.42273
 11
-12.6871
 21
-5.85255
  0
LINE
  8
0
 10
-12.6871
 20
-5.85255
 11
-12.1791
 21
-6.22163
  0
LINE
  8
0
 10
-12.1791
 20
-6.22163
 11
-11.6289
 21
-6.52412
  0
LINE
  8
0
 10
-11.6289
 20
-6.52412
 11
-11.0451
 21
-6.75528
  0
LINE
  8
0
 10
-11.0451
 20
-6.75528
 11
-10.4369
 21
-6.91142
  0
LINE
  8
0
 10
-10.4369
 20
-6.91142
 11
-9.81395
 21
-6.99013
  0
LINE
  8
0
 10
-9.81395
 20
-6.99013
 11
9.81395
 21
-6.99013
  0
LINE
  8
0
 10
9.81395
 20
-6.99013
 11
10.4369
 21
-6.91142
  0
LINE
  8
0
 10
-6.21976
 20
-3.49309
 11
-6.65582
 21
-3.438
  0
LINE
  8
0
 10
-6.65582
 20
-3.438
 11
-7.08156
 21
-3.32869
  0
LINE
  8
0
 10
-7.08156
 20
-3.32869
 11
-7.49022
 21
-3.16689
  0
LINE
  8
0
 10
-7.49022
 20
-3.16689
 11
-7.83923
 21
-2.97501
  0
LINE
  8
0
 10
-7.83923
 20
-2.97501
 11
-8.06213
 21
-2.94685
  0
LINE
  8
0
 10
-8.06213
 20
-2.94685
 11
-8.42705
 21
-2.85316
  0
LINE
  8
0
 10
-8.42705
 20
-2.85316
 11
-8.77733
 21
-2.71448
  0
LINE
  8
0
 10
-8.77733
 20
-2.71448
 11
-9.10747
 21
-2.53297
  0
LINE
  8
0
 10
-9.10747
 20
-2.53297
 11
-9.41226
 21
-2.31154
  0
LINE
  8
0
 10
-9.41226
 20
-2.31154
 11
-9.6869
 21
-2.05363
  0
LINE
  8
0
 10
-9.6869
 20
-2.05363
 11
-9.92705
 21
-1.76335
  0
LINE
  8
0
 10
-9.92705
 20
-1.76335
 11
-10.1289
 21
-1.44525
  0
LINE
  8
0
 10
-10.1289
 20
-1.44525
 11
-10.2893
 21
-1.10437
  0
LINE
  8
0
 10
-10.2893
 20
-1.10437
 11
-10.4057
 21
-0.746063
  0
LINE
  8
0
 10
-10.4057
 20
-0.746063
 11
-10.4763
 21
-0.375992
  0
LINE
  8
0
 10
-10.4763
 20
-0.375992
 11
-10.5
 21
0
  0
LINE
  8
0
 10
-10.5
 20
0
 11
-10.4763
 21
0.375992
  0
LINE
  8
0
 10
-10.4763
 20
0.375992
 11
-10.4057
 21
0.746063
  0
LINE
  8
0
 10
-10.4057
 20
0.746063
 11
-10.2893
 21
1.10437
  0
LINE
  8
0
 10
-10.2893
 20
1.10437
 11
-10.1289
 21
1.44525
  0
LINE
  8
0
 10
-10.1289
 20
1.44525
 11
-9.92705
 21
1.76335
  0
LINE
  8
0
 10
-9.92705
 20
1.76335
 11
-9.6869
 21
2.05363
  0
LINE
  8
0
 10
-9.6869
 20
2.05363
 11
-9.41226
 21
2.31154
  0
LINE
  8
0
 10
-9.41226
 20
2.31154
 11
-9.10747
 21
2.53297
  0
LINE
  8
0
 10
-9.10747
 20
2.53297
 11
-8.77733
 21
2.71448
  0
LINE
  8
0
 10
-8.77733
 20
2.71448
 11
-8.42705
 21
2.85316
  0
LINE
  8
0
 10
-8.42705
 20
2.85316
 11
-8.06213
 21
2.94685
  0
LINE
  8
0
 10
-8.06213
 20
2.94685
 11
-7.83923
 21
2.97501
  0
LINE
  8
0
 10
-7.83923
 20
2.97501
 11
-7.49022
 21
3.16689
  0
LINE
  8
0
 10
-7.49022
 20
3.16689
 11
-7.08156
 21
3.32869
  0
LINE
  8
0
 10
-7.08156
 20
3.32869
 11
-6.65582
 21
3.438
  0
LINE
  8
0
 10
-6.65582
 20
3.438
 11
-6.21976
 21
3.49309
  0
LINE
  8
0
 10
-6.21976
 20
3.49309
 11
-5.78023
 21
3.49309
  0
LINE
  8
0
 10
-5.78023
 20
3.49309
 11
-5.34416
 21
3.438
  0
LINE
  8
0
 10
-5.34416
 20
3.438
 11
-4.91843
 21
3.32869
  0
LINE
  8
0
 10
-4.91843
 20
3.32869
 11
-4.50977
 21
3.16689
  0
LINE
  8
0
 10
-4.50977
 20
3.16689
 11
-4.1246
 21
2.95514
  0
LINE
  8
0
 10
-4.1246
 20
2.95514
 11
-3.76901
 21
2.69679
  0
LINE
  8
0
 10
-3.76901
 20
2.69679
 11
-3.44861
 21
2.3959
  0
LINE
  8
0
 10
-3.44861
 20
2.3959
 11
-3.16843
 21
2.05724
  0
LINE
  8
0
 10
-3.16843
 20
2.05724
 11
-2.93292
 21
1.68613
  0
LINE
  8
0
 10
-2.93292
 20
1.68613
 11
-2.74577
 21
1.28842
  0
LINE
  8
0
 10
-2.74577
 20
1.28842
 11
-2.60995
 21
0.870407
  0
LINE
  8
0
 10
-2.60995
 20
0.870407
 11
-2.52759
 21
0.43866
  0
LINE
  8
0
 10
-2.52759
 20
0.43866
 11
-2.5
 21
0
  0
LINE
  8
0
 10
-2.5
 20
0
 11
-2.52759
 21
-0.43866
  0
LINE
  8
0
 10
-2.52759
 20
-0.43866
 11
-2.60995
 21
-0.870407
  0
LINE
  8
0
 10
-2.60995
 20
-0.870407
 11
-2.74577
 21
-1.28842
  0
LINE
  8
0
 10
-2.74577
 20
-1.28842
 11
-2.93292
 21
-1.68613
  0
LINE
  8
0
 10
-2.93292
 20
-1.68613
 11
-3.16843
 21
-2.05724
  0
LINE
  8
0
 10
-3.16843
 20
-2.05724
 11
-3.44861
 21
-2.3959
  0
LINE
  8
0
 10
-3.44861
 20
-2.3959
 11
-3.76901
 21
-2.69679
  0
LINE
  8
0
 10
-3.76901
 20
-2.69679
 11
-4.1246
 21
-2.95514
  0
LINE
  8
0
 10
-4.1246
 20
-2.95514
 11
-4.50977
 21
-3.16689
  0
LINE
  8
0
 10
-4.50977
 20
-3.16689
 11
-4.91843
 21
-3.32869
  0
LINE
  8
0
 10
-4.91843
 20
-3.32869
 11
-5.34416
 21
-3.438
  0
LINE
  8
0
 10
-5.34416
 20
-3.438
 11
-5.78023
 21
-3.49309
  0
LINE
  8
0
 10
-5.78023
 20
-3.49309
 11
-6.21976
 21
-3.49309
  0
LINE
  8
0
 10
5.78023
 20
-3.49309
 11
5.34416
 21
-3.438
  0
LINE
  8
0
 10
5.34416
 20
-3.438
 11
4.91843
 21
-3.32869
  0
LINE
  8
0
 10
4.91843
 20
-3.32869
 11
4.50977
 21
-3.16689
  0
LINE
  8
0
 10
4.50977
 20
-3.16689
 11
4.1246
 21
-2.95514
  0
LINE
  8
0
 10
4.1246
 20
-2.95514
 11
3.76901
 21
-2.69679
  0
LINE
  8
0
 10
3.76901
 20
-2.69679
 11
3.44861
 21
-2.3959
  0
LINE
  8
0
 10
3.44861
 20
-2.3959
 11
3.16843
 21
-2.05724
  0
LINE
  8
0
 10
3.16843
 20
-2.05724
 11
2.93292
 21
-1.68613
  0
LINE
  8
0
 10
2.93292
 20
-1.68613
 11
2.74577
 21
-1.28842
  0
LINE
  8
0
 10
2.74577
 20
-1.28842
 11
2.60995
 21
-0.870407
  0
LINE
  8
0
 10
2.60995
 20
-0.870407
 11
2.52759
 21
-0.43866
  0
LINE
  8
0
 10
2.52759
 20
-0.43866
 11
2.5
 21
0
  0
LINE
  8
0
 10
2.5
 20
0
 11
2.52759
 21
0.43866
  0
LINE
  8
0
 10
2.52759
 20
0.43866
 11
2.60995
 21
0.870407
  0
LINE
  8
0
 10
2.60995
 20
0.870407
 11
2.74577
 21
1.28842
  0
LINE
  8
0
 10
2.74577
 20
1.28842
 11
2.93292
 21
1.68613
  0
LINE
  8
0
 10
2.93292
 20
1.68613
 11
3.16843
 21
2.05724
  0
LINE
  8
0
 10
3.16843
 20
2.05724
 11
3.44861
 21
2.3959
  0
LINE
  8
0
 10
3.44861
 20
2.3959
 11
3.76901
 21
2.69679
  0
LINE
  8
0
 10
3.76901
 20
2.69679
 11
4.1246
 21
2.95514
  0
LINE
  8
0
 10
4.1246
 20
2.95514
 11
4.50977
 21
3.16689
  0
LINE
  8
0
 10
4.50977
 20
3.16689
 11
4.91843
 21
3.32869
  0
LINE
  8
0
 10
4.91843
 20
3.32869
 11
5.34416
 21
3.438
  0
LINE
  8
0
 10
5.34416
 20
3.438
 11
5.78023
 21
3.49309
  0
LINE
  8
0
 10
5.78023
 20
3.49309
 11
6.21976
 21
3.49309
  0
LINE
  8
0
 10
6.21976
 20
3.49309
 11
6.65582
 21
3.438
  0
LINE
  8
0
 10
6.65582
 20
3.438
 11
7.08156
 21
3.32869
  0
LINE
  8
0
 10
7.08156
 20
3.32869
 11
7.49022
 21
3.16689
  0
LINE
  8
0
 10
7.49022
 20
3.16689
 11
7.83923
 21
2.97501
  0
LINE
  8
0
 10
7.83923
 20
2.97501
 11
8.06213
 21
2.94685
  0
LINE
  8
0
 10
8.06213
 20
2.94685
 11
8.42705
 21
2.85316
  0
LINE
  8
0
 10
8.42705
 20
2.85316
 11
8.77733
 21
2.71448
  0
LINE
  8
0
 10
8.77733
 20
2.71448
 11
9.10747
 21
2.53297
  0
LINE
  8
0
 10
9.10747
 20
2.53297
 11
9.41226
 21
2.31154
  0
LINE
  8
0
 10
9.41226
 20
2.31154
 11
9.6869
 21
2.05363
  0
LINE
  8
0
 10
9.6869
 20
2.05363
 11
9.92705
 21
1.76335
  0
LINE
  8
0
 10
9.92705
 20
1.76335
 11
10.1289
 21
1.44525
  0
LINE
  8
0
 10
10.1289
 20
1.44525
 11
10.2893
 21
1.10437
  0
LINE
  8
0
 10
10.2893
 20
1.10437
 11
10.4057
 21
0.746063
  0
LINE
  8
0
 10
10.4057
 20
0.746063
 11
10.4763
 21
0.375992
  0
LINE
  8
0
 10
10.4763
 20
0.375992
 11
10.5
 21
0
  0
LINE
  8
0
 10
10.5
 20
0
 11
10.4763
 21
-0.375992
  0
LINE
  8
0
 10
10.4763
 20
-0.375992
 11
10.4057
 21
-0.746063
  0
LINE
  8
0
 10
10.4057
 20
-0.746063
 11
10.2893
 21
-1.10437
  0
LINE
  8
0
 10
10.2893
 20
-1.10437
 11
10.1289
 21
-1.44525
  0
LINE
  8
0
 10
10.1289
 20
-1.44525
 11
9.92705
 21
-1.76335
  0
LINE
  8
0
 10
9.92705
 20
-1.76335
 11
9.6869
 21
-2.05363
  0
LINE
  8
0
 10
9.6869
 20
-2.05363
 11
9.41226
 21
-2.31154
  0
LINE
  8
0
 10
9.41226
 20
-2.31154
 11
9.10747
 21
-2.53297
  0
LINE
  8
0
 10
9.10747
 20
-2.53297
 11
8.77733
 21
-2.71448
  0
LINE
  8
0
 10
8.77733
 20
-2.71448
 11
8.42705
 21
-2.85316
  0
LINE
  8
0
 10
8.42705
 20
-2.85316
 11
8.06213
 21
-2.94685
  0
LINE
  8
0
 10
8.06213
 20
-2.94685
 11
7.83923
 21
-2.97501
  0
LINE
  8
0
 10
7.83923
 20
-2.97501
 11
7.49022
 21
-3.16689
  0
LINE
  8
0
 10
7.49022
 20
-3.16689
 11
7.08156
 21
-3.32869
  0
LINE
  8
0
 10
7.08156
 20
-3.32869
 11
6.65582
 21
-3.438
  0
LINE
  8
0
 10
6.65582
 20
-3.438
 11
6.21976
 21
-3.49309
  0
LINE
  8
0
 10
6.21976
 20
-3.49309
 11
5.78023
 21
-3.49309
  0
ENDSEC
  0
SECTION
  2
OBJECTS
  0
DICTIONARY
  0
ENDSEC
  0
EOF
