  0
SECTION
  2
BLOCKS
  0
ENDSEC
  0
SECTION
  2
ENTITIES
  0
LINE
  8
0
 10
25.4369
 20
-14.4114
 11
26.0451
 21
-14.2553
  0
LINE
  8
0
 10
26.0451
 20
-14.2553
 11
26.6289
 21
-14.0241
  0
LINE
  8
0
 10
26.6289
 20
-14.0241
 11
27.1791
 21
-13.7216
  0
LINE
  8
0
 10
27.1791
 20
-13.7216
 11
27.6871
 21
-13.3526
  0
LINE
  8
0
 10
27.6871
 20
-13.3526
 11
28.1448
 21
-12.9227
  0
LINE
  8
0
 10
28.1448
 20
-12.9227
 11
28.5451
 21
-12.4389
  0
LINE
  8
0
 10
28.5451
 20
-12.4389
 11
28.8815
 21
-11.9088
  0
LINE
  8
0
 10
28.8815
 20
-11.9088
 11
29.1489
 21
-11.3406
  0
LINE
  8
0
 10
29.1489
 20
-11.3406
 11
29.3429
 21
-10.7434
  0
LINE
  8
0
 10
29.3429
 20
-10.7434
 11
29.4606
 21
-10.1267
  0
LINE
  8
0
 10
29.4606
 20
-10.1267
 11
29.5
 21
-9.5
  0
LINE
  8
0
 10
29.5
 20
-9.5
 11
29.5
 21
9.5
  0
LINE
  8
0
 10
29.5
 20
9.5
 11
29.4606
 21
10.1267
  0
LINE
  8
0
 10
29.4606
 20
10.1267
 11
29.3429
 21
10.7434
  0
LINE
  8
0
 10
29.3429
 20
10.7434
 11
29.1489
 21
11.3406
  0
LINE
  8
0
 10
29.1489
 20
11.3406
 11
28.8815
 21
11.9088
  0
LINE
  8
0
 10
28.8815
 20
11.9088
 11
28.5451
 21
12.4389
  0
LINE
  8
0
 10
28.5451
 20
12.4389
 11
28.1448
 21
12.9227
  0
LINE
  8
0
 10
28.1448
 20
12.9227
 11
27.6871
 21
13.3526
  0
LINE
  8
0
 10
27.6871
 20
13.3526
 11
27.1791
 21
13.7216
  0
LINE
  8
0
 10
27.1791
 20
13.7216
 11
26.6289
 21
14.0241
  0
LINE
  8
0
 10
26.6289
 20
14.0241
 11
26.0451
 21
14.2553
  0
LINE
  8
0
 10
26.0451
 20
14.2553
 11
25.4369
 21
14.4114
  0
LINE
  8
0
 10
25.4369
 20
14.4114
 11
24.8139
 21
14.4901
  0
LINE
  8
0
 10
24.8139
 20
14.4901
 11
-24.8139
 21
14.4901
  0
LINE
  8
0
 10
-24.8139
 20
14.4901
 11
-25.4369
 21
14.4114
  0
LINE
  8
0
 10
-25.4369
 20
14.4114
 11
-26.0451
 21
14.2553
  0
LINE
  8
0
 10
-26.0451
 20
14.2553
 11
-26.6289
 21
14.0241
  0
LINE
  8
0
 10
-26.6289
 20
14.0241
 11
-27.1791
 21
13.7216
  0
LINE
  8
0
 10
-27.1791
 20
13.7216
 11
-27.6871
 21
13.3526
  0
LINE
  8
0
 10
-27.6871
 20
13.3526
 11
-28.1448
 21
12.9227
  0
LINE
  8
0
 10
-28.1448
 20
12.9227
 11
-28.5451
 21
12.4389
  0
LINE
  8
0
 10
-28.5451
 20
12.4389
 11
-28.8815
 21
11.9088
  0
LINE
  8
0
 10
-28.8815
 20
11.9088
 11
-29.1489
 21
11.3406
  0
LINE
  8
0
 10
-29.1489
 20
11.3406
 11
-29.3429
 21
10.7434
  0
LINE
  8
0
 10
-29.3429
 20
10.7434
 11
-29.4606
 21
10.1267
  0
LINE
  8
0
 10
-29.4606
 20
10.1267
 11
-29.5
 21
9.5
  0
LINE
  8
0
 10
-29.5
 20
9.5
 11
-29.5
 21
-9.5
  0
LINE
  8
0
 10
-29.5
 20
-9.5
 11
-29.4606
 21
-10.1267
  0
LINE
  8
0
 10
-29.4606
 20
-10.1267
 11
-29.3429
 21
-10.7434
  0
LINE
  8
0
 10
-29.3429
 20
-10.7434
 11
-29.1489
 21
-11.3406
  0
LINE
  8
0
 10
-29.1489
 20
-11.3406
 11
-28.8815
 21
-11.9088
  0
LINE
  8
0
 10
-28.8815
 20
-11.9088
 11
-28.5451
 21
-12.4389
  0
LINE
  8
0
 10
-28.5451
 20
-12.4389
 11
-28.1448
 21
-12.9227
  0
LINE
  8
0
 10
-28.1448
 20
-12.9227
 11
-27.6871
 21
-13.3526
  0
LINE
  8
0
 10
-27.6871
 20
-13.3526
 11
-27.1791
 21
-13.7216
  0
LINE
  8
0
 10
-27.1791
 20
-13.7216
 11
-26.6289
 21
-14.0241
  0
LINE
  8
0
 10
-26.6289
 20
-14.0241
 11
-26.0451
 21
-14.2553
  0
LINE
  8
0
 10
-26.0451
 20
-14.2553
 11
-25.4369
 21
-14.4114
  0
LINE
  8
0
 10
-25.4369
 20
-14.4114
 11
-24.8139
 21
-14.4901
  0
LINE
  8
0
 10
-24.8139
 20
-14.4901
 11
24.8139
 21
-14.4901
  0
LINE
  8
0
 10
24.8139
 20
-14.4901
 11
25.4369
 21
-14.4114
  0
LINE
  8
0
 10
-22.6884
 20
4.50591
 11
-23.0621
 21
4.55313
  0
LINE
  8
0
 10
-23.0621
 20
4.55313
 11
-23.427
 21
4.64682
  0
LINE
  8
0
 10
-23.427
 20
4.64682
 11
-23.7773
 21
4.78551
  0
LINE
  8
0
 10
-23.7773
 20
4.78551
 11
-24.1075
 21
4.96701
  0
LINE
  8
0
 10
-24.1075
 20
4.96701
 11
-24.4123
 21
5.18845
  0
LINE
  8
0
 10
-24.4123
 20
5.18845
 11
-24.6869
 21
5.44635
  0
LINE
  8
0
 10
-24.6869
 20
5.44635
 11
-24.927
 21
5.73663
  0
LINE
  8
0
 10
-24.927
 20
5.73663
 11
-25.1289
 21
6.05473
  0
LINE
  8
0
 10
-25.1289
 20
6.05473
 11
-25.2893
 21
6.39561
  0
LINE
  8
0
 10
-25.2893
 20
6.39561
 11
-25.4057
 21
6.75392
  0
LINE
  8
0
 10
-25.4057
 20
6.75392
 11
-25.4763
 21
7.12399
  0
LINE
  8
0
 10
-25.4763
 20
7.12399
 11
-25.5
 21
7.5
  0
LINE
  8
0
 10
-25.5
 20
7.5
 11
-25.4763
 21
7.87599
  0
LINE
  8
0
 10
-25.4763
 20
7.87599
 11
-25.4057
 21
8.24606
  0
LINE
  8
0
 10
-25.4057
 20
8.24606
 11
-25.2893
 21
8.60437
  0
LINE
  8
0
 10
-25.2893
 20
8.60437
 11
-25.1289
 21
8.94525
  0
LINE
  8
0
 10
-25.1289
 20
8.94525
 11
-24.927
 21
9.26335
  0
LINE
  8
0
 10
-24.927
 20
9.26335
 11
-24.6869
 21
9.55363
  0
LINE
  8
0
 10
-24.6869
 20
9.55363
 11
-24.4123
 21
9.81154
  0
LINE
  8
0
 10
-24.4123
 20
9.81154
 11
-24.1075
 21
10.033
  0
LINE
  8
0
 10
-24.1075
 20
10.033
 11
-23.7773
 21
10.2145
  0
LINE
  8
0
 10
-23.7773
 20
10.2145
 11
-23.427
 21
10.3532
  0
LINE
  8
0
 10
-23.427
 20
10.3532
 11
-23.0621
 21
10.4469
  0
LINE
  8
0
 10
-23.0621
 20
10.4469
 11
-22.6884
 21
10.4941
  0
LINE
  8
0
 10
-22.6884
 20
10.4941
 11
-22.3116
 21
10.4941
  0
LINE
  8
0
 10
-22.3116
 20
10.4941
 11
-21.9379
 21
10.4469
  0
LINE
  8
0
 10
-21.9379
 20
10.4469
 11
-21.5729
 21
10.3532
  0
LINE
  8
0
 10
-21.5729
 20
10.3532
 11
-21.2227
 21
10.2145
  0
LINE
  8
0
 10
-21.2227
 20
10.2145
 11
-20.8925
 21
10.033
  0
LINE
  8
0
 10
-20.8925
 20
10.033
 11
-20.5877
 21
9.81154
  0
LINE
  8
0
 10
-20.5877
 20
9.81154
 11
-20.3131
 21
9.55363
  0
LINE
  8
0
 10
-20.3131
 20
9.55363
 11
-20.0729
 21
9.26335
  0
LINE
  8
0
 10
-20.0729
 20
9.26335
 11
-19.8711
 21
8.94525
  0
LINE
  8
0
 10
-19.8711
 20
8.94525
 11
-19.7107
 21
8.60437
  0
LINE
  8
0
 10
-19.7107
 20
8.60437
 11
-19.5942
 21
8.24606
  0
LINE
  8
0
 10
-19.5942
 20
8.24606
 11
-19.5237
 21
7.87599
  0
LINE
  8
0
 10
-19.5237
 20
7.87599
 11
-19.5
 21
7.5
  0
LINE
  8
0
 10
-19.5
 20
7.5
 11
-19.5237
 21
7.12399
  0
LINE
  8
0
 10
-19.5237
 20
7.12399
 11
-19.5942
 21
6.75392
  0
LINE
  8
0
 10
-19.5942
 20
6.75392
 11
-19.7107
 21
6.39561
  0
LINE
  8
0
 10
-19.7107
 20
6.39561
 11
-19.8711
 21
6.05473
  0
LINE
  8
0
 10
-19.8711
 20
6.05473
 11
-20.0729
 21
5.73663
  0
LINE
  8
0
 10
-20.0729
 20
5.73663
 11
-20.3131
 21
5.44635
  0
LINE
  8
0
 10
-20.3131
 20
5.44635
 11
-20.5877
 21
5.18845
  0
LINE
  8
0
 10
-20.5877
 20
5.18845
 11
-20.8925
 21
4.96701
  0
LINE
  8
0
 10
-20.8925
 20
4.96701
 11
-21.2227
 21
4.78551
  0
LINE
  8
0
 10
-21.2227
 20
4.78551
 11
-21.5729
 21
4.64682
  0
LINE
  8
0
 10
-21.5729
 20
4.64682
 11
-21.9379
 21
4.55313
  0
LINE
  8
0
 10
-21.9379
 20
4.55313
 11
-22.3116
 21
4.50591
  0
LINE
  8
0
 10
-22.3116
 20
4.50591
 11
-22.6884
 21
4.50591
  0
LINE
  8
0
 10
22.3116
 20
4.50591
 11
21.9379
 21
4.55313
  0
LINE
  8
0
 10
21.9379
 20
4.55313
 11
21.5729
 21
4.64682
  0
LINE
  8
0
 10
21.5729
 20
4.64682
 11
21.2227
 21
4.78551
  0
LINE
  8
0
 10
21.2227
 20
4.78551
 11
20.8925
 21
4.96701
  0
LINE
  8
0
 10
20.8925
 20
4.96701
 11
20.5877
 21
5.18845
  0
LINE
  8
0
 10
20.5877
 20
5.18845
 11
20.3131
 21
5.44635
  0
LINE
  8
0
 10
20.3131
 20
5.44635
 11
20.0729
 21
5.73663
  0
LINE
  8
0
 10
20.0729
 20
5.73663
 11
19.8711
 21
6.05473
  0
LINE
  8
0
 10
19.8711
 20
6.05473
 11
19.7107
 21
6.39561
  0
LINE
  8
0
 10
19.7107
 20
6.39561
 11
19.5942
 21
6.75392
  0
LINE
  8
0
 10
19.5942
 20
6.75392
 11
19.5237
 21
7.12399
  0
LINE
  8
0
 10
19.5237
 20
7.12399
 11
19.5
 21
7.5
  0
LINE
  8
0
 10
19.5
 20
7.5
 11
19.5237
 21
7.87599
  0
LINE
  8
0
 10
19.5237
 20
7.87599
 11
19.5942
 21
8.24606
  0
LINE
  8
0
 10
19.5942
 20
8.24606
 11
19.7107
 21
8.60437
  0
LINE
  8
0
 10
19.7107
 20
8.60437
 11
19.8711
 21
8.94525
  0
LINE
  8
0
 10
19.8711
 20
8.94525
 11
20.0729
 21
9.26335
  0
LINE
  8
0
 10
20.0729
 20
9.26335
 11
20.3131
 21
9.55363
  0
LINE
  8
0
 10
20.3131
 20
9.55363
 11
20.5877
 21
9.81154
  0
LINE
  8
0
 10
20.5877
 20
9.81154
 11
20.8925
 21
10.033
  0
LINE
  8
0
 10
20.8925
 20
10.033
 11
21.2227
 21
10.2145
  0
LINE
  8
0
 10
21.2227
 20
10.2145
 11
21.5729
 21
10.3532
  0
LINE
  8
0
 10
21.5729
 20
10.3532
 11
21.9379
 21
10.4469
  0
LINE
  8
0
 10
21.9379
 20
10.4469
 11
22.3116
 21
10.4941
  0
LINE
  8
0
 10
22.3116
 20
10.4941
 11
22.6884
 21
10.4941
  0
LINE
  8
0
 10
22.6884
 20
10.4941
 11
23.0621
 21
10.4469
  0
LINE
  8
0
 10
23.0621
 20
10.4469
 11
23.427
 21
10.3532
  0
LINE
  8
0
 10
23.427
 20
10.3532
 11
23.7773
 21
10.2145
  0
LINE
  8
0
 10
23.7773
 20
10.2145
 11
24.1075
 21
10.033
  0
LINE
  8
0
 10
24.1075
 20
10.033
 11
24.4123
 21
9.81154
  0
LINE
  8
0
 10
24.4123
 20
9.81154
 11
24.6869
 21
9.55363
  0
LINE
  8
0
 10
24.6869
 20
9.55363
 11
24.927
 21
9.26335
  0
LINE
  8
0
 10
24.927
 20
9.26335
 11
25.1289
 21
8.94525
  0
LINE
  8
0
 10
25.1289
 20
8.94525
 11
25.2893
 21
8.60437
  0
LINE
  8
0
 10
25.2893
 20
8.60437
 11
25.4057
 21
8.24606
  0
LINE
  8
0
 10
25.4057
 20
8.24606
 11
25.4763
 21
7.87599
  0
LINE
  8
0
 10
25.4763
 20
7.87599
 11
25.5
 21
7.5
  0
LINE
  8
0
 10
25.5
 20
7.5
 11
25.4763
 21
7.12399
  0
LINE
  8
0
 10
25.4763
 20
7.12399
 11
25.4057
 21
6.75392
  0
LINE
  8
0
 10
25.4057
 20
6.75392
 11
25.2893
 21
6.39561
  0
LINE
  8
0
 10
25.2893
 20
6.39561
 11
25.1289
 21
6.05473
  0
LINE
  8
0
 10
25.1289
 20
6.05473
 11
24.927
 21
5.73663
  0
LINE
  8
0
 10
24.927
 20
5.73663
 11
24.6869
 21
5.44635
  0
LINE
  8
0
 10
24.6869
 20
5.44635
 11
24.4123
 21
5.18845
  0
LINE
  8
0
 10
24.4123
 20
5.18845
 11
24.1075
 21
4.96701
  0
LINE
  8
0
 10
24.1075
 20
4.96701
 11
23.7773
 21
4.78551
  0
LINE
  8
0
 10
23.7773
 20
4.78551
 11
23.427
 21
4.64682
  0
LINE
  8
0
 10
23.427
 20
4.64682
 11
23.0621
 21
4.55313
  0
LINE
  8
0
 10
23.0621
 20
4.55313
 11
22.6884
 21
4.50591
  0
LINE
  8
0
 10
22.6884
 20
4.50591
 11
22.3116
 21
4.50591
  0
LINE
  8
0
 10
19.2488
 20
-3.9921
 11
18.7505
 21
-3.92914
  0
LINE
  8
0
 10
18.7505
 20
-3.92914
 11
18.2639
 21
-3.80421
  0
LINE
  8
0
 10
18.2639
 20
-3.80421
 11
17.7969
 21
-3.61929
  0
LINE
  8
0
 10
17.7969
 20
-3.61929
 11
17.3567
 21
-3.3773
  0
LINE
  8
0
 10
17.3567
 20
-3.3773
 11
16.9503
 21
-3.08205
  0
LINE
  8
0
 10
16.9503
 20
-3.08205
 11
16.5841
 21
-2.73817
  0
LINE
  8
0
 10
16.5841
 20
-2.73817
 11
16.2639
 21
-2.35114
  0
LINE
  8
0
 10
16.2639
 20
-2.35114
 11
15.9948
 21
-1.927
  0
LINE
  8
0
 10
15.9948
 20
-1.927
 11
15.7809
 21
-1.47249
  0
LINE
  8
0
 10
15.7809
 20
-1.47249
 11
15.6257
 21
-0.994751
  0
LINE
  8
0
 10
15.6257
 20
-0.994751
 11
15.5315
 21
-0.501328
  0
LINE
  8
0
 10
15.5315
 20
-0.501328
 11
15.5
 21
0
  0
LINE
  8
0
 10
15.5
 20
0
 11
15.5315
 21
0.501328
  0
LINE
  8
0
 10
15.5315
 20
0.501328
 11
15.6257
 21
0.994751
  0
LINE
  8
0
 10
15.6257
 20
0.994751
 11
15.7809
 21
1.47249
  0
LINE
  8
0
 10
15.7809
 20
1.47249
 11
15.9948
 21
1.927
  0
LINE
  8
0
 10
15.9948
 20
1.927
 11
16.2639
 21
2.35114
  0
LINE
  8
0
 10
16.2639
 20
2.35114
 11
16.5841
 21
2.73817
  0
LINE
  8
0
 10
16.5841
 20
2.73817
 11
16.9503
 21
3.08205
  0
LINE
  8
0
 10
16.9503
 20
3.08205
 11
17.3567
 21
3.3773
  0
LINE
  8
0
 10
17.3567
 20
3.3773
 11
17.7969
 21
3.61929
  0
LINE
  8
0
 10
17.7969
 20
3.61929
 11
18.2639
 21
3.80421
  0
LINE
  8
0
 10
18.2639
 20
3.80421
 11
18.7505
 21
3.92914
  0
LINE
  8
0
 10
18.7505
 20
3.92914
 11
19.2488
 21
3.9921
  0
LINE
  8
0
 10
19.2488
 20
3.9921
 11
19.7512
 21
3.9921
  0
LINE
  8
0
 10
19.7512
 20
3.9921
 11
20.2495
 21
3.92914
  0
LINE
  8
0
 10
20.2495
 20
3.92914
 11
20.7361
 21
3.80421
  0
LINE
  8
0
 10
20.7361
 20
3.80421
 11
21.2031
 21
3.61929
  0
LINE
  8
0
 10
21.2031
 20
3.61929
 11
21.6433
 21
3.3773
  0
LINE
  8
0
 10
21.6433
 20
3.3773
 11
22.0497
 21
3.08205
  0
LINE
  8
0
 10
22.0497
 20
3.08205
 11
22.4159
 21
2.73817
  0
LINE
  8
0
 10
22.4159
 20
2.73817
 11
22.7361
 21
2.35114
  0
LINE
  8
0
 10
22.7361
 20
2.35114
 11
23.0052
 21
1.927
  0
LINE
  8
0
 10
23.0052
 20
1.927
 11
23.2191
 21
1.47249
  0
LINE
  8
0
 10
23.2191
 20
1.47249
 11
23.3743
 21
0.994751
  0
LINE
  8
0
 10
23.3743
 20
0.994751
 11
23.4684
 21
0.501328
  0
LINE
  8
0
 10
23.4684
 20
0.501328
 11
23.5
 21
0
  0
LINE
  8
0
 10
23.5
 20
0
 11
23.4684
 21
-0.501328
  0
LINE
  8
0
 10
23.4684
 20
-0.501328
 11
23.3743
 21
-0.994751
  0
LINE
  8
0
 10
23.3743
 20
-0.994751
 11
23.2191
 21
-1.47249
  0
LINE
  8
0
 10
23.2191
 20
-1.47249
 11
23.0052
 21
-1.927
  0
LINE
  8
0
 10
23.0052
 20
-1.927
 11
22.7361
 21
-2.35114
  0
LINE
  8
0
 10
22.7361
 20
-2.35114
 11
22.4159
 21
-2.73817
  0
LINE
  8
0
 10
22.4159
 20
-2.73817
 11
22.0497
 21
-3.08205
  0
LINE
  8
0
 10
22.0497
 20
-3.08205
 11
21.6433
 21
-3.3773
  0
LINE
  8
0
 10
21.6433
 20
-3.3773
 11
21.2031
 21
-3.61929
  0
LINE
  8
0
 10
21.2031
 20
-3.61929
 11
20.7361
 21
-3.80421
  0
LINE
  8
0
 10
20.7361
 20
-3.80421
 11
20.2495
 21
-3.92914
  0
LINE
  8
0
 10
20.2495
 20
-3.92914
 11
19.7512
 21
-3.9921
  0
LINE
  8
0
 10
19.7512
 20
-3.9921
 11
19.2488
 21
-3.9921
  0
LINE
  8
0
 10
-19.7512
 20
-3.9921
 11
-20.2495
 21
-3.92914
  0
LINE
  8
0
 10
-20.2495
 20
-3.92914
 11
-20.7361
 21
-3.80421
  0
LINE
  8
0
 10
-20.7361
 20
-3.80421
 11
-21.2031
 21
-3.61929
  0
LINE
  8
0
 10
-21.2031
 20
-3.61929
 11
-21.6433
 21
-3.3773
  0
LINE
  8
0
 10
-21.6433
 20
-3.3773
 11
-22.0497
 21
-3.08205
  0
LINE
  8
0
 10
-22.0497
 20
-3.08205
 11
-22.4159
 21
-2.73817
  0
LINE
  8
0
 10
-22.4159
 20
-2.73817
 11
-22.7361
 21
-2.35114
  0
LINE
  8
0
 10
-22.7361
 20
-2.35114
 11
-23.0052
 21
-1.927
  0
LINE
  8
0
 10
-23.0052
 20
-1.927
 11
-23.2191
 21
-1.47249
  0
LINE
  8
0
 10
-23.2191
 20
-1.47249
 11
-23.3743
 21
-0.994751
  0
LINE
  8
0
 10
-23.3743
 20
-0.994751
 11
-23.4684
 21
-0.501328
  0
LINE
  8
0
 10
-23.4684
 20
-0.501328
 11
-23.5
 21
0
  0
LINE
  8
0
 10
-23.5
 20
0
 11
-23.4684
 21
0.501328
  0
LINE
  8
0
 10
-23.4684
 20
0.501328
 11
-23.3743
 21
0.994751
  0
LINE
  8
0
 10
-23.3743
 20
0.994751
 11
-23.2191
 21
1.47249
  0
LINE
  8
0
 10
-23.2191
 20
1.47249
 11
-23.0052
 21
1.927
  0
LINE
  8
0
 10
-23.0052
 20
1.927
 11
-22.7361
 21
2.35114
  0
LINE
  8
0
 10
-22.7361
 20
2.35114
 11
-22.4159
 21
2.73817
  0
LINE
  8
0
 10
-22.4159
 20
2.73817
 11
-22.0497
 21
3.08205
  0
LINE
  8
0
 10
-22.0497
 20
3.08205
 11
-21.6433
 21
3.3773
  0
LINE
  8
0
 10
-21.6433
 20
3.3773
 11
-21.2031
 21
3.61929
  0
LINE
  8
0
 10
-21.2031
 20
3.61929
 11
-20.7361
 21
3.80421
  0
LINE
  8
0
 10
-20.7361
 20
3.80421
 11
-20.2495
 21
3.92914
  0
LINE
  8
0
 10
-20.2495
 20
3.92914
 11
-19.7512
 21
3.9921
  0
LINE
  8
0
 10
-19.7512
 20
3.9921
 11
-19.2488
 21
3.9921
  0
LINE
  8
0
 10
-19.2488
 20
3.9921
 11
-18.7505
 21
3.92914
  0
LINE
  8
0
 10
-18.7505
 20
3.92914
 11
-18.2639
 21
3.80421
  0
LINE
  8
0
 10
-18.2639
 20
3.80421
 11
-17.7969
 21
3.61929
  0
LINE
  8
0
 10
-17.7969
 20
3.61929
 11
-17.3567
 21
3.3773
  0
LINE
  8
0
 10
-17.3567
 20
3.3773
 11
-16.9503
 21
3.08205
  0
LINE
  8
0
 10
-16.9503
 20
3.08205
 11
-16.5841
 21
2.73817
  0
LINE
  8
0
 10
-16.5841
 20
2.73817
 11
-16.2639
 21
2.35114
  0
LINE
  8
0
 10
-16.2639
 20
2.35114
 11
-15.9948
 21
1.927
  0
LINE
  8
0
 10
-15.9948
 20
1.927
 11
-15.7809
 21
1.47249
  0
LINE
  8
0
 10
-15.7809
 20
1.47249
 11
-15.6257
 21
0.994751
  0
LINE
  8
0
 10
-15.6257
 20
0.994751
 11
-15.5315
 21
0.501328
  0
LINE
  8
0
 10
-15.5315
 20
0.501328
 11
-15.5
 21
0
  0
LINE
  8
0
 10
-15.5
 20
0
 11
-15.5315
 21
-0.501328
  0
LINE
  8
0
 10
-15.5315
 20
-0.501328
 11
-15.6257
 21
-0.994751
  0
LINE
  8
0
 10
-15.6257
 20
-0.994751
 11
-15.7809
 21
-1.47249
  0
LINE
  8
0
 10
-15.7809
 20
-1.47249
 11
-15.9948
 21
-1.927
  0
LINE
  8
0
 10
-15.9948
 20
-1.927
 11
-16.2639
 21
-2.35114
  0
LINE
  8
0
 10
-16.2639
 20
-2.35114
 11
-16.5841
 21
-2.73817
  0
LINE
  8
0
 10
-16.5841
 20
-2.73817
 11
-16.9503
 21
-3.08205
  0
LINE
  8
0
 10
-16.9503
 20
-3.08205
 11
-17.3567
 21
-3.3773
  0
LINE
  8
0
 10
-17.3567
 20
-3.3773
 11
-17.7969
 21
-3.61929
  0
LINE
  8
0
 10
-17.7969
 20
-3.61929
 11
-18.2639
 21
-3.80421
  0
LINE
  8
0
 10
-18.2639
 20
-3.80421
 11
-18.7505
 21
-3.92914
  0
LINE
  8
0
 10
-18.7505
 20
-3.92914
 11
-19.2488
 21
-3.9921
  0
LINE
  8
0
 10
-19.2488
 20
-3.9921
 11
-19.7512
 21
-3.9921
  0
LINE
  8
0
 10
6.24883
 20
-3.9921
 11
5.75047
 21
-3.92914
  0
LINE
  8
0
 10
5.75047
 20
-3.92914
 11
5.26393
 21
-3.80421
  0
LINE
  8
0
 10
5.26393
 20
-3.80421
 11
4.79688
 21
-3.61929
  0
LINE
  8
0
 10
4.79688
 20
-3.61929
 11
4.35669
 21
-3.3773
  0
LINE
  8
0
 10
4.35669
 20
-3.3773
 11
3.9503
 21
-3.08205
  0
LINE
  8
0
 10
3.9503
 20
-3.08205
 11
3.58412
 21
-2.73817
  0
LINE
  8
0
 10
3.58412
 20
-2.73817
 11
3.26393
 21
-2.35114
  0
LINE
  8
0
 10
3.26393
 20
-2.35114
 11
2.99477
 21
-1.927
  0
LINE
  8
0
 10
2.99477
 20
-1.927
 11
2.78088
 21
-1.47249
  0
LINE
  8
0
 10
2.78088
 20
-1.47249
 11
2.62566
 21
-0.994751
  0
LINE
  8
0
 10
2.62566
 20
-0.994751
 11
2.53154
 21
-0.501328
  0
LINE
  8
0
 10
2.53154
 20
-0.501328
 11
2.5
 21
0
  0
LINE
  8
0
 10
2.5
 20
0
 11
2.53154
 21
0.501328
  0
LINE
  8
0
 10
2.53154
 20
0.501328
 11
2.62566
 21
0.994751
  0
LINE
  8
0
 10
2.62566
 20
0.994751
 11
2.78088
 21
1.47249
  0
LINE
  8
0
 10
2.78088
 20
1.47249
 11
2.99477
 21
1.927
  0
LINE
  8
0
 10
2.99477
 20
1.927
 11
3.26393
 21
2.35114
  0
LINE
  8
0
 10
3.26393
 20
2.35114
 11
3.58412
 21
2.73817
  0
LINE
  8
0
 10
3.58412
 20
2.73817
 11
3.9503
 21
3.08205
  0
LINE
  8
0
 10
3.9503
 20
3.08205
 11
4.35669
 21
3.3773
  0
LINE
  8
0
 10
4.35669
 20
3.3773
 11
4.79688
 21
3.61929
  0
LINE
  8
0
 10
4.79688
 20
3.61929
 11
5.26393
 21
3.80421
  0
LINE
  8
0
 10
5.26393
 20
3.80421
 11
5.75047
 21
3.92914
  0
LINE
  8
0
 10
5.75047
 20
3.92914
 11
6.24883
 21
3.9921
  0
LINE
  8
0
 10
6.24883
 20
3.9921
 11
6.75116
 21
3.9921
  0
LINE
  8
0
 10
6.75116
 20
3.9921
 11
7.24951
 21
3.92914
  0
LINE
  8
0
 10
7.24951
 20
3.92914
 11
7.73605
 21
3.80421
  0
LINE
  8
0
 10
7.73605
 20
3.80421
 11
8.20311
 21
3.61929
  0
LINE
  8
0
 10
8.20311
 20
3.61929
 11
8.6433
 21
3.3773
  0
LINE
  8
0
 10
8.6433
 20
3.3773
 11
9.04968
 21
3.08205
  0
LINE
  8
0
 10
9.04968
 20
3.08205
 11
9.41586
 21
2.73817
  0
LINE
  8
0
 10
9.41586
 20
2.73817
 11
9.73605
 21
2.35114
  0
LINE
  8
0
 10
9.73605
 20
2.35114
 11
10.0052
 21
1.927
  0
LINE
  8
0
 10
10.0052
 20
1.927
 11
10.2191
 21
1.47249
  0
LINE
  8
0
 10
10.2191
 20
1.47249
 11
10.3743
 21
0.994751
  0
LINE
  8
0
 10
10.3743
 20
0.994751
 11
10.4684
 21
0.501328
  0
LINE
  8
0
 10
10.4684
 20
0.501328
 11
10.5
 21
0
  0
LINE
  8
0
 10
10.5
 20
0
 11
10.4684
 21
-0.501328
  0
LINE
  8
0
 10
10.4684
 20
-0.501328
 11
10.3743
 21
-0.994751
  0
LINE
  8
0
 10
10.3743
 20
-0.994751
 11
10.2191
 21
-1.47249
  0
LINE
  8
0
 10
10.2191
 20
-1.47249
 11
10.0052
 21
-1.927
  0
LINE
  8
0
 10
10.0052
 20
-1.927
 11
9.73605
 21
-2.35114
  0
LINE
  8
0
 10
9.73605
 20
-2.35114
 11
9.41586
 21
-2.73817
  0
LINE
  8
0
 10
9.41586
 20
-2.73817
 11
9.04968
 21
-3.08205
  0
LINE
  8
0
 10
9.04968
 20
-3.08205
 11
8.6433
 21
-3.3773
  0
LINE
  8
0
 10
8.6433
 20
-3.3773
 11
8.20311
 21
-3.61929
  0
LINE
  8
0
 10
8.20311
 20
-3.61929
 11
7.73605
 21
-3.80421
  0
LINE
  8
0
 10
7.73605
 20
-3.80421
 11
7.24951
 21
-3.92914
  0
LINE
  8
0
 10
7.24951
 20
-3.92914
 11
6.75116
 21
-3.9921
  0
LINE
  8
0
 10
6.75116
 20
-3.9921
 11
6.24883
 21
-3.9921
  0
LINE
  8
0
 10
-6.75116
 20
-3.9921
 11
-7.24951
 21
-3.92914
  0
LINE
  8
0
 10
-7.24951
 20
-3.92914
 11
-7.73605
 21
-3.80421
  0
LINE
  8
0
 10
-7.73605
 20
-3.80421
 11
-8.20311
 21
-3.61929
  0
LINE
  8
0
 10
-8.20311
 20
-3.61929
 11
-8.6433
 21
-3.3773
  0
LINE
  8
0
 10
-8.6433
 20
-3.3773
 11
-9.04968
 21
-3.08205
  0
LINE
  8
0
 10
-9.04968
 20
-3.08205
 11
-9.41586
 21
-2.73817
  0
LINE
  8
0
 10
-9.41586
 20
-2.73817
 11
-9.73605
 21
-2.35114
  0
LINE
  8
0
 10
-9.73605
 20
-2.35114
 11
-10.0052
 21
-1.927
  0
LINE
  8
0
 10
-10.0052
 20
-1.927
 11
-10.2191
 21
-1.47249
  0
LINE
  8
0
 10
-10.2191
 20
-1.47249
 11
-10.3743
 21
-0.994751
  0
LINE
  8
0
 10
-10.3743
 20
-0.994751
 11
-10.4684
 21
-0.501328
  0
LINE
  8
0
 10
-10.4684
 20
-0.501328
 11
-10.5
 21
0
  0
LINE
  8
0
 10
-10.5
 20
0
 11
-10.4684
 21
0.501328
  0
LINE
  8
0
 10
-10.4684
 20
0.501328
 11
-10.3743
 21
0.994751
  0
LINE
  8
0
 10
-10.3743
 20
0.994751
 11
-10.2191
 21
1.47249
  0
LINE
  8
0
 10
-10.2191
 20
1.47249
 11
-10.0052
 21
1.927
  0
LINE
  8
0
 10
-10.0052
 20
1.927
 11
-9.73605
 21
2.35114
  0
LINE
  8
0
 10
-9.73605
 20
2.35114
 11
-9.41586
 21
2.73817
  0
LINE
  8
0
 10
-9.41586
 20
2.73817
 11
-9.04968
 21
3.08205
  0
LINE
  8
0
 10
-9.04968
 20
3.08205
 11
-8.6433
 21
3.3773
  0
LINE
  8
0
 10
-8.6433
 20
3.3773
 11
-8.20311
 21
3.61929
  0
LINE
  8
0
 10
-8.20311
 20
3.61929
 11
-7.73605
 21
3.80421
  0
LINE
  8
0
 10
-7.73605
 20
3.80421
 11
-7.24951
 21
3.92914
  0
LINE
  8
0
 10
-7.24951
 20
3.92914
 11
-6.75116
 21
3.9921
  0
LINE
  8
0
 10
-6.75116
 20
3.9921
 11
-6.24883
 21
3.9921
  0
LINE
  8
0
 10
-6.24883
 20
3.9921
 11
-5.75047
 21
3.92914
  0
LINE
  8
0
 10
-5.75047
 20
3.92914
 11
-5.26393
 21
3.80421
  0
LINE
  8
0
 10
-5.26393
 20
3.80421
 11
-4.79688
 21
3.61929
  0
LINE
  8
0
 10
-4.79688
 20
3.61929
 11
-4.35669
 21
3.3773
  0
LINE
  8
0
 10
-4.35669
 20
3.3773
 11
-3.9503
 21
3.08205
  0
LINE
  8
0
 10
-3.9503
 20
3.08205
 11
-3.58412
 21
2.73817
  0
LINE
  8
0
 10
-3.58412
 20
2.73817
 11
-3.26393
 21
2.35114
  0
LINE
  8
0
 10
-3.26393
 20
2.35114
 11
-2.99477
 21
1.927
  0
LINE
  8
0
 10
-2.99477
 20
1.927
 11
-2.78088
 21
1.47249
  0
LINE
  8
0
 10
-2.78088
 20
1.47249
 11
-2.62566
 21
0.994751
  0
LINE
  8
0
 10
-2.62566
 20
0.994751
 11
-2.53154
 21
0.501328
  0
LINE
  8
0
 10
-2.53154
 20
0.501328
 11
-2.5
 21
0
  0
LINE
  8
0
 10
-2.5
 20
0
 11
-2.53154
 21
-0.501328
  0
LINE
  8
0
 10
-2.53154
 20
-0.501328
 11
-2.62566
 21
-0.994751
  0
LINE
  8
0
 10
-2.62566
 20
-0.994751
 11
-2.78088
 21
-1.47249
  0
LINE
  8
0
 10
-2.78088
 20
-1.47249
 11
-2.99477
 21
-1.927
  0
LINE
  8
0
 10
-2.99477
 20
-1.927
 11
-3.26393
 21
-2.35114
  0
LINE
  8
0
 10
-3.26393
 20
-2.35114
 11
-3.58412
 21
-2.73817
  0
LINE
  8
0
 10
-3.58412
 20
-2.73817
 11
-3.9503
 21
-3.08205
  0
LINE
  8
0
 10
-3.9503
 20
-3.08205
 11
-4.35669
 21
-3.3773
  0
LINE
  8
0
 10
-4.35669
 20
-3.3773
 11
-4.79688
 21
-3.61929
  0
LINE
  8
0
 10
-4.79688
 20
-3.61929
 11
-5.26393
 21
-3.80421
  0
LINE
  8
0
 10
-5.26393
 20
-3.80421
 11
-5.75047
 21
-3.92914
  0
LINE
  8
0
 10
-5.75047
 20
-3.92914
 11
-6.24883
 21
-3.9921
  0
LINE
  8
0
 10
-6.24883
 20
-3.9921
 11
-6.75116
 21
-3.9921
  0
LINE
  8
0
 10
-22.6884
 20
-10.4941
 11
-23.0621
 21
-10.4469
  0
LINE
  8
0
 10
-23.0621
 20
-10.4469
 11
-23.427
 21
-10.3532
  0
LINE
  8
0
 10
-23.427
 20
-10.3532
 11
-23.7773
 21
-10.2145
  0
LINE
  8
0
 10
-23.7773
 20
-10.2145
 11
-24.1075
 21
-10.033
  0
LINE
  8
0
 10
-24.1075
 20
-10.033
 11
-24.4123
 21
-9.81154
  0
LINE
  8
0
 10
-24.4123
 20
-9.81154
 11
-24.6869
 21
-9.55363
  0
LINE
  8
0
 10
-24.6869
 20
-9.55363
 11
-24.927
 21
-9.26335
  0
LINE
  8
0
 10
-24.927
 20
-9.26335
 11
-25.1289
 21
-8.94525
  0
LINE
  8
0
 10
-25.1289
 20
-8.94525
 11
-25.2893
 21
-8.60437
  0
LINE
  8
0
 10
-25.2893
 20
-8.60437
 11
-25.4057
 21
-8.24606
  0
LINE
  8
0
 10
-25.4057
 20
-8.24606
 11
-25.4763
 21
-7.87599
  0
LINE
  8
0
 10
-25.4763
 20
-7.87599
 11
-25.5
 21
-7.5
  0
LINE
  8
0
 10
-25.5
 20
-7.5
 11
-25.4763
 21
-7.12399
  0
LINE
  8
0
 10
-25.4763
 20
-7.12399
 11
-25.4057
 21
-6.75392
  0
LINE
  8
0
 10
-25.4057
 20
-6.75392
 11
-25.2893
 21
-6.39561
  0
LINE
  8
0
 10
-25.2893
 20
-6.39561
 11
-25.1289
 21
-6.05473
  0
LINE
  8
0
 10
-25.1289
 20
-6.05473
 11
-24.927
 21
-5.73663
  0
LINE
  8
0
 10
-24.927
 20
-5.73663
 11
-24.6869
 21
-5.44635
  0
LINE
  8
0
 10
-24.6869
 20
-5.44635
 11
-24.4123
 21
-5.18845
  0
LINE
  8
0
 10
-24.4123
 20
-5.18845
 11
-24.1075
 21
-4.96701
  0
LINE
  8
0
 10
-24.1075
 20
-4.96701
 11
-23.7773
 21
-4.78551
  0
LINE
  8
0
 10
-23.7773
 20
-4.78551
 11
-23.427
 21
-4.64682
  0
LINE
  8
0
 10
-23.427
 20
-4.64682
 11
-23.0621
 21
-4.55313
  0
LINE
  8
0
 10
-23.0621
 20
-4.55313
 11
-22.6884
 21
-4.50591
  0
LINE
  8
0
 10
-22.6884
 20
-4.50591
 11
-22.3116
 21
-4.50591
  0
LINE
  8
0
 10
-22.3116
 20
-4.50591
 11
-21.9379
 21
-4.55313
  0
LINE
  8
0
 10
-21.9379
 20
-4.55313
 11
-21.5729
 21
-4.64682
  0
LINE
  8
0
 10
-21.5729
 20
-4.64682
 11
-21.2227
 21
-4.78551
  0
LINE
  8
0
 10
-21.2227
 20
-4.78551
 11
-20.8925
 21
-4.96701
  0
LINE
  8
0
 10
-20.8925
 20
-4.96701
 11
-20.5877
 21
-5.18845
  0
LINE
  8
0
 10
-20.5877
 20
-5.18845
 11
-20.3131
 21
-5.44635
  0
LINE
  8
0
 10
-20.3131
 20
-5.44635
 11
-20.0729
 21
-5.73663
  0
LINE
  8
0
 10
-20.0729
 20
-5.73663
 11
-19.8711
 21
-6.05473
  0
LINE
  8
0
 10
-19.8711
 20
-6.05473
 11
-19.7107
 21
-6.39561
  0
LINE
  8
0
 10
-19.7107
 20
-6.39561
 11
-19.5942
 21
-6.75392
  0
LINE
  8
0
 10
-19.5942
 20
-6.75392
 11
-19.5237
 21
-7.12399
  0
LINE
  8
0
 10
-19.5237
 20
-7.12399
 11
-19.5
 21
-7.5
  0
LINE
  8
0
 10
-19.5
 20
-7.5
 11
-19.5237
 21
-7.87599
  0
LINE
  8
0
 10
-19.5237
 20
-7.87599
 11
-19.5942
 21
-8.24606
  0
LINE
  8
0
 10
-19.5942
 20
-8.24606
 11
-19.7107
 21
-8.60437
  0
LINE
  8
0
 10
-19.7107
 20
-8.60437
 11
-19.8711
 21
-8.94525
  0
LINE
  8
0
 10
-19.8711
 20
-8.94525
 11
-20.0729
 21
-9.26335
  0
LINE
  8
0
 10
-20.0729
 20
-9.26335
 11
-20.3131
 21
-9.55363
  0
LINE
  8
0
 10
-20.3131
 20
-9.55363
 11
-20.5877
 21
-9.81154
  0
LINE
  8
0
 10
-20.5877
 20
-9.81154
 11
-20.8925
 21
-10.033
  0
LINE
  8
0
 10
-20.8925
 20
-10.033
 11
-21.2227
 21
-10.2145
  0
LINE
  8
0
 10
-21.2227
 20
-10.2145
 11
-21.5729
 21
-10.3532
  0
LINE
  8
0
 10
-21.5729
 20
-10.3532
 11
-21.9379
 21
-10.4469
  0
LINE
  8
0
 10
-21.9379
 20
-10.4469
 11
-22.3116
 21
-10.4941
  0
LINE
  8
0
 10
-22.3116
 20
-10.4941
 11
-22.6884
 21
-10.4941
  0
LINE
  8
0
 10
22.3116
 20
-10.4941
 11
21.9379
 21
-10.4469
  0
LINE
  8
0
 10
21.9379
 20
-10.4469
 11
21.5729
 21
-10.3532
  0
LINE
  8
0
 10
21.5729
 20
-10.3532
 11
21.2227
 21
-10.2145
  0
LINE
  8
0
 10
21.2227
 20
-10.2145
 11
20.8925
 21
-10.033
  0
LINE
  8
0
 10
20.8925
 20
-10.033
 11
20.5877
 21
-9.81154
  0
LINE
  8
0
 10
20.5877
 20
-9.81154
 11
20.3131
 21
-9.55363
  0
LINE
  8
0
 10
20.3131
 20
-9.55363
 11
20.0729
 21
-9.26335
  0
LINE
  8
0
 10
20.0729
 20
-9.26335
 11
19.8711
 21
-8.94525
  0
LINE
  8
0
 10
19.8711
 20
-8.94525
 11
19.7107
 21
-8.60437
  0
LINE
  8
0
 10
19.7107
 20
-8.60437
 11
19.5942
 21
-8.24606
  0
LINE
  8
0
 10
19.5942
 20
-8.24606
 11
19.5237
 21
-7.87599
  0
LINE
  8
0
 10
19.5237
 20
-7.87599
 11
19.5
 21
-7.5
  0
LINE
  8
0
 10
19.5
 20
-7.5
 11
19.5237
 21
-7.12399
  0
LINE
  8
0
 10
19.5237
 20
-7.12399
 11
19.5942
 21
-6.75392
  0
LINE
  8
0
 10
19.5942
 20
-6.75392
 11
19.7107
 21
-6.39561
  0
LINE
  8
0
 10
19.7107
 20
-6.39561
 11
19.8711
 21
-6.05473
  0
LINE
  8
0
 10
19.8711
 20
-6.05473
 11
20.0729
 21
-5.73663
  0
LINE
  8
0
 10
20.0729
 20
-5.73663
 11
20.3131
 21
-5.44635
  0
LINE
  8
0
 10
20.3131
 20
-5.44635
 11
20.5877
 21
-5.18845
  0
LINE
  8
0
 10
20.5877
 20
-5.18845
 11
20.8925
 21
-4.96701
  0
LINE
  8
0
 10
20.8925
 20
-4.96701
 11
21.2227
 21
-4.78551
  0
LINE
  8
0
 10
21.2227
 20
-4.78551
 11
21.5729
 21
-4.64682
  0
LINE
  8
0
 10
21.5729
 20
-4.64682
 11
21.9379
 21
-4.55313
  0
LINE
  8
0
 10
21.9379
 20
-4.55313
 11
22.3116
 21
-4.50591
  0
LINE
  8
0
 10
22.3116
 20
-4.50591
 11
22.6884
 21
-4.50591
  0
LINE
  8
0
 10
22.6884
 20
-4.50591
 11
23.0621
 21
-4.55313
  0
LINE
  8
0
 10
23.0621
 20
-4.55313
 11
23.427
 21
-4.64682
  0
LINE
  8
0
 10
23.427
 20
-4.64682
 11
23.7773
 21
-4.78551
  0
LINE
  8
0
 10
23.7773
 20
-4.78551
 11
24.1075
 21
-4.96701
  0
LINE
  8
0
 10
24.1075
 20
-4.96701
 11
24.4123
 21
-5.18845
  0
LINE
  8
0
 10
24.4123
 20
-5.18845
 11
24.6869
 21
-5.44635
  0
LINE
  8
0
 10
24.6869
 20
-5.44635
 11
24.927
 21
-5.73663
  0
LINE
  8
0
 10
24.927
 20
-5.73663
 11
25.1289
 21
-6.05473
  0
LINE
  8
0
 10
25.1289
 20
-6.05473
 11
25.2893
 21
-6.39561
  0
LINE
  8
0
 10
25.2893
 20
-6.39561
 11
25.4057
 21
-6.75392
  0
LINE
  8
0
 10
25.4057
 20
-6.75392
 11
25.4763
 21
-7.12399
  0
LINE
  8
0
 10
25.4763
 20
-7.12399
 11
25.5
 21
-7.5
  0
LINE
  8
0
 10
25.5
 20
-7.5
 11
25.4763
 21
-7.87599
  0
LINE
  8
0
 10
25.4763
 20
-7.87599
 11
25.4057
 21
-8.24606
  0
LINE
  8
0
 10
25.4057
 20
-8.24606
 11
25.2893
 21
-8.60437
  0
LINE
  8
0
 10
25.2893
 20
-8.60437
 11
25.1289
 21
-8.94525
  0
LINE
  8
0
 10
25.1289
 20
-8.94525
 11
24.927
 21
-9.26335
  0
LINE
  8
0
 10
24.927
 20
-9.26335
 11
24.6869
 21
-9.55363
  0
LINE
  8
0
 10
24.6869
 20
-9.55363
 11
24.4123
 21
-9.81154
  0
LINE
  8
0
 10
24.4123
 20
-9.81154
 11
24.1075
 21
-10.033
  0
LINE
  8
0
 10
24.1075
 20
-10.033
 11
23.7773
 21
-10.2145
  0
LINE
  8
0
 10
23.7773
 20
-10.2145
 11
23.427
 21
-10.3532
  0
LINE
  8
0
 10
23.427
 20
-10.3532
 11
23.0621
 21
-10.4469
  0
LINE
  8
0
 10
23.0621
 20
-10.4469
 11
22.6884
 21
-10.4941
  0
LINE
  8
0
 10
22.6884
 20
-10.4941
 11
22.3116
 21
-10.4941
  0
ENDSEC
  0
SECTION
  2
OBJECTS
  0
DICTIONARY
  0
ENDSEC
  0
EOF
