<?xml version="1.0" standalone="no"?>
<!DOCTYPE svg PUBLIC "-//W3C//DTD SVG 1.1//EN" "http://www.w3.org/Graphics/SVG/1.1/DTD/svg11.dtd">
<svg width="284mm" height="104mm" viewBox="-142 -52 284 104" xmlns="http://www.w3.org/2000/svg" version="1.1">
<title>OpenSCAD Model</title>
<path d="
M 137.937,51.9114 L 138.545,51.7553 L 139.129,51.5241 L 139.679,51.2216 L 140.187,50.8526 L 140.645,50.4227
 L 141.045,49.9389 L 141.382,49.4088 L 141.649,48.8406 L 141.843,48.2434 L 141.961,47.6267 L 142,47
 L 142,-47 L 141.961,-47.6267 L 141.843,-48.2434 L 141.649,-48.8406 L 141.382,-49.4088 L 141.045,-49.9389
 L 140.645,-50.4227 L 140.187,-50.8526 L 139.679,-51.2216 L 139.129,-51.5241 L 138.545,-51.7553 L 137.937,-51.9114
 L 137.314,-51.9901 L -137.314,-51.9901 L -137.937,-51.9114 L -138.545,-51.7553 L -139.129,-51.5241 L -139.679,-51.2216
 L -140.187,-50.8526 L -140.645,-50.4227 L -141.045,-49.9389 L -141.382,-49.4088 L -141.649,-48.8406 L -141.843,-48.2434
 L -141.961,-47.6267 L -142,-47 L -142,47 L -141.961,47.6267 L -141.843,48.2434 L -141.649,48.8406
 L -141.382,49.4088 L -141.045,49.9389 L -140.645,50.4227 L -140.187,50.8526 L -139.679,51.2216 L -139.129,51.5241
 L -138.545,51.7553 L -137.937,51.9114 L -137.314,51.9901 L 137.314,51.9901 z
M -135.188,-42.0059 L -135.562,-42.0531 L -135.927,-42.1468 L -136.277,-42.2855 L -136.607,-42.467 L -136.912,-42.6885
 L -137.187,-42.9464 L -137.427,-43.2366 L -137.629,-43.5547 L -137.789,-43.8956 L -137.906,-44.2539 L -137.976,-44.624
 L -138,-45 L -137.976,-45.376 L -137.906,-45.7461 L -137.789,-46.1044 L -137.629,-46.4453 L -137.427,-46.7634
 L -137.187,-47.0536 L -136.912,-47.3115 L -136.607,-47.533 L -136.277,-47.7145 L -135.927,-47.8532 L -135.562,-47.9469
 L -135.188,-47.9941 L -134.812,-47.9941 L -134.438,-47.9469 L -134.073,-47.8532 L -133.723,-47.7145 L -133.393,-47.533
 L -133.088,-47.3115 L -132.813,-47.0536 L -132.573,-46.7634 L -132.371,-46.4453 L -132.211,-46.1044 L -132.094,-45.7461
 L -132.024,-45.376 L -132,-45 L -132.024,-44.624 L -132.094,-44.2539 L -132.211,-43.8956 L -132.371,-43.5547
 L -132.573,-43.2366 L -132.813,-42.9464 L -133.088,-42.6885 L -133.393,-42.467 L -133.723,-42.2855 L -134.073,-42.1468
 L -134.438,-42.0531 L -134.812,-42.0059 z
M 134.812,-42.0059 L 134.438,-42.0531 L 134.073,-42.1468 L 133.723,-42.2855 L 133.393,-42.467 L 133.088,-42.6885
 L 132.813,-42.9464 L 132.573,-43.2366 L 132.371,-43.5547 L 132.211,-43.8956 L 132.094,-44.2539 L 132.024,-44.624
 L 132,-45 L 132.024,-45.376 L 132.094,-45.7461 L 132.211,-46.1044 L 132.371,-46.4453 L 132.573,-46.7634
 L 132.813,-47.0536 L 133.088,-47.3115 L 133.393,-47.533 L 133.723,-47.7145 L 134.073,-47.8532 L 134.438,-47.9469
 L 134.812,-47.9941 L 135.188,-47.9941 L 135.562,-47.9469 L 135.927,-47.8532 L 136.277,-47.7145 L 136.607,-47.533
 L 136.912,-47.3115 L 137.187,-47.0536 L 137.427,-46.7634 L 137.629,-46.4453 L 137.789,-46.1044 L 137.906,-45.7461
 L 137.976,-45.376 L 138,-45 L 137.976,-44.624 L 137.906,-44.2539 L 137.789,-43.8956 L 137.629,-43.5547
 L 137.427,-43.2366 L 137.187,-42.9464 L 136.912,-42.6885 L 136.607,-42.467 L 136.277,-42.2855 L 135.927,-42.1468
 L 135.562,-42.0531 L 135.188,-42.0059 z
M 87.3314,42.4161 L 82.0363,41.7472 L 76.8668,40.4199 L 71.9044,38.4551 L 67.2274,35.8839 L 62.9095,32.7468
 L 59.0188,29.0932 L 55.6168,24.9809 L 52.757,20.4745 L 50.4845,15.6453 L 48.8352,10.5693 L 47.8351,5.32666
 L 47.5,-0 L 47.8351,-5.32666 L 48.8352,-10.5693 L 50.4845,-15.6453 L 52.757,-20.4745 L 55.6168,-24.9809
 L 59.0188,-29.0932 L 62.9095,-32.7468 L 67.2274,-35.8839 L 71.9044,-38.4551 L 76.8668,-40.4199 L 82.0363,-41.7472
 L 87.3314,-42.4161 L 92.6686,-42.4161 L 97.9637,-41.7472 L 103.133,-40.4199 L 108.096,-38.4551 L 112.773,-35.8839
 L 117.091,-32.7468 L 120.981,-29.0932 L 124.383,-24.9809 L 127.243,-20.4745 L 129.516,-15.6453 L 131.165,-10.5693
 L 132.165,-5.32666 L 132.5,-0 L 132.165,5.32666 L 131.165,10.5693 L 129.516,15.6453 L 127.243,20.4745
 L 124.383,24.9809 L 120.981,29.0932 L 117.091,32.7468 L 112.773,35.8839 L 108.096,38.4551 L 103.133,40.4199
 L 97.9637,41.7472 L 92.6686,42.4161 z
M -2.66859,42.4161 L -7.9637,41.7472 L -13.1332,40.4199 L -18.0956,38.4551 L -22.7726,35.8839 L -27.0905,32.7468
 L -30.9812,29.0932 L -34.3832,24.9809 L -37.243,20.4745 L -39.5155,15.6453 L -41.1648,10.5693 L -42.1649,5.32666
 L -42.5,-0 L -42.1649,-5.32666 L -41.1648,-10.5693 L -39.5155,-15.6453 L -37.243,-20.4745 L -34.3832,-24.9809
 L -30.9812,-29.0932 L -27.0905,-32.7468 L -22.7726,-35.8839 L -18.0956,-38.4551 L -13.1332,-40.4199 L -7.9637,-41.7472
 L -2.66859,-42.4161 L 2.66859,-42.4161 L 7.9637,-41.7472 L 13.1332,-40.4199 L 18.0956,-38.4551 L 22.7726,-35.8839
 L 27.0905,-32.7468 L 30.9812,-29.0932 L 34.3832,-24.9809 L 37.243,-20.4745 L 39.5155,-15.6453 L 41.1648,-10.5693
 L 42.1649,-5.32666 L 42.5,-0 L 42.1649,5.32666 L 41.1648,10.5693 L 39.5155,15.6453 L 37.243,20.4745
 L 34.3832,24.9809 L 30.9812,29.0932 L 27.0905,32.7468 L 22.7726,35.8839 L 18.0956,38.4551 L 13.1332,40.4199
 L 7.9637,41.7472 L 2.66859,42.4161 z
M -92.6686,42.4161 L -97.9637,41.7472 L -103.133,40.4199 L -108.096,38.4551 L -112.773,35.8839 L -117.091,32.7468
 L -120.981,29.0932 L -124.383,24.9809 L -127.243,20.4745 L -129.516,15.6453 L -131.165,10.5693 L -132.165,5.32666
 L -132.5,-0 L -132.165,-5.32666 L -131.165,-10.5693 L -129.516,-15.6453 L -127.243,-20.4745 L -124.383,-24.9809
 L -120.981,-29.0932 L -117.091,-32.7468 L -112.773,-35.8839 L -108.096,-38.4551 L -103.133,-40.4199 L -97.9637,-41.7472
 L -92.6686,-42.4161 L -87.3314,-42.4161 L -82.0363,-41.7472 L -76.8668,-40.4199 L -71.9044,-38.4551 L -67.2274,-35.8839
 L -62.9095,-32.7468 L -59.0188,-29.0932 L -55.6168,-24.9809 L -52.757,-20.4745 L -50.4845,-15.6453 L -48.8352,-10.5693
 L -47.8351,-5.32666 L -47.5,-0 L -47.8351,5.32666 L -48.8352,10.5693 L -50.4845,15.6453 L -52.757,20.4745
 L -55.6168,24.9809 L -59.0188,29.0932 L -62.9095,32.7468 L -67.2274,35.8839 L -71.9044,38.4551 L -76.8668,40.4199
 L -82.0363,41.7472 L -87.3314,42.4161 z
M 134.812,47.9941 L 134.438,47.9469 L 134.073,47.8532 L 133.723,47.7145 L 133.393,47.533 L 133.088,47.3115
 L 132.813,47.0536 L 132.573,46.7634 L 132.371,46.4453 L 132.211,46.1044 L 132.094,45.7461 L 132.024,45.376
 L 132,45 L 132.024,44.624 L 132.094,44.2539 L 132.211,43.8956 L 132.371,43.5547 L 132.573,43.2366
 L 132.813,42.9464 L 133.088,42.6885 L 133.393,42.467 L 133.723,42.2855 L 134.073,42.1468 L 134.438,42.0531
 L 134.812,42.0059 L 135.188,42.0059 L 135.562,42.0531 L 135.927,42.1468 L 136.277,42.2855 L 136.607,42.467
 L 136.912,42.6885 L 137.187,42.9464 L 137.427,43.2366 L 137.629,43.5547 L 137.789,43.8956 L 137.906,44.2539
 L 137.976,44.624 L 138,45 L 137.976,45.376 L 137.906,45.7461 L 137.789,46.1044 L 137.629,46.4453
 L 137.427,46.7634 L 137.187,47.0536 L 136.912,47.3115 L 136.607,47.533 L 136.277,47.7145 L 135.927,47.8532
 L 135.562,47.9469 L 135.188,47.9941 z
M -135.188,47.9941 L -135.562,47.9469 L -135.927,47.8532 L -136.277,47.7145 L -136.607,47.533 L -136.912,47.3115
 L -137.187,47.0536 L -137.427,46.7634 L -137.629,46.4453 L -137.789,46.1044 L -137.906,45.7461 L -137.976,45.376
 L -138,45 L -137.976,44.624 L -137.906,44.2539 L -137.789,43.8956 L -137.629,43.5547 L -137.427,43.2366
 L -137.187,42.9464 L -136.912,42.6885 L -136.607,42.467 L -136.277,42.2855 L -135.927,42.1468 L -135.562,42.0531
 L -135.188,42.0059 L -134.812,42.0059 L -134.438,42.0531 L -134.073,42.1468 L -133.723,42.2855 L -133.393,42.467
 L -133.088,42.6885 L -132.813,42.9464 L -132.573,43.2366 L -132.371,43.5547 L -132.211,43.8956 L -132.094,44.2539
 L -132.024,44.624 L -132,45 L -132.024,45.376 L -132.094,45.7461 L -132.211,46.1044 L -132.371,46.4453
 L -132.573,46.7634 L -132.813,47.0536 L -133.088,47.3115 L -133.393,47.533 L -133.723,47.7145 L -134.073,47.8532
 L -134.438,47.9469 L -134.812,47.9941 z
" stroke="black" fill="lightgray" stroke-width="0.5"/>
</svg>
