<?xml version="1.0" standalone="no"?>
<!DOCTYPE svg PUBLIC "-//W3C//DTD SVG 1.1//EN" "http://www.w3.org/Graphics/SVG/1.1/DTD/svg11.dtd">
<svg width="30mm" height="30mm" viewBox="-15 -54 30 30" xmlns="http://www.w3.org/2000/svg" version="1.1">
<title>OpenSCAD Model</title>
<path d="
M 10.4369,-24.5886 L 11.0451,-24.7447 L 11.6289,-24.9759 L 12.1791,-25.2784 L 12.6871,-25.6474 L 13.1448,-26.0773
 L 13.5451,-26.5611 L 13.8815,-27.0912 L 14.1489,-27.6594 L 14.3429,-28.2566 L 14.4606,-28.8733 L 14.5,-29.5
 L 14.5,-48.5 L 14.4606,-49.1267 L 14.3429,-49.7434 L 14.1489,-50.3406 L 13.8815,-50.9088 L 13.5451,-51.4389
 L 13.1448,-51.9227 L 12.6871,-52.3526 L 12.1791,-52.7216 L 11.6289,-53.0241 L 11.0451,-53.2553 L 10.4369,-53.4114
 L 9.81395,-53.4901 L -9.81395,-53.4901 L -10.4369,-53.4114 L -11.0451,-53.2553 L -11.6289,-53.0241 L -12.1791,-52.7216
 L -12.6871,-52.3526 L -13.1448,-51.9227 L -13.5451,-51.4389 L -13.8815,-50.9088 L -14.1489,-50.3406 L -14.3429,-49.7434
 L -14.4606,-49.1267 L -14.5,-48.5 L -14.5,-29.5 L -14.4606,-28.8733 L -14.3429,-28.2566 L -14.1489,-27.6594
 L -13.8815,-27.0912 L -13.5451,-26.5611 L -13.1448,-26.0773 L -12.6871,-25.6474 L -12.1791,-25.2784 L -11.6289,-24.9759
 L -11.0451,-24.7447 L -10.4369,-24.5886 L -9.81395,-24.5099 L 9.81395,-24.5099 z
M -0.722076,-27.5227 L -2.15488,-27.7037 L -3.55368,-28.0629 L -4.89645,-28.5945 L -5.75536,-29.0667 L -5.89252,-28.967
 L -6.22266,-28.7855 L -6.57294,-28.6468 L -6.93785,-28.5531 L -7.31161,-28.5059 L -7.68837,-28.5059 L -8.06213,-28.5531
 L -8.42705,-28.6468 L -8.77733,-28.7855 L -9.10747,-28.967 L -9.41226,-29.1885 L -9.6869,-29.4464 L -9.92705,-29.7366
 L -10.1289,-30.0547 L -10.2893,-30.3956 L -10.4057,-30.7539 L -10.4763,-31.124 L -10.5,-31.5 L -10.4763,-31.876
 L -10.4057,-32.2461 L -10.2893,-32.6044 L -10.1289,-32.9453 L -9.93994,-33.243 L -10.0775,-33.4598 L -10.6924,-34.7666
 L -11.1387,-36.1401 L -11.4093,-37.5587 L -11.5,-39 L -11.4093,-40.4413 L -11.1387,-41.8599 L -10.6924,-43.2334
 L -10.0775,-44.5402 L -9.93994,-44.757 L -10.1289,-45.0547 L -10.2893,-45.3956 L -10.4057,-45.7539 L -10.4763,-46.124
 L -10.5,-46.5 L -10.4763,-46.876 L -10.4057,-47.2461 L -10.2893,-47.6044 L -10.1289,-47.9453 L -9.92705,-48.2634
 L -9.6869,-48.5536 L -9.41226,-48.8115 L -9.10747,-49.033 L -8.77733,-49.2145 L -8.42705,-49.3532 L -8.06213,-49.4469
 L -7.68837,-49.4941 L -7.31161,-49.4941 L -6.93785,-49.4469 L -6.57294,-49.3532 L -6.22266,-49.2145 L -5.89252,-49.033
 L -5.75536,-48.9333 L -4.89645,-49.4055 L -3.55368,-49.9371 L -2.15488,-50.2963 L -0.722076,-50.4773 L 0.722076,-50.4773
 L 2.15488,-50.2963 L 3.55368,-49.9371 L 4.89645,-49.4055 L 5.75536,-48.9333 L 5.89252,-49.033 L 6.22266,-49.2145
 L 6.57294,-49.3532 L 6.93785,-49.4469 L 7.31161,-49.4941 L 7.68837,-49.4941 L 8.06213,-49.4469 L 8.42705,-49.3532
 L 8.77733,-49.2145 L 9.10747,-49.033 L 9.41226,-48.8115 L 9.6869,-48.5536 L 9.92705,-48.2634 L 10.1289,-47.9453
 L 10.2893,-47.6044 L 10.4057,-47.2461 L 10.4763,-46.876 L 10.5,-46.5 L 10.4763,-46.124 L 10.4057,-45.7539
 L 10.2893,-45.3956 L 10.1289,-45.0547 L 9.93994,-44.757 L 10.0775,-44.5402 L 10.6924,-43.2334 L 11.1387,-41.8599
 L 11.4093,-40.4413 L 11.5,-39 L 11.4093,-37.5587 L 11.1387,-36.1401 L 10.6924,-34.7666 L 10.0775,-33.4598
 L 9.93994,-33.243 L 10.1289,-32.9453 L 10.2893,-32.6044 L 10.4057,-32.2461 L 10.4763,-31.876 L 10.5,-31.5
 L 10.4763,-31.124 L 10.4057,-30.7539 L 10.2893,-30.3956 L 10.1289,-30.0547 L 9.92705,-29.7366 L 9.6869,-29.4464
 L 9.41226,-29.1885 L 9.10747,-28.967 L 8.77733,-28.7855 L 8.42705,-28.6468 L 8.06213,-28.5531 L 7.68837,-28.5059
 L 7.31161,-28.5059 L 6.93785,-28.5531 L 6.57294,-28.6468 L 6.22266,-28.7855 L 5.89252,-28.967 L 5.75536,-29.0667
 L 4.89645,-28.5945 L 3.55368,-28.0629 L 2.15488,-27.7037 L 0.722076,-27.5227 z
" stroke="black" fill="lightgray" stroke-width="0.5"/>
</svg>
