  0
SECTION
  2
BLOCKS
  0
ENDSEC
  0
SECTION
  2
ENTITIES
  0
LINE
  8
0
 10
10.4369
 20
24.5886
 11
11.0451
 21
24.7447
  0
LINE
  8
0
 10
11.0451
 20
24.7447
 11
11.6289
 21
24.9759
  0
LINE
  8
0
 10
11.6289
 20
24.9759
 11
12.1791
 21
25.2784
  0
LINE
  8
0
 10
12.1791
 20
25.2784
 11
12.6871
 21
25.6474
  0
LINE
  8
0
 10
12.6871
 20
25.6474
 11
13.1448
 21
26.0773
  0
LINE
  8
0
 10
13.1448
 20
26.0773
 11
13.5451
 21
26.5611
  0
LINE
  8
0
 10
13.5451
 20
26.5611
 11
13.8815
 21
27.0912
  0
LINE
  8
0
 10
13.8815
 20
27.0912
 11
14.1489
 21
27.6594
  0
LINE
  8
0
 10
14.1489
 20
27.6594
 11
14.3429
 21
28.2566
  0
LINE
  8
0
 10
14.3429
 20
28.2566
 11
14.4606
 21
28.8733
  0
LINE
  8
0
 10
14.4606
 20
28.8733
 11
14.5
 21
29.5
  0
LINE
  8
0
 10
14.5
 20
29.5
 11
14.5
 21
48.5
  0
LINE
  8
0
 10
14.5
 20
48.5
 11
14.4606
 21
49.1267
  0
LINE
  8
0
 10
14.4606
 20
49.1267
 11
14.3429
 21
49.7434
  0
LINE
  8
0
 10
14.3429
 20
49.7434
 11
14.1489
 21
50.3406
  0
LINE
  8
0
 10
14.1489
 20
50.3406
 11
13.8815
 21
50.9088
  0
LINE
  8
0
 10
13.8815
 20
50.9088
 11
13.5451
 21
51.4389
  0
LINE
  8
0
 10
13.5451
 20
51.4389
 11
13.1448
 21
51.9227
  0
LINE
  8
0
 10
13.1448
 20
51.9227
 11
12.6871
 21
52.3526
  0
LINE
  8
0
 10
12.6871
 20
52.3526
 11
12.1791
 21
52.7216
  0
LINE
  8
0
 10
12.1791
 20
52.7216
 11
11.6289
 21
53.0241
  0
LINE
  8
0
 10
11.6289
 20
53.0241
 11
11.0451
 21
53.2553
  0
LINE
  8
0
 10
11.0451
 20
53.2553
 11
10.4369
 21
53.4114
  0
LINE
  8
0
 10
10.4369
 20
53.4114
 11
9.81395
 21
53.4901
  0
LINE
  8
0
 10
9.81395
 20
53.4901
 11
-9.81395
 21
53.4901
  0
LINE
  8
0
 10
-9.81395
 20
53.4901
 11
-10.4369
 21
53.4114
  0
LINE
  8
0
 10
-10.4369
 20
53.4114
 11
-11.0451
 21
53.2553
  0
LINE
  8
0
 10
-11.0451
 20
53.2553
 11
-11.6289
 21
53.0241
  0
LINE
  8
0
 10
-11.6289
 20
53.0241
 11
-12.1791
 21
52.7216
  0
LINE
  8
0
 10
-12.1791
 20
52.7216
 11
-12.6871
 21
52.3526
  0
LINE
  8
0
 10
-12.6871
 20
52.3526
 11
-13.1448
 21
51.9227
  0
LINE
  8
0
 10
-13.1448
 20
51.9227
 11
-13.5451
 21
51.4389
  0
LINE
  8
0
 10
-13.5451
 20
51.4389
 11
-13.8815
 21
50.9088
  0
LINE
  8
0
 10
-13.8815
 20
50.9088
 11
-14.1489
 21
50.3406
  0
LINE
  8
0
 10
-14.1489
 20
50.3406
 11
-14.3429
 21
49.7434
  0
LINE
  8
0
 10
-14.3429
 20
49.7434
 11
-14.4606
 21
49.1267
  0
LINE
  8
0
 10
-14.4606
 20
49.1267
 11
-14.5
 21
48.5
  0
LINE
  8
0
 10
-14.5
 20
48.5
 11
-14.5
 21
29.5
  0
LINE
  8
0
 10
-14.5
 20
29.5
 11
-14.4606
 21
28.8733
  0
LINE
  8
0
 10
-14.4606
 20
28.8733
 11
-14.3429
 21
28.2566
  0
LINE
  8
0
 10
-14.3429
 20
28.2566
 11
-14.1489
 21
27.6594
  0
LINE
  8
0
 10
-14.1489
 20
27.6594
 11
-13.8815
 21
27.0912
  0
LINE
  8
0
 10
-13.8815
 20
27.0912
 11
-13.5451
 21
26.5611
  0
LINE
  8
0
 10
-13.5451
 20
26.5611
 11
-13.1448
 21
26.0773
  0
LINE
  8
0
 10
-13.1448
 20
26.0773
 11
-12.6871
 21
25.6474
  0
LINE
  8
0
 10
-12.6871
 20
25.6474
 11
-12.1791
 21
25.2784
  0
LINE
  8
0
 10
-12.1791
 20
25.2784
 11
-11.6289
 21
24.9759
  0
LINE
  8
0
 10
-11.6289
 20
24.9759
 11
-11.0451
 21
24.7447
  0
LINE
  8
0
 10
-11.0451
 20
24.7447
 11
-10.4369
 21
24.5886
  0
LINE
  8
0
 10
-10.4369
 20
24.5886
 11
-9.81395
 21
24.5099
  0
LINE
  8
0
 10
-9.81395
 20
24.5099
 11
9.81395
 21
24.5099
  0
LINE
  8
0
 10
9.81395
 20
24.5099
 11
10.4369
 21
24.5886
  0
LINE
  8
0
 10
-0.722076
 20
27.5227
 11
-2.15488
 21
27.7037
  0
LINE
  8
0
 10
-2.15488
 20
27.7037
 11
-3.55368
 21
28.0629
  0
LINE
  8
0
 10
-3.55368
 20
28.0629
 11
-4.89645
 21
28.5945
  0
LINE
  8
0
 10
-4.89645
 20
28.5945
 11
-5.75536
 21
29.0667
  0
LINE
  8
0
 10
-5.75536
 20
29.0667
 11
-5.89252
 21
28.967
  0
LINE
  8
0
 10
-5.89252
 20
28.967
 11
-6.22266
 21
28.7855
  0
LINE
  8
0
 10
-6.22266
 20
28.7855
 11
-6.57294
 21
28.6468
  0
LINE
  8
0
 10
-6.57294
 20
28.6468
 11
-6.93785
 21
28.5531
  0
LINE
  8
0
 10
-6.93785
 20
28.5531
 11
-7.31161
 21
28.5059
  0
LINE
  8
0
 10
-7.31161
 20
28.5059
 11
-7.68837
 21
28.5059
  0
LINE
  8
0
 10
-7.68837
 20
28.5059
 11
-8.06213
 21
28.5531
  0
LINE
  8
0
 10
-8.06213
 20
28.5531
 11
-8.42705
 21
28.6468
  0
LINE
  8
0
 10
-8.42705
 20
28.6468
 11
-8.77733
 21
28.7855
  0
LINE
  8
0
 10
-8.77733
 20
28.7855
 11
-9.10747
 21
28.967
  0
LINE
  8
0
 10
-9.10747
 20
28.967
 11
-9.41226
 21
29.1885
  0
LINE
  8
0
 10
-9.41226
 20
29.1885
 11
-9.6869
 21
29.4464
  0
LINE
  8
0
 10
-9.6869
 20
29.4464
 11
-9.92705
 21
29.7366
  0
LINE
  8
0
 10
-9.92705
 20
29.7366
 11
-10.1289
 21
30.0547
  0
LINE
  8
0
 10
-10.1289
 20
30.0547
 11
-10.2893
 21
30.3956
  0
LINE
  8
0
 10
-10.2893
 20
30.3956
 11
-10.4057
 21
30.7539
  0
LINE
  8
0
 10
-10.4057
 20
30.7539
 11
-10.4763
 21
31.124
  0
LINE
  8
0
 10
-10.4763
 20
31.124
 11
-10.5
 21
31.5
  0
LINE
  8
0
 10
-10.5
 20
31.5
 11
-10.4763
 21
31.876
  0
LINE
  8
0
 10
-10.4763
 20
31.876
 11
-10.4057
 21
32.2461
  0
LINE
  8
0
 10
-10.4057
 20
32.2461
 11
-10.2893
 21
32.6044
  0
LINE
  8
0
 10
-10.2893
 20
32.6044
 11
-10.1289
 21
32.9453
  0
LINE
  8
0
 10
-10.1289
 20
32.9453
 11
-9.93994
 21
33.243
  0
LINE
  8
0
 10
-9.93994
 20
33.243
 11
-10.0775
 21
33.4598
  0
LINE
  8
0
 10
-10.0775
 20
33.4598
 11
-10.6924
 21
34.7666
  0
LINE
  8
0
 10
-10.6924
 20
34.7666
 11
-11.1387
 21
36.1401
  0
LINE
  8
0
 10
-11.1387
 20
36.1401
 11
-11.4093
 21
37.5587
  0
LINE
  8
0
 10
-11.4093
 20
37.5587
 11
-11.5
 21
39
  0
LINE
  8
0
 10
-11.5
 20
39
 11
-11.4093
 21
40.4413
  0
LINE
  8
0
 10
-11.4093
 20
40.4413
 11
-11.1387
 21
41.8599
  0
LINE
  8
0
 10
-11.1387
 20
41.8599
 11
-10.6924
 21
43.2334
  0
LINE
  8
0
 10
-10.6924
 20
43.2334
 11
-10.0775
 21
44.5402
  0
LINE
  8
0
 10
-10.0775
 20
44.5402
 11
-9.93994
 21
44.757
  0
LINE
  8
0
 10
-9.93994
 20
44.757
 11
-10.1289
 21
45.0547
  0
LINE
  8
0
 10
-10.1289
 20
45.0547
 11
-10.2893
 21
45.3956
  0
LINE
  8
0
 10
-10.2893
 20
45.3956
 11
-10.4057
 21
45.7539
  0
LINE
  8
0
 10
-10.4057
 20
45.7539
 11
-10.4763
 21
46.124
  0
LINE
  8
0
 10
-10.4763
 20
46.124
 11
-10.5
 21
46.5
  0
LINE
  8
0
 10
-10.5
 20
46.5
 11
-10.4763
 21
46.876
  0
LINE
  8
0
 10
-10.4763
 20
46.876
 11
-10.4057
 21
47.2461
  0
LINE
  8
0
 10
-10.4057
 20
47.2461
 11
-10.2893
 21
47.6044
  0
LINE
  8
0
 10
-10.2893
 20
47.6044
 11
-10.1289
 21
47.9453
  0
LINE
  8
0
 10
-10.1289
 20
47.9453
 11
-9.92705
 21
48.2634
  0
LINE
  8
0
 10
-9.92705
 20
48.2634
 11
-9.6869
 21
48.5536
  0
LINE
  8
0
 10
-9.6869
 20
48.5536
 11
-9.41226
 21
48.8115
  0
LINE
  8
0
 10
-9.41226
 20
48.8115
 11
-9.10747
 21
49.033
  0
LINE
  8
0
 10
-9.10747
 20
49.033
 11
-8.77733
 21
49.2145
  0
LINE
  8
0
 10
-8.77733
 20
49.2145
 11
-8.42705
 21
49.3532
  0
LINE
  8
0
 10
-8.42705
 20
49.3532
 11
-8.06213
 21
49.4469
  0
LINE
  8
0
 10
-8.06213
 20
49.4469
 11
-7.68837
 21
49.4941
  0
LINE
  8
0
 10
-7.68837
 20
49.4941
 11
-7.31161
 21
49.4941
  0
LINE
  8
0
 10
-7.31161
 20
49.4941
 11
-6.93785
 21
49.4469
  0
LINE
  8
0
 10
-6.93785
 20
49.4469
 11
-6.57294
 21
49.3532
  0
LINE
  8
0
 10
-6.57294
 20
49.3532
 11
-6.22266
 21
49.2145
  0
LINE
  8
0
 10
-6.22266
 20
49.2145
 11
-5.89252
 21
49.033
  0
LINE
  8
0
 10
-5.89252
 20
49.033
 11
-5.75536
 21
48.9333
  0
LINE
  8
0
 10
-5.75536
 20
48.9333
 11
-4.89645
 21
49.4055
  0
LINE
  8
0
 10
-4.89645
 20
49.4055
 11
-3.55368
 21
49.9371
  0
LINE
  8
0
 10
-3.55368
 20
49.9371
 11
-2.15488
 21
50.2963
  0
LINE
  8
0
 10
-2.15488
 20
50.2963
 11
-0.722076
 21
50.4773
  0
LINE
  8
0
 10
-0.722076
 20
50.4773
 11
0.722076
 21
50.4773
  0
LINE
  8
0
 10
0.722076
 20
50.4773
 11
2.15488
 21
50.2963
  0
LINE
  8
0
 10
2.15488
 20
50.2963
 11
3.55368
 21
49.9371
  0
LINE
  8
0
 10
3.55368
 20
49.9371
 11
4.89645
 21
49.4055
  0
LINE
  8
0
 10
4.89645
 20
49.4055
 11
5.75536
 21
48.9333
  0
LINE
  8
0
 10
5.75536
 20
48.9333
 11
5.89252
 21
49.033
  0
LINE
  8
0
 10
5.89252
 20
49.033
 11
6.22266
 21
49.2145
  0
LINE
  8
0
 10
6.22266
 20
49.2145
 11
6.57294
 21
49.3532
  0
LINE
  8
0
 10
6.57294
 20
49.3532
 11
6.93785
 21
49.4469
  0
LINE
  8
0
 10
6.93785
 20
49.4469
 11
7.31161
 21
49.4941
  0
LINE
  8
0
 10
7.31161
 20
49.4941
 11
7.68837
 21
49.4941
  0
LINE
  8
0
 10
7.68837
 20
49.4941
 11
8.06213
 21
49.4469
  0
LINE
  8
0
 10
8.06213
 20
49.4469
 11
8.42705
 21
49.3532
  0
LINE
  8
0
 10
8.42705
 20
49.3532
 11
8.77733
 21
49.2145
  0
LINE
  8
0
 10
8.77733
 20
49.2145
 11
9.10747
 21
49.033
  0
LINE
  8
0
 10
9.10747
 20
49.033
 11
9.41226
 21
48.8115
  0
LINE
  8
0
 10
9.41226
 20
48.8115
 11
9.6869
 21
48.5536
  0
LINE
  8
0
 10
9.6869
 20
48.5536
 11
9.92705
 21
48.2634
  0
LINE
  8
0
 10
9.92705
 20
48.2634
 11
10.1289
 21
47.9453
  0
LINE
  8
0
 10
10.1289
 20
47.9453
 11
10.2893
 21
47.6044
  0
LINE
  8
0
 10
10.2893
 20
47.6044
 11
10.4057
 21
47.2461
  0
LINE
  8
0
 10
10.4057
 20
47.2461
 11
10.4763
 21
46.876
  0
LINE
  8
0
 10
10.4763
 20
46.876
 11
10.5
 21
46.5
  0
LINE
  8
0
 10
10.5
 20
46.5
 11
10.4763
 21
46.124
  0
LINE
  8
0
 10
10.4763
 20
46.124
 11
10.4057
 21
45.7539
  0
LINE
  8
0
 10
10.4057
 20
45.7539
 11
10.2893
 21
45.3956
  0
LINE
  8
0
 10
10.2893
 20
45.3956
 11
10.1289
 21
45.0547
  0
LINE
  8
0
 10
10.1289
 20
45.0547
 11
9.93994
 21
44.757
  0
LINE
  8
0
 10
9.93994
 20
44.757
 11
10.0775
 21
44.5402
  0
LINE
  8
0
 10
10.0775
 20
44.5402
 11
10.6924
 21
43.2334
  0
LINE
  8
0
 10
10.6924
 20
43.2334
 11
11.1387
 21
41.8599
  0
LINE
  8
0
 10
11.1387
 20
41.8599
 11
11.4093
 21
40.4413
  0
LINE
  8
0
 10
11.4093
 20
40.4413
 11
11.5
 21
39
  0
LINE
  8
0
 10
11.5
 20
39
 11
11.4093
 21
37.5587
  0
LINE
  8
0
 10
11.4093
 20
37.5587
 11
11.1387
 21
36.1401
  0
LINE
  8
0
 10
11.1387
 20
36.1401
 11
10.6924
 21
34.7666
  0
LINE
  8
0
 10
10.6924
 20
34.7666
 11
10.0775
 21
33.4598
  0
LINE
  8
0
 10
10.0775
 20
33.4598
 11
9.93994
 21
33.243
  0
LINE
  8
0
 10
9.93994
 20
33.243
 11
10.1289
 21
32.9453
  0
LINE
  8
0
 10
10.1289
 20
32.9453
 11
10.2893
 21
32.6044
  0
LINE
  8
0
 10
10.2893
 20
32.6044
 11
10.4057
 21
32.2461
  0
LINE
  8
0
 10
10.4057
 20
32.2461
 11
10.4763
 21
31.876
  0
LINE
  8
0
 10
10.4763
 20
31.876
 11
10.5
 21
31.5
  0
LINE
  8
0
 10
10.5
 20
31.5
 11
10.4763
 21
31.124
  0
LINE
  8
0
 10
10.4763
 20
31.124
 11
10.4057
 21
30.7539
  0
LINE
  8
0
 10
10.4057
 20
30.7539
 11
10.2893
 21
30.3956
  0
LINE
  8
0
 10
10.2893
 20
30.3956
 11
10.1289
 21
30.0547
  0
LINE
  8
0
 10
10.1289
 20
30.0547
 11
9.92705
 21
29.7366
  0
LINE
  8
0
 10
9.92705
 20
29.7366
 11
9.6869
 21
29.4464
  0
LINE
  8
0
 10
9.6869
 20
29.4464
 11
9.41226
 21
29.1885
  0
LINE
  8
0
 10
9.41226
 20
29.1885
 11
9.10747
 21
28.967
  0
LINE
  8
0
 10
9.10747
 20
28.967
 11
8.77733
 21
28.7855
  0
LINE
  8
0
 10
8.77733
 20
28.7855
 11
8.42705
 21
28.6468
  0
LINE
  8
0
 10
8.42705
 20
28.6468
 11
8.06213
 21
28.5531
  0
LINE
  8
0
 10
8.06213
 20
28.5531
 11
7.68837
 21
28.5059
  0
LINE
  8
0
 10
7.68837
 20
28.5059
 11
7.31161
 21
28.5059
  0
LINE
  8
0
 10
7.31161
 20
28.5059
 11
6.93785
 21
28.5531
  0
LINE
  8
0
 10
6.93785
 20
28.5531
 11
6.57294
 21
28.6468
  0
LINE
  8
0
 10
6.57294
 20
28.6468
 11
6.22266
 21
28.7855
  0
LINE
  8
0
 10
6.22266
 20
28.7855
 11
5.89252
 21
28.967
  0
LINE
  8
0
 10
5.89252
 20
28.967
 11
5.75536
 21
29.0667
  0
LINE
  8
0
 10
5.75536
 20
29.0667
 11
4.89645
 21
28.5945
  0
LINE
  8
0
 10
4.89645
 20
28.5945
 11
3.55368
 21
28.0629
  0
LINE
  8
0
 10
3.55368
 20
28.0629
 11
2.15488
 21
27.7037
  0
LINE
  8
0
 10
2.15488
 20
27.7037
 11
0.722076
 21
27.5227
  0
LINE
  8
0
 10
0.722076
 20
27.5227
 11
-0.722076
 21
27.5227
  0
ENDSEC
  0
SECTION
  2
OBJECTS
  0
DICTIONARY
  0
ENDSEC
  0
EOF
