<?xml version="1.0" standalone="no"?>
<!DOCTYPE svg PUBLIC "-//W3C//DTD SVG 1.1//EN" "http://www.w3.org/Graphics/SVG/1.1/DTD/svg11.dtd">
<svg width="90mm" height="30mm" viewBox="-45 -15 90 30" xmlns="http://www.w3.org/2000/svg" version="1.1">
<title>OpenSCAD Model</title>
<path d="
M 40.4369,14.4114 L 41.0451,14.2553 L 41.6289,14.0241 L 42.1791,13.7216 L 42.6871,13.3526 L 43.1448,12.9227
 L 43.5451,12.4389 L 43.8815,11.9088 L 44.1489,11.3406 L 44.3429,10.7434 L 44.4606,10.1267 L 44.5,9.5
 L 44.5,-9.5 L 44.4606,-10.1267 L 44.3429,-10.7434 L 44.1489,-11.3406 L 43.8815,-11.9088 L 43.5451,-12.4389
 L 43.1448,-12.9227 L 42.6871,-13.3526 L 42.1791,-13.7216 L 41.6289,-14.0241 L 41.0451,-14.2553 L 40.4369,-14.4114
 L 39.8139,-14.4901 L -39.8139,-14.4901 L -40.4369,-14.4114 L -41.0451,-14.2553 L -41.6289,-14.0241 L -42.1791,-13.7216
 L -42.6871,-13.3526 L -43.1448,-12.9227 L -43.5451,-12.4389 L -43.8815,-11.9088 L -44.1489,-11.3406 L -44.3429,-10.7434
 L -44.4606,-10.1267 L -44.5,-9.5 L -44.5,9.5 L -44.4606,10.1267 L -44.3429,10.7434 L -44.1489,11.3406
 L -43.8815,11.9088 L -43.5451,12.4389 L -43.1448,12.9227 L -42.6871,13.3526 L -42.1791,13.7216 L -41.6289,14.0241
 L -41.0451,14.2553 L -40.4369,14.4114 L -39.8139,14.4901 L 39.8139,14.4901 z
M 37.3116,-4.50591 L 36.9379,-4.55313 L 36.5729,-4.64682 L 36.2227,-4.78551 L 35.8925,-4.96701 L 35.5877,-5.18845
 L 35.3131,-5.44635 L 35.0729,-5.73663 L 34.8711,-6.05473 L 34.7107,-6.39561 L 34.5942,-6.75392 L 34.5237,-7.12399
 L 34.5,-7.5 L 34.5237,-7.87599 L 34.5942,-8.24606 L 34.7107,-8.60437 L 34.8711,-8.94525 L 35.0729,-9.26335
 L 35.3131,-9.55363 L 35.5877,-9.81154 L 35.8925,-10.033 L 36.2227,-10.2145 L 36.5729,-10.3532 L 36.9379,-10.4469
 L 37.3116,-10.4941 L 37.6884,-10.4941 L 38.0621,-10.4469 L 38.427,-10.3532 L 38.7773,-10.2145 L 39.1075,-10.033
 L 39.4123,-9.81154 L 39.6869,-9.55363 L 39.927,-9.26335 L 40.1289,-8.94525 L 40.2893,-8.60437 L 40.4057,-8.24606
 L 40.4763,-7.87599 L 40.5,-7.5 L 40.4763,-7.12399 L 40.4057,-6.75392 L 40.2893,-6.39561 L 40.1289,-6.05473
 L 39.927,-5.73663 L 39.6869,-5.44635 L 39.4123,-5.18845 L 39.1075,-4.96701 L 38.7773,-4.78551 L 38.427,-4.64682
 L 38.0621,-4.55313 L 37.6884,-4.50591 z
M -37.6884,-4.50591 L -38.0621,-4.55313 L -38.427,-4.64682 L -38.7773,-4.78551 L -39.1075,-4.96701 L -39.4123,-5.18845
 L -39.6869,-5.44635 L -39.927,-5.73663 L -40.1289,-6.05473 L -40.2893,-6.39561 L -40.4057,-6.75392 L -40.4763,-7.12399
 L -40.5,-7.5 L -40.4763,-7.87599 L -40.4057,-8.24606 L -40.2893,-8.60437 L -40.1289,-8.94525 L -39.927,-9.26335
 L -39.6869,-9.55363 L -39.4123,-9.81154 L -39.1075,-10.033 L -38.7773,-10.2145 L -38.427,-10.3532 L -38.0621,-10.4469
 L -37.6884,-10.4941 L -37.3116,-10.4941 L -36.9379,-10.4469 L -36.5729,-10.3532 L -36.2227,-10.2145 L -35.8925,-10.033
 L -35.5877,-9.81154 L -35.3131,-9.55363 L -35.0729,-9.26335 L -34.8711,-8.94525 L -34.7107,-8.60437 L -34.5942,-8.24606
 L -34.5237,-7.87599 L -34.5,-7.5 L -34.5237,-7.12399 L -34.5942,-6.75392 L -34.7107,-6.39561 L -34.8711,-6.05473
 L -35.0729,-5.73663 L -35.3131,-5.44635 L -35.5877,-5.18845 L -35.8925,-4.96701 L -36.2227,-4.78551 L -36.5729,-4.64682
 L -36.9379,-4.55313 L -37.3116,-4.50591 z
M 25.3407,10.4793 L 24.0325,10.314 L 22.7553,9.98608 L 21.5293,9.50067 L 20.3738,8.86543 L 19.307,8.09038
 L 18.3458,7.18774 L 17.5053,6.17174 L 16.7988,5.05841 L 16.2373,3.8653 L 15.8299,2.61124 L 15.5828,1.31599
 L 15.5,-0 L 15.5828,-1.31599 L 15.8299,-2.61124 L 16.2373,-3.8653 L 16.7988,-5.05841 L 17.5053,-6.17174
 L 18.3458,-7.18774 L 19.307,-8.09038 L 20.3738,-8.86543 L 21.5293,-9.50067 L 22.7553,-9.98608 L 24.0325,-10.314
 L 25.3407,-10.4793 L 26.6593,-10.4793 L 27.9675,-10.314 L 29.2447,-9.98608 L 30.4707,-9.50067 L 31.6262,-8.86543
 L 32.6929,-8.09038 L 33.6542,-7.18774 L 34.4947,-6.17174 L 35.2012,-5.05841 L 35.7626,-3.8653 L 36.1701,-2.61124
 L 36.4172,-1.31599 L 36.5,-0 L 36.4172,1.31599 L 36.1701,2.61124 L 35.7626,3.8653 L 35.2012,5.05841
 L 34.4947,6.17174 L 33.6542,7.18774 L 32.6929,8.09038 L 31.6262,8.86543 L 30.4707,9.50067 L 29.2447,9.98608
 L 27.9675,10.314 L 26.6593,10.4793 z
M -0.659286,10.4793 L -1.9675,10.314 L -3.24467,9.98608 L -4.47067,9.50067 L -5.62617,8.86543 L -6.69295,8.09038
 L -7.65416,7.18774 L -8.49467,6.17174 L -9.20122,5.05841 L -9.76265,3.8653 L -10.1701,2.61124 L -10.4172,1.31599
 L -10.5,-0 L -10.4172,-1.31599 L -10.1701,-2.61124 L -9.76265,-3.8653 L -9.20122,-5.05841 L -8.49467,-6.17174
 L -7.65416,-7.18774 L -6.69295,-8.09038 L -5.62617,-8.86543 L -4.47067,-9.50067 L -3.24467,-9.98608 L -1.9675,-10.314
 L -0.659286,-10.4793 L 0.659286,-10.4793 L 1.9675,-10.314 L 3.24467,-9.98608 L 4.47067,-9.50067 L 5.62617,-8.86543
 L 6.69295,-8.09038 L 7.65416,-7.18774 L 8.49467,-6.17174 L 9.20122,-5.05841 L 9.76265,-3.8653 L 10.1701,-2.61124
 L 10.4172,-1.31599 L 10.5,-0 L 10.4172,1.31599 L 10.1701,2.61124 L 9.76265,3.8653 L 9.20122,5.05841
 L 8.49467,6.17174 L 7.65416,7.18774 L 6.69295,8.09038 L 5.62617,8.86543 L 4.47067,9.50067 L 3.24467,9.98608
 L 1.9675,10.314 L 0.659286,10.4793 z
M -26.6593,10.4793 L -27.9675,10.314 L -29.2447,9.98608 L -30.4707,9.50067 L -31.6262,8.86543 L -32.6929,8.09038
 L -33.6542,7.18774 L -34.4947,6.17174 L -35.2012,5.05841 L -35.7626,3.8653 L -36.1701,2.61124 L -36.4172,1.31599
 L -36.5,-0 L -36.4172,-1.31599 L -36.1701,-2.61124 L -35.7626,-3.8653 L -35.2012,-5.05841 L -34.4947,-6.17174
 L -33.6542,-7.18774 L -32.6929,-8.09038 L -31.6262,-8.86543 L -30.4707,-9.50067 L -29.2447,-9.98608 L -27.9675,-10.314
 L -26.6593,-10.4793 L -25.3407,-10.4793 L -24.0325,-10.314 L -22.7553,-9.98608 L -21.5293,-9.50067 L -20.3738,-8.86543
 L -19.307,-8.09038 L -18.3458,-7.18774 L -17.5053,-6.17174 L -16.7988,-5.05841 L -16.2373,-3.8653 L -15.8299,-2.61124
 L -15.5828,-1.31599 L -15.5,-0 L -15.5828,1.31599 L -15.8299,2.61124 L -16.2373,3.8653 L -16.7988,5.05841
 L -17.5053,6.17174 L -18.3458,7.18774 L -19.307,8.09038 L -20.3738,8.86543 L -21.5293,9.50067 L -22.7553,9.98608
 L -24.0325,10.314 L -25.3407,10.4793 z
M 37.3116,10.4941 L 36.9379,10.4469 L 36.5729,10.3532 L 36.2227,10.2145 L 35.8925,10.033 L 35.5877,9.81154
 L 35.3131,9.55363 L 35.0729,9.26335 L 34.8711,8.94525 L 34.7107,8.60437 L 34.5942,8.24606 L 34.5237,7.87599
 L 34.5,7.5 L 34.5237,7.12399 L 34.5942,6.75392 L 34.7107,6.39561 L 34.8711,6.05473 L 35.0729,5.73663
 L 35.3131,5.44635 L 35.5877,5.18845 L 35.8925,4.96701 L 36.2227,4.78551 L 36.5729,4.64682 L 36.9379,4.55313
 L 37.3116,4.50591 L 37.6884,4.50591 L 38.0621,4.55313 L 38.427,4.64682 L 38.7773,4.78551 L 39.1075,4.96701
 L 39.4123,5.18845 L 39.6869,5.44635 L 39.927,5.73663 L 40.1289,6.05473 L 40.2893,6.39561 L 40.4057,6.75392
 L 40.4763,7.12399 L 40.5,7.5 L 40.4763,7.87599 L 40.4057,8.24606 L 40.2893,8.60437 L 40.1289,8.94525
 L 39.927,9.26335 L 39.6869,9.55363 L 39.4123,9.81154 L 39.1075,10.033 L 38.7773,10.2145 L 38.427,10.3532
 L 38.0621,10.4469 L 37.6884,10.4941 z
M -37.6884,10.4941 L -38.0621,10.4469 L -38.427,10.3532 L -38.7773,10.2145 L -39.1075,10.033 L -39.4123,9.81154
 L -39.6869,9.55363 L -39.927,9.26335 L -40.1289,8.94525 L -40.2893,8.60437 L -40.4057,8.24606 L -40.4763,7.87599
 L -40.5,7.5 L -40.4763,7.12399 L -40.4057,6.75392 L -40.2893,6.39561 L -40.1289,6.05473 L -39.927,5.73663
 L -39.6869,5.44635 L -39.4123,5.18845 L -39.1075,4.96701 L -38.7773,4.78551 L -38.427,4.64682 L -38.0621,4.55313
 L -37.6884,4.50591 L -37.3116,4.50591 L -36.9379,4.55313 L -36.5729,4.64682 L -36.2227,4.78551 L -35.8925,4.96701
 L -35.5877,5.18845 L -35.3131,5.44635 L -35.0729,5.73663 L -34.8711,6.05473 L -34.7107,6.39561 L -34.5942,6.75392
 L -34.5237,7.12399 L -34.5,7.5 L -34.5237,7.87599 L -34.5942,8.24606 L -34.7107,8.60437 L -34.8711,8.94525
 L -35.0729,9.26335 L -35.3131,9.55363 L -35.5877,9.81154 L -35.8925,10.033 L -36.2227,10.2145 L -36.5729,10.3532
 L -36.9379,10.4469 L -37.3116,10.4941 z
" stroke="black" fill="lightgray" stroke-width="0.5"/>
</svg>
