<?xml version="1.0" standalone="no"?>
<!DOCTYPE svg PUBLIC "-//W3C//DTD SVG 1.1//EN" "http://www.w3.org/Graphics/SVG/1.1/DTD/svg11.dtd">
<svg width="104mm" height="30mm" viewBox="-52 -15 104 30" xmlns="http://www.w3.org/2000/svg" version="1.1">
<title>OpenSCAD Model</title>
<path d="
M 47.9369,14.4114 L 48.5451,14.2553 L 49.1289,14.0241 L 49.6791,13.7216 L 50.1871,13.3526 L 50.6448,12.9227
 L 51.0451,12.4389 L 51.3815,11.9088 L 51.6489,11.3406 L 51.8429,10.7434 L 51.9606,10.1267 L 52,9.5
 L 52,-9.5 L 51.9606,-10.1267 L 51.8429,-10.7434 L 51.6489,-11.3406 L 51.3815,-11.9088 L 51.0451,-12.4389
 L 50.6448,-12.9227 L 50.1871,-13.3526 L 49.6791,-13.7216 L 49.1289,-14.0241 L 48.5451,-14.2553 L 47.9369,-14.4114
 L 47.3139,-14.4901 L -47.3139,-14.4901 L -47.9369,-14.4114 L -48.5451,-14.2553 L -49.1289,-14.0241 L -49.6791,-13.7216
 L -50.1871,-13.3526 L -50.6448,-12.9227 L -51.0451,-12.4389 L -51.3815,-11.9088 L -51.6489,-11.3406 L -51.8429,-10.7434
 L -51.9606,-10.1267 L -52,-9.5 L -52,9.5 L -51.9606,10.1267 L -51.8429,10.7434 L -51.6489,11.3406
 L -51.3815,11.9088 L -51.0451,12.4389 L -50.6448,12.9227 L -50.1871,13.3526 L -49.6791,13.7216 L -49.1289,14.0241
 L -48.5451,14.2553 L -47.9369,14.4114 L -47.3139,14.4901 L 47.3139,14.4901 z
M 44.8116,10.4941 L 44.4379,10.4469 L 44.0729,10.3532 L 43.7227,10.2145 L 43.3925,10.033 L 43.0877,9.81154
 L 42.8131,9.55363 L 42.5729,9.26335 L 42.3711,8.94525 L 42.2107,8.60437 L 42.0942,8.24606 L 42.0237,7.87599
 L 42,7.5 L 42.0092,7.35352 L 41.0903,8.0211 L 40.0449,8.59586 L 38.9357,9.03503 L 37.7801,9.33173
 L 36.5965,9.48125 L 35.4035,9.48125 L 34.2199,9.33173 L 33.0643,9.03503 L 31.9551,8.59586 L 30.9096,8.0211
 L 29.9445,7.31987 L 29.0748,6.50319 L 28.3143,5.58395 L 27.6751,4.57664 L 27.1671,3.49718 L 26.7984,2.36255
 L 26.5749,1.19066 L 26.5,-0 L 26.5749,-1.19066 L 26.7984,-2.36255 L 27.1671,-3.49718 L 27.6751,-4.57664
 L 28.3143,-5.58395 L 29.0748,-6.50319 L 29.9445,-7.31987 L 30.9096,-8.0211 L 31.9551,-8.59586 L 33.0643,-9.03503
 L 34.2199,-9.33173 L 35.4035,-9.48125 L 36.5965,-9.48125 L 37.7801,-9.33173 L 38.9357,-9.03503 L 40.0449,-8.59586
 L 41.0903,-8.0211 L 42.0092,-7.35352 L 42,-7.5 L 42.0237,-7.87599 L 42.0942,-8.24606 L 42.2107,-8.60437
 L 42.3711,-8.94525 L 42.5729,-9.26335 L 42.8131,-9.55363 L 43.0877,-9.81154 L 43.3925,-10.033 L 43.7227,-10.2145
 L 44.0729,-10.3532 L 44.4379,-10.4469 L 44.8116,-10.4941 L 45.1884,-10.4941 L 45.5621,-10.4469 L 45.927,-10.3532
 L 46.2773,-10.2145 L 46.6075,-10.033 L 46.9123,-9.81154 L 47.1869,-9.55363 L 47.427,-9.26335 L 47.6289,-8.94525
 L 47.7893,-8.60437 L 47.9057,-8.24606 L 47.9763,-7.87599 L 48,-7.5 L 47.9763,-7.12399 L 47.9057,-6.75392
 L 47.7893,-6.39561 L 47.6289,-6.05473 L 47.427,-5.73663 L 47.1869,-5.44635 L 46.9123,-5.18845 L 46.6075,-4.96701
 L 46.2773,-4.78551 L 45.927,-4.64682 L 45.5621,-4.55313 L 45.1884,-4.50591 L 44.8116,-4.50591 L 44.4379,-4.55313
 L 44.3208,-4.58319 L 44.3249,-4.57664 L 44.8329,-3.49718 L 45.2015,-2.36255 L 45.4251,-1.19066 L 45.5,-0
 L 45.4251,1.19066 L 45.2015,2.36255 L 44.8329,3.49718 L 44.3249,4.57664 L 44.3208,4.58319 L 44.4379,4.55313
 L 44.8116,4.50591 L 45.1884,4.50591 L 45.5621,4.55313 L 45.927,4.64682 L 46.2773,4.78551 L 46.6075,4.96701
 L 46.9123,5.18845 L 47.1869,5.44635 L 47.427,5.73663 L 47.6289,6.05473 L 47.7893,6.39561 L 47.9057,6.75392
 L 47.9763,7.12399 L 48,7.5 L 47.9763,7.87599 L 47.9057,8.24606 L 47.7893,8.60437 L 47.6289,8.94525
 L 47.427,9.26335 L 47.1869,9.55363 L 46.9123,9.81154 L 46.6075,10.033 L 46.2773,10.2145 L 45.927,10.3532
 L 45.5621,10.4469 L 45.1884,10.4941 z
M -45.1884,10.4941 L -45.5621,10.4469 L -45.927,10.3532 L -46.2773,10.2145 L -46.6075,10.033 L -46.9123,9.81154
 L -47.1869,9.55363 L -47.427,9.26335 L -47.6289,8.94525 L -47.7893,8.60437 L -47.9057,8.24606 L -47.9763,7.87599
 L -48,7.5 L -47.9763,7.12399 L -47.9057,6.75392 L -47.7893,6.39561 L -47.6289,6.05473 L -47.427,5.73663
 L -47.1869,5.44635 L -46.9123,5.18845 L -46.6075,4.96701 L -46.2773,4.78551 L -45.927,4.64682 L -45.5621,4.55313
 L -45.1884,4.50591 L -44.8116,4.50591 L -44.4379,4.55313 L -44.3208,4.58319 L -44.3249,4.57664 L -44.8329,3.49718
 L -45.2015,2.36255 L -45.4251,1.19066 L -45.5,-0 L -45.4251,-1.19066 L -45.2015,-2.36255 L -44.8329,-3.49718
 L -44.3249,-4.57664 L -44.3208,-4.58319 L -44.4379,-4.55313 L -44.8116,-4.50591 L -45.1884,-4.50591 L -45.5621,-4.55313
 L -45.927,-4.64682 L -46.2773,-4.78551 L -46.6075,-4.96701 L -46.9123,-5.18845 L -47.1869,-5.44635 L -47.427,-5.73663
 L -47.6289,-6.05473 L -47.7893,-6.39561 L -47.9057,-6.75392 L -47.9763,-7.12399 L -48,-7.5 L -47.9763,-7.87599
 L -47.9057,-8.24606 L -47.7893,-8.60437 L -47.6289,-8.94525 L -47.427,-9.26335 L -47.1869,-9.55363 L -46.9123,-9.81154
 L -46.6075,-10.033 L -46.2773,-10.2145 L -45.927,-10.3532 L -45.5621,-10.4469 L -45.1884,-10.4941 L -44.8116,-10.4941
 L -44.4379,-10.4469 L -44.0729,-10.3532 L -43.7227,-10.2145 L -43.3925,-10.033 L -43.0877,-9.81154 L -42.8131,-9.55363
 L -42.5729,-9.26335 L -42.3711,-8.94525 L -42.2107,-8.60437 L -42.0942,-8.24606 L -42.0237,-7.87599 L -42,-7.5
 L -42.0092,-7.35352 L -41.0903,-8.0211 L -40.0449,-8.59586 L -38.9357,-9.03503 L -37.7801,-9.33173 L -36.5965,-9.48125
 L -35.4035,-9.48125 L -34.2199,-9.33173 L -33.0643,-9.03503 L -31.9551,-8.59586 L -30.9096,-8.0211 L -29.9445,-7.31987
 L -29.0748,-6.50319 L -28.3143,-5.58395 L -27.6751,-4.57664 L -27.1671,-3.49718 L -26.7984,-2.36255 L -26.5749,-1.19066
 L -26.5,-0 L -26.5749,1.19066 L -26.7984,2.36255 L -27.1671,3.49718 L -27.6751,4.57664 L -28.3143,5.58395
 L -29.0748,6.50319 L -29.9445,7.31987 L -30.9096,8.0211 L -31.9551,8.59586 L -33.0643,9.03503 L -34.2199,9.33173
 L -35.4035,9.48125 L -36.5965,9.48125 L -37.7801,9.33173 L -38.9357,9.03503 L -40.0449,8.59586 L -41.0903,8.0211
 L -42.0092,7.35352 L -42,7.5 L -42.0237,7.87599 L -42.0942,8.24606 L -42.2107,8.60437 L -42.3711,8.94525
 L -42.5729,9.26335 L -42.8131,9.55363 L -43.0877,9.81154 L -43.3925,10.033 L -43.7227,10.2145 L -44.0729,10.3532
 L -44.4379,10.4469 L -44.8116,10.4941 z
M 11.4035,9.48125 L 10.2199,9.33173 L 9.06433,9.03503 L 7.95509,8.59586 L 6.90964,8.0211 L 5.94446,7.31987
 L 5.07478,6.50319 L 4.31433,5.58395 L 3.67508,4.57664 L 3.16711,3.49718 L 2.79845,2.36255 L 2.57491,1.19066
 L 2.5,-0 L 2.57491,-1.19066 L 2.79845,-2.36255 L 3.16711,-3.49718 L 3.67508,-4.57664 L 4.31433,-5.58395
 L 5.07478,-6.50319 L 5.94446,-7.31987 L 6.90964,-8.0211 L 7.95509,-8.59586 L 9.06433,-9.03503 L 10.2199,-9.33173
 L 11.4035,-9.48125 L 12.5965,-9.48125 L 13.7801,-9.33173 L 14.9357,-9.03503 L 16.0449,-8.59586 L 17.0903,-8.0211
 L 18.0555,-7.31987 L 18.9252,-6.50319 L 19.6857,-5.58395 L 20.3249,-4.57664 L 20.8329,-3.49718 L 21.2015,-2.36255
 L 21.4251,-1.19066 L 21.5,-0 L 21.4251,1.19066 L 21.2015,2.36255 L 20.8329,3.49718 L 20.3249,4.57664
 L 19.6857,5.58395 L 18.9252,6.50319 L 18.0555,7.31987 L 17.0903,8.0211 L 16.0449,8.59586 L 14.9357,9.03503
 L 13.7801,9.33173 L 12.5965,9.48125 z
M -12.5965,9.48125 L -13.7801,9.33173 L -14.9357,9.03503 L -16.0449,8.59586 L -17.0903,8.0211 L -18.0555,7.31987
 L -18.9252,6.50319 L -19.6857,5.58395 L -20.3249,4.57664 L -20.8329,3.49718 L -21.2015,2.36255 L -21.4251,1.19066
 L -21.5,-0 L -21.4251,-1.19066 L -21.2015,-2.36255 L -20.8329,-3.49718 L -20.3249,-4.57664 L -19.6857,-5.58395
 L -18.9252,-6.50319 L -18.0555,-7.31987 L -17.0903,-8.0211 L -16.0449,-8.59586 L -14.9357,-9.03503 L -13.7801,-9.33173
 L -12.5965,-9.48125 L -11.4035,-9.48125 L -10.2199,-9.33173 L -9.06433,-9.03503 L -7.95509,-8.59586 L -6.90964,-8.0211
 L -5.94446,-7.31987 L -5.07478,-6.50319 L -4.31433,-5.58395 L -3.67508,-4.57664 L -3.16711,-3.49718 L -2.79845,-2.36255
 L -2.57491,-1.19066 L -2.5,-0 L -2.57491,1.19066 L -2.79845,2.36255 L -3.16711,3.49718 L -3.67508,4.57664
 L -4.31433,5.58395 L -5.07478,6.50319 L -5.94446,7.31987 L -6.90964,8.0211 L -7.95509,8.59586 L -9.06433,9.03503
 L -10.2199,9.33173 L -11.4035,9.48125 z
" stroke="black" fill="lightgray" stroke-width="0.5"/>
</svg>
