<?xml version="1.0" standalone="no"?>
<!DOCTYPE svg PUBLIC "-//W3C//DTD SVG 1.1//EN" "http://www.w3.org/Graphics/SVG/1.1/DTD/svg11.dtd">
<svg width="194mm" height="44mm" viewBox="-97 -22 194 44" xmlns="http://www.w3.org/2000/svg" version="1.1">
<title>OpenSCAD Model</title>
<path d="
M 92.9369,21.9114 L 93.5451,21.7553 L 94.1289,21.5241 L 94.6791,21.2216 L 95.1871,20.8526 L 95.6448,20.4227
 L 96.0451,19.9389 L 96.3815,19.4088 L 96.6489,18.8406 L 96.8429,18.2434 L 96.9606,17.6267 L 97,17
 L 97,-17 L 96.9606,-17.6267 L 96.8429,-18.2434 L 96.6489,-18.8406 L 96.3815,-19.4088 L 96.0451,-19.9389
 L 95.6448,-20.4227 L 95.1871,-20.8526 L 94.6791,-21.2216 L 94.1289,-21.5241 L 93.5451,-21.7553 L 92.9369,-21.9114
 L 92.3139,-21.9901 L -92.3139,-21.9901 L -92.9369,-21.9114 L -93.5451,-21.7553 L -94.1289,-21.5241 L -94.6791,-21.2216
 L -95.1871,-20.8526 L -95.6448,-20.4227 L -96.0451,-19.9389 L -96.3815,-19.4088 L -96.6489,-18.8406 L -96.8429,-18.2434
 L -96.9606,-17.6267 L -97,-17 L -97,17 L -96.9606,17.6267 L -96.8429,18.2434 L -96.6489,18.8406
 L -96.3815,19.4088 L -96.0451,19.9389 L -95.6448,20.4227 L -95.1871,20.8526 L -94.6791,21.2216 L -94.1289,21.5241
 L -93.5451,21.7553 L -92.9369,21.9114 L -92.3139,21.9901 L 92.3139,21.9901 z
M 89.8116,-12.0059 L 89.4379,-12.0531 L 89.073,-12.1468 L 88.7227,-12.2855 L 88.3925,-12.467 L 88.0877,-12.6884
 L 87.8131,-12.9464 L 87.573,-13.2366 L 87.3711,-13.5547 L 87.2107,-13.8956 L 87.0943,-14.2539 L 87.0237,-14.624
 L 87,-15 L 87.0237,-15.376 L 87.0943,-15.7461 L 87.2107,-16.1044 L 87.3711,-16.4453 L 87.573,-16.7634
 L 87.8131,-17.0536 L 88.0877,-17.3115 L 88.3925,-17.533 L 88.7227,-17.7145 L 89.073,-17.8532 L 89.4379,-17.9469
 L 89.8116,-17.9941 L 90.1884,-17.9941 L 90.5621,-17.9469 L 90.927,-17.8532 L 91.2773,-17.7145 L 91.6075,-17.533
 L 91.9123,-17.3115 L 92.1869,-17.0536 L 92.427,-16.7634 L 92.6289,-16.4453 L 92.7893,-16.1044 L 92.9057,-15.7461
 L 92.9763,-15.376 L 93,-15 L 92.9763,-14.624 L 92.9057,-14.2539 L 92.7893,-13.8956 L 92.6289,-13.5547
 L 92.427,-13.2366 L 92.1869,-12.9464 L 91.9123,-12.6884 L 91.6075,-12.467 L 91.2773,-12.2855 L 90.927,-12.1468
 L 90.5621,-12.0531 L 90.1884,-12.0059 z
M -90.1884,-12.0059 L -90.5621,-12.0531 L -90.927,-12.1468 L -91.2773,-12.2855 L -91.6075,-12.467 L -91.9123,-12.6884
 L -92.1869,-12.9464 L -92.427,-13.2366 L -92.6289,-13.5547 L -92.7893,-13.8956 L -92.9057,-14.2539 L -92.9763,-14.624
 L -93,-15 L -92.9763,-15.376 L -92.9057,-15.7461 L -92.7893,-16.1044 L -92.6289,-16.4453 L -92.427,-16.7634
 L -92.1869,-17.0536 L -91.9123,-17.3115 L -91.6075,-17.533 L -91.2773,-17.7145 L -90.927,-17.8532 L -90.5621,-17.9469
 L -90.1884,-17.9941 L -89.8116,-17.9941 L -89.4379,-17.9469 L -89.073,-17.8532 L -88.7227,-17.7145 L -88.3925,-17.533
 L -88.0877,-17.3115 L -87.8131,-17.0536 L -87.573,-16.7634 L -87.3711,-16.4453 L -87.2107,-16.1044 L -87.0943,-15.7461
 L -87.0237,-15.376 L -87,-15 L -87.0237,-14.624 L -87.0943,-14.2539 L -87.2107,-13.8956 L -87.3711,-13.5547
 L -87.573,-13.2366 L -87.8131,-12.9464 L -88.0877,-12.6884 L -88.3925,-12.467 L -88.7227,-12.2855 L -89.073,-12.1468
 L -89.4379,-12.0531 L -89.8116,-12.0059 z
M 35.0267,15.4694 L 33.0956,15.2254 L 31.2102,14.7414 L 29.4004,14.0248 L 27.6947,13.0871 L 26.1199,11.9429
 L 24.701,10.6105 L 23.4602,9.11066 L 22.4172,7.46718 L 21.5885,5.70592 L 20.987,3.85469 L 20.6222,1.94266
 L 20.5,-0 L 20.6222,-1.94266 L 20.987,-3.85469 L 21.5885,-5.70592 L 22.4172,-7.46718 L 23.4602,-9.11066
 L 24.701,-10.6105 L 26.1199,-11.9429 L 27.6947,-13.0871 L 29.4004,-14.0248 L 31.2102,-14.7414 L 33.0956,-15.2254
 L 35.0267,-15.4694 L 36.9733,-15.4694 L 38.9044,-15.2254 L 40.7898,-14.7414 L 42.5996,-14.0248 L 44.3053,-13.0871
 L 45.8801,-11.9429 L 47.299,-10.6105 L 48.5398,-9.11066 L 49.5827,-7.46718 L 50.4115,-5.70592 L 51.013,-3.85469
 L 51.3778,-1.94266 L 51.5,-0 L 51.3778,1.94266 L 51.013,3.85469 L 50.4115,5.70592 L 49.5827,7.46718
 L 48.5398,9.11066 L 47.299,10.6105 L 45.8801,11.9429 L 44.3053,13.0871 L 42.5996,14.0248 L 40.7898,14.7414
 L 38.9044,15.2254 L 36.9733,15.4694 z
M -72.9733,15.4694 L -74.9044,15.2254 L -76.7898,14.7414 L -78.5996,14.0248 L -80.3053,13.0871 L -81.8801,11.9429
 L -83.299,10.6105 L -84.5398,9.11066 L -85.5827,7.46718 L -86.4115,5.70592 L -87.013,3.85469 L -87.3778,1.94266
 L -87.5,-0 L -87.3778,-1.94266 L -87.013,-3.85469 L -86.4115,-5.70592 L -85.5827,-7.46718 L -84.5398,-9.11066
 L -83.299,-10.6105 L -81.8801,-11.9429 L -80.3053,-13.0871 L -78.5996,-14.0248 L -76.7898,-14.7414 L -74.9044,-15.2254
 L -72.9733,-15.4694 L -71.0267,-15.4694 L -69.0956,-15.2254 L -67.2102,-14.7414 L -65.4004,-14.0248 L -63.6947,-13.0871
 L -62.1199,-11.9429 L -60.701,-10.6105 L -59.4602,-9.11066 L -58.4172,-7.46718 L -57.5885,-5.70592 L -56.987,-3.85469
 L -56.6222,-1.94266 L -56.5,-0 L -56.6222,1.94266 L -56.987,3.85469 L -57.5885,5.70592 L -58.4172,7.46718
 L -59.4602,9.11066 L -60.701,10.6105 L -62.1199,11.9429 L -63.6947,13.0871 L -65.4004,14.0248 L -67.2102,14.7414
 L -69.0956,15.2254 L -71.0267,15.4694 z
M -36.9733,15.4694 L -38.9044,15.2254 L -40.7898,14.7414 L -42.5996,14.0248 L -44.3053,13.0871 L -45.8801,11.9429
 L -47.299,10.6105 L -48.5398,9.11066 L -49.5827,7.46718 L -50.4115,5.70592 L -51.013,3.85469 L -51.3778,1.94266
 L -51.5,-0 L -51.3778,-1.94266 L -51.013,-3.85469 L -50.4115,-5.70592 L -49.5827,-7.46718 L -48.5398,-9.11066
 L -47.299,-10.6105 L -45.8801,-11.9429 L -44.3053,-13.0871 L -42.5996,-14.0248 L -40.7898,-14.7414 L -38.9044,-15.2254
 L -36.9733,-15.4694 L -35.0267,-15.4694 L -33.0956,-15.2254 L -31.2102,-14.7414 L -29.4004,-14.0248 L -27.6947,-13.0871
 L -26.1199,-11.9429 L -24.701,-10.6105 L -23.4602,-9.11066 L -22.4172,-7.46718 L -21.5885,-5.70592 L -20.987,-3.85469
 L -20.6222,-1.94266 L -20.5,-0 L -20.6222,1.94266 L -20.987,3.85469 L -21.5885,5.70592 L -22.4172,7.46718
 L -23.4602,9.11066 L -24.701,10.6105 L -26.1199,11.9429 L -27.6947,13.0871 L -29.4004,14.0248 L -31.2102,14.7414
 L -33.0956,15.2254 L -35.0267,15.4694 z
M -0.973251,15.4694 L -2.9044,15.2254 L -4.78975,14.7414 L -6.59958,14.0248 L -8.30531,13.0871 L -9.88007,11.9429
 L -11.299,10.6105 L -12.5397,9.11066 L -13.5827,7.46718 L -14.4115,5.70592 L -15.013,3.85469 L -15.3778,1.94266
 L -15.5,-0 L -15.3778,-1.94266 L -15.013,-3.85469 L -14.4115,-5.70592 L -13.5827,-7.46718 L -12.5397,-9.11066
 L -11.299,-10.6105 L -9.88007,-11.9429 L -8.30531,-13.0871 L -6.59958,-14.0248 L -4.78975,-14.7414 L -2.9044,-15.2254
 L -0.973251,-15.4694 L 0.973251,-15.4694 L 2.9044,-15.2254 L 4.78975,-14.7414 L 6.59958,-14.0248 L 8.30531,-13.0871
 L 9.88007,-11.9429 L 11.299,-10.6105 L 12.5397,-9.11066 L 13.5827,-7.46718 L 14.4115,-5.70592 L 15.013,-3.85469
 L 15.3778,-1.94266 L 15.5,-0 L 15.3778,1.94266 L 15.013,3.85469 L 14.4115,5.70592 L 13.5827,7.46718
 L 12.5397,9.11066 L 11.299,10.6105 L 9.88007,11.9429 L 8.30531,13.0871 L 6.59958,14.0248 L 4.78975,14.7414
 L 2.9044,15.2254 L 0.973251,15.4694 z
M 71.0267,15.4694 L 69.0956,15.2254 L 67.2102,14.7414 L 65.4004,14.0248 L 63.6947,13.0871 L 62.1199,11.9429
 L 60.701,10.6105 L 59.4602,9.11066 L 58.4172,7.46718 L 57.5885,5.70592 L 56.987,3.85469 L 56.6222,1.94266
 L 56.5,-0 L 56.6222,-1.94266 L 56.987,-3.85469 L 57.5885,-5.70592 L 58.4172,-7.46718 L 59.4602,-9.11066
 L 60.701,-10.6105 L 62.1199,-11.9429 L 63.6947,-13.0871 L 65.4004,-14.0248 L 67.2102,-14.7414 L 69.0956,-15.2254
 L 71.0267,-15.4694 L 72.9733,-15.4694 L 74.9044,-15.2254 L 76.7898,-14.7414 L 78.5996,-14.0248 L 80.3053,-13.0871
 L 81.8801,-11.9429 L 83.299,-10.6105 L 84.5398,-9.11066 L 85.5827,-7.46718 L 86.4115,-5.70592 L 87.013,-3.85469
 L 87.3778,-1.94266 L 87.5,-0 L 87.3778,1.94266 L 87.013,3.85469 L 86.4115,5.70592 L 85.5827,7.46718
 L 84.5398,9.11066 L 83.299,10.6105 L 81.8801,11.9429 L 80.3053,13.0871 L 78.5996,14.0248 L 76.7898,14.7414
 L 74.9044,15.2254 L 72.9733,15.4694 z
M -90.1884,17.9941 L -90.5621,17.9469 L -90.927,17.8532 L -91.2773,17.7145 L -91.6075,17.533 L -91.9123,17.3115
 L -92.1869,17.0536 L -92.427,16.7634 L -92.6289,16.4453 L -92.7893,16.1044 L -92.9057,15.7461 L -92.9763,15.376
 L -93,15 L -92.9763,14.624 L -92.9057,14.2539 L -92.7893,13.8956 L -92.6289,13.5547 L -92.427,13.2366
 L -92.1869,12.9464 L -91.9123,12.6884 L -91.6075,12.467 L -91.2773,12.2855 L -90.927,12.1468 L -90.5621,12.0531
 L -90.1884,12.0059 L -89.8116,12.0059 L -89.4379,12.0531 L -89.073,12.1468 L -88.7227,12.2855 L -88.3925,12.467
 L -88.0877,12.6884 L -87.8131,12.9464 L -87.573,13.2366 L -87.3711,13.5547 L -87.2107,13.8956 L -87.0943,14.2539
 L -87.0237,14.624 L -87,15 L -87.0237,15.376 L -87.0943,15.7461 L -87.2107,16.1044 L -87.3711,16.4453
 L -87.573,16.7634 L -87.8131,17.0536 L -88.0877,17.3115 L -88.3925,17.533 L -88.7227,17.7145 L -89.073,17.8532
 L -89.4379,17.9469 L -89.8116,17.9941 z
M 89.8116,17.9941 L 89.4379,17.9469 L 89.073,17.8532 L 88.7227,17.7145 L 88.3925,17.533 L 88.0877,17.3115
 L 87.8131,17.0536 L 87.573,16.7634 L 87.3711,16.4453 L 87.2107,16.1044 L 87.0943,15.7461 L 87.0237,15.376
 L 87,15 L 87.0237,14.624 L 87.0943,14.2539 L 87.2107,13.8956 L 87.3711,13.5547 L 87.573,13.2366
 L 87.8131,12.9464 L 88.0877,12.6884 L 88.3925,12.467 L 88.7227,12.2855 L 89.073,12.1468 L 89.4379,12.0531
 L 89.8116,12.0059 L 90.1884,12.0059 L 90.5621,12.0531 L 90.927,12.1468 L 91.2773,12.2855 L 91.6075,12.467
 L 91.9123,12.6884 L 92.1869,12.9464 L 92.427,13.2366 L 92.6289,13.5547 L 92.7893,13.8956 L 92.9057,14.2539
 L 92.9763,14.624 L 93,15 L 92.9763,15.376 L 92.9057,15.7461 L 92.7893,16.1044 L 92.6289,16.4453
 L 92.427,16.7634 L 92.1869,17.0536 L 91.9123,17.3115 L 91.6075,17.533 L 91.2773,17.7145 L 90.927,17.8532
 L 90.5621,17.9469 L 90.1884,17.9941 z
" stroke="black" fill="lightgray" stroke-width="0.5"/>
</svg>
