<?xml version="1.0" standalone="no"?>
<!DOCTYPE svg PUBLIC "-//W3C//DTD SVG 1.1//EN" "http://www.w3.org/Graphics/SVG/1.1/DTD/svg11.dtd">
<svg width="164mm" height="44mm" viewBox="-82 -22 164 44" xmlns="http://www.w3.org/2000/svg" version="1.1">
<title>OpenSCAD Model</title>
<path d="
M 77.9369,21.9114 L 78.5451,21.7553 L 79.1289,21.5241 L 79.6791,21.2216 L 80.1871,20.8526 L 80.6448,20.4227
 L 81.0451,19.9389 L 81.3815,19.4088 L 81.6489,18.8406 L 81.8429,18.2434 L 81.9606,17.6267 L 82,17
 L 82,-17 L 81.9606,-17.6267 L 81.8429,-18.2434 L 81.6489,-18.8406 L 81.3815,-19.4088 L 81.0451,-19.9389
 L 80.6448,-20.4227 L 80.1871,-20.8526 L 79.6791,-21.2216 L 79.1289,-21.5241 L 78.5451,-21.7553 L 77.9369,-21.9114
 L 77.3139,-21.9901 L -77.3139,-21.9901 L -77.9369,-21.9114 L -78.5451,-21.7553 L -79.1289,-21.5241 L -79.6791,-21.2216
 L -80.1871,-20.8526 L -80.6448,-20.4227 L -81.0451,-19.9389 L -81.3815,-19.4088 L -81.6489,-18.8406 L -81.8429,-18.2434
 L -81.9606,-17.6267 L -82,-17 L -82,17 L -81.9606,17.6267 L -81.8429,18.2434 L -81.6489,18.8406
 L -81.3815,19.4088 L -81.0451,19.9389 L -80.6448,20.4227 L -80.1871,20.8526 L -79.6791,21.2216 L -79.1289,21.5241
 L -78.5451,21.7553 L -77.9369,21.9114 L -77.3139,21.9901 L 77.3139,21.9901 z
M -75.1884,-12.0059 L -75.5621,-12.0531 L -75.927,-12.1468 L -76.2773,-12.2855 L -76.6075,-12.467 L -76.9123,-12.6884
 L -77.1869,-12.9464 L -77.427,-13.2366 L -77.6289,-13.5547 L -77.7893,-13.8956 L -77.9057,-14.2539 L -77.9763,-14.624
 L -78,-15 L -77.9763,-15.376 L -77.9057,-15.7461 L -77.7893,-16.1044 L -77.6289,-16.4453 L -77.427,-16.7634
 L -77.1869,-17.0536 L -76.9123,-17.3115 L -76.6075,-17.533 L -76.2773,-17.7145 L -75.927,-17.8532 L -75.5621,-17.9469
 L -75.1884,-17.9941 L -74.8116,-17.9941 L -74.4379,-17.9469 L -74.073,-17.8532 L -73.7227,-17.7145 L -73.3925,-17.533
 L -73.0877,-17.3115 L -72.8131,-17.0536 L -72.573,-16.7634 L -72.3711,-16.4453 L -72.2107,-16.1044 L -72.0943,-15.7461
 L -72.0237,-15.376 L -72,-15 L -72.0237,-14.624 L -72.0943,-14.2539 L -72.2107,-13.8956 L -72.3711,-13.5547
 L -72.573,-13.2366 L -72.8131,-12.9464 L -73.0877,-12.6884 L -73.3925,-12.467 L -73.7227,-12.2855 L -74.073,-12.1468
 L -74.4379,-12.0531 L -74.8116,-12.0059 z
M 74.8116,-12.0059 L 74.4379,-12.0531 L 74.073,-12.1468 L 73.7227,-12.2855 L 73.3925,-12.467 L 73.0877,-12.6884
 L 72.8131,-12.9464 L 72.573,-13.2366 L 72.3711,-13.5547 L 72.2107,-13.8956 L 72.0943,-14.2539 L 72.0237,-14.624
 L 72,-15 L 72.0237,-15.376 L 72.0943,-15.7461 L 72.2107,-16.1044 L 72.3711,-16.4453 L 72.573,-16.7634
 L 72.8131,-17.0536 L 73.0877,-17.3115 L 73.3925,-17.533 L 73.7227,-17.7145 L 74.073,-17.8532 L 74.4379,-17.9469
 L 74.8116,-17.9941 L 75.1884,-17.9941 L 75.5621,-17.9469 L 75.927,-17.8532 L 76.2773,-17.7145 L 76.6075,-17.533
 L 76.9123,-17.3115 L 77.1869,-17.0536 L 77.427,-16.7634 L 77.6289,-16.4453 L 77.7893,-16.1044 L 77.9057,-15.7461
 L 77.9763,-15.376 L 78,-15 L 77.9763,-14.624 L 77.9057,-14.2539 L 77.7893,-13.8956 L 77.6289,-13.5547
 L 77.427,-13.2366 L 77.1869,-12.9464 L 76.9123,-12.6884 L 76.6075,-12.467 L 76.2773,-12.2855 L 75.927,-12.1468
 L 75.5621,-12.0531 L 75.1884,-12.0059 z
M 18.9012,17.4655 L 16.7208,17.19 L 14.5922,16.6435 L 12.5489,15.8345 L 10.623,14.7757 L 8.84508,13.484
 L 7.24304,11.9796 L 5.84219,10.2862 L 4.66463,8.43068 L 3.7289,6.44217 L 3.04979,4.35207 L 2.63799,2.19333
 L 2.5,-0 L 2.63799,-2.19333 L 3.04979,-4.35207 L 3.7289,-6.44217 L 4.66463,-8.43068 L 5.84219,-10.2862
 L 7.24304,-11.9796 L 8.84508,-13.484 L 10.623,-14.7757 L 12.5489,-15.8345 L 14.5922,-16.6435 L 16.7208,-17.19
 L 18.9012,-17.4655 L 21.0988,-17.4655 L 23.2792,-17.19 L 25.4078,-16.6435 L 27.4511,-15.8345 L 29.377,-14.7757
 L 31.1549,-13.484 L 32.7569,-11.9796 L 34.1578,-10.2862 L 35.3354,-8.43068 L 36.2711,-6.44217 L 36.9502,-4.35207
 L 37.362,-2.19333 L 37.5,-0 L 37.362,2.19333 L 36.9502,4.35207 L 36.2711,6.44217 L 35.3354,8.43068
 L 34.1578,10.2862 L 32.7569,11.9796 L 31.1549,13.484 L 29.377,14.7757 L 27.4511,15.8345 L 25.4078,16.6435
 L 23.2792,17.19 L 21.0988,17.4655 z
M -21.0988,17.4655 L -23.2792,17.19 L -25.4078,16.6435 L -27.4511,15.8345 L -29.377,14.7757 L -31.1549,13.484
 L -32.7569,11.9796 L -34.1578,10.2862 L -35.3354,8.43068 L -36.2711,6.44217 L -36.9502,4.35207 L -37.362,2.19333
 L -37.5,-0 L -37.362,-2.19333 L -36.9502,-4.35207 L -36.2711,-6.44217 L -35.3354,-8.43068 L -34.1578,-10.2862
 L -32.7569,-11.9796 L -31.1549,-13.484 L -29.377,-14.7757 L -27.4511,-15.8345 L -25.4078,-16.6435 L -23.2792,-17.19
 L -21.0988,-17.4655 L -18.9012,-17.4655 L -16.7208,-17.19 L -14.5922,-16.6435 L -12.5489,-15.8345 L -10.623,-14.7757
 L -8.84508,-13.484 L -7.24304,-11.9796 L -5.84219,-10.2862 L -4.66463,-8.43068 L -3.7289,-6.44217 L -3.04979,-4.35207
 L -2.63799,-2.19333 L -2.5,-0 L -2.63799,2.19333 L -3.04979,4.35207 L -3.7289,6.44217 L -4.66463,8.43068
 L -5.84219,10.2862 L -7.24304,11.9796 L -8.84508,13.484 L -10.623,14.7757 L -12.5489,15.8345 L -14.5922,16.6435
 L -16.7208,17.19 L -18.9012,17.4655 z
M 58.9012,17.4655 L 56.7208,17.19 L 54.5922,16.6435 L 52.5489,15.8345 L 50.623,14.7757 L 48.8451,13.484
 L 47.243,11.9796 L 45.8422,10.2862 L 44.6646,8.43068 L 43.7289,6.44217 L 43.0498,4.35207 L 42.638,2.19333
 L 42.5,-0 L 42.638,-2.19333 L 43.0498,-4.35207 L 43.7289,-6.44217 L 44.6646,-8.43068 L 45.8422,-10.2862
 L 47.243,-11.9796 L 48.8451,-13.484 L 50.623,-14.7757 L 52.5489,-15.8345 L 54.5922,-16.6435 L 56.7208,-17.19
 L 58.9012,-17.4655 L 61.0988,-17.4655 L 63.2792,-17.19 L 65.4078,-16.6435 L 67.4511,-15.8345 L 69.377,-14.7757
 L 71.1549,-13.484 L 72.7569,-11.9796 L 74.1578,-10.2862 L 75.3354,-8.43068 L 76.2711,-6.44217 L 76.9502,-4.35207
 L 77.362,-2.19333 L 77.5,-0 L 77.362,2.19333 L 76.9502,4.35207 L 76.2711,6.44217 L 75.3354,8.43068
 L 74.1578,10.2862 L 72.7569,11.9796 L 71.1549,13.484 L 69.377,14.7757 L 67.4511,15.8345 L 65.4078,16.6435
 L 63.2792,17.19 L 61.0988,17.4655 z
M -61.0988,17.4655 L -63.2792,17.19 L -65.4078,16.6435 L -67.4511,15.8345 L -69.377,14.7757 L -71.1549,13.484
 L -72.7569,11.9796 L -74.1578,10.2862 L -75.3354,8.43068 L -76.2711,6.44217 L -76.9502,4.35207 L -77.362,2.19333
 L -77.5,-0 L -77.362,-2.19333 L -76.9502,-4.35207 L -76.2711,-6.44217 L -75.3354,-8.43068 L -74.1578,-10.2862
 L -72.7569,-11.9796 L -71.1549,-13.484 L -69.377,-14.7757 L -67.4511,-15.8345 L -65.4078,-16.6435 L -63.2792,-17.19
 L -61.0988,-17.4655 L -58.9012,-17.4655 L -56.7208,-17.19 L -54.5922,-16.6435 L -52.5489,-15.8345 L -50.623,-14.7757
 L -48.8451,-13.484 L -47.243,-11.9796 L -45.8422,-10.2862 L -44.6646,-8.43068 L -43.7289,-6.44217 L -43.0498,-4.35207
 L -42.638,-2.19333 L -42.5,-0 L -42.638,2.19333 L -43.0498,4.35207 L -43.7289,6.44217 L -44.6646,8.43068
 L -45.8422,10.2862 L -47.243,11.9796 L -48.8451,13.484 L -50.623,14.7757 L -52.5489,15.8345 L -54.5922,16.6435
 L -56.7208,17.19 L -58.9012,17.4655 z
M -75.1884,17.9941 L -75.5621,17.9469 L -75.927,17.8532 L -76.2773,17.7145 L -76.6075,17.533 L -76.9123,17.3115
 L -77.1869,17.0536 L -77.427,16.7634 L -77.6289,16.4453 L -77.7893,16.1044 L -77.9057,15.7461 L -77.9763,15.376
 L -78,15 L -77.9763,14.624 L -77.9057,14.2539 L -77.7893,13.8956 L -77.6289,13.5547 L -77.427,13.2366
 L -77.1869,12.9464 L -76.9123,12.6884 L -76.6075,12.467 L -76.2773,12.2855 L -75.927,12.1468 L -75.5621,12.0531
 L -75.1884,12.0059 L -74.8116,12.0059 L -74.4379,12.0531 L -74.073,12.1468 L -73.7227,12.2855 L -73.3925,12.467
 L -73.0877,12.6884 L -72.8131,12.9464 L -72.573,13.2366 L -72.3711,13.5547 L -72.2107,13.8956 L -72.0943,14.2539
 L -72.0237,14.624 L -72,15 L -72.0237,15.376 L -72.0943,15.7461 L -72.2107,16.1044 L -72.3711,16.4453
 L -72.573,16.7634 L -72.8131,17.0536 L -73.0877,17.3115 L -73.3925,17.533 L -73.7227,17.7145 L -74.073,17.8532
 L -74.4379,17.9469 L -74.8116,17.9941 z
M 74.8116,17.9941 L 74.4379,17.9469 L 74.073,17.8532 L 73.7227,17.7145 L 73.3925,17.533 L 73.0877,17.3115
 L 72.8131,17.0536 L 72.573,16.7634 L 72.3711,16.4453 L 72.2107,16.1044 L 72.0943,15.7461 L 72.0237,15.376
 L 72,15 L 72.0237,14.624 L 72.0943,14.2539 L 72.2107,13.8956 L 72.3711,13.5547 L 72.573,13.2366
 L 72.8131,12.9464 L 73.0877,12.6884 L 73.3925,12.467 L 73.7227,12.2855 L 74.073,12.1468 L 74.4379,12.0531
 L 74.8116,12.0059 L 75.1884,12.0059 L 75.5621,12.0531 L 75.927,12.1468 L 76.2773,12.2855 L 76.6075,12.467
 L 76.9123,12.6884 L 77.1869,12.9464 L 77.427,13.2366 L 77.6289,13.5547 L 77.7893,13.8956 L 77.9057,14.2539
 L 77.9763,14.624 L 78,15 L 77.9763,15.376 L 77.9057,15.7461 L 77.7893,16.1044 L 77.6289,16.4453
 L 77.427,16.7634 L 77.1869,17.0536 L 76.9123,17.3115 L 76.6075,17.533 L 76.2773,17.7145 L 75.927,17.8532
 L 75.5621,17.9469 L 75.1884,17.9941 z
" stroke="black" fill="lightgray" stroke-width="0.5"/>
</svg>
