<?xml version="1.0" standalone="no"?>
<!DOCTYPE svg PUBLIC "-//W3C//DTD SVG 1.1//EN" "http://www.w3.org/Graphics/SVG/1.1/DTD/svg11.dtd">
<svg width="90mm" height="30mm" viewBox="-45 -15 90 30" xmlns="http://www.w3.org/2000/svg" version="1.1">
<title>OpenSCAD Model</title>
<path d="
M 40.4369,14.4114 L 41.0451,14.2553 L 41.6289,14.0241 L 42.1791,13.7216 L 42.6871,13.3526 L 43.1448,12.9227
 L 43.5451,12.4389 L 43.8815,11.9088 L 44.1489,11.3406 L 44.3429,10.7434 L 44.4606,10.1267 L 44.5,9.5
 L 44.5,-9.5 L 44.4606,-10.1267 L 44.3429,-10.7434 L 44.1489,-11.3406 L 43.8815,-11.9088 L 43.5451,-12.4389
 L 43.1448,-12.9227 L 42.6871,-13.3526 L 42.1791,-13.7216 L 41.6289,-14.0241 L 41.0451,-14.2553 L 40.4369,-14.4114
 L 39.8139,-14.4901 L -39.8139,-14.4901 L -40.4369,-14.4114 L -41.0451,-14.2553 L -41.6289,-14.0241 L -42.1791,-13.7216
 L -42.6871,-13.3526 L -43.1448,-12.9227 L -43.5451,-12.4389 L -43.8815,-11.9088 L -44.1489,-11.3406 L -44.3429,-10.7434
 L -44.4606,-10.1267 L -44.5,-9.5 L -44.5,9.5 L -44.4606,10.1267 L -44.3429,10.7434 L -44.1489,11.3406
 L -43.8815,11.9088 L -43.5451,12.4389 L -43.1448,12.9227 L -42.6871,13.3526 L -42.1791,13.7216 L -41.6289,14.0241
 L -41.0451,14.2553 L -40.4369,14.4114 L -39.8139,14.4901 L 39.8139,14.4901 z
M 37.3116,-4.50591 L 36.9379,-4.55313 L 36.5729,-4.64682 L 36.2227,-4.78551 L 35.8925,-4.96701 L 35.5877,-5.18845
 L 35.3131,-5.44635 L 35.0729,-5.73663 L 34.8711,-6.05473 L 34.7107,-6.39561 L 34.5942,-6.75392 L 34.5237,-7.12399
 L 34.5,-7.5 L 34.5237,-7.87599 L 34.5942,-8.24606 L 34.7107,-8.60437 L 34.8711,-8.94525 L 35.0729,-9.26335
 L 35.3131,-9.55363 L 35.5877,-9.81154 L 35.8925,-10.033 L 36.2227,-10.2145 L 36.5729,-10.3532 L 36.9379,-10.4469
 L 37.3116,-10.4941 L 37.6884,-10.4941 L 38.0621,-10.4469 L 38.427,-10.3532 L 38.7773,-10.2145 L 39.1075,-10.033
 L 39.4123,-9.81154 L 39.6869,-9.55363 L 39.927,-9.26335 L 40.1289,-8.94525 L 40.2893,-8.60437 L 40.4057,-8.24606
 L 40.4763,-7.87599 L 40.5,-7.5 L 40.4763,-7.12399 L 40.4057,-6.75392 L 40.2893,-6.39561 L 40.1289,-6.05473
 L 39.927,-5.73663 L 39.6869,-5.44635 L 39.4123,-5.18845 L 39.1075,-4.96701 L 38.7773,-4.78551 L 38.427,-4.64682
 L 38.0621,-4.55313 L 37.6884,-4.50591 z
M -37.6884,-4.50591 L -38.0621,-4.55313 L -38.427,-4.64682 L -38.7773,-4.78551 L -39.1075,-4.96701 L -39.4123,-5.18845
 L -39.6869,-5.44635 L -39.927,-5.73663 L -40.1289,-6.05473 L -40.2893,-6.39561 L -40.4057,-6.75392 L -40.4763,-7.12399
 L -40.5,-7.5 L -40.4763,-7.87599 L -40.4057,-8.24606 L -40.2893,-8.60437 L -40.1289,-8.94525 L -39.927,-9.26335
 L -39.6869,-9.55363 L -39.4123,-9.81154 L -39.1075,-10.033 L -38.7773,-10.2145 L -38.427,-10.3532 L -38.0621,-10.4469
 L -37.6884,-10.4941 L -37.3116,-10.4941 L -36.9379,-10.4469 L -36.5729,-10.3532 L -36.2227,-10.2145 L -35.8925,-10.033
 L -35.5877,-9.81154 L -35.3131,-9.55363 L -35.0729,-9.26335 L -34.8711,-8.94525 L -34.7107,-8.60437 L -34.5942,-8.24606
 L -34.5237,-7.87599 L -34.5,-7.5 L -34.5237,-7.12399 L -34.5942,-6.75392 L -34.7107,-6.39561 L -34.8711,-6.05473
 L -35.0729,-5.73663 L -35.3131,-5.44635 L -35.5877,-5.18845 L -35.8925,-4.96701 L -36.2227,-4.78551 L -36.5729,-4.64682
 L -36.9379,-4.55313 L -37.3116,-4.50591 z
M 7.65465,5.48914 L 6.96939,5.40257 L 6.3004,5.2308 L 5.6582,4.97655 L 5.05295,4.6438 L 4.49416,4.23781
 L 3.99066,3.765 L 3.5504,3.23282 L 3.18031,2.64964 L 2.88622,2.02467 L 2.67279,1.36778 L 2.54337,0.689331
 L 2.5,-0 L 2.54337,-0.689331 L 2.67279,-1.36778 L 2.88622,-2.02467 L 3.18031,-2.64964 L 3.5504,-3.23282
 L 3.99066,-3.765 L 4.49416,-4.23781 L 5.05295,-4.6438 L 5.6582,-4.97655 L 6.3004,-5.2308 L 6.96939,-5.40257
 L 7.65465,-5.48914 L 8.34534,-5.48914 L 9.03059,-5.40257 L 9.69958,-5.2308 L 10.3418,-4.97655 L 10.947,-4.6438
 L 11.5058,-4.23781 L 12.0093,-3.765 L 12.4496,-3.23282 L 12.8197,-2.64964 L 13.1138,-2.02467 L 13.3272,-1.36778
 L 13.4566,-0.689331 L 13.5,-0 L 13.4566,0.689331 L 13.3272,1.36778 L 13.1138,2.02467 L 12.8197,2.64964
 L 12.4496,3.23282 L 12.0093,3.765 L 11.5058,4.23781 L 10.947,4.6438 L 10.3418,4.97655 L 9.69958,5.2308
 L 9.03059,5.40257 L 8.34534,5.48914 z
M -24.3453,5.48914 L -25.0306,5.40257 L -25.6996,5.2308 L -26.3418,4.97655 L -26.947,4.6438 L -27.5058,4.23781
 L -28.0093,3.765 L -28.4496,3.23282 L -28.8197,2.64964 L -29.1138,2.02467 L -29.3272,1.36778 L -29.4566,0.689331
 L -29.5,-0 L -29.4566,-0.689331 L -29.3272,-1.36778 L -29.1138,-2.02467 L -28.8197,-2.64964 L -28.4496,-3.23282
 L -28.0093,-3.765 L -27.5058,-4.23781 L -26.947,-4.6438 L -26.3418,-4.97655 L -25.6996,-5.2308 L -25.0306,-5.40257
 L -24.3453,-5.48914 L -23.6546,-5.48914 L -22.9694,-5.40257 L -22.3004,-5.2308 L -21.6582,-4.97655 L -21.0529,-4.6438
 L -20.4942,-4.23781 L -19.9907,-3.765 L -19.5504,-3.23282 L -19.1803,-2.64964 L -18.8862,-2.02467 L -18.6728,-1.36778
 L -18.5434,-0.689331 L -18.5,-0 L -18.5434,0.689331 L -18.6728,1.36778 L -18.8862,2.02467 L -19.1803,2.64964
 L -19.5504,3.23282 L -19.9907,3.765 L -20.4942,4.23781 L -21.0529,4.6438 L -21.6582,4.97655 L -22.3004,5.2308
 L -22.9694,5.40257 L -23.6546,5.48914 z
M -8.34534,5.48914 L -9.03059,5.40257 L -9.69958,5.2308 L -10.3418,4.97655 L -10.947,4.6438 L -11.5058,4.23781
 L -12.0093,3.765 L -12.4496,3.23282 L -12.8197,2.64964 L -13.1138,2.02467 L -13.3272,1.36778 L -13.4566,0.689331
 L -13.5,-0 L -13.4566,-0.689331 L -13.3272,-1.36778 L -13.1138,-2.02467 L -12.8197,-2.64964 L -12.4496,-3.23282
 L -12.0093,-3.765 L -11.5058,-4.23781 L -10.947,-4.6438 L -10.3418,-4.97655 L -9.69958,-5.2308 L -9.03059,-5.40257
 L -8.34534,-5.48914 L -7.65465,-5.48914 L -6.96939,-5.40257 L -6.3004,-5.2308 L -5.6582,-4.97655 L -5.05295,-4.6438
 L -4.49416,-4.23781 L -3.99066,-3.765 L -3.5504,-3.23282 L -3.18031,-2.64964 L -2.88622,-2.02467 L -2.67279,-1.36778
 L -2.54337,-0.689331 L -2.5,-0 L -2.54337,0.689331 L -2.67279,1.36778 L -2.88622,2.02467 L -3.18031,2.64964
 L -3.5504,3.23282 L -3.99066,3.765 L -4.49416,4.23781 L -5.05295,4.6438 L -5.6582,4.97655 L -6.3004,5.2308
 L -6.96939,5.40257 L -7.65465,5.48914 z
M 23.6546,5.48914 L 22.9694,5.40257 L 22.3004,5.2308 L 21.6582,4.97655 L 21.0529,4.6438 L 20.4942,4.23781
 L 19.9907,3.765 L 19.5504,3.23282 L 19.1803,2.64964 L 18.8862,2.02467 L 18.6728,1.36778 L 18.5434,0.689331
 L 18.5,-0 L 18.5434,-0.689331 L 18.6728,-1.36778 L 18.8862,-2.02467 L 19.1803,-2.64964 L 19.5504,-3.23282
 L 19.9907,-3.765 L 20.4942,-4.23781 L 21.0529,-4.6438 L 21.6582,-4.97655 L 22.3004,-5.2308 L 22.9694,-5.40257
 L 23.6546,-5.48914 L 24.3453,-5.48914 L 25.0306,-5.40257 L 25.6996,-5.2308 L 26.3418,-4.97655 L 26.947,-4.6438
 L 27.5058,-4.23781 L 28.0093,-3.765 L 28.4496,-3.23282 L 28.8197,-2.64964 L 29.1138,-2.02467 L 29.3272,-1.36778
 L 29.4566,-0.689331 L 29.5,-0 L 29.4566,0.689331 L 29.3272,1.36778 L 29.1138,2.02467 L 28.8197,2.64964
 L 28.4496,3.23282 L 28.0093,3.765 L 27.5058,4.23781 L 26.947,4.6438 L 26.3418,4.97655 L 25.6996,5.2308
 L 25.0306,5.40257 L 24.3453,5.48914 z
M 37.4058,1.49704 L 37.2189,1.47342 L 37.0365,1.42657 L 36.8613,1.35724 L 36.6963,1.26648 L 36.5439,1.15576
 L 36.4065,1.02681 L 36.2865,0.881668 L 36.1855,0.722626 L 36.1053,0.552185 L 36.0471,0.373032 L 36.0118,0.187988
 L 36,-0 L 36.0118,-0.187988 L 36.0471,-0.373032 L 36.1053,-0.552185 L 36.1855,-0.722626 L 36.2865,-0.881668
 L 36.4065,-1.02681 L 36.5439,-1.15576 L 36.6963,-1.26648 L 36.8613,-1.35724 L 37.0365,-1.42657 L 37.2189,-1.47342
 L 37.4058,-1.49704 L 37.5942,-1.49704 L 37.7811,-1.47342 L 37.9635,-1.42657 L 38.1387,-1.35724 L 38.3037,-1.26648
 L 38.4561,-1.15576 L 38.5934,-1.02681 L 38.7135,-0.881668 L 38.8145,-0.722626 L 38.8947,-0.552185 L 38.9529,-0.373032
 L 38.9882,-0.187988 L 39,-0 L 38.9882,0.187988 L 38.9529,0.373032 L 38.8947,0.552185 L 38.8145,0.722626
 L 38.7135,0.881668 L 38.5934,1.02681 L 38.4561,1.15576 L 38.3037,1.26648 L 38.1387,1.35724 L 37.9635,1.42657
 L 37.7811,1.47342 L 37.5942,1.49704 z
M -37.5942,1.49704 L -37.7811,1.47342 L -37.9635,1.42657 L -38.1387,1.35724 L -38.3037,1.26648 L -38.4561,1.15576
 L -38.5934,1.02681 L -38.7135,0.881668 L -38.8145,0.722626 L -38.8947,0.552185 L -38.9529,0.373032 L -38.9882,0.187988
 L -39,-0 L -38.9882,-0.187988 L -38.9529,-0.373032 L -38.8947,-0.552185 L -38.8145,-0.722626 L -38.7135,-0.881668
 L -38.5934,-1.02681 L -38.4561,-1.15576 L -38.3037,-1.26648 L -38.1387,-1.35724 L -37.9635,-1.42657 L -37.7811,-1.47342
 L -37.5942,-1.49704 L -37.4058,-1.49704 L -37.2189,-1.47342 L -37.0365,-1.42657 L -36.8613,-1.35724 L -36.6963,-1.26648
 L -36.5439,-1.15576 L -36.4065,-1.02681 L -36.2865,-0.881668 L -36.1855,-0.722626 L -36.1053,-0.552185 L -36.0471,-0.373032
 L -36.0118,-0.187988 L -36,-0 L -36.0118,0.187988 L -36.0471,0.373032 L -36.1053,0.552185 L -36.1855,0.722626
 L -36.2865,0.881668 L -36.4065,1.02681 L -36.5439,1.15576 L -36.6963,1.26648 L -36.8613,1.35724 L -37.0365,1.42657
 L -37.2189,1.47342 L -37.4058,1.49704 z
M 37.3116,10.4941 L 36.9379,10.4469 L 36.5729,10.3532 L 36.2227,10.2145 L 35.8925,10.033 L 35.5877,9.81154
 L 35.3131,9.55363 L 35.0729,9.26335 L 34.8711,8.94525 L 34.7107,8.60437 L 34.5942,8.24606 L 34.5237,7.87599
 L 34.5,7.5 L 34.5237,7.12399 L 34.5942,6.75392 L 34.7107,6.39561 L 34.8711,6.05473 L 35.0729,5.73663
 L 35.3131,5.44635 L 35.5877,5.18845 L 35.8925,4.96701 L 36.2227,4.78551 L 36.5729,4.64682 L 36.9379,4.55313
 L 37.3116,4.50591 L 37.6884,4.50591 L 38.0621,4.55313 L 38.427,4.64682 L 38.7773,4.78551 L 39.1075,4.96701
 L 39.4123,5.18845 L 39.6869,5.44635 L 39.927,5.73663 L 40.1289,6.05473 L 40.2893,6.39561 L 40.4057,6.75392
 L 40.4763,7.12399 L 40.5,7.5 L 40.4763,7.87599 L 40.4057,8.24606 L 40.2893,8.60437 L 40.1289,8.94525
 L 39.927,9.26335 L 39.6869,9.55363 L 39.4123,9.81154 L 39.1075,10.033 L 38.7773,10.2145 L 38.427,10.3532
 L 38.0621,10.4469 L 37.6884,10.4941 z
M -37.6884,10.4941 L -38.0621,10.4469 L -38.427,10.3532 L -38.7773,10.2145 L -39.1075,10.033 L -39.4123,9.81154
 L -39.6869,9.55363 L -39.927,9.26335 L -40.1289,8.94525 L -40.2893,8.60437 L -40.4057,8.24606 L -40.4763,7.87599
 L -40.5,7.5 L -40.4763,7.12399 L -40.4057,6.75392 L -40.2893,6.39561 L -40.1289,6.05473 L -39.927,5.73663
 L -39.6869,5.44635 L -39.4123,5.18845 L -39.1075,4.96701 L -38.7773,4.78551 L -38.427,4.64682 L -38.0621,4.55313
 L -37.6884,4.50591 L -37.3116,4.50591 L -36.9379,4.55313 L -36.5729,4.64682 L -36.2227,4.78551 L -35.8925,4.96701
 L -35.5877,5.18845 L -35.3131,5.44635 L -35.0729,5.73663 L -34.8711,6.05473 L -34.7107,6.39561 L -34.5942,6.75392
 L -34.5237,7.12399 L -34.5,7.5 L -34.5237,7.87599 L -34.5942,8.24606 L -34.7107,8.60437 L -34.8711,8.94525
 L -35.0729,9.26335 L -35.3131,9.55363 L -35.5877,9.81154 L -35.8925,10.033 L -36.2227,10.2145 L -36.5729,10.3532
 L -36.9379,10.4469 L -37.3116,10.4941 z
" stroke="black" fill="lightgray" stroke-width="0.5"/>
</svg>
