<?xml version="1.0" standalone="no"?>
<!DOCTYPE svg PUBLIC "-//W3C//DTD SVG 1.1//EN" "http://www.w3.org/Graphics/SVG/1.1/DTD/svg11.dtd">
<svg width="734mm" height="150mm" viewBox="-367 -75 734 150" xmlns="http://www.w3.org/2000/svg" version="1.1">
<title>OpenSCAD Model</title>
<path d="
M 362.937,74.4114 L 363.545,74.2553 L 364.129,74.0241 L 364.679,73.7216 L 365.187,73.3526 L 365.645,72.9227
 L 366.045,72.4389 L 366.382,71.9088 L 366.649,71.3406 L 366.843,70.7434 L 366.961,70.1267 L 367,69.5
 L 367,-69.5 L 366.961,-70.1267 L 366.843,-70.7434 L 366.649,-71.3406 L 366.382,-71.9088 L 366.045,-72.4389
 L 365.645,-72.9227 L 365.187,-73.3526 L 364.679,-73.7216 L 364.129,-74.0241 L 363.545,-74.2553 L 362.937,-74.4114
 L 362.314,-74.4901 L -362.314,-74.4901 L -362.937,-74.4114 L -363.545,-74.2553 L -364.129,-74.0241 L -364.679,-73.7216
 L -365.187,-73.3526 L -365.645,-72.9227 L -366.045,-72.4389 L -366.382,-71.9088 L -366.649,-71.3406 L -366.843,-70.7434
 L -366.961,-70.1267 L -367,-69.5 L -367,69.5 L -366.961,70.1267 L -366.843,70.7434 L -366.649,71.3406
 L -366.382,71.9088 L -366.045,72.4389 L -365.645,72.9227 L -365.187,73.3526 L -364.679,73.7216 L -364.129,74.0241
 L -363.545,74.2553 L -362.937,74.4114 L -362.314,74.4901 L 362.314,74.4901 z
M -360.188,-64.5059 L -360.562,-64.5531 L -360.927,-64.6468 L -361.277,-64.7855 L -361.607,-64.967 L -361.912,-65.1885
 L -362.187,-65.4464 L -362.427,-65.7366 L -362.629,-66.0547 L -362.789,-66.3956 L -362.906,-66.7539 L -362.976,-67.124
 L -363,-67.5 L -362.976,-67.876 L -362.906,-68.2461 L -362.789,-68.6044 L -362.629,-68.9453 L -362.427,-69.2634
 L -362.187,-69.5536 L -361.912,-69.8115 L -361.607,-70.033 L -361.277,-70.2145 L -360.927,-70.3532 L -360.562,-70.4469
 L -360.188,-70.4941 L -359.812,-70.4941 L -359.438,-70.4469 L -359.073,-70.3532 L -358.723,-70.2145 L -358.393,-70.033
 L -358.088,-69.8115 L -357.813,-69.5536 L -357.573,-69.2634 L -357.371,-68.9453 L -357.211,-68.6044 L -357.094,-68.2461
 L -357.024,-67.876 L -357,-67.5 L -357.024,-67.124 L -357.094,-66.7539 L -357.211,-66.3956 L -357.371,-66.0547
 L -357.573,-65.7366 L -357.813,-65.4464 L -358.088,-65.1885 L -358.393,-64.967 L -358.723,-64.7855 L -359.073,-64.6468
 L -359.438,-64.5531 L -359.812,-64.5059 z
M 359.812,-64.5059 L 359.438,-64.5531 L 359.073,-64.6468 L 358.723,-64.7855 L 358.393,-64.967 L 358.088,-65.1885
 L 357.813,-65.4464 L 357.573,-65.7366 L 357.371,-66.0547 L 357.211,-66.3956 L 357.094,-66.7539 L 357.024,-67.124
 L 357,-67.5 L 357.024,-67.876 L 357.094,-68.2461 L 357.211,-68.6044 L 357.371,-68.9453 L 357.573,-69.2634
 L 357.813,-69.5536 L 358.088,-69.8115 L 358.393,-70.033 L 358.723,-70.2145 L 359.073,-70.3532 L 359.438,-70.4469
 L 359.812,-70.4941 L 360.188,-70.4941 L 360.562,-70.4469 L 360.927,-70.3532 L 361.277,-70.2145 L 361.607,-70.033
 L 361.912,-69.8115 L 362.187,-69.5536 L 362.427,-69.2634 L 362.629,-68.9453 L 362.789,-68.6044 L 362.906,-68.2461
 L 362.976,-67.876 L 363,-67.5 L 362.976,-67.124 L 362.906,-66.7539 L 362.789,-66.3956 L 362.629,-66.0547
 L 362.427,-65.7366 L 362.187,-65.4464 L 361.912,-65.1885 L 361.607,-64.967 L 361.277,-64.7855 L 360.927,-64.6468
 L 360.562,-64.5531 L 360.188,-64.5059 z
M 285.605,69.8619 L 276.883,68.7601 L 268.369,66.574 L 260.195,63.3379 L 252.492,59.103 L 245.38,53.9359
 L 238.972,47.9183 L 233.369,41.145 L 228.659,33.7227 L 224.916,25.7687 L 222.199,17.4083 L 220.552,8.77332
 L 220,-0 L 220.552,-8.77332 L 222.199,-17.4083 L 224.916,-25.7687 L 228.659,-33.7227 L 233.369,-41.145
 L 238.972,-47.9183 L 245.38,-53.9359 L 252.492,-59.103 L 260.195,-63.3379 L 268.369,-66.574 L 276.883,-68.7601
 L 285.605,-69.8619 L 294.395,-69.8619 L 303.117,-68.7601 L 311.631,-66.574 L 319.805,-63.3379 L 327.508,-59.103
 L 334.62,-53.9359 L 341.028,-47.9183 L 346.631,-41.145 L 351.341,-33.7227 L 355.084,-25.7687 L 357.801,-17.4083
 L 359.448,-8.77332 L 360,-0 L 359.448,8.77332 L 357.801,17.4083 L 355.084,25.7687 L 351.341,33.7227
 L 346.631,41.145 L 341.028,47.9183 L 334.62,53.9359 L 327.508,59.103 L 319.805,63.3379 L 311.631,66.574
 L 303.117,68.7601 L 294.395,69.8619 z
M -149.395,69.8619 L -158.117,68.7601 L -166.631,66.574 L -174.805,63.3379 L -182.508,59.103 L -189.62,53.9359
 L -196.028,47.9183 L -201.631,41.145 L -206.341,33.7227 L -210.084,25.7687 L -212.801,17.4083 L -214.448,8.77332
 L -215,-0 L -214.448,-8.77332 L -212.801,-17.4083 L -210.084,-25.7687 L -206.341,-33.7227 L -201.631,-41.145
 L -196.028,-47.9183 L -189.62,-53.9359 L -182.508,-59.103 L -174.805,-63.3379 L -166.631,-66.574 L -158.117,-68.7601
 L -149.395,-69.8619 L -140.605,-69.8619 L -131.883,-68.7601 L -123.369,-66.574 L -115.195,-63.3379 L -107.492,-59.103
 L -100.38,-53.9359 L -93.9722,-47.9183 L -88.3688,-41.145 L -83.6585,-33.7227 L -79.9156,-25.7687 L -77.1992,-17.4083
 L -75.552,-8.77332 L -75,-0 L -75.552,8.77332 L -77.1992,17.4083 L -79.9156,25.7687 L -83.6585,33.7227
 L -88.3688,41.145 L -93.9722,47.9183 L -100.38,53.9359 L -107.492,59.103 L -115.195,63.3379 L -123.369,66.574
 L -131.883,68.7601 L -140.605,69.8619 z
M -294.395,69.8619 L -303.117,68.7601 L -311.631,66.574 L -319.805,63.3379 L -327.508,59.103 L -334.62,53.9359
 L -341.028,47.9183 L -346.631,41.145 L -351.341,33.7227 L -355.084,25.7687 L -357.801,17.4083 L -359.448,8.77332
 L -360,-0 L -359.448,-8.77332 L -357.801,-17.4083 L -355.084,-25.7687 L -351.341,-33.7227 L -346.631,-41.145
 L -341.028,-47.9183 L -334.62,-53.9359 L -327.508,-59.103 L -319.805,-63.3379 L -311.631,-66.574 L -303.117,-68.7601
 L -294.395,-69.8619 L -285.605,-69.8619 L -276.883,-68.7601 L -268.369,-66.574 L -260.195,-63.3379 L -252.492,-59.103
 L -245.38,-53.9359 L -238.972,-47.9183 L -233.369,-41.145 L -228.659,-33.7227 L -224.916,-25.7687 L -222.199,-17.4083
 L -220.552,-8.77332 L -220,-0 L -220.552,8.77332 L -222.199,17.4083 L -224.916,25.7687 L -228.659,33.7227
 L -233.369,41.145 L -238.972,47.9183 L -245.38,53.9359 L -252.492,59.103 L -260.195,63.3379 L -268.369,66.574
 L -276.883,68.7601 L -285.605,69.8619 z
M -4.39532,69.8619 L -13.1167,68.7601 L -21.6312,66.574 L -29.8046,63.3379 L -37.5079,59.103 L -44.6197,53.9359
 L -51.0278,47.9183 L -56.6312,41.145 L -61.3415,33.7227 L -65.0844,25.7687 L -67.8008,17.4083 L -69.448,8.77332
 L -70,-0 L -69.448,-8.77332 L -67.8008,-17.4083 L -65.0844,-25.7687 L -61.3415,-33.7227 L -56.6312,-41.145
 L -51.0278,-47.9183 L -44.6197,-53.9359 L -37.5079,-59.103 L -29.8046,-63.3379 L -21.6312,-66.574 L -13.1167,-68.7601
 L -4.39532,-69.8619 L 4.39532,-69.8619 L 13.1167,-68.7601 L 21.6312,-66.574 L 29.8046,-63.3379 L 37.5079,-59.103
 L 44.6197,-53.9359 L 51.0278,-47.9183 L 56.6312,-41.145 L 61.3415,-33.7227 L 65.0844,-25.7687 L 67.8008,-17.4083
 L 69.448,-8.77332 L 70,-0 L 69.448,8.77332 L 67.8008,17.4083 L 65.0844,25.7687 L 61.3415,33.7227
 L 56.6312,41.145 L 51.0278,47.9183 L 44.6197,53.9359 L 37.5079,59.103 L 29.8046,63.3379 L 21.6312,66.574
 L 13.1167,68.7601 L 4.39532,69.8619 z
M 140.605,69.8619 L 131.883,68.7601 L 123.369,66.574 L 115.195,63.3379 L 107.492,59.103 L 100.38,53.9359
 L 93.9722,47.9183 L 88.3688,41.145 L 83.6585,33.7227 L 79.9156,25.7687 L 77.1992,17.4083 L 75.552,8.77332
 L 75,-0 L 75.552,-8.77332 L 77.1992,-17.4083 L 79.9156,-25.7687 L 83.6585,-33.7227 L 88.3688,-41.145
 L 93.9722,-47.9183 L 100.38,-53.9359 L 107.492,-59.103 L 115.195,-63.3379 L 123.369,-66.574 L 131.883,-68.7601
 L 140.605,-69.8619 L 149.395,-69.8619 L 158.117,-68.7601 L 166.631,-66.574 L 174.805,-63.3379 L 182.508,-59.103
 L 189.62,-53.9359 L 196.028,-47.9183 L 201.631,-41.145 L 206.341,-33.7227 L 210.084,-25.7687 L 212.801,-17.4083
 L 214.448,-8.77332 L 215,-0 L 214.448,8.77332 L 212.801,17.4083 L 210.084,25.7687 L 206.341,33.7227
 L 201.631,41.145 L 196.028,47.9183 L 189.62,53.9359 L 182.508,59.103 L 174.805,63.3379 L 166.631,66.574
 L 158.117,68.7601 L 149.395,69.8619 z
M 359.812,70.4941 L 359.438,70.4469 L 359.073,70.3532 L 358.723,70.2145 L 358.393,70.033 L 358.088,69.8115
 L 357.813,69.5536 L 357.573,69.2634 L 357.371,68.9453 L 357.211,68.6044 L 357.094,68.2461 L 357.024,67.876
 L 357,67.5 L 357.024,67.124 L 357.094,66.7539 L 357.211,66.3956 L 357.371,66.0547 L 357.573,65.7366
 L 357.813,65.4464 L 358.088,65.1885 L 358.393,64.967 L 358.723,64.7855 L 359.073,64.6468 L 359.438,64.5531
 L 359.812,64.5059 L 360.188,64.5059 L 360.562,64.5531 L 360.927,64.6468 L 361.277,64.7855 L 361.607,64.967
 L 361.912,65.1885 L 362.187,65.4464 L 362.427,65.7366 L 362.629,66.0547 L 362.789,66.3956 L 362.906,66.7539
 L 362.976,67.124 L 363,67.5 L 362.976,67.876 L 362.906,68.2461 L 362.789,68.6044 L 362.629,68.9453
 L 362.427,69.2634 L 362.187,69.5536 L 361.912,69.8115 L 361.607,70.033 L 361.277,70.2145 L 360.927,70.3532
 L 360.562,70.4469 L 360.188,70.4941 z
M -360.188,70.4941 L -360.562,70.4469 L -360.927,70.3532 L -361.277,70.2145 L -361.607,70.033 L -361.912,69.8115
 L -362.187,69.5536 L -362.427,69.2634 L -362.629,68.9453 L -362.789,68.6044 L -362.906,68.2461 L -362.976,67.876
 L -363,67.5 L -362.976,67.124 L -362.906,66.7539 L -362.789,66.3956 L -362.629,66.0547 L -362.427,65.7366
 L -362.187,65.4464 L -361.912,65.1885 L -361.607,64.967 L -361.277,64.7855 L -360.927,64.6468 L -360.562,64.5531
 L -360.188,64.5059 L -359.812,64.5059 L -359.438,64.5531 L -359.073,64.6468 L -358.723,64.7855 L -358.393,64.967
 L -358.088,65.1885 L -357.813,65.4464 L -357.573,65.7366 L -357.371,66.0547 L -357.211,66.3956 L -357.094,66.7539
 L -357.024,67.124 L -357,67.5 L -357.024,67.876 L -357.094,68.2461 L -357.211,68.6044 L -357.371,68.9453
 L -357.573,69.2634 L -357.813,69.5536 L -358.088,69.8115 L -358.393,70.033 L -358.723,70.2145 L -359.073,70.3532
 L -359.438,70.4469 L -359.812,70.4941 z
" stroke="black" fill="lightgray" stroke-width="0.5"/>
</svg>
