<?xml version="1.0" standalone="no"?>
<!DOCTYPE svg PUBLIC "-//W3C//DTD SVG 1.1//EN" "http://www.w3.org/Graphics/SVG/1.1/DTD/svg11.dtd">
<svg width="60mm" height="14mm" viewBox="-30 -7 60 14" xmlns="http://www.w3.org/2000/svg" version="1.1">
<title>OpenSCAD Model</title>
<path d="
M 25.4369,6.91142 L 26.0451,6.75528 L 26.6289,6.52412 L 27.1791,6.22163 L 27.6871,5.85255 L 28.1448,5.42273
 L 28.5451,4.93892 L 28.8815,4.40877 L 29.1489,3.84062 L 29.3429,3.24344 L 29.4606,2.62666 L 29.5,2
 L 29.5,-2 L 29.4606,-2.62666 L 29.3429,-3.24344 L 29.1489,-3.84062 L 28.8815,-4.40877 L 28.5451,-4.93892
 L 28.1448,-5.42273 L 27.6871,-5.85255 L 27.1791,-6.22163 L 26.6289,-6.52412 L 26.0451,-6.75528 L 25.4369,-6.91142
 L 24.8139,-6.99013 L -24.8139,-6.99013 L -25.4369,-6.91142 L -26.0451,-6.75528 L -26.6289,-6.52412 L -27.1791,-6.22163
 L -27.6871,-5.85255 L -28.1448,-5.42273 L -28.5451,-4.93892 L -28.8815,-4.40877 L -29.1489,-3.84062 L -29.3429,-3.24344
 L -29.4606,-2.62666 L -29.5,-2 L -29.5,2 L -29.4606,2.62666 L -29.3429,3.24344 L -29.1489,3.84062
 L -28.8815,4.40877 L -28.5451,4.93892 L -28.1448,5.42273 L -27.6871,5.85255 L -27.1791,6.22163 L -26.6289,6.52412
 L -26.0451,6.75528 L -25.4369,6.91142 L -24.8139,6.99013 L 24.8139,6.99013 z
M 5.31161,2.99408 L 4.93785,2.94685 L 4.57294,2.85316 L 4.22266,2.71448 L 3.89252,2.53297 L 3.58772,2.31154
 L 3.31308,2.05363 L 3.07294,1.76335 L 2.87108,1.44525 L 2.71066,1.10437 L 2.59424,0.746063 L 2.52365,0.375992
 L 2.5,-0 L 2.52365,-0.375992 L 2.59424,-0.746063 L 2.71066,-1.10437 L 2.87108,-1.44525 L 3.07294,-1.76335
 L 3.31308,-2.05363 L 3.58772,-2.31154 L 3.89252,-2.53297 L 4.22266,-2.71448 L 4.57294,-2.85316 L 4.93785,-2.94685
 L 5.31161,-2.99408 L 5.68837,-2.99408 L 6.06213,-2.94685 L 6.42705,-2.85316 L 6.77733,-2.71448 L 7.10747,-2.53297
 L 7.41226,-2.31154 L 7.6869,-2.05363 L 7.92705,-1.76335 L 8.12891,-1.44525 L 8.28932,-1.10437 L 8.40575,-0.746063
 L 8.47633,-0.375992 L 8.5,-0 L 8.47633,0.375992 L 8.40575,0.746063 L 8.28932,1.10437 L 8.12891,1.44525
 L 7.92705,1.76335 L 7.6869,2.05363 L 7.41226,2.31154 L 7.10747,2.53297 L 6.77733,2.71448 L 6.42705,2.85316
 L 6.06213,2.94685 L 5.68837,2.99408 z
M -19.4763,-0.375992 L -19.4057,-0.746063 L -19.2893,-1.10437 L -19.1289,-1.44525 L -18.927,-1.76335 L -18.6869,-2.05363
 L -18.4123,-2.31154 L -18.1075,-2.53297 L -17.7773,-2.71448 L -17.427,-2.85316 L -17.0621,-2.94685 L -16.6884,-2.99408
 L -16.3116,-2.99408 L -15.9379,-2.94685 L -15.5729,-2.85316 L -15.2227,-2.71448 L -14.8925,-2.53297 L -14.5877,-2.31154
 L -14.3131,-2.05363 L -14.0729,-1.76335 L -13.8711,-1.44525 L -13.7107,-1.10437 L -13.5942,-0.746063 L -13.5237,-0.375992
 L -13.5,-0 L -13.5237,0.375992 L -13.5942,0.746063 L -13.7107,1.10437 L -13.8711,1.44525 L -14.0729,1.76335
 L -14.3131,2.05363 L -14.5877,2.31154 L -14.8925,2.53297 L -15.2227,2.71448 L -15.5729,2.85316 L -15.9379,2.94685
 L -16.3116,2.99408 L -16.6884,2.99408 L -17.0621,2.94685 L -17.427,2.85316 L -17.7773,2.71448 L -18.1075,2.53297
 L -18.4123,2.31154 L -18.6869,2.05363 L -18.927,1.76335 L -19.1289,1.44525 L -19.2893,1.10437 L -19.4057,0.746063
 L -19.4763,0.375992 L -19.5,-0 z
M 19.5237,-0.375992 L 19.5942,-0.746063 L 19.7107,-1.10437 L 19.8711,-1.44525 L 20.0729,-1.76335 L 20.3131,-2.05363
 L 20.5877,-2.31154 L 20.8925,-2.53297 L 21.2227,-2.71448 L 21.5729,-2.85316 L 21.9379,-2.94685 L 22.3116,-2.99408
 L 22.6884,-2.99408 L 23.0621,-2.94685 L 23.427,-2.85316 L 23.7773,-2.71448 L 24.1075,-2.53297 L 24.4123,-2.31154
 L 24.6869,-2.05363 L 24.927,-1.76335 L 25.1289,-1.44525 L 25.2893,-1.10437 L 25.4057,-0.746063 L 25.4763,-0.375992
 L 25.5,-0 L 25.4763,0.375992 L 25.4057,0.746063 L 25.2893,1.10437 L 25.1289,1.44525 L 24.927,1.76335
 L 24.6869,2.05363 L 24.4123,2.31154 L 24.1075,2.53297 L 23.7773,2.71448 L 23.427,2.85316 L 23.0621,2.94685
 L 22.6884,2.99408 L 22.3116,2.99408 L 21.9379,2.94685 L 21.5729,2.85316 L 21.2227,2.71448 L 20.8925,2.53297
 L 20.5877,2.31154 L 20.3131,2.05363 L 20.0729,1.76335 L 19.8711,1.44525 L 19.7107,1.10437 L 19.5942,0.746063
 L 19.5237,0.375992 L 19.5,-0 z
M -5.68837,2.99408 L -6.06213,2.94685 L -6.42705,2.85316 L -6.77733,2.71448 L -7.10747,2.53297 L -7.41226,2.31154
 L -7.6869,2.05363 L -7.92705,1.76335 L -8.12891,1.44525 L -8.28932,1.10437 L -8.40575,0.746063 L -8.47633,0.375992
 L -8.5,-0 L -8.47633,-0.375992 L -8.40575,-0.746063 L -8.28932,-1.10437 L -8.12891,-1.44525 L -7.92705,-1.76335
 L -7.6869,-2.05363 L -7.41226,-2.31154 L -7.10747,-2.53297 L -6.77733,-2.71448 L -6.42705,-2.85316 L -6.06213,-2.94685
 L -5.68837,-2.99408 L -5.31161,-2.99408 L -4.93785,-2.94685 L -4.57294,-2.85316 L -4.22266,-2.71448 L -3.89252,-2.53297
 L -3.58772,-2.31154 L -3.31308,-2.05363 L -3.07294,-1.76335 L -2.87108,-1.44525 L -2.71066,-1.10437 L -2.59424,-0.746063
 L -2.52365,-0.375992 L -2.5,-0 L -2.52365,0.375992 L -2.59424,0.746063 L -2.71066,1.10437 L -2.87108,1.44525
 L -3.07294,1.76335 L -3.31308,2.05363 L -3.58772,2.31154 L -3.89252,2.53297 L -4.22266,2.71448 L -4.57294,2.85316
 L -4.93785,2.94685 L -5.31161,2.99408 z
M -19.5237,0.375992 L -19.5942,0.746063 L -19.7107,1.10437 L -19.8711,1.44525 L -20.0729,1.76335 L -20.3131,2.05363
 L -20.5877,2.31154 L -20.8925,2.53297 L -21.2227,2.71448 L -21.5729,2.85316 L -21.9379,2.94685 L -22.3116,2.99408
 L -22.6884,2.99408 L -23.0621,2.94685 L -23.427,2.85316 L -23.7773,2.71448 L -24.1075,2.53297 L -24.4123,2.31154
 L -24.6869,2.05363 L -24.927,1.76335 L -25.1289,1.44525 L -25.2893,1.10437 L -25.4057,0.746063 L -25.4763,0.375992
 L -25.5,-0 L -25.4763,-0.375992 L -25.4057,-0.746063 L -25.2893,-1.10437 L -25.1289,-1.44525 L -24.927,-1.76335
 L -24.6869,-2.05363 L -24.4123,-2.31154 L -24.1075,-2.53297 L -23.7773,-2.71448 L -23.427,-2.85316 L -23.0621,-2.94685
 L -22.6884,-2.99408 L -22.3116,-2.99408 L -21.9379,-2.94685 L -21.5729,-2.85316 L -21.2227,-2.71448 L -20.8925,-2.53297
 L -20.5877,-2.31154 L -20.3131,-2.05363 L -20.0729,-1.76335 L -19.8711,-1.44525 L -19.7107,-1.10437 L -19.5942,-0.746063
 L -19.5237,-0.375992 L -19.5,-0 z
M 19.4763,0.375992 L 19.4057,0.746063 L 19.2893,1.10437 L 19.1289,1.44525 L 18.927,1.76335 L 18.6869,2.05363
 L 18.4123,2.31154 L 18.1075,2.53297 L 17.7773,2.71448 L 17.427,2.85316 L 17.0621,2.94685 L 16.6884,2.99408
 L 16.3116,2.99408 L 15.9379,2.94685 L 15.5729,2.85316 L 15.2227,2.71448 L 14.8925,2.53297 L 14.5877,2.31154
 L 14.3131,2.05363 L 14.0729,1.76335 L 13.8711,1.44525 L 13.7107,1.10437 L 13.5942,0.746063 L 13.5237,0.375992
 L 13.5,-0 L 13.5237,-0.375992 L 13.5942,-0.746063 L 13.7107,-1.10437 L 13.8711,-1.44525 L 14.0729,-1.76335
 L 14.3131,-2.05363 L 14.5877,-2.31154 L 14.8925,-2.53297 L 15.2227,-2.71448 L 15.5729,-2.85316 L 15.9379,-2.94685
 L 16.3116,-2.99408 L 16.6884,-2.99408 L 17.0621,-2.94685 L 17.427,-2.85316 L 17.7773,-2.71448 L 18.1075,-2.53297
 L 18.4123,-2.31154 L 18.6869,-2.05363 L 18.927,-1.76335 L 19.1289,-1.44525 L 19.2893,-1.10437 L 19.4057,-0.746063
 L 19.4763,-0.375992 L 19.5,-0 z
" stroke="black" fill="lightgray" stroke-width="0.5"/>
</svg>
