<?xml version="1.0" standalone="no"?>
<!DOCTYPE svg PUBLIC "-//W3C//DTD SVG 1.1//EN" "http://www.w3.org/Graphics/SVG/1.1/DTD/svg11.dtd">
<svg width="164mm" height="60mm" viewBox="-82 -30 164 60" xmlns="http://www.w3.org/2000/svg" version="1.1">
<title>OpenSCAD Model</title>
<path d="
M 77.9369,29.4114 L 78.5451,29.2553 L 79.1289,29.0241 L 79.6791,28.7216 L 80.1871,28.3526 L 80.6448,27.9227
 L 81.0451,27.4389 L 81.3815,26.9088 L 81.6489,26.3406 L 81.8429,25.7434 L 81.9606,25.1267 L 82,24.5
 L 82,-24.5 L 81.9606,-25.1267 L 81.8429,-25.7434 L 81.6489,-26.3406 L 81.3815,-26.9088 L 81.0451,-27.4389
 L 80.6448,-27.9227 L 80.1871,-28.3526 L 79.6791,-28.7216 L 79.1289,-29.0241 L 78.5451,-29.2553 L 77.9369,-29.4114
 L 77.3139,-29.4901 L -77.3139,-29.4901 L -77.9369,-29.4114 L -78.5451,-29.2553 L -79.1289,-29.0241 L -79.6791,-28.7216
 L -80.1871,-28.3526 L -80.6448,-27.9227 L -81.0451,-27.4389 L -81.3815,-26.9088 L -81.6489,-26.3406 L -81.8429,-25.7434
 L -81.9606,-25.1267 L -82,-24.5 L -82,24.5 L -81.9606,25.1267 L -81.8429,25.7434 L -81.6489,26.3406
 L -81.3815,26.9088 L -81.0451,27.4389 L -80.6448,27.9227 L -80.1871,28.3526 L -79.6791,28.7216 L -79.1289,29.0241
 L -78.5451,29.2553 L -77.9369,29.4114 L -77.3139,29.4901 L 77.3139,29.4901 z
M 59.8116,-19.5059 L 59.4379,-19.5531 L 59.0729,-19.6468 L 58.7227,-19.7855 L 58.3925,-19.967 L 58.0877,-20.1884
 L 57.8131,-20.4464 L 57.5729,-20.7366 L 57.3711,-21.0547 L 57.2107,-21.3956 L 57.0942,-21.7539 L 57.0237,-22.124
 L 57,-22.5 L 57.0237,-22.876 L 57.0942,-23.2461 L 57.2107,-23.6044 L 57.3711,-23.9453 L 57.5729,-24.2634
 L 57.8131,-24.5536 L 58.0877,-24.8115 L 58.3925,-25.033 L 58.7227,-25.2145 L 59.0729,-25.3532 L 59.4379,-25.4469
 L 59.8116,-25.4941 L 60.1884,-25.4941 L 60.5621,-25.4469 L 60.927,-25.3532 L 61.2773,-25.2145 L 61.6075,-25.033
 L 61.9123,-24.8115 L 62.1869,-24.5536 L 62.427,-24.2634 L 62.6289,-23.9453 L 62.7893,-23.6044 L 62.9057,-23.2461
 L 62.9763,-22.876 L 63,-22.5 L 62.9763,-22.124 L 62.9057,-21.7539 L 62.7893,-21.3956 L 62.6289,-21.0547
 L 62.427,-20.7366 L 62.1869,-20.4464 L 61.9123,-20.1884 L 61.6075,-19.967 L 61.2773,-19.7855 L 60.927,-19.6468
 L 60.5621,-19.5531 L 60.1884,-19.5059 z
M 74.8116,-19.5059 L 74.4379,-19.5531 L 74.073,-19.6468 L 73.7227,-19.7855 L 73.3925,-19.967 L 73.0877,-20.1884
 L 72.8131,-20.4464 L 72.573,-20.7366 L 72.3711,-21.0547 L 72.2107,-21.3956 L 72.0943,-21.7539 L 72.0237,-22.124
 L 72,-22.5 L 72.0237,-22.876 L 72.0943,-23.2461 L 72.2107,-23.6044 L 72.3711,-23.9453 L 72.573,-24.2634
 L 72.8131,-24.5536 L 73.0877,-24.8115 L 73.3925,-25.033 L 73.7227,-25.2145 L 74.073,-25.3532 L 74.4379,-25.4469
 L 74.8116,-25.4941 L 75.1884,-25.4941 L 75.5621,-25.4469 L 75.927,-25.3532 L 76.2773,-25.2145 L 76.6075,-25.033
 L 76.9123,-24.8115 L 77.1869,-24.5536 L 77.427,-24.2634 L 77.6289,-23.9453 L 77.7893,-23.6044 L 77.9057,-23.2461
 L 77.9763,-22.876 L 78,-22.5 L 77.9763,-22.124 L 77.9057,-21.7539 L 77.7893,-21.3956 L 77.6289,-21.0547
 L 77.427,-20.7366 L 77.1869,-20.4464 L 76.9123,-20.1884 L 76.6075,-19.967 L 76.2773,-19.7855 L 75.927,-19.6468
 L 75.5621,-19.5531 L 75.1884,-19.5059 z
M -15.1884,-19.5059 L -15.5621,-19.5531 L -15.927,-19.6468 L -16.2773,-19.7855 L -16.6075,-19.967 L -16.9123,-20.1884
 L -17.1869,-20.4464 L -17.427,-20.7366 L -17.6289,-21.0547 L -17.7893,-21.3956 L -17.9057,-21.7539 L -17.9763,-22.124
 L -18,-22.5 L -17.9763,-22.876 L -17.9057,-23.2461 L -17.7893,-23.6044 L -17.6289,-23.9453 L -17.427,-24.2634
 L -17.1869,-24.5536 L -16.9123,-24.8115 L -16.6075,-25.033 L -16.2773,-25.2145 L -15.927,-25.3532 L -15.5621,-25.4469
 L -15.1884,-25.4941 L -14.8116,-25.4941 L -14.4379,-25.4469 L -14.0729,-25.3532 L -13.7227,-25.2145 L -13.3925,-25.033
 L -13.0877,-24.8115 L -12.8131,-24.5536 L -12.5729,-24.2634 L -12.3711,-23.9453 L -12.2107,-23.6044 L -12.0942,-23.2461
 L -12.0237,-22.876 L -12,-22.5 L -12.0237,-22.124 L -12.0942,-21.7539 L -12.2107,-21.3956 L -12.3711,-21.0547
 L -12.5729,-20.7366 L -12.8131,-20.4464 L -13.0877,-20.1884 L -13.3925,-19.967 L -13.7227,-19.7855 L -14.0729,-19.6468
 L -14.4379,-19.5531 L -14.8116,-19.5059 z
M -75.1884,-19.5059 L -75.5621,-19.5531 L -75.927,-19.6468 L -76.2773,-19.7855 L -76.6075,-19.967 L -76.9123,-20.1884
 L -77.1869,-20.4464 L -77.427,-20.7366 L -77.6289,-21.0547 L -77.7893,-21.3956 L -77.9057,-21.7539 L -77.9763,-22.124
 L -78,-22.5 L -77.9763,-22.876 L -77.9057,-23.2461 L -77.7893,-23.6044 L -77.6289,-23.9453 L -77.427,-24.2634
 L -77.1869,-24.5536 L -76.9123,-24.8115 L -76.6075,-25.033 L -76.2773,-25.2145 L -75.927,-25.3532 L -75.5621,-25.4469
 L -75.1884,-25.4941 L -74.8116,-25.4941 L -74.4379,-25.4469 L -74.073,-25.3532 L -73.7227,-25.2145 L -73.3925,-25.033
 L -73.0877,-24.8115 L -72.8131,-24.5536 L -72.573,-24.2634 L -72.3711,-23.9453 L -72.2107,-23.6044 L -72.0943,-23.2461
 L -72.0237,-22.876 L -72,-22.5 L -72.0237,-22.124 L -72.0943,-21.7539 L -72.2107,-21.3956 L -72.3711,-21.0547
 L -72.573,-20.7366 L -72.8131,-20.4464 L -73.0877,-20.1884 L -73.3925,-19.967 L -73.7227,-19.7855 L -74.073,-19.6468
 L -74.4379,-19.5531 L -74.8116,-19.5059 z
M -62.9057,-23.2461 L -62.7893,-23.6044 L -62.6289,-23.9453 L -62.427,-24.2634 L -62.1869,-24.5536 L -61.9123,-24.8115
 L -61.6075,-25.033 L -61.2773,-25.2145 L -60.927,-25.3532 L -60.5621,-25.4469 L -60.1884,-25.4941 L -59.8116,-25.4941
 L -59.4379,-25.4469 L -59.0729,-25.3532 L -58.7227,-25.2145 L -58.3925,-25.033 L -58.0877,-24.8115 L -57.8131,-24.5536
 L -57.5729,-24.2634 L -57.3711,-23.9453 L -57.2107,-23.6044 L -57.0942,-23.2461 L -57.0237,-22.876 L -57,-22.5
 L -57.0237,-22.124 L -57.0942,-21.7539 L -57.2107,-21.3956 L -57.3711,-21.0547 L -57.5729,-20.7366 L -57.8131,-20.4464
 L -58.0877,-20.1884 L -58.3925,-19.967 L -58.7227,-19.7855 L -59.0729,-19.6468 L -59.4379,-19.5531 L -59.8116,-19.5059
 L -60.1884,-19.5059 L -60.5621,-19.5531 L -60.927,-19.6468 L -61.2773,-19.7855 L -61.6075,-19.967 L -61.9123,-20.1884
 L -62.1869,-20.4464 L -62.427,-20.7366 L -62.6289,-21.0547 L -62.7893,-21.3956 L -62.9057,-21.7539 L -62.9763,-22.124
 L -63,-22.5 L -62.9763,-22.876 z
M -30.1884,-19.5059 L -30.5621,-19.5531 L -30.927,-19.6468 L -31.2773,-19.7855 L -31.6075,-19.967 L -31.9123,-20.1884
 L -32.1869,-20.4464 L -32.427,-20.7366 L -32.6289,-21.0547 L -32.7893,-21.3956 L -32.9057,-21.7539 L -32.9763,-22.124
 L -33,-22.5 L -32.9763,-22.876 L -32.9057,-23.2461 L -32.7893,-23.6044 L -32.6289,-23.9453 L -32.427,-24.2634
 L -32.1869,-24.5536 L -31.9123,-24.8115 L -31.6075,-25.033 L -31.2773,-25.2145 L -30.927,-25.3532 L -30.5621,-25.4469
 L -30.1884,-25.4941 L -29.8116,-25.4941 L -29.4379,-25.4469 L -29.0729,-25.3532 L -28.7227,-25.2145 L -28.3925,-25.033
 L -28.0877,-24.8115 L -27.8131,-24.5536 L -27.5729,-24.2634 L -27.3711,-23.9453 L -27.2107,-23.6044 L -27.0942,-23.2461
 L -27.0237,-22.876 L -27,-22.5 L -27.0237,-22.124 L -27.0942,-21.7539 L -27.2107,-21.3956 L -27.3711,-21.0547
 L -27.5729,-20.7366 L -27.8131,-20.4464 L -28.0877,-20.1884 L -28.3925,-19.967 L -28.7227,-19.7855 L -29.0729,-19.6468
 L -29.4379,-19.5531 L -29.8116,-19.5059 z
M -45.1884,-19.5059 L -45.5621,-19.5531 L -45.927,-19.6468 L -46.2773,-19.7855 L -46.6075,-19.967 L -46.9123,-20.1884
 L -47.1869,-20.4464 L -47.427,-20.7366 L -47.6289,-21.0547 L -47.7893,-21.3956 L -47.9057,-21.7539 L -47.9763,-22.124
 L -48,-22.5 L -47.9763,-22.876 L -47.9057,-23.2461 L -47.7893,-23.6044 L -47.6289,-23.9453 L -47.427,-24.2634
 L -47.1869,-24.5536 L -46.9123,-24.8115 L -46.6075,-25.033 L -46.2773,-25.2145 L -45.927,-25.3532 L -45.5621,-25.4469
 L -45.1884,-25.4941 L -44.8116,-25.4941 L -44.4379,-25.4469 L -44.0729,-25.3532 L -43.7227,-25.2145 L -43.3925,-25.033
 L -43.0877,-24.8115 L -42.8131,-24.5536 L -42.5729,-24.2634 L -42.3711,-23.9453 L -42.2107,-23.6044 L -42.0942,-23.2461
 L -42.0237,-22.876 L -42,-22.5 L -42.0237,-22.124 L -42.0942,-21.7539 L -42.2107,-21.3956 L -42.3711,-21.0547
 L -42.5729,-20.7366 L -42.8131,-20.4464 L -43.0877,-20.1884 L -43.3925,-19.967 L -43.7227,-19.7855 L -44.0729,-19.6468
 L -44.4379,-19.5531 L -44.8116,-19.5059 z
M 44.8116,-19.5059 L 44.4379,-19.5531 L 44.0729,-19.6468 L 43.7227,-19.7855 L 43.3925,-19.967 L 43.0877,-20.1884
 L 42.8131,-20.4464 L 42.5729,-20.7366 L 42.3711,-21.0547 L 42.2107,-21.3956 L 42.0942,-21.7539 L 42.0237,-22.124
 L 42,-22.5 L 42.0237,-22.876 L 42.0942,-23.2461 L 42.2107,-23.6044 L 42.3711,-23.9453 L 42.5729,-24.2634
 L 42.8131,-24.5536 L 43.0877,-24.8115 L 43.3925,-25.033 L 43.7227,-25.2145 L 44.0729,-25.3532 L 44.4379,-25.4469
 L 44.8116,-25.4941 L 45.1884,-25.4941 L 45.5621,-25.4469 L 45.927,-25.3532 L 46.2773,-25.2145 L 46.6075,-25.033
 L 46.9123,-24.8115 L 47.1869,-24.5536 L 47.427,-24.2634 L 47.6289,-23.9453 L 47.7893,-23.6044 L 47.9057,-23.2461
 L 47.9763,-22.876 L 48,-22.5 L 47.9763,-22.124 L 47.9057,-21.7539 L 47.7893,-21.3956 L 47.6289,-21.0547
 L 47.427,-20.7366 L 47.1869,-20.4464 L 46.9123,-20.1884 L 46.6075,-19.967 L 46.2773,-19.7855 L 45.927,-19.6468
 L 45.5621,-19.5531 L 45.1884,-19.5059 z
M 14.8116,-19.5059 L 14.4379,-19.5531 L 14.0729,-19.6468 L 13.7227,-19.7855 L 13.3925,-19.967 L 13.0877,-20.1884
 L 12.8131,-20.4464 L 12.5729,-20.7366 L 12.3711,-21.0547 L 12.2107,-21.3956 L 12.0942,-21.7539 L 12.0237,-22.124
 L 12,-22.5 L 12.0237,-22.876 L 12.0942,-23.2461 L 12.2107,-23.6044 L 12.3711,-23.9453 L 12.5729,-24.2634
 L 12.8131,-24.5536 L 13.0877,-24.8115 L 13.3925,-25.033 L 13.7227,-25.2145 L 14.0729,-25.3532 L 14.4379,-25.4469
 L 14.8116,-25.4941 L 15.1884,-25.4941 L 15.5621,-25.4469 L 15.927,-25.3532 L 16.2773,-25.2145 L 16.6075,-25.033
 L 16.9123,-24.8115 L 17.1869,-24.5536 L 17.427,-24.2634 L 17.6289,-23.9453 L 17.7893,-23.6044 L 17.9057,-23.2461
 L 17.9763,-22.876 L 18,-22.5 L 17.9763,-22.124 L 17.9057,-21.7539 L 17.7893,-21.3956 L 17.6289,-21.0547
 L 17.427,-20.7366 L 17.1869,-20.4464 L 16.9123,-20.1884 L 16.6075,-19.967 L 16.2773,-19.7855 L 15.927,-19.6468
 L 15.5621,-19.5531 L 15.1884,-19.5059 z
M 29.8116,-19.5059 L 29.4379,-19.5531 L 29.0729,-19.6468 L 28.7227,-19.7855 L 28.3925,-19.967 L 28.0877,-20.1884
 L 27.8131,-20.4464 L 27.5729,-20.7366 L 27.3711,-21.0547 L 27.2107,-21.3956 L 27.0942,-21.7539 L 27.0237,-22.124
 L 27,-22.5 L 27.0237,-22.876 L 27.0942,-23.2461 L 27.2107,-23.6044 L 27.3711,-23.9453 L 27.5729,-24.2634
 L 27.8131,-24.5536 L 28.0877,-24.8115 L 28.3925,-25.033 L 28.7227,-25.2145 L 29.0729,-25.3532 L 29.4379,-25.4469
 L 29.8116,-25.4941 L 30.1884,-25.4941 L 30.5621,-25.4469 L 30.927,-25.3532 L 31.2773,-25.2145 L 31.6075,-25.033
 L 31.9123,-24.8115 L 32.1869,-24.5536 L 32.427,-24.2634 L 32.6289,-23.9453 L 32.7893,-23.6044 L 32.9057,-23.2461
 L 32.9763,-22.876 L 33,-22.5 L 32.9763,-22.124 L 32.9057,-21.7539 L 32.7893,-21.3956 L 32.6289,-21.0547
 L 32.427,-20.7366 L 32.1869,-20.4464 L 31.9123,-20.1884 L 31.6075,-19.967 L 31.2773,-19.7855 L 30.927,-19.6468
 L 30.5621,-19.5531 L 30.1884,-19.5059 z
M -0.18837,-19.5059 L -0.562134,-19.5531 L -0.927048,-19.6468 L -1.27733,-19.7855 L -1.60747,-19.967 L -1.91226,-20.1884
 L -2.1869,-20.4464 L -2.42705,-20.7366 L -2.62891,-21.0547 L -2.78932,-21.3956 L -2.90575,-21.7539 L -2.97633,-22.124
 L -3,-22.5 L -2.97633,-22.876 L -2.90575,-23.2461 L -2.78932,-23.6044 L -2.62891,-23.9453 L -2.42705,-24.2634
 L -2.1869,-24.5536 L -1.91226,-24.8115 L -1.60747,-25.033 L -1.27733,-25.2145 L -0.927048,-25.3532 L -0.562134,-25.4469
 L -0.18837,-25.4941 L 0.18837,-25.4941 L 0.562134,-25.4469 L 0.927048,-25.3532 L 1.27733,-25.2145 L 1.60747,-25.033
 L 1.91226,-24.8115 L 2.1869,-24.5536 L 2.42705,-24.2634 L 2.62891,-23.9453 L 2.78932,-23.6044 L 2.90575,-23.2461
 L 2.97633,-22.876 L 3,-22.5 L 2.97633,-22.124 L 2.90575,-21.7539 L 2.78932,-21.3956 L 2.62891,-21.0547
 L 2.42705,-20.7366 L 2.1869,-20.4464 L 1.91226,-20.1884 L 1.60747,-19.967 L 1.27733,-19.7855 L 0.927048,-19.6468
 L 0.562134,-19.5531 L 0.18837,-19.5059 z
M -52.5942,-21.003 L -52.7811,-21.0266 L -52.9635,-21.0734 L -53.1387,-21.1427 L -53.3037,-21.2335 L -53.4561,-21.3442
 L -53.5934,-21.4732 L -53.7135,-21.6183 L -53.8145,-21.7774 L -53.8947,-21.9478 L -53.9529,-22.127 L -53.9882,-22.312
 L -54,-22.5 L -53.9882,-22.688 L -53.9529,-22.873 L -53.8947,-23.0522 L -53.8145,-23.2226 L -53.7135,-23.3817
 L -53.5934,-23.5268 L -53.4561,-23.6558 L -53.3037,-23.7665 L -53.1387,-23.8572 L -52.9635,-23.9266 L -52.7811,-23.9734
 L -52.5942,-23.997 L -52.4058,-23.997 L -52.2189,-23.9734 L -52.0365,-23.9266 L -51.8613,-23.8572 L -51.6963,-23.7665
 L -51.5439,-23.6558 L -51.4065,-23.5268 L -51.2865,-23.3817 L -51.1855,-23.2226 L -51.1053,-23.0522 L -51.0471,-22.873
 L -51.0118,-22.688 L -51,-22.5 L -51.0118,-22.312 L -51.0471,-22.127 L -51.1053,-21.9478 L -51.1855,-21.7774
 L -51.2865,-21.6183 L -51.4065,-21.4732 L -51.5439,-21.3442 L -51.6963,-21.2335 L -51.8613,-21.1427 L -52.0365,-21.0734
 L -52.2189,-21.0266 L -52.4058,-21.003 z
M -22.5942,-21.003 L -22.7811,-21.0266 L -22.9635,-21.0734 L -23.1387,-21.1427 L -23.3037,-21.2335 L -23.4561,-21.3442
 L -23.5934,-21.4732 L -23.7135,-21.6183 L -23.8145,-21.7774 L -23.8947,-21.9478 L -23.9529,-22.127 L -23.9882,-22.312
 L -24,-22.5 L -23.9882,-22.688 L -23.9529,-22.873 L -23.8947,-23.0522 L -23.8145,-23.2226 L -23.7135,-23.3817
 L -23.5934,-23.5268 L -23.4561,-23.6558 L -23.3037,-23.7665 L -23.1387,-23.8572 L -22.9635,-23.9266 L -22.7811,-23.9734
 L -22.5942,-23.997 L -22.4058,-23.997 L -22.2189,-23.9734 L -22.0365,-23.9266 L -21.8613,-23.8572 L -21.6963,-23.7665
 L -21.5439,-23.6558 L -21.4065,-23.5268 L -21.2865,-23.3817 L -21.1855,-23.2226 L -21.1053,-23.0522 L -21.0471,-22.873
 L -21.0118,-22.688 L -21,-22.5 L -21.0118,-22.312 L -21.0471,-22.127 L -21.1053,-21.9478 L -21.1855,-21.7774
 L -21.2865,-21.6183 L -21.4065,-21.4732 L -21.5439,-21.3442 L -21.6963,-21.2335 L -21.8613,-21.1427 L -22.0365,-21.0734
 L -22.2189,-21.0266 L -22.4058,-21.003 z
M -37.5942,-21.003 L -37.7811,-21.0266 L -37.9635,-21.0734 L -38.1387,-21.1427 L -38.3037,-21.2335 L -38.4561,-21.3442
 L -38.5934,-21.4732 L -38.7135,-21.6183 L -38.8145,-21.7774 L -38.8947,-21.9478 L -38.9529,-22.127 L -38.9882,-22.312
 L -39,-22.5 L -38.9882,-22.688 L -38.9529,-22.873 L -38.8947,-23.0522 L -38.8145,-23.2226 L -38.7135,-23.3817
 L -38.5934,-23.5268 L -38.4561,-23.6558 L -38.3037,-23.7665 L -38.1387,-23.8572 L -37.9635,-23.9266 L -37.7811,-23.9734
 L -37.5942,-23.997 L -37.4058,-23.997 L -37.2189,-23.9734 L -37.0365,-23.9266 L -36.8613,-23.8572 L -36.6963,-23.7665
 L -36.5439,-23.6558 L -36.4065,-23.5268 L -36.2865,-23.3817 L -36.1855,-23.2226 L -36.1053,-23.0522 L -36.0471,-22.873
 L -36.0118,-22.688 L -36,-22.5 L -36.0118,-22.312 L -36.0471,-22.127 L -36.1053,-21.9478 L -36.1855,-21.7774
 L -36.2865,-21.6183 L -36.4065,-21.4732 L -36.5439,-21.3442 L -36.6963,-21.2335 L -36.8613,-21.1427 L -37.0365,-21.0734
 L -37.2189,-21.0266 L -37.4058,-21.003 z
M -7.59418,-21.003 L -7.78107,-21.0266 L -7.96352,-21.0734 L -8.13866,-21.1427 L -8.30373,-21.2335 L -8.45613,-21.3442
 L -8.59344,-21.4732 L -8.71352,-21.6183 L -8.81445,-21.7774 L -8.89465,-21.9478 L -8.95287,-22.127 L -8.98816,-22.312
 L -9,-22.5 L -8.98816,-22.688 L -8.95287,-22.873 L -8.89465,-23.0522 L -8.81445,-23.2226 L -8.71352,-23.3817
 L -8.59344,-23.5268 L -8.45613,-23.6558 L -8.30373,-23.7665 L -8.13866,-23.8572 L -7.96352,-23.9266 L -7.78107,-23.9734
 L -7.59418,-23.997 L -7.40581,-23.997 L -7.21892,-23.9734 L -7.03647,-23.9266 L -6.86133,-23.8572 L -6.69626,-23.7665
 L -6.54385,-23.6558 L -6.40654,-23.5268 L -6.28647,-23.3817 L -6.18553,-23.2226 L -6.10533,-23.0522 L -6.04712,-22.873
 L -6.01183,-22.688 L -6,-22.5 L -6.01183,-22.312 L -6.04712,-22.127 L -6.10533,-21.9478 L -6.18553,-21.7774
 L -6.28647,-21.6183 L -6.40654,-21.4732 L -6.54385,-21.3442 L -6.69626,-21.2335 L -6.86133,-21.1427 L -7.03647,-21.0734
 L -7.21892,-21.0266 L -7.40581,-21.003 z
M 22.4058,-21.003 L 22.2189,-21.0266 L 22.0365,-21.0734 L 21.8613,-21.1427 L 21.6963,-21.2335 L 21.5439,-21.3442
 L 21.4065,-21.4732 L 21.2865,-21.6183 L 21.1855,-21.7774 L 21.1053,-21.9478 L 21.0471,-22.127 L 21.0118,-22.312
 L 21,-22.5 L 21.0118,-22.688 L 21.0471,-22.873 L 21.1053,-23.0522 L 21.1855,-23.2226 L 21.2865,-23.3817
 L 21.4065,-23.5268 L 21.5439,-23.6558 L 21.6963,-23.7665 L 21.8613,-23.8572 L 22.0365,-23.9266 L 22.2189,-23.9734
 L 22.4058,-23.997 L 22.5942,-23.997 L 22.7811,-23.9734 L 22.9635,-23.9266 L 23.1387,-23.8572 L 23.3037,-23.7665
 L 23.4561,-23.6558 L 23.5934,-23.5268 L 23.7135,-23.3817 L 23.8145,-23.2226 L 23.8947,-23.0522 L 23.9529,-22.873
 L 23.9882,-22.688 L 24,-22.5 L 23.9882,-22.312 L 23.9529,-22.127 L 23.8947,-21.9478 L 23.8145,-21.7774
 L 23.7135,-21.6183 L 23.5934,-21.4732 L 23.4561,-21.3442 L 23.3037,-21.2335 L 23.1387,-21.1427 L 22.9635,-21.0734
 L 22.7811,-21.0266 L 22.5942,-21.003 z
M 37.4058,-21.003 L 37.2189,-21.0266 L 37.0365,-21.0734 L 36.8613,-21.1427 L 36.6963,-21.2335 L 36.5439,-21.3442
 L 36.4065,-21.4732 L 36.2865,-21.6183 L 36.1855,-21.7774 L 36.1053,-21.9478 L 36.0471,-22.127 L 36.0118,-22.312
 L 36,-22.5 L 36.0118,-22.688 L 36.0471,-22.873 L 36.1053,-23.0522 L 36.1855,-23.2226 L 36.2865,-23.3817
 L 36.4065,-23.5268 L 36.5439,-23.6558 L 36.6963,-23.7665 L 36.8613,-23.8572 L 37.0365,-23.9266 L 37.2189,-23.9734
 L 37.4058,-23.997 L 37.5942,-23.997 L 37.7811,-23.9734 L 37.9635,-23.9266 L 38.1387,-23.8572 L 38.3037,-23.7665
 L 38.4561,-23.6558 L 38.5934,-23.5268 L 38.7135,-23.3817 L 38.8145,-23.2226 L 38.8947,-23.0522 L 38.9529,-22.873
 L 38.9882,-22.688 L 39,-22.5 L 38.9882,-22.312 L 38.9529,-22.127 L 38.8947,-21.9478 L 38.8145,-21.7774
 L 38.7135,-21.6183 L 38.5934,-21.4732 L 38.4561,-21.3442 L 38.3037,-21.2335 L 38.1387,-21.1427 L 37.9635,-21.0734
 L 37.7811,-21.0266 L 37.5942,-21.003 z
M 7.40581,-21.003 L 7.21892,-21.0266 L 7.03647,-21.0734 L 6.86133,-21.1427 L 6.69626,-21.2335 L 6.54385,-21.3442
 L 6.40654,-21.4732 L 6.28647,-21.6183 L 6.18553,-21.7774 L 6.10533,-21.9478 L 6.04712,-22.127 L 6.01183,-22.312
 L 6,-22.5 L 6.01183,-22.688 L 6.04712,-22.873 L 6.10533,-23.0522 L 6.18553,-23.2226 L 6.28647,-23.3817
 L 6.40654,-23.5268 L 6.54385,-23.6558 L 6.69626,-23.7665 L 6.86133,-23.8572 L 7.03647,-23.9266 L 7.21892,-23.9734
 L 7.40581,-23.997 L 7.59418,-23.997 L 7.78107,-23.9734 L 7.96352,-23.9266 L 8.13866,-23.8572 L 8.30373,-23.7665
 L 8.45613,-23.6558 L 8.59344,-23.5268 L 8.71352,-23.3817 L 8.81445,-23.2226 L 8.89465,-23.0522 L 8.95287,-22.873
 L 8.98816,-22.688 L 9,-22.5 L 8.98816,-22.312 L 8.95287,-22.127 L 8.89465,-21.9478 L 8.81445,-21.7774
 L 8.71352,-21.6183 L 8.59344,-21.4732 L 8.45613,-21.3442 L 8.30373,-21.2335 L 8.13866,-21.1427 L 7.96352,-21.0734
 L 7.78107,-21.0266 L 7.59418,-21.003 z
M 67.4058,-21.003 L 67.2189,-21.0266 L 67.0365,-21.0734 L 66.8613,-21.1427 L 66.6963,-21.2335 L 66.5439,-21.3442
 L 66.4065,-21.4732 L 66.2865,-21.6183 L 66.1855,-21.7774 L 66.1053,-21.9478 L 66.0471,-22.127 L 66.0118,-22.312
 L 66,-22.5 L 66.0118,-22.688 L 66.0471,-22.873 L 66.1053,-23.0522 L 66.1855,-23.2226 L 66.2865,-23.3817
 L 66.4065,-23.5268 L 66.5439,-23.6558 L 66.6963,-23.7665 L 66.8613,-23.8572 L 67.0365,-23.9266 L 67.2189,-23.9734
 L 67.4058,-23.997 L 67.5942,-23.997 L 67.7811,-23.9734 L 67.9635,-23.9266 L 68.1387,-23.8572 L 68.3037,-23.7665
 L 68.4561,-23.6558 L 68.5934,-23.5268 L 68.7135,-23.3817 L 68.8145,-23.2226 L 68.8947,-23.0522 L 68.9529,-22.873
 L 68.9882,-22.688 L 69,-22.5 L 68.9882,-22.312 L 68.9529,-22.127 L 68.8947,-21.9478 L 68.8145,-21.7774
 L 68.7135,-21.6183 L 68.5934,-21.4732 L 68.4561,-21.3442 L 68.3037,-21.2335 L 68.1387,-21.1427 L 67.9635,-21.0734
 L 67.7811,-21.0266 L 67.5942,-21.003 z
M 52.4058,-21.003 L 52.2189,-21.0266 L 52.0365,-21.0734 L 51.8613,-21.1427 L 51.6963,-21.2335 L 51.5439,-21.3442
 L 51.4065,-21.4732 L 51.2865,-21.6183 L 51.1855,-21.7774 L 51.1053,-21.9478 L 51.0471,-22.127 L 51.0118,-22.312
 L 51,-22.5 L 51.0118,-22.688 L 51.0471,-22.873 L 51.1053,-23.0522 L 51.1855,-23.2226 L 51.2865,-23.3817
 L 51.4065,-23.5268 L 51.5439,-23.6558 L 51.6963,-23.7665 L 51.8613,-23.8572 L 52.0365,-23.9266 L 52.2189,-23.9734
 L 52.4058,-23.997 L 52.5942,-23.997 L 52.7811,-23.9734 L 52.9635,-23.9266 L 53.1387,-23.8572 L 53.3037,-23.7665
 L 53.4561,-23.6558 L 53.5934,-23.5268 L 53.7135,-23.3817 L 53.8145,-23.2226 L 53.8947,-23.0522 L 53.9529,-22.873
 L 53.9882,-22.688 L 54,-22.5 L 53.9882,-22.312 L 53.9529,-22.127 L 53.8947,-21.9478 L 53.8145,-21.7774
 L 53.7135,-21.6183 L 53.5934,-21.4732 L 53.4561,-21.3442 L 53.3037,-21.2335 L 53.1387,-21.1427 L 52.9635,-21.0734
 L 52.7811,-21.0266 L 52.5942,-21.003 z
M 74.9058,-13.5029 L 74.7189,-13.5266 L 74.5365,-13.5734 L 74.3613,-13.6427 L 74.1963,-13.7335 L 74.0439,-13.8442
 L 73.9065,-13.9732 L 73.7865,-14.1183 L 73.6855,-14.2774 L 73.6053,-14.4478 L 73.5471,-14.627 L 73.5118,-14.812
 L 73.5,-15 L 73.5118,-15.188 L 73.5471,-15.373 L 73.6053,-15.5522 L 73.6855,-15.7226 L 73.7865,-15.8817
 L 73.9065,-16.0268 L 74.0439,-16.1558 L 74.1963,-16.2665 L 74.3613,-16.3572 L 74.5365,-16.4266 L 74.7189,-16.4734
 L 74.9058,-16.497 L 75.0942,-16.497 L 75.2811,-16.4734 L 75.4635,-16.4266 L 75.6387,-16.3572 L 75.8037,-16.2665
 L 75.9561,-16.1558 L 76.0934,-16.0268 L 76.2135,-15.8817 L 76.3145,-15.7226 L 76.3947,-15.5522 L 76.4529,-15.373
 L 76.4882,-15.188 L 76.5,-15 L 76.4882,-14.812 L 76.4529,-14.627 L 76.3947,-14.4478 L 76.3145,-14.2774
 L 76.2135,-14.1183 L 76.0934,-13.9732 L 75.9561,-13.8442 L 75.8037,-13.7335 L 75.6387,-13.6427 L 75.4635,-13.5734
 L 75.2811,-13.5266 L 75.0942,-13.5029 z
M -75.0942,-13.5029 L -75.2811,-13.5266 L -75.4635,-13.5734 L -75.6387,-13.6427 L -75.8037,-13.7335 L -75.9561,-13.8442
 L -76.0934,-13.9732 L -76.2135,-14.1183 L -76.3145,-14.2774 L -76.3947,-14.4478 L -76.4529,-14.627 L -76.4882,-14.812
 L -76.5,-15 L -76.4882,-15.188 L -76.4529,-15.373 L -76.3947,-15.5522 L -76.3145,-15.7226 L -76.2135,-15.8817
 L -76.0934,-16.0268 L -75.9561,-16.1558 L -75.8037,-16.2665 L -75.6387,-16.3572 L -75.4635,-16.4266 L -75.2811,-16.4734
 L -75.0942,-16.497 L -74.9058,-16.497 L -74.7189,-16.4734 L -74.5365,-16.4266 L -74.3613,-16.3572 L -74.1963,-16.2665
 L -74.0439,-16.1558 L -73.9065,-16.0268 L -73.7865,-15.8817 L -73.6855,-15.7226 L -73.6053,-15.5522 L -73.5471,-15.373
 L -73.5118,-15.188 L -73.5,-15 L -73.5118,-14.812 L -73.5471,-14.627 L -73.6053,-14.4478 L -73.6855,-14.2774
 L -73.7865,-14.1183 L -73.9065,-13.9732 L -74.0439,-13.8442 L -74.1963,-13.7335 L -74.3613,-13.6427 L -74.5365,-13.5734
 L -74.7189,-13.5266 L -74.9058,-13.5029 z
M 2.5,-0 L 2.61433,-1.81732 L 2.95554,-3.606 L 3.51823,-5.3378 L 4.29355,-6.98543 L 5.26924,-8.52287
 L 6.42995,-9.92592 L 7.75734,-11.1724 L 9.2305,-12.2428 L 10.8262,-13.12 L 12.5192,-13.7903 L 14.283,-14.2432
 L 16.0895,-14.4714 L 17.9105,-14.4714 L 19.717,-14.2432 L 21.4807,-13.7903 L 23.1738,-13.12 L 24.7695,-12.2428
 L 26.2426,-11.1724 L 27.57,-9.92592 L 28.7307,-8.52287 L 29.7064,-6.98543 L 30.4818,-5.3378 L 31.0444,-3.606
 L 31.3857,-1.81732 L 31.5,-0 L 31.3857,1.81732 L 31.0444,3.606 L 30.4818,5.3378 L 29.7064,6.98543
 L 28.7307,8.52287 L 27.57,9.92592 L 26.2426,11.1724 L 24.7695,12.2428 L 23.1738,13.12 L 21.4807,13.7903
 L 19.717,14.2432 L 17.9105,14.4714 L 16.0895,14.4714 L 14.283,14.2432 L 12.5192,13.7903 L 10.8262,13.12
 L 9.2305,12.2428 L 7.75734,11.1724 L 6.42995,9.92592 L 5.26924,8.52287 L 4.29355,6.98543 L 3.51823,5.3378
 L 2.95554,3.606 L 2.61433,1.81732 z
M -51.9105,14.4714 L -53.717,14.2432 L -55.4807,13.7903 L -57.1738,13.12 L -58.7695,12.2428 L -60.2426,11.1724
 L -61.57,9.92592 L -62.7307,8.52287 L -63.7064,6.98543 L -64.4818,5.3378 L -65.0444,3.606 L -65.3857,1.81732
 L -65.5,-0 L -65.3857,-1.81732 L -65.0444,-3.606 L -64.4818,-5.3378 L -63.7064,-6.98543 L -62.7307,-8.52287
 L -61.57,-9.92592 L -60.2426,-11.1724 L -58.7695,-12.2428 L -57.1738,-13.12 L -55.4807,-13.7903 L -53.717,-14.2432
 L -51.9105,-14.4714 L -50.0895,-14.4714 L -48.283,-14.2432 L -46.5192,-13.7903 L -44.8262,-13.12 L -43.2305,-12.2428
 L -41.7573,-11.1724 L -40.4299,-9.92592 L -39.2692,-8.52287 L -38.2935,-6.98543 L -37.5182,-5.3378 L -36.9555,-3.606
 L -36.6143,-1.81732 L -36.5,-0 L -36.6143,1.81732 L -36.9555,3.606 L -37.5182,5.3378 L -38.2935,6.98543
 L -39.2692,8.52287 L -40.4299,9.92592 L -41.7573,11.1724 L -43.2305,12.2428 L -44.8262,13.12 L -46.5192,13.7903
 L -48.283,14.2432 L -50.0895,14.4714 z
M 50.0895,14.4714 L 48.283,14.2432 L 46.5192,13.7903 L 44.8262,13.12 L 43.2305,12.2428 L 41.7573,11.1724
 L 40.4299,9.92592 L 39.2692,8.52287 L 38.2935,6.98543 L 37.5182,5.3378 L 36.9555,3.606 L 36.6143,1.81732
 L 36.5,-0 L 36.6143,-1.81732 L 36.9555,-3.606 L 37.5182,-5.3378 L 38.2935,-6.98543 L 39.2692,-8.52287
 L 40.4299,-9.92592 L 41.7573,-11.1724 L 43.2305,-12.2428 L 44.8262,-13.12 L 46.5192,-13.7903 L 48.283,-14.2432
 L 50.0895,-14.4714 L 51.9105,-14.4714 L 53.717,-14.2432 L 55.4807,-13.7903 L 57.1738,-13.12 L 58.7695,-12.2428
 L 60.2426,-11.1724 L 61.57,-9.92592 L 62.7307,-8.52287 L 63.7064,-6.98543 L 64.4818,-5.3378 L 65.0444,-3.606
 L 65.3857,-1.81732 L 65.5,-0 L 65.3857,1.81732 L 65.0444,3.606 L 64.4818,5.3378 L 63.7064,6.98543
 L 62.7307,8.52287 L 61.57,9.92592 L 60.2426,11.1724 L 58.7695,12.2428 L 57.1738,13.12 L 55.4807,13.7903
 L 53.717,14.2432 L 51.9105,14.4714 z
M -75.1884,-4.50591 L -75.5621,-4.55313 L -75.927,-4.64682 L -76.2773,-4.78551 L -76.6075,-4.96701 L -76.9123,-5.18845
 L -77.1869,-5.44635 L -77.427,-5.73663 L -77.6289,-6.05473 L -77.7893,-6.39561 L -77.9057,-6.75392 L -77.9763,-7.12399
 L -78,-7.5 L -77.9763,-7.87599 L -77.9057,-8.24606 L -77.7893,-8.60437 L -77.6289,-8.94525 L -77.427,-9.26335
 L -77.1869,-9.55363 L -76.9123,-9.81154 L -76.6075,-10.033 L -76.2773,-10.2145 L -75.927,-10.3532 L -75.5621,-10.4469
 L -75.1884,-10.4941 L -74.8116,-10.4941 L -74.4379,-10.4469 L -74.073,-10.3532 L -73.7227,-10.2145 L -73.3925,-10.033
 L -73.0877,-9.81154 L -72.8131,-9.55363 L -72.573,-9.26335 L -72.3711,-8.94525 L -72.2107,-8.60437 L -72.0943,-8.24606
 L -72.0237,-7.87599 L -72,-7.5 L -72.0237,-7.12399 L -72.0943,-6.75392 L -72.2107,-6.39561 L -72.3711,-6.05473
 L -72.573,-5.73663 L -72.8131,-5.44635 L -73.0877,-5.18845 L -73.3925,-4.96701 L -73.7227,-4.78551 L -74.073,-4.64682
 L -74.4379,-4.55313 L -74.8116,-4.50591 z
M 74.8116,-4.50591 L 74.4379,-4.55313 L 74.073,-4.64682 L 73.7227,-4.78551 L 73.3925,-4.96701 L 73.0877,-5.18845
 L 72.8131,-5.44635 L 72.573,-5.73663 L 72.3711,-6.05473 L 72.2107,-6.39561 L 72.0943,-6.75392 L 72.0237,-7.12399
 L 72,-7.5 L 72.0237,-7.87599 L 72.0943,-8.24606 L 72.2107,-8.60437 L 72.3711,-8.94525 L 72.573,-9.26335
 L 72.8131,-9.55363 L 73.0877,-9.81154 L 73.3925,-10.033 L 73.7227,-10.2145 L 74.073,-10.3532 L 74.4379,-10.4469
 L 74.8116,-10.4941 L 75.1884,-10.4941 L 75.5621,-10.4469 L 75.927,-10.3532 L 76.2773,-10.2145 L 76.6075,-10.033
 L 76.9123,-9.81154 L 77.1869,-9.55363 L 77.427,-9.26335 L 77.6289,-8.94525 L 77.7893,-8.60437 L 77.9057,-8.24606
 L 77.9763,-7.87599 L 78,-7.5 L 77.9763,-7.12399 L 77.9057,-6.75392 L 77.7893,-6.39561 L 77.6289,-6.05473
 L 77.427,-5.73663 L 77.1869,-5.44635 L 76.9123,-5.18845 L 76.6075,-4.96701 L 76.2773,-4.78551 L 75.927,-4.64682
 L 75.5621,-4.55313 L 75.1884,-4.50591 z
M -75.0942,1.49704 L -75.2811,1.47342 L -75.4635,1.42657 L -75.6387,1.35724 L -75.8037,1.26648 L -75.9561,1.15576
 L -76.0934,1.02681 L -76.2135,0.881668 L -76.3145,0.722626 L -76.3947,0.552185 L -76.4529,0.373032 L -76.4882,0.187988
 L -76.5,-0 L -76.4882,-0.187988 L -76.4529,-0.373032 L -76.3947,-0.552185 L -76.3145,-0.722626 L -76.2135,-0.881668
 L -76.0934,-1.02681 L -75.9561,-1.15576 L -75.8037,-1.26648 L -75.6387,-1.35724 L -75.4635,-1.42657 L -75.2811,-1.47342
 L -75.0942,-1.49704 L -74.9058,-1.49704 L -74.7189,-1.47342 L -74.5365,-1.42657 L -74.3613,-1.35724 L -74.1963,-1.26648
 L -74.0439,-1.15576 L -73.9065,-1.02681 L -73.7865,-0.881668 L -73.6855,-0.722626 L -73.6053,-0.552185 L -73.5471,-0.373032
 L -73.5118,-0.187988 L -73.5,-0 L -73.5118,0.187988 L -73.5471,0.373032 L -73.6053,0.552185 L -73.6855,0.722626
 L -73.7865,0.881668 L -73.9065,1.02681 L -74.0439,1.15576 L -74.1963,1.26648 L -74.3613,1.35724 L -74.5365,1.42657
 L -74.7189,1.47342 L -74.9058,1.49704 z
M 74.9058,1.49704 L 74.7189,1.47342 L 74.5365,1.42657 L 74.3613,1.35724 L 74.1963,1.26648 L 74.0439,1.15576
 L 73.9065,1.02681 L 73.7865,0.881668 L 73.6855,0.722626 L 73.6053,0.552185 L 73.5471,0.373032 L 73.5118,0.187988
 L 73.5,-0 L 73.5118,-0.187988 L 73.5471,-0.373032 L 73.6053,-0.552185 L 73.6855,-0.722626 L 73.7865,-0.881668
 L 73.9065,-1.02681 L 74.0439,-1.15576 L 74.1963,-1.26648 L 74.3613,-1.35724 L 74.5365,-1.42657 L 74.7189,-1.47342
 L 74.9058,-1.49704 L 75.0942,-1.49704 L 75.2811,-1.47342 L 75.4635,-1.42657 L 75.6387,-1.35724 L 75.8037,-1.26648
 L 75.9561,-1.15576 L 76.0934,-1.02681 L 76.2135,-0.881668 L 76.3145,-0.722626 L 76.3947,-0.552185 L 76.4529,-0.373032
 L 76.4882,-0.187988 L 76.5,-0 L 76.4882,0.187988 L 76.4529,0.373032 L 76.3947,0.552185 L 76.3145,0.722626
 L 76.2135,0.881668 L 76.0934,1.02681 L 75.9561,1.15576 L 75.8037,1.26648 L 75.6387,1.35724 L 75.4635,1.42657
 L 75.2811,1.47342 L 75.0942,1.49704 z
M -75.1884,10.4941 L -75.5621,10.4469 L -75.927,10.3532 L -76.2773,10.2145 L -76.6075,10.033 L -76.9123,9.81154
 L -77.1869,9.55363 L -77.427,9.26335 L -77.6289,8.94525 L -77.7893,8.60437 L -77.9057,8.24606 L -77.9763,7.87599
 L -78,7.5 L -77.9763,7.12399 L -77.9057,6.75392 L -77.7893,6.39561 L -77.6289,6.05473 L -77.427,5.73663
 L -77.1869,5.44635 L -76.9123,5.18845 L -76.6075,4.96701 L -76.2773,4.78551 L -75.927,4.64682 L -75.5621,4.55313
 L -75.1884,4.50591 L -74.8116,4.50591 L -74.4379,4.55313 L -74.073,4.64682 L -73.7227,4.78551 L -73.3925,4.96701
 L -73.0877,5.18845 L -72.8131,5.44635 L -72.573,5.73663 L -72.3711,6.05473 L -72.2107,6.39561 L -72.0943,6.75392
 L -72.0237,7.12399 L -72,7.5 L -72.0237,7.87599 L -72.0943,8.24606 L -72.2107,8.60437 L -72.3711,8.94525
 L -72.573,9.26335 L -72.8131,9.55363 L -73.0877,9.81154 L -73.3925,10.033 L -73.7227,10.2145 L -74.073,10.3532
 L -74.4379,10.4469 L -74.8116,10.4941 z
M 74.8116,10.4941 L 74.4379,10.4469 L 74.073,10.3532 L 73.7227,10.2145 L 73.3925,10.033 L 73.0877,9.81154
 L 72.8131,9.55363 L 72.573,9.26335 L 72.3711,8.94525 L 72.2107,8.60437 L 72.0943,8.24606 L 72.0237,7.87599
 L 72,7.5 L 72.0237,7.12399 L 72.0943,6.75392 L 72.2107,6.39561 L 72.3711,6.05473 L 72.573,5.73663
 L 72.8131,5.44635 L 73.0877,5.18845 L 73.3925,4.96701 L 73.7227,4.78551 L 74.073,4.64682 L 74.4379,4.55313
 L 74.8116,4.50591 L 75.1884,4.50591 L 75.5621,4.55313 L 75.927,4.64682 L 76.2773,4.78551 L 76.6075,4.96701
 L 76.9123,5.18845 L 77.1869,5.44635 L 77.427,5.73663 L 77.6289,6.05473 L 77.7893,6.39561 L 77.9057,6.75392
 L 77.9763,7.12399 L 78,7.5 L 77.9763,7.87599 L 77.9057,8.24606 L 77.7893,8.60437 L 77.6289,8.94525
 L 77.427,9.26335 L 77.1869,9.55363 L 76.9123,9.81154 L 76.6075,10.033 L 76.2773,10.2145 L 75.927,10.3532
 L 75.5621,10.4469 L 75.1884,10.4941 z
M 74.9058,16.497 L 74.7189,16.4734 L 74.5365,16.4266 L 74.3613,16.3572 L 74.1963,16.2665 L 74.0439,16.1558
 L 73.9065,16.0268 L 73.7865,15.8817 L 73.6855,15.7226 L 73.6053,15.5522 L 73.5471,15.373 L 73.5118,15.188
 L 73.5,15 L 73.5118,14.812 L 73.5471,14.627 L 73.6053,14.4478 L 73.6855,14.2774 L 73.7865,14.1183
 L 73.9065,13.9732 L 74.0439,13.8442 L 74.1963,13.7335 L 74.3613,13.6427 L 74.5365,13.5734 L 74.7189,13.5266
 L 74.9058,13.5029 L 75.0942,13.5029 L 75.2811,13.5266 L 75.4635,13.5734 L 75.6387,13.6427 L 75.8037,13.7335
 L 75.9561,13.8442 L 76.0934,13.9732 L 76.2135,14.1183 L 76.3145,14.2774 L 76.3947,14.4478 L 76.4529,14.627
 L 76.4882,14.812 L 76.5,15 L 76.4882,15.188 L 76.4529,15.373 L 76.3947,15.5522 L 76.3145,15.7226
 L 76.2135,15.8817 L 76.0934,16.0268 L 75.9561,16.1558 L 75.8037,16.2665 L 75.6387,16.3572 L 75.4635,16.4266
 L 75.2811,16.4734 L 75.0942,16.497 z
M -75.0942,16.497 L -75.2811,16.4734 L -75.4635,16.4266 L -75.6387,16.3572 L -75.8037,16.2665 L -75.9561,16.1558
 L -76.0934,16.0268 L -76.2135,15.8817 L -76.3145,15.7226 L -76.3947,15.5522 L -76.4529,15.373 L -76.4882,15.188
 L -76.5,15 L -76.4882,14.812 L -76.4529,14.627 L -76.3947,14.4478 L -76.3145,14.2774 L -76.2135,14.1183
 L -76.0934,13.9732 L -75.9561,13.8442 L -75.8037,13.7335 L -75.6387,13.6427 L -75.4635,13.5734 L -75.2811,13.5266
 L -75.0942,13.5029 L -74.9058,13.5029 L -74.7189,13.5266 L -74.5365,13.5734 L -74.3613,13.6427 L -74.1963,13.7335
 L -74.0439,13.8442 L -73.9065,13.9732 L -73.7865,14.1183 L -73.6855,14.2774 L -73.6053,14.4478 L -73.5471,14.627
 L -73.5118,14.812 L -73.5,15 L -73.5118,15.188 L -73.5471,15.373 L -73.6053,15.5522 L -73.6855,15.7226
 L -73.7865,15.8817 L -73.9065,16.0268 L -74.0439,16.1558 L -74.1963,16.2665 L -74.3613,16.3572 L -74.5365,16.4266
 L -74.7189,16.4734 L -74.9058,16.497 z
M 44.8116,25.4941 L 44.4379,25.4469 L 44.0729,25.3532 L 43.7227,25.2145 L 43.3925,25.033 L 43.0877,24.8115
 L 42.8131,24.5536 L 42.5729,24.2634 L 42.3711,23.9453 L 42.2107,23.6044 L 42.0942,23.2461 L 42.0237,22.876
 L 42,22.5 L 42.0237,22.124 L 42.0942,21.7539 L 42.2107,21.3956 L 42.3711,21.0547 L 42.5729,20.7366
 L 42.8131,20.4464 L 43.0877,20.1884 L 43.3925,19.967 L 43.7227,19.7855 L 44.0729,19.6468 L 44.4379,19.5531
 L 44.8116,19.5059 L 45.1884,19.5059 L 45.5621,19.5531 L 45.927,19.6468 L 46.2773,19.7855 L 46.6075,19.967
 L 46.9123,20.1884 L 47.1869,20.4464 L 47.427,20.7366 L 47.6289,21.0547 L 47.7893,21.3956 L 47.9057,21.7539
 L 47.9763,22.124 L 48,22.5 L 47.9763,22.876 L 47.9057,23.2461 L 47.7893,23.6044 L 47.6289,23.9453
 L 47.427,24.2634 L 47.1869,24.5536 L 46.9123,24.8115 L 46.6075,25.033 L 46.2773,25.2145 L 45.927,25.3532
 L 45.5621,25.4469 L 45.1884,25.4941 z
M -60.1884,25.4941 L -60.5621,25.4469 L -60.927,25.3532 L -61.2773,25.2145 L -61.6075,25.033 L -61.9123,24.8115
 L -62.1869,24.5536 L -62.427,24.2634 L -62.6289,23.9453 L -62.7893,23.6044 L -62.9057,23.2461 L -62.9763,22.876
 L -63,22.5 L -62.9763,22.124 L -62.9057,21.7539 L -62.7893,21.3956 L -62.6289,21.0547 L -62.427,20.7366
 L -62.1869,20.4464 L -61.9123,20.1884 L -61.6075,19.967 L -61.2773,19.7855 L -60.927,19.6468 L -60.5621,19.5531
 L -60.1884,19.5059 L -59.8116,19.5059 L -59.4379,19.5531 L -59.0729,19.6468 L -58.7227,19.7855 L -58.3925,19.967
 L -58.0877,20.1884 L -57.8131,20.4464 L -57.5729,20.7366 L -57.3711,21.0547 L -57.2107,21.3956 L -57.0942,21.7539
 L -57.0237,22.124 L -57,22.5 L -57.0237,22.876 L -57.0942,23.2461 L -57.2107,23.6044 L -57.3711,23.9453
 L -57.5729,24.2634 L -57.8131,24.5536 L -58.0877,24.8115 L -58.3925,25.033 L -58.7227,25.2145 L -59.0729,25.3532
 L -59.4379,25.4469 L -59.8116,25.4941 z
M 74.8116,25.4941 L 74.4379,25.4469 L 74.073,25.3532 L 73.7227,25.2145 L 73.3925,25.033 L 73.0877,24.8115
 L 72.8131,24.5536 L 72.573,24.2634 L 72.3711,23.9453 L 72.2107,23.6044 L 72.0943,23.2461 L 72.0237,22.876
 L 72,22.5 L 72.0237,22.124 L 72.0943,21.7539 L 72.2107,21.3956 L 72.3711,21.0547 L 72.573,20.7366
 L 72.8131,20.4464 L 73.0877,20.1884 L 73.3925,19.967 L 73.7227,19.7855 L 74.073,19.6468 L 74.4379,19.5531
 L 74.8116,19.5059 L 75.1884,19.5059 L 75.5621,19.5531 L 75.927,19.6468 L 76.2773,19.7855 L 76.6075,19.967
 L 76.9123,20.1884 L 77.1869,20.4464 L 77.427,20.7366 L 77.6289,21.0547 L 77.7893,21.3956 L 77.9057,21.7539
 L 77.9763,22.124 L 78,22.5 L 77.9763,22.876 L 77.9057,23.2461 L 77.7893,23.6044 L 77.6289,23.9453
 L 77.427,24.2634 L 77.1869,24.5536 L 76.9123,24.8115 L 76.6075,25.033 L 76.2773,25.2145 L 75.927,25.3532
 L 75.5621,25.4469 L 75.1884,25.4941 z
M -30.1884,25.4941 L -30.5621,25.4469 L -30.927,25.3532 L -31.2773,25.2145 L -31.6075,25.033 L -31.9123,24.8115
 L -32.1869,24.5536 L -32.427,24.2634 L -32.6289,23.9453 L -32.7893,23.6044 L -32.9057,23.2461 L -32.9763,22.876
 L -33,22.5 L -32.9763,22.124 L -32.9057,21.7539 L -32.7893,21.3956 L -32.6289,21.0547 L -32.427,20.7366
 L -32.1869,20.4464 L -31.9123,20.1884 L -31.6075,19.967 L -31.2773,19.7855 L -30.927,19.6468 L -30.5621,19.5531
 L -30.1884,19.5059 L -29.8116,19.5059 L -29.4379,19.5531 L -29.0729,19.6468 L -28.7227,19.7855 L -28.3925,19.967
 L -28.0877,20.1884 L -27.8131,20.4464 L -27.5729,20.7366 L -27.3711,21.0547 L -27.2107,21.3956 L -27.0942,21.7539
 L -27.0237,22.124 L -27,22.5 L -27.0237,22.876 L -27.0942,23.2461 L -27.2107,23.6044 L -27.3711,23.9453
 L -27.5729,24.2634 L -27.8131,24.5536 L -28.0877,24.8115 L -28.3925,25.033 L -28.7227,25.2145 L -29.0729,25.3532
 L -29.4379,25.4469 L -29.8116,25.4941 z
M -75.1884,25.4941 L -75.5621,25.4469 L -75.927,25.3532 L -76.2773,25.2145 L -76.6075,25.033 L -76.9123,24.8115
 L -77.1869,24.5536 L -77.427,24.2634 L -77.6289,23.9453 L -77.7893,23.6044 L -77.9057,23.2461 L -77.9763,22.876
 L -78,22.5 L -77.9763,22.124 L -77.9057,21.7539 L -77.7893,21.3956 L -77.6289,21.0547 L -77.427,20.7366
 L -77.1869,20.4464 L -76.9123,20.1884 L -76.6075,19.967 L -76.2773,19.7855 L -75.927,19.6468 L -75.5621,19.5531
 L -75.1884,19.5059 L -74.8116,19.5059 L -74.4379,19.5531 L -74.073,19.6468 L -73.7227,19.7855 L -73.3925,19.967
 L -73.0877,20.1884 L -72.8131,20.4464 L -72.573,20.7366 L -72.3711,21.0547 L -72.2107,21.3956 L -72.0943,21.7539
 L -72.0237,22.124 L -72,22.5 L -72.0237,22.876 L -72.0943,23.2461 L -72.2107,23.6044 L -72.3711,23.9453
 L -72.573,24.2634 L -72.8131,24.5536 L -73.0877,24.8115 L -73.3925,25.033 L -73.7227,25.2145 L -74.073,25.3532
 L -74.4379,25.4469 L -74.8116,25.4941 z
M -15.1884,25.4941 L -15.5621,25.4469 L -15.927,25.3532 L -16.2773,25.2145 L -16.6075,25.033 L -16.9123,24.8115
 L -17.1869,24.5536 L -17.427,24.2634 L -17.6289,23.9453 L -17.7893,23.6044 L -17.9057,23.2461 L -17.9763,22.876
 L -18,22.5 L -17.9763,22.124 L -17.9057,21.7539 L -17.7893,21.3956 L -17.6289,21.0547 L -17.427,20.7366
 L -17.1869,20.4464 L -16.9123,20.1884 L -16.6075,19.967 L -16.2773,19.7855 L -15.927,19.6468 L -15.5621,19.5531
 L -15.1884,19.5059 L -14.8116,19.5059 L -14.4379,19.5531 L -14.0729,19.6468 L -13.7227,19.7855 L -13.3925,19.967
 L -13.0877,20.1884 L -12.8131,20.4464 L -12.5729,20.7366 L -12.3711,21.0547 L -12.2107,21.3956 L -12.0942,21.7539
 L -12.0237,22.124 L -12,22.5 L -12.0237,22.876 L -12.0942,23.2461 L -12.2107,23.6044 L -12.3711,23.9453
 L -12.5729,24.2634 L -12.8131,24.5536 L -13.0877,24.8115 L -13.3925,25.033 L -13.7227,25.2145 L -14.0729,25.3532
 L -14.4379,25.4469 L -14.8116,25.4941 z
M 29.8116,25.4941 L 29.4379,25.4469 L 29.0729,25.3532 L 28.7227,25.2145 L 28.3925,25.033 L 28.0877,24.8115
 L 27.8131,24.5536 L 27.5729,24.2634 L 27.3711,23.9453 L 27.2107,23.6044 L 27.0942,23.2461 L 27.0237,22.876
 L 27,22.5 L 27.0237,22.124 L 27.0942,21.7539 L 27.2107,21.3956 L 27.3711,21.0547 L 27.5729,20.7366
 L 27.8131,20.4464 L 28.0877,20.1884 L 28.3925,19.967 L 28.7227,19.7855 L 29.0729,19.6468 L 29.4379,19.5531
 L 29.8116,19.5059 L 30.1884,19.5059 L 30.5621,19.5531 L 30.927,19.6468 L 31.2773,19.7855 L 31.6075,19.967
 L 31.9123,20.1884 L 32.1869,20.4464 L 32.427,20.7366 L 32.6289,21.0547 L 32.7893,21.3956 L 32.9057,21.7539
 L 32.9763,22.124 L 33,22.5 L 32.9763,22.876 L 32.9057,23.2461 L 32.7893,23.6044 L 32.6289,23.9453
 L 32.427,24.2634 L 32.1869,24.5536 L 31.9123,24.8115 L 31.6075,25.033 L 31.2773,25.2145 L 30.927,25.3532
 L 30.5621,25.4469 L 30.1884,25.4941 z
M -0.18837,25.4941 L -0.562134,25.4469 L -0.927048,25.3532 L -1.27733,25.2145 L -1.60747,25.033 L -1.91226,24.8115
 L -2.1869,24.5536 L -2.42705,24.2634 L -2.62891,23.9453 L -2.78932,23.6044 L -2.90575,23.2461 L -2.97633,22.876
 L -3,22.5 L -2.97633,22.124 L -2.90575,21.7539 L -2.78932,21.3956 L -2.62891,21.0547 L -2.42705,20.7366
 L -2.1869,20.4464 L -1.91226,20.1884 L -1.60747,19.967 L -1.27733,19.7855 L -0.927048,19.6468 L -0.562134,19.5531
 L -0.18837,19.5059 L 0.18837,19.5059 L 0.562134,19.5531 L 0.927048,19.6468 L 1.27733,19.7855 L 1.60747,19.967
 L 1.91226,20.1884 L 2.1869,20.4464 L 2.42705,20.7366 L 2.62891,21.0547 L 2.78932,21.3956 L 2.90575,21.7539
 L 2.97633,22.124 L 3,22.5 L 2.97633,22.876 L 2.90575,23.2461 L 2.78932,23.6044 L 2.62891,23.9453
 L 2.42705,24.2634 L 2.1869,24.5536 L 1.91226,24.8115 L 1.60747,25.033 L 1.27733,25.2145 L 0.927048,25.3532
 L 0.562134,25.4469 L 0.18837,25.4941 z
M -45.1884,25.4941 L -45.5621,25.4469 L -45.927,25.3532 L -46.2773,25.2145 L -46.6075,25.033 L -46.9123,24.8115
 L -47.1869,24.5536 L -47.427,24.2634 L -47.6289,23.9453 L -47.7893,23.6044 L -47.9057,23.2461 L -47.9763,22.876
 L -48,22.5 L -47.9763,22.124 L -47.9057,21.7539 L -47.7893,21.3956 L -47.6289,21.0547 L -47.427,20.7366
 L -47.1869,20.4464 L -46.9123,20.1884 L -46.6075,19.967 L -46.2773,19.7855 L -45.927,19.6468 L -45.5621,19.5531
 L -45.1884,19.5059 L -44.8116,19.5059 L -44.4379,19.5531 L -44.0729,19.6468 L -43.7227,19.7855 L -43.3925,19.967
 L -43.0877,20.1884 L -42.8131,20.4464 L -42.5729,20.7366 L -42.3711,21.0547 L -42.2107,21.3956 L -42.0942,21.7539
 L -42.0237,22.124 L -42,22.5 L -42.0237,22.876 L -42.0942,23.2461 L -42.2107,23.6044 L -42.3711,23.9453
 L -42.5729,24.2634 L -42.8131,24.5536 L -43.0877,24.8115 L -43.3925,25.033 L -43.7227,25.2145 L -44.0729,25.3532
 L -44.4379,25.4469 L -44.8116,25.4941 z
M 14.8116,25.4941 L 14.4379,25.4469 L 14.0729,25.3532 L 13.7227,25.2145 L 13.3925,25.033 L 13.0877,24.8115
 L 12.8131,24.5536 L 12.5729,24.2634 L 12.3711,23.9453 L 12.2107,23.6044 L 12.0942,23.2461 L 12.0237,22.876
 L 12,22.5 L 12.0237,22.124 L 12.0942,21.7539 L 12.2107,21.3956 L 12.3711,21.0547 L 12.5729,20.7366
 L 12.8131,20.4464 L 13.0877,20.1884 L 13.3925,19.967 L 13.7227,19.7855 L 14.0729,19.6468 L 14.4379,19.5531
 L 14.8116,19.5059 L 15.1884,19.5059 L 15.5621,19.5531 L 15.927,19.6468 L 16.2773,19.7855 L 16.6075,19.967
 L 16.9123,20.1884 L 17.1869,20.4464 L 17.427,20.7366 L 17.6289,21.0547 L 17.7893,21.3956 L 17.9057,21.7539
 L 17.9763,22.124 L 18,22.5 L 17.9763,22.876 L 17.9057,23.2461 L 17.7893,23.6044 L 17.6289,23.9453
 L 17.427,24.2634 L 17.1869,24.5536 L 16.9123,24.8115 L 16.6075,25.033 L 16.2773,25.2145 L 15.927,25.3532
 L 15.5621,25.4469 L 15.1884,25.4941 z
M 59.8116,25.4941 L 59.4379,25.4469 L 59.0729,25.3532 L 58.7227,25.2145 L 58.3925,25.033 L 58.0877,24.8115
 L 57.8131,24.5536 L 57.5729,24.2634 L 57.3711,23.9453 L 57.2107,23.6044 L 57.0942,23.2461 L 57.0237,22.876
 L 57,22.5 L 57.0237,22.124 L 57.0942,21.7539 L 57.2107,21.3956 L 57.3711,21.0547 L 57.5729,20.7366
 L 57.8131,20.4464 L 58.0877,20.1884 L 58.3925,19.967 L 58.7227,19.7855 L 59.0729,19.6468 L 59.4379,19.5531
 L 59.8116,19.5059 L 60.1884,19.5059 L 60.5621,19.5531 L 60.927,19.6468 L 61.2773,19.7855 L 61.6075,19.967
 L 61.9123,20.1884 L 62.1869,20.4464 L 62.427,20.7366 L 62.6289,21.0547 L 62.7893,21.3956 L 62.9057,21.7539
 L 62.9763,22.124 L 63,22.5 L 62.9763,22.876 L 62.9057,23.2461 L 62.7893,23.6044 L 62.6289,23.9453
 L 62.427,24.2634 L 62.1869,24.5536 L 61.9123,24.8115 L 61.6075,25.033 L 61.2773,25.2145 L 60.927,25.3532
 L 60.5621,25.4469 L 60.1884,25.4941 z
M -67.5942,23.997 L -67.7811,23.9734 L -67.9635,23.9266 L -68.1387,23.8572 L -68.3037,23.7665 L -68.4561,23.6558
 L -68.5934,23.5268 L -68.7135,23.3817 L -68.8145,23.2226 L -68.8947,23.0522 L -68.9529,22.873 L -68.9882,22.688
 L -69,22.5 L -68.9882,22.312 L -68.9529,22.127 L -68.8947,21.9478 L -68.8145,21.7774 L -68.7135,21.6183
 L -68.5934,21.4732 L -68.4561,21.3442 L -68.3037,21.2335 L -68.1387,21.1427 L -67.9635,21.0734 L -67.7811,21.0266
 L -67.5942,21.003 L -67.4058,21.003 L -67.2189,21.0266 L -67.0365,21.0734 L -66.8613,21.1427 L -66.6963,21.2335
 L -66.5439,21.3442 L -66.4065,21.4732 L -66.2865,21.6183 L -66.1855,21.7774 L -66.1053,21.9478 L -66.0471,22.127
 L -66.0118,22.312 L -66,22.5 L -66.0118,22.688 L -66.0471,22.873 L -66.1053,23.0522 L -66.1855,23.2226
 L -66.2865,23.3817 L -66.4065,23.5268 L -66.5439,23.6558 L -66.6963,23.7665 L -66.8613,23.8572 L -67.0365,23.9266
 L -67.2189,23.9734 L -67.4058,23.997 z
M -52.5942,23.997 L -52.7811,23.9734 L -52.9635,23.9266 L -53.1387,23.8572 L -53.3037,23.7665 L -53.4561,23.6558
 L -53.5934,23.5268 L -53.7135,23.3817 L -53.8145,23.2226 L -53.8947,23.0522 L -53.9529,22.873 L -53.9882,22.688
 L -54,22.5 L -53.9882,22.312 L -53.9529,22.127 L -53.8947,21.9478 L -53.8145,21.7774 L -53.7135,21.6183
 L -53.5934,21.4732 L -53.4561,21.3442 L -53.3037,21.2335 L -53.1387,21.1427 L -52.9635,21.0734 L -52.7811,21.0266
 L -52.5942,21.003 L -52.4058,21.003 L -52.2189,21.0266 L -52.0365,21.0734 L -51.8613,21.1427 L -51.6963,21.2335
 L -51.5439,21.3442 L -51.4065,21.4732 L -51.2865,21.6183 L -51.1855,21.7774 L -51.1053,21.9478 L -51.0471,22.127
 L -51.0118,22.312 L -51,22.5 L -51.0118,22.688 L -51.0471,22.873 L -51.1053,23.0522 L -51.1855,23.2226
 L -51.2865,23.3817 L -51.4065,23.5268 L -51.5439,23.6558 L -51.6963,23.7665 L -51.8613,23.8572 L -52.0365,23.9266
 L -52.2189,23.9734 L -52.4058,23.997 z
M -7.59418,23.997 L -7.78107,23.9734 L -7.96352,23.9266 L -8.13866,23.8572 L -8.30373,23.7665 L -8.45613,23.6558
 L -8.59344,23.5268 L -8.71352,23.3817 L -8.81445,23.2226 L -8.89465,23.0522 L -8.95287,22.873 L -8.98816,22.688
 L -9,22.5 L -8.98816,22.312 L -8.95287,22.127 L -8.89465,21.9478 L -8.81445,21.7774 L -8.71352,21.6183
 L -8.59344,21.4732 L -8.45613,21.3442 L -8.30373,21.2335 L -8.13866,21.1427 L -7.96352,21.0734 L -7.78107,21.0266
 L -7.59418,21.003 L -7.40581,21.003 L -7.21892,21.0266 L -7.03647,21.0734 L -6.86133,21.1427 L -6.69626,21.2335
 L -6.54385,21.3442 L -6.40654,21.4732 L -6.28647,21.6183 L -6.18553,21.7774 L -6.10533,21.9478 L -6.04712,22.127
 L -6.01183,22.312 L -6,22.5 L -6.01183,22.688 L -6.04712,22.873 L -6.10533,23.0522 L -6.18553,23.2226
 L -6.28647,23.3817 L -6.40654,23.5268 L -6.54385,23.6558 L -6.69626,23.7665 L -6.86133,23.8572 L -7.03647,23.9266
 L -7.21892,23.9734 L -7.40581,23.997 z
M -37.5942,23.997 L -37.7811,23.9734 L -37.9635,23.9266 L -38.1387,23.8572 L -38.3037,23.7665 L -38.4561,23.6558
 L -38.5934,23.5268 L -38.7135,23.3817 L -38.8145,23.2226 L -38.8947,23.0522 L -38.9529,22.873 L -38.9882,22.688
 L -39,22.5 L -38.9882,22.312 L -38.9529,22.127 L -38.8947,21.9478 L -38.8145,21.7774 L -38.7135,21.6183
 L -38.5934,21.4732 L -38.4561,21.3442 L -38.3037,21.2335 L -38.1387,21.1427 L -37.9635,21.0734 L -37.7811,21.0266
 L -37.5942,21.003 L -37.4058,21.003 L -37.2189,21.0266 L -37.0365,21.0734 L -36.8613,21.1427 L -36.6963,21.2335
 L -36.5439,21.3442 L -36.4065,21.4732 L -36.2865,21.6183 L -36.1855,21.7774 L -36.1053,21.9478 L -36.0471,22.127
 L -36.0118,22.312 L -36,22.5 L -36.0118,22.688 L -36.0471,22.873 L -36.1053,23.0522 L -36.1855,23.2226
 L -36.2865,23.3817 L -36.4065,23.5268 L -36.5439,23.6558 L -36.6963,23.7665 L -36.8613,23.8572 L -37.0365,23.9266
 L -37.2189,23.9734 L -37.4058,23.997 z
M 67.4058,23.997 L 67.2189,23.9734 L 67.0365,23.9266 L 66.8613,23.8572 L 66.6963,23.7665 L 66.5439,23.6558
 L 66.4065,23.5268 L 66.2865,23.3817 L 66.1855,23.2226 L 66.1053,23.0522 L 66.0471,22.873 L 66.0118,22.688
 L 66,22.5 L 66.0118,22.312 L 66.0471,22.127 L 66.1053,21.9478 L 66.1855,21.7774 L 66.2865,21.6183
 L 66.4065,21.4732 L 66.5439,21.3442 L 66.6963,21.2335 L 66.8613,21.1427 L 67.0365,21.0734 L 67.2189,21.0266
 L 67.4058,21.003 L 67.5942,21.003 L 67.7811,21.0266 L 67.9635,21.0734 L 68.1387,21.1427 L 68.3037,21.2335
 L 68.4561,21.3442 L 68.5934,21.4732 L 68.7135,21.6183 L 68.8145,21.7774 L 68.8947,21.9478 L 68.9529,22.127
 L 68.9882,22.312 L 69,22.5 L 68.9882,22.688 L 68.9529,22.873 L 68.8947,23.0522 L 68.8145,23.2226
 L 68.7135,23.3817 L 68.5934,23.5268 L 68.4561,23.6558 L 68.3037,23.7665 L 68.1387,23.8572 L 67.9635,23.9266
 L 67.7811,23.9734 L 67.5942,23.997 z
M 7.40581,23.997 L 7.21892,23.9734 L 7.03647,23.9266 L 6.86133,23.8572 L 6.69626,23.7665 L 6.54385,23.6558
 L 6.40654,23.5268 L 6.28647,23.3817 L 6.18553,23.2226 L 6.10533,23.0522 L 6.04712,22.873 L 6.01183,22.688
 L 6,22.5 L 6.01183,22.312 L 6.04712,22.127 L 6.10533,21.9478 L 6.18553,21.7774 L 6.28647,21.6183
 L 6.40654,21.4732 L 6.54385,21.3442 L 6.69626,21.2335 L 6.86133,21.1427 L 7.03647,21.0734 L 7.21892,21.0266
 L 7.40581,21.003 L 7.59418,21.003 L 7.78107,21.0266 L 7.96352,21.0734 L 8.13866,21.1427 L 8.30373,21.2335
 L 8.45613,21.3442 L 8.59344,21.4732 L 8.71352,21.6183 L 8.81445,21.7774 L 8.89465,21.9478 L 8.95287,22.127
 L 8.98816,22.312 L 9,22.5 L 8.98816,22.688 L 8.95287,22.873 L 8.89465,23.0522 L 8.81445,23.2226
 L 8.71352,23.3817 L 8.59344,23.5268 L 8.45613,23.6558 L 8.30373,23.7665 L 8.13866,23.8572 L 7.96352,23.9266
 L 7.78107,23.9734 L 7.59418,23.997 z
M 37.4058,23.997 L 37.2189,23.9734 L 37.0365,23.9266 L 36.8613,23.8572 L 36.6963,23.7665 L 36.5439,23.6558
 L 36.4065,23.5268 L 36.2865,23.3817 L 36.1855,23.2226 L 36.1053,23.0522 L 36.0471,22.873 L 36.0118,22.688
 L 36,22.5 L 36.0118,22.312 L 36.0471,22.127 L 36.1053,21.9478 L 36.1855,21.7774 L 36.2865,21.6183
 L 36.4065,21.4732 L 36.5439,21.3442 L 36.6963,21.2335 L 36.8613,21.1427 L 37.0365,21.0734 L 37.2189,21.0266
 L 37.4058,21.003 L 37.5942,21.003 L 37.7811,21.0266 L 37.9635,21.0734 L 38.1387,21.1427 L 38.3037,21.2335
 L 38.4561,21.3442 L 38.5934,21.4732 L 38.7135,21.6183 L 38.8145,21.7774 L 38.8947,21.9478 L 38.9529,22.127
 L 38.9882,22.312 L 39,22.5 L 38.9882,22.688 L 38.9529,22.873 L 38.8947,23.0522 L 38.8145,23.2226
 L 38.7135,23.3817 L 38.5934,23.5268 L 38.4561,23.6558 L 38.3037,23.7665 L 38.1387,23.8572 L 37.9635,23.9266
 L 37.7811,23.9734 L 37.5942,23.997 z
M 22.4058,23.997 L 22.2189,23.9734 L 22.0365,23.9266 L 21.8613,23.8572 L 21.6963,23.7665 L 21.5439,23.6558
 L 21.4065,23.5268 L 21.2865,23.3817 L 21.1855,23.2226 L 21.1053,23.0522 L 21.0471,22.873 L 21.0118,22.688
 L 21,22.5 L 21.0118,22.312 L 21.0471,22.127 L 21.1053,21.9478 L 21.1855,21.7774 L 21.2865,21.6183
 L 21.4065,21.4732 L 21.5439,21.3442 L 21.6963,21.2335 L 21.8613,21.1427 L 22.0365,21.0734 L 22.2189,21.0266
 L 22.4058,21.003 L 22.5942,21.003 L 22.7811,21.0266 L 22.9635,21.0734 L 23.1387,21.1427 L 23.3037,21.2335
 L 23.4561,21.3442 L 23.5934,21.4732 L 23.7135,21.6183 L 23.8145,21.7774 L 23.8947,21.9478 L 23.9529,22.127
 L 23.9882,22.312 L 24,22.5 L 23.9882,22.688 L 23.9529,22.873 L 23.8947,23.0522 L 23.8145,23.2226
 L 23.7135,23.3817 L 23.5934,23.5268 L 23.4561,23.6558 L 23.3037,23.7665 L 23.1387,23.8572 L 22.9635,23.9266
 L 22.7811,23.9734 L 22.5942,23.997 z
M -22.5942,23.997 L -22.7811,23.9734 L -22.9635,23.9266 L -23.1387,23.8572 L -23.3037,23.7665 L -23.4561,23.6558
 L -23.5934,23.5268 L -23.7135,23.3817 L -23.8145,23.2226 L -23.8947,23.0522 L -23.9529,22.873 L -23.9882,22.688
 L -24,22.5 L -23.9882,22.312 L -23.9529,22.127 L -23.8947,21.9478 L -23.8145,21.7774 L -23.7135,21.6183
 L -23.5934,21.4732 L -23.4561,21.3442 L -23.3037,21.2335 L -23.1387,21.1427 L -22.9635,21.0734 L -22.7811,21.0266
 L -22.5942,21.003 L -22.4058,21.003 L -22.2189,21.0266 L -22.0365,21.0734 L -21.8613,21.1427 L -21.6963,21.2335
 L -21.5439,21.3442 L -21.4065,21.4732 L -21.2865,21.6183 L -21.1855,21.7774 L -21.1053,21.9478 L -21.0471,22.127
 L -21.0118,22.312 L -21,22.5 L -21.0118,22.688 L -21.0471,22.873 L -21.1053,23.0522 L -21.1855,23.2226
 L -21.2865,23.3817 L -21.4065,23.5268 L -21.5439,23.6558 L -21.6963,23.7665 L -21.8613,23.8572 L -22.0365,23.9266
 L -22.2189,23.9734 L -22.4058,23.997 z
M 52.4058,23.997 L 52.2189,23.9734 L 52.0365,23.9266 L 51.8613,23.8572 L 51.6963,23.7665 L 51.5439,23.6558
 L 51.4065,23.5268 L 51.2865,23.3817 L 51.1855,23.2226 L 51.1053,23.0522 L 51.0471,22.873 L 51.0118,22.688
 L 51,22.5 L 51.0118,22.312 L 51.0471,22.127 L 51.1053,21.9478 L 51.1855,21.7774 L 51.2865,21.6183
 L 51.4065,21.4732 L 51.5439,21.3442 L 51.6963,21.2335 L 51.8613,21.1427 L 52.0365,21.0734 L 52.2189,21.0266
 L 52.4058,21.003 L 52.5942,21.003 L 52.7811,21.0266 L 52.9635,21.0734 L 53.1387,21.1427 L 53.3037,21.2335
 L 53.4561,21.3442 L 53.5934,21.4732 L 53.7135,21.6183 L 53.8145,21.7774 L 53.8947,21.9478 L 53.9529,22.127
 L 53.9882,22.312 L 54,22.5 L 53.9882,22.688 L 53.9529,22.873 L 53.8947,23.0522 L 53.8145,23.2226
 L 53.7135,23.3817 L 53.5934,23.5268 L 53.4561,23.6558 L 53.3037,23.7665 L 53.1387,23.8572 L 52.9635,23.9266
 L 52.7811,23.9734 L 52.5942,23.997 z
M -66.0471,-22.127 L -66.1053,-21.9478 L -66.1855,-21.7774 L -66.2865,-21.6183 L -66.4065,-21.4732 L -66.5439,-21.3442
 L -66.6963,-21.2335 L -66.8613,-21.1427 L -67.0365,-21.0734 L -67.2189,-21.0266 L -67.4058,-21.003 L -67.5942,-21.003
 L -67.7811,-21.0266 L -67.9635,-21.0734 L -68.1387,-21.1427 L -68.3037,-21.2335 L -68.4561,-21.3442 L -68.5934,-21.4732
 L -68.7135,-21.6183 L -68.8145,-21.7774 L -68.8947,-21.9478 L -68.9529,-22.127 L -68.9882,-22.312 L -69,-22.5
 L -68.9882,-22.688 L -68.9529,-22.873 L -68.8947,-23.0522 L -68.8145,-23.2226 L -68.7135,-23.3817 L -68.5934,-23.5268
 L -68.4561,-23.6558 L -68.3037,-23.7665 L -68.1387,-23.8572 L -67.9635,-23.9266 L -67.7811,-23.9734 L -67.5942,-23.997
 L -67.4058,-23.997 L -67.2189,-23.9734 L -67.0365,-23.9266 L -66.8613,-23.8572 L -66.6963,-23.7665 L -66.5439,-23.6558
 L -66.4065,-23.5268 L -66.2865,-23.3817 L -66.1855,-23.2226 L -66.1053,-23.0522 L -66.0471,-22.873 L -66.0118,-22.688
 L -66,-22.5 L -66.0118,-22.312 z
M -4.29355,6.98543 L -5.26924,8.52287 L -6.42995,9.92592 L -7.75734,11.1724 L -9.2305,12.2428 L -10.8262,13.12
 L -12.5192,13.7903 L -14.283,14.2432 L -16.0895,14.4714 L -17.9105,14.4714 L -19.717,14.2432 L -21.4807,13.7903
 L -23.1738,13.12 L -24.7695,12.2428 L -26.2426,11.1724 L -27.57,9.92592 L -28.7307,8.52287 L -29.7064,6.98543
 L -30.4818,5.3378 L -31.0444,3.606 L -31.3857,1.81732 L -31.5,-0 L -31.3857,-1.81732 L -31.0444,-3.606
 L -30.4818,-5.3378 L -29.7064,-6.98543 L -28.7307,-8.52287 L -27.57,-9.92592 L -26.2426,-11.1724 L -24.7695,-12.2428
 L -23.1738,-13.12 L -21.4807,-13.7903 L -19.717,-14.2432 L -17.9105,-14.4714 L -16.0895,-14.4714 L -14.283,-14.2432
 L -12.5192,-13.7903 L -10.8262,-13.12 L -9.2305,-12.2428 L -7.75734,-11.1724 L -6.42995,-9.92592 L -5.26924,-8.52287
 L -4.29355,-6.98543 L -3.51823,-5.3378 L -2.95554,-3.606 L -2.61433,-1.81732 L -2.5,-0 L -2.61433,1.81732
 L -2.95554,3.606 L -3.51823,5.3378 z
" stroke="black" fill="lightgray" stroke-width="0.5"/>
</svg>
