<?xml version="1.0" standalone="no"?>
<!DOCTYPE svg PUBLIC "-//W3C//DTD SVG 1.1//EN" "http://www.w3.org/Graphics/SVG/1.1/DTD/svg11.dtd">
<svg width="240mm" height="120mm" viewBox="-120 -60 240 120" xmlns="http://www.w3.org/2000/svg" version="1.1">
<title>OpenSCAD Model</title>
<path d="
M 115.437,59.4114 L 116.045,59.2553 L 116.629,59.0241 L 117.179,58.7216 L 117.687,58.3526 L 118.145,57.9227
 L 118.545,57.4389 L 118.882,56.9088 L 119.149,56.3406 L 119.343,55.7434 L 119.461,55.1267 L 119.5,54.5
 L 119.5,-54.5 L 119.461,-55.1267 L 119.343,-55.7434 L 119.149,-56.3406 L 118.882,-56.9088 L 118.545,-57.4389
 L 118.145,-57.9227 L 117.687,-58.3526 L 117.179,-58.7216 L 116.629,-59.0241 L 116.045,-59.2553 L 115.437,-59.4114
 L 114.814,-59.4901 L -114.814,-59.4901 L -115.437,-59.4114 L -116.045,-59.2553 L -116.629,-59.0241 L -117.179,-58.7216
 L -117.687,-58.3526 L -118.145,-57.9227 L -118.545,-57.4389 L -118.882,-56.9088 L -119.149,-56.3406 L -119.343,-55.7434
 L -119.461,-55.1267 L -119.5,-54.5 L -119.5,54.5 L -119.461,55.1267 L -119.343,55.7434 L -119.149,56.3406
 L -118.882,56.9088 L -118.545,57.4389 L -118.145,57.9227 L -117.687,58.3526 L -117.179,58.7216 L -116.629,59.0241
 L -116.045,59.2553 L -115.437,59.4114 L -114.814,59.4901 L 114.814,59.4901 z
M -112.688,-49.5059 L -113.062,-49.5531 L -113.427,-49.6468 L -113.777,-49.7855 L -114.107,-49.967 L -114.412,-50.1885
 L -114.687,-50.4464 L -114.927,-50.7366 L -115.129,-51.0547 L -115.289,-51.3956 L -115.406,-51.7539 L -115.476,-52.124
 L -115.5,-52.5 L -115.476,-52.876 L -115.406,-53.2461 L -115.289,-53.6044 L -115.129,-53.9453 L -114.927,-54.2634
 L -114.687,-54.5536 L -114.412,-54.8115 L -114.107,-55.033 L -113.777,-55.2145 L -113.427,-55.3532 L -113.062,-55.4469
 L -112.688,-55.4941 L -112.312,-55.4941 L -111.938,-55.4469 L -111.573,-55.3532 L -111.223,-55.2145 L -110.893,-55.033
 L -110.588,-54.8115 L -110.313,-54.5536 L -110.073,-54.2634 L -109.871,-53.9453 L -109.711,-53.6044 L -109.594,-53.2461
 L -109.524,-52.876 L -109.5,-52.5 L -109.524,-52.124 L -109.594,-51.7539 L -109.711,-51.3956 L -109.871,-51.0547
 L -110.073,-50.7366 L -110.313,-50.4464 L -110.588,-50.1885 L -110.893,-49.967 L -111.223,-49.7855 L -111.573,-49.6468
 L -111.938,-49.5531 L -112.312,-49.5059 z
M 112.312,-49.5059 L 111.938,-49.5531 L 111.573,-49.6468 L 111.223,-49.7855 L 110.893,-49.967 L 110.588,-50.1885
 L 110.313,-50.4464 L 110.073,-50.7366 L 109.871,-51.0547 L 109.711,-51.3956 L 109.594,-51.7539 L 109.524,-52.124
 L 109.5,-52.5 L 109.524,-52.876 L 109.594,-53.2461 L 109.711,-53.6044 L 109.871,-53.9453 L 110.073,-54.2634
 L 110.313,-54.5536 L 110.588,-54.8115 L 110.893,-55.033 L 111.223,-55.2145 L 111.573,-55.3532 L 111.938,-55.4469
 L 112.312,-55.4941 L 112.688,-55.4941 L 113.062,-55.4469 L 113.427,-55.3532 L 113.777,-55.2145 L 114.107,-55.033
 L 114.412,-54.8115 L 114.687,-54.5536 L 114.927,-54.2634 L 115.129,-53.9453 L 115.289,-53.6044 L 115.406,-53.2461
 L 115.476,-52.876 L 115.5,-52.5 L 115.476,-52.124 L 115.406,-51.7539 L 115.289,-51.3956 L 115.129,-51.0547
 L 114.927,-50.7366 L 114.687,-50.4464 L 114.412,-50.1885 L 114.107,-49.967 L 113.777,-49.7855 L 113.427,-49.6468
 L 113.062,-49.5531 L 112.688,-49.5059 z
M 54.0465,54.8915 L 47.194,54.0258 L 40.5041,52.3081 L 34.0821,49.7655 L 28.0295,46.438 L 22.4417,42.3782
 L 17.4067,37.6501 L 13.0041,32.3282 L 9.30313,26.4964 L 6.36229,20.2468 L 4.22792,13.6779 L 2.93369,6.89333
 L 2.5,-0 L 2.93369,-6.89333 L 4.22792,-13.6779 L 6.36229,-20.2468 L 9.30313,-26.4964 L 13.0041,-32.3282
 L 17.4067,-37.6501 L 22.4417,-42.3782 L 28.0295,-46.438 L 34.0821,-49.7655 L 40.5041,-52.3081 L 47.194,-54.0258
 L 54.0465,-54.8915 L 60.9535,-54.8915 L 67.806,-54.0258 L 74.4959,-52.3081 L 80.9179,-49.7655 L 86.9705,-46.438
 L 92.5583,-42.3782 L 97.5933,-37.6501 L 101.996,-32.3282 L 105.697,-26.4964 L 108.638,-20.2468 L 110.772,-13.6779
 L 112.066,-6.89333 L 112.5,-0 L 112.066,6.89333 L 110.772,13.6779 L 108.638,20.2468 L 105.697,26.4964
 L 101.996,32.3282 L 97.5933,37.6501 L 92.5583,42.3782 L 86.9705,46.438 L 80.9179,49.7655 L 74.4959,52.3081
 L 67.806,54.0258 L 60.9535,54.8915 z
M -60.9535,54.8915 L -67.806,54.0258 L -74.4959,52.3081 L -80.9179,49.7655 L -86.9705,46.438 L -92.5583,42.3782
 L -97.5933,37.6501 L -101.996,32.3282 L -105.697,26.4964 L -108.638,20.2468 L -110.772,13.6779 L -112.066,6.89333
 L -112.5,-0 L -112.066,-6.89333 L -110.772,-13.6779 L -108.638,-20.2468 L -105.697,-26.4964 L -101.996,-32.3282
 L -97.5933,-37.6501 L -92.5583,-42.3782 L -86.9705,-46.438 L -80.9179,-49.7655 L -74.4959,-52.3081 L -67.806,-54.0258
 L -60.9535,-54.8915 L -54.0465,-54.8915 L -47.194,-54.0258 L -40.5041,-52.3081 L -34.0821,-49.7655 L -28.0295,-46.438
 L -22.4417,-42.3782 L -17.4067,-37.6501 L -13.0041,-32.3282 L -9.30313,-26.4964 L -6.36229,-20.2468 L -4.22792,-13.6779
 L -2.93369,-6.89333 L -2.5,-0 L -2.93369,6.89333 L -4.22792,13.6779 L -6.36229,20.2468 L -9.30313,26.4964
 L -13.0041,32.3282 L -17.4067,37.6501 L -22.4417,42.3782 L -28.0295,46.438 L -34.0821,49.7655 L -40.5041,52.3081
 L -47.194,54.0258 L -54.0465,54.8915 z
M 112.312,55.4941 L 111.938,55.4469 L 111.573,55.3532 L 111.223,55.2145 L 110.893,55.033 L 110.588,54.8115
 L 110.313,54.5536 L 110.073,54.2634 L 109.871,53.9453 L 109.711,53.6044 L 109.594,53.2461 L 109.524,52.876
 L 109.5,52.5 L 109.524,52.124 L 109.594,51.7539 L 109.711,51.3956 L 109.871,51.0547 L 110.073,50.7366
 L 110.313,50.4464 L 110.588,50.1885 L 110.893,49.967 L 111.223,49.7855 L 111.573,49.6468 L 111.938,49.5531
 L 112.312,49.5059 L 112.688,49.5059 L 113.062,49.5531 L 113.427,49.6468 L 113.777,49.7855 L 114.107,49.967
 L 114.412,50.1885 L 114.687,50.4464 L 114.927,50.7366 L 115.129,51.0547 L 115.289,51.3956 L 115.406,51.7539
 L 115.476,52.124 L 115.5,52.5 L 115.476,52.876 L 115.406,53.2461 L 115.289,53.6044 L 115.129,53.9453
 L 114.927,54.2634 L 114.687,54.5536 L 114.412,54.8115 L 114.107,55.033 L 113.777,55.2145 L 113.427,55.3532
 L 113.062,55.4469 L 112.688,55.4941 z
M -112.688,55.4941 L -113.062,55.4469 L -113.427,55.3532 L -113.777,55.2145 L -114.107,55.033 L -114.412,54.8115
 L -114.687,54.5536 L -114.927,54.2634 L -115.129,53.9453 L -115.289,53.6044 L -115.406,53.2461 L -115.476,52.876
 L -115.5,52.5 L -115.476,52.124 L -115.406,51.7539 L -115.289,51.3956 L -115.129,51.0547 L -114.927,50.7366
 L -114.687,50.4464 L -114.412,50.1885 L -114.107,49.967 L -113.777,49.7855 L -113.427,49.6468 L -113.062,49.5531
 L -112.688,49.5059 L -112.312,49.5059 L -111.938,49.5531 L -111.573,49.6468 L -111.223,49.7855 L -110.893,49.967
 L -110.588,50.1885 L -110.313,50.4464 L -110.073,50.7366 L -109.871,51.0547 L -109.711,51.3956 L -109.594,51.7539
 L -109.524,52.124 L -109.5,52.5 L -109.524,52.876 L -109.594,53.2461 L -109.711,53.6044 L -109.871,53.9453
 L -110.073,54.2634 L -110.313,54.5536 L -110.588,54.8115 L -110.893,55.033 L -111.223,55.2145 L -111.573,55.3532
 L -111.938,55.4469 L -112.312,55.4941 z
" stroke="black" fill="lightgray" stroke-width="0.5"/>
</svg>
