<?xml version="1.0" standalone="no"?>
<!DOCTYPE svg PUBLIC "-//W3C//DTD SVG 1.1//EN" "http://www.w3.org/Graphics/SVG/1.1/DTD/svg11.dtd">
<svg width="194mm" height="60mm" viewBox="-97 -30 194 60" xmlns="http://www.w3.org/2000/svg" version="1.1">
<title>OpenSCAD Model</title>
<path d="
M 92.9369,29.4114 L 93.5451,29.2553 L 94.1289,29.0241 L 94.6791,28.7216 L 95.1871,28.3526 L 95.6448,27.9227
 L 96.0451,27.4389 L 96.3815,26.9088 L 96.6489,26.3406 L 96.8429,25.7434 L 96.9606,25.1267 L 97,24.5
 L 97,-24.5 L 96.9606,-25.1267 L 96.8429,-25.7434 L 96.6489,-26.3406 L 96.3815,-26.9088 L 96.0451,-27.4389
 L 95.6448,-27.9227 L 95.1871,-28.3526 L 94.6791,-28.7216 L 94.1289,-29.0241 L 93.5451,-29.2553 L 92.9369,-29.4114
 L 92.3139,-29.4901 L -92.3139,-29.4901 L -92.9369,-29.4114 L -93.5451,-29.2553 L -94.1289,-29.0241 L -94.6791,-28.7216
 L -95.1871,-28.3526 L -95.6448,-27.9227 L -96.0451,-27.4389 L -96.3815,-26.9088 L -96.6489,-26.3406 L -96.8429,-25.7434
 L -96.9606,-25.1267 L -97,-24.5 L -97,24.5 L -96.9606,25.1267 L -96.8429,25.7434 L -96.6489,26.3406
 L -96.3815,26.9088 L -96.0451,27.4389 L -95.6448,27.9227 L -95.1871,28.3526 L -94.6791,28.7216 L -94.1289,29.0241
 L -93.5451,29.2553 L -92.9369,29.4114 L -92.3139,29.4901 L 92.3139,29.4901 z
M -90.1884,-19.5059 L -90.5621,-19.5531 L -90.927,-19.6468 L -91.2773,-19.7855 L -91.6075,-19.967 L -91.9123,-20.1884
 L -92.1869,-20.4464 L -92.427,-20.7366 L -92.6289,-21.0547 L -92.7893,-21.3956 L -92.9057,-21.7539 L -92.9763,-22.124
 L -93,-22.5 L -92.9763,-22.876 L -92.9057,-23.2461 L -92.7893,-23.6044 L -92.6289,-23.9453 L -92.427,-24.2634
 L -92.1869,-24.5536 L -91.9123,-24.8115 L -91.6075,-25.033 L -91.2773,-25.2145 L -90.927,-25.3532 L -90.5621,-25.4469
 L -90.1884,-25.4941 L -89.8116,-25.4941 L -89.4379,-25.4469 L -89.073,-25.3532 L -88.7227,-25.2145 L -88.3925,-25.033
 L -88.0877,-24.8115 L -87.8131,-24.5536 L -87.573,-24.2634 L -87.3711,-23.9453 L -87.2107,-23.6044 L -87.0943,-23.2461
 L -87.0237,-22.876 L -87,-22.5 L -87.0237,-22.124 L -87.0943,-21.7539 L -87.2107,-21.3956 L -87.3711,-21.0547
 L -87.573,-20.7366 L -87.8131,-20.4464 L -88.0877,-20.1884 L -88.3925,-19.967 L -88.7227,-19.7855 L -89.073,-19.6468
 L -89.4379,-19.5531 L -89.8116,-19.5059 z
M 89.8116,-19.5059 L 89.4379,-19.5531 L 89.073,-19.6468 L 88.7227,-19.7855 L 88.3925,-19.967 L 88.0877,-20.1884
 L 87.8131,-20.4464 L 87.573,-20.7366 L 87.3711,-21.0547 L 87.2107,-21.3956 L 87.0943,-21.7539 L 87.0237,-22.124
 L 87,-22.5 L 87.0237,-22.876 L 87.0943,-23.2461 L 87.2107,-23.6044 L 87.3711,-23.9453 L 87.573,-24.2634
 L 87.8131,-24.5536 L 88.0877,-24.8115 L 88.3925,-25.033 L 88.7227,-25.2145 L 89.073,-25.3532 L 89.4379,-25.4469
 L 89.8116,-25.4941 L 90.1884,-25.4941 L 90.5621,-25.4469 L 90.927,-25.3532 L 91.2773,-25.2145 L 91.6075,-25.033
 L 91.9123,-24.8115 L 92.1869,-24.5536 L 92.427,-24.2634 L 92.6289,-23.9453 L 92.7893,-23.6044 L 92.9057,-23.2461
 L 92.9763,-22.876 L 93,-22.5 L 92.9763,-22.124 L 92.9057,-21.7539 L 92.7893,-21.3956 L 92.6289,-21.0547
 L 92.427,-20.7366 L 92.1869,-20.4464 L 91.9123,-20.1884 L 91.6075,-19.967 L 91.2773,-19.7855 L 90.927,-19.6468
 L 90.5621,-19.5531 L 90.1884,-19.5059 z
M -71.8186,20.9586 L -74.435,20.628 L -76.9893,19.9722 L -79.4414,19.0014 L -81.7524,17.7309 L -83.8859,16.1808
 L -85.8083,14.3755 L -87.4893,12.3435 L -88.9024,10.1168 L -90.0253,7.73061 L -90.8402,5.22247 L -91.3344,2.63199
 L -91.5,-0 L -91.3344,-2.63199 L -90.8402,-5.22247 L -90.0253,-7.73061 L -88.9024,-10.1168 L -87.4893,-12.3435
 L -85.8083,-14.3755 L -83.8859,-16.1808 L -81.7524,-17.7309 L -79.4414,-19.0014 L -76.9893,-19.9722 L -74.435,-20.628
 L -71.8186,-20.9586 L -69.1814,-20.9586 L -66.565,-20.628 L -64.0106,-19.9722 L -61.5586,-19.0014 L -59.2476,-17.7309
 L -57.1141,-16.1808 L -55.1917,-14.3755 L -53.5106,-12.3435 L -52.0975,-10.1168 L -50.9747,-7.73061 L -50.1597,-5.22247
 L -49.6656,-2.63199 L -49.5,-0 L -49.6656,2.63199 L -50.1597,5.22247 L -50.9747,7.73061 L -52.0975,10.1168
 L -53.5106,12.3435 L -55.1917,14.3755 L -57.1141,16.1808 L -59.2476,17.7309 L -61.5586,19.0014 L -64.0106,19.9722
 L -66.565,20.628 L -69.1814,20.9586 z
M 22.1814,20.9586 L 19.565,20.628 L 17.0106,19.9722 L 14.5586,19.0014 L 12.2476,17.7309 L 10.1141,16.1808
 L 8.19165,14.3755 L 6.51064,12.3435 L 5.09755,10.1168 L 3.97469,7.73061 L 3.15974,5.22247 L 2.66559,2.63199
 L 2.5,-0 L 2.66559,-2.63199 L 3.15974,-5.22247 L 3.97469,-7.73061 L 5.09755,-10.1168 L 6.51064,-12.3435
 L 8.19165,-14.3755 L 10.1141,-16.1808 L 12.2476,-17.7309 L 14.5586,-19.0014 L 17.0106,-19.9722 L 19.565,-20.628
 L 22.1814,-20.9586 L 24.8186,-20.9586 L 27.435,-20.628 L 29.9893,-19.9722 L 32.4414,-19.0014 L 34.7523,-17.7309
 L 36.8859,-16.1808 L 38.8083,-14.3755 L 40.4893,-12.3435 L 41.9024,-10.1168 L 43.0253,-7.73061 L 43.8402,-5.22247
 L 44.3344,-2.63199 L 44.5,-0 L 44.3344,2.63199 L 43.8402,5.22247 L 43.0253,7.73061 L 41.9024,10.1168
 L 40.4893,12.3435 L 38.8083,14.3755 L 36.8859,16.1808 L 34.7523,17.7309 L 32.4414,19.0014 L 29.9893,19.9722
 L 27.435,20.628 L 24.8186,20.9586 z
M -24.8186,20.9586 L -27.435,20.628 L -29.9893,19.9722 L -32.4414,19.0014 L -34.7523,17.7309 L -36.8859,16.1808
 L -38.8083,14.3755 L -40.4893,12.3435 L -41.9024,10.1168 L -43.0253,7.73061 L -43.8402,5.22247 L -44.3344,2.63199
 L -44.5,-0 L -44.3344,-2.63199 L -43.8402,-5.22247 L -43.0253,-7.73061 L -41.9024,-10.1168 L -40.4893,-12.3435
 L -38.8083,-14.3755 L -36.8859,-16.1808 L -34.7523,-17.7309 L -32.4414,-19.0014 L -29.9893,-19.9722 L -27.435,-20.628
 L -24.8186,-20.9586 L -22.1814,-20.9586 L -19.565,-20.628 L -17.0106,-19.9722 L -14.5586,-19.0014 L -12.2476,-17.7309
 L -10.1141,-16.1808 L -8.19165,-14.3755 L -6.51064,-12.3435 L -5.09755,-10.1168 L -3.97469,-7.73061 L -3.15974,-5.22247
 L -2.66559,-2.63199 L -2.5,-0 L -2.66559,2.63199 L -3.15974,5.22247 L -3.97469,7.73061 L -5.09755,10.1168
 L -6.51064,12.3435 L -8.19165,14.3755 L -10.1141,16.1808 L -12.2476,17.7309 L -14.5586,19.0014 L -17.0106,19.9722
 L -19.565,20.628 L -22.1814,20.9586 z
M 69.1814,20.9586 L 66.565,20.628 L 64.0106,19.9722 L 61.5586,19.0014 L 59.2476,17.7309 L 57.1141,16.1808
 L 55.1917,14.3755 L 53.5106,12.3435 L 52.0975,10.1168 L 50.9747,7.73061 L 50.1597,5.22247 L 49.6656,2.63199
 L 49.5,-0 L 49.6656,-2.63199 L 50.1597,-5.22247 L 50.9747,-7.73061 L 52.0975,-10.1168 L 53.5106,-12.3435
 L 55.1917,-14.3755 L 57.1141,-16.1808 L 59.2476,-17.7309 L 61.5586,-19.0014 L 64.0106,-19.9722 L 66.565,-20.628
 L 69.1814,-20.9586 L 71.8186,-20.9586 L 74.435,-20.628 L 76.9893,-19.9722 L 79.4414,-19.0014 L 81.7524,-17.7309
 L 83.8859,-16.1808 L 85.8083,-14.3755 L 87.4893,-12.3435 L 88.9024,-10.1168 L 90.0253,-7.73061 L 90.8402,-5.22247
 L 91.3344,-2.63199 L 91.5,-0 L 91.3344,2.63199 L 90.8402,5.22247 L 90.0253,7.73061 L 88.9024,10.1168
 L 87.4893,12.3435 L 85.8083,14.3755 L 83.8859,16.1808 L 81.7524,17.7309 L 79.4414,19.0014 L 76.9893,19.9722
 L 74.435,20.628 L 71.8186,20.9586 z
M 89.8116,25.4941 L 89.4379,25.4469 L 89.073,25.3532 L 88.7227,25.2145 L 88.3925,25.033 L 88.0877,24.8115
 L 87.8131,24.5536 L 87.573,24.2634 L 87.3711,23.9453 L 87.2107,23.6044 L 87.0943,23.2461 L 87.0237,22.876
 L 87,22.5 L 87.0237,22.124 L 87.0943,21.7539 L 87.2107,21.3956 L 87.3711,21.0547 L 87.573,20.7366
 L 87.8131,20.4464 L 88.0877,20.1884 L 88.3925,19.967 L 88.7227,19.7855 L 89.073,19.6468 L 89.4379,19.5531
 L 89.8116,19.5059 L 90.1884,19.5059 L 90.5621,19.5531 L 90.927,19.6468 L 91.2773,19.7855 L 91.6075,19.967
 L 91.9123,20.1884 L 92.1869,20.4464 L 92.427,20.7366 L 92.6289,21.0547 L 92.7893,21.3956 L 92.9057,21.7539
 L 92.9763,22.124 L 93,22.5 L 92.9763,22.876 L 92.9057,23.2461 L 92.7893,23.6044 L 92.6289,23.9453
 L 92.427,24.2634 L 92.1869,24.5536 L 91.9123,24.8115 L 91.6075,25.033 L 91.2773,25.2145 L 90.927,25.3532
 L 90.5621,25.4469 L 90.1884,25.4941 z
M -90.1884,25.4941 L -90.5621,25.4469 L -90.927,25.3532 L -91.2773,25.2145 L -91.6075,25.033 L -91.9123,24.8115
 L -92.1869,24.5536 L -92.427,24.2634 L -92.6289,23.9453 L -92.7893,23.6044 L -92.9057,23.2461 L -92.9763,22.876
 L -93,22.5 L -92.9763,22.124 L -92.9057,21.7539 L -92.7893,21.3956 L -92.6289,21.0547 L -92.427,20.7366
 L -92.1869,20.4464 L -91.9123,20.1884 L -91.6075,19.967 L -91.2773,19.7855 L -90.927,19.6468 L -90.5621,19.5531
 L -90.1884,19.5059 L -89.8116,19.5059 L -89.4379,19.5531 L -89.073,19.6468 L -88.7227,19.7855 L -88.3925,19.967
 L -88.0877,20.1884 L -87.8131,20.4464 L -87.573,20.7366 L -87.3711,21.0547 L -87.2107,21.3956 L -87.0943,21.7539
 L -87.0237,22.124 L -87,22.5 L -87.0237,22.876 L -87.0943,23.2461 L -87.2107,23.6044 L -87.3711,23.9453
 L -87.573,24.2634 L -87.8131,24.5536 L -88.0877,24.8115 L -88.3925,25.033 L -88.7227,25.2145 L -89.073,25.3532
 L -89.4379,25.4469 L -89.8116,25.4941 z
" stroke="black" fill="lightgray" stroke-width="0.5"/>
</svg>
