<?xml version="1.0" standalone="no"?>
<!DOCTYPE svg PUBLIC "-//W3C//DTD SVG 1.1//EN" "http://www.w3.org/Graphics/SVG/1.1/DTD/svg11.dtd">
<svg width="30mm" height="30mm" viewBox="-15 -15 30 30" xmlns="http://www.w3.org/2000/svg" version="1.1">
<title>OpenSCAD Model</title>
<path d="
M 10.4369,14.4114 L 11.0451,14.2553 L 11.6289,14.0241 L 12.1791,13.7216 L 12.6871,13.3526 L 13.1448,12.9227
 L 13.5451,12.4389 L 13.8815,11.9088 L 14.1489,11.3406 L 14.3429,10.7434 L 14.4606,10.1267 L 14.5,9.5
 L 14.5,-9.5 L 14.4606,-10.1267 L 14.3429,-10.7434 L 14.1489,-11.3406 L 13.8815,-11.9088 L 13.5451,-12.4389
 L 13.1448,-12.9227 L 12.6871,-13.3526 L 12.1791,-13.7216 L 11.6289,-14.0241 L 11.0451,-14.2553 L 10.4369,-14.4114
 L 9.81395,-14.4901 L -9.81395,-14.4901 L -10.4369,-14.4114 L -11.0451,-14.2553 L -11.6289,-14.0241 L -12.1791,-13.7216
 L -12.6871,-13.3526 L -13.1448,-12.9227 L -13.5451,-12.4389 L -13.8815,-11.9088 L -14.1489,-11.3406 L -14.3429,-10.7434
 L -14.4606,-10.1267 L -14.5,-9.5 L -14.5,9.5 L -14.4606,10.1267 L -14.3429,10.7434 L -14.1489,11.3406
 L -13.8815,11.9088 L -13.5451,12.4389 L -13.1448,12.9227 L -12.6871,13.3526 L -12.1791,13.7216 L -11.6289,14.0241
 L -11.0451,14.2553 L -10.4369,14.4114 L -9.81395,14.4901 L 9.81395,14.4901 z
M -7.68837,10.4941 L -8.06213,10.4469 L -8.42705,10.3532 L -8.77733,10.2145 L -9.10747,10.033 L -9.41226,9.81154
 L -9.6869,9.55363 L -9.92705,9.26335 L -10.1289,8.94525 L -10.2893,8.60437 L -10.4057,8.24606 L -10.4763,7.87599
 L -10.5,7.5 L -10.4763,7.12399 L -10.4057,6.75392 L -10.2893,6.39561 L -10.1289,6.05473 L -9.92705,5.73663
 L -9.6869,5.44635 L -9.41226,5.18845 L -9.20938,5.04105 L -9.76265,3.8653 L -10.1701,2.61124 L -10.4172,1.31599
 L -10.5,-0 L -10.4172,-1.31599 L -10.1701,-2.61124 L -9.76265,-3.8653 L -9.20938,-5.04105 L -9.41226,-5.18845
 L -9.6869,-5.44635 L -9.92705,-5.73663 L -10.1289,-6.05473 L -10.2893,-6.39561 L -10.4057,-6.75392 L -10.4763,-7.12399
 L -10.5,-7.5 L -10.4763,-7.87599 L -10.4057,-8.24606 L -10.2893,-8.60437 L -10.1289,-8.94525 L -9.92705,-9.26335
 L -9.6869,-9.55363 L -9.41226,-9.81154 L -9.10747,-10.033 L -8.77733,-10.2145 L -8.42705,-10.3532 L -8.06213,-10.4469
 L -7.68837,-10.4941 L -7.31161,-10.4941 L -6.93785,-10.4469 L -6.57294,-10.3532 L -6.22266,-10.2145 L -5.89252,-10.033
 L -5.58772,-9.81154 L -5.31308,-9.55363 L -5.07294,-9.26335 L -5.02882,-9.19383 L -4.47067,-9.50067 L -3.24467,-9.98608
 L -1.9675,-10.314 L -0.659286,-10.4793 L 0.659286,-10.4793 L 1.9675,-10.314 L 3.24467,-9.98608 L 4.47067,-9.50067
 L 5.02882,-9.19383 L 5.07294,-9.26335 L 5.31308,-9.55363 L 5.58772,-9.81154 L 5.89252,-10.033 L 6.22266,-10.2145
 L 6.57294,-10.3532 L 6.93785,-10.4469 L 7.31161,-10.4941 L 7.68837,-10.4941 L 8.06213,-10.4469 L 8.42705,-10.3532
 L 8.77733,-10.2145 L 9.10747,-10.033 L 9.41226,-9.81154 L 9.6869,-9.55363 L 9.92705,-9.26335 L 10.1289,-8.94525
 L 10.2893,-8.60437 L 10.4057,-8.24606 L 10.4763,-7.87599 L 10.5,-7.5 L 10.4763,-7.12399 L 10.4057,-6.75392
 L 10.2893,-6.39561 L 10.1289,-6.05473 L 9.92705,-5.73663 L 9.6869,-5.44635 L 9.41226,-5.18845 L 9.20938,-5.04105
 L 9.76265,-3.8653 L 10.1701,-2.61124 L 10.4172,-1.31599 L 10.5,-0 L 10.4172,1.31599 L 10.1701,2.61124
 L 9.76265,3.8653 L 9.20938,5.04105 L 9.41226,5.18845 L 9.6869,5.44635 L 9.92705,5.73663 L 10.1289,6.05473
 L 10.2893,6.39561 L 10.4057,6.75392 L 10.4763,7.12399 L 10.5,7.5 L 10.4763,7.87599 L 10.4057,8.24606
 L 10.2893,8.60437 L 10.1289,8.94525 L 9.92705,9.26335 L 9.6869,9.55363 L 9.41226,9.81154 L 9.10747,10.033
 L 8.77733,10.2145 L 8.42705,10.3532 L 8.06213,10.4469 L 7.68837,10.4941 L 7.31161,10.4941 L 6.93785,10.4469
 L 6.57294,10.3532 L 6.22266,10.2145 L 5.89252,10.033 L 5.58772,9.81154 L 5.31308,9.55363 L 5.07294,9.26335
 L 5.02882,9.19383 L 4.47067,9.50067 L 3.24467,9.98608 L 1.9675,10.314 L 0.659286,10.4793 L -0.659286,10.4793
 L -1.9675,10.314 L -3.24467,9.98608 L -4.47067,9.50067 L -5.02882,9.19383 L -5.07294,9.26335 L -5.31308,9.55363
 L -5.58772,9.81154 L -5.89252,10.033 L -6.22266,10.2145 L -6.57294,10.3532 L -6.93785,10.4469 L -7.31161,10.4941
 z
" stroke="black" fill="lightgray" stroke-width="0.5"/>
</svg>
