  0
SECTION
  2
BLOCKS
  0
ENDSEC
  0
SECTION
  2
ENTITIES
  0
LINE
  8
0
 10
250.437
 20
-66.9114
 11
251.045
 21
-66.7553
  0
LINE
  8
0
 10
251.045
 20
-66.7553
 11
251.629
 21
-66.5241
  0
LINE
  8
0
 10
251.629
 20
-66.5241
 11
252.179
 21
-66.2216
  0
LINE
  8
0
 10
252.179
 20
-66.2216
 11
252.687
 21
-65.8526
  0
LINE
  8
0
 10
252.687
 20
-65.8526
 11
253.145
 21
-65.4227
  0
LINE
  8
0
 10
253.145
 20
-65.4227
 11
253.545
 21
-64.9389
  0
LINE
  8
0
 10
253.545
 20
-64.9389
 11
253.882
 21
-64.4088
  0
LINE
  8
0
 10
253.882
 20
-64.4088
 11
254.149
 21
-63.8406
  0
LINE
  8
0
 10
254.149
 20
-63.8406
 11
254.343
 21
-63.2434
  0
LINE
  8
0
 10
254.343
 20
-63.2434
 11
254.461
 21
-62.6267
  0
LINE
  8
0
 10
254.461
 20
-62.6267
 11
254.5
 21
-62
  0
LINE
  8
0
 10
254.5
 20
-62
 11
254.5
 21
62
  0
LINE
  8
0
 10
254.5
 20
62
 11
254.461
 21
62.6267
  0
LINE
  8
0
 10
254.461
 20
62.6267
 11
254.343
 21
63.2434
  0
LINE
  8
0
 10
254.343
 20
63.2434
 11
254.149
 21
63.8406
  0
LINE
  8
0
 10
254.149
 20
63.8406
 11
253.882
 21
64.4088
  0
LINE
  8
0
 10
253.882
 20
64.4088
 11
253.545
 21
64.9389
  0
LINE
  8
0
 10
253.545
 20
64.9389
 11
253.145
 21
65.4227
  0
LINE
  8
0
 10
253.145
 20
65.4227
 11
252.687
 21
65.8526
  0
LINE
  8
0
 10
252.687
 20
65.8526
 11
252.179
 21
66.2216
  0
LINE
  8
0
 10
252.179
 20
66.2216
 11
251.629
 21
66.5241
  0
LINE
  8
0
 10
251.629
 20
66.5241
 11
251.045
 21
66.7553
  0
LINE
  8
0
 10
251.045
 20
66.7553
 11
250.437
 21
66.9114
  0
LINE
  8
0
 10
250.437
 20
66.9114
 11
249.814
 21
66.9901
  0
LINE
  8
0
 10
249.814
 20
66.9901
 11
-249.814
 21
66.9901
  0
LINE
  8
0
 10
-249.814
 20
66.9901
 11
-250.437
 21
66.9114
  0
LINE
  8
0
 10
-250.437
 20
66.9114
 11
-251.045
 21
66.7553
  0
LINE
  8
0
 10
-251.045
 20
66.7553
 11
-251.629
 21
66.5241
  0
LINE
  8
0
 10
-251.629
 20
66.5241
 11
-252.179
 21
66.2216
  0
LINE
  8
0
 10
-252.179
 20
66.2216
 11
-252.687
 21
65.8526
  0
LINE
  8
0
 10
-252.687
 20
65.8526
 11
-253.145
 21
65.4227
  0
LINE
  8
0
 10
-253.145
 20
65.4227
 11
-253.545
 21
64.9389
  0
LINE
  8
0
 10
-253.545
 20
64.9389
 11
-253.882
 21
64.4088
  0
LINE
  8
0
 10
-253.882
 20
64.4088
 11
-254.149
 21
63.8406
  0
LINE
  8
0
 10
-254.149
 20
63.8406
 11
-254.343
 21
63.2434
  0
LINE
  8
0
 10
-254.343
 20
63.2434
 11
-254.461
 21
62.6267
  0
LINE
  8
0
 10
-254.461
 20
62.6267
 11
-254.5
 21
62
  0
LINE
  8
0
 10
-254.5
 20
62
 11
-254.5
 21
-62
  0
LINE
  8
0
 10
-254.5
 20
-62
 11
-254.461
 21
-62.6267
  0
LINE
  8
0
 10
-254.461
 20
-62.6267
 11
-254.343
 21
-63.2434
  0
LINE
  8
0
 10
-254.343
 20
-63.2434
 11
-254.149
 21
-63.8406
  0
LINE
  8
0
 10
-254.149
 20
-63.8406
 11
-253.882
 21
-64.4088
  0
LINE
  8
0
 10
-253.882
 20
-64.4088
 11
-253.545
 21
-64.9389
  0
LINE
  8
0
 10
-253.545
 20
-64.9389
 11
-253.145
 21
-65.4227
  0
LINE
  8
0
 10
-253.145
 20
-65.4227
 11
-252.687
 21
-65.8526
  0
LINE
  8
0
 10
-252.687
 20
-65.8526
 11
-252.179
 21
-66.2216
  0
LINE
  8
0
 10
-252.179
 20
-66.2216
 11
-251.629
 21
-66.5241
  0
LINE
  8
0
 10
-251.629
 20
-66.5241
 11
-251.045
 21
-66.7553
  0
LINE
  8
0
 10
-251.045
 20
-66.7553
 11
-250.437
 21
-66.9114
  0
LINE
  8
0
 10
-250.437
 20
-66.9114
 11
-249.814
 21
-66.9901
  0
LINE
  8
0
 10
-249.814
 20
-66.9901
 11
249.814
 21
-66.9901
  0
LINE
  8
0
 10
249.814
 20
-66.9901
 11
250.437
 21
-66.9114
  0
LINE
  8
0
 10
-247.688
 20
57.0059
 11
-248.062
 21
57.0531
  0
LINE
  8
0
 10
-248.062
 20
57.0531
 11
-248.427
 21
57.1468
  0
LINE
  8
0
 10
-248.427
 20
57.1468
 11
-248.777
 21
57.2855
  0
LINE
  8
0
 10
-248.777
 20
57.2855
 11
-249.107
 21
57.467
  0
LINE
  8
0
 10
-249.107
 20
57.467
 11
-249.412
 21
57.6885
  0
LINE
  8
0
 10
-249.412
 20
57.6885
 11
-249.687
 21
57.9464
  0
LINE
  8
0
 10
-249.687
 20
57.9464
 11
-249.927
 21
58.2366
  0
LINE
  8
0
 10
-249.927
 20
58.2366
 11
-250.129
 21
58.5547
  0
LINE
  8
0
 10
-250.129
 20
58.5547
 11
-250.289
 21
58.8956
  0
LINE
  8
0
 10
-250.289
 20
58.8956
 11
-250.406
 21
59.2539
  0
LINE
  8
0
 10
-250.406
 20
59.2539
 11
-250.476
 21
59.624
  0
LINE
  8
0
 10
-250.476
 20
59.624
 11
-250.5
 21
60
  0
LINE
  8
0
 10
-250.5
 20
60
 11
-250.476
 21
60.376
  0
LINE
  8
0
 10
-250.476
 20
60.376
 11
-250.406
 21
60.7461
  0
LINE
  8
0
 10
-250.406
 20
60.7461
 11
-250.289
 21
61.1044
  0
LINE
  8
0
 10
-250.289
 20
61.1044
 11
-250.129
 21
61.4453
  0
LINE
  8
0
 10
-250.129
 20
61.4453
 11
-249.927
 21
61.7634
  0
LINE
  8
0
 10
-249.927
 20
61.7634
 11
-249.687
 21
62.0536
  0
LINE
  8
0
 10
-249.687
 20
62.0536
 11
-249.412
 21
62.3115
  0
LINE
  8
0
 10
-249.412
 20
62.3115
 11
-249.107
 21
62.533
  0
LINE
  8
0
 10
-249.107
 20
62.533
 11
-248.777
 21
62.7145
  0
LINE
  8
0
 10
-248.777
 20
62.7145
 11
-248.427
 21
62.8532
  0
LINE
  8
0
 10
-248.427
 20
62.8532
 11
-248.062
 21
62.9469
  0
LINE
  8
0
 10
-248.062
 20
62.9469
 11
-247.688
 21
62.9941
  0
LINE
  8
0
 10
-247.688
 20
62.9941
 11
-247.312
 21
62.9941
  0
LINE
  8
0
 10
-247.312
 20
62.9941
 11
-246.938
 21
62.9469
  0
LINE
  8
0
 10
-246.938
 20
62.9469
 11
-246.573
 21
62.8532
  0
LINE
  8
0
 10
-246.573
 20
62.8532
 11
-246.223
 21
62.7145
  0
LINE
  8
0
 10
-246.223
 20
62.7145
 11
-245.893
 21
62.533
  0
LINE
  8
0
 10
-245.893
 20
62.533
 11
-245.588
 21
62.3115
  0
LINE
  8
0
 10
-245.588
 20
62.3115
 11
-245.313
 21
62.0536
  0
LINE
  8
0
 10
-245.313
 20
62.0536
 11
-245.073
 21
61.7634
  0
LINE
  8
0
 10
-245.073
 20
61.7634
 11
-244.871
 21
61.4453
  0
LINE
  8
0
 10
-244.871
 20
61.4453
 11
-244.711
 21
61.1044
  0
LINE
  8
0
 10
-244.711
 20
61.1044
 11
-244.594
 21
60.7461
  0
LINE
  8
0
 10
-244.594
 20
60.7461
 11
-244.524
 21
60.376
  0
LINE
  8
0
 10
-244.524
 20
60.376
 11
-244.5
 21
60
  0
LINE
  8
0
 10
-244.5
 20
60
 11
-244.524
 21
59.624
  0
LINE
  8
0
 10
-244.524
 20
59.624
 11
-244.594
 21
59.2539
  0
LINE
  8
0
 10
-244.594
 20
59.2539
 11
-244.711
 21
58.8956
  0
LINE
  8
0
 10
-244.711
 20
58.8956
 11
-244.871
 21
58.5547
  0
LINE
  8
0
 10
-244.871
 20
58.5547
 11
-245.073
 21
58.2366
  0
LINE
  8
0
 10
-245.073
 20
58.2366
 11
-245.313
 21
57.9464
  0
LINE
  8
0
 10
-245.313
 20
57.9464
 11
-245.588
 21
57.6885
  0
LINE
  8
0
 10
-245.588
 20
57.6885
 11
-245.893
 21
57.467
  0
LINE
  8
0
 10
-245.893
 20
57.467
 11
-246.223
 21
57.2855
  0
LINE
  8
0
 10
-246.223
 20
57.2855
 11
-246.573
 21
57.1468
  0
LINE
  8
0
 10
-246.573
 20
57.1468
 11
-246.938
 21
57.0531
  0
LINE
  8
0
 10
-246.938
 20
57.0531
 11
-247.312
 21
57.0059
  0
LINE
  8
0
 10
-247.312
 20
57.0059
 11
-247.688
 21
57.0059
  0
LINE
  8
0
 10
247.312
 20
57.0059
 11
246.938
 21
57.0531
  0
LINE
  8
0
 10
246.938
 20
57.0531
 11
246.573
 21
57.1468
  0
LINE
  8
0
 10
246.573
 20
57.1468
 11
246.223
 21
57.2855
  0
LINE
  8
0
 10
246.223
 20
57.2855
 11
245.893
 21
57.467
  0
LINE
  8
0
 10
245.893
 20
57.467
 11
245.588
 21
57.6885
  0
LINE
  8
0
 10
245.588
 20
57.6885
 11
245.313
 21
57.9464
  0
LINE
  8
0
 10
245.313
 20
57.9464
 11
245.073
 21
58.2366
  0
LINE
  8
0
 10
245.073
 20
58.2366
 11
244.871
 21
58.5547
  0
LINE
  8
0
 10
244.871
 20
58.5547
 11
244.711
 21
58.8956
  0
LINE
  8
0
 10
244.711
 20
58.8956
 11
244.594
 21
59.2539
  0
LINE
  8
0
 10
244.594
 20
59.2539
 11
244.524
 21
59.624
  0
LINE
  8
0
 10
244.524
 20
59.624
 11
244.5
 21
60
  0
LINE
  8
0
 10
244.5
 20
60
 11
244.524
 21
60.376
  0
LINE
  8
0
 10
244.524
 20
60.376
 11
244.594
 21
60.7461
  0
LINE
  8
0
 10
244.594
 20
60.7461
 11
244.711
 21
61.1044
  0
LINE
  8
0
 10
244.711
 20
61.1044
 11
244.871
 21
61.4453
  0
LINE
  8
0
 10
244.871
 20
61.4453
 11
245.073
 21
61.7634
  0
LINE
  8
0
 10
245.073
 20
61.7634
 11
245.313
 21
62.0536
  0
LINE
  8
0
 10
245.313
 20
62.0536
 11
245.588
 21
62.3115
  0
LINE
  8
0
 10
245.588
 20
62.3115
 11
245.893
 21
62.533
  0
LINE
  8
0
 10
245.893
 20
62.533
 11
246.223
 21
62.7145
  0
LINE
  8
0
 10
246.223
 20
62.7145
 11
246.573
 21
62.8532
  0
LINE
  8
0
 10
246.573
 20
62.8532
 11
246.938
 21
62.9469
  0
LINE
  8
0
 10
246.938
 20
62.9469
 11
247.312
 21
62.9941
  0
LINE
  8
0
 10
247.312
 20
62.9941
 11
247.688
 21
62.9941
  0
LINE
  8
0
 10
247.688
 20
62.9941
 11
248.062
 21
62.9469
  0
LINE
  8
0
 10
248.062
 20
62.9469
 11
248.427
 21
62.8532
  0
LINE
  8
0
 10
248.427
 20
62.8532
 11
248.777
 21
62.7145
  0
LINE
  8
0
 10
248.777
 20
62.7145
 11
249.107
 21
62.533
  0
LINE
  8
0
 10
249.107
 20
62.533
 11
249.412
 21
62.3115
  0
LINE
  8
0
 10
249.412
 20
62.3115
 11
249.687
 21
62.0536
  0
LINE
  8
0
 10
249.687
 20
62.0536
 11
249.927
 21
61.7634
  0
LINE
  8
0
 10
249.927
 20
61.7634
 11
250.129
 21
61.4453
  0
LINE
  8
0
 10
250.129
 20
61.4453
 11
250.289
 21
61.1044
  0
LINE
  8
0
 10
250.289
 20
61.1044
 11
250.406
 21
60.7461
  0
LINE
  8
0
 10
250.406
 20
60.7461
 11
250.476
 21
60.376
  0
LINE
  8
0
 10
250.476
 20
60.376
 11
250.5
 21
60
  0
LINE
  8
0
 10
250.5
 20
60
 11
250.476
 21
59.624
  0
LINE
  8
0
 10
250.476
 20
59.624
 11
250.406
 21
59.2539
  0
LINE
  8
0
 10
250.406
 20
59.2539
 11
250.289
 21
58.8956
  0
LINE
  8
0
 10
250.289
 20
58.8956
 11
250.129
 21
58.5547
  0
LINE
  8
0
 10
250.129
 20
58.5547
 11
249.927
 21
58.2366
  0
LINE
  8
0
 10
249.927
 20
58.2366
 11
249.687
 21
57.9464
  0
LINE
  8
0
 10
249.687
 20
57.9464
 11
249.412
 21
57.6885
  0
LINE
  8
0
 10
249.412
 20
57.6885
 11
249.107
 21
57.467
  0
LINE
  8
0
 10
249.107
 20
57.467
 11
248.777
 21
57.2855
  0
LINE
  8
0
 10
248.777
 20
57.2855
 11
248.427
 21
57.1468
  0
LINE
  8
0
 10
248.427
 20
57.1468
 11
248.062
 21
57.0531
  0
LINE
  8
0
 10
248.062
 20
57.0531
 11
247.688
 21
57.0059
  0
LINE
  8
0
 10
247.688
 20
57.0059
 11
247.312
 21
57.0059
  0
LINE
  8
0
 10
183.733
 20
-59.8816
 11
176.257
 21
-58.9372
  0
LINE
  8
0
 10
176.257
 20
-58.9372
 11
168.959
 21
-57.0634
  0
LINE
  8
0
 10
168.959
 20
-57.0634
 11
161.953
 21
-54.2896
  0
LINE
  8
0
 10
161.953
 20
-54.2896
 11
155.35
 21
-50.6597
  0
LINE
  8
0
 10
155.35
 20
-50.6597
 11
149.255
 21
-46.2308
  0
LINE
  8
0
 10
149.255
 20
-46.2308
 11
143.762
 21
-41.0728
  0
LINE
  8
0
 10
143.762
 20
-41.0728
 11
138.959
 21
-35.2671
  0
LINE
  8
0
 10
138.959
 20
-35.2671
 11
134.922
 21
-28.9052
  0
LINE
  8
0
 10
134.922
 20
-28.9052
 11
131.713
 21
-22.0875
  0
LINE
  8
0
 10
131.713
 20
-22.0875
 11
129.385
 21
-14.9214
  0
LINE
  8
0
 10
129.385
 20
-14.9214
 11
127.973
 21
-7.51999
  0
LINE
  8
0
 10
127.973
 20
-7.51999
 11
127.5
 21
0
  0
LINE
  8
0
 10
127.5
 20
0
 11
127.973
 21
7.51999
  0
LINE
  8
0
 10
127.973
 20
7.51999
 11
129.385
 21
14.9214
  0
LINE
  8
0
 10
129.385
 20
14.9214
 11
131.713
 21
22.0875
  0
LINE
  8
0
 10
131.713
 20
22.0875
 11
134.922
 21
28.9052
  0
LINE
  8
0
 10
134.922
 20
28.9052
 11
138.959
 21
35.2671
  0
LINE
  8
0
 10
138.959
 20
35.2671
 11
143.762
 21
41.0728
  0
LINE
  8
0
 10
143.762
 20
41.0728
 11
149.255
 21
46.2308
  0
LINE
  8
0
 10
149.255
 20
46.2308
 11
155.35
 21
50.6597
  0
LINE
  8
0
 10
155.35
 20
50.6597
 11
161.953
 21
54.2896
  0
LINE
  8
0
 10
161.953
 20
54.2896
 11
168.959
 21
57.0634
  0
LINE
  8
0
 10
168.959
 20
57.0634
 11
176.257
 21
58.9372
  0
LINE
  8
0
 10
176.257
 20
58.9372
 11
183.733
 21
59.8816
  0
LINE
  8
0
 10
183.733
 20
59.8816
 11
191.267
 21
59.8816
  0
LINE
  8
0
 10
191.267
 20
59.8816
 11
198.743
 21
58.9372
  0
LINE
  8
0
 10
198.743
 20
58.9372
 11
206.041
 21
57.0634
  0
LINE
  8
0
 10
206.041
 20
57.0634
 11
213.047
 21
54.2896
  0
LINE
  8
0
 10
213.047
 20
54.2896
 11
219.65
 21
50.6597
  0
LINE
  8
0
 10
219.65
 20
50.6597
 11
225.745
 21
46.2308
  0
LINE
  8
0
 10
225.745
 20
46.2308
 11
231.238
 21
41.0728
  0
LINE
  8
0
 10
231.238
 20
41.0728
 11
236.041
 21
35.2671
  0
LINE
  8
0
 10
236.041
 20
35.2671
 11
240.078
 21
28.9052
  0
LINE
  8
0
 10
240.078
 20
28.9052
 11
243.287
 21
22.0875
  0
LINE
  8
0
 10
243.287
 20
22.0875
 11
245.615
 21
14.9214
  0
LINE
  8
0
 10
245.615
 20
14.9214
 11
247.027
 21
7.51999
  0
LINE
  8
0
 10
247.027
 20
7.51999
 11
247.5
 21
0
  0
LINE
  8
0
 10
247.5
 20
0
 11
247.027
 21
-7.51999
  0
LINE
  8
0
 10
247.027
 20
-7.51999
 11
245.615
 21
-14.9214
  0
LINE
  8
0
 10
245.615
 20
-14.9214
 11
243.287
 21
-22.0875
  0
LINE
  8
0
 10
243.287
 20
-22.0875
 11
240.078
 21
-28.9052
  0
LINE
  8
0
 10
240.078
 20
-28.9052
 11
236.041
 21
-35.2671
  0
LINE
  8
0
 10
236.041
 20
-35.2671
 11
231.238
 21
-41.0728
  0
LINE
  8
0
 10
231.238
 20
-41.0728
 11
225.745
 21
-46.2308
  0
LINE
  8
0
 10
225.745
 20
-46.2308
 11
219.65
 21
-50.6597
  0
LINE
  8
0
 10
219.65
 20
-50.6597
 11
213.047
 21
-54.2896
  0
LINE
  8
0
 10
213.047
 20
-54.2896
 11
206.041
 21
-57.0634
  0
LINE
  8
0
 10
206.041
 20
-57.0634
 11
198.743
 21
-58.9372
  0
LINE
  8
0
 10
198.743
 20
-58.9372
 11
191.267
 21
-59.8816
  0
LINE
  8
0
 10
191.267
 20
-59.8816
 11
183.733
 21
-59.8816
  0
LINE
  8
0
 10
-191.267
 20
-59.8816
 11
-198.743
 21
-58.9372
  0
LINE
  8
0
 10
-198.743
 20
-58.9372
 11
-206.041
 21
-57.0634
  0
LINE
  8
0
 10
-206.041
 20
-57.0634
 11
-213.047
 21
-54.2896
  0
LINE
  8
0
 10
-213.047
 20
-54.2896
 11
-219.65
 21
-50.6597
  0
LINE
  8
0
 10
-219.65
 20
-50.6597
 11
-225.745
 21
-46.2308
  0
LINE
  8
0
 10
-225.745
 20
-46.2308
 11
-231.238
 21
-41.0728
  0
LINE
  8
0
 10
-231.238
 20
-41.0728
 11
-236.041
 21
-35.2671
  0
LINE
  8
0
 10
-236.041
 20
-35.2671
 11
-240.078
 21
-28.9052
  0
LINE
  8
0
 10
-240.078
 20
-28.9052
 11
-243.287
 21
-22.0875
  0
LINE
  8
0
 10
-243.287
 20
-22.0875
 11
-245.615
 21
-14.9214
  0
LINE
  8
0
 10
-245.615
 20
-14.9214
 11
-247.027
 21
-7.51999
  0
LINE
  8
0
 10
-247.027
 20
-7.51999
 11
-247.5
 21
0
  0
LINE
  8
0
 10
-247.5
 20
0
 11
-247.027
 21
7.51999
  0
LINE
  8
0
 10
-247.027
 20
7.51999
 11
-245.615
 21
14.9214
  0
LINE
  8
0
 10
-245.615
 20
14.9214
 11
-243.287
 21
22.0875
  0
LINE
  8
0
 10
-243.287
 20
22.0875
 11
-240.078
 21
28.9052
  0
LINE
  8
0
 10
-240.078
 20
28.9052
 11
-236.041
 21
35.2671
  0
LINE
  8
0
 10
-236.041
 20
35.2671
 11
-231.238
 21
41.0728
  0
LINE
  8
0
 10
-231.238
 20
41.0728
 11
-225.745
 21
46.2308
  0
LINE
  8
0
 10
-225.745
 20
46.2308
 11
-219.65
 21
50.6597
  0
LINE
  8
0
 10
-219.65
 20
50.6597
 11
-213.047
 21
54.2896
  0
LINE
  8
0
 10
-213.047
 20
54.2896
 11
-206.041
 21
57.0634
  0
LINE
  8
0
 10
-206.041
 20
57.0634
 11
-198.743
 21
58.9372
  0
LINE
  8
0
 10
-198.743
 20
58.9372
 11
-191.267
 21
59.8816
  0
LINE
  8
0
 10
-191.267
 20
59.8816
 11
-183.733
 21
59.8816
  0
LINE
  8
0
 10
-183.733
 20
59.8816
 11
-176.257
 21
58.9372
  0
LINE
  8
0
 10
-176.257
 20
58.9372
 11
-168.959
 21
57.0634
  0
LINE
  8
0
 10
-168.959
 20
57.0634
 11
-161.953
 21
54.2896
  0
LINE
  8
0
 10
-161.953
 20
54.2896
 11
-155.35
 21
50.6597
  0
LINE
  8
0
 10
-155.35
 20
50.6597
 11
-149.255
 21
46.2308
  0
LINE
  8
0
 10
-149.255
 20
46.2308
 11
-143.762
 21
41.0728
  0
LINE
  8
0
 10
-143.762
 20
41.0728
 11
-138.959
 21
35.2671
  0
LINE
  8
0
 10
-138.959
 20
35.2671
 11
-134.922
 21
28.9052
  0
LINE
  8
0
 10
-134.922
 20
28.9052
 11
-131.713
 21
22.0875
  0
LINE
  8
0
 10
-131.713
 20
22.0875
 11
-129.385
 21
14.9214
  0
LINE
  8
0
 10
-129.385
 20
14.9214
 11
-127.973
 21
7.51999
  0
LINE
  8
0
 10
-127.973
 20
7.51999
 11
-127.5
 21
0
  0
LINE
  8
0
 10
-127.5
 20
0
 11
-127.973
 21
-7.51999
  0
LINE
  8
0
 10
-127.973
 20
-7.51999
 11
-129.385
 21
-14.9214
  0
LINE
  8
0
 10
-129.385
 20
-14.9214
 11
-131.713
 21
-22.0875
  0
LINE
  8
0
 10
-131.713
 20
-22.0875
 11
-134.922
 21
-28.9052
  0
LINE
  8
0
 10
-134.922
 20
-28.9052
 11
-138.959
 21
-35.2671
  0
LINE
  8
0
 10
-138.959
 20
-35.2671
 11
-143.762
 21
-41.0728
  0
LINE
  8
0
 10
-143.762
 20
-41.0728
 11
-149.255
 21
-46.2308
  0
LINE
  8
0
 10
-149.255
 20
-46.2308
 11
-155.35
 21
-50.6597
  0
LINE
  8
0
 10
-155.35
 20
-50.6597
 11
-161.953
 21
-54.2896
  0
LINE
  8
0
 10
-161.953
 20
-54.2896
 11
-168.959
 21
-57.0634
  0
LINE
  8
0
 10
-168.959
 20
-57.0634
 11
-176.257
 21
-58.9372
  0
LINE
  8
0
 10
-176.257
 20
-58.9372
 11
-183.733
 21
-59.8816
  0
LINE
  8
0
 10
-183.733
 20
-59.8816
 11
-191.267
 21
-59.8816
  0
LINE
  8
0
 10
58.7326
 20
-59.8816
 11
51.2571
 21
-58.9372
  0
LINE
  8
0
 10
51.2571
 20
-58.9372
 11
43.959
 21
-57.0634
  0
LINE
  8
0
 10
43.959
 20
-57.0634
 11
36.9532
 21
-54.2896
  0
LINE
  8
0
 10
36.9532
 20
-54.2896
 11
30.3504
 21
-50.6597
  0
LINE
  8
0
 10
30.3504
 20
-50.6597
 11
24.2545
 21
-46.2308
  0
LINE
  8
0
 10
24.2545
 20
-46.2308
 11
18.7619
 21
-41.0728
  0
LINE
  8
0
 10
18.7619
 20
-41.0728
 11
13.959
 21
-35.2671
  0
LINE
  8
0
 10
13.959
 20
-35.2671
 11
9.92159
 21
-28.9052
  0
LINE
  8
0
 10
9.92159
 20
-28.9052
 11
6.71341
 21
-22.0875
  0
LINE
  8
0
 10
6.71341
 20
-22.0875
 11
4.38501
 21
-14.9214
  0
LINE
  8
0
 10
4.38501
 20
-14.9214
 11
2.97311
 21
-7.51999
  0
LINE
  8
0
 10
2.97311
 20
-7.51999
 11
2.5
 21
0
  0
LINE
  8
0
 10
2.5
 20
0
 11
2.97311
 21
7.51999
  0
LINE
  8
0
 10
2.97311
 20
7.51999
 11
4.38501
 21
14.9214
  0
LINE
  8
0
 10
4.38501
 20
14.9214
 11
6.71341
 21
22.0875
  0
LINE
  8
0
 10
6.71341
 20
22.0875
 11
9.92159
 21
28.9052
  0
LINE
  8
0
 10
9.92159
 20
28.9052
 11
13.959
 21
35.2671
  0
LINE
  8
0
 10
13.959
 20
35.2671
 11
18.7619
 21
41.0728
  0
LINE
  8
0
 10
18.7619
 20
41.0728
 11
24.2545
 21
46.2308
  0
LINE
  8
0
 10
24.2545
 20
46.2308
 11
30.3504
 21
50.6597
  0
LINE
  8
0
 10
30.3504
 20
50.6597
 11
36.9532
 21
54.2896
  0
LINE
  8
0
 10
36.9532
 20
54.2896
 11
43.959
 21
57.0634
  0
LINE
  8
0
 10
43.959
 20
57.0634
 11
51.2571
 21
58.9372
  0
LINE
  8
0
 10
51.2571
 20
58.9372
 11
58.7326
 21
59.8816
  0
LINE
  8
0
 10
58.7326
 20
59.8816
 11
66.2674
 21
59.8816
  0
LINE
  8
0
 10
66.2674
 20
59.8816
 11
73.7429
 21
58.9372
  0
LINE
  8
0
 10
73.7429
 20
58.9372
 11
81.041
 21
57.0634
  0
LINE
  8
0
 10
81.041
 20
57.0634
 11
88.0468
 21
54.2896
  0
LINE
  8
0
 10
88.0468
 20
54.2896
 11
94.6496
 21
50.6597
  0
LINE
  8
0
 10
94.6496
 20
50.6597
 11
100.745
 21
46.2308
  0
LINE
  8
0
 10
100.745
 20
46.2308
 11
106.238
 21
41.0728
  0
LINE
  8
0
 10
106.238
 20
41.0728
 11
111.041
 21
35.2671
  0
LINE
  8
0
 10
111.041
 20
35.2671
 11
115.078
 21
28.9052
  0
LINE
  8
0
 10
115.078
 20
28.9052
 11
118.287
 21
22.0875
  0
LINE
  8
0
 10
118.287
 20
22.0875
 11
120.615
 21
14.9214
  0
LINE
  8
0
 10
120.615
 20
14.9214
 11
122.027
 21
7.51999
  0
LINE
  8
0
 10
122.027
 20
7.51999
 11
122.5
 21
0
  0
LINE
  8
0
 10
122.5
 20
0
 11
122.027
 21
-7.51999
  0
LINE
  8
0
 10
122.027
 20
-7.51999
 11
120.615
 21
-14.9214
  0
LINE
  8
0
 10
120.615
 20
-14.9214
 11
118.287
 21
-22.0875
  0
LINE
  8
0
 10
118.287
 20
-22.0875
 11
115.078
 21
-28.9052
  0
LINE
  8
0
 10
115.078
 20
-28.9052
 11
111.041
 21
-35.2671
  0
LINE
  8
0
 10
111.041
 20
-35.2671
 11
106.238
 21
-41.0728
  0
LINE
  8
0
 10
106.238
 20
-41.0728
 11
100.745
 21
-46.2308
  0
LINE
  8
0
 10
100.745
 20
-46.2308
 11
94.6496
 21
-50.6597
  0
LINE
  8
0
 10
94.6496
 20
-50.6597
 11
88.0468
 21
-54.2896
  0
LINE
  8
0
 10
88.0468
 20
-54.2896
 11
81.041
 21
-57.0634
  0
LINE
  8
0
 10
81.041
 20
-57.0634
 11
73.7429
 21
-58.9372
  0
LINE
  8
0
 10
73.7429
 20
-58.9372
 11
66.2674
 21
-59.8816
  0
LINE
  8
0
 10
66.2674
 20
-59.8816
 11
58.7326
 21
-59.8816
  0
LINE
  8
0
 10
-66.2674
 20
-59.8816
 11
-73.7429
 21
-58.9372
  0
LINE
  8
0
 10
-73.7429
 20
-58.9372
 11
-81.041
 21
-57.0634
  0
LINE
  8
0
 10
-81.041
 20
-57.0634
 11
-88.0468
 21
-54.2896
  0
LINE
  8
0
 10
-88.0468
 20
-54.2896
 11
-94.6496
 21
-50.6597
  0
LINE
  8
0
 10
-94.6496
 20
-50.6597
 11
-100.745
 21
-46.2308
  0
LINE
  8
0
 10
-100.745
 20
-46.2308
 11
-106.238
 21
-41.0728
  0
LINE
  8
0
 10
-106.238
 20
-41.0728
 11
-111.041
 21
-35.2671
  0
LINE
  8
0
 10
-111.041
 20
-35.2671
 11
-115.078
 21
-28.9052
  0
LINE
  8
0
 10
-115.078
 20
-28.9052
 11
-118.287
 21
-22.0875
  0
LINE
  8
0
 10
-118.287
 20
-22.0875
 11
-120.615
 21
-14.9214
  0
LINE
  8
0
 10
-120.615
 20
-14.9214
 11
-122.027
 21
-7.51999
  0
LINE
  8
0
 10
-122.027
 20
-7.51999
 11
-122.5
 21
0
  0
LINE
  8
0
 10
-122.5
 20
0
 11
-122.027
 21
7.51999
  0
LINE
  8
0
 10
-122.027
 20
7.51999
 11
-120.615
 21
14.9214
  0
LINE
  8
0
 10
-120.615
 20
14.9214
 11
-118.287
 21
22.0875
  0
LINE
  8
0
 10
-118.287
 20
22.0875
 11
-115.078
 21
28.9052
  0
LINE
  8
0
 10
-115.078
 20
28.9052
 11
-111.041
 21
35.2671
  0
LINE
  8
0
 10
-111.041
 20
35.2671
 11
-106.238
 21
41.0728
  0
LINE
  8
0
 10
-106.238
 20
41.0728
 11
-100.745
 21
46.2308
  0
LINE
  8
0
 10
-100.745
 20
46.2308
 11
-94.6496
 21
50.6597
  0
LINE
  8
0
 10
-94.6496
 20
50.6597
 11
-88.0468
 21
54.2896
  0
LINE
  8
0
 10
-88.0468
 20
54.2896
 11
-81.041
 21
57.0634
  0
LINE
  8
0
 10
-81.041
 20
57.0634
 11
-73.7429
 21
58.9372
  0
LINE
  8
0
 10
-73.7429
 20
58.9372
 11
-66.2674
 21
59.8816
  0
LINE
  8
0
 10
-66.2674
 20
59.8816
 11
-58.7326
 21
59.8816
  0
LINE
  8
0
 10
-58.7326
 20
59.8816
 11
-51.2571
 21
58.9372
  0
LINE
  8
0
 10
-51.2571
 20
58.9372
 11
-43.959
 21
57.0634
  0
LINE
  8
0
 10
-43.959
 20
57.0634
 11
-36.9532
 21
54.2896
  0
LINE
  8
0
 10
-36.9532
 20
54.2896
 11
-30.3504
 21
50.6597
  0
LINE
  8
0
 10
-30.3504
 20
50.6597
 11
-24.2545
 21
46.2308
  0
LINE
  8
0
 10
-24.2545
 20
46.2308
 11
-18.7619
 21
41.0728
  0
LINE
  8
0
 10
-18.7619
 20
41.0728
 11
-13.959
 21
35.2671
  0
LINE
  8
0
 10
-13.959
 20
35.2671
 11
-9.92159
 21
28.9052
  0
LINE
  8
0
 10
-9.92159
 20
28.9052
 11
-6.71341
 21
22.0875
  0
LINE
  8
0
 10
-6.71341
 20
22.0875
 11
-4.38501
 21
14.9214
  0
LINE
  8
0
 10
-4.38501
 20
14.9214
 11
-2.97311
 21
7.51999
  0
LINE
  8
0
 10
-2.97311
 20
7.51999
 11
-2.5
 21
0
  0
LINE
  8
0
 10
-2.5
 20
0
 11
-2.97311
 21
-7.51999
  0
LINE
  8
0
 10
-2.97311
 20
-7.51999
 11
-4.38501
 21
-14.9214
  0
LINE
  8
0
 10
-4.38501
 20
-14.9214
 11
-6.71341
 21
-22.0875
  0
LINE
  8
0
 10
-6.71341
 20
-22.0875
 11
-9.92159
 21
-28.9052
  0
LINE
  8
0
 10
-9.92159
 20
-28.9052
 11
-13.959
 21
-35.2671
  0
LINE
  8
0
 10
-13.959
 20
-35.2671
 11
-18.7619
 21
-41.0728
  0
LINE
  8
0
 10
-18.7619
 20
-41.0728
 11
-24.2545
 21
-46.2308
  0
LINE
  8
0
 10
-24.2545
 20
-46.2308
 11
-30.3504
 21
-50.6597
  0
LINE
  8
0
 10
-30.3504
 20
-50.6597
 11
-36.9532
 21
-54.2896
  0
LINE
  8
0
 10
-36.9532
 20
-54.2896
 11
-43.959
 21
-57.0634
  0
LINE
  8
0
 10
-43.959
 20
-57.0634
 11
-51.2571
 21
-58.9372
  0
LINE
  8
0
 10
-51.2571
 20
-58.9372
 11
-58.7326
 21
-59.8816
  0
LINE
  8
0
 10
-58.7326
 20
-59.8816
 11
-66.2674
 21
-59.8816
  0
LINE
  8
0
 10
247.312
 20
-62.9941
 11
246.938
 21
-62.9469
  0
LINE
  8
0
 10
246.938
 20
-62.9469
 11
246.573
 21
-62.8532
  0
LINE
  8
0
 10
246.573
 20
-62.8532
 11
246.223
 21
-62.7145
  0
LINE
  8
0
 10
246.223
 20
-62.7145
 11
245.893
 21
-62.533
  0
LINE
  8
0
 10
245.893
 20
-62.533
 11
245.588
 21
-62.3115
  0
LINE
  8
0
 10
245.588
 20
-62.3115
 11
245.313
 21
-62.0536
  0
LINE
  8
0
 10
245.313
 20
-62.0536
 11
245.073
 21
-61.7634
  0
LINE
  8
0
 10
245.073
 20
-61.7634
 11
244.871
 21
-61.4453
  0
LINE
  8
0
 10
244.871
 20
-61.4453
 11
244.711
 21
-61.1044
  0
LINE
  8
0
 10
244.711
 20
-61.1044
 11
244.594
 21
-60.7461
  0
LINE
  8
0
 10
244.594
 20
-60.7461
 11
244.524
 21
-60.376
  0
LINE
  8
0
 10
244.524
 20
-60.376
 11
244.5
 21
-60
  0
LINE
  8
0
 10
244.5
 20
-60
 11
244.524
 21
-59.624
  0
LINE
  8
0
 10
244.524
 20
-59.624
 11
244.594
 21
-59.2539
  0
LINE
  8
0
 10
244.594
 20
-59.2539
 11
244.711
 21
-58.8956
  0
LINE
  8
0
 10
244.711
 20
-58.8956
 11
244.871
 21
-58.5547
  0
LINE
  8
0
 10
244.871
 20
-58.5547
 11
245.073
 21
-58.2366
  0
LINE
  8
0
 10
245.073
 20
-58.2366
 11
245.313
 21
-57.9464
  0
LINE
  8
0
 10
245.313
 20
-57.9464
 11
245.588
 21
-57.6885
  0
LINE
  8
0
 10
245.588
 20
-57.6885
 11
245.893
 21
-57.467
  0
LINE
  8
0
 10
245.893
 20
-57.467
 11
246.223
 21
-57.2855
  0
LINE
  8
0
 10
246.223
 20
-57.2855
 11
246.573
 21
-57.1468
  0
LINE
  8
0
 10
246.573
 20
-57.1468
 11
246.938
 21
-57.0531
  0
LINE
  8
0
 10
246.938
 20
-57.0531
 11
247.312
 21
-57.0059
  0
LINE
  8
0
 10
247.312
 20
-57.0059
 11
247.688
 21
-57.0059
  0
LINE
  8
0
 10
247.688
 20
-57.0059
 11
248.062
 21
-57.0531
  0
LINE
  8
0
 10
248.062
 20
-57.0531
 11
248.427
 21
-57.1468
  0
LINE
  8
0
 10
248.427
 20
-57.1468
 11
248.777
 21
-57.2855
  0
LINE
  8
0
 10
248.777
 20
-57.2855
 11
249.107
 21
-57.467
  0
LINE
  8
0
 10
249.107
 20
-57.467
 11
249.412
 21
-57.6885
  0
LINE
  8
0
 10
249.412
 20
-57.6885
 11
249.687
 21
-57.9464
  0
LINE
  8
0
 10
249.687
 20
-57.9464
 11
249.927
 21
-58.2366
  0
LINE
  8
0
 10
249.927
 20
-58.2366
 11
250.129
 21
-58.5547
  0
LINE
  8
0
 10
250.129
 20
-58.5547
 11
250.289
 21
-58.8956
  0
LINE
  8
0
 10
250.289
 20
-58.8956
 11
250.406
 21
-59.2539
  0
LINE
  8
0
 10
250.406
 20
-59.2539
 11
250.476
 21
-59.624
  0
LINE
  8
0
 10
250.476
 20
-59.624
 11
250.5
 21
-60
  0
LINE
  8
0
 10
250.5
 20
-60
 11
250.476
 21
-60.376
  0
LINE
  8
0
 10
250.476
 20
-60.376
 11
250.406
 21
-60.7461
  0
LINE
  8
0
 10
250.406
 20
-60.7461
 11
250.289
 21
-61.1044
  0
LINE
  8
0
 10
250.289
 20
-61.1044
 11
250.129
 21
-61.4453
  0
LINE
  8
0
 10
250.129
 20
-61.4453
 11
249.927
 21
-61.7634
  0
LINE
  8
0
 10
249.927
 20
-61.7634
 11
249.687
 21
-62.0536
  0
LINE
  8
0
 10
249.687
 20
-62.0536
 11
249.412
 21
-62.3115
  0
LINE
  8
0
 10
249.412
 20
-62.3115
 11
249.107
 21
-62.533
  0
LINE
  8
0
 10
249.107
 20
-62.533
 11
248.777
 21
-62.7145
  0
LINE
  8
0
 10
248.777
 20
-62.7145
 11
248.427
 21
-62.8532
  0
LINE
  8
0
 10
248.427
 20
-62.8532
 11
248.062
 21
-62.9469
  0
LINE
  8
0
 10
248.062
 20
-62.9469
 11
247.688
 21
-62.9941
  0
LINE
  8
0
 10
247.688
 20
-62.9941
 11
247.312
 21
-62.9941
  0
LINE
  8
0
 10
-247.688
 20
-62.9941
 11
-248.062
 21
-62.9469
  0
LINE
  8
0
 10
-248.062
 20
-62.9469
 11
-248.427
 21
-62.8532
  0
LINE
  8
0
 10
-248.427
 20
-62.8532
 11
-248.777
 21
-62.7145
  0
LINE
  8
0
 10
-248.777
 20
-62.7145
 11
-249.107
 21
-62.533
  0
LINE
  8
0
 10
-249.107
 20
-62.533
 11
-249.412
 21
-62.3115
  0
LINE
  8
0
 10
-249.412
 20
-62.3115
 11
-249.687
 21
-62.0536
  0
LINE
  8
0
 10
-249.687
 20
-62.0536
 11
-249.927
 21
-61.7634
  0
LINE
  8
0
 10
-249.927
 20
-61.7634
 11
-250.129
 21
-61.4453
  0
LINE
  8
0
 10
-250.129
 20
-61.4453
 11
-250.289
 21
-61.1044
  0
LINE
  8
0
 10
-250.289
 20
-61.1044
 11
-250.406
 21
-60.7461
  0
LINE
  8
0
 10
-250.406
 20
-60.7461
 11
-250.476
 21
-60.376
  0
LINE
  8
0
 10
-250.476
 20
-60.376
 11
-250.5
 21
-60
  0
LINE
  8
0
 10
-250.5
 20
-60
 11
-250.476
 21
-59.624
  0
LINE
  8
0
 10
-250.476
 20
-59.624
 11
-250.406
 21
-59.2539
  0
LINE
  8
0
 10
-250.406
 20
-59.2539
 11
-250.289
 21
-58.8956
  0
LINE
  8
0
 10
-250.289
 20
-58.8956
 11
-250.129
 21
-58.5547
  0
LINE
  8
0
 10
-250.129
 20
-58.5547
 11
-249.927
 21
-58.2366
  0
LINE
  8
0
 10
-249.927
 20
-58.2366
 11
-249.687
 21
-57.9464
  0
LINE
  8
0
 10
-249.687
 20
-57.9464
 11
-249.412
 21
-57.6885
  0
LINE
  8
0
 10
-249.412
 20
-57.6885
 11
-249.107
 21
-57.467
  0
LINE
  8
0
 10
-249.107
 20
-57.467
 11
-248.777
 21
-57.2855
  0
LINE
  8
0
 10
-248.777
 20
-57.2855
 11
-248.427
 21
-57.1468
  0
LINE
  8
0
 10
-248.427
 20
-57.1468
 11
-248.062
 21
-57.0531
  0
LINE
  8
0
 10
-248.062
 20
-57.0531
 11
-247.688
 21
-57.0059
  0
LINE
  8
0
 10
-247.688
 20
-57.0059
 11
-247.312
 21
-57.0059
  0
LINE
  8
0
 10
-247.312
 20
-57.0059
 11
-246.938
 21
-57.0531
  0
LINE
  8
0
 10
-246.938
 20
-57.0531
 11
-246.573
 21
-57.1468
  0
LINE
  8
0
 10
-246.573
 20
-57.1468
 11
-246.223
 21
-57.2855
  0
LINE
  8
0
 10
-246.223
 20
-57.2855
 11
-245.893
 21
-57.467
  0
LINE
  8
0
 10
-245.893
 20
-57.467
 11
-245.588
 21
-57.6885
  0
LINE
  8
0
 10
-245.588
 20
-57.6885
 11
-245.313
 21
-57.9464
  0
LINE
  8
0
 10
-245.313
 20
-57.9464
 11
-245.073
 21
-58.2366
  0
LINE
  8
0
 10
-245.073
 20
-58.2366
 11
-244.871
 21
-58.5547
  0
LINE
  8
0
 10
-244.871
 20
-58.5547
 11
-244.711
 21
-58.8956
  0
LINE
  8
0
 10
-244.711
 20
-58.8956
 11
-244.594
 21
-59.2539
  0
LINE
  8
0
 10
-244.594
 20
-59.2539
 11
-244.524
 21
-59.624
  0
LINE
  8
0
 10
-244.524
 20
-59.624
 11
-244.5
 21
-60
  0
LINE
  8
0
 10
-244.5
 20
-60
 11
-244.524
 21
-60.376
  0
LINE
  8
0
 10
-244.524
 20
-60.376
 11
-244.594
 21
-60.7461
  0
LINE
  8
0
 10
-244.594
 20
-60.7461
 11
-244.711
 21
-61.1044
  0
LINE
  8
0
 10
-244.711
 20
-61.1044
 11
-244.871
 21
-61.4453
  0
LINE
  8
0
 10
-244.871
 20
-61.4453
 11
-245.073
 21
-61.7634
  0
LINE
  8
0
 10
-245.073
 20
-61.7634
 11
-245.313
 21
-62.0536
  0
LINE
  8
0
 10
-245.313
 20
-62.0536
 11
-245.588
 21
-62.3115
  0
LINE
  8
0
 10
-245.588
 20
-62.3115
 11
-245.893
 21
-62.533
  0
LINE
  8
0
 10
-245.893
 20
-62.533
 11
-246.223
 21
-62.7145
  0
LINE
  8
0
 10
-246.223
 20
-62.7145
 11
-246.573
 21
-62.8532
  0
LINE
  8
0
 10
-246.573
 20
-62.8532
 11
-246.938
 21
-62.9469
  0
LINE
  8
0
 10
-246.938
 20
-62.9469
 11
-247.312
 21
-62.9941
  0
LINE
  8
0
 10
-247.312
 20
-62.9941
 11
-247.688
 21
-62.9941
  0
ENDSEC
  0
SECTION
  2
OBJECTS
  0
DICTIONARY
  0
ENDSEC
  0
EOF
