<?xml version="1.0" standalone="no"?>
<!DOCTYPE svg PUBLIC "-//W3C//DTD SVG 1.1//EN" "http://www.w3.org/Graphics/SVG/1.1/DTD/svg11.dtd">
<svg width="150mm" height="44mm" viewBox="-75 -76 150 44" xmlns="http://www.w3.org/2000/svg" version="1.1">
<title>OpenSCAD Model</title>
<path d="
M 70.4369,-32.0886 L 71.0451,-32.2447 L 71.6289,-32.4759 L 72.1791,-32.7784 L 72.6871,-33.1474 L 73.1448,-33.5773
 L 73.5451,-34.0611 L 73.8815,-34.5912 L 74.1489,-35.1594 L 74.3429,-35.7566 L 74.4606,-36.3733 L 74.5,-37
 L 74.5,-71 L 74.4606,-71.6267 L 74.3429,-72.2434 L 74.1489,-72.8406 L 73.8815,-73.4088 L 73.5451,-73.9389
 L 73.1448,-74.4227 L 72.6871,-74.8526 L 72.1791,-75.2216 L 71.6289,-75.5241 L 71.0451,-75.7553 L 70.4369,-75.9114
 L 69.8139,-75.9901 L -69.8139,-75.9901 L -70.4369,-75.9114 L -71.0451,-75.7553 L -71.6289,-75.5241 L -72.1791,-75.2216
 L -72.6871,-74.8526 L -73.1448,-74.4227 L -73.5451,-73.9389 L -73.8815,-73.4088 L -74.1489,-72.8406 L -74.3429,-72.2434
 L -74.4606,-71.6267 L -74.5,-71 L -74.5,-37 L -74.4606,-36.3733 L -74.3429,-35.7566 L -74.1489,-35.1594
 L -73.8815,-34.5912 L -73.5451,-34.0611 L -73.1448,-33.5773 L -72.6871,-33.1474 L -72.1791,-32.7784 L -71.6289,-32.4759
 L -71.0451,-32.2447 L -70.4369,-32.0886 L -69.8139,-32.0099 L 69.8139,-32.0099 z
M 67.3116,-66.0059 L 66.9379,-66.0531 L 66.573,-66.1468 L 66.2227,-66.2855 L 65.8925,-66.467 L 65.5877,-66.6884
 L 65.3131,-66.9464 L 65.073,-67.2366 L 64.8711,-67.5547 L 64.7107,-67.8956 L 64.5943,-68.2539 L 64.5237,-68.624
 L 64.5,-69 L 64.5237,-69.376 L 64.5943,-69.7461 L 64.7107,-70.1044 L 64.8711,-70.4453 L 65.073,-70.7634
 L 65.3131,-71.0536 L 65.5877,-71.3115 L 65.8925,-71.533 L 66.2227,-71.7145 L 66.573,-71.8532 L 66.9379,-71.9469
 L 67.3116,-71.9941 L 67.6884,-71.9941 L 68.0621,-71.9469 L 68.427,-71.8532 L 68.7773,-71.7145 L 69.1075,-71.533
 L 69.4123,-71.3115 L 69.6869,-71.0536 L 69.927,-70.7634 L 70.1289,-70.4453 L 70.2893,-70.1044 L 70.4057,-69.7461
 L 70.4763,-69.376 L 70.5,-69 L 70.4763,-68.624 L 70.4057,-68.2539 L 70.2893,-67.8956 L 70.1289,-67.5547
 L 69.927,-67.2366 L 69.6869,-66.9464 L 69.4123,-66.6884 L 69.1075,-66.467 L 68.7773,-66.2855 L 68.427,-66.1468
 L 68.0621,-66.0531 L 67.6884,-66.0059 z
M -67.6884,-66.0059 L -68.0621,-66.0531 L -68.427,-66.1468 L -68.7773,-66.2855 L -69.1075,-66.467 L -69.4123,-66.6884
 L -69.6869,-66.9464 L -69.927,-67.2366 L -70.1289,-67.5547 L -70.2893,-67.8956 L -70.4057,-68.2539 L -70.4763,-68.624
 L -70.5,-69 L -70.4763,-69.376 L -70.4057,-69.7461 L -70.2893,-70.1044 L -70.1289,-70.4453 L -69.927,-70.7634
 L -69.6869,-71.0536 L -69.4123,-71.3115 L -69.1075,-71.533 L -68.7773,-71.7145 L -68.427,-71.8532 L -68.0621,-71.9469
 L -67.6884,-71.9941 L -67.3116,-71.9941 L -66.9379,-71.9469 L -66.573,-71.8532 L -66.2227,-71.7145 L -65.8925,-71.533
 L -65.5877,-71.3115 L -65.3131,-71.0536 L -65.073,-70.7634 L -64.8711,-70.4453 L -64.7107,-70.1044 L -64.5943,-69.7461
 L -64.5237,-69.376 L -64.5,-69 L -64.5237,-68.624 L -64.5943,-68.2539 L -64.7107,-67.8956 L -64.8711,-67.5547
 L -65.073,-67.2366 L -65.3131,-66.9464 L -65.5877,-66.6884 L -65.8925,-66.467 L -66.2227,-66.2855 L -66.573,-66.1468
 L -66.9379,-66.0531 L -67.3116,-66.0059 z
M 57.2465,-42.0237 L 55.7514,-42.2126 L 54.2918,-42.5873 L 52.8906,-43.1421 L 51.5701,-43.8681 L 50.3509,-44.7538
 L 49.2524,-45.7854 L 48.2918,-46.9466 L 47.4843,-48.219 L 46.8427,-49.5825 L 46.377,-51.0157 L 46.0946,-52.496
 L 46,-54 L 46.0946,-55.504 L 46.377,-56.9843 L 46.8427,-58.4175 L 47.4843,-59.781 L 48.2918,-61.0534
 L 49.2524,-62.2146 L 50.3509,-63.2462 L 51.5701,-64.1319 L 52.8906,-64.8579 L 54.2918,-65.4127 L 55.7514,-65.7874
 L 57.2465,-65.9763 L 58.7535,-65.9763 L 60.2486,-65.7874 L 61.7082,-65.4127 L 63.1093,-64.8579 L 64.4299,-64.1319
 L 65.6491,-63.2462 L 66.7476,-62.2146 L 67.7082,-61.0534 L 68.5157,-59.781 L 69.1573,-58.4175 L 69.623,-56.9843
 L 69.9054,-55.504 L 70,-54 L 69.9054,-52.496 L 69.623,-51.0157 L 69.1573,-49.5825 L 68.5157,-48.219
 L 67.7082,-46.9466 L 66.7476,-45.7854 L 65.6491,-44.7538 L 64.4299,-43.8681 L 63.1093,-43.1421 L 61.7082,-42.5873
 L 60.2486,-42.2126 L 58.7535,-42.0237 z
M -0.753479,-42.0237 L -2.24857,-42.2126 L -3.70819,-42.5873 L -5.10934,-43.1421 L -6.42992,-43.8681 L -7.64908,-44.7538
 L -8.74762,-45.7854 L -9.70819,-46.9466 L -10.5157,-48.219 L -11.1573,-49.5825 L -11.623,-51.0157 L -11.9054,-52.496
 L -12,-54 L -11.9054,-55.504 L -11.623,-56.9843 L -11.1573,-58.4175 L -10.5157,-59.781 L -9.70819,-61.0534
 L -8.74762,-62.2146 L -7.64908,-63.2462 L -6.42992,-64.1319 L -5.10934,-64.8579 L -3.70819,-65.4127 L -2.24857,-65.7874
 L -0.753479,-65.9763 L 0.753479,-65.9763 L 2.24857,-65.7874 L 3.70819,-65.4127 L 5.10934,-64.8579 L 6.42992,-64.1319
 L 7.64908,-63.2462 L 8.74762,-62.2146 L 9.70819,-61.0534 L 10.5157,-59.781 L 11.1573,-58.4175 L 11.623,-56.9843
 L 11.9054,-55.504 L 12,-54 L 11.9054,-52.496 L 11.623,-51.0157 L 11.1573,-49.5825 L 10.5157,-48.219
 L 9.70819,-46.9466 L 8.74762,-45.7854 L 7.64908,-44.7538 L 6.42992,-43.8681 L 5.10934,-43.1421 L 3.70819,-42.5873
 L 2.24857,-42.2126 L 0.753479,-42.0237 z
M 28.2465,-42.0237 L 26.7514,-42.2126 L 25.2918,-42.5873 L 23.8906,-43.1421 L 22.5701,-43.8681 L 21.3509,-44.7538
 L 20.2524,-45.7854 L 19.2918,-46.9466 L 18.4843,-48.219 L 17.8427,-49.5825 L 17.377,-51.0157 L 17.0946,-52.496
 L 17,-54 L 17.0946,-55.504 L 17.377,-56.9843 L 17.8427,-58.4175 L 18.4843,-59.781 L 19.2918,-61.0534
 L 20.2524,-62.2146 L 21.3509,-63.2462 L 22.5701,-64.1319 L 23.8906,-64.8579 L 25.2918,-65.4127 L 26.7514,-65.7874
 L 28.2465,-65.9763 L 29.7535,-65.9763 L 31.2486,-65.7874 L 32.7082,-65.4127 L 34.1093,-64.8579 L 35.4299,-64.1319
 L 36.6491,-63.2462 L 37.7476,-62.2146 L 38.7082,-61.0534 L 39.5157,-59.781 L 40.1573,-58.4175 L 40.623,-56.9843
 L 40.9054,-55.504 L 41,-54 L 40.9054,-52.496 L 40.623,-51.0157 L 40.1573,-49.5825 L 39.5157,-48.219
 L 38.7082,-46.9466 L 37.7476,-45.7854 L 36.6491,-44.7538 L 35.4299,-43.8681 L 34.1093,-43.1421 L 32.7082,-42.5873
 L 31.2486,-42.2126 L 29.7535,-42.0237 z
M -58.7535,-42.0237 L -60.2486,-42.2126 L -61.7082,-42.5873 L -63.1093,-43.1421 L -64.4299,-43.8681 L -65.6491,-44.7538
 L -66.7476,-45.7854 L -67.7082,-46.9466 L -68.5157,-48.219 L -69.1573,-49.5825 L -69.623,-51.0157 L -69.9054,-52.496
 L -70,-54 L -69.9054,-55.504 L -69.623,-56.9843 L -69.1573,-58.4175 L -68.5157,-59.781 L -67.7082,-61.0534
 L -66.7476,-62.2146 L -65.6491,-63.2462 L -64.4299,-64.1319 L -63.1093,-64.8579 L -61.7082,-65.4127 L -60.2486,-65.7874
 L -58.7535,-65.9763 L -57.2465,-65.9763 L -55.7514,-65.7874 L -54.2918,-65.4127 L -52.8906,-64.8579 L -51.5701,-64.1319
 L -50.3509,-63.2462 L -49.2524,-62.2146 L -48.2918,-61.0534 L -47.4843,-59.781 L -46.8427,-58.4175 L -46.377,-56.9843
 L -46.0946,-55.504 L -46,-54 L -46.0946,-52.496 L -46.377,-51.0157 L -46.8427,-49.5825 L -47.4843,-48.219
 L -48.2918,-46.9466 L -49.2524,-45.7854 L -50.3509,-44.7538 L -51.5701,-43.8681 L -52.8906,-43.1421 L -54.2918,-42.5873
 L -55.7514,-42.2126 L -57.2465,-42.0237 z
M -29.7535,-42.0237 L -31.2486,-42.2126 L -32.7082,-42.5873 L -34.1093,-43.1421 L -35.4299,-43.8681 L -36.6491,-44.7538
 L -37.7476,-45.7854 L -38.7082,-46.9466 L -39.5157,-48.219 L -40.1573,-49.5825 L -40.623,-51.0157 L -40.9054,-52.496
 L -41,-54 L -40.9054,-55.504 L -40.623,-56.9843 L -40.1573,-58.4175 L -39.5157,-59.781 L -38.7082,-61.0534
 L -37.7476,-62.2146 L -36.6491,-63.2462 L -35.4299,-64.1319 L -34.1093,-64.8579 L -32.7082,-65.4127 L -31.2486,-65.7874
 L -29.7535,-65.9763 L -28.2465,-65.9763 L -26.7514,-65.7874 L -25.2918,-65.4127 L -23.8906,-64.8579 L -22.5701,-64.1319
 L -21.3509,-63.2462 L -20.2524,-62.2146 L -19.2918,-61.0534 L -18.4843,-59.781 L -17.8427,-58.4175 L -17.377,-56.9843
 L -17.0946,-55.504 L -17,-54 L -17.0946,-52.496 L -17.377,-51.0157 L -17.8427,-49.5825 L -18.4843,-48.219
 L -19.2918,-46.9466 L -20.2524,-45.7854 L -21.3509,-44.7538 L -22.5701,-43.8681 L -23.8906,-43.1421 L -25.2918,-42.5873
 L -26.7514,-42.2126 L -28.2465,-42.0237 z
M -67.6884,-36.0059 L -68.0621,-36.0531 L -68.427,-36.1468 L -68.7773,-36.2855 L -69.1075,-36.467 L -69.4123,-36.6885
 L -69.6869,-36.9464 L -69.927,-37.2366 L -70.1289,-37.5547 L -70.2893,-37.8956 L -70.4057,-38.2539 L -70.4763,-38.624
 L -70.5,-39 L -70.4763,-39.376 L -70.4057,-39.7461 L -70.2893,-40.1044 L -70.1289,-40.4453 L -69.927,-40.7634
 L -69.6869,-41.0536 L -69.4123,-41.3116 L -69.1075,-41.533 L -68.7773,-41.7145 L -68.427,-41.8532 L -68.0621,-41.9469
 L -67.6884,-41.9941 L -67.3116,-41.9941 L -66.9379,-41.9469 L -66.573,-41.8532 L -66.2227,-41.7145 L -65.8925,-41.533
 L -65.5877,-41.3116 L -65.3131,-41.0536 L -65.073,-40.7634 L -64.8711,-40.4453 L -64.7107,-40.1044 L -64.5943,-39.7461
 L -64.5237,-39.376 L -64.5,-39 L -64.5237,-38.624 L -64.5943,-38.2539 L -64.7107,-37.8956 L -64.8711,-37.5547
 L -65.073,-37.2366 L -65.3131,-36.9464 L -65.5877,-36.6885 L -65.8925,-36.467 L -66.2227,-36.2855 L -66.573,-36.1468
 L -66.9379,-36.0531 L -67.3116,-36.0059 z
M 67.3116,-36.0059 L 66.9379,-36.0531 L 66.573,-36.1468 L 66.2227,-36.2855 L 65.8925,-36.467 L 65.5877,-36.6885
 L 65.3131,-36.9464 L 65.073,-37.2366 L 64.8711,-37.5547 L 64.7107,-37.8956 L 64.5943,-38.2539 L 64.5237,-38.624
 L 64.5,-39 L 64.5237,-39.376 L 64.5943,-39.7461 L 64.7107,-40.1044 L 64.8711,-40.4453 L 65.073,-40.7634
 L 65.3131,-41.0536 L 65.5877,-41.3116 L 65.8925,-41.533 L 66.2227,-41.7145 L 66.573,-41.8532 L 66.9379,-41.9469
 L 67.3116,-41.9941 L 67.6884,-41.9941 L 68.0621,-41.9469 L 68.427,-41.8532 L 68.7773,-41.7145 L 69.1075,-41.533
 L 69.4123,-41.3116 L 69.6869,-41.0536 L 69.927,-40.7634 L 70.1289,-40.4453 L 70.2893,-40.1044 L 70.4057,-39.7461
 L 70.4763,-39.376 L 70.5,-39 L 70.4763,-38.624 L 70.4057,-38.2539 L 70.2893,-37.8956 L 70.1289,-37.5547
 L 69.927,-37.2366 L 69.6869,-36.9464 L 69.4123,-36.6885 L 69.1075,-36.467 L 68.7773,-36.2855 L 68.427,-36.1468
 L 68.0621,-36.0531 L 67.6884,-36.0059 z
" stroke="black" fill="lightgray" stroke-width="0.5"/>
</svg>
