<?xml version="1.0" standalone="no"?>
<!DOCTYPE svg PUBLIC "-//W3C//DTD SVG 1.1//EN" "http://www.w3.org/Graphics/SVG/1.1/DTD/svg11.dtd">
<svg width="74mm" height="14mm" viewBox="-37 -7 74 14" xmlns="http://www.w3.org/2000/svg" version="1.1">
<title>OpenSCAD Model</title>
<path d="
M 32.9369,6.91142 L 33.5451,6.75528 L 34.1289,6.52412 L 34.6791,6.22163 L 35.1871,5.85255 L 35.6448,5.42273
 L 36.0451,4.93892 L 36.3815,4.40877 L 36.6489,3.84062 L 36.8429,3.24344 L 36.9606,2.62666 L 37,2
 L 37,-2 L 36.9606,-2.62666 L 36.8429,-3.24344 L 36.6489,-3.84062 L 36.3815,-4.40877 L 36.0451,-4.93892
 L 35.6448,-5.42273 L 35.1871,-5.85255 L 34.6791,-6.22163 L 34.1289,-6.52412 L 33.5451,-6.75528 L 32.9369,-6.91142
 L 32.3139,-6.99013 L -32.3139,-6.99013 L -32.9369,-6.91142 L -33.5451,-6.75528 L -34.1289,-6.52412 L -34.6791,-6.22163
 L -35.1871,-5.85255 L -35.6448,-5.42273 L -36.0451,-4.93892 L -36.3815,-4.40877 L -36.6489,-3.84062 L -36.8429,-3.24344
 L -36.9606,-2.62666 L -37,-2 L -37,2 L -36.9606,2.62666 L -36.8429,3.24344 L -36.6489,3.84062
 L -36.3815,4.40877 L -36.0451,4.93892 L -35.6448,5.42273 L -35.1871,5.85255 L -34.6791,6.22163 L -34.1289,6.52412
 L -33.5451,6.75528 L -32.9369,6.91142 L -32.3139,6.99013 L 32.3139,6.99013 z
M -30.1884,2.99408 L -30.5621,2.94685 L -30.927,2.85316 L -31.2773,2.71448 L -31.6075,2.53297 L -31.9123,2.31154
 L -32.1869,2.05363 L -32.427,1.76335 L -32.6289,1.44525 L -32.7893,1.10437 L -32.9057,0.746063 L -32.9763,0.375992
 L -33,-0 L -32.9763,-0.375992 L -32.9057,-0.746063 L -32.7893,-1.10437 L -32.6289,-1.44525 L -32.427,-1.76335
 L -32.1869,-2.05363 L -31.9123,-2.31154 L -31.6075,-2.53297 L -31.2773,-2.71448 L -30.927,-2.85316 L -30.5621,-2.94685
 L -30.1884,-2.99408 L -29.8116,-2.99408 L -29.4379,-2.94685 L -29.0729,-2.85316 L -28.7227,-2.71448 L -28.3925,-2.53297
 L -28.0877,-2.31154 L -27.8131,-2.05363 L -27.5729,-1.76335 L -27.3711,-1.44525 L -27.2107,-1.10437 L -27.0942,-0.746063
 L -27.0237,-0.375992 L -27,-0 L -27.0237,0.375992 L -27.0942,0.746063 L -27.2107,1.10437 L -27.3711,1.44525
 L -27.5729,1.76335 L -27.8131,2.05363 L -28.0877,2.31154 L -28.3925,2.53297 L -28.7227,2.71448 L -29.0729,2.85316
 L -29.4379,2.94685 L -29.8116,2.99408 z
M 16.3116,2.99408 L 15.9379,2.94685 L 15.5729,2.85316 L 15.2227,2.71448 L 14.8925,2.53297 L 14.5877,2.31154
 L 14.3131,2.05363 L 14.0729,1.76335 L 13.8711,1.44525 L 13.7107,1.10437 L 13.5942,0.746063 L 13.5237,0.375992
 L 13.5,-0 L 13.5237,-0.375992 L 13.5942,-0.746063 L 13.7107,-1.10437 L 13.8711,-1.44525 L 14.0729,-1.76335
 L 14.3131,-2.05363 L 14.5877,-2.31154 L 14.8925,-2.53297 L 15.2227,-2.71448 L 15.5729,-2.85316 L 15.9379,-2.94685
 L 16.3116,-2.99408 L 16.6884,-2.99408 L 17.0621,-2.94685 L 17.427,-2.85316 L 17.7773,-2.71448 L 18.1075,-2.53297
 L 18.4123,-2.31154 L 18.6869,-2.05363 L 18.927,-1.76335 L 19.1289,-1.44525 L 19.2893,-1.10437 L 19.4057,-0.746063
 L 19.4763,-0.375992 L 19.5,-0 L 19.4763,0.375992 L 19.4057,0.746063 L 19.2893,1.10437 L 19.1289,1.44525
 L 18.927,1.76335 L 18.6869,2.05363 L 18.4123,2.31154 L 18.1075,2.53297 L 17.7773,2.71448 L 17.427,2.85316
 L 17.0621,2.94685 L 16.6884,2.99408 z
M 5.31161,2.99408 L 4.93785,2.94685 L 4.57294,2.85316 L 4.22266,2.71448 L 3.89252,2.53297 L 3.58772,2.31154
 L 3.31308,2.05363 L 3.07294,1.76335 L 2.87108,1.44525 L 2.71066,1.10437 L 2.59424,0.746063 L 2.52365,0.375992
 L 2.5,-0 L 2.52365,-0.375992 L 2.59424,-0.746063 L 2.71066,-1.10437 L 2.87108,-1.44525 L 3.07294,-1.76335
 L 3.31308,-2.05363 L 3.58772,-2.31154 L 3.89252,-2.53297 L 4.22266,-2.71448 L 4.57294,-2.85316 L 4.93785,-2.94685
 L 5.31161,-2.99408 L 5.68837,-2.99408 L 6.06213,-2.94685 L 6.42705,-2.85316 L 6.77733,-2.71448 L 7.10747,-2.53297
 L 7.41226,-2.31154 L 7.6869,-2.05363 L 7.92705,-1.76335 L 8.12891,-1.44525 L 8.28932,-1.10437 L 8.40575,-0.746063
 L 8.47633,-0.375992 L 8.5,-0 L 8.47633,0.375992 L 8.40575,0.746063 L 8.28932,1.10437 L 8.12891,1.44525
 L 7.92705,1.76335 L 7.6869,2.05363 L 7.41226,2.31154 L 7.10747,2.53297 L 6.77733,2.71448 L 6.42705,2.85316
 L 6.06213,2.94685 L 5.68837,2.99408 z
M -5.68837,2.99408 L -6.06213,2.94685 L -6.42705,2.85316 L -6.77733,2.71448 L -7.10747,2.53297 L -7.41226,2.31154
 L -7.6869,2.05363 L -7.92705,1.76335 L -8.12891,1.44525 L -8.28932,1.10437 L -8.40575,0.746063 L -8.47633,0.375992
 L -8.5,-0 L -8.47633,-0.375992 L -8.40575,-0.746063 L -8.28932,-1.10437 L -8.12891,-1.44525 L -7.92705,-1.76335
 L -7.6869,-2.05363 L -7.41226,-2.31154 L -7.10747,-2.53297 L -6.77733,-2.71448 L -6.42705,-2.85316 L -6.06213,-2.94685
 L -5.68837,-2.99408 L -5.31161,-2.99408 L -4.93785,-2.94685 L -4.57294,-2.85316 L -4.22266,-2.71448 L -3.89252,-2.53297
 L -3.58772,-2.31154 L -3.31308,-2.05363 L -3.07294,-1.76335 L -2.87108,-1.44525 L -2.71066,-1.10437 L -2.59424,-0.746063
 L -2.52365,-0.375992 L -2.5,-0 L -2.52365,0.375992 L -2.59424,0.746063 L -2.71066,1.10437 L -2.87108,1.44525
 L -3.07294,1.76335 L -3.31308,2.05363 L -3.58772,2.31154 L -3.89252,2.53297 L -4.22266,2.71448 L -4.57294,2.85316
 L -4.93785,2.94685 L -5.31161,2.99408 z
M 29.8116,2.99408 L 29.4379,2.94685 L 29.0729,2.85316 L 28.7227,2.71448 L 28.3925,2.53297 L 28.0877,2.31154
 L 27.8131,2.05363 L 27.5729,1.76335 L 27.3711,1.44525 L 27.2107,1.10437 L 27.0942,0.746063 L 27.0237,0.375992
 L 27,-0 L 27.0237,-0.375992 L 27.0942,-0.746063 L 27.2107,-1.10437 L 27.3711,-1.44525 L 27.5729,-1.76335
 L 27.8131,-2.05363 L 28.0877,-2.31154 L 28.3925,-2.53297 L 28.7227,-2.71448 L 29.0729,-2.85316 L 29.4379,-2.94685
 L 29.8116,-2.99408 L 30.1884,-2.99408 L 30.5621,-2.94685 L 30.927,-2.85316 L 31.2773,-2.71448 L 31.6075,-2.53297
 L 31.9123,-2.31154 L 32.1869,-2.05363 L 32.427,-1.76335 L 32.6289,-1.44525 L 32.7893,-1.10437 L 32.9057,-0.746063
 L 32.9763,-0.375992 L 33,-0 L 32.9763,0.375992 L 32.9057,0.746063 L 32.7893,1.10437 L 32.6289,1.44525
 L 32.427,1.76335 L 32.1869,2.05363 L 31.9123,2.31154 L 31.6075,2.53297 L 31.2773,2.71448 L 30.927,2.85316
 L 30.5621,2.94685 L 30.1884,2.99408 z
M -16.6884,2.99408 L -17.0621,2.94685 L -17.427,2.85316 L -17.7773,2.71448 L -18.1075,2.53297 L -18.4123,2.31154
 L -18.6869,2.05363 L -18.927,1.76335 L -19.1289,1.44525 L -19.2893,1.10437 L -19.4057,0.746063 L -19.4763,0.375992
 L -19.5,-0 L -19.4763,-0.375992 L -19.4057,-0.746063 L -19.2893,-1.10437 L -19.1289,-1.44525 L -18.927,-1.76335
 L -18.6869,-2.05363 L -18.4123,-2.31154 L -18.1075,-2.53297 L -17.7773,-2.71448 L -17.427,-2.85316 L -17.0621,-2.94685
 L -16.6884,-2.99408 L -16.3116,-2.99408 L -15.9379,-2.94685 L -15.5729,-2.85316 L -15.2227,-2.71448 L -14.8925,-2.53297
 L -14.5877,-2.31154 L -14.3131,-2.05363 L -14.0729,-1.76335 L -13.8711,-1.44525 L -13.7107,-1.10437 L -13.5942,-0.746063
 L -13.5237,-0.375992 L -13.5,-0 L -13.5237,0.375992 L -13.5942,0.746063 L -13.7107,1.10437 L -13.8711,1.44525
 L -14.0729,1.76335 L -14.3131,2.05363 L -14.5877,2.31154 L -14.8925,2.53297 L -15.2227,2.71448 L -15.5729,2.85316
 L -15.9379,2.94685 L -16.3116,2.99408 z
" stroke="black" fill="lightgray" stroke-width="0.5"/>
</svg>
