<?xml version="1.0" standalone="no"?>
<!DOCTYPE svg PUBLIC "-//W3C//DTD SVG 1.1//EN" "http://www.w3.org/Graphics/SVG/1.1/DTD/svg11.dtd">
<svg width="104mm" height="30mm" viewBox="-52 -54 104 30" xmlns="http://www.w3.org/2000/svg" version="1.1">
<title>OpenSCAD Model</title>
<path d="
M 47.9369,-24.5886 L 48.5451,-24.7447 L 49.1289,-24.9759 L 49.6791,-25.2784 L 50.1871,-25.6474 L 50.6448,-26.0773
 L 51.0451,-26.5611 L 51.3815,-27.0912 L 51.6489,-27.6594 L 51.8429,-28.2566 L 51.9606,-28.8733 L 52,-29.5
 L 52,-48.5 L 51.9606,-49.1267 L 51.8429,-49.7434 L 51.6489,-50.3406 L 51.3815,-50.9088 L 51.0451,-51.4389
 L 50.6448,-51.9227 L 50.1871,-52.3526 L 49.6791,-52.7216 L 49.1289,-53.0241 L 48.5451,-53.2553 L 47.9369,-53.4114
 L 47.3139,-53.4901 L -47.3139,-53.4901 L -47.9369,-53.4114 L -48.5451,-53.2553 L -49.1289,-53.0241 L -49.6791,-52.7216
 L -50.1871,-52.3526 L -50.6448,-51.9227 L -51.0451,-51.4389 L -51.3815,-50.9088 L -51.6489,-50.3406 L -51.8429,-49.7434
 L -51.9606,-49.1267 L -52,-48.5 L -52,-29.5 L -51.9606,-28.8733 L -51.8429,-28.2566 L -51.6489,-27.6594
 L -51.3815,-27.0912 L -51.0451,-26.5611 L -50.6448,-26.0773 L -50.1871,-25.6474 L -49.6791,-25.2784 L -49.1289,-24.9759
 L -48.5451,-24.7447 L -47.9369,-24.5886 L -47.3139,-24.5099 L 47.3139,-24.5099 z
M 44.8116,-43.5059 L 44.4379,-43.5531 L 44.0729,-43.6468 L 43.7227,-43.7855 L 43.3925,-43.967 L 43.0877,-44.1884
 L 42.8131,-44.4464 L 42.5729,-44.7366 L 42.3711,-45.0547 L 42.2107,-45.3956 L 42.0942,-45.7539 L 42.0237,-46.124
 L 42,-46.5 L 42.0237,-46.876 L 42.0942,-47.2461 L 42.2107,-47.6044 L 42.3711,-47.9453 L 42.5729,-48.2634
 L 42.8131,-48.5536 L 43.0877,-48.8115 L 43.3925,-49.033 L 43.7227,-49.2145 L 44.0729,-49.3532 L 44.4379,-49.4469
 L 44.8116,-49.4941 L 45.1884,-49.4941 L 45.5621,-49.4469 L 45.927,-49.3532 L 46.2773,-49.2145 L 46.6075,-49.033
 L 46.9123,-48.8115 L 47.1869,-48.5536 L 47.427,-48.2634 L 47.6289,-47.9453 L 47.7893,-47.6044 L 47.9057,-47.2461
 L 47.9763,-46.876 L 48,-46.5 L 47.9763,-46.124 L 47.9057,-45.7539 L 47.7893,-45.3956 L 47.6289,-45.0547
 L 47.427,-44.7366 L 47.1869,-44.4464 L 46.9123,-44.1884 L 46.6075,-43.967 L 46.2773,-43.7855 L 45.927,-43.6468
 L 45.5621,-43.5531 L 45.1884,-43.5059 z
M -45.1884,-43.5059 L -45.5621,-43.5531 L -45.927,-43.6468 L -46.2773,-43.7855 L -46.6075,-43.967 L -46.9123,-44.1884
 L -47.1869,-44.4464 L -47.427,-44.7366 L -47.6289,-45.0547 L -47.7893,-45.3956 L -47.9057,-45.7539 L -47.9763,-46.124
 L -48,-46.5 L -47.9763,-46.876 L -47.9057,-47.2461 L -47.7893,-47.6044 L -47.6289,-47.9453 L -47.427,-48.2634
 L -47.1869,-48.5536 L -46.9123,-48.8115 L -46.6075,-49.033 L -46.2773,-49.2145 L -45.927,-49.3532 L -45.5621,-49.4469
 L -45.1884,-49.4941 L -44.8116,-49.4941 L -44.4379,-49.4469 L -44.0729,-49.3532 L -43.7227,-49.2145 L -43.3925,-49.033
 L -43.0877,-48.8115 L -42.8131,-48.5536 L -42.5729,-48.2634 L -42.3711,-47.9453 L -42.2107,-47.6044 L -42.0942,-47.2461
 L -42.0237,-46.876 L -42,-46.5 L -42.0237,-46.124 L -42.0942,-45.7539 L -42.2107,-45.3956 L -42.3711,-45.0547
 L -42.5729,-44.7366 L -42.8131,-44.4464 L -43.0877,-44.1884 L -43.3925,-43.967 L -43.7227,-43.7855 L -44.0729,-43.6468
 L -44.4379,-43.5531 L -44.8116,-43.5059 z
M -38.4395,-32.0138 L -39.3117,-32.124 L -40.1631,-32.3426 L -40.9805,-32.6662 L -41.7508,-33.0897 L -42.462,-33.6064
 L -43.1028,-34.2082 L -43.6631,-34.8855 L -44.1341,-35.6277 L -44.5084,-36.4231 L -44.7801,-37.2592 L -44.9448,-38.1227
 L -45,-39 L -44.9448,-39.8773 L -44.7801,-40.7408 L -44.5084,-41.5769 L -44.1341,-42.3723 L -43.6631,-43.1145
 L -43.1028,-43.7918 L -42.462,-44.3936 L -41.7508,-44.9103 L -40.9805,-45.3338 L -40.1631,-45.6574 L -39.3117,-45.876
 L -38.4395,-45.9862 L -37.5605,-45.9862 L -36.6883,-45.876 L -35.8369,-45.6574 L -35.0195,-45.3338 L -34.2492,-44.9103
 L -33.538,-44.3936 L -32.8972,-43.7918 L -32.3369,-43.1145 L -31.8658,-42.3723 L -31.4916,-41.5769 L -31.2199,-40.7408
 L -31.0552,-39.8773 L -31,-39 L -31.0552,-38.1227 L -31.2199,-37.2592 L -31.4916,-36.4231 L -31.8658,-35.6277
 L -32.3369,-34.8855 L -32.8972,-34.2082 L -33.538,-33.6064 L -34.2492,-33.0897 L -35.0195,-32.6662 L -35.8369,-32.3426
 L -36.6883,-32.124 L -37.5605,-32.0138 z
M 18.5605,-32.0138 L 17.6883,-32.124 L 16.8369,-32.3426 L 16.0195,-32.6662 L 15.2492,-33.0897 L 14.538,-33.6064
 L 13.8972,-34.2082 L 13.3369,-34.8855 L 12.8658,-35.6277 L 12.4916,-36.4231 L 12.2199,-37.2592 L 12.0552,-38.1227
 L 12,-39 L 12.0552,-39.8773 L 12.2199,-40.7408 L 12.4916,-41.5769 L 12.8658,-42.3723 L 13.3369,-43.1145
 L 13.8972,-43.7918 L 14.538,-44.3936 L 15.2492,-44.9103 L 16.0195,-45.3338 L 16.8369,-45.6574 L 17.6883,-45.876
 L 18.5605,-45.9862 L 19.4395,-45.9862 L 20.3117,-45.876 L 21.1631,-45.6574 L 21.9805,-45.3338 L 22.7508,-44.9103
 L 23.462,-44.3936 L 24.1028,-43.7918 L 24.6631,-43.1145 L 25.1341,-42.3723 L 25.5084,-41.5769 L 25.7801,-40.7408
 L 25.9448,-39.8773 L 26,-39 L 25.9448,-38.1227 L 25.7801,-37.2592 L 25.5084,-36.4231 L 25.1341,-35.6277
 L 24.6631,-34.8855 L 24.1028,-34.2082 L 23.462,-33.6064 L 22.7508,-33.0897 L 21.9805,-32.6662 L 21.1631,-32.3426
 L 20.3117,-32.124 L 19.4395,-32.0138 z
M 37.5605,-32.0138 L 36.6883,-32.124 L 35.8369,-32.3426 L 35.0195,-32.6662 L 34.2492,-33.0897 L 33.538,-33.6064
 L 32.8972,-34.2082 L 32.3369,-34.8855 L 31.8658,-35.6277 L 31.4916,-36.4231 L 31.2199,-37.2592 L 31.0552,-38.1227
 L 31,-39 L 31.0552,-39.8773 L 31.2199,-40.7408 L 31.4916,-41.5769 L 31.8658,-42.3723 L 32.3369,-43.1145
 L 32.8972,-43.7918 L 33.538,-44.3936 L 34.2492,-44.9103 L 35.0195,-45.3338 L 35.8369,-45.6574 L 36.6883,-45.876
 L 37.5605,-45.9862 L 38.4395,-45.9862 L 39.3117,-45.876 L 40.1631,-45.6574 L 40.9805,-45.3338 L 41.7508,-44.9103
 L 42.462,-44.3936 L 43.1028,-43.7918 L 43.6631,-43.1145 L 44.1341,-42.3723 L 44.5084,-41.5769 L 44.7801,-40.7408
 L 44.9448,-39.8773 L 45,-39 L 44.9448,-38.1227 L 44.7801,-37.2592 L 44.5084,-36.4231 L 44.1341,-35.6277
 L 43.6631,-34.8855 L 43.1028,-34.2082 L 42.462,-33.6064 L 41.7508,-33.0897 L 40.9805,-32.6662 L 40.1631,-32.3426
 L 39.3117,-32.124 L 38.4395,-32.0138 z
M -0.439529,-32.0138 L -1.31166,-32.124 L -2.16312,-32.3426 L -2.98045,-32.6662 L -3.75078,-33.0897 L -4.46196,-33.6064
 L -5.10277,-34.2082 L -5.66312,-34.8855 L -6.13414,-35.6277 L -6.50842,-36.4231 L -6.78008,-37.2592 L -6.94479,-38.1227
 L -7,-39 L -6.94479,-39.8773 L -6.78008,-40.7408 L -6.50842,-41.5769 L -6.13414,-42.3723 L -5.66312,-43.1145
 L -5.10277,-43.7918 L -4.46196,-44.3936 L -3.75078,-44.9103 L -2.98045,-45.3338 L -2.16312,-45.6574 L -1.31166,-45.876
 L -0.439529,-45.9862 L 0.439529,-45.9862 L 1.31166,-45.876 L 2.16312,-45.6574 L 2.98045,-45.3338 L 3.75078,-44.9103
 L 4.46196,-44.3936 L 5.10277,-43.7918 L 5.66312,-43.1145 L 6.13414,-42.3723 L 6.50842,-41.5769 L 6.78008,-40.7408
 L 6.94479,-39.8773 L 7,-39 L 6.94479,-38.1227 L 6.78008,-37.2592 L 6.50842,-36.4231 L 6.13414,-35.6277
 L 5.66312,-34.8855 L 5.10277,-34.2082 L 4.46196,-33.6064 L 3.75078,-33.0897 L 2.98045,-32.6662 L 2.16312,-32.3426
 L 1.31166,-32.124 L 0.439529,-32.0138 z
M -19.4395,-32.0138 L -20.3117,-32.124 L -21.1631,-32.3426 L -21.9805,-32.6662 L -22.7508,-33.0897 L -23.462,-33.6064
 L -24.1028,-34.2082 L -24.6631,-34.8855 L -25.1341,-35.6277 L -25.5084,-36.4231 L -25.7801,-37.2592 L -25.9448,-38.1227
 L -26,-39 L -25.9448,-39.8773 L -25.7801,-40.7408 L -25.5084,-41.5769 L -25.1341,-42.3723 L -24.6631,-43.1145
 L -24.1028,-43.7918 L -23.462,-44.3936 L -22.7508,-44.9103 L -21.9805,-45.3338 L -21.1631,-45.6574 L -20.3117,-45.876
 L -19.4395,-45.9862 L -18.5605,-45.9862 L -17.6883,-45.876 L -16.8369,-45.6574 L -16.0195,-45.3338 L -15.2492,-44.9103
 L -14.538,-44.3936 L -13.8972,-43.7918 L -13.3369,-43.1145 L -12.8658,-42.3723 L -12.4916,-41.5769 L -12.2199,-40.7408
 L -12.0552,-39.8773 L -12,-39 L -12.0552,-38.1227 L -12.2199,-37.2592 L -12.4916,-36.4231 L -12.8658,-35.6277
 L -13.3369,-34.8855 L -13.8972,-34.2082 L -14.538,-33.6064 L -15.2492,-33.0897 L -16.0195,-32.6662 L -16.8369,-32.3426
 L -17.6883,-32.124 L -18.5605,-32.0138 z
M -45.1884,-28.5059 L -45.5621,-28.5531 L -45.927,-28.6468 L -46.2773,-28.7855 L -46.6075,-28.967 L -46.9123,-29.1885
 L -47.1869,-29.4464 L -47.427,-29.7366 L -47.6289,-30.0547 L -47.7893,-30.3956 L -47.9057,-30.7539 L -47.9763,-31.124
 L -48,-31.5 L -47.9763,-31.876 L -47.9057,-32.2461 L -47.7893,-32.6044 L -47.6289,-32.9453 L -47.427,-33.2634
 L -47.1869,-33.5536 L -46.9123,-33.8116 L -46.6075,-34.033 L -46.2773,-34.2145 L -45.927,-34.3532 L -45.5621,-34.4469
 L -45.1884,-34.4941 L -44.8116,-34.4941 L -44.4379,-34.4469 L -44.0729,-34.3532 L -43.7227,-34.2145 L -43.3925,-34.033
 L -43.0877,-33.8116 L -42.8131,-33.5536 L -42.5729,-33.2634 L -42.3711,-32.9453 L -42.2107,-32.6044 L -42.0942,-32.2461
 L -42.0237,-31.876 L -42,-31.5 L -42.0237,-31.124 L -42.0942,-30.7539 L -42.2107,-30.3956 L -42.3711,-30.0547
 L -42.5729,-29.7366 L -42.8131,-29.4464 L -43.0877,-29.1885 L -43.3925,-28.967 L -43.7227,-28.7855 L -44.0729,-28.6468
 L -44.4379,-28.5531 L -44.8116,-28.5059 z
M 44.8116,-28.5059 L 44.4379,-28.5531 L 44.0729,-28.6468 L 43.7227,-28.7855 L 43.3925,-28.967 L 43.0877,-29.1885
 L 42.8131,-29.4464 L 42.5729,-29.7366 L 42.3711,-30.0547 L 42.2107,-30.3956 L 42.0942,-30.7539 L 42.0237,-31.124
 L 42,-31.5 L 42.0237,-31.876 L 42.0942,-32.2461 L 42.2107,-32.6044 L 42.3711,-32.9453 L 42.5729,-33.2634
 L 42.8131,-33.5536 L 43.0877,-33.8116 L 43.3925,-34.033 L 43.7227,-34.2145 L 44.0729,-34.3532 L 44.4379,-34.4469
 L 44.8116,-34.4941 L 45.1884,-34.4941 L 45.5621,-34.4469 L 45.927,-34.3532 L 46.2773,-34.2145 L 46.6075,-34.033
 L 46.9123,-33.8116 L 47.1869,-33.5536 L 47.427,-33.2634 L 47.6289,-32.9453 L 47.7893,-32.6044 L 47.9057,-32.2461
 L 47.9763,-31.876 L 48,-31.5 L 47.9763,-31.124 L 47.9057,-30.7539 L 47.7893,-30.3956 L 47.6289,-30.0547
 L 47.427,-29.7366 L 47.1869,-29.4464 L 46.9123,-29.1885 L 46.6075,-28.967 L 46.2773,-28.7855 L 45.927,-28.6468
 L 45.5621,-28.5531 L 45.1884,-28.5059 z
" stroke="black" fill="lightgray" stroke-width="0.5"/>
</svg>
