  0
SECTION
  2
BLOCKS
  0
ENDSEC
  0
SECTION
  2
ENTITIES
  0
LINE
  8
0
 10
40.4369
 20
24.5886
 11
41.0451
 21
24.7447
  0
LINE
  8
0
 10
41.0451
 20
24.7447
 11
41.6289
 21
24.9759
  0
LINE
  8
0
 10
41.6289
 20
24.9759
 11
42.1791
 21
25.2784
  0
LINE
  8
0
 10
42.1791
 20
25.2784
 11
42.6871
 21
25.6474
  0
LINE
  8
0
 10
42.6871
 20
25.6474
 11
43.1448
 21
26.0773
  0
LINE
  8
0
 10
43.1448
 20
26.0773
 11
43.5451
 21
26.5611
  0
LINE
  8
0
 10
43.5451
 20
26.5611
 11
43.8815
 21
27.0912
  0
LINE
  8
0
 10
43.8815
 20
27.0912
 11
44.1489
 21
27.6594
  0
LINE
  8
0
 10
44.1489
 20
27.6594
 11
44.3429
 21
28.2566
  0
LINE
  8
0
 10
44.3429
 20
28.2566
 11
44.4606
 21
28.8733
  0
LINE
  8
0
 10
44.4606
 20
28.8733
 11
44.5
 21
29.5
  0
LINE
  8
0
 10
44.5
 20
29.5
 11
44.5
 21
48.5
  0
LINE
  8
0
 10
44.5
 20
48.5
 11
44.4606
 21
49.1267
  0
LINE
  8
0
 10
44.4606
 20
49.1267
 11
44.3429
 21
49.7434
  0
LINE
  8
0
 10
44.3429
 20
49.7434
 11
44.1489
 21
50.3406
  0
LINE
  8
0
 10
44.1489
 20
50.3406
 11
43.8815
 21
50.9088
  0
LINE
  8
0
 10
43.8815
 20
50.9088
 11
43.5451
 21
51.4389
  0
LINE
  8
0
 10
43.5451
 20
51.4389
 11
43.1448
 21
51.9227
  0
LINE
  8
0
 10
43.1448
 20
51.9227
 11
42.6871
 21
52.3526
  0
LINE
  8
0
 10
42.6871
 20
52.3526
 11
42.1791
 21
52.7216
  0
LINE
  8
0
 10
42.1791
 20
52.7216
 11
41.6289
 21
53.0241
  0
LINE
  8
0
 10
41.6289
 20
53.0241
 11
41.0451
 21
53.2553
  0
LINE
  8
0
 10
41.0451
 20
53.2553
 11
40.4369
 21
53.4114
  0
LINE
  8
0
 10
40.4369
 20
53.4114
 11
39.8139
 21
53.4901
  0
LINE
  8
0
 10
39.8139
 20
53.4901
 11
-39.8139
 21
53.4901
  0
LINE
  8
0
 10
-39.8139
 20
53.4901
 11
-40.4369
 21
53.4114
  0
LINE
  8
0
 10
-40.4369
 20
53.4114
 11
-41.0451
 21
53.2553
  0
LINE
  8
0
 10
-41.0451
 20
53.2553
 11
-41.6289
 21
53.0241
  0
LINE
  8
0
 10
-41.6289
 20
53.0241
 11
-42.1791
 21
52.7216
  0
LINE
  8
0
 10
-42.1791
 20
52.7216
 11
-42.6871
 21
52.3526
  0
LINE
  8
0
 10
-42.6871
 20
52.3526
 11
-43.1448
 21
51.9227
  0
LINE
  8
0
 10
-43.1448
 20
51.9227
 11
-43.5451
 21
51.4389
  0
LINE
  8
0
 10
-43.5451
 20
51.4389
 11
-43.8815
 21
50.9088
  0
LINE
  8
0
 10
-43.8815
 20
50.9088
 11
-44.1489
 21
50.3406
  0
LINE
  8
0
 10
-44.1489
 20
50.3406
 11
-44.3429
 21
49.7434
  0
LINE
  8
0
 10
-44.3429
 20
49.7434
 11
-44.4606
 21
49.1267
  0
LINE
  8
0
 10
-44.4606
 20
49.1267
 11
-44.5
 21
48.5
  0
LINE
  8
0
 10
-44.5
 20
48.5
 11
-44.5
 21
29.5
  0
LINE
  8
0
 10
-44.5
 20
29.5
 11
-44.4606
 21
28.8733
  0
LINE
  8
0
 10
-44.4606
 20
28.8733
 11
-44.3429
 21
28.2566
  0
LINE
  8
0
 10
-44.3429
 20
28.2566
 11
-44.1489
 21
27.6594
  0
LINE
  8
0
 10
-44.1489
 20
27.6594
 11
-43.8815
 21
27.0912
  0
LINE
  8
0
 10
-43.8815
 20
27.0912
 11
-43.5451
 21
26.5611
  0
LINE
  8
0
 10
-43.5451
 20
26.5611
 11
-43.1448
 21
26.0773
  0
LINE
  8
0
 10
-43.1448
 20
26.0773
 11
-42.6871
 21
25.6474
  0
LINE
  8
0
 10
-42.6871
 20
25.6474
 11
-42.1791
 21
25.2784
  0
LINE
  8
0
 10
-42.1791
 20
25.2784
 11
-41.6289
 21
24.9759
  0
LINE
  8
0
 10
-41.6289
 20
24.9759
 11
-41.0451
 21
24.7447
  0
LINE
  8
0
 10
-41.0451
 20
24.7447
 11
-40.4369
 21
24.5886
  0
LINE
  8
0
 10
-40.4369
 20
24.5886
 11
-39.8139
 21
24.5099
  0
LINE
  8
0
 10
-39.8139
 20
24.5099
 11
39.8139
 21
24.5099
  0
LINE
  8
0
 10
39.8139
 20
24.5099
 11
40.4369
 21
24.5886
  0
LINE
  8
0
 10
-37.6884
 20
43.5059
 11
-38.0621
 21
43.5531
  0
LINE
  8
0
 10
-38.0621
 20
43.5531
 11
-38.427
 21
43.6468
  0
LINE
  8
0
 10
-38.427
 20
43.6468
 11
-38.7773
 21
43.7855
  0
LINE
  8
0
 10
-38.7773
 20
43.7855
 11
-39.1075
 21
43.967
  0
LINE
  8
0
 10
-39.1075
 20
43.967
 11
-39.4123
 21
44.1884
  0
LINE
  8
0
 10
-39.4123
 20
44.1884
 11
-39.6869
 21
44.4464
  0
LINE
  8
0
 10
-39.6869
 20
44.4464
 11
-39.927
 21
44.7366
  0
LINE
  8
0
 10
-39.927
 20
44.7366
 11
-40.1289
 21
45.0547
  0
LINE
  8
0
 10
-40.1289
 20
45.0547
 11
-40.2893
 21
45.3956
  0
LINE
  8
0
 10
-40.2893
 20
45.3956
 11
-40.4057
 21
45.7539
  0
LINE
  8
0
 10
-40.4057
 20
45.7539
 11
-40.4763
 21
46.124
  0
LINE
  8
0
 10
-40.4763
 20
46.124
 11
-40.5
 21
46.5
  0
LINE
  8
0
 10
-40.5
 20
46.5
 11
-40.4763
 21
46.876
  0
LINE
  8
0
 10
-40.4763
 20
46.876
 11
-40.4057
 21
47.2461
  0
LINE
  8
0
 10
-40.4057
 20
47.2461
 11
-40.2893
 21
47.6044
  0
LINE
  8
0
 10
-40.2893
 20
47.6044
 11
-40.1289
 21
47.9453
  0
LINE
  8
0
 10
-40.1289
 20
47.9453
 11
-39.927
 21
48.2634
  0
LINE
  8
0
 10
-39.927
 20
48.2634
 11
-39.6869
 21
48.5536
  0
LINE
  8
0
 10
-39.6869
 20
48.5536
 11
-39.4123
 21
48.8115
  0
LINE
  8
0
 10
-39.4123
 20
48.8115
 11
-39.1075
 21
49.033
  0
LINE
  8
0
 10
-39.1075
 20
49.033
 11
-38.7773
 21
49.2145
  0
LINE
  8
0
 10
-38.7773
 20
49.2145
 11
-38.427
 21
49.3532
  0
LINE
  8
0
 10
-38.427
 20
49.3532
 11
-38.0621
 21
49.4469
  0
LINE
  8
0
 10
-38.0621
 20
49.4469
 11
-37.6884
 21
49.4941
  0
LINE
  8
0
 10
-37.6884
 20
49.4941
 11
-37.3116
 21
49.4941
  0
LINE
  8
0
 10
-37.3116
 20
49.4941
 11
-36.9379
 21
49.4469
  0
LINE
  8
0
 10
-36.9379
 20
49.4469
 11
-36.5729
 21
49.3532
  0
LINE
  8
0
 10
-36.5729
 20
49.3532
 11
-36.2227
 21
49.2145
  0
LINE
  8
0
 10
-36.2227
 20
49.2145
 11
-35.8925
 21
49.033
  0
LINE
  8
0
 10
-35.8925
 20
49.033
 11
-35.5877
 21
48.8115
  0
LINE
  8
0
 10
-35.5877
 20
48.8115
 11
-35.3131
 21
48.5536
  0
LINE
  8
0
 10
-35.3131
 20
48.5536
 11
-35.0729
 21
48.2634
  0
LINE
  8
0
 10
-35.0729
 20
48.2634
 11
-34.8711
 21
47.9453
  0
LINE
  8
0
 10
-34.8711
 20
47.9453
 11
-34.7107
 21
47.6044
  0
LINE
  8
0
 10
-34.7107
 20
47.6044
 11
-34.5942
 21
47.2461
  0
LINE
  8
0
 10
-34.5942
 20
47.2461
 11
-34.5237
 21
46.876
  0
LINE
  8
0
 10
-34.5237
 20
46.876
 11
-34.5
 21
46.5
  0
LINE
  8
0
 10
-34.5
 20
46.5
 11
-34.5237
 21
46.124
  0
LINE
  8
0
 10
-34.5237
 20
46.124
 11
-34.5942
 21
45.7539
  0
LINE
  8
0
 10
-34.5942
 20
45.7539
 11
-34.7107
 21
45.3956
  0
LINE
  8
0
 10
-34.7107
 20
45.3956
 11
-34.8711
 21
45.0547
  0
LINE
  8
0
 10
-34.8711
 20
45.0547
 11
-35.0729
 21
44.7366
  0
LINE
  8
0
 10
-35.0729
 20
44.7366
 11
-35.3131
 21
44.4464
  0
LINE
  8
0
 10
-35.3131
 20
44.4464
 11
-35.5877
 21
44.1884
  0
LINE
  8
0
 10
-35.5877
 20
44.1884
 11
-35.8925
 21
43.967
  0
LINE
  8
0
 10
-35.8925
 20
43.967
 11
-36.2227
 21
43.7855
  0
LINE
  8
0
 10
-36.2227
 20
43.7855
 11
-36.5729
 21
43.6468
  0
LINE
  8
0
 10
-36.5729
 20
43.6468
 11
-36.9379
 21
43.5531
  0
LINE
  8
0
 10
-36.9379
 20
43.5531
 11
-37.3116
 21
43.5059
  0
LINE
  8
0
 10
-37.3116
 20
43.5059
 11
-37.6884
 21
43.5059
  0
LINE
  8
0
 10
37.3116
 20
43.5059
 11
36.9379
 21
43.5531
  0
LINE
  8
0
 10
36.9379
 20
43.5531
 11
36.5729
 21
43.6468
  0
LINE
  8
0
 10
36.5729
 20
43.6468
 11
36.2227
 21
43.7855
  0
LINE
  8
0
 10
36.2227
 20
43.7855
 11
35.8925
 21
43.967
  0
LINE
  8
0
 10
35.8925
 20
43.967
 11
35.5877
 21
44.1884
  0
LINE
  8
0
 10
35.5877
 20
44.1884
 11
35.3131
 21
44.4464
  0
LINE
  8
0
 10
35.3131
 20
44.4464
 11
35.0729
 21
44.7366
  0
LINE
  8
0
 10
35.0729
 20
44.7366
 11
34.8711
 21
45.0547
  0
LINE
  8
0
 10
34.8711
 20
45.0547
 11
34.7107
 21
45.3956
  0
LINE
  8
0
 10
34.7107
 20
45.3956
 11
34.5942
 21
45.7539
  0
LINE
  8
0
 10
34.5942
 20
45.7539
 11
34.5237
 21
46.124
  0
LINE
  8
0
 10
34.5237
 20
46.124
 11
34.5
 21
46.5
  0
LINE
  8
0
 10
34.5
 20
46.5
 11
34.5237
 21
46.876
  0
LINE
  8
0
 10
34.5237
 20
46.876
 11
34.5942
 21
47.2461
  0
LINE
  8
0
 10
34.5942
 20
47.2461
 11
34.7107
 21
47.6044
  0
LINE
  8
0
 10
34.7107
 20
47.6044
 11
34.8711
 21
47.9453
  0
LINE
  8
0
 10
34.8711
 20
47.9453
 11
35.0729
 21
48.2634
  0
LINE
  8
0
 10
35.0729
 20
48.2634
 11
35.3131
 21
48.5536
  0
LINE
  8
0
 10
35.3131
 20
48.5536
 11
35.5877
 21
48.8115
  0
LINE
  8
0
 10
35.5877
 20
48.8115
 11
35.8925
 21
49.033
  0
LINE
  8
0
 10
35.8925
 20
49.033
 11
36.2227
 21
49.2145
  0
LINE
  8
0
 10
36.2227
 20
49.2145
 11
36.5729
 21
49.3532
  0
LINE
  8
0
 10
36.5729
 20
49.3532
 11
36.9379
 21
49.4469
  0
LINE
  8
0
 10
36.9379
 20
49.4469
 11
37.3116
 21
49.4941
  0
LINE
  8
0
 10
37.3116
 20
49.4941
 11
37.6884
 21
49.4941
  0
LINE
  8
0
 10
37.6884
 20
49.4941
 11
38.0621
 21
49.4469
  0
LINE
  8
0
 10
38.0621
 20
49.4469
 11
38.427
 21
49.3532
  0
LINE
  8
0
 10
38.427
 20
49.3532
 11
38.7773
 21
49.2145
  0
LINE
  8
0
 10
38.7773
 20
49.2145
 11
39.1075
 21
49.033
  0
LINE
  8
0
 10
39.1075
 20
49.033
 11
39.4123
 21
48.8115
  0
LINE
  8
0
 10
39.4123
 20
48.8115
 11
39.6869
 21
48.5536
  0
LINE
  8
0
 10
39.6869
 20
48.5536
 11
39.927
 21
48.2634
  0
LINE
  8
0
 10
39.927
 20
48.2634
 11
40.1289
 21
47.9453
  0
LINE
  8
0
 10
40.1289
 20
47.9453
 11
40.2893
 21
47.6044
  0
LINE
  8
0
 10
40.2893
 20
47.6044
 11
40.4057
 21
47.2461
  0
LINE
  8
0
 10
40.4057
 20
47.2461
 11
40.4763
 21
46.876
  0
LINE
  8
0
 10
40.4763
 20
46.876
 11
40.5
 21
46.5
  0
LINE
  8
0
 10
40.5
 20
46.5
 11
40.4763
 21
46.124
  0
LINE
  8
0
 10
40.4763
 20
46.124
 11
40.4057
 21
45.7539
  0
LINE
  8
0
 10
40.4057
 20
45.7539
 11
40.2893
 21
45.3956
  0
LINE
  8
0
 10
40.2893
 20
45.3956
 11
40.1289
 21
45.0547
  0
LINE
  8
0
 10
40.1289
 20
45.0547
 11
39.927
 21
44.7366
  0
LINE
  8
0
 10
39.927
 20
44.7366
 11
39.6869
 21
44.4464
  0
LINE
  8
0
 10
39.6869
 20
44.4464
 11
39.4123
 21
44.1884
  0
LINE
  8
0
 10
39.4123
 20
44.1884
 11
39.1075
 21
43.967
  0
LINE
  8
0
 10
39.1075
 20
43.967
 11
38.7773
 21
43.7855
  0
LINE
  8
0
 10
38.7773
 20
43.7855
 11
38.427
 21
43.6468
  0
LINE
  8
0
 10
38.427
 20
43.6468
 11
38.0621
 21
43.5531
  0
LINE
  8
0
 10
38.0621
 20
43.5531
 11
37.6884
 21
43.5059
  0
LINE
  8
0
 10
37.6884
 20
43.5059
 11
37.3116
 21
43.5059
  0
LINE
  8
0
 10
-30.3139
 20
34.0099
 11
-30.9369
 21
34.0886
  0
LINE
  8
0
 10
-30.9369
 20
34.0886
 11
-31.5451
 21
34.2447
  0
LINE
  8
0
 10
-31.5451
 20
34.2447
 11
-32.1289
 21
34.4759
  0
LINE
  8
0
 10
-32.1289
 20
34.4759
 11
-32.6791
 21
34.7784
  0
LINE
  8
0
 10
-32.6791
 20
34.7784
 11
-33.1871
 21
35.1474
  0
LINE
  8
0
 10
-33.1871
 20
35.1474
 11
-33.6448
 21
35.5773
  0
LINE
  8
0
 10
-33.6448
 20
35.5773
 11
-34.0451
 21
36.0611
  0
LINE
  8
0
 10
-34.0451
 20
36.0611
 11
-34.3815
 21
36.5912
  0
LINE
  8
0
 10
-34.3815
 20
36.5912
 11
-34.6489
 21
37.1594
  0
LINE
  8
0
 10
-34.6489
 20
37.1594
 11
-34.8429
 21
37.7566
  0
LINE
  8
0
 10
-34.8429
 20
37.7566
 11
-34.9606
 21
38.3733
  0
LINE
  8
0
 10
-34.9606
 20
38.3733
 11
-35
 21
39
  0
LINE
  8
0
 10
-35
 20
39
 11
-34.9606
 21
39.6267
  0
LINE
  8
0
 10
-34.9606
 20
39.6267
 11
-34.8429
 21
40.2434
  0
LINE
  8
0
 10
-34.8429
 20
40.2434
 11
-34.6489
 21
40.8406
  0
LINE
  8
0
 10
-34.6489
 20
40.8406
 11
-34.3815
 21
41.4088
  0
LINE
  8
0
 10
-34.3815
 20
41.4088
 11
-34.0451
 21
41.9389
  0
LINE
  8
0
 10
-34.0451
 20
41.9389
 11
-33.6448
 21
42.4227
  0
LINE
  8
0
 10
-33.6448
 20
42.4227
 11
-33.1871
 21
42.8526
  0
LINE
  8
0
 10
-33.1871
 20
42.8526
 11
-32.6791
 21
43.2216
  0
LINE
  8
0
 10
-32.6791
 20
43.2216
 11
-32.1289
 21
43.5241
  0
LINE
  8
0
 10
-32.1289
 20
43.5241
 11
-31.5451
 21
43.7553
  0
LINE
  8
0
 10
-31.5451
 20
43.7553
 11
-30.9369
 21
43.9114
  0
LINE
  8
0
 10
-30.9369
 20
43.9114
 11
-30.3139
 21
43.9901
  0
LINE
  8
0
 10
-30.3139
 20
43.9901
 11
-29.686
 21
43.9901
  0
LINE
  8
0
 10
-29.686
 20
43.9901
 11
-29.0631
 21
43.9114
  0
LINE
  8
0
 10
-29.0631
 20
43.9114
 11
-28.4549
 21
43.7553
  0
LINE
  8
0
 10
-28.4549
 20
43.7553
 11
-27.8711
 21
43.5241
  0
LINE
  8
0
 10
-27.8711
 20
43.5241
 11
-27.3209
 21
43.2216
  0
LINE
  8
0
 10
-27.3209
 20
43.2216
 11
-26.8129
 21
42.8526
  0
LINE
  8
0
 10
-26.8129
 20
42.8526
 11
-26.3551
 21
42.4227
  0
LINE
  8
0
 10
-26.3551
 20
42.4227
 11
-25.9549
 21
41.9389
  0
LINE
  8
0
 10
-25.9549
 20
41.9389
 11
-25.6185
 21
41.4088
  0
LINE
  8
0
 10
-25.6185
 20
41.4088
 11
-25.3511
 21
40.8406
  0
LINE
  8
0
 10
-25.3511
 20
40.8406
 11
-25.1571
 21
40.2434
  0
LINE
  8
0
 10
-25.1571
 20
40.2434
 11
-25.0394
 21
39.6267
  0
LINE
  8
0
 10
-25.0394
 20
39.6267
 11
-25
 21
39
  0
LINE
  8
0
 10
-25
 20
39
 11
-25.0394
 21
38.3733
  0
LINE
  8
0
 10
-25.0394
 20
38.3733
 11
-25.1571
 21
37.7566
  0
LINE
  8
0
 10
-25.1571
 20
37.7566
 11
-25.3511
 21
37.1594
  0
LINE
  8
0
 10
-25.3511
 20
37.1594
 11
-25.6185
 21
36.5912
  0
LINE
  8
0
 10
-25.6185
 20
36.5912
 11
-25.9549
 21
36.0611
  0
LINE
  8
0
 10
-25.9549
 20
36.0611
 11
-26.3551
 21
35.5773
  0
LINE
  8
0
 10
-26.3551
 20
35.5773
 11
-26.8129
 21
35.1474
  0
LINE
  8
0
 10
-26.8129
 20
35.1474
 11
-27.3209
 21
34.7784
  0
LINE
  8
0
 10
-27.3209
 20
34.7784
 11
-27.8711
 21
34.4759
  0
LINE
  8
0
 10
-27.8711
 20
34.4759
 11
-28.4549
 21
34.2447
  0
LINE
  8
0
 10
-28.4549
 20
34.2447
 11
-29.0631
 21
34.0886
  0
LINE
  8
0
 10
-29.0631
 20
34.0886
 11
-29.686
 21
34.0099
  0
LINE
  8
0
 10
-29.686
 20
34.0099
 11
-30.3139
 21
34.0099
  0
LINE
  8
0
 10
14.686
 20
34.0099
 11
14.0631
 21
34.0886
  0
LINE
  8
0
 10
14.0631
 20
34.0886
 11
13.4549
 21
34.2447
  0
LINE
  8
0
 10
13.4549
 20
34.2447
 11
12.8711
 21
34.4759
  0
LINE
  8
0
 10
12.8711
 20
34.4759
 11
12.3209
 21
34.7784
  0
LINE
  8
0
 10
12.3209
 20
34.7784
 11
11.8129
 21
35.1474
  0
LINE
  8
0
 10
11.8129
 20
35.1474
 11
11.3551
 21
35.5773
  0
LINE
  8
0
 10
11.3551
 20
35.5773
 11
10.9549
 21
36.0611
  0
LINE
  8
0
 10
10.9549
 20
36.0611
 11
10.6185
 21
36.5912
  0
LINE
  8
0
 10
10.6185
 20
36.5912
 11
10.3511
 21
37.1594
  0
LINE
  8
0
 10
10.3511
 20
37.1594
 11
10.1571
 21
37.7566
  0
LINE
  8
0
 10
10.1571
 20
37.7566
 11
10.0394
 21
38.3733
  0
LINE
  8
0
 10
10.0394
 20
38.3733
 11
10
 21
39
  0
LINE
  8
0
 10
10
 20
39
 11
10.0394
 21
39.6267
  0
LINE
  8
0
 10
10.0394
 20
39.6267
 11
10.1571
 21
40.2434
  0
LINE
  8
0
 10
10.1571
 20
40.2434
 11
10.3511
 21
40.8406
  0
LINE
  8
0
 10
10.3511
 20
40.8406
 11
10.6185
 21
41.4088
  0
LINE
  8
0
 10
10.6185
 20
41.4088
 11
10.9549
 21
41.9389
  0
LINE
  8
0
 10
10.9549
 20
41.9389
 11
11.3551
 21
42.4227
  0
LINE
  8
0
 10
11.3551
 20
42.4227
 11
11.8129
 21
42.8526
  0
LINE
  8
0
 10
11.8129
 20
42.8526
 11
12.3209
 21
43.2216
  0
LINE
  8
0
 10
12.3209
 20
43.2216
 11
12.8711
 21
43.5241
  0
LINE
  8
0
 10
12.8711
 20
43.5241
 11
13.4549
 21
43.7553
  0
LINE
  8
0
 10
13.4549
 20
43.7553
 11
14.0631
 21
43.9114
  0
LINE
  8
0
 10
14.0631
 20
43.9114
 11
14.686
 21
43.9901
  0
LINE
  8
0
 10
14.686
 20
43.9901
 11
15.3139
 21
43.9901
  0
LINE
  8
0
 10
15.3139
 20
43.9901
 11
15.9369
 21
43.9114
  0
LINE
  8
0
 10
15.9369
 20
43.9114
 11
16.5451
 21
43.7553
  0
LINE
  8
0
 10
16.5451
 20
43.7553
 11
17.1289
 21
43.5241
  0
LINE
  8
0
 10
17.1289
 20
43.5241
 11
17.6791
 21
43.2216
  0
LINE
  8
0
 10
17.6791
 20
43.2216
 11
18.1871
 21
42.8526
  0
LINE
  8
0
 10
18.1871
 20
42.8526
 11
18.6448
 21
42.4227
  0
LINE
  8
0
 10
18.6448
 20
42.4227
 11
19.0451
 21
41.9389
  0
LINE
  8
0
 10
19.0451
 20
41.9389
 11
19.3815
 21
41.4088
  0
LINE
  8
0
 10
19.3815
 20
41.4088
 11
19.6489
 21
40.8406
  0
LINE
  8
0
 10
19.6489
 20
40.8406
 11
19.8429
 21
40.2434
  0
LINE
  8
0
 10
19.8429
 20
40.2434
 11
19.9606
 21
39.6267
  0
LINE
  8
0
 10
19.9606
 20
39.6267
 11
20
 21
39
  0
LINE
  8
0
 10
20
 20
39
 11
19.9606
 21
38.3733
  0
LINE
  8
0
 10
19.9606
 20
38.3733
 11
19.8429
 21
37.7566
  0
LINE
  8
0
 10
19.8429
 20
37.7566
 11
19.6489
 21
37.1594
  0
LINE
  8
0
 10
19.6489
 20
37.1594
 11
19.3815
 21
36.5912
  0
LINE
  8
0
 10
19.3815
 20
36.5912
 11
19.0451
 21
36.0611
  0
LINE
  8
0
 10
19.0451
 20
36.0611
 11
18.6448
 21
35.5773
  0
LINE
  8
0
 10
18.6448
 20
35.5773
 11
18.1871
 21
35.1474
  0
LINE
  8
0
 10
18.1871
 20
35.1474
 11
17.6791
 21
34.7784
  0
LINE
  8
0
 10
17.6791
 20
34.7784
 11
17.1289
 21
34.4759
  0
LINE
  8
0
 10
17.1289
 20
34.4759
 11
16.5451
 21
34.2447
  0
LINE
  8
0
 10
16.5451
 20
34.2447
 11
15.9369
 21
34.0886
  0
LINE
  8
0
 10
15.9369
 20
34.0886
 11
15.3139
 21
34.0099
  0
LINE
  8
0
 10
15.3139
 20
34.0099
 11
14.686
 21
34.0099
  0
LINE
  8
0
 10
-0.31395
 20
34.0099
 11
-0.936905
 21
34.0886
  0
LINE
  8
0
 10
-0.936905
 20
34.0886
 11
-1.54507
 21
34.2447
  0
LINE
  8
0
 10
-1.54507
 20
34.2447
 11
-2.12889
 21
34.4759
  0
LINE
  8
0
 10
-2.12889
 20
34.4759
 11
-2.67912
 21
34.7784
  0
LINE
  8
0
 10
-2.67912
 20
34.7784
 11
-3.18712
 21
35.1474
  0
LINE
  8
0
 10
-3.18712
 20
35.1474
 11
-3.64484
 21
35.5773
  0
LINE
  8
0
 10
-3.64484
 20
35.5773
 11
-4.04507
 21
36.0611
  0
LINE
  8
0
 10
-4.04507
 20
36.0611
 11
-4.38153
 21
36.5912
  0
LINE
  8
0
 10
-4.38153
 20
36.5912
 11
-4.64888
 21
37.1594
  0
LINE
  8
0
 10
-4.64888
 20
37.1594
 11
-4.84291
 21
37.7566
  0
LINE
  8
0
 10
-4.84291
 20
37.7566
 11
-4.96057
 21
38.3733
  0
LINE
  8
0
 10
-4.96057
 20
38.3733
 11
-5
 21
39
  0
LINE
  8
0
 10
-5
 20
39
 11
-4.96057
 21
39.6267
  0
LINE
  8
0
 10
-4.96057
 20
39.6267
 11
-4.84291
 21
40.2434
  0
LINE
  8
0
 10
-4.84291
 20
40.2434
 11
-4.64888
 21
40.8406
  0
LINE
  8
0
 10
-4.64888
 20
40.8406
 11
-4.38153
 21
41.4088
  0
LINE
  8
0
 10
-4.38153
 20
41.4088
 11
-4.04507
 21
41.9389
  0
LINE
  8
0
 10
-4.04507
 20
41.9389
 11
-3.64484
 21
42.4227
  0
LINE
  8
0
 10
-3.64484
 20
42.4227
 11
-3.18712
 21
42.8526
  0
LINE
  8
0
 10
-3.18712
 20
42.8526
 11
-2.67912
 21
43.2216
  0
LINE
  8
0
 10
-2.67912
 20
43.2216
 11
-2.12889
 21
43.5241
  0
LINE
  8
0
 10
-2.12889
 20
43.5241
 11
-1.54507
 21
43.7553
  0
LINE
  8
0
 10
-1.54507
 20
43.7553
 11
-0.936905
 21
43.9114
  0
LINE
  8
0
 10
-0.936905
 20
43.9114
 11
-0.31395
 21
43.9901
  0
LINE
  8
0
 10
-0.31395
 20
43.9901
 11
0.31395
 21
43.9901
  0
LINE
  8
0
 10
0.31395
 20
43.9901
 11
0.936905
 21
43.9114
  0
LINE
  8
0
 10
0.936905
 20
43.9114
 11
1.54507
 21
43.7553
  0
LINE
  8
0
 10
1.54507
 20
43.7553
 11
2.12889
 21
43.5241
  0
LINE
  8
0
 10
2.12889
 20
43.5241
 11
2.67912
 21
43.2216
  0
LINE
  8
0
 10
2.67912
 20
43.2216
 11
3.18712
 21
42.8526
  0
LINE
  8
0
 10
3.18712
 20
42.8526
 11
3.64484
 21
42.4227
  0
LINE
  8
0
 10
3.64484
 20
42.4227
 11
4.04507
 21
41.9389
  0
LINE
  8
0
 10
4.04507
 20
41.9389
 11
4.38153
 21
41.4088
  0
LINE
  8
0
 10
4.38153
 20
41.4088
 11
4.64888
 21
40.8406
  0
LINE
  8
0
 10
4.64888
 20
40.8406
 11
4.84291
 21
40.2434
  0
LINE
  8
0
 10
4.84291
 20
40.2434
 11
4.96057
 21
39.6267
  0
LINE
  8
0
 10
4.96057
 20
39.6267
 11
5
 21
39
  0
LINE
  8
0
 10
5
 20
39
 11
4.96057
 21
38.3733
  0
LINE
  8
0
 10
4.96057
 20
38.3733
 11
4.84291
 21
37.7566
  0
LINE
  8
0
 10
4.84291
 20
37.7566
 11
4.64888
 21
37.1594
  0
LINE
  8
0
 10
4.64888
 20
37.1594
 11
4.38153
 21
36.5912
  0
LINE
  8
0
 10
4.38153
 20
36.5912
 11
4.04507
 21
36.0611
  0
LINE
  8
0
 10
4.04507
 20
36.0611
 11
3.64484
 21
35.5773
  0
LINE
  8
0
 10
3.64484
 20
35.5773
 11
3.18712
 21
35.1474
  0
LINE
  8
0
 10
3.18712
 20
35.1474
 11
2.67912
 21
34.7784
  0
LINE
  8
0
 10
2.67912
 20
34.7784
 11
2.12889
 21
34.4759
  0
LINE
  8
0
 10
2.12889
 20
34.4759
 11
1.54507
 21
34.2447
  0
LINE
  8
0
 10
1.54507
 20
34.2447
 11
0.936905
 21
34.0886
  0
LINE
  8
0
 10
0.936905
 20
34.0886
 11
0.31395
 21
34.0099
  0
LINE
  8
0
 10
0.31395
 20
34.0099
 11
-0.31395
 21
34.0099
  0
LINE
  8
0
 10
29.686
 20
34.0099
 11
29.0631
 21
34.0886
  0
LINE
  8
0
 10
29.0631
 20
34.0886
 11
28.4549
 21
34.2447
  0
LINE
  8
0
 10
28.4549
 20
34.2447
 11
27.8711
 21
34.4759
  0
LINE
  8
0
 10
27.8711
 20
34.4759
 11
27.3209
 21
34.7784
  0
LINE
  8
0
 10
27.3209
 20
34.7784
 11
26.8129
 21
35.1474
  0
LINE
  8
0
 10
26.8129
 20
35.1474
 11
26.3551
 21
35.5773
  0
LINE
  8
0
 10
26.3551
 20
35.5773
 11
25.9549
 21
36.0611
  0
LINE
  8
0
 10
25.9549
 20
36.0611
 11
25.6185
 21
36.5912
  0
LINE
  8
0
 10
25.6185
 20
36.5912
 11
25.3511
 21
37.1594
  0
LINE
  8
0
 10
25.3511
 20
37.1594
 11
25.1571
 21
37.7566
  0
LINE
  8
0
 10
25.1571
 20
37.7566
 11
25.0394
 21
38.3733
  0
LINE
  8
0
 10
25.0394
 20
38.3733
 11
25
 21
39
  0
LINE
  8
0
 10
25
 20
39
 11
25.0394
 21
39.6267
  0
LINE
  8
0
 10
25.0394
 20
39.6267
 11
25.1571
 21
40.2434
  0
LINE
  8
0
 10
25.1571
 20
40.2434
 11
25.3511
 21
40.8406
  0
LINE
  8
0
 10
25.3511
 20
40.8406
 11
25.6185
 21
41.4088
  0
LINE
  8
0
 10
25.6185
 20
41.4088
 11
25.9549
 21
41.9389
  0
LINE
  8
0
 10
25.9549
 20
41.9389
 11
26.3551
 21
42.4227
  0
LINE
  8
0
 10
26.3551
 20
42.4227
 11
26.8129
 21
42.8526
  0
LINE
  8
0
 10
26.8129
 20
42.8526
 11
27.3209
 21
43.2216
  0
LINE
  8
0
 10
27.3209
 20
43.2216
 11
27.8711
 21
43.5241
  0
LINE
  8
0
 10
27.8711
 20
43.5241
 11
28.4549
 21
43.7553
  0
LINE
  8
0
 10
28.4549
 20
43.7553
 11
29.0631
 21
43.9114
  0
LINE
  8
0
 10
29.0631
 20
43.9114
 11
29.686
 21
43.9901
  0
LINE
  8
0
 10
29.686
 20
43.9901
 11
30.3139
 21
43.9901
  0
LINE
  8
0
 10
30.3139
 20
43.9901
 11
30.9369
 21
43.9114
  0
LINE
  8
0
 10
30.9369
 20
43.9114
 11
31.5451
 21
43.7553
  0
LINE
  8
0
 10
31.5451
 20
43.7553
 11
32.1289
 21
43.5241
  0
LINE
  8
0
 10
32.1289
 20
43.5241
 11
32.6791
 21
43.2216
  0
LINE
  8
0
 10
32.6791
 20
43.2216
 11
33.1871
 21
42.8526
  0
LINE
  8
0
 10
33.1871
 20
42.8526
 11
33.6448
 21
42.4227
  0
LINE
  8
0
 10
33.6448
 20
42.4227
 11
34.0451
 21
41.9389
  0
LINE
  8
0
 10
34.0451
 20
41.9389
 11
34.3815
 21
41.4088
  0
LINE
  8
0
 10
34.3815
 20
41.4088
 11
34.6489
 21
40.8406
  0
LINE
  8
0
 10
34.6489
 20
40.8406
 11
34.8429
 21
40.2434
  0
LINE
  8
0
 10
34.8429
 20
40.2434
 11
34.9606
 21
39.6267
  0
LINE
  8
0
 10
34.9606
 20
39.6267
 11
35
 21
39
  0
LINE
  8
0
 10
35
 20
39
 11
34.9606
 21
38.3733
  0
LINE
  8
0
 10
34.9606
 20
38.3733
 11
34.8429
 21
37.7566
  0
LINE
  8
0
 10
34.8429
 20
37.7566
 11
34.6489
 21
37.1594
  0
LINE
  8
0
 10
34.6489
 20
37.1594
 11
34.3815
 21
36.5912
  0
LINE
  8
0
 10
34.3815
 20
36.5912
 11
34.0451
 21
36.0611
  0
LINE
  8
0
 10
34.0451
 20
36.0611
 11
33.6448
 21
35.5773
  0
LINE
  8
0
 10
33.6448
 20
35.5773
 11
33.1871
 21
35.1474
  0
LINE
  8
0
 10
33.1871
 20
35.1474
 11
32.6791
 21
34.7784
  0
LINE
  8
0
 10
32.6791
 20
34.7784
 11
32.1289
 21
34.4759
  0
LINE
  8
0
 10
32.1289
 20
34.4759
 11
31.5451
 21
34.2447
  0
LINE
  8
0
 10
31.5451
 20
34.2447
 11
30.9369
 21
34.0886
  0
LINE
  8
0
 10
30.9369
 20
34.0886
 11
30.3139
 21
34.0099
  0
LINE
  8
0
 10
30.3139
 20
34.0099
 11
29.686
 21
34.0099
  0
LINE
  8
0
 10
-15.3139
 20
34.0099
 11
-15.9369
 21
34.0886
  0
LINE
  8
0
 10
-15.9369
 20
34.0886
 11
-16.5451
 21
34.2447
  0
LINE
  8
0
 10
-16.5451
 20
34.2447
 11
-17.1289
 21
34.4759
  0
LINE
  8
0
 10
-17.1289
 20
34.4759
 11
-17.6791
 21
34.7784
  0
LINE
  8
0
 10
-17.6791
 20
34.7784
 11
-18.1871
 21
35.1474
  0
LINE
  8
0
 10
-18.1871
 20
35.1474
 11
-18.6448
 21
35.5773
  0
LINE
  8
0
 10
-18.6448
 20
35.5773
 11
-19.0451
 21
36.0611
  0
LINE
  8
0
 10
-19.0451
 20
36.0611
 11
-19.3815
 21
36.5912
  0
LINE
  8
0
 10
-19.3815
 20
36.5912
 11
-19.6489
 21
37.1594
  0
LINE
  8
0
 10
-19.6489
 20
37.1594
 11
-19.8429
 21
37.7566
  0
LINE
  8
0
 10
-19.8429
 20
37.7566
 11
-19.9606
 21
38.3733
  0
LINE
  8
0
 10
-19.9606
 20
38.3733
 11
-20
 21
39
  0
LINE
  8
0
 10
-20
 20
39
 11
-19.9606
 21
39.6267
  0
LINE
  8
0
 10
-19.9606
 20
39.6267
 11
-19.8429
 21
40.2434
  0
LINE
  8
0
 10
-19.8429
 20
40.2434
 11
-19.6489
 21
40.8406
  0
LINE
  8
0
 10
-19.6489
 20
40.8406
 11
-19.3815
 21
41.4088
  0
LINE
  8
0
 10
-19.3815
 20
41.4088
 11
-19.0451
 21
41.9389
  0
LINE
  8
0
 10
-19.0451
 20
41.9389
 11
-18.6448
 21
42.4227
  0
LINE
  8
0
 10
-18.6448
 20
42.4227
 11
-18.1871
 21
42.8526
  0
LINE
  8
0
 10
-18.1871
 20
42.8526
 11
-17.6791
 21
43.2216
  0
LINE
  8
0
 10
-17.6791
 20
43.2216
 11
-17.1289
 21
43.5241
  0
LINE
  8
0
 10
-17.1289
 20
43.5241
 11
-16.5451
 21
43.7553
  0
LINE
  8
0
 10
-16.5451
 20
43.7553
 11
-15.9369
 21
43.9114
  0
LINE
  8
0
 10
-15.9369
 20
43.9114
 11
-15.3139
 21
43.9901
  0
LINE
  8
0
 10
-15.3139
 20
43.9901
 11
-14.686
 21
43.9901
  0
LINE
  8
0
 10
-14.686
 20
43.9901
 11
-14.0631
 21
43.9114
  0
LINE
  8
0
 10
-14.0631
 20
43.9114
 11
-13.4549
 21
43.7553
  0
LINE
  8
0
 10
-13.4549
 20
43.7553
 11
-12.8711
 21
43.5241
  0
LINE
  8
0
 10
-12.8711
 20
43.5241
 11
-12.3209
 21
43.2216
  0
LINE
  8
0
 10
-12.3209
 20
43.2216
 11
-11.8129
 21
42.8526
  0
LINE
  8
0
 10
-11.8129
 20
42.8526
 11
-11.3551
 21
42.4227
  0
LINE
  8
0
 10
-11.3551
 20
42.4227
 11
-10.9549
 21
41.9389
  0
LINE
  8
0
 10
-10.9549
 20
41.9389
 11
-10.6185
 21
41.4088
  0
LINE
  8
0
 10
-10.6185
 20
41.4088
 11
-10.3511
 21
40.8406
  0
LINE
  8
0
 10
-10.3511
 20
40.8406
 11
-10.1571
 21
40.2434
  0
LINE
  8
0
 10
-10.1571
 20
40.2434
 11
-10.0394
 21
39.6267
  0
LINE
  8
0
 10
-10.0394
 20
39.6267
 11
-10
 21
39
  0
LINE
  8
0
 10
-10
 20
39
 11
-10.0394
 21
38.3733
  0
LINE
  8
0
 10
-10.0394
 20
38.3733
 11
-10.1571
 21
37.7566
  0
LINE
  8
0
 10
-10.1571
 20
37.7566
 11
-10.3511
 21
37.1594
  0
LINE
  8
0
 10
-10.3511
 20
37.1594
 11
-10.6185
 21
36.5912
  0
LINE
  8
0
 10
-10.6185
 20
36.5912
 11
-10.9549
 21
36.0611
  0
LINE
  8
0
 10
-10.9549
 20
36.0611
 11
-11.3551
 21
35.5773
  0
LINE
  8
0
 10
-11.3551
 20
35.5773
 11
-11.8129
 21
35.1474
  0
LINE
  8
0
 10
-11.8129
 20
35.1474
 11
-12.3209
 21
34.7784
  0
LINE
  8
0
 10
-12.3209
 20
34.7784
 11
-12.8711
 21
34.4759
  0
LINE
  8
0
 10
-12.8711
 20
34.4759
 11
-13.4549
 21
34.2447
  0
LINE
  8
0
 10
-13.4549
 20
34.2447
 11
-14.0631
 21
34.0886
  0
LINE
  8
0
 10
-14.0631
 20
34.0886
 11
-14.686
 21
34.0099
  0
LINE
  8
0
 10
-14.686
 20
34.0099
 11
-15.3139
 21
34.0099
  0
LINE
  8
0
 10
37.3116
 20
28.5059
 11
36.9379
 21
28.5531
  0
LINE
  8
0
 10
36.9379
 20
28.5531
 11
36.5729
 21
28.6468
  0
LINE
  8
0
 10
36.5729
 20
28.6468
 11
36.2227
 21
28.7855
  0
LINE
  8
0
 10
36.2227
 20
28.7855
 11
35.8925
 21
28.967
  0
LINE
  8
0
 10
35.8925
 20
28.967
 11
35.5877
 21
29.1885
  0
LINE
  8
0
 10
35.5877
 20
29.1885
 11
35.3131
 21
29.4464
  0
LINE
  8
0
 10
35.3131
 20
29.4464
 11
35.0729
 21
29.7366
  0
LINE
  8
0
 10
35.0729
 20
29.7366
 11
34.8711
 21
30.0547
  0
LINE
  8
0
 10
34.8711
 20
30.0547
 11
34.7107
 21
30.3956
  0
LINE
  8
0
 10
34.7107
 20
30.3956
 11
34.5942
 21
30.7539
  0
LINE
  8
0
 10
34.5942
 20
30.7539
 11
34.5237
 21
31.124
  0
LINE
  8
0
 10
34.5237
 20
31.124
 11
34.5
 21
31.5
  0
LINE
  8
0
 10
34.5
 20
31.5
 11
34.5237
 21
31.876
  0
LINE
  8
0
 10
34.5237
 20
31.876
 11
34.5942
 21
32.2461
  0
LINE
  8
0
 10
34.5942
 20
32.2461
 11
34.7107
 21
32.6044
  0
LINE
  8
0
 10
34.7107
 20
32.6044
 11
34.8711
 21
32.9453
  0
LINE
  8
0
 10
34.8711
 20
32.9453
 11
35.0729
 21
33.2634
  0
LINE
  8
0
 10
35.0729
 20
33.2634
 11
35.3131
 21
33.5536
  0
LINE
  8
0
 10
35.3131
 20
33.5536
 11
35.5877
 21
33.8116
  0
LINE
  8
0
 10
35.5877
 20
33.8116
 11
35.8925
 21
34.033
  0
LINE
  8
0
 10
35.8925
 20
34.033
 11
36.2227
 21
34.2145
  0
LINE
  8
0
 10
36.2227
 20
34.2145
 11
36.5729
 21
34.3532
  0
LINE
  8
0
 10
36.5729
 20
34.3532
 11
36.9379
 21
34.4469
  0
LINE
  8
0
 10
36.9379
 20
34.4469
 11
37.3116
 21
34.4941
  0
LINE
  8
0
 10
37.3116
 20
34.4941
 11
37.6884
 21
34.4941
  0
LINE
  8
0
 10
37.6884
 20
34.4941
 11
38.0621
 21
34.4469
  0
LINE
  8
0
 10
38.0621
 20
34.4469
 11
38.427
 21
34.3532
  0
LINE
  8
0
 10
38.427
 20
34.3532
 11
38.7773
 21
34.2145
  0
LINE
  8
0
 10
38.7773
 20
34.2145
 11
39.1075
 21
34.033
  0
LINE
  8
0
 10
39.1075
 20
34.033
 11
39.4123
 21
33.8116
  0
LINE
  8
0
 10
39.4123
 20
33.8116
 11
39.6869
 21
33.5536
  0
LINE
  8
0
 10
39.6869
 20
33.5536
 11
39.927
 21
33.2634
  0
LINE
  8
0
 10
39.927
 20
33.2634
 11
40.1289
 21
32.9453
  0
LINE
  8
0
 10
40.1289
 20
32.9453
 11
40.2893
 21
32.6044
  0
LINE
  8
0
 10
40.2893
 20
32.6044
 11
40.4057
 21
32.2461
  0
LINE
  8
0
 10
40.4057
 20
32.2461
 11
40.4763
 21
31.876
  0
LINE
  8
0
 10
40.4763
 20
31.876
 11
40.5
 21
31.5
  0
LINE
  8
0
 10
40.5
 20
31.5
 11
40.4763
 21
31.124
  0
LINE
  8
0
 10
40.4763
 20
31.124
 11
40.4057
 21
30.7539
  0
LINE
  8
0
 10
40.4057
 20
30.7539
 11
40.2893
 21
30.3956
  0
LINE
  8
0
 10
40.2893
 20
30.3956
 11
40.1289
 21
30.0547
  0
LINE
  8
0
 10
40.1289
 20
30.0547
 11
39.927
 21
29.7366
  0
LINE
  8
0
 10
39.927
 20
29.7366
 11
39.6869
 21
29.4464
  0
LINE
  8
0
 10
39.6869
 20
29.4464
 11
39.4123
 21
29.1885
  0
LINE
  8
0
 10
39.4123
 20
29.1885
 11
39.1075
 21
28.967
  0
LINE
  8
0
 10
39.1075
 20
28.967
 11
38.7773
 21
28.7855
  0
LINE
  8
0
 10
38.7773
 20
28.7855
 11
38.427
 21
28.6468
  0
LINE
  8
0
 10
38.427
 20
28.6468
 11
38.0621
 21
28.5531
  0
LINE
  8
0
 10
38.0621
 20
28.5531
 11
37.6884
 21
28.5059
  0
LINE
  8
0
 10
37.6884
 20
28.5059
 11
37.3116
 21
28.5059
  0
LINE
  8
0
 10
-37.6884
 20
28.5059
 11
-38.0621
 21
28.5531
  0
LINE
  8
0
 10
-38.0621
 20
28.5531
 11
-38.427
 21
28.6468
  0
LINE
  8
0
 10
-38.427
 20
28.6468
 11
-38.7773
 21
28.7855
  0
LINE
  8
0
 10
-38.7773
 20
28.7855
 11
-39.1075
 21
28.967
  0
LINE
  8
0
 10
-39.1075
 20
28.967
 11
-39.4123
 21
29.1885
  0
LINE
  8
0
 10
-39.4123
 20
29.1885
 11
-39.6869
 21
29.4464
  0
LINE
  8
0
 10
-39.6869
 20
29.4464
 11
-39.927
 21
29.7366
  0
LINE
  8
0
 10
-39.927
 20
29.7366
 11
-40.1289
 21
30.0547
  0
LINE
  8
0
 10
-40.1289
 20
30.0547
 11
-40.2893
 21
30.3956
  0
LINE
  8
0
 10
-40.2893
 20
30.3956
 11
-40.4057
 21
30.7539
  0
LINE
  8
0
 10
-40.4057
 20
30.7539
 11
-40.4763
 21
31.124
  0
LINE
  8
0
 10
-40.4763
 20
31.124
 11
-40.5
 21
31.5
  0
LINE
  8
0
 10
-40.5
 20
31.5
 11
-40.4763
 21
31.876
  0
LINE
  8
0
 10
-40.4763
 20
31.876
 11
-40.4057
 21
32.2461
  0
LINE
  8
0
 10
-40.4057
 20
32.2461
 11
-40.2893
 21
32.6044
  0
LINE
  8
0
 10
-40.2893
 20
32.6044
 11
-40.1289
 21
32.9453
  0
LINE
  8
0
 10
-40.1289
 20
32.9453
 11
-39.927
 21
33.2634
  0
LINE
  8
0
 10
-39.927
 20
33.2634
 11
-39.6869
 21
33.5536
  0
LINE
  8
0
 10
-39.6869
 20
33.5536
 11
-39.4123
 21
33.8116
  0
LINE
  8
0
 10
-39.4123
 20
33.8116
 11
-39.1075
 21
34.033
  0
LINE
  8
0
 10
-39.1075
 20
34.033
 11
-38.7773
 21
34.2145
  0
LINE
  8
0
 10
-38.7773
 20
34.2145
 11
-38.427
 21
34.3532
  0
LINE
  8
0
 10
-38.427
 20
34.3532
 11
-38.0621
 21
34.4469
  0
LINE
  8
0
 10
-38.0621
 20
34.4469
 11
-37.6884
 21
34.4941
  0
LINE
  8
0
 10
-37.6884
 20
34.4941
 11
-37.3116
 21
34.4941
  0
LINE
  8
0
 10
-37.3116
 20
34.4941
 11
-36.9379
 21
34.4469
  0
LINE
  8
0
 10
-36.9379
 20
34.4469
 11
-36.5729
 21
34.3532
  0
LINE
  8
0
 10
-36.5729
 20
34.3532
 11
-36.2227
 21
34.2145
  0
LINE
  8
0
 10
-36.2227
 20
34.2145
 11
-35.8925
 21
34.033
  0
LINE
  8
0
 10
-35.8925
 20
34.033
 11
-35.5877
 21
33.8116
  0
LINE
  8
0
 10
-35.5877
 20
33.8116
 11
-35.3131
 21
33.5536
  0
LINE
  8
0
 10
-35.3131
 20
33.5536
 11
-35.0729
 21
33.2634
  0
LINE
  8
0
 10
-35.0729
 20
33.2634
 11
-34.8711
 21
32.9453
  0
LINE
  8
0
 10
-34.8711
 20
32.9453
 11
-34.7107
 21
32.6044
  0
LINE
  8
0
 10
-34.7107
 20
32.6044
 11
-34.5942
 21
32.2461
  0
LINE
  8
0
 10
-34.5942
 20
32.2461
 11
-34.5237
 21
31.876
  0
LINE
  8
0
 10
-34.5237
 20
31.876
 11
-34.5
 21
31.5
  0
LINE
  8
0
 10
-34.5
 20
31.5
 11
-34.5237
 21
31.124
  0
LINE
  8
0
 10
-34.5237
 20
31.124
 11
-34.5942
 21
30.7539
  0
LINE
  8
0
 10
-34.5942
 20
30.7539
 11
-34.7107
 21
30.3956
  0
LINE
  8
0
 10
-34.7107
 20
30.3956
 11
-34.8711
 21
30.0547
  0
LINE
  8
0
 10
-34.8711
 20
30.0547
 11
-35.0729
 21
29.7366
  0
LINE
  8
0
 10
-35.0729
 20
29.7366
 11
-35.3131
 21
29.4464
  0
LINE
  8
0
 10
-35.3131
 20
29.4464
 11
-35.5877
 21
29.1885
  0
LINE
  8
0
 10
-35.5877
 20
29.1885
 11
-35.8925
 21
28.967
  0
LINE
  8
0
 10
-35.8925
 20
28.967
 11
-36.2227
 21
28.7855
  0
LINE
  8
0
 10
-36.2227
 20
28.7855
 11
-36.5729
 21
28.6468
  0
LINE
  8
0
 10
-36.5729
 20
28.6468
 11
-36.9379
 21
28.5531
  0
LINE
  8
0
 10
-36.9379
 20
28.5531
 11
-37.3116
 21
28.5059
  0
LINE
  8
0
 10
-37.3116
 20
28.5059
 11
-37.6884
 21
28.5059
  0
ENDSEC
  0
SECTION
  2
OBJECTS
  0
DICTIONARY
  0
ENDSEC
  0
EOF
