<?xml version="1.0" standalone="no"?>
<!DOCTYPE svg PUBLIC "-//W3C//DTD SVG 1.1//EN" "http://www.w3.org/Graphics/SVG/1.1/DTD/svg11.dtd">
<svg width="120mm" height="44mm" viewBox="-60 -76 120 44" xmlns="http://www.w3.org/2000/svg" version="1.1">
<title>OpenSCAD Model</title>
<path d="
M 55.4369,-32.0886 L 56.0451,-32.2447 L 56.6289,-32.4759 L 57.1791,-32.7784 L 57.6871,-33.1474 L 58.1448,-33.5773
 L 58.5451,-34.0611 L 58.8815,-34.5912 L 59.1489,-35.1594 L 59.3429,-35.7566 L 59.4606,-36.3733 L 59.5,-37
 L 59.5,-71 L 59.4606,-71.6267 L 59.3429,-72.2434 L 59.1489,-72.8406 L 58.8815,-73.4088 L 58.5451,-73.9389
 L 58.1448,-74.4227 L 57.6871,-74.8526 L 57.1791,-75.2216 L 56.6289,-75.5241 L 56.0451,-75.7553 L 55.4369,-75.9114
 L 54.8139,-75.9901 L -54.8139,-75.9901 L -55.4369,-75.9114 L -56.0451,-75.7553 L -56.6289,-75.5241 L -57.1791,-75.2216
 L -57.6871,-74.8526 L -58.1448,-74.4227 L -58.5451,-73.9389 L -58.8815,-73.4088 L -59.1489,-72.8406 L -59.3429,-72.2434
 L -59.4606,-71.6267 L -59.5,-71 L -59.5,-37 L -59.4606,-36.3733 L -59.3429,-35.7566 L -59.1489,-35.1594
 L -58.8815,-34.5912 L -58.5451,-34.0611 L -58.1448,-33.5773 L -57.6871,-33.1474 L -57.1791,-32.7784 L -56.6289,-32.4759
 L -56.0451,-32.2447 L -55.4369,-32.0886 L -54.8139,-32.0099 L 54.8139,-32.0099 z
M 52.3116,-66.0059 L 51.9379,-66.0531 L 51.5729,-66.1468 L 51.2227,-66.2855 L 50.8925,-66.467 L 50.5877,-66.6884
 L 50.3131,-66.9464 L 50.0729,-67.2366 L 49.8711,-67.5547 L 49.7107,-67.8956 L 49.5942,-68.2539 L 49.5237,-68.624
 L 49.5,-69 L 49.5237,-69.376 L 49.5942,-69.7461 L 49.7107,-70.1044 L 49.8711,-70.4453 L 50.0729,-70.7634
 L 50.3131,-71.0536 L 50.5877,-71.3115 L 50.8925,-71.533 L 51.2227,-71.7145 L 51.5729,-71.8532 L 51.9379,-71.9469
 L 52.3116,-71.9941 L 52.6884,-71.9941 L 53.0621,-71.9469 L 53.427,-71.8532 L 53.7773,-71.7145 L 54.1075,-71.533
 L 54.4123,-71.3115 L 54.6869,-71.0536 L 54.927,-70.7634 L 55.1289,-70.4453 L 55.2893,-70.1044 L 55.4057,-69.7461
 L 55.4763,-69.376 L 55.5,-69 L 55.4763,-68.624 L 55.4057,-68.2539 L 55.2893,-67.8956 L 55.1289,-67.5547
 L 54.927,-67.2366 L 54.6869,-66.9464 L 54.4123,-66.6884 L 54.1075,-66.467 L 53.7773,-66.2855 L 53.427,-66.1468
 L 53.0621,-66.0531 L 52.6884,-66.0059 z
M -52.6884,-66.0059 L -53.0621,-66.0531 L -53.427,-66.1468 L -53.7773,-66.2855 L -54.1075,-66.467 L -54.4123,-66.6884
 L -54.6869,-66.9464 L -54.927,-67.2366 L -55.1289,-67.5547 L -55.2893,-67.8956 L -55.4057,-68.2539 L -55.4763,-68.624
 L -55.5,-69 L -55.4763,-69.376 L -55.4057,-69.7461 L -55.2893,-70.1044 L -55.1289,-70.4453 L -54.927,-70.7634
 L -54.6869,-71.0536 L -54.4123,-71.3115 L -54.1075,-71.533 L -53.7773,-71.7145 L -53.427,-71.8532 L -53.0621,-71.9469
 L -52.6884,-71.9941 L -52.3116,-71.9941 L -51.9379,-71.9469 L -51.5729,-71.8532 L -51.2227,-71.7145 L -50.8925,-71.533
 L -50.5877,-71.3115 L -50.3131,-71.0536 L -50.0729,-70.7634 L -49.8711,-70.4453 L -49.7107,-70.1044 L -49.5942,-69.7461
 L -49.5237,-69.376 L -49.5,-69 L -49.5237,-68.624 L -49.5942,-68.2539 L -49.7107,-67.8956 L -49.8711,-67.5547
 L -50.0729,-67.2366 L -50.3131,-66.9464 L -50.5877,-66.6884 L -50.8925,-66.467 L -51.2227,-66.2855 L -51.5729,-66.1468
 L -51.9379,-66.0531 L -52.3116,-66.0059 z
M 41.2779,-42.5227 L 39.8451,-42.7037 L 38.4463,-43.0629 L 37.1035,-43.5945 L 35.838,-44.2902 L 34.6696,-45.1391
 L 33.6169,-46.1277 L 32.6963,-47.2405 L 31.9225,-48.4598 L 31.3076,-49.7666 L 30.8613,-51.1401 L 30.5907,-52.5587
 L 30.5,-54 L 30.5907,-55.4413 L 30.8613,-56.8599 L 31.3076,-58.2334 L 31.9225,-59.5402 L 32.6963,-60.7595
 L 33.6169,-61.8723 L 34.6696,-62.8609 L 35.838,-63.7098 L 37.1035,-64.4055 L 38.4463,-64.9371 L 39.8451,-65.2963
 L 41.2779,-65.4773 L 42.7221,-65.4773 L 44.1549,-65.2963 L 45.5537,-64.9371 L 46.8965,-64.4055 L 48.162,-63.7098
 L 49.3304,-62.8609 L 50.3831,-61.8723 L 51.3037,-60.7595 L 52.0775,-59.5402 L 52.6924,-58.2334 L 53.1387,-56.8599
 L 53.4093,-55.4413 L 53.5,-54 L 53.4093,-52.5587 L 53.1387,-51.1401 L 52.6924,-49.7666 L 52.0775,-48.4598
 L 51.3037,-47.2405 L 50.3831,-46.1277 L 49.3304,-45.1391 L 48.162,-44.2902 L 46.8965,-43.5945 L 45.5537,-43.0629
 L 44.1549,-42.7037 L 42.7221,-42.5227 z
M -42.7221,-42.5227 L -44.1549,-42.7037 L -45.5537,-43.0629 L -46.8965,-43.5945 L -48.162,-44.2902 L -49.3304,-45.1391
 L -50.3831,-46.1277 L -51.3037,-47.2405 L -52.0775,-48.4598 L -52.6924,-49.7666 L -53.1387,-51.1401 L -53.4093,-52.5587
 L -53.5,-54 L -53.4093,-55.4413 L -53.1387,-56.8599 L -52.6924,-58.2334 L -52.0775,-59.5402 L -51.3037,-60.7595
 L -50.3831,-61.8723 L -49.3304,-62.8609 L -48.162,-63.7098 L -46.8965,-64.4055 L -45.5537,-64.9371 L -44.1549,-65.2963
 L -42.7221,-65.4773 L -41.2779,-65.4773 L -39.8451,-65.2963 L -38.4463,-64.9371 L -37.1035,-64.4055 L -35.838,-63.7098
 L -34.6696,-62.8609 L -33.6169,-61.8723 L -32.6963,-60.7595 L -31.9225,-59.5402 L -31.3076,-58.2334 L -30.8613,-56.8599
 L -30.5907,-55.4413 L -30.5,-54 L -30.5907,-52.5587 L -30.8613,-51.1401 L -31.3076,-49.7666 L -31.9225,-48.4598
 L -32.6963,-47.2405 L -33.6169,-46.1277 L -34.6696,-45.1391 L -35.838,-44.2902 L -37.1035,-43.5945 L -38.4463,-43.0629
 L -39.8451,-42.7037 L -41.2779,-42.5227 z
M 13.2779,-42.5227 L 11.8451,-42.7037 L 10.4463,-43.0629 L 9.10353,-43.5945 L 7.83798,-44.2902 L 6.66962,-45.1391
 L 5.61685,-46.1277 L 4.6963,-47.2405 L 3.92247,-48.4598 L 3.30756,-49.7666 L 2.86128,-51.1401 L 2.59067,-52.5587
 L 2.5,-54 L 2.59067,-55.4413 L 2.86128,-56.8599 L 3.30756,-58.2334 L 3.92247,-59.5402 L 4.6963,-60.7595
 L 5.61685,-61.8723 L 6.66962,-62.8609 L 7.83798,-63.7098 L 9.10353,-64.4055 L 10.4463,-64.9371 L 11.8451,-65.2963
 L 13.2779,-65.4773 L 14.7221,-65.4773 L 16.1549,-65.2963 L 17.5537,-64.9371 L 18.8965,-64.4055 L 20.162,-63.7098
 L 21.3304,-62.8609 L 22.3831,-61.8723 L 23.3037,-60.7595 L 24.0775,-59.5402 L 24.6924,-58.2334 L 25.1387,-56.8599
 L 25.4093,-55.4413 L 25.5,-54 L 25.4093,-52.5587 L 25.1387,-51.1401 L 24.6924,-49.7666 L 24.0775,-48.4598
 L 23.3037,-47.2405 L 22.3831,-46.1277 L 21.3304,-45.1391 L 20.162,-44.2902 L 18.8965,-43.5945 L 17.5537,-43.0629
 L 16.1549,-42.7037 L 14.7221,-42.5227 z
M -14.7221,-42.5227 L -16.1549,-42.7037 L -17.5537,-43.0629 L -18.8965,-43.5945 L -20.162,-44.2902 L -21.3304,-45.1391
 L -22.3831,-46.1277 L -23.3037,-47.2405 L -24.0775,-48.4598 L -24.6924,-49.7666 L -25.1387,-51.1401 L -25.4093,-52.5587
 L -25.5,-54 L -25.4093,-55.4413 L -25.1387,-56.8599 L -24.6924,-58.2334 L -24.0775,-59.5402 L -23.3037,-60.7595
 L -22.3831,-61.8723 L -21.3304,-62.8609 L -20.162,-63.7098 L -18.8965,-64.4055 L -17.5537,-64.9371 L -16.1549,-65.2963
 L -14.7221,-65.4773 L -13.2779,-65.4773 L -11.8451,-65.2963 L -10.4463,-64.9371 L -9.10353,-64.4055 L -7.83798,-63.7098
 L -6.66962,-62.8609 L -5.61685,-61.8723 L -4.6963,-60.7595 L -3.92247,-59.5402 L -3.30756,-58.2334 L -2.86128,-56.8599
 L -2.59067,-55.4413 L -2.5,-54 L -2.59067,-52.5587 L -2.86128,-51.1401 L -3.30756,-49.7666 L -3.92247,-48.4598
 L -4.6963,-47.2405 L -5.61685,-46.1277 L -6.66962,-45.1391 L -7.83798,-44.2902 L -9.10353,-43.5945 L -10.4463,-43.0629
 L -11.8451,-42.7037 L -13.2779,-42.5227 z
M 52.3116,-36.0059 L 51.9379,-36.0531 L 51.5729,-36.1468 L 51.2227,-36.2855 L 50.8925,-36.467 L 50.5877,-36.6885
 L 50.3131,-36.9464 L 50.0729,-37.2366 L 49.8711,-37.5547 L 49.7107,-37.8956 L 49.5942,-38.2539 L 49.5237,-38.624
 L 49.5,-39 L 49.5237,-39.376 L 49.5942,-39.7461 L 49.7107,-40.1044 L 49.8711,-40.4453 L 50.0729,-40.7634
 L 50.3131,-41.0536 L 50.5877,-41.3116 L 50.8925,-41.533 L 51.2227,-41.7145 L 51.5729,-41.8532 L 51.9379,-41.9469
 L 52.3116,-41.9941 L 52.6884,-41.9941 L 53.0621,-41.9469 L 53.427,-41.8532 L 53.7773,-41.7145 L 54.1075,-41.533
 L 54.4123,-41.3116 L 54.6869,-41.0536 L 54.927,-40.7634 L 55.1289,-40.4453 L 55.2893,-40.1044 L 55.4057,-39.7461
 L 55.4763,-39.376 L 55.5,-39 L 55.4763,-38.624 L 55.4057,-38.2539 L 55.2893,-37.8956 L 55.1289,-37.5547
 L 54.927,-37.2366 L 54.6869,-36.9464 L 54.4123,-36.6885 L 54.1075,-36.467 L 53.7773,-36.2855 L 53.427,-36.1468
 L 53.0621,-36.0531 L 52.6884,-36.0059 z
M -52.6884,-36.0059 L -53.0621,-36.0531 L -53.427,-36.1468 L -53.7773,-36.2855 L -54.1075,-36.467 L -54.4123,-36.6885
 L -54.6869,-36.9464 L -54.927,-37.2366 L -55.1289,-37.5547 L -55.2893,-37.8956 L -55.4057,-38.2539 L -55.4763,-38.624
 L -55.5,-39 L -55.4763,-39.376 L -55.4057,-39.7461 L -55.2893,-40.1044 L -55.1289,-40.4453 L -54.927,-40.7634
 L -54.6869,-41.0536 L -54.4123,-41.3116 L -54.1075,-41.533 L -53.7773,-41.7145 L -53.427,-41.8532 L -53.0621,-41.9469
 L -52.6884,-41.9941 L -52.3116,-41.9941 L -51.9379,-41.9469 L -51.5729,-41.8532 L -51.2227,-41.7145 L -50.8925,-41.533
 L -50.5877,-41.3116 L -50.3131,-41.0536 L -50.0729,-40.7634 L -49.8711,-40.4453 L -49.7107,-40.1044 L -49.5942,-39.7461
 L -49.5237,-39.376 L -49.5,-39 L -49.5237,-38.624 L -49.5942,-38.2539 L -49.7107,-37.8956 L -49.8711,-37.5547
 L -50.0729,-37.2366 L -50.3131,-36.9464 L -50.5877,-36.6885 L -50.8925,-36.467 L -51.2227,-36.2855 L -51.5729,-36.1468
 L -51.9379,-36.0531 L -52.3116,-36.0059 z
" stroke="black" fill="lightgray" stroke-width="0.5"/>
</svg>
