<?xml version="1.0" standalone="no"?>
<!DOCTYPE svg PUBLIC "-//W3C//DTD SVG 1.1//EN" "http://www.w3.org/Graphics/SVG/1.1/DTD/svg11.dtd">
<svg width="164mm" height="60mm" viewBox="-82 -30 164 60" xmlns="http://www.w3.org/2000/svg" version="1.1">
<title>OpenSCAD Model</title>
<path d="
M 77.9369,29.4114 L 78.5451,29.2553 L 79.1289,29.0241 L 79.6791,28.7216 L 80.1871,28.3526 L 80.6448,27.9227
 L 81.0451,27.4389 L 81.3815,26.9088 L 81.6489,26.3406 L 81.8429,25.7434 L 81.9606,25.1267 L 82,24.5
 L 82,-24.5 L 81.9606,-25.1267 L 81.8429,-25.7434 L 81.6489,-26.3406 L 81.3815,-26.9088 L 81.0451,-27.4389
 L 80.6448,-27.9227 L 80.1871,-28.3526 L 79.6791,-28.7216 L 79.1289,-29.0241 L 78.5451,-29.2553 L 77.9369,-29.4114
 L 77.3139,-29.4901 L -77.3139,-29.4901 L -77.9369,-29.4114 L -78.5451,-29.2553 L -79.1289,-29.0241 L -79.6791,-28.7216
 L -80.1871,-28.3526 L -80.6448,-27.9227 L -81.0451,-27.4389 L -81.3815,-26.9088 L -81.6489,-26.3406 L -81.8429,-25.7434
 L -81.9606,-25.1267 L -82,-24.5 L -82,24.5 L -81.9606,25.1267 L -81.8429,25.7434 L -81.6489,26.3406
 L -81.3815,26.9088 L -81.0451,27.4389 L -80.6448,27.9227 L -80.1871,28.3526 L -79.6791,28.7216 L -79.1289,29.0241
 L -78.5451,29.2553 L -77.9369,29.4114 L -77.3139,29.4901 L 77.3139,29.4901 z
M -75.1884,-19.5059 L -75.5621,-19.5531 L -75.927,-19.6468 L -76.2773,-19.7855 L -76.6075,-19.967 L -76.9123,-20.1884
 L -77.1869,-20.4464 L -77.427,-20.7366 L -77.6289,-21.0547 L -77.7893,-21.3956 L -77.9057,-21.7539 L -77.9763,-22.124
 L -78,-22.5 L -77.9763,-22.876 L -77.9057,-23.2461 L -77.7893,-23.6044 L -77.6289,-23.9453 L -77.427,-24.2634
 L -77.1869,-24.5536 L -76.9123,-24.8115 L -76.6075,-25.033 L -76.2773,-25.2145 L -75.927,-25.3532 L -75.5621,-25.4469
 L -75.1884,-25.4941 L -74.8116,-25.4941 L -74.4379,-25.4469 L -74.073,-25.3532 L -73.7227,-25.2145 L -73.3925,-25.033
 L -73.0877,-24.8115 L -72.8131,-24.5536 L -72.573,-24.2634 L -72.3711,-23.9453 L -72.2107,-23.6044 L -72.0943,-23.2461
 L -72.0237,-22.876 L -72,-22.5 L -72.0237,-22.124 L -72.0943,-21.7539 L -72.2107,-21.3956 L -72.3711,-21.0547
 L -72.573,-20.7366 L -72.8131,-20.4464 L -73.0877,-20.1884 L -73.3925,-19.967 L -73.7227,-19.7855 L -74.073,-19.6468
 L -74.4379,-19.5531 L -74.8116,-19.5059 z
M 74.8116,-19.5059 L 74.4379,-19.5531 L 74.073,-19.6468 L 73.7227,-19.7855 L 73.3925,-19.967 L 73.0877,-20.1884
 L 72.8131,-20.4464 L 72.573,-20.7366 L 72.3711,-21.0547 L 72.2107,-21.3956 L 72.0943,-21.7539 L 72.0237,-22.124
 L 72,-22.5 L 72.0237,-22.876 L 72.0943,-23.2461 L 72.2107,-23.6044 L 72.3711,-23.9453 L 72.573,-24.2634
 L 72.8131,-24.5536 L 73.0877,-24.8115 L 73.3925,-25.033 L 73.7227,-25.2145 L 74.073,-25.3532 L 74.4379,-25.4469
 L 74.8116,-25.4941 L 75.1884,-25.4941 L 75.5621,-25.4469 L 75.927,-25.3532 L 76.2773,-25.2145 L 76.6075,-25.033
 L 76.9123,-24.8115 L 77.1869,-24.5536 L 77.427,-24.2634 L 77.6289,-23.9453 L 77.7893,-23.6044 L 77.9057,-23.2461
 L 77.9763,-22.876 L 78,-22.5 L 77.9763,-22.124 L 77.9057,-21.7539 L 77.7893,-21.3956 L 77.6289,-21.0547
 L 77.427,-20.7366 L 77.1869,-20.4464 L 76.9123,-20.1884 L 76.6075,-19.967 L 76.2773,-19.7855 L 75.927,-19.6468
 L 75.5621,-19.5531 L 75.1884,-19.5059 z
M 47.6186,21.9566 L 44.8776,21.6103 L 42.2016,20.9232 L 39.6328,19.9062 L 37.2118,18.5752 L 34.9767,16.9513
 L 32.9627,15.06 L 31.2016,12.9313 L 29.7213,10.5986 L 28.5449,8.09874 L 27.6912,5.47118 L 27.1735,2.75732
 L 27,-0 L 27.1735,-2.75732 L 27.6912,-5.47118 L 28.5449,-8.09874 L 29.7213,-10.5986 L 31.2016,-12.9313
 L 32.9627,-15.06 L 34.9767,-16.9513 L 37.2118,-18.5752 L 39.6328,-19.9062 L 42.2016,-20.9232 L 44.8776,-21.6103
 L 47.6186,-21.9566 L 50.3814,-21.9566 L 53.1224,-21.6103 L 55.7984,-20.9232 L 58.3671,-19.9062 L 60.7882,-18.5752
 L 63.0233,-16.9513 L 65.0373,-15.06 L 66.7984,-12.9313 L 68.2787,-10.5986 L 69.4551,-8.09874 L 70.3088,-5.47118
 L 70.8265,-2.75732 L 71,-0 L 70.8265,2.75732 L 70.3088,5.47118 L 69.4551,8.09874 L 68.2787,10.5986
 L 66.7984,12.9313 L 65.0373,15.06 L 63.0233,16.9513 L 60.7882,18.5752 L 58.3671,19.9062 L 55.7984,20.9232
 L 53.1224,21.6103 L 50.3814,21.9566 z
M -1.38138,21.9566 L -4.12238,21.6103 L -6.79837,20.9232 L -9.36714,19.9062 L -11.7882,18.5752 L -14.0233,16.9513
 L -16.0373,15.06 L -17.7984,12.9313 L -19.2787,10.5986 L -20.4551,8.09874 L -21.3088,5.47118 L -21.8265,2.75732
 L -22,-0 L -21.8265,-2.75732 L -21.3088,-5.47118 L -20.4551,-8.09874 L -19.2787,-10.5986 L -17.7984,-12.9313
 L -16.0373,-15.06 L -14.0233,-16.9513 L -11.7882,-18.5752 L -9.36714,-19.9062 L -6.79837,-20.9232 L -4.12238,-21.6103
 L -1.38138,-21.9566 L 1.38138,-21.9566 L 4.12238,-21.6103 L 6.79837,-20.9232 L 9.36714,-19.9062 L 11.7882,-18.5752
 L 14.0233,-16.9513 L 16.0373,-15.06 L 17.7984,-12.9313 L 19.2787,-10.5986 L 20.4551,-8.09874 L 21.3088,-5.47118
 L 21.8265,-2.75732 L 22,-0 L 21.8265,2.75732 L 21.3088,5.47118 L 20.4551,8.09874 L 19.2787,10.5986
 L 17.7984,12.9313 L 16.0373,15.06 L 14.0233,16.9513 L 11.7882,18.5752 L 9.36714,19.9062 L 6.79837,20.9232
 L 4.12238,21.6103 L 1.38138,21.9566 z
M -50.3814,21.9566 L -53.1224,21.6103 L -55.7984,20.9232 L -58.3671,19.9062 L -60.7882,18.5752 L -63.0233,16.9513
 L -65.0373,15.06 L -66.7984,12.9313 L -68.2787,10.5986 L -69.4551,8.09874 L -70.3088,5.47118 L -70.8265,2.75732
 L -71,-0 L -70.8265,-2.75732 L -70.3088,-5.47118 L -69.4551,-8.09874 L -68.2787,-10.5986 L -66.7984,-12.9313
 L -65.0373,-15.06 L -63.0233,-16.9513 L -60.7882,-18.5752 L -58.3671,-19.9062 L -55.7984,-20.9232 L -53.1224,-21.6103
 L -50.3814,-21.9566 L -47.6186,-21.9566 L -44.8776,-21.6103 L -42.2016,-20.9232 L -39.6328,-19.9062 L -37.2118,-18.5752
 L -34.9767,-16.9513 L -32.9627,-15.06 L -31.2016,-12.9313 L -29.7213,-10.5986 L -28.5449,-8.09874 L -27.6912,-5.47118
 L -27.1735,-2.75732 L -27,-0 L -27.1735,2.75732 L -27.6912,5.47118 L -28.5449,8.09874 L -29.7213,10.5986
 L -31.2016,12.9313 L -32.9627,15.06 L -34.9767,16.9513 L -37.2118,18.5752 L -39.6328,19.9062 L -42.2016,20.9232
 L -44.8776,21.6103 L -47.6186,21.9566 z
M -75.0942,-13.5029 L -75.2811,-13.5266 L -75.4635,-13.5734 L -75.6387,-13.6427 L -75.8037,-13.7335 L -75.9561,-13.8442
 L -76.0934,-13.9732 L -76.2135,-14.1183 L -76.3145,-14.2774 L -76.3947,-14.4478 L -76.4529,-14.627 L -76.4882,-14.812
 L -76.5,-15 L -76.4882,-15.188 L -76.4529,-15.373 L -76.3947,-15.5522 L -76.3145,-15.7226 L -76.2135,-15.8817
 L -76.0934,-16.0268 L -75.9561,-16.1558 L -75.8037,-16.2665 L -75.6387,-16.3572 L -75.4635,-16.4266 L -75.2811,-16.4734
 L -75.0942,-16.497 L -74.9058,-16.497 L -74.7189,-16.4734 L -74.5365,-16.4266 L -74.3613,-16.3572 L -74.1963,-16.2665
 L -74.0439,-16.1558 L -73.9065,-16.0268 L -73.7865,-15.8817 L -73.6855,-15.7226 L -73.6053,-15.5522 L -73.5471,-15.373
 L -73.5118,-15.188 L -73.5,-15 L -73.5118,-14.812 L -73.5471,-14.627 L -73.6053,-14.4478 L -73.6855,-14.2774
 L -73.7865,-14.1183 L -73.9065,-13.9732 L -74.0439,-13.8442 L -74.1963,-13.7335 L -74.3613,-13.6427 L -74.5365,-13.5734
 L -74.7189,-13.5266 L -74.9058,-13.5029 z
M 74.9058,-13.5029 L 74.7189,-13.5266 L 74.5365,-13.5734 L 74.3613,-13.6427 L 74.1963,-13.7335 L 74.0439,-13.8442
 L 73.9065,-13.9732 L 73.7865,-14.1183 L 73.6855,-14.2774 L 73.6053,-14.4478 L 73.5471,-14.627 L 73.5118,-14.812
 L 73.5,-15 L 73.5118,-15.188 L 73.5471,-15.373 L 73.6053,-15.5522 L 73.6855,-15.7226 L 73.7865,-15.8817
 L 73.9065,-16.0268 L 74.0439,-16.1558 L 74.1963,-16.2665 L 74.3613,-16.3572 L 74.5365,-16.4266 L 74.7189,-16.4734
 L 74.9058,-16.497 L 75.0942,-16.497 L 75.2811,-16.4734 L 75.4635,-16.4266 L 75.6387,-16.3572 L 75.8037,-16.2665
 L 75.9561,-16.1558 L 76.0934,-16.0268 L 76.2135,-15.8817 L 76.3145,-15.7226 L 76.3947,-15.5522 L 76.4529,-15.373
 L 76.4882,-15.188 L 76.5,-15 L 76.4882,-14.812 L 76.4529,-14.627 L 76.3947,-14.4478 L 76.3145,-14.2774
 L 76.2135,-14.1183 L 76.0934,-13.9732 L 75.9561,-13.8442 L 75.8037,-13.7335 L 75.6387,-13.6427 L 75.4635,-13.5734
 L 75.2811,-13.5266 L 75.0942,-13.5029 z
M -75.1884,-4.50591 L -75.5621,-4.55313 L -75.927,-4.64682 L -76.2773,-4.78551 L -76.6075,-4.96701 L -76.9123,-5.18845
 L -77.1869,-5.44635 L -77.427,-5.73663 L -77.6289,-6.05473 L -77.7893,-6.39561 L -77.9057,-6.75392 L -77.9763,-7.12399
 L -78,-7.5 L -77.9763,-7.87599 L -77.9057,-8.24606 L -77.7893,-8.60437 L -77.6289,-8.94525 L -77.427,-9.26335
 L -77.1869,-9.55363 L -76.9123,-9.81154 L -76.6075,-10.033 L -76.2773,-10.2145 L -75.927,-10.3532 L -75.5621,-10.4469
 L -75.1884,-10.4941 L -74.8116,-10.4941 L -74.4379,-10.4469 L -74.073,-10.3532 L -73.7227,-10.2145 L -73.3925,-10.033
 L -73.0877,-9.81154 L -72.8131,-9.55363 L -72.573,-9.26335 L -72.3711,-8.94525 L -72.2107,-8.60437 L -72.0943,-8.24606
 L -72.0237,-7.87599 L -72,-7.5 L -72.0237,-7.12399 L -72.0943,-6.75392 L -72.2107,-6.39561 L -72.3711,-6.05473
 L -72.573,-5.73663 L -72.8131,-5.44635 L -73.0877,-5.18845 L -73.3925,-4.96701 L -73.7227,-4.78551 L -74.073,-4.64682
 L -74.4379,-4.55313 L -74.8116,-4.50591 z
M 74.8116,-4.50591 L 74.4379,-4.55313 L 74.073,-4.64682 L 73.7227,-4.78551 L 73.3925,-4.96701 L 73.0877,-5.18845
 L 72.8131,-5.44635 L 72.573,-5.73663 L 72.3711,-6.05473 L 72.2107,-6.39561 L 72.0943,-6.75392 L 72.0237,-7.12399
 L 72,-7.5 L 72.0237,-7.87599 L 72.0943,-8.24606 L 72.2107,-8.60437 L 72.3711,-8.94525 L 72.573,-9.26335
 L 72.8131,-9.55363 L 73.0877,-9.81154 L 73.3925,-10.033 L 73.7227,-10.2145 L 74.073,-10.3532 L 74.4379,-10.4469
 L 74.8116,-10.4941 L 75.1884,-10.4941 L 75.5621,-10.4469 L 75.927,-10.3532 L 76.2773,-10.2145 L 76.6075,-10.033
 L 76.9123,-9.81154 L 77.1869,-9.55363 L 77.427,-9.26335 L 77.6289,-8.94525 L 77.7893,-8.60437 L 77.9057,-8.24606
 L 77.9763,-7.87599 L 78,-7.5 L 77.9763,-7.12399 L 77.9057,-6.75392 L 77.7893,-6.39561 L 77.6289,-6.05473
 L 77.427,-5.73663 L 77.1869,-5.44635 L 76.9123,-5.18845 L 76.6075,-4.96701 L 76.2773,-4.78551 L 75.927,-4.64682
 L 75.5621,-4.55313 L 75.1884,-4.50591 z
M 74.9058,1.49704 L 74.7189,1.47342 L 74.5365,1.42657 L 74.3613,1.35724 L 74.1963,1.26648 L 74.0439,1.15576
 L 73.9065,1.02681 L 73.7865,0.881668 L 73.6855,0.722626 L 73.6053,0.552185 L 73.5471,0.373032 L 73.5118,0.187988
 L 73.5,-0 L 73.5118,-0.187988 L 73.5471,-0.373032 L 73.6053,-0.552185 L 73.6855,-0.722626 L 73.7865,-0.881668
 L 73.9065,-1.02681 L 74.0439,-1.15576 L 74.1963,-1.26648 L 74.3613,-1.35724 L 74.5365,-1.42657 L 74.7189,-1.47342
 L 74.9058,-1.49704 L 75.0942,-1.49704 L 75.2811,-1.47342 L 75.4635,-1.42657 L 75.6387,-1.35724 L 75.8037,-1.26648
 L 75.9561,-1.15576 L 76.0934,-1.02681 L 76.2135,-0.881668 L 76.3145,-0.722626 L 76.3947,-0.552185 L 76.4529,-0.373032
 L 76.4882,-0.187988 L 76.5,-0 L 76.4882,0.187988 L 76.4529,0.373032 L 76.3947,0.552185 L 76.3145,0.722626
 L 76.2135,0.881668 L 76.0934,1.02681 L 75.9561,1.15576 L 75.8037,1.26648 L 75.6387,1.35724 L 75.4635,1.42657
 L 75.2811,1.47342 L 75.0942,1.49704 z
M -75.0942,1.49704 L -75.2811,1.47342 L -75.4635,1.42657 L -75.6387,1.35724 L -75.8037,1.26648 L -75.9561,1.15576
 L -76.0934,1.02681 L -76.2135,0.881668 L -76.3145,0.722626 L -76.3947,0.552185 L -76.4529,0.373032 L -76.4882,0.187988
 L -76.5,-0 L -76.4882,-0.187988 L -76.4529,-0.373032 L -76.3947,-0.552185 L -76.3145,-0.722626 L -76.2135,-0.881668
 L -76.0934,-1.02681 L -75.9561,-1.15576 L -75.8037,-1.26648 L -75.6387,-1.35724 L -75.4635,-1.42657 L -75.2811,-1.47342
 L -75.0942,-1.49704 L -74.9058,-1.49704 L -74.7189,-1.47342 L -74.5365,-1.42657 L -74.3613,-1.35724 L -74.1963,-1.26648
 L -74.0439,-1.15576 L -73.9065,-1.02681 L -73.7865,-0.881668 L -73.6855,-0.722626 L -73.6053,-0.552185 L -73.5471,-0.373032
 L -73.5118,-0.187988 L -73.5,-0 L -73.5118,0.187988 L -73.5471,0.373032 L -73.6053,0.552185 L -73.6855,0.722626
 L -73.7865,0.881668 L -73.9065,1.02681 L -74.0439,1.15576 L -74.1963,1.26648 L -74.3613,1.35724 L -74.5365,1.42657
 L -74.7189,1.47342 L -74.9058,1.49704 z
M -75.1884,10.4941 L -75.5621,10.4469 L -75.927,10.3532 L -76.2773,10.2145 L -76.6075,10.033 L -76.9123,9.81154
 L -77.1869,9.55363 L -77.427,9.26335 L -77.6289,8.94525 L -77.7893,8.60437 L -77.9057,8.24606 L -77.9763,7.87599
 L -78,7.5 L -77.9763,7.12399 L -77.9057,6.75392 L -77.7893,6.39561 L -77.6289,6.05473 L -77.427,5.73663
 L -77.1869,5.44635 L -76.9123,5.18845 L -76.6075,4.96701 L -76.2773,4.78551 L -75.927,4.64682 L -75.5621,4.55313
 L -75.1884,4.50591 L -74.8116,4.50591 L -74.4379,4.55313 L -74.073,4.64682 L -73.7227,4.78551 L -73.3925,4.96701
 L -73.0877,5.18845 L -72.8131,5.44635 L -72.573,5.73663 L -72.3711,6.05473 L -72.2107,6.39561 L -72.0943,6.75392
 L -72.0237,7.12399 L -72,7.5 L -72.0237,7.87599 L -72.0943,8.24606 L -72.2107,8.60437 L -72.3711,8.94525
 L -72.573,9.26335 L -72.8131,9.55363 L -73.0877,9.81154 L -73.3925,10.033 L -73.7227,10.2145 L -74.073,10.3532
 L -74.4379,10.4469 L -74.8116,10.4941 z
M 74.8116,10.4941 L 74.4379,10.4469 L 74.073,10.3532 L 73.7227,10.2145 L 73.3925,10.033 L 73.0877,9.81154
 L 72.8131,9.55363 L 72.573,9.26335 L 72.3711,8.94525 L 72.2107,8.60437 L 72.0943,8.24606 L 72.0237,7.87599
 L 72,7.5 L 72.0237,7.12399 L 72.0943,6.75392 L 72.2107,6.39561 L 72.3711,6.05473 L 72.573,5.73663
 L 72.8131,5.44635 L 73.0877,5.18845 L 73.3925,4.96701 L 73.7227,4.78551 L 74.073,4.64682 L 74.4379,4.55313
 L 74.8116,4.50591 L 75.1884,4.50591 L 75.5621,4.55313 L 75.927,4.64682 L 76.2773,4.78551 L 76.6075,4.96701
 L 76.9123,5.18845 L 77.1869,5.44635 L 77.427,5.73663 L 77.6289,6.05473 L 77.7893,6.39561 L 77.9057,6.75392
 L 77.9763,7.12399 L 78,7.5 L 77.9763,7.87599 L 77.9057,8.24606 L 77.7893,8.60437 L 77.6289,8.94525
 L 77.427,9.26335 L 77.1869,9.55363 L 76.9123,9.81154 L 76.6075,10.033 L 76.2773,10.2145 L 75.927,10.3532
 L 75.5621,10.4469 L 75.1884,10.4941 z
M 74.9058,16.497 L 74.7189,16.4734 L 74.5365,16.4266 L 74.3613,16.3572 L 74.1963,16.2665 L 74.0439,16.1558
 L 73.9065,16.0268 L 73.7865,15.8817 L 73.6855,15.7226 L 73.6053,15.5522 L 73.5471,15.373 L 73.5118,15.188
 L 73.5,15 L 73.5118,14.812 L 73.5471,14.627 L 73.6053,14.4478 L 73.6855,14.2774 L 73.7865,14.1183
 L 73.9065,13.9732 L 74.0439,13.8442 L 74.1963,13.7335 L 74.3613,13.6427 L 74.5365,13.5734 L 74.7189,13.5266
 L 74.9058,13.5029 L 75.0942,13.5029 L 75.2811,13.5266 L 75.4635,13.5734 L 75.6387,13.6427 L 75.8037,13.7335
 L 75.9561,13.8442 L 76.0934,13.9732 L 76.2135,14.1183 L 76.3145,14.2774 L 76.3947,14.4478 L 76.4529,14.627
 L 76.4882,14.812 L 76.5,15 L 76.4882,15.188 L 76.4529,15.373 L 76.3947,15.5522 L 76.3145,15.7226
 L 76.2135,15.8817 L 76.0934,16.0268 L 75.9561,16.1558 L 75.8037,16.2665 L 75.6387,16.3572 L 75.4635,16.4266
 L 75.2811,16.4734 L 75.0942,16.497 z
M -75.0942,16.497 L -75.2811,16.4734 L -75.4635,16.4266 L -75.6387,16.3572 L -75.8037,16.2665 L -75.9561,16.1558
 L -76.0934,16.0268 L -76.2135,15.8817 L -76.3145,15.7226 L -76.3947,15.5522 L -76.4529,15.373 L -76.4882,15.188
 L -76.5,15 L -76.4882,14.812 L -76.4529,14.627 L -76.3947,14.4478 L -76.3145,14.2774 L -76.2135,14.1183
 L -76.0934,13.9732 L -75.9561,13.8442 L -75.8037,13.7335 L -75.6387,13.6427 L -75.4635,13.5734 L -75.2811,13.5266
 L -75.0942,13.5029 L -74.9058,13.5029 L -74.7189,13.5266 L -74.5365,13.5734 L -74.3613,13.6427 L -74.1963,13.7335
 L -74.0439,13.8442 L -73.9065,13.9732 L -73.7865,14.1183 L -73.6855,14.2774 L -73.6053,14.4478 L -73.5471,14.627
 L -73.5118,14.812 L -73.5,15 L -73.5118,15.188 L -73.5471,15.373 L -73.6053,15.5522 L -73.6855,15.7226
 L -73.7865,15.8817 L -73.9065,16.0268 L -74.0439,16.1558 L -74.1963,16.2665 L -74.3613,16.3572 L -74.5365,16.4266
 L -74.7189,16.4734 L -74.9058,16.497 z
M -75.1884,25.4941 L -75.5621,25.4469 L -75.927,25.3532 L -76.2773,25.2145 L -76.6075,25.033 L -76.9123,24.8115
 L -77.1869,24.5536 L -77.427,24.2634 L -77.6289,23.9453 L -77.7893,23.6044 L -77.9057,23.2461 L -77.9763,22.876
 L -78,22.5 L -77.9763,22.124 L -77.9057,21.7539 L -77.7893,21.3956 L -77.6289,21.0547 L -77.427,20.7366
 L -77.1869,20.4464 L -76.9123,20.1884 L -76.6075,19.967 L -76.2773,19.7855 L -75.927,19.6468 L -75.5621,19.5531
 L -75.1884,19.5059 L -74.8116,19.5059 L -74.4379,19.5531 L -74.073,19.6468 L -73.7227,19.7855 L -73.3925,19.967
 L -73.0877,20.1884 L -72.8131,20.4464 L -72.573,20.7366 L -72.3711,21.0547 L -72.2107,21.3956 L -72.0943,21.7539
 L -72.0237,22.124 L -72,22.5 L -72.0237,22.876 L -72.0943,23.2461 L -72.2107,23.6044 L -72.3711,23.9453
 L -72.573,24.2634 L -72.8131,24.5536 L -73.0877,24.8115 L -73.3925,25.033 L -73.7227,25.2145 L -74.073,25.3532
 L -74.4379,25.4469 L -74.8116,25.4941 z
M 74.8116,25.4941 L 74.4379,25.4469 L 74.073,25.3532 L 73.7227,25.2145 L 73.3925,25.033 L 73.0877,24.8115
 L 72.8131,24.5536 L 72.573,24.2634 L 72.3711,23.9453 L 72.2107,23.6044 L 72.0943,23.2461 L 72.0237,22.876
 L 72,22.5 L 72.0237,22.124 L 72.0943,21.7539 L 72.2107,21.3956 L 72.3711,21.0547 L 72.573,20.7366
 L 72.8131,20.4464 L 73.0877,20.1884 L 73.3925,19.967 L 73.7227,19.7855 L 74.073,19.6468 L 74.4379,19.5531
 L 74.8116,19.5059 L 75.1884,19.5059 L 75.5621,19.5531 L 75.927,19.6468 L 76.2773,19.7855 L 76.6075,19.967
 L 76.9123,20.1884 L 77.1869,20.4464 L 77.427,20.7366 L 77.6289,21.0547 L 77.7893,21.3956 L 77.9057,21.7539
 L 77.9763,22.124 L 78,22.5 L 77.9763,22.876 L 77.9057,23.2461 L 77.7893,23.6044 L 77.6289,23.9453
 L 77.427,24.2634 L 77.1869,24.5536 L 76.9123,24.8115 L 76.6075,25.033 L 76.2773,25.2145 L 75.927,25.3532
 L 75.5621,25.4469 L 75.1884,25.4941 z
" stroke="black" fill="lightgray" stroke-width="0.5"/>
</svg>
