<?xml version="1.0" standalone="no"?>
<!DOCTYPE svg PUBLIC "-//W3C//DTD SVG 1.1//EN" "http://www.w3.org/Graphics/SVG/1.1/DTD/svg11.dtd">
<svg width="74mm" height="44mm" viewBox="-37 -22 74 44" xmlns="http://www.w3.org/2000/svg" version="1.1">
<title>OpenSCAD Model</title>
<path d="
M 32.9369,21.9114 L 33.5451,21.7553 L 34.1289,21.5241 L 34.6791,21.2216 L 35.1871,20.8526 L 35.6448,20.4227
 L 36.0451,19.9389 L 36.3815,19.4088 L 36.6489,18.8406 L 36.8429,18.2434 L 36.9606,17.6267 L 37,17
 L 37,-17 L 36.9606,-17.6267 L 36.8429,-18.2434 L 36.6489,-18.8406 L 36.3815,-19.4088 L 36.0451,-19.9389
 L 35.6448,-20.4227 L 35.1871,-20.8526 L 34.6791,-21.2216 L 34.1289,-21.5241 L 33.5451,-21.7553 L 32.9369,-21.9114
 L 32.3139,-21.9901 L -32.3139,-21.9901 L -32.9369,-21.9114 L -33.5451,-21.7553 L -34.1289,-21.5241 L -34.6791,-21.2216
 L -35.1871,-20.8526 L -35.6448,-20.4227 L -36.0451,-19.9389 L -36.3815,-19.4088 L -36.6489,-18.8406 L -36.8429,-18.2434
 L -36.9606,-17.6267 L -37,-17 L -37,17 L -36.9606,17.6267 L -36.8429,18.2434 L -36.6489,18.8406
 L -36.3815,19.4088 L -36.0451,19.9389 L -35.6448,20.4227 L -35.1871,20.8526 L -34.6791,21.2216 L -34.1289,21.5241
 L -33.5451,21.7553 L -32.9369,21.9114 L -32.3139,21.9901 L 32.3139,21.9901 z
M 29.8116,-12.0059 L 29.4379,-12.0531 L 29.0729,-12.1468 L 28.7227,-12.2855 L 28.3925,-12.467 L 28.0877,-12.6884
 L 27.8131,-12.9464 L 27.5729,-13.2366 L 27.3711,-13.5547 L 27.2107,-13.8956 L 27.0942,-14.2539 L 27.0237,-14.624
 L 27,-15 L 27.0237,-15.376 L 27.0942,-15.7461 L 27.2107,-16.1044 L 27.3711,-16.4453 L 27.5729,-16.7634
 L 27.8131,-17.0536 L 28.0877,-17.3115 L 28.3925,-17.533 L 28.7227,-17.7145 L 29.0729,-17.8532 L 29.4379,-17.9469
 L 29.8116,-17.9941 L 30.1884,-17.9941 L 30.5621,-17.9469 L 30.927,-17.8532 L 31.2773,-17.7145 L 31.6075,-17.533
 L 31.9123,-17.3115 L 32.1869,-17.0536 L 32.427,-16.7634 L 32.6289,-16.4453 L 32.7893,-16.1044 L 32.9057,-15.7461
 L 32.9763,-15.376 L 33,-15 L 32.9763,-14.624 L 32.9057,-14.2539 L 32.7893,-13.8956 L 32.6289,-13.5547
 L 32.427,-13.2366 L 32.1869,-12.9464 L 31.9123,-12.6884 L 31.6075,-12.467 L 31.2773,-12.2855 L 30.927,-12.1468
 L 30.5621,-12.0531 L 30.1884,-12.0059 z
M -30.1884,-12.0059 L -30.5621,-12.0531 L -30.927,-12.1468 L -31.2773,-12.2855 L -31.6075,-12.467 L -31.9123,-12.6884
 L -32.1869,-12.9464 L -32.427,-13.2366 L -32.6289,-13.5547 L -32.7893,-13.8956 L -32.9057,-14.2539 L -32.9763,-14.624
 L -33,-15 L -32.9763,-15.376 L -32.9057,-15.7461 L -32.7893,-16.1044 L -32.6289,-16.4453 L -32.427,-16.7634
 L -32.1869,-17.0536 L -31.9123,-17.3115 L -31.6075,-17.533 L -31.2773,-17.7145 L -30.927,-17.8532 L -30.5621,-17.9469
 L -30.1884,-17.9941 L -29.8116,-17.9941 L -29.4379,-17.9469 L -29.0729,-17.8532 L -28.7227,-17.7145 L -28.3925,-17.533
 L -28.0877,-17.3115 L -27.8131,-17.0536 L -27.5729,-16.7634 L -27.3711,-16.4453 L -27.2107,-16.1044 L -27.0942,-15.7461
 L -27.0237,-15.376 L -27,-15 L -27.0237,-14.624 L -27.0942,-14.2539 L -27.2107,-13.8956 L -27.3711,-13.5547
 L -27.5729,-13.2366 L -27.8131,-12.9464 L -28.0877,-12.6884 L -28.3925,-12.467 L -28.7227,-12.2855 L -29.0729,-12.1468
 L -29.4379,-12.0531 L -29.8116,-12.0059 z
M -16.8477,13.4734 L -18.5296,13.2609 L -20.1717,12.8392 L -21.748,12.2152 L -23.2337,11.3984 L -24.6052,10.4019
 L -25.8411,9.24138 L -26.9217,7.93509 L -27.8301,6.50366 L -28.552,4.96968 L -29.0759,3.3573 L -29.3935,1.69199
 L -29.5,-0 L -29.3935,-1.69199 L -29.0759,-3.3573 L -28.552,-4.96968 L -27.8301,-6.50366 L -26.9217,-7.93509
 L -25.8411,-9.24138 L -24.6052,-10.4019 L -23.2337,-11.3984 L -21.748,-12.2152 L -20.1717,-12.8392 L -18.5296,-13.2609
 L -16.8477,-13.4734 L -15.1523,-13.4734 L -13.4704,-13.2609 L -11.8283,-12.8392 L -10.252,-12.2152 L -8.76633,-11.3984
 L -7.39478,-10.4019 L -6.15892,-9.24138 L -5.07826,-7.93509 L -4.16985,-6.50366 L -3.44801,-4.96968 L -2.92412,-3.3573
 L -2.60645,-1.69199 L -2.5,-0 L -2.60645,1.69199 L -2.92412,3.3573 L -3.44801,4.96968 L -4.16985,6.50366
 L -5.07826,7.93509 L -6.15892,9.24138 L -7.39478,10.4019 L -8.76633,11.3984 L -10.252,12.2152 L -11.8283,12.8392
 L -13.4704,13.2609 L -15.1523,13.4734 z
M 15.1523,13.4734 L 13.4704,13.2609 L 11.8283,12.8392 L 10.252,12.2152 L 8.76633,11.3984 L 7.39478,10.4019
 L 6.15892,9.24138 L 5.07826,7.93509 L 4.16985,6.50366 L 3.44801,4.96968 L 2.92412,3.3573 L 2.60645,1.69199
 L 2.5,-0 L 2.60645,-1.69199 L 2.92412,-3.3573 L 3.44801,-4.96968 L 4.16985,-6.50366 L 5.07826,-7.93509
 L 6.15892,-9.24138 L 7.39478,-10.4019 L 8.76633,-11.3984 L 10.252,-12.2152 L 11.8283,-12.8392 L 13.4704,-13.2609
 L 15.1523,-13.4734 L 16.8477,-13.4734 L 18.5296,-13.2609 L 20.1717,-12.8392 L 21.748,-12.2152 L 23.2337,-11.3984
 L 24.6052,-10.4019 L 25.8411,-9.24138 L 26.9217,-7.93509 L 27.8301,-6.50366 L 28.552,-4.96968 L 29.0759,-3.3573
 L 29.3935,-1.69199 L 29.5,-0 L 29.3935,1.69199 L 29.0759,3.3573 L 28.552,4.96968 L 27.8301,6.50366
 L 26.9217,7.93509 L 25.8411,9.24138 L 24.6052,10.4019 L 23.2337,11.3984 L 21.748,12.2152 L 20.1717,12.8392
 L 18.5296,13.2609 L 16.8477,13.4734 z
M -30.1884,17.9941 L -30.5621,17.9469 L -30.927,17.8532 L -31.2773,17.7145 L -31.6075,17.533 L -31.9123,17.3115
 L -32.1869,17.0536 L -32.427,16.7634 L -32.6289,16.4453 L -32.7893,16.1044 L -32.9057,15.7461 L -32.9763,15.376
 L -33,15 L -32.9763,14.624 L -32.9057,14.2539 L -32.7893,13.8956 L -32.6289,13.5547 L -32.427,13.2366
 L -32.1869,12.9464 L -31.9123,12.6884 L -31.6075,12.467 L -31.2773,12.2855 L -30.927,12.1468 L -30.5621,12.0531
 L -30.1884,12.0059 L -29.8116,12.0059 L -29.4379,12.0531 L -29.0729,12.1468 L -28.7227,12.2855 L -28.3925,12.467
 L -28.0877,12.6884 L -27.8131,12.9464 L -27.5729,13.2366 L -27.3711,13.5547 L -27.2107,13.8956 L -27.0942,14.2539
 L -27.0237,14.624 L -27,15 L -27.0237,15.376 L -27.0942,15.7461 L -27.2107,16.1044 L -27.3711,16.4453
 L -27.5729,16.7634 L -27.8131,17.0536 L -28.0877,17.3115 L -28.3925,17.533 L -28.7227,17.7145 L -29.0729,17.8532
 L -29.4379,17.9469 L -29.8116,17.9941 z
M 29.8116,17.9941 L 29.4379,17.9469 L 29.0729,17.8532 L 28.7227,17.7145 L 28.3925,17.533 L 28.0877,17.3115
 L 27.8131,17.0536 L 27.5729,16.7634 L 27.3711,16.4453 L 27.2107,16.1044 L 27.0942,15.7461 L 27.0237,15.376
 L 27,15 L 27.0237,14.624 L 27.0942,14.2539 L 27.2107,13.8956 L 27.3711,13.5547 L 27.5729,13.2366
 L 27.8131,12.9464 L 28.0877,12.6884 L 28.3925,12.467 L 28.7227,12.2855 L 29.0729,12.1468 L 29.4379,12.0531
 L 29.8116,12.0059 L 30.1884,12.0059 L 30.5621,12.0531 L 30.927,12.1468 L 31.2773,12.2855 L 31.6075,12.467
 L 31.9123,12.6884 L 32.1869,12.9464 L 32.427,13.2366 L 32.6289,13.5547 L 32.7893,13.8956 L 32.9057,14.2539
 L 32.9763,14.624 L 33,15 L 32.9763,15.376 L 32.9057,15.7461 L 32.7893,16.1044 L 32.6289,16.4453
 L 32.427,16.7634 L 32.1869,17.0536 L 31.9123,17.3115 L 31.6075,17.533 L 31.2773,17.7145 L 30.927,17.8532
 L 30.5621,17.9469 L 30.1884,17.9941 z
" stroke="black" fill="lightgray" stroke-width="0.5"/>
</svg>
