<?xml version="1.0" standalone="no"?>
<!DOCTYPE svg PUBLIC "-//W3C//DTD SVG 1.1//EN" "http://www.w3.org/Graphics/SVG/1.1/DTD/svg11.dtd">
<svg width="390mm" height="104mm" viewBox="-195 -52 390 104" xmlns="http://www.w3.org/2000/svg" version="1.1">
<title>OpenSCAD Model</title>
<path d="
M 190.437,51.9114 L 191.045,51.7553 L 191.629,51.5241 L 192.179,51.2216 L 192.687,50.8526 L 193.145,50.4227
 L 193.545,49.9389 L 193.882,49.4088 L 194.149,48.8406 L 194.343,48.2434 L 194.461,47.6267 L 194.5,47
 L 194.5,-47 L 194.461,-47.6267 L 194.343,-48.2434 L 194.149,-48.8406 L 193.882,-49.4088 L 193.545,-49.9389
 L 193.145,-50.4227 L 192.687,-50.8526 L 192.179,-51.2216 L 191.629,-51.5241 L 191.045,-51.7553 L 190.437,-51.9114
 L 189.814,-51.9901 L -189.814,-51.9901 L -190.437,-51.9114 L -191.045,-51.7553 L -191.629,-51.5241 L -192.179,-51.2216
 L -192.687,-50.8526 L -193.145,-50.4227 L -193.545,-49.9389 L -193.882,-49.4088 L -194.149,-48.8406 L -194.343,-48.2434
 L -194.461,-47.6267 L -194.5,-47 L -194.5,47 L -194.461,47.6267 L -194.343,48.2434 L -194.149,48.8406
 L -193.882,49.4088 L -193.545,49.9389 L -193.145,50.4227 L -192.687,50.8526 L -192.179,51.2216 L -191.629,51.5241
 L -191.045,51.7553 L -190.437,51.9114 L -189.814,51.9901 L 189.814,51.9901 z
M -187.688,-42.0059 L -188.062,-42.0531 L -188.427,-42.1468 L -188.777,-42.2855 L -189.107,-42.467 L -189.412,-42.6885
 L -189.687,-42.9464 L -189.927,-43.2366 L -190.129,-43.5547 L -190.289,-43.8956 L -190.406,-44.2539 L -190.476,-44.624
 L -190.5,-45 L -190.476,-45.376 L -190.406,-45.7461 L -190.289,-46.1044 L -190.129,-46.4453 L -189.927,-46.7634
 L -189.687,-47.0536 L -189.412,-47.3115 L -189.107,-47.533 L -188.777,-47.7145 L -188.427,-47.8532 L -188.062,-47.9469
 L -187.688,-47.9941 L -187.312,-47.9941 L -186.938,-47.9469 L -186.573,-47.8532 L -186.223,-47.7145 L -185.893,-47.533
 L -185.588,-47.3115 L -185.313,-47.0536 L -185.073,-46.7634 L -184.871,-46.4453 L -184.711,-46.1044 L -184.594,-45.7461
 L -184.524,-45.376 L -184.5,-45 L -184.524,-44.624 L -184.594,-44.2539 L -184.711,-43.8956 L -184.871,-43.5547
 L -185.073,-43.2366 L -185.313,-42.9464 L -185.588,-42.6885 L -185.893,-42.467 L -186.223,-42.2855 L -186.573,-42.1468
 L -186.938,-42.0531 L -187.312,-42.0059 z
M 187.312,-42.0059 L 186.938,-42.0531 L 186.573,-42.1468 L 186.223,-42.2855 L 185.893,-42.467 L 185.588,-42.6885
 L 185.313,-42.9464 L 185.073,-43.2366 L 184.871,-43.5547 L 184.711,-43.8956 L 184.594,-44.2539 L 184.524,-44.624
 L 184.5,-45 L 184.524,-45.376 L 184.594,-45.7461 L 184.711,-46.1044 L 184.871,-46.4453 L 185.073,-46.7634
 L 185.313,-47.0536 L 185.588,-47.3115 L 185.893,-47.533 L 186.223,-47.7145 L 186.573,-47.8532 L 186.938,-47.9469
 L 187.312,-47.9941 L 187.688,-47.9941 L 188.062,-47.9469 L 188.427,-47.8532 L 188.777,-47.7145 L 189.107,-47.533
 L 189.412,-47.3115 L 189.687,-47.0536 L 189.927,-46.7634 L 190.129,-46.4453 L 190.289,-46.1044 L 190.406,-45.7461
 L 190.476,-45.376 L 190.5,-45 L 190.476,-44.624 L 190.406,-44.2539 L 190.289,-43.8956 L 190.129,-43.5547
 L 189.927,-43.2366 L 189.687,-42.9464 L 189.412,-42.6885 L 189.107,-42.467 L 188.777,-42.2855 L 188.427,-42.1468
 L 188.062,-42.0531 L 187.688,-42.0059 z
M 139.674,44.9112 L 134.068,44.2029 L 128.594,42.7975 L 123.34,40.7172 L 118.388,37.9948 L 113.816,34.6731
 L 109.696,30.8046 L 106.094,26.4503 L 103.066,21.6789 L 100.66,16.5656 L 98.9138,11.191 L 97.8548,5.63998
 L 97.5,-0 L 97.8548,-5.63998 L 98.9138,-11.191 L 100.66,-16.5656 L 103.066,-21.6789 L 106.094,-26.4503
 L 109.696,-30.8046 L 113.816,-34.6731 L 118.388,-37.9948 L 123.34,-40.7172 L 128.594,-42.7975 L 134.068,-44.2029
 L 139.674,-44.9112 L 145.326,-44.9112 L 150.932,-44.2029 L 156.406,-42.7975 L 161.66,-40.7172 L 166.612,-37.9948
 L 171.184,-34.6731 L 175.304,-30.8046 L 178.906,-26.4503 L 181.934,-21.6789 L 184.34,-16.5656 L 186.086,-11.191
 L 187.145,-5.63998 L 187.5,-0 L 187.145,5.63998 L 186.086,11.191 L 184.34,16.5656 L 181.934,21.6789
 L 178.906,26.4503 L 175.304,30.8046 L 171.184,34.6731 L 166.612,37.9948 L 161.66,40.7172 L 156.406,42.7975
 L 150.932,44.2029 L 145.326,44.9112 z
M -145.326,44.9112 L -150.932,44.2029 L -156.406,42.7975 L -161.66,40.7172 L -166.612,37.9948 L -171.184,34.6731
 L -175.304,30.8046 L -178.906,26.4503 L -181.934,21.6789 L -184.34,16.5656 L -186.086,11.191 L -187.145,5.63998
 L -187.5,-0 L -187.145,-5.63998 L -186.086,-11.191 L -184.34,-16.5656 L -181.934,-21.6789 L -178.906,-26.4503
 L -175.304,-30.8046 L -171.184,-34.6731 L -166.612,-37.9948 L -161.66,-40.7172 L -156.406,-42.7975 L -150.932,-44.2029
 L -145.326,-44.9112 L -139.674,-44.9112 L -134.068,-44.2029 L -128.594,-42.7975 L -123.34,-40.7172 L -118.388,-37.9948
 L -113.816,-34.6731 L -109.696,-30.8046 L -106.094,-26.4503 L -103.066,-21.6789 L -100.66,-16.5656 L -98.9138,-11.191
 L -97.8548,-5.63998 L -97.5,-0 L -97.8548,5.63998 L -98.9138,11.191 L -100.66,16.5656 L -103.066,21.6789
 L -106.094,26.4503 L -109.696,30.8046 L -113.816,34.6731 L -118.388,37.9948 L -123.34,40.7172 L -128.594,42.7975
 L -134.068,44.2029 L -139.674,44.9112 z
M 44.6744,44.9112 L 39.0678,44.2029 L 33.5942,42.7975 L 28.3399,40.7172 L 23.3878,37.9948 L 18.8159,34.6731
 L 14.6964,30.8046 L 11.0942,26.4503 L 8.06619,21.6789 L 5.66005,16.5656 L 3.91376,11.191 L 2.85483,5.63998
 L 2.5,-0 L 2.85483,-5.63998 L 3.91376,-11.191 L 5.66005,-16.5656 L 8.06619,-21.6789 L 11.0942,-26.4503
 L 14.6964,-30.8046 L 18.8159,-34.6731 L 23.3878,-37.9948 L 28.3399,-40.7172 L 33.5942,-42.7975 L 39.0678,-44.2029
 L 44.6744,-44.9112 L 50.3256,-44.9112 L 55.9322,-44.2029 L 61.4058,-42.7975 L 66.6601,-40.7172 L 71.6122,-37.9948
 L 76.1841,-34.6731 L 80.3036,-30.8046 L 83.9058,-26.4503 L 86.9338,-21.6789 L 89.3399,-16.5656 L 91.0862,-11.191
 L 92.1452,-5.63998 L 92.5,-0 L 92.1452,5.63998 L 91.0862,11.191 L 89.3399,16.5656 L 86.9338,21.6789
 L 83.9058,26.4503 L 80.3036,30.8046 L 76.1841,34.6731 L 71.6122,37.9948 L 66.6601,40.7172 L 61.4058,42.7975
 L 55.9322,44.2029 L 50.3256,44.9112 z
M -50.3256,44.9112 L -55.9322,44.2029 L -61.4058,42.7975 L -66.6601,40.7172 L -71.6122,37.9948 L -76.1841,34.6731
 L -80.3036,30.8046 L -83.9058,26.4503 L -86.9338,21.6789 L -89.3399,16.5656 L -91.0862,11.191 L -92.1452,5.63998
 L -92.5,-0 L -92.1452,-5.63998 L -91.0862,-11.191 L -89.3399,-16.5656 L -86.9338,-21.6789 L -83.9058,-26.4503
 L -80.3036,-30.8046 L -76.1841,-34.6731 L -71.6122,-37.9948 L -66.6601,-40.7172 L -61.4058,-42.7975 L -55.9322,-44.2029
 L -50.3256,-44.9112 L -44.6744,-44.9112 L -39.0678,-44.2029 L -33.5942,-42.7975 L -28.3399,-40.7172 L -23.3878,-37.9948
 L -18.8159,-34.6731 L -14.6964,-30.8046 L -11.0942,-26.4503 L -8.06619,-21.6789 L -5.66005,-16.5656 L -3.91376,-11.191
 L -2.85483,-5.63998 L -2.5,-0 L -2.85483,5.63998 L -3.91376,11.191 L -5.66005,16.5656 L -8.06619,21.6789
 L -11.0942,26.4503 L -14.6964,30.8046 L -18.8159,34.6731 L -23.3878,37.9948 L -28.3399,40.7172 L -33.5942,42.7975
 L -39.0678,44.2029 L -44.6744,44.9112 z
M 187.312,47.9941 L 186.938,47.9469 L 186.573,47.8532 L 186.223,47.7145 L 185.893,47.533 L 185.588,47.3115
 L 185.313,47.0536 L 185.073,46.7634 L 184.871,46.4453 L 184.711,46.1044 L 184.594,45.7461 L 184.524,45.376
 L 184.5,45 L 184.524,44.624 L 184.594,44.2539 L 184.711,43.8956 L 184.871,43.5547 L 185.073,43.2366
 L 185.313,42.9464 L 185.588,42.6885 L 185.893,42.467 L 186.223,42.2855 L 186.573,42.1468 L 186.938,42.0531
 L 187.312,42.0059 L 187.688,42.0059 L 188.062,42.0531 L 188.427,42.1468 L 188.777,42.2855 L 189.107,42.467
 L 189.412,42.6885 L 189.687,42.9464 L 189.927,43.2366 L 190.129,43.5547 L 190.289,43.8956 L 190.406,44.2539
 L 190.476,44.624 L 190.5,45 L 190.476,45.376 L 190.406,45.7461 L 190.289,46.1044 L 190.129,46.4453
 L 189.927,46.7634 L 189.687,47.0536 L 189.412,47.3115 L 189.107,47.533 L 188.777,47.7145 L 188.427,47.8532
 L 188.062,47.9469 L 187.688,47.9941 z
M -187.688,47.9941 L -188.062,47.9469 L -188.427,47.8532 L -188.777,47.7145 L -189.107,47.533 L -189.412,47.3115
 L -189.687,47.0536 L -189.927,46.7634 L -190.129,46.4453 L -190.289,46.1044 L -190.406,45.7461 L -190.476,45.376
 L -190.5,45 L -190.476,44.624 L -190.406,44.2539 L -190.289,43.8956 L -190.129,43.5547 L -189.927,43.2366
 L -189.687,42.9464 L -189.412,42.6885 L -189.107,42.467 L -188.777,42.2855 L -188.427,42.1468 L -188.062,42.0531
 L -187.688,42.0059 L -187.312,42.0059 L -186.938,42.0531 L -186.573,42.1468 L -186.223,42.2855 L -185.893,42.467
 L -185.588,42.6885 L -185.313,42.9464 L -185.073,43.2366 L -184.871,43.5547 L -184.711,43.8956 L -184.594,44.2539
 L -184.524,44.624 L -184.5,45 L -184.524,45.376 L -184.594,45.7461 L -184.711,46.1044 L -184.871,46.4453
 L -185.073,46.7634 L -185.313,47.0536 L -185.588,47.3115 L -185.893,47.533 L -186.223,47.7145 L -186.573,47.8532
 L -186.938,47.9469 L -187.312,47.9941 z
" stroke="black" fill="lightgray" stroke-width="0.5"/>
</svg>
