  0
SECTION
  2
BLOCKS
  0
ENDSEC
  0
SECTION
  2
ENTITIES
  0
LINE
  8
0
 10
77.9369
 20
32.0886
 11
78.5451
 21
32.2447
  0
LINE
  8
0
 10
78.5451
 20
32.2447
 11
79.1289
 21
32.4759
  0
LINE
  8
0
 10
79.1289
 20
32.4759
 11
79.6791
 21
32.7784
  0
LINE
  8
0
 10
79.6791
 20
32.7784
 11
80.1871
 21
33.1474
  0
LINE
  8
0
 10
80.1871
 20
33.1474
 11
80.6448
 21
33.5773
  0
LINE
  8
0
 10
80.6448
 20
33.5773
 11
81.0451
 21
34.0611
  0
LINE
  8
0
 10
81.0451
 20
34.0611
 11
81.3815
 21
34.5912
  0
LINE
  8
0
 10
81.3815
 20
34.5912
 11
81.6489
 21
35.1594
  0
LINE
  8
0
 10
81.6489
 20
35.1594
 11
81.8429
 21
35.7566
  0
LINE
  8
0
 10
81.8429
 20
35.7566
 11
81.9606
 21
36.3733
  0
LINE
  8
0
 10
81.9606
 20
36.3733
 11
82
 21
37
  0
LINE
  8
0
 10
82
 20
37
 11
82
 21
71
  0
LINE
  8
0
 10
82
 20
71
 11
81.9606
 21
71.6267
  0
LINE
  8
0
 10
81.9606
 20
71.6267
 11
81.8429
 21
72.2434
  0
LINE
  8
0
 10
81.8429
 20
72.2434
 11
81.6489
 21
72.8406
  0
LINE
  8
0
 10
81.6489
 20
72.8406
 11
81.3815
 21
73.4088
  0
LINE
  8
0
 10
81.3815
 20
73.4088
 11
81.0451
 21
73.9389
  0
LINE
  8
0
 10
81.0451
 20
73.9389
 11
80.6448
 21
74.4227
  0
LINE
  8
0
 10
80.6448
 20
74.4227
 11
80.1871
 21
74.8526
  0
LINE
  8
0
 10
80.1871
 20
74.8526
 11
79.6791
 21
75.2216
  0
LINE
  8
0
 10
79.6791
 20
75.2216
 11
79.1289
 21
75.5241
  0
LINE
  8
0
 10
79.1289
 20
75.5241
 11
78.5451
 21
75.7553
  0
LINE
  8
0
 10
78.5451
 20
75.7553
 11
77.9369
 21
75.9114
  0
LINE
  8
0
 10
77.9369
 20
75.9114
 11
77.3139
 21
75.9901
  0
LINE
  8
0
 10
77.3139
 20
75.9901
 11
-77.3139
 21
75.9901
  0
LINE
  8
0
 10
-77.3139
 20
75.9901
 11
-77.9369
 21
75.9114
  0
LINE
  8
0
 10
-77.9369
 20
75.9114
 11
-78.5451
 21
75.7553
  0
LINE
  8
0
 10
-78.5451
 20
75.7553
 11
-79.1289
 21
75.5241
  0
LINE
  8
0
 10
-79.1289
 20
75.5241
 11
-79.6791
 21
75.2216
  0
LINE
  8
0
 10
-79.6791
 20
75.2216
 11
-80.1871
 21
74.8526
  0
LINE
  8
0
 10
-80.1871
 20
74.8526
 11
-80.6448
 21
74.4227
  0
LINE
  8
0
 10
-80.6448
 20
74.4227
 11
-81.0451
 21
73.9389
  0
LINE
  8
0
 10
-81.0451
 20
73.9389
 11
-81.3815
 21
73.4088
  0
LINE
  8
0
 10
-81.3815
 20
73.4088
 11
-81.6489
 21
72.8406
  0
LINE
  8
0
 10
-81.6489
 20
72.8406
 11
-81.8429
 21
72.2434
  0
LINE
  8
0
 10
-81.8429
 20
72.2434
 11
-81.9606
 21
71.6267
  0
LINE
  8
0
 10
-81.9606
 20
71.6267
 11
-82
 21
71
  0
LINE
  8
0
 10
-82
 20
71
 11
-82
 21
37
  0
LINE
  8
0
 10
-82
 20
37
 11
-81.9606
 21
36.3733
  0
LINE
  8
0
 10
-81.9606
 20
36.3733
 11
-81.8429
 21
35.7566
  0
LINE
  8
0
 10
-81.8429
 20
35.7566
 11
-81.6489
 21
35.1594
  0
LINE
  8
0
 10
-81.6489
 20
35.1594
 11
-81.3815
 21
34.5912
  0
LINE
  8
0
 10
-81.3815
 20
34.5912
 11
-81.0451
 21
34.0611
  0
LINE
  8
0
 10
-81.0451
 20
34.0611
 11
-80.6448
 21
33.5773
  0
LINE
  8
0
 10
-80.6448
 20
33.5773
 11
-80.1871
 21
33.1474
  0
LINE
  8
0
 10
-80.1871
 20
33.1474
 11
-79.6791
 21
32.7784
  0
LINE
  8
0
 10
-79.6791
 20
32.7784
 11
-79.1289
 21
32.4759
  0
LINE
  8
0
 10
-79.1289
 20
32.4759
 11
-78.5451
 21
32.2447
  0
LINE
  8
0
 10
-78.5451
 20
32.2447
 11
-77.9369
 21
32.0886
  0
LINE
  8
0
 10
-77.9369
 20
32.0886
 11
-77.3139
 21
32.0099
  0
LINE
  8
0
 10
-77.3139
 20
32.0099
 11
77.3139
 21
32.0099
  0
LINE
  8
0
 10
77.3139
 20
32.0099
 11
77.9369
 21
32.0886
  0
LINE
  8
0
 10
-75.1884
 20
66.0059
 11
-75.5621
 21
66.0531
  0
LINE
  8
0
 10
-75.5621
 20
66.0531
 11
-75.927
 21
66.1468
  0
LINE
  8
0
 10
-75.927
 20
66.1468
 11
-76.2773
 21
66.2855
  0
LINE
  8
0
 10
-76.2773
 20
66.2855
 11
-76.6075
 21
66.467
  0
LINE
  8
0
 10
-76.6075
 20
66.467
 11
-76.9123
 21
66.6884
  0
LINE
  8
0
 10
-76.9123
 20
66.6884
 11
-77.1869
 21
66.9464
  0
LINE
  8
0
 10
-77.1869
 20
66.9464
 11
-77.427
 21
67.2366
  0
LINE
  8
0
 10
-77.427
 20
67.2366
 11
-77.6289
 21
67.5547
  0
LINE
  8
0
 10
-77.6289
 20
67.5547
 11
-77.7893
 21
67.8956
  0
LINE
  8
0
 10
-77.7893
 20
67.8956
 11
-77.9057
 21
68.2539
  0
LINE
  8
0
 10
-77.9057
 20
68.2539
 11
-77.9763
 21
68.624
  0
LINE
  8
0
 10
-77.9763
 20
68.624
 11
-78
 21
69
  0
LINE
  8
0
 10
-78
 20
69
 11
-77.9763
 21
69.376
  0
LINE
  8
0
 10
-77.9763
 20
69.376
 11
-77.9057
 21
69.7461
  0
LINE
  8
0
 10
-77.9057
 20
69.7461
 11
-77.7893
 21
70.1044
  0
LINE
  8
0
 10
-77.7893
 20
70.1044
 11
-77.6289
 21
70.4453
  0
LINE
  8
0
 10
-77.6289
 20
70.4453
 11
-77.427
 21
70.7634
  0
LINE
  8
0
 10
-77.427
 20
70.7634
 11
-77.1869
 21
71.0536
  0
LINE
  8
0
 10
-77.1869
 20
71.0536
 11
-76.9123
 21
71.3115
  0
LINE
  8
0
 10
-76.9123
 20
71.3115
 11
-76.6075
 21
71.533
  0
LINE
  8
0
 10
-76.6075
 20
71.533
 11
-76.2773
 21
71.7145
  0
LINE
  8
0
 10
-76.2773
 20
71.7145
 11
-75.927
 21
71.8532
  0
LINE
  8
0
 10
-75.927
 20
71.8532
 11
-75.5621
 21
71.9469
  0
LINE
  8
0
 10
-75.5621
 20
71.9469
 11
-75.1884
 21
71.9941
  0
LINE
  8
0
 10
-75.1884
 20
71.9941
 11
-74.8116
 21
71.9941
  0
LINE
  8
0
 10
-74.8116
 20
71.9941
 11
-74.4379
 21
71.9469
  0
LINE
  8
0
 10
-74.4379
 20
71.9469
 11
-74.073
 21
71.8532
  0
LINE
  8
0
 10
-74.073
 20
71.8532
 11
-73.7227
 21
71.7145
  0
LINE
  8
0
 10
-73.7227
 20
71.7145
 11
-73.3925
 21
71.533
  0
LINE
  8
0
 10
-73.3925
 20
71.533
 11
-73.0877
 21
71.3115
  0
LINE
  8
0
 10
-73.0877
 20
71.3115
 11
-72.8131
 21
71.0536
  0
LINE
  8
0
 10
-72.8131
 20
71.0536
 11
-72.573
 21
70.7634
  0
LINE
  8
0
 10
-72.573
 20
70.7634
 11
-72.3711
 21
70.4453
  0
LINE
  8
0
 10
-72.3711
 20
70.4453
 11
-72.2107
 21
70.1044
  0
LINE
  8
0
 10
-72.2107
 20
70.1044
 11
-72.0943
 21
69.7461
  0
LINE
  8
0
 10
-72.0943
 20
69.7461
 11
-72.0237
 21
69.376
  0
LINE
  8
0
 10
-72.0237
 20
69.376
 11
-72
 21
69
  0
LINE
  8
0
 10
-72
 20
69
 11
-72.0237
 21
68.624
  0
LINE
  8
0
 10
-72.0237
 20
68.624
 11
-72.0943
 21
68.2539
  0
LINE
  8
0
 10
-72.0943
 20
68.2539
 11
-72.2107
 21
67.8956
  0
LINE
  8
0
 10
-72.2107
 20
67.8956
 11
-72.3711
 21
67.5547
  0
LINE
  8
0
 10
-72.3711
 20
67.5547
 11
-72.573
 21
67.2366
  0
LINE
  8
0
 10
-72.573
 20
67.2366
 11
-72.8131
 21
66.9464
  0
LINE
  8
0
 10
-72.8131
 20
66.9464
 11
-73.0877
 21
66.6884
  0
LINE
  8
0
 10
-73.0877
 20
66.6884
 11
-73.3925
 21
66.467
  0
LINE
  8
0
 10
-73.3925
 20
66.467
 11
-73.7227
 21
66.2855
  0
LINE
  8
0
 10
-73.7227
 20
66.2855
 11
-74.073
 21
66.1468
  0
LINE
  8
0
 10
-74.073
 20
66.1468
 11
-74.4379
 21
66.0531
  0
LINE
  8
0
 10
-74.4379
 20
66.0531
 11
-74.8116
 21
66.0059
  0
LINE
  8
0
 10
-74.8116
 20
66.0059
 11
-75.1884
 21
66.0059
  0
LINE
  8
0
 10
74.8116
 20
66.0059
 11
74.4379
 21
66.0531
  0
LINE
  8
0
 10
74.4379
 20
66.0531
 11
74.073
 21
66.1468
  0
LINE
  8
0
 10
74.073
 20
66.1468
 11
73.7227
 21
66.2855
  0
LINE
  8
0
 10
73.7227
 20
66.2855
 11
73.3925
 21
66.467
  0
LINE
  8
0
 10
73.3925
 20
66.467
 11
73.0877
 21
66.6884
  0
LINE
  8
0
 10
73.0877
 20
66.6884
 11
72.8131
 21
66.9464
  0
LINE
  8
0
 10
72.8131
 20
66.9464
 11
72.573
 21
67.2366
  0
LINE
  8
0
 10
72.573
 20
67.2366
 11
72.3711
 21
67.5547
  0
LINE
  8
0
 10
72.3711
 20
67.5547
 11
72.2107
 21
67.8956
  0
LINE
  8
0
 10
72.2107
 20
67.8956
 11
72.0943
 21
68.2539
  0
LINE
  8
0
 10
72.0943
 20
68.2539
 11
72.0237
 21
68.624
  0
LINE
  8
0
 10
72.0237
 20
68.624
 11
72
 21
69
  0
LINE
  8
0
 10
72
 20
69
 11
72.0237
 21
69.376
  0
LINE
  8
0
 10
72.0237
 20
69.376
 11
72.0943
 21
69.7461
  0
LINE
  8
0
 10
72.0943
 20
69.7461
 11
72.2107
 21
70.1044
  0
LINE
  8
0
 10
72.2107
 20
70.1044
 11
72.3711
 21
70.4453
  0
LINE
  8
0
 10
72.3711
 20
70.4453
 11
72.573
 21
70.7634
  0
LINE
  8
0
 10
72.573
 20
70.7634
 11
72.8131
 21
71.0536
  0
LINE
  8
0
 10
72.8131
 20
71.0536
 11
73.0877
 21
71.3115
  0
LINE
  8
0
 10
73.0877
 20
71.3115
 11
73.3925
 21
71.533
  0
LINE
  8
0
 10
73.3925
 20
71.533
 11
73.7227
 21
71.7145
  0
LINE
  8
0
 10
73.7227
 20
71.7145
 11
74.073
 21
71.8532
  0
LINE
  8
0
 10
74.073
 20
71.8532
 11
74.4379
 21
71.9469
  0
LINE
  8
0
 10
74.4379
 20
71.9469
 11
74.8116
 21
71.9941
  0
LINE
  8
0
 10
74.8116
 20
71.9941
 11
75.1884
 21
71.9941
  0
LINE
  8
0
 10
75.1884
 20
71.9941
 11
75.5621
 21
71.9469
  0
LINE
  8
0
 10
75.5621
 20
71.9469
 11
75.927
 21
71.8532
  0
LINE
  8
0
 10
75.927
 20
71.8532
 11
76.2773
 21
71.7145
  0
LINE
  8
0
 10
76.2773
 20
71.7145
 11
76.6075
 21
71.533
  0
LINE
  8
0
 10
76.6075
 20
71.533
 11
76.9123
 21
71.3115
  0
LINE
  8
0
 10
76.9123
 20
71.3115
 11
77.1869
 21
71.0536
  0
LINE
  8
0
 10
77.1869
 20
71.0536
 11
77.427
 21
70.7634
  0
LINE
  8
0
 10
77.427
 20
70.7634
 11
77.6289
 21
70.4453
  0
LINE
  8
0
 10
77.6289
 20
70.4453
 11
77.7893
 21
70.1044
  0
LINE
  8
0
 10
77.7893
 20
70.1044
 11
77.9057
 21
69.7461
  0
LINE
  8
0
 10
77.9057
 20
69.7461
 11
77.9763
 21
69.376
  0
LINE
  8
0
 10
77.9763
 20
69.376
 11
78
 21
69
  0
LINE
  8
0
 10
78
 20
69
 11
77.9763
 21
68.624
  0
LINE
  8
0
 10
77.9763
 20
68.624
 11
77.9057
 21
68.2539
  0
LINE
  8
0
 10
77.9057
 20
68.2539
 11
77.7893
 21
67.8956
  0
LINE
  8
0
 10
77.7893
 20
67.8956
 11
77.6289
 21
67.5547
  0
LINE
  8
0
 10
77.6289
 20
67.5547
 11
77.427
 21
67.2366
  0
LINE
  8
0
 10
77.427
 20
67.2366
 11
77.1869
 21
66.9464
  0
LINE
  8
0
 10
77.1869
 20
66.9464
 11
76.9123
 21
66.6884
  0
LINE
  8
0
 10
76.9123
 20
66.6884
 11
76.6075
 21
66.467
  0
LINE
  8
0
 10
76.6075
 20
66.467
 11
76.2773
 21
66.2855
  0
LINE
  8
0
 10
76.2773
 20
66.2855
 11
75.927
 21
66.1468
  0
LINE
  8
0
 10
75.927
 20
66.1468
 11
75.5621
 21
66.0531
  0
LINE
  8
0
 10
75.5621
 20
66.0531
 11
75.1884
 21
66.0059
  0
LINE
  8
0
 10
75.1884
 20
66.0059
 11
74.8116
 21
66.0059
  0
LINE
  8
0
 10
27.2779
 20
42.5227
 11
25.8451
 21
42.7037
  0
LINE
  8
0
 10
25.8451
 20
42.7037
 11
24.4463
 21
43.0629
  0
LINE
  8
0
 10
24.4463
 20
43.0629
 11
23.1035
 21
43.5945
  0
LINE
  8
0
 10
23.1035
 20
43.5945
 11
21.838
 21
44.2902
  0
LINE
  8
0
 10
21.838
 20
44.2902
 11
20.6696
 21
45.1391
  0
LINE
  8
0
 10
20.6696
 20
45.1391
 11
19.6169
 21
46.1277
  0
LINE
  8
0
 10
19.6169
 20
46.1277
 11
18.6963
 21
47.2405
  0
LINE
  8
0
 10
18.6963
 20
47.2405
 11
17.9225
 21
48.4598
  0
LINE
  8
0
 10
17.9225
 20
48.4598
 11
17.3076
 21
49.7666
  0
LINE
  8
0
 10
17.3076
 20
49.7666
 11
16.8613
 21
51.1401
  0
LINE
  8
0
 10
16.8613
 20
51.1401
 11
16.5907
 21
52.5587
  0
LINE
  8
0
 10
16.5907
 20
52.5587
 11
16.5
 21
54
  0
LINE
  8
0
 10
16.5
 20
54
 11
16.5907
 21
55.4413
  0
LINE
  8
0
 10
16.5907
 20
55.4413
 11
16.8613
 21
56.8599
  0
LINE
  8
0
 10
16.8613
 20
56.8599
 11
17.3076
 21
58.2334
  0
LINE
  8
0
 10
17.3076
 20
58.2334
 11
17.9225
 21
59.5402
  0
LINE
  8
0
 10
17.9225
 20
59.5402
 11
18.6963
 21
60.7595
  0
LINE
  8
0
 10
18.6963
 20
60.7595
 11
19.6169
 21
61.8723
  0
LINE
  8
0
 10
19.6169
 20
61.8723
 11
20.6696
 21
62.8609
  0
LINE
  8
0
 10
20.6696
 20
62.8609
 11
21.838
 21
63.7098
  0
LINE
  8
0
 10
21.838
 20
63.7098
 11
23.1035
 21
64.4055
  0
LINE
  8
0
 10
23.1035
 20
64.4055
 11
24.4463
 21
64.9371
  0
LINE
  8
0
 10
24.4463
 20
64.9371
 11
25.8451
 21
65.2963
  0
LINE
  8
0
 10
25.8451
 20
65.2963
 11
27.2779
 21
65.4773
  0
LINE
  8
0
 10
27.2779
 20
65.4773
 11
28.7221
 21
65.4773
  0
LINE
  8
0
 10
28.7221
 20
65.4773
 11
30.1549
 21
65.2963
  0
LINE
  8
0
 10
30.1549
 20
65.2963
 11
31.5537
 21
64.9371
  0
LINE
  8
0
 10
31.5537
 20
64.9371
 11
32.8965
 21
64.4055
  0
LINE
  8
0
 10
32.8965
 20
64.4055
 11
34.162
 21
63.7098
  0
LINE
  8
0
 10
34.162
 20
63.7098
 11
35.3304
 21
62.8609
  0
LINE
  8
0
 10
35.3304
 20
62.8609
 11
36.3831
 21
61.8723
  0
LINE
  8
0
 10
36.3831
 20
61.8723
 11
37.3037
 21
60.7595
  0
LINE
  8
0
 10
37.3037
 20
60.7595
 11
38.0775
 21
59.5402
  0
LINE
  8
0
 10
38.0775
 20
59.5402
 11
38.6924
 21
58.2334
  0
LINE
  8
0
 10
38.6924
 20
58.2334
 11
39.1387
 21
56.8599
  0
LINE
  8
0
 10
39.1387
 20
56.8599
 11
39.4093
 21
55.4413
  0
LINE
  8
0
 10
39.4093
 20
55.4413
 11
39.5
 21
54
  0
LINE
  8
0
 10
39.5
 20
54
 11
39.4093
 21
52.5587
  0
LINE
  8
0
 10
39.4093
 20
52.5587
 11
39.1387
 21
51.1401
  0
LINE
  8
0
 10
39.1387
 20
51.1401
 11
38.6924
 21
49.7666
  0
LINE
  8
0
 10
38.6924
 20
49.7666
 11
38.0775
 21
48.4598
  0
LINE
  8
0
 10
38.0775
 20
48.4598
 11
37.3037
 21
47.2405
  0
LINE
  8
0
 10
37.3037
 20
47.2405
 11
36.3831
 21
46.1277
  0
LINE
  8
0
 10
36.3831
 20
46.1277
 11
35.3304
 21
45.1391
  0
LINE
  8
0
 10
35.3304
 20
45.1391
 11
34.162
 21
44.2902
  0
LINE
  8
0
 10
34.162
 20
44.2902
 11
32.8965
 21
43.5945
  0
LINE
  8
0
 10
32.8965
 20
43.5945
 11
31.5537
 21
43.0629
  0
LINE
  8
0
 10
31.5537
 20
43.0629
 11
30.1549
 21
42.7037
  0
LINE
  8
0
 10
30.1549
 20
42.7037
 11
28.7221
 21
42.5227
  0
LINE
  8
0
 10
28.7221
 20
42.5227
 11
27.2779
 21
42.5227
  0
LINE
  8
0
 10
-56.7221
 20
42.5227
 11
-58.1549
 21
42.7037
  0
LINE
  8
0
 10
-58.1549
 20
42.7037
 11
-59.5537
 21
43.0629
  0
LINE
  8
0
 10
-59.5537
 20
43.0629
 11
-60.8965
 21
43.5945
  0
LINE
  8
0
 10
-60.8965
 20
43.5945
 11
-62.162
 21
44.2902
  0
LINE
  8
0
 10
-62.162
 20
44.2902
 11
-63.3304
 21
45.1391
  0
LINE
  8
0
 10
-63.3304
 20
45.1391
 11
-64.3831
 21
46.1277
  0
LINE
  8
0
 10
-64.3831
 20
46.1277
 11
-65.3037
 21
47.2405
  0
LINE
  8
0
 10
-65.3037
 20
47.2405
 11
-66.0775
 21
48.4598
  0
LINE
  8
0
 10
-66.0775
 20
48.4598
 11
-66.6924
 21
49.7666
  0
LINE
  8
0
 10
-66.6924
 20
49.7666
 11
-67.1387
 21
51.1401
  0
LINE
  8
0
 10
-67.1387
 20
51.1401
 11
-67.4093
 21
52.5587
  0
LINE
  8
0
 10
-67.4093
 20
52.5587
 11
-67.5
 21
54
  0
LINE
  8
0
 10
-67.5
 20
54
 11
-67.4093
 21
55.4413
  0
LINE
  8
0
 10
-67.4093
 20
55.4413
 11
-67.1387
 21
56.8599
  0
LINE
  8
0
 10
-67.1387
 20
56.8599
 11
-66.6924
 21
58.2334
  0
LINE
  8
0
 10
-66.6924
 20
58.2334
 11
-66.0775
 21
59.5402
  0
LINE
  8
0
 10
-66.0775
 20
59.5402
 11
-65.3037
 21
60.7595
  0
LINE
  8
0
 10
-65.3037
 20
60.7595
 11
-64.3831
 21
61.8723
  0
LINE
  8
0
 10
-64.3831
 20
61.8723
 11
-63.3304
 21
62.8609
  0
LINE
  8
0
 10
-63.3304
 20
62.8609
 11
-62.162
 21
63.7098
  0
LINE
  8
0
 10
-62.162
 20
63.7098
 11
-60.8965
 21
64.4055
  0
LINE
  8
0
 10
-60.8965
 20
64.4055
 11
-59.5537
 21
64.9371
  0
LINE
  8
0
 10
-59.5537
 20
64.9371
 11
-58.1549
 21
65.2963
  0
LINE
  8
0
 10
-58.1549
 20
65.2963
 11
-56.7221
 21
65.4773
  0
LINE
  8
0
 10
-56.7221
 20
65.4773
 11
-55.2779
 21
65.4773
  0
LINE
  8
0
 10
-55.2779
 20
65.4773
 11
-53.8451
 21
65.2963
  0
LINE
  8
0
 10
-53.8451
 20
65.2963
 11
-52.4463
 21
64.9371
  0
LINE
  8
0
 10
-52.4463
 20
64.9371
 11
-51.1035
 21
64.4055
  0
LINE
  8
0
 10
-51.1035
 20
64.4055
 11
-49.838
 21
63.7098
  0
LINE
  8
0
 10
-49.838
 20
63.7098
 11
-48.6696
 21
62.8609
  0
LINE
  8
0
 10
-48.6696
 20
62.8609
 11
-47.6169
 21
61.8723
  0
LINE
  8
0
 10
-47.6169
 20
61.8723
 11
-46.6963
 21
60.7595
  0
LINE
  8
0
 10
-46.6963
 20
60.7595
 11
-45.9225
 21
59.5402
  0
LINE
  8
0
 10
-45.9225
 20
59.5402
 11
-45.3076
 21
58.2334
  0
LINE
  8
0
 10
-45.3076
 20
58.2334
 11
-44.8613
 21
56.8599
  0
LINE
  8
0
 10
-44.8613
 20
56.8599
 11
-44.5907
 21
55.4413
  0
LINE
  8
0
 10
-44.5907
 20
55.4413
 11
-44.5
 21
54
  0
LINE
  8
0
 10
-44.5
 20
54
 11
-44.5907
 21
52.5587
  0
LINE
  8
0
 10
-44.5907
 20
52.5587
 11
-44.8613
 21
51.1401
  0
LINE
  8
0
 10
-44.8613
 20
51.1401
 11
-45.3076
 21
49.7666
  0
LINE
  8
0
 10
-45.3076
 20
49.7666
 11
-45.9225
 21
48.4598
  0
LINE
  8
0
 10
-45.9225
 20
48.4598
 11
-46.6963
 21
47.2405
  0
LINE
  8
0
 10
-46.6963
 20
47.2405
 11
-47.6169
 21
46.1277
  0
LINE
  8
0
 10
-47.6169
 20
46.1277
 11
-48.6696
 21
45.1391
  0
LINE
  8
0
 10
-48.6696
 20
45.1391
 11
-49.838
 21
44.2902
  0
LINE
  8
0
 10
-49.838
 20
44.2902
 11
-51.1035
 21
43.5945
  0
LINE
  8
0
 10
-51.1035
 20
43.5945
 11
-52.4463
 21
43.0629
  0
LINE
  8
0
 10
-52.4463
 20
43.0629
 11
-53.8451
 21
42.7037
  0
LINE
  8
0
 10
-53.8451
 20
42.7037
 11
-55.2779
 21
42.5227
  0
LINE
  8
0
 10
-55.2779
 20
42.5227
 11
-56.7221
 21
42.5227
  0
LINE
  8
0
 10
55.2779
 20
42.5227
 11
53.8451
 21
42.7037
  0
LINE
  8
0
 10
53.8451
 20
42.7037
 11
52.4463
 21
43.0629
  0
LINE
  8
0
 10
52.4463
 20
43.0629
 11
51.1035
 21
43.5945
  0
LINE
  8
0
 10
51.1035
 20
43.5945
 11
49.838
 21
44.2902
  0
LINE
  8
0
 10
49.838
 20
44.2902
 11
48.6696
 21
45.1391
  0
LINE
  8
0
 10
48.6696
 20
45.1391
 11
47.6169
 21
46.1277
  0
LINE
  8
0
 10
47.6169
 20
46.1277
 11
46.6963
 21
47.2405
  0
LINE
  8
0
 10
46.6963
 20
47.2405
 11
45.9225
 21
48.4598
  0
LINE
  8
0
 10
45.9225
 20
48.4598
 11
45.3076
 21
49.7666
  0
LINE
  8
0
 10
45.3076
 20
49.7666
 11
44.8613
 21
51.1401
  0
LINE
  8
0
 10
44.8613
 20
51.1401
 11
44.5907
 21
52.5587
  0
LINE
  8
0
 10
44.5907
 20
52.5587
 11
44.5
 21
54
  0
LINE
  8
0
 10
44.5
 20
54
 11
44.5907
 21
55.4413
  0
LINE
  8
0
 10
44.5907
 20
55.4413
 11
44.8613
 21
56.8599
  0
LINE
  8
0
 10
44.8613
 20
56.8599
 11
45.3076
 21
58.2334
  0
LINE
  8
0
 10
45.3076
 20
58.2334
 11
45.9225
 21
59.5402
  0
LINE
  8
0
 10
45.9225
 20
59.5402
 11
46.6963
 21
60.7595
  0
LINE
  8
0
 10
46.6963
 20
60.7595
 11
47.6169
 21
61.8723
  0
LINE
  8
0
 10
47.6169
 20
61.8723
 11
48.6696
 21
62.8609
  0
LINE
  8
0
 10
48.6696
 20
62.8609
 11
49.838
 21
63.7098
  0
LINE
  8
0
 10
49.838
 20
63.7098
 11
51.1035
 21
64.4055
  0
LINE
  8
0
 10
51.1035
 20
64.4055
 11
52.4463
 21
64.9371
  0
LINE
  8
0
 10
52.4463
 20
64.9371
 11
53.8451
 21
65.2963
  0
LINE
  8
0
 10
53.8451
 20
65.2963
 11
55.2779
 21
65.4773
  0
LINE
  8
0
 10
55.2779
 20
65.4773
 11
56.7221
 21
65.4773
  0
LINE
  8
0
 10
56.7221
 20
65.4773
 11
58.1549
 21
65.2963
  0
LINE
  8
0
 10
58.1549
 20
65.2963
 11
59.5537
 21
64.9371
  0
LINE
  8
0
 10
59.5537
 20
64.9371
 11
60.8965
 21
64.4055
  0
LINE
  8
0
 10
60.8965
 20
64.4055
 11
62.162
 21
63.7098
  0
LINE
  8
0
 10
62.162
 20
63.7098
 11
63.3304
 21
62.8609
  0
LINE
  8
0
 10
63.3304
 20
62.8609
 11
64.3831
 21
61.8723
  0
LINE
  8
0
 10
64.3831
 20
61.8723
 11
65.3037
 21
60.7595
  0
LINE
  8
0
 10
65.3037
 20
60.7595
 11
66.0775
 21
59.5402
  0
LINE
  8
0
 10
66.0775
 20
59.5402
 11
66.6924
 21
58.2334
  0
LINE
  8
0
 10
66.6924
 20
58.2334
 11
67.1387
 21
56.8599
  0
LINE
  8
0
 10
67.1387
 20
56.8599
 11
67.4093
 21
55.4413
  0
LINE
  8
0
 10
67.4093
 20
55.4413
 11
67.5
 21
54
  0
LINE
  8
0
 10
67.5
 20
54
 11
67.4093
 21
52.5587
  0
LINE
  8
0
 10
67.4093
 20
52.5587
 11
67.1387
 21
51.1401
  0
LINE
  8
0
 10
67.1387
 20
51.1401
 11
66.6924
 21
49.7666
  0
LINE
  8
0
 10
66.6924
 20
49.7666
 11
66.0775
 21
48.4598
  0
LINE
  8
0
 10
66.0775
 20
48.4598
 11
65.3037
 21
47.2405
  0
LINE
  8
0
 10
65.3037
 20
47.2405
 11
64.3831
 21
46.1277
  0
LINE
  8
0
 10
64.3831
 20
46.1277
 11
63.3304
 21
45.1391
  0
LINE
  8
0
 10
63.3304
 20
45.1391
 11
62.162
 21
44.2902
  0
LINE
  8
0
 10
62.162
 20
44.2902
 11
60.8965
 21
43.5945
  0
LINE
  8
0
 10
60.8965
 20
43.5945
 11
59.5537
 21
43.0629
  0
LINE
  8
0
 10
59.5537
 20
43.0629
 11
58.1549
 21
42.7037
  0
LINE
  8
0
 10
58.1549
 20
42.7037
 11
56.7221
 21
42.5227
  0
LINE
  8
0
 10
56.7221
 20
42.5227
 11
55.2779
 21
42.5227
  0
LINE
  8
0
 10
-28.7221
 20
42.5227
 11
-30.1549
 21
42.7037
  0
LINE
  8
0
 10
-30.1549
 20
42.7037
 11
-31.5537
 21
43.0629
  0
LINE
  8
0
 10
-31.5537
 20
43.0629
 11
-32.8965
 21
43.5945
  0
LINE
  8
0
 10
-32.8965
 20
43.5945
 11
-34.162
 21
44.2902
  0
LINE
  8
0
 10
-34.162
 20
44.2902
 11
-35.3304
 21
45.1391
  0
LINE
  8
0
 10
-35.3304
 20
45.1391
 11
-36.3831
 21
46.1277
  0
LINE
  8
0
 10
-36.3831
 20
46.1277
 11
-37.3037
 21
47.2405
  0
LINE
  8
0
 10
-37.3037
 20
47.2405
 11
-38.0775
 21
48.4598
  0
LINE
  8
0
 10
-38.0775
 20
48.4598
 11
-38.6924
 21
49.7666
  0
LINE
  8
0
 10
-38.6924
 20
49.7666
 11
-39.1387
 21
51.1401
  0
LINE
  8
0
 10
-39.1387
 20
51.1401
 11
-39.4093
 21
52.5587
  0
LINE
  8
0
 10
-39.4093
 20
52.5587
 11
-39.5
 21
54
  0
LINE
  8
0
 10
-39.5
 20
54
 11
-39.4093
 21
55.4413
  0
LINE
  8
0
 10
-39.4093
 20
55.4413
 11
-39.1387
 21
56.8599
  0
LINE
  8
0
 10
-39.1387
 20
56.8599
 11
-38.6924
 21
58.2334
  0
LINE
  8
0
 10
-38.6924
 20
58.2334
 11
-38.0775
 21
59.5402
  0
LINE
  8
0
 10
-38.0775
 20
59.5402
 11
-37.3037
 21
60.7595
  0
LINE
  8
0
 10
-37.3037
 20
60.7595
 11
-36.3831
 21
61.8723
  0
LINE
  8
0
 10
-36.3831
 20
61.8723
 11
-35.3304
 21
62.8609
  0
LINE
  8
0
 10
-35.3304
 20
62.8609
 11
-34.162
 21
63.7098
  0
LINE
  8
0
 10
-34.162
 20
63.7098
 11
-32.8965
 21
64.4055
  0
LINE
  8
0
 10
-32.8965
 20
64.4055
 11
-31.5537
 21
64.9371
  0
LINE
  8
0
 10
-31.5537
 20
64.9371
 11
-30.1549
 21
65.2963
  0
LINE
  8
0
 10
-30.1549
 20
65.2963
 11
-28.7221
 21
65.4773
  0
LINE
  8
0
 10
-28.7221
 20
65.4773
 11
-27.2779
 21
65.4773
  0
LINE
  8
0
 10
-27.2779
 20
65.4773
 11
-25.8451
 21
65.2963
  0
LINE
  8
0
 10
-25.8451
 20
65.2963
 11
-24.4463
 21
64.9371
  0
LINE
  8
0
 10
-24.4463
 20
64.9371
 11
-23.1035
 21
64.4055
  0
LINE
  8
0
 10
-23.1035
 20
64.4055
 11
-21.838
 21
63.7098
  0
LINE
  8
0
 10
-21.838
 20
63.7098
 11
-20.6696
 21
62.8609
  0
LINE
  8
0
 10
-20.6696
 20
62.8609
 11
-19.6169
 21
61.8723
  0
LINE
  8
0
 10
-19.6169
 20
61.8723
 11
-18.6963
 21
60.7595
  0
LINE
  8
0
 10
-18.6963
 20
60.7595
 11
-17.9225
 21
59.5402
  0
LINE
  8
0
 10
-17.9225
 20
59.5402
 11
-17.3076
 21
58.2334
  0
LINE
  8
0
 10
-17.3076
 20
58.2334
 11
-16.8613
 21
56.8599
  0
LINE
  8
0
 10
-16.8613
 20
56.8599
 11
-16.5907
 21
55.4413
  0
LINE
  8
0
 10
-16.5907
 20
55.4413
 11
-16.5
 21
54
  0
LINE
  8
0
 10
-16.5
 20
54
 11
-16.5907
 21
52.5587
  0
LINE
  8
0
 10
-16.5907
 20
52.5587
 11
-16.8613
 21
51.1401
  0
LINE
  8
0
 10
-16.8613
 20
51.1401
 11
-17.3076
 21
49.7666
  0
LINE
  8
0
 10
-17.3076
 20
49.7666
 11
-17.9225
 21
48.4598
  0
LINE
  8
0
 10
-17.9225
 20
48.4598
 11
-18.6963
 21
47.2405
  0
LINE
  8
0
 10
-18.6963
 20
47.2405
 11
-19.6169
 21
46.1277
  0
LINE
  8
0
 10
-19.6169
 20
46.1277
 11
-20.6696
 21
45.1391
  0
LINE
  8
0
 10
-20.6696
 20
45.1391
 11
-21.838
 21
44.2902
  0
LINE
  8
0
 10
-21.838
 20
44.2902
 11
-23.1035
 21
43.5945
  0
LINE
  8
0
 10
-23.1035
 20
43.5945
 11
-24.4463
 21
43.0629
  0
LINE
  8
0
 10
-24.4463
 20
43.0629
 11
-25.8451
 21
42.7037
  0
LINE
  8
0
 10
-25.8451
 20
42.7037
 11
-27.2779
 21
42.5227
  0
LINE
  8
0
 10
-27.2779
 20
42.5227
 11
-28.7221
 21
42.5227
  0
LINE
  8
0
 10
-0.722076
 20
42.5227
 11
-2.15488
 21
42.7037
  0
LINE
  8
0
 10
-2.15488
 20
42.7037
 11
-3.55368
 21
43.0629
  0
LINE
  8
0
 10
-3.55368
 20
43.0629
 11
-4.89645
 21
43.5945
  0
LINE
  8
0
 10
-4.89645
 20
43.5945
 11
-6.162
 21
44.2902
  0
LINE
  8
0
 10
-6.162
 20
44.2902
 11
-7.33037
 21
45.1391
  0
LINE
  8
0
 10
-7.33037
 20
45.1391
 11
-8.38313
 21
46.1277
  0
LINE
  8
0
 10
-8.38313
 20
46.1277
 11
-9.30368
 21
47.2405
  0
LINE
  8
0
 10
-9.30368
 20
47.2405
 11
-10.0775
 21
48.4598
  0
LINE
  8
0
 10
-10.0775
 20
48.4598
 11
-10.6924
 21
49.7666
  0
LINE
  8
0
 10
-10.6924
 20
49.7666
 11
-11.1387
 21
51.1401
  0
LINE
  8
0
 10
-11.1387
 20
51.1401
 11
-11.4093
 21
52.5587
  0
LINE
  8
0
 10
-11.4093
 20
52.5587
 11
-11.5
 21
54
  0
LINE
  8
0
 10
-11.5
 20
54
 11
-11.4093
 21
55.4413
  0
LINE
  8
0
 10
-11.4093
 20
55.4413
 11
-11.1387
 21
56.8599
  0
LINE
  8
0
 10
-11.1387
 20
56.8599
 11
-10.6924
 21
58.2334
  0
LINE
  8
0
 10
-10.6924
 20
58.2334
 11
-10.0775
 21
59.5402
  0
LINE
  8
0
 10
-10.0775
 20
59.5402
 11
-9.30368
 21
60.7595
  0
LINE
  8
0
 10
-9.30368
 20
60.7595
 11
-8.38313
 21
61.8723
  0
LINE
  8
0
 10
-8.38313
 20
61.8723
 11
-7.33037
 21
62.8609
  0
LINE
  8
0
 10
-7.33037
 20
62.8609
 11
-6.162
 21
63.7098
  0
LINE
  8
0
 10
-6.162
 20
63.7098
 11
-4.89645
 21
64.4055
  0
LINE
  8
0
 10
-4.89645
 20
64.4055
 11
-3.55368
 21
64.9371
  0
LINE
  8
0
 10
-3.55368
 20
64.9371
 11
-2.15488
 21
65.2963
  0
LINE
  8
0
 10
-2.15488
 20
65.2963
 11
-0.722076
 21
65.4773
  0
LINE
  8
0
 10
-0.722076
 20
65.4773
 11
0.722076
 21
65.4773
  0
LINE
  8
0
 10
0.722076
 20
65.4773
 11
2.15488
 21
65.2963
  0
LINE
  8
0
 10
2.15488
 20
65.2963
 11
3.55368
 21
64.9371
  0
LINE
  8
0
 10
3.55368
 20
64.9371
 11
4.89645
 21
64.4055
  0
LINE
  8
0
 10
4.89645
 20
64.4055
 11
6.162
 21
63.7098
  0
LINE
  8
0
 10
6.162
 20
63.7098
 11
7.33037
 21
62.8609
  0
LINE
  8
0
 10
7.33037
 20
62.8609
 11
8.38313
 21
61.8723
  0
LINE
  8
0
 10
8.38313
 20
61.8723
 11
9.30368
 21
60.7595
  0
LINE
  8
0
 10
9.30368
 20
60.7595
 11
10.0775
 21
59.5402
  0
LINE
  8
0
 10
10.0775
 20
59.5402
 11
10.6924
 21
58.2334
  0
LINE
  8
0
 10
10.6924
 20
58.2334
 11
11.1387
 21
56.8599
  0
LINE
  8
0
 10
11.1387
 20
56.8599
 11
11.4093
 21
55.4413
  0
LINE
  8
0
 10
11.4093
 20
55.4413
 11
11.5
 21
54
  0
LINE
  8
0
 10
11.5
 20
54
 11
11.4093
 21
52.5587
  0
LINE
  8
0
 10
11.4093
 20
52.5587
 11
11.1387
 21
51.1401
  0
LINE
  8
0
 10
11.1387
 20
51.1401
 11
10.6924
 21
49.7666
  0
LINE
  8
0
 10
10.6924
 20
49.7666
 11
10.0775
 21
48.4598
  0
LINE
  8
0
 10
10.0775
 20
48.4598
 11
9.30368
 21
47.2405
  0
LINE
  8
0
 10
9.30368
 20
47.2405
 11
8.38313
 21
46.1277
  0
LINE
  8
0
 10
8.38313
 20
46.1277
 11
7.33037
 21
45.1391
  0
LINE
  8
0
 10
7.33037
 20
45.1391
 11
6.162
 21
44.2902
  0
LINE
  8
0
 10
6.162
 20
44.2902
 11
4.89645
 21
43.5945
  0
LINE
  8
0
 10
4.89645
 20
43.5945
 11
3.55368
 21
43.0629
  0
LINE
  8
0
 10
3.55368
 20
43.0629
 11
2.15488
 21
42.7037
  0
LINE
  8
0
 10
2.15488
 20
42.7037
 11
0.722076
 21
42.5227
  0
LINE
  8
0
 10
0.722076
 20
42.5227
 11
-0.722076
 21
42.5227
  0
LINE
  8
0
 10
74.9058
 20
60.0029
 11
74.7189
 21
60.0266
  0
LINE
  8
0
 10
74.7189
 20
60.0266
 11
74.5365
 21
60.0734
  0
LINE
  8
0
 10
74.5365
 20
60.0734
 11
74.3613
 21
60.1427
  0
LINE
  8
0
 10
74.3613
 20
60.1427
 11
74.1963
 21
60.2335
  0
LINE
  8
0
 10
74.1963
 20
60.2335
 11
74.0439
 21
60.3442
  0
LINE
  8
0
 10
74.0439
 20
60.3442
 11
73.9065
 21
60.4732
  0
LINE
  8
0
 10
73.9065
 20
60.4732
 11
73.7865
 21
60.6183
  0
LINE
  8
0
 10
73.7865
 20
60.6183
 11
73.6855
 21
60.7774
  0
LINE
  8
0
 10
73.6855
 20
60.7774
 11
73.6053
 21
60.9478
  0
LINE
  8
0
 10
73.6053
 20
60.9478
 11
73.5471
 21
61.127
  0
LINE
  8
0
 10
73.5471
 20
61.127
 11
73.5118
 21
61.312
  0
LINE
  8
0
 10
73.5118
 20
61.312
 11
73.5
 21
61.5
  0
LINE
  8
0
 10
73.5
 20
61.5
 11
73.5118
 21
61.688
  0
LINE
  8
0
 10
73.5118
 20
61.688
 11
73.5471
 21
61.873
  0
LINE
  8
0
 10
73.5471
 20
61.873
 11
73.6053
 21
62.0522
  0
LINE
  8
0
 10
73.6053
 20
62.0522
 11
73.6855
 21
62.2226
  0
LINE
  8
0
 10
73.6855
 20
62.2226
 11
73.7865
 21
62.3817
  0
LINE
  8
0
 10
73.7865
 20
62.3817
 11
73.9065
 21
62.5268
  0
LINE
  8
0
 10
73.9065
 20
62.5268
 11
74.0439
 21
62.6558
  0
LINE
  8
0
 10
74.0439
 20
62.6558
 11
74.1963
 21
62.7665
  0
LINE
  8
0
 10
74.1963
 20
62.7665
 11
74.3613
 21
62.8572
  0
LINE
  8
0
 10
74.3613
 20
62.8572
 11
74.5365
 21
62.9266
  0
LINE
  8
0
 10
74.5365
 20
62.9266
 11
74.7189
 21
62.9734
  0
LINE
  8
0
 10
74.7189
 20
62.9734
 11
74.9058
 21
62.997
  0
LINE
  8
0
 10
74.9058
 20
62.997
 11
75.0942
 21
62.997
  0
LINE
  8
0
 10
75.0942
 20
62.997
 11
75.2811
 21
62.9734
  0
LINE
  8
0
 10
75.2811
 20
62.9734
 11
75.4635
 21
62.9266
  0
LINE
  8
0
 10
75.4635
 20
62.9266
 11
75.6387
 21
62.8572
  0
LINE
  8
0
 10
75.6387
 20
62.8572
 11
75.8037
 21
62.7665
  0
LINE
  8
0
 10
75.8037
 20
62.7665
 11
75.9561
 21
62.6558
  0
LINE
  8
0
 10
75.9561
 20
62.6558
 11
76.0934
 21
62.5268
  0
LINE
  8
0
 10
76.0934
 20
62.5268
 11
76.2135
 21
62.3817
  0
LINE
  8
0
 10
76.2135
 20
62.3817
 11
76.3145
 21
62.2226
  0
LINE
  8
0
 10
76.3145
 20
62.2226
 11
76.3947
 21
62.0522
  0
LINE
  8
0
 10
76.3947
 20
62.0522
 11
76.4529
 21
61.873
  0
LINE
  8
0
 10
76.4529
 20
61.873
 11
76.4882
 21
61.688
  0
LINE
  8
0
 10
76.4882
 20
61.688
 11
76.5
 21
61.5
  0
LINE
  8
0
 10
76.5
 20
61.5
 11
76.4882
 21
61.312
  0
LINE
  8
0
 10
76.4882
 20
61.312
 11
76.4529
 21
61.127
  0
LINE
  8
0
 10
76.4529
 20
61.127
 11
76.3947
 21
60.9478
  0
LINE
  8
0
 10
76.3947
 20
60.9478
 11
76.3145
 21
60.7774
  0
LINE
  8
0
 10
76.3145
 20
60.7774
 11
76.2135
 21
60.6183
  0
LINE
  8
0
 10
76.2135
 20
60.6183
 11
76.0934
 21
60.4732
  0
LINE
  8
0
 10
76.0934
 20
60.4732
 11
75.9561
 21
60.3442
  0
LINE
  8
0
 10
75.9561
 20
60.3442
 11
75.8037
 21
60.2335
  0
LINE
  8
0
 10
75.8037
 20
60.2335
 11
75.6387
 21
60.1427
  0
LINE
  8
0
 10
75.6387
 20
60.1427
 11
75.4635
 21
60.0734
  0
LINE
  8
0
 10
75.4635
 20
60.0734
 11
75.2811
 21
60.0266
  0
LINE
  8
0
 10
75.2811
 20
60.0266
 11
75.0942
 21
60.0029
  0
LINE
  8
0
 10
75.0942
 20
60.0029
 11
74.9058
 21
60.0029
  0
LINE
  8
0
 10
-75.0942
 20
60.0029
 11
-75.2811
 21
60.0266
  0
LINE
  8
0
 10
-75.2811
 20
60.0266
 11
-75.4635
 21
60.0734
  0
LINE
  8
0
 10
-75.4635
 20
60.0734
 11
-75.6387
 21
60.1427
  0
LINE
  8
0
 10
-75.6387
 20
60.1427
 11
-75.8037
 21
60.2335
  0
LINE
  8
0
 10
-75.8037
 20
60.2335
 11
-75.9561
 21
60.3442
  0
LINE
  8
0
 10
-75.9561
 20
60.3442
 11
-76.0934
 21
60.4732
  0
LINE
  8
0
 10
-76.0934
 20
60.4732
 11
-76.2135
 21
60.6183
  0
LINE
  8
0
 10
-76.2135
 20
60.6183
 11
-76.3145
 21
60.7774
  0
LINE
  8
0
 10
-76.3145
 20
60.7774
 11
-76.3947
 21
60.9478
  0
LINE
  8
0
 10
-76.3947
 20
60.9478
 11
-76.4529
 21
61.127
  0
LINE
  8
0
 10
-76.4529
 20
61.127
 11
-76.4882
 21
61.312
  0
LINE
  8
0
 10
-76.4882
 20
61.312
 11
-76.5
 21
61.5
  0
LINE
  8
0
 10
-76.5
 20
61.5
 11
-76.4882
 21
61.688
  0
LINE
  8
0
 10
-76.4882
 20
61.688
 11
-76.4529
 21
61.873
  0
LINE
  8
0
 10
-76.4529
 20
61.873
 11
-76.3947
 21
62.0522
  0
LINE
  8
0
 10
-76.3947
 20
62.0522
 11
-76.3145
 21
62.2226
  0
LINE
  8
0
 10
-76.3145
 20
62.2226
 11
-76.2135
 21
62.3817
  0
LINE
  8
0
 10
-76.2135
 20
62.3817
 11
-76.0934
 21
62.5268
  0
LINE
  8
0
 10
-76.0934
 20
62.5268
 11
-75.9561
 21
62.6558
  0
LINE
  8
0
 10
-75.9561
 20
62.6558
 11
-75.8037
 21
62.7665
  0
LINE
  8
0
 10
-75.8037
 20
62.7665
 11
-75.6387
 21
62.8572
  0
LINE
  8
0
 10
-75.6387
 20
62.8572
 11
-75.4635
 21
62.9266
  0
LINE
  8
0
 10
-75.4635
 20
62.9266
 11
-75.2811
 21
62.9734
  0
LINE
  8
0
 10
-75.2811
 20
62.9734
 11
-75.0942
 21
62.997
  0
LINE
  8
0
 10
-75.0942
 20
62.997
 11
-74.9058
 21
62.997
  0
LINE
  8
0
 10
-74.9058
 20
62.997
 11
-74.7189
 21
62.9734
  0
LINE
  8
0
 10
-74.7189
 20
62.9734
 11
-74.5365
 21
62.9266
  0
LINE
  8
0
 10
-74.5365
 20
62.9266
 11
-74.3613
 21
62.8572
  0
LINE
  8
0
 10
-74.3613
 20
62.8572
 11
-74.1963
 21
62.7665
  0
LINE
  8
0
 10
-74.1963
 20
62.7665
 11
-74.0439
 21
62.6558
  0
LINE
  8
0
 10
-74.0439
 20
62.6558
 11
-73.9065
 21
62.5268
  0
LINE
  8
0
 10
-73.9065
 20
62.5268
 11
-73.7865
 21
62.3817
  0
LINE
  8
0
 10
-73.7865
 20
62.3817
 11
-73.6855
 21
62.2226
  0
LINE
  8
0
 10
-73.6855
 20
62.2226
 11
-73.6053
 21
62.0522
  0
LINE
  8
0
 10
-73.6053
 20
62.0522
 11
-73.5471
 21
61.873
  0
LINE
  8
0
 10
-73.5471
 20
61.873
 11
-73.5118
 21
61.688
  0
LINE
  8
0
 10
-73.5118
 20
61.688
 11
-73.5
 21
61.5
  0
LINE
  8
0
 10
-73.5
 20
61.5
 11
-73.5118
 21
61.312
  0
LINE
  8
0
 10
-73.5118
 20
61.312
 11
-73.5471
 21
61.127
  0
LINE
  8
0
 10
-73.5471
 20
61.127
 11
-73.6053
 21
60.9478
  0
LINE
  8
0
 10
-73.6053
 20
60.9478
 11
-73.6855
 21
60.7774
  0
LINE
  8
0
 10
-73.6855
 20
60.7774
 11
-73.7865
 21
60.6183
  0
LINE
  8
0
 10
-73.7865
 20
60.6183
 11
-73.9065
 21
60.4732
  0
LINE
  8
0
 10
-73.9065
 20
60.4732
 11
-74.0439
 21
60.3442
  0
LINE
  8
0
 10
-74.0439
 20
60.3442
 11
-74.1963
 21
60.2335
  0
LINE
  8
0
 10
-74.1963
 20
60.2335
 11
-74.3613
 21
60.1427
  0
LINE
  8
0
 10
-74.3613
 20
60.1427
 11
-74.5365
 21
60.0734
  0
LINE
  8
0
 10
-74.5365
 20
60.0734
 11
-74.7189
 21
60.0266
  0
LINE
  8
0
 10
-74.7189
 20
60.0266
 11
-74.9058
 21
60.0029
  0
LINE
  8
0
 10
-74.9058
 20
60.0029
 11
-75.0942
 21
60.0029
  0
LINE
  8
0
 10
-75.1884
 20
51.0059
 11
-75.5621
 21
51.0531
  0
LINE
  8
0
 10
-75.5621
 20
51.0531
 11
-75.927
 21
51.1468
  0
LINE
  8
0
 10
-75.927
 20
51.1468
 11
-76.2773
 21
51.2855
  0
LINE
  8
0
 10
-76.2773
 20
51.2855
 11
-76.6075
 21
51.467
  0
LINE
  8
0
 10
-76.6075
 20
51.467
 11
-76.9123
 21
51.6885
  0
LINE
  8
0
 10
-76.9123
 20
51.6885
 11
-77.1869
 21
51.9464
  0
LINE
  8
0
 10
-77.1869
 20
51.9464
 11
-77.427
 21
52.2366
  0
LINE
  8
0
 10
-77.427
 20
52.2366
 11
-77.6289
 21
52.5547
  0
LINE
  8
0
 10
-77.6289
 20
52.5547
 11
-77.7893
 21
52.8956
  0
LINE
  8
0
 10
-77.7893
 20
52.8956
 11
-77.9057
 21
53.2539
  0
LINE
  8
0
 10
-77.9057
 20
53.2539
 11
-77.9763
 21
53.624
  0
LINE
  8
0
 10
-77.9763
 20
53.624
 11
-78
 21
54
  0
LINE
  8
0
 10
-78
 20
54
 11
-77.9763
 21
54.376
  0
LINE
  8
0
 10
-77.9763
 20
54.376
 11
-77.9057
 21
54.7461
  0
LINE
  8
0
 10
-77.9057
 20
54.7461
 11
-77.7893
 21
55.1044
  0
LINE
  8
0
 10
-77.7893
 20
55.1044
 11
-77.6289
 21
55.4453
  0
LINE
  8
0
 10
-77.6289
 20
55.4453
 11
-77.427
 21
55.7634
  0
LINE
  8
0
 10
-77.427
 20
55.7634
 11
-77.1869
 21
56.0536
  0
LINE
  8
0
 10
-77.1869
 20
56.0536
 11
-76.9123
 21
56.3115
  0
LINE
  8
0
 10
-76.9123
 20
56.3115
 11
-76.6075
 21
56.533
  0
LINE
  8
0
 10
-76.6075
 20
56.533
 11
-76.2773
 21
56.7145
  0
LINE
  8
0
 10
-76.2773
 20
56.7145
 11
-75.927
 21
56.8532
  0
LINE
  8
0
 10
-75.927
 20
56.8532
 11
-75.5621
 21
56.9469
  0
LINE
  8
0
 10
-75.5621
 20
56.9469
 11
-75.1884
 21
56.9941
  0
LINE
  8
0
 10
-75.1884
 20
56.9941
 11
-74.8116
 21
56.9941
  0
LINE
  8
0
 10
-74.8116
 20
56.9941
 11
-74.4379
 21
56.9469
  0
LINE
  8
0
 10
-74.4379
 20
56.9469
 11
-74.073
 21
56.8532
  0
LINE
  8
0
 10
-74.073
 20
56.8532
 11
-73.7227
 21
56.7145
  0
LINE
  8
0
 10
-73.7227
 20
56.7145
 11
-73.3925
 21
56.533
  0
LINE
  8
0
 10
-73.3925
 20
56.533
 11
-73.0877
 21
56.3115
  0
LINE
  8
0
 10
-73.0877
 20
56.3115
 11
-72.8131
 21
56.0536
  0
LINE
  8
0
 10
-72.8131
 20
56.0536
 11
-72.573
 21
55.7634
  0
LINE
  8
0
 10
-72.573
 20
55.7634
 11
-72.3711
 21
55.4453
  0
LINE
  8
0
 10
-72.3711
 20
55.4453
 11
-72.2107
 21
55.1044
  0
LINE
  8
0
 10
-72.2107
 20
55.1044
 11
-72.0943
 21
54.7461
  0
LINE
  8
0
 10
-72.0943
 20
54.7461
 11
-72.0237
 21
54.376
  0
LINE
  8
0
 10
-72.0237
 20
54.376
 11
-72
 21
54
  0
LINE
  8
0
 10
-72
 20
54
 11
-72.0237
 21
53.624
  0
LINE
  8
0
 10
-72.0237
 20
53.624
 11
-72.0943
 21
53.2539
  0
LINE
  8
0
 10
-72.0943
 20
53.2539
 11
-72.2107
 21
52.8956
  0
LINE
  8
0
 10
-72.2107
 20
52.8956
 11
-72.3711
 21
52.5547
  0
LINE
  8
0
 10
-72.3711
 20
52.5547
 11
-72.573
 21
52.2366
  0
LINE
  8
0
 10
-72.573
 20
52.2366
 11
-72.8131
 21
51.9464
  0
LINE
  8
0
 10
-72.8131
 20
51.9464
 11
-73.0877
 21
51.6885
  0
LINE
  8
0
 10
-73.0877
 20
51.6885
 11
-73.3925
 21
51.467
  0
LINE
  8
0
 10
-73.3925
 20
51.467
 11
-73.7227
 21
51.2855
  0
LINE
  8
0
 10
-73.7227
 20
51.2855
 11
-74.073
 21
51.1468
  0
LINE
  8
0
 10
-74.073
 20
51.1468
 11
-74.4379
 21
51.0531
  0
LINE
  8
0
 10
-74.4379
 20
51.0531
 11
-74.8116
 21
51.0059
  0
LINE
  8
0
 10
-74.8116
 20
51.0059
 11
-75.1884
 21
51.0059
  0
LINE
  8
0
 10
74.8116
 20
51.0059
 11
74.4379
 21
51.0531
  0
LINE
  8
0
 10
74.4379
 20
51.0531
 11
74.073
 21
51.1468
  0
LINE
  8
0
 10
74.073
 20
51.1468
 11
73.7227
 21
51.2855
  0
LINE
  8
0
 10
73.7227
 20
51.2855
 11
73.3925
 21
51.467
  0
LINE
  8
0
 10
73.3925
 20
51.467
 11
73.0877
 21
51.6885
  0
LINE
  8
0
 10
73.0877
 20
51.6885
 11
72.8131
 21
51.9464
  0
LINE
  8
0
 10
72.8131
 20
51.9464
 11
72.573
 21
52.2366
  0
LINE
  8
0
 10
72.573
 20
52.2366
 11
72.3711
 21
52.5547
  0
LINE
  8
0
 10
72.3711
 20
52.5547
 11
72.2107
 21
52.8956
  0
LINE
  8
0
 10
72.2107
 20
52.8956
 11
72.0943
 21
53.2539
  0
LINE
  8
0
 10
72.0943
 20
53.2539
 11
72.0237
 21
53.624
  0
LINE
  8
0
 10
72.0237
 20
53.624
 11
72
 21
54
  0
LINE
  8
0
 10
72
 20
54
 11
72.0237
 21
54.376
  0
LINE
  8
0
 10
72.0237
 20
54.376
 11
72.0943
 21
54.7461
  0
LINE
  8
0
 10
72.0943
 20
54.7461
 11
72.2107
 21
55.1044
  0
LINE
  8
0
 10
72.2107
 20
55.1044
 11
72.3711
 21
55.4453
  0
LINE
  8
0
 10
72.3711
 20
55.4453
 11
72.573
 21
55.7634
  0
LINE
  8
0
 10
72.573
 20
55.7634
 11
72.8131
 21
56.0536
  0
LINE
  8
0
 10
72.8131
 20
56.0536
 11
73.0877
 21
56.3115
  0
LINE
  8
0
 10
73.0877
 20
56.3115
 11
73.3925
 21
56.533
  0
LINE
  8
0
 10
73.3925
 20
56.533
 11
73.7227
 21
56.7145
  0
LINE
  8
0
 10
73.7227
 20
56.7145
 11
74.073
 21
56.8532
  0
LINE
  8
0
 10
74.073
 20
56.8532
 11
74.4379
 21
56.9469
  0
LINE
  8
0
 10
74.4379
 20
56.9469
 11
74.8116
 21
56.9941
  0
LINE
  8
0
 10
74.8116
 20
56.9941
 11
75.1884
 21
56.9941
  0
LINE
  8
0
 10
75.1884
 20
56.9941
 11
75.5621
 21
56.9469
  0
LINE
  8
0
 10
75.5621
 20
56.9469
 11
75.927
 21
56.8532
  0
LINE
  8
0
 10
75.927
 20
56.8532
 11
76.2773
 21
56.7145
  0
LINE
  8
0
 10
76.2773
 20
56.7145
 11
76.6075
 21
56.533
  0
LINE
  8
0
 10
76.6075
 20
56.533
 11
76.9123
 21
56.3115
  0
LINE
  8
0
 10
76.9123
 20
56.3115
 11
77.1869
 21
56.0536
  0
LINE
  8
0
 10
77.1869
 20
56.0536
 11
77.427
 21
55.7634
  0
LINE
  8
0
 10
77.427
 20
55.7634
 11
77.6289
 21
55.4453
  0
LINE
  8
0
 10
77.6289
 20
55.4453
 11
77.7893
 21
55.1044
  0
LINE
  8
0
 10
77.7893
 20
55.1044
 11
77.9057
 21
54.7461
  0
LINE
  8
0
 10
77.9057
 20
54.7461
 11
77.9763
 21
54.376
  0
LINE
  8
0
 10
77.9763
 20
54.376
 11
78
 21
54
  0
LINE
  8
0
 10
78
 20
54
 11
77.9763
 21
53.624
  0
LINE
  8
0
 10
77.9763
 20
53.624
 11
77.9057
 21
53.2539
  0
LINE
  8
0
 10
77.9057
 20
53.2539
 11
77.7893
 21
52.8956
  0
LINE
  8
0
 10
77.7893
 20
52.8956
 11
77.6289
 21
52.5547
  0
LINE
  8
0
 10
77.6289
 20
52.5547
 11
77.427
 21
52.2366
  0
LINE
  8
0
 10
77.427
 20
52.2366
 11
77.1869
 21
51.9464
  0
LINE
  8
0
 10
77.1869
 20
51.9464
 11
76.9123
 21
51.6885
  0
LINE
  8
0
 10
76.9123
 20
51.6885
 11
76.6075
 21
51.467
  0
LINE
  8
0
 10
76.6075
 20
51.467
 11
76.2773
 21
51.2855
  0
LINE
  8
0
 10
76.2773
 20
51.2855
 11
75.927
 21
51.1468
  0
LINE
  8
0
 10
75.927
 20
51.1468
 11
75.5621
 21
51.0531
  0
LINE
  8
0
 10
75.5621
 20
51.0531
 11
75.1884
 21
51.0059
  0
LINE
  8
0
 10
75.1884
 20
51.0059
 11
74.8116
 21
51.0059
  0
LINE
  8
0
 10
-75.0942
 20
45.003
 11
-75.2811
 21
45.0266
  0
LINE
  8
0
 10
-75.2811
 20
45.0266
 11
-75.4635
 21
45.0734
  0
LINE
  8
0
 10
-75.4635
 20
45.0734
 11
-75.6387
 21
45.1428
  0
LINE
  8
0
 10
-75.6387
 20
45.1428
 11
-75.8037
 21
45.2335
  0
LINE
  8
0
 10
-75.8037
 20
45.2335
 11
-75.9561
 21
45.3442
  0
LINE
  8
0
 10
-75.9561
 20
45.3442
 11
-76.0934
 21
45.4732
  0
LINE
  8
0
 10
-76.0934
 20
45.4732
 11
-76.2135
 21
45.6183
  0
LINE
  8
0
 10
-76.2135
 20
45.6183
 11
-76.3145
 21
45.7774
  0
LINE
  8
0
 10
-76.3145
 20
45.7774
 11
-76.3947
 21
45.9478
  0
LINE
  8
0
 10
-76.3947
 20
45.9478
 11
-76.4529
 21
46.127
  0
LINE
  8
0
 10
-76.4529
 20
46.127
 11
-76.4882
 21
46.312
  0
LINE
  8
0
 10
-76.4882
 20
46.312
 11
-76.5
 21
46.5
  0
LINE
  8
0
 10
-76.5
 20
46.5
 11
-76.4882
 21
46.688
  0
LINE
  8
0
 10
-76.4882
 20
46.688
 11
-76.4529
 21
46.873
  0
LINE
  8
0
 10
-76.4529
 20
46.873
 11
-76.3947
 21
47.0522
  0
LINE
  8
0
 10
-76.3947
 20
47.0522
 11
-76.3145
 21
47.2226
  0
LINE
  8
0
 10
-76.3145
 20
47.2226
 11
-76.2135
 21
47.3817
  0
LINE
  8
0
 10
-76.2135
 20
47.3817
 11
-76.0934
 21
47.5268
  0
LINE
  8
0
 10
-76.0934
 20
47.5268
 11
-75.9561
 21
47.6558
  0
LINE
  8
0
 10
-75.9561
 20
47.6558
 11
-75.8037
 21
47.7665
  0
LINE
  8
0
 10
-75.8037
 20
47.7665
 11
-75.6387
 21
47.8573
  0
LINE
  8
0
 10
-75.6387
 20
47.8573
 11
-75.4635
 21
47.9266
  0
LINE
  8
0
 10
-75.4635
 20
47.9266
 11
-75.2811
 21
47.9734
  0
LINE
  8
0
 10
-75.2811
 20
47.9734
 11
-75.0942
 21
47.9971
  0
LINE
  8
0
 10
-75.0942
 20
47.9971
 11
-74.9058
 21
47.9971
  0
LINE
  8
0
 10
-74.9058
 20
47.9971
 11
-74.7189
 21
47.9734
  0
LINE
  8
0
 10
-74.7189
 20
47.9734
 11
-74.5365
 21
47.9266
  0
LINE
  8
0
 10
-74.5365
 20
47.9266
 11
-74.3613
 21
47.8573
  0
LINE
  8
0
 10
-74.3613
 20
47.8573
 11
-74.1963
 21
47.7665
  0
LINE
  8
0
 10
-74.1963
 20
47.7665
 11
-74.0439
 21
47.6558
  0
LINE
  8
0
 10
-74.0439
 20
47.6558
 11
-73.9065
 21
47.5268
  0
LINE
  8
0
 10
-73.9065
 20
47.5268
 11
-73.7865
 21
47.3817
  0
LINE
  8
0
 10
-73.7865
 20
47.3817
 11
-73.6855
 21
47.2226
  0
LINE
  8
0
 10
-73.6855
 20
47.2226
 11
-73.6053
 21
47.0522
  0
LINE
  8
0
 10
-73.6053
 20
47.0522
 11
-73.5471
 21
46.873
  0
LINE
  8
0
 10
-73.5471
 20
46.873
 11
-73.5118
 21
46.688
  0
LINE
  8
0
 10
-73.5118
 20
46.688
 11
-73.5
 21
46.5
  0
LINE
  8
0
 10
-73.5
 20
46.5
 11
-73.5118
 21
46.312
  0
LINE
  8
0
 10
-73.5118
 20
46.312
 11
-73.5471
 21
46.127
  0
LINE
  8
0
 10
-73.5471
 20
46.127
 11
-73.6053
 21
45.9478
  0
LINE
  8
0
 10
-73.6053
 20
45.9478
 11
-73.6855
 21
45.7774
  0
LINE
  8
0
 10
-73.6855
 20
45.7774
 11
-73.7865
 21
45.6183
  0
LINE
  8
0
 10
-73.7865
 20
45.6183
 11
-73.9065
 21
45.4732
  0
LINE
  8
0
 10
-73.9065
 20
45.4732
 11
-74.0439
 21
45.3442
  0
LINE
  8
0
 10
-74.0439
 20
45.3442
 11
-74.1963
 21
45.2335
  0
LINE
  8
0
 10
-74.1963
 20
45.2335
 11
-74.3613
 21
45.1428
  0
LINE
  8
0
 10
-74.3613
 20
45.1428
 11
-74.5365
 21
45.0734
  0
LINE
  8
0
 10
-74.5365
 20
45.0734
 11
-74.7189
 21
45.0266
  0
LINE
  8
0
 10
-74.7189
 20
45.0266
 11
-74.9058
 21
45.003
  0
LINE
  8
0
 10
-74.9058
 20
45.003
 11
-75.0942
 21
45.003
  0
LINE
  8
0
 10
74.9058
 20
45.003
 11
74.7189
 21
45.0266
  0
LINE
  8
0
 10
74.7189
 20
45.0266
 11
74.5365
 21
45.0734
  0
LINE
  8
0
 10
74.5365
 20
45.0734
 11
74.3613
 21
45.1428
  0
LINE
  8
0
 10
74.3613
 20
45.1428
 11
74.1963
 21
45.2335
  0
LINE
  8
0
 10
74.1963
 20
45.2335
 11
74.0439
 21
45.3442
  0
LINE
  8
0
 10
74.0439
 20
45.3442
 11
73.9065
 21
45.4732
  0
LINE
  8
0
 10
73.9065
 20
45.4732
 11
73.7865
 21
45.6183
  0
LINE
  8
0
 10
73.7865
 20
45.6183
 11
73.6855
 21
45.7774
  0
LINE
  8
0
 10
73.6855
 20
45.7774
 11
73.6053
 21
45.9478
  0
LINE
  8
0
 10
73.6053
 20
45.9478
 11
73.5471
 21
46.127
  0
LINE
  8
0
 10
73.5471
 20
46.127
 11
73.5118
 21
46.312
  0
LINE
  8
0
 10
73.5118
 20
46.312
 11
73.5
 21
46.5
  0
LINE
  8
0
 10
73.5
 20
46.5
 11
73.5118
 21
46.688
  0
LINE
  8
0
 10
73.5118
 20
46.688
 11
73.5471
 21
46.873
  0
LINE
  8
0
 10
73.5471
 20
46.873
 11
73.6053
 21
47.0522
  0
LINE
  8
0
 10
73.6053
 20
47.0522
 11
73.6855
 21
47.2226
  0
LINE
  8
0
 10
73.6855
 20
47.2226
 11
73.7865
 21
47.3817
  0
LINE
  8
0
 10
73.7865
 20
47.3817
 11
73.9065
 21
47.5268
  0
LINE
  8
0
 10
73.9065
 20
47.5268
 11
74.0439
 21
47.6558
  0
LINE
  8
0
 10
74.0439
 20
47.6558
 11
74.1963
 21
47.7665
  0
LINE
  8
0
 10
74.1963
 20
47.7665
 11
74.3613
 21
47.8573
  0
LINE
  8
0
 10
74.3613
 20
47.8573
 11
74.5365
 21
47.9266
  0
LINE
  8
0
 10
74.5365
 20
47.9266
 11
74.7189
 21
47.9734
  0
LINE
  8
0
 10
74.7189
 20
47.9734
 11
74.9058
 21
47.9971
  0
LINE
  8
0
 10
74.9058
 20
47.9971
 11
75.0942
 21
47.9971
  0
LINE
  8
0
 10
75.0942
 20
47.9971
 11
75.2811
 21
47.9734
  0
LINE
  8
0
 10
75.2811
 20
47.9734
 11
75.4635
 21
47.9266
  0
LINE
  8
0
 10
75.4635
 20
47.9266
 11
75.6387
 21
47.8573
  0
LINE
  8
0
 10
75.6387
 20
47.8573
 11
75.8037
 21
47.7665
  0
LINE
  8
0
 10
75.8037
 20
47.7665
 11
75.9561
 21
47.6558
  0
LINE
  8
0
 10
75.9561
 20
47.6558
 11
76.0934
 21
47.5268
  0
LINE
  8
0
 10
76.0934
 20
47.5268
 11
76.2135
 21
47.3817
  0
LINE
  8
0
 10
76.2135
 20
47.3817
 11
76.3145
 21
47.2226
  0
LINE
  8
0
 10
76.3145
 20
47.2226
 11
76.3947
 21
47.0522
  0
LINE
  8
0
 10
76.3947
 20
47.0522
 11
76.4529
 21
46.873
  0
LINE
  8
0
 10
76.4529
 20
46.873
 11
76.4882
 21
46.688
  0
LINE
  8
0
 10
76.4882
 20
46.688
 11
76.5
 21
46.5
  0
LINE
  8
0
 10
76.5
 20
46.5
 11
76.4882
 21
46.312
  0
LINE
  8
0
 10
76.4882
 20
46.312
 11
76.4529
 21
46.127
  0
LINE
  8
0
 10
76.4529
 20
46.127
 11
76.3947
 21
45.9478
  0
LINE
  8
0
 10
76.3947
 20
45.9478
 11
76.3145
 21
45.7774
  0
LINE
  8
0
 10
76.3145
 20
45.7774
 11
76.2135
 21
45.6183
  0
LINE
  8
0
 10
76.2135
 20
45.6183
 11
76.0934
 21
45.4732
  0
LINE
  8
0
 10
76.0934
 20
45.4732
 11
75.9561
 21
45.3442
  0
LINE
  8
0
 10
75.9561
 20
45.3442
 11
75.8037
 21
45.2335
  0
LINE
  8
0
 10
75.8037
 20
45.2335
 11
75.6387
 21
45.1428
  0
LINE
  8
0
 10
75.6387
 20
45.1428
 11
75.4635
 21
45.0734
  0
LINE
  8
0
 10
75.4635
 20
45.0734
 11
75.2811
 21
45.0266
  0
LINE
  8
0
 10
75.2811
 20
45.0266
 11
75.0942
 21
45.003
  0
LINE
  8
0
 10
75.0942
 20
45.003
 11
74.9058
 21
45.003
  0
LINE
  8
0
 10
-75.1884
 20
36.0059
 11
-75.5621
 21
36.0531
  0
LINE
  8
0
 10
-75.5621
 20
36.0531
 11
-75.927
 21
36.1468
  0
LINE
  8
0
 10
-75.927
 20
36.1468
 11
-76.2773
 21
36.2855
  0
LINE
  8
0
 10
-76.2773
 20
36.2855
 11
-76.6075
 21
36.467
  0
LINE
  8
0
 10
-76.6075
 20
36.467
 11
-76.9123
 21
36.6885
  0
LINE
  8
0
 10
-76.9123
 20
36.6885
 11
-77.1869
 21
36.9464
  0
LINE
  8
0
 10
-77.1869
 20
36.9464
 11
-77.427
 21
37.2366
  0
LINE
  8
0
 10
-77.427
 20
37.2366
 11
-77.6289
 21
37.5547
  0
LINE
  8
0
 10
-77.6289
 20
37.5547
 11
-77.7893
 21
37.8956
  0
LINE
  8
0
 10
-77.7893
 20
37.8956
 11
-77.9057
 21
38.2539
  0
LINE
  8
0
 10
-77.9057
 20
38.2539
 11
-77.9763
 21
38.624
  0
LINE
  8
0
 10
-77.9763
 20
38.624
 11
-78
 21
39
  0
LINE
  8
0
 10
-78
 20
39
 11
-77.9763
 21
39.376
  0
LINE
  8
0
 10
-77.9763
 20
39.376
 11
-77.9057
 21
39.7461
  0
LINE
  8
0
 10
-77.9057
 20
39.7461
 11
-77.7893
 21
40.1044
  0
LINE
  8
0
 10
-77.7893
 20
40.1044
 11
-77.6289
 21
40.4453
  0
LINE
  8
0
 10
-77.6289
 20
40.4453
 11
-77.427
 21
40.7634
  0
LINE
  8
0
 10
-77.427
 20
40.7634
 11
-77.1869
 21
41.0536
  0
LINE
  8
0
 10
-77.1869
 20
41.0536
 11
-76.9123
 21
41.3116
  0
LINE
  8
0
 10
-76.9123
 20
41.3116
 11
-76.6075
 21
41.533
  0
LINE
  8
0
 10
-76.6075
 20
41.533
 11
-76.2773
 21
41.7145
  0
LINE
  8
0
 10
-76.2773
 20
41.7145
 11
-75.927
 21
41.8532
  0
LINE
  8
0
 10
-75.927
 20
41.8532
 11
-75.5621
 21
41.9469
  0
LINE
  8
0
 10
-75.5621
 20
41.9469
 11
-75.1884
 21
41.9941
  0
LINE
  8
0
 10
-75.1884
 20
41.9941
 11
-74.8116
 21
41.9941
  0
LINE
  8
0
 10
-74.8116
 20
41.9941
 11
-74.4379
 21
41.9469
  0
LINE
  8
0
 10
-74.4379
 20
41.9469
 11
-74.073
 21
41.8532
  0
LINE
  8
0
 10
-74.073
 20
41.8532
 11
-73.7227
 21
41.7145
  0
LINE
  8
0
 10
-73.7227
 20
41.7145
 11
-73.3925
 21
41.533
  0
LINE
  8
0
 10
-73.3925
 20
41.533
 11
-73.0877
 21
41.3116
  0
LINE
  8
0
 10
-73.0877
 20
41.3116
 11
-72.8131
 21
41.0536
  0
LINE
  8
0
 10
-72.8131
 20
41.0536
 11
-72.573
 21
40.7634
  0
LINE
  8
0
 10
-72.573
 20
40.7634
 11
-72.3711
 21
40.4453
  0
LINE
  8
0
 10
-72.3711
 20
40.4453
 11
-72.2107
 21
40.1044
  0
LINE
  8
0
 10
-72.2107
 20
40.1044
 11
-72.0943
 21
39.7461
  0
LINE
  8
0
 10
-72.0943
 20
39.7461
 11
-72.0237
 21
39.376
  0
LINE
  8
0
 10
-72.0237
 20
39.376
 11
-72
 21
39
  0
LINE
  8
0
 10
-72
 20
39
 11
-72.0237
 21
38.624
  0
LINE
  8
0
 10
-72.0237
 20
38.624
 11
-72.0943
 21
38.2539
  0
LINE
  8
0
 10
-72.0943
 20
38.2539
 11
-72.2107
 21
37.8956
  0
LINE
  8
0
 10
-72.2107
 20
37.8956
 11
-72.3711
 21
37.5547
  0
LINE
  8
0
 10
-72.3711
 20
37.5547
 11
-72.573
 21
37.2366
  0
LINE
  8
0
 10
-72.573
 20
37.2366
 11
-72.8131
 21
36.9464
  0
LINE
  8
0
 10
-72.8131
 20
36.9464
 11
-73.0877
 21
36.6885
  0
LINE
  8
0
 10
-73.0877
 20
36.6885
 11
-73.3925
 21
36.467
  0
LINE
  8
0
 10
-73.3925
 20
36.467
 11
-73.7227
 21
36.2855
  0
LINE
  8
0
 10
-73.7227
 20
36.2855
 11
-74.073
 21
36.1468
  0
LINE
  8
0
 10
-74.073
 20
36.1468
 11
-74.4379
 21
36.0531
  0
LINE
  8
0
 10
-74.4379
 20
36.0531
 11
-74.8116
 21
36.0059
  0
LINE
  8
0
 10
-74.8116
 20
36.0059
 11
-75.1884
 21
36.0059
  0
LINE
  8
0
 10
74.8116
 20
36.0059
 11
74.4379
 21
36.0531
  0
LINE
  8
0
 10
74.4379
 20
36.0531
 11
74.073
 21
36.1468
  0
LINE
  8
0
 10
74.073
 20
36.1468
 11
73.7227
 21
36.2855
  0
LINE
  8
0
 10
73.7227
 20
36.2855
 11
73.3925
 21
36.467
  0
LINE
  8
0
 10
73.3925
 20
36.467
 11
73.0877
 21
36.6885
  0
LINE
  8
0
 10
73.0877
 20
36.6885
 11
72.8131
 21
36.9464
  0
LINE
  8
0
 10
72.8131
 20
36.9464
 11
72.573
 21
37.2366
  0
LINE
  8
0
 10
72.573
 20
37.2366
 11
72.3711
 21
37.5547
  0
LINE
  8
0
 10
72.3711
 20
37.5547
 11
72.2107
 21
37.8956
  0
LINE
  8
0
 10
72.2107
 20
37.8956
 11
72.0943
 21
38.2539
  0
LINE
  8
0
 10
72.0943
 20
38.2539
 11
72.0237
 21
38.624
  0
LINE
  8
0
 10
72.0237
 20
38.624
 11
72
 21
39
  0
LINE
  8
0
 10
72
 20
39
 11
72.0237
 21
39.376
  0
LINE
  8
0
 10
72.0237
 20
39.376
 11
72.0943
 21
39.7461
  0
LINE
  8
0
 10
72.0943
 20
39.7461
 11
72.2107
 21
40.1044
  0
LINE
  8
0
 10
72.2107
 20
40.1044
 11
72.3711
 21
40.4453
  0
LINE
  8
0
 10
72.3711
 20
40.4453
 11
72.573
 21
40.7634
  0
LINE
  8
0
 10
72.573
 20
40.7634
 11
72.8131
 21
41.0536
  0
LINE
  8
0
 10
72.8131
 20
41.0536
 11
73.0877
 21
41.3116
  0
LINE
  8
0
 10
73.0877
 20
41.3116
 11
73.3925
 21
41.533
  0
LINE
  8
0
 10
73.3925
 20
41.533
 11
73.7227
 21
41.7145
  0
LINE
  8
0
 10
73.7227
 20
41.7145
 11
74.073
 21
41.8532
  0
LINE
  8
0
 10
74.073
 20
41.8532
 11
74.4379
 21
41.9469
  0
LINE
  8
0
 10
74.4379
 20
41.9469
 11
74.8116
 21
41.9941
  0
LINE
  8
0
 10
74.8116
 20
41.9941
 11
75.1884
 21
41.9941
  0
LINE
  8
0
 10
75.1884
 20
41.9941
 11
75.5621
 21
41.9469
  0
LINE
  8
0
 10
75.5621
 20
41.9469
 11
75.927
 21
41.8532
  0
LINE
  8
0
 10
75.927
 20
41.8532
 11
76.2773
 21
41.7145
  0
LINE
  8
0
 10
76.2773
 20
41.7145
 11
76.6075
 21
41.533
  0
LINE
  8
0
 10
76.6075
 20
41.533
 11
76.9123
 21
41.3116
  0
LINE
  8
0
 10
76.9123
 20
41.3116
 11
77.1869
 21
41.0536
  0
LINE
  8
0
 10
77.1869
 20
41.0536
 11
77.427
 21
40.7634
  0
LINE
  8
0
 10
77.427
 20
40.7634
 11
77.6289
 21
40.4453
  0
LINE
  8
0
 10
77.6289
 20
40.4453
 11
77.7893
 21
40.1044
  0
LINE
  8
0
 10
77.7893
 20
40.1044
 11
77.9057
 21
39.7461
  0
LINE
  8
0
 10
77.9057
 20
39.7461
 11
77.9763
 21
39.376
  0
LINE
  8
0
 10
77.9763
 20
39.376
 11
78
 21
39
  0
LINE
  8
0
 10
78
 20
39
 11
77.9763
 21
38.624
  0
LINE
  8
0
 10
77.9763
 20
38.624
 11
77.9057
 21
38.2539
  0
LINE
  8
0
 10
77.9057
 20
38.2539
 11
77.7893
 21
37.8956
  0
LINE
  8
0
 10
77.7893
 20
37.8956
 11
77.6289
 21
37.5547
  0
LINE
  8
0
 10
77.6289
 20
37.5547
 11
77.427
 21
37.2366
  0
LINE
  8
0
 10
77.427
 20
37.2366
 11
77.1869
 21
36.9464
  0
LINE
  8
0
 10
77.1869
 20
36.9464
 11
76.9123
 21
36.6885
  0
LINE
  8
0
 10
76.9123
 20
36.6885
 11
76.6075
 21
36.467
  0
LINE
  8
0
 10
76.6075
 20
36.467
 11
76.2773
 21
36.2855
  0
LINE
  8
0
 10
76.2773
 20
36.2855
 11
75.927
 21
36.1468
  0
LINE
  8
0
 10
75.927
 20
36.1468
 11
75.5621
 21
36.0531
  0
LINE
  8
0
 10
75.5621
 20
36.0531
 11
75.1884
 21
36.0059
  0
LINE
  8
0
 10
75.1884
 20
36.0059
 11
74.8116
 21
36.0059
  0
ENDSEC
  0
SECTION
  2
OBJECTS
  0
DICTIONARY
  0
ENDSEC
  0
EOF
