<?xml version="1.0" standalone="no"?>
<!DOCTYPE svg PUBLIC "-//W3C//DTD SVG 1.1//EN" "http://www.w3.org/Graphics/SVG/1.1/DTD/svg11.dtd">
<svg width="224mm" height="134mm" viewBox="-112 -67 224 134" xmlns="http://www.w3.org/2000/svg" version="1.1">
<title>OpenSCAD Model</title>
<path d="
M 107.937,66.9114 L 108.545,66.7553 L 109.129,66.5241 L 109.679,66.2216 L 110.187,65.8526 L 110.645,65.4227
 L 111.045,64.9389 L 111.382,64.4088 L 111.649,63.8406 L 111.843,63.2434 L 111.961,62.6267 L 112,62
 L 112,-62 L 111.961,-62.6267 L 111.843,-63.2434 L 111.649,-63.8406 L 111.382,-64.4088 L 111.045,-64.9389
 L 110.645,-65.4227 L 110.187,-65.8526 L 109.679,-66.2216 L 109.129,-66.5241 L 108.545,-66.7553 L 107.937,-66.9114
 L 107.314,-66.9901 L -107.314,-66.9901 L -107.937,-66.9114 L -108.545,-66.7553 L -109.129,-66.5241 L -109.679,-66.2216
 L -110.187,-65.8526 L -110.645,-65.4227 L -111.045,-64.9389 L -111.382,-64.4088 L -111.649,-63.8406 L -111.843,-63.2434
 L -111.961,-62.6267 L -112,-62 L -112,62 L -111.961,62.6267 L -111.843,63.2434 L -111.649,63.8406
 L -111.382,64.4088 L -111.045,64.9389 L -110.645,65.4227 L -110.187,65.8526 L -109.679,66.2216 L -109.129,66.5241
 L -108.545,66.7553 L -107.937,66.9114 L -107.314,66.9901 L 107.314,66.9901 z
M 104.812,-57.0059 L 104.438,-57.0531 L 104.073,-57.1468 L 103.723,-57.2855 L 103.393,-57.467 L 103.088,-57.6885
 L 102.813,-57.9464 L 102.573,-58.2366 L 102.371,-58.5547 L 102.211,-58.8956 L 102.094,-59.2539 L 102.024,-59.624
 L 102,-60 L 102.024,-60.376 L 102.094,-60.7461 L 102.211,-61.1044 L 102.371,-61.4453 L 102.573,-61.7634
 L 102.813,-62.0536 L 103.088,-62.3115 L 103.393,-62.533 L 103.723,-62.7145 L 104.073,-62.8532 L 104.438,-62.9469
 L 104.812,-62.9941 L 105.188,-62.9941 L 105.562,-62.9469 L 105.927,-62.8532 L 106.277,-62.7145 L 106.607,-62.533
 L 106.912,-62.3115 L 107.187,-62.0536 L 107.427,-61.7634 L 107.629,-61.4453 L 107.789,-61.1044 L 107.906,-60.7461
 L 107.976,-60.376 L 108,-60 L 107.976,-59.624 L 107.906,-59.2539 L 107.789,-58.8956 L 107.629,-58.5547
 L 107.427,-58.2366 L 107.187,-57.9464 L 106.912,-57.6885 L 106.607,-57.467 L 106.277,-57.2855 L 105.927,-57.1468
 L 105.562,-57.0531 L 105.188,-57.0059 z
M 44.8116,-57.0059 L 44.4379,-57.0531 L 44.0729,-57.1468 L 43.7227,-57.2855 L 43.3925,-57.467 L 43.0877,-57.6885
 L 42.8131,-57.9464 L 42.5729,-58.2366 L 42.3711,-58.5547 L 42.2107,-58.8956 L 42.0942,-59.2539 L 42.0237,-59.624
 L 42,-60 L 42.0237,-60.376 L 42.0942,-60.7461 L 42.2107,-61.1044 L 42.3711,-61.4453 L 42.5729,-61.7634
 L 42.8131,-62.0536 L 43.0877,-62.3115 L 43.3925,-62.533 L 43.7227,-62.7145 L 44.0729,-62.8532 L 44.4379,-62.9469
 L 44.8116,-62.9941 L 45.1884,-62.9941 L 45.5621,-62.9469 L 45.927,-62.8532 L 46.2773,-62.7145 L 46.6075,-62.533
 L 46.9123,-62.3115 L 47.1869,-62.0536 L 47.427,-61.7634 L 47.6289,-61.4453 L 47.7893,-61.1044 L 47.9057,-60.7461
 L 47.9763,-60.376 L 48,-60 L 47.9763,-59.624 L 47.9057,-59.2539 L 47.7893,-58.8956 L 47.6289,-58.5547
 L 47.427,-58.2366 L 47.1869,-57.9464 L 46.9123,-57.6885 L 46.6075,-57.467 L 46.2773,-57.2855 L 45.927,-57.1468
 L 45.5621,-57.0531 L 45.1884,-57.0059 z
M -15.1884,-57.0059 L -15.5621,-57.0531 L -15.927,-57.1468 L -16.2773,-57.2855 L -16.6075,-57.467 L -16.9123,-57.6885
 L -17.1869,-57.9464 L -17.427,-58.2366 L -17.6289,-58.5547 L -17.7893,-58.8956 L -17.9057,-59.2539 L -17.9763,-59.624
 L -18,-60 L -17.9763,-60.376 L -17.9057,-60.7461 L -17.7893,-61.1044 L -17.6289,-61.4453 L -17.427,-61.7634
 L -17.1869,-62.0536 L -16.9123,-62.3115 L -16.6075,-62.533 L -16.2773,-62.7145 L -15.927,-62.8532 L -15.5621,-62.9469
 L -15.1884,-62.9941 L -14.8116,-62.9941 L -14.4379,-62.9469 L -14.0729,-62.8532 L -13.7227,-62.7145 L -13.3925,-62.533
 L -13.0877,-62.3115 L -12.8131,-62.0536 L -12.5729,-61.7634 L -12.3711,-61.4453 L -12.2107,-61.1044 L -12.0942,-60.7461
 L -12.0237,-60.376 L -12,-60 L -12.0237,-59.624 L -12.0942,-59.2539 L -12.2107,-58.8956 L -12.3711,-58.5547
 L -12.5729,-58.2366 L -12.8131,-57.9464 L -13.0877,-57.6885 L -13.3925,-57.467 L -13.7227,-57.2855 L -14.0729,-57.1468
 L -14.4379,-57.0531 L -14.8116,-57.0059 z
M 74.8116,-57.0059 L 74.4379,-57.0531 L 74.073,-57.1468 L 73.7227,-57.2855 L 73.3925,-57.467 L 73.0877,-57.6885
 L 72.8131,-57.9464 L 72.573,-58.2366 L 72.3711,-58.5547 L 72.2107,-58.8956 L 72.0943,-59.2539 L 72.0237,-59.624
 L 72,-60 L 72.0237,-60.376 L 72.0943,-60.7461 L 72.2107,-61.1044 L 72.3711,-61.4453 L 72.573,-61.7634
 L 72.8131,-62.0536 L 73.0877,-62.3115 L 73.3925,-62.533 L 73.7227,-62.7145 L 74.073,-62.8532 L 74.4379,-62.9469
 L 74.8116,-62.9941 L 75.1884,-62.9941 L 75.5621,-62.9469 L 75.927,-62.8532 L 76.2773,-62.7145 L 76.6075,-62.533
 L 76.9123,-62.3115 L 77.1869,-62.0536 L 77.427,-61.7634 L 77.6289,-61.4453 L 77.7893,-61.1044 L 77.9057,-60.7461
 L 77.9763,-60.376 L 78,-60 L 77.9763,-59.624 L 77.9057,-59.2539 L 77.7893,-58.8956 L 77.6289,-58.5547
 L 77.427,-58.2366 L 77.1869,-57.9464 L 76.9123,-57.6885 L 76.6075,-57.467 L 76.2773,-57.2855 L 75.927,-57.1468
 L 75.5621,-57.0531 L 75.1884,-57.0059 z
M 59.8116,-57.0059 L 59.4379,-57.0531 L 59.0729,-57.1468 L 58.7227,-57.2855 L 58.3925,-57.467 L 58.0877,-57.6885
 L 57.8131,-57.9464 L 57.5729,-58.2366 L 57.3711,-58.5547 L 57.2107,-58.8956 L 57.0942,-59.2539 L 57.0237,-59.624
 L 57,-60 L 57.0237,-60.376 L 57.0942,-60.7461 L 57.2107,-61.1044 L 57.3711,-61.4453 L 57.5729,-61.7634
 L 57.8131,-62.0536 L 58.0877,-62.3115 L 58.3925,-62.533 L 58.7227,-62.7145 L 59.0729,-62.8532 L 59.4379,-62.9469
 L 59.8116,-62.9941 L 60.1884,-62.9941 L 60.5621,-62.9469 L 60.927,-62.8532 L 61.2773,-62.7145 L 61.6075,-62.533
 L 61.9123,-62.3115 L 62.1869,-62.0536 L 62.427,-61.7634 L 62.6289,-61.4453 L 62.7893,-61.1044 L 62.9057,-60.7461
 L 62.9763,-60.376 L 63,-60 L 62.9763,-59.624 L 62.9057,-59.2539 L 62.7893,-58.8956 L 62.6289,-58.5547
 L 62.427,-58.2366 L 62.1869,-57.9464 L 61.9123,-57.6885 L 61.6075,-57.467 L 61.2773,-57.2855 L 60.927,-57.1468
 L 60.5621,-57.0531 L 60.1884,-57.0059 z
M 89.8116,-57.0059 L 89.4379,-57.0531 L 89.073,-57.1468 L 88.7227,-57.2855 L 88.3925,-57.467 L 88.0877,-57.6885
 L 87.8131,-57.9464 L 87.573,-58.2366 L 87.3711,-58.5547 L 87.2107,-58.8956 L 87.0943,-59.2539 L 87.0237,-59.624
 L 87,-60 L 87.0237,-60.376 L 87.0943,-60.7461 L 87.2107,-61.1044 L 87.3711,-61.4453 L 87.573,-61.7634
 L 87.8131,-62.0536 L 88.0877,-62.3115 L 88.3925,-62.533 L 88.7227,-62.7145 L 89.073,-62.8532 L 89.4379,-62.9469
 L 89.8116,-62.9941 L 90.1884,-62.9941 L 90.5621,-62.9469 L 90.927,-62.8532 L 91.2773,-62.7145 L 91.6075,-62.533
 L 91.9123,-62.3115 L 92.1869,-62.0536 L 92.427,-61.7634 L 92.6289,-61.4453 L 92.7893,-61.1044 L 92.9057,-60.7461
 L 92.9763,-60.376 L 93,-60 L 92.9763,-59.624 L 92.9057,-59.2539 L 92.7893,-58.8956 L 92.6289,-58.5547
 L 92.427,-58.2366 L 92.1869,-57.9464 L 91.9123,-57.6885 L 91.6075,-57.467 L 91.2773,-57.2855 L 90.927,-57.1468
 L 90.5621,-57.0531 L 90.1884,-57.0059 z
M -60.1884,-57.0059 L -60.5621,-57.0531 L -60.927,-57.1468 L -61.2773,-57.2855 L -61.6075,-57.467 L -61.9123,-57.6885
 L -62.1869,-57.9464 L -62.427,-58.2366 L -62.6289,-58.5547 L -62.7893,-58.8956 L -62.9057,-59.2539 L -62.9763,-59.624
 L -63,-60 L -62.9763,-60.376 L -62.9057,-60.7461 L -62.7893,-61.1044 L -62.6289,-61.4453 L -62.427,-61.7634
 L -62.1869,-62.0536 L -61.9123,-62.3115 L -61.6075,-62.533 L -61.2773,-62.7145 L -60.927,-62.8532 L -60.5621,-62.9469
 L -60.1884,-62.9941 L -59.8116,-62.9941 L -59.4379,-62.9469 L -59.0729,-62.8532 L -58.7227,-62.7145 L -58.3925,-62.533
 L -58.0877,-62.3115 L -57.8131,-62.0536 L -57.5729,-61.7634 L -57.3711,-61.4453 L -57.2107,-61.1044 L -57.0942,-60.7461
 L -57.0237,-60.376 L -57,-60 L -57.0237,-59.624 L -57.0942,-59.2539 L -57.2107,-58.8956 L -57.3711,-58.5547
 L -57.5729,-58.2366 L -57.8131,-57.9464 L -58.0877,-57.6885 L -58.3925,-57.467 L -58.7227,-57.2855 L -59.0729,-57.1468
 L -59.4379,-57.0531 L -59.8116,-57.0059 z
M -0.18837,-57.0059 L -0.562134,-57.0531 L -0.927048,-57.1468 L -1.27733,-57.2855 L -1.60747,-57.467 L -1.91226,-57.6885
 L -2.1869,-57.9464 L -2.42705,-58.2366 L -2.62891,-58.5547 L -2.78932,-58.8956 L -2.90575,-59.2539 L -2.97633,-59.624
 L -3,-60 L -2.97633,-60.376 L -2.90575,-60.7461 L -2.78932,-61.1044 L -2.62891,-61.4453 L -2.42705,-61.7634
 L -2.1869,-62.0536 L -1.91226,-62.3115 L -1.60747,-62.533 L -1.27733,-62.7145 L -0.927048,-62.8532 L -0.562134,-62.9469
 L -0.18837,-62.9941 L 0.18837,-62.9941 L 0.562134,-62.9469 L 0.927048,-62.8532 L 1.27733,-62.7145 L 1.60747,-62.533
 L 1.91226,-62.3115 L 2.1869,-62.0536 L 2.42705,-61.7634 L 2.62891,-61.4453 L 2.78932,-61.1044 L 2.90575,-60.7461
 L 2.97633,-60.376 L 3,-60 L 2.97633,-59.624 L 2.90575,-59.2539 L 2.78932,-58.8956 L 2.62891,-58.5547
 L 2.42705,-58.2366 L 2.1869,-57.9464 L 1.91226,-57.6885 L 1.60747,-57.467 L 1.27733,-57.2855 L 0.927048,-57.1468
 L 0.562134,-57.0531 L 0.18837,-57.0059 z
M -75.1884,-57.0059 L -75.5621,-57.0531 L -75.927,-57.1468 L -76.2773,-57.2855 L -76.6075,-57.467 L -76.9123,-57.6885
 L -77.1869,-57.9464 L -77.427,-58.2366 L -77.6289,-58.5547 L -77.7893,-58.8956 L -77.9057,-59.2539 L -77.9763,-59.624
 L -78,-60 L -77.9763,-60.376 L -77.9057,-60.7461 L -77.7893,-61.1044 L -77.6289,-61.4453 L -77.427,-61.7634
 L -77.1869,-62.0536 L -76.9123,-62.3115 L -76.6075,-62.533 L -76.2773,-62.7145 L -75.927,-62.8532 L -75.5621,-62.9469
 L -75.1884,-62.9941 L -74.8116,-62.9941 L -74.4379,-62.9469 L -74.073,-62.8532 L -73.7227,-62.7145 L -73.3925,-62.533
 L -73.0877,-62.3115 L -72.8131,-62.0536 L -72.573,-61.7634 L -72.3711,-61.4453 L -72.2107,-61.1044 L -72.0943,-60.7461
 L -72.0237,-60.376 L -72,-60 L -72.0237,-59.624 L -72.0943,-59.2539 L -72.2107,-58.8956 L -72.3711,-58.5547
 L -72.573,-58.2366 L -72.8131,-57.9464 L -73.0877,-57.6885 L -73.3925,-57.467 L -73.7227,-57.2855 L -74.073,-57.1468
 L -74.4379,-57.0531 L -74.8116,-57.0059 z
M 29.8116,-57.0059 L 29.4379,-57.0531 L 29.0729,-57.1468 L 28.7227,-57.2855 L 28.3925,-57.467 L 28.0877,-57.6885
 L 27.8131,-57.9464 L 27.5729,-58.2366 L 27.3711,-58.5547 L 27.2107,-58.8956 L 27.0942,-59.2539 L 27.0237,-59.624
 L 27,-60 L 27.0237,-60.376 L 27.0942,-60.7461 L 27.2107,-61.1044 L 27.3711,-61.4453 L 27.5729,-61.7634
 L 27.8131,-62.0536 L 28.0877,-62.3115 L 28.3925,-62.533 L 28.7227,-62.7145 L 29.0729,-62.8532 L 29.4379,-62.9469
 L 29.8116,-62.9941 L 30.1884,-62.9941 L 30.5621,-62.9469 L 30.927,-62.8532 L 31.2773,-62.7145 L 31.6075,-62.533
 L 31.9123,-62.3115 L 32.1869,-62.0536 L 32.427,-61.7634 L 32.6289,-61.4453 L 32.7893,-61.1044 L 32.9057,-60.7461
 L 32.9763,-60.376 L 33,-60 L 32.9763,-59.624 L 32.9057,-59.2539 L 32.7893,-58.8956 L 32.6289,-58.5547
 L 32.427,-58.2366 L 32.1869,-57.9464 L 31.9123,-57.6885 L 31.6075,-57.467 L 31.2773,-57.2855 L 30.927,-57.1468
 L 30.5621,-57.0531 L 30.1884,-57.0059 z
M -45.1884,-57.0059 L -45.5621,-57.0531 L -45.927,-57.1468 L -46.2773,-57.2855 L -46.6075,-57.467 L -46.9123,-57.6885
 L -47.1869,-57.9464 L -47.427,-58.2366 L -47.6289,-58.5547 L -47.7893,-58.8956 L -47.9057,-59.2539 L -47.9763,-59.624
 L -48,-60 L -47.9763,-60.376 L -47.9057,-60.7461 L -47.7893,-61.1044 L -47.6289,-61.4453 L -47.427,-61.7634
 L -47.1869,-62.0536 L -46.9123,-62.3115 L -46.6075,-62.533 L -46.2773,-62.7145 L -45.927,-62.8532 L -45.5621,-62.9469
 L -45.1884,-62.9941 L -44.8116,-62.9941 L -44.4379,-62.9469 L -44.0729,-62.8532 L -43.7227,-62.7145 L -43.3925,-62.533
 L -43.0877,-62.3115 L -42.8131,-62.0536 L -42.5729,-61.7634 L -42.3711,-61.4453 L -42.2107,-61.1044 L -42.0942,-60.7461
 L -42.0237,-60.376 L -42,-60 L -42.0237,-59.624 L -42.0942,-59.2539 L -42.2107,-58.8956 L -42.3711,-58.5547
 L -42.5729,-58.2366 L -42.8131,-57.9464 L -43.0877,-57.6885 L -43.3925,-57.467 L -43.7227,-57.2855 L -44.0729,-57.1468
 L -44.4379,-57.0531 L -44.8116,-57.0059 z
M -30.1884,-57.0059 L -30.5621,-57.0531 L -30.927,-57.1468 L -31.2773,-57.2855 L -31.6075,-57.467 L -31.9123,-57.6885
 L -32.1869,-57.9464 L -32.427,-58.2366 L -32.6289,-58.5547 L -32.7893,-58.8956 L -32.9057,-59.2539 L -32.9763,-59.624
 L -33,-60 L -32.9763,-60.376 L -32.9057,-60.7461 L -32.7893,-61.1044 L -32.6289,-61.4453 L -32.427,-61.7634
 L -32.1869,-62.0536 L -31.9123,-62.3115 L -31.6075,-62.533 L -31.2773,-62.7145 L -30.927,-62.8532 L -30.5621,-62.9469
 L -30.1884,-62.9941 L -29.8116,-62.9941 L -29.4379,-62.9469 L -29.0729,-62.8532 L -28.7227,-62.7145 L -28.3925,-62.533
 L -28.0877,-62.3115 L -27.8131,-62.0536 L -27.5729,-61.7634 L -27.3711,-61.4453 L -27.2107,-61.1044 L -27.0942,-60.7461
 L -27.0237,-60.376 L -27,-60 L -27.0237,-59.624 L -27.0942,-59.2539 L -27.2107,-58.8956 L -27.3711,-58.5547
 L -27.5729,-58.2366 L -27.8131,-57.9464 L -28.0877,-57.6885 L -28.3925,-57.467 L -28.7227,-57.2855 L -29.0729,-57.1468
 L -29.4379,-57.0531 L -29.8116,-57.0059 z
M -90.1884,-57.0059 L -90.5621,-57.0531 L -90.927,-57.1468 L -91.2773,-57.2855 L -91.6075,-57.467 L -91.9123,-57.6885
 L -92.1869,-57.9464 L -92.427,-58.2366 L -92.6289,-58.5547 L -92.7893,-58.8956 L -92.9057,-59.2539 L -92.9763,-59.624
 L -93,-60 L -92.9763,-60.376 L -92.9057,-60.7461 L -92.7893,-61.1044 L -92.6289,-61.4453 L -92.427,-61.7634
 L -92.1869,-62.0536 L -91.9123,-62.3115 L -91.6075,-62.533 L -91.2773,-62.7145 L -90.927,-62.8532 L -90.5621,-62.9469
 L -90.1884,-62.9941 L -89.8116,-62.9941 L -89.4379,-62.9469 L -89.073,-62.8532 L -88.7227,-62.7145 L -88.3925,-62.533
 L -88.0877,-62.3115 L -87.8131,-62.0536 L -87.573,-61.7634 L -87.3711,-61.4453 L -87.2107,-61.1044 L -87.0943,-60.7461
 L -87.0237,-60.376 L -87,-60 L -87.0237,-59.624 L -87.0943,-59.2539 L -87.2107,-58.8956 L -87.3711,-58.5547
 L -87.573,-58.2366 L -87.8131,-57.9464 L -88.0877,-57.6885 L -88.3925,-57.467 L -88.7227,-57.2855 L -89.073,-57.1468
 L -89.4379,-57.0531 L -89.8116,-57.0059 z
M 14.8116,-57.0059 L 14.4379,-57.0531 L 14.0729,-57.1468 L 13.7227,-57.2855 L 13.3925,-57.467 L 13.0877,-57.6885
 L 12.8131,-57.9464 L 12.5729,-58.2366 L 12.3711,-58.5547 L 12.2107,-58.8956 L 12.0942,-59.2539 L 12.0237,-59.624
 L 12,-60 L 12.0237,-60.376 L 12.0942,-60.7461 L 12.2107,-61.1044 L 12.3711,-61.4453 L 12.5729,-61.7634
 L 12.8131,-62.0536 L 13.0877,-62.3115 L 13.3925,-62.533 L 13.7227,-62.7145 L 14.0729,-62.8532 L 14.4379,-62.9469
 L 14.8116,-62.9941 L 15.1884,-62.9941 L 15.5621,-62.9469 L 15.927,-62.8532 L 16.2773,-62.7145 L 16.6075,-62.533
 L 16.9123,-62.3115 L 17.1869,-62.0536 L 17.427,-61.7634 L 17.6289,-61.4453 L 17.7893,-61.1044 L 17.9057,-60.7461
 L 17.9763,-60.376 L 18,-60 L 17.9763,-59.624 L 17.9057,-59.2539 L 17.7893,-58.8956 L 17.6289,-58.5547
 L 17.427,-58.2366 L 17.1869,-57.9464 L 16.9123,-57.6885 L 16.6075,-57.467 L 16.2773,-57.2855 L 15.927,-57.1468
 L 15.5621,-57.0531 L 15.1884,-57.0059 z
M -105.188,-57.0059 L -105.562,-57.0531 L -105.927,-57.1468 L -106.277,-57.2855 L -106.607,-57.467 L -106.912,-57.6885
 L -107.187,-57.9464 L -107.427,-58.2366 L -107.629,-58.5547 L -107.789,-58.8956 L -107.906,-59.2539 L -107.976,-59.624
 L -108,-60 L -107.976,-60.376 L -107.906,-60.7461 L -107.789,-61.1044 L -107.629,-61.4453 L -107.427,-61.7634
 L -107.187,-62.0536 L -106.912,-62.3115 L -106.607,-62.533 L -106.277,-62.7145 L -105.927,-62.8532 L -105.562,-62.9469
 L -105.188,-62.9941 L -104.812,-62.9941 L -104.438,-62.9469 L -104.073,-62.8532 L -103.723,-62.7145 L -103.393,-62.533
 L -103.088,-62.3115 L -102.813,-62.0536 L -102.573,-61.7634 L -102.371,-61.4453 L -102.211,-61.1044 L -102.094,-60.7461
 L -102.024,-60.376 L -102,-60 L -102.024,-59.624 L -102.094,-59.2539 L -102.211,-58.8956 L -102.371,-58.5547
 L -102.573,-58.2366 L -102.813,-57.9464 L -103.088,-57.6885 L -103.393,-57.467 L -103.723,-57.2855 L -104.073,-57.1468
 L -104.438,-57.0531 L -104.812,-57.0059 z
M -97.5942,-58.503 L -97.7811,-58.5266 L -97.9635,-58.5734 L -98.1387,-58.6428 L -98.3037,-58.7335 L -98.4561,-58.8442
 L -98.5934,-58.9732 L -98.7135,-59.1183 L -98.8145,-59.2774 L -98.8947,-59.4478 L -98.9529,-59.627 L -98.9882,-59.812
 L -99,-60 L -98.9882,-60.188 L -98.9529,-60.373 L -98.8947,-60.5522 L -98.8145,-60.7226 L -98.7135,-60.8817
 L -98.5934,-61.0268 L -98.4561,-61.1558 L -98.3037,-61.2665 L -98.1387,-61.3572 L -97.9635,-61.4266 L -97.7811,-61.4734
 L -97.5942,-61.497 L -97.4058,-61.497 L -97.2189,-61.4734 L -97.0365,-61.4266 L -96.8613,-61.3572 L -96.6963,-61.2665
 L -96.5439,-61.1558 L -96.4065,-61.0268 L -96.2865,-60.8817 L -96.1855,-60.7226 L -96.1053,-60.5522 L -96.0471,-60.373
 L -96.0118,-60.188 L -96,-60 L -96.0118,-59.812 L -96.0471,-59.627 L -96.1053,-59.4478 L -96.1855,-59.2774
 L -96.2865,-59.1183 L -96.4065,-58.9732 L -96.5439,-58.8442 L -96.6963,-58.7335 L -96.8613,-58.6428 L -97.0365,-58.5734
 L -97.2189,-58.5266 L -97.4058,-58.503 z
M -37.5942,-58.503 L -37.7811,-58.5266 L -37.9635,-58.5734 L -38.1387,-58.6428 L -38.3037,-58.7335 L -38.4561,-58.8442
 L -38.5934,-58.9732 L -38.7135,-59.1183 L -38.8145,-59.2774 L -38.8947,-59.4478 L -38.9529,-59.627 L -38.9882,-59.812
 L -39,-60 L -38.9882,-60.188 L -38.9529,-60.373 L -38.8947,-60.5522 L -38.8145,-60.7226 L -38.7135,-60.8817
 L -38.5934,-61.0268 L -38.4561,-61.1558 L -38.3037,-61.2665 L -38.1387,-61.3572 L -37.9635,-61.4266 L -37.7811,-61.4734
 L -37.5942,-61.497 L -37.4058,-61.497 L -37.2189,-61.4734 L -37.0365,-61.4266 L -36.8613,-61.3572 L -36.6963,-61.2665
 L -36.5439,-61.1558 L -36.4065,-61.0268 L -36.2865,-60.8817 L -36.1855,-60.7226 L -36.1053,-60.5522 L -36.0471,-60.373
 L -36.0118,-60.188 L -36,-60 L -36.0118,-59.812 L -36.0471,-59.627 L -36.1053,-59.4478 L -36.1855,-59.2774
 L -36.2865,-59.1183 L -36.4065,-58.9732 L -36.5439,-58.8442 L -36.6963,-58.7335 L -36.8613,-58.6428 L -37.0365,-58.5734
 L -37.2189,-58.5266 L -37.4058,-58.503 z
M -7.59418,-58.503 L -7.78107,-58.5266 L -7.96352,-58.5734 L -8.13866,-58.6428 L -8.30373,-58.7335 L -8.45613,-58.8442
 L -8.59344,-58.9732 L -8.71352,-59.1183 L -8.81445,-59.2774 L -8.89465,-59.4478 L -8.95287,-59.627 L -8.98816,-59.812
 L -9,-60 L -8.98816,-60.188 L -8.95287,-60.373 L -8.89465,-60.5522 L -8.81445,-60.7226 L -8.71352,-60.8817
 L -8.59344,-61.0268 L -8.45613,-61.1558 L -8.30373,-61.2665 L -8.13866,-61.3572 L -7.96352,-61.4266 L -7.78107,-61.4734
 L -7.59418,-61.497 L -7.40581,-61.497 L -7.21892,-61.4734 L -7.03647,-61.4266 L -6.86133,-61.3572 L -6.69626,-61.2665
 L -6.54385,-61.1558 L -6.40654,-61.0268 L -6.28647,-60.8817 L -6.18553,-60.7226 L -6.10533,-60.5522 L -6.04712,-60.373
 L -6.01183,-60.188 L -6,-60 L -6.01183,-59.812 L -6.04712,-59.627 L -6.10533,-59.4478 L -6.18553,-59.2774
 L -6.28647,-59.1183 L -6.40654,-58.9732 L -6.54385,-58.8442 L -6.69626,-58.7335 L -6.86133,-58.6428 L -7.03647,-58.5734
 L -7.21892,-58.5266 L -7.40581,-58.503 z
M 82.4058,-58.503 L 82.2189,-58.5266 L 82.0365,-58.5734 L 81.8613,-58.6428 L 81.6963,-58.7335 L 81.5439,-58.8442
 L 81.4065,-58.9732 L 81.2865,-59.1183 L 81.1855,-59.2774 L 81.1053,-59.4478 L 81.0471,-59.627 L 81.0118,-59.812
 L 81,-60 L 81.0118,-60.188 L 81.0471,-60.373 L 81.1053,-60.5522 L 81.1855,-60.7226 L 81.2865,-60.8817
 L 81.4065,-61.0268 L 81.5439,-61.1558 L 81.6963,-61.2665 L 81.8613,-61.3572 L 82.0365,-61.4266 L 82.2189,-61.4734
 L 82.4058,-61.497 L 82.5942,-61.497 L 82.7811,-61.4734 L 82.9635,-61.4266 L 83.1387,-61.3572 L 83.3037,-61.2665
 L 83.4561,-61.1558 L 83.5934,-61.0268 L 83.7135,-60.8817 L 83.8145,-60.7226 L 83.8947,-60.5522 L 83.9529,-60.373
 L 83.9882,-60.188 L 84,-60 L 83.9882,-59.812 L 83.9529,-59.627 L 83.8947,-59.4478 L 83.8145,-59.2774
 L 83.7135,-59.1183 L 83.5934,-58.9732 L 83.4561,-58.8442 L 83.3037,-58.7335 L 83.1387,-58.6428 L 82.9635,-58.5734
 L 82.7811,-58.5266 L 82.5942,-58.503 z
M 97.4058,-58.503 L 97.2189,-58.5266 L 97.0365,-58.5734 L 96.8613,-58.6428 L 96.6963,-58.7335 L 96.5439,-58.8442
 L 96.4065,-58.9732 L 96.2865,-59.1183 L 96.1855,-59.2774 L 96.1053,-59.4478 L 96.0471,-59.627 L 96.0118,-59.812
 L 96,-60 L 96.0118,-60.188 L 96.0471,-60.373 L 96.1053,-60.5522 L 96.1855,-60.7226 L 96.2865,-60.8817
 L 96.4065,-61.0268 L 96.5439,-61.1558 L 96.6963,-61.2665 L 96.8613,-61.3572 L 97.0365,-61.4266 L 97.2189,-61.4734
 L 97.4058,-61.497 L 97.5942,-61.497 L 97.7811,-61.4734 L 97.9635,-61.4266 L 98.1387,-61.3572 L 98.3037,-61.2665
 L 98.4561,-61.1558 L 98.5934,-61.0268 L 98.7135,-60.8817 L 98.8145,-60.7226 L 98.8947,-60.5522 L 98.9529,-60.373
 L 98.9882,-60.188 L 99,-60 L 98.9882,-59.812 L 98.9529,-59.627 L 98.8947,-59.4478 L 98.8145,-59.2774
 L 98.7135,-59.1183 L 98.5934,-58.9732 L 98.4561,-58.8442 L 98.3037,-58.7335 L 98.1387,-58.6428 L 97.9635,-58.5734
 L 97.7811,-58.5266 L 97.5942,-58.503 z
M -52.5942,-58.503 L -52.7811,-58.5266 L -52.9635,-58.5734 L -53.1387,-58.6428 L -53.3037,-58.7335 L -53.4561,-58.8442
 L -53.5934,-58.9732 L -53.7135,-59.1183 L -53.8145,-59.2774 L -53.8947,-59.4478 L -53.9529,-59.627 L -53.9882,-59.812
 L -54,-60 L -53.9882,-60.188 L -53.9529,-60.373 L -53.8947,-60.5522 L -53.8145,-60.7226 L -53.7135,-60.8817
 L -53.5934,-61.0268 L -53.4561,-61.1558 L -53.3037,-61.2665 L -53.1387,-61.3572 L -52.9635,-61.4266 L -52.7811,-61.4734
 L -52.5942,-61.497 L -52.4058,-61.497 L -52.2189,-61.4734 L -52.0365,-61.4266 L -51.8613,-61.3572 L -51.6963,-61.2665
 L -51.5439,-61.1558 L -51.4065,-61.0268 L -51.2865,-60.8817 L -51.1855,-60.7226 L -51.1053,-60.5522 L -51.0471,-60.373
 L -51.0118,-60.188 L -51,-60 L -51.0118,-59.812 L -51.0471,-59.627 L -51.1053,-59.4478 L -51.1855,-59.2774
 L -51.2865,-59.1183 L -51.4065,-58.9732 L -51.5439,-58.8442 L -51.6963,-58.7335 L -51.8613,-58.6428 L -52.0365,-58.5734
 L -52.2189,-58.5266 L -52.4058,-58.503 z
M -82.5942,-58.503 L -82.7811,-58.5266 L -82.9635,-58.5734 L -83.1387,-58.6428 L -83.3037,-58.7335 L -83.4561,-58.8442
 L -83.5934,-58.9732 L -83.7135,-59.1183 L -83.8145,-59.2774 L -83.8947,-59.4478 L -83.9529,-59.627 L -83.9882,-59.812
 L -84,-60 L -83.9882,-60.188 L -83.9529,-60.373 L -83.8947,-60.5522 L -83.8145,-60.7226 L -83.7135,-60.8817
 L -83.5934,-61.0268 L -83.4561,-61.1558 L -83.3037,-61.2665 L -83.1387,-61.3572 L -82.9635,-61.4266 L -82.7811,-61.4734
 L -82.5942,-61.497 L -82.4058,-61.497 L -82.2189,-61.4734 L -82.0365,-61.4266 L -81.8613,-61.3572 L -81.6963,-61.2665
 L -81.5439,-61.1558 L -81.4065,-61.0268 L -81.2865,-60.8817 L -81.1855,-60.7226 L -81.1053,-60.5522 L -81.0471,-60.373
 L -81.0118,-60.188 L -81,-60 L -81.0118,-59.812 L -81.0471,-59.627 L -81.1053,-59.4478 L -81.1855,-59.2774
 L -81.2865,-59.1183 L -81.4065,-58.9732 L -81.5439,-58.8442 L -81.6963,-58.7335 L -81.8613,-58.6428 L -82.0365,-58.5734
 L -82.2189,-58.5266 L -82.4058,-58.503 z
M 67.4058,-58.503 L 67.2189,-58.5266 L 67.0365,-58.5734 L 66.8613,-58.6428 L 66.6963,-58.7335 L 66.5439,-58.8442
 L 66.4065,-58.9732 L 66.2865,-59.1183 L 66.1855,-59.2774 L 66.1053,-59.4478 L 66.0471,-59.627 L 66.0118,-59.812
 L 66,-60 L 66.0118,-60.188 L 66.0471,-60.373 L 66.1053,-60.5522 L 66.1855,-60.7226 L 66.2865,-60.8817
 L 66.4065,-61.0268 L 66.5439,-61.1558 L 66.6963,-61.2665 L 66.8613,-61.3572 L 67.0365,-61.4266 L 67.2189,-61.4734
 L 67.4058,-61.497 L 67.5942,-61.497 L 67.7811,-61.4734 L 67.9635,-61.4266 L 68.1387,-61.3572 L 68.3037,-61.2665
 L 68.4561,-61.1558 L 68.5934,-61.0268 L 68.7135,-60.8817 L 68.8145,-60.7226 L 68.8947,-60.5522 L 68.9529,-60.373
 L 68.9882,-60.188 L 69,-60 L 68.9882,-59.812 L 68.9529,-59.627 L 68.8947,-59.4478 L 68.8145,-59.2774
 L 68.7135,-59.1183 L 68.5934,-58.9732 L 68.4561,-58.8442 L 68.3037,-58.7335 L 68.1387,-58.6428 L 67.9635,-58.5734
 L 67.7811,-58.5266 L 67.5942,-58.503 z
M -22.5942,-58.503 L -22.7811,-58.5266 L -22.9635,-58.5734 L -23.1387,-58.6428 L -23.3037,-58.7335 L -23.4561,-58.8442
 L -23.5934,-58.9732 L -23.7135,-59.1183 L -23.8145,-59.2774 L -23.8947,-59.4478 L -23.9529,-59.627 L -23.9882,-59.812
 L -24,-60 L -23.9882,-60.188 L -23.9529,-60.373 L -23.8947,-60.5522 L -23.8145,-60.7226 L -23.7135,-60.8817
 L -23.5934,-61.0268 L -23.4561,-61.1558 L -23.3037,-61.2665 L -23.1387,-61.3572 L -22.9635,-61.4266 L -22.7811,-61.4734
 L -22.5942,-61.497 L -22.4058,-61.497 L -22.2189,-61.4734 L -22.0365,-61.4266 L -21.8613,-61.3572 L -21.6963,-61.2665
 L -21.5439,-61.1558 L -21.4065,-61.0268 L -21.2865,-60.8817 L -21.1855,-60.7226 L -21.1053,-60.5522 L -21.0471,-60.373
 L -21.0118,-60.188 L -21,-60 L -21.0118,-59.812 L -21.0471,-59.627 L -21.1053,-59.4478 L -21.1855,-59.2774
 L -21.2865,-59.1183 L -21.4065,-58.9732 L -21.5439,-58.8442 L -21.6963,-58.7335 L -21.8613,-58.6428 L -22.0365,-58.5734
 L -22.2189,-58.5266 L -22.4058,-58.503 z
M -67.5942,-58.503 L -67.7811,-58.5266 L -67.9635,-58.5734 L -68.1387,-58.6428 L -68.3037,-58.7335 L -68.4561,-58.8442
 L -68.5934,-58.9732 L -68.7135,-59.1183 L -68.8145,-59.2774 L -68.8947,-59.4478 L -68.9529,-59.627 L -68.9882,-59.812
 L -69,-60 L -68.9882,-60.188 L -68.9529,-60.373 L -68.8947,-60.5522 L -68.8145,-60.7226 L -68.7135,-60.8817
 L -68.5934,-61.0268 L -68.4561,-61.1558 L -68.3037,-61.2665 L -68.1387,-61.3572 L -67.9635,-61.4266 L -67.7811,-61.4734
 L -67.5942,-61.497 L -67.4058,-61.497 L -67.2189,-61.4734 L -67.0365,-61.4266 L -66.8613,-61.3572 L -66.6963,-61.2665
 L -66.5439,-61.1558 L -66.4065,-61.0268 L -66.2865,-60.8817 L -66.1855,-60.7226 L -66.1053,-60.5522 L -66.0471,-60.373
 L -66.0118,-60.188 L -66,-60 L -66.0118,-59.812 L -66.0471,-59.627 L -66.1053,-59.4478 L -66.1855,-59.2774
 L -66.2865,-59.1183 L -66.4065,-58.9732 L -66.5439,-58.8442 L -66.6963,-58.7335 L -66.8613,-58.6428 L -67.0365,-58.5734
 L -67.2189,-58.5266 L -67.4058,-58.503 z
M 37.4058,-58.503 L 37.2189,-58.5266 L 37.0365,-58.5734 L 36.8613,-58.6428 L 36.6963,-58.7335 L 36.5439,-58.8442
 L 36.4065,-58.9732 L 36.2865,-59.1183 L 36.1855,-59.2774 L 36.1053,-59.4478 L 36.0471,-59.627 L 36.0118,-59.812
 L 36,-60 L 36.0118,-60.188 L 36.0471,-60.373 L 36.1053,-60.5522 L 36.1855,-60.7226 L 36.2865,-60.8817
 L 36.4065,-61.0268 L 36.5439,-61.1558 L 36.6963,-61.2665 L 36.8613,-61.3572 L 37.0365,-61.4266 L 37.2189,-61.4734
 L 37.4058,-61.497 L 37.5942,-61.497 L 37.7811,-61.4734 L 37.9635,-61.4266 L 38.1387,-61.3572 L 38.3037,-61.2665
 L 38.4561,-61.1558 L 38.5934,-61.0268 L 38.7135,-60.8817 L 38.8145,-60.7226 L 38.8947,-60.5522 L 38.9529,-60.373
 L 38.9882,-60.188 L 39,-60 L 38.9882,-59.812 L 38.9529,-59.627 L 38.8947,-59.4478 L 38.8145,-59.2774
 L 38.7135,-59.1183 L 38.5934,-58.9732 L 38.4561,-58.8442 L 38.3037,-58.7335 L 38.1387,-58.6428 L 37.9635,-58.5734
 L 37.7811,-58.5266 L 37.5942,-58.503 z
M 52.4058,-58.503 L 52.2189,-58.5266 L 52.0365,-58.5734 L 51.8613,-58.6428 L 51.6963,-58.7335 L 51.5439,-58.8442
 L 51.4065,-58.9732 L 51.2865,-59.1183 L 51.1855,-59.2774 L 51.1053,-59.4478 L 51.0471,-59.627 L 51.0118,-59.812
 L 51,-60 L 51.0118,-60.188 L 51.0471,-60.373 L 51.1053,-60.5522 L 51.1855,-60.7226 L 51.2865,-60.8817
 L 51.4065,-61.0268 L 51.5439,-61.1558 L 51.6963,-61.2665 L 51.8613,-61.3572 L 52.0365,-61.4266 L 52.2189,-61.4734
 L 52.4058,-61.497 L 52.5942,-61.497 L 52.7811,-61.4734 L 52.9635,-61.4266 L 53.1387,-61.3572 L 53.3037,-61.2665
 L 53.4561,-61.1558 L 53.5934,-61.0268 L 53.7135,-60.8817 L 53.8145,-60.7226 L 53.8947,-60.5522 L 53.9529,-60.373
 L 53.9882,-60.188 L 54,-60 L 53.9882,-59.812 L 53.9529,-59.627 L 53.8947,-59.4478 L 53.8145,-59.2774
 L 53.7135,-59.1183 L 53.5934,-58.9732 L 53.4561,-58.8442 L 53.3037,-58.7335 L 53.1387,-58.6428 L 52.9635,-58.5734
 L 52.7811,-58.5266 L 52.5942,-58.503 z
M 7.40581,-58.503 L 7.21892,-58.5266 L 7.03647,-58.5734 L 6.86133,-58.6428 L 6.69626,-58.7335 L 6.54385,-58.8442
 L 6.40654,-58.9732 L 6.28647,-59.1183 L 6.18553,-59.2774 L 6.10533,-59.4478 L 6.04712,-59.627 L 6.01183,-59.812
 L 6,-60 L 6.01183,-60.188 L 6.04712,-60.373 L 6.10533,-60.5522 L 6.18553,-60.7226 L 6.28647,-60.8817
 L 6.40654,-61.0268 L 6.54385,-61.1558 L 6.69626,-61.2665 L 6.86133,-61.3572 L 7.03647,-61.4266 L 7.21892,-61.4734
 L 7.40581,-61.497 L 7.59418,-61.497 L 7.78107,-61.4734 L 7.96352,-61.4266 L 8.13866,-61.3572 L 8.30373,-61.2665
 L 8.45613,-61.1558 L 8.59344,-61.0268 L 8.71352,-60.8817 L 8.81445,-60.7226 L 8.89465,-60.5522 L 8.95287,-60.373
 L 8.98816,-60.188 L 9,-60 L 8.98816,-59.812 L 8.95287,-59.627 L 8.89465,-59.4478 L 8.81445,-59.2774
 L 8.71352,-59.1183 L 8.59344,-58.9732 L 8.45613,-58.8442 L 8.30373,-58.7335 L 8.13866,-58.6428 L 7.96352,-58.5734
 L 7.78107,-58.5266 L 7.59418,-58.503 z
M 22.4058,-58.503 L 22.2189,-58.5266 L 22.0365,-58.5734 L 21.8613,-58.6428 L 21.6963,-58.7335 L 21.5439,-58.8442
 L 21.4065,-58.9732 L 21.2865,-59.1183 L 21.1855,-59.2774 L 21.1053,-59.4478 L 21.0471,-59.627 L 21.0118,-59.812
 L 21,-60 L 21.0118,-60.188 L 21.0471,-60.373 L 21.1053,-60.5522 L 21.1855,-60.7226 L 21.2865,-60.8817
 L 21.4065,-61.0268 L 21.5439,-61.1558 L 21.6963,-61.2665 L 21.8613,-61.3572 L 22.0365,-61.4266 L 22.2189,-61.4734
 L 22.4058,-61.497 L 22.5942,-61.497 L 22.7811,-61.4734 L 22.9635,-61.4266 L 23.1387,-61.3572 L 23.3037,-61.2665
 L 23.4561,-61.1558 L 23.5934,-61.0268 L 23.7135,-60.8817 L 23.8145,-60.7226 L 23.8947,-60.5522 L 23.9529,-60.373
 L 23.9882,-60.188 L 24,-60 L 23.9882,-59.812 L 23.9529,-59.627 L 23.8947,-59.4478 L 23.8145,-59.2774
 L 23.7135,-59.1183 L 23.5934,-58.9732 L 23.4561,-58.8442 L 23.3037,-58.7335 L 23.1387,-58.6428 L 22.9635,-58.5734
 L 22.7811,-58.5266 L 22.5942,-58.503 z
M 4.07083,-12.4345 L 6.01117,-18.4062 L 8.68466,-24.0877 L 12.0491,-29.3893 L 16.0516,-34.2274 L 20.6288,-38.5257
 L 25.7086,-42.2164 L 31.211,-45.2413 L 37.0491,-47.5528 L 43.1309,-49.1143 L 49.3605,-49.9013 L 55.6395,-49.9013
 L 61.8691,-49.1143 L 67.9509,-47.5528 L 73.789,-45.2413 L 79.2913,-42.2164 L 84.3712,-38.5257 L 88.9484,-34.2274
 L 92.9509,-29.3893 L 96.3153,-24.0877 L 98.9888,-18.4062 L 100.929,-12.4345 L 102.106,-6.26665 L 102.5,-0
 L 102.106,6.26665 L 100.929,12.4345 L 98.9888,18.4062 L 96.3153,24.0877 L 92.9509,29.3893 L 88.9484,34.2274
 L 84.3712,38.5257 L 79.2913,42.2164 L 73.789,45.2413 L 67.9509,47.5528 L 61.8691,49.1143 L 55.6395,49.9013
 L 49.3605,49.9013 L 43.1309,49.1143 L 37.0491,47.5528 L 31.211,45.2413 L 25.7086,42.2164 L 20.6288,38.5257
 L 16.0516,34.2274 L 12.0491,29.3893 L 8.68466,24.0877 L 6.01117,18.4062 L 4.07083,12.4345 L 2.89426,6.26665
 L 2.5,-0 L 2.89426,-6.26665 z
M -90.1884,62.9941 L -90.5621,62.9469 L -90.927,62.8532 L -91.2773,62.7145 L -91.6075,62.533 L -91.9123,62.3115
 L -92.1869,62.0536 L -92.427,61.7634 L -92.6289,61.4453 L -92.7893,61.1044 L -92.9057,60.7461 L -92.9763,60.376
 L -93,60 L -92.9763,59.624 L -92.9057,59.2539 L -92.7893,58.8956 L -92.6289,58.5547 L -92.427,58.2366
 L -92.1869,57.9464 L -91.9123,57.6885 L -91.6075,57.467 L -91.2773,57.2855 L -90.927,57.1468 L -90.5621,57.0531
 L -90.1884,57.0059 L -89.8116,57.0059 L -89.4379,57.0531 L -89.073,57.1468 L -88.7227,57.2855 L -88.3925,57.467
 L -88.0877,57.6885 L -87.8131,57.9464 L -87.573,58.2366 L -87.3711,58.5547 L -87.2107,58.8956 L -87.0943,59.2539
 L -87.0237,59.624 L -87,60 L -87.0237,60.376 L -87.0943,60.7461 L -87.2107,61.1044 L -87.3711,61.4453
 L -87.573,61.7634 L -87.8131,62.0536 L -88.0877,62.3115 L -88.3925,62.533 L -88.7227,62.7145 L -89.073,62.8532
 L -89.4379,62.9469 L -89.8116,62.9941 z
M 74.8116,62.9941 L 74.4379,62.9469 L 74.073,62.8532 L 73.7227,62.7145 L 73.3925,62.533 L 73.0877,62.3115
 L 72.8131,62.0536 L 72.573,61.7634 L 72.3711,61.4453 L 72.2107,61.1044 L 72.0943,60.7461 L 72.0237,60.376
 L 72,60 L 72.0237,59.624 L 72.0943,59.2539 L 72.2107,58.8956 L 72.3711,58.5547 L 72.573,58.2366
 L 72.8131,57.9464 L 73.0877,57.6885 L 73.3925,57.467 L 73.7227,57.2855 L 74.073,57.1468 L 74.4379,57.0531
 L 74.8116,57.0059 L 75.1884,57.0059 L 75.5621,57.0531 L 75.927,57.1468 L 76.2773,57.2855 L 76.6075,57.467
 L 76.9123,57.6885 L 77.1869,57.9464 L 77.427,58.2366 L 77.6289,58.5547 L 77.7893,58.8956 L 77.9057,59.2539
 L 77.9763,59.624 L 78,60 L 77.9763,60.376 L 77.9057,60.7461 L 77.7893,61.1044 L 77.6289,61.4453
 L 77.427,61.7634 L 77.1869,62.0536 L 76.9123,62.3115 L 76.6075,62.533 L 76.2773,62.7145 L 75.927,62.8532
 L 75.5621,62.9469 L 75.1884,62.9941 z
M 14.8116,62.9941 L 14.4379,62.9469 L 14.0729,62.8532 L 13.7227,62.7145 L 13.3925,62.533 L 13.0877,62.3115
 L 12.8131,62.0536 L 12.5729,61.7634 L 12.3711,61.4453 L 12.2107,61.1044 L 12.0942,60.7461 L 12.0237,60.376
 L 12,60 L 12.0237,59.624 L 12.0942,59.2539 L 12.2107,58.8956 L 12.3711,58.5547 L 12.5729,58.2366
 L 12.8131,57.9464 L 13.0877,57.6885 L 13.3925,57.467 L 13.7227,57.2855 L 14.0729,57.1468 L 14.4379,57.0531
 L 14.8116,57.0059 L 15.1884,57.0059 L 15.5621,57.0531 L 15.927,57.1468 L 16.2773,57.2855 L 16.6075,57.467
 L 16.9123,57.6885 L 17.1869,57.9464 L 17.427,58.2366 L 17.6289,58.5547 L 17.7893,58.8956 L 17.9057,59.2539
 L 17.9763,59.624 L 18,60 L 17.9763,60.376 L 17.9057,60.7461 L 17.7893,61.1044 L 17.6289,61.4453
 L 17.427,61.7634 L 17.1869,62.0536 L 16.9123,62.3115 L 16.6075,62.533 L 16.2773,62.7145 L 15.927,62.8532
 L 15.5621,62.9469 L 15.1884,62.9941 z
M -75.1884,62.9941 L -75.5621,62.9469 L -75.927,62.8532 L -76.2773,62.7145 L -76.6075,62.533 L -76.9123,62.3115
 L -77.1869,62.0536 L -77.427,61.7634 L -77.6289,61.4453 L -77.7893,61.1044 L -77.9057,60.7461 L -77.9763,60.376
 L -78,60 L -77.9763,59.624 L -77.9057,59.2539 L -77.7893,58.8956 L -77.6289,58.5547 L -77.427,58.2366
 L -77.1869,57.9464 L -76.9123,57.6885 L -76.6075,57.467 L -76.2773,57.2855 L -75.927,57.1468 L -75.5621,57.0531
 L -75.1884,57.0059 L -74.8116,57.0059 L -74.4379,57.0531 L -74.073,57.1468 L -73.7227,57.2855 L -73.3925,57.467
 L -73.0877,57.6885 L -72.8131,57.9464 L -72.573,58.2366 L -72.3711,58.5547 L -72.2107,58.8956 L -72.0943,59.2539
 L -72.0237,59.624 L -72,60 L -72.0237,60.376 L -72.0943,60.7461 L -72.2107,61.1044 L -72.3711,61.4453
 L -72.573,61.7634 L -72.8131,62.0536 L -73.0877,62.3115 L -73.3925,62.533 L -73.7227,62.7145 L -74.073,62.8532
 L -74.4379,62.9469 L -74.8116,62.9941 z
M 104.812,62.9941 L 104.438,62.9469 L 104.073,62.8532 L 103.723,62.7145 L 103.393,62.533 L 103.088,62.3115
 L 102.813,62.0536 L 102.573,61.7634 L 102.371,61.4453 L 102.211,61.1044 L 102.094,60.7461 L 102.024,60.376
 L 102,60 L 102.024,59.624 L 102.094,59.2539 L 102.211,58.8956 L 102.371,58.5547 L 102.573,58.2366
 L 102.813,57.9464 L 103.088,57.6885 L 103.393,57.467 L 103.723,57.2855 L 104.073,57.1468 L 104.438,57.0531
 L 104.812,57.0059 L 105.188,57.0059 L 105.562,57.0531 L 105.927,57.1468 L 106.277,57.2855 L 106.607,57.467
 L 106.912,57.6885 L 107.187,57.9464 L 107.427,58.2366 L 107.629,58.5547 L 107.789,58.8956 L 107.906,59.2539
 L 107.976,59.624 L 108,60 L 107.976,60.376 L 107.906,60.7461 L 107.789,61.1044 L 107.629,61.4453
 L 107.427,61.7634 L 107.187,62.0536 L 106.912,62.3115 L 106.607,62.533 L 106.277,62.7145 L 105.927,62.8532
 L 105.562,62.9469 L 105.188,62.9941 z
M -60.1884,62.9941 L -60.5621,62.9469 L -60.927,62.8532 L -61.2773,62.7145 L -61.6075,62.533 L -61.9123,62.3115
 L -62.1869,62.0536 L -62.427,61.7634 L -62.6289,61.4453 L -62.7893,61.1044 L -62.9057,60.7461 L -62.9763,60.376
 L -63,60 L -62.9763,59.624 L -62.9057,59.2539 L -62.7893,58.8956 L -62.6289,58.5547 L -62.427,58.2366
 L -62.1869,57.9464 L -61.9123,57.6885 L -61.6075,57.467 L -61.2773,57.2855 L -60.927,57.1468 L -60.5621,57.0531
 L -60.1884,57.0059 L -59.8116,57.0059 L -59.4379,57.0531 L -59.0729,57.1468 L -58.7227,57.2855 L -58.3925,57.467
 L -58.0877,57.6885 L -57.8131,57.9464 L -57.5729,58.2366 L -57.3711,58.5547 L -57.2107,58.8956 L -57.0942,59.2539
 L -57.0237,59.624 L -57,60 L -57.0237,60.376 L -57.0942,60.7461 L -57.2107,61.1044 L -57.3711,61.4453
 L -57.5729,61.7634 L -57.8131,62.0536 L -58.0877,62.3115 L -58.3925,62.533 L -58.7227,62.7145 L -59.0729,62.8532
 L -59.4379,62.9469 L -59.8116,62.9941 z
M -105.188,62.9941 L -105.562,62.9469 L -105.927,62.8532 L -106.277,62.7145 L -106.607,62.533 L -106.912,62.3115
 L -107.187,62.0536 L -107.427,61.7634 L -107.629,61.4453 L -107.789,61.1044 L -107.906,60.7461 L -107.976,60.376
 L -108,60 L -107.976,59.624 L -107.906,59.2539 L -107.789,58.8956 L -107.629,58.5547 L -107.427,58.2366
 L -107.187,57.9464 L -106.912,57.6885 L -106.607,57.467 L -106.277,57.2855 L -105.927,57.1468 L -105.562,57.0531
 L -105.188,57.0059 L -104.812,57.0059 L -104.438,57.0531 L -104.073,57.1468 L -103.723,57.2855 L -103.393,57.467
 L -103.088,57.6885 L -102.813,57.9464 L -102.573,58.2366 L -102.371,58.5547 L -102.211,58.8956 L -102.094,59.2539
 L -102.024,59.624 L -102,60 L -102.024,60.376 L -102.094,60.7461 L -102.211,61.1044 L -102.371,61.4453
 L -102.573,61.7634 L -102.813,62.0536 L -103.088,62.3115 L -103.393,62.533 L -103.723,62.7145 L -104.073,62.8532
 L -104.438,62.9469 L -104.812,62.9941 z
M 29.8116,62.9941 L 29.4379,62.9469 L 29.0729,62.8532 L 28.7227,62.7145 L 28.3925,62.533 L 28.0877,62.3115
 L 27.8131,62.0536 L 27.5729,61.7634 L 27.3711,61.4453 L 27.2107,61.1044 L 27.0942,60.7461 L 27.0237,60.376
 L 27,60 L 27.0237,59.624 L 27.0942,59.2539 L 27.2107,58.8956 L 27.3711,58.5547 L 27.5729,58.2366
 L 27.8131,57.9464 L 28.0877,57.6885 L 28.3925,57.467 L 28.7227,57.2855 L 29.0729,57.1468 L 29.4379,57.0531
 L 29.8116,57.0059 L 30.1884,57.0059 L 30.5621,57.0531 L 30.927,57.1468 L 31.2773,57.2855 L 31.6075,57.467
 L 31.9123,57.6885 L 32.1869,57.9464 L 32.427,58.2366 L 32.6289,58.5547 L 32.7893,58.8956 L 32.9057,59.2539
 L 32.9763,59.624 L 33,60 L 32.9763,60.376 L 32.9057,60.7461 L 32.7893,61.1044 L 32.6289,61.4453
 L 32.427,61.7634 L 32.1869,62.0536 L 31.9123,62.3115 L 31.6075,62.533 L 31.2773,62.7145 L 30.927,62.8532
 L 30.5621,62.9469 L 30.1884,62.9941 z
M 59.8116,62.9941 L 59.4379,62.9469 L 59.0729,62.8532 L 58.7227,62.7145 L 58.3925,62.533 L 58.0877,62.3115
 L 57.8131,62.0536 L 57.5729,61.7634 L 57.3711,61.4453 L 57.2107,61.1044 L 57.0942,60.7461 L 57.0237,60.376
 L 57,60 L 57.0237,59.624 L 57.0942,59.2539 L 57.2107,58.8956 L 57.3711,58.5547 L 57.5729,58.2366
 L 57.8131,57.9464 L 58.0877,57.6885 L 58.3925,57.467 L 58.7227,57.2855 L 59.0729,57.1468 L 59.4379,57.0531
 L 59.8116,57.0059 L 60.1884,57.0059 L 60.5621,57.0531 L 60.927,57.1468 L 61.2773,57.2855 L 61.6075,57.467
 L 61.9123,57.6885 L 62.1869,57.9464 L 62.427,58.2366 L 62.6289,58.5547 L 62.7893,58.8956 L 62.9057,59.2539
 L 62.9763,59.624 L 63,60 L 62.9763,60.376 L 62.9057,60.7461 L 62.7893,61.1044 L 62.6289,61.4453
 L 62.427,61.7634 L 62.1869,62.0536 L 61.9123,62.3115 L 61.6075,62.533 L 61.2773,62.7145 L 60.927,62.8532
 L 60.5621,62.9469 L 60.1884,62.9941 z
M -30.1884,62.9941 L -30.5621,62.9469 L -30.927,62.8532 L -31.2773,62.7145 L -31.6075,62.533 L -31.9123,62.3115
 L -32.1869,62.0536 L -32.427,61.7634 L -32.6289,61.4453 L -32.7893,61.1044 L -32.9057,60.7461 L -32.9763,60.376
 L -33,60 L -32.9763,59.624 L -32.9057,59.2539 L -32.7893,58.8956 L -32.6289,58.5547 L -32.427,58.2366
 L -32.1869,57.9464 L -31.9123,57.6885 L -31.6075,57.467 L -31.2773,57.2855 L -30.927,57.1468 L -30.5621,57.0531
 L -30.1884,57.0059 L -29.8116,57.0059 L -29.4379,57.0531 L -29.0729,57.1468 L -28.7227,57.2855 L -28.3925,57.467
 L -28.0877,57.6885 L -27.8131,57.9464 L -27.5729,58.2366 L -27.3711,58.5547 L -27.2107,58.8956 L -27.0942,59.2539
 L -27.0237,59.624 L -27,60 L -27.0237,60.376 L -27.0942,60.7461 L -27.2107,61.1044 L -27.3711,61.4453
 L -27.5729,61.7634 L -27.8131,62.0536 L -28.0877,62.3115 L -28.3925,62.533 L -28.7227,62.7145 L -29.0729,62.8532
 L -29.4379,62.9469 L -29.8116,62.9941 z
M -15.1884,62.9941 L -15.5621,62.9469 L -15.927,62.8532 L -16.2773,62.7145 L -16.6075,62.533 L -16.9123,62.3115
 L -17.1869,62.0536 L -17.427,61.7634 L -17.6289,61.4453 L -17.7893,61.1044 L -17.9057,60.7461 L -17.9763,60.376
 L -18,60 L -17.9763,59.624 L -17.9057,59.2539 L -17.7893,58.8956 L -17.6289,58.5547 L -17.427,58.2366
 L -17.1869,57.9464 L -16.9123,57.6885 L -16.6075,57.467 L -16.2773,57.2855 L -15.927,57.1468 L -15.5621,57.0531
 L -15.1884,57.0059 L -14.8116,57.0059 L -14.4379,57.0531 L -14.0729,57.1468 L -13.7227,57.2855 L -13.3925,57.467
 L -13.0877,57.6885 L -12.8131,57.9464 L -12.5729,58.2366 L -12.3711,58.5547 L -12.2107,58.8956 L -12.0942,59.2539
 L -12.0237,59.624 L -12,60 L -12.0237,60.376 L -12.0942,60.7461 L -12.2107,61.1044 L -12.3711,61.4453
 L -12.5729,61.7634 L -12.8131,62.0536 L -13.0877,62.3115 L -13.3925,62.533 L -13.7227,62.7145 L -14.0729,62.8532
 L -14.4379,62.9469 L -14.8116,62.9941 z
M 44.8116,62.9941 L 44.4379,62.9469 L 44.0729,62.8532 L 43.7227,62.7145 L 43.3925,62.533 L 43.0877,62.3115
 L 42.8131,62.0536 L 42.5729,61.7634 L 42.3711,61.4453 L 42.2107,61.1044 L 42.0942,60.7461 L 42.0237,60.376
 L 42,60 L 42.0237,59.624 L 42.0942,59.2539 L 42.2107,58.8956 L 42.3711,58.5547 L 42.5729,58.2366
 L 42.8131,57.9464 L 43.0877,57.6885 L 43.3925,57.467 L 43.7227,57.2855 L 44.0729,57.1468 L 44.4379,57.0531
 L 44.8116,57.0059 L 45.1884,57.0059 L 45.5621,57.0531 L 45.927,57.1468 L 46.2773,57.2855 L 46.6075,57.467
 L 46.9123,57.6885 L 47.1869,57.9464 L 47.427,58.2366 L 47.6289,58.5547 L 47.7893,58.8956 L 47.9057,59.2539
 L 47.9763,59.624 L 48,60 L 47.9763,60.376 L 47.9057,60.7461 L 47.7893,61.1044 L 47.6289,61.4453
 L 47.427,61.7634 L 47.1869,62.0536 L 46.9123,62.3115 L 46.6075,62.533 L 46.2773,62.7145 L 45.927,62.8532
 L 45.5621,62.9469 L 45.1884,62.9941 z
M -45.1884,62.9941 L -45.5621,62.9469 L -45.927,62.8532 L -46.2773,62.7145 L -46.6075,62.533 L -46.9123,62.3115
 L -47.1869,62.0536 L -47.427,61.7634 L -47.6289,61.4453 L -47.7893,61.1044 L -47.9057,60.7461 L -47.9763,60.376
 L -48,60 L -47.9763,59.624 L -47.9057,59.2539 L -47.7893,58.8956 L -47.6289,58.5547 L -47.427,58.2366
 L -47.1869,57.9464 L -46.9123,57.6885 L -46.6075,57.467 L -46.2773,57.2855 L -45.927,57.1468 L -45.5621,57.0531
 L -45.1884,57.0059 L -44.8116,57.0059 L -44.4379,57.0531 L -44.0729,57.1468 L -43.7227,57.2855 L -43.3925,57.467
 L -43.0877,57.6885 L -42.8131,57.9464 L -42.5729,58.2366 L -42.3711,58.5547 L -42.2107,58.8956 L -42.0942,59.2539
 L -42.0237,59.624 L -42,60 L -42.0237,60.376 L -42.0942,60.7461 L -42.2107,61.1044 L -42.3711,61.4453
 L -42.5729,61.7634 L -42.8131,62.0536 L -43.0877,62.3115 L -43.3925,62.533 L -43.7227,62.7145 L -44.0729,62.8532
 L -44.4379,62.9469 L -44.8116,62.9941 z
M -0.18837,62.9941 L -0.562134,62.9469 L -0.927048,62.8532 L -1.27733,62.7145 L -1.60747,62.533 L -1.91226,62.3115
 L -2.1869,62.0536 L -2.42705,61.7634 L -2.62891,61.4453 L -2.78932,61.1044 L -2.90575,60.7461 L -2.97633,60.376
 L -3,60 L -2.97633,59.624 L -2.90575,59.2539 L -2.78932,58.8956 L -2.62891,58.5547 L -2.42705,58.2366
 L -2.1869,57.9464 L -1.91226,57.6885 L -1.60747,57.467 L -1.27733,57.2855 L -0.927048,57.1468 L -0.562134,57.0531
 L -0.18837,57.0059 L 0.18837,57.0059 L 0.562134,57.0531 L 0.927048,57.1468 L 1.27733,57.2855 L 1.60747,57.467
 L 1.91226,57.6885 L 2.1869,57.9464 L 2.42705,58.2366 L 2.62891,58.5547 L 2.78932,58.8956 L 2.90575,59.2539
 L 2.97633,59.624 L 3,60 L 2.97633,60.376 L 2.90575,60.7461 L 2.78932,61.1044 L 2.62891,61.4453
 L 2.42705,61.7634 L 2.1869,62.0536 L 1.91226,62.3115 L 1.60747,62.533 L 1.27733,62.7145 L 0.927048,62.8532
 L 0.562134,62.9469 L 0.18837,62.9941 z
M 89.8116,62.9941 L 89.4379,62.9469 L 89.073,62.8532 L 88.7227,62.7145 L 88.3925,62.533 L 88.0877,62.3115
 L 87.8131,62.0536 L 87.573,61.7634 L 87.3711,61.4453 L 87.2107,61.1044 L 87.0943,60.7461 L 87.0237,60.376
 L 87,60 L 87.0237,59.624 L 87.0943,59.2539 L 87.2107,58.8956 L 87.3711,58.5547 L 87.573,58.2366
 L 87.8131,57.9464 L 88.0877,57.6885 L 88.3925,57.467 L 88.7227,57.2855 L 89.073,57.1468 L 89.4379,57.0531
 L 89.8116,57.0059 L 90.1884,57.0059 L 90.5621,57.0531 L 90.927,57.1468 L 91.2773,57.2855 L 91.6075,57.467
 L 91.9123,57.6885 L 92.1869,57.9464 L 92.427,58.2366 L 92.6289,58.5547 L 92.7893,58.8956 L 92.9057,59.2539
 L 92.9763,59.624 L 93,60 L 92.9763,60.376 L 92.9057,60.7461 L 92.7893,61.1044 L 92.6289,61.4453
 L 92.427,61.7634 L 92.1869,62.0536 L 91.9123,62.3115 L 91.6075,62.533 L 91.2773,62.7145 L 90.927,62.8532
 L 90.5621,62.9469 L 90.1884,62.9941 z
M -52.5942,61.497 L -52.7811,61.4734 L -52.9635,61.4266 L -53.1387,61.3572 L -53.3037,61.2665 L -53.4561,61.1558
 L -53.5934,61.0268 L -53.7135,60.8817 L -53.8145,60.7226 L -53.8947,60.5522 L -53.9529,60.373 L -53.9882,60.188
 L -54,60 L -53.9882,59.812 L -53.9529,59.627 L -53.8947,59.4478 L -53.8145,59.2774 L -53.7135,59.1183
 L -53.5934,58.9732 L -53.4561,58.8442 L -53.3037,58.7335 L -53.1387,58.6428 L -52.9635,58.5734 L -52.7811,58.5266
 L -52.5942,58.503 L -52.4058,58.503 L -52.2189,58.5266 L -52.0365,58.5734 L -51.8613,58.6428 L -51.6963,58.7335
 L -51.5439,58.8442 L -51.4065,58.9732 L -51.2865,59.1183 L -51.1855,59.2774 L -51.1053,59.4478 L -51.0471,59.627
 L -51.0118,59.812 L -51,60 L -51.0118,60.188 L -51.0471,60.373 L -51.1053,60.5522 L -51.1855,60.7226
 L -51.2865,60.8817 L -51.4065,61.0268 L -51.5439,61.1558 L -51.6963,61.2665 L -51.8613,61.3572 L -52.0365,61.4266
 L -52.2189,61.4734 L -52.4058,61.497 z
M -22.5942,61.497 L -22.7811,61.4734 L -22.9635,61.4266 L -23.1387,61.3572 L -23.3037,61.2665 L -23.4561,61.1558
 L -23.5934,61.0268 L -23.7135,60.8817 L -23.8145,60.7226 L -23.8947,60.5522 L -23.9529,60.373 L -23.9882,60.188
 L -24,60 L -23.9882,59.812 L -23.9529,59.627 L -23.8947,59.4478 L -23.8145,59.2774 L -23.7135,59.1183
 L -23.5934,58.9732 L -23.4561,58.8442 L -23.3037,58.7335 L -23.1387,58.6428 L -22.9635,58.5734 L -22.7811,58.5266
 L -22.5942,58.503 L -22.4058,58.503 L -22.2189,58.5266 L -22.0365,58.5734 L -21.8613,58.6428 L -21.6963,58.7335
 L -21.5439,58.8442 L -21.4065,58.9732 L -21.2865,59.1183 L -21.1855,59.2774 L -21.1053,59.4478 L -21.0471,59.627
 L -21.0118,59.812 L -21,60 L -21.0118,60.188 L -21.0471,60.373 L -21.1053,60.5522 L -21.1855,60.7226
 L -21.2865,60.8817 L -21.4065,61.0268 L -21.5439,61.1558 L -21.6963,61.2665 L -21.8613,61.3572 L -22.0365,61.4266
 L -22.2189,61.4734 L -22.4058,61.497 z
M -7.59418,61.497 L -7.78107,61.4734 L -7.96352,61.4266 L -8.13866,61.3572 L -8.30373,61.2665 L -8.45613,61.1558
 L -8.59344,61.0268 L -8.71352,60.8817 L -8.81445,60.7226 L -8.89465,60.5522 L -8.95287,60.373 L -8.98816,60.188
 L -9,60 L -8.98816,59.812 L -8.95287,59.627 L -8.89465,59.4478 L -8.81445,59.2774 L -8.71352,59.1183
 L -8.59344,58.9732 L -8.45613,58.8442 L -8.30373,58.7335 L -8.13866,58.6428 L -7.96352,58.5734 L -7.78107,58.5266
 L -7.59418,58.503 L -7.40581,58.503 L -7.21892,58.5266 L -7.03647,58.5734 L -6.86133,58.6428 L -6.69626,58.7335
 L -6.54385,58.8442 L -6.40654,58.9732 L -6.28647,59.1183 L -6.18553,59.2774 L -6.10533,59.4478 L -6.04712,59.627
 L -6.01183,59.812 L -6,60 L -6.01183,60.188 L -6.04712,60.373 L -6.10533,60.5522 L -6.18553,60.7226
 L -6.28647,60.8817 L -6.40654,61.0268 L -6.54385,61.1558 L -6.69626,61.2665 L -6.86133,61.3572 L -7.03647,61.4266
 L -7.21892,61.4734 L -7.40581,61.497 z
M -37.5942,61.497 L -37.7811,61.4734 L -37.9635,61.4266 L -38.1387,61.3572 L -38.3037,61.2665 L -38.4561,61.1558
 L -38.5934,61.0268 L -38.7135,60.8817 L -38.8145,60.7226 L -38.8947,60.5522 L -38.9529,60.373 L -38.9882,60.188
 L -39,60 L -38.9882,59.812 L -38.9529,59.627 L -38.8947,59.4478 L -38.8145,59.2774 L -38.7135,59.1183
 L -38.5934,58.9732 L -38.4561,58.8442 L -38.3037,58.7335 L -38.1387,58.6428 L -37.9635,58.5734 L -37.7811,58.5266
 L -37.5942,58.503 L -37.4058,58.503 L -37.2189,58.5266 L -37.0365,58.5734 L -36.8613,58.6428 L -36.6963,58.7335
 L -36.5439,58.8442 L -36.4065,58.9732 L -36.2865,59.1183 L -36.1855,59.2774 L -36.1053,59.4478 L -36.0471,59.627
 L -36.0118,59.812 L -36,60 L -36.0118,60.188 L -36.0471,60.373 L -36.1053,60.5522 L -36.1855,60.7226
 L -36.2865,60.8817 L -36.4065,61.0268 L -36.5439,61.1558 L -36.6963,61.2665 L -36.8613,61.3572 L -37.0365,61.4266
 L -37.2189,61.4734 L -37.4058,61.497 z
M 82.4058,61.497 L 82.2189,61.4734 L 82.0365,61.4266 L 81.8613,61.3572 L 81.6963,61.2665 L 81.5439,61.1558
 L 81.4065,61.0268 L 81.2865,60.8817 L 81.1855,60.7226 L 81.1053,60.5522 L 81.0471,60.373 L 81.0118,60.188
 L 81,60 L 81.0118,59.812 L 81.0471,59.627 L 81.1053,59.4478 L 81.1855,59.2774 L 81.2865,59.1183
 L 81.4065,58.9732 L 81.5439,58.8442 L 81.6963,58.7335 L 81.8613,58.6428 L 82.0365,58.5734 L 82.2189,58.5266
 L 82.4058,58.503 L 82.5942,58.503 L 82.7811,58.5266 L 82.9635,58.5734 L 83.1387,58.6428 L 83.3037,58.7335
 L 83.4561,58.8442 L 83.5934,58.9732 L 83.7135,59.1183 L 83.8145,59.2774 L 83.8947,59.4478 L 83.9529,59.627
 L 83.9882,59.812 L 84,60 L 83.9882,60.188 L 83.9529,60.373 L 83.8947,60.5522 L 83.8145,60.7226
 L 83.7135,60.8817 L 83.5934,61.0268 L 83.4561,61.1558 L 83.3037,61.2665 L 83.1387,61.3572 L 82.9635,61.4266
 L 82.7811,61.4734 L 82.5942,61.497 z
M 37.4058,61.497 L 37.2189,61.4734 L 37.0365,61.4266 L 36.8613,61.3572 L 36.6963,61.2665 L 36.5439,61.1558
 L 36.4065,61.0268 L 36.2865,60.8817 L 36.1855,60.7226 L 36.1053,60.5522 L 36.0471,60.373 L 36.0118,60.188
 L 36,60 L 36.0118,59.812 L 36.0471,59.627 L 36.1053,59.4478 L 36.1855,59.2774 L 36.2865,59.1183
 L 36.4065,58.9732 L 36.5439,58.8442 L 36.6963,58.7335 L 36.8613,58.6428 L 37.0365,58.5734 L 37.2189,58.5266
 L 37.4058,58.503 L 37.5942,58.503 L 37.7811,58.5266 L 37.9635,58.5734 L 38.1387,58.6428 L 38.3037,58.7335
 L 38.4561,58.8442 L 38.5934,58.9732 L 38.7135,59.1183 L 38.8145,59.2774 L 38.8947,59.4478 L 38.9529,59.627
 L 38.9882,59.812 L 39,60 L 38.9882,60.188 L 38.9529,60.373 L 38.8947,60.5522 L 38.8145,60.7226
 L 38.7135,60.8817 L 38.5934,61.0268 L 38.4561,61.1558 L 38.3037,61.2665 L 38.1387,61.3572 L 37.9635,61.4266
 L 37.7811,61.4734 L 37.5942,61.497 z
M 97.4058,61.497 L 97.2189,61.4734 L 97.0365,61.4266 L 96.8613,61.3572 L 96.6963,61.2665 L 96.5439,61.1558
 L 96.4065,61.0268 L 96.2865,60.8817 L 96.1855,60.7226 L 96.1053,60.5522 L 96.0471,60.373 L 96.0118,60.188
 L 96,60 L 96.0118,59.812 L 96.0471,59.627 L 96.1053,59.4478 L 96.1855,59.2774 L 96.2865,59.1183
 L 96.4065,58.9732 L 96.5439,58.8442 L 96.6963,58.7335 L 96.8613,58.6428 L 97.0365,58.5734 L 97.2189,58.5266
 L 97.4058,58.503 L 97.5942,58.503 L 97.7811,58.5266 L 97.9635,58.5734 L 98.1387,58.6428 L 98.3037,58.7335
 L 98.4561,58.8442 L 98.5934,58.9732 L 98.7135,59.1183 L 98.8145,59.2774 L 98.8947,59.4478 L 98.9529,59.627
 L 98.9882,59.812 L 99,60 L 98.9882,60.188 L 98.9529,60.373 L 98.8947,60.5522 L 98.8145,60.7226
 L 98.7135,60.8817 L 98.5934,61.0268 L 98.4561,61.1558 L 98.3037,61.2665 L 98.1387,61.3572 L 97.9635,61.4266
 L 97.7811,61.4734 L 97.5942,61.497 z
M -82.5942,61.497 L -82.7811,61.4734 L -82.9635,61.4266 L -83.1387,61.3572 L -83.3037,61.2665 L -83.4561,61.1558
 L -83.5934,61.0268 L -83.7135,60.8817 L -83.8145,60.7226 L -83.8947,60.5522 L -83.9529,60.373 L -83.9882,60.188
 L -84,60 L -83.9882,59.812 L -83.9529,59.627 L -83.8947,59.4478 L -83.8145,59.2774 L -83.7135,59.1183
 L -83.5934,58.9732 L -83.4561,58.8442 L -83.3037,58.7335 L -83.1387,58.6428 L -82.9635,58.5734 L -82.7811,58.5266
 L -82.5942,58.503 L -82.4058,58.503 L -82.2189,58.5266 L -82.0365,58.5734 L -81.8613,58.6428 L -81.6963,58.7335
 L -81.5439,58.8442 L -81.4065,58.9732 L -81.2865,59.1183 L -81.1855,59.2774 L -81.1053,59.4478 L -81.0471,59.627
 L -81.0118,59.812 L -81,60 L -81.0118,60.188 L -81.0471,60.373 L -81.1053,60.5522 L -81.1855,60.7226
 L -81.2865,60.8817 L -81.4065,61.0268 L -81.5439,61.1558 L -81.6963,61.2665 L -81.8613,61.3572 L -82.0365,61.4266
 L -82.2189,61.4734 L -82.4058,61.497 z
M 52.4058,61.497 L 52.2189,61.4734 L 52.0365,61.4266 L 51.8613,61.3572 L 51.6963,61.2665 L 51.5439,61.1558
 L 51.4065,61.0268 L 51.2865,60.8817 L 51.1855,60.7226 L 51.1053,60.5522 L 51.0471,60.373 L 51.0118,60.188
 L 51,60 L 51.0118,59.812 L 51.0471,59.627 L 51.1053,59.4478 L 51.1855,59.2774 L 51.2865,59.1183
 L 51.4065,58.9732 L 51.5439,58.8442 L 51.6963,58.7335 L 51.8613,58.6428 L 52.0365,58.5734 L 52.2189,58.5266
 L 52.4058,58.503 L 52.5942,58.503 L 52.7811,58.5266 L 52.9635,58.5734 L 53.1387,58.6428 L 53.3037,58.7335
 L 53.4561,58.8442 L 53.5934,58.9732 L 53.7135,59.1183 L 53.8145,59.2774 L 53.8947,59.4478 L 53.9529,59.627
 L 53.9882,59.812 L 54,60 L 53.9882,60.188 L 53.9529,60.373 L 53.8947,60.5522 L 53.8145,60.7226
 L 53.7135,60.8817 L 53.5934,61.0268 L 53.4561,61.1558 L 53.3037,61.2665 L 53.1387,61.3572 L 52.9635,61.4266
 L 52.7811,61.4734 L 52.5942,61.497 z
M 67.4058,61.497 L 67.2189,61.4734 L 67.0365,61.4266 L 66.8613,61.3572 L 66.6963,61.2665 L 66.5439,61.1558
 L 66.4065,61.0268 L 66.2865,60.8817 L 66.1855,60.7226 L 66.1053,60.5522 L 66.0471,60.373 L 66.0118,60.188
 L 66,60 L 66.0118,59.812 L 66.0471,59.627 L 66.1053,59.4478 L 66.1855,59.2774 L 66.2865,59.1183
 L 66.4065,58.9732 L 66.5439,58.8442 L 66.6963,58.7335 L 66.8613,58.6428 L 67.0365,58.5734 L 67.2189,58.5266
 L 67.4058,58.503 L 67.5942,58.503 L 67.7811,58.5266 L 67.9635,58.5734 L 68.1387,58.6428 L 68.3037,58.7335
 L 68.4561,58.8442 L 68.5934,58.9732 L 68.7135,59.1183 L 68.8145,59.2774 L 68.8947,59.4478 L 68.9529,59.627
 L 68.9882,59.812 L 69,60 L 68.9882,60.188 L 68.9529,60.373 L 68.8947,60.5522 L 68.8145,60.7226
 L 68.7135,60.8817 L 68.5934,61.0268 L 68.4561,61.1558 L 68.3037,61.2665 L 68.1387,61.3572 L 67.9635,61.4266
 L 67.7811,61.4734 L 67.5942,61.497 z
M 22.4058,61.497 L 22.2189,61.4734 L 22.0365,61.4266 L 21.8613,61.3572 L 21.6963,61.2665 L 21.5439,61.1558
 L 21.4065,61.0268 L 21.2865,60.8817 L 21.1855,60.7226 L 21.1053,60.5522 L 21.0471,60.373 L 21.0118,60.188
 L 21,60 L 21.0118,59.812 L 21.0471,59.627 L 21.1053,59.4478 L 21.1855,59.2774 L 21.2865,59.1183
 L 21.4065,58.9732 L 21.5439,58.8442 L 21.6963,58.7335 L 21.8613,58.6428 L 22.0365,58.5734 L 22.2189,58.5266
 L 22.4058,58.503 L 22.5942,58.503 L 22.7811,58.5266 L 22.9635,58.5734 L 23.1387,58.6428 L 23.3037,58.7335
 L 23.4561,58.8442 L 23.5934,58.9732 L 23.7135,59.1183 L 23.8145,59.2774 L 23.8947,59.4478 L 23.9529,59.627
 L 23.9882,59.812 L 24,60 L 23.9882,60.188 L 23.9529,60.373 L 23.8947,60.5522 L 23.8145,60.7226
 L 23.7135,60.8817 L 23.5934,61.0268 L 23.4561,61.1558 L 23.3037,61.2665 L 23.1387,61.3572 L 22.9635,61.4266
 L 22.7811,61.4734 L 22.5942,61.497 z
M -67.5942,61.497 L -67.7811,61.4734 L -67.9635,61.4266 L -68.1387,61.3572 L -68.3037,61.2665 L -68.4561,61.1558
 L -68.5934,61.0268 L -68.7135,60.8817 L -68.8145,60.7226 L -68.8947,60.5522 L -68.9529,60.373 L -68.9882,60.188
 L -69,60 L -68.9882,59.812 L -68.9529,59.627 L -68.8947,59.4478 L -68.8145,59.2774 L -68.7135,59.1183
 L -68.5934,58.9732 L -68.4561,58.8442 L -68.3037,58.7335 L -68.1387,58.6428 L -67.9635,58.5734 L -67.7811,58.5266
 L -67.5942,58.503 L -67.4058,58.503 L -67.2189,58.5266 L -67.0365,58.5734 L -66.8613,58.6428 L -66.6963,58.7335
 L -66.5439,58.8442 L -66.4065,58.9732 L -66.2865,59.1183 L -66.1855,59.2774 L -66.1053,59.4478 L -66.0471,59.627
 L -66.0118,59.812 L -66,60 L -66.0118,60.188 L -66.0471,60.373 L -66.1053,60.5522 L -66.1855,60.7226
 L -66.2865,60.8817 L -66.4065,61.0268 L -66.5439,61.1558 L -66.6963,61.2665 L -66.8613,61.3572 L -67.0365,61.4266
 L -67.2189,61.4734 L -67.4058,61.497 z
M -97.5942,61.497 L -97.7811,61.4734 L -97.9635,61.4266 L -98.1387,61.3572 L -98.3037,61.2665 L -98.4561,61.1558
 L -98.5934,61.0268 L -98.7135,60.8817 L -98.8145,60.7226 L -98.8947,60.5522 L -98.9529,60.373 L -98.9882,60.188
 L -99,60 L -98.9882,59.812 L -98.9529,59.627 L -98.8947,59.4478 L -98.8145,59.2774 L -98.7135,59.1183
 L -98.5934,58.9732 L -98.4561,58.8442 L -98.3037,58.7335 L -98.1387,58.6428 L -97.9635,58.5734 L -97.7811,58.5266
 L -97.5942,58.503 L -97.4058,58.503 L -97.2189,58.5266 L -97.0365,58.5734 L -96.8613,58.6428 L -96.6963,58.7335
 L -96.5439,58.8442 L -96.4065,58.9732 L -96.2865,59.1183 L -96.1855,59.2774 L -96.1053,59.4478 L -96.0471,59.627
 L -96.0118,59.812 L -96,60 L -96.0118,60.188 L -96.0471,60.373 L -96.1053,60.5522 L -96.1855,60.7226
 L -96.2865,60.8817 L -96.4065,61.0268 L -96.5439,61.1558 L -96.6963,61.2665 L -96.8613,61.3572 L -97.0365,61.4266
 L -97.2189,61.4734 L -97.4058,61.497 z
M 7.40581,61.497 L 7.21892,61.4734 L 7.03647,61.4266 L 6.86133,61.3572 L 6.69626,61.2665 L 6.54385,61.1558
 L 6.40654,61.0268 L 6.28647,60.8817 L 6.18553,60.7226 L 6.10533,60.5522 L 6.04712,60.373 L 6.01183,60.188
 L 6,60 L 6.01183,59.812 L 6.04712,59.627 L 6.10533,59.4478 L 6.18553,59.2774 L 6.28647,59.1183
 L 6.40654,58.9732 L 6.54385,58.8442 L 6.69626,58.7335 L 6.86133,58.6428 L 7.03647,58.5734 L 7.21892,58.5266
 L 7.40581,58.503 L 7.59418,58.503 L 7.78107,58.5266 L 7.96352,58.5734 L 8.13866,58.6428 L 8.30373,58.7335
 L 8.45613,58.8442 L 8.59344,58.9732 L 8.71352,59.1183 L 8.81445,59.2774 L 8.89465,59.4478 L 8.95287,59.627
 L 8.98816,59.812 L 9,60 L 8.98816,60.188 L 8.95287,60.373 L 8.89465,60.5522 L 8.81445,60.7226
 L 8.71352,60.8817 L 8.59344,61.0268 L 8.45613,61.1558 L 8.30373,61.2665 L 8.13866,61.3572 L 7.96352,61.4266
 L 7.78107,61.4734 L 7.59418,61.497 z
M -4.07083,12.4345 L -6.01117,18.4062 L -8.68466,24.0877 L -12.0491,29.3893 L -16.0516,34.2274 L -20.6288,38.5257
 L -25.7086,42.2164 L -31.211,45.2413 L -37.0491,47.5528 L -43.1309,49.1143 L -49.3605,49.9013 L -55.6395,49.9013
 L -61.8691,49.1143 L -67.9509,47.5528 L -73.789,45.2413 L -79.2913,42.2164 L -84.3712,38.5257 L -88.9484,34.2274
 L -92.9509,29.3893 L -96.3153,24.0877 L -98.9888,18.4062 L -100.929,12.4345 L -102.106,6.26665 L -102.5,-0
 L -102.106,-6.26665 L -100.929,-12.4345 L -98.9888,-18.4062 L -96.3153,-24.0877 L -92.9509,-29.3893 L -88.9484,-34.2274
 L -84.3712,-38.5257 L -79.2913,-42.2164 L -73.789,-45.2413 L -67.9509,-47.5528 L -61.8691,-49.1143 L -55.6395,-49.9013
 L -49.3605,-49.9013 L -43.1309,-49.1143 L -37.0491,-47.5528 L -31.211,-45.2413 L -25.7086,-42.2164 L -20.6288,-38.5257
 L -16.0516,-34.2274 L -12.0491,-29.3893 L -8.68466,-24.0877 L -6.01117,-18.4062 L -4.07083,-12.4345 L -2.89426,-6.26665
 L -2.5,-0 L -2.89426,6.26665 z
" stroke="black" fill="lightgray" stroke-width="0.5"/>
</svg>
