  0
SECTION
  2
BLOCKS
  0
ENDSEC
  0
SECTION
  2
ENTITIES
  0
LINE
  8
0
 10
40.4369
 20
-14.4114
 11
41.0451
 21
-14.2553
  0
LINE
  8
0
 10
41.0451
 20
-14.2553
 11
41.6289
 21
-14.0241
  0
LINE
  8
0
 10
41.6289
 20
-14.0241
 11
42.1791
 21
-13.7216
  0
LINE
  8
0
 10
42.1791
 20
-13.7216
 11
42.6871
 21
-13.3526
  0
LINE
  8
0
 10
42.6871
 20
-13.3526
 11
43.1448
 21
-12.9227
  0
LINE
  8
0
 10
43.1448
 20
-12.9227
 11
43.5451
 21
-12.4389
  0
LINE
  8
0
 10
43.5451
 20
-12.4389
 11
43.8815
 21
-11.9088
  0
LINE
  8
0
 10
43.8815
 20
-11.9088
 11
44.1489
 21
-11.3406
  0
LINE
  8
0
 10
44.1489
 20
-11.3406
 11
44.3429
 21
-10.7434
  0
LINE
  8
0
 10
44.3429
 20
-10.7434
 11
44.4606
 21
-10.1267
  0
LINE
  8
0
 10
44.4606
 20
-10.1267
 11
44.5
 21
-9.5
  0
LINE
  8
0
 10
44.5
 20
-9.5
 11
44.5
 21
9.5
  0
LINE
  8
0
 10
44.5
 20
9.5
 11
44.4606
 21
10.1267
  0
LINE
  8
0
 10
44.4606
 20
10.1267
 11
44.3429
 21
10.7434
  0
LINE
  8
0
 10
44.3429
 20
10.7434
 11
44.1489
 21
11.3406
  0
LINE
  8
0
 10
44.1489
 20
11.3406
 11
43.8815
 21
11.9088
  0
LINE
  8
0
 10
43.8815
 20
11.9088
 11
43.5451
 21
12.4389
  0
LINE
  8
0
 10
43.5451
 20
12.4389
 11
43.1448
 21
12.9227
  0
LINE
  8
0
 10
43.1448
 20
12.9227
 11
42.6871
 21
13.3526
  0
LINE
  8
0
 10
42.6871
 20
13.3526
 11
42.1791
 21
13.7216
  0
LINE
  8
0
 10
42.1791
 20
13.7216
 11
41.6289
 21
14.0241
  0
LINE
  8
0
 10
41.6289
 20
14.0241
 11
41.0451
 21
14.2553
  0
LINE
  8
0
 10
41.0451
 20
14.2553
 11
40.4369
 21
14.4114
  0
LINE
  8
0
 10
40.4369
 20
14.4114
 11
39.8139
 21
14.4901
  0
LINE
  8
0
 10
39.8139
 20
14.4901
 11
-39.8139
 21
14.4901
  0
LINE
  8
0
 10
-39.8139
 20
14.4901
 11
-40.4369
 21
14.4114
  0
LINE
  8
0
 10
-40.4369
 20
14.4114
 11
-41.0451
 21
14.2553
  0
LINE
  8
0
 10
-41.0451
 20
14.2553
 11
-41.6289
 21
14.0241
  0
LINE
  8
0
 10
-41.6289
 20
14.0241
 11
-42.1791
 21
13.7216
  0
LINE
  8
0
 10
-42.1791
 20
13.7216
 11
-42.6871
 21
13.3526
  0
LINE
  8
0
 10
-42.6871
 20
13.3526
 11
-43.1448
 21
12.9227
  0
LINE
  8
0
 10
-43.1448
 20
12.9227
 11
-43.5451
 21
12.4389
  0
LINE
  8
0
 10
-43.5451
 20
12.4389
 11
-43.8815
 21
11.9088
  0
LINE
  8
0
 10
-43.8815
 20
11.9088
 11
-44.1489
 21
11.3406
  0
LINE
  8
0
 10
-44.1489
 20
11.3406
 11
-44.3429
 21
10.7434
  0
LINE
  8
0
 10
-44.3429
 20
10.7434
 11
-44.4606
 21
10.1267
  0
LINE
  8
0
 10
-44.4606
 20
10.1267
 11
-44.5
 21
9.5
  0
LINE
  8
0
 10
-44.5
 20
9.5
 11
-44.5
 21
-9.5
  0
LINE
  8
0
 10
-44.5
 20
-9.5
 11
-44.4606
 21
-10.1267
  0
LINE
  8
0
 10
-44.4606
 20
-10.1267
 11
-44.3429
 21
-10.7434
  0
LINE
  8
0
 10
-44.3429
 20
-10.7434
 11
-44.1489
 21
-11.3406
  0
LINE
  8
0
 10
-44.1489
 20
-11.3406
 11
-43.8815
 21
-11.9088
  0
LINE
  8
0
 10
-43.8815
 20
-11.9088
 11
-43.5451
 21
-12.4389
  0
LINE
  8
0
 10
-43.5451
 20
-12.4389
 11
-43.1448
 21
-12.9227
  0
LINE
  8
0
 10
-43.1448
 20
-12.9227
 11
-42.6871
 21
-13.3526
  0
LINE
  8
0
 10
-42.6871
 20
-13.3526
 11
-42.1791
 21
-13.7216
  0
LINE
  8
0
 10
-42.1791
 20
-13.7216
 11
-41.6289
 21
-14.0241
  0
LINE
  8
0
 10
-41.6289
 20
-14.0241
 11
-41.0451
 21
-14.2553
  0
LINE
  8
0
 10
-41.0451
 20
-14.2553
 11
-40.4369
 21
-14.4114
  0
LINE
  8
0
 10
-40.4369
 20
-14.4114
 11
-39.8139
 21
-14.4901
  0
LINE
  8
0
 10
-39.8139
 20
-14.4901
 11
39.8139
 21
-14.4901
  0
LINE
  8
0
 10
39.8139
 20
-14.4901
 11
40.4369
 21
-14.4114
  0
LINE
  8
0
 10
-37.6884
 20
4.50591
 11
-38.0621
 21
4.55313
  0
LINE
  8
0
 10
-38.0621
 20
4.55313
 11
-38.427
 21
4.64682
  0
LINE
  8
0
 10
-38.427
 20
4.64682
 11
-38.7773
 21
4.78551
  0
LINE
  8
0
 10
-38.7773
 20
4.78551
 11
-39.1075
 21
4.96701
  0
LINE
  8
0
 10
-39.1075
 20
4.96701
 11
-39.4123
 21
5.18845
  0
LINE
  8
0
 10
-39.4123
 20
5.18845
 11
-39.6869
 21
5.44635
  0
LINE
  8
0
 10
-39.6869
 20
5.44635
 11
-39.927
 21
5.73663
  0
LINE
  8
0
 10
-39.927
 20
5.73663
 11
-40.1289
 21
6.05473
  0
LINE
  8
0
 10
-40.1289
 20
6.05473
 11
-40.2893
 21
6.39561
  0
LINE
  8
0
 10
-40.2893
 20
6.39561
 11
-40.4057
 21
6.75392
  0
LINE
  8
0
 10
-40.4057
 20
6.75392
 11
-40.4763
 21
7.12399
  0
LINE
  8
0
 10
-40.4763
 20
7.12399
 11
-40.5
 21
7.5
  0
LINE
  8
0
 10
-40.5
 20
7.5
 11
-40.4763
 21
7.87599
  0
LINE
  8
0
 10
-40.4763
 20
7.87599
 11
-40.4057
 21
8.24606
  0
LINE
  8
0
 10
-40.4057
 20
8.24606
 11
-40.2893
 21
8.60437
  0
LINE
  8
0
 10
-40.2893
 20
8.60437
 11
-40.1289
 21
8.94525
  0
LINE
  8
0
 10
-40.1289
 20
8.94525
 11
-39.927
 21
9.26335
  0
LINE
  8
0
 10
-39.927
 20
9.26335
 11
-39.6869
 21
9.55363
  0
LINE
  8
0
 10
-39.6869
 20
9.55363
 11
-39.4123
 21
9.81154
  0
LINE
  8
0
 10
-39.4123
 20
9.81154
 11
-39.1075
 21
10.033
  0
LINE
  8
0
 10
-39.1075
 20
10.033
 11
-38.7773
 21
10.2145
  0
LINE
  8
0
 10
-38.7773
 20
10.2145
 11
-38.427
 21
10.3532
  0
LINE
  8
0
 10
-38.427
 20
10.3532
 11
-38.0621
 21
10.4469
  0
LINE
  8
0
 10
-38.0621
 20
10.4469
 11
-37.6884
 21
10.4941
  0
LINE
  8
0
 10
-37.6884
 20
10.4941
 11
-37.3116
 21
10.4941
  0
LINE
  8
0
 10
-37.3116
 20
10.4941
 11
-36.9379
 21
10.4469
  0
LINE
  8
0
 10
-36.9379
 20
10.4469
 11
-36.5729
 21
10.3532
  0
LINE
  8
0
 10
-36.5729
 20
10.3532
 11
-36.2227
 21
10.2145
  0
LINE
  8
0
 10
-36.2227
 20
10.2145
 11
-35.8925
 21
10.033
  0
LINE
  8
0
 10
-35.8925
 20
10.033
 11
-35.5877
 21
9.81154
  0
LINE
  8
0
 10
-35.5877
 20
9.81154
 11
-35.3131
 21
9.55363
  0
LINE
  8
0
 10
-35.3131
 20
9.55363
 11
-35.0729
 21
9.26335
  0
LINE
  8
0
 10
-35.0729
 20
9.26335
 11
-34.8711
 21
8.94525
  0
LINE
  8
0
 10
-34.8711
 20
8.94525
 11
-34.7107
 21
8.60437
  0
LINE
  8
0
 10
-34.7107
 20
8.60437
 11
-34.5942
 21
8.24606
  0
LINE
  8
0
 10
-34.5942
 20
8.24606
 11
-34.5237
 21
7.87599
  0
LINE
  8
0
 10
-34.5237
 20
7.87599
 11
-34.5
 21
7.5
  0
LINE
  8
0
 10
-34.5
 20
7.5
 11
-34.5237
 21
7.12399
  0
LINE
  8
0
 10
-34.5237
 20
7.12399
 11
-34.5942
 21
6.75392
  0
LINE
  8
0
 10
-34.5942
 20
6.75392
 11
-34.7107
 21
6.39561
  0
LINE
  8
0
 10
-34.7107
 20
6.39561
 11
-34.8711
 21
6.05473
  0
LINE
  8
0
 10
-34.8711
 20
6.05473
 11
-35.0729
 21
5.73663
  0
LINE
  8
0
 10
-35.0729
 20
5.73663
 11
-35.3131
 21
5.44635
  0
LINE
  8
0
 10
-35.3131
 20
5.44635
 11
-35.5877
 21
5.18845
  0
LINE
  8
0
 10
-35.5877
 20
5.18845
 11
-35.8925
 21
4.96701
  0
LINE
  8
0
 10
-35.8925
 20
4.96701
 11
-36.2227
 21
4.78551
  0
LINE
  8
0
 10
-36.2227
 20
4.78551
 11
-36.5729
 21
4.64682
  0
LINE
  8
0
 10
-36.5729
 20
4.64682
 11
-36.9379
 21
4.55313
  0
LINE
  8
0
 10
-36.9379
 20
4.55313
 11
-37.3116
 21
4.50591
  0
LINE
  8
0
 10
-37.3116
 20
4.50591
 11
-37.6884
 21
4.50591
  0
LINE
  8
0
 10
37.3116
 20
4.50591
 11
36.9379
 21
4.55313
  0
LINE
  8
0
 10
36.9379
 20
4.55313
 11
36.5729
 21
4.64682
  0
LINE
  8
0
 10
36.5729
 20
4.64682
 11
36.2227
 21
4.78551
  0
LINE
  8
0
 10
36.2227
 20
4.78551
 11
35.8925
 21
4.96701
  0
LINE
  8
0
 10
35.8925
 20
4.96701
 11
35.5877
 21
5.18845
  0
LINE
  8
0
 10
35.5877
 20
5.18845
 11
35.3131
 21
5.44635
  0
LINE
  8
0
 10
35.3131
 20
5.44635
 11
35.0729
 21
5.73663
  0
LINE
  8
0
 10
35.0729
 20
5.73663
 11
34.8711
 21
6.05473
  0
LINE
  8
0
 10
34.8711
 20
6.05473
 11
34.7107
 21
6.39561
  0
LINE
  8
0
 10
34.7107
 20
6.39561
 11
34.5942
 21
6.75392
  0
LINE
  8
0
 10
34.5942
 20
6.75392
 11
34.5237
 21
7.12399
  0
LINE
  8
0
 10
34.5237
 20
7.12399
 11
34.5
 21
7.5
  0
LINE
  8
0
 10
34.5
 20
7.5
 11
34.5237
 21
7.87599
  0
LINE
  8
0
 10
34.5237
 20
7.87599
 11
34.5942
 21
8.24606
  0
LINE
  8
0
 10
34.5942
 20
8.24606
 11
34.7107
 21
8.60437
  0
LINE
  8
0
 10
34.7107
 20
8.60437
 11
34.8711
 21
8.94525
  0
LINE
  8
0
 10
34.8711
 20
8.94525
 11
35.0729
 21
9.26335
  0
LINE
  8
0
 10
35.0729
 20
9.26335
 11
35.3131
 21
9.55363
  0
LINE
  8
0
 10
35.3131
 20
9.55363
 11
35.5877
 21
9.81154
  0
LINE
  8
0
 10
35.5877
 20
9.81154
 11
35.8925
 21
10.033
  0
LINE
  8
0
 10
35.8925
 20
10.033
 11
36.2227
 21
10.2145
  0
LINE
  8
0
 10
36.2227
 20
10.2145
 11
36.5729
 21
10.3532
  0
LINE
  8
0
 10
36.5729
 20
10.3532
 11
36.9379
 21
10.4469
  0
LINE
  8
0
 10
36.9379
 20
10.4469
 11
37.3116
 21
10.4941
  0
LINE
  8
0
 10
37.3116
 20
10.4941
 11
37.6884
 21
10.4941
  0
LINE
  8
0
 10
37.6884
 20
10.4941
 11
38.0621
 21
10.4469
  0
LINE
  8
0
 10
38.0621
 20
10.4469
 11
38.427
 21
10.3532
  0
LINE
  8
0
 10
38.427
 20
10.3532
 11
38.7773
 21
10.2145
  0
LINE
  8
0
 10
38.7773
 20
10.2145
 11
39.1075
 21
10.033
  0
LINE
  8
0
 10
39.1075
 20
10.033
 11
39.4123
 21
9.81154
  0
LINE
  8
0
 10
39.4123
 20
9.81154
 11
39.6869
 21
9.55363
  0
LINE
  8
0
 10
39.6869
 20
9.55363
 11
39.927
 21
9.26335
  0
LINE
  8
0
 10
39.927
 20
9.26335
 11
40.1289
 21
8.94525
  0
LINE
  8
0
 10
40.1289
 20
8.94525
 11
40.2893
 21
8.60437
  0
LINE
  8
0
 10
40.2893
 20
8.60437
 11
40.4057
 21
8.24606
  0
LINE
  8
0
 10
40.4057
 20
8.24606
 11
40.4763
 21
7.87599
  0
LINE
  8
0
 10
40.4763
 20
7.87599
 11
40.5
 21
7.5
  0
LINE
  8
0
 10
40.5
 20
7.5
 11
40.4763
 21
7.12399
  0
LINE
  8
0
 10
40.4763
 20
7.12399
 11
40.4057
 21
6.75392
  0
LINE
  8
0
 10
40.4057
 20
6.75392
 11
40.2893
 21
6.39561
  0
LINE
  8
0
 10
40.2893
 20
6.39561
 11
40.1289
 21
6.05473
  0
LINE
  8
0
 10
40.1289
 20
6.05473
 11
39.927
 21
5.73663
  0
LINE
  8
0
 10
39.927
 20
5.73663
 11
39.6869
 21
5.44635
  0
LINE
  8
0
 10
39.6869
 20
5.44635
 11
39.4123
 21
5.18845
  0
LINE
  8
0
 10
39.4123
 20
5.18845
 11
39.1075
 21
4.96701
  0
LINE
  8
0
 10
39.1075
 20
4.96701
 11
38.7773
 21
4.78551
  0
LINE
  8
0
 10
38.7773
 20
4.78551
 11
38.427
 21
4.64682
  0
LINE
  8
0
 10
38.427
 20
4.64682
 11
38.0621
 21
4.55313
  0
LINE
  8
0
 10
38.0621
 20
4.55313
 11
37.6884
 21
4.50591
  0
LINE
  8
0
 10
37.6884
 20
4.50591
 11
37.3116
 21
4.50591
  0
LINE
  8
0
 10
12.7488
 20
-3.9921
 11
12.2505
 21
-3.92914
  0
LINE
  8
0
 10
12.2505
 20
-3.92914
 11
11.7639
 21
-3.80421
  0
LINE
  8
0
 10
11.7639
 20
-3.80421
 11
11.2969
 21
-3.61929
  0
LINE
  8
0
 10
11.2969
 20
-3.61929
 11
10.8567
 21
-3.3773
  0
LINE
  8
0
 10
10.8567
 20
-3.3773
 11
10.4503
 21
-3.08205
  0
LINE
  8
0
 10
10.4503
 20
-3.08205
 11
10.0841
 21
-2.73817
  0
LINE
  8
0
 10
10.0841
 20
-2.73817
 11
9.76393
 21
-2.35114
  0
LINE
  8
0
 10
9.76393
 20
-2.35114
 11
9.49477
 21
-1.927
  0
LINE
  8
0
 10
9.49477
 20
-1.927
 11
9.28088
 21
-1.47249
  0
LINE
  8
0
 10
9.28088
 20
-1.47249
 11
9.12566
 21
-0.994751
  0
LINE
  8
0
 10
9.12566
 20
-0.994751
 11
9.03154
 21
-0.501328
  0
LINE
  8
0
 10
9.03154
 20
-0.501328
 11
9
 21
0
  0
LINE
  8
0
 10
9
 20
0
 11
9.03154
 21
0.501328
  0
LINE
  8
0
 10
9.03154
 20
0.501328
 11
9.12566
 21
0.994751
  0
LINE
  8
0
 10
9.12566
 20
0.994751
 11
9.28088
 21
1.47249
  0
LINE
  8
0
 10
9.28088
 20
1.47249
 11
9.49477
 21
1.927
  0
LINE
  8
0
 10
9.49477
 20
1.927
 11
9.76393
 21
2.35114
  0
LINE
  8
0
 10
9.76393
 20
2.35114
 11
10.0841
 21
2.73817
  0
LINE
  8
0
 10
10.0841
 20
2.73817
 11
10.4503
 21
3.08205
  0
LINE
  8
0
 10
10.4503
 20
3.08205
 11
10.8567
 21
3.3773
  0
LINE
  8
0
 10
10.8567
 20
3.3773
 11
11.2969
 21
3.61929
  0
LINE
  8
0
 10
11.2969
 20
3.61929
 11
11.7639
 21
3.80421
  0
LINE
  8
0
 10
11.7639
 20
3.80421
 11
12.2505
 21
3.92914
  0
LINE
  8
0
 10
12.2505
 20
3.92914
 11
12.7488
 21
3.9921
  0
LINE
  8
0
 10
12.7488
 20
3.9921
 11
13.2512
 21
3.9921
  0
LINE
  8
0
 10
13.2512
 20
3.9921
 11
13.7495
 21
3.92914
  0
LINE
  8
0
 10
13.7495
 20
3.92914
 11
14.2361
 21
3.80421
  0
LINE
  8
0
 10
14.2361
 20
3.80421
 11
14.7031
 21
3.61929
  0
LINE
  8
0
 10
14.7031
 20
3.61929
 11
15.1433
 21
3.3773
  0
LINE
  8
0
 10
15.1433
 20
3.3773
 11
15.5497
 21
3.08205
  0
LINE
  8
0
 10
15.5497
 20
3.08205
 11
15.9159
 21
2.73817
  0
LINE
  8
0
 10
15.9159
 20
2.73817
 11
16.2361
 21
2.35114
  0
LINE
  8
0
 10
16.2361
 20
2.35114
 11
16.5052
 21
1.927
  0
LINE
  8
0
 10
16.5052
 20
1.927
 11
16.7191
 21
1.47249
  0
LINE
  8
0
 10
16.7191
 20
1.47249
 11
16.8743
 21
0.994751
  0
LINE
  8
0
 10
16.8743
 20
0.994751
 11
16.9684
 21
0.501328
  0
LINE
  8
0
 10
16.9684
 20
0.501328
 11
17
 21
0
  0
LINE
  8
0
 10
17
 20
0
 11
16.9684
 21
-0.501328
  0
LINE
  8
0
 10
16.9684
 20
-0.501328
 11
16.8743
 21
-0.994751
  0
LINE
  8
0
 10
16.8743
 20
-0.994751
 11
16.7191
 21
-1.47249
  0
LINE
  8
0
 10
16.7191
 20
-1.47249
 11
16.5052
 21
-1.927
  0
LINE
  8
0
 10
16.5052
 20
-1.927
 11
16.2361
 21
-2.35114
  0
LINE
  8
0
 10
16.2361
 20
-2.35114
 11
15.9159
 21
-2.73817
  0
LINE
  8
0
 10
15.9159
 20
-2.73817
 11
15.5497
 21
-3.08205
  0
LINE
  8
0
 10
15.5497
 20
-3.08205
 11
15.1433
 21
-3.3773
  0
LINE
  8
0
 10
15.1433
 20
-3.3773
 11
14.7031
 21
-3.61929
  0
LINE
  8
0
 10
14.7031
 20
-3.61929
 11
14.2361
 21
-3.80421
  0
LINE
  8
0
 10
14.2361
 20
-3.80421
 11
13.7495
 21
-3.92914
  0
LINE
  8
0
 10
13.7495
 20
-3.92914
 11
13.2512
 21
-3.9921
  0
LINE
  8
0
 10
13.2512
 20
-3.9921
 11
12.7488
 21
-3.9921
  0
LINE
  8
0
 10
-13.2512
 20
-3.9921
 11
-13.7495
 21
-3.92914
  0
LINE
  8
0
 10
-13.7495
 20
-3.92914
 11
-14.2361
 21
-3.80421
  0
LINE
  8
0
 10
-14.2361
 20
-3.80421
 11
-14.7031
 21
-3.61929
  0
LINE
  8
0
 10
-14.7031
 20
-3.61929
 11
-15.1433
 21
-3.3773
  0
LINE
  8
0
 10
-15.1433
 20
-3.3773
 11
-15.5497
 21
-3.08205
  0
LINE
  8
0
 10
-15.5497
 20
-3.08205
 11
-15.9159
 21
-2.73817
  0
LINE
  8
0
 10
-15.9159
 20
-2.73817
 11
-16.2361
 21
-2.35114
  0
LINE
  8
0
 10
-16.2361
 20
-2.35114
 11
-16.5052
 21
-1.927
  0
LINE
  8
0
 10
-16.5052
 20
-1.927
 11
-16.7191
 21
-1.47249
  0
LINE
  8
0
 10
-16.7191
 20
-1.47249
 11
-16.8743
 21
-0.994751
  0
LINE
  8
0
 10
-16.8743
 20
-0.994751
 11
-16.9684
 21
-0.501328
  0
LINE
  8
0
 10
-16.9684
 20
-0.501328
 11
-17
 21
0
  0
LINE
  8
0
 10
-17
 20
0
 11
-16.9684
 21
0.501328
  0
LINE
  8
0
 10
-16.9684
 20
0.501328
 11
-16.8743
 21
0.994751
  0
LINE
  8
0
 10
-16.8743
 20
0.994751
 11
-16.7191
 21
1.47249
  0
LINE
  8
0
 10
-16.7191
 20
1.47249
 11
-16.5052
 21
1.927
  0
LINE
  8
0
 10
-16.5052
 20
1.927
 11
-16.2361
 21
2.35114
  0
LINE
  8
0
 10
-16.2361
 20
2.35114
 11
-15.9159
 21
2.73817
  0
LINE
  8
0
 10
-15.9159
 20
2.73817
 11
-15.5497
 21
3.08205
  0
LINE
  8
0
 10
-15.5497
 20
3.08205
 11
-15.1433
 21
3.3773
  0
LINE
  8
0
 10
-15.1433
 20
3.3773
 11
-14.7031
 21
3.61929
  0
LINE
  8
0
 10
-14.7031
 20
3.61929
 11
-14.2361
 21
3.80421
  0
LINE
  8
0
 10
-14.2361
 20
3.80421
 11
-13.7495
 21
3.92914
  0
LINE
  8
0
 10
-13.7495
 20
3.92914
 11
-13.2512
 21
3.9921
  0
LINE
  8
0
 10
-13.2512
 20
3.9921
 11
-12.7488
 21
3.9921
  0
LINE
  8
0
 10
-12.7488
 20
3.9921
 11
-12.2505
 21
3.92914
  0
LINE
  8
0
 10
-12.2505
 20
3.92914
 11
-11.7639
 21
3.80421
  0
LINE
  8
0
 10
-11.7639
 20
3.80421
 11
-11.2969
 21
3.61929
  0
LINE
  8
0
 10
-11.2969
 20
3.61929
 11
-10.8567
 21
3.3773
  0
LINE
  8
0
 10
-10.8567
 20
3.3773
 11
-10.4503
 21
3.08205
  0
LINE
  8
0
 10
-10.4503
 20
3.08205
 11
-10.0841
 21
2.73817
  0
LINE
  8
0
 10
-10.0841
 20
2.73817
 11
-9.76393
 21
2.35114
  0
LINE
  8
0
 10
-9.76393
 20
2.35114
 11
-9.49477
 21
1.927
  0
LINE
  8
0
 10
-9.49477
 20
1.927
 11
-9.28088
 21
1.47249
  0
LINE
  8
0
 10
-9.28088
 20
1.47249
 11
-9.12566
 21
0.994751
  0
LINE
  8
0
 10
-9.12566
 20
0.994751
 11
-9.03154
 21
0.501328
  0
LINE
  8
0
 10
-9.03154
 20
0.501328
 11
-9
 21
0
  0
LINE
  8
0
 10
-9
 20
0
 11
-9.03154
 21
-0.501328
  0
LINE
  8
0
 10
-9.03154
 20
-0.501328
 11
-9.12566
 21
-0.994751
  0
LINE
  8
0
 10
-9.12566
 20
-0.994751
 11
-9.28088
 21
-1.47249
  0
LINE
  8
0
 10
-9.28088
 20
-1.47249
 11
-9.49477
 21
-1.927
  0
LINE
  8
0
 10
-9.49477
 20
-1.927
 11
-9.76393
 21
-2.35114
  0
LINE
  8
0
 10
-9.76393
 20
-2.35114
 11
-10.0841
 21
-2.73817
  0
LINE
  8
0
 10
-10.0841
 20
-2.73817
 11
-10.4503
 21
-3.08205
  0
LINE
  8
0
 10
-10.4503
 20
-3.08205
 11
-10.8567
 21
-3.3773
  0
LINE
  8
0
 10
-10.8567
 20
-3.3773
 11
-11.2969
 21
-3.61929
  0
LINE
  8
0
 10
-11.2969
 20
-3.61929
 11
-11.7639
 21
-3.80421
  0
LINE
  8
0
 10
-11.7639
 20
-3.80421
 11
-12.2505
 21
-3.92914
  0
LINE
  8
0
 10
-12.2505
 20
-3.92914
 11
-12.7488
 21
-3.9921
  0
LINE
  8
0
 10
-12.7488
 20
-3.9921
 11
-13.2512
 21
-3.9921
  0
LINE
  8
0
 10
25.7488
 20
-3.9921
 11
25.2505
 21
-3.92914
  0
LINE
  8
0
 10
25.2505
 20
-3.92914
 11
24.7639
 21
-3.80421
  0
LINE
  8
0
 10
24.7639
 20
-3.80421
 11
24.2969
 21
-3.61929
  0
LINE
  8
0
 10
24.2969
 20
-3.61929
 11
23.8567
 21
-3.3773
  0
LINE
  8
0
 10
23.8567
 20
-3.3773
 11
23.4503
 21
-3.08205
  0
LINE
  8
0
 10
23.4503
 20
-3.08205
 11
23.0841
 21
-2.73817
  0
LINE
  8
0
 10
23.0841
 20
-2.73817
 11
22.7639
 21
-2.35114
  0
LINE
  8
0
 10
22.7639
 20
-2.35114
 11
22.4948
 21
-1.927
  0
LINE
  8
0
 10
22.4948
 20
-1.927
 11
22.2809
 21
-1.47249
  0
LINE
  8
0
 10
22.2809
 20
-1.47249
 11
22.1257
 21
-0.994751
  0
LINE
  8
0
 10
22.1257
 20
-0.994751
 11
22.0315
 21
-0.501328
  0
LINE
  8
0
 10
22.0315
 20
-0.501328
 11
22
 21
0
  0
LINE
  8
0
 10
22
 20
0
 11
22.0315
 21
0.501328
  0
LINE
  8
0
 10
22.0315
 20
0.501328
 11
22.1257
 21
0.994751
  0
LINE
  8
0
 10
22.1257
 20
0.994751
 11
22.2809
 21
1.47249
  0
LINE
  8
0
 10
22.2809
 20
1.47249
 11
22.4948
 21
1.927
  0
LINE
  8
0
 10
22.4948
 20
1.927
 11
22.7639
 21
2.35114
  0
LINE
  8
0
 10
22.7639
 20
2.35114
 11
23.0841
 21
2.73817
  0
LINE
  8
0
 10
23.0841
 20
2.73817
 11
23.4503
 21
3.08205
  0
LINE
  8
0
 10
23.4503
 20
3.08205
 11
23.8567
 21
3.3773
  0
LINE
  8
0
 10
23.8567
 20
3.3773
 11
24.2969
 21
3.61929
  0
LINE
  8
0
 10
24.2969
 20
3.61929
 11
24.7639
 21
3.80421
  0
LINE
  8
0
 10
24.7639
 20
3.80421
 11
25.2505
 21
3.92914
  0
LINE
  8
0
 10
25.2505
 20
3.92914
 11
25.7488
 21
3.9921
  0
LINE
  8
0
 10
25.7488
 20
3.9921
 11
26.2512
 21
3.9921
  0
LINE
  8
0
 10
26.2512
 20
3.9921
 11
26.7495
 21
3.92914
  0
LINE
  8
0
 10
26.7495
 20
3.92914
 11
27.2361
 21
3.80421
  0
LINE
  8
0
 10
27.2361
 20
3.80421
 11
27.7031
 21
3.61929
  0
LINE
  8
0
 10
27.7031
 20
3.61929
 11
28.1433
 21
3.3773
  0
LINE
  8
0
 10
28.1433
 20
3.3773
 11
28.5497
 21
3.08205
  0
LINE
  8
0
 10
28.5497
 20
3.08205
 11
28.9159
 21
2.73817
  0
LINE
  8
0
 10
28.9159
 20
2.73817
 11
29.2361
 21
2.35114
  0
LINE
  8
0
 10
29.2361
 20
2.35114
 11
29.5052
 21
1.927
  0
LINE
  8
0
 10
29.5052
 20
1.927
 11
29.7191
 21
1.47249
  0
LINE
  8
0
 10
29.7191
 20
1.47249
 11
29.8743
 21
0.994751
  0
LINE
  8
0
 10
29.8743
 20
0.994751
 11
29.9684
 21
0.501328
  0
LINE
  8
0
 10
29.9684
 20
0.501328
 11
30
 21
0
  0
LINE
  8
0
 10
30
 20
0
 11
29.9684
 21
-0.501328
  0
LINE
  8
0
 10
29.9684
 20
-0.501328
 11
29.8743
 21
-0.994751
  0
LINE
  8
0
 10
29.8743
 20
-0.994751
 11
29.7191
 21
-1.47249
  0
LINE
  8
0
 10
29.7191
 20
-1.47249
 11
29.5052
 21
-1.927
  0
LINE
  8
0
 10
29.5052
 20
-1.927
 11
29.2361
 21
-2.35114
  0
LINE
  8
0
 10
29.2361
 20
-2.35114
 11
28.9159
 21
-2.73817
  0
LINE
  8
0
 10
28.9159
 20
-2.73817
 11
28.5497
 21
-3.08205
  0
LINE
  8
0
 10
28.5497
 20
-3.08205
 11
28.1433
 21
-3.3773
  0
LINE
  8
0
 10
28.1433
 20
-3.3773
 11
27.7031
 21
-3.61929
  0
LINE
  8
0
 10
27.7031
 20
-3.61929
 11
27.2361
 21
-3.80421
  0
LINE
  8
0
 10
27.2361
 20
-3.80421
 11
26.7495
 21
-3.92914
  0
LINE
  8
0
 10
26.7495
 20
-3.92914
 11
26.2512
 21
-3.9921
  0
LINE
  8
0
 10
26.2512
 20
-3.9921
 11
25.7488
 21
-3.9921
  0
LINE
  8
0
 10
-0.25116
 20
-3.9921
 11
-0.749512
 21
-3.92914
  0
LINE
  8
0
 10
-0.749512
 20
-3.92914
 11
-1.23605
 21
-3.80421
  0
LINE
  8
0
 10
-1.23605
 20
-3.80421
 11
-1.70311
 21
-3.61929
  0
LINE
  8
0
 10
-1.70311
 20
-3.61929
 11
-2.1433
 21
-3.3773
  0
LINE
  8
0
 10
-2.1433
 20
-3.3773
 11
-2.54968
 21
-3.08205
  0
LINE
  8
0
 10
-2.54968
 20
-3.08205
 11
-2.91586
 21
-2.73817
  0
LINE
  8
0
 10
-2.91586
 20
-2.73817
 11
-3.23605
 21
-2.35114
  0
LINE
  8
0
 10
-3.23605
 20
-2.35114
 11
-3.50522
 21
-1.927
  0
LINE
  8
0
 10
-3.50522
 20
-1.927
 11
-3.7191
 21
-1.47249
  0
LINE
  8
0
 10
-3.7191
 20
-1.47249
 11
-3.87433
 21
-0.994751
  0
LINE
  8
0
 10
-3.87433
 20
-0.994751
 11
-3.96844
 21
-0.501328
  0
LINE
  8
0
 10
-3.96844
 20
-0.501328
 11
-4
 21
0
  0
LINE
  8
0
 10
-4
 20
0
 11
-3.96844
 21
0.501328
  0
LINE
  8
0
 10
-3.96844
 20
0.501328
 11
-3.87433
 21
0.994751
  0
LINE
  8
0
 10
-3.87433
 20
0.994751
 11
-3.7191
 21
1.47249
  0
LINE
  8
0
 10
-3.7191
 20
1.47249
 11
-3.50522
 21
1.927
  0
LINE
  8
0
 10
-3.50522
 20
1.927
 11
-3.23605
 21
2.35114
  0
LINE
  8
0
 10
-3.23605
 20
2.35114
 11
-2.91586
 21
2.73817
  0
LINE
  8
0
 10
-2.91586
 20
2.73817
 11
-2.54968
 21
3.08205
  0
LINE
  8
0
 10
-2.54968
 20
3.08205
 11
-2.1433
 21
3.3773
  0
LINE
  8
0
 10
-2.1433
 20
3.3773
 11
-1.70311
 21
3.61929
  0
LINE
  8
0
 10
-1.70311
 20
3.61929
 11
-1.23605
 21
3.80421
  0
LINE
  8
0
 10
-1.23605
 20
3.80421
 11
-0.749512
 21
3.92914
  0
LINE
  8
0
 10
-0.749512
 20
3.92914
 11
-0.25116
 21
3.9921
  0
LINE
  8
0
 10
-0.25116
 20
3.9921
 11
0.25116
 21
3.9921
  0
LINE
  8
0
 10
0.25116
 20
3.9921
 11
0.749512
 21
3.92914
  0
LINE
  8
0
 10
0.749512
 20
3.92914
 11
1.23605
 21
3.80421
  0
LINE
  8
0
 10
1.23605
 20
3.80421
 11
1.70311
 21
3.61929
  0
LINE
  8
0
 10
1.70311
 20
3.61929
 11
2.1433
 21
3.3773
  0
LINE
  8
0
 10
2.1433
 20
3.3773
 11
2.54968
 21
3.08205
  0
LINE
  8
0
 10
2.54968
 20
3.08205
 11
2.91586
 21
2.73817
  0
LINE
  8
0
 10
2.91586
 20
2.73817
 11
3.23605
 21
2.35114
  0
LINE
  8
0
 10
3.23605
 20
2.35114
 11
3.50522
 21
1.927
  0
LINE
  8
0
 10
3.50522
 20
1.927
 11
3.7191
 21
1.47249
  0
LINE
  8
0
 10
3.7191
 20
1.47249
 11
3.87433
 21
0.994751
  0
LINE
  8
0
 10
3.87433
 20
0.994751
 11
3.96844
 21
0.501328
  0
LINE
  8
0
 10
3.96844
 20
0.501328
 11
4
 21
0
  0
LINE
  8
0
 10
4
 20
0
 11
3.96844
 21
-0.501328
  0
LINE
  8
0
 10
3.96844
 20
-0.501328
 11
3.87433
 21
-0.994751
  0
LINE
  8
0
 10
3.87433
 20
-0.994751
 11
3.7191
 21
-1.47249
  0
LINE
  8
0
 10
3.7191
 20
-1.47249
 11
3.50522
 21
-1.927
  0
LINE
  8
0
 10
3.50522
 20
-1.927
 11
3.23605
 21
-2.35114
  0
LINE
  8
0
 10
3.23605
 20
-2.35114
 11
2.91586
 21
-2.73817
  0
LINE
  8
0
 10
2.91586
 20
-2.73817
 11
2.54968
 21
-3.08205
  0
LINE
  8
0
 10
2.54968
 20
-3.08205
 11
2.1433
 21
-3.3773
  0
LINE
  8
0
 10
2.1433
 20
-3.3773
 11
1.70311
 21
-3.61929
  0
LINE
  8
0
 10
1.70311
 20
-3.61929
 11
1.23605
 21
-3.80421
  0
LINE
  8
0
 10
1.23605
 20
-3.80421
 11
0.749512
 21
-3.92914
  0
LINE
  8
0
 10
0.749512
 20
-3.92914
 11
0.25116
 21
-3.9921
  0
LINE
  8
0
 10
0.25116
 20
-3.9921
 11
-0.25116
 21
-3.9921
  0
LINE
  8
0
 10
-26.2512
 20
-3.9921
 11
-26.7495
 21
-3.92914
  0
LINE
  8
0
 10
-26.7495
 20
-3.92914
 11
-27.2361
 21
-3.80421
  0
LINE
  8
0
 10
-27.2361
 20
-3.80421
 11
-27.7031
 21
-3.61929
  0
LINE
  8
0
 10
-27.7031
 20
-3.61929
 11
-28.1433
 21
-3.3773
  0
LINE
  8
0
 10
-28.1433
 20
-3.3773
 11
-28.5497
 21
-3.08205
  0
LINE
  8
0
 10
-28.5497
 20
-3.08205
 11
-28.9159
 21
-2.73817
  0
LINE
  8
0
 10
-28.9159
 20
-2.73817
 11
-29.2361
 21
-2.35114
  0
LINE
  8
0
 10
-29.2361
 20
-2.35114
 11
-29.5052
 21
-1.927
  0
LINE
  8
0
 10
-29.5052
 20
-1.927
 11
-29.7191
 21
-1.47249
  0
LINE
  8
0
 10
-29.7191
 20
-1.47249
 11
-29.8743
 21
-0.994751
  0
LINE
  8
0
 10
-29.8743
 20
-0.994751
 11
-29.9684
 21
-0.501328
  0
LINE
  8
0
 10
-29.9684
 20
-0.501328
 11
-30
 21
0
  0
LINE
  8
0
 10
-30
 20
0
 11
-29.9684
 21
0.501328
  0
LINE
  8
0
 10
-29.9684
 20
0.501328
 11
-29.8743
 21
0.994751
  0
LINE
  8
0
 10
-29.8743
 20
0.994751
 11
-29.7191
 21
1.47249
  0
LINE
  8
0
 10
-29.7191
 20
1.47249
 11
-29.5052
 21
1.927
  0
LINE
  8
0
 10
-29.5052
 20
1.927
 11
-29.2361
 21
2.35114
  0
LINE
  8
0
 10
-29.2361
 20
2.35114
 11
-28.9159
 21
2.73817
  0
LINE
  8
0
 10
-28.9159
 20
2.73817
 11
-28.5497
 21
3.08205
  0
LINE
  8
0
 10
-28.5497
 20
3.08205
 11
-28.1433
 21
3.3773
  0
LINE
  8
0
 10
-28.1433
 20
3.3773
 11
-27.7031
 21
3.61929
  0
LINE
  8
0
 10
-27.7031
 20
3.61929
 11
-27.2361
 21
3.80421
  0
LINE
  8
0
 10
-27.2361
 20
3.80421
 11
-26.7495
 21
3.92914
  0
LINE
  8
0
 10
-26.7495
 20
3.92914
 11
-26.2512
 21
3.9921
  0
LINE
  8
0
 10
-26.2512
 20
3.9921
 11
-25.7488
 21
3.9921
  0
LINE
  8
0
 10
-25.7488
 20
3.9921
 11
-25.2505
 21
3.92914
  0
LINE
  8
0
 10
-25.2505
 20
3.92914
 11
-24.7639
 21
3.80421
  0
LINE
  8
0
 10
-24.7639
 20
3.80421
 11
-24.2969
 21
3.61929
  0
LINE
  8
0
 10
-24.2969
 20
3.61929
 11
-23.8567
 21
3.3773
  0
LINE
  8
0
 10
-23.8567
 20
3.3773
 11
-23.4503
 21
3.08205
  0
LINE
  8
0
 10
-23.4503
 20
3.08205
 11
-23.0841
 21
2.73817
  0
LINE
  8
0
 10
-23.0841
 20
2.73817
 11
-22.7639
 21
2.35114
  0
LINE
  8
0
 10
-22.7639
 20
2.35114
 11
-22.4948
 21
1.927
  0
LINE
  8
0
 10
-22.4948
 20
1.927
 11
-22.2809
 21
1.47249
  0
LINE
  8
0
 10
-22.2809
 20
1.47249
 11
-22.1257
 21
0.994751
  0
LINE
  8
0
 10
-22.1257
 20
0.994751
 11
-22.0315
 21
0.501328
  0
LINE
  8
0
 10
-22.0315
 20
0.501328
 11
-22
 21
0
  0
LINE
  8
0
 10
-22
 20
0
 11
-22.0315
 21
-0.501328
  0
LINE
  8
0
 10
-22.0315
 20
-0.501328
 11
-22.1257
 21
-0.994751
  0
LINE
  8
0
 10
-22.1257
 20
-0.994751
 11
-22.2809
 21
-1.47249
  0
LINE
  8
0
 10
-22.2809
 20
-1.47249
 11
-22.4948
 21
-1.927
  0
LINE
  8
0
 10
-22.4948
 20
-1.927
 11
-22.7639
 21
-2.35114
  0
LINE
  8
0
 10
-22.7639
 20
-2.35114
 11
-23.0841
 21
-2.73817
  0
LINE
  8
0
 10
-23.0841
 20
-2.73817
 11
-23.4503
 21
-3.08205
  0
LINE
  8
0
 10
-23.4503
 20
-3.08205
 11
-23.8567
 21
-3.3773
  0
LINE
  8
0
 10
-23.8567
 20
-3.3773
 11
-24.2969
 21
-3.61929
  0
LINE
  8
0
 10
-24.2969
 20
-3.61929
 11
-24.7639
 21
-3.80421
  0
LINE
  8
0
 10
-24.7639
 20
-3.80421
 11
-25.2505
 21
-3.92914
  0
LINE
  8
0
 10
-25.2505
 20
-3.92914
 11
-25.7488
 21
-3.9921
  0
LINE
  8
0
 10
-25.7488
 20
-3.9921
 11
-26.2512
 21
-3.9921
  0
LINE
  8
0
 10
37.4058
 20
-1.49704
 11
37.2189
 21
-1.47342
  0
LINE
  8
0
 10
37.2189
 20
-1.47342
 11
37.0365
 21
-1.42657
  0
LINE
  8
0
 10
37.0365
 20
-1.42657
 11
36.8613
 21
-1.35724
  0
LINE
  8
0
 10
36.8613
 20
-1.35724
 11
36.6963
 21
-1.26648
  0
LINE
  8
0
 10
36.6963
 20
-1.26648
 11
36.5439
 21
-1.15576
  0
LINE
  8
0
 10
36.5439
 20
-1.15576
 11
36.4065
 21
-1.02681
  0
LINE
  8
0
 10
36.4065
 20
-1.02681
 11
36.2865
 21
-0.881668
  0
LINE
  8
0
 10
36.2865
 20
-0.881668
 11
36.1855
 21
-0.722626
  0
LINE
  8
0
 10
36.1855
 20
-0.722626
 11
36.1053
 21
-0.552185
  0
LINE
  8
0
 10
36.1053
 20
-0.552185
 11
36.0471
 21
-0.373032
  0
LINE
  8
0
 10
36.0471
 20
-0.373032
 11
36.0118
 21
-0.187988
  0
LINE
  8
0
 10
36.0118
 20
-0.187988
 11
36
 21
0
  0
LINE
  8
0
 10
36
 20
0
 11
36.0118
 21
0.187988
  0
LINE
  8
0
 10
36.0118
 20
0.187988
 11
36.0471
 21
0.373032
  0
LINE
  8
0
 10
36.0471
 20
0.373032
 11
36.1053
 21
0.552185
  0
LINE
  8
0
 10
36.1053
 20
0.552185
 11
36.1855
 21
0.722626
  0
LINE
  8
0
 10
36.1855
 20
0.722626
 11
36.2865
 21
0.881668
  0
LINE
  8
0
 10
36.2865
 20
0.881668
 11
36.4065
 21
1.02681
  0
LINE
  8
0
 10
36.4065
 20
1.02681
 11
36.5439
 21
1.15576
  0
LINE
  8
0
 10
36.5439
 20
1.15576
 11
36.6963
 21
1.26648
  0
LINE
  8
0
 10
36.6963
 20
1.26648
 11
36.8613
 21
1.35724
  0
LINE
  8
0
 10
36.8613
 20
1.35724
 11
37.0365
 21
1.42657
  0
LINE
  8
0
 10
37.0365
 20
1.42657
 11
37.2189
 21
1.47342
  0
LINE
  8
0
 10
37.2189
 20
1.47342
 11
37.4058
 21
1.49704
  0
LINE
  8
0
 10
37.4058
 20
1.49704
 11
37.5942
 21
1.49704
  0
LINE
  8
0
 10
37.5942
 20
1.49704
 11
37.7811
 21
1.47342
  0
LINE
  8
0
 10
37.7811
 20
1.47342
 11
37.9635
 21
1.42657
  0
LINE
  8
0
 10
37.9635
 20
1.42657
 11
38.1387
 21
1.35724
  0
LINE
  8
0
 10
38.1387
 20
1.35724
 11
38.3037
 21
1.26648
  0
LINE
  8
0
 10
38.3037
 20
1.26648
 11
38.4561
 21
1.15576
  0
LINE
  8
0
 10
38.4561
 20
1.15576
 11
38.5934
 21
1.02681
  0
LINE
  8
0
 10
38.5934
 20
1.02681
 11
38.7135
 21
0.881668
  0
LINE
  8
0
 10
38.7135
 20
0.881668
 11
38.8145
 21
0.722626
  0
LINE
  8
0
 10
38.8145
 20
0.722626
 11
38.8947
 21
0.552185
  0
LINE
  8
0
 10
38.8947
 20
0.552185
 11
38.9529
 21
0.373032
  0
LINE
  8
0
 10
38.9529
 20
0.373032
 11
38.9882
 21
0.187988
  0
LINE
  8
0
 10
38.9882
 20
0.187988
 11
39
 21
0
  0
LINE
  8
0
 10
39
 20
0
 11
38.9882
 21
-0.187988
  0
LINE
  8
0
 10
38.9882
 20
-0.187988
 11
38.9529
 21
-0.373032
  0
LINE
  8
0
 10
38.9529
 20
-0.373032
 11
38.8947
 21
-0.552185
  0
LINE
  8
0
 10
38.8947
 20
-0.552185
 11
38.8145
 21
-0.722626
  0
LINE
  8
0
 10
38.8145
 20
-0.722626
 11
38.7135
 21
-0.881668
  0
LINE
  8
0
 10
38.7135
 20
-0.881668
 11
38.5934
 21
-1.02681
  0
LINE
  8
0
 10
38.5934
 20
-1.02681
 11
38.4561
 21
-1.15576
  0
LINE
  8
0
 10
38.4561
 20
-1.15576
 11
38.3037
 21
-1.26648
  0
LINE
  8
0
 10
38.3037
 20
-1.26648
 11
38.1387
 21
-1.35724
  0
LINE
  8
0
 10
38.1387
 20
-1.35724
 11
37.9635
 21
-1.42657
  0
LINE
  8
0
 10
37.9635
 20
-1.42657
 11
37.7811
 21
-1.47342
  0
LINE
  8
0
 10
37.7811
 20
-1.47342
 11
37.5942
 21
-1.49704
  0
LINE
  8
0
 10
37.5942
 20
-1.49704
 11
37.4058
 21
-1.49704
  0
LINE
  8
0
 10
-37.5942
 20
-1.49704
 11
-37.7811
 21
-1.47342
  0
LINE
  8
0
 10
-37.7811
 20
-1.47342
 11
-37.9635
 21
-1.42657
  0
LINE
  8
0
 10
-37.9635
 20
-1.42657
 11
-38.1387
 21
-1.35724
  0
LINE
  8
0
 10
-38.1387
 20
-1.35724
 11
-38.3037
 21
-1.26648
  0
LINE
  8
0
 10
-38.3037
 20
-1.26648
 11
-38.4561
 21
-1.15576
  0
LINE
  8
0
 10
-38.4561
 20
-1.15576
 11
-38.5934
 21
-1.02681
  0
LINE
  8
0
 10
-38.5934
 20
-1.02681
 11
-38.7135
 21
-0.881668
  0
LINE
  8
0
 10
-38.7135
 20
-0.881668
 11
-38.8145
 21
-0.722626
  0
LINE
  8
0
 10
-38.8145
 20
-0.722626
 11
-38.8947
 21
-0.552185
  0
LINE
  8
0
 10
-38.8947
 20
-0.552185
 11
-38.9529
 21
-0.373032
  0
LINE
  8
0
 10
-38.9529
 20
-0.373032
 11
-38.9882
 21
-0.187988
  0
LINE
  8
0
 10
-38.9882
 20
-0.187988
 11
-39
 21
0
  0
LINE
  8
0
 10
-39
 20
0
 11
-38.9882
 21
0.187988
  0
LINE
  8
0
 10
-38.9882
 20
0.187988
 11
-38.9529
 21
0.373032
  0
LINE
  8
0
 10
-38.9529
 20
0.373032
 11
-38.8947
 21
0.552185
  0
LINE
  8
0
 10
-38.8947
 20
0.552185
 11
-38.8145
 21
0.722626
  0
LINE
  8
0
 10
-38.8145
 20
0.722626
 11
-38.7135
 21
0.881668
  0
LINE
  8
0
 10
-38.7135
 20
0.881668
 11
-38.5934
 21
1.02681
  0
LINE
  8
0
 10
-38.5934
 20
1.02681
 11
-38.4561
 21
1.15576
  0
LINE
  8
0
 10
-38.4561
 20
1.15576
 11
-38.3037
 21
1.26648
  0
LINE
  8
0
 10
-38.3037
 20
1.26648
 11
-38.1387
 21
1.35724
  0
LINE
  8
0
 10
-38.1387
 20
1.35724
 11
-37.9635
 21
1.42657
  0
LINE
  8
0
 10
-37.9635
 20
1.42657
 11
-37.7811
 21
1.47342
  0
LINE
  8
0
 10
-37.7811
 20
1.47342
 11
-37.5942
 21
1.49704
  0
LINE
  8
0
 10
-37.5942
 20
1.49704
 11
-37.4058
 21
1.49704
  0
LINE
  8
0
 10
-37.4058
 20
1.49704
 11
-37.2189
 21
1.47342
  0
LINE
  8
0
 10
-37.2189
 20
1.47342
 11
-37.0365
 21
1.42657
  0
LINE
  8
0
 10
-37.0365
 20
1.42657
 11
-36.8613
 21
1.35724
  0
LINE
  8
0
 10
-36.8613
 20
1.35724
 11
-36.6963
 21
1.26648
  0
LINE
  8
0
 10
-36.6963
 20
1.26648
 11
-36.5439
 21
1.15576
  0
LINE
  8
0
 10
-36.5439
 20
1.15576
 11
-36.4065
 21
1.02681
  0
LINE
  8
0
 10
-36.4065
 20
1.02681
 11
-36.2865
 21
0.881668
  0
LINE
  8
0
 10
-36.2865
 20
0.881668
 11
-36.1855
 21
0.722626
  0
LINE
  8
0
 10
-36.1855
 20
0.722626
 11
-36.1053
 21
0.552185
  0
LINE
  8
0
 10
-36.1053
 20
0.552185
 11
-36.0471
 21
0.373032
  0
LINE
  8
0
 10
-36.0471
 20
0.373032
 11
-36.0118
 21
0.187988
  0
LINE
  8
0
 10
-36.0118
 20
0.187988
 11
-36
 21
0
  0
LINE
  8
0
 10
-36
 20
0
 11
-36.0118
 21
-0.187988
  0
LINE
  8
0
 10
-36.0118
 20
-0.187988
 11
-36.0471
 21
-0.373032
  0
LINE
  8
0
 10
-36.0471
 20
-0.373032
 11
-36.1053
 21
-0.552185
  0
LINE
  8
0
 10
-36.1053
 20
-0.552185
 11
-36.1855
 21
-0.722626
  0
LINE
  8
0
 10
-36.1855
 20
-0.722626
 11
-36.2865
 21
-0.881668
  0
LINE
  8
0
 10
-36.2865
 20
-0.881668
 11
-36.4065
 21
-1.02681
  0
LINE
  8
0
 10
-36.4065
 20
-1.02681
 11
-36.5439
 21
-1.15576
  0
LINE
  8
0
 10
-36.5439
 20
-1.15576
 11
-36.6963
 21
-1.26648
  0
LINE
  8
0
 10
-36.6963
 20
-1.26648
 11
-36.8613
 21
-1.35724
  0
LINE
  8
0
 10
-36.8613
 20
-1.35724
 11
-37.0365
 21
-1.42657
  0
LINE
  8
0
 10
-37.0365
 20
-1.42657
 11
-37.2189
 21
-1.47342
  0
LINE
  8
0
 10
-37.2189
 20
-1.47342
 11
-37.4058
 21
-1.49704
  0
LINE
  8
0
 10
-37.4058
 20
-1.49704
 11
-37.5942
 21
-1.49704
  0
LINE
  8
0
 10
37.3116
 20
-10.4941
 11
36.9379
 21
-10.4469
  0
LINE
  8
0
 10
36.9379
 20
-10.4469
 11
36.5729
 21
-10.3532
  0
LINE
  8
0
 10
36.5729
 20
-10.3532
 11
36.2227
 21
-10.2145
  0
LINE
  8
0
 10
36.2227
 20
-10.2145
 11
35.8925
 21
-10.033
  0
LINE
  8
0
 10
35.8925
 20
-10.033
 11
35.5877
 21
-9.81154
  0
LINE
  8
0
 10
35.5877
 20
-9.81154
 11
35.3131
 21
-9.55363
  0
LINE
  8
0
 10
35.3131
 20
-9.55363
 11
35.0729
 21
-9.26335
  0
LINE
  8
0
 10
35.0729
 20
-9.26335
 11
34.8711
 21
-8.94525
  0
LINE
  8
0
 10
34.8711
 20
-8.94525
 11
34.7107
 21
-8.60437
  0
LINE
  8
0
 10
34.7107
 20
-8.60437
 11
34.5942
 21
-8.24606
  0
LINE
  8
0
 10
34.5942
 20
-8.24606
 11
34.5237
 21
-7.87599
  0
LINE
  8
0
 10
34.5237
 20
-7.87599
 11
34.5
 21
-7.5
  0
LINE
  8
0
 10
34.5
 20
-7.5
 11
34.5237
 21
-7.12399
  0
LINE
  8
0
 10
34.5237
 20
-7.12399
 11
34.5942
 21
-6.75392
  0
LINE
  8
0
 10
34.5942
 20
-6.75392
 11
34.7107
 21
-6.39561
  0
LINE
  8
0
 10
34.7107
 20
-6.39561
 11
34.8711
 21
-6.05473
  0
LINE
  8
0
 10
34.8711
 20
-6.05473
 11
35.0729
 21
-5.73663
  0
LINE
  8
0
 10
35.0729
 20
-5.73663
 11
35.3131
 21
-5.44635
  0
LINE
  8
0
 10
35.3131
 20
-5.44635
 11
35.5877
 21
-5.18845
  0
LINE
  8
0
 10
35.5877
 20
-5.18845
 11
35.8925
 21
-4.96701
  0
LINE
  8
0
 10
35.8925
 20
-4.96701
 11
36.2227
 21
-4.78551
  0
LINE
  8
0
 10
36.2227
 20
-4.78551
 11
36.5729
 21
-4.64682
  0
LINE
  8
0
 10
36.5729
 20
-4.64682
 11
36.9379
 21
-4.55313
  0
LINE
  8
0
 10
36.9379
 20
-4.55313
 11
37.3116
 21
-4.50591
  0
LINE
  8
0
 10
37.3116
 20
-4.50591
 11
37.6884
 21
-4.50591
  0
LINE
  8
0
 10
37.6884
 20
-4.50591
 11
38.0621
 21
-4.55313
  0
LINE
  8
0
 10
38.0621
 20
-4.55313
 11
38.427
 21
-4.64682
  0
LINE
  8
0
 10
38.427
 20
-4.64682
 11
38.7773
 21
-4.78551
  0
LINE
  8
0
 10
38.7773
 20
-4.78551
 11
39.1075
 21
-4.96701
  0
LINE
  8
0
 10
39.1075
 20
-4.96701
 11
39.4123
 21
-5.18845
  0
LINE
  8
0
 10
39.4123
 20
-5.18845
 11
39.6869
 21
-5.44635
  0
LINE
  8
0
 10
39.6869
 20
-5.44635
 11
39.927
 21
-5.73663
  0
LINE
  8
0
 10
39.927
 20
-5.73663
 11
40.1289
 21
-6.05473
  0
LINE
  8
0
 10
40.1289
 20
-6.05473
 11
40.2893
 21
-6.39561
  0
LINE
  8
0
 10
40.2893
 20
-6.39561
 11
40.4057
 21
-6.75392
  0
LINE
  8
0
 10
40.4057
 20
-6.75392
 11
40.4763
 21
-7.12399
  0
LINE
  8
0
 10
40.4763
 20
-7.12399
 11
40.5
 21
-7.5
  0
LINE
  8
0
 10
40.5
 20
-7.5
 11
40.4763
 21
-7.87599
  0
LINE
  8
0
 10
40.4763
 20
-7.87599
 11
40.4057
 21
-8.24606
  0
LINE
  8
0
 10
40.4057
 20
-8.24606
 11
40.2893
 21
-8.60437
  0
LINE
  8
0
 10
40.2893
 20
-8.60437
 11
40.1289
 21
-8.94525
  0
LINE
  8
0
 10
40.1289
 20
-8.94525
 11
39.927
 21
-9.26335
  0
LINE
  8
0
 10
39.927
 20
-9.26335
 11
39.6869
 21
-9.55363
  0
LINE
  8
0
 10
39.6869
 20
-9.55363
 11
39.4123
 21
-9.81154
  0
LINE
  8
0
 10
39.4123
 20
-9.81154
 11
39.1075
 21
-10.033
  0
LINE
  8
0
 10
39.1075
 20
-10.033
 11
38.7773
 21
-10.2145
  0
LINE
  8
0
 10
38.7773
 20
-10.2145
 11
38.427
 21
-10.3532
  0
LINE
  8
0
 10
38.427
 20
-10.3532
 11
38.0621
 21
-10.4469
  0
LINE
  8
0
 10
38.0621
 20
-10.4469
 11
37.6884
 21
-10.4941
  0
LINE
  8
0
 10
37.6884
 20
-10.4941
 11
37.3116
 21
-10.4941
  0
LINE
  8
0
 10
-37.6884
 20
-10.4941
 11
-38.0621
 21
-10.4469
  0
LINE
  8
0
 10
-38.0621
 20
-10.4469
 11
-38.427
 21
-10.3532
  0
LINE
  8
0
 10
-38.427
 20
-10.3532
 11
-38.7773
 21
-10.2145
  0
LINE
  8
0
 10
-38.7773
 20
-10.2145
 11
-39.1075
 21
-10.033
  0
LINE
  8
0
 10
-39.1075
 20
-10.033
 11
-39.4123
 21
-9.81154
  0
LINE
  8
0
 10
-39.4123
 20
-9.81154
 11
-39.6869
 21
-9.55363
  0
LINE
  8
0
 10
-39.6869
 20
-9.55363
 11
-39.927
 21
-9.26335
  0
LINE
  8
0
 10
-39.927
 20
-9.26335
 11
-40.1289
 21
-8.94525
  0
LINE
  8
0
 10
-40.1289
 20
-8.94525
 11
-40.2893
 21
-8.60437
  0
LINE
  8
0
 10
-40.2893
 20
-8.60437
 11
-40.4057
 21
-8.24606
  0
LINE
  8
0
 10
-40.4057
 20
-8.24606
 11
-40.4763
 21
-7.87599
  0
LINE
  8
0
 10
-40.4763
 20
-7.87599
 11
-40.5
 21
-7.5
  0
LINE
  8
0
 10
-40.5
 20
-7.5
 11
-40.4763
 21
-7.12399
  0
LINE
  8
0
 10
-40.4763
 20
-7.12399
 11
-40.4057
 21
-6.75392
  0
LINE
  8
0
 10
-40.4057
 20
-6.75392
 11
-40.2893
 21
-6.39561
  0
LINE
  8
0
 10
-40.2893
 20
-6.39561
 11
-40.1289
 21
-6.05473
  0
LINE
  8
0
 10
-40.1289
 20
-6.05473
 11
-39.927
 21
-5.73663
  0
LINE
  8
0
 10
-39.927
 20
-5.73663
 11
-39.6869
 21
-5.44635
  0
LINE
  8
0
 10
-39.6869
 20
-5.44635
 11
-39.4123
 21
-5.18845
  0
LINE
  8
0
 10
-39.4123
 20
-5.18845
 11
-39.1075
 21
-4.96701
  0
LINE
  8
0
 10
-39.1075
 20
-4.96701
 11
-38.7773
 21
-4.78551
  0
LINE
  8
0
 10
-38.7773
 20
-4.78551
 11
-38.427
 21
-4.64682
  0
LINE
  8
0
 10
-38.427
 20
-4.64682
 11
-38.0621
 21
-4.55313
  0
LINE
  8
0
 10
-38.0621
 20
-4.55313
 11
-37.6884
 21
-4.50591
  0
LINE
  8
0
 10
-37.6884
 20
-4.50591
 11
-37.3116
 21
-4.50591
  0
LINE
  8
0
 10
-37.3116
 20
-4.50591
 11
-36.9379
 21
-4.55313
  0
LINE
  8
0
 10
-36.9379
 20
-4.55313
 11
-36.5729
 21
-4.64682
  0
LINE
  8
0
 10
-36.5729
 20
-4.64682
 11
-36.2227
 21
-4.78551
  0
LINE
  8
0
 10
-36.2227
 20
-4.78551
 11
-35.8925
 21
-4.96701
  0
LINE
  8
0
 10
-35.8925
 20
-4.96701
 11
-35.5877
 21
-5.18845
  0
LINE
  8
0
 10
-35.5877
 20
-5.18845
 11
-35.3131
 21
-5.44635
  0
LINE
  8
0
 10
-35.3131
 20
-5.44635
 11
-35.0729
 21
-5.73663
  0
LINE
  8
0
 10
-35.0729
 20
-5.73663
 11
-34.8711
 21
-6.05473
  0
LINE
  8
0
 10
-34.8711
 20
-6.05473
 11
-34.7107
 21
-6.39561
  0
LINE
  8
0
 10
-34.7107
 20
-6.39561
 11
-34.5942
 21
-6.75392
  0
LINE
  8
0
 10
-34.5942
 20
-6.75392
 11
-34.5237
 21
-7.12399
  0
LINE
  8
0
 10
-34.5237
 20
-7.12399
 11
-34.5
 21
-7.5
  0
LINE
  8
0
 10
-34.5
 20
-7.5
 11
-34.5237
 21
-7.87599
  0
LINE
  8
0
 10
-34.5237
 20
-7.87599
 11
-34.5942
 21
-8.24606
  0
LINE
  8
0
 10
-34.5942
 20
-8.24606
 11
-34.7107
 21
-8.60437
  0
LINE
  8
0
 10
-34.7107
 20
-8.60437
 11
-34.8711
 21
-8.94525
  0
LINE
  8
0
 10
-34.8711
 20
-8.94525
 11
-35.0729
 21
-9.26335
  0
LINE
  8
0
 10
-35.0729
 20
-9.26335
 11
-35.3131
 21
-9.55363
  0
LINE
  8
0
 10
-35.3131
 20
-9.55363
 11
-35.5877
 21
-9.81154
  0
LINE
  8
0
 10
-35.5877
 20
-9.81154
 11
-35.8925
 21
-10.033
  0
LINE
  8
0
 10
-35.8925
 20
-10.033
 11
-36.2227
 21
-10.2145
  0
LINE
  8
0
 10
-36.2227
 20
-10.2145
 11
-36.5729
 21
-10.3532
  0
LINE
  8
0
 10
-36.5729
 20
-10.3532
 11
-36.9379
 21
-10.4469
  0
LINE
  8
0
 10
-36.9379
 20
-10.4469
 11
-37.3116
 21
-10.4941
  0
LINE
  8
0
 10
-37.3116
 20
-10.4941
 11
-37.6884
 21
-10.4941
  0
ENDSEC
  0
SECTION
  2
OBJECTS
  0
DICTIONARY
  0
ENDSEC
  0
EOF
