  0
SECTION
  2
BLOCKS
  0
ENDSEC
  0
SECTION
  2
ENTITIES
  0
LINE
  8
0
 10
40.4369
 20
24.5886
 11
41.0451
 21
24.7447
  0
LINE
  8
0
 10
41.0451
 20
24.7447
 11
41.6289
 21
24.9759
  0
LINE
  8
0
 10
41.6289
 20
24.9759
 11
42.1791
 21
25.2784
  0
LINE
  8
0
 10
42.1791
 20
25.2784
 11
42.6871
 21
25.6474
  0
LINE
  8
0
 10
42.6871
 20
25.6474
 11
43.1448
 21
26.0773
  0
LINE
  8
0
 10
43.1448
 20
26.0773
 11
43.5451
 21
26.5611
  0
LINE
  8
0
 10
43.5451
 20
26.5611
 11
43.8815
 21
27.0912
  0
LINE
  8
0
 10
43.8815
 20
27.0912
 11
44.1489
 21
27.6594
  0
LINE
  8
0
 10
44.1489
 20
27.6594
 11
44.3429
 21
28.2566
  0
LINE
  8
0
 10
44.3429
 20
28.2566
 11
44.4606
 21
28.8733
  0
LINE
  8
0
 10
44.4606
 20
28.8733
 11
44.5
 21
29.5
  0
LINE
  8
0
 10
44.5
 20
29.5
 11
44.5
 21
48.5
  0
LINE
  8
0
 10
44.5
 20
48.5
 11
44.4606
 21
49.1267
  0
LINE
  8
0
 10
44.4606
 20
49.1267
 11
44.3429
 21
49.7434
  0
LINE
  8
0
 10
44.3429
 20
49.7434
 11
44.1489
 21
50.3406
  0
LINE
  8
0
 10
44.1489
 20
50.3406
 11
43.8815
 21
50.9088
  0
LINE
  8
0
 10
43.8815
 20
50.9088
 11
43.5451
 21
51.4389
  0
LINE
  8
0
 10
43.5451
 20
51.4389
 11
43.1448
 21
51.9227
  0
LINE
  8
0
 10
43.1448
 20
51.9227
 11
42.6871
 21
52.3526
  0
LINE
  8
0
 10
42.6871
 20
52.3526
 11
42.1791
 21
52.7216
  0
LINE
  8
0
 10
42.1791
 20
52.7216
 11
41.6289
 21
53.0241
  0
LINE
  8
0
 10
41.6289
 20
53.0241
 11
41.0451
 21
53.2553
  0
LINE
  8
0
 10
41.0451
 20
53.2553
 11
40.4369
 21
53.4114
  0
LINE
  8
0
 10
40.4369
 20
53.4114
 11
39.8139
 21
53.4901
  0
LINE
  8
0
 10
39.8139
 20
53.4901
 11
-39.8139
 21
53.4901
  0
LINE
  8
0
 10
-39.8139
 20
53.4901
 11
-40.4369
 21
53.4114
  0
LINE
  8
0
 10
-40.4369
 20
53.4114
 11
-41.0451
 21
53.2553
  0
LINE
  8
0
 10
-41.0451
 20
53.2553
 11
-41.6289
 21
53.0241
  0
LINE
  8
0
 10
-41.6289
 20
53.0241
 11
-42.1791
 21
52.7216
  0
LINE
  8
0
 10
-42.1791
 20
52.7216
 11
-42.6871
 21
52.3526
  0
LINE
  8
0
 10
-42.6871
 20
52.3526
 11
-43.1448
 21
51.9227
  0
LINE
  8
0
 10
-43.1448
 20
51.9227
 11
-43.5451
 21
51.4389
  0
LINE
  8
0
 10
-43.5451
 20
51.4389
 11
-43.8815
 21
50.9088
  0
LINE
  8
0
 10
-43.8815
 20
50.9088
 11
-44.1489
 21
50.3406
  0
LINE
  8
0
 10
-44.1489
 20
50.3406
 11
-44.3429
 21
49.7434
  0
LINE
  8
0
 10
-44.3429
 20
49.7434
 11
-44.4606
 21
49.1267
  0
LINE
  8
0
 10
-44.4606
 20
49.1267
 11
-44.5
 21
48.5
  0
LINE
  8
0
 10
-44.5
 20
48.5
 11
-44.5
 21
29.5
  0
LINE
  8
0
 10
-44.5
 20
29.5
 11
-44.4606
 21
28.8733
  0
LINE
  8
0
 10
-44.4606
 20
28.8733
 11
-44.3429
 21
28.2566
  0
LINE
  8
0
 10
-44.3429
 20
28.2566
 11
-44.1489
 21
27.6594
  0
LINE
  8
0
 10
-44.1489
 20
27.6594
 11
-43.8815
 21
27.0912
  0
LINE
  8
0
 10
-43.8815
 20
27.0912
 11
-43.5451
 21
26.5611
  0
LINE
  8
0
 10
-43.5451
 20
26.5611
 11
-43.1448
 21
26.0773
  0
LINE
  8
0
 10
-43.1448
 20
26.0773
 11
-42.6871
 21
25.6474
  0
LINE
  8
0
 10
-42.6871
 20
25.6474
 11
-42.1791
 21
25.2784
  0
LINE
  8
0
 10
-42.1791
 20
25.2784
 11
-41.6289
 21
24.9759
  0
LINE
  8
0
 10
-41.6289
 20
24.9759
 11
-41.0451
 21
24.7447
  0
LINE
  8
0
 10
-41.0451
 20
24.7447
 11
-40.4369
 21
24.5886
  0
LINE
  8
0
 10
-40.4369
 20
24.5886
 11
-39.8139
 21
24.5099
  0
LINE
  8
0
 10
-39.8139
 20
24.5099
 11
39.8139
 21
24.5099
  0
LINE
  8
0
 10
39.8139
 20
24.5099
 11
40.4369
 21
24.5886
  0
LINE
  8
0
 10
-37.6884
 20
43.5059
 11
-38.0621
 21
43.5531
  0
LINE
  8
0
 10
-38.0621
 20
43.5531
 11
-38.427
 21
43.6468
  0
LINE
  8
0
 10
-38.427
 20
43.6468
 11
-38.7773
 21
43.7855
  0
LINE
  8
0
 10
-38.7773
 20
43.7855
 11
-39.1075
 21
43.967
  0
LINE
  8
0
 10
-39.1075
 20
43.967
 11
-39.4123
 21
44.1884
  0
LINE
  8
0
 10
-39.4123
 20
44.1884
 11
-39.6869
 21
44.4464
  0
LINE
  8
0
 10
-39.6869
 20
44.4464
 11
-39.927
 21
44.7366
  0
LINE
  8
0
 10
-39.927
 20
44.7366
 11
-40.1289
 21
45.0547
  0
LINE
  8
0
 10
-40.1289
 20
45.0547
 11
-40.2893
 21
45.3956
  0
LINE
  8
0
 10
-40.2893
 20
45.3956
 11
-40.4057
 21
45.7539
  0
LINE
  8
0
 10
-40.4057
 20
45.7539
 11
-40.4763
 21
46.124
  0
LINE
  8
0
 10
-40.4763
 20
46.124
 11
-40.5
 21
46.5
  0
LINE
  8
0
 10
-40.5
 20
46.5
 11
-40.4763
 21
46.876
  0
LINE
  8
0
 10
-40.4763
 20
46.876
 11
-40.4057
 21
47.2461
  0
LINE
  8
0
 10
-40.4057
 20
47.2461
 11
-40.2893
 21
47.6044
  0
LINE
  8
0
 10
-40.2893
 20
47.6044
 11
-40.1289
 21
47.9453
  0
LINE
  8
0
 10
-40.1289
 20
47.9453
 11
-39.927
 21
48.2634
  0
LINE
  8
0
 10
-39.927
 20
48.2634
 11
-39.6869
 21
48.5536
  0
LINE
  8
0
 10
-39.6869
 20
48.5536
 11
-39.4123
 21
48.8115
  0
LINE
  8
0
 10
-39.4123
 20
48.8115
 11
-39.1075
 21
49.033
  0
LINE
  8
0
 10
-39.1075
 20
49.033
 11
-38.7773
 21
49.2145
  0
LINE
  8
0
 10
-38.7773
 20
49.2145
 11
-38.427
 21
49.3532
  0
LINE
  8
0
 10
-38.427
 20
49.3532
 11
-38.0621
 21
49.4469
  0
LINE
  8
0
 10
-38.0621
 20
49.4469
 11
-37.6884
 21
49.4941
  0
LINE
  8
0
 10
-37.6884
 20
49.4941
 11
-37.3116
 21
49.4941
  0
LINE
  8
0
 10
-37.3116
 20
49.4941
 11
-36.9379
 21
49.4469
  0
LINE
  8
0
 10
-36.9379
 20
49.4469
 11
-36.5729
 21
49.3532
  0
LINE
  8
0
 10
-36.5729
 20
49.3532
 11
-36.2227
 21
49.2145
  0
LINE
  8
0
 10
-36.2227
 20
49.2145
 11
-35.8925
 21
49.033
  0
LINE
  8
0
 10
-35.8925
 20
49.033
 11
-35.5877
 21
48.8115
  0
LINE
  8
0
 10
-35.5877
 20
48.8115
 11
-35.3131
 21
48.5536
  0
LINE
  8
0
 10
-35.3131
 20
48.5536
 11
-35.0729
 21
48.2634
  0
LINE
  8
0
 10
-35.0729
 20
48.2634
 11
-34.8711
 21
47.9453
  0
LINE
  8
0
 10
-34.8711
 20
47.9453
 11
-34.7107
 21
47.6044
  0
LINE
  8
0
 10
-34.7107
 20
47.6044
 11
-34.5942
 21
47.2461
  0
LINE
  8
0
 10
-34.5942
 20
47.2461
 11
-34.5237
 21
46.876
  0
LINE
  8
0
 10
-34.5237
 20
46.876
 11
-34.5
 21
46.5
  0
LINE
  8
0
 10
-34.5
 20
46.5
 11
-34.5237
 21
46.124
  0
LINE
  8
0
 10
-34.5237
 20
46.124
 11
-34.5942
 21
45.7539
  0
LINE
  8
0
 10
-34.5942
 20
45.7539
 11
-34.7107
 21
45.3956
  0
LINE
  8
0
 10
-34.7107
 20
45.3956
 11
-34.8711
 21
45.0547
  0
LINE
  8
0
 10
-34.8711
 20
45.0547
 11
-35.0729
 21
44.7366
  0
LINE
  8
0
 10
-35.0729
 20
44.7366
 11
-35.3131
 21
44.4464
  0
LINE
  8
0
 10
-35.3131
 20
44.4464
 11
-35.5877
 21
44.1884
  0
LINE
  8
0
 10
-35.5877
 20
44.1884
 11
-35.8925
 21
43.967
  0
LINE
  8
0
 10
-35.8925
 20
43.967
 11
-36.2227
 21
43.7855
  0
LINE
  8
0
 10
-36.2227
 20
43.7855
 11
-36.5729
 21
43.6468
  0
LINE
  8
0
 10
-36.5729
 20
43.6468
 11
-36.9379
 21
43.5531
  0
LINE
  8
0
 10
-36.9379
 20
43.5531
 11
-37.3116
 21
43.5059
  0
LINE
  8
0
 10
-37.3116
 20
43.5059
 11
-37.6884
 21
43.5059
  0
LINE
  8
0
 10
37.3116
 20
43.5059
 11
36.9379
 21
43.5531
  0
LINE
  8
0
 10
36.9379
 20
43.5531
 11
36.5729
 21
43.6468
  0
LINE
  8
0
 10
36.5729
 20
43.6468
 11
36.2227
 21
43.7855
  0
LINE
  8
0
 10
36.2227
 20
43.7855
 11
35.8925
 21
43.967
  0
LINE
  8
0
 10
35.8925
 20
43.967
 11
35.5877
 21
44.1884
  0
LINE
  8
0
 10
35.5877
 20
44.1884
 11
35.3131
 21
44.4464
  0
LINE
  8
0
 10
35.3131
 20
44.4464
 11
35.0729
 21
44.7366
  0
LINE
  8
0
 10
35.0729
 20
44.7366
 11
34.8711
 21
45.0547
  0
LINE
  8
0
 10
34.8711
 20
45.0547
 11
34.7107
 21
45.3956
  0
LINE
  8
0
 10
34.7107
 20
45.3956
 11
34.5942
 21
45.7539
  0
LINE
  8
0
 10
34.5942
 20
45.7539
 11
34.5237
 21
46.124
  0
LINE
  8
0
 10
34.5237
 20
46.124
 11
34.5
 21
46.5
  0
LINE
  8
0
 10
34.5
 20
46.5
 11
34.5237
 21
46.876
  0
LINE
  8
0
 10
34.5237
 20
46.876
 11
34.5942
 21
47.2461
  0
LINE
  8
0
 10
34.5942
 20
47.2461
 11
34.7107
 21
47.6044
  0
LINE
  8
0
 10
34.7107
 20
47.6044
 11
34.8711
 21
47.9453
  0
LINE
  8
0
 10
34.8711
 20
47.9453
 11
35.0729
 21
48.2634
  0
LINE
  8
0
 10
35.0729
 20
48.2634
 11
35.3131
 21
48.5536
  0
LINE
  8
0
 10
35.3131
 20
48.5536
 11
35.5877
 21
48.8115
  0
LINE
  8
0
 10
35.5877
 20
48.8115
 11
35.8925
 21
49.033
  0
LINE
  8
0
 10
35.8925
 20
49.033
 11
36.2227
 21
49.2145
  0
LINE
  8
0
 10
36.2227
 20
49.2145
 11
36.5729
 21
49.3532
  0
LINE
  8
0
 10
36.5729
 20
49.3532
 11
36.9379
 21
49.4469
  0
LINE
  8
0
 10
36.9379
 20
49.4469
 11
37.3116
 21
49.4941
  0
LINE
  8
0
 10
37.3116
 20
49.4941
 11
37.6884
 21
49.4941
  0
LINE
  8
0
 10
37.6884
 20
49.4941
 11
38.0621
 21
49.4469
  0
LINE
  8
0
 10
38.0621
 20
49.4469
 11
38.427
 21
49.3532
  0
LINE
  8
0
 10
38.427
 20
49.3532
 11
38.7773
 21
49.2145
  0
LINE
  8
0
 10
38.7773
 20
49.2145
 11
39.1075
 21
49.033
  0
LINE
  8
0
 10
39.1075
 20
49.033
 11
39.4123
 21
48.8115
  0
LINE
  8
0
 10
39.4123
 20
48.8115
 11
39.6869
 21
48.5536
  0
LINE
  8
0
 10
39.6869
 20
48.5536
 11
39.927
 21
48.2634
  0
LINE
  8
0
 10
39.927
 20
48.2634
 11
40.1289
 21
47.9453
  0
LINE
  8
0
 10
40.1289
 20
47.9453
 11
40.2893
 21
47.6044
  0
LINE
  8
0
 10
40.2893
 20
47.6044
 11
40.4057
 21
47.2461
  0
LINE
  8
0
 10
40.4057
 20
47.2461
 11
40.4763
 21
46.876
  0
LINE
  8
0
 10
40.4763
 20
46.876
 11
40.5
 21
46.5
  0
LINE
  8
0
 10
40.5
 20
46.5
 11
40.4763
 21
46.124
  0
LINE
  8
0
 10
40.4763
 20
46.124
 11
40.4057
 21
45.7539
  0
LINE
  8
0
 10
40.4057
 20
45.7539
 11
40.2893
 21
45.3956
  0
LINE
  8
0
 10
40.2893
 20
45.3956
 11
40.1289
 21
45.0547
  0
LINE
  8
0
 10
40.1289
 20
45.0547
 11
39.927
 21
44.7366
  0
LINE
  8
0
 10
39.927
 20
44.7366
 11
39.6869
 21
44.4464
  0
LINE
  8
0
 10
39.6869
 20
44.4464
 11
39.4123
 21
44.1884
  0
LINE
  8
0
 10
39.4123
 20
44.1884
 11
39.1075
 21
43.967
  0
LINE
  8
0
 10
39.1075
 20
43.967
 11
38.7773
 21
43.7855
  0
LINE
  8
0
 10
38.7773
 20
43.7855
 11
38.427
 21
43.6468
  0
LINE
  8
0
 10
38.427
 20
43.6468
 11
38.0621
 21
43.5531
  0
LINE
  8
0
 10
38.0621
 20
43.5531
 11
37.6884
 21
43.5059
  0
LINE
  8
0
 10
37.6884
 20
43.5059
 11
37.3116
 21
43.5059
  0
LINE
  8
0
 10
-0.565109
 20
30.0178
 11
-1.68642
 21
30.1594
  0
LINE
  8
0
 10
-1.68642
 20
30.1594
 11
-2.78114
 21
30.4405
  0
LINE
  8
0
 10
-2.78114
 20
30.4405
 11
-3.832
 21
30.8566
  0
LINE
  8
0
 10
-3.832
 20
30.8566
 11
-4.82243
 21
31.4011
  0
LINE
  8
0
 10
-4.82243
 20
31.4011
 11
-5.7368
 21
32.0654
  0
LINE
  8
0
 10
-5.7368
 20
32.0654
 11
-6.56071
 21
32.8391
  0
LINE
  8
0
 10
-6.56071
 20
32.8391
 11
-7.28114
 21
33.7099
  0
LINE
  8
0
 10
-7.28114
 20
33.7099
 11
-7.88675
 21
34.6642
  0
LINE
  8
0
 10
-7.88675
 20
34.6642
 11
-8.36798
 21
35.6869
  0
LINE
  8
0
 10
-8.36798
 20
35.6869
 11
-8.71724
 21
36.7618
  0
LINE
  8
0
 10
-8.71724
 20
36.7618
 11
-8.92903
 21
37.872
  0
LINE
  8
0
 10
-8.92903
 20
37.872
 11
-9
 21
39
  0
LINE
  8
0
 10
-9
 20
39
 11
-8.92903
 21
40.128
  0
LINE
  8
0
 10
-8.92903
 20
40.128
 11
-8.71724
 21
41.2382
  0
LINE
  8
0
 10
-8.71724
 20
41.2382
 11
-8.36798
 21
42.3131
  0
LINE
  8
0
 10
-8.36798
 20
42.3131
 11
-7.88675
 21
43.3358
  0
LINE
  8
0
 10
-7.88675
 20
43.3358
 11
-7.28114
 21
44.2901
  0
LINE
  8
0
 10
-7.28114
 20
44.2901
 11
-6.56071
 21
45.1609
  0
LINE
  8
0
 10
-6.56071
 20
45.1609
 11
-5.7368
 21
45.9346
  0
LINE
  8
0
 10
-5.7368
 20
45.9346
 11
-4.82243
 21
46.5989
  0
LINE
  8
0
 10
-4.82243
 20
46.5989
 11
-3.832
 21
47.1434
  0
LINE
  8
0
 10
-3.832
 20
47.1434
 11
-2.78114
 21
47.5595
  0
LINE
  8
0
 10
-2.78114
 20
47.5595
 11
-1.68642
 21
47.8406
  0
LINE
  8
0
 10
-1.68642
 20
47.8406
 11
-0.565109
 21
47.9822
  0
LINE
  8
0
 10
-0.565109
 20
47.9822
 11
0.565109
 21
47.9822
  0
LINE
  8
0
 10
0.565109
 20
47.9822
 11
1.68642
 21
47.8406
  0
LINE
  8
0
 10
1.68642
 20
47.8406
 11
2.78114
 21
47.5595
  0
LINE
  8
0
 10
2.78114
 20
47.5595
 11
3.832
 21
47.1434
  0
LINE
  8
0
 10
3.832
 20
47.1434
 11
4.82243
 21
46.5989
  0
LINE
  8
0
 10
4.82243
 20
46.5989
 11
5.7368
 21
45.9346
  0
LINE
  8
0
 10
5.7368
 20
45.9346
 11
6.56071
 21
45.1609
  0
LINE
  8
0
 10
6.56071
 20
45.1609
 11
7.28114
 21
44.2901
  0
LINE
  8
0
 10
7.28114
 20
44.2901
 11
7.88675
 21
43.3358
  0
LINE
  8
0
 10
7.88675
 20
43.3358
 11
8.36798
 21
42.3131
  0
LINE
  8
0
 10
8.36798
 20
42.3131
 11
8.71724
 21
41.2382
  0
LINE
  8
0
 10
8.71724
 20
41.2382
 11
8.92903
 21
40.128
  0
LINE
  8
0
 10
8.92903
 20
40.128
 11
9
 21
39
  0
LINE
  8
0
 10
9
 20
39
 11
8.92903
 21
37.872
  0
LINE
  8
0
 10
8.92903
 20
37.872
 11
8.71724
 21
36.7618
  0
LINE
  8
0
 10
8.71724
 20
36.7618
 11
8.36798
 21
35.6869
  0
LINE
  8
0
 10
8.36798
 20
35.6869
 11
7.88675
 21
34.6642
  0
LINE
  8
0
 10
7.88675
 20
34.6642
 11
7.28114
 21
33.7099
  0
LINE
  8
0
 10
7.28114
 20
33.7099
 11
6.56071
 21
32.8391
  0
LINE
  8
0
 10
6.56071
 20
32.8391
 11
5.7368
 21
32.0654
  0
LINE
  8
0
 10
5.7368
 20
32.0654
 11
4.82243
 21
31.4011
  0
LINE
  8
0
 10
4.82243
 20
31.4011
 11
3.832
 21
30.8566
  0
LINE
  8
0
 10
3.832
 20
30.8566
 11
2.78114
 21
30.4405
  0
LINE
  8
0
 10
2.78114
 20
30.4405
 11
1.68642
 21
30.1594
  0
LINE
  8
0
 10
1.68642
 20
30.1594
 11
0.565109
 21
30.0178
  0
LINE
  8
0
 10
0.565109
 20
30.0178
 11
-0.565109
 21
30.0178
  0
LINE
  8
0
 10
-23.5651
 20
30.0178
 11
-24.6864
 21
30.1594
  0
LINE
  8
0
 10
-24.6864
 20
30.1594
 11
-25.7811
 21
30.4405
  0
LINE
  8
0
 10
-25.7811
 20
30.4405
 11
-26.832
 21
30.8566
  0
LINE
  8
0
 10
-26.832
 20
30.8566
 11
-27.8224
 21
31.4011
  0
LINE
  8
0
 10
-27.8224
 20
31.4011
 11
-28.7368
 21
32.0654
  0
LINE
  8
0
 10
-28.7368
 20
32.0654
 11
-29.5607
 21
32.8391
  0
LINE
  8
0
 10
-29.5607
 20
32.8391
 11
-30.2811
 21
33.7099
  0
LINE
  8
0
 10
-30.2811
 20
33.7099
 11
-30.8867
 21
34.6642
  0
LINE
  8
0
 10
-30.8867
 20
34.6642
 11
-31.368
 21
35.6869
  0
LINE
  8
0
 10
-31.368
 20
35.6869
 11
-31.7172
 21
36.7618
  0
LINE
  8
0
 10
-31.7172
 20
36.7618
 11
-31.929
 21
37.872
  0
LINE
  8
0
 10
-31.929
 20
37.872
 11
-32
 21
39
  0
LINE
  8
0
 10
-32
 20
39
 11
-31.929
 21
40.128
  0
LINE
  8
0
 10
-31.929
 20
40.128
 11
-31.7172
 21
41.2382
  0
LINE
  8
0
 10
-31.7172
 20
41.2382
 11
-31.368
 21
42.3131
  0
LINE
  8
0
 10
-31.368
 20
42.3131
 11
-30.8867
 21
43.3358
  0
LINE
  8
0
 10
-30.8867
 20
43.3358
 11
-30.2811
 21
44.2901
  0
LINE
  8
0
 10
-30.2811
 20
44.2901
 11
-29.5607
 21
45.1609
  0
LINE
  8
0
 10
-29.5607
 20
45.1609
 11
-28.7368
 21
45.9346
  0
LINE
  8
0
 10
-28.7368
 20
45.9346
 11
-27.8224
 21
46.5989
  0
LINE
  8
0
 10
-27.8224
 20
46.5989
 11
-26.832
 21
47.1434
  0
LINE
  8
0
 10
-26.832
 20
47.1434
 11
-25.7811
 21
47.5595
  0
LINE
  8
0
 10
-25.7811
 20
47.5595
 11
-24.6864
 21
47.8406
  0
LINE
  8
0
 10
-24.6864
 20
47.8406
 11
-23.5651
 21
47.9822
  0
LINE
  8
0
 10
-23.5651
 20
47.9822
 11
-22.4349
 21
47.9822
  0
LINE
  8
0
 10
-22.4349
 20
47.9822
 11
-21.3136
 21
47.8406
  0
LINE
  8
0
 10
-21.3136
 20
47.8406
 11
-20.2188
 21
47.5595
  0
LINE
  8
0
 10
-20.2188
 20
47.5595
 11
-19.168
 21
47.1434
  0
LINE
  8
0
 10
-19.168
 20
47.1434
 11
-18.1776
 21
46.5989
  0
LINE
  8
0
 10
-18.1776
 20
46.5989
 11
-17.2632
 21
45.9346
  0
LINE
  8
0
 10
-17.2632
 20
45.9346
 11
-16.4393
 21
45.1609
  0
LINE
  8
0
 10
-16.4393
 20
45.1609
 11
-15.7188
 21
44.2901
  0
LINE
  8
0
 10
-15.7188
 20
44.2901
 11
-15.1132
 21
43.3358
  0
LINE
  8
0
 10
-15.1132
 20
43.3358
 11
-14.632
 21
42.3131
  0
LINE
  8
0
 10
-14.632
 20
42.3131
 11
-14.2827
 21
41.2382
  0
LINE
  8
0
 10
-14.2827
 20
41.2382
 11
-14.071
 21
40.128
  0
LINE
  8
0
 10
-14.071
 20
40.128
 11
-14
 21
39
  0
LINE
  8
0
 10
-14
 20
39
 11
-14.071
 21
37.872
  0
LINE
  8
0
 10
-14.071
 20
37.872
 11
-14.2827
 21
36.7618
  0
LINE
  8
0
 10
-14.2827
 20
36.7618
 11
-14.632
 21
35.6869
  0
LINE
  8
0
 10
-14.632
 20
35.6869
 11
-15.1132
 21
34.6642
  0
LINE
  8
0
 10
-15.1132
 20
34.6642
 11
-15.7188
 21
33.7099
  0
LINE
  8
0
 10
-15.7188
 20
33.7099
 11
-16.4393
 21
32.8391
  0
LINE
  8
0
 10
-16.4393
 20
32.8391
 11
-17.2632
 21
32.0654
  0
LINE
  8
0
 10
-17.2632
 20
32.0654
 11
-18.1776
 21
31.4011
  0
LINE
  8
0
 10
-18.1776
 20
31.4011
 11
-19.168
 21
30.8566
  0
LINE
  8
0
 10
-19.168
 20
30.8566
 11
-20.2188
 21
30.4405
  0
LINE
  8
0
 10
-20.2188
 20
30.4405
 11
-21.3136
 21
30.1594
  0
LINE
  8
0
 10
-21.3136
 20
30.1594
 11
-22.4349
 21
30.0178
  0
LINE
  8
0
 10
-22.4349
 20
30.0178
 11
-23.5651
 21
30.0178
  0
LINE
  8
0
 10
22.4349
 20
30.0178
 11
21.3136
 21
30.1594
  0
LINE
  8
0
 10
21.3136
 20
30.1594
 11
20.2188
 21
30.4405
  0
LINE
  8
0
 10
20.2188
 20
30.4405
 11
19.168
 21
30.8566
  0
LINE
  8
0
 10
19.168
 20
30.8566
 11
18.1776
 21
31.4011
  0
LINE
  8
0
 10
18.1776
 20
31.4011
 11
17.2632
 21
32.0654
  0
LINE
  8
0
 10
17.2632
 20
32.0654
 11
16.4393
 21
32.8391
  0
LINE
  8
0
 10
16.4393
 20
32.8391
 11
15.7188
 21
33.7099
  0
LINE
  8
0
 10
15.7188
 20
33.7099
 11
15.1132
 21
34.6642
  0
LINE
  8
0
 10
15.1132
 20
34.6642
 11
14.632
 21
35.6869
  0
LINE
  8
0
 10
14.632
 20
35.6869
 11
14.2827
 21
36.7618
  0
LINE
  8
0
 10
14.2827
 20
36.7618
 11
14.071
 21
37.872
  0
LINE
  8
0
 10
14.071
 20
37.872
 11
14
 21
39
  0
LINE
  8
0
 10
14
 20
39
 11
14.071
 21
40.128
  0
LINE
  8
0
 10
14.071
 20
40.128
 11
14.2827
 21
41.2382
  0
LINE
  8
0
 10
14.2827
 20
41.2382
 11
14.632
 21
42.3131
  0
LINE
  8
0
 10
14.632
 20
42.3131
 11
15.1132
 21
43.3358
  0
LINE
  8
0
 10
15.1132
 20
43.3358
 11
15.7188
 21
44.2901
  0
LINE
  8
0
 10
15.7188
 20
44.2901
 11
16.4393
 21
45.1609
  0
LINE
  8
0
 10
16.4393
 20
45.1609
 11
17.2632
 21
45.9346
  0
LINE
  8
0
 10
17.2632
 20
45.9346
 11
18.1776
 21
46.5989
  0
LINE
  8
0
 10
18.1776
 20
46.5989
 11
19.168
 21
47.1434
  0
LINE
  8
0
 10
19.168
 20
47.1434
 11
20.2188
 21
47.5595
  0
LINE
  8
0
 10
20.2188
 20
47.5595
 11
21.3136
 21
47.8406
  0
LINE
  8
0
 10
21.3136
 20
47.8406
 11
22.4349
 21
47.9822
  0
LINE
  8
0
 10
22.4349
 20
47.9822
 11
23.5651
 21
47.9822
  0
LINE
  8
0
 10
23.5651
 20
47.9822
 11
24.6864
 21
47.8406
  0
LINE
  8
0
 10
24.6864
 20
47.8406
 11
25.7811
 21
47.5595
  0
LINE
  8
0
 10
25.7811
 20
47.5595
 11
26.832
 21
47.1434
  0
LINE
  8
0
 10
26.832
 20
47.1434
 11
27.8224
 21
46.5989
  0
LINE
  8
0
 10
27.8224
 20
46.5989
 11
28.7368
 21
45.9346
  0
LINE
  8
0
 10
28.7368
 20
45.9346
 11
29.5607
 21
45.1609
  0
LINE
  8
0
 10
29.5607
 20
45.1609
 11
30.2811
 21
44.2901
  0
LINE
  8
0
 10
30.2811
 20
44.2901
 11
30.8867
 21
43.3358
  0
LINE
  8
0
 10
30.8867
 20
43.3358
 11
31.368
 21
42.3131
  0
LINE
  8
0
 10
31.368
 20
42.3131
 11
31.7172
 21
41.2382
  0
LINE
  8
0
 10
31.7172
 20
41.2382
 11
31.929
 21
40.128
  0
LINE
  8
0
 10
31.929
 20
40.128
 11
32
 21
39
  0
LINE
  8
0
 10
32
 20
39
 11
31.929
 21
37.872
  0
LINE
  8
0
 10
31.929
 20
37.872
 11
31.7172
 21
36.7618
  0
LINE
  8
0
 10
31.7172
 20
36.7618
 11
31.368
 21
35.6869
  0
LINE
  8
0
 10
31.368
 20
35.6869
 11
30.8867
 21
34.6642
  0
LINE
  8
0
 10
30.8867
 20
34.6642
 11
30.2811
 21
33.7099
  0
LINE
  8
0
 10
30.2811
 20
33.7099
 11
29.5607
 21
32.8391
  0
LINE
  8
0
 10
29.5607
 20
32.8391
 11
28.7368
 21
32.0654
  0
LINE
  8
0
 10
28.7368
 20
32.0654
 11
27.8224
 21
31.4011
  0
LINE
  8
0
 10
27.8224
 20
31.4011
 11
26.832
 21
30.8566
  0
LINE
  8
0
 10
26.832
 20
30.8566
 11
25.7811
 21
30.4405
  0
LINE
  8
0
 10
25.7811
 20
30.4405
 11
24.6864
 21
30.1594
  0
LINE
  8
0
 10
24.6864
 20
30.1594
 11
23.5651
 21
30.0178
  0
LINE
  8
0
 10
23.5651
 20
30.0178
 11
22.4349
 21
30.0178
  0
LINE
  8
0
 10
-37.5942
 20
37.503
 11
-37.7811
 21
37.5266
  0
LINE
  8
0
 10
-37.7811
 20
37.5266
 11
-37.9635
 21
37.5734
  0
LINE
  8
0
 10
-37.9635
 20
37.5734
 11
-38.1387
 21
37.6428
  0
LINE
  8
0
 10
-38.1387
 20
37.6428
 11
-38.3037
 21
37.7335
  0
LINE
  8
0
 10
-38.3037
 20
37.7335
 11
-38.4561
 21
37.8442
  0
LINE
  8
0
 10
-38.4561
 20
37.8442
 11
-38.5934
 21
37.9732
  0
LINE
  8
0
 10
-38.5934
 20
37.9732
 11
-38.7135
 21
38.1183
  0
LINE
  8
0
 10
-38.7135
 20
38.1183
 11
-38.8145
 21
38.2774
  0
LINE
  8
0
 10
-38.8145
 20
38.2774
 11
-38.8947
 21
38.4478
  0
LINE
  8
0
 10
-38.8947
 20
38.4478
 11
-38.9529
 21
38.627
  0
LINE
  8
0
 10
-38.9529
 20
38.627
 11
-38.9882
 21
38.812
  0
LINE
  8
0
 10
-38.9882
 20
38.812
 11
-39
 21
39
  0
LINE
  8
0
 10
-39
 20
39
 11
-38.9882
 21
39.188
  0
LINE
  8
0
 10
-38.9882
 20
39.188
 11
-38.9529
 21
39.373
  0
LINE
  8
0
 10
-38.9529
 20
39.373
 11
-38.8947
 21
39.5522
  0
LINE
  8
0
 10
-38.8947
 20
39.5522
 11
-38.8145
 21
39.7226
  0
LINE
  8
0
 10
-38.8145
 20
39.7226
 11
-38.7135
 21
39.8817
  0
LINE
  8
0
 10
-38.7135
 20
39.8817
 11
-38.5934
 21
40.0268
  0
LINE
  8
0
 10
-38.5934
 20
40.0268
 11
-38.4561
 21
40.1558
  0
LINE
  8
0
 10
-38.4561
 20
40.1558
 11
-38.3037
 21
40.2665
  0
LINE
  8
0
 10
-38.3037
 20
40.2665
 11
-38.1387
 21
40.3572
  0
LINE
  8
0
 10
-38.1387
 20
40.3572
 11
-37.9635
 21
40.4266
  0
LINE
  8
0
 10
-37.9635
 20
40.4266
 11
-37.7811
 21
40.4734
  0
LINE
  8
0
 10
-37.7811
 20
40.4734
 11
-37.5942
 21
40.497
  0
LINE
  8
0
 10
-37.5942
 20
40.497
 11
-37.4058
 21
40.497
  0
LINE
  8
0
 10
-37.4058
 20
40.497
 11
-37.2189
 21
40.4734
  0
LINE
  8
0
 10
-37.2189
 20
40.4734
 11
-37.0365
 21
40.4266
  0
LINE
  8
0
 10
-37.0365
 20
40.4266
 11
-36.8613
 21
40.3572
  0
LINE
  8
0
 10
-36.8613
 20
40.3572
 11
-36.6963
 21
40.2665
  0
LINE
  8
0
 10
-36.6963
 20
40.2665
 11
-36.5439
 21
40.1558
  0
LINE
  8
0
 10
-36.5439
 20
40.1558
 11
-36.4065
 21
40.0268
  0
LINE
  8
0
 10
-36.4065
 20
40.0268
 11
-36.2865
 21
39.8817
  0
LINE
  8
0
 10
-36.2865
 20
39.8817
 11
-36.1855
 21
39.7226
  0
LINE
  8
0
 10
-36.1855
 20
39.7226
 11
-36.1053
 21
39.5522
  0
LINE
  8
0
 10
-36.1053
 20
39.5522
 11
-36.0471
 21
39.373
  0
LINE
  8
0
 10
-36.0471
 20
39.373
 11
-36.0118
 21
39.188
  0
LINE
  8
0
 10
-36.0118
 20
39.188
 11
-36
 21
39
  0
LINE
  8
0
 10
-36
 20
39
 11
-36.0118
 21
38.812
  0
LINE
  8
0
 10
-36.0118
 20
38.812
 11
-36.0471
 21
38.627
  0
LINE
  8
0
 10
-36.0471
 20
38.627
 11
-36.1053
 21
38.4478
  0
LINE
  8
0
 10
-36.1053
 20
38.4478
 11
-36.1855
 21
38.2774
  0
LINE
  8
0
 10
-36.1855
 20
38.2774
 11
-36.2865
 21
38.1183
  0
LINE
  8
0
 10
-36.2865
 20
38.1183
 11
-36.4065
 21
37.9732
  0
LINE
  8
0
 10
-36.4065
 20
37.9732
 11
-36.5439
 21
37.8442
  0
LINE
  8
0
 10
-36.5439
 20
37.8442
 11
-36.6963
 21
37.7335
  0
LINE
  8
0
 10
-36.6963
 20
37.7335
 11
-36.8613
 21
37.6428
  0
LINE
  8
0
 10
-36.8613
 20
37.6428
 11
-37.0365
 21
37.5734
  0
LINE
  8
0
 10
-37.0365
 20
37.5734
 11
-37.2189
 21
37.5266
  0
LINE
  8
0
 10
-37.2189
 20
37.5266
 11
-37.4058
 21
37.503
  0
LINE
  8
0
 10
-37.4058
 20
37.503
 11
-37.5942
 21
37.503
  0
LINE
  8
0
 10
37.4058
 20
37.503
 11
37.2189
 21
37.5266
  0
LINE
  8
0
 10
37.2189
 20
37.5266
 11
37.0365
 21
37.5734
  0
LINE
  8
0
 10
37.0365
 20
37.5734
 11
36.8613
 21
37.6428
  0
LINE
  8
0
 10
36.8613
 20
37.6428
 11
36.6963
 21
37.7335
  0
LINE
  8
0
 10
36.6963
 20
37.7335
 11
36.5439
 21
37.8442
  0
LINE
  8
0
 10
36.5439
 20
37.8442
 11
36.4065
 21
37.9732
  0
LINE
  8
0
 10
36.4065
 20
37.9732
 11
36.2865
 21
38.1183
  0
LINE
  8
0
 10
36.2865
 20
38.1183
 11
36.1855
 21
38.2774
  0
LINE
  8
0
 10
36.1855
 20
38.2774
 11
36.1053
 21
38.4478
  0
LINE
  8
0
 10
36.1053
 20
38.4478
 11
36.0471
 21
38.627
  0
LINE
  8
0
 10
36.0471
 20
38.627
 11
36.0118
 21
38.812
  0
LINE
  8
0
 10
36.0118
 20
38.812
 11
36
 21
39
  0
LINE
  8
0
 10
36
 20
39
 11
36.0118
 21
39.188
  0
LINE
  8
0
 10
36.0118
 20
39.188
 11
36.0471
 21
39.373
  0
LINE
  8
0
 10
36.0471
 20
39.373
 11
36.1053
 21
39.5522
  0
LINE
  8
0
 10
36.1053
 20
39.5522
 11
36.1855
 21
39.7226
  0
LINE
  8
0
 10
36.1855
 20
39.7226
 11
36.2865
 21
39.8817
  0
LINE
  8
0
 10
36.2865
 20
39.8817
 11
36.4065
 21
40.0268
  0
LINE
  8
0
 10
36.4065
 20
40.0268
 11
36.5439
 21
40.1558
  0
LINE
  8
0
 10
36.5439
 20
40.1558
 11
36.6963
 21
40.2665
  0
LINE
  8
0
 10
36.6963
 20
40.2665
 11
36.8613
 21
40.3572
  0
LINE
  8
0
 10
36.8613
 20
40.3572
 11
37.0365
 21
40.4266
  0
LINE
  8
0
 10
37.0365
 20
40.4266
 11
37.2189
 21
40.4734
  0
LINE
  8
0
 10
37.2189
 20
40.4734
 11
37.4058
 21
40.497
  0
LINE
  8
0
 10
37.4058
 20
40.497
 11
37.5942
 21
40.497
  0
LINE
  8
0
 10
37.5942
 20
40.497
 11
37.7811
 21
40.4734
  0
LINE
  8
0
 10
37.7811
 20
40.4734
 11
37.9635
 21
40.4266
  0
LINE
  8
0
 10
37.9635
 20
40.4266
 11
38.1387
 21
40.3572
  0
LINE
  8
0
 10
38.1387
 20
40.3572
 11
38.3037
 21
40.2665
  0
LINE
  8
0
 10
38.3037
 20
40.2665
 11
38.4561
 21
40.1558
  0
LINE
  8
0
 10
38.4561
 20
40.1558
 11
38.5934
 21
40.0268
  0
LINE
  8
0
 10
38.5934
 20
40.0268
 11
38.7135
 21
39.8817
  0
LINE
  8
0
 10
38.7135
 20
39.8817
 11
38.8145
 21
39.7226
  0
LINE
  8
0
 10
38.8145
 20
39.7226
 11
38.8947
 21
39.5522
  0
LINE
  8
0
 10
38.8947
 20
39.5522
 11
38.9529
 21
39.373
  0
LINE
  8
0
 10
38.9529
 20
39.373
 11
38.9882
 21
39.188
  0
LINE
  8
0
 10
38.9882
 20
39.188
 11
39
 21
39
  0
LINE
  8
0
 10
39
 20
39
 11
38.9882
 21
38.812
  0
LINE
  8
0
 10
38.9882
 20
38.812
 11
38.9529
 21
38.627
  0
LINE
  8
0
 10
38.9529
 20
38.627
 11
38.8947
 21
38.4478
  0
LINE
  8
0
 10
38.8947
 20
38.4478
 11
38.8145
 21
38.2774
  0
LINE
  8
0
 10
38.8145
 20
38.2774
 11
38.7135
 21
38.1183
  0
LINE
  8
0
 10
38.7135
 20
38.1183
 11
38.5934
 21
37.9732
  0
LINE
  8
0
 10
38.5934
 20
37.9732
 11
38.4561
 21
37.8442
  0
LINE
  8
0
 10
38.4561
 20
37.8442
 11
38.3037
 21
37.7335
  0
LINE
  8
0
 10
38.3037
 20
37.7335
 11
38.1387
 21
37.6428
  0
LINE
  8
0
 10
38.1387
 20
37.6428
 11
37.9635
 21
37.5734
  0
LINE
  8
0
 10
37.9635
 20
37.5734
 11
37.7811
 21
37.5266
  0
LINE
  8
0
 10
37.7811
 20
37.5266
 11
37.5942
 21
37.503
  0
LINE
  8
0
 10
37.5942
 20
37.503
 11
37.4058
 21
37.503
  0
LINE
  8
0
 10
37.3116
 20
28.5059
 11
36.9379
 21
28.5531
  0
LINE
  8
0
 10
36.9379
 20
28.5531
 11
36.5729
 21
28.6468
  0
LINE
  8
0
 10
36.5729
 20
28.6468
 11
36.2227
 21
28.7855
  0
LINE
  8
0
 10
36.2227
 20
28.7855
 11
35.8925
 21
28.967
  0
LINE
  8
0
 10
35.8925
 20
28.967
 11
35.5877
 21
29.1885
  0
LINE
  8
0
 10
35.5877
 20
29.1885
 11
35.3131
 21
29.4464
  0
LINE
  8
0
 10
35.3131
 20
29.4464
 11
35.0729
 21
29.7366
  0
LINE
  8
0
 10
35.0729
 20
29.7366
 11
34.8711
 21
30.0547
  0
LINE
  8
0
 10
34.8711
 20
30.0547
 11
34.7107
 21
30.3956
  0
LINE
  8
0
 10
34.7107
 20
30.3956
 11
34.5942
 21
30.7539
  0
LINE
  8
0
 10
34.5942
 20
30.7539
 11
34.5237
 21
31.124
  0
LINE
  8
0
 10
34.5237
 20
31.124
 11
34.5
 21
31.5
  0
LINE
  8
0
 10
34.5
 20
31.5
 11
34.5237
 21
31.876
  0
LINE
  8
0
 10
34.5237
 20
31.876
 11
34.5942
 21
32.2461
  0
LINE
  8
0
 10
34.5942
 20
32.2461
 11
34.7107
 21
32.6044
  0
LINE
  8
0
 10
34.7107
 20
32.6044
 11
34.8711
 21
32.9453
  0
LINE
  8
0
 10
34.8711
 20
32.9453
 11
35.0729
 21
33.2634
  0
LINE
  8
0
 10
35.0729
 20
33.2634
 11
35.3131
 21
33.5536
  0
LINE
  8
0
 10
35.3131
 20
33.5536
 11
35.5877
 21
33.8116
  0
LINE
  8
0
 10
35.5877
 20
33.8116
 11
35.8925
 21
34.033
  0
LINE
  8
0
 10
35.8925
 20
34.033
 11
36.2227
 21
34.2145
  0
LINE
  8
0
 10
36.2227
 20
34.2145
 11
36.5729
 21
34.3532
  0
LINE
  8
0
 10
36.5729
 20
34.3532
 11
36.9379
 21
34.4469
  0
LINE
  8
0
 10
36.9379
 20
34.4469
 11
37.3116
 21
34.4941
  0
LINE
  8
0
 10
37.3116
 20
34.4941
 11
37.6884
 21
34.4941
  0
LINE
  8
0
 10
37.6884
 20
34.4941
 11
38.0621
 21
34.4469
  0
LINE
  8
0
 10
38.0621
 20
34.4469
 11
38.427
 21
34.3532
  0
LINE
  8
0
 10
38.427
 20
34.3532
 11
38.7773
 21
34.2145
  0
LINE
  8
0
 10
38.7773
 20
34.2145
 11
39.1075
 21
34.033
  0
LINE
  8
0
 10
39.1075
 20
34.033
 11
39.4123
 21
33.8116
  0
LINE
  8
0
 10
39.4123
 20
33.8116
 11
39.6869
 21
33.5536
  0
LINE
  8
0
 10
39.6869
 20
33.5536
 11
39.927
 21
33.2634
  0
LINE
  8
0
 10
39.927
 20
33.2634
 11
40.1289
 21
32.9453
  0
LINE
  8
0
 10
40.1289
 20
32.9453
 11
40.2893
 21
32.6044
  0
LINE
  8
0
 10
40.2893
 20
32.6044
 11
40.4057
 21
32.2461
  0
LINE
  8
0
 10
40.4057
 20
32.2461
 11
40.4763
 21
31.876
  0
LINE
  8
0
 10
40.4763
 20
31.876
 11
40.5
 21
31.5
  0
LINE
  8
0
 10
40.5
 20
31.5
 11
40.4763
 21
31.124
  0
LINE
  8
0
 10
40.4763
 20
31.124
 11
40.4057
 21
30.7539
  0
LINE
  8
0
 10
40.4057
 20
30.7539
 11
40.2893
 21
30.3956
  0
LINE
  8
0
 10
40.2893
 20
30.3956
 11
40.1289
 21
30.0547
  0
LINE
  8
0
 10
40.1289
 20
30.0547
 11
39.927
 21
29.7366
  0
LINE
  8
0
 10
39.927
 20
29.7366
 11
39.6869
 21
29.4464
  0
LINE
  8
0
 10
39.6869
 20
29.4464
 11
39.4123
 21
29.1885
  0
LINE
  8
0
 10
39.4123
 20
29.1885
 11
39.1075
 21
28.967
  0
LINE
  8
0
 10
39.1075
 20
28.967
 11
38.7773
 21
28.7855
  0
LINE
  8
0
 10
38.7773
 20
28.7855
 11
38.427
 21
28.6468
  0
LINE
  8
0
 10
38.427
 20
28.6468
 11
38.0621
 21
28.5531
  0
LINE
  8
0
 10
38.0621
 20
28.5531
 11
37.6884
 21
28.5059
  0
LINE
  8
0
 10
37.6884
 20
28.5059
 11
37.3116
 21
28.5059
  0
LINE
  8
0
 10
-37.6884
 20
28.5059
 11
-38.0621
 21
28.5531
  0
LINE
  8
0
 10
-38.0621
 20
28.5531
 11
-38.427
 21
28.6468
  0
LINE
  8
0
 10
-38.427
 20
28.6468
 11
-38.7773
 21
28.7855
  0
LINE
  8
0
 10
-38.7773
 20
28.7855
 11
-39.1075
 21
28.967
  0
LINE
  8
0
 10
-39.1075
 20
28.967
 11
-39.4123
 21
29.1885
  0
LINE
  8
0
 10
-39.4123
 20
29.1885
 11
-39.6869
 21
29.4464
  0
LINE
  8
0
 10
-39.6869
 20
29.4464
 11
-39.927
 21
29.7366
  0
LINE
  8
0
 10
-39.927
 20
29.7366
 11
-40.1289
 21
30.0547
  0
LINE
  8
0
 10
-40.1289
 20
30.0547
 11
-40.2893
 21
30.3956
  0
LINE
  8
0
 10
-40.2893
 20
30.3956
 11
-40.4057
 21
30.7539
  0
LINE
  8
0
 10
-40.4057
 20
30.7539
 11
-40.4763
 21
31.124
  0
LINE
  8
0
 10
-40.4763
 20
31.124
 11
-40.5
 21
31.5
  0
LINE
  8
0
 10
-40.5
 20
31.5
 11
-40.4763
 21
31.876
  0
LINE
  8
0
 10
-40.4763
 20
31.876
 11
-40.4057
 21
32.2461
  0
LINE
  8
0
 10
-40.4057
 20
32.2461
 11
-40.2893
 21
32.6044
  0
LINE
  8
0
 10
-40.2893
 20
32.6044
 11
-40.1289
 21
32.9453
  0
LINE
  8
0
 10
-40.1289
 20
32.9453
 11
-39.927
 21
33.2634
  0
LINE
  8
0
 10
-39.927
 20
33.2634
 11
-39.6869
 21
33.5536
  0
LINE
  8
0
 10
-39.6869
 20
33.5536
 11
-39.4123
 21
33.8116
  0
LINE
  8
0
 10
-39.4123
 20
33.8116
 11
-39.1075
 21
34.033
  0
LINE
  8
0
 10
-39.1075
 20
34.033
 11
-38.7773
 21
34.2145
  0
LINE
  8
0
 10
-38.7773
 20
34.2145
 11
-38.427
 21
34.3532
  0
LINE
  8
0
 10
-38.427
 20
34.3532
 11
-38.0621
 21
34.4469
  0
LINE
  8
0
 10
-38.0621
 20
34.4469
 11
-37.6884
 21
34.4941
  0
LINE
  8
0
 10
-37.6884
 20
34.4941
 11
-37.3116
 21
34.4941
  0
LINE
  8
0
 10
-37.3116
 20
34.4941
 11
-36.9379
 21
34.4469
  0
LINE
  8
0
 10
-36.9379
 20
34.4469
 11
-36.5729
 21
34.3532
  0
LINE
  8
0
 10
-36.5729
 20
34.3532
 11
-36.2227
 21
34.2145
  0
LINE
  8
0
 10
-36.2227
 20
34.2145
 11
-35.8925
 21
34.033
  0
LINE
  8
0
 10
-35.8925
 20
34.033
 11
-35.5877
 21
33.8116
  0
LINE
  8
0
 10
-35.5877
 20
33.8116
 11
-35.3131
 21
33.5536
  0
LINE
  8
0
 10
-35.3131
 20
33.5536
 11
-35.0729
 21
33.2634
  0
LINE
  8
0
 10
-35.0729
 20
33.2634
 11
-34.8711
 21
32.9453
  0
LINE
  8
0
 10
-34.8711
 20
32.9453
 11
-34.7107
 21
32.6044
  0
LINE
  8
0
 10
-34.7107
 20
32.6044
 11
-34.5942
 21
32.2461
  0
LINE
  8
0
 10
-34.5942
 20
32.2461
 11
-34.5237
 21
31.876
  0
LINE
  8
0
 10
-34.5237
 20
31.876
 11
-34.5
 21
31.5
  0
LINE
  8
0
 10
-34.5
 20
31.5
 11
-34.5237
 21
31.124
  0
LINE
  8
0
 10
-34.5237
 20
31.124
 11
-34.5942
 21
30.7539
  0
LINE
  8
0
 10
-34.5942
 20
30.7539
 11
-34.7107
 21
30.3956
  0
LINE
  8
0
 10
-34.7107
 20
30.3956
 11
-34.8711
 21
30.0547
  0
LINE
  8
0
 10
-34.8711
 20
30.0547
 11
-35.0729
 21
29.7366
  0
LINE
  8
0
 10
-35.0729
 20
29.7366
 11
-35.3131
 21
29.4464
  0
LINE
  8
0
 10
-35.3131
 20
29.4464
 11
-35.5877
 21
29.1885
  0
LINE
  8
0
 10
-35.5877
 20
29.1885
 11
-35.8925
 21
28.967
  0
LINE
  8
0
 10
-35.8925
 20
28.967
 11
-36.2227
 21
28.7855
  0
LINE
  8
0
 10
-36.2227
 20
28.7855
 11
-36.5729
 21
28.6468
  0
LINE
  8
0
 10
-36.5729
 20
28.6468
 11
-36.9379
 21
28.5531
  0
LINE
  8
0
 10
-36.9379
 20
28.5531
 11
-37.3116
 21
28.5059
  0
LINE
  8
0
 10
-37.3116
 20
28.5059
 11
-37.6884
 21
28.5059
  0
ENDSEC
  0
SECTION
  2
OBJECTS
  0
DICTIONARY
  0
ENDSEC
  0
EOF
