  0
SECTION
  2
BLOCKS
  0
ENDSEC
  0
SECTION
  2
ENTITIES
  0
LINE
  8
0
 10
85.4369
 20
-44.4114
 11
86.0451
 21
-44.2553
  0
LINE
  8
0
 10
86.0451
 20
-44.2553
 11
86.6289
 21
-44.0241
  0
LINE
  8
0
 10
86.6289
 20
-44.0241
 11
87.1791
 21
-43.7216
  0
LINE
  8
0
 10
87.1791
 20
-43.7216
 11
87.6871
 21
-43.3526
  0
LINE
  8
0
 10
87.6871
 20
-43.3526
 11
88.1448
 21
-42.9227
  0
LINE
  8
0
 10
88.1448
 20
-42.9227
 11
88.5451
 21
-42.4389
  0
LINE
  8
0
 10
88.5451
 20
-42.4389
 11
88.8815
 21
-41.9088
  0
LINE
  8
0
 10
88.8815
 20
-41.9088
 11
89.1489
 21
-41.3406
  0
LINE
  8
0
 10
89.1489
 20
-41.3406
 11
89.3429
 21
-40.7434
  0
LINE
  8
0
 10
89.3429
 20
-40.7434
 11
89.4606
 21
-40.1267
  0
LINE
  8
0
 10
89.4606
 20
-40.1267
 11
89.5
 21
-39.5
  0
LINE
  8
0
 10
89.5
 20
-39.5
 11
89.5
 21
39.5
  0
LINE
  8
0
 10
89.5
 20
39.5
 11
89.4606
 21
40.1267
  0
LINE
  8
0
 10
89.4606
 20
40.1267
 11
89.3429
 21
40.7434
  0
LINE
  8
0
 10
89.3429
 20
40.7434
 11
89.1489
 21
41.3406
  0
LINE
  8
0
 10
89.1489
 20
41.3406
 11
88.8815
 21
41.9088
  0
LINE
  8
0
 10
88.8815
 20
41.9088
 11
88.5451
 21
42.4389
  0
LINE
  8
0
 10
88.5451
 20
42.4389
 11
88.1448
 21
42.9227
  0
LINE
  8
0
 10
88.1448
 20
42.9227
 11
87.6871
 21
43.3526
  0
LINE
  8
0
 10
87.6871
 20
43.3526
 11
87.1791
 21
43.7216
  0
LINE
  8
0
 10
87.1791
 20
43.7216
 11
86.6289
 21
44.0241
  0
LINE
  8
0
 10
86.6289
 20
44.0241
 11
86.0451
 21
44.2553
  0
LINE
  8
0
 10
86.0451
 20
44.2553
 11
85.4369
 21
44.4114
  0
LINE
  8
0
 10
85.4369
 20
44.4114
 11
84.8139
 21
44.4901
  0
LINE
  8
0
 10
84.8139
 20
44.4901
 11
-84.8139
 21
44.4901
  0
LINE
  8
0
 10
-84.8139
 20
44.4901
 11
-85.4369
 21
44.4114
  0
LINE
  8
0
 10
-85.4369
 20
44.4114
 11
-86.0451
 21
44.2553
  0
LINE
  8
0
 10
-86.0451
 20
44.2553
 11
-86.6289
 21
44.0241
  0
LINE
  8
0
 10
-86.6289
 20
44.0241
 11
-87.1791
 21
43.7216
  0
LINE
  8
0
 10
-87.1791
 20
43.7216
 11
-87.6871
 21
43.3526
  0
LINE
  8
0
 10
-87.6871
 20
43.3526
 11
-88.1448
 21
42.9227
  0
LINE
  8
0
 10
-88.1448
 20
42.9227
 11
-88.5451
 21
42.4389
  0
LINE
  8
0
 10
-88.5451
 20
42.4389
 11
-88.8815
 21
41.9088
  0
LINE
  8
0
 10
-88.8815
 20
41.9088
 11
-89.1489
 21
41.3406
  0
LINE
  8
0
 10
-89.1489
 20
41.3406
 11
-89.3429
 21
40.7434
  0
LINE
  8
0
 10
-89.3429
 20
40.7434
 11
-89.4606
 21
40.1267
  0
LINE
  8
0
 10
-89.4606
 20
40.1267
 11
-89.5
 21
39.5
  0
LINE
  8
0
 10
-89.5
 20
39.5
 11
-89.5
 21
-39.5
  0
LINE
  8
0
 10
-89.5
 20
-39.5
 11
-89.4606
 21
-40.1267
  0
LINE
  8
0
 10
-89.4606
 20
-40.1267
 11
-89.3429
 21
-40.7434
  0
LINE
  8
0
 10
-89.3429
 20
-40.7434
 11
-89.1489
 21
-41.3406
  0
LINE
  8
0
 10
-89.1489
 20
-41.3406
 11
-88.8815
 21
-41.9088
  0
LINE
  8
0
 10
-88.8815
 20
-41.9088
 11
-88.5451
 21
-42.4389
  0
LINE
  8
0
 10
-88.5451
 20
-42.4389
 11
-88.1448
 21
-42.9227
  0
LINE
  8
0
 10
-88.1448
 20
-42.9227
 11
-87.6871
 21
-43.3526
  0
LINE
  8
0
 10
-87.6871
 20
-43.3526
 11
-87.1791
 21
-43.7216
  0
LINE
  8
0
 10
-87.1791
 20
-43.7216
 11
-86.6289
 21
-44.0241
  0
LINE
  8
0
 10
-86.6289
 20
-44.0241
 11
-86.0451
 21
-44.2553
  0
LINE
  8
0
 10
-86.0451
 20
-44.2553
 11
-85.4369
 21
-44.4114
  0
LINE
  8
0
 10
-85.4369
 20
-44.4114
 11
-84.8139
 21
-44.4901
  0
LINE
  8
0
 10
-84.8139
 20
-44.4901
 11
84.8139
 21
-44.4901
  0
LINE
  8
0
 10
84.8139
 20
-44.4901
 11
85.4369
 21
-44.4114
  0
LINE
  8
0
 10
-7.68837
 20
34.5059
 11
-8.06213
 21
34.5531
  0
LINE
  8
0
 10
-8.06213
 20
34.5531
 11
-8.42705
 21
34.6468
  0
LINE
  8
0
 10
-8.42705
 20
34.6468
 11
-8.77733
 21
34.7855
  0
LINE
  8
0
 10
-8.77733
 20
34.7855
 11
-9.10747
 21
34.967
  0
LINE
  8
0
 10
-9.10747
 20
34.967
 11
-9.41226
 21
35.1885
  0
LINE
  8
0
 10
-9.41226
 20
35.1885
 11
-9.6869
 21
35.4464
  0
LINE
  8
0
 10
-9.6869
 20
35.4464
 11
-9.92705
 21
35.7366
  0
LINE
  8
0
 10
-9.92705
 20
35.7366
 11
-10.1289
 21
36.0547
  0
LINE
  8
0
 10
-10.1289
 20
36.0547
 11
-10.2893
 21
36.3956
  0
LINE
  8
0
 10
-10.2893
 20
36.3956
 11
-10.4057
 21
36.7539
  0
LINE
  8
0
 10
-10.4057
 20
36.7539
 11
-10.4763
 21
37.124
  0
LINE
  8
0
 10
-10.4763
 20
37.124
 11
-10.5
 21
37.5
  0
LINE
  8
0
 10
-10.5
 20
37.5
 11
-10.4763
 21
37.876
  0
LINE
  8
0
 10
-10.4763
 20
37.876
 11
-10.4057
 21
38.2461
  0
LINE
  8
0
 10
-10.4057
 20
38.2461
 11
-10.2893
 21
38.6044
  0
LINE
  8
0
 10
-10.2893
 20
38.6044
 11
-10.1289
 21
38.9453
  0
LINE
  8
0
 10
-10.1289
 20
38.9453
 11
-9.92705
 21
39.2634
  0
LINE
  8
0
 10
-9.92705
 20
39.2634
 11
-9.6869
 21
39.5536
  0
LINE
  8
0
 10
-9.6869
 20
39.5536
 11
-9.41226
 21
39.8115
  0
LINE
  8
0
 10
-9.41226
 20
39.8115
 11
-9.10747
 21
40.033
  0
LINE
  8
0
 10
-9.10747
 20
40.033
 11
-8.77733
 21
40.2145
  0
LINE
  8
0
 10
-8.77733
 20
40.2145
 11
-8.42705
 21
40.3532
  0
LINE
  8
0
 10
-8.42705
 20
40.3532
 11
-8.06213
 21
40.4469
  0
LINE
  8
0
 10
-8.06213
 20
40.4469
 11
-7.68837
 21
40.4941
  0
LINE
  8
0
 10
-7.68837
 20
40.4941
 11
-7.31161
 21
40.4941
  0
LINE
  8
0
 10
-7.31161
 20
40.4941
 11
-6.93785
 21
40.4469
  0
LINE
  8
0
 10
-6.93785
 20
40.4469
 11
-6.57294
 21
40.3532
  0
LINE
  8
0
 10
-6.57294
 20
40.3532
 11
-6.22266
 21
40.2145
  0
LINE
  8
0
 10
-6.22266
 20
40.2145
 11
-5.89252
 21
40.033
  0
LINE
  8
0
 10
-5.89252
 20
40.033
 11
-5.58772
 21
39.8115
  0
LINE
  8
0
 10
-5.58772
 20
39.8115
 11
-5.31308
 21
39.5536
  0
LINE
  8
0
 10
-5.31308
 20
39.5536
 11
-5.07294
 21
39.2634
  0
LINE
  8
0
 10
-5.07294
 20
39.2634
 11
-4.87108
 21
38.9453
  0
LINE
  8
0
 10
-4.87108
 20
38.9453
 11
-4.71066
 21
38.6044
  0
LINE
  8
0
 10
-4.71066
 20
38.6044
 11
-4.59424
 21
38.2461
  0
LINE
  8
0
 10
-4.59424
 20
38.2461
 11
-4.52365
 21
37.876
  0
LINE
  8
0
 10
-4.52365
 20
37.876
 11
-4.5
 21
37.5
  0
LINE
  8
0
 10
-4.5
 20
37.5
 11
-4.52365
 21
37.124
  0
LINE
  8
0
 10
-4.52365
 20
37.124
 11
-4.59424
 21
36.7539
  0
LINE
  8
0
 10
-4.59424
 20
36.7539
 11
-4.71066
 21
36.3956
  0
LINE
  8
0
 10
-4.71066
 20
36.3956
 11
-4.87108
 21
36.0547
  0
LINE
  8
0
 10
-4.87108
 20
36.0547
 11
-5.07294
 21
35.7366
  0
LINE
  8
0
 10
-5.07294
 20
35.7366
 11
-5.31308
 21
35.4464
  0
LINE
  8
0
 10
-5.31308
 20
35.4464
 11
-5.58772
 21
35.1885
  0
LINE
  8
0
 10
-5.58772
 20
35.1885
 11
-5.89252
 21
34.967
  0
LINE
  8
0
 10
-5.89252
 20
34.967
 11
-6.22266
 21
34.7855
  0
LINE
  8
0
 10
-6.22266
 20
34.7855
 11
-6.57294
 21
34.6468
  0
LINE
  8
0
 10
-6.57294
 20
34.6468
 11
-6.93785
 21
34.5531
  0
LINE
  8
0
 10
-6.93785
 20
34.5531
 11
-7.31161
 21
34.5059
  0
LINE
  8
0
 10
-7.31161
 20
34.5059
 11
-7.68837
 21
34.5059
  0
LINE
  8
0
 10
82.3116
 20
34.5059
 11
81.9379
 21
34.5531
  0
LINE
  8
0
 10
81.9379
 20
34.5531
 11
81.573
 21
34.6468
  0
LINE
  8
0
 10
81.573
 20
34.6468
 11
81.2227
 21
34.7855
  0
LINE
  8
0
 10
81.2227
 20
34.7855
 11
80.8925
 21
34.967
  0
LINE
  8
0
 10
80.8925
 20
34.967
 11
80.5877
 21
35.1885
  0
LINE
  8
0
 10
80.5877
 20
35.1885
 11
80.3131
 21
35.4464
  0
LINE
  8
0
 10
80.3131
 20
35.4464
 11
80.073
 21
35.7366
  0
LINE
  8
0
 10
80.073
 20
35.7366
 11
79.8711
 21
36.0547
  0
LINE
  8
0
 10
79.8711
 20
36.0547
 11
79.7107
 21
36.3956
  0
LINE
  8
0
 10
79.7107
 20
36.3956
 11
79.5943
 21
36.7539
  0
LINE
  8
0
 10
79.5943
 20
36.7539
 11
79.5237
 21
37.124
  0
LINE
  8
0
 10
79.5237
 20
37.124
 11
79.5
 21
37.5
  0
LINE
  8
0
 10
79.5
 20
37.5
 11
79.5237
 21
37.876
  0
LINE
  8
0
 10
79.5237
 20
37.876
 11
79.5943
 21
38.2461
  0
LINE
  8
0
 10
79.5943
 20
38.2461
 11
79.7107
 21
38.6044
  0
LINE
  8
0
 10
79.7107
 20
38.6044
 11
79.8711
 21
38.9453
  0
LINE
  8
0
 10
79.8711
 20
38.9453
 11
80.073
 21
39.2634
  0
LINE
  8
0
 10
80.073
 20
39.2634
 11
80.3131
 21
39.5536
  0
LINE
  8
0
 10
80.3131
 20
39.5536
 11
80.5877
 21
39.8115
  0
LINE
  8
0
 10
80.5877
 20
39.8115
 11
80.8925
 21
40.033
  0
LINE
  8
0
 10
80.8925
 20
40.033
 11
81.2227
 21
40.2145
  0
LINE
  8
0
 10
81.2227
 20
40.2145
 11
81.573
 21
40.3532
  0
LINE
  8
0
 10
81.573
 20
40.3532
 11
81.9379
 21
40.4469
  0
LINE
  8
0
 10
81.9379
 20
40.4469
 11
82.3116
 21
40.4941
  0
LINE
  8
0
 10
82.3116
 20
40.4941
 11
82.6884
 21
40.4941
  0
LINE
  8
0
 10
82.6884
 20
40.4941
 11
83.0621
 21
40.4469
  0
LINE
  8
0
 10
83.0621
 20
40.4469
 11
83.427
 21
40.3532
  0
LINE
  8
0
 10
83.427
 20
40.3532
 11
83.7773
 21
40.2145
  0
LINE
  8
0
 10
83.7773
 20
40.2145
 11
84.1075
 21
40.033
  0
LINE
  8
0
 10
84.1075
 20
40.033
 11
84.4123
 21
39.8115
  0
LINE
  8
0
 10
84.4123
 20
39.8115
 11
84.6869
 21
39.5536
  0
LINE
  8
0
 10
84.6869
 20
39.5536
 11
84.927
 21
39.2634
  0
LINE
  8
0
 10
84.927
 20
39.2634
 11
85.1289
 21
38.9453
  0
LINE
  8
0
 10
85.1289
 20
38.9453
 11
85.2893
 21
38.6044
  0
LINE
  8
0
 10
85.2893
 20
38.6044
 11
85.4057
 21
38.2461
  0
LINE
  8
0
 10
85.4057
 20
38.2461
 11
85.4763
 21
37.876
  0
LINE
  8
0
 10
85.4763
 20
37.876
 11
85.5
 21
37.5
  0
LINE
  8
0
 10
85.5
 20
37.5
 11
85.4763
 21
37.124
  0
LINE
  8
0
 10
85.4763
 20
37.124
 11
85.4057
 21
36.7539
  0
LINE
  8
0
 10
85.4057
 20
36.7539
 11
85.2893
 21
36.3956
  0
LINE
  8
0
 10
85.2893
 20
36.3956
 11
85.1289
 21
36.0547
  0
LINE
  8
0
 10
85.1289
 20
36.0547
 11
84.927
 21
35.7366
  0
LINE
  8
0
 10
84.927
 20
35.7366
 11
84.6869
 21
35.4464
  0
LINE
  8
0
 10
84.6869
 20
35.4464
 11
84.4123
 21
35.1885
  0
LINE
  8
0
 10
84.4123
 20
35.1885
 11
84.1075
 21
34.967
  0
LINE
  8
0
 10
84.1075
 20
34.967
 11
83.7773
 21
34.7855
  0
LINE
  8
0
 10
83.7773
 20
34.7855
 11
83.427
 21
34.6468
  0
LINE
  8
0
 10
83.427
 20
34.6468
 11
83.0621
 21
34.5531
  0
LINE
  8
0
 10
83.0621
 20
34.5531
 11
82.6884
 21
34.5059
  0
LINE
  8
0
 10
82.6884
 20
34.5059
 11
82.3116
 21
34.5059
  0
LINE
  8
0
 10
7.31161
 20
34.5059
 11
6.93785
 21
34.5531
  0
LINE
  8
0
 10
6.93785
 20
34.5531
 11
6.57294
 21
34.6468
  0
LINE
  8
0
 10
6.57294
 20
34.6468
 11
6.22266
 21
34.7855
  0
LINE
  8
0
 10
6.22266
 20
34.7855
 11
5.89252
 21
34.967
  0
LINE
  8
0
 10
5.89252
 20
34.967
 11
5.58772
 21
35.1885
  0
LINE
  8
0
 10
5.58772
 20
35.1885
 11
5.31308
 21
35.4464
  0
LINE
  8
0
 10
5.31308
 20
35.4464
 11
5.07294
 21
35.7366
  0
LINE
  8
0
 10
5.07294
 20
35.7366
 11
4.87108
 21
36.0547
  0
LINE
  8
0
 10
4.87108
 20
36.0547
 11
4.71066
 21
36.3956
  0
LINE
  8
0
 10
4.71066
 20
36.3956
 11
4.59424
 21
36.7539
  0
LINE
  8
0
 10
4.59424
 20
36.7539
 11
4.52365
 21
37.124
  0
LINE
  8
0
 10
4.52365
 20
37.124
 11
4.5
 21
37.5
  0
LINE
  8
0
 10
4.5
 20
37.5
 11
4.52365
 21
37.876
  0
LINE
  8
0
 10
4.52365
 20
37.876
 11
4.59424
 21
38.2461
  0
LINE
  8
0
 10
4.59424
 20
38.2461
 11
4.71066
 21
38.6044
  0
LINE
  8
0
 10
4.71066
 20
38.6044
 11
4.87108
 21
38.9453
  0
LINE
  8
0
 10
4.87108
 20
38.9453
 11
5.07294
 21
39.2634
  0
LINE
  8
0
 10
5.07294
 20
39.2634
 11
5.31308
 21
39.5536
  0
LINE
  8
0
 10
5.31308
 20
39.5536
 11
5.58772
 21
39.8115
  0
LINE
  8
0
 10
5.58772
 20
39.8115
 11
5.89252
 21
40.033
  0
LINE
  8
0
 10
5.89252
 20
40.033
 11
6.22266
 21
40.2145
  0
LINE
  8
0
 10
6.22266
 20
40.2145
 11
6.57294
 21
40.3532
  0
LINE
  8
0
 10
6.57294
 20
40.3532
 11
6.93785
 21
40.4469
  0
LINE
  8
0
 10
6.93785
 20
40.4469
 11
7.31161
 21
40.4941
  0
LINE
  8
0
 10
7.31161
 20
40.4941
 11
7.68837
 21
40.4941
  0
LINE
  8
0
 10
7.68837
 20
40.4941
 11
8.06213
 21
40.4469
  0
LINE
  8
0
 10
8.06213
 20
40.4469
 11
8.42705
 21
40.3532
  0
LINE
  8
0
 10
8.42705
 20
40.3532
 11
8.77733
 21
40.2145
  0
LINE
  8
0
 10
8.77733
 20
40.2145
 11
9.10747
 21
40.033
  0
LINE
  8
0
 10
9.10747
 20
40.033
 11
9.41226
 21
39.8115
  0
LINE
  8
0
 10
9.41226
 20
39.8115
 11
9.6869
 21
39.5536
  0
LINE
  8
0
 10
9.6869
 20
39.5536
 11
9.92705
 21
39.2634
  0
LINE
  8
0
 10
9.92705
 20
39.2634
 11
10.1289
 21
38.9453
  0
LINE
  8
0
 10
10.1289
 20
38.9453
 11
10.2893
 21
38.6044
  0
LINE
  8
0
 10
10.2893
 20
38.6044
 11
10.4057
 21
38.2461
  0
LINE
  8
0
 10
10.4057
 20
38.2461
 11
10.4763
 21
37.876
  0
LINE
  8
0
 10
10.4763
 20
37.876
 11
10.5
 21
37.5
  0
LINE
  8
0
 10
10.5
 20
37.5
 11
10.4763
 21
37.124
  0
LINE
  8
0
 10
10.4763
 20
37.124
 11
10.4057
 21
36.7539
  0
LINE
  8
0
 10
10.4057
 20
36.7539
 11
10.2893
 21
36.3956
  0
LINE
  8
0
 10
10.2893
 20
36.3956
 11
10.1289
 21
36.0547
  0
LINE
  8
0
 10
10.1289
 20
36.0547
 11
9.92705
 21
35.7366
  0
LINE
  8
0
 10
9.92705
 20
35.7366
 11
9.6869
 21
35.4464
  0
LINE
  8
0
 10
9.6869
 20
35.4464
 11
9.41226
 21
35.1885
  0
LINE
  8
0
 10
9.41226
 20
35.1885
 11
9.10747
 21
34.967
  0
LINE
  8
0
 10
9.10747
 20
34.967
 11
8.77733
 21
34.7855
  0
LINE
  8
0
 10
8.77733
 20
34.7855
 11
8.42705
 21
34.6468
  0
LINE
  8
0
 10
8.42705
 20
34.6468
 11
8.06213
 21
34.5531
  0
LINE
  8
0
 10
8.06213
 20
34.5531
 11
7.68837
 21
34.5059
  0
LINE
  8
0
 10
7.68837
 20
34.5059
 11
7.31161
 21
34.5059
  0
LINE
  8
0
 10
-22.6884
 20
34.5059
 11
-23.0621
 21
34.5531
  0
LINE
  8
0
 10
-23.0621
 20
34.5531
 11
-23.427
 21
34.6468
  0
LINE
  8
0
 10
-23.427
 20
34.6468
 11
-23.7773
 21
34.7855
  0
LINE
  8
0
 10
-23.7773
 20
34.7855
 11
-24.1075
 21
34.967
  0
LINE
  8
0
 10
-24.1075
 20
34.967
 11
-24.4123
 21
35.1885
  0
LINE
  8
0
 10
-24.4123
 20
35.1885
 11
-24.6869
 21
35.4464
  0
LINE
  8
0
 10
-24.6869
 20
35.4464
 11
-24.927
 21
35.7366
  0
LINE
  8
0
 10
-24.927
 20
35.7366
 11
-25.1289
 21
36.0547
  0
LINE
  8
0
 10
-25.1289
 20
36.0547
 11
-25.2893
 21
36.3956
  0
LINE
  8
0
 10
-25.2893
 20
36.3956
 11
-25.4057
 21
36.7539
  0
LINE
  8
0
 10
-25.4057
 20
36.7539
 11
-25.4763
 21
37.124
  0
LINE
  8
0
 10
-25.4763
 20
37.124
 11
-25.5
 21
37.5
  0
LINE
  8
0
 10
-25.5
 20
37.5
 11
-25.4763
 21
37.876
  0
LINE
  8
0
 10
-25.4763
 20
37.876
 11
-25.4057
 21
38.2461
  0
LINE
  8
0
 10
-25.4057
 20
38.2461
 11
-25.2893
 21
38.6044
  0
LINE
  8
0
 10
-25.2893
 20
38.6044
 11
-25.1289
 21
38.9453
  0
LINE
  8
0
 10
-25.1289
 20
38.9453
 11
-24.927
 21
39.2634
  0
LINE
  8
0
 10
-24.927
 20
39.2634
 11
-24.6869
 21
39.5536
  0
LINE
  8
0
 10
-24.6869
 20
39.5536
 11
-24.4123
 21
39.8115
  0
LINE
  8
0
 10
-24.4123
 20
39.8115
 11
-24.1075
 21
40.033
  0
LINE
  8
0
 10
-24.1075
 20
40.033
 11
-23.7773
 21
40.2145
  0
LINE
  8
0
 10
-23.7773
 20
40.2145
 11
-23.427
 21
40.3532
  0
LINE
  8
0
 10
-23.427
 20
40.3532
 11
-23.0621
 21
40.4469
  0
LINE
  8
0
 10
-23.0621
 20
40.4469
 11
-22.6884
 21
40.4941
  0
LINE
  8
0
 10
-22.6884
 20
40.4941
 11
-22.3116
 21
40.4941
  0
LINE
  8
0
 10
-22.3116
 20
40.4941
 11
-21.9379
 21
40.4469
  0
LINE
  8
0
 10
-21.9379
 20
40.4469
 11
-21.5729
 21
40.3532
  0
LINE
  8
0
 10
-21.5729
 20
40.3532
 11
-21.2227
 21
40.2145
  0
LINE
  8
0
 10
-21.2227
 20
40.2145
 11
-20.8925
 21
40.033
  0
LINE
  8
0
 10
-20.8925
 20
40.033
 11
-20.5877
 21
39.8115
  0
LINE
  8
0
 10
-20.5877
 20
39.8115
 11
-20.3131
 21
39.5536
  0
LINE
  8
0
 10
-20.3131
 20
39.5536
 11
-20.0729
 21
39.2634
  0
LINE
  8
0
 10
-20.0729
 20
39.2634
 11
-19.8711
 21
38.9453
  0
LINE
  8
0
 10
-19.8711
 20
38.9453
 11
-19.7107
 21
38.6044
  0
LINE
  8
0
 10
-19.7107
 20
38.6044
 11
-19.5942
 21
38.2461
  0
LINE
  8
0
 10
-19.5942
 20
38.2461
 11
-19.5237
 21
37.876
  0
LINE
  8
0
 10
-19.5237
 20
37.876
 11
-19.5
 21
37.5
  0
LINE
  8
0
 10
-19.5
 20
37.5
 11
-19.5237
 21
37.124
  0
LINE
  8
0
 10
-19.5237
 20
37.124
 11
-19.5942
 21
36.7539
  0
LINE
  8
0
 10
-19.5942
 20
36.7539
 11
-19.7107
 21
36.3956
  0
LINE
  8
0
 10
-19.7107
 20
36.3956
 11
-19.8711
 21
36.0547
  0
LINE
  8
0
 10
-19.8711
 20
36.0547
 11
-20.0729
 21
35.7366
  0
LINE
  8
0
 10
-20.0729
 20
35.7366
 11
-20.3131
 21
35.4464
  0
LINE
  8
0
 10
-20.3131
 20
35.4464
 11
-20.5877
 21
35.1885
  0
LINE
  8
0
 10
-20.5877
 20
35.1885
 11
-20.8925
 21
34.967
  0
LINE
  8
0
 10
-20.8925
 20
34.967
 11
-21.2227
 21
34.7855
  0
LINE
  8
0
 10
-21.2227
 20
34.7855
 11
-21.5729
 21
34.6468
  0
LINE
  8
0
 10
-21.5729
 20
34.6468
 11
-21.9379
 21
34.5531
  0
LINE
  8
0
 10
-21.9379
 20
34.5531
 11
-22.3116
 21
34.5059
  0
LINE
  8
0
 10
-22.3116
 20
34.5059
 11
-22.6884
 21
34.5059
  0
LINE
  8
0
 10
-37.6884
 20
34.5059
 11
-38.0621
 21
34.5531
  0
LINE
  8
0
 10
-38.0621
 20
34.5531
 11
-38.427
 21
34.6468
  0
LINE
  8
0
 10
-38.427
 20
34.6468
 11
-38.7773
 21
34.7855
  0
LINE
  8
0
 10
-38.7773
 20
34.7855
 11
-39.1075
 21
34.967
  0
LINE
  8
0
 10
-39.1075
 20
34.967
 11
-39.4123
 21
35.1885
  0
LINE
  8
0
 10
-39.4123
 20
35.1885
 11
-39.6869
 21
35.4464
  0
LINE
  8
0
 10
-39.6869
 20
35.4464
 11
-39.927
 21
35.7366
  0
LINE
  8
0
 10
-39.927
 20
35.7366
 11
-40.1289
 21
36.0547
  0
LINE
  8
0
 10
-40.1289
 20
36.0547
 11
-40.2893
 21
36.3956
  0
LINE
  8
0
 10
-40.2893
 20
36.3956
 11
-40.4057
 21
36.7539
  0
LINE
  8
0
 10
-40.4057
 20
36.7539
 11
-40.4763
 21
37.124
  0
LINE
  8
0
 10
-40.4763
 20
37.124
 11
-40.5
 21
37.5
  0
LINE
  8
0
 10
-40.5
 20
37.5
 11
-40.4763
 21
37.876
  0
LINE
  8
0
 10
-40.4763
 20
37.876
 11
-40.4057
 21
38.2461
  0
LINE
  8
0
 10
-40.4057
 20
38.2461
 11
-40.2893
 21
38.6044
  0
LINE
  8
0
 10
-40.2893
 20
38.6044
 11
-40.1289
 21
38.9453
  0
LINE
  8
0
 10
-40.1289
 20
38.9453
 11
-39.927
 21
39.2634
  0
LINE
  8
0
 10
-39.927
 20
39.2634
 11
-39.6869
 21
39.5536
  0
LINE
  8
0
 10
-39.6869
 20
39.5536
 11
-39.4123
 21
39.8115
  0
LINE
  8
0
 10
-39.4123
 20
39.8115
 11
-39.1075
 21
40.033
  0
LINE
  8
0
 10
-39.1075
 20
40.033
 11
-38.7773
 21
40.2145
  0
LINE
  8
0
 10
-38.7773
 20
40.2145
 11
-38.427
 21
40.3532
  0
LINE
  8
0
 10
-38.427
 20
40.3532
 11
-38.0621
 21
40.4469
  0
LINE
  8
0
 10
-38.0621
 20
40.4469
 11
-37.6884
 21
40.4941
  0
LINE
  8
0
 10
-37.6884
 20
40.4941
 11
-37.3116
 21
40.4941
  0
LINE
  8
0
 10
-37.3116
 20
40.4941
 11
-36.9379
 21
40.4469
  0
LINE
  8
0
 10
-36.9379
 20
40.4469
 11
-36.5729
 21
40.3532
  0
LINE
  8
0
 10
-36.5729
 20
40.3532
 11
-36.2227
 21
40.2145
  0
LINE
  8
0
 10
-36.2227
 20
40.2145
 11
-35.8925
 21
40.033
  0
LINE
  8
0
 10
-35.8925
 20
40.033
 11
-35.5877
 21
39.8115
  0
LINE
  8
0
 10
-35.5877
 20
39.8115
 11
-35.3131
 21
39.5536
  0
LINE
  8
0
 10
-35.3131
 20
39.5536
 11
-35.0729
 21
39.2634
  0
LINE
  8
0
 10
-35.0729
 20
39.2634
 11
-34.8711
 21
38.9453
  0
LINE
  8
0
 10
-34.8711
 20
38.9453
 11
-34.7107
 21
38.6044
  0
LINE
  8
0
 10
-34.7107
 20
38.6044
 11
-34.5942
 21
38.2461
  0
LINE
  8
0
 10
-34.5942
 20
38.2461
 11
-34.5237
 21
37.876
  0
LINE
  8
0
 10
-34.5237
 20
37.876
 11
-34.5
 21
37.5
  0
LINE
  8
0
 10
-34.5
 20
37.5
 11
-34.5237
 21
37.124
  0
LINE
  8
0
 10
-34.5237
 20
37.124
 11
-34.5942
 21
36.7539
  0
LINE
  8
0
 10
-34.5942
 20
36.7539
 11
-34.7107
 21
36.3956
  0
LINE
  8
0
 10
-34.7107
 20
36.3956
 11
-34.8711
 21
36.0547
  0
LINE
  8
0
 10
-34.8711
 20
36.0547
 11
-35.0729
 21
35.7366
  0
LINE
  8
0
 10
-35.0729
 20
35.7366
 11
-35.3131
 21
35.4464
  0
LINE
  8
0
 10
-35.3131
 20
35.4464
 11
-35.5877
 21
35.1885
  0
LINE
  8
0
 10
-35.5877
 20
35.1885
 11
-35.8925
 21
34.967
  0
LINE
  8
0
 10
-35.8925
 20
34.967
 11
-36.2227
 21
34.7855
  0
LINE
  8
0
 10
-36.2227
 20
34.7855
 11
-36.5729
 21
34.6468
  0
LINE
  8
0
 10
-36.5729
 20
34.6468
 11
-36.9379
 21
34.5531
  0
LINE
  8
0
 10
-36.9379
 20
34.5531
 11
-37.3116
 21
34.5059
  0
LINE
  8
0
 10
-37.3116
 20
34.5059
 11
-37.6884
 21
34.5059
  0
LINE
  8
0
 10
-67.6884
 20
34.5059
 11
-68.0621
 21
34.5531
  0
LINE
  8
0
 10
-68.0621
 20
34.5531
 11
-68.427
 21
34.6468
  0
LINE
  8
0
 10
-68.427
 20
34.6468
 11
-68.7773
 21
34.7855
  0
LINE
  8
0
 10
-68.7773
 20
34.7855
 11
-69.1075
 21
34.967
  0
LINE
  8
0
 10
-69.1075
 20
34.967
 11
-69.4123
 21
35.1885
  0
LINE
  8
0
 10
-69.4123
 20
35.1885
 11
-69.6869
 21
35.4464
  0
LINE
  8
0
 10
-69.6869
 20
35.4464
 11
-69.927
 21
35.7366
  0
LINE
  8
0
 10
-69.927
 20
35.7366
 11
-70.1289
 21
36.0547
  0
LINE
  8
0
 10
-70.1289
 20
36.0547
 11
-70.2893
 21
36.3956
  0
LINE
  8
0
 10
-70.2893
 20
36.3956
 11
-70.4057
 21
36.7539
  0
LINE
  8
0
 10
-70.4057
 20
36.7539
 11
-70.4763
 21
37.124
  0
LINE
  8
0
 10
-70.4763
 20
37.124
 11
-70.5
 21
37.5
  0
LINE
  8
0
 10
-70.5
 20
37.5
 11
-70.4763
 21
37.876
  0
LINE
  8
0
 10
-70.4763
 20
37.876
 11
-70.4057
 21
38.2461
  0
LINE
  8
0
 10
-70.4057
 20
38.2461
 11
-70.2893
 21
38.6044
  0
LINE
  8
0
 10
-70.2893
 20
38.6044
 11
-70.1289
 21
38.9453
  0
LINE
  8
0
 10
-70.1289
 20
38.9453
 11
-69.927
 21
39.2634
  0
LINE
  8
0
 10
-69.927
 20
39.2634
 11
-69.6869
 21
39.5536
  0
LINE
  8
0
 10
-69.6869
 20
39.5536
 11
-69.4123
 21
39.8115
  0
LINE
  8
0
 10
-69.4123
 20
39.8115
 11
-69.1075
 21
40.033
  0
LINE
  8
0
 10
-69.1075
 20
40.033
 11
-68.7773
 21
40.2145
  0
LINE
  8
0
 10
-68.7773
 20
40.2145
 11
-68.427
 21
40.3532
  0
LINE
  8
0
 10
-68.427
 20
40.3532
 11
-68.0621
 21
40.4469
  0
LINE
  8
0
 10
-68.0621
 20
40.4469
 11
-67.6884
 21
40.4941
  0
LINE
  8
0
 10
-67.6884
 20
40.4941
 11
-67.3116
 21
40.4941
  0
LINE
  8
0
 10
-67.3116
 20
40.4941
 11
-66.9379
 21
40.4469
  0
LINE
  8
0
 10
-66.9379
 20
40.4469
 11
-66.573
 21
40.3532
  0
LINE
  8
0
 10
-66.573
 20
40.3532
 11
-66.2227
 21
40.2145
  0
LINE
  8
0
 10
-66.2227
 20
40.2145
 11
-65.8925
 21
40.033
  0
LINE
  8
0
 10
-65.8925
 20
40.033
 11
-65.5877
 21
39.8115
  0
LINE
  8
0
 10
-65.5877
 20
39.8115
 11
-65.3131
 21
39.5536
  0
LINE
  8
0
 10
-65.3131
 20
39.5536
 11
-65.073
 21
39.2634
  0
LINE
  8
0
 10
-65.073
 20
39.2634
 11
-64.8711
 21
38.9453
  0
LINE
  8
0
 10
-64.8711
 20
38.9453
 11
-64.7107
 21
38.6044
  0
LINE
  8
0
 10
-64.7107
 20
38.6044
 11
-64.5943
 21
38.2461
  0
LINE
  8
0
 10
-64.5943
 20
38.2461
 11
-64.5237
 21
37.876
  0
LINE
  8
0
 10
-64.5237
 20
37.876
 11
-64.5
 21
37.5
  0
LINE
  8
0
 10
-64.5
 20
37.5
 11
-64.5237
 21
37.124
  0
LINE
  8
0
 10
-64.5237
 20
37.124
 11
-64.5943
 21
36.7539
  0
LINE
  8
0
 10
-64.5943
 20
36.7539
 11
-64.7107
 21
36.3956
  0
LINE
  8
0
 10
-64.7107
 20
36.3956
 11
-64.8711
 21
36.0547
  0
LINE
  8
0
 10
-64.8711
 20
36.0547
 11
-65.073
 21
35.7366
  0
LINE
  8
0
 10
-65.073
 20
35.7366
 11
-65.3131
 21
35.4464
  0
LINE
  8
0
 10
-65.3131
 20
35.4464
 11
-65.5877
 21
35.1885
  0
LINE
  8
0
 10
-65.5877
 20
35.1885
 11
-65.8925
 21
34.967
  0
LINE
  8
0
 10
-65.8925
 20
34.967
 11
-66.2227
 21
34.7855
  0
LINE
  8
0
 10
-66.2227
 20
34.7855
 11
-66.573
 21
34.6468
  0
LINE
  8
0
 10
-66.573
 20
34.6468
 11
-66.9379
 21
34.5531
  0
LINE
  8
0
 10
-66.9379
 20
34.5531
 11
-67.3116
 21
34.5059
  0
LINE
  8
0
 10
-67.3116
 20
34.5059
 11
-67.6884
 21
34.5059
  0
LINE
  8
0
 10
37.3116
 20
34.5059
 11
36.9379
 21
34.5531
  0
LINE
  8
0
 10
36.9379
 20
34.5531
 11
36.5729
 21
34.6468
  0
LINE
  8
0
 10
36.5729
 20
34.6468
 11
36.2227
 21
34.7855
  0
LINE
  8
0
 10
36.2227
 20
34.7855
 11
35.8925
 21
34.967
  0
LINE
  8
0
 10
35.8925
 20
34.967
 11
35.5877
 21
35.1885
  0
LINE
  8
0
 10
35.5877
 20
35.1885
 11
35.3131
 21
35.4464
  0
LINE
  8
0
 10
35.3131
 20
35.4464
 11
35.0729
 21
35.7366
  0
LINE
  8
0
 10
35.0729
 20
35.7366
 11
34.8711
 21
36.0547
  0
LINE
  8
0
 10
34.8711
 20
36.0547
 11
34.7107
 21
36.3956
  0
LINE
  8
0
 10
34.7107
 20
36.3956
 11
34.5942
 21
36.7539
  0
LINE
  8
0
 10
34.5942
 20
36.7539
 11
34.5237
 21
37.124
  0
LINE
  8
0
 10
34.5237
 20
37.124
 11
34.5
 21
37.5
  0
LINE
  8
0
 10
34.5
 20
37.5
 11
34.5237
 21
37.876
  0
LINE
  8
0
 10
34.5237
 20
37.876
 11
34.5942
 21
38.2461
  0
LINE
  8
0
 10
34.5942
 20
38.2461
 11
34.7107
 21
38.6044
  0
LINE
  8
0
 10
34.7107
 20
38.6044
 11
34.8711
 21
38.9453
  0
LINE
  8
0
 10
34.8711
 20
38.9453
 11
35.0729
 21
39.2634
  0
LINE
  8
0
 10
35.0729
 20
39.2634
 11
35.3131
 21
39.5536
  0
LINE
  8
0
 10
35.3131
 20
39.5536
 11
35.5877
 21
39.8115
  0
LINE
  8
0
 10
35.5877
 20
39.8115
 11
35.8925
 21
40.033
  0
LINE
  8
0
 10
35.8925
 20
40.033
 11
36.2227
 21
40.2145
  0
LINE
  8
0
 10
36.2227
 20
40.2145
 11
36.5729
 21
40.3532
  0
LINE
  8
0
 10
36.5729
 20
40.3532
 11
36.9379
 21
40.4469
  0
LINE
  8
0
 10
36.9379
 20
40.4469
 11
37.3116
 21
40.4941
  0
LINE
  8
0
 10
37.3116
 20
40.4941
 11
37.6884
 21
40.4941
  0
LINE
  8
0
 10
37.6884
 20
40.4941
 11
38.0621
 21
40.4469
  0
LINE
  8
0
 10
38.0621
 20
40.4469
 11
38.427
 21
40.3532
  0
LINE
  8
0
 10
38.427
 20
40.3532
 11
38.7773
 21
40.2145
  0
LINE
  8
0
 10
38.7773
 20
40.2145
 11
39.1075
 21
40.033
  0
LINE
  8
0
 10
39.1075
 20
40.033
 11
39.4123
 21
39.8115
  0
LINE
  8
0
 10
39.4123
 20
39.8115
 11
39.6869
 21
39.5536
  0
LINE
  8
0
 10
39.6869
 20
39.5536
 11
39.927
 21
39.2634
  0
LINE
  8
0
 10
39.927
 20
39.2634
 11
40.1289
 21
38.9453
  0
LINE
  8
0
 10
40.1289
 20
38.9453
 11
40.2893
 21
38.6044
  0
LINE
  8
0
 10
40.2893
 20
38.6044
 11
40.4057
 21
38.2461
  0
LINE
  8
0
 10
40.4057
 20
38.2461
 11
40.4763
 21
37.876
  0
LINE
  8
0
 10
40.4763
 20
37.876
 11
40.5
 21
37.5
  0
LINE
  8
0
 10
40.5
 20
37.5
 11
40.4763
 21
37.124
  0
LINE
  8
0
 10
40.4763
 20
37.124
 11
40.4057
 21
36.7539
  0
LINE
  8
0
 10
40.4057
 20
36.7539
 11
40.2893
 21
36.3956
  0
LINE
  8
0
 10
40.2893
 20
36.3956
 11
40.1289
 21
36.0547
  0
LINE
  8
0
 10
40.1289
 20
36.0547
 11
39.927
 21
35.7366
  0
LINE
  8
0
 10
39.927
 20
35.7366
 11
39.6869
 21
35.4464
  0
LINE
  8
0
 10
39.6869
 20
35.4464
 11
39.4123
 21
35.1885
  0
LINE
  8
0
 10
39.4123
 20
35.1885
 11
39.1075
 21
34.967
  0
LINE
  8
0
 10
39.1075
 20
34.967
 11
38.7773
 21
34.7855
  0
LINE
  8
0
 10
38.7773
 20
34.7855
 11
38.427
 21
34.6468
  0
LINE
  8
0
 10
38.427
 20
34.6468
 11
38.0621
 21
34.5531
  0
LINE
  8
0
 10
38.0621
 20
34.5531
 11
37.6884
 21
34.5059
  0
LINE
  8
0
 10
37.6884
 20
34.5059
 11
37.3116
 21
34.5059
  0
LINE
  8
0
 10
22.3116
 20
34.5059
 11
21.9379
 21
34.5531
  0
LINE
  8
0
 10
21.9379
 20
34.5531
 11
21.5729
 21
34.6468
  0
LINE
  8
0
 10
21.5729
 20
34.6468
 11
21.2227
 21
34.7855
  0
LINE
  8
0
 10
21.2227
 20
34.7855
 11
20.8925
 21
34.967
  0
LINE
  8
0
 10
20.8925
 20
34.967
 11
20.5877
 21
35.1885
  0
LINE
  8
0
 10
20.5877
 20
35.1885
 11
20.3131
 21
35.4464
  0
LINE
  8
0
 10
20.3131
 20
35.4464
 11
20.0729
 21
35.7366
  0
LINE
  8
0
 10
20.0729
 20
35.7366
 11
19.8711
 21
36.0547
  0
LINE
  8
0
 10
19.8711
 20
36.0547
 11
19.7107
 21
36.3956
  0
LINE
  8
0
 10
19.7107
 20
36.3956
 11
19.5942
 21
36.7539
  0
LINE
  8
0
 10
19.5942
 20
36.7539
 11
19.5237
 21
37.124
  0
LINE
  8
0
 10
19.5237
 20
37.124
 11
19.5
 21
37.5
  0
LINE
  8
0
 10
19.5
 20
37.5
 11
19.5237
 21
37.876
  0
LINE
  8
0
 10
19.5237
 20
37.876
 11
19.5942
 21
38.2461
  0
LINE
  8
0
 10
19.5942
 20
38.2461
 11
19.7107
 21
38.6044
  0
LINE
  8
0
 10
19.7107
 20
38.6044
 11
19.8711
 21
38.9453
  0
LINE
  8
0
 10
19.8711
 20
38.9453
 11
20.0729
 21
39.2634
  0
LINE
  8
0
 10
20.0729
 20
39.2634
 11
20.3131
 21
39.5536
  0
LINE
  8
0
 10
20.3131
 20
39.5536
 11
20.5877
 21
39.8115
  0
LINE
  8
0
 10
20.5877
 20
39.8115
 11
20.8925
 21
40.033
  0
LINE
  8
0
 10
20.8925
 20
40.033
 11
21.2227
 21
40.2145
  0
LINE
  8
0
 10
21.2227
 20
40.2145
 11
21.5729
 21
40.3532
  0
LINE
  8
0
 10
21.5729
 20
40.3532
 11
21.9379
 21
40.4469
  0
LINE
  8
0
 10
21.9379
 20
40.4469
 11
22.3116
 21
40.4941
  0
LINE
  8
0
 10
22.3116
 20
40.4941
 11
22.6884
 21
40.4941
  0
LINE
  8
0
 10
22.6884
 20
40.4941
 11
23.0621
 21
40.4469
  0
LINE
  8
0
 10
23.0621
 20
40.4469
 11
23.427
 21
40.3532
  0
LINE
  8
0
 10
23.427
 20
40.3532
 11
23.7773
 21
40.2145
  0
LINE
  8
0
 10
23.7773
 20
40.2145
 11
24.1075
 21
40.033
  0
LINE
  8
0
 10
24.1075
 20
40.033
 11
24.4123
 21
39.8115
  0
LINE
  8
0
 10
24.4123
 20
39.8115
 11
24.6869
 21
39.5536
  0
LINE
  8
0
 10
24.6869
 20
39.5536
 11
24.927
 21
39.2634
  0
LINE
  8
0
 10
24.927
 20
39.2634
 11
25.1289
 21
38.9453
  0
LINE
  8
0
 10
25.1289
 20
38.9453
 11
25.2893
 21
38.6044
  0
LINE
  8
0
 10
25.2893
 20
38.6044
 11
25.4057
 21
38.2461
  0
LINE
  8
0
 10
25.4057
 20
38.2461
 11
25.4763
 21
37.876
  0
LINE
  8
0
 10
25.4763
 20
37.876
 11
25.5
 21
37.5
  0
LINE
  8
0
 10
25.5
 20
37.5
 11
25.4763
 21
37.124
  0
LINE
  8
0
 10
25.4763
 20
37.124
 11
25.4057
 21
36.7539
  0
LINE
  8
0
 10
25.4057
 20
36.7539
 11
25.2893
 21
36.3956
  0
LINE
  8
0
 10
25.2893
 20
36.3956
 11
25.1289
 21
36.0547
  0
LINE
  8
0
 10
25.1289
 20
36.0547
 11
24.927
 21
35.7366
  0
LINE
  8
0
 10
24.927
 20
35.7366
 11
24.6869
 21
35.4464
  0
LINE
  8
0
 10
24.6869
 20
35.4464
 11
24.4123
 21
35.1885
  0
LINE
  8
0
 10
24.4123
 20
35.1885
 11
24.1075
 21
34.967
  0
LINE
  8
0
 10
24.1075
 20
34.967
 11
23.7773
 21
34.7855
  0
LINE
  8
0
 10
23.7773
 20
34.7855
 11
23.427
 21
34.6468
  0
LINE
  8
0
 10
23.427
 20
34.6468
 11
23.0621
 21
34.5531
  0
LINE
  8
0
 10
23.0621
 20
34.5531
 11
22.6884
 21
34.5059
  0
LINE
  8
0
 10
22.6884
 20
34.5059
 11
22.3116
 21
34.5059
  0
LINE
  8
0
 10
-52.6884
 20
34.5059
 11
-53.0621
 21
34.5531
  0
LINE
  8
0
 10
-53.0621
 20
34.5531
 11
-53.427
 21
34.6468
  0
LINE
  8
0
 10
-53.427
 20
34.6468
 11
-53.7773
 21
34.7855
  0
LINE
  8
0
 10
-53.7773
 20
34.7855
 11
-54.1075
 21
34.967
  0
LINE
  8
0
 10
-54.1075
 20
34.967
 11
-54.4123
 21
35.1885
  0
LINE
  8
0
 10
-54.4123
 20
35.1885
 11
-54.6869
 21
35.4464
  0
LINE
  8
0
 10
-54.6869
 20
35.4464
 11
-54.927
 21
35.7366
  0
LINE
  8
0
 10
-54.927
 20
35.7366
 11
-55.1289
 21
36.0547
  0
LINE
  8
0
 10
-55.1289
 20
36.0547
 11
-55.2893
 21
36.3956
  0
LINE
  8
0
 10
-55.2893
 20
36.3956
 11
-55.4057
 21
36.7539
  0
LINE
  8
0
 10
-55.4057
 20
36.7539
 11
-55.4763
 21
37.124
  0
LINE
  8
0
 10
-55.4763
 20
37.124
 11
-55.5
 21
37.5
  0
LINE
  8
0
 10
-55.5
 20
37.5
 11
-55.4763
 21
37.876
  0
LINE
  8
0
 10
-55.4763
 20
37.876
 11
-55.4057
 21
38.2461
  0
LINE
  8
0
 10
-55.4057
 20
38.2461
 11
-55.2893
 21
38.6044
  0
LINE
  8
0
 10
-55.2893
 20
38.6044
 11
-55.1289
 21
38.9453
  0
LINE
  8
0
 10
-55.1289
 20
38.9453
 11
-54.927
 21
39.2634
  0
LINE
  8
0
 10
-54.927
 20
39.2634
 11
-54.6869
 21
39.5536
  0
LINE
  8
0
 10
-54.6869
 20
39.5536
 11
-54.4123
 21
39.8115
  0
LINE
  8
0
 10
-54.4123
 20
39.8115
 11
-54.1075
 21
40.033
  0
LINE
  8
0
 10
-54.1075
 20
40.033
 11
-53.7773
 21
40.2145
  0
LINE
  8
0
 10
-53.7773
 20
40.2145
 11
-53.427
 21
40.3532
  0
LINE
  8
0
 10
-53.427
 20
40.3532
 11
-53.0621
 21
40.4469
  0
LINE
  8
0
 10
-53.0621
 20
40.4469
 11
-52.6884
 21
40.4941
  0
LINE
  8
0
 10
-52.6884
 20
40.4941
 11
-52.3116
 21
40.4941
  0
LINE
  8
0
 10
-52.3116
 20
40.4941
 11
-51.9379
 21
40.4469
  0
LINE
  8
0
 10
-51.9379
 20
40.4469
 11
-51.5729
 21
40.3532
  0
LINE
  8
0
 10
-51.5729
 20
40.3532
 11
-51.2227
 21
40.2145
  0
LINE
  8
0
 10
-51.2227
 20
40.2145
 11
-50.8925
 21
40.033
  0
LINE
  8
0
 10
-50.8925
 20
40.033
 11
-50.5877
 21
39.8115
  0
LINE
  8
0
 10
-50.5877
 20
39.8115
 11
-50.3131
 21
39.5536
  0
LINE
  8
0
 10
-50.3131
 20
39.5536
 11
-50.0729
 21
39.2634
  0
LINE
  8
0
 10
-50.0729
 20
39.2634
 11
-49.8711
 21
38.9453
  0
LINE
  8
0
 10
-49.8711
 20
38.9453
 11
-49.7107
 21
38.6044
  0
LINE
  8
0
 10
-49.7107
 20
38.6044
 11
-49.5942
 21
38.2461
  0
LINE
  8
0
 10
-49.5942
 20
38.2461
 11
-49.5237
 21
37.876
  0
LINE
  8
0
 10
-49.5237
 20
37.876
 11
-49.5
 21
37.5
  0
LINE
  8
0
 10
-49.5
 20
37.5
 11
-49.5237
 21
37.124
  0
LINE
  8
0
 10
-49.5237
 20
37.124
 11
-49.5942
 21
36.7539
  0
LINE
  8
0
 10
-49.5942
 20
36.7539
 11
-49.7107
 21
36.3956
  0
LINE
  8
0
 10
-49.7107
 20
36.3956
 11
-49.8711
 21
36.0547
  0
LINE
  8
0
 10
-49.8711
 20
36.0547
 11
-50.0729
 21
35.7366
  0
LINE
  8
0
 10
-50.0729
 20
35.7366
 11
-50.3131
 21
35.4464
  0
LINE
  8
0
 10
-50.3131
 20
35.4464
 11
-50.5877
 21
35.1885
  0
LINE
  8
0
 10
-50.5877
 20
35.1885
 11
-50.8925
 21
34.967
  0
LINE
  8
0
 10
-50.8925
 20
34.967
 11
-51.2227
 21
34.7855
  0
LINE
  8
0
 10
-51.2227
 20
34.7855
 11
-51.5729
 21
34.6468
  0
LINE
  8
0
 10
-51.5729
 20
34.6468
 11
-51.9379
 21
34.5531
  0
LINE
  8
0
 10
-51.9379
 20
34.5531
 11
-52.3116
 21
34.5059
  0
LINE
  8
0
 10
-52.3116
 20
34.5059
 11
-52.6884
 21
34.5059
  0
LINE
  8
0
 10
67.3116
 20
34.5059
 11
66.9379
 21
34.5531
  0
LINE
  8
0
 10
66.9379
 20
34.5531
 11
66.573
 21
34.6468
  0
LINE
  8
0
 10
66.573
 20
34.6468
 11
66.2227
 21
34.7855
  0
LINE
  8
0
 10
66.2227
 20
34.7855
 11
65.8925
 21
34.967
  0
LINE
  8
0
 10
65.8925
 20
34.967
 11
65.5877
 21
35.1885
  0
LINE
  8
0
 10
65.5877
 20
35.1885
 11
65.3131
 21
35.4464
  0
LINE
  8
0
 10
65.3131
 20
35.4464
 11
65.073
 21
35.7366
  0
LINE
  8
0
 10
65.073
 20
35.7366
 11
64.8711
 21
36.0547
  0
LINE
  8
0
 10
64.8711
 20
36.0547
 11
64.7107
 21
36.3956
  0
LINE
  8
0
 10
64.7107
 20
36.3956
 11
64.5943
 21
36.7539
  0
LINE
  8
0
 10
64.5943
 20
36.7539
 11
64.5237
 21
37.124
  0
LINE
  8
0
 10
64.5237
 20
37.124
 11
64.5
 21
37.5
  0
LINE
  8
0
 10
64.5
 20
37.5
 11
64.5237
 21
37.876
  0
LINE
  8
0
 10
64.5237
 20
37.876
 11
64.5943
 21
38.2461
  0
LINE
  8
0
 10
64.5943
 20
38.2461
 11
64.7107
 21
38.6044
  0
LINE
  8
0
 10
64.7107
 20
38.6044
 11
64.8711
 21
38.9453
  0
LINE
  8
0
 10
64.8711
 20
38.9453
 11
65.073
 21
39.2634
  0
LINE
  8
0
 10
65.073
 20
39.2634
 11
65.3131
 21
39.5536
  0
LINE
  8
0
 10
65.3131
 20
39.5536
 11
65.5877
 21
39.8115
  0
LINE
  8
0
 10
65.5877
 20
39.8115
 11
65.8925
 21
40.033
  0
LINE
  8
0
 10
65.8925
 20
40.033
 11
66.2227
 21
40.2145
  0
LINE
  8
0
 10
66.2227
 20
40.2145
 11
66.573
 21
40.3532
  0
LINE
  8
0
 10
66.573
 20
40.3532
 11
66.9379
 21
40.4469
  0
LINE
  8
0
 10
66.9379
 20
40.4469
 11
67.3116
 21
40.4941
  0
LINE
  8
0
 10
67.3116
 20
40.4941
 11
67.6884
 21
40.4941
  0
LINE
  8
0
 10
67.6884
 20
40.4941
 11
68.0621
 21
40.4469
  0
LINE
  8
0
 10
68.0621
 20
40.4469
 11
68.427
 21
40.3532
  0
LINE
  8
0
 10
68.427
 20
40.3532
 11
68.7773
 21
40.2145
  0
LINE
  8
0
 10
68.7773
 20
40.2145
 11
69.1075
 21
40.033
  0
LINE
  8
0
 10
69.1075
 20
40.033
 11
69.4123
 21
39.8115
  0
LINE
  8
0
 10
69.4123
 20
39.8115
 11
69.6869
 21
39.5536
  0
LINE
  8
0
 10
69.6869
 20
39.5536
 11
69.927
 21
39.2634
  0
LINE
  8
0
 10
69.927
 20
39.2634
 11
70.1289
 21
38.9453
  0
LINE
  8
0
 10
70.1289
 20
38.9453
 11
70.2893
 21
38.6044
  0
LINE
  8
0
 10
70.2893
 20
38.6044
 11
70.4057
 21
38.2461
  0
LINE
  8
0
 10
70.4057
 20
38.2461
 11
70.4763
 21
37.876
  0
LINE
  8
0
 10
70.4763
 20
37.876
 11
70.5
 21
37.5
  0
LINE
  8
0
 10
70.5
 20
37.5
 11
70.4763
 21
37.124
  0
LINE
  8
0
 10
70.4763
 20
37.124
 11
70.4057
 21
36.7539
  0
LINE
  8
0
 10
70.4057
 20
36.7539
 11
70.2893
 21
36.3956
  0
LINE
  8
0
 10
70.2893
 20
36.3956
 11
70.1289
 21
36.0547
  0
LINE
  8
0
 10
70.1289
 20
36.0547
 11
69.927
 21
35.7366
  0
LINE
  8
0
 10
69.927
 20
35.7366
 11
69.6869
 21
35.4464
  0
LINE
  8
0
 10
69.6869
 20
35.4464
 11
69.4123
 21
35.1885
  0
LINE
  8
0
 10
69.4123
 20
35.1885
 11
69.1075
 21
34.967
  0
LINE
  8
0
 10
69.1075
 20
34.967
 11
68.7773
 21
34.7855
  0
LINE
  8
0
 10
68.7773
 20
34.7855
 11
68.427
 21
34.6468
  0
LINE
  8
0
 10
68.427
 20
34.6468
 11
68.0621
 21
34.5531
  0
LINE
  8
0
 10
68.0621
 20
34.5531
 11
67.6884
 21
34.5059
  0
LINE
  8
0
 10
67.6884
 20
34.5059
 11
67.3116
 21
34.5059
  0
LINE
  8
0
 10
-82.6884
 20
34.5059
 11
-83.0621
 21
34.5531
  0
LINE
  8
0
 10
-83.0621
 20
34.5531
 11
-83.427
 21
34.6468
  0
LINE
  8
0
 10
-83.427
 20
34.6468
 11
-83.7773
 21
34.7855
  0
LINE
  8
0
 10
-83.7773
 20
34.7855
 11
-84.1075
 21
34.967
  0
LINE
  8
0
 10
-84.1075
 20
34.967
 11
-84.4123
 21
35.1885
  0
LINE
  8
0
 10
-84.4123
 20
35.1885
 11
-84.6869
 21
35.4464
  0
LINE
  8
0
 10
-84.6869
 20
35.4464
 11
-84.927
 21
35.7366
  0
LINE
  8
0
 10
-84.927
 20
35.7366
 11
-85.1289
 21
36.0547
  0
LINE
  8
0
 10
-85.1289
 20
36.0547
 11
-85.2893
 21
36.3956
  0
LINE
  8
0
 10
-85.2893
 20
36.3956
 11
-85.4057
 21
36.7539
  0
LINE
  8
0
 10
-85.4057
 20
36.7539
 11
-85.4763
 21
37.124
  0
LINE
  8
0
 10
-85.4763
 20
37.124
 11
-85.5
 21
37.5
  0
LINE
  8
0
 10
-85.5
 20
37.5
 11
-85.4763
 21
37.876
  0
LINE
  8
0
 10
-85.4763
 20
37.876
 11
-85.4057
 21
38.2461
  0
LINE
  8
0
 10
-85.4057
 20
38.2461
 11
-85.2893
 21
38.6044
  0
LINE
  8
0
 10
-85.2893
 20
38.6044
 11
-85.1289
 21
38.9453
  0
LINE
  8
0
 10
-85.1289
 20
38.9453
 11
-84.927
 21
39.2634
  0
LINE
  8
0
 10
-84.927
 20
39.2634
 11
-84.6869
 21
39.5536
  0
LINE
  8
0
 10
-84.6869
 20
39.5536
 11
-84.4123
 21
39.8115
  0
LINE
  8
0
 10
-84.4123
 20
39.8115
 11
-84.1075
 21
40.033
  0
LINE
  8
0
 10
-84.1075
 20
40.033
 11
-83.7773
 21
40.2145
  0
LINE
  8
0
 10
-83.7773
 20
40.2145
 11
-83.427
 21
40.3532
  0
LINE
  8
0
 10
-83.427
 20
40.3532
 11
-83.0621
 21
40.4469
  0
LINE
  8
0
 10
-83.0621
 20
40.4469
 11
-82.6884
 21
40.4941
  0
LINE
  8
0
 10
-82.6884
 20
40.4941
 11
-82.3116
 21
40.4941
  0
LINE
  8
0
 10
-82.3116
 20
40.4941
 11
-81.9379
 21
40.4469
  0
LINE
  8
0
 10
-81.9379
 20
40.4469
 11
-81.573
 21
40.3532
  0
LINE
  8
0
 10
-81.573
 20
40.3532
 11
-81.2227
 21
40.2145
  0
LINE
  8
0
 10
-81.2227
 20
40.2145
 11
-80.8925
 21
40.033
  0
LINE
  8
0
 10
-80.8925
 20
40.033
 11
-80.5877
 21
39.8115
  0
LINE
  8
0
 10
-80.5877
 20
39.8115
 11
-80.3131
 21
39.5536
  0
LINE
  8
0
 10
-80.3131
 20
39.5536
 11
-80.073
 21
39.2634
  0
LINE
  8
0
 10
-80.073
 20
39.2634
 11
-79.8711
 21
38.9453
  0
LINE
  8
0
 10
-79.8711
 20
38.9453
 11
-79.7107
 21
38.6044
  0
LINE
  8
0
 10
-79.7107
 20
38.6044
 11
-79.5943
 21
38.2461
  0
LINE
  8
0
 10
-79.5943
 20
38.2461
 11
-79.5237
 21
37.876
  0
LINE
  8
0
 10
-79.5237
 20
37.876
 11
-79.5
 21
37.5
  0
LINE
  8
0
 10
-79.5
 20
37.5
 11
-79.5237
 21
37.124
  0
LINE
  8
0
 10
-79.5237
 20
37.124
 11
-79.5943
 21
36.7539
  0
LINE
  8
0
 10
-79.5943
 20
36.7539
 11
-79.7107
 21
36.3956
  0
LINE
  8
0
 10
-79.7107
 20
36.3956
 11
-79.8711
 21
36.0547
  0
LINE
  8
0
 10
-79.8711
 20
36.0547
 11
-80.073
 21
35.7366
  0
LINE
  8
0
 10
-80.073
 20
35.7366
 11
-80.3131
 21
35.4464
  0
LINE
  8
0
 10
-80.3131
 20
35.4464
 11
-80.5877
 21
35.1885
  0
LINE
  8
0
 10
-80.5877
 20
35.1885
 11
-80.8925
 21
34.967
  0
LINE
  8
0
 10
-80.8925
 20
34.967
 11
-81.2227
 21
34.7855
  0
LINE
  8
0
 10
-81.2227
 20
34.7855
 11
-81.573
 21
34.6468
  0
LINE
  8
0
 10
-81.573
 20
34.6468
 11
-81.9379
 21
34.5531
  0
LINE
  8
0
 10
-81.9379
 20
34.5531
 11
-82.3116
 21
34.5059
  0
LINE
  8
0
 10
-82.3116
 20
34.5059
 11
-82.6884
 21
34.5059
  0
LINE
  8
0
 10
52.3116
 20
34.5059
 11
51.9379
 21
34.5531
  0
LINE
  8
0
 10
51.9379
 20
34.5531
 11
51.5729
 21
34.6468
  0
LINE
  8
0
 10
51.5729
 20
34.6468
 11
51.2227
 21
34.7855
  0
LINE
  8
0
 10
51.2227
 20
34.7855
 11
50.8925
 21
34.967
  0
LINE
  8
0
 10
50.8925
 20
34.967
 11
50.5877
 21
35.1885
  0
LINE
  8
0
 10
50.5877
 20
35.1885
 11
50.3131
 21
35.4464
  0
LINE
  8
0
 10
50.3131
 20
35.4464
 11
50.0729
 21
35.7366
  0
LINE
  8
0
 10
50.0729
 20
35.7366
 11
49.8711
 21
36.0547
  0
LINE
  8
0
 10
49.8711
 20
36.0547
 11
49.7107
 21
36.3956
  0
LINE
  8
0
 10
49.7107
 20
36.3956
 11
49.5942
 21
36.7539
  0
LINE
  8
0
 10
49.5942
 20
36.7539
 11
49.5237
 21
37.124
  0
LINE
  8
0
 10
49.5237
 20
37.124
 11
49.5
 21
37.5
  0
LINE
  8
0
 10
49.5
 20
37.5
 11
49.5237
 21
37.876
  0
LINE
  8
0
 10
49.5237
 20
37.876
 11
49.5942
 21
38.2461
  0
LINE
  8
0
 10
49.5942
 20
38.2461
 11
49.7107
 21
38.6044
  0
LINE
  8
0
 10
49.7107
 20
38.6044
 11
49.8711
 21
38.9453
  0
LINE
  8
0
 10
49.8711
 20
38.9453
 11
50.0729
 21
39.2634
  0
LINE
  8
0
 10
50.0729
 20
39.2634
 11
50.3131
 21
39.5536
  0
LINE
  8
0
 10
50.3131
 20
39.5536
 11
50.5877
 21
39.8115
  0
LINE
  8
0
 10
50.5877
 20
39.8115
 11
50.8925
 21
40.033
  0
LINE
  8
0
 10
50.8925
 20
40.033
 11
51.2227
 21
40.2145
  0
LINE
  8
0
 10
51.2227
 20
40.2145
 11
51.5729
 21
40.3532
  0
LINE
  8
0
 10
51.5729
 20
40.3532
 11
51.9379
 21
40.4469
  0
LINE
  8
0
 10
51.9379
 20
40.4469
 11
52.3116
 21
40.4941
  0
LINE
  8
0
 10
52.3116
 20
40.4941
 11
52.6884
 21
40.4941
  0
LINE
  8
0
 10
52.6884
 20
40.4941
 11
53.0621
 21
40.4469
  0
LINE
  8
0
 10
53.0621
 20
40.4469
 11
53.427
 21
40.3532
  0
LINE
  8
0
 10
53.427
 20
40.3532
 11
53.7773
 21
40.2145
  0
LINE
  8
0
 10
53.7773
 20
40.2145
 11
54.1075
 21
40.033
  0
LINE
  8
0
 10
54.1075
 20
40.033
 11
54.4123
 21
39.8115
  0
LINE
  8
0
 10
54.4123
 20
39.8115
 11
54.6869
 21
39.5536
  0
LINE
  8
0
 10
54.6869
 20
39.5536
 11
54.927
 21
39.2634
  0
LINE
  8
0
 10
54.927
 20
39.2634
 11
55.1289
 21
38.9453
  0
LINE
  8
0
 10
55.1289
 20
38.9453
 11
55.2893
 21
38.6044
  0
LINE
  8
0
 10
55.2893
 20
38.6044
 11
55.4057
 21
38.2461
  0
LINE
  8
0
 10
55.4057
 20
38.2461
 11
55.4763
 21
37.876
  0
LINE
  8
0
 10
55.4763
 20
37.876
 11
55.5
 21
37.5
  0
LINE
  8
0
 10
55.5
 20
37.5
 11
55.4763
 21
37.124
  0
LINE
  8
0
 10
55.4763
 20
37.124
 11
55.4057
 21
36.7539
  0
LINE
  8
0
 10
55.4057
 20
36.7539
 11
55.2893
 21
36.3956
  0
LINE
  8
0
 10
55.2893
 20
36.3956
 11
55.1289
 21
36.0547
  0
LINE
  8
0
 10
55.1289
 20
36.0547
 11
54.927
 21
35.7366
  0
LINE
  8
0
 10
54.927
 20
35.7366
 11
54.6869
 21
35.4464
  0
LINE
  8
0
 10
54.6869
 20
35.4464
 11
54.4123
 21
35.1885
  0
LINE
  8
0
 10
54.4123
 20
35.1885
 11
54.1075
 21
34.967
  0
LINE
  8
0
 10
54.1075
 20
34.967
 11
53.7773
 21
34.7855
  0
LINE
  8
0
 10
53.7773
 20
34.7855
 11
53.427
 21
34.6468
  0
LINE
  8
0
 10
53.427
 20
34.6468
 11
53.0621
 21
34.5531
  0
LINE
  8
0
 10
53.0621
 20
34.5531
 11
52.6884
 21
34.5059
  0
LINE
  8
0
 10
52.6884
 20
34.5059
 11
52.3116
 21
34.5059
  0
LINE
  8
0
 10
-75.0942
 20
36.003
 11
-75.2811
 21
36.0266
  0
LINE
  8
0
 10
-75.2811
 20
36.0266
 11
-75.4635
 21
36.0734
  0
LINE
  8
0
 10
-75.4635
 20
36.0734
 11
-75.6387
 21
36.1428
  0
LINE
  8
0
 10
-75.6387
 20
36.1428
 11
-75.8037
 21
36.2335
  0
LINE
  8
0
 10
-75.8037
 20
36.2335
 11
-75.9561
 21
36.3442
  0
LINE
  8
0
 10
-75.9561
 20
36.3442
 11
-76.0934
 21
36.4732
  0
LINE
  8
0
 10
-76.0934
 20
36.4732
 11
-76.2135
 21
36.6183
  0
LINE
  8
0
 10
-76.2135
 20
36.6183
 11
-76.3145
 21
36.7774
  0
LINE
  8
0
 10
-76.3145
 20
36.7774
 11
-76.3947
 21
36.9478
  0
LINE
  8
0
 10
-76.3947
 20
36.9478
 11
-76.4529
 21
37.127
  0
LINE
  8
0
 10
-76.4529
 20
37.127
 11
-76.4882
 21
37.312
  0
LINE
  8
0
 10
-76.4882
 20
37.312
 11
-76.5
 21
37.5
  0
LINE
  8
0
 10
-76.5
 20
37.5
 11
-76.4882
 21
37.688
  0
LINE
  8
0
 10
-76.4882
 20
37.688
 11
-76.4529
 21
37.873
  0
LINE
  8
0
 10
-76.4529
 20
37.873
 11
-76.3947
 21
38.0522
  0
LINE
  8
0
 10
-76.3947
 20
38.0522
 11
-76.3145
 21
38.2226
  0
LINE
  8
0
 10
-76.3145
 20
38.2226
 11
-76.2135
 21
38.3817
  0
LINE
  8
0
 10
-76.2135
 20
38.3817
 11
-76.0934
 21
38.5268
  0
LINE
  8
0
 10
-76.0934
 20
38.5268
 11
-75.9561
 21
38.6558
  0
LINE
  8
0
 10
-75.9561
 20
38.6558
 11
-75.8037
 21
38.7665
  0
LINE
  8
0
 10
-75.8037
 20
38.7665
 11
-75.6387
 21
38.8572
  0
LINE
  8
0
 10
-75.6387
 20
38.8572
 11
-75.4635
 21
38.9266
  0
LINE
  8
0
 10
-75.4635
 20
38.9266
 11
-75.2811
 21
38.9734
  0
LINE
  8
0
 10
-75.2811
 20
38.9734
 11
-75.0942
 21
38.997
  0
LINE
  8
0
 10
-75.0942
 20
38.997
 11
-74.9058
 21
38.997
  0
LINE
  8
0
 10
-74.9058
 20
38.997
 11
-74.7189
 21
38.9734
  0
LINE
  8
0
 10
-74.7189
 20
38.9734
 11
-74.5365
 21
38.9266
  0
LINE
  8
0
 10
-74.5365
 20
38.9266
 11
-74.3613
 21
38.8572
  0
LINE
  8
0
 10
-74.3613
 20
38.8572
 11
-74.1963
 21
38.7665
  0
LINE
  8
0
 10
-74.1963
 20
38.7665
 11
-74.0439
 21
38.6558
  0
LINE
  8
0
 10
-74.0439
 20
38.6558
 11
-73.9065
 21
38.5268
  0
LINE
  8
0
 10
-73.9065
 20
38.5268
 11
-73.7865
 21
38.3817
  0
LINE
  8
0
 10
-73.7865
 20
38.3817
 11
-73.6855
 21
38.2226
  0
LINE
  8
0
 10
-73.6855
 20
38.2226
 11
-73.6053
 21
38.0522
  0
LINE
  8
0
 10
-73.6053
 20
38.0522
 11
-73.5471
 21
37.873
  0
LINE
  8
0
 10
-73.5471
 20
37.873
 11
-73.5118
 21
37.688
  0
LINE
  8
0
 10
-73.5118
 20
37.688
 11
-73.5
 21
37.5
  0
LINE
  8
0
 10
-73.5
 20
37.5
 11
-73.5118
 21
37.312
  0
LINE
  8
0
 10
-73.5118
 20
37.312
 11
-73.5471
 21
37.127
  0
LINE
  8
0
 10
-73.5471
 20
37.127
 11
-73.6053
 21
36.9478
  0
LINE
  8
0
 10
-73.6053
 20
36.9478
 11
-73.6855
 21
36.7774
  0
LINE
  8
0
 10
-73.6855
 20
36.7774
 11
-73.7865
 21
36.6183
  0
LINE
  8
0
 10
-73.7865
 20
36.6183
 11
-73.9065
 21
36.4732
  0
LINE
  8
0
 10
-73.9065
 20
36.4732
 11
-74.0439
 21
36.3442
  0
LINE
  8
0
 10
-74.0439
 20
36.3442
 11
-74.1963
 21
36.2335
  0
LINE
  8
0
 10
-74.1963
 20
36.2335
 11
-74.3613
 21
36.1428
  0
LINE
  8
0
 10
-74.3613
 20
36.1428
 11
-74.5365
 21
36.0734
  0
LINE
  8
0
 10
-74.5365
 20
36.0734
 11
-74.7189
 21
36.0266
  0
LINE
  8
0
 10
-74.7189
 20
36.0266
 11
-74.9058
 21
36.003
  0
LINE
  8
0
 10
-74.9058
 20
36.003
 11
-75.0942
 21
36.003
  0
LINE
  8
0
 10
-60.0942
 20
36.003
 11
-60.2811
 21
36.0266
  0
LINE
  8
0
 10
-60.2811
 20
36.0266
 11
-60.4635
 21
36.0734
  0
LINE
  8
0
 10
-60.4635
 20
36.0734
 11
-60.6387
 21
36.1428
  0
LINE
  8
0
 10
-60.6387
 20
36.1428
 11
-60.8037
 21
36.2335
  0
LINE
  8
0
 10
-60.8037
 20
36.2335
 11
-60.9561
 21
36.3442
  0
LINE
  8
0
 10
-60.9561
 20
36.3442
 11
-61.0934
 21
36.4732
  0
LINE
  8
0
 10
-61.0934
 20
36.4732
 11
-61.2135
 21
36.6183
  0
LINE
  8
0
 10
-61.2135
 20
36.6183
 11
-61.3145
 21
36.7774
  0
LINE
  8
0
 10
-61.3145
 20
36.7774
 11
-61.3947
 21
36.9478
  0
LINE
  8
0
 10
-61.3947
 20
36.9478
 11
-61.4529
 21
37.127
  0
LINE
  8
0
 10
-61.4529
 20
37.127
 11
-61.4882
 21
37.312
  0
LINE
  8
0
 10
-61.4882
 20
37.312
 11
-61.5
 21
37.5
  0
LINE
  8
0
 10
-61.5
 20
37.5
 11
-61.4882
 21
37.688
  0
LINE
  8
0
 10
-61.4882
 20
37.688
 11
-61.4529
 21
37.873
  0
LINE
  8
0
 10
-61.4529
 20
37.873
 11
-61.3947
 21
38.0522
  0
LINE
  8
0
 10
-61.3947
 20
38.0522
 11
-61.3145
 21
38.2226
  0
LINE
  8
0
 10
-61.3145
 20
38.2226
 11
-61.2135
 21
38.3817
  0
LINE
  8
0
 10
-61.2135
 20
38.3817
 11
-61.0934
 21
38.5268
  0
LINE
  8
0
 10
-61.0934
 20
38.5268
 11
-60.9561
 21
38.6558
  0
LINE
  8
0
 10
-60.9561
 20
38.6558
 11
-60.8037
 21
38.7665
  0
LINE
  8
0
 10
-60.8037
 20
38.7665
 11
-60.6387
 21
38.8572
  0
LINE
  8
0
 10
-60.6387
 20
38.8572
 11
-60.4635
 21
38.9266
  0
LINE
  8
0
 10
-60.4635
 20
38.9266
 11
-60.2811
 21
38.9734
  0
LINE
  8
0
 10
-60.2811
 20
38.9734
 11
-60.0942
 21
38.997
  0
LINE
  8
0
 10
-60.0942
 20
38.997
 11
-59.9058
 21
38.997
  0
LINE
  8
0
 10
-59.9058
 20
38.997
 11
-59.7189
 21
38.9734
  0
LINE
  8
0
 10
-59.7189
 20
38.9734
 11
-59.5365
 21
38.9266
  0
LINE
  8
0
 10
-59.5365
 20
38.9266
 11
-59.3613
 21
38.8572
  0
LINE
  8
0
 10
-59.3613
 20
38.8572
 11
-59.1963
 21
38.7665
  0
LINE
  8
0
 10
-59.1963
 20
38.7665
 11
-59.0439
 21
38.6558
  0
LINE
  8
0
 10
-59.0439
 20
38.6558
 11
-58.9065
 21
38.5268
  0
LINE
  8
0
 10
-58.9065
 20
38.5268
 11
-58.7865
 21
38.3817
  0
LINE
  8
0
 10
-58.7865
 20
38.3817
 11
-58.6855
 21
38.2226
  0
LINE
  8
0
 10
-58.6855
 20
38.2226
 11
-58.6053
 21
38.0522
  0
LINE
  8
0
 10
-58.6053
 20
38.0522
 11
-58.5471
 21
37.873
  0
LINE
  8
0
 10
-58.5471
 20
37.873
 11
-58.5118
 21
37.688
  0
LINE
  8
0
 10
-58.5118
 20
37.688
 11
-58.5
 21
37.5
  0
LINE
  8
0
 10
-58.5
 20
37.5
 11
-58.5118
 21
37.312
  0
LINE
  8
0
 10
-58.5118
 20
37.312
 11
-58.5471
 21
37.127
  0
LINE
  8
0
 10
-58.5471
 20
37.127
 11
-58.6053
 21
36.9478
  0
LINE
  8
0
 10
-58.6053
 20
36.9478
 11
-58.6855
 21
36.7774
  0
LINE
  8
0
 10
-58.6855
 20
36.7774
 11
-58.7865
 21
36.6183
  0
LINE
  8
0
 10
-58.7865
 20
36.6183
 11
-58.9065
 21
36.4732
  0
LINE
  8
0
 10
-58.9065
 20
36.4732
 11
-59.0439
 21
36.3442
  0
LINE
  8
0
 10
-59.0439
 20
36.3442
 11
-59.1963
 21
36.2335
  0
LINE
  8
0
 10
-59.1963
 20
36.2335
 11
-59.3613
 21
36.1428
  0
LINE
  8
0
 10
-59.3613
 20
36.1428
 11
-59.5365
 21
36.0734
  0
LINE
  8
0
 10
-59.5365
 20
36.0734
 11
-59.7189
 21
36.0266
  0
LINE
  8
0
 10
-59.7189
 20
36.0266
 11
-59.9058
 21
36.003
  0
LINE
  8
0
 10
-59.9058
 20
36.003
 11
-60.0942
 21
36.003
  0
LINE
  8
0
 10
-30.0942
 20
36.003
 11
-30.2811
 21
36.0266
  0
LINE
  8
0
 10
-30.2811
 20
36.0266
 11
-30.4635
 21
36.0734
  0
LINE
  8
0
 10
-30.4635
 20
36.0734
 11
-30.6387
 21
36.1428
  0
LINE
  8
0
 10
-30.6387
 20
36.1428
 11
-30.8037
 21
36.2335
  0
LINE
  8
0
 10
-30.8037
 20
36.2335
 11
-30.9561
 21
36.3442
  0
LINE
  8
0
 10
-30.9561
 20
36.3442
 11
-31.0934
 21
36.4732
  0
LINE
  8
0
 10
-31.0934
 20
36.4732
 11
-31.2135
 21
36.6183
  0
LINE
  8
0
 10
-31.2135
 20
36.6183
 11
-31.3145
 21
36.7774
  0
LINE
  8
0
 10
-31.3145
 20
36.7774
 11
-31.3947
 21
36.9478
  0
LINE
  8
0
 10
-31.3947
 20
36.9478
 11
-31.4529
 21
37.127
  0
LINE
  8
0
 10
-31.4529
 20
37.127
 11
-31.4882
 21
37.312
  0
LINE
  8
0
 10
-31.4882
 20
37.312
 11
-31.5
 21
37.5
  0
LINE
  8
0
 10
-31.5
 20
37.5
 11
-31.4882
 21
37.688
  0
LINE
  8
0
 10
-31.4882
 20
37.688
 11
-31.4529
 21
37.873
  0
LINE
  8
0
 10
-31.4529
 20
37.873
 11
-31.3947
 21
38.0522
  0
LINE
  8
0
 10
-31.3947
 20
38.0522
 11
-31.3145
 21
38.2226
  0
LINE
  8
0
 10
-31.3145
 20
38.2226
 11
-31.2135
 21
38.3817
  0
LINE
  8
0
 10
-31.2135
 20
38.3817
 11
-31.0934
 21
38.5268
  0
LINE
  8
0
 10
-31.0934
 20
38.5268
 11
-30.9561
 21
38.6558
  0
LINE
  8
0
 10
-30.9561
 20
38.6558
 11
-30.8037
 21
38.7665
  0
LINE
  8
0
 10
-30.8037
 20
38.7665
 11
-30.6387
 21
38.8572
  0
LINE
  8
0
 10
-30.6387
 20
38.8572
 11
-30.4635
 21
38.9266
  0
LINE
  8
0
 10
-30.4635
 20
38.9266
 11
-30.2811
 21
38.9734
  0
LINE
  8
0
 10
-30.2811
 20
38.9734
 11
-30.0942
 21
38.997
  0
LINE
  8
0
 10
-30.0942
 20
38.997
 11
-29.9058
 21
38.997
  0
LINE
  8
0
 10
-29.9058
 20
38.997
 11
-29.7189
 21
38.9734
  0
LINE
  8
0
 10
-29.7189
 20
38.9734
 11
-29.5365
 21
38.9266
  0
LINE
  8
0
 10
-29.5365
 20
38.9266
 11
-29.3613
 21
38.8572
  0
LINE
  8
0
 10
-29.3613
 20
38.8572
 11
-29.1963
 21
38.7665
  0
LINE
  8
0
 10
-29.1963
 20
38.7665
 11
-29.0439
 21
38.6558
  0
LINE
  8
0
 10
-29.0439
 20
38.6558
 11
-28.9065
 21
38.5268
  0
LINE
  8
0
 10
-28.9065
 20
38.5268
 11
-28.7865
 21
38.3817
  0
LINE
  8
0
 10
-28.7865
 20
38.3817
 11
-28.6855
 21
38.2226
  0
LINE
  8
0
 10
-28.6855
 20
38.2226
 11
-28.6053
 21
38.0522
  0
LINE
  8
0
 10
-28.6053
 20
38.0522
 11
-28.5471
 21
37.873
  0
LINE
  8
0
 10
-28.5471
 20
37.873
 11
-28.5118
 21
37.688
  0
LINE
  8
0
 10
-28.5118
 20
37.688
 11
-28.5
 21
37.5
  0
LINE
  8
0
 10
-28.5
 20
37.5
 11
-28.5118
 21
37.312
  0
LINE
  8
0
 10
-28.5118
 20
37.312
 11
-28.5471
 21
37.127
  0
LINE
  8
0
 10
-28.5471
 20
37.127
 11
-28.6053
 21
36.9478
  0
LINE
  8
0
 10
-28.6053
 20
36.9478
 11
-28.6855
 21
36.7774
  0
LINE
  8
0
 10
-28.6855
 20
36.7774
 11
-28.7865
 21
36.6183
  0
LINE
  8
0
 10
-28.7865
 20
36.6183
 11
-28.9065
 21
36.4732
  0
LINE
  8
0
 10
-28.9065
 20
36.4732
 11
-29.0439
 21
36.3442
  0
LINE
  8
0
 10
-29.0439
 20
36.3442
 11
-29.1963
 21
36.2335
  0
LINE
  8
0
 10
-29.1963
 20
36.2335
 11
-29.3613
 21
36.1428
  0
LINE
  8
0
 10
-29.3613
 20
36.1428
 11
-29.5365
 21
36.0734
  0
LINE
  8
0
 10
-29.5365
 20
36.0734
 11
-29.7189
 21
36.0266
  0
LINE
  8
0
 10
-29.7189
 20
36.0266
 11
-29.9058
 21
36.003
  0
LINE
  8
0
 10
-29.9058
 20
36.003
 11
-30.0942
 21
36.003
  0
LINE
  8
0
 10
-0.0941772
 20
36.003
 11
-0.281067
 21
36.0266
  0
LINE
  8
0
 10
-0.281067
 20
36.0266
 11
-0.463516
 21
36.0734
  0
LINE
  8
0
 10
-0.463516
 20
36.0734
 11
-0.638657
 21
36.1428
  0
LINE
  8
0
 10
-0.638657
 20
36.1428
 11
-0.803726
 21
36.2335
  0
LINE
  8
0
 10
-0.803726
 20
36.2335
 11
-0.956131
 21
36.3442
  0
LINE
  8
0
 10
-0.956131
 20
36.3442
 11
-1.09344
 21
36.4732
  0
LINE
  8
0
 10
-1.09344
 20
36.4732
 11
-1.21352
 21
36.6183
  0
LINE
  8
0
 10
-1.21352
 20
36.6183
 11
-1.31445
 21
36.7774
  0
LINE
  8
0
 10
-1.31445
 20
36.7774
 11
-1.39465
 21
36.9478
  0
LINE
  8
0
 10
-1.39465
 20
36.9478
 11
-1.45287
 21
37.127
  0
LINE
  8
0
 10
-1.45287
 20
37.127
 11
-1.48816
 21
37.312
  0
LINE
  8
0
 10
-1.48816
 20
37.312
 11
-1.5
 21
37.5
  0
LINE
  8
0
 10
-1.5
 20
37.5
 11
-1.48816
 21
37.688
  0
LINE
  8
0
 10
-1.48816
 20
37.688
 11
-1.45287
 21
37.873
  0
LINE
  8
0
 10
-1.45287
 20
37.873
 11
-1.39465
 21
38.0522
  0
LINE
  8
0
 10
-1.39465
 20
38.0522
 11
-1.31445
 21
38.2226
  0
LINE
  8
0
 10
-1.31445
 20
38.2226
 11
-1.21352
 21
38.3817
  0
LINE
  8
0
 10
-1.21352
 20
38.3817
 11
-1.09344
 21
38.5268
  0
LINE
  8
0
 10
-1.09344
 20
38.5268
 11
-0.956131
 21
38.6558
  0
LINE
  8
0
 10
-0.956131
 20
38.6558
 11
-0.803726
 21
38.7665
  0
LINE
  8
0
 10
-0.803726
 20
38.7665
 11
-0.638657
 21
38.8572
  0
LINE
  8
0
 10
-0.638657
 20
38.8572
 11
-0.463516
 21
38.9266
  0
LINE
  8
0
 10
-0.463516
 20
38.9266
 11
-0.281067
 21
38.9734
  0
LINE
  8
0
 10
-0.281067
 20
38.9734
 11
-0.0941772
 21
38.997
  0
LINE
  8
0
 10
-0.0941772
 20
38.997
 11
0.0941772
 21
38.997
  0
LINE
  8
0
 10
0.0941772
 20
38.997
 11
0.281067
 21
38.9734
  0
LINE
  8
0
 10
0.281067
 20
38.9734
 11
0.463516
 21
38.9266
  0
LINE
  8
0
 10
0.463516
 20
38.9266
 11
0.638657
 21
38.8572
  0
LINE
  8
0
 10
0.638657
 20
38.8572
 11
0.803726
 21
38.7665
  0
LINE
  8
0
 10
0.803726
 20
38.7665
 11
0.956131
 21
38.6558
  0
LINE
  8
0
 10
0.956131
 20
38.6558
 11
1.09344
 21
38.5268
  0
LINE
  8
0
 10
1.09344
 20
38.5268
 11
1.21352
 21
38.3817
  0
LINE
  8
0
 10
1.21352
 20
38.3817
 11
1.31445
 21
38.2226
  0
LINE
  8
0
 10
1.31445
 20
38.2226
 11
1.39465
 21
38.0522
  0
LINE
  8
0
 10
1.39465
 20
38.0522
 11
1.45287
 21
37.873
  0
LINE
  8
0
 10
1.45287
 20
37.873
 11
1.48816
 21
37.688
  0
LINE
  8
0
 10
1.48816
 20
37.688
 11
1.5
 21
37.5
  0
LINE
  8
0
 10
1.5
 20
37.5
 11
1.48816
 21
37.312
  0
LINE
  8
0
 10
1.48816
 20
37.312
 11
1.45287
 21
37.127
  0
LINE
  8
0
 10
1.45287
 20
37.127
 11
1.39465
 21
36.9478
  0
LINE
  8
0
 10
1.39465
 20
36.9478
 11
1.31445
 21
36.7774
  0
LINE
  8
0
 10
1.31445
 20
36.7774
 11
1.21352
 21
36.6183
  0
LINE
  8
0
 10
1.21352
 20
36.6183
 11
1.09344
 21
36.4732
  0
LINE
  8
0
 10
1.09344
 20
36.4732
 11
0.956131
 21
36.3442
  0
LINE
  8
0
 10
0.956131
 20
36.3442
 11
0.803726
 21
36.2335
  0
LINE
  8
0
 10
0.803726
 20
36.2335
 11
0.638657
 21
36.1428
  0
LINE
  8
0
 10
0.638657
 20
36.1428
 11
0.463516
 21
36.0734
  0
LINE
  8
0
 10
0.463516
 20
36.0734
 11
0.281067
 21
36.0266
  0
LINE
  8
0
 10
0.281067
 20
36.0266
 11
0.0941772
 21
36.003
  0
LINE
  8
0
 10
0.0941772
 20
36.003
 11
-0.0941772
 21
36.003
  0
LINE
  8
0
 10
14.9058
 20
36.003
 11
14.7189
 21
36.0266
  0
LINE
  8
0
 10
14.7189
 20
36.0266
 11
14.5365
 21
36.0734
  0
LINE
  8
0
 10
14.5365
 20
36.0734
 11
14.3613
 21
36.1428
  0
LINE
  8
0
 10
14.3613
 20
36.1428
 11
14.1963
 21
36.2335
  0
LINE
  8
0
 10
14.1963
 20
36.2335
 11
14.0439
 21
36.3442
  0
LINE
  8
0
 10
14.0439
 20
36.3442
 11
13.9065
 21
36.4732
  0
LINE
  8
0
 10
13.9065
 20
36.4732
 11
13.7865
 21
36.6183
  0
LINE
  8
0
 10
13.7865
 20
36.6183
 11
13.6855
 21
36.7774
  0
LINE
  8
0
 10
13.6855
 20
36.7774
 11
13.6053
 21
36.9478
  0
LINE
  8
0
 10
13.6053
 20
36.9478
 11
13.5471
 21
37.127
  0
LINE
  8
0
 10
13.5471
 20
37.127
 11
13.5118
 21
37.312
  0
LINE
  8
0
 10
13.5118
 20
37.312
 11
13.5
 21
37.5
  0
LINE
  8
0
 10
13.5
 20
37.5
 11
13.5118
 21
37.688
  0
LINE
  8
0
 10
13.5118
 20
37.688
 11
13.5471
 21
37.873
  0
LINE
  8
0
 10
13.5471
 20
37.873
 11
13.6053
 21
38.0522
  0
LINE
  8
0
 10
13.6053
 20
38.0522
 11
13.6855
 21
38.2226
  0
LINE
  8
0
 10
13.6855
 20
38.2226
 11
13.7865
 21
38.3817
  0
LINE
  8
0
 10
13.7865
 20
38.3817
 11
13.9065
 21
38.5268
  0
LINE
  8
0
 10
13.9065
 20
38.5268
 11
14.0439
 21
38.6558
  0
LINE
  8
0
 10
14.0439
 20
38.6558
 11
14.1963
 21
38.7665
  0
LINE
  8
0
 10
14.1963
 20
38.7665
 11
14.3613
 21
38.8572
  0
LINE
  8
0
 10
14.3613
 20
38.8572
 11
14.5365
 21
38.9266
  0
LINE
  8
0
 10
14.5365
 20
38.9266
 11
14.7189
 21
38.9734
  0
LINE
  8
0
 10
14.7189
 20
38.9734
 11
14.9058
 21
38.997
  0
LINE
  8
0
 10
14.9058
 20
38.997
 11
15.0942
 21
38.997
  0
LINE
  8
0
 10
15.0942
 20
38.997
 11
15.2811
 21
38.9734
  0
LINE
  8
0
 10
15.2811
 20
38.9734
 11
15.4635
 21
38.9266
  0
LINE
  8
0
 10
15.4635
 20
38.9266
 11
15.6387
 21
38.8572
  0
LINE
  8
0
 10
15.6387
 20
38.8572
 11
15.8037
 21
38.7665
  0
LINE
  8
0
 10
15.8037
 20
38.7665
 11
15.9561
 21
38.6558
  0
LINE
  8
0
 10
15.9561
 20
38.6558
 11
16.0934
 21
38.5268
  0
LINE
  8
0
 10
16.0934
 20
38.5268
 11
16.2135
 21
38.3817
  0
LINE
  8
0
 10
16.2135
 20
38.3817
 11
16.3145
 21
38.2226
  0
LINE
  8
0
 10
16.3145
 20
38.2226
 11
16.3947
 21
38.0522
  0
LINE
  8
0
 10
16.3947
 20
38.0522
 11
16.4529
 21
37.873
  0
LINE
  8
0
 10
16.4529
 20
37.873
 11
16.4882
 21
37.688
  0
LINE
  8
0
 10
16.4882
 20
37.688
 11
16.5
 21
37.5
  0
LINE
  8
0
 10
16.5
 20
37.5
 11
16.4882
 21
37.312
  0
LINE
  8
0
 10
16.4882
 20
37.312
 11
16.4529
 21
37.127
  0
LINE
  8
0
 10
16.4529
 20
37.127
 11
16.3947
 21
36.9478
  0
LINE
  8
0
 10
16.3947
 20
36.9478
 11
16.3145
 21
36.7774
  0
LINE
  8
0
 10
16.3145
 20
36.7774
 11
16.2135
 21
36.6183
  0
LINE
  8
0
 10
16.2135
 20
36.6183
 11
16.0934
 21
36.4732
  0
LINE
  8
0
 10
16.0934
 20
36.4732
 11
15.9561
 21
36.3442
  0
LINE
  8
0
 10
15.9561
 20
36.3442
 11
15.8037
 21
36.2335
  0
LINE
  8
0
 10
15.8037
 20
36.2335
 11
15.6387
 21
36.1428
  0
LINE
  8
0
 10
15.6387
 20
36.1428
 11
15.4635
 21
36.0734
  0
LINE
  8
0
 10
15.4635
 20
36.0734
 11
15.2811
 21
36.0266
  0
LINE
  8
0
 10
15.2811
 20
36.0266
 11
15.0942
 21
36.003
  0
LINE
  8
0
 10
15.0942
 20
36.003
 11
14.9058
 21
36.003
  0
LINE
  8
0
 10
29.9058
 20
36.003
 11
29.7189
 21
36.0266
  0
LINE
  8
0
 10
29.7189
 20
36.0266
 11
29.5365
 21
36.0734
  0
LINE
  8
0
 10
29.5365
 20
36.0734
 11
29.3613
 21
36.1428
  0
LINE
  8
0
 10
29.3613
 20
36.1428
 11
29.1963
 21
36.2335
  0
LINE
  8
0
 10
29.1963
 20
36.2335
 11
29.0439
 21
36.3442
  0
LINE
  8
0
 10
29.0439
 20
36.3442
 11
28.9065
 21
36.4732
  0
LINE
  8
0
 10
28.9065
 20
36.4732
 11
28.7865
 21
36.6183
  0
LINE
  8
0
 10
28.7865
 20
36.6183
 11
28.6855
 21
36.7774
  0
LINE
  8
0
 10
28.6855
 20
36.7774
 11
28.6053
 21
36.9478
  0
LINE
  8
0
 10
28.6053
 20
36.9478
 11
28.5471
 21
37.127
  0
LINE
  8
0
 10
28.5471
 20
37.127
 11
28.5118
 21
37.312
  0
LINE
  8
0
 10
28.5118
 20
37.312
 11
28.5
 21
37.5
  0
LINE
  8
0
 10
28.5
 20
37.5
 11
28.5118
 21
37.688
  0
LINE
  8
0
 10
28.5118
 20
37.688
 11
28.5471
 21
37.873
  0
LINE
  8
0
 10
28.5471
 20
37.873
 11
28.6053
 21
38.0522
  0
LINE
  8
0
 10
28.6053
 20
38.0522
 11
28.6855
 21
38.2226
  0
LINE
  8
0
 10
28.6855
 20
38.2226
 11
28.7865
 21
38.3817
  0
LINE
  8
0
 10
28.7865
 20
38.3817
 11
28.9065
 21
38.5268
  0
LINE
  8
0
 10
28.9065
 20
38.5268
 11
29.0439
 21
38.6558
  0
LINE
  8
0
 10
29.0439
 20
38.6558
 11
29.1963
 21
38.7665
  0
LINE
  8
0
 10
29.1963
 20
38.7665
 11
29.3613
 21
38.8572
  0
LINE
  8
0
 10
29.3613
 20
38.8572
 11
29.5365
 21
38.9266
  0
LINE
  8
0
 10
29.5365
 20
38.9266
 11
29.7189
 21
38.9734
  0
LINE
  8
0
 10
29.7189
 20
38.9734
 11
29.9058
 21
38.997
  0
LINE
  8
0
 10
29.9058
 20
38.997
 11
30.0942
 21
38.997
  0
LINE
  8
0
 10
30.0942
 20
38.997
 11
30.2811
 21
38.9734
  0
LINE
  8
0
 10
30.2811
 20
38.9734
 11
30.4635
 21
38.9266
  0
LINE
  8
0
 10
30.4635
 20
38.9266
 11
30.6387
 21
38.8572
  0
LINE
  8
0
 10
30.6387
 20
38.8572
 11
30.8037
 21
38.7665
  0
LINE
  8
0
 10
30.8037
 20
38.7665
 11
30.9561
 21
38.6558
  0
LINE
  8
0
 10
30.9561
 20
38.6558
 11
31.0934
 21
38.5268
  0
LINE
  8
0
 10
31.0934
 20
38.5268
 11
31.2135
 21
38.3817
  0
LINE
  8
0
 10
31.2135
 20
38.3817
 11
31.3145
 21
38.2226
  0
LINE
  8
0
 10
31.3145
 20
38.2226
 11
31.3947
 21
38.0522
  0
LINE
  8
0
 10
31.3947
 20
38.0522
 11
31.4529
 21
37.873
  0
LINE
  8
0
 10
31.4529
 20
37.873
 11
31.4882
 21
37.688
  0
LINE
  8
0
 10
31.4882
 20
37.688
 11
31.5
 21
37.5
  0
LINE
  8
0
 10
31.5
 20
37.5
 11
31.4882
 21
37.312
  0
LINE
  8
0
 10
31.4882
 20
37.312
 11
31.4529
 21
37.127
  0
LINE
  8
0
 10
31.4529
 20
37.127
 11
31.3947
 21
36.9478
  0
LINE
  8
0
 10
31.3947
 20
36.9478
 11
31.3145
 21
36.7774
  0
LINE
  8
0
 10
31.3145
 20
36.7774
 11
31.2135
 21
36.6183
  0
LINE
  8
0
 10
31.2135
 20
36.6183
 11
31.0934
 21
36.4732
  0
LINE
  8
0
 10
31.0934
 20
36.4732
 11
30.9561
 21
36.3442
  0
LINE
  8
0
 10
30.9561
 20
36.3442
 11
30.8037
 21
36.2335
  0
LINE
  8
0
 10
30.8037
 20
36.2335
 11
30.6387
 21
36.1428
  0
LINE
  8
0
 10
30.6387
 20
36.1428
 11
30.4635
 21
36.0734
  0
LINE
  8
0
 10
30.4635
 20
36.0734
 11
30.2811
 21
36.0266
  0
LINE
  8
0
 10
30.2811
 20
36.0266
 11
30.0942
 21
36.003
  0
LINE
  8
0
 10
30.0942
 20
36.003
 11
29.9058
 21
36.003
  0
LINE
  8
0
 10
-45.0942
 20
36.003
 11
-45.2811
 21
36.0266
  0
LINE
  8
0
 10
-45.2811
 20
36.0266
 11
-45.4635
 21
36.0734
  0
LINE
  8
0
 10
-45.4635
 20
36.0734
 11
-45.6387
 21
36.1428
  0
LINE
  8
0
 10
-45.6387
 20
36.1428
 11
-45.8037
 21
36.2335
  0
LINE
  8
0
 10
-45.8037
 20
36.2335
 11
-45.9561
 21
36.3442
  0
LINE
  8
0
 10
-45.9561
 20
36.3442
 11
-46.0934
 21
36.4732
  0
LINE
  8
0
 10
-46.0934
 20
36.4732
 11
-46.2135
 21
36.6183
  0
LINE
  8
0
 10
-46.2135
 20
36.6183
 11
-46.3145
 21
36.7774
  0
LINE
  8
0
 10
-46.3145
 20
36.7774
 11
-46.3947
 21
36.9478
  0
LINE
  8
0
 10
-46.3947
 20
36.9478
 11
-46.4529
 21
37.127
  0
LINE
  8
0
 10
-46.4529
 20
37.127
 11
-46.4882
 21
37.312
  0
LINE
  8
0
 10
-46.4882
 20
37.312
 11
-46.5
 21
37.5
  0
LINE
  8
0
 10
-46.5
 20
37.5
 11
-46.4882
 21
37.688
  0
LINE
  8
0
 10
-46.4882
 20
37.688
 11
-46.4529
 21
37.873
  0
LINE
  8
0
 10
-46.4529
 20
37.873
 11
-46.3947
 21
38.0522
  0
LINE
  8
0
 10
-46.3947
 20
38.0522
 11
-46.3145
 21
38.2226
  0
LINE
  8
0
 10
-46.3145
 20
38.2226
 11
-46.2135
 21
38.3817
  0
LINE
  8
0
 10
-46.2135
 20
38.3817
 11
-46.0934
 21
38.5268
  0
LINE
  8
0
 10
-46.0934
 20
38.5268
 11
-45.9561
 21
38.6558
  0
LINE
  8
0
 10
-45.9561
 20
38.6558
 11
-45.8037
 21
38.7665
  0
LINE
  8
0
 10
-45.8037
 20
38.7665
 11
-45.6387
 21
38.8572
  0
LINE
  8
0
 10
-45.6387
 20
38.8572
 11
-45.4635
 21
38.9266
  0
LINE
  8
0
 10
-45.4635
 20
38.9266
 11
-45.2811
 21
38.9734
  0
LINE
  8
0
 10
-45.2811
 20
38.9734
 11
-45.0942
 21
38.997
  0
LINE
  8
0
 10
-45.0942
 20
38.997
 11
-44.9058
 21
38.997
  0
LINE
  8
0
 10
-44.9058
 20
38.997
 11
-44.7189
 21
38.9734
  0
LINE
  8
0
 10
-44.7189
 20
38.9734
 11
-44.5365
 21
38.9266
  0
LINE
  8
0
 10
-44.5365
 20
38.9266
 11
-44.3613
 21
38.8572
  0
LINE
  8
0
 10
-44.3613
 20
38.8572
 11
-44.1963
 21
38.7665
  0
LINE
  8
0
 10
-44.1963
 20
38.7665
 11
-44.0439
 21
38.6558
  0
LINE
  8
0
 10
-44.0439
 20
38.6558
 11
-43.9065
 21
38.5268
  0
LINE
  8
0
 10
-43.9065
 20
38.5268
 11
-43.7865
 21
38.3817
  0
LINE
  8
0
 10
-43.7865
 20
38.3817
 11
-43.6855
 21
38.2226
  0
LINE
  8
0
 10
-43.6855
 20
38.2226
 11
-43.6053
 21
38.0522
  0
LINE
  8
0
 10
-43.6053
 20
38.0522
 11
-43.5471
 21
37.873
  0
LINE
  8
0
 10
-43.5471
 20
37.873
 11
-43.5118
 21
37.688
  0
LINE
  8
0
 10
-43.5118
 20
37.688
 11
-43.5
 21
37.5
  0
LINE
  8
0
 10
-43.5
 20
37.5
 11
-43.5118
 21
37.312
  0
LINE
  8
0
 10
-43.5118
 20
37.312
 11
-43.5471
 21
37.127
  0
LINE
  8
0
 10
-43.5471
 20
37.127
 11
-43.6053
 21
36.9478
  0
LINE
  8
0
 10
-43.6053
 20
36.9478
 11
-43.6855
 21
36.7774
  0
LINE
  8
0
 10
-43.6855
 20
36.7774
 11
-43.7865
 21
36.6183
  0
LINE
  8
0
 10
-43.7865
 20
36.6183
 11
-43.9065
 21
36.4732
  0
LINE
  8
0
 10
-43.9065
 20
36.4732
 11
-44.0439
 21
36.3442
  0
LINE
  8
0
 10
-44.0439
 20
36.3442
 11
-44.1963
 21
36.2335
  0
LINE
  8
0
 10
-44.1963
 20
36.2335
 11
-44.3613
 21
36.1428
  0
LINE
  8
0
 10
-44.3613
 20
36.1428
 11
-44.5365
 21
36.0734
  0
LINE
  8
0
 10
-44.5365
 20
36.0734
 11
-44.7189
 21
36.0266
  0
LINE
  8
0
 10
-44.7189
 20
36.0266
 11
-44.9058
 21
36.003
  0
LINE
  8
0
 10
-44.9058
 20
36.003
 11
-45.0942
 21
36.003
  0
LINE
  8
0
 10
74.9058
 20
36.003
 11
74.7189
 21
36.0266
  0
LINE
  8
0
 10
74.7189
 20
36.0266
 11
74.5365
 21
36.0734
  0
LINE
  8
0
 10
74.5365
 20
36.0734
 11
74.3613
 21
36.1428
  0
LINE
  8
0
 10
74.3613
 20
36.1428
 11
74.1963
 21
36.2335
  0
LINE
  8
0
 10
74.1963
 20
36.2335
 11
74.0439
 21
36.3442
  0
LINE
  8
0
 10
74.0439
 20
36.3442
 11
73.9065
 21
36.4732
  0
LINE
  8
0
 10
73.9065
 20
36.4732
 11
73.7865
 21
36.6183
  0
LINE
  8
0
 10
73.7865
 20
36.6183
 11
73.6855
 21
36.7774
  0
LINE
  8
0
 10
73.6855
 20
36.7774
 11
73.6053
 21
36.9478
  0
LINE
  8
0
 10
73.6053
 20
36.9478
 11
73.5471
 21
37.127
  0
LINE
  8
0
 10
73.5471
 20
37.127
 11
73.5118
 21
37.312
  0
LINE
  8
0
 10
73.5118
 20
37.312
 11
73.5
 21
37.5
  0
LINE
  8
0
 10
73.5
 20
37.5
 11
73.5118
 21
37.688
  0
LINE
  8
0
 10
73.5118
 20
37.688
 11
73.5471
 21
37.873
  0
LINE
  8
0
 10
73.5471
 20
37.873
 11
73.6053
 21
38.0522
  0
LINE
  8
0
 10
73.6053
 20
38.0522
 11
73.6855
 21
38.2226
  0
LINE
  8
0
 10
73.6855
 20
38.2226
 11
73.7865
 21
38.3817
  0
LINE
  8
0
 10
73.7865
 20
38.3817
 11
73.9065
 21
38.5268
  0
LINE
  8
0
 10
73.9065
 20
38.5268
 11
74.0439
 21
38.6558
  0
LINE
  8
0
 10
74.0439
 20
38.6558
 11
74.1963
 21
38.7665
  0
LINE
  8
0
 10
74.1963
 20
38.7665
 11
74.3613
 21
38.8572
  0
LINE
  8
0
 10
74.3613
 20
38.8572
 11
74.5365
 21
38.9266
  0
LINE
  8
0
 10
74.5365
 20
38.9266
 11
74.7189
 21
38.9734
  0
LINE
  8
0
 10
74.7189
 20
38.9734
 11
74.9058
 21
38.997
  0
LINE
  8
0
 10
74.9058
 20
38.997
 11
75.0942
 21
38.997
  0
LINE
  8
0
 10
75.0942
 20
38.997
 11
75.2811
 21
38.9734
  0
LINE
  8
0
 10
75.2811
 20
38.9734
 11
75.4635
 21
38.9266
  0
LINE
  8
0
 10
75.4635
 20
38.9266
 11
75.6387
 21
38.8572
  0
LINE
  8
0
 10
75.6387
 20
38.8572
 11
75.8037
 21
38.7665
  0
LINE
  8
0
 10
75.8037
 20
38.7665
 11
75.9561
 21
38.6558
  0
LINE
  8
0
 10
75.9561
 20
38.6558
 11
76.0934
 21
38.5268
  0
LINE
  8
0
 10
76.0934
 20
38.5268
 11
76.2135
 21
38.3817
  0
LINE
  8
0
 10
76.2135
 20
38.3817
 11
76.3145
 21
38.2226
  0
LINE
  8
0
 10
76.3145
 20
38.2226
 11
76.3947
 21
38.0522
  0
LINE
  8
0
 10
76.3947
 20
38.0522
 11
76.4529
 21
37.873
  0
LINE
  8
0
 10
76.4529
 20
37.873
 11
76.4882
 21
37.688
  0
LINE
  8
0
 10
76.4882
 20
37.688
 11
76.5
 21
37.5
  0
LINE
  8
0
 10
76.5
 20
37.5
 11
76.4882
 21
37.312
  0
LINE
  8
0
 10
76.4882
 20
37.312
 11
76.4529
 21
37.127
  0
LINE
  8
0
 10
76.4529
 20
37.127
 11
76.3947
 21
36.9478
  0
LINE
  8
0
 10
76.3947
 20
36.9478
 11
76.3145
 21
36.7774
  0
LINE
  8
0
 10
76.3145
 20
36.7774
 11
76.2135
 21
36.6183
  0
LINE
  8
0
 10
76.2135
 20
36.6183
 11
76.0934
 21
36.4732
  0
LINE
  8
0
 10
76.0934
 20
36.4732
 11
75.9561
 21
36.3442
  0
LINE
  8
0
 10
75.9561
 20
36.3442
 11
75.8037
 21
36.2335
  0
LINE
  8
0
 10
75.8037
 20
36.2335
 11
75.6387
 21
36.1428
  0
LINE
  8
0
 10
75.6387
 20
36.1428
 11
75.4635
 21
36.0734
  0
LINE
  8
0
 10
75.4635
 20
36.0734
 11
75.2811
 21
36.0266
  0
LINE
  8
0
 10
75.2811
 20
36.0266
 11
75.0942
 21
36.003
  0
LINE
  8
0
 10
75.0942
 20
36.003
 11
74.9058
 21
36.003
  0
LINE
  8
0
 10
59.9058
 20
36.003
 11
59.7189
 21
36.0266
  0
LINE
  8
0
 10
59.7189
 20
36.0266
 11
59.5365
 21
36.0734
  0
LINE
  8
0
 10
59.5365
 20
36.0734
 11
59.3613
 21
36.1428
  0
LINE
  8
0
 10
59.3613
 20
36.1428
 11
59.1963
 21
36.2335
  0
LINE
  8
0
 10
59.1963
 20
36.2335
 11
59.0439
 21
36.3442
  0
LINE
  8
0
 10
59.0439
 20
36.3442
 11
58.9065
 21
36.4732
  0
LINE
  8
0
 10
58.9065
 20
36.4732
 11
58.7865
 21
36.6183
  0
LINE
  8
0
 10
58.7865
 20
36.6183
 11
58.6855
 21
36.7774
  0
LINE
  8
0
 10
58.6855
 20
36.7774
 11
58.6053
 21
36.9478
  0
LINE
  8
0
 10
58.6053
 20
36.9478
 11
58.5471
 21
37.127
  0
LINE
  8
0
 10
58.5471
 20
37.127
 11
58.5118
 21
37.312
  0
LINE
  8
0
 10
58.5118
 20
37.312
 11
58.5
 21
37.5
  0
LINE
  8
0
 10
58.5
 20
37.5
 11
58.5118
 21
37.688
  0
LINE
  8
0
 10
58.5118
 20
37.688
 11
58.5471
 21
37.873
  0
LINE
  8
0
 10
58.5471
 20
37.873
 11
58.6053
 21
38.0522
  0
LINE
  8
0
 10
58.6053
 20
38.0522
 11
58.6855
 21
38.2226
  0
LINE
  8
0
 10
58.6855
 20
38.2226
 11
58.7865
 21
38.3817
  0
LINE
  8
0
 10
58.7865
 20
38.3817
 11
58.9065
 21
38.5268
  0
LINE
  8
0
 10
58.9065
 20
38.5268
 11
59.0439
 21
38.6558
  0
LINE
  8
0
 10
59.0439
 20
38.6558
 11
59.1963
 21
38.7665
  0
LINE
  8
0
 10
59.1963
 20
38.7665
 11
59.3613
 21
38.8572
  0
LINE
  8
0
 10
59.3613
 20
38.8572
 11
59.5365
 21
38.9266
  0
LINE
  8
0
 10
59.5365
 20
38.9266
 11
59.7189
 21
38.9734
  0
LINE
  8
0
 10
59.7189
 20
38.9734
 11
59.9058
 21
38.997
  0
LINE
  8
0
 10
59.9058
 20
38.997
 11
60.0942
 21
38.997
  0
LINE
  8
0
 10
60.0942
 20
38.997
 11
60.2811
 21
38.9734
  0
LINE
  8
0
 10
60.2811
 20
38.9734
 11
60.4635
 21
38.9266
  0
LINE
  8
0
 10
60.4635
 20
38.9266
 11
60.6387
 21
38.8572
  0
LINE
  8
0
 10
60.6387
 20
38.8572
 11
60.8037
 21
38.7665
  0
LINE
  8
0
 10
60.8037
 20
38.7665
 11
60.9561
 21
38.6558
  0
LINE
  8
0
 10
60.9561
 20
38.6558
 11
61.0934
 21
38.5268
  0
LINE
  8
0
 10
61.0934
 20
38.5268
 11
61.2135
 21
38.3817
  0
LINE
  8
0
 10
61.2135
 20
38.3817
 11
61.3145
 21
38.2226
  0
LINE
  8
0
 10
61.3145
 20
38.2226
 11
61.3947
 21
38.0522
  0
LINE
  8
0
 10
61.3947
 20
38.0522
 11
61.4529
 21
37.873
  0
LINE
  8
0
 10
61.4529
 20
37.873
 11
61.4882
 21
37.688
  0
LINE
  8
0
 10
61.4882
 20
37.688
 11
61.5
 21
37.5
  0
LINE
  8
0
 10
61.5
 20
37.5
 11
61.4882
 21
37.312
  0
LINE
  8
0
 10
61.4882
 20
37.312
 11
61.4529
 21
37.127
  0
LINE
  8
0
 10
61.4529
 20
37.127
 11
61.3947
 21
36.9478
  0
LINE
  8
0
 10
61.3947
 20
36.9478
 11
61.3145
 21
36.7774
  0
LINE
  8
0
 10
61.3145
 20
36.7774
 11
61.2135
 21
36.6183
  0
LINE
  8
0
 10
61.2135
 20
36.6183
 11
61.0934
 21
36.4732
  0
LINE
  8
0
 10
61.0934
 20
36.4732
 11
60.9561
 21
36.3442
  0
LINE
  8
0
 10
60.9561
 20
36.3442
 11
60.8037
 21
36.2335
  0
LINE
  8
0
 10
60.8037
 20
36.2335
 11
60.6387
 21
36.1428
  0
LINE
  8
0
 10
60.6387
 20
36.1428
 11
60.4635
 21
36.0734
  0
LINE
  8
0
 10
60.4635
 20
36.0734
 11
60.2811
 21
36.0266
  0
LINE
  8
0
 10
60.2811
 20
36.0266
 11
60.0942
 21
36.003
  0
LINE
  8
0
 10
60.0942
 20
36.003
 11
59.9058
 21
36.003
  0
LINE
  8
0
 10
-15.0942
 20
36.003
 11
-15.2811
 21
36.0266
  0
LINE
  8
0
 10
-15.2811
 20
36.0266
 11
-15.4635
 21
36.0734
  0
LINE
  8
0
 10
-15.4635
 20
36.0734
 11
-15.6387
 21
36.1428
  0
LINE
  8
0
 10
-15.6387
 20
36.1428
 11
-15.8037
 21
36.2335
  0
LINE
  8
0
 10
-15.8037
 20
36.2335
 11
-15.9561
 21
36.3442
  0
LINE
  8
0
 10
-15.9561
 20
36.3442
 11
-16.0934
 21
36.4732
  0
LINE
  8
0
 10
-16.0934
 20
36.4732
 11
-16.2135
 21
36.6183
  0
LINE
  8
0
 10
-16.2135
 20
36.6183
 11
-16.3145
 21
36.7774
  0
LINE
  8
0
 10
-16.3145
 20
36.7774
 11
-16.3947
 21
36.9478
  0
LINE
  8
0
 10
-16.3947
 20
36.9478
 11
-16.4529
 21
37.127
  0
LINE
  8
0
 10
-16.4529
 20
37.127
 11
-16.4882
 21
37.312
  0
LINE
  8
0
 10
-16.4882
 20
37.312
 11
-16.5
 21
37.5
  0
LINE
  8
0
 10
-16.5
 20
37.5
 11
-16.4882
 21
37.688
  0
LINE
  8
0
 10
-16.4882
 20
37.688
 11
-16.4529
 21
37.873
  0
LINE
  8
0
 10
-16.4529
 20
37.873
 11
-16.3947
 21
38.0522
  0
LINE
  8
0
 10
-16.3947
 20
38.0522
 11
-16.3145
 21
38.2226
  0
LINE
  8
0
 10
-16.3145
 20
38.2226
 11
-16.2135
 21
38.3817
  0
LINE
  8
0
 10
-16.2135
 20
38.3817
 11
-16.0934
 21
38.5268
  0
LINE
  8
0
 10
-16.0934
 20
38.5268
 11
-15.9561
 21
38.6558
  0
LINE
  8
0
 10
-15.9561
 20
38.6558
 11
-15.8037
 21
38.7665
  0
LINE
  8
0
 10
-15.8037
 20
38.7665
 11
-15.6387
 21
38.8572
  0
LINE
  8
0
 10
-15.6387
 20
38.8572
 11
-15.4635
 21
38.9266
  0
LINE
  8
0
 10
-15.4635
 20
38.9266
 11
-15.2811
 21
38.9734
  0
LINE
  8
0
 10
-15.2811
 20
38.9734
 11
-15.0942
 21
38.997
  0
LINE
  8
0
 10
-15.0942
 20
38.997
 11
-14.9058
 21
38.997
  0
LINE
  8
0
 10
-14.9058
 20
38.997
 11
-14.7189
 21
38.9734
  0
LINE
  8
0
 10
-14.7189
 20
38.9734
 11
-14.5365
 21
38.9266
  0
LINE
  8
0
 10
-14.5365
 20
38.9266
 11
-14.3613
 21
38.8572
  0
LINE
  8
0
 10
-14.3613
 20
38.8572
 11
-14.1963
 21
38.7665
  0
LINE
  8
0
 10
-14.1963
 20
38.7665
 11
-14.0439
 21
38.6558
  0
LINE
  8
0
 10
-14.0439
 20
38.6558
 11
-13.9065
 21
38.5268
  0
LINE
  8
0
 10
-13.9065
 20
38.5268
 11
-13.7865
 21
38.3817
  0
LINE
  8
0
 10
-13.7865
 20
38.3817
 11
-13.6855
 21
38.2226
  0
LINE
  8
0
 10
-13.6855
 20
38.2226
 11
-13.6053
 21
38.0522
  0
LINE
  8
0
 10
-13.6053
 20
38.0522
 11
-13.5471
 21
37.873
  0
LINE
  8
0
 10
-13.5471
 20
37.873
 11
-13.5118
 21
37.688
  0
LINE
  8
0
 10
-13.5118
 20
37.688
 11
-13.5
 21
37.5
  0
LINE
  8
0
 10
-13.5
 20
37.5
 11
-13.5118
 21
37.312
  0
LINE
  8
0
 10
-13.5118
 20
37.312
 11
-13.5471
 21
37.127
  0
LINE
  8
0
 10
-13.5471
 20
37.127
 11
-13.6053
 21
36.9478
  0
LINE
  8
0
 10
-13.6053
 20
36.9478
 11
-13.6855
 21
36.7774
  0
LINE
  8
0
 10
-13.6855
 20
36.7774
 11
-13.7865
 21
36.6183
  0
LINE
  8
0
 10
-13.7865
 20
36.6183
 11
-13.9065
 21
36.4732
  0
LINE
  8
0
 10
-13.9065
 20
36.4732
 11
-14.0439
 21
36.3442
  0
LINE
  8
0
 10
-14.0439
 20
36.3442
 11
-14.1963
 21
36.2335
  0
LINE
  8
0
 10
-14.1963
 20
36.2335
 11
-14.3613
 21
36.1428
  0
LINE
  8
0
 10
-14.3613
 20
36.1428
 11
-14.5365
 21
36.0734
  0
LINE
  8
0
 10
-14.5365
 20
36.0734
 11
-14.7189
 21
36.0266
  0
LINE
  8
0
 10
-14.7189
 20
36.0266
 11
-14.9058
 21
36.003
  0
LINE
  8
0
 10
-14.9058
 20
36.003
 11
-15.0942
 21
36.003
  0
LINE
  8
0
 10
44.9058
 20
36.003
 11
44.7189
 21
36.0266
  0
LINE
  8
0
 10
44.7189
 20
36.0266
 11
44.5365
 21
36.0734
  0
LINE
  8
0
 10
44.5365
 20
36.0734
 11
44.3613
 21
36.1428
  0
LINE
  8
0
 10
44.3613
 20
36.1428
 11
44.1963
 21
36.2335
  0
LINE
  8
0
 10
44.1963
 20
36.2335
 11
44.0439
 21
36.3442
  0
LINE
  8
0
 10
44.0439
 20
36.3442
 11
43.9065
 21
36.4732
  0
LINE
  8
0
 10
43.9065
 20
36.4732
 11
43.7865
 21
36.6183
  0
LINE
  8
0
 10
43.7865
 20
36.6183
 11
43.6855
 21
36.7774
  0
LINE
  8
0
 10
43.6855
 20
36.7774
 11
43.6053
 21
36.9478
  0
LINE
  8
0
 10
43.6053
 20
36.9478
 11
43.5471
 21
37.127
  0
LINE
  8
0
 10
43.5471
 20
37.127
 11
43.5118
 21
37.312
  0
LINE
  8
0
 10
43.5118
 20
37.312
 11
43.5
 21
37.5
  0
LINE
  8
0
 10
43.5
 20
37.5
 11
43.5118
 21
37.688
  0
LINE
  8
0
 10
43.5118
 20
37.688
 11
43.5471
 21
37.873
  0
LINE
  8
0
 10
43.5471
 20
37.873
 11
43.6053
 21
38.0522
  0
LINE
  8
0
 10
43.6053
 20
38.0522
 11
43.6855
 21
38.2226
  0
LINE
  8
0
 10
43.6855
 20
38.2226
 11
43.7865
 21
38.3817
  0
LINE
  8
0
 10
43.7865
 20
38.3817
 11
43.9065
 21
38.5268
  0
LINE
  8
0
 10
43.9065
 20
38.5268
 11
44.0439
 21
38.6558
  0
LINE
  8
0
 10
44.0439
 20
38.6558
 11
44.1963
 21
38.7665
  0
LINE
  8
0
 10
44.1963
 20
38.7665
 11
44.3613
 21
38.8572
  0
LINE
  8
0
 10
44.3613
 20
38.8572
 11
44.5365
 21
38.9266
  0
LINE
  8
0
 10
44.5365
 20
38.9266
 11
44.7189
 21
38.9734
  0
LINE
  8
0
 10
44.7189
 20
38.9734
 11
44.9058
 21
38.997
  0
LINE
  8
0
 10
44.9058
 20
38.997
 11
45.0942
 21
38.997
  0
LINE
  8
0
 10
45.0942
 20
38.997
 11
45.2811
 21
38.9734
  0
LINE
  8
0
 10
45.2811
 20
38.9734
 11
45.4635
 21
38.9266
  0
LINE
  8
0
 10
45.4635
 20
38.9266
 11
45.6387
 21
38.8572
  0
LINE
  8
0
 10
45.6387
 20
38.8572
 11
45.8037
 21
38.7665
  0
LINE
  8
0
 10
45.8037
 20
38.7665
 11
45.9561
 21
38.6558
  0
LINE
  8
0
 10
45.9561
 20
38.6558
 11
46.0934
 21
38.5268
  0
LINE
  8
0
 10
46.0934
 20
38.5268
 11
46.2135
 21
38.3817
  0
LINE
  8
0
 10
46.2135
 20
38.3817
 11
46.3145
 21
38.2226
  0
LINE
  8
0
 10
46.3145
 20
38.2226
 11
46.3947
 21
38.0522
  0
LINE
  8
0
 10
46.3947
 20
38.0522
 11
46.4529
 21
37.873
  0
LINE
  8
0
 10
46.4529
 20
37.873
 11
46.4882
 21
37.688
  0
LINE
  8
0
 10
46.4882
 20
37.688
 11
46.5
 21
37.5
  0
LINE
  8
0
 10
46.5
 20
37.5
 11
46.4882
 21
37.312
  0
LINE
  8
0
 10
46.4882
 20
37.312
 11
46.4529
 21
37.127
  0
LINE
  8
0
 10
46.4529
 20
37.127
 11
46.3947
 21
36.9478
  0
LINE
  8
0
 10
46.3947
 20
36.9478
 11
46.3145
 21
36.7774
  0
LINE
  8
0
 10
46.3145
 20
36.7774
 11
46.2135
 21
36.6183
  0
LINE
  8
0
 10
46.2135
 20
36.6183
 11
46.0934
 21
36.4732
  0
LINE
  8
0
 10
46.0934
 20
36.4732
 11
45.9561
 21
36.3442
  0
LINE
  8
0
 10
45.9561
 20
36.3442
 11
45.8037
 21
36.2335
  0
LINE
  8
0
 10
45.8037
 20
36.2335
 11
45.6387
 21
36.1428
  0
LINE
  8
0
 10
45.6387
 20
36.1428
 11
45.4635
 21
36.0734
  0
LINE
  8
0
 10
45.4635
 20
36.0734
 11
45.2811
 21
36.0266
  0
LINE
  8
0
 10
45.2811
 20
36.0266
 11
45.0942
 21
36.003
  0
LINE
  8
0
 10
45.0942
 20
36.003
 11
44.9058
 21
36.003
  0
LINE
  8
0
 10
-60.6953
 20
-26.9467
 11
-64.0593
 21
-26.5217
  0
LINE
  8
0
 10
-64.0593
 20
-26.5217
 11
-67.3435
 21
-25.6785
  0
LINE
  8
0
 10
-67.3435
 20
-25.6785
 11
-70.496
 21
-24.4303
  0
LINE
  8
0
 10
-70.496
 20
-24.4303
 11
-73.4673
 21
-22.7968
  0
LINE
  8
0
 10
-73.4673
 20
-22.7968
 11
-76.2104
 21
-20.8038
  0
LINE
  8
0
 10
-76.2104
 20
-20.8038
 11
-78.6821
 21
-18.4828
  0
LINE
  8
0
 10
-78.6821
 20
-18.4828
 11
-80.8435
 21
-15.8702
  0
LINE
  8
0
 10
-80.8435
 20
-15.8702
 11
-82.6603
 21
-13.0073
  0
LINE
  8
0
 10
-82.6603
 20
-13.0073
 11
-84.104
 21
-9.93936
  0
LINE
  8
0
 10
-84.104
 20
-9.93936
 11
-85.1517
 21
-6.71461
  0
LINE
  8
0
 10
-85.1517
 20
-6.71461
 11
-85.7871
 21
-3.38399
  0
LINE
  8
0
 10
-85.7871
 20
-3.38399
 11
-86
 21
0
  0
LINE
  8
0
 10
-86
 20
0
 11
-85.7871
 21
3.38399
  0
LINE
  8
0
 10
-85.7871
 20
3.38399
 11
-85.1517
 21
6.71461
  0
LINE
  8
0
 10
-85.1517
 20
6.71461
 11
-84.104
 21
9.93936
  0
LINE
  8
0
 10
-84.104
 20
9.93936
 11
-82.6603
 21
13.0073
  0
LINE
  8
0
 10
-82.6603
 20
13.0073
 11
-80.8435
 21
15.8702
  0
LINE
  8
0
 10
-80.8435
 20
15.8702
 11
-78.6821
 21
18.4828
  0
LINE
  8
0
 10
-78.6821
 20
18.4828
 11
-76.2104
 21
20.8038
  0
LINE
  8
0
 10
-76.2104
 20
20.8038
 11
-73.4673
 21
22.7968
  0
LINE
  8
0
 10
-73.4673
 20
22.7968
 11
-70.496
 21
24.4303
  0
LINE
  8
0
 10
-70.496
 20
24.4303
 11
-67.3435
 21
25.6785
  0
LINE
  8
0
 10
-67.3435
 20
25.6785
 11
-64.0593
 21
26.5217
  0
LINE
  8
0
 10
-64.0593
 20
26.5217
 11
-60.6953
 21
26.9467
  0
LINE
  8
0
 10
-60.6953
 20
26.9467
 11
-57.3047
 21
26.9467
  0
LINE
  8
0
 10
-57.3047
 20
26.9467
 11
-53.9407
 21
26.5217
  0
LINE
  8
0
 10
-53.9407
 20
26.5217
 11
-50.6565
 21
25.6785
  0
LINE
  8
0
 10
-50.6565
 20
25.6785
 11
-47.504
 21
24.4303
  0
LINE
  8
0
 10
-47.504
 20
24.4303
 11
-44.5327
 21
22.7968
  0
LINE
  8
0
 10
-44.5327
 20
22.7968
 11
-41.7896
 21
20.8038
  0
LINE
  8
0
 10
-41.7896
 20
20.8038
 11
-39.3178
 21
18.4828
  0
LINE
  8
0
 10
-39.3178
 20
18.4828
 11
-37.1565
 21
15.8702
  0
LINE
  8
0
 10
-37.1565
 20
15.8702
 11
-35.3397
 21
13.0073
  0
LINE
  8
0
 10
-35.3397
 20
13.0073
 11
-33.896
 21
9.93936
  0
LINE
  8
0
 10
-33.896
 20
9.93936
 11
-32.8483
 21
6.71461
  0
LINE
  8
0
 10
-32.8483
 20
6.71461
 11
-32.2129
 21
3.38399
  0
LINE
  8
0
 10
-32.2129
 20
3.38399
 11
-32
 21
0
  0
LINE
  8
0
 10
-32
 20
0
 11
-32.2129
 21
-3.38399
  0
LINE
  8
0
 10
-32.2129
 20
-3.38399
 11
-32.8483
 21
-6.71461
  0
LINE
  8
0
 10
-32.8483
 20
-6.71461
 11
-33.896
 21
-9.93936
  0
LINE
  8
0
 10
-33.896
 20
-9.93936
 11
-35.3397
 21
-13.0073
  0
LINE
  8
0
 10
-35.3397
 20
-13.0073
 11
-37.1565
 21
-15.8702
  0
LINE
  8
0
 10
-37.1565
 20
-15.8702
 11
-39.3178
 21
-18.4828
  0
LINE
  8
0
 10
-39.3178
 20
-18.4828
 11
-41.7896
 21
-20.8038
  0
LINE
  8
0
 10
-41.7896
 20
-20.8038
 11
-44.5327
 21
-22.7968
  0
LINE
  8
0
 10
-44.5327
 20
-22.7968
 11
-47.504
 21
-24.4303
  0
LINE
  8
0
 10
-47.504
 20
-24.4303
 11
-50.6565
 21
-25.6785
  0
LINE
  8
0
 10
-50.6565
 20
-25.6785
 11
-53.9407
 21
-26.5217
  0
LINE
  8
0
 10
-53.9407
 20
-26.5217
 11
-57.3047
 21
-26.9467
  0
LINE
  8
0
 10
-57.3047
 20
-26.9467
 11
-60.6953
 21
-26.9467
  0
LINE
  8
0
 10
-1.69534
 20
-26.9467
 11
-5.05928
 21
-26.5217
  0
LINE
  8
0
 10
-5.05928
 20
-26.5217
 11
-8.34344
 21
-25.6785
  0
LINE
  8
0
 10
-8.34344
 20
-25.6785
 11
-11.496
 21
-24.4303
  0
LINE
  8
0
 10
-11.496
 20
-24.4303
 11
-14.4673
 21
-22.7968
  0
LINE
  8
0
 10
-14.4673
 20
-22.7968
 11
-17.2104
 21
-20.8038
  0
LINE
  8
0
 10
-17.2104
 20
-20.8038
 11
-19.6821
 21
-18.4828
  0
LINE
  8
0
 10
-19.6821
 20
-18.4828
 11
-21.8434
 21
-15.8702
  0
LINE
  8
0
 10
-21.8434
 20
-15.8702
 11
-23.6603
 21
-13.0073
  0
LINE
  8
0
 10
-23.6603
 20
-13.0073
 11
-25.104
 21
-9.93936
  0
LINE
  8
0
 10
-25.104
 20
-9.93936
 11
-26.1517
 21
-6.71461
  0
LINE
  8
0
 10
-26.1517
 20
-6.71461
 11
-26.7871
 21
-3.38399
  0
LINE
  8
0
 10
-26.7871
 20
-3.38399
 11
-27
 21
0
  0
LINE
  8
0
 10
-27
 20
0
 11
-26.7871
 21
3.38399
  0
LINE
  8
0
 10
-26.7871
 20
3.38399
 11
-26.1517
 21
6.71461
  0
LINE
  8
0
 10
-26.1517
 20
6.71461
 11
-25.104
 21
9.93936
  0
LINE
  8
0
 10
-25.104
 20
9.93936
 11
-23.6603
 21
13.0073
  0
LINE
  8
0
 10
-23.6603
 20
13.0073
 11
-21.8434
 21
15.8702
  0
LINE
  8
0
 10
-21.8434
 20
15.8702
 11
-19.6821
 21
18.4828
  0
LINE
  8
0
 10
-19.6821
 20
18.4828
 11
-17.2104
 21
20.8038
  0
LINE
  8
0
 10
-17.2104
 20
20.8038
 11
-14.4673
 21
22.7968
  0
LINE
  8
0
 10
-14.4673
 20
22.7968
 11
-11.496
 21
24.4303
  0
LINE
  8
0
 10
-11.496
 20
24.4303
 11
-8.34344
 21
25.6785
  0
LINE
  8
0
 10
-8.34344
 20
25.6785
 11
-5.05928
 21
26.5217
  0
LINE
  8
0
 10
-5.05928
 20
26.5217
 11
-1.69534
 21
26.9467
  0
LINE
  8
0
 10
-1.69534
 20
26.9467
 11
1.69534
 21
26.9467
  0
LINE
  8
0
 10
1.69534
 20
26.9467
 11
5.05928
 21
26.5217
  0
LINE
  8
0
 10
5.05928
 20
26.5217
 11
8.34344
 21
25.6785
  0
LINE
  8
0
 10
8.34344
 20
25.6785
 11
11.496
 21
24.4303
  0
LINE
  8
0
 10
11.496
 20
24.4303
 11
14.4673
 21
22.7968
  0
LINE
  8
0
 10
14.4673
 20
22.7968
 11
17.2104
 21
20.8038
  0
LINE
  8
0
 10
17.2104
 20
20.8038
 11
19.6821
 21
18.4828
  0
LINE
  8
0
 10
19.6821
 20
18.4828
 11
21.8434
 21
15.8702
  0
LINE
  8
0
 10
21.8434
 20
15.8702
 11
23.6603
 21
13.0073
  0
LINE
  8
0
 10
23.6603
 20
13.0073
 11
25.104
 21
9.93936
  0
LINE
  8
0
 10
25.104
 20
9.93936
 11
26.1517
 21
6.71461
  0
LINE
  8
0
 10
26.1517
 20
6.71461
 11
26.7871
 21
3.38399
  0
LINE
  8
0
 10
26.7871
 20
3.38399
 11
27
 21
0
  0
LINE
  8
0
 10
27
 20
0
 11
26.7871
 21
-3.38399
  0
LINE
  8
0
 10
26.7871
 20
-3.38399
 11
26.1517
 21
-6.71461
  0
LINE
  8
0
 10
26.1517
 20
-6.71461
 11
25.104
 21
-9.93936
  0
LINE
  8
0
 10
25.104
 20
-9.93936
 11
23.6603
 21
-13.0073
  0
LINE
  8
0
 10
23.6603
 20
-13.0073
 11
21.8434
 21
-15.8702
  0
LINE
  8
0
 10
21.8434
 20
-15.8702
 11
19.6821
 21
-18.4828
  0
LINE
  8
0
 10
19.6821
 20
-18.4828
 11
17.2104
 21
-20.8038
  0
LINE
  8
0
 10
17.2104
 20
-20.8038
 11
14.4673
 21
-22.7968
  0
LINE
  8
0
 10
14.4673
 20
-22.7968
 11
11.496
 21
-24.4303
  0
LINE
  8
0
 10
11.496
 20
-24.4303
 11
8.34344
 21
-25.6785
  0
LINE
  8
0
 10
8.34344
 20
-25.6785
 11
5.05928
 21
-26.5217
  0
LINE
  8
0
 10
5.05928
 20
-26.5217
 11
1.69534
 21
-26.9467
  0
LINE
  8
0
 10
1.69534
 20
-26.9467
 11
-1.69534
 21
-26.9467
  0
LINE
  8
0
 10
57.3047
 20
-26.9467
 11
53.9407
 21
-26.5217
  0
LINE
  8
0
 10
53.9407
 20
-26.5217
 11
50.6565
 21
-25.6785
  0
LINE
  8
0
 10
50.6565
 20
-25.6785
 11
47.504
 21
-24.4303
  0
LINE
  8
0
 10
47.504
 20
-24.4303
 11
44.5327
 21
-22.7968
  0
LINE
  8
0
 10
44.5327
 20
-22.7968
 11
41.7896
 21
-20.8038
  0
LINE
  8
0
 10
41.7896
 20
-20.8038
 11
39.3178
 21
-18.4828
  0
LINE
  8
0
 10
39.3178
 20
-18.4828
 11
37.1565
 21
-15.8702
  0
LINE
  8
0
 10
37.1565
 20
-15.8702
 11
35.3397
 21
-13.0073
  0
LINE
  8
0
 10
35.3397
 20
-13.0073
 11
33.896
 21
-9.93936
  0
LINE
  8
0
 10
33.896
 20
-9.93936
 11
32.8483
 21
-6.71461
  0
LINE
  8
0
 10
32.8483
 20
-6.71461
 11
32.2129
 21
-3.38399
  0
LINE
  8
0
 10
32.2129
 20
-3.38399
 11
32
 21
0
  0
LINE
  8
0
 10
32
 20
0
 11
32.2129
 21
3.38399
  0
LINE
  8
0
 10
32.2129
 20
3.38399
 11
32.8483
 21
6.71461
  0
LINE
  8
0
 10
32.8483
 20
6.71461
 11
33.896
 21
9.93936
  0
LINE
  8
0
 10
33.896
 20
9.93936
 11
35.3397
 21
13.0073
  0
LINE
  8
0
 10
35.3397
 20
13.0073
 11
37.1565
 21
15.8702
  0
LINE
  8
0
 10
37.1565
 20
15.8702
 11
39.3178
 21
18.4828
  0
LINE
  8
0
 10
39.3178
 20
18.4828
 11
41.7896
 21
20.8038
  0
LINE
  8
0
 10
41.7896
 20
20.8038
 11
44.5327
 21
22.7968
  0
LINE
  8
0
 10
44.5327
 20
22.7968
 11
47.504
 21
24.4303
  0
LINE
  8
0
 10
47.504
 20
24.4303
 11
50.6565
 21
25.6785
  0
LINE
  8
0
 10
50.6565
 20
25.6785
 11
53.9407
 21
26.5217
  0
LINE
  8
0
 10
53.9407
 20
26.5217
 11
57.3047
 21
26.9467
  0
LINE
  8
0
 10
57.3047
 20
26.9467
 11
60.6953
 21
26.9467
  0
LINE
  8
0
 10
60.6953
 20
26.9467
 11
64.0593
 21
26.5217
  0
LINE
  8
0
 10
64.0593
 20
26.5217
 11
67.3435
 21
25.6785
  0
LINE
  8
0
 10
67.3435
 20
25.6785
 11
70.496
 21
24.4303
  0
LINE
  8
0
 10
70.496
 20
24.4303
 11
73.4673
 21
22.7968
  0
LINE
  8
0
 10
73.4673
 20
22.7968
 11
76.2104
 21
20.8038
  0
LINE
  8
0
 10
76.2104
 20
20.8038
 11
78.6821
 21
18.4828
  0
LINE
  8
0
 10
78.6821
 20
18.4828
 11
80.8435
 21
15.8702
  0
LINE
  8
0
 10
80.8435
 20
15.8702
 11
82.6603
 21
13.0073
  0
LINE
  8
0
 10
82.6603
 20
13.0073
 11
84.104
 21
9.93936
  0
LINE
  8
0
 10
84.104
 20
9.93936
 11
85.1517
 21
6.71461
  0
LINE
  8
0
 10
85.1517
 20
6.71461
 11
85.7871
 21
3.38399
  0
LINE
  8
0
 10
85.7871
 20
3.38399
 11
86
 21
0
  0
LINE
  8
0
 10
86
 20
0
 11
85.7871
 21
-3.38399
  0
LINE
  8
0
 10
85.7871
 20
-3.38399
 11
85.1517
 21
-6.71461
  0
LINE
  8
0
 10
85.1517
 20
-6.71461
 11
84.104
 21
-9.93936
  0
LINE
  8
0
 10
84.104
 20
-9.93936
 11
82.6603
 21
-13.0073
  0
LINE
  8
0
 10
82.6603
 20
-13.0073
 11
80.8435
 21
-15.8702
  0
LINE
  8
0
 10
80.8435
 20
-15.8702
 11
78.6821
 21
-18.4828
  0
LINE
  8
0
 10
78.6821
 20
-18.4828
 11
76.2104
 21
-20.8038
  0
LINE
  8
0
 10
76.2104
 20
-20.8038
 11
73.4673
 21
-22.7968
  0
LINE
  8
0
 10
73.4673
 20
-22.7968
 11
70.496
 21
-24.4303
  0
LINE
  8
0
 10
70.496
 20
-24.4303
 11
67.3435
 21
-25.6785
  0
LINE
  8
0
 10
67.3435
 20
-25.6785
 11
64.0593
 21
-26.5217
  0
LINE
  8
0
 10
64.0593
 20
-26.5217
 11
60.6953
 21
-26.9467
  0
LINE
  8
0
 10
60.6953
 20
-26.9467
 11
57.3047
 21
-26.9467
  0
LINE
  8
0
 10
7.31161
 20
-40.4941
 11
6.93785
 21
-40.4469
  0
LINE
  8
0
 10
6.93785
 20
-40.4469
 11
6.57294
 21
-40.3532
  0
LINE
  8
0
 10
6.57294
 20
-40.3532
 11
6.22266
 21
-40.2145
  0
LINE
  8
0
 10
6.22266
 20
-40.2145
 11
5.89252
 21
-40.033
  0
LINE
  8
0
 10
5.89252
 20
-40.033
 11
5.58772
 21
-39.8115
  0
LINE
  8
0
 10
5.58772
 20
-39.8115
 11
5.31308
 21
-39.5536
  0
LINE
  8
0
 10
5.31308
 20
-39.5536
 11
5.07294
 21
-39.2634
  0
LINE
  8
0
 10
5.07294
 20
-39.2634
 11
4.87108
 21
-38.9453
  0
LINE
  8
0
 10
4.87108
 20
-38.9453
 11
4.71066
 21
-38.6044
  0
LINE
  8
0
 10
4.71066
 20
-38.6044
 11
4.59424
 21
-38.2461
  0
LINE
  8
0
 10
4.59424
 20
-38.2461
 11
4.52365
 21
-37.876
  0
LINE
  8
0
 10
4.52365
 20
-37.876
 11
4.5
 21
-37.5
  0
LINE
  8
0
 10
4.5
 20
-37.5
 11
4.52365
 21
-37.124
  0
LINE
  8
0
 10
4.52365
 20
-37.124
 11
4.59424
 21
-36.7539
  0
LINE
  8
0
 10
4.59424
 20
-36.7539
 11
4.71066
 21
-36.3956
  0
LINE
  8
0
 10
4.71066
 20
-36.3956
 11
4.87108
 21
-36.0547
  0
LINE
  8
0
 10
4.87108
 20
-36.0547
 11
5.07294
 21
-35.7366
  0
LINE
  8
0
 10
5.07294
 20
-35.7366
 11
5.31308
 21
-35.4464
  0
LINE
  8
0
 10
5.31308
 20
-35.4464
 11
5.58772
 21
-35.1885
  0
LINE
  8
0
 10
5.58772
 20
-35.1885
 11
5.89252
 21
-34.967
  0
LINE
  8
0
 10
5.89252
 20
-34.967
 11
6.22266
 21
-34.7855
  0
LINE
  8
0
 10
6.22266
 20
-34.7855
 11
6.57294
 21
-34.6468
  0
LINE
  8
0
 10
6.57294
 20
-34.6468
 11
6.93785
 21
-34.5531
  0
LINE
  8
0
 10
6.93785
 20
-34.5531
 11
7.31161
 21
-34.5059
  0
LINE
  8
0
 10
7.31161
 20
-34.5059
 11
7.68837
 21
-34.5059
  0
LINE
  8
0
 10
7.68837
 20
-34.5059
 11
8.06213
 21
-34.5531
  0
LINE
  8
0
 10
8.06213
 20
-34.5531
 11
8.42705
 21
-34.6468
  0
LINE
  8
0
 10
8.42705
 20
-34.6468
 11
8.77733
 21
-34.7855
  0
LINE
  8
0
 10
8.77733
 20
-34.7855
 11
9.10747
 21
-34.967
  0
LINE
  8
0
 10
9.10747
 20
-34.967
 11
9.41226
 21
-35.1885
  0
LINE
  8
0
 10
9.41226
 20
-35.1885
 11
9.6869
 21
-35.4464
  0
LINE
  8
0
 10
9.6869
 20
-35.4464
 11
9.92705
 21
-35.7366
  0
LINE
  8
0
 10
9.92705
 20
-35.7366
 11
10.1289
 21
-36.0547
  0
LINE
  8
0
 10
10.1289
 20
-36.0547
 11
10.2893
 21
-36.3956
  0
LINE
  8
0
 10
10.2893
 20
-36.3956
 11
10.4057
 21
-36.7539
  0
LINE
  8
0
 10
10.4057
 20
-36.7539
 11
10.4763
 21
-37.124
  0
LINE
  8
0
 10
10.4763
 20
-37.124
 11
10.5
 21
-37.5
  0
LINE
  8
0
 10
10.5
 20
-37.5
 11
10.4763
 21
-37.876
  0
LINE
  8
0
 10
10.4763
 20
-37.876
 11
10.4057
 21
-38.2461
  0
LINE
  8
0
 10
10.4057
 20
-38.2461
 11
10.2893
 21
-38.6044
  0
LINE
  8
0
 10
10.2893
 20
-38.6044
 11
10.1289
 21
-38.9453
  0
LINE
  8
0
 10
10.1289
 20
-38.9453
 11
9.92705
 21
-39.2634
  0
LINE
  8
0
 10
9.92705
 20
-39.2634
 11
9.6869
 21
-39.5536
  0
LINE
  8
0
 10
9.6869
 20
-39.5536
 11
9.41226
 21
-39.8115
  0
LINE
  8
0
 10
9.41226
 20
-39.8115
 11
9.10747
 21
-40.033
  0
LINE
  8
0
 10
9.10747
 20
-40.033
 11
8.77733
 21
-40.2145
  0
LINE
  8
0
 10
8.77733
 20
-40.2145
 11
8.42705
 21
-40.3532
  0
LINE
  8
0
 10
8.42705
 20
-40.3532
 11
8.06213
 21
-40.4469
  0
LINE
  8
0
 10
8.06213
 20
-40.4469
 11
7.68837
 21
-40.4941
  0
LINE
  8
0
 10
7.68837
 20
-40.4941
 11
7.31161
 21
-40.4941
  0
LINE
  8
0
 10
67.3116
 20
-40.4941
 11
66.9379
 21
-40.4469
  0
LINE
  8
0
 10
66.9379
 20
-40.4469
 11
66.573
 21
-40.3532
  0
LINE
  8
0
 10
66.573
 20
-40.3532
 11
66.2227
 21
-40.2145
  0
LINE
  8
0
 10
66.2227
 20
-40.2145
 11
65.8925
 21
-40.033
  0
LINE
  8
0
 10
65.8925
 20
-40.033
 11
65.5877
 21
-39.8115
  0
LINE
  8
0
 10
65.5877
 20
-39.8115
 11
65.3131
 21
-39.5536
  0
LINE
  8
0
 10
65.3131
 20
-39.5536
 11
65.073
 21
-39.2634
  0
LINE
  8
0
 10
65.073
 20
-39.2634
 11
64.8711
 21
-38.9453
  0
LINE
  8
0
 10
64.8711
 20
-38.9453
 11
64.7107
 21
-38.6044
  0
LINE
  8
0
 10
64.7107
 20
-38.6044
 11
64.5943
 21
-38.2461
  0
LINE
  8
0
 10
64.5943
 20
-38.2461
 11
64.5237
 21
-37.876
  0
LINE
  8
0
 10
64.5237
 20
-37.876
 11
64.5
 21
-37.5
  0
LINE
  8
0
 10
64.5
 20
-37.5
 11
64.5237
 21
-37.124
  0
LINE
  8
0
 10
64.5237
 20
-37.124
 11
64.5943
 21
-36.7539
  0
LINE
  8
0
 10
64.5943
 20
-36.7539
 11
64.7107
 21
-36.3956
  0
LINE
  8
0
 10
64.7107
 20
-36.3956
 11
64.8711
 21
-36.0547
  0
LINE
  8
0
 10
64.8711
 20
-36.0547
 11
65.073
 21
-35.7366
  0
LINE
  8
0
 10
65.073
 20
-35.7366
 11
65.3131
 21
-35.4464
  0
LINE
  8
0
 10
65.3131
 20
-35.4464
 11
65.5877
 21
-35.1885
  0
LINE
  8
0
 10
65.5877
 20
-35.1885
 11
65.8925
 21
-34.967
  0
LINE
  8
0
 10
65.8925
 20
-34.967
 11
66.2227
 21
-34.7855
  0
LINE
  8
0
 10
66.2227
 20
-34.7855
 11
66.573
 21
-34.6468
  0
LINE
  8
0
 10
66.573
 20
-34.6468
 11
66.9379
 21
-34.5531
  0
LINE
  8
0
 10
66.9379
 20
-34.5531
 11
67.3116
 21
-34.5059
  0
LINE
  8
0
 10
67.3116
 20
-34.5059
 11
67.6884
 21
-34.5059
  0
LINE
  8
0
 10
67.6884
 20
-34.5059
 11
68.0621
 21
-34.5531
  0
LINE
  8
0
 10
68.0621
 20
-34.5531
 11
68.427
 21
-34.6468
  0
LINE
  8
0
 10
68.427
 20
-34.6468
 11
68.7773
 21
-34.7855
  0
LINE
  8
0
 10
68.7773
 20
-34.7855
 11
69.1075
 21
-34.967
  0
LINE
  8
0
 10
69.1075
 20
-34.967
 11
69.4123
 21
-35.1885
  0
LINE
  8
0
 10
69.4123
 20
-35.1885
 11
69.6869
 21
-35.4464
  0
LINE
  8
0
 10
69.6869
 20
-35.4464
 11
69.927
 21
-35.7366
  0
LINE
  8
0
 10
69.927
 20
-35.7366
 11
70.1289
 21
-36.0547
  0
LINE
  8
0
 10
70.1289
 20
-36.0547
 11
70.2893
 21
-36.3956
  0
LINE
  8
0
 10
70.2893
 20
-36.3956
 11
70.4057
 21
-36.7539
  0
LINE
  8
0
 10
70.4057
 20
-36.7539
 11
70.4763
 21
-37.124
  0
LINE
  8
0
 10
70.4763
 20
-37.124
 11
70.5
 21
-37.5
  0
LINE
  8
0
 10
70.5
 20
-37.5
 11
70.4763
 21
-37.876
  0
LINE
  8
0
 10
70.4763
 20
-37.876
 11
70.4057
 21
-38.2461
  0
LINE
  8
0
 10
70.4057
 20
-38.2461
 11
70.2893
 21
-38.6044
  0
LINE
  8
0
 10
70.2893
 20
-38.6044
 11
70.1289
 21
-38.9453
  0
LINE
  8
0
 10
70.1289
 20
-38.9453
 11
69.927
 21
-39.2634
  0
LINE
  8
0
 10
69.927
 20
-39.2634
 11
69.6869
 21
-39.5536
  0
LINE
  8
0
 10
69.6869
 20
-39.5536
 11
69.4123
 21
-39.8115
  0
LINE
  8
0
 10
69.4123
 20
-39.8115
 11
69.1075
 21
-40.033
  0
LINE
  8
0
 10
69.1075
 20
-40.033
 11
68.7773
 21
-40.2145
  0
LINE
  8
0
 10
68.7773
 20
-40.2145
 11
68.427
 21
-40.3532
  0
LINE
  8
0
 10
68.427
 20
-40.3532
 11
68.0621
 21
-40.4469
  0
LINE
  8
0
 10
68.0621
 20
-40.4469
 11
67.6884
 21
-40.4941
  0
LINE
  8
0
 10
67.6884
 20
-40.4941
 11
67.3116
 21
-40.4941
  0
LINE
  8
0
 10
-7.68837
 20
-40.4941
 11
-8.06213
 21
-40.4469
  0
LINE
  8
0
 10
-8.06213
 20
-40.4469
 11
-8.42705
 21
-40.3532
  0
LINE
  8
0
 10
-8.42705
 20
-40.3532
 11
-8.77733
 21
-40.2145
  0
LINE
  8
0
 10
-8.77733
 20
-40.2145
 11
-9.10747
 21
-40.033
  0
LINE
  8
0
 10
-9.10747
 20
-40.033
 11
-9.41226
 21
-39.8115
  0
LINE
  8
0
 10
-9.41226
 20
-39.8115
 11
-9.6869
 21
-39.5536
  0
LINE
  8
0
 10
-9.6869
 20
-39.5536
 11
-9.92705
 21
-39.2634
  0
LINE
  8
0
 10
-9.92705
 20
-39.2634
 11
-10.1289
 21
-38.9453
  0
LINE
  8
0
 10
-10.1289
 20
-38.9453
 11
-10.2893
 21
-38.6044
  0
LINE
  8
0
 10
-10.2893
 20
-38.6044
 11
-10.4057
 21
-38.2461
  0
LINE
  8
0
 10
-10.4057
 20
-38.2461
 11
-10.4763
 21
-37.876
  0
LINE
  8
0
 10
-10.4763
 20
-37.876
 11
-10.5
 21
-37.5
  0
LINE
  8
0
 10
-10.5
 20
-37.5
 11
-10.4763
 21
-37.124
  0
LINE
  8
0
 10
-10.4763
 20
-37.124
 11
-10.4057
 21
-36.7539
  0
LINE
  8
0
 10
-10.4057
 20
-36.7539
 11
-10.2893
 21
-36.3956
  0
LINE
  8
0
 10
-10.2893
 20
-36.3956
 11
-10.1289
 21
-36.0547
  0
LINE
  8
0
 10
-10.1289
 20
-36.0547
 11
-9.92705
 21
-35.7366
  0
LINE
  8
0
 10
-9.92705
 20
-35.7366
 11
-9.6869
 21
-35.4464
  0
LINE
  8
0
 10
-9.6869
 20
-35.4464
 11
-9.41226
 21
-35.1885
  0
LINE
  8
0
 10
-9.41226
 20
-35.1885
 11
-9.10747
 21
-34.967
  0
LINE
  8
0
 10
-9.10747
 20
-34.967
 11
-8.77733
 21
-34.7855
  0
LINE
  8
0
 10
-8.77733
 20
-34.7855
 11
-8.42705
 21
-34.6468
  0
LINE
  8
0
 10
-8.42705
 20
-34.6468
 11
-8.06213
 21
-34.5531
  0
LINE
  8
0
 10
-8.06213
 20
-34.5531
 11
-7.68837
 21
-34.5059
  0
LINE
  8
0
 10
-7.68837
 20
-34.5059
 11
-7.31161
 21
-34.5059
  0
LINE
  8
0
 10
-7.31161
 20
-34.5059
 11
-6.93785
 21
-34.5531
  0
LINE
  8
0
 10
-6.93785
 20
-34.5531
 11
-6.57294
 21
-34.6468
  0
LINE
  8
0
 10
-6.57294
 20
-34.6468
 11
-6.22266
 21
-34.7855
  0
LINE
  8
0
 10
-6.22266
 20
-34.7855
 11
-5.89252
 21
-34.967
  0
LINE
  8
0
 10
-5.89252
 20
-34.967
 11
-5.58772
 21
-35.1885
  0
LINE
  8
0
 10
-5.58772
 20
-35.1885
 11
-5.31308
 21
-35.4464
  0
LINE
  8
0
 10
-5.31308
 20
-35.4464
 11
-5.07294
 21
-35.7366
  0
LINE
  8
0
 10
-5.07294
 20
-35.7366
 11
-4.87108
 21
-36.0547
  0
LINE
  8
0
 10
-4.87108
 20
-36.0547
 11
-4.71066
 21
-36.3956
  0
LINE
  8
0
 10
-4.71066
 20
-36.3956
 11
-4.59424
 21
-36.7539
  0
LINE
  8
0
 10
-4.59424
 20
-36.7539
 11
-4.52365
 21
-37.124
  0
LINE
  8
0
 10
-4.52365
 20
-37.124
 11
-4.5
 21
-37.5
  0
LINE
  8
0
 10
-4.5
 20
-37.5
 11
-4.52365
 21
-37.876
  0
LINE
  8
0
 10
-4.52365
 20
-37.876
 11
-4.59424
 21
-38.2461
  0
LINE
  8
0
 10
-4.59424
 20
-38.2461
 11
-4.71066
 21
-38.6044
  0
LINE
  8
0
 10
-4.71066
 20
-38.6044
 11
-4.87108
 21
-38.9453
  0
LINE
  8
0
 10
-4.87108
 20
-38.9453
 11
-5.07294
 21
-39.2634
  0
LINE
  8
0
 10
-5.07294
 20
-39.2634
 11
-5.31308
 21
-39.5536
  0
LINE
  8
0
 10
-5.31308
 20
-39.5536
 11
-5.58772
 21
-39.8115
  0
LINE
  8
0
 10
-5.58772
 20
-39.8115
 11
-5.89252
 21
-40.033
  0
LINE
  8
0
 10
-5.89252
 20
-40.033
 11
-6.22266
 21
-40.2145
  0
LINE
  8
0
 10
-6.22266
 20
-40.2145
 11
-6.57294
 21
-40.3532
  0
LINE
  8
0
 10
-6.57294
 20
-40.3532
 11
-6.93785
 21
-40.4469
  0
LINE
  8
0
 10
-6.93785
 20
-40.4469
 11
-7.31161
 21
-40.4941
  0
LINE
  8
0
 10
-7.31161
 20
-40.4941
 11
-7.68837
 21
-40.4941
  0
LINE
  8
0
 10
-22.6884
 20
-40.4941
 11
-23.0621
 21
-40.4469
  0
LINE
  8
0
 10
-23.0621
 20
-40.4469
 11
-23.427
 21
-40.3532
  0
LINE
  8
0
 10
-23.427
 20
-40.3532
 11
-23.7773
 21
-40.2145
  0
LINE
  8
0
 10
-23.7773
 20
-40.2145
 11
-24.1075
 21
-40.033
  0
LINE
  8
0
 10
-24.1075
 20
-40.033
 11
-24.4123
 21
-39.8115
  0
LINE
  8
0
 10
-24.4123
 20
-39.8115
 11
-24.6869
 21
-39.5536
  0
LINE
  8
0
 10
-24.6869
 20
-39.5536
 11
-24.927
 21
-39.2634
  0
LINE
  8
0
 10
-24.927
 20
-39.2634
 11
-25.1289
 21
-38.9453
  0
LINE
  8
0
 10
-25.1289
 20
-38.9453
 11
-25.2893
 21
-38.6044
  0
LINE
  8
0
 10
-25.2893
 20
-38.6044
 11
-25.4057
 21
-38.2461
  0
LINE
  8
0
 10
-25.4057
 20
-38.2461
 11
-25.4763
 21
-37.876
  0
LINE
  8
0
 10
-25.4763
 20
-37.876
 11
-25.5
 21
-37.5
  0
LINE
  8
0
 10
-25.5
 20
-37.5
 11
-25.4763
 21
-37.124
  0
LINE
  8
0
 10
-25.4763
 20
-37.124
 11
-25.4057
 21
-36.7539
  0
LINE
  8
0
 10
-25.4057
 20
-36.7539
 11
-25.2893
 21
-36.3956
  0
LINE
  8
0
 10
-25.2893
 20
-36.3956
 11
-25.1289
 21
-36.0547
  0
LINE
  8
0
 10
-25.1289
 20
-36.0547
 11
-24.927
 21
-35.7366
  0
LINE
  8
0
 10
-24.927
 20
-35.7366
 11
-24.6869
 21
-35.4464
  0
LINE
  8
0
 10
-24.6869
 20
-35.4464
 11
-24.4123
 21
-35.1885
  0
LINE
  8
0
 10
-24.4123
 20
-35.1885
 11
-24.1075
 21
-34.967
  0
LINE
  8
0
 10
-24.1075
 20
-34.967
 11
-23.7773
 21
-34.7855
  0
LINE
  8
0
 10
-23.7773
 20
-34.7855
 11
-23.427
 21
-34.6468
  0
LINE
  8
0
 10
-23.427
 20
-34.6468
 11
-23.0621
 21
-34.5531
  0
LINE
  8
0
 10
-23.0621
 20
-34.5531
 11
-22.6884
 21
-34.5059
  0
LINE
  8
0
 10
-22.6884
 20
-34.5059
 11
-22.3116
 21
-34.5059
  0
LINE
  8
0
 10
-22.3116
 20
-34.5059
 11
-21.9379
 21
-34.5531
  0
LINE
  8
0
 10
-21.9379
 20
-34.5531
 11
-21.5729
 21
-34.6468
  0
LINE
  8
0
 10
-21.5729
 20
-34.6468
 11
-21.2227
 21
-34.7855
  0
LINE
  8
0
 10
-21.2227
 20
-34.7855
 11
-20.8925
 21
-34.967
  0
LINE
  8
0
 10
-20.8925
 20
-34.967
 11
-20.5877
 21
-35.1885
  0
LINE
  8
0
 10
-20.5877
 20
-35.1885
 11
-20.3131
 21
-35.4464
  0
LINE
  8
0
 10
-20.3131
 20
-35.4464
 11
-20.0729
 21
-35.7366
  0
LINE
  8
0
 10
-20.0729
 20
-35.7366
 11
-19.8711
 21
-36.0547
  0
LINE
  8
0
 10
-19.8711
 20
-36.0547
 11
-19.7107
 21
-36.3956
  0
LINE
  8
0
 10
-19.7107
 20
-36.3956
 11
-19.5942
 21
-36.7539
  0
LINE
  8
0
 10
-19.5942
 20
-36.7539
 11
-19.5237
 21
-37.124
  0
LINE
  8
0
 10
-19.5237
 20
-37.124
 11
-19.5
 21
-37.5
  0
LINE
  8
0
 10
-19.5
 20
-37.5
 11
-19.5237
 21
-37.876
  0
LINE
  8
0
 10
-19.5237
 20
-37.876
 11
-19.5942
 21
-38.2461
  0
LINE
  8
0
 10
-19.5942
 20
-38.2461
 11
-19.7107
 21
-38.6044
  0
LINE
  8
0
 10
-19.7107
 20
-38.6044
 11
-19.8711
 21
-38.9453
  0
LINE
  8
0
 10
-19.8711
 20
-38.9453
 11
-20.0729
 21
-39.2634
  0
LINE
  8
0
 10
-20.0729
 20
-39.2634
 11
-20.3131
 21
-39.5536
  0
LINE
  8
0
 10
-20.3131
 20
-39.5536
 11
-20.5877
 21
-39.8115
  0
LINE
  8
0
 10
-20.5877
 20
-39.8115
 11
-20.8925
 21
-40.033
  0
LINE
  8
0
 10
-20.8925
 20
-40.033
 11
-21.2227
 21
-40.2145
  0
LINE
  8
0
 10
-21.2227
 20
-40.2145
 11
-21.5729
 21
-40.3532
  0
LINE
  8
0
 10
-21.5729
 20
-40.3532
 11
-21.9379
 21
-40.4469
  0
LINE
  8
0
 10
-21.9379
 20
-40.4469
 11
-22.3116
 21
-40.4941
  0
LINE
  8
0
 10
-22.3116
 20
-40.4941
 11
-22.6884
 21
-40.4941
  0
LINE
  8
0
 10
52.3116
 20
-40.4941
 11
51.9379
 21
-40.4469
  0
LINE
  8
0
 10
51.9379
 20
-40.4469
 11
51.5729
 21
-40.3532
  0
LINE
  8
0
 10
51.5729
 20
-40.3532
 11
51.2227
 21
-40.2145
  0
LINE
  8
0
 10
51.2227
 20
-40.2145
 11
50.8925
 21
-40.033
  0
LINE
  8
0
 10
50.8925
 20
-40.033
 11
50.5877
 21
-39.8115
  0
LINE
  8
0
 10
50.5877
 20
-39.8115
 11
50.3131
 21
-39.5536
  0
LINE
  8
0
 10
50.3131
 20
-39.5536
 11
50.0729
 21
-39.2634
  0
LINE
  8
0
 10
50.0729
 20
-39.2634
 11
49.8711
 21
-38.9453
  0
LINE
  8
0
 10
49.8711
 20
-38.9453
 11
49.7107
 21
-38.6044
  0
LINE
  8
0
 10
49.7107
 20
-38.6044
 11
49.5942
 21
-38.2461
  0
LINE
  8
0
 10
49.5942
 20
-38.2461
 11
49.5237
 21
-37.876
  0
LINE
  8
0
 10
49.5237
 20
-37.876
 11
49.5
 21
-37.5
  0
LINE
  8
0
 10
49.5
 20
-37.5
 11
49.5237
 21
-37.124
  0
LINE
  8
0
 10
49.5237
 20
-37.124
 11
49.5942
 21
-36.7539
  0
LINE
  8
0
 10
49.5942
 20
-36.7539
 11
49.7107
 21
-36.3956
  0
LINE
  8
0
 10
49.7107
 20
-36.3956
 11
49.8711
 21
-36.0547
  0
LINE
  8
0
 10
49.8711
 20
-36.0547
 11
50.0729
 21
-35.7366
  0
LINE
  8
0
 10
50.0729
 20
-35.7366
 11
50.3131
 21
-35.4464
  0
LINE
  8
0
 10
50.3131
 20
-35.4464
 11
50.5877
 21
-35.1885
  0
LINE
  8
0
 10
50.5877
 20
-35.1885
 11
50.8925
 21
-34.967
  0
LINE
  8
0
 10
50.8925
 20
-34.967
 11
51.2227
 21
-34.7855
  0
LINE
  8
0
 10
51.2227
 20
-34.7855
 11
51.5729
 21
-34.6468
  0
LINE
  8
0
 10
51.5729
 20
-34.6468
 11
51.9379
 21
-34.5531
  0
LINE
  8
0
 10
51.9379
 20
-34.5531
 11
52.3116
 21
-34.5059
  0
LINE
  8
0
 10
52.3116
 20
-34.5059
 11
52.6884
 21
-34.5059
  0
LINE
  8
0
 10
52.6884
 20
-34.5059
 11
53.0621
 21
-34.5531
  0
LINE
  8
0
 10
53.0621
 20
-34.5531
 11
53.427
 21
-34.6468
  0
LINE
  8
0
 10
53.427
 20
-34.6468
 11
53.7773
 21
-34.7855
  0
LINE
  8
0
 10
53.7773
 20
-34.7855
 11
54.1075
 21
-34.967
  0
LINE
  8
0
 10
54.1075
 20
-34.967
 11
54.4123
 21
-35.1885
  0
LINE
  8
0
 10
54.4123
 20
-35.1885
 11
54.6869
 21
-35.4464
  0
LINE
  8
0
 10
54.6869
 20
-35.4464
 11
54.927
 21
-35.7366
  0
LINE
  8
0
 10
54.927
 20
-35.7366
 11
55.1289
 21
-36.0547
  0
LINE
  8
0
 10
55.1289
 20
-36.0547
 11
55.2893
 21
-36.3956
  0
LINE
  8
0
 10
55.2893
 20
-36.3956
 11
55.4057
 21
-36.7539
  0
LINE
  8
0
 10
55.4057
 20
-36.7539
 11
55.4763
 21
-37.124
  0
LINE
  8
0
 10
55.4763
 20
-37.124
 11
55.5
 21
-37.5
  0
LINE
  8
0
 10
55.5
 20
-37.5
 11
55.4763
 21
-37.876
  0
LINE
  8
0
 10
55.4763
 20
-37.876
 11
55.4057
 21
-38.2461
  0
LINE
  8
0
 10
55.4057
 20
-38.2461
 11
55.2893
 21
-38.6044
  0
LINE
  8
0
 10
55.2893
 20
-38.6044
 11
55.1289
 21
-38.9453
  0
LINE
  8
0
 10
55.1289
 20
-38.9453
 11
54.927
 21
-39.2634
  0
LINE
  8
0
 10
54.927
 20
-39.2634
 11
54.6869
 21
-39.5536
  0
LINE
  8
0
 10
54.6869
 20
-39.5536
 11
54.4123
 21
-39.8115
  0
LINE
  8
0
 10
54.4123
 20
-39.8115
 11
54.1075
 21
-40.033
  0
LINE
  8
0
 10
54.1075
 20
-40.033
 11
53.7773
 21
-40.2145
  0
LINE
  8
0
 10
53.7773
 20
-40.2145
 11
53.427
 21
-40.3532
  0
LINE
  8
0
 10
53.427
 20
-40.3532
 11
53.0621
 21
-40.4469
  0
LINE
  8
0
 10
53.0621
 20
-40.4469
 11
52.6884
 21
-40.4941
  0
LINE
  8
0
 10
52.6884
 20
-40.4941
 11
52.3116
 21
-40.4941
  0
LINE
  8
0
 10
22.3116
 20
-40.4941
 11
21.9379
 21
-40.4469
  0
LINE
  8
0
 10
21.9379
 20
-40.4469
 11
21.5729
 21
-40.3532
  0
LINE
  8
0
 10
21.5729
 20
-40.3532
 11
21.2227
 21
-40.2145
  0
LINE
  8
0
 10
21.2227
 20
-40.2145
 11
20.8925
 21
-40.033
  0
LINE
  8
0
 10
20.8925
 20
-40.033
 11
20.5877
 21
-39.8115
  0
LINE
  8
0
 10
20.5877
 20
-39.8115
 11
20.3131
 21
-39.5536
  0
LINE
  8
0
 10
20.3131
 20
-39.5536
 11
20.0729
 21
-39.2634
  0
LINE
  8
0
 10
20.0729
 20
-39.2634
 11
19.8711
 21
-38.9453
  0
LINE
  8
0
 10
19.8711
 20
-38.9453
 11
19.7107
 21
-38.6044
  0
LINE
  8
0
 10
19.7107
 20
-38.6044
 11
19.5942
 21
-38.2461
  0
LINE
  8
0
 10
19.5942
 20
-38.2461
 11
19.5237
 21
-37.876
  0
LINE
  8
0
 10
19.5237
 20
-37.876
 11
19.5
 21
-37.5
  0
LINE
  8
0
 10
19.5
 20
-37.5
 11
19.5237
 21
-37.124
  0
LINE
  8
0
 10
19.5237
 20
-37.124
 11
19.5942
 21
-36.7539
  0
LINE
  8
0
 10
19.5942
 20
-36.7539
 11
19.7107
 21
-36.3956
  0
LINE
  8
0
 10
19.7107
 20
-36.3956
 11
19.8711
 21
-36.0547
  0
LINE
  8
0
 10
19.8711
 20
-36.0547
 11
20.0729
 21
-35.7366
  0
LINE
  8
0
 10
20.0729
 20
-35.7366
 11
20.3131
 21
-35.4464
  0
LINE
  8
0
 10
20.3131
 20
-35.4464
 11
20.5877
 21
-35.1885
  0
LINE
  8
0
 10
20.5877
 20
-35.1885
 11
20.8925
 21
-34.967
  0
LINE
  8
0
 10
20.8925
 20
-34.967
 11
21.2227
 21
-34.7855
  0
LINE
  8
0
 10
21.2227
 20
-34.7855
 11
21.5729
 21
-34.6468
  0
LINE
  8
0
 10
21.5729
 20
-34.6468
 11
21.9379
 21
-34.5531
  0
LINE
  8
0
 10
21.9379
 20
-34.5531
 11
22.3116
 21
-34.5059
  0
LINE
  8
0
 10
22.3116
 20
-34.5059
 11
22.6884
 21
-34.5059
  0
LINE
  8
0
 10
22.6884
 20
-34.5059
 11
23.0621
 21
-34.5531
  0
LINE
  8
0
 10
23.0621
 20
-34.5531
 11
23.427
 21
-34.6468
  0
LINE
  8
0
 10
23.427
 20
-34.6468
 11
23.7773
 21
-34.7855
  0
LINE
  8
0
 10
23.7773
 20
-34.7855
 11
24.1075
 21
-34.967
  0
LINE
  8
0
 10
24.1075
 20
-34.967
 11
24.4123
 21
-35.1885
  0
LINE
  8
0
 10
24.4123
 20
-35.1885
 11
24.6869
 21
-35.4464
  0
LINE
  8
0
 10
24.6869
 20
-35.4464
 11
24.927
 21
-35.7366
  0
LINE
  8
0
 10
24.927
 20
-35.7366
 11
25.1289
 21
-36.0547
  0
LINE
  8
0
 10
25.1289
 20
-36.0547
 11
25.2893
 21
-36.3956
  0
LINE
  8
0
 10
25.2893
 20
-36.3956
 11
25.4057
 21
-36.7539
  0
LINE
  8
0
 10
25.4057
 20
-36.7539
 11
25.4763
 21
-37.124
  0
LINE
  8
0
 10
25.4763
 20
-37.124
 11
25.5
 21
-37.5
  0
LINE
  8
0
 10
25.5
 20
-37.5
 11
25.4763
 21
-37.876
  0
LINE
  8
0
 10
25.4763
 20
-37.876
 11
25.4057
 21
-38.2461
  0
LINE
  8
0
 10
25.4057
 20
-38.2461
 11
25.2893
 21
-38.6044
  0
LINE
  8
0
 10
25.2893
 20
-38.6044
 11
25.1289
 21
-38.9453
  0
LINE
  8
0
 10
25.1289
 20
-38.9453
 11
24.927
 21
-39.2634
  0
LINE
  8
0
 10
24.927
 20
-39.2634
 11
24.6869
 21
-39.5536
  0
LINE
  8
0
 10
24.6869
 20
-39.5536
 11
24.4123
 21
-39.8115
  0
LINE
  8
0
 10
24.4123
 20
-39.8115
 11
24.1075
 21
-40.033
  0
LINE
  8
0
 10
24.1075
 20
-40.033
 11
23.7773
 21
-40.2145
  0
LINE
  8
0
 10
23.7773
 20
-40.2145
 11
23.427
 21
-40.3532
  0
LINE
  8
0
 10
23.427
 20
-40.3532
 11
23.0621
 21
-40.4469
  0
LINE
  8
0
 10
23.0621
 20
-40.4469
 11
22.6884
 21
-40.4941
  0
LINE
  8
0
 10
22.6884
 20
-40.4941
 11
22.3116
 21
-40.4941
  0
LINE
  8
0
 10
-82.6884
 20
-40.4941
 11
-83.0621
 21
-40.4469
  0
LINE
  8
0
 10
-83.0621
 20
-40.4469
 11
-83.427
 21
-40.3532
  0
LINE
  8
0
 10
-83.427
 20
-40.3532
 11
-83.7773
 21
-40.2145
  0
LINE
  8
0
 10
-83.7773
 20
-40.2145
 11
-84.1075
 21
-40.033
  0
LINE
  8
0
 10
-84.1075
 20
-40.033
 11
-84.4123
 21
-39.8115
  0
LINE
  8
0
 10
-84.4123
 20
-39.8115
 11
-84.6869
 21
-39.5536
  0
LINE
  8
0
 10
-84.6869
 20
-39.5536
 11
-84.927
 21
-39.2634
  0
LINE
  8
0
 10
-84.927
 20
-39.2634
 11
-85.1289
 21
-38.9453
  0
LINE
  8
0
 10
-85.1289
 20
-38.9453
 11
-85.2893
 21
-38.6044
  0
LINE
  8
0
 10
-85.2893
 20
-38.6044
 11
-85.4057
 21
-38.2461
  0
LINE
  8
0
 10
-85.4057
 20
-38.2461
 11
-85.4763
 21
-37.876
  0
LINE
  8
0
 10
-85.4763
 20
-37.876
 11
-85.5
 21
-37.5
  0
LINE
  8
0
 10
-85.5
 20
-37.5
 11
-85.4763
 21
-37.124
  0
LINE
  8
0
 10
-85.4763
 20
-37.124
 11
-85.4057
 21
-36.7539
  0
LINE
  8
0
 10
-85.4057
 20
-36.7539
 11
-85.2893
 21
-36.3956
  0
LINE
  8
0
 10
-85.2893
 20
-36.3956
 11
-85.1289
 21
-36.0547
  0
LINE
  8
0
 10
-85.1289
 20
-36.0547
 11
-84.927
 21
-35.7366
  0
LINE
  8
0
 10
-84.927
 20
-35.7366
 11
-84.6869
 21
-35.4464
  0
LINE
  8
0
 10
-84.6869
 20
-35.4464
 11
-84.4123
 21
-35.1885
  0
LINE
  8
0
 10
-84.4123
 20
-35.1885
 11
-84.1075
 21
-34.967
  0
LINE
  8
0
 10
-84.1075
 20
-34.967
 11
-83.7773
 21
-34.7855
  0
LINE
  8
0
 10
-83.7773
 20
-34.7855
 11
-83.427
 21
-34.6468
  0
LINE
  8
0
 10
-83.427
 20
-34.6468
 11
-83.0621
 21
-34.5531
  0
LINE
  8
0
 10
-83.0621
 20
-34.5531
 11
-82.6884
 21
-34.5059
  0
LINE
  8
0
 10
-82.6884
 20
-34.5059
 11
-82.3116
 21
-34.5059
  0
LINE
  8
0
 10
-82.3116
 20
-34.5059
 11
-81.9379
 21
-34.5531
  0
LINE
  8
0
 10
-81.9379
 20
-34.5531
 11
-81.573
 21
-34.6468
  0
LINE
  8
0
 10
-81.573
 20
-34.6468
 11
-81.2227
 21
-34.7855
  0
LINE
  8
0
 10
-81.2227
 20
-34.7855
 11
-80.8925
 21
-34.967
  0
LINE
  8
0
 10
-80.8925
 20
-34.967
 11
-80.5877
 21
-35.1885
  0
LINE
  8
0
 10
-80.5877
 20
-35.1885
 11
-80.3131
 21
-35.4464
  0
LINE
  8
0
 10
-80.3131
 20
-35.4464
 11
-80.073
 21
-35.7366
  0
LINE
  8
0
 10
-80.073
 20
-35.7366
 11
-79.8711
 21
-36.0547
  0
LINE
  8
0
 10
-79.8711
 20
-36.0547
 11
-79.7107
 21
-36.3956
  0
LINE
  8
0
 10
-79.7107
 20
-36.3956
 11
-79.5943
 21
-36.7539
  0
LINE
  8
0
 10
-79.5943
 20
-36.7539
 11
-79.5237
 21
-37.124
  0
LINE
  8
0
 10
-79.5237
 20
-37.124
 11
-79.5
 21
-37.5
  0
LINE
  8
0
 10
-79.5
 20
-37.5
 11
-79.5237
 21
-37.876
  0
LINE
  8
0
 10
-79.5237
 20
-37.876
 11
-79.5943
 21
-38.2461
  0
LINE
  8
0
 10
-79.5943
 20
-38.2461
 11
-79.7107
 21
-38.6044
  0
LINE
  8
0
 10
-79.7107
 20
-38.6044
 11
-79.8711
 21
-38.9453
  0
LINE
  8
0
 10
-79.8711
 20
-38.9453
 11
-80.073
 21
-39.2634
  0
LINE
  8
0
 10
-80.073
 20
-39.2634
 11
-80.3131
 21
-39.5536
  0
LINE
  8
0
 10
-80.3131
 20
-39.5536
 11
-80.5877
 21
-39.8115
  0
LINE
  8
0
 10
-80.5877
 20
-39.8115
 11
-80.8925
 21
-40.033
  0
LINE
  8
0
 10
-80.8925
 20
-40.033
 11
-81.2227
 21
-40.2145
  0
LINE
  8
0
 10
-81.2227
 20
-40.2145
 11
-81.573
 21
-40.3532
  0
LINE
  8
0
 10
-81.573
 20
-40.3532
 11
-81.9379
 21
-40.4469
  0
LINE
  8
0
 10
-81.9379
 20
-40.4469
 11
-82.3116
 21
-40.4941
  0
LINE
  8
0
 10
-82.3116
 20
-40.4941
 11
-82.6884
 21
-40.4941
  0
LINE
  8
0
 10
-67.6884
 20
-40.4941
 11
-68.0621
 21
-40.4469
  0
LINE
  8
0
 10
-68.0621
 20
-40.4469
 11
-68.427
 21
-40.3532
  0
LINE
  8
0
 10
-68.427
 20
-40.3532
 11
-68.7773
 21
-40.2145
  0
LINE
  8
0
 10
-68.7773
 20
-40.2145
 11
-69.1075
 21
-40.033
  0
LINE
  8
0
 10
-69.1075
 20
-40.033
 11
-69.4123
 21
-39.8115
  0
LINE
  8
0
 10
-69.4123
 20
-39.8115
 11
-69.6869
 21
-39.5536
  0
LINE
  8
0
 10
-69.6869
 20
-39.5536
 11
-69.927
 21
-39.2634
  0
LINE
  8
0
 10
-69.927
 20
-39.2634
 11
-70.1289
 21
-38.9453
  0
LINE
  8
0
 10
-70.1289
 20
-38.9453
 11
-70.2893
 21
-38.6044
  0
LINE
  8
0
 10
-70.2893
 20
-38.6044
 11
-70.4057
 21
-38.2461
  0
LINE
  8
0
 10
-70.4057
 20
-38.2461
 11
-70.4763
 21
-37.876
  0
LINE
  8
0
 10
-70.4763
 20
-37.876
 11
-70.5
 21
-37.5
  0
LINE
  8
0
 10
-70.5
 20
-37.5
 11
-70.4763
 21
-37.124
  0
LINE
  8
0
 10
-70.4763
 20
-37.124
 11
-70.4057
 21
-36.7539
  0
LINE
  8
0
 10
-70.4057
 20
-36.7539
 11
-70.2893
 21
-36.3956
  0
LINE
  8
0
 10
-70.2893
 20
-36.3956
 11
-70.1289
 21
-36.0547
  0
LINE
  8
0
 10
-70.1289
 20
-36.0547
 11
-69.927
 21
-35.7366
  0
LINE
  8
0
 10
-69.927
 20
-35.7366
 11
-69.6869
 21
-35.4464
  0
LINE
  8
0
 10
-69.6869
 20
-35.4464
 11
-69.4123
 21
-35.1885
  0
LINE
  8
0
 10
-69.4123
 20
-35.1885
 11
-69.1075
 21
-34.967
  0
LINE
  8
0
 10
-69.1075
 20
-34.967
 11
-68.7773
 21
-34.7855
  0
LINE
  8
0
 10
-68.7773
 20
-34.7855
 11
-68.427
 21
-34.6468
  0
LINE
  8
0
 10
-68.427
 20
-34.6468
 11
-68.0621
 21
-34.5531
  0
LINE
  8
0
 10
-68.0621
 20
-34.5531
 11
-67.6884
 21
-34.5059
  0
LINE
  8
0
 10
-67.6884
 20
-34.5059
 11
-67.3116
 21
-34.5059
  0
LINE
  8
0
 10
-67.3116
 20
-34.5059
 11
-66.9379
 21
-34.5531
  0
LINE
  8
0
 10
-66.9379
 20
-34.5531
 11
-66.573
 21
-34.6468
  0
LINE
  8
0
 10
-66.573
 20
-34.6468
 11
-66.2227
 21
-34.7855
  0
LINE
  8
0
 10
-66.2227
 20
-34.7855
 11
-65.8925
 21
-34.967
  0
LINE
  8
0
 10
-65.8925
 20
-34.967
 11
-65.5877
 21
-35.1885
  0
LINE
  8
0
 10
-65.5877
 20
-35.1885
 11
-65.3131
 21
-35.4464
  0
LINE
  8
0
 10
-65.3131
 20
-35.4464
 11
-65.073
 21
-35.7366
  0
LINE
  8
0
 10
-65.073
 20
-35.7366
 11
-64.8711
 21
-36.0547
  0
LINE
  8
0
 10
-64.8711
 20
-36.0547
 11
-64.7107
 21
-36.3956
  0
LINE
  8
0
 10
-64.7107
 20
-36.3956
 11
-64.5943
 21
-36.7539
  0
LINE
  8
0
 10
-64.5943
 20
-36.7539
 11
-64.5237
 21
-37.124
  0
LINE
  8
0
 10
-64.5237
 20
-37.124
 11
-64.5
 21
-37.5
  0
LINE
  8
0
 10
-64.5
 20
-37.5
 11
-64.5237
 21
-37.876
  0
LINE
  8
0
 10
-64.5237
 20
-37.876
 11
-64.5943
 21
-38.2461
  0
LINE
  8
0
 10
-64.5943
 20
-38.2461
 11
-64.7107
 21
-38.6044
  0
LINE
  8
0
 10
-64.7107
 20
-38.6044
 11
-64.8711
 21
-38.9453
  0
LINE
  8
0
 10
-64.8711
 20
-38.9453
 11
-65.073
 21
-39.2634
  0
LINE
  8
0
 10
-65.073
 20
-39.2634
 11
-65.3131
 21
-39.5536
  0
LINE
  8
0
 10
-65.3131
 20
-39.5536
 11
-65.5877
 21
-39.8115
  0
LINE
  8
0
 10
-65.5877
 20
-39.8115
 11
-65.8925
 21
-40.033
  0
LINE
  8
0
 10
-65.8925
 20
-40.033
 11
-66.2227
 21
-40.2145
  0
LINE
  8
0
 10
-66.2227
 20
-40.2145
 11
-66.573
 21
-40.3532
  0
LINE
  8
0
 10
-66.573
 20
-40.3532
 11
-66.9379
 21
-40.4469
  0
LINE
  8
0
 10
-66.9379
 20
-40.4469
 11
-67.3116
 21
-40.4941
  0
LINE
  8
0
 10
-67.3116
 20
-40.4941
 11
-67.6884
 21
-40.4941
  0
LINE
  8
0
 10
82.3116
 20
-40.4941
 11
81.9379
 21
-40.4469
  0
LINE
  8
0
 10
81.9379
 20
-40.4469
 11
81.573
 21
-40.3532
  0
LINE
  8
0
 10
81.573
 20
-40.3532
 11
81.2227
 21
-40.2145
  0
LINE
  8
0
 10
81.2227
 20
-40.2145
 11
80.8925
 21
-40.033
  0
LINE
  8
0
 10
80.8925
 20
-40.033
 11
80.5877
 21
-39.8115
  0
LINE
  8
0
 10
80.5877
 20
-39.8115
 11
80.3131
 21
-39.5536
  0
LINE
  8
0
 10
80.3131
 20
-39.5536
 11
80.073
 21
-39.2634
  0
LINE
  8
0
 10
80.073
 20
-39.2634
 11
79.8711
 21
-38.9453
  0
LINE
  8
0
 10
79.8711
 20
-38.9453
 11
79.7107
 21
-38.6044
  0
LINE
  8
0
 10
79.7107
 20
-38.6044
 11
79.5943
 21
-38.2461
  0
LINE
  8
0
 10
79.5943
 20
-38.2461
 11
79.5237
 21
-37.876
  0
LINE
  8
0
 10
79.5237
 20
-37.876
 11
79.5
 21
-37.5
  0
LINE
  8
0
 10
79.5
 20
-37.5
 11
79.5237
 21
-37.124
  0
LINE
  8
0
 10
79.5237
 20
-37.124
 11
79.5943
 21
-36.7539
  0
LINE
  8
0
 10
79.5943
 20
-36.7539
 11
79.7107
 21
-36.3956
  0
LINE
  8
0
 10
79.7107
 20
-36.3956
 11
79.8711
 21
-36.0547
  0
LINE
  8
0
 10
79.8711
 20
-36.0547
 11
80.073
 21
-35.7366
  0
LINE
  8
0
 10
80.073
 20
-35.7366
 11
80.3131
 21
-35.4464
  0
LINE
  8
0
 10
80.3131
 20
-35.4464
 11
80.5877
 21
-35.1885
  0
LINE
  8
0
 10
80.5877
 20
-35.1885
 11
80.8925
 21
-34.967
  0
LINE
  8
0
 10
80.8925
 20
-34.967
 11
81.2227
 21
-34.7855
  0
LINE
  8
0
 10
81.2227
 20
-34.7855
 11
81.573
 21
-34.6468
  0
LINE
  8
0
 10
81.573
 20
-34.6468
 11
81.9379
 21
-34.5531
  0
LINE
  8
0
 10
81.9379
 20
-34.5531
 11
82.3116
 21
-34.5059
  0
LINE
  8
0
 10
82.3116
 20
-34.5059
 11
82.6884
 21
-34.5059
  0
LINE
  8
0
 10
82.6884
 20
-34.5059
 11
83.0621
 21
-34.5531
  0
LINE
  8
0
 10
83.0621
 20
-34.5531
 11
83.427
 21
-34.6468
  0
LINE
  8
0
 10
83.427
 20
-34.6468
 11
83.7773
 21
-34.7855
  0
LINE
  8
0
 10
83.7773
 20
-34.7855
 11
84.1075
 21
-34.967
  0
LINE
  8
0
 10
84.1075
 20
-34.967
 11
84.4123
 21
-35.1885
  0
LINE
  8
0
 10
84.4123
 20
-35.1885
 11
84.6869
 21
-35.4464
  0
LINE
  8
0
 10
84.6869
 20
-35.4464
 11
84.927
 21
-35.7366
  0
LINE
  8
0
 10
84.927
 20
-35.7366
 11
85.1289
 21
-36.0547
  0
LINE
  8
0
 10
85.1289
 20
-36.0547
 11
85.2893
 21
-36.3956
  0
LINE
  8
0
 10
85.2893
 20
-36.3956
 11
85.4057
 21
-36.7539
  0
LINE
  8
0
 10
85.4057
 20
-36.7539
 11
85.4763
 21
-37.124
  0
LINE
  8
0
 10
85.4763
 20
-37.124
 11
85.5
 21
-37.5
  0
LINE
  8
0
 10
85.5
 20
-37.5
 11
85.4763
 21
-37.876
  0
LINE
  8
0
 10
85.4763
 20
-37.876
 11
85.4057
 21
-38.2461
  0
LINE
  8
0
 10
85.4057
 20
-38.2461
 11
85.2893
 21
-38.6044
  0
LINE
  8
0
 10
85.2893
 20
-38.6044
 11
85.1289
 21
-38.9453
  0
LINE
  8
0
 10
85.1289
 20
-38.9453
 11
84.927
 21
-39.2634
  0
LINE
  8
0
 10
84.927
 20
-39.2634
 11
84.6869
 21
-39.5536
  0
LINE
  8
0
 10
84.6869
 20
-39.5536
 11
84.4123
 21
-39.8115
  0
LINE
  8
0
 10
84.4123
 20
-39.8115
 11
84.1075
 21
-40.033
  0
LINE
  8
0
 10
84.1075
 20
-40.033
 11
83.7773
 21
-40.2145
  0
LINE
  8
0
 10
83.7773
 20
-40.2145
 11
83.427
 21
-40.3532
  0
LINE
  8
0
 10
83.427
 20
-40.3532
 11
83.0621
 21
-40.4469
  0
LINE
  8
0
 10
83.0621
 20
-40.4469
 11
82.6884
 21
-40.4941
  0
LINE
  8
0
 10
82.6884
 20
-40.4941
 11
82.3116
 21
-40.4941
  0
LINE
  8
0
 10
-52.6884
 20
-40.4941
 11
-53.0621
 21
-40.4469
  0
LINE
  8
0
 10
-53.0621
 20
-40.4469
 11
-53.427
 21
-40.3532
  0
LINE
  8
0
 10
-53.427
 20
-40.3532
 11
-53.7773
 21
-40.2145
  0
LINE
  8
0
 10
-53.7773
 20
-40.2145
 11
-54.1075
 21
-40.033
  0
LINE
  8
0
 10
-54.1075
 20
-40.033
 11
-54.4123
 21
-39.8115
  0
LINE
  8
0
 10
-54.4123
 20
-39.8115
 11
-54.6869
 21
-39.5536
  0
LINE
  8
0
 10
-54.6869
 20
-39.5536
 11
-54.927
 21
-39.2634
  0
LINE
  8
0
 10
-54.927
 20
-39.2634
 11
-55.1289
 21
-38.9453
  0
LINE
  8
0
 10
-55.1289
 20
-38.9453
 11
-55.2893
 21
-38.6044
  0
LINE
  8
0
 10
-55.2893
 20
-38.6044
 11
-55.4057
 21
-38.2461
  0
LINE
  8
0
 10
-55.4057
 20
-38.2461
 11
-55.4763
 21
-37.876
  0
LINE
  8
0
 10
-55.4763
 20
-37.876
 11
-55.5
 21
-37.5
  0
LINE
  8
0
 10
-55.5
 20
-37.5
 11
-55.4763
 21
-37.124
  0
LINE
  8
0
 10
-55.4763
 20
-37.124
 11
-55.4057
 21
-36.7539
  0
LINE
  8
0
 10
-55.4057
 20
-36.7539
 11
-55.2893
 21
-36.3956
  0
LINE
  8
0
 10
-55.2893
 20
-36.3956
 11
-55.1289
 21
-36.0547
  0
LINE
  8
0
 10
-55.1289
 20
-36.0547
 11
-54.927
 21
-35.7366
  0
LINE
  8
0
 10
-54.927
 20
-35.7366
 11
-54.6869
 21
-35.4464
  0
LINE
  8
0
 10
-54.6869
 20
-35.4464
 11
-54.4123
 21
-35.1885
  0
LINE
  8
0
 10
-54.4123
 20
-35.1885
 11
-54.1075
 21
-34.967
  0
LINE
  8
0
 10
-54.1075
 20
-34.967
 11
-53.7773
 21
-34.7855
  0
LINE
  8
0
 10
-53.7773
 20
-34.7855
 11
-53.427
 21
-34.6468
  0
LINE
  8
0
 10
-53.427
 20
-34.6468
 11
-53.0621
 21
-34.5531
  0
LINE
  8
0
 10
-53.0621
 20
-34.5531
 11
-52.6884
 21
-34.5059
  0
LINE
  8
0
 10
-52.6884
 20
-34.5059
 11
-52.3116
 21
-34.5059
  0
LINE
  8
0
 10
-52.3116
 20
-34.5059
 11
-51.9379
 21
-34.5531
  0
LINE
  8
0
 10
-51.9379
 20
-34.5531
 11
-51.5729
 21
-34.6468
  0
LINE
  8
0
 10
-51.5729
 20
-34.6468
 11
-51.2227
 21
-34.7855
  0
LINE
  8
0
 10
-51.2227
 20
-34.7855
 11
-50.8925
 21
-34.967
  0
LINE
  8
0
 10
-50.8925
 20
-34.967
 11
-50.5877
 21
-35.1885
  0
LINE
  8
0
 10
-50.5877
 20
-35.1885
 11
-50.3131
 21
-35.4464
  0
LINE
  8
0
 10
-50.3131
 20
-35.4464
 11
-50.0729
 21
-35.7366
  0
LINE
  8
0
 10
-50.0729
 20
-35.7366
 11
-49.8711
 21
-36.0547
  0
LINE
  8
0
 10
-49.8711
 20
-36.0547
 11
-49.7107
 21
-36.3956
  0
LINE
  8
0
 10
-49.7107
 20
-36.3956
 11
-49.5942
 21
-36.7539
  0
LINE
  8
0
 10
-49.5942
 20
-36.7539
 11
-49.5237
 21
-37.124
  0
LINE
  8
0
 10
-49.5237
 20
-37.124
 11
-49.5
 21
-37.5
  0
LINE
  8
0
 10
-49.5
 20
-37.5
 11
-49.5237
 21
-37.876
  0
LINE
  8
0
 10
-49.5237
 20
-37.876
 11
-49.5942
 21
-38.2461
  0
LINE
  8
0
 10
-49.5942
 20
-38.2461
 11
-49.7107
 21
-38.6044
  0
LINE
  8
0
 10
-49.7107
 20
-38.6044
 11
-49.8711
 21
-38.9453
  0
LINE
  8
0
 10
-49.8711
 20
-38.9453
 11
-50.0729
 21
-39.2634
  0
LINE
  8
0
 10
-50.0729
 20
-39.2634
 11
-50.3131
 21
-39.5536
  0
LINE
  8
0
 10
-50.3131
 20
-39.5536
 11
-50.5877
 21
-39.8115
  0
LINE
  8
0
 10
-50.5877
 20
-39.8115
 11
-50.8925
 21
-40.033
  0
LINE
  8
0
 10
-50.8925
 20
-40.033
 11
-51.2227
 21
-40.2145
  0
LINE
  8
0
 10
-51.2227
 20
-40.2145
 11
-51.5729
 21
-40.3532
  0
LINE
  8
0
 10
-51.5729
 20
-40.3532
 11
-51.9379
 21
-40.4469
  0
LINE
  8
0
 10
-51.9379
 20
-40.4469
 11
-52.3116
 21
-40.4941
  0
LINE
  8
0
 10
-52.3116
 20
-40.4941
 11
-52.6884
 21
-40.4941
  0
LINE
  8
0
 10
37.3116
 20
-40.4941
 11
36.9379
 21
-40.4469
  0
LINE
  8
0
 10
36.9379
 20
-40.4469
 11
36.5729
 21
-40.3532
  0
LINE
  8
0
 10
36.5729
 20
-40.3532
 11
36.2227
 21
-40.2145
  0
LINE
  8
0
 10
36.2227
 20
-40.2145
 11
35.8925
 21
-40.033
  0
LINE
  8
0
 10
35.8925
 20
-40.033
 11
35.5877
 21
-39.8115
  0
LINE
  8
0
 10
35.5877
 20
-39.8115
 11
35.3131
 21
-39.5536
  0
LINE
  8
0
 10
35.3131
 20
-39.5536
 11
35.0729
 21
-39.2634
  0
LINE
  8
0
 10
35.0729
 20
-39.2634
 11
34.8711
 21
-38.9453
  0
LINE
  8
0
 10
34.8711
 20
-38.9453
 11
34.7107
 21
-38.6044
  0
LINE
  8
0
 10
34.7107
 20
-38.6044
 11
34.5942
 21
-38.2461
  0
LINE
  8
0
 10
34.5942
 20
-38.2461
 11
34.5237
 21
-37.876
  0
LINE
  8
0
 10
34.5237
 20
-37.876
 11
34.5
 21
-37.5
  0
LINE
  8
0
 10
34.5
 20
-37.5
 11
34.5237
 21
-37.124
  0
LINE
  8
0
 10
34.5237
 20
-37.124
 11
34.5942
 21
-36.7539
  0
LINE
  8
0
 10
34.5942
 20
-36.7539
 11
34.7107
 21
-36.3956
  0
LINE
  8
0
 10
34.7107
 20
-36.3956
 11
34.8711
 21
-36.0547
  0
LINE
  8
0
 10
34.8711
 20
-36.0547
 11
35.0729
 21
-35.7366
  0
LINE
  8
0
 10
35.0729
 20
-35.7366
 11
35.3131
 21
-35.4464
  0
LINE
  8
0
 10
35.3131
 20
-35.4464
 11
35.5877
 21
-35.1885
  0
LINE
  8
0
 10
35.5877
 20
-35.1885
 11
35.8925
 21
-34.967
  0
LINE
  8
0
 10
35.8925
 20
-34.967
 11
36.2227
 21
-34.7855
  0
LINE
  8
0
 10
36.2227
 20
-34.7855
 11
36.5729
 21
-34.6468
  0
LINE
  8
0
 10
36.5729
 20
-34.6468
 11
36.9379
 21
-34.5531
  0
LINE
  8
0
 10
36.9379
 20
-34.5531
 11
37.3116
 21
-34.5059
  0
LINE
  8
0
 10
37.3116
 20
-34.5059
 11
37.6884
 21
-34.5059
  0
LINE
  8
0
 10
37.6884
 20
-34.5059
 11
38.0621
 21
-34.5531
  0
LINE
  8
0
 10
38.0621
 20
-34.5531
 11
38.427
 21
-34.6468
  0
LINE
  8
0
 10
38.427
 20
-34.6468
 11
38.7773
 21
-34.7855
  0
LINE
  8
0
 10
38.7773
 20
-34.7855
 11
39.1075
 21
-34.967
  0
LINE
  8
0
 10
39.1075
 20
-34.967
 11
39.4123
 21
-35.1885
  0
LINE
  8
0
 10
39.4123
 20
-35.1885
 11
39.6869
 21
-35.4464
  0
LINE
  8
0
 10
39.6869
 20
-35.4464
 11
39.927
 21
-35.7366
  0
LINE
  8
0
 10
39.927
 20
-35.7366
 11
40.1289
 21
-36.0547
  0
LINE
  8
0
 10
40.1289
 20
-36.0547
 11
40.2893
 21
-36.3956
  0
LINE
  8
0
 10
40.2893
 20
-36.3956
 11
40.4057
 21
-36.7539
  0
LINE
  8
0
 10
40.4057
 20
-36.7539
 11
40.4763
 21
-37.124
  0
LINE
  8
0
 10
40.4763
 20
-37.124
 11
40.5
 21
-37.5
  0
LINE
  8
0
 10
40.5
 20
-37.5
 11
40.4763
 21
-37.876
  0
LINE
  8
0
 10
40.4763
 20
-37.876
 11
40.4057
 21
-38.2461
  0
LINE
  8
0
 10
40.4057
 20
-38.2461
 11
40.2893
 21
-38.6044
  0
LINE
  8
0
 10
40.2893
 20
-38.6044
 11
40.1289
 21
-38.9453
  0
LINE
  8
0
 10
40.1289
 20
-38.9453
 11
39.927
 21
-39.2634
  0
LINE
  8
0
 10
39.927
 20
-39.2634
 11
39.6869
 21
-39.5536
  0
LINE
  8
0
 10
39.6869
 20
-39.5536
 11
39.4123
 21
-39.8115
  0
LINE
  8
0
 10
39.4123
 20
-39.8115
 11
39.1075
 21
-40.033
  0
LINE
  8
0
 10
39.1075
 20
-40.033
 11
38.7773
 21
-40.2145
  0
LINE
  8
0
 10
38.7773
 20
-40.2145
 11
38.427
 21
-40.3532
  0
LINE
  8
0
 10
38.427
 20
-40.3532
 11
38.0621
 21
-40.4469
  0
LINE
  8
0
 10
38.0621
 20
-40.4469
 11
37.6884
 21
-40.4941
  0
LINE
  8
0
 10
37.6884
 20
-40.4941
 11
37.3116
 21
-40.4941
  0
LINE
  8
0
 10
-37.6884
 20
-40.4941
 11
-38.0621
 21
-40.4469
  0
LINE
  8
0
 10
-38.0621
 20
-40.4469
 11
-38.427
 21
-40.3532
  0
LINE
  8
0
 10
-38.427
 20
-40.3532
 11
-38.7773
 21
-40.2145
  0
LINE
  8
0
 10
-38.7773
 20
-40.2145
 11
-39.1075
 21
-40.033
  0
LINE
  8
0
 10
-39.1075
 20
-40.033
 11
-39.4123
 21
-39.8115
  0
LINE
  8
0
 10
-39.4123
 20
-39.8115
 11
-39.6869
 21
-39.5536
  0
LINE
  8
0
 10
-39.6869
 20
-39.5536
 11
-39.927
 21
-39.2634
  0
LINE
  8
0
 10
-39.927
 20
-39.2634
 11
-40.1289
 21
-38.9453
  0
LINE
  8
0
 10
-40.1289
 20
-38.9453
 11
-40.2893
 21
-38.6044
  0
LINE
  8
0
 10
-40.2893
 20
-38.6044
 11
-40.4057
 21
-38.2461
  0
LINE
  8
0
 10
-40.4057
 20
-38.2461
 11
-40.4763
 21
-37.876
  0
LINE
  8
0
 10
-40.4763
 20
-37.876
 11
-40.5
 21
-37.5
  0
LINE
  8
0
 10
-40.5
 20
-37.5
 11
-40.4763
 21
-37.124
  0
LINE
  8
0
 10
-40.4763
 20
-37.124
 11
-40.4057
 21
-36.7539
  0
LINE
  8
0
 10
-40.4057
 20
-36.7539
 11
-40.2893
 21
-36.3956
  0
LINE
  8
0
 10
-40.2893
 20
-36.3956
 11
-40.1289
 21
-36.0547
  0
LINE
  8
0
 10
-40.1289
 20
-36.0547
 11
-39.927
 21
-35.7366
  0
LINE
  8
0
 10
-39.927
 20
-35.7366
 11
-39.6869
 21
-35.4464
  0
LINE
  8
0
 10
-39.6869
 20
-35.4464
 11
-39.4123
 21
-35.1885
  0
LINE
  8
0
 10
-39.4123
 20
-35.1885
 11
-39.1075
 21
-34.967
  0
LINE
  8
0
 10
-39.1075
 20
-34.967
 11
-38.7773
 21
-34.7855
  0
LINE
  8
0
 10
-38.7773
 20
-34.7855
 11
-38.427
 21
-34.6468
  0
LINE
  8
0
 10
-38.427
 20
-34.6468
 11
-38.0621
 21
-34.5531
  0
LINE
  8
0
 10
-38.0621
 20
-34.5531
 11
-37.6884
 21
-34.5059
  0
LINE
  8
0
 10
-37.6884
 20
-34.5059
 11
-37.3116
 21
-34.5059
  0
LINE
  8
0
 10
-37.3116
 20
-34.5059
 11
-36.9379
 21
-34.5531
  0
LINE
  8
0
 10
-36.9379
 20
-34.5531
 11
-36.5729
 21
-34.6468
  0
LINE
  8
0
 10
-36.5729
 20
-34.6468
 11
-36.2227
 21
-34.7855
  0
LINE
  8
0
 10
-36.2227
 20
-34.7855
 11
-35.8925
 21
-34.967
  0
LINE
  8
0
 10
-35.8925
 20
-34.967
 11
-35.5877
 21
-35.1885
  0
LINE
  8
0
 10
-35.5877
 20
-35.1885
 11
-35.3131
 21
-35.4464
  0
LINE
  8
0
 10
-35.3131
 20
-35.4464
 11
-35.0729
 21
-35.7366
  0
LINE
  8
0
 10
-35.0729
 20
-35.7366
 11
-34.8711
 21
-36.0547
  0
LINE
  8
0
 10
-34.8711
 20
-36.0547
 11
-34.7107
 21
-36.3956
  0
LINE
  8
0
 10
-34.7107
 20
-36.3956
 11
-34.5942
 21
-36.7539
  0
LINE
  8
0
 10
-34.5942
 20
-36.7539
 11
-34.5237
 21
-37.124
  0
LINE
  8
0
 10
-34.5237
 20
-37.124
 11
-34.5
 21
-37.5
  0
LINE
  8
0
 10
-34.5
 20
-37.5
 11
-34.5237
 21
-37.876
  0
LINE
  8
0
 10
-34.5237
 20
-37.876
 11
-34.5942
 21
-38.2461
  0
LINE
  8
0
 10
-34.5942
 20
-38.2461
 11
-34.7107
 21
-38.6044
  0
LINE
  8
0
 10
-34.7107
 20
-38.6044
 11
-34.8711
 21
-38.9453
  0
LINE
  8
0
 10
-34.8711
 20
-38.9453
 11
-35.0729
 21
-39.2634
  0
LINE
  8
0
 10
-35.0729
 20
-39.2634
 11
-35.3131
 21
-39.5536
  0
LINE
  8
0
 10
-35.3131
 20
-39.5536
 11
-35.5877
 21
-39.8115
  0
LINE
  8
0
 10
-35.5877
 20
-39.8115
 11
-35.8925
 21
-40.033
  0
LINE
  8
0
 10
-35.8925
 20
-40.033
 11
-36.2227
 21
-40.2145
  0
LINE
  8
0
 10
-36.2227
 20
-40.2145
 11
-36.5729
 21
-40.3532
  0
LINE
  8
0
 10
-36.5729
 20
-40.3532
 11
-36.9379
 21
-40.4469
  0
LINE
  8
0
 10
-36.9379
 20
-40.4469
 11
-37.3116
 21
-40.4941
  0
LINE
  8
0
 10
-37.3116
 20
-40.4941
 11
-37.6884
 21
-40.4941
  0
LINE
  8
0
 10
44.9058
 20
-38.997
 11
44.7189
 21
-38.9734
  0
LINE
  8
0
 10
44.7189
 20
-38.9734
 11
44.5365
 21
-38.9266
  0
LINE
  8
0
 10
44.5365
 20
-38.9266
 11
44.3613
 21
-38.8572
  0
LINE
  8
0
 10
44.3613
 20
-38.8572
 11
44.1963
 21
-38.7665
  0
LINE
  8
0
 10
44.1963
 20
-38.7665
 11
44.0439
 21
-38.6558
  0
LINE
  8
0
 10
44.0439
 20
-38.6558
 11
43.9065
 21
-38.5268
  0
LINE
  8
0
 10
43.9065
 20
-38.5268
 11
43.7865
 21
-38.3817
  0
LINE
  8
0
 10
43.7865
 20
-38.3817
 11
43.6855
 21
-38.2226
  0
LINE
  8
0
 10
43.6855
 20
-38.2226
 11
43.6053
 21
-38.0522
  0
LINE
  8
0
 10
43.6053
 20
-38.0522
 11
43.5471
 21
-37.873
  0
LINE
  8
0
 10
43.5471
 20
-37.873
 11
43.5118
 21
-37.688
  0
LINE
  8
0
 10
43.5118
 20
-37.688
 11
43.5
 21
-37.5
  0
LINE
  8
0
 10
43.5
 20
-37.5
 11
43.5118
 21
-37.312
  0
LINE
  8
0
 10
43.5118
 20
-37.312
 11
43.5471
 21
-37.127
  0
LINE
  8
0
 10
43.5471
 20
-37.127
 11
43.6053
 21
-36.9478
  0
LINE
  8
0
 10
43.6053
 20
-36.9478
 11
43.6855
 21
-36.7774
  0
LINE
  8
0
 10
43.6855
 20
-36.7774
 11
43.7865
 21
-36.6183
  0
LINE
  8
0
 10
43.7865
 20
-36.6183
 11
43.9065
 21
-36.4732
  0
LINE
  8
0
 10
43.9065
 20
-36.4732
 11
44.0439
 21
-36.3442
  0
LINE
  8
0
 10
44.0439
 20
-36.3442
 11
44.1963
 21
-36.2335
  0
LINE
  8
0
 10
44.1963
 20
-36.2335
 11
44.3613
 21
-36.1428
  0
LINE
  8
0
 10
44.3613
 20
-36.1428
 11
44.5365
 21
-36.0734
  0
LINE
  8
0
 10
44.5365
 20
-36.0734
 11
44.7189
 21
-36.0266
  0
LINE
  8
0
 10
44.7189
 20
-36.0266
 11
44.9058
 21
-36.003
  0
LINE
  8
0
 10
44.9058
 20
-36.003
 11
45.0942
 21
-36.003
  0
LINE
  8
0
 10
45.0942
 20
-36.003
 11
45.2811
 21
-36.0266
  0
LINE
  8
0
 10
45.2811
 20
-36.0266
 11
45.4635
 21
-36.0734
  0
LINE
  8
0
 10
45.4635
 20
-36.0734
 11
45.6387
 21
-36.1428
  0
LINE
  8
0
 10
45.6387
 20
-36.1428
 11
45.8037
 21
-36.2335
  0
LINE
  8
0
 10
45.8037
 20
-36.2335
 11
45.9561
 21
-36.3442
  0
LINE
  8
0
 10
45.9561
 20
-36.3442
 11
46.0934
 21
-36.4732
  0
LINE
  8
0
 10
46.0934
 20
-36.4732
 11
46.2135
 21
-36.6183
  0
LINE
  8
0
 10
46.2135
 20
-36.6183
 11
46.3145
 21
-36.7774
  0
LINE
  8
0
 10
46.3145
 20
-36.7774
 11
46.3947
 21
-36.9478
  0
LINE
  8
0
 10
46.3947
 20
-36.9478
 11
46.4529
 21
-37.127
  0
LINE
  8
0
 10
46.4529
 20
-37.127
 11
46.4882
 21
-37.312
  0
LINE
  8
0
 10
46.4882
 20
-37.312
 11
46.5
 21
-37.5
  0
LINE
  8
0
 10
46.5
 20
-37.5
 11
46.4882
 21
-37.688
  0
LINE
  8
0
 10
46.4882
 20
-37.688
 11
46.4529
 21
-37.873
  0
LINE
  8
0
 10
46.4529
 20
-37.873
 11
46.3947
 21
-38.0522
  0
LINE
  8
0
 10
46.3947
 20
-38.0522
 11
46.3145
 21
-38.2226
  0
LINE
  8
0
 10
46.3145
 20
-38.2226
 11
46.2135
 21
-38.3817
  0
LINE
  8
0
 10
46.2135
 20
-38.3817
 11
46.0934
 21
-38.5268
  0
LINE
  8
0
 10
46.0934
 20
-38.5268
 11
45.9561
 21
-38.6558
  0
LINE
  8
0
 10
45.9561
 20
-38.6558
 11
45.8037
 21
-38.7665
  0
LINE
  8
0
 10
45.8037
 20
-38.7665
 11
45.6387
 21
-38.8572
  0
LINE
  8
0
 10
45.6387
 20
-38.8572
 11
45.4635
 21
-38.9266
  0
LINE
  8
0
 10
45.4635
 20
-38.9266
 11
45.2811
 21
-38.9734
  0
LINE
  8
0
 10
45.2811
 20
-38.9734
 11
45.0942
 21
-38.997
  0
LINE
  8
0
 10
45.0942
 20
-38.997
 11
44.9058
 21
-38.997
  0
LINE
  8
0
 10
-15.0942
 20
-38.997
 11
-15.2811
 21
-38.9734
  0
LINE
  8
0
 10
-15.2811
 20
-38.9734
 11
-15.4635
 21
-38.9266
  0
LINE
  8
0
 10
-15.4635
 20
-38.9266
 11
-15.6387
 21
-38.8572
  0
LINE
  8
0
 10
-15.6387
 20
-38.8572
 11
-15.8037
 21
-38.7665
  0
LINE
  8
0
 10
-15.8037
 20
-38.7665
 11
-15.9561
 21
-38.6558
  0
LINE
  8
0
 10
-15.9561
 20
-38.6558
 11
-16.0934
 21
-38.5268
  0
LINE
  8
0
 10
-16.0934
 20
-38.5268
 11
-16.2135
 21
-38.3817
  0
LINE
  8
0
 10
-16.2135
 20
-38.3817
 11
-16.3145
 21
-38.2226
  0
LINE
  8
0
 10
-16.3145
 20
-38.2226
 11
-16.3947
 21
-38.0522
  0
LINE
  8
0
 10
-16.3947
 20
-38.0522
 11
-16.4529
 21
-37.873
  0
LINE
  8
0
 10
-16.4529
 20
-37.873
 11
-16.4882
 21
-37.688
  0
LINE
  8
0
 10
-16.4882
 20
-37.688
 11
-16.5
 21
-37.5
  0
LINE
  8
0
 10
-16.5
 20
-37.5
 11
-16.4882
 21
-37.312
  0
LINE
  8
0
 10
-16.4882
 20
-37.312
 11
-16.4529
 21
-37.127
  0
LINE
  8
0
 10
-16.4529
 20
-37.127
 11
-16.3947
 21
-36.9478
  0
LINE
  8
0
 10
-16.3947
 20
-36.9478
 11
-16.3145
 21
-36.7774
  0
LINE
  8
0
 10
-16.3145
 20
-36.7774
 11
-16.2135
 21
-36.6183
  0
LINE
  8
0
 10
-16.2135
 20
-36.6183
 11
-16.0934
 21
-36.4732
  0
LINE
  8
0
 10
-16.0934
 20
-36.4732
 11
-15.9561
 21
-36.3442
  0
LINE
  8
0
 10
-15.9561
 20
-36.3442
 11
-15.8037
 21
-36.2335
  0
LINE
  8
0
 10
-15.8037
 20
-36.2335
 11
-15.6387
 21
-36.1428
  0
LINE
  8
0
 10
-15.6387
 20
-36.1428
 11
-15.4635
 21
-36.0734
  0
LINE
  8
0
 10
-15.4635
 20
-36.0734
 11
-15.2811
 21
-36.0266
  0
LINE
  8
0
 10
-15.2811
 20
-36.0266
 11
-15.0942
 21
-36.003
  0
LINE
  8
0
 10
-15.0942
 20
-36.003
 11
-14.9058
 21
-36.003
  0
LINE
  8
0
 10
-14.9058
 20
-36.003
 11
-14.7189
 21
-36.0266
  0
LINE
  8
0
 10
-14.7189
 20
-36.0266
 11
-14.5365
 21
-36.0734
  0
LINE
  8
0
 10
-14.5365
 20
-36.0734
 11
-14.3613
 21
-36.1428
  0
LINE
  8
0
 10
-14.3613
 20
-36.1428
 11
-14.1963
 21
-36.2335
  0
LINE
  8
0
 10
-14.1963
 20
-36.2335
 11
-14.0439
 21
-36.3442
  0
LINE
  8
0
 10
-14.0439
 20
-36.3442
 11
-13.9065
 21
-36.4732
  0
LINE
  8
0
 10
-13.9065
 20
-36.4732
 11
-13.7865
 21
-36.6183
  0
LINE
  8
0
 10
-13.7865
 20
-36.6183
 11
-13.6855
 21
-36.7774
  0
LINE
  8
0
 10
-13.6855
 20
-36.7774
 11
-13.6053
 21
-36.9478
  0
LINE
  8
0
 10
-13.6053
 20
-36.9478
 11
-13.5471
 21
-37.127
  0
LINE
  8
0
 10
-13.5471
 20
-37.127
 11
-13.5118
 21
-37.312
  0
LINE
  8
0
 10
-13.5118
 20
-37.312
 11
-13.5
 21
-37.5
  0
LINE
  8
0
 10
-13.5
 20
-37.5
 11
-13.5118
 21
-37.688
  0
LINE
  8
0
 10
-13.5118
 20
-37.688
 11
-13.5471
 21
-37.873
  0
LINE
  8
0
 10
-13.5471
 20
-37.873
 11
-13.6053
 21
-38.0522
  0
LINE
  8
0
 10
-13.6053
 20
-38.0522
 11
-13.6855
 21
-38.2226
  0
LINE
  8
0
 10
-13.6855
 20
-38.2226
 11
-13.7865
 21
-38.3817
  0
LINE
  8
0
 10
-13.7865
 20
-38.3817
 11
-13.9065
 21
-38.5268
  0
LINE
  8
0
 10
-13.9065
 20
-38.5268
 11
-14.0439
 21
-38.6558
  0
LINE
  8
0
 10
-14.0439
 20
-38.6558
 11
-14.1963
 21
-38.7665
  0
LINE
  8
0
 10
-14.1963
 20
-38.7665
 11
-14.3613
 21
-38.8572
  0
LINE
  8
0
 10
-14.3613
 20
-38.8572
 11
-14.5365
 21
-38.9266
  0
LINE
  8
0
 10
-14.5365
 20
-38.9266
 11
-14.7189
 21
-38.9734
  0
LINE
  8
0
 10
-14.7189
 20
-38.9734
 11
-14.9058
 21
-38.997
  0
LINE
  8
0
 10
-14.9058
 20
-38.997
 11
-15.0942
 21
-38.997
  0
LINE
  8
0
 10
-45.0942
 20
-38.997
 11
-45.2811
 21
-38.9734
  0
LINE
  8
0
 10
-45.2811
 20
-38.9734
 11
-45.4635
 21
-38.9266
  0
LINE
  8
0
 10
-45.4635
 20
-38.9266
 11
-45.6387
 21
-38.8572
  0
LINE
  8
0
 10
-45.6387
 20
-38.8572
 11
-45.8037
 21
-38.7665
  0
LINE
  8
0
 10
-45.8037
 20
-38.7665
 11
-45.9561
 21
-38.6558
  0
LINE
  8
0
 10
-45.9561
 20
-38.6558
 11
-46.0934
 21
-38.5268
  0
LINE
  8
0
 10
-46.0934
 20
-38.5268
 11
-46.2135
 21
-38.3817
  0
LINE
  8
0
 10
-46.2135
 20
-38.3817
 11
-46.3145
 21
-38.2226
  0
LINE
  8
0
 10
-46.3145
 20
-38.2226
 11
-46.3947
 21
-38.0522
  0
LINE
  8
0
 10
-46.3947
 20
-38.0522
 11
-46.4529
 21
-37.873
  0
LINE
  8
0
 10
-46.4529
 20
-37.873
 11
-46.4882
 21
-37.688
  0
LINE
  8
0
 10
-46.4882
 20
-37.688
 11
-46.5
 21
-37.5
  0
LINE
  8
0
 10
-46.5
 20
-37.5
 11
-46.4882
 21
-37.312
  0
LINE
  8
0
 10
-46.4882
 20
-37.312
 11
-46.4529
 21
-37.127
  0
LINE
  8
0
 10
-46.4529
 20
-37.127
 11
-46.3947
 21
-36.9478
  0
LINE
  8
0
 10
-46.3947
 20
-36.9478
 11
-46.3145
 21
-36.7774
  0
LINE
  8
0
 10
-46.3145
 20
-36.7774
 11
-46.2135
 21
-36.6183
  0
LINE
  8
0
 10
-46.2135
 20
-36.6183
 11
-46.0934
 21
-36.4732
  0
LINE
  8
0
 10
-46.0934
 20
-36.4732
 11
-45.9561
 21
-36.3442
  0
LINE
  8
0
 10
-45.9561
 20
-36.3442
 11
-45.8037
 21
-36.2335
  0
LINE
  8
0
 10
-45.8037
 20
-36.2335
 11
-45.6387
 21
-36.1428
  0
LINE
  8
0
 10
-45.6387
 20
-36.1428
 11
-45.4635
 21
-36.0734
  0
LINE
  8
0
 10
-45.4635
 20
-36.0734
 11
-45.2811
 21
-36.0266
  0
LINE
  8
0
 10
-45.2811
 20
-36.0266
 11
-45.0942
 21
-36.003
  0
LINE
  8
0
 10
-45.0942
 20
-36.003
 11
-44.9058
 21
-36.003
  0
LINE
  8
0
 10
-44.9058
 20
-36.003
 11
-44.7189
 21
-36.0266
  0
LINE
  8
0
 10
-44.7189
 20
-36.0266
 11
-44.5365
 21
-36.0734
  0
LINE
  8
0
 10
-44.5365
 20
-36.0734
 11
-44.3613
 21
-36.1428
  0
LINE
  8
0
 10
-44.3613
 20
-36.1428
 11
-44.1963
 21
-36.2335
  0
LINE
  8
0
 10
-44.1963
 20
-36.2335
 11
-44.0439
 21
-36.3442
  0
LINE
  8
0
 10
-44.0439
 20
-36.3442
 11
-43.9065
 21
-36.4732
  0
LINE
  8
0
 10
-43.9065
 20
-36.4732
 11
-43.7865
 21
-36.6183
  0
LINE
  8
0
 10
-43.7865
 20
-36.6183
 11
-43.6855
 21
-36.7774
  0
LINE
  8
0
 10
-43.6855
 20
-36.7774
 11
-43.6053
 21
-36.9478
  0
LINE
  8
0
 10
-43.6053
 20
-36.9478
 11
-43.5471
 21
-37.127
  0
LINE
  8
0
 10
-43.5471
 20
-37.127
 11
-43.5118
 21
-37.312
  0
LINE
  8
0
 10
-43.5118
 20
-37.312
 11
-43.5
 21
-37.5
  0
LINE
  8
0
 10
-43.5
 20
-37.5
 11
-43.5118
 21
-37.688
  0
LINE
  8
0
 10
-43.5118
 20
-37.688
 11
-43.5471
 21
-37.873
  0
LINE
  8
0
 10
-43.5471
 20
-37.873
 11
-43.6053
 21
-38.0522
  0
LINE
  8
0
 10
-43.6053
 20
-38.0522
 11
-43.6855
 21
-38.2226
  0
LINE
  8
0
 10
-43.6855
 20
-38.2226
 11
-43.7865
 21
-38.3817
  0
LINE
  8
0
 10
-43.7865
 20
-38.3817
 11
-43.9065
 21
-38.5268
  0
LINE
  8
0
 10
-43.9065
 20
-38.5268
 11
-44.0439
 21
-38.6558
  0
LINE
  8
0
 10
-44.0439
 20
-38.6558
 11
-44.1963
 21
-38.7665
  0
LINE
  8
0
 10
-44.1963
 20
-38.7665
 11
-44.3613
 21
-38.8572
  0
LINE
  8
0
 10
-44.3613
 20
-38.8572
 11
-44.5365
 21
-38.9266
  0
LINE
  8
0
 10
-44.5365
 20
-38.9266
 11
-44.7189
 21
-38.9734
  0
LINE
  8
0
 10
-44.7189
 20
-38.9734
 11
-44.9058
 21
-38.997
  0
LINE
  8
0
 10
-44.9058
 20
-38.997
 11
-45.0942
 21
-38.997
  0
LINE
  8
0
 10
74.9058
 20
-38.997
 11
74.7189
 21
-38.9734
  0
LINE
  8
0
 10
74.7189
 20
-38.9734
 11
74.5365
 21
-38.9266
  0
LINE
  8
0
 10
74.5365
 20
-38.9266
 11
74.3613
 21
-38.8572
  0
LINE
  8
0
 10
74.3613
 20
-38.8572
 11
74.1963
 21
-38.7665
  0
LINE
  8
0
 10
74.1963
 20
-38.7665
 11
74.0439
 21
-38.6558
  0
LINE
  8
0
 10
74.0439
 20
-38.6558
 11
73.9065
 21
-38.5268
  0
LINE
  8
0
 10
73.9065
 20
-38.5268
 11
73.7865
 21
-38.3817
  0
LINE
  8
0
 10
73.7865
 20
-38.3817
 11
73.6855
 21
-38.2226
  0
LINE
  8
0
 10
73.6855
 20
-38.2226
 11
73.6053
 21
-38.0522
  0
LINE
  8
0
 10
73.6053
 20
-38.0522
 11
73.5471
 21
-37.873
  0
LINE
  8
0
 10
73.5471
 20
-37.873
 11
73.5118
 21
-37.688
  0
LINE
  8
0
 10
73.5118
 20
-37.688
 11
73.5
 21
-37.5
  0
LINE
  8
0
 10
73.5
 20
-37.5
 11
73.5118
 21
-37.312
  0
LINE
  8
0
 10
73.5118
 20
-37.312
 11
73.5471
 21
-37.127
  0
LINE
  8
0
 10
73.5471
 20
-37.127
 11
73.6053
 21
-36.9478
  0
LINE
  8
0
 10
73.6053
 20
-36.9478
 11
73.6855
 21
-36.7774
  0
LINE
  8
0
 10
73.6855
 20
-36.7774
 11
73.7865
 21
-36.6183
  0
LINE
  8
0
 10
73.7865
 20
-36.6183
 11
73.9065
 21
-36.4732
  0
LINE
  8
0
 10
73.9065
 20
-36.4732
 11
74.0439
 21
-36.3442
  0
LINE
  8
0
 10
74.0439
 20
-36.3442
 11
74.1963
 21
-36.2335
  0
LINE
  8
0
 10
74.1963
 20
-36.2335
 11
74.3613
 21
-36.1428
  0
LINE
  8
0
 10
74.3613
 20
-36.1428
 11
74.5365
 21
-36.0734
  0
LINE
  8
0
 10
74.5365
 20
-36.0734
 11
74.7189
 21
-36.0266
  0
LINE
  8
0
 10
74.7189
 20
-36.0266
 11
74.9058
 21
-36.003
  0
LINE
  8
0
 10
74.9058
 20
-36.003
 11
75.0942
 21
-36.003
  0
LINE
  8
0
 10
75.0942
 20
-36.003
 11
75.2811
 21
-36.0266
  0
LINE
  8
0
 10
75.2811
 20
-36.0266
 11
75.4635
 21
-36.0734
  0
LINE
  8
0
 10
75.4635
 20
-36.0734
 11
75.6387
 21
-36.1428
  0
LINE
  8
0
 10
75.6387
 20
-36.1428
 11
75.8037
 21
-36.2335
  0
LINE
  8
0
 10
75.8037
 20
-36.2335
 11
75.9561
 21
-36.3442
  0
LINE
  8
0
 10
75.9561
 20
-36.3442
 11
76.0934
 21
-36.4732
  0
LINE
  8
0
 10
76.0934
 20
-36.4732
 11
76.2135
 21
-36.6183
  0
LINE
  8
0
 10
76.2135
 20
-36.6183
 11
76.3145
 21
-36.7774
  0
LINE
  8
0
 10
76.3145
 20
-36.7774
 11
76.3947
 21
-36.9478
  0
LINE
  8
0
 10
76.3947
 20
-36.9478
 11
76.4529
 21
-37.127
  0
LINE
  8
0
 10
76.4529
 20
-37.127
 11
76.4882
 21
-37.312
  0
LINE
  8
0
 10
76.4882
 20
-37.312
 11
76.5
 21
-37.5
  0
LINE
  8
0
 10
76.5
 20
-37.5
 11
76.4882
 21
-37.688
  0
LINE
  8
0
 10
76.4882
 20
-37.688
 11
76.4529
 21
-37.873
  0
LINE
  8
0
 10
76.4529
 20
-37.873
 11
76.3947
 21
-38.0522
  0
LINE
  8
0
 10
76.3947
 20
-38.0522
 11
76.3145
 21
-38.2226
  0
LINE
  8
0
 10
76.3145
 20
-38.2226
 11
76.2135
 21
-38.3817
  0
LINE
  8
0
 10
76.2135
 20
-38.3817
 11
76.0934
 21
-38.5268
  0
LINE
  8
0
 10
76.0934
 20
-38.5268
 11
75.9561
 21
-38.6558
  0
LINE
  8
0
 10
75.9561
 20
-38.6558
 11
75.8037
 21
-38.7665
  0
LINE
  8
0
 10
75.8037
 20
-38.7665
 11
75.6387
 21
-38.8572
  0
LINE
  8
0
 10
75.6387
 20
-38.8572
 11
75.4635
 21
-38.9266
  0
LINE
  8
0
 10
75.4635
 20
-38.9266
 11
75.2811
 21
-38.9734
  0
LINE
  8
0
 10
75.2811
 20
-38.9734
 11
75.0942
 21
-38.997
  0
LINE
  8
0
 10
75.0942
 20
-38.997
 11
74.9058
 21
-38.997
  0
LINE
  8
0
 10
-0.0941772
 20
-38.997
 11
-0.281067
 21
-38.9734
  0
LINE
  8
0
 10
-0.281067
 20
-38.9734
 11
-0.463516
 21
-38.9266
  0
LINE
  8
0
 10
-0.463516
 20
-38.9266
 11
-0.638657
 21
-38.8572
  0
LINE
  8
0
 10
-0.638657
 20
-38.8572
 11
-0.803726
 21
-38.7665
  0
LINE
  8
0
 10
-0.803726
 20
-38.7665
 11
-0.956131
 21
-38.6558
  0
LINE
  8
0
 10
-0.956131
 20
-38.6558
 11
-1.09344
 21
-38.5268
  0
LINE
  8
0
 10
-1.09344
 20
-38.5268
 11
-1.21352
 21
-38.3817
  0
LINE
  8
0
 10
-1.21352
 20
-38.3817
 11
-1.31445
 21
-38.2226
  0
LINE
  8
0
 10
-1.31445
 20
-38.2226
 11
-1.39465
 21
-38.0522
  0
LINE
  8
0
 10
-1.39465
 20
-38.0522
 11
-1.45287
 21
-37.873
  0
LINE
  8
0
 10
-1.45287
 20
-37.873
 11
-1.48816
 21
-37.688
  0
LINE
  8
0
 10
-1.48816
 20
-37.688
 11
-1.5
 21
-37.5
  0
LINE
  8
0
 10
-1.5
 20
-37.5
 11
-1.48816
 21
-37.312
  0
LINE
  8
0
 10
-1.48816
 20
-37.312
 11
-1.45287
 21
-37.127
  0
LINE
  8
0
 10
-1.45287
 20
-37.127
 11
-1.39465
 21
-36.9478
  0
LINE
  8
0
 10
-1.39465
 20
-36.9478
 11
-1.31445
 21
-36.7774
  0
LINE
  8
0
 10
-1.31445
 20
-36.7774
 11
-1.21352
 21
-36.6183
  0
LINE
  8
0
 10
-1.21352
 20
-36.6183
 11
-1.09344
 21
-36.4732
  0
LINE
  8
0
 10
-1.09344
 20
-36.4732
 11
-0.956131
 21
-36.3442
  0
LINE
  8
0
 10
-0.956131
 20
-36.3442
 11
-0.803726
 21
-36.2335
  0
LINE
  8
0
 10
-0.803726
 20
-36.2335
 11
-0.638657
 21
-36.1428
  0
LINE
  8
0
 10
-0.638657
 20
-36.1428
 11
-0.463516
 21
-36.0734
  0
LINE
  8
0
 10
-0.463516
 20
-36.0734
 11
-0.281067
 21
-36.0266
  0
LINE
  8
0
 10
-0.281067
 20
-36.0266
 11
-0.0941772
 21
-36.003
  0
LINE
  8
0
 10
-0.0941772
 20
-36.003
 11
0.0941772
 21
-36.003
  0
LINE
  8
0
 10
0.0941772
 20
-36.003
 11
0.281067
 21
-36.0266
  0
LINE
  8
0
 10
0.281067
 20
-36.0266
 11
0.463516
 21
-36.0734
  0
LINE
  8
0
 10
0.463516
 20
-36.0734
 11
0.638657
 21
-36.1428
  0
LINE
  8
0
 10
0.638657
 20
-36.1428
 11
0.803726
 21
-36.2335
  0
LINE
  8
0
 10
0.803726
 20
-36.2335
 11
0.956131
 21
-36.3442
  0
LINE
  8
0
 10
0.956131
 20
-36.3442
 11
1.09344
 21
-36.4732
  0
LINE
  8
0
 10
1.09344
 20
-36.4732
 11
1.21352
 21
-36.6183
  0
LINE
  8
0
 10
1.21352
 20
-36.6183
 11
1.31445
 21
-36.7774
  0
LINE
  8
0
 10
1.31445
 20
-36.7774
 11
1.39465
 21
-36.9478
  0
LINE
  8
0
 10
1.39465
 20
-36.9478
 11
1.45287
 21
-37.127
  0
LINE
  8
0
 10
1.45287
 20
-37.127
 11
1.48816
 21
-37.312
  0
LINE
  8
0
 10
1.48816
 20
-37.312
 11
1.5
 21
-37.5
  0
LINE
  8
0
 10
1.5
 20
-37.5
 11
1.48816
 21
-37.688
  0
LINE
  8
0
 10
1.48816
 20
-37.688
 11
1.45287
 21
-37.873
  0
LINE
  8
0
 10
1.45287
 20
-37.873
 11
1.39465
 21
-38.0522
  0
LINE
  8
0
 10
1.39465
 20
-38.0522
 11
1.31445
 21
-38.2226
  0
LINE
  8
0
 10
1.31445
 20
-38.2226
 11
1.21352
 21
-38.3817
  0
LINE
  8
0
 10
1.21352
 20
-38.3817
 11
1.09344
 21
-38.5268
  0
LINE
  8
0
 10
1.09344
 20
-38.5268
 11
0.956131
 21
-38.6558
  0
LINE
  8
0
 10
0.956131
 20
-38.6558
 11
0.803726
 21
-38.7665
  0
LINE
  8
0
 10
0.803726
 20
-38.7665
 11
0.638657
 21
-38.8572
  0
LINE
  8
0
 10
0.638657
 20
-38.8572
 11
0.463516
 21
-38.9266
  0
LINE
  8
0
 10
0.463516
 20
-38.9266
 11
0.281067
 21
-38.9734
  0
LINE
  8
0
 10
0.281067
 20
-38.9734
 11
0.0941772
 21
-38.997
  0
LINE
  8
0
 10
0.0941772
 20
-38.997
 11
-0.0941772
 21
-38.997
  0
LINE
  8
0
 10
-60.0942
 20
-38.997
 11
-60.2811
 21
-38.9734
  0
LINE
  8
0
 10
-60.2811
 20
-38.9734
 11
-60.4635
 21
-38.9266
  0
LINE
  8
0
 10
-60.4635
 20
-38.9266
 11
-60.6387
 21
-38.8572
  0
LINE
  8
0
 10
-60.6387
 20
-38.8572
 11
-60.8037
 21
-38.7665
  0
LINE
  8
0
 10
-60.8037
 20
-38.7665
 11
-60.9561
 21
-38.6558
  0
LINE
  8
0
 10
-60.9561
 20
-38.6558
 11
-61.0934
 21
-38.5268
  0
LINE
  8
0
 10
-61.0934
 20
-38.5268
 11
-61.2135
 21
-38.3817
  0
LINE
  8
0
 10
-61.2135
 20
-38.3817
 11
-61.3145
 21
-38.2226
  0
LINE
  8
0
 10
-61.3145
 20
-38.2226
 11
-61.3947
 21
-38.0522
  0
LINE
  8
0
 10
-61.3947
 20
-38.0522
 11
-61.4529
 21
-37.873
  0
LINE
  8
0
 10
-61.4529
 20
-37.873
 11
-61.4882
 21
-37.688
  0
LINE
  8
0
 10
-61.4882
 20
-37.688
 11
-61.5
 21
-37.5
  0
LINE
  8
0
 10
-61.5
 20
-37.5
 11
-61.4882
 21
-37.312
  0
LINE
  8
0
 10
-61.4882
 20
-37.312
 11
-61.4529
 21
-37.127
  0
LINE
  8
0
 10
-61.4529
 20
-37.127
 11
-61.3947
 21
-36.9478
  0
LINE
  8
0
 10
-61.3947
 20
-36.9478
 11
-61.3145
 21
-36.7774
  0
LINE
  8
0
 10
-61.3145
 20
-36.7774
 11
-61.2135
 21
-36.6183
  0
LINE
  8
0
 10
-61.2135
 20
-36.6183
 11
-61.0934
 21
-36.4732
  0
LINE
  8
0
 10
-61.0934
 20
-36.4732
 11
-60.9561
 21
-36.3442
  0
LINE
  8
0
 10
-60.9561
 20
-36.3442
 11
-60.8037
 21
-36.2335
  0
LINE
  8
0
 10
-60.8037
 20
-36.2335
 11
-60.6387
 21
-36.1428
  0
LINE
  8
0
 10
-60.6387
 20
-36.1428
 11
-60.4635
 21
-36.0734
  0
LINE
  8
0
 10
-60.4635
 20
-36.0734
 11
-60.2811
 21
-36.0266
  0
LINE
  8
0
 10
-60.2811
 20
-36.0266
 11
-60.0942
 21
-36.003
  0
LINE
  8
0
 10
-60.0942
 20
-36.003
 11
-59.9058
 21
-36.003
  0
LINE
  8
0
 10
-59.9058
 20
-36.003
 11
-59.7189
 21
-36.0266
  0
LINE
  8
0
 10
-59.7189
 20
-36.0266
 11
-59.5365
 21
-36.0734
  0
LINE
  8
0
 10
-59.5365
 20
-36.0734
 11
-59.3613
 21
-36.1428
  0
LINE
  8
0
 10
-59.3613
 20
-36.1428
 11
-59.1963
 21
-36.2335
  0
LINE
  8
0
 10
-59.1963
 20
-36.2335
 11
-59.0439
 21
-36.3442
  0
LINE
  8
0
 10
-59.0439
 20
-36.3442
 11
-58.9065
 21
-36.4732
  0
LINE
  8
0
 10
-58.9065
 20
-36.4732
 11
-58.7865
 21
-36.6183
  0
LINE
  8
0
 10
-58.7865
 20
-36.6183
 11
-58.6855
 21
-36.7774
  0
LINE
  8
0
 10
-58.6855
 20
-36.7774
 11
-58.6053
 21
-36.9478
  0
LINE
  8
0
 10
-58.6053
 20
-36.9478
 11
-58.5471
 21
-37.127
  0
LINE
  8
0
 10
-58.5471
 20
-37.127
 11
-58.5118
 21
-37.312
  0
LINE
  8
0
 10
-58.5118
 20
-37.312
 11
-58.5
 21
-37.5
  0
LINE
  8
0
 10
-58.5
 20
-37.5
 11
-58.5118
 21
-37.688
  0
LINE
  8
0
 10
-58.5118
 20
-37.688
 11
-58.5471
 21
-37.873
  0
LINE
  8
0
 10
-58.5471
 20
-37.873
 11
-58.6053
 21
-38.0522
  0
LINE
  8
0
 10
-58.6053
 20
-38.0522
 11
-58.6855
 21
-38.2226
  0
LINE
  8
0
 10
-58.6855
 20
-38.2226
 11
-58.7865
 21
-38.3817
  0
LINE
  8
0
 10
-58.7865
 20
-38.3817
 11
-58.9065
 21
-38.5268
  0
LINE
  8
0
 10
-58.9065
 20
-38.5268
 11
-59.0439
 21
-38.6558
  0
LINE
  8
0
 10
-59.0439
 20
-38.6558
 11
-59.1963
 21
-38.7665
  0
LINE
  8
0
 10
-59.1963
 20
-38.7665
 11
-59.3613
 21
-38.8572
  0
LINE
  8
0
 10
-59.3613
 20
-38.8572
 11
-59.5365
 21
-38.9266
  0
LINE
  8
0
 10
-59.5365
 20
-38.9266
 11
-59.7189
 21
-38.9734
  0
LINE
  8
0
 10
-59.7189
 20
-38.9734
 11
-59.9058
 21
-38.997
  0
LINE
  8
0
 10
-59.9058
 20
-38.997
 11
-60.0942
 21
-38.997
  0
LINE
  8
0
 10
29.9058
 20
-38.997
 11
29.7189
 21
-38.9734
  0
LINE
  8
0
 10
29.7189
 20
-38.9734
 11
29.5365
 21
-38.9266
  0
LINE
  8
0
 10
29.5365
 20
-38.9266
 11
29.3613
 21
-38.8572
  0
LINE
  8
0
 10
29.3613
 20
-38.8572
 11
29.1963
 21
-38.7665
  0
LINE
  8
0
 10
29.1963
 20
-38.7665
 11
29.0439
 21
-38.6558
  0
LINE
  8
0
 10
29.0439
 20
-38.6558
 11
28.9065
 21
-38.5268
  0
LINE
  8
0
 10
28.9065
 20
-38.5268
 11
28.7865
 21
-38.3817
  0
LINE
  8
0
 10
28.7865
 20
-38.3817
 11
28.6855
 21
-38.2226
  0
LINE
  8
0
 10
28.6855
 20
-38.2226
 11
28.6053
 21
-38.0522
  0
LINE
  8
0
 10
28.6053
 20
-38.0522
 11
28.5471
 21
-37.873
  0
LINE
  8
0
 10
28.5471
 20
-37.873
 11
28.5118
 21
-37.688
  0
LINE
  8
0
 10
28.5118
 20
-37.688
 11
28.5
 21
-37.5
  0
LINE
  8
0
 10
28.5
 20
-37.5
 11
28.5118
 21
-37.312
  0
LINE
  8
0
 10
28.5118
 20
-37.312
 11
28.5471
 21
-37.127
  0
LINE
  8
0
 10
28.5471
 20
-37.127
 11
28.6053
 21
-36.9478
  0
LINE
  8
0
 10
28.6053
 20
-36.9478
 11
28.6855
 21
-36.7774
  0
LINE
  8
0
 10
28.6855
 20
-36.7774
 11
28.7865
 21
-36.6183
  0
LINE
  8
0
 10
28.7865
 20
-36.6183
 11
28.9065
 21
-36.4732
  0
LINE
  8
0
 10
28.9065
 20
-36.4732
 11
29.0439
 21
-36.3442
  0
LINE
  8
0
 10
29.0439
 20
-36.3442
 11
29.1963
 21
-36.2335
  0
LINE
  8
0
 10
29.1963
 20
-36.2335
 11
29.3613
 21
-36.1428
  0
LINE
  8
0
 10
29.3613
 20
-36.1428
 11
29.5365
 21
-36.0734
  0
LINE
  8
0
 10
29.5365
 20
-36.0734
 11
29.7189
 21
-36.0266
  0
LINE
  8
0
 10
29.7189
 20
-36.0266
 11
29.9058
 21
-36.003
  0
LINE
  8
0
 10
29.9058
 20
-36.003
 11
30.0942
 21
-36.003
  0
LINE
  8
0
 10
30.0942
 20
-36.003
 11
30.2811
 21
-36.0266
  0
LINE
  8
0
 10
30.2811
 20
-36.0266
 11
30.4635
 21
-36.0734
  0
LINE
  8
0
 10
30.4635
 20
-36.0734
 11
30.6387
 21
-36.1428
  0
LINE
  8
0
 10
30.6387
 20
-36.1428
 11
30.8037
 21
-36.2335
  0
LINE
  8
0
 10
30.8037
 20
-36.2335
 11
30.9561
 21
-36.3442
  0
LINE
  8
0
 10
30.9561
 20
-36.3442
 11
31.0934
 21
-36.4732
  0
LINE
  8
0
 10
31.0934
 20
-36.4732
 11
31.2135
 21
-36.6183
  0
LINE
  8
0
 10
31.2135
 20
-36.6183
 11
31.3145
 21
-36.7774
  0
LINE
  8
0
 10
31.3145
 20
-36.7774
 11
31.3947
 21
-36.9478
  0
LINE
  8
0
 10
31.3947
 20
-36.9478
 11
31.4529
 21
-37.127
  0
LINE
  8
0
 10
31.4529
 20
-37.127
 11
31.4882
 21
-37.312
  0
LINE
  8
0
 10
31.4882
 20
-37.312
 11
31.5
 21
-37.5
  0
LINE
  8
0
 10
31.5
 20
-37.5
 11
31.4882
 21
-37.688
  0
LINE
  8
0
 10
31.4882
 20
-37.688
 11
31.4529
 21
-37.873
  0
LINE
  8
0
 10
31.4529
 20
-37.873
 11
31.3947
 21
-38.0522
  0
LINE
  8
0
 10
31.3947
 20
-38.0522
 11
31.3145
 21
-38.2226
  0
LINE
  8
0
 10
31.3145
 20
-38.2226
 11
31.2135
 21
-38.3817
  0
LINE
  8
0
 10
31.2135
 20
-38.3817
 11
31.0934
 21
-38.5268
  0
LINE
  8
0
 10
31.0934
 20
-38.5268
 11
30.9561
 21
-38.6558
  0
LINE
  8
0
 10
30.9561
 20
-38.6558
 11
30.8037
 21
-38.7665
  0
LINE
  8
0
 10
30.8037
 20
-38.7665
 11
30.6387
 21
-38.8572
  0
LINE
  8
0
 10
30.6387
 20
-38.8572
 11
30.4635
 21
-38.9266
  0
LINE
  8
0
 10
30.4635
 20
-38.9266
 11
30.2811
 21
-38.9734
  0
LINE
  8
0
 10
30.2811
 20
-38.9734
 11
30.0942
 21
-38.997
  0
LINE
  8
0
 10
30.0942
 20
-38.997
 11
29.9058
 21
-38.997
  0
LINE
  8
0
 10
59.9058
 20
-38.997
 11
59.7189
 21
-38.9734
  0
LINE
  8
0
 10
59.7189
 20
-38.9734
 11
59.5365
 21
-38.9266
  0
LINE
  8
0
 10
59.5365
 20
-38.9266
 11
59.3613
 21
-38.8572
  0
LINE
  8
0
 10
59.3613
 20
-38.8572
 11
59.1963
 21
-38.7665
  0
LINE
  8
0
 10
59.1963
 20
-38.7665
 11
59.0439
 21
-38.6558
  0
LINE
  8
0
 10
59.0439
 20
-38.6558
 11
58.9065
 21
-38.5268
  0
LINE
  8
0
 10
58.9065
 20
-38.5268
 11
58.7865
 21
-38.3817
  0
LINE
  8
0
 10
58.7865
 20
-38.3817
 11
58.6855
 21
-38.2226
  0
LINE
  8
0
 10
58.6855
 20
-38.2226
 11
58.6053
 21
-38.0522
  0
LINE
  8
0
 10
58.6053
 20
-38.0522
 11
58.5471
 21
-37.873
  0
LINE
  8
0
 10
58.5471
 20
-37.873
 11
58.5118
 21
-37.688
  0
LINE
  8
0
 10
58.5118
 20
-37.688
 11
58.5
 21
-37.5
  0
LINE
  8
0
 10
58.5
 20
-37.5
 11
58.5118
 21
-37.312
  0
LINE
  8
0
 10
58.5118
 20
-37.312
 11
58.5471
 21
-37.127
  0
LINE
  8
0
 10
58.5471
 20
-37.127
 11
58.6053
 21
-36.9478
  0
LINE
  8
0
 10
58.6053
 20
-36.9478
 11
58.6855
 21
-36.7774
  0
LINE
  8
0
 10
58.6855
 20
-36.7774
 11
58.7865
 21
-36.6183
  0
LINE
  8
0
 10
58.7865
 20
-36.6183
 11
58.9065
 21
-36.4732
  0
LINE
  8
0
 10
58.9065
 20
-36.4732
 11
59.0439
 21
-36.3442
  0
LINE
  8
0
 10
59.0439
 20
-36.3442
 11
59.1963
 21
-36.2335
  0
LINE
  8
0
 10
59.1963
 20
-36.2335
 11
59.3613
 21
-36.1428
  0
LINE
  8
0
 10
59.3613
 20
-36.1428
 11
59.5365
 21
-36.0734
  0
LINE
  8
0
 10
59.5365
 20
-36.0734
 11
59.7189
 21
-36.0266
  0
LINE
  8
0
 10
59.7189
 20
-36.0266
 11
59.9058
 21
-36.003
  0
LINE
  8
0
 10
59.9058
 20
-36.003
 11
60.0942
 21
-36.003
  0
LINE
  8
0
 10
60.0942
 20
-36.003
 11
60.2811
 21
-36.0266
  0
LINE
  8
0
 10
60.2811
 20
-36.0266
 11
60.4635
 21
-36.0734
  0
LINE
  8
0
 10
60.4635
 20
-36.0734
 11
60.6387
 21
-36.1428
  0
LINE
  8
0
 10
60.6387
 20
-36.1428
 11
60.8037
 21
-36.2335
  0
LINE
  8
0
 10
60.8037
 20
-36.2335
 11
60.9561
 21
-36.3442
  0
LINE
  8
0
 10
60.9561
 20
-36.3442
 11
61.0934
 21
-36.4732
  0
LINE
  8
0
 10
61.0934
 20
-36.4732
 11
61.2135
 21
-36.6183
  0
LINE
  8
0
 10
61.2135
 20
-36.6183
 11
61.3145
 21
-36.7774
  0
LINE
  8
0
 10
61.3145
 20
-36.7774
 11
61.3947
 21
-36.9478
  0
LINE
  8
0
 10
61.3947
 20
-36.9478
 11
61.4529
 21
-37.127
  0
LINE
  8
0
 10
61.4529
 20
-37.127
 11
61.4882
 21
-37.312
  0
LINE
  8
0
 10
61.4882
 20
-37.312
 11
61.5
 21
-37.5
  0
LINE
  8
0
 10
61.5
 20
-37.5
 11
61.4882
 21
-37.688
  0
LINE
  8
0
 10
61.4882
 20
-37.688
 11
61.4529
 21
-37.873
  0
LINE
  8
0
 10
61.4529
 20
-37.873
 11
61.3947
 21
-38.0522
  0
LINE
  8
0
 10
61.3947
 20
-38.0522
 11
61.3145
 21
-38.2226
  0
LINE
  8
0
 10
61.3145
 20
-38.2226
 11
61.2135
 21
-38.3817
  0
LINE
  8
0
 10
61.2135
 20
-38.3817
 11
61.0934
 21
-38.5268
  0
LINE
  8
0
 10
61.0934
 20
-38.5268
 11
60.9561
 21
-38.6558
  0
LINE
  8
0
 10
60.9561
 20
-38.6558
 11
60.8037
 21
-38.7665
  0
LINE
  8
0
 10
60.8037
 20
-38.7665
 11
60.6387
 21
-38.8572
  0
LINE
  8
0
 10
60.6387
 20
-38.8572
 11
60.4635
 21
-38.9266
  0
LINE
  8
0
 10
60.4635
 20
-38.9266
 11
60.2811
 21
-38.9734
  0
LINE
  8
0
 10
60.2811
 20
-38.9734
 11
60.0942
 21
-38.997
  0
LINE
  8
0
 10
60.0942
 20
-38.997
 11
59.9058
 21
-38.997
  0
LINE
  8
0
 10
-75.0942
 20
-38.997
 11
-75.2811
 21
-38.9734
  0
LINE
  8
0
 10
-75.2811
 20
-38.9734
 11
-75.4635
 21
-38.9266
  0
LINE
  8
0
 10
-75.4635
 20
-38.9266
 11
-75.6387
 21
-38.8572
  0
LINE
  8
0
 10
-75.6387
 20
-38.8572
 11
-75.8037
 21
-38.7665
  0
LINE
  8
0
 10
-75.8037
 20
-38.7665
 11
-75.9561
 21
-38.6558
  0
LINE
  8
0
 10
-75.9561
 20
-38.6558
 11
-76.0934
 21
-38.5268
  0
LINE
  8
0
 10
-76.0934
 20
-38.5268
 11
-76.2135
 21
-38.3817
  0
LINE
  8
0
 10
-76.2135
 20
-38.3817
 11
-76.3145
 21
-38.2226
  0
LINE
  8
0
 10
-76.3145
 20
-38.2226
 11
-76.3947
 21
-38.0522
  0
LINE
  8
0
 10
-76.3947
 20
-38.0522
 11
-76.4529
 21
-37.873
  0
LINE
  8
0
 10
-76.4529
 20
-37.873
 11
-76.4882
 21
-37.688
  0
LINE
  8
0
 10
-76.4882
 20
-37.688
 11
-76.5
 21
-37.5
  0
LINE
  8
0
 10
-76.5
 20
-37.5
 11
-76.4882
 21
-37.312
  0
LINE
  8
0
 10
-76.4882
 20
-37.312
 11
-76.4529
 21
-37.127
  0
LINE
  8
0
 10
-76.4529
 20
-37.127
 11
-76.3947
 21
-36.9478
  0
LINE
  8
0
 10
-76.3947
 20
-36.9478
 11
-76.3145
 21
-36.7774
  0
LINE
  8
0
 10
-76.3145
 20
-36.7774
 11
-76.2135
 21
-36.6183
  0
LINE
  8
0
 10
-76.2135
 20
-36.6183
 11
-76.0934
 21
-36.4732
  0
LINE
  8
0
 10
-76.0934
 20
-36.4732
 11
-75.9561
 21
-36.3442
  0
LINE
  8
0
 10
-75.9561
 20
-36.3442
 11
-75.8037
 21
-36.2335
  0
LINE
  8
0
 10
-75.8037
 20
-36.2335
 11
-75.6387
 21
-36.1428
  0
LINE
  8
0
 10
-75.6387
 20
-36.1428
 11
-75.4635
 21
-36.0734
  0
LINE
  8
0
 10
-75.4635
 20
-36.0734
 11
-75.2811
 21
-36.0266
  0
LINE
  8
0
 10
-75.2811
 20
-36.0266
 11
-75.0942
 21
-36.003
  0
LINE
  8
0
 10
-75.0942
 20
-36.003
 11
-74.9058
 21
-36.003
  0
LINE
  8
0
 10
-74.9058
 20
-36.003
 11
-74.7189
 21
-36.0266
  0
LINE
  8
0
 10
-74.7189
 20
-36.0266
 11
-74.5365
 21
-36.0734
  0
LINE
  8
0
 10
-74.5365
 20
-36.0734
 11
-74.3613
 21
-36.1428
  0
LINE
  8
0
 10
-74.3613
 20
-36.1428
 11
-74.1963
 21
-36.2335
  0
LINE
  8
0
 10
-74.1963
 20
-36.2335
 11
-74.0439
 21
-36.3442
  0
LINE
  8
0
 10
-74.0439
 20
-36.3442
 11
-73.9065
 21
-36.4732
  0
LINE
  8
0
 10
-73.9065
 20
-36.4732
 11
-73.7865
 21
-36.6183
  0
LINE
  8
0
 10
-73.7865
 20
-36.6183
 11
-73.6855
 21
-36.7774
  0
LINE
  8
0
 10
-73.6855
 20
-36.7774
 11
-73.6053
 21
-36.9478
  0
LINE
  8
0
 10
-73.6053
 20
-36.9478
 11
-73.5471
 21
-37.127
  0
LINE
  8
0
 10
-73.5471
 20
-37.127
 11
-73.5118
 21
-37.312
  0
LINE
  8
0
 10
-73.5118
 20
-37.312
 11
-73.5
 21
-37.5
  0
LINE
  8
0
 10
-73.5
 20
-37.5
 11
-73.5118
 21
-37.688
  0
LINE
  8
0
 10
-73.5118
 20
-37.688
 11
-73.5471
 21
-37.873
  0
LINE
  8
0
 10
-73.5471
 20
-37.873
 11
-73.6053
 21
-38.0522
  0
LINE
  8
0
 10
-73.6053
 20
-38.0522
 11
-73.6855
 21
-38.2226
  0
LINE
  8
0
 10
-73.6855
 20
-38.2226
 11
-73.7865
 21
-38.3817
  0
LINE
  8
0
 10
-73.7865
 20
-38.3817
 11
-73.9065
 21
-38.5268
  0
LINE
  8
0
 10
-73.9065
 20
-38.5268
 11
-74.0439
 21
-38.6558
  0
LINE
  8
0
 10
-74.0439
 20
-38.6558
 11
-74.1963
 21
-38.7665
  0
LINE
  8
0
 10
-74.1963
 20
-38.7665
 11
-74.3613
 21
-38.8572
  0
LINE
  8
0
 10
-74.3613
 20
-38.8572
 11
-74.5365
 21
-38.9266
  0
LINE
  8
0
 10
-74.5365
 20
-38.9266
 11
-74.7189
 21
-38.9734
  0
LINE
  8
0
 10
-74.7189
 20
-38.9734
 11
-74.9058
 21
-38.997
  0
LINE
  8
0
 10
-74.9058
 20
-38.997
 11
-75.0942
 21
-38.997
  0
LINE
  8
0
 10
-30.0942
 20
-38.997
 11
-30.2811
 21
-38.9734
  0
LINE
  8
0
 10
-30.2811
 20
-38.9734
 11
-30.4635
 21
-38.9266
  0
LINE
  8
0
 10
-30.4635
 20
-38.9266
 11
-30.6387
 21
-38.8572
  0
LINE
  8
0
 10
-30.6387
 20
-38.8572
 11
-30.8037
 21
-38.7665
  0
LINE
  8
0
 10
-30.8037
 20
-38.7665
 11
-30.9561
 21
-38.6558
  0
LINE
  8
0
 10
-30.9561
 20
-38.6558
 11
-31.0934
 21
-38.5268
  0
LINE
  8
0
 10
-31.0934
 20
-38.5268
 11
-31.2135
 21
-38.3817
  0
LINE
  8
0
 10
-31.2135
 20
-38.3817
 11
-31.3145
 21
-38.2226
  0
LINE
  8
0
 10
-31.3145
 20
-38.2226
 11
-31.3947
 21
-38.0522
  0
LINE
  8
0
 10
-31.3947
 20
-38.0522
 11
-31.4529
 21
-37.873
  0
LINE
  8
0
 10
-31.4529
 20
-37.873
 11
-31.4882
 21
-37.688
  0
LINE
  8
0
 10
-31.4882
 20
-37.688
 11
-31.5
 21
-37.5
  0
LINE
  8
0
 10
-31.5
 20
-37.5
 11
-31.4882
 21
-37.312
  0
LINE
  8
0
 10
-31.4882
 20
-37.312
 11
-31.4529
 21
-37.127
  0
LINE
  8
0
 10
-31.4529
 20
-37.127
 11
-31.3947
 21
-36.9478
  0
LINE
  8
0
 10
-31.3947
 20
-36.9478
 11
-31.3145
 21
-36.7774
  0
LINE
  8
0
 10
-31.3145
 20
-36.7774
 11
-31.2135
 21
-36.6183
  0
LINE
  8
0
 10
-31.2135
 20
-36.6183
 11
-31.0934
 21
-36.4732
  0
LINE
  8
0
 10
-31.0934
 20
-36.4732
 11
-30.9561
 21
-36.3442
  0
LINE
  8
0
 10
-30.9561
 20
-36.3442
 11
-30.8037
 21
-36.2335
  0
LINE
  8
0
 10
-30.8037
 20
-36.2335
 11
-30.6387
 21
-36.1428
  0
LINE
  8
0
 10
-30.6387
 20
-36.1428
 11
-30.4635
 21
-36.0734
  0
LINE
  8
0
 10
-30.4635
 20
-36.0734
 11
-30.2811
 21
-36.0266
  0
LINE
  8
0
 10
-30.2811
 20
-36.0266
 11
-30.0942
 21
-36.003
  0
LINE
  8
0
 10
-30.0942
 20
-36.003
 11
-29.9058
 21
-36.003
  0
LINE
  8
0
 10
-29.9058
 20
-36.003
 11
-29.7189
 21
-36.0266
  0
LINE
  8
0
 10
-29.7189
 20
-36.0266
 11
-29.5365
 21
-36.0734
  0
LINE
  8
0
 10
-29.5365
 20
-36.0734
 11
-29.3613
 21
-36.1428
  0
LINE
  8
0
 10
-29.3613
 20
-36.1428
 11
-29.1963
 21
-36.2335
  0
LINE
  8
0
 10
-29.1963
 20
-36.2335
 11
-29.0439
 21
-36.3442
  0
LINE
  8
0
 10
-29.0439
 20
-36.3442
 11
-28.9065
 21
-36.4732
  0
LINE
  8
0
 10
-28.9065
 20
-36.4732
 11
-28.7865
 21
-36.6183
  0
LINE
  8
0
 10
-28.7865
 20
-36.6183
 11
-28.6855
 21
-36.7774
  0
LINE
  8
0
 10
-28.6855
 20
-36.7774
 11
-28.6053
 21
-36.9478
  0
LINE
  8
0
 10
-28.6053
 20
-36.9478
 11
-28.5471
 21
-37.127
  0
LINE
  8
0
 10
-28.5471
 20
-37.127
 11
-28.5118
 21
-37.312
  0
LINE
  8
0
 10
-28.5118
 20
-37.312
 11
-28.5
 21
-37.5
  0
LINE
  8
0
 10
-28.5
 20
-37.5
 11
-28.5118
 21
-37.688
  0
LINE
  8
0
 10
-28.5118
 20
-37.688
 11
-28.5471
 21
-37.873
  0
LINE
  8
0
 10
-28.5471
 20
-37.873
 11
-28.6053
 21
-38.0522
  0
LINE
  8
0
 10
-28.6053
 20
-38.0522
 11
-28.6855
 21
-38.2226
  0
LINE
  8
0
 10
-28.6855
 20
-38.2226
 11
-28.7865
 21
-38.3817
  0
LINE
  8
0
 10
-28.7865
 20
-38.3817
 11
-28.9065
 21
-38.5268
  0
LINE
  8
0
 10
-28.9065
 20
-38.5268
 11
-29.0439
 21
-38.6558
  0
LINE
  8
0
 10
-29.0439
 20
-38.6558
 11
-29.1963
 21
-38.7665
  0
LINE
  8
0
 10
-29.1963
 20
-38.7665
 11
-29.3613
 21
-38.8572
  0
LINE
  8
0
 10
-29.3613
 20
-38.8572
 11
-29.5365
 21
-38.9266
  0
LINE
  8
0
 10
-29.5365
 20
-38.9266
 11
-29.7189
 21
-38.9734
  0
LINE
  8
0
 10
-29.7189
 20
-38.9734
 11
-29.9058
 21
-38.997
  0
LINE
  8
0
 10
-29.9058
 20
-38.997
 11
-30.0942
 21
-38.997
  0
LINE
  8
0
 10
14.9058
 20
-38.997
 11
14.7189
 21
-38.9734
  0
LINE
  8
0
 10
14.7189
 20
-38.9734
 11
14.5365
 21
-38.9266
  0
LINE
  8
0
 10
14.5365
 20
-38.9266
 11
14.3613
 21
-38.8572
  0
LINE
  8
0
 10
14.3613
 20
-38.8572
 11
14.1963
 21
-38.7665
  0
LINE
  8
0
 10
14.1963
 20
-38.7665
 11
14.0439
 21
-38.6558
  0
LINE
  8
0
 10
14.0439
 20
-38.6558
 11
13.9065
 21
-38.5268
  0
LINE
  8
0
 10
13.9065
 20
-38.5268
 11
13.7865
 21
-38.3817
  0
LINE
  8
0
 10
13.7865
 20
-38.3817
 11
13.6855
 21
-38.2226
  0
LINE
  8
0
 10
13.6855
 20
-38.2226
 11
13.6053
 21
-38.0522
  0
LINE
  8
0
 10
13.6053
 20
-38.0522
 11
13.5471
 21
-37.873
  0
LINE
  8
0
 10
13.5471
 20
-37.873
 11
13.5118
 21
-37.688
  0
LINE
  8
0
 10
13.5118
 20
-37.688
 11
13.5
 21
-37.5
  0
LINE
  8
0
 10
13.5
 20
-37.5
 11
13.5118
 21
-37.312
  0
LINE
  8
0
 10
13.5118
 20
-37.312
 11
13.5471
 21
-37.127
  0
LINE
  8
0
 10
13.5471
 20
-37.127
 11
13.6053
 21
-36.9478
  0
LINE
  8
0
 10
13.6053
 20
-36.9478
 11
13.6855
 21
-36.7774
  0
LINE
  8
0
 10
13.6855
 20
-36.7774
 11
13.7865
 21
-36.6183
  0
LINE
  8
0
 10
13.7865
 20
-36.6183
 11
13.9065
 21
-36.4732
  0
LINE
  8
0
 10
13.9065
 20
-36.4732
 11
14.0439
 21
-36.3442
  0
LINE
  8
0
 10
14.0439
 20
-36.3442
 11
14.1963
 21
-36.2335
  0
LINE
  8
0
 10
14.1963
 20
-36.2335
 11
14.3613
 21
-36.1428
  0
LINE
  8
0
 10
14.3613
 20
-36.1428
 11
14.5365
 21
-36.0734
  0
LINE
  8
0
 10
14.5365
 20
-36.0734
 11
14.7189
 21
-36.0266
  0
LINE
  8
0
 10
14.7189
 20
-36.0266
 11
14.9058
 21
-36.003
  0
LINE
  8
0
 10
14.9058
 20
-36.003
 11
15.0942
 21
-36.003
  0
LINE
  8
0
 10
15.0942
 20
-36.003
 11
15.2811
 21
-36.0266
  0
LINE
  8
0
 10
15.2811
 20
-36.0266
 11
15.4635
 21
-36.0734
  0
LINE
  8
0
 10
15.4635
 20
-36.0734
 11
15.6387
 21
-36.1428
  0
LINE
  8
0
 10
15.6387
 20
-36.1428
 11
15.8037
 21
-36.2335
  0
LINE
  8
0
 10
15.8037
 20
-36.2335
 11
15.9561
 21
-36.3442
  0
LINE
  8
0
 10
15.9561
 20
-36.3442
 11
16.0934
 21
-36.4732
  0
LINE
  8
0
 10
16.0934
 20
-36.4732
 11
16.2135
 21
-36.6183
  0
LINE
  8
0
 10
16.2135
 20
-36.6183
 11
16.3145
 21
-36.7774
  0
LINE
  8
0
 10
16.3145
 20
-36.7774
 11
16.3947
 21
-36.9478
  0
LINE
  8
0
 10
16.3947
 20
-36.9478
 11
16.4529
 21
-37.127
  0
LINE
  8
0
 10
16.4529
 20
-37.127
 11
16.4882
 21
-37.312
  0
LINE
  8
0
 10
16.4882
 20
-37.312
 11
16.5
 21
-37.5
  0
LINE
  8
0
 10
16.5
 20
-37.5
 11
16.4882
 21
-37.688
  0
LINE
  8
0
 10
16.4882
 20
-37.688
 11
16.4529
 21
-37.873
  0
LINE
  8
0
 10
16.4529
 20
-37.873
 11
16.3947
 21
-38.0522
  0
LINE
  8
0
 10
16.3947
 20
-38.0522
 11
16.3145
 21
-38.2226
  0
LINE
  8
0
 10
16.3145
 20
-38.2226
 11
16.2135
 21
-38.3817
  0
LINE
  8
0
 10
16.2135
 20
-38.3817
 11
16.0934
 21
-38.5268
  0
LINE
  8
0
 10
16.0934
 20
-38.5268
 11
15.9561
 21
-38.6558
  0
LINE
  8
0
 10
15.9561
 20
-38.6558
 11
15.8037
 21
-38.7665
  0
LINE
  8
0
 10
15.8037
 20
-38.7665
 11
15.6387
 21
-38.8572
  0
LINE
  8
0
 10
15.6387
 20
-38.8572
 11
15.4635
 21
-38.9266
  0
LINE
  8
0
 10
15.4635
 20
-38.9266
 11
15.2811
 21
-38.9734
  0
LINE
  8
0
 10
15.2811
 20
-38.9734
 11
15.0942
 21
-38.997
  0
LINE
  8
0
 10
15.0942
 20
-38.997
 11
14.9058
 21
-38.997
  0
ENDSEC
  0
SECTION
  2
OBJECTS
  0
DICTIONARY
  0
ENDSEC
  0
EOF
