  0
SECTION
  2
BLOCKS
  0
ENDSEC
  0
SECTION
  2
ENTITIES
  0
LINE
  8
0
 10
47.9369
 20
-29.4114
 11
48.5451
 21
-29.2553
  0
LINE
  8
0
 10
48.5451
 20
-29.2553
 11
49.1289
 21
-29.0241
  0
LINE
  8
0
 10
49.1289
 20
-29.0241
 11
49.6791
 21
-28.7216
  0
LINE
  8
0
 10
49.6791
 20
-28.7216
 11
50.1871
 21
-28.3526
  0
LINE
  8
0
 10
50.1871
 20
-28.3526
 11
50.6448
 21
-27.9227
  0
LINE
  8
0
 10
50.6448
 20
-27.9227
 11
51.0451
 21
-27.4389
  0
LINE
  8
0
 10
51.0451
 20
-27.4389
 11
51.3815
 21
-26.9088
  0
LINE
  8
0
 10
51.3815
 20
-26.9088
 11
51.6489
 21
-26.3406
  0
LINE
  8
0
 10
51.6489
 20
-26.3406
 11
51.8429
 21
-25.7434
  0
LINE
  8
0
 10
51.8429
 20
-25.7434
 11
51.9606
 21
-25.1267
  0
LINE
  8
0
 10
51.9606
 20
-25.1267
 11
52
 21
-24.5
  0
LINE
  8
0
 10
52
 20
-24.5
 11
52
 21
24.5
  0
LINE
  8
0
 10
52
 20
24.5
 11
51.9606
 21
25.1267
  0
LINE
  8
0
 10
51.9606
 20
25.1267
 11
51.8429
 21
25.7434
  0
LINE
  8
0
 10
51.8429
 20
25.7434
 11
51.6489
 21
26.3406
  0
LINE
  8
0
 10
51.6489
 20
26.3406
 11
51.3815
 21
26.9088
  0
LINE
  8
0
 10
51.3815
 20
26.9088
 11
51.0451
 21
27.4389
  0
LINE
  8
0
 10
51.0451
 20
27.4389
 11
50.6448
 21
27.9227
  0
LINE
  8
0
 10
50.6448
 20
27.9227
 11
50.1871
 21
28.3526
  0
LINE
  8
0
 10
50.1871
 20
28.3526
 11
49.6791
 21
28.7216
  0
LINE
  8
0
 10
49.6791
 20
28.7216
 11
49.1289
 21
29.0241
  0
LINE
  8
0
 10
49.1289
 20
29.0241
 11
48.5451
 21
29.2553
  0
LINE
  8
0
 10
48.5451
 20
29.2553
 11
47.9369
 21
29.4114
  0
LINE
  8
0
 10
47.9369
 20
29.4114
 11
47.3139
 21
29.4901
  0
LINE
  8
0
 10
47.3139
 20
29.4901
 11
-47.3139
 21
29.4901
  0
LINE
  8
0
 10
-47.3139
 20
29.4901
 11
-47.9369
 21
29.4114
  0
LINE
  8
0
 10
-47.9369
 20
29.4114
 11
-48.5451
 21
29.2553
  0
LINE
  8
0
 10
-48.5451
 20
29.2553
 11
-49.1289
 21
29.0241
  0
LINE
  8
0
 10
-49.1289
 20
29.0241
 11
-49.6791
 21
28.7216
  0
LINE
  8
0
 10
-49.6791
 20
28.7216
 11
-50.1871
 21
28.3526
  0
LINE
  8
0
 10
-50.1871
 20
28.3526
 11
-50.6448
 21
27.9227
  0
LINE
  8
0
 10
-50.6448
 20
27.9227
 11
-51.0451
 21
27.4389
  0
LINE
  8
0
 10
-51.0451
 20
27.4389
 11
-51.3815
 21
26.9088
  0
LINE
  8
0
 10
-51.3815
 20
26.9088
 11
-51.6489
 21
26.3406
  0
LINE
  8
0
 10
-51.6489
 20
26.3406
 11
-51.8429
 21
25.7434
  0
LINE
  8
0
 10
-51.8429
 20
25.7434
 11
-51.9606
 21
25.1267
  0
LINE
  8
0
 10
-51.9606
 20
25.1267
 11
-52
 21
24.5
  0
LINE
  8
0
 10
-52
 20
24.5
 11
-52
 21
-24.5
  0
LINE
  8
0
 10
-52
 20
-24.5
 11
-51.9606
 21
-25.1267
  0
LINE
  8
0
 10
-51.9606
 20
-25.1267
 11
-51.8429
 21
-25.7434
  0
LINE
  8
0
 10
-51.8429
 20
-25.7434
 11
-51.6489
 21
-26.3406
  0
LINE
  8
0
 10
-51.6489
 20
-26.3406
 11
-51.3815
 21
-26.9088
  0
LINE
  8
0
 10
-51.3815
 20
-26.9088
 11
-51.0451
 21
-27.4389
  0
LINE
  8
0
 10
-51.0451
 20
-27.4389
 11
-50.6448
 21
-27.9227
  0
LINE
  8
0
 10
-50.6448
 20
-27.9227
 11
-50.1871
 21
-28.3526
  0
LINE
  8
0
 10
-50.1871
 20
-28.3526
 11
-49.6791
 21
-28.7216
  0
LINE
  8
0
 10
-49.6791
 20
-28.7216
 11
-49.1289
 21
-29.0241
  0
LINE
  8
0
 10
-49.1289
 20
-29.0241
 11
-48.5451
 21
-29.2553
  0
LINE
  8
0
 10
-48.5451
 20
-29.2553
 11
-47.9369
 21
-29.4114
  0
LINE
  8
0
 10
-47.9369
 20
-29.4114
 11
-47.3139
 21
-29.4901
  0
LINE
  8
0
 10
-47.3139
 20
-29.4901
 11
47.3139
 21
-29.4901
  0
LINE
  8
0
 10
47.3139
 20
-29.4901
 11
47.9369
 21
-29.4114
  0
LINE
  8
0
 10
-45.1884
 20
19.5059
 11
-45.5621
 21
19.5531
  0
LINE
  8
0
 10
-45.5621
 20
19.5531
 11
-45.927
 21
19.6468
  0
LINE
  8
0
 10
-45.927
 20
19.6468
 11
-46.2773
 21
19.7855
  0
LINE
  8
0
 10
-46.2773
 20
19.7855
 11
-46.6075
 21
19.967
  0
LINE
  8
0
 10
-46.6075
 20
19.967
 11
-46.9123
 21
20.1884
  0
LINE
  8
0
 10
-46.9123
 20
20.1884
 11
-47.1869
 21
20.4464
  0
LINE
  8
0
 10
-47.1869
 20
20.4464
 11
-47.427
 21
20.7366
  0
LINE
  8
0
 10
-47.427
 20
20.7366
 11
-47.6289
 21
21.0547
  0
LINE
  8
0
 10
-47.6289
 20
21.0547
 11
-47.7893
 21
21.3956
  0
LINE
  8
0
 10
-47.7893
 20
21.3956
 11
-47.9057
 21
21.7539
  0
LINE
  8
0
 10
-47.9057
 20
21.7539
 11
-47.9763
 21
22.124
  0
LINE
  8
0
 10
-47.9763
 20
22.124
 11
-48
 21
22.5
  0
LINE
  8
0
 10
-48
 20
22.5
 11
-47.9763
 21
22.876
  0
LINE
  8
0
 10
-47.9763
 20
22.876
 11
-47.9057
 21
23.2461
  0
LINE
  8
0
 10
-47.9057
 20
23.2461
 11
-47.7893
 21
23.6044
  0
LINE
  8
0
 10
-47.7893
 20
23.6044
 11
-47.6289
 21
23.9453
  0
LINE
  8
0
 10
-47.6289
 20
23.9453
 11
-47.427
 21
24.2634
  0
LINE
  8
0
 10
-47.427
 20
24.2634
 11
-47.1869
 21
24.5536
  0
LINE
  8
0
 10
-47.1869
 20
24.5536
 11
-46.9123
 21
24.8115
  0
LINE
  8
0
 10
-46.9123
 20
24.8115
 11
-46.6075
 21
25.033
  0
LINE
  8
0
 10
-46.6075
 20
25.033
 11
-46.2773
 21
25.2145
  0
LINE
  8
0
 10
-46.2773
 20
25.2145
 11
-45.927
 21
25.3532
  0
LINE
  8
0
 10
-45.927
 20
25.3532
 11
-45.5621
 21
25.4469
  0
LINE
  8
0
 10
-45.5621
 20
25.4469
 11
-45.1884
 21
25.4941
  0
LINE
  8
0
 10
-45.1884
 20
25.4941
 11
-44.8116
 21
25.4941
  0
LINE
  8
0
 10
-44.8116
 20
25.4941
 11
-44.4379
 21
25.4469
  0
LINE
  8
0
 10
-44.4379
 20
25.4469
 11
-44.0729
 21
25.3532
  0
LINE
  8
0
 10
-44.0729
 20
25.3532
 11
-43.7227
 21
25.2145
  0
LINE
  8
0
 10
-43.7227
 20
25.2145
 11
-43.3925
 21
25.033
  0
LINE
  8
0
 10
-43.3925
 20
25.033
 11
-43.0877
 21
24.8115
  0
LINE
  8
0
 10
-43.0877
 20
24.8115
 11
-42.8131
 21
24.5536
  0
LINE
  8
0
 10
-42.8131
 20
24.5536
 11
-42.5729
 21
24.2634
  0
LINE
  8
0
 10
-42.5729
 20
24.2634
 11
-42.3711
 21
23.9453
  0
LINE
  8
0
 10
-42.3711
 20
23.9453
 11
-42.2107
 21
23.6044
  0
LINE
  8
0
 10
-42.2107
 20
23.6044
 11
-42.0942
 21
23.2461
  0
LINE
  8
0
 10
-42.0942
 20
23.2461
 11
-42.0237
 21
22.876
  0
LINE
  8
0
 10
-42.0237
 20
22.876
 11
-42
 21
22.5
  0
LINE
  8
0
 10
-42
 20
22.5
 11
-42.0237
 21
22.124
  0
LINE
  8
0
 10
-42.0237
 20
22.124
 11
-42.0942
 21
21.7539
  0
LINE
  8
0
 10
-42.0942
 20
21.7539
 11
-42.2107
 21
21.3956
  0
LINE
  8
0
 10
-42.2107
 20
21.3956
 11
-42.3711
 21
21.0547
  0
LINE
  8
0
 10
-42.3711
 20
21.0547
 11
-42.5729
 21
20.7366
  0
LINE
  8
0
 10
-42.5729
 20
20.7366
 11
-42.8131
 21
20.4464
  0
LINE
  8
0
 10
-42.8131
 20
20.4464
 11
-43.0877
 21
20.1884
  0
LINE
  8
0
 10
-43.0877
 20
20.1884
 11
-43.3925
 21
19.967
  0
LINE
  8
0
 10
-43.3925
 20
19.967
 11
-43.7227
 21
19.7855
  0
LINE
  8
0
 10
-43.7227
 20
19.7855
 11
-44.0729
 21
19.6468
  0
LINE
  8
0
 10
-44.0729
 20
19.6468
 11
-44.4379
 21
19.5531
  0
LINE
  8
0
 10
-44.4379
 20
19.5531
 11
-44.8116
 21
19.5059
  0
LINE
  8
0
 10
-44.8116
 20
19.5059
 11
-45.1884
 21
19.5059
  0
LINE
  8
0
 10
44.8116
 20
19.5059
 11
44.4379
 21
19.5531
  0
LINE
  8
0
 10
44.4379
 20
19.5531
 11
44.0729
 21
19.6468
  0
LINE
  8
0
 10
44.0729
 20
19.6468
 11
43.7227
 21
19.7855
  0
LINE
  8
0
 10
43.7227
 20
19.7855
 11
43.3925
 21
19.967
  0
LINE
  8
0
 10
43.3925
 20
19.967
 11
43.0877
 21
20.1884
  0
LINE
  8
0
 10
43.0877
 20
20.1884
 11
42.8131
 21
20.4464
  0
LINE
  8
0
 10
42.8131
 20
20.4464
 11
42.5729
 21
20.7366
  0
LINE
  8
0
 10
42.5729
 20
20.7366
 11
42.3711
 21
21.0547
  0
LINE
  8
0
 10
42.3711
 20
21.0547
 11
42.2107
 21
21.3956
  0
LINE
  8
0
 10
42.2107
 20
21.3956
 11
42.0942
 21
21.7539
  0
LINE
  8
0
 10
42.0942
 20
21.7539
 11
42.0237
 21
22.124
  0
LINE
  8
0
 10
42.0237
 20
22.124
 11
42
 21
22.5
  0
LINE
  8
0
 10
42
 20
22.5
 11
42.0237
 21
22.876
  0
LINE
  8
0
 10
42.0237
 20
22.876
 11
42.0942
 21
23.2461
  0
LINE
  8
0
 10
42.0942
 20
23.2461
 11
42.2107
 21
23.6044
  0
LINE
  8
0
 10
42.2107
 20
23.6044
 11
42.3711
 21
23.9453
  0
LINE
  8
0
 10
42.3711
 20
23.9453
 11
42.5729
 21
24.2634
  0
LINE
  8
0
 10
42.5729
 20
24.2634
 11
42.8131
 21
24.5536
  0
LINE
  8
0
 10
42.8131
 20
24.5536
 11
43.0877
 21
24.8115
  0
LINE
  8
0
 10
43.0877
 20
24.8115
 11
43.3925
 21
25.033
  0
LINE
  8
0
 10
43.3925
 20
25.033
 11
43.7227
 21
25.2145
  0
LINE
  8
0
 10
43.7227
 20
25.2145
 11
44.0729
 21
25.3532
  0
LINE
  8
0
 10
44.0729
 20
25.3532
 11
44.4379
 21
25.4469
  0
LINE
  8
0
 10
44.4379
 20
25.4469
 11
44.8116
 21
25.4941
  0
LINE
  8
0
 10
44.8116
 20
25.4941
 11
45.1884
 21
25.4941
  0
LINE
  8
0
 10
45.1884
 20
25.4941
 11
45.5621
 21
25.4469
  0
LINE
  8
0
 10
45.5621
 20
25.4469
 11
45.927
 21
25.3532
  0
LINE
  8
0
 10
45.927
 20
25.3532
 11
46.2773
 21
25.2145
  0
LINE
  8
0
 10
46.2773
 20
25.2145
 11
46.6075
 21
25.033
  0
LINE
  8
0
 10
46.6075
 20
25.033
 11
46.9123
 21
24.8115
  0
LINE
  8
0
 10
46.9123
 20
24.8115
 11
47.1869
 21
24.5536
  0
LINE
  8
0
 10
47.1869
 20
24.5536
 11
47.427
 21
24.2634
  0
LINE
  8
0
 10
47.427
 20
24.2634
 11
47.6289
 21
23.9453
  0
LINE
  8
0
 10
47.6289
 20
23.9453
 11
47.7893
 21
23.6044
  0
LINE
  8
0
 10
47.7893
 20
23.6044
 11
47.9057
 21
23.2461
  0
LINE
  8
0
 10
47.9057
 20
23.2461
 11
47.9763
 21
22.876
  0
LINE
  8
0
 10
47.9763
 20
22.876
 11
48
 21
22.5
  0
LINE
  8
0
 10
48
 20
22.5
 11
47.9763
 21
22.124
  0
LINE
  8
0
 10
47.9763
 20
22.124
 11
47.9057
 21
21.7539
  0
LINE
  8
0
 10
47.9057
 20
21.7539
 11
47.7893
 21
21.3956
  0
LINE
  8
0
 10
47.7893
 20
21.3956
 11
47.6289
 21
21.0547
  0
LINE
  8
0
 10
47.6289
 20
21.0547
 11
47.427
 21
20.7366
  0
LINE
  8
0
 10
47.427
 20
20.7366
 11
47.1869
 21
20.4464
  0
LINE
  8
0
 10
47.1869
 20
20.4464
 11
46.9123
 21
20.1884
  0
LINE
  8
0
 10
46.9123
 20
20.1884
 11
46.6075
 21
19.967
  0
LINE
  8
0
 10
46.6075
 20
19.967
 11
46.2773
 21
19.7855
  0
LINE
  8
0
 10
46.2773
 20
19.7855
 11
45.927
 21
19.6468
  0
LINE
  8
0
 10
45.927
 20
19.6468
 11
45.5621
 21
19.5531
  0
LINE
  8
0
 10
45.5621
 20
19.5531
 11
45.1884
 21
19.5059
  0
LINE
  8
0
 10
45.1884
 20
19.5059
 11
44.8116
 21
19.5059
  0
LINE
  8
0
 10
21.7128
 20
-20.4595
 11
19.1587
 21
-20.1369
  0
LINE
  8
0
 10
19.1587
 20
-20.1369
 11
16.6651
 21
-19.4967
  0
LINE
  8
0
 10
16.6651
 20
-19.4967
 11
14.2715
 21
-18.549
  0
LINE
  8
0
 10
14.2715
 20
-18.549
 11
12.0155
 21
-17.3087
  0
LINE
  8
0
 10
12.0155
 20
-17.3087
 11
9.9328
 21
-15.7955
  0
LINE
  8
0
 10
9.9328
 20
-15.7955
 11
8.05614
 21
-14.0332
  0
LINE
  8
0
 10
8.05614
 20
-14.0332
 11
6.41515
 21
-12.0496
  0
LINE
  8
0
 10
6.41515
 20
-12.0496
 11
5.03571
 21
-9.87595
  0
LINE
  8
0
 10
5.03571
 20
-9.87595
 11
3.93958
 21
-7.54654
  0
LINE
  8
0
 10
3.93958
 20
-7.54654
 11
3.14404
 21
-5.09813
  0
LINE
  8
0
 10
3.14404
 20
-5.09813
 11
2.66164
 21
-2.56932
  0
LINE
  8
0
 10
2.66164
 20
-2.56932
 11
2.5
 21
0
  0
LINE
  8
0
 10
2.5
 20
0
 11
2.66164
 21
2.56932
  0
LINE
  8
0
 10
2.66164
 20
2.56932
 11
3.14404
 21
5.09813
  0
LINE
  8
0
 10
3.14404
 20
5.09813
 11
3.93958
 21
7.54654
  0
LINE
  8
0
 10
3.93958
 20
7.54654
 11
5.03571
 21
9.87595
  0
LINE
  8
0
 10
5.03571
 20
9.87595
 11
6.41515
 21
12.0496
  0
LINE
  8
0
 10
6.41515
 20
12.0496
 11
8.05614
 21
14.0332
  0
LINE
  8
0
 10
8.05614
 20
14.0332
 11
9.9328
 21
15.7955
  0
LINE
  8
0
 10
9.9328
 20
15.7955
 11
12.0155
 21
17.3087
  0
LINE
  8
0
 10
12.0155
 20
17.3087
 11
14.2715
 21
18.549
  0
LINE
  8
0
 10
14.2715
 20
18.549
 11
16.6651
 21
19.4967
  0
LINE
  8
0
 10
16.6651
 20
19.4967
 11
19.1587
 21
20.1369
  0
LINE
  8
0
 10
19.1587
 20
20.1369
 11
21.7128
 21
20.4595
  0
LINE
  8
0
 10
21.7128
 20
20.4595
 11
24.2872
 21
20.4595
  0
LINE
  8
0
 10
24.2872
 20
20.4595
 11
26.8413
 21
20.1369
  0
LINE
  8
0
 10
26.8413
 20
20.1369
 11
29.3348
 21
19.4967
  0
LINE
  8
0
 10
29.3348
 20
19.4967
 11
31.7285
 21
18.549
  0
LINE
  8
0
 10
31.7285
 20
18.549
 11
33.9844
 21
17.3087
  0
LINE
  8
0
 10
33.9844
 20
17.3087
 11
36.0672
 21
15.7955
  0
LINE
  8
0
 10
36.0672
 20
15.7955
 11
37.9438
 21
14.0332
  0
LINE
  8
0
 10
37.9438
 20
14.0332
 11
39.5848
 21
12.0496
  0
LINE
  8
0
 10
39.5848
 20
12.0496
 11
40.9643
 21
9.87595
  0
LINE
  8
0
 10
40.9643
 20
9.87595
 11
42.0604
 21
7.54654
  0
LINE
  8
0
 10
42.0604
 20
7.54654
 11
42.8559
 21
5.09813
  0
LINE
  8
0
 10
42.8559
 20
5.09813
 11
43.3383
 21
2.56932
  0
LINE
  8
0
 10
43.3383
 20
2.56932
 11
43.5
 21
0
  0
LINE
  8
0
 10
43.5
 20
0
 11
43.3383
 21
-2.56932
  0
LINE
  8
0
 10
43.3383
 20
-2.56932
 11
42.8559
 21
-5.09813
  0
LINE
  8
0
 10
42.8559
 20
-5.09813
 11
42.0604
 21
-7.54654
  0
LINE
  8
0
 10
42.0604
 20
-7.54654
 11
40.9643
 21
-9.87595
  0
LINE
  8
0
 10
40.9643
 20
-9.87595
 11
39.5848
 21
-12.0496
  0
LINE
  8
0
 10
39.5848
 20
-12.0496
 11
37.9438
 21
-14.0332
  0
LINE
  8
0
 10
37.9438
 20
-14.0332
 11
36.0672
 21
-15.7955
  0
LINE
  8
0
 10
36.0672
 20
-15.7955
 11
33.9844
 21
-17.3087
  0
LINE
  8
0
 10
33.9844
 20
-17.3087
 11
31.7285
 21
-18.549
  0
LINE
  8
0
 10
31.7285
 20
-18.549
 11
29.3348
 21
-19.4967
  0
LINE
  8
0
 10
29.3348
 20
-19.4967
 11
26.8413
 21
-20.1369
  0
LINE
  8
0
 10
26.8413
 20
-20.1369
 11
24.2872
 21
-20.4595
  0
LINE
  8
0
 10
24.2872
 20
-20.4595
 11
21.7128
 21
-20.4595
  0
LINE
  8
0
 10
-24.2872
 20
-20.4595
 11
-26.8413
 21
-20.1369
  0
LINE
  8
0
 10
-26.8413
 20
-20.1369
 11
-29.3348
 21
-19.4967
  0
LINE
  8
0
 10
-29.3348
 20
-19.4967
 11
-31.7285
 21
-18.549
  0
LINE
  8
0
 10
-31.7285
 20
-18.549
 11
-33.9844
 21
-17.3087
  0
LINE
  8
0
 10
-33.9844
 20
-17.3087
 11
-36.0672
 21
-15.7955
  0
LINE
  8
0
 10
-36.0672
 20
-15.7955
 11
-37.9438
 21
-14.0332
  0
LINE
  8
0
 10
-37.9438
 20
-14.0332
 11
-39.5848
 21
-12.0496
  0
LINE
  8
0
 10
-39.5848
 20
-12.0496
 11
-40.9643
 21
-9.87595
  0
LINE
  8
0
 10
-40.9643
 20
-9.87595
 11
-42.0604
 21
-7.54654
  0
LINE
  8
0
 10
-42.0604
 20
-7.54654
 11
-42.8559
 21
-5.09813
  0
LINE
  8
0
 10
-42.8559
 20
-5.09813
 11
-43.3383
 21
-2.56932
  0
LINE
  8
0
 10
-43.3383
 20
-2.56932
 11
-43.5
 21
0
  0
LINE
  8
0
 10
-43.5
 20
0
 11
-43.3383
 21
2.56932
  0
LINE
  8
0
 10
-43.3383
 20
2.56932
 11
-42.8559
 21
5.09813
  0
LINE
  8
0
 10
-42.8559
 20
5.09813
 11
-42.0604
 21
7.54654
  0
LINE
  8
0
 10
-42.0604
 20
7.54654
 11
-40.9643
 21
9.87595
  0
LINE
  8
0
 10
-40.9643
 20
9.87595
 11
-39.5848
 21
12.0496
  0
LINE
  8
0
 10
-39.5848
 20
12.0496
 11
-37.9438
 21
14.0332
  0
LINE
  8
0
 10
-37.9438
 20
14.0332
 11
-36.0672
 21
15.7955
  0
LINE
  8
0
 10
-36.0672
 20
15.7955
 11
-33.9844
 21
17.3087
  0
LINE
  8
0
 10
-33.9844
 20
17.3087
 11
-31.7285
 21
18.549
  0
LINE
  8
0
 10
-31.7285
 20
18.549
 11
-29.3348
 21
19.4967
  0
LINE
  8
0
 10
-29.3348
 20
19.4967
 11
-26.8413
 21
20.1369
  0
LINE
  8
0
 10
-26.8413
 20
20.1369
 11
-24.2872
 21
20.4595
  0
LINE
  8
0
 10
-24.2872
 20
20.4595
 11
-21.7128
 21
20.4595
  0
LINE
  8
0
 10
-21.7128
 20
20.4595
 11
-19.1587
 21
20.1369
  0
LINE
  8
0
 10
-19.1587
 20
20.1369
 11
-16.6651
 21
19.4967
  0
LINE
  8
0
 10
-16.6651
 20
19.4967
 11
-14.2715
 21
18.549
  0
LINE
  8
0
 10
-14.2715
 20
18.549
 11
-12.0155
 21
17.3087
  0
LINE
  8
0
 10
-12.0155
 20
17.3087
 11
-9.9328
 21
15.7955
  0
LINE
  8
0
 10
-9.9328
 20
15.7955
 11
-8.05614
 21
14.0332
  0
LINE
  8
0
 10
-8.05614
 20
14.0332
 11
-6.41515
 21
12.0496
  0
LINE
  8
0
 10
-6.41515
 20
12.0496
 11
-5.03571
 21
9.87595
  0
LINE
  8
0
 10
-5.03571
 20
9.87595
 11
-3.93958
 21
7.54654
  0
LINE
  8
0
 10
-3.93958
 20
7.54654
 11
-3.14404
 21
5.09813
  0
LINE
  8
0
 10
-3.14404
 20
5.09813
 11
-2.66164
 21
2.56932
  0
LINE
  8
0
 10
-2.66164
 20
2.56932
 11
-2.5
 21
0
  0
LINE
  8
0
 10
-2.5
 20
0
 11
-2.66164
 21
-2.56932
  0
LINE
  8
0
 10
-2.66164
 20
-2.56932
 11
-3.14404
 21
-5.09813
  0
LINE
  8
0
 10
-3.14404
 20
-5.09813
 11
-3.93958
 21
-7.54654
  0
LINE
  8
0
 10
-3.93958
 20
-7.54654
 11
-5.03571
 21
-9.87595
  0
LINE
  8
0
 10
-5.03571
 20
-9.87595
 11
-6.41515
 21
-12.0496
  0
LINE
  8
0
 10
-6.41515
 20
-12.0496
 11
-8.05614
 21
-14.0332
  0
LINE
  8
0
 10
-8.05614
 20
-14.0332
 11
-9.9328
 21
-15.7955
  0
LINE
  8
0
 10
-9.9328
 20
-15.7955
 11
-12.0155
 21
-17.3087
  0
LINE
  8
0
 10
-12.0155
 20
-17.3087
 11
-14.2715
 21
-18.549
  0
LINE
  8
0
 10
-14.2715
 20
-18.549
 11
-16.6651
 21
-19.4967
  0
LINE
  8
0
 10
-16.6651
 20
-19.4967
 11
-19.1587
 21
-20.1369
  0
LINE
  8
0
 10
-19.1587
 20
-20.1369
 11
-21.7128
 21
-20.4595
  0
LINE
  8
0
 10
-21.7128
 20
-20.4595
 11
-24.2872
 21
-20.4595
  0
LINE
  8
0
 10
44.8116
 20
-25.4941
 11
44.4379
 21
-25.4469
  0
LINE
  8
0
 10
44.4379
 20
-25.4469
 11
44.0729
 21
-25.3532
  0
LINE
  8
0
 10
44.0729
 20
-25.3532
 11
43.7227
 21
-25.2145
  0
LINE
  8
0
 10
43.7227
 20
-25.2145
 11
43.3925
 21
-25.033
  0
LINE
  8
0
 10
43.3925
 20
-25.033
 11
43.0877
 21
-24.8115
  0
LINE
  8
0
 10
43.0877
 20
-24.8115
 11
42.8131
 21
-24.5536
  0
LINE
  8
0
 10
42.8131
 20
-24.5536
 11
42.5729
 21
-24.2634
  0
LINE
  8
0
 10
42.5729
 20
-24.2634
 11
42.3711
 21
-23.9453
  0
LINE
  8
0
 10
42.3711
 20
-23.9453
 11
42.2107
 21
-23.6044
  0
LINE
  8
0
 10
42.2107
 20
-23.6044
 11
42.0942
 21
-23.2461
  0
LINE
  8
0
 10
42.0942
 20
-23.2461
 11
42.0237
 21
-22.876
  0
LINE
  8
0
 10
42.0237
 20
-22.876
 11
42
 21
-22.5
  0
LINE
  8
0
 10
42
 20
-22.5
 11
42.0237
 21
-22.124
  0
LINE
  8
0
 10
42.0237
 20
-22.124
 11
42.0942
 21
-21.7539
  0
LINE
  8
0
 10
42.0942
 20
-21.7539
 11
42.2107
 21
-21.3956
  0
LINE
  8
0
 10
42.2107
 20
-21.3956
 11
42.3711
 21
-21.0547
  0
LINE
  8
0
 10
42.3711
 20
-21.0547
 11
42.5729
 21
-20.7366
  0
LINE
  8
0
 10
42.5729
 20
-20.7366
 11
42.8131
 21
-20.4464
  0
LINE
  8
0
 10
42.8131
 20
-20.4464
 11
43.0877
 21
-20.1884
  0
LINE
  8
0
 10
43.0877
 20
-20.1884
 11
43.3925
 21
-19.967
  0
LINE
  8
0
 10
43.3925
 20
-19.967
 11
43.7227
 21
-19.7855
  0
LINE
  8
0
 10
43.7227
 20
-19.7855
 11
44.0729
 21
-19.6468
  0
LINE
  8
0
 10
44.0729
 20
-19.6468
 11
44.4379
 21
-19.5531
  0
LINE
  8
0
 10
44.4379
 20
-19.5531
 11
44.8116
 21
-19.5059
  0
LINE
  8
0
 10
44.8116
 20
-19.5059
 11
45.1884
 21
-19.5059
  0
LINE
  8
0
 10
45.1884
 20
-19.5059
 11
45.5621
 21
-19.5531
  0
LINE
  8
0
 10
45.5621
 20
-19.5531
 11
45.927
 21
-19.6468
  0
LINE
  8
0
 10
45.927
 20
-19.6468
 11
46.2773
 21
-19.7855
  0
LINE
  8
0
 10
46.2773
 20
-19.7855
 11
46.6075
 21
-19.967
  0
LINE
  8
0
 10
46.6075
 20
-19.967
 11
46.9123
 21
-20.1884
  0
LINE
  8
0
 10
46.9123
 20
-20.1884
 11
47.1869
 21
-20.4464
  0
LINE
  8
0
 10
47.1869
 20
-20.4464
 11
47.427
 21
-20.7366
  0
LINE
  8
0
 10
47.427
 20
-20.7366
 11
47.6289
 21
-21.0547
  0
LINE
  8
0
 10
47.6289
 20
-21.0547
 11
47.7893
 21
-21.3956
  0
LINE
  8
0
 10
47.7893
 20
-21.3956
 11
47.9057
 21
-21.7539
  0
LINE
  8
0
 10
47.9057
 20
-21.7539
 11
47.9763
 21
-22.124
  0
LINE
  8
0
 10
47.9763
 20
-22.124
 11
48
 21
-22.5
  0
LINE
  8
0
 10
48
 20
-22.5
 11
47.9763
 21
-22.876
  0
LINE
  8
0
 10
47.9763
 20
-22.876
 11
47.9057
 21
-23.2461
  0
LINE
  8
0
 10
47.9057
 20
-23.2461
 11
47.7893
 21
-23.6044
  0
LINE
  8
0
 10
47.7893
 20
-23.6044
 11
47.6289
 21
-23.9453
  0
LINE
  8
0
 10
47.6289
 20
-23.9453
 11
47.427
 21
-24.2634
  0
LINE
  8
0
 10
47.427
 20
-24.2634
 11
47.1869
 21
-24.5536
  0
LINE
  8
0
 10
47.1869
 20
-24.5536
 11
46.9123
 21
-24.8115
  0
LINE
  8
0
 10
46.9123
 20
-24.8115
 11
46.6075
 21
-25.033
  0
LINE
  8
0
 10
46.6075
 20
-25.033
 11
46.2773
 21
-25.2145
  0
LINE
  8
0
 10
46.2773
 20
-25.2145
 11
45.927
 21
-25.3532
  0
LINE
  8
0
 10
45.927
 20
-25.3532
 11
45.5621
 21
-25.4469
  0
LINE
  8
0
 10
45.5621
 20
-25.4469
 11
45.1884
 21
-25.4941
  0
LINE
  8
0
 10
45.1884
 20
-25.4941
 11
44.8116
 21
-25.4941
  0
LINE
  8
0
 10
-45.1884
 20
-25.4941
 11
-45.5621
 21
-25.4469
  0
LINE
  8
0
 10
-45.5621
 20
-25.4469
 11
-45.927
 21
-25.3532
  0
LINE
  8
0
 10
-45.927
 20
-25.3532
 11
-46.2773
 21
-25.2145
  0
LINE
  8
0
 10
-46.2773
 20
-25.2145
 11
-46.6075
 21
-25.033
  0
LINE
  8
0
 10
-46.6075
 20
-25.033
 11
-46.9123
 21
-24.8115
  0
LINE
  8
0
 10
-46.9123
 20
-24.8115
 11
-47.1869
 21
-24.5536
  0
LINE
  8
0
 10
-47.1869
 20
-24.5536
 11
-47.427
 21
-24.2634
  0
LINE
  8
0
 10
-47.427
 20
-24.2634
 11
-47.6289
 21
-23.9453
  0
LINE
  8
0
 10
-47.6289
 20
-23.9453
 11
-47.7893
 21
-23.6044
  0
LINE
  8
0
 10
-47.7893
 20
-23.6044
 11
-47.9057
 21
-23.2461
  0
LINE
  8
0
 10
-47.9057
 20
-23.2461
 11
-47.9763
 21
-22.876
  0
LINE
  8
0
 10
-47.9763
 20
-22.876
 11
-48
 21
-22.5
  0
LINE
  8
0
 10
-48
 20
-22.5
 11
-47.9763
 21
-22.124
  0
LINE
  8
0
 10
-47.9763
 20
-22.124
 11
-47.9057
 21
-21.7539
  0
LINE
  8
0
 10
-47.9057
 20
-21.7539
 11
-47.7893
 21
-21.3956
  0
LINE
  8
0
 10
-47.7893
 20
-21.3956
 11
-47.6289
 21
-21.0547
  0
LINE
  8
0
 10
-47.6289
 20
-21.0547
 11
-47.427
 21
-20.7366
  0
LINE
  8
0
 10
-47.427
 20
-20.7366
 11
-47.1869
 21
-20.4464
  0
LINE
  8
0
 10
-47.1869
 20
-20.4464
 11
-46.9123
 21
-20.1884
  0
LINE
  8
0
 10
-46.9123
 20
-20.1884
 11
-46.6075
 21
-19.967
  0
LINE
  8
0
 10
-46.6075
 20
-19.967
 11
-46.2773
 21
-19.7855
  0
LINE
  8
0
 10
-46.2773
 20
-19.7855
 11
-45.927
 21
-19.6468
  0
LINE
  8
0
 10
-45.927
 20
-19.6468
 11
-45.5621
 21
-19.5531
  0
LINE
  8
0
 10
-45.5621
 20
-19.5531
 11
-45.1884
 21
-19.5059
  0
LINE
  8
0
 10
-45.1884
 20
-19.5059
 11
-44.8116
 21
-19.5059
  0
LINE
  8
0
 10
-44.8116
 20
-19.5059
 11
-44.4379
 21
-19.5531
  0
LINE
  8
0
 10
-44.4379
 20
-19.5531
 11
-44.0729
 21
-19.6468
  0
LINE
  8
0
 10
-44.0729
 20
-19.6468
 11
-43.7227
 21
-19.7855
  0
LINE
  8
0
 10
-43.7227
 20
-19.7855
 11
-43.3925
 21
-19.967
  0
LINE
  8
0
 10
-43.3925
 20
-19.967
 11
-43.0877
 21
-20.1884
  0
LINE
  8
0
 10
-43.0877
 20
-20.1884
 11
-42.8131
 21
-20.4464
  0
LINE
  8
0
 10
-42.8131
 20
-20.4464
 11
-42.5729
 21
-20.7366
  0
LINE
  8
0
 10
-42.5729
 20
-20.7366
 11
-42.3711
 21
-21.0547
  0
LINE
  8
0
 10
-42.3711
 20
-21.0547
 11
-42.2107
 21
-21.3956
  0
LINE
  8
0
 10
-42.2107
 20
-21.3956
 11
-42.0942
 21
-21.7539
  0
LINE
  8
0
 10
-42.0942
 20
-21.7539
 11
-42.0237
 21
-22.124
  0
LINE
  8
0
 10
-42.0237
 20
-22.124
 11
-42
 21
-22.5
  0
LINE
  8
0
 10
-42
 20
-22.5
 11
-42.0237
 21
-22.876
  0
LINE
  8
0
 10
-42.0237
 20
-22.876
 11
-42.0942
 21
-23.2461
  0
LINE
  8
0
 10
-42.0942
 20
-23.2461
 11
-42.2107
 21
-23.6044
  0
LINE
  8
0
 10
-42.2107
 20
-23.6044
 11
-42.3711
 21
-23.9453
  0
LINE
  8
0
 10
-42.3711
 20
-23.9453
 11
-42.5729
 21
-24.2634
  0
LINE
  8
0
 10
-42.5729
 20
-24.2634
 11
-42.8131
 21
-24.5536
  0
LINE
  8
0
 10
-42.8131
 20
-24.5536
 11
-43.0877
 21
-24.8115
  0
LINE
  8
0
 10
-43.0877
 20
-24.8115
 11
-43.3925
 21
-25.033
  0
LINE
  8
0
 10
-43.3925
 20
-25.033
 11
-43.7227
 21
-25.2145
  0
LINE
  8
0
 10
-43.7227
 20
-25.2145
 11
-44.0729
 21
-25.3532
  0
LINE
  8
0
 10
-44.0729
 20
-25.3532
 11
-44.4379
 21
-25.4469
  0
LINE
  8
0
 10
-44.4379
 20
-25.4469
 11
-44.8116
 21
-25.4941
  0
LINE
  8
0
 10
-44.8116
 20
-25.4941
 11
-45.1884
 21
-25.4941
  0
ENDSEC
  0
SECTION
  2
OBJECTS
  0
DICTIONARY
  0
ENDSEC
  0
EOF
