<?xml version="1.0" standalone="no"?>
<!DOCTYPE svg PUBLIC "-//W3C//DTD SVG 1.1//EN" "http://www.w3.org/Graphics/SVG/1.1/DTD/svg11.dtd">
<svg width="464mm" height="150mm" viewBox="-232 -75 464 150" xmlns="http://www.w3.org/2000/svg" version="1.1">
<title>OpenSCAD Model</title>
<path d="
M 227.937,74.4114 L 228.545,74.2553 L 229.129,74.0241 L 229.679,73.7216 L 230.187,73.3526 L 230.645,72.9227
 L 231.045,72.4389 L 231.382,71.9088 L 231.649,71.3406 L 231.843,70.7434 L 231.961,70.1267 L 232,69.5
 L 232,-69.5 L 231.961,-70.1267 L 231.843,-70.7434 L 231.649,-71.3406 L 231.382,-71.9088 L 231.045,-72.4389
 L 230.645,-72.9227 L 230.187,-73.3526 L 229.679,-73.7216 L 229.129,-74.0241 L 228.545,-74.2553 L 227.937,-74.4114
 L 227.314,-74.4901 L -227.314,-74.4901 L -227.937,-74.4114 L -228.545,-74.2553 L -229.129,-74.0241 L -229.679,-73.7216
 L -230.187,-73.3526 L -230.645,-72.9227 L -231.045,-72.4389 L -231.382,-71.9088 L -231.649,-71.3406 L -231.843,-70.7434
 L -231.961,-70.1267 L -232,-69.5 L -232,69.5 L -231.961,70.1267 L -231.843,70.7434 L -231.649,71.3406
 L -231.382,71.9088 L -231.045,72.4389 L -230.645,72.9227 L -230.187,73.3526 L -229.679,73.7216 L -229.129,74.0241
 L -228.545,74.2553 L -227.937,74.4114 L -227.314,74.4901 L 227.314,74.4901 z
M 224.812,-64.5059 L 224.438,-64.5531 L 224.073,-64.6468 L 223.723,-64.7855 L 223.393,-64.967 L 223.088,-65.1885
 L 222.813,-65.4464 L 222.573,-65.7366 L 222.371,-66.0547 L 222.211,-66.3956 L 222.094,-66.7539 L 222.024,-67.124
 L 222,-67.5 L 222.024,-67.876 L 222.094,-68.2461 L 222.211,-68.6044 L 222.371,-68.9453 L 222.573,-69.2634
 L 222.813,-69.5536 L 223.088,-69.8115 L 223.393,-70.033 L 223.723,-70.2145 L 224.073,-70.3532 L 224.438,-70.4469
 L 224.812,-70.4941 L 225.188,-70.4941 L 225.562,-70.4469 L 225.927,-70.3532 L 226.277,-70.2145 L 226.607,-70.033
 L 226.912,-69.8115 L 227.187,-69.5536 L 227.427,-69.2634 L 227.629,-68.9453 L 227.789,-68.6044 L 227.906,-68.2461
 L 227.976,-67.876 L 228,-67.5 L 227.976,-67.124 L 227.906,-66.7539 L 227.789,-66.3956 L 227.629,-66.0547
 L 227.427,-65.7366 L 227.187,-65.4464 L 226.912,-65.1885 L 226.607,-64.967 L 226.277,-64.7855 L 225.927,-64.6468
 L 225.562,-64.5531 L 225.188,-64.5059 z
M -225.188,-64.5059 L -225.562,-64.5531 L -225.927,-64.6468 L -226.277,-64.7855 L -226.607,-64.967 L -226.912,-65.1885
 L -227.187,-65.4464 L -227.427,-65.7366 L -227.629,-66.0547 L -227.789,-66.3956 L -227.906,-66.7539 L -227.976,-67.124
 L -228,-67.5 L -227.976,-67.876 L -227.906,-68.2461 L -227.789,-68.6044 L -227.629,-68.9453 L -227.427,-69.2634
 L -227.187,-69.5536 L -226.912,-69.8115 L -226.607,-70.033 L -226.277,-70.2145 L -225.927,-70.3532 L -225.562,-70.4469
 L -225.188,-70.4941 L -224.812,-70.4941 L -224.438,-70.4469 L -224.073,-70.3532 L -223.723,-70.2145 L -223.393,-70.033
 L -223.088,-69.8115 L -222.813,-69.5536 L -222.573,-69.2634 L -222.371,-68.9453 L -222.211,-68.6044 L -222.094,-68.2461
 L -222.024,-67.876 L -222,-67.5 L -222.024,-67.124 L -222.094,-66.7539 L -222.211,-66.3956 L -222.371,-66.0547
 L -222.573,-65.7366 L -222.813,-65.4464 L -223.088,-65.1885 L -223.393,-64.967 L -223.723,-64.7855 L -224.073,-64.6468
 L -224.438,-64.5531 L -224.812,-64.5059 z
M -149.395,69.8619 L -158.117,68.7601 L -166.631,66.574 L -174.805,63.3379 L -182.508,59.103 L -189.62,53.9359
 L -196.028,47.9183 L -201.631,41.145 L -206.341,33.7227 L -210.084,25.7687 L -212.801,17.4083 L -214.448,8.77332
 L -215,-0 L -214.448,-8.77332 L -212.801,-17.4083 L -210.084,-25.7687 L -206.341,-33.7227 L -201.631,-41.145
 L -196.028,-47.9183 L -189.62,-53.9359 L -182.508,-59.103 L -174.805,-63.3379 L -166.631,-66.574 L -158.117,-68.7601
 L -149.395,-69.8619 L -140.605,-69.8619 L -131.883,-68.7601 L -123.369,-66.574 L -115.195,-63.3379 L -107.492,-59.103
 L -100.38,-53.9359 L -93.9722,-47.9183 L -88.3688,-41.145 L -83.6585,-33.7227 L -79.9156,-25.7687 L -77.1992,-17.4083
 L -75.552,-8.77332 L -75,-0 L -75.552,8.77332 L -77.1992,17.4083 L -79.9156,25.7687 L -83.6585,33.7227
 L -88.3688,41.145 L -93.9722,47.9183 L -100.38,53.9359 L -107.492,59.103 L -115.195,63.3379 L -123.369,66.574
 L -131.883,68.7601 L -140.605,69.8619 z
M -4.39532,69.8619 L -13.1167,68.7601 L -21.6312,66.574 L -29.8046,63.3379 L -37.5079,59.103 L -44.6197,53.9359
 L -51.0278,47.9183 L -56.6312,41.145 L -61.3415,33.7227 L -65.0844,25.7687 L -67.8008,17.4083 L -69.448,8.77332
 L -70,-0 L -69.448,-8.77332 L -67.8008,-17.4083 L -65.0844,-25.7687 L -61.3415,-33.7227 L -56.6312,-41.145
 L -51.0278,-47.9183 L -44.6197,-53.9359 L -37.5079,-59.103 L -29.8046,-63.3379 L -21.6312,-66.574 L -13.1167,-68.7601
 L -4.39532,-69.8619 L 4.39532,-69.8619 L 13.1167,-68.7601 L 21.6312,-66.574 L 29.8046,-63.3379 L 37.5079,-59.103
 L 44.6197,-53.9359 L 51.0278,-47.9183 L 56.6312,-41.145 L 61.3415,-33.7227 L 65.0844,-25.7687 L 67.8008,-17.4083
 L 69.448,-8.77332 L 70,-0 L 69.448,8.77332 L 67.8008,17.4083 L 65.0844,25.7687 L 61.3415,33.7227
 L 56.6312,41.145 L 51.0278,47.9183 L 44.6197,53.9359 L 37.5079,59.103 L 29.8046,63.3379 L 21.6312,66.574
 L 13.1167,68.7601 L 4.39532,69.8619 z
M 140.605,69.8619 L 131.883,68.7601 L 123.369,66.574 L 115.195,63.3379 L 107.492,59.103 L 100.38,53.9359
 L 93.9722,47.9183 L 88.3688,41.145 L 83.6585,33.7227 L 79.9156,25.7687 L 77.1992,17.4083 L 75.552,8.77332
 L 75,-0 L 75.552,-8.77332 L 77.1992,-17.4083 L 79.9156,-25.7687 L 83.6585,-33.7227 L 88.3688,-41.145
 L 93.9722,-47.9183 L 100.38,-53.9359 L 107.492,-59.103 L 115.195,-63.3379 L 123.369,-66.574 L 131.883,-68.7601
 L 140.605,-69.8619 L 149.395,-69.8619 L 158.117,-68.7601 L 166.631,-66.574 L 174.805,-63.3379 L 182.508,-59.103
 L 189.62,-53.9359 L 196.028,-47.9183 L 201.631,-41.145 L 206.341,-33.7227 L 210.084,-25.7687 L 212.801,-17.4083
 L 214.448,-8.77332 L 215,-0 L 214.448,8.77332 L 212.801,17.4083 L 210.084,25.7687 L 206.341,33.7227
 L 201.631,41.145 L 196.028,47.9183 L 189.62,53.9359 L 182.508,59.103 L 174.805,63.3379 L 166.631,66.574
 L 158.117,68.7601 L 149.395,69.8619 z
M 224.906,-58.503 L 224.719,-58.5266 L 224.536,-58.5734 L 224.361,-58.6428 L 224.196,-58.7335 L 224.044,-58.8442
 L 223.907,-58.9732 L 223.786,-59.1183 L 223.686,-59.2774 L 223.605,-59.4478 L 223.547,-59.627 L 223.512,-59.812
 L 223.5,-60 L 223.512,-60.188 L 223.547,-60.373 L 223.605,-60.5522 L 223.686,-60.7226 L 223.786,-60.8817
 L 223.907,-61.0268 L 224.044,-61.1558 L 224.196,-61.2665 L 224.361,-61.3572 L 224.536,-61.4266 L 224.719,-61.4734
 L 224.906,-61.497 L 225.094,-61.497 L 225.281,-61.4734 L 225.464,-61.4266 L 225.639,-61.3572 L 225.804,-61.2665
 L 225.956,-61.1558 L 226.093,-61.0268 L 226.214,-60.8817 L 226.314,-60.7226 L 226.395,-60.5522 L 226.453,-60.373
 L 226.488,-60.188 L 226.5,-60 L 226.488,-59.812 L 226.453,-59.627 L 226.395,-59.4478 L 226.314,-59.2774
 L 226.214,-59.1183 L 226.093,-58.9732 L 225.956,-58.8442 L 225.804,-58.7335 L 225.639,-58.6428 L 225.464,-58.5734
 L 225.281,-58.5266 L 225.094,-58.503 z
M -225.094,-58.503 L -225.281,-58.5266 L -225.464,-58.5734 L -225.639,-58.6428 L -225.804,-58.7335 L -225.956,-58.8442
 L -226.093,-58.9732 L -226.214,-59.1183 L -226.314,-59.2774 L -226.395,-59.4478 L -226.453,-59.627 L -226.488,-59.812
 L -226.5,-60 L -226.488,-60.188 L -226.453,-60.373 L -226.395,-60.5522 L -226.314,-60.7226 L -226.214,-60.8817
 L -226.093,-61.0268 L -225.956,-61.1558 L -225.804,-61.2665 L -225.639,-61.3572 L -225.464,-61.4266 L -225.281,-61.4734
 L -225.094,-61.497 L -224.906,-61.497 L -224.719,-61.4734 L -224.536,-61.4266 L -224.361,-61.3572 L -224.196,-61.2665
 L -224.044,-61.1558 L -223.907,-61.0268 L -223.786,-60.8817 L -223.686,-60.7226 L -223.605,-60.5522 L -223.547,-60.373
 L -223.512,-60.188 L -223.5,-60 L -223.512,-59.812 L -223.547,-59.627 L -223.605,-59.4478 L -223.686,-59.2774
 L -223.786,-59.1183 L -223.907,-58.9732 L -224.044,-58.8442 L -224.196,-58.7335 L -224.361,-58.6428 L -224.536,-58.5734
 L -224.719,-58.5266 L -224.906,-58.503 z
M 224.812,-49.5059 L 224.438,-49.5531 L 224.073,-49.6468 L 223.723,-49.7855 L 223.393,-49.967 L 223.088,-50.1885
 L 222.813,-50.4464 L 222.573,-50.7366 L 222.371,-51.0547 L 222.211,-51.3956 L 222.094,-51.7539 L 222.024,-52.124
 L 222,-52.5 L 222.024,-52.876 L 222.094,-53.2461 L 222.211,-53.6044 L 222.371,-53.9453 L 222.573,-54.2634
 L 222.813,-54.5536 L 223.088,-54.8115 L 223.393,-55.033 L 223.723,-55.2145 L 224.073,-55.3532 L 224.438,-55.4469
 L 224.812,-55.4941 L 225.188,-55.4941 L 225.562,-55.4469 L 225.927,-55.3532 L 226.277,-55.2145 L 226.607,-55.033
 L 226.912,-54.8115 L 227.187,-54.5536 L 227.427,-54.2634 L 227.629,-53.9453 L 227.789,-53.6044 L 227.906,-53.2461
 L 227.976,-52.876 L 228,-52.5 L 227.976,-52.124 L 227.906,-51.7539 L 227.789,-51.3956 L 227.629,-51.0547
 L 227.427,-50.7366 L 227.187,-50.4464 L 226.912,-50.1885 L 226.607,-49.967 L 226.277,-49.7855 L 225.927,-49.6468
 L 225.562,-49.5531 L 225.188,-49.5059 z
M -225.188,-49.5059 L -225.562,-49.5531 L -225.927,-49.6468 L -226.277,-49.7855 L -226.607,-49.967 L -226.912,-50.1885
 L -227.187,-50.4464 L -227.427,-50.7366 L -227.629,-51.0547 L -227.789,-51.3956 L -227.906,-51.7539 L -227.976,-52.124
 L -228,-52.5 L -227.976,-52.876 L -227.906,-53.2461 L -227.789,-53.6044 L -227.629,-53.9453 L -227.427,-54.2634
 L -227.187,-54.5536 L -226.912,-54.8115 L -226.607,-55.033 L -226.277,-55.2145 L -225.927,-55.3532 L -225.562,-55.4469
 L -225.188,-55.4941 L -224.812,-55.4941 L -224.438,-55.4469 L -224.073,-55.3532 L -223.723,-55.2145 L -223.393,-55.033
 L -223.088,-54.8115 L -222.813,-54.5536 L -222.573,-54.2634 L -222.371,-53.9453 L -222.211,-53.6044 L -222.094,-53.2461
 L -222.024,-52.876 L -222,-52.5 L -222.024,-52.124 L -222.094,-51.7539 L -222.211,-51.3956 L -222.371,-51.0547
 L -222.573,-50.7366 L -222.813,-50.4464 L -223.088,-50.1885 L -223.393,-49.967 L -223.723,-49.7855 L -224.073,-49.6468
 L -224.438,-49.5531 L -224.812,-49.5059 z
M 224.906,-43.503 L 224.719,-43.5266 L 224.536,-43.5734 L 224.361,-43.6428 L 224.196,-43.7335 L 224.044,-43.8442
 L 223.907,-43.9732 L 223.786,-44.1183 L 223.686,-44.2774 L 223.605,-44.4478 L 223.547,-44.627 L 223.512,-44.812
 L 223.5,-45 L 223.512,-45.188 L 223.547,-45.373 L 223.605,-45.5522 L 223.686,-45.7226 L 223.786,-45.8817
 L 223.907,-46.0268 L 224.044,-46.1558 L 224.196,-46.2665 L 224.361,-46.3572 L 224.536,-46.4266 L 224.719,-46.4734
 L 224.906,-46.497 L 225.094,-46.497 L 225.281,-46.4734 L 225.464,-46.4266 L 225.639,-46.3572 L 225.804,-46.2665
 L 225.956,-46.1558 L 226.093,-46.0268 L 226.214,-45.8817 L 226.314,-45.7226 L 226.395,-45.5522 L 226.453,-45.373
 L 226.488,-45.188 L 226.5,-45 L 226.488,-44.812 L 226.453,-44.627 L 226.395,-44.4478 L 226.314,-44.2774
 L 226.214,-44.1183 L 226.093,-43.9732 L 225.956,-43.8442 L 225.804,-43.7335 L 225.639,-43.6428 L 225.464,-43.5734
 L 225.281,-43.5266 L 225.094,-43.503 z
M -225.094,-43.503 L -225.281,-43.5266 L -225.464,-43.5734 L -225.639,-43.6428 L -225.804,-43.7335 L -225.956,-43.8442
 L -226.093,-43.9732 L -226.214,-44.1183 L -226.314,-44.2774 L -226.395,-44.4478 L -226.453,-44.627 L -226.488,-44.812
 L -226.5,-45 L -226.488,-45.188 L -226.453,-45.373 L -226.395,-45.5522 L -226.314,-45.7226 L -226.214,-45.8817
 L -226.093,-46.0268 L -225.956,-46.1558 L -225.804,-46.2665 L -225.639,-46.3572 L -225.464,-46.4266 L -225.281,-46.4734
 L -225.094,-46.497 L -224.906,-46.497 L -224.719,-46.4734 L -224.536,-46.4266 L -224.361,-46.3572 L -224.196,-46.2665
 L -224.044,-46.1558 L -223.907,-46.0268 L -223.786,-45.8817 L -223.686,-45.7226 L -223.605,-45.5522 L -223.547,-45.373
 L -223.512,-45.188 L -223.5,-45 L -223.512,-44.812 L -223.547,-44.627 L -223.605,-44.4478 L -223.686,-44.2774
 L -223.786,-44.1183 L -223.907,-43.9732 L -224.044,-43.8442 L -224.196,-43.7335 L -224.361,-43.6428 L -224.536,-43.5734
 L -224.719,-43.5266 L -224.906,-43.503 z
M -225.188,-34.5059 L -225.562,-34.5531 L -225.927,-34.6468 L -226.277,-34.7855 L -226.607,-34.967 L -226.912,-35.1885
 L -227.187,-35.4464 L -227.427,-35.7366 L -227.629,-36.0547 L -227.789,-36.3956 L -227.906,-36.7539 L -227.976,-37.124
 L -228,-37.5 L -227.976,-37.876 L -227.906,-38.2461 L -227.789,-38.6044 L -227.629,-38.9453 L -227.427,-39.2634
 L -227.187,-39.5536 L -226.912,-39.8115 L -226.607,-40.033 L -226.277,-40.2145 L -225.927,-40.3532 L -225.562,-40.4469
 L -225.188,-40.4941 L -224.812,-40.4941 L -224.438,-40.4469 L -224.073,-40.3532 L -223.723,-40.2145 L -223.393,-40.033
 L -223.088,-39.8115 L -222.813,-39.5536 L -222.573,-39.2634 L -222.371,-38.9453 L -222.211,-38.6044 L -222.094,-38.2461
 L -222.024,-37.876 L -222,-37.5 L -222.024,-37.124 L -222.094,-36.7539 L -222.211,-36.3956 L -222.371,-36.0547
 L -222.573,-35.7366 L -222.813,-35.4464 L -223.088,-35.1885 L -223.393,-34.967 L -223.723,-34.7855 L -224.073,-34.6468
 L -224.438,-34.5531 L -224.812,-34.5059 z
M 224.812,-34.5059 L 224.438,-34.5531 L 224.073,-34.6468 L 223.723,-34.7855 L 223.393,-34.967 L 223.088,-35.1885
 L 222.813,-35.4464 L 222.573,-35.7366 L 222.371,-36.0547 L 222.211,-36.3956 L 222.094,-36.7539 L 222.024,-37.124
 L 222,-37.5 L 222.024,-37.876 L 222.094,-38.2461 L 222.211,-38.6044 L 222.371,-38.9453 L 222.573,-39.2634
 L 222.813,-39.5536 L 223.088,-39.8115 L 223.393,-40.033 L 223.723,-40.2145 L 224.073,-40.3532 L 224.438,-40.4469
 L 224.812,-40.4941 L 225.188,-40.4941 L 225.562,-40.4469 L 225.927,-40.3532 L 226.277,-40.2145 L 226.607,-40.033
 L 226.912,-39.8115 L 227.187,-39.5536 L 227.427,-39.2634 L 227.629,-38.9453 L 227.789,-38.6044 L 227.906,-38.2461
 L 227.976,-37.876 L 228,-37.5 L 227.976,-37.124 L 227.906,-36.7539 L 227.789,-36.3956 L 227.629,-36.0547
 L 227.427,-35.7366 L 227.187,-35.4464 L 226.912,-35.1885 L 226.607,-34.967 L 226.277,-34.7855 L 225.927,-34.6468
 L 225.562,-34.5531 L 225.188,-34.5059 z
M -225.094,-28.503 L -225.281,-28.5266 L -225.464,-28.5734 L -225.639,-28.6427 L -225.804,-28.7335 L -225.956,-28.8442
 L -226.093,-28.9732 L -226.214,-29.1183 L -226.314,-29.2774 L -226.395,-29.4478 L -226.453,-29.627 L -226.488,-29.812
 L -226.5,-30 L -226.488,-30.188 L -226.453,-30.373 L -226.395,-30.5522 L -226.314,-30.7226 L -226.214,-30.8817
 L -226.093,-31.0268 L -225.956,-31.1558 L -225.804,-31.2665 L -225.639,-31.3572 L -225.464,-31.4266 L -225.281,-31.4734
 L -225.094,-31.497 L -224.906,-31.497 L -224.719,-31.4734 L -224.536,-31.4266 L -224.361,-31.3572 L -224.196,-31.2665
 L -224.044,-31.1558 L -223.907,-31.0268 L -223.786,-30.8817 L -223.686,-30.7226 L -223.605,-30.5522 L -223.547,-30.373
 L -223.512,-30.188 L -223.5,-30 L -223.512,-29.812 L -223.547,-29.627 L -223.605,-29.4478 L -223.686,-29.2774
 L -223.786,-29.1183 L -223.907,-28.9732 L -224.044,-28.8442 L -224.196,-28.7335 L -224.361,-28.6427 L -224.536,-28.5734
 L -224.719,-28.5266 L -224.906,-28.503 z
M 224.906,-28.503 L 224.719,-28.5266 L 224.536,-28.5734 L 224.361,-28.6427 L 224.196,-28.7335 L 224.044,-28.8442
 L 223.907,-28.9732 L 223.786,-29.1183 L 223.686,-29.2774 L 223.605,-29.4478 L 223.547,-29.627 L 223.512,-29.812
 L 223.5,-30 L 223.512,-30.188 L 223.547,-30.373 L 223.605,-30.5522 L 223.686,-30.7226 L 223.786,-30.8817
 L 223.907,-31.0268 L 224.044,-31.1558 L 224.196,-31.2665 L 224.361,-31.3572 L 224.536,-31.4266 L 224.719,-31.4734
 L 224.906,-31.497 L 225.094,-31.497 L 225.281,-31.4734 L 225.464,-31.4266 L 225.639,-31.3572 L 225.804,-31.2665
 L 225.956,-31.1558 L 226.093,-31.0268 L 226.214,-30.8817 L 226.314,-30.7226 L 226.395,-30.5522 L 226.453,-30.373
 L 226.488,-30.188 L 226.5,-30 L 226.488,-29.812 L 226.453,-29.627 L 226.395,-29.4478 L 226.314,-29.2774
 L 226.214,-29.1183 L 226.093,-28.9732 L 225.956,-28.8442 L 225.804,-28.7335 L 225.639,-28.6427 L 225.464,-28.5734
 L 225.281,-28.5266 L 225.094,-28.503 z
M 224.812,-19.5059 L 224.438,-19.5531 L 224.073,-19.6468 L 223.723,-19.7855 L 223.393,-19.967 L 223.088,-20.1884
 L 222.813,-20.4464 L 222.573,-20.7366 L 222.371,-21.0547 L 222.211,-21.3956 L 222.094,-21.7539 L 222.024,-22.124
 L 222,-22.5 L 222.024,-22.876 L 222.094,-23.2461 L 222.211,-23.6044 L 222.371,-23.9453 L 222.573,-24.2634
 L 222.813,-24.5536 L 223.088,-24.8115 L 223.393,-25.033 L 223.723,-25.2145 L 224.073,-25.3532 L 224.438,-25.4469
 L 224.812,-25.4941 L 225.188,-25.4941 L 225.562,-25.4469 L 225.927,-25.3532 L 226.277,-25.2145 L 226.607,-25.033
 L 226.912,-24.8115 L 227.187,-24.5536 L 227.427,-24.2634 L 227.629,-23.9453 L 227.789,-23.6044 L 227.906,-23.2461
 L 227.976,-22.876 L 228,-22.5 L 227.976,-22.124 L 227.906,-21.7539 L 227.789,-21.3956 L 227.629,-21.0547
 L 227.427,-20.7366 L 227.187,-20.4464 L 226.912,-20.1884 L 226.607,-19.967 L 226.277,-19.7855 L 225.927,-19.6468
 L 225.562,-19.5531 L 225.188,-19.5059 z
M -225.188,-19.5059 L -225.562,-19.5531 L -225.927,-19.6468 L -226.277,-19.7855 L -226.607,-19.967 L -226.912,-20.1884
 L -227.187,-20.4464 L -227.427,-20.7366 L -227.629,-21.0547 L -227.789,-21.3956 L -227.906,-21.7539 L -227.976,-22.124
 L -228,-22.5 L -227.976,-22.876 L -227.906,-23.2461 L -227.789,-23.6044 L -227.629,-23.9453 L -227.427,-24.2634
 L -227.187,-24.5536 L -226.912,-24.8115 L -226.607,-25.033 L -226.277,-25.2145 L -225.927,-25.3532 L -225.562,-25.4469
 L -225.188,-25.4941 L -224.812,-25.4941 L -224.438,-25.4469 L -224.073,-25.3532 L -223.723,-25.2145 L -223.393,-25.033
 L -223.088,-24.8115 L -222.813,-24.5536 L -222.573,-24.2634 L -222.371,-23.9453 L -222.211,-23.6044 L -222.094,-23.2461
 L -222.024,-22.876 L -222,-22.5 L -222.024,-22.124 L -222.094,-21.7539 L -222.211,-21.3956 L -222.371,-21.0547
 L -222.573,-20.7366 L -222.813,-20.4464 L -223.088,-20.1884 L -223.393,-19.967 L -223.723,-19.7855 L -224.073,-19.6468
 L -224.438,-19.5531 L -224.812,-19.5059 z
M -225.094,-13.5029 L -225.281,-13.5266 L -225.464,-13.5734 L -225.639,-13.6427 L -225.804,-13.7335 L -225.956,-13.8442
 L -226.093,-13.9732 L -226.214,-14.1183 L -226.314,-14.2774 L -226.395,-14.4478 L -226.453,-14.627 L -226.488,-14.812
 L -226.5,-15 L -226.488,-15.188 L -226.453,-15.373 L -226.395,-15.5522 L -226.314,-15.7226 L -226.214,-15.8817
 L -226.093,-16.0268 L -225.956,-16.1558 L -225.804,-16.2665 L -225.639,-16.3572 L -225.464,-16.4266 L -225.281,-16.4734
 L -225.094,-16.497 L -224.906,-16.497 L -224.719,-16.4734 L -224.536,-16.4266 L -224.361,-16.3572 L -224.196,-16.2665
 L -224.044,-16.1558 L -223.907,-16.0268 L -223.786,-15.8817 L -223.686,-15.7226 L -223.605,-15.5522 L -223.547,-15.373
 L -223.512,-15.188 L -223.5,-15 L -223.512,-14.812 L -223.547,-14.627 L -223.605,-14.4478 L -223.686,-14.2774
 L -223.786,-14.1183 L -223.907,-13.9732 L -224.044,-13.8442 L -224.196,-13.7335 L -224.361,-13.6427 L -224.536,-13.5734
 L -224.719,-13.5266 L -224.906,-13.5029 z
M 224.906,-13.5029 L 224.719,-13.5266 L 224.536,-13.5734 L 224.361,-13.6427 L 224.196,-13.7335 L 224.044,-13.8442
 L 223.907,-13.9732 L 223.786,-14.1183 L 223.686,-14.2774 L 223.605,-14.4478 L 223.547,-14.627 L 223.512,-14.812
 L 223.5,-15 L 223.512,-15.188 L 223.547,-15.373 L 223.605,-15.5522 L 223.686,-15.7226 L 223.786,-15.8817
 L 223.907,-16.0268 L 224.044,-16.1558 L 224.196,-16.2665 L 224.361,-16.3572 L 224.536,-16.4266 L 224.719,-16.4734
 L 224.906,-16.497 L 225.094,-16.497 L 225.281,-16.4734 L 225.464,-16.4266 L 225.639,-16.3572 L 225.804,-16.2665
 L 225.956,-16.1558 L 226.093,-16.0268 L 226.214,-15.8817 L 226.314,-15.7226 L 226.395,-15.5522 L 226.453,-15.373
 L 226.488,-15.188 L 226.5,-15 L 226.488,-14.812 L 226.453,-14.627 L 226.395,-14.4478 L 226.314,-14.2774
 L 226.214,-14.1183 L 226.093,-13.9732 L 225.956,-13.8442 L 225.804,-13.7335 L 225.639,-13.6427 L 225.464,-13.5734
 L 225.281,-13.5266 L 225.094,-13.5029 z
M -225.188,-4.50591 L -225.562,-4.55313 L -225.927,-4.64682 L -226.277,-4.78551 L -226.607,-4.96701 L -226.912,-5.18845
 L -227.187,-5.44635 L -227.427,-5.73663 L -227.629,-6.05473 L -227.789,-6.39561 L -227.906,-6.75392 L -227.976,-7.12399
 L -228,-7.5 L -227.976,-7.87599 L -227.906,-8.24606 L -227.789,-8.60437 L -227.629,-8.94525 L -227.427,-9.26335
 L -227.187,-9.55363 L -226.912,-9.81154 L -226.607,-10.033 L -226.277,-10.2145 L -225.927,-10.3532 L -225.562,-10.4469
 L -225.188,-10.4941 L -224.812,-10.4941 L -224.438,-10.4469 L -224.073,-10.3532 L -223.723,-10.2145 L -223.393,-10.033
 L -223.088,-9.81154 L -222.813,-9.55363 L -222.573,-9.26335 L -222.371,-8.94525 L -222.211,-8.60437 L -222.094,-8.24606
 L -222.024,-7.87599 L -222,-7.5 L -222.024,-7.12399 L -222.094,-6.75392 L -222.211,-6.39561 L -222.371,-6.05473
 L -222.573,-5.73663 L -222.813,-5.44635 L -223.088,-5.18845 L -223.393,-4.96701 L -223.723,-4.78551 L -224.073,-4.64682
 L -224.438,-4.55313 L -224.812,-4.50591 z
M 224.812,-4.50591 L 224.438,-4.55313 L 224.073,-4.64682 L 223.723,-4.78551 L 223.393,-4.96701 L 223.088,-5.18845
 L 222.813,-5.44635 L 222.573,-5.73663 L 222.371,-6.05473 L 222.211,-6.39561 L 222.094,-6.75392 L 222.024,-7.12399
 L 222,-7.5 L 222.024,-7.87599 L 222.094,-8.24606 L 222.211,-8.60437 L 222.371,-8.94525 L 222.573,-9.26335
 L 222.813,-9.55363 L 223.088,-9.81154 L 223.393,-10.033 L 223.723,-10.2145 L 224.073,-10.3532 L 224.438,-10.4469
 L 224.812,-10.4941 L 225.188,-10.4941 L 225.562,-10.4469 L 225.927,-10.3532 L 226.277,-10.2145 L 226.607,-10.033
 L 226.912,-9.81154 L 227.187,-9.55363 L 227.427,-9.26335 L 227.629,-8.94525 L 227.789,-8.60437 L 227.906,-8.24606
 L 227.976,-7.87599 L 228,-7.5 L 227.976,-7.12399 L 227.906,-6.75392 L 227.789,-6.39561 L 227.629,-6.05473
 L 227.427,-5.73663 L 227.187,-5.44635 L 226.912,-5.18845 L 226.607,-4.96701 L 226.277,-4.78551 L 225.927,-4.64682
 L 225.562,-4.55313 L 225.188,-4.50591 z
M -225.094,1.49704 L -225.281,1.47342 L -225.464,1.42657 L -225.639,1.35724 L -225.804,1.26648 L -225.956,1.15576
 L -226.093,1.02681 L -226.214,0.881668 L -226.314,0.722626 L -226.395,0.552185 L -226.453,0.373032 L -226.488,0.187988
 L -226.5,-0 L -226.488,-0.187988 L -226.453,-0.373032 L -226.395,-0.552185 L -226.314,-0.722626 L -226.214,-0.881668
 L -226.093,-1.02681 L -225.956,-1.15576 L -225.804,-1.26648 L -225.639,-1.35724 L -225.464,-1.42657 L -225.281,-1.47342
 L -225.094,-1.49704 L -224.906,-1.49704 L -224.719,-1.47342 L -224.536,-1.42657 L -224.361,-1.35724 L -224.196,-1.26648
 L -224.044,-1.15576 L -223.907,-1.02681 L -223.786,-0.881668 L -223.686,-0.722626 L -223.605,-0.552185 L -223.547,-0.373032
 L -223.512,-0.187988 L -223.5,-0 L -223.512,0.187988 L -223.547,0.373032 L -223.605,0.552185 L -223.686,0.722626
 L -223.786,0.881668 L -223.907,1.02681 L -224.044,1.15576 L -224.196,1.26648 L -224.361,1.35724 L -224.536,1.42657
 L -224.719,1.47342 L -224.906,1.49704 z
M 224.906,1.49704 L 224.719,1.47342 L 224.536,1.42657 L 224.361,1.35724 L 224.196,1.26648 L 224.044,1.15576
 L 223.907,1.02681 L 223.786,0.881668 L 223.686,0.722626 L 223.605,0.552185 L 223.547,0.373032 L 223.512,0.187988
 L 223.5,-0 L 223.512,-0.187988 L 223.547,-0.373032 L 223.605,-0.552185 L 223.686,-0.722626 L 223.786,-0.881668
 L 223.907,-1.02681 L 224.044,-1.15576 L 224.196,-1.26648 L 224.361,-1.35724 L 224.536,-1.42657 L 224.719,-1.47342
 L 224.906,-1.49704 L 225.094,-1.49704 L 225.281,-1.47342 L 225.464,-1.42657 L 225.639,-1.35724 L 225.804,-1.26648
 L 225.956,-1.15576 L 226.093,-1.02681 L 226.214,-0.881668 L 226.314,-0.722626 L 226.395,-0.552185 L 226.453,-0.373032
 L 226.488,-0.187988 L 226.5,-0 L 226.488,0.187988 L 226.453,0.373032 L 226.395,0.552185 L 226.314,0.722626
 L 226.214,0.881668 L 226.093,1.02681 L 225.956,1.15576 L 225.804,1.26648 L 225.639,1.35724 L 225.464,1.42657
 L 225.281,1.47342 L 225.094,1.49704 z
M 224.812,10.4941 L 224.438,10.4469 L 224.073,10.3532 L 223.723,10.2145 L 223.393,10.033 L 223.088,9.81154
 L 222.813,9.55363 L 222.573,9.26335 L 222.371,8.94525 L 222.211,8.60437 L 222.094,8.24606 L 222.024,7.87599
 L 222,7.5 L 222.024,7.12399 L 222.094,6.75392 L 222.211,6.39561 L 222.371,6.05473 L 222.573,5.73663
 L 222.813,5.44635 L 223.088,5.18845 L 223.393,4.96701 L 223.723,4.78551 L 224.073,4.64682 L 224.438,4.55313
 L 224.812,4.50591 L 225.188,4.50591 L 225.562,4.55313 L 225.927,4.64682 L 226.277,4.78551 L 226.607,4.96701
 L 226.912,5.18845 L 227.187,5.44635 L 227.427,5.73663 L 227.629,6.05473 L 227.789,6.39561 L 227.906,6.75392
 L 227.976,7.12399 L 228,7.5 L 227.976,7.87599 L 227.906,8.24606 L 227.789,8.60437 L 227.629,8.94525
 L 227.427,9.26335 L 227.187,9.55363 L 226.912,9.81154 L 226.607,10.033 L 226.277,10.2145 L 225.927,10.3532
 L 225.562,10.4469 L 225.188,10.4941 z
M -225.188,10.4941 L -225.562,10.4469 L -225.927,10.3532 L -226.277,10.2145 L -226.607,10.033 L -226.912,9.81154
 L -227.187,9.55363 L -227.427,9.26335 L -227.629,8.94525 L -227.789,8.60437 L -227.906,8.24606 L -227.976,7.87599
 L -228,7.5 L -227.976,7.12399 L -227.906,6.75392 L -227.789,6.39561 L -227.629,6.05473 L -227.427,5.73663
 L -227.187,5.44635 L -226.912,5.18845 L -226.607,4.96701 L -226.277,4.78551 L -225.927,4.64682 L -225.562,4.55313
 L -225.188,4.50591 L -224.812,4.50591 L -224.438,4.55313 L -224.073,4.64682 L -223.723,4.78551 L -223.393,4.96701
 L -223.088,5.18845 L -222.813,5.44635 L -222.573,5.73663 L -222.371,6.05473 L -222.211,6.39561 L -222.094,6.75392
 L -222.024,7.12399 L -222,7.5 L -222.024,7.87599 L -222.094,8.24606 L -222.211,8.60437 L -222.371,8.94525
 L -222.573,9.26335 L -222.813,9.55363 L -223.088,9.81154 L -223.393,10.033 L -223.723,10.2145 L -224.073,10.3532
 L -224.438,10.4469 L -224.812,10.4941 z
M -225.094,16.497 L -225.281,16.4734 L -225.464,16.4266 L -225.639,16.3572 L -225.804,16.2665 L -225.956,16.1558
 L -226.093,16.0268 L -226.214,15.8817 L -226.314,15.7226 L -226.395,15.5522 L -226.453,15.373 L -226.488,15.188
 L -226.5,15 L -226.488,14.812 L -226.453,14.627 L -226.395,14.4478 L -226.314,14.2774 L -226.214,14.1183
 L -226.093,13.9732 L -225.956,13.8442 L -225.804,13.7335 L -225.639,13.6427 L -225.464,13.5734 L -225.281,13.5266
 L -225.094,13.5029 L -224.906,13.5029 L -224.719,13.5266 L -224.536,13.5734 L -224.361,13.6427 L -224.196,13.7335
 L -224.044,13.8442 L -223.907,13.9732 L -223.786,14.1183 L -223.686,14.2774 L -223.605,14.4478 L -223.547,14.627
 L -223.512,14.812 L -223.5,15 L -223.512,15.188 L -223.547,15.373 L -223.605,15.5522 L -223.686,15.7226
 L -223.786,15.8817 L -223.907,16.0268 L -224.044,16.1558 L -224.196,16.2665 L -224.361,16.3572 L -224.536,16.4266
 L -224.719,16.4734 L -224.906,16.497 z
M 224.906,16.497 L 224.719,16.4734 L 224.536,16.4266 L 224.361,16.3572 L 224.196,16.2665 L 224.044,16.1558
 L 223.907,16.0268 L 223.786,15.8817 L 223.686,15.7226 L 223.605,15.5522 L 223.547,15.373 L 223.512,15.188
 L 223.5,15 L 223.512,14.812 L 223.547,14.627 L 223.605,14.4478 L 223.686,14.2774 L 223.786,14.1183
 L 223.907,13.9732 L 224.044,13.8442 L 224.196,13.7335 L 224.361,13.6427 L 224.536,13.5734 L 224.719,13.5266
 L 224.906,13.5029 L 225.094,13.5029 L 225.281,13.5266 L 225.464,13.5734 L 225.639,13.6427 L 225.804,13.7335
 L 225.956,13.8442 L 226.093,13.9732 L 226.214,14.1183 L 226.314,14.2774 L 226.395,14.4478 L 226.453,14.627
 L 226.488,14.812 L 226.5,15 L 226.488,15.188 L 226.453,15.373 L 226.395,15.5522 L 226.314,15.7226
 L 226.214,15.8817 L 226.093,16.0268 L 225.956,16.1558 L 225.804,16.2665 L 225.639,16.3572 L 225.464,16.4266
 L 225.281,16.4734 L 225.094,16.497 z
M 224.812,25.4941 L 224.438,25.4469 L 224.073,25.3532 L 223.723,25.2145 L 223.393,25.033 L 223.088,24.8115
 L 222.813,24.5536 L 222.573,24.2634 L 222.371,23.9453 L 222.211,23.6044 L 222.094,23.2461 L 222.024,22.876
 L 222,22.5 L 222.024,22.124 L 222.094,21.7539 L 222.211,21.3956 L 222.371,21.0547 L 222.573,20.7366
 L 222.813,20.4464 L 223.088,20.1884 L 223.393,19.967 L 223.723,19.7855 L 224.073,19.6468 L 224.438,19.5531
 L 224.812,19.5059 L 225.188,19.5059 L 225.562,19.5531 L 225.927,19.6468 L 226.277,19.7855 L 226.607,19.967
 L 226.912,20.1884 L 227.187,20.4464 L 227.427,20.7366 L 227.629,21.0547 L 227.789,21.3956 L 227.906,21.7539
 L 227.976,22.124 L 228,22.5 L 227.976,22.876 L 227.906,23.2461 L 227.789,23.6044 L 227.629,23.9453
 L 227.427,24.2634 L 227.187,24.5536 L 226.912,24.8115 L 226.607,25.033 L 226.277,25.2145 L 225.927,25.3532
 L 225.562,25.4469 L 225.188,25.4941 z
M -225.188,25.4941 L -225.562,25.4469 L -225.927,25.3532 L -226.277,25.2145 L -226.607,25.033 L -226.912,24.8115
 L -227.187,24.5536 L -227.427,24.2634 L -227.629,23.9453 L -227.789,23.6044 L -227.906,23.2461 L -227.976,22.876
 L -228,22.5 L -227.976,22.124 L -227.906,21.7539 L -227.789,21.3956 L -227.629,21.0547 L -227.427,20.7366
 L -227.187,20.4464 L -226.912,20.1884 L -226.607,19.967 L -226.277,19.7855 L -225.927,19.6468 L -225.562,19.5531
 L -225.188,19.5059 L -224.812,19.5059 L -224.438,19.5531 L -224.073,19.6468 L -223.723,19.7855 L -223.393,19.967
 L -223.088,20.1884 L -222.813,20.4464 L -222.573,20.7366 L -222.371,21.0547 L -222.211,21.3956 L -222.094,21.7539
 L -222.024,22.124 L -222,22.5 L -222.024,22.876 L -222.094,23.2461 L -222.211,23.6044 L -222.371,23.9453
 L -222.573,24.2634 L -222.813,24.5536 L -223.088,24.8115 L -223.393,25.033 L -223.723,25.2145 L -224.073,25.3532
 L -224.438,25.4469 L -224.812,25.4941 z
M 224.906,31.497 L 224.719,31.4734 L 224.536,31.4266 L 224.361,31.3572 L 224.196,31.2665 L 224.044,31.1558
 L 223.907,31.0268 L 223.786,30.8817 L 223.686,30.7226 L 223.605,30.5522 L 223.547,30.373 L 223.512,30.188
 L 223.5,30 L 223.512,29.812 L 223.547,29.627 L 223.605,29.4478 L 223.686,29.2774 L 223.786,29.1183
 L 223.907,28.9732 L 224.044,28.8442 L 224.196,28.7335 L 224.361,28.6427 L 224.536,28.5734 L 224.719,28.5266
 L 224.906,28.503 L 225.094,28.503 L 225.281,28.5266 L 225.464,28.5734 L 225.639,28.6427 L 225.804,28.7335
 L 225.956,28.8442 L 226.093,28.9732 L 226.214,29.1183 L 226.314,29.2774 L 226.395,29.4478 L 226.453,29.627
 L 226.488,29.812 L 226.5,30 L 226.488,30.188 L 226.453,30.373 L 226.395,30.5522 L 226.314,30.7226
 L 226.214,30.8817 L 226.093,31.0268 L 225.956,31.1558 L 225.804,31.2665 L 225.639,31.3572 L 225.464,31.4266
 L 225.281,31.4734 L 225.094,31.497 z
M -225.094,31.497 L -225.281,31.4734 L -225.464,31.4266 L -225.639,31.3572 L -225.804,31.2665 L -225.956,31.1558
 L -226.093,31.0268 L -226.214,30.8817 L -226.314,30.7226 L -226.395,30.5522 L -226.453,30.373 L -226.488,30.188
 L -226.5,30 L -226.488,29.812 L -226.453,29.627 L -226.395,29.4478 L -226.314,29.2774 L -226.214,29.1183
 L -226.093,28.9732 L -225.956,28.8442 L -225.804,28.7335 L -225.639,28.6427 L -225.464,28.5734 L -225.281,28.5266
 L -225.094,28.503 L -224.906,28.503 L -224.719,28.5266 L -224.536,28.5734 L -224.361,28.6427 L -224.196,28.7335
 L -224.044,28.8442 L -223.907,28.9732 L -223.786,29.1183 L -223.686,29.2774 L -223.605,29.4478 L -223.547,29.627
 L -223.512,29.812 L -223.5,30 L -223.512,30.188 L -223.547,30.373 L -223.605,30.5522 L -223.686,30.7226
 L -223.786,30.8817 L -223.907,31.0268 L -224.044,31.1558 L -224.196,31.2665 L -224.361,31.3572 L -224.536,31.4266
 L -224.719,31.4734 L -224.906,31.497 z
M 224.812,40.4941 L 224.438,40.4469 L 224.073,40.3532 L 223.723,40.2145 L 223.393,40.033 L 223.088,39.8115
 L 222.813,39.5536 L 222.573,39.2634 L 222.371,38.9453 L 222.211,38.6044 L 222.094,38.2461 L 222.024,37.876
 L 222,37.5 L 222.024,37.124 L 222.094,36.7539 L 222.211,36.3956 L 222.371,36.0547 L 222.573,35.7366
 L 222.813,35.4464 L 223.088,35.1885 L 223.393,34.967 L 223.723,34.7855 L 224.073,34.6468 L 224.438,34.5531
 L 224.812,34.5059 L 225.188,34.5059 L 225.562,34.5531 L 225.927,34.6468 L 226.277,34.7855 L 226.607,34.967
 L 226.912,35.1885 L 227.187,35.4464 L 227.427,35.7366 L 227.629,36.0547 L 227.789,36.3956 L 227.906,36.7539
 L 227.976,37.124 L 228,37.5 L 227.976,37.876 L 227.906,38.2461 L 227.789,38.6044 L 227.629,38.9453
 L 227.427,39.2634 L 227.187,39.5536 L 226.912,39.8115 L 226.607,40.033 L 226.277,40.2145 L 225.927,40.3532
 L 225.562,40.4469 L 225.188,40.4941 z
M -225.188,40.4941 L -225.562,40.4469 L -225.927,40.3532 L -226.277,40.2145 L -226.607,40.033 L -226.912,39.8115
 L -227.187,39.5536 L -227.427,39.2634 L -227.629,38.9453 L -227.789,38.6044 L -227.906,38.2461 L -227.976,37.876
 L -228,37.5 L -227.976,37.124 L -227.906,36.7539 L -227.789,36.3956 L -227.629,36.0547 L -227.427,35.7366
 L -227.187,35.4464 L -226.912,35.1885 L -226.607,34.967 L -226.277,34.7855 L -225.927,34.6468 L -225.562,34.5531
 L -225.188,34.5059 L -224.812,34.5059 L -224.438,34.5531 L -224.073,34.6468 L -223.723,34.7855 L -223.393,34.967
 L -223.088,35.1885 L -222.813,35.4464 L -222.573,35.7366 L -222.371,36.0547 L -222.211,36.3956 L -222.094,36.7539
 L -222.024,37.124 L -222,37.5 L -222.024,37.876 L -222.094,38.2461 L -222.211,38.6044 L -222.371,38.9453
 L -222.573,39.2634 L -222.813,39.5536 L -223.088,39.8115 L -223.393,40.033 L -223.723,40.2145 L -224.073,40.3532
 L -224.438,40.4469 L -224.812,40.4941 z
M 224.906,46.497 L 224.719,46.4734 L 224.536,46.4266 L 224.361,46.3572 L 224.196,46.2665 L 224.044,46.1558
 L 223.907,46.0268 L 223.786,45.8817 L 223.686,45.7226 L 223.605,45.5522 L 223.547,45.373 L 223.512,45.188
 L 223.5,45 L 223.512,44.812 L 223.547,44.627 L 223.605,44.4478 L 223.686,44.2774 L 223.786,44.1183
 L 223.907,43.9732 L 224.044,43.8442 L 224.196,43.7335 L 224.361,43.6428 L 224.536,43.5734 L 224.719,43.5266
 L 224.906,43.503 L 225.094,43.503 L 225.281,43.5266 L 225.464,43.5734 L 225.639,43.6428 L 225.804,43.7335
 L 225.956,43.8442 L 226.093,43.9732 L 226.214,44.1183 L 226.314,44.2774 L 226.395,44.4478 L 226.453,44.627
 L 226.488,44.812 L 226.5,45 L 226.488,45.188 L 226.453,45.373 L 226.395,45.5522 L 226.314,45.7226
 L 226.214,45.8817 L 226.093,46.0268 L 225.956,46.1558 L 225.804,46.2665 L 225.639,46.3572 L 225.464,46.4266
 L 225.281,46.4734 L 225.094,46.497 z
M -225.094,46.497 L -225.281,46.4734 L -225.464,46.4266 L -225.639,46.3572 L -225.804,46.2665 L -225.956,46.1558
 L -226.093,46.0268 L -226.214,45.8817 L -226.314,45.7226 L -226.395,45.5522 L -226.453,45.373 L -226.488,45.188
 L -226.5,45 L -226.488,44.812 L -226.453,44.627 L -226.395,44.4478 L -226.314,44.2774 L -226.214,44.1183
 L -226.093,43.9732 L -225.956,43.8442 L -225.804,43.7335 L -225.639,43.6428 L -225.464,43.5734 L -225.281,43.5266
 L -225.094,43.503 L -224.906,43.503 L -224.719,43.5266 L -224.536,43.5734 L -224.361,43.6428 L -224.196,43.7335
 L -224.044,43.8442 L -223.907,43.9732 L -223.786,44.1183 L -223.686,44.2774 L -223.605,44.4478 L -223.547,44.627
 L -223.512,44.812 L -223.5,45 L -223.512,45.188 L -223.547,45.373 L -223.605,45.5522 L -223.686,45.7226
 L -223.786,45.8817 L -223.907,46.0268 L -224.044,46.1558 L -224.196,46.2665 L -224.361,46.3572 L -224.536,46.4266
 L -224.719,46.4734 L -224.906,46.497 z
M 224.812,55.4941 L 224.438,55.4469 L 224.073,55.3532 L 223.723,55.2145 L 223.393,55.033 L 223.088,54.8115
 L 222.813,54.5536 L 222.573,54.2634 L 222.371,53.9453 L 222.211,53.6044 L 222.094,53.2461 L 222.024,52.876
 L 222,52.5 L 222.024,52.124 L 222.094,51.7539 L 222.211,51.3956 L 222.371,51.0547 L 222.573,50.7366
 L 222.813,50.4464 L 223.088,50.1885 L 223.393,49.967 L 223.723,49.7855 L 224.073,49.6468 L 224.438,49.5531
 L 224.812,49.5059 L 225.188,49.5059 L 225.562,49.5531 L 225.927,49.6468 L 226.277,49.7855 L 226.607,49.967
 L 226.912,50.1885 L 227.187,50.4464 L 227.427,50.7366 L 227.629,51.0547 L 227.789,51.3956 L 227.906,51.7539
 L 227.976,52.124 L 228,52.5 L 227.976,52.876 L 227.906,53.2461 L 227.789,53.6044 L 227.629,53.9453
 L 227.427,54.2634 L 227.187,54.5536 L 226.912,54.8115 L 226.607,55.033 L 226.277,55.2145 L 225.927,55.3532
 L 225.562,55.4469 L 225.188,55.4941 z
M -225.188,55.4941 L -225.562,55.4469 L -225.927,55.3532 L -226.277,55.2145 L -226.607,55.033 L -226.912,54.8115
 L -227.187,54.5536 L -227.427,54.2634 L -227.629,53.9453 L -227.789,53.6044 L -227.906,53.2461 L -227.976,52.876
 L -228,52.5 L -227.976,52.124 L -227.906,51.7539 L -227.789,51.3956 L -227.629,51.0547 L -227.427,50.7366
 L -227.187,50.4464 L -226.912,50.1885 L -226.607,49.967 L -226.277,49.7855 L -225.927,49.6468 L -225.562,49.5531
 L -225.188,49.5059 L -224.812,49.5059 L -224.438,49.5531 L -224.073,49.6468 L -223.723,49.7855 L -223.393,49.967
 L -223.088,50.1885 L -222.813,50.4464 L -222.573,50.7366 L -222.371,51.0547 L -222.211,51.3956 L -222.094,51.7539
 L -222.024,52.124 L -222,52.5 L -222.024,52.876 L -222.094,53.2461 L -222.211,53.6044 L -222.371,53.9453
 L -222.573,54.2634 L -222.813,54.5536 L -223.088,54.8115 L -223.393,55.033 L -223.723,55.2145 L -224.073,55.3532
 L -224.438,55.4469 L -224.812,55.4941 z
M -225.094,61.497 L -225.281,61.4734 L -225.464,61.4266 L -225.639,61.3572 L -225.804,61.2665 L -225.956,61.1558
 L -226.093,61.0268 L -226.214,60.8817 L -226.314,60.7226 L -226.395,60.5522 L -226.453,60.373 L -226.488,60.188
 L -226.5,60 L -226.488,59.812 L -226.453,59.627 L -226.395,59.4478 L -226.314,59.2774 L -226.214,59.1183
 L -226.093,58.9732 L -225.956,58.8442 L -225.804,58.7335 L -225.639,58.6428 L -225.464,58.5734 L -225.281,58.5266
 L -225.094,58.503 L -224.906,58.503 L -224.719,58.5266 L -224.536,58.5734 L -224.361,58.6428 L -224.196,58.7335
 L -224.044,58.8442 L -223.907,58.9732 L -223.786,59.1183 L -223.686,59.2774 L -223.605,59.4478 L -223.547,59.627
 L -223.512,59.812 L -223.5,60 L -223.512,60.188 L -223.547,60.373 L -223.605,60.5522 L -223.686,60.7226
 L -223.786,60.8817 L -223.907,61.0268 L -224.044,61.1558 L -224.196,61.2665 L -224.361,61.3572 L -224.536,61.4266
 L -224.719,61.4734 L -224.906,61.497 z
M 224.906,61.497 L 224.719,61.4734 L 224.536,61.4266 L 224.361,61.3572 L 224.196,61.2665 L 224.044,61.1558
 L 223.907,61.0268 L 223.786,60.8817 L 223.686,60.7226 L 223.605,60.5522 L 223.547,60.373 L 223.512,60.188
 L 223.5,60 L 223.512,59.812 L 223.547,59.627 L 223.605,59.4478 L 223.686,59.2774 L 223.786,59.1183
 L 223.907,58.9732 L 224.044,58.8442 L 224.196,58.7335 L 224.361,58.6428 L 224.536,58.5734 L 224.719,58.5266
 L 224.906,58.503 L 225.094,58.503 L 225.281,58.5266 L 225.464,58.5734 L 225.639,58.6428 L 225.804,58.7335
 L 225.956,58.8442 L 226.093,58.9732 L 226.214,59.1183 L 226.314,59.2774 L 226.395,59.4478 L 226.453,59.627
 L 226.488,59.812 L 226.5,60 L 226.488,60.188 L 226.453,60.373 L 226.395,60.5522 L 226.314,60.7226
 L 226.214,60.8817 L 226.093,61.0268 L 225.956,61.1558 L 225.804,61.2665 L 225.639,61.3572 L 225.464,61.4266
 L 225.281,61.4734 L 225.094,61.497 z
M -225.188,70.4941 L -225.562,70.4469 L -225.927,70.3532 L -226.277,70.2145 L -226.607,70.033 L -226.912,69.8115
 L -227.187,69.5536 L -227.427,69.2634 L -227.629,68.9453 L -227.789,68.6044 L -227.906,68.2461 L -227.976,67.876
 L -228,67.5 L -227.976,67.124 L -227.906,66.7539 L -227.789,66.3956 L -227.629,66.0547 L -227.427,65.7366
 L -227.187,65.4464 L -226.912,65.1885 L -226.607,64.967 L -226.277,64.7855 L -225.927,64.6468 L -225.562,64.5531
 L -225.188,64.5059 L -224.812,64.5059 L -224.438,64.5531 L -224.073,64.6468 L -223.723,64.7855 L -223.393,64.967
 L -223.088,65.1885 L -222.813,65.4464 L -222.573,65.7366 L -222.371,66.0547 L -222.211,66.3956 L -222.094,66.7539
 L -222.024,67.124 L -222,67.5 L -222.024,67.876 L -222.094,68.2461 L -222.211,68.6044 L -222.371,68.9453
 L -222.573,69.2634 L -222.813,69.5536 L -223.088,69.8115 L -223.393,70.033 L -223.723,70.2145 L -224.073,70.3532
 L -224.438,70.4469 L -224.812,70.4941 z
M 224.812,70.4941 L 224.438,70.4469 L 224.073,70.3532 L 223.723,70.2145 L 223.393,70.033 L 223.088,69.8115
 L 222.813,69.5536 L 222.573,69.2634 L 222.371,68.9453 L 222.211,68.6044 L 222.094,68.2461 L 222.024,67.876
 L 222,67.5 L 222.024,67.124 L 222.094,66.7539 L 222.211,66.3956 L 222.371,66.0547 L 222.573,65.7366
 L 222.813,65.4464 L 223.088,65.1885 L 223.393,64.967 L 223.723,64.7855 L 224.073,64.6468 L 224.438,64.5531
 L 224.812,64.5059 L 225.188,64.5059 L 225.562,64.5531 L 225.927,64.6468 L 226.277,64.7855 L 226.607,64.967
 L 226.912,65.1885 L 227.187,65.4464 L 227.427,65.7366 L 227.629,66.0547 L 227.789,66.3956 L 227.906,66.7539
 L 227.976,67.124 L 228,67.5 L 227.976,67.876 L 227.906,68.2461 L 227.789,68.6044 L 227.629,68.9453
 L 227.427,69.2634 L 227.187,69.5536 L 226.912,69.8115 L 226.607,70.033 L 226.277,70.2145 L 225.927,70.3532
 L 225.562,70.4469 L 225.188,70.4941 z
" stroke="black" fill="lightgray" stroke-width="0.5"/>
</svg>
