<?xml version="1.0" standalone="no"?>
<!DOCTYPE svg PUBLIC "-//W3C//DTD SVG 1.1//EN" "http://www.w3.org/Graphics/SVG/1.1/DTD/svg11.dtd">
<svg width="44mm" height="14mm" viewBox="-22 -7 44 14" xmlns="http://www.w3.org/2000/svg" version="1.1">
<title>OpenSCAD Model</title>
<path d="
M 17.9369,6.91142 L 18.5451,6.75528 L 19.1289,6.52412 L 19.6791,6.22163 L 20.1871,5.85255 L 20.6448,5.42273
 L 21.0451,4.93892 L 21.3815,4.40877 L 21.6489,3.84062 L 21.8429,3.24344 L 21.9606,2.62666 L 22,2
 L 22,-2 L 21.9606,-2.62666 L 21.8429,-3.24344 L 21.6489,-3.84062 L 21.3815,-4.40877 L 21.0451,-4.93892
 L 20.6448,-5.42273 L 20.1871,-5.85255 L 19.6791,-6.22163 L 19.1289,-6.52412 L 18.5451,-6.75528 L 17.9369,-6.91142
 L 17.3139,-6.99013 L -17.3139,-6.99013 L -17.9369,-6.91142 L -18.5451,-6.75528 L -19.1289,-6.52412 L -19.6791,-6.22163
 L -20.1871,-5.85255 L -20.6448,-5.42273 L -21.0451,-4.93892 L -21.3815,-4.40877 L -21.6489,-3.84062 L -21.8429,-3.24344
 L -21.9606,-2.62666 L -22,-2 L -22,2 L -21.9606,2.62666 L -21.8429,3.24344 L -21.6489,3.84062
 L -21.3815,4.40877 L -21.0451,4.93892 L -20.6448,5.42273 L -20.1871,5.85255 L -19.6791,6.22163 L -19.1289,6.52412
 L -18.5451,6.75528 L -17.9369,6.91142 L -17.3139,6.99013 L 17.3139,6.99013 z
M 14.8116,2.99408 L 14.4379,2.94685 L 14.0729,2.85316 L 13.7227,2.71448 L 13.3925,2.53297 L 13.0877,2.31154
 L 12.8131,2.05363 L 12.5729,1.76335 L 12.3711,1.44525 L 12.2242,1.13322 L 12.1908,1.20438 L 12.0225,1.46945
 L 11.8224,1.71136 L 11.5936,1.92627 L 11.3396,2.11081 L 11.0644,2.26205 L 10.7725,2.37764 L 10.4684,2.4557
 L 10.157,2.49506 L 9.84302,2.49506 L 9.53154,2.4557 L 9.22745,2.37764 L 8.93555,2.26205 L 8.66043,2.11081
 L 8.40643,1.92627 L 8.17757,1.71136 L 7.97745,1.46945 L 7.80922,1.20438 L 7.67555,0.920303 L 7.57854,0.621719
 L 7.5197,0.313324 L 7.5,-0 L 7.5197,-0.313324 L 7.57854,-0.621719 L 7.67555,-0.920303 L 7.80922,-1.20438
 L 7.97745,-1.46945 L 8.17757,-1.71136 L 8.40643,-1.92627 L 8.66043,-2.11081 L 8.93555,-2.26205 L 9.22745,-2.37764
 L 9.53154,-2.4557 L 9.84302,-2.49506 L 10.157,-2.49506 L 10.4684,-2.4557 L 10.7725,-2.37764 L 11.0644,-2.26205
 L 11.3396,-2.11081 L 11.5936,-1.92627 L 11.8224,-1.71136 L 12.0225,-1.46945 L 12.1908,-1.20438 L 12.2242,-1.13322
 L 12.3711,-1.44525 L 12.5729,-1.76335 L 12.8131,-2.05363 L 13.0877,-2.31154 L 13.3925,-2.53297 L 13.7227,-2.71448
 L 14.0729,-2.85316 L 14.4379,-2.94685 L 14.8116,-2.99408 L 15.1884,-2.99408 L 15.5621,-2.94685 L 15.927,-2.85316
 L 16.2773,-2.71448 L 16.6075,-2.53297 L 16.9123,-2.31154 L 17.1869,-2.05363 L 17.427,-1.76335 L 17.6289,-1.44525
 L 17.7893,-1.10437 L 17.9057,-0.746063 L 17.9763,-0.375992 L 18,-0 L 17.9763,0.375992 L 17.9057,0.746063
 L 17.7893,1.10437 L 17.6289,1.44525 L 17.427,1.76335 L 17.1869,2.05363 L 16.9123,2.31154 L 16.6075,2.53297
 L 16.2773,2.71448 L 15.927,2.85316 L 15.5621,2.94685 L 15.1884,2.99408 z
M -15.1884,2.99408 L -15.5621,2.94685 L -15.927,2.85316 L -16.2773,2.71448 L -16.6075,2.53297 L -16.9123,2.31154
 L -17.1869,2.05363 L -17.427,1.76335 L -17.6289,1.44525 L -17.7893,1.10437 L -17.9057,0.746063 L -17.9763,0.375992
 L -18,-0 L -17.9763,-0.375992 L -17.9057,-0.746063 L -17.7893,-1.10437 L -17.6289,-1.44525 L -17.427,-1.76335
 L -17.1869,-2.05363 L -16.9123,-2.31154 L -16.6075,-2.53297 L -16.2773,-2.71448 L -15.927,-2.85316 L -15.5621,-2.94685
 L -15.1884,-2.99408 L -14.8116,-2.99408 L -14.4379,-2.94685 L -14.0729,-2.85316 L -13.7227,-2.71448 L -13.3925,-2.53297
 L -13.0877,-2.31154 L -12.8131,-2.05363 L -12.5729,-1.76335 L -12.3711,-1.44525 L -12.2242,-1.13322 L -12.1908,-1.20438
 L -12.0225,-1.46945 L -11.8224,-1.71136 L -11.5936,-1.92627 L -11.3396,-2.11081 L -11.0644,-2.26205 L -10.7725,-2.37764
 L -10.4684,-2.4557 L -10.157,-2.49506 L -9.84302,-2.49506 L -9.53154,-2.4557 L -9.22745,-2.37764 L -8.93555,-2.26205
 L -8.66043,-2.11081 L -8.40643,-1.92627 L -8.17757,-1.71136 L -7.97745,-1.46945 L -7.80922,-1.20438 L -7.67555,-0.920303
 L -7.57854,-0.621719 L -7.5197,-0.313324 L -7.5,-0 L -7.5197,0.313324 L -7.57854,0.621719 L -7.67555,0.920303
 L -7.80922,1.20438 L -7.97745,1.46945 L -8.17757,1.71136 L -8.40643,1.92627 L -8.66043,2.11081 L -8.93555,2.26205
 L -9.22745,2.37764 L -9.53154,2.4557 L -9.84302,2.49506 L -10.157,2.49506 L -10.4684,2.4557 L -10.7725,2.37764
 L -11.0644,2.26205 L -11.3396,2.11081 L -11.5936,1.92627 L -11.8224,1.71136 L -12.0225,1.46945 L -12.1908,1.20438
 L -12.2242,1.13322 L -12.3711,1.44525 L -12.5729,1.76335 L -12.8131,2.05363 L -13.0877,2.31154 L -13.3925,2.53297
 L -13.7227,2.71448 L -14.0729,2.85316 L -14.4379,2.94685 L -14.8116,2.99408 z
M -0.156967,2.49506 L -0.468445,2.4557 L -0.772537,2.37764 L -1.06444,2.26205 L -1.33955,2.11081 L -1.59355,1.92627
 L -1.82242,1.71136 L -2.02254,1.46945 L -2.19077,1.20438 L -2.32443,0.920303 L -2.42145,0.621719 L -2.48029,0.313324
 L -2.5,-0 L -2.48029,-0.313324 L -2.42145,-0.621719 L -2.32443,-0.920303 L -2.19077,-1.20438 L -2.02254,-1.46945
 L -1.82242,-1.71136 L -1.59355,-1.92627 L -1.33955,-2.11081 L -1.06444,-2.26205 L -0.772537,-2.37764 L -0.468445,-2.4557
 L -0.156967,-2.49506 L 0.156967,-2.49506 L 0.468445,-2.4557 L 0.772537,-2.37764 L 1.06444,-2.26205 L 1.33955,-2.11081
 L 1.59355,-1.92627 L 1.82242,-1.71136 L 2.02254,-1.46945 L 2.19077,-1.20438 L 2.32443,-0.920303 L 2.42145,-0.621719
 L 2.48029,-0.313324 L 2.5,-0 L 2.48029,0.313324 L 2.42145,0.621719 L 2.32443,0.920303 L 2.19077,1.20438
 L 2.02254,1.46945 L 1.82242,1.71136 L 1.59355,1.92627 L 1.33955,2.11081 L 1.06444,2.26205 L 0.772537,2.37764
 L 0.468445,2.4557 L 0.156967,2.49506 z
" stroke="black" fill="lightgray" stroke-width="0.5"/>
</svg>
