<?xml version="1.0" standalone="no"?>
<!DOCTYPE svg PUBLIC "-//W3C//DTD SVG 1.1//EN" "http://www.w3.org/Graphics/SVG/1.1/DTD/svg11.dtd">
<svg width="120mm" height="30mm" viewBox="-60 -15 120 30" xmlns="http://www.w3.org/2000/svg" version="1.1">
<title>OpenSCAD Model</title>
<path d="
M 55.4369,14.4114 L 56.0451,14.2553 L 56.6289,14.0241 L 57.1791,13.7216 L 57.6871,13.3526 L 58.1448,12.9227
 L 58.5451,12.4389 L 58.8815,11.9088 L 59.1489,11.3406 L 59.3429,10.7434 L 59.4606,10.1267 L 59.5,9.5
 L 59.5,-9.5 L 59.4606,-10.1267 L 59.3429,-10.7434 L 59.1489,-11.3406 L 58.8815,-11.9088 L 58.5451,-12.4389
 L 58.1448,-12.9227 L 57.6871,-13.3526 L 57.1791,-13.7216 L 56.6289,-14.0241 L 56.0451,-14.2553 L 55.4369,-14.4114
 L 54.8139,-14.4901 L -54.8139,-14.4901 L -55.4369,-14.4114 L -56.0451,-14.2553 L -56.6289,-14.0241 L -57.1791,-13.7216
 L -57.6871,-13.3526 L -58.1448,-12.9227 L -58.5451,-12.4389 L -58.8815,-11.9088 L -59.1489,-11.3406 L -59.3429,-10.7434
 L -59.4606,-10.1267 L -59.5,-9.5 L -59.5,9.5 L -59.4606,10.1267 L -59.3429,10.7434 L -59.1489,11.3406
 L -58.8815,11.9088 L -58.5451,12.4389 L -58.1448,12.9227 L -57.6871,13.3526 L -57.1791,13.7216 L -56.6289,14.0241
 L -56.0451,14.2553 L -55.4369,14.4114 L -54.8139,14.4901 L 54.8139,14.4901 z
M 52.3116,10.4941 L 51.9379,10.4469 L 51.5729,10.3532 L 51.2227,10.2145 L 50.8925,10.033 L 50.5877,9.81154
 L 50.3131,9.55363 L 50.0729,9.26335 L 49.8711,8.94525 L 49.7107,8.60437 L 49.5942,8.24606 L 49.5237,7.87599
 L 49.5,7.5 L 49.5237,7.12399 L 49.5942,6.75392 L 49.7107,6.39561 L 49.8127,6.17882 L 49.4181,6.54936
 L 48.5545,7.17677 L 47.6191,7.69102 L 46.6266,8.08397 L 45.5927,8.34944 L 44.5337,8.48322 L 43.4663,8.48322
 L 42.4073,8.34944 L 41.3734,8.08397 L 40.3809,7.69102 L 39.4455,7.17677 L 38.5819,6.54936 L 37.8038,5.81865
 L 37.1234,4.99617 L 36.5514,4.09489 L 36.0969,3.12904 L 35.767,2.11386 L 35.567,1.06532 L 35.5,-0
 L 35.567,-1.06532 L 35.767,-2.11386 L 36.0969,-3.12904 L 36.5514,-4.09489 L 37.1234,-4.99617 L 37.8038,-5.81865
 L 38.5819,-6.54936 L 39.4455,-7.17677 L 40.3809,-7.69102 L 41.3734,-8.08397 L 42.4073,-8.34944 L 43.4663,-8.48322
 L 44.5337,-8.48322 L 45.5927,-8.34944 L 46.6266,-8.08397 L 47.6191,-7.69102 L 48.5545,-7.17677 L 49.4181,-6.54936
 L 49.8127,-6.17882 L 49.7107,-6.39561 L 49.5942,-6.75392 L 49.5237,-7.12399 L 49.5,-7.5 L 49.5237,-7.87599
 L 49.5942,-8.24606 L 49.7107,-8.60437 L 49.8711,-8.94525 L 50.0729,-9.26335 L 50.3131,-9.55363 L 50.5877,-9.81154
 L 50.8925,-10.033 L 51.2227,-10.2145 L 51.5729,-10.3532 L 51.9379,-10.4469 L 52.3116,-10.4941 L 52.6884,-10.4941
 L 53.0621,-10.4469 L 53.427,-10.3532 L 53.7773,-10.2145 L 54.1075,-10.033 L 54.4123,-9.81154 L 54.6869,-9.55363
 L 54.927,-9.26335 L 55.1289,-8.94525 L 55.2893,-8.60437 L 55.4057,-8.24606 L 55.4763,-7.87599 L 55.5,-7.5
 L 55.4763,-7.12399 L 55.4057,-6.75392 L 55.2893,-6.39561 L 55.1289,-6.05473 L 54.927,-5.73663 L 54.6869,-5.44635
 L 54.4123,-5.18845 L 54.1075,-4.96701 L 53.7773,-4.78551 L 53.427,-4.64682 L 53.0621,-4.55313 L 52.6884,-4.50591
 L 52.3116,-4.50591 L 51.9379,-4.55313 L 51.5729,-4.64682 L 51.2227,-4.78551 L 50.8965,-4.96478 L 51.4486,-4.09489
 L 51.9031,-3.12904 L 52.233,-2.11386 L 52.433,-1.06532 L 52.5,-0 L 52.433,1.06532 L 52.233,2.11386
 L 51.9031,3.12904 L 51.4486,4.09489 L 50.8965,4.96478 L 51.2227,4.78551 L 51.5729,4.64682 L 51.9379,4.55313
 L 52.3116,4.50591 L 52.6884,4.50591 L 53.0621,4.55313 L 53.427,4.64682 L 53.7773,4.78551 L 54.1075,4.96701
 L 54.4123,5.18845 L 54.6869,5.44635 L 54.927,5.73663 L 55.1289,6.05473 L 55.2893,6.39561 L 55.4057,6.75392
 L 55.4763,7.12399 L 55.5,7.5 L 55.4763,7.87599 L 55.4057,8.24606 L 55.2893,8.60437 L 55.1289,8.94525
 L 54.927,9.26335 L 54.6869,9.55363 L 54.4123,9.81154 L 54.1075,10.033 L 53.7773,10.2145 L 53.427,10.3532
 L 53.0621,10.4469 L 52.6884,10.4941 z
M -52.6884,10.4941 L -53.0621,10.4469 L -53.427,10.3532 L -53.7773,10.2145 L -54.1075,10.033 L -54.4123,9.81154
 L -54.6869,9.55363 L -54.927,9.26335 L -55.1289,8.94525 L -55.2893,8.60437 L -55.4057,8.24606 L -55.4763,7.87599
 L -55.5,7.5 L -55.4763,7.12399 L -55.4057,6.75392 L -55.2893,6.39561 L -55.1289,6.05473 L -54.927,5.73663
 L -54.6869,5.44635 L -54.4123,5.18845 L -54.1075,4.96701 L -53.7773,4.78551 L -53.427,4.64682 L -53.0621,4.55313
 L -52.6884,4.50591 L -52.3116,4.50591 L -51.9379,4.55313 L -51.5729,4.64682 L -51.2227,4.78551 L -50.8965,4.96478
 L -51.4486,4.09489 L -51.9031,3.12904 L -52.233,2.11386 L -52.433,1.06532 L -52.5,-0 L -52.433,-1.06532
 L -52.233,-2.11386 L -51.9031,-3.12904 L -51.4486,-4.09489 L -50.8965,-4.96478 L -51.2227,-4.78551 L -51.5729,-4.64682
 L -51.9379,-4.55313 L -52.3116,-4.50591 L -52.6884,-4.50591 L -53.0621,-4.55313 L -53.427,-4.64682 L -53.7773,-4.78551
 L -54.1075,-4.96701 L -54.4123,-5.18845 L -54.6869,-5.44635 L -54.927,-5.73663 L -55.1289,-6.05473 L -55.2893,-6.39561
 L -55.4057,-6.75392 L -55.4763,-7.12399 L -55.5,-7.5 L -55.4763,-7.87599 L -55.4057,-8.24606 L -55.2893,-8.60437
 L -55.1289,-8.94525 L -54.927,-9.26335 L -54.6869,-9.55363 L -54.4123,-9.81154 L -54.1075,-10.033 L -53.7773,-10.2145
 L -53.427,-10.3532 L -53.0621,-10.4469 L -52.6884,-10.4941 L -52.3116,-10.4941 L -51.9379,-10.4469 L -51.5729,-10.3532
 L -51.2227,-10.2145 L -50.8925,-10.033 L -50.5877,-9.81154 L -50.3131,-9.55363 L -50.0729,-9.26335 L -49.8711,-8.94525
 L -49.7107,-8.60437 L -49.5942,-8.24606 L -49.5237,-7.87599 L -49.5,-7.5 L -49.5237,-7.12399 L -49.5942,-6.75392
 L -49.7107,-6.39561 L -49.8127,-6.17882 L -49.4181,-6.54936 L -48.5545,-7.17677 L -47.6191,-7.69102 L -46.6266,-8.08397
 L -45.5927,-8.34944 L -44.5337,-8.48322 L -43.4663,-8.48322 L -42.4073,-8.34944 L -41.3734,-8.08397 L -40.3809,-7.69102
 L -39.4455,-7.17677 L -38.5819,-6.54936 L -37.8038,-5.81865 L -37.1234,-4.99617 L -36.5514,-4.09489 L -36.0969,-3.12904
 L -35.767,-2.11386 L -35.567,-1.06532 L -35.5,-0 L -35.567,1.06532 L -35.767,2.11386 L -36.0969,3.12904
 L -36.5514,4.09489 L -37.1234,4.99617 L -37.8038,5.81865 L -38.5819,6.54936 L -39.4455,7.17677 L -40.3809,7.69102
 L -41.3734,8.08397 L -42.4073,8.34944 L -43.4663,8.48322 L -44.5337,8.48322 L -45.5927,8.34944 L -46.6266,8.08397
 L -47.6191,7.69102 L -48.5545,7.17677 L -49.4181,6.54936 L -49.8127,6.17882 L -49.7107,6.39561 L -49.5942,6.75392
 L -49.5237,7.12399 L -49.5,7.5 L -49.5237,7.87599 L -49.5942,8.24606 L -49.7107,8.60437 L -49.8711,8.94525
 L -50.0729,9.26335 L -50.3131,9.55363 L -50.5877,9.81154 L -50.8925,10.033 L -51.2227,10.2145 L -51.5729,10.3532
 L -51.9379,10.4469 L -52.3116,10.4941 z
M 21.4663,8.48322 L 20.4073,8.34944 L 19.3734,8.08397 L 18.3809,7.69102 L 17.4455,7.17677 L 16.5819,6.54936
 L 15.8038,5.81865 L 15.1234,4.99617 L 14.5514,4.09489 L 14.0969,3.12904 L 13.767,2.11386 L 13.567,1.06532
 L 13.5,-0 L 13.567,-1.06532 L 13.767,-2.11386 L 14.0969,-3.12904 L 14.5514,-4.09489 L 15.1234,-4.99617
 L 15.8038,-5.81865 L 16.5819,-6.54936 L 17.4455,-7.17677 L 18.3809,-7.69102 L 19.3734,-8.08397 L 20.4073,-8.34944
 L 21.4663,-8.48322 L 22.5337,-8.48322 L 23.5927,-8.34944 L 24.6266,-8.08397 L 25.6191,-7.69102 L 26.5545,-7.17677
 L 27.4181,-6.54936 L 28.1962,-5.81865 L 28.8766,-4.99617 L 29.4486,-4.09489 L 29.9031,-3.12904 L 30.233,-2.11386
 L 30.433,-1.06532 L 30.5,-0 L 30.433,1.06532 L 30.233,2.11386 L 29.9031,3.12904 L 29.4486,4.09489
 L 28.8766,4.99617 L 28.1962,5.81865 L 27.4181,6.54936 L 26.5545,7.17677 L 25.6191,7.69102 L 24.6266,8.08397
 L 23.5927,8.34944 L 22.5337,8.48322 z
M -0.533707,8.48322 L -1.59273,8.34944 L -2.62663,8.08397 L -3.61911,7.69102 L -4.55452,7.17677 L -5.41809,6.54936
 L -6.19623,5.81865 L -6.87663,4.99617 L -7.44859,4.09489 L -7.90309,3.12904 L -8.23296,2.11386 L -8.43297,1.06532
 L -8.5,-0 L -8.43297,-1.06532 L -8.23296,-2.11386 L -7.90309,-3.12904 L -7.44859,-4.09489 L -6.87663,-4.99617
 L -6.19623,-5.81865 L -5.41809,-6.54936 L -4.55452,-7.17677 L -3.61911,-7.69102 L -2.62663,-8.08397 L -1.59273,-8.34944
 L -0.533707,-8.48322 L 0.533707,-8.48322 L 1.59273,-8.34944 L 2.62663,-8.08397 L 3.61911,-7.69102 L 4.55452,-7.17677
 L 5.41809,-6.54936 L 6.19623,-5.81865 L 6.87663,-4.99617 L 7.44859,-4.09489 L 7.90309,-3.12904 L 8.23296,-2.11386
 L 8.43297,-1.06532 L 8.5,-0 L 8.43297,1.06532 L 8.23296,2.11386 L 7.90309,3.12904 L 7.44859,4.09489
 L 6.87663,4.99617 L 6.19623,5.81865 L 5.41809,6.54936 L 4.55452,7.17677 L 3.61911,7.69102 L 2.62663,8.08397
 L 1.59273,8.34944 L 0.533707,8.48322 z
M -22.5337,8.48322 L -23.5927,8.34944 L -24.6266,8.08397 L -25.6191,7.69102 L -26.5545,7.17677 L -27.4181,6.54936
 L -28.1962,5.81865 L -28.8766,4.99617 L -29.4486,4.09489 L -29.9031,3.12904 L -30.233,2.11386 L -30.433,1.06532
 L -30.5,-0 L -30.433,-1.06532 L -30.233,-2.11386 L -29.9031,-3.12904 L -29.4486,-4.09489 L -28.8766,-4.99617
 L -28.1962,-5.81865 L -27.4181,-6.54936 L -26.5545,-7.17677 L -25.6191,-7.69102 L -24.6266,-8.08397 L -23.5927,-8.34944
 L -22.5337,-8.48322 L -21.4663,-8.48322 L -20.4073,-8.34944 L -19.3734,-8.08397 L -18.3809,-7.69102 L -17.4455,-7.17677
 L -16.5819,-6.54936 L -15.8038,-5.81865 L -15.1234,-4.99617 L -14.5514,-4.09489 L -14.0969,-3.12904 L -13.767,-2.11386
 L -13.567,-1.06532 L -13.5,-0 L -13.567,1.06532 L -13.767,2.11386 L -14.0969,3.12904 L -14.5514,4.09489
 L -15.1234,4.99617 L -15.8038,5.81865 L -16.5819,6.54936 L -17.4455,7.17677 L -18.3809,7.69102 L -19.3734,8.08397
 L -20.4073,8.34944 L -21.4663,8.48322 z
" stroke="black" fill="lightgray" stroke-width="0.5"/>
</svg>
