<?xml version="1.0" standalone="no"?>
<!DOCTYPE svg PUBLIC "-//W3C//DTD SVG 1.1//EN" "http://www.w3.org/Graphics/SVG/1.1/DTD/svg11.dtd">
<svg width="464mm" height="120mm" viewBox="-232 -60 464 120" xmlns="http://www.w3.org/2000/svg" version="1.1">
<title>OpenSCAD Model</title>
<path d="
M 227.937,59.4114 L 228.545,59.2553 L 229.129,59.0241 L 229.679,58.7216 L 230.187,58.3526 L 230.645,57.9227
 L 231.045,57.4389 L 231.382,56.9088 L 231.649,56.3406 L 231.843,55.7434 L 231.961,55.1267 L 232,54.5
 L 232,-54.5 L 231.961,-55.1267 L 231.843,-55.7434 L 231.649,-56.3406 L 231.382,-56.9088 L 231.045,-57.4389
 L 230.645,-57.9227 L 230.187,-58.3526 L 229.679,-58.7216 L 229.129,-59.0241 L 228.545,-59.2553 L 227.937,-59.4114
 L 227.314,-59.4901 L -227.314,-59.4901 L -227.937,-59.4114 L -228.545,-59.2553 L -229.129,-59.0241 L -229.679,-58.7216
 L -230.187,-58.3526 L -230.645,-57.9227 L -231.045,-57.4389 L -231.382,-56.9088 L -231.649,-56.3406 L -231.843,-55.7434
 L -231.961,-55.1267 L -232,-54.5 L -232,54.5 L -231.961,55.1267 L -231.843,55.7434 L -231.649,56.3406
 L -231.382,56.9088 L -231.045,57.4389 L -230.645,57.9227 L -230.187,58.3526 L -229.679,58.7216 L -229.129,59.0241
 L -228.545,59.2553 L -227.937,59.4114 L -227.314,59.4901 L 227.314,59.4901 z
M 224.812,-49.5059 L 224.438,-49.5531 L 224.073,-49.6468 L 223.723,-49.7855 L 223.393,-49.967 L 223.088,-50.1885
 L 222.813,-50.4464 L 222.573,-50.7366 L 222.371,-51.0547 L 222.211,-51.3956 L 222.094,-51.7539 L 222.024,-52.124
 L 222,-52.5 L 222.024,-52.876 L 222.094,-53.2461 L 222.211,-53.6044 L 222.371,-53.9453 L 222.573,-54.2634
 L 222.813,-54.5536 L 223.088,-54.8115 L 223.393,-55.033 L 223.723,-55.2145 L 224.073,-55.3532 L 224.438,-55.4469
 L 224.812,-55.4941 L 225.188,-55.4941 L 225.562,-55.4469 L 225.927,-55.3532 L 226.277,-55.2145 L 226.607,-55.033
 L 226.912,-54.8115 L 227.187,-54.5536 L 227.427,-54.2634 L 227.629,-53.9453 L 227.789,-53.6044 L 227.906,-53.2461
 L 227.976,-52.876 L 228,-52.5 L 227.976,-52.124 L 227.906,-51.7539 L 227.789,-51.3956 L 227.629,-51.0547
 L 227.427,-50.7366 L 227.187,-50.4464 L 226.912,-50.1885 L 226.607,-49.967 L 226.277,-49.7855 L 225.927,-49.6468
 L 225.562,-49.5531 L 225.188,-49.5059 z
M -225.188,-49.5059 L -225.562,-49.5531 L -225.927,-49.6468 L -226.277,-49.7855 L -226.607,-49.967 L -226.912,-50.1885
 L -227.187,-50.4464 L -227.427,-50.7366 L -227.629,-51.0547 L -227.789,-51.3956 L -227.906,-51.7539 L -227.976,-52.124
 L -228,-52.5 L -227.976,-52.876 L -227.906,-53.2461 L -227.789,-53.6044 L -227.629,-53.9453 L -227.427,-54.2634
 L -227.187,-54.5536 L -226.912,-54.8115 L -226.607,-55.033 L -226.277,-55.2145 L -225.927,-55.3532 L -225.562,-55.4469
 L -225.188,-55.4941 L -224.812,-55.4941 L -224.438,-55.4469 L -224.073,-55.3532 L -223.723,-55.2145 L -223.393,-55.033
 L -223.088,-54.8115 L -222.813,-54.5536 L -222.573,-54.2634 L -222.371,-53.9453 L -222.211,-53.6044 L -222.094,-53.2461
 L -222.024,-52.876 L -222,-52.5 L -222.024,-52.124 L -222.094,-51.7539 L -222.211,-51.3956 L -222.371,-51.0547
 L -222.573,-50.7366 L -222.813,-50.4464 L -223.088,-50.1885 L -223.393,-49.967 L -223.723,-49.7855 L -224.073,-49.6468
 L -224.438,-49.5531 L -224.812,-49.5059 z
M 169.047,54.8915 L 162.194,54.0258 L 155.504,52.3081 L 149.082,49.7655 L 143.03,46.438 L 137.442,42.3782
 L 132.407,37.6501 L 128.004,32.3282 L 124.303,26.4964 L 121.362,20.2468 L 119.228,13.6779 L 117.934,6.89333
 L 117.5,-0 L 117.934,-6.89333 L 119.228,-13.6779 L 121.362,-20.2468 L 124.303,-26.4964 L 128.004,-32.3282
 L 132.407,-37.6501 L 137.442,-42.3782 L 143.03,-46.438 L 149.082,-49.7655 L 155.504,-52.3081 L 162.194,-54.0258
 L 169.047,-54.8915 L 175.953,-54.8915 L 182.806,-54.0258 L 189.496,-52.3081 L 195.918,-49.7655 L 201.97,-46.438
 L 207.558,-42.3782 L 212.593,-37.6501 L 216.996,-32.3282 L 220.697,-26.4964 L 223.638,-20.2468 L 225.772,-13.6779
 L 227.066,-6.89333 L 227.5,-0 L 227.066,6.89333 L 225.772,13.6779 L 223.638,20.2468 L 220.697,26.4964
 L 216.996,32.3282 L 212.593,37.6501 L 207.558,42.3782 L 201.97,46.438 L 195.918,49.7655 L 189.496,52.3081
 L 182.806,54.0258 L 175.953,54.8915 z
M 54.0465,54.8915 L 47.194,54.0258 L 40.5041,52.3081 L 34.0821,49.7655 L 28.0295,46.438 L 22.4417,42.3782
 L 17.4067,37.6501 L 13.0041,32.3282 L 9.30313,26.4964 L 6.36229,20.2468 L 4.22792,13.6779 L 2.93369,6.89333
 L 2.5,-0 L 2.93369,-6.89333 L 4.22792,-13.6779 L 6.36229,-20.2468 L 9.30313,-26.4964 L 13.0041,-32.3282
 L 17.4067,-37.6501 L 22.4417,-42.3782 L 28.0295,-46.438 L 34.0821,-49.7655 L 40.5041,-52.3081 L 47.194,-54.0258
 L 54.0465,-54.8915 L 60.9535,-54.8915 L 67.806,-54.0258 L 74.4959,-52.3081 L 80.9179,-49.7655 L 86.9705,-46.438
 L 92.5583,-42.3782 L 97.5933,-37.6501 L 101.996,-32.3282 L 105.697,-26.4964 L 108.638,-20.2468 L 110.772,-13.6779
 L 112.066,-6.89333 L 112.5,-0 L 112.066,6.89333 L 110.772,13.6779 L 108.638,20.2468 L 105.697,26.4964
 L 101.996,32.3282 L 97.5933,37.6501 L 92.5583,42.3782 L 86.9705,46.438 L 80.9179,49.7655 L 74.4959,52.3081
 L 67.806,54.0258 L 60.9535,54.8915 z
M -60.9535,54.8915 L -67.806,54.0258 L -74.4959,52.3081 L -80.9179,49.7655 L -86.9705,46.438 L -92.5583,42.3782
 L -97.5933,37.6501 L -101.996,32.3282 L -105.697,26.4964 L -108.638,20.2468 L -110.772,13.6779 L -112.066,6.89333
 L -112.5,-0 L -112.066,-6.89333 L -110.772,-13.6779 L -108.638,-20.2468 L -105.697,-26.4964 L -101.996,-32.3282
 L -97.5933,-37.6501 L -92.5583,-42.3782 L -86.9705,-46.438 L -80.9179,-49.7655 L -74.4959,-52.3081 L -67.806,-54.0258
 L -60.9535,-54.8915 L -54.0465,-54.8915 L -47.194,-54.0258 L -40.5041,-52.3081 L -34.0821,-49.7655 L -28.0295,-46.438
 L -22.4417,-42.3782 L -17.4067,-37.6501 L -13.0041,-32.3282 L -9.30313,-26.4964 L -6.36229,-20.2468 L -4.22792,-13.6779
 L -2.93369,-6.89333 L -2.5,-0 L -2.93369,6.89333 L -4.22792,13.6779 L -6.36229,20.2468 L -9.30313,26.4964
 L -13.0041,32.3282 L -17.4067,37.6501 L -22.4417,42.3782 L -28.0295,46.438 L -34.0821,49.7655 L -40.5041,52.3081
 L -47.194,54.0258 L -54.0465,54.8915 z
M -175.953,54.8915 L -182.806,54.0258 L -189.496,52.3081 L -195.918,49.7655 L -201.97,46.438 L -207.558,42.3782
 L -212.593,37.6501 L -216.996,32.3282 L -220.697,26.4964 L -223.638,20.2468 L -225.772,13.6779 L -227.066,6.89333
 L -227.5,-0 L -227.066,-6.89333 L -225.772,-13.6779 L -223.638,-20.2468 L -220.697,-26.4964 L -216.996,-32.3282
 L -212.593,-37.6501 L -207.558,-42.3782 L -201.97,-46.438 L -195.918,-49.7655 L -189.496,-52.3081 L -182.806,-54.0258
 L -175.953,-54.8915 L -169.047,-54.8915 L -162.194,-54.0258 L -155.504,-52.3081 L -149.082,-49.7655 L -143.03,-46.438
 L -137.442,-42.3782 L -132.407,-37.6501 L -128.004,-32.3282 L -124.303,-26.4964 L -121.362,-20.2468 L -119.228,-13.6779
 L -117.934,-6.89333 L -117.5,-0 L -117.934,6.89333 L -119.228,13.6779 L -121.362,20.2468 L -124.303,26.4964
 L -128.004,32.3282 L -132.407,37.6501 L -137.442,42.3782 L -143.03,46.438 L -149.082,49.7655 L -155.504,52.3081
 L -162.194,54.0258 L -169.047,54.8915 z
M -225.188,55.4941 L -225.562,55.4469 L -225.927,55.3532 L -226.277,55.2145 L -226.607,55.033 L -226.912,54.8115
 L -227.187,54.5536 L -227.427,54.2634 L -227.629,53.9453 L -227.789,53.6044 L -227.906,53.2461 L -227.976,52.876
 L -228,52.5 L -227.976,52.124 L -227.906,51.7539 L -227.789,51.3956 L -227.629,51.0547 L -227.427,50.7366
 L -227.187,50.4464 L -226.912,50.1885 L -226.607,49.967 L -226.277,49.7855 L -225.927,49.6468 L -225.562,49.5531
 L -225.188,49.5059 L -224.812,49.5059 L -224.438,49.5531 L -224.073,49.6468 L -223.723,49.7855 L -223.393,49.967
 L -223.088,50.1885 L -222.813,50.4464 L -222.573,50.7366 L -222.371,51.0547 L -222.211,51.3956 L -222.094,51.7539
 L -222.024,52.124 L -222,52.5 L -222.024,52.876 L -222.094,53.2461 L -222.211,53.6044 L -222.371,53.9453
 L -222.573,54.2634 L -222.813,54.5536 L -223.088,54.8115 L -223.393,55.033 L -223.723,55.2145 L -224.073,55.3532
 L -224.438,55.4469 L -224.812,55.4941 z
M 224.812,55.4941 L 224.438,55.4469 L 224.073,55.3532 L 223.723,55.2145 L 223.393,55.033 L 223.088,54.8115
 L 222.813,54.5536 L 222.573,54.2634 L 222.371,53.9453 L 222.211,53.6044 L 222.094,53.2461 L 222.024,52.876
 L 222,52.5 L 222.024,52.124 L 222.094,51.7539 L 222.211,51.3956 L 222.371,51.0547 L 222.573,50.7366
 L 222.813,50.4464 L 223.088,50.1885 L 223.393,49.967 L 223.723,49.7855 L 224.073,49.6468 L 224.438,49.5531
 L 224.812,49.5059 L 225.188,49.5059 L 225.562,49.5531 L 225.927,49.6468 L 226.277,49.7855 L 226.607,49.967
 L 226.912,50.1885 L 227.187,50.4464 L 227.427,50.7366 L 227.629,51.0547 L 227.789,51.3956 L 227.906,51.7539
 L 227.976,52.124 L 228,52.5 L 227.976,52.876 L 227.906,53.2461 L 227.789,53.6044 L 227.629,53.9453
 L 227.427,54.2634 L 227.187,54.5536 L 226.912,54.8115 L 226.607,55.033 L 226.277,55.2145 L 225.927,55.3532
 L 225.562,55.4469 L 225.188,55.4941 z
" stroke="black" fill="lightgray" stroke-width="0.5"/>
</svg>
