<?xml version="1.0" standalone="no"?>
<!DOCTYPE svg PUBLIC "-//W3C//DTD SVG 1.1//EN" "http://www.w3.org/Graphics/SVG/1.1/DTD/svg11.dtd">
<svg width="74mm" height="44mm" viewBox="-37 -22 74 44" xmlns="http://www.w3.org/2000/svg" version="1.1">
<title>OpenSCAD Model</title>
<path d="
M 32.9369,21.9114 L 33.5451,21.7553 L 34.1289,21.5241 L 34.6791,21.2216 L 35.1871,20.8526 L 35.6448,20.4227
 L 36.0451,19.9389 L 36.3815,19.4088 L 36.6489,18.8406 L 36.8429,18.2434 L 36.9606,17.6267 L 37,17
 L 37,-17 L 36.9606,-17.6267 L 36.8429,-18.2434 L 36.6489,-18.8406 L 36.3815,-19.4088 L 36.0451,-19.9389
 L 35.6448,-20.4227 L 35.1871,-20.8526 L 34.6791,-21.2216 L 34.1289,-21.5241 L 33.5451,-21.7553 L 32.9369,-21.9114
 L 32.3139,-21.9901 L -32.3139,-21.9901 L -32.9369,-21.9114 L -33.5451,-21.7553 L -34.1289,-21.5241 L -34.6791,-21.2216
 L -35.1871,-20.8526 L -35.6448,-20.4227 L -36.0451,-19.9389 L -36.3815,-19.4088 L -36.6489,-18.8406 L -36.8429,-18.2434
 L -36.9606,-17.6267 L -37,-17 L -37,17 L -36.9606,17.6267 L -36.8429,18.2434 L -36.6489,18.8406
 L -36.3815,19.4088 L -36.0451,19.9389 L -35.6448,20.4227 L -35.1871,20.8526 L -34.6791,21.2216 L -34.1289,21.5241
 L -33.5451,21.7553 L -32.9369,21.9114 L -32.3139,21.9901 L 32.3139,21.9901 z
M 29.8116,-12.0059 L 29.4379,-12.0531 L 29.0729,-12.1468 L 28.7227,-12.2855 L 28.3925,-12.467 L 28.0877,-12.6884
 L 27.8131,-12.9464 L 27.5729,-13.2366 L 27.3711,-13.5547 L 27.2107,-13.8956 L 27.0942,-14.2539 L 27.0237,-14.624
 L 27,-15 L 27.0237,-15.376 L 27.0942,-15.7461 L 27.2107,-16.1044 L 27.3711,-16.4453 L 27.5729,-16.7634
 L 27.8131,-17.0536 L 28.0877,-17.3115 L 28.3925,-17.533 L 28.7227,-17.7145 L 29.0729,-17.8532 L 29.4379,-17.9469
 L 29.8116,-17.9941 L 30.1884,-17.9941 L 30.5621,-17.9469 L 30.927,-17.8532 L 31.2773,-17.7145 L 31.6075,-17.533
 L 31.9123,-17.3115 L 32.1869,-17.0536 L 32.427,-16.7634 L 32.6289,-16.4453 L 32.7893,-16.1044 L 32.9057,-15.7461
 L 32.9763,-15.376 L 33,-15 L 32.9763,-14.624 L 32.9057,-14.2539 L 32.7893,-13.8956 L 32.6289,-13.5547
 L 32.427,-13.2366 L 32.1869,-12.9464 L 31.9123,-12.6884 L 31.6075,-12.467 L 31.2773,-12.2855 L 30.927,-12.1468
 L 30.5621,-12.0531 L 30.1884,-12.0059 z
M -30.1884,-12.0059 L -30.5621,-12.0531 L -30.927,-12.1468 L -31.2773,-12.2855 L -31.6075,-12.467 L -31.9123,-12.6884
 L -32.1869,-12.9464 L -32.427,-13.2366 L -32.6289,-13.5547 L -32.7893,-13.8956 L -32.9057,-14.2539 L -32.9763,-14.624
 L -33,-15 L -32.9763,-15.376 L -32.9057,-15.7461 L -32.7893,-16.1044 L -32.6289,-16.4453 L -32.427,-16.7634
 L -32.1869,-17.0536 L -31.9123,-17.3115 L -31.6075,-17.533 L -31.2773,-17.7145 L -30.927,-17.8532 L -30.5621,-17.9469
 L -30.1884,-17.9941 L -29.8116,-17.9941 L -29.4379,-17.9469 L -29.0729,-17.8532 L -28.7227,-17.7145 L -28.3925,-17.533
 L -28.0877,-17.3115 L -27.8131,-17.0536 L -27.5729,-16.7634 L -27.3711,-16.4453 L -27.2107,-16.1044 L -27.0942,-15.7461
 L -27.0237,-15.376 L -27,-15 L -27.0237,-14.624 L -27.0942,-14.2539 L -27.2107,-13.8956 L -27.3711,-13.5547
 L -27.5729,-13.2366 L -27.8131,-12.9464 L -28.0877,-12.6884 L -28.3925,-12.467 L -28.7227,-12.2855 L -29.0729,-12.1468
 L -29.4379,-12.0531 L -29.8116,-12.0059 z
M -18.4418,14.9704 L -20.3107,14.7343 L -22.1353,14.2658 L -23.8867,13.5724 L -25.5374,12.6649 L -27.0614,11.5577
 L -28.4345,10.2682 L -29.6353,8.81677 L -30.6446,7.2263 L -31.4466,5.52187 L -32.0287,3.73035 L -32.3817,1.87999
 L -32.5,-0 L -32.3817,-1.87999 L -32.0287,-3.73035 L -31.4466,-5.52187 L -30.6446,-7.2263 L -29.6353,-8.81677
 L -28.4345,-10.2682 L -27.0614,-11.5577 L -25.5374,-12.6649 L -23.8867,-13.5724 L -22.1353,-14.2658 L -20.3107,-14.7343
 L -18.4418,-14.9704 L -16.5581,-14.9704 L -14.6893,-14.7343 L -12.8647,-14.2658 L -11.1133,-13.5724 L -9.46259,-12.6649
 L -7.93863,-11.5577 L -6.56546,-10.2682 L -5.36473,-8.81677 L -4.35539,-7.2263 L -3.55334,-5.52187 L -2.97125,-3.73035
 L -2.61827,-1.87999 L -2.5,-0 L -2.61827,1.87999 L -2.97125,3.73035 L -3.55334,5.52187 L -4.35539,7.2263
 L -5.36473,8.81677 L -6.56546,10.2682 L -7.93863,11.5577 L -9.46259,12.6649 L -11.1133,13.5724 L -12.8647,14.2658
 L -14.6893,14.7343 L -16.5581,14.9704 z
M 16.5581,14.9704 L 14.6893,14.7343 L 12.8647,14.2658 L 11.1133,13.5724 L 9.46259,12.6649 L 7.93863,11.5577
 L 6.56546,10.2682 L 5.36473,8.81677 L 4.35539,7.2263 L 3.55334,5.52187 L 2.97125,3.73035 L 2.61827,1.87999
 L 2.5,-0 L 2.61827,-1.87999 L 2.97125,-3.73035 L 3.55334,-5.52187 L 4.35539,-7.2263 L 5.36473,-8.81677
 L 6.56546,-10.2682 L 7.93863,-11.5577 L 9.46259,-12.6649 L 11.1133,-13.5724 L 12.8647,-14.2658 L 14.6893,-14.7343
 L 16.5581,-14.9704 L 18.4418,-14.9704 L 20.3107,-14.7343 L 22.1353,-14.2658 L 23.8867,-13.5724 L 25.5374,-12.6649
 L 27.0614,-11.5577 L 28.4345,-10.2682 L 29.6353,-8.81677 L 30.6446,-7.2263 L 31.4466,-5.52187 L 32.0287,-3.73035
 L 32.3817,-1.87999 L 32.5,-0 L 32.3817,1.87999 L 32.0287,3.73035 L 31.4466,5.52187 L 30.6446,7.2263
 L 29.6353,8.81677 L 28.4345,10.2682 L 27.0614,11.5577 L 25.5374,12.6649 L 23.8867,13.5724 L 22.1353,14.2658
 L 20.3107,14.7343 L 18.4418,14.9704 z
M 29.8116,17.9941 L 29.4379,17.9469 L 29.0729,17.8532 L 28.7227,17.7145 L 28.3925,17.533 L 28.0877,17.3115
 L 27.8131,17.0536 L 27.5729,16.7634 L 27.3711,16.4453 L 27.2107,16.1044 L 27.0942,15.7461 L 27.0237,15.376
 L 27,15 L 27.0237,14.624 L 27.0942,14.2539 L 27.2107,13.8956 L 27.3711,13.5547 L 27.5729,13.2366
 L 27.8131,12.9464 L 28.0877,12.6884 L 28.3925,12.467 L 28.7227,12.2855 L 29.0729,12.1468 L 29.4379,12.0531
 L 29.8116,12.0059 L 30.1884,12.0059 L 30.5621,12.0531 L 30.927,12.1468 L 31.2773,12.2855 L 31.6075,12.467
 L 31.9123,12.6884 L 32.1869,12.9464 L 32.427,13.2366 L 32.6289,13.5547 L 32.7893,13.8956 L 32.9057,14.2539
 L 32.9763,14.624 L 33,15 L 32.9763,15.376 L 32.9057,15.7461 L 32.7893,16.1044 L 32.6289,16.4453
 L 32.427,16.7634 L 32.1869,17.0536 L 31.9123,17.3115 L 31.6075,17.533 L 31.2773,17.7145 L 30.927,17.8532
 L 30.5621,17.9469 L 30.1884,17.9941 z
M -30.1884,17.9941 L -30.5621,17.9469 L -30.927,17.8532 L -31.2773,17.7145 L -31.6075,17.533 L -31.9123,17.3115
 L -32.1869,17.0536 L -32.427,16.7634 L -32.6289,16.4453 L -32.7893,16.1044 L -32.9057,15.7461 L -32.9763,15.376
 L -33,15 L -32.9763,14.624 L -32.9057,14.2539 L -32.7893,13.8956 L -32.6289,13.5547 L -32.427,13.2366
 L -32.1869,12.9464 L -31.9123,12.6884 L -31.6075,12.467 L -31.2773,12.2855 L -30.927,12.1468 L -30.5621,12.0531
 L -30.1884,12.0059 L -29.8116,12.0059 L -29.4379,12.0531 L -29.0729,12.1468 L -28.7227,12.2855 L -28.3925,12.467
 L -28.0877,12.6884 L -27.8131,12.9464 L -27.5729,13.2366 L -27.3711,13.5547 L -27.2107,13.8956 L -27.0942,14.2539
 L -27.0237,14.624 L -27,15 L -27.0237,15.376 L -27.0942,15.7461 L -27.2107,16.1044 L -27.3711,16.4453
 L -27.5729,16.7634 L -27.8131,17.0536 L -28.0877,17.3115 L -28.3925,17.533 L -28.7227,17.7145 L -29.0729,17.8532
 L -29.4379,17.9469 L -29.8116,17.9941 z
" stroke="black" fill="lightgray" stroke-width="0.5"/>
</svg>
