<?xml version="1.0" standalone="no"?>
<!DOCTYPE svg PUBLIC "-//W3C//DTD SVG 1.1//EN" "http://www.w3.org/Graphics/SVG/1.1/DTD/svg11.dtd">
<svg width="164mm" height="30mm" viewBox="-82 -54 164 30" xmlns="http://www.w3.org/2000/svg" version="1.1">
<title>OpenSCAD Model</title>
<path d="
M 77.9369,-24.5886 L 78.5451,-24.7447 L 79.1289,-24.9759 L 79.6791,-25.2784 L 80.1871,-25.6474 L 80.6448,-26.0773
 L 81.0451,-26.5611 L 81.3815,-27.0912 L 81.6489,-27.6594 L 81.8429,-28.2566 L 81.9606,-28.8733 L 82,-29.5
 L 82,-48.5 L 81.9606,-49.1267 L 81.8429,-49.7434 L 81.6489,-50.3406 L 81.3815,-50.9088 L 81.0451,-51.4389
 L 80.6448,-51.9227 L 80.1871,-52.3526 L 79.6791,-52.7216 L 79.1289,-53.0241 L 78.5451,-53.2553 L 77.9369,-53.4114
 L 77.3139,-53.4901 L -77.3139,-53.4901 L -77.9369,-53.4114 L -78.5451,-53.2553 L -79.1289,-53.0241 L -79.6791,-52.7216
 L -80.1871,-52.3526 L -80.6448,-51.9227 L -81.0451,-51.4389 L -81.3815,-50.9088 L -81.6489,-50.3406 L -81.8429,-49.7434
 L -81.9606,-49.1267 L -82,-48.5 L -82,-29.5 L -81.9606,-28.8733 L -81.8429,-28.2566 L -81.6489,-27.6594
 L -81.3815,-27.0912 L -81.0451,-26.5611 L -80.6448,-26.0773 L -80.1871,-25.6474 L -79.6791,-25.2784 L -79.1289,-24.9759
 L -78.5451,-24.7447 L -77.9369,-24.5886 L -77.3139,-24.5099 L 77.3139,-24.5099 z
M 55.2779,-27.5227 L 53.8451,-27.7037 L 52.4463,-28.0629 L 51.1035,-28.5945 L 49.838,-29.2902 L 48.6696,-30.1391
 L 47.6169,-31.1277 L 46.6963,-32.2405 L 45.9225,-33.4598 L 45.3076,-34.7666 L 44.8613,-36.1401 L 44.5907,-37.5587
 L 44.5,-39 L 44.5907,-40.4413 L 44.8613,-41.8599 L 45.3076,-43.2334 L 45.9225,-44.5402 L 46.6963,-45.7595
 L 47.6169,-46.8723 L 48.6696,-47.8609 L 49.838,-48.7098 L 51.1035,-49.4055 L 52.4463,-49.9371 L 53.8451,-50.2963
 L 55.2779,-50.4773 L 56.7221,-50.4773 L 58.1549,-50.2963 L 59.5537,-49.9371 L 60.8965,-49.4055 L 62.162,-48.7098
 L 63.3304,-47.8609 L 64.3831,-46.8723 L 65.3037,-45.7595 L 66.0775,-44.5402 L 66.6924,-43.2334 L 67.1387,-41.8599
 L 67.4093,-40.4413 L 67.5,-39 L 67.4093,-37.5587 L 67.1387,-36.1401 L 66.6924,-34.7666 L 66.0775,-33.4598
 L 65.3037,-32.2405 L 64.3831,-31.1277 L 63.3304,-30.1391 L 62.162,-29.2902 L 60.8965,-28.5945 L 59.5537,-28.0629
 L 58.1549,-27.7037 L 56.7221,-27.5227 z
M -0.722076,-27.5227 L -2.15488,-27.7037 L -3.55368,-28.0629 L -4.89645,-28.5945 L -6.162,-29.2902 L -7.33037,-30.1391
 L -8.38313,-31.1277 L -9.30368,-32.2405 L -10.0775,-33.4598 L -10.6924,-34.7666 L -11.1387,-36.1401 L -11.4093,-37.5587
 L -11.5,-39 L -11.4093,-40.4413 L -11.1387,-41.8599 L -10.6924,-43.2334 L -10.0775,-44.5402 L -9.30368,-45.7595
 L -8.38313,-46.8723 L -7.33037,-47.8609 L -6.162,-48.7098 L -4.89645,-49.4055 L -3.55368,-49.9371 L -2.15488,-50.2963
 L -0.722076,-50.4773 L 0.722076,-50.4773 L 2.15488,-50.2963 L 3.55368,-49.9371 L 4.89645,-49.4055 L 6.162,-48.7098
 L 7.33037,-47.8609 L 8.38313,-46.8723 L 9.30368,-45.7595 L 10.0775,-44.5402 L 10.6924,-43.2334 L 11.1387,-41.8599
 L 11.4093,-40.4413 L 11.5,-39 L 11.4093,-37.5587 L 11.1387,-36.1401 L 10.6924,-34.7666 L 10.0775,-33.4598
 L 9.30368,-32.2405 L 8.38313,-31.1277 L 7.33037,-30.1391 L 6.162,-29.2902 L 4.89645,-28.5945 L 3.55368,-28.0629
 L 2.15488,-27.7037 L 0.722076,-27.5227 z
M 27.2779,-27.5227 L 25.8451,-27.7037 L 24.4463,-28.0629 L 23.1035,-28.5945 L 21.838,-29.2902 L 20.6696,-30.1391
 L 19.6169,-31.1277 L 18.6963,-32.2405 L 17.9225,-33.4598 L 17.3076,-34.7666 L 16.8613,-36.1401 L 16.5907,-37.5587
 L 16.5,-39 L 16.5907,-40.4413 L 16.8613,-41.8599 L 17.3076,-43.2334 L 17.9225,-44.5402 L 18.6963,-45.7595
 L 19.6169,-46.8723 L 20.6696,-47.8609 L 21.838,-48.7098 L 23.1035,-49.4055 L 24.4463,-49.9371 L 25.8451,-50.2963
 L 27.2779,-50.4773 L 28.7221,-50.4773 L 30.1549,-50.2963 L 31.5537,-49.9371 L 32.8965,-49.4055 L 34.162,-48.7098
 L 35.3304,-47.8609 L 36.3831,-46.8723 L 37.3037,-45.7595 L 38.0775,-44.5402 L 38.6924,-43.2334 L 39.1387,-41.8599
 L 39.4093,-40.4413 L 39.5,-39 L 39.4093,-37.5587 L 39.1387,-36.1401 L 38.6924,-34.7666 L 38.0775,-33.4598
 L 37.3037,-32.2405 L 36.3831,-31.1277 L 35.3304,-30.1391 L 34.162,-29.2902 L 32.8965,-28.5945 L 31.5537,-28.0629
 L 30.1549,-27.7037 L 28.7221,-27.5227 z
M -56.7221,-27.5227 L -58.1549,-27.7037 L -59.5537,-28.0629 L -60.8965,-28.5945 L -62.162,-29.2902 L -63.3304,-30.1391
 L -64.3831,-31.1277 L -65.3037,-32.2405 L -66.0775,-33.4598 L -66.6924,-34.7666 L -67.1387,-36.1401 L -67.4093,-37.5587
 L -67.5,-39 L -67.4093,-40.4413 L -67.1387,-41.8599 L -66.6924,-43.2334 L -66.0775,-44.5402 L -65.3037,-45.7595
 L -64.3831,-46.8723 L -63.3304,-47.8609 L -62.162,-48.7098 L -60.8965,-49.4055 L -59.5537,-49.9371 L -58.1549,-50.2963
 L -56.7221,-50.4773 L -55.2779,-50.4773 L -53.8451,-50.2963 L -52.4463,-49.9371 L -51.1035,-49.4055 L -49.838,-48.7098
 L -48.6696,-47.8609 L -47.6169,-46.8723 L -46.6963,-45.7595 L -45.9225,-44.5402 L -45.3076,-43.2334 L -44.8613,-41.8599
 L -44.5907,-40.4413 L -44.5,-39 L -44.5907,-37.5587 L -44.8613,-36.1401 L -45.3076,-34.7666 L -45.9225,-33.4598
 L -46.6963,-32.2405 L -47.6169,-31.1277 L -48.6696,-30.1391 L -49.838,-29.2902 L -51.1035,-28.5945 L -52.4463,-28.0629
 L -53.8451,-27.7037 L -55.2779,-27.5227 z
M -28.7221,-27.5227 L -30.1549,-27.7037 L -31.5537,-28.0629 L -32.8965,-28.5945 L -34.162,-29.2902 L -35.3304,-30.1391
 L -36.3831,-31.1277 L -37.3037,-32.2405 L -38.0775,-33.4598 L -38.6924,-34.7666 L -39.1387,-36.1401 L -39.4093,-37.5587
 L -39.5,-39 L -39.4093,-40.4413 L -39.1387,-41.8599 L -38.6924,-43.2334 L -38.0775,-44.5402 L -37.3037,-45.7595
 L -36.3831,-46.8723 L -35.3304,-47.8609 L -34.162,-48.7098 L -32.8965,-49.4055 L -31.5537,-49.9371 L -30.1549,-50.2963
 L -28.7221,-50.4773 L -27.2779,-50.4773 L -25.8451,-50.2963 L -24.4463,-49.9371 L -23.1035,-49.4055 L -21.838,-48.7098
 L -20.6696,-47.8609 L -19.6169,-46.8723 L -18.6963,-45.7595 L -17.9225,-44.5402 L -17.3076,-43.2334 L -16.8613,-41.8599
 L -16.5907,-40.4413 L -16.5,-39 L -16.5907,-37.5587 L -16.8613,-36.1401 L -17.3076,-34.7666 L -17.9225,-33.4598
 L -18.6963,-32.2405 L -19.6169,-31.1277 L -20.6696,-30.1391 L -21.838,-29.2902 L -23.1035,-28.5945 L -24.4463,-28.0629
 L -25.8451,-27.7037 L -27.2779,-27.5227 z
M 74.8116,-43.5059 L 74.4379,-43.5531 L 74.073,-43.6468 L 73.7227,-43.7855 L 73.3925,-43.967 L 73.0877,-44.1884
 L 72.8131,-44.4464 L 72.573,-44.7366 L 72.3711,-45.0547 L 72.2107,-45.3956 L 72.0943,-45.7539 L 72.0237,-46.124
 L 72,-46.5 L 72.0237,-46.876 L 72.0943,-47.2461 L 72.2107,-47.6044 L 72.3711,-47.9453 L 72.573,-48.2634
 L 72.8131,-48.5536 L 73.0877,-48.8115 L 73.3925,-49.033 L 73.7227,-49.2145 L 74.073,-49.3532 L 74.4379,-49.4469
 L 74.8116,-49.4941 L 75.1884,-49.4941 L 75.5621,-49.4469 L 75.927,-49.3532 L 76.2773,-49.2145 L 76.6075,-49.033
 L 76.9123,-48.8115 L 77.1869,-48.5536 L 77.427,-48.2634 L 77.6289,-47.9453 L 77.7893,-47.6044 L 77.9057,-47.2461
 L 77.9763,-46.876 L 78,-46.5 L 77.9763,-46.124 L 77.9057,-45.7539 L 77.7893,-45.3956 L 77.6289,-45.0547
 L 77.427,-44.7366 L 77.1869,-44.4464 L 76.9123,-44.1884 L 76.6075,-43.967 L 76.2773,-43.7855 L 75.927,-43.6468
 L 75.5621,-43.5531 L 75.1884,-43.5059 z
M -75.1884,-43.5059 L -75.5621,-43.5531 L -75.927,-43.6468 L -76.2773,-43.7855 L -76.6075,-43.967 L -76.9123,-44.1884
 L -77.1869,-44.4464 L -77.427,-44.7366 L -77.6289,-45.0547 L -77.7893,-45.3956 L -77.9057,-45.7539 L -77.9763,-46.124
 L -78,-46.5 L -77.9763,-46.876 L -77.9057,-47.2461 L -77.7893,-47.6044 L -77.6289,-47.9453 L -77.427,-48.2634
 L -77.1869,-48.5536 L -76.9123,-48.8115 L -76.6075,-49.033 L -76.2773,-49.2145 L -75.927,-49.3532 L -75.5621,-49.4469
 L -75.1884,-49.4941 L -74.8116,-49.4941 L -74.4379,-49.4469 L -74.073,-49.3532 L -73.7227,-49.2145 L -73.3925,-49.033
 L -73.0877,-48.8115 L -72.8131,-48.5536 L -72.573,-48.2634 L -72.3711,-47.9453 L -72.2107,-47.6044 L -72.0943,-47.2461
 L -72.0237,-46.876 L -72,-46.5 L -72.0237,-46.124 L -72.0943,-45.7539 L -72.2107,-45.3956 L -72.3711,-45.0547
 L -72.573,-44.7366 L -72.8131,-44.4464 L -73.0877,-44.1884 L -73.3925,-43.967 L -73.7227,-43.7855 L -74.073,-43.6468
 L -74.4379,-43.5531 L -74.8116,-43.5059 z
M 74.9058,-37.503 L 74.7189,-37.5266 L 74.5365,-37.5734 L 74.3613,-37.6428 L 74.1963,-37.7335 L 74.0439,-37.8442
 L 73.9065,-37.9732 L 73.7865,-38.1183 L 73.6855,-38.2774 L 73.6053,-38.4478 L 73.5471,-38.627 L 73.5118,-38.812
 L 73.5,-39 L 73.5118,-39.188 L 73.5471,-39.373 L 73.6053,-39.5522 L 73.6855,-39.7226 L 73.7865,-39.8817
 L 73.9065,-40.0268 L 74.0439,-40.1558 L 74.1963,-40.2665 L 74.3613,-40.3572 L 74.5365,-40.4266 L 74.7189,-40.4734
 L 74.9058,-40.497 L 75.0942,-40.497 L 75.2811,-40.4734 L 75.4635,-40.4266 L 75.6387,-40.3572 L 75.8037,-40.2665
 L 75.9561,-40.1558 L 76.0934,-40.0268 L 76.2135,-39.8817 L 76.3145,-39.7226 L 76.3947,-39.5522 L 76.4529,-39.373
 L 76.4882,-39.188 L 76.5,-39 L 76.4882,-38.812 L 76.4529,-38.627 L 76.3947,-38.4478 L 76.3145,-38.2774
 L 76.2135,-38.1183 L 76.0934,-37.9732 L 75.9561,-37.8442 L 75.8037,-37.7335 L 75.6387,-37.6428 L 75.4635,-37.5734
 L 75.2811,-37.5266 L 75.0942,-37.503 z
M -75.0942,-37.503 L -75.2811,-37.5266 L -75.4635,-37.5734 L -75.6387,-37.6428 L -75.8037,-37.7335 L -75.9561,-37.8442
 L -76.0934,-37.9732 L -76.2135,-38.1183 L -76.3145,-38.2774 L -76.3947,-38.4478 L -76.4529,-38.627 L -76.4882,-38.812
 L -76.5,-39 L -76.4882,-39.188 L -76.4529,-39.373 L -76.3947,-39.5522 L -76.3145,-39.7226 L -76.2135,-39.8817
 L -76.0934,-40.0268 L -75.9561,-40.1558 L -75.8037,-40.2665 L -75.6387,-40.3572 L -75.4635,-40.4266 L -75.2811,-40.4734
 L -75.0942,-40.497 L -74.9058,-40.497 L -74.7189,-40.4734 L -74.5365,-40.4266 L -74.3613,-40.3572 L -74.1963,-40.2665
 L -74.0439,-40.1558 L -73.9065,-40.0268 L -73.7865,-39.8817 L -73.6855,-39.7226 L -73.6053,-39.5522 L -73.5471,-39.373
 L -73.5118,-39.188 L -73.5,-39 L -73.5118,-38.812 L -73.5471,-38.627 L -73.6053,-38.4478 L -73.6855,-38.2774
 L -73.7865,-38.1183 L -73.9065,-37.9732 L -74.0439,-37.8442 L -74.1963,-37.7335 L -74.3613,-37.6428 L -74.5365,-37.5734
 L -74.7189,-37.5266 L -74.9058,-37.503 z
M -75.1884,-28.5059 L -75.5621,-28.5531 L -75.927,-28.6468 L -76.2773,-28.7855 L -76.6075,-28.967 L -76.9123,-29.1885
 L -77.1869,-29.4464 L -77.427,-29.7366 L -77.6289,-30.0547 L -77.7893,-30.3956 L -77.9057,-30.7539 L -77.9763,-31.124
 L -78,-31.5 L -77.9763,-31.876 L -77.9057,-32.2461 L -77.7893,-32.6044 L -77.6289,-32.9453 L -77.427,-33.2634
 L -77.1869,-33.5536 L -76.9123,-33.8116 L -76.6075,-34.033 L -76.2773,-34.2145 L -75.927,-34.3532 L -75.5621,-34.4469
 L -75.1884,-34.4941 L -74.8116,-34.4941 L -74.4379,-34.4469 L -74.073,-34.3532 L -73.7227,-34.2145 L -73.3925,-34.033
 L -73.0877,-33.8116 L -72.8131,-33.5536 L -72.573,-33.2634 L -72.3711,-32.9453 L -72.2107,-32.6044 L -72.0943,-32.2461
 L -72.0237,-31.876 L -72,-31.5 L -72.0237,-31.124 L -72.0943,-30.7539 L -72.2107,-30.3956 L -72.3711,-30.0547
 L -72.573,-29.7366 L -72.8131,-29.4464 L -73.0877,-29.1885 L -73.3925,-28.967 L -73.7227,-28.7855 L -74.073,-28.6468
 L -74.4379,-28.5531 L -74.8116,-28.5059 z
M 74.8116,-28.5059 L 74.4379,-28.5531 L 74.073,-28.6468 L 73.7227,-28.7855 L 73.3925,-28.967 L 73.0877,-29.1885
 L 72.8131,-29.4464 L 72.573,-29.7366 L 72.3711,-30.0547 L 72.2107,-30.3956 L 72.0943,-30.7539 L 72.0237,-31.124
 L 72,-31.5 L 72.0237,-31.876 L 72.0943,-32.2461 L 72.2107,-32.6044 L 72.3711,-32.9453 L 72.573,-33.2634
 L 72.8131,-33.5536 L 73.0877,-33.8116 L 73.3925,-34.033 L 73.7227,-34.2145 L 74.073,-34.3532 L 74.4379,-34.4469
 L 74.8116,-34.4941 L 75.1884,-34.4941 L 75.5621,-34.4469 L 75.927,-34.3532 L 76.2773,-34.2145 L 76.6075,-34.033
 L 76.9123,-33.8116 L 77.1869,-33.5536 L 77.427,-33.2634 L 77.6289,-32.9453 L 77.7893,-32.6044 L 77.9057,-32.2461
 L 77.9763,-31.876 L 78,-31.5 L 77.9763,-31.124 L 77.9057,-30.7539 L 77.7893,-30.3956 L 77.6289,-30.0547
 L 77.427,-29.7366 L 77.1869,-29.4464 L 76.9123,-29.1885 L 76.6075,-28.967 L 76.2773,-28.7855 L 75.927,-28.6468
 L 75.5621,-28.5531 L 75.1884,-28.5059 z
" stroke="black" fill="lightgray" stroke-width="0.5"/>
</svg>
