  0
SECTION
  2
BLOCKS
  0
ENDSEC
  0
SECTION
  2
ENTITIES
  0
LINE
  8
0
 10
167.937
 20
-44.4114
 11
168.545
 21
-44.2553
  0
LINE
  8
0
 10
168.545
 20
-44.2553
 11
169.129
 21
-44.0241
  0
LINE
  8
0
 10
169.129
 20
-44.0241
 11
169.679
 21
-43.7216
  0
LINE
  8
0
 10
169.679
 20
-43.7216
 11
170.187
 21
-43.3526
  0
LINE
  8
0
 10
170.187
 20
-43.3526
 11
170.645
 21
-42.9227
  0
LINE
  8
0
 10
170.645
 20
-42.9227
 11
171.045
 21
-42.4389
  0
LINE
  8
0
 10
171.045
 20
-42.4389
 11
171.382
 21
-41.9088
  0
LINE
  8
0
 10
171.382
 20
-41.9088
 11
171.649
 21
-41.3406
  0
LINE
  8
0
 10
171.649
 20
-41.3406
 11
171.843
 21
-40.7434
  0
LINE
  8
0
 10
171.843
 20
-40.7434
 11
171.961
 21
-40.1267
  0
LINE
  8
0
 10
171.961
 20
-40.1267
 11
172
 21
-39.5
  0
LINE
  8
0
 10
172
 20
-39.5
 11
172
 21
39.5
  0
LINE
  8
0
 10
172
 20
39.5
 11
171.961
 21
40.1267
  0
LINE
  8
0
 10
171.961
 20
40.1267
 11
171.843
 21
40.7434
  0
LINE
  8
0
 10
171.843
 20
40.7434
 11
171.649
 21
41.3406
  0
LINE
  8
0
 10
171.649
 20
41.3406
 11
171.382
 21
41.9088
  0
LINE
  8
0
 10
171.382
 20
41.9088
 11
171.045
 21
42.4389
  0
LINE
  8
0
 10
171.045
 20
42.4389
 11
170.645
 21
42.9227
  0
LINE
  8
0
 10
170.645
 20
42.9227
 11
170.187
 21
43.3526
  0
LINE
  8
0
 10
170.187
 20
43.3526
 11
169.679
 21
43.7216
  0
LINE
  8
0
 10
169.679
 20
43.7216
 11
169.129
 21
44.0241
  0
LINE
  8
0
 10
169.129
 20
44.0241
 11
168.545
 21
44.2553
  0
LINE
  8
0
 10
168.545
 20
44.2553
 11
167.937
 21
44.4114
  0
LINE
  8
0
 10
167.937
 20
44.4114
 11
167.314
 21
44.4901
  0
LINE
  8
0
 10
167.314
 20
44.4901
 11
-167.314
 21
44.4901
  0
LINE
  8
0
 10
-167.314
 20
44.4901
 11
-167.937
 21
44.4114
  0
LINE
  8
0
 10
-167.937
 20
44.4114
 11
-168.545
 21
44.2553
  0
LINE
  8
0
 10
-168.545
 20
44.2553
 11
-169.129
 21
44.0241
  0
LINE
  8
0
 10
-169.129
 20
44.0241
 11
-169.679
 21
43.7216
  0
LINE
  8
0
 10
-169.679
 20
43.7216
 11
-170.187
 21
43.3526
  0
LINE
  8
0
 10
-170.187
 20
43.3526
 11
-170.645
 21
42.9227
  0
LINE
  8
0
 10
-170.645
 20
42.9227
 11
-171.045
 21
42.4389
  0
LINE
  8
0
 10
-171.045
 20
42.4389
 11
-171.382
 21
41.9088
  0
LINE
  8
0
 10
-171.382
 20
41.9088
 11
-171.649
 21
41.3406
  0
LINE
  8
0
 10
-171.649
 20
41.3406
 11
-171.843
 21
40.7434
  0
LINE
  8
0
 10
-171.843
 20
40.7434
 11
-171.961
 21
40.1267
  0
LINE
  8
0
 10
-171.961
 20
40.1267
 11
-172
 21
39.5
  0
LINE
  8
0
 10
-172
 20
39.5
 11
-172
 21
-39.5
  0
LINE
  8
0
 10
-172
 20
-39.5
 11
-171.961
 21
-40.1267
  0
LINE
  8
0
 10
-171.961
 20
-40.1267
 11
-171.843
 21
-40.7434
  0
LINE
  8
0
 10
-171.843
 20
-40.7434
 11
-171.649
 21
-41.3406
  0
LINE
  8
0
 10
-171.649
 20
-41.3406
 11
-171.382
 21
-41.9088
  0
LINE
  8
0
 10
-171.382
 20
-41.9088
 11
-171.045
 21
-42.4389
  0
LINE
  8
0
 10
-171.045
 20
-42.4389
 11
-170.645
 21
-42.9227
  0
LINE
  8
0
 10
-170.645
 20
-42.9227
 11
-170.187
 21
-43.3526
  0
LINE
  8
0
 10
-170.187
 20
-43.3526
 11
-169.679
 21
-43.7216
  0
LINE
  8
0
 10
-169.679
 20
-43.7216
 11
-169.129
 21
-44.0241
  0
LINE
  8
0
 10
-169.129
 20
-44.0241
 11
-168.545
 21
-44.2553
  0
LINE
  8
0
 10
-168.545
 20
-44.2553
 11
-167.937
 21
-44.4114
  0
LINE
  8
0
 10
-167.937
 20
-44.4114
 11
-167.314
 21
-44.4901
  0
LINE
  8
0
 10
-167.314
 20
-44.4901
 11
167.314
 21
-44.4901
  0
LINE
  8
0
 10
167.314
 20
-44.4901
 11
167.937
 21
-44.4114
  0
LINE
  8
0
 10
164.812
 20
34.5059
 11
164.438
 21
34.5531
  0
LINE
  8
0
 10
164.438
 20
34.5531
 11
164.073
 21
34.6468
  0
LINE
  8
0
 10
164.073
 20
34.6468
 11
163.723
 21
34.7855
  0
LINE
  8
0
 10
163.723
 20
34.7855
 11
163.393
 21
34.967
  0
LINE
  8
0
 10
163.393
 20
34.967
 11
163.088
 21
35.1885
  0
LINE
  8
0
 10
163.088
 20
35.1885
 11
162.813
 21
35.4464
  0
LINE
  8
0
 10
162.813
 20
35.4464
 11
162.573
 21
35.7366
  0
LINE
  8
0
 10
162.573
 20
35.7366
 11
162.371
 21
36.0547
  0
LINE
  8
0
 10
162.371
 20
36.0547
 11
162.211
 21
36.3956
  0
LINE
  8
0
 10
162.211
 20
36.3956
 11
162.094
 21
36.7539
  0
LINE
  8
0
 10
162.094
 20
36.7539
 11
162.024
 21
37.124
  0
LINE
  8
0
 10
162.024
 20
37.124
 11
162
 21
37.5
  0
LINE
  8
0
 10
162
 20
37.5
 11
162.024
 21
37.876
  0
LINE
  8
0
 10
162.024
 20
37.876
 11
162.094
 21
38.2461
  0
LINE
  8
0
 10
162.094
 20
38.2461
 11
162.211
 21
38.6044
  0
LINE
  8
0
 10
162.211
 20
38.6044
 11
162.371
 21
38.9453
  0
LINE
  8
0
 10
162.371
 20
38.9453
 11
162.573
 21
39.2634
  0
LINE
  8
0
 10
162.573
 20
39.2634
 11
162.813
 21
39.5536
  0
LINE
  8
0
 10
162.813
 20
39.5536
 11
163.088
 21
39.8115
  0
LINE
  8
0
 10
163.088
 20
39.8115
 11
163.393
 21
40.033
  0
LINE
  8
0
 10
163.393
 20
40.033
 11
163.723
 21
40.2145
  0
LINE
  8
0
 10
163.723
 20
40.2145
 11
164.073
 21
40.3532
  0
LINE
  8
0
 10
164.073
 20
40.3532
 11
164.438
 21
40.4469
  0
LINE
  8
0
 10
164.438
 20
40.4469
 11
164.812
 21
40.4941
  0
LINE
  8
0
 10
164.812
 20
40.4941
 11
165.188
 21
40.4941
  0
LINE
  8
0
 10
165.188
 20
40.4941
 11
165.562
 21
40.4469
  0
LINE
  8
0
 10
165.562
 20
40.4469
 11
165.927
 21
40.3532
  0
LINE
  8
0
 10
165.927
 20
40.3532
 11
166.277
 21
40.2145
  0
LINE
  8
0
 10
166.277
 20
40.2145
 11
166.607
 21
40.033
  0
LINE
  8
0
 10
166.607
 20
40.033
 11
166.912
 21
39.8115
  0
LINE
  8
0
 10
166.912
 20
39.8115
 11
167.187
 21
39.5536
  0
LINE
  8
0
 10
167.187
 20
39.5536
 11
167.427
 21
39.2634
  0
LINE
  8
0
 10
167.427
 20
39.2634
 11
167.629
 21
38.9453
  0
LINE
  8
0
 10
167.629
 20
38.9453
 11
167.789
 21
38.6044
  0
LINE
  8
0
 10
167.789
 20
38.6044
 11
167.906
 21
38.2461
  0
LINE
  8
0
 10
167.906
 20
38.2461
 11
167.976
 21
37.876
  0
LINE
  8
0
 10
167.976
 20
37.876
 11
168
 21
37.5
  0
LINE
  8
0
 10
168
 20
37.5
 11
167.976
 21
37.124
  0
LINE
  8
0
 10
167.976
 20
37.124
 11
167.906
 21
36.7539
  0
LINE
  8
0
 10
167.906
 20
36.7539
 11
167.789
 21
36.3956
  0
LINE
  8
0
 10
167.789
 20
36.3956
 11
167.629
 21
36.0547
  0
LINE
  8
0
 10
167.629
 20
36.0547
 11
167.427
 21
35.7366
  0
LINE
  8
0
 10
167.427
 20
35.7366
 11
167.187
 21
35.4464
  0
LINE
  8
0
 10
167.187
 20
35.4464
 11
166.912
 21
35.1885
  0
LINE
  8
0
 10
166.912
 20
35.1885
 11
166.607
 21
34.967
  0
LINE
  8
0
 10
166.607
 20
34.967
 11
166.277
 21
34.7855
  0
LINE
  8
0
 10
166.277
 20
34.7855
 11
165.927
 21
34.6468
  0
LINE
  8
0
 10
165.927
 20
34.6468
 11
165.562
 21
34.5531
  0
LINE
  8
0
 10
165.562
 20
34.5531
 11
165.188
 21
34.5059
  0
LINE
  8
0
 10
165.188
 20
34.5059
 11
164.812
 21
34.5059
  0
LINE
  8
0
 10
-165.188
 20
34.5059
 11
-165.562
 21
34.5531
  0
LINE
  8
0
 10
-165.562
 20
34.5531
 11
-165.927
 21
34.6468
  0
LINE
  8
0
 10
-165.927
 20
34.6468
 11
-166.277
 21
34.7855
  0
LINE
  8
0
 10
-166.277
 20
34.7855
 11
-166.607
 21
34.967
  0
LINE
  8
0
 10
-166.607
 20
34.967
 11
-166.912
 21
35.1885
  0
LINE
  8
0
 10
-166.912
 20
35.1885
 11
-167.187
 21
35.4464
  0
LINE
  8
0
 10
-167.187
 20
35.4464
 11
-167.427
 21
35.7366
  0
LINE
  8
0
 10
-167.427
 20
35.7366
 11
-167.629
 21
36.0547
  0
LINE
  8
0
 10
-167.629
 20
36.0547
 11
-167.789
 21
36.3956
  0
LINE
  8
0
 10
-167.789
 20
36.3956
 11
-167.906
 21
36.7539
  0
LINE
  8
0
 10
-167.906
 20
36.7539
 11
-167.976
 21
37.124
  0
LINE
  8
0
 10
-167.976
 20
37.124
 11
-168
 21
37.5
  0
LINE
  8
0
 10
-168
 20
37.5
 11
-167.976
 21
37.876
  0
LINE
  8
0
 10
-167.976
 20
37.876
 11
-167.906
 21
38.2461
  0
LINE
  8
0
 10
-167.906
 20
38.2461
 11
-167.789
 21
38.6044
  0
LINE
  8
0
 10
-167.789
 20
38.6044
 11
-167.629
 21
38.9453
  0
LINE
  8
0
 10
-167.629
 20
38.9453
 11
-167.427
 21
39.2634
  0
LINE
  8
0
 10
-167.427
 20
39.2634
 11
-167.187
 21
39.5536
  0
LINE
  8
0
 10
-167.187
 20
39.5536
 11
-166.912
 21
39.8115
  0
LINE
  8
0
 10
-166.912
 20
39.8115
 11
-166.607
 21
40.033
  0
LINE
  8
0
 10
-166.607
 20
40.033
 11
-166.277
 21
40.2145
  0
LINE
  8
0
 10
-166.277
 20
40.2145
 11
-165.927
 21
40.3532
  0
LINE
  8
0
 10
-165.927
 20
40.3532
 11
-165.562
 21
40.4469
  0
LINE
  8
0
 10
-165.562
 20
40.4469
 11
-165.188
 21
40.4941
  0
LINE
  8
0
 10
-165.188
 20
40.4941
 11
-164.812
 21
40.4941
  0
LINE
  8
0
 10
-164.812
 20
40.4941
 11
-164.438
 21
40.4469
  0
LINE
  8
0
 10
-164.438
 20
40.4469
 11
-164.073
 21
40.3532
  0
LINE
  8
0
 10
-164.073
 20
40.3532
 11
-163.723
 21
40.2145
  0
LINE
  8
0
 10
-163.723
 20
40.2145
 11
-163.393
 21
40.033
  0
LINE
  8
0
 10
-163.393
 20
40.033
 11
-163.088
 21
39.8115
  0
LINE
  8
0
 10
-163.088
 20
39.8115
 11
-162.813
 21
39.5536
  0
LINE
  8
0
 10
-162.813
 20
39.5536
 11
-162.573
 21
39.2634
  0
LINE
  8
0
 10
-162.573
 20
39.2634
 11
-162.371
 21
38.9453
  0
LINE
  8
0
 10
-162.371
 20
38.9453
 11
-162.211
 21
38.6044
  0
LINE
  8
0
 10
-162.211
 20
38.6044
 11
-162.094
 21
38.2461
  0
LINE
  8
0
 10
-162.094
 20
38.2461
 11
-162.024
 21
37.876
  0
LINE
  8
0
 10
-162.024
 20
37.876
 11
-162
 21
37.5
  0
LINE
  8
0
 10
-162
 20
37.5
 11
-162.024
 21
37.124
  0
LINE
  8
0
 10
-162.024
 20
37.124
 11
-162.094
 21
36.7539
  0
LINE
  8
0
 10
-162.094
 20
36.7539
 11
-162.211
 21
36.3956
  0
LINE
  8
0
 10
-162.211
 20
36.3956
 11
-162.371
 21
36.0547
  0
LINE
  8
0
 10
-162.371
 20
36.0547
 11
-162.573
 21
35.7366
  0
LINE
  8
0
 10
-162.573
 20
35.7366
 11
-162.813
 21
35.4464
  0
LINE
  8
0
 10
-162.813
 20
35.4464
 11
-163.088
 21
35.1885
  0
LINE
  8
0
 10
-163.088
 20
35.1885
 11
-163.393
 21
34.967
  0
LINE
  8
0
 10
-163.393
 20
34.967
 11
-163.723
 21
34.7855
  0
LINE
  8
0
 10
-163.723
 20
34.7855
 11
-164.073
 21
34.6468
  0
LINE
  8
0
 10
-164.073
 20
34.6468
 11
-164.438
 21
34.5531
  0
LINE
  8
0
 10
-164.438
 20
34.5531
 11
-164.812
 21
34.5059
  0
LINE
  8
0
 10
-164.812
 20
34.5059
 11
-165.188
 21
34.5059
  0
LINE
  8
0
 10
-120.823
 20
-36.927
 11
-125.433
 21
-36.3446
  0
LINE
  8
0
 10
-125.433
 20
-36.3446
 11
-129.934
 21
-35.1891
  0
LINE
  8
0
 10
-129.934
 20
-35.1891
 11
-134.254
 21
-33.4786
  0
LINE
  8
0
 10
-134.254
 20
-33.4786
 11
-138.326
 21
-31.2401
  0
LINE
  8
0
 10
-138.326
 20
-31.2401
 11
-142.085
 21
-28.509
  0
LINE
  8
0
 10
-142.085
 20
-28.509
 11
-145.472
 21
-25.3282
  0
LINE
  8
0
 10
-145.472
 20
-25.3282
 11
-148.434
 21
-21.748
  0
LINE
  8
0
 10
-148.434
 20
-21.748
 11
-150.923
 21
-17.8249
  0
LINE
  8
0
 10
-150.923
 20
-17.8249
 11
-152.902
 21
-13.6206
  0
LINE
  8
0
 10
-152.902
 20
-13.6206
 11
-154.338
 21
-9.20152
  0
LINE
  8
0
 10
-154.338
 20
-9.20152
 11
-155.208
 21
-4.63733
  0
LINE
  8
0
 10
-155.208
 20
-4.63733
 11
-155.5
 21
0
  0
LINE
  8
0
 10
-155.5
 20
0
 11
-155.208
 21
4.63733
  0
LINE
  8
0
 10
-155.208
 20
4.63733
 11
-154.338
 21
9.20152
  0
LINE
  8
0
 10
-154.338
 20
9.20152
 11
-152.902
 21
13.6206
  0
LINE
  8
0
 10
-152.902
 20
13.6206
 11
-150.923
 21
17.8249
  0
LINE
  8
0
 10
-150.923
 20
17.8249
 11
-148.434
 21
21.748
  0
LINE
  8
0
 10
-148.434
 20
21.748
 11
-145.472
 21
25.3282
  0
LINE
  8
0
 10
-145.472
 20
25.3282
 11
-142.085
 21
28.509
  0
LINE
  8
0
 10
-142.085
 20
28.509
 11
-138.326
 21
31.2401
  0
LINE
  8
0
 10
-138.326
 20
31.2401
 11
-134.254
 21
33.4786
  0
LINE
  8
0
 10
-134.254
 20
33.4786
 11
-129.934
 21
35.1891
  0
LINE
  8
0
 10
-129.934
 20
35.1891
 11
-125.433
 21
36.3446
  0
LINE
  8
0
 10
-125.433
 20
36.3446
 11
-120.823
 21
36.927
  0
LINE
  8
0
 10
-120.823
 20
36.927
 11
-116.177
 21
36.927
  0
LINE
  8
0
 10
-116.177
 20
36.927
 11
-111.567
 21
36.3446
  0
LINE
  8
0
 10
-111.567
 20
36.3446
 11
-107.066
 21
35.1891
  0
LINE
  8
0
 10
-107.066
 20
35.1891
 11
-102.746
 21
33.4786
  0
LINE
  8
0
 10
-102.746
 20
33.4786
 11
-98.6744
 21
31.2401
  0
LINE
  8
0
 10
-98.6744
 20
31.2401
 11
-94.9153
 21
28.509
  0
LINE
  8
0
 10
-94.9153
 20
28.509
 11
-91.5282
 21
25.3282
  0
LINE
  8
0
 10
-91.5282
 20
25.3282
 11
-88.5664
 21
21.748
  0
LINE
  8
0
 10
-88.5664
 20
21.748
 11
-86.0766
 21
17.8249
  0
LINE
  8
0
 10
-86.0766
 20
17.8249
 11
-84.0983
 21
13.6206
  0
LINE
  8
0
 10
-84.0983
 20
13.6206
 11
-82.6624
 21
9.20152
  0
LINE
  8
0
 10
-82.6624
 20
9.20152
 11
-81.7917
 21
4.63733
  0
LINE
  8
0
 10
-81.7917
 20
4.63733
 11
-81.5
 21
0
  0
LINE
  8
0
 10
-81.5
 20
0
 11
-81.7917
 21
-4.63733
  0
LINE
  8
0
 10
-81.7917
 20
-4.63733
 11
-82.6624
 21
-9.20152
  0
LINE
  8
0
 10
-82.6624
 20
-9.20152
 11
-84.0983
 21
-13.6206
  0
LINE
  8
0
 10
-84.0983
 20
-13.6206
 11
-86.0766
 21
-17.8249
  0
LINE
  8
0
 10
-86.0766
 20
-17.8249
 11
-88.5664
 21
-21.748
  0
LINE
  8
0
 10
-88.5664
 20
-21.748
 11
-91.5282
 21
-25.3282
  0
LINE
  8
0
 10
-91.5282
 20
-25.3282
 11
-94.9153
 21
-28.509
  0
LINE
  8
0
 10
-94.9153
 20
-28.509
 11
-98.6744
 21
-31.2401
  0
LINE
  8
0
 10
-98.6744
 20
-31.2401
 11
-102.746
 21
-33.4786
  0
LINE
  8
0
 10
-102.746
 20
-33.4786
 11
-107.066
 21
-35.1891
  0
LINE
  8
0
 10
-107.066
 20
-35.1891
 11
-111.567
 21
-36.3446
  0
LINE
  8
0
 10
-111.567
 20
-36.3446
 11
-116.177
 21
-36.927
  0
LINE
  8
0
 10
-116.177
 20
-36.927
 11
-120.823
 21
-36.927
  0
LINE
  8
0
 10
37.1767
 20
-36.927
 11
32.5669
 21
-36.3446
  0
LINE
  8
0
 10
32.5669
 20
-36.3446
 11
28.0664
 21
-35.1891
  0
LINE
  8
0
 10
28.0664
 20
-35.1891
 11
23.7462
 21
-33.4786
  0
LINE
  8
0
 10
23.7462
 20
-33.4786
 11
19.6744
 21
-31.2401
  0
LINE
  8
0
 10
19.6744
 20
-31.2401
 11
15.9153
 21
-28.509
  0
LINE
  8
0
 10
15.9153
 20
-28.509
 11
12.5282
 21
-25.3282
  0
LINE
  8
0
 10
12.5282
 20
-25.3282
 11
9.56636
 21
-21.748
  0
LINE
  8
0
 10
9.56636
 20
-21.748
 11
7.07664
 21
-17.8249
  0
LINE
  8
0
 10
7.07664
 20
-17.8249
 11
5.09827
 21
-13.6206
  0
LINE
  8
0
 10
5.09827
 20
-13.6206
 11
3.66241
 21
-9.20152
  0
LINE
  8
0
 10
3.66241
 20
-9.20152
 11
2.79175
 21
-4.63733
  0
LINE
  8
0
 10
2.79175
 20
-4.63733
 11
2.5
 21
0
  0
LINE
  8
0
 10
2.5
 20
0
 11
2.79175
 21
4.63733
  0
LINE
  8
0
 10
2.79175
 20
4.63733
 11
3.66241
 21
9.20152
  0
LINE
  8
0
 10
3.66241
 20
9.20152
 11
5.09827
 21
13.6206
  0
LINE
  8
0
 10
5.09827
 20
13.6206
 11
7.07664
 21
17.8249
  0
LINE
  8
0
 10
7.07664
 20
17.8249
 11
9.56636
 21
21.748
  0
LINE
  8
0
 10
9.56636
 20
21.748
 11
12.5282
 21
25.3282
  0
LINE
  8
0
 10
12.5282
 20
25.3282
 11
15.9153
 21
28.509
  0
LINE
  8
0
 10
15.9153
 20
28.509
 11
19.6744
 21
31.2401
  0
LINE
  8
0
 10
19.6744
 20
31.2401
 11
23.7462
 21
33.4786
  0
LINE
  8
0
 10
23.7462
 20
33.4786
 11
28.0664
 21
35.1891
  0
LINE
  8
0
 10
28.0664
 20
35.1891
 11
32.5669
 21
36.3446
  0
LINE
  8
0
 10
32.5669
 20
36.3446
 11
37.1767
 21
36.927
  0
LINE
  8
0
 10
37.1767
 20
36.927
 11
41.8232
 21
36.927
  0
LINE
  8
0
 10
41.8232
 20
36.927
 11
46.4331
 21
36.3446
  0
LINE
  8
0
 10
46.4331
 20
36.3446
 11
50.9336
 21
35.1891
  0
LINE
  8
0
 10
50.9336
 20
35.1891
 11
55.2538
 21
33.4786
  0
LINE
  8
0
 10
55.2538
 20
33.4786
 11
59.3256
 21
31.2401
  0
LINE
  8
0
 10
59.3256
 20
31.2401
 11
63.0847
 21
28.509
  0
LINE
  8
0
 10
63.0847
 20
28.509
 11
66.4718
 21
25.3282
  0
LINE
  8
0
 10
66.4718
 20
25.3282
 11
69.4336
 21
21.748
  0
LINE
  8
0
 10
69.4336
 20
21.748
 11
71.9233
 21
17.8249
  0
LINE
  8
0
 10
71.9233
 20
17.8249
 11
73.9017
 21
13.6206
  0
LINE
  8
0
 10
73.9017
 20
13.6206
 11
75.3376
 21
9.20152
  0
LINE
  8
0
 10
75.3376
 20
9.20152
 11
76.2082
 21
4.63733
  0
LINE
  8
0
 10
76.2082
 20
4.63733
 11
76.5
 21
0
  0
LINE
  8
0
 10
76.5
 20
0
 11
76.2082
 21
-4.63733
  0
LINE
  8
0
 10
76.2082
 20
-4.63733
 11
75.3376
 21
-9.20152
  0
LINE
  8
0
 10
75.3376
 20
-9.20152
 11
73.9017
 21
-13.6206
  0
LINE
  8
0
 10
73.9017
 20
-13.6206
 11
71.9233
 21
-17.8249
  0
LINE
  8
0
 10
71.9233
 20
-17.8249
 11
69.4336
 21
-21.748
  0
LINE
  8
0
 10
69.4336
 20
-21.748
 11
66.4718
 21
-25.3282
  0
LINE
  8
0
 10
66.4718
 20
-25.3282
 11
63.0847
 21
-28.509
  0
LINE
  8
0
 10
63.0847
 20
-28.509
 11
59.3256
 21
-31.2401
  0
LINE
  8
0
 10
59.3256
 20
-31.2401
 11
55.2538
 21
-33.4786
  0
LINE
  8
0
 10
55.2538
 20
-33.4786
 11
50.9336
 21
-35.1891
  0
LINE
  8
0
 10
50.9336
 20
-35.1891
 11
46.4331
 21
-36.3446
  0
LINE
  8
0
 10
46.4331
 20
-36.3446
 11
41.8232
 21
-36.927
  0
LINE
  8
0
 10
41.8232
 20
-36.927
 11
37.1767
 21
-36.927
  0
LINE
  8
0
 10
-41.8232
 20
-36.927
 11
-46.4331
 21
-36.3446
  0
LINE
  8
0
 10
-46.4331
 20
-36.3446
 11
-50.9336
 21
-35.1891
  0
LINE
  8
0
 10
-50.9336
 20
-35.1891
 11
-55.2538
 21
-33.4786
  0
LINE
  8
0
 10
-55.2538
 20
-33.4786
 11
-59.3256
 21
-31.2401
  0
LINE
  8
0
 10
-59.3256
 20
-31.2401
 11
-63.0847
 21
-28.509
  0
LINE
  8
0
 10
-63.0847
 20
-28.509
 11
-66.4718
 21
-25.3282
  0
LINE
  8
0
 10
-66.4718
 20
-25.3282
 11
-69.4336
 21
-21.748
  0
LINE
  8
0
 10
-69.4336
 20
-21.748
 11
-71.9233
 21
-17.8249
  0
LINE
  8
0
 10
-71.9233
 20
-17.8249
 11
-73.9017
 21
-13.6206
  0
LINE
  8
0
 10
-73.9017
 20
-13.6206
 11
-75.3376
 21
-9.20152
  0
LINE
  8
0
 10
-75.3376
 20
-9.20152
 11
-76.2082
 21
-4.63733
  0
LINE
  8
0
 10
-76.2082
 20
-4.63733
 11
-76.5
 21
0
  0
LINE
  8
0
 10
-76.5
 20
0
 11
-76.2082
 21
4.63733
  0
LINE
  8
0
 10
-76.2082
 20
4.63733
 11
-75.3376
 21
9.20152
  0
LINE
  8
0
 10
-75.3376
 20
9.20152
 11
-73.9017
 21
13.6206
  0
LINE
  8
0
 10
-73.9017
 20
13.6206
 11
-71.9233
 21
17.8249
  0
LINE
  8
0
 10
-71.9233
 20
17.8249
 11
-69.4336
 21
21.748
  0
LINE
  8
0
 10
-69.4336
 20
21.748
 11
-66.4718
 21
25.3282
  0
LINE
  8
0
 10
-66.4718
 20
25.3282
 11
-63.0847
 21
28.509
  0
LINE
  8
0
 10
-63.0847
 20
28.509
 11
-59.3256
 21
31.2401
  0
LINE
  8
0
 10
-59.3256
 20
31.2401
 11
-55.2538
 21
33.4786
  0
LINE
  8
0
 10
-55.2538
 20
33.4786
 11
-50.9336
 21
35.1891
  0
LINE
  8
0
 10
-50.9336
 20
35.1891
 11
-46.4331
 21
36.3446
  0
LINE
  8
0
 10
-46.4331
 20
36.3446
 11
-41.8232
 21
36.927
  0
LINE
  8
0
 10
-41.8232
 20
36.927
 11
-37.1767
 21
36.927
  0
LINE
  8
0
 10
-37.1767
 20
36.927
 11
-32.5669
 21
36.3446
  0
LINE
  8
0
 10
-32.5669
 20
36.3446
 11
-28.0664
 21
35.1891
  0
LINE
  8
0
 10
-28.0664
 20
35.1891
 11
-23.7462
 21
33.4786
  0
LINE
  8
0
 10
-23.7462
 20
33.4786
 11
-19.6744
 21
31.2401
  0
LINE
  8
0
 10
-19.6744
 20
31.2401
 11
-15.9153
 21
28.509
  0
LINE
  8
0
 10
-15.9153
 20
28.509
 11
-12.5282
 21
25.3282
  0
LINE
  8
0
 10
-12.5282
 20
25.3282
 11
-9.56636
 21
21.748
  0
LINE
  8
0
 10
-9.56636
 20
21.748
 11
-7.07664
 21
17.8249
  0
LINE
  8
0
 10
-7.07664
 20
17.8249
 11
-5.09827
 21
13.6206
  0
LINE
  8
0
 10
-5.09827
 20
13.6206
 11
-3.66241
 21
9.20152
  0
LINE
  8
0
 10
-3.66241
 20
9.20152
 11
-2.79175
 21
4.63733
  0
LINE
  8
0
 10
-2.79175
 20
4.63733
 11
-2.5
 21
0
  0
LINE
  8
0
 10
-2.5
 20
0
 11
-2.79175
 21
-4.63733
  0
LINE
  8
0
 10
-2.79175
 20
-4.63733
 11
-3.66241
 21
-9.20152
  0
LINE
  8
0
 10
-3.66241
 20
-9.20152
 11
-5.09827
 21
-13.6206
  0
LINE
  8
0
 10
-5.09827
 20
-13.6206
 11
-7.07664
 21
-17.8249
  0
LINE
  8
0
 10
-7.07664
 20
-17.8249
 11
-9.56636
 21
-21.748
  0
LINE
  8
0
 10
-9.56636
 20
-21.748
 11
-12.5282
 21
-25.3282
  0
LINE
  8
0
 10
-12.5282
 20
-25.3282
 11
-15.9153
 21
-28.509
  0
LINE
  8
0
 10
-15.9153
 20
-28.509
 11
-19.6744
 21
-31.2401
  0
LINE
  8
0
 10
-19.6744
 20
-31.2401
 11
-23.7462
 21
-33.4786
  0
LINE
  8
0
 10
-23.7462
 20
-33.4786
 11
-28.0664
 21
-35.1891
  0
LINE
  8
0
 10
-28.0664
 20
-35.1891
 11
-32.5669
 21
-36.3446
  0
LINE
  8
0
 10
-32.5669
 20
-36.3446
 11
-37.1767
 21
-36.927
  0
LINE
  8
0
 10
-37.1767
 20
-36.927
 11
-41.8232
 21
-36.927
  0
LINE
  8
0
 10
116.177
 20
-36.927
 11
111.567
 21
-36.3446
  0
LINE
  8
0
 10
111.567
 20
-36.3446
 11
107.066
 21
-35.1891
  0
LINE
  8
0
 10
107.066
 20
-35.1891
 11
102.746
 21
-33.4786
  0
LINE
  8
0
 10
102.746
 20
-33.4786
 11
98.6744
 21
-31.2401
  0
LINE
  8
0
 10
98.6744
 20
-31.2401
 11
94.9153
 21
-28.509
  0
LINE
  8
0
 10
94.9153
 20
-28.509
 11
91.5282
 21
-25.3282
  0
LINE
  8
0
 10
91.5282
 20
-25.3282
 11
88.5664
 21
-21.748
  0
LINE
  8
0
 10
88.5664
 20
-21.748
 11
86.0766
 21
-17.8249
  0
LINE
  8
0
 10
86.0766
 20
-17.8249
 11
84.0983
 21
-13.6206
  0
LINE
  8
0
 10
84.0983
 20
-13.6206
 11
82.6624
 21
-9.20152
  0
LINE
  8
0
 10
82.6624
 20
-9.20152
 11
81.7917
 21
-4.63733
  0
LINE
  8
0
 10
81.7917
 20
-4.63733
 11
81.5
 21
0
  0
LINE
  8
0
 10
81.5
 20
0
 11
81.7917
 21
4.63733
  0
LINE
  8
0
 10
81.7917
 20
4.63733
 11
82.6624
 21
9.20152
  0
LINE
  8
0
 10
82.6624
 20
9.20152
 11
84.0983
 21
13.6206
  0
LINE
  8
0
 10
84.0983
 20
13.6206
 11
86.0766
 21
17.8249
  0
LINE
  8
0
 10
86.0766
 20
17.8249
 11
88.5664
 21
21.748
  0
LINE
  8
0
 10
88.5664
 20
21.748
 11
91.5282
 21
25.3282
  0
LINE
  8
0
 10
91.5282
 20
25.3282
 11
94.9153
 21
28.509
  0
LINE
  8
0
 10
94.9153
 20
28.509
 11
98.6744
 21
31.2401
  0
LINE
  8
0
 10
98.6744
 20
31.2401
 11
102.746
 21
33.4786
  0
LINE
  8
0
 10
102.746
 20
33.4786
 11
107.066
 21
35.1891
  0
LINE
  8
0
 10
107.066
 20
35.1891
 11
111.567
 21
36.3446
  0
LINE
  8
0
 10
111.567
 20
36.3446
 11
116.177
 21
36.927
  0
LINE
  8
0
 10
116.177
 20
36.927
 11
120.823
 21
36.927
  0
LINE
  8
0
 10
120.823
 20
36.927
 11
125.433
 21
36.3446
  0
LINE
  8
0
 10
125.433
 20
36.3446
 11
129.934
 21
35.1891
  0
LINE
  8
0
 10
129.934
 20
35.1891
 11
134.254
 21
33.4786
  0
LINE
  8
0
 10
134.254
 20
33.4786
 11
138.326
 21
31.2401
  0
LINE
  8
0
 10
138.326
 20
31.2401
 11
142.085
 21
28.509
  0
LINE
  8
0
 10
142.085
 20
28.509
 11
145.472
 21
25.3282
  0
LINE
  8
0
 10
145.472
 20
25.3282
 11
148.434
 21
21.748
  0
LINE
  8
0
 10
148.434
 20
21.748
 11
150.923
 21
17.8249
  0
LINE
  8
0
 10
150.923
 20
17.8249
 11
152.902
 21
13.6206
  0
LINE
  8
0
 10
152.902
 20
13.6206
 11
154.338
 21
9.20152
  0
LINE
  8
0
 10
154.338
 20
9.20152
 11
155.208
 21
4.63733
  0
LINE
  8
0
 10
155.208
 20
4.63733
 11
155.5
 21
0
  0
LINE
  8
0
 10
155.5
 20
0
 11
155.208
 21
-4.63733
  0
LINE
  8
0
 10
155.208
 20
-4.63733
 11
154.338
 21
-9.20152
  0
LINE
  8
0
 10
154.338
 20
-9.20152
 11
152.902
 21
-13.6206
  0
LINE
  8
0
 10
152.902
 20
-13.6206
 11
150.923
 21
-17.8249
  0
LINE
  8
0
 10
150.923
 20
-17.8249
 11
148.434
 21
-21.748
  0
LINE
  8
0
 10
148.434
 20
-21.748
 11
145.472
 21
-25.3282
  0
LINE
  8
0
 10
145.472
 20
-25.3282
 11
142.085
 21
-28.509
  0
LINE
  8
0
 10
142.085
 20
-28.509
 11
138.326
 21
-31.2401
  0
LINE
  8
0
 10
138.326
 20
-31.2401
 11
134.254
 21
-33.4786
  0
LINE
  8
0
 10
134.254
 20
-33.4786
 11
129.934
 21
-35.1891
  0
LINE
  8
0
 10
129.934
 20
-35.1891
 11
125.433
 21
-36.3446
  0
LINE
  8
0
 10
125.433
 20
-36.3446
 11
120.823
 21
-36.927
  0
LINE
  8
0
 10
120.823
 20
-36.927
 11
116.177
 21
-36.927
  0
LINE
  8
0
 10
164.906
 20
28.503
 11
164.719
 21
28.5266
  0
LINE
  8
0
 10
164.719
 20
28.5266
 11
164.536
 21
28.5734
  0
LINE
  8
0
 10
164.536
 20
28.5734
 11
164.361
 21
28.6427
  0
LINE
  8
0
 10
164.361
 20
28.6427
 11
164.196
 21
28.7335
  0
LINE
  8
0
 10
164.196
 20
28.7335
 11
164.044
 21
28.8442
  0
LINE
  8
0
 10
164.044
 20
28.8442
 11
163.907
 21
28.9732
  0
LINE
  8
0
 10
163.907
 20
28.9732
 11
163.786
 21
29.1183
  0
LINE
  8
0
 10
163.786
 20
29.1183
 11
163.686
 21
29.2774
  0
LINE
  8
0
 10
163.686
 20
29.2774
 11
163.605
 21
29.4478
  0
LINE
  8
0
 10
163.605
 20
29.4478
 11
163.547
 21
29.627
  0
LINE
  8
0
 10
163.547
 20
29.627
 11
163.512
 21
29.812
  0
LINE
  8
0
 10
163.512
 20
29.812
 11
163.5
 21
30
  0
LINE
  8
0
 10
163.5
 20
30
 11
163.512
 21
30.188
  0
LINE
  8
0
 10
163.512
 20
30.188
 11
163.547
 21
30.373
  0
LINE
  8
0
 10
163.547
 20
30.373
 11
163.605
 21
30.5522
  0
LINE
  8
0
 10
163.605
 20
30.5522
 11
163.686
 21
30.7226
  0
LINE
  8
0
 10
163.686
 20
30.7226
 11
163.786
 21
30.8817
  0
LINE
  8
0
 10
163.786
 20
30.8817
 11
163.907
 21
31.0268
  0
LINE
  8
0
 10
163.907
 20
31.0268
 11
164.044
 21
31.1558
  0
LINE
  8
0
 10
164.044
 20
31.1558
 11
164.196
 21
31.2665
  0
LINE
  8
0
 10
164.196
 20
31.2665
 11
164.361
 21
31.3572
  0
LINE
  8
0
 10
164.361
 20
31.3572
 11
164.536
 21
31.4266
  0
LINE
  8
0
 10
164.536
 20
31.4266
 11
164.719
 21
31.4734
  0
LINE
  8
0
 10
164.719
 20
31.4734
 11
164.906
 21
31.497
  0
LINE
  8
0
 10
164.906
 20
31.497
 11
165.094
 21
31.497
  0
LINE
  8
0
 10
165.094
 20
31.497
 11
165.281
 21
31.4734
  0
LINE
  8
0
 10
165.281
 20
31.4734
 11
165.464
 21
31.4266
  0
LINE
  8
0
 10
165.464
 20
31.4266
 11
165.639
 21
31.3572
  0
LINE
  8
0
 10
165.639
 20
31.3572
 11
165.804
 21
31.2665
  0
LINE
  8
0
 10
165.804
 20
31.2665
 11
165.956
 21
31.1558
  0
LINE
  8
0
 10
165.956
 20
31.1558
 11
166.093
 21
31.0268
  0
LINE
  8
0
 10
166.093
 20
31.0268
 11
166.214
 21
30.8817
  0
LINE
  8
0
 10
166.214
 20
30.8817
 11
166.314
 21
30.7226
  0
LINE
  8
0
 10
166.314
 20
30.7226
 11
166.395
 21
30.5522
  0
LINE
  8
0
 10
166.395
 20
30.5522
 11
166.453
 21
30.373
  0
LINE
  8
0
 10
166.453
 20
30.373
 11
166.488
 21
30.188
  0
LINE
  8
0
 10
166.488
 20
30.188
 11
166.5
 21
30
  0
LINE
  8
0
 10
166.5
 20
30
 11
166.488
 21
29.812
  0
LINE
  8
0
 10
166.488
 20
29.812
 11
166.453
 21
29.627
  0
LINE
  8
0
 10
166.453
 20
29.627
 11
166.395
 21
29.4478
  0
LINE
  8
0
 10
166.395
 20
29.4478
 11
166.314
 21
29.2774
  0
LINE
  8
0
 10
166.314
 20
29.2774
 11
166.214
 21
29.1183
  0
LINE
  8
0
 10
166.214
 20
29.1183
 11
166.093
 21
28.9732
  0
LINE
  8
0
 10
166.093
 20
28.9732
 11
165.956
 21
28.8442
  0
LINE
  8
0
 10
165.956
 20
28.8442
 11
165.804
 21
28.7335
  0
LINE
  8
0
 10
165.804
 20
28.7335
 11
165.639
 21
28.6427
  0
LINE
  8
0
 10
165.639
 20
28.6427
 11
165.464
 21
28.5734
  0
LINE
  8
0
 10
165.464
 20
28.5734
 11
165.281
 21
28.5266
  0
LINE
  8
0
 10
165.281
 20
28.5266
 11
165.094
 21
28.503
  0
LINE
  8
0
 10
165.094
 20
28.503
 11
164.906
 21
28.503
  0
LINE
  8
0
 10
-165.094
 20
28.503
 11
-165.281
 21
28.5266
  0
LINE
  8
0
 10
-165.281
 20
28.5266
 11
-165.464
 21
28.5734
  0
LINE
  8
0
 10
-165.464
 20
28.5734
 11
-165.639
 21
28.6427
  0
LINE
  8
0
 10
-165.639
 20
28.6427
 11
-165.804
 21
28.7335
  0
LINE
  8
0
 10
-165.804
 20
28.7335
 11
-165.956
 21
28.8442
  0
LINE
  8
0
 10
-165.956
 20
28.8442
 11
-166.093
 21
28.9732
  0
LINE
  8
0
 10
-166.093
 20
28.9732
 11
-166.214
 21
29.1183
  0
LINE
  8
0
 10
-166.214
 20
29.1183
 11
-166.314
 21
29.2774
  0
LINE
  8
0
 10
-166.314
 20
29.2774
 11
-166.395
 21
29.4478
  0
LINE
  8
0
 10
-166.395
 20
29.4478
 11
-166.453
 21
29.627
  0
LINE
  8
0
 10
-166.453
 20
29.627
 11
-166.488
 21
29.812
  0
LINE
  8
0
 10
-166.488
 20
29.812
 11
-166.5
 21
30
  0
LINE
  8
0
 10
-166.5
 20
30
 11
-166.488
 21
30.188
  0
LINE
  8
0
 10
-166.488
 20
30.188
 11
-166.453
 21
30.373
  0
LINE
  8
0
 10
-166.453
 20
30.373
 11
-166.395
 21
30.5522
  0
LINE
  8
0
 10
-166.395
 20
30.5522
 11
-166.314
 21
30.7226
  0
LINE
  8
0
 10
-166.314
 20
30.7226
 11
-166.214
 21
30.8817
  0
LINE
  8
0
 10
-166.214
 20
30.8817
 11
-166.093
 21
31.0268
  0
LINE
  8
0
 10
-166.093
 20
31.0268
 11
-165.956
 21
31.1558
  0
LINE
  8
0
 10
-165.956
 20
31.1558
 11
-165.804
 21
31.2665
  0
LINE
  8
0
 10
-165.804
 20
31.2665
 11
-165.639
 21
31.3572
  0
LINE
  8
0
 10
-165.639
 20
31.3572
 11
-165.464
 21
31.4266
  0
LINE
  8
0
 10
-165.464
 20
31.4266
 11
-165.281
 21
31.4734
  0
LINE
  8
0
 10
-165.281
 20
31.4734
 11
-165.094
 21
31.497
  0
LINE
  8
0
 10
-165.094
 20
31.497
 11
-164.906
 21
31.497
  0
LINE
  8
0
 10
-164.906
 20
31.497
 11
-164.719
 21
31.4734
  0
LINE
  8
0
 10
-164.719
 20
31.4734
 11
-164.536
 21
31.4266
  0
LINE
  8
0
 10
-164.536
 20
31.4266
 11
-164.361
 21
31.3572
  0
LINE
  8
0
 10
-164.361
 20
31.3572
 11
-164.196
 21
31.2665
  0
LINE
  8
0
 10
-164.196
 20
31.2665
 11
-164.044
 21
31.1558
  0
LINE
  8
0
 10
-164.044
 20
31.1558
 11
-163.907
 21
31.0268
  0
LINE
  8
0
 10
-163.907
 20
31.0268
 11
-163.786
 21
30.8817
  0
LINE
  8
0
 10
-163.786
 20
30.8817
 11
-163.686
 21
30.7226
  0
LINE
  8
0
 10
-163.686
 20
30.7226
 11
-163.605
 21
30.5522
  0
LINE
  8
0
 10
-163.605
 20
30.5522
 11
-163.547
 21
30.373
  0
LINE
  8
0
 10
-163.547
 20
30.373
 11
-163.512
 21
30.188
  0
LINE
  8
0
 10
-163.512
 20
30.188
 11
-163.5
 21
30
  0
LINE
  8
0
 10
-163.5
 20
30
 11
-163.512
 21
29.812
  0
LINE
  8
0
 10
-163.512
 20
29.812
 11
-163.547
 21
29.627
  0
LINE
  8
0
 10
-163.547
 20
29.627
 11
-163.605
 21
29.4478
  0
LINE
  8
0
 10
-163.605
 20
29.4478
 11
-163.686
 21
29.2774
  0
LINE
  8
0
 10
-163.686
 20
29.2774
 11
-163.786
 21
29.1183
  0
LINE
  8
0
 10
-163.786
 20
29.1183
 11
-163.907
 21
28.9732
  0
LINE
  8
0
 10
-163.907
 20
28.9732
 11
-164.044
 21
28.8442
  0
LINE
  8
0
 10
-164.044
 20
28.8442
 11
-164.196
 21
28.7335
  0
LINE
  8
0
 10
-164.196
 20
28.7335
 11
-164.361
 21
28.6427
  0
LINE
  8
0
 10
-164.361
 20
28.6427
 11
-164.536
 21
28.5734
  0
LINE
  8
0
 10
-164.536
 20
28.5734
 11
-164.719
 21
28.5266
  0
LINE
  8
0
 10
-164.719
 20
28.5266
 11
-164.906
 21
28.503
  0
LINE
  8
0
 10
-164.906
 20
28.503
 11
-165.094
 21
28.503
  0
LINE
  8
0
 10
-165.188
 20
19.5059
 11
-165.562
 21
19.5531
  0
LINE
  8
0
 10
-165.562
 20
19.5531
 11
-165.927
 21
19.6468
  0
LINE
  8
0
 10
-165.927
 20
19.6468
 11
-166.277
 21
19.7855
  0
LINE
  8
0
 10
-166.277
 20
19.7855
 11
-166.607
 21
19.967
  0
LINE
  8
0
 10
-166.607
 20
19.967
 11
-166.912
 21
20.1884
  0
LINE
  8
0
 10
-166.912
 20
20.1884
 11
-167.187
 21
20.4464
  0
LINE
  8
0
 10
-167.187
 20
20.4464
 11
-167.427
 21
20.7366
  0
LINE
  8
0
 10
-167.427
 20
20.7366
 11
-167.629
 21
21.0547
  0
LINE
  8
0
 10
-167.629
 20
21.0547
 11
-167.789
 21
21.3956
  0
LINE
  8
0
 10
-167.789
 20
21.3956
 11
-167.906
 21
21.7539
  0
LINE
  8
0
 10
-167.906
 20
21.7539
 11
-167.976
 21
22.124
  0
LINE
  8
0
 10
-167.976
 20
22.124
 11
-168
 21
22.5
  0
LINE
  8
0
 10
-168
 20
22.5
 11
-167.976
 21
22.876
  0
LINE
  8
0
 10
-167.976
 20
22.876
 11
-167.906
 21
23.2461
  0
LINE
  8
0
 10
-167.906
 20
23.2461
 11
-167.789
 21
23.6044
  0
LINE
  8
0
 10
-167.789
 20
23.6044
 11
-167.629
 21
23.9453
  0
LINE
  8
0
 10
-167.629
 20
23.9453
 11
-167.427
 21
24.2634
  0
LINE
  8
0
 10
-167.427
 20
24.2634
 11
-167.187
 21
24.5536
  0
LINE
  8
0
 10
-167.187
 20
24.5536
 11
-166.912
 21
24.8115
  0
LINE
  8
0
 10
-166.912
 20
24.8115
 11
-166.607
 21
25.033
  0
LINE
  8
0
 10
-166.607
 20
25.033
 11
-166.277
 21
25.2145
  0
LINE
  8
0
 10
-166.277
 20
25.2145
 11
-165.927
 21
25.3532
  0
LINE
  8
0
 10
-165.927
 20
25.3532
 11
-165.562
 21
25.4469
  0
LINE
  8
0
 10
-165.562
 20
25.4469
 11
-165.188
 21
25.4941
  0
LINE
  8
0
 10
-165.188
 20
25.4941
 11
-164.812
 21
25.4941
  0
LINE
  8
0
 10
-164.812
 20
25.4941
 11
-164.438
 21
25.4469
  0
LINE
  8
0
 10
-164.438
 20
25.4469
 11
-164.073
 21
25.3532
  0
LINE
  8
0
 10
-164.073
 20
25.3532
 11
-163.723
 21
25.2145
  0
LINE
  8
0
 10
-163.723
 20
25.2145
 11
-163.393
 21
25.033
  0
LINE
  8
0
 10
-163.393
 20
25.033
 11
-163.088
 21
24.8115
  0
LINE
  8
0
 10
-163.088
 20
24.8115
 11
-162.813
 21
24.5536
  0
LINE
  8
0
 10
-162.813
 20
24.5536
 11
-162.573
 21
24.2634
  0
LINE
  8
0
 10
-162.573
 20
24.2634
 11
-162.371
 21
23.9453
  0
LINE
  8
0
 10
-162.371
 20
23.9453
 11
-162.211
 21
23.6044
  0
LINE
  8
0
 10
-162.211
 20
23.6044
 11
-162.094
 21
23.2461
  0
LINE
  8
0
 10
-162.094
 20
23.2461
 11
-162.024
 21
22.876
  0
LINE
  8
0
 10
-162.024
 20
22.876
 11
-162
 21
22.5
  0
LINE
  8
0
 10
-162
 20
22.5
 11
-162.024
 21
22.124
  0
LINE
  8
0
 10
-162.024
 20
22.124
 11
-162.094
 21
21.7539
  0
LINE
  8
0
 10
-162.094
 20
21.7539
 11
-162.211
 21
21.3956
  0
LINE
  8
0
 10
-162.211
 20
21.3956
 11
-162.371
 21
21.0547
  0
LINE
  8
0
 10
-162.371
 20
21.0547
 11
-162.573
 21
20.7366
  0
LINE
  8
0
 10
-162.573
 20
20.7366
 11
-162.813
 21
20.4464
  0
LINE
  8
0
 10
-162.813
 20
20.4464
 11
-163.088
 21
20.1884
  0
LINE
  8
0
 10
-163.088
 20
20.1884
 11
-163.393
 21
19.967
  0
LINE
  8
0
 10
-163.393
 20
19.967
 11
-163.723
 21
19.7855
  0
LINE
  8
0
 10
-163.723
 20
19.7855
 11
-164.073
 21
19.6468
  0
LINE
  8
0
 10
-164.073
 20
19.6468
 11
-164.438
 21
19.5531
  0
LINE
  8
0
 10
-164.438
 20
19.5531
 11
-164.812
 21
19.5059
  0
LINE
  8
0
 10
-164.812
 20
19.5059
 11
-165.188
 21
19.5059
  0
LINE
  8
0
 10
164.812
 20
19.5059
 11
164.438
 21
19.5531
  0
LINE
  8
0
 10
164.438
 20
19.5531
 11
164.073
 21
19.6468
  0
LINE
  8
0
 10
164.073
 20
19.6468
 11
163.723
 21
19.7855
  0
LINE
  8
0
 10
163.723
 20
19.7855
 11
163.393
 21
19.967
  0
LINE
  8
0
 10
163.393
 20
19.967
 11
163.088
 21
20.1884
  0
LINE
  8
0
 10
163.088
 20
20.1884
 11
162.813
 21
20.4464
  0
LINE
  8
0
 10
162.813
 20
20.4464
 11
162.573
 21
20.7366
  0
LINE
  8
0
 10
162.573
 20
20.7366
 11
162.371
 21
21.0547
  0
LINE
  8
0
 10
162.371
 20
21.0547
 11
162.211
 21
21.3956
  0
LINE
  8
0
 10
162.211
 20
21.3956
 11
162.094
 21
21.7539
  0
LINE
  8
0
 10
162.094
 20
21.7539
 11
162.024
 21
22.124
  0
LINE
  8
0
 10
162.024
 20
22.124
 11
162
 21
22.5
  0
LINE
  8
0
 10
162
 20
22.5
 11
162.024
 21
22.876
  0
LINE
  8
0
 10
162.024
 20
22.876
 11
162.094
 21
23.2461
  0
LINE
  8
0
 10
162.094
 20
23.2461
 11
162.211
 21
23.6044
  0
LINE
  8
0
 10
162.211
 20
23.6044
 11
162.371
 21
23.9453
  0
LINE
  8
0
 10
162.371
 20
23.9453
 11
162.573
 21
24.2634
  0
LINE
  8
0
 10
162.573
 20
24.2634
 11
162.813
 21
24.5536
  0
LINE
  8
0
 10
162.813
 20
24.5536
 11
163.088
 21
24.8115
  0
LINE
  8
0
 10
163.088
 20
24.8115
 11
163.393
 21
25.033
  0
LINE
  8
0
 10
163.393
 20
25.033
 11
163.723
 21
25.2145
  0
LINE
  8
0
 10
163.723
 20
25.2145
 11
164.073
 21
25.3532
  0
LINE
  8
0
 10
164.073
 20
25.3532
 11
164.438
 21
25.4469
  0
LINE
  8
0
 10
164.438
 20
25.4469
 11
164.812
 21
25.4941
  0
LINE
  8
0
 10
164.812
 20
25.4941
 11
165.188
 21
25.4941
  0
LINE
  8
0
 10
165.188
 20
25.4941
 11
165.562
 21
25.4469
  0
LINE
  8
0
 10
165.562
 20
25.4469
 11
165.927
 21
25.3532
  0
LINE
  8
0
 10
165.927
 20
25.3532
 11
166.277
 21
25.2145
  0
LINE
  8
0
 10
166.277
 20
25.2145
 11
166.607
 21
25.033
  0
LINE
  8
0
 10
166.607
 20
25.033
 11
166.912
 21
24.8115
  0
LINE
  8
0
 10
166.912
 20
24.8115
 11
167.187
 21
24.5536
  0
LINE
  8
0
 10
167.187
 20
24.5536
 11
167.427
 21
24.2634
  0
LINE
  8
0
 10
167.427
 20
24.2634
 11
167.629
 21
23.9453
  0
LINE
  8
0
 10
167.629
 20
23.9453
 11
167.789
 21
23.6044
  0
LINE
  8
0
 10
167.789
 20
23.6044
 11
167.906
 21
23.2461
  0
LINE
  8
0
 10
167.906
 20
23.2461
 11
167.976
 21
22.876
  0
LINE
  8
0
 10
167.976
 20
22.876
 11
168
 21
22.5
  0
LINE
  8
0
 10
168
 20
22.5
 11
167.976
 21
22.124
  0
LINE
  8
0
 10
167.976
 20
22.124
 11
167.906
 21
21.7539
  0
LINE
  8
0
 10
167.906
 20
21.7539
 11
167.789
 21
21.3956
  0
LINE
  8
0
 10
167.789
 20
21.3956
 11
167.629
 21
21.0547
  0
LINE
  8
0
 10
167.629
 20
21.0547
 11
167.427
 21
20.7366
  0
LINE
  8
0
 10
167.427
 20
20.7366
 11
167.187
 21
20.4464
  0
LINE
  8
0
 10
167.187
 20
20.4464
 11
166.912
 21
20.1884
  0
LINE
  8
0
 10
166.912
 20
20.1884
 11
166.607
 21
19.967
  0
LINE
  8
0
 10
166.607
 20
19.967
 11
166.277
 21
19.7855
  0
LINE
  8
0
 10
166.277
 20
19.7855
 11
165.927
 21
19.6468
  0
LINE
  8
0
 10
165.927
 20
19.6468
 11
165.562
 21
19.5531
  0
LINE
  8
0
 10
165.562
 20
19.5531
 11
165.188
 21
19.5059
  0
LINE
  8
0
 10
165.188
 20
19.5059
 11
164.812
 21
19.5059
  0
LINE
  8
0
 10
-165.094
 20
13.5029
 11
-165.281
 21
13.5266
  0
LINE
  8
0
 10
-165.281
 20
13.5266
 11
-165.464
 21
13.5734
  0
LINE
  8
0
 10
-165.464
 20
13.5734
 11
-165.639
 21
13.6427
  0
LINE
  8
0
 10
-165.639
 20
13.6427
 11
-165.804
 21
13.7335
  0
LINE
  8
0
 10
-165.804
 20
13.7335
 11
-165.956
 21
13.8442
  0
LINE
  8
0
 10
-165.956
 20
13.8442
 11
-166.093
 21
13.9732
  0
LINE
  8
0
 10
-166.093
 20
13.9732
 11
-166.214
 21
14.1183
  0
LINE
  8
0
 10
-166.214
 20
14.1183
 11
-166.314
 21
14.2774
  0
LINE
  8
0
 10
-166.314
 20
14.2774
 11
-166.395
 21
14.4478
  0
LINE
  8
0
 10
-166.395
 20
14.4478
 11
-166.453
 21
14.627
  0
LINE
  8
0
 10
-166.453
 20
14.627
 11
-166.488
 21
14.812
  0
LINE
  8
0
 10
-166.488
 20
14.812
 11
-166.5
 21
15
  0
LINE
  8
0
 10
-166.5
 20
15
 11
-166.488
 21
15.188
  0
LINE
  8
0
 10
-166.488
 20
15.188
 11
-166.453
 21
15.373
  0
LINE
  8
0
 10
-166.453
 20
15.373
 11
-166.395
 21
15.5522
  0
LINE
  8
0
 10
-166.395
 20
15.5522
 11
-166.314
 21
15.7226
  0
LINE
  8
0
 10
-166.314
 20
15.7226
 11
-166.214
 21
15.8817
  0
LINE
  8
0
 10
-166.214
 20
15.8817
 11
-166.093
 21
16.0268
  0
LINE
  8
0
 10
-166.093
 20
16.0268
 11
-165.956
 21
16.1558
  0
LINE
  8
0
 10
-165.956
 20
16.1558
 11
-165.804
 21
16.2665
  0
LINE
  8
0
 10
-165.804
 20
16.2665
 11
-165.639
 21
16.3572
  0
LINE
  8
0
 10
-165.639
 20
16.3572
 11
-165.464
 21
16.4266
  0
LINE
  8
0
 10
-165.464
 20
16.4266
 11
-165.281
 21
16.4734
  0
LINE
  8
0
 10
-165.281
 20
16.4734
 11
-165.094
 21
16.497
  0
LINE
  8
0
 10
-165.094
 20
16.497
 11
-164.906
 21
16.497
  0
LINE
  8
0
 10
-164.906
 20
16.497
 11
-164.719
 21
16.4734
  0
LINE
  8
0
 10
-164.719
 20
16.4734
 11
-164.536
 21
16.4266
  0
LINE
  8
0
 10
-164.536
 20
16.4266
 11
-164.361
 21
16.3572
  0
LINE
  8
0
 10
-164.361
 20
16.3572
 11
-164.196
 21
16.2665
  0
LINE
  8
0
 10
-164.196
 20
16.2665
 11
-164.044
 21
16.1558
  0
LINE
  8
0
 10
-164.044
 20
16.1558
 11
-163.907
 21
16.0268
  0
LINE
  8
0
 10
-163.907
 20
16.0268
 11
-163.786
 21
15.8817
  0
LINE
  8
0
 10
-163.786
 20
15.8817
 11
-163.686
 21
15.7226
  0
LINE
  8
0
 10
-163.686
 20
15.7226
 11
-163.605
 21
15.5522
  0
LINE
  8
0
 10
-163.605
 20
15.5522
 11
-163.547
 21
15.373
  0
LINE
  8
0
 10
-163.547
 20
15.373
 11
-163.512
 21
15.188
  0
LINE
  8
0
 10
-163.512
 20
15.188
 11
-163.5
 21
15
  0
LINE
  8
0
 10
-163.5
 20
15
 11
-163.512
 21
14.812
  0
LINE
  8
0
 10
-163.512
 20
14.812
 11
-163.547
 21
14.627
  0
LINE
  8
0
 10
-163.547
 20
14.627
 11
-163.605
 21
14.4478
  0
LINE
  8
0
 10
-163.605
 20
14.4478
 11
-163.686
 21
14.2774
  0
LINE
  8
0
 10
-163.686
 20
14.2774
 11
-163.786
 21
14.1183
  0
LINE
  8
0
 10
-163.786
 20
14.1183
 11
-163.907
 21
13.9732
  0
LINE
  8
0
 10
-163.907
 20
13.9732
 11
-164.044
 21
13.8442
  0
LINE
  8
0
 10
-164.044
 20
13.8442
 11
-164.196
 21
13.7335
  0
LINE
  8
0
 10
-164.196
 20
13.7335
 11
-164.361
 21
13.6427
  0
LINE
  8
0
 10
-164.361
 20
13.6427
 11
-164.536
 21
13.5734
  0
LINE
  8
0
 10
-164.536
 20
13.5734
 11
-164.719
 21
13.5266
  0
LINE
  8
0
 10
-164.719
 20
13.5266
 11
-164.906
 21
13.5029
  0
LINE
  8
0
 10
-164.906
 20
13.5029
 11
-165.094
 21
13.5029
  0
LINE
  8
0
 10
164.906
 20
13.5029
 11
164.719
 21
13.5266
  0
LINE
  8
0
 10
164.719
 20
13.5266
 11
164.536
 21
13.5734
  0
LINE
  8
0
 10
164.536
 20
13.5734
 11
164.361
 21
13.6427
  0
LINE
  8
0
 10
164.361
 20
13.6427
 11
164.196
 21
13.7335
  0
LINE
  8
0
 10
164.196
 20
13.7335
 11
164.044
 21
13.8442
  0
LINE
  8
0
 10
164.044
 20
13.8442
 11
163.907
 21
13.9732
  0
LINE
  8
0
 10
163.907
 20
13.9732
 11
163.786
 21
14.1183
  0
LINE
  8
0
 10
163.786
 20
14.1183
 11
163.686
 21
14.2774
  0
LINE
  8
0
 10
163.686
 20
14.2774
 11
163.605
 21
14.4478
  0
LINE
  8
0
 10
163.605
 20
14.4478
 11
163.547
 21
14.627
  0
LINE
  8
0
 10
163.547
 20
14.627
 11
163.512
 21
14.812
  0
LINE
  8
0
 10
163.512
 20
14.812
 11
163.5
 21
15
  0
LINE
  8
0
 10
163.5
 20
15
 11
163.512
 21
15.188
  0
LINE
  8
0
 10
163.512
 20
15.188
 11
163.547
 21
15.373
  0
LINE
  8
0
 10
163.547
 20
15.373
 11
163.605
 21
15.5522
  0
LINE
  8
0
 10
163.605
 20
15.5522
 11
163.686
 21
15.7226
  0
LINE
  8
0
 10
163.686
 20
15.7226
 11
163.786
 21
15.8817
  0
LINE
  8
0
 10
163.786
 20
15.8817
 11
163.907
 21
16.0268
  0
LINE
  8
0
 10
163.907
 20
16.0268
 11
164.044
 21
16.1558
  0
LINE
  8
0
 10
164.044
 20
16.1558
 11
164.196
 21
16.2665
  0
LINE
  8
0
 10
164.196
 20
16.2665
 11
164.361
 21
16.3572
  0
LINE
  8
0
 10
164.361
 20
16.3572
 11
164.536
 21
16.4266
  0
LINE
  8
0
 10
164.536
 20
16.4266
 11
164.719
 21
16.4734
  0
LINE
  8
0
 10
164.719
 20
16.4734
 11
164.906
 21
16.497
  0
LINE
  8
0
 10
164.906
 20
16.497
 11
165.094
 21
16.497
  0
LINE
  8
0
 10
165.094
 20
16.497
 11
165.281
 21
16.4734
  0
LINE
  8
0
 10
165.281
 20
16.4734
 11
165.464
 21
16.4266
  0
LINE
  8
0
 10
165.464
 20
16.4266
 11
165.639
 21
16.3572
  0
LINE
  8
0
 10
165.639
 20
16.3572
 11
165.804
 21
16.2665
  0
LINE
  8
0
 10
165.804
 20
16.2665
 11
165.956
 21
16.1558
  0
LINE
  8
0
 10
165.956
 20
16.1558
 11
166.093
 21
16.0268
  0
LINE
  8
0
 10
166.093
 20
16.0268
 11
166.214
 21
15.8817
  0
LINE
  8
0
 10
166.214
 20
15.8817
 11
166.314
 21
15.7226
  0
LINE
  8
0
 10
166.314
 20
15.7226
 11
166.395
 21
15.5522
  0
LINE
  8
0
 10
166.395
 20
15.5522
 11
166.453
 21
15.373
  0
LINE
  8
0
 10
166.453
 20
15.373
 11
166.488
 21
15.188
  0
LINE
  8
0
 10
166.488
 20
15.188
 11
166.5
 21
15
  0
LINE
  8
0
 10
166.5
 20
15
 11
166.488
 21
14.812
  0
LINE
  8
0
 10
166.488
 20
14.812
 11
166.453
 21
14.627
  0
LINE
  8
0
 10
166.453
 20
14.627
 11
166.395
 21
14.4478
  0
LINE
  8
0
 10
166.395
 20
14.4478
 11
166.314
 21
14.2774
  0
LINE
  8
0
 10
166.314
 20
14.2774
 11
166.214
 21
14.1183
  0
LINE
  8
0
 10
166.214
 20
14.1183
 11
166.093
 21
13.9732
  0
LINE
  8
0
 10
166.093
 20
13.9732
 11
165.956
 21
13.8442
  0
LINE
  8
0
 10
165.956
 20
13.8442
 11
165.804
 21
13.7335
  0
LINE
  8
0
 10
165.804
 20
13.7335
 11
165.639
 21
13.6427
  0
LINE
  8
0
 10
165.639
 20
13.6427
 11
165.464
 21
13.5734
  0
LINE
  8
0
 10
165.464
 20
13.5734
 11
165.281
 21
13.5266
  0
LINE
  8
0
 10
165.281
 20
13.5266
 11
165.094
 21
13.5029
  0
LINE
  8
0
 10
165.094
 20
13.5029
 11
164.906
 21
13.5029
  0
LINE
  8
0
 10
-165.188
 20
4.50591
 11
-165.562
 21
4.55313
  0
LINE
  8
0
 10
-165.562
 20
4.55313
 11
-165.927
 21
4.64682
  0
LINE
  8
0
 10
-165.927
 20
4.64682
 11
-166.277
 21
4.78551
  0
LINE
  8
0
 10
-166.277
 20
4.78551
 11
-166.607
 21
4.96701
  0
LINE
  8
0
 10
-166.607
 20
4.96701
 11
-166.912
 21
5.18845
  0
LINE
  8
0
 10
-166.912
 20
5.18845
 11
-167.187
 21
5.44635
  0
LINE
  8
0
 10
-167.187
 20
5.44635
 11
-167.427
 21
5.73663
  0
LINE
  8
0
 10
-167.427
 20
5.73663
 11
-167.629
 21
6.05473
  0
LINE
  8
0
 10
-167.629
 20
6.05473
 11
-167.789
 21
6.39561
  0
LINE
  8
0
 10
-167.789
 20
6.39561
 11
-167.906
 21
6.75392
  0
LINE
  8
0
 10
-167.906
 20
6.75392
 11
-167.976
 21
7.12399
  0
LINE
  8
0
 10
-167.976
 20
7.12399
 11
-168
 21
7.5
  0
LINE
  8
0
 10
-168
 20
7.5
 11
-167.976
 21
7.87599
  0
LINE
  8
0
 10
-167.976
 20
7.87599
 11
-167.906
 21
8.24606
  0
LINE
  8
0
 10
-167.906
 20
8.24606
 11
-167.789
 21
8.60437
  0
LINE
  8
0
 10
-167.789
 20
8.60437
 11
-167.629
 21
8.94525
  0
LINE
  8
0
 10
-167.629
 20
8.94525
 11
-167.427
 21
9.26335
  0
LINE
  8
0
 10
-167.427
 20
9.26335
 11
-167.187
 21
9.55363
  0
LINE
  8
0
 10
-167.187
 20
9.55363
 11
-166.912
 21
9.81154
  0
LINE
  8
0
 10
-166.912
 20
9.81154
 11
-166.607
 21
10.033
  0
LINE
  8
0
 10
-166.607
 20
10.033
 11
-166.277
 21
10.2145
  0
LINE
  8
0
 10
-166.277
 20
10.2145
 11
-165.927
 21
10.3532
  0
LINE
  8
0
 10
-165.927
 20
10.3532
 11
-165.562
 21
10.4469
  0
LINE
  8
0
 10
-165.562
 20
10.4469
 11
-165.188
 21
10.4941
  0
LINE
  8
0
 10
-165.188
 20
10.4941
 11
-164.812
 21
10.4941
  0
LINE
  8
0
 10
-164.812
 20
10.4941
 11
-164.438
 21
10.4469
  0
LINE
  8
0
 10
-164.438
 20
10.4469
 11
-164.073
 21
10.3532
  0
LINE
  8
0
 10
-164.073
 20
10.3532
 11
-163.723
 21
10.2145
  0
LINE
  8
0
 10
-163.723
 20
10.2145
 11
-163.393
 21
10.033
  0
LINE
  8
0
 10
-163.393
 20
10.033
 11
-163.088
 21
9.81154
  0
LINE
  8
0
 10
-163.088
 20
9.81154
 11
-162.813
 21
9.55363
  0
LINE
  8
0
 10
-162.813
 20
9.55363
 11
-162.573
 21
9.26335
  0
LINE
  8
0
 10
-162.573
 20
9.26335
 11
-162.371
 21
8.94525
  0
LINE
  8
0
 10
-162.371
 20
8.94525
 11
-162.211
 21
8.60437
  0
LINE
  8
0
 10
-162.211
 20
8.60437
 11
-162.094
 21
8.24606
  0
LINE
  8
0
 10
-162.094
 20
8.24606
 11
-162.024
 21
7.87599
  0
LINE
  8
0
 10
-162.024
 20
7.87599
 11
-162
 21
7.5
  0
LINE
  8
0
 10
-162
 20
7.5
 11
-162.024
 21
7.12399
  0
LINE
  8
0
 10
-162.024
 20
7.12399
 11
-162.094
 21
6.75392
  0
LINE
  8
0
 10
-162.094
 20
6.75392
 11
-162.211
 21
6.39561
  0
LINE
  8
0
 10
-162.211
 20
6.39561
 11
-162.371
 21
6.05473
  0
LINE
  8
0
 10
-162.371
 20
6.05473
 11
-162.573
 21
5.73663
  0
LINE
  8
0
 10
-162.573
 20
5.73663
 11
-162.813
 21
5.44635
  0
LINE
  8
0
 10
-162.813
 20
5.44635
 11
-163.088
 21
5.18845
  0
LINE
  8
0
 10
-163.088
 20
5.18845
 11
-163.393
 21
4.96701
  0
LINE
  8
0
 10
-163.393
 20
4.96701
 11
-163.723
 21
4.78551
  0
LINE
  8
0
 10
-163.723
 20
4.78551
 11
-164.073
 21
4.64682
  0
LINE
  8
0
 10
-164.073
 20
4.64682
 11
-164.438
 21
4.55313
  0
LINE
  8
0
 10
-164.438
 20
4.55313
 11
-164.812
 21
4.50591
  0
LINE
  8
0
 10
-164.812
 20
4.50591
 11
-165.188
 21
4.50591
  0
LINE
  8
0
 10
164.812
 20
4.50591
 11
164.438
 21
4.55313
  0
LINE
  8
0
 10
164.438
 20
4.55313
 11
164.073
 21
4.64682
  0
LINE
  8
0
 10
164.073
 20
4.64682
 11
163.723
 21
4.78551
  0
LINE
  8
0
 10
163.723
 20
4.78551
 11
163.393
 21
4.96701
  0
LINE
  8
0
 10
163.393
 20
4.96701
 11
163.088
 21
5.18845
  0
LINE
  8
0
 10
163.088
 20
5.18845
 11
162.813
 21
5.44635
  0
LINE
  8
0
 10
162.813
 20
5.44635
 11
162.573
 21
5.73663
  0
LINE
  8
0
 10
162.573
 20
5.73663
 11
162.371
 21
6.05473
  0
LINE
  8
0
 10
162.371
 20
6.05473
 11
162.211
 21
6.39561
  0
LINE
  8
0
 10
162.211
 20
6.39561
 11
162.094
 21
6.75392
  0
LINE
  8
0
 10
162.094
 20
6.75392
 11
162.024
 21
7.12399
  0
LINE
  8
0
 10
162.024
 20
7.12399
 11
162
 21
7.5
  0
LINE
  8
0
 10
162
 20
7.5
 11
162.024
 21
7.87599
  0
LINE
  8
0
 10
162.024
 20
7.87599
 11
162.094
 21
8.24606
  0
LINE
  8
0
 10
162.094
 20
8.24606
 11
162.211
 21
8.60437
  0
LINE
  8
0
 10
162.211
 20
8.60437
 11
162.371
 21
8.94525
  0
LINE
  8
0
 10
162.371
 20
8.94525
 11
162.573
 21
9.26335
  0
LINE
  8
0
 10
162.573
 20
9.26335
 11
162.813
 21
9.55363
  0
LINE
  8
0
 10
162.813
 20
9.55363
 11
163.088
 21
9.81154
  0
LINE
  8
0
 10
163.088
 20
9.81154
 11
163.393
 21
10.033
  0
LINE
  8
0
 10
163.393
 20
10.033
 11
163.723
 21
10.2145
  0
LINE
  8
0
 10
163.723
 20
10.2145
 11
164.073
 21
10.3532
  0
LINE
  8
0
 10
164.073
 20
10.3532
 11
164.438
 21
10.4469
  0
LINE
  8
0
 10
164.438
 20
10.4469
 11
164.812
 21
10.4941
  0
LINE
  8
0
 10
164.812
 20
10.4941
 11
165.188
 21
10.4941
  0
LINE
  8
0
 10
165.188
 20
10.4941
 11
165.562
 21
10.4469
  0
LINE
  8
0
 10
165.562
 20
10.4469
 11
165.927
 21
10.3532
  0
LINE
  8
0
 10
165.927
 20
10.3532
 11
166.277
 21
10.2145
  0
LINE
  8
0
 10
166.277
 20
10.2145
 11
166.607
 21
10.033
  0
LINE
  8
0
 10
166.607
 20
10.033
 11
166.912
 21
9.81154
  0
LINE
  8
0
 10
166.912
 20
9.81154
 11
167.187
 21
9.55363
  0
LINE
  8
0
 10
167.187
 20
9.55363
 11
167.427
 21
9.26335
  0
LINE
  8
0
 10
167.427
 20
9.26335
 11
167.629
 21
8.94525
  0
LINE
  8
0
 10
167.629
 20
8.94525
 11
167.789
 21
8.60437
  0
LINE
  8
0
 10
167.789
 20
8.60437
 11
167.906
 21
8.24606
  0
LINE
  8
0
 10
167.906
 20
8.24606
 11
167.976
 21
7.87599
  0
LINE
  8
0
 10
167.976
 20
7.87599
 11
168
 21
7.5
  0
LINE
  8
0
 10
168
 20
7.5
 11
167.976
 21
7.12399
  0
LINE
  8
0
 10
167.976
 20
7.12399
 11
167.906
 21
6.75392
  0
LINE
  8
0
 10
167.906
 20
6.75392
 11
167.789
 21
6.39561
  0
LINE
  8
0
 10
167.789
 20
6.39561
 11
167.629
 21
6.05473
  0
LINE
  8
0
 10
167.629
 20
6.05473
 11
167.427
 21
5.73663
  0
LINE
  8
0
 10
167.427
 20
5.73663
 11
167.187
 21
5.44635
  0
LINE
  8
0
 10
167.187
 20
5.44635
 11
166.912
 21
5.18845
  0
LINE
  8
0
 10
166.912
 20
5.18845
 11
166.607
 21
4.96701
  0
LINE
  8
0
 10
166.607
 20
4.96701
 11
166.277
 21
4.78551
  0
LINE
  8
0
 10
166.277
 20
4.78551
 11
165.927
 21
4.64682
  0
LINE
  8
0
 10
165.927
 20
4.64682
 11
165.562
 21
4.55313
  0
LINE
  8
0
 10
165.562
 20
4.55313
 11
165.188
 21
4.50591
  0
LINE
  8
0
 10
165.188
 20
4.50591
 11
164.812
 21
4.50591
  0
LINE
  8
0
 10
-165.094
 20
-1.49704
 11
-165.281
 21
-1.47342
  0
LINE
  8
0
 10
-165.281
 20
-1.47342
 11
-165.464
 21
-1.42657
  0
LINE
  8
0
 10
-165.464
 20
-1.42657
 11
-165.639
 21
-1.35724
  0
LINE
  8
0
 10
-165.639
 20
-1.35724
 11
-165.804
 21
-1.26648
  0
LINE
  8
0
 10
-165.804
 20
-1.26648
 11
-165.956
 21
-1.15576
  0
LINE
  8
0
 10
-165.956
 20
-1.15576
 11
-166.093
 21
-1.02681
  0
LINE
  8
0
 10
-166.093
 20
-1.02681
 11
-166.214
 21
-0.881668
  0
LINE
  8
0
 10
-166.214
 20
-0.881668
 11
-166.314
 21
-0.722626
  0
LINE
  8
0
 10
-166.314
 20
-0.722626
 11
-166.395
 21
-0.552185
  0
LINE
  8
0
 10
-166.395
 20
-0.552185
 11
-166.453
 21
-0.373032
  0
LINE
  8
0
 10
-166.453
 20
-0.373032
 11
-166.488
 21
-0.187988
  0
LINE
  8
0
 10
-166.488
 20
-0.187988
 11
-166.5
 21
0
  0
LINE
  8
0
 10
-166.5
 20
0
 11
-166.488
 21
0.187988
  0
LINE
  8
0
 10
-166.488
 20
0.187988
 11
-166.453
 21
0.373032
  0
LINE
  8
0
 10
-166.453
 20
0.373032
 11
-166.395
 21
0.552185
  0
LINE
  8
0
 10
-166.395
 20
0.552185
 11
-166.314
 21
0.722626
  0
LINE
  8
0
 10
-166.314
 20
0.722626
 11
-166.214
 21
0.881668
  0
LINE
  8
0
 10
-166.214
 20
0.881668
 11
-166.093
 21
1.02681
  0
LINE
  8
0
 10
-166.093
 20
1.02681
 11
-165.956
 21
1.15576
  0
LINE
  8
0
 10
-165.956
 20
1.15576
 11
-165.804
 21
1.26648
  0
LINE
  8
0
 10
-165.804
 20
1.26648
 11
-165.639
 21
1.35724
  0
LINE
  8
0
 10
-165.639
 20
1.35724
 11
-165.464
 21
1.42657
  0
LINE
  8
0
 10
-165.464
 20
1.42657
 11
-165.281
 21
1.47342
  0
LINE
  8
0
 10
-165.281
 20
1.47342
 11
-165.094
 21
1.49704
  0
LINE
  8
0
 10
-165.094
 20
1.49704
 11
-164.906
 21
1.49704
  0
LINE
  8
0
 10
-164.906
 20
1.49704
 11
-164.719
 21
1.47342
  0
LINE
  8
0
 10
-164.719
 20
1.47342
 11
-164.536
 21
1.42657
  0
LINE
  8
0
 10
-164.536
 20
1.42657
 11
-164.361
 21
1.35724
  0
LINE
  8
0
 10
-164.361
 20
1.35724
 11
-164.196
 21
1.26648
  0
LINE
  8
0
 10
-164.196
 20
1.26648
 11
-164.044
 21
1.15576
  0
LINE
  8
0
 10
-164.044
 20
1.15576
 11
-163.907
 21
1.02681
  0
LINE
  8
0
 10
-163.907
 20
1.02681
 11
-163.786
 21
0.881668
  0
LINE
  8
0
 10
-163.786
 20
0.881668
 11
-163.686
 21
0.722626
  0
LINE
  8
0
 10
-163.686
 20
0.722626
 11
-163.605
 21
0.552185
  0
LINE
  8
0
 10
-163.605
 20
0.552185
 11
-163.547
 21
0.373032
  0
LINE
  8
0
 10
-163.547
 20
0.373032
 11
-163.512
 21
0.187988
  0
LINE
  8
0
 10
-163.512
 20
0.187988
 11
-163.5
 21
0
  0
LINE
  8
0
 10
-163.5
 20
0
 11
-163.512
 21
-0.187988
  0
LINE
  8
0
 10
-163.512
 20
-0.187988
 11
-163.547
 21
-0.373032
  0
LINE
  8
0
 10
-163.547
 20
-0.373032
 11
-163.605
 21
-0.552185
  0
LINE
  8
0
 10
-163.605
 20
-0.552185
 11
-163.686
 21
-0.722626
  0
LINE
  8
0
 10
-163.686
 20
-0.722626
 11
-163.786
 21
-0.881668
  0
LINE
  8
0
 10
-163.786
 20
-0.881668
 11
-163.907
 21
-1.02681
  0
LINE
  8
0
 10
-163.907
 20
-1.02681
 11
-164.044
 21
-1.15576
  0
LINE
  8
0
 10
-164.044
 20
-1.15576
 11
-164.196
 21
-1.26648
  0
LINE
  8
0
 10
-164.196
 20
-1.26648
 11
-164.361
 21
-1.35724
  0
LINE
  8
0
 10
-164.361
 20
-1.35724
 11
-164.536
 21
-1.42657
  0
LINE
  8
0
 10
-164.536
 20
-1.42657
 11
-164.719
 21
-1.47342
  0
LINE
  8
0
 10
-164.719
 20
-1.47342
 11
-164.906
 21
-1.49704
  0
LINE
  8
0
 10
-164.906
 20
-1.49704
 11
-165.094
 21
-1.49704
  0
LINE
  8
0
 10
164.906
 20
-1.49704
 11
164.719
 21
-1.47342
  0
LINE
  8
0
 10
164.719
 20
-1.47342
 11
164.536
 21
-1.42657
  0
LINE
  8
0
 10
164.536
 20
-1.42657
 11
164.361
 21
-1.35724
  0
LINE
  8
0
 10
164.361
 20
-1.35724
 11
164.196
 21
-1.26648
  0
LINE
  8
0
 10
164.196
 20
-1.26648
 11
164.044
 21
-1.15576
  0
LINE
  8
0
 10
164.044
 20
-1.15576
 11
163.907
 21
-1.02681
  0
LINE
  8
0
 10
163.907
 20
-1.02681
 11
163.786
 21
-0.881668
  0
LINE
  8
0
 10
163.786
 20
-0.881668
 11
163.686
 21
-0.722626
  0
LINE
  8
0
 10
163.686
 20
-0.722626
 11
163.605
 21
-0.552185
  0
LINE
  8
0
 10
163.605
 20
-0.552185
 11
163.547
 21
-0.373032
  0
LINE
  8
0
 10
163.547
 20
-0.373032
 11
163.512
 21
-0.187988
  0
LINE
  8
0
 10
163.512
 20
-0.187988
 11
163.5
 21
0
  0
LINE
  8
0
 10
163.5
 20
0
 11
163.512
 21
0.187988
  0
LINE
  8
0
 10
163.512
 20
0.187988
 11
163.547
 21
0.373032
  0
LINE
  8
0
 10
163.547
 20
0.373032
 11
163.605
 21
0.552185
  0
LINE
  8
0
 10
163.605
 20
0.552185
 11
163.686
 21
0.722626
  0
LINE
  8
0
 10
163.686
 20
0.722626
 11
163.786
 21
0.881668
  0
LINE
  8
0
 10
163.786
 20
0.881668
 11
163.907
 21
1.02681
  0
LINE
  8
0
 10
163.907
 20
1.02681
 11
164.044
 21
1.15576
  0
LINE
  8
0
 10
164.044
 20
1.15576
 11
164.196
 21
1.26648
  0
LINE
  8
0
 10
164.196
 20
1.26648
 11
164.361
 21
1.35724
  0
LINE
  8
0
 10
164.361
 20
1.35724
 11
164.536
 21
1.42657
  0
LINE
  8
0
 10
164.536
 20
1.42657
 11
164.719
 21
1.47342
  0
LINE
  8
0
 10
164.719
 20
1.47342
 11
164.906
 21
1.49704
  0
LINE
  8
0
 10
164.906
 20
1.49704
 11
165.094
 21
1.49704
  0
LINE
  8
0
 10
165.094
 20
1.49704
 11
165.281
 21
1.47342
  0
LINE
  8
0
 10
165.281
 20
1.47342
 11
165.464
 21
1.42657
  0
LINE
  8
0
 10
165.464
 20
1.42657
 11
165.639
 21
1.35724
  0
LINE
  8
0
 10
165.639
 20
1.35724
 11
165.804
 21
1.26648
  0
LINE
  8
0
 10
165.804
 20
1.26648
 11
165.956
 21
1.15576
  0
LINE
  8
0
 10
165.956
 20
1.15576
 11
166.093
 21
1.02681
  0
LINE
  8
0
 10
166.093
 20
1.02681
 11
166.214
 21
0.881668
  0
LINE
  8
0
 10
166.214
 20
0.881668
 11
166.314
 21
0.722626
  0
LINE
  8
0
 10
166.314
 20
0.722626
 11
166.395
 21
0.552185
  0
LINE
  8
0
 10
166.395
 20
0.552185
 11
166.453
 21
0.373032
  0
LINE
  8
0
 10
166.453
 20
0.373032
 11
166.488
 21
0.187988
  0
LINE
  8
0
 10
166.488
 20
0.187988
 11
166.5
 21
0
  0
LINE
  8
0
 10
166.5
 20
0
 11
166.488
 21
-0.187988
  0
LINE
  8
0
 10
166.488
 20
-0.187988
 11
166.453
 21
-0.373032
  0
LINE
  8
0
 10
166.453
 20
-0.373032
 11
166.395
 21
-0.552185
  0
LINE
  8
0
 10
166.395
 20
-0.552185
 11
166.314
 21
-0.722626
  0
LINE
  8
0
 10
166.314
 20
-0.722626
 11
166.214
 21
-0.881668
  0
LINE
  8
0
 10
166.214
 20
-0.881668
 11
166.093
 21
-1.02681
  0
LINE
  8
0
 10
166.093
 20
-1.02681
 11
165.956
 21
-1.15576
  0
LINE
  8
0
 10
165.956
 20
-1.15576
 11
165.804
 21
-1.26648
  0
LINE
  8
0
 10
165.804
 20
-1.26648
 11
165.639
 21
-1.35724
  0
LINE
  8
0
 10
165.639
 20
-1.35724
 11
165.464
 21
-1.42657
  0
LINE
  8
0
 10
165.464
 20
-1.42657
 11
165.281
 21
-1.47342
  0
LINE
  8
0
 10
165.281
 20
-1.47342
 11
165.094
 21
-1.49704
  0
LINE
  8
0
 10
165.094
 20
-1.49704
 11
164.906
 21
-1.49704
  0
LINE
  8
0
 10
-165.188
 20
-10.4941
 11
-165.562
 21
-10.4469
  0
LINE
  8
0
 10
-165.562
 20
-10.4469
 11
-165.927
 21
-10.3532
  0
LINE
  8
0
 10
-165.927
 20
-10.3532
 11
-166.277
 21
-10.2145
  0
LINE
  8
0
 10
-166.277
 20
-10.2145
 11
-166.607
 21
-10.033
  0
LINE
  8
0
 10
-166.607
 20
-10.033
 11
-166.912
 21
-9.81154
  0
LINE
  8
0
 10
-166.912
 20
-9.81154
 11
-167.187
 21
-9.55363
  0
LINE
  8
0
 10
-167.187
 20
-9.55363
 11
-167.427
 21
-9.26335
  0
LINE
  8
0
 10
-167.427
 20
-9.26335
 11
-167.629
 21
-8.94525
  0
LINE
  8
0
 10
-167.629
 20
-8.94525
 11
-167.789
 21
-8.60437
  0
LINE
  8
0
 10
-167.789
 20
-8.60437
 11
-167.906
 21
-8.24606
  0
LINE
  8
0
 10
-167.906
 20
-8.24606
 11
-167.976
 21
-7.87599
  0
LINE
  8
0
 10
-167.976
 20
-7.87599
 11
-168
 21
-7.5
  0
LINE
  8
0
 10
-168
 20
-7.5
 11
-167.976
 21
-7.12399
  0
LINE
  8
0
 10
-167.976
 20
-7.12399
 11
-167.906
 21
-6.75392
  0
LINE
  8
0
 10
-167.906
 20
-6.75392
 11
-167.789
 21
-6.39561
  0
LINE
  8
0
 10
-167.789
 20
-6.39561
 11
-167.629
 21
-6.05473
  0
LINE
  8
0
 10
-167.629
 20
-6.05473
 11
-167.427
 21
-5.73663
  0
LINE
  8
0
 10
-167.427
 20
-5.73663
 11
-167.187
 21
-5.44635
  0
LINE
  8
0
 10
-167.187
 20
-5.44635
 11
-166.912
 21
-5.18845
  0
LINE
  8
0
 10
-166.912
 20
-5.18845
 11
-166.607
 21
-4.96701
  0
LINE
  8
0
 10
-166.607
 20
-4.96701
 11
-166.277
 21
-4.78551
  0
LINE
  8
0
 10
-166.277
 20
-4.78551
 11
-165.927
 21
-4.64682
  0
LINE
  8
0
 10
-165.927
 20
-4.64682
 11
-165.562
 21
-4.55313
  0
LINE
  8
0
 10
-165.562
 20
-4.55313
 11
-165.188
 21
-4.50591
  0
LINE
  8
0
 10
-165.188
 20
-4.50591
 11
-164.812
 21
-4.50591
  0
LINE
  8
0
 10
-164.812
 20
-4.50591
 11
-164.438
 21
-4.55313
  0
LINE
  8
0
 10
-164.438
 20
-4.55313
 11
-164.073
 21
-4.64682
  0
LINE
  8
0
 10
-164.073
 20
-4.64682
 11
-163.723
 21
-4.78551
  0
LINE
  8
0
 10
-163.723
 20
-4.78551
 11
-163.393
 21
-4.96701
  0
LINE
  8
0
 10
-163.393
 20
-4.96701
 11
-163.088
 21
-5.18845
  0
LINE
  8
0
 10
-163.088
 20
-5.18845
 11
-162.813
 21
-5.44635
  0
LINE
  8
0
 10
-162.813
 20
-5.44635
 11
-162.573
 21
-5.73663
  0
LINE
  8
0
 10
-162.573
 20
-5.73663
 11
-162.371
 21
-6.05473
  0
LINE
  8
0
 10
-162.371
 20
-6.05473
 11
-162.211
 21
-6.39561
  0
LINE
  8
0
 10
-162.211
 20
-6.39561
 11
-162.094
 21
-6.75392
  0
LINE
  8
0
 10
-162.094
 20
-6.75392
 11
-162.024
 21
-7.12399
  0
LINE
  8
0
 10
-162.024
 20
-7.12399
 11
-162
 21
-7.5
  0
LINE
  8
0
 10
-162
 20
-7.5
 11
-162.024
 21
-7.87599
  0
LINE
  8
0
 10
-162.024
 20
-7.87599
 11
-162.094
 21
-8.24606
  0
LINE
  8
0
 10
-162.094
 20
-8.24606
 11
-162.211
 21
-8.60437
  0
LINE
  8
0
 10
-162.211
 20
-8.60437
 11
-162.371
 21
-8.94525
  0
LINE
  8
0
 10
-162.371
 20
-8.94525
 11
-162.573
 21
-9.26335
  0
LINE
  8
0
 10
-162.573
 20
-9.26335
 11
-162.813
 21
-9.55363
  0
LINE
  8
0
 10
-162.813
 20
-9.55363
 11
-163.088
 21
-9.81154
  0
LINE
  8
0
 10
-163.088
 20
-9.81154
 11
-163.393
 21
-10.033
  0
LINE
  8
0
 10
-163.393
 20
-10.033
 11
-163.723
 21
-10.2145
  0
LINE
  8
0
 10
-163.723
 20
-10.2145
 11
-164.073
 21
-10.3532
  0
LINE
  8
0
 10
-164.073
 20
-10.3532
 11
-164.438
 21
-10.4469
  0
LINE
  8
0
 10
-164.438
 20
-10.4469
 11
-164.812
 21
-10.4941
  0
LINE
  8
0
 10
-164.812
 20
-10.4941
 11
-165.188
 21
-10.4941
  0
LINE
  8
0
 10
164.812
 20
-10.4941
 11
164.438
 21
-10.4469
  0
LINE
  8
0
 10
164.438
 20
-10.4469
 11
164.073
 21
-10.3532
  0
LINE
  8
0
 10
164.073
 20
-10.3532
 11
163.723
 21
-10.2145
  0
LINE
  8
0
 10
163.723
 20
-10.2145
 11
163.393
 21
-10.033
  0
LINE
  8
0
 10
163.393
 20
-10.033
 11
163.088
 21
-9.81154
  0
LINE
  8
0
 10
163.088
 20
-9.81154
 11
162.813
 21
-9.55363
  0
LINE
  8
0
 10
162.813
 20
-9.55363
 11
162.573
 21
-9.26335
  0
LINE
  8
0
 10
162.573
 20
-9.26335
 11
162.371
 21
-8.94525
  0
LINE
  8
0
 10
162.371
 20
-8.94525
 11
162.211
 21
-8.60437
  0
LINE
  8
0
 10
162.211
 20
-8.60437
 11
162.094
 21
-8.24606
  0
LINE
  8
0
 10
162.094
 20
-8.24606
 11
162.024
 21
-7.87599
  0
LINE
  8
0
 10
162.024
 20
-7.87599
 11
162
 21
-7.5
  0
LINE
  8
0
 10
162
 20
-7.5
 11
162.024
 21
-7.12399
  0
LINE
  8
0
 10
162.024
 20
-7.12399
 11
162.094
 21
-6.75392
  0
LINE
  8
0
 10
162.094
 20
-6.75392
 11
162.211
 21
-6.39561
  0
LINE
  8
0
 10
162.211
 20
-6.39561
 11
162.371
 21
-6.05473
  0
LINE
  8
0
 10
162.371
 20
-6.05473
 11
162.573
 21
-5.73663
  0
LINE
  8
0
 10
162.573
 20
-5.73663
 11
162.813
 21
-5.44635
  0
LINE
  8
0
 10
162.813
 20
-5.44635
 11
163.088
 21
-5.18845
  0
LINE
  8
0
 10
163.088
 20
-5.18845
 11
163.393
 21
-4.96701
  0
LINE
  8
0
 10
163.393
 20
-4.96701
 11
163.723
 21
-4.78551
  0
LINE
  8
0
 10
163.723
 20
-4.78551
 11
164.073
 21
-4.64682
  0
LINE
  8
0
 10
164.073
 20
-4.64682
 11
164.438
 21
-4.55313
  0
LINE
  8
0
 10
164.438
 20
-4.55313
 11
164.812
 21
-4.50591
  0
LINE
  8
0
 10
164.812
 20
-4.50591
 11
165.188
 21
-4.50591
  0
LINE
  8
0
 10
165.188
 20
-4.50591
 11
165.562
 21
-4.55313
  0
LINE
  8
0
 10
165.562
 20
-4.55313
 11
165.927
 21
-4.64682
  0
LINE
  8
0
 10
165.927
 20
-4.64682
 11
166.277
 21
-4.78551
  0
LINE
  8
0
 10
166.277
 20
-4.78551
 11
166.607
 21
-4.96701
  0
LINE
  8
0
 10
166.607
 20
-4.96701
 11
166.912
 21
-5.18845
  0
LINE
  8
0
 10
166.912
 20
-5.18845
 11
167.187
 21
-5.44635
  0
LINE
  8
0
 10
167.187
 20
-5.44635
 11
167.427
 21
-5.73663
  0
LINE
  8
0
 10
167.427
 20
-5.73663
 11
167.629
 21
-6.05473
  0
LINE
  8
0
 10
167.629
 20
-6.05473
 11
167.789
 21
-6.39561
  0
LINE
  8
0
 10
167.789
 20
-6.39561
 11
167.906
 21
-6.75392
  0
LINE
  8
0
 10
167.906
 20
-6.75392
 11
167.976
 21
-7.12399
  0
LINE
  8
0
 10
167.976
 20
-7.12399
 11
168
 21
-7.5
  0
LINE
  8
0
 10
168
 20
-7.5
 11
167.976
 21
-7.87599
  0
LINE
  8
0
 10
167.976
 20
-7.87599
 11
167.906
 21
-8.24606
  0
LINE
  8
0
 10
167.906
 20
-8.24606
 11
167.789
 21
-8.60437
  0
LINE
  8
0
 10
167.789
 20
-8.60437
 11
167.629
 21
-8.94525
  0
LINE
  8
0
 10
167.629
 20
-8.94525
 11
167.427
 21
-9.26335
  0
LINE
  8
0
 10
167.427
 20
-9.26335
 11
167.187
 21
-9.55363
  0
LINE
  8
0
 10
167.187
 20
-9.55363
 11
166.912
 21
-9.81154
  0
LINE
  8
0
 10
166.912
 20
-9.81154
 11
166.607
 21
-10.033
  0
LINE
  8
0
 10
166.607
 20
-10.033
 11
166.277
 21
-10.2145
  0
LINE
  8
0
 10
166.277
 20
-10.2145
 11
165.927
 21
-10.3532
  0
LINE
  8
0
 10
165.927
 20
-10.3532
 11
165.562
 21
-10.4469
  0
LINE
  8
0
 10
165.562
 20
-10.4469
 11
165.188
 21
-10.4941
  0
LINE
  8
0
 10
165.188
 20
-10.4941
 11
164.812
 21
-10.4941
  0
LINE
  8
0
 10
-165.094
 20
-16.497
 11
-165.281
 21
-16.4734
  0
LINE
  8
0
 10
-165.281
 20
-16.4734
 11
-165.464
 21
-16.4266
  0
LINE
  8
0
 10
-165.464
 20
-16.4266
 11
-165.639
 21
-16.3572
  0
LINE
  8
0
 10
-165.639
 20
-16.3572
 11
-165.804
 21
-16.2665
  0
LINE
  8
0
 10
-165.804
 20
-16.2665
 11
-165.956
 21
-16.1558
  0
LINE
  8
0
 10
-165.956
 20
-16.1558
 11
-166.093
 21
-16.0268
  0
LINE
  8
0
 10
-166.093
 20
-16.0268
 11
-166.214
 21
-15.8817
  0
LINE
  8
0
 10
-166.214
 20
-15.8817
 11
-166.314
 21
-15.7226
  0
LINE
  8
0
 10
-166.314
 20
-15.7226
 11
-166.395
 21
-15.5522
  0
LINE
  8
0
 10
-166.395
 20
-15.5522
 11
-166.453
 21
-15.373
  0
LINE
  8
0
 10
-166.453
 20
-15.373
 11
-166.488
 21
-15.188
  0
LINE
  8
0
 10
-166.488
 20
-15.188
 11
-166.5
 21
-15
  0
LINE
  8
0
 10
-166.5
 20
-15
 11
-166.488
 21
-14.812
  0
LINE
  8
0
 10
-166.488
 20
-14.812
 11
-166.453
 21
-14.627
  0
LINE
  8
0
 10
-166.453
 20
-14.627
 11
-166.395
 21
-14.4478
  0
LINE
  8
0
 10
-166.395
 20
-14.4478
 11
-166.314
 21
-14.2774
  0
LINE
  8
0
 10
-166.314
 20
-14.2774
 11
-166.214
 21
-14.1183
  0
LINE
  8
0
 10
-166.214
 20
-14.1183
 11
-166.093
 21
-13.9732
  0
LINE
  8
0
 10
-166.093
 20
-13.9732
 11
-165.956
 21
-13.8442
  0
LINE
  8
0
 10
-165.956
 20
-13.8442
 11
-165.804
 21
-13.7335
  0
LINE
  8
0
 10
-165.804
 20
-13.7335
 11
-165.639
 21
-13.6427
  0
LINE
  8
0
 10
-165.639
 20
-13.6427
 11
-165.464
 21
-13.5734
  0
LINE
  8
0
 10
-165.464
 20
-13.5734
 11
-165.281
 21
-13.5266
  0
LINE
  8
0
 10
-165.281
 20
-13.5266
 11
-165.094
 21
-13.5029
  0
LINE
  8
0
 10
-165.094
 20
-13.5029
 11
-164.906
 21
-13.5029
  0
LINE
  8
0
 10
-164.906
 20
-13.5029
 11
-164.719
 21
-13.5266
  0
LINE
  8
0
 10
-164.719
 20
-13.5266
 11
-164.536
 21
-13.5734
  0
LINE
  8
0
 10
-164.536
 20
-13.5734
 11
-164.361
 21
-13.6427
  0
LINE
  8
0
 10
-164.361
 20
-13.6427
 11
-164.196
 21
-13.7335
  0
LINE
  8
0
 10
-164.196
 20
-13.7335
 11
-164.044
 21
-13.8442
  0
LINE
  8
0
 10
-164.044
 20
-13.8442
 11
-163.907
 21
-13.9732
  0
LINE
  8
0
 10
-163.907
 20
-13.9732
 11
-163.786
 21
-14.1183
  0
LINE
  8
0
 10
-163.786
 20
-14.1183
 11
-163.686
 21
-14.2774
  0
LINE
  8
0
 10
-163.686
 20
-14.2774
 11
-163.605
 21
-14.4478
  0
LINE
  8
0
 10
-163.605
 20
-14.4478
 11
-163.547
 21
-14.627
  0
LINE
  8
0
 10
-163.547
 20
-14.627
 11
-163.512
 21
-14.812
  0
LINE
  8
0
 10
-163.512
 20
-14.812
 11
-163.5
 21
-15
  0
LINE
  8
0
 10
-163.5
 20
-15
 11
-163.512
 21
-15.188
  0
LINE
  8
0
 10
-163.512
 20
-15.188
 11
-163.547
 21
-15.373
  0
LINE
  8
0
 10
-163.547
 20
-15.373
 11
-163.605
 21
-15.5522
  0
LINE
  8
0
 10
-163.605
 20
-15.5522
 11
-163.686
 21
-15.7226
  0
LINE
  8
0
 10
-163.686
 20
-15.7226
 11
-163.786
 21
-15.8817
  0
LINE
  8
0
 10
-163.786
 20
-15.8817
 11
-163.907
 21
-16.0268
  0
LINE
  8
0
 10
-163.907
 20
-16.0268
 11
-164.044
 21
-16.1558
  0
LINE
  8
0
 10
-164.044
 20
-16.1558
 11
-164.196
 21
-16.2665
  0
LINE
  8
0
 10
-164.196
 20
-16.2665
 11
-164.361
 21
-16.3572
  0
LINE
  8
0
 10
-164.361
 20
-16.3572
 11
-164.536
 21
-16.4266
  0
LINE
  8
0
 10
-164.536
 20
-16.4266
 11
-164.719
 21
-16.4734
  0
LINE
  8
0
 10
-164.719
 20
-16.4734
 11
-164.906
 21
-16.497
  0
LINE
  8
0
 10
-164.906
 20
-16.497
 11
-165.094
 21
-16.497
  0
LINE
  8
0
 10
164.906
 20
-16.497
 11
164.719
 21
-16.4734
  0
LINE
  8
0
 10
164.719
 20
-16.4734
 11
164.536
 21
-16.4266
  0
LINE
  8
0
 10
164.536
 20
-16.4266
 11
164.361
 21
-16.3572
  0
LINE
  8
0
 10
164.361
 20
-16.3572
 11
164.196
 21
-16.2665
  0
LINE
  8
0
 10
164.196
 20
-16.2665
 11
164.044
 21
-16.1558
  0
LINE
  8
0
 10
164.044
 20
-16.1558
 11
163.907
 21
-16.0268
  0
LINE
  8
0
 10
163.907
 20
-16.0268
 11
163.786
 21
-15.8817
  0
LINE
  8
0
 10
163.786
 20
-15.8817
 11
163.686
 21
-15.7226
  0
LINE
  8
0
 10
163.686
 20
-15.7226
 11
163.605
 21
-15.5522
  0
LINE
  8
0
 10
163.605
 20
-15.5522
 11
163.547
 21
-15.373
  0
LINE
  8
0
 10
163.547
 20
-15.373
 11
163.512
 21
-15.188
  0
LINE
  8
0
 10
163.512
 20
-15.188
 11
163.5
 21
-15
  0
LINE
  8
0
 10
163.5
 20
-15
 11
163.512
 21
-14.812
  0
LINE
  8
0
 10
163.512
 20
-14.812
 11
163.547
 21
-14.627
  0
LINE
  8
0
 10
163.547
 20
-14.627
 11
163.605
 21
-14.4478
  0
LINE
  8
0
 10
163.605
 20
-14.4478
 11
163.686
 21
-14.2774
  0
LINE
  8
0
 10
163.686
 20
-14.2774
 11
163.786
 21
-14.1183
  0
LINE
  8
0
 10
163.786
 20
-14.1183
 11
163.907
 21
-13.9732
  0
LINE
  8
0
 10
163.907
 20
-13.9732
 11
164.044
 21
-13.8442
  0
LINE
  8
0
 10
164.044
 20
-13.8442
 11
164.196
 21
-13.7335
  0
LINE
  8
0
 10
164.196
 20
-13.7335
 11
164.361
 21
-13.6427
  0
LINE
  8
0
 10
164.361
 20
-13.6427
 11
164.536
 21
-13.5734
  0
LINE
  8
0
 10
164.536
 20
-13.5734
 11
164.719
 21
-13.5266
  0
LINE
  8
0
 10
164.719
 20
-13.5266
 11
164.906
 21
-13.5029
  0
LINE
  8
0
 10
164.906
 20
-13.5029
 11
165.094
 21
-13.5029
  0
LINE
  8
0
 10
165.094
 20
-13.5029
 11
165.281
 21
-13.5266
  0
LINE
  8
0
 10
165.281
 20
-13.5266
 11
165.464
 21
-13.5734
  0
LINE
  8
0
 10
165.464
 20
-13.5734
 11
165.639
 21
-13.6427
  0
LINE
  8
0
 10
165.639
 20
-13.6427
 11
165.804
 21
-13.7335
  0
LINE
  8
0
 10
165.804
 20
-13.7335
 11
165.956
 21
-13.8442
  0
LINE
  8
0
 10
165.956
 20
-13.8442
 11
166.093
 21
-13.9732
  0
LINE
  8
0
 10
166.093
 20
-13.9732
 11
166.214
 21
-14.1183
  0
LINE
  8
0
 10
166.214
 20
-14.1183
 11
166.314
 21
-14.2774
  0
LINE
  8
0
 10
166.314
 20
-14.2774
 11
166.395
 21
-14.4478
  0
LINE
  8
0
 10
166.395
 20
-14.4478
 11
166.453
 21
-14.627
  0
LINE
  8
0
 10
166.453
 20
-14.627
 11
166.488
 21
-14.812
  0
LINE
  8
0
 10
166.488
 20
-14.812
 11
166.5
 21
-15
  0
LINE
  8
0
 10
166.5
 20
-15
 11
166.488
 21
-15.188
  0
LINE
  8
0
 10
166.488
 20
-15.188
 11
166.453
 21
-15.373
  0
LINE
  8
0
 10
166.453
 20
-15.373
 11
166.395
 21
-15.5522
  0
LINE
  8
0
 10
166.395
 20
-15.5522
 11
166.314
 21
-15.7226
  0
LINE
  8
0
 10
166.314
 20
-15.7226
 11
166.214
 21
-15.8817
  0
LINE
  8
0
 10
166.214
 20
-15.8817
 11
166.093
 21
-16.0268
  0
LINE
  8
0
 10
166.093
 20
-16.0268
 11
165.956
 21
-16.1558
  0
LINE
  8
0
 10
165.956
 20
-16.1558
 11
165.804
 21
-16.2665
  0
LINE
  8
0
 10
165.804
 20
-16.2665
 11
165.639
 21
-16.3572
  0
LINE
  8
0
 10
165.639
 20
-16.3572
 11
165.464
 21
-16.4266
  0
LINE
  8
0
 10
165.464
 20
-16.4266
 11
165.281
 21
-16.4734
  0
LINE
  8
0
 10
165.281
 20
-16.4734
 11
165.094
 21
-16.497
  0
LINE
  8
0
 10
165.094
 20
-16.497
 11
164.906
 21
-16.497
  0
LINE
  8
0
 10
-165.188
 20
-25.4941
 11
-165.562
 21
-25.4469
  0
LINE
  8
0
 10
-165.562
 20
-25.4469
 11
-165.927
 21
-25.3532
  0
LINE
  8
0
 10
-165.927
 20
-25.3532
 11
-166.277
 21
-25.2145
  0
LINE
  8
0
 10
-166.277
 20
-25.2145
 11
-166.607
 21
-25.033
  0
LINE
  8
0
 10
-166.607
 20
-25.033
 11
-166.912
 21
-24.8115
  0
LINE
  8
0
 10
-166.912
 20
-24.8115
 11
-167.187
 21
-24.5536
  0
LINE
  8
0
 10
-167.187
 20
-24.5536
 11
-167.427
 21
-24.2634
  0
LINE
  8
0
 10
-167.427
 20
-24.2634
 11
-167.629
 21
-23.9453
  0
LINE
  8
0
 10
-167.629
 20
-23.9453
 11
-167.789
 21
-23.6044
  0
LINE
  8
0
 10
-167.789
 20
-23.6044
 11
-167.906
 21
-23.2461
  0
LINE
  8
0
 10
-167.906
 20
-23.2461
 11
-167.976
 21
-22.876
  0
LINE
  8
0
 10
-167.976
 20
-22.876
 11
-168
 21
-22.5
  0
LINE
  8
0
 10
-168
 20
-22.5
 11
-167.976
 21
-22.124
  0
LINE
  8
0
 10
-167.976
 20
-22.124
 11
-167.906
 21
-21.7539
  0
LINE
  8
0
 10
-167.906
 20
-21.7539
 11
-167.789
 21
-21.3956
  0
LINE
  8
0
 10
-167.789
 20
-21.3956
 11
-167.629
 21
-21.0547
  0
LINE
  8
0
 10
-167.629
 20
-21.0547
 11
-167.427
 21
-20.7366
  0
LINE
  8
0
 10
-167.427
 20
-20.7366
 11
-167.187
 21
-20.4464
  0
LINE
  8
0
 10
-167.187
 20
-20.4464
 11
-166.912
 21
-20.1884
  0
LINE
  8
0
 10
-166.912
 20
-20.1884
 11
-166.607
 21
-19.967
  0
LINE
  8
0
 10
-166.607
 20
-19.967
 11
-166.277
 21
-19.7855
  0
LINE
  8
0
 10
-166.277
 20
-19.7855
 11
-165.927
 21
-19.6468
  0
LINE
  8
0
 10
-165.927
 20
-19.6468
 11
-165.562
 21
-19.5531
  0
LINE
  8
0
 10
-165.562
 20
-19.5531
 11
-165.188
 21
-19.5059
  0
LINE
  8
0
 10
-165.188
 20
-19.5059
 11
-164.812
 21
-19.5059
  0
LINE
  8
0
 10
-164.812
 20
-19.5059
 11
-164.438
 21
-19.5531
  0
LINE
  8
0
 10
-164.438
 20
-19.5531
 11
-164.073
 21
-19.6468
  0
LINE
  8
0
 10
-164.073
 20
-19.6468
 11
-163.723
 21
-19.7855
  0
LINE
  8
0
 10
-163.723
 20
-19.7855
 11
-163.393
 21
-19.967
  0
LINE
  8
0
 10
-163.393
 20
-19.967
 11
-163.088
 21
-20.1884
  0
LINE
  8
0
 10
-163.088
 20
-20.1884
 11
-162.813
 21
-20.4464
  0
LINE
  8
0
 10
-162.813
 20
-20.4464
 11
-162.573
 21
-20.7366
  0
LINE
  8
0
 10
-162.573
 20
-20.7366
 11
-162.371
 21
-21.0547
  0
LINE
  8
0
 10
-162.371
 20
-21.0547
 11
-162.211
 21
-21.3956
  0
LINE
  8
0
 10
-162.211
 20
-21.3956
 11
-162.094
 21
-21.7539
  0
LINE
  8
0
 10
-162.094
 20
-21.7539
 11
-162.024
 21
-22.124
  0
LINE
  8
0
 10
-162.024
 20
-22.124
 11
-162
 21
-22.5
  0
LINE
  8
0
 10
-162
 20
-22.5
 11
-162.024
 21
-22.876
  0
LINE
  8
0
 10
-162.024
 20
-22.876
 11
-162.094
 21
-23.2461
  0
LINE
  8
0
 10
-162.094
 20
-23.2461
 11
-162.211
 21
-23.6044
  0
LINE
  8
0
 10
-162.211
 20
-23.6044
 11
-162.371
 21
-23.9453
  0
LINE
  8
0
 10
-162.371
 20
-23.9453
 11
-162.573
 21
-24.2634
  0
LINE
  8
0
 10
-162.573
 20
-24.2634
 11
-162.813
 21
-24.5536
  0
LINE
  8
0
 10
-162.813
 20
-24.5536
 11
-163.088
 21
-24.8115
  0
LINE
  8
0
 10
-163.088
 20
-24.8115
 11
-163.393
 21
-25.033
  0
LINE
  8
0
 10
-163.393
 20
-25.033
 11
-163.723
 21
-25.2145
  0
LINE
  8
0
 10
-163.723
 20
-25.2145
 11
-164.073
 21
-25.3532
  0
LINE
  8
0
 10
-164.073
 20
-25.3532
 11
-164.438
 21
-25.4469
  0
LINE
  8
0
 10
-164.438
 20
-25.4469
 11
-164.812
 21
-25.4941
  0
LINE
  8
0
 10
-164.812
 20
-25.4941
 11
-165.188
 21
-25.4941
  0
LINE
  8
0
 10
164.812
 20
-25.4941
 11
164.438
 21
-25.4469
  0
LINE
  8
0
 10
164.438
 20
-25.4469
 11
164.073
 21
-25.3532
  0
LINE
  8
0
 10
164.073
 20
-25.3532
 11
163.723
 21
-25.2145
  0
LINE
  8
0
 10
163.723
 20
-25.2145
 11
163.393
 21
-25.033
  0
LINE
  8
0
 10
163.393
 20
-25.033
 11
163.088
 21
-24.8115
  0
LINE
  8
0
 10
163.088
 20
-24.8115
 11
162.813
 21
-24.5536
  0
LINE
  8
0
 10
162.813
 20
-24.5536
 11
162.573
 21
-24.2634
  0
LINE
  8
0
 10
162.573
 20
-24.2634
 11
162.371
 21
-23.9453
  0
LINE
  8
0
 10
162.371
 20
-23.9453
 11
162.211
 21
-23.6044
  0
LINE
  8
0
 10
162.211
 20
-23.6044
 11
162.094
 21
-23.2461
  0
LINE
  8
0
 10
162.094
 20
-23.2461
 11
162.024
 21
-22.876
  0
LINE
  8
0
 10
162.024
 20
-22.876
 11
162
 21
-22.5
  0
LINE
  8
0
 10
162
 20
-22.5
 11
162.024
 21
-22.124
  0
LINE
  8
0
 10
162.024
 20
-22.124
 11
162.094
 21
-21.7539
  0
LINE
  8
0
 10
162.094
 20
-21.7539
 11
162.211
 21
-21.3956
  0
LINE
  8
0
 10
162.211
 20
-21.3956
 11
162.371
 21
-21.0547
  0
LINE
  8
0
 10
162.371
 20
-21.0547
 11
162.573
 21
-20.7366
  0
LINE
  8
0
 10
162.573
 20
-20.7366
 11
162.813
 21
-20.4464
  0
LINE
  8
0
 10
162.813
 20
-20.4464
 11
163.088
 21
-20.1884
  0
LINE
  8
0
 10
163.088
 20
-20.1884
 11
163.393
 21
-19.967
  0
LINE
  8
0
 10
163.393
 20
-19.967
 11
163.723
 21
-19.7855
  0
LINE
  8
0
 10
163.723
 20
-19.7855
 11
164.073
 21
-19.6468
  0
LINE
  8
0
 10
164.073
 20
-19.6468
 11
164.438
 21
-19.5531
  0
LINE
  8
0
 10
164.438
 20
-19.5531
 11
164.812
 21
-19.5059
  0
LINE
  8
0
 10
164.812
 20
-19.5059
 11
165.188
 21
-19.5059
  0
LINE
  8
0
 10
165.188
 20
-19.5059
 11
165.562
 21
-19.5531
  0
LINE
  8
0
 10
165.562
 20
-19.5531
 11
165.927
 21
-19.6468
  0
LINE
  8
0
 10
165.927
 20
-19.6468
 11
166.277
 21
-19.7855
  0
LINE
  8
0
 10
166.277
 20
-19.7855
 11
166.607
 21
-19.967
  0
LINE
  8
0
 10
166.607
 20
-19.967
 11
166.912
 21
-20.1884
  0
LINE
  8
0
 10
166.912
 20
-20.1884
 11
167.187
 21
-20.4464
  0
LINE
  8
0
 10
167.187
 20
-20.4464
 11
167.427
 21
-20.7366
  0
LINE
  8
0
 10
167.427
 20
-20.7366
 11
167.629
 21
-21.0547
  0
LINE
  8
0
 10
167.629
 20
-21.0547
 11
167.789
 21
-21.3956
  0
LINE
  8
0
 10
167.789
 20
-21.3956
 11
167.906
 21
-21.7539
  0
LINE
  8
0
 10
167.906
 20
-21.7539
 11
167.976
 21
-22.124
  0
LINE
  8
0
 10
167.976
 20
-22.124
 11
168
 21
-22.5
  0
LINE
  8
0
 10
168
 20
-22.5
 11
167.976
 21
-22.876
  0
LINE
  8
0
 10
167.976
 20
-22.876
 11
167.906
 21
-23.2461
  0
LINE
  8
0
 10
167.906
 20
-23.2461
 11
167.789
 21
-23.6044
  0
LINE
  8
0
 10
167.789
 20
-23.6044
 11
167.629
 21
-23.9453
  0
LINE
  8
0
 10
167.629
 20
-23.9453
 11
167.427
 21
-24.2634
  0
LINE
  8
0
 10
167.427
 20
-24.2634
 11
167.187
 21
-24.5536
  0
LINE
  8
0
 10
167.187
 20
-24.5536
 11
166.912
 21
-24.8115
  0
LINE
  8
0
 10
166.912
 20
-24.8115
 11
166.607
 21
-25.033
  0
LINE
  8
0
 10
166.607
 20
-25.033
 11
166.277
 21
-25.2145
  0
LINE
  8
0
 10
166.277
 20
-25.2145
 11
165.927
 21
-25.3532
  0
LINE
  8
0
 10
165.927
 20
-25.3532
 11
165.562
 21
-25.4469
  0
LINE
  8
0
 10
165.562
 20
-25.4469
 11
165.188
 21
-25.4941
  0
LINE
  8
0
 10
165.188
 20
-25.4941
 11
164.812
 21
-25.4941
  0
LINE
  8
0
 10
164.906
 20
-31.497
 11
164.719
 21
-31.4734
  0
LINE
  8
0
 10
164.719
 20
-31.4734
 11
164.536
 21
-31.4266
  0
LINE
  8
0
 10
164.536
 20
-31.4266
 11
164.361
 21
-31.3572
  0
LINE
  8
0
 10
164.361
 20
-31.3572
 11
164.196
 21
-31.2665
  0
LINE
  8
0
 10
164.196
 20
-31.2665
 11
164.044
 21
-31.1558
  0
LINE
  8
0
 10
164.044
 20
-31.1558
 11
163.907
 21
-31.0268
  0
LINE
  8
0
 10
163.907
 20
-31.0268
 11
163.786
 21
-30.8817
  0
LINE
  8
0
 10
163.786
 20
-30.8817
 11
163.686
 21
-30.7226
  0
LINE
  8
0
 10
163.686
 20
-30.7226
 11
163.605
 21
-30.5522
  0
LINE
  8
0
 10
163.605
 20
-30.5522
 11
163.547
 21
-30.373
  0
LINE
  8
0
 10
163.547
 20
-30.373
 11
163.512
 21
-30.188
  0
LINE
  8
0
 10
163.512
 20
-30.188
 11
163.5
 21
-30
  0
LINE
  8
0
 10
163.5
 20
-30
 11
163.512
 21
-29.812
  0
LINE
  8
0
 10
163.512
 20
-29.812
 11
163.547
 21
-29.627
  0
LINE
  8
0
 10
163.547
 20
-29.627
 11
163.605
 21
-29.4478
  0
LINE
  8
0
 10
163.605
 20
-29.4478
 11
163.686
 21
-29.2774
  0
LINE
  8
0
 10
163.686
 20
-29.2774
 11
163.786
 21
-29.1183
  0
LINE
  8
0
 10
163.786
 20
-29.1183
 11
163.907
 21
-28.9732
  0
LINE
  8
0
 10
163.907
 20
-28.9732
 11
164.044
 21
-28.8442
  0
LINE
  8
0
 10
164.044
 20
-28.8442
 11
164.196
 21
-28.7335
  0
LINE
  8
0
 10
164.196
 20
-28.7335
 11
164.361
 21
-28.6427
  0
LINE
  8
0
 10
164.361
 20
-28.6427
 11
164.536
 21
-28.5734
  0
LINE
  8
0
 10
164.536
 20
-28.5734
 11
164.719
 21
-28.5266
  0
LINE
  8
0
 10
164.719
 20
-28.5266
 11
164.906
 21
-28.503
  0
LINE
  8
0
 10
164.906
 20
-28.503
 11
165.094
 21
-28.503
  0
LINE
  8
0
 10
165.094
 20
-28.503
 11
165.281
 21
-28.5266
  0
LINE
  8
0
 10
165.281
 20
-28.5266
 11
165.464
 21
-28.5734
  0
LINE
  8
0
 10
165.464
 20
-28.5734
 11
165.639
 21
-28.6427
  0
LINE
  8
0
 10
165.639
 20
-28.6427
 11
165.804
 21
-28.7335
  0
LINE
  8
0
 10
165.804
 20
-28.7335
 11
165.956
 21
-28.8442
  0
LINE
  8
0
 10
165.956
 20
-28.8442
 11
166.093
 21
-28.9732
  0
LINE
  8
0
 10
166.093
 20
-28.9732
 11
166.214
 21
-29.1183
  0
LINE
  8
0
 10
166.214
 20
-29.1183
 11
166.314
 21
-29.2774
  0
LINE
  8
0
 10
166.314
 20
-29.2774
 11
166.395
 21
-29.4478
  0
LINE
  8
0
 10
166.395
 20
-29.4478
 11
166.453
 21
-29.627
  0
LINE
  8
0
 10
166.453
 20
-29.627
 11
166.488
 21
-29.812
  0
LINE
  8
0
 10
166.488
 20
-29.812
 11
166.5
 21
-30
  0
LINE
  8
0
 10
166.5
 20
-30
 11
166.488
 21
-30.188
  0
LINE
  8
0
 10
166.488
 20
-30.188
 11
166.453
 21
-30.373
  0
LINE
  8
0
 10
166.453
 20
-30.373
 11
166.395
 21
-30.5522
  0
LINE
  8
0
 10
166.395
 20
-30.5522
 11
166.314
 21
-30.7226
  0
LINE
  8
0
 10
166.314
 20
-30.7226
 11
166.214
 21
-30.8817
  0
LINE
  8
0
 10
166.214
 20
-30.8817
 11
166.093
 21
-31.0268
  0
LINE
  8
0
 10
166.093
 20
-31.0268
 11
165.956
 21
-31.1558
  0
LINE
  8
0
 10
165.956
 20
-31.1558
 11
165.804
 21
-31.2665
  0
LINE
  8
0
 10
165.804
 20
-31.2665
 11
165.639
 21
-31.3572
  0
LINE
  8
0
 10
165.639
 20
-31.3572
 11
165.464
 21
-31.4266
  0
LINE
  8
0
 10
165.464
 20
-31.4266
 11
165.281
 21
-31.4734
  0
LINE
  8
0
 10
165.281
 20
-31.4734
 11
165.094
 21
-31.497
  0
LINE
  8
0
 10
165.094
 20
-31.497
 11
164.906
 21
-31.497
  0
LINE
  8
0
 10
-165.094
 20
-31.497
 11
-165.281
 21
-31.4734
  0
LINE
  8
0
 10
-165.281
 20
-31.4734
 11
-165.464
 21
-31.4266
  0
LINE
  8
0
 10
-165.464
 20
-31.4266
 11
-165.639
 21
-31.3572
  0
LINE
  8
0
 10
-165.639
 20
-31.3572
 11
-165.804
 21
-31.2665
  0
LINE
  8
0
 10
-165.804
 20
-31.2665
 11
-165.956
 21
-31.1558
  0
LINE
  8
0
 10
-165.956
 20
-31.1558
 11
-166.093
 21
-31.0268
  0
LINE
  8
0
 10
-166.093
 20
-31.0268
 11
-166.214
 21
-30.8817
  0
LINE
  8
0
 10
-166.214
 20
-30.8817
 11
-166.314
 21
-30.7226
  0
LINE
  8
0
 10
-166.314
 20
-30.7226
 11
-166.395
 21
-30.5522
  0
LINE
  8
0
 10
-166.395
 20
-30.5522
 11
-166.453
 21
-30.373
  0
LINE
  8
0
 10
-166.453
 20
-30.373
 11
-166.488
 21
-30.188
  0
LINE
  8
0
 10
-166.488
 20
-30.188
 11
-166.5
 21
-30
  0
LINE
  8
0
 10
-166.5
 20
-30
 11
-166.488
 21
-29.812
  0
LINE
  8
0
 10
-166.488
 20
-29.812
 11
-166.453
 21
-29.627
  0
LINE
  8
0
 10
-166.453
 20
-29.627
 11
-166.395
 21
-29.4478
  0
LINE
  8
0
 10
-166.395
 20
-29.4478
 11
-166.314
 21
-29.2774
  0
LINE
  8
0
 10
-166.314
 20
-29.2774
 11
-166.214
 21
-29.1183
  0
LINE
  8
0
 10
-166.214
 20
-29.1183
 11
-166.093
 21
-28.9732
  0
LINE
  8
0
 10
-166.093
 20
-28.9732
 11
-165.956
 21
-28.8442
  0
LINE
  8
0
 10
-165.956
 20
-28.8442
 11
-165.804
 21
-28.7335
  0
LINE
  8
0
 10
-165.804
 20
-28.7335
 11
-165.639
 21
-28.6427
  0
LINE
  8
0
 10
-165.639
 20
-28.6427
 11
-165.464
 21
-28.5734
  0
LINE
  8
0
 10
-165.464
 20
-28.5734
 11
-165.281
 21
-28.5266
  0
LINE
  8
0
 10
-165.281
 20
-28.5266
 11
-165.094
 21
-28.503
  0
LINE
  8
0
 10
-165.094
 20
-28.503
 11
-164.906
 21
-28.503
  0
LINE
  8
0
 10
-164.906
 20
-28.503
 11
-164.719
 21
-28.5266
  0
LINE
  8
0
 10
-164.719
 20
-28.5266
 11
-164.536
 21
-28.5734
  0
LINE
  8
0
 10
-164.536
 20
-28.5734
 11
-164.361
 21
-28.6427
  0
LINE
  8
0
 10
-164.361
 20
-28.6427
 11
-164.196
 21
-28.7335
  0
LINE
  8
0
 10
-164.196
 20
-28.7335
 11
-164.044
 21
-28.8442
  0
LINE
  8
0
 10
-164.044
 20
-28.8442
 11
-163.907
 21
-28.9732
  0
LINE
  8
0
 10
-163.907
 20
-28.9732
 11
-163.786
 21
-29.1183
  0
LINE
  8
0
 10
-163.786
 20
-29.1183
 11
-163.686
 21
-29.2774
  0
LINE
  8
0
 10
-163.686
 20
-29.2774
 11
-163.605
 21
-29.4478
  0
LINE
  8
0
 10
-163.605
 20
-29.4478
 11
-163.547
 21
-29.627
  0
LINE
  8
0
 10
-163.547
 20
-29.627
 11
-163.512
 21
-29.812
  0
LINE
  8
0
 10
-163.512
 20
-29.812
 11
-163.5
 21
-30
  0
LINE
  8
0
 10
-163.5
 20
-30
 11
-163.512
 21
-30.188
  0
LINE
  8
0
 10
-163.512
 20
-30.188
 11
-163.547
 21
-30.373
  0
LINE
  8
0
 10
-163.547
 20
-30.373
 11
-163.605
 21
-30.5522
  0
LINE
  8
0
 10
-163.605
 20
-30.5522
 11
-163.686
 21
-30.7226
  0
LINE
  8
0
 10
-163.686
 20
-30.7226
 11
-163.786
 21
-30.8817
  0
LINE
  8
0
 10
-163.786
 20
-30.8817
 11
-163.907
 21
-31.0268
  0
LINE
  8
0
 10
-163.907
 20
-31.0268
 11
-164.044
 21
-31.1558
  0
LINE
  8
0
 10
-164.044
 20
-31.1558
 11
-164.196
 21
-31.2665
  0
LINE
  8
0
 10
-164.196
 20
-31.2665
 11
-164.361
 21
-31.3572
  0
LINE
  8
0
 10
-164.361
 20
-31.3572
 11
-164.536
 21
-31.4266
  0
LINE
  8
0
 10
-164.536
 20
-31.4266
 11
-164.719
 21
-31.4734
  0
LINE
  8
0
 10
-164.719
 20
-31.4734
 11
-164.906
 21
-31.497
  0
LINE
  8
0
 10
-164.906
 20
-31.497
 11
-165.094
 21
-31.497
  0
LINE
  8
0
 10
-165.188
 20
-40.4941
 11
-165.562
 21
-40.4469
  0
LINE
  8
0
 10
-165.562
 20
-40.4469
 11
-165.927
 21
-40.3532
  0
LINE
  8
0
 10
-165.927
 20
-40.3532
 11
-166.277
 21
-40.2145
  0
LINE
  8
0
 10
-166.277
 20
-40.2145
 11
-166.607
 21
-40.033
  0
LINE
  8
0
 10
-166.607
 20
-40.033
 11
-166.912
 21
-39.8115
  0
LINE
  8
0
 10
-166.912
 20
-39.8115
 11
-167.187
 21
-39.5536
  0
LINE
  8
0
 10
-167.187
 20
-39.5536
 11
-167.427
 21
-39.2634
  0
LINE
  8
0
 10
-167.427
 20
-39.2634
 11
-167.629
 21
-38.9453
  0
LINE
  8
0
 10
-167.629
 20
-38.9453
 11
-167.789
 21
-38.6044
  0
LINE
  8
0
 10
-167.789
 20
-38.6044
 11
-167.906
 21
-38.2461
  0
LINE
  8
0
 10
-167.906
 20
-38.2461
 11
-167.976
 21
-37.876
  0
LINE
  8
0
 10
-167.976
 20
-37.876
 11
-168
 21
-37.5
  0
LINE
  8
0
 10
-168
 20
-37.5
 11
-167.976
 21
-37.124
  0
LINE
  8
0
 10
-167.976
 20
-37.124
 11
-167.906
 21
-36.7539
  0
LINE
  8
0
 10
-167.906
 20
-36.7539
 11
-167.789
 21
-36.3956
  0
LINE
  8
0
 10
-167.789
 20
-36.3956
 11
-167.629
 21
-36.0547
  0
LINE
  8
0
 10
-167.629
 20
-36.0547
 11
-167.427
 21
-35.7366
  0
LINE
  8
0
 10
-167.427
 20
-35.7366
 11
-167.187
 21
-35.4464
  0
LINE
  8
0
 10
-167.187
 20
-35.4464
 11
-166.912
 21
-35.1885
  0
LINE
  8
0
 10
-166.912
 20
-35.1885
 11
-166.607
 21
-34.967
  0
LINE
  8
0
 10
-166.607
 20
-34.967
 11
-166.277
 21
-34.7855
  0
LINE
  8
0
 10
-166.277
 20
-34.7855
 11
-165.927
 21
-34.6468
  0
LINE
  8
0
 10
-165.927
 20
-34.6468
 11
-165.562
 21
-34.5531
  0
LINE
  8
0
 10
-165.562
 20
-34.5531
 11
-165.188
 21
-34.5059
  0
LINE
  8
0
 10
-165.188
 20
-34.5059
 11
-164.812
 21
-34.5059
  0
LINE
  8
0
 10
-164.812
 20
-34.5059
 11
-164.438
 21
-34.5531
  0
LINE
  8
0
 10
-164.438
 20
-34.5531
 11
-164.073
 21
-34.6468
  0
LINE
  8
0
 10
-164.073
 20
-34.6468
 11
-163.723
 21
-34.7855
  0
LINE
  8
0
 10
-163.723
 20
-34.7855
 11
-163.393
 21
-34.967
  0
LINE
  8
0
 10
-163.393
 20
-34.967
 11
-163.088
 21
-35.1885
  0
LINE
  8
0
 10
-163.088
 20
-35.1885
 11
-162.813
 21
-35.4464
  0
LINE
  8
0
 10
-162.813
 20
-35.4464
 11
-162.573
 21
-35.7366
  0
LINE
  8
0
 10
-162.573
 20
-35.7366
 11
-162.371
 21
-36.0547
  0
LINE
  8
0
 10
-162.371
 20
-36.0547
 11
-162.211
 21
-36.3956
  0
LINE
  8
0
 10
-162.211
 20
-36.3956
 11
-162.094
 21
-36.7539
  0
LINE
  8
0
 10
-162.094
 20
-36.7539
 11
-162.024
 21
-37.124
  0
LINE
  8
0
 10
-162.024
 20
-37.124
 11
-162
 21
-37.5
  0
LINE
  8
0
 10
-162
 20
-37.5
 11
-162.024
 21
-37.876
  0
LINE
  8
0
 10
-162.024
 20
-37.876
 11
-162.094
 21
-38.2461
  0
LINE
  8
0
 10
-162.094
 20
-38.2461
 11
-162.211
 21
-38.6044
  0
LINE
  8
0
 10
-162.211
 20
-38.6044
 11
-162.371
 21
-38.9453
  0
LINE
  8
0
 10
-162.371
 20
-38.9453
 11
-162.573
 21
-39.2634
  0
LINE
  8
0
 10
-162.573
 20
-39.2634
 11
-162.813
 21
-39.5536
  0
LINE
  8
0
 10
-162.813
 20
-39.5536
 11
-163.088
 21
-39.8115
  0
LINE
  8
0
 10
-163.088
 20
-39.8115
 11
-163.393
 21
-40.033
  0
LINE
  8
0
 10
-163.393
 20
-40.033
 11
-163.723
 21
-40.2145
  0
LINE
  8
0
 10
-163.723
 20
-40.2145
 11
-164.073
 21
-40.3532
  0
LINE
  8
0
 10
-164.073
 20
-40.3532
 11
-164.438
 21
-40.4469
  0
LINE
  8
0
 10
-164.438
 20
-40.4469
 11
-164.812
 21
-40.4941
  0
LINE
  8
0
 10
-164.812
 20
-40.4941
 11
-165.188
 21
-40.4941
  0
LINE
  8
0
 10
164.812
 20
-40.4941
 11
164.438
 21
-40.4469
  0
LINE
  8
0
 10
164.438
 20
-40.4469
 11
164.073
 21
-40.3532
  0
LINE
  8
0
 10
164.073
 20
-40.3532
 11
163.723
 21
-40.2145
  0
LINE
  8
0
 10
163.723
 20
-40.2145
 11
163.393
 21
-40.033
  0
LINE
  8
0
 10
163.393
 20
-40.033
 11
163.088
 21
-39.8115
  0
LINE
  8
0
 10
163.088
 20
-39.8115
 11
162.813
 21
-39.5536
  0
LINE
  8
0
 10
162.813
 20
-39.5536
 11
162.573
 21
-39.2634
  0
LINE
  8
0
 10
162.573
 20
-39.2634
 11
162.371
 21
-38.9453
  0
LINE
  8
0
 10
162.371
 20
-38.9453
 11
162.211
 21
-38.6044
  0
LINE
  8
0
 10
162.211
 20
-38.6044
 11
162.094
 21
-38.2461
  0
LINE
  8
0
 10
162.094
 20
-38.2461
 11
162.024
 21
-37.876
  0
LINE
  8
0
 10
162.024
 20
-37.876
 11
162
 21
-37.5
  0
LINE
  8
0
 10
162
 20
-37.5
 11
162.024
 21
-37.124
  0
LINE
  8
0
 10
162.024
 20
-37.124
 11
162.094
 21
-36.7539
  0
LINE
  8
0
 10
162.094
 20
-36.7539
 11
162.211
 21
-36.3956
  0
LINE
  8
0
 10
162.211
 20
-36.3956
 11
162.371
 21
-36.0547
  0
LINE
  8
0
 10
162.371
 20
-36.0547
 11
162.573
 21
-35.7366
  0
LINE
  8
0
 10
162.573
 20
-35.7366
 11
162.813
 21
-35.4464
  0
LINE
  8
0
 10
162.813
 20
-35.4464
 11
163.088
 21
-35.1885
  0
LINE
  8
0
 10
163.088
 20
-35.1885
 11
163.393
 21
-34.967
  0
LINE
  8
0
 10
163.393
 20
-34.967
 11
163.723
 21
-34.7855
  0
LINE
  8
0
 10
163.723
 20
-34.7855
 11
164.073
 21
-34.6468
  0
LINE
  8
0
 10
164.073
 20
-34.6468
 11
164.438
 21
-34.5531
  0
LINE
  8
0
 10
164.438
 20
-34.5531
 11
164.812
 21
-34.5059
  0
LINE
  8
0
 10
164.812
 20
-34.5059
 11
165.188
 21
-34.5059
  0
LINE
  8
0
 10
165.188
 20
-34.5059
 11
165.562
 21
-34.5531
  0
LINE
  8
0
 10
165.562
 20
-34.5531
 11
165.927
 21
-34.6468
  0
LINE
  8
0
 10
165.927
 20
-34.6468
 11
166.277
 21
-34.7855
  0
LINE
  8
0
 10
166.277
 20
-34.7855
 11
166.607
 21
-34.967
  0
LINE
  8
0
 10
166.607
 20
-34.967
 11
166.912
 21
-35.1885
  0
LINE
  8
0
 10
166.912
 20
-35.1885
 11
167.187
 21
-35.4464
  0
LINE
  8
0
 10
167.187
 20
-35.4464
 11
167.427
 21
-35.7366
  0
LINE
  8
0
 10
167.427
 20
-35.7366
 11
167.629
 21
-36.0547
  0
LINE
  8
0
 10
167.629
 20
-36.0547
 11
167.789
 21
-36.3956
  0
LINE
  8
0
 10
167.789
 20
-36.3956
 11
167.906
 21
-36.7539
  0
LINE
  8
0
 10
167.906
 20
-36.7539
 11
167.976
 21
-37.124
  0
LINE
  8
0
 10
167.976
 20
-37.124
 11
168
 21
-37.5
  0
LINE
  8
0
 10
168
 20
-37.5
 11
167.976
 21
-37.876
  0
LINE
  8
0
 10
167.976
 20
-37.876
 11
167.906
 21
-38.2461
  0
LINE
  8
0
 10
167.906
 20
-38.2461
 11
167.789
 21
-38.6044
  0
LINE
  8
0
 10
167.789
 20
-38.6044
 11
167.629
 21
-38.9453
  0
LINE
  8
0
 10
167.629
 20
-38.9453
 11
167.427
 21
-39.2634
  0
LINE
  8
0
 10
167.427
 20
-39.2634
 11
167.187
 21
-39.5536
  0
LINE
  8
0
 10
167.187
 20
-39.5536
 11
166.912
 21
-39.8115
  0
LINE
  8
0
 10
166.912
 20
-39.8115
 11
166.607
 21
-40.033
  0
LINE
  8
0
 10
166.607
 20
-40.033
 11
166.277
 21
-40.2145
  0
LINE
  8
0
 10
166.277
 20
-40.2145
 11
165.927
 21
-40.3532
  0
LINE
  8
0
 10
165.927
 20
-40.3532
 11
165.562
 21
-40.4469
  0
LINE
  8
0
 10
165.562
 20
-40.4469
 11
165.188
 21
-40.4941
  0
LINE
  8
0
 10
165.188
 20
-40.4941
 11
164.812
 21
-40.4941
  0
ENDSEC
  0
SECTION
  2
OBJECTS
  0
DICTIONARY
  0
ENDSEC
  0
EOF
