<?xml version="1.0" standalone="no"?>
<!DOCTYPE svg PUBLIC "-//W3C//DTD SVG 1.1//EN" "http://www.w3.org/Graphics/SVG/1.1/DTD/svg11.dtd">
<svg width="150mm" height="134mm" viewBox="-75 -67 150 134" xmlns="http://www.w3.org/2000/svg" version="1.1">
<title>OpenSCAD Model</title>
<path d="
M 70.4369,66.9114 L 71.0451,66.7553 L 71.6289,66.5241 L 72.1791,66.2216 L 72.6871,65.8526 L 73.1448,65.4227
 L 73.5451,64.9389 L 73.8815,64.4088 L 74.1489,63.8406 L 74.3429,63.2434 L 74.4606,62.6267 L 74.5,62
 L 74.5,-62 L 74.4606,-62.6267 L 74.3429,-63.2434 L 74.1489,-63.8406 L 73.8815,-64.4088 L 73.5451,-64.9389
 L 73.1448,-65.4227 L 72.6871,-65.8526 L 72.1791,-66.2216 L 71.6289,-66.5241 L 71.0451,-66.7553 L 70.4369,-66.9114
 L 69.8139,-66.9901 L -69.8139,-66.9901 L -70.4369,-66.9114 L -71.0451,-66.7553 L -71.6289,-66.5241 L -72.1791,-66.2216
 L -72.6871,-65.8526 L -73.1448,-65.4227 L -73.5451,-64.9389 L -73.8815,-64.4088 L -74.1489,-63.8406 L -74.3429,-63.2434
 L -74.4606,-62.6267 L -74.5,-62 L -74.5,62 L -74.4606,62.6267 L -74.3429,63.2434 L -74.1489,63.8406
 L -73.8815,64.4088 L -73.5451,64.9389 L -73.1448,65.4227 L -72.6871,65.8526 L -72.1791,66.2216 L -71.6289,66.5241
 L -71.0451,66.7553 L -70.4369,66.9114 L -69.8139,66.9901 L 69.8139,66.9901 z
M -67.6884,-57.0059 L -68.0621,-57.0531 L -68.427,-57.1468 L -68.7773,-57.2855 L -69.1075,-57.467 L -69.4123,-57.6885
 L -69.6869,-57.9464 L -69.927,-58.2366 L -70.1289,-58.5547 L -70.2893,-58.8956 L -70.4057,-59.2539 L -70.4763,-59.624
 L -70.5,-60 L -70.4763,-60.376 L -70.4057,-60.7461 L -70.2893,-61.1044 L -70.1289,-61.4453 L -69.927,-61.7634
 L -69.6869,-62.0536 L -69.4123,-62.3115 L -69.1075,-62.533 L -68.7773,-62.7145 L -68.427,-62.8532 L -68.0621,-62.9469
 L -67.6884,-62.9941 L -67.3116,-62.9941 L -66.9379,-62.9469 L -66.573,-62.8532 L -66.2227,-62.7145 L -65.8925,-62.533
 L -65.5877,-62.3115 L -65.3131,-62.0536 L -65.073,-61.7634 L -64.8711,-61.4453 L -64.7107,-61.1044 L -64.5943,-60.7461
 L -64.5237,-60.376 L -64.5,-60 L -64.5237,-59.624 L -64.5943,-59.2539 L -64.7107,-58.8956 L -64.8711,-58.5547
 L -65.073,-58.2366 L -65.3131,-57.9464 L -65.5877,-57.6885 L -65.8925,-57.467 L -66.2227,-57.2855 L -66.573,-57.1468
 L -66.9379,-57.0531 L -67.3116,-57.0059 z
M 67.3116,-57.0059 L 66.9379,-57.0531 L 66.573,-57.1468 L 66.2227,-57.2855 L 65.8925,-57.467 L 65.5877,-57.6885
 L 65.3131,-57.9464 L 65.073,-58.2366 L 64.8711,-58.5547 L 64.7107,-58.8956 L 64.5943,-59.2539 L 64.5237,-59.624
 L 64.5,-60 L 64.5237,-60.376 L 64.5943,-60.7461 L 64.7107,-61.1044 L 64.8711,-61.4453 L 65.073,-61.7634
 L 65.3131,-62.0536 L 65.5877,-62.3115 L 65.8925,-62.533 L 66.2227,-62.7145 L 66.573,-62.8532 L 66.9379,-62.9469
 L 67.3116,-62.9941 L 67.6884,-62.9941 L 68.0621,-62.9469 L 68.427,-62.8532 L 68.7773,-62.7145 L 69.1075,-62.533
 L 69.4123,-62.3115 L 69.6869,-62.0536 L 69.927,-61.7634 L 70.1289,-61.4453 L 70.2893,-61.1044 L 70.4057,-60.7461
 L 70.4763,-60.376 L 70.5,-60 L 70.4763,-59.624 L 70.4057,-59.2539 L 70.2893,-58.8956 L 70.1289,-58.5547
 L 69.927,-58.2366 L 69.6869,-57.9464 L 69.4123,-57.6885 L 69.1075,-57.467 L 68.7773,-57.2855 L 68.427,-57.1468
 L 68.0621,-57.0531 L 67.6884,-57.0059 z
M -3.76743,59.8816 L -11.2429,58.9372 L -18.541,57.0634 L -25.5468,54.2896 L -32.1496,50.6597 L -38.2454,46.2308
 L -43.7381,41.0728 L -48.541,35.2671 L -52.5784,28.9052 L -55.7866,22.0875 L -58.115,14.9214 L -59.5269,7.51999
 L -60,-0 L -59.5269,-7.51999 L -58.115,-14.9214 L -55.7866,-22.0875 L -52.5784,-28.9052 L -48.541,-35.2671
 L -43.7381,-41.0728 L -38.2454,-46.2308 L -32.1496,-50.6597 L -25.5468,-54.2896 L -18.541,-57.0634 L -11.2429,-58.9372
 L -3.76743,-59.8816 L 3.76743,-59.8816 L 11.2429,-58.9372 L 18.541,-57.0634 L 25.5468,-54.2896 L 32.1496,-50.6597
 L 38.2454,-46.2308 L 43.7381,-41.0728 L 48.541,-35.2671 L 52.5784,-28.9052 L 55.7866,-22.0875 L 58.115,-14.9214
 L 59.5269,-7.51999 L 60,-0 L 59.5269,7.51999 L 58.115,14.9214 L 55.7866,22.0875 L 52.5784,28.9052
 L 48.541,35.2671 L 43.7381,41.0728 L 38.2454,46.2308 L 32.1496,50.6597 L 25.5468,54.2896 L 18.541,57.0634
 L 11.2429,58.9372 L 3.76743,59.8816 z
M -67.5942,-51.003 L -67.7811,-51.0266 L -67.9635,-51.0734 L -68.1387,-51.1428 L -68.3037,-51.2335 L -68.4561,-51.3442
 L -68.5934,-51.4732 L -68.7135,-51.6183 L -68.8145,-51.7774 L -68.8947,-51.9478 L -68.9529,-52.127 L -68.9882,-52.312
 L -69,-52.5 L -68.9882,-52.688 L -68.9529,-52.873 L -68.8947,-53.0522 L -68.8145,-53.2226 L -68.7135,-53.3817
 L -68.5934,-53.5268 L -68.4561,-53.6558 L -68.3037,-53.7665 L -68.1387,-53.8572 L -67.9635,-53.9266 L -67.7811,-53.9734
 L -67.5942,-53.997 L -67.4058,-53.997 L -67.2189,-53.9734 L -67.0365,-53.9266 L -66.8613,-53.8572 L -66.6963,-53.7665
 L -66.5439,-53.6558 L -66.4065,-53.5268 L -66.2865,-53.3817 L -66.1855,-53.2226 L -66.1053,-53.0522 L -66.0471,-52.873
 L -66.0118,-52.688 L -66,-52.5 L -66.0118,-52.312 L -66.0471,-52.127 L -66.1053,-51.9478 L -66.1855,-51.7774
 L -66.2865,-51.6183 L -66.4065,-51.4732 L -66.5439,-51.3442 L -66.6963,-51.2335 L -66.8613,-51.1428 L -67.0365,-51.0734
 L -67.2189,-51.0266 L -67.4058,-51.003 z
M 67.4058,-51.003 L 67.2189,-51.0266 L 67.0365,-51.0734 L 66.8613,-51.1428 L 66.6963,-51.2335 L 66.5439,-51.3442
 L 66.4065,-51.4732 L 66.2865,-51.6183 L 66.1855,-51.7774 L 66.1053,-51.9478 L 66.0471,-52.127 L 66.0118,-52.312
 L 66,-52.5 L 66.0118,-52.688 L 66.0471,-52.873 L 66.1053,-53.0522 L 66.1855,-53.2226 L 66.2865,-53.3817
 L 66.4065,-53.5268 L 66.5439,-53.6558 L 66.6963,-53.7665 L 66.8613,-53.8572 L 67.0365,-53.9266 L 67.2189,-53.9734
 L 67.4058,-53.997 L 67.5942,-53.997 L 67.7811,-53.9734 L 67.9635,-53.9266 L 68.1387,-53.8572 L 68.3037,-53.7665
 L 68.4561,-53.6558 L 68.5934,-53.5268 L 68.7135,-53.3817 L 68.8145,-53.2226 L 68.8947,-53.0522 L 68.9529,-52.873
 L 68.9882,-52.688 L 69,-52.5 L 68.9882,-52.312 L 68.9529,-52.127 L 68.8947,-51.9478 L 68.8145,-51.7774
 L 68.7135,-51.6183 L 68.5934,-51.4732 L 68.4561,-51.3442 L 68.3037,-51.2335 L 68.1387,-51.1428 L 67.9635,-51.0734
 L 67.7811,-51.0266 L 67.5942,-51.003 z
M -67.6884,-42.0059 L -68.0621,-42.0531 L -68.427,-42.1468 L -68.7773,-42.2855 L -69.1075,-42.467 L -69.4123,-42.6885
 L -69.6869,-42.9464 L -69.927,-43.2366 L -70.1289,-43.5547 L -70.2893,-43.8956 L -70.4057,-44.2539 L -70.4763,-44.624
 L -70.5,-45 L -70.4763,-45.376 L -70.4057,-45.7461 L -70.2893,-46.1044 L -70.1289,-46.4453 L -69.927,-46.7634
 L -69.6869,-47.0536 L -69.4123,-47.3115 L -69.1075,-47.533 L -68.7773,-47.7145 L -68.427,-47.8532 L -68.0621,-47.9469
 L -67.6884,-47.9941 L -67.3116,-47.9941 L -66.9379,-47.9469 L -66.573,-47.8532 L -66.2227,-47.7145 L -65.8925,-47.533
 L -65.5877,-47.3115 L -65.3131,-47.0536 L -65.073,-46.7634 L -64.8711,-46.4453 L -64.7107,-46.1044 L -64.5943,-45.7461
 L -64.5237,-45.376 L -64.5,-45 L -64.5237,-44.624 L -64.5943,-44.2539 L -64.7107,-43.8956 L -64.8711,-43.5547
 L -65.073,-43.2366 L -65.3131,-42.9464 L -65.5877,-42.6885 L -65.8925,-42.467 L -66.2227,-42.2855 L -66.573,-42.1468
 L -66.9379,-42.0531 L -67.3116,-42.0059 z
M 67.3116,-42.0059 L 66.9379,-42.0531 L 66.573,-42.1468 L 66.2227,-42.2855 L 65.8925,-42.467 L 65.5877,-42.6885
 L 65.3131,-42.9464 L 65.073,-43.2366 L 64.8711,-43.5547 L 64.7107,-43.8956 L 64.5943,-44.2539 L 64.5237,-44.624
 L 64.5,-45 L 64.5237,-45.376 L 64.5943,-45.7461 L 64.7107,-46.1044 L 64.8711,-46.4453 L 65.073,-46.7634
 L 65.3131,-47.0536 L 65.5877,-47.3115 L 65.8925,-47.533 L 66.2227,-47.7145 L 66.573,-47.8532 L 66.9379,-47.9469
 L 67.3116,-47.9941 L 67.6884,-47.9941 L 68.0621,-47.9469 L 68.427,-47.8532 L 68.7773,-47.7145 L 69.1075,-47.533
 L 69.4123,-47.3115 L 69.6869,-47.0536 L 69.927,-46.7634 L 70.1289,-46.4453 L 70.2893,-46.1044 L 70.4057,-45.7461
 L 70.4763,-45.376 L 70.5,-45 L 70.4763,-44.624 L 70.4057,-44.2539 L 70.2893,-43.8956 L 70.1289,-43.5547
 L 69.927,-43.2366 L 69.6869,-42.9464 L 69.4123,-42.6885 L 69.1075,-42.467 L 68.7773,-42.2855 L 68.427,-42.1468
 L 68.0621,-42.0531 L 67.6884,-42.0059 z
M 67.4058,-36.003 L 67.2189,-36.0266 L 67.0365,-36.0734 L 66.8613,-36.1428 L 66.6963,-36.2335 L 66.5439,-36.3442
 L 66.4065,-36.4732 L 66.2865,-36.6183 L 66.1855,-36.7774 L 66.1053,-36.9478 L 66.0471,-37.127 L 66.0118,-37.312
 L 66,-37.5 L 66.0118,-37.688 L 66.0471,-37.873 L 66.1053,-38.0522 L 66.1855,-38.2226 L 66.2865,-38.3817
 L 66.4065,-38.5268 L 66.5439,-38.6558 L 66.6963,-38.7665 L 66.8613,-38.8572 L 67.0365,-38.9266 L 67.2189,-38.9734
 L 67.4058,-38.997 L 67.5942,-38.997 L 67.7811,-38.9734 L 67.9635,-38.9266 L 68.1387,-38.8572 L 68.3037,-38.7665
 L 68.4561,-38.6558 L 68.5934,-38.5268 L 68.7135,-38.3817 L 68.8145,-38.2226 L 68.8947,-38.0522 L 68.9529,-37.873
 L 68.9882,-37.688 L 69,-37.5 L 68.9882,-37.312 L 68.9529,-37.127 L 68.8947,-36.9478 L 68.8145,-36.7774
 L 68.7135,-36.6183 L 68.5934,-36.4732 L 68.4561,-36.3442 L 68.3037,-36.2335 L 68.1387,-36.1428 L 67.9635,-36.0734
 L 67.7811,-36.0266 L 67.5942,-36.003 z
M -67.5942,-36.003 L -67.7811,-36.0266 L -67.9635,-36.0734 L -68.1387,-36.1428 L -68.3037,-36.2335 L -68.4561,-36.3442
 L -68.5934,-36.4732 L -68.7135,-36.6183 L -68.8145,-36.7774 L -68.8947,-36.9478 L -68.9529,-37.127 L -68.9882,-37.312
 L -69,-37.5 L -68.9882,-37.688 L -68.9529,-37.873 L -68.8947,-38.0522 L -68.8145,-38.2226 L -68.7135,-38.3817
 L -68.5934,-38.5268 L -68.4561,-38.6558 L -68.3037,-38.7665 L -68.1387,-38.8572 L -67.9635,-38.9266 L -67.7811,-38.9734
 L -67.5942,-38.997 L -67.4058,-38.997 L -67.2189,-38.9734 L -67.0365,-38.9266 L -66.8613,-38.8572 L -66.6963,-38.7665
 L -66.5439,-38.6558 L -66.4065,-38.5268 L -66.2865,-38.3817 L -66.1855,-38.2226 L -66.1053,-38.0522 L -66.0471,-37.873
 L -66.0118,-37.688 L -66,-37.5 L -66.0118,-37.312 L -66.0471,-37.127 L -66.1053,-36.9478 L -66.1855,-36.7774
 L -66.2865,-36.6183 L -66.4065,-36.4732 L -66.5439,-36.3442 L -66.6963,-36.2335 L -66.8613,-36.1428 L -67.0365,-36.0734
 L -67.2189,-36.0266 L -67.4058,-36.003 z
M -67.6884,-27.0059 L -68.0621,-27.0531 L -68.427,-27.1468 L -68.7773,-27.2855 L -69.1075,-27.467 L -69.4123,-27.6884
 L -69.6869,-27.9464 L -69.927,-28.2366 L -70.1289,-28.5547 L -70.2893,-28.8956 L -70.4057,-29.2539 L -70.4763,-29.624
 L -70.5,-30 L -70.4763,-30.376 L -70.4057,-30.7461 L -70.2893,-31.1044 L -70.1289,-31.4453 L -69.927,-31.7634
 L -69.6869,-32.0536 L -69.4123,-32.3115 L -69.1075,-32.533 L -68.7773,-32.7145 L -68.427,-32.8532 L -68.0621,-32.9469
 L -67.6884,-32.9941 L -67.3116,-32.9941 L -66.9379,-32.9469 L -66.573,-32.8532 L -66.2227,-32.7145 L -65.8925,-32.533
 L -65.5877,-32.3115 L -65.3131,-32.0536 L -65.073,-31.7634 L -64.8711,-31.4453 L -64.7107,-31.1044 L -64.5943,-30.7461
 L -64.5237,-30.376 L -64.5,-30 L -64.5237,-29.624 L -64.5943,-29.2539 L -64.7107,-28.8956 L -64.8711,-28.5547
 L -65.073,-28.2366 L -65.3131,-27.9464 L -65.5877,-27.6884 L -65.8925,-27.467 L -66.2227,-27.2855 L -66.573,-27.1468
 L -66.9379,-27.0531 L -67.3116,-27.0059 z
M 67.3116,-27.0059 L 66.9379,-27.0531 L 66.573,-27.1468 L 66.2227,-27.2855 L 65.8925,-27.467 L 65.5877,-27.6884
 L 65.3131,-27.9464 L 65.073,-28.2366 L 64.8711,-28.5547 L 64.7107,-28.8956 L 64.5943,-29.2539 L 64.5237,-29.624
 L 64.5,-30 L 64.5237,-30.376 L 64.5943,-30.7461 L 64.7107,-31.1044 L 64.8711,-31.4453 L 65.073,-31.7634
 L 65.3131,-32.0536 L 65.5877,-32.3115 L 65.8925,-32.533 L 66.2227,-32.7145 L 66.573,-32.8532 L 66.9379,-32.9469
 L 67.3116,-32.9941 L 67.6884,-32.9941 L 68.0621,-32.9469 L 68.427,-32.8532 L 68.7773,-32.7145 L 69.1075,-32.533
 L 69.4123,-32.3115 L 69.6869,-32.0536 L 69.927,-31.7634 L 70.1289,-31.4453 L 70.2893,-31.1044 L 70.4057,-30.7461
 L 70.4763,-30.376 L 70.5,-30 L 70.4763,-29.624 L 70.4057,-29.2539 L 70.2893,-28.8956 L 70.1289,-28.5547
 L 69.927,-28.2366 L 69.6869,-27.9464 L 69.4123,-27.6884 L 69.1075,-27.467 L 68.7773,-27.2855 L 68.427,-27.1468
 L 68.0621,-27.0531 L 67.6884,-27.0059 z
M 67.4058,-21.003 L 67.2189,-21.0266 L 67.0365,-21.0734 L 66.8613,-21.1427 L 66.6963,-21.2335 L 66.5439,-21.3442
 L 66.4065,-21.4732 L 66.2865,-21.6183 L 66.1855,-21.7774 L 66.1053,-21.9478 L 66.0471,-22.127 L 66.0118,-22.312
 L 66,-22.5 L 66.0118,-22.688 L 66.0471,-22.873 L 66.1053,-23.0522 L 66.1855,-23.2226 L 66.2865,-23.3817
 L 66.4065,-23.5268 L 66.5439,-23.6558 L 66.6963,-23.7665 L 66.8613,-23.8572 L 67.0365,-23.9266 L 67.2189,-23.9734
 L 67.4058,-23.997 L 67.5942,-23.997 L 67.7811,-23.9734 L 67.9635,-23.9266 L 68.1387,-23.8572 L 68.3037,-23.7665
 L 68.4561,-23.6558 L 68.5934,-23.5268 L 68.7135,-23.3817 L 68.8145,-23.2226 L 68.8947,-23.0522 L 68.9529,-22.873
 L 68.9882,-22.688 L 69,-22.5 L 68.9882,-22.312 L 68.9529,-22.127 L 68.8947,-21.9478 L 68.8145,-21.7774
 L 68.7135,-21.6183 L 68.5934,-21.4732 L 68.4561,-21.3442 L 68.3037,-21.2335 L 68.1387,-21.1427 L 67.9635,-21.0734
 L 67.7811,-21.0266 L 67.5942,-21.003 z
M -67.5942,-21.003 L -67.7811,-21.0266 L -67.9635,-21.0734 L -68.1387,-21.1427 L -68.3037,-21.2335 L -68.4561,-21.3442
 L -68.5934,-21.4732 L -68.7135,-21.6183 L -68.8145,-21.7774 L -68.8947,-21.9478 L -68.9529,-22.127 L -68.9882,-22.312
 L -69,-22.5 L -68.9882,-22.688 L -68.9529,-22.873 L -68.8947,-23.0522 L -68.8145,-23.2226 L -68.7135,-23.3817
 L -68.5934,-23.5268 L -68.4561,-23.6558 L -68.3037,-23.7665 L -68.1387,-23.8572 L -67.9635,-23.9266 L -67.7811,-23.9734
 L -67.5942,-23.997 L -67.4058,-23.997 L -67.2189,-23.9734 L -67.0365,-23.9266 L -66.8613,-23.8572 L -66.6963,-23.7665
 L -66.5439,-23.6558 L -66.4065,-23.5268 L -66.2865,-23.3817 L -66.1855,-23.2226 L -66.1053,-23.0522 L -66.0471,-22.873
 L -66.0118,-22.688 L -66,-22.5 L -66.0118,-22.312 L -66.0471,-22.127 L -66.1053,-21.9478 L -66.1855,-21.7774
 L -66.2865,-21.6183 L -66.4065,-21.4732 L -66.5439,-21.3442 L -66.6963,-21.2335 L -66.8613,-21.1427 L -67.0365,-21.0734
 L -67.2189,-21.0266 L -67.4058,-21.003 z
M -67.6884,-12.0059 L -68.0621,-12.0531 L -68.427,-12.1468 L -68.7773,-12.2855 L -69.1075,-12.467 L -69.4123,-12.6884
 L -69.6869,-12.9464 L -69.927,-13.2366 L -70.1289,-13.5547 L -70.2893,-13.8956 L -70.4057,-14.2539 L -70.4763,-14.624
 L -70.5,-15 L -70.4763,-15.376 L -70.4057,-15.7461 L -70.2893,-16.1044 L -70.1289,-16.4453 L -69.927,-16.7634
 L -69.6869,-17.0536 L -69.4123,-17.3115 L -69.1075,-17.533 L -68.7773,-17.7145 L -68.427,-17.8532 L -68.0621,-17.9469
 L -67.6884,-17.9941 L -67.3116,-17.9941 L -66.9379,-17.9469 L -66.573,-17.8532 L -66.2227,-17.7145 L -65.8925,-17.533
 L -65.5877,-17.3115 L -65.3131,-17.0536 L -65.073,-16.7634 L -64.8711,-16.4453 L -64.7107,-16.1044 L -64.5943,-15.7461
 L -64.5237,-15.376 L -64.5,-15 L -64.5237,-14.624 L -64.5943,-14.2539 L -64.7107,-13.8956 L -64.8711,-13.5547
 L -65.073,-13.2366 L -65.3131,-12.9464 L -65.5877,-12.6884 L -65.8925,-12.467 L -66.2227,-12.2855 L -66.573,-12.1468
 L -66.9379,-12.0531 L -67.3116,-12.0059 z
M 67.3116,-12.0059 L 66.9379,-12.0531 L 66.573,-12.1468 L 66.2227,-12.2855 L 65.8925,-12.467 L 65.5877,-12.6884
 L 65.3131,-12.9464 L 65.073,-13.2366 L 64.8711,-13.5547 L 64.7107,-13.8956 L 64.5943,-14.2539 L 64.5237,-14.624
 L 64.5,-15 L 64.5237,-15.376 L 64.5943,-15.7461 L 64.7107,-16.1044 L 64.8711,-16.4453 L 65.073,-16.7634
 L 65.3131,-17.0536 L 65.5877,-17.3115 L 65.8925,-17.533 L 66.2227,-17.7145 L 66.573,-17.8532 L 66.9379,-17.9469
 L 67.3116,-17.9941 L 67.6884,-17.9941 L 68.0621,-17.9469 L 68.427,-17.8532 L 68.7773,-17.7145 L 69.1075,-17.533
 L 69.4123,-17.3115 L 69.6869,-17.0536 L 69.927,-16.7634 L 70.1289,-16.4453 L 70.2893,-16.1044 L 70.4057,-15.7461
 L 70.4763,-15.376 L 70.5,-15 L 70.4763,-14.624 L 70.4057,-14.2539 L 70.2893,-13.8956 L 70.1289,-13.5547
 L 69.927,-13.2366 L 69.6869,-12.9464 L 69.4123,-12.6884 L 69.1075,-12.467 L 68.7773,-12.2855 L 68.427,-12.1468
 L 68.0621,-12.0531 L 67.6884,-12.0059 z
M -67.5942,-6.00294 L -67.7811,-6.02657 L -67.9635,-6.07341 L -68.1387,-6.14275 L -68.3037,-6.23351 L -68.4561,-6.34422
 L -68.5934,-6.47318 L -68.7135,-6.61832 L -68.8145,-6.77736 L -68.8947,-6.9478 L -68.9529,-7.12695 L -68.9882,-7.312
 L -69,-7.5 L -68.9882,-7.68799 L -68.9529,-7.87303 L -68.8947,-8.05219 L -68.8145,-8.22263 L -68.7135,-8.38167
 L -68.5934,-8.52681 L -68.4561,-8.65576 L -68.3037,-8.76648 L -68.1387,-8.85724 L -67.9635,-8.92657 L -67.7811,-8.97342
 L -67.5942,-8.99704 L -67.4058,-8.99704 L -67.2189,-8.97342 L -67.0365,-8.92657 L -66.8613,-8.85724 L -66.6963,-8.76648
 L -66.5439,-8.65576 L -66.4065,-8.52681 L -66.2865,-8.38167 L -66.1855,-8.22263 L -66.1053,-8.05219 L -66.0471,-7.87303
 L -66.0118,-7.68799 L -66,-7.5 L -66.0118,-7.312 L -66.0471,-7.12695 L -66.1053,-6.9478 L -66.1855,-6.77736
 L -66.2865,-6.61832 L -66.4065,-6.47318 L -66.5439,-6.34422 L -66.6963,-6.23351 L -66.8613,-6.14275 L -67.0365,-6.07341
 L -67.2189,-6.02657 L -67.4058,-6.00294 z
M 67.4058,-6.00294 L 67.2189,-6.02657 L 67.0365,-6.07341 L 66.8613,-6.14275 L 66.6963,-6.23351 L 66.5439,-6.34422
 L 66.4065,-6.47318 L 66.2865,-6.61832 L 66.1855,-6.77736 L 66.1053,-6.9478 L 66.0471,-7.12695 L 66.0118,-7.312
 L 66,-7.5 L 66.0118,-7.68799 L 66.0471,-7.87303 L 66.1053,-8.05219 L 66.1855,-8.22263 L 66.2865,-8.38167
 L 66.4065,-8.52681 L 66.5439,-8.65576 L 66.6963,-8.76648 L 66.8613,-8.85724 L 67.0365,-8.92657 L 67.2189,-8.97342
 L 67.4058,-8.99704 L 67.5942,-8.99704 L 67.7811,-8.97342 L 67.9635,-8.92657 L 68.1387,-8.85724 L 68.3037,-8.76648
 L 68.4561,-8.65576 L 68.5934,-8.52681 L 68.7135,-8.38167 L 68.8145,-8.22263 L 68.8947,-8.05219 L 68.9529,-7.87303
 L 68.9882,-7.68799 L 69,-7.5 L 68.9882,-7.312 L 68.9529,-7.12695 L 68.8947,-6.9478 L 68.8145,-6.77736
 L 68.7135,-6.61832 L 68.5934,-6.47318 L 68.4561,-6.34422 L 68.3037,-6.23351 L 68.1387,-6.14275 L 67.9635,-6.07341
 L 67.7811,-6.02657 L 67.5942,-6.00294 z
M 67.3116,2.99408 L 66.9379,2.94685 L 66.573,2.85316 L 66.2227,2.71448 L 65.8925,2.53297 L 65.5877,2.31154
 L 65.3131,2.05363 L 65.073,1.76335 L 64.8711,1.44525 L 64.7107,1.10437 L 64.5943,0.746063 L 64.5237,0.375992
 L 64.5,-0 L 64.5237,-0.375992 L 64.5943,-0.746063 L 64.7107,-1.10437 L 64.8711,-1.44525 L 65.073,-1.76335
 L 65.3131,-2.05363 L 65.5877,-2.31154 L 65.8925,-2.53297 L 66.2227,-2.71448 L 66.573,-2.85316 L 66.9379,-2.94685
 L 67.3116,-2.99408 L 67.6884,-2.99408 L 68.0621,-2.94685 L 68.427,-2.85316 L 68.7773,-2.71448 L 69.1075,-2.53297
 L 69.4123,-2.31154 L 69.6869,-2.05363 L 69.927,-1.76335 L 70.1289,-1.44525 L 70.2893,-1.10437 L 70.4057,-0.746063
 L 70.4763,-0.375992 L 70.5,-0 L 70.4763,0.375992 L 70.4057,0.746063 L 70.2893,1.10437 L 70.1289,1.44525
 L 69.927,1.76335 L 69.6869,2.05363 L 69.4123,2.31154 L 69.1075,2.53297 L 68.7773,2.71448 L 68.427,2.85316
 L 68.0621,2.94685 L 67.6884,2.99408 z
M -67.6884,2.99408 L -68.0621,2.94685 L -68.427,2.85316 L -68.7773,2.71448 L -69.1075,2.53297 L -69.4123,2.31154
 L -69.6869,2.05363 L -69.927,1.76335 L -70.1289,1.44525 L -70.2893,1.10437 L -70.4057,0.746063 L -70.4763,0.375992
 L -70.5,-0 L -70.4763,-0.375992 L -70.4057,-0.746063 L -70.2893,-1.10437 L -70.1289,-1.44525 L -69.927,-1.76335
 L -69.6869,-2.05363 L -69.4123,-2.31154 L -69.1075,-2.53297 L -68.7773,-2.71448 L -68.427,-2.85316 L -68.0621,-2.94685
 L -67.6884,-2.99408 L -67.3116,-2.99408 L -66.9379,-2.94685 L -66.573,-2.85316 L -66.2227,-2.71448 L -65.8925,-2.53297
 L -65.5877,-2.31154 L -65.3131,-2.05363 L -65.073,-1.76335 L -64.8711,-1.44525 L -64.7107,-1.10437 L -64.5943,-0.746063
 L -64.5237,-0.375992 L -64.5,-0 L -64.5237,0.375992 L -64.5943,0.746063 L -64.7107,1.10437 L -64.8711,1.44525
 L -65.073,1.76335 L -65.3131,2.05363 L -65.5877,2.31154 L -65.8925,2.53297 L -66.2227,2.71448 L -66.573,2.85316
 L -66.9379,2.94685 L -67.3116,2.99408 z
M 67.4058,8.99704 L 67.2189,8.97342 L 67.0365,8.92657 L 66.8613,8.85724 L 66.6963,8.76648 L 66.5439,8.65576
 L 66.4065,8.52681 L 66.2865,8.38167 L 66.1855,8.22263 L 66.1053,8.05219 L 66.0471,7.87303 L 66.0118,7.68799
 L 66,7.5 L 66.0118,7.312 L 66.0471,7.12695 L 66.1053,6.9478 L 66.1855,6.77736 L 66.2865,6.61832
 L 66.4065,6.47318 L 66.5439,6.34422 L 66.6963,6.23351 L 66.8613,6.14275 L 67.0365,6.07341 L 67.2189,6.02657
 L 67.4058,6.00294 L 67.5942,6.00294 L 67.7811,6.02657 L 67.9635,6.07341 L 68.1387,6.14275 L 68.3037,6.23351
 L 68.4561,6.34422 L 68.5934,6.47318 L 68.7135,6.61832 L 68.8145,6.77736 L 68.8947,6.9478 L 68.9529,7.12695
 L 68.9882,7.312 L 69,7.5 L 68.9882,7.68799 L 68.9529,7.87303 L 68.8947,8.05219 L 68.8145,8.22263
 L 68.7135,8.38167 L 68.5934,8.52681 L 68.4561,8.65576 L 68.3037,8.76648 L 68.1387,8.85724 L 67.9635,8.92657
 L 67.7811,8.97342 L 67.5942,8.99704 z
M -67.5942,8.99704 L -67.7811,8.97342 L -67.9635,8.92657 L -68.1387,8.85724 L -68.3037,8.76648 L -68.4561,8.65576
 L -68.5934,8.52681 L -68.7135,8.38167 L -68.8145,8.22263 L -68.8947,8.05219 L -68.9529,7.87303 L -68.9882,7.68799
 L -69,7.5 L -68.9882,7.312 L -68.9529,7.12695 L -68.8947,6.9478 L -68.8145,6.77736 L -68.7135,6.61832
 L -68.5934,6.47318 L -68.4561,6.34422 L -68.3037,6.23351 L -68.1387,6.14275 L -67.9635,6.07341 L -67.7811,6.02657
 L -67.5942,6.00294 L -67.4058,6.00294 L -67.2189,6.02657 L -67.0365,6.07341 L -66.8613,6.14275 L -66.6963,6.23351
 L -66.5439,6.34422 L -66.4065,6.47318 L -66.2865,6.61832 L -66.1855,6.77736 L -66.1053,6.9478 L -66.0471,7.12695
 L -66.0118,7.312 L -66,7.5 L -66.0118,7.68799 L -66.0471,7.87303 L -66.1053,8.05219 L -66.1855,8.22263
 L -66.2865,8.38167 L -66.4065,8.52681 L -66.5439,8.65576 L -66.6963,8.76648 L -66.8613,8.85724 L -67.0365,8.92657
 L -67.2189,8.97342 L -67.4058,8.99704 z
M 67.3116,17.9941 L 66.9379,17.9469 L 66.573,17.8532 L 66.2227,17.7145 L 65.8925,17.533 L 65.5877,17.3115
 L 65.3131,17.0536 L 65.073,16.7634 L 64.8711,16.4453 L 64.7107,16.1044 L 64.5943,15.7461 L 64.5237,15.376
 L 64.5,15 L 64.5237,14.624 L 64.5943,14.2539 L 64.7107,13.8956 L 64.8711,13.5547 L 65.073,13.2366
 L 65.3131,12.9464 L 65.5877,12.6884 L 65.8925,12.467 L 66.2227,12.2855 L 66.573,12.1468 L 66.9379,12.0531
 L 67.3116,12.0059 L 67.6884,12.0059 L 68.0621,12.0531 L 68.427,12.1468 L 68.7773,12.2855 L 69.1075,12.467
 L 69.4123,12.6884 L 69.6869,12.9464 L 69.927,13.2366 L 70.1289,13.5547 L 70.2893,13.8956 L 70.4057,14.2539
 L 70.4763,14.624 L 70.5,15 L 70.4763,15.376 L 70.4057,15.7461 L 70.2893,16.1044 L 70.1289,16.4453
 L 69.927,16.7634 L 69.6869,17.0536 L 69.4123,17.3115 L 69.1075,17.533 L 68.7773,17.7145 L 68.427,17.8532
 L 68.0621,17.9469 L 67.6884,17.9941 z
M -67.6884,17.9941 L -68.0621,17.9469 L -68.427,17.8532 L -68.7773,17.7145 L -69.1075,17.533 L -69.4123,17.3115
 L -69.6869,17.0536 L -69.927,16.7634 L -70.1289,16.4453 L -70.2893,16.1044 L -70.4057,15.7461 L -70.4763,15.376
 L -70.5,15 L -70.4763,14.624 L -70.4057,14.2539 L -70.2893,13.8956 L -70.1289,13.5547 L -69.927,13.2366
 L -69.6869,12.9464 L -69.4123,12.6884 L -69.1075,12.467 L -68.7773,12.2855 L -68.427,12.1468 L -68.0621,12.0531
 L -67.6884,12.0059 L -67.3116,12.0059 L -66.9379,12.0531 L -66.573,12.1468 L -66.2227,12.2855 L -65.8925,12.467
 L -65.5877,12.6884 L -65.3131,12.9464 L -65.073,13.2366 L -64.8711,13.5547 L -64.7107,13.8956 L -64.5943,14.2539
 L -64.5237,14.624 L -64.5,15 L -64.5237,15.376 L -64.5943,15.7461 L -64.7107,16.1044 L -64.8711,16.4453
 L -65.073,16.7634 L -65.3131,17.0536 L -65.5877,17.3115 L -65.8925,17.533 L -66.2227,17.7145 L -66.573,17.8532
 L -66.9379,17.9469 L -67.3116,17.9941 z
M 67.4058,23.997 L 67.2189,23.9734 L 67.0365,23.9266 L 66.8613,23.8572 L 66.6963,23.7665 L 66.5439,23.6558
 L 66.4065,23.5268 L 66.2865,23.3817 L 66.1855,23.2226 L 66.1053,23.0522 L 66.0471,22.873 L 66.0118,22.688
 L 66,22.5 L 66.0118,22.312 L 66.0471,22.127 L 66.1053,21.9478 L 66.1855,21.7774 L 66.2865,21.6183
 L 66.4065,21.4732 L 66.5439,21.3442 L 66.6963,21.2335 L 66.8613,21.1427 L 67.0365,21.0734 L 67.2189,21.0266
 L 67.4058,21.003 L 67.5942,21.003 L 67.7811,21.0266 L 67.9635,21.0734 L 68.1387,21.1427 L 68.3037,21.2335
 L 68.4561,21.3442 L 68.5934,21.4732 L 68.7135,21.6183 L 68.8145,21.7774 L 68.8947,21.9478 L 68.9529,22.127
 L 68.9882,22.312 L 69,22.5 L 68.9882,22.688 L 68.9529,22.873 L 68.8947,23.0522 L 68.8145,23.2226
 L 68.7135,23.3817 L 68.5934,23.5268 L 68.4561,23.6558 L 68.3037,23.7665 L 68.1387,23.8572 L 67.9635,23.9266
 L 67.7811,23.9734 L 67.5942,23.997 z
M -67.5942,23.997 L -67.7811,23.9734 L -67.9635,23.9266 L -68.1387,23.8572 L -68.3037,23.7665 L -68.4561,23.6558
 L -68.5934,23.5268 L -68.7135,23.3817 L -68.8145,23.2226 L -68.8947,23.0522 L -68.9529,22.873 L -68.9882,22.688
 L -69,22.5 L -68.9882,22.312 L -68.9529,22.127 L -68.8947,21.9478 L -68.8145,21.7774 L -68.7135,21.6183
 L -68.5934,21.4732 L -68.4561,21.3442 L -68.3037,21.2335 L -68.1387,21.1427 L -67.9635,21.0734 L -67.7811,21.0266
 L -67.5942,21.003 L -67.4058,21.003 L -67.2189,21.0266 L -67.0365,21.0734 L -66.8613,21.1427 L -66.6963,21.2335
 L -66.5439,21.3442 L -66.4065,21.4732 L -66.2865,21.6183 L -66.1855,21.7774 L -66.1053,21.9478 L -66.0471,22.127
 L -66.0118,22.312 L -66,22.5 L -66.0118,22.688 L -66.0471,22.873 L -66.1053,23.0522 L -66.1855,23.2226
 L -66.2865,23.3817 L -66.4065,23.5268 L -66.5439,23.6558 L -66.6963,23.7665 L -66.8613,23.8572 L -67.0365,23.9266
 L -67.2189,23.9734 L -67.4058,23.997 z
M 67.3116,32.9941 L 66.9379,32.9469 L 66.573,32.8532 L 66.2227,32.7145 L 65.8925,32.533 L 65.5877,32.3115
 L 65.3131,32.0536 L 65.073,31.7634 L 64.8711,31.4453 L 64.7107,31.1044 L 64.5943,30.7461 L 64.5237,30.376
 L 64.5,30 L 64.5237,29.624 L 64.5943,29.2539 L 64.7107,28.8956 L 64.8711,28.5547 L 65.073,28.2366
 L 65.3131,27.9464 L 65.5877,27.6884 L 65.8925,27.467 L 66.2227,27.2855 L 66.573,27.1468 L 66.9379,27.0531
 L 67.3116,27.0059 L 67.6884,27.0059 L 68.0621,27.0531 L 68.427,27.1468 L 68.7773,27.2855 L 69.1075,27.467
 L 69.4123,27.6884 L 69.6869,27.9464 L 69.927,28.2366 L 70.1289,28.5547 L 70.2893,28.8956 L 70.4057,29.2539
 L 70.4763,29.624 L 70.5,30 L 70.4763,30.376 L 70.4057,30.7461 L 70.2893,31.1044 L 70.1289,31.4453
 L 69.927,31.7634 L 69.6869,32.0536 L 69.4123,32.3115 L 69.1075,32.533 L 68.7773,32.7145 L 68.427,32.8532
 L 68.0621,32.9469 L 67.6884,32.9941 z
M -67.6884,32.9941 L -68.0621,32.9469 L -68.427,32.8532 L -68.7773,32.7145 L -69.1075,32.533 L -69.4123,32.3115
 L -69.6869,32.0536 L -69.927,31.7634 L -70.1289,31.4453 L -70.2893,31.1044 L -70.4057,30.7461 L -70.4763,30.376
 L -70.5,30 L -70.4763,29.624 L -70.4057,29.2539 L -70.2893,28.8956 L -70.1289,28.5547 L -69.927,28.2366
 L -69.6869,27.9464 L -69.4123,27.6884 L -69.1075,27.467 L -68.7773,27.2855 L -68.427,27.1468 L -68.0621,27.0531
 L -67.6884,27.0059 L -67.3116,27.0059 L -66.9379,27.0531 L -66.573,27.1468 L -66.2227,27.2855 L -65.8925,27.467
 L -65.5877,27.6884 L -65.3131,27.9464 L -65.073,28.2366 L -64.8711,28.5547 L -64.7107,28.8956 L -64.5943,29.2539
 L -64.5237,29.624 L -64.5,30 L -64.5237,30.376 L -64.5943,30.7461 L -64.7107,31.1044 L -64.8711,31.4453
 L -65.073,31.7634 L -65.3131,32.0536 L -65.5877,32.3115 L -65.8925,32.533 L -66.2227,32.7145 L -66.573,32.8532
 L -66.9379,32.9469 L -67.3116,32.9941 z
M -67.5942,38.997 L -67.7811,38.9734 L -67.9635,38.9266 L -68.1387,38.8572 L -68.3037,38.7665 L -68.4561,38.6558
 L -68.5934,38.5268 L -68.7135,38.3817 L -68.8145,38.2226 L -68.8947,38.0522 L -68.9529,37.873 L -68.9882,37.688
 L -69,37.5 L -68.9882,37.312 L -68.9529,37.127 L -68.8947,36.9478 L -68.8145,36.7774 L -68.7135,36.6183
 L -68.5934,36.4732 L -68.4561,36.3442 L -68.3037,36.2335 L -68.1387,36.1428 L -67.9635,36.0734 L -67.7811,36.0266
 L -67.5942,36.003 L -67.4058,36.003 L -67.2189,36.0266 L -67.0365,36.0734 L -66.8613,36.1428 L -66.6963,36.2335
 L -66.5439,36.3442 L -66.4065,36.4732 L -66.2865,36.6183 L -66.1855,36.7774 L -66.1053,36.9478 L -66.0471,37.127
 L -66.0118,37.312 L -66,37.5 L -66.0118,37.688 L -66.0471,37.873 L -66.1053,38.0522 L -66.1855,38.2226
 L -66.2865,38.3817 L -66.4065,38.5268 L -66.5439,38.6558 L -66.6963,38.7665 L -66.8613,38.8572 L -67.0365,38.9266
 L -67.2189,38.9734 L -67.4058,38.997 z
M 67.4058,38.997 L 67.2189,38.9734 L 67.0365,38.9266 L 66.8613,38.8572 L 66.6963,38.7665 L 66.5439,38.6558
 L 66.4065,38.5268 L 66.2865,38.3817 L 66.1855,38.2226 L 66.1053,38.0522 L 66.0471,37.873 L 66.0118,37.688
 L 66,37.5 L 66.0118,37.312 L 66.0471,37.127 L 66.1053,36.9478 L 66.1855,36.7774 L 66.2865,36.6183
 L 66.4065,36.4732 L 66.5439,36.3442 L 66.6963,36.2335 L 66.8613,36.1428 L 67.0365,36.0734 L 67.2189,36.0266
 L 67.4058,36.003 L 67.5942,36.003 L 67.7811,36.0266 L 67.9635,36.0734 L 68.1387,36.1428 L 68.3037,36.2335
 L 68.4561,36.3442 L 68.5934,36.4732 L 68.7135,36.6183 L 68.8145,36.7774 L 68.8947,36.9478 L 68.9529,37.127
 L 68.9882,37.312 L 69,37.5 L 68.9882,37.688 L 68.9529,37.873 L 68.8947,38.0522 L 68.8145,38.2226
 L 68.7135,38.3817 L 68.5934,38.5268 L 68.4561,38.6558 L 68.3037,38.7665 L 68.1387,38.8572 L 67.9635,38.9266
 L 67.7811,38.9734 L 67.5942,38.997 z
M -67.6884,47.9941 L -68.0621,47.9469 L -68.427,47.8532 L -68.7773,47.7145 L -69.1075,47.533 L -69.4123,47.3115
 L -69.6869,47.0536 L -69.927,46.7634 L -70.1289,46.4453 L -70.2893,46.1044 L -70.4057,45.7461 L -70.4763,45.376
 L -70.5,45 L -70.4763,44.624 L -70.4057,44.2539 L -70.2893,43.8956 L -70.1289,43.5547 L -69.927,43.2366
 L -69.6869,42.9464 L -69.4123,42.6885 L -69.1075,42.467 L -68.7773,42.2855 L -68.427,42.1468 L -68.0621,42.0531
 L -67.6884,42.0059 L -67.3116,42.0059 L -66.9379,42.0531 L -66.573,42.1468 L -66.2227,42.2855 L -65.8925,42.467
 L -65.5877,42.6885 L -65.3131,42.9464 L -65.073,43.2366 L -64.8711,43.5547 L -64.7107,43.8956 L -64.5943,44.2539
 L -64.5237,44.624 L -64.5,45 L -64.5237,45.376 L -64.5943,45.7461 L -64.7107,46.1044 L -64.8711,46.4453
 L -65.073,46.7634 L -65.3131,47.0536 L -65.5877,47.3115 L -65.8925,47.533 L -66.2227,47.7145 L -66.573,47.8532
 L -66.9379,47.9469 L -67.3116,47.9941 z
M 67.3116,47.9941 L 66.9379,47.9469 L 66.573,47.8532 L 66.2227,47.7145 L 65.8925,47.533 L 65.5877,47.3115
 L 65.3131,47.0536 L 65.073,46.7634 L 64.8711,46.4453 L 64.7107,46.1044 L 64.5943,45.7461 L 64.5237,45.376
 L 64.5,45 L 64.5237,44.624 L 64.5943,44.2539 L 64.7107,43.8956 L 64.8711,43.5547 L 65.073,43.2366
 L 65.3131,42.9464 L 65.5877,42.6885 L 65.8925,42.467 L 66.2227,42.2855 L 66.573,42.1468 L 66.9379,42.0531
 L 67.3116,42.0059 L 67.6884,42.0059 L 68.0621,42.0531 L 68.427,42.1468 L 68.7773,42.2855 L 69.1075,42.467
 L 69.4123,42.6885 L 69.6869,42.9464 L 69.927,43.2366 L 70.1289,43.5547 L 70.2893,43.8956 L 70.4057,44.2539
 L 70.4763,44.624 L 70.5,45 L 70.4763,45.376 L 70.4057,45.7461 L 70.2893,46.1044 L 70.1289,46.4453
 L 69.927,46.7634 L 69.6869,47.0536 L 69.4123,47.3115 L 69.1075,47.533 L 68.7773,47.7145 L 68.427,47.8532
 L 68.0621,47.9469 L 67.6884,47.9941 z
M 67.4058,53.997 L 67.2189,53.9734 L 67.0365,53.9266 L 66.8613,53.8572 L 66.6963,53.7665 L 66.5439,53.6558
 L 66.4065,53.5268 L 66.2865,53.3817 L 66.1855,53.2226 L 66.1053,53.0522 L 66.0471,52.873 L 66.0118,52.688
 L 66,52.5 L 66.0118,52.312 L 66.0471,52.127 L 66.1053,51.9478 L 66.1855,51.7774 L 66.2865,51.6183
 L 66.4065,51.4732 L 66.5439,51.3442 L 66.6963,51.2335 L 66.8613,51.1428 L 67.0365,51.0734 L 67.2189,51.0266
 L 67.4058,51.003 L 67.5942,51.003 L 67.7811,51.0266 L 67.9635,51.0734 L 68.1387,51.1428 L 68.3037,51.2335
 L 68.4561,51.3442 L 68.5934,51.4732 L 68.7135,51.6183 L 68.8145,51.7774 L 68.8947,51.9478 L 68.9529,52.127
 L 68.9882,52.312 L 69,52.5 L 68.9882,52.688 L 68.9529,52.873 L 68.8947,53.0522 L 68.8145,53.2226
 L 68.7135,53.3817 L 68.5934,53.5268 L 68.4561,53.6558 L 68.3037,53.7665 L 68.1387,53.8572 L 67.9635,53.9266
 L 67.7811,53.9734 L 67.5942,53.997 z
M -67.5942,53.997 L -67.7811,53.9734 L -67.9635,53.9266 L -68.1387,53.8572 L -68.3037,53.7665 L -68.4561,53.6558
 L -68.5934,53.5268 L -68.7135,53.3817 L -68.8145,53.2226 L -68.8947,53.0522 L -68.9529,52.873 L -68.9882,52.688
 L -69,52.5 L -68.9882,52.312 L -68.9529,52.127 L -68.8947,51.9478 L -68.8145,51.7774 L -68.7135,51.6183
 L -68.5934,51.4732 L -68.4561,51.3442 L -68.3037,51.2335 L -68.1387,51.1428 L -67.9635,51.0734 L -67.7811,51.0266
 L -67.5942,51.003 L -67.4058,51.003 L -67.2189,51.0266 L -67.0365,51.0734 L -66.8613,51.1428 L -66.6963,51.2335
 L -66.5439,51.3442 L -66.4065,51.4732 L -66.2865,51.6183 L -66.1855,51.7774 L -66.1053,51.9478 L -66.0471,52.127
 L -66.0118,52.312 L -66,52.5 L -66.0118,52.688 L -66.0471,52.873 L -66.1053,53.0522 L -66.1855,53.2226
 L -66.2865,53.3817 L -66.4065,53.5268 L -66.5439,53.6558 L -66.6963,53.7665 L -66.8613,53.8572 L -67.0365,53.9266
 L -67.2189,53.9734 L -67.4058,53.997 z
M 67.3116,62.9941 L 66.9379,62.9469 L 66.573,62.8532 L 66.2227,62.7145 L 65.8925,62.533 L 65.5877,62.3115
 L 65.3131,62.0536 L 65.073,61.7634 L 64.8711,61.4453 L 64.7107,61.1044 L 64.5943,60.7461 L 64.5237,60.376
 L 64.5,60 L 64.5237,59.624 L 64.5943,59.2539 L 64.7107,58.8956 L 64.8711,58.5547 L 65.073,58.2366
 L 65.3131,57.9464 L 65.5877,57.6885 L 65.8925,57.467 L 66.2227,57.2855 L 66.573,57.1468 L 66.9379,57.0531
 L 67.3116,57.0059 L 67.6884,57.0059 L 68.0621,57.0531 L 68.427,57.1468 L 68.7773,57.2855 L 69.1075,57.467
 L 69.4123,57.6885 L 69.6869,57.9464 L 69.927,58.2366 L 70.1289,58.5547 L 70.2893,58.8956 L 70.4057,59.2539
 L 70.4763,59.624 L 70.5,60 L 70.4763,60.376 L 70.4057,60.7461 L 70.2893,61.1044 L 70.1289,61.4453
 L 69.927,61.7634 L 69.6869,62.0536 L 69.4123,62.3115 L 69.1075,62.533 L 68.7773,62.7145 L 68.427,62.8532
 L 68.0621,62.9469 L 67.6884,62.9941 z
M -67.6884,62.9941 L -68.0621,62.9469 L -68.427,62.8532 L -68.7773,62.7145 L -69.1075,62.533 L -69.4123,62.3115
 L -69.6869,62.0536 L -69.927,61.7634 L -70.1289,61.4453 L -70.2893,61.1044 L -70.4057,60.7461 L -70.4763,60.376
 L -70.5,60 L -70.4763,59.624 L -70.4057,59.2539 L -70.2893,58.8956 L -70.1289,58.5547 L -69.927,58.2366
 L -69.6869,57.9464 L -69.4123,57.6885 L -69.1075,57.467 L -68.7773,57.2855 L -68.427,57.1468 L -68.0621,57.0531
 L -67.6884,57.0059 L -67.3116,57.0059 L -66.9379,57.0531 L -66.573,57.1468 L -66.2227,57.2855 L -65.8925,57.467
 L -65.5877,57.6885 L -65.3131,57.9464 L -65.073,58.2366 L -64.8711,58.5547 L -64.7107,58.8956 L -64.5943,59.2539
 L -64.5237,59.624 L -64.5,60 L -64.5237,60.376 L -64.5943,60.7461 L -64.7107,61.1044 L -64.8711,61.4453
 L -65.073,61.7634 L -65.3131,62.0536 L -65.5877,62.3115 L -65.8925,62.533 L -66.2227,62.7145 L -66.573,62.8532
 L -66.9379,62.9469 L -67.3116,62.9941 z
" stroke="black" fill="lightgray" stroke-width="0.5"/>
</svg>
