  0
SECTION
  2
BLOCKS
  0
ENDSEC
  0
SECTION
  2
ENTITIES
  0
LINE
  8
0
 10
40.4369
 20
-14.4114
 11
41.0451
 21
-14.2553
  0
LINE
  8
0
 10
41.0451
 20
-14.2553
 11
41.6289
 21
-14.0241
  0
LINE
  8
0
 10
41.6289
 20
-14.0241
 11
42.1791
 21
-13.7216
  0
LINE
  8
0
 10
42.1791
 20
-13.7216
 11
42.6871
 21
-13.3526
  0
LINE
  8
0
 10
42.6871
 20
-13.3526
 11
43.1448
 21
-12.9227
  0
LINE
  8
0
 10
43.1448
 20
-12.9227
 11
43.5451
 21
-12.4389
  0
LINE
  8
0
 10
43.5451
 20
-12.4389
 11
43.8815
 21
-11.9088
  0
LINE
  8
0
 10
43.8815
 20
-11.9088
 11
44.1489
 21
-11.3406
  0
LINE
  8
0
 10
44.1489
 20
-11.3406
 11
44.3429
 21
-10.7434
  0
LINE
  8
0
 10
44.3429
 20
-10.7434
 11
44.4606
 21
-10.1267
  0
LINE
  8
0
 10
44.4606
 20
-10.1267
 11
44.5
 21
-9.5
  0
LINE
  8
0
 10
44.5
 20
-9.5
 11
44.5
 21
9.5
  0
LINE
  8
0
 10
44.5
 20
9.5
 11
44.4606
 21
10.1267
  0
LINE
  8
0
 10
44.4606
 20
10.1267
 11
44.3429
 21
10.7434
  0
LINE
  8
0
 10
44.3429
 20
10.7434
 11
44.1489
 21
11.3406
  0
LINE
  8
0
 10
44.1489
 20
11.3406
 11
43.8815
 21
11.9088
  0
LINE
  8
0
 10
43.8815
 20
11.9088
 11
43.5451
 21
12.4389
  0
LINE
  8
0
 10
43.5451
 20
12.4389
 11
43.1448
 21
12.9227
  0
LINE
  8
0
 10
43.1448
 20
12.9227
 11
42.6871
 21
13.3526
  0
LINE
  8
0
 10
42.6871
 20
13.3526
 11
42.1791
 21
13.7216
  0
LINE
  8
0
 10
42.1791
 20
13.7216
 11
41.6289
 21
14.0241
  0
LINE
  8
0
 10
41.6289
 20
14.0241
 11
41.0451
 21
14.2553
  0
LINE
  8
0
 10
41.0451
 20
14.2553
 11
40.4369
 21
14.4114
  0
LINE
  8
0
 10
40.4369
 20
14.4114
 11
39.8139
 21
14.4901
  0
LINE
  8
0
 10
39.8139
 20
14.4901
 11
-39.8139
 21
14.4901
  0
LINE
  8
0
 10
-39.8139
 20
14.4901
 11
-40.4369
 21
14.4114
  0
LINE
  8
0
 10
-40.4369
 20
14.4114
 11
-41.0451
 21
14.2553
  0
LINE
  8
0
 10
-41.0451
 20
14.2553
 11
-41.6289
 21
14.0241
  0
LINE
  8
0
 10
-41.6289
 20
14.0241
 11
-42.1791
 21
13.7216
  0
LINE
  8
0
 10
-42.1791
 20
13.7216
 11
-42.6871
 21
13.3526
  0
LINE
  8
0
 10
-42.6871
 20
13.3526
 11
-43.1448
 21
12.9227
  0
LINE
  8
0
 10
-43.1448
 20
12.9227
 11
-43.5451
 21
12.4389
  0
LINE
  8
0
 10
-43.5451
 20
12.4389
 11
-43.8815
 21
11.9088
  0
LINE
  8
0
 10
-43.8815
 20
11.9088
 11
-44.1489
 21
11.3406
  0
LINE
  8
0
 10
-44.1489
 20
11.3406
 11
-44.3429
 21
10.7434
  0
LINE
  8
0
 10
-44.3429
 20
10.7434
 11
-44.4606
 21
10.1267
  0
LINE
  8
0
 10
-44.4606
 20
10.1267
 11
-44.5
 21
9.5
  0
LINE
  8
0
 10
-44.5
 20
9.5
 11
-44.5
 21
-9.5
  0
LINE
  8
0
 10
-44.5
 20
-9.5
 11
-44.4606
 21
-10.1267
  0
LINE
  8
0
 10
-44.4606
 20
-10.1267
 11
-44.3429
 21
-10.7434
  0
LINE
  8
0
 10
-44.3429
 20
-10.7434
 11
-44.1489
 21
-11.3406
  0
LINE
  8
0
 10
-44.1489
 20
-11.3406
 11
-43.8815
 21
-11.9088
  0
LINE
  8
0
 10
-43.8815
 20
-11.9088
 11
-43.5451
 21
-12.4389
  0
LINE
  8
0
 10
-43.5451
 20
-12.4389
 11
-43.1448
 21
-12.9227
  0
LINE
  8
0
 10
-43.1448
 20
-12.9227
 11
-42.6871
 21
-13.3526
  0
LINE
  8
0
 10
-42.6871
 20
-13.3526
 11
-42.1791
 21
-13.7216
  0
LINE
  8
0
 10
-42.1791
 20
-13.7216
 11
-41.6289
 21
-14.0241
  0
LINE
  8
0
 10
-41.6289
 20
-14.0241
 11
-41.0451
 21
-14.2553
  0
LINE
  8
0
 10
-41.0451
 20
-14.2553
 11
-40.4369
 21
-14.4114
  0
LINE
  8
0
 10
-40.4369
 20
-14.4114
 11
-39.8139
 21
-14.4901
  0
LINE
  8
0
 10
-39.8139
 20
-14.4901
 11
39.8139
 21
-14.4901
  0
LINE
  8
0
 10
39.8139
 20
-14.4901
 11
40.4369
 21
-14.4114
  0
LINE
  8
0
 10
-37.6884
 20
4.50591
 11
-38.0621
 21
4.55313
  0
LINE
  8
0
 10
-38.0621
 20
4.55313
 11
-38.427
 21
4.64682
  0
LINE
  8
0
 10
-38.427
 20
4.64682
 11
-38.7773
 21
4.78551
  0
LINE
  8
0
 10
-38.7773
 20
4.78551
 11
-39.1075
 21
4.96701
  0
LINE
  8
0
 10
-39.1075
 20
4.96701
 11
-39.4123
 21
5.18845
  0
LINE
  8
0
 10
-39.4123
 20
5.18845
 11
-39.6869
 21
5.44635
  0
LINE
  8
0
 10
-39.6869
 20
5.44635
 11
-39.927
 21
5.73663
  0
LINE
  8
0
 10
-39.927
 20
5.73663
 11
-40.1289
 21
6.05473
  0
LINE
  8
0
 10
-40.1289
 20
6.05473
 11
-40.2893
 21
6.39561
  0
LINE
  8
0
 10
-40.2893
 20
6.39561
 11
-40.4057
 21
6.75392
  0
LINE
  8
0
 10
-40.4057
 20
6.75392
 11
-40.4763
 21
7.12399
  0
LINE
  8
0
 10
-40.4763
 20
7.12399
 11
-40.5
 21
7.5
  0
LINE
  8
0
 10
-40.5
 20
7.5
 11
-40.4763
 21
7.87599
  0
LINE
  8
0
 10
-40.4763
 20
7.87599
 11
-40.4057
 21
8.24606
  0
LINE
  8
0
 10
-40.4057
 20
8.24606
 11
-40.2893
 21
8.60437
  0
LINE
  8
0
 10
-40.2893
 20
8.60437
 11
-40.1289
 21
8.94525
  0
LINE
  8
0
 10
-40.1289
 20
8.94525
 11
-39.927
 21
9.26335
  0
LINE
  8
0
 10
-39.927
 20
9.26335
 11
-39.6869
 21
9.55363
  0
LINE
  8
0
 10
-39.6869
 20
9.55363
 11
-39.4123
 21
9.81154
  0
LINE
  8
0
 10
-39.4123
 20
9.81154
 11
-39.1075
 21
10.033
  0
LINE
  8
0
 10
-39.1075
 20
10.033
 11
-38.7773
 21
10.2145
  0
LINE
  8
0
 10
-38.7773
 20
10.2145
 11
-38.427
 21
10.3532
  0
LINE
  8
0
 10
-38.427
 20
10.3532
 11
-38.0621
 21
10.4469
  0
LINE
  8
0
 10
-38.0621
 20
10.4469
 11
-37.6884
 21
10.4941
  0
LINE
  8
0
 10
-37.6884
 20
10.4941
 11
-37.3116
 21
10.4941
  0
LINE
  8
0
 10
-37.3116
 20
10.4941
 11
-36.9379
 21
10.4469
  0
LINE
  8
0
 10
-36.9379
 20
10.4469
 11
-36.5729
 21
10.3532
  0
LINE
  8
0
 10
-36.5729
 20
10.3532
 11
-36.2227
 21
10.2145
  0
LINE
  8
0
 10
-36.2227
 20
10.2145
 11
-35.8925
 21
10.033
  0
LINE
  8
0
 10
-35.8925
 20
10.033
 11
-35.5877
 21
9.81154
  0
LINE
  8
0
 10
-35.5877
 20
9.81154
 11
-35.3131
 21
9.55363
  0
LINE
  8
0
 10
-35.3131
 20
9.55363
 11
-35.0729
 21
9.26335
  0
LINE
  8
0
 10
-35.0729
 20
9.26335
 11
-34.8711
 21
8.94525
  0
LINE
  8
0
 10
-34.8711
 20
8.94525
 11
-34.7107
 21
8.60437
  0
LINE
  8
0
 10
-34.7107
 20
8.60437
 11
-34.5942
 21
8.24606
  0
LINE
  8
0
 10
-34.5942
 20
8.24606
 11
-34.5237
 21
7.87599
  0
LINE
  8
0
 10
-34.5237
 20
7.87599
 11
-34.5
 21
7.5
  0
LINE
  8
0
 10
-34.5
 20
7.5
 11
-34.5237
 21
7.12399
  0
LINE
  8
0
 10
-34.5237
 20
7.12399
 11
-34.5942
 21
6.75392
  0
LINE
  8
0
 10
-34.5942
 20
6.75392
 11
-34.7107
 21
6.39561
  0
LINE
  8
0
 10
-34.7107
 20
6.39561
 11
-34.8711
 21
6.05473
  0
LINE
  8
0
 10
-34.8711
 20
6.05473
 11
-35.0729
 21
5.73663
  0
LINE
  8
0
 10
-35.0729
 20
5.73663
 11
-35.3131
 21
5.44635
  0
LINE
  8
0
 10
-35.3131
 20
5.44635
 11
-35.5877
 21
5.18845
  0
LINE
  8
0
 10
-35.5877
 20
5.18845
 11
-35.8925
 21
4.96701
  0
LINE
  8
0
 10
-35.8925
 20
4.96701
 11
-36.2227
 21
4.78551
  0
LINE
  8
0
 10
-36.2227
 20
4.78551
 11
-36.5729
 21
4.64682
  0
LINE
  8
0
 10
-36.5729
 20
4.64682
 11
-36.9379
 21
4.55313
  0
LINE
  8
0
 10
-36.9379
 20
4.55313
 11
-37.3116
 21
4.50591
  0
LINE
  8
0
 10
-37.3116
 20
4.50591
 11
-37.6884
 21
4.50591
  0
LINE
  8
0
 10
37.3116
 20
4.50591
 11
36.9379
 21
4.55313
  0
LINE
  8
0
 10
36.9379
 20
4.55313
 11
36.5729
 21
4.64682
  0
LINE
  8
0
 10
36.5729
 20
4.64682
 11
36.2227
 21
4.78551
  0
LINE
  8
0
 10
36.2227
 20
4.78551
 11
35.8925
 21
4.96701
  0
LINE
  8
0
 10
35.8925
 20
4.96701
 11
35.5877
 21
5.18845
  0
LINE
  8
0
 10
35.5877
 20
5.18845
 11
35.3131
 21
5.44635
  0
LINE
  8
0
 10
35.3131
 20
5.44635
 11
35.0729
 21
5.73663
  0
LINE
  8
0
 10
35.0729
 20
5.73663
 11
34.8711
 21
6.05473
  0
LINE
  8
0
 10
34.8711
 20
6.05473
 11
34.7107
 21
6.39561
  0
LINE
  8
0
 10
34.7107
 20
6.39561
 11
34.5942
 21
6.75392
  0
LINE
  8
0
 10
34.5942
 20
6.75392
 11
34.5237
 21
7.12399
  0
LINE
  8
0
 10
34.5237
 20
7.12399
 11
34.5
 21
7.5
  0
LINE
  8
0
 10
34.5
 20
7.5
 11
34.5237
 21
7.87599
  0
LINE
  8
0
 10
34.5237
 20
7.87599
 11
34.5942
 21
8.24606
  0
LINE
  8
0
 10
34.5942
 20
8.24606
 11
34.7107
 21
8.60437
  0
LINE
  8
0
 10
34.7107
 20
8.60437
 11
34.8711
 21
8.94525
  0
LINE
  8
0
 10
34.8711
 20
8.94525
 11
35.0729
 21
9.26335
  0
LINE
  8
0
 10
35.0729
 20
9.26335
 11
35.3131
 21
9.55363
  0
LINE
  8
0
 10
35.3131
 20
9.55363
 11
35.5877
 21
9.81154
  0
LINE
  8
0
 10
35.5877
 20
9.81154
 11
35.8925
 21
10.033
  0
LINE
  8
0
 10
35.8925
 20
10.033
 11
36.2227
 21
10.2145
  0
LINE
  8
0
 10
36.2227
 20
10.2145
 11
36.5729
 21
10.3532
  0
LINE
  8
0
 10
36.5729
 20
10.3532
 11
36.9379
 21
10.4469
  0
LINE
  8
0
 10
36.9379
 20
10.4469
 11
37.3116
 21
10.4941
  0
LINE
  8
0
 10
37.3116
 20
10.4941
 11
37.6884
 21
10.4941
  0
LINE
  8
0
 10
37.6884
 20
10.4941
 11
38.0621
 21
10.4469
  0
LINE
  8
0
 10
38.0621
 20
10.4469
 11
38.427
 21
10.3532
  0
LINE
  8
0
 10
38.427
 20
10.3532
 11
38.7773
 21
10.2145
  0
LINE
  8
0
 10
38.7773
 20
10.2145
 11
39.1075
 21
10.033
  0
LINE
  8
0
 10
39.1075
 20
10.033
 11
39.4123
 21
9.81154
  0
LINE
  8
0
 10
39.4123
 20
9.81154
 11
39.6869
 21
9.55363
  0
LINE
  8
0
 10
39.6869
 20
9.55363
 11
39.927
 21
9.26335
  0
LINE
  8
0
 10
39.927
 20
9.26335
 11
40.1289
 21
8.94525
  0
LINE
  8
0
 10
40.1289
 20
8.94525
 11
40.2893
 21
8.60437
  0
LINE
  8
0
 10
40.2893
 20
8.60437
 11
40.4057
 21
8.24606
  0
LINE
  8
0
 10
40.4057
 20
8.24606
 11
40.4763
 21
7.87599
  0
LINE
  8
0
 10
40.4763
 20
7.87599
 11
40.5
 21
7.5
  0
LINE
  8
0
 10
40.5
 20
7.5
 11
40.4763
 21
7.12399
  0
LINE
  8
0
 10
40.4763
 20
7.12399
 11
40.4057
 21
6.75392
  0
LINE
  8
0
 10
40.4057
 20
6.75392
 11
40.2893
 21
6.39561
  0
LINE
  8
0
 10
40.2893
 20
6.39561
 11
40.1289
 21
6.05473
  0
LINE
  8
0
 10
40.1289
 20
6.05473
 11
39.927
 21
5.73663
  0
LINE
  8
0
 10
39.927
 20
5.73663
 11
39.6869
 21
5.44635
  0
LINE
  8
0
 10
39.6869
 20
5.44635
 11
39.4123
 21
5.18845
  0
LINE
  8
0
 10
39.4123
 20
5.18845
 11
39.1075
 21
4.96701
  0
LINE
  8
0
 10
39.1075
 20
4.96701
 11
38.7773
 21
4.78551
  0
LINE
  8
0
 10
38.7773
 20
4.78551
 11
38.427
 21
4.64682
  0
LINE
  8
0
 10
38.427
 20
4.64682
 11
38.0621
 21
4.55313
  0
LINE
  8
0
 10
38.0621
 20
4.55313
 11
37.6884
 21
4.50591
  0
LINE
  8
0
 10
37.6884
 20
4.50591
 11
37.3116
 21
4.50591
  0
LINE
  8
0
 10
28.0605
 20
-6.98618
 11
27.1883
 21
-6.87601
  0
LINE
  8
0
 10
27.1883
 20
-6.87601
 11
26.3369
 21
-6.65739
  0
LINE
  8
0
 10
26.3369
 20
-6.65739
 11
25.5195
 21
-6.33379
  0
LINE
  8
0
 10
25.5195
 20
-6.33379
 11
24.7492
 21
-5.91029
  0
LINE
  8
0
 10
24.7492
 20
-5.91029
 11
24.038
 21
-5.39359
  0
LINE
  8
0
 10
24.038
 20
-5.39359
 11
23.3972
 21
-4.79182
  0
LINE
  8
0
 10
23.3972
 20
-4.79182
 11
22.8369
 21
-4.11449
  0
LINE
  8
0
 10
22.8369
 20
-4.11449
 11
22.3658
 21
-3.37227
  0
LINE
  8
0
 10
22.3658
 20
-3.37227
 11
21.9916
 21
-2.57686
  0
LINE
  8
0
 10
21.9916
 20
-2.57686
 11
21.7199
 21
-1.74081
  0
LINE
  8
0
 10
21.7199
 20
-1.74081
 11
21.5552
 21
-0.877319
  0
LINE
  8
0
 10
21.5552
 20
-0.877319
 11
21.5
 21
0
  0
LINE
  8
0
 10
21.5
 20
0
 11
21.5552
 21
0.877319
  0
LINE
  8
0
 10
21.5552
 20
0.877319
 11
21.7199
 21
1.74081
  0
LINE
  8
0
 10
21.7199
 20
1.74081
 11
21.9916
 21
2.57686
  0
LINE
  8
0
 10
21.9916
 20
2.57686
 11
22.3658
 21
3.37227
  0
LINE
  8
0
 10
22.3658
 20
3.37227
 11
22.8369
 21
4.11449
  0
LINE
  8
0
 10
22.8369
 20
4.11449
 11
23.3972
 21
4.79182
  0
LINE
  8
0
 10
23.3972
 20
4.79182
 11
24.038
 21
5.39359
  0
LINE
  8
0
 10
24.038
 20
5.39359
 11
24.7492
 21
5.91029
  0
LINE
  8
0
 10
24.7492
 20
5.91029
 11
25.5195
 21
6.33379
  0
LINE
  8
0
 10
25.5195
 20
6.33379
 11
26.3369
 21
6.65739
  0
LINE
  8
0
 10
26.3369
 20
6.65739
 11
27.1883
 21
6.87601
  0
LINE
  8
0
 10
27.1883
 20
6.87601
 11
28.0605
 21
6.98618
  0
LINE
  8
0
 10
28.0605
 20
6.98618
 11
28.9395
 21
6.98618
  0
LINE
  8
0
 10
28.9395
 20
6.98618
 11
29.8117
 21
6.87601
  0
LINE
  8
0
 10
29.8117
 20
6.87601
 11
30.6631
 21
6.65739
  0
LINE
  8
0
 10
30.6631
 20
6.65739
 11
31.4805
 21
6.33379
  0
LINE
  8
0
 10
31.4805
 20
6.33379
 11
32.2508
 21
5.91029
  0
LINE
  8
0
 10
32.2508
 20
5.91029
 11
32.962
 21
5.39359
  0
LINE
  8
0
 10
32.962
 20
5.39359
 11
33.6028
 21
4.79182
  0
LINE
  8
0
 10
33.6028
 20
4.79182
 11
34.1631
 21
4.11449
  0
LINE
  8
0
 10
34.1631
 20
4.11449
 11
34.6341
 21
3.37227
  0
LINE
  8
0
 10
34.6341
 20
3.37227
 11
35.0084
 21
2.57686
  0
LINE
  8
0
 10
35.0084
 20
2.57686
 11
35.2801
 21
1.74081
  0
LINE
  8
0
 10
35.2801
 20
1.74081
 11
35.4448
 21
0.877319
  0
LINE
  8
0
 10
35.4448
 20
0.877319
 11
35.5
 21
0
  0
LINE
  8
0
 10
35.5
 20
0
 11
35.4448
 21
-0.877319
  0
LINE
  8
0
 10
35.4448
 20
-0.877319
 11
35.2801
 21
-1.74081
  0
LINE
  8
0
 10
35.2801
 20
-1.74081
 11
35.0084
 21
-2.57686
  0
LINE
  8
0
 10
35.0084
 20
-2.57686
 11
34.6341
 21
-3.37227
  0
LINE
  8
0
 10
34.6341
 20
-3.37227
 11
34.1631
 21
-4.11449
  0
LINE
  8
0
 10
34.1631
 20
-4.11449
 11
33.6028
 21
-4.79182
  0
LINE
  8
0
 10
33.6028
 20
-4.79182
 11
32.962
 21
-5.39359
  0
LINE
  8
0
 10
32.962
 20
-5.39359
 11
32.2508
 21
-5.91029
  0
LINE
  8
0
 10
32.2508
 20
-5.91029
 11
31.4805
 21
-6.33379
  0
LINE
  8
0
 10
31.4805
 20
-6.33379
 11
30.6631
 21
-6.65739
  0
LINE
  8
0
 10
30.6631
 20
-6.65739
 11
29.8117
 21
-6.87601
  0
LINE
  8
0
 10
29.8117
 20
-6.87601
 11
28.9395
 21
-6.98618
  0
LINE
  8
0
 10
28.9395
 20
-6.98618
 11
28.0605
 21
-6.98618
  0
LINE
  8
0
 10
-28.9395
 20
-6.98618
 11
-29.8117
 21
-6.87601
  0
LINE
  8
0
 10
-29.8117
 20
-6.87601
 11
-30.6631
 21
-6.65739
  0
LINE
  8
0
 10
-30.6631
 20
-6.65739
 11
-31.4805
 21
-6.33379
  0
LINE
  8
0
 10
-31.4805
 20
-6.33379
 11
-32.2508
 21
-5.91029
  0
LINE
  8
0
 10
-32.2508
 20
-5.91029
 11
-32.962
 21
-5.39359
  0
LINE
  8
0
 10
-32.962
 20
-5.39359
 11
-33.6028
 21
-4.79182
  0
LINE
  8
0
 10
-33.6028
 20
-4.79182
 11
-34.1631
 21
-4.11449
  0
LINE
  8
0
 10
-34.1631
 20
-4.11449
 11
-34.6341
 21
-3.37227
  0
LINE
  8
0
 10
-34.6341
 20
-3.37227
 11
-35.0084
 21
-2.57686
  0
LINE
  8
0
 10
-35.0084
 20
-2.57686
 11
-35.2801
 21
-1.74081
  0
LINE
  8
0
 10
-35.2801
 20
-1.74081
 11
-35.4448
 21
-0.877319
  0
LINE
  8
0
 10
-35.4448
 20
-0.877319
 11
-35.5
 21
0
  0
LINE
  8
0
 10
-35.5
 20
0
 11
-35.4448
 21
0.877319
  0
LINE
  8
0
 10
-35.4448
 20
0.877319
 11
-35.2801
 21
1.74081
  0
LINE
  8
0
 10
-35.2801
 20
1.74081
 11
-35.0084
 21
2.57686
  0
LINE
  8
0
 10
-35.0084
 20
2.57686
 11
-34.6341
 21
3.37227
  0
LINE
  8
0
 10
-34.6341
 20
3.37227
 11
-34.1631
 21
4.11449
  0
LINE
  8
0
 10
-34.1631
 20
4.11449
 11
-33.6028
 21
4.79182
  0
LINE
  8
0
 10
-33.6028
 20
4.79182
 11
-32.962
 21
5.39359
  0
LINE
  8
0
 10
-32.962
 20
5.39359
 11
-32.2508
 21
5.91029
  0
LINE
  8
0
 10
-32.2508
 20
5.91029
 11
-31.4805
 21
6.33379
  0
LINE
  8
0
 10
-31.4805
 20
6.33379
 11
-30.6631
 21
6.65739
  0
LINE
  8
0
 10
-30.6631
 20
6.65739
 11
-29.8117
 21
6.87601
  0
LINE
  8
0
 10
-29.8117
 20
6.87601
 11
-28.9395
 21
6.98618
  0
LINE
  8
0
 10
-28.9395
 20
6.98618
 11
-28.0605
 21
6.98618
  0
LINE
  8
0
 10
-28.0605
 20
6.98618
 11
-27.1883
 21
6.87601
  0
LINE
  8
0
 10
-27.1883
 20
6.87601
 11
-26.3369
 21
6.65739
  0
LINE
  8
0
 10
-26.3369
 20
6.65739
 11
-25.5195
 21
6.33379
  0
LINE
  8
0
 10
-25.5195
 20
6.33379
 11
-24.7492
 21
5.91029
  0
LINE
  8
0
 10
-24.7492
 20
5.91029
 11
-24.038
 21
5.39359
  0
LINE
  8
0
 10
-24.038
 20
5.39359
 11
-23.3972
 21
4.79182
  0
LINE
  8
0
 10
-23.3972
 20
4.79182
 11
-22.8369
 21
4.11449
  0
LINE
  8
0
 10
-22.8369
 20
4.11449
 11
-22.3658
 21
3.37227
  0
LINE
  8
0
 10
-22.3658
 20
3.37227
 11
-21.9916
 21
2.57686
  0
LINE
  8
0
 10
-21.9916
 20
2.57686
 11
-21.7199
 21
1.74081
  0
LINE
  8
0
 10
-21.7199
 20
1.74081
 11
-21.5552
 21
0.877319
  0
LINE
  8
0
 10
-21.5552
 20
0.877319
 11
-21.5
 21
0
  0
LINE
  8
0
 10
-21.5
 20
0
 11
-21.5552
 21
-0.877319
  0
LINE
  8
0
 10
-21.5552
 20
-0.877319
 11
-21.7199
 21
-1.74081
  0
LINE
  8
0
 10
-21.7199
 20
-1.74081
 11
-21.9916
 21
-2.57686
  0
LINE
  8
0
 10
-21.9916
 20
-2.57686
 11
-22.3658
 21
-3.37227
  0
LINE
  8
0
 10
-22.3658
 20
-3.37227
 11
-22.8369
 21
-4.11449
  0
LINE
  8
0
 10
-22.8369
 20
-4.11449
 11
-23.3972
 21
-4.79182
  0
LINE
  8
0
 10
-23.3972
 20
-4.79182
 11
-24.038
 21
-5.39359
  0
LINE
  8
0
 10
-24.038
 20
-5.39359
 11
-24.7492
 21
-5.91029
  0
LINE
  8
0
 10
-24.7492
 20
-5.91029
 11
-25.5195
 21
-6.33379
  0
LINE
  8
0
 10
-25.5195
 20
-6.33379
 11
-26.3369
 21
-6.65739
  0
LINE
  8
0
 10
-26.3369
 20
-6.65739
 11
-27.1883
 21
-6.87601
  0
LINE
  8
0
 10
-27.1883
 20
-6.87601
 11
-28.0605
 21
-6.98618
  0
LINE
  8
0
 10
-28.0605
 20
-6.98618
 11
-28.9395
 21
-6.98618
  0
LINE
  8
0
 10
9.06046
 20
-6.98618
 11
8.18832
 21
-6.87601
  0
LINE
  8
0
 10
8.18832
 20
-6.87601
 11
7.33687
 21
-6.65739
  0
LINE
  8
0
 10
7.33687
 20
-6.65739
 11
6.51953
 21
-6.33379
  0
LINE
  8
0
 10
6.51953
 20
-6.33379
 11
5.74921
 21
-5.91029
  0
LINE
  8
0
 10
5.74921
 20
-5.91029
 11
5.03802
 21
-5.39359
  0
LINE
  8
0
 10
5.03802
 20
-5.39359
 11
4.39722
 21
-4.79182
  0
LINE
  8
0
 10
4.39722
 20
-4.79182
 11
3.83687
 21
-4.11449
  0
LINE
  8
0
 10
3.83687
 20
-4.11449
 11
3.36584
 21
-3.37227
  0
LINE
  8
0
 10
3.36584
 20
-3.37227
 11
2.99156
 21
-2.57686
  0
LINE
  8
0
 10
2.99156
 20
-2.57686
 11
2.71991
 21
-1.74081
  0
LINE
  8
0
 10
2.71991
 20
-1.74081
 11
2.55519
 21
-0.877319
  0
LINE
  8
0
 10
2.55519
 20
-0.877319
 11
2.5
 21
0
  0
LINE
  8
0
 10
2.5
 20
0
 11
2.55519
 21
0.877319
  0
LINE
  8
0
 10
2.55519
 20
0.877319
 11
2.71991
 21
1.74081
  0
LINE
  8
0
 10
2.71991
 20
1.74081
 11
2.99156
 21
2.57686
  0
LINE
  8
0
 10
2.99156
 20
2.57686
 11
3.36584
 21
3.37227
  0
LINE
  8
0
 10
3.36584
 20
3.37227
 11
3.83687
 21
4.11449
  0
LINE
  8
0
 10
3.83687
 20
4.11449
 11
4.39722
 21
4.79182
  0
LINE
  8
0
 10
4.39722
 20
4.79182
 11
5.03802
 21
5.39359
  0
LINE
  8
0
 10
5.03802
 20
5.39359
 11
5.74921
 21
5.91029
  0
LINE
  8
0
 10
5.74921
 20
5.91029
 11
6.51953
 21
6.33379
  0
LINE
  8
0
 10
6.51953
 20
6.33379
 11
7.33687
 21
6.65739
  0
LINE
  8
0
 10
7.33687
 20
6.65739
 11
8.18832
 21
6.87601
  0
LINE
  8
0
 10
8.18832
 20
6.87601
 11
9.06046
 21
6.98618
  0
LINE
  8
0
 10
9.06046
 20
6.98618
 11
9.93953
 21
6.98618
  0
LINE
  8
0
 10
9.93953
 20
6.98618
 11
10.8117
 21
6.87601
  0
LINE
  8
0
 10
10.8117
 20
6.87601
 11
11.6631
 21
6.65739
  0
LINE
  8
0
 10
11.6631
 20
6.65739
 11
12.4805
 21
6.33379
  0
LINE
  8
0
 10
12.4805
 20
6.33379
 11
13.2508
 21
5.91029
  0
LINE
  8
0
 10
13.2508
 20
5.91029
 11
13.962
 21
5.39359
  0
LINE
  8
0
 10
13.962
 20
5.39359
 11
14.6028
 21
4.79182
  0
LINE
  8
0
 10
14.6028
 20
4.79182
 11
15.1631
 21
4.11449
  0
LINE
  8
0
 10
15.1631
 20
4.11449
 11
15.6341
 21
3.37227
  0
LINE
  8
0
 10
15.6341
 20
3.37227
 11
16.0084
 21
2.57686
  0
LINE
  8
0
 10
16.0084
 20
2.57686
 11
16.2801
 21
1.74081
  0
LINE
  8
0
 10
16.2801
 20
1.74081
 11
16.4448
 21
0.877319
  0
LINE
  8
0
 10
16.4448
 20
0.877319
 11
16.5
 21
0
  0
LINE
  8
0
 10
16.5
 20
0
 11
16.4448
 21
-0.877319
  0
LINE
  8
0
 10
16.4448
 20
-0.877319
 11
16.2801
 21
-1.74081
  0
LINE
  8
0
 10
16.2801
 20
-1.74081
 11
16.0084
 21
-2.57686
  0
LINE
  8
0
 10
16.0084
 20
-2.57686
 11
15.6341
 21
-3.37227
  0
LINE
  8
0
 10
15.6341
 20
-3.37227
 11
15.1631
 21
-4.11449
  0
LINE
  8
0
 10
15.1631
 20
-4.11449
 11
14.6028
 21
-4.79182
  0
LINE
  8
0
 10
14.6028
 20
-4.79182
 11
13.962
 21
-5.39359
  0
LINE
  8
0
 10
13.962
 20
-5.39359
 11
13.2508
 21
-5.91029
  0
LINE
  8
0
 10
13.2508
 20
-5.91029
 11
12.4805
 21
-6.33379
  0
LINE
  8
0
 10
12.4805
 20
-6.33379
 11
11.6631
 21
-6.65739
  0
LINE
  8
0
 10
11.6631
 20
-6.65739
 11
10.8117
 21
-6.87601
  0
LINE
  8
0
 10
10.8117
 20
-6.87601
 11
9.93953
 21
-6.98618
  0
LINE
  8
0
 10
9.93953
 20
-6.98618
 11
9.06046
 21
-6.98618
  0
LINE
  8
0
 10
-9.93953
 20
-6.98618
 11
-10.8117
 21
-6.87601
  0
LINE
  8
0
 10
-10.8117
 20
-6.87601
 11
-11.6631
 21
-6.65739
  0
LINE
  8
0
 10
-11.6631
 20
-6.65739
 11
-12.4805
 21
-6.33379
  0
LINE
  8
0
 10
-12.4805
 20
-6.33379
 11
-13.2508
 21
-5.91029
  0
LINE
  8
0
 10
-13.2508
 20
-5.91029
 11
-13.962
 21
-5.39359
  0
LINE
  8
0
 10
-13.962
 20
-5.39359
 11
-14.6028
 21
-4.79182
  0
LINE
  8
0
 10
-14.6028
 20
-4.79182
 11
-15.1631
 21
-4.11449
  0
LINE
  8
0
 10
-15.1631
 20
-4.11449
 11
-15.6341
 21
-3.37227
  0
LINE
  8
0
 10
-15.6341
 20
-3.37227
 11
-16.0084
 21
-2.57686
  0
LINE
  8
0
 10
-16.0084
 20
-2.57686
 11
-16.2801
 21
-1.74081
  0
LINE
  8
0
 10
-16.2801
 20
-1.74081
 11
-16.4448
 21
-0.877319
  0
LINE
  8
0
 10
-16.4448
 20
-0.877319
 11
-16.5
 21
0
  0
LINE
  8
0
 10
-16.5
 20
0
 11
-16.4448
 21
0.877319
  0
LINE
  8
0
 10
-16.4448
 20
0.877319
 11
-16.2801
 21
1.74081
  0
LINE
  8
0
 10
-16.2801
 20
1.74081
 11
-16.0084
 21
2.57686
  0
LINE
  8
0
 10
-16.0084
 20
2.57686
 11
-15.6341
 21
3.37227
  0
LINE
  8
0
 10
-15.6341
 20
3.37227
 11
-15.1631
 21
4.11449
  0
LINE
  8
0
 10
-15.1631
 20
4.11449
 11
-14.6028
 21
4.79182
  0
LINE
  8
0
 10
-14.6028
 20
4.79182
 11
-13.962
 21
5.39359
  0
LINE
  8
0
 10
-13.962
 20
5.39359
 11
-13.2508
 21
5.91029
  0
LINE
  8
0
 10
-13.2508
 20
5.91029
 11
-12.4805
 21
6.33379
  0
LINE
  8
0
 10
-12.4805
 20
6.33379
 11
-11.6631
 21
6.65739
  0
LINE
  8
0
 10
-11.6631
 20
6.65739
 11
-10.8117
 21
6.87601
  0
LINE
  8
0
 10
-10.8117
 20
6.87601
 11
-9.93953
 21
6.98618
  0
LINE
  8
0
 10
-9.93953
 20
6.98618
 11
-9.06046
 21
6.98618
  0
LINE
  8
0
 10
-9.06046
 20
6.98618
 11
-8.18832
 21
6.87601
  0
LINE
  8
0
 10
-8.18832
 20
6.87601
 11
-7.33687
 21
6.65739
  0
LINE
  8
0
 10
-7.33687
 20
6.65739
 11
-6.51953
 21
6.33379
  0
LINE
  8
0
 10
-6.51953
 20
6.33379
 11
-5.74921
 21
5.91029
  0
LINE
  8
0
 10
-5.74921
 20
5.91029
 11
-5.03802
 21
5.39359
  0
LINE
  8
0
 10
-5.03802
 20
5.39359
 11
-4.39722
 21
4.79182
  0
LINE
  8
0
 10
-4.39722
 20
4.79182
 11
-3.83687
 21
4.11449
  0
LINE
  8
0
 10
-3.83687
 20
4.11449
 11
-3.36584
 21
3.37227
  0
LINE
  8
0
 10
-3.36584
 20
3.37227
 11
-2.99156
 21
2.57686
  0
LINE
  8
0
 10
-2.99156
 20
2.57686
 11
-2.71991
 21
1.74081
  0
LINE
  8
0
 10
-2.71991
 20
1.74081
 11
-2.55519
 21
0.877319
  0
LINE
  8
0
 10
-2.55519
 20
0.877319
 11
-2.5
 21
0
  0
LINE
  8
0
 10
-2.5
 20
0
 11
-2.55519
 21
-0.877319
  0
LINE
  8
0
 10
-2.55519
 20
-0.877319
 11
-2.71991
 21
-1.74081
  0
LINE
  8
0
 10
-2.71991
 20
-1.74081
 11
-2.99156
 21
-2.57686
  0
LINE
  8
0
 10
-2.99156
 20
-2.57686
 11
-3.36584
 21
-3.37227
  0
LINE
  8
0
 10
-3.36584
 20
-3.37227
 11
-3.83687
 21
-4.11449
  0
LINE
  8
0
 10
-3.83687
 20
-4.11449
 11
-4.39722
 21
-4.79182
  0
LINE
  8
0
 10
-4.39722
 20
-4.79182
 11
-5.03802
 21
-5.39359
  0
LINE
  8
0
 10
-5.03802
 20
-5.39359
 11
-5.74921
 21
-5.91029
  0
LINE
  8
0
 10
-5.74921
 20
-5.91029
 11
-6.51953
 21
-6.33379
  0
LINE
  8
0
 10
-6.51953
 20
-6.33379
 11
-7.33687
 21
-6.65739
  0
LINE
  8
0
 10
-7.33687
 20
-6.65739
 11
-8.18832
 21
-6.87601
  0
LINE
  8
0
 10
-8.18832
 20
-6.87601
 11
-9.06046
 21
-6.98618
  0
LINE
  8
0
 10
-9.06046
 20
-6.98618
 11
-9.93953
 21
-6.98618
  0
LINE
  8
0
 10
37.3116
 20
-10.4941
 11
36.9379
 21
-10.4469
  0
LINE
  8
0
 10
36.9379
 20
-10.4469
 11
36.5729
 21
-10.3532
  0
LINE
  8
0
 10
36.5729
 20
-10.3532
 11
36.2227
 21
-10.2145
  0
LINE
  8
0
 10
36.2227
 20
-10.2145
 11
35.8925
 21
-10.033
  0
LINE
  8
0
 10
35.8925
 20
-10.033
 11
35.5877
 21
-9.81154
  0
LINE
  8
0
 10
35.5877
 20
-9.81154
 11
35.3131
 21
-9.55363
  0
LINE
  8
0
 10
35.3131
 20
-9.55363
 11
35.0729
 21
-9.26335
  0
LINE
  8
0
 10
35.0729
 20
-9.26335
 11
34.8711
 21
-8.94525
  0
LINE
  8
0
 10
34.8711
 20
-8.94525
 11
34.7107
 21
-8.60437
  0
LINE
  8
0
 10
34.7107
 20
-8.60437
 11
34.5942
 21
-8.24606
  0
LINE
  8
0
 10
34.5942
 20
-8.24606
 11
34.5237
 21
-7.87599
  0
LINE
  8
0
 10
34.5237
 20
-7.87599
 11
34.5
 21
-7.5
  0
LINE
  8
0
 10
34.5
 20
-7.5
 11
34.5237
 21
-7.12399
  0
LINE
  8
0
 10
34.5237
 20
-7.12399
 11
34.5942
 21
-6.75392
  0
LINE
  8
0
 10
34.5942
 20
-6.75392
 11
34.7107
 21
-6.39561
  0
LINE
  8
0
 10
34.7107
 20
-6.39561
 11
34.8711
 21
-6.05473
  0
LINE
  8
0
 10
34.8711
 20
-6.05473
 11
35.0729
 21
-5.73663
  0
LINE
  8
0
 10
35.0729
 20
-5.73663
 11
35.3131
 21
-5.44635
  0
LINE
  8
0
 10
35.3131
 20
-5.44635
 11
35.5877
 21
-5.18845
  0
LINE
  8
0
 10
35.5877
 20
-5.18845
 11
35.8925
 21
-4.96701
  0
LINE
  8
0
 10
35.8925
 20
-4.96701
 11
36.2227
 21
-4.78551
  0
LINE
  8
0
 10
36.2227
 20
-4.78551
 11
36.5729
 21
-4.64682
  0
LINE
  8
0
 10
36.5729
 20
-4.64682
 11
36.9379
 21
-4.55313
  0
LINE
  8
0
 10
36.9379
 20
-4.55313
 11
37.3116
 21
-4.50591
  0
LINE
  8
0
 10
37.3116
 20
-4.50591
 11
37.6884
 21
-4.50591
  0
LINE
  8
0
 10
37.6884
 20
-4.50591
 11
38.0621
 21
-4.55313
  0
LINE
  8
0
 10
38.0621
 20
-4.55313
 11
38.427
 21
-4.64682
  0
LINE
  8
0
 10
38.427
 20
-4.64682
 11
38.7773
 21
-4.78551
  0
LINE
  8
0
 10
38.7773
 20
-4.78551
 11
39.1075
 21
-4.96701
  0
LINE
  8
0
 10
39.1075
 20
-4.96701
 11
39.4123
 21
-5.18845
  0
LINE
  8
0
 10
39.4123
 20
-5.18845
 11
39.6869
 21
-5.44635
  0
LINE
  8
0
 10
39.6869
 20
-5.44635
 11
39.927
 21
-5.73663
  0
LINE
  8
0
 10
39.927
 20
-5.73663
 11
40.1289
 21
-6.05473
  0
LINE
  8
0
 10
40.1289
 20
-6.05473
 11
40.2893
 21
-6.39561
  0
LINE
  8
0
 10
40.2893
 20
-6.39561
 11
40.4057
 21
-6.75392
  0
LINE
  8
0
 10
40.4057
 20
-6.75392
 11
40.4763
 21
-7.12399
  0
LINE
  8
0
 10
40.4763
 20
-7.12399
 11
40.5
 21
-7.5
  0
LINE
  8
0
 10
40.5
 20
-7.5
 11
40.4763
 21
-7.87599
  0
LINE
  8
0
 10
40.4763
 20
-7.87599
 11
40.4057
 21
-8.24606
  0
LINE
  8
0
 10
40.4057
 20
-8.24606
 11
40.2893
 21
-8.60437
  0
LINE
  8
0
 10
40.2893
 20
-8.60437
 11
40.1289
 21
-8.94525
  0
LINE
  8
0
 10
40.1289
 20
-8.94525
 11
39.927
 21
-9.26335
  0
LINE
  8
0
 10
39.927
 20
-9.26335
 11
39.6869
 21
-9.55363
  0
LINE
  8
0
 10
39.6869
 20
-9.55363
 11
39.4123
 21
-9.81154
  0
LINE
  8
0
 10
39.4123
 20
-9.81154
 11
39.1075
 21
-10.033
  0
LINE
  8
0
 10
39.1075
 20
-10.033
 11
38.7773
 21
-10.2145
  0
LINE
  8
0
 10
38.7773
 20
-10.2145
 11
38.427
 21
-10.3532
  0
LINE
  8
0
 10
38.427
 20
-10.3532
 11
38.0621
 21
-10.4469
  0
LINE
  8
0
 10
38.0621
 20
-10.4469
 11
37.6884
 21
-10.4941
  0
LINE
  8
0
 10
37.6884
 20
-10.4941
 11
37.3116
 21
-10.4941
  0
LINE
  8
0
 10
-37.6884
 20
-10.4941
 11
-38.0621
 21
-10.4469
  0
LINE
  8
0
 10
-38.0621
 20
-10.4469
 11
-38.427
 21
-10.3532
  0
LINE
  8
0
 10
-38.427
 20
-10.3532
 11
-38.7773
 21
-10.2145
  0
LINE
  8
0
 10
-38.7773
 20
-10.2145
 11
-39.1075
 21
-10.033
  0
LINE
  8
0
 10
-39.1075
 20
-10.033
 11
-39.4123
 21
-9.81154
  0
LINE
  8
0
 10
-39.4123
 20
-9.81154
 11
-39.6869
 21
-9.55363
  0
LINE
  8
0
 10
-39.6869
 20
-9.55363
 11
-39.927
 21
-9.26335
  0
LINE
  8
0
 10
-39.927
 20
-9.26335
 11
-40.1289
 21
-8.94525
  0
LINE
  8
0
 10
-40.1289
 20
-8.94525
 11
-40.2893
 21
-8.60437
  0
LINE
  8
0
 10
-40.2893
 20
-8.60437
 11
-40.4057
 21
-8.24606
  0
LINE
  8
0
 10
-40.4057
 20
-8.24606
 11
-40.4763
 21
-7.87599
  0
LINE
  8
0
 10
-40.4763
 20
-7.87599
 11
-40.5
 21
-7.5
  0
LINE
  8
0
 10
-40.5
 20
-7.5
 11
-40.4763
 21
-7.12399
  0
LINE
  8
0
 10
-40.4763
 20
-7.12399
 11
-40.4057
 21
-6.75392
  0
LINE
  8
0
 10
-40.4057
 20
-6.75392
 11
-40.2893
 21
-6.39561
  0
LINE
  8
0
 10
-40.2893
 20
-6.39561
 11
-40.1289
 21
-6.05473
  0
LINE
  8
0
 10
-40.1289
 20
-6.05473
 11
-39.927
 21
-5.73663
  0
LINE
  8
0
 10
-39.927
 20
-5.73663
 11
-39.6869
 21
-5.44635
  0
LINE
  8
0
 10
-39.6869
 20
-5.44635
 11
-39.4123
 21
-5.18845
  0
LINE
  8
0
 10
-39.4123
 20
-5.18845
 11
-39.1075
 21
-4.96701
  0
LINE
  8
0
 10
-39.1075
 20
-4.96701
 11
-38.7773
 21
-4.78551
  0
LINE
  8
0
 10
-38.7773
 20
-4.78551
 11
-38.427
 21
-4.64682
  0
LINE
  8
0
 10
-38.427
 20
-4.64682
 11
-38.0621
 21
-4.55313
  0
LINE
  8
0
 10
-38.0621
 20
-4.55313
 11
-37.6884
 21
-4.50591
  0
LINE
  8
0
 10
-37.6884
 20
-4.50591
 11
-37.3116
 21
-4.50591
  0
LINE
  8
0
 10
-37.3116
 20
-4.50591
 11
-36.9379
 21
-4.55313
  0
LINE
  8
0
 10
-36.9379
 20
-4.55313
 11
-36.5729
 21
-4.64682
  0
LINE
  8
0
 10
-36.5729
 20
-4.64682
 11
-36.2227
 21
-4.78551
  0
LINE
  8
0
 10
-36.2227
 20
-4.78551
 11
-35.8925
 21
-4.96701
  0
LINE
  8
0
 10
-35.8925
 20
-4.96701
 11
-35.5877
 21
-5.18845
  0
LINE
  8
0
 10
-35.5877
 20
-5.18845
 11
-35.3131
 21
-5.44635
  0
LINE
  8
0
 10
-35.3131
 20
-5.44635
 11
-35.0729
 21
-5.73663
  0
LINE
  8
0
 10
-35.0729
 20
-5.73663
 11
-34.8711
 21
-6.05473
  0
LINE
  8
0
 10
-34.8711
 20
-6.05473
 11
-34.7107
 21
-6.39561
  0
LINE
  8
0
 10
-34.7107
 20
-6.39561
 11
-34.5942
 21
-6.75392
  0
LINE
  8
0
 10
-34.5942
 20
-6.75392
 11
-34.5237
 21
-7.12399
  0
LINE
  8
0
 10
-34.5237
 20
-7.12399
 11
-34.5
 21
-7.5
  0
LINE
  8
0
 10
-34.5
 20
-7.5
 11
-34.5237
 21
-7.87599
  0
LINE
  8
0
 10
-34.5237
 20
-7.87599
 11
-34.5942
 21
-8.24606
  0
LINE
  8
0
 10
-34.5942
 20
-8.24606
 11
-34.7107
 21
-8.60437
  0
LINE
  8
0
 10
-34.7107
 20
-8.60437
 11
-34.8711
 21
-8.94525
  0
LINE
  8
0
 10
-34.8711
 20
-8.94525
 11
-35.0729
 21
-9.26335
  0
LINE
  8
0
 10
-35.0729
 20
-9.26335
 11
-35.3131
 21
-9.55363
  0
LINE
  8
0
 10
-35.3131
 20
-9.55363
 11
-35.5877
 21
-9.81154
  0
LINE
  8
0
 10
-35.5877
 20
-9.81154
 11
-35.8925
 21
-10.033
  0
LINE
  8
0
 10
-35.8925
 20
-10.033
 11
-36.2227
 21
-10.2145
  0
LINE
  8
0
 10
-36.2227
 20
-10.2145
 11
-36.5729
 21
-10.3532
  0
LINE
  8
0
 10
-36.5729
 20
-10.3532
 11
-36.9379
 21
-10.4469
  0
LINE
  8
0
 10
-36.9379
 20
-10.4469
 11
-37.3116
 21
-10.4941
  0
LINE
  8
0
 10
-37.3116
 20
-10.4941
 11
-37.6884
 21
-10.4941
  0
ENDSEC
  0
SECTION
  2
OBJECTS
  0
DICTIONARY
  0
ENDSEC
  0
EOF
