<?xml version="1.0" standalone="no"?>
<!DOCTYPE svg PUBLIC "-//W3C//DTD SVG 1.1//EN" "http://www.w3.org/Graphics/SVG/1.1/DTD/svg11.dtd">
<svg width="150mm" height="30mm" viewBox="-75 -15 150 30" xmlns="http://www.w3.org/2000/svg" version="1.1">
<title>OpenSCAD Model</title>
<path d="
M 70.4369,14.4114 L 71.0451,14.2553 L 71.6289,14.0241 L 72.1791,13.7216 L 72.6871,13.3526 L 73.1448,12.9227
 L 73.5451,12.4389 L 73.8815,11.9088 L 74.1489,11.3406 L 74.3429,10.7434 L 74.4606,10.1267 L 74.5,9.5
 L 74.5,-9.5 L 74.4606,-10.1267 L 74.3429,-10.7434 L 74.1489,-11.3406 L 73.8815,-11.9088 L 73.5451,-12.4389
 L 73.1448,-12.9227 L 72.6871,-13.3526 L 72.1791,-13.7216 L 71.6289,-14.0241 L 71.0451,-14.2553 L 70.4369,-14.4114
 L 69.8139,-14.4901 L -69.8139,-14.4901 L -70.4369,-14.4114 L -71.0451,-14.2553 L -71.6289,-14.0241 L -72.1791,-13.7216
 L -72.6871,-13.3526 L -73.1448,-12.9227 L -73.5451,-12.4389 L -73.8815,-11.9088 L -74.1489,-11.3406 L -74.3429,-10.7434
 L -74.4606,-10.1267 L -74.5,-9.5 L -74.5,9.5 L -74.4606,10.1267 L -74.3429,10.7434 L -74.1489,11.3406
 L -73.8815,11.9088 L -73.5451,12.4389 L -73.1448,12.9227 L -72.6871,13.3526 L -72.1791,13.7216 L -71.6289,14.0241
 L -71.0451,14.2553 L -70.4369,14.4114 L -69.8139,14.4901 L 69.8139,14.4901 z
M -67.6884,-4.50591 L -68.0621,-4.55313 L -68.427,-4.64682 L -68.7773,-4.78551 L -69.1075,-4.96701 L -69.4123,-5.18845
 L -69.6869,-5.44635 L -69.927,-5.73663 L -70.1289,-6.05473 L -70.2893,-6.39561 L -70.4057,-6.75392 L -70.4763,-7.12399
 L -70.5,-7.5 L -70.4763,-7.87599 L -70.4057,-8.24606 L -70.2893,-8.60437 L -70.1289,-8.94525 L -69.927,-9.26335
 L -69.6869,-9.55363 L -69.4123,-9.81154 L -69.1075,-10.033 L -68.7773,-10.2145 L -68.427,-10.3532 L -68.0621,-10.4469
 L -67.6884,-10.4941 L -67.3116,-10.4941 L -66.9379,-10.4469 L -66.573,-10.3532 L -66.2227,-10.2145 L -65.8925,-10.033
 L -65.5877,-9.81154 L -65.3131,-9.55363 L -65.073,-9.26335 L -64.8711,-8.94525 L -64.7107,-8.60437 L -64.5943,-8.24606
 L -64.5237,-7.87599 L -64.5,-7.5 L -64.5237,-7.12399 L -64.5943,-6.75392 L -64.7107,-6.39561 L -64.8711,-6.05473
 L -65.073,-5.73663 L -65.3131,-5.44635 L -65.5877,-5.18845 L -65.8925,-4.96701 L -66.2227,-4.78551 L -66.573,-4.64682
 L -66.9379,-4.55313 L -67.3116,-4.50591 z
M 67.3116,-4.50591 L 66.9379,-4.55313 L 66.573,-4.64682 L 66.2227,-4.78551 L 65.8925,-4.96701 L 65.5877,-5.18845
 L 65.3131,-5.44635 L 65.073,-5.73663 L 64.8711,-6.05473 L 64.7107,-6.39561 L 64.5943,-6.75392 L 64.5237,-7.12399
 L 64.5,-7.5 L 64.5237,-7.87599 L 64.5943,-8.24606 L 64.7107,-8.60437 L 64.8711,-8.94525 L 65.073,-9.26335
 L 65.3131,-9.55363 L 65.5877,-9.81154 L 65.8925,-10.033 L 66.2227,-10.2145 L 66.573,-10.3532 L 66.9379,-10.4469
 L 67.3116,-10.4941 L 67.6884,-10.4941 L 68.0621,-10.4469 L 68.427,-10.3532 L 68.7773,-10.2145 L 69.1075,-10.033
 L 69.4123,-9.81154 L 69.6869,-9.55363 L 69.927,-9.26335 L 70.1289,-8.94525 L 70.2893,-8.60437 L 70.4057,-8.24606
 L 70.4763,-7.87599 L 70.5,-7.5 L 70.4763,-7.12399 L 70.4057,-6.75392 L 70.2893,-6.39561 L 70.1289,-6.05473
 L 69.927,-5.73663 L 69.6869,-5.44635 L 69.4123,-5.18845 L 69.1075,-4.96701 L 68.7773,-4.78551 L 68.427,-4.64682
 L 68.0621,-4.55313 L 67.6884,-4.50591 z
M 47.4035,9.48125 L 46.2199,9.33173 L 45.0643,9.03503 L 43.9551,8.59586 L 42.9096,8.0211 L 41.9445,7.31987
 L 41.0748,6.50319 L 40.3143,5.58395 L 39.6751,4.57664 L 39.1671,3.49718 L 38.7984,2.36255 L 38.5749,1.19066
 L 38.5,-0 L 38.5749,-1.19066 L 38.7984,-2.36255 L 39.1671,-3.49718 L 39.6751,-4.57664 L 40.3143,-5.58395
 L 41.0748,-6.50319 L 41.9445,-7.31987 L 42.9096,-8.0211 L 43.9551,-8.59586 L 45.0643,-9.03503 L 46.2199,-9.33173
 L 47.4035,-9.48125 L 48.5965,-9.48125 L 49.7801,-9.33173 L 50.9357,-9.03503 L 52.0449,-8.59586 L 53.0903,-8.0211
 L 54.0555,-7.31987 L 54.9252,-6.50319 L 55.6857,-5.58395 L 56.3249,-4.57664 L 56.8329,-3.49718 L 57.2015,-2.36255
 L 57.4251,-1.19066 L 57.5,-0 L 57.4251,1.19066 L 57.2015,2.36255 L 56.8329,3.49718 L 56.3249,4.57664
 L 55.6857,5.58395 L 54.9252,6.50319 L 54.0555,7.31987 L 53.0903,8.0211 L 52.0449,8.59586 L 50.9357,9.03503
 L 49.7801,9.33173 L 48.5965,9.48125 z
M -0.596497,9.48125 L -1.78012,9.33173 L -2.93565,9.03503 L -4.04489,8.59586 L -5.09035,8.0211 L -6.05553,7.31987
 L -6.9252,6.50319 L -7.68565,5.58395 L -8.32491,4.57664 L -8.83287,3.49718 L -9.20154,2.36255 L -9.42508,1.19066
 L -9.5,-0 L -9.42508,-1.19066 L -9.20154,-2.36255 L -8.83287,-3.49718 L -8.32491,-4.57664 L -7.68565,-5.58395
 L -6.9252,-6.50319 L -6.05553,-7.31987 L -5.09035,-8.0211 L -4.04489,-8.59586 L -2.93565,-9.03503 L -1.78012,-9.33173
 L -0.596497,-9.48125 L 0.596497,-9.48125 L 1.78012,-9.33173 L 2.93565,-9.03503 L 4.04489,-8.59586 L 5.09035,-8.0211
 L 6.05553,-7.31987 L 6.9252,-6.50319 L 7.68565,-5.58395 L 8.32491,-4.57664 L 8.83287,-3.49718 L 9.20154,-2.36255
 L 9.42508,-1.19066 L 9.5,-0 L 9.42508,1.19066 L 9.20154,2.36255 L 8.83287,3.49718 L 8.32491,4.57664
 L 7.68565,5.58395 L 6.9252,6.50319 L 6.05553,7.31987 L 5.09035,8.0211 L 4.04489,8.59586 L 2.93565,9.03503
 L 1.78012,9.33173 L 0.596497,9.48125 z
M 23.4035,9.48125 L 22.2199,9.33173 L 21.0643,9.03503 L 19.9551,8.59586 L 18.9096,8.0211 L 17.9445,7.31987
 L 17.0748,6.50319 L 16.3143,5.58395 L 15.6751,4.57664 L 15.1671,3.49718 L 14.7984,2.36255 L 14.5749,1.19066
 L 14.5,-0 L 14.5749,-1.19066 L 14.7984,-2.36255 L 15.1671,-3.49718 L 15.6751,-4.57664 L 16.3143,-5.58395
 L 17.0748,-6.50319 L 17.9445,-7.31987 L 18.9096,-8.0211 L 19.9551,-8.59586 L 21.0643,-9.03503 L 22.2199,-9.33173
 L 23.4035,-9.48125 L 24.5965,-9.48125 L 25.7801,-9.33173 L 26.9357,-9.03503 L 28.0449,-8.59586 L 29.0903,-8.0211
 L 30.0555,-7.31987 L 30.9252,-6.50319 L 31.6857,-5.58395 L 32.3249,-4.57664 L 32.8329,-3.49718 L 33.2015,-2.36255
 L 33.4251,-1.19066 L 33.5,-0 L 33.4251,1.19066 L 33.2015,2.36255 L 32.8329,3.49718 L 32.3249,4.57664
 L 31.6857,5.58395 L 30.9252,6.50319 L 30.0555,7.31987 L 29.0903,8.0211 L 28.0449,8.59586 L 26.9357,9.03503
 L 25.7801,9.33173 L 24.5965,9.48125 z
M -24.5965,9.48125 L -25.7801,9.33173 L -26.9357,9.03503 L -28.0449,8.59586 L -29.0903,8.0211 L -30.0555,7.31987
 L -30.9252,6.50319 L -31.6857,5.58395 L -32.3249,4.57664 L -32.8329,3.49718 L -33.2015,2.36255 L -33.4251,1.19066
 L -33.5,-0 L -33.4251,-1.19066 L -33.2015,-2.36255 L -32.8329,-3.49718 L -32.3249,-4.57664 L -31.6857,-5.58395
 L -30.9252,-6.50319 L -30.0555,-7.31987 L -29.0903,-8.0211 L -28.0449,-8.59586 L -26.9357,-9.03503 L -25.7801,-9.33173
 L -24.5965,-9.48125 L -23.4035,-9.48125 L -22.2199,-9.33173 L -21.0643,-9.03503 L -19.9551,-8.59586 L -18.9096,-8.0211
 L -17.9445,-7.31987 L -17.0748,-6.50319 L -16.3143,-5.58395 L -15.6751,-4.57664 L -15.1671,-3.49718 L -14.7984,-2.36255
 L -14.5749,-1.19066 L -14.5,-0 L -14.5749,1.19066 L -14.7984,2.36255 L -15.1671,3.49718 L -15.6751,4.57664
 L -16.3143,5.58395 L -17.0748,6.50319 L -17.9445,7.31987 L -18.9096,8.0211 L -19.9551,8.59586 L -21.0643,9.03503
 L -22.2199,9.33173 L -23.4035,9.48125 z
M -48.5965,9.48125 L -49.7801,9.33173 L -50.9357,9.03503 L -52.0449,8.59586 L -53.0903,8.0211 L -54.0555,7.31987
 L -54.9252,6.50319 L -55.6857,5.58395 L -56.3249,4.57664 L -56.8329,3.49718 L -57.2015,2.36255 L -57.4251,1.19066
 L -57.5,-0 L -57.4251,-1.19066 L -57.2015,-2.36255 L -56.8329,-3.49718 L -56.3249,-4.57664 L -55.6857,-5.58395
 L -54.9252,-6.50319 L -54.0555,-7.31987 L -53.0903,-8.0211 L -52.0449,-8.59586 L -50.9357,-9.03503 L -49.7801,-9.33173
 L -48.5965,-9.48125 L -47.4035,-9.48125 L -46.2199,-9.33173 L -45.0643,-9.03503 L -43.9551,-8.59586 L -42.9096,-8.0211
 L -41.9445,-7.31987 L -41.0748,-6.50319 L -40.3143,-5.58395 L -39.6751,-4.57664 L -39.1671,-3.49718 L -38.7984,-2.36255
 L -38.5749,-1.19066 L -38.5,-0 L -38.5749,1.19066 L -38.7984,2.36255 L -39.1671,3.49718 L -39.6751,4.57664
 L -40.3143,5.58395 L -41.0748,6.50319 L -41.9445,7.31987 L -42.9096,8.0211 L -43.9551,8.59586 L -45.0643,9.03503
 L -46.2199,9.33173 L -47.4035,9.48125 z
M 67.4058,1.49704 L 67.2189,1.47342 L 67.0365,1.42657 L 66.8613,1.35724 L 66.6963,1.26648 L 66.5439,1.15576
 L 66.4065,1.02681 L 66.2865,0.881668 L 66.1855,0.722626 L 66.1053,0.552185 L 66.0471,0.373032 L 66.0118,0.187988
 L 66,-0 L 66.0118,-0.187988 L 66.0471,-0.373032 L 66.1053,-0.552185 L 66.1855,-0.722626 L 66.2865,-0.881668
 L 66.4065,-1.02681 L 66.5439,-1.15576 L 66.6963,-1.26648 L 66.8613,-1.35724 L 67.0365,-1.42657 L 67.2189,-1.47342
 L 67.4058,-1.49704 L 67.5942,-1.49704 L 67.7811,-1.47342 L 67.9635,-1.42657 L 68.1387,-1.35724 L 68.3037,-1.26648
 L 68.4561,-1.15576 L 68.5934,-1.02681 L 68.7135,-0.881668 L 68.8145,-0.722626 L 68.8947,-0.552185 L 68.9529,-0.373032
 L 68.9882,-0.187988 L 69,-0 L 68.9882,0.187988 L 68.9529,0.373032 L 68.8947,0.552185 L 68.8145,0.722626
 L 68.7135,0.881668 L 68.5934,1.02681 L 68.4561,1.15576 L 68.3037,1.26648 L 68.1387,1.35724 L 67.9635,1.42657
 L 67.7811,1.47342 L 67.5942,1.49704 z
M -67.5942,1.49704 L -67.7811,1.47342 L -67.9635,1.42657 L -68.1387,1.35724 L -68.3037,1.26648 L -68.4561,1.15576
 L -68.5934,1.02681 L -68.7135,0.881668 L -68.8145,0.722626 L -68.8947,0.552185 L -68.9529,0.373032 L -68.9882,0.187988
 L -69,-0 L -68.9882,-0.187988 L -68.9529,-0.373032 L -68.8947,-0.552185 L -68.8145,-0.722626 L -68.7135,-0.881668
 L -68.5934,-1.02681 L -68.4561,-1.15576 L -68.3037,-1.26648 L -68.1387,-1.35724 L -67.9635,-1.42657 L -67.7811,-1.47342
 L -67.5942,-1.49704 L -67.4058,-1.49704 L -67.2189,-1.47342 L -67.0365,-1.42657 L -66.8613,-1.35724 L -66.6963,-1.26648
 L -66.5439,-1.15576 L -66.4065,-1.02681 L -66.2865,-0.881668 L -66.1855,-0.722626 L -66.1053,-0.552185 L -66.0471,-0.373032
 L -66.0118,-0.187988 L -66,-0 L -66.0118,0.187988 L -66.0471,0.373032 L -66.1053,0.552185 L -66.1855,0.722626
 L -66.2865,0.881668 L -66.4065,1.02681 L -66.5439,1.15576 L -66.6963,1.26648 L -66.8613,1.35724 L -67.0365,1.42657
 L -67.2189,1.47342 L -67.4058,1.49704 z
M -67.6884,10.4941 L -68.0621,10.4469 L -68.427,10.3532 L -68.7773,10.2145 L -69.1075,10.033 L -69.4123,9.81154
 L -69.6869,9.55363 L -69.927,9.26335 L -70.1289,8.94525 L -70.2893,8.60437 L -70.4057,8.24606 L -70.4763,7.87599
 L -70.5,7.5 L -70.4763,7.12399 L -70.4057,6.75392 L -70.2893,6.39561 L -70.1289,6.05473 L -69.927,5.73663
 L -69.6869,5.44635 L -69.4123,5.18845 L -69.1075,4.96701 L -68.7773,4.78551 L -68.427,4.64682 L -68.0621,4.55313
 L -67.6884,4.50591 L -67.3116,4.50591 L -66.9379,4.55313 L -66.573,4.64682 L -66.2227,4.78551 L -65.8925,4.96701
 L -65.5877,5.18845 L -65.3131,5.44635 L -65.073,5.73663 L -64.8711,6.05473 L -64.7107,6.39561 L -64.5943,6.75392
 L -64.5237,7.12399 L -64.5,7.5 L -64.5237,7.87599 L -64.5943,8.24606 L -64.7107,8.60437 L -64.8711,8.94525
 L -65.073,9.26335 L -65.3131,9.55363 L -65.5877,9.81154 L -65.8925,10.033 L -66.2227,10.2145 L -66.573,10.3532
 L -66.9379,10.4469 L -67.3116,10.4941 z
M 67.3116,10.4941 L 66.9379,10.4469 L 66.573,10.3532 L 66.2227,10.2145 L 65.8925,10.033 L 65.5877,9.81154
 L 65.3131,9.55363 L 65.073,9.26335 L 64.8711,8.94525 L 64.7107,8.60437 L 64.5943,8.24606 L 64.5237,7.87599
 L 64.5,7.5 L 64.5237,7.12399 L 64.5943,6.75392 L 64.7107,6.39561 L 64.8711,6.05473 L 65.073,5.73663
 L 65.3131,5.44635 L 65.5877,5.18845 L 65.8925,4.96701 L 66.2227,4.78551 L 66.573,4.64682 L 66.9379,4.55313
 L 67.3116,4.50591 L 67.6884,4.50591 L 68.0621,4.55313 L 68.427,4.64682 L 68.7773,4.78551 L 69.1075,4.96701
 L 69.4123,5.18845 L 69.6869,5.44635 L 69.927,5.73663 L 70.1289,6.05473 L 70.2893,6.39561 L 70.4057,6.75392
 L 70.4763,7.12399 L 70.5,7.5 L 70.4763,7.87599 L 70.4057,8.24606 L 70.2893,8.60437 L 70.1289,8.94525
 L 69.927,9.26335 L 69.6869,9.55363 L 69.4123,9.81154 L 69.1075,10.033 L 68.7773,10.2145 L 68.427,10.3532
 L 68.0621,10.4469 L 67.6884,10.4941 z
" stroke="black" fill="lightgray" stroke-width="0.5"/>
</svg>
