  0
SECTION
  2
BLOCKS
  0
ENDSEC
  0
SECTION
  2
ENTITIES
  0
LINE
  8
0
 10
92.9369
 20
-44.4114
 11
93.5451
 21
-44.2553
  0
LINE
  8
0
 10
93.5451
 20
-44.2553
 11
94.1289
 21
-44.0241
  0
LINE
  8
0
 10
94.1289
 20
-44.0241
 11
94.6791
 21
-43.7216
  0
LINE
  8
0
 10
94.6791
 20
-43.7216
 11
95.1871
 21
-43.3526
  0
LINE
  8
0
 10
95.1871
 20
-43.3526
 11
95.6448
 21
-42.9227
  0
LINE
  8
0
 10
95.6448
 20
-42.9227
 11
96.0451
 21
-42.4389
  0
LINE
  8
0
 10
96.0451
 20
-42.4389
 11
96.3815
 21
-41.9088
  0
LINE
  8
0
 10
96.3815
 20
-41.9088
 11
96.6489
 21
-41.3406
  0
LINE
  8
0
 10
96.6489
 20
-41.3406
 11
96.8429
 21
-40.7434
  0
LINE
  8
0
 10
96.8429
 20
-40.7434
 11
96.9606
 21
-40.1267
  0
LINE
  8
0
 10
96.9606
 20
-40.1267
 11
97
 21
-39.5
  0
LINE
  8
0
 10
97
 20
-39.5
 11
97
 21
39.5
  0
LINE
  8
0
 10
97
 20
39.5
 11
96.9606
 21
40.1267
  0
LINE
  8
0
 10
96.9606
 20
40.1267
 11
96.8429
 21
40.7434
  0
LINE
  8
0
 10
96.8429
 20
40.7434
 11
96.6489
 21
41.3406
  0
LINE
  8
0
 10
96.6489
 20
41.3406
 11
96.3815
 21
41.9088
  0
LINE
  8
0
 10
96.3815
 20
41.9088
 11
96.0451
 21
42.4389
  0
LINE
  8
0
 10
96.0451
 20
42.4389
 11
95.6448
 21
42.9227
  0
LINE
  8
0
 10
95.6448
 20
42.9227
 11
95.1871
 21
43.3526
  0
LINE
  8
0
 10
95.1871
 20
43.3526
 11
94.6791
 21
43.7216
  0
LINE
  8
0
 10
94.6791
 20
43.7216
 11
94.1289
 21
44.0241
  0
LINE
  8
0
 10
94.1289
 20
44.0241
 11
93.5451
 21
44.2553
  0
LINE
  8
0
 10
93.5451
 20
44.2553
 11
92.9369
 21
44.4114
  0
LINE
  8
0
 10
92.9369
 20
44.4114
 11
92.3139
 21
44.4901
  0
LINE
  8
0
 10
92.3139
 20
44.4901
 11
-92.3139
 21
44.4901
  0
LINE
  8
0
 10
-92.3139
 20
44.4901
 11
-92.9369
 21
44.4114
  0
LINE
  8
0
 10
-92.9369
 20
44.4114
 11
-93.5451
 21
44.2553
  0
LINE
  8
0
 10
-93.5451
 20
44.2553
 11
-94.1289
 21
44.0241
  0
LINE
  8
0
 10
-94.1289
 20
44.0241
 11
-94.6791
 21
43.7216
  0
LINE
  8
0
 10
-94.6791
 20
43.7216
 11
-95.1871
 21
43.3526
  0
LINE
  8
0
 10
-95.1871
 20
43.3526
 11
-95.6448
 21
42.9227
  0
LINE
  8
0
 10
-95.6448
 20
42.9227
 11
-96.0451
 21
42.4389
  0
LINE
  8
0
 10
-96.0451
 20
42.4389
 11
-96.3815
 21
41.9088
  0
LINE
  8
0
 10
-96.3815
 20
41.9088
 11
-96.6489
 21
41.3406
  0
LINE
  8
0
 10
-96.6489
 20
41.3406
 11
-96.8429
 21
40.7434
  0
LINE
  8
0
 10
-96.8429
 20
40.7434
 11
-96.9606
 21
40.1267
  0
LINE
  8
0
 10
-96.9606
 20
40.1267
 11
-97
 21
39.5
  0
LINE
  8
0
 10
-97
 20
39.5
 11
-97
 21
-39.5
  0
LINE
  8
0
 10
-97
 20
-39.5
 11
-96.9606
 21
-40.1267
  0
LINE
  8
0
 10
-96.9606
 20
-40.1267
 11
-96.8429
 21
-40.7434
  0
LINE
  8
0
 10
-96.8429
 20
-40.7434
 11
-96.6489
 21
-41.3406
  0
LINE
  8
0
 10
-96.6489
 20
-41.3406
 11
-96.3815
 21
-41.9088
  0
LINE
  8
0
 10
-96.3815
 20
-41.9088
 11
-96.0451
 21
-42.4389
  0
LINE
  8
0
 10
-96.0451
 20
-42.4389
 11
-95.6448
 21
-42.9227
  0
LINE
  8
0
 10
-95.6448
 20
-42.9227
 11
-95.1871
 21
-43.3526
  0
LINE
  8
0
 10
-95.1871
 20
-43.3526
 11
-94.6791
 21
-43.7216
  0
LINE
  8
0
 10
-94.6791
 20
-43.7216
 11
-94.1289
 21
-44.0241
  0
LINE
  8
0
 10
-94.1289
 20
-44.0241
 11
-93.5451
 21
-44.2553
  0
LINE
  8
0
 10
-93.5451
 20
-44.2553
 11
-92.9369
 21
-44.4114
  0
LINE
  8
0
 10
-92.9369
 20
-44.4114
 11
-92.3139
 21
-44.4901
  0
LINE
  8
0
 10
-92.3139
 20
-44.4901
 11
92.3139
 21
-44.4901
  0
LINE
  8
0
 10
92.3139
 20
-44.4901
 11
92.9369
 21
-44.4114
  0
LINE
  8
0
 10
-90.1884
 20
34.5059
 11
-90.5621
 21
34.5531
  0
LINE
  8
0
 10
-90.5621
 20
34.5531
 11
-90.927
 21
34.6468
  0
LINE
  8
0
 10
-90.927
 20
34.6468
 11
-91.2773
 21
34.7855
  0
LINE
  8
0
 10
-91.2773
 20
34.7855
 11
-91.6075
 21
34.967
  0
LINE
  8
0
 10
-91.6075
 20
34.967
 11
-91.9123
 21
35.1885
  0
LINE
  8
0
 10
-91.9123
 20
35.1885
 11
-92.1869
 21
35.4464
  0
LINE
  8
0
 10
-92.1869
 20
35.4464
 11
-92.427
 21
35.7366
  0
LINE
  8
0
 10
-92.427
 20
35.7366
 11
-92.6289
 21
36.0547
  0
LINE
  8
0
 10
-92.6289
 20
36.0547
 11
-92.7893
 21
36.3956
  0
LINE
  8
0
 10
-92.7893
 20
36.3956
 11
-92.9057
 21
36.7539
  0
LINE
  8
0
 10
-92.9057
 20
36.7539
 11
-92.9763
 21
37.124
  0
LINE
  8
0
 10
-92.9763
 20
37.124
 11
-93
 21
37.5
  0
LINE
  8
0
 10
-93
 20
37.5
 11
-92.9763
 21
37.876
  0
LINE
  8
0
 10
-92.9763
 20
37.876
 11
-92.9057
 21
38.2461
  0
LINE
  8
0
 10
-92.9057
 20
38.2461
 11
-92.7893
 21
38.6044
  0
LINE
  8
0
 10
-92.7893
 20
38.6044
 11
-92.6289
 21
38.9453
  0
LINE
  8
0
 10
-92.6289
 20
38.9453
 11
-92.427
 21
39.2634
  0
LINE
  8
0
 10
-92.427
 20
39.2634
 11
-92.1869
 21
39.5536
  0
LINE
  8
0
 10
-92.1869
 20
39.5536
 11
-91.9123
 21
39.8115
  0
LINE
  8
0
 10
-91.9123
 20
39.8115
 11
-91.6075
 21
40.033
  0
LINE
  8
0
 10
-91.6075
 20
40.033
 11
-91.2773
 21
40.2145
  0
LINE
  8
0
 10
-91.2773
 20
40.2145
 11
-90.927
 21
40.3532
  0
LINE
  8
0
 10
-90.927
 20
40.3532
 11
-90.5621
 21
40.4469
  0
LINE
  8
0
 10
-90.5621
 20
40.4469
 11
-90.1884
 21
40.4941
  0
LINE
  8
0
 10
-90.1884
 20
40.4941
 11
-89.8116
 21
40.4941
  0
LINE
  8
0
 10
-89.8116
 20
40.4941
 11
-89.4379
 21
40.4469
  0
LINE
  8
0
 10
-89.4379
 20
40.4469
 11
-89.073
 21
40.3532
  0
LINE
  8
0
 10
-89.073
 20
40.3532
 11
-88.7227
 21
40.2145
  0
LINE
  8
0
 10
-88.7227
 20
40.2145
 11
-88.3925
 21
40.033
  0
LINE
  8
0
 10
-88.3925
 20
40.033
 11
-88.0877
 21
39.8115
  0
LINE
  8
0
 10
-88.0877
 20
39.8115
 11
-87.8131
 21
39.5536
  0
LINE
  8
0
 10
-87.8131
 20
39.5536
 11
-87.573
 21
39.2634
  0
LINE
  8
0
 10
-87.573
 20
39.2634
 11
-87.3711
 21
38.9453
  0
LINE
  8
0
 10
-87.3711
 20
38.9453
 11
-87.2107
 21
38.6044
  0
LINE
  8
0
 10
-87.2107
 20
38.6044
 11
-87.0943
 21
38.2461
  0
LINE
  8
0
 10
-87.0943
 20
38.2461
 11
-87.0237
 21
37.876
  0
LINE
  8
0
 10
-87.0237
 20
37.876
 11
-87
 21
37.5
  0
LINE
  8
0
 10
-87
 20
37.5
 11
-87.0237
 21
37.124
  0
LINE
  8
0
 10
-87.0237
 20
37.124
 11
-87.0943
 21
36.7539
  0
LINE
  8
0
 10
-87.0943
 20
36.7539
 11
-87.2107
 21
36.3956
  0
LINE
  8
0
 10
-87.2107
 20
36.3956
 11
-87.3711
 21
36.0547
  0
LINE
  8
0
 10
-87.3711
 20
36.0547
 11
-87.573
 21
35.7366
  0
LINE
  8
0
 10
-87.573
 20
35.7366
 11
-87.8131
 21
35.4464
  0
LINE
  8
0
 10
-87.8131
 20
35.4464
 11
-88.0877
 21
35.1885
  0
LINE
  8
0
 10
-88.0877
 20
35.1885
 11
-88.3925
 21
34.967
  0
LINE
  8
0
 10
-88.3925
 20
34.967
 11
-88.7227
 21
34.7855
  0
LINE
  8
0
 10
-88.7227
 20
34.7855
 11
-89.073
 21
34.6468
  0
LINE
  8
0
 10
-89.073
 20
34.6468
 11
-89.4379
 21
34.5531
  0
LINE
  8
0
 10
-89.4379
 20
34.5531
 11
-89.8116
 21
34.5059
  0
LINE
  8
0
 10
-89.8116
 20
34.5059
 11
-90.1884
 21
34.5059
  0
LINE
  8
0
 10
89.8116
 20
34.5059
 11
89.4379
 21
34.5531
  0
LINE
  8
0
 10
89.4379
 20
34.5531
 11
89.073
 21
34.6468
  0
LINE
  8
0
 10
89.073
 20
34.6468
 11
88.7227
 21
34.7855
  0
LINE
  8
0
 10
88.7227
 20
34.7855
 11
88.3925
 21
34.967
  0
LINE
  8
0
 10
88.3925
 20
34.967
 11
88.0877
 21
35.1885
  0
LINE
  8
0
 10
88.0877
 20
35.1885
 11
87.8131
 21
35.4464
  0
LINE
  8
0
 10
87.8131
 20
35.4464
 11
87.573
 21
35.7366
  0
LINE
  8
0
 10
87.573
 20
35.7366
 11
87.3711
 21
36.0547
  0
LINE
  8
0
 10
87.3711
 20
36.0547
 11
87.2107
 21
36.3956
  0
LINE
  8
0
 10
87.2107
 20
36.3956
 11
87.0943
 21
36.7539
  0
LINE
  8
0
 10
87.0943
 20
36.7539
 11
87.0237
 21
37.124
  0
LINE
  8
0
 10
87.0237
 20
37.124
 11
87
 21
37.5
  0
LINE
  8
0
 10
87
 20
37.5
 11
87.0237
 21
37.876
  0
LINE
  8
0
 10
87.0237
 20
37.876
 11
87.0943
 21
38.2461
  0
LINE
  8
0
 10
87.0943
 20
38.2461
 11
87.2107
 21
38.6044
  0
LINE
  8
0
 10
87.2107
 20
38.6044
 11
87.3711
 21
38.9453
  0
LINE
  8
0
 10
87.3711
 20
38.9453
 11
87.573
 21
39.2634
  0
LINE
  8
0
 10
87.573
 20
39.2634
 11
87.8131
 21
39.5536
  0
LINE
  8
0
 10
87.8131
 20
39.5536
 11
88.0877
 21
39.8115
  0
LINE
  8
0
 10
88.0877
 20
39.8115
 11
88.3925
 21
40.033
  0
LINE
  8
0
 10
88.3925
 20
40.033
 11
88.7227
 21
40.2145
  0
LINE
  8
0
 10
88.7227
 20
40.2145
 11
89.073
 21
40.3532
  0
LINE
  8
0
 10
89.073
 20
40.3532
 11
89.4379
 21
40.4469
  0
LINE
  8
0
 10
89.4379
 20
40.4469
 11
89.8116
 21
40.4941
  0
LINE
  8
0
 10
89.8116
 20
40.4941
 11
90.1884
 21
40.4941
  0
LINE
  8
0
 10
90.1884
 20
40.4941
 11
90.5621
 21
40.4469
  0
LINE
  8
0
 10
90.5621
 20
40.4469
 11
90.927
 21
40.3532
  0
LINE
  8
0
 10
90.927
 20
40.3532
 11
91.2773
 21
40.2145
  0
LINE
  8
0
 10
91.2773
 20
40.2145
 11
91.6075
 21
40.033
  0
LINE
  8
0
 10
91.6075
 20
40.033
 11
91.9123
 21
39.8115
  0
LINE
  8
0
 10
91.9123
 20
39.8115
 11
92.1869
 21
39.5536
  0
LINE
  8
0
 10
92.1869
 20
39.5536
 11
92.427
 21
39.2634
  0
LINE
  8
0
 10
92.427
 20
39.2634
 11
92.6289
 21
38.9453
  0
LINE
  8
0
 10
92.6289
 20
38.9453
 11
92.7893
 21
38.6044
  0
LINE
  8
0
 10
92.7893
 20
38.6044
 11
92.9057
 21
38.2461
  0
LINE
  8
0
 10
92.9057
 20
38.2461
 11
92.9763
 21
37.876
  0
LINE
  8
0
 10
92.9763
 20
37.876
 11
93
 21
37.5
  0
LINE
  8
0
 10
93
 20
37.5
 11
92.9763
 21
37.124
  0
LINE
  8
0
 10
92.9763
 20
37.124
 11
92.9057
 21
36.7539
  0
LINE
  8
0
 10
92.9057
 20
36.7539
 11
92.7893
 21
36.3956
  0
LINE
  8
0
 10
92.7893
 20
36.3956
 11
92.6289
 21
36.0547
  0
LINE
  8
0
 10
92.6289
 20
36.0547
 11
92.427
 21
35.7366
  0
LINE
  8
0
 10
92.427
 20
35.7366
 11
92.1869
 21
35.4464
  0
LINE
  8
0
 10
92.1869
 20
35.4464
 11
91.9123
 21
35.1885
  0
LINE
  8
0
 10
91.9123
 20
35.1885
 11
91.6075
 21
34.967
  0
LINE
  8
0
 10
91.6075
 20
34.967
 11
91.2773
 21
34.7855
  0
LINE
  8
0
 10
91.2773
 20
34.7855
 11
90.927
 21
34.6468
  0
LINE
  8
0
 10
90.927
 20
34.6468
 11
90.5621
 21
34.5531
  0
LINE
  8
0
 10
90.5621
 20
34.5531
 11
90.1884
 21
34.5059
  0
LINE
  8
0
 10
90.1884
 20
34.5059
 11
89.8116
 21
34.5059
  0
LINE
  8
0
 10
-43.9488
 20
-38.923
 11
-48.8079
 21
-38.3092
  0
LINE
  8
0
 10
-48.8079
 20
-38.3092
 11
-53.5517
 21
-37.0912
  0
LINE
  8
0
 10
-53.5517
 20
-37.0912
 11
-58.1054
 21
-35.2883
  0
LINE
  8
0
 10
-58.1054
 20
-35.2883
 11
-62.3972
 21
-32.9288
  0
LINE
  8
0
 10
-62.3972
 20
-32.9288
 11
-66.3595
 21
-30.05
  0
LINE
  8
0
 10
-66.3595
 20
-30.05
 11
-69.9298
 21
-26.6973
  0
LINE
  8
0
 10
-69.9298
 20
-26.6973
 11
-73.0517
 21
-22.9236
  0
LINE
  8
0
 10
-73.0517
 20
-22.9236
 11
-75.6759
 21
-18.7884
  0
LINE
  8
0
 10
-75.6759
 20
-18.7884
 11
-77.7613
 21
-14.3569
  0
LINE
  8
0
 10
-77.7613
 20
-14.3569
 11
-79.2747
 21
-9.6989
  0
LINE
  8
0
 10
-79.2747
 20
-9.6989
 11
-80.1925
 21
-4.88799
  0
LINE
  8
0
 10
-80.1925
 20
-4.88799
 11
-80.5
 21
0
  0
LINE
  8
0
 10
-80.5
 20
0
 11
-80.1925
 21
4.88799
  0
LINE
  8
0
 10
-80.1925
 20
4.88799
 11
-79.2747
 21
9.6989
  0
LINE
  8
0
 10
-79.2747
 20
9.6989
 11
-77.7613
 21
14.3569
  0
LINE
  8
0
 10
-77.7613
 20
14.3569
 11
-75.6759
 21
18.7884
  0
LINE
  8
0
 10
-75.6759
 20
18.7884
 11
-73.0517
 21
22.9236
  0
LINE
  8
0
 10
-73.0517
 20
22.9236
 11
-69.9298
 21
26.6973
  0
LINE
  8
0
 10
-69.9298
 20
26.6973
 11
-66.3595
 21
30.05
  0
LINE
  8
0
 10
-66.3595
 20
30.05
 11
-62.3972
 21
32.9288
  0
LINE
  8
0
 10
-62.3972
 20
32.9288
 11
-58.1054
 21
35.2883
  0
LINE
  8
0
 10
-58.1054
 20
35.2883
 11
-53.5517
 21
37.0912
  0
LINE
  8
0
 10
-53.5517
 20
37.0912
 11
-48.8079
 21
38.3092
  0
LINE
  8
0
 10
-48.8079
 20
38.3092
 11
-43.9488
 21
38.923
  0
LINE
  8
0
 10
-43.9488
 20
38.923
 11
-39.0512
 21
38.923
  0
LINE
  8
0
 10
-39.0512
 20
38.923
 11
-34.1921
 21
38.3092
  0
LINE
  8
0
 10
-34.1921
 20
38.3092
 11
-29.4483
 21
37.0912
  0
LINE
  8
0
 10
-29.4483
 20
37.0912
 11
-24.8946
 21
35.2883
  0
LINE
  8
0
 10
-24.8946
 20
35.2883
 11
-20.6028
 21
32.9288
  0
LINE
  8
0
 10
-20.6028
 20
32.9288
 11
-16.6405
 21
30.05
  0
LINE
  8
0
 10
-16.6405
 20
30.05
 11
-13.0702
 21
26.6973
  0
LINE
  8
0
 10
-13.0702
 20
26.6973
 11
-9.94833
 21
22.9236
  0
LINE
  8
0
 10
-9.94833
 20
22.9236
 11
-7.32404
 21
18.7884
  0
LINE
  8
0
 10
-7.32404
 20
18.7884
 11
-5.23871
 21
14.3569
  0
LINE
  8
0
 10
-5.23871
 20
14.3569
 11
-3.72525
 21
9.6989
  0
LINE
  8
0
 10
-3.72525
 20
9.6989
 11
-2.80753
 21
4.88799
  0
LINE
  8
0
 10
-2.80753
 20
4.88799
 11
-2.5
 21
0
  0
LINE
  8
0
 10
-2.5
 20
0
 11
-2.80753
 21
-4.88799
  0
LINE
  8
0
 10
-2.80753
 20
-4.88799
 11
-3.72525
 21
-9.6989
  0
LINE
  8
0
 10
-3.72525
 20
-9.6989
 11
-5.23871
 21
-14.3569
  0
LINE
  8
0
 10
-5.23871
 20
-14.3569
 11
-7.32404
 21
-18.7884
  0
LINE
  8
0
 10
-7.32404
 20
-18.7884
 11
-9.94833
 21
-22.9236
  0
LINE
  8
0
 10
-9.94833
 20
-22.9236
 11
-13.0702
 21
-26.6973
  0
LINE
  8
0
 10
-13.0702
 20
-26.6973
 11
-16.6405
 21
-30.05
  0
LINE
  8
0
 10
-16.6405
 20
-30.05
 11
-20.6028
 21
-32.9288
  0
LINE
  8
0
 10
-20.6028
 20
-32.9288
 11
-24.8946
 21
-35.2883
  0
LINE
  8
0
 10
-24.8946
 20
-35.2883
 11
-29.4483
 21
-37.0912
  0
LINE
  8
0
 10
-29.4483
 20
-37.0912
 11
-34.1921
 21
-38.3092
  0
LINE
  8
0
 10
-34.1921
 20
-38.3092
 11
-39.0512
 21
-38.923
  0
LINE
  8
0
 10
-39.0512
 20
-38.923
 11
-43.9488
 21
-38.923
  0
LINE
  8
0
 10
39.0512
 20
-38.923
 11
34.1921
 21
-38.3092
  0
LINE
  8
0
 10
34.1921
 20
-38.3092
 11
29.4483
 21
-37.0912
  0
LINE
  8
0
 10
29.4483
 20
-37.0912
 11
24.8946
 21
-35.2883
  0
LINE
  8
0
 10
24.8946
 20
-35.2883
 11
20.6028
 21
-32.9288
  0
LINE
  8
0
 10
20.6028
 20
-32.9288
 11
16.6405
 21
-30.05
  0
LINE
  8
0
 10
16.6405
 20
-30.05
 11
13.0702
 21
-26.6973
  0
LINE
  8
0
 10
13.0702
 20
-26.6973
 11
9.94833
 21
-22.9236
  0
LINE
  8
0
 10
9.94833
 20
-22.9236
 11
7.32404
 21
-18.7884
  0
LINE
  8
0
 10
7.32404
 20
-18.7884
 11
5.23871
 21
-14.3569
  0
LINE
  8
0
 10
5.23871
 20
-14.3569
 11
3.72525
 21
-9.6989
  0
LINE
  8
0
 10
3.72525
 20
-9.6989
 11
2.80753
 21
-4.88799
  0
LINE
  8
0
 10
2.80753
 20
-4.88799
 11
2.5
 21
0
  0
LINE
  8
0
 10
2.5
 20
0
 11
2.80753
 21
4.88799
  0
LINE
  8
0
 10
2.80753
 20
4.88799
 11
3.72525
 21
9.6989
  0
LINE
  8
0
 10
3.72525
 20
9.6989
 11
5.23871
 21
14.3569
  0
LINE
  8
0
 10
5.23871
 20
14.3569
 11
7.32404
 21
18.7884
  0
LINE
  8
0
 10
7.32404
 20
18.7884
 11
9.94833
 21
22.9236
  0
LINE
  8
0
 10
9.94833
 20
22.9236
 11
13.0702
 21
26.6973
  0
LINE
  8
0
 10
13.0702
 20
26.6973
 11
16.6405
 21
30.05
  0
LINE
  8
0
 10
16.6405
 20
30.05
 11
20.6028
 21
32.9288
  0
LINE
  8
0
 10
20.6028
 20
32.9288
 11
24.8946
 21
35.2883
  0
LINE
  8
0
 10
24.8946
 20
35.2883
 11
29.4483
 21
37.0912
  0
LINE
  8
0
 10
29.4483
 20
37.0912
 11
34.1921
 21
38.3092
  0
LINE
  8
0
 10
34.1921
 20
38.3092
 11
39.0512
 21
38.923
  0
LINE
  8
0
 10
39.0512
 20
38.923
 11
43.9488
 21
38.923
  0
LINE
  8
0
 10
43.9488
 20
38.923
 11
48.8079
 21
38.3092
  0
LINE
  8
0
 10
48.8079
 20
38.3092
 11
53.5517
 21
37.0912
  0
LINE
  8
0
 10
53.5517
 20
37.0912
 11
58.1054
 21
35.2883
  0
LINE
  8
0
 10
58.1054
 20
35.2883
 11
62.3972
 21
32.9288
  0
LINE
  8
0
 10
62.3972
 20
32.9288
 11
66.3595
 21
30.05
  0
LINE
  8
0
 10
66.3595
 20
30.05
 11
69.9298
 21
26.6973
  0
LINE
  8
0
 10
69.9298
 20
26.6973
 11
73.0517
 21
22.9236
  0
LINE
  8
0
 10
73.0517
 20
22.9236
 11
75.6759
 21
18.7884
  0
LINE
  8
0
 10
75.6759
 20
18.7884
 11
77.7613
 21
14.3569
  0
LINE
  8
0
 10
77.7613
 20
14.3569
 11
79.2747
 21
9.6989
  0
LINE
  8
0
 10
79.2747
 20
9.6989
 11
80.1925
 21
4.88799
  0
LINE
  8
0
 10
80.1925
 20
4.88799
 11
80.5
 21
0
  0
LINE
  8
0
 10
80.5
 20
0
 11
80.1925
 21
-4.88799
  0
LINE
  8
0
 10
80.1925
 20
-4.88799
 11
79.2747
 21
-9.6989
  0
LINE
  8
0
 10
79.2747
 20
-9.6989
 11
77.7613
 21
-14.3569
  0
LINE
  8
0
 10
77.7613
 20
-14.3569
 11
75.6759
 21
-18.7884
  0
LINE
  8
0
 10
75.6759
 20
-18.7884
 11
73.0517
 21
-22.9236
  0
LINE
  8
0
 10
73.0517
 20
-22.9236
 11
69.9298
 21
-26.6973
  0
LINE
  8
0
 10
69.9298
 20
-26.6973
 11
66.3595
 21
-30.05
  0
LINE
  8
0
 10
66.3595
 20
-30.05
 11
62.3972
 21
-32.9288
  0
LINE
  8
0
 10
62.3972
 20
-32.9288
 11
58.1054
 21
-35.2883
  0
LINE
  8
0
 10
58.1054
 20
-35.2883
 11
53.5517
 21
-37.0912
  0
LINE
  8
0
 10
53.5517
 20
-37.0912
 11
48.8079
 21
-38.3092
  0
LINE
  8
0
 10
48.8079
 20
-38.3092
 11
43.9488
 21
-38.923
  0
LINE
  8
0
 10
43.9488
 20
-38.923
 11
39.0512
 21
-38.923
  0
LINE
  8
0
 10
89.9058
 20
28.503
 11
89.7189
 21
28.5266
  0
LINE
  8
0
 10
89.7189
 20
28.5266
 11
89.5365
 21
28.5734
  0
LINE
  8
0
 10
89.5365
 20
28.5734
 11
89.3613
 21
28.6427
  0
LINE
  8
0
 10
89.3613
 20
28.6427
 11
89.1963
 21
28.7335
  0
LINE
  8
0
 10
89.1963
 20
28.7335
 11
89.0439
 21
28.8442
  0
LINE
  8
0
 10
89.0439
 20
28.8442
 11
88.9065
 21
28.9732
  0
LINE
  8
0
 10
88.9065
 20
28.9732
 11
88.7865
 21
29.1183
  0
LINE
  8
0
 10
88.7865
 20
29.1183
 11
88.6855
 21
29.2774
  0
LINE
  8
0
 10
88.6855
 20
29.2774
 11
88.6053
 21
29.4478
  0
LINE
  8
0
 10
88.6053
 20
29.4478
 11
88.5471
 21
29.627
  0
LINE
  8
0
 10
88.5471
 20
29.627
 11
88.5118
 21
29.812
  0
LINE
  8
0
 10
88.5118
 20
29.812
 11
88.5
 21
30
  0
LINE
  8
0
 10
88.5
 20
30
 11
88.5118
 21
30.188
  0
LINE
  8
0
 10
88.5118
 20
30.188
 11
88.5471
 21
30.373
  0
LINE
  8
0
 10
88.5471
 20
30.373
 11
88.6053
 21
30.5522
  0
LINE
  8
0
 10
88.6053
 20
30.5522
 11
88.6855
 21
30.7226
  0
LINE
  8
0
 10
88.6855
 20
30.7226
 11
88.7865
 21
30.8817
  0
LINE
  8
0
 10
88.7865
 20
30.8817
 11
88.9065
 21
31.0268
  0
LINE
  8
0
 10
88.9065
 20
31.0268
 11
89.0439
 21
31.1558
  0
LINE
  8
0
 10
89.0439
 20
31.1558
 11
89.1963
 21
31.2665
  0
LINE
  8
0
 10
89.1963
 20
31.2665
 11
89.3613
 21
31.3572
  0
LINE
  8
0
 10
89.3613
 20
31.3572
 11
89.5365
 21
31.4266
  0
LINE
  8
0
 10
89.5365
 20
31.4266
 11
89.7189
 21
31.4734
  0
LINE
  8
0
 10
89.7189
 20
31.4734
 11
89.9058
 21
31.497
  0
LINE
  8
0
 10
89.9058
 20
31.497
 11
90.0942
 21
31.497
  0
LINE
  8
0
 10
90.0942
 20
31.497
 11
90.2811
 21
31.4734
  0
LINE
  8
0
 10
90.2811
 20
31.4734
 11
90.4635
 21
31.4266
  0
LINE
  8
0
 10
90.4635
 20
31.4266
 11
90.6387
 21
31.3572
  0
LINE
  8
0
 10
90.6387
 20
31.3572
 11
90.8037
 21
31.2665
  0
LINE
  8
0
 10
90.8037
 20
31.2665
 11
90.9561
 21
31.1558
  0
LINE
  8
0
 10
90.9561
 20
31.1558
 11
91.0934
 21
31.0268
  0
LINE
  8
0
 10
91.0934
 20
31.0268
 11
91.2135
 21
30.8817
  0
LINE
  8
0
 10
91.2135
 20
30.8817
 11
91.3145
 21
30.7226
  0
LINE
  8
0
 10
91.3145
 20
30.7226
 11
91.3947
 21
30.5522
  0
LINE
  8
0
 10
91.3947
 20
30.5522
 11
91.4529
 21
30.373
  0
LINE
  8
0
 10
91.4529
 20
30.373
 11
91.4882
 21
30.188
  0
LINE
  8
0
 10
91.4882
 20
30.188
 11
91.5
 21
30
  0
LINE
  8
0
 10
91.5
 20
30
 11
91.4882
 21
29.812
  0
LINE
  8
0
 10
91.4882
 20
29.812
 11
91.4529
 21
29.627
  0
LINE
  8
0
 10
91.4529
 20
29.627
 11
91.3947
 21
29.4478
  0
LINE
  8
0
 10
91.3947
 20
29.4478
 11
91.3145
 21
29.2774
  0
LINE
  8
0
 10
91.3145
 20
29.2774
 11
91.2135
 21
29.1183
  0
LINE
  8
0
 10
91.2135
 20
29.1183
 11
91.0934
 21
28.9732
  0
LINE
  8
0
 10
91.0934
 20
28.9732
 11
90.9561
 21
28.8442
  0
LINE
  8
0
 10
90.9561
 20
28.8442
 11
90.8037
 21
28.7335
  0
LINE
  8
0
 10
90.8037
 20
28.7335
 11
90.6387
 21
28.6427
  0
LINE
  8
0
 10
90.6387
 20
28.6427
 11
90.4635
 21
28.5734
  0
LINE
  8
0
 10
90.4635
 20
28.5734
 11
90.2811
 21
28.5266
  0
LINE
  8
0
 10
90.2811
 20
28.5266
 11
90.0942
 21
28.503
  0
LINE
  8
0
 10
90.0942
 20
28.503
 11
89.9058
 21
28.503
  0
LINE
  8
0
 10
-90.0942
 20
28.503
 11
-90.2811
 21
28.5266
  0
LINE
  8
0
 10
-90.2811
 20
28.5266
 11
-90.4635
 21
28.5734
  0
LINE
  8
0
 10
-90.4635
 20
28.5734
 11
-90.6387
 21
28.6427
  0
LINE
  8
0
 10
-90.6387
 20
28.6427
 11
-90.8037
 21
28.7335
  0
LINE
  8
0
 10
-90.8037
 20
28.7335
 11
-90.9561
 21
28.8442
  0
LINE
  8
0
 10
-90.9561
 20
28.8442
 11
-91.0934
 21
28.9732
  0
LINE
  8
0
 10
-91.0934
 20
28.9732
 11
-91.2135
 21
29.1183
  0
LINE
  8
0
 10
-91.2135
 20
29.1183
 11
-91.3145
 21
29.2774
  0
LINE
  8
0
 10
-91.3145
 20
29.2774
 11
-91.3947
 21
29.4478
  0
LINE
  8
0
 10
-91.3947
 20
29.4478
 11
-91.4529
 21
29.627
  0
LINE
  8
0
 10
-91.4529
 20
29.627
 11
-91.4882
 21
29.812
  0
LINE
  8
0
 10
-91.4882
 20
29.812
 11
-91.5
 21
30
  0
LINE
  8
0
 10
-91.5
 20
30
 11
-91.4882
 21
30.188
  0
LINE
  8
0
 10
-91.4882
 20
30.188
 11
-91.4529
 21
30.373
  0
LINE
  8
0
 10
-91.4529
 20
30.373
 11
-91.3947
 21
30.5522
  0
LINE
  8
0
 10
-91.3947
 20
30.5522
 11
-91.3145
 21
30.7226
  0
LINE
  8
0
 10
-91.3145
 20
30.7226
 11
-91.2135
 21
30.8817
  0
LINE
  8
0
 10
-91.2135
 20
30.8817
 11
-91.0934
 21
31.0268
  0
LINE
  8
0
 10
-91.0934
 20
31.0268
 11
-90.9561
 21
31.1558
  0
LINE
  8
0
 10
-90.9561
 20
31.1558
 11
-90.8037
 21
31.2665
  0
LINE
  8
0
 10
-90.8037
 20
31.2665
 11
-90.6387
 21
31.3572
  0
LINE
  8
0
 10
-90.6387
 20
31.3572
 11
-90.4635
 21
31.4266
  0
LINE
  8
0
 10
-90.4635
 20
31.4266
 11
-90.2811
 21
31.4734
  0
LINE
  8
0
 10
-90.2811
 20
31.4734
 11
-90.0942
 21
31.497
  0
LINE
  8
0
 10
-90.0942
 20
31.497
 11
-89.9058
 21
31.497
  0
LINE
  8
0
 10
-89.9058
 20
31.497
 11
-89.7189
 21
31.4734
  0
LINE
  8
0
 10
-89.7189
 20
31.4734
 11
-89.5365
 21
31.4266
  0
LINE
  8
0
 10
-89.5365
 20
31.4266
 11
-89.3613
 21
31.3572
  0
LINE
  8
0
 10
-89.3613
 20
31.3572
 11
-89.1963
 21
31.2665
  0
LINE
  8
0
 10
-89.1963
 20
31.2665
 11
-89.0439
 21
31.1558
  0
LINE
  8
0
 10
-89.0439
 20
31.1558
 11
-88.9065
 21
31.0268
  0
LINE
  8
0
 10
-88.9065
 20
31.0268
 11
-88.7865
 21
30.8817
  0
LINE
  8
0
 10
-88.7865
 20
30.8817
 11
-88.6855
 21
30.7226
  0
LINE
  8
0
 10
-88.6855
 20
30.7226
 11
-88.6053
 21
30.5522
  0
LINE
  8
0
 10
-88.6053
 20
30.5522
 11
-88.5471
 21
30.373
  0
LINE
  8
0
 10
-88.5471
 20
30.373
 11
-88.5118
 21
30.188
  0
LINE
  8
0
 10
-88.5118
 20
30.188
 11
-88.5
 21
30
  0
LINE
  8
0
 10
-88.5
 20
30
 11
-88.5118
 21
29.812
  0
LINE
  8
0
 10
-88.5118
 20
29.812
 11
-88.5471
 21
29.627
  0
LINE
  8
0
 10
-88.5471
 20
29.627
 11
-88.6053
 21
29.4478
  0
LINE
  8
0
 10
-88.6053
 20
29.4478
 11
-88.6855
 21
29.2774
  0
LINE
  8
0
 10
-88.6855
 20
29.2774
 11
-88.7865
 21
29.1183
  0
LINE
  8
0
 10
-88.7865
 20
29.1183
 11
-88.9065
 21
28.9732
  0
LINE
  8
0
 10
-88.9065
 20
28.9732
 11
-89.0439
 21
28.8442
  0
LINE
  8
0
 10
-89.0439
 20
28.8442
 11
-89.1963
 21
28.7335
  0
LINE
  8
0
 10
-89.1963
 20
28.7335
 11
-89.3613
 21
28.6427
  0
LINE
  8
0
 10
-89.3613
 20
28.6427
 11
-89.5365
 21
28.5734
  0
LINE
  8
0
 10
-89.5365
 20
28.5734
 11
-89.7189
 21
28.5266
  0
LINE
  8
0
 10
-89.7189
 20
28.5266
 11
-89.9058
 21
28.503
  0
LINE
  8
0
 10
-89.9058
 20
28.503
 11
-90.0942
 21
28.503
  0
LINE
  8
0
 10
-90.1884
 20
19.5059
 11
-90.5621
 21
19.5531
  0
LINE
  8
0
 10
-90.5621
 20
19.5531
 11
-90.927
 21
19.6468
  0
LINE
  8
0
 10
-90.927
 20
19.6468
 11
-91.2773
 21
19.7855
  0
LINE
  8
0
 10
-91.2773
 20
19.7855
 11
-91.6075
 21
19.967
  0
LINE
  8
0
 10
-91.6075
 20
19.967
 11
-91.9123
 21
20.1884
  0
LINE
  8
0
 10
-91.9123
 20
20.1884
 11
-92.1869
 21
20.4464
  0
LINE
  8
0
 10
-92.1869
 20
20.4464
 11
-92.427
 21
20.7366
  0
LINE
  8
0
 10
-92.427
 20
20.7366
 11
-92.6289
 21
21.0547
  0
LINE
  8
0
 10
-92.6289
 20
21.0547
 11
-92.7893
 21
21.3956
  0
LINE
  8
0
 10
-92.7893
 20
21.3956
 11
-92.9057
 21
21.7539
  0
LINE
  8
0
 10
-92.9057
 20
21.7539
 11
-92.9763
 21
22.124
  0
LINE
  8
0
 10
-92.9763
 20
22.124
 11
-93
 21
22.5
  0
LINE
  8
0
 10
-93
 20
22.5
 11
-92.9763
 21
22.876
  0
LINE
  8
0
 10
-92.9763
 20
22.876
 11
-92.9057
 21
23.2461
  0
LINE
  8
0
 10
-92.9057
 20
23.2461
 11
-92.7893
 21
23.6044
  0
LINE
  8
0
 10
-92.7893
 20
23.6044
 11
-92.6289
 21
23.9453
  0
LINE
  8
0
 10
-92.6289
 20
23.9453
 11
-92.427
 21
24.2634
  0
LINE
  8
0
 10
-92.427
 20
24.2634
 11
-92.1869
 21
24.5536
  0
LINE
  8
0
 10
-92.1869
 20
24.5536
 11
-91.9123
 21
24.8115
  0
LINE
  8
0
 10
-91.9123
 20
24.8115
 11
-91.6075
 21
25.033
  0
LINE
  8
0
 10
-91.6075
 20
25.033
 11
-91.2773
 21
25.2145
  0
LINE
  8
0
 10
-91.2773
 20
25.2145
 11
-90.927
 21
25.3532
  0
LINE
  8
0
 10
-90.927
 20
25.3532
 11
-90.5621
 21
25.4469
  0
LINE
  8
0
 10
-90.5621
 20
25.4469
 11
-90.1884
 21
25.4941
  0
LINE
  8
0
 10
-90.1884
 20
25.4941
 11
-89.8116
 21
25.4941
  0
LINE
  8
0
 10
-89.8116
 20
25.4941
 11
-89.4379
 21
25.4469
  0
LINE
  8
0
 10
-89.4379
 20
25.4469
 11
-89.073
 21
25.3532
  0
LINE
  8
0
 10
-89.073
 20
25.3532
 11
-88.7227
 21
25.2145
  0
LINE
  8
0
 10
-88.7227
 20
25.2145
 11
-88.3925
 21
25.033
  0
LINE
  8
0
 10
-88.3925
 20
25.033
 11
-88.0877
 21
24.8115
  0
LINE
  8
0
 10
-88.0877
 20
24.8115
 11
-87.8131
 21
24.5536
  0
LINE
  8
0
 10
-87.8131
 20
24.5536
 11
-87.573
 21
24.2634
  0
LINE
  8
0
 10
-87.573
 20
24.2634
 11
-87.3711
 21
23.9453
  0
LINE
  8
0
 10
-87.3711
 20
23.9453
 11
-87.2107
 21
23.6044
  0
LINE
  8
0
 10
-87.2107
 20
23.6044
 11
-87.0943
 21
23.2461
  0
LINE
  8
0
 10
-87.0943
 20
23.2461
 11
-87.0237
 21
22.876
  0
LINE
  8
0
 10
-87.0237
 20
22.876
 11
-87
 21
22.5
  0
LINE
  8
0
 10
-87
 20
22.5
 11
-87.0237
 21
22.124
  0
LINE
  8
0
 10
-87.0237
 20
22.124
 11
-87.0943
 21
21.7539
  0
LINE
  8
0
 10
-87.0943
 20
21.7539
 11
-87.2107
 21
21.3956
  0
LINE
  8
0
 10
-87.2107
 20
21.3956
 11
-87.3711
 21
21.0547
  0
LINE
  8
0
 10
-87.3711
 20
21.0547
 11
-87.573
 21
20.7366
  0
LINE
  8
0
 10
-87.573
 20
20.7366
 11
-87.8131
 21
20.4464
  0
LINE
  8
0
 10
-87.8131
 20
20.4464
 11
-88.0877
 21
20.1884
  0
LINE
  8
0
 10
-88.0877
 20
20.1884
 11
-88.3925
 21
19.967
  0
LINE
  8
0
 10
-88.3925
 20
19.967
 11
-88.7227
 21
19.7855
  0
LINE
  8
0
 10
-88.7227
 20
19.7855
 11
-89.073
 21
19.6468
  0
LINE
  8
0
 10
-89.073
 20
19.6468
 11
-89.4379
 21
19.5531
  0
LINE
  8
0
 10
-89.4379
 20
19.5531
 11
-89.8116
 21
19.5059
  0
LINE
  8
0
 10
-89.8116
 20
19.5059
 11
-90.1884
 21
19.5059
  0
LINE
  8
0
 10
89.8116
 20
19.5059
 11
89.4379
 21
19.5531
  0
LINE
  8
0
 10
89.4379
 20
19.5531
 11
89.073
 21
19.6468
  0
LINE
  8
0
 10
89.073
 20
19.6468
 11
88.7227
 21
19.7855
  0
LINE
  8
0
 10
88.7227
 20
19.7855
 11
88.3925
 21
19.967
  0
LINE
  8
0
 10
88.3925
 20
19.967
 11
88.0877
 21
20.1884
  0
LINE
  8
0
 10
88.0877
 20
20.1884
 11
87.8131
 21
20.4464
  0
LINE
  8
0
 10
87.8131
 20
20.4464
 11
87.573
 21
20.7366
  0
LINE
  8
0
 10
87.573
 20
20.7366
 11
87.3711
 21
21.0547
  0
LINE
  8
0
 10
87.3711
 20
21.0547
 11
87.2107
 21
21.3956
  0
LINE
  8
0
 10
87.2107
 20
21.3956
 11
87.0943
 21
21.7539
  0
LINE
  8
0
 10
87.0943
 20
21.7539
 11
87.0237
 21
22.124
  0
LINE
  8
0
 10
87.0237
 20
22.124
 11
87
 21
22.5
  0
LINE
  8
0
 10
87
 20
22.5
 11
87.0237
 21
22.876
  0
LINE
  8
0
 10
87.0237
 20
22.876
 11
87.0943
 21
23.2461
  0
LINE
  8
0
 10
87.0943
 20
23.2461
 11
87.2107
 21
23.6044
  0
LINE
  8
0
 10
87.2107
 20
23.6044
 11
87.3711
 21
23.9453
  0
LINE
  8
0
 10
87.3711
 20
23.9453
 11
87.573
 21
24.2634
  0
LINE
  8
0
 10
87.573
 20
24.2634
 11
87.8131
 21
24.5536
  0
LINE
  8
0
 10
87.8131
 20
24.5536
 11
88.0877
 21
24.8115
  0
LINE
  8
0
 10
88.0877
 20
24.8115
 11
88.3925
 21
25.033
  0
LINE
  8
0
 10
88.3925
 20
25.033
 11
88.7227
 21
25.2145
  0
LINE
  8
0
 10
88.7227
 20
25.2145
 11
89.073
 21
25.3532
  0
LINE
  8
0
 10
89.073
 20
25.3532
 11
89.4379
 21
25.4469
  0
LINE
  8
0
 10
89.4379
 20
25.4469
 11
89.8116
 21
25.4941
  0
LINE
  8
0
 10
89.8116
 20
25.4941
 11
90.1884
 21
25.4941
  0
LINE
  8
0
 10
90.1884
 20
25.4941
 11
90.5621
 21
25.4469
  0
LINE
  8
0
 10
90.5621
 20
25.4469
 11
90.927
 21
25.3532
  0
LINE
  8
0
 10
90.927
 20
25.3532
 11
91.2773
 21
25.2145
  0
LINE
  8
0
 10
91.2773
 20
25.2145
 11
91.6075
 21
25.033
  0
LINE
  8
0
 10
91.6075
 20
25.033
 11
91.9123
 21
24.8115
  0
LINE
  8
0
 10
91.9123
 20
24.8115
 11
92.1869
 21
24.5536
  0
LINE
  8
0
 10
92.1869
 20
24.5536
 11
92.427
 21
24.2634
  0
LINE
  8
0
 10
92.427
 20
24.2634
 11
92.6289
 21
23.9453
  0
LINE
  8
0
 10
92.6289
 20
23.9453
 11
92.7893
 21
23.6044
  0
LINE
  8
0
 10
92.7893
 20
23.6044
 11
92.9057
 21
23.2461
  0
LINE
  8
0
 10
92.9057
 20
23.2461
 11
92.9763
 21
22.876
  0
LINE
  8
0
 10
92.9763
 20
22.876
 11
93
 21
22.5
  0
LINE
  8
0
 10
93
 20
22.5
 11
92.9763
 21
22.124
  0
LINE
  8
0
 10
92.9763
 20
22.124
 11
92.9057
 21
21.7539
  0
LINE
  8
0
 10
92.9057
 20
21.7539
 11
92.7893
 21
21.3956
  0
LINE
  8
0
 10
92.7893
 20
21.3956
 11
92.6289
 21
21.0547
  0
LINE
  8
0
 10
92.6289
 20
21.0547
 11
92.427
 21
20.7366
  0
LINE
  8
0
 10
92.427
 20
20.7366
 11
92.1869
 21
20.4464
  0
LINE
  8
0
 10
92.1869
 20
20.4464
 11
91.9123
 21
20.1884
  0
LINE
  8
0
 10
91.9123
 20
20.1884
 11
91.6075
 21
19.967
  0
LINE
  8
0
 10
91.6075
 20
19.967
 11
91.2773
 21
19.7855
  0
LINE
  8
0
 10
91.2773
 20
19.7855
 11
90.927
 21
19.6468
  0
LINE
  8
0
 10
90.927
 20
19.6468
 11
90.5621
 21
19.5531
  0
LINE
  8
0
 10
90.5621
 20
19.5531
 11
90.1884
 21
19.5059
  0
LINE
  8
0
 10
90.1884
 20
19.5059
 11
89.8116
 21
19.5059
  0
LINE
  8
0
 10
89.9058
 20
13.5029
 11
89.7189
 21
13.5266
  0
LINE
  8
0
 10
89.7189
 20
13.5266
 11
89.5365
 21
13.5734
  0
LINE
  8
0
 10
89.5365
 20
13.5734
 11
89.3613
 21
13.6427
  0
LINE
  8
0
 10
89.3613
 20
13.6427
 11
89.1963
 21
13.7335
  0
LINE
  8
0
 10
89.1963
 20
13.7335
 11
89.0439
 21
13.8442
  0
LINE
  8
0
 10
89.0439
 20
13.8442
 11
88.9065
 21
13.9732
  0
LINE
  8
0
 10
88.9065
 20
13.9732
 11
88.7865
 21
14.1183
  0
LINE
  8
0
 10
88.7865
 20
14.1183
 11
88.6855
 21
14.2774
  0
LINE
  8
0
 10
88.6855
 20
14.2774
 11
88.6053
 21
14.4478
  0
LINE
  8
0
 10
88.6053
 20
14.4478
 11
88.5471
 21
14.627
  0
LINE
  8
0
 10
88.5471
 20
14.627
 11
88.5118
 21
14.812
  0
LINE
  8
0
 10
88.5118
 20
14.812
 11
88.5
 21
15
  0
LINE
  8
0
 10
88.5
 20
15
 11
88.5118
 21
15.188
  0
LINE
  8
0
 10
88.5118
 20
15.188
 11
88.5471
 21
15.373
  0
LINE
  8
0
 10
88.5471
 20
15.373
 11
88.6053
 21
15.5522
  0
LINE
  8
0
 10
88.6053
 20
15.5522
 11
88.6855
 21
15.7226
  0
LINE
  8
0
 10
88.6855
 20
15.7226
 11
88.7865
 21
15.8817
  0
LINE
  8
0
 10
88.7865
 20
15.8817
 11
88.9065
 21
16.0268
  0
LINE
  8
0
 10
88.9065
 20
16.0268
 11
89.0439
 21
16.1558
  0
LINE
  8
0
 10
89.0439
 20
16.1558
 11
89.1963
 21
16.2665
  0
LINE
  8
0
 10
89.1963
 20
16.2665
 11
89.3613
 21
16.3572
  0
LINE
  8
0
 10
89.3613
 20
16.3572
 11
89.5365
 21
16.4266
  0
LINE
  8
0
 10
89.5365
 20
16.4266
 11
89.7189
 21
16.4734
  0
LINE
  8
0
 10
89.7189
 20
16.4734
 11
89.9058
 21
16.497
  0
LINE
  8
0
 10
89.9058
 20
16.497
 11
90.0942
 21
16.497
  0
LINE
  8
0
 10
90.0942
 20
16.497
 11
90.2811
 21
16.4734
  0
LINE
  8
0
 10
90.2811
 20
16.4734
 11
90.4635
 21
16.4266
  0
LINE
  8
0
 10
90.4635
 20
16.4266
 11
90.6387
 21
16.3572
  0
LINE
  8
0
 10
90.6387
 20
16.3572
 11
90.8037
 21
16.2665
  0
LINE
  8
0
 10
90.8037
 20
16.2665
 11
90.9561
 21
16.1558
  0
LINE
  8
0
 10
90.9561
 20
16.1558
 11
91.0934
 21
16.0268
  0
LINE
  8
0
 10
91.0934
 20
16.0268
 11
91.2135
 21
15.8817
  0
LINE
  8
0
 10
91.2135
 20
15.8817
 11
91.3145
 21
15.7226
  0
LINE
  8
0
 10
91.3145
 20
15.7226
 11
91.3947
 21
15.5522
  0
LINE
  8
0
 10
91.3947
 20
15.5522
 11
91.4529
 21
15.373
  0
LINE
  8
0
 10
91.4529
 20
15.373
 11
91.4882
 21
15.188
  0
LINE
  8
0
 10
91.4882
 20
15.188
 11
91.5
 21
15
  0
LINE
  8
0
 10
91.5
 20
15
 11
91.4882
 21
14.812
  0
LINE
  8
0
 10
91.4882
 20
14.812
 11
91.4529
 21
14.627
  0
LINE
  8
0
 10
91.4529
 20
14.627
 11
91.3947
 21
14.4478
  0
LINE
  8
0
 10
91.3947
 20
14.4478
 11
91.3145
 21
14.2774
  0
LINE
  8
0
 10
91.3145
 20
14.2774
 11
91.2135
 21
14.1183
  0
LINE
  8
0
 10
91.2135
 20
14.1183
 11
91.0934
 21
13.9732
  0
LINE
  8
0
 10
91.0934
 20
13.9732
 11
90.9561
 21
13.8442
  0
LINE
  8
0
 10
90.9561
 20
13.8442
 11
90.8037
 21
13.7335
  0
LINE
  8
0
 10
90.8037
 20
13.7335
 11
90.6387
 21
13.6427
  0
LINE
  8
0
 10
90.6387
 20
13.6427
 11
90.4635
 21
13.5734
  0
LINE
  8
0
 10
90.4635
 20
13.5734
 11
90.2811
 21
13.5266
  0
LINE
  8
0
 10
90.2811
 20
13.5266
 11
90.0942
 21
13.5029
  0
LINE
  8
0
 10
90.0942
 20
13.5029
 11
89.9058
 21
13.5029
  0
LINE
  8
0
 10
-90.0942
 20
13.5029
 11
-90.2811
 21
13.5266
  0
LINE
  8
0
 10
-90.2811
 20
13.5266
 11
-90.4635
 21
13.5734
  0
LINE
  8
0
 10
-90.4635
 20
13.5734
 11
-90.6387
 21
13.6427
  0
LINE
  8
0
 10
-90.6387
 20
13.6427
 11
-90.8037
 21
13.7335
  0
LINE
  8
0
 10
-90.8037
 20
13.7335
 11
-90.9561
 21
13.8442
  0
LINE
  8
0
 10
-90.9561
 20
13.8442
 11
-91.0934
 21
13.9732
  0
LINE
  8
0
 10
-91.0934
 20
13.9732
 11
-91.2135
 21
14.1183
  0
LINE
  8
0
 10
-91.2135
 20
14.1183
 11
-91.3145
 21
14.2774
  0
LINE
  8
0
 10
-91.3145
 20
14.2774
 11
-91.3947
 21
14.4478
  0
LINE
  8
0
 10
-91.3947
 20
14.4478
 11
-91.4529
 21
14.627
  0
LINE
  8
0
 10
-91.4529
 20
14.627
 11
-91.4882
 21
14.812
  0
LINE
  8
0
 10
-91.4882
 20
14.812
 11
-91.5
 21
15
  0
LINE
  8
0
 10
-91.5
 20
15
 11
-91.4882
 21
15.188
  0
LINE
  8
0
 10
-91.4882
 20
15.188
 11
-91.4529
 21
15.373
  0
LINE
  8
0
 10
-91.4529
 20
15.373
 11
-91.3947
 21
15.5522
  0
LINE
  8
0
 10
-91.3947
 20
15.5522
 11
-91.3145
 21
15.7226
  0
LINE
  8
0
 10
-91.3145
 20
15.7226
 11
-91.2135
 21
15.8817
  0
LINE
  8
0
 10
-91.2135
 20
15.8817
 11
-91.0934
 21
16.0268
  0
LINE
  8
0
 10
-91.0934
 20
16.0268
 11
-90.9561
 21
16.1558
  0
LINE
  8
0
 10
-90.9561
 20
16.1558
 11
-90.8037
 21
16.2665
  0
LINE
  8
0
 10
-90.8037
 20
16.2665
 11
-90.6387
 21
16.3572
  0
LINE
  8
0
 10
-90.6387
 20
16.3572
 11
-90.4635
 21
16.4266
  0
LINE
  8
0
 10
-90.4635
 20
16.4266
 11
-90.2811
 21
16.4734
  0
LINE
  8
0
 10
-90.2811
 20
16.4734
 11
-90.0942
 21
16.497
  0
LINE
  8
0
 10
-90.0942
 20
16.497
 11
-89.9058
 21
16.497
  0
LINE
  8
0
 10
-89.9058
 20
16.497
 11
-89.7189
 21
16.4734
  0
LINE
  8
0
 10
-89.7189
 20
16.4734
 11
-89.5365
 21
16.4266
  0
LINE
  8
0
 10
-89.5365
 20
16.4266
 11
-89.3613
 21
16.3572
  0
LINE
  8
0
 10
-89.3613
 20
16.3572
 11
-89.1963
 21
16.2665
  0
LINE
  8
0
 10
-89.1963
 20
16.2665
 11
-89.0439
 21
16.1558
  0
LINE
  8
0
 10
-89.0439
 20
16.1558
 11
-88.9065
 21
16.0268
  0
LINE
  8
0
 10
-88.9065
 20
16.0268
 11
-88.7865
 21
15.8817
  0
LINE
  8
0
 10
-88.7865
 20
15.8817
 11
-88.6855
 21
15.7226
  0
LINE
  8
0
 10
-88.6855
 20
15.7226
 11
-88.6053
 21
15.5522
  0
LINE
  8
0
 10
-88.6053
 20
15.5522
 11
-88.5471
 21
15.373
  0
LINE
  8
0
 10
-88.5471
 20
15.373
 11
-88.5118
 21
15.188
  0
LINE
  8
0
 10
-88.5118
 20
15.188
 11
-88.5
 21
15
  0
LINE
  8
0
 10
-88.5
 20
15
 11
-88.5118
 21
14.812
  0
LINE
  8
0
 10
-88.5118
 20
14.812
 11
-88.5471
 21
14.627
  0
LINE
  8
0
 10
-88.5471
 20
14.627
 11
-88.6053
 21
14.4478
  0
LINE
  8
0
 10
-88.6053
 20
14.4478
 11
-88.6855
 21
14.2774
  0
LINE
  8
0
 10
-88.6855
 20
14.2774
 11
-88.7865
 21
14.1183
  0
LINE
  8
0
 10
-88.7865
 20
14.1183
 11
-88.9065
 21
13.9732
  0
LINE
  8
0
 10
-88.9065
 20
13.9732
 11
-89.0439
 21
13.8442
  0
LINE
  8
0
 10
-89.0439
 20
13.8442
 11
-89.1963
 21
13.7335
  0
LINE
  8
0
 10
-89.1963
 20
13.7335
 11
-89.3613
 21
13.6427
  0
LINE
  8
0
 10
-89.3613
 20
13.6427
 11
-89.5365
 21
13.5734
  0
LINE
  8
0
 10
-89.5365
 20
13.5734
 11
-89.7189
 21
13.5266
  0
LINE
  8
0
 10
-89.7189
 20
13.5266
 11
-89.9058
 21
13.5029
  0
LINE
  8
0
 10
-89.9058
 20
13.5029
 11
-90.0942
 21
13.5029
  0
LINE
  8
0
 10
-90.1884
 20
4.50591
 11
-90.5621
 21
4.55313
  0
LINE
  8
0
 10
-90.5621
 20
4.55313
 11
-90.927
 21
4.64682
  0
LINE
  8
0
 10
-90.927
 20
4.64682
 11
-91.2773
 21
4.78551
  0
LINE
  8
0
 10
-91.2773
 20
4.78551
 11
-91.6075
 21
4.96701
  0
LINE
  8
0
 10
-91.6075
 20
4.96701
 11
-91.9123
 21
5.18845
  0
LINE
  8
0
 10
-91.9123
 20
5.18845
 11
-92.1869
 21
5.44635
  0
LINE
  8
0
 10
-92.1869
 20
5.44635
 11
-92.427
 21
5.73663
  0
LINE
  8
0
 10
-92.427
 20
5.73663
 11
-92.6289
 21
6.05473
  0
LINE
  8
0
 10
-92.6289
 20
6.05473
 11
-92.7893
 21
6.39561
  0
LINE
  8
0
 10
-92.7893
 20
6.39561
 11
-92.9057
 21
6.75392
  0
LINE
  8
0
 10
-92.9057
 20
6.75392
 11
-92.9763
 21
7.12399
  0
LINE
  8
0
 10
-92.9763
 20
7.12399
 11
-93
 21
7.5
  0
LINE
  8
0
 10
-93
 20
7.5
 11
-92.9763
 21
7.87599
  0
LINE
  8
0
 10
-92.9763
 20
7.87599
 11
-92.9057
 21
8.24606
  0
LINE
  8
0
 10
-92.9057
 20
8.24606
 11
-92.7893
 21
8.60437
  0
LINE
  8
0
 10
-92.7893
 20
8.60437
 11
-92.6289
 21
8.94525
  0
LINE
  8
0
 10
-92.6289
 20
8.94525
 11
-92.427
 21
9.26335
  0
LINE
  8
0
 10
-92.427
 20
9.26335
 11
-92.1869
 21
9.55363
  0
LINE
  8
0
 10
-92.1869
 20
9.55363
 11
-91.9123
 21
9.81154
  0
LINE
  8
0
 10
-91.9123
 20
9.81154
 11
-91.6075
 21
10.033
  0
LINE
  8
0
 10
-91.6075
 20
10.033
 11
-91.2773
 21
10.2145
  0
LINE
  8
0
 10
-91.2773
 20
10.2145
 11
-90.927
 21
10.3532
  0
LINE
  8
0
 10
-90.927
 20
10.3532
 11
-90.5621
 21
10.4469
  0
LINE
  8
0
 10
-90.5621
 20
10.4469
 11
-90.1884
 21
10.4941
  0
LINE
  8
0
 10
-90.1884
 20
10.4941
 11
-89.8116
 21
10.4941
  0
LINE
  8
0
 10
-89.8116
 20
10.4941
 11
-89.4379
 21
10.4469
  0
LINE
  8
0
 10
-89.4379
 20
10.4469
 11
-89.073
 21
10.3532
  0
LINE
  8
0
 10
-89.073
 20
10.3532
 11
-88.7227
 21
10.2145
  0
LINE
  8
0
 10
-88.7227
 20
10.2145
 11
-88.3925
 21
10.033
  0
LINE
  8
0
 10
-88.3925
 20
10.033
 11
-88.0877
 21
9.81154
  0
LINE
  8
0
 10
-88.0877
 20
9.81154
 11
-87.8131
 21
9.55363
  0
LINE
  8
0
 10
-87.8131
 20
9.55363
 11
-87.573
 21
9.26335
  0
LINE
  8
0
 10
-87.573
 20
9.26335
 11
-87.3711
 21
8.94525
  0
LINE
  8
0
 10
-87.3711
 20
8.94525
 11
-87.2107
 21
8.60437
  0
LINE
  8
0
 10
-87.2107
 20
8.60437
 11
-87.0943
 21
8.24606
  0
LINE
  8
0
 10
-87.0943
 20
8.24606
 11
-87.0237
 21
7.87599
  0
LINE
  8
0
 10
-87.0237
 20
7.87599
 11
-87
 21
7.5
  0
LINE
  8
0
 10
-87
 20
7.5
 11
-87.0237
 21
7.12399
  0
LINE
  8
0
 10
-87.0237
 20
7.12399
 11
-87.0943
 21
6.75392
  0
LINE
  8
0
 10
-87.0943
 20
6.75392
 11
-87.2107
 21
6.39561
  0
LINE
  8
0
 10
-87.2107
 20
6.39561
 11
-87.3711
 21
6.05473
  0
LINE
  8
0
 10
-87.3711
 20
6.05473
 11
-87.573
 21
5.73663
  0
LINE
  8
0
 10
-87.573
 20
5.73663
 11
-87.8131
 21
5.44635
  0
LINE
  8
0
 10
-87.8131
 20
5.44635
 11
-88.0877
 21
5.18845
  0
LINE
  8
0
 10
-88.0877
 20
5.18845
 11
-88.3925
 21
4.96701
  0
LINE
  8
0
 10
-88.3925
 20
4.96701
 11
-88.7227
 21
4.78551
  0
LINE
  8
0
 10
-88.7227
 20
4.78551
 11
-89.073
 21
4.64682
  0
LINE
  8
0
 10
-89.073
 20
4.64682
 11
-89.4379
 21
4.55313
  0
LINE
  8
0
 10
-89.4379
 20
4.55313
 11
-89.8116
 21
4.50591
  0
LINE
  8
0
 10
-89.8116
 20
4.50591
 11
-90.1884
 21
4.50591
  0
LINE
  8
0
 10
89.8116
 20
4.50591
 11
89.4379
 21
4.55313
  0
LINE
  8
0
 10
89.4379
 20
4.55313
 11
89.073
 21
4.64682
  0
LINE
  8
0
 10
89.073
 20
4.64682
 11
88.7227
 21
4.78551
  0
LINE
  8
0
 10
88.7227
 20
4.78551
 11
88.3925
 21
4.96701
  0
LINE
  8
0
 10
88.3925
 20
4.96701
 11
88.0877
 21
5.18845
  0
LINE
  8
0
 10
88.0877
 20
5.18845
 11
87.8131
 21
5.44635
  0
LINE
  8
0
 10
87.8131
 20
5.44635
 11
87.573
 21
5.73663
  0
LINE
  8
0
 10
87.573
 20
5.73663
 11
87.3711
 21
6.05473
  0
LINE
  8
0
 10
87.3711
 20
6.05473
 11
87.2107
 21
6.39561
  0
LINE
  8
0
 10
87.2107
 20
6.39561
 11
87.0943
 21
6.75392
  0
LINE
  8
0
 10
87.0943
 20
6.75392
 11
87.0237
 21
7.12399
  0
LINE
  8
0
 10
87.0237
 20
7.12399
 11
87
 21
7.5
  0
LINE
  8
0
 10
87
 20
7.5
 11
87.0237
 21
7.87599
  0
LINE
  8
0
 10
87.0237
 20
7.87599
 11
87.0943
 21
8.24606
  0
LINE
  8
0
 10
87.0943
 20
8.24606
 11
87.2107
 21
8.60437
  0
LINE
  8
0
 10
87.2107
 20
8.60437
 11
87.3711
 21
8.94525
  0
LINE
  8
0
 10
87.3711
 20
8.94525
 11
87.573
 21
9.26335
  0
LINE
  8
0
 10
87.573
 20
9.26335
 11
87.8131
 21
9.55363
  0
LINE
  8
0
 10
87.8131
 20
9.55363
 11
88.0877
 21
9.81154
  0
LINE
  8
0
 10
88.0877
 20
9.81154
 11
88.3925
 21
10.033
  0
LINE
  8
0
 10
88.3925
 20
10.033
 11
88.7227
 21
10.2145
  0
LINE
  8
0
 10
88.7227
 20
10.2145
 11
89.073
 21
10.3532
  0
LINE
  8
0
 10
89.073
 20
10.3532
 11
89.4379
 21
10.4469
  0
LINE
  8
0
 10
89.4379
 20
10.4469
 11
89.8116
 21
10.4941
  0
LINE
  8
0
 10
89.8116
 20
10.4941
 11
90.1884
 21
10.4941
  0
LINE
  8
0
 10
90.1884
 20
10.4941
 11
90.5621
 21
10.4469
  0
LINE
  8
0
 10
90.5621
 20
10.4469
 11
90.927
 21
10.3532
  0
LINE
  8
0
 10
90.927
 20
10.3532
 11
91.2773
 21
10.2145
  0
LINE
  8
0
 10
91.2773
 20
10.2145
 11
91.6075
 21
10.033
  0
LINE
  8
0
 10
91.6075
 20
10.033
 11
91.9123
 21
9.81154
  0
LINE
  8
0
 10
91.9123
 20
9.81154
 11
92.1869
 21
9.55363
  0
LINE
  8
0
 10
92.1869
 20
9.55363
 11
92.427
 21
9.26335
  0
LINE
  8
0
 10
92.427
 20
9.26335
 11
92.6289
 21
8.94525
  0
LINE
  8
0
 10
92.6289
 20
8.94525
 11
92.7893
 21
8.60437
  0
LINE
  8
0
 10
92.7893
 20
8.60437
 11
92.9057
 21
8.24606
  0
LINE
  8
0
 10
92.9057
 20
8.24606
 11
92.9763
 21
7.87599
  0
LINE
  8
0
 10
92.9763
 20
7.87599
 11
93
 21
7.5
  0
LINE
  8
0
 10
93
 20
7.5
 11
92.9763
 21
7.12399
  0
LINE
  8
0
 10
92.9763
 20
7.12399
 11
92.9057
 21
6.75392
  0
LINE
  8
0
 10
92.9057
 20
6.75392
 11
92.7893
 21
6.39561
  0
LINE
  8
0
 10
92.7893
 20
6.39561
 11
92.6289
 21
6.05473
  0
LINE
  8
0
 10
92.6289
 20
6.05473
 11
92.427
 21
5.73663
  0
LINE
  8
0
 10
92.427
 20
5.73663
 11
92.1869
 21
5.44635
  0
LINE
  8
0
 10
92.1869
 20
5.44635
 11
91.9123
 21
5.18845
  0
LINE
  8
0
 10
91.9123
 20
5.18845
 11
91.6075
 21
4.96701
  0
LINE
  8
0
 10
91.6075
 20
4.96701
 11
91.2773
 21
4.78551
  0
LINE
  8
0
 10
91.2773
 20
4.78551
 11
90.927
 21
4.64682
  0
LINE
  8
0
 10
90.927
 20
4.64682
 11
90.5621
 21
4.55313
  0
LINE
  8
0
 10
90.5621
 20
4.55313
 11
90.1884
 21
4.50591
  0
LINE
  8
0
 10
90.1884
 20
4.50591
 11
89.8116
 21
4.50591
  0
LINE
  8
0
 10
89.9058
 20
-1.49704
 11
89.7189
 21
-1.47342
  0
LINE
  8
0
 10
89.7189
 20
-1.47342
 11
89.5365
 21
-1.42657
  0
LINE
  8
0
 10
89.5365
 20
-1.42657
 11
89.3613
 21
-1.35724
  0
LINE
  8
0
 10
89.3613
 20
-1.35724
 11
89.1963
 21
-1.26648
  0
LINE
  8
0
 10
89.1963
 20
-1.26648
 11
89.0439
 21
-1.15576
  0
LINE
  8
0
 10
89.0439
 20
-1.15576
 11
88.9065
 21
-1.02681
  0
LINE
  8
0
 10
88.9065
 20
-1.02681
 11
88.7865
 21
-0.881668
  0
LINE
  8
0
 10
88.7865
 20
-0.881668
 11
88.6855
 21
-0.722626
  0
LINE
  8
0
 10
88.6855
 20
-0.722626
 11
88.6053
 21
-0.552185
  0
LINE
  8
0
 10
88.6053
 20
-0.552185
 11
88.5471
 21
-0.373032
  0
LINE
  8
0
 10
88.5471
 20
-0.373032
 11
88.5118
 21
-0.187988
  0
LINE
  8
0
 10
88.5118
 20
-0.187988
 11
88.5
 21
0
  0
LINE
  8
0
 10
88.5
 20
0
 11
88.5118
 21
0.187988
  0
LINE
  8
0
 10
88.5118
 20
0.187988
 11
88.5471
 21
0.373032
  0
LINE
  8
0
 10
88.5471
 20
0.373032
 11
88.6053
 21
0.552185
  0
LINE
  8
0
 10
88.6053
 20
0.552185
 11
88.6855
 21
0.722626
  0
LINE
  8
0
 10
88.6855
 20
0.722626
 11
88.7865
 21
0.881668
  0
LINE
  8
0
 10
88.7865
 20
0.881668
 11
88.9065
 21
1.02681
  0
LINE
  8
0
 10
88.9065
 20
1.02681
 11
89.0439
 21
1.15576
  0
LINE
  8
0
 10
89.0439
 20
1.15576
 11
89.1963
 21
1.26648
  0
LINE
  8
0
 10
89.1963
 20
1.26648
 11
89.3613
 21
1.35724
  0
LINE
  8
0
 10
89.3613
 20
1.35724
 11
89.5365
 21
1.42657
  0
LINE
  8
0
 10
89.5365
 20
1.42657
 11
89.7189
 21
1.47342
  0
LINE
  8
0
 10
89.7189
 20
1.47342
 11
89.9058
 21
1.49704
  0
LINE
  8
0
 10
89.9058
 20
1.49704
 11
90.0942
 21
1.49704
  0
LINE
  8
0
 10
90.0942
 20
1.49704
 11
90.2811
 21
1.47342
  0
LINE
  8
0
 10
90.2811
 20
1.47342
 11
90.4635
 21
1.42657
  0
LINE
  8
0
 10
90.4635
 20
1.42657
 11
90.6387
 21
1.35724
  0
LINE
  8
0
 10
90.6387
 20
1.35724
 11
90.8037
 21
1.26648
  0
LINE
  8
0
 10
90.8037
 20
1.26648
 11
90.9561
 21
1.15576
  0
LINE
  8
0
 10
90.9561
 20
1.15576
 11
91.0934
 21
1.02681
  0
LINE
  8
0
 10
91.0934
 20
1.02681
 11
91.2135
 21
0.881668
  0
LINE
  8
0
 10
91.2135
 20
0.881668
 11
91.3145
 21
0.722626
  0
LINE
  8
0
 10
91.3145
 20
0.722626
 11
91.3947
 21
0.552185
  0
LINE
  8
0
 10
91.3947
 20
0.552185
 11
91.4529
 21
0.373032
  0
LINE
  8
0
 10
91.4529
 20
0.373032
 11
91.4882
 21
0.187988
  0
LINE
  8
0
 10
91.4882
 20
0.187988
 11
91.5
 21
0
  0
LINE
  8
0
 10
91.5
 20
0
 11
91.4882
 21
-0.187988
  0
LINE
  8
0
 10
91.4882
 20
-0.187988
 11
91.4529
 21
-0.373032
  0
LINE
  8
0
 10
91.4529
 20
-0.373032
 11
91.3947
 21
-0.552185
  0
LINE
  8
0
 10
91.3947
 20
-0.552185
 11
91.3145
 21
-0.722626
  0
LINE
  8
0
 10
91.3145
 20
-0.722626
 11
91.2135
 21
-0.881668
  0
LINE
  8
0
 10
91.2135
 20
-0.881668
 11
91.0934
 21
-1.02681
  0
LINE
  8
0
 10
91.0934
 20
-1.02681
 11
90.9561
 21
-1.15576
  0
LINE
  8
0
 10
90.9561
 20
-1.15576
 11
90.8037
 21
-1.26648
  0
LINE
  8
0
 10
90.8037
 20
-1.26648
 11
90.6387
 21
-1.35724
  0
LINE
  8
0
 10
90.6387
 20
-1.35724
 11
90.4635
 21
-1.42657
  0
LINE
  8
0
 10
90.4635
 20
-1.42657
 11
90.2811
 21
-1.47342
  0
LINE
  8
0
 10
90.2811
 20
-1.47342
 11
90.0942
 21
-1.49704
  0
LINE
  8
0
 10
90.0942
 20
-1.49704
 11
89.9058
 21
-1.49704
  0
LINE
  8
0
 10
-90.0942
 20
-1.49704
 11
-90.2811
 21
-1.47342
  0
LINE
  8
0
 10
-90.2811
 20
-1.47342
 11
-90.4635
 21
-1.42657
  0
LINE
  8
0
 10
-90.4635
 20
-1.42657
 11
-90.6387
 21
-1.35724
  0
LINE
  8
0
 10
-90.6387
 20
-1.35724
 11
-90.8037
 21
-1.26648
  0
LINE
  8
0
 10
-90.8037
 20
-1.26648
 11
-90.9561
 21
-1.15576
  0
LINE
  8
0
 10
-90.9561
 20
-1.15576
 11
-91.0934
 21
-1.02681
  0
LINE
  8
0
 10
-91.0934
 20
-1.02681
 11
-91.2135
 21
-0.881668
  0
LINE
  8
0
 10
-91.2135
 20
-0.881668
 11
-91.3145
 21
-0.722626
  0
LINE
  8
0
 10
-91.3145
 20
-0.722626
 11
-91.3947
 21
-0.552185
  0
LINE
  8
0
 10
-91.3947
 20
-0.552185
 11
-91.4529
 21
-0.373032
  0
LINE
  8
0
 10
-91.4529
 20
-0.373032
 11
-91.4882
 21
-0.187988
  0
LINE
  8
0
 10
-91.4882
 20
-0.187988
 11
-91.5
 21
0
  0
LINE
  8
0
 10
-91.5
 20
0
 11
-91.4882
 21
0.187988
  0
LINE
  8
0
 10
-91.4882
 20
0.187988
 11
-91.4529
 21
0.373032
  0
LINE
  8
0
 10
-91.4529
 20
0.373032
 11
-91.3947
 21
0.552185
  0
LINE
  8
0
 10
-91.3947
 20
0.552185
 11
-91.3145
 21
0.722626
  0
LINE
  8
0
 10
-91.3145
 20
0.722626
 11
-91.2135
 21
0.881668
  0
LINE
  8
0
 10
-91.2135
 20
0.881668
 11
-91.0934
 21
1.02681
  0
LINE
  8
0
 10
-91.0934
 20
1.02681
 11
-90.9561
 21
1.15576
  0
LINE
  8
0
 10
-90.9561
 20
1.15576
 11
-90.8037
 21
1.26648
  0
LINE
  8
0
 10
-90.8037
 20
1.26648
 11
-90.6387
 21
1.35724
  0
LINE
  8
0
 10
-90.6387
 20
1.35724
 11
-90.4635
 21
1.42657
  0
LINE
  8
0
 10
-90.4635
 20
1.42657
 11
-90.2811
 21
1.47342
  0
LINE
  8
0
 10
-90.2811
 20
1.47342
 11
-90.0942
 21
1.49704
  0
LINE
  8
0
 10
-90.0942
 20
1.49704
 11
-89.9058
 21
1.49704
  0
LINE
  8
0
 10
-89.9058
 20
1.49704
 11
-89.7189
 21
1.47342
  0
LINE
  8
0
 10
-89.7189
 20
1.47342
 11
-89.5365
 21
1.42657
  0
LINE
  8
0
 10
-89.5365
 20
1.42657
 11
-89.3613
 21
1.35724
  0
LINE
  8
0
 10
-89.3613
 20
1.35724
 11
-89.1963
 21
1.26648
  0
LINE
  8
0
 10
-89.1963
 20
1.26648
 11
-89.0439
 21
1.15576
  0
LINE
  8
0
 10
-89.0439
 20
1.15576
 11
-88.9065
 21
1.02681
  0
LINE
  8
0
 10
-88.9065
 20
1.02681
 11
-88.7865
 21
0.881668
  0
LINE
  8
0
 10
-88.7865
 20
0.881668
 11
-88.6855
 21
0.722626
  0
LINE
  8
0
 10
-88.6855
 20
0.722626
 11
-88.6053
 21
0.552185
  0
LINE
  8
0
 10
-88.6053
 20
0.552185
 11
-88.5471
 21
0.373032
  0
LINE
  8
0
 10
-88.5471
 20
0.373032
 11
-88.5118
 21
0.187988
  0
LINE
  8
0
 10
-88.5118
 20
0.187988
 11
-88.5
 21
0
  0
LINE
  8
0
 10
-88.5
 20
0
 11
-88.5118
 21
-0.187988
  0
LINE
  8
0
 10
-88.5118
 20
-0.187988
 11
-88.5471
 21
-0.373032
  0
LINE
  8
0
 10
-88.5471
 20
-0.373032
 11
-88.6053
 21
-0.552185
  0
LINE
  8
0
 10
-88.6053
 20
-0.552185
 11
-88.6855
 21
-0.722626
  0
LINE
  8
0
 10
-88.6855
 20
-0.722626
 11
-88.7865
 21
-0.881668
  0
LINE
  8
0
 10
-88.7865
 20
-0.881668
 11
-88.9065
 21
-1.02681
  0
LINE
  8
0
 10
-88.9065
 20
-1.02681
 11
-89.0439
 21
-1.15576
  0
LINE
  8
0
 10
-89.0439
 20
-1.15576
 11
-89.1963
 21
-1.26648
  0
LINE
  8
0
 10
-89.1963
 20
-1.26648
 11
-89.3613
 21
-1.35724
  0
LINE
  8
0
 10
-89.3613
 20
-1.35724
 11
-89.5365
 21
-1.42657
  0
LINE
  8
0
 10
-89.5365
 20
-1.42657
 11
-89.7189
 21
-1.47342
  0
LINE
  8
0
 10
-89.7189
 20
-1.47342
 11
-89.9058
 21
-1.49704
  0
LINE
  8
0
 10
-89.9058
 20
-1.49704
 11
-90.0942
 21
-1.49704
  0
LINE
  8
0
 10
89.8116
 20
-10.4941
 11
89.4379
 21
-10.4469
  0
LINE
  8
0
 10
89.4379
 20
-10.4469
 11
89.073
 21
-10.3532
  0
LINE
  8
0
 10
89.073
 20
-10.3532
 11
88.7227
 21
-10.2145
  0
LINE
  8
0
 10
88.7227
 20
-10.2145
 11
88.3925
 21
-10.033
  0
LINE
  8
0
 10
88.3925
 20
-10.033
 11
88.0877
 21
-9.81154
  0
LINE
  8
0
 10
88.0877
 20
-9.81154
 11
87.8131
 21
-9.55363
  0
LINE
  8
0
 10
87.8131
 20
-9.55363
 11
87.573
 21
-9.26335
  0
LINE
  8
0
 10
87.573
 20
-9.26335
 11
87.3711
 21
-8.94525
  0
LINE
  8
0
 10
87.3711
 20
-8.94525
 11
87.2107
 21
-8.60437
  0
LINE
  8
0
 10
87.2107
 20
-8.60437
 11
87.0943
 21
-8.24606
  0
LINE
  8
0
 10
87.0943
 20
-8.24606
 11
87.0237
 21
-7.87599
  0
LINE
  8
0
 10
87.0237
 20
-7.87599
 11
87
 21
-7.5
  0
LINE
  8
0
 10
87
 20
-7.5
 11
87.0237
 21
-7.12399
  0
LINE
  8
0
 10
87.0237
 20
-7.12399
 11
87.0943
 21
-6.75392
  0
LINE
  8
0
 10
87.0943
 20
-6.75392
 11
87.2107
 21
-6.39561
  0
LINE
  8
0
 10
87.2107
 20
-6.39561
 11
87.3711
 21
-6.05473
  0
LINE
  8
0
 10
87.3711
 20
-6.05473
 11
87.573
 21
-5.73663
  0
LINE
  8
0
 10
87.573
 20
-5.73663
 11
87.8131
 21
-5.44635
  0
LINE
  8
0
 10
87.8131
 20
-5.44635
 11
88.0877
 21
-5.18845
  0
LINE
  8
0
 10
88.0877
 20
-5.18845
 11
88.3925
 21
-4.96701
  0
LINE
  8
0
 10
88.3925
 20
-4.96701
 11
88.7227
 21
-4.78551
  0
LINE
  8
0
 10
88.7227
 20
-4.78551
 11
89.073
 21
-4.64682
  0
LINE
  8
0
 10
89.073
 20
-4.64682
 11
89.4379
 21
-4.55313
  0
LINE
  8
0
 10
89.4379
 20
-4.55313
 11
89.8116
 21
-4.50591
  0
LINE
  8
0
 10
89.8116
 20
-4.50591
 11
90.1884
 21
-4.50591
  0
LINE
  8
0
 10
90.1884
 20
-4.50591
 11
90.5621
 21
-4.55313
  0
LINE
  8
0
 10
90.5621
 20
-4.55313
 11
90.927
 21
-4.64682
  0
LINE
  8
0
 10
90.927
 20
-4.64682
 11
91.2773
 21
-4.78551
  0
LINE
  8
0
 10
91.2773
 20
-4.78551
 11
91.6075
 21
-4.96701
  0
LINE
  8
0
 10
91.6075
 20
-4.96701
 11
91.9123
 21
-5.18845
  0
LINE
  8
0
 10
91.9123
 20
-5.18845
 11
92.1869
 21
-5.44635
  0
LINE
  8
0
 10
92.1869
 20
-5.44635
 11
92.427
 21
-5.73663
  0
LINE
  8
0
 10
92.427
 20
-5.73663
 11
92.6289
 21
-6.05473
  0
LINE
  8
0
 10
92.6289
 20
-6.05473
 11
92.7893
 21
-6.39561
  0
LINE
  8
0
 10
92.7893
 20
-6.39561
 11
92.9057
 21
-6.75392
  0
LINE
  8
0
 10
92.9057
 20
-6.75392
 11
92.9763
 21
-7.12399
  0
LINE
  8
0
 10
92.9763
 20
-7.12399
 11
93
 21
-7.5
  0
LINE
  8
0
 10
93
 20
-7.5
 11
92.9763
 21
-7.87599
  0
LINE
  8
0
 10
92.9763
 20
-7.87599
 11
92.9057
 21
-8.24606
  0
LINE
  8
0
 10
92.9057
 20
-8.24606
 11
92.7893
 21
-8.60437
  0
LINE
  8
0
 10
92.7893
 20
-8.60437
 11
92.6289
 21
-8.94525
  0
LINE
  8
0
 10
92.6289
 20
-8.94525
 11
92.427
 21
-9.26335
  0
LINE
  8
0
 10
92.427
 20
-9.26335
 11
92.1869
 21
-9.55363
  0
LINE
  8
0
 10
92.1869
 20
-9.55363
 11
91.9123
 21
-9.81154
  0
LINE
  8
0
 10
91.9123
 20
-9.81154
 11
91.6075
 21
-10.033
  0
LINE
  8
0
 10
91.6075
 20
-10.033
 11
91.2773
 21
-10.2145
  0
LINE
  8
0
 10
91.2773
 20
-10.2145
 11
90.927
 21
-10.3532
  0
LINE
  8
0
 10
90.927
 20
-10.3532
 11
90.5621
 21
-10.4469
  0
LINE
  8
0
 10
90.5621
 20
-10.4469
 11
90.1884
 21
-10.4941
  0
LINE
  8
0
 10
90.1884
 20
-10.4941
 11
89.8116
 21
-10.4941
  0
LINE
  8
0
 10
-90.1884
 20
-10.4941
 11
-90.5621
 21
-10.4469
  0
LINE
  8
0
 10
-90.5621
 20
-10.4469
 11
-90.927
 21
-10.3532
  0
LINE
  8
0
 10
-90.927
 20
-10.3532
 11
-91.2773
 21
-10.2145
  0
LINE
  8
0
 10
-91.2773
 20
-10.2145
 11
-91.6075
 21
-10.033
  0
LINE
  8
0
 10
-91.6075
 20
-10.033
 11
-91.9123
 21
-9.81154
  0
LINE
  8
0
 10
-91.9123
 20
-9.81154
 11
-92.1869
 21
-9.55363
  0
LINE
  8
0
 10
-92.1869
 20
-9.55363
 11
-92.427
 21
-9.26335
  0
LINE
  8
0
 10
-92.427
 20
-9.26335
 11
-92.6289
 21
-8.94525
  0
LINE
  8
0
 10
-92.6289
 20
-8.94525
 11
-92.7893
 21
-8.60437
  0
LINE
  8
0
 10
-92.7893
 20
-8.60437
 11
-92.9057
 21
-8.24606
  0
LINE
  8
0
 10
-92.9057
 20
-8.24606
 11
-92.9763
 21
-7.87599
  0
LINE
  8
0
 10
-92.9763
 20
-7.87599
 11
-93
 21
-7.5
  0
LINE
  8
0
 10
-93
 20
-7.5
 11
-92.9763
 21
-7.12399
  0
LINE
  8
0
 10
-92.9763
 20
-7.12399
 11
-92.9057
 21
-6.75392
  0
LINE
  8
0
 10
-92.9057
 20
-6.75392
 11
-92.7893
 21
-6.39561
  0
LINE
  8
0
 10
-92.7893
 20
-6.39561
 11
-92.6289
 21
-6.05473
  0
LINE
  8
0
 10
-92.6289
 20
-6.05473
 11
-92.427
 21
-5.73663
  0
LINE
  8
0
 10
-92.427
 20
-5.73663
 11
-92.1869
 21
-5.44635
  0
LINE
  8
0
 10
-92.1869
 20
-5.44635
 11
-91.9123
 21
-5.18845
  0
LINE
  8
0
 10
-91.9123
 20
-5.18845
 11
-91.6075
 21
-4.96701
  0
LINE
  8
0
 10
-91.6075
 20
-4.96701
 11
-91.2773
 21
-4.78551
  0
LINE
  8
0
 10
-91.2773
 20
-4.78551
 11
-90.927
 21
-4.64682
  0
LINE
  8
0
 10
-90.927
 20
-4.64682
 11
-90.5621
 21
-4.55313
  0
LINE
  8
0
 10
-90.5621
 20
-4.55313
 11
-90.1884
 21
-4.50591
  0
LINE
  8
0
 10
-90.1884
 20
-4.50591
 11
-89.8116
 21
-4.50591
  0
LINE
  8
0
 10
-89.8116
 20
-4.50591
 11
-89.4379
 21
-4.55313
  0
LINE
  8
0
 10
-89.4379
 20
-4.55313
 11
-89.073
 21
-4.64682
  0
LINE
  8
0
 10
-89.073
 20
-4.64682
 11
-88.7227
 21
-4.78551
  0
LINE
  8
0
 10
-88.7227
 20
-4.78551
 11
-88.3925
 21
-4.96701
  0
LINE
  8
0
 10
-88.3925
 20
-4.96701
 11
-88.0877
 21
-5.18845
  0
LINE
  8
0
 10
-88.0877
 20
-5.18845
 11
-87.8131
 21
-5.44635
  0
LINE
  8
0
 10
-87.8131
 20
-5.44635
 11
-87.573
 21
-5.73663
  0
LINE
  8
0
 10
-87.573
 20
-5.73663
 11
-87.3711
 21
-6.05473
  0
LINE
  8
0
 10
-87.3711
 20
-6.05473
 11
-87.2107
 21
-6.39561
  0
LINE
  8
0
 10
-87.2107
 20
-6.39561
 11
-87.0943
 21
-6.75392
  0
LINE
  8
0
 10
-87.0943
 20
-6.75392
 11
-87.0237
 21
-7.12399
  0
LINE
  8
0
 10
-87.0237
 20
-7.12399
 11
-87
 21
-7.5
  0
LINE
  8
0
 10
-87
 20
-7.5
 11
-87.0237
 21
-7.87599
  0
LINE
  8
0
 10
-87.0237
 20
-7.87599
 11
-87.0943
 21
-8.24606
  0
LINE
  8
0
 10
-87.0943
 20
-8.24606
 11
-87.2107
 21
-8.60437
  0
LINE
  8
0
 10
-87.2107
 20
-8.60437
 11
-87.3711
 21
-8.94525
  0
LINE
  8
0
 10
-87.3711
 20
-8.94525
 11
-87.573
 21
-9.26335
  0
LINE
  8
0
 10
-87.573
 20
-9.26335
 11
-87.8131
 21
-9.55363
  0
LINE
  8
0
 10
-87.8131
 20
-9.55363
 11
-88.0877
 21
-9.81154
  0
LINE
  8
0
 10
-88.0877
 20
-9.81154
 11
-88.3925
 21
-10.033
  0
LINE
  8
0
 10
-88.3925
 20
-10.033
 11
-88.7227
 21
-10.2145
  0
LINE
  8
0
 10
-88.7227
 20
-10.2145
 11
-89.073
 21
-10.3532
  0
LINE
  8
0
 10
-89.073
 20
-10.3532
 11
-89.4379
 21
-10.4469
  0
LINE
  8
0
 10
-89.4379
 20
-10.4469
 11
-89.8116
 21
-10.4941
  0
LINE
  8
0
 10
-89.8116
 20
-10.4941
 11
-90.1884
 21
-10.4941
  0
LINE
  8
0
 10
-90.0942
 20
-16.497
 11
-90.2811
 21
-16.4734
  0
LINE
  8
0
 10
-90.2811
 20
-16.4734
 11
-90.4635
 21
-16.4266
  0
LINE
  8
0
 10
-90.4635
 20
-16.4266
 11
-90.6387
 21
-16.3572
  0
LINE
  8
0
 10
-90.6387
 20
-16.3572
 11
-90.8037
 21
-16.2665
  0
LINE
  8
0
 10
-90.8037
 20
-16.2665
 11
-90.9561
 21
-16.1558
  0
LINE
  8
0
 10
-90.9561
 20
-16.1558
 11
-91.0934
 21
-16.0268
  0
LINE
  8
0
 10
-91.0934
 20
-16.0268
 11
-91.2135
 21
-15.8817
  0
LINE
  8
0
 10
-91.2135
 20
-15.8817
 11
-91.3145
 21
-15.7226
  0
LINE
  8
0
 10
-91.3145
 20
-15.7226
 11
-91.3947
 21
-15.5522
  0
LINE
  8
0
 10
-91.3947
 20
-15.5522
 11
-91.4529
 21
-15.373
  0
LINE
  8
0
 10
-91.4529
 20
-15.373
 11
-91.4882
 21
-15.188
  0
LINE
  8
0
 10
-91.4882
 20
-15.188
 11
-91.5
 21
-15
  0
LINE
  8
0
 10
-91.5
 20
-15
 11
-91.4882
 21
-14.812
  0
LINE
  8
0
 10
-91.4882
 20
-14.812
 11
-91.4529
 21
-14.627
  0
LINE
  8
0
 10
-91.4529
 20
-14.627
 11
-91.3947
 21
-14.4478
  0
LINE
  8
0
 10
-91.3947
 20
-14.4478
 11
-91.3145
 21
-14.2774
  0
LINE
  8
0
 10
-91.3145
 20
-14.2774
 11
-91.2135
 21
-14.1183
  0
LINE
  8
0
 10
-91.2135
 20
-14.1183
 11
-91.0934
 21
-13.9732
  0
LINE
  8
0
 10
-91.0934
 20
-13.9732
 11
-90.9561
 21
-13.8442
  0
LINE
  8
0
 10
-90.9561
 20
-13.8442
 11
-90.8037
 21
-13.7335
  0
LINE
  8
0
 10
-90.8037
 20
-13.7335
 11
-90.6387
 21
-13.6427
  0
LINE
  8
0
 10
-90.6387
 20
-13.6427
 11
-90.4635
 21
-13.5734
  0
LINE
  8
0
 10
-90.4635
 20
-13.5734
 11
-90.2811
 21
-13.5266
  0
LINE
  8
0
 10
-90.2811
 20
-13.5266
 11
-90.0942
 21
-13.5029
  0
LINE
  8
0
 10
-90.0942
 20
-13.5029
 11
-89.9058
 21
-13.5029
  0
LINE
  8
0
 10
-89.9058
 20
-13.5029
 11
-89.7189
 21
-13.5266
  0
LINE
  8
0
 10
-89.7189
 20
-13.5266
 11
-89.5365
 21
-13.5734
  0
LINE
  8
0
 10
-89.5365
 20
-13.5734
 11
-89.3613
 21
-13.6427
  0
LINE
  8
0
 10
-89.3613
 20
-13.6427
 11
-89.1963
 21
-13.7335
  0
LINE
  8
0
 10
-89.1963
 20
-13.7335
 11
-89.0439
 21
-13.8442
  0
LINE
  8
0
 10
-89.0439
 20
-13.8442
 11
-88.9065
 21
-13.9732
  0
LINE
  8
0
 10
-88.9065
 20
-13.9732
 11
-88.7865
 21
-14.1183
  0
LINE
  8
0
 10
-88.7865
 20
-14.1183
 11
-88.6855
 21
-14.2774
  0
LINE
  8
0
 10
-88.6855
 20
-14.2774
 11
-88.6053
 21
-14.4478
  0
LINE
  8
0
 10
-88.6053
 20
-14.4478
 11
-88.5471
 21
-14.627
  0
LINE
  8
0
 10
-88.5471
 20
-14.627
 11
-88.5118
 21
-14.812
  0
LINE
  8
0
 10
-88.5118
 20
-14.812
 11
-88.5
 21
-15
  0
LINE
  8
0
 10
-88.5
 20
-15
 11
-88.5118
 21
-15.188
  0
LINE
  8
0
 10
-88.5118
 20
-15.188
 11
-88.5471
 21
-15.373
  0
LINE
  8
0
 10
-88.5471
 20
-15.373
 11
-88.6053
 21
-15.5522
  0
LINE
  8
0
 10
-88.6053
 20
-15.5522
 11
-88.6855
 21
-15.7226
  0
LINE
  8
0
 10
-88.6855
 20
-15.7226
 11
-88.7865
 21
-15.8817
  0
LINE
  8
0
 10
-88.7865
 20
-15.8817
 11
-88.9065
 21
-16.0268
  0
LINE
  8
0
 10
-88.9065
 20
-16.0268
 11
-89.0439
 21
-16.1558
  0
LINE
  8
0
 10
-89.0439
 20
-16.1558
 11
-89.1963
 21
-16.2665
  0
LINE
  8
0
 10
-89.1963
 20
-16.2665
 11
-89.3613
 21
-16.3572
  0
LINE
  8
0
 10
-89.3613
 20
-16.3572
 11
-89.5365
 21
-16.4266
  0
LINE
  8
0
 10
-89.5365
 20
-16.4266
 11
-89.7189
 21
-16.4734
  0
LINE
  8
0
 10
-89.7189
 20
-16.4734
 11
-89.9058
 21
-16.497
  0
LINE
  8
0
 10
-89.9058
 20
-16.497
 11
-90.0942
 21
-16.497
  0
LINE
  8
0
 10
89.9058
 20
-16.497
 11
89.7189
 21
-16.4734
  0
LINE
  8
0
 10
89.7189
 20
-16.4734
 11
89.5365
 21
-16.4266
  0
LINE
  8
0
 10
89.5365
 20
-16.4266
 11
89.3613
 21
-16.3572
  0
LINE
  8
0
 10
89.3613
 20
-16.3572
 11
89.1963
 21
-16.2665
  0
LINE
  8
0
 10
89.1963
 20
-16.2665
 11
89.0439
 21
-16.1558
  0
LINE
  8
0
 10
89.0439
 20
-16.1558
 11
88.9065
 21
-16.0268
  0
LINE
  8
0
 10
88.9065
 20
-16.0268
 11
88.7865
 21
-15.8817
  0
LINE
  8
0
 10
88.7865
 20
-15.8817
 11
88.6855
 21
-15.7226
  0
LINE
  8
0
 10
88.6855
 20
-15.7226
 11
88.6053
 21
-15.5522
  0
LINE
  8
0
 10
88.6053
 20
-15.5522
 11
88.5471
 21
-15.373
  0
LINE
  8
0
 10
88.5471
 20
-15.373
 11
88.5118
 21
-15.188
  0
LINE
  8
0
 10
88.5118
 20
-15.188
 11
88.5
 21
-15
  0
LINE
  8
0
 10
88.5
 20
-15
 11
88.5118
 21
-14.812
  0
LINE
  8
0
 10
88.5118
 20
-14.812
 11
88.5471
 21
-14.627
  0
LINE
  8
0
 10
88.5471
 20
-14.627
 11
88.6053
 21
-14.4478
  0
LINE
  8
0
 10
88.6053
 20
-14.4478
 11
88.6855
 21
-14.2774
  0
LINE
  8
0
 10
88.6855
 20
-14.2774
 11
88.7865
 21
-14.1183
  0
LINE
  8
0
 10
88.7865
 20
-14.1183
 11
88.9065
 21
-13.9732
  0
LINE
  8
0
 10
88.9065
 20
-13.9732
 11
89.0439
 21
-13.8442
  0
LINE
  8
0
 10
89.0439
 20
-13.8442
 11
89.1963
 21
-13.7335
  0
LINE
  8
0
 10
89.1963
 20
-13.7335
 11
89.3613
 21
-13.6427
  0
LINE
  8
0
 10
89.3613
 20
-13.6427
 11
89.5365
 21
-13.5734
  0
LINE
  8
0
 10
89.5365
 20
-13.5734
 11
89.7189
 21
-13.5266
  0
LINE
  8
0
 10
89.7189
 20
-13.5266
 11
89.9058
 21
-13.5029
  0
LINE
  8
0
 10
89.9058
 20
-13.5029
 11
90.0942
 21
-13.5029
  0
LINE
  8
0
 10
90.0942
 20
-13.5029
 11
90.2811
 21
-13.5266
  0
LINE
  8
0
 10
90.2811
 20
-13.5266
 11
90.4635
 21
-13.5734
  0
LINE
  8
0
 10
90.4635
 20
-13.5734
 11
90.6387
 21
-13.6427
  0
LINE
  8
0
 10
90.6387
 20
-13.6427
 11
90.8037
 21
-13.7335
  0
LINE
  8
0
 10
90.8037
 20
-13.7335
 11
90.9561
 21
-13.8442
  0
LINE
  8
0
 10
90.9561
 20
-13.8442
 11
91.0934
 21
-13.9732
  0
LINE
  8
0
 10
91.0934
 20
-13.9732
 11
91.2135
 21
-14.1183
  0
LINE
  8
0
 10
91.2135
 20
-14.1183
 11
91.3145
 21
-14.2774
  0
LINE
  8
0
 10
91.3145
 20
-14.2774
 11
91.3947
 21
-14.4478
  0
LINE
  8
0
 10
91.3947
 20
-14.4478
 11
91.4529
 21
-14.627
  0
LINE
  8
0
 10
91.4529
 20
-14.627
 11
91.4882
 21
-14.812
  0
LINE
  8
0
 10
91.4882
 20
-14.812
 11
91.5
 21
-15
  0
LINE
  8
0
 10
91.5
 20
-15
 11
91.4882
 21
-15.188
  0
LINE
  8
0
 10
91.4882
 20
-15.188
 11
91.4529
 21
-15.373
  0
LINE
  8
0
 10
91.4529
 20
-15.373
 11
91.3947
 21
-15.5522
  0
LINE
  8
0
 10
91.3947
 20
-15.5522
 11
91.3145
 21
-15.7226
  0
LINE
  8
0
 10
91.3145
 20
-15.7226
 11
91.2135
 21
-15.8817
  0
LINE
  8
0
 10
91.2135
 20
-15.8817
 11
91.0934
 21
-16.0268
  0
LINE
  8
0
 10
91.0934
 20
-16.0268
 11
90.9561
 21
-16.1558
  0
LINE
  8
0
 10
90.9561
 20
-16.1558
 11
90.8037
 21
-16.2665
  0
LINE
  8
0
 10
90.8037
 20
-16.2665
 11
90.6387
 21
-16.3572
  0
LINE
  8
0
 10
90.6387
 20
-16.3572
 11
90.4635
 21
-16.4266
  0
LINE
  8
0
 10
90.4635
 20
-16.4266
 11
90.2811
 21
-16.4734
  0
LINE
  8
0
 10
90.2811
 20
-16.4734
 11
90.0942
 21
-16.497
  0
LINE
  8
0
 10
90.0942
 20
-16.497
 11
89.9058
 21
-16.497
  0
LINE
  8
0
 10
89.8116
 20
-25.4941
 11
89.4379
 21
-25.4469
  0
LINE
  8
0
 10
89.4379
 20
-25.4469
 11
89.073
 21
-25.3532
  0
LINE
  8
0
 10
89.073
 20
-25.3532
 11
88.7227
 21
-25.2145
  0
LINE
  8
0
 10
88.7227
 20
-25.2145
 11
88.3925
 21
-25.033
  0
LINE
  8
0
 10
88.3925
 20
-25.033
 11
88.0877
 21
-24.8115
  0
LINE
  8
0
 10
88.0877
 20
-24.8115
 11
87.8131
 21
-24.5536
  0
LINE
  8
0
 10
87.8131
 20
-24.5536
 11
87.573
 21
-24.2634
  0
LINE
  8
0
 10
87.573
 20
-24.2634
 11
87.3711
 21
-23.9453
  0
LINE
  8
0
 10
87.3711
 20
-23.9453
 11
87.2107
 21
-23.6044
  0
LINE
  8
0
 10
87.2107
 20
-23.6044
 11
87.0943
 21
-23.2461
  0
LINE
  8
0
 10
87.0943
 20
-23.2461
 11
87.0237
 21
-22.876
  0
LINE
  8
0
 10
87.0237
 20
-22.876
 11
87
 21
-22.5
  0
LINE
  8
0
 10
87
 20
-22.5
 11
87.0237
 21
-22.124
  0
LINE
  8
0
 10
87.0237
 20
-22.124
 11
87.0943
 21
-21.7539
  0
LINE
  8
0
 10
87.0943
 20
-21.7539
 11
87.2107
 21
-21.3956
  0
LINE
  8
0
 10
87.2107
 20
-21.3956
 11
87.3711
 21
-21.0547
  0
LINE
  8
0
 10
87.3711
 20
-21.0547
 11
87.573
 21
-20.7366
  0
LINE
  8
0
 10
87.573
 20
-20.7366
 11
87.8131
 21
-20.4464
  0
LINE
  8
0
 10
87.8131
 20
-20.4464
 11
88.0877
 21
-20.1884
  0
LINE
  8
0
 10
88.0877
 20
-20.1884
 11
88.3925
 21
-19.967
  0
LINE
  8
0
 10
88.3925
 20
-19.967
 11
88.7227
 21
-19.7855
  0
LINE
  8
0
 10
88.7227
 20
-19.7855
 11
89.073
 21
-19.6468
  0
LINE
  8
0
 10
89.073
 20
-19.6468
 11
89.4379
 21
-19.5531
  0
LINE
  8
0
 10
89.4379
 20
-19.5531
 11
89.8116
 21
-19.5059
  0
LINE
  8
0
 10
89.8116
 20
-19.5059
 11
90.1884
 21
-19.5059
  0
LINE
  8
0
 10
90.1884
 20
-19.5059
 11
90.5621
 21
-19.5531
  0
LINE
  8
0
 10
90.5621
 20
-19.5531
 11
90.927
 21
-19.6468
  0
LINE
  8
0
 10
90.927
 20
-19.6468
 11
91.2773
 21
-19.7855
  0
LINE
  8
0
 10
91.2773
 20
-19.7855
 11
91.6075
 21
-19.967
  0
LINE
  8
0
 10
91.6075
 20
-19.967
 11
91.9123
 21
-20.1884
  0
LINE
  8
0
 10
91.9123
 20
-20.1884
 11
92.1869
 21
-20.4464
  0
LINE
  8
0
 10
92.1869
 20
-20.4464
 11
92.427
 21
-20.7366
  0
LINE
  8
0
 10
92.427
 20
-20.7366
 11
92.6289
 21
-21.0547
  0
LINE
  8
0
 10
92.6289
 20
-21.0547
 11
92.7893
 21
-21.3956
  0
LINE
  8
0
 10
92.7893
 20
-21.3956
 11
92.9057
 21
-21.7539
  0
LINE
  8
0
 10
92.9057
 20
-21.7539
 11
92.9763
 21
-22.124
  0
LINE
  8
0
 10
92.9763
 20
-22.124
 11
93
 21
-22.5
  0
LINE
  8
0
 10
93
 20
-22.5
 11
92.9763
 21
-22.876
  0
LINE
  8
0
 10
92.9763
 20
-22.876
 11
92.9057
 21
-23.2461
  0
LINE
  8
0
 10
92.9057
 20
-23.2461
 11
92.7893
 21
-23.6044
  0
LINE
  8
0
 10
92.7893
 20
-23.6044
 11
92.6289
 21
-23.9453
  0
LINE
  8
0
 10
92.6289
 20
-23.9453
 11
92.427
 21
-24.2634
  0
LINE
  8
0
 10
92.427
 20
-24.2634
 11
92.1869
 21
-24.5536
  0
LINE
  8
0
 10
92.1869
 20
-24.5536
 11
91.9123
 21
-24.8115
  0
LINE
  8
0
 10
91.9123
 20
-24.8115
 11
91.6075
 21
-25.033
  0
LINE
  8
0
 10
91.6075
 20
-25.033
 11
91.2773
 21
-25.2145
  0
LINE
  8
0
 10
91.2773
 20
-25.2145
 11
90.927
 21
-25.3532
  0
LINE
  8
0
 10
90.927
 20
-25.3532
 11
90.5621
 21
-25.4469
  0
LINE
  8
0
 10
90.5621
 20
-25.4469
 11
90.1884
 21
-25.4941
  0
LINE
  8
0
 10
90.1884
 20
-25.4941
 11
89.8116
 21
-25.4941
  0
LINE
  8
0
 10
-90.1884
 20
-25.4941
 11
-90.5621
 21
-25.4469
  0
LINE
  8
0
 10
-90.5621
 20
-25.4469
 11
-90.927
 21
-25.3532
  0
LINE
  8
0
 10
-90.927
 20
-25.3532
 11
-91.2773
 21
-25.2145
  0
LINE
  8
0
 10
-91.2773
 20
-25.2145
 11
-91.6075
 21
-25.033
  0
LINE
  8
0
 10
-91.6075
 20
-25.033
 11
-91.9123
 21
-24.8115
  0
LINE
  8
0
 10
-91.9123
 20
-24.8115
 11
-92.1869
 21
-24.5536
  0
LINE
  8
0
 10
-92.1869
 20
-24.5536
 11
-92.427
 21
-24.2634
  0
LINE
  8
0
 10
-92.427
 20
-24.2634
 11
-92.6289
 21
-23.9453
  0
LINE
  8
0
 10
-92.6289
 20
-23.9453
 11
-92.7893
 21
-23.6044
  0
LINE
  8
0
 10
-92.7893
 20
-23.6044
 11
-92.9057
 21
-23.2461
  0
LINE
  8
0
 10
-92.9057
 20
-23.2461
 11
-92.9763
 21
-22.876
  0
LINE
  8
0
 10
-92.9763
 20
-22.876
 11
-93
 21
-22.5
  0
LINE
  8
0
 10
-93
 20
-22.5
 11
-92.9763
 21
-22.124
  0
LINE
  8
0
 10
-92.9763
 20
-22.124
 11
-92.9057
 21
-21.7539
  0
LINE
  8
0
 10
-92.9057
 20
-21.7539
 11
-92.7893
 21
-21.3956
  0
LINE
  8
0
 10
-92.7893
 20
-21.3956
 11
-92.6289
 21
-21.0547
  0
LINE
  8
0
 10
-92.6289
 20
-21.0547
 11
-92.427
 21
-20.7366
  0
LINE
  8
0
 10
-92.427
 20
-20.7366
 11
-92.1869
 21
-20.4464
  0
LINE
  8
0
 10
-92.1869
 20
-20.4464
 11
-91.9123
 21
-20.1884
  0
LINE
  8
0
 10
-91.9123
 20
-20.1884
 11
-91.6075
 21
-19.967
  0
LINE
  8
0
 10
-91.6075
 20
-19.967
 11
-91.2773
 21
-19.7855
  0
LINE
  8
0
 10
-91.2773
 20
-19.7855
 11
-90.927
 21
-19.6468
  0
LINE
  8
0
 10
-90.927
 20
-19.6468
 11
-90.5621
 21
-19.5531
  0
LINE
  8
0
 10
-90.5621
 20
-19.5531
 11
-90.1884
 21
-19.5059
  0
LINE
  8
0
 10
-90.1884
 20
-19.5059
 11
-89.8116
 21
-19.5059
  0
LINE
  8
0
 10
-89.8116
 20
-19.5059
 11
-89.4379
 21
-19.5531
  0
LINE
  8
0
 10
-89.4379
 20
-19.5531
 11
-89.073
 21
-19.6468
  0
LINE
  8
0
 10
-89.073
 20
-19.6468
 11
-88.7227
 21
-19.7855
  0
LINE
  8
0
 10
-88.7227
 20
-19.7855
 11
-88.3925
 21
-19.967
  0
LINE
  8
0
 10
-88.3925
 20
-19.967
 11
-88.0877
 21
-20.1884
  0
LINE
  8
0
 10
-88.0877
 20
-20.1884
 11
-87.8131
 21
-20.4464
  0
LINE
  8
0
 10
-87.8131
 20
-20.4464
 11
-87.573
 21
-20.7366
  0
LINE
  8
0
 10
-87.573
 20
-20.7366
 11
-87.3711
 21
-21.0547
  0
LINE
  8
0
 10
-87.3711
 20
-21.0547
 11
-87.2107
 21
-21.3956
  0
LINE
  8
0
 10
-87.2107
 20
-21.3956
 11
-87.0943
 21
-21.7539
  0
LINE
  8
0
 10
-87.0943
 20
-21.7539
 11
-87.0237
 21
-22.124
  0
LINE
  8
0
 10
-87.0237
 20
-22.124
 11
-87
 21
-22.5
  0
LINE
  8
0
 10
-87
 20
-22.5
 11
-87.0237
 21
-22.876
  0
LINE
  8
0
 10
-87.0237
 20
-22.876
 11
-87.0943
 21
-23.2461
  0
LINE
  8
0
 10
-87.0943
 20
-23.2461
 11
-87.2107
 21
-23.6044
  0
LINE
  8
0
 10
-87.2107
 20
-23.6044
 11
-87.3711
 21
-23.9453
  0
LINE
  8
0
 10
-87.3711
 20
-23.9453
 11
-87.573
 21
-24.2634
  0
LINE
  8
0
 10
-87.573
 20
-24.2634
 11
-87.8131
 21
-24.5536
  0
LINE
  8
0
 10
-87.8131
 20
-24.5536
 11
-88.0877
 21
-24.8115
  0
LINE
  8
0
 10
-88.0877
 20
-24.8115
 11
-88.3925
 21
-25.033
  0
LINE
  8
0
 10
-88.3925
 20
-25.033
 11
-88.7227
 21
-25.2145
  0
LINE
  8
0
 10
-88.7227
 20
-25.2145
 11
-89.073
 21
-25.3532
  0
LINE
  8
0
 10
-89.073
 20
-25.3532
 11
-89.4379
 21
-25.4469
  0
LINE
  8
0
 10
-89.4379
 20
-25.4469
 11
-89.8116
 21
-25.4941
  0
LINE
  8
0
 10
-89.8116
 20
-25.4941
 11
-90.1884
 21
-25.4941
  0
LINE
  8
0
 10
89.9058
 20
-31.497
 11
89.7189
 21
-31.4734
  0
LINE
  8
0
 10
89.7189
 20
-31.4734
 11
89.5365
 21
-31.4266
  0
LINE
  8
0
 10
89.5365
 20
-31.4266
 11
89.3613
 21
-31.3572
  0
LINE
  8
0
 10
89.3613
 20
-31.3572
 11
89.1963
 21
-31.2665
  0
LINE
  8
0
 10
89.1963
 20
-31.2665
 11
89.0439
 21
-31.1558
  0
LINE
  8
0
 10
89.0439
 20
-31.1558
 11
88.9065
 21
-31.0268
  0
LINE
  8
0
 10
88.9065
 20
-31.0268
 11
88.7865
 21
-30.8817
  0
LINE
  8
0
 10
88.7865
 20
-30.8817
 11
88.6855
 21
-30.7226
  0
LINE
  8
0
 10
88.6855
 20
-30.7226
 11
88.6053
 21
-30.5522
  0
LINE
  8
0
 10
88.6053
 20
-30.5522
 11
88.5471
 21
-30.373
  0
LINE
  8
0
 10
88.5471
 20
-30.373
 11
88.5118
 21
-30.188
  0
LINE
  8
0
 10
88.5118
 20
-30.188
 11
88.5
 21
-30
  0
LINE
  8
0
 10
88.5
 20
-30
 11
88.5118
 21
-29.812
  0
LINE
  8
0
 10
88.5118
 20
-29.812
 11
88.5471
 21
-29.627
  0
LINE
  8
0
 10
88.5471
 20
-29.627
 11
88.6053
 21
-29.4478
  0
LINE
  8
0
 10
88.6053
 20
-29.4478
 11
88.6855
 21
-29.2774
  0
LINE
  8
0
 10
88.6855
 20
-29.2774
 11
88.7865
 21
-29.1183
  0
LINE
  8
0
 10
88.7865
 20
-29.1183
 11
88.9065
 21
-28.9732
  0
LINE
  8
0
 10
88.9065
 20
-28.9732
 11
89.0439
 21
-28.8442
  0
LINE
  8
0
 10
89.0439
 20
-28.8442
 11
89.1963
 21
-28.7335
  0
LINE
  8
0
 10
89.1963
 20
-28.7335
 11
89.3613
 21
-28.6427
  0
LINE
  8
0
 10
89.3613
 20
-28.6427
 11
89.5365
 21
-28.5734
  0
LINE
  8
0
 10
89.5365
 20
-28.5734
 11
89.7189
 21
-28.5266
  0
LINE
  8
0
 10
89.7189
 20
-28.5266
 11
89.9058
 21
-28.503
  0
LINE
  8
0
 10
89.9058
 20
-28.503
 11
90.0942
 21
-28.503
  0
LINE
  8
0
 10
90.0942
 20
-28.503
 11
90.2811
 21
-28.5266
  0
LINE
  8
0
 10
90.2811
 20
-28.5266
 11
90.4635
 21
-28.5734
  0
LINE
  8
0
 10
90.4635
 20
-28.5734
 11
90.6387
 21
-28.6427
  0
LINE
  8
0
 10
90.6387
 20
-28.6427
 11
90.8037
 21
-28.7335
  0
LINE
  8
0
 10
90.8037
 20
-28.7335
 11
90.9561
 21
-28.8442
  0
LINE
  8
0
 10
90.9561
 20
-28.8442
 11
91.0934
 21
-28.9732
  0
LINE
  8
0
 10
91.0934
 20
-28.9732
 11
91.2135
 21
-29.1183
  0
LINE
  8
0
 10
91.2135
 20
-29.1183
 11
91.3145
 21
-29.2774
  0
LINE
  8
0
 10
91.3145
 20
-29.2774
 11
91.3947
 21
-29.4478
  0
LINE
  8
0
 10
91.3947
 20
-29.4478
 11
91.4529
 21
-29.627
  0
LINE
  8
0
 10
91.4529
 20
-29.627
 11
91.4882
 21
-29.812
  0
LINE
  8
0
 10
91.4882
 20
-29.812
 11
91.5
 21
-30
  0
LINE
  8
0
 10
91.5
 20
-30
 11
91.4882
 21
-30.188
  0
LINE
  8
0
 10
91.4882
 20
-30.188
 11
91.4529
 21
-30.373
  0
LINE
  8
0
 10
91.4529
 20
-30.373
 11
91.3947
 21
-30.5522
  0
LINE
  8
0
 10
91.3947
 20
-30.5522
 11
91.3145
 21
-30.7226
  0
LINE
  8
0
 10
91.3145
 20
-30.7226
 11
91.2135
 21
-30.8817
  0
LINE
  8
0
 10
91.2135
 20
-30.8817
 11
91.0934
 21
-31.0268
  0
LINE
  8
0
 10
91.0934
 20
-31.0268
 11
90.9561
 21
-31.1558
  0
LINE
  8
0
 10
90.9561
 20
-31.1558
 11
90.8037
 21
-31.2665
  0
LINE
  8
0
 10
90.8037
 20
-31.2665
 11
90.6387
 21
-31.3572
  0
LINE
  8
0
 10
90.6387
 20
-31.3572
 11
90.4635
 21
-31.4266
  0
LINE
  8
0
 10
90.4635
 20
-31.4266
 11
90.2811
 21
-31.4734
  0
LINE
  8
0
 10
90.2811
 20
-31.4734
 11
90.0942
 21
-31.497
  0
LINE
  8
0
 10
90.0942
 20
-31.497
 11
89.9058
 21
-31.497
  0
LINE
  8
0
 10
-90.0942
 20
-31.497
 11
-90.2811
 21
-31.4734
  0
LINE
  8
0
 10
-90.2811
 20
-31.4734
 11
-90.4635
 21
-31.4266
  0
LINE
  8
0
 10
-90.4635
 20
-31.4266
 11
-90.6387
 21
-31.3572
  0
LINE
  8
0
 10
-90.6387
 20
-31.3572
 11
-90.8037
 21
-31.2665
  0
LINE
  8
0
 10
-90.8037
 20
-31.2665
 11
-90.9561
 21
-31.1558
  0
LINE
  8
0
 10
-90.9561
 20
-31.1558
 11
-91.0934
 21
-31.0268
  0
LINE
  8
0
 10
-91.0934
 20
-31.0268
 11
-91.2135
 21
-30.8817
  0
LINE
  8
0
 10
-91.2135
 20
-30.8817
 11
-91.3145
 21
-30.7226
  0
LINE
  8
0
 10
-91.3145
 20
-30.7226
 11
-91.3947
 21
-30.5522
  0
LINE
  8
0
 10
-91.3947
 20
-30.5522
 11
-91.4529
 21
-30.373
  0
LINE
  8
0
 10
-91.4529
 20
-30.373
 11
-91.4882
 21
-30.188
  0
LINE
  8
0
 10
-91.4882
 20
-30.188
 11
-91.5
 21
-30
  0
LINE
  8
0
 10
-91.5
 20
-30
 11
-91.4882
 21
-29.812
  0
LINE
  8
0
 10
-91.4882
 20
-29.812
 11
-91.4529
 21
-29.627
  0
LINE
  8
0
 10
-91.4529
 20
-29.627
 11
-91.3947
 21
-29.4478
  0
LINE
  8
0
 10
-91.3947
 20
-29.4478
 11
-91.3145
 21
-29.2774
  0
LINE
  8
0
 10
-91.3145
 20
-29.2774
 11
-91.2135
 21
-29.1183
  0
LINE
  8
0
 10
-91.2135
 20
-29.1183
 11
-91.0934
 21
-28.9732
  0
LINE
  8
0
 10
-91.0934
 20
-28.9732
 11
-90.9561
 21
-28.8442
  0
LINE
  8
0
 10
-90.9561
 20
-28.8442
 11
-90.8037
 21
-28.7335
  0
LINE
  8
0
 10
-90.8037
 20
-28.7335
 11
-90.6387
 21
-28.6427
  0
LINE
  8
0
 10
-90.6387
 20
-28.6427
 11
-90.4635
 21
-28.5734
  0
LINE
  8
0
 10
-90.4635
 20
-28.5734
 11
-90.2811
 21
-28.5266
  0
LINE
  8
0
 10
-90.2811
 20
-28.5266
 11
-90.0942
 21
-28.503
  0
LINE
  8
0
 10
-90.0942
 20
-28.503
 11
-89.9058
 21
-28.503
  0
LINE
  8
0
 10
-89.9058
 20
-28.503
 11
-89.7189
 21
-28.5266
  0
LINE
  8
0
 10
-89.7189
 20
-28.5266
 11
-89.5365
 21
-28.5734
  0
LINE
  8
0
 10
-89.5365
 20
-28.5734
 11
-89.3613
 21
-28.6427
  0
LINE
  8
0
 10
-89.3613
 20
-28.6427
 11
-89.1963
 21
-28.7335
  0
LINE
  8
0
 10
-89.1963
 20
-28.7335
 11
-89.0439
 21
-28.8442
  0
LINE
  8
0
 10
-89.0439
 20
-28.8442
 11
-88.9065
 21
-28.9732
  0
LINE
  8
0
 10
-88.9065
 20
-28.9732
 11
-88.7865
 21
-29.1183
  0
LINE
  8
0
 10
-88.7865
 20
-29.1183
 11
-88.6855
 21
-29.2774
  0
LINE
  8
0
 10
-88.6855
 20
-29.2774
 11
-88.6053
 21
-29.4478
  0
LINE
  8
0
 10
-88.6053
 20
-29.4478
 11
-88.5471
 21
-29.627
  0
LINE
  8
0
 10
-88.5471
 20
-29.627
 11
-88.5118
 21
-29.812
  0
LINE
  8
0
 10
-88.5118
 20
-29.812
 11
-88.5
 21
-30
  0
LINE
  8
0
 10
-88.5
 20
-30
 11
-88.5118
 21
-30.188
  0
LINE
  8
0
 10
-88.5118
 20
-30.188
 11
-88.5471
 21
-30.373
  0
LINE
  8
0
 10
-88.5471
 20
-30.373
 11
-88.6053
 21
-30.5522
  0
LINE
  8
0
 10
-88.6053
 20
-30.5522
 11
-88.6855
 21
-30.7226
  0
LINE
  8
0
 10
-88.6855
 20
-30.7226
 11
-88.7865
 21
-30.8817
  0
LINE
  8
0
 10
-88.7865
 20
-30.8817
 11
-88.9065
 21
-31.0268
  0
LINE
  8
0
 10
-88.9065
 20
-31.0268
 11
-89.0439
 21
-31.1558
  0
LINE
  8
0
 10
-89.0439
 20
-31.1558
 11
-89.1963
 21
-31.2665
  0
LINE
  8
0
 10
-89.1963
 20
-31.2665
 11
-89.3613
 21
-31.3572
  0
LINE
  8
0
 10
-89.3613
 20
-31.3572
 11
-89.5365
 21
-31.4266
  0
LINE
  8
0
 10
-89.5365
 20
-31.4266
 11
-89.7189
 21
-31.4734
  0
LINE
  8
0
 10
-89.7189
 20
-31.4734
 11
-89.9058
 21
-31.497
  0
LINE
  8
0
 10
-89.9058
 20
-31.497
 11
-90.0942
 21
-31.497
  0
LINE
  8
0
 10
89.8116
 20
-40.4941
 11
89.4379
 21
-40.4469
  0
LINE
  8
0
 10
89.4379
 20
-40.4469
 11
89.073
 21
-40.3532
  0
LINE
  8
0
 10
89.073
 20
-40.3532
 11
88.7227
 21
-40.2145
  0
LINE
  8
0
 10
88.7227
 20
-40.2145
 11
88.3925
 21
-40.033
  0
LINE
  8
0
 10
88.3925
 20
-40.033
 11
88.0877
 21
-39.8115
  0
LINE
  8
0
 10
88.0877
 20
-39.8115
 11
87.8131
 21
-39.5536
  0
LINE
  8
0
 10
87.8131
 20
-39.5536
 11
87.573
 21
-39.2634
  0
LINE
  8
0
 10
87.573
 20
-39.2634
 11
87.3711
 21
-38.9453
  0
LINE
  8
0
 10
87.3711
 20
-38.9453
 11
87.2107
 21
-38.6044
  0
LINE
  8
0
 10
87.2107
 20
-38.6044
 11
87.0943
 21
-38.2461
  0
LINE
  8
0
 10
87.0943
 20
-38.2461
 11
87.0237
 21
-37.876
  0
LINE
  8
0
 10
87.0237
 20
-37.876
 11
87
 21
-37.5
  0
LINE
  8
0
 10
87
 20
-37.5
 11
87.0237
 21
-37.124
  0
LINE
  8
0
 10
87.0237
 20
-37.124
 11
87.0943
 21
-36.7539
  0
LINE
  8
0
 10
87.0943
 20
-36.7539
 11
87.2107
 21
-36.3956
  0
LINE
  8
0
 10
87.2107
 20
-36.3956
 11
87.3711
 21
-36.0547
  0
LINE
  8
0
 10
87.3711
 20
-36.0547
 11
87.573
 21
-35.7366
  0
LINE
  8
0
 10
87.573
 20
-35.7366
 11
87.8131
 21
-35.4464
  0
LINE
  8
0
 10
87.8131
 20
-35.4464
 11
88.0877
 21
-35.1885
  0
LINE
  8
0
 10
88.0877
 20
-35.1885
 11
88.3925
 21
-34.967
  0
LINE
  8
0
 10
88.3925
 20
-34.967
 11
88.7227
 21
-34.7855
  0
LINE
  8
0
 10
88.7227
 20
-34.7855
 11
89.073
 21
-34.6468
  0
LINE
  8
0
 10
89.073
 20
-34.6468
 11
89.4379
 21
-34.5531
  0
LINE
  8
0
 10
89.4379
 20
-34.5531
 11
89.8116
 21
-34.5059
  0
LINE
  8
0
 10
89.8116
 20
-34.5059
 11
90.1884
 21
-34.5059
  0
LINE
  8
0
 10
90.1884
 20
-34.5059
 11
90.5621
 21
-34.5531
  0
LINE
  8
0
 10
90.5621
 20
-34.5531
 11
90.927
 21
-34.6468
  0
LINE
  8
0
 10
90.927
 20
-34.6468
 11
91.2773
 21
-34.7855
  0
LINE
  8
0
 10
91.2773
 20
-34.7855
 11
91.6075
 21
-34.967
  0
LINE
  8
0
 10
91.6075
 20
-34.967
 11
91.9123
 21
-35.1885
  0
LINE
  8
0
 10
91.9123
 20
-35.1885
 11
92.1869
 21
-35.4464
  0
LINE
  8
0
 10
92.1869
 20
-35.4464
 11
92.427
 21
-35.7366
  0
LINE
  8
0
 10
92.427
 20
-35.7366
 11
92.6289
 21
-36.0547
  0
LINE
  8
0
 10
92.6289
 20
-36.0547
 11
92.7893
 21
-36.3956
  0
LINE
  8
0
 10
92.7893
 20
-36.3956
 11
92.9057
 21
-36.7539
  0
LINE
  8
0
 10
92.9057
 20
-36.7539
 11
92.9763
 21
-37.124
  0
LINE
  8
0
 10
92.9763
 20
-37.124
 11
93
 21
-37.5
  0
LINE
  8
0
 10
93
 20
-37.5
 11
92.9763
 21
-37.876
  0
LINE
  8
0
 10
92.9763
 20
-37.876
 11
92.9057
 21
-38.2461
  0
LINE
  8
0
 10
92.9057
 20
-38.2461
 11
92.7893
 21
-38.6044
  0
LINE
  8
0
 10
92.7893
 20
-38.6044
 11
92.6289
 21
-38.9453
  0
LINE
  8
0
 10
92.6289
 20
-38.9453
 11
92.427
 21
-39.2634
  0
LINE
  8
0
 10
92.427
 20
-39.2634
 11
92.1869
 21
-39.5536
  0
LINE
  8
0
 10
92.1869
 20
-39.5536
 11
91.9123
 21
-39.8115
  0
LINE
  8
0
 10
91.9123
 20
-39.8115
 11
91.6075
 21
-40.033
  0
LINE
  8
0
 10
91.6075
 20
-40.033
 11
91.2773
 21
-40.2145
  0
LINE
  8
0
 10
91.2773
 20
-40.2145
 11
90.927
 21
-40.3532
  0
LINE
  8
0
 10
90.927
 20
-40.3532
 11
90.5621
 21
-40.4469
  0
LINE
  8
0
 10
90.5621
 20
-40.4469
 11
90.1884
 21
-40.4941
  0
LINE
  8
0
 10
90.1884
 20
-40.4941
 11
89.8116
 21
-40.4941
  0
LINE
  8
0
 10
-90.1884
 20
-40.4941
 11
-90.5621
 21
-40.4469
  0
LINE
  8
0
 10
-90.5621
 20
-40.4469
 11
-90.927
 21
-40.3532
  0
LINE
  8
0
 10
-90.927
 20
-40.3532
 11
-91.2773
 21
-40.2145
  0
LINE
  8
0
 10
-91.2773
 20
-40.2145
 11
-91.6075
 21
-40.033
  0
LINE
  8
0
 10
-91.6075
 20
-40.033
 11
-91.9123
 21
-39.8115
  0
LINE
  8
0
 10
-91.9123
 20
-39.8115
 11
-92.1869
 21
-39.5536
  0
LINE
  8
0
 10
-92.1869
 20
-39.5536
 11
-92.427
 21
-39.2634
  0
LINE
  8
0
 10
-92.427
 20
-39.2634
 11
-92.6289
 21
-38.9453
  0
LINE
  8
0
 10
-92.6289
 20
-38.9453
 11
-92.7893
 21
-38.6044
  0
LINE
  8
0
 10
-92.7893
 20
-38.6044
 11
-92.9057
 21
-38.2461
  0
LINE
  8
0
 10
-92.9057
 20
-38.2461
 11
-92.9763
 21
-37.876
  0
LINE
  8
0
 10
-92.9763
 20
-37.876
 11
-93
 21
-37.5
  0
LINE
  8
0
 10
-93
 20
-37.5
 11
-92.9763
 21
-37.124
  0
LINE
  8
0
 10
-92.9763
 20
-37.124
 11
-92.9057
 21
-36.7539
  0
LINE
  8
0
 10
-92.9057
 20
-36.7539
 11
-92.7893
 21
-36.3956
  0
LINE
  8
0
 10
-92.7893
 20
-36.3956
 11
-92.6289
 21
-36.0547
  0
LINE
  8
0
 10
-92.6289
 20
-36.0547
 11
-92.427
 21
-35.7366
  0
LINE
  8
0
 10
-92.427
 20
-35.7366
 11
-92.1869
 21
-35.4464
  0
LINE
  8
0
 10
-92.1869
 20
-35.4464
 11
-91.9123
 21
-35.1885
  0
LINE
  8
0
 10
-91.9123
 20
-35.1885
 11
-91.6075
 21
-34.967
  0
LINE
  8
0
 10
-91.6075
 20
-34.967
 11
-91.2773
 21
-34.7855
  0
LINE
  8
0
 10
-91.2773
 20
-34.7855
 11
-90.927
 21
-34.6468
  0
LINE
  8
0
 10
-90.927
 20
-34.6468
 11
-90.5621
 21
-34.5531
  0
LINE
  8
0
 10
-90.5621
 20
-34.5531
 11
-90.1884
 21
-34.5059
  0
LINE
  8
0
 10
-90.1884
 20
-34.5059
 11
-89.8116
 21
-34.5059
  0
LINE
  8
0
 10
-89.8116
 20
-34.5059
 11
-89.4379
 21
-34.5531
  0
LINE
  8
0
 10
-89.4379
 20
-34.5531
 11
-89.073
 21
-34.6468
  0
LINE
  8
0
 10
-89.073
 20
-34.6468
 11
-88.7227
 21
-34.7855
  0
LINE
  8
0
 10
-88.7227
 20
-34.7855
 11
-88.3925
 21
-34.967
  0
LINE
  8
0
 10
-88.3925
 20
-34.967
 11
-88.0877
 21
-35.1885
  0
LINE
  8
0
 10
-88.0877
 20
-35.1885
 11
-87.8131
 21
-35.4464
  0
LINE
  8
0
 10
-87.8131
 20
-35.4464
 11
-87.573
 21
-35.7366
  0
LINE
  8
0
 10
-87.573
 20
-35.7366
 11
-87.3711
 21
-36.0547
  0
LINE
  8
0
 10
-87.3711
 20
-36.0547
 11
-87.2107
 21
-36.3956
  0
LINE
  8
0
 10
-87.2107
 20
-36.3956
 11
-87.0943
 21
-36.7539
  0
LINE
  8
0
 10
-87.0943
 20
-36.7539
 11
-87.0237
 21
-37.124
  0
LINE
  8
0
 10
-87.0237
 20
-37.124
 11
-87
 21
-37.5
  0
LINE
  8
0
 10
-87
 20
-37.5
 11
-87.0237
 21
-37.876
  0
LINE
  8
0
 10
-87.0237
 20
-37.876
 11
-87.0943
 21
-38.2461
  0
LINE
  8
0
 10
-87.0943
 20
-38.2461
 11
-87.2107
 21
-38.6044
  0
LINE
  8
0
 10
-87.2107
 20
-38.6044
 11
-87.3711
 21
-38.9453
  0
LINE
  8
0
 10
-87.3711
 20
-38.9453
 11
-87.573
 21
-39.2634
  0
LINE
  8
0
 10
-87.573
 20
-39.2634
 11
-87.8131
 21
-39.5536
  0
LINE
  8
0
 10
-87.8131
 20
-39.5536
 11
-88.0877
 21
-39.8115
  0
LINE
  8
0
 10
-88.0877
 20
-39.8115
 11
-88.3925
 21
-40.033
  0
LINE
  8
0
 10
-88.3925
 20
-40.033
 11
-88.7227
 21
-40.2145
  0
LINE
  8
0
 10
-88.7227
 20
-40.2145
 11
-89.073
 21
-40.3532
  0
LINE
  8
0
 10
-89.073
 20
-40.3532
 11
-89.4379
 21
-40.4469
  0
LINE
  8
0
 10
-89.4379
 20
-40.4469
 11
-89.8116
 21
-40.4941
  0
LINE
  8
0
 10
-89.8116
 20
-40.4941
 11
-90.1884
 21
-40.4941
  0
ENDSEC
  0
SECTION
  2
OBJECTS
  0
DICTIONARY
  0
ENDSEC
  0
EOF
