<?xml version="1.0" standalone="no"?>
<!DOCTYPE svg PUBLIC "-//W3C//DTD SVG 1.1//EN" "http://www.w3.org/Graphics/SVG/1.1/DTD/svg11.dtd">
<svg width="240mm" height="90mm" viewBox="-120 -45 240 90" xmlns="http://www.w3.org/2000/svg" version="1.1">
<title>OpenSCAD Model</title>
<path d="
M 115.437,44.4114 L 116.045,44.2553 L 116.629,44.0241 L 117.179,43.7216 L 117.687,43.3526 L 118.145,42.9227
 L 118.545,42.4389 L 118.882,41.9088 L 119.149,41.3406 L 119.343,40.7434 L 119.461,40.1267 L 119.5,39.5
 L 119.5,-39.5 L 119.461,-40.1267 L 119.343,-40.7434 L 119.149,-41.3406 L 118.882,-41.9088 L 118.545,-42.4389
 L 118.145,-42.9227 L 117.687,-43.3526 L 117.179,-43.7216 L 116.629,-44.0241 L 116.045,-44.2553 L 115.437,-44.4114
 L 114.814,-44.4901 L -114.814,-44.4901 L -115.437,-44.4114 L -116.045,-44.2553 L -116.629,-44.0241 L -117.179,-43.7216
 L -117.687,-43.3526 L -118.145,-42.9227 L -118.545,-42.4389 L -118.882,-41.9088 L -119.149,-41.3406 L -119.343,-40.7434
 L -119.461,-40.1267 L -119.5,-39.5 L -119.5,39.5 L -119.461,40.1267 L -119.343,40.7434 L -119.149,41.3406
 L -118.882,41.9088 L -118.545,42.4389 L -118.145,42.9227 L -117.687,43.3526 L -117.179,43.7216 L -116.629,44.0241
 L -116.045,44.2553 L -115.437,44.4114 L -114.814,44.4901 L 114.814,44.4901 z
M -112.688,-34.5059 L -113.062,-34.5531 L -113.427,-34.6468 L -113.777,-34.7855 L -114.107,-34.967 L -114.412,-35.1885
 L -114.687,-35.4464 L -114.927,-35.7366 L -115.129,-36.0547 L -115.289,-36.3956 L -115.406,-36.7539 L -115.476,-37.124
 L -115.5,-37.5 L -115.476,-37.876 L -115.406,-38.2461 L -115.289,-38.6044 L -115.129,-38.9453 L -114.927,-39.2634
 L -114.687,-39.5536 L -114.412,-39.8115 L -114.107,-40.033 L -113.777,-40.2145 L -113.427,-40.3532 L -113.062,-40.4469
 L -112.688,-40.4941 L -112.312,-40.4941 L -111.938,-40.4469 L -111.573,-40.3532 L -111.223,-40.2145 L -110.893,-40.033
 L -110.588,-39.8115 L -110.313,-39.5536 L -110.073,-39.2634 L -109.871,-38.9453 L -109.711,-38.6044 L -109.594,-38.2461
 L -109.524,-37.876 L -109.5,-37.5 L -109.524,-37.124 L -109.594,-36.7539 L -109.711,-36.3956 L -109.871,-36.0547
 L -110.073,-35.7366 L -110.313,-35.4464 L -110.588,-35.1885 L -110.893,-34.967 L -111.223,-34.7855 L -111.573,-34.6468
 L -111.938,-34.5531 L -112.312,-34.5059 z
M 112.312,-34.5059 L 111.938,-34.5531 L 111.573,-34.6468 L 111.223,-34.7855 L 110.893,-34.967 L 110.588,-35.1885
 L 110.313,-35.4464 L 110.073,-35.7366 L 109.871,-36.0547 L 109.711,-36.3956 L 109.594,-36.7539 L 109.524,-37.124
 L 109.5,-37.5 L 109.524,-37.876 L 109.594,-38.2461 L 109.711,-38.6044 L 109.871,-38.9453 L 110.073,-39.2634
 L 110.313,-39.5536 L 110.588,-39.8115 L 110.893,-40.033 L 111.223,-40.2145 L 111.573,-40.3532 L 111.938,-40.4469
 L 112.312,-40.4941 L 112.688,-40.4941 L 113.062,-40.4469 L 113.427,-40.3532 L 113.777,-40.2145 L 114.107,-40.033
 L 114.412,-39.8115 L 114.687,-39.5536 L 114.927,-39.2634 L 115.129,-38.9453 L 115.289,-38.6044 L 115.406,-38.2461
 L 115.476,-37.876 L 115.5,-37.5 L 115.476,-37.124 L 115.406,-36.7539 L 115.289,-36.3956 L 115.129,-36.0547
 L 114.927,-35.7366 L 114.687,-35.4464 L 114.412,-35.1885 L 114.107,-34.967 L 113.777,-34.7855 L 113.427,-34.6468
 L 113.062,-34.5531 L 112.688,-34.5059 z
M -2.26045,35.929 L -6.74571,35.3623 L -11.1246,34.238 L -15.328,32.5738 L -19.2898,30.3958 L -22.9473,27.7385
 L -26.2429,24.6437 L -29.1246,21.1603 L -31.547,17.3431 L -33.472,13.2525 L -34.869,8.95284 L -35.7161,4.51199
 L -36,-0 L -35.7161,-4.51199 L -34.869,-8.95284 L -33.472,-13.2525 L -31.547,-17.3431 L -29.1246,-21.1603
 L -26.2429,-24.6437 L -22.9473,-27.7385 L -19.2898,-30.3958 L -15.328,-32.5738 L -11.1246,-34.238 L -6.74571,-35.3623
 L -2.26045,-35.929 L 2.26045,-35.929 L 6.74571,-35.3623 L 11.1246,-34.238 L 15.328,-32.5738 L 19.2898,-30.3958
 L 22.9473,-27.7385 L 26.2429,-24.6437 L 29.1246,-21.1603 L 31.547,-17.3431 L 33.472,-13.2525 L 34.869,-8.95284
 L 35.7161,-4.51199 L 36,-0 L 35.7161,4.51199 L 34.869,8.95284 L 33.472,13.2525 L 31.547,17.3431
 L 29.1246,21.1603 L 26.2429,24.6437 L 22.9473,27.7385 L 19.2898,30.3958 L 15.328,32.5738 L 11.1246,34.238
 L 6.74571,35.3623 L 2.26045,35.929 z
M -79.2605,35.929 L -83.7457,35.3623 L -88.1246,34.238 L -92.328,32.5738 L -96.2898,30.3958 L -99.9473,27.7385
 L -103.243,24.6437 L -106.125,21.1603 L -108.547,17.3431 L -110.472,13.2525 L -111.869,8.95284 L -112.716,4.51199
 L -113,-0 L -112.716,-4.51199 L -111.869,-8.95284 L -110.472,-13.2525 L -108.547,-17.3431 L -106.125,-21.1603
 L -103.243,-24.6437 L -99.9473,-27.7385 L -96.2898,-30.3958 L -92.328,-32.5738 L -88.1246,-34.238 L -83.7457,-35.3623
 L -79.2605,-35.929 L -74.7395,-35.929 L -70.2543,-35.3623 L -65.8754,-34.238 L -61.6719,-32.5738 L -57.7102,-30.3958
 L -54.0527,-27.7385 L -50.7571,-24.6437 L -47.8754,-21.1603 L -45.453,-17.3431 L -43.528,-13.2525 L -42.131,-8.95284
 L -41.2839,-4.51199 L -41,-0 L -41.2839,4.51199 L -42.131,8.95284 L -43.528,13.2525 L -45.453,17.3431
 L -47.8754,21.1603 L -50.7571,24.6437 L -54.0527,27.7385 L -57.7102,30.3958 L -61.6719,32.5738 L -65.8754,34.238
 L -70.2543,35.3623 L -74.7395,35.929 z
M 74.7395,35.929 L 70.2543,35.3623 L 65.8754,34.238 L 61.6719,32.5738 L 57.7102,30.3958 L 54.0527,27.7385
 L 50.7571,24.6437 L 47.8754,21.1603 L 45.453,17.3431 L 43.528,13.2525 L 42.131,8.95284 L 41.2839,4.51199
 L 41,-0 L 41.2839,-4.51199 L 42.131,-8.95284 L 43.528,-13.2525 L 45.453,-17.3431 L 47.8754,-21.1603
 L 50.7571,-24.6437 L 54.0527,-27.7385 L 57.7102,-30.3958 L 61.6719,-32.5738 L 65.8754,-34.238 L 70.2543,-35.3623
 L 74.7395,-35.929 L 79.2605,-35.929 L 83.7457,-35.3623 L 88.1246,-34.238 L 92.328,-32.5738 L 96.2898,-30.3958
 L 99.9473,-27.7385 L 103.243,-24.6437 L 106.125,-21.1603 L 108.547,-17.3431 L 110.472,-13.2525 L 111.869,-8.95284
 L 112.716,-4.51199 L 113,-0 L 112.716,4.51199 L 111.869,8.95284 L 110.472,13.2525 L 108.547,17.3431
 L 106.125,21.1603 L 103.243,24.6437 L 99.9473,27.7385 L 96.2898,30.3958 L 92.328,32.5738 L 88.1246,34.238
 L 83.7457,35.3623 L 79.2605,35.929 z
M 112.312,40.4941 L 111.938,40.4469 L 111.573,40.3532 L 111.223,40.2145 L 110.893,40.033 L 110.588,39.8115
 L 110.313,39.5536 L 110.073,39.2634 L 109.871,38.9453 L 109.711,38.6044 L 109.594,38.2461 L 109.524,37.876
 L 109.5,37.5 L 109.524,37.124 L 109.594,36.7539 L 109.711,36.3956 L 109.871,36.0547 L 110.073,35.7366
 L 110.313,35.4464 L 110.588,35.1885 L 110.893,34.967 L 111.223,34.7855 L 111.573,34.6468 L 111.938,34.5531
 L 112.312,34.5059 L 112.688,34.5059 L 113.062,34.5531 L 113.427,34.6468 L 113.777,34.7855 L 114.107,34.967
 L 114.412,35.1885 L 114.687,35.4464 L 114.927,35.7366 L 115.129,36.0547 L 115.289,36.3956 L 115.406,36.7539
 L 115.476,37.124 L 115.5,37.5 L 115.476,37.876 L 115.406,38.2461 L 115.289,38.6044 L 115.129,38.9453
 L 114.927,39.2634 L 114.687,39.5536 L 114.412,39.8115 L 114.107,40.033 L 113.777,40.2145 L 113.427,40.3532
 L 113.062,40.4469 L 112.688,40.4941 z
M -112.688,40.4941 L -113.062,40.4469 L -113.427,40.3532 L -113.777,40.2145 L -114.107,40.033 L -114.412,39.8115
 L -114.687,39.5536 L -114.927,39.2634 L -115.129,38.9453 L -115.289,38.6044 L -115.406,38.2461 L -115.476,37.876
 L -115.5,37.5 L -115.476,37.124 L -115.406,36.7539 L -115.289,36.3956 L -115.129,36.0547 L -114.927,35.7366
 L -114.687,35.4464 L -114.412,35.1885 L -114.107,34.967 L -113.777,34.7855 L -113.427,34.6468 L -113.062,34.5531
 L -112.688,34.5059 L -112.312,34.5059 L -111.938,34.5531 L -111.573,34.6468 L -111.223,34.7855 L -110.893,34.967
 L -110.588,35.1885 L -110.313,35.4464 L -110.073,35.7366 L -109.871,36.0547 L -109.711,36.3956 L -109.594,36.7539
 L -109.524,37.124 L -109.5,37.5 L -109.524,37.876 L -109.594,38.2461 L -109.711,38.6044 L -109.871,38.9453
 L -110.073,39.2634 L -110.313,39.5536 L -110.588,39.8115 L -110.893,40.033 L -111.223,40.2145 L -111.573,40.3532
 L -111.938,40.4469 L -112.312,40.4941 z
" stroke="black" fill="lightgray" stroke-width="0.5"/>
</svg>
