<?xml version="1.0" standalone="no"?>
<!DOCTYPE svg PUBLIC "-//W3C//DTD SVG 1.1//EN" "http://www.w3.org/Graphics/SVG/1.1/DTD/svg11.dtd">
<svg width="330mm" height="189mm" viewBox="-165 -243 330 189" xmlns="http://www.w3.org/2000/svg" version="1.1">
<title>OpenSCAD Model</title>
<path d="
M 160.437,-153.589 L 161.045,-153.745 L 161.629,-153.976 L 162.179,-154.278 L 162.687,-154.647 L 163.145,-155.077
 L 163.545,-155.561 L 163.882,-156.091 L 164.149,-156.659 L 164.343,-157.257 L 164.461,-157.873 L 164.5,-158.5
 L 164.5,-237.5 L 164.461,-238.127 L 164.343,-238.743 L 164.149,-239.341 L 163.882,-239.909 L 163.545,-240.439
 L 163.145,-240.923 L 162.687,-241.353 L 162.179,-241.722 L 161.629,-242.024 L 161.045,-242.255 L 160.437,-242.411
 L 159.814,-242.49 L -159.814,-242.49 L -160.437,-242.411 L -161.045,-242.255 L -161.629,-242.024 L -162.179,-241.722
 L -162.687,-241.353 L -163.145,-240.923 L -163.545,-240.439 L -163.882,-239.909 L -164.149,-239.341 L -164.343,-238.743
 L -164.461,-238.127 L -164.5,-237.5 L -164.5,-158.5 L -164.461,-157.873 L -164.343,-157.257 L -164.149,-156.659
 L -163.882,-156.091 L -163.545,-155.561 L -163.145,-155.077 L -162.687,-154.647 L -162.179,-154.278 L -161.629,-153.976
 L -161.045,-153.745 L -160.437,-153.589 L -159.814,-153.51 L 159.814,-153.51 z
M 157.312,-232.506 L 156.938,-232.553 L 156.573,-232.647 L 156.223,-232.786 L 155.893,-232.967 L 155.588,-233.188
 L 155.313,-233.446 L 155.073,-233.737 L 154.871,-234.055 L 154.711,-234.396 L 154.594,-234.754 L 154.524,-235.124
 L 154.5,-235.5 L 154.524,-235.876 L 154.594,-236.246 L 154.711,-236.604 L 154.871,-236.945 L 155.073,-237.263
 L 155.313,-237.554 L 155.588,-237.812 L 155.893,-238.033 L 156.223,-238.214 L 156.573,-238.353 L 156.938,-238.447
 L 157.312,-238.494 L 157.688,-238.494 L 158.062,-238.447 L 158.427,-238.353 L 158.777,-238.214 L 159.107,-238.033
 L 159.412,-237.812 L 159.687,-237.554 L 159.927,-237.263 L 160.129,-236.945 L 160.289,-236.604 L 160.406,-236.246
 L 160.476,-235.876 L 160.5,-235.5 L 160.476,-235.124 L 160.406,-234.754 L 160.289,-234.396 L 160.129,-234.055
 L 159.927,-233.737 L 159.687,-233.446 L 159.412,-233.188 L 159.107,-232.967 L 158.777,-232.786 L 158.427,-232.647
 L 158.062,-232.553 L 157.688,-232.506 z
M -157.688,-232.506 L -158.062,-232.553 L -158.427,-232.647 L -158.777,-232.786 L -159.107,-232.967 L -159.412,-233.188
 L -159.687,-233.446 L -159.927,-233.737 L -160.129,-234.055 L -160.289,-234.396 L -160.406,-234.754 L -160.476,-235.124
 L -160.5,-235.5 L -160.476,-235.876 L -160.406,-236.246 L -160.289,-236.604 L -160.129,-236.945 L -159.927,-237.263
 L -159.687,-237.554 L -159.412,-237.812 L -159.107,-238.033 L -158.777,-238.214 L -158.427,-238.353 L -158.062,-238.447
 L -157.688,-238.494 L -157.312,-238.494 L -156.938,-238.447 L -156.573,-238.353 L -156.223,-238.214 L -155.893,-238.033
 L -155.588,-237.812 L -155.313,-237.554 L -155.073,-237.263 L -154.871,-236.945 L -154.711,-236.604 L -154.594,-236.246
 L -154.524,-235.876 L -154.5,-235.5 L -154.524,-235.124 L -154.594,-234.754 L -154.711,-234.396 L -154.871,-234.055
 L -155.073,-233.737 L -155.313,-233.446 L -155.588,-233.188 L -155.893,-232.967 L -156.223,-232.786 L -156.573,-232.647
 L -156.938,-232.553 L -157.312,-232.506 z
M -39.6977,-163.069 L -44.0583,-163.62 L -48.3156,-164.713 L -52.4023,-166.331 L -56.2539,-168.449 L -59.8098,-171.032
 L -63.0139,-174.041 L -65.8156,-177.428 L -68.1707,-181.139 L -70.0422,-185.116 L -71.4004,-189.296 L -72.224,-193.613
 L -72.5,-198 L -72.224,-202.387 L -71.4004,-206.704 L -70.0422,-210.884 L -68.1707,-214.861 L -65.8156,-218.572
 L -63.0139,-221.959 L -59.8098,-224.968 L -56.2539,-227.551 L -52.4023,-229.669 L -48.3156,-231.287 L -44.0583,-232.38
 L -39.6977,-232.931 L -35.3023,-232.931 L -30.9417,-232.38 L -26.6844,-231.287 L -22.5977,-229.669 L -18.746,-227.551
 L -15.1902,-224.968 L -11.9861,-221.959 L -9.1844,-218.572 L -6.82925,-214.861 L -4.95781,-210.884 L -3.59958,-206.704
 L -2.77597,-202.387 L -2.5,-198 L -2.77597,-193.613 L -3.59958,-189.296 L -4.95781,-185.116 L -6.82925,-181.139
 L -9.1844,-177.428 L -11.9861,-174.041 L -15.1902,-171.032 L -18.746,-168.449 L -22.5977,-166.331 L -26.6844,-164.713
 L -30.9417,-163.62 L -35.3023,-163.069 z
M 35.3023,-163.069 L 30.9417,-163.62 L 26.6844,-164.713 L 22.5977,-166.331 L 18.746,-168.449 L 15.1902,-171.032
 L 11.9861,-174.041 L 9.1844,-177.428 L 6.82925,-181.139 L 4.95781,-185.116 L 3.59958,-189.296 L 2.77597,-193.613
 L 2.5,-198 L 2.77597,-202.387 L 3.59958,-206.704 L 4.95781,-210.884 L 6.82925,-214.861 L 9.1844,-218.572
 L 11.9861,-221.959 L 15.1902,-224.968 L 18.746,-227.551 L 22.5977,-229.669 L 26.6844,-231.287 L 30.9417,-232.38
 L 35.3023,-232.931 L 39.6977,-232.931 L 44.0583,-232.38 L 48.3156,-231.287 L 52.4023,-229.669 L 56.2539,-227.551
 L 59.8098,-224.968 L 63.0139,-221.959 L 65.8156,-218.572 L 68.1707,-214.861 L 70.0422,-210.884 L 71.4004,-206.704
 L 72.224,-202.387 L 72.5,-198 L 72.224,-193.613 L 71.4004,-189.296 L 70.0422,-185.116 L 68.1707,-181.139
 L 65.8156,-177.428 L 63.0139,-174.041 L 59.8098,-171.032 L 56.2539,-168.449 L 52.4023,-166.331 L 48.3156,-164.713
 L 44.0583,-163.62 L 39.6977,-163.069 z
M -114.698,-163.069 L -119.058,-163.62 L -123.316,-164.713 L -127.402,-166.331 L -131.254,-168.449 L -134.81,-171.032
 L -138.014,-174.041 L -140.816,-177.428 L -143.171,-181.139 L -145.042,-185.116 L -146.4,-189.296 L -147.224,-193.613
 L -147.5,-198 L -147.224,-202.387 L -146.4,-206.704 L -145.042,-210.884 L -143.171,-214.861 L -140.816,-218.572
 L -138.014,-221.959 L -134.81,-224.968 L -131.254,-227.551 L -127.402,-229.669 L -123.316,-231.287 L -119.058,-232.38
 L -114.698,-232.931 L -110.302,-232.931 L -105.942,-232.38 L -101.684,-231.287 L -97.5977,-229.669 L -93.7461,-227.551
 L -90.1902,-224.968 L -86.9861,-221.959 L -84.1844,-218.572 L -81.8293,-214.861 L -79.9578,-210.884 L -78.5996,-206.704
 L -77.776,-202.387 L -77.5,-198 L -77.776,-193.613 L -78.5996,-189.296 L -79.9578,-185.116 L -81.8293,-181.139
 L -84.1844,-177.428 L -86.9861,-174.041 L -90.1902,-171.032 L -93.7461,-168.449 L -97.5977,-166.331 L -101.684,-164.713
 L -105.942,-163.62 L -110.302,-163.069 z
M 110.302,-163.069 L 105.942,-163.62 L 101.684,-164.713 L 97.5977,-166.331 L 93.7461,-168.449 L 90.1902,-171.032
 L 86.9861,-174.041 L 84.1844,-177.428 L 81.8293,-181.139 L 79.9578,-185.116 L 78.5996,-189.296 L 77.776,-193.613
 L 77.5,-198 L 77.776,-202.387 L 78.5996,-206.704 L 79.9578,-210.884 L 81.8293,-214.861 L 84.1844,-218.572
 L 86.9861,-221.959 L 90.1902,-224.968 L 93.7461,-227.551 L 97.5977,-229.669 L 101.684,-231.287 L 105.942,-232.38
 L 110.302,-232.931 L 114.698,-232.931 L 119.058,-232.38 L 123.316,-231.287 L 127.402,-229.669 L 131.254,-227.551
 L 134.81,-224.968 L 138.014,-221.959 L 140.816,-218.572 L 143.171,-214.861 L 145.042,-210.884 L 146.4,-206.704
 L 147.224,-202.387 L 147.5,-198 L 147.224,-193.613 L 146.4,-189.296 L 145.042,-185.116 L 143.171,-181.139
 L 140.816,-177.428 L 138.014,-174.041 L 134.81,-171.032 L 131.254,-168.449 L 127.402,-166.331 L 123.316,-164.713
 L 119.058,-163.62 L 114.698,-163.069 z
M 157.406,-226.503 L 157.219,-226.527 L 157.036,-226.573 L 156.861,-226.643 L 156.696,-226.734 L 156.544,-226.844
 L 156.407,-226.973 L 156.286,-227.118 L 156.186,-227.277 L 156.105,-227.448 L 156.047,-227.627 L 156.012,-227.812
 L 156,-228 L 156.012,-228.188 L 156.047,-228.373 L 156.105,-228.552 L 156.186,-228.723 L 156.286,-228.882
 L 156.407,-229.027 L 156.544,-229.156 L 156.696,-229.266 L 156.861,-229.357 L 157.036,-229.427 L 157.219,-229.473
 L 157.406,-229.497 L 157.594,-229.497 L 157.781,-229.473 L 157.964,-229.427 L 158.139,-229.357 L 158.304,-229.266
 L 158.456,-229.156 L 158.593,-229.027 L 158.714,-228.882 L 158.814,-228.723 L 158.895,-228.552 L 158.953,-228.373
 L 158.988,-228.188 L 159,-228 L 158.988,-227.812 L 158.953,-227.627 L 158.895,-227.448 L 158.814,-227.277
 L 158.714,-227.118 L 158.593,-226.973 L 158.456,-226.844 L 158.304,-226.734 L 158.139,-226.643 L 157.964,-226.573
 L 157.781,-226.527 L 157.594,-226.503 z
M -157.594,-226.503 L -157.781,-226.527 L -157.964,-226.573 L -158.139,-226.643 L -158.304,-226.734 L -158.456,-226.844
 L -158.593,-226.973 L -158.714,-227.118 L -158.814,-227.277 L -158.895,-227.448 L -158.953,-227.627 L -158.988,-227.812
 L -159,-228 L -158.988,-228.188 L -158.953,-228.373 L -158.895,-228.552 L -158.814,-228.723 L -158.714,-228.882
 L -158.593,-229.027 L -158.456,-229.156 L -158.304,-229.266 L -158.139,-229.357 L -157.964,-229.427 L -157.781,-229.473
 L -157.594,-229.497 L -157.406,-229.497 L -157.219,-229.473 L -157.036,-229.427 L -156.861,-229.357 L -156.696,-229.266
 L -156.544,-229.156 L -156.407,-229.027 L -156.286,-228.882 L -156.186,-228.723 L -156.105,-228.552 L -156.047,-228.373
 L -156.012,-228.188 L -156,-228 L -156.012,-227.812 L -156.047,-227.627 L -156.105,-227.448 L -156.186,-227.277
 L -156.286,-227.118 L -156.407,-226.973 L -156.544,-226.844 L -156.696,-226.734 L -156.861,-226.643 L -157.036,-226.573
 L -157.219,-226.527 L -157.406,-226.503 z
M 157.312,-217.506 L 156.938,-217.553 L 156.573,-217.647 L 156.223,-217.786 L 155.893,-217.967 L 155.588,-218.188
 L 155.313,-218.446 L 155.073,-218.737 L 154.871,-219.055 L 154.711,-219.396 L 154.594,-219.754 L 154.524,-220.124
 L 154.5,-220.5 L 154.524,-220.876 L 154.594,-221.246 L 154.711,-221.604 L 154.871,-221.945 L 155.073,-222.263
 L 155.313,-222.554 L 155.588,-222.812 L 155.893,-223.033 L 156.223,-223.214 L 156.573,-223.353 L 156.938,-223.447
 L 157.312,-223.494 L 157.688,-223.494 L 158.062,-223.447 L 158.427,-223.353 L 158.777,-223.214 L 159.107,-223.033
 L 159.412,-222.812 L 159.687,-222.554 L 159.927,-222.263 L 160.129,-221.945 L 160.289,-221.604 L 160.406,-221.246
 L 160.476,-220.876 L 160.5,-220.5 L 160.476,-220.124 L 160.406,-219.754 L 160.289,-219.396 L 160.129,-219.055
 L 159.927,-218.737 L 159.687,-218.446 L 159.412,-218.188 L 159.107,-217.967 L 158.777,-217.786 L 158.427,-217.647
 L 158.062,-217.553 L 157.688,-217.506 z
M -157.688,-217.506 L -158.062,-217.553 L -158.427,-217.647 L -158.777,-217.786 L -159.107,-217.967 L -159.412,-218.188
 L -159.687,-218.446 L -159.927,-218.737 L -160.129,-219.055 L -160.289,-219.396 L -160.406,-219.754 L -160.476,-220.124
 L -160.5,-220.5 L -160.476,-220.876 L -160.406,-221.246 L -160.289,-221.604 L -160.129,-221.945 L -159.927,-222.263
 L -159.687,-222.554 L -159.412,-222.812 L -159.107,-223.033 L -158.777,-223.214 L -158.427,-223.353 L -158.062,-223.447
 L -157.688,-223.494 L -157.312,-223.494 L -156.938,-223.447 L -156.573,-223.353 L -156.223,-223.214 L -155.893,-223.033
 L -155.588,-222.812 L -155.313,-222.554 L -155.073,-222.263 L -154.871,-221.945 L -154.711,-221.604 L -154.594,-221.246
 L -154.524,-220.876 L -154.5,-220.5 L -154.524,-220.124 L -154.594,-219.754 L -154.711,-219.396 L -154.871,-219.055
 L -155.073,-218.737 L -155.313,-218.446 L -155.588,-218.188 L -155.893,-217.967 L -156.223,-217.786 L -156.573,-217.647
 L -156.938,-217.553 L -157.312,-217.506 z
M -157.594,-211.503 L -157.781,-211.527 L -157.964,-211.573 L -158.139,-211.643 L -158.304,-211.734 L -158.456,-211.844
 L -158.593,-211.973 L -158.714,-212.118 L -158.814,-212.277 L -158.895,-212.448 L -158.953,-212.627 L -158.988,-212.812
 L -159,-213 L -158.988,-213.188 L -158.953,-213.373 L -158.895,-213.552 L -158.814,-213.723 L -158.714,-213.882
 L -158.593,-214.027 L -158.456,-214.156 L -158.304,-214.266 L -158.139,-214.357 L -157.964,-214.427 L -157.781,-214.473
 L -157.594,-214.497 L -157.406,-214.497 L -157.219,-214.473 L -157.036,-214.427 L -156.861,-214.357 L -156.696,-214.266
 L -156.544,-214.156 L -156.407,-214.027 L -156.286,-213.882 L -156.186,-213.723 L -156.105,-213.552 L -156.047,-213.373
 L -156.012,-213.188 L -156,-213 L -156.012,-212.812 L -156.047,-212.627 L -156.105,-212.448 L -156.186,-212.277
 L -156.286,-212.118 L -156.407,-211.973 L -156.544,-211.844 L -156.696,-211.734 L -156.861,-211.643 L -157.036,-211.573
 L -157.219,-211.527 L -157.406,-211.503 z
M 157.406,-211.503 L 157.219,-211.527 L 157.036,-211.573 L 156.861,-211.643 L 156.696,-211.734 L 156.544,-211.844
 L 156.407,-211.973 L 156.286,-212.118 L 156.186,-212.277 L 156.105,-212.448 L 156.047,-212.627 L 156.012,-212.812
 L 156,-213 L 156.012,-213.188 L 156.047,-213.373 L 156.105,-213.552 L 156.186,-213.723 L 156.286,-213.882
 L 156.407,-214.027 L 156.544,-214.156 L 156.696,-214.266 L 156.861,-214.357 L 157.036,-214.427 L 157.219,-214.473
 L 157.406,-214.497 L 157.594,-214.497 L 157.781,-214.473 L 157.964,-214.427 L 158.139,-214.357 L 158.304,-214.266
 L 158.456,-214.156 L 158.593,-214.027 L 158.714,-213.882 L 158.814,-213.723 L 158.895,-213.552 L 158.953,-213.373
 L 158.988,-213.188 L 159,-213 L 158.988,-212.812 L 158.953,-212.627 L 158.895,-212.448 L 158.814,-212.277
 L 158.714,-212.118 L 158.593,-211.973 L 158.456,-211.844 L 158.304,-211.734 L 158.139,-211.643 L 157.964,-211.573
 L 157.781,-211.527 L 157.594,-211.503 z
M 157.312,-202.506 L 156.938,-202.553 L 156.573,-202.647 L 156.223,-202.786 L 155.893,-202.967 L 155.588,-203.188
 L 155.313,-203.446 L 155.073,-203.737 L 154.871,-204.055 L 154.711,-204.396 L 154.594,-204.754 L 154.524,-205.124
 L 154.5,-205.5 L 154.524,-205.876 L 154.594,-206.246 L 154.711,-206.604 L 154.871,-206.945 L 155.073,-207.263
 L 155.313,-207.554 L 155.588,-207.812 L 155.893,-208.033 L 156.223,-208.214 L 156.573,-208.353 L 156.938,-208.447
 L 157.312,-208.494 L 157.688,-208.494 L 158.062,-208.447 L 158.427,-208.353 L 158.777,-208.214 L 159.107,-208.033
 L 159.412,-207.812 L 159.687,-207.554 L 159.927,-207.263 L 160.129,-206.945 L 160.289,-206.604 L 160.406,-206.246
 L 160.476,-205.876 L 160.5,-205.5 L 160.476,-205.124 L 160.406,-204.754 L 160.289,-204.396 L 160.129,-204.055
 L 159.927,-203.737 L 159.687,-203.446 L 159.412,-203.188 L 159.107,-202.967 L 158.777,-202.786 L 158.427,-202.647
 L 158.062,-202.553 L 157.688,-202.506 z
M -157.688,-202.506 L -158.062,-202.553 L -158.427,-202.647 L -158.777,-202.786 L -159.107,-202.967 L -159.412,-203.188
 L -159.687,-203.446 L -159.927,-203.737 L -160.129,-204.055 L -160.289,-204.396 L -160.406,-204.754 L -160.476,-205.124
 L -160.5,-205.5 L -160.476,-205.876 L -160.406,-206.246 L -160.289,-206.604 L -160.129,-206.945 L -159.927,-207.263
 L -159.687,-207.554 L -159.412,-207.812 L -159.107,-208.033 L -158.777,-208.214 L -158.427,-208.353 L -158.062,-208.447
 L -157.688,-208.494 L -157.312,-208.494 L -156.938,-208.447 L -156.573,-208.353 L -156.223,-208.214 L -155.893,-208.033
 L -155.588,-207.812 L -155.313,-207.554 L -155.073,-207.263 L -154.871,-206.945 L -154.711,-206.604 L -154.594,-206.246
 L -154.524,-205.876 L -154.5,-205.5 L -154.524,-205.124 L -154.594,-204.754 L -154.711,-204.396 L -154.871,-204.055
 L -155.073,-203.737 L -155.313,-203.446 L -155.588,-203.188 L -155.893,-202.967 L -156.223,-202.786 L -156.573,-202.647
 L -156.938,-202.553 L -157.312,-202.506 z
M 157.406,-196.503 L 157.219,-196.527 L 157.036,-196.573 L 156.861,-196.643 L 156.696,-196.734 L 156.544,-196.844
 L 156.407,-196.973 L 156.286,-197.118 L 156.186,-197.277 L 156.105,-197.448 L 156.047,-197.627 L 156.012,-197.812
 L 156,-198 L 156.012,-198.188 L 156.047,-198.373 L 156.105,-198.552 L 156.186,-198.723 L 156.286,-198.882
 L 156.407,-199.027 L 156.544,-199.156 L 156.696,-199.266 L 156.861,-199.357 L 157.036,-199.427 L 157.219,-199.473
 L 157.406,-199.497 L 157.594,-199.497 L 157.781,-199.473 L 157.964,-199.427 L 158.139,-199.357 L 158.304,-199.266
 L 158.456,-199.156 L 158.593,-199.027 L 158.714,-198.882 L 158.814,-198.723 L 158.895,-198.552 L 158.953,-198.373
 L 158.988,-198.188 L 159,-198 L 158.988,-197.812 L 158.953,-197.627 L 158.895,-197.448 L 158.814,-197.277
 L 158.714,-197.118 L 158.593,-196.973 L 158.456,-196.844 L 158.304,-196.734 L 158.139,-196.643 L 157.964,-196.573
 L 157.781,-196.527 L 157.594,-196.503 z
M -157.594,-196.503 L -157.781,-196.527 L -157.964,-196.573 L -158.139,-196.643 L -158.304,-196.734 L -158.456,-196.844
 L -158.593,-196.973 L -158.714,-197.118 L -158.814,-197.277 L -158.895,-197.448 L -158.953,-197.627 L -158.988,-197.812
 L -159,-198 L -158.988,-198.188 L -158.953,-198.373 L -158.895,-198.552 L -158.814,-198.723 L -158.714,-198.882
 L -158.593,-199.027 L -158.456,-199.156 L -158.304,-199.266 L -158.139,-199.357 L -157.964,-199.427 L -157.781,-199.473
 L -157.594,-199.497 L -157.406,-199.497 L -157.219,-199.473 L -157.036,-199.427 L -156.861,-199.357 L -156.696,-199.266
 L -156.544,-199.156 L -156.407,-199.027 L -156.286,-198.882 L -156.186,-198.723 L -156.105,-198.552 L -156.047,-198.373
 L -156.012,-198.188 L -156,-198 L -156.012,-197.812 L -156.047,-197.627 L -156.105,-197.448 L -156.186,-197.277
 L -156.286,-197.118 L -156.407,-196.973 L -156.544,-196.844 L -156.696,-196.734 L -156.861,-196.643 L -157.036,-196.573
 L -157.219,-196.527 L -157.406,-196.503 z
M -157.688,-187.506 L -158.062,-187.553 L -158.427,-187.647 L -158.777,-187.786 L -159.107,-187.967 L -159.412,-188.188
 L -159.687,-188.446 L -159.927,-188.737 L -160.129,-189.055 L -160.289,-189.396 L -160.406,-189.754 L -160.476,-190.124
 L -160.5,-190.5 L -160.476,-190.876 L -160.406,-191.246 L -160.289,-191.604 L -160.129,-191.945 L -159.927,-192.263
 L -159.687,-192.554 L -159.412,-192.812 L -159.107,-193.033 L -158.777,-193.214 L -158.427,-193.353 L -158.062,-193.447
 L -157.688,-193.494 L -157.312,-193.494 L -156.938,-193.447 L -156.573,-193.353 L -156.223,-193.214 L -155.893,-193.033
 L -155.588,-192.812 L -155.313,-192.554 L -155.073,-192.263 L -154.871,-191.945 L -154.711,-191.604 L -154.594,-191.246
 L -154.524,-190.876 L -154.5,-190.5 L -154.524,-190.124 L -154.594,-189.754 L -154.711,-189.396 L -154.871,-189.055
 L -155.073,-188.737 L -155.313,-188.446 L -155.588,-188.188 L -155.893,-187.967 L -156.223,-187.786 L -156.573,-187.647
 L -156.938,-187.553 L -157.312,-187.506 z
M 157.312,-187.506 L 156.938,-187.553 L 156.573,-187.647 L 156.223,-187.786 L 155.893,-187.967 L 155.588,-188.188
 L 155.313,-188.446 L 155.073,-188.737 L 154.871,-189.055 L 154.711,-189.396 L 154.594,-189.754 L 154.524,-190.124
 L 154.5,-190.5 L 154.524,-190.876 L 154.594,-191.246 L 154.711,-191.604 L 154.871,-191.945 L 155.073,-192.263
 L 155.313,-192.554 L 155.588,-192.812 L 155.893,-193.033 L 156.223,-193.214 L 156.573,-193.353 L 156.938,-193.447
 L 157.312,-193.494 L 157.688,-193.494 L 158.062,-193.447 L 158.427,-193.353 L 158.777,-193.214 L 159.107,-193.033
 L 159.412,-192.812 L 159.687,-192.554 L 159.927,-192.263 L 160.129,-191.945 L 160.289,-191.604 L 160.406,-191.246
 L 160.476,-190.876 L 160.5,-190.5 L 160.476,-190.124 L 160.406,-189.754 L 160.289,-189.396 L 160.129,-189.055
 L 159.927,-188.737 L 159.687,-188.446 L 159.412,-188.188 L 159.107,-187.967 L 158.777,-187.786 L 158.427,-187.647
 L 158.062,-187.553 L 157.688,-187.506 z
M 157.406,-181.503 L 157.219,-181.527 L 157.036,-181.573 L 156.861,-181.643 L 156.696,-181.734 L 156.544,-181.844
 L 156.407,-181.973 L 156.286,-182.118 L 156.186,-182.277 L 156.105,-182.448 L 156.047,-182.627 L 156.012,-182.812
 L 156,-183 L 156.012,-183.188 L 156.047,-183.373 L 156.105,-183.552 L 156.186,-183.723 L 156.286,-183.882
 L 156.407,-184.027 L 156.544,-184.156 L 156.696,-184.266 L 156.861,-184.357 L 157.036,-184.427 L 157.219,-184.473
 L 157.406,-184.497 L 157.594,-184.497 L 157.781,-184.473 L 157.964,-184.427 L 158.139,-184.357 L 158.304,-184.266
 L 158.456,-184.156 L 158.593,-184.027 L 158.714,-183.882 L 158.814,-183.723 L 158.895,-183.552 L 158.953,-183.373
 L 158.988,-183.188 L 159,-183 L 158.988,-182.812 L 158.953,-182.627 L 158.895,-182.448 L 158.814,-182.277
 L 158.714,-182.118 L 158.593,-181.973 L 158.456,-181.844 L 158.304,-181.734 L 158.139,-181.643 L 157.964,-181.573
 L 157.781,-181.527 L 157.594,-181.503 z
M -157.594,-181.503 L -157.781,-181.527 L -157.964,-181.573 L -158.139,-181.643 L -158.304,-181.734 L -158.456,-181.844
 L -158.593,-181.973 L -158.714,-182.118 L -158.814,-182.277 L -158.895,-182.448 L -158.953,-182.627 L -158.988,-182.812
 L -159,-183 L -158.988,-183.188 L -158.953,-183.373 L -158.895,-183.552 L -158.814,-183.723 L -158.714,-183.882
 L -158.593,-184.027 L -158.456,-184.156 L -158.304,-184.266 L -158.139,-184.357 L -157.964,-184.427 L -157.781,-184.473
 L -157.594,-184.497 L -157.406,-184.497 L -157.219,-184.473 L -157.036,-184.427 L -156.861,-184.357 L -156.696,-184.266
 L -156.544,-184.156 L -156.407,-184.027 L -156.286,-183.882 L -156.186,-183.723 L -156.105,-183.552 L -156.047,-183.373
 L -156.012,-183.188 L -156,-183 L -156.012,-182.812 L -156.047,-182.627 L -156.105,-182.448 L -156.186,-182.277
 L -156.286,-182.118 L -156.407,-181.973 L -156.544,-181.844 L -156.696,-181.734 L -156.861,-181.643 L -157.036,-181.573
 L -157.219,-181.527 L -157.406,-181.503 z
M 157.312,-172.506 L 156.938,-172.553 L 156.573,-172.647 L 156.223,-172.786 L 155.893,-172.967 L 155.588,-173.188
 L 155.313,-173.446 L 155.073,-173.737 L 154.871,-174.055 L 154.711,-174.396 L 154.594,-174.754 L 154.524,-175.124
 L 154.5,-175.5 L 154.524,-175.876 L 154.594,-176.246 L 154.711,-176.604 L 154.871,-176.945 L 155.073,-177.263
 L 155.313,-177.554 L 155.588,-177.812 L 155.893,-178.033 L 156.223,-178.214 L 156.573,-178.353 L 156.938,-178.447
 L 157.312,-178.494 L 157.688,-178.494 L 158.062,-178.447 L 158.427,-178.353 L 158.777,-178.214 L 159.107,-178.033
 L 159.412,-177.812 L 159.687,-177.554 L 159.927,-177.263 L 160.129,-176.945 L 160.289,-176.604 L 160.406,-176.246
 L 160.476,-175.876 L 160.5,-175.5 L 160.476,-175.124 L 160.406,-174.754 L 160.289,-174.396 L 160.129,-174.055
 L 159.927,-173.737 L 159.687,-173.446 L 159.412,-173.188 L 159.107,-172.967 L 158.777,-172.786 L 158.427,-172.647
 L 158.062,-172.553 L 157.688,-172.506 z
M -157.688,-172.506 L -158.062,-172.553 L -158.427,-172.647 L -158.777,-172.786 L -159.107,-172.967 L -159.412,-173.188
 L -159.687,-173.446 L -159.927,-173.737 L -160.129,-174.055 L -160.289,-174.396 L -160.406,-174.754 L -160.476,-175.124
 L -160.5,-175.5 L -160.476,-175.876 L -160.406,-176.246 L -160.289,-176.604 L -160.129,-176.945 L -159.927,-177.263
 L -159.687,-177.554 L -159.412,-177.812 L -159.107,-178.033 L -158.777,-178.214 L -158.427,-178.353 L -158.062,-178.447
 L -157.688,-178.494 L -157.312,-178.494 L -156.938,-178.447 L -156.573,-178.353 L -156.223,-178.214 L -155.893,-178.033
 L -155.588,-177.812 L -155.313,-177.554 L -155.073,-177.263 L -154.871,-176.945 L -154.711,-176.604 L -154.594,-176.246
 L -154.524,-175.876 L -154.5,-175.5 L -154.524,-175.124 L -154.594,-174.754 L -154.711,-174.396 L -154.871,-174.055
 L -155.073,-173.737 L -155.313,-173.446 L -155.588,-173.188 L -155.893,-172.967 L -156.223,-172.786 L -156.573,-172.647
 L -156.938,-172.553 L -157.312,-172.506 z
M 157.406,-166.503 L 157.219,-166.527 L 157.036,-166.573 L 156.861,-166.643 L 156.696,-166.734 L 156.544,-166.844
 L 156.407,-166.973 L 156.286,-167.118 L 156.186,-167.277 L 156.105,-167.448 L 156.047,-167.627 L 156.012,-167.812
 L 156,-168 L 156.012,-168.188 L 156.047,-168.373 L 156.105,-168.552 L 156.186,-168.723 L 156.286,-168.882
 L 156.407,-169.027 L 156.544,-169.156 L 156.696,-169.266 L 156.861,-169.357 L 157.036,-169.427 L 157.219,-169.473
 L 157.406,-169.497 L 157.594,-169.497 L 157.781,-169.473 L 157.964,-169.427 L 158.139,-169.357 L 158.304,-169.266
 L 158.456,-169.156 L 158.593,-169.027 L 158.714,-168.882 L 158.814,-168.723 L 158.895,-168.552 L 158.953,-168.373
 L 158.988,-168.188 L 159,-168 L 158.988,-167.812 L 158.953,-167.627 L 158.895,-167.448 L 158.814,-167.277
 L 158.714,-167.118 L 158.593,-166.973 L 158.456,-166.844 L 158.304,-166.734 L 158.139,-166.643 L 157.964,-166.573
 L 157.781,-166.527 L 157.594,-166.503 z
M -157.594,-166.503 L -157.781,-166.527 L -157.964,-166.573 L -158.139,-166.643 L -158.304,-166.734 L -158.456,-166.844
 L -158.593,-166.973 L -158.714,-167.118 L -158.814,-167.277 L -158.895,-167.448 L -158.953,-167.627 L -158.988,-167.812
 L -159,-168 L -158.988,-168.188 L -158.953,-168.373 L -158.895,-168.552 L -158.814,-168.723 L -158.714,-168.882
 L -158.593,-169.027 L -158.456,-169.156 L -158.304,-169.266 L -158.139,-169.357 L -157.964,-169.427 L -157.781,-169.473
 L -157.594,-169.497 L -157.406,-169.497 L -157.219,-169.473 L -157.036,-169.427 L -156.861,-169.357 L -156.696,-169.266
 L -156.544,-169.156 L -156.407,-169.027 L -156.286,-168.882 L -156.186,-168.723 L -156.105,-168.552 L -156.047,-168.373
 L -156.012,-168.188 L -156,-168 L -156.012,-167.812 L -156.047,-167.627 L -156.105,-167.448 L -156.186,-167.277
 L -156.286,-167.118 L -156.407,-166.973 L -156.544,-166.844 L -156.696,-166.734 L -156.861,-166.643 L -157.036,-166.573
 L -157.219,-166.527 L -157.406,-166.503 z
M 157.312,-157.506 L 156.938,-157.553 L 156.573,-157.647 L 156.223,-157.786 L 155.893,-157.967 L 155.588,-158.188
 L 155.313,-158.446 L 155.073,-158.737 L 154.871,-159.055 L 154.711,-159.396 L 154.594,-159.754 L 154.524,-160.124
 L 154.5,-160.5 L 154.524,-160.876 L 154.594,-161.246 L 154.711,-161.604 L 154.871,-161.945 L 155.073,-162.263
 L 155.313,-162.554 L 155.588,-162.812 L 155.893,-163.033 L 156.223,-163.214 L 156.573,-163.353 L 156.938,-163.447
 L 157.312,-163.494 L 157.688,-163.494 L 158.062,-163.447 L 158.427,-163.353 L 158.777,-163.214 L 159.107,-163.033
 L 159.412,-162.812 L 159.687,-162.554 L 159.927,-162.263 L 160.129,-161.945 L 160.289,-161.604 L 160.406,-161.246
 L 160.476,-160.876 L 160.5,-160.5 L 160.476,-160.124 L 160.406,-159.754 L 160.289,-159.396 L 160.129,-159.055
 L 159.927,-158.737 L 159.687,-158.446 L 159.412,-158.188 L 159.107,-157.967 L 158.777,-157.786 L 158.427,-157.647
 L 158.062,-157.553 L 157.688,-157.506 z
M -157.688,-157.506 L -158.062,-157.553 L -158.427,-157.647 L -158.777,-157.786 L -159.107,-157.967 L -159.412,-158.188
 L -159.687,-158.446 L -159.927,-158.737 L -160.129,-159.055 L -160.289,-159.396 L -160.406,-159.754 L -160.476,-160.124
 L -160.5,-160.5 L -160.476,-160.876 L -160.406,-161.246 L -160.289,-161.604 L -160.129,-161.945 L -159.927,-162.263
 L -159.687,-162.554 L -159.412,-162.812 L -159.107,-163.033 L -158.777,-163.214 L -158.427,-163.353 L -158.062,-163.447
 L -157.688,-163.494 L -157.312,-163.494 L -156.938,-163.447 L -156.573,-163.353 L -156.223,-163.214 L -155.893,-163.033
 L -155.588,-162.812 L -155.313,-162.554 L -155.073,-162.263 L -154.871,-161.945 L -154.711,-161.604 L -154.594,-161.246
 L -154.524,-160.876 L -154.5,-160.5 L -154.524,-160.124 L -154.594,-159.754 L -154.711,-159.396 L -154.871,-159.055
 L -155.073,-158.737 L -155.313,-158.446 L -155.588,-158.188 L -155.893,-157.967 L -156.223,-157.786 L -156.573,-157.647
 L -156.938,-157.553 L -157.312,-157.506 z
M 160.437,-54.5886 L 161.045,-54.7447 L 161.629,-54.9759 L 162.179,-55.2784 L 162.687,-55.6474 L 163.145,-56.0773
 L 163.545,-56.5611 L 163.882,-57.0912 L 164.149,-57.6594 L 164.343,-58.2566 L 164.461,-58.8733 L 164.5,-59.5
 L 164.5,-138.5 L 164.461,-139.127 L 164.343,-139.743 L 164.149,-140.341 L 163.882,-140.909 L 163.545,-141.439
 L 163.145,-141.923 L 162.687,-142.353 L 162.179,-142.722 L 161.629,-143.024 L 161.045,-143.255 L 160.437,-143.411
 L 159.814,-143.49 L -159.814,-143.49 L -160.437,-143.411 L -161.045,-143.255 L -161.629,-143.024 L -162.179,-142.722
 L -162.687,-142.353 L -163.145,-141.923 L -163.545,-141.439 L -163.882,-140.909 L -164.149,-140.341 L -164.343,-139.743
 L -164.461,-139.127 L -164.5,-138.5 L -164.5,-59.5 L -164.461,-58.8733 L -164.343,-58.2566 L -164.149,-57.6594
 L -163.882,-57.0912 L -163.545,-56.5611 L -163.145,-56.0773 L -162.687,-55.6474 L -162.179,-55.2784 L -161.629,-54.9759
 L -161.045,-54.7447 L -160.437,-54.5886 L -159.814,-54.5099 L 159.814,-54.5099 z
M 157.312,-133.506 L 156.938,-133.553 L 156.573,-133.647 L 156.223,-133.786 L 155.893,-133.967 L 155.588,-134.188
 L 155.313,-134.446 L 155.073,-134.737 L 154.871,-135.055 L 154.711,-135.396 L 154.594,-135.754 L 154.524,-136.124
 L 154.5,-136.5 L 154.524,-136.876 L 154.594,-137.246 L 154.711,-137.604 L 154.871,-137.945 L 155.073,-138.263
 L 155.313,-138.554 L 155.588,-138.812 L 155.893,-139.033 L 156.223,-139.214 L 156.573,-139.353 L 156.938,-139.447
 L 157.312,-139.494 L 157.688,-139.494 L 158.062,-139.447 L 158.427,-139.353 L 158.777,-139.214 L 159.107,-139.033
 L 159.412,-138.812 L 159.687,-138.554 L 159.927,-138.263 L 160.129,-137.945 L 160.289,-137.604 L 160.406,-137.246
 L 160.476,-136.876 L 160.5,-136.5 L 160.476,-136.124 L 160.406,-135.754 L 160.289,-135.396 L 160.129,-135.055
 L 159.927,-134.737 L 159.687,-134.446 L 159.412,-134.188 L 159.107,-133.967 L 158.777,-133.786 L 158.427,-133.647
 L 158.062,-133.553 L 157.688,-133.506 z
M -157.688,-133.506 L -158.062,-133.553 L -158.427,-133.647 L -158.777,-133.786 L -159.107,-133.967 L -159.412,-134.188
 L -159.687,-134.446 L -159.927,-134.737 L -160.129,-135.055 L -160.289,-135.396 L -160.406,-135.754 L -160.476,-136.124
 L -160.5,-136.5 L -160.476,-136.876 L -160.406,-137.246 L -160.289,-137.604 L -160.129,-137.945 L -159.927,-138.263
 L -159.687,-138.554 L -159.412,-138.812 L -159.107,-139.033 L -158.777,-139.214 L -158.427,-139.353 L -158.062,-139.447
 L -157.688,-139.494 L -157.312,-139.494 L -156.938,-139.447 L -156.573,-139.353 L -156.223,-139.214 L -155.893,-139.033
 L -155.588,-138.812 L -155.313,-138.554 L -155.073,-138.263 L -154.871,-137.945 L -154.711,-137.604 L -154.594,-137.246
 L -154.524,-136.876 L -154.5,-136.5 L -154.524,-136.124 L -154.594,-135.754 L -154.711,-135.396 L -154.871,-135.055
 L -155.073,-134.737 L -155.313,-134.446 L -155.588,-134.188 L -155.893,-133.967 L -156.223,-133.786 L -156.573,-133.647
 L -156.938,-133.553 L -157.312,-133.506 z
M -39.6977,-64.0691 L -44.0583,-64.6199 L -48.3156,-65.713 L -52.4023,-67.3311 L -56.2539,-69.4485 L -59.8098,-72.032
 L -63.0139,-75.0409 L -65.8156,-78.4275 L -68.1707,-82.1386 L -70.0422,-86.1156 L -71.4004,-90.2959 L -72.224,-94.6133
 L -72.5,-99 L -72.224,-103.387 L -71.4004,-107.704 L -70.0422,-111.884 L -68.1707,-115.861 L -65.8156,-119.572
 L -63.0139,-122.959 L -59.8098,-125.968 L -56.2539,-128.551 L -52.4023,-130.669 L -48.3156,-132.287 L -44.0583,-133.38
 L -39.6977,-133.931 L -35.3023,-133.931 L -30.9417,-133.38 L -26.6844,-132.287 L -22.5977,-130.669 L -18.746,-128.551
 L -15.1902,-125.968 L -11.9861,-122.959 L -9.1844,-119.572 L -6.82925,-115.861 L -4.95781,-111.884 L -3.59958,-107.704
 L -2.77597,-103.387 L -2.5,-99 L -2.77597,-94.6133 L -3.59958,-90.2959 L -4.95781,-86.1156 L -6.82925,-82.1386
 L -9.1844,-78.4275 L -11.9861,-75.0409 L -15.1902,-72.032 L -18.746,-69.4485 L -22.5977,-67.3311 L -26.6844,-65.713
 L -30.9417,-64.6199 L -35.3023,-64.0691 z
M -114.698,-64.0691 L -119.058,-64.6199 L -123.316,-65.713 L -127.402,-67.3311 L -131.254,-69.4485 L -134.81,-72.032
 L -138.014,-75.0409 L -140.816,-78.4275 L -143.171,-82.1386 L -145.042,-86.1156 L -146.4,-90.2959 L -147.224,-94.6133
 L -147.5,-99 L -147.224,-103.387 L -146.4,-107.704 L -145.042,-111.884 L -143.171,-115.861 L -140.816,-119.572
 L -138.014,-122.959 L -134.81,-125.968 L -131.254,-128.551 L -127.402,-130.669 L -123.316,-132.287 L -119.058,-133.38
 L -114.698,-133.931 L -110.302,-133.931 L -105.942,-133.38 L -101.684,-132.287 L -97.5977,-130.669 L -93.7461,-128.551
 L -90.1902,-125.968 L -86.9861,-122.959 L -84.1844,-119.572 L -81.8293,-115.861 L -79.9578,-111.884 L -78.5996,-107.704
 L -77.776,-103.387 L -77.5,-99 L -77.776,-94.6133 L -78.5996,-90.2959 L -79.9578,-86.1156 L -81.8293,-82.1386
 L -84.1844,-78.4275 L -86.9861,-75.0409 L -90.1902,-72.032 L -93.7461,-69.4485 L -97.5977,-67.3311 L -101.684,-65.713
 L -105.942,-64.6199 L -110.302,-64.0691 z
M 35.3023,-64.0691 L 30.9417,-64.6199 L 26.6844,-65.713 L 22.5977,-67.3311 L 18.746,-69.4485 L 15.1902,-72.032
 L 11.9861,-75.0409 L 9.1844,-78.4275 L 6.82925,-82.1386 L 4.95781,-86.1156 L 3.59958,-90.2959 L 2.77597,-94.6133
 L 2.5,-99 L 2.77597,-103.387 L 3.59958,-107.704 L 4.95781,-111.884 L 6.82925,-115.861 L 9.1844,-119.572
 L 11.9861,-122.959 L 15.1902,-125.968 L 18.746,-128.551 L 22.5977,-130.669 L 26.6844,-132.287 L 30.9417,-133.38
 L 35.3023,-133.931 L 39.6977,-133.931 L 44.0583,-133.38 L 48.3156,-132.287 L 52.4023,-130.669 L 56.2539,-128.551
 L 59.8098,-125.968 L 63.0139,-122.959 L 65.8156,-119.572 L 68.1707,-115.861 L 70.0422,-111.884 L 71.4004,-107.704
 L 72.224,-103.387 L 72.5,-99 L 72.224,-94.6133 L 71.4004,-90.2959 L 70.0422,-86.1156 L 68.1707,-82.1386
 L 65.8156,-78.4275 L 63.0139,-75.0409 L 59.8098,-72.032 L 56.2539,-69.4485 L 52.4023,-67.3311 L 48.3156,-65.713
 L 44.0583,-64.6199 L 39.6977,-64.0691 z
M 110.302,-64.0691 L 105.942,-64.6199 L 101.684,-65.713 L 97.5977,-67.3311 L 93.7461,-69.4485 L 90.1902,-72.032
 L 86.9861,-75.0409 L 84.1844,-78.4275 L 81.8293,-82.1386 L 79.9578,-86.1156 L 78.5996,-90.2959 L 77.776,-94.6133
 L 77.5,-99 L 77.776,-103.387 L 78.5996,-107.704 L 79.9578,-111.884 L 81.8293,-115.861 L 84.1844,-119.572
 L 86.9861,-122.959 L 90.1902,-125.968 L 93.7461,-128.551 L 97.5977,-130.669 L 101.684,-132.287 L 105.942,-133.38
 L 110.302,-133.931 L 114.698,-133.931 L 119.058,-133.38 L 123.316,-132.287 L 127.402,-130.669 L 131.254,-128.551
 L 134.81,-125.968 L 138.014,-122.959 L 140.816,-119.572 L 143.171,-115.861 L 145.042,-111.884 L 146.4,-107.704
 L 147.224,-103.387 L 147.5,-99 L 147.224,-94.6133 L 146.4,-90.2959 L 145.042,-86.1156 L 143.171,-82.1386
 L 140.816,-78.4275 L 138.014,-75.0409 L 134.81,-72.032 L 131.254,-69.4485 L 127.402,-67.3311 L 123.316,-65.713
 L 119.058,-64.6199 L 114.698,-64.0691 z
M 157.406,-127.503 L 157.219,-127.527 L 157.036,-127.573 L 156.861,-127.643 L 156.696,-127.734 L 156.544,-127.844
 L 156.407,-127.973 L 156.286,-128.118 L 156.186,-128.277 L 156.105,-128.448 L 156.047,-128.627 L 156.012,-128.812
 L 156,-129 L 156.012,-129.188 L 156.047,-129.373 L 156.105,-129.552 L 156.186,-129.723 L 156.286,-129.882
 L 156.407,-130.027 L 156.544,-130.156 L 156.696,-130.266 L 156.861,-130.357 L 157.036,-130.427 L 157.219,-130.473
 L 157.406,-130.497 L 157.594,-130.497 L 157.781,-130.473 L 157.964,-130.427 L 158.139,-130.357 L 158.304,-130.266
 L 158.456,-130.156 L 158.593,-130.027 L 158.714,-129.882 L 158.814,-129.723 L 158.895,-129.552 L 158.953,-129.373
 L 158.988,-129.188 L 159,-129 L 158.988,-128.812 L 158.953,-128.627 L 158.895,-128.448 L 158.814,-128.277
 L 158.714,-128.118 L 158.593,-127.973 L 158.456,-127.844 L 158.304,-127.734 L 158.139,-127.643 L 157.964,-127.573
 L 157.781,-127.527 L 157.594,-127.503 z
M -157.594,-127.503 L -157.781,-127.527 L -157.964,-127.573 L -158.139,-127.643 L -158.304,-127.734 L -158.456,-127.844
 L -158.593,-127.973 L -158.714,-128.118 L -158.814,-128.277 L -158.895,-128.448 L -158.953,-128.627 L -158.988,-128.812
 L -159,-129 L -158.988,-129.188 L -158.953,-129.373 L -158.895,-129.552 L -158.814,-129.723 L -158.714,-129.882
 L -158.593,-130.027 L -158.456,-130.156 L -158.304,-130.266 L -158.139,-130.357 L -157.964,-130.427 L -157.781,-130.473
 L -157.594,-130.497 L -157.406,-130.497 L -157.219,-130.473 L -157.036,-130.427 L -156.861,-130.357 L -156.696,-130.266
 L -156.544,-130.156 L -156.407,-130.027 L -156.286,-129.882 L -156.186,-129.723 L -156.105,-129.552 L -156.047,-129.373
 L -156.012,-129.188 L -156,-129 L -156.012,-128.812 L -156.047,-128.627 L -156.105,-128.448 L -156.186,-128.277
 L -156.286,-128.118 L -156.407,-127.973 L -156.544,-127.844 L -156.696,-127.734 L -156.861,-127.643 L -157.036,-127.573
 L -157.219,-127.527 L -157.406,-127.503 z
M 157.312,-118.506 L 156.938,-118.553 L 156.573,-118.647 L 156.223,-118.786 L 155.893,-118.967 L 155.588,-119.188
 L 155.313,-119.446 L 155.073,-119.737 L 154.871,-120.055 L 154.711,-120.396 L 154.594,-120.754 L 154.524,-121.124
 L 154.5,-121.5 L 154.524,-121.876 L 154.594,-122.246 L 154.711,-122.604 L 154.871,-122.945 L 155.073,-123.263
 L 155.313,-123.554 L 155.588,-123.812 L 155.893,-124.033 L 156.223,-124.214 L 156.573,-124.353 L 156.938,-124.447
 L 157.312,-124.494 L 157.688,-124.494 L 158.062,-124.447 L 158.427,-124.353 L 158.777,-124.214 L 159.107,-124.033
 L 159.412,-123.812 L 159.687,-123.554 L 159.927,-123.263 L 160.129,-122.945 L 160.289,-122.604 L 160.406,-122.246
 L 160.476,-121.876 L 160.5,-121.5 L 160.476,-121.124 L 160.406,-120.754 L 160.289,-120.396 L 160.129,-120.055
 L 159.927,-119.737 L 159.687,-119.446 L 159.412,-119.188 L 159.107,-118.967 L 158.777,-118.786 L 158.427,-118.647
 L 158.062,-118.553 L 157.688,-118.506 z
M -157.688,-118.506 L -158.062,-118.553 L -158.427,-118.647 L -158.777,-118.786 L -159.107,-118.967 L -159.412,-119.188
 L -159.687,-119.446 L -159.927,-119.737 L -160.129,-120.055 L -160.289,-120.396 L -160.406,-120.754 L -160.476,-121.124
 L -160.5,-121.5 L -160.476,-121.876 L -160.406,-122.246 L -160.289,-122.604 L -160.129,-122.945 L -159.927,-123.263
 L -159.687,-123.554 L -159.412,-123.812 L -159.107,-124.033 L -158.777,-124.214 L -158.427,-124.353 L -158.062,-124.447
 L -157.688,-124.494 L -157.312,-124.494 L -156.938,-124.447 L -156.573,-124.353 L -156.223,-124.214 L -155.893,-124.033
 L -155.588,-123.812 L -155.313,-123.554 L -155.073,-123.263 L -154.871,-122.945 L -154.711,-122.604 L -154.594,-122.246
 L -154.524,-121.876 L -154.5,-121.5 L -154.524,-121.124 L -154.594,-120.754 L -154.711,-120.396 L -154.871,-120.055
 L -155.073,-119.737 L -155.313,-119.446 L -155.588,-119.188 L -155.893,-118.967 L -156.223,-118.786 L -156.573,-118.647
 L -156.938,-118.553 L -157.312,-118.506 z
M 157.406,-112.503 L 157.219,-112.527 L 157.036,-112.573 L 156.861,-112.643 L 156.696,-112.734 L 156.544,-112.844
 L 156.407,-112.973 L 156.286,-113.118 L 156.186,-113.277 L 156.105,-113.448 L 156.047,-113.627 L 156.012,-113.812
 L 156,-114 L 156.012,-114.188 L 156.047,-114.373 L 156.105,-114.552 L 156.186,-114.723 L 156.286,-114.882
 L 156.407,-115.027 L 156.544,-115.156 L 156.696,-115.266 L 156.861,-115.357 L 157.036,-115.427 L 157.219,-115.473
 L 157.406,-115.497 L 157.594,-115.497 L 157.781,-115.473 L 157.964,-115.427 L 158.139,-115.357 L 158.304,-115.266
 L 158.456,-115.156 L 158.593,-115.027 L 158.714,-114.882 L 158.814,-114.723 L 158.895,-114.552 L 158.953,-114.373
 L 158.988,-114.188 L 159,-114 L 158.988,-113.812 L 158.953,-113.627 L 158.895,-113.448 L 158.814,-113.277
 L 158.714,-113.118 L 158.593,-112.973 L 158.456,-112.844 L 158.304,-112.734 L 158.139,-112.643 L 157.964,-112.573
 L 157.781,-112.527 L 157.594,-112.503 z
M -157.594,-112.503 L -157.781,-112.527 L -157.964,-112.573 L -158.139,-112.643 L -158.304,-112.734 L -158.456,-112.844
 L -158.593,-112.973 L -158.714,-113.118 L -158.814,-113.277 L -158.895,-113.448 L -158.953,-113.627 L -158.988,-113.812
 L -159,-114 L -158.988,-114.188 L -158.953,-114.373 L -158.895,-114.552 L -158.814,-114.723 L -158.714,-114.882
 L -158.593,-115.027 L -158.456,-115.156 L -158.304,-115.266 L -158.139,-115.357 L -157.964,-115.427 L -157.781,-115.473
 L -157.594,-115.497 L -157.406,-115.497 L -157.219,-115.473 L -157.036,-115.427 L -156.861,-115.357 L -156.696,-115.266
 L -156.544,-115.156 L -156.407,-115.027 L -156.286,-114.882 L -156.186,-114.723 L -156.105,-114.552 L -156.047,-114.373
 L -156.012,-114.188 L -156,-114 L -156.012,-113.812 L -156.047,-113.627 L -156.105,-113.448 L -156.186,-113.277
 L -156.286,-113.118 L -156.407,-112.973 L -156.544,-112.844 L -156.696,-112.734 L -156.861,-112.643 L -157.036,-112.573
 L -157.219,-112.527 L -157.406,-112.503 z
M 157.312,-103.506 L 156.938,-103.553 L 156.573,-103.647 L 156.223,-103.786 L 155.893,-103.967 L 155.588,-104.188
 L 155.313,-104.446 L 155.073,-104.737 L 154.871,-105.055 L 154.711,-105.396 L 154.594,-105.754 L 154.524,-106.124
 L 154.5,-106.5 L 154.524,-106.876 L 154.594,-107.246 L 154.711,-107.604 L 154.871,-107.945 L 155.073,-108.263
 L 155.313,-108.554 L 155.588,-108.812 L 155.893,-109.033 L 156.223,-109.214 L 156.573,-109.353 L 156.938,-109.447
 L 157.312,-109.494 L 157.688,-109.494 L 158.062,-109.447 L 158.427,-109.353 L 158.777,-109.214 L 159.107,-109.033
 L 159.412,-108.812 L 159.687,-108.554 L 159.927,-108.263 L 160.129,-107.945 L 160.289,-107.604 L 160.406,-107.246
 L 160.476,-106.876 L 160.5,-106.5 L 160.476,-106.124 L 160.406,-105.754 L 160.289,-105.396 L 160.129,-105.055
 L 159.927,-104.737 L 159.687,-104.446 L 159.412,-104.188 L 159.107,-103.967 L 158.777,-103.786 L 158.427,-103.647
 L 158.062,-103.553 L 157.688,-103.506 z
M -157.688,-103.506 L -158.062,-103.553 L -158.427,-103.647 L -158.777,-103.786 L -159.107,-103.967 L -159.412,-104.188
 L -159.687,-104.446 L -159.927,-104.737 L -160.129,-105.055 L -160.289,-105.396 L -160.406,-105.754 L -160.476,-106.124
 L -160.5,-106.5 L -160.476,-106.876 L -160.406,-107.246 L -160.289,-107.604 L -160.129,-107.945 L -159.927,-108.263
 L -159.687,-108.554 L -159.412,-108.812 L -159.107,-109.033 L -158.777,-109.214 L -158.427,-109.353 L -158.062,-109.447
 L -157.688,-109.494 L -157.312,-109.494 L -156.938,-109.447 L -156.573,-109.353 L -156.223,-109.214 L -155.893,-109.033
 L -155.588,-108.812 L -155.313,-108.554 L -155.073,-108.263 L -154.871,-107.945 L -154.711,-107.604 L -154.594,-107.246
 L -154.524,-106.876 L -154.5,-106.5 L -154.524,-106.124 L -154.594,-105.754 L -154.711,-105.396 L -154.871,-105.055
 L -155.073,-104.737 L -155.313,-104.446 L -155.588,-104.188 L -155.893,-103.967 L -156.223,-103.786 L -156.573,-103.647
 L -156.938,-103.553 L -157.312,-103.506 z
M 157.406,-97.503 L 157.219,-97.5266 L 157.036,-97.5734 L 156.861,-97.6428 L 156.696,-97.7335 L 156.544,-97.8442
 L 156.407,-97.9732 L 156.286,-98.1183 L 156.186,-98.2774 L 156.105,-98.4478 L 156.047,-98.627 L 156.012,-98.812
 L 156,-99 L 156.012,-99.188 L 156.047,-99.373 L 156.105,-99.5522 L 156.186,-99.7226 L 156.286,-99.8817
 L 156.407,-100.027 L 156.544,-100.156 L 156.696,-100.266 L 156.861,-100.357 L 157.036,-100.427 L 157.219,-100.473
 L 157.406,-100.497 L 157.594,-100.497 L 157.781,-100.473 L 157.964,-100.427 L 158.139,-100.357 L 158.304,-100.266
 L 158.456,-100.156 L 158.593,-100.027 L 158.714,-99.8817 L 158.814,-99.7226 L 158.895,-99.5522 L 158.953,-99.373
 L 158.988,-99.188 L 159,-99 L 158.988,-98.812 L 158.953,-98.627 L 158.895,-98.4478 L 158.814,-98.2774
 L 158.714,-98.1183 L 158.593,-97.9732 L 158.456,-97.8442 L 158.304,-97.7335 L 158.139,-97.6428 L 157.964,-97.5734
 L 157.781,-97.5266 L 157.594,-97.503 z
M -157.594,-97.503 L -157.781,-97.5266 L -157.964,-97.5734 L -158.139,-97.6428 L -158.304,-97.7335 L -158.456,-97.8442
 L -158.593,-97.9732 L -158.714,-98.1183 L -158.814,-98.2774 L -158.895,-98.4478 L -158.953,-98.627 L -158.988,-98.812
 L -159,-99 L -158.988,-99.188 L -158.953,-99.373 L -158.895,-99.5522 L -158.814,-99.7226 L -158.714,-99.8817
 L -158.593,-100.027 L -158.456,-100.156 L -158.304,-100.266 L -158.139,-100.357 L -157.964,-100.427 L -157.781,-100.473
 L -157.594,-100.497 L -157.406,-100.497 L -157.219,-100.473 L -157.036,-100.427 L -156.861,-100.357 L -156.696,-100.266
 L -156.544,-100.156 L -156.407,-100.027 L -156.286,-99.8817 L -156.186,-99.7226 L -156.105,-99.5522 L -156.047,-99.373
 L -156.012,-99.188 L -156,-99 L -156.012,-98.812 L -156.047,-98.627 L -156.105,-98.4478 L -156.186,-98.2774
 L -156.286,-98.1183 L -156.407,-97.9732 L -156.544,-97.8442 L -156.696,-97.7335 L -156.861,-97.6428 L -157.036,-97.5734
 L -157.219,-97.5266 L -157.406,-97.503 z
M 157.312,-88.5059 L 156.938,-88.5531 L 156.573,-88.6468 L 156.223,-88.7855 L 155.893,-88.967 L 155.588,-89.1885
 L 155.313,-89.4464 L 155.073,-89.7366 L 154.871,-90.0547 L 154.711,-90.3956 L 154.594,-90.7539 L 154.524,-91.124
 L 154.5,-91.5 L 154.524,-91.876 L 154.594,-92.2461 L 154.711,-92.6044 L 154.871,-92.9453 L 155.073,-93.2634
 L 155.313,-93.5536 L 155.588,-93.8116 L 155.893,-94.033 L 156.223,-94.2145 L 156.573,-94.3532 L 156.938,-94.4469
 L 157.312,-94.4941 L 157.688,-94.4941 L 158.062,-94.4469 L 158.427,-94.3532 L 158.777,-94.2145 L 159.107,-94.033
 L 159.412,-93.8116 L 159.687,-93.5536 L 159.927,-93.2634 L 160.129,-92.9453 L 160.289,-92.6044 L 160.406,-92.2461
 L 160.476,-91.876 L 160.5,-91.5 L 160.476,-91.124 L 160.406,-90.7539 L 160.289,-90.3956 L 160.129,-90.0547
 L 159.927,-89.7366 L 159.687,-89.4464 L 159.412,-89.1885 L 159.107,-88.967 L 158.777,-88.7855 L 158.427,-88.6468
 L 158.062,-88.5531 L 157.688,-88.5059 z
M -157.688,-88.5059 L -158.062,-88.5531 L -158.427,-88.6468 L -158.777,-88.7855 L -159.107,-88.967 L -159.412,-89.1885
 L -159.687,-89.4464 L -159.927,-89.7366 L -160.129,-90.0547 L -160.289,-90.3956 L -160.406,-90.7539 L -160.476,-91.124
 L -160.5,-91.5 L -160.476,-91.876 L -160.406,-92.2461 L -160.289,-92.6044 L -160.129,-92.9453 L -159.927,-93.2634
 L -159.687,-93.5536 L -159.412,-93.8116 L -159.107,-94.033 L -158.777,-94.2145 L -158.427,-94.3532 L -158.062,-94.4469
 L -157.688,-94.4941 L -157.312,-94.4941 L -156.938,-94.4469 L -156.573,-94.3532 L -156.223,-94.2145 L -155.893,-94.033
 L -155.588,-93.8116 L -155.313,-93.5536 L -155.073,-93.2634 L -154.871,-92.9453 L -154.711,-92.6044 L -154.594,-92.2461
 L -154.524,-91.876 L -154.5,-91.5 L -154.524,-91.124 L -154.594,-90.7539 L -154.711,-90.3956 L -154.871,-90.0547
 L -155.073,-89.7366 L -155.313,-89.4464 L -155.588,-89.1885 L -155.893,-88.967 L -156.223,-88.7855 L -156.573,-88.6468
 L -156.938,-88.5531 L -157.312,-88.5059 z
M -157.594,-82.503 L -157.781,-82.5266 L -157.964,-82.5734 L -158.139,-82.6428 L -158.304,-82.7335 L -158.456,-82.8442
 L -158.593,-82.9732 L -158.714,-83.1183 L -158.814,-83.2774 L -158.895,-83.4478 L -158.953,-83.627 L -158.988,-83.812
 L -159,-84 L -158.988,-84.188 L -158.953,-84.373 L -158.895,-84.5522 L -158.814,-84.7226 L -158.714,-84.8817
 L -158.593,-85.0268 L -158.456,-85.1558 L -158.304,-85.2665 L -158.139,-85.3573 L -157.964,-85.4266 L -157.781,-85.4734
 L -157.594,-85.4971 L -157.406,-85.4971 L -157.219,-85.4734 L -157.036,-85.4266 L -156.861,-85.3573 L -156.696,-85.2665
 L -156.544,-85.1558 L -156.407,-85.0268 L -156.286,-84.8817 L -156.186,-84.7226 L -156.105,-84.5522 L -156.047,-84.373
 L -156.012,-84.188 L -156,-84 L -156.012,-83.812 L -156.047,-83.627 L -156.105,-83.4478 L -156.186,-83.2774
 L -156.286,-83.1183 L -156.407,-82.9732 L -156.544,-82.8442 L -156.696,-82.7335 L -156.861,-82.6428 L -157.036,-82.5734
 L -157.219,-82.5266 L -157.406,-82.503 z
M 157.406,-82.503 L 157.219,-82.5266 L 157.036,-82.5734 L 156.861,-82.6428 L 156.696,-82.7335 L 156.544,-82.8442
 L 156.407,-82.9732 L 156.286,-83.1183 L 156.186,-83.2774 L 156.105,-83.4478 L 156.047,-83.627 L 156.012,-83.812
 L 156,-84 L 156.012,-84.188 L 156.047,-84.373 L 156.105,-84.5522 L 156.186,-84.7226 L 156.286,-84.8817
 L 156.407,-85.0268 L 156.544,-85.1558 L 156.696,-85.2665 L 156.861,-85.3573 L 157.036,-85.4266 L 157.219,-85.4734
 L 157.406,-85.4971 L 157.594,-85.4971 L 157.781,-85.4734 L 157.964,-85.4266 L 158.139,-85.3573 L 158.304,-85.2665
 L 158.456,-85.1558 L 158.593,-85.0268 L 158.714,-84.8817 L 158.814,-84.7226 L 158.895,-84.5522 L 158.953,-84.373
 L 158.988,-84.188 L 159,-84 L 158.988,-83.812 L 158.953,-83.627 L 158.895,-83.4478 L 158.814,-83.2774
 L 158.714,-83.1183 L 158.593,-82.9732 L 158.456,-82.8442 L 158.304,-82.7335 L 158.139,-82.6428 L 157.964,-82.5734
 L 157.781,-82.5266 L 157.594,-82.503 z
M 157.312,-73.5059 L 156.938,-73.5531 L 156.573,-73.6468 L 156.223,-73.7855 L 155.893,-73.967 L 155.588,-74.1885
 L 155.313,-74.4464 L 155.073,-74.7366 L 154.871,-75.0547 L 154.711,-75.3956 L 154.594,-75.7539 L 154.524,-76.124
 L 154.5,-76.5 L 154.524,-76.876 L 154.594,-77.2461 L 154.711,-77.6044 L 154.871,-77.9453 L 155.073,-78.2634
 L 155.313,-78.5536 L 155.588,-78.8116 L 155.893,-79.033 L 156.223,-79.2145 L 156.573,-79.3532 L 156.938,-79.4469
 L 157.312,-79.4941 L 157.688,-79.4941 L 158.062,-79.4469 L 158.427,-79.3532 L 158.777,-79.2145 L 159.107,-79.033
 L 159.412,-78.8116 L 159.687,-78.5536 L 159.927,-78.2634 L 160.129,-77.9453 L 160.289,-77.6044 L 160.406,-77.2461
 L 160.476,-76.876 L 160.5,-76.5 L 160.476,-76.124 L 160.406,-75.7539 L 160.289,-75.3956 L 160.129,-75.0547
 L 159.927,-74.7366 L 159.687,-74.4464 L 159.412,-74.1885 L 159.107,-73.967 L 158.777,-73.7855 L 158.427,-73.6468
 L 158.062,-73.5531 L 157.688,-73.5059 z
M -157.688,-73.5059 L -158.062,-73.5531 L -158.427,-73.6468 L -158.777,-73.7855 L -159.107,-73.967 L -159.412,-74.1885
 L -159.687,-74.4464 L -159.927,-74.7366 L -160.129,-75.0547 L -160.289,-75.3956 L -160.406,-75.7539 L -160.476,-76.124
 L -160.5,-76.5 L -160.476,-76.876 L -160.406,-77.2461 L -160.289,-77.6044 L -160.129,-77.9453 L -159.927,-78.2634
 L -159.687,-78.5536 L -159.412,-78.8116 L -159.107,-79.033 L -158.777,-79.2145 L -158.427,-79.3532 L -158.062,-79.4469
 L -157.688,-79.4941 L -157.312,-79.4941 L -156.938,-79.4469 L -156.573,-79.3532 L -156.223,-79.2145 L -155.893,-79.033
 L -155.588,-78.8116 L -155.313,-78.5536 L -155.073,-78.2634 L -154.871,-77.9453 L -154.711,-77.6044 L -154.594,-77.2461
 L -154.524,-76.876 L -154.5,-76.5 L -154.524,-76.124 L -154.594,-75.7539 L -154.711,-75.3956 L -154.871,-75.0547
 L -155.073,-74.7366 L -155.313,-74.4464 L -155.588,-74.1885 L -155.893,-73.967 L -156.223,-73.7855 L -156.573,-73.6468
 L -156.938,-73.5531 L -157.312,-73.5059 z
M 157.406,-67.503 L 157.219,-67.5266 L 157.036,-67.5734 L 156.861,-67.6428 L 156.696,-67.7335 L 156.544,-67.8442
 L 156.407,-67.9732 L 156.286,-68.1183 L 156.186,-68.2774 L 156.105,-68.4478 L 156.047,-68.627 L 156.012,-68.812
 L 156,-69 L 156.012,-69.188 L 156.047,-69.373 L 156.105,-69.5522 L 156.186,-69.7226 L 156.286,-69.8817
 L 156.407,-70.0268 L 156.544,-70.1558 L 156.696,-70.2665 L 156.861,-70.3573 L 157.036,-70.4266 L 157.219,-70.4734
 L 157.406,-70.497 L 157.594,-70.497 L 157.781,-70.4734 L 157.964,-70.4266 L 158.139,-70.3573 L 158.304,-70.2665
 L 158.456,-70.1558 L 158.593,-70.0268 L 158.714,-69.8817 L 158.814,-69.7226 L 158.895,-69.5522 L 158.953,-69.373
 L 158.988,-69.188 L 159,-69 L 158.988,-68.812 L 158.953,-68.627 L 158.895,-68.4478 L 158.814,-68.2774
 L 158.714,-68.1183 L 158.593,-67.9732 L 158.456,-67.8442 L 158.304,-67.7335 L 158.139,-67.6428 L 157.964,-67.5734
 L 157.781,-67.5266 L 157.594,-67.503 z
M -157.594,-67.503 L -157.781,-67.5266 L -157.964,-67.5734 L -158.139,-67.6428 L -158.304,-67.7335 L -158.456,-67.8442
 L -158.593,-67.9732 L -158.714,-68.1183 L -158.814,-68.2774 L -158.895,-68.4478 L -158.953,-68.627 L -158.988,-68.812
 L -159,-69 L -158.988,-69.188 L -158.953,-69.373 L -158.895,-69.5522 L -158.814,-69.7226 L -158.714,-69.8817
 L -158.593,-70.0268 L -158.456,-70.1558 L -158.304,-70.2665 L -158.139,-70.3573 L -157.964,-70.4266 L -157.781,-70.4734
 L -157.594,-70.497 L -157.406,-70.497 L -157.219,-70.4734 L -157.036,-70.4266 L -156.861,-70.3573 L -156.696,-70.2665
 L -156.544,-70.1558 L -156.407,-70.0268 L -156.286,-69.8817 L -156.186,-69.7226 L -156.105,-69.5522 L -156.047,-69.373
 L -156.012,-69.188 L -156,-69 L -156.012,-68.812 L -156.047,-68.627 L -156.105,-68.4478 L -156.186,-68.2774
 L -156.286,-68.1183 L -156.407,-67.9732 L -156.544,-67.8442 L -156.696,-67.7335 L -156.861,-67.6428 L -157.036,-67.5734
 L -157.219,-67.5266 L -157.406,-67.503 z
M -157.688,-58.5059 L -158.062,-58.5531 L -158.427,-58.6468 L -158.777,-58.7855 L -159.107,-58.967 L -159.412,-59.1885
 L -159.687,-59.4464 L -159.927,-59.7366 L -160.129,-60.0547 L -160.289,-60.3956 L -160.406,-60.7539 L -160.476,-61.124
 L -160.5,-61.5 L -160.476,-61.876 L -160.406,-62.2461 L -160.289,-62.6044 L -160.129,-62.9453 L -159.927,-63.2634
 L -159.687,-63.5536 L -159.412,-63.8115 L -159.107,-64.033 L -158.777,-64.2145 L -158.427,-64.3532 L -158.062,-64.4469
 L -157.688,-64.4941 L -157.312,-64.4941 L -156.938,-64.4469 L -156.573,-64.3532 L -156.223,-64.2145 L -155.893,-64.033
 L -155.588,-63.8115 L -155.313,-63.5536 L -155.073,-63.2634 L -154.871,-62.9453 L -154.711,-62.6044 L -154.594,-62.2461
 L -154.524,-61.876 L -154.5,-61.5 L -154.524,-61.124 L -154.594,-60.7539 L -154.711,-60.3956 L -154.871,-60.0547
 L -155.073,-59.7366 L -155.313,-59.4464 L -155.588,-59.1885 L -155.893,-58.967 L -156.223,-58.7855 L -156.573,-58.6468
 L -156.938,-58.5531 L -157.312,-58.5059 z
M 157.312,-58.5059 L 156.938,-58.5531 L 156.573,-58.6468 L 156.223,-58.7855 L 155.893,-58.967 L 155.588,-59.1885
 L 155.313,-59.4464 L 155.073,-59.7366 L 154.871,-60.0547 L 154.711,-60.3956 L 154.594,-60.7539 L 154.524,-61.124
 L 154.5,-61.5 L 154.524,-61.876 L 154.594,-62.2461 L 154.711,-62.6044 L 154.871,-62.9453 L 155.073,-63.2634
 L 155.313,-63.5536 L 155.588,-63.8115 L 155.893,-64.033 L 156.223,-64.2145 L 156.573,-64.3532 L 156.938,-64.4469
 L 157.312,-64.4941 L 157.688,-64.4941 L 158.062,-64.4469 L 158.427,-64.3532 L 158.777,-64.2145 L 159.107,-64.033
 L 159.412,-63.8115 L 159.687,-63.5536 L 159.927,-63.2634 L 160.129,-62.9453 L 160.289,-62.6044 L 160.406,-62.2461
 L 160.476,-61.876 L 160.5,-61.5 L 160.476,-61.124 L 160.406,-60.7539 L 160.289,-60.3956 L 160.129,-60.0547
 L 159.927,-59.7366 L 159.687,-59.4464 L 159.412,-59.1885 L 159.107,-58.967 L 158.777,-58.7855 L 158.427,-58.6468
 L 158.062,-58.5531 L 157.688,-58.5059 z
" stroke="black" fill="lightgray" stroke-width="0.5"/>
</svg>
