  0
SECTION
  2
BLOCKS
  0
ENDSEC
  0
SECTION
  2
ENTITIES
  0
LINE
  8
0
 10
55.4369
 20
-21.9114
 11
56.0451
 21
-21.7553
  0
LINE
  8
0
 10
56.0451
 20
-21.7553
 11
56.6289
 21
-21.5241
  0
LINE
  8
0
 10
56.6289
 20
-21.5241
 11
57.1791
 21
-21.2216
  0
LINE
  8
0
 10
57.1791
 20
-21.2216
 11
57.6871
 21
-20.8526
  0
LINE
  8
0
 10
57.6871
 20
-20.8526
 11
58.1448
 21
-20.4227
  0
LINE
  8
0
 10
58.1448
 20
-20.4227
 11
58.5451
 21
-19.9389
  0
LINE
  8
0
 10
58.5451
 20
-19.9389
 11
58.8815
 21
-19.4088
  0
LINE
  8
0
 10
58.8815
 20
-19.4088
 11
59.1489
 21
-18.8406
  0
LINE
  8
0
 10
59.1489
 20
-18.8406
 11
59.3429
 21
-18.2434
  0
LINE
  8
0
 10
59.3429
 20
-18.2434
 11
59.4606
 21
-17.6267
  0
LINE
  8
0
 10
59.4606
 20
-17.6267
 11
59.5
 21
-17
  0
LINE
  8
0
 10
59.5
 20
-17
 11
59.5
 21
17
  0
LINE
  8
0
 10
59.5
 20
17
 11
59.4606
 21
17.6267
  0
LINE
  8
0
 10
59.4606
 20
17.6267
 11
59.3429
 21
18.2434
  0
LINE
  8
0
 10
59.3429
 20
18.2434
 11
59.1489
 21
18.8406
  0
LINE
  8
0
 10
59.1489
 20
18.8406
 11
58.8815
 21
19.4088
  0
LINE
  8
0
 10
58.8815
 20
19.4088
 11
58.5451
 21
19.9389
  0
LINE
  8
0
 10
58.5451
 20
19.9389
 11
58.1448
 21
20.4227
  0
LINE
  8
0
 10
58.1448
 20
20.4227
 11
57.6871
 21
20.8526
  0
LINE
  8
0
 10
57.6871
 20
20.8526
 11
57.1791
 21
21.2216
  0
LINE
  8
0
 10
57.1791
 20
21.2216
 11
56.6289
 21
21.5241
  0
LINE
  8
0
 10
56.6289
 20
21.5241
 11
56.0451
 21
21.7553
  0
LINE
  8
0
 10
56.0451
 20
21.7553
 11
55.4369
 21
21.9114
  0
LINE
  8
0
 10
55.4369
 20
21.9114
 11
54.8139
 21
21.9901
  0
LINE
  8
0
 10
54.8139
 20
21.9901
 11
-54.8139
 21
21.9901
  0
LINE
  8
0
 10
-54.8139
 20
21.9901
 11
-55.4369
 21
21.9114
  0
LINE
  8
0
 10
-55.4369
 20
21.9114
 11
-56.0451
 21
21.7553
  0
LINE
  8
0
 10
-56.0451
 20
21.7553
 11
-56.6289
 21
21.5241
  0
LINE
  8
0
 10
-56.6289
 20
21.5241
 11
-57.1791
 21
21.2216
  0
LINE
  8
0
 10
-57.1791
 20
21.2216
 11
-57.6871
 21
20.8526
  0
LINE
  8
0
 10
-57.6871
 20
20.8526
 11
-58.1448
 21
20.4227
  0
LINE
  8
0
 10
-58.1448
 20
20.4227
 11
-58.5451
 21
19.9389
  0
LINE
  8
0
 10
-58.5451
 20
19.9389
 11
-58.8815
 21
19.4088
  0
LINE
  8
0
 10
-58.8815
 20
19.4088
 11
-59.1489
 21
18.8406
  0
LINE
  8
0
 10
-59.1489
 20
18.8406
 11
-59.3429
 21
18.2434
  0
LINE
  8
0
 10
-59.3429
 20
18.2434
 11
-59.4606
 21
17.6267
  0
LINE
  8
0
 10
-59.4606
 20
17.6267
 11
-59.5
 21
17
  0
LINE
  8
0
 10
-59.5
 20
17
 11
-59.5
 21
-17
  0
LINE
  8
0
 10
-59.5
 20
-17
 11
-59.4606
 21
-17.6267
  0
LINE
  8
0
 10
-59.4606
 20
-17.6267
 11
-59.3429
 21
-18.2434
  0
LINE
  8
0
 10
-59.3429
 20
-18.2434
 11
-59.1489
 21
-18.8406
  0
LINE
  8
0
 10
-59.1489
 20
-18.8406
 11
-58.8815
 21
-19.4088
  0
LINE
  8
0
 10
-58.8815
 20
-19.4088
 11
-58.5451
 21
-19.9389
  0
LINE
  8
0
 10
-58.5451
 20
-19.9389
 11
-58.1448
 21
-20.4227
  0
LINE
  8
0
 10
-58.1448
 20
-20.4227
 11
-57.6871
 21
-20.8526
  0
LINE
  8
0
 10
-57.6871
 20
-20.8526
 11
-57.1791
 21
-21.2216
  0
LINE
  8
0
 10
-57.1791
 20
-21.2216
 11
-56.6289
 21
-21.5241
  0
LINE
  8
0
 10
-56.6289
 20
-21.5241
 11
-56.0451
 21
-21.7553
  0
LINE
  8
0
 10
-56.0451
 20
-21.7553
 11
-55.4369
 21
-21.9114
  0
LINE
  8
0
 10
-55.4369
 20
-21.9114
 11
-54.8139
 21
-21.9901
  0
LINE
  8
0
 10
-54.8139
 20
-21.9901
 11
54.8139
 21
-21.9901
  0
LINE
  8
0
 10
54.8139
 20
-21.9901
 11
55.4369
 21
-21.9114
  0
LINE
  8
0
 10
-52.6884
 20
12.0059
 11
-53.0621
 21
12.0531
  0
LINE
  8
0
 10
-53.0621
 20
12.0531
 11
-53.427
 21
12.1468
  0
LINE
  8
0
 10
-53.427
 20
12.1468
 11
-53.7773
 21
12.2855
  0
LINE
  8
0
 10
-53.7773
 20
12.2855
 11
-54.1075
 21
12.467
  0
LINE
  8
0
 10
-54.1075
 20
12.467
 11
-54.4123
 21
12.6884
  0
LINE
  8
0
 10
-54.4123
 20
12.6884
 11
-54.6869
 21
12.9464
  0
LINE
  8
0
 10
-54.6869
 20
12.9464
 11
-54.927
 21
13.2366
  0
LINE
  8
0
 10
-54.927
 20
13.2366
 11
-55.1289
 21
13.5547
  0
LINE
  8
0
 10
-55.1289
 20
13.5547
 11
-55.2893
 21
13.8956
  0
LINE
  8
0
 10
-55.2893
 20
13.8956
 11
-55.4057
 21
14.2539
  0
LINE
  8
0
 10
-55.4057
 20
14.2539
 11
-55.4763
 21
14.624
  0
LINE
  8
0
 10
-55.4763
 20
14.624
 11
-55.5
 21
15
  0
LINE
  8
0
 10
-55.5
 20
15
 11
-55.4763
 21
15.376
  0
LINE
  8
0
 10
-55.4763
 20
15.376
 11
-55.4057
 21
15.7461
  0
LINE
  8
0
 10
-55.4057
 20
15.7461
 11
-55.2893
 21
16.1044
  0
LINE
  8
0
 10
-55.2893
 20
16.1044
 11
-55.1289
 21
16.4453
  0
LINE
  8
0
 10
-55.1289
 20
16.4453
 11
-54.927
 21
16.7634
  0
LINE
  8
0
 10
-54.927
 20
16.7634
 11
-54.6869
 21
17.0536
  0
LINE
  8
0
 10
-54.6869
 20
17.0536
 11
-54.4123
 21
17.3115
  0
LINE
  8
0
 10
-54.4123
 20
17.3115
 11
-54.1075
 21
17.533
  0
LINE
  8
0
 10
-54.1075
 20
17.533
 11
-53.7773
 21
17.7145
  0
LINE
  8
0
 10
-53.7773
 20
17.7145
 11
-53.427
 21
17.8532
  0
LINE
  8
0
 10
-53.427
 20
17.8532
 11
-53.0621
 21
17.9469
  0
LINE
  8
0
 10
-53.0621
 20
17.9469
 11
-52.6884
 21
17.9941
  0
LINE
  8
0
 10
-52.6884
 20
17.9941
 11
-52.3116
 21
17.9941
  0
LINE
  8
0
 10
-52.3116
 20
17.9941
 11
-51.9379
 21
17.9469
  0
LINE
  8
0
 10
-51.9379
 20
17.9469
 11
-51.5729
 21
17.8532
  0
LINE
  8
0
 10
-51.5729
 20
17.8532
 11
-51.2227
 21
17.7145
  0
LINE
  8
0
 10
-51.2227
 20
17.7145
 11
-50.8925
 21
17.533
  0
LINE
  8
0
 10
-50.8925
 20
17.533
 11
-50.5877
 21
17.3115
  0
LINE
  8
0
 10
-50.5877
 20
17.3115
 11
-50.3131
 21
17.0536
  0
LINE
  8
0
 10
-50.3131
 20
17.0536
 11
-50.0729
 21
16.7634
  0
LINE
  8
0
 10
-50.0729
 20
16.7634
 11
-49.8711
 21
16.4453
  0
LINE
  8
0
 10
-49.8711
 20
16.4453
 11
-49.7107
 21
16.1044
  0
LINE
  8
0
 10
-49.7107
 20
16.1044
 11
-49.5942
 21
15.7461
  0
LINE
  8
0
 10
-49.5942
 20
15.7461
 11
-49.5237
 21
15.376
  0
LINE
  8
0
 10
-49.5237
 20
15.376
 11
-49.5
 21
15
  0
LINE
  8
0
 10
-49.5
 20
15
 11
-49.5237
 21
14.624
  0
LINE
  8
0
 10
-49.5237
 20
14.624
 11
-49.5942
 21
14.2539
  0
LINE
  8
0
 10
-49.5942
 20
14.2539
 11
-49.7107
 21
13.8956
  0
LINE
  8
0
 10
-49.7107
 20
13.8956
 11
-49.8711
 21
13.5547
  0
LINE
  8
0
 10
-49.8711
 20
13.5547
 11
-50.0729
 21
13.2366
  0
LINE
  8
0
 10
-50.0729
 20
13.2366
 11
-50.3131
 21
12.9464
  0
LINE
  8
0
 10
-50.3131
 20
12.9464
 11
-50.5877
 21
12.6884
  0
LINE
  8
0
 10
-50.5877
 20
12.6884
 11
-50.8925
 21
12.467
  0
LINE
  8
0
 10
-50.8925
 20
12.467
 11
-51.2227
 21
12.2855
  0
LINE
  8
0
 10
-51.2227
 20
12.2855
 11
-51.5729
 21
12.1468
  0
LINE
  8
0
 10
-51.5729
 20
12.1468
 11
-51.9379
 21
12.0531
  0
LINE
  8
0
 10
-51.9379
 20
12.0531
 11
-52.3116
 21
12.0059
  0
LINE
  8
0
 10
-52.3116
 20
12.0059
 11
-52.6884
 21
12.0059
  0
LINE
  8
0
 10
52.3116
 20
12.0059
 11
51.9379
 21
12.0531
  0
LINE
  8
0
 10
51.9379
 20
12.0531
 11
51.5729
 21
12.1468
  0
LINE
  8
0
 10
51.5729
 20
12.1468
 11
51.2227
 21
12.2855
  0
LINE
  8
0
 10
51.2227
 20
12.2855
 11
50.8925
 21
12.467
  0
LINE
  8
0
 10
50.8925
 20
12.467
 11
50.5877
 21
12.6884
  0
LINE
  8
0
 10
50.5877
 20
12.6884
 11
50.3131
 21
12.9464
  0
LINE
  8
0
 10
50.3131
 20
12.9464
 11
50.0729
 21
13.2366
  0
LINE
  8
0
 10
50.0729
 20
13.2366
 11
49.8711
 21
13.5547
  0
LINE
  8
0
 10
49.8711
 20
13.5547
 11
49.7107
 21
13.8956
  0
LINE
  8
0
 10
49.7107
 20
13.8956
 11
49.5942
 21
14.2539
  0
LINE
  8
0
 10
49.5942
 20
14.2539
 11
49.5237
 21
14.624
  0
LINE
  8
0
 10
49.5237
 20
14.624
 11
49.5
 21
15
  0
LINE
  8
0
 10
49.5
 20
15
 11
49.5237
 21
15.376
  0
LINE
  8
0
 10
49.5237
 20
15.376
 11
49.5942
 21
15.7461
  0
LINE
  8
0
 10
49.5942
 20
15.7461
 11
49.7107
 21
16.1044
  0
LINE
  8
0
 10
49.7107
 20
16.1044
 11
49.8711
 21
16.4453
  0
LINE
  8
0
 10
49.8711
 20
16.4453
 11
50.0729
 21
16.7634
  0
LINE
  8
0
 10
50.0729
 20
16.7634
 11
50.3131
 21
17.0536
  0
LINE
  8
0
 10
50.3131
 20
17.0536
 11
50.5877
 21
17.3115
  0
LINE
  8
0
 10
50.5877
 20
17.3115
 11
50.8925
 21
17.533
  0
LINE
  8
0
 10
50.8925
 20
17.533
 11
51.2227
 21
17.7145
  0
LINE
  8
0
 10
51.2227
 20
17.7145
 11
51.5729
 21
17.8532
  0
LINE
  8
0
 10
51.5729
 20
17.8532
 11
51.9379
 21
17.9469
  0
LINE
  8
0
 10
51.9379
 20
17.9469
 11
52.3116
 21
17.9941
  0
LINE
  8
0
 10
52.3116
 20
17.9941
 11
52.6884
 21
17.9941
  0
LINE
  8
0
 10
52.6884
 20
17.9941
 11
53.0621
 21
17.9469
  0
LINE
  8
0
 10
53.0621
 20
17.9469
 11
53.427
 21
17.8532
  0
LINE
  8
0
 10
53.427
 20
17.8532
 11
53.7773
 21
17.7145
  0
LINE
  8
0
 10
53.7773
 20
17.7145
 11
54.1075
 21
17.533
  0
LINE
  8
0
 10
54.1075
 20
17.533
 11
54.4123
 21
17.3115
  0
LINE
  8
0
 10
54.4123
 20
17.3115
 11
54.6869
 21
17.0536
  0
LINE
  8
0
 10
54.6869
 20
17.0536
 11
54.927
 21
16.7634
  0
LINE
  8
0
 10
54.927
 20
16.7634
 11
55.1289
 21
16.4453
  0
LINE
  8
0
 10
55.1289
 20
16.4453
 11
55.2893
 21
16.1044
  0
LINE
  8
0
 10
55.2893
 20
16.1044
 11
55.4057
 21
15.7461
  0
LINE
  8
0
 10
55.4057
 20
15.7461
 11
55.4763
 21
15.376
  0
LINE
  8
0
 10
55.4763
 20
15.376
 11
55.5
 21
15
  0
LINE
  8
0
 10
55.5
 20
15
 11
55.4763
 21
14.624
  0
LINE
  8
0
 10
55.4763
 20
14.624
 11
55.4057
 21
14.2539
  0
LINE
  8
0
 10
55.4057
 20
14.2539
 11
55.2893
 21
13.8956
  0
LINE
  8
0
 10
55.2893
 20
13.8956
 11
55.1289
 21
13.5547
  0
LINE
  8
0
 10
55.1289
 20
13.5547
 11
54.927
 21
13.2366
  0
LINE
  8
0
 10
54.927
 20
13.2366
 11
54.6869
 21
12.9464
  0
LINE
  8
0
 10
54.6869
 20
12.9464
 11
54.4123
 21
12.6884
  0
LINE
  8
0
 10
54.4123
 20
12.6884
 11
54.1075
 21
12.467
  0
LINE
  8
0
 10
54.1075
 20
12.467
 11
53.7773
 21
12.2855
  0
LINE
  8
0
 10
53.7773
 20
12.2855
 11
53.427
 21
12.1468
  0
LINE
  8
0
 10
53.427
 20
12.1468
 11
53.0621
 21
12.0531
  0
LINE
  8
0
 10
53.0621
 20
12.0531
 11
52.6884
 21
12.0059
  0
LINE
  8
0
 10
52.6884
 20
12.0059
 11
52.3116
 21
12.0059
  0
LINE
  8
0
 10
29.2151
 20
-12.4753
 11
27.6577
 21
-12.2786
  0
LINE
  8
0
 10
27.6577
 20
-12.2786
 11
26.1373
 21
-11.8882
  0
LINE
  8
0
 10
26.1373
 20
-11.8882
 11
24.6777
 21
-11.3103
  0
LINE
  8
0
 10
24.6777
 20
-11.3103
 11
23.3022
 21
-10.5541
  0
LINE
  8
0
 10
23.3022
 20
-10.5541
 11
22.0322
 21
-9.63141
  0
LINE
  8
0
 10
22.0322
 20
-9.63141
 11
20.8879
 21
-8.55682
  0
LINE
  8
0
 10
20.8879
 20
-8.55682
 11
19.8873
 21
-7.34731
  0
LINE
  8
0
 10
19.8873
 20
-7.34731
 11
19.0462
 21
-6.02191
  0
LINE
  8
0
 10
19.0462
 20
-6.02191
 11
18.3778
 21
-4.60155
  0
LINE
  8
0
 10
18.3778
 20
-4.60155
 11
17.8927
 21
-3.10861
  0
LINE
  8
0
 10
17.8927
 20
-3.10861
 11
17.5986
 21
-1.56665
  0
LINE
  8
0
 10
17.5986
 20
-1.56665
 11
17.5
 21
0
  0
LINE
  8
0
 10
17.5
 20
0
 11
17.5986
 21
1.56665
  0
LINE
  8
0
 10
17.5986
 20
1.56665
 11
17.8927
 21
3.10861
  0
LINE
  8
0
 10
17.8927
 20
3.10861
 11
18.3778
 21
4.60155
  0
LINE
  8
0
 10
18.3778
 20
4.60155
 11
19.0462
 21
6.02191
  0
LINE
  8
0
 10
19.0462
 20
6.02191
 11
19.8873
 21
7.34731
  0
LINE
  8
0
 10
19.8873
 20
7.34731
 11
20.8879
 21
8.55682
  0
LINE
  8
0
 10
20.8879
 20
8.55682
 11
22.0322
 21
9.63141
  0
LINE
  8
0
 10
22.0322
 20
9.63141
 11
23.3022
 21
10.5541
  0
LINE
  8
0
 10
23.3022
 20
10.5541
 11
24.6777
 21
11.3103
  0
LINE
  8
0
 10
24.6777
 20
11.3103
 11
26.1373
 21
11.8882
  0
LINE
  8
0
 10
26.1373
 20
11.8882
 11
27.6577
 21
12.2786
  0
LINE
  8
0
 10
27.6577
 20
12.2786
 11
29.2151
 21
12.4753
  0
LINE
  8
0
 10
29.2151
 20
12.4753
 11
30.7849
 21
12.4753
  0
LINE
  8
0
 10
30.7849
 20
12.4753
 11
32.3423
 21
12.2786
  0
LINE
  8
0
 10
32.3423
 20
12.2786
 11
33.8627
 21
11.8882
  0
LINE
  8
0
 10
33.8627
 20
11.8882
 11
35.3222
 21
11.3103
  0
LINE
  8
0
 10
35.3222
 20
11.3103
 11
36.6978
 21
10.5541
  0
LINE
  8
0
 10
36.6978
 20
10.5541
 11
37.9678
 21
9.63141
  0
LINE
  8
0
 10
37.9678
 20
9.63141
 11
39.1121
 21
8.55682
  0
LINE
  8
0
 10
39.1121
 20
8.55682
 11
40.1127
 21
7.34731
  0
LINE
  8
0
 10
40.1127
 20
7.34731
 11
40.9538
 21
6.02191
  0
LINE
  8
0
 10
40.9538
 20
6.02191
 11
41.6222
 21
4.60155
  0
LINE
  8
0
 10
41.6222
 20
4.60155
 11
42.1073
 21
3.10861
  0
LINE
  8
0
 10
42.1073
 20
3.10861
 11
42.4014
 21
1.56665
  0
LINE
  8
0
 10
42.4014
 20
1.56665
 11
42.5
 21
0
  0
LINE
  8
0
 10
42.5
 20
0
 11
42.4014
 21
-1.56665
  0
LINE
  8
0
 10
42.4014
 20
-1.56665
 11
42.1073
 21
-3.10861
  0
LINE
  8
0
 10
42.1073
 20
-3.10861
 11
41.6222
 21
-4.60155
  0
LINE
  8
0
 10
41.6222
 20
-4.60155
 11
40.9538
 21
-6.02191
  0
LINE
  8
0
 10
40.9538
 20
-6.02191
 11
40.1127
 21
-7.34731
  0
LINE
  8
0
 10
40.1127
 20
-7.34731
 11
39.1121
 21
-8.55682
  0
LINE
  8
0
 10
39.1121
 20
-8.55682
 11
37.9678
 21
-9.63141
  0
LINE
  8
0
 10
37.9678
 20
-9.63141
 11
36.6978
 21
-10.5541
  0
LINE
  8
0
 10
36.6978
 20
-10.5541
 11
35.3222
 21
-11.3103
  0
LINE
  8
0
 10
35.3222
 20
-11.3103
 11
33.8627
 21
-11.8882
  0
LINE
  8
0
 10
33.8627
 20
-11.8882
 11
32.3423
 21
-12.2786
  0
LINE
  8
0
 10
32.3423
 20
-12.2786
 11
30.7849
 21
-12.4753
  0
LINE
  8
0
 10
30.7849
 20
-12.4753
 11
29.2151
 21
-12.4753
  0
LINE
  8
0
 10
-30.7849
 20
-12.4753
 11
-32.3423
 21
-12.2786
  0
LINE
  8
0
 10
-32.3423
 20
-12.2786
 11
-33.8627
 21
-11.8882
  0
LINE
  8
0
 10
-33.8627
 20
-11.8882
 11
-35.3222
 21
-11.3103
  0
LINE
  8
0
 10
-35.3222
 20
-11.3103
 11
-36.6978
 21
-10.5541
  0
LINE
  8
0
 10
-36.6978
 20
-10.5541
 11
-37.9678
 21
-9.63141
  0
LINE
  8
0
 10
-37.9678
 20
-9.63141
 11
-39.1121
 21
-8.55682
  0
LINE
  8
0
 10
-39.1121
 20
-8.55682
 11
-40.1127
 21
-7.34731
  0
LINE
  8
0
 10
-40.1127
 20
-7.34731
 11
-40.9538
 21
-6.02191
  0
LINE
  8
0
 10
-40.9538
 20
-6.02191
 11
-41.6222
 21
-4.60155
  0
LINE
  8
0
 10
-41.6222
 20
-4.60155
 11
-42.1073
 21
-3.10861
  0
LINE
  8
0
 10
-42.1073
 20
-3.10861
 11
-42.4014
 21
-1.56665
  0
LINE
  8
0
 10
-42.4014
 20
-1.56665
 11
-42.5
 21
0
  0
LINE
  8
0
 10
-42.5
 20
0
 11
-42.4014
 21
1.56665
  0
LINE
  8
0
 10
-42.4014
 20
1.56665
 11
-42.1073
 21
3.10861
  0
LINE
  8
0
 10
-42.1073
 20
3.10861
 11
-41.6222
 21
4.60155
  0
LINE
  8
0
 10
-41.6222
 20
4.60155
 11
-40.9538
 21
6.02191
  0
LINE
  8
0
 10
-40.9538
 20
6.02191
 11
-40.1127
 21
7.34731
  0
LINE
  8
0
 10
-40.1127
 20
7.34731
 11
-39.1121
 21
8.55682
  0
LINE
  8
0
 10
-39.1121
 20
8.55682
 11
-37.9678
 21
9.63141
  0
LINE
  8
0
 10
-37.9678
 20
9.63141
 11
-36.6978
 21
10.5541
  0
LINE
  8
0
 10
-36.6978
 20
10.5541
 11
-35.3222
 21
11.3103
  0
LINE
  8
0
 10
-35.3222
 20
11.3103
 11
-33.8627
 21
11.8882
  0
LINE
  8
0
 10
-33.8627
 20
11.8882
 11
-32.3423
 21
12.2786
  0
LINE
  8
0
 10
-32.3423
 20
12.2786
 11
-30.7849
 21
12.4753
  0
LINE
  8
0
 10
-30.7849
 20
12.4753
 11
-29.2151
 21
12.4753
  0
LINE
  8
0
 10
-29.2151
 20
12.4753
 11
-27.6577
 21
12.2786
  0
LINE
  8
0
 10
-27.6577
 20
12.2786
 11
-26.1373
 21
11.8882
  0
LINE
  8
0
 10
-26.1373
 20
11.8882
 11
-24.6777
 21
11.3103
  0
LINE
  8
0
 10
-24.6777
 20
11.3103
 11
-23.3022
 21
10.5541
  0
LINE
  8
0
 10
-23.3022
 20
10.5541
 11
-22.0322
 21
9.63141
  0
LINE
  8
0
 10
-22.0322
 20
9.63141
 11
-20.8879
 21
8.55682
  0
LINE
  8
0
 10
-20.8879
 20
8.55682
 11
-19.8873
 21
7.34731
  0
LINE
  8
0
 10
-19.8873
 20
7.34731
 11
-19.0462
 21
6.02191
  0
LINE
  8
0
 10
-19.0462
 20
6.02191
 11
-18.3778
 21
4.60155
  0
LINE
  8
0
 10
-18.3778
 20
4.60155
 11
-17.8927
 21
3.10861
  0
LINE
  8
0
 10
-17.8927
 20
3.10861
 11
-17.5986
 21
1.56665
  0
LINE
  8
0
 10
-17.5986
 20
1.56665
 11
-17.5
 21
0
  0
LINE
  8
0
 10
-17.5
 20
0
 11
-17.5986
 21
-1.56665
  0
LINE
  8
0
 10
-17.5986
 20
-1.56665
 11
-17.8927
 21
-3.10861
  0
LINE
  8
0
 10
-17.8927
 20
-3.10861
 11
-18.3778
 21
-4.60155
  0
LINE
  8
0
 10
-18.3778
 20
-4.60155
 11
-19.0462
 21
-6.02191
  0
LINE
  8
0
 10
-19.0462
 20
-6.02191
 11
-19.8873
 21
-7.34731
  0
LINE
  8
0
 10
-19.8873
 20
-7.34731
 11
-20.8879
 21
-8.55682
  0
LINE
  8
0
 10
-20.8879
 20
-8.55682
 11
-22.0322
 21
-9.63141
  0
LINE
  8
0
 10
-22.0322
 20
-9.63141
 11
-23.3022
 21
-10.5541
  0
LINE
  8
0
 10
-23.3022
 20
-10.5541
 11
-24.6777
 21
-11.3103
  0
LINE
  8
0
 10
-24.6777
 20
-11.3103
 11
-26.1373
 21
-11.8882
  0
LINE
  8
0
 10
-26.1373
 20
-11.8882
 11
-27.6577
 21
-12.2786
  0
LINE
  8
0
 10
-27.6577
 20
-12.2786
 11
-29.2151
 21
-12.4753
  0
LINE
  8
0
 10
-29.2151
 20
-12.4753
 11
-30.7849
 21
-12.4753
  0
LINE
  8
0
 10
-0.784866
 20
-12.4753
 11
-2.34225
 21
-12.2786
  0
LINE
  8
0
 10
-2.34225
 20
-12.2786
 11
-3.8627
 21
-11.8882
  0
LINE
  8
0
 10
-3.8627
 20
-11.8882
 11
-5.32224
 21
-11.3103
  0
LINE
  8
0
 10
-5.32224
 20
-11.3103
 11
-6.69783
 21
-10.5541
  0
LINE
  8
0
 10
-6.69783
 20
-10.5541
 11
-7.96779
 21
-9.63141
  0
LINE
  8
0
 10
-7.96779
 20
-9.63141
 11
-9.11211
 21
-8.55682
  0
LINE
  8
0
 10
-9.11211
 20
-8.55682
 11
-10.1127
 21
-7.34731
  0
LINE
  8
0
 10
-10.1127
 20
-7.34731
 11
-10.9538
 21
-6.02191
  0
LINE
  8
0
 10
-10.9538
 20
-6.02191
 11
-11.6222
 21
-4.60155
  0
LINE
  8
0
 10
-11.6222
 20
-4.60155
 11
-12.1073
 21
-3.10861
  0
LINE
  8
0
 10
-12.1073
 20
-3.10861
 11
-12.4014
 21
-1.56665
  0
LINE
  8
0
 10
-12.4014
 20
-1.56665
 11
-12.5
 21
0
  0
LINE
  8
0
 10
-12.5
 20
0
 11
-12.4014
 21
1.56665
  0
LINE
  8
0
 10
-12.4014
 20
1.56665
 11
-12.1073
 21
3.10861
  0
LINE
  8
0
 10
-12.1073
 20
3.10861
 11
-11.6222
 21
4.60155
  0
LINE
  8
0
 10
-11.6222
 20
4.60155
 11
-10.9538
 21
6.02191
  0
LINE
  8
0
 10
-10.9538
 20
6.02191
 11
-10.1127
 21
7.34731
  0
LINE
  8
0
 10
-10.1127
 20
7.34731
 11
-9.11211
 21
8.55682
  0
LINE
  8
0
 10
-9.11211
 20
8.55682
 11
-7.96779
 21
9.63141
  0
LINE
  8
0
 10
-7.96779
 20
9.63141
 11
-6.69783
 21
10.5541
  0
LINE
  8
0
 10
-6.69783
 20
10.5541
 11
-5.32224
 21
11.3103
  0
LINE
  8
0
 10
-5.32224
 20
11.3103
 11
-3.8627
 21
11.8882
  0
LINE
  8
0
 10
-3.8627
 20
11.8882
 11
-2.34225
 21
12.2786
  0
LINE
  8
0
 10
-2.34225
 20
12.2786
 11
-0.784866
 21
12.4753
  0
LINE
  8
0
 10
-0.784866
 20
12.4753
 11
0.784866
 21
12.4753
  0
LINE
  8
0
 10
0.784866
 20
12.4753
 11
2.34225
 21
12.2786
  0
LINE
  8
0
 10
2.34225
 20
12.2786
 11
3.8627
 21
11.8882
  0
LINE
  8
0
 10
3.8627
 20
11.8882
 11
5.32224
 21
11.3103
  0
LINE
  8
0
 10
5.32224
 20
11.3103
 11
6.69783
 21
10.5541
  0
LINE
  8
0
 10
6.69783
 20
10.5541
 11
7.96779
 21
9.63141
  0
LINE
  8
0
 10
7.96779
 20
9.63141
 11
9.11211
 21
8.55682
  0
LINE
  8
0
 10
9.11211
 20
8.55682
 11
10.1127
 21
7.34731
  0
LINE
  8
0
 10
10.1127
 20
7.34731
 11
10.9538
 21
6.02191
  0
LINE
  8
0
 10
10.9538
 20
6.02191
 11
11.6222
 21
4.60155
  0
LINE
  8
0
 10
11.6222
 20
4.60155
 11
12.1073
 21
3.10861
  0
LINE
  8
0
 10
12.1073
 20
3.10861
 11
12.4014
 21
1.56665
  0
LINE
  8
0
 10
12.4014
 20
1.56665
 11
12.5
 21
0
  0
LINE
  8
0
 10
12.5
 20
0
 11
12.4014
 21
-1.56665
  0
LINE
  8
0
 10
12.4014
 20
-1.56665
 11
12.1073
 21
-3.10861
  0
LINE
  8
0
 10
12.1073
 20
-3.10861
 11
11.6222
 21
-4.60155
  0
LINE
  8
0
 10
11.6222
 20
-4.60155
 11
10.9538
 21
-6.02191
  0
LINE
  8
0
 10
10.9538
 20
-6.02191
 11
10.1127
 21
-7.34731
  0
LINE
  8
0
 10
10.1127
 20
-7.34731
 11
9.11211
 21
-8.55682
  0
LINE
  8
0
 10
9.11211
 20
-8.55682
 11
7.96779
 21
-9.63141
  0
LINE
  8
0
 10
7.96779
 20
-9.63141
 11
6.69783
 21
-10.5541
  0
LINE
  8
0
 10
6.69783
 20
-10.5541
 11
5.32224
 21
-11.3103
  0
LINE
  8
0
 10
5.32224
 20
-11.3103
 11
3.8627
 21
-11.8882
  0
LINE
  8
0
 10
3.8627
 20
-11.8882
 11
2.34225
 21
-12.2786
  0
LINE
  8
0
 10
2.34225
 20
-12.2786
 11
0.784866
 21
-12.4753
  0
LINE
  8
0
 10
0.784866
 20
-12.4753
 11
-0.784866
 21
-12.4753
  0
LINE
  8
0
 10
-52.5942
 20
6.00294
 11
-52.7811
 21
6.02657
  0
LINE
  8
0
 10
-52.7811
 20
6.02657
 11
-52.9635
 21
6.07341
  0
LINE
  8
0
 10
-52.9635
 20
6.07341
 11
-53.1387
 21
6.14275
  0
LINE
  8
0
 10
-53.1387
 20
6.14275
 11
-53.3037
 21
6.23351
  0
LINE
  8
0
 10
-53.3037
 20
6.23351
 11
-53.4561
 21
6.34422
  0
LINE
  8
0
 10
-53.4561
 20
6.34422
 11
-53.5934
 21
6.47318
  0
LINE
  8
0
 10
-53.5934
 20
6.47318
 11
-53.7135
 21
6.61832
  0
LINE
  8
0
 10
-53.7135
 20
6.61832
 11
-53.8145
 21
6.77736
  0
LINE
  8
0
 10
-53.8145
 20
6.77736
 11
-53.8947
 21
6.9478
  0
LINE
  8
0
 10
-53.8947
 20
6.9478
 11
-53.9529
 21
7.12695
  0
LINE
  8
0
 10
-53.9529
 20
7.12695
 11
-53.9882
 21
7.312
  0
LINE
  8
0
 10
-53.9882
 20
7.312
 11
-54
 21
7.5
  0
LINE
  8
0
 10
-54
 20
7.5
 11
-53.9882
 21
7.68799
  0
LINE
  8
0
 10
-53.9882
 20
7.68799
 11
-53.9529
 21
7.87303
  0
LINE
  8
0
 10
-53.9529
 20
7.87303
 11
-53.8947
 21
8.05219
  0
LINE
  8
0
 10
-53.8947
 20
8.05219
 11
-53.8145
 21
8.22263
  0
LINE
  8
0
 10
-53.8145
 20
8.22263
 11
-53.7135
 21
8.38167
  0
LINE
  8
0
 10
-53.7135
 20
8.38167
 11
-53.5934
 21
8.52681
  0
LINE
  8
0
 10
-53.5934
 20
8.52681
 11
-53.4561
 21
8.65576
  0
LINE
  8
0
 10
-53.4561
 20
8.65576
 11
-53.3037
 21
8.76648
  0
LINE
  8
0
 10
-53.3037
 20
8.76648
 11
-53.1387
 21
8.85724
  0
LINE
  8
0
 10
-53.1387
 20
8.85724
 11
-52.9635
 21
8.92657
  0
LINE
  8
0
 10
-52.9635
 20
8.92657
 11
-52.7811
 21
8.97342
  0
LINE
  8
0
 10
-52.7811
 20
8.97342
 11
-52.5942
 21
8.99704
  0
LINE
  8
0
 10
-52.5942
 20
8.99704
 11
-52.4058
 21
8.99704
  0
LINE
  8
0
 10
-52.4058
 20
8.99704
 11
-52.2189
 21
8.97342
  0
LINE
  8
0
 10
-52.2189
 20
8.97342
 11
-52.0365
 21
8.92657
  0
LINE
  8
0
 10
-52.0365
 20
8.92657
 11
-51.8613
 21
8.85724
  0
LINE
  8
0
 10
-51.8613
 20
8.85724
 11
-51.6963
 21
8.76648
  0
LINE
  8
0
 10
-51.6963
 20
8.76648
 11
-51.5439
 21
8.65576
  0
LINE
  8
0
 10
-51.5439
 20
8.65576
 11
-51.4065
 21
8.52681
  0
LINE
  8
0
 10
-51.4065
 20
8.52681
 11
-51.2865
 21
8.38167
  0
LINE
  8
0
 10
-51.2865
 20
8.38167
 11
-51.1855
 21
8.22263
  0
LINE
  8
0
 10
-51.1855
 20
8.22263
 11
-51.1053
 21
8.05219
  0
LINE
  8
0
 10
-51.1053
 20
8.05219
 11
-51.0471
 21
7.87303
  0
LINE
  8
0
 10
-51.0471
 20
7.87303
 11
-51.0118
 21
7.68799
  0
LINE
  8
0
 10
-51.0118
 20
7.68799
 11
-51
 21
7.5
  0
LINE
  8
0
 10
-51
 20
7.5
 11
-51.0118
 21
7.312
  0
LINE
  8
0
 10
-51.0118
 20
7.312
 11
-51.0471
 21
7.12695
  0
LINE
  8
0
 10
-51.0471
 20
7.12695
 11
-51.1053
 21
6.9478
  0
LINE
  8
0
 10
-51.1053
 20
6.9478
 11
-51.1855
 21
6.77736
  0
LINE
  8
0
 10
-51.1855
 20
6.77736
 11
-51.2865
 21
6.61832
  0
LINE
  8
0
 10
-51.2865
 20
6.61832
 11
-51.4065
 21
6.47318
  0
LINE
  8
0
 10
-51.4065
 20
6.47318
 11
-51.5439
 21
6.34422
  0
LINE
  8
0
 10
-51.5439
 20
6.34422
 11
-51.6963
 21
6.23351
  0
LINE
  8
0
 10
-51.6963
 20
6.23351
 11
-51.8613
 21
6.14275
  0
LINE
  8
0
 10
-51.8613
 20
6.14275
 11
-52.0365
 21
6.07341
  0
LINE
  8
0
 10
-52.0365
 20
6.07341
 11
-52.2189
 21
6.02657
  0
LINE
  8
0
 10
-52.2189
 20
6.02657
 11
-52.4058
 21
6.00294
  0
LINE
  8
0
 10
-52.4058
 20
6.00294
 11
-52.5942
 21
6.00294
  0
LINE
  8
0
 10
52.4058
 20
6.00294
 11
52.2189
 21
6.02657
  0
LINE
  8
0
 10
52.2189
 20
6.02657
 11
52.0365
 21
6.07341
  0
LINE
  8
0
 10
52.0365
 20
6.07341
 11
51.8613
 21
6.14275
  0
LINE
  8
0
 10
51.8613
 20
6.14275
 11
51.6963
 21
6.23351
  0
LINE
  8
0
 10
51.6963
 20
6.23351
 11
51.5439
 21
6.34422
  0
LINE
  8
0
 10
51.5439
 20
6.34422
 11
51.4065
 21
6.47318
  0
LINE
  8
0
 10
51.4065
 20
6.47318
 11
51.2865
 21
6.61832
  0
LINE
  8
0
 10
51.2865
 20
6.61832
 11
51.1855
 21
6.77736
  0
LINE
  8
0
 10
51.1855
 20
6.77736
 11
51.1053
 21
6.9478
  0
LINE
  8
0
 10
51.1053
 20
6.9478
 11
51.0471
 21
7.12695
  0
LINE
  8
0
 10
51.0471
 20
7.12695
 11
51.0118
 21
7.312
  0
LINE
  8
0
 10
51.0118
 20
7.312
 11
51
 21
7.5
  0
LINE
  8
0
 10
51
 20
7.5
 11
51.0118
 21
7.68799
  0
LINE
  8
0
 10
51.0118
 20
7.68799
 11
51.0471
 21
7.87303
  0
LINE
  8
0
 10
51.0471
 20
7.87303
 11
51.1053
 21
8.05219
  0
LINE
  8
0
 10
51.1053
 20
8.05219
 11
51.1855
 21
8.22263
  0
LINE
  8
0
 10
51.1855
 20
8.22263
 11
51.2865
 21
8.38167
  0
LINE
  8
0
 10
51.2865
 20
8.38167
 11
51.4065
 21
8.52681
  0
LINE
  8
0
 10
51.4065
 20
8.52681
 11
51.5439
 21
8.65576
  0
LINE
  8
0
 10
51.5439
 20
8.65576
 11
51.6963
 21
8.76648
  0
LINE
  8
0
 10
51.6963
 20
8.76648
 11
51.8613
 21
8.85724
  0
LINE
  8
0
 10
51.8613
 20
8.85724
 11
52.0365
 21
8.92657
  0
LINE
  8
0
 10
52.0365
 20
8.92657
 11
52.2189
 21
8.97342
  0
LINE
  8
0
 10
52.2189
 20
8.97342
 11
52.4058
 21
8.99704
  0
LINE
  8
0
 10
52.4058
 20
8.99704
 11
52.5942
 21
8.99704
  0
LINE
  8
0
 10
52.5942
 20
8.99704
 11
52.7811
 21
8.97342
  0
LINE
  8
0
 10
52.7811
 20
8.97342
 11
52.9635
 21
8.92657
  0
LINE
  8
0
 10
52.9635
 20
8.92657
 11
53.1387
 21
8.85724
  0
LINE
  8
0
 10
53.1387
 20
8.85724
 11
53.3037
 21
8.76648
  0
LINE
  8
0
 10
53.3037
 20
8.76648
 11
53.4561
 21
8.65576
  0
LINE
  8
0
 10
53.4561
 20
8.65576
 11
53.5934
 21
8.52681
  0
LINE
  8
0
 10
53.5934
 20
8.52681
 11
53.7135
 21
8.38167
  0
LINE
  8
0
 10
53.7135
 20
8.38167
 11
53.8145
 21
8.22263
  0
LINE
  8
0
 10
53.8145
 20
8.22263
 11
53.8947
 21
8.05219
  0
LINE
  8
0
 10
53.8947
 20
8.05219
 11
53.9529
 21
7.87303
  0
LINE
  8
0
 10
53.9529
 20
7.87303
 11
53.9882
 21
7.68799
  0
LINE
  8
0
 10
53.9882
 20
7.68799
 11
54
 21
7.5
  0
LINE
  8
0
 10
54
 20
7.5
 11
53.9882
 21
7.312
  0
LINE
  8
0
 10
53.9882
 20
7.312
 11
53.9529
 21
7.12695
  0
LINE
  8
0
 10
53.9529
 20
7.12695
 11
53.8947
 21
6.9478
  0
LINE
  8
0
 10
53.8947
 20
6.9478
 11
53.8145
 21
6.77736
  0
LINE
  8
0
 10
53.8145
 20
6.77736
 11
53.7135
 21
6.61832
  0
LINE
  8
0
 10
53.7135
 20
6.61832
 11
53.5934
 21
6.47318
  0
LINE
  8
0
 10
53.5934
 20
6.47318
 11
53.4561
 21
6.34422
  0
LINE
  8
0
 10
53.4561
 20
6.34422
 11
53.3037
 21
6.23351
  0
LINE
  8
0
 10
53.3037
 20
6.23351
 11
53.1387
 21
6.14275
  0
LINE
  8
0
 10
53.1387
 20
6.14275
 11
52.9635
 21
6.07341
  0
LINE
  8
0
 10
52.9635
 20
6.07341
 11
52.7811
 21
6.02657
  0
LINE
  8
0
 10
52.7811
 20
6.02657
 11
52.5942
 21
6.00294
  0
LINE
  8
0
 10
52.5942
 20
6.00294
 11
52.4058
 21
6.00294
  0
LINE
  8
0
 10
-52.6884
 20
-2.99408
 11
-53.0621
 21
-2.94685
  0
LINE
  8
0
 10
-53.0621
 20
-2.94685
 11
-53.427
 21
-2.85316
  0
LINE
  8
0
 10
-53.427
 20
-2.85316
 11
-53.7773
 21
-2.71448
  0
LINE
  8
0
 10
-53.7773
 20
-2.71448
 11
-54.1075
 21
-2.53297
  0
LINE
  8
0
 10
-54.1075
 20
-2.53297
 11
-54.4123
 21
-2.31154
  0
LINE
  8
0
 10
-54.4123
 20
-2.31154
 11
-54.6869
 21
-2.05363
  0
LINE
  8
0
 10
-54.6869
 20
-2.05363
 11
-54.927
 21
-1.76335
  0
LINE
  8
0
 10
-54.927
 20
-1.76335
 11
-55.1289
 21
-1.44525
  0
LINE
  8
0
 10
-55.1289
 20
-1.44525
 11
-55.2893
 21
-1.10437
  0
LINE
  8
0
 10
-55.2893
 20
-1.10437
 11
-55.4057
 21
-0.746063
  0
LINE
  8
0
 10
-55.4057
 20
-0.746063
 11
-55.4763
 21
-0.375992
  0
LINE
  8
0
 10
-55.4763
 20
-0.375992
 11
-55.5
 21
0
  0
LINE
  8
0
 10
-55.5
 20
0
 11
-55.4763
 21
0.375992
  0
LINE
  8
0
 10
-55.4763
 20
0.375992
 11
-55.4057
 21
0.746063
  0
LINE
  8
0
 10
-55.4057
 20
0.746063
 11
-55.2893
 21
1.10437
  0
LINE
  8
0
 10
-55.2893
 20
1.10437
 11
-55.1289
 21
1.44525
  0
LINE
  8
0
 10
-55.1289
 20
1.44525
 11
-54.927
 21
1.76335
  0
LINE
  8
0
 10
-54.927
 20
1.76335
 11
-54.6869
 21
2.05363
  0
LINE
  8
0
 10
-54.6869
 20
2.05363
 11
-54.4123
 21
2.31154
  0
LINE
  8
0
 10
-54.4123
 20
2.31154
 11
-54.1075
 21
2.53297
  0
LINE
  8
0
 10
-54.1075
 20
2.53297
 11
-53.7773
 21
2.71448
  0
LINE
  8
0
 10
-53.7773
 20
2.71448
 11
-53.427
 21
2.85316
  0
LINE
  8
0
 10
-53.427
 20
2.85316
 11
-53.0621
 21
2.94685
  0
LINE
  8
0
 10
-53.0621
 20
2.94685
 11
-52.6884
 21
2.99408
  0
LINE
  8
0
 10
-52.6884
 20
2.99408
 11
-52.3116
 21
2.99408
  0
LINE
  8
0
 10
-52.3116
 20
2.99408
 11
-51.9379
 21
2.94685
  0
LINE
  8
0
 10
-51.9379
 20
2.94685
 11
-51.5729
 21
2.85316
  0
LINE
  8
0
 10
-51.5729
 20
2.85316
 11
-51.2227
 21
2.71448
  0
LINE
  8
0
 10
-51.2227
 20
2.71448
 11
-50.8925
 21
2.53297
  0
LINE
  8
0
 10
-50.8925
 20
2.53297
 11
-50.5877
 21
2.31154
  0
LINE
  8
0
 10
-50.5877
 20
2.31154
 11
-50.3131
 21
2.05363
  0
LINE
  8
0
 10
-50.3131
 20
2.05363
 11
-50.0729
 21
1.76335
  0
LINE
  8
0
 10
-50.0729
 20
1.76335
 11
-49.8711
 21
1.44525
  0
LINE
  8
0
 10
-49.8711
 20
1.44525
 11
-49.7107
 21
1.10437
  0
LINE
  8
0
 10
-49.7107
 20
1.10437
 11
-49.5942
 21
0.746063
  0
LINE
  8
0
 10
-49.5942
 20
0.746063
 11
-49.5237
 21
0.375992
  0
LINE
  8
0
 10
-49.5237
 20
0.375992
 11
-49.5
 21
0
  0
LINE
  8
0
 10
-49.5
 20
0
 11
-49.5237
 21
-0.375992
  0
LINE
  8
0
 10
-49.5237
 20
-0.375992
 11
-49.5942
 21
-0.746063
  0
LINE
  8
0
 10
-49.5942
 20
-0.746063
 11
-49.7107
 21
-1.10437
  0
LINE
  8
0
 10
-49.7107
 20
-1.10437
 11
-49.8711
 21
-1.44525
  0
LINE
  8
0
 10
-49.8711
 20
-1.44525
 11
-50.0729
 21
-1.76335
  0
LINE
  8
0
 10
-50.0729
 20
-1.76335
 11
-50.3131
 21
-2.05363
  0
LINE
  8
0
 10
-50.3131
 20
-2.05363
 11
-50.5877
 21
-2.31154
  0
LINE
  8
0
 10
-50.5877
 20
-2.31154
 11
-50.8925
 21
-2.53297
  0
LINE
  8
0
 10
-50.8925
 20
-2.53297
 11
-51.2227
 21
-2.71448
  0
LINE
  8
0
 10
-51.2227
 20
-2.71448
 11
-51.5729
 21
-2.85316
  0
LINE
  8
0
 10
-51.5729
 20
-2.85316
 11
-51.9379
 21
-2.94685
  0
LINE
  8
0
 10
-51.9379
 20
-2.94685
 11
-52.3116
 21
-2.99408
  0
LINE
  8
0
 10
-52.3116
 20
-2.99408
 11
-52.6884
 21
-2.99408
  0
LINE
  8
0
 10
52.3116
 20
-2.99408
 11
51.9379
 21
-2.94685
  0
LINE
  8
0
 10
51.9379
 20
-2.94685
 11
51.5729
 21
-2.85316
  0
LINE
  8
0
 10
51.5729
 20
-2.85316
 11
51.2227
 21
-2.71448
  0
LINE
  8
0
 10
51.2227
 20
-2.71448
 11
50.8925
 21
-2.53297
  0
LINE
  8
0
 10
50.8925
 20
-2.53297
 11
50.5877
 21
-2.31154
  0
LINE
  8
0
 10
50.5877
 20
-2.31154
 11
50.3131
 21
-2.05363
  0
LINE
  8
0
 10
50.3131
 20
-2.05363
 11
50.0729
 21
-1.76335
  0
LINE
  8
0
 10
50.0729
 20
-1.76335
 11
49.8711
 21
-1.44525
  0
LINE
  8
0
 10
49.8711
 20
-1.44525
 11
49.7107
 21
-1.10437
  0
LINE
  8
0
 10
49.7107
 20
-1.10437
 11
49.5942
 21
-0.746063
  0
LINE
  8
0
 10
49.5942
 20
-0.746063
 11
49.5237
 21
-0.375992
  0
LINE
  8
0
 10
49.5237
 20
-0.375992
 11
49.5
 21
0
  0
LINE
  8
0
 10
49.5
 20
0
 11
49.5237
 21
0.375992
  0
LINE
  8
0
 10
49.5237
 20
0.375992
 11
49.5942
 21
0.746063
  0
LINE
  8
0
 10
49.5942
 20
0.746063
 11
49.7107
 21
1.10437
  0
LINE
  8
0
 10
49.7107
 20
1.10437
 11
49.8711
 21
1.44525
  0
LINE
  8
0
 10
49.8711
 20
1.44525
 11
50.0729
 21
1.76335
  0
LINE
  8
0
 10
50.0729
 20
1.76335
 11
50.3131
 21
2.05363
  0
LINE
  8
0
 10
50.3131
 20
2.05363
 11
50.5877
 21
2.31154
  0
LINE
  8
0
 10
50.5877
 20
2.31154
 11
50.8925
 21
2.53297
  0
LINE
  8
0
 10
50.8925
 20
2.53297
 11
51.2227
 21
2.71448
  0
LINE
  8
0
 10
51.2227
 20
2.71448
 11
51.5729
 21
2.85316
  0
LINE
  8
0
 10
51.5729
 20
2.85316
 11
51.9379
 21
2.94685
  0
LINE
  8
0
 10
51.9379
 20
2.94685
 11
52.3116
 21
2.99408
  0
LINE
  8
0
 10
52.3116
 20
2.99408
 11
52.6884
 21
2.99408
  0
LINE
  8
0
 10
52.6884
 20
2.99408
 11
53.0621
 21
2.94685
  0
LINE
  8
0
 10
53.0621
 20
2.94685
 11
53.427
 21
2.85316
  0
LINE
  8
0
 10
53.427
 20
2.85316
 11
53.7773
 21
2.71448
  0
LINE
  8
0
 10
53.7773
 20
2.71448
 11
54.1075
 21
2.53297
  0
LINE
  8
0
 10
54.1075
 20
2.53297
 11
54.4123
 21
2.31154
  0
LINE
  8
0
 10
54.4123
 20
2.31154
 11
54.6869
 21
2.05363
  0
LINE
  8
0
 10
54.6869
 20
2.05363
 11
54.927
 21
1.76335
  0
LINE
  8
0
 10
54.927
 20
1.76335
 11
55.1289
 21
1.44525
  0
LINE
  8
0
 10
55.1289
 20
1.44525
 11
55.2893
 21
1.10437
  0
LINE
  8
0
 10
55.2893
 20
1.10437
 11
55.4057
 21
0.746063
  0
LINE
  8
0
 10
55.4057
 20
0.746063
 11
55.4763
 21
0.375992
  0
LINE
  8
0
 10
55.4763
 20
0.375992
 11
55.5
 21
0
  0
LINE
  8
0
 10
55.5
 20
0
 11
55.4763
 21
-0.375992
  0
LINE
  8
0
 10
55.4763
 20
-0.375992
 11
55.4057
 21
-0.746063
  0
LINE
  8
0
 10
55.4057
 20
-0.746063
 11
55.2893
 21
-1.10437
  0
LINE
  8
0
 10
55.2893
 20
-1.10437
 11
55.1289
 21
-1.44525
  0
LINE
  8
0
 10
55.1289
 20
-1.44525
 11
54.927
 21
-1.76335
  0
LINE
  8
0
 10
54.927
 20
-1.76335
 11
54.6869
 21
-2.05363
  0
LINE
  8
0
 10
54.6869
 20
-2.05363
 11
54.4123
 21
-2.31154
  0
LINE
  8
0
 10
54.4123
 20
-2.31154
 11
54.1075
 21
-2.53297
  0
LINE
  8
0
 10
54.1075
 20
-2.53297
 11
53.7773
 21
-2.71448
  0
LINE
  8
0
 10
53.7773
 20
-2.71448
 11
53.427
 21
-2.85316
  0
LINE
  8
0
 10
53.427
 20
-2.85316
 11
53.0621
 21
-2.94685
  0
LINE
  8
0
 10
53.0621
 20
-2.94685
 11
52.6884
 21
-2.99408
  0
LINE
  8
0
 10
52.6884
 20
-2.99408
 11
52.3116
 21
-2.99408
  0
LINE
  8
0
 10
52.4058
 20
-8.99704
 11
52.2189
 21
-8.97342
  0
LINE
  8
0
 10
52.2189
 20
-8.97342
 11
52.0365
 21
-8.92657
  0
LINE
  8
0
 10
52.0365
 20
-8.92657
 11
51.8613
 21
-8.85724
  0
LINE
  8
0
 10
51.8613
 20
-8.85724
 11
51.6963
 21
-8.76648
  0
LINE
  8
0
 10
51.6963
 20
-8.76648
 11
51.5439
 21
-8.65576
  0
LINE
  8
0
 10
51.5439
 20
-8.65576
 11
51.4065
 21
-8.52681
  0
LINE
  8
0
 10
51.4065
 20
-8.52681
 11
51.2865
 21
-8.38167
  0
LINE
  8
0
 10
51.2865
 20
-8.38167
 11
51.1855
 21
-8.22263
  0
LINE
  8
0
 10
51.1855
 20
-8.22263
 11
51.1053
 21
-8.05219
  0
LINE
  8
0
 10
51.1053
 20
-8.05219
 11
51.0471
 21
-7.87303
  0
LINE
  8
0
 10
51.0471
 20
-7.87303
 11
51.0118
 21
-7.68799
  0
LINE
  8
0
 10
51.0118
 20
-7.68799
 11
51
 21
-7.5
  0
LINE
  8
0
 10
51
 20
-7.5
 11
51.0118
 21
-7.312
  0
LINE
  8
0
 10
51.0118
 20
-7.312
 11
51.0471
 21
-7.12695
  0
LINE
  8
0
 10
51.0471
 20
-7.12695
 11
51.1053
 21
-6.9478
  0
LINE
  8
0
 10
51.1053
 20
-6.9478
 11
51.1855
 21
-6.77736
  0
LINE
  8
0
 10
51.1855
 20
-6.77736
 11
51.2865
 21
-6.61832
  0
LINE
  8
0
 10
51.2865
 20
-6.61832
 11
51.4065
 21
-6.47318
  0
LINE
  8
0
 10
51.4065
 20
-6.47318
 11
51.5439
 21
-6.34422
  0
LINE
  8
0
 10
51.5439
 20
-6.34422
 11
51.6963
 21
-6.23351
  0
LINE
  8
0
 10
51.6963
 20
-6.23351
 11
51.8613
 21
-6.14275
  0
LINE
  8
0
 10
51.8613
 20
-6.14275
 11
52.0365
 21
-6.07341
  0
LINE
  8
0
 10
52.0365
 20
-6.07341
 11
52.2189
 21
-6.02657
  0
LINE
  8
0
 10
52.2189
 20
-6.02657
 11
52.4058
 21
-6.00294
  0
LINE
  8
0
 10
52.4058
 20
-6.00294
 11
52.5942
 21
-6.00294
  0
LINE
  8
0
 10
52.5942
 20
-6.00294
 11
52.7811
 21
-6.02657
  0
LINE
  8
0
 10
52.7811
 20
-6.02657
 11
52.9635
 21
-6.07341
  0
LINE
  8
0
 10
52.9635
 20
-6.07341
 11
53.1387
 21
-6.14275
  0
LINE
  8
0
 10
53.1387
 20
-6.14275
 11
53.3037
 21
-6.23351
  0
LINE
  8
0
 10
53.3037
 20
-6.23351
 11
53.4561
 21
-6.34422
  0
LINE
  8
0
 10
53.4561
 20
-6.34422
 11
53.5934
 21
-6.47318
  0
LINE
  8
0
 10
53.5934
 20
-6.47318
 11
53.7135
 21
-6.61832
  0
LINE
  8
0
 10
53.7135
 20
-6.61832
 11
53.8145
 21
-6.77736
  0
LINE
  8
0
 10
53.8145
 20
-6.77736
 11
53.8947
 21
-6.9478
  0
LINE
  8
0
 10
53.8947
 20
-6.9478
 11
53.9529
 21
-7.12695
  0
LINE
  8
0
 10
53.9529
 20
-7.12695
 11
53.9882
 21
-7.312
  0
LINE
  8
0
 10
53.9882
 20
-7.312
 11
54
 21
-7.5
  0
LINE
  8
0
 10
54
 20
-7.5
 11
53.9882
 21
-7.68799
  0
LINE
  8
0
 10
53.9882
 20
-7.68799
 11
53.9529
 21
-7.87303
  0
LINE
  8
0
 10
53.9529
 20
-7.87303
 11
53.8947
 21
-8.05219
  0
LINE
  8
0
 10
53.8947
 20
-8.05219
 11
53.8145
 21
-8.22263
  0
LINE
  8
0
 10
53.8145
 20
-8.22263
 11
53.7135
 21
-8.38167
  0
LINE
  8
0
 10
53.7135
 20
-8.38167
 11
53.5934
 21
-8.52681
  0
LINE
  8
0
 10
53.5934
 20
-8.52681
 11
53.4561
 21
-8.65576
  0
LINE
  8
0
 10
53.4561
 20
-8.65576
 11
53.3037
 21
-8.76648
  0
LINE
  8
0
 10
53.3037
 20
-8.76648
 11
53.1387
 21
-8.85724
  0
LINE
  8
0
 10
53.1387
 20
-8.85724
 11
52.9635
 21
-8.92657
  0
LINE
  8
0
 10
52.9635
 20
-8.92657
 11
52.7811
 21
-8.97342
  0
LINE
  8
0
 10
52.7811
 20
-8.97342
 11
52.5942
 21
-8.99704
  0
LINE
  8
0
 10
52.5942
 20
-8.99704
 11
52.4058
 21
-8.99704
  0
LINE
  8
0
 10
-52.5942
 20
-8.99704
 11
-52.7811
 21
-8.97342
  0
LINE
  8
0
 10
-52.7811
 20
-8.97342
 11
-52.9635
 21
-8.92657
  0
LINE
  8
0
 10
-52.9635
 20
-8.92657
 11
-53.1387
 21
-8.85724
  0
LINE
  8
0
 10
-53.1387
 20
-8.85724
 11
-53.3037
 21
-8.76648
  0
LINE
  8
0
 10
-53.3037
 20
-8.76648
 11
-53.4561
 21
-8.65576
  0
LINE
  8
0
 10
-53.4561
 20
-8.65576
 11
-53.5934
 21
-8.52681
  0
LINE
  8
0
 10
-53.5934
 20
-8.52681
 11
-53.7135
 21
-8.38167
  0
LINE
  8
0
 10
-53.7135
 20
-8.38167
 11
-53.8145
 21
-8.22263
  0
LINE
  8
0
 10
-53.8145
 20
-8.22263
 11
-53.8947
 21
-8.05219
  0
LINE
  8
0
 10
-53.8947
 20
-8.05219
 11
-53.9529
 21
-7.87303
  0
LINE
  8
0
 10
-53.9529
 20
-7.87303
 11
-53.9882
 21
-7.68799
  0
LINE
  8
0
 10
-53.9882
 20
-7.68799
 11
-54
 21
-7.5
  0
LINE
  8
0
 10
-54
 20
-7.5
 11
-53.9882
 21
-7.312
  0
LINE
  8
0
 10
-53.9882
 20
-7.312
 11
-53.9529
 21
-7.12695
  0
LINE
  8
0
 10
-53.9529
 20
-7.12695
 11
-53.8947
 21
-6.9478
  0
LINE
  8
0
 10
-53.8947
 20
-6.9478
 11
-53.8145
 21
-6.77736
  0
LINE
  8
0
 10
-53.8145
 20
-6.77736
 11
-53.7135
 21
-6.61832
  0
LINE
  8
0
 10
-53.7135
 20
-6.61832
 11
-53.5934
 21
-6.47318
  0
LINE
  8
0
 10
-53.5934
 20
-6.47318
 11
-53.4561
 21
-6.34422
  0
LINE
  8
0
 10
-53.4561
 20
-6.34422
 11
-53.3037
 21
-6.23351
  0
LINE
  8
0
 10
-53.3037
 20
-6.23351
 11
-53.1387
 21
-6.14275
  0
LINE
  8
0
 10
-53.1387
 20
-6.14275
 11
-52.9635
 21
-6.07341
  0
LINE
  8
0
 10
-52.9635
 20
-6.07341
 11
-52.7811
 21
-6.02657
  0
LINE
  8
0
 10
-52.7811
 20
-6.02657
 11
-52.5942
 21
-6.00294
  0
LINE
  8
0
 10
-52.5942
 20
-6.00294
 11
-52.4058
 21
-6.00294
  0
LINE
  8
0
 10
-52.4058
 20
-6.00294
 11
-52.2189
 21
-6.02657
  0
LINE
  8
0
 10
-52.2189
 20
-6.02657
 11
-52.0365
 21
-6.07341
  0
LINE
  8
0
 10
-52.0365
 20
-6.07341
 11
-51.8613
 21
-6.14275
  0
LINE
  8
0
 10
-51.8613
 20
-6.14275
 11
-51.6963
 21
-6.23351
  0
LINE
  8
0
 10
-51.6963
 20
-6.23351
 11
-51.5439
 21
-6.34422
  0
LINE
  8
0
 10
-51.5439
 20
-6.34422
 11
-51.4065
 21
-6.47318
  0
LINE
  8
0
 10
-51.4065
 20
-6.47318
 11
-51.2865
 21
-6.61832
  0
LINE
  8
0
 10
-51.2865
 20
-6.61832
 11
-51.1855
 21
-6.77736
  0
LINE
  8
0
 10
-51.1855
 20
-6.77736
 11
-51.1053
 21
-6.9478
  0
LINE
  8
0
 10
-51.1053
 20
-6.9478
 11
-51.0471
 21
-7.12695
  0
LINE
  8
0
 10
-51.0471
 20
-7.12695
 11
-51.0118
 21
-7.312
  0
LINE
  8
0
 10
-51.0118
 20
-7.312
 11
-51
 21
-7.5
  0
LINE
  8
0
 10
-51
 20
-7.5
 11
-51.0118
 21
-7.68799
  0
LINE
  8
0
 10
-51.0118
 20
-7.68799
 11
-51.0471
 21
-7.87303
  0
LINE
  8
0
 10
-51.0471
 20
-7.87303
 11
-51.1053
 21
-8.05219
  0
LINE
  8
0
 10
-51.1053
 20
-8.05219
 11
-51.1855
 21
-8.22263
  0
LINE
  8
0
 10
-51.1855
 20
-8.22263
 11
-51.2865
 21
-8.38167
  0
LINE
  8
0
 10
-51.2865
 20
-8.38167
 11
-51.4065
 21
-8.52681
  0
LINE
  8
0
 10
-51.4065
 20
-8.52681
 11
-51.5439
 21
-8.65576
  0
LINE
  8
0
 10
-51.5439
 20
-8.65576
 11
-51.6963
 21
-8.76648
  0
LINE
  8
0
 10
-51.6963
 20
-8.76648
 11
-51.8613
 21
-8.85724
  0
LINE
  8
0
 10
-51.8613
 20
-8.85724
 11
-52.0365
 21
-8.92657
  0
LINE
  8
0
 10
-52.0365
 20
-8.92657
 11
-52.2189
 21
-8.97342
  0
LINE
  8
0
 10
-52.2189
 20
-8.97342
 11
-52.4058
 21
-8.99704
  0
LINE
  8
0
 10
-52.4058
 20
-8.99704
 11
-52.5942
 21
-8.99704
  0
LINE
  8
0
 10
52.3116
 20
-17.9941
 11
51.9379
 21
-17.9469
  0
LINE
  8
0
 10
51.9379
 20
-17.9469
 11
51.5729
 21
-17.8532
  0
LINE
  8
0
 10
51.5729
 20
-17.8532
 11
51.2227
 21
-17.7145
  0
LINE
  8
0
 10
51.2227
 20
-17.7145
 11
50.8925
 21
-17.533
  0
LINE
  8
0
 10
50.8925
 20
-17.533
 11
50.5877
 21
-17.3115
  0
LINE
  8
0
 10
50.5877
 20
-17.3115
 11
50.3131
 21
-17.0536
  0
LINE
  8
0
 10
50.3131
 20
-17.0536
 11
50.0729
 21
-16.7634
  0
LINE
  8
0
 10
50.0729
 20
-16.7634
 11
49.8711
 21
-16.4453
  0
LINE
  8
0
 10
49.8711
 20
-16.4453
 11
49.7107
 21
-16.1044
  0
LINE
  8
0
 10
49.7107
 20
-16.1044
 11
49.5942
 21
-15.7461
  0
LINE
  8
0
 10
49.5942
 20
-15.7461
 11
49.5237
 21
-15.376
  0
LINE
  8
0
 10
49.5237
 20
-15.376
 11
49.5
 21
-15
  0
LINE
  8
0
 10
49.5
 20
-15
 11
49.5237
 21
-14.624
  0
LINE
  8
0
 10
49.5237
 20
-14.624
 11
49.5942
 21
-14.2539
  0
LINE
  8
0
 10
49.5942
 20
-14.2539
 11
49.7107
 21
-13.8956
  0
LINE
  8
0
 10
49.7107
 20
-13.8956
 11
49.8711
 21
-13.5547
  0
LINE
  8
0
 10
49.8711
 20
-13.5547
 11
50.0729
 21
-13.2366
  0
LINE
  8
0
 10
50.0729
 20
-13.2366
 11
50.3131
 21
-12.9464
  0
LINE
  8
0
 10
50.3131
 20
-12.9464
 11
50.5877
 21
-12.6884
  0
LINE
  8
0
 10
50.5877
 20
-12.6884
 11
50.8925
 21
-12.467
  0
LINE
  8
0
 10
50.8925
 20
-12.467
 11
51.2227
 21
-12.2855
  0
LINE
  8
0
 10
51.2227
 20
-12.2855
 11
51.5729
 21
-12.1468
  0
LINE
  8
0
 10
51.5729
 20
-12.1468
 11
51.9379
 21
-12.0531
  0
LINE
  8
0
 10
51.9379
 20
-12.0531
 11
52.3116
 21
-12.0059
  0
LINE
  8
0
 10
52.3116
 20
-12.0059
 11
52.6884
 21
-12.0059
  0
LINE
  8
0
 10
52.6884
 20
-12.0059
 11
53.0621
 21
-12.0531
  0
LINE
  8
0
 10
53.0621
 20
-12.0531
 11
53.427
 21
-12.1468
  0
LINE
  8
0
 10
53.427
 20
-12.1468
 11
53.7773
 21
-12.2855
  0
LINE
  8
0
 10
53.7773
 20
-12.2855
 11
54.1075
 21
-12.467
  0
LINE
  8
0
 10
54.1075
 20
-12.467
 11
54.4123
 21
-12.6884
  0
LINE
  8
0
 10
54.4123
 20
-12.6884
 11
54.6869
 21
-12.9464
  0
LINE
  8
0
 10
54.6869
 20
-12.9464
 11
54.927
 21
-13.2366
  0
LINE
  8
0
 10
54.927
 20
-13.2366
 11
55.1289
 21
-13.5547
  0
LINE
  8
0
 10
55.1289
 20
-13.5547
 11
55.2893
 21
-13.8956
  0
LINE
  8
0
 10
55.2893
 20
-13.8956
 11
55.4057
 21
-14.2539
  0
LINE
  8
0
 10
55.4057
 20
-14.2539
 11
55.4763
 21
-14.624
  0
LINE
  8
0
 10
55.4763
 20
-14.624
 11
55.5
 21
-15
  0
LINE
  8
0
 10
55.5
 20
-15
 11
55.4763
 21
-15.376
  0
LINE
  8
0
 10
55.4763
 20
-15.376
 11
55.4057
 21
-15.7461
  0
LINE
  8
0
 10
55.4057
 20
-15.7461
 11
55.2893
 21
-16.1044
  0
LINE
  8
0
 10
55.2893
 20
-16.1044
 11
55.1289
 21
-16.4453
  0
LINE
  8
0
 10
55.1289
 20
-16.4453
 11
54.927
 21
-16.7634
  0
LINE
  8
0
 10
54.927
 20
-16.7634
 11
54.6869
 21
-17.0536
  0
LINE
  8
0
 10
54.6869
 20
-17.0536
 11
54.4123
 21
-17.3115
  0
LINE
  8
0
 10
54.4123
 20
-17.3115
 11
54.1075
 21
-17.533
  0
LINE
  8
0
 10
54.1075
 20
-17.533
 11
53.7773
 21
-17.7145
  0
LINE
  8
0
 10
53.7773
 20
-17.7145
 11
53.427
 21
-17.8532
  0
LINE
  8
0
 10
53.427
 20
-17.8532
 11
53.0621
 21
-17.9469
  0
LINE
  8
0
 10
53.0621
 20
-17.9469
 11
52.6884
 21
-17.9941
  0
LINE
  8
0
 10
52.6884
 20
-17.9941
 11
52.3116
 21
-17.9941
  0
LINE
  8
0
 10
-52.6884
 20
-17.9941
 11
-53.0621
 21
-17.9469
  0
LINE
  8
0
 10
-53.0621
 20
-17.9469
 11
-53.427
 21
-17.8532
  0
LINE
  8
0
 10
-53.427
 20
-17.8532
 11
-53.7773
 21
-17.7145
  0
LINE
  8
0
 10
-53.7773
 20
-17.7145
 11
-54.1075
 21
-17.533
  0
LINE
  8
0
 10
-54.1075
 20
-17.533
 11
-54.4123
 21
-17.3115
  0
LINE
  8
0
 10
-54.4123
 20
-17.3115
 11
-54.6869
 21
-17.0536
  0
LINE
  8
0
 10
-54.6869
 20
-17.0536
 11
-54.927
 21
-16.7634
  0
LINE
  8
0
 10
-54.927
 20
-16.7634
 11
-55.1289
 21
-16.4453
  0
LINE
  8
0
 10
-55.1289
 20
-16.4453
 11
-55.2893
 21
-16.1044
  0
LINE
  8
0
 10
-55.2893
 20
-16.1044
 11
-55.4057
 21
-15.7461
  0
LINE
  8
0
 10
-55.4057
 20
-15.7461
 11
-55.4763
 21
-15.376
  0
LINE
  8
0
 10
-55.4763
 20
-15.376
 11
-55.5
 21
-15
  0
LINE
  8
0
 10
-55.5
 20
-15
 11
-55.4763
 21
-14.624
  0
LINE
  8
0
 10
-55.4763
 20
-14.624
 11
-55.4057
 21
-14.2539
  0
LINE
  8
0
 10
-55.4057
 20
-14.2539
 11
-55.2893
 21
-13.8956
  0
LINE
  8
0
 10
-55.2893
 20
-13.8956
 11
-55.1289
 21
-13.5547
  0
LINE
  8
0
 10
-55.1289
 20
-13.5547
 11
-54.927
 21
-13.2366
  0
LINE
  8
0
 10
-54.927
 20
-13.2366
 11
-54.6869
 21
-12.9464
  0
LINE
  8
0
 10
-54.6869
 20
-12.9464
 11
-54.4123
 21
-12.6884
  0
LINE
  8
0
 10
-54.4123
 20
-12.6884
 11
-54.1075
 21
-12.467
  0
LINE
  8
0
 10
-54.1075
 20
-12.467
 11
-53.7773
 21
-12.2855
  0
LINE
  8
0
 10
-53.7773
 20
-12.2855
 11
-53.427
 21
-12.1468
  0
LINE
  8
0
 10
-53.427
 20
-12.1468
 11
-53.0621
 21
-12.0531
  0
LINE
  8
0
 10
-53.0621
 20
-12.0531
 11
-52.6884
 21
-12.0059
  0
LINE
  8
0
 10
-52.6884
 20
-12.0059
 11
-52.3116
 21
-12.0059
  0
LINE
  8
0
 10
-52.3116
 20
-12.0059
 11
-51.9379
 21
-12.0531
  0
LINE
  8
0
 10
-51.9379
 20
-12.0531
 11
-51.5729
 21
-12.1468
  0
LINE
  8
0
 10
-51.5729
 20
-12.1468
 11
-51.2227
 21
-12.2855
  0
LINE
  8
0
 10
-51.2227
 20
-12.2855
 11
-50.8925
 21
-12.467
  0
LINE
  8
0
 10
-50.8925
 20
-12.467
 11
-50.5877
 21
-12.6884
  0
LINE
  8
0
 10
-50.5877
 20
-12.6884
 11
-50.3131
 21
-12.9464
  0
LINE
  8
0
 10
-50.3131
 20
-12.9464
 11
-50.0729
 21
-13.2366
  0
LINE
  8
0
 10
-50.0729
 20
-13.2366
 11
-49.8711
 21
-13.5547
  0
LINE
  8
0
 10
-49.8711
 20
-13.5547
 11
-49.7107
 21
-13.8956
  0
LINE
  8
0
 10
-49.7107
 20
-13.8956
 11
-49.5942
 21
-14.2539
  0
LINE
  8
0
 10
-49.5942
 20
-14.2539
 11
-49.5237
 21
-14.624
  0
LINE
  8
0
 10
-49.5237
 20
-14.624
 11
-49.5
 21
-15
  0
LINE
  8
0
 10
-49.5
 20
-15
 11
-49.5237
 21
-15.376
  0
LINE
  8
0
 10
-49.5237
 20
-15.376
 11
-49.5942
 21
-15.7461
  0
LINE
  8
0
 10
-49.5942
 20
-15.7461
 11
-49.7107
 21
-16.1044
  0
LINE
  8
0
 10
-49.7107
 20
-16.1044
 11
-49.8711
 21
-16.4453
  0
LINE
  8
0
 10
-49.8711
 20
-16.4453
 11
-50.0729
 21
-16.7634
  0
LINE
  8
0
 10
-50.0729
 20
-16.7634
 11
-50.3131
 21
-17.0536
  0
LINE
  8
0
 10
-50.3131
 20
-17.0536
 11
-50.5877
 21
-17.3115
  0
LINE
  8
0
 10
-50.5877
 20
-17.3115
 11
-50.8925
 21
-17.533
  0
LINE
  8
0
 10
-50.8925
 20
-17.533
 11
-51.2227
 21
-17.7145
  0
LINE
  8
0
 10
-51.2227
 20
-17.7145
 11
-51.5729
 21
-17.8532
  0
LINE
  8
0
 10
-51.5729
 20
-17.8532
 11
-51.9379
 21
-17.9469
  0
LINE
  8
0
 10
-51.9379
 20
-17.9469
 11
-52.3116
 21
-17.9941
  0
LINE
  8
0
 10
-52.3116
 20
-17.9941
 11
-52.6884
 21
-17.9941
  0
ENDSEC
  0
SECTION
  2
OBJECTS
  0
DICTIONARY
  0
ENDSEC
  0
EOF
