  0
SECTION
  2
BLOCKS
  0
ENDSEC
  0
SECTION
  2
ENTITIES
  0
LINE
  8
0
 10
40.4369
 20
24.5886
 11
41.0451
 21
24.7447
  0
LINE
  8
0
 10
41.0451
 20
24.7447
 11
41.6289
 21
24.9759
  0
LINE
  8
0
 10
41.6289
 20
24.9759
 11
42.1791
 21
25.2784
  0
LINE
  8
0
 10
42.1791
 20
25.2784
 11
42.6871
 21
25.6474
  0
LINE
  8
0
 10
42.6871
 20
25.6474
 11
43.1448
 21
26.0773
  0
LINE
  8
0
 10
43.1448
 20
26.0773
 11
43.5451
 21
26.5611
  0
LINE
  8
0
 10
43.5451
 20
26.5611
 11
43.8815
 21
27.0912
  0
LINE
  8
0
 10
43.8815
 20
27.0912
 11
44.1489
 21
27.6594
  0
LINE
  8
0
 10
44.1489
 20
27.6594
 11
44.3429
 21
28.2566
  0
LINE
  8
0
 10
44.3429
 20
28.2566
 11
44.4606
 21
28.8733
  0
LINE
  8
0
 10
44.4606
 20
28.8733
 11
44.5
 21
29.5
  0
LINE
  8
0
 10
44.5
 20
29.5
 11
44.5
 21
48.5
  0
LINE
  8
0
 10
44.5
 20
48.5
 11
44.4606
 21
49.1267
  0
LINE
  8
0
 10
44.4606
 20
49.1267
 11
44.3429
 21
49.7434
  0
LINE
  8
0
 10
44.3429
 20
49.7434
 11
44.1489
 21
50.3406
  0
LINE
  8
0
 10
44.1489
 20
50.3406
 11
43.8815
 21
50.9088
  0
LINE
  8
0
 10
43.8815
 20
50.9088
 11
43.5451
 21
51.4389
  0
LINE
  8
0
 10
43.5451
 20
51.4389
 11
43.1448
 21
51.9227
  0
LINE
  8
0
 10
43.1448
 20
51.9227
 11
42.6871
 21
52.3526
  0
LINE
  8
0
 10
42.6871
 20
52.3526
 11
42.1791
 21
52.7216
  0
LINE
  8
0
 10
42.1791
 20
52.7216
 11
41.6289
 21
53.0241
  0
LINE
  8
0
 10
41.6289
 20
53.0241
 11
41.0451
 21
53.2553
  0
LINE
  8
0
 10
41.0451
 20
53.2553
 11
40.4369
 21
53.4114
  0
LINE
  8
0
 10
40.4369
 20
53.4114
 11
39.8139
 21
53.4901
  0
LINE
  8
0
 10
39.8139
 20
53.4901
 11
-39.8139
 21
53.4901
  0
LINE
  8
0
 10
-39.8139
 20
53.4901
 11
-40.4369
 21
53.4114
  0
LINE
  8
0
 10
-40.4369
 20
53.4114
 11
-41.0451
 21
53.2553
  0
LINE
  8
0
 10
-41.0451
 20
53.2553
 11
-41.6289
 21
53.0241
  0
LINE
  8
0
 10
-41.6289
 20
53.0241
 11
-42.1791
 21
52.7216
  0
LINE
  8
0
 10
-42.1791
 20
52.7216
 11
-42.6871
 21
52.3526
  0
LINE
  8
0
 10
-42.6871
 20
52.3526
 11
-43.1448
 21
51.9227
  0
LINE
  8
0
 10
-43.1448
 20
51.9227
 11
-43.5451
 21
51.4389
  0
LINE
  8
0
 10
-43.5451
 20
51.4389
 11
-43.8815
 21
50.9088
  0
LINE
  8
0
 10
-43.8815
 20
50.9088
 11
-44.1489
 21
50.3406
  0
LINE
  8
0
 10
-44.1489
 20
50.3406
 11
-44.3429
 21
49.7434
  0
LINE
  8
0
 10
-44.3429
 20
49.7434
 11
-44.4606
 21
49.1267
  0
LINE
  8
0
 10
-44.4606
 20
49.1267
 11
-44.5
 21
48.5
  0
LINE
  8
0
 10
-44.5
 20
48.5
 11
-44.5
 21
29.5
  0
LINE
  8
0
 10
-44.5
 20
29.5
 11
-44.4606
 21
28.8733
  0
LINE
  8
0
 10
-44.4606
 20
28.8733
 11
-44.3429
 21
28.2566
  0
LINE
  8
0
 10
-44.3429
 20
28.2566
 11
-44.1489
 21
27.6594
  0
LINE
  8
0
 10
-44.1489
 20
27.6594
 11
-43.8815
 21
27.0912
  0
LINE
  8
0
 10
-43.8815
 20
27.0912
 11
-43.5451
 21
26.5611
  0
LINE
  8
0
 10
-43.5451
 20
26.5611
 11
-43.1448
 21
26.0773
  0
LINE
  8
0
 10
-43.1448
 20
26.0773
 11
-42.6871
 21
25.6474
  0
LINE
  8
0
 10
-42.6871
 20
25.6474
 11
-42.1791
 21
25.2784
  0
LINE
  8
0
 10
-42.1791
 20
25.2784
 11
-41.6289
 21
24.9759
  0
LINE
  8
0
 10
-41.6289
 20
24.9759
 11
-41.0451
 21
24.7447
  0
LINE
  8
0
 10
-41.0451
 20
24.7447
 11
-40.4369
 21
24.5886
  0
LINE
  8
0
 10
-40.4369
 20
24.5886
 11
-39.8139
 21
24.5099
  0
LINE
  8
0
 10
-39.8139
 20
24.5099
 11
39.8139
 21
24.5099
  0
LINE
  8
0
 10
39.8139
 20
24.5099
 11
40.4369
 21
24.5886
  0
LINE
  8
0
 10
37.3116
 20
43.5059
 11
36.9379
 21
43.5531
  0
LINE
  8
0
 10
36.9379
 20
43.5531
 11
36.5729
 21
43.6468
  0
LINE
  8
0
 10
36.5729
 20
43.6468
 11
36.2227
 21
43.7855
  0
LINE
  8
0
 10
36.2227
 20
43.7855
 11
35.8925
 21
43.967
  0
LINE
  8
0
 10
35.8925
 20
43.967
 11
35.5877
 21
44.1884
  0
LINE
  8
0
 10
35.5877
 20
44.1884
 11
35.3131
 21
44.4464
  0
LINE
  8
0
 10
35.3131
 20
44.4464
 11
35.0729
 21
44.7366
  0
LINE
  8
0
 10
35.0729
 20
44.7366
 11
34.8711
 21
45.0547
  0
LINE
  8
0
 10
34.8711
 20
45.0547
 11
34.7107
 21
45.3956
  0
LINE
  8
0
 10
34.7107
 20
45.3956
 11
34.5942
 21
45.7539
  0
LINE
  8
0
 10
34.5942
 20
45.7539
 11
34.5237
 21
46.124
  0
LINE
  8
0
 10
34.5237
 20
46.124
 11
34.5
 21
46.5
  0
LINE
  8
0
 10
34.5
 20
46.5
 11
34.5237
 21
46.876
  0
LINE
  8
0
 10
34.5237
 20
46.876
 11
34.5942
 21
47.2461
  0
LINE
  8
0
 10
34.5942
 20
47.2461
 11
34.7107
 21
47.6044
  0
LINE
  8
0
 10
34.7107
 20
47.6044
 11
34.8711
 21
47.9453
  0
LINE
  8
0
 10
34.8711
 20
47.9453
 11
35.0729
 21
48.2634
  0
LINE
  8
0
 10
35.0729
 20
48.2634
 11
35.3131
 21
48.5536
  0
LINE
  8
0
 10
35.3131
 20
48.5536
 11
35.5877
 21
48.8115
  0
LINE
  8
0
 10
35.5877
 20
48.8115
 11
35.8925
 21
49.033
  0
LINE
  8
0
 10
35.8925
 20
49.033
 11
36.2227
 21
49.2145
  0
LINE
  8
0
 10
36.2227
 20
49.2145
 11
36.5729
 21
49.3532
  0
LINE
  8
0
 10
36.5729
 20
49.3532
 11
36.9379
 21
49.4469
  0
LINE
  8
0
 10
36.9379
 20
49.4469
 11
37.3116
 21
49.4941
  0
LINE
  8
0
 10
37.3116
 20
49.4941
 11
37.6884
 21
49.4941
  0
LINE
  8
0
 10
37.6884
 20
49.4941
 11
38.0621
 21
49.4469
  0
LINE
  8
0
 10
38.0621
 20
49.4469
 11
38.427
 21
49.3532
  0
LINE
  8
0
 10
38.427
 20
49.3532
 11
38.7773
 21
49.2145
  0
LINE
  8
0
 10
38.7773
 20
49.2145
 11
39.1075
 21
49.033
  0
LINE
  8
0
 10
39.1075
 20
49.033
 11
39.4123
 21
48.8115
  0
LINE
  8
0
 10
39.4123
 20
48.8115
 11
39.6869
 21
48.5536
  0
LINE
  8
0
 10
39.6869
 20
48.5536
 11
39.927
 21
48.2634
  0
LINE
  8
0
 10
39.927
 20
48.2634
 11
40.1289
 21
47.9453
  0
LINE
  8
0
 10
40.1289
 20
47.9453
 11
40.2893
 21
47.6044
  0
LINE
  8
0
 10
40.2893
 20
47.6044
 11
40.4057
 21
47.2461
  0
LINE
  8
0
 10
40.4057
 20
47.2461
 11
40.4763
 21
46.876
  0
LINE
  8
0
 10
40.4763
 20
46.876
 11
40.5
 21
46.5
  0
LINE
  8
0
 10
40.5
 20
46.5
 11
40.4763
 21
46.124
  0
LINE
  8
0
 10
40.4763
 20
46.124
 11
40.4057
 21
45.7539
  0
LINE
  8
0
 10
40.4057
 20
45.7539
 11
40.2893
 21
45.3956
  0
LINE
  8
0
 10
40.2893
 20
45.3956
 11
40.1289
 21
45.0547
  0
LINE
  8
0
 10
40.1289
 20
45.0547
 11
39.927
 21
44.7366
  0
LINE
  8
0
 10
39.927
 20
44.7366
 11
39.6869
 21
44.4464
  0
LINE
  8
0
 10
39.6869
 20
44.4464
 11
39.4123
 21
44.1884
  0
LINE
  8
0
 10
39.4123
 20
44.1884
 11
39.1075
 21
43.967
  0
LINE
  8
0
 10
39.1075
 20
43.967
 11
38.7773
 21
43.7855
  0
LINE
  8
0
 10
38.7773
 20
43.7855
 11
38.427
 21
43.6468
  0
LINE
  8
0
 10
38.427
 20
43.6468
 11
38.0621
 21
43.5531
  0
LINE
  8
0
 10
38.0621
 20
43.5531
 11
37.6884
 21
43.5059
  0
LINE
  8
0
 10
37.6884
 20
43.5059
 11
37.3116
 21
43.5059
  0
LINE
  8
0
 10
-37.6884
 20
43.5059
 11
-38.0621
 21
43.5531
  0
LINE
  8
0
 10
-38.0621
 20
43.5531
 11
-38.427
 21
43.6468
  0
LINE
  8
0
 10
-38.427
 20
43.6468
 11
-38.7773
 21
43.7855
  0
LINE
  8
0
 10
-38.7773
 20
43.7855
 11
-39.1075
 21
43.967
  0
LINE
  8
0
 10
-39.1075
 20
43.967
 11
-39.4123
 21
44.1884
  0
LINE
  8
0
 10
-39.4123
 20
44.1884
 11
-39.6869
 21
44.4464
  0
LINE
  8
0
 10
-39.6869
 20
44.4464
 11
-39.927
 21
44.7366
  0
LINE
  8
0
 10
-39.927
 20
44.7366
 11
-40.1289
 21
45.0547
  0
LINE
  8
0
 10
-40.1289
 20
45.0547
 11
-40.2893
 21
45.3956
  0
LINE
  8
0
 10
-40.2893
 20
45.3956
 11
-40.4057
 21
45.7539
  0
LINE
  8
0
 10
-40.4057
 20
45.7539
 11
-40.4763
 21
46.124
  0
LINE
  8
0
 10
-40.4763
 20
46.124
 11
-40.5
 21
46.5
  0
LINE
  8
0
 10
-40.5
 20
46.5
 11
-40.4763
 21
46.876
  0
LINE
  8
0
 10
-40.4763
 20
46.876
 11
-40.4057
 21
47.2461
  0
LINE
  8
0
 10
-40.4057
 20
47.2461
 11
-40.2893
 21
47.6044
  0
LINE
  8
0
 10
-40.2893
 20
47.6044
 11
-40.1289
 21
47.9453
  0
LINE
  8
0
 10
-40.1289
 20
47.9453
 11
-39.927
 21
48.2634
  0
LINE
  8
0
 10
-39.927
 20
48.2634
 11
-39.6869
 21
48.5536
  0
LINE
  8
0
 10
-39.6869
 20
48.5536
 11
-39.4123
 21
48.8115
  0
LINE
  8
0
 10
-39.4123
 20
48.8115
 11
-39.1075
 21
49.033
  0
LINE
  8
0
 10
-39.1075
 20
49.033
 11
-38.7773
 21
49.2145
  0
LINE
  8
0
 10
-38.7773
 20
49.2145
 11
-38.427
 21
49.3532
  0
LINE
  8
0
 10
-38.427
 20
49.3532
 11
-38.0621
 21
49.4469
  0
LINE
  8
0
 10
-38.0621
 20
49.4469
 11
-37.6884
 21
49.4941
  0
LINE
  8
0
 10
-37.6884
 20
49.4941
 11
-37.3116
 21
49.4941
  0
LINE
  8
0
 10
-37.3116
 20
49.4941
 11
-36.9379
 21
49.4469
  0
LINE
  8
0
 10
-36.9379
 20
49.4469
 11
-36.5729
 21
49.3532
  0
LINE
  8
0
 10
-36.5729
 20
49.3532
 11
-36.2227
 21
49.2145
  0
LINE
  8
0
 10
-36.2227
 20
49.2145
 11
-35.8925
 21
49.033
  0
LINE
  8
0
 10
-35.8925
 20
49.033
 11
-35.5877
 21
48.8115
  0
LINE
  8
0
 10
-35.5877
 20
48.8115
 11
-35.3131
 21
48.5536
  0
LINE
  8
0
 10
-35.3131
 20
48.5536
 11
-35.0729
 21
48.2634
  0
LINE
  8
0
 10
-35.0729
 20
48.2634
 11
-34.8711
 21
47.9453
  0
LINE
  8
0
 10
-34.8711
 20
47.9453
 11
-34.7107
 21
47.6044
  0
LINE
  8
0
 10
-34.7107
 20
47.6044
 11
-34.5942
 21
47.2461
  0
LINE
  8
0
 10
-34.5942
 20
47.2461
 11
-34.5237
 21
46.876
  0
LINE
  8
0
 10
-34.5237
 20
46.876
 11
-34.5
 21
46.5
  0
LINE
  8
0
 10
-34.5
 20
46.5
 11
-34.5237
 21
46.124
  0
LINE
  8
0
 10
-34.5237
 20
46.124
 11
-34.5942
 21
45.7539
  0
LINE
  8
0
 10
-34.5942
 20
45.7539
 11
-34.7107
 21
45.3956
  0
LINE
  8
0
 10
-34.7107
 20
45.3956
 11
-34.8711
 21
45.0547
  0
LINE
  8
0
 10
-34.8711
 20
45.0547
 11
-35.0729
 21
44.7366
  0
LINE
  8
0
 10
-35.0729
 20
44.7366
 11
-35.3131
 21
44.4464
  0
LINE
  8
0
 10
-35.3131
 20
44.4464
 11
-35.5877
 21
44.1884
  0
LINE
  8
0
 10
-35.5877
 20
44.1884
 11
-35.8925
 21
43.967
  0
LINE
  8
0
 10
-35.8925
 20
43.967
 11
-36.2227
 21
43.7855
  0
LINE
  8
0
 10
-36.2227
 20
43.7855
 11
-36.5729
 21
43.6468
  0
LINE
  8
0
 10
-36.5729
 20
43.6468
 11
-36.9379
 21
43.5531
  0
LINE
  8
0
 10
-36.9379
 20
43.5531
 11
-37.3116
 21
43.5059
  0
LINE
  8
0
 10
-37.3116
 20
43.5059
 11
-37.6884
 21
43.5059
  0
LINE
  8
0
 10
20.4977
 20
31.0158
 11
19.5009
 21
31.1417
  0
LINE
  8
0
 10
19.5009
 20
31.1417
 11
18.5279
 21
31.3916
  0
LINE
  8
0
 10
18.5279
 20
31.3916
 11
17.5938
 21
31.7614
  0
LINE
  8
0
 10
17.5938
 20
31.7614
 11
16.7134
 21
32.2454
  0
LINE
  8
0
 10
16.7134
 20
32.2454
 11
15.9006
 21
32.8359
  0
LINE
  8
0
 10
15.9006
 20
32.8359
 11
15.1682
 21
33.5236
  0
LINE
  8
0
 10
15.1682
 20
33.5236
 11
14.5279
 21
34.2977
  0
LINE
  8
0
 10
14.5279
 20
34.2977
 11
13.9895
 21
35.146
  0
LINE
  8
0
 10
13.9895
 20
35.146
 11
13.5618
 21
36.055
  0
LINE
  8
0
 10
13.5618
 20
36.055
 11
13.2513
 21
37.0105
  0
LINE
  8
0
 10
13.2513
 20
37.0105
 11
13.0631
 21
37.9973
  0
LINE
  8
0
 10
13.0631
 20
37.9973
 11
13
 21
39
  0
LINE
  8
0
 10
13
 20
39
 11
13.0631
 21
40.0027
  0
LINE
  8
0
 10
13.0631
 20
40.0027
 11
13.2513
 21
40.9895
  0
LINE
  8
0
 10
13.2513
 20
40.9895
 11
13.5618
 21
41.945
  0
LINE
  8
0
 10
13.5618
 20
41.945
 11
13.9895
 21
42.854
  0
LINE
  8
0
 10
13.9895
 20
42.854
 11
14.5279
 21
43.7023
  0
LINE
  8
0
 10
14.5279
 20
43.7023
 11
15.1682
 21
44.4764
  0
LINE
  8
0
 10
15.1682
 20
44.4764
 11
15.9006
 21
45.1641
  0
LINE
  8
0
 10
15.9006
 20
45.1641
 11
16.7134
 21
45.7546
  0
LINE
  8
0
 10
16.7134
 20
45.7546
 11
17.5938
 21
46.2386
  0
LINE
  8
0
 10
17.5938
 20
46.2386
 11
18.5279
 21
46.6084
  0
LINE
  8
0
 10
18.5279
 20
46.6084
 11
19.5009
 21
46.8583
  0
LINE
  8
0
 10
19.5009
 20
46.8583
 11
20.4977
 21
46.9842
  0
LINE
  8
0
 10
20.4977
 20
46.9842
 11
21.5023
 21
46.9842
  0
LINE
  8
0
 10
21.5023
 20
46.9842
 11
22.499
 21
46.8583
  0
LINE
  8
0
 10
22.499
 20
46.8583
 11
23.4721
 21
46.6084
  0
LINE
  8
0
 10
23.4721
 20
46.6084
 11
24.4062
 21
46.2386
  0
LINE
  8
0
 10
24.4062
 20
46.2386
 11
25.2866
 21
45.7546
  0
LINE
  8
0
 10
25.2866
 20
45.7546
 11
26.0994
 21
45.1641
  0
LINE
  8
0
 10
26.0994
 20
45.1641
 11
26.8317
 21
44.4764
  0
LINE
  8
0
 10
26.8317
 20
44.4764
 11
27.4721
 21
43.7023
  0
LINE
  8
0
 10
27.4721
 20
43.7023
 11
28.0105
 21
42.854
  0
LINE
  8
0
 10
28.0105
 20
42.854
 11
28.4382
 21
41.945
  0
LINE
  8
0
 10
28.4382
 20
41.945
 11
28.7487
 21
40.9895
  0
LINE
  8
0
 10
28.7487
 20
40.9895
 11
28.9369
 21
40.0027
  0
LINE
  8
0
 10
28.9369
 20
40.0027
 11
29
 21
39
  0
LINE
  8
0
 10
29
 20
39
 11
28.9369
 21
37.9973
  0
LINE
  8
0
 10
28.9369
 20
37.9973
 11
28.7487
 21
37.0105
  0
LINE
  8
0
 10
28.7487
 20
37.0105
 11
28.4382
 21
36.055
  0
LINE
  8
0
 10
28.4382
 20
36.055
 11
28.0105
 21
35.146
  0
LINE
  8
0
 10
28.0105
 20
35.146
 11
27.4721
 21
34.2977
  0
LINE
  8
0
 10
27.4721
 20
34.2977
 11
26.8317
 21
33.5236
  0
LINE
  8
0
 10
26.8317
 20
33.5236
 11
26.0994
 21
32.8359
  0
LINE
  8
0
 10
26.0994
 20
32.8359
 11
25.2866
 21
32.2454
  0
LINE
  8
0
 10
25.2866
 20
32.2454
 11
24.4062
 21
31.7614
  0
LINE
  8
0
 10
24.4062
 20
31.7614
 11
23.4721
 21
31.3916
  0
LINE
  8
0
 10
23.4721
 20
31.3916
 11
22.499
 21
31.1417
  0
LINE
  8
0
 10
22.499
 20
31.1417
 11
21.5023
 21
31.0158
  0
LINE
  8
0
 10
21.5023
 20
31.0158
 11
20.4977
 21
31.0158
  0
LINE
  8
0
 10
-0.502319
 20
31.0158
 11
-1.49904
 21
31.1417
  0
LINE
  8
0
 10
-1.49904
 20
31.1417
 11
-2.47212
 21
31.3916
  0
LINE
  8
0
 10
-2.47212
 20
31.3916
 11
-3.40622
 21
31.7614
  0
LINE
  8
0
 10
-3.40622
 20
31.7614
 11
-4.28661
 21
32.2454
  0
LINE
  8
0
 10
-4.28661
 20
32.2454
 11
-5.09938
 21
32.8359
  0
LINE
  8
0
 10
-5.09938
 20
32.8359
 11
-5.83174
 21
33.5236
  0
LINE
  8
0
 10
-5.83174
 20
33.5236
 11
-6.47212
 21
34.2977
  0
LINE
  8
0
 10
-6.47212
 20
34.2977
 11
-7.01045
 21
35.146
  0
LINE
  8
0
 10
-7.01045
 20
35.146
 11
-7.4382
 21
36.055
  0
LINE
  8
0
 10
-7.4382
 20
36.055
 11
-7.74866
 21
37.0105
  0
LINE
  8
0
 10
-7.74866
 20
37.0105
 11
-7.9369
 21
37.9973
  0
LINE
  8
0
 10
-7.9369
 20
37.9973
 11
-8
 21
39
  0
LINE
  8
0
 10
-8
 20
39
 11
-7.9369
 21
40.0027
  0
LINE
  8
0
 10
-7.9369
 20
40.0027
 11
-7.74866
 21
40.9895
  0
LINE
  8
0
 10
-7.74866
 20
40.9895
 11
-7.4382
 21
41.945
  0
LINE
  8
0
 10
-7.4382
 20
41.945
 11
-7.01045
 21
42.854
  0
LINE
  8
0
 10
-7.01045
 20
42.854
 11
-6.47212
 21
43.7023
  0
LINE
  8
0
 10
-6.47212
 20
43.7023
 11
-5.83174
 21
44.4764
  0
LINE
  8
0
 10
-5.83174
 20
44.4764
 11
-5.09938
 21
45.1641
  0
LINE
  8
0
 10
-5.09938
 20
45.1641
 11
-4.28661
 21
45.7546
  0
LINE
  8
0
 10
-4.28661
 20
45.7546
 11
-3.40622
 21
46.2386
  0
LINE
  8
0
 10
-3.40622
 20
46.2386
 11
-2.47212
 21
46.6084
  0
LINE
  8
0
 10
-2.47212
 20
46.6084
 11
-1.49904
 21
46.8583
  0
LINE
  8
0
 10
-1.49904
 20
46.8583
 11
-0.502319
 21
46.9842
  0
LINE
  8
0
 10
-0.502319
 20
46.9842
 11
0.502319
 21
46.9842
  0
LINE
  8
0
 10
0.502319
 20
46.9842
 11
1.49904
 21
46.8583
  0
LINE
  8
0
 10
1.49904
 20
46.8583
 11
2.47212
 21
46.6084
  0
LINE
  8
0
 10
2.47212
 20
46.6084
 11
3.40622
 21
46.2386
  0
LINE
  8
0
 10
3.40622
 20
46.2386
 11
4.28661
 21
45.7546
  0
LINE
  8
0
 10
4.28661
 20
45.7546
 11
5.09938
 21
45.1641
  0
LINE
  8
0
 10
5.09938
 20
45.1641
 11
5.83174
 21
44.4764
  0
LINE
  8
0
 10
5.83174
 20
44.4764
 11
6.47212
 21
43.7023
  0
LINE
  8
0
 10
6.47212
 20
43.7023
 11
7.01045
 21
42.854
  0
LINE
  8
0
 10
7.01045
 20
42.854
 11
7.4382
 21
41.945
  0
LINE
  8
0
 10
7.4382
 20
41.945
 11
7.74866
 21
40.9895
  0
LINE
  8
0
 10
7.74866
 20
40.9895
 11
7.9369
 21
40.0027
  0
LINE
  8
0
 10
7.9369
 20
40.0027
 11
8
 21
39
  0
LINE
  8
0
 10
8
 20
39
 11
7.9369
 21
37.9973
  0
LINE
  8
0
 10
7.9369
 20
37.9973
 11
7.74866
 21
37.0105
  0
LINE
  8
0
 10
7.74866
 20
37.0105
 11
7.4382
 21
36.055
  0
LINE
  8
0
 10
7.4382
 20
36.055
 11
7.01045
 21
35.146
  0
LINE
  8
0
 10
7.01045
 20
35.146
 11
6.47212
 21
34.2977
  0
LINE
  8
0
 10
6.47212
 20
34.2977
 11
5.83174
 21
33.5236
  0
LINE
  8
0
 10
5.83174
 20
33.5236
 11
5.09938
 21
32.8359
  0
LINE
  8
0
 10
5.09938
 20
32.8359
 11
4.28661
 21
32.2454
  0
LINE
  8
0
 10
4.28661
 20
32.2454
 11
3.40622
 21
31.7614
  0
LINE
  8
0
 10
3.40622
 20
31.7614
 11
2.47212
 21
31.3916
  0
LINE
  8
0
 10
2.47212
 20
31.3916
 11
1.49904
 21
31.1417
  0
LINE
  8
0
 10
1.49904
 20
31.1417
 11
0.502319
 21
31.0158
  0
LINE
  8
0
 10
0.502319
 20
31.0158
 11
-0.502319
 21
31.0158
  0
LINE
  8
0
 10
-21.5023
 20
31.0158
 11
-22.499
 21
31.1417
  0
LINE
  8
0
 10
-22.499
 20
31.1417
 11
-23.4721
 21
31.3916
  0
LINE
  8
0
 10
-23.4721
 20
31.3916
 11
-24.4062
 21
31.7614
  0
LINE
  8
0
 10
-24.4062
 20
31.7614
 11
-25.2866
 21
32.2454
  0
LINE
  8
0
 10
-25.2866
 20
32.2454
 11
-26.0994
 21
32.8359
  0
LINE
  8
0
 10
-26.0994
 20
32.8359
 11
-26.8317
 21
33.5236
  0
LINE
  8
0
 10
-26.8317
 20
33.5236
 11
-27.4721
 21
34.2977
  0
LINE
  8
0
 10
-27.4721
 20
34.2977
 11
-28.0105
 21
35.146
  0
LINE
  8
0
 10
-28.0105
 20
35.146
 11
-28.4382
 21
36.055
  0
LINE
  8
0
 10
-28.4382
 20
36.055
 11
-28.7487
 21
37.0105
  0
LINE
  8
0
 10
-28.7487
 20
37.0105
 11
-28.9369
 21
37.9973
  0
LINE
  8
0
 10
-28.9369
 20
37.9973
 11
-29
 21
39
  0
LINE
  8
0
 10
-29
 20
39
 11
-28.9369
 21
40.0027
  0
LINE
  8
0
 10
-28.9369
 20
40.0027
 11
-28.7487
 21
40.9895
  0
LINE
  8
0
 10
-28.7487
 20
40.9895
 11
-28.4382
 21
41.945
  0
LINE
  8
0
 10
-28.4382
 20
41.945
 11
-28.0105
 21
42.854
  0
LINE
  8
0
 10
-28.0105
 20
42.854
 11
-27.4721
 21
43.7023
  0
LINE
  8
0
 10
-27.4721
 20
43.7023
 11
-26.8317
 21
44.4764
  0
LINE
  8
0
 10
-26.8317
 20
44.4764
 11
-26.0994
 21
45.1641
  0
LINE
  8
0
 10
-26.0994
 20
45.1641
 11
-25.2866
 21
45.7546
  0
LINE
  8
0
 10
-25.2866
 20
45.7546
 11
-24.4062
 21
46.2386
  0
LINE
  8
0
 10
-24.4062
 20
46.2386
 11
-23.4721
 21
46.6084
  0
LINE
  8
0
 10
-23.4721
 20
46.6084
 11
-22.499
 21
46.8583
  0
LINE
  8
0
 10
-22.499
 20
46.8583
 11
-21.5023
 21
46.9842
  0
LINE
  8
0
 10
-21.5023
 20
46.9842
 11
-20.4977
 21
46.9842
  0
LINE
  8
0
 10
-20.4977
 20
46.9842
 11
-19.5009
 21
46.8583
  0
LINE
  8
0
 10
-19.5009
 20
46.8583
 11
-18.5279
 21
46.6084
  0
LINE
  8
0
 10
-18.5279
 20
46.6084
 11
-17.5938
 21
46.2386
  0
LINE
  8
0
 10
-17.5938
 20
46.2386
 11
-16.7134
 21
45.7546
  0
LINE
  8
0
 10
-16.7134
 20
45.7546
 11
-15.9006
 21
45.1641
  0
LINE
  8
0
 10
-15.9006
 20
45.1641
 11
-15.1682
 21
44.4764
  0
LINE
  8
0
 10
-15.1682
 20
44.4764
 11
-14.5279
 21
43.7023
  0
LINE
  8
0
 10
-14.5279
 20
43.7023
 11
-13.9895
 21
42.854
  0
LINE
  8
0
 10
-13.9895
 20
42.854
 11
-13.5618
 21
41.945
  0
LINE
  8
0
 10
-13.5618
 20
41.945
 11
-13.2513
 21
40.9895
  0
LINE
  8
0
 10
-13.2513
 20
40.9895
 11
-13.0631
 21
40.0027
  0
LINE
  8
0
 10
-13.0631
 20
40.0027
 11
-13
 21
39
  0
LINE
  8
0
 10
-13
 20
39
 11
-13.0631
 21
37.9973
  0
LINE
  8
0
 10
-13.0631
 20
37.9973
 11
-13.2513
 21
37.0105
  0
LINE
  8
0
 10
-13.2513
 20
37.0105
 11
-13.5618
 21
36.055
  0
LINE
  8
0
 10
-13.5618
 20
36.055
 11
-13.9895
 21
35.146
  0
LINE
  8
0
 10
-13.9895
 20
35.146
 11
-14.5279
 21
34.2977
  0
LINE
  8
0
 10
-14.5279
 20
34.2977
 11
-15.1682
 21
33.5236
  0
LINE
  8
0
 10
-15.1682
 20
33.5236
 11
-15.9006
 21
32.8359
  0
LINE
  8
0
 10
-15.9006
 20
32.8359
 11
-16.7134
 21
32.2454
  0
LINE
  8
0
 10
-16.7134
 20
32.2454
 11
-17.5938
 21
31.7614
  0
LINE
  8
0
 10
-17.5938
 20
31.7614
 11
-18.5279
 21
31.3916
  0
LINE
  8
0
 10
-18.5279
 20
31.3916
 11
-19.5009
 21
31.1417
  0
LINE
  8
0
 10
-19.5009
 20
31.1417
 11
-20.4977
 21
31.0158
  0
LINE
  8
0
 10
-20.4977
 20
31.0158
 11
-21.5023
 21
31.0158
  0
LINE
  8
0
 10
37.4058
 20
37.503
 11
37.2189
 21
37.5266
  0
LINE
  8
0
 10
37.2189
 20
37.5266
 11
37.0365
 21
37.5734
  0
LINE
  8
0
 10
37.0365
 20
37.5734
 11
36.8613
 21
37.6428
  0
LINE
  8
0
 10
36.8613
 20
37.6428
 11
36.6963
 21
37.7335
  0
LINE
  8
0
 10
36.6963
 20
37.7335
 11
36.5439
 21
37.8442
  0
LINE
  8
0
 10
36.5439
 20
37.8442
 11
36.4065
 21
37.9732
  0
LINE
  8
0
 10
36.4065
 20
37.9732
 11
36.2865
 21
38.1183
  0
LINE
  8
0
 10
36.2865
 20
38.1183
 11
36.1855
 21
38.2774
  0
LINE
  8
0
 10
36.1855
 20
38.2774
 11
36.1053
 21
38.4478
  0
LINE
  8
0
 10
36.1053
 20
38.4478
 11
36.0471
 21
38.627
  0
LINE
  8
0
 10
36.0471
 20
38.627
 11
36.0118
 21
38.812
  0
LINE
  8
0
 10
36.0118
 20
38.812
 11
36
 21
39
  0
LINE
  8
0
 10
36
 20
39
 11
36.0118
 21
39.188
  0
LINE
  8
0
 10
36.0118
 20
39.188
 11
36.0471
 21
39.373
  0
LINE
  8
0
 10
36.0471
 20
39.373
 11
36.1053
 21
39.5522
  0
LINE
  8
0
 10
36.1053
 20
39.5522
 11
36.1855
 21
39.7226
  0
LINE
  8
0
 10
36.1855
 20
39.7226
 11
36.2865
 21
39.8817
  0
LINE
  8
0
 10
36.2865
 20
39.8817
 11
36.4065
 21
40.0268
  0
LINE
  8
0
 10
36.4065
 20
40.0268
 11
36.5439
 21
40.1558
  0
LINE
  8
0
 10
36.5439
 20
40.1558
 11
36.6963
 21
40.2665
  0
LINE
  8
0
 10
36.6963
 20
40.2665
 11
36.8613
 21
40.3572
  0
LINE
  8
0
 10
36.8613
 20
40.3572
 11
37.0365
 21
40.4266
  0
LINE
  8
0
 10
37.0365
 20
40.4266
 11
37.2189
 21
40.4734
  0
LINE
  8
0
 10
37.2189
 20
40.4734
 11
37.4058
 21
40.497
  0
LINE
  8
0
 10
37.4058
 20
40.497
 11
37.5942
 21
40.497
  0
LINE
  8
0
 10
37.5942
 20
40.497
 11
37.7811
 21
40.4734
  0
LINE
  8
0
 10
37.7811
 20
40.4734
 11
37.9635
 21
40.4266
  0
LINE
  8
0
 10
37.9635
 20
40.4266
 11
38.1387
 21
40.3572
  0
LINE
  8
0
 10
38.1387
 20
40.3572
 11
38.3037
 21
40.2665
  0
LINE
  8
0
 10
38.3037
 20
40.2665
 11
38.4561
 21
40.1558
  0
LINE
  8
0
 10
38.4561
 20
40.1558
 11
38.5934
 21
40.0268
  0
LINE
  8
0
 10
38.5934
 20
40.0268
 11
38.7135
 21
39.8817
  0
LINE
  8
0
 10
38.7135
 20
39.8817
 11
38.8145
 21
39.7226
  0
LINE
  8
0
 10
38.8145
 20
39.7226
 11
38.8947
 21
39.5522
  0
LINE
  8
0
 10
38.8947
 20
39.5522
 11
38.9529
 21
39.373
  0
LINE
  8
0
 10
38.9529
 20
39.373
 11
38.9882
 21
39.188
  0
LINE
  8
0
 10
38.9882
 20
39.188
 11
39
 21
39
  0
LINE
  8
0
 10
39
 20
39
 11
38.9882
 21
38.812
  0
LINE
  8
0
 10
38.9882
 20
38.812
 11
38.9529
 21
38.627
  0
LINE
  8
0
 10
38.9529
 20
38.627
 11
38.8947
 21
38.4478
  0
LINE
  8
0
 10
38.8947
 20
38.4478
 11
38.8145
 21
38.2774
  0
LINE
  8
0
 10
38.8145
 20
38.2774
 11
38.7135
 21
38.1183
  0
LINE
  8
0
 10
38.7135
 20
38.1183
 11
38.5934
 21
37.9732
  0
LINE
  8
0
 10
38.5934
 20
37.9732
 11
38.4561
 21
37.8442
  0
LINE
  8
0
 10
38.4561
 20
37.8442
 11
38.3037
 21
37.7335
  0
LINE
  8
0
 10
38.3037
 20
37.7335
 11
38.1387
 21
37.6428
  0
LINE
  8
0
 10
38.1387
 20
37.6428
 11
37.9635
 21
37.5734
  0
LINE
  8
0
 10
37.9635
 20
37.5734
 11
37.7811
 21
37.5266
  0
LINE
  8
0
 10
37.7811
 20
37.5266
 11
37.5942
 21
37.503
  0
LINE
  8
0
 10
37.5942
 20
37.503
 11
37.4058
 21
37.503
  0
LINE
  8
0
 10
-37.5942
 20
37.503
 11
-37.7811
 21
37.5266
  0
LINE
  8
0
 10
-37.7811
 20
37.5266
 11
-37.9635
 21
37.5734
  0
LINE
  8
0
 10
-37.9635
 20
37.5734
 11
-38.1387
 21
37.6428
  0
LINE
  8
0
 10
-38.1387
 20
37.6428
 11
-38.3037
 21
37.7335
  0
LINE
  8
0
 10
-38.3037
 20
37.7335
 11
-38.4561
 21
37.8442
  0
LINE
  8
0
 10
-38.4561
 20
37.8442
 11
-38.5934
 21
37.9732
  0
LINE
  8
0
 10
-38.5934
 20
37.9732
 11
-38.7135
 21
38.1183
  0
LINE
  8
0
 10
-38.7135
 20
38.1183
 11
-38.8145
 21
38.2774
  0
LINE
  8
0
 10
-38.8145
 20
38.2774
 11
-38.8947
 21
38.4478
  0
LINE
  8
0
 10
-38.8947
 20
38.4478
 11
-38.9529
 21
38.627
  0
LINE
  8
0
 10
-38.9529
 20
38.627
 11
-38.9882
 21
38.812
  0
LINE
  8
0
 10
-38.9882
 20
38.812
 11
-39
 21
39
  0
LINE
  8
0
 10
-39
 20
39
 11
-38.9882
 21
39.188
  0
LINE
  8
0
 10
-38.9882
 20
39.188
 11
-38.9529
 21
39.373
  0
LINE
  8
0
 10
-38.9529
 20
39.373
 11
-38.8947
 21
39.5522
  0
LINE
  8
0
 10
-38.8947
 20
39.5522
 11
-38.8145
 21
39.7226
  0
LINE
  8
0
 10
-38.8145
 20
39.7226
 11
-38.7135
 21
39.8817
  0
LINE
  8
0
 10
-38.7135
 20
39.8817
 11
-38.5934
 21
40.0268
  0
LINE
  8
0
 10
-38.5934
 20
40.0268
 11
-38.4561
 21
40.1558
  0
LINE
  8
0
 10
-38.4561
 20
40.1558
 11
-38.3037
 21
40.2665
  0
LINE
  8
0
 10
-38.3037
 20
40.2665
 11
-38.1387
 21
40.3572
  0
LINE
  8
0
 10
-38.1387
 20
40.3572
 11
-37.9635
 21
40.4266
  0
LINE
  8
0
 10
-37.9635
 20
40.4266
 11
-37.7811
 21
40.4734
  0
LINE
  8
0
 10
-37.7811
 20
40.4734
 11
-37.5942
 21
40.497
  0
LINE
  8
0
 10
-37.5942
 20
40.497
 11
-37.4058
 21
40.497
  0
LINE
  8
0
 10
-37.4058
 20
40.497
 11
-37.2189
 21
40.4734
  0
LINE
  8
0
 10
-37.2189
 20
40.4734
 11
-37.0365
 21
40.4266
  0
LINE
  8
0
 10
-37.0365
 20
40.4266
 11
-36.8613
 21
40.3572
  0
LINE
  8
0
 10
-36.8613
 20
40.3572
 11
-36.6963
 21
40.2665
  0
LINE
  8
0
 10
-36.6963
 20
40.2665
 11
-36.5439
 21
40.1558
  0
LINE
  8
0
 10
-36.5439
 20
40.1558
 11
-36.4065
 21
40.0268
  0
LINE
  8
0
 10
-36.4065
 20
40.0268
 11
-36.2865
 21
39.8817
  0
LINE
  8
0
 10
-36.2865
 20
39.8817
 11
-36.1855
 21
39.7226
  0
LINE
  8
0
 10
-36.1855
 20
39.7226
 11
-36.1053
 21
39.5522
  0
LINE
  8
0
 10
-36.1053
 20
39.5522
 11
-36.0471
 21
39.373
  0
LINE
  8
0
 10
-36.0471
 20
39.373
 11
-36.0118
 21
39.188
  0
LINE
  8
0
 10
-36.0118
 20
39.188
 11
-36
 21
39
  0
LINE
  8
0
 10
-36
 20
39
 11
-36.0118
 21
38.812
  0
LINE
  8
0
 10
-36.0118
 20
38.812
 11
-36.0471
 21
38.627
  0
LINE
  8
0
 10
-36.0471
 20
38.627
 11
-36.1053
 21
38.4478
  0
LINE
  8
0
 10
-36.1053
 20
38.4478
 11
-36.1855
 21
38.2774
  0
LINE
  8
0
 10
-36.1855
 20
38.2774
 11
-36.2865
 21
38.1183
  0
LINE
  8
0
 10
-36.2865
 20
38.1183
 11
-36.4065
 21
37.9732
  0
LINE
  8
0
 10
-36.4065
 20
37.9732
 11
-36.5439
 21
37.8442
  0
LINE
  8
0
 10
-36.5439
 20
37.8442
 11
-36.6963
 21
37.7335
  0
LINE
  8
0
 10
-36.6963
 20
37.7335
 11
-36.8613
 21
37.6428
  0
LINE
  8
0
 10
-36.8613
 20
37.6428
 11
-37.0365
 21
37.5734
  0
LINE
  8
0
 10
-37.0365
 20
37.5734
 11
-37.2189
 21
37.5266
  0
LINE
  8
0
 10
-37.2189
 20
37.5266
 11
-37.4058
 21
37.503
  0
LINE
  8
0
 10
-37.4058
 20
37.503
 11
-37.5942
 21
37.503
  0
LINE
  8
0
 10
-37.6884
 20
28.5059
 11
-38.0621
 21
28.5531
  0
LINE
  8
0
 10
-38.0621
 20
28.5531
 11
-38.427
 21
28.6468
  0
LINE
  8
0
 10
-38.427
 20
28.6468
 11
-38.7773
 21
28.7855
  0
LINE
  8
0
 10
-38.7773
 20
28.7855
 11
-39.1075
 21
28.967
  0
LINE
  8
0
 10
-39.1075
 20
28.967
 11
-39.4123
 21
29.1885
  0
LINE
  8
0
 10
-39.4123
 20
29.1885
 11
-39.6869
 21
29.4464
  0
LINE
  8
0
 10
-39.6869
 20
29.4464
 11
-39.927
 21
29.7366
  0
LINE
  8
0
 10
-39.927
 20
29.7366
 11
-40.1289
 21
30.0547
  0
LINE
  8
0
 10
-40.1289
 20
30.0547
 11
-40.2893
 21
30.3956
  0
LINE
  8
0
 10
-40.2893
 20
30.3956
 11
-40.4057
 21
30.7539
  0
LINE
  8
0
 10
-40.4057
 20
30.7539
 11
-40.4763
 21
31.124
  0
LINE
  8
0
 10
-40.4763
 20
31.124
 11
-40.5
 21
31.5
  0
LINE
  8
0
 10
-40.5
 20
31.5
 11
-40.4763
 21
31.876
  0
LINE
  8
0
 10
-40.4763
 20
31.876
 11
-40.4057
 21
32.2461
  0
LINE
  8
0
 10
-40.4057
 20
32.2461
 11
-40.2893
 21
32.6044
  0
LINE
  8
0
 10
-40.2893
 20
32.6044
 11
-40.1289
 21
32.9453
  0
LINE
  8
0
 10
-40.1289
 20
32.9453
 11
-39.927
 21
33.2634
  0
LINE
  8
0
 10
-39.927
 20
33.2634
 11
-39.6869
 21
33.5536
  0
LINE
  8
0
 10
-39.6869
 20
33.5536
 11
-39.4123
 21
33.8116
  0
LINE
  8
0
 10
-39.4123
 20
33.8116
 11
-39.1075
 21
34.033
  0
LINE
  8
0
 10
-39.1075
 20
34.033
 11
-38.7773
 21
34.2145
  0
LINE
  8
0
 10
-38.7773
 20
34.2145
 11
-38.427
 21
34.3532
  0
LINE
  8
0
 10
-38.427
 20
34.3532
 11
-38.0621
 21
34.4469
  0
LINE
  8
0
 10
-38.0621
 20
34.4469
 11
-37.6884
 21
34.4941
  0
LINE
  8
0
 10
-37.6884
 20
34.4941
 11
-37.3116
 21
34.4941
  0
LINE
  8
0
 10
-37.3116
 20
34.4941
 11
-36.9379
 21
34.4469
  0
LINE
  8
0
 10
-36.9379
 20
34.4469
 11
-36.5729
 21
34.3532
  0
LINE
  8
0
 10
-36.5729
 20
34.3532
 11
-36.2227
 21
34.2145
  0
LINE
  8
0
 10
-36.2227
 20
34.2145
 11
-35.8925
 21
34.033
  0
LINE
  8
0
 10
-35.8925
 20
34.033
 11
-35.5877
 21
33.8116
  0
LINE
  8
0
 10
-35.5877
 20
33.8116
 11
-35.3131
 21
33.5536
  0
LINE
  8
0
 10
-35.3131
 20
33.5536
 11
-35.0729
 21
33.2634
  0
LINE
  8
0
 10
-35.0729
 20
33.2634
 11
-34.8711
 21
32.9453
  0
LINE
  8
0
 10
-34.8711
 20
32.9453
 11
-34.7107
 21
32.6044
  0
LINE
  8
0
 10
-34.7107
 20
32.6044
 11
-34.5942
 21
32.2461
  0
LINE
  8
0
 10
-34.5942
 20
32.2461
 11
-34.5237
 21
31.876
  0
LINE
  8
0
 10
-34.5237
 20
31.876
 11
-34.5
 21
31.5
  0
LINE
  8
0
 10
-34.5
 20
31.5
 11
-34.5237
 21
31.124
  0
LINE
  8
0
 10
-34.5237
 20
31.124
 11
-34.5942
 21
30.7539
  0
LINE
  8
0
 10
-34.5942
 20
30.7539
 11
-34.7107
 21
30.3956
  0
LINE
  8
0
 10
-34.7107
 20
30.3956
 11
-34.8711
 21
30.0547
  0
LINE
  8
0
 10
-34.8711
 20
30.0547
 11
-35.0729
 21
29.7366
  0
LINE
  8
0
 10
-35.0729
 20
29.7366
 11
-35.3131
 21
29.4464
  0
LINE
  8
0
 10
-35.3131
 20
29.4464
 11
-35.5877
 21
29.1885
  0
LINE
  8
0
 10
-35.5877
 20
29.1885
 11
-35.8925
 21
28.967
  0
LINE
  8
0
 10
-35.8925
 20
28.967
 11
-36.2227
 21
28.7855
  0
LINE
  8
0
 10
-36.2227
 20
28.7855
 11
-36.5729
 21
28.6468
  0
LINE
  8
0
 10
-36.5729
 20
28.6468
 11
-36.9379
 21
28.5531
  0
LINE
  8
0
 10
-36.9379
 20
28.5531
 11
-37.3116
 21
28.5059
  0
LINE
  8
0
 10
-37.3116
 20
28.5059
 11
-37.6884
 21
28.5059
  0
LINE
  8
0
 10
37.3116
 20
28.5059
 11
36.9379
 21
28.5531
  0
LINE
  8
0
 10
36.9379
 20
28.5531
 11
36.5729
 21
28.6468
  0
LINE
  8
0
 10
36.5729
 20
28.6468
 11
36.2227
 21
28.7855
  0
LINE
  8
0
 10
36.2227
 20
28.7855
 11
35.8925
 21
28.967
  0
LINE
  8
0
 10
35.8925
 20
28.967
 11
35.5877
 21
29.1885
  0
LINE
  8
0
 10
35.5877
 20
29.1885
 11
35.3131
 21
29.4464
  0
LINE
  8
0
 10
35.3131
 20
29.4464
 11
35.0729
 21
29.7366
  0
LINE
  8
0
 10
35.0729
 20
29.7366
 11
34.8711
 21
30.0547
  0
LINE
  8
0
 10
34.8711
 20
30.0547
 11
34.7107
 21
30.3956
  0
LINE
  8
0
 10
34.7107
 20
30.3956
 11
34.5942
 21
30.7539
  0
LINE
  8
0
 10
34.5942
 20
30.7539
 11
34.5237
 21
31.124
  0
LINE
  8
0
 10
34.5237
 20
31.124
 11
34.5
 21
31.5
  0
LINE
  8
0
 10
34.5
 20
31.5
 11
34.5237
 21
31.876
  0
LINE
  8
0
 10
34.5237
 20
31.876
 11
34.5942
 21
32.2461
  0
LINE
  8
0
 10
34.5942
 20
32.2461
 11
34.7107
 21
32.6044
  0
LINE
  8
0
 10
34.7107
 20
32.6044
 11
34.8711
 21
32.9453
  0
LINE
  8
0
 10
34.8711
 20
32.9453
 11
35.0729
 21
33.2634
  0
LINE
  8
0
 10
35.0729
 20
33.2634
 11
35.3131
 21
33.5536
  0
LINE
  8
0
 10
35.3131
 20
33.5536
 11
35.5877
 21
33.8116
  0
LINE
  8
0
 10
35.5877
 20
33.8116
 11
35.8925
 21
34.033
  0
LINE
  8
0
 10
35.8925
 20
34.033
 11
36.2227
 21
34.2145
  0
LINE
  8
0
 10
36.2227
 20
34.2145
 11
36.5729
 21
34.3532
  0
LINE
  8
0
 10
36.5729
 20
34.3532
 11
36.9379
 21
34.4469
  0
LINE
  8
0
 10
36.9379
 20
34.4469
 11
37.3116
 21
34.4941
  0
LINE
  8
0
 10
37.3116
 20
34.4941
 11
37.6884
 21
34.4941
  0
LINE
  8
0
 10
37.6884
 20
34.4941
 11
38.0621
 21
34.4469
  0
LINE
  8
0
 10
38.0621
 20
34.4469
 11
38.427
 21
34.3532
  0
LINE
  8
0
 10
38.427
 20
34.3532
 11
38.7773
 21
34.2145
  0
LINE
  8
0
 10
38.7773
 20
34.2145
 11
39.1075
 21
34.033
  0
LINE
  8
0
 10
39.1075
 20
34.033
 11
39.4123
 21
33.8116
  0
LINE
  8
0
 10
39.4123
 20
33.8116
 11
39.6869
 21
33.5536
  0
LINE
  8
0
 10
39.6869
 20
33.5536
 11
39.927
 21
33.2634
  0
LINE
  8
0
 10
39.927
 20
33.2634
 11
40.1289
 21
32.9453
  0
LINE
  8
0
 10
40.1289
 20
32.9453
 11
40.2893
 21
32.6044
  0
LINE
  8
0
 10
40.2893
 20
32.6044
 11
40.4057
 21
32.2461
  0
LINE
  8
0
 10
40.4057
 20
32.2461
 11
40.4763
 21
31.876
  0
LINE
  8
0
 10
40.4763
 20
31.876
 11
40.5
 21
31.5
  0
LINE
  8
0
 10
40.5
 20
31.5
 11
40.4763
 21
31.124
  0
LINE
  8
0
 10
40.4763
 20
31.124
 11
40.4057
 21
30.7539
  0
LINE
  8
0
 10
40.4057
 20
30.7539
 11
40.2893
 21
30.3956
  0
LINE
  8
0
 10
40.2893
 20
30.3956
 11
40.1289
 21
30.0547
  0
LINE
  8
0
 10
40.1289
 20
30.0547
 11
39.927
 21
29.7366
  0
LINE
  8
0
 10
39.927
 20
29.7366
 11
39.6869
 21
29.4464
  0
LINE
  8
0
 10
39.6869
 20
29.4464
 11
39.4123
 21
29.1885
  0
LINE
  8
0
 10
39.4123
 20
29.1885
 11
39.1075
 21
28.967
  0
LINE
  8
0
 10
39.1075
 20
28.967
 11
38.7773
 21
28.7855
  0
LINE
  8
0
 10
38.7773
 20
28.7855
 11
38.427
 21
28.6468
  0
LINE
  8
0
 10
38.427
 20
28.6468
 11
38.0621
 21
28.5531
  0
LINE
  8
0
 10
38.0621
 20
28.5531
 11
37.6884
 21
28.5059
  0
LINE
  8
0
 10
37.6884
 20
28.5059
 11
37.3116
 21
28.5059
  0
ENDSEC
  0
SECTION
  2
OBJECTS
  0
DICTIONARY
  0
ENDSEC
  0
EOF
