  0
SECTION
  2
BLOCKS
  0
ENDSEC
  0
SECTION
  2
ENTITIES
  0
LINE
  8
0
 10
25.4369
 20
-14.4114
 11
26.0451
 21
-14.2553
  0
LINE
  8
0
 10
26.0451
 20
-14.2553
 11
26.6289
 21
-14.0241
  0
LINE
  8
0
 10
26.6289
 20
-14.0241
 11
27.1791
 21
-13.7216
  0
LINE
  8
0
 10
27.1791
 20
-13.7216
 11
27.6871
 21
-13.3526
  0
LINE
  8
0
 10
27.6871
 20
-13.3526
 11
28.1448
 21
-12.9227
  0
LINE
  8
0
 10
28.1448
 20
-12.9227
 11
28.5451
 21
-12.4389
  0
LINE
  8
0
 10
28.5451
 20
-12.4389
 11
28.8815
 21
-11.9088
  0
LINE
  8
0
 10
28.8815
 20
-11.9088
 11
29.1489
 21
-11.3406
  0
LINE
  8
0
 10
29.1489
 20
-11.3406
 11
29.3429
 21
-10.7434
  0
LINE
  8
0
 10
29.3429
 20
-10.7434
 11
29.4606
 21
-10.1267
  0
LINE
  8
0
 10
29.4606
 20
-10.1267
 11
29.5
 21
-9.5
  0
LINE
  8
0
 10
29.5
 20
-9.5
 11
29.5
 21
9.5
  0
LINE
  8
0
 10
29.5
 20
9.5
 11
29.4606
 21
10.1267
  0
LINE
  8
0
 10
29.4606
 20
10.1267
 11
29.3429
 21
10.7434
  0
LINE
  8
0
 10
29.3429
 20
10.7434
 11
29.1489
 21
11.3406
  0
LINE
  8
0
 10
29.1489
 20
11.3406
 11
28.8815
 21
11.9088
  0
LINE
  8
0
 10
28.8815
 20
11.9088
 11
28.5451
 21
12.4389
  0
LINE
  8
0
 10
28.5451
 20
12.4389
 11
28.1448
 21
12.9227
  0
LINE
  8
0
 10
28.1448
 20
12.9227
 11
27.6871
 21
13.3526
  0
LINE
  8
0
 10
27.6871
 20
13.3526
 11
27.1791
 21
13.7216
  0
LINE
  8
0
 10
27.1791
 20
13.7216
 11
26.6289
 21
14.0241
  0
LINE
  8
0
 10
26.6289
 20
14.0241
 11
26.0451
 21
14.2553
  0
LINE
  8
0
 10
26.0451
 20
14.2553
 11
25.4369
 21
14.4114
  0
LINE
  8
0
 10
25.4369
 20
14.4114
 11
24.8139
 21
14.4901
  0
LINE
  8
0
 10
24.8139
 20
14.4901
 11
-24.8139
 21
14.4901
  0
LINE
  8
0
 10
-24.8139
 20
14.4901
 11
-25.4369
 21
14.4114
  0
LINE
  8
0
 10
-25.4369
 20
14.4114
 11
-26.0451
 21
14.2553
  0
LINE
  8
0
 10
-26.0451
 20
14.2553
 11
-26.6289
 21
14.0241
  0
LINE
  8
0
 10
-26.6289
 20
14.0241
 11
-27.1791
 21
13.7216
  0
LINE
  8
0
 10
-27.1791
 20
13.7216
 11
-27.6871
 21
13.3526
  0
LINE
  8
0
 10
-27.6871
 20
13.3526
 11
-28.1448
 21
12.9227
  0
LINE
  8
0
 10
-28.1448
 20
12.9227
 11
-28.5451
 21
12.4389
  0
LINE
  8
0
 10
-28.5451
 20
12.4389
 11
-28.8815
 21
11.9088
  0
LINE
  8
0
 10
-28.8815
 20
11.9088
 11
-29.1489
 21
11.3406
  0
LINE
  8
0
 10
-29.1489
 20
11.3406
 11
-29.3429
 21
10.7434
  0
LINE
  8
0
 10
-29.3429
 20
10.7434
 11
-29.4606
 21
10.1267
  0
LINE
  8
0
 10
-29.4606
 20
10.1267
 11
-29.5
 21
9.5
  0
LINE
  8
0
 10
-29.5
 20
9.5
 11
-29.5
 21
-9.5
  0
LINE
  8
0
 10
-29.5
 20
-9.5
 11
-29.4606
 21
-10.1267
  0
LINE
  8
0
 10
-29.4606
 20
-10.1267
 11
-29.3429
 21
-10.7434
  0
LINE
  8
0
 10
-29.3429
 20
-10.7434
 11
-29.1489
 21
-11.3406
  0
LINE
  8
0
 10
-29.1489
 20
-11.3406
 11
-28.8815
 21
-11.9088
  0
LINE
  8
0
 10
-28.8815
 20
-11.9088
 11
-28.5451
 21
-12.4389
  0
LINE
  8
0
 10
-28.5451
 20
-12.4389
 11
-28.1448
 21
-12.9227
  0
LINE
  8
0
 10
-28.1448
 20
-12.9227
 11
-27.6871
 21
-13.3526
  0
LINE
  8
0
 10
-27.6871
 20
-13.3526
 11
-27.1791
 21
-13.7216
  0
LINE
  8
0
 10
-27.1791
 20
-13.7216
 11
-26.6289
 21
-14.0241
  0
LINE
  8
0
 10
-26.6289
 20
-14.0241
 11
-26.0451
 21
-14.2553
  0
LINE
  8
0
 10
-26.0451
 20
-14.2553
 11
-25.4369
 21
-14.4114
  0
LINE
  8
0
 10
-25.4369
 20
-14.4114
 11
-24.8139
 21
-14.4901
  0
LINE
  8
0
 10
-24.8139
 20
-14.4901
 11
24.8139
 21
-14.4901
  0
LINE
  8
0
 10
24.8139
 20
-14.4901
 11
25.4369
 21
-14.4114
  0
LINE
  8
0
 10
-14.7221
 20
-11.4773
 11
-16.1549
 21
-11.2963
  0
LINE
  8
0
 10
-16.1549
 20
-11.2963
 11
-17.5537
 21
-10.9371
  0
LINE
  8
0
 10
-17.5537
 20
-10.9371
 11
-18.8965
 21
-10.4055
  0
LINE
  8
0
 10
-18.8965
 20
-10.4055
 11
-20.162
 21
-9.70976
  0
LINE
  8
0
 10
-20.162
 20
-9.70976
 11
-20.3409
 21
-9.57977
  0
LINE
  8
0
 10
-20.3409
 20
-9.57977
 11
-20.5877
 21
-9.81154
  0
LINE
  8
0
 10
-20.5877
 20
-9.81154
 11
-20.8925
 21
-10.033
  0
LINE
  8
0
 10
-20.8925
 20
-10.033
 11
-21.2227
 21
-10.2145
  0
LINE
  8
0
 10
-21.2227
 20
-10.2145
 11
-21.5729
 21
-10.3532
  0
LINE
  8
0
 10
-21.5729
 20
-10.3532
 11
-21.9379
 21
-10.4469
  0
LINE
  8
0
 10
-21.9379
 20
-10.4469
 11
-22.3116
 21
-10.4941
  0
LINE
  8
0
 10
-22.3116
 20
-10.4941
 11
-22.6884
 21
-10.4941
  0
LINE
  8
0
 10
-22.6884
 20
-10.4941
 11
-23.0621
 21
-10.4469
  0
LINE
  8
0
 10
-23.0621
 20
-10.4469
 11
-23.427
 21
-10.3532
  0
LINE
  8
0
 10
-23.427
 20
-10.3532
 11
-23.7773
 21
-10.2145
  0
LINE
  8
0
 10
-23.7773
 20
-10.2145
 11
-24.1075
 21
-10.033
  0
LINE
  8
0
 10
-24.1075
 20
-10.033
 11
-24.4123
 21
-9.81154
  0
LINE
  8
0
 10
-24.4123
 20
-9.81154
 11
-24.6869
 21
-9.55363
  0
LINE
  8
0
 10
-24.6869
 20
-9.55363
 11
-24.927
 21
-9.26335
  0
LINE
  8
0
 10
-24.927
 20
-9.26335
 11
-25.1289
 21
-8.94525
  0
LINE
  8
0
 10
-25.1289
 20
-8.94525
 11
-25.2893
 21
-8.60437
  0
LINE
  8
0
 10
-25.2893
 20
-8.60437
 11
-25.4057
 21
-8.24606
  0
LINE
  8
0
 10
-25.4057
 20
-8.24606
 11
-25.4763
 21
-7.87599
  0
LINE
  8
0
 10
-25.4763
 20
-7.87599
 11
-25.5
 21
-7.5
  0
LINE
  8
0
 10
-25.5
 20
-7.5
 11
-25.4763
 21
-7.12399
  0
LINE
  8
0
 10
-25.4763
 20
-7.12399
 11
-25.4057
 21
-6.75392
  0
LINE
  8
0
 10
-25.4057
 20
-6.75392
 11
-25.2893
 21
-6.39561
  0
LINE
  8
0
 10
-25.2893
 20
-6.39561
 11
-25.1289
 21
-6.05473
  0
LINE
  8
0
 10
-25.1289
 20
-6.05473
 11
-24.927
 21
-5.73663
  0
LINE
  8
0
 10
-24.927
 20
-5.73663
 11
-24.6869
 21
-5.44635
  0
LINE
  8
0
 10
-24.6869
 20
-5.44635
 11
-24.4123
 21
-5.18845
  0
LINE
  8
0
 10
-24.4123
 20
-5.18845
 11
-24.2861
 21
-5.09682
  0
LINE
  8
0
 10
-24.2861
 20
-5.09682
 11
-24.6924
 21
-4.23343
  0
LINE
  8
0
 10
-24.6924
 20
-4.23343
 11
-25.1387
 21
-2.85992
  0
LINE
  8
0
 10
-25.1387
 20
-2.85992
 11
-25.4093
 21
-1.44133
  0
LINE
  8
0
 10
-25.4093
 20
-1.44133
 11
-25.5
 21
0
  0
LINE
  8
0
 10
-25.5
 20
0
 11
-25.4093
 21
1.44133
  0
LINE
  8
0
 10
-25.4093
 20
1.44133
 11
-25.1387
 21
2.85992
  0
LINE
  8
0
 10
-25.1387
 20
2.85992
 11
-24.6924
 21
4.23343
  0
LINE
  8
0
 10
-24.6924
 20
4.23343
 11
-24.2861
 21
5.09682
  0
LINE
  8
0
 10
-24.2861
 20
5.09682
 11
-24.4123
 21
5.18845
  0
LINE
  8
0
 10
-24.4123
 20
5.18845
 11
-24.6869
 21
5.44635
  0
LINE
  8
0
 10
-24.6869
 20
5.44635
 11
-24.927
 21
5.73663
  0
LINE
  8
0
 10
-24.927
 20
5.73663
 11
-25.1289
 21
6.05473
  0
LINE
  8
0
 10
-25.1289
 20
6.05473
 11
-25.2893
 21
6.39561
  0
LINE
  8
0
 10
-25.2893
 20
6.39561
 11
-25.4057
 21
6.75392
  0
LINE
  8
0
 10
-25.4057
 20
6.75392
 11
-25.4763
 21
7.12399
  0
LINE
  8
0
 10
-25.4763
 20
7.12399
 11
-25.5
 21
7.5
  0
LINE
  8
0
 10
-25.5
 20
7.5
 11
-25.4763
 21
7.87599
  0
LINE
  8
0
 10
-25.4763
 20
7.87599
 11
-25.4057
 21
8.24606
  0
LINE
  8
0
 10
-25.4057
 20
8.24606
 11
-25.2893
 21
8.60437
  0
LINE
  8
0
 10
-25.2893
 20
8.60437
 11
-25.1289
 21
8.94525
  0
LINE
  8
0
 10
-25.1289
 20
8.94525
 11
-24.927
 21
9.26335
  0
LINE
  8
0
 10
-24.927
 20
9.26335
 11
-24.6869
 21
9.55363
  0
LINE
  8
0
 10
-24.6869
 20
9.55363
 11
-24.4123
 21
9.81154
  0
LINE
  8
0
 10
-24.4123
 20
9.81154
 11
-24.1075
 21
10.033
  0
LINE
  8
0
 10
-24.1075
 20
10.033
 11
-23.7773
 21
10.2145
  0
LINE
  8
0
 10
-23.7773
 20
10.2145
 11
-23.427
 21
10.3532
  0
LINE
  8
0
 10
-23.427
 20
10.3532
 11
-23.0621
 21
10.4469
  0
LINE
  8
0
 10
-23.0621
 20
10.4469
 11
-22.6884
 21
10.4941
  0
LINE
  8
0
 10
-22.6884
 20
10.4941
 11
-22.3116
 21
10.4941
  0
LINE
  8
0
 10
-22.3116
 20
10.4941
 11
-21.9379
 21
10.4469
  0
LINE
  8
0
 10
-21.9379
 20
10.4469
 11
-21.5729
 21
10.3532
  0
LINE
  8
0
 10
-21.5729
 20
10.3532
 11
-21.2227
 21
10.2145
  0
LINE
  8
0
 10
-21.2227
 20
10.2145
 11
-20.8925
 21
10.033
  0
LINE
  8
0
 10
-20.8925
 20
10.033
 11
-20.5877
 21
9.81154
  0
LINE
  8
0
 10
-20.5877
 20
9.81154
 11
-20.3409
 21
9.57977
  0
LINE
  8
0
 10
-20.3409
 20
9.57977
 11
-20.162
 21
9.70976
  0
LINE
  8
0
 10
-20.162
 20
9.70976
 11
-18.8965
 21
10.4055
  0
LINE
  8
0
 10
-18.8965
 20
10.4055
 11
-17.5537
 21
10.9371
  0
LINE
  8
0
 10
-17.5537
 20
10.9371
 11
-16.1549
 21
11.2963
  0
LINE
  8
0
 10
-16.1549
 20
11.2963
 11
-14.7221
 21
11.4773
  0
LINE
  8
0
 10
-14.7221
 20
11.4773
 11
-13.2779
 21
11.4773
  0
LINE
  8
0
 10
-13.2779
 20
11.4773
 11
-11.8451
 21
11.2963
  0
LINE
  8
0
 10
-11.8451
 20
11.2963
 11
-10.4463
 21
10.9371
  0
LINE
  8
0
 10
-10.4463
 20
10.9371
 11
-9.10353
 21
10.4055
  0
LINE
  8
0
 10
-9.10353
 20
10.4055
 11
-7.83798
 21
9.70976
  0
LINE
  8
0
 10
-7.83798
 20
9.70976
 11
-6.66962
 21
8.8609
  0
LINE
  8
0
 10
-6.66962
 20
8.8609
 11
-5.61685
 21
7.87228
  0
LINE
  8
0
 10
-5.61685
 20
7.87228
 11
-4.6963
 21
6.75952
  0
LINE
  8
0
 10
-4.6963
 20
6.75952
 11
-3.92247
 21
5.54016
  0
LINE
  8
0
 10
-3.92247
 20
5.54016
 11
-3.30756
 21
4.23343
  0
LINE
  8
0
 10
-3.30756
 20
4.23343
 11
-2.86128
 21
2.85992
  0
LINE
  8
0
 10
-2.86128
 20
2.85992
 11
-2.59067
 21
1.44133
  0
LINE
  8
0
 10
-2.59067
 20
1.44133
 11
-2.5
 21
0
  0
LINE
  8
0
 10
-2.5
 20
0
 11
-2.59067
 21
-1.44133
  0
LINE
  8
0
 10
-2.59067
 20
-1.44133
 11
-2.86128
 21
-2.85992
  0
LINE
  8
0
 10
-2.86128
 20
-2.85992
 11
-3.30756
 21
-4.23343
  0
LINE
  8
0
 10
-3.30756
 20
-4.23343
 11
-3.92247
 21
-5.54016
  0
LINE
  8
0
 10
-3.92247
 20
-5.54016
 11
-4.6963
 21
-6.75952
  0
LINE
  8
0
 10
-4.6963
 20
-6.75952
 11
-5.61685
 21
-7.87228
  0
LINE
  8
0
 10
-5.61685
 20
-7.87228
 11
-6.66962
 21
-8.8609
  0
LINE
  8
0
 10
-6.66962
 20
-8.8609
 11
-7.83798
 21
-9.70976
  0
LINE
  8
0
 10
-7.83798
 20
-9.70976
 11
-9.10353
 21
-10.4055
  0
LINE
  8
0
 10
-9.10353
 20
-10.4055
 11
-10.4463
 21
-10.9371
  0
LINE
  8
0
 10
-10.4463
 20
-10.9371
 11
-11.8451
 21
-11.2963
  0
LINE
  8
0
 10
-11.8451
 20
-11.2963
 11
-13.2779
 21
-11.4773
  0
LINE
  8
0
 10
-13.2779
 20
-11.4773
 11
-14.7221
 21
-11.4773
  0
LINE
  8
0
 10
13.2779
 20
-11.4773
 11
11.8451
 21
-11.2963
  0
LINE
  8
0
 10
11.8451
 20
-11.2963
 11
10.4463
 21
-10.9371
  0
LINE
  8
0
 10
10.4463
 20
-10.9371
 11
9.10353
 21
-10.4055
  0
LINE
  8
0
 10
9.10353
 20
-10.4055
 11
7.83798
 21
-9.70976
  0
LINE
  8
0
 10
7.83798
 20
-9.70976
 11
6.66962
 21
-8.8609
  0
LINE
  8
0
 10
6.66962
 20
-8.8609
 11
5.61685
 21
-7.87228
  0
LINE
  8
0
 10
5.61685
 20
-7.87228
 11
4.6963
 21
-6.75952
  0
LINE
  8
0
 10
4.6963
 20
-6.75952
 11
3.92247
 21
-5.54016
  0
LINE
  8
0
 10
3.92247
 20
-5.54016
 11
3.30756
 21
-4.23343
  0
LINE
  8
0
 10
3.30756
 20
-4.23343
 11
2.86128
 21
-2.85992
  0
LINE
  8
0
 10
2.86128
 20
-2.85992
 11
2.59067
 21
-1.44133
  0
LINE
  8
0
 10
2.59067
 20
-1.44133
 11
2.5
 21
0
  0
LINE
  8
0
 10
2.5
 20
0
 11
2.59067
 21
1.44133
  0
LINE
  8
0
 10
2.59067
 20
1.44133
 11
2.86128
 21
2.85992
  0
LINE
  8
0
 10
2.86128
 20
2.85992
 11
3.30756
 21
4.23343
  0
LINE
  8
0
 10
3.30756
 20
4.23343
 11
3.92247
 21
5.54016
  0
LINE
  8
0
 10
3.92247
 20
5.54016
 11
4.6963
 21
6.75952
  0
LINE
  8
0
 10
4.6963
 20
6.75952
 11
5.61685
 21
7.87228
  0
LINE
  8
0
 10
5.61685
 20
7.87228
 11
6.66962
 21
8.8609
  0
LINE
  8
0
 10
6.66962
 20
8.8609
 11
7.83798
 21
9.70976
  0
LINE
  8
0
 10
7.83798
 20
9.70976
 11
9.10353
 21
10.4055
  0
LINE
  8
0
 10
9.10353
 20
10.4055
 11
10.4463
 21
10.9371
  0
LINE
  8
0
 10
10.4463
 20
10.9371
 11
11.8451
 21
11.2963
  0
LINE
  8
0
 10
11.8451
 20
11.2963
 11
13.2779
 21
11.4773
  0
LINE
  8
0
 10
13.2779
 20
11.4773
 11
14.7221
 21
11.4773
  0
LINE
  8
0
 10
14.7221
 20
11.4773
 11
16.1549
 21
11.2963
  0
LINE
  8
0
 10
16.1549
 20
11.2963
 11
17.5537
 21
10.9371
  0
LINE
  8
0
 10
17.5537
 20
10.9371
 11
18.8965
 21
10.4055
  0
LINE
  8
0
 10
18.8965
 20
10.4055
 11
20.162
 21
9.70976
  0
LINE
  8
0
 10
20.162
 20
9.70976
 11
20.3409
 21
9.57977
  0
LINE
  8
0
 10
20.3409
 20
9.57977
 11
20.5877
 21
9.81154
  0
LINE
  8
0
 10
20.5877
 20
9.81154
 11
20.8925
 21
10.033
  0
LINE
  8
0
 10
20.8925
 20
10.033
 11
21.2227
 21
10.2145
  0
LINE
  8
0
 10
21.2227
 20
10.2145
 11
21.5729
 21
10.3532
  0
LINE
  8
0
 10
21.5729
 20
10.3532
 11
21.9379
 21
10.4469
  0
LINE
  8
0
 10
21.9379
 20
10.4469
 11
22.3116
 21
10.4941
  0
LINE
  8
0
 10
22.3116
 20
10.4941
 11
22.6884
 21
10.4941
  0
LINE
  8
0
 10
22.6884
 20
10.4941
 11
23.0621
 21
10.4469
  0
LINE
  8
0
 10
23.0621
 20
10.4469
 11
23.427
 21
10.3532
  0
LINE
  8
0
 10
23.427
 20
10.3532
 11
23.7773
 21
10.2145
  0
LINE
  8
0
 10
23.7773
 20
10.2145
 11
24.1075
 21
10.033
  0
LINE
  8
0
 10
24.1075
 20
10.033
 11
24.4123
 21
9.81154
  0
LINE
  8
0
 10
24.4123
 20
9.81154
 11
24.6869
 21
9.55363
  0
LINE
  8
0
 10
24.6869
 20
9.55363
 11
24.927
 21
9.26335
  0
LINE
  8
0
 10
24.927
 20
9.26335
 11
25.1289
 21
8.94525
  0
LINE
  8
0
 10
25.1289
 20
8.94525
 11
25.2893
 21
8.60437
  0
LINE
  8
0
 10
25.2893
 20
8.60437
 11
25.4057
 21
8.24606
  0
LINE
  8
0
 10
25.4057
 20
8.24606
 11
25.4763
 21
7.87599
  0
LINE
  8
0
 10
25.4763
 20
7.87599
 11
25.5
 21
7.5
  0
LINE
  8
0
 10
25.5
 20
7.5
 11
25.4763
 21
7.12399
  0
LINE
  8
0
 10
25.4763
 20
7.12399
 11
25.4057
 21
6.75392
  0
LINE
  8
0
 10
25.4057
 20
6.75392
 11
25.2893
 21
6.39561
  0
LINE
  8
0
 10
25.2893
 20
6.39561
 11
25.1289
 21
6.05473
  0
LINE
  8
0
 10
25.1289
 20
6.05473
 11
24.927
 21
5.73663
  0
LINE
  8
0
 10
24.927
 20
5.73663
 11
24.6869
 21
5.44635
  0
LINE
  8
0
 10
24.6869
 20
5.44635
 11
24.4123
 21
5.18845
  0
LINE
  8
0
 10
24.4123
 20
5.18845
 11
24.2861
 21
5.09682
  0
LINE
  8
0
 10
24.2861
 20
5.09682
 11
24.6924
 21
4.23343
  0
LINE
  8
0
 10
24.6924
 20
4.23343
 11
25.1387
 21
2.85992
  0
LINE
  8
0
 10
25.1387
 20
2.85992
 11
25.4093
 21
1.44133
  0
LINE
  8
0
 10
25.4093
 20
1.44133
 11
25.5
 21
0
  0
LINE
  8
0
 10
25.5
 20
0
 11
25.4093
 21
-1.44133
  0
LINE
  8
0
 10
25.4093
 20
-1.44133
 11
25.1387
 21
-2.85992
  0
LINE
  8
0
 10
25.1387
 20
-2.85992
 11
24.6924
 21
-4.23343
  0
LINE
  8
0
 10
24.6924
 20
-4.23343
 11
24.2861
 21
-5.09682
  0
LINE
  8
0
 10
24.2861
 20
-5.09682
 11
24.4123
 21
-5.18845
  0
LINE
  8
0
 10
24.4123
 20
-5.18845
 11
24.6869
 21
-5.44635
  0
LINE
  8
0
 10
24.6869
 20
-5.44635
 11
24.927
 21
-5.73663
  0
LINE
  8
0
 10
24.927
 20
-5.73663
 11
25.1289
 21
-6.05473
  0
LINE
  8
0
 10
25.1289
 20
-6.05473
 11
25.2893
 21
-6.39561
  0
LINE
  8
0
 10
25.2893
 20
-6.39561
 11
25.4057
 21
-6.75392
  0
LINE
  8
0
 10
25.4057
 20
-6.75392
 11
25.4763
 21
-7.12399
  0
LINE
  8
0
 10
25.4763
 20
-7.12399
 11
25.5
 21
-7.5
  0
LINE
  8
0
 10
25.5
 20
-7.5
 11
25.4763
 21
-7.87599
  0
LINE
  8
0
 10
25.4763
 20
-7.87599
 11
25.4057
 21
-8.24606
  0
LINE
  8
0
 10
25.4057
 20
-8.24606
 11
25.2893
 21
-8.60437
  0
LINE
  8
0
 10
25.2893
 20
-8.60437
 11
25.1289
 21
-8.94525
  0
LINE
  8
0
 10
25.1289
 20
-8.94525
 11
24.927
 21
-9.26335
  0
LINE
  8
0
 10
24.927
 20
-9.26335
 11
24.6869
 21
-9.55363
  0
LINE
  8
0
 10
24.6869
 20
-9.55363
 11
24.4123
 21
-9.81154
  0
LINE
  8
0
 10
24.4123
 20
-9.81154
 11
24.1075
 21
-10.033
  0
LINE
  8
0
 10
24.1075
 20
-10.033
 11
23.7773
 21
-10.2145
  0
LINE
  8
0
 10
23.7773
 20
-10.2145
 11
23.427
 21
-10.3532
  0
LINE
  8
0
 10
23.427
 20
-10.3532
 11
23.0621
 21
-10.4469
  0
LINE
  8
0
 10
23.0621
 20
-10.4469
 11
22.6884
 21
-10.4941
  0
LINE
  8
0
 10
22.6884
 20
-10.4941
 11
22.3116
 21
-10.4941
  0
LINE
  8
0
 10
22.3116
 20
-10.4941
 11
21.9379
 21
-10.4469
  0
LINE
  8
0
 10
21.9379
 20
-10.4469
 11
21.5729
 21
-10.3532
  0
LINE
  8
0
 10
21.5729
 20
-10.3532
 11
21.2227
 21
-10.2145
  0
LINE
  8
0
 10
21.2227
 20
-10.2145
 11
20.8925
 21
-10.033
  0
LINE
  8
0
 10
20.8925
 20
-10.033
 11
20.5877
 21
-9.81154
  0
LINE
  8
0
 10
20.5877
 20
-9.81154
 11
20.3409
 21
-9.57977
  0
LINE
  8
0
 10
20.3409
 20
-9.57977
 11
20.162
 21
-9.70976
  0
LINE
  8
0
 10
20.162
 20
-9.70976
 11
18.8965
 21
-10.4055
  0
LINE
  8
0
 10
18.8965
 20
-10.4055
 11
17.5537
 21
-10.9371
  0
LINE
  8
0
 10
17.5537
 20
-10.9371
 11
16.1549
 21
-11.2963
  0
LINE
  8
0
 10
16.1549
 20
-11.2963
 11
14.7221
 21
-11.4773
  0
LINE
  8
0
 10
14.7221
 20
-11.4773
 11
13.2779
 21
-11.4773
  0
ENDSEC
  0
SECTION
  2
OBJECTS
  0
DICTIONARY
  0
ENDSEC
  0
EOF
