  0
SECTION
  2
BLOCKS
  0
ENDSEC
  0
SECTION
  2
ENTITIES
  0
LINE
  8
0
 10
130.437
 20
-36.9114
 11
131.045
 21
-36.7553
  0
LINE
  8
0
 10
131.045
 20
-36.7553
 11
131.629
 21
-36.5241
  0
LINE
  8
0
 10
131.629
 20
-36.5241
 11
132.179
 21
-36.2216
  0
LINE
  8
0
 10
132.179
 20
-36.2216
 11
132.687
 21
-35.8526
  0
LINE
  8
0
 10
132.687
 20
-35.8526
 11
133.145
 21
-35.4227
  0
LINE
  8
0
 10
133.145
 20
-35.4227
 11
133.545
 21
-34.9389
  0
LINE
  8
0
 10
133.545
 20
-34.9389
 11
133.882
 21
-34.4088
  0
LINE
  8
0
 10
133.882
 20
-34.4088
 11
134.149
 21
-33.8406
  0
LINE
  8
0
 10
134.149
 20
-33.8406
 11
134.343
 21
-33.2434
  0
LINE
  8
0
 10
134.343
 20
-33.2434
 11
134.461
 21
-32.6267
  0
LINE
  8
0
 10
134.461
 20
-32.6267
 11
134.5
 21
-32
  0
LINE
  8
0
 10
134.5
 20
-32
 11
134.5
 21
32
  0
LINE
  8
0
 10
134.5
 20
32
 11
134.461
 21
32.6267
  0
LINE
  8
0
 10
134.461
 20
32.6267
 11
134.343
 21
33.2434
  0
LINE
  8
0
 10
134.343
 20
33.2434
 11
134.149
 21
33.8406
  0
LINE
  8
0
 10
134.149
 20
33.8406
 11
133.882
 21
34.4088
  0
LINE
  8
0
 10
133.882
 20
34.4088
 11
133.545
 21
34.9389
  0
LINE
  8
0
 10
133.545
 20
34.9389
 11
133.145
 21
35.4227
  0
LINE
  8
0
 10
133.145
 20
35.4227
 11
132.687
 21
35.8526
  0
LINE
  8
0
 10
132.687
 20
35.8526
 11
132.179
 21
36.2216
  0
LINE
  8
0
 10
132.179
 20
36.2216
 11
131.629
 21
36.5241
  0
LINE
  8
0
 10
131.629
 20
36.5241
 11
131.045
 21
36.7553
  0
LINE
  8
0
 10
131.045
 20
36.7553
 11
130.437
 21
36.9114
  0
LINE
  8
0
 10
130.437
 20
36.9114
 11
129.814
 21
36.9901
  0
LINE
  8
0
 10
129.814
 20
36.9901
 11
-129.814
 21
36.9901
  0
LINE
  8
0
 10
-129.814
 20
36.9901
 11
-130.437
 21
36.9114
  0
LINE
  8
0
 10
-130.437
 20
36.9114
 11
-131.045
 21
36.7553
  0
LINE
  8
0
 10
-131.045
 20
36.7553
 11
-131.629
 21
36.5241
  0
LINE
  8
0
 10
-131.629
 20
36.5241
 11
-132.179
 21
36.2216
  0
LINE
  8
0
 10
-132.179
 20
36.2216
 11
-132.687
 21
35.8526
  0
LINE
  8
0
 10
-132.687
 20
35.8526
 11
-133.145
 21
35.4227
  0
LINE
  8
0
 10
-133.145
 20
35.4227
 11
-133.545
 21
34.9389
  0
LINE
  8
0
 10
-133.545
 20
34.9389
 11
-133.882
 21
34.4088
  0
LINE
  8
0
 10
-133.882
 20
34.4088
 11
-134.149
 21
33.8406
  0
LINE
  8
0
 10
-134.149
 20
33.8406
 11
-134.343
 21
33.2434
  0
LINE
  8
0
 10
-134.343
 20
33.2434
 11
-134.461
 21
32.6267
  0
LINE
  8
0
 10
-134.461
 20
32.6267
 11
-134.5
 21
32
  0
LINE
  8
0
 10
-134.5
 20
32
 11
-134.5
 21
-32
  0
LINE
  8
0
 10
-134.5
 20
-32
 11
-134.461
 21
-32.6267
  0
LINE
  8
0
 10
-134.461
 20
-32.6267
 11
-134.343
 21
-33.2434
  0
LINE
  8
0
 10
-134.343
 20
-33.2434
 11
-134.149
 21
-33.8406
  0
LINE
  8
0
 10
-134.149
 20
-33.8406
 11
-133.882
 21
-34.4088
  0
LINE
  8
0
 10
-133.882
 20
-34.4088
 11
-133.545
 21
-34.9389
  0
LINE
  8
0
 10
-133.545
 20
-34.9389
 11
-133.145
 21
-35.4227
  0
LINE
  8
0
 10
-133.145
 20
-35.4227
 11
-132.687
 21
-35.8526
  0
LINE
  8
0
 10
-132.687
 20
-35.8526
 11
-132.179
 21
-36.2216
  0
LINE
  8
0
 10
-132.179
 20
-36.2216
 11
-131.629
 21
-36.5241
  0
LINE
  8
0
 10
-131.629
 20
-36.5241
 11
-131.045
 21
-36.7553
  0
LINE
  8
0
 10
-131.045
 20
-36.7553
 11
-130.437
 21
-36.9114
  0
LINE
  8
0
 10
-130.437
 20
-36.9114
 11
-129.814
 21
-36.9901
  0
LINE
  8
0
 10
-129.814
 20
-36.9901
 11
129.814
 21
-36.9901
  0
LINE
  8
0
 10
129.814
 20
-36.9901
 11
130.437
 21
-36.9114
  0
LINE
  8
0
 10
127.312
 20
27.0059
 11
126.938
 21
27.0531
  0
LINE
  8
0
 10
126.938
 20
27.0531
 11
126.573
 21
27.1468
  0
LINE
  8
0
 10
126.573
 20
27.1468
 11
126.223
 21
27.2855
  0
LINE
  8
0
 10
126.223
 20
27.2855
 11
125.893
 21
27.467
  0
LINE
  8
0
 10
125.893
 20
27.467
 11
125.588
 21
27.6884
  0
LINE
  8
0
 10
125.588
 20
27.6884
 11
125.313
 21
27.9464
  0
LINE
  8
0
 10
125.313
 20
27.9464
 11
125.073
 21
28.2366
  0
LINE
  8
0
 10
125.073
 20
28.2366
 11
124.871
 21
28.5547
  0
LINE
  8
0
 10
124.871
 20
28.5547
 11
124.711
 21
28.8956
  0
LINE
  8
0
 10
124.711
 20
28.8956
 11
124.594
 21
29.2539
  0
LINE
  8
0
 10
124.594
 20
29.2539
 11
124.524
 21
29.624
  0
LINE
  8
0
 10
124.524
 20
29.624
 11
124.5
 21
30
  0
LINE
  8
0
 10
124.5
 20
30
 11
124.524
 21
30.376
  0
LINE
  8
0
 10
124.524
 20
30.376
 11
124.594
 21
30.7461
  0
LINE
  8
0
 10
124.594
 20
30.7461
 11
124.711
 21
31.1044
  0
LINE
  8
0
 10
124.711
 20
31.1044
 11
124.871
 21
31.4453
  0
LINE
  8
0
 10
124.871
 20
31.4453
 11
125.073
 21
31.7634
  0
LINE
  8
0
 10
125.073
 20
31.7634
 11
125.313
 21
32.0536
  0
LINE
  8
0
 10
125.313
 20
32.0536
 11
125.588
 21
32.3115
  0
LINE
  8
0
 10
125.588
 20
32.3115
 11
125.893
 21
32.533
  0
LINE
  8
0
 10
125.893
 20
32.533
 11
126.223
 21
32.7145
  0
LINE
  8
0
 10
126.223
 20
32.7145
 11
126.573
 21
32.8532
  0
LINE
  8
0
 10
126.573
 20
32.8532
 11
126.938
 21
32.9469
  0
LINE
  8
0
 10
126.938
 20
32.9469
 11
127.312
 21
32.9941
  0
LINE
  8
0
 10
127.312
 20
32.9941
 11
127.688
 21
32.9941
  0
LINE
  8
0
 10
127.688
 20
32.9941
 11
128.062
 21
32.9469
  0
LINE
  8
0
 10
128.062
 20
32.9469
 11
128.427
 21
32.8532
  0
LINE
  8
0
 10
128.427
 20
32.8532
 11
128.777
 21
32.7145
  0
LINE
  8
0
 10
128.777
 20
32.7145
 11
129.107
 21
32.533
  0
LINE
  8
0
 10
129.107
 20
32.533
 11
129.412
 21
32.3115
  0
LINE
  8
0
 10
129.412
 20
32.3115
 11
129.687
 21
32.0536
  0
LINE
  8
0
 10
129.687
 20
32.0536
 11
129.927
 21
31.7634
  0
LINE
  8
0
 10
129.927
 20
31.7634
 11
130.129
 21
31.4453
  0
LINE
  8
0
 10
130.129
 20
31.4453
 11
130.289
 21
31.1044
  0
LINE
  8
0
 10
130.289
 20
31.1044
 11
130.406
 21
30.7461
  0
LINE
  8
0
 10
130.406
 20
30.7461
 11
130.476
 21
30.376
  0
LINE
  8
0
 10
130.476
 20
30.376
 11
130.5
 21
30
  0
LINE
  8
0
 10
130.5
 20
30
 11
130.476
 21
29.624
  0
LINE
  8
0
 10
130.476
 20
29.624
 11
130.406
 21
29.2539
  0
LINE
  8
0
 10
130.406
 20
29.2539
 11
130.289
 21
28.8956
  0
LINE
  8
0
 10
130.289
 20
28.8956
 11
130.129
 21
28.5547
  0
LINE
  8
0
 10
130.129
 20
28.5547
 11
129.927
 21
28.2366
  0
LINE
  8
0
 10
129.927
 20
28.2366
 11
129.687
 21
27.9464
  0
LINE
  8
0
 10
129.687
 20
27.9464
 11
129.412
 21
27.6884
  0
LINE
  8
0
 10
129.412
 20
27.6884
 11
129.107
 21
27.467
  0
LINE
  8
0
 10
129.107
 20
27.467
 11
128.777
 21
27.2855
  0
LINE
  8
0
 10
128.777
 20
27.2855
 11
128.427
 21
27.1468
  0
LINE
  8
0
 10
128.427
 20
27.1468
 11
128.062
 21
27.0531
  0
LINE
  8
0
 10
128.062
 20
27.0531
 11
127.688
 21
27.0059
  0
LINE
  8
0
 10
127.688
 20
27.0059
 11
127.312
 21
27.0059
  0
LINE
  8
0
 10
-127.688
 20
27.0059
 11
-128.062
 21
27.0531
  0
LINE
  8
0
 10
-128.062
 20
27.0531
 11
-128.427
 21
27.1468
  0
LINE
  8
0
 10
-128.427
 20
27.1468
 11
-128.777
 21
27.2855
  0
LINE
  8
0
 10
-128.777
 20
27.2855
 11
-129.107
 21
27.467
  0
LINE
  8
0
 10
-129.107
 20
27.467
 11
-129.412
 21
27.6884
  0
LINE
  8
0
 10
-129.412
 20
27.6884
 11
-129.687
 21
27.9464
  0
LINE
  8
0
 10
-129.687
 20
27.9464
 11
-129.927
 21
28.2366
  0
LINE
  8
0
 10
-129.927
 20
28.2366
 11
-130.129
 21
28.5547
  0
LINE
  8
0
 10
-130.129
 20
28.5547
 11
-130.289
 21
28.8956
  0
LINE
  8
0
 10
-130.289
 20
28.8956
 11
-130.406
 21
29.2539
  0
LINE
  8
0
 10
-130.406
 20
29.2539
 11
-130.476
 21
29.624
  0
LINE
  8
0
 10
-130.476
 20
29.624
 11
-130.5
 21
30
  0
LINE
  8
0
 10
-130.5
 20
30
 11
-130.476
 21
30.376
  0
LINE
  8
0
 10
-130.476
 20
30.376
 11
-130.406
 21
30.7461
  0
LINE
  8
0
 10
-130.406
 20
30.7461
 11
-130.289
 21
31.1044
  0
LINE
  8
0
 10
-130.289
 20
31.1044
 11
-130.129
 21
31.4453
  0
LINE
  8
0
 10
-130.129
 20
31.4453
 11
-129.927
 21
31.7634
  0
LINE
  8
0
 10
-129.927
 20
31.7634
 11
-129.687
 21
32.0536
  0
LINE
  8
0
 10
-129.687
 20
32.0536
 11
-129.412
 21
32.3115
  0
LINE
  8
0
 10
-129.412
 20
32.3115
 11
-129.107
 21
32.533
  0
LINE
  8
0
 10
-129.107
 20
32.533
 11
-128.777
 21
32.7145
  0
LINE
  8
0
 10
-128.777
 20
32.7145
 11
-128.427
 21
32.8532
  0
LINE
  8
0
 10
-128.427
 20
32.8532
 11
-128.062
 21
32.9469
  0
LINE
  8
0
 10
-128.062
 20
32.9469
 11
-127.688
 21
32.9941
  0
LINE
  8
0
 10
-127.688
 20
32.9941
 11
-127.312
 21
32.9941
  0
LINE
  8
0
 10
-127.312
 20
32.9941
 11
-126.938
 21
32.9469
  0
LINE
  8
0
 10
-126.938
 20
32.9469
 11
-126.573
 21
32.8532
  0
LINE
  8
0
 10
-126.573
 20
32.8532
 11
-126.223
 21
32.7145
  0
LINE
  8
0
 10
-126.223
 20
32.7145
 11
-125.893
 21
32.533
  0
LINE
  8
0
 10
-125.893
 20
32.533
 11
-125.588
 21
32.3115
  0
LINE
  8
0
 10
-125.588
 20
32.3115
 11
-125.313
 21
32.0536
  0
LINE
  8
0
 10
-125.313
 20
32.0536
 11
-125.073
 21
31.7634
  0
LINE
  8
0
 10
-125.073
 20
31.7634
 11
-124.871
 21
31.4453
  0
LINE
  8
0
 10
-124.871
 20
31.4453
 11
-124.711
 21
31.1044
  0
LINE
  8
0
 10
-124.711
 20
31.1044
 11
-124.594
 21
30.7461
  0
LINE
  8
0
 10
-124.594
 20
30.7461
 11
-124.524
 21
30.376
  0
LINE
  8
0
 10
-124.524
 20
30.376
 11
-124.5
 21
30
  0
LINE
  8
0
 10
-124.5
 20
30
 11
-124.524
 21
29.624
  0
LINE
  8
0
 10
-124.524
 20
29.624
 11
-124.594
 21
29.2539
  0
LINE
  8
0
 10
-124.594
 20
29.2539
 11
-124.711
 21
28.8956
  0
LINE
  8
0
 10
-124.711
 20
28.8956
 11
-124.871
 21
28.5547
  0
LINE
  8
0
 10
-124.871
 20
28.5547
 11
-125.073
 21
28.2366
  0
LINE
  8
0
 10
-125.073
 20
28.2366
 11
-125.313
 21
27.9464
  0
LINE
  8
0
 10
-125.313
 20
27.9464
 11
-125.588
 21
27.6884
  0
LINE
  8
0
 10
-125.588
 20
27.6884
 11
-125.893
 21
27.467
  0
LINE
  8
0
 10
-125.893
 20
27.467
 11
-126.223
 21
27.2855
  0
LINE
  8
0
 10
-126.223
 20
27.2855
 11
-126.573
 21
27.1468
  0
LINE
  8
0
 10
-126.573
 20
27.1468
 11
-126.938
 21
27.0531
  0
LINE
  8
0
 10
-126.938
 20
27.0531
 11
-127.312
 21
27.0059
  0
LINE
  8
0
 10
-127.312
 20
27.0059
 11
-127.688
 21
27.0059
  0
LINE
  8
0
 10
98.5535
 20
-30.9388
 11
94.6912
 21
-30.4509
  0
LINE
  8
0
 10
94.6912
 20
-30.4509
 11
90.9205
 21
-29.4827
  0
LINE
  8
0
 10
90.9205
 20
-29.4827
 11
87.3008
 21
-28.0496
  0
LINE
  8
0
 10
87.3008
 20
-28.0496
 11
83.8894
 21
-26.1742
  0
LINE
  8
0
 10
83.8894
 20
-26.1742
 11
80.7399
 21
-23.8859
  0
LINE
  8
0
 10
80.7399
 20
-23.8859
 11
77.902
 21
-21.2209
  0
LINE
  8
0
 10
77.902
 20
-21.2209
 11
75.4205
 21
-18.2213
  0
LINE
  8
0
 10
75.4205
 20
-18.2213
 11
73.3345
 21
-14.9344
  0
LINE
  8
0
 10
73.3345
 20
-14.9344
 11
71.6769
 21
-11.4118
  0
LINE
  8
0
 10
71.6769
 20
-11.4118
 11
70.4739
 21
-7.70938
  0
LINE
  8
0
 10
70.4739
 20
-7.70938
 11
69.7444
 21
-3.88533
  0
LINE
  8
0
 10
69.7444
 20
-3.88533
 11
69.5
 21
0
  0
LINE
  8
0
 10
69.5
 20
0
 11
69.7444
 21
3.88533
  0
LINE
  8
0
 10
69.7444
 20
3.88533
 11
70.4739
 21
7.70938
  0
LINE
  8
0
 10
70.4739
 20
7.70938
 11
71.6769
 21
11.4118
  0
LINE
  8
0
 10
71.6769
 20
11.4118
 11
73.3345
 21
14.9344
  0
LINE
  8
0
 10
73.3345
 20
14.9344
 11
75.4205
 21
18.2213
  0
LINE
  8
0
 10
75.4205
 20
18.2213
 11
77.902
 21
21.2209
  0
LINE
  8
0
 10
77.902
 20
21.2209
 11
80.7399
 21
23.8859
  0
LINE
  8
0
 10
80.7399
 20
23.8859
 11
83.8894
 21
26.1742
  0
LINE
  8
0
 10
83.8894
 20
26.1742
 11
87.3008
 21
28.0496
  0
LINE
  8
0
 10
87.3008
 20
28.0496
 11
90.9205
 21
29.4827
  0
LINE
  8
0
 10
90.9205
 20
29.4827
 11
94.6912
 21
30.4509
  0
LINE
  8
0
 10
94.6912
 20
30.4509
 11
98.5535
 21
30.9388
  0
LINE
  8
0
 10
98.5535
 20
30.9388
 11
102.447
 21
30.9388
  0
LINE
  8
0
 10
102.447
 20
30.9388
 11
106.309
 21
30.4509
  0
LINE
  8
0
 10
106.309
 20
30.4509
 11
110.08
 21
29.4827
  0
LINE
  8
0
 10
110.08
 20
29.4827
 11
113.699
 21
28.0496
  0
LINE
  8
0
 10
113.699
 20
28.0496
 11
117.111
 21
26.1742
  0
LINE
  8
0
 10
117.111
 20
26.1742
 11
120.26
 21
23.8859
  0
LINE
  8
0
 10
120.26
 20
23.8859
 11
123.098
 21
21.2209
  0
LINE
  8
0
 10
123.098
 20
21.2209
 11
125.58
 21
18.2213
  0
LINE
  8
0
 10
125.58
 20
18.2213
 11
127.665
 21
14.9344
  0
LINE
  8
0
 10
127.665
 20
14.9344
 11
129.323
 21
11.4118
  0
LINE
  8
0
 10
129.323
 20
11.4118
 11
130.526
 21
7.70938
  0
LINE
  8
0
 10
130.526
 20
7.70938
 11
131.256
 21
3.88533
  0
LINE
  8
0
 10
131.256
 20
3.88533
 11
131.5
 21
0
  0
LINE
  8
0
 10
131.5
 20
0
 11
131.256
 21
-3.88533
  0
LINE
  8
0
 10
131.256
 20
-3.88533
 11
130.526
 21
-7.70938
  0
LINE
  8
0
 10
130.526
 20
-7.70938
 11
129.323
 21
-11.4118
  0
LINE
  8
0
 10
129.323
 20
-11.4118
 11
127.665
 21
-14.9344
  0
LINE
  8
0
 10
127.665
 20
-14.9344
 11
125.58
 21
-18.2213
  0
LINE
  8
0
 10
125.58
 20
-18.2213
 11
123.098
 21
-21.2209
  0
LINE
  8
0
 10
123.098
 20
-21.2209
 11
120.26
 21
-23.8859
  0
LINE
  8
0
 10
120.26
 20
-23.8859
 11
117.111
 21
-26.1742
  0
LINE
  8
0
 10
117.111
 20
-26.1742
 11
113.699
 21
-28.0496
  0
LINE
  8
0
 10
113.699
 20
-28.0496
 11
110.08
 21
-29.4827
  0
LINE
  8
0
 10
110.08
 20
-29.4827
 11
106.309
 21
-30.4509
  0
LINE
  8
0
 10
106.309
 20
-30.4509
 11
102.447
 21
-30.9388
  0
LINE
  8
0
 10
102.447
 20
-30.9388
 11
98.5535
 21
-30.9388
  0
LINE
  8
0
 10
31.5535
 20
-30.9388
 11
27.6912
 21
-30.4509
  0
LINE
  8
0
 10
27.6912
 20
-30.4509
 11
23.9205
 21
-29.4827
  0
LINE
  8
0
 10
23.9205
 20
-29.4827
 11
20.3008
 21
-28.0496
  0
LINE
  8
0
 10
20.3008
 20
-28.0496
 11
16.8894
 21
-26.1742
  0
LINE
  8
0
 10
16.8894
 20
-26.1742
 11
13.7399
 21
-23.8859
  0
LINE
  8
0
 10
13.7399
 20
-23.8859
 11
10.902
 21
-21.2209
  0
LINE
  8
0
 10
10.902
 20
-21.2209
 11
8.42047
 21
-18.2213
  0
LINE
  8
0
 10
8.42047
 20
-18.2213
 11
6.33449
 21
-14.9344
  0
LINE
  8
0
 10
6.33449
 20
-14.9344
 11
4.67693
 21
-11.4118
  0
LINE
  8
0
 10
4.67693
 20
-11.4118
 11
3.47391
 21
-7.70938
  0
LINE
  8
0
 10
3.47391
 20
-7.70938
 11
2.74443
 21
-3.88533
  0
LINE
  8
0
 10
2.74443
 20
-3.88533
 11
2.5
 21
0
  0
LINE
  8
0
 10
2.5
 20
0
 11
2.74443
 21
3.88533
  0
LINE
  8
0
 10
2.74443
 20
3.88533
 11
3.47391
 21
7.70938
  0
LINE
  8
0
 10
3.47391
 20
7.70938
 11
4.67693
 21
11.4118
  0
LINE
  8
0
 10
4.67693
 20
11.4118
 11
6.33449
 21
14.9344
  0
LINE
  8
0
 10
6.33449
 20
14.9344
 11
8.42047
 21
18.2213
  0
LINE
  8
0
 10
8.42047
 20
18.2213
 11
10.902
 21
21.2209
  0
LINE
  8
0
 10
10.902
 20
21.2209
 11
13.7399
 21
23.8859
  0
LINE
  8
0
 10
13.7399
 20
23.8859
 11
16.8894
 21
26.1742
  0
LINE
  8
0
 10
16.8894
 20
26.1742
 11
20.3008
 21
28.0496
  0
LINE
  8
0
 10
20.3008
 20
28.0496
 11
23.9205
 21
29.4827
  0
LINE
  8
0
 10
23.9205
 20
29.4827
 11
27.6912
 21
30.4509
  0
LINE
  8
0
 10
27.6912
 20
30.4509
 11
31.5535
 21
30.9388
  0
LINE
  8
0
 10
31.5535
 20
30.9388
 11
35.4465
 21
30.9388
  0
LINE
  8
0
 10
35.4465
 20
30.9388
 11
39.3088
 21
30.4509
  0
LINE
  8
0
 10
39.3088
 20
30.4509
 11
43.0795
 21
29.4827
  0
LINE
  8
0
 10
43.0795
 20
29.4827
 11
46.6992
 21
28.0496
  0
LINE
  8
0
 10
46.6992
 20
28.0496
 11
50.1106
 21
26.1742
  0
LINE
  8
0
 10
50.1106
 20
26.1742
 11
53.2601
 21
23.8859
  0
LINE
  8
0
 10
53.2601
 20
23.8859
 11
56.098
 21
21.2209
  0
LINE
  8
0
 10
56.098
 20
21.2209
 11
58.5795
 21
18.2213
  0
LINE
  8
0
 10
58.5795
 20
18.2213
 11
60.6655
 21
14.9344
  0
LINE
  8
0
 10
60.6655
 20
14.9344
 11
62.3231
 21
11.4118
  0
LINE
  8
0
 10
62.3231
 20
11.4118
 11
63.5261
 21
7.70938
  0
LINE
  8
0
 10
63.5261
 20
7.70938
 11
64.2556
 21
3.88533
  0
LINE
  8
0
 10
64.2556
 20
3.88533
 11
64.5
 21
0
  0
LINE
  8
0
 10
64.5
 20
0
 11
64.2556
 21
-3.88533
  0
LINE
  8
0
 10
64.2556
 20
-3.88533
 11
63.5261
 21
-7.70938
  0
LINE
  8
0
 10
63.5261
 20
-7.70938
 11
62.3231
 21
-11.4118
  0
LINE
  8
0
 10
62.3231
 20
-11.4118
 11
60.6655
 21
-14.9344
  0
LINE
  8
0
 10
60.6655
 20
-14.9344
 11
58.5795
 21
-18.2213
  0
LINE
  8
0
 10
58.5795
 20
-18.2213
 11
56.098
 21
-21.2209
  0
LINE
  8
0
 10
56.098
 20
-21.2209
 11
53.2601
 21
-23.8859
  0
LINE
  8
0
 10
53.2601
 20
-23.8859
 11
50.1106
 21
-26.1742
  0
LINE
  8
0
 10
50.1106
 20
-26.1742
 11
46.6992
 21
-28.0496
  0
LINE
  8
0
 10
46.6992
 20
-28.0496
 11
43.0795
 21
-29.4827
  0
LINE
  8
0
 10
43.0795
 20
-29.4827
 11
39.3088
 21
-30.4509
  0
LINE
  8
0
 10
39.3088
 20
-30.4509
 11
35.4465
 21
-30.9388
  0
LINE
  8
0
 10
35.4465
 20
-30.9388
 11
31.5535
 21
-30.9388
  0
LINE
  8
0
 10
-102.447
 20
-30.9388
 11
-106.309
 21
-30.4509
  0
LINE
  8
0
 10
-106.309
 20
-30.4509
 11
-110.08
 21
-29.4827
  0
LINE
  8
0
 10
-110.08
 20
-29.4827
 11
-113.699
 21
-28.0496
  0
LINE
  8
0
 10
-113.699
 20
-28.0496
 11
-117.111
 21
-26.1742
  0
LINE
  8
0
 10
-117.111
 20
-26.1742
 11
-120.26
 21
-23.8859
  0
LINE
  8
0
 10
-120.26
 20
-23.8859
 11
-123.098
 21
-21.2209
  0
LINE
  8
0
 10
-123.098
 20
-21.2209
 11
-125.58
 21
-18.2213
  0
LINE
  8
0
 10
-125.58
 20
-18.2213
 11
-127.665
 21
-14.9344
  0
LINE
  8
0
 10
-127.665
 20
-14.9344
 11
-129.323
 21
-11.4118
  0
LINE
  8
0
 10
-129.323
 20
-11.4118
 11
-130.526
 21
-7.70938
  0
LINE
  8
0
 10
-130.526
 20
-7.70938
 11
-131.256
 21
-3.88533
  0
LINE
  8
0
 10
-131.256
 20
-3.88533
 11
-131.5
 21
0
  0
LINE
  8
0
 10
-131.5
 20
0
 11
-131.256
 21
3.88533
  0
LINE
  8
0
 10
-131.256
 20
3.88533
 11
-130.526
 21
7.70938
  0
LINE
  8
0
 10
-130.526
 20
7.70938
 11
-129.323
 21
11.4118
  0
LINE
  8
0
 10
-129.323
 20
11.4118
 11
-127.665
 21
14.9344
  0
LINE
  8
0
 10
-127.665
 20
14.9344
 11
-125.58
 21
18.2213
  0
LINE
  8
0
 10
-125.58
 20
18.2213
 11
-123.098
 21
21.2209
  0
LINE
  8
0
 10
-123.098
 20
21.2209
 11
-120.26
 21
23.8859
  0
LINE
  8
0
 10
-120.26
 20
23.8859
 11
-117.111
 21
26.1742
  0
LINE
  8
0
 10
-117.111
 20
26.1742
 11
-113.699
 21
28.0496
  0
LINE
  8
0
 10
-113.699
 20
28.0496
 11
-110.08
 21
29.4827
  0
LINE
  8
0
 10
-110.08
 20
29.4827
 11
-106.309
 21
30.4509
  0
LINE
  8
0
 10
-106.309
 20
30.4509
 11
-102.447
 21
30.9388
  0
LINE
  8
0
 10
-102.447
 20
30.9388
 11
-98.5535
 21
30.9388
  0
LINE
  8
0
 10
-98.5535
 20
30.9388
 11
-94.6912
 21
30.4509
  0
LINE
  8
0
 10
-94.6912
 20
30.4509
 11
-90.9205
 21
29.4827
  0
LINE
  8
0
 10
-90.9205
 20
29.4827
 11
-87.3008
 21
28.0496
  0
LINE
  8
0
 10
-87.3008
 20
28.0496
 11
-83.8894
 21
26.1742
  0
LINE
  8
0
 10
-83.8894
 20
26.1742
 11
-80.7399
 21
23.8859
  0
LINE
  8
0
 10
-80.7399
 20
23.8859
 11
-77.902
 21
21.2209
  0
LINE
  8
0
 10
-77.902
 20
21.2209
 11
-75.4205
 21
18.2213
  0
LINE
  8
0
 10
-75.4205
 20
18.2213
 11
-73.3345
 21
14.9344
  0
LINE
  8
0
 10
-73.3345
 20
14.9344
 11
-71.6769
 21
11.4118
  0
LINE
  8
0
 10
-71.6769
 20
11.4118
 11
-70.4739
 21
7.70938
  0
LINE
  8
0
 10
-70.4739
 20
7.70938
 11
-69.7444
 21
3.88533
  0
LINE
  8
0
 10
-69.7444
 20
3.88533
 11
-69.5
 21
0
  0
LINE
  8
0
 10
-69.5
 20
0
 11
-69.7444
 21
-3.88533
  0
LINE
  8
0
 10
-69.7444
 20
-3.88533
 11
-70.4739
 21
-7.70938
  0
LINE
  8
0
 10
-70.4739
 20
-7.70938
 11
-71.6769
 21
-11.4118
  0
LINE
  8
0
 10
-71.6769
 20
-11.4118
 11
-73.3345
 21
-14.9344
  0
LINE
  8
0
 10
-73.3345
 20
-14.9344
 11
-75.4205
 21
-18.2213
  0
LINE
  8
0
 10
-75.4205
 20
-18.2213
 11
-77.902
 21
-21.2209
  0
LINE
  8
0
 10
-77.902
 20
-21.2209
 11
-80.7399
 21
-23.8859
  0
LINE
  8
0
 10
-80.7399
 20
-23.8859
 11
-83.8894
 21
-26.1742
  0
LINE
  8
0
 10
-83.8894
 20
-26.1742
 11
-87.3008
 21
-28.0496
  0
LINE
  8
0
 10
-87.3008
 20
-28.0496
 11
-90.9205
 21
-29.4827
  0
LINE
  8
0
 10
-90.9205
 20
-29.4827
 11
-94.6912
 21
-30.4509
  0
LINE
  8
0
 10
-94.6912
 20
-30.4509
 11
-98.5535
 21
-30.9388
  0
LINE
  8
0
 10
-98.5535
 20
-30.9388
 11
-102.447
 21
-30.9388
  0
LINE
  8
0
 10
-35.4465
 20
-30.9388
 11
-39.3088
 21
-30.4509
  0
LINE
  8
0
 10
-39.3088
 20
-30.4509
 11
-43.0795
 21
-29.4827
  0
LINE
  8
0
 10
-43.0795
 20
-29.4827
 11
-46.6992
 21
-28.0496
  0
LINE
  8
0
 10
-46.6992
 20
-28.0496
 11
-50.1106
 21
-26.1742
  0
LINE
  8
0
 10
-50.1106
 20
-26.1742
 11
-53.2601
 21
-23.8859
  0
LINE
  8
0
 10
-53.2601
 20
-23.8859
 11
-56.098
 21
-21.2209
  0
LINE
  8
0
 10
-56.098
 20
-21.2209
 11
-58.5795
 21
-18.2213
  0
LINE
  8
0
 10
-58.5795
 20
-18.2213
 11
-60.6655
 21
-14.9344
  0
LINE
  8
0
 10
-60.6655
 20
-14.9344
 11
-62.3231
 21
-11.4118
  0
LINE
  8
0
 10
-62.3231
 20
-11.4118
 11
-63.5261
 21
-7.70938
  0
LINE
  8
0
 10
-63.5261
 20
-7.70938
 11
-64.2556
 21
-3.88533
  0
LINE
  8
0
 10
-64.2556
 20
-3.88533
 11
-64.5
 21
0
  0
LINE
  8
0
 10
-64.5
 20
0
 11
-64.2556
 21
3.88533
  0
LINE
  8
0
 10
-64.2556
 20
3.88533
 11
-63.5261
 21
7.70938
  0
LINE
  8
0
 10
-63.5261
 20
7.70938
 11
-62.3231
 21
11.4118
  0
LINE
  8
0
 10
-62.3231
 20
11.4118
 11
-60.6655
 21
14.9344
  0
LINE
  8
0
 10
-60.6655
 20
14.9344
 11
-58.5795
 21
18.2213
  0
LINE
  8
0
 10
-58.5795
 20
18.2213
 11
-56.098
 21
21.2209
  0
LINE
  8
0
 10
-56.098
 20
21.2209
 11
-53.2601
 21
23.8859
  0
LINE
  8
0
 10
-53.2601
 20
23.8859
 11
-50.1106
 21
26.1742
  0
LINE
  8
0
 10
-50.1106
 20
26.1742
 11
-46.6992
 21
28.0496
  0
LINE
  8
0
 10
-46.6992
 20
28.0496
 11
-43.0795
 21
29.4827
  0
LINE
  8
0
 10
-43.0795
 20
29.4827
 11
-39.3088
 21
30.4509
  0
LINE
  8
0
 10
-39.3088
 20
30.4509
 11
-35.4465
 21
30.9388
  0
LINE
  8
0
 10
-35.4465
 20
30.9388
 11
-31.5535
 21
30.9388
  0
LINE
  8
0
 10
-31.5535
 20
30.9388
 11
-27.6912
 21
30.4509
  0
LINE
  8
0
 10
-27.6912
 20
30.4509
 11
-23.9205
 21
29.4827
  0
LINE
  8
0
 10
-23.9205
 20
29.4827
 11
-20.3008
 21
28.0496
  0
LINE
  8
0
 10
-20.3008
 20
28.0496
 11
-16.8894
 21
26.1742
  0
LINE
  8
0
 10
-16.8894
 20
26.1742
 11
-13.7399
 21
23.8859
  0
LINE
  8
0
 10
-13.7399
 20
23.8859
 11
-10.902
 21
21.2209
  0
LINE
  8
0
 10
-10.902
 20
21.2209
 11
-8.42047
 21
18.2213
  0
LINE
  8
0
 10
-8.42047
 20
18.2213
 11
-6.33449
 21
14.9344
  0
LINE
  8
0
 10
-6.33449
 20
14.9344
 11
-4.67693
 21
11.4118
  0
LINE
  8
0
 10
-4.67693
 20
11.4118
 11
-3.47391
 21
7.70938
  0
LINE
  8
0
 10
-3.47391
 20
7.70938
 11
-2.74443
 21
3.88533
  0
LINE
  8
0
 10
-2.74443
 20
3.88533
 11
-2.5
 21
0
  0
LINE
  8
0
 10
-2.5
 20
0
 11
-2.74443
 21
-3.88533
  0
LINE
  8
0
 10
-2.74443
 20
-3.88533
 11
-3.47391
 21
-7.70938
  0
LINE
  8
0
 10
-3.47391
 20
-7.70938
 11
-4.67693
 21
-11.4118
  0
LINE
  8
0
 10
-4.67693
 20
-11.4118
 11
-6.33449
 21
-14.9344
  0
LINE
  8
0
 10
-6.33449
 20
-14.9344
 11
-8.42047
 21
-18.2213
  0
LINE
  8
0
 10
-8.42047
 20
-18.2213
 11
-10.902
 21
-21.2209
  0
LINE
  8
0
 10
-10.902
 20
-21.2209
 11
-13.7399
 21
-23.8859
  0
LINE
  8
0
 10
-13.7399
 20
-23.8859
 11
-16.8894
 21
-26.1742
  0
LINE
  8
0
 10
-16.8894
 20
-26.1742
 11
-20.3008
 21
-28.0496
  0
LINE
  8
0
 10
-20.3008
 20
-28.0496
 11
-23.9205
 21
-29.4827
  0
LINE
  8
0
 10
-23.9205
 20
-29.4827
 11
-27.6912
 21
-30.4509
  0
LINE
  8
0
 10
-27.6912
 20
-30.4509
 11
-31.5535
 21
-30.9388
  0
LINE
  8
0
 10
-31.5535
 20
-30.9388
 11
-35.4465
 21
-30.9388
  0
LINE
  8
0
 10
127.312
 20
-32.9941
 11
126.938
 21
-32.9469
  0
LINE
  8
0
 10
126.938
 20
-32.9469
 11
126.573
 21
-32.8532
  0
LINE
  8
0
 10
126.573
 20
-32.8532
 11
126.223
 21
-32.7145
  0
LINE
  8
0
 10
126.223
 20
-32.7145
 11
125.893
 21
-32.533
  0
LINE
  8
0
 10
125.893
 20
-32.533
 11
125.588
 21
-32.3115
  0
LINE
  8
0
 10
125.588
 20
-32.3115
 11
125.313
 21
-32.0536
  0
LINE
  8
0
 10
125.313
 20
-32.0536
 11
125.073
 21
-31.7634
  0
LINE
  8
0
 10
125.073
 20
-31.7634
 11
124.871
 21
-31.4453
  0
LINE
  8
0
 10
124.871
 20
-31.4453
 11
124.711
 21
-31.1044
  0
LINE
  8
0
 10
124.711
 20
-31.1044
 11
124.594
 21
-30.7461
  0
LINE
  8
0
 10
124.594
 20
-30.7461
 11
124.524
 21
-30.376
  0
LINE
  8
0
 10
124.524
 20
-30.376
 11
124.5
 21
-30
  0
LINE
  8
0
 10
124.5
 20
-30
 11
124.524
 21
-29.624
  0
LINE
  8
0
 10
124.524
 20
-29.624
 11
124.594
 21
-29.2539
  0
LINE
  8
0
 10
124.594
 20
-29.2539
 11
124.711
 21
-28.8956
  0
LINE
  8
0
 10
124.711
 20
-28.8956
 11
124.871
 21
-28.5547
  0
LINE
  8
0
 10
124.871
 20
-28.5547
 11
125.073
 21
-28.2366
  0
LINE
  8
0
 10
125.073
 20
-28.2366
 11
125.313
 21
-27.9464
  0
LINE
  8
0
 10
125.313
 20
-27.9464
 11
125.588
 21
-27.6884
  0
LINE
  8
0
 10
125.588
 20
-27.6884
 11
125.893
 21
-27.467
  0
LINE
  8
0
 10
125.893
 20
-27.467
 11
126.223
 21
-27.2855
  0
LINE
  8
0
 10
126.223
 20
-27.2855
 11
126.573
 21
-27.1468
  0
LINE
  8
0
 10
126.573
 20
-27.1468
 11
126.938
 21
-27.0531
  0
LINE
  8
0
 10
126.938
 20
-27.0531
 11
127.312
 21
-27.0059
  0
LINE
  8
0
 10
127.312
 20
-27.0059
 11
127.688
 21
-27.0059
  0
LINE
  8
0
 10
127.688
 20
-27.0059
 11
128.062
 21
-27.0531
  0
LINE
  8
0
 10
128.062
 20
-27.0531
 11
128.427
 21
-27.1468
  0
LINE
  8
0
 10
128.427
 20
-27.1468
 11
128.777
 21
-27.2855
  0
LINE
  8
0
 10
128.777
 20
-27.2855
 11
129.107
 21
-27.467
  0
LINE
  8
0
 10
129.107
 20
-27.467
 11
129.412
 21
-27.6884
  0
LINE
  8
0
 10
129.412
 20
-27.6884
 11
129.687
 21
-27.9464
  0
LINE
  8
0
 10
129.687
 20
-27.9464
 11
129.927
 21
-28.2366
  0
LINE
  8
0
 10
129.927
 20
-28.2366
 11
130.129
 21
-28.5547
  0
LINE
  8
0
 10
130.129
 20
-28.5547
 11
130.289
 21
-28.8956
  0
LINE
  8
0
 10
130.289
 20
-28.8956
 11
130.406
 21
-29.2539
  0
LINE
  8
0
 10
130.406
 20
-29.2539
 11
130.476
 21
-29.624
  0
LINE
  8
0
 10
130.476
 20
-29.624
 11
130.5
 21
-30
  0
LINE
  8
0
 10
130.5
 20
-30
 11
130.476
 21
-30.376
  0
LINE
  8
0
 10
130.476
 20
-30.376
 11
130.406
 21
-30.7461
  0
LINE
  8
0
 10
130.406
 20
-30.7461
 11
130.289
 21
-31.1044
  0
LINE
  8
0
 10
130.289
 20
-31.1044
 11
130.129
 21
-31.4453
  0
LINE
  8
0
 10
130.129
 20
-31.4453
 11
129.927
 21
-31.7634
  0
LINE
  8
0
 10
129.927
 20
-31.7634
 11
129.687
 21
-32.0536
  0
LINE
  8
0
 10
129.687
 20
-32.0536
 11
129.412
 21
-32.3115
  0
LINE
  8
0
 10
129.412
 20
-32.3115
 11
129.107
 21
-32.533
  0
LINE
  8
0
 10
129.107
 20
-32.533
 11
128.777
 21
-32.7145
  0
LINE
  8
0
 10
128.777
 20
-32.7145
 11
128.427
 21
-32.8532
  0
LINE
  8
0
 10
128.427
 20
-32.8532
 11
128.062
 21
-32.9469
  0
LINE
  8
0
 10
128.062
 20
-32.9469
 11
127.688
 21
-32.9941
  0
LINE
  8
0
 10
127.688
 20
-32.9941
 11
127.312
 21
-32.9941
  0
LINE
  8
0
 10
-127.688
 20
-32.9941
 11
-128.062
 21
-32.9469
  0
LINE
  8
0
 10
-128.062
 20
-32.9469
 11
-128.427
 21
-32.8532
  0
LINE
  8
0
 10
-128.427
 20
-32.8532
 11
-128.777
 21
-32.7145
  0
LINE
  8
0
 10
-128.777
 20
-32.7145
 11
-129.107
 21
-32.533
  0
LINE
  8
0
 10
-129.107
 20
-32.533
 11
-129.412
 21
-32.3115
  0
LINE
  8
0
 10
-129.412
 20
-32.3115
 11
-129.687
 21
-32.0536
  0
LINE
  8
0
 10
-129.687
 20
-32.0536
 11
-129.927
 21
-31.7634
  0
LINE
  8
0
 10
-129.927
 20
-31.7634
 11
-130.129
 21
-31.4453
  0
LINE
  8
0
 10
-130.129
 20
-31.4453
 11
-130.289
 21
-31.1044
  0
LINE
  8
0
 10
-130.289
 20
-31.1044
 11
-130.406
 21
-30.7461
  0
LINE
  8
0
 10
-130.406
 20
-30.7461
 11
-130.476
 21
-30.376
  0
LINE
  8
0
 10
-130.476
 20
-30.376
 11
-130.5
 21
-30
  0
LINE
  8
0
 10
-130.5
 20
-30
 11
-130.476
 21
-29.624
  0
LINE
  8
0
 10
-130.476
 20
-29.624
 11
-130.406
 21
-29.2539
  0
LINE
  8
0
 10
-130.406
 20
-29.2539
 11
-130.289
 21
-28.8956
  0
LINE
  8
0
 10
-130.289
 20
-28.8956
 11
-130.129
 21
-28.5547
  0
LINE
  8
0
 10
-130.129
 20
-28.5547
 11
-129.927
 21
-28.2366
  0
LINE
  8
0
 10
-129.927
 20
-28.2366
 11
-129.687
 21
-27.9464
  0
LINE
  8
0
 10
-129.687
 20
-27.9464
 11
-129.412
 21
-27.6884
  0
LINE
  8
0
 10
-129.412
 20
-27.6884
 11
-129.107
 21
-27.467
  0
LINE
  8
0
 10
-129.107
 20
-27.467
 11
-128.777
 21
-27.2855
  0
LINE
  8
0
 10
-128.777
 20
-27.2855
 11
-128.427
 21
-27.1468
  0
LINE
  8
0
 10
-128.427
 20
-27.1468
 11
-128.062
 21
-27.0531
  0
LINE
  8
0
 10
-128.062
 20
-27.0531
 11
-127.688
 21
-27.0059
  0
LINE
  8
0
 10
-127.688
 20
-27.0059
 11
-127.312
 21
-27.0059
  0
LINE
  8
0
 10
-127.312
 20
-27.0059
 11
-126.938
 21
-27.0531
  0
LINE
  8
0
 10
-126.938
 20
-27.0531
 11
-126.573
 21
-27.1468
  0
LINE
  8
0
 10
-126.573
 20
-27.1468
 11
-126.223
 21
-27.2855
  0
LINE
  8
0
 10
-126.223
 20
-27.2855
 11
-125.893
 21
-27.467
  0
LINE
  8
0
 10
-125.893
 20
-27.467
 11
-125.588
 21
-27.6884
  0
LINE
  8
0
 10
-125.588
 20
-27.6884
 11
-125.313
 21
-27.9464
  0
LINE
  8
0
 10
-125.313
 20
-27.9464
 11
-125.073
 21
-28.2366
  0
LINE
  8
0
 10
-125.073
 20
-28.2366
 11
-124.871
 21
-28.5547
  0
LINE
  8
0
 10
-124.871
 20
-28.5547
 11
-124.711
 21
-28.8956
  0
LINE
  8
0
 10
-124.711
 20
-28.8956
 11
-124.594
 21
-29.2539
  0
LINE
  8
0
 10
-124.594
 20
-29.2539
 11
-124.524
 21
-29.624
  0
LINE
  8
0
 10
-124.524
 20
-29.624
 11
-124.5
 21
-30
  0
LINE
  8
0
 10
-124.5
 20
-30
 11
-124.524
 21
-30.376
  0
LINE
  8
0
 10
-124.524
 20
-30.376
 11
-124.594
 21
-30.7461
  0
LINE
  8
0
 10
-124.594
 20
-30.7461
 11
-124.711
 21
-31.1044
  0
LINE
  8
0
 10
-124.711
 20
-31.1044
 11
-124.871
 21
-31.4453
  0
LINE
  8
0
 10
-124.871
 20
-31.4453
 11
-125.073
 21
-31.7634
  0
LINE
  8
0
 10
-125.073
 20
-31.7634
 11
-125.313
 21
-32.0536
  0
LINE
  8
0
 10
-125.313
 20
-32.0536
 11
-125.588
 21
-32.3115
  0
LINE
  8
0
 10
-125.588
 20
-32.3115
 11
-125.893
 21
-32.533
  0
LINE
  8
0
 10
-125.893
 20
-32.533
 11
-126.223
 21
-32.7145
  0
LINE
  8
0
 10
-126.223
 20
-32.7145
 11
-126.573
 21
-32.8532
  0
LINE
  8
0
 10
-126.573
 20
-32.8532
 11
-126.938
 21
-32.9469
  0
LINE
  8
0
 10
-126.938
 20
-32.9469
 11
-127.312
 21
-32.9941
  0
LINE
  8
0
 10
-127.312
 20
-32.9941
 11
-127.688
 21
-32.9941
  0
ENDSEC
  0
SECTION
  2
OBJECTS
  0
DICTIONARY
  0
ENDSEC
  0
EOF
