<?xml version="1.0" standalone="no"?>
<!DOCTYPE svg PUBLIC "-//W3C//DTD SVG 1.1//EN" "http://www.w3.org/Graphics/SVG/1.1/DTD/svg11.dtd">
<svg width="60mm" height="74mm" viewBox="-30 -37 60 74" xmlns="http://www.w3.org/2000/svg" version="1.1">
<title>OpenSCAD Model</title>
<path d="
M 25.4369,36.9114 L 26.0451,36.7553 L 26.6289,36.5241 L 27.1791,36.2216 L 27.6871,35.8526 L 28.1448,35.4227
 L 28.5451,34.9389 L 28.8815,34.4088 L 29.1489,33.8406 L 29.3429,33.2434 L 29.4606,32.6267 L 29.5,32
 L 29.5,-32 L 29.4606,-32.6267 L 29.3429,-33.2434 L 29.1489,-33.8406 L 28.8815,-34.4088 L 28.5451,-34.9389
 L 28.1448,-35.4227 L 27.6871,-35.8526 L 27.1791,-36.2216 L 26.6289,-36.5241 L 26.0451,-36.7553 L 25.4369,-36.9114
 L 24.8139,-36.9901 L -24.8139,-36.9901 L -25.4369,-36.9114 L -26.0451,-36.7553 L -26.6289,-36.5241 L -27.1791,-36.2216
 L -27.6871,-35.8526 L -28.1448,-35.4227 L -28.5451,-34.9389 L -28.8815,-34.4088 L -29.1489,-33.8406 L -29.3429,-33.2434
 L -29.4606,-32.6267 L -29.5,-32 L -29.5,32 L -29.4606,32.6267 L -29.3429,33.2434 L -29.1489,33.8406
 L -28.8815,34.4088 L -28.5451,34.9389 L -28.1448,35.4227 L -27.6871,35.8526 L -27.1791,36.2216 L -26.6289,36.5241
 L -26.0451,36.7553 L -25.4369,36.9114 L -24.8139,36.9901 L 24.8139,36.9901 z
M 22.3116,-27.0059 L 21.9379,-27.0531 L 21.5729,-27.1468 L 21.2227,-27.2855 L 20.8925,-27.467 L 20.5877,-27.6884
 L 20.3131,-27.9464 L 20.0729,-28.2366 L 19.8711,-28.5547 L 19.7107,-28.8956 L 19.5942,-29.2539 L 19.5237,-29.624
 L 19.5,-30 L 19.5237,-30.376 L 19.5942,-30.7461 L 19.7107,-31.1044 L 19.8711,-31.4453 L 20.0729,-31.7634
 L 20.3131,-32.0536 L 20.5877,-32.3115 L 20.8925,-32.533 L 21.2227,-32.7145 L 21.5729,-32.8532 L 21.9379,-32.9469
 L 22.3116,-32.9941 L 22.6884,-32.9941 L 23.0621,-32.9469 L 23.427,-32.8532 L 23.7773,-32.7145 L 24.1075,-32.533
 L 24.4123,-32.3115 L 24.6869,-32.0536 L 24.927,-31.7634 L 25.1289,-31.4453 L 25.2893,-31.1044 L 25.4057,-30.7461
 L 25.4763,-30.376 L 25.5,-30 L 25.4763,-29.624 L 25.4057,-29.2539 L 25.2893,-28.8956 L 25.1289,-28.5547
 L 24.927,-28.2366 L 24.6869,-27.9464 L 24.4123,-27.6884 L 24.1075,-27.467 L 23.7773,-27.2855 L 23.427,-27.1468
 L 23.0621,-27.0531 L 22.6884,-27.0059 z
M -7.68837,-27.0059 L -8.06213,-27.0531 L -8.42705,-27.1468 L -8.77733,-27.2855 L -9.10747,-27.467 L -9.41226,-27.6884
 L -9.6869,-27.9464 L -9.92705,-28.2366 L -10.1289,-28.5547 L -10.2893,-28.8956 L -10.4057,-29.2539 L -10.4763,-29.624
 L -10.5,-30 L -10.4763,-30.376 L -10.4057,-30.7461 L -10.2893,-31.1044 L -10.1289,-31.4453 L -9.92705,-31.7634
 L -9.6869,-32.0536 L -9.41226,-32.3115 L -9.10747,-32.533 L -8.77733,-32.7145 L -8.42705,-32.8532 L -8.06213,-32.9469
 L -7.68837,-32.9941 L -7.31161,-32.9941 L -6.93785,-32.9469 L -6.57294,-32.8532 L -6.22266,-32.7145 L -5.89252,-32.533
 L -5.58772,-32.3115 L -5.31308,-32.0536 L -5.07294,-31.7634 L -4.87108,-31.4453 L -4.71066,-31.1044 L -4.59424,-30.7461
 L -4.52365,-30.376 L -4.5,-30 L -4.52365,-29.624 L -4.59424,-29.2539 L -4.71066,-28.8956 L -4.87108,-28.5547
 L -5.07294,-28.2366 L -5.31308,-27.9464 L -5.58772,-27.6884 L -5.89252,-27.467 L -6.22266,-27.2855 L -6.57294,-27.1468
 L -6.93785,-27.0531 L -7.31161,-27.0059 z
M 7.31161,-27.0059 L 6.93785,-27.0531 L 6.57294,-27.1468 L 6.22266,-27.2855 L 5.89252,-27.467 L 5.58772,-27.6884
 L 5.31308,-27.9464 L 5.07294,-28.2366 L 4.87108,-28.5547 L 4.71066,-28.8956 L 4.59424,-29.2539 L 4.52365,-29.624
 L 4.5,-30 L 4.52365,-30.376 L 4.59424,-30.7461 L 4.71066,-31.1044 L 4.87108,-31.4453 L 5.07294,-31.7634
 L 5.31308,-32.0536 L 5.58772,-32.3115 L 5.89252,-32.533 L 6.22266,-32.7145 L 6.57294,-32.8532 L 6.93785,-32.9469
 L 7.31161,-32.9941 L 7.68837,-32.9941 L 8.06213,-32.9469 L 8.42705,-32.8532 L 8.77733,-32.7145 L 9.10747,-32.533
 L 9.41226,-32.3115 L 9.6869,-32.0536 L 9.92705,-31.7634 L 10.1289,-31.4453 L 10.2893,-31.1044 L 10.4057,-30.7461
 L 10.4763,-30.376 L 10.5,-30 L 10.4763,-29.624 L 10.4057,-29.2539 L 10.2893,-28.8956 L 10.1289,-28.5547
 L 9.92705,-28.2366 L 9.6869,-27.9464 L 9.41226,-27.6884 L 9.10747,-27.467 L 8.77733,-27.2855 L 8.42705,-27.1468
 L 8.06213,-27.0531 L 7.68837,-27.0059 z
M -22.6884,-27.0059 L -23.0621,-27.0531 L -23.427,-27.1468 L -23.7773,-27.2855 L -24.1075,-27.467 L -24.4123,-27.6884
 L -24.6869,-27.9464 L -24.927,-28.2366 L -25.1289,-28.5547 L -25.2893,-28.8956 L -25.4057,-29.2539 L -25.4763,-29.624
 L -25.5,-30 L -25.4763,-30.376 L -25.4057,-30.7461 L -25.2893,-31.1044 L -25.1289,-31.4453 L -24.927,-31.7634
 L -24.6869,-32.0536 L -24.4123,-32.3115 L -24.1075,-32.533 L -23.7773,-32.7145 L -23.427,-32.8532 L -23.0621,-32.9469
 L -22.6884,-32.9941 L -22.3116,-32.9941 L -21.9379,-32.9469 L -21.5729,-32.8532 L -21.2227,-32.7145 L -20.8925,-32.533
 L -20.5877,-32.3115 L -20.3131,-32.0536 L -20.0729,-31.7634 L -19.8711,-31.4453 L -19.7107,-31.1044 L -19.5942,-30.7461
 L -19.5237,-30.376 L -19.5,-30 L -19.5237,-29.624 L -19.5942,-29.2539 L -19.7107,-28.8956 L -19.8711,-28.5547
 L -20.0729,-28.2366 L -20.3131,-27.9464 L -20.5877,-27.6884 L -20.8925,-27.467 L -21.2227,-27.2855 L -21.5729,-27.1468
 L -21.9379,-27.0531 L -22.3116,-27.0059 z
M -15.0942,-28.503 L -15.2811,-28.5266 L -15.4635,-28.5734 L -15.6387,-28.6427 L -15.8037,-28.7335 L -15.9561,-28.8442
 L -16.0934,-28.9732 L -16.2135,-29.1183 L -16.3145,-29.2774 L -16.3947,-29.4478 L -16.4529,-29.627 L -16.4882,-29.812
 L -16.5,-30 L -16.4882,-30.188 L -16.4529,-30.373 L -16.3947,-30.5522 L -16.3145,-30.7226 L -16.2135,-30.8817
 L -16.0934,-31.0268 L -15.9561,-31.1558 L -15.8037,-31.2665 L -15.6387,-31.3572 L -15.4635,-31.4266 L -15.2811,-31.4734
 L -15.0942,-31.497 L -14.9058,-31.497 L -14.7189,-31.4734 L -14.5365,-31.4266 L -14.3613,-31.3572 L -14.1963,-31.2665
 L -14.0439,-31.1558 L -13.9065,-31.0268 L -13.7865,-30.8817 L -13.6855,-30.7226 L -13.6053,-30.5522 L -13.5471,-30.373
 L -13.5118,-30.188 L -13.5,-30 L -13.5118,-29.812 L -13.5471,-29.627 L -13.6053,-29.4478 L -13.6855,-29.2774
 L -13.7865,-29.1183 L -13.9065,-28.9732 L -14.0439,-28.8442 L -14.1963,-28.7335 L -14.3613,-28.6427 L -14.5365,-28.5734
 L -14.7189,-28.5266 L -14.9058,-28.503 z
M -0.0941772,-28.503 L -0.281067,-28.5266 L -0.463516,-28.5734 L -0.638657,-28.6427 L -0.803726,-28.7335 L -0.956131,-28.8442
 L -1.09344,-28.9732 L -1.21352,-29.1183 L -1.31445,-29.2774 L -1.39465,-29.4478 L -1.45287,-29.627 L -1.48816,-29.812
 L -1.5,-30 L -1.48816,-30.188 L -1.45287,-30.373 L -1.39465,-30.5522 L -1.31445,-30.7226 L -1.21352,-30.8817
 L -1.09344,-31.0268 L -0.956131,-31.1558 L -0.803726,-31.2665 L -0.638657,-31.3572 L -0.463516,-31.4266 L -0.281067,-31.4734
 L -0.0941772,-31.497 L 0.0941772,-31.497 L 0.281067,-31.4734 L 0.463516,-31.4266 L 0.638657,-31.3572 L 0.803726,-31.2665
 L 0.956131,-31.1558 L 1.09344,-31.0268 L 1.21352,-30.8817 L 1.31445,-30.7226 L 1.39465,-30.5522 L 1.45287,-30.373
 L 1.48816,-30.188 L 1.5,-30 L 1.48816,-29.812 L 1.45287,-29.627 L 1.39465,-29.4478 L 1.31445,-29.2774
 L 1.21352,-29.1183 L 1.09344,-28.9732 L 0.956131,-28.8442 L 0.803726,-28.7335 L 0.638657,-28.6427 L 0.463516,-28.5734
 L 0.281067,-28.5266 L 0.0941772,-28.503 z
M 14.9058,-28.503 L 14.7189,-28.5266 L 14.5365,-28.5734 L 14.3613,-28.6427 L 14.1963,-28.7335 L 14.0439,-28.8442
 L 13.9065,-28.9732 L 13.7865,-29.1183 L 13.6855,-29.2774 L 13.6053,-29.4478 L 13.5471,-29.627 L 13.5118,-29.812
 L 13.5,-30 L 13.5118,-30.188 L 13.5471,-30.373 L 13.6053,-30.5522 L 13.6855,-30.7226 L 13.7865,-30.8817
 L 13.9065,-31.0268 L 14.0439,-31.1558 L 14.1963,-31.2665 L 14.3613,-31.3572 L 14.5365,-31.4266 L 14.7189,-31.4734
 L 14.9058,-31.497 L 15.0942,-31.497 L 15.2811,-31.4734 L 15.4635,-31.4266 L 15.6387,-31.3572 L 15.8037,-31.2665
 L 15.9561,-31.1558 L 16.0934,-31.0268 L 16.2135,-30.8817 L 16.3145,-30.7226 L 16.3947,-30.5522 L 16.4529,-30.373
 L 16.4882,-30.188 L 16.5,-30 L 16.4882,-29.812 L 16.4529,-29.627 L 16.3947,-29.4478 L 16.3145,-29.2774
 L 16.2135,-29.1183 L 16.0934,-28.9732 L 15.9561,-28.8442 L 15.8037,-28.7335 L 15.6387,-28.6427 L 15.4635,-28.5734
 L 15.2811,-28.5266 L 15.0942,-28.503 z
M -1.31859,20.9586 L -3.935,20.628 L -6.48935,19.9722 L -8.94136,19.0014 L -11.2523,17.7309 L -13.3859,16.1808
 L -15.3083,14.3755 L -16.9893,12.3435 L -18.4024,10.1168 L -19.5253,7.73061 L -20.3402,5.22247 L -20.8344,2.63199
 L -21,-0 L -20.8344,-2.63199 L -20.3402,-5.22247 L -19.5253,-7.73061 L -18.4024,-10.1168 L -16.9893,-12.3435
 L -15.3083,-14.3755 L -13.3859,-16.1808 L -11.2523,-17.7309 L -8.94136,-19.0014 L -6.48935,-19.9722 L -3.935,-20.628
 L -1.31859,-20.9586 L 1.31859,-20.9586 L 3.935,-20.628 L 6.48935,-19.9722 L 8.94136,-19.0014 L 11.2523,-17.7309
 L 13.3859,-16.1808 L 15.3083,-14.3755 L 16.9893,-12.3435 L 18.4024,-10.1168 L 19.5253,-7.73061 L 20.3402,-5.22247
 L 20.8344,-2.63199 L 21,-0 L 20.8344,2.63199 L 20.3402,5.22247 L 19.5253,7.73061 L 18.4024,10.1168
 L 16.9893,12.3435 L 15.3083,14.3755 L 13.3859,16.1808 L 11.2523,17.7309 L 8.94136,19.0014 L 6.48935,19.9722
 L 3.935,20.628 L 1.31859,20.9586 z
M 7.31161,32.9941 L 6.93785,32.9469 L 6.57294,32.8532 L 6.22266,32.7145 L 5.89252,32.533 L 5.58772,32.3115
 L 5.31308,32.0536 L 5.07294,31.7634 L 4.87108,31.4453 L 4.71066,31.1044 L 4.59424,30.7461 L 4.52365,30.376
 L 4.5,30 L 4.52365,29.624 L 4.59424,29.2539 L 4.71066,28.8956 L 4.87108,28.5547 L 5.07294,28.2366
 L 5.31308,27.9464 L 5.58772,27.6884 L 5.89252,27.467 L 6.22266,27.2855 L 6.57294,27.1468 L 6.93785,27.0531
 L 7.31161,27.0059 L 7.68837,27.0059 L 8.06213,27.0531 L 8.42705,27.1468 L 8.77733,27.2855 L 9.10747,27.467
 L 9.41226,27.6884 L 9.6869,27.9464 L 9.92705,28.2366 L 10.1289,28.5547 L 10.2893,28.8956 L 10.4057,29.2539
 L 10.4763,29.624 L 10.5,30 L 10.4763,30.376 L 10.4057,30.7461 L 10.2893,31.1044 L 10.1289,31.4453
 L 9.92705,31.7634 L 9.6869,32.0536 L 9.41226,32.3115 L 9.10747,32.533 L 8.77733,32.7145 L 8.42705,32.8532
 L 8.06213,32.9469 L 7.68837,32.9941 z
M 22.3116,32.9941 L 21.9379,32.9469 L 21.5729,32.8532 L 21.2227,32.7145 L 20.8925,32.533 L 20.5877,32.3115
 L 20.3131,32.0536 L 20.0729,31.7634 L 19.8711,31.4453 L 19.7107,31.1044 L 19.5942,30.7461 L 19.5237,30.376
 L 19.5,30 L 19.5237,29.624 L 19.5942,29.2539 L 19.7107,28.8956 L 19.8711,28.5547 L 20.0729,28.2366
 L 20.3131,27.9464 L 20.5877,27.6884 L 20.8925,27.467 L 21.2227,27.2855 L 21.5729,27.1468 L 21.9379,27.0531
 L 22.3116,27.0059 L 22.6884,27.0059 L 23.0621,27.0531 L 23.427,27.1468 L 23.7773,27.2855 L 24.1075,27.467
 L 24.4123,27.6884 L 24.6869,27.9464 L 24.927,28.2366 L 25.1289,28.5547 L 25.2893,28.8956 L 25.4057,29.2539
 L 25.4763,29.624 L 25.5,30 L 25.4763,30.376 L 25.4057,30.7461 L 25.2893,31.1044 L 25.1289,31.4453
 L 24.927,31.7634 L 24.6869,32.0536 L 24.4123,32.3115 L 24.1075,32.533 L 23.7773,32.7145 L 23.427,32.8532
 L 23.0621,32.9469 L 22.6884,32.9941 z
M -22.6884,32.9941 L -23.0621,32.9469 L -23.427,32.8532 L -23.7773,32.7145 L -24.1075,32.533 L -24.4123,32.3115
 L -24.6869,32.0536 L -24.927,31.7634 L -25.1289,31.4453 L -25.2893,31.1044 L -25.4057,30.7461 L -25.4763,30.376
 L -25.5,30 L -25.4763,29.624 L -25.4057,29.2539 L -25.2893,28.8956 L -25.1289,28.5547 L -24.927,28.2366
 L -24.6869,27.9464 L -24.4123,27.6884 L -24.1075,27.467 L -23.7773,27.2855 L -23.427,27.1468 L -23.0621,27.0531
 L -22.6884,27.0059 L -22.3116,27.0059 L -21.9379,27.0531 L -21.5729,27.1468 L -21.2227,27.2855 L -20.8925,27.467
 L -20.5877,27.6884 L -20.3131,27.9464 L -20.0729,28.2366 L -19.8711,28.5547 L -19.7107,28.8956 L -19.5942,29.2539
 L -19.5237,29.624 L -19.5,30 L -19.5237,30.376 L -19.5942,30.7461 L -19.7107,31.1044 L -19.8711,31.4453
 L -20.0729,31.7634 L -20.3131,32.0536 L -20.5877,32.3115 L -20.8925,32.533 L -21.2227,32.7145 L -21.5729,32.8532
 L -21.9379,32.9469 L -22.3116,32.9941 z
M -7.68837,32.9941 L -8.06213,32.9469 L -8.42705,32.8532 L -8.77733,32.7145 L -9.10747,32.533 L -9.41226,32.3115
 L -9.6869,32.0536 L -9.92705,31.7634 L -10.1289,31.4453 L -10.2893,31.1044 L -10.4057,30.7461 L -10.4763,30.376
 L -10.5,30 L -10.4763,29.624 L -10.4057,29.2539 L -10.2893,28.8956 L -10.1289,28.5547 L -9.92705,28.2366
 L -9.6869,27.9464 L -9.41226,27.6884 L -9.10747,27.467 L -8.77733,27.2855 L -8.42705,27.1468 L -8.06213,27.0531
 L -7.68837,27.0059 L -7.31161,27.0059 L -6.93785,27.0531 L -6.57294,27.1468 L -6.22266,27.2855 L -5.89252,27.467
 L -5.58772,27.6884 L -5.31308,27.9464 L -5.07294,28.2366 L -4.87108,28.5547 L -4.71066,28.8956 L -4.59424,29.2539
 L -4.52365,29.624 L -4.5,30 L -4.52365,30.376 L -4.59424,30.7461 L -4.71066,31.1044 L -4.87108,31.4453
 L -5.07294,31.7634 L -5.31308,32.0536 L -5.58772,32.3115 L -5.89252,32.533 L -6.22266,32.7145 L -6.57294,32.8532
 L -6.93785,32.9469 L -7.31161,32.9941 z
M 14.9058,31.497 L 14.7189,31.4734 L 14.5365,31.4266 L 14.3613,31.3572 L 14.1963,31.2665 L 14.0439,31.1558
 L 13.9065,31.0268 L 13.7865,30.8817 L 13.6855,30.7226 L 13.6053,30.5522 L 13.5471,30.373 L 13.5118,30.188
 L 13.5,30 L 13.5118,29.812 L 13.5471,29.627 L 13.6053,29.4478 L 13.6855,29.2774 L 13.7865,29.1183
 L 13.9065,28.9732 L 14.0439,28.8442 L 14.1963,28.7335 L 14.3613,28.6427 L 14.5365,28.5734 L 14.7189,28.5266
 L 14.9058,28.503 L 15.0942,28.503 L 15.2811,28.5266 L 15.4635,28.5734 L 15.6387,28.6427 L 15.8037,28.7335
 L 15.9561,28.8442 L 16.0934,28.9732 L 16.2135,29.1183 L 16.3145,29.2774 L 16.3947,29.4478 L 16.4529,29.627
 L 16.4882,29.812 L 16.5,30 L 16.4882,30.188 L 16.4529,30.373 L 16.3947,30.5522 L 16.3145,30.7226
 L 16.2135,30.8817 L 16.0934,31.0268 L 15.9561,31.1558 L 15.8037,31.2665 L 15.6387,31.3572 L 15.4635,31.4266
 L 15.2811,31.4734 L 15.0942,31.497 z
M -0.0941772,31.497 L -0.281067,31.4734 L -0.463516,31.4266 L -0.638657,31.3572 L -0.803726,31.2665 L -0.956131,31.1558
 L -1.09344,31.0268 L -1.21352,30.8817 L -1.31445,30.7226 L -1.39465,30.5522 L -1.45287,30.373 L -1.48816,30.188
 L -1.5,30 L -1.48816,29.812 L -1.45287,29.627 L -1.39465,29.4478 L -1.31445,29.2774 L -1.21352,29.1183
 L -1.09344,28.9732 L -0.956131,28.8442 L -0.803726,28.7335 L -0.638657,28.6427 L -0.463516,28.5734 L -0.281067,28.5266
 L -0.0941772,28.503 L 0.0941772,28.503 L 0.281067,28.5266 L 0.463516,28.5734 L 0.638657,28.6427 L 0.803726,28.7335
 L 0.956131,28.8442 L 1.09344,28.9732 L 1.21352,29.1183 L 1.31445,29.2774 L 1.39465,29.4478 L 1.45287,29.627
 L 1.48816,29.812 L 1.5,30 L 1.48816,30.188 L 1.45287,30.373 L 1.39465,30.5522 L 1.31445,30.7226
 L 1.21352,30.8817 L 1.09344,31.0268 L 0.956131,31.1558 L 0.803726,31.2665 L 0.638657,31.3572 L 0.463516,31.4266
 L 0.281067,31.4734 L 0.0941772,31.497 z
M -15.0942,31.497 L -15.2811,31.4734 L -15.4635,31.4266 L -15.6387,31.3572 L -15.8037,31.2665 L -15.9561,31.1558
 L -16.0934,31.0268 L -16.2135,30.8817 L -16.3145,30.7226 L -16.3947,30.5522 L -16.4529,30.373 L -16.4882,30.188
 L -16.5,30 L -16.4882,29.812 L -16.4529,29.627 L -16.3947,29.4478 L -16.3145,29.2774 L -16.2135,29.1183
 L -16.0934,28.9732 L -15.9561,28.8442 L -15.8037,28.7335 L -15.6387,28.6427 L -15.4635,28.5734 L -15.2811,28.5266
 L -15.0942,28.503 L -14.9058,28.503 L -14.7189,28.5266 L -14.5365,28.5734 L -14.3613,28.6427 L -14.1963,28.7335
 L -14.0439,28.8442 L -13.9065,28.9732 L -13.7865,29.1183 L -13.6855,29.2774 L -13.6053,29.4478 L -13.5471,29.627
 L -13.5118,29.812 L -13.5,30 L -13.5118,30.188 L -13.5471,30.373 L -13.6053,30.5522 L -13.6855,30.7226
 L -13.7865,30.8817 L -13.9065,31.0268 L -14.0439,31.1558 L -14.1963,31.2665 L -14.3613,31.3572 L -14.5365,31.4266
 L -14.7189,31.4734 L -14.9058,31.497 z
" stroke="black" fill="lightgray" stroke-width="0.5"/>
</svg>
