<?xml version="1.0" standalone="no"?>
<!DOCTYPE svg PUBLIC "-//W3C//DTD SVG 1.1//EN" "http://www.w3.org/Graphics/SVG/1.1/DTD/svg11.dtd">
<svg width="570mm" height="120mm" viewBox="-285 -60 570 120" xmlns="http://www.w3.org/2000/svg" version="1.1">
<title>OpenSCAD Model</title>
<path d="
M 280.437,59.4114 L 281.045,59.2553 L 281.629,59.0241 L 282.179,58.7216 L 282.687,58.3526 L 283.145,57.9227
 L 283.545,57.4389 L 283.882,56.9088 L 284.149,56.3406 L 284.343,55.7434 L 284.461,55.1267 L 284.5,54.5
 L 284.5,-54.5 L 284.461,-55.1267 L 284.343,-55.7434 L 284.149,-56.3406 L 283.882,-56.9088 L 283.545,-57.4389
 L 283.145,-57.9227 L 282.687,-58.3526 L 282.179,-58.7216 L 281.629,-59.0241 L 281.045,-59.2553 L 280.437,-59.4114
 L 279.814,-59.4901 L -279.814,-59.4901 L -280.437,-59.4114 L -281.045,-59.2553 L -281.629,-59.0241 L -282.179,-58.7216
 L -282.687,-58.3526 L -283.145,-57.9227 L -283.545,-57.4389 L -283.882,-56.9088 L -284.149,-56.3406 L -284.343,-55.7434
 L -284.461,-55.1267 L -284.5,-54.5 L -284.5,54.5 L -284.461,55.1267 L -284.343,55.7434 L -284.149,56.3406
 L -283.882,56.9088 L -283.545,57.4389 L -283.145,57.9227 L -282.687,58.3526 L -282.179,58.7216 L -281.629,59.0241
 L -281.045,59.2553 L -280.437,59.4114 L -279.814,59.4901 L 279.814,59.4901 z
M 277.312,-49.5059 L 276.938,-49.5531 L 276.573,-49.6468 L 276.223,-49.7855 L 275.893,-49.967 L 275.588,-50.1885
 L 275.313,-50.4464 L 275.073,-50.7366 L 274.871,-51.0547 L 274.711,-51.3956 L 274.594,-51.7539 L 274.524,-52.124
 L 274.5,-52.5 L 274.524,-52.876 L 274.594,-53.2461 L 274.711,-53.6044 L 274.871,-53.9453 L 275.073,-54.2634
 L 275.313,-54.5536 L 275.588,-54.8115 L 275.893,-55.033 L 276.223,-55.2145 L 276.573,-55.3532 L 276.938,-55.4469
 L 277.312,-55.4941 L 277.688,-55.4941 L 278.062,-55.4469 L 278.427,-55.3532 L 278.777,-55.2145 L 279.107,-55.033
 L 279.412,-54.8115 L 279.687,-54.5536 L 279.927,-54.2634 L 280.129,-53.9453 L 280.289,-53.6044 L 280.406,-53.2461
 L 280.476,-52.876 L 280.5,-52.5 L 280.476,-52.124 L 280.406,-51.7539 L 280.289,-51.3956 L 280.129,-51.0547
 L 279.927,-50.7366 L 279.687,-50.4464 L 279.412,-50.1885 L 279.107,-49.967 L 278.777,-49.7855 L 278.427,-49.6468
 L 278.062,-49.5531 L 277.688,-49.5059 z
M -277.688,-49.5059 L -278.062,-49.5531 L -278.427,-49.6468 L -278.777,-49.7855 L -279.107,-49.967 L -279.412,-50.1885
 L -279.687,-50.4464 L -279.927,-50.7366 L -280.129,-51.0547 L -280.289,-51.3956 L -280.406,-51.7539 L -280.476,-52.124
 L -280.5,-52.5 L -280.476,-52.876 L -280.406,-53.2461 L -280.289,-53.6044 L -280.129,-53.9453 L -279.927,-54.2634
 L -279.687,-54.5536 L -279.412,-54.8115 L -279.107,-55.033 L -278.777,-55.2145 L -278.427,-55.3532 L -278.062,-55.4469
 L -277.688,-55.4941 L -277.312,-55.4941 L -276.938,-55.4469 L -276.573,-55.3532 L -276.223,-55.2145 L -275.893,-55.033
 L -275.588,-54.8115 L -275.313,-54.5536 L -275.073,-54.2634 L -274.871,-53.9453 L -274.711,-53.6044 L -274.594,-53.2461
 L -274.524,-52.876 L -274.5,-52.5 L -274.524,-52.124 L -274.594,-51.7539 L -274.711,-51.3956 L -274.871,-51.0547
 L -275.073,-50.7366 L -275.313,-50.4464 L -275.588,-50.1885 L -275.893,-49.967 L -276.223,-49.7855 L -276.573,-49.6468
 L -276.938,-49.5531 L -277.312,-49.5059 z
M -3.29649,52.3964 L -9.83751,51.5701 L -16.2234,49.9305 L -22.3534,47.5034 L -28.1309,44.3272 L -33.4648,40.4519
 L -38.2708,35.9387 L -42.4734,30.8587 L -46.0061,25.2921 L -48.8133,19.3265 L -50.8506,13.0562 L -52.086,6.57999
 L -52.5,-0 L -52.086,-6.57999 L -50.8506,-13.0562 L -48.8133,-19.3265 L -46.0061,-25.2921 L -42.4734,-30.8587
 L -38.2708,-35.9387 L -33.4648,-40.4519 L -28.1309,-44.3272 L -22.3534,-47.5034 L -16.2234,-49.9305 L -9.83751,-51.5701
 L -3.29649,-52.3964 L 3.29649,-52.3964 L 9.83751,-51.5701 L 16.2234,-49.9305 L 22.3534,-47.5034 L 28.1309,-44.3272
 L 33.4648,-40.4519 L 38.2708,-35.9387 L 42.4734,-30.8587 L 46.0061,-25.2921 L 48.8133,-19.3265 L 50.8506,-13.0562
 L 52.086,-6.57999 L 52.5,-0 L 52.086,6.57999 L 50.8506,13.0562 L 48.8133,19.3265 L 46.0061,25.2921
 L 42.4734,30.8587 L 38.2708,35.9387 L 33.4648,40.4519 L 28.1309,44.3272 L 22.3534,47.5034 L 16.2234,49.9305
 L 9.83751,51.5701 L 3.29649,52.3964 z
M -113.296,52.3964 L -119.838,51.5701 L -126.223,49.9305 L -132.353,47.5034 L -138.131,44.3272 L -143.465,40.4519
 L -148.271,35.9387 L -152.473,30.8587 L -156.006,25.2921 L -158.813,19.3265 L -160.851,13.0562 L -162.086,6.57999
 L -162.5,-0 L -162.086,-6.57999 L -160.851,-13.0562 L -158.813,-19.3265 L -156.006,-25.2921 L -152.473,-30.8587
 L -148.271,-35.9387 L -143.465,-40.4519 L -138.131,-44.3272 L -132.353,-47.5034 L -126.223,-49.9305 L -119.838,-51.5701
 L -113.296,-52.3964 L -106.703,-52.3964 L -100.162,-51.5701 L -93.7766,-49.9305 L -87.6466,-47.5034 L -81.8691,-44.3272
 L -76.5352,-40.4519 L -71.7291,-35.9387 L -67.5266,-30.8587 L -63.9939,-25.2921 L -61.1867,-19.3265 L -59.1494,-13.0562
 L -57.914,-6.57999 L -57.5,-0 L -57.914,6.57999 L -59.1494,13.0562 L -61.1867,19.3265 L -63.9939,25.2921
 L -67.5266,30.8587 L -71.7291,35.9387 L -76.5352,40.4519 L -81.8691,44.3272 L -87.6466,47.5034 L -93.7766,49.9305
 L -100.162,51.5701 L -106.703,52.3964 z
M -223.297,52.3964 L -229.838,51.5701 L -236.223,49.9305 L -242.353,47.5034 L -248.131,44.3272 L -253.465,40.4519
 L -258.271,35.9387 L -262.473,30.8587 L -266.006,25.2921 L -268.813,19.3265 L -270.851,13.0562 L -272.086,6.57999
 L -272.5,-0 L -272.086,-6.57999 L -270.851,-13.0562 L -268.813,-19.3265 L -266.006,-25.2921 L -262.473,-30.8587
 L -258.271,-35.9387 L -253.465,-40.4519 L -248.131,-44.3272 L -242.353,-47.5034 L -236.223,-49.9305 L -229.838,-51.5701
 L -223.297,-52.3964 L -216.703,-52.3964 L -210.162,-51.5701 L -203.777,-49.9305 L -197.647,-47.5034 L -191.869,-44.3272
 L -186.535,-40.4519 L -181.729,-35.9387 L -177.527,-30.8587 L -173.994,-25.2921 L -171.187,-19.3265 L -169.149,-13.0562
 L -167.914,-6.57999 L -167.5,-0 L -167.914,6.57999 L -169.149,13.0562 L -171.187,19.3265 L -173.994,25.2921
 L -177.527,30.8587 L -181.729,35.9387 L -186.535,40.4519 L -191.869,44.3272 L -197.647,47.5034 L -203.777,49.9305
 L -210.162,51.5701 L -216.703,52.3964 z
M 106.703,52.3964 L 100.162,51.5701 L 93.7766,49.9305 L 87.6466,47.5034 L 81.8691,44.3272 L 76.5352,40.4519
 L 71.7291,35.9387 L 67.5266,30.8587 L 63.9939,25.2921 L 61.1867,19.3265 L 59.1494,13.0562 L 57.914,6.57999
 L 57.5,-0 L 57.914,-6.57999 L 59.1494,-13.0562 L 61.1867,-19.3265 L 63.9939,-25.2921 L 67.5266,-30.8587
 L 71.7291,-35.9387 L 76.5352,-40.4519 L 81.8691,-44.3272 L 87.6466,-47.5034 L 93.7766,-49.9305 L 100.162,-51.5701
 L 106.703,-52.3964 L 113.296,-52.3964 L 119.838,-51.5701 L 126.223,-49.9305 L 132.353,-47.5034 L 138.131,-44.3272
 L 143.465,-40.4519 L 148.271,-35.9387 L 152.473,-30.8587 L 156.006,-25.2921 L 158.813,-19.3265 L 160.851,-13.0562
 L 162.086,-6.57999 L 162.5,-0 L 162.086,6.57999 L 160.851,13.0562 L 158.813,19.3265 L 156.006,25.2921
 L 152.473,30.8587 L 148.271,35.9387 L 143.465,40.4519 L 138.131,44.3272 L 132.353,47.5034 L 126.223,49.9305
 L 119.838,51.5701 L 113.296,52.3964 z
M 216.703,52.3964 L 210.162,51.5701 L 203.777,49.9305 L 197.647,47.5034 L 191.869,44.3272 L 186.535,40.4519
 L 181.729,35.9387 L 177.527,30.8587 L 173.994,25.2921 L 171.187,19.3265 L 169.149,13.0562 L 167.914,6.57999
 L 167.5,-0 L 167.914,-6.57999 L 169.149,-13.0562 L 171.187,-19.3265 L 173.994,-25.2921 L 177.527,-30.8587
 L 181.729,-35.9387 L 186.535,-40.4519 L 191.869,-44.3272 L 197.647,-47.5034 L 203.777,-49.9305 L 210.162,-51.5701
 L 216.703,-52.3964 L 223.297,-52.3964 L 229.838,-51.5701 L 236.223,-49.9305 L 242.353,-47.5034 L 248.131,-44.3272
 L 253.465,-40.4519 L 258.271,-35.9387 L 262.473,-30.8587 L 266.006,-25.2921 L 268.813,-19.3265 L 270.851,-13.0562
 L 272.086,-6.57999 L 272.5,-0 L 272.086,6.57999 L 270.851,13.0562 L 268.813,19.3265 L 266.006,25.2921
 L 262.473,30.8587 L 258.271,35.9387 L 253.465,40.4519 L 248.131,44.3272 L 242.353,47.5034 L 236.223,49.9305
 L 229.838,51.5701 L 223.297,52.3964 z
M -277.594,-43.503 L -277.781,-43.5266 L -277.964,-43.5734 L -278.139,-43.6428 L -278.304,-43.7335 L -278.456,-43.8442
 L -278.593,-43.9732 L -278.714,-44.1183 L -278.814,-44.2774 L -278.895,-44.4478 L -278.953,-44.627 L -278.988,-44.812
 L -279,-45 L -278.988,-45.188 L -278.953,-45.373 L -278.895,-45.5522 L -278.814,-45.7226 L -278.714,-45.8817
 L -278.593,-46.0268 L -278.456,-46.1558 L -278.304,-46.2665 L -278.139,-46.3572 L -277.964,-46.4266 L -277.781,-46.4734
 L -277.594,-46.497 L -277.406,-46.497 L -277.219,-46.4734 L -277.036,-46.4266 L -276.861,-46.3572 L -276.696,-46.2665
 L -276.544,-46.1558 L -276.407,-46.0268 L -276.286,-45.8817 L -276.186,-45.7226 L -276.105,-45.5522 L -276.047,-45.373
 L -276.012,-45.188 L -276,-45 L -276.012,-44.812 L -276.047,-44.627 L -276.105,-44.4478 L -276.186,-44.2774
 L -276.286,-44.1183 L -276.407,-43.9732 L -276.544,-43.8442 L -276.696,-43.7335 L -276.861,-43.6428 L -277.036,-43.5734
 L -277.219,-43.5266 L -277.406,-43.503 z
M 277.406,-43.503 L 277.219,-43.5266 L 277.036,-43.5734 L 276.861,-43.6428 L 276.696,-43.7335 L 276.544,-43.8442
 L 276.407,-43.9732 L 276.286,-44.1183 L 276.186,-44.2774 L 276.105,-44.4478 L 276.047,-44.627 L 276.012,-44.812
 L 276,-45 L 276.012,-45.188 L 276.047,-45.373 L 276.105,-45.5522 L 276.186,-45.7226 L 276.286,-45.8817
 L 276.407,-46.0268 L 276.544,-46.1558 L 276.696,-46.2665 L 276.861,-46.3572 L 277.036,-46.4266 L 277.219,-46.4734
 L 277.406,-46.497 L 277.594,-46.497 L 277.781,-46.4734 L 277.964,-46.4266 L 278.139,-46.3572 L 278.304,-46.2665
 L 278.456,-46.1558 L 278.593,-46.0268 L 278.714,-45.8817 L 278.814,-45.7226 L 278.895,-45.5522 L 278.953,-45.373
 L 278.988,-45.188 L 279,-45 L 278.988,-44.812 L 278.953,-44.627 L 278.895,-44.4478 L 278.814,-44.2774
 L 278.714,-44.1183 L 278.593,-43.9732 L 278.456,-43.8442 L 278.304,-43.7335 L 278.139,-43.6428 L 277.964,-43.5734
 L 277.781,-43.5266 L 277.594,-43.503 z
M -277.688,-34.5059 L -278.062,-34.5531 L -278.427,-34.6468 L -278.777,-34.7855 L -279.107,-34.967 L -279.412,-35.1885
 L -279.687,-35.4464 L -279.927,-35.7366 L -280.129,-36.0547 L -280.289,-36.3956 L -280.406,-36.7539 L -280.476,-37.124
 L -280.5,-37.5 L -280.476,-37.876 L -280.406,-38.2461 L -280.289,-38.6044 L -280.129,-38.9453 L -279.927,-39.2634
 L -279.687,-39.5536 L -279.412,-39.8115 L -279.107,-40.033 L -278.777,-40.2145 L -278.427,-40.3532 L -278.062,-40.4469
 L -277.688,-40.4941 L -277.312,-40.4941 L -276.938,-40.4469 L -276.573,-40.3532 L -276.223,-40.2145 L -275.893,-40.033
 L -275.588,-39.8115 L -275.313,-39.5536 L -275.073,-39.2634 L -274.871,-38.9453 L -274.711,-38.6044 L -274.594,-38.2461
 L -274.524,-37.876 L -274.5,-37.5 L -274.524,-37.124 L -274.594,-36.7539 L -274.711,-36.3956 L -274.871,-36.0547
 L -275.073,-35.7366 L -275.313,-35.4464 L -275.588,-35.1885 L -275.893,-34.967 L -276.223,-34.7855 L -276.573,-34.6468
 L -276.938,-34.5531 L -277.312,-34.5059 z
M 277.312,-34.5059 L 276.938,-34.5531 L 276.573,-34.6468 L 276.223,-34.7855 L 275.893,-34.967 L 275.588,-35.1885
 L 275.313,-35.4464 L 275.073,-35.7366 L 274.871,-36.0547 L 274.711,-36.3956 L 274.594,-36.7539 L 274.524,-37.124
 L 274.5,-37.5 L 274.524,-37.876 L 274.594,-38.2461 L 274.711,-38.6044 L 274.871,-38.9453 L 275.073,-39.2634
 L 275.313,-39.5536 L 275.588,-39.8115 L 275.893,-40.033 L 276.223,-40.2145 L 276.573,-40.3532 L 276.938,-40.4469
 L 277.312,-40.4941 L 277.688,-40.4941 L 278.062,-40.4469 L 278.427,-40.3532 L 278.777,-40.2145 L 279.107,-40.033
 L 279.412,-39.8115 L 279.687,-39.5536 L 279.927,-39.2634 L 280.129,-38.9453 L 280.289,-38.6044 L 280.406,-38.2461
 L 280.476,-37.876 L 280.5,-37.5 L 280.476,-37.124 L 280.406,-36.7539 L 280.289,-36.3956 L 280.129,-36.0547
 L 279.927,-35.7366 L 279.687,-35.4464 L 279.412,-35.1885 L 279.107,-34.967 L 278.777,-34.7855 L 278.427,-34.6468
 L 278.062,-34.5531 L 277.688,-34.5059 z
M -277.594,-28.503 L -277.781,-28.5266 L -277.964,-28.5734 L -278.139,-28.6427 L -278.304,-28.7335 L -278.456,-28.8442
 L -278.593,-28.9732 L -278.714,-29.1183 L -278.814,-29.2774 L -278.895,-29.4478 L -278.953,-29.627 L -278.988,-29.812
 L -279,-30 L -278.988,-30.188 L -278.953,-30.373 L -278.895,-30.5522 L -278.814,-30.7226 L -278.714,-30.8817
 L -278.593,-31.0268 L -278.456,-31.1558 L -278.304,-31.2665 L -278.139,-31.3572 L -277.964,-31.4266 L -277.781,-31.4734
 L -277.594,-31.497 L -277.406,-31.497 L -277.219,-31.4734 L -277.036,-31.4266 L -276.861,-31.3572 L -276.696,-31.2665
 L -276.544,-31.1558 L -276.407,-31.0268 L -276.286,-30.8817 L -276.186,-30.7226 L -276.105,-30.5522 L -276.047,-30.373
 L -276.012,-30.188 L -276,-30 L -276.012,-29.812 L -276.047,-29.627 L -276.105,-29.4478 L -276.186,-29.2774
 L -276.286,-29.1183 L -276.407,-28.9732 L -276.544,-28.8442 L -276.696,-28.7335 L -276.861,-28.6427 L -277.036,-28.5734
 L -277.219,-28.5266 L -277.406,-28.503 z
M 277.406,-28.503 L 277.219,-28.5266 L 277.036,-28.5734 L 276.861,-28.6427 L 276.696,-28.7335 L 276.544,-28.8442
 L 276.407,-28.9732 L 276.286,-29.1183 L 276.186,-29.2774 L 276.105,-29.4478 L 276.047,-29.627 L 276.012,-29.812
 L 276,-30 L 276.012,-30.188 L 276.047,-30.373 L 276.105,-30.5522 L 276.186,-30.7226 L 276.286,-30.8817
 L 276.407,-31.0268 L 276.544,-31.1558 L 276.696,-31.2665 L 276.861,-31.3572 L 277.036,-31.4266 L 277.219,-31.4734
 L 277.406,-31.497 L 277.594,-31.497 L 277.781,-31.4734 L 277.964,-31.4266 L 278.139,-31.3572 L 278.304,-31.2665
 L 278.456,-31.1558 L 278.593,-31.0268 L 278.714,-30.8817 L 278.814,-30.7226 L 278.895,-30.5522 L 278.953,-30.373
 L 278.988,-30.188 L 279,-30 L 278.988,-29.812 L 278.953,-29.627 L 278.895,-29.4478 L 278.814,-29.2774
 L 278.714,-29.1183 L 278.593,-28.9732 L 278.456,-28.8442 L 278.304,-28.7335 L 278.139,-28.6427 L 277.964,-28.5734
 L 277.781,-28.5266 L 277.594,-28.503 z
M -277.688,-19.5059 L -278.062,-19.5531 L -278.427,-19.6468 L -278.777,-19.7855 L -279.107,-19.967 L -279.412,-20.1884
 L -279.687,-20.4464 L -279.927,-20.7366 L -280.129,-21.0547 L -280.289,-21.3956 L -280.406,-21.7539 L -280.476,-22.124
 L -280.5,-22.5 L -280.476,-22.876 L -280.406,-23.2461 L -280.289,-23.6044 L -280.129,-23.9453 L -279.927,-24.2634
 L -279.687,-24.5536 L -279.412,-24.8115 L -279.107,-25.033 L -278.777,-25.2145 L -278.427,-25.3532 L -278.062,-25.4469
 L -277.688,-25.4941 L -277.312,-25.4941 L -276.938,-25.4469 L -276.573,-25.3532 L -276.223,-25.2145 L -275.893,-25.033
 L -275.588,-24.8115 L -275.313,-24.5536 L -275.073,-24.2634 L -274.871,-23.9453 L -274.711,-23.6044 L -274.594,-23.2461
 L -274.524,-22.876 L -274.5,-22.5 L -274.524,-22.124 L -274.594,-21.7539 L -274.711,-21.3956 L -274.871,-21.0547
 L -275.073,-20.7366 L -275.313,-20.4464 L -275.588,-20.1884 L -275.893,-19.967 L -276.223,-19.7855 L -276.573,-19.6468
 L -276.938,-19.5531 L -277.312,-19.5059 z
M 277.312,-19.5059 L 276.938,-19.5531 L 276.573,-19.6468 L 276.223,-19.7855 L 275.893,-19.967 L 275.588,-20.1884
 L 275.313,-20.4464 L 275.073,-20.7366 L 274.871,-21.0547 L 274.711,-21.3956 L 274.594,-21.7539 L 274.524,-22.124
 L 274.5,-22.5 L 274.524,-22.876 L 274.594,-23.2461 L 274.711,-23.6044 L 274.871,-23.9453 L 275.073,-24.2634
 L 275.313,-24.5536 L 275.588,-24.8115 L 275.893,-25.033 L 276.223,-25.2145 L 276.573,-25.3532 L 276.938,-25.4469
 L 277.312,-25.4941 L 277.688,-25.4941 L 278.062,-25.4469 L 278.427,-25.3532 L 278.777,-25.2145 L 279.107,-25.033
 L 279.412,-24.8115 L 279.687,-24.5536 L 279.927,-24.2634 L 280.129,-23.9453 L 280.289,-23.6044 L 280.406,-23.2461
 L 280.476,-22.876 L 280.5,-22.5 L 280.476,-22.124 L 280.406,-21.7539 L 280.289,-21.3956 L 280.129,-21.0547
 L 279.927,-20.7366 L 279.687,-20.4464 L 279.412,-20.1884 L 279.107,-19.967 L 278.777,-19.7855 L 278.427,-19.6468
 L 278.062,-19.5531 L 277.688,-19.5059 z
M -277.594,-13.5029 L -277.781,-13.5266 L -277.964,-13.5734 L -278.139,-13.6427 L -278.304,-13.7335 L -278.456,-13.8442
 L -278.593,-13.9732 L -278.714,-14.1183 L -278.814,-14.2774 L -278.895,-14.4478 L -278.953,-14.627 L -278.988,-14.812
 L -279,-15 L -278.988,-15.188 L -278.953,-15.373 L -278.895,-15.5522 L -278.814,-15.7226 L -278.714,-15.8817
 L -278.593,-16.0268 L -278.456,-16.1558 L -278.304,-16.2665 L -278.139,-16.3572 L -277.964,-16.4266 L -277.781,-16.4734
 L -277.594,-16.497 L -277.406,-16.497 L -277.219,-16.4734 L -277.036,-16.4266 L -276.861,-16.3572 L -276.696,-16.2665
 L -276.544,-16.1558 L -276.407,-16.0268 L -276.286,-15.8817 L -276.186,-15.7226 L -276.105,-15.5522 L -276.047,-15.373
 L -276.012,-15.188 L -276,-15 L -276.012,-14.812 L -276.047,-14.627 L -276.105,-14.4478 L -276.186,-14.2774
 L -276.286,-14.1183 L -276.407,-13.9732 L -276.544,-13.8442 L -276.696,-13.7335 L -276.861,-13.6427 L -277.036,-13.5734
 L -277.219,-13.5266 L -277.406,-13.5029 z
M 277.406,-13.5029 L 277.219,-13.5266 L 277.036,-13.5734 L 276.861,-13.6427 L 276.696,-13.7335 L 276.544,-13.8442
 L 276.407,-13.9732 L 276.286,-14.1183 L 276.186,-14.2774 L 276.105,-14.4478 L 276.047,-14.627 L 276.012,-14.812
 L 276,-15 L 276.012,-15.188 L 276.047,-15.373 L 276.105,-15.5522 L 276.186,-15.7226 L 276.286,-15.8817
 L 276.407,-16.0268 L 276.544,-16.1558 L 276.696,-16.2665 L 276.861,-16.3572 L 277.036,-16.4266 L 277.219,-16.4734
 L 277.406,-16.497 L 277.594,-16.497 L 277.781,-16.4734 L 277.964,-16.4266 L 278.139,-16.3572 L 278.304,-16.2665
 L 278.456,-16.1558 L 278.593,-16.0268 L 278.714,-15.8817 L 278.814,-15.7226 L 278.895,-15.5522 L 278.953,-15.373
 L 278.988,-15.188 L 279,-15 L 278.988,-14.812 L 278.953,-14.627 L 278.895,-14.4478 L 278.814,-14.2774
 L 278.714,-14.1183 L 278.593,-13.9732 L 278.456,-13.8442 L 278.304,-13.7335 L 278.139,-13.6427 L 277.964,-13.5734
 L 277.781,-13.5266 L 277.594,-13.5029 z
M 277.312,-4.50591 L 276.938,-4.55313 L 276.573,-4.64682 L 276.223,-4.78551 L 275.893,-4.96701 L 275.588,-5.18845
 L 275.313,-5.44635 L 275.073,-5.73663 L 274.871,-6.05473 L 274.711,-6.39561 L 274.594,-6.75392 L 274.524,-7.12399
 L 274.5,-7.5 L 274.524,-7.87599 L 274.594,-8.24606 L 274.711,-8.60437 L 274.871,-8.94525 L 275.073,-9.26335
 L 275.313,-9.55363 L 275.588,-9.81154 L 275.893,-10.033 L 276.223,-10.2145 L 276.573,-10.3532 L 276.938,-10.4469
 L 277.312,-10.4941 L 277.688,-10.4941 L 278.062,-10.4469 L 278.427,-10.3532 L 278.777,-10.2145 L 279.107,-10.033
 L 279.412,-9.81154 L 279.687,-9.55363 L 279.927,-9.26335 L 280.129,-8.94525 L 280.289,-8.60437 L 280.406,-8.24606
 L 280.476,-7.87599 L 280.5,-7.5 L 280.476,-7.12399 L 280.406,-6.75392 L 280.289,-6.39561 L 280.129,-6.05473
 L 279.927,-5.73663 L 279.687,-5.44635 L 279.412,-5.18845 L 279.107,-4.96701 L 278.777,-4.78551 L 278.427,-4.64682
 L 278.062,-4.55313 L 277.688,-4.50591 z
M -277.688,-4.50591 L -278.062,-4.55313 L -278.427,-4.64682 L -278.777,-4.78551 L -279.107,-4.96701 L -279.412,-5.18845
 L -279.687,-5.44635 L -279.927,-5.73663 L -280.129,-6.05473 L -280.289,-6.39561 L -280.406,-6.75392 L -280.476,-7.12399
 L -280.5,-7.5 L -280.476,-7.87599 L -280.406,-8.24606 L -280.289,-8.60437 L -280.129,-8.94525 L -279.927,-9.26335
 L -279.687,-9.55363 L -279.412,-9.81154 L -279.107,-10.033 L -278.777,-10.2145 L -278.427,-10.3532 L -278.062,-10.4469
 L -277.688,-10.4941 L -277.312,-10.4941 L -276.938,-10.4469 L -276.573,-10.3532 L -276.223,-10.2145 L -275.893,-10.033
 L -275.588,-9.81154 L -275.313,-9.55363 L -275.073,-9.26335 L -274.871,-8.94525 L -274.711,-8.60437 L -274.594,-8.24606
 L -274.524,-7.87599 L -274.5,-7.5 L -274.524,-7.12399 L -274.594,-6.75392 L -274.711,-6.39561 L -274.871,-6.05473
 L -275.073,-5.73663 L -275.313,-5.44635 L -275.588,-5.18845 L -275.893,-4.96701 L -276.223,-4.78551 L -276.573,-4.64682
 L -276.938,-4.55313 L -277.312,-4.50591 z
M -277.594,1.49704 L -277.781,1.47342 L -277.964,1.42657 L -278.139,1.35724 L -278.304,1.26648 L -278.456,1.15576
 L -278.593,1.02681 L -278.714,0.881668 L -278.814,0.722626 L -278.895,0.552185 L -278.953,0.373032 L -278.988,0.187988
 L -279,-0 L -278.988,-0.187988 L -278.953,-0.373032 L -278.895,-0.552185 L -278.814,-0.722626 L -278.714,-0.881668
 L -278.593,-1.02681 L -278.456,-1.15576 L -278.304,-1.26648 L -278.139,-1.35724 L -277.964,-1.42657 L -277.781,-1.47342
 L -277.594,-1.49704 L -277.406,-1.49704 L -277.219,-1.47342 L -277.036,-1.42657 L -276.861,-1.35724 L -276.696,-1.26648
 L -276.544,-1.15576 L -276.407,-1.02681 L -276.286,-0.881668 L -276.186,-0.722626 L -276.105,-0.552185 L -276.047,-0.373032
 L -276.012,-0.187988 L -276,-0 L -276.012,0.187988 L -276.047,0.373032 L -276.105,0.552185 L -276.186,0.722626
 L -276.286,0.881668 L -276.407,1.02681 L -276.544,1.15576 L -276.696,1.26648 L -276.861,1.35724 L -277.036,1.42657
 L -277.219,1.47342 L -277.406,1.49704 z
M 277.406,1.49704 L 277.219,1.47342 L 277.036,1.42657 L 276.861,1.35724 L 276.696,1.26648 L 276.544,1.15576
 L 276.407,1.02681 L 276.286,0.881668 L 276.186,0.722626 L 276.105,0.552185 L 276.047,0.373032 L 276.012,0.187988
 L 276,-0 L 276.012,-0.187988 L 276.047,-0.373032 L 276.105,-0.552185 L 276.186,-0.722626 L 276.286,-0.881668
 L 276.407,-1.02681 L 276.544,-1.15576 L 276.696,-1.26648 L 276.861,-1.35724 L 277.036,-1.42657 L 277.219,-1.47342
 L 277.406,-1.49704 L 277.594,-1.49704 L 277.781,-1.47342 L 277.964,-1.42657 L 278.139,-1.35724 L 278.304,-1.26648
 L 278.456,-1.15576 L 278.593,-1.02681 L 278.714,-0.881668 L 278.814,-0.722626 L 278.895,-0.552185 L 278.953,-0.373032
 L 278.988,-0.187988 L 279,-0 L 278.988,0.187988 L 278.953,0.373032 L 278.895,0.552185 L 278.814,0.722626
 L 278.714,0.881668 L 278.593,1.02681 L 278.456,1.15576 L 278.304,1.26648 L 278.139,1.35724 L 277.964,1.42657
 L 277.781,1.47342 L 277.594,1.49704 z
M -277.688,10.4941 L -278.062,10.4469 L -278.427,10.3532 L -278.777,10.2145 L -279.107,10.033 L -279.412,9.81154
 L -279.687,9.55363 L -279.927,9.26335 L -280.129,8.94525 L -280.289,8.60437 L -280.406,8.24606 L -280.476,7.87599
 L -280.5,7.5 L -280.476,7.12399 L -280.406,6.75392 L -280.289,6.39561 L -280.129,6.05473 L -279.927,5.73663
 L -279.687,5.44635 L -279.412,5.18845 L -279.107,4.96701 L -278.777,4.78551 L -278.427,4.64682 L -278.062,4.55313
 L -277.688,4.50591 L -277.312,4.50591 L -276.938,4.55313 L -276.573,4.64682 L -276.223,4.78551 L -275.893,4.96701
 L -275.588,5.18845 L -275.313,5.44635 L -275.073,5.73663 L -274.871,6.05473 L -274.711,6.39561 L -274.594,6.75392
 L -274.524,7.12399 L -274.5,7.5 L -274.524,7.87599 L -274.594,8.24606 L -274.711,8.60437 L -274.871,8.94525
 L -275.073,9.26335 L -275.313,9.55363 L -275.588,9.81154 L -275.893,10.033 L -276.223,10.2145 L -276.573,10.3532
 L -276.938,10.4469 L -277.312,10.4941 z
M 277.312,10.4941 L 276.938,10.4469 L 276.573,10.3532 L 276.223,10.2145 L 275.893,10.033 L 275.588,9.81154
 L 275.313,9.55363 L 275.073,9.26335 L 274.871,8.94525 L 274.711,8.60437 L 274.594,8.24606 L 274.524,7.87599
 L 274.5,7.5 L 274.524,7.12399 L 274.594,6.75392 L 274.711,6.39561 L 274.871,6.05473 L 275.073,5.73663
 L 275.313,5.44635 L 275.588,5.18845 L 275.893,4.96701 L 276.223,4.78551 L 276.573,4.64682 L 276.938,4.55313
 L 277.312,4.50591 L 277.688,4.50591 L 278.062,4.55313 L 278.427,4.64682 L 278.777,4.78551 L 279.107,4.96701
 L 279.412,5.18845 L 279.687,5.44635 L 279.927,5.73663 L 280.129,6.05473 L 280.289,6.39561 L 280.406,6.75392
 L 280.476,7.12399 L 280.5,7.5 L 280.476,7.87599 L 280.406,8.24606 L 280.289,8.60437 L 280.129,8.94525
 L 279.927,9.26335 L 279.687,9.55363 L 279.412,9.81154 L 279.107,10.033 L 278.777,10.2145 L 278.427,10.3532
 L 278.062,10.4469 L 277.688,10.4941 z
M 277.406,16.497 L 277.219,16.4734 L 277.036,16.4266 L 276.861,16.3572 L 276.696,16.2665 L 276.544,16.1558
 L 276.407,16.0268 L 276.286,15.8817 L 276.186,15.7226 L 276.105,15.5522 L 276.047,15.373 L 276.012,15.188
 L 276,15 L 276.012,14.812 L 276.047,14.627 L 276.105,14.4478 L 276.186,14.2774 L 276.286,14.1183
 L 276.407,13.9732 L 276.544,13.8442 L 276.696,13.7335 L 276.861,13.6427 L 277.036,13.5734 L 277.219,13.5266
 L 277.406,13.5029 L 277.594,13.5029 L 277.781,13.5266 L 277.964,13.5734 L 278.139,13.6427 L 278.304,13.7335
 L 278.456,13.8442 L 278.593,13.9732 L 278.714,14.1183 L 278.814,14.2774 L 278.895,14.4478 L 278.953,14.627
 L 278.988,14.812 L 279,15 L 278.988,15.188 L 278.953,15.373 L 278.895,15.5522 L 278.814,15.7226
 L 278.714,15.8817 L 278.593,16.0268 L 278.456,16.1558 L 278.304,16.2665 L 278.139,16.3572 L 277.964,16.4266
 L 277.781,16.4734 L 277.594,16.497 z
M -277.594,16.497 L -277.781,16.4734 L -277.964,16.4266 L -278.139,16.3572 L -278.304,16.2665 L -278.456,16.1558
 L -278.593,16.0268 L -278.714,15.8817 L -278.814,15.7226 L -278.895,15.5522 L -278.953,15.373 L -278.988,15.188
 L -279,15 L -278.988,14.812 L -278.953,14.627 L -278.895,14.4478 L -278.814,14.2774 L -278.714,14.1183
 L -278.593,13.9732 L -278.456,13.8442 L -278.304,13.7335 L -278.139,13.6427 L -277.964,13.5734 L -277.781,13.5266
 L -277.594,13.5029 L -277.406,13.5029 L -277.219,13.5266 L -277.036,13.5734 L -276.861,13.6427 L -276.696,13.7335
 L -276.544,13.8442 L -276.407,13.9732 L -276.286,14.1183 L -276.186,14.2774 L -276.105,14.4478 L -276.047,14.627
 L -276.012,14.812 L -276,15 L -276.012,15.188 L -276.047,15.373 L -276.105,15.5522 L -276.186,15.7226
 L -276.286,15.8817 L -276.407,16.0268 L -276.544,16.1558 L -276.696,16.2665 L -276.861,16.3572 L -277.036,16.4266
 L -277.219,16.4734 L -277.406,16.497 z
M 277.312,25.4941 L 276.938,25.4469 L 276.573,25.3532 L 276.223,25.2145 L 275.893,25.033 L 275.588,24.8115
 L 275.313,24.5536 L 275.073,24.2634 L 274.871,23.9453 L 274.711,23.6044 L 274.594,23.2461 L 274.524,22.876
 L 274.5,22.5 L 274.524,22.124 L 274.594,21.7539 L 274.711,21.3956 L 274.871,21.0547 L 275.073,20.7366
 L 275.313,20.4464 L 275.588,20.1884 L 275.893,19.967 L 276.223,19.7855 L 276.573,19.6468 L 276.938,19.5531
 L 277.312,19.5059 L 277.688,19.5059 L 278.062,19.5531 L 278.427,19.6468 L 278.777,19.7855 L 279.107,19.967
 L 279.412,20.1884 L 279.687,20.4464 L 279.927,20.7366 L 280.129,21.0547 L 280.289,21.3956 L 280.406,21.7539
 L 280.476,22.124 L 280.5,22.5 L 280.476,22.876 L 280.406,23.2461 L 280.289,23.6044 L 280.129,23.9453
 L 279.927,24.2634 L 279.687,24.5536 L 279.412,24.8115 L 279.107,25.033 L 278.777,25.2145 L 278.427,25.3532
 L 278.062,25.4469 L 277.688,25.4941 z
M -277.688,25.4941 L -278.062,25.4469 L -278.427,25.3532 L -278.777,25.2145 L -279.107,25.033 L -279.412,24.8115
 L -279.687,24.5536 L -279.927,24.2634 L -280.129,23.9453 L -280.289,23.6044 L -280.406,23.2461 L -280.476,22.876
 L -280.5,22.5 L -280.476,22.124 L -280.406,21.7539 L -280.289,21.3956 L -280.129,21.0547 L -279.927,20.7366
 L -279.687,20.4464 L -279.412,20.1884 L -279.107,19.967 L -278.777,19.7855 L -278.427,19.6468 L -278.062,19.5531
 L -277.688,19.5059 L -277.312,19.5059 L -276.938,19.5531 L -276.573,19.6468 L -276.223,19.7855 L -275.893,19.967
 L -275.588,20.1884 L -275.313,20.4464 L -275.073,20.7366 L -274.871,21.0547 L -274.711,21.3956 L -274.594,21.7539
 L -274.524,22.124 L -274.5,22.5 L -274.524,22.876 L -274.594,23.2461 L -274.711,23.6044 L -274.871,23.9453
 L -275.073,24.2634 L -275.313,24.5536 L -275.588,24.8115 L -275.893,25.033 L -276.223,25.2145 L -276.573,25.3532
 L -276.938,25.4469 L -277.312,25.4941 z
M -277.594,31.497 L -277.781,31.4734 L -277.964,31.4266 L -278.139,31.3572 L -278.304,31.2665 L -278.456,31.1558
 L -278.593,31.0268 L -278.714,30.8817 L -278.814,30.7226 L -278.895,30.5522 L -278.953,30.373 L -278.988,30.188
 L -279,30 L -278.988,29.812 L -278.953,29.627 L -278.895,29.4478 L -278.814,29.2774 L -278.714,29.1183
 L -278.593,28.9732 L -278.456,28.8442 L -278.304,28.7335 L -278.139,28.6427 L -277.964,28.5734 L -277.781,28.5266
 L -277.594,28.503 L -277.406,28.503 L -277.219,28.5266 L -277.036,28.5734 L -276.861,28.6427 L -276.696,28.7335
 L -276.544,28.8442 L -276.407,28.9732 L -276.286,29.1183 L -276.186,29.2774 L -276.105,29.4478 L -276.047,29.627
 L -276.012,29.812 L -276,30 L -276.012,30.188 L -276.047,30.373 L -276.105,30.5522 L -276.186,30.7226
 L -276.286,30.8817 L -276.407,31.0268 L -276.544,31.1558 L -276.696,31.2665 L -276.861,31.3572 L -277.036,31.4266
 L -277.219,31.4734 L -277.406,31.497 z
M 277.406,31.497 L 277.219,31.4734 L 277.036,31.4266 L 276.861,31.3572 L 276.696,31.2665 L 276.544,31.1558
 L 276.407,31.0268 L 276.286,30.8817 L 276.186,30.7226 L 276.105,30.5522 L 276.047,30.373 L 276.012,30.188
 L 276,30 L 276.012,29.812 L 276.047,29.627 L 276.105,29.4478 L 276.186,29.2774 L 276.286,29.1183
 L 276.407,28.9732 L 276.544,28.8442 L 276.696,28.7335 L 276.861,28.6427 L 277.036,28.5734 L 277.219,28.5266
 L 277.406,28.503 L 277.594,28.503 L 277.781,28.5266 L 277.964,28.5734 L 278.139,28.6427 L 278.304,28.7335
 L 278.456,28.8442 L 278.593,28.9732 L 278.714,29.1183 L 278.814,29.2774 L 278.895,29.4478 L 278.953,29.627
 L 278.988,29.812 L 279,30 L 278.988,30.188 L 278.953,30.373 L 278.895,30.5522 L 278.814,30.7226
 L 278.714,30.8817 L 278.593,31.0268 L 278.456,31.1558 L 278.304,31.2665 L 278.139,31.3572 L 277.964,31.4266
 L 277.781,31.4734 L 277.594,31.497 z
M -277.688,40.4941 L -278.062,40.4469 L -278.427,40.3532 L -278.777,40.2145 L -279.107,40.033 L -279.412,39.8115
 L -279.687,39.5536 L -279.927,39.2634 L -280.129,38.9453 L -280.289,38.6044 L -280.406,38.2461 L -280.476,37.876
 L -280.5,37.5 L -280.476,37.124 L -280.406,36.7539 L -280.289,36.3956 L -280.129,36.0547 L -279.927,35.7366
 L -279.687,35.4464 L -279.412,35.1885 L -279.107,34.967 L -278.777,34.7855 L -278.427,34.6468 L -278.062,34.5531
 L -277.688,34.5059 L -277.312,34.5059 L -276.938,34.5531 L -276.573,34.6468 L -276.223,34.7855 L -275.893,34.967
 L -275.588,35.1885 L -275.313,35.4464 L -275.073,35.7366 L -274.871,36.0547 L -274.711,36.3956 L -274.594,36.7539
 L -274.524,37.124 L -274.5,37.5 L -274.524,37.876 L -274.594,38.2461 L -274.711,38.6044 L -274.871,38.9453
 L -275.073,39.2634 L -275.313,39.5536 L -275.588,39.8115 L -275.893,40.033 L -276.223,40.2145 L -276.573,40.3532
 L -276.938,40.4469 L -277.312,40.4941 z
M 277.312,40.4941 L 276.938,40.4469 L 276.573,40.3532 L 276.223,40.2145 L 275.893,40.033 L 275.588,39.8115
 L 275.313,39.5536 L 275.073,39.2634 L 274.871,38.9453 L 274.711,38.6044 L 274.594,38.2461 L 274.524,37.876
 L 274.5,37.5 L 274.524,37.124 L 274.594,36.7539 L 274.711,36.3956 L 274.871,36.0547 L 275.073,35.7366
 L 275.313,35.4464 L 275.588,35.1885 L 275.893,34.967 L 276.223,34.7855 L 276.573,34.6468 L 276.938,34.5531
 L 277.312,34.5059 L 277.688,34.5059 L 278.062,34.5531 L 278.427,34.6468 L 278.777,34.7855 L 279.107,34.967
 L 279.412,35.1885 L 279.687,35.4464 L 279.927,35.7366 L 280.129,36.0547 L 280.289,36.3956 L 280.406,36.7539
 L 280.476,37.124 L 280.5,37.5 L 280.476,37.876 L 280.406,38.2461 L 280.289,38.6044 L 280.129,38.9453
 L 279.927,39.2634 L 279.687,39.5536 L 279.412,39.8115 L 279.107,40.033 L 278.777,40.2145 L 278.427,40.3532
 L 278.062,40.4469 L 277.688,40.4941 z
M -277.594,46.497 L -277.781,46.4734 L -277.964,46.4266 L -278.139,46.3572 L -278.304,46.2665 L -278.456,46.1558
 L -278.593,46.0268 L -278.714,45.8817 L -278.814,45.7226 L -278.895,45.5522 L -278.953,45.373 L -278.988,45.188
 L -279,45 L -278.988,44.812 L -278.953,44.627 L -278.895,44.4478 L -278.814,44.2774 L -278.714,44.1183
 L -278.593,43.9732 L -278.456,43.8442 L -278.304,43.7335 L -278.139,43.6428 L -277.964,43.5734 L -277.781,43.5266
 L -277.594,43.503 L -277.406,43.503 L -277.219,43.5266 L -277.036,43.5734 L -276.861,43.6428 L -276.696,43.7335
 L -276.544,43.8442 L -276.407,43.9732 L -276.286,44.1183 L -276.186,44.2774 L -276.105,44.4478 L -276.047,44.627
 L -276.012,44.812 L -276,45 L -276.012,45.188 L -276.047,45.373 L -276.105,45.5522 L -276.186,45.7226
 L -276.286,45.8817 L -276.407,46.0268 L -276.544,46.1558 L -276.696,46.2665 L -276.861,46.3572 L -277.036,46.4266
 L -277.219,46.4734 L -277.406,46.497 z
M 277.406,46.497 L 277.219,46.4734 L 277.036,46.4266 L 276.861,46.3572 L 276.696,46.2665 L 276.544,46.1558
 L 276.407,46.0268 L 276.286,45.8817 L 276.186,45.7226 L 276.105,45.5522 L 276.047,45.373 L 276.012,45.188
 L 276,45 L 276.012,44.812 L 276.047,44.627 L 276.105,44.4478 L 276.186,44.2774 L 276.286,44.1183
 L 276.407,43.9732 L 276.544,43.8442 L 276.696,43.7335 L 276.861,43.6428 L 277.036,43.5734 L 277.219,43.5266
 L 277.406,43.503 L 277.594,43.503 L 277.781,43.5266 L 277.964,43.5734 L 278.139,43.6428 L 278.304,43.7335
 L 278.456,43.8442 L 278.593,43.9732 L 278.714,44.1183 L 278.814,44.2774 L 278.895,44.4478 L 278.953,44.627
 L 278.988,44.812 L 279,45 L 278.988,45.188 L 278.953,45.373 L 278.895,45.5522 L 278.814,45.7226
 L 278.714,45.8817 L 278.593,46.0268 L 278.456,46.1558 L 278.304,46.2665 L 278.139,46.3572 L 277.964,46.4266
 L 277.781,46.4734 L 277.594,46.497 z
M 277.312,55.4941 L 276.938,55.4469 L 276.573,55.3532 L 276.223,55.2145 L 275.893,55.033 L 275.588,54.8115
 L 275.313,54.5536 L 275.073,54.2634 L 274.871,53.9453 L 274.711,53.6044 L 274.594,53.2461 L 274.524,52.876
 L 274.5,52.5 L 274.524,52.124 L 274.594,51.7539 L 274.711,51.3956 L 274.871,51.0547 L 275.073,50.7366
 L 275.313,50.4464 L 275.588,50.1885 L 275.893,49.967 L 276.223,49.7855 L 276.573,49.6468 L 276.938,49.5531
 L 277.312,49.5059 L 277.688,49.5059 L 278.062,49.5531 L 278.427,49.6468 L 278.777,49.7855 L 279.107,49.967
 L 279.412,50.1885 L 279.687,50.4464 L 279.927,50.7366 L 280.129,51.0547 L 280.289,51.3956 L 280.406,51.7539
 L 280.476,52.124 L 280.5,52.5 L 280.476,52.876 L 280.406,53.2461 L 280.289,53.6044 L 280.129,53.9453
 L 279.927,54.2634 L 279.687,54.5536 L 279.412,54.8115 L 279.107,55.033 L 278.777,55.2145 L 278.427,55.3532
 L 278.062,55.4469 L 277.688,55.4941 z
M -277.688,55.4941 L -278.062,55.4469 L -278.427,55.3532 L -278.777,55.2145 L -279.107,55.033 L -279.412,54.8115
 L -279.687,54.5536 L -279.927,54.2634 L -280.129,53.9453 L -280.289,53.6044 L -280.406,53.2461 L -280.476,52.876
 L -280.5,52.5 L -280.476,52.124 L -280.406,51.7539 L -280.289,51.3956 L -280.129,51.0547 L -279.927,50.7366
 L -279.687,50.4464 L -279.412,50.1885 L -279.107,49.967 L -278.777,49.7855 L -278.427,49.6468 L -278.062,49.5531
 L -277.688,49.5059 L -277.312,49.5059 L -276.938,49.5531 L -276.573,49.6468 L -276.223,49.7855 L -275.893,49.967
 L -275.588,50.1885 L -275.313,50.4464 L -275.073,50.7366 L -274.871,51.0547 L -274.711,51.3956 L -274.594,51.7539
 L -274.524,52.124 L -274.5,52.5 L -274.524,52.876 L -274.594,53.2461 L -274.711,53.6044 L -274.871,53.9453
 L -275.073,54.2634 L -275.313,54.5536 L -275.588,54.8115 L -275.893,55.033 L -276.223,55.2145 L -276.573,55.3532
 L -276.938,55.4469 L -277.312,55.4941 z
" stroke="black" fill="lightgray" stroke-width="0.5"/>
</svg>
