  0
SECTION
  2
BLOCKS
  0
ENDSEC
  0
SECTION
  2
ENTITIES
  0
LINE
  8
0
 10
77.9369
 20
153.589
 11
78.5451
 21
153.745
  0
LINE
  8
0
 10
78.5451
 20
153.745
 11
79.1289
 21
153.976
  0
LINE
  8
0
 10
79.1289
 20
153.976
 11
79.6791
 21
154.278
  0
LINE
  8
0
 10
79.6791
 20
154.278
 11
80.1871
 21
154.647
  0
LINE
  8
0
 10
80.1871
 20
154.647
 11
80.6448
 21
155.077
  0
LINE
  8
0
 10
80.6448
 20
155.077
 11
81.0451
 21
155.561
  0
LINE
  8
0
 10
81.0451
 20
155.561
 11
81.3815
 21
156.091
  0
LINE
  8
0
 10
81.3815
 20
156.091
 11
81.6489
 21
156.659
  0
LINE
  8
0
 10
81.6489
 20
156.659
 11
81.8429
 21
157.257
  0
LINE
  8
0
 10
81.8429
 20
157.257
 11
81.9606
 21
157.873
  0
LINE
  8
0
 10
81.9606
 20
157.873
 11
82
 21
158.5
  0
LINE
  8
0
 10
82
 20
158.5
 11
82
 21
237.5
  0
LINE
  8
0
 10
82
 20
237.5
 11
81.9606
 21
238.127
  0
LINE
  8
0
 10
81.9606
 20
238.127
 11
81.8429
 21
238.743
  0
LINE
  8
0
 10
81.8429
 20
238.743
 11
81.6489
 21
239.341
  0
LINE
  8
0
 10
81.6489
 20
239.341
 11
81.3815
 21
239.909
  0
LINE
  8
0
 10
81.3815
 20
239.909
 11
81.0451
 21
240.439
  0
LINE
  8
0
 10
81.0451
 20
240.439
 11
80.6448
 21
240.923
  0
LINE
  8
0
 10
80.6448
 20
240.923
 11
80.1871
 21
241.353
  0
LINE
  8
0
 10
80.1871
 20
241.353
 11
79.6791
 21
241.722
  0
LINE
  8
0
 10
79.6791
 20
241.722
 11
79.1289
 21
242.024
  0
LINE
  8
0
 10
79.1289
 20
242.024
 11
78.5451
 21
242.255
  0
LINE
  8
0
 10
78.5451
 20
242.255
 11
77.9369
 21
242.411
  0
LINE
  8
0
 10
77.9369
 20
242.411
 11
77.3139
 21
242.49
  0
LINE
  8
0
 10
77.3139
 20
242.49
 11
-77.3139
 21
242.49
  0
LINE
  8
0
 10
-77.3139
 20
242.49
 11
-77.9369
 21
242.411
  0
LINE
  8
0
 10
-77.9369
 20
242.411
 11
-78.5451
 21
242.255
  0
LINE
  8
0
 10
-78.5451
 20
242.255
 11
-79.1289
 21
242.024
  0
LINE
  8
0
 10
-79.1289
 20
242.024
 11
-79.6791
 21
241.722
  0
LINE
  8
0
 10
-79.6791
 20
241.722
 11
-80.1871
 21
241.353
  0
LINE
  8
0
 10
-80.1871
 20
241.353
 11
-80.6448
 21
240.923
  0
LINE
  8
0
 10
-80.6448
 20
240.923
 11
-81.0451
 21
240.439
  0
LINE
  8
0
 10
-81.0451
 20
240.439
 11
-81.3815
 21
239.909
  0
LINE
  8
0
 10
-81.3815
 20
239.909
 11
-81.6489
 21
239.341
  0
LINE
  8
0
 10
-81.6489
 20
239.341
 11
-81.8429
 21
238.743
  0
LINE
  8
0
 10
-81.8429
 20
238.743
 11
-81.9606
 21
238.127
  0
LINE
  8
0
 10
-81.9606
 20
238.127
 11
-82
 21
237.5
  0
LINE
  8
0
 10
-82
 20
237.5
 11
-82
 21
158.5
  0
LINE
  8
0
 10
-82
 20
158.5
 11
-81.9606
 21
157.873
  0
LINE
  8
0
 10
-81.9606
 20
157.873
 11
-81.8429
 21
157.257
  0
LINE
  8
0
 10
-81.8429
 20
157.257
 11
-81.6489
 21
156.659
  0
LINE
  8
0
 10
-81.6489
 20
156.659
 11
-81.3815
 21
156.091
  0
LINE
  8
0
 10
-81.3815
 20
156.091
 11
-81.0451
 21
155.561
  0
LINE
  8
0
 10
-81.0451
 20
155.561
 11
-80.6448
 21
155.077
  0
LINE
  8
0
 10
-80.6448
 20
155.077
 11
-80.1871
 21
154.647
  0
LINE
  8
0
 10
-80.1871
 20
154.647
 11
-79.6791
 21
154.278
  0
LINE
  8
0
 10
-79.6791
 20
154.278
 11
-79.1289
 21
153.976
  0
LINE
  8
0
 10
-79.1289
 20
153.976
 11
-78.5451
 21
153.745
  0
LINE
  8
0
 10
-78.5451
 20
153.745
 11
-77.9369
 21
153.589
  0
LINE
  8
0
 10
-77.9369
 20
153.589
 11
-77.3139
 21
153.51
  0
LINE
  8
0
 10
-77.3139
 20
153.51
 11
77.3139
 21
153.51
  0
LINE
  8
0
 10
77.3139
 20
153.51
 11
77.9369
 21
153.589
  0
LINE
  8
0
 10
-75.1884
 20
232.506
 11
-75.5621
 21
232.553
  0
LINE
  8
0
 10
-75.5621
 20
232.553
 11
-75.927
 21
232.647
  0
LINE
  8
0
 10
-75.927
 20
232.647
 11
-76.2773
 21
232.786
  0
LINE
  8
0
 10
-76.2773
 20
232.786
 11
-76.6075
 21
232.967
  0
LINE
  8
0
 10
-76.6075
 20
232.967
 11
-76.9123
 21
233.188
  0
LINE
  8
0
 10
-76.9123
 20
233.188
 11
-77.1869
 21
233.446
  0
LINE
  8
0
 10
-77.1869
 20
233.446
 11
-77.427
 21
233.737
  0
LINE
  8
0
 10
-77.427
 20
233.737
 11
-77.6289
 21
234.055
  0
LINE
  8
0
 10
-77.6289
 20
234.055
 11
-77.7893
 21
234.396
  0
LINE
  8
0
 10
-77.7893
 20
234.396
 11
-77.9057
 21
234.754
  0
LINE
  8
0
 10
-77.9057
 20
234.754
 11
-77.9763
 21
235.124
  0
LINE
  8
0
 10
-77.9763
 20
235.124
 11
-78
 21
235.5
  0
LINE
  8
0
 10
-78
 20
235.5
 11
-77.9763
 21
235.876
  0
LINE
  8
0
 10
-77.9763
 20
235.876
 11
-77.9057
 21
236.246
  0
LINE
  8
0
 10
-77.9057
 20
236.246
 11
-77.7893
 21
236.604
  0
LINE
  8
0
 10
-77.7893
 20
236.604
 11
-77.6289
 21
236.945
  0
LINE
  8
0
 10
-77.6289
 20
236.945
 11
-77.427
 21
237.263
  0
LINE
  8
0
 10
-77.427
 20
237.263
 11
-77.1869
 21
237.554
  0
LINE
  8
0
 10
-77.1869
 20
237.554
 11
-76.9123
 21
237.812
  0
LINE
  8
0
 10
-76.9123
 20
237.812
 11
-76.6075
 21
238.033
  0
LINE
  8
0
 10
-76.6075
 20
238.033
 11
-76.2773
 21
238.214
  0
LINE
  8
0
 10
-76.2773
 20
238.214
 11
-75.927
 21
238.353
  0
LINE
  8
0
 10
-75.927
 20
238.353
 11
-75.5621
 21
238.447
  0
LINE
  8
0
 10
-75.5621
 20
238.447
 11
-75.1884
 21
238.494
  0
LINE
  8
0
 10
-75.1884
 20
238.494
 11
-74.8116
 21
238.494
  0
LINE
  8
0
 10
-74.8116
 20
238.494
 11
-74.4379
 21
238.447
  0
LINE
  8
0
 10
-74.4379
 20
238.447
 11
-74.073
 21
238.353
  0
LINE
  8
0
 10
-74.073
 20
238.353
 11
-73.7227
 21
238.214
  0
LINE
  8
0
 10
-73.7227
 20
238.214
 11
-73.3925
 21
238.033
  0
LINE
  8
0
 10
-73.3925
 20
238.033
 11
-73.0877
 21
237.812
  0
LINE
  8
0
 10
-73.0877
 20
237.812
 11
-72.8131
 21
237.554
  0
LINE
  8
0
 10
-72.8131
 20
237.554
 11
-72.573
 21
237.263
  0
LINE
  8
0
 10
-72.573
 20
237.263
 11
-72.3711
 21
236.945
  0
LINE
  8
0
 10
-72.3711
 20
236.945
 11
-72.2107
 21
236.604
  0
LINE
  8
0
 10
-72.2107
 20
236.604
 11
-72.0943
 21
236.246
  0
LINE
  8
0
 10
-72.0943
 20
236.246
 11
-72.0237
 21
235.876
  0
LINE
  8
0
 10
-72.0237
 20
235.876
 11
-72
 21
235.5
  0
LINE
  8
0
 10
-72
 20
235.5
 11
-72.0237
 21
235.124
  0
LINE
  8
0
 10
-72.0237
 20
235.124
 11
-72.0943
 21
234.754
  0
LINE
  8
0
 10
-72.0943
 20
234.754
 11
-72.2107
 21
234.396
  0
LINE
  8
0
 10
-72.2107
 20
234.396
 11
-72.3711
 21
234.055
  0
LINE
  8
0
 10
-72.3711
 20
234.055
 11
-72.573
 21
233.737
  0
LINE
  8
0
 10
-72.573
 20
233.737
 11
-72.8131
 21
233.446
  0
LINE
  8
0
 10
-72.8131
 20
233.446
 11
-73.0877
 21
233.188
  0
LINE
  8
0
 10
-73.0877
 20
233.188
 11
-73.3925
 21
232.967
  0
LINE
  8
0
 10
-73.3925
 20
232.967
 11
-73.7227
 21
232.786
  0
LINE
  8
0
 10
-73.7227
 20
232.786
 11
-74.073
 21
232.647
  0
LINE
  8
0
 10
-74.073
 20
232.647
 11
-74.4379
 21
232.553
  0
LINE
  8
0
 10
-74.4379
 20
232.553
 11
-74.8116
 21
232.506
  0
LINE
  8
0
 10
-74.8116
 20
232.506
 11
-75.1884
 21
232.506
  0
LINE
  8
0
 10
74.8116
 20
232.506
 11
74.4379
 21
232.553
  0
LINE
  8
0
 10
74.4379
 20
232.553
 11
74.073
 21
232.647
  0
LINE
  8
0
 10
74.073
 20
232.647
 11
73.7227
 21
232.786
  0
LINE
  8
0
 10
73.7227
 20
232.786
 11
73.3925
 21
232.967
  0
LINE
  8
0
 10
73.3925
 20
232.967
 11
73.0877
 21
233.188
  0
LINE
  8
0
 10
73.0877
 20
233.188
 11
72.8131
 21
233.446
  0
LINE
  8
0
 10
72.8131
 20
233.446
 11
72.573
 21
233.737
  0
LINE
  8
0
 10
72.573
 20
233.737
 11
72.3711
 21
234.055
  0
LINE
  8
0
 10
72.3711
 20
234.055
 11
72.2107
 21
234.396
  0
LINE
  8
0
 10
72.2107
 20
234.396
 11
72.0943
 21
234.754
  0
LINE
  8
0
 10
72.0943
 20
234.754
 11
72.0237
 21
235.124
  0
LINE
  8
0
 10
72.0237
 20
235.124
 11
72
 21
235.5
  0
LINE
  8
0
 10
72
 20
235.5
 11
72.0237
 21
235.876
  0
LINE
  8
0
 10
72.0237
 20
235.876
 11
72.0943
 21
236.246
  0
LINE
  8
0
 10
72.0943
 20
236.246
 11
72.2107
 21
236.604
  0
LINE
  8
0
 10
72.2107
 20
236.604
 11
72.3711
 21
236.945
  0
LINE
  8
0
 10
72.3711
 20
236.945
 11
72.573
 21
237.263
  0
LINE
  8
0
 10
72.573
 20
237.263
 11
72.8131
 21
237.554
  0
LINE
  8
0
 10
72.8131
 20
237.554
 11
73.0877
 21
237.812
  0
LINE
  8
0
 10
73.0877
 20
237.812
 11
73.3925
 21
238.033
  0
LINE
  8
0
 10
73.3925
 20
238.033
 11
73.7227
 21
238.214
  0
LINE
  8
0
 10
73.7227
 20
238.214
 11
74.073
 21
238.353
  0
LINE
  8
0
 10
74.073
 20
238.353
 11
74.4379
 21
238.447
  0
LINE
  8
0
 10
74.4379
 20
238.447
 11
74.8116
 21
238.494
  0
LINE
  8
0
 10
74.8116
 20
238.494
 11
75.1884
 21
238.494
  0
LINE
  8
0
 10
75.1884
 20
238.494
 11
75.5621
 21
238.447
  0
LINE
  8
0
 10
75.5621
 20
238.447
 11
75.927
 21
238.353
  0
LINE
  8
0
 10
75.927
 20
238.353
 11
76.2773
 21
238.214
  0
LINE
  8
0
 10
76.2773
 20
238.214
 11
76.6075
 21
238.033
  0
LINE
  8
0
 10
76.6075
 20
238.033
 11
76.9123
 21
237.812
  0
LINE
  8
0
 10
76.9123
 20
237.812
 11
77.1869
 21
237.554
  0
LINE
  8
0
 10
77.1869
 20
237.554
 11
77.427
 21
237.263
  0
LINE
  8
0
 10
77.427
 20
237.263
 11
77.6289
 21
236.945
  0
LINE
  8
0
 10
77.6289
 20
236.945
 11
77.7893
 21
236.604
  0
LINE
  8
0
 10
77.7893
 20
236.604
 11
77.9057
 21
236.246
  0
LINE
  8
0
 10
77.9057
 20
236.246
 11
77.9763
 21
235.876
  0
LINE
  8
0
 10
77.9763
 20
235.876
 11
78
 21
235.5
  0
LINE
  8
0
 10
78
 20
235.5
 11
77.9763
 21
235.124
  0
LINE
  8
0
 10
77.9763
 20
235.124
 11
77.9057
 21
234.754
  0
LINE
  8
0
 10
77.9057
 20
234.754
 11
77.7893
 21
234.396
  0
LINE
  8
0
 10
77.7893
 20
234.396
 11
77.6289
 21
234.055
  0
LINE
  8
0
 10
77.6289
 20
234.055
 11
77.427
 21
233.737
  0
LINE
  8
0
 10
77.427
 20
233.737
 11
77.1869
 21
233.446
  0
LINE
  8
0
 10
77.1869
 20
233.446
 11
76.9123
 21
233.188
  0
LINE
  8
0
 10
76.9123
 20
233.188
 11
76.6075
 21
232.967
  0
LINE
  8
0
 10
76.6075
 20
232.967
 11
76.2773
 21
232.786
  0
LINE
  8
0
 10
76.2773
 20
232.786
 11
75.927
 21
232.647
  0
LINE
  8
0
 10
75.927
 20
232.647
 11
75.5621
 21
232.553
  0
LINE
  8
0
 10
75.5621
 20
232.553
 11
75.1884
 21
232.506
  0
LINE
  8
0
 10
75.1884
 20
232.506
 11
74.8116
 21
232.506
  0
LINE
  8
0
 10
35.3023
 20
163.069
 11
30.9417
 21
163.62
  0
LINE
  8
0
 10
30.9417
 20
163.62
 11
26.6844
 21
164.713
  0
LINE
  8
0
 10
26.6844
 20
164.713
 11
22.5977
 21
166.331
  0
LINE
  8
0
 10
22.5977
 20
166.331
 11
18.746
 21
168.449
  0
LINE
  8
0
 10
18.746
 20
168.449
 11
15.1902
 21
171.032
  0
LINE
  8
0
 10
15.1902
 20
171.032
 11
11.9861
 21
174.041
  0
LINE
  8
0
 10
11.9861
 20
174.041
 11
9.1844
 21
177.428
  0
LINE
  8
0
 10
9.1844
 20
177.428
 11
6.82925
 21
181.139
  0
LINE
  8
0
 10
6.82925
 20
181.139
 11
4.95781
 21
185.116
  0
LINE
  8
0
 10
4.95781
 20
185.116
 11
3.59958
 21
189.296
  0
LINE
  8
0
 10
3.59958
 20
189.296
 11
2.77597
 21
193.613
  0
LINE
  8
0
 10
2.77597
 20
193.613
 11
2.5
 21
198
  0
LINE
  8
0
 10
2.5
 20
198
 11
2.77597
 21
202.387
  0
LINE
  8
0
 10
2.77597
 20
202.387
 11
3.59958
 21
206.704
  0
LINE
  8
0
 10
3.59958
 20
206.704
 11
4.95781
 21
210.884
  0
LINE
  8
0
 10
4.95781
 20
210.884
 11
6.82925
 21
214.861
  0
LINE
  8
0
 10
6.82925
 20
214.861
 11
9.1844
 21
218.572
  0
LINE
  8
0
 10
9.1844
 20
218.572
 11
11.9861
 21
221.959
  0
LINE
  8
0
 10
11.9861
 20
221.959
 11
15.1902
 21
224.968
  0
LINE
  8
0
 10
15.1902
 20
224.968
 11
18.746
 21
227.551
  0
LINE
  8
0
 10
18.746
 20
227.551
 11
22.5977
 21
229.669
  0
LINE
  8
0
 10
22.5977
 20
229.669
 11
26.6844
 21
231.287
  0
LINE
  8
0
 10
26.6844
 20
231.287
 11
30.9417
 21
232.38
  0
LINE
  8
0
 10
30.9417
 20
232.38
 11
35.3023
 21
232.931
  0
LINE
  8
0
 10
35.3023
 20
232.931
 11
39.6977
 21
232.931
  0
LINE
  8
0
 10
39.6977
 20
232.931
 11
44.0583
 21
232.38
  0
LINE
  8
0
 10
44.0583
 20
232.38
 11
48.3156
 21
231.287
  0
LINE
  8
0
 10
48.3156
 20
231.287
 11
52.4023
 21
229.669
  0
LINE
  8
0
 10
52.4023
 20
229.669
 11
56.2539
 21
227.551
  0
LINE
  8
0
 10
56.2539
 20
227.551
 11
59.8098
 21
224.968
  0
LINE
  8
0
 10
59.8098
 20
224.968
 11
63.0139
 21
221.959
  0
LINE
  8
0
 10
63.0139
 20
221.959
 11
65.8156
 21
218.572
  0
LINE
  8
0
 10
65.8156
 20
218.572
 11
68.1707
 21
214.861
  0
LINE
  8
0
 10
68.1707
 20
214.861
 11
70.0422
 21
210.884
  0
LINE
  8
0
 10
70.0422
 20
210.884
 11
71.4004
 21
206.704
  0
LINE
  8
0
 10
71.4004
 20
206.704
 11
72.224
 21
202.387
  0
LINE
  8
0
 10
72.224
 20
202.387
 11
72.5
 21
198
  0
LINE
  8
0
 10
72.5
 20
198
 11
72.224
 21
193.613
  0
LINE
  8
0
 10
72.224
 20
193.613
 11
71.4004
 21
189.296
  0
LINE
  8
0
 10
71.4004
 20
189.296
 11
70.0422
 21
185.116
  0
LINE
  8
0
 10
70.0422
 20
185.116
 11
68.1707
 21
181.139
  0
LINE
  8
0
 10
68.1707
 20
181.139
 11
65.8156
 21
177.428
  0
LINE
  8
0
 10
65.8156
 20
177.428
 11
63.0139
 21
174.041
  0
LINE
  8
0
 10
63.0139
 20
174.041
 11
59.8098
 21
171.032
  0
LINE
  8
0
 10
59.8098
 20
171.032
 11
56.2539
 21
168.449
  0
LINE
  8
0
 10
56.2539
 20
168.449
 11
52.4023
 21
166.331
  0
LINE
  8
0
 10
52.4023
 20
166.331
 11
48.3156
 21
164.713
  0
LINE
  8
0
 10
48.3156
 20
164.713
 11
44.0583
 21
163.62
  0
LINE
  8
0
 10
44.0583
 20
163.62
 11
39.6977
 21
163.069
  0
LINE
  8
0
 10
39.6977
 20
163.069
 11
35.3023
 21
163.069
  0
LINE
  8
0
 10
-39.6977
 20
163.069
 11
-44.0583
 21
163.62
  0
LINE
  8
0
 10
-44.0583
 20
163.62
 11
-48.3156
 21
164.713
  0
LINE
  8
0
 10
-48.3156
 20
164.713
 11
-52.4023
 21
166.331
  0
LINE
  8
0
 10
-52.4023
 20
166.331
 11
-56.2539
 21
168.449
  0
LINE
  8
0
 10
-56.2539
 20
168.449
 11
-59.8098
 21
171.032
  0
LINE
  8
0
 10
-59.8098
 20
171.032
 11
-63.0139
 21
174.041
  0
LINE
  8
0
 10
-63.0139
 20
174.041
 11
-65.8156
 21
177.428
  0
LINE
  8
0
 10
-65.8156
 20
177.428
 11
-68.1707
 21
181.139
  0
LINE
  8
0
 10
-68.1707
 20
181.139
 11
-70.0422
 21
185.116
  0
LINE
  8
0
 10
-70.0422
 20
185.116
 11
-71.4004
 21
189.296
  0
LINE
  8
0
 10
-71.4004
 20
189.296
 11
-72.224
 21
193.613
  0
LINE
  8
0
 10
-72.224
 20
193.613
 11
-72.5
 21
198
  0
LINE
  8
0
 10
-72.5
 20
198
 11
-72.224
 21
202.387
  0
LINE
  8
0
 10
-72.224
 20
202.387
 11
-71.4004
 21
206.704
  0
LINE
  8
0
 10
-71.4004
 20
206.704
 11
-70.0422
 21
210.884
  0
LINE
  8
0
 10
-70.0422
 20
210.884
 11
-68.1707
 21
214.861
  0
LINE
  8
0
 10
-68.1707
 20
214.861
 11
-65.8156
 21
218.572
  0
LINE
  8
0
 10
-65.8156
 20
218.572
 11
-63.0139
 21
221.959
  0
LINE
  8
0
 10
-63.0139
 20
221.959
 11
-59.8098
 21
224.968
  0
LINE
  8
0
 10
-59.8098
 20
224.968
 11
-56.2539
 21
227.551
  0
LINE
  8
0
 10
-56.2539
 20
227.551
 11
-52.4023
 21
229.669
  0
LINE
  8
0
 10
-52.4023
 20
229.669
 11
-48.3156
 21
231.287
  0
LINE
  8
0
 10
-48.3156
 20
231.287
 11
-44.0583
 21
232.38
  0
LINE
  8
0
 10
-44.0583
 20
232.38
 11
-39.6977
 21
232.931
  0
LINE
  8
0
 10
-39.6977
 20
232.931
 11
-35.3023
 21
232.931
  0
LINE
  8
0
 10
-35.3023
 20
232.931
 11
-30.9417
 21
232.38
  0
LINE
  8
0
 10
-30.9417
 20
232.38
 11
-26.6844
 21
231.287
  0
LINE
  8
0
 10
-26.6844
 20
231.287
 11
-22.5977
 21
229.669
  0
LINE
  8
0
 10
-22.5977
 20
229.669
 11
-18.746
 21
227.551
  0
LINE
  8
0
 10
-18.746
 20
227.551
 11
-15.1902
 21
224.968
  0
LINE
  8
0
 10
-15.1902
 20
224.968
 11
-11.9861
 21
221.959
  0
LINE
  8
0
 10
-11.9861
 20
221.959
 11
-9.1844
 21
218.572
  0
LINE
  8
0
 10
-9.1844
 20
218.572
 11
-6.82925
 21
214.861
  0
LINE
  8
0
 10
-6.82925
 20
214.861
 11
-4.95781
 21
210.884
  0
LINE
  8
0
 10
-4.95781
 20
210.884
 11
-3.59958
 21
206.704
  0
LINE
  8
0
 10
-3.59958
 20
206.704
 11
-2.77597
 21
202.387
  0
LINE
  8
0
 10
-2.77597
 20
202.387
 11
-2.5
 21
198
  0
LINE
  8
0
 10
-2.5
 20
198
 11
-2.77597
 21
193.613
  0
LINE
  8
0
 10
-2.77597
 20
193.613
 11
-3.59958
 21
189.296
  0
LINE
  8
0
 10
-3.59958
 20
189.296
 11
-4.95781
 21
185.116
  0
LINE
  8
0
 10
-4.95781
 20
185.116
 11
-6.82925
 21
181.139
  0
LINE
  8
0
 10
-6.82925
 20
181.139
 11
-9.1844
 21
177.428
  0
LINE
  8
0
 10
-9.1844
 20
177.428
 11
-11.9861
 21
174.041
  0
LINE
  8
0
 10
-11.9861
 20
174.041
 11
-15.1902
 21
171.032
  0
LINE
  8
0
 10
-15.1902
 20
171.032
 11
-18.746
 21
168.449
  0
LINE
  8
0
 10
-18.746
 20
168.449
 11
-22.5977
 21
166.331
  0
LINE
  8
0
 10
-22.5977
 20
166.331
 11
-26.6844
 21
164.713
  0
LINE
  8
0
 10
-26.6844
 20
164.713
 11
-30.9417
 21
163.62
  0
LINE
  8
0
 10
-30.9417
 20
163.62
 11
-35.3023
 21
163.069
  0
LINE
  8
0
 10
-35.3023
 20
163.069
 11
-39.6977
 21
163.069
  0
LINE
  8
0
 10
-75.1884
 20
157.506
 11
-75.5621
 21
157.553
  0
LINE
  8
0
 10
-75.5621
 20
157.553
 11
-75.927
 21
157.647
  0
LINE
  8
0
 10
-75.927
 20
157.647
 11
-76.2773
 21
157.786
  0
LINE
  8
0
 10
-76.2773
 20
157.786
 11
-76.6075
 21
157.967
  0
LINE
  8
0
 10
-76.6075
 20
157.967
 11
-76.9123
 21
158.188
  0
LINE
  8
0
 10
-76.9123
 20
158.188
 11
-77.1869
 21
158.446
  0
LINE
  8
0
 10
-77.1869
 20
158.446
 11
-77.427
 21
158.737
  0
LINE
  8
0
 10
-77.427
 20
158.737
 11
-77.6289
 21
159.055
  0
LINE
  8
0
 10
-77.6289
 20
159.055
 11
-77.7893
 21
159.396
  0
LINE
  8
0
 10
-77.7893
 20
159.396
 11
-77.9057
 21
159.754
  0
LINE
  8
0
 10
-77.9057
 20
159.754
 11
-77.9763
 21
160.124
  0
LINE
  8
0
 10
-77.9763
 20
160.124
 11
-78
 21
160.5
  0
LINE
  8
0
 10
-78
 20
160.5
 11
-77.9763
 21
160.876
  0
LINE
  8
0
 10
-77.9763
 20
160.876
 11
-77.9057
 21
161.246
  0
LINE
  8
0
 10
-77.9057
 20
161.246
 11
-77.7893
 21
161.604
  0
LINE
  8
0
 10
-77.7893
 20
161.604
 11
-77.6289
 21
161.945
  0
LINE
  8
0
 10
-77.6289
 20
161.945
 11
-77.427
 21
162.263
  0
LINE
  8
0
 10
-77.427
 20
162.263
 11
-77.1869
 21
162.554
  0
LINE
  8
0
 10
-77.1869
 20
162.554
 11
-76.9123
 21
162.812
  0
LINE
  8
0
 10
-76.9123
 20
162.812
 11
-76.6075
 21
163.033
  0
LINE
  8
0
 10
-76.6075
 20
163.033
 11
-76.2773
 21
163.214
  0
LINE
  8
0
 10
-76.2773
 20
163.214
 11
-75.927
 21
163.353
  0
LINE
  8
0
 10
-75.927
 20
163.353
 11
-75.5621
 21
163.447
  0
LINE
  8
0
 10
-75.5621
 20
163.447
 11
-75.1884
 21
163.494
  0
LINE
  8
0
 10
-75.1884
 20
163.494
 11
-74.8116
 21
163.494
  0
LINE
  8
0
 10
-74.8116
 20
163.494
 11
-74.4379
 21
163.447
  0
LINE
  8
0
 10
-74.4379
 20
163.447
 11
-74.073
 21
163.353
  0
LINE
  8
0
 10
-74.073
 20
163.353
 11
-73.7227
 21
163.214
  0
LINE
  8
0
 10
-73.7227
 20
163.214
 11
-73.3925
 21
163.033
  0
LINE
  8
0
 10
-73.3925
 20
163.033
 11
-73.0877
 21
162.812
  0
LINE
  8
0
 10
-73.0877
 20
162.812
 11
-72.8131
 21
162.554
  0
LINE
  8
0
 10
-72.8131
 20
162.554
 11
-72.573
 21
162.263
  0
LINE
  8
0
 10
-72.573
 20
162.263
 11
-72.3711
 21
161.945
  0
LINE
  8
0
 10
-72.3711
 20
161.945
 11
-72.2107
 21
161.604
  0
LINE
  8
0
 10
-72.2107
 20
161.604
 11
-72.0943
 21
161.246
  0
LINE
  8
0
 10
-72.0943
 20
161.246
 11
-72.0237
 21
160.876
  0
LINE
  8
0
 10
-72.0237
 20
160.876
 11
-72
 21
160.5
  0
LINE
  8
0
 10
-72
 20
160.5
 11
-72.0237
 21
160.124
  0
LINE
  8
0
 10
-72.0237
 20
160.124
 11
-72.0943
 21
159.754
  0
LINE
  8
0
 10
-72.0943
 20
159.754
 11
-72.2107
 21
159.396
  0
LINE
  8
0
 10
-72.2107
 20
159.396
 11
-72.3711
 21
159.055
  0
LINE
  8
0
 10
-72.3711
 20
159.055
 11
-72.573
 21
158.737
  0
LINE
  8
0
 10
-72.573
 20
158.737
 11
-72.8131
 21
158.446
  0
LINE
  8
0
 10
-72.8131
 20
158.446
 11
-73.0877
 21
158.188
  0
LINE
  8
0
 10
-73.0877
 20
158.188
 11
-73.3925
 21
157.967
  0
LINE
  8
0
 10
-73.3925
 20
157.967
 11
-73.7227
 21
157.786
  0
LINE
  8
0
 10
-73.7227
 20
157.786
 11
-74.073
 21
157.647
  0
LINE
  8
0
 10
-74.073
 20
157.647
 11
-74.4379
 21
157.553
  0
LINE
  8
0
 10
-74.4379
 20
157.553
 11
-74.8116
 21
157.506
  0
LINE
  8
0
 10
-74.8116
 20
157.506
 11
-75.1884
 21
157.506
  0
LINE
  8
0
 10
74.8116
 20
157.506
 11
74.4379
 21
157.553
  0
LINE
  8
0
 10
74.4379
 20
157.553
 11
74.073
 21
157.647
  0
LINE
  8
0
 10
74.073
 20
157.647
 11
73.7227
 21
157.786
  0
LINE
  8
0
 10
73.7227
 20
157.786
 11
73.3925
 21
157.967
  0
LINE
  8
0
 10
73.3925
 20
157.967
 11
73.0877
 21
158.188
  0
LINE
  8
0
 10
73.0877
 20
158.188
 11
72.8131
 21
158.446
  0
LINE
  8
0
 10
72.8131
 20
158.446
 11
72.573
 21
158.737
  0
LINE
  8
0
 10
72.573
 20
158.737
 11
72.3711
 21
159.055
  0
LINE
  8
0
 10
72.3711
 20
159.055
 11
72.2107
 21
159.396
  0
LINE
  8
0
 10
72.2107
 20
159.396
 11
72.0943
 21
159.754
  0
LINE
  8
0
 10
72.0943
 20
159.754
 11
72.0237
 21
160.124
  0
LINE
  8
0
 10
72.0237
 20
160.124
 11
72
 21
160.5
  0
LINE
  8
0
 10
72
 20
160.5
 11
72.0237
 21
160.876
  0
LINE
  8
0
 10
72.0237
 20
160.876
 11
72.0943
 21
161.246
  0
LINE
  8
0
 10
72.0943
 20
161.246
 11
72.2107
 21
161.604
  0
LINE
  8
0
 10
72.2107
 20
161.604
 11
72.3711
 21
161.945
  0
LINE
  8
0
 10
72.3711
 20
161.945
 11
72.573
 21
162.263
  0
LINE
  8
0
 10
72.573
 20
162.263
 11
72.8131
 21
162.554
  0
LINE
  8
0
 10
72.8131
 20
162.554
 11
73.0877
 21
162.812
  0
LINE
  8
0
 10
73.0877
 20
162.812
 11
73.3925
 21
163.033
  0
LINE
  8
0
 10
73.3925
 20
163.033
 11
73.7227
 21
163.214
  0
LINE
  8
0
 10
73.7227
 20
163.214
 11
74.073
 21
163.353
  0
LINE
  8
0
 10
74.073
 20
163.353
 11
74.4379
 21
163.447
  0
LINE
  8
0
 10
74.4379
 20
163.447
 11
74.8116
 21
163.494
  0
LINE
  8
0
 10
74.8116
 20
163.494
 11
75.1884
 21
163.494
  0
LINE
  8
0
 10
75.1884
 20
163.494
 11
75.5621
 21
163.447
  0
LINE
  8
0
 10
75.5621
 20
163.447
 11
75.927
 21
163.353
  0
LINE
  8
0
 10
75.927
 20
163.353
 11
76.2773
 21
163.214
  0
LINE
  8
0
 10
76.2773
 20
163.214
 11
76.6075
 21
163.033
  0
LINE
  8
0
 10
76.6075
 20
163.033
 11
76.9123
 21
162.812
  0
LINE
  8
0
 10
76.9123
 20
162.812
 11
77.1869
 21
162.554
  0
LINE
  8
0
 10
77.1869
 20
162.554
 11
77.427
 21
162.263
  0
LINE
  8
0
 10
77.427
 20
162.263
 11
77.6289
 21
161.945
  0
LINE
  8
0
 10
77.6289
 20
161.945
 11
77.7893
 21
161.604
  0
LINE
  8
0
 10
77.7893
 20
161.604
 11
77.9057
 21
161.246
  0
LINE
  8
0
 10
77.9057
 20
161.246
 11
77.9763
 21
160.876
  0
LINE
  8
0
 10
77.9763
 20
160.876
 11
78
 21
160.5
  0
LINE
  8
0
 10
78
 20
160.5
 11
77.9763
 21
160.124
  0
LINE
  8
0
 10
77.9763
 20
160.124
 11
77.9057
 21
159.754
  0
LINE
  8
0
 10
77.9057
 20
159.754
 11
77.7893
 21
159.396
  0
LINE
  8
0
 10
77.7893
 20
159.396
 11
77.6289
 21
159.055
  0
LINE
  8
0
 10
77.6289
 20
159.055
 11
77.427
 21
158.737
  0
LINE
  8
0
 10
77.427
 20
158.737
 11
77.1869
 21
158.446
  0
LINE
  8
0
 10
77.1869
 20
158.446
 11
76.9123
 21
158.188
  0
LINE
  8
0
 10
76.9123
 20
158.188
 11
76.6075
 21
157.967
  0
LINE
  8
0
 10
76.6075
 20
157.967
 11
76.2773
 21
157.786
  0
LINE
  8
0
 10
76.2773
 20
157.786
 11
75.927
 21
157.647
  0
LINE
  8
0
 10
75.927
 20
157.647
 11
75.5621
 21
157.553
  0
LINE
  8
0
 10
75.5621
 20
157.553
 11
75.1884
 21
157.506
  0
LINE
  8
0
 10
75.1884
 20
157.506
 11
74.8116
 21
157.506
  0
LINE
  8
0
 10
77.9369
 20
54.5886
 11
78.5451
 21
54.7447
  0
LINE
  8
0
 10
78.5451
 20
54.7447
 11
79.1289
 21
54.9759
  0
LINE
  8
0
 10
79.1289
 20
54.9759
 11
79.6791
 21
55.2784
  0
LINE
  8
0
 10
79.6791
 20
55.2784
 11
80.1871
 21
55.6474
  0
LINE
  8
0
 10
80.1871
 20
55.6474
 11
80.6448
 21
56.0773
  0
LINE
  8
0
 10
80.6448
 20
56.0773
 11
81.0451
 21
56.5611
  0
LINE
  8
0
 10
81.0451
 20
56.5611
 11
81.3815
 21
57.0912
  0
LINE
  8
0
 10
81.3815
 20
57.0912
 11
81.6489
 21
57.6594
  0
LINE
  8
0
 10
81.6489
 20
57.6594
 11
81.8429
 21
58.2566
  0
LINE
  8
0
 10
81.8429
 20
58.2566
 11
81.9606
 21
58.8733
  0
LINE
  8
0
 10
81.9606
 20
58.8733
 11
82
 21
59.5
  0
LINE
  8
0
 10
82
 20
59.5
 11
82
 21
138.5
  0
LINE
  8
0
 10
82
 20
138.5
 11
81.9606
 21
139.127
  0
LINE
  8
0
 10
81.9606
 20
139.127
 11
81.8429
 21
139.743
  0
LINE
  8
0
 10
81.8429
 20
139.743
 11
81.6489
 21
140.341
  0
LINE
  8
0
 10
81.6489
 20
140.341
 11
81.3815
 21
140.909
  0
LINE
  8
0
 10
81.3815
 20
140.909
 11
81.0451
 21
141.439
  0
LINE
  8
0
 10
81.0451
 20
141.439
 11
80.6448
 21
141.923
  0
LINE
  8
0
 10
80.6448
 20
141.923
 11
80.1871
 21
142.353
  0
LINE
  8
0
 10
80.1871
 20
142.353
 11
79.6791
 21
142.722
  0
LINE
  8
0
 10
79.6791
 20
142.722
 11
79.1289
 21
143.024
  0
LINE
  8
0
 10
79.1289
 20
143.024
 11
78.5451
 21
143.255
  0
LINE
  8
0
 10
78.5451
 20
143.255
 11
77.9369
 21
143.411
  0
LINE
  8
0
 10
77.9369
 20
143.411
 11
77.3139
 21
143.49
  0
LINE
  8
0
 10
77.3139
 20
143.49
 11
-77.3139
 21
143.49
  0
LINE
  8
0
 10
-77.3139
 20
143.49
 11
-77.9369
 21
143.411
  0
LINE
  8
0
 10
-77.9369
 20
143.411
 11
-78.5451
 21
143.255
  0
LINE
  8
0
 10
-78.5451
 20
143.255
 11
-79.1289
 21
143.024
  0
LINE
  8
0
 10
-79.1289
 20
143.024
 11
-79.6791
 21
142.722
  0
LINE
  8
0
 10
-79.6791
 20
142.722
 11
-80.1871
 21
142.353
  0
LINE
  8
0
 10
-80.1871
 20
142.353
 11
-80.6448
 21
141.923
  0
LINE
  8
0
 10
-80.6448
 20
141.923
 11
-81.0451
 21
141.439
  0
LINE
  8
0
 10
-81.0451
 20
141.439
 11
-81.3815
 21
140.909
  0
LINE
  8
0
 10
-81.3815
 20
140.909
 11
-81.6489
 21
140.341
  0
LINE
  8
0
 10
-81.6489
 20
140.341
 11
-81.8429
 21
139.743
  0
LINE
  8
0
 10
-81.8429
 20
139.743
 11
-81.9606
 21
139.127
  0
LINE
  8
0
 10
-81.9606
 20
139.127
 11
-82
 21
138.5
  0
LINE
  8
0
 10
-82
 20
138.5
 11
-82
 21
59.5
  0
LINE
  8
0
 10
-82
 20
59.5
 11
-81.9606
 21
58.8733
  0
LINE
  8
0
 10
-81.9606
 20
58.8733
 11
-81.8429
 21
58.2566
  0
LINE
  8
0
 10
-81.8429
 20
58.2566
 11
-81.6489
 21
57.6594
  0
LINE
  8
0
 10
-81.6489
 20
57.6594
 11
-81.3815
 21
57.0912
  0
LINE
  8
0
 10
-81.3815
 20
57.0912
 11
-81.0451
 21
56.5611
  0
LINE
  8
0
 10
-81.0451
 20
56.5611
 11
-80.6448
 21
56.0773
  0
LINE
  8
0
 10
-80.6448
 20
56.0773
 11
-80.1871
 21
55.6474
  0
LINE
  8
0
 10
-80.1871
 20
55.6474
 11
-79.6791
 21
55.2784
  0
LINE
  8
0
 10
-79.6791
 20
55.2784
 11
-79.1289
 21
54.9759
  0
LINE
  8
0
 10
-79.1289
 20
54.9759
 11
-78.5451
 21
54.7447
  0
LINE
  8
0
 10
-78.5451
 20
54.7447
 11
-77.9369
 21
54.5886
  0
LINE
  8
0
 10
-77.9369
 20
54.5886
 11
-77.3139
 21
54.5099
  0
LINE
  8
0
 10
-77.3139
 20
54.5099
 11
77.3139
 21
54.5099
  0
LINE
  8
0
 10
77.3139
 20
54.5099
 11
77.9369
 21
54.5886
  0
LINE
  8
0
 10
-75.1884
 20
133.506
 11
-75.5621
 21
133.553
  0
LINE
  8
0
 10
-75.5621
 20
133.553
 11
-75.927
 21
133.647
  0
LINE
  8
0
 10
-75.927
 20
133.647
 11
-76.2773
 21
133.786
  0
LINE
  8
0
 10
-76.2773
 20
133.786
 11
-76.6075
 21
133.967
  0
LINE
  8
0
 10
-76.6075
 20
133.967
 11
-76.9123
 21
134.188
  0
LINE
  8
0
 10
-76.9123
 20
134.188
 11
-77.1869
 21
134.446
  0
LINE
  8
0
 10
-77.1869
 20
134.446
 11
-77.427
 21
134.737
  0
LINE
  8
0
 10
-77.427
 20
134.737
 11
-77.6289
 21
135.055
  0
LINE
  8
0
 10
-77.6289
 20
135.055
 11
-77.7893
 21
135.396
  0
LINE
  8
0
 10
-77.7893
 20
135.396
 11
-77.9057
 21
135.754
  0
LINE
  8
0
 10
-77.9057
 20
135.754
 11
-77.9763
 21
136.124
  0
LINE
  8
0
 10
-77.9763
 20
136.124
 11
-78
 21
136.5
  0
LINE
  8
0
 10
-78
 20
136.5
 11
-77.9763
 21
136.876
  0
LINE
  8
0
 10
-77.9763
 20
136.876
 11
-77.9057
 21
137.246
  0
LINE
  8
0
 10
-77.9057
 20
137.246
 11
-77.7893
 21
137.604
  0
LINE
  8
0
 10
-77.7893
 20
137.604
 11
-77.6289
 21
137.945
  0
LINE
  8
0
 10
-77.6289
 20
137.945
 11
-77.427
 21
138.263
  0
LINE
  8
0
 10
-77.427
 20
138.263
 11
-77.1869
 21
138.554
  0
LINE
  8
0
 10
-77.1869
 20
138.554
 11
-76.9123
 21
138.812
  0
LINE
  8
0
 10
-76.9123
 20
138.812
 11
-76.6075
 21
139.033
  0
LINE
  8
0
 10
-76.6075
 20
139.033
 11
-76.2773
 21
139.214
  0
LINE
  8
0
 10
-76.2773
 20
139.214
 11
-75.927
 21
139.353
  0
LINE
  8
0
 10
-75.927
 20
139.353
 11
-75.5621
 21
139.447
  0
LINE
  8
0
 10
-75.5621
 20
139.447
 11
-75.1884
 21
139.494
  0
LINE
  8
0
 10
-75.1884
 20
139.494
 11
-74.8116
 21
139.494
  0
LINE
  8
0
 10
-74.8116
 20
139.494
 11
-74.4379
 21
139.447
  0
LINE
  8
0
 10
-74.4379
 20
139.447
 11
-74.073
 21
139.353
  0
LINE
  8
0
 10
-74.073
 20
139.353
 11
-73.7227
 21
139.214
  0
LINE
  8
0
 10
-73.7227
 20
139.214
 11
-73.3925
 21
139.033
  0
LINE
  8
0
 10
-73.3925
 20
139.033
 11
-73.0877
 21
138.812
  0
LINE
  8
0
 10
-73.0877
 20
138.812
 11
-72.8131
 21
138.554
  0
LINE
  8
0
 10
-72.8131
 20
138.554
 11
-72.573
 21
138.263
  0
LINE
  8
0
 10
-72.573
 20
138.263
 11
-72.3711
 21
137.945
  0
LINE
  8
0
 10
-72.3711
 20
137.945
 11
-72.2107
 21
137.604
  0
LINE
  8
0
 10
-72.2107
 20
137.604
 11
-72.0943
 21
137.246
  0
LINE
  8
0
 10
-72.0943
 20
137.246
 11
-72.0237
 21
136.876
  0
LINE
  8
0
 10
-72.0237
 20
136.876
 11
-72
 21
136.5
  0
LINE
  8
0
 10
-72
 20
136.5
 11
-72.0237
 21
136.124
  0
LINE
  8
0
 10
-72.0237
 20
136.124
 11
-72.0943
 21
135.754
  0
LINE
  8
0
 10
-72.0943
 20
135.754
 11
-72.2107
 21
135.396
  0
LINE
  8
0
 10
-72.2107
 20
135.396
 11
-72.3711
 21
135.055
  0
LINE
  8
0
 10
-72.3711
 20
135.055
 11
-72.573
 21
134.737
  0
LINE
  8
0
 10
-72.573
 20
134.737
 11
-72.8131
 21
134.446
  0
LINE
  8
0
 10
-72.8131
 20
134.446
 11
-73.0877
 21
134.188
  0
LINE
  8
0
 10
-73.0877
 20
134.188
 11
-73.3925
 21
133.967
  0
LINE
  8
0
 10
-73.3925
 20
133.967
 11
-73.7227
 21
133.786
  0
LINE
  8
0
 10
-73.7227
 20
133.786
 11
-74.073
 21
133.647
  0
LINE
  8
0
 10
-74.073
 20
133.647
 11
-74.4379
 21
133.553
  0
LINE
  8
0
 10
-74.4379
 20
133.553
 11
-74.8116
 21
133.506
  0
LINE
  8
0
 10
-74.8116
 20
133.506
 11
-75.1884
 21
133.506
  0
LINE
  8
0
 10
74.8116
 20
133.506
 11
74.4379
 21
133.553
  0
LINE
  8
0
 10
74.4379
 20
133.553
 11
74.073
 21
133.647
  0
LINE
  8
0
 10
74.073
 20
133.647
 11
73.7227
 21
133.786
  0
LINE
  8
0
 10
73.7227
 20
133.786
 11
73.3925
 21
133.967
  0
LINE
  8
0
 10
73.3925
 20
133.967
 11
73.0877
 21
134.188
  0
LINE
  8
0
 10
73.0877
 20
134.188
 11
72.8131
 21
134.446
  0
LINE
  8
0
 10
72.8131
 20
134.446
 11
72.573
 21
134.737
  0
LINE
  8
0
 10
72.573
 20
134.737
 11
72.3711
 21
135.055
  0
LINE
  8
0
 10
72.3711
 20
135.055
 11
72.2107
 21
135.396
  0
LINE
  8
0
 10
72.2107
 20
135.396
 11
72.0943
 21
135.754
  0
LINE
  8
0
 10
72.0943
 20
135.754
 11
72.0237
 21
136.124
  0
LINE
  8
0
 10
72.0237
 20
136.124
 11
72
 21
136.5
  0
LINE
  8
0
 10
72
 20
136.5
 11
72.0237
 21
136.876
  0
LINE
  8
0
 10
72.0237
 20
136.876
 11
72.0943
 21
137.246
  0
LINE
  8
0
 10
72.0943
 20
137.246
 11
72.2107
 21
137.604
  0
LINE
  8
0
 10
72.2107
 20
137.604
 11
72.3711
 21
137.945
  0
LINE
  8
0
 10
72.3711
 20
137.945
 11
72.573
 21
138.263
  0
LINE
  8
0
 10
72.573
 20
138.263
 11
72.8131
 21
138.554
  0
LINE
  8
0
 10
72.8131
 20
138.554
 11
73.0877
 21
138.812
  0
LINE
  8
0
 10
73.0877
 20
138.812
 11
73.3925
 21
139.033
  0
LINE
  8
0
 10
73.3925
 20
139.033
 11
73.7227
 21
139.214
  0
LINE
  8
0
 10
73.7227
 20
139.214
 11
74.073
 21
139.353
  0
LINE
  8
0
 10
74.073
 20
139.353
 11
74.4379
 21
139.447
  0
LINE
  8
0
 10
74.4379
 20
139.447
 11
74.8116
 21
139.494
  0
LINE
  8
0
 10
74.8116
 20
139.494
 11
75.1884
 21
139.494
  0
LINE
  8
0
 10
75.1884
 20
139.494
 11
75.5621
 21
139.447
  0
LINE
  8
0
 10
75.5621
 20
139.447
 11
75.927
 21
139.353
  0
LINE
  8
0
 10
75.927
 20
139.353
 11
76.2773
 21
139.214
  0
LINE
  8
0
 10
76.2773
 20
139.214
 11
76.6075
 21
139.033
  0
LINE
  8
0
 10
76.6075
 20
139.033
 11
76.9123
 21
138.812
  0
LINE
  8
0
 10
76.9123
 20
138.812
 11
77.1869
 21
138.554
  0
LINE
  8
0
 10
77.1869
 20
138.554
 11
77.427
 21
138.263
  0
LINE
  8
0
 10
77.427
 20
138.263
 11
77.6289
 21
137.945
  0
LINE
  8
0
 10
77.6289
 20
137.945
 11
77.7893
 21
137.604
  0
LINE
  8
0
 10
77.7893
 20
137.604
 11
77.9057
 21
137.246
  0
LINE
  8
0
 10
77.9057
 20
137.246
 11
77.9763
 21
136.876
  0
LINE
  8
0
 10
77.9763
 20
136.876
 11
78
 21
136.5
  0
LINE
  8
0
 10
78
 20
136.5
 11
77.9763
 21
136.124
  0
LINE
  8
0
 10
77.9763
 20
136.124
 11
77.9057
 21
135.754
  0
LINE
  8
0
 10
77.9057
 20
135.754
 11
77.7893
 21
135.396
  0
LINE
  8
0
 10
77.7893
 20
135.396
 11
77.6289
 21
135.055
  0
LINE
  8
0
 10
77.6289
 20
135.055
 11
77.427
 21
134.737
  0
LINE
  8
0
 10
77.427
 20
134.737
 11
77.1869
 21
134.446
  0
LINE
  8
0
 10
77.1869
 20
134.446
 11
76.9123
 21
134.188
  0
LINE
  8
0
 10
76.9123
 20
134.188
 11
76.6075
 21
133.967
  0
LINE
  8
0
 10
76.6075
 20
133.967
 11
76.2773
 21
133.786
  0
LINE
  8
0
 10
76.2773
 20
133.786
 11
75.927
 21
133.647
  0
LINE
  8
0
 10
75.927
 20
133.647
 11
75.5621
 21
133.553
  0
LINE
  8
0
 10
75.5621
 20
133.553
 11
75.1884
 21
133.506
  0
LINE
  8
0
 10
75.1884
 20
133.506
 11
74.8116
 21
133.506
  0
LINE
  8
0
 10
-39.6977
 20
64.0691
 11
-44.0583
 21
64.6199
  0
LINE
  8
0
 10
-44.0583
 20
64.6199
 11
-48.3156
 21
65.713
  0
LINE
  8
0
 10
-48.3156
 20
65.713
 11
-52.4023
 21
67.3311
  0
LINE
  8
0
 10
-52.4023
 20
67.3311
 11
-56.2539
 21
69.4485
  0
LINE
  8
0
 10
-56.2539
 20
69.4485
 11
-59.8098
 21
72.032
  0
LINE
  8
0
 10
-59.8098
 20
72.032
 11
-63.0139
 21
75.0409
  0
LINE
  8
0
 10
-63.0139
 20
75.0409
 11
-65.8156
 21
78.4275
  0
LINE
  8
0
 10
-65.8156
 20
78.4275
 11
-68.1707
 21
82.1386
  0
LINE
  8
0
 10
-68.1707
 20
82.1386
 11
-70.0422
 21
86.1156
  0
LINE
  8
0
 10
-70.0422
 20
86.1156
 11
-71.4004
 21
90.2959
  0
LINE
  8
0
 10
-71.4004
 20
90.2959
 11
-72.224
 21
94.6133
  0
LINE
  8
0
 10
-72.224
 20
94.6133
 11
-72.5
 21
99
  0
LINE
  8
0
 10
-72.5
 20
99
 11
-72.224
 21
103.387
  0
LINE
  8
0
 10
-72.224
 20
103.387
 11
-71.4004
 21
107.704
  0
LINE
  8
0
 10
-71.4004
 20
107.704
 11
-70.0422
 21
111.884
  0
LINE
  8
0
 10
-70.0422
 20
111.884
 11
-68.1707
 21
115.861
  0
LINE
  8
0
 10
-68.1707
 20
115.861
 11
-65.8156
 21
119.572
  0
LINE
  8
0
 10
-65.8156
 20
119.572
 11
-63.0139
 21
122.959
  0
LINE
  8
0
 10
-63.0139
 20
122.959
 11
-59.8098
 21
125.968
  0
LINE
  8
0
 10
-59.8098
 20
125.968
 11
-56.2539
 21
128.551
  0
LINE
  8
0
 10
-56.2539
 20
128.551
 11
-52.4023
 21
130.669
  0
LINE
  8
0
 10
-52.4023
 20
130.669
 11
-48.3156
 21
132.287
  0
LINE
  8
0
 10
-48.3156
 20
132.287
 11
-44.0583
 21
133.38
  0
LINE
  8
0
 10
-44.0583
 20
133.38
 11
-39.6977
 21
133.931
  0
LINE
  8
0
 10
-39.6977
 20
133.931
 11
-35.3023
 21
133.931
  0
LINE
  8
0
 10
-35.3023
 20
133.931
 11
-30.9417
 21
133.38
  0
LINE
  8
0
 10
-30.9417
 20
133.38
 11
-26.6844
 21
132.287
  0
LINE
  8
0
 10
-26.6844
 20
132.287
 11
-22.5977
 21
130.669
  0
LINE
  8
0
 10
-22.5977
 20
130.669
 11
-18.746
 21
128.551
  0
LINE
  8
0
 10
-18.746
 20
128.551
 11
-15.1902
 21
125.968
  0
LINE
  8
0
 10
-15.1902
 20
125.968
 11
-11.9861
 21
122.959
  0
LINE
  8
0
 10
-11.9861
 20
122.959
 11
-9.1844
 21
119.572
  0
LINE
  8
0
 10
-9.1844
 20
119.572
 11
-6.82925
 21
115.861
  0
LINE
  8
0
 10
-6.82925
 20
115.861
 11
-4.95781
 21
111.884
  0
LINE
  8
0
 10
-4.95781
 20
111.884
 11
-3.59958
 21
107.704
  0
LINE
  8
0
 10
-3.59958
 20
107.704
 11
-2.77597
 21
103.387
  0
LINE
  8
0
 10
-2.77597
 20
103.387
 11
-2.5
 21
99
  0
LINE
  8
0
 10
-2.5
 20
99
 11
-2.77597
 21
94.6133
  0
LINE
  8
0
 10
-2.77597
 20
94.6133
 11
-3.59958
 21
90.2959
  0
LINE
  8
0
 10
-3.59958
 20
90.2959
 11
-4.95781
 21
86.1156
  0
LINE
  8
0
 10
-4.95781
 20
86.1156
 11
-6.82925
 21
82.1386
  0
LINE
  8
0
 10
-6.82925
 20
82.1386
 11
-9.1844
 21
78.4275
  0
LINE
  8
0
 10
-9.1844
 20
78.4275
 11
-11.9861
 21
75.0409
  0
LINE
  8
0
 10
-11.9861
 20
75.0409
 11
-15.1902
 21
72.032
  0
LINE
  8
0
 10
-15.1902
 20
72.032
 11
-18.746
 21
69.4485
  0
LINE
  8
0
 10
-18.746
 20
69.4485
 11
-22.5977
 21
67.3311
  0
LINE
  8
0
 10
-22.5977
 20
67.3311
 11
-26.6844
 21
65.713
  0
LINE
  8
0
 10
-26.6844
 20
65.713
 11
-30.9417
 21
64.6199
  0
LINE
  8
0
 10
-30.9417
 20
64.6199
 11
-35.3023
 21
64.0691
  0
LINE
  8
0
 10
-35.3023
 20
64.0691
 11
-39.6977
 21
64.0691
  0
LINE
  8
0
 10
35.3023
 20
64.0691
 11
30.9417
 21
64.6199
  0
LINE
  8
0
 10
30.9417
 20
64.6199
 11
26.6844
 21
65.713
  0
LINE
  8
0
 10
26.6844
 20
65.713
 11
22.5977
 21
67.3311
  0
LINE
  8
0
 10
22.5977
 20
67.3311
 11
18.746
 21
69.4485
  0
LINE
  8
0
 10
18.746
 20
69.4485
 11
15.1902
 21
72.032
  0
LINE
  8
0
 10
15.1902
 20
72.032
 11
11.9861
 21
75.0409
  0
LINE
  8
0
 10
11.9861
 20
75.0409
 11
9.1844
 21
78.4275
  0
LINE
  8
0
 10
9.1844
 20
78.4275
 11
6.82925
 21
82.1386
  0
LINE
  8
0
 10
6.82925
 20
82.1386
 11
4.95781
 21
86.1156
  0
LINE
  8
0
 10
4.95781
 20
86.1156
 11
3.59958
 21
90.2959
  0
LINE
  8
0
 10
3.59958
 20
90.2959
 11
2.77597
 21
94.6133
  0
LINE
  8
0
 10
2.77597
 20
94.6133
 11
2.5
 21
99
  0
LINE
  8
0
 10
2.5
 20
99
 11
2.77597
 21
103.387
  0
LINE
  8
0
 10
2.77597
 20
103.387
 11
3.59958
 21
107.704
  0
LINE
  8
0
 10
3.59958
 20
107.704
 11
4.95781
 21
111.884
  0
LINE
  8
0
 10
4.95781
 20
111.884
 11
6.82925
 21
115.861
  0
LINE
  8
0
 10
6.82925
 20
115.861
 11
9.1844
 21
119.572
  0
LINE
  8
0
 10
9.1844
 20
119.572
 11
11.9861
 21
122.959
  0
LINE
  8
0
 10
11.9861
 20
122.959
 11
15.1902
 21
125.968
  0
LINE
  8
0
 10
15.1902
 20
125.968
 11
18.746
 21
128.551
  0
LINE
  8
0
 10
18.746
 20
128.551
 11
22.5977
 21
130.669
  0
LINE
  8
0
 10
22.5977
 20
130.669
 11
26.6844
 21
132.287
  0
LINE
  8
0
 10
26.6844
 20
132.287
 11
30.9417
 21
133.38
  0
LINE
  8
0
 10
30.9417
 20
133.38
 11
35.3023
 21
133.931
  0
LINE
  8
0
 10
35.3023
 20
133.931
 11
39.6977
 21
133.931
  0
LINE
  8
0
 10
39.6977
 20
133.931
 11
44.0583
 21
133.38
  0
LINE
  8
0
 10
44.0583
 20
133.38
 11
48.3156
 21
132.287
  0
LINE
  8
0
 10
48.3156
 20
132.287
 11
52.4023
 21
130.669
  0
LINE
  8
0
 10
52.4023
 20
130.669
 11
56.2539
 21
128.551
  0
LINE
  8
0
 10
56.2539
 20
128.551
 11
59.8098
 21
125.968
  0
LINE
  8
0
 10
59.8098
 20
125.968
 11
63.0139
 21
122.959
  0
LINE
  8
0
 10
63.0139
 20
122.959
 11
65.8156
 21
119.572
  0
LINE
  8
0
 10
65.8156
 20
119.572
 11
68.1707
 21
115.861
  0
LINE
  8
0
 10
68.1707
 20
115.861
 11
70.0422
 21
111.884
  0
LINE
  8
0
 10
70.0422
 20
111.884
 11
71.4004
 21
107.704
  0
LINE
  8
0
 10
71.4004
 20
107.704
 11
72.224
 21
103.387
  0
LINE
  8
0
 10
72.224
 20
103.387
 11
72.5
 21
99
  0
LINE
  8
0
 10
72.5
 20
99
 11
72.224
 21
94.6133
  0
LINE
  8
0
 10
72.224
 20
94.6133
 11
71.4004
 21
90.2959
  0
LINE
  8
0
 10
71.4004
 20
90.2959
 11
70.0422
 21
86.1156
  0
LINE
  8
0
 10
70.0422
 20
86.1156
 11
68.1707
 21
82.1386
  0
LINE
  8
0
 10
68.1707
 20
82.1386
 11
65.8156
 21
78.4275
  0
LINE
  8
0
 10
65.8156
 20
78.4275
 11
63.0139
 21
75.0409
  0
LINE
  8
0
 10
63.0139
 20
75.0409
 11
59.8098
 21
72.032
  0
LINE
  8
0
 10
59.8098
 20
72.032
 11
56.2539
 21
69.4485
  0
LINE
  8
0
 10
56.2539
 20
69.4485
 11
52.4023
 21
67.3311
  0
LINE
  8
0
 10
52.4023
 20
67.3311
 11
48.3156
 21
65.713
  0
LINE
  8
0
 10
48.3156
 20
65.713
 11
44.0583
 21
64.6199
  0
LINE
  8
0
 10
44.0583
 20
64.6199
 11
39.6977
 21
64.0691
  0
LINE
  8
0
 10
39.6977
 20
64.0691
 11
35.3023
 21
64.0691
  0
LINE
  8
0
 10
74.8116
 20
58.5059
 11
74.4379
 21
58.5531
  0
LINE
  8
0
 10
74.4379
 20
58.5531
 11
74.073
 21
58.6468
  0
LINE
  8
0
 10
74.073
 20
58.6468
 11
73.7227
 21
58.7855
  0
LINE
  8
0
 10
73.7227
 20
58.7855
 11
73.3925
 21
58.967
  0
LINE
  8
0
 10
73.3925
 20
58.967
 11
73.0877
 21
59.1885
  0
LINE
  8
0
 10
73.0877
 20
59.1885
 11
72.8131
 21
59.4464
  0
LINE
  8
0
 10
72.8131
 20
59.4464
 11
72.573
 21
59.7366
  0
LINE
  8
0
 10
72.573
 20
59.7366
 11
72.3711
 21
60.0547
  0
LINE
  8
0
 10
72.3711
 20
60.0547
 11
72.2107
 21
60.3956
  0
LINE
  8
0
 10
72.2107
 20
60.3956
 11
72.0943
 21
60.7539
  0
LINE
  8
0
 10
72.0943
 20
60.7539
 11
72.0237
 21
61.124
  0
LINE
  8
0
 10
72.0237
 20
61.124
 11
72
 21
61.5
  0
LINE
  8
0
 10
72
 20
61.5
 11
72.0237
 21
61.876
  0
LINE
  8
0
 10
72.0237
 20
61.876
 11
72.0943
 21
62.2461
  0
LINE
  8
0
 10
72.0943
 20
62.2461
 11
72.2107
 21
62.6044
  0
LINE
  8
0
 10
72.2107
 20
62.6044
 11
72.3711
 21
62.9453
  0
LINE
  8
0
 10
72.3711
 20
62.9453
 11
72.573
 21
63.2634
  0
LINE
  8
0
 10
72.573
 20
63.2634
 11
72.8131
 21
63.5536
  0
LINE
  8
0
 10
72.8131
 20
63.5536
 11
73.0877
 21
63.8115
  0
LINE
  8
0
 10
73.0877
 20
63.8115
 11
73.3925
 21
64.033
  0
LINE
  8
0
 10
73.3925
 20
64.033
 11
73.7227
 21
64.2145
  0
LINE
  8
0
 10
73.7227
 20
64.2145
 11
74.073
 21
64.3532
  0
LINE
  8
0
 10
74.073
 20
64.3532
 11
74.4379
 21
64.4469
  0
LINE
  8
0
 10
74.4379
 20
64.4469
 11
74.8116
 21
64.4941
  0
LINE
  8
0
 10
74.8116
 20
64.4941
 11
75.1884
 21
64.4941
  0
LINE
  8
0
 10
75.1884
 20
64.4941
 11
75.5621
 21
64.4469
  0
LINE
  8
0
 10
75.5621
 20
64.4469
 11
75.927
 21
64.3532
  0
LINE
  8
0
 10
75.927
 20
64.3532
 11
76.2773
 21
64.2145
  0
LINE
  8
0
 10
76.2773
 20
64.2145
 11
76.6075
 21
64.033
  0
LINE
  8
0
 10
76.6075
 20
64.033
 11
76.9123
 21
63.8115
  0
LINE
  8
0
 10
76.9123
 20
63.8115
 11
77.1869
 21
63.5536
  0
LINE
  8
0
 10
77.1869
 20
63.5536
 11
77.427
 21
63.2634
  0
LINE
  8
0
 10
77.427
 20
63.2634
 11
77.6289
 21
62.9453
  0
LINE
  8
0
 10
77.6289
 20
62.9453
 11
77.7893
 21
62.6044
  0
LINE
  8
0
 10
77.7893
 20
62.6044
 11
77.9057
 21
62.2461
  0
LINE
  8
0
 10
77.9057
 20
62.2461
 11
77.9763
 21
61.876
  0
LINE
  8
0
 10
77.9763
 20
61.876
 11
78
 21
61.5
  0
LINE
  8
0
 10
78
 20
61.5
 11
77.9763
 21
61.124
  0
LINE
  8
0
 10
77.9763
 20
61.124
 11
77.9057
 21
60.7539
  0
LINE
  8
0
 10
77.9057
 20
60.7539
 11
77.7893
 21
60.3956
  0
LINE
  8
0
 10
77.7893
 20
60.3956
 11
77.6289
 21
60.0547
  0
LINE
  8
0
 10
77.6289
 20
60.0547
 11
77.427
 21
59.7366
  0
LINE
  8
0
 10
77.427
 20
59.7366
 11
77.1869
 21
59.4464
  0
LINE
  8
0
 10
77.1869
 20
59.4464
 11
76.9123
 21
59.1885
  0
LINE
  8
0
 10
76.9123
 20
59.1885
 11
76.6075
 21
58.967
  0
LINE
  8
0
 10
76.6075
 20
58.967
 11
76.2773
 21
58.7855
  0
LINE
  8
0
 10
76.2773
 20
58.7855
 11
75.927
 21
58.6468
  0
LINE
  8
0
 10
75.927
 20
58.6468
 11
75.5621
 21
58.5531
  0
LINE
  8
0
 10
75.5621
 20
58.5531
 11
75.1884
 21
58.5059
  0
LINE
  8
0
 10
75.1884
 20
58.5059
 11
74.8116
 21
58.5059
  0
LINE
  8
0
 10
-75.1884
 20
58.5059
 11
-75.5621
 21
58.5531
  0
LINE
  8
0
 10
-75.5621
 20
58.5531
 11
-75.927
 21
58.6468
  0
LINE
  8
0
 10
-75.927
 20
58.6468
 11
-76.2773
 21
58.7855
  0
LINE
  8
0
 10
-76.2773
 20
58.7855
 11
-76.6075
 21
58.967
  0
LINE
  8
0
 10
-76.6075
 20
58.967
 11
-76.9123
 21
59.1885
  0
LINE
  8
0
 10
-76.9123
 20
59.1885
 11
-77.1869
 21
59.4464
  0
LINE
  8
0
 10
-77.1869
 20
59.4464
 11
-77.427
 21
59.7366
  0
LINE
  8
0
 10
-77.427
 20
59.7366
 11
-77.6289
 21
60.0547
  0
LINE
  8
0
 10
-77.6289
 20
60.0547
 11
-77.7893
 21
60.3956
  0
LINE
  8
0
 10
-77.7893
 20
60.3956
 11
-77.9057
 21
60.7539
  0
LINE
  8
0
 10
-77.9057
 20
60.7539
 11
-77.9763
 21
61.124
  0
LINE
  8
0
 10
-77.9763
 20
61.124
 11
-78
 21
61.5
  0
LINE
  8
0
 10
-78
 20
61.5
 11
-77.9763
 21
61.876
  0
LINE
  8
0
 10
-77.9763
 20
61.876
 11
-77.9057
 21
62.2461
  0
LINE
  8
0
 10
-77.9057
 20
62.2461
 11
-77.7893
 21
62.6044
  0
LINE
  8
0
 10
-77.7893
 20
62.6044
 11
-77.6289
 21
62.9453
  0
LINE
  8
0
 10
-77.6289
 20
62.9453
 11
-77.427
 21
63.2634
  0
LINE
  8
0
 10
-77.427
 20
63.2634
 11
-77.1869
 21
63.5536
  0
LINE
  8
0
 10
-77.1869
 20
63.5536
 11
-76.9123
 21
63.8115
  0
LINE
  8
0
 10
-76.9123
 20
63.8115
 11
-76.6075
 21
64.033
  0
LINE
  8
0
 10
-76.6075
 20
64.033
 11
-76.2773
 21
64.2145
  0
LINE
  8
0
 10
-76.2773
 20
64.2145
 11
-75.927
 21
64.3532
  0
LINE
  8
0
 10
-75.927
 20
64.3532
 11
-75.5621
 21
64.4469
  0
LINE
  8
0
 10
-75.5621
 20
64.4469
 11
-75.1884
 21
64.4941
  0
LINE
  8
0
 10
-75.1884
 20
64.4941
 11
-74.8116
 21
64.4941
  0
LINE
  8
0
 10
-74.8116
 20
64.4941
 11
-74.4379
 21
64.4469
  0
LINE
  8
0
 10
-74.4379
 20
64.4469
 11
-74.073
 21
64.3532
  0
LINE
  8
0
 10
-74.073
 20
64.3532
 11
-73.7227
 21
64.2145
  0
LINE
  8
0
 10
-73.7227
 20
64.2145
 11
-73.3925
 21
64.033
  0
LINE
  8
0
 10
-73.3925
 20
64.033
 11
-73.0877
 21
63.8115
  0
LINE
  8
0
 10
-73.0877
 20
63.8115
 11
-72.8131
 21
63.5536
  0
LINE
  8
0
 10
-72.8131
 20
63.5536
 11
-72.573
 21
63.2634
  0
LINE
  8
0
 10
-72.573
 20
63.2634
 11
-72.3711
 21
62.9453
  0
LINE
  8
0
 10
-72.3711
 20
62.9453
 11
-72.2107
 21
62.6044
  0
LINE
  8
0
 10
-72.2107
 20
62.6044
 11
-72.0943
 21
62.2461
  0
LINE
  8
0
 10
-72.0943
 20
62.2461
 11
-72.0237
 21
61.876
  0
LINE
  8
0
 10
-72.0237
 20
61.876
 11
-72
 21
61.5
  0
LINE
  8
0
 10
-72
 20
61.5
 11
-72.0237
 21
61.124
  0
LINE
  8
0
 10
-72.0237
 20
61.124
 11
-72.0943
 21
60.7539
  0
LINE
  8
0
 10
-72.0943
 20
60.7539
 11
-72.2107
 21
60.3956
  0
LINE
  8
0
 10
-72.2107
 20
60.3956
 11
-72.3711
 21
60.0547
  0
LINE
  8
0
 10
-72.3711
 20
60.0547
 11
-72.573
 21
59.7366
  0
LINE
  8
0
 10
-72.573
 20
59.7366
 11
-72.8131
 21
59.4464
  0
LINE
  8
0
 10
-72.8131
 20
59.4464
 11
-73.0877
 21
59.1885
  0
LINE
  8
0
 10
-73.0877
 20
59.1885
 11
-73.3925
 21
58.967
  0
LINE
  8
0
 10
-73.3925
 20
58.967
 11
-73.7227
 21
58.7855
  0
LINE
  8
0
 10
-73.7227
 20
58.7855
 11
-74.073
 21
58.6468
  0
LINE
  8
0
 10
-74.073
 20
58.6468
 11
-74.4379
 21
58.5531
  0
LINE
  8
0
 10
-74.4379
 20
58.5531
 11
-74.8116
 21
58.5059
  0
LINE
  8
0
 10
-74.8116
 20
58.5059
 11
-75.1884
 21
58.5059
  0
ENDSEC
  0
SECTION
  2
OBJECTS
  0
DICTIONARY
  0
ENDSEC
  0
EOF
