  0
SECTION
  2
BLOCKS
  0
ENDSEC
  0
SECTION
  2
ENTITIES
  0
LINE
  8
0
 10
47.9369
 20
24.5886
 11
48.5451
 21
24.7447
  0
LINE
  8
0
 10
48.5451
 20
24.7447
 11
49.1289
 21
24.9759
  0
LINE
  8
0
 10
49.1289
 20
24.9759
 11
49.6791
 21
25.2784
  0
LINE
  8
0
 10
49.6791
 20
25.2784
 11
50.1871
 21
25.6474
  0
LINE
  8
0
 10
50.1871
 20
25.6474
 11
50.6448
 21
26.0773
  0
LINE
  8
0
 10
50.6448
 20
26.0773
 11
51.0451
 21
26.5611
  0
LINE
  8
0
 10
51.0451
 20
26.5611
 11
51.3815
 21
27.0912
  0
LINE
  8
0
 10
51.3815
 20
27.0912
 11
51.6489
 21
27.6594
  0
LINE
  8
0
 10
51.6489
 20
27.6594
 11
51.8429
 21
28.2566
  0
LINE
  8
0
 10
51.8429
 20
28.2566
 11
51.9606
 21
28.8733
  0
LINE
  8
0
 10
51.9606
 20
28.8733
 11
52
 21
29.5
  0
LINE
  8
0
 10
52
 20
29.5
 11
52
 21
48.5
  0
LINE
  8
0
 10
52
 20
48.5
 11
51.9606
 21
49.1267
  0
LINE
  8
0
 10
51.9606
 20
49.1267
 11
51.8429
 21
49.7434
  0
LINE
  8
0
 10
51.8429
 20
49.7434
 11
51.6489
 21
50.3406
  0
LINE
  8
0
 10
51.6489
 20
50.3406
 11
51.3815
 21
50.9088
  0
LINE
  8
0
 10
51.3815
 20
50.9088
 11
51.0451
 21
51.4389
  0
LINE
  8
0
 10
51.0451
 20
51.4389
 11
50.6448
 21
51.9227
  0
LINE
  8
0
 10
50.6448
 20
51.9227
 11
50.1871
 21
52.3526
  0
LINE
  8
0
 10
50.1871
 20
52.3526
 11
49.6791
 21
52.7216
  0
LINE
  8
0
 10
49.6791
 20
52.7216
 11
49.1289
 21
53.0241
  0
LINE
  8
0
 10
49.1289
 20
53.0241
 11
48.5451
 21
53.2553
  0
LINE
  8
0
 10
48.5451
 20
53.2553
 11
47.9369
 21
53.4114
  0
LINE
  8
0
 10
47.9369
 20
53.4114
 11
47.3139
 21
53.4901
  0
LINE
  8
0
 10
47.3139
 20
53.4901
 11
-47.3139
 21
53.4901
  0
LINE
  8
0
 10
-47.3139
 20
53.4901
 11
-47.9369
 21
53.4114
  0
LINE
  8
0
 10
-47.9369
 20
53.4114
 11
-48.5451
 21
53.2553
  0
LINE
  8
0
 10
-48.5451
 20
53.2553
 11
-49.1289
 21
53.0241
  0
LINE
  8
0
 10
-49.1289
 20
53.0241
 11
-49.6791
 21
52.7216
  0
LINE
  8
0
 10
-49.6791
 20
52.7216
 11
-50.1871
 21
52.3526
  0
LINE
  8
0
 10
-50.1871
 20
52.3526
 11
-50.6448
 21
51.9227
  0
LINE
  8
0
 10
-50.6448
 20
51.9227
 11
-51.0451
 21
51.4389
  0
LINE
  8
0
 10
-51.0451
 20
51.4389
 11
-51.3815
 21
50.9088
  0
LINE
  8
0
 10
-51.3815
 20
50.9088
 11
-51.6489
 21
50.3406
  0
LINE
  8
0
 10
-51.6489
 20
50.3406
 11
-51.8429
 21
49.7434
  0
LINE
  8
0
 10
-51.8429
 20
49.7434
 11
-51.9606
 21
49.1267
  0
LINE
  8
0
 10
-51.9606
 20
49.1267
 11
-52
 21
48.5
  0
LINE
  8
0
 10
-52
 20
48.5
 11
-52
 21
29.5
  0
LINE
  8
0
 10
-52
 20
29.5
 11
-51.9606
 21
28.8733
  0
LINE
  8
0
 10
-51.9606
 20
28.8733
 11
-51.8429
 21
28.2566
  0
LINE
  8
0
 10
-51.8429
 20
28.2566
 11
-51.6489
 21
27.6594
  0
LINE
  8
0
 10
-51.6489
 20
27.6594
 11
-51.3815
 21
27.0912
  0
LINE
  8
0
 10
-51.3815
 20
27.0912
 11
-51.0451
 21
26.5611
  0
LINE
  8
0
 10
-51.0451
 20
26.5611
 11
-50.6448
 21
26.0773
  0
LINE
  8
0
 10
-50.6448
 20
26.0773
 11
-50.1871
 21
25.6474
  0
LINE
  8
0
 10
-50.1871
 20
25.6474
 11
-49.6791
 21
25.2784
  0
LINE
  8
0
 10
-49.6791
 20
25.2784
 11
-49.1289
 21
24.9759
  0
LINE
  8
0
 10
-49.1289
 20
24.9759
 11
-48.5451
 21
24.7447
  0
LINE
  8
0
 10
-48.5451
 20
24.7447
 11
-47.9369
 21
24.5886
  0
LINE
  8
0
 10
-47.9369
 20
24.5886
 11
-47.3139
 21
24.5099
  0
LINE
  8
0
 10
-47.3139
 20
24.5099
 11
47.3139
 21
24.5099
  0
LINE
  8
0
 10
47.3139
 20
24.5099
 11
47.9369
 21
24.5886
  0
LINE
  8
0
 10
-45.1884
 20
43.5059
 11
-45.5621
 21
43.5531
  0
LINE
  8
0
 10
-45.5621
 20
43.5531
 11
-45.927
 21
43.6468
  0
LINE
  8
0
 10
-45.927
 20
43.6468
 11
-46.2773
 21
43.7855
  0
LINE
  8
0
 10
-46.2773
 20
43.7855
 11
-46.6075
 21
43.967
  0
LINE
  8
0
 10
-46.6075
 20
43.967
 11
-46.9123
 21
44.1884
  0
LINE
  8
0
 10
-46.9123
 20
44.1884
 11
-47.1869
 21
44.4464
  0
LINE
  8
0
 10
-47.1869
 20
44.4464
 11
-47.427
 21
44.7366
  0
LINE
  8
0
 10
-47.427
 20
44.7366
 11
-47.6289
 21
45.0547
  0
LINE
  8
0
 10
-47.6289
 20
45.0547
 11
-47.7893
 21
45.3956
  0
LINE
  8
0
 10
-47.7893
 20
45.3956
 11
-47.9057
 21
45.7539
  0
LINE
  8
0
 10
-47.9057
 20
45.7539
 11
-47.9763
 21
46.124
  0
LINE
  8
0
 10
-47.9763
 20
46.124
 11
-48
 21
46.5
  0
LINE
  8
0
 10
-48
 20
46.5
 11
-47.9763
 21
46.876
  0
LINE
  8
0
 10
-47.9763
 20
46.876
 11
-47.9057
 21
47.2461
  0
LINE
  8
0
 10
-47.9057
 20
47.2461
 11
-47.7893
 21
47.6044
  0
LINE
  8
0
 10
-47.7893
 20
47.6044
 11
-47.6289
 21
47.9453
  0
LINE
  8
0
 10
-47.6289
 20
47.9453
 11
-47.427
 21
48.2634
  0
LINE
  8
0
 10
-47.427
 20
48.2634
 11
-47.1869
 21
48.5536
  0
LINE
  8
0
 10
-47.1869
 20
48.5536
 11
-46.9123
 21
48.8115
  0
LINE
  8
0
 10
-46.9123
 20
48.8115
 11
-46.6075
 21
49.033
  0
LINE
  8
0
 10
-46.6075
 20
49.033
 11
-46.2773
 21
49.2145
  0
LINE
  8
0
 10
-46.2773
 20
49.2145
 11
-45.927
 21
49.3532
  0
LINE
  8
0
 10
-45.927
 20
49.3532
 11
-45.5621
 21
49.4469
  0
LINE
  8
0
 10
-45.5621
 20
49.4469
 11
-45.1884
 21
49.4941
  0
LINE
  8
0
 10
-45.1884
 20
49.4941
 11
-44.8116
 21
49.4941
  0
LINE
  8
0
 10
-44.8116
 20
49.4941
 11
-44.4379
 21
49.4469
  0
LINE
  8
0
 10
-44.4379
 20
49.4469
 11
-44.0729
 21
49.3532
  0
LINE
  8
0
 10
-44.0729
 20
49.3532
 11
-43.7227
 21
49.2145
  0
LINE
  8
0
 10
-43.7227
 20
49.2145
 11
-43.3925
 21
49.033
  0
LINE
  8
0
 10
-43.3925
 20
49.033
 11
-43.0877
 21
48.8115
  0
LINE
  8
0
 10
-43.0877
 20
48.8115
 11
-42.8131
 21
48.5536
  0
LINE
  8
0
 10
-42.8131
 20
48.5536
 11
-42.5729
 21
48.2634
  0
LINE
  8
0
 10
-42.5729
 20
48.2634
 11
-42.3711
 21
47.9453
  0
LINE
  8
0
 10
-42.3711
 20
47.9453
 11
-42.2107
 21
47.6044
  0
LINE
  8
0
 10
-42.2107
 20
47.6044
 11
-42.0942
 21
47.2461
  0
LINE
  8
0
 10
-42.0942
 20
47.2461
 11
-42.0237
 21
46.876
  0
LINE
  8
0
 10
-42.0237
 20
46.876
 11
-42
 21
46.5
  0
LINE
  8
0
 10
-42
 20
46.5
 11
-42.0237
 21
46.124
  0
LINE
  8
0
 10
-42.0237
 20
46.124
 11
-42.0942
 21
45.7539
  0
LINE
  8
0
 10
-42.0942
 20
45.7539
 11
-42.2107
 21
45.3956
  0
LINE
  8
0
 10
-42.2107
 20
45.3956
 11
-42.3711
 21
45.0547
  0
LINE
  8
0
 10
-42.3711
 20
45.0547
 11
-42.5729
 21
44.7366
  0
LINE
  8
0
 10
-42.5729
 20
44.7366
 11
-42.8131
 21
44.4464
  0
LINE
  8
0
 10
-42.8131
 20
44.4464
 11
-43.0877
 21
44.1884
  0
LINE
  8
0
 10
-43.0877
 20
44.1884
 11
-43.3925
 21
43.967
  0
LINE
  8
0
 10
-43.3925
 20
43.967
 11
-43.7227
 21
43.7855
  0
LINE
  8
0
 10
-43.7227
 20
43.7855
 11
-44.0729
 21
43.6468
  0
LINE
  8
0
 10
-44.0729
 20
43.6468
 11
-44.4379
 21
43.5531
  0
LINE
  8
0
 10
-44.4379
 20
43.5531
 11
-44.8116
 21
43.5059
  0
LINE
  8
0
 10
-44.8116
 20
43.5059
 11
-45.1884
 21
43.5059
  0
LINE
  8
0
 10
44.8116
 20
43.5059
 11
44.4379
 21
43.5531
  0
LINE
  8
0
 10
44.4379
 20
43.5531
 11
44.0729
 21
43.6468
  0
LINE
  8
0
 10
44.0729
 20
43.6468
 11
43.7227
 21
43.7855
  0
LINE
  8
0
 10
43.7227
 20
43.7855
 11
43.3925
 21
43.967
  0
LINE
  8
0
 10
43.3925
 20
43.967
 11
43.0877
 21
44.1884
  0
LINE
  8
0
 10
43.0877
 20
44.1884
 11
42.8131
 21
44.4464
  0
LINE
  8
0
 10
42.8131
 20
44.4464
 11
42.5729
 21
44.7366
  0
LINE
  8
0
 10
42.5729
 20
44.7366
 11
42.3711
 21
45.0547
  0
LINE
  8
0
 10
42.3711
 20
45.0547
 11
42.2107
 21
45.3956
  0
LINE
  8
0
 10
42.2107
 20
45.3956
 11
42.0942
 21
45.7539
  0
LINE
  8
0
 10
42.0942
 20
45.7539
 11
42.0237
 21
46.124
  0
LINE
  8
0
 10
42.0237
 20
46.124
 11
42
 21
46.5
  0
LINE
  8
0
 10
42
 20
46.5
 11
42.0237
 21
46.876
  0
LINE
  8
0
 10
42.0237
 20
46.876
 11
42.0942
 21
47.2461
  0
LINE
  8
0
 10
42.0942
 20
47.2461
 11
42.2107
 21
47.6044
  0
LINE
  8
0
 10
42.2107
 20
47.6044
 11
42.3711
 21
47.9453
  0
LINE
  8
0
 10
42.3711
 20
47.9453
 11
42.5729
 21
48.2634
  0
LINE
  8
0
 10
42.5729
 20
48.2634
 11
42.8131
 21
48.5536
  0
LINE
  8
0
 10
42.8131
 20
48.5536
 11
43.0877
 21
48.8115
  0
LINE
  8
0
 10
43.0877
 20
48.8115
 11
43.3925
 21
49.033
  0
LINE
  8
0
 10
43.3925
 20
49.033
 11
43.7227
 21
49.2145
  0
LINE
  8
0
 10
43.7227
 20
49.2145
 11
44.0729
 21
49.3532
  0
LINE
  8
0
 10
44.0729
 20
49.3532
 11
44.4379
 21
49.4469
  0
LINE
  8
0
 10
44.4379
 20
49.4469
 11
44.8116
 21
49.4941
  0
LINE
  8
0
 10
44.8116
 20
49.4941
 11
45.1884
 21
49.4941
  0
LINE
  8
0
 10
45.1884
 20
49.4941
 11
45.5621
 21
49.4469
  0
LINE
  8
0
 10
45.5621
 20
49.4469
 11
45.927
 21
49.3532
  0
LINE
  8
0
 10
45.927
 20
49.3532
 11
46.2773
 21
49.2145
  0
LINE
  8
0
 10
46.2773
 20
49.2145
 11
46.6075
 21
49.033
  0
LINE
  8
0
 10
46.6075
 20
49.033
 11
46.9123
 21
48.8115
  0
LINE
  8
0
 10
46.9123
 20
48.8115
 11
47.1869
 21
48.5536
  0
LINE
  8
0
 10
47.1869
 20
48.5536
 11
47.427
 21
48.2634
  0
LINE
  8
0
 10
47.427
 20
48.2634
 11
47.6289
 21
47.9453
  0
LINE
  8
0
 10
47.6289
 20
47.9453
 11
47.7893
 21
47.6044
  0
LINE
  8
0
 10
47.7893
 20
47.6044
 11
47.9057
 21
47.2461
  0
LINE
  8
0
 10
47.9057
 20
47.2461
 11
47.9763
 21
46.876
  0
LINE
  8
0
 10
47.9763
 20
46.876
 11
48
 21
46.5
  0
LINE
  8
0
 10
48
 20
46.5
 11
47.9763
 21
46.124
  0
LINE
  8
0
 10
47.9763
 20
46.124
 11
47.9057
 21
45.7539
  0
LINE
  8
0
 10
47.9057
 20
45.7539
 11
47.7893
 21
45.3956
  0
LINE
  8
0
 10
47.7893
 20
45.3956
 11
47.6289
 21
45.0547
  0
LINE
  8
0
 10
47.6289
 20
45.0547
 11
47.427
 21
44.7366
  0
LINE
  8
0
 10
47.427
 20
44.7366
 11
47.1869
 21
44.4464
  0
LINE
  8
0
 10
47.1869
 20
44.4464
 11
46.9123
 21
44.1884
  0
LINE
  8
0
 10
46.9123
 20
44.1884
 11
46.6075
 21
43.967
  0
LINE
  8
0
 10
46.6075
 20
43.967
 11
46.2773
 21
43.7855
  0
LINE
  8
0
 10
46.2773
 20
43.7855
 11
45.927
 21
43.6468
  0
LINE
  8
0
 10
45.927
 20
43.6468
 11
45.5621
 21
43.5531
  0
LINE
  8
0
 10
45.5621
 20
43.5531
 11
45.1884
 21
43.5059
  0
LINE
  8
0
 10
45.1884
 20
43.5059
 11
44.8116
 21
43.5059
  0
LINE
  8
0
 10
-32.0023
 20
31.0158
 11
-32.999
 21
31.1417
  0
LINE
  8
0
 10
-32.999
 20
31.1417
 11
-33.9721
 21
31.3916
  0
LINE
  8
0
 10
-33.9721
 20
31.3916
 11
-34.9062
 21
31.7614
  0
LINE
  8
0
 10
-34.9062
 20
31.7614
 11
-35.7866
 21
32.2454
  0
LINE
  8
0
 10
-35.7866
 20
32.2454
 11
-36.5994
 21
32.8359
  0
LINE
  8
0
 10
-36.5994
 20
32.8359
 11
-37.3317
 21
33.5236
  0
LINE
  8
0
 10
-37.3317
 20
33.5236
 11
-37.9721
 21
34.2977
  0
LINE
  8
0
 10
-37.9721
 20
34.2977
 11
-38.5105
 21
35.146
  0
LINE
  8
0
 10
-38.5105
 20
35.146
 11
-38.9382
 21
36.055
  0
LINE
  8
0
 10
-38.9382
 20
36.055
 11
-39.2487
 21
37.0105
  0
LINE
  8
0
 10
-39.2487
 20
37.0105
 11
-39.4369
 21
37.9973
  0
LINE
  8
0
 10
-39.4369
 20
37.9973
 11
-39.5
 21
39
  0
LINE
  8
0
 10
-39.5
 20
39
 11
-39.4369
 21
40.0027
  0
LINE
  8
0
 10
-39.4369
 20
40.0027
 11
-39.2487
 21
40.9895
  0
LINE
  8
0
 10
-39.2487
 20
40.9895
 11
-38.9382
 21
41.945
  0
LINE
  8
0
 10
-38.9382
 20
41.945
 11
-38.5105
 21
42.854
  0
LINE
  8
0
 10
-38.5105
 20
42.854
 11
-37.9721
 21
43.7023
  0
LINE
  8
0
 10
-37.9721
 20
43.7023
 11
-37.3317
 21
44.4764
  0
LINE
  8
0
 10
-37.3317
 20
44.4764
 11
-36.5994
 21
45.1641
  0
LINE
  8
0
 10
-36.5994
 20
45.1641
 11
-35.7866
 21
45.7546
  0
LINE
  8
0
 10
-35.7866
 20
45.7546
 11
-34.9062
 21
46.2386
  0
LINE
  8
0
 10
-34.9062
 20
46.2386
 11
-33.9721
 21
46.6084
  0
LINE
  8
0
 10
-33.9721
 20
46.6084
 11
-32.999
 21
46.8583
  0
LINE
  8
0
 10
-32.999
 20
46.8583
 11
-32.0023
 21
46.9842
  0
LINE
  8
0
 10
-32.0023
 20
46.9842
 11
-30.9977
 21
46.9842
  0
LINE
  8
0
 10
-30.9977
 20
46.9842
 11
-30.0009
 21
46.8583
  0
LINE
  8
0
 10
-30.0009
 20
46.8583
 11
-29.0279
 21
46.6084
  0
LINE
  8
0
 10
-29.0279
 20
46.6084
 11
-28.0938
 21
46.2386
  0
LINE
  8
0
 10
-28.0938
 20
46.2386
 11
-27.2134
 21
45.7546
  0
LINE
  8
0
 10
-27.2134
 20
45.7546
 11
-26.4006
 21
45.1641
  0
LINE
  8
0
 10
-26.4006
 20
45.1641
 11
-25.6682
 21
44.4764
  0
LINE
  8
0
 10
-25.6682
 20
44.4764
 11
-25.0279
 21
43.7023
  0
LINE
  8
0
 10
-25.0279
 20
43.7023
 11
-24.4895
 21
42.854
  0
LINE
  8
0
 10
-24.4895
 20
42.854
 11
-24.0618
 21
41.945
  0
LINE
  8
0
 10
-24.0618
 20
41.945
 11
-23.7513
 21
40.9895
  0
LINE
  8
0
 10
-23.7513
 20
40.9895
 11
-23.5631
 21
40.0027
  0
LINE
  8
0
 10
-23.5631
 20
40.0027
 11
-23.5
 21
39
  0
LINE
  8
0
 10
-23.5
 20
39
 11
-23.5631
 21
37.9973
  0
LINE
  8
0
 10
-23.5631
 20
37.9973
 11
-23.7513
 21
37.0105
  0
LINE
  8
0
 10
-23.7513
 20
37.0105
 11
-24.0618
 21
36.055
  0
LINE
  8
0
 10
-24.0618
 20
36.055
 11
-24.4895
 21
35.146
  0
LINE
  8
0
 10
-24.4895
 20
35.146
 11
-25.0279
 21
34.2977
  0
LINE
  8
0
 10
-25.0279
 20
34.2977
 11
-25.6682
 21
33.5236
  0
LINE
  8
0
 10
-25.6682
 20
33.5236
 11
-26.4006
 21
32.8359
  0
LINE
  8
0
 10
-26.4006
 20
32.8359
 11
-27.2134
 21
32.2454
  0
LINE
  8
0
 10
-27.2134
 20
32.2454
 11
-28.0938
 21
31.7614
  0
LINE
  8
0
 10
-28.0938
 20
31.7614
 11
-29.0279
 21
31.3916
  0
LINE
  8
0
 10
-29.0279
 20
31.3916
 11
-30.0009
 21
31.1417
  0
LINE
  8
0
 10
-30.0009
 20
31.1417
 11
-30.9977
 21
31.0158
  0
LINE
  8
0
 10
-30.9977
 20
31.0158
 11
-32.0023
 21
31.0158
  0
LINE
  8
0
 10
9.99767
 20
31.0158
 11
9.00095
 21
31.1417
  0
LINE
  8
0
 10
9.00095
 20
31.1417
 11
8.02786
 21
31.3916
  0
LINE
  8
0
 10
8.02786
 20
31.3916
 11
7.09377
 21
31.7614
  0
LINE
  8
0
 10
7.09377
 20
31.7614
 11
6.21338
 21
32.2454
  0
LINE
  8
0
 10
6.21338
 20
32.2454
 11
5.4006
 21
32.8359
  0
LINE
  8
0
 10
5.4006
 20
32.8359
 11
4.66824
 21
33.5236
  0
LINE
  8
0
 10
4.66824
 20
33.5236
 11
4.02786
 21
34.2977
  0
LINE
  8
0
 10
4.02786
 20
34.2977
 11
3.48953
 21
35.146
  0
LINE
  8
0
 10
3.48953
 20
35.146
 11
3.06178
 21
36.055
  0
LINE
  8
0
 10
3.06178
 20
36.055
 11
2.75133
 21
37.0105
  0
LINE
  8
0
 10
2.75133
 20
37.0105
 11
2.56308
 21
37.9973
  0
LINE
  8
0
 10
2.56308
 20
37.9973
 11
2.5
 21
39
  0
LINE
  8
0
 10
2.5
 20
39
 11
2.56308
 21
40.0027
  0
LINE
  8
0
 10
2.56308
 20
40.0027
 11
2.75133
 21
40.9895
  0
LINE
  8
0
 10
2.75133
 20
40.9895
 11
3.06178
 21
41.945
  0
LINE
  8
0
 10
3.06178
 20
41.945
 11
3.48953
 21
42.854
  0
LINE
  8
0
 10
3.48953
 20
42.854
 11
4.02786
 21
43.7023
  0
LINE
  8
0
 10
4.02786
 20
43.7023
 11
4.66824
 21
44.4764
  0
LINE
  8
0
 10
4.66824
 20
44.4764
 11
5.4006
 21
45.1641
  0
LINE
  8
0
 10
5.4006
 20
45.1641
 11
6.21338
 21
45.7546
  0
LINE
  8
0
 10
6.21338
 20
45.7546
 11
7.09377
 21
46.2386
  0
LINE
  8
0
 10
7.09377
 20
46.2386
 11
8.02786
 21
46.6084
  0
LINE
  8
0
 10
8.02786
 20
46.6084
 11
9.00095
 21
46.8583
  0
LINE
  8
0
 10
9.00095
 20
46.8583
 11
9.99767
 21
46.9842
  0
LINE
  8
0
 10
9.99767
 20
46.9842
 11
11.0023
 21
46.9842
  0
LINE
  8
0
 10
11.0023
 20
46.9842
 11
11.999
 21
46.8583
  0
LINE
  8
0
 10
11.999
 20
46.8583
 11
12.9721
 21
46.6084
  0
LINE
  8
0
 10
12.9721
 20
46.6084
 11
13.9062
 21
46.2386
  0
LINE
  8
0
 10
13.9062
 20
46.2386
 11
14.7866
 21
45.7546
  0
LINE
  8
0
 10
14.7866
 20
45.7546
 11
15.5994
 21
45.1641
  0
LINE
  8
0
 10
15.5994
 20
45.1641
 11
16.3317
 21
44.4764
  0
LINE
  8
0
 10
16.3317
 20
44.4764
 11
16.9721
 21
43.7023
  0
LINE
  8
0
 10
16.9721
 20
43.7023
 11
17.5105
 21
42.854
  0
LINE
  8
0
 10
17.5105
 20
42.854
 11
17.9382
 21
41.945
  0
LINE
  8
0
 10
17.9382
 20
41.945
 11
18.2487
 21
40.9895
  0
LINE
  8
0
 10
18.2487
 20
40.9895
 11
18.4369
 21
40.0027
  0
LINE
  8
0
 10
18.4369
 20
40.0027
 11
18.5
 21
39
  0
LINE
  8
0
 10
18.5
 20
39
 11
18.4369
 21
37.9973
  0
LINE
  8
0
 10
18.4369
 20
37.9973
 11
18.2487
 21
37.0105
  0
LINE
  8
0
 10
18.2487
 20
37.0105
 11
17.9382
 21
36.055
  0
LINE
  8
0
 10
17.9382
 20
36.055
 11
17.5105
 21
35.146
  0
LINE
  8
0
 10
17.5105
 20
35.146
 11
16.9721
 21
34.2977
  0
LINE
  8
0
 10
16.9721
 20
34.2977
 11
16.3317
 21
33.5236
  0
LINE
  8
0
 10
16.3317
 20
33.5236
 11
15.5994
 21
32.8359
  0
LINE
  8
0
 10
15.5994
 20
32.8359
 11
14.7866
 21
32.2454
  0
LINE
  8
0
 10
14.7866
 20
32.2454
 11
13.9062
 21
31.7614
  0
LINE
  8
0
 10
13.9062
 20
31.7614
 11
12.9721
 21
31.3916
  0
LINE
  8
0
 10
12.9721
 20
31.3916
 11
11.999
 21
31.1417
  0
LINE
  8
0
 10
11.999
 20
31.1417
 11
11.0023
 21
31.0158
  0
LINE
  8
0
 10
11.0023
 20
31.0158
 11
9.99767
 21
31.0158
  0
LINE
  8
0
 10
30.9977
 20
31.0158
 11
30.0009
 21
31.1417
  0
LINE
  8
0
 10
30.0009
 20
31.1417
 11
29.0279
 21
31.3916
  0
LINE
  8
0
 10
29.0279
 20
31.3916
 11
28.0938
 21
31.7614
  0
LINE
  8
0
 10
28.0938
 20
31.7614
 11
27.2134
 21
32.2454
  0
LINE
  8
0
 10
27.2134
 20
32.2454
 11
26.4006
 21
32.8359
  0
LINE
  8
0
 10
26.4006
 20
32.8359
 11
25.6682
 21
33.5236
  0
LINE
  8
0
 10
25.6682
 20
33.5236
 11
25.0279
 21
34.2977
  0
LINE
  8
0
 10
25.0279
 20
34.2977
 11
24.4895
 21
35.146
  0
LINE
  8
0
 10
24.4895
 20
35.146
 11
24.0618
 21
36.055
  0
LINE
  8
0
 10
24.0618
 20
36.055
 11
23.7513
 21
37.0105
  0
LINE
  8
0
 10
23.7513
 20
37.0105
 11
23.5631
 21
37.9973
  0
LINE
  8
0
 10
23.5631
 20
37.9973
 11
23.5
 21
39
  0
LINE
  8
0
 10
23.5
 20
39
 11
23.5631
 21
40.0027
  0
LINE
  8
0
 10
23.5631
 20
40.0027
 11
23.7513
 21
40.9895
  0
LINE
  8
0
 10
23.7513
 20
40.9895
 11
24.0618
 21
41.945
  0
LINE
  8
0
 10
24.0618
 20
41.945
 11
24.4895
 21
42.854
  0
LINE
  8
0
 10
24.4895
 20
42.854
 11
25.0279
 21
43.7023
  0
LINE
  8
0
 10
25.0279
 20
43.7023
 11
25.6682
 21
44.4764
  0
LINE
  8
0
 10
25.6682
 20
44.4764
 11
26.4006
 21
45.1641
  0
LINE
  8
0
 10
26.4006
 20
45.1641
 11
27.2134
 21
45.7546
  0
LINE
  8
0
 10
27.2134
 20
45.7546
 11
28.0938
 21
46.2386
  0
LINE
  8
0
 10
28.0938
 20
46.2386
 11
29.0279
 21
46.6084
  0
LINE
  8
0
 10
29.0279
 20
46.6084
 11
30.0009
 21
46.8583
  0
LINE
  8
0
 10
30.0009
 20
46.8583
 11
30.9977
 21
46.9842
  0
LINE
  8
0
 10
30.9977
 20
46.9842
 11
32.0023
 21
46.9842
  0
LINE
  8
0
 10
32.0023
 20
46.9842
 11
32.999
 21
46.8583
  0
LINE
  8
0
 10
32.999
 20
46.8583
 11
33.9721
 21
46.6084
  0
LINE
  8
0
 10
33.9721
 20
46.6084
 11
34.9062
 21
46.2386
  0
LINE
  8
0
 10
34.9062
 20
46.2386
 11
35.7866
 21
45.7546
  0
LINE
  8
0
 10
35.7866
 20
45.7546
 11
36.5994
 21
45.1641
  0
LINE
  8
0
 10
36.5994
 20
45.1641
 11
37.3317
 21
44.4764
  0
LINE
  8
0
 10
37.3317
 20
44.4764
 11
37.9721
 21
43.7023
  0
LINE
  8
0
 10
37.9721
 20
43.7023
 11
38.5105
 21
42.854
  0
LINE
  8
0
 10
38.5105
 20
42.854
 11
38.9382
 21
41.945
  0
LINE
  8
0
 10
38.9382
 20
41.945
 11
39.2487
 21
40.9895
  0
LINE
  8
0
 10
39.2487
 20
40.9895
 11
39.4369
 21
40.0027
  0
LINE
  8
0
 10
39.4369
 20
40.0027
 11
39.5
 21
39
  0
LINE
  8
0
 10
39.5
 20
39
 11
39.4369
 21
37.9973
  0
LINE
  8
0
 10
39.4369
 20
37.9973
 11
39.2487
 21
37.0105
  0
LINE
  8
0
 10
39.2487
 20
37.0105
 11
38.9382
 21
36.055
  0
LINE
  8
0
 10
38.9382
 20
36.055
 11
38.5105
 21
35.146
  0
LINE
  8
0
 10
38.5105
 20
35.146
 11
37.9721
 21
34.2977
  0
LINE
  8
0
 10
37.9721
 20
34.2977
 11
37.3317
 21
33.5236
  0
LINE
  8
0
 10
37.3317
 20
33.5236
 11
36.5994
 21
32.8359
  0
LINE
  8
0
 10
36.5994
 20
32.8359
 11
35.7866
 21
32.2454
  0
LINE
  8
0
 10
35.7866
 20
32.2454
 11
34.9062
 21
31.7614
  0
LINE
  8
0
 10
34.9062
 20
31.7614
 11
33.9721
 21
31.3916
  0
LINE
  8
0
 10
33.9721
 20
31.3916
 11
32.999
 21
31.1417
  0
LINE
  8
0
 10
32.999
 20
31.1417
 11
32.0023
 21
31.0158
  0
LINE
  8
0
 10
32.0023
 20
31.0158
 11
30.9977
 21
31.0158
  0
LINE
  8
0
 10
-11.0023
 20
31.0158
 11
-11.999
 21
31.1417
  0
LINE
  8
0
 10
-11.999
 20
31.1417
 11
-12.9721
 21
31.3916
  0
LINE
  8
0
 10
-12.9721
 20
31.3916
 11
-13.9062
 21
31.7614
  0
LINE
  8
0
 10
-13.9062
 20
31.7614
 11
-14.7866
 21
32.2454
  0
LINE
  8
0
 10
-14.7866
 20
32.2454
 11
-15.5994
 21
32.8359
  0
LINE
  8
0
 10
-15.5994
 20
32.8359
 11
-16.3317
 21
33.5236
  0
LINE
  8
0
 10
-16.3317
 20
33.5236
 11
-16.9721
 21
34.2977
  0
LINE
  8
0
 10
-16.9721
 20
34.2977
 11
-17.5105
 21
35.146
  0
LINE
  8
0
 10
-17.5105
 20
35.146
 11
-17.9382
 21
36.055
  0
LINE
  8
0
 10
-17.9382
 20
36.055
 11
-18.2487
 21
37.0105
  0
LINE
  8
0
 10
-18.2487
 20
37.0105
 11
-18.4369
 21
37.9973
  0
LINE
  8
0
 10
-18.4369
 20
37.9973
 11
-18.5
 21
39
  0
LINE
  8
0
 10
-18.5
 20
39
 11
-18.4369
 21
40.0027
  0
LINE
  8
0
 10
-18.4369
 20
40.0027
 11
-18.2487
 21
40.9895
  0
LINE
  8
0
 10
-18.2487
 20
40.9895
 11
-17.9382
 21
41.945
  0
LINE
  8
0
 10
-17.9382
 20
41.945
 11
-17.5105
 21
42.854
  0
LINE
  8
0
 10
-17.5105
 20
42.854
 11
-16.9721
 21
43.7023
  0
LINE
  8
0
 10
-16.9721
 20
43.7023
 11
-16.3317
 21
44.4764
  0
LINE
  8
0
 10
-16.3317
 20
44.4764
 11
-15.5994
 21
45.1641
  0
LINE
  8
0
 10
-15.5994
 20
45.1641
 11
-14.7866
 21
45.7546
  0
LINE
  8
0
 10
-14.7866
 20
45.7546
 11
-13.9062
 21
46.2386
  0
LINE
  8
0
 10
-13.9062
 20
46.2386
 11
-12.9721
 21
46.6084
  0
LINE
  8
0
 10
-12.9721
 20
46.6084
 11
-11.999
 21
46.8583
  0
LINE
  8
0
 10
-11.999
 20
46.8583
 11
-11.0023
 21
46.9842
  0
LINE
  8
0
 10
-11.0023
 20
46.9842
 11
-9.99767
 21
46.9842
  0
LINE
  8
0
 10
-9.99767
 20
46.9842
 11
-9.00095
 21
46.8583
  0
LINE
  8
0
 10
-9.00095
 20
46.8583
 11
-8.02786
 21
46.6084
  0
LINE
  8
0
 10
-8.02786
 20
46.6084
 11
-7.09377
 21
46.2386
  0
LINE
  8
0
 10
-7.09377
 20
46.2386
 11
-6.21338
 21
45.7546
  0
LINE
  8
0
 10
-6.21338
 20
45.7546
 11
-5.4006
 21
45.1641
  0
LINE
  8
0
 10
-5.4006
 20
45.1641
 11
-4.66824
 21
44.4764
  0
LINE
  8
0
 10
-4.66824
 20
44.4764
 11
-4.02786
 21
43.7023
  0
LINE
  8
0
 10
-4.02786
 20
43.7023
 11
-3.48953
 21
42.854
  0
LINE
  8
0
 10
-3.48953
 20
42.854
 11
-3.06178
 21
41.945
  0
LINE
  8
0
 10
-3.06178
 20
41.945
 11
-2.75133
 21
40.9895
  0
LINE
  8
0
 10
-2.75133
 20
40.9895
 11
-2.56308
 21
40.0027
  0
LINE
  8
0
 10
-2.56308
 20
40.0027
 11
-2.5
 21
39
  0
LINE
  8
0
 10
-2.5
 20
39
 11
-2.56308
 21
37.9973
  0
LINE
  8
0
 10
-2.56308
 20
37.9973
 11
-2.75133
 21
37.0105
  0
LINE
  8
0
 10
-2.75133
 20
37.0105
 11
-3.06178
 21
36.055
  0
LINE
  8
0
 10
-3.06178
 20
36.055
 11
-3.48953
 21
35.146
  0
LINE
  8
0
 10
-3.48953
 20
35.146
 11
-4.02786
 21
34.2977
  0
LINE
  8
0
 10
-4.02786
 20
34.2977
 11
-4.66824
 21
33.5236
  0
LINE
  8
0
 10
-4.66824
 20
33.5236
 11
-5.4006
 21
32.8359
  0
LINE
  8
0
 10
-5.4006
 20
32.8359
 11
-6.21338
 21
32.2454
  0
LINE
  8
0
 10
-6.21338
 20
32.2454
 11
-7.09377
 21
31.7614
  0
LINE
  8
0
 10
-7.09377
 20
31.7614
 11
-8.02786
 21
31.3916
  0
LINE
  8
0
 10
-8.02786
 20
31.3916
 11
-9.00095
 21
31.1417
  0
LINE
  8
0
 10
-9.00095
 20
31.1417
 11
-9.99767
 21
31.0158
  0
LINE
  8
0
 10
-9.99767
 20
31.0158
 11
-11.0023
 21
31.0158
  0
LINE
  8
0
 10
-45.0942
 20
37.503
 11
-45.2811
 21
37.5266
  0
LINE
  8
0
 10
-45.2811
 20
37.5266
 11
-45.4635
 21
37.5734
  0
LINE
  8
0
 10
-45.4635
 20
37.5734
 11
-45.6387
 21
37.6428
  0
LINE
  8
0
 10
-45.6387
 20
37.6428
 11
-45.8037
 21
37.7335
  0
LINE
  8
0
 10
-45.8037
 20
37.7335
 11
-45.9561
 21
37.8442
  0
LINE
  8
0
 10
-45.9561
 20
37.8442
 11
-46.0934
 21
37.9732
  0
LINE
  8
0
 10
-46.0934
 20
37.9732
 11
-46.2135
 21
38.1183
  0
LINE
  8
0
 10
-46.2135
 20
38.1183
 11
-46.3145
 21
38.2774
  0
LINE
  8
0
 10
-46.3145
 20
38.2774
 11
-46.3947
 21
38.4478
  0
LINE
  8
0
 10
-46.3947
 20
38.4478
 11
-46.4529
 21
38.627
  0
LINE
  8
0
 10
-46.4529
 20
38.627
 11
-46.4882
 21
38.812
  0
LINE
  8
0
 10
-46.4882
 20
38.812
 11
-46.5
 21
39
  0
LINE
  8
0
 10
-46.5
 20
39
 11
-46.4882
 21
39.188
  0
LINE
  8
0
 10
-46.4882
 20
39.188
 11
-46.4529
 21
39.373
  0
LINE
  8
0
 10
-46.4529
 20
39.373
 11
-46.3947
 21
39.5522
  0
LINE
  8
0
 10
-46.3947
 20
39.5522
 11
-46.3145
 21
39.7226
  0
LINE
  8
0
 10
-46.3145
 20
39.7226
 11
-46.2135
 21
39.8817
  0
LINE
  8
0
 10
-46.2135
 20
39.8817
 11
-46.0934
 21
40.0268
  0
LINE
  8
0
 10
-46.0934
 20
40.0268
 11
-45.9561
 21
40.1558
  0
LINE
  8
0
 10
-45.9561
 20
40.1558
 11
-45.8037
 21
40.2665
  0
LINE
  8
0
 10
-45.8037
 20
40.2665
 11
-45.6387
 21
40.3572
  0
LINE
  8
0
 10
-45.6387
 20
40.3572
 11
-45.4635
 21
40.4266
  0
LINE
  8
0
 10
-45.4635
 20
40.4266
 11
-45.2811
 21
40.4734
  0
LINE
  8
0
 10
-45.2811
 20
40.4734
 11
-45.0942
 21
40.497
  0
LINE
  8
0
 10
-45.0942
 20
40.497
 11
-44.9058
 21
40.497
  0
LINE
  8
0
 10
-44.9058
 20
40.497
 11
-44.7189
 21
40.4734
  0
LINE
  8
0
 10
-44.7189
 20
40.4734
 11
-44.5365
 21
40.4266
  0
LINE
  8
0
 10
-44.5365
 20
40.4266
 11
-44.3613
 21
40.3572
  0
LINE
  8
0
 10
-44.3613
 20
40.3572
 11
-44.1963
 21
40.2665
  0
LINE
  8
0
 10
-44.1963
 20
40.2665
 11
-44.0439
 21
40.1558
  0
LINE
  8
0
 10
-44.0439
 20
40.1558
 11
-43.9065
 21
40.0268
  0
LINE
  8
0
 10
-43.9065
 20
40.0268
 11
-43.7865
 21
39.8817
  0
LINE
  8
0
 10
-43.7865
 20
39.8817
 11
-43.6855
 21
39.7226
  0
LINE
  8
0
 10
-43.6855
 20
39.7226
 11
-43.6053
 21
39.5522
  0
LINE
  8
0
 10
-43.6053
 20
39.5522
 11
-43.5471
 21
39.373
  0
LINE
  8
0
 10
-43.5471
 20
39.373
 11
-43.5118
 21
39.188
  0
LINE
  8
0
 10
-43.5118
 20
39.188
 11
-43.5
 21
39
  0
LINE
  8
0
 10
-43.5
 20
39
 11
-43.5118
 21
38.812
  0
LINE
  8
0
 10
-43.5118
 20
38.812
 11
-43.5471
 21
38.627
  0
LINE
  8
0
 10
-43.5471
 20
38.627
 11
-43.6053
 21
38.4478
  0
LINE
  8
0
 10
-43.6053
 20
38.4478
 11
-43.6855
 21
38.2774
  0
LINE
  8
0
 10
-43.6855
 20
38.2774
 11
-43.7865
 21
38.1183
  0
LINE
  8
0
 10
-43.7865
 20
38.1183
 11
-43.9065
 21
37.9732
  0
LINE
  8
0
 10
-43.9065
 20
37.9732
 11
-44.0439
 21
37.8442
  0
LINE
  8
0
 10
-44.0439
 20
37.8442
 11
-44.1963
 21
37.7335
  0
LINE
  8
0
 10
-44.1963
 20
37.7335
 11
-44.3613
 21
37.6428
  0
LINE
  8
0
 10
-44.3613
 20
37.6428
 11
-44.5365
 21
37.5734
  0
LINE
  8
0
 10
-44.5365
 20
37.5734
 11
-44.7189
 21
37.5266
  0
LINE
  8
0
 10
-44.7189
 20
37.5266
 11
-44.9058
 21
37.503
  0
LINE
  8
0
 10
-44.9058
 20
37.503
 11
-45.0942
 21
37.503
  0
LINE
  8
0
 10
44.9058
 20
37.503
 11
44.7189
 21
37.5266
  0
LINE
  8
0
 10
44.7189
 20
37.5266
 11
44.5365
 21
37.5734
  0
LINE
  8
0
 10
44.5365
 20
37.5734
 11
44.3613
 21
37.6428
  0
LINE
  8
0
 10
44.3613
 20
37.6428
 11
44.1963
 21
37.7335
  0
LINE
  8
0
 10
44.1963
 20
37.7335
 11
44.0439
 21
37.8442
  0
LINE
  8
0
 10
44.0439
 20
37.8442
 11
43.9065
 21
37.9732
  0
LINE
  8
0
 10
43.9065
 20
37.9732
 11
43.7865
 21
38.1183
  0
LINE
  8
0
 10
43.7865
 20
38.1183
 11
43.6855
 21
38.2774
  0
LINE
  8
0
 10
43.6855
 20
38.2774
 11
43.6053
 21
38.4478
  0
LINE
  8
0
 10
43.6053
 20
38.4478
 11
43.5471
 21
38.627
  0
LINE
  8
0
 10
43.5471
 20
38.627
 11
43.5118
 21
38.812
  0
LINE
  8
0
 10
43.5118
 20
38.812
 11
43.5
 21
39
  0
LINE
  8
0
 10
43.5
 20
39
 11
43.5118
 21
39.188
  0
LINE
  8
0
 10
43.5118
 20
39.188
 11
43.5471
 21
39.373
  0
LINE
  8
0
 10
43.5471
 20
39.373
 11
43.6053
 21
39.5522
  0
LINE
  8
0
 10
43.6053
 20
39.5522
 11
43.6855
 21
39.7226
  0
LINE
  8
0
 10
43.6855
 20
39.7226
 11
43.7865
 21
39.8817
  0
LINE
  8
0
 10
43.7865
 20
39.8817
 11
43.9065
 21
40.0268
  0
LINE
  8
0
 10
43.9065
 20
40.0268
 11
44.0439
 21
40.1558
  0
LINE
  8
0
 10
44.0439
 20
40.1558
 11
44.1963
 21
40.2665
  0
LINE
  8
0
 10
44.1963
 20
40.2665
 11
44.3613
 21
40.3572
  0
LINE
  8
0
 10
44.3613
 20
40.3572
 11
44.5365
 21
40.4266
  0
LINE
  8
0
 10
44.5365
 20
40.4266
 11
44.7189
 21
40.4734
  0
LINE
  8
0
 10
44.7189
 20
40.4734
 11
44.9058
 21
40.497
  0
LINE
  8
0
 10
44.9058
 20
40.497
 11
45.0942
 21
40.497
  0
LINE
  8
0
 10
45.0942
 20
40.497
 11
45.2811
 21
40.4734
  0
LINE
  8
0
 10
45.2811
 20
40.4734
 11
45.4635
 21
40.4266
  0
LINE
  8
0
 10
45.4635
 20
40.4266
 11
45.6387
 21
40.3572
  0
LINE
  8
0
 10
45.6387
 20
40.3572
 11
45.8037
 21
40.2665
  0
LINE
  8
0
 10
45.8037
 20
40.2665
 11
45.9561
 21
40.1558
  0
LINE
  8
0
 10
45.9561
 20
40.1558
 11
46.0934
 21
40.0268
  0
LINE
  8
0
 10
46.0934
 20
40.0268
 11
46.2135
 21
39.8817
  0
LINE
  8
0
 10
46.2135
 20
39.8817
 11
46.3145
 21
39.7226
  0
LINE
  8
0
 10
46.3145
 20
39.7226
 11
46.3947
 21
39.5522
  0
LINE
  8
0
 10
46.3947
 20
39.5522
 11
46.4529
 21
39.373
  0
LINE
  8
0
 10
46.4529
 20
39.373
 11
46.4882
 21
39.188
  0
LINE
  8
0
 10
46.4882
 20
39.188
 11
46.5
 21
39
  0
LINE
  8
0
 10
46.5
 20
39
 11
46.4882
 21
38.812
  0
LINE
  8
0
 10
46.4882
 20
38.812
 11
46.4529
 21
38.627
  0
LINE
  8
0
 10
46.4529
 20
38.627
 11
46.3947
 21
38.4478
  0
LINE
  8
0
 10
46.3947
 20
38.4478
 11
46.3145
 21
38.2774
  0
LINE
  8
0
 10
46.3145
 20
38.2774
 11
46.2135
 21
38.1183
  0
LINE
  8
0
 10
46.2135
 20
38.1183
 11
46.0934
 21
37.9732
  0
LINE
  8
0
 10
46.0934
 20
37.9732
 11
45.9561
 21
37.8442
  0
LINE
  8
0
 10
45.9561
 20
37.8442
 11
45.8037
 21
37.7335
  0
LINE
  8
0
 10
45.8037
 20
37.7335
 11
45.6387
 21
37.6428
  0
LINE
  8
0
 10
45.6387
 20
37.6428
 11
45.4635
 21
37.5734
  0
LINE
  8
0
 10
45.4635
 20
37.5734
 11
45.2811
 21
37.5266
  0
LINE
  8
0
 10
45.2811
 20
37.5266
 11
45.0942
 21
37.503
  0
LINE
  8
0
 10
45.0942
 20
37.503
 11
44.9058
 21
37.503
  0
LINE
  8
0
 10
-45.1884
 20
28.5059
 11
-45.5621
 21
28.5531
  0
LINE
  8
0
 10
-45.5621
 20
28.5531
 11
-45.927
 21
28.6468
  0
LINE
  8
0
 10
-45.927
 20
28.6468
 11
-46.2773
 21
28.7855
  0
LINE
  8
0
 10
-46.2773
 20
28.7855
 11
-46.6075
 21
28.967
  0
LINE
  8
0
 10
-46.6075
 20
28.967
 11
-46.9123
 21
29.1885
  0
LINE
  8
0
 10
-46.9123
 20
29.1885
 11
-47.1869
 21
29.4464
  0
LINE
  8
0
 10
-47.1869
 20
29.4464
 11
-47.427
 21
29.7366
  0
LINE
  8
0
 10
-47.427
 20
29.7366
 11
-47.6289
 21
30.0547
  0
LINE
  8
0
 10
-47.6289
 20
30.0547
 11
-47.7893
 21
30.3956
  0
LINE
  8
0
 10
-47.7893
 20
30.3956
 11
-47.9057
 21
30.7539
  0
LINE
  8
0
 10
-47.9057
 20
30.7539
 11
-47.9763
 21
31.124
  0
LINE
  8
0
 10
-47.9763
 20
31.124
 11
-48
 21
31.5
  0
LINE
  8
0
 10
-48
 20
31.5
 11
-47.9763
 21
31.876
  0
LINE
  8
0
 10
-47.9763
 20
31.876
 11
-47.9057
 21
32.2461
  0
LINE
  8
0
 10
-47.9057
 20
32.2461
 11
-47.7893
 21
32.6044
  0
LINE
  8
0
 10
-47.7893
 20
32.6044
 11
-47.6289
 21
32.9453
  0
LINE
  8
0
 10
-47.6289
 20
32.9453
 11
-47.427
 21
33.2634
  0
LINE
  8
0
 10
-47.427
 20
33.2634
 11
-47.1869
 21
33.5536
  0
LINE
  8
0
 10
-47.1869
 20
33.5536
 11
-46.9123
 21
33.8116
  0
LINE
  8
0
 10
-46.9123
 20
33.8116
 11
-46.6075
 21
34.033
  0
LINE
  8
0
 10
-46.6075
 20
34.033
 11
-46.2773
 21
34.2145
  0
LINE
  8
0
 10
-46.2773
 20
34.2145
 11
-45.927
 21
34.3532
  0
LINE
  8
0
 10
-45.927
 20
34.3532
 11
-45.5621
 21
34.4469
  0
LINE
  8
0
 10
-45.5621
 20
34.4469
 11
-45.1884
 21
34.4941
  0
LINE
  8
0
 10
-45.1884
 20
34.4941
 11
-44.8116
 21
34.4941
  0
LINE
  8
0
 10
-44.8116
 20
34.4941
 11
-44.4379
 21
34.4469
  0
LINE
  8
0
 10
-44.4379
 20
34.4469
 11
-44.0729
 21
34.3532
  0
LINE
  8
0
 10
-44.0729
 20
34.3532
 11
-43.7227
 21
34.2145
  0
LINE
  8
0
 10
-43.7227
 20
34.2145
 11
-43.3925
 21
34.033
  0
LINE
  8
0
 10
-43.3925
 20
34.033
 11
-43.0877
 21
33.8116
  0
LINE
  8
0
 10
-43.0877
 20
33.8116
 11
-42.8131
 21
33.5536
  0
LINE
  8
0
 10
-42.8131
 20
33.5536
 11
-42.5729
 21
33.2634
  0
LINE
  8
0
 10
-42.5729
 20
33.2634
 11
-42.3711
 21
32.9453
  0
LINE
  8
0
 10
-42.3711
 20
32.9453
 11
-42.2107
 21
32.6044
  0
LINE
  8
0
 10
-42.2107
 20
32.6044
 11
-42.0942
 21
32.2461
  0
LINE
  8
0
 10
-42.0942
 20
32.2461
 11
-42.0237
 21
31.876
  0
LINE
  8
0
 10
-42.0237
 20
31.876
 11
-42
 21
31.5
  0
LINE
  8
0
 10
-42
 20
31.5
 11
-42.0237
 21
31.124
  0
LINE
  8
0
 10
-42.0237
 20
31.124
 11
-42.0942
 21
30.7539
  0
LINE
  8
0
 10
-42.0942
 20
30.7539
 11
-42.2107
 21
30.3956
  0
LINE
  8
0
 10
-42.2107
 20
30.3956
 11
-42.3711
 21
30.0547
  0
LINE
  8
0
 10
-42.3711
 20
30.0547
 11
-42.5729
 21
29.7366
  0
LINE
  8
0
 10
-42.5729
 20
29.7366
 11
-42.8131
 21
29.4464
  0
LINE
  8
0
 10
-42.8131
 20
29.4464
 11
-43.0877
 21
29.1885
  0
LINE
  8
0
 10
-43.0877
 20
29.1885
 11
-43.3925
 21
28.967
  0
LINE
  8
0
 10
-43.3925
 20
28.967
 11
-43.7227
 21
28.7855
  0
LINE
  8
0
 10
-43.7227
 20
28.7855
 11
-44.0729
 21
28.6468
  0
LINE
  8
0
 10
-44.0729
 20
28.6468
 11
-44.4379
 21
28.5531
  0
LINE
  8
0
 10
-44.4379
 20
28.5531
 11
-44.8116
 21
28.5059
  0
LINE
  8
0
 10
-44.8116
 20
28.5059
 11
-45.1884
 21
28.5059
  0
LINE
  8
0
 10
44.8116
 20
28.5059
 11
44.4379
 21
28.5531
  0
LINE
  8
0
 10
44.4379
 20
28.5531
 11
44.0729
 21
28.6468
  0
LINE
  8
0
 10
44.0729
 20
28.6468
 11
43.7227
 21
28.7855
  0
LINE
  8
0
 10
43.7227
 20
28.7855
 11
43.3925
 21
28.967
  0
LINE
  8
0
 10
43.3925
 20
28.967
 11
43.0877
 21
29.1885
  0
LINE
  8
0
 10
43.0877
 20
29.1885
 11
42.8131
 21
29.4464
  0
LINE
  8
0
 10
42.8131
 20
29.4464
 11
42.5729
 21
29.7366
  0
LINE
  8
0
 10
42.5729
 20
29.7366
 11
42.3711
 21
30.0547
  0
LINE
  8
0
 10
42.3711
 20
30.0547
 11
42.2107
 21
30.3956
  0
LINE
  8
0
 10
42.2107
 20
30.3956
 11
42.0942
 21
30.7539
  0
LINE
  8
0
 10
42.0942
 20
30.7539
 11
42.0237
 21
31.124
  0
LINE
  8
0
 10
42.0237
 20
31.124
 11
42
 21
31.5
  0
LINE
  8
0
 10
42
 20
31.5
 11
42.0237
 21
31.876
  0
LINE
  8
0
 10
42.0237
 20
31.876
 11
42.0942
 21
32.2461
  0
LINE
  8
0
 10
42.0942
 20
32.2461
 11
42.2107
 21
32.6044
  0
LINE
  8
0
 10
42.2107
 20
32.6044
 11
42.3711
 21
32.9453
  0
LINE
  8
0
 10
42.3711
 20
32.9453
 11
42.5729
 21
33.2634
  0
LINE
  8
0
 10
42.5729
 20
33.2634
 11
42.8131
 21
33.5536
  0
LINE
  8
0
 10
42.8131
 20
33.5536
 11
43.0877
 21
33.8116
  0
LINE
  8
0
 10
43.0877
 20
33.8116
 11
43.3925
 21
34.033
  0
LINE
  8
0
 10
43.3925
 20
34.033
 11
43.7227
 21
34.2145
  0
LINE
  8
0
 10
43.7227
 20
34.2145
 11
44.0729
 21
34.3532
  0
LINE
  8
0
 10
44.0729
 20
34.3532
 11
44.4379
 21
34.4469
  0
LINE
  8
0
 10
44.4379
 20
34.4469
 11
44.8116
 21
34.4941
  0
LINE
  8
0
 10
44.8116
 20
34.4941
 11
45.1884
 21
34.4941
  0
LINE
  8
0
 10
45.1884
 20
34.4941
 11
45.5621
 21
34.4469
  0
LINE
  8
0
 10
45.5621
 20
34.4469
 11
45.927
 21
34.3532
  0
LINE
  8
0
 10
45.927
 20
34.3532
 11
46.2773
 21
34.2145
  0
LINE
  8
0
 10
46.2773
 20
34.2145
 11
46.6075
 21
34.033
  0
LINE
  8
0
 10
46.6075
 20
34.033
 11
46.9123
 21
33.8116
  0
LINE
  8
0
 10
46.9123
 20
33.8116
 11
47.1869
 21
33.5536
  0
LINE
  8
0
 10
47.1869
 20
33.5536
 11
47.427
 21
33.2634
  0
LINE
  8
0
 10
47.427
 20
33.2634
 11
47.6289
 21
32.9453
  0
LINE
  8
0
 10
47.6289
 20
32.9453
 11
47.7893
 21
32.6044
  0
LINE
  8
0
 10
47.7893
 20
32.6044
 11
47.9057
 21
32.2461
  0
LINE
  8
0
 10
47.9057
 20
32.2461
 11
47.9763
 21
31.876
  0
LINE
  8
0
 10
47.9763
 20
31.876
 11
48
 21
31.5
  0
LINE
  8
0
 10
48
 20
31.5
 11
47.9763
 21
31.124
  0
LINE
  8
0
 10
47.9763
 20
31.124
 11
47.9057
 21
30.7539
  0
LINE
  8
0
 10
47.9057
 20
30.7539
 11
47.7893
 21
30.3956
  0
LINE
  8
0
 10
47.7893
 20
30.3956
 11
47.6289
 21
30.0547
  0
LINE
  8
0
 10
47.6289
 20
30.0547
 11
47.427
 21
29.7366
  0
LINE
  8
0
 10
47.427
 20
29.7366
 11
47.1869
 21
29.4464
  0
LINE
  8
0
 10
47.1869
 20
29.4464
 11
46.9123
 21
29.1885
  0
LINE
  8
0
 10
46.9123
 20
29.1885
 11
46.6075
 21
28.967
  0
LINE
  8
0
 10
46.6075
 20
28.967
 11
46.2773
 21
28.7855
  0
LINE
  8
0
 10
46.2773
 20
28.7855
 11
45.927
 21
28.6468
  0
LINE
  8
0
 10
45.927
 20
28.6468
 11
45.5621
 21
28.5531
  0
LINE
  8
0
 10
45.5621
 20
28.5531
 11
45.1884
 21
28.5059
  0
LINE
  8
0
 10
45.1884
 20
28.5059
 11
44.8116
 21
28.5059
  0
ENDSEC
  0
SECTION
  2
OBJECTS
  0
DICTIONARY
  0
ENDSEC
  0
EOF
