  0
SECTION
  2
BLOCKS
  0
ENDSEC
  0
SECTION
  2
ENTITIES
  0
LINE
  8
0
 10
62.9369
 20
-21.9114
 11
63.5451
 21
-21.7553
  0
LINE
  8
0
 10
63.5451
 20
-21.7553
 11
64.1289
 21
-21.5241
  0
LINE
  8
0
 10
64.1289
 20
-21.5241
 11
64.6791
 21
-21.2216
  0
LINE
  8
0
 10
64.6791
 20
-21.2216
 11
65.1871
 21
-20.8526
  0
LINE
  8
0
 10
65.1871
 20
-20.8526
 11
65.6448
 21
-20.4227
  0
LINE
  8
0
 10
65.6448
 20
-20.4227
 11
66.0451
 21
-19.9389
  0
LINE
  8
0
 10
66.0451
 20
-19.9389
 11
66.3815
 21
-19.4088
  0
LINE
  8
0
 10
66.3815
 20
-19.4088
 11
66.6489
 21
-18.8406
  0
LINE
  8
0
 10
66.6489
 20
-18.8406
 11
66.8429
 21
-18.2434
  0
LINE
  8
0
 10
66.8429
 20
-18.2434
 11
66.9606
 21
-17.6267
  0
LINE
  8
0
 10
66.9606
 20
-17.6267
 11
67
 21
-17
  0
LINE
  8
0
 10
67
 20
-17
 11
67
 21
17
  0
LINE
  8
0
 10
67
 20
17
 11
66.9606
 21
17.6267
  0
LINE
  8
0
 10
66.9606
 20
17.6267
 11
66.8429
 21
18.2434
  0
LINE
  8
0
 10
66.8429
 20
18.2434
 11
66.6489
 21
18.8406
  0
LINE
  8
0
 10
66.6489
 20
18.8406
 11
66.3815
 21
19.4088
  0
LINE
  8
0
 10
66.3815
 20
19.4088
 11
66.0451
 21
19.9389
  0
LINE
  8
0
 10
66.0451
 20
19.9389
 11
65.6448
 21
20.4227
  0
LINE
  8
0
 10
65.6448
 20
20.4227
 11
65.1871
 21
20.8526
  0
LINE
  8
0
 10
65.1871
 20
20.8526
 11
64.6791
 21
21.2216
  0
LINE
  8
0
 10
64.6791
 20
21.2216
 11
64.1289
 21
21.5241
  0
LINE
  8
0
 10
64.1289
 20
21.5241
 11
63.5451
 21
21.7553
  0
LINE
  8
0
 10
63.5451
 20
21.7553
 11
62.9369
 21
21.9114
  0
LINE
  8
0
 10
62.9369
 20
21.9114
 11
62.3139
 21
21.9901
  0
LINE
  8
0
 10
62.3139
 20
21.9901
 11
-62.3139
 21
21.9901
  0
LINE
  8
0
 10
-62.3139
 20
21.9901
 11
-62.9369
 21
21.9114
  0
LINE
  8
0
 10
-62.9369
 20
21.9114
 11
-63.5451
 21
21.7553
  0
LINE
  8
0
 10
-63.5451
 20
21.7553
 11
-64.1289
 21
21.5241
  0
LINE
  8
0
 10
-64.1289
 20
21.5241
 11
-64.6791
 21
21.2216
  0
LINE
  8
0
 10
-64.6791
 20
21.2216
 11
-65.1871
 21
20.8526
  0
LINE
  8
0
 10
-65.1871
 20
20.8526
 11
-65.6448
 21
20.4227
  0
LINE
  8
0
 10
-65.6448
 20
20.4227
 11
-66.0451
 21
19.9389
  0
LINE
  8
0
 10
-66.0451
 20
19.9389
 11
-66.3815
 21
19.4088
  0
LINE
  8
0
 10
-66.3815
 20
19.4088
 11
-66.6489
 21
18.8406
  0
LINE
  8
0
 10
-66.6489
 20
18.8406
 11
-66.8429
 21
18.2434
  0
LINE
  8
0
 10
-66.8429
 20
18.2434
 11
-66.9606
 21
17.6267
  0
LINE
  8
0
 10
-66.9606
 20
17.6267
 11
-67
 21
17
  0
LINE
  8
0
 10
-67
 20
17
 11
-67
 21
-17
  0
LINE
  8
0
 10
-67
 20
-17
 11
-66.9606
 21
-17.6267
  0
LINE
  8
0
 10
-66.9606
 20
-17.6267
 11
-66.8429
 21
-18.2434
  0
LINE
  8
0
 10
-66.8429
 20
-18.2434
 11
-66.6489
 21
-18.8406
  0
LINE
  8
0
 10
-66.6489
 20
-18.8406
 11
-66.3815
 21
-19.4088
  0
LINE
  8
0
 10
-66.3815
 20
-19.4088
 11
-66.0451
 21
-19.9389
  0
LINE
  8
0
 10
-66.0451
 20
-19.9389
 11
-65.6448
 21
-20.4227
  0
LINE
  8
0
 10
-65.6448
 20
-20.4227
 11
-65.1871
 21
-20.8526
  0
LINE
  8
0
 10
-65.1871
 20
-20.8526
 11
-64.6791
 21
-21.2216
  0
LINE
  8
0
 10
-64.6791
 20
-21.2216
 11
-64.1289
 21
-21.5241
  0
LINE
  8
0
 10
-64.1289
 20
-21.5241
 11
-63.5451
 21
-21.7553
  0
LINE
  8
0
 10
-63.5451
 20
-21.7553
 11
-62.9369
 21
-21.9114
  0
LINE
  8
0
 10
-62.9369
 20
-21.9114
 11
-62.3139
 21
-21.9901
  0
LINE
  8
0
 10
-62.3139
 20
-21.9901
 11
62.3139
 21
-21.9901
  0
LINE
  8
0
 10
62.3139
 20
-21.9901
 11
62.9369
 21
-21.9114
  0
LINE
  8
0
 10
59.8116
 20
12.0059
 11
59.4379
 21
12.0531
  0
LINE
  8
0
 10
59.4379
 20
12.0531
 11
59.0729
 21
12.1468
  0
LINE
  8
0
 10
59.0729
 20
12.1468
 11
58.7227
 21
12.2855
  0
LINE
  8
0
 10
58.7227
 20
12.2855
 11
58.3925
 21
12.467
  0
LINE
  8
0
 10
58.3925
 20
12.467
 11
58.0877
 21
12.6884
  0
LINE
  8
0
 10
58.0877
 20
12.6884
 11
57.8131
 21
12.9464
  0
LINE
  8
0
 10
57.8131
 20
12.9464
 11
57.5729
 21
13.2366
  0
LINE
  8
0
 10
57.5729
 20
13.2366
 11
57.3711
 21
13.5547
  0
LINE
  8
0
 10
57.3711
 20
13.5547
 11
57.2107
 21
13.8956
  0
LINE
  8
0
 10
57.2107
 20
13.8956
 11
57.0942
 21
14.2539
  0
LINE
  8
0
 10
57.0942
 20
14.2539
 11
57.0237
 21
14.624
  0
LINE
  8
0
 10
57.0237
 20
14.624
 11
57
 21
15
  0
LINE
  8
0
 10
57
 20
15
 11
57.0237
 21
15.376
  0
LINE
  8
0
 10
57.0237
 20
15.376
 11
57.0942
 21
15.7461
  0
LINE
  8
0
 10
57.0942
 20
15.7461
 11
57.2107
 21
16.1044
  0
LINE
  8
0
 10
57.2107
 20
16.1044
 11
57.3711
 21
16.4453
  0
LINE
  8
0
 10
57.3711
 20
16.4453
 11
57.5729
 21
16.7634
  0
LINE
  8
0
 10
57.5729
 20
16.7634
 11
57.8131
 21
17.0536
  0
LINE
  8
0
 10
57.8131
 20
17.0536
 11
58.0877
 21
17.3115
  0
LINE
  8
0
 10
58.0877
 20
17.3115
 11
58.3925
 21
17.533
  0
LINE
  8
0
 10
58.3925
 20
17.533
 11
58.7227
 21
17.7145
  0
LINE
  8
0
 10
58.7227
 20
17.7145
 11
59.0729
 21
17.8532
  0
LINE
  8
0
 10
59.0729
 20
17.8532
 11
59.4379
 21
17.9469
  0
LINE
  8
0
 10
59.4379
 20
17.9469
 11
59.8116
 21
17.9941
  0
LINE
  8
0
 10
59.8116
 20
17.9941
 11
60.1884
 21
17.9941
  0
LINE
  8
0
 10
60.1884
 20
17.9941
 11
60.5621
 21
17.9469
  0
LINE
  8
0
 10
60.5621
 20
17.9469
 11
60.927
 21
17.8532
  0
LINE
  8
0
 10
60.927
 20
17.8532
 11
61.2773
 21
17.7145
  0
LINE
  8
0
 10
61.2773
 20
17.7145
 11
61.6075
 21
17.533
  0
LINE
  8
0
 10
61.6075
 20
17.533
 11
61.9123
 21
17.3115
  0
LINE
  8
0
 10
61.9123
 20
17.3115
 11
62.1869
 21
17.0536
  0
LINE
  8
0
 10
62.1869
 20
17.0536
 11
62.427
 21
16.7634
  0
LINE
  8
0
 10
62.427
 20
16.7634
 11
62.6289
 21
16.4453
  0
LINE
  8
0
 10
62.6289
 20
16.4453
 11
62.7893
 21
16.1044
  0
LINE
  8
0
 10
62.7893
 20
16.1044
 11
62.9057
 21
15.7461
  0
LINE
  8
0
 10
62.9057
 20
15.7461
 11
62.9763
 21
15.376
  0
LINE
  8
0
 10
62.9763
 20
15.376
 11
63
 21
15
  0
LINE
  8
0
 10
63
 20
15
 11
62.9763
 21
14.624
  0
LINE
  8
0
 10
62.9763
 20
14.624
 11
62.9057
 21
14.2539
  0
LINE
  8
0
 10
62.9057
 20
14.2539
 11
62.7893
 21
13.8956
  0
LINE
  8
0
 10
62.7893
 20
13.8956
 11
62.6289
 21
13.5547
  0
LINE
  8
0
 10
62.6289
 20
13.5547
 11
62.427
 21
13.2366
  0
LINE
  8
0
 10
62.427
 20
13.2366
 11
62.1869
 21
12.9464
  0
LINE
  8
0
 10
62.1869
 20
12.9464
 11
61.9123
 21
12.6884
  0
LINE
  8
0
 10
61.9123
 20
12.6884
 11
61.6075
 21
12.467
  0
LINE
  8
0
 10
61.6075
 20
12.467
 11
61.2773
 21
12.2855
  0
LINE
  8
0
 10
61.2773
 20
12.2855
 11
60.927
 21
12.1468
  0
LINE
  8
0
 10
60.927
 20
12.1468
 11
60.5621
 21
12.0531
  0
LINE
  8
0
 10
60.5621
 20
12.0531
 11
60.1884
 21
12.0059
  0
LINE
  8
0
 10
60.1884
 20
12.0059
 11
59.8116
 21
12.0059
  0
LINE
  8
0
 10
-60.1884
 20
12.0059
 11
-60.5621
 21
12.0531
  0
LINE
  8
0
 10
-60.5621
 20
12.0531
 11
-60.927
 21
12.1468
  0
LINE
  8
0
 10
-60.927
 20
12.1468
 11
-61.2773
 21
12.2855
  0
LINE
  8
0
 10
-61.2773
 20
12.2855
 11
-61.6075
 21
12.467
  0
LINE
  8
0
 10
-61.6075
 20
12.467
 11
-61.9123
 21
12.6884
  0
LINE
  8
0
 10
-61.9123
 20
12.6884
 11
-62.1869
 21
12.9464
  0
LINE
  8
0
 10
-62.1869
 20
12.9464
 11
-62.427
 21
13.2366
  0
LINE
  8
0
 10
-62.427
 20
13.2366
 11
-62.6289
 21
13.5547
  0
LINE
  8
0
 10
-62.6289
 20
13.5547
 11
-62.7893
 21
13.8956
  0
LINE
  8
0
 10
-62.7893
 20
13.8956
 11
-62.9057
 21
14.2539
  0
LINE
  8
0
 10
-62.9057
 20
14.2539
 11
-62.9763
 21
14.624
  0
LINE
  8
0
 10
-62.9763
 20
14.624
 11
-63
 21
15
  0
LINE
  8
0
 10
-63
 20
15
 11
-62.9763
 21
15.376
  0
LINE
  8
0
 10
-62.9763
 20
15.376
 11
-62.9057
 21
15.7461
  0
LINE
  8
0
 10
-62.9057
 20
15.7461
 11
-62.7893
 21
16.1044
  0
LINE
  8
0
 10
-62.7893
 20
16.1044
 11
-62.6289
 21
16.4453
  0
LINE
  8
0
 10
-62.6289
 20
16.4453
 11
-62.427
 21
16.7634
  0
LINE
  8
0
 10
-62.427
 20
16.7634
 11
-62.1869
 21
17.0536
  0
LINE
  8
0
 10
-62.1869
 20
17.0536
 11
-61.9123
 21
17.3115
  0
LINE
  8
0
 10
-61.9123
 20
17.3115
 11
-61.6075
 21
17.533
  0
LINE
  8
0
 10
-61.6075
 20
17.533
 11
-61.2773
 21
17.7145
  0
LINE
  8
0
 10
-61.2773
 20
17.7145
 11
-60.927
 21
17.8532
  0
LINE
  8
0
 10
-60.927
 20
17.8532
 11
-60.5621
 21
17.9469
  0
LINE
  8
0
 10
-60.5621
 20
17.9469
 11
-60.1884
 21
17.9941
  0
LINE
  8
0
 10
-60.1884
 20
17.9941
 11
-59.8116
 21
17.9941
  0
LINE
  8
0
 10
-59.8116
 20
17.9941
 11
-59.4379
 21
17.9469
  0
LINE
  8
0
 10
-59.4379
 20
17.9469
 11
-59.0729
 21
17.8532
  0
LINE
  8
0
 10
-59.0729
 20
17.8532
 11
-58.7227
 21
17.7145
  0
LINE
  8
0
 10
-58.7227
 20
17.7145
 11
-58.3925
 21
17.533
  0
LINE
  8
0
 10
-58.3925
 20
17.533
 11
-58.0877
 21
17.3115
  0
LINE
  8
0
 10
-58.0877
 20
17.3115
 11
-57.8131
 21
17.0536
  0
LINE
  8
0
 10
-57.8131
 20
17.0536
 11
-57.5729
 21
16.7634
  0
LINE
  8
0
 10
-57.5729
 20
16.7634
 11
-57.3711
 21
16.4453
  0
LINE
  8
0
 10
-57.3711
 20
16.4453
 11
-57.2107
 21
16.1044
  0
LINE
  8
0
 10
-57.2107
 20
16.1044
 11
-57.0942
 21
15.7461
  0
LINE
  8
0
 10
-57.0942
 20
15.7461
 11
-57.0237
 21
15.376
  0
LINE
  8
0
 10
-57.0237
 20
15.376
 11
-57
 21
15
  0
LINE
  8
0
 10
-57
 20
15
 11
-57.0237
 21
14.624
  0
LINE
  8
0
 10
-57.0237
 20
14.624
 11
-57.0942
 21
14.2539
  0
LINE
  8
0
 10
-57.0942
 20
14.2539
 11
-57.2107
 21
13.8956
  0
LINE
  8
0
 10
-57.2107
 20
13.8956
 11
-57.3711
 21
13.5547
  0
LINE
  8
0
 10
-57.3711
 20
13.5547
 11
-57.5729
 21
13.2366
  0
LINE
  8
0
 10
-57.5729
 20
13.2366
 11
-57.8131
 21
12.9464
  0
LINE
  8
0
 10
-57.8131
 20
12.9464
 11
-58.0877
 21
12.6884
  0
LINE
  8
0
 10
-58.0877
 20
12.6884
 11
-58.3925
 21
12.467
  0
LINE
  8
0
 10
-58.3925
 20
12.467
 11
-58.7227
 21
12.2855
  0
LINE
  8
0
 10
-58.7227
 20
12.2855
 11
-59.0729
 21
12.1468
  0
LINE
  8
0
 10
-59.0729
 20
12.1468
 11
-59.4379
 21
12.0531
  0
LINE
  8
0
 10
-59.4379
 20
12.0531
 11
-59.8116
 21
12.0059
  0
LINE
  8
0
 10
-59.8116
 20
12.0059
 11
-60.1884
 21
12.0059
  0
LINE
  8
0
 10
-47.3163
 20
-12.9743
 11
-48.936
 21
-12.7697
  0
LINE
  8
0
 10
-48.936
 20
-12.7697
 11
-50.5172
 21
-12.3637
  0
LINE
  8
0
 10
-50.5172
 20
-12.3637
 11
-52.0351
 21
-11.7627
  0
LINE
  8
0
 10
-52.0351
 20
-11.7627
 11
-53.4657
 21
-10.9763
  0
LINE
  8
0
 10
-53.4657
 20
-10.9763
 11
-54.7865
 21
-10.0167
  0
LINE
  8
0
 10
-54.7865
 20
-10.0167
 11
-55.9766
 21
-8.89911
  0
LINE
  8
0
 10
-55.9766
 20
-8.89911
 11
-57.0172
 21
-7.6412
  0
LINE
  8
0
 10
-57.0172
 20
-7.6412
 11
-57.892
 21
-6.26279
  0
LINE
  8
0
 10
-57.892
 20
-6.26279
 11
-58.5871
 21
-4.78561
  0
LINE
  8
0
 10
-58.5871
 20
-4.78561
 11
-59.0916
 21
-3.23296
  0
LINE
  8
0
 10
-59.0916
 20
-3.23296
 11
-59.3975
 21
-1.62932
  0
LINE
  8
0
 10
-59.3975
 20
-1.62932
 11
-59.5
 21
0
  0
LINE
  8
0
 10
-59.5
 20
0
 11
-59.3975
 21
1.62932
  0
LINE
  8
0
 10
-59.3975
 20
1.62932
 11
-59.0916
 21
3.23296
  0
LINE
  8
0
 10
-59.0916
 20
3.23296
 11
-58.5871
 21
4.78561
  0
LINE
  8
0
 10
-58.5871
 20
4.78561
 11
-57.892
 21
6.26279
  0
LINE
  8
0
 10
-57.892
 20
6.26279
 11
-57.0172
 21
7.6412
  0
LINE
  8
0
 10
-57.0172
 20
7.6412
 11
-55.9766
 21
8.89911
  0
LINE
  8
0
 10
-55.9766
 20
8.89911
 11
-54.7865
 21
10.0167
  0
LINE
  8
0
 10
-54.7865
 20
10.0167
 11
-53.4657
 21
10.9763
  0
LINE
  8
0
 10
-53.4657
 20
10.9763
 11
-52.0351
 21
11.7627
  0
LINE
  8
0
 10
-52.0351
 20
11.7627
 11
-50.5172
 21
12.3637
  0
LINE
  8
0
 10
-50.5172
 20
12.3637
 11
-48.936
 21
12.7697
  0
LINE
  8
0
 10
-48.936
 20
12.7697
 11
-47.3163
 21
12.9743
  0
LINE
  8
0
 10
-47.3163
 20
12.9743
 11
-45.6837
 21
12.9743
  0
LINE
  8
0
 10
-45.6837
 20
12.9743
 11
-44.064
 21
12.7697
  0
LINE
  8
0
 10
-44.064
 20
12.7697
 11
-42.4828
 21
12.3637
  0
LINE
  8
0
 10
-42.4828
 20
12.3637
 11
-40.9649
 21
11.7627
  0
LINE
  8
0
 10
-40.9649
 20
11.7627
 11
-39.5342
 21
10.9763
  0
LINE
  8
0
 10
-39.5342
 20
10.9763
 11
-38.2135
 21
10.0167
  0
LINE
  8
0
 10
-38.2135
 20
10.0167
 11
-37.0234
 21
8.89911
  0
LINE
  8
0
 10
-37.0234
 20
8.89911
 11
-35.9828
 21
7.6412
  0
LINE
  8
0
 10
-35.9828
 20
7.6412
 11
-35.108
 21
6.26279
  0
LINE
  8
0
 10
-35.108
 20
6.26279
 11
-34.4129
 21
4.78561
  0
LINE
  8
0
 10
-34.4129
 20
4.78561
 11
-33.9084
 21
3.23296
  0
LINE
  8
0
 10
-33.9084
 20
3.23296
 11
-33.6025
 21
1.62932
  0
LINE
  8
0
 10
-33.6025
 20
1.62932
 11
-33.5
 21
0
  0
LINE
  8
0
 10
-33.5
 20
0
 11
-33.6025
 21
-1.62932
  0
LINE
  8
0
 10
-33.6025
 20
-1.62932
 11
-33.9084
 21
-3.23296
  0
LINE
  8
0
 10
-33.9084
 20
-3.23296
 11
-34.4129
 21
-4.78561
  0
LINE
  8
0
 10
-34.4129
 20
-4.78561
 11
-35.108
 21
-6.26279
  0
LINE
  8
0
 10
-35.108
 20
-6.26279
 11
-35.9828
 21
-7.6412
  0
LINE
  8
0
 10
-35.9828
 20
-7.6412
 11
-37.0234
 21
-8.89911
  0
LINE
  8
0
 10
-37.0234
 20
-8.89911
 11
-38.2135
 21
-10.0167
  0
LINE
  8
0
 10
-38.2135
 20
-10.0167
 11
-39.5342
 21
-10.9763
  0
LINE
  8
0
 10
-39.5342
 20
-10.9763
 11
-40.9649
 21
-11.7627
  0
LINE
  8
0
 10
-40.9649
 20
-11.7627
 11
-42.4828
 21
-12.3637
  0
LINE
  8
0
 10
-42.4828
 20
-12.3637
 11
-44.064
 21
-12.7697
  0
LINE
  8
0
 10
-44.064
 20
-12.7697
 11
-45.6837
 21
-12.9743
  0
LINE
  8
0
 10
-45.6837
 20
-12.9743
 11
-47.3163
 21
-12.9743
  0
LINE
  8
0
 10
45.6837
 20
-12.9743
 11
44.064
 21
-12.7697
  0
LINE
  8
0
 10
44.064
 20
-12.7697
 11
42.4828
 21
-12.3637
  0
LINE
  8
0
 10
42.4828
 20
-12.3637
 11
40.9649
 21
-11.7627
  0
LINE
  8
0
 10
40.9649
 20
-11.7627
 11
39.5342
 21
-10.9763
  0
LINE
  8
0
 10
39.5342
 20
-10.9763
 11
38.2135
 21
-10.0167
  0
LINE
  8
0
 10
38.2135
 20
-10.0167
 11
37.0234
 21
-8.89911
  0
LINE
  8
0
 10
37.0234
 20
-8.89911
 11
35.9828
 21
-7.6412
  0
LINE
  8
0
 10
35.9828
 20
-7.6412
 11
35.108
 21
-6.26279
  0
LINE
  8
0
 10
35.108
 20
-6.26279
 11
34.4129
 21
-4.78561
  0
LINE
  8
0
 10
34.4129
 20
-4.78561
 11
33.9084
 21
-3.23296
  0
LINE
  8
0
 10
33.9084
 20
-3.23296
 11
33.6025
 21
-1.62932
  0
LINE
  8
0
 10
33.6025
 20
-1.62932
 11
33.5
 21
0
  0
LINE
  8
0
 10
33.5
 20
0
 11
33.6025
 21
1.62932
  0
LINE
  8
0
 10
33.6025
 20
1.62932
 11
33.9084
 21
3.23296
  0
LINE
  8
0
 10
33.9084
 20
3.23296
 11
34.4129
 21
4.78561
  0
LINE
  8
0
 10
34.4129
 20
4.78561
 11
35.108
 21
6.26279
  0
LINE
  8
0
 10
35.108
 20
6.26279
 11
35.9828
 21
7.6412
  0
LINE
  8
0
 10
35.9828
 20
7.6412
 11
37.0234
 21
8.89911
  0
LINE
  8
0
 10
37.0234
 20
8.89911
 11
38.2135
 21
10.0167
  0
LINE
  8
0
 10
38.2135
 20
10.0167
 11
39.5342
 21
10.9763
  0
LINE
  8
0
 10
39.5342
 20
10.9763
 11
40.9649
 21
11.7627
  0
LINE
  8
0
 10
40.9649
 20
11.7627
 11
42.4828
 21
12.3637
  0
LINE
  8
0
 10
42.4828
 20
12.3637
 11
44.064
 21
12.7697
  0
LINE
  8
0
 10
44.064
 20
12.7697
 11
45.6837
 21
12.9743
  0
LINE
  8
0
 10
45.6837
 20
12.9743
 11
47.3163
 21
12.9743
  0
LINE
  8
0
 10
47.3163
 20
12.9743
 11
48.936
 21
12.7697
  0
LINE
  8
0
 10
48.936
 20
12.7697
 11
50.5172
 21
12.3637
  0
LINE
  8
0
 10
50.5172
 20
12.3637
 11
52.0351
 21
11.7627
  0
LINE
  8
0
 10
52.0351
 20
11.7627
 11
53.4657
 21
10.9763
  0
LINE
  8
0
 10
53.4657
 20
10.9763
 11
54.7865
 21
10.0167
  0
LINE
  8
0
 10
54.7865
 20
10.0167
 11
55.9766
 21
8.89911
  0
LINE
  8
0
 10
55.9766
 20
8.89911
 11
57.0172
 21
7.6412
  0
LINE
  8
0
 10
57.0172
 20
7.6412
 11
57.892
 21
6.26279
  0
LINE
  8
0
 10
57.892
 20
6.26279
 11
58.5871
 21
4.78561
  0
LINE
  8
0
 10
58.5871
 20
4.78561
 11
59.0916
 21
3.23296
  0
LINE
  8
0
 10
59.0916
 20
3.23296
 11
59.3975
 21
1.62932
  0
LINE
  8
0
 10
59.3975
 20
1.62932
 11
59.5
 21
0
  0
LINE
  8
0
 10
59.5
 20
0
 11
59.3975
 21
-1.62932
  0
LINE
  8
0
 10
59.3975
 20
-1.62932
 11
59.0916
 21
-3.23296
  0
LINE
  8
0
 10
59.0916
 20
-3.23296
 11
58.5871
 21
-4.78561
  0
LINE
  8
0
 10
58.5871
 20
-4.78561
 11
57.892
 21
-6.26279
  0
LINE
  8
0
 10
57.892
 20
-6.26279
 11
57.0172
 21
-7.6412
  0
LINE
  8
0
 10
57.0172
 20
-7.6412
 11
55.9766
 21
-8.89911
  0
LINE
  8
0
 10
55.9766
 20
-8.89911
 11
54.7865
 21
-10.0167
  0
LINE
  8
0
 10
54.7865
 20
-10.0167
 11
53.4657
 21
-10.9763
  0
LINE
  8
0
 10
53.4657
 20
-10.9763
 11
52.0351
 21
-11.7627
  0
LINE
  8
0
 10
52.0351
 20
-11.7627
 11
50.5172
 21
-12.3637
  0
LINE
  8
0
 10
50.5172
 20
-12.3637
 11
48.936
 21
-12.7697
  0
LINE
  8
0
 10
48.936
 20
-12.7697
 11
47.3163
 21
-12.9743
  0
LINE
  8
0
 10
47.3163
 20
-12.9743
 11
45.6837
 21
-12.9743
  0
LINE
  8
0
 10
14.6837
 20
-12.9743
 11
13.064
 21
-12.7697
  0
LINE
  8
0
 10
13.064
 20
-12.7697
 11
11.4828
 21
-12.3637
  0
LINE
  8
0
 10
11.4828
 20
-12.3637
 11
9.96486
 21
-11.7627
  0
LINE
  8
0
 10
9.96486
 20
-11.7627
 11
8.53424
 21
-10.9763
  0
LINE
  8
0
 10
8.53424
 20
-10.9763
 11
7.21349
 21
-10.0167
  0
LINE
  8
0
 10
7.21349
 20
-10.0167
 11
6.02341
 21
-8.89911
  0
LINE
  8
0
 10
6.02341
 20
-8.89911
 11
4.98277
 21
-7.6412
  0
LINE
  8
0
 10
4.98277
 20
-7.6412
 11
4.108
 21
-6.26279
  0
LINE
  8
0
 10
4.108
 20
-6.26279
 11
3.4129
 21
-4.78561
  0
LINE
  8
0
 10
3.4129
 20
-4.78561
 11
2.90842
 21
-3.23296
  0
LINE
  8
0
 10
2.90842
 20
-3.23296
 11
2.60251
 21
-1.62932
  0
LINE
  8
0
 10
2.60251
 20
-1.62932
 11
2.5
 21
0
  0
LINE
  8
0
 10
2.5
 20
0
 11
2.60251
 21
1.62932
  0
LINE
  8
0
 10
2.60251
 20
1.62932
 11
2.90842
 21
3.23296
  0
LINE
  8
0
 10
2.90842
 20
3.23296
 11
3.4129
 21
4.78561
  0
LINE
  8
0
 10
3.4129
 20
4.78561
 11
4.108
 21
6.26279
  0
LINE
  8
0
 10
4.108
 20
6.26279
 11
4.98277
 21
7.6412
  0
LINE
  8
0
 10
4.98277
 20
7.6412
 11
6.02341
 21
8.89911
  0
LINE
  8
0
 10
6.02341
 20
8.89911
 11
7.21349
 21
10.0167
  0
LINE
  8
0
 10
7.21349
 20
10.0167
 11
8.53424
 21
10.9763
  0
LINE
  8
0
 10
8.53424
 20
10.9763
 11
9.96486
 21
11.7627
  0
LINE
  8
0
 10
9.96486
 20
11.7627
 11
11.4828
 21
12.3637
  0
LINE
  8
0
 10
11.4828
 20
12.3637
 11
13.064
 21
12.7697
  0
LINE
  8
0
 10
13.064
 20
12.7697
 11
14.6837
 21
12.9743
  0
LINE
  8
0
 10
14.6837
 20
12.9743
 11
16.3163
 21
12.9743
  0
LINE
  8
0
 10
16.3163
 20
12.9743
 11
17.9359
 21
12.7697
  0
LINE
  8
0
 10
17.9359
 20
12.7697
 11
19.5172
 21
12.3637
  0
LINE
  8
0
 10
19.5172
 20
12.3637
 11
21.0351
 21
11.7627
  0
LINE
  8
0
 10
21.0351
 20
11.7627
 11
22.4657
 21
10.9763
  0
LINE
  8
0
 10
22.4657
 20
10.9763
 11
23.7865
 21
10.0167
  0
LINE
  8
0
 10
23.7865
 20
10.0167
 11
24.9766
 21
8.89911
  0
LINE
  8
0
 10
24.9766
 20
8.89911
 11
26.0172
 21
7.6412
  0
LINE
  8
0
 10
26.0172
 20
7.6412
 11
26.892
 21
6.26279
  0
LINE
  8
0
 10
26.892
 20
6.26279
 11
27.5871
 21
4.78561
  0
LINE
  8
0
 10
27.5871
 20
4.78561
 11
28.0916
 21
3.23296
  0
LINE
  8
0
 10
28.0916
 20
3.23296
 11
28.3975
 21
1.62932
  0
LINE
  8
0
 10
28.3975
 20
1.62932
 11
28.5
 21
0
  0
LINE
  8
0
 10
28.5
 20
0
 11
28.3975
 21
-1.62932
  0
LINE
  8
0
 10
28.3975
 20
-1.62932
 11
28.0916
 21
-3.23296
  0
LINE
  8
0
 10
28.0916
 20
-3.23296
 11
27.5871
 21
-4.78561
  0
LINE
  8
0
 10
27.5871
 20
-4.78561
 11
26.892
 21
-6.26279
  0
LINE
  8
0
 10
26.892
 20
-6.26279
 11
26.0172
 21
-7.6412
  0
LINE
  8
0
 10
26.0172
 20
-7.6412
 11
24.9766
 21
-8.89911
  0
LINE
  8
0
 10
24.9766
 20
-8.89911
 11
23.7865
 21
-10.0167
  0
LINE
  8
0
 10
23.7865
 20
-10.0167
 11
22.4657
 21
-10.9763
  0
LINE
  8
0
 10
22.4657
 20
-10.9763
 11
21.0351
 21
-11.7627
  0
LINE
  8
0
 10
21.0351
 20
-11.7627
 11
19.5172
 21
-12.3637
  0
LINE
  8
0
 10
19.5172
 20
-12.3637
 11
17.9359
 21
-12.7697
  0
LINE
  8
0
 10
17.9359
 20
-12.7697
 11
16.3163
 21
-12.9743
  0
LINE
  8
0
 10
16.3163
 20
-12.9743
 11
14.6837
 21
-12.9743
  0
LINE
  8
0
 10
-16.3163
 20
-12.9743
 11
-17.9359
 21
-12.7697
  0
LINE
  8
0
 10
-17.9359
 20
-12.7697
 11
-19.5172
 21
-12.3637
  0
LINE
  8
0
 10
-19.5172
 20
-12.3637
 11
-21.0351
 21
-11.7627
  0
LINE
  8
0
 10
-21.0351
 20
-11.7627
 11
-22.4657
 21
-10.9763
  0
LINE
  8
0
 10
-22.4657
 20
-10.9763
 11
-23.7865
 21
-10.0167
  0
LINE
  8
0
 10
-23.7865
 20
-10.0167
 11
-24.9766
 21
-8.89911
  0
LINE
  8
0
 10
-24.9766
 20
-8.89911
 11
-26.0172
 21
-7.6412
  0
LINE
  8
0
 10
-26.0172
 20
-7.6412
 11
-26.892
 21
-6.26279
  0
LINE
  8
0
 10
-26.892
 20
-6.26279
 11
-27.5871
 21
-4.78561
  0
LINE
  8
0
 10
-27.5871
 20
-4.78561
 11
-28.0916
 21
-3.23296
  0
LINE
  8
0
 10
-28.0916
 20
-3.23296
 11
-28.3975
 21
-1.62932
  0
LINE
  8
0
 10
-28.3975
 20
-1.62932
 11
-28.5
 21
0
  0
LINE
  8
0
 10
-28.5
 20
0
 11
-28.3975
 21
1.62932
  0
LINE
  8
0
 10
-28.3975
 20
1.62932
 11
-28.0916
 21
3.23296
  0
LINE
  8
0
 10
-28.0916
 20
3.23296
 11
-27.5871
 21
4.78561
  0
LINE
  8
0
 10
-27.5871
 20
4.78561
 11
-26.892
 21
6.26279
  0
LINE
  8
0
 10
-26.892
 20
6.26279
 11
-26.0172
 21
7.6412
  0
LINE
  8
0
 10
-26.0172
 20
7.6412
 11
-24.9766
 21
8.89911
  0
LINE
  8
0
 10
-24.9766
 20
8.89911
 11
-23.7865
 21
10.0167
  0
LINE
  8
0
 10
-23.7865
 20
10.0167
 11
-22.4657
 21
10.9763
  0
LINE
  8
0
 10
-22.4657
 20
10.9763
 11
-21.0351
 21
11.7627
  0
LINE
  8
0
 10
-21.0351
 20
11.7627
 11
-19.5172
 21
12.3637
  0
LINE
  8
0
 10
-19.5172
 20
12.3637
 11
-17.9359
 21
12.7697
  0
LINE
  8
0
 10
-17.9359
 20
12.7697
 11
-16.3163
 21
12.9743
  0
LINE
  8
0
 10
-16.3163
 20
12.9743
 11
-14.6837
 21
12.9743
  0
LINE
  8
0
 10
-14.6837
 20
12.9743
 11
-13.064
 21
12.7697
  0
LINE
  8
0
 10
-13.064
 20
12.7697
 11
-11.4828
 21
12.3637
  0
LINE
  8
0
 10
-11.4828
 20
12.3637
 11
-9.96486
 21
11.7627
  0
LINE
  8
0
 10
-9.96486
 20
11.7627
 11
-8.53424
 21
10.9763
  0
LINE
  8
0
 10
-8.53424
 20
10.9763
 11
-7.21349
 21
10.0167
  0
LINE
  8
0
 10
-7.21349
 20
10.0167
 11
-6.02341
 21
8.89911
  0
LINE
  8
0
 10
-6.02341
 20
8.89911
 11
-4.98277
 21
7.6412
  0
LINE
  8
0
 10
-4.98277
 20
7.6412
 11
-4.108
 21
6.26279
  0
LINE
  8
0
 10
-4.108
 20
6.26279
 11
-3.4129
 21
4.78561
  0
LINE
  8
0
 10
-3.4129
 20
4.78561
 11
-2.90842
 21
3.23296
  0
LINE
  8
0
 10
-2.90842
 20
3.23296
 11
-2.60251
 21
1.62932
  0
LINE
  8
0
 10
-2.60251
 20
1.62932
 11
-2.5
 21
0
  0
LINE
  8
0
 10
-2.5
 20
0
 11
-2.60251
 21
-1.62932
  0
LINE
  8
0
 10
-2.60251
 20
-1.62932
 11
-2.90842
 21
-3.23296
  0
LINE
  8
0
 10
-2.90842
 20
-3.23296
 11
-3.4129
 21
-4.78561
  0
LINE
  8
0
 10
-3.4129
 20
-4.78561
 11
-4.108
 21
-6.26279
  0
LINE
  8
0
 10
-4.108
 20
-6.26279
 11
-4.98277
 21
-7.6412
  0
LINE
  8
0
 10
-4.98277
 20
-7.6412
 11
-6.02341
 21
-8.89911
  0
LINE
  8
0
 10
-6.02341
 20
-8.89911
 11
-7.21349
 21
-10.0167
  0
LINE
  8
0
 10
-7.21349
 20
-10.0167
 11
-8.53424
 21
-10.9763
  0
LINE
  8
0
 10
-8.53424
 20
-10.9763
 11
-9.96486
 21
-11.7627
  0
LINE
  8
0
 10
-9.96486
 20
-11.7627
 11
-11.4828
 21
-12.3637
  0
LINE
  8
0
 10
-11.4828
 20
-12.3637
 11
-13.064
 21
-12.7697
  0
LINE
  8
0
 10
-13.064
 20
-12.7697
 11
-14.6837
 21
-12.9743
  0
LINE
  8
0
 10
-14.6837
 20
-12.9743
 11
-16.3163
 21
-12.9743
  0
LINE
  8
0
 10
-60.1884
 20
-17.9941
 11
-60.5621
 21
-17.9469
  0
LINE
  8
0
 10
-60.5621
 20
-17.9469
 11
-60.927
 21
-17.8532
  0
LINE
  8
0
 10
-60.927
 20
-17.8532
 11
-61.2773
 21
-17.7145
  0
LINE
  8
0
 10
-61.2773
 20
-17.7145
 11
-61.6075
 21
-17.533
  0
LINE
  8
0
 10
-61.6075
 20
-17.533
 11
-61.9123
 21
-17.3115
  0
LINE
  8
0
 10
-61.9123
 20
-17.3115
 11
-62.1869
 21
-17.0536
  0
LINE
  8
0
 10
-62.1869
 20
-17.0536
 11
-62.427
 21
-16.7634
  0
LINE
  8
0
 10
-62.427
 20
-16.7634
 11
-62.6289
 21
-16.4453
  0
LINE
  8
0
 10
-62.6289
 20
-16.4453
 11
-62.7893
 21
-16.1044
  0
LINE
  8
0
 10
-62.7893
 20
-16.1044
 11
-62.9057
 21
-15.7461
  0
LINE
  8
0
 10
-62.9057
 20
-15.7461
 11
-62.9763
 21
-15.376
  0
LINE
  8
0
 10
-62.9763
 20
-15.376
 11
-63
 21
-15
  0
LINE
  8
0
 10
-63
 20
-15
 11
-62.9763
 21
-14.624
  0
LINE
  8
0
 10
-62.9763
 20
-14.624
 11
-62.9057
 21
-14.2539
  0
LINE
  8
0
 10
-62.9057
 20
-14.2539
 11
-62.7893
 21
-13.8956
  0
LINE
  8
0
 10
-62.7893
 20
-13.8956
 11
-62.6289
 21
-13.5547
  0
LINE
  8
0
 10
-62.6289
 20
-13.5547
 11
-62.427
 21
-13.2366
  0
LINE
  8
0
 10
-62.427
 20
-13.2366
 11
-62.1869
 21
-12.9464
  0
LINE
  8
0
 10
-62.1869
 20
-12.9464
 11
-61.9123
 21
-12.6884
  0
LINE
  8
0
 10
-61.9123
 20
-12.6884
 11
-61.6075
 21
-12.467
  0
LINE
  8
0
 10
-61.6075
 20
-12.467
 11
-61.2773
 21
-12.2855
  0
LINE
  8
0
 10
-61.2773
 20
-12.2855
 11
-60.927
 21
-12.1468
  0
LINE
  8
0
 10
-60.927
 20
-12.1468
 11
-60.5621
 21
-12.0531
  0
LINE
  8
0
 10
-60.5621
 20
-12.0531
 11
-60.1884
 21
-12.0059
  0
LINE
  8
0
 10
-60.1884
 20
-12.0059
 11
-59.8116
 21
-12.0059
  0
LINE
  8
0
 10
-59.8116
 20
-12.0059
 11
-59.4379
 21
-12.0531
  0
LINE
  8
0
 10
-59.4379
 20
-12.0531
 11
-59.0729
 21
-12.1468
  0
LINE
  8
0
 10
-59.0729
 20
-12.1468
 11
-58.7227
 21
-12.2855
  0
LINE
  8
0
 10
-58.7227
 20
-12.2855
 11
-58.3925
 21
-12.467
  0
LINE
  8
0
 10
-58.3925
 20
-12.467
 11
-58.0877
 21
-12.6884
  0
LINE
  8
0
 10
-58.0877
 20
-12.6884
 11
-57.8131
 21
-12.9464
  0
LINE
  8
0
 10
-57.8131
 20
-12.9464
 11
-57.5729
 21
-13.2366
  0
LINE
  8
0
 10
-57.5729
 20
-13.2366
 11
-57.3711
 21
-13.5547
  0
LINE
  8
0
 10
-57.3711
 20
-13.5547
 11
-57.2107
 21
-13.8956
  0
LINE
  8
0
 10
-57.2107
 20
-13.8956
 11
-57.0942
 21
-14.2539
  0
LINE
  8
0
 10
-57.0942
 20
-14.2539
 11
-57.0237
 21
-14.624
  0
LINE
  8
0
 10
-57.0237
 20
-14.624
 11
-57
 21
-15
  0
LINE
  8
0
 10
-57
 20
-15
 11
-57.0237
 21
-15.376
  0
LINE
  8
0
 10
-57.0237
 20
-15.376
 11
-57.0942
 21
-15.7461
  0
LINE
  8
0
 10
-57.0942
 20
-15.7461
 11
-57.2107
 21
-16.1044
  0
LINE
  8
0
 10
-57.2107
 20
-16.1044
 11
-57.3711
 21
-16.4453
  0
LINE
  8
0
 10
-57.3711
 20
-16.4453
 11
-57.5729
 21
-16.7634
  0
LINE
  8
0
 10
-57.5729
 20
-16.7634
 11
-57.8131
 21
-17.0536
  0
LINE
  8
0
 10
-57.8131
 20
-17.0536
 11
-58.0877
 21
-17.3115
  0
LINE
  8
0
 10
-58.0877
 20
-17.3115
 11
-58.3925
 21
-17.533
  0
LINE
  8
0
 10
-58.3925
 20
-17.533
 11
-58.7227
 21
-17.7145
  0
LINE
  8
0
 10
-58.7227
 20
-17.7145
 11
-59.0729
 21
-17.8532
  0
LINE
  8
0
 10
-59.0729
 20
-17.8532
 11
-59.4379
 21
-17.9469
  0
LINE
  8
0
 10
-59.4379
 20
-17.9469
 11
-59.8116
 21
-17.9941
  0
LINE
  8
0
 10
-59.8116
 20
-17.9941
 11
-60.1884
 21
-17.9941
  0
LINE
  8
0
 10
59.8116
 20
-17.9941
 11
59.4379
 21
-17.9469
  0
LINE
  8
0
 10
59.4379
 20
-17.9469
 11
59.0729
 21
-17.8532
  0
LINE
  8
0
 10
59.0729
 20
-17.8532
 11
58.7227
 21
-17.7145
  0
LINE
  8
0
 10
58.7227
 20
-17.7145
 11
58.3925
 21
-17.533
  0
LINE
  8
0
 10
58.3925
 20
-17.533
 11
58.0877
 21
-17.3115
  0
LINE
  8
0
 10
58.0877
 20
-17.3115
 11
57.8131
 21
-17.0536
  0
LINE
  8
0
 10
57.8131
 20
-17.0536
 11
57.5729
 21
-16.7634
  0
LINE
  8
0
 10
57.5729
 20
-16.7634
 11
57.3711
 21
-16.4453
  0
LINE
  8
0
 10
57.3711
 20
-16.4453
 11
57.2107
 21
-16.1044
  0
LINE
  8
0
 10
57.2107
 20
-16.1044
 11
57.0942
 21
-15.7461
  0
LINE
  8
0
 10
57.0942
 20
-15.7461
 11
57.0237
 21
-15.376
  0
LINE
  8
0
 10
57.0237
 20
-15.376
 11
57
 21
-15
  0
LINE
  8
0
 10
57
 20
-15
 11
57.0237
 21
-14.624
  0
LINE
  8
0
 10
57.0237
 20
-14.624
 11
57.0942
 21
-14.2539
  0
LINE
  8
0
 10
57.0942
 20
-14.2539
 11
57.2107
 21
-13.8956
  0
LINE
  8
0
 10
57.2107
 20
-13.8956
 11
57.3711
 21
-13.5547
  0
LINE
  8
0
 10
57.3711
 20
-13.5547
 11
57.5729
 21
-13.2366
  0
LINE
  8
0
 10
57.5729
 20
-13.2366
 11
57.8131
 21
-12.9464
  0
LINE
  8
0
 10
57.8131
 20
-12.9464
 11
58.0877
 21
-12.6884
  0
LINE
  8
0
 10
58.0877
 20
-12.6884
 11
58.3925
 21
-12.467
  0
LINE
  8
0
 10
58.3925
 20
-12.467
 11
58.7227
 21
-12.2855
  0
LINE
  8
0
 10
58.7227
 20
-12.2855
 11
59.0729
 21
-12.1468
  0
LINE
  8
0
 10
59.0729
 20
-12.1468
 11
59.4379
 21
-12.0531
  0
LINE
  8
0
 10
59.4379
 20
-12.0531
 11
59.8116
 21
-12.0059
  0
LINE
  8
0
 10
59.8116
 20
-12.0059
 11
60.1884
 21
-12.0059
  0
LINE
  8
0
 10
60.1884
 20
-12.0059
 11
60.5621
 21
-12.0531
  0
LINE
  8
0
 10
60.5621
 20
-12.0531
 11
60.927
 21
-12.1468
  0
LINE
  8
0
 10
60.927
 20
-12.1468
 11
61.2773
 21
-12.2855
  0
LINE
  8
0
 10
61.2773
 20
-12.2855
 11
61.6075
 21
-12.467
  0
LINE
  8
0
 10
61.6075
 20
-12.467
 11
61.9123
 21
-12.6884
  0
LINE
  8
0
 10
61.9123
 20
-12.6884
 11
62.1869
 21
-12.9464
  0
LINE
  8
0
 10
62.1869
 20
-12.9464
 11
62.427
 21
-13.2366
  0
LINE
  8
0
 10
62.427
 20
-13.2366
 11
62.6289
 21
-13.5547
  0
LINE
  8
0
 10
62.6289
 20
-13.5547
 11
62.7893
 21
-13.8956
  0
LINE
  8
0
 10
62.7893
 20
-13.8956
 11
62.9057
 21
-14.2539
  0
LINE
  8
0
 10
62.9057
 20
-14.2539
 11
62.9763
 21
-14.624
  0
LINE
  8
0
 10
62.9763
 20
-14.624
 11
63
 21
-15
  0
LINE
  8
0
 10
63
 20
-15
 11
62.9763
 21
-15.376
  0
LINE
  8
0
 10
62.9763
 20
-15.376
 11
62.9057
 21
-15.7461
  0
LINE
  8
0
 10
62.9057
 20
-15.7461
 11
62.7893
 21
-16.1044
  0
LINE
  8
0
 10
62.7893
 20
-16.1044
 11
62.6289
 21
-16.4453
  0
LINE
  8
0
 10
62.6289
 20
-16.4453
 11
62.427
 21
-16.7634
  0
LINE
  8
0
 10
62.427
 20
-16.7634
 11
62.1869
 21
-17.0536
  0
LINE
  8
0
 10
62.1869
 20
-17.0536
 11
61.9123
 21
-17.3115
  0
LINE
  8
0
 10
61.9123
 20
-17.3115
 11
61.6075
 21
-17.533
  0
LINE
  8
0
 10
61.6075
 20
-17.533
 11
61.2773
 21
-17.7145
  0
LINE
  8
0
 10
61.2773
 20
-17.7145
 11
60.927
 21
-17.8532
  0
LINE
  8
0
 10
60.927
 20
-17.8532
 11
60.5621
 21
-17.9469
  0
LINE
  8
0
 10
60.5621
 20
-17.9469
 11
60.1884
 21
-17.9941
  0
LINE
  8
0
 10
60.1884
 20
-17.9941
 11
59.8116
 21
-17.9941
  0
ENDSEC
  0
SECTION
  2
OBJECTS
  0
DICTIONARY
  0
ENDSEC
  0
EOF
