  0
SECTION
  2
BLOCKS
  0
ENDSEC
  0
SECTION
  2
ENTITIES
  0
LINE
  8
0
 10
77.9369
 20
-44.4114
 11
78.5451
 21
-44.2553
  0
LINE
  8
0
 10
78.5451
 20
-44.2553
 11
79.1289
 21
-44.0241
  0
LINE
  8
0
 10
79.1289
 20
-44.0241
 11
79.6791
 21
-43.7216
  0
LINE
  8
0
 10
79.6791
 20
-43.7216
 11
80.1871
 21
-43.3526
  0
LINE
  8
0
 10
80.1871
 20
-43.3526
 11
80.6448
 21
-42.9227
  0
LINE
  8
0
 10
80.6448
 20
-42.9227
 11
81.0451
 21
-42.4389
  0
LINE
  8
0
 10
81.0451
 20
-42.4389
 11
81.3815
 21
-41.9088
  0
LINE
  8
0
 10
81.3815
 20
-41.9088
 11
81.6489
 21
-41.3406
  0
LINE
  8
0
 10
81.6489
 20
-41.3406
 11
81.8429
 21
-40.7434
  0
LINE
  8
0
 10
81.8429
 20
-40.7434
 11
81.9606
 21
-40.1267
  0
LINE
  8
0
 10
81.9606
 20
-40.1267
 11
82
 21
-39.5
  0
LINE
  8
0
 10
82
 20
-39.5
 11
82
 21
39.5
  0
LINE
  8
0
 10
82
 20
39.5
 11
81.9606
 21
40.1267
  0
LINE
  8
0
 10
81.9606
 20
40.1267
 11
81.8429
 21
40.7434
  0
LINE
  8
0
 10
81.8429
 20
40.7434
 11
81.6489
 21
41.3406
  0
LINE
  8
0
 10
81.6489
 20
41.3406
 11
81.3815
 21
41.9088
  0
LINE
  8
0
 10
81.3815
 20
41.9088
 11
81.0451
 21
42.4389
  0
LINE
  8
0
 10
81.0451
 20
42.4389
 11
80.6448
 21
42.9227
  0
LINE
  8
0
 10
80.6448
 20
42.9227
 11
80.1871
 21
43.3526
  0
LINE
  8
0
 10
80.1871
 20
43.3526
 11
79.6791
 21
43.7216
  0
LINE
  8
0
 10
79.6791
 20
43.7216
 11
79.1289
 21
44.0241
  0
LINE
  8
0
 10
79.1289
 20
44.0241
 11
78.5451
 21
44.2553
  0
LINE
  8
0
 10
78.5451
 20
44.2553
 11
77.9369
 21
44.4114
  0
LINE
  8
0
 10
77.9369
 20
44.4114
 11
77.3139
 21
44.4901
  0
LINE
  8
0
 10
77.3139
 20
44.4901
 11
-77.3139
 21
44.4901
  0
LINE
  8
0
 10
-77.3139
 20
44.4901
 11
-77.9369
 21
44.4114
  0
LINE
  8
0
 10
-77.9369
 20
44.4114
 11
-78.5451
 21
44.2553
  0
LINE
  8
0
 10
-78.5451
 20
44.2553
 11
-79.1289
 21
44.0241
  0
LINE
  8
0
 10
-79.1289
 20
44.0241
 11
-79.6791
 21
43.7216
  0
LINE
  8
0
 10
-79.6791
 20
43.7216
 11
-80.1871
 21
43.3526
  0
LINE
  8
0
 10
-80.1871
 20
43.3526
 11
-80.6448
 21
42.9227
  0
LINE
  8
0
 10
-80.6448
 20
42.9227
 11
-81.0451
 21
42.4389
  0
LINE
  8
0
 10
-81.0451
 20
42.4389
 11
-81.3815
 21
41.9088
  0
LINE
  8
0
 10
-81.3815
 20
41.9088
 11
-81.6489
 21
41.3406
  0
LINE
  8
0
 10
-81.6489
 20
41.3406
 11
-81.8429
 21
40.7434
  0
LINE
  8
0
 10
-81.8429
 20
40.7434
 11
-81.9606
 21
40.1267
  0
LINE
  8
0
 10
-81.9606
 20
40.1267
 11
-82
 21
39.5
  0
LINE
  8
0
 10
-82
 20
39.5
 11
-82
 21
-39.5
  0
LINE
  8
0
 10
-82
 20
-39.5
 11
-81.9606
 21
-40.1267
  0
LINE
  8
0
 10
-81.9606
 20
-40.1267
 11
-81.8429
 21
-40.7434
  0
LINE
  8
0
 10
-81.8429
 20
-40.7434
 11
-81.6489
 21
-41.3406
  0
LINE
  8
0
 10
-81.6489
 20
-41.3406
 11
-81.3815
 21
-41.9088
  0
LINE
  8
0
 10
-81.3815
 20
-41.9088
 11
-81.0451
 21
-42.4389
  0
LINE
  8
0
 10
-81.0451
 20
-42.4389
 11
-80.6448
 21
-42.9227
  0
LINE
  8
0
 10
-80.6448
 20
-42.9227
 11
-80.1871
 21
-43.3526
  0
LINE
  8
0
 10
-80.1871
 20
-43.3526
 11
-79.6791
 21
-43.7216
  0
LINE
  8
0
 10
-79.6791
 20
-43.7216
 11
-79.1289
 21
-44.0241
  0
LINE
  8
0
 10
-79.1289
 20
-44.0241
 11
-78.5451
 21
-44.2553
  0
LINE
  8
0
 10
-78.5451
 20
-44.2553
 11
-77.9369
 21
-44.4114
  0
LINE
  8
0
 10
-77.9369
 20
-44.4114
 11
-77.3139
 21
-44.4901
  0
LINE
  8
0
 10
-77.3139
 20
-44.4901
 11
77.3139
 21
-44.4901
  0
LINE
  8
0
 10
77.3139
 20
-44.4901
 11
77.9369
 21
-44.4114
  0
LINE
  8
0
 10
-75.1884
 20
34.5059
 11
-75.5621
 21
34.5531
  0
LINE
  8
0
 10
-75.5621
 20
34.5531
 11
-75.927
 21
34.6468
  0
LINE
  8
0
 10
-75.927
 20
34.6468
 11
-76.2773
 21
34.7855
  0
LINE
  8
0
 10
-76.2773
 20
34.7855
 11
-76.6075
 21
34.967
  0
LINE
  8
0
 10
-76.6075
 20
34.967
 11
-76.9123
 21
35.1885
  0
LINE
  8
0
 10
-76.9123
 20
35.1885
 11
-77.1869
 21
35.4464
  0
LINE
  8
0
 10
-77.1869
 20
35.4464
 11
-77.427
 21
35.7366
  0
LINE
  8
0
 10
-77.427
 20
35.7366
 11
-77.6289
 21
36.0547
  0
LINE
  8
0
 10
-77.6289
 20
36.0547
 11
-77.7893
 21
36.3956
  0
LINE
  8
0
 10
-77.7893
 20
36.3956
 11
-77.9057
 21
36.7539
  0
LINE
  8
0
 10
-77.9057
 20
36.7539
 11
-77.9763
 21
37.124
  0
LINE
  8
0
 10
-77.9763
 20
37.124
 11
-78
 21
37.5
  0
LINE
  8
0
 10
-78
 20
37.5
 11
-77.9763
 21
37.876
  0
LINE
  8
0
 10
-77.9763
 20
37.876
 11
-77.9057
 21
38.2461
  0
LINE
  8
0
 10
-77.9057
 20
38.2461
 11
-77.7893
 21
38.6044
  0
LINE
  8
0
 10
-77.7893
 20
38.6044
 11
-77.6289
 21
38.9453
  0
LINE
  8
0
 10
-77.6289
 20
38.9453
 11
-77.427
 21
39.2634
  0
LINE
  8
0
 10
-77.427
 20
39.2634
 11
-77.1869
 21
39.5536
  0
LINE
  8
0
 10
-77.1869
 20
39.5536
 11
-76.9123
 21
39.8115
  0
LINE
  8
0
 10
-76.9123
 20
39.8115
 11
-76.6075
 21
40.033
  0
LINE
  8
0
 10
-76.6075
 20
40.033
 11
-76.2773
 21
40.2145
  0
LINE
  8
0
 10
-76.2773
 20
40.2145
 11
-75.927
 21
40.3532
  0
LINE
  8
0
 10
-75.927
 20
40.3532
 11
-75.5621
 21
40.4469
  0
LINE
  8
0
 10
-75.5621
 20
40.4469
 11
-75.1884
 21
40.4941
  0
LINE
  8
0
 10
-75.1884
 20
40.4941
 11
-74.8116
 21
40.4941
  0
LINE
  8
0
 10
-74.8116
 20
40.4941
 11
-74.4379
 21
40.4469
  0
LINE
  8
0
 10
-74.4379
 20
40.4469
 11
-74.073
 21
40.3532
  0
LINE
  8
0
 10
-74.073
 20
40.3532
 11
-73.7227
 21
40.2145
  0
LINE
  8
0
 10
-73.7227
 20
40.2145
 11
-73.3925
 21
40.033
  0
LINE
  8
0
 10
-73.3925
 20
40.033
 11
-73.0877
 21
39.8115
  0
LINE
  8
0
 10
-73.0877
 20
39.8115
 11
-72.8131
 21
39.5536
  0
LINE
  8
0
 10
-72.8131
 20
39.5536
 11
-72.573
 21
39.2634
  0
LINE
  8
0
 10
-72.573
 20
39.2634
 11
-72.3711
 21
38.9453
  0
LINE
  8
0
 10
-72.3711
 20
38.9453
 11
-72.2107
 21
38.6044
  0
LINE
  8
0
 10
-72.2107
 20
38.6044
 11
-72.0943
 21
38.2461
  0
LINE
  8
0
 10
-72.0943
 20
38.2461
 11
-72.0237
 21
37.876
  0
LINE
  8
0
 10
-72.0237
 20
37.876
 11
-72
 21
37.5
  0
LINE
  8
0
 10
-72
 20
37.5
 11
-72.0237
 21
37.124
  0
LINE
  8
0
 10
-72.0237
 20
37.124
 11
-72.0943
 21
36.7539
  0
LINE
  8
0
 10
-72.0943
 20
36.7539
 11
-72.2107
 21
36.3956
  0
LINE
  8
0
 10
-72.2107
 20
36.3956
 11
-72.3711
 21
36.0547
  0
LINE
  8
0
 10
-72.3711
 20
36.0547
 11
-72.573
 21
35.7366
  0
LINE
  8
0
 10
-72.573
 20
35.7366
 11
-72.8131
 21
35.4464
  0
LINE
  8
0
 10
-72.8131
 20
35.4464
 11
-73.0877
 21
35.1885
  0
LINE
  8
0
 10
-73.0877
 20
35.1885
 11
-73.3925
 21
34.967
  0
LINE
  8
0
 10
-73.3925
 20
34.967
 11
-73.7227
 21
34.7855
  0
LINE
  8
0
 10
-73.7227
 20
34.7855
 11
-74.073
 21
34.6468
  0
LINE
  8
0
 10
-74.073
 20
34.6468
 11
-74.4379
 21
34.5531
  0
LINE
  8
0
 10
-74.4379
 20
34.5531
 11
-74.8116
 21
34.5059
  0
LINE
  8
0
 10
-74.8116
 20
34.5059
 11
-75.1884
 21
34.5059
  0
LINE
  8
0
 10
74.8116
 20
34.5059
 11
74.4379
 21
34.5531
  0
LINE
  8
0
 10
74.4379
 20
34.5531
 11
74.073
 21
34.6468
  0
LINE
  8
0
 10
74.073
 20
34.6468
 11
73.7227
 21
34.7855
  0
LINE
  8
0
 10
73.7227
 20
34.7855
 11
73.3925
 21
34.967
  0
LINE
  8
0
 10
73.3925
 20
34.967
 11
73.0877
 21
35.1885
  0
LINE
  8
0
 10
73.0877
 20
35.1885
 11
72.8131
 21
35.4464
  0
LINE
  8
0
 10
72.8131
 20
35.4464
 11
72.573
 21
35.7366
  0
LINE
  8
0
 10
72.573
 20
35.7366
 11
72.3711
 21
36.0547
  0
LINE
  8
0
 10
72.3711
 20
36.0547
 11
72.2107
 21
36.3956
  0
LINE
  8
0
 10
72.2107
 20
36.3956
 11
72.0943
 21
36.7539
  0
LINE
  8
0
 10
72.0943
 20
36.7539
 11
72.0237
 21
37.124
  0
LINE
  8
0
 10
72.0237
 20
37.124
 11
72
 21
37.5
  0
LINE
  8
0
 10
72
 20
37.5
 11
72.0237
 21
37.876
  0
LINE
  8
0
 10
72.0237
 20
37.876
 11
72.0943
 21
38.2461
  0
LINE
  8
0
 10
72.0943
 20
38.2461
 11
72.2107
 21
38.6044
  0
LINE
  8
0
 10
72.2107
 20
38.6044
 11
72.3711
 21
38.9453
  0
LINE
  8
0
 10
72.3711
 20
38.9453
 11
72.573
 21
39.2634
  0
LINE
  8
0
 10
72.573
 20
39.2634
 11
72.8131
 21
39.5536
  0
LINE
  8
0
 10
72.8131
 20
39.5536
 11
73.0877
 21
39.8115
  0
LINE
  8
0
 10
73.0877
 20
39.8115
 11
73.3925
 21
40.033
  0
LINE
  8
0
 10
73.3925
 20
40.033
 11
73.7227
 21
40.2145
  0
LINE
  8
0
 10
73.7227
 20
40.2145
 11
74.073
 21
40.3532
  0
LINE
  8
0
 10
74.073
 20
40.3532
 11
74.4379
 21
40.4469
  0
LINE
  8
0
 10
74.4379
 20
40.4469
 11
74.8116
 21
40.4941
  0
LINE
  8
0
 10
74.8116
 20
40.4941
 11
75.1884
 21
40.4941
  0
LINE
  8
0
 10
75.1884
 20
40.4941
 11
75.5621
 21
40.4469
  0
LINE
  8
0
 10
75.5621
 20
40.4469
 11
75.927
 21
40.3532
  0
LINE
  8
0
 10
75.927
 20
40.3532
 11
76.2773
 21
40.2145
  0
LINE
  8
0
 10
76.2773
 20
40.2145
 11
76.6075
 21
40.033
  0
LINE
  8
0
 10
76.6075
 20
40.033
 11
76.9123
 21
39.8115
  0
LINE
  8
0
 10
76.9123
 20
39.8115
 11
77.1869
 21
39.5536
  0
LINE
  8
0
 10
77.1869
 20
39.5536
 11
77.427
 21
39.2634
  0
LINE
  8
0
 10
77.427
 20
39.2634
 11
77.6289
 21
38.9453
  0
LINE
  8
0
 10
77.6289
 20
38.9453
 11
77.7893
 21
38.6044
  0
LINE
  8
0
 10
77.7893
 20
38.6044
 11
77.9057
 21
38.2461
  0
LINE
  8
0
 10
77.9057
 20
38.2461
 11
77.9763
 21
37.876
  0
LINE
  8
0
 10
77.9763
 20
37.876
 11
78
 21
37.5
  0
LINE
  8
0
 10
78
 20
37.5
 11
77.9763
 21
37.124
  0
LINE
  8
0
 10
77.9763
 20
37.124
 11
77.9057
 21
36.7539
  0
LINE
  8
0
 10
77.9057
 20
36.7539
 11
77.7893
 21
36.3956
  0
LINE
  8
0
 10
77.7893
 20
36.3956
 11
77.6289
 21
36.0547
  0
LINE
  8
0
 10
77.6289
 20
36.0547
 11
77.427
 21
35.7366
  0
LINE
  8
0
 10
77.427
 20
35.7366
 11
77.1869
 21
35.4464
  0
LINE
  8
0
 10
77.1869
 20
35.4464
 11
76.9123
 21
35.1885
  0
LINE
  8
0
 10
76.9123
 20
35.1885
 11
76.6075
 21
34.967
  0
LINE
  8
0
 10
76.6075
 20
34.967
 11
76.2773
 21
34.7855
  0
LINE
  8
0
 10
76.2773
 20
34.7855
 11
75.927
 21
34.6468
  0
LINE
  8
0
 10
75.927
 20
34.6468
 11
75.5621
 21
34.5531
  0
LINE
  8
0
 10
75.5621
 20
34.5531
 11
75.1884
 21
34.5059
  0
LINE
  8
0
 10
75.1884
 20
34.5059
 11
74.8116
 21
34.5059
  0
LINE
  8
0
 10
35.3023
 20
-34.9309
 11
30.9417
 21
-34.3801
  0
LINE
  8
0
 10
30.9417
 20
-34.3801
 11
26.6844
 21
-33.287
  0
LINE
  8
0
 10
26.6844
 20
-33.287
 11
22.5977
 21
-31.6689
  0
LINE
  8
0
 10
22.5977
 20
-31.6689
 11
18.746
 21
-29.5515
  0
LINE
  8
0
 10
18.746
 20
-29.5515
 11
15.1902
 21
-26.968
  0
LINE
  8
0
 10
15.1902
 20
-26.968
 11
11.9861
 21
-23.9591
  0
LINE
  8
0
 10
11.9861
 20
-23.9591
 11
9.1844
 21
-20.5725
  0
LINE
  8
0
 10
9.1844
 20
-20.5725
 11
6.82925
 21
-16.8614
  0
LINE
  8
0
 10
6.82925
 20
-16.8614
 11
4.95781
 21
-12.8844
  0
LINE
  8
0
 10
4.95781
 20
-12.8844
 11
3.59958
 21
-8.70413
  0
LINE
  8
0
 10
3.59958
 20
-8.70413
 11
2.77597
 21
-4.38666
  0
LINE
  8
0
 10
2.77597
 20
-4.38666
 11
2.5
 21
0
  0
LINE
  8
0
 10
2.5
 20
0
 11
2.77597
 21
4.38666
  0
LINE
  8
0
 10
2.77597
 20
4.38666
 11
3.59958
 21
8.70413
  0
LINE
  8
0
 10
3.59958
 20
8.70413
 11
4.95781
 21
12.8844
  0
LINE
  8
0
 10
4.95781
 20
12.8844
 11
6.82925
 21
16.8614
  0
LINE
  8
0
 10
6.82925
 20
16.8614
 11
9.1844
 21
20.5725
  0
LINE
  8
0
 10
9.1844
 20
20.5725
 11
11.9861
 21
23.9591
  0
LINE
  8
0
 10
11.9861
 20
23.9591
 11
15.1902
 21
26.968
  0
LINE
  8
0
 10
15.1902
 20
26.968
 11
18.746
 21
29.5515
  0
LINE
  8
0
 10
18.746
 20
29.5515
 11
22.5977
 21
31.6689
  0
LINE
  8
0
 10
22.5977
 20
31.6689
 11
26.6844
 21
33.287
  0
LINE
  8
0
 10
26.6844
 20
33.287
 11
30.9417
 21
34.3801
  0
LINE
  8
0
 10
30.9417
 20
34.3801
 11
35.3023
 21
34.9309
  0
LINE
  8
0
 10
35.3023
 20
34.9309
 11
39.6977
 21
34.9309
  0
LINE
  8
0
 10
39.6977
 20
34.9309
 11
44.0583
 21
34.3801
  0
LINE
  8
0
 10
44.0583
 20
34.3801
 11
48.3156
 21
33.287
  0
LINE
  8
0
 10
48.3156
 20
33.287
 11
52.4023
 21
31.6689
  0
LINE
  8
0
 10
52.4023
 20
31.6689
 11
56.2539
 21
29.5515
  0
LINE
  8
0
 10
56.2539
 20
29.5515
 11
59.8098
 21
26.968
  0
LINE
  8
0
 10
59.8098
 20
26.968
 11
63.0139
 21
23.9591
  0
LINE
  8
0
 10
63.0139
 20
23.9591
 11
65.8156
 21
20.5725
  0
LINE
  8
0
 10
65.8156
 20
20.5725
 11
68.1707
 21
16.8614
  0
LINE
  8
0
 10
68.1707
 20
16.8614
 11
70.0422
 21
12.8844
  0
LINE
  8
0
 10
70.0422
 20
12.8844
 11
71.4004
 21
8.70413
  0
LINE
  8
0
 10
71.4004
 20
8.70413
 11
72.224
 21
4.38666
  0
LINE
  8
0
 10
72.224
 20
4.38666
 11
72.5
 21
0
  0
LINE
  8
0
 10
72.5
 20
0
 11
72.224
 21
-4.38666
  0
LINE
  8
0
 10
72.224
 20
-4.38666
 11
71.4004
 21
-8.70413
  0
LINE
  8
0
 10
71.4004
 20
-8.70413
 11
70.0422
 21
-12.8844
  0
LINE
  8
0
 10
70.0422
 20
-12.8844
 11
68.1707
 21
-16.8614
  0
LINE
  8
0
 10
68.1707
 20
-16.8614
 11
65.8156
 21
-20.5725
  0
LINE
  8
0
 10
65.8156
 20
-20.5725
 11
63.0139
 21
-23.9591
  0
LINE
  8
0
 10
63.0139
 20
-23.9591
 11
59.8098
 21
-26.968
  0
LINE
  8
0
 10
59.8098
 20
-26.968
 11
56.2539
 21
-29.5515
  0
LINE
  8
0
 10
56.2539
 20
-29.5515
 11
52.4023
 21
-31.6689
  0
LINE
  8
0
 10
52.4023
 20
-31.6689
 11
48.3156
 21
-33.287
  0
LINE
  8
0
 10
48.3156
 20
-33.287
 11
44.0583
 21
-34.3801
  0
LINE
  8
0
 10
44.0583
 20
-34.3801
 11
39.6977
 21
-34.9309
  0
LINE
  8
0
 10
39.6977
 20
-34.9309
 11
35.3023
 21
-34.9309
  0
LINE
  8
0
 10
-39.6977
 20
-34.9309
 11
-44.0583
 21
-34.3801
  0
LINE
  8
0
 10
-44.0583
 20
-34.3801
 11
-48.3156
 21
-33.287
  0
LINE
  8
0
 10
-48.3156
 20
-33.287
 11
-52.4023
 21
-31.6689
  0
LINE
  8
0
 10
-52.4023
 20
-31.6689
 11
-56.2539
 21
-29.5515
  0
LINE
  8
0
 10
-56.2539
 20
-29.5515
 11
-59.8098
 21
-26.968
  0
LINE
  8
0
 10
-59.8098
 20
-26.968
 11
-63.0139
 21
-23.9591
  0
LINE
  8
0
 10
-63.0139
 20
-23.9591
 11
-65.8156
 21
-20.5725
  0
LINE
  8
0
 10
-65.8156
 20
-20.5725
 11
-68.1707
 21
-16.8614
  0
LINE
  8
0
 10
-68.1707
 20
-16.8614
 11
-70.0422
 21
-12.8844
  0
LINE
  8
0
 10
-70.0422
 20
-12.8844
 11
-71.4004
 21
-8.70413
  0
LINE
  8
0
 10
-71.4004
 20
-8.70413
 11
-72.224
 21
-4.38666
  0
LINE
  8
0
 10
-72.224
 20
-4.38666
 11
-72.5
 21
0
  0
LINE
  8
0
 10
-72.5
 20
0
 11
-72.224
 21
4.38666
  0
LINE
  8
0
 10
-72.224
 20
4.38666
 11
-71.4004
 21
8.70413
  0
LINE
  8
0
 10
-71.4004
 20
8.70413
 11
-70.0422
 21
12.8844
  0
LINE
  8
0
 10
-70.0422
 20
12.8844
 11
-68.1707
 21
16.8614
  0
LINE
  8
0
 10
-68.1707
 20
16.8614
 11
-65.8156
 21
20.5725
  0
LINE
  8
0
 10
-65.8156
 20
20.5725
 11
-63.0139
 21
23.9591
  0
LINE
  8
0
 10
-63.0139
 20
23.9591
 11
-59.8098
 21
26.968
  0
LINE
  8
0
 10
-59.8098
 20
26.968
 11
-56.2539
 21
29.5515
  0
LINE
  8
0
 10
-56.2539
 20
29.5515
 11
-52.4023
 21
31.6689
  0
LINE
  8
0
 10
-52.4023
 20
31.6689
 11
-48.3156
 21
33.287
  0
LINE
  8
0
 10
-48.3156
 20
33.287
 11
-44.0583
 21
34.3801
  0
LINE
  8
0
 10
-44.0583
 20
34.3801
 11
-39.6977
 21
34.9309
  0
LINE
  8
0
 10
-39.6977
 20
34.9309
 11
-35.3023
 21
34.9309
  0
LINE
  8
0
 10
-35.3023
 20
34.9309
 11
-30.9417
 21
34.3801
  0
LINE
  8
0
 10
-30.9417
 20
34.3801
 11
-26.6844
 21
33.287
  0
LINE
  8
0
 10
-26.6844
 20
33.287
 11
-22.5977
 21
31.6689
  0
LINE
  8
0
 10
-22.5977
 20
31.6689
 11
-18.746
 21
29.5515
  0
LINE
  8
0
 10
-18.746
 20
29.5515
 11
-15.1902
 21
26.968
  0
LINE
  8
0
 10
-15.1902
 20
26.968
 11
-11.9861
 21
23.9591
  0
LINE
  8
0
 10
-11.9861
 20
23.9591
 11
-9.1844
 21
20.5725
  0
LINE
  8
0
 10
-9.1844
 20
20.5725
 11
-6.82925
 21
16.8614
  0
LINE
  8
0
 10
-6.82925
 20
16.8614
 11
-4.95781
 21
12.8844
  0
LINE
  8
0
 10
-4.95781
 20
12.8844
 11
-3.59958
 21
8.70413
  0
LINE
  8
0
 10
-3.59958
 20
8.70413
 11
-2.77597
 21
4.38666
  0
LINE
  8
0
 10
-2.77597
 20
4.38666
 11
-2.5
 21
0
  0
LINE
  8
0
 10
-2.5
 20
0
 11
-2.77597
 21
-4.38666
  0
LINE
  8
0
 10
-2.77597
 20
-4.38666
 11
-3.59958
 21
-8.70413
  0
LINE
  8
0
 10
-3.59958
 20
-8.70413
 11
-4.95781
 21
-12.8844
  0
LINE
  8
0
 10
-4.95781
 20
-12.8844
 11
-6.82925
 21
-16.8614
  0
LINE
  8
0
 10
-6.82925
 20
-16.8614
 11
-9.1844
 21
-20.5725
  0
LINE
  8
0
 10
-9.1844
 20
-20.5725
 11
-11.9861
 21
-23.9591
  0
LINE
  8
0
 10
-11.9861
 20
-23.9591
 11
-15.1902
 21
-26.968
  0
LINE
  8
0
 10
-15.1902
 20
-26.968
 11
-18.746
 21
-29.5515
  0
LINE
  8
0
 10
-18.746
 20
-29.5515
 11
-22.5977
 21
-31.6689
  0
LINE
  8
0
 10
-22.5977
 20
-31.6689
 11
-26.6844
 21
-33.287
  0
LINE
  8
0
 10
-26.6844
 20
-33.287
 11
-30.9417
 21
-34.3801
  0
LINE
  8
0
 10
-30.9417
 20
-34.3801
 11
-35.3023
 21
-34.9309
  0
LINE
  8
0
 10
-35.3023
 20
-34.9309
 11
-39.6977
 21
-34.9309
  0
LINE
  8
0
 10
-75.1884
 20
-40.4941
 11
-75.5621
 21
-40.4469
  0
LINE
  8
0
 10
-75.5621
 20
-40.4469
 11
-75.927
 21
-40.3532
  0
LINE
  8
0
 10
-75.927
 20
-40.3532
 11
-76.2773
 21
-40.2145
  0
LINE
  8
0
 10
-76.2773
 20
-40.2145
 11
-76.6075
 21
-40.033
  0
LINE
  8
0
 10
-76.6075
 20
-40.033
 11
-76.9123
 21
-39.8115
  0
LINE
  8
0
 10
-76.9123
 20
-39.8115
 11
-77.1869
 21
-39.5536
  0
LINE
  8
0
 10
-77.1869
 20
-39.5536
 11
-77.427
 21
-39.2634
  0
LINE
  8
0
 10
-77.427
 20
-39.2634
 11
-77.6289
 21
-38.9453
  0
LINE
  8
0
 10
-77.6289
 20
-38.9453
 11
-77.7893
 21
-38.6044
  0
LINE
  8
0
 10
-77.7893
 20
-38.6044
 11
-77.9057
 21
-38.2461
  0
LINE
  8
0
 10
-77.9057
 20
-38.2461
 11
-77.9763
 21
-37.876
  0
LINE
  8
0
 10
-77.9763
 20
-37.876
 11
-78
 21
-37.5
  0
LINE
  8
0
 10
-78
 20
-37.5
 11
-77.9763
 21
-37.124
  0
LINE
  8
0
 10
-77.9763
 20
-37.124
 11
-77.9057
 21
-36.7539
  0
LINE
  8
0
 10
-77.9057
 20
-36.7539
 11
-77.7893
 21
-36.3956
  0
LINE
  8
0
 10
-77.7893
 20
-36.3956
 11
-77.6289
 21
-36.0547
  0
LINE
  8
0
 10
-77.6289
 20
-36.0547
 11
-77.427
 21
-35.7366
  0
LINE
  8
0
 10
-77.427
 20
-35.7366
 11
-77.1869
 21
-35.4464
  0
LINE
  8
0
 10
-77.1869
 20
-35.4464
 11
-76.9123
 21
-35.1885
  0
LINE
  8
0
 10
-76.9123
 20
-35.1885
 11
-76.6075
 21
-34.967
  0
LINE
  8
0
 10
-76.6075
 20
-34.967
 11
-76.2773
 21
-34.7855
  0
LINE
  8
0
 10
-76.2773
 20
-34.7855
 11
-75.927
 21
-34.6468
  0
LINE
  8
0
 10
-75.927
 20
-34.6468
 11
-75.5621
 21
-34.5531
  0
LINE
  8
0
 10
-75.5621
 20
-34.5531
 11
-75.1884
 21
-34.5059
  0
LINE
  8
0
 10
-75.1884
 20
-34.5059
 11
-74.8116
 21
-34.5059
  0
LINE
  8
0
 10
-74.8116
 20
-34.5059
 11
-74.4379
 21
-34.5531
  0
LINE
  8
0
 10
-74.4379
 20
-34.5531
 11
-74.073
 21
-34.6468
  0
LINE
  8
0
 10
-74.073
 20
-34.6468
 11
-73.7227
 21
-34.7855
  0
LINE
  8
0
 10
-73.7227
 20
-34.7855
 11
-73.3925
 21
-34.967
  0
LINE
  8
0
 10
-73.3925
 20
-34.967
 11
-73.0877
 21
-35.1885
  0
LINE
  8
0
 10
-73.0877
 20
-35.1885
 11
-72.8131
 21
-35.4464
  0
LINE
  8
0
 10
-72.8131
 20
-35.4464
 11
-72.573
 21
-35.7366
  0
LINE
  8
0
 10
-72.573
 20
-35.7366
 11
-72.3711
 21
-36.0547
  0
LINE
  8
0
 10
-72.3711
 20
-36.0547
 11
-72.2107
 21
-36.3956
  0
LINE
  8
0
 10
-72.2107
 20
-36.3956
 11
-72.0943
 21
-36.7539
  0
LINE
  8
0
 10
-72.0943
 20
-36.7539
 11
-72.0237
 21
-37.124
  0
LINE
  8
0
 10
-72.0237
 20
-37.124
 11
-72
 21
-37.5
  0
LINE
  8
0
 10
-72
 20
-37.5
 11
-72.0237
 21
-37.876
  0
LINE
  8
0
 10
-72.0237
 20
-37.876
 11
-72.0943
 21
-38.2461
  0
LINE
  8
0
 10
-72.0943
 20
-38.2461
 11
-72.2107
 21
-38.6044
  0
LINE
  8
0
 10
-72.2107
 20
-38.6044
 11
-72.3711
 21
-38.9453
  0
LINE
  8
0
 10
-72.3711
 20
-38.9453
 11
-72.573
 21
-39.2634
  0
LINE
  8
0
 10
-72.573
 20
-39.2634
 11
-72.8131
 21
-39.5536
  0
LINE
  8
0
 10
-72.8131
 20
-39.5536
 11
-73.0877
 21
-39.8115
  0
LINE
  8
0
 10
-73.0877
 20
-39.8115
 11
-73.3925
 21
-40.033
  0
LINE
  8
0
 10
-73.3925
 20
-40.033
 11
-73.7227
 21
-40.2145
  0
LINE
  8
0
 10
-73.7227
 20
-40.2145
 11
-74.073
 21
-40.3532
  0
LINE
  8
0
 10
-74.073
 20
-40.3532
 11
-74.4379
 21
-40.4469
  0
LINE
  8
0
 10
-74.4379
 20
-40.4469
 11
-74.8116
 21
-40.4941
  0
LINE
  8
0
 10
-74.8116
 20
-40.4941
 11
-75.1884
 21
-40.4941
  0
LINE
  8
0
 10
74.8116
 20
-40.4941
 11
74.4379
 21
-40.4469
  0
LINE
  8
0
 10
74.4379
 20
-40.4469
 11
74.073
 21
-40.3532
  0
LINE
  8
0
 10
74.073
 20
-40.3532
 11
73.7227
 21
-40.2145
  0
LINE
  8
0
 10
73.7227
 20
-40.2145
 11
73.3925
 21
-40.033
  0
LINE
  8
0
 10
73.3925
 20
-40.033
 11
73.0877
 21
-39.8115
  0
LINE
  8
0
 10
73.0877
 20
-39.8115
 11
72.8131
 21
-39.5536
  0
LINE
  8
0
 10
72.8131
 20
-39.5536
 11
72.573
 21
-39.2634
  0
LINE
  8
0
 10
72.573
 20
-39.2634
 11
72.3711
 21
-38.9453
  0
LINE
  8
0
 10
72.3711
 20
-38.9453
 11
72.2107
 21
-38.6044
  0
LINE
  8
0
 10
72.2107
 20
-38.6044
 11
72.0943
 21
-38.2461
  0
LINE
  8
0
 10
72.0943
 20
-38.2461
 11
72.0237
 21
-37.876
  0
LINE
  8
0
 10
72.0237
 20
-37.876
 11
72
 21
-37.5
  0
LINE
  8
0
 10
72
 20
-37.5
 11
72.0237
 21
-37.124
  0
LINE
  8
0
 10
72.0237
 20
-37.124
 11
72.0943
 21
-36.7539
  0
LINE
  8
0
 10
72.0943
 20
-36.7539
 11
72.2107
 21
-36.3956
  0
LINE
  8
0
 10
72.2107
 20
-36.3956
 11
72.3711
 21
-36.0547
  0
LINE
  8
0
 10
72.3711
 20
-36.0547
 11
72.573
 21
-35.7366
  0
LINE
  8
0
 10
72.573
 20
-35.7366
 11
72.8131
 21
-35.4464
  0
LINE
  8
0
 10
72.8131
 20
-35.4464
 11
73.0877
 21
-35.1885
  0
LINE
  8
0
 10
73.0877
 20
-35.1885
 11
73.3925
 21
-34.967
  0
LINE
  8
0
 10
73.3925
 20
-34.967
 11
73.7227
 21
-34.7855
  0
LINE
  8
0
 10
73.7227
 20
-34.7855
 11
74.073
 21
-34.6468
  0
LINE
  8
0
 10
74.073
 20
-34.6468
 11
74.4379
 21
-34.5531
  0
LINE
  8
0
 10
74.4379
 20
-34.5531
 11
74.8116
 21
-34.5059
  0
LINE
  8
0
 10
74.8116
 20
-34.5059
 11
75.1884
 21
-34.5059
  0
LINE
  8
0
 10
75.1884
 20
-34.5059
 11
75.5621
 21
-34.5531
  0
LINE
  8
0
 10
75.5621
 20
-34.5531
 11
75.927
 21
-34.6468
  0
LINE
  8
0
 10
75.927
 20
-34.6468
 11
76.2773
 21
-34.7855
  0
LINE
  8
0
 10
76.2773
 20
-34.7855
 11
76.6075
 21
-34.967
  0
LINE
  8
0
 10
76.6075
 20
-34.967
 11
76.9123
 21
-35.1885
  0
LINE
  8
0
 10
76.9123
 20
-35.1885
 11
77.1869
 21
-35.4464
  0
LINE
  8
0
 10
77.1869
 20
-35.4464
 11
77.427
 21
-35.7366
  0
LINE
  8
0
 10
77.427
 20
-35.7366
 11
77.6289
 21
-36.0547
  0
LINE
  8
0
 10
77.6289
 20
-36.0547
 11
77.7893
 21
-36.3956
  0
LINE
  8
0
 10
77.7893
 20
-36.3956
 11
77.9057
 21
-36.7539
  0
LINE
  8
0
 10
77.9057
 20
-36.7539
 11
77.9763
 21
-37.124
  0
LINE
  8
0
 10
77.9763
 20
-37.124
 11
78
 21
-37.5
  0
LINE
  8
0
 10
78
 20
-37.5
 11
77.9763
 21
-37.876
  0
LINE
  8
0
 10
77.9763
 20
-37.876
 11
77.9057
 21
-38.2461
  0
LINE
  8
0
 10
77.9057
 20
-38.2461
 11
77.7893
 21
-38.6044
  0
LINE
  8
0
 10
77.7893
 20
-38.6044
 11
77.6289
 21
-38.9453
  0
LINE
  8
0
 10
77.6289
 20
-38.9453
 11
77.427
 21
-39.2634
  0
LINE
  8
0
 10
77.427
 20
-39.2634
 11
77.1869
 21
-39.5536
  0
LINE
  8
0
 10
77.1869
 20
-39.5536
 11
76.9123
 21
-39.8115
  0
LINE
  8
0
 10
76.9123
 20
-39.8115
 11
76.6075
 21
-40.033
  0
LINE
  8
0
 10
76.6075
 20
-40.033
 11
76.2773
 21
-40.2145
  0
LINE
  8
0
 10
76.2773
 20
-40.2145
 11
75.927
 21
-40.3532
  0
LINE
  8
0
 10
75.927
 20
-40.3532
 11
75.5621
 21
-40.4469
  0
LINE
  8
0
 10
75.5621
 20
-40.4469
 11
75.1884
 21
-40.4941
  0
LINE
  8
0
 10
75.1884
 20
-40.4941
 11
74.8116
 21
-40.4941
  0
ENDSEC
  0
SECTION
  2
OBJECTS
  0
DICTIONARY
  0
ENDSEC
  0
EOF
