<?xml version="1.0" standalone="no"?>
<!DOCTYPE svg PUBLIC "-//W3C//DTD SVG 1.1//EN" "http://www.w3.org/Graphics/SVG/1.1/DTD/svg11.dtd">
<svg width="434mm" height="120mm" viewBox="-217 -60 434 120" xmlns="http://www.w3.org/2000/svg" version="1.1">
<title>OpenSCAD Model</title>
<path d="
M 212.937,59.4114 L 213.545,59.2553 L 214.129,59.0241 L 214.679,58.7216 L 215.187,58.3526 L 215.645,57.9227
 L 216.045,57.4389 L 216.382,56.9088 L 216.649,56.3406 L 216.843,55.7434 L 216.961,55.1267 L 217,54.5
 L 217,-54.5 L 216.961,-55.1267 L 216.843,-55.7434 L 216.649,-56.3406 L 216.382,-56.9088 L 216.045,-57.4389
 L 215.645,-57.9227 L 215.187,-58.3526 L 214.679,-58.7216 L 214.129,-59.0241 L 213.545,-59.2553 L 212.937,-59.4114
 L 212.314,-59.4901 L -212.314,-59.4901 L -212.937,-59.4114 L -213.545,-59.2553 L -214.129,-59.0241 L -214.679,-58.7216
 L -215.187,-58.3526 L -215.645,-57.9227 L -216.045,-57.4389 L -216.382,-56.9088 L -216.649,-56.3406 L -216.843,-55.7434
 L -216.961,-55.1267 L -217,-54.5 L -217,54.5 L -216.961,55.1267 L -216.843,55.7434 L -216.649,56.3406
 L -216.382,56.9088 L -216.045,57.4389 L -215.645,57.9227 L -215.187,58.3526 L -214.679,58.7216 L -214.129,59.0241
 L -213.545,59.2553 L -212.937,59.4114 L -212.314,59.4901 L 212.314,59.4901 z
M -210.188,-49.5059 L -210.562,-49.5531 L -210.927,-49.6468 L -211.277,-49.7855 L -211.607,-49.967 L -211.912,-50.1885
 L -212.187,-50.4464 L -212.427,-50.7366 L -212.629,-51.0547 L -212.789,-51.3956 L -212.906,-51.7539 L -212.976,-52.124
 L -213,-52.5 L -212.976,-52.876 L -212.906,-53.2461 L -212.789,-53.6044 L -212.629,-53.9453 L -212.427,-54.2634
 L -212.187,-54.5536 L -211.912,-54.8115 L -211.607,-55.033 L -211.277,-55.2145 L -210.927,-55.3532 L -210.562,-55.4469
 L -210.188,-55.4941 L -209.812,-55.4941 L -209.438,-55.4469 L -209.073,-55.3532 L -208.723,-55.2145 L -208.393,-55.033
 L -208.088,-54.8115 L -207.813,-54.5536 L -207.573,-54.2634 L -207.371,-53.9453 L -207.211,-53.6044 L -207.094,-53.2461
 L -207.024,-52.876 L -207,-52.5 L -207.024,-52.124 L -207.094,-51.7539 L -207.211,-51.3956 L -207.371,-51.0547
 L -207.573,-50.7366 L -207.813,-50.4464 L -208.088,-50.1885 L -208.393,-49.967 L -208.723,-49.7855 L -209.073,-49.6468
 L -209.438,-49.5531 L -209.812,-49.5059 z
M 209.812,-49.5059 L 209.438,-49.5531 L 209.073,-49.6468 L 208.723,-49.7855 L 208.393,-49.967 L 208.088,-50.1885
 L 207.813,-50.4464 L 207.573,-50.7366 L 207.371,-51.0547 L 207.211,-51.3956 L 207.094,-51.7539 L 207.024,-52.124
 L 207,-52.5 L 207.024,-52.876 L 207.094,-53.2461 L 207.211,-53.6044 L 207.371,-53.9453 L 207.573,-54.2634
 L 207.813,-54.5536 L 208.088,-54.8115 L 208.393,-55.033 L 208.723,-55.2145 L 209.073,-55.3532 L 209.438,-55.4469
 L 209.812,-55.4941 L 210.188,-55.4941 L 210.562,-55.4469 L 210.927,-55.3532 L 211.277,-55.2145 L 211.607,-55.033
 L 211.912,-54.8115 L 212.187,-54.5536 L 212.427,-54.2634 L 212.629,-53.9453 L 212.789,-53.6044 L 212.906,-53.2461
 L 212.976,-52.876 L 213,-52.5 L 212.976,-52.124 L 212.906,-51.7539 L 212.789,-51.3956 L 212.629,-51.0547
 L 212.427,-50.7366 L 212.187,-50.4464 L 211.912,-50.1885 L 211.607,-49.967 L 211.277,-49.7855 L 210.927,-49.6468
 L 210.562,-49.5531 L 210.188,-49.5059 z
M -160.64,49.9013 L -166.869,49.1143 L -172.951,47.5528 L -178.789,45.2413 L -184.291,42.2164 L -189.371,38.5257
 L -193.948,34.2274 L -197.951,29.3893 L -201.315,24.0877 L -203.989,18.4062 L -205.929,12.4345 L -207.106,6.26665
 L -207.5,-0 L -207.106,-6.26665 L -205.929,-12.4345 L -203.989,-18.4062 L -201.315,-24.0877 L -197.951,-29.3893
 L -193.948,-34.2274 L -189.371,-38.5257 L -184.291,-42.2164 L -178.789,-45.2413 L -172.951,-47.5528 L -166.869,-49.1143
 L -160.64,-49.9013 L -154.36,-49.9013 L -148.131,-49.1143 L -142.049,-47.5528 L -136.211,-45.2413 L -130.709,-42.2164
 L -125.629,-38.5257 L -121.052,-34.2274 L -117.049,-29.3893 L -113.685,-24.0877 L -111.011,-18.4062 L -109.071,-12.4345
 L -107.894,-6.26665 L -107.5,-0 L -107.894,6.26665 L -109.071,12.4345 L -111.011,18.4062 L -113.685,24.0877
 L -117.049,29.3893 L -121.052,34.2274 L -125.629,38.5257 L -130.709,42.2164 L -136.211,45.2413 L -142.049,47.5528
 L -148.131,49.1143 L -154.36,49.9013 z
M 154.36,49.9013 L 148.131,49.1143 L 142.049,47.5528 L 136.211,45.2413 L 130.709,42.2164 L 125.629,38.5257
 L 121.052,34.2274 L 117.049,29.3893 L 113.685,24.0877 L 111.011,18.4062 L 109.071,12.4345 L 107.894,6.26665
 L 107.5,-0 L 107.894,-6.26665 L 109.071,-12.4345 L 111.011,-18.4062 L 113.685,-24.0877 L 117.049,-29.3893
 L 121.052,-34.2274 L 125.629,-38.5257 L 130.709,-42.2164 L 136.211,-45.2413 L 142.049,-47.5528 L 148.131,-49.1143
 L 154.36,-49.9013 L 160.64,-49.9013 L 166.869,-49.1143 L 172.951,-47.5528 L 178.789,-45.2413 L 184.291,-42.2164
 L 189.371,-38.5257 L 193.948,-34.2274 L 197.951,-29.3893 L 201.315,-24.0877 L 203.989,-18.4062 L 205.929,-12.4345
 L 207.106,-6.26665 L 207.5,-0 L 207.106,6.26665 L 205.929,12.4345 L 203.989,18.4062 L 201.315,24.0877
 L 197.951,29.3893 L 193.948,34.2274 L 189.371,38.5257 L 184.291,42.2164 L 178.789,45.2413 L 172.951,47.5528
 L 166.869,49.1143 L 160.64,49.9013 z
M 49.3605,49.9013 L 43.1309,49.1143 L 37.0491,47.5528 L 31.211,45.2413 L 25.7086,42.2164 L 20.6288,38.5257
 L 16.0516,34.2274 L 12.0491,29.3893 L 8.68466,24.0877 L 6.01117,18.4062 L 4.07083,12.4345 L 2.89426,6.26665
 L 2.5,-0 L 2.89426,-6.26665 L 4.07083,-12.4345 L 6.01117,-18.4062 L 8.68466,-24.0877 L 12.0491,-29.3893
 L 16.0516,-34.2274 L 20.6288,-38.5257 L 25.7086,-42.2164 L 31.211,-45.2413 L 37.0491,-47.5528 L 43.1309,-49.1143
 L 49.3605,-49.9013 L 55.6395,-49.9013 L 61.8691,-49.1143 L 67.9509,-47.5528 L 73.789,-45.2413 L 79.2913,-42.2164
 L 84.3712,-38.5257 L 88.9484,-34.2274 L 92.9509,-29.3893 L 96.3153,-24.0877 L 98.9888,-18.4062 L 100.929,-12.4345
 L 102.106,-6.26665 L 102.5,-0 L 102.106,6.26665 L 100.929,12.4345 L 98.9888,18.4062 L 96.3153,24.0877
 L 92.9509,29.3893 L 88.9484,34.2274 L 84.3712,38.5257 L 79.2913,42.2164 L 73.789,45.2413 L 67.9509,47.5528
 L 61.8691,49.1143 L 55.6395,49.9013 z
M -55.6395,49.9013 L -61.8691,49.1143 L -67.9509,47.5528 L -73.789,45.2413 L -79.2913,42.2164 L -84.3712,38.5257
 L -88.9484,34.2274 L -92.9509,29.3893 L -96.3153,24.0877 L -98.9888,18.4062 L -100.929,12.4345 L -102.106,6.26665
 L -102.5,-0 L -102.106,-6.26665 L -100.929,-12.4345 L -98.9888,-18.4062 L -96.3153,-24.0877 L -92.9509,-29.3893
 L -88.9484,-34.2274 L -84.3712,-38.5257 L -79.2913,-42.2164 L -73.789,-45.2413 L -67.9509,-47.5528 L -61.8691,-49.1143
 L -55.6395,-49.9013 L -49.3605,-49.9013 L -43.1309,-49.1143 L -37.0491,-47.5528 L -31.211,-45.2413 L -25.7086,-42.2164
 L -20.6288,-38.5257 L -16.0516,-34.2274 L -12.0491,-29.3893 L -8.68466,-24.0877 L -6.01117,-18.4062 L -4.07083,-12.4345
 L -2.89426,-6.26665 L -2.5,-0 L -2.89426,6.26665 L -4.07083,12.4345 L -6.01117,18.4062 L -8.68466,24.0877
 L -12.0491,29.3893 L -16.0516,34.2274 L -20.6288,38.5257 L -25.7086,42.2164 L -31.211,45.2413 L -37.0491,47.5528
 L -43.1309,49.1143 L -49.3605,49.9013 z
M 209.812,55.4941 L 209.438,55.4469 L 209.073,55.3532 L 208.723,55.2145 L 208.393,55.033 L 208.088,54.8115
 L 207.813,54.5536 L 207.573,54.2634 L 207.371,53.9453 L 207.211,53.6044 L 207.094,53.2461 L 207.024,52.876
 L 207,52.5 L 207.024,52.124 L 207.094,51.7539 L 207.211,51.3956 L 207.371,51.0547 L 207.573,50.7366
 L 207.813,50.4464 L 208.088,50.1885 L 208.393,49.967 L 208.723,49.7855 L 209.073,49.6468 L 209.438,49.5531
 L 209.812,49.5059 L 210.188,49.5059 L 210.562,49.5531 L 210.927,49.6468 L 211.277,49.7855 L 211.607,49.967
 L 211.912,50.1885 L 212.187,50.4464 L 212.427,50.7366 L 212.629,51.0547 L 212.789,51.3956 L 212.906,51.7539
 L 212.976,52.124 L 213,52.5 L 212.976,52.876 L 212.906,53.2461 L 212.789,53.6044 L 212.629,53.9453
 L 212.427,54.2634 L 212.187,54.5536 L 211.912,54.8115 L 211.607,55.033 L 211.277,55.2145 L 210.927,55.3532
 L 210.562,55.4469 L 210.188,55.4941 z
M -210.188,55.4941 L -210.562,55.4469 L -210.927,55.3532 L -211.277,55.2145 L -211.607,55.033 L -211.912,54.8115
 L -212.187,54.5536 L -212.427,54.2634 L -212.629,53.9453 L -212.789,53.6044 L -212.906,53.2461 L -212.976,52.876
 L -213,52.5 L -212.976,52.124 L -212.906,51.7539 L -212.789,51.3956 L -212.629,51.0547 L -212.427,50.7366
 L -212.187,50.4464 L -211.912,50.1885 L -211.607,49.967 L -211.277,49.7855 L -210.927,49.6468 L -210.562,49.5531
 L -210.188,49.5059 L -209.812,49.5059 L -209.438,49.5531 L -209.073,49.6468 L -208.723,49.7855 L -208.393,49.967
 L -208.088,50.1885 L -207.813,50.4464 L -207.573,50.7366 L -207.371,51.0547 L -207.211,51.3956 L -207.094,51.7539
 L -207.024,52.124 L -207,52.5 L -207.024,52.876 L -207.094,53.2461 L -207.211,53.6044 L -207.371,53.9453
 L -207.573,54.2634 L -207.813,54.5536 L -208.088,54.8115 L -208.393,55.033 L -208.723,55.2145 L -209.073,55.3532
 L -209.438,55.4469 L -209.812,55.4941 z
" stroke="black" fill="lightgray" stroke-width="0.5"/>
</svg>
