<?xml version="1.0" standalone="no"?>
<!DOCTYPE svg PUBLIC "-//W3C//DTD SVG 1.1//EN" "http://www.w3.org/Graphics/SVG/1.1/DTD/svg11.dtd">
<svg width="224mm" height="60mm" viewBox="-112 -30 224 60" xmlns="http://www.w3.org/2000/svg" version="1.1">
<title>OpenSCAD Model</title>
<path d="
M 107.937,29.4114 L 108.545,29.2553 L 109.129,29.0241 L 109.679,28.7216 L 110.187,28.3526 L 110.645,27.9227
 L 111.045,27.4389 L 111.382,26.9088 L 111.649,26.3406 L 111.843,25.7434 L 111.961,25.1267 L 112,24.5
 L 112,-24.5 L 111.961,-25.1267 L 111.843,-25.7434 L 111.649,-26.3406 L 111.382,-26.9088 L 111.045,-27.4389
 L 110.645,-27.9227 L 110.187,-28.3526 L 109.679,-28.7216 L 109.129,-29.0241 L 108.545,-29.2553 L 107.937,-29.4114
 L 107.314,-29.4901 L -107.314,-29.4901 L -107.937,-29.4114 L -108.545,-29.2553 L -109.129,-29.0241 L -109.679,-28.7216
 L -110.187,-28.3526 L -110.645,-27.9227 L -111.045,-27.4389 L -111.382,-26.9088 L -111.649,-26.3406 L -111.843,-25.7434
 L -111.961,-25.1267 L -112,-24.5 L -112,24.5 L -111.961,25.1267 L -111.843,25.7434 L -111.649,26.3406
 L -111.382,26.9088 L -111.045,27.4389 L -110.645,27.9227 L -110.187,28.3526 L -109.679,28.7216 L -109.129,29.0241
 L -108.545,29.2553 L -107.937,29.4114 L -107.314,29.4901 L 107.314,29.4901 z
M -105.188,-19.5059 L -105.562,-19.5531 L -105.927,-19.6468 L -106.277,-19.7855 L -106.607,-19.967 L -106.912,-20.1884
 L -107.187,-20.4464 L -107.427,-20.7366 L -107.629,-21.0547 L -107.789,-21.3956 L -107.906,-21.7539 L -107.976,-22.124
 L -108,-22.5 L -107.976,-22.876 L -107.906,-23.2461 L -107.789,-23.6044 L -107.629,-23.9453 L -107.427,-24.2634
 L -107.187,-24.5536 L -106.912,-24.8115 L -106.607,-25.033 L -106.277,-25.2145 L -105.927,-25.3532 L -105.562,-25.4469
 L -105.188,-25.4941 L -104.812,-25.4941 L -104.438,-25.4469 L -104.073,-25.3532 L -103.723,-25.2145 L -103.393,-25.033
 L -103.088,-24.8115 L -102.813,-24.5536 L -102.573,-24.2634 L -102.371,-23.9453 L -102.211,-23.6044 L -102.094,-23.2461
 L -102.024,-22.876 L -102,-22.5 L -102.024,-22.124 L -102.094,-21.7539 L -102.211,-21.3956 L -102.371,-21.0547
 L -102.573,-20.7366 L -102.813,-20.4464 L -103.088,-20.1884 L -103.393,-19.967 L -103.723,-19.7855 L -104.073,-19.6468
 L -104.438,-19.5531 L -104.812,-19.5059 z
M 104.812,-19.5059 L 104.438,-19.5531 L 104.073,-19.6468 L 103.723,-19.7855 L 103.393,-19.967 L 103.088,-20.1884
 L 102.813,-20.4464 L 102.573,-20.7366 L 102.371,-21.0547 L 102.211,-21.3956 L 102.094,-21.7539 L 102.024,-22.124
 L 102,-22.5 L 102.024,-22.876 L 102.094,-23.2461 L 102.211,-23.6044 L 102.371,-23.9453 L 102.573,-24.2634
 L 102.813,-24.5536 L 103.088,-24.8115 L 103.393,-25.033 L 103.723,-25.2145 L 104.073,-25.3532 L 104.438,-25.4469
 L 104.812,-25.4941 L 105.188,-25.4941 L 105.562,-25.4469 L 105.927,-25.3532 L 106.277,-25.2145 L 106.607,-25.033
 L 106.912,-24.8115 L 107.187,-24.5536 L 107.427,-24.2634 L 107.629,-23.9453 L 107.789,-23.6044 L 107.906,-23.2461
 L 107.976,-22.876 L 108,-22.5 L 107.976,-22.124 L 107.906,-21.7539 L 107.789,-21.3956 L 107.629,-21.0547
 L 107.427,-20.7366 L 107.187,-20.4464 L 106.912,-20.1884 L 106.607,-19.967 L 106.277,-19.7855 L 105.927,-19.6468
 L 105.562,-19.5531 L 105.188,-19.5059 z
M 42.7756,19.4615 L 40.3461,19.1546 L 37.9742,18.5456 L 35.6973,17.6441 L 33.5514,16.4644 L 31.5702,15.025
 L 29.7851,13.3487 L 28.2242,11.4618 L 26.912,9.3942 L 25.8694,7.17842 L 25.1126,4.84944 L 24.6538,2.44398
 L 24.5,-0 L 24.6538,-2.44398 L 25.1126,-4.84944 L 25.8694,-7.17842 L 26.912,-9.3942 L 28.2242,-11.4618
 L 29.7851,-13.3487 L 31.5702,-15.025 L 33.5514,-16.4644 L 35.6973,-17.6441 L 37.9742,-18.5456 L 40.3461,-19.1546
 L 42.7756,-19.4615 L 45.2244,-19.4615 L 47.6539,-19.1546 L 50.0258,-18.5456 L 52.3027,-17.6441 L 54.4486,-16.4644
 L 56.4298,-15.025 L 58.2149,-13.3487 L 59.7758,-11.4618 L 61.088,-9.3942 L 62.1306,-7.17842 L 62.8874,-4.84944
 L 63.3462,-2.44398 L 63.5,-0 L 63.3462,2.44398 L 62.8874,4.84944 L 62.1306,7.17842 L 61.088,9.3942
 L 59.7758,11.4618 L 58.2149,13.3487 L 56.4298,15.025 L 54.4486,16.4644 L 52.3027,17.6441 L 50.0258,18.5456
 L 47.6539,19.1546 L 45.2244,19.4615 z
M -89.2244,19.4615 L -91.6539,19.1546 L -94.0258,18.5456 L -96.3027,17.6441 L -98.4486,16.4644 L -100.43,15.025
 L -102.215,13.3487 L -103.776,11.4618 L -105.088,9.3942 L -106.131,7.17842 L -106.887,4.84944 L -107.346,2.44398
 L -107.5,-0 L -107.346,-2.44398 L -106.887,-4.84944 L -106.131,-7.17842 L -105.088,-9.3942 L -103.776,-11.4618
 L -102.215,-13.3487 L -100.43,-15.025 L -98.4486,-16.4644 L -96.3027,-17.6441 L -94.0258,-18.5456 L -91.6539,-19.1546
 L -89.2244,-19.4615 L -86.7756,-19.4615 L -84.3461,-19.1546 L -81.9742,-18.5456 L -79.6973,-17.6441 L -77.5514,-16.4644
 L -75.5702,-15.025 L -73.7851,-13.3487 L -72.2242,-11.4618 L -70.912,-9.3942 L -69.8694,-7.17842 L -69.1126,-4.84944
 L -68.6538,-2.44398 L -68.5,-0 L -68.6538,2.44398 L -69.1126,4.84944 L -69.8694,7.17842 L -70.912,9.3942
 L -72.2242,11.4618 L -73.7851,13.3487 L -75.5702,15.025 L -77.5514,16.4644 L -79.6973,17.6441 L -81.9742,18.5456
 L -84.3461,19.1546 L -86.7756,19.4615 z
M 86.7756,19.4615 L 84.3461,19.1546 L 81.9742,18.5456 L 79.6973,17.6441 L 77.5514,16.4644 L 75.5702,15.025
 L 73.7851,13.3487 L 72.2242,11.4618 L 70.912,9.3942 L 69.8694,7.17842 L 69.1126,4.84944 L 68.6538,2.44398
 L 68.5,-0 L 68.6538,-2.44398 L 69.1126,-4.84944 L 69.8694,-7.17842 L 70.912,-9.3942 L 72.2242,-11.4618
 L 73.7851,-13.3487 L 75.5702,-15.025 L 77.5514,-16.4644 L 79.6973,-17.6441 L 81.9742,-18.5456 L 84.3461,-19.1546
 L 86.7756,-19.4615 L 89.2244,-19.4615 L 91.6539,-19.1546 L 94.0258,-18.5456 L 96.3027,-17.6441 L 98.4486,-16.4644
 L 100.43,-15.025 L 102.215,-13.3487 L 103.776,-11.4618 L 105.088,-9.3942 L 106.131,-7.17842 L 106.887,-4.84944
 L 107.346,-2.44398 L 107.5,-0 L 107.346,2.44398 L 106.887,4.84944 L 106.131,7.17842 L 105.088,9.3942
 L 103.776,11.4618 L 102.215,13.3487 L 100.43,15.025 L 98.4486,16.4644 L 96.3027,17.6441 L 94.0258,18.5456
 L 91.6539,19.1546 L 89.2244,19.4615 z
M -1.22441,19.4615 L -3.65393,19.1546 L -6.02582,18.5456 L -8.30269,17.6441 L -10.4486,16.4644 L -12.4298,15.025
 L -14.2149,13.3487 L -15.7758,11.4618 L -17.088,9.3942 L -18.1306,7.17842 L -18.8874,4.84944 L -19.3462,2.44398
 L -19.5,-0 L -19.3462,-2.44398 L -18.8874,-4.84944 L -18.1306,-7.17842 L -17.088,-9.3942 L -15.7758,-11.4618
 L -14.2149,-13.3487 L -12.4298,-15.025 L -10.4486,-16.4644 L -8.30269,-17.6441 L -6.02582,-18.5456 L -3.65393,-19.1546
 L -1.22441,-19.4615 L 1.22441,-19.4615 L 3.65393,-19.1546 L 6.02582,-18.5456 L 8.30269,-17.6441 L 10.4486,-16.4644
 L 12.4298,-15.025 L 14.2149,-13.3487 L 15.7758,-11.4618 L 17.088,-9.3942 L 18.1306,-7.17842 L 18.8874,-4.84944
 L 19.3462,-2.44398 L 19.5,-0 L 19.3462,2.44398 L 18.8874,4.84944 L 18.1306,7.17842 L 17.088,9.3942
 L 15.7758,11.4618 L 14.2149,13.3487 L 12.4298,15.025 L 10.4486,16.4644 L 8.30269,17.6441 L 6.02582,18.5456
 L 3.65393,19.1546 L 1.22441,19.4615 z
M -45.2244,19.4615 L -47.6539,19.1546 L -50.0258,18.5456 L -52.3027,17.6441 L -54.4486,16.4644 L -56.4298,15.025
 L -58.2149,13.3487 L -59.7758,11.4618 L -61.088,9.3942 L -62.1306,7.17842 L -62.8874,4.84944 L -63.3462,2.44398
 L -63.5,-0 L -63.3462,-2.44398 L -62.8874,-4.84944 L -62.1306,-7.17842 L -61.088,-9.3942 L -59.7758,-11.4618
 L -58.2149,-13.3487 L -56.4298,-15.025 L -54.4486,-16.4644 L -52.3027,-17.6441 L -50.0258,-18.5456 L -47.6539,-19.1546
 L -45.2244,-19.4615 L -42.7756,-19.4615 L -40.3461,-19.1546 L -37.9742,-18.5456 L -35.6973,-17.6441 L -33.5514,-16.4644
 L -31.5702,-15.025 L -29.7851,-13.3487 L -28.2242,-11.4618 L -26.912,-9.3942 L -25.8694,-7.17842 L -25.1126,-4.84944
 L -24.6538,-2.44398 L -24.5,-0 L -24.6538,2.44398 L -25.1126,4.84944 L -25.8694,7.17842 L -26.912,9.3942
 L -28.2242,11.4618 L -29.7851,13.3487 L -31.5702,15.025 L -33.5514,16.4644 L -35.6973,17.6441 L -37.9742,18.5456
 L -40.3461,19.1546 L -42.7756,19.4615 z
M 104.812,25.4941 L 104.438,25.4469 L 104.073,25.3532 L 103.723,25.2145 L 103.393,25.033 L 103.088,24.8115
 L 102.813,24.5536 L 102.573,24.2634 L 102.371,23.9453 L 102.211,23.6044 L 102.094,23.2461 L 102.024,22.876
 L 102,22.5 L 102.024,22.124 L 102.094,21.7539 L 102.211,21.3956 L 102.371,21.0547 L 102.573,20.7366
 L 102.813,20.4464 L 103.088,20.1884 L 103.393,19.967 L 103.723,19.7855 L 104.073,19.6468 L 104.438,19.5531
 L 104.812,19.5059 L 105.188,19.5059 L 105.562,19.5531 L 105.927,19.6468 L 106.277,19.7855 L 106.607,19.967
 L 106.912,20.1884 L 107.187,20.4464 L 107.427,20.7366 L 107.629,21.0547 L 107.789,21.3956 L 107.906,21.7539
 L 107.976,22.124 L 108,22.5 L 107.976,22.876 L 107.906,23.2461 L 107.789,23.6044 L 107.629,23.9453
 L 107.427,24.2634 L 107.187,24.5536 L 106.912,24.8115 L 106.607,25.033 L 106.277,25.2145 L 105.927,25.3532
 L 105.562,25.4469 L 105.188,25.4941 z
M -105.188,25.4941 L -105.562,25.4469 L -105.927,25.3532 L -106.277,25.2145 L -106.607,25.033 L -106.912,24.8115
 L -107.187,24.5536 L -107.427,24.2634 L -107.629,23.9453 L -107.789,23.6044 L -107.906,23.2461 L -107.976,22.876
 L -108,22.5 L -107.976,22.124 L -107.906,21.7539 L -107.789,21.3956 L -107.629,21.0547 L -107.427,20.7366
 L -107.187,20.4464 L -106.912,20.1884 L -106.607,19.967 L -106.277,19.7855 L -105.927,19.6468 L -105.562,19.5531
 L -105.188,19.5059 L -104.812,19.5059 L -104.438,19.5531 L -104.073,19.6468 L -103.723,19.7855 L -103.393,19.967
 L -103.088,20.1884 L -102.813,20.4464 L -102.573,20.7366 L -102.371,21.0547 L -102.211,21.3956 L -102.094,21.7539
 L -102.024,22.124 L -102,22.5 L -102.024,22.876 L -102.094,23.2461 L -102.211,23.6044 L -102.371,23.9453
 L -102.573,24.2634 L -102.813,24.5536 L -103.088,24.8115 L -103.393,25.033 L -103.723,25.2145 L -104.073,25.3532
 L -104.438,25.4469 L -104.812,25.4941 z
" stroke="black" fill="lightgray" stroke-width="0.5"/>
</svg>
