  0
SECTION
  2
BLOCKS
  0
ENDSEC
  0
SECTION
  2
ENTITIES
  0
LINE
  8
0
 10
70.4369
 20
24.5886
 11
71.0451
 21
24.7447
  0
LINE
  8
0
 10
71.0451
 20
24.7447
 11
71.6289
 21
24.9759
  0
LINE
  8
0
 10
71.6289
 20
24.9759
 11
72.1791
 21
25.2784
  0
LINE
  8
0
 10
72.1791
 20
25.2784
 11
72.6871
 21
25.6474
  0
LINE
  8
0
 10
72.6871
 20
25.6474
 11
73.1448
 21
26.0773
  0
LINE
  8
0
 10
73.1448
 20
26.0773
 11
73.5451
 21
26.5611
  0
LINE
  8
0
 10
73.5451
 20
26.5611
 11
73.8815
 21
27.0912
  0
LINE
  8
0
 10
73.8815
 20
27.0912
 11
74.1489
 21
27.6594
  0
LINE
  8
0
 10
74.1489
 20
27.6594
 11
74.3429
 21
28.2566
  0
LINE
  8
0
 10
74.3429
 20
28.2566
 11
74.4606
 21
28.8733
  0
LINE
  8
0
 10
74.4606
 20
28.8733
 11
74.5
 21
29.5
  0
LINE
  8
0
 10
74.5
 20
29.5
 11
74.5
 21
48.5
  0
LINE
  8
0
 10
74.5
 20
48.5
 11
74.4606
 21
49.1267
  0
LINE
  8
0
 10
74.4606
 20
49.1267
 11
74.3429
 21
49.7434
  0
LINE
  8
0
 10
74.3429
 20
49.7434
 11
74.1489
 21
50.3406
  0
LINE
  8
0
 10
74.1489
 20
50.3406
 11
73.8815
 21
50.9088
  0
LINE
  8
0
 10
73.8815
 20
50.9088
 11
73.5451
 21
51.4389
  0
LINE
  8
0
 10
73.5451
 20
51.4389
 11
73.1448
 21
51.9227
  0
LINE
  8
0
 10
73.1448
 20
51.9227
 11
72.6871
 21
52.3526
  0
LINE
  8
0
 10
72.6871
 20
52.3526
 11
72.1791
 21
52.7216
  0
LINE
  8
0
 10
72.1791
 20
52.7216
 11
71.6289
 21
53.0241
  0
LINE
  8
0
 10
71.6289
 20
53.0241
 11
71.0451
 21
53.2553
  0
LINE
  8
0
 10
71.0451
 20
53.2553
 11
70.4369
 21
53.4114
  0
LINE
  8
0
 10
70.4369
 20
53.4114
 11
69.8139
 21
53.4901
  0
LINE
  8
0
 10
69.8139
 20
53.4901
 11
-69.8139
 21
53.4901
  0
LINE
  8
0
 10
-69.8139
 20
53.4901
 11
-70.4369
 21
53.4114
  0
LINE
  8
0
 10
-70.4369
 20
53.4114
 11
-71.0451
 21
53.2553
  0
LINE
  8
0
 10
-71.0451
 20
53.2553
 11
-71.6289
 21
53.0241
  0
LINE
  8
0
 10
-71.6289
 20
53.0241
 11
-72.1791
 21
52.7216
  0
LINE
  8
0
 10
-72.1791
 20
52.7216
 11
-72.6871
 21
52.3526
  0
LINE
  8
0
 10
-72.6871
 20
52.3526
 11
-73.1448
 21
51.9227
  0
LINE
  8
0
 10
-73.1448
 20
51.9227
 11
-73.5451
 21
51.4389
  0
LINE
  8
0
 10
-73.5451
 20
51.4389
 11
-73.8815
 21
50.9088
  0
LINE
  8
0
 10
-73.8815
 20
50.9088
 11
-74.1489
 21
50.3406
  0
LINE
  8
0
 10
-74.1489
 20
50.3406
 11
-74.3429
 21
49.7434
  0
LINE
  8
0
 10
-74.3429
 20
49.7434
 11
-74.4606
 21
49.1267
  0
LINE
  8
0
 10
-74.4606
 20
49.1267
 11
-74.5
 21
48.5
  0
LINE
  8
0
 10
-74.5
 20
48.5
 11
-74.5
 21
29.5
  0
LINE
  8
0
 10
-74.5
 20
29.5
 11
-74.4606
 21
28.8733
  0
LINE
  8
0
 10
-74.4606
 20
28.8733
 11
-74.3429
 21
28.2566
  0
LINE
  8
0
 10
-74.3429
 20
28.2566
 11
-74.1489
 21
27.6594
  0
LINE
  8
0
 10
-74.1489
 20
27.6594
 11
-73.8815
 21
27.0912
  0
LINE
  8
0
 10
-73.8815
 20
27.0912
 11
-73.5451
 21
26.5611
  0
LINE
  8
0
 10
-73.5451
 20
26.5611
 11
-73.1448
 21
26.0773
  0
LINE
  8
0
 10
-73.1448
 20
26.0773
 11
-72.6871
 21
25.6474
  0
LINE
  8
0
 10
-72.6871
 20
25.6474
 11
-72.1791
 21
25.2784
  0
LINE
  8
0
 10
-72.1791
 20
25.2784
 11
-71.6289
 21
24.9759
  0
LINE
  8
0
 10
-71.6289
 20
24.9759
 11
-71.0451
 21
24.7447
  0
LINE
  8
0
 10
-71.0451
 20
24.7447
 11
-70.4369
 21
24.5886
  0
LINE
  8
0
 10
-70.4369
 20
24.5886
 11
-69.8139
 21
24.5099
  0
LINE
  8
0
 10
-69.8139
 20
24.5099
 11
69.8139
 21
24.5099
  0
LINE
  8
0
 10
69.8139
 20
24.5099
 11
70.4369
 21
24.5886
  0
LINE
  8
0
 10
-67.6884
 20
43.5059
 11
-68.0621
 21
43.5531
  0
LINE
  8
0
 10
-68.0621
 20
43.5531
 11
-68.427
 21
43.6468
  0
LINE
  8
0
 10
-68.427
 20
43.6468
 11
-68.7773
 21
43.7855
  0
LINE
  8
0
 10
-68.7773
 20
43.7855
 11
-69.1075
 21
43.967
  0
LINE
  8
0
 10
-69.1075
 20
43.967
 11
-69.4123
 21
44.1884
  0
LINE
  8
0
 10
-69.4123
 20
44.1884
 11
-69.6869
 21
44.4464
  0
LINE
  8
0
 10
-69.6869
 20
44.4464
 11
-69.927
 21
44.7366
  0
LINE
  8
0
 10
-69.927
 20
44.7366
 11
-70.1289
 21
45.0547
  0
LINE
  8
0
 10
-70.1289
 20
45.0547
 11
-70.2893
 21
45.3956
  0
LINE
  8
0
 10
-70.2893
 20
45.3956
 11
-70.4057
 21
45.7539
  0
LINE
  8
0
 10
-70.4057
 20
45.7539
 11
-70.4763
 21
46.124
  0
LINE
  8
0
 10
-70.4763
 20
46.124
 11
-70.5
 21
46.5
  0
LINE
  8
0
 10
-70.5
 20
46.5
 11
-70.4763
 21
46.876
  0
LINE
  8
0
 10
-70.4763
 20
46.876
 11
-70.4057
 21
47.2461
  0
LINE
  8
0
 10
-70.4057
 20
47.2461
 11
-70.2893
 21
47.6044
  0
LINE
  8
0
 10
-70.2893
 20
47.6044
 11
-70.1289
 21
47.9453
  0
LINE
  8
0
 10
-70.1289
 20
47.9453
 11
-69.927
 21
48.2634
  0
LINE
  8
0
 10
-69.927
 20
48.2634
 11
-69.6869
 21
48.5536
  0
LINE
  8
0
 10
-69.6869
 20
48.5536
 11
-69.4123
 21
48.8115
  0
LINE
  8
0
 10
-69.4123
 20
48.8115
 11
-69.1075
 21
49.033
  0
LINE
  8
0
 10
-69.1075
 20
49.033
 11
-68.7773
 21
49.2145
  0
LINE
  8
0
 10
-68.7773
 20
49.2145
 11
-68.427
 21
49.3532
  0
LINE
  8
0
 10
-68.427
 20
49.3532
 11
-68.0621
 21
49.4469
  0
LINE
  8
0
 10
-68.0621
 20
49.4469
 11
-67.6884
 21
49.4941
  0
LINE
  8
0
 10
-67.6884
 20
49.4941
 11
-67.3116
 21
49.4941
  0
LINE
  8
0
 10
-67.3116
 20
49.4941
 11
-66.9379
 21
49.4469
  0
LINE
  8
0
 10
-66.9379
 20
49.4469
 11
-66.573
 21
49.3532
  0
LINE
  8
0
 10
-66.573
 20
49.3532
 11
-66.2227
 21
49.2145
  0
LINE
  8
0
 10
-66.2227
 20
49.2145
 11
-65.8925
 21
49.033
  0
LINE
  8
0
 10
-65.8925
 20
49.033
 11
-65.5877
 21
48.8115
  0
LINE
  8
0
 10
-65.5877
 20
48.8115
 11
-65.3131
 21
48.5536
  0
LINE
  8
0
 10
-65.3131
 20
48.5536
 11
-65.073
 21
48.2634
  0
LINE
  8
0
 10
-65.073
 20
48.2634
 11
-64.8711
 21
47.9453
  0
LINE
  8
0
 10
-64.8711
 20
47.9453
 11
-64.7107
 21
47.6044
  0
LINE
  8
0
 10
-64.7107
 20
47.6044
 11
-64.5943
 21
47.2461
  0
LINE
  8
0
 10
-64.5943
 20
47.2461
 11
-64.5237
 21
46.876
  0
LINE
  8
0
 10
-64.5237
 20
46.876
 11
-64.5
 21
46.5
  0
LINE
  8
0
 10
-64.5
 20
46.5
 11
-64.5237
 21
46.124
  0
LINE
  8
0
 10
-64.5237
 20
46.124
 11
-64.5943
 21
45.7539
  0
LINE
  8
0
 10
-64.5943
 20
45.7539
 11
-64.7107
 21
45.3956
  0
LINE
  8
0
 10
-64.7107
 20
45.3956
 11
-64.8711
 21
45.0547
  0
LINE
  8
0
 10
-64.8711
 20
45.0547
 11
-65.073
 21
44.7366
  0
LINE
  8
0
 10
-65.073
 20
44.7366
 11
-65.3131
 21
44.4464
  0
LINE
  8
0
 10
-65.3131
 20
44.4464
 11
-65.5877
 21
44.1884
  0
LINE
  8
0
 10
-65.5877
 20
44.1884
 11
-65.8925
 21
43.967
  0
LINE
  8
0
 10
-65.8925
 20
43.967
 11
-66.2227
 21
43.7855
  0
LINE
  8
0
 10
-66.2227
 20
43.7855
 11
-66.573
 21
43.6468
  0
LINE
  8
0
 10
-66.573
 20
43.6468
 11
-66.9379
 21
43.5531
  0
LINE
  8
0
 10
-66.9379
 20
43.5531
 11
-67.3116
 21
43.5059
  0
LINE
  8
0
 10
-67.3116
 20
43.5059
 11
-67.6884
 21
43.5059
  0
LINE
  8
0
 10
67.3116
 20
43.5059
 11
66.9379
 21
43.5531
  0
LINE
  8
0
 10
66.9379
 20
43.5531
 11
66.573
 21
43.6468
  0
LINE
  8
0
 10
66.573
 20
43.6468
 11
66.2227
 21
43.7855
  0
LINE
  8
0
 10
66.2227
 20
43.7855
 11
65.8925
 21
43.967
  0
LINE
  8
0
 10
65.8925
 20
43.967
 11
65.5877
 21
44.1884
  0
LINE
  8
0
 10
65.5877
 20
44.1884
 11
65.3131
 21
44.4464
  0
LINE
  8
0
 10
65.3131
 20
44.4464
 11
65.073
 21
44.7366
  0
LINE
  8
0
 10
65.073
 20
44.7366
 11
64.8711
 21
45.0547
  0
LINE
  8
0
 10
64.8711
 20
45.0547
 11
64.7107
 21
45.3956
  0
LINE
  8
0
 10
64.7107
 20
45.3956
 11
64.5943
 21
45.7539
  0
LINE
  8
0
 10
64.5943
 20
45.7539
 11
64.5237
 21
46.124
  0
LINE
  8
0
 10
64.5237
 20
46.124
 11
64.5
 21
46.5
  0
LINE
  8
0
 10
64.5
 20
46.5
 11
64.5237
 21
46.876
  0
LINE
  8
0
 10
64.5237
 20
46.876
 11
64.5943
 21
47.2461
  0
LINE
  8
0
 10
64.5943
 20
47.2461
 11
64.7107
 21
47.6044
  0
LINE
  8
0
 10
64.7107
 20
47.6044
 11
64.8711
 21
47.9453
  0
LINE
  8
0
 10
64.8711
 20
47.9453
 11
65.073
 21
48.2634
  0
LINE
  8
0
 10
65.073
 20
48.2634
 11
65.3131
 21
48.5536
  0
LINE
  8
0
 10
65.3131
 20
48.5536
 11
65.5877
 21
48.8115
  0
LINE
  8
0
 10
65.5877
 20
48.8115
 11
65.8925
 21
49.033
  0
LINE
  8
0
 10
65.8925
 20
49.033
 11
66.2227
 21
49.2145
  0
LINE
  8
0
 10
66.2227
 20
49.2145
 11
66.573
 21
49.3532
  0
LINE
  8
0
 10
66.573
 20
49.3532
 11
66.9379
 21
49.4469
  0
LINE
  8
0
 10
66.9379
 20
49.4469
 11
67.3116
 21
49.4941
  0
LINE
  8
0
 10
67.3116
 20
49.4941
 11
67.6884
 21
49.4941
  0
LINE
  8
0
 10
67.6884
 20
49.4941
 11
68.0621
 21
49.4469
  0
LINE
  8
0
 10
68.0621
 20
49.4469
 11
68.427
 21
49.3532
  0
LINE
  8
0
 10
68.427
 20
49.3532
 11
68.7773
 21
49.2145
  0
LINE
  8
0
 10
68.7773
 20
49.2145
 11
69.1075
 21
49.033
  0
LINE
  8
0
 10
69.1075
 20
49.033
 11
69.4123
 21
48.8115
  0
LINE
  8
0
 10
69.4123
 20
48.8115
 11
69.6869
 21
48.5536
  0
LINE
  8
0
 10
69.6869
 20
48.5536
 11
69.927
 21
48.2634
  0
LINE
  8
0
 10
69.927
 20
48.2634
 11
70.1289
 21
47.9453
  0
LINE
  8
0
 10
70.1289
 20
47.9453
 11
70.2893
 21
47.6044
  0
LINE
  8
0
 10
70.2893
 20
47.6044
 11
70.4057
 21
47.2461
  0
LINE
  8
0
 10
70.4057
 20
47.2461
 11
70.4763
 21
46.876
  0
LINE
  8
0
 10
70.4763
 20
46.876
 11
70.5
 21
46.5
  0
LINE
  8
0
 10
70.5
 20
46.5
 11
70.4763
 21
46.124
  0
LINE
  8
0
 10
70.4763
 20
46.124
 11
70.4057
 21
45.7539
  0
LINE
  8
0
 10
70.4057
 20
45.7539
 11
70.2893
 21
45.3956
  0
LINE
  8
0
 10
70.2893
 20
45.3956
 11
70.1289
 21
45.0547
  0
LINE
  8
0
 10
70.1289
 20
45.0547
 11
69.927
 21
44.7366
  0
LINE
  8
0
 10
69.927
 20
44.7366
 11
69.6869
 21
44.4464
  0
LINE
  8
0
 10
69.6869
 20
44.4464
 11
69.4123
 21
44.1884
  0
LINE
  8
0
 10
69.4123
 20
44.1884
 11
69.1075
 21
43.967
  0
LINE
  8
0
 10
69.1075
 20
43.967
 11
68.7773
 21
43.7855
  0
LINE
  8
0
 10
68.7773
 20
43.7855
 11
68.427
 21
43.6468
  0
LINE
  8
0
 10
68.427
 20
43.6468
 11
68.0621
 21
43.5531
  0
LINE
  8
0
 10
68.0621
 20
43.5531
 11
67.6884
 21
43.5059
  0
LINE
  8
0
 10
67.6884
 20
43.5059
 11
67.3116
 21
43.5059
  0
LINE
  8
0
 10
47.4035
 20
29.5188
 11
46.2199
 21
29.6683
  0
LINE
  8
0
 10
46.2199
 20
29.6683
 11
45.0643
 21
29.965
  0
LINE
  8
0
 10
45.0643
 20
29.965
 11
43.9551
 21
30.4041
  0
LINE
  8
0
 10
43.9551
 20
30.4041
 11
42.9096
 21
30.9789
  0
LINE
  8
0
 10
42.9096
 20
30.9789
 11
41.9445
 21
31.6801
  0
LINE
  8
0
 10
41.9445
 20
31.6801
 11
41.0748
 21
32.4968
  0
LINE
  8
0
 10
41.0748
 20
32.4968
 11
40.3143
 21
33.416
  0
LINE
  8
0
 10
40.3143
 20
33.416
 11
39.6751
 21
34.4234
  0
LINE
  8
0
 10
39.6751
 20
34.4234
 11
39.1671
 21
35.5028
  0
LINE
  8
0
 10
39.1671
 20
35.5028
 11
38.7984
 21
36.6375
  0
LINE
  8
0
 10
38.7984
 20
36.6375
 11
38.5749
 21
37.8093
  0
LINE
  8
0
 10
38.5749
 20
37.8093
 11
38.5
 21
39
  0
LINE
  8
0
 10
38.5
 20
39
 11
38.5749
 21
40.1907
  0
LINE
  8
0
 10
38.5749
 20
40.1907
 11
38.7984
 21
41.3625
  0
LINE
  8
0
 10
38.7984
 20
41.3625
 11
39.1671
 21
42.4972
  0
LINE
  8
0
 10
39.1671
 20
42.4972
 11
39.6751
 21
43.5766
  0
LINE
  8
0
 10
39.6751
 20
43.5766
 11
40.3143
 21
44.584
  0
LINE
  8
0
 10
40.3143
 20
44.584
 11
41.0748
 21
45.5032
  0
LINE
  8
0
 10
41.0748
 20
45.5032
 11
41.9445
 21
46.3199
  0
LINE
  8
0
 10
41.9445
 20
46.3199
 11
42.9096
 21
47.0211
  0
LINE
  8
0
 10
42.9096
 20
47.0211
 11
43.9551
 21
47.5959
  0
LINE
  8
0
 10
43.9551
 20
47.5959
 11
45.0643
 21
48.035
  0
LINE
  8
0
 10
45.0643
 20
48.035
 11
46.2199
 21
48.3317
  0
LINE
  8
0
 10
46.2199
 20
48.3317
 11
47.4035
 21
48.4812
  0
LINE
  8
0
 10
47.4035
 20
48.4812
 11
48.5965
 21
48.4812
  0
LINE
  8
0
 10
48.5965
 20
48.4812
 11
49.7801
 21
48.3317
  0
LINE
  8
0
 10
49.7801
 20
48.3317
 11
50.9357
 21
48.035
  0
LINE
  8
0
 10
50.9357
 20
48.035
 11
52.0449
 21
47.5959
  0
LINE
  8
0
 10
52.0449
 20
47.5959
 11
53.0903
 21
47.0211
  0
LINE
  8
0
 10
53.0903
 20
47.0211
 11
54.0555
 21
46.3199
  0
LINE
  8
0
 10
54.0555
 20
46.3199
 11
54.9252
 21
45.5032
  0
LINE
  8
0
 10
54.9252
 20
45.5032
 11
55.6857
 21
44.584
  0
LINE
  8
0
 10
55.6857
 20
44.584
 11
56.3249
 21
43.5766
  0
LINE
  8
0
 10
56.3249
 20
43.5766
 11
56.8329
 21
42.4972
  0
LINE
  8
0
 10
56.8329
 20
42.4972
 11
57.2015
 21
41.3625
  0
LINE
  8
0
 10
57.2015
 20
41.3625
 11
57.4251
 21
40.1907
  0
LINE
  8
0
 10
57.4251
 20
40.1907
 11
57.5
 21
39
  0
LINE
  8
0
 10
57.5
 20
39
 11
57.4251
 21
37.8093
  0
LINE
  8
0
 10
57.4251
 20
37.8093
 11
57.2015
 21
36.6375
  0
LINE
  8
0
 10
57.2015
 20
36.6375
 11
56.8329
 21
35.5028
  0
LINE
  8
0
 10
56.8329
 20
35.5028
 11
56.3249
 21
34.4234
  0
LINE
  8
0
 10
56.3249
 20
34.4234
 11
55.6857
 21
33.416
  0
LINE
  8
0
 10
55.6857
 20
33.416
 11
54.9252
 21
32.4968
  0
LINE
  8
0
 10
54.9252
 20
32.4968
 11
54.0555
 21
31.6801
  0
LINE
  8
0
 10
54.0555
 20
31.6801
 11
53.0903
 21
30.9789
  0
LINE
  8
0
 10
53.0903
 20
30.9789
 11
52.0449
 21
30.4041
  0
LINE
  8
0
 10
52.0449
 20
30.4041
 11
50.9357
 21
29.965
  0
LINE
  8
0
 10
50.9357
 20
29.965
 11
49.7801
 21
29.6683
  0
LINE
  8
0
 10
49.7801
 20
29.6683
 11
48.5965
 21
29.5188
  0
LINE
  8
0
 10
48.5965
 20
29.5188
 11
47.4035
 21
29.5188
  0
LINE
  8
0
 10
-0.596497
 20
29.5188
 11
-1.78012
 21
29.6683
  0
LINE
  8
0
 10
-1.78012
 20
29.6683
 11
-2.93565
 21
29.965
  0
LINE
  8
0
 10
-2.93565
 20
29.965
 11
-4.04489
 21
30.4041
  0
LINE
  8
0
 10
-4.04489
 20
30.4041
 11
-5.09035
 21
30.9789
  0
LINE
  8
0
 10
-5.09035
 20
30.9789
 11
-6.05553
 21
31.6801
  0
LINE
  8
0
 10
-6.05553
 20
31.6801
 11
-6.9252
 21
32.4968
  0
LINE
  8
0
 10
-6.9252
 20
32.4968
 11
-7.68565
 21
33.416
  0
LINE
  8
0
 10
-7.68565
 20
33.416
 11
-8.32491
 21
34.4234
  0
LINE
  8
0
 10
-8.32491
 20
34.4234
 11
-8.83287
 21
35.5028
  0
LINE
  8
0
 10
-8.83287
 20
35.5028
 11
-9.20154
 21
36.6375
  0
LINE
  8
0
 10
-9.20154
 20
36.6375
 11
-9.42508
 21
37.8093
  0
LINE
  8
0
 10
-9.42508
 20
37.8093
 11
-9.5
 21
39
  0
LINE
  8
0
 10
-9.5
 20
39
 11
-9.42508
 21
40.1907
  0
LINE
  8
0
 10
-9.42508
 20
40.1907
 11
-9.20154
 21
41.3625
  0
LINE
  8
0
 10
-9.20154
 20
41.3625
 11
-8.83287
 21
42.4972
  0
LINE
  8
0
 10
-8.83287
 20
42.4972
 11
-8.32491
 21
43.5766
  0
LINE
  8
0
 10
-8.32491
 20
43.5766
 11
-7.68565
 21
44.584
  0
LINE
  8
0
 10
-7.68565
 20
44.584
 11
-6.9252
 21
45.5032
  0
LINE
  8
0
 10
-6.9252
 20
45.5032
 11
-6.05553
 21
46.3199
  0
LINE
  8
0
 10
-6.05553
 20
46.3199
 11
-5.09035
 21
47.0211
  0
LINE
  8
0
 10
-5.09035
 20
47.0211
 11
-4.04489
 21
47.5959
  0
LINE
  8
0
 10
-4.04489
 20
47.5959
 11
-2.93565
 21
48.035
  0
LINE
  8
0
 10
-2.93565
 20
48.035
 11
-1.78012
 21
48.3317
  0
LINE
  8
0
 10
-1.78012
 20
48.3317
 11
-0.596497
 21
48.4812
  0
LINE
  8
0
 10
-0.596497
 20
48.4812
 11
0.596497
 21
48.4812
  0
LINE
  8
0
 10
0.596497
 20
48.4812
 11
1.78012
 21
48.3317
  0
LINE
  8
0
 10
1.78012
 20
48.3317
 11
2.93565
 21
48.035
  0
LINE
  8
0
 10
2.93565
 20
48.035
 11
4.04489
 21
47.5959
  0
LINE
  8
0
 10
4.04489
 20
47.5959
 11
5.09035
 21
47.0211
  0
LINE
  8
0
 10
5.09035
 20
47.0211
 11
6.05553
 21
46.3199
  0
LINE
  8
0
 10
6.05553
 20
46.3199
 11
6.9252
 21
45.5032
  0
LINE
  8
0
 10
6.9252
 20
45.5032
 11
7.68565
 21
44.584
  0
LINE
  8
0
 10
7.68565
 20
44.584
 11
8.32491
 21
43.5766
  0
LINE
  8
0
 10
8.32491
 20
43.5766
 11
8.83287
 21
42.4972
  0
LINE
  8
0
 10
8.83287
 20
42.4972
 11
9.20154
 21
41.3625
  0
LINE
  8
0
 10
9.20154
 20
41.3625
 11
9.42508
 21
40.1907
  0
LINE
  8
0
 10
9.42508
 20
40.1907
 11
9.5
 21
39
  0
LINE
  8
0
 10
9.5
 20
39
 11
9.42508
 21
37.8093
  0
LINE
  8
0
 10
9.42508
 20
37.8093
 11
9.20154
 21
36.6375
  0
LINE
  8
0
 10
9.20154
 20
36.6375
 11
8.83287
 21
35.5028
  0
LINE
  8
0
 10
8.83287
 20
35.5028
 11
8.32491
 21
34.4234
  0
LINE
  8
0
 10
8.32491
 20
34.4234
 11
7.68565
 21
33.416
  0
LINE
  8
0
 10
7.68565
 20
33.416
 11
6.9252
 21
32.4968
  0
LINE
  8
0
 10
6.9252
 20
32.4968
 11
6.05553
 21
31.6801
  0
LINE
  8
0
 10
6.05553
 20
31.6801
 11
5.09035
 21
30.9789
  0
LINE
  8
0
 10
5.09035
 20
30.9789
 11
4.04489
 21
30.4041
  0
LINE
  8
0
 10
4.04489
 20
30.4041
 11
2.93565
 21
29.965
  0
LINE
  8
0
 10
2.93565
 20
29.965
 11
1.78012
 21
29.6683
  0
LINE
  8
0
 10
1.78012
 20
29.6683
 11
0.596497
 21
29.5188
  0
LINE
  8
0
 10
0.596497
 20
29.5188
 11
-0.596497
 21
29.5188
  0
LINE
  8
0
 10
23.4035
 20
29.5188
 11
22.2199
 21
29.6683
  0
LINE
  8
0
 10
22.2199
 20
29.6683
 11
21.0643
 21
29.965
  0
LINE
  8
0
 10
21.0643
 20
29.965
 11
19.9551
 21
30.4041
  0
LINE
  8
0
 10
19.9551
 20
30.4041
 11
18.9096
 21
30.9789
  0
LINE
  8
0
 10
18.9096
 20
30.9789
 11
17.9445
 21
31.6801
  0
LINE
  8
0
 10
17.9445
 20
31.6801
 11
17.0748
 21
32.4968
  0
LINE
  8
0
 10
17.0748
 20
32.4968
 11
16.3143
 21
33.416
  0
LINE
  8
0
 10
16.3143
 20
33.416
 11
15.6751
 21
34.4234
  0
LINE
  8
0
 10
15.6751
 20
34.4234
 11
15.1671
 21
35.5028
  0
LINE
  8
0
 10
15.1671
 20
35.5028
 11
14.7984
 21
36.6375
  0
LINE
  8
0
 10
14.7984
 20
36.6375
 11
14.5749
 21
37.8093
  0
LINE
  8
0
 10
14.5749
 20
37.8093
 11
14.5
 21
39
  0
LINE
  8
0
 10
14.5
 20
39
 11
14.5749
 21
40.1907
  0
LINE
  8
0
 10
14.5749
 20
40.1907
 11
14.7984
 21
41.3625
  0
LINE
  8
0
 10
14.7984
 20
41.3625
 11
15.1671
 21
42.4972
  0
LINE
  8
0
 10
15.1671
 20
42.4972
 11
15.6751
 21
43.5766
  0
LINE
  8
0
 10
15.6751
 20
43.5766
 11
16.3143
 21
44.584
  0
LINE
  8
0
 10
16.3143
 20
44.584
 11
17.0748
 21
45.5032
  0
LINE
  8
0
 10
17.0748
 20
45.5032
 11
17.9445
 21
46.3199
  0
LINE
  8
0
 10
17.9445
 20
46.3199
 11
18.9096
 21
47.0211
  0
LINE
  8
0
 10
18.9096
 20
47.0211
 11
19.9551
 21
47.5959
  0
LINE
  8
0
 10
19.9551
 20
47.5959
 11
21.0643
 21
48.035
  0
LINE
  8
0
 10
21.0643
 20
48.035
 11
22.2199
 21
48.3317
  0
LINE
  8
0
 10
22.2199
 20
48.3317
 11
23.4035
 21
48.4812
  0
LINE
  8
0
 10
23.4035
 20
48.4812
 11
24.5965
 21
48.4812
  0
LINE
  8
0
 10
24.5965
 20
48.4812
 11
25.7801
 21
48.3317
  0
LINE
  8
0
 10
25.7801
 20
48.3317
 11
26.9357
 21
48.035
  0
LINE
  8
0
 10
26.9357
 20
48.035
 11
28.0449
 21
47.5959
  0
LINE
  8
0
 10
28.0449
 20
47.5959
 11
29.0903
 21
47.0211
  0
LINE
  8
0
 10
29.0903
 20
47.0211
 11
30.0555
 21
46.3199
  0
LINE
  8
0
 10
30.0555
 20
46.3199
 11
30.9252
 21
45.5032
  0
LINE
  8
0
 10
30.9252
 20
45.5032
 11
31.6857
 21
44.584
  0
LINE
  8
0
 10
31.6857
 20
44.584
 11
32.3249
 21
43.5766
  0
LINE
  8
0
 10
32.3249
 20
43.5766
 11
32.8329
 21
42.4972
  0
LINE
  8
0
 10
32.8329
 20
42.4972
 11
33.2015
 21
41.3625
  0
LINE
  8
0
 10
33.2015
 20
41.3625
 11
33.4251
 21
40.1907
  0
LINE
  8
0
 10
33.4251
 20
40.1907
 11
33.5
 21
39
  0
LINE
  8
0
 10
33.5
 20
39
 11
33.4251
 21
37.8093
  0
LINE
  8
0
 10
33.4251
 20
37.8093
 11
33.2015
 21
36.6375
  0
LINE
  8
0
 10
33.2015
 20
36.6375
 11
32.8329
 21
35.5028
  0
LINE
  8
0
 10
32.8329
 20
35.5028
 11
32.3249
 21
34.4234
  0
LINE
  8
0
 10
32.3249
 20
34.4234
 11
31.6857
 21
33.416
  0
LINE
  8
0
 10
31.6857
 20
33.416
 11
30.9252
 21
32.4968
  0
LINE
  8
0
 10
30.9252
 20
32.4968
 11
30.0555
 21
31.6801
  0
LINE
  8
0
 10
30.0555
 20
31.6801
 11
29.0903
 21
30.9789
  0
LINE
  8
0
 10
29.0903
 20
30.9789
 11
28.0449
 21
30.4041
  0
LINE
  8
0
 10
28.0449
 20
30.4041
 11
26.9357
 21
29.965
  0
LINE
  8
0
 10
26.9357
 20
29.965
 11
25.7801
 21
29.6683
  0
LINE
  8
0
 10
25.7801
 20
29.6683
 11
24.5965
 21
29.5188
  0
LINE
  8
0
 10
24.5965
 20
29.5188
 11
23.4035
 21
29.5188
  0
LINE
  8
0
 10
-24.5965
 20
29.5188
 11
-25.7801
 21
29.6683
  0
LINE
  8
0
 10
-25.7801
 20
29.6683
 11
-26.9357
 21
29.965
  0
LINE
  8
0
 10
-26.9357
 20
29.965
 11
-28.0449
 21
30.4041
  0
LINE
  8
0
 10
-28.0449
 20
30.4041
 11
-29.0903
 21
30.9789
  0
LINE
  8
0
 10
-29.0903
 20
30.9789
 11
-30.0555
 21
31.6801
  0
LINE
  8
0
 10
-30.0555
 20
31.6801
 11
-30.9252
 21
32.4968
  0
LINE
  8
0
 10
-30.9252
 20
32.4968
 11
-31.6857
 21
33.416
  0
LINE
  8
0
 10
-31.6857
 20
33.416
 11
-32.3249
 21
34.4234
  0
LINE
  8
0
 10
-32.3249
 20
34.4234
 11
-32.8329
 21
35.5028
  0
LINE
  8
0
 10
-32.8329
 20
35.5028
 11
-33.2015
 21
36.6375
  0
LINE
  8
0
 10
-33.2015
 20
36.6375
 11
-33.4251
 21
37.8093
  0
LINE
  8
0
 10
-33.4251
 20
37.8093
 11
-33.5
 21
39
  0
LINE
  8
0
 10
-33.5
 20
39
 11
-33.4251
 21
40.1907
  0
LINE
  8
0
 10
-33.4251
 20
40.1907
 11
-33.2015
 21
41.3625
  0
LINE
  8
0
 10
-33.2015
 20
41.3625
 11
-32.8329
 21
42.4972
  0
LINE
  8
0
 10
-32.8329
 20
42.4972
 11
-32.3249
 21
43.5766
  0
LINE
  8
0
 10
-32.3249
 20
43.5766
 11
-31.6857
 21
44.584
  0
LINE
  8
0
 10
-31.6857
 20
44.584
 11
-30.9252
 21
45.5032
  0
LINE
  8
0
 10
-30.9252
 20
45.5032
 11
-30.0555
 21
46.3199
  0
LINE
  8
0
 10
-30.0555
 20
46.3199
 11
-29.0903
 21
47.0211
  0
LINE
  8
0
 10
-29.0903
 20
47.0211
 11
-28.0449
 21
47.5959
  0
LINE
  8
0
 10
-28.0449
 20
47.5959
 11
-26.9357
 21
48.035
  0
LINE
  8
0
 10
-26.9357
 20
48.035
 11
-25.7801
 21
48.3317
  0
LINE
  8
0
 10
-25.7801
 20
48.3317
 11
-24.5965
 21
48.4812
  0
LINE
  8
0
 10
-24.5965
 20
48.4812
 11
-23.4035
 21
48.4812
  0
LINE
  8
0
 10
-23.4035
 20
48.4812
 11
-22.2199
 21
48.3317
  0
LINE
  8
0
 10
-22.2199
 20
48.3317
 11
-21.0643
 21
48.035
  0
LINE
  8
0
 10
-21.0643
 20
48.035
 11
-19.9551
 21
47.5959
  0
LINE
  8
0
 10
-19.9551
 20
47.5959
 11
-18.9096
 21
47.0211
  0
LINE
  8
0
 10
-18.9096
 20
47.0211
 11
-17.9445
 21
46.3199
  0
LINE
  8
0
 10
-17.9445
 20
46.3199
 11
-17.0748
 21
45.5032
  0
LINE
  8
0
 10
-17.0748
 20
45.5032
 11
-16.3143
 21
44.584
  0
LINE
  8
0
 10
-16.3143
 20
44.584
 11
-15.6751
 21
43.5766
  0
LINE
  8
0
 10
-15.6751
 20
43.5766
 11
-15.1671
 21
42.4972
  0
LINE
  8
0
 10
-15.1671
 20
42.4972
 11
-14.7984
 21
41.3625
  0
LINE
  8
0
 10
-14.7984
 20
41.3625
 11
-14.5749
 21
40.1907
  0
LINE
  8
0
 10
-14.5749
 20
40.1907
 11
-14.5
 21
39
  0
LINE
  8
0
 10
-14.5
 20
39
 11
-14.5749
 21
37.8093
  0
LINE
  8
0
 10
-14.5749
 20
37.8093
 11
-14.7984
 21
36.6375
  0
LINE
  8
0
 10
-14.7984
 20
36.6375
 11
-15.1671
 21
35.5028
  0
LINE
  8
0
 10
-15.1671
 20
35.5028
 11
-15.6751
 21
34.4234
  0
LINE
  8
0
 10
-15.6751
 20
34.4234
 11
-16.3143
 21
33.416
  0
LINE
  8
0
 10
-16.3143
 20
33.416
 11
-17.0748
 21
32.4968
  0
LINE
  8
0
 10
-17.0748
 20
32.4968
 11
-17.9445
 21
31.6801
  0
LINE
  8
0
 10
-17.9445
 20
31.6801
 11
-18.9096
 21
30.9789
  0
LINE
  8
0
 10
-18.9096
 20
30.9789
 11
-19.9551
 21
30.4041
  0
LINE
  8
0
 10
-19.9551
 20
30.4041
 11
-21.0643
 21
29.965
  0
LINE
  8
0
 10
-21.0643
 20
29.965
 11
-22.2199
 21
29.6683
  0
LINE
  8
0
 10
-22.2199
 20
29.6683
 11
-23.4035
 21
29.5188
  0
LINE
  8
0
 10
-23.4035
 20
29.5188
 11
-24.5965
 21
29.5188
  0
LINE
  8
0
 10
-48.5965
 20
29.5188
 11
-49.7801
 21
29.6683
  0
LINE
  8
0
 10
-49.7801
 20
29.6683
 11
-50.9357
 21
29.965
  0
LINE
  8
0
 10
-50.9357
 20
29.965
 11
-52.0449
 21
30.4041
  0
LINE
  8
0
 10
-52.0449
 20
30.4041
 11
-53.0903
 21
30.9789
  0
LINE
  8
0
 10
-53.0903
 20
30.9789
 11
-54.0555
 21
31.6801
  0
LINE
  8
0
 10
-54.0555
 20
31.6801
 11
-54.9252
 21
32.4968
  0
LINE
  8
0
 10
-54.9252
 20
32.4968
 11
-55.6857
 21
33.416
  0
LINE
  8
0
 10
-55.6857
 20
33.416
 11
-56.3249
 21
34.4234
  0
LINE
  8
0
 10
-56.3249
 20
34.4234
 11
-56.8329
 21
35.5028
  0
LINE
  8
0
 10
-56.8329
 20
35.5028
 11
-57.2015
 21
36.6375
  0
LINE
  8
0
 10
-57.2015
 20
36.6375
 11
-57.4251
 21
37.8093
  0
LINE
  8
0
 10
-57.4251
 20
37.8093
 11
-57.5
 21
39
  0
LINE
  8
0
 10
-57.5
 20
39
 11
-57.4251
 21
40.1907
  0
LINE
  8
0
 10
-57.4251
 20
40.1907
 11
-57.2015
 21
41.3625
  0
LINE
  8
0
 10
-57.2015
 20
41.3625
 11
-56.8329
 21
42.4972
  0
LINE
  8
0
 10
-56.8329
 20
42.4972
 11
-56.3249
 21
43.5766
  0
LINE
  8
0
 10
-56.3249
 20
43.5766
 11
-55.6857
 21
44.584
  0
LINE
  8
0
 10
-55.6857
 20
44.584
 11
-54.9252
 21
45.5032
  0
LINE
  8
0
 10
-54.9252
 20
45.5032
 11
-54.0555
 21
46.3199
  0
LINE
  8
0
 10
-54.0555
 20
46.3199
 11
-53.0903
 21
47.0211
  0
LINE
  8
0
 10
-53.0903
 20
47.0211
 11
-52.0449
 21
47.5959
  0
LINE
  8
0
 10
-52.0449
 20
47.5959
 11
-50.9357
 21
48.035
  0
LINE
  8
0
 10
-50.9357
 20
48.035
 11
-49.7801
 21
48.3317
  0
LINE
  8
0
 10
-49.7801
 20
48.3317
 11
-48.5965
 21
48.4812
  0
LINE
  8
0
 10
-48.5965
 20
48.4812
 11
-47.4035
 21
48.4812
  0
LINE
  8
0
 10
-47.4035
 20
48.4812
 11
-46.2199
 21
48.3317
  0
LINE
  8
0
 10
-46.2199
 20
48.3317
 11
-45.0643
 21
48.035
  0
LINE
  8
0
 10
-45.0643
 20
48.035
 11
-43.9551
 21
47.5959
  0
LINE
  8
0
 10
-43.9551
 20
47.5959
 11
-42.9096
 21
47.0211
  0
LINE
  8
0
 10
-42.9096
 20
47.0211
 11
-41.9445
 21
46.3199
  0
LINE
  8
0
 10
-41.9445
 20
46.3199
 11
-41.0748
 21
45.5032
  0
LINE
  8
0
 10
-41.0748
 20
45.5032
 11
-40.3143
 21
44.584
  0
LINE
  8
0
 10
-40.3143
 20
44.584
 11
-39.6751
 21
43.5766
  0
LINE
  8
0
 10
-39.6751
 20
43.5766
 11
-39.1671
 21
42.4972
  0
LINE
  8
0
 10
-39.1671
 20
42.4972
 11
-38.7984
 21
41.3625
  0
LINE
  8
0
 10
-38.7984
 20
41.3625
 11
-38.5749
 21
40.1907
  0
LINE
  8
0
 10
-38.5749
 20
40.1907
 11
-38.5
 21
39
  0
LINE
  8
0
 10
-38.5
 20
39
 11
-38.5749
 21
37.8093
  0
LINE
  8
0
 10
-38.5749
 20
37.8093
 11
-38.7984
 21
36.6375
  0
LINE
  8
0
 10
-38.7984
 20
36.6375
 11
-39.1671
 21
35.5028
  0
LINE
  8
0
 10
-39.1671
 20
35.5028
 11
-39.6751
 21
34.4234
  0
LINE
  8
0
 10
-39.6751
 20
34.4234
 11
-40.3143
 21
33.416
  0
LINE
  8
0
 10
-40.3143
 20
33.416
 11
-41.0748
 21
32.4968
  0
LINE
  8
0
 10
-41.0748
 20
32.4968
 11
-41.9445
 21
31.6801
  0
LINE
  8
0
 10
-41.9445
 20
31.6801
 11
-42.9096
 21
30.9789
  0
LINE
  8
0
 10
-42.9096
 20
30.9789
 11
-43.9551
 21
30.4041
  0
LINE
  8
0
 10
-43.9551
 20
30.4041
 11
-45.0643
 21
29.965
  0
LINE
  8
0
 10
-45.0643
 20
29.965
 11
-46.2199
 21
29.6683
  0
LINE
  8
0
 10
-46.2199
 20
29.6683
 11
-47.4035
 21
29.5188
  0
LINE
  8
0
 10
-47.4035
 20
29.5188
 11
-48.5965
 21
29.5188
  0
LINE
  8
0
 10
67.4058
 20
37.503
 11
67.2189
 21
37.5266
  0
LINE
  8
0
 10
67.2189
 20
37.5266
 11
67.0365
 21
37.5734
  0
LINE
  8
0
 10
67.0365
 20
37.5734
 11
66.8613
 21
37.6428
  0
LINE
  8
0
 10
66.8613
 20
37.6428
 11
66.6963
 21
37.7335
  0
LINE
  8
0
 10
66.6963
 20
37.7335
 11
66.5439
 21
37.8442
  0
LINE
  8
0
 10
66.5439
 20
37.8442
 11
66.4065
 21
37.9732
  0
LINE
  8
0
 10
66.4065
 20
37.9732
 11
66.2865
 21
38.1183
  0
LINE
  8
0
 10
66.2865
 20
38.1183
 11
66.1855
 21
38.2774
  0
LINE
  8
0
 10
66.1855
 20
38.2774
 11
66.1053
 21
38.4478
  0
LINE
  8
0
 10
66.1053
 20
38.4478
 11
66.0471
 21
38.627
  0
LINE
  8
0
 10
66.0471
 20
38.627
 11
66.0118
 21
38.812
  0
LINE
  8
0
 10
66.0118
 20
38.812
 11
66
 21
39
  0
LINE
  8
0
 10
66
 20
39
 11
66.0118
 21
39.188
  0
LINE
  8
0
 10
66.0118
 20
39.188
 11
66.0471
 21
39.373
  0
LINE
  8
0
 10
66.0471
 20
39.373
 11
66.1053
 21
39.5522
  0
LINE
  8
0
 10
66.1053
 20
39.5522
 11
66.1855
 21
39.7226
  0
LINE
  8
0
 10
66.1855
 20
39.7226
 11
66.2865
 21
39.8817
  0
LINE
  8
0
 10
66.2865
 20
39.8817
 11
66.4065
 21
40.0268
  0
LINE
  8
0
 10
66.4065
 20
40.0268
 11
66.5439
 21
40.1558
  0
LINE
  8
0
 10
66.5439
 20
40.1558
 11
66.6963
 21
40.2665
  0
LINE
  8
0
 10
66.6963
 20
40.2665
 11
66.8613
 21
40.3572
  0
LINE
  8
0
 10
66.8613
 20
40.3572
 11
67.0365
 21
40.4266
  0
LINE
  8
0
 10
67.0365
 20
40.4266
 11
67.2189
 21
40.4734
  0
LINE
  8
0
 10
67.2189
 20
40.4734
 11
67.4058
 21
40.497
  0
LINE
  8
0
 10
67.4058
 20
40.497
 11
67.5942
 21
40.497
  0
LINE
  8
0
 10
67.5942
 20
40.497
 11
67.7811
 21
40.4734
  0
LINE
  8
0
 10
67.7811
 20
40.4734
 11
67.9635
 21
40.4266
  0
LINE
  8
0
 10
67.9635
 20
40.4266
 11
68.1387
 21
40.3572
  0
LINE
  8
0
 10
68.1387
 20
40.3572
 11
68.3037
 21
40.2665
  0
LINE
  8
0
 10
68.3037
 20
40.2665
 11
68.4561
 21
40.1558
  0
LINE
  8
0
 10
68.4561
 20
40.1558
 11
68.5934
 21
40.0268
  0
LINE
  8
0
 10
68.5934
 20
40.0268
 11
68.7135
 21
39.8817
  0
LINE
  8
0
 10
68.7135
 20
39.8817
 11
68.8145
 21
39.7226
  0
LINE
  8
0
 10
68.8145
 20
39.7226
 11
68.8947
 21
39.5522
  0
LINE
  8
0
 10
68.8947
 20
39.5522
 11
68.9529
 21
39.373
  0
LINE
  8
0
 10
68.9529
 20
39.373
 11
68.9882
 21
39.188
  0
LINE
  8
0
 10
68.9882
 20
39.188
 11
69
 21
39
  0
LINE
  8
0
 10
69
 20
39
 11
68.9882
 21
38.812
  0
LINE
  8
0
 10
68.9882
 20
38.812
 11
68.9529
 21
38.627
  0
LINE
  8
0
 10
68.9529
 20
38.627
 11
68.8947
 21
38.4478
  0
LINE
  8
0
 10
68.8947
 20
38.4478
 11
68.8145
 21
38.2774
  0
LINE
  8
0
 10
68.8145
 20
38.2774
 11
68.7135
 21
38.1183
  0
LINE
  8
0
 10
68.7135
 20
38.1183
 11
68.5934
 21
37.9732
  0
LINE
  8
0
 10
68.5934
 20
37.9732
 11
68.4561
 21
37.8442
  0
LINE
  8
0
 10
68.4561
 20
37.8442
 11
68.3037
 21
37.7335
  0
LINE
  8
0
 10
68.3037
 20
37.7335
 11
68.1387
 21
37.6428
  0
LINE
  8
0
 10
68.1387
 20
37.6428
 11
67.9635
 21
37.5734
  0
LINE
  8
0
 10
67.9635
 20
37.5734
 11
67.7811
 21
37.5266
  0
LINE
  8
0
 10
67.7811
 20
37.5266
 11
67.5942
 21
37.503
  0
LINE
  8
0
 10
67.5942
 20
37.503
 11
67.4058
 21
37.503
  0
LINE
  8
0
 10
-67.5942
 20
37.503
 11
-67.7811
 21
37.5266
  0
LINE
  8
0
 10
-67.7811
 20
37.5266
 11
-67.9635
 21
37.5734
  0
LINE
  8
0
 10
-67.9635
 20
37.5734
 11
-68.1387
 21
37.6428
  0
LINE
  8
0
 10
-68.1387
 20
37.6428
 11
-68.3037
 21
37.7335
  0
LINE
  8
0
 10
-68.3037
 20
37.7335
 11
-68.4561
 21
37.8442
  0
LINE
  8
0
 10
-68.4561
 20
37.8442
 11
-68.5934
 21
37.9732
  0
LINE
  8
0
 10
-68.5934
 20
37.9732
 11
-68.7135
 21
38.1183
  0
LINE
  8
0
 10
-68.7135
 20
38.1183
 11
-68.8145
 21
38.2774
  0
LINE
  8
0
 10
-68.8145
 20
38.2774
 11
-68.8947
 21
38.4478
  0
LINE
  8
0
 10
-68.8947
 20
38.4478
 11
-68.9529
 21
38.627
  0
LINE
  8
0
 10
-68.9529
 20
38.627
 11
-68.9882
 21
38.812
  0
LINE
  8
0
 10
-68.9882
 20
38.812
 11
-69
 21
39
  0
LINE
  8
0
 10
-69
 20
39
 11
-68.9882
 21
39.188
  0
LINE
  8
0
 10
-68.9882
 20
39.188
 11
-68.9529
 21
39.373
  0
LINE
  8
0
 10
-68.9529
 20
39.373
 11
-68.8947
 21
39.5522
  0
LINE
  8
0
 10
-68.8947
 20
39.5522
 11
-68.8145
 21
39.7226
  0
LINE
  8
0
 10
-68.8145
 20
39.7226
 11
-68.7135
 21
39.8817
  0
LINE
  8
0
 10
-68.7135
 20
39.8817
 11
-68.5934
 21
40.0268
  0
LINE
  8
0
 10
-68.5934
 20
40.0268
 11
-68.4561
 21
40.1558
  0
LINE
  8
0
 10
-68.4561
 20
40.1558
 11
-68.3037
 21
40.2665
  0
LINE
  8
0
 10
-68.3037
 20
40.2665
 11
-68.1387
 21
40.3572
  0
LINE
  8
0
 10
-68.1387
 20
40.3572
 11
-67.9635
 21
40.4266
  0
LINE
  8
0
 10
-67.9635
 20
40.4266
 11
-67.7811
 21
40.4734
  0
LINE
  8
0
 10
-67.7811
 20
40.4734
 11
-67.5942
 21
40.497
  0
LINE
  8
0
 10
-67.5942
 20
40.497
 11
-67.4058
 21
40.497
  0
LINE
  8
0
 10
-67.4058
 20
40.497
 11
-67.2189
 21
40.4734
  0
LINE
  8
0
 10
-67.2189
 20
40.4734
 11
-67.0365
 21
40.4266
  0
LINE
  8
0
 10
-67.0365
 20
40.4266
 11
-66.8613
 21
40.3572
  0
LINE
  8
0
 10
-66.8613
 20
40.3572
 11
-66.6963
 21
40.2665
  0
LINE
  8
0
 10
-66.6963
 20
40.2665
 11
-66.5439
 21
40.1558
  0
LINE
  8
0
 10
-66.5439
 20
40.1558
 11
-66.4065
 21
40.0268
  0
LINE
  8
0
 10
-66.4065
 20
40.0268
 11
-66.2865
 21
39.8817
  0
LINE
  8
0
 10
-66.2865
 20
39.8817
 11
-66.1855
 21
39.7226
  0
LINE
  8
0
 10
-66.1855
 20
39.7226
 11
-66.1053
 21
39.5522
  0
LINE
  8
0
 10
-66.1053
 20
39.5522
 11
-66.0471
 21
39.373
  0
LINE
  8
0
 10
-66.0471
 20
39.373
 11
-66.0118
 21
39.188
  0
LINE
  8
0
 10
-66.0118
 20
39.188
 11
-66
 21
39
  0
LINE
  8
0
 10
-66
 20
39
 11
-66.0118
 21
38.812
  0
LINE
  8
0
 10
-66.0118
 20
38.812
 11
-66.0471
 21
38.627
  0
LINE
  8
0
 10
-66.0471
 20
38.627
 11
-66.1053
 21
38.4478
  0
LINE
  8
0
 10
-66.1053
 20
38.4478
 11
-66.1855
 21
38.2774
  0
LINE
  8
0
 10
-66.1855
 20
38.2774
 11
-66.2865
 21
38.1183
  0
LINE
  8
0
 10
-66.2865
 20
38.1183
 11
-66.4065
 21
37.9732
  0
LINE
  8
0
 10
-66.4065
 20
37.9732
 11
-66.5439
 21
37.8442
  0
LINE
  8
0
 10
-66.5439
 20
37.8442
 11
-66.6963
 21
37.7335
  0
LINE
  8
0
 10
-66.6963
 20
37.7335
 11
-66.8613
 21
37.6428
  0
LINE
  8
0
 10
-66.8613
 20
37.6428
 11
-67.0365
 21
37.5734
  0
LINE
  8
0
 10
-67.0365
 20
37.5734
 11
-67.2189
 21
37.5266
  0
LINE
  8
0
 10
-67.2189
 20
37.5266
 11
-67.4058
 21
37.503
  0
LINE
  8
0
 10
-67.4058
 20
37.503
 11
-67.5942
 21
37.503
  0
LINE
  8
0
 10
-67.6884
 20
28.5059
 11
-68.0621
 21
28.5531
  0
LINE
  8
0
 10
-68.0621
 20
28.5531
 11
-68.427
 21
28.6468
  0
LINE
  8
0
 10
-68.427
 20
28.6468
 11
-68.7773
 21
28.7855
  0
LINE
  8
0
 10
-68.7773
 20
28.7855
 11
-69.1075
 21
28.967
  0
LINE
  8
0
 10
-69.1075
 20
28.967
 11
-69.4123
 21
29.1885
  0
LINE
  8
0
 10
-69.4123
 20
29.1885
 11
-69.6869
 21
29.4464
  0
LINE
  8
0
 10
-69.6869
 20
29.4464
 11
-69.927
 21
29.7366
  0
LINE
  8
0
 10
-69.927
 20
29.7366
 11
-70.1289
 21
30.0547
  0
LINE
  8
0
 10
-70.1289
 20
30.0547
 11
-70.2893
 21
30.3956
  0
LINE
  8
0
 10
-70.2893
 20
30.3956
 11
-70.4057
 21
30.7539
  0
LINE
  8
0
 10
-70.4057
 20
30.7539
 11
-70.4763
 21
31.124
  0
LINE
  8
0
 10
-70.4763
 20
31.124
 11
-70.5
 21
31.5
  0
LINE
  8
0
 10
-70.5
 20
31.5
 11
-70.4763
 21
31.876
  0
LINE
  8
0
 10
-70.4763
 20
31.876
 11
-70.4057
 21
32.2461
  0
LINE
  8
0
 10
-70.4057
 20
32.2461
 11
-70.2893
 21
32.6044
  0
LINE
  8
0
 10
-70.2893
 20
32.6044
 11
-70.1289
 21
32.9453
  0
LINE
  8
0
 10
-70.1289
 20
32.9453
 11
-69.927
 21
33.2634
  0
LINE
  8
0
 10
-69.927
 20
33.2634
 11
-69.6869
 21
33.5536
  0
LINE
  8
0
 10
-69.6869
 20
33.5536
 11
-69.4123
 21
33.8116
  0
LINE
  8
0
 10
-69.4123
 20
33.8116
 11
-69.1075
 21
34.033
  0
LINE
  8
0
 10
-69.1075
 20
34.033
 11
-68.7773
 21
34.2145
  0
LINE
  8
0
 10
-68.7773
 20
34.2145
 11
-68.427
 21
34.3532
  0
LINE
  8
0
 10
-68.427
 20
34.3532
 11
-68.0621
 21
34.4469
  0
LINE
  8
0
 10
-68.0621
 20
34.4469
 11
-67.6884
 21
34.4941
  0
LINE
  8
0
 10
-67.6884
 20
34.4941
 11
-67.3116
 21
34.4941
  0
LINE
  8
0
 10
-67.3116
 20
34.4941
 11
-66.9379
 21
34.4469
  0
LINE
  8
0
 10
-66.9379
 20
34.4469
 11
-66.573
 21
34.3532
  0
LINE
  8
0
 10
-66.573
 20
34.3532
 11
-66.2227
 21
34.2145
  0
LINE
  8
0
 10
-66.2227
 20
34.2145
 11
-65.8925
 21
34.033
  0
LINE
  8
0
 10
-65.8925
 20
34.033
 11
-65.5877
 21
33.8116
  0
LINE
  8
0
 10
-65.5877
 20
33.8116
 11
-65.3131
 21
33.5536
  0
LINE
  8
0
 10
-65.3131
 20
33.5536
 11
-65.073
 21
33.2634
  0
LINE
  8
0
 10
-65.073
 20
33.2634
 11
-64.8711
 21
32.9453
  0
LINE
  8
0
 10
-64.8711
 20
32.9453
 11
-64.7107
 21
32.6044
  0
LINE
  8
0
 10
-64.7107
 20
32.6044
 11
-64.5943
 21
32.2461
  0
LINE
  8
0
 10
-64.5943
 20
32.2461
 11
-64.5237
 21
31.876
  0
LINE
  8
0
 10
-64.5237
 20
31.876
 11
-64.5
 21
31.5
  0
LINE
  8
0
 10
-64.5
 20
31.5
 11
-64.5237
 21
31.124
  0
LINE
  8
0
 10
-64.5237
 20
31.124
 11
-64.5943
 21
30.7539
  0
LINE
  8
0
 10
-64.5943
 20
30.7539
 11
-64.7107
 21
30.3956
  0
LINE
  8
0
 10
-64.7107
 20
30.3956
 11
-64.8711
 21
30.0547
  0
LINE
  8
0
 10
-64.8711
 20
30.0547
 11
-65.073
 21
29.7366
  0
LINE
  8
0
 10
-65.073
 20
29.7366
 11
-65.3131
 21
29.4464
  0
LINE
  8
0
 10
-65.3131
 20
29.4464
 11
-65.5877
 21
29.1885
  0
LINE
  8
0
 10
-65.5877
 20
29.1885
 11
-65.8925
 21
28.967
  0
LINE
  8
0
 10
-65.8925
 20
28.967
 11
-66.2227
 21
28.7855
  0
LINE
  8
0
 10
-66.2227
 20
28.7855
 11
-66.573
 21
28.6468
  0
LINE
  8
0
 10
-66.573
 20
28.6468
 11
-66.9379
 21
28.5531
  0
LINE
  8
0
 10
-66.9379
 20
28.5531
 11
-67.3116
 21
28.5059
  0
LINE
  8
0
 10
-67.3116
 20
28.5059
 11
-67.6884
 21
28.5059
  0
LINE
  8
0
 10
67.3116
 20
28.5059
 11
66.9379
 21
28.5531
  0
LINE
  8
0
 10
66.9379
 20
28.5531
 11
66.573
 21
28.6468
  0
LINE
  8
0
 10
66.573
 20
28.6468
 11
66.2227
 21
28.7855
  0
LINE
  8
0
 10
66.2227
 20
28.7855
 11
65.8925
 21
28.967
  0
LINE
  8
0
 10
65.8925
 20
28.967
 11
65.5877
 21
29.1885
  0
LINE
  8
0
 10
65.5877
 20
29.1885
 11
65.3131
 21
29.4464
  0
LINE
  8
0
 10
65.3131
 20
29.4464
 11
65.073
 21
29.7366
  0
LINE
  8
0
 10
65.073
 20
29.7366
 11
64.8711
 21
30.0547
  0
LINE
  8
0
 10
64.8711
 20
30.0547
 11
64.7107
 21
30.3956
  0
LINE
  8
0
 10
64.7107
 20
30.3956
 11
64.5943
 21
30.7539
  0
LINE
  8
0
 10
64.5943
 20
30.7539
 11
64.5237
 21
31.124
  0
LINE
  8
0
 10
64.5237
 20
31.124
 11
64.5
 21
31.5
  0
LINE
  8
0
 10
64.5
 20
31.5
 11
64.5237
 21
31.876
  0
LINE
  8
0
 10
64.5237
 20
31.876
 11
64.5943
 21
32.2461
  0
LINE
  8
0
 10
64.5943
 20
32.2461
 11
64.7107
 21
32.6044
  0
LINE
  8
0
 10
64.7107
 20
32.6044
 11
64.8711
 21
32.9453
  0
LINE
  8
0
 10
64.8711
 20
32.9453
 11
65.073
 21
33.2634
  0
LINE
  8
0
 10
65.073
 20
33.2634
 11
65.3131
 21
33.5536
  0
LINE
  8
0
 10
65.3131
 20
33.5536
 11
65.5877
 21
33.8116
  0
LINE
  8
0
 10
65.5877
 20
33.8116
 11
65.8925
 21
34.033
  0
LINE
  8
0
 10
65.8925
 20
34.033
 11
66.2227
 21
34.2145
  0
LINE
  8
0
 10
66.2227
 20
34.2145
 11
66.573
 21
34.3532
  0
LINE
  8
0
 10
66.573
 20
34.3532
 11
66.9379
 21
34.4469
  0
LINE
  8
0
 10
66.9379
 20
34.4469
 11
67.3116
 21
34.4941
  0
LINE
  8
0
 10
67.3116
 20
34.4941
 11
67.6884
 21
34.4941
  0
LINE
  8
0
 10
67.6884
 20
34.4941
 11
68.0621
 21
34.4469
  0
LINE
  8
0
 10
68.0621
 20
34.4469
 11
68.427
 21
34.3532
  0
LINE
  8
0
 10
68.427
 20
34.3532
 11
68.7773
 21
34.2145
  0
LINE
  8
0
 10
68.7773
 20
34.2145
 11
69.1075
 21
34.033
  0
LINE
  8
0
 10
69.1075
 20
34.033
 11
69.4123
 21
33.8116
  0
LINE
  8
0
 10
69.4123
 20
33.8116
 11
69.6869
 21
33.5536
  0
LINE
  8
0
 10
69.6869
 20
33.5536
 11
69.927
 21
33.2634
  0
LINE
  8
0
 10
69.927
 20
33.2634
 11
70.1289
 21
32.9453
  0
LINE
  8
0
 10
70.1289
 20
32.9453
 11
70.2893
 21
32.6044
  0
LINE
  8
0
 10
70.2893
 20
32.6044
 11
70.4057
 21
32.2461
  0
LINE
  8
0
 10
70.4057
 20
32.2461
 11
70.4763
 21
31.876
  0
LINE
  8
0
 10
70.4763
 20
31.876
 11
70.5
 21
31.5
  0
LINE
  8
0
 10
70.5
 20
31.5
 11
70.4763
 21
31.124
  0
LINE
  8
0
 10
70.4763
 20
31.124
 11
70.4057
 21
30.7539
  0
LINE
  8
0
 10
70.4057
 20
30.7539
 11
70.2893
 21
30.3956
  0
LINE
  8
0
 10
70.2893
 20
30.3956
 11
70.1289
 21
30.0547
  0
LINE
  8
0
 10
70.1289
 20
30.0547
 11
69.927
 21
29.7366
  0
LINE
  8
0
 10
69.927
 20
29.7366
 11
69.6869
 21
29.4464
  0
LINE
  8
0
 10
69.6869
 20
29.4464
 11
69.4123
 21
29.1885
  0
LINE
  8
0
 10
69.4123
 20
29.1885
 11
69.1075
 21
28.967
  0
LINE
  8
0
 10
69.1075
 20
28.967
 11
68.7773
 21
28.7855
  0
LINE
  8
0
 10
68.7773
 20
28.7855
 11
68.427
 21
28.6468
  0
LINE
  8
0
 10
68.427
 20
28.6468
 11
68.0621
 21
28.5531
  0
LINE
  8
0
 10
68.0621
 20
28.5531
 11
67.6884
 21
28.5059
  0
LINE
  8
0
 10
67.6884
 20
28.5059
 11
67.3116
 21
28.5059
  0
ENDSEC
  0
SECTION
  2
OBJECTS
  0
DICTIONARY
  0
ENDSEC
  0
EOF
