<?xml version="1.0" standalone="no"?>
<!DOCTYPE svg PUBLIC "-//W3C//DTD SVG 1.1//EN" "http://www.w3.org/Graphics/SVG/1.1/DTD/svg11.dtd">
<svg width="74mm" height="30mm" viewBox="-37 -15 74 30" xmlns="http://www.w3.org/2000/svg" version="1.1">
<title>OpenSCAD Model</title>
<path d="
M 32.9369,14.4114 L 33.5451,14.2553 L 34.1289,14.0241 L 34.6791,13.7216 L 35.1871,13.3526 L 35.6448,12.9227
 L 36.0451,12.4389 L 36.3815,11.9088 L 36.6489,11.3406 L 36.8429,10.7434 L 36.9606,10.1267 L 37,9.5
 L 37,-9.5 L 36.9606,-10.1267 L 36.8429,-10.7434 L 36.6489,-11.3406 L 36.3815,-11.9088 L 36.0451,-12.4389
 L 35.6448,-12.9227 L 35.1871,-13.3526 L 34.6791,-13.7216 L 34.1289,-14.0241 L 33.5451,-14.2553 L 32.9369,-14.4114
 L 32.3139,-14.4901 L -32.3139,-14.4901 L -32.9369,-14.4114 L -33.5451,-14.2553 L -34.1289,-14.0241 L -34.6791,-13.7216
 L -35.1871,-13.3526 L -35.6448,-12.9227 L -36.0451,-12.4389 L -36.3815,-11.9088 L -36.6489,-11.3406 L -36.8429,-10.7434
 L -36.9606,-10.1267 L -37,-9.5 L -37,9.5 L -36.9606,10.1267 L -36.8429,10.7434 L -36.6489,11.3406
 L -36.3815,11.9088 L -36.0451,12.4389 L -35.6448,12.9227 L -35.1871,13.3526 L -34.6791,13.7216 L -34.1289,14.0241
 L -33.5451,14.2553 L -32.9369,14.4114 L -32.3139,14.4901 L 32.3139,14.4901 z
M 29.8116,10.4941 L 29.4379,10.4469 L 29.0729,10.3532 L 28.7227,10.2145 L 28.3925,10.033 L 28.0877,9.81154
 L 27.8131,9.55363 L 27.5729,9.26335 L 27.3711,8.94525 L 27.2107,8.60437 L 27.0942,8.24606 L 27.0237,7.87599
 L 27,7.5 L 27.0237,7.12399 L 27.0942,6.75392 L 27.1809,6.48717 L 26.5919,6.48717 L 25.782,6.38486
 L 24.9914,6.18185 L 24.2324,5.88136 L 23.5171,5.48813 L 22.8567,5.00833 L 22.2617,4.44955 L 21.7414,3.8206
 L 21.304,3.13139 L 20.9565,2.39281 L 20.7042,1.61647 L 20.5513,0.814651 L 20.5,-0 L 20.5513,-0.814651
 L 20.7042,-1.61647 L 20.9565,-2.39281 L 21.304,-3.13139 L 21.7414,-3.8206 L 22.2617,-4.44955 L 22.8567,-5.00833
 L 23.5171,-5.48813 L 24.2324,-5.88136 L 24.9914,-6.18185 L 25.782,-6.38486 L 26.5919,-6.48717 L 27.1809,-6.48717
 L 27.0942,-6.75392 L 27.0237,-7.12399 L 27,-7.5 L 27.0237,-7.87599 L 27.0942,-8.24606 L 27.2107,-8.60437
 L 27.3711,-8.94525 L 27.5729,-9.26335 L 27.8131,-9.55363 L 28.0877,-9.81154 L 28.3925,-10.033 L 28.7227,-10.2145
 L 29.0729,-10.3532 L 29.4379,-10.4469 L 29.8116,-10.4941 L 30.1884,-10.4941 L 30.5621,-10.4469 L 30.927,-10.3532
 L 31.2773,-10.2145 L 31.6075,-10.033 L 31.9123,-9.81154 L 32.1869,-9.55363 L 32.427,-9.26335 L 32.6289,-8.94525
 L 32.7893,-8.60437 L 32.9057,-8.24606 L 32.9763,-7.87599 L 33,-7.5 L 32.9763,-7.12399 L 32.9057,-6.75392
 L 32.7893,-6.39561 L 32.6289,-6.05473 L 32.427,-5.73663 L 32.1869,-5.44635 L 31.9123,-5.18845 L 31.6075,-4.96701
 L 31.3424,-4.82129 L 31.7383,-4.44955 L 32.2586,-3.8206 L 32.696,-3.13139 L 33.0435,-2.39281 L 33.2958,-1.61647
 L 33.4487,-0.814651 L 33.5,-0 L 33.4487,0.814651 L 33.2958,1.61647 L 33.0435,2.39281 L 32.696,3.13139
 L 32.2586,3.8206 L 31.7383,4.44955 L 31.3424,4.82129 L 31.6075,4.96701 L 31.9123,5.18845 L 32.1869,5.44635
 L 32.427,5.73663 L 32.6289,6.05473 L 32.7893,6.39561 L 32.9057,6.75392 L 32.9763,7.12399 L 33,7.5
 L 32.9763,7.87599 L 32.9057,8.24606 L 32.7893,8.60437 L 32.6289,8.94525 L 32.427,9.26335 L 32.1869,9.55363
 L 31.9123,9.81154 L 31.6075,10.033 L 31.2773,10.2145 L 30.927,10.3532 L 30.5621,10.4469 L 30.1884,10.4941
 z
M -30.1884,10.4941 L -30.5621,10.4469 L -30.927,10.3532 L -31.2773,10.2145 L -31.6075,10.033 L -31.9123,9.81154
 L -32.1869,9.55363 L -32.427,9.26335 L -32.6289,8.94525 L -32.7893,8.60437 L -32.9057,8.24606 L -32.9763,7.87599
 L -33,7.5 L -32.9763,7.12399 L -32.9057,6.75392 L -32.7893,6.39561 L -32.6289,6.05473 L -32.427,5.73663
 L -32.1869,5.44635 L -31.9123,5.18845 L -31.6075,4.96701 L -31.3424,4.82129 L -31.7383,4.44955 L -32.2586,3.8206
 L -32.696,3.13139 L -33.0435,2.39281 L -33.2958,1.61647 L -33.4487,0.814651 L -33.5,-0 L -33.4487,-0.814651
 L -33.2958,-1.61647 L -33.0435,-2.39281 L -32.696,-3.13139 L -32.2586,-3.8206 L -31.7383,-4.44955 L -31.3424,-4.82129
 L -31.6075,-4.96701 L -31.9123,-5.18845 L -32.1869,-5.44635 L -32.427,-5.73663 L -32.6289,-6.05473 L -32.7893,-6.39561
 L -32.9057,-6.75392 L -32.9763,-7.12399 L -33,-7.5 L -32.9763,-7.87599 L -32.9057,-8.24606 L -32.7893,-8.60437
 L -32.6289,-8.94525 L -32.427,-9.26335 L -32.1869,-9.55363 L -31.9123,-9.81154 L -31.6075,-10.033 L -31.2773,-10.2145
 L -30.927,-10.3532 L -30.5621,-10.4469 L -30.1884,-10.4941 L -29.8116,-10.4941 L -29.4379,-10.4469 L -29.0729,-10.3532
 L -28.7227,-10.2145 L -28.3925,-10.033 L -28.0877,-9.81154 L -27.8131,-9.55363 L -27.5729,-9.26335 L -27.3711,-8.94525
 L -27.2107,-8.60437 L -27.0942,-8.24606 L -27.0237,-7.87599 L -27,-7.5 L -27.0237,-7.12399 L -27.0942,-6.75392
 L -27.1809,-6.48717 L -26.5919,-6.48717 L -25.782,-6.38486 L -24.9914,-6.18185 L -24.2324,-5.88136 L -23.5171,-5.48813
 L -22.8567,-5.00833 L -22.2617,-4.44955 L -21.7414,-3.8206 L -21.304,-3.13139 L -20.9565,-2.39281 L -20.7042,-1.61647
 L -20.5513,-0.814651 L -20.5,-0 L -20.5513,0.814651 L -20.7042,1.61647 L -20.9565,2.39281 L -21.304,3.13139
 L -21.7414,3.8206 L -22.2617,4.44955 L -22.8567,5.00833 L -23.5171,5.48813 L -24.2324,5.88136 L -24.9914,6.18185
 L -25.782,6.38486 L -26.5919,6.48717 L -27.1809,6.48717 L -27.0942,6.75392 L -27.0237,7.12399 L -27,7.5
 L -27.0237,7.87599 L -27.0942,8.24606 L -27.2107,8.60437 L -27.3711,8.94525 L -27.5729,9.26335 L -27.8131,9.55363
 L -28.0877,9.81154 L -28.3925,10.033 L -28.7227,10.2145 L -29.0729,10.3532 L -29.4379,10.4469 L -29.8116,10.4941
 z
M -9.40813,6.48717 L -10.218,6.38486 L -11.0086,6.18185 L -11.7676,5.88136 L -12.4829,5.48813 L -13.1432,5.00833
 L -13.7383,4.44955 L -14.2586,3.8206 L -14.696,3.13139 L -15.0435,2.39281 L -15.2958,1.61647 L -15.4487,0.814651
 L -15.5,-0 L -15.4487,-0.814651 L -15.2958,-1.61647 L -15.0435,-2.39281 L -14.696,-3.13139 L -14.2586,-3.8206
 L -13.7383,-4.44955 L -13.1432,-5.00833 L -12.4829,-5.48813 L -11.7676,-5.88136 L -11.0086,-6.18185 L -10.218,-6.38486
 L -9.40813,-6.48717 L -8.59186,-6.48717 L -7.78201,-6.38486 L -6.99138,-6.18185 L -6.23242,-5.88136 L -5.51712,-5.48813
 L -4.85674,-5.00833 L -4.2617,-4.44955 L -3.74138,-3.8206 L -3.304,-3.13139 L -2.95645,-2.39281 L -2.70421,-1.61647
 L -2.55125,-0.814651 L -2.5,-0 L -2.55125,0.814651 L -2.70421,1.61647 L -2.95645,2.39281 L -3.304,3.13139
 L -3.74138,3.8206 L -4.2617,4.44955 L -4.85674,5.00833 L -5.51712,5.48813 L -6.23242,5.88136 L -6.99138,6.18185
 L -7.78201,6.38486 L -8.59186,6.48717 z
M 8.59186,6.48717 L 7.78201,6.38486 L 6.99138,6.18185 L 6.23242,5.88136 L 5.51712,5.48813 L 4.85674,5.00833
 L 4.2617,4.44955 L 3.74138,3.8206 L 3.304,3.13139 L 2.95645,2.39281 L 2.70421,1.61647 L 2.55125,0.814651
 L 2.5,-0 L 2.55125,-0.814651 L 2.70421,-1.61647 L 2.95645,-2.39281 L 3.304,-3.13139 L 3.74138,-3.8206
 L 4.2617,-4.44955 L 4.85674,-5.00833 L 5.51712,-5.48813 L 6.23242,-5.88136 L 6.99138,-6.18185 L 7.78201,-6.38486
 L 8.59186,-6.48717 L 9.40813,-6.48717 L 10.218,-6.38486 L 11.0086,-6.18185 L 11.7676,-5.88136 L 12.4829,-5.48813
 L 13.1432,-5.00833 L 13.7383,-4.44955 L 14.2586,-3.8206 L 14.696,-3.13139 L 15.0435,-2.39281 L 15.2958,-1.61647
 L 15.4487,-0.814651 L 15.5,-0 L 15.4487,0.814651 L 15.2958,1.61647 L 15.0435,2.39281 L 14.696,3.13139
 L 14.2586,3.8206 L 13.7383,4.44955 L 13.1432,5.00833 L 12.4829,5.48813 L 11.7676,5.88136 L 11.0086,6.18185
 L 10.218,6.38486 L 9.40813,6.48717 z
" stroke="black" fill="lightgray" stroke-width="0.5"/>
</svg>
