<?xml version="1.0" standalone="no"?>
<!DOCTYPE svg PUBLIC "-//W3C//DTD SVG 1.1//EN" "http://www.w3.org/Graphics/SVG/1.1/DTD/svg11.dtd">
<svg width="180mm" height="104mm" viewBox="-90 -52 180 104" xmlns="http://www.w3.org/2000/svg" version="1.1">
<title>OpenSCAD Model</title>
<path d="
M 85.4369,51.9114 L 86.0451,51.7553 L 86.6289,51.5241 L 87.1791,51.2216 L 87.6871,50.8526 L 88.1448,50.4227
 L 88.5451,49.9389 L 88.8815,49.4088 L 89.1489,48.8406 L 89.3429,48.2434 L 89.4606,47.6267 L 89.5,47
 L 89.5,-47 L 89.4606,-47.6267 L 89.3429,-48.2434 L 89.1489,-48.8406 L 88.8815,-49.4088 L 88.5451,-49.9389
 L 88.1448,-50.4227 L 87.6871,-50.8526 L 87.1791,-51.2216 L 86.6289,-51.5241 L 86.0451,-51.7553 L 85.4369,-51.9114
 L 84.8139,-51.9901 L -84.8139,-51.9901 L -85.4369,-51.9114 L -86.0451,-51.7553 L -86.6289,-51.5241 L -87.1791,-51.2216
 L -87.6871,-50.8526 L -88.1448,-50.4227 L -88.5451,-49.9389 L -88.8815,-49.4088 L -89.1489,-48.8406 L -89.3429,-48.2434
 L -89.4606,-47.6267 L -89.5,-47 L -89.5,47 L -89.4606,47.6267 L -89.3429,48.2434 L -89.1489,48.8406
 L -88.8815,49.4088 L -88.5451,49.9389 L -88.1448,50.4227 L -87.6871,50.8526 L -87.1791,51.2216 L -86.6289,51.5241
 L -86.0451,51.7553 L -85.4369,51.9114 L -84.8139,51.9901 L 84.8139,51.9901 z
M 82.3116,-42.0059 L 81.9379,-42.0531 L 81.573,-42.1468 L 81.2227,-42.2855 L 80.8925,-42.467 L 80.5877,-42.6885
 L 80.3131,-42.9464 L 80.073,-43.2366 L 79.8711,-43.5547 L 79.7107,-43.8956 L 79.5943,-44.2539 L 79.5237,-44.624
 L 79.5,-45 L 79.5237,-45.376 L 79.5943,-45.7461 L 79.7107,-46.1044 L 79.8711,-46.4453 L 80.073,-46.7634
 L 80.3131,-47.0536 L 80.5877,-47.3115 L 80.8925,-47.533 L 81.2227,-47.7145 L 81.573,-47.8532 L 81.9379,-47.9469
 L 82.3116,-47.9941 L 82.6884,-47.9941 L 83.0621,-47.9469 L 83.427,-47.8532 L 83.7773,-47.7145 L 84.1075,-47.533
 L 84.4123,-47.3115 L 84.6869,-47.0536 L 84.927,-46.7634 L 85.1289,-46.4453 L 85.2893,-46.1044 L 85.4057,-45.7461
 L 85.4763,-45.376 L 85.5,-45 L 85.4763,-44.624 L 85.4057,-44.2539 L 85.2893,-43.8956 L 85.1289,-43.5547
 L 84.927,-43.2366 L 84.6869,-42.9464 L 84.4123,-42.6885 L 84.1075,-42.467 L 83.7773,-42.2855 L 83.427,-42.1468
 L 83.0621,-42.0531 L 82.6884,-42.0059 z
M 67.3116,-42.0059 L 66.9379,-42.0531 L 66.573,-42.1468 L 66.2227,-42.2855 L 65.8925,-42.467 L 65.5877,-42.6885
 L 65.3131,-42.9464 L 65.073,-43.2366 L 64.8711,-43.5547 L 64.7107,-43.8956 L 64.5943,-44.2539 L 64.5237,-44.624
 L 64.5,-45 L 64.5237,-45.376 L 64.5943,-45.7461 L 64.7107,-46.1044 L 64.8711,-46.4453 L 65.073,-46.7634
 L 65.3131,-47.0536 L 65.5877,-47.3115 L 65.8925,-47.533 L 66.2227,-47.7145 L 66.573,-47.8532 L 66.9379,-47.9469
 L 67.3116,-47.9941 L 67.6884,-47.9941 L 68.0621,-47.9469 L 68.427,-47.8532 L 68.7773,-47.7145 L 69.1075,-47.533
 L 69.4123,-47.3115 L 69.6869,-47.0536 L 69.927,-46.7634 L 70.1289,-46.4453 L 70.2893,-46.1044 L 70.4057,-45.7461
 L 70.4763,-45.376 L 70.5,-45 L 70.4763,-44.624 L 70.4057,-44.2539 L 70.2893,-43.8956 L 70.1289,-43.5547
 L 69.927,-43.2366 L 69.6869,-42.9464 L 69.4123,-42.6885 L 69.1075,-42.467 L 68.7773,-42.2855 L 68.427,-42.1468
 L 68.0621,-42.0531 L 67.6884,-42.0059 z
M -22.6884,-42.0059 L -23.0621,-42.0531 L -23.427,-42.1468 L -23.7773,-42.2855 L -24.1075,-42.467 L -24.4123,-42.6885
 L -24.6869,-42.9464 L -24.927,-43.2366 L -25.1289,-43.5547 L -25.2893,-43.8956 L -25.4057,-44.2539 L -25.4763,-44.624
 L -25.5,-45 L -25.4763,-45.376 L -25.4057,-45.7461 L -25.2893,-46.1044 L -25.1289,-46.4453 L -24.927,-46.7634
 L -24.6869,-47.0536 L -24.4123,-47.3115 L -24.1075,-47.533 L -23.7773,-47.7145 L -23.427,-47.8532 L -23.0621,-47.9469
 L -22.6884,-47.9941 L -22.3116,-47.9941 L -21.9379,-47.9469 L -21.5729,-47.8532 L -21.2227,-47.7145 L -20.8925,-47.533
 L -20.5877,-47.3115 L -20.3131,-47.0536 L -20.0729,-46.7634 L -19.8711,-46.4453 L -19.7107,-46.1044 L -19.5942,-45.7461
 L -19.5237,-45.376 L -19.5,-45 L -19.5237,-44.624 L -19.5942,-44.2539 L -19.7107,-43.8956 L -19.8711,-43.5547
 L -20.0729,-43.2366 L -20.3131,-42.9464 L -20.5877,-42.6885 L -20.8925,-42.467 L -21.2227,-42.2855 L -21.5729,-42.1468
 L -21.9379,-42.0531 L -22.3116,-42.0059 z
M -52.6884,-42.0059 L -53.0621,-42.0531 L -53.427,-42.1468 L -53.7773,-42.2855 L -54.1075,-42.467 L -54.4123,-42.6885
 L -54.6869,-42.9464 L -54.927,-43.2366 L -55.1289,-43.5547 L -55.2893,-43.8956 L -55.4057,-44.2539 L -55.4763,-44.624
 L -55.5,-45 L -55.4763,-45.376 L -55.4057,-45.7461 L -55.2893,-46.1044 L -55.1289,-46.4453 L -54.927,-46.7634
 L -54.6869,-47.0536 L -54.4123,-47.3115 L -54.1075,-47.533 L -53.7773,-47.7145 L -53.427,-47.8532 L -53.0621,-47.9469
 L -52.6884,-47.9941 L -52.3116,-47.9941 L -51.9379,-47.9469 L -51.5729,-47.8532 L -51.2227,-47.7145 L -50.8925,-47.533
 L -50.5877,-47.3115 L -50.3131,-47.0536 L -50.0729,-46.7634 L -49.8711,-46.4453 L -49.7107,-46.1044 L -49.5942,-45.7461
 L -49.5237,-45.376 L -49.5,-45 L -49.5237,-44.624 L -49.5942,-44.2539 L -49.7107,-43.8956 L -49.8711,-43.5547
 L -50.0729,-43.2366 L -50.3131,-42.9464 L -50.5877,-42.6885 L -50.8925,-42.467 L -51.2227,-42.2855 L -51.5729,-42.1468
 L -51.9379,-42.0531 L -52.3116,-42.0059 z
M 22.3116,-42.0059 L 21.9379,-42.0531 L 21.5729,-42.1468 L 21.2227,-42.2855 L 20.8925,-42.467 L 20.5877,-42.6885
 L 20.3131,-42.9464 L 20.0729,-43.2366 L 19.8711,-43.5547 L 19.7107,-43.8956 L 19.5942,-44.2539 L 19.5237,-44.624
 L 19.5,-45 L 19.5237,-45.376 L 19.5942,-45.7461 L 19.7107,-46.1044 L 19.8711,-46.4453 L 20.0729,-46.7634
 L 20.3131,-47.0536 L 20.5877,-47.3115 L 20.8925,-47.533 L 21.2227,-47.7145 L 21.5729,-47.8532 L 21.9379,-47.9469
 L 22.3116,-47.9941 L 22.6884,-47.9941 L 23.0621,-47.9469 L 23.427,-47.8532 L 23.7773,-47.7145 L 24.1075,-47.533
 L 24.4123,-47.3115 L 24.6869,-47.0536 L 24.927,-46.7634 L 25.1289,-46.4453 L 25.2893,-46.1044 L 25.4057,-45.7461
 L 25.4763,-45.376 L 25.5,-45 L 25.4763,-44.624 L 25.4057,-44.2539 L 25.2893,-43.8956 L 25.1289,-43.5547
 L 24.927,-43.2366 L 24.6869,-42.9464 L 24.4123,-42.6885 L 24.1075,-42.467 L 23.7773,-42.2855 L 23.427,-42.1468
 L 23.0621,-42.0531 L 22.6884,-42.0059 z
M -67.6884,-42.0059 L -68.0621,-42.0531 L -68.427,-42.1468 L -68.7773,-42.2855 L -69.1075,-42.467 L -69.4123,-42.6885
 L -69.6869,-42.9464 L -69.927,-43.2366 L -70.1289,-43.5547 L -70.2893,-43.8956 L -70.4057,-44.2539 L -70.4763,-44.624
 L -70.5,-45 L -70.4763,-45.376 L -70.4057,-45.7461 L -70.2893,-46.1044 L -70.1289,-46.4453 L -69.927,-46.7634
 L -69.6869,-47.0536 L -69.4123,-47.3115 L -69.1075,-47.533 L -68.7773,-47.7145 L -68.427,-47.8532 L -68.0621,-47.9469
 L -67.6884,-47.9941 L -67.3116,-47.9941 L -66.9379,-47.9469 L -66.573,-47.8532 L -66.2227,-47.7145 L -65.8925,-47.533
 L -65.5877,-47.3115 L -65.3131,-47.0536 L -65.073,-46.7634 L -64.8711,-46.4453 L -64.7107,-46.1044 L -64.5943,-45.7461
 L -64.5237,-45.376 L -64.5,-45 L -64.5237,-44.624 L -64.5943,-44.2539 L -64.7107,-43.8956 L -64.8711,-43.5547
 L -65.073,-43.2366 L -65.3131,-42.9464 L -65.5877,-42.6885 L -65.8925,-42.467 L -66.2227,-42.2855 L -66.573,-42.1468
 L -66.9379,-42.0531 L -67.3116,-42.0059 z
M -7.68837,-42.0059 L -8.06213,-42.0531 L -8.42705,-42.1468 L -8.77733,-42.2855 L -9.10747,-42.467 L -9.41226,-42.6885
 L -9.6869,-42.9464 L -9.92705,-43.2366 L -10.1289,-43.5547 L -10.2893,-43.8956 L -10.4057,-44.2539 L -10.4763,-44.624
 L -10.5,-45 L -10.4763,-45.376 L -10.4057,-45.7461 L -10.2893,-46.1044 L -10.1289,-46.4453 L -9.92705,-46.7634
 L -9.6869,-47.0536 L -9.41226,-47.3115 L -9.10747,-47.533 L -8.77733,-47.7145 L -8.42705,-47.8532 L -8.06213,-47.9469
 L -7.68837,-47.9941 L -7.31161,-47.9941 L -6.93785,-47.9469 L -6.57294,-47.8532 L -6.22266,-47.7145 L -5.89252,-47.533
 L -5.58772,-47.3115 L -5.31308,-47.0536 L -5.07294,-46.7634 L -4.87108,-46.4453 L -4.71066,-46.1044 L -4.59424,-45.7461
 L -4.52365,-45.376 L -4.5,-45 L -4.52365,-44.624 L -4.59424,-44.2539 L -4.71066,-43.8956 L -4.87108,-43.5547
 L -5.07294,-43.2366 L -5.31308,-42.9464 L -5.58772,-42.6885 L -5.89252,-42.467 L -6.22266,-42.2855 L -6.57294,-42.1468
 L -6.93785,-42.0531 L -7.31161,-42.0059 z
M -82.6884,-42.0059 L -83.0621,-42.0531 L -83.427,-42.1468 L -83.7773,-42.2855 L -84.1075,-42.467 L -84.4123,-42.6885
 L -84.6869,-42.9464 L -84.927,-43.2366 L -85.1289,-43.5547 L -85.2893,-43.8956 L -85.4057,-44.2539 L -85.4763,-44.624
 L -85.5,-45 L -85.4763,-45.376 L -85.4057,-45.7461 L -85.2893,-46.1044 L -85.1289,-46.4453 L -84.927,-46.7634
 L -84.6869,-47.0536 L -84.4123,-47.3115 L -84.1075,-47.533 L -83.7773,-47.7145 L -83.427,-47.8532 L -83.0621,-47.9469
 L -82.6884,-47.9941 L -82.3116,-47.9941 L -81.9379,-47.9469 L -81.573,-47.8532 L -81.2227,-47.7145 L -80.8925,-47.533
 L -80.5877,-47.3115 L -80.3131,-47.0536 L -80.073,-46.7634 L -79.8711,-46.4453 L -79.7107,-46.1044 L -79.5943,-45.7461
 L -79.5237,-45.376 L -79.5,-45 L -79.5237,-44.624 L -79.5943,-44.2539 L -79.7107,-43.8956 L -79.8711,-43.5547
 L -80.073,-43.2366 L -80.3131,-42.9464 L -80.5877,-42.6885 L -80.8925,-42.467 L -81.2227,-42.2855 L -81.573,-42.1468
 L -81.9379,-42.0531 L -82.3116,-42.0059 z
M -37.6884,-42.0059 L -38.0621,-42.0531 L -38.427,-42.1468 L -38.7773,-42.2855 L -39.1075,-42.467 L -39.4123,-42.6885
 L -39.6869,-42.9464 L -39.927,-43.2366 L -40.1289,-43.5547 L -40.2893,-43.8956 L -40.4057,-44.2539 L -40.4763,-44.624
 L -40.5,-45 L -40.4763,-45.376 L -40.4057,-45.7461 L -40.2893,-46.1044 L -40.1289,-46.4453 L -39.927,-46.7634
 L -39.6869,-47.0536 L -39.4123,-47.3115 L -39.1075,-47.533 L -38.7773,-47.7145 L -38.427,-47.8532 L -38.0621,-47.9469
 L -37.6884,-47.9941 L -37.3116,-47.9941 L -36.9379,-47.9469 L -36.5729,-47.8532 L -36.2227,-47.7145 L -35.8925,-47.533
 L -35.5877,-47.3115 L -35.3131,-47.0536 L -35.0729,-46.7634 L -34.8711,-46.4453 L -34.7107,-46.1044 L -34.5942,-45.7461
 L -34.5237,-45.376 L -34.5,-45 L -34.5237,-44.624 L -34.5942,-44.2539 L -34.7107,-43.8956 L -34.8711,-43.5547
 L -35.0729,-43.2366 L -35.3131,-42.9464 L -35.5877,-42.6885 L -35.8925,-42.467 L -36.2227,-42.2855 L -36.5729,-42.1468
 L -36.9379,-42.0531 L -37.3116,-42.0059 z
M 7.31161,-42.0059 L 6.93785,-42.0531 L 6.57294,-42.1468 L 6.22266,-42.2855 L 5.89252,-42.467 L 5.58772,-42.6885
 L 5.31308,-42.9464 L 5.07294,-43.2366 L 4.87108,-43.5547 L 4.71066,-43.8956 L 4.59424,-44.2539 L 4.52365,-44.624
 L 4.5,-45 L 4.52365,-45.376 L 4.59424,-45.7461 L 4.71066,-46.1044 L 4.87108,-46.4453 L 5.07294,-46.7634
 L 5.31308,-47.0536 L 5.58772,-47.3115 L 5.89252,-47.533 L 6.22266,-47.7145 L 6.57294,-47.8532 L 6.93785,-47.9469
 L 7.31161,-47.9941 L 7.68837,-47.9941 L 8.06213,-47.9469 L 8.42705,-47.8532 L 8.77733,-47.7145 L 9.10747,-47.533
 L 9.41226,-47.3115 L 9.6869,-47.0536 L 9.92705,-46.7634 L 10.1289,-46.4453 L 10.2893,-46.1044 L 10.4057,-45.7461
 L 10.4763,-45.376 L 10.5,-45 L 10.4763,-44.624 L 10.4057,-44.2539 L 10.2893,-43.8956 L 10.1289,-43.5547
 L 9.92705,-43.2366 L 9.6869,-42.9464 L 9.41226,-42.6885 L 9.10747,-42.467 L 8.77733,-42.2855 L 8.42705,-42.1468
 L 8.06213,-42.0531 L 7.68837,-42.0059 z
M 38.0621,-47.9469 L 38.427,-47.8532 L 38.7773,-47.7145 L 39.1075,-47.533 L 39.4123,-47.3115 L 39.6869,-47.0536
 L 39.927,-46.7634 L 40.1289,-46.4453 L 40.2893,-46.1044 L 40.4057,-45.7461 L 40.4763,-45.376 L 40.5,-45
 L 40.4763,-44.624 L 40.4057,-44.2539 L 40.2893,-43.8956 L 40.1289,-43.5547 L 39.927,-43.2366 L 39.6869,-42.9464
 L 39.4123,-42.6885 L 39.1075,-42.467 L 38.7773,-42.2855 L 38.427,-42.1468 L 38.0621,-42.0531 L 37.6884,-42.0059
 L 37.3116,-42.0059 L 36.9379,-42.0531 L 36.5729,-42.1468 L 36.2227,-42.2855 L 35.8925,-42.467 L 35.5877,-42.6885
 L 35.3131,-42.9464 L 35.0729,-43.2366 L 34.8711,-43.5547 L 34.7107,-43.8956 L 34.5942,-44.2539 L 34.5237,-44.624
 L 34.5,-45 L 34.5237,-45.376 L 34.5942,-45.7461 L 34.7107,-46.1044 L 34.8711,-46.4453 L 35.0729,-46.7634
 L 35.3131,-47.0536 L 35.5877,-47.3115 L 35.8925,-47.533 L 36.2227,-47.7145 L 36.5729,-47.8532 L 36.9379,-47.9469
 L 37.3116,-47.9941 L 37.6884,-47.9941 z
M 52.3116,-42.0059 L 51.9379,-42.0531 L 51.5729,-42.1468 L 51.2227,-42.2855 L 50.8925,-42.467 L 50.5877,-42.6885
 L 50.3131,-42.9464 L 50.0729,-43.2366 L 49.8711,-43.5547 L 49.7107,-43.8956 L 49.5942,-44.2539 L 49.5237,-44.624
 L 49.5,-45 L 49.5237,-45.376 L 49.5942,-45.7461 L 49.7107,-46.1044 L 49.8711,-46.4453 L 50.0729,-46.7634
 L 50.3131,-47.0536 L 50.5877,-47.3115 L 50.8925,-47.533 L 51.2227,-47.7145 L 51.5729,-47.8532 L 51.9379,-47.9469
 L 52.3116,-47.9941 L 52.6884,-47.9941 L 53.0621,-47.9469 L 53.427,-47.8532 L 53.7773,-47.7145 L 54.1075,-47.533
 L 54.4123,-47.3115 L 54.6869,-47.0536 L 54.927,-46.7634 L 55.1289,-46.4453 L 55.2893,-46.1044 L 55.4057,-45.7461
 L 55.4763,-45.376 L 55.5,-45 L 55.4763,-44.624 L 55.4057,-44.2539 L 55.2893,-43.8956 L 55.1289,-43.5547
 L 54.927,-43.2366 L 54.6869,-42.9464 L 54.4123,-42.6885 L 54.1075,-42.467 L 53.7773,-42.2855 L 53.427,-42.1468
 L 53.0621,-42.0531 L 52.6884,-42.0059 z
M -15.0942,-43.503 L -15.2811,-43.5266 L -15.4635,-43.5734 L -15.6387,-43.6428 L -15.8037,-43.7335 L -15.9561,-43.8442
 L -16.0934,-43.9732 L -16.2135,-44.1183 L -16.3145,-44.2774 L -16.3947,-44.4478 L -16.4529,-44.627 L -16.4882,-44.812
 L -16.5,-45 L -16.4882,-45.188 L -16.4529,-45.373 L -16.3947,-45.5522 L -16.3145,-45.7226 L -16.2135,-45.8817
 L -16.0934,-46.0268 L -15.9561,-46.1558 L -15.8037,-46.2665 L -15.6387,-46.3572 L -15.4635,-46.4266 L -15.2811,-46.4734
 L -15.0942,-46.497 L -14.9058,-46.497 L -14.7189,-46.4734 L -14.5365,-46.4266 L -14.3613,-46.3572 L -14.1963,-46.2665
 L -14.0439,-46.1558 L -13.9065,-46.0268 L -13.7865,-45.8817 L -13.6855,-45.7226 L -13.6053,-45.5522 L -13.5471,-45.373
 L -13.5118,-45.188 L -13.5,-45 L -13.5118,-44.812 L -13.5471,-44.627 L -13.6053,-44.4478 L -13.6855,-44.2774
 L -13.7865,-44.1183 L -13.9065,-43.9732 L -14.0439,-43.8442 L -14.1963,-43.7335 L -14.3613,-43.6428 L -14.5365,-43.5734
 L -14.7189,-43.5266 L -14.9058,-43.503 z
M -45.0942,-43.503 L -45.2811,-43.5266 L -45.4635,-43.5734 L -45.6387,-43.6428 L -45.8037,-43.7335 L -45.9561,-43.8442
 L -46.0934,-43.9732 L -46.2135,-44.1183 L -46.3145,-44.2774 L -46.3947,-44.4478 L -46.4529,-44.627 L -46.4882,-44.812
 L -46.5,-45 L -46.4882,-45.188 L -46.4529,-45.373 L -46.3947,-45.5522 L -46.3145,-45.7226 L -46.2135,-45.8817
 L -46.0934,-46.0268 L -45.9561,-46.1558 L -45.8037,-46.2665 L -45.6387,-46.3572 L -45.4635,-46.4266 L -45.2811,-46.4734
 L -45.0942,-46.497 L -44.9058,-46.497 L -44.7189,-46.4734 L -44.5365,-46.4266 L -44.3613,-46.3572 L -44.1963,-46.2665
 L -44.0439,-46.1558 L -43.9065,-46.0268 L -43.7865,-45.8817 L -43.6855,-45.7226 L -43.6053,-45.5522 L -43.5471,-45.373
 L -43.5118,-45.188 L -43.5,-45 L -43.5118,-44.812 L -43.5471,-44.627 L -43.6053,-44.4478 L -43.6855,-44.2774
 L -43.7865,-44.1183 L -43.9065,-43.9732 L -44.0439,-43.8442 L -44.1963,-43.7335 L -44.3613,-43.6428 L -44.5365,-43.5734
 L -44.7189,-43.5266 L -44.9058,-43.503 z
M -75.0942,-43.503 L -75.2811,-43.5266 L -75.4635,-43.5734 L -75.6387,-43.6428 L -75.8037,-43.7335 L -75.9561,-43.8442
 L -76.0934,-43.9732 L -76.2135,-44.1183 L -76.3145,-44.2774 L -76.3947,-44.4478 L -76.4529,-44.627 L -76.4882,-44.812
 L -76.5,-45 L -76.4882,-45.188 L -76.4529,-45.373 L -76.3947,-45.5522 L -76.3145,-45.7226 L -76.2135,-45.8817
 L -76.0934,-46.0268 L -75.9561,-46.1558 L -75.8037,-46.2665 L -75.6387,-46.3572 L -75.4635,-46.4266 L -75.2811,-46.4734
 L -75.0942,-46.497 L -74.9058,-46.497 L -74.7189,-46.4734 L -74.5365,-46.4266 L -74.3613,-46.3572 L -74.1963,-46.2665
 L -74.0439,-46.1558 L -73.9065,-46.0268 L -73.7865,-45.8817 L -73.6855,-45.7226 L -73.6053,-45.5522 L -73.5471,-45.373
 L -73.5118,-45.188 L -73.5,-45 L -73.5118,-44.812 L -73.5471,-44.627 L -73.6053,-44.4478 L -73.6855,-44.2774
 L -73.7865,-44.1183 L -73.9065,-43.9732 L -74.0439,-43.8442 L -74.1963,-43.7335 L -74.3613,-43.6428 L -74.5365,-43.5734
 L -74.7189,-43.5266 L -74.9058,-43.503 z
M -30.0942,-43.503 L -30.2811,-43.5266 L -30.4635,-43.5734 L -30.6387,-43.6428 L -30.8037,-43.7335 L -30.9561,-43.8442
 L -31.0934,-43.9732 L -31.2135,-44.1183 L -31.3145,-44.2774 L -31.3947,-44.4478 L -31.4529,-44.627 L -31.4882,-44.812
 L -31.5,-45 L -31.4882,-45.188 L -31.4529,-45.373 L -31.3947,-45.5522 L -31.3145,-45.7226 L -31.2135,-45.8817
 L -31.0934,-46.0268 L -30.9561,-46.1558 L -30.8037,-46.2665 L -30.6387,-46.3572 L -30.4635,-46.4266 L -30.2811,-46.4734
 L -30.0942,-46.497 L -29.9058,-46.497 L -29.7189,-46.4734 L -29.5365,-46.4266 L -29.3613,-46.3572 L -29.1963,-46.2665
 L -29.0439,-46.1558 L -28.9065,-46.0268 L -28.7865,-45.8817 L -28.6855,-45.7226 L -28.6053,-45.5522 L -28.5471,-45.373
 L -28.5118,-45.188 L -28.5,-45 L -28.5118,-44.812 L -28.5471,-44.627 L -28.6053,-44.4478 L -28.6855,-44.2774
 L -28.7865,-44.1183 L -28.9065,-43.9732 L -29.0439,-43.8442 L -29.1963,-43.7335 L -29.3613,-43.6428 L -29.5365,-43.5734
 L -29.7189,-43.5266 L -29.9058,-43.503 z
M -60.0942,-43.503 L -60.2811,-43.5266 L -60.4635,-43.5734 L -60.6387,-43.6428 L -60.8037,-43.7335 L -60.9561,-43.8442
 L -61.0934,-43.9732 L -61.2135,-44.1183 L -61.3145,-44.2774 L -61.3947,-44.4478 L -61.4529,-44.627 L -61.4882,-44.812
 L -61.5,-45 L -61.4882,-45.188 L -61.4529,-45.373 L -61.3947,-45.5522 L -61.3145,-45.7226 L -61.2135,-45.8817
 L -61.0934,-46.0268 L -60.9561,-46.1558 L -60.8037,-46.2665 L -60.6387,-46.3572 L -60.4635,-46.4266 L -60.2811,-46.4734
 L -60.0942,-46.497 L -59.9058,-46.497 L -59.7189,-46.4734 L -59.5365,-46.4266 L -59.3613,-46.3572 L -59.1963,-46.2665
 L -59.0439,-46.1558 L -58.9065,-46.0268 L -58.7865,-45.8817 L -58.6855,-45.7226 L -58.6053,-45.5522 L -58.5471,-45.373
 L -58.5118,-45.188 L -58.5,-45 L -58.5118,-44.812 L -58.5471,-44.627 L -58.6053,-44.4478 L -58.6855,-44.2774
 L -58.7865,-44.1183 L -58.9065,-43.9732 L -59.0439,-43.8442 L -59.1963,-43.7335 L -59.3613,-43.6428 L -59.5365,-43.5734
 L -59.7189,-43.5266 L -59.9058,-43.503 z
M 44.9058,-43.503 L 44.7189,-43.5266 L 44.5365,-43.5734 L 44.3613,-43.6428 L 44.1963,-43.7335 L 44.0439,-43.8442
 L 43.9065,-43.9732 L 43.7865,-44.1183 L 43.6855,-44.2774 L 43.6053,-44.4478 L 43.5471,-44.627 L 43.5118,-44.812
 L 43.5,-45 L 43.5118,-45.188 L 43.5471,-45.373 L 43.6053,-45.5522 L 43.6855,-45.7226 L 43.7865,-45.8817
 L 43.9065,-46.0268 L 44.0439,-46.1558 L 44.1963,-46.2665 L 44.3613,-46.3572 L 44.5365,-46.4266 L 44.7189,-46.4734
 L 44.9058,-46.497 L 45.0942,-46.497 L 45.2811,-46.4734 L 45.4635,-46.4266 L 45.6387,-46.3572 L 45.8037,-46.2665
 L 45.9561,-46.1558 L 46.0934,-46.0268 L 46.2135,-45.8817 L 46.3145,-45.7226 L 46.3947,-45.5522 L 46.4529,-45.373
 L 46.4882,-45.188 L 46.5,-45 L 46.4882,-44.812 L 46.4529,-44.627 L 46.3947,-44.4478 L 46.3145,-44.2774
 L 46.2135,-44.1183 L 46.0934,-43.9732 L 45.9561,-43.8442 L 45.8037,-43.7335 L 45.6387,-43.6428 L 45.4635,-43.5734
 L 45.2811,-43.5266 L 45.0942,-43.503 z
M 29.9058,-43.503 L 29.7189,-43.5266 L 29.5365,-43.5734 L 29.3613,-43.6428 L 29.1963,-43.7335 L 29.0439,-43.8442
 L 28.9065,-43.9732 L 28.7865,-44.1183 L 28.6855,-44.2774 L 28.6053,-44.4478 L 28.5471,-44.627 L 28.5118,-44.812
 L 28.5,-45 L 28.5118,-45.188 L 28.5471,-45.373 L 28.6053,-45.5522 L 28.6855,-45.7226 L 28.7865,-45.8817
 L 28.9065,-46.0268 L 29.0439,-46.1558 L 29.1963,-46.2665 L 29.3613,-46.3572 L 29.5365,-46.4266 L 29.7189,-46.4734
 L 29.9058,-46.497 L 30.0942,-46.497 L 30.2811,-46.4734 L 30.4635,-46.4266 L 30.6387,-46.3572 L 30.8037,-46.2665
 L 30.9561,-46.1558 L 31.0934,-46.0268 L 31.2135,-45.8817 L 31.3145,-45.7226 L 31.3947,-45.5522 L 31.4529,-45.373
 L 31.4882,-45.188 L 31.5,-45 L 31.4882,-44.812 L 31.4529,-44.627 L 31.3947,-44.4478 L 31.3145,-44.2774
 L 31.2135,-44.1183 L 31.0934,-43.9732 L 30.9561,-43.8442 L 30.8037,-43.7335 L 30.6387,-43.6428 L 30.4635,-43.5734
 L 30.2811,-43.5266 L 30.0942,-43.503 z
M -0.0941772,-43.503 L -0.281067,-43.5266 L -0.463516,-43.5734 L -0.638657,-43.6428 L -0.803726,-43.7335 L -0.956131,-43.8442
 L -1.09344,-43.9732 L -1.21352,-44.1183 L -1.31445,-44.2774 L -1.39465,-44.4478 L -1.45287,-44.627 L -1.48816,-44.812
 L -1.5,-45 L -1.48816,-45.188 L -1.45287,-45.373 L -1.39465,-45.5522 L -1.31445,-45.7226 L -1.21352,-45.8817
 L -1.09344,-46.0268 L -0.956131,-46.1558 L -0.803726,-46.2665 L -0.638657,-46.3572 L -0.463516,-46.4266 L -0.281067,-46.4734
 L -0.0941772,-46.497 L 0.0941772,-46.497 L 0.281067,-46.4734 L 0.463516,-46.4266 L 0.638657,-46.3572 L 0.803726,-46.2665
 L 0.956131,-46.1558 L 1.09344,-46.0268 L 1.21352,-45.8817 L 1.31445,-45.7226 L 1.39465,-45.5522 L 1.45287,-45.373
 L 1.48816,-45.188 L 1.5,-45 L 1.48816,-44.812 L 1.45287,-44.627 L 1.39465,-44.4478 L 1.31445,-44.2774
 L 1.21352,-44.1183 L 1.09344,-43.9732 L 0.956131,-43.8442 L 0.803726,-43.7335 L 0.638657,-43.6428 L 0.463516,-43.5734
 L 0.281067,-43.5266 L 0.0941772,-43.503 z
M 74.9058,-43.503 L 74.7189,-43.5266 L 74.5365,-43.5734 L 74.3613,-43.6428 L 74.1963,-43.7335 L 74.0439,-43.8442
 L 73.9065,-43.9732 L 73.7865,-44.1183 L 73.6855,-44.2774 L 73.6053,-44.4478 L 73.5471,-44.627 L 73.5118,-44.812
 L 73.5,-45 L 73.5118,-45.188 L 73.5471,-45.373 L 73.6053,-45.5522 L 73.6855,-45.7226 L 73.7865,-45.8817
 L 73.9065,-46.0268 L 74.0439,-46.1558 L 74.1963,-46.2665 L 74.3613,-46.3572 L 74.5365,-46.4266 L 74.7189,-46.4734
 L 74.9058,-46.497 L 75.0942,-46.497 L 75.2811,-46.4734 L 75.4635,-46.4266 L 75.6387,-46.3572 L 75.8037,-46.2665
 L 75.9561,-46.1558 L 76.0934,-46.0268 L 76.2135,-45.8817 L 76.3145,-45.7226 L 76.3947,-45.5522 L 76.4529,-45.373
 L 76.4882,-45.188 L 76.5,-45 L 76.4882,-44.812 L 76.4529,-44.627 L 76.3947,-44.4478 L 76.3145,-44.2774
 L 76.2135,-44.1183 L 76.0934,-43.9732 L 75.9561,-43.8442 L 75.8037,-43.7335 L 75.6387,-43.6428 L 75.4635,-43.5734
 L 75.2811,-43.5266 L 75.0942,-43.503 z
M 14.9058,-43.503 L 14.7189,-43.5266 L 14.5365,-43.5734 L 14.3613,-43.6428 L 14.1963,-43.7335 L 14.0439,-43.8442
 L 13.9065,-43.9732 L 13.7865,-44.1183 L 13.6855,-44.2774 L 13.6053,-44.4478 L 13.5471,-44.627 L 13.5118,-44.812
 L 13.5,-45 L 13.5118,-45.188 L 13.5471,-45.373 L 13.6053,-45.5522 L 13.6855,-45.7226 L 13.7865,-45.8817
 L 13.9065,-46.0268 L 14.0439,-46.1558 L 14.1963,-46.2665 L 14.3613,-46.3572 L 14.5365,-46.4266 L 14.7189,-46.4734
 L 14.9058,-46.497 L 15.0942,-46.497 L 15.2811,-46.4734 L 15.4635,-46.4266 L 15.6387,-46.3572 L 15.8037,-46.2665
 L 15.9561,-46.1558 L 16.0934,-46.0268 L 16.2135,-45.8817 L 16.3145,-45.7226 L 16.3947,-45.5522 L 16.4529,-45.373
 L 16.4882,-45.188 L 16.5,-45 L 16.4882,-44.812 L 16.4529,-44.627 L 16.3947,-44.4478 L 16.3145,-44.2774
 L 16.2135,-44.1183 L 16.0934,-43.9732 L 15.9561,-43.8442 L 15.8037,-43.7335 L 15.6387,-43.6428 L 15.4635,-43.5734
 L 15.2811,-43.5266 L 15.0942,-43.503 z
M 59.9058,-43.503 L 59.7189,-43.5266 L 59.5365,-43.5734 L 59.3613,-43.6428 L 59.1963,-43.7335 L 59.0439,-43.8442
 L 58.9065,-43.9732 L 58.7865,-44.1183 L 58.6855,-44.2774 L 58.6053,-44.4478 L 58.5471,-44.627 L 58.5118,-44.812
 L 58.5,-45 L 58.5118,-45.188 L 58.5471,-45.373 L 58.6053,-45.5522 L 58.6855,-45.7226 L 58.7865,-45.8817
 L 58.9065,-46.0268 L 59.0439,-46.1558 L 59.1963,-46.2665 L 59.3613,-46.3572 L 59.5365,-46.4266 L 59.7189,-46.4734
 L 59.9058,-46.497 L 60.0942,-46.497 L 60.2811,-46.4734 L 60.4635,-46.4266 L 60.6387,-46.3572 L 60.8037,-46.2665
 L 60.9561,-46.1558 L 61.0934,-46.0268 L 61.2135,-45.8817 L 61.3145,-45.7226 L 61.3947,-45.5522 L 61.4529,-45.373
 L 61.4882,-45.188 L 61.5,-45 L 61.4882,-44.812 L 61.4529,-44.627 L 61.3947,-44.4478 L 61.3145,-44.2774
 L 61.2135,-44.1183 L 61.0934,-43.9732 L 60.9561,-43.8442 L 60.8037,-43.7335 L 60.6387,-43.6428 L 60.4635,-43.5734
 L 60.2811,-43.5266 L 60.0942,-43.503 z
M -43.9488,38.923 L -48.8079,38.3092 L -53.5517,37.0912 L -58.1054,35.2883 L -62.3972,32.9288 L -66.3595,30.05
 L -69.9298,26.6973 L -73.0517,22.9236 L -75.6759,18.7884 L -77.7613,14.3569 L -79.2747,9.6989 L -80.1925,4.88799
 L -80.5,-0 L -80.1925,-4.88799 L -79.2747,-9.6989 L -77.7613,-14.3569 L -75.6759,-18.7884 L -73.0517,-22.9236
 L -69.9298,-26.6973 L -66.3595,-30.05 L -62.3972,-32.9288 L -58.1054,-35.2883 L -53.5517,-37.0912 L -48.8079,-38.3092
 L -43.9488,-38.923 L -39.0512,-38.923 L -34.1921,-38.3092 L -29.4483,-37.0912 L -24.8946,-35.2883 L -20.6028,-32.9288
 L -16.6405,-30.05 L -13.0702,-26.6973 L -9.94833,-22.9236 L -7.32404,-18.7884 L -5.23871,-14.3569 L -3.72525,-9.6989
 L -2.80753,-4.88799 L -2.5,-0 L -2.80753,4.88799 L -3.72525,9.6989 L -5.23871,14.3569 L -7.32404,18.7884
 L -9.94833,22.9236 L -13.0702,26.6973 L -16.6405,30.05 L -20.6028,32.9288 L -24.8946,35.2883 L -29.4483,37.0912
 L -34.1921,38.3092 L -39.0512,38.923 z
M 39.0512,38.923 L 34.1921,38.3092 L 29.4483,37.0912 L 24.8946,35.2883 L 20.6028,32.9288 L 16.6405,30.05
 L 13.0702,26.6973 L 9.94833,22.9236 L 7.32404,18.7884 L 5.23871,14.3569 L 3.72525,9.6989 L 2.80753,4.88799
 L 2.5,-0 L 2.80753,-4.88799 L 3.72525,-9.6989 L 5.23871,-14.3569 L 7.32404,-18.7884 L 9.94833,-22.9236
 L 13.0702,-26.6973 L 16.6405,-30.05 L 20.6028,-32.9288 L 24.8946,-35.2883 L 29.4483,-37.0912 L 34.1921,-38.3092
 L 39.0512,-38.923 L 43.9488,-38.923 L 48.8079,-38.3092 L 53.5517,-37.0912 L 58.1054,-35.2883 L 62.3972,-32.9288
 L 66.3595,-30.05 L 69.9298,-26.6973 L 73.0517,-22.9236 L 75.6759,-18.7884 L 77.7613,-14.3569 L 79.2747,-9.6989
 L 80.1925,-4.88799 L 80.5,-0 L 80.1925,4.88799 L 79.2747,9.6989 L 77.7613,14.3569 L 75.6759,18.7884
 L 73.0517,22.9236 L 69.9298,26.6973 L 66.3595,30.05 L 62.3972,32.9288 L 58.1054,35.2883 L 53.5517,37.0912
 L 48.8079,38.3092 L 43.9488,38.923 z
M 37.3116,47.9941 L 36.9379,47.9469 L 36.5729,47.8532 L 36.2227,47.7145 L 35.8925,47.533 L 35.5877,47.3115
 L 35.3131,47.0536 L 35.0729,46.7634 L 34.8711,46.4453 L 34.7107,46.1044 L 34.5942,45.7461 L 34.5237,45.376
 L 34.5,45 L 34.5237,44.624 L 34.5942,44.2539 L 34.7107,43.8956 L 34.8711,43.5547 L 35.0729,43.2366
 L 35.3131,42.9464 L 35.5877,42.6885 L 35.8925,42.467 L 36.2227,42.2855 L 36.5729,42.1468 L 36.9379,42.0531
 L 37.3116,42.0059 L 37.6884,42.0059 L 38.0621,42.0531 L 38.427,42.1468 L 38.7773,42.2855 L 39.1075,42.467
 L 39.4123,42.6885 L 39.6869,42.9464 L 39.927,43.2366 L 40.1289,43.5547 L 40.2893,43.8956 L 40.4057,44.2539
 L 40.4763,44.624 L 40.5,45 L 40.4763,45.376 L 40.4057,45.7461 L 40.2893,46.1044 L 40.1289,46.4453
 L 39.927,46.7634 L 39.6869,47.0536 L 39.4123,47.3115 L 39.1075,47.533 L 38.7773,47.7145 L 38.427,47.8532
 L 38.0621,47.9469 L 37.6884,47.9941 z
M 82.3116,47.9941 L 81.9379,47.9469 L 81.573,47.8532 L 81.2227,47.7145 L 80.8925,47.533 L 80.5877,47.3115
 L 80.3131,47.0536 L 80.073,46.7634 L 79.8711,46.4453 L 79.7107,46.1044 L 79.5943,45.7461 L 79.5237,45.376
 L 79.5,45 L 79.5237,44.624 L 79.5943,44.2539 L 79.7107,43.8956 L 79.8711,43.5547 L 80.073,43.2366
 L 80.3131,42.9464 L 80.5877,42.6885 L 80.8925,42.467 L 81.2227,42.2855 L 81.573,42.1468 L 81.9379,42.0531
 L 82.3116,42.0059 L 82.6884,42.0059 L 83.0621,42.0531 L 83.427,42.1468 L 83.7773,42.2855 L 84.1075,42.467
 L 84.4123,42.6885 L 84.6869,42.9464 L 84.927,43.2366 L 85.1289,43.5547 L 85.2893,43.8956 L 85.4057,44.2539
 L 85.4763,44.624 L 85.5,45 L 85.4763,45.376 L 85.4057,45.7461 L 85.2893,46.1044 L 85.1289,46.4453
 L 84.927,46.7634 L 84.6869,47.0536 L 84.4123,47.3115 L 84.1075,47.533 L 83.7773,47.7145 L 83.427,47.8532
 L 83.0621,47.9469 L 82.6884,47.9941 z
M -52.6884,47.9941 L -53.0621,47.9469 L -53.427,47.8532 L -53.7773,47.7145 L -54.1075,47.533 L -54.4123,47.3115
 L -54.6869,47.0536 L -54.927,46.7634 L -55.1289,46.4453 L -55.2893,46.1044 L -55.4057,45.7461 L -55.4763,45.376
 L -55.5,45 L -55.4763,44.624 L -55.4057,44.2539 L -55.2893,43.8956 L -55.1289,43.5547 L -54.927,43.2366
 L -54.6869,42.9464 L -54.4123,42.6885 L -54.1075,42.467 L -53.7773,42.2855 L -53.427,42.1468 L -53.0621,42.0531
 L -52.6884,42.0059 L -52.3116,42.0059 L -51.9379,42.0531 L -51.5729,42.1468 L -51.2227,42.2855 L -50.8925,42.467
 L -50.5877,42.6885 L -50.3131,42.9464 L -50.0729,43.2366 L -49.8711,43.5547 L -49.7107,43.8956 L -49.5942,44.2539
 L -49.5237,44.624 L -49.5,45 L -49.5237,45.376 L -49.5942,45.7461 L -49.7107,46.1044 L -49.8711,46.4453
 L -50.0729,46.7634 L -50.3131,47.0536 L -50.5877,47.3115 L -50.8925,47.533 L -51.2227,47.7145 L -51.5729,47.8532
 L -51.9379,47.9469 L -52.3116,47.9941 z
M 7.31161,47.9941 L 6.93785,47.9469 L 6.57294,47.8532 L 6.22266,47.7145 L 5.89252,47.533 L 5.58772,47.3115
 L 5.31308,47.0536 L 5.07294,46.7634 L 4.87108,46.4453 L 4.71066,46.1044 L 4.59424,45.7461 L 4.52365,45.376
 L 4.5,45 L 4.52365,44.624 L 4.59424,44.2539 L 4.71066,43.8956 L 4.87108,43.5547 L 5.07294,43.2366
 L 5.31308,42.9464 L 5.58772,42.6885 L 5.89252,42.467 L 6.22266,42.2855 L 6.57294,42.1468 L 6.93785,42.0531
 L 7.31161,42.0059 L 7.68837,42.0059 L 8.06213,42.0531 L 8.42705,42.1468 L 8.77733,42.2855 L 9.10747,42.467
 L 9.41226,42.6885 L 9.6869,42.9464 L 9.92705,43.2366 L 10.1289,43.5547 L 10.2893,43.8956 L 10.4057,44.2539
 L 10.4763,44.624 L 10.5,45 L 10.4763,45.376 L 10.4057,45.7461 L 10.2893,46.1044 L 10.1289,46.4453
 L 9.92705,46.7634 L 9.6869,47.0536 L 9.41226,47.3115 L 9.10747,47.533 L 8.77733,47.7145 L 8.42705,47.8532
 L 8.06213,47.9469 L 7.68837,47.9941 z
M -37.6884,47.9941 L -38.0621,47.9469 L -38.427,47.8532 L -38.7773,47.7145 L -39.1075,47.533 L -39.4123,47.3115
 L -39.6869,47.0536 L -39.927,46.7634 L -40.1289,46.4453 L -40.2893,46.1044 L -40.4057,45.7461 L -40.4763,45.376
 L -40.5,45 L -40.4763,44.624 L -40.4057,44.2539 L -40.2893,43.8956 L -40.1289,43.5547 L -39.927,43.2366
 L -39.6869,42.9464 L -39.4123,42.6885 L -39.1075,42.467 L -38.7773,42.2855 L -38.427,42.1468 L -38.0621,42.0531
 L -37.6884,42.0059 L -37.3116,42.0059 L -36.9379,42.0531 L -36.5729,42.1468 L -36.2227,42.2855 L -35.8925,42.467
 L -35.5877,42.6885 L -35.3131,42.9464 L -35.0729,43.2366 L -34.8711,43.5547 L -34.7107,43.8956 L -34.5942,44.2539
 L -34.5237,44.624 L -34.5,45 L -34.5237,45.376 L -34.5942,45.7461 L -34.7107,46.1044 L -34.8711,46.4453
 L -35.0729,46.7634 L -35.3131,47.0536 L -35.5877,47.3115 L -35.8925,47.533 L -36.2227,47.7145 L -36.5729,47.8532
 L -36.9379,47.9469 L -37.3116,47.9941 z
M -7.68837,47.9941 L -8.06213,47.9469 L -8.42705,47.8532 L -8.77733,47.7145 L -9.10747,47.533 L -9.41226,47.3115
 L -9.6869,47.0536 L -9.92705,46.7634 L -10.1289,46.4453 L -10.2893,46.1044 L -10.4057,45.7461 L -10.4763,45.376
 L -10.5,45 L -10.4763,44.624 L -10.4057,44.2539 L -10.2893,43.8956 L -10.1289,43.5547 L -9.92705,43.2366
 L -9.6869,42.9464 L -9.41226,42.6885 L -9.10747,42.467 L -8.77733,42.2855 L -8.42705,42.1468 L -8.06213,42.0531
 L -7.68837,42.0059 L -7.31161,42.0059 L -6.93785,42.0531 L -6.57294,42.1468 L -6.22266,42.2855 L -5.89252,42.467
 L -5.58772,42.6885 L -5.31308,42.9464 L -5.07294,43.2366 L -4.87108,43.5547 L -4.71066,43.8956 L -4.59424,44.2539
 L -4.52365,44.624 L -4.5,45 L -4.52365,45.376 L -4.59424,45.7461 L -4.71066,46.1044 L -4.87108,46.4453
 L -5.07294,46.7634 L -5.31308,47.0536 L -5.58772,47.3115 L -5.89252,47.533 L -6.22266,47.7145 L -6.57294,47.8532
 L -6.93785,47.9469 L -7.31161,47.9941 z
M 22.3116,47.9941 L 21.9379,47.9469 L 21.5729,47.8532 L 21.2227,47.7145 L 20.8925,47.533 L 20.5877,47.3115
 L 20.3131,47.0536 L 20.0729,46.7634 L 19.8711,46.4453 L 19.7107,46.1044 L 19.5942,45.7461 L 19.5237,45.376
 L 19.5,45 L 19.5237,44.624 L 19.5942,44.2539 L 19.7107,43.8956 L 19.8711,43.5547 L 20.0729,43.2366
 L 20.3131,42.9464 L 20.5877,42.6885 L 20.8925,42.467 L 21.2227,42.2855 L 21.5729,42.1468 L 21.9379,42.0531
 L 22.3116,42.0059 L 22.6884,42.0059 L 23.0621,42.0531 L 23.427,42.1468 L 23.7773,42.2855 L 24.1075,42.467
 L 24.4123,42.6885 L 24.6869,42.9464 L 24.927,43.2366 L 25.1289,43.5547 L 25.2893,43.8956 L 25.4057,44.2539
 L 25.4763,44.624 L 25.5,45 L 25.4763,45.376 L 25.4057,45.7461 L 25.2893,46.1044 L 25.1289,46.4453
 L 24.927,46.7634 L 24.6869,47.0536 L 24.4123,47.3115 L 24.1075,47.533 L 23.7773,47.7145 L 23.427,47.8532
 L 23.0621,47.9469 L 22.6884,47.9941 z
M 52.3116,47.9941 L 51.9379,47.9469 L 51.5729,47.8532 L 51.2227,47.7145 L 50.8925,47.533 L 50.5877,47.3115
 L 50.3131,47.0536 L 50.0729,46.7634 L 49.8711,46.4453 L 49.7107,46.1044 L 49.5942,45.7461 L 49.5237,45.376
 L 49.5,45 L 49.5237,44.624 L 49.5942,44.2539 L 49.7107,43.8956 L 49.8711,43.5547 L 50.0729,43.2366
 L 50.3131,42.9464 L 50.5877,42.6885 L 50.8925,42.467 L 51.2227,42.2855 L 51.5729,42.1468 L 51.9379,42.0531
 L 52.3116,42.0059 L 52.6884,42.0059 L 53.0621,42.0531 L 53.427,42.1468 L 53.7773,42.2855 L 54.1075,42.467
 L 54.4123,42.6885 L 54.6869,42.9464 L 54.927,43.2366 L 55.1289,43.5547 L 55.2893,43.8956 L 55.4057,44.2539
 L 55.4763,44.624 L 55.5,45 L 55.4763,45.376 L 55.4057,45.7461 L 55.2893,46.1044 L 55.1289,46.4453
 L 54.927,46.7634 L 54.6869,47.0536 L 54.4123,47.3115 L 54.1075,47.533 L 53.7773,47.7145 L 53.427,47.8532
 L 53.0621,47.9469 L 52.6884,47.9941 z
M -82.6884,47.9941 L -83.0621,47.9469 L -83.427,47.8532 L -83.7773,47.7145 L -84.1075,47.533 L -84.4123,47.3115
 L -84.6869,47.0536 L -84.927,46.7634 L -85.1289,46.4453 L -85.2893,46.1044 L -85.4057,45.7461 L -85.4763,45.376
 L -85.5,45 L -85.4763,44.624 L -85.4057,44.2539 L -85.2893,43.8956 L -85.1289,43.5547 L -84.927,43.2366
 L -84.6869,42.9464 L -84.4123,42.6885 L -84.1075,42.467 L -83.7773,42.2855 L -83.427,42.1468 L -83.0621,42.0531
 L -82.6884,42.0059 L -82.3116,42.0059 L -81.9379,42.0531 L -81.573,42.1468 L -81.2227,42.2855 L -80.8925,42.467
 L -80.5877,42.6885 L -80.3131,42.9464 L -80.073,43.2366 L -79.8711,43.5547 L -79.7107,43.8956 L -79.5943,44.2539
 L -79.5237,44.624 L -79.5,45 L -79.5237,45.376 L -79.5943,45.7461 L -79.7107,46.1044 L -79.8711,46.4453
 L -80.073,46.7634 L -80.3131,47.0536 L -80.5877,47.3115 L -80.8925,47.533 L -81.2227,47.7145 L -81.573,47.8532
 L -81.9379,47.9469 L -82.3116,47.9941 z
M -22.6884,47.9941 L -23.0621,47.9469 L -23.427,47.8532 L -23.7773,47.7145 L -24.1075,47.533 L -24.4123,47.3115
 L -24.6869,47.0536 L -24.927,46.7634 L -25.1289,46.4453 L -25.2893,46.1044 L -25.4057,45.7461 L -25.4763,45.376
 L -25.5,45 L -25.4763,44.624 L -25.4057,44.2539 L -25.2893,43.8956 L -25.1289,43.5547 L -24.927,43.2366
 L -24.6869,42.9464 L -24.4123,42.6885 L -24.1075,42.467 L -23.7773,42.2855 L -23.427,42.1468 L -23.0621,42.0531
 L -22.6884,42.0059 L -22.3116,42.0059 L -21.9379,42.0531 L -21.5729,42.1468 L -21.2227,42.2855 L -20.8925,42.467
 L -20.5877,42.6885 L -20.3131,42.9464 L -20.0729,43.2366 L -19.8711,43.5547 L -19.7107,43.8956 L -19.5942,44.2539
 L -19.5237,44.624 L -19.5,45 L -19.5237,45.376 L -19.5942,45.7461 L -19.7107,46.1044 L -19.8711,46.4453
 L -20.0729,46.7634 L -20.3131,47.0536 L -20.5877,47.3115 L -20.8925,47.533 L -21.2227,47.7145 L -21.5729,47.8532
 L -21.9379,47.9469 L -22.3116,47.9941 z
M -67.6884,47.9941 L -68.0621,47.9469 L -68.427,47.8532 L -68.7773,47.7145 L -69.1075,47.533 L -69.4123,47.3115
 L -69.6869,47.0536 L -69.927,46.7634 L -70.1289,46.4453 L -70.2893,46.1044 L -70.4057,45.7461 L -70.4763,45.376
 L -70.5,45 L -70.4763,44.624 L -70.4057,44.2539 L -70.2893,43.8956 L -70.1289,43.5547 L -69.927,43.2366
 L -69.6869,42.9464 L -69.4123,42.6885 L -69.1075,42.467 L -68.7773,42.2855 L -68.427,42.1468 L -68.0621,42.0531
 L -67.6884,42.0059 L -67.3116,42.0059 L -66.9379,42.0531 L -66.573,42.1468 L -66.2227,42.2855 L -65.8925,42.467
 L -65.5877,42.6885 L -65.3131,42.9464 L -65.073,43.2366 L -64.8711,43.5547 L -64.7107,43.8956 L -64.5943,44.2539
 L -64.5237,44.624 L -64.5,45 L -64.5237,45.376 L -64.5943,45.7461 L -64.7107,46.1044 L -64.8711,46.4453
 L -65.073,46.7634 L -65.3131,47.0536 L -65.5877,47.3115 L -65.8925,47.533 L -66.2227,47.7145 L -66.573,47.8532
 L -66.9379,47.9469 L -67.3116,47.9941 z
M 67.3116,47.9941 L 66.9379,47.9469 L 66.573,47.8532 L 66.2227,47.7145 L 65.8925,47.533 L 65.5877,47.3115
 L 65.3131,47.0536 L 65.073,46.7634 L 64.8711,46.4453 L 64.7107,46.1044 L 64.5943,45.7461 L 64.5237,45.376
 L 64.5,45 L 64.5237,44.624 L 64.5943,44.2539 L 64.7107,43.8956 L 64.8711,43.5547 L 65.073,43.2366
 L 65.3131,42.9464 L 65.5877,42.6885 L 65.8925,42.467 L 66.2227,42.2855 L 66.573,42.1468 L 66.9379,42.0531
 L 67.3116,42.0059 L 67.6884,42.0059 L 68.0621,42.0531 L 68.427,42.1468 L 68.7773,42.2855 L 69.1075,42.467
 L 69.4123,42.6885 L 69.6869,42.9464 L 69.927,43.2366 L 70.1289,43.5547 L 70.2893,43.8956 L 70.4057,44.2539
 L 70.4763,44.624 L 70.5,45 L 70.4763,45.376 L 70.4057,45.7461 L 70.2893,46.1044 L 70.1289,46.4453
 L 69.927,46.7634 L 69.6869,47.0536 L 69.4123,47.3115 L 69.1075,47.533 L 68.7773,47.7145 L 68.427,47.8532
 L 68.0621,47.9469 L 67.6884,47.9941 z
M 29.9058,46.497 L 29.7189,46.4734 L 29.5365,46.4266 L 29.3613,46.3572 L 29.1963,46.2665 L 29.0439,46.1558
 L 28.9065,46.0268 L 28.7865,45.8817 L 28.6855,45.7226 L 28.6053,45.5522 L 28.5471,45.373 L 28.5118,45.188
 L 28.5,45 L 28.5118,44.812 L 28.5471,44.627 L 28.6053,44.4478 L 28.6855,44.2774 L 28.7865,44.1183
 L 28.9065,43.9732 L 29.0439,43.8442 L 29.1963,43.7335 L 29.3613,43.6428 L 29.5365,43.5734 L 29.7189,43.5266
 L 29.9058,43.503 L 30.0942,43.503 L 30.2811,43.5266 L 30.4635,43.5734 L 30.6387,43.6428 L 30.8037,43.7335
 L 30.9561,43.8442 L 31.0934,43.9732 L 31.2135,44.1183 L 31.3145,44.2774 L 31.3947,44.4478 L 31.4529,44.627
 L 31.4882,44.812 L 31.5,45 L 31.4882,45.188 L 31.4529,45.373 L 31.3947,45.5522 L 31.3145,45.7226
 L 31.2135,45.8817 L 31.0934,46.0268 L 30.9561,46.1558 L 30.8037,46.2665 L 30.6387,46.3572 L 30.4635,46.4266
 L 30.2811,46.4734 L 30.0942,46.497 z
M -60.0942,46.497 L -60.2811,46.4734 L -60.4635,46.4266 L -60.6387,46.3572 L -60.8037,46.2665 L -60.9561,46.1558
 L -61.0934,46.0268 L -61.2135,45.8817 L -61.3145,45.7226 L -61.3947,45.5522 L -61.4529,45.373 L -61.4882,45.188
 L -61.5,45 L -61.4882,44.812 L -61.4529,44.627 L -61.3947,44.4478 L -61.3145,44.2774 L -61.2135,44.1183
 L -61.0934,43.9732 L -60.9561,43.8442 L -60.8037,43.7335 L -60.6387,43.6428 L -60.4635,43.5734 L -60.2811,43.5266
 L -60.0942,43.503 L -59.9058,43.503 L -59.7189,43.5266 L -59.5365,43.5734 L -59.3613,43.6428 L -59.1963,43.7335
 L -59.0439,43.8442 L -58.9065,43.9732 L -58.7865,44.1183 L -58.6855,44.2774 L -58.6053,44.4478 L -58.5471,44.627
 L -58.5118,44.812 L -58.5,45 L -58.5118,45.188 L -58.5471,45.373 L -58.6053,45.5522 L -58.6855,45.7226
 L -58.7865,45.8817 L -58.9065,46.0268 L -59.0439,46.1558 L -59.1963,46.2665 L -59.3613,46.3572 L -59.5365,46.4266
 L -59.7189,46.4734 L -59.9058,46.497 z
M 14.9058,46.497 L 14.7189,46.4734 L 14.5365,46.4266 L 14.3613,46.3572 L 14.1963,46.2665 L 14.0439,46.1558
 L 13.9065,46.0268 L 13.7865,45.8817 L 13.6855,45.7226 L 13.6053,45.5522 L 13.5471,45.373 L 13.5118,45.188
 L 13.5,45 L 13.5118,44.812 L 13.5471,44.627 L 13.6053,44.4478 L 13.6855,44.2774 L 13.7865,44.1183
 L 13.9065,43.9732 L 14.0439,43.8442 L 14.1963,43.7335 L 14.3613,43.6428 L 14.5365,43.5734 L 14.7189,43.5266
 L 14.9058,43.503 L 15.0942,43.503 L 15.2811,43.5266 L 15.4635,43.5734 L 15.6387,43.6428 L 15.8037,43.7335
 L 15.9561,43.8442 L 16.0934,43.9732 L 16.2135,44.1183 L 16.3145,44.2774 L 16.3947,44.4478 L 16.4529,44.627
 L 16.4882,44.812 L 16.5,45 L 16.4882,45.188 L 16.4529,45.373 L 16.3947,45.5522 L 16.3145,45.7226
 L 16.2135,45.8817 L 16.0934,46.0268 L 15.9561,46.1558 L 15.8037,46.2665 L 15.6387,46.3572 L 15.4635,46.4266
 L 15.2811,46.4734 L 15.0942,46.497 z
M 59.9058,46.497 L 59.7189,46.4734 L 59.5365,46.4266 L 59.3613,46.3572 L 59.1963,46.2665 L 59.0439,46.1558
 L 58.9065,46.0268 L 58.7865,45.8817 L 58.6855,45.7226 L 58.6053,45.5522 L 58.5471,45.373 L 58.5118,45.188
 L 58.5,45 L 58.5118,44.812 L 58.5471,44.627 L 58.6053,44.4478 L 58.6855,44.2774 L 58.7865,44.1183
 L 58.9065,43.9732 L 59.0439,43.8442 L 59.1963,43.7335 L 59.3613,43.6428 L 59.5365,43.5734 L 59.7189,43.5266
 L 59.9058,43.503 L 60.0942,43.503 L 60.2811,43.5266 L 60.4635,43.5734 L 60.6387,43.6428 L 60.8037,43.7335
 L 60.9561,43.8442 L 61.0934,43.9732 L 61.2135,44.1183 L 61.3145,44.2774 L 61.3947,44.4478 L 61.4529,44.627
 L 61.4882,44.812 L 61.5,45 L 61.4882,45.188 L 61.4529,45.373 L 61.3947,45.5522 L 61.3145,45.7226
 L 61.2135,45.8817 L 61.0934,46.0268 L 60.9561,46.1558 L 60.8037,46.2665 L 60.6387,46.3572 L 60.4635,46.4266
 L 60.2811,46.4734 L 60.0942,46.497 z
M -45.0942,46.497 L -45.2811,46.4734 L -45.4635,46.4266 L -45.6387,46.3572 L -45.8037,46.2665 L -45.9561,46.1558
 L -46.0934,46.0268 L -46.2135,45.8817 L -46.3145,45.7226 L -46.3947,45.5522 L -46.4529,45.373 L -46.4882,45.188
 L -46.5,45 L -46.4882,44.812 L -46.4529,44.627 L -46.3947,44.4478 L -46.3145,44.2774 L -46.2135,44.1183
 L -46.0934,43.9732 L -45.9561,43.8442 L -45.8037,43.7335 L -45.6387,43.6428 L -45.4635,43.5734 L -45.2811,43.5266
 L -45.0942,43.503 L -44.9058,43.503 L -44.7189,43.5266 L -44.5365,43.5734 L -44.3613,43.6428 L -44.1963,43.7335
 L -44.0439,43.8442 L -43.9065,43.9732 L -43.7865,44.1183 L -43.6855,44.2774 L -43.6053,44.4478 L -43.5471,44.627
 L -43.5118,44.812 L -43.5,45 L -43.5118,45.188 L -43.5471,45.373 L -43.6053,45.5522 L -43.6855,45.7226
 L -43.7865,45.8817 L -43.9065,46.0268 L -44.0439,46.1558 L -44.1963,46.2665 L -44.3613,46.3572 L -44.5365,46.4266
 L -44.7189,46.4734 L -44.9058,46.497 z
M -0.0941772,46.497 L -0.281067,46.4734 L -0.463516,46.4266 L -0.638657,46.3572 L -0.803726,46.2665 L -0.956131,46.1558
 L -1.09344,46.0268 L -1.21352,45.8817 L -1.31445,45.7226 L -1.39465,45.5522 L -1.45287,45.373 L -1.48816,45.188
 L -1.5,45 L -1.48816,44.812 L -1.45287,44.627 L -1.39465,44.4478 L -1.31445,44.2774 L -1.21352,44.1183
 L -1.09344,43.9732 L -0.956131,43.8442 L -0.803726,43.7335 L -0.638657,43.6428 L -0.463516,43.5734 L -0.281067,43.5266
 L -0.0941772,43.503 L 0.0941772,43.503 L 0.281067,43.5266 L 0.463516,43.5734 L 0.638657,43.6428 L 0.803726,43.7335
 L 0.956131,43.8442 L 1.09344,43.9732 L 1.21352,44.1183 L 1.31445,44.2774 L 1.39465,44.4478 L 1.45287,44.627
 L 1.48816,44.812 L 1.5,45 L 1.48816,45.188 L 1.45287,45.373 L 1.39465,45.5522 L 1.31445,45.7226
 L 1.21352,45.8817 L 1.09344,46.0268 L 0.956131,46.1558 L 0.803726,46.2665 L 0.638657,46.3572 L 0.463516,46.4266
 L 0.281067,46.4734 L 0.0941772,46.497 z
M -30.0942,46.497 L -30.2811,46.4734 L -30.4635,46.4266 L -30.6387,46.3572 L -30.8037,46.2665 L -30.9561,46.1558
 L -31.0934,46.0268 L -31.2135,45.8817 L -31.3145,45.7226 L -31.3947,45.5522 L -31.4529,45.373 L -31.4882,45.188
 L -31.5,45 L -31.4882,44.812 L -31.4529,44.627 L -31.3947,44.4478 L -31.3145,44.2774 L -31.2135,44.1183
 L -31.0934,43.9732 L -30.9561,43.8442 L -30.8037,43.7335 L -30.6387,43.6428 L -30.4635,43.5734 L -30.2811,43.5266
 L -30.0942,43.503 L -29.9058,43.503 L -29.7189,43.5266 L -29.5365,43.5734 L -29.3613,43.6428 L -29.1963,43.7335
 L -29.0439,43.8442 L -28.9065,43.9732 L -28.7865,44.1183 L -28.6855,44.2774 L -28.6053,44.4478 L -28.5471,44.627
 L -28.5118,44.812 L -28.5,45 L -28.5118,45.188 L -28.5471,45.373 L -28.6053,45.5522 L -28.6855,45.7226
 L -28.7865,45.8817 L -28.9065,46.0268 L -29.0439,46.1558 L -29.1963,46.2665 L -29.3613,46.3572 L -29.5365,46.4266
 L -29.7189,46.4734 L -29.9058,46.497 z
M 44.9058,46.497 L 44.7189,46.4734 L 44.5365,46.4266 L 44.3613,46.3572 L 44.1963,46.2665 L 44.0439,46.1558
 L 43.9065,46.0268 L 43.7865,45.8817 L 43.6855,45.7226 L 43.6053,45.5522 L 43.5471,45.373 L 43.5118,45.188
 L 43.5,45 L 43.5118,44.812 L 43.5471,44.627 L 43.6053,44.4478 L 43.6855,44.2774 L 43.7865,44.1183
 L 43.9065,43.9732 L 44.0439,43.8442 L 44.1963,43.7335 L 44.3613,43.6428 L 44.5365,43.5734 L 44.7189,43.5266
 L 44.9058,43.503 L 45.0942,43.503 L 45.2811,43.5266 L 45.4635,43.5734 L 45.6387,43.6428 L 45.8037,43.7335
 L 45.9561,43.8442 L 46.0934,43.9732 L 46.2135,44.1183 L 46.3145,44.2774 L 46.3947,44.4478 L 46.4529,44.627
 L 46.4882,44.812 L 46.5,45 L 46.4882,45.188 L 46.4529,45.373 L 46.3947,45.5522 L 46.3145,45.7226
 L 46.2135,45.8817 L 46.0934,46.0268 L 45.9561,46.1558 L 45.8037,46.2665 L 45.6387,46.3572 L 45.4635,46.4266
 L 45.2811,46.4734 L 45.0942,46.497 z
M -75.0942,46.497 L -75.2811,46.4734 L -75.4635,46.4266 L -75.6387,46.3572 L -75.8037,46.2665 L -75.9561,46.1558
 L -76.0934,46.0268 L -76.2135,45.8817 L -76.3145,45.7226 L -76.3947,45.5522 L -76.4529,45.373 L -76.4882,45.188
 L -76.5,45 L -76.4882,44.812 L -76.4529,44.627 L -76.3947,44.4478 L -76.3145,44.2774 L -76.2135,44.1183
 L -76.0934,43.9732 L -75.9561,43.8442 L -75.8037,43.7335 L -75.6387,43.6428 L -75.4635,43.5734 L -75.2811,43.5266
 L -75.0942,43.503 L -74.9058,43.503 L -74.7189,43.5266 L -74.5365,43.5734 L -74.3613,43.6428 L -74.1963,43.7335
 L -74.0439,43.8442 L -73.9065,43.9732 L -73.7865,44.1183 L -73.6855,44.2774 L -73.6053,44.4478 L -73.5471,44.627
 L -73.5118,44.812 L -73.5,45 L -73.5118,45.188 L -73.5471,45.373 L -73.6053,45.5522 L -73.6855,45.7226
 L -73.7865,45.8817 L -73.9065,46.0268 L -74.0439,46.1558 L -74.1963,46.2665 L -74.3613,46.3572 L -74.5365,46.4266
 L -74.7189,46.4734 L -74.9058,46.497 z
M 74.9058,46.497 L 74.7189,46.4734 L 74.5365,46.4266 L 74.3613,46.3572 L 74.1963,46.2665 L 74.0439,46.1558
 L 73.9065,46.0268 L 73.7865,45.8817 L 73.6855,45.7226 L 73.6053,45.5522 L 73.5471,45.373 L 73.5118,45.188
 L 73.5,45 L 73.5118,44.812 L 73.5471,44.627 L 73.6053,44.4478 L 73.6855,44.2774 L 73.7865,44.1183
 L 73.9065,43.9732 L 74.0439,43.8442 L 74.1963,43.7335 L 74.3613,43.6428 L 74.5365,43.5734 L 74.7189,43.5266
 L 74.9058,43.503 L 75.0942,43.503 L 75.2811,43.5266 L 75.4635,43.5734 L 75.6387,43.6428 L 75.8037,43.7335
 L 75.9561,43.8442 L 76.0934,43.9732 L 76.2135,44.1183 L 76.3145,44.2774 L 76.3947,44.4478 L 76.4529,44.627
 L 76.4882,44.812 L 76.5,45 L 76.4882,45.188 L 76.4529,45.373 L 76.3947,45.5522 L 76.3145,45.7226
 L 76.2135,45.8817 L 76.0934,46.0268 L 75.9561,46.1558 L 75.8037,46.2665 L 75.6387,46.3572 L 75.4635,46.4266
 L 75.2811,46.4734 L 75.0942,46.497 z
M -15.0942,46.497 L -15.2811,46.4734 L -15.4635,46.4266 L -15.6387,46.3572 L -15.8037,46.2665 L -15.9561,46.1558
 L -16.0934,46.0268 L -16.2135,45.8817 L -16.3145,45.7226 L -16.3947,45.5522 L -16.4529,45.373 L -16.4882,45.188
 L -16.5,45 L -16.4882,44.812 L -16.4529,44.627 L -16.3947,44.4478 L -16.3145,44.2774 L -16.2135,44.1183
 L -16.0934,43.9732 L -15.9561,43.8442 L -15.8037,43.7335 L -15.6387,43.6428 L -15.4635,43.5734 L -15.2811,43.5266
 L -15.0942,43.503 L -14.9058,43.503 L -14.7189,43.5266 L -14.5365,43.5734 L -14.3613,43.6428 L -14.1963,43.7335
 L -14.0439,43.8442 L -13.9065,43.9732 L -13.7865,44.1183 L -13.6855,44.2774 L -13.6053,44.4478 L -13.5471,44.627
 L -13.5118,44.812 L -13.5,45 L -13.5118,45.188 L -13.5471,45.373 L -13.6053,45.5522 L -13.6855,45.7226
 L -13.7865,45.8817 L -13.9065,46.0268 L -14.0439,46.1558 L -14.1963,46.2665 L -14.3613,46.3572 L -14.5365,46.4266
 L -14.7189,46.4734 L -14.9058,46.497 z
" stroke="black" fill="lightgray" stroke-width="0.5"/>
</svg>
