<?xml version="1.0" standalone="no"?>
<!DOCTYPE svg PUBLIC "-//W3C//DTD SVG 1.1//EN" "http://www.w3.org/Graphics/SVG/1.1/DTD/svg11.dtd">
<svg width="104mm" height="30mm" viewBox="-52 -54 104 30" xmlns="http://www.w3.org/2000/svg" version="1.1">
<title>OpenSCAD Model</title>
<path d="
M 47.9369,-24.5886 L 48.5451,-24.7447 L 49.1289,-24.9759 L 49.6791,-25.2784 L 50.1871,-25.6474 L 50.6448,-26.0773
 L 51.0451,-26.5611 L 51.3815,-27.0912 L 51.6489,-27.6594 L 51.8429,-28.2566 L 51.9606,-28.8733 L 52,-29.5
 L 52,-48.5 L 51.9606,-49.1267 L 51.8429,-49.7434 L 51.6489,-50.3406 L 51.3815,-50.9088 L 51.0451,-51.4389
 L 50.6448,-51.9227 L 50.1871,-52.3526 L 49.6791,-52.7216 L 49.1289,-53.0241 L 48.5451,-53.2553 L 47.9369,-53.4114
 L 47.3139,-53.4901 L -47.3139,-53.4901 L -47.9369,-53.4114 L -48.5451,-53.2553 L -49.1289,-53.0241 L -49.6791,-52.7216
 L -50.1871,-52.3526 L -50.6448,-51.9227 L -51.0451,-51.4389 L -51.3815,-50.9088 L -51.6489,-50.3406 L -51.8429,-49.7434
 L -51.9606,-49.1267 L -52,-48.5 L -52,-29.5 L -51.9606,-28.8733 L -51.8429,-28.2566 L -51.6489,-27.6594
 L -51.3815,-27.0912 L -51.0451,-26.5611 L -50.6448,-26.0773 L -50.1871,-25.6474 L -49.6791,-25.2784 L -49.1289,-24.9759
 L -48.5451,-24.7447 L -47.9369,-24.5886 L -47.3139,-24.5099 L 47.3139,-24.5099 z
M 44.8116,-43.5059 L 44.4379,-43.5531 L 44.0729,-43.6468 L 43.7227,-43.7855 L 43.3925,-43.967 L 43.0877,-44.1884
 L 42.8131,-44.4464 L 42.5729,-44.7366 L 42.3711,-45.0547 L 42.2107,-45.3956 L 42.0942,-45.7539 L 42.0237,-46.124
 L 42,-46.5 L 42.0237,-46.876 L 42.0942,-47.2461 L 42.2107,-47.6044 L 42.3711,-47.9453 L 42.5729,-48.2634
 L 42.8131,-48.5536 L 43.0877,-48.8115 L 43.3925,-49.033 L 43.7227,-49.2145 L 44.0729,-49.3532 L 44.4379,-49.4469
 L 44.8116,-49.4941 L 45.1884,-49.4941 L 45.5621,-49.4469 L 45.927,-49.3532 L 46.2773,-49.2145 L 46.6075,-49.033
 L 46.9123,-48.8115 L 47.1869,-48.5536 L 47.427,-48.2634 L 47.6289,-47.9453 L 47.7893,-47.6044 L 47.9057,-47.2461
 L 47.9763,-46.876 L 48,-46.5 L 47.9763,-46.124 L 47.9057,-45.7539 L 47.7893,-45.3956 L 47.6289,-45.0547
 L 47.427,-44.7366 L 47.1869,-44.4464 L 46.9123,-44.1884 L 46.6075,-43.967 L 46.2773,-43.7855 L 45.927,-43.6468
 L 45.5621,-43.5531 L 45.1884,-43.5059 z
M -45.1884,-43.5059 L -45.5621,-43.5531 L -45.927,-43.6468 L -46.2773,-43.7855 L -46.6075,-43.967 L -46.9123,-44.1884
 L -47.1869,-44.4464 L -47.427,-44.7366 L -47.6289,-45.0547 L -47.7893,-45.3956 L -47.9057,-45.7539 L -47.9763,-46.124
 L -48,-46.5 L -47.9763,-46.876 L -47.9057,-47.2461 L -47.7893,-47.6044 L -47.6289,-47.9453 L -47.427,-48.2634
 L -47.1869,-48.5536 L -46.9123,-48.8115 L -46.6075,-49.033 L -46.2773,-49.2145 L -45.927,-49.3532 L -45.5621,-49.4469
 L -45.1884,-49.4941 L -44.8116,-49.4941 L -44.4379,-49.4469 L -44.0729,-49.3532 L -43.7227,-49.2145 L -43.3925,-49.033
 L -43.0877,-48.8115 L -42.8131,-48.5536 L -42.5729,-48.2634 L -42.3711,-47.9453 L -42.2107,-47.6044 L -42.0942,-47.2461
 L -42.0237,-46.876 L -42,-46.5 L -42.0237,-46.124 L -42.0942,-45.7539 L -42.2107,-45.3956 L -42.3711,-45.0547
 L -42.5729,-44.7366 L -42.8131,-44.4464 L -43.0877,-44.1884 L -43.3925,-43.967 L -43.7227,-43.7855 L -44.0729,-43.6468
 L -44.4379,-43.5531 L -44.8116,-43.5059 z
M 29.5291,-31.5148 L 28.5946,-31.6329 L 27.6824,-31.8671 L 26.8067,-32.2138 L 25.9813,-32.6675 L 25.2193,-33.2212
 L 24.5327,-33.8659 L 23.9324,-34.5916 L 23.4277,-35.3869 L 23.0267,-36.2391 L 22.7356,-37.1348 L 22.5591,-38.06
 L 22.5,-39 L 22.5591,-39.94 L 22.7356,-40.8652 L 23.0267,-41.7609 L 23.4277,-42.6131 L 23.9324,-43.4084
 L 24.5327,-44.1341 L 25.2193,-44.7788 L 25.9813,-45.3325 L 26.8067,-45.7862 L 27.6824,-46.1329 L 28.5946,-46.3671
 L 29.5291,-46.4852 L 30.4709,-46.4852 L 31.4053,-46.3671 L 32.3176,-46.1329 L 33.1933,-45.7862 L 34.0187,-45.3325
 L 34.7807,-44.7788 L 35.4673,-44.1341 L 36.0676,-43.4084 L 36.5723,-42.6131 L 36.9733,-41.7609 L 37.2644,-40.8652
 L 37.4409,-39.94 L 37.5,-39 L 37.4409,-38.06 L 37.2644,-37.1348 L 36.9733,-36.2391 L 36.5723,-35.3869
 L 36.0676,-34.5916 L 35.4673,-33.8659 L 34.7807,-33.2212 L 34.0187,-32.6675 L 33.1933,-32.2138 L 32.3176,-31.8671
 L 31.4053,-31.6329 L 30.4709,-31.5148 z
M 9.52907,-31.5148 L 8.59464,-31.6329 L 7.68236,-31.8671 L 6.80664,-32.2138 L 5.98129,-32.6675 L 5.21931,-33.2212
 L 4.53273,-33.8659 L 3.93236,-34.5916 L 3.42769,-35.3869 L 3.02667,-36.2391 L 2.73563,-37.1348 L 2.55913,-38.06
 L 2.5,-39 L 2.55913,-39.94 L 2.73563,-40.8652 L 3.02667,-41.7609 L 3.42769,-42.6131 L 3.93236,-43.4084
 L 4.53273,-44.1341 L 5.21931,-44.7788 L 5.98129,-45.3325 L 6.80664,-45.7862 L 7.68236,-46.1329 L 8.59464,-46.3671
 L 9.52907,-46.4852 L 10.4709,-46.4852 L 11.4053,-46.3671 L 12.3176,-46.1329 L 13.1933,-45.7862 L 14.0187,-45.3325
 L 14.7807,-44.7788 L 15.4673,-44.1341 L 16.0676,-43.4084 L 16.5723,-42.6131 L 16.9733,-41.7609 L 17.2644,-40.8652
 L 17.4409,-39.94 L 17.5,-39 L 17.4409,-38.06 L 17.2644,-37.1348 L 16.9733,-36.2391 L 16.5723,-35.3869
 L 16.0676,-34.5916 L 15.4673,-33.8659 L 14.7807,-33.2212 L 14.0187,-32.6675 L 13.1933,-32.2138 L 12.3176,-31.8671
 L 11.4053,-31.6329 L 10.4709,-31.5148 z
M -10.4709,-31.5148 L -11.4053,-31.6329 L -12.3176,-31.8671 L -13.1933,-32.2138 L -14.0187,-32.6675 L -14.7807,-33.2212
 L -15.4673,-33.8659 L -16.0676,-34.5916 L -16.5723,-35.3869 L -16.9733,-36.2391 L -17.2644,-37.1348 L -17.4409,-38.06
 L -17.5,-39 L -17.4409,-39.94 L -17.2644,-40.8652 L -16.9733,-41.7609 L -16.5723,-42.6131 L -16.0676,-43.4084
 L -15.4673,-44.1341 L -14.7807,-44.7788 L -14.0187,-45.3325 L -13.1933,-45.7862 L -12.3176,-46.1329 L -11.4053,-46.3671
 L -10.4709,-46.4852 L -9.52907,-46.4852 L -8.59464,-46.3671 L -7.68236,-46.1329 L -6.80664,-45.7862 L -5.98129,-45.3325
 L -5.21931,-44.7788 L -4.53273,-44.1341 L -3.93236,-43.4084 L -3.42769,-42.6131 L -3.02667,-41.7609 L -2.73563,-40.8652
 L -2.55913,-39.94 L -2.5,-39 L -2.55913,-38.06 L -2.73563,-37.1348 L -3.02667,-36.2391 L -3.42769,-35.3869
 L -3.93236,-34.5916 L -4.53273,-33.8659 L -5.21931,-33.2212 L -5.98129,-32.6675 L -6.80664,-32.2138 L -7.68236,-31.8671
 L -8.59464,-31.6329 L -9.52907,-31.5148 z
M -30.4709,-31.5148 L -31.4053,-31.6329 L -32.3176,-31.8671 L -33.1933,-32.2138 L -34.0187,-32.6675 L -34.7807,-33.2212
 L -35.4673,-33.8659 L -36.0676,-34.5916 L -36.5723,-35.3869 L -36.9733,-36.2391 L -37.2644,-37.1348 L -37.4409,-38.06
 L -37.5,-39 L -37.4409,-39.94 L -37.2644,-40.8652 L -36.9733,-41.7609 L -36.5723,-42.6131 L -36.0676,-43.4084
 L -35.4673,-44.1341 L -34.7807,-44.7788 L -34.0187,-45.3325 L -33.1933,-45.7862 L -32.3176,-46.1329 L -31.4053,-46.3671
 L -30.4709,-46.4852 L -29.5291,-46.4852 L -28.5946,-46.3671 L -27.6824,-46.1329 L -26.8067,-45.7862 L -25.9813,-45.3325
 L -25.2193,-44.7788 L -24.5327,-44.1341 L -23.9324,-43.4084 L -23.4277,-42.6131 L -23.0267,-41.7609 L -22.7356,-40.8652
 L -22.5591,-39.94 L -22.5,-39 L -22.5591,-38.06 L -22.7356,-37.1348 L -23.0267,-36.2391 L -23.4277,-35.3869
 L -23.9324,-34.5916 L -24.5327,-33.8659 L -25.2193,-33.2212 L -25.9813,-32.6675 L -26.8067,-32.2138 L -27.6824,-31.8671
 L -28.5946,-31.6329 L -29.5291,-31.5148 z
M 44.9058,-37.503 L 44.7189,-37.5266 L 44.5365,-37.5734 L 44.3613,-37.6428 L 44.1963,-37.7335 L 44.0439,-37.8442
 L 43.9065,-37.9732 L 43.7865,-38.1183 L 43.6855,-38.2774 L 43.6053,-38.4478 L 43.5471,-38.627 L 43.5118,-38.812
 L 43.5,-39 L 43.5118,-39.188 L 43.5471,-39.373 L 43.6053,-39.5522 L 43.6855,-39.7226 L 43.7865,-39.8817
 L 43.9065,-40.0268 L 44.0439,-40.1558 L 44.1963,-40.2665 L 44.3613,-40.3572 L 44.5365,-40.4266 L 44.7189,-40.4734
 L 44.9058,-40.497 L 45.0942,-40.497 L 45.2811,-40.4734 L 45.4635,-40.4266 L 45.6387,-40.3572 L 45.8037,-40.2665
 L 45.9561,-40.1558 L 46.0934,-40.0268 L 46.2135,-39.8817 L 46.3145,-39.7226 L 46.3947,-39.5522 L 46.4529,-39.373
 L 46.4882,-39.188 L 46.5,-39 L 46.4882,-38.812 L 46.4529,-38.627 L 46.3947,-38.4478 L 46.3145,-38.2774
 L 46.2135,-38.1183 L 46.0934,-37.9732 L 45.9561,-37.8442 L 45.8037,-37.7335 L 45.6387,-37.6428 L 45.4635,-37.5734
 L 45.2811,-37.5266 L 45.0942,-37.503 z
M -45.0942,-37.503 L -45.2811,-37.5266 L -45.4635,-37.5734 L -45.6387,-37.6428 L -45.8037,-37.7335 L -45.9561,-37.8442
 L -46.0934,-37.9732 L -46.2135,-38.1183 L -46.3145,-38.2774 L -46.3947,-38.4478 L -46.4529,-38.627 L -46.4882,-38.812
 L -46.5,-39 L -46.4882,-39.188 L -46.4529,-39.373 L -46.3947,-39.5522 L -46.3145,-39.7226 L -46.2135,-39.8817
 L -46.0934,-40.0268 L -45.9561,-40.1558 L -45.8037,-40.2665 L -45.6387,-40.3572 L -45.4635,-40.4266 L -45.2811,-40.4734
 L -45.0942,-40.497 L -44.9058,-40.497 L -44.7189,-40.4734 L -44.5365,-40.4266 L -44.3613,-40.3572 L -44.1963,-40.2665
 L -44.0439,-40.1558 L -43.9065,-40.0268 L -43.7865,-39.8817 L -43.6855,-39.7226 L -43.6053,-39.5522 L -43.5471,-39.373
 L -43.5118,-39.188 L -43.5,-39 L -43.5118,-38.812 L -43.5471,-38.627 L -43.6053,-38.4478 L -43.6855,-38.2774
 L -43.7865,-38.1183 L -43.9065,-37.9732 L -44.0439,-37.8442 L -44.1963,-37.7335 L -44.3613,-37.6428 L -44.5365,-37.5734
 L -44.7189,-37.5266 L -44.9058,-37.503 z
M -45.1884,-28.5059 L -45.5621,-28.5531 L -45.927,-28.6468 L -46.2773,-28.7855 L -46.6075,-28.967 L -46.9123,-29.1885
 L -47.1869,-29.4464 L -47.427,-29.7366 L -47.6289,-30.0547 L -47.7893,-30.3956 L -47.9057,-30.7539 L -47.9763,-31.124
 L -48,-31.5 L -47.9763,-31.876 L -47.9057,-32.2461 L -47.7893,-32.6044 L -47.6289,-32.9453 L -47.427,-33.2634
 L -47.1869,-33.5536 L -46.9123,-33.8116 L -46.6075,-34.033 L -46.2773,-34.2145 L -45.927,-34.3532 L -45.5621,-34.4469
 L -45.1884,-34.4941 L -44.8116,-34.4941 L -44.4379,-34.4469 L -44.0729,-34.3532 L -43.7227,-34.2145 L -43.3925,-34.033
 L -43.0877,-33.8116 L -42.8131,-33.5536 L -42.5729,-33.2634 L -42.3711,-32.9453 L -42.2107,-32.6044 L -42.0942,-32.2461
 L -42.0237,-31.876 L -42,-31.5 L -42.0237,-31.124 L -42.0942,-30.7539 L -42.2107,-30.3956 L -42.3711,-30.0547
 L -42.5729,-29.7366 L -42.8131,-29.4464 L -43.0877,-29.1885 L -43.3925,-28.967 L -43.7227,-28.7855 L -44.0729,-28.6468
 L -44.4379,-28.5531 L -44.8116,-28.5059 z
M 44.8116,-28.5059 L 44.4379,-28.5531 L 44.0729,-28.6468 L 43.7227,-28.7855 L 43.3925,-28.967 L 43.0877,-29.1885
 L 42.8131,-29.4464 L 42.5729,-29.7366 L 42.3711,-30.0547 L 42.2107,-30.3956 L 42.0942,-30.7539 L 42.0237,-31.124
 L 42,-31.5 L 42.0237,-31.876 L 42.0942,-32.2461 L 42.2107,-32.6044 L 42.3711,-32.9453 L 42.5729,-33.2634
 L 42.8131,-33.5536 L 43.0877,-33.8116 L 43.3925,-34.033 L 43.7227,-34.2145 L 44.0729,-34.3532 L 44.4379,-34.4469
 L 44.8116,-34.4941 L 45.1884,-34.4941 L 45.5621,-34.4469 L 45.927,-34.3532 L 46.2773,-34.2145 L 46.6075,-34.033
 L 46.9123,-33.8116 L 47.1869,-33.5536 L 47.427,-33.2634 L 47.6289,-32.9453 L 47.7893,-32.6044 L 47.9057,-32.2461
 L 47.9763,-31.876 L 48,-31.5 L 47.9763,-31.124 L 47.9057,-30.7539 L 47.7893,-30.3956 L 47.6289,-30.0547
 L 47.427,-29.7366 L 47.1869,-29.4464 L 46.9123,-29.1885 L 46.6075,-28.967 L 46.2773,-28.7855 L 45.927,-28.6468
 L 45.5621,-28.5531 L 45.1884,-28.5059 z
" stroke="black" fill="lightgray" stroke-width="0.5"/>
</svg>
