<?xml version="1.0" standalone="no"?>
<!DOCTYPE svg PUBLIC "-//W3C//DTD SVG 1.1//EN" "http://www.w3.org/Graphics/SVG/1.1/DTD/svg11.dtd">
<svg width="90mm" height="90mm" viewBox="-45 -144 90 90" xmlns="http://www.w3.org/2000/svg" version="1.1">
<title>OpenSCAD Model</title>
<path d="
M 40.4369,-54.5886 L 41.0451,-54.7447 L 41.6289,-54.9759 L 42.1791,-55.2784 L 42.6871,-55.6474 L 43.1448,-56.0773
 L 43.5451,-56.5611 L 43.8815,-57.0912 L 44.1489,-57.6594 L 44.3429,-58.2566 L 44.4606,-58.8733 L 44.5,-59.5
 L 44.5,-138.5 L 44.4606,-139.127 L 44.3429,-139.743 L 44.1489,-140.341 L 43.8815,-140.909 L 43.5451,-141.439
 L 43.1448,-141.923 L 42.6871,-142.353 L 42.1791,-142.722 L 41.6289,-143.024 L 41.0451,-143.255 L 40.4369,-143.411
 L 39.8139,-143.49 L -39.8139,-143.49 L -40.4369,-143.411 L -41.0451,-143.255 L -41.6289,-143.024 L -42.1791,-142.722
 L -42.6871,-142.353 L -43.1448,-141.923 L -43.5451,-141.439 L -43.8815,-140.909 L -44.1489,-140.341 L -44.3429,-139.743
 L -44.4606,-139.127 L -44.5,-138.5 L -44.5,-59.5 L -44.4606,-58.8733 L -44.3429,-58.2566 L -44.1489,-57.6594
 L -43.8815,-57.0912 L -43.5451,-56.5611 L -43.1448,-56.0773 L -42.6871,-55.6474 L -42.1791,-55.2784 L -41.6289,-54.9759
 L -41.0451,-54.7447 L -40.4369,-54.5886 L -39.8139,-54.5099 L 39.8139,-54.5099 z
M -37.6884,-133.506 L -38.0621,-133.553 L -38.427,-133.647 L -38.7773,-133.786 L -39.1075,-133.967 L -39.4123,-134.188
 L -39.6869,-134.446 L -39.927,-134.737 L -40.1289,-135.055 L -40.2893,-135.396 L -40.4057,-135.754 L -40.4763,-136.124
 L -40.5,-136.5 L -40.4763,-136.876 L -40.4057,-137.246 L -40.2893,-137.604 L -40.1289,-137.945 L -39.927,-138.263
 L -39.6869,-138.554 L -39.4123,-138.812 L -39.1075,-139.033 L -38.7773,-139.214 L -38.427,-139.353 L -38.0621,-139.447
 L -37.6884,-139.494 L -37.3116,-139.494 L -36.9379,-139.447 L -36.5729,-139.353 L -36.2227,-139.214 L -35.8925,-139.033
 L -35.5877,-138.812 L -35.3131,-138.554 L -35.0729,-138.263 L -34.8711,-137.945 L -34.7107,-137.604 L -34.5942,-137.246
 L -34.5237,-136.876 L -34.5,-136.5 L -34.5237,-136.124 L -34.5942,-135.754 L -34.7107,-135.396 L -34.8711,-135.055
 L -35.0729,-134.737 L -35.3131,-134.446 L -35.5877,-134.188 L -35.8925,-133.967 L -36.2227,-133.786 L -36.5729,-133.647
 L -36.9379,-133.553 L -37.3116,-133.506 z
M 37.3116,-133.506 L 36.9379,-133.553 L 36.5729,-133.647 L 36.2227,-133.786 L 35.8925,-133.967 L 35.5877,-134.188
 L 35.3131,-134.446 L 35.0729,-134.737 L 34.8711,-135.055 L 34.7107,-135.396 L 34.5942,-135.754 L 34.5237,-136.124
 L 34.5,-136.5 L 34.5237,-136.876 L 34.5942,-137.246 L 34.7107,-137.604 L 34.8711,-137.945 L 35.0729,-138.263
 L 35.3131,-138.554 L 35.5877,-138.812 L 35.8925,-139.033 L 36.2227,-139.214 L 36.5729,-139.353 L 36.9379,-139.447
 L 37.3116,-139.494 L 37.6884,-139.494 L 38.0621,-139.447 L 38.427,-139.353 L 38.7773,-139.214 L 39.1075,-139.033
 L 39.4123,-138.812 L 39.6869,-138.554 L 39.927,-138.263 L 40.1289,-137.945 L 40.2893,-137.604 L 40.4057,-137.246
 L 40.4763,-136.876 L 40.5,-136.5 L 40.4763,-136.124 L 40.4057,-135.754 L 40.2893,-135.396 L 40.1289,-135.055
 L 39.927,-134.737 L 39.6869,-134.446 L 39.4123,-134.188 L 39.1075,-133.967 L 38.7773,-133.786 L 38.427,-133.647
 L 38.0621,-133.553 L 37.6884,-133.506 z
M -2.19766,-64.0691 L -6.55833,-64.6199 L -10.8156,-65.713 L -14.9023,-67.3311 L -18.7539,-69.4485 L -22.3098,-72.032
 L -25.5139,-75.0409 L -28.3156,-78.4275 L -30.6707,-82.1386 L -32.5422,-86.1156 L -33.9004,-90.2959 L -34.724,-94.6133
 L -35,-99 L -34.724,-103.387 L -33.9004,-107.704 L -32.5422,-111.884 L -30.6707,-115.861 L -28.3156,-119.572
 L -25.5139,-122.959 L -22.3098,-125.968 L -18.7539,-128.551 L -14.9023,-130.669 L -10.8156,-132.287 L -6.55833,-133.38
 L -2.19766,-133.931 L 2.19766,-133.931 L 6.55833,-133.38 L 10.8156,-132.287 L 14.9023,-130.669 L 18.7539,-128.551
 L 22.3098,-125.968 L 25.5139,-122.959 L 28.3156,-119.572 L 30.6707,-115.861 L 32.5422,-111.884 L 33.9004,-107.704
 L 34.724,-103.387 L 35,-99 L 34.724,-94.6133 L 33.9004,-90.2959 L 32.5422,-86.1156 L 30.6707,-82.1386
 L 28.3156,-78.4275 L 25.5139,-75.0409 L 22.3098,-72.032 L 18.7539,-69.4485 L 14.9023,-67.3311 L 10.8156,-65.713
 L 6.55833,-64.6199 L 2.19766,-64.0691 z
M 37.3116,-58.5059 L 36.9379,-58.5531 L 36.5729,-58.6468 L 36.2227,-58.7855 L 35.8925,-58.967 L 35.5877,-59.1885
 L 35.3131,-59.4464 L 35.0729,-59.7366 L 34.8711,-60.0547 L 34.7107,-60.3956 L 34.5942,-60.7539 L 34.5237,-61.124
 L 34.5,-61.5 L 34.5237,-61.876 L 34.5942,-62.2461 L 34.7107,-62.6044 L 34.8711,-62.9453 L 35.0729,-63.2634
 L 35.3131,-63.5536 L 35.5877,-63.8115 L 35.8925,-64.033 L 36.2227,-64.2145 L 36.5729,-64.3532 L 36.9379,-64.4469
 L 37.3116,-64.4941 L 37.6884,-64.4941 L 38.0621,-64.4469 L 38.427,-64.3532 L 38.7773,-64.2145 L 39.1075,-64.033
 L 39.4123,-63.8115 L 39.6869,-63.5536 L 39.927,-63.2634 L 40.1289,-62.9453 L 40.2893,-62.6044 L 40.4057,-62.2461
 L 40.4763,-61.876 L 40.5,-61.5 L 40.4763,-61.124 L 40.4057,-60.7539 L 40.2893,-60.3956 L 40.1289,-60.0547
 L 39.927,-59.7366 L 39.6869,-59.4464 L 39.4123,-59.1885 L 39.1075,-58.967 L 38.7773,-58.7855 L 38.427,-58.6468
 L 38.0621,-58.5531 L 37.6884,-58.5059 z
M -37.6884,-58.5059 L -38.0621,-58.5531 L -38.427,-58.6468 L -38.7773,-58.7855 L -39.1075,-58.967 L -39.4123,-59.1885
 L -39.6869,-59.4464 L -39.927,-59.7366 L -40.1289,-60.0547 L -40.2893,-60.3956 L -40.4057,-60.7539 L -40.4763,-61.124
 L -40.5,-61.5 L -40.4763,-61.876 L -40.4057,-62.2461 L -40.2893,-62.6044 L -40.1289,-62.9453 L -39.927,-63.2634
 L -39.6869,-63.5536 L -39.4123,-63.8115 L -39.1075,-64.033 L -38.7773,-64.2145 L -38.427,-64.3532 L -38.0621,-64.4469
 L -37.6884,-64.4941 L -37.3116,-64.4941 L -36.9379,-64.4469 L -36.5729,-64.3532 L -36.2227,-64.2145 L -35.8925,-64.033
 L -35.5877,-63.8115 L -35.3131,-63.5536 L -35.0729,-63.2634 L -34.8711,-62.9453 L -34.7107,-62.6044 L -34.5942,-62.2461
 L -34.5237,-61.876 L -34.5,-61.5 L -34.5237,-61.124 L -34.5942,-60.7539 L -34.7107,-60.3956 L -34.8711,-60.0547
 L -35.0729,-59.7366 L -35.3131,-59.4464 L -35.5877,-59.1885 L -35.8925,-58.967 L -36.2227,-58.7855 L -36.5729,-58.6468
 L -36.9379,-58.5531 L -37.3116,-58.5059 z
" stroke="black" fill="lightgray" stroke-width="0.5"/>
</svg>
