<?xml version="1.0" standalone="no"?>
<!DOCTYPE svg PUBLIC "-//W3C//DTD SVG 1.1//EN" "http://www.w3.org/Graphics/SVG/1.1/DTD/svg11.dtd">
<svg width="164mm" height="44mm" viewBox="-82 -76 164 44" xmlns="http://www.w3.org/2000/svg" version="1.1">
<title>OpenSCAD Model</title>
<path d="
M 77.9369,-32.0886 L 78.5451,-32.2447 L 79.1289,-32.4759 L 79.6791,-32.7784 L 80.1871,-33.1474 L 80.6448,-33.5773
 L 81.0451,-34.0611 L 81.3815,-34.5912 L 81.6489,-35.1594 L 81.8429,-35.7566 L 81.9606,-36.3733 L 82,-37
 L 82,-71 L 81.9606,-71.6267 L 81.8429,-72.2434 L 81.6489,-72.8406 L 81.3815,-73.4088 L 81.0451,-73.9389
 L 80.6448,-74.4227 L 80.1871,-74.8526 L 79.6791,-75.2216 L 79.1289,-75.5241 L 78.5451,-75.7553 L 77.9369,-75.9114
 L 77.3139,-75.9901 L -77.3139,-75.9901 L -77.9369,-75.9114 L -78.5451,-75.7553 L -79.1289,-75.5241 L -79.6791,-75.2216
 L -80.1871,-74.8526 L -80.6448,-74.4227 L -81.0451,-73.9389 L -81.3815,-73.4088 L -81.6489,-72.8406 L -81.8429,-72.2434
 L -81.9606,-71.6267 L -82,-71 L -82,-37 L -81.9606,-36.3733 L -81.8429,-35.7566 L -81.6489,-35.1594
 L -81.3815,-34.5912 L -81.0451,-34.0611 L -80.6448,-33.5773 L -80.1871,-33.1474 L -79.6791,-32.7784 L -79.1289,-32.4759
 L -78.5451,-32.2447 L -77.9369,-32.0886 L -77.3139,-32.0099 L 77.3139,-32.0099 z
M 74.8116,-66.0059 L 74.4379,-66.0531 L 74.073,-66.1468 L 73.7227,-66.2855 L 73.3925,-66.467 L 73.0877,-66.6884
 L 72.8131,-66.9464 L 72.573,-67.2366 L 72.3711,-67.5547 L 72.2107,-67.8956 L 72.0943,-68.2539 L 72.0237,-68.624
 L 72,-69 L 72.0237,-69.376 L 72.0943,-69.7461 L 72.2107,-70.1044 L 72.3711,-70.4453 L 72.573,-70.7634
 L 72.8131,-71.0536 L 73.0877,-71.3115 L 73.3925,-71.533 L 73.7227,-71.7145 L 74.073,-71.8532 L 74.4379,-71.9469
 L 74.8116,-71.9941 L 75.1884,-71.9941 L 75.5621,-71.9469 L 75.927,-71.8532 L 76.2773,-71.7145 L 76.6075,-71.533
 L 76.9123,-71.3115 L 77.1869,-71.0536 L 77.427,-70.7634 L 77.6289,-70.4453 L 77.7893,-70.1044 L 77.9057,-69.7461
 L 77.9763,-69.376 L 78,-69 L 77.9763,-68.624 L 77.9057,-68.2539 L 77.7893,-67.8956 L 77.6289,-67.5547
 L 77.427,-67.2366 L 77.1869,-66.9464 L 76.9123,-66.6884 L 76.6075,-66.467 L 76.2773,-66.2855 L 75.927,-66.1468
 L 75.5621,-66.0531 L 75.1884,-66.0059 z
M -75.1884,-66.0059 L -75.5621,-66.0531 L -75.927,-66.1468 L -76.2773,-66.2855 L -76.6075,-66.467 L -76.9123,-66.6884
 L -77.1869,-66.9464 L -77.427,-67.2366 L -77.6289,-67.5547 L -77.7893,-67.8956 L -77.9057,-68.2539 L -77.9763,-68.624
 L -78,-69 L -77.9763,-69.376 L -77.9057,-69.7461 L -77.7893,-70.1044 L -77.6289,-70.4453 L -77.427,-70.7634
 L -77.1869,-71.0536 L -76.9123,-71.3115 L -76.6075,-71.533 L -76.2773,-71.7145 L -75.927,-71.8532 L -75.5621,-71.9469
 L -75.1884,-71.9941 L -74.8116,-71.9941 L -74.4379,-71.9469 L -74.073,-71.8532 L -73.7227,-71.7145 L -73.3925,-71.533
 L -73.0877,-71.3115 L -72.8131,-71.0536 L -72.573,-70.7634 L -72.3711,-70.4453 L -72.2107,-70.1044 L -72.0943,-69.7461
 L -72.0237,-69.376 L -72,-69 L -72.0237,-68.624 L -72.0943,-68.2539 L -72.2107,-67.8956 L -72.3711,-67.5547
 L -72.573,-67.2366 L -72.8131,-66.9464 L -73.0877,-66.6884 L -73.3925,-66.467 L -73.7227,-66.2855 L -74.073,-66.1468
 L -74.4379,-66.0531 L -74.8116,-66.0059 z
M 30.1837,-41.0257 L 28.564,-41.2303 L 26.9828,-41.6363 L 25.4649,-42.2373 L 24.0342,-43.0237 L 22.7135,-43.9833
 L 21.5234,-45.1009 L 20.4828,-46.3588 L 19.608,-47.7372 L 18.9129,-49.2144 L 18.4084,-50.767 L 18.1025,-52.3707
 L 18,-54 L 18.1025,-55.6293 L 18.4084,-57.233 L 18.9129,-58.7856 L 19.608,-60.2628 L 20.4828,-61.6412
 L 21.5234,-62.8991 L 22.7135,-64.0167 L 24.0342,-64.9763 L 25.4649,-65.7627 L 26.9828,-66.3637 L 28.564,-66.7697
 L 30.1837,-66.9743 L 31.8163,-66.9743 L 33.436,-66.7697 L 35.0172,-66.3637 L 36.5351,-65.7627 L 37.9657,-64.9763
 L 39.2865,-64.0167 L 40.4766,-62.8991 L 41.5172,-61.6412 L 42.392,-60.2628 L 43.0871,-58.7856 L 43.5916,-57.233
 L 43.8975,-55.6293 L 44,-54 L 43.8975,-52.3707 L 43.5916,-50.767 L 43.0871,-49.2144 L 42.392,-47.7372
 L 41.5172,-46.3588 L 40.4766,-45.1009 L 39.2865,-43.9833 L 37.9657,-43.0237 L 36.5351,-42.2373 L 35.0172,-41.6363
 L 33.436,-41.2303 L 31.8163,-41.0257 z
M -62.8163,-41.0257 L -64.436,-41.2303 L -66.0172,-41.6363 L -67.5351,-42.2373 L -68.9657,-43.0237 L -70.2865,-43.9833
 L -71.4766,-45.1009 L -72.5172,-46.3588 L -73.392,-47.7372 L -74.0871,-49.2144 L -74.5916,-50.767 L -74.8975,-52.3707
 L -75,-54 L -74.8975,-55.6293 L -74.5916,-57.233 L -74.0871,-58.7856 L -73.392,-60.2628 L -72.5172,-61.6412
 L -71.4766,-62.8991 L -70.2865,-64.0167 L -68.9657,-64.9763 L -67.5351,-65.7627 L -66.0172,-66.3637 L -64.436,-66.7697
 L -62.8163,-66.9743 L -61.1837,-66.9743 L -59.564,-66.7697 L -57.9828,-66.3637 L -56.4649,-65.7627 L -55.0342,-64.9763
 L -53.7135,-64.0167 L -52.5234,-62.8991 L -51.4828,-61.6412 L -50.608,-60.2628 L -49.9129,-58.7856 L -49.4084,-57.233
 L -49.1025,-55.6293 L -49,-54 L -49.1025,-52.3707 L -49.4084,-50.767 L -49.9129,-49.2144 L -50.608,-47.7372
 L -51.4828,-46.3588 L -52.5234,-45.1009 L -53.7135,-43.9833 L -55.0342,-43.0237 L -56.4649,-42.2373 L -57.9828,-41.6363
 L -59.564,-41.2303 L -61.1837,-41.0257 z
M 61.1837,-41.0257 L 59.564,-41.2303 L 57.9828,-41.6363 L 56.4649,-42.2373 L 55.0342,-43.0237 L 53.7135,-43.9833
 L 52.5234,-45.1009 L 51.4828,-46.3588 L 50.608,-47.7372 L 49.9129,-49.2144 L 49.4084,-50.767 L 49.1025,-52.3707
 L 49,-54 L 49.1025,-55.6293 L 49.4084,-57.233 L 49.9129,-58.7856 L 50.608,-60.2628 L 51.4828,-61.6412
 L 52.5234,-62.8991 L 53.7135,-64.0167 L 55.0342,-64.9763 L 56.4649,-65.7627 L 57.9828,-66.3637 L 59.564,-66.7697
 L 61.1837,-66.9743 L 62.8163,-66.9743 L 64.436,-66.7697 L 66.0172,-66.3637 L 67.5351,-65.7627 L 68.9657,-64.9763
 L 70.2865,-64.0167 L 71.4766,-62.8991 L 72.5172,-61.6412 L 73.392,-60.2628 L 74.0871,-58.7856 L 74.5916,-57.233
 L 74.8975,-55.6293 L 75,-54 L 74.8975,-52.3707 L 74.5916,-50.767 L 74.0871,-49.2144 L 73.392,-47.7372
 L 72.5172,-46.3588 L 71.4766,-45.1009 L 70.2865,-43.9833 L 68.9657,-43.0237 L 67.5351,-42.2373 L 66.0172,-41.6363
 L 64.436,-41.2303 L 62.8163,-41.0257 z
M -0.816269,-41.0257 L -2.43594,-41.2303 L -4.01721,-41.6363 L -5.53513,-42.2373 L -6.96574,-43.0237 L -8.2865,-43.9833
 L -9.47658,-45.1009 L -10.5172,-46.3588 L -11.392,-47.7372 L -12.0871,-49.2144 L -12.5916,-50.767 L -12.8975,-52.3707
 L -13,-54 L -12.8975,-55.6293 L -12.5916,-57.233 L -12.0871,-58.7856 L -11.392,-60.2628 L -10.5172,-61.6412
 L -9.47658,-62.8991 L -8.2865,-64.0167 L -6.96574,-64.9763 L -5.53513,-65.7627 L -4.01721,-66.3637 L -2.43594,-66.7697
 L -0.816269,-66.9743 L 0.816269,-66.9743 L 2.43594,-66.7697 L 4.01721,-66.3637 L 5.53513,-65.7627 L 6.96574,-64.9763
 L 8.2865,-64.0167 L 9.47658,-62.8991 L 10.5172,-61.6412 L 11.392,-60.2628 L 12.0871,-58.7856 L 12.5916,-57.233
 L 12.8975,-55.6293 L 13,-54 L 12.8975,-52.3707 L 12.5916,-50.767 L 12.0871,-49.2144 L 11.392,-47.7372
 L 10.5172,-46.3588 L 9.47658,-45.1009 L 8.2865,-43.9833 L 6.96574,-43.0237 L 5.53513,-42.2373 L 4.01721,-41.6363
 L 2.43594,-41.2303 L 0.816269,-41.0257 z
M -31.8163,-41.0257 L -33.436,-41.2303 L -35.0172,-41.6363 L -36.5351,-42.2373 L -37.9657,-43.0237 L -39.2865,-43.9833
 L -40.4766,-45.1009 L -41.5172,-46.3588 L -42.392,-47.7372 L -43.0871,-49.2144 L -43.5916,-50.767 L -43.8975,-52.3707
 L -44,-54 L -43.8975,-55.6293 L -43.5916,-57.233 L -43.0871,-58.7856 L -42.392,-60.2628 L -41.5172,-61.6412
 L -40.4766,-62.8991 L -39.2865,-64.0167 L -37.9657,-64.9763 L -36.5351,-65.7627 L -35.0172,-66.3637 L -33.436,-66.7697
 L -31.8163,-66.9743 L -30.1837,-66.9743 L -28.564,-66.7697 L -26.9828,-66.3637 L -25.4649,-65.7627 L -24.0342,-64.9763
 L -22.7135,-64.0167 L -21.5234,-62.8991 L -20.4828,-61.6412 L -19.608,-60.2628 L -18.9129,-58.7856 L -18.4084,-57.233
 L -18.1025,-55.6293 L -18,-54 L -18.1025,-52.3707 L -18.4084,-50.767 L -18.9129,-49.2144 L -19.608,-47.7372
 L -20.4828,-46.3588 L -21.5234,-45.1009 L -22.7135,-43.9833 L -24.0342,-43.0237 L -25.4649,-42.2373 L -26.9828,-41.6363
 L -28.564,-41.2303 L -30.1837,-41.0257 z
M -75.1884,-36.0059 L -75.5621,-36.0531 L -75.927,-36.1468 L -76.2773,-36.2855 L -76.6075,-36.467 L -76.9123,-36.6885
 L -77.1869,-36.9464 L -77.427,-37.2366 L -77.6289,-37.5547 L -77.7893,-37.8956 L -77.9057,-38.2539 L -77.9763,-38.624
 L -78,-39 L -77.9763,-39.376 L -77.9057,-39.7461 L -77.7893,-40.1044 L -77.6289,-40.4453 L -77.427,-40.7634
 L -77.1869,-41.0536 L -76.9123,-41.3116 L -76.6075,-41.533 L -76.2773,-41.7145 L -75.927,-41.8532 L -75.5621,-41.9469
 L -75.1884,-41.9941 L -74.8116,-41.9941 L -74.4379,-41.9469 L -74.073,-41.8532 L -73.7227,-41.7145 L -73.3925,-41.533
 L -73.0877,-41.3116 L -72.8131,-41.0536 L -72.573,-40.7634 L -72.3711,-40.4453 L -72.2107,-40.1044 L -72.0943,-39.7461
 L -72.0237,-39.376 L -72,-39 L -72.0237,-38.624 L -72.0943,-38.2539 L -72.2107,-37.8956 L -72.3711,-37.5547
 L -72.573,-37.2366 L -72.8131,-36.9464 L -73.0877,-36.6885 L -73.3925,-36.467 L -73.7227,-36.2855 L -74.073,-36.1468
 L -74.4379,-36.0531 L -74.8116,-36.0059 z
M 74.8116,-36.0059 L 74.4379,-36.0531 L 74.073,-36.1468 L 73.7227,-36.2855 L 73.3925,-36.467 L 73.0877,-36.6885
 L 72.8131,-36.9464 L 72.573,-37.2366 L 72.3711,-37.5547 L 72.2107,-37.8956 L 72.0943,-38.2539 L 72.0237,-38.624
 L 72,-39 L 72.0237,-39.376 L 72.0943,-39.7461 L 72.2107,-40.1044 L 72.3711,-40.4453 L 72.573,-40.7634
 L 72.8131,-41.0536 L 73.0877,-41.3116 L 73.3925,-41.533 L 73.7227,-41.7145 L 74.073,-41.8532 L 74.4379,-41.9469
 L 74.8116,-41.9941 L 75.1884,-41.9941 L 75.5621,-41.9469 L 75.927,-41.8532 L 76.2773,-41.7145 L 76.6075,-41.533
 L 76.9123,-41.3116 L 77.1869,-41.0536 L 77.427,-40.7634 L 77.6289,-40.4453 L 77.7893,-40.1044 L 77.9057,-39.7461
 L 77.9763,-39.376 L 78,-39 L 77.9763,-38.624 L 77.9057,-38.2539 L 77.7893,-37.8956 L 77.6289,-37.5547
 L 77.427,-37.2366 L 77.1869,-36.9464 L 76.9123,-36.6885 L 76.6075,-36.467 L 76.2773,-36.2855 L 75.927,-36.1468
 L 75.5621,-36.0531 L 75.1884,-36.0059 z
" stroke="black" fill="lightgray" stroke-width="0.5"/>
</svg>
