  0
SECTION
  2
BLOCKS
  0
ENDSEC
  0
SECTION
  2
ENTITIES
  0
LINE
  8
0
 10
55.4369
 20
39.5886
 11
56.0451
 21
39.7447
  0
LINE
  8
0
 10
56.0451
 20
39.7447
 11
56.6289
 21
39.9759
  0
LINE
  8
0
 10
56.6289
 20
39.9759
 11
57.1791
 21
40.2784
  0
LINE
  8
0
 10
57.1791
 20
40.2784
 11
57.6871
 21
40.6474
  0
LINE
  8
0
 10
57.6871
 20
40.6474
 11
58.1448
 21
41.0773
  0
LINE
  8
0
 10
58.1448
 20
41.0773
 11
58.5451
 21
41.5611
  0
LINE
  8
0
 10
58.5451
 20
41.5611
 11
58.8815
 21
42.0912
  0
LINE
  8
0
 10
58.8815
 20
42.0912
 11
59.1489
 21
42.6594
  0
LINE
  8
0
 10
59.1489
 20
42.6594
 11
59.3429
 21
43.2566
  0
LINE
  8
0
 10
59.3429
 20
43.2566
 11
59.4606
 21
43.8733
  0
LINE
  8
0
 10
59.4606
 20
43.8733
 11
59.5
 21
44.5
  0
LINE
  8
0
 10
59.5
 20
44.5
 11
59.5
 21
93.5
  0
LINE
  8
0
 10
59.5
 20
93.5
 11
59.4606
 21
94.1267
  0
LINE
  8
0
 10
59.4606
 20
94.1267
 11
59.3429
 21
94.7434
  0
LINE
  8
0
 10
59.3429
 20
94.7434
 11
59.1489
 21
95.3406
  0
LINE
  8
0
 10
59.1489
 20
95.3406
 11
58.8815
 21
95.9088
  0
LINE
  8
0
 10
58.8815
 20
95.9088
 11
58.5451
 21
96.4389
  0
LINE
  8
0
 10
58.5451
 20
96.4389
 11
58.1448
 21
96.9227
  0
LINE
  8
0
 10
58.1448
 20
96.9227
 11
57.6871
 21
97.3526
  0
LINE
  8
0
 10
57.6871
 20
97.3526
 11
57.1791
 21
97.7216
  0
LINE
  8
0
 10
57.1791
 20
97.7216
 11
56.6289
 21
98.0241
  0
LINE
  8
0
 10
56.6289
 20
98.0241
 11
56.0451
 21
98.2553
  0
LINE
  8
0
 10
56.0451
 20
98.2553
 11
55.4369
 21
98.4114
  0
LINE
  8
0
 10
55.4369
 20
98.4114
 11
54.8139
 21
98.4901
  0
LINE
  8
0
 10
54.8139
 20
98.4901
 11
-54.8139
 21
98.4901
  0
LINE
  8
0
 10
-54.8139
 20
98.4901
 11
-55.4369
 21
98.4114
  0
LINE
  8
0
 10
-55.4369
 20
98.4114
 11
-56.0451
 21
98.2553
  0
LINE
  8
0
 10
-56.0451
 20
98.2553
 11
-56.6289
 21
98.0241
  0
LINE
  8
0
 10
-56.6289
 20
98.0241
 11
-57.1791
 21
97.7216
  0
LINE
  8
0
 10
-57.1791
 20
97.7216
 11
-57.6871
 21
97.3526
  0
LINE
  8
0
 10
-57.6871
 20
97.3526
 11
-58.1448
 21
96.9227
  0
LINE
  8
0
 10
-58.1448
 20
96.9227
 11
-58.5451
 21
96.4389
  0
LINE
  8
0
 10
-58.5451
 20
96.4389
 11
-58.8815
 21
95.9088
  0
LINE
  8
0
 10
-58.8815
 20
95.9088
 11
-59.1489
 21
95.3406
  0
LINE
  8
0
 10
-59.1489
 20
95.3406
 11
-59.3429
 21
94.7434
  0
LINE
  8
0
 10
-59.3429
 20
94.7434
 11
-59.4606
 21
94.1267
  0
LINE
  8
0
 10
-59.4606
 20
94.1267
 11
-59.5
 21
93.5
  0
LINE
  8
0
 10
-59.5
 20
93.5
 11
-59.5
 21
44.5
  0
LINE
  8
0
 10
-59.5
 20
44.5
 11
-59.4606
 21
43.8733
  0
LINE
  8
0
 10
-59.4606
 20
43.8733
 11
-59.3429
 21
43.2566
  0
LINE
  8
0
 10
-59.3429
 20
43.2566
 11
-59.1489
 21
42.6594
  0
LINE
  8
0
 10
-59.1489
 20
42.6594
 11
-58.8815
 21
42.0912
  0
LINE
  8
0
 10
-58.8815
 20
42.0912
 11
-58.5451
 21
41.5611
  0
LINE
  8
0
 10
-58.5451
 20
41.5611
 11
-58.1448
 21
41.0773
  0
LINE
  8
0
 10
-58.1448
 20
41.0773
 11
-57.6871
 21
40.6474
  0
LINE
  8
0
 10
-57.6871
 20
40.6474
 11
-57.1791
 21
40.2784
  0
LINE
  8
0
 10
-57.1791
 20
40.2784
 11
-56.6289
 21
39.9759
  0
LINE
  8
0
 10
-56.6289
 20
39.9759
 11
-56.0451
 21
39.7447
  0
LINE
  8
0
 10
-56.0451
 20
39.7447
 11
-55.4369
 21
39.5886
  0
LINE
  8
0
 10
-55.4369
 20
39.5886
 11
-54.8139
 21
39.5099
  0
LINE
  8
0
 10
-54.8139
 20
39.5099
 11
54.8139
 21
39.5099
  0
LINE
  8
0
 10
54.8139
 20
39.5099
 11
55.4369
 21
39.5886
  0
LINE
  8
0
 10
7.31161
 20
88.5059
 11
6.93785
 21
88.5531
  0
LINE
  8
0
 10
6.93785
 20
88.5531
 11
6.57294
 21
88.6468
  0
LINE
  8
0
 10
6.57294
 20
88.6468
 11
6.22266
 21
88.7855
  0
LINE
  8
0
 10
6.22266
 20
88.7855
 11
5.89252
 21
88.967
  0
LINE
  8
0
 10
5.89252
 20
88.967
 11
5.58772
 21
89.1884
  0
LINE
  8
0
 10
5.58772
 20
89.1884
 11
5.31308
 21
89.4464
  0
LINE
  8
0
 10
5.31308
 20
89.4464
 11
5.07294
 21
89.7366
  0
LINE
  8
0
 10
5.07294
 20
89.7366
 11
4.87108
 21
90.0547
  0
LINE
  8
0
 10
4.87108
 20
90.0547
 11
4.71066
 21
90.3956
  0
LINE
  8
0
 10
4.71066
 20
90.3956
 11
4.59424
 21
90.7539
  0
LINE
  8
0
 10
4.59424
 20
90.7539
 11
4.52365
 21
91.124
  0
LINE
  8
0
 10
4.52365
 20
91.124
 11
4.5
 21
91.5
  0
LINE
  8
0
 10
4.5
 20
91.5
 11
4.52365
 21
91.876
  0
LINE
  8
0
 10
4.52365
 20
91.876
 11
4.59424
 21
92.2461
  0
LINE
  8
0
 10
4.59424
 20
92.2461
 11
4.71066
 21
92.6044
  0
LINE
  8
0
 10
4.71066
 20
92.6044
 11
4.87108
 21
92.9453
  0
LINE
  8
0
 10
4.87108
 20
92.9453
 11
5.07294
 21
93.2634
  0
LINE
  8
0
 10
5.07294
 20
93.2634
 11
5.31308
 21
93.5536
  0
LINE
  8
0
 10
5.31308
 20
93.5536
 11
5.58772
 21
93.8115
  0
LINE
  8
0
 10
5.58772
 20
93.8115
 11
5.89252
 21
94.033
  0
LINE
  8
0
 10
5.89252
 20
94.033
 11
6.22266
 21
94.2145
  0
LINE
  8
0
 10
6.22266
 20
94.2145
 11
6.57294
 21
94.3532
  0
LINE
  8
0
 10
6.57294
 20
94.3532
 11
6.93785
 21
94.4469
  0
LINE
  8
0
 10
6.93785
 20
94.4469
 11
7.31161
 21
94.4941
  0
LINE
  8
0
 10
7.31161
 20
94.4941
 11
7.68837
 21
94.4941
  0
LINE
  8
0
 10
7.68837
 20
94.4941
 11
8.06213
 21
94.4469
  0
LINE
  8
0
 10
8.06213
 20
94.4469
 11
8.42705
 21
94.3532
  0
LINE
  8
0
 10
8.42705
 20
94.3532
 11
8.77733
 21
94.2145
  0
LINE
  8
0
 10
8.77733
 20
94.2145
 11
9.10747
 21
94.033
  0
LINE
  8
0
 10
9.10747
 20
94.033
 11
9.41226
 21
93.8115
  0
LINE
  8
0
 10
9.41226
 20
93.8115
 11
9.6869
 21
93.5536
  0
LINE
  8
0
 10
9.6869
 20
93.5536
 11
9.92705
 21
93.2634
  0
LINE
  8
0
 10
9.92705
 20
93.2634
 11
10.1289
 21
92.9453
  0
LINE
  8
0
 10
10.1289
 20
92.9453
 11
10.2893
 21
92.6044
  0
LINE
  8
0
 10
10.2893
 20
92.6044
 11
10.4057
 21
92.2461
  0
LINE
  8
0
 10
10.4057
 20
92.2461
 11
10.4763
 21
91.876
  0
LINE
  8
0
 10
10.4763
 20
91.876
 11
10.5
 21
91.5
  0
LINE
  8
0
 10
10.5
 20
91.5
 11
10.4763
 21
91.124
  0
LINE
  8
0
 10
10.4763
 20
91.124
 11
10.4057
 21
90.7539
  0
LINE
  8
0
 10
10.4057
 20
90.7539
 11
10.2893
 21
90.3956
  0
LINE
  8
0
 10
10.2893
 20
90.3956
 11
10.1289
 21
90.0547
  0
LINE
  8
0
 10
10.1289
 20
90.0547
 11
9.92705
 21
89.7366
  0
LINE
  8
0
 10
9.92705
 20
89.7366
 11
9.6869
 21
89.4464
  0
LINE
  8
0
 10
9.6869
 20
89.4464
 11
9.41226
 21
89.1884
  0
LINE
  8
0
 10
9.41226
 20
89.1884
 11
9.10747
 21
88.967
  0
LINE
  8
0
 10
9.10747
 20
88.967
 11
8.77733
 21
88.7855
  0
LINE
  8
0
 10
8.77733
 20
88.7855
 11
8.42705
 21
88.6468
  0
LINE
  8
0
 10
8.42705
 20
88.6468
 11
8.06213
 21
88.5531
  0
LINE
  8
0
 10
8.06213
 20
88.5531
 11
7.68837
 21
88.5059
  0
LINE
  8
0
 10
7.68837
 20
88.5059
 11
7.31161
 21
88.5059
  0
LINE
  8
0
 10
52.3116
 20
88.5059
 11
51.9379
 21
88.5531
  0
LINE
  8
0
 10
51.9379
 20
88.5531
 11
51.5729
 21
88.6468
  0
LINE
  8
0
 10
51.5729
 20
88.6468
 11
51.2227
 21
88.7855
  0
LINE
  8
0
 10
51.2227
 20
88.7855
 11
50.8925
 21
88.967
  0
LINE
  8
0
 10
50.8925
 20
88.967
 11
50.5877
 21
89.1884
  0
LINE
  8
0
 10
50.5877
 20
89.1884
 11
50.3131
 21
89.4464
  0
LINE
  8
0
 10
50.3131
 20
89.4464
 11
50.0729
 21
89.7366
  0
LINE
  8
0
 10
50.0729
 20
89.7366
 11
49.8711
 21
90.0547
  0
LINE
  8
0
 10
49.8711
 20
90.0547
 11
49.7107
 21
90.3956
  0
LINE
  8
0
 10
49.7107
 20
90.3956
 11
49.5942
 21
90.7539
  0
LINE
  8
0
 10
49.5942
 20
90.7539
 11
49.5237
 21
91.124
  0
LINE
  8
0
 10
49.5237
 20
91.124
 11
49.5
 21
91.5
  0
LINE
  8
0
 10
49.5
 20
91.5
 11
49.5237
 21
91.876
  0
LINE
  8
0
 10
49.5237
 20
91.876
 11
49.5942
 21
92.2461
  0
LINE
  8
0
 10
49.5942
 20
92.2461
 11
49.7107
 21
92.6044
  0
LINE
  8
0
 10
49.7107
 20
92.6044
 11
49.8711
 21
92.9453
  0
LINE
  8
0
 10
49.8711
 20
92.9453
 11
50.0729
 21
93.2634
  0
LINE
  8
0
 10
50.0729
 20
93.2634
 11
50.3131
 21
93.5536
  0
LINE
  8
0
 10
50.3131
 20
93.5536
 11
50.5877
 21
93.8115
  0
LINE
  8
0
 10
50.5877
 20
93.8115
 11
50.8925
 21
94.033
  0
LINE
  8
0
 10
50.8925
 20
94.033
 11
51.2227
 21
94.2145
  0
LINE
  8
0
 10
51.2227
 20
94.2145
 11
51.5729
 21
94.3532
  0
LINE
  8
0
 10
51.5729
 20
94.3532
 11
51.9379
 21
94.4469
  0
LINE
  8
0
 10
51.9379
 20
94.4469
 11
52.3116
 21
94.4941
  0
LINE
  8
0
 10
52.3116
 20
94.4941
 11
52.6884
 21
94.4941
  0
LINE
  8
0
 10
52.6884
 20
94.4941
 11
53.0621
 21
94.4469
  0
LINE
  8
0
 10
53.0621
 20
94.4469
 11
53.427
 21
94.3532
  0
LINE
  8
0
 10
53.427
 20
94.3532
 11
53.7773
 21
94.2145
  0
LINE
  8
0
 10
53.7773
 20
94.2145
 11
54.1075
 21
94.033
  0
LINE
  8
0
 10
54.1075
 20
94.033
 11
54.4123
 21
93.8115
  0
LINE
  8
0
 10
54.4123
 20
93.8115
 11
54.6869
 21
93.5536
  0
LINE
  8
0
 10
54.6869
 20
93.5536
 11
54.927
 21
93.2634
  0
LINE
  8
0
 10
54.927
 20
93.2634
 11
55.1289
 21
92.9453
  0
LINE
  8
0
 10
55.1289
 20
92.9453
 11
55.2893
 21
92.6044
  0
LINE
  8
0
 10
55.2893
 20
92.6044
 11
55.4057
 21
92.2461
  0
LINE
  8
0
 10
55.4057
 20
92.2461
 11
55.4763
 21
91.876
  0
LINE
  8
0
 10
55.4763
 20
91.876
 11
55.5
 21
91.5
  0
LINE
  8
0
 10
55.5
 20
91.5
 11
55.4763
 21
91.124
  0
LINE
  8
0
 10
55.4763
 20
91.124
 11
55.4057
 21
90.7539
  0
LINE
  8
0
 10
55.4057
 20
90.7539
 11
55.2893
 21
90.3956
  0
LINE
  8
0
 10
55.2893
 20
90.3956
 11
55.1289
 21
90.0547
  0
LINE
  8
0
 10
55.1289
 20
90.0547
 11
54.927
 21
89.7366
  0
LINE
  8
0
 10
54.927
 20
89.7366
 11
54.6869
 21
89.4464
  0
LINE
  8
0
 10
54.6869
 20
89.4464
 11
54.4123
 21
89.1884
  0
LINE
  8
0
 10
54.4123
 20
89.1884
 11
54.1075
 21
88.967
  0
LINE
  8
0
 10
54.1075
 20
88.967
 11
53.7773
 21
88.7855
  0
LINE
  8
0
 10
53.7773
 20
88.7855
 11
53.427
 21
88.6468
  0
LINE
  8
0
 10
53.427
 20
88.6468
 11
53.0621
 21
88.5531
  0
LINE
  8
0
 10
53.0621
 20
88.5531
 11
52.6884
 21
88.5059
  0
LINE
  8
0
 10
52.6884
 20
88.5059
 11
52.3116
 21
88.5059
  0
LINE
  8
0
 10
-52.6884
 20
88.5059
 11
-53.0621
 21
88.5531
  0
LINE
  8
0
 10
-53.0621
 20
88.5531
 11
-53.427
 21
88.6468
  0
LINE
  8
0
 10
-53.427
 20
88.6468
 11
-53.7773
 21
88.7855
  0
LINE
  8
0
 10
-53.7773
 20
88.7855
 11
-54.1075
 21
88.967
  0
LINE
  8
0
 10
-54.1075
 20
88.967
 11
-54.4123
 21
89.1884
  0
LINE
  8
0
 10
-54.4123
 20
89.1884
 11
-54.6869
 21
89.4464
  0
LINE
  8
0
 10
-54.6869
 20
89.4464
 11
-54.927
 21
89.7366
  0
LINE
  8
0
 10
-54.927
 20
89.7366
 11
-55.1289
 21
90.0547
  0
LINE
  8
0
 10
-55.1289
 20
90.0547
 11
-55.2893
 21
90.3956
  0
LINE
  8
0
 10
-55.2893
 20
90.3956
 11
-55.4057
 21
90.7539
  0
LINE
  8
0
 10
-55.4057
 20
90.7539
 11
-55.4763
 21
91.124
  0
LINE
  8
0
 10
-55.4763
 20
91.124
 11
-55.5
 21
91.5
  0
LINE
  8
0
 10
-55.5
 20
91.5
 11
-55.4763
 21
91.876
  0
LINE
  8
0
 10
-55.4763
 20
91.876
 11
-55.4057
 21
92.2461
  0
LINE
  8
0
 10
-55.4057
 20
92.2461
 11
-55.2893
 21
92.6044
  0
LINE
  8
0
 10
-55.2893
 20
92.6044
 11
-55.1289
 21
92.9453
  0
LINE
  8
0
 10
-55.1289
 20
92.9453
 11
-54.927
 21
93.2634
  0
LINE
  8
0
 10
-54.927
 20
93.2634
 11
-54.6869
 21
93.5536
  0
LINE
  8
0
 10
-54.6869
 20
93.5536
 11
-54.4123
 21
93.8115
  0
LINE
  8
0
 10
-54.4123
 20
93.8115
 11
-54.1075
 21
94.033
  0
LINE
  8
0
 10
-54.1075
 20
94.033
 11
-53.7773
 21
94.2145
  0
LINE
  8
0
 10
-53.7773
 20
94.2145
 11
-53.427
 21
94.3532
  0
LINE
  8
0
 10
-53.427
 20
94.3532
 11
-53.0621
 21
94.4469
  0
LINE
  8
0
 10
-53.0621
 20
94.4469
 11
-52.6884
 21
94.4941
  0
LINE
  8
0
 10
-52.6884
 20
94.4941
 11
-52.3116
 21
94.4941
  0
LINE
  8
0
 10
-52.3116
 20
94.4941
 11
-51.9379
 21
94.4469
  0
LINE
  8
0
 10
-51.9379
 20
94.4469
 11
-51.5729
 21
94.3532
  0
LINE
  8
0
 10
-51.5729
 20
94.3532
 11
-51.2227
 21
94.2145
  0
LINE
  8
0
 10
-51.2227
 20
94.2145
 11
-50.8925
 21
94.033
  0
LINE
  8
0
 10
-50.8925
 20
94.033
 11
-50.5877
 21
93.8115
  0
LINE
  8
0
 10
-50.5877
 20
93.8115
 11
-50.3131
 21
93.5536
  0
LINE
  8
0
 10
-50.3131
 20
93.5536
 11
-50.0729
 21
93.2634
  0
LINE
  8
0
 10
-50.0729
 20
93.2634
 11
-49.8711
 21
92.9453
  0
LINE
  8
0
 10
-49.8711
 20
92.9453
 11
-49.7107
 21
92.6044
  0
LINE
  8
0
 10
-49.7107
 20
92.6044
 11
-49.5942
 21
92.2461
  0
LINE
  8
0
 10
-49.5942
 20
92.2461
 11
-49.5237
 21
91.876
  0
LINE
  8
0
 10
-49.5237
 20
91.876
 11
-49.5
 21
91.5
  0
LINE
  8
0
 10
-49.5
 20
91.5
 11
-49.5237
 21
91.124
  0
LINE
  8
0
 10
-49.5237
 20
91.124
 11
-49.5942
 21
90.7539
  0
LINE
  8
0
 10
-49.5942
 20
90.7539
 11
-49.7107
 21
90.3956
  0
LINE
  8
0
 10
-49.7107
 20
90.3956
 11
-49.8711
 21
90.0547
  0
LINE
  8
0
 10
-49.8711
 20
90.0547
 11
-50.0729
 21
89.7366
  0
LINE
  8
0
 10
-50.0729
 20
89.7366
 11
-50.3131
 21
89.4464
  0
LINE
  8
0
 10
-50.3131
 20
89.4464
 11
-50.5877
 21
89.1884
  0
LINE
  8
0
 10
-50.5877
 20
89.1884
 11
-50.8925
 21
88.967
  0
LINE
  8
0
 10
-50.8925
 20
88.967
 11
-51.2227
 21
88.7855
  0
LINE
  8
0
 10
-51.2227
 20
88.7855
 11
-51.5729
 21
88.6468
  0
LINE
  8
0
 10
-51.5729
 20
88.6468
 11
-51.9379
 21
88.5531
  0
LINE
  8
0
 10
-51.9379
 20
88.5531
 11
-52.3116
 21
88.5059
  0
LINE
  8
0
 10
-52.3116
 20
88.5059
 11
-52.6884
 21
88.5059
  0
LINE
  8
0
 10
-37.6884
 20
88.5059
 11
-38.0621
 21
88.5531
  0
LINE
  8
0
 10
-38.0621
 20
88.5531
 11
-38.427
 21
88.6468
  0
LINE
  8
0
 10
-38.427
 20
88.6468
 11
-38.7773
 21
88.7855
  0
LINE
  8
0
 10
-38.7773
 20
88.7855
 11
-39.1075
 21
88.967
  0
LINE
  8
0
 10
-39.1075
 20
88.967
 11
-39.4123
 21
89.1884
  0
LINE
  8
0
 10
-39.4123
 20
89.1884
 11
-39.6869
 21
89.4464
  0
LINE
  8
0
 10
-39.6869
 20
89.4464
 11
-39.927
 21
89.7366
  0
LINE
  8
0
 10
-39.927
 20
89.7366
 11
-40.1289
 21
90.0547
  0
LINE
  8
0
 10
-40.1289
 20
90.0547
 11
-40.2893
 21
90.3956
  0
LINE
  8
0
 10
-40.2893
 20
90.3956
 11
-40.4057
 21
90.7539
  0
LINE
  8
0
 10
-40.4057
 20
90.7539
 11
-40.4763
 21
91.124
  0
LINE
  8
0
 10
-40.4763
 20
91.124
 11
-40.5
 21
91.5
  0
LINE
  8
0
 10
-40.5
 20
91.5
 11
-40.4763
 21
91.876
  0
LINE
  8
0
 10
-40.4763
 20
91.876
 11
-40.4057
 21
92.2461
  0
LINE
  8
0
 10
-40.4057
 20
92.2461
 11
-40.2893
 21
92.6044
  0
LINE
  8
0
 10
-40.2893
 20
92.6044
 11
-40.1289
 21
92.9453
  0
LINE
  8
0
 10
-40.1289
 20
92.9453
 11
-39.927
 21
93.2634
  0
LINE
  8
0
 10
-39.927
 20
93.2634
 11
-39.6869
 21
93.5536
  0
LINE
  8
0
 10
-39.6869
 20
93.5536
 11
-39.4123
 21
93.8115
  0
LINE
  8
0
 10
-39.4123
 20
93.8115
 11
-39.1075
 21
94.033
  0
LINE
  8
0
 10
-39.1075
 20
94.033
 11
-38.7773
 21
94.2145
  0
LINE
  8
0
 10
-38.7773
 20
94.2145
 11
-38.427
 21
94.3532
  0
LINE
  8
0
 10
-38.427
 20
94.3532
 11
-38.0621
 21
94.4469
  0
LINE
  8
0
 10
-38.0621
 20
94.4469
 11
-37.6884
 21
94.4941
  0
LINE
  8
0
 10
-37.6884
 20
94.4941
 11
-37.3116
 21
94.4941
  0
LINE
  8
0
 10
-37.3116
 20
94.4941
 11
-36.9379
 21
94.4469
  0
LINE
  8
0
 10
-36.9379
 20
94.4469
 11
-36.5729
 21
94.3532
  0
LINE
  8
0
 10
-36.5729
 20
94.3532
 11
-36.2227
 21
94.2145
  0
LINE
  8
0
 10
-36.2227
 20
94.2145
 11
-35.8925
 21
94.033
  0
LINE
  8
0
 10
-35.8925
 20
94.033
 11
-35.5877
 21
93.8115
  0
LINE
  8
0
 10
-35.5877
 20
93.8115
 11
-35.3131
 21
93.5536
  0
LINE
  8
0
 10
-35.3131
 20
93.5536
 11
-35.0729
 21
93.2634
  0
LINE
  8
0
 10
-35.0729
 20
93.2634
 11
-34.8711
 21
92.9453
  0
LINE
  8
0
 10
-34.8711
 20
92.9453
 11
-34.7107
 21
92.6044
  0
LINE
  8
0
 10
-34.7107
 20
92.6044
 11
-34.5942
 21
92.2461
  0
LINE
  8
0
 10
-34.5942
 20
92.2461
 11
-34.5237
 21
91.876
  0
LINE
  8
0
 10
-34.5237
 20
91.876
 11
-34.5
 21
91.5
  0
LINE
  8
0
 10
-34.5
 20
91.5
 11
-34.5237
 21
91.124
  0
LINE
  8
0
 10
-34.5237
 20
91.124
 11
-34.5942
 21
90.7539
  0
LINE
  8
0
 10
-34.5942
 20
90.7539
 11
-34.7107
 21
90.3956
  0
LINE
  8
0
 10
-34.7107
 20
90.3956
 11
-34.8711
 21
90.0547
  0
LINE
  8
0
 10
-34.8711
 20
90.0547
 11
-35.0729
 21
89.7366
  0
LINE
  8
0
 10
-35.0729
 20
89.7366
 11
-35.3131
 21
89.4464
  0
LINE
  8
0
 10
-35.3131
 20
89.4464
 11
-35.5877
 21
89.1884
  0
LINE
  8
0
 10
-35.5877
 20
89.1884
 11
-35.8925
 21
88.967
  0
LINE
  8
0
 10
-35.8925
 20
88.967
 11
-36.2227
 21
88.7855
  0
LINE
  8
0
 10
-36.2227
 20
88.7855
 11
-36.5729
 21
88.6468
  0
LINE
  8
0
 10
-36.5729
 20
88.6468
 11
-36.9379
 21
88.5531
  0
LINE
  8
0
 10
-36.9379
 20
88.5531
 11
-37.3116
 21
88.5059
  0
LINE
  8
0
 10
-37.3116
 20
88.5059
 11
-37.6884
 21
88.5059
  0
LINE
  8
0
 10
22.3116
 20
88.5059
 11
21.9379
 21
88.5531
  0
LINE
  8
0
 10
21.9379
 20
88.5531
 11
21.5729
 21
88.6468
  0
LINE
  8
0
 10
21.5729
 20
88.6468
 11
21.2227
 21
88.7855
  0
LINE
  8
0
 10
21.2227
 20
88.7855
 11
20.8925
 21
88.967
  0
LINE
  8
0
 10
20.8925
 20
88.967
 11
20.5877
 21
89.1884
  0
LINE
  8
0
 10
20.5877
 20
89.1884
 11
20.3131
 21
89.4464
  0
LINE
  8
0
 10
20.3131
 20
89.4464
 11
20.0729
 21
89.7366
  0
LINE
  8
0
 10
20.0729
 20
89.7366
 11
19.8711
 21
90.0547
  0
LINE
  8
0
 10
19.8711
 20
90.0547
 11
19.7107
 21
90.3956
  0
LINE
  8
0
 10
19.7107
 20
90.3956
 11
19.5942
 21
90.7539
  0
LINE
  8
0
 10
19.5942
 20
90.7539
 11
19.5237
 21
91.124
  0
LINE
  8
0
 10
19.5237
 20
91.124
 11
19.5
 21
91.5
  0
LINE
  8
0
 10
19.5
 20
91.5
 11
19.5237
 21
91.876
  0
LINE
  8
0
 10
19.5237
 20
91.876
 11
19.5942
 21
92.2461
  0
LINE
  8
0
 10
19.5942
 20
92.2461
 11
19.7107
 21
92.6044
  0
LINE
  8
0
 10
19.7107
 20
92.6044
 11
19.8711
 21
92.9453
  0
LINE
  8
0
 10
19.8711
 20
92.9453
 11
20.0729
 21
93.2634
  0
LINE
  8
0
 10
20.0729
 20
93.2634
 11
20.3131
 21
93.5536
  0
LINE
  8
0
 10
20.3131
 20
93.5536
 11
20.5877
 21
93.8115
  0
LINE
  8
0
 10
20.5877
 20
93.8115
 11
20.8925
 21
94.033
  0
LINE
  8
0
 10
20.8925
 20
94.033
 11
21.2227
 21
94.2145
  0
LINE
  8
0
 10
21.2227
 20
94.2145
 11
21.5729
 21
94.3532
  0
LINE
  8
0
 10
21.5729
 20
94.3532
 11
21.9379
 21
94.4469
  0
LINE
  8
0
 10
21.9379
 20
94.4469
 11
22.3116
 21
94.4941
  0
LINE
  8
0
 10
22.3116
 20
94.4941
 11
22.6884
 21
94.4941
  0
LINE
  8
0
 10
22.6884
 20
94.4941
 11
23.0621
 21
94.4469
  0
LINE
  8
0
 10
23.0621
 20
94.4469
 11
23.427
 21
94.3532
  0
LINE
  8
0
 10
23.427
 20
94.3532
 11
23.7773
 21
94.2145
  0
LINE
  8
0
 10
23.7773
 20
94.2145
 11
24.1075
 21
94.033
  0
LINE
  8
0
 10
24.1075
 20
94.033
 11
24.4123
 21
93.8115
  0
LINE
  8
0
 10
24.4123
 20
93.8115
 11
24.6869
 21
93.5536
  0
LINE
  8
0
 10
24.6869
 20
93.5536
 11
24.927
 21
93.2634
  0
LINE
  8
0
 10
24.927
 20
93.2634
 11
25.1289
 21
92.9453
  0
LINE
  8
0
 10
25.1289
 20
92.9453
 11
25.2893
 21
92.6044
  0
LINE
  8
0
 10
25.2893
 20
92.6044
 11
25.4057
 21
92.2461
  0
LINE
  8
0
 10
25.4057
 20
92.2461
 11
25.4763
 21
91.876
  0
LINE
  8
0
 10
25.4763
 20
91.876
 11
25.5
 21
91.5
  0
LINE
  8
0
 10
25.5
 20
91.5
 11
25.4763
 21
91.124
  0
LINE
  8
0
 10
25.4763
 20
91.124
 11
25.4057
 21
90.7539
  0
LINE
  8
0
 10
25.4057
 20
90.7539
 11
25.2893
 21
90.3956
  0
LINE
  8
0
 10
25.2893
 20
90.3956
 11
25.1289
 21
90.0547
  0
LINE
  8
0
 10
25.1289
 20
90.0547
 11
24.927
 21
89.7366
  0
LINE
  8
0
 10
24.927
 20
89.7366
 11
24.6869
 21
89.4464
  0
LINE
  8
0
 10
24.6869
 20
89.4464
 11
24.4123
 21
89.1884
  0
LINE
  8
0
 10
24.4123
 20
89.1884
 11
24.1075
 21
88.967
  0
LINE
  8
0
 10
24.1075
 20
88.967
 11
23.7773
 21
88.7855
  0
LINE
  8
0
 10
23.7773
 20
88.7855
 11
23.427
 21
88.6468
  0
LINE
  8
0
 10
23.427
 20
88.6468
 11
23.0621
 21
88.5531
  0
LINE
  8
0
 10
23.0621
 20
88.5531
 11
22.6884
 21
88.5059
  0
LINE
  8
0
 10
22.6884
 20
88.5059
 11
22.3116
 21
88.5059
  0
LINE
  8
0
 10
-7.68837
 20
88.5059
 11
-8.06213
 21
88.5531
  0
LINE
  8
0
 10
-8.06213
 20
88.5531
 11
-8.42705
 21
88.6468
  0
LINE
  8
0
 10
-8.42705
 20
88.6468
 11
-8.77733
 21
88.7855
  0
LINE
  8
0
 10
-8.77733
 20
88.7855
 11
-9.10747
 21
88.967
  0
LINE
  8
0
 10
-9.10747
 20
88.967
 11
-9.41226
 21
89.1884
  0
LINE
  8
0
 10
-9.41226
 20
89.1884
 11
-9.6869
 21
89.4464
  0
LINE
  8
0
 10
-9.6869
 20
89.4464
 11
-9.92705
 21
89.7366
  0
LINE
  8
0
 10
-9.92705
 20
89.7366
 11
-10.1289
 21
90.0547
  0
LINE
  8
0
 10
-10.1289
 20
90.0547
 11
-10.2893
 21
90.3956
  0
LINE
  8
0
 10
-10.2893
 20
90.3956
 11
-10.4057
 21
90.7539
  0
LINE
  8
0
 10
-10.4057
 20
90.7539
 11
-10.4763
 21
91.124
  0
LINE
  8
0
 10
-10.4763
 20
91.124
 11
-10.5
 21
91.5
  0
LINE
  8
0
 10
-10.5
 20
91.5
 11
-10.4763
 21
91.876
  0
LINE
  8
0
 10
-10.4763
 20
91.876
 11
-10.4057
 21
92.2461
  0
LINE
  8
0
 10
-10.4057
 20
92.2461
 11
-10.2893
 21
92.6044
  0
LINE
  8
0
 10
-10.2893
 20
92.6044
 11
-10.1289
 21
92.9453
  0
LINE
  8
0
 10
-10.1289
 20
92.9453
 11
-9.92705
 21
93.2634
  0
LINE
  8
0
 10
-9.92705
 20
93.2634
 11
-9.6869
 21
93.5536
  0
LINE
  8
0
 10
-9.6869
 20
93.5536
 11
-9.41226
 21
93.8115
  0
LINE
  8
0
 10
-9.41226
 20
93.8115
 11
-9.10747
 21
94.033
  0
LINE
  8
0
 10
-9.10747
 20
94.033
 11
-8.77733
 21
94.2145
  0
LINE
  8
0
 10
-8.77733
 20
94.2145
 11
-8.42705
 21
94.3532
  0
LINE
  8
0
 10
-8.42705
 20
94.3532
 11
-8.06213
 21
94.4469
  0
LINE
  8
0
 10
-8.06213
 20
94.4469
 11
-7.68837
 21
94.4941
  0
LINE
  8
0
 10
-7.68837
 20
94.4941
 11
-7.31161
 21
94.4941
  0
LINE
  8
0
 10
-7.31161
 20
94.4941
 11
-6.93785
 21
94.4469
  0
LINE
  8
0
 10
-6.93785
 20
94.4469
 11
-6.57294
 21
94.3532
  0
LINE
  8
0
 10
-6.57294
 20
94.3532
 11
-6.22266
 21
94.2145
  0
LINE
  8
0
 10
-6.22266
 20
94.2145
 11
-5.89252
 21
94.033
  0
LINE
  8
0
 10
-5.89252
 20
94.033
 11
-5.58772
 21
93.8115
  0
LINE
  8
0
 10
-5.58772
 20
93.8115
 11
-5.31308
 21
93.5536
  0
LINE
  8
0
 10
-5.31308
 20
93.5536
 11
-5.07294
 21
93.2634
  0
LINE
  8
0
 10
-5.07294
 20
93.2634
 11
-4.87108
 21
92.9453
  0
LINE
  8
0
 10
-4.87108
 20
92.9453
 11
-4.71066
 21
92.6044
  0
LINE
  8
0
 10
-4.71066
 20
92.6044
 11
-4.59424
 21
92.2461
  0
LINE
  8
0
 10
-4.59424
 20
92.2461
 11
-4.52365
 21
91.876
  0
LINE
  8
0
 10
-4.52365
 20
91.876
 11
-4.5
 21
91.5
  0
LINE
  8
0
 10
-4.5
 20
91.5
 11
-4.52365
 21
91.124
  0
LINE
  8
0
 10
-4.52365
 20
91.124
 11
-4.59424
 21
90.7539
  0
LINE
  8
0
 10
-4.59424
 20
90.7539
 11
-4.71066
 21
90.3956
  0
LINE
  8
0
 10
-4.71066
 20
90.3956
 11
-4.87108
 21
90.0547
  0
LINE
  8
0
 10
-4.87108
 20
90.0547
 11
-5.07294
 21
89.7366
  0
LINE
  8
0
 10
-5.07294
 20
89.7366
 11
-5.31308
 21
89.4464
  0
LINE
  8
0
 10
-5.31308
 20
89.4464
 11
-5.58772
 21
89.1884
  0
LINE
  8
0
 10
-5.58772
 20
89.1884
 11
-5.89252
 21
88.967
  0
LINE
  8
0
 10
-5.89252
 20
88.967
 11
-6.22266
 21
88.7855
  0
LINE
  8
0
 10
-6.22266
 20
88.7855
 11
-6.57294
 21
88.6468
  0
LINE
  8
0
 10
-6.57294
 20
88.6468
 11
-6.93785
 21
88.5531
  0
LINE
  8
0
 10
-6.93785
 20
88.5531
 11
-7.31161
 21
88.5059
  0
LINE
  8
0
 10
-7.31161
 20
88.5059
 11
-7.68837
 21
88.5059
  0
LINE
  8
0
 10
-22.6884
 20
88.5059
 11
-23.0621
 21
88.5531
  0
LINE
  8
0
 10
-23.0621
 20
88.5531
 11
-23.427
 21
88.6468
  0
LINE
  8
0
 10
-23.427
 20
88.6468
 11
-23.7773
 21
88.7855
  0
LINE
  8
0
 10
-23.7773
 20
88.7855
 11
-24.1075
 21
88.967
  0
LINE
  8
0
 10
-24.1075
 20
88.967
 11
-24.4123
 21
89.1884
  0
LINE
  8
0
 10
-24.4123
 20
89.1884
 11
-24.6869
 21
89.4464
  0
LINE
  8
0
 10
-24.6869
 20
89.4464
 11
-24.927
 21
89.7366
  0
LINE
  8
0
 10
-24.927
 20
89.7366
 11
-25.1289
 21
90.0547
  0
LINE
  8
0
 10
-25.1289
 20
90.0547
 11
-25.2893
 21
90.3956
  0
LINE
  8
0
 10
-25.2893
 20
90.3956
 11
-25.4057
 21
90.7539
  0
LINE
  8
0
 10
-25.4057
 20
90.7539
 11
-25.4763
 21
91.124
  0
LINE
  8
0
 10
-25.4763
 20
91.124
 11
-25.5
 21
91.5
  0
LINE
  8
0
 10
-25.5
 20
91.5
 11
-25.4763
 21
91.876
  0
LINE
  8
0
 10
-25.4763
 20
91.876
 11
-25.4057
 21
92.2461
  0
LINE
  8
0
 10
-25.4057
 20
92.2461
 11
-25.2893
 21
92.6044
  0
LINE
  8
0
 10
-25.2893
 20
92.6044
 11
-25.1289
 21
92.9453
  0
LINE
  8
0
 10
-25.1289
 20
92.9453
 11
-24.927
 21
93.2634
  0
LINE
  8
0
 10
-24.927
 20
93.2634
 11
-24.6869
 21
93.5536
  0
LINE
  8
0
 10
-24.6869
 20
93.5536
 11
-24.4123
 21
93.8115
  0
LINE
  8
0
 10
-24.4123
 20
93.8115
 11
-24.1075
 21
94.033
  0
LINE
  8
0
 10
-24.1075
 20
94.033
 11
-23.7773
 21
94.2145
  0
LINE
  8
0
 10
-23.7773
 20
94.2145
 11
-23.427
 21
94.3532
  0
LINE
  8
0
 10
-23.427
 20
94.3532
 11
-23.0621
 21
94.4469
  0
LINE
  8
0
 10
-23.0621
 20
94.4469
 11
-22.6884
 21
94.4941
  0
LINE
  8
0
 10
-22.6884
 20
94.4941
 11
-22.3116
 21
94.4941
  0
LINE
  8
0
 10
-22.3116
 20
94.4941
 11
-21.9379
 21
94.4469
  0
LINE
  8
0
 10
-21.9379
 20
94.4469
 11
-21.5729
 21
94.3532
  0
LINE
  8
0
 10
-21.5729
 20
94.3532
 11
-21.2227
 21
94.2145
  0
LINE
  8
0
 10
-21.2227
 20
94.2145
 11
-20.8925
 21
94.033
  0
LINE
  8
0
 10
-20.8925
 20
94.033
 11
-20.5877
 21
93.8115
  0
LINE
  8
0
 10
-20.5877
 20
93.8115
 11
-20.3131
 21
93.5536
  0
LINE
  8
0
 10
-20.3131
 20
93.5536
 11
-20.0729
 21
93.2634
  0
LINE
  8
0
 10
-20.0729
 20
93.2634
 11
-19.8711
 21
92.9453
  0
LINE
  8
0
 10
-19.8711
 20
92.9453
 11
-19.7107
 21
92.6044
  0
LINE
  8
0
 10
-19.7107
 20
92.6044
 11
-19.5942
 21
92.2461
  0
LINE
  8
0
 10
-19.5942
 20
92.2461
 11
-19.5237
 21
91.876
  0
LINE
  8
0
 10
-19.5237
 20
91.876
 11
-19.5
 21
91.5
  0
LINE
  8
0
 10
-19.5
 20
91.5
 11
-19.5237
 21
91.124
  0
LINE
  8
0
 10
-19.5237
 20
91.124
 11
-19.5942
 21
90.7539
  0
LINE
  8
0
 10
-19.5942
 20
90.7539
 11
-19.7107
 21
90.3956
  0
LINE
  8
0
 10
-19.7107
 20
90.3956
 11
-19.8711
 21
90.0547
  0
LINE
  8
0
 10
-19.8711
 20
90.0547
 11
-20.0729
 21
89.7366
  0
LINE
  8
0
 10
-20.0729
 20
89.7366
 11
-20.3131
 21
89.4464
  0
LINE
  8
0
 10
-20.3131
 20
89.4464
 11
-20.5877
 21
89.1884
  0
LINE
  8
0
 10
-20.5877
 20
89.1884
 11
-20.8925
 21
88.967
  0
LINE
  8
0
 10
-20.8925
 20
88.967
 11
-21.2227
 21
88.7855
  0
LINE
  8
0
 10
-21.2227
 20
88.7855
 11
-21.5729
 21
88.6468
  0
LINE
  8
0
 10
-21.5729
 20
88.6468
 11
-21.9379
 21
88.5531
  0
LINE
  8
0
 10
-21.9379
 20
88.5531
 11
-22.3116
 21
88.5059
  0
LINE
  8
0
 10
-22.3116
 20
88.5059
 11
-22.6884
 21
88.5059
  0
LINE
  8
0
 10
37.3116
 20
88.5059
 11
36.9379
 21
88.5531
  0
LINE
  8
0
 10
36.9379
 20
88.5531
 11
36.5729
 21
88.6468
  0
LINE
  8
0
 10
36.5729
 20
88.6468
 11
36.2227
 21
88.7855
  0
LINE
  8
0
 10
36.2227
 20
88.7855
 11
35.8925
 21
88.967
  0
LINE
  8
0
 10
35.8925
 20
88.967
 11
35.5877
 21
89.1884
  0
LINE
  8
0
 10
35.5877
 20
89.1884
 11
35.3131
 21
89.4464
  0
LINE
  8
0
 10
35.3131
 20
89.4464
 11
35.0729
 21
89.7366
  0
LINE
  8
0
 10
35.0729
 20
89.7366
 11
34.8711
 21
90.0547
  0
LINE
  8
0
 10
34.8711
 20
90.0547
 11
34.7107
 21
90.3956
  0
LINE
  8
0
 10
34.7107
 20
90.3956
 11
34.5942
 21
90.7539
  0
LINE
  8
0
 10
34.5942
 20
90.7539
 11
34.5237
 21
91.124
  0
LINE
  8
0
 10
34.5237
 20
91.124
 11
34.5
 21
91.5
  0
LINE
  8
0
 10
34.5
 20
91.5
 11
34.5237
 21
91.876
  0
LINE
  8
0
 10
34.5237
 20
91.876
 11
34.5942
 21
92.2461
  0
LINE
  8
0
 10
34.5942
 20
92.2461
 11
34.7107
 21
92.6044
  0
LINE
  8
0
 10
34.7107
 20
92.6044
 11
34.8711
 21
92.9453
  0
LINE
  8
0
 10
34.8711
 20
92.9453
 11
35.0729
 21
93.2634
  0
LINE
  8
0
 10
35.0729
 20
93.2634
 11
35.3131
 21
93.5536
  0
LINE
  8
0
 10
35.3131
 20
93.5536
 11
35.5877
 21
93.8115
  0
LINE
  8
0
 10
35.5877
 20
93.8115
 11
35.8925
 21
94.033
  0
LINE
  8
0
 10
35.8925
 20
94.033
 11
36.2227
 21
94.2145
  0
LINE
  8
0
 10
36.2227
 20
94.2145
 11
36.5729
 21
94.3532
  0
LINE
  8
0
 10
36.5729
 20
94.3532
 11
36.9379
 21
94.4469
  0
LINE
  8
0
 10
36.9379
 20
94.4469
 11
37.3116
 21
94.4941
  0
LINE
  8
0
 10
37.3116
 20
94.4941
 11
37.6884
 21
94.4941
  0
LINE
  8
0
 10
37.6884
 20
94.4941
 11
38.0621
 21
94.4469
  0
LINE
  8
0
 10
38.0621
 20
94.4469
 11
38.427
 21
94.3532
  0
LINE
  8
0
 10
38.427
 20
94.3532
 11
38.7773
 21
94.2145
  0
LINE
  8
0
 10
38.7773
 20
94.2145
 11
39.1075
 21
94.033
  0
LINE
  8
0
 10
39.1075
 20
94.033
 11
39.4123
 21
93.8115
  0
LINE
  8
0
 10
39.4123
 20
93.8115
 11
39.6869
 21
93.5536
  0
LINE
  8
0
 10
39.6869
 20
93.5536
 11
39.927
 21
93.2634
  0
LINE
  8
0
 10
39.927
 20
93.2634
 11
40.1289
 21
92.9453
  0
LINE
  8
0
 10
40.1289
 20
92.9453
 11
40.2893
 21
92.6044
  0
LINE
  8
0
 10
40.2893
 20
92.6044
 11
40.4057
 21
92.2461
  0
LINE
  8
0
 10
40.4057
 20
92.2461
 11
40.4763
 21
91.876
  0
LINE
  8
0
 10
40.4763
 20
91.876
 11
40.5
 21
91.5
  0
LINE
  8
0
 10
40.5
 20
91.5
 11
40.4763
 21
91.124
  0
LINE
  8
0
 10
40.4763
 20
91.124
 11
40.4057
 21
90.7539
  0
LINE
  8
0
 10
40.4057
 20
90.7539
 11
40.2893
 21
90.3956
  0
LINE
  8
0
 10
40.2893
 20
90.3956
 11
40.1289
 21
90.0547
  0
LINE
  8
0
 10
40.1289
 20
90.0547
 11
39.927
 21
89.7366
  0
LINE
  8
0
 10
39.927
 20
89.7366
 11
39.6869
 21
89.4464
  0
LINE
  8
0
 10
39.6869
 20
89.4464
 11
39.4123
 21
89.1884
  0
LINE
  8
0
 10
39.4123
 20
89.1884
 11
39.1075
 21
88.967
  0
LINE
  8
0
 10
39.1075
 20
88.967
 11
38.7773
 21
88.7855
  0
LINE
  8
0
 10
38.7773
 20
88.7855
 11
38.427
 21
88.6468
  0
LINE
  8
0
 10
38.427
 20
88.6468
 11
38.0621
 21
88.5531
  0
LINE
  8
0
 10
38.0621
 20
88.5531
 11
37.6884
 21
88.5059
  0
LINE
  8
0
 10
37.6884
 20
88.5059
 11
37.3116
 21
88.5059
  0
LINE
  8
0
 10
-30.0942
 20
90.003
 11
-30.2811
 21
90.0266
  0
LINE
  8
0
 10
-30.2811
 20
90.0266
 11
-30.4635
 21
90.0734
  0
LINE
  8
0
 10
-30.4635
 20
90.0734
 11
-30.6387
 21
90.1427
  0
LINE
  8
0
 10
-30.6387
 20
90.1427
 11
-30.8037
 21
90.2335
  0
LINE
  8
0
 10
-30.8037
 20
90.2335
 11
-30.9561
 21
90.3442
  0
LINE
  8
0
 10
-30.9561
 20
90.3442
 11
-31.0934
 21
90.4732
  0
LINE
  8
0
 10
-31.0934
 20
90.4732
 11
-31.2135
 21
90.6183
  0
LINE
  8
0
 10
-31.2135
 20
90.6183
 11
-31.3145
 21
90.7774
  0
LINE
  8
0
 10
-31.3145
 20
90.7774
 11
-31.3947
 21
90.9478
  0
LINE
  8
0
 10
-31.3947
 20
90.9478
 11
-31.4529
 21
91.127
  0
LINE
  8
0
 10
-31.4529
 20
91.127
 11
-31.4882
 21
91.312
  0
LINE
  8
0
 10
-31.4882
 20
91.312
 11
-31.5
 21
91.5
  0
LINE
  8
0
 10
-31.5
 20
91.5
 11
-31.4882
 21
91.688
  0
LINE
  8
0
 10
-31.4882
 20
91.688
 11
-31.4529
 21
91.873
  0
LINE
  8
0
 10
-31.4529
 20
91.873
 11
-31.3947
 21
92.0522
  0
LINE
  8
0
 10
-31.3947
 20
92.0522
 11
-31.3145
 21
92.2226
  0
LINE
  8
0
 10
-31.3145
 20
92.2226
 11
-31.2135
 21
92.3817
  0
LINE
  8
0
 10
-31.2135
 20
92.3817
 11
-31.0934
 21
92.5268
  0
LINE
  8
0
 10
-31.0934
 20
92.5268
 11
-30.9561
 21
92.6558
  0
LINE
  8
0
 10
-30.9561
 20
92.6558
 11
-30.8037
 21
92.7665
  0
LINE
  8
0
 10
-30.8037
 20
92.7665
 11
-30.6387
 21
92.8572
  0
LINE
  8
0
 10
-30.6387
 20
92.8572
 11
-30.4635
 21
92.9266
  0
LINE
  8
0
 10
-30.4635
 20
92.9266
 11
-30.2811
 21
92.9734
  0
LINE
  8
0
 10
-30.2811
 20
92.9734
 11
-30.0942
 21
92.997
  0
LINE
  8
0
 10
-30.0942
 20
92.997
 11
-29.9058
 21
92.997
  0
LINE
  8
0
 10
-29.9058
 20
92.997
 11
-29.7189
 21
92.9734
  0
LINE
  8
0
 10
-29.7189
 20
92.9734
 11
-29.5365
 21
92.9266
  0
LINE
  8
0
 10
-29.5365
 20
92.9266
 11
-29.3613
 21
92.8572
  0
LINE
  8
0
 10
-29.3613
 20
92.8572
 11
-29.1963
 21
92.7665
  0
LINE
  8
0
 10
-29.1963
 20
92.7665
 11
-29.0439
 21
92.6558
  0
LINE
  8
0
 10
-29.0439
 20
92.6558
 11
-28.9065
 21
92.5268
  0
LINE
  8
0
 10
-28.9065
 20
92.5268
 11
-28.7865
 21
92.3817
  0
LINE
  8
0
 10
-28.7865
 20
92.3817
 11
-28.6855
 21
92.2226
  0
LINE
  8
0
 10
-28.6855
 20
92.2226
 11
-28.6053
 21
92.0522
  0
LINE
  8
0
 10
-28.6053
 20
92.0522
 11
-28.5471
 21
91.873
  0
LINE
  8
0
 10
-28.5471
 20
91.873
 11
-28.5118
 21
91.688
  0
LINE
  8
0
 10
-28.5118
 20
91.688
 11
-28.5
 21
91.5
  0
LINE
  8
0
 10
-28.5
 20
91.5
 11
-28.5118
 21
91.312
  0
LINE
  8
0
 10
-28.5118
 20
91.312
 11
-28.5471
 21
91.127
  0
LINE
  8
0
 10
-28.5471
 20
91.127
 11
-28.6053
 21
90.9478
  0
LINE
  8
0
 10
-28.6053
 20
90.9478
 11
-28.6855
 21
90.7774
  0
LINE
  8
0
 10
-28.6855
 20
90.7774
 11
-28.7865
 21
90.6183
  0
LINE
  8
0
 10
-28.7865
 20
90.6183
 11
-28.9065
 21
90.4732
  0
LINE
  8
0
 10
-28.9065
 20
90.4732
 11
-29.0439
 21
90.3442
  0
LINE
  8
0
 10
-29.0439
 20
90.3442
 11
-29.1963
 21
90.2335
  0
LINE
  8
0
 10
-29.1963
 20
90.2335
 11
-29.3613
 21
90.1427
  0
LINE
  8
0
 10
-29.3613
 20
90.1427
 11
-29.5365
 21
90.0734
  0
LINE
  8
0
 10
-29.5365
 20
90.0734
 11
-29.7189
 21
90.0266
  0
LINE
  8
0
 10
-29.7189
 20
90.0266
 11
-29.9058
 21
90.003
  0
LINE
  8
0
 10
-29.9058
 20
90.003
 11
-30.0942
 21
90.003
  0
LINE
  8
0
 10
44.9058
 20
90.003
 11
44.7189
 21
90.0266
  0
LINE
  8
0
 10
44.7189
 20
90.0266
 11
44.5365
 21
90.0734
  0
LINE
  8
0
 10
44.5365
 20
90.0734
 11
44.3613
 21
90.1427
  0
LINE
  8
0
 10
44.3613
 20
90.1427
 11
44.1963
 21
90.2335
  0
LINE
  8
0
 10
44.1963
 20
90.2335
 11
44.0439
 21
90.3442
  0
LINE
  8
0
 10
44.0439
 20
90.3442
 11
43.9065
 21
90.4732
  0
LINE
  8
0
 10
43.9065
 20
90.4732
 11
43.7865
 21
90.6183
  0
LINE
  8
0
 10
43.7865
 20
90.6183
 11
43.6855
 21
90.7774
  0
LINE
  8
0
 10
43.6855
 20
90.7774
 11
43.6053
 21
90.9478
  0
LINE
  8
0
 10
43.6053
 20
90.9478
 11
43.5471
 21
91.127
  0
LINE
  8
0
 10
43.5471
 20
91.127
 11
43.5118
 21
91.312
  0
LINE
  8
0
 10
43.5118
 20
91.312
 11
43.5
 21
91.5
  0
LINE
  8
0
 10
43.5
 20
91.5
 11
43.5118
 21
91.688
  0
LINE
  8
0
 10
43.5118
 20
91.688
 11
43.5471
 21
91.873
  0
LINE
  8
0
 10
43.5471
 20
91.873
 11
43.6053
 21
92.0522
  0
LINE
  8
0
 10
43.6053
 20
92.0522
 11
43.6855
 21
92.2226
  0
LINE
  8
0
 10
43.6855
 20
92.2226
 11
43.7865
 21
92.3817
  0
LINE
  8
0
 10
43.7865
 20
92.3817
 11
43.9065
 21
92.5268
  0
LINE
  8
0
 10
43.9065
 20
92.5268
 11
44.0439
 21
92.6558
  0
LINE
  8
0
 10
44.0439
 20
92.6558
 11
44.1963
 21
92.7665
  0
LINE
  8
0
 10
44.1963
 20
92.7665
 11
44.3613
 21
92.8572
  0
LINE
  8
0
 10
44.3613
 20
92.8572
 11
44.5365
 21
92.9266
  0
LINE
  8
0
 10
44.5365
 20
92.9266
 11
44.7189
 21
92.9734
  0
LINE
  8
0
 10
44.7189
 20
92.9734
 11
44.9058
 21
92.997
  0
LINE
  8
0
 10
44.9058
 20
92.997
 11
45.0942
 21
92.997
  0
LINE
  8
0
 10
45.0942
 20
92.997
 11
45.2811
 21
92.9734
  0
LINE
  8
0
 10
45.2811
 20
92.9734
 11
45.4635
 21
92.9266
  0
LINE
  8
0
 10
45.4635
 20
92.9266
 11
45.6387
 21
92.8572
  0
LINE
  8
0
 10
45.6387
 20
92.8572
 11
45.8037
 21
92.7665
  0
LINE
  8
0
 10
45.8037
 20
92.7665
 11
45.9561
 21
92.6558
  0
LINE
  8
0
 10
45.9561
 20
92.6558
 11
46.0934
 21
92.5268
  0
LINE
  8
0
 10
46.0934
 20
92.5268
 11
46.2135
 21
92.3817
  0
LINE
  8
0
 10
46.2135
 20
92.3817
 11
46.3145
 21
92.2226
  0
LINE
  8
0
 10
46.3145
 20
92.2226
 11
46.3947
 21
92.0522
  0
LINE
  8
0
 10
46.3947
 20
92.0522
 11
46.4529
 21
91.873
  0
LINE
  8
0
 10
46.4529
 20
91.873
 11
46.4882
 21
91.688
  0
LINE
  8
0
 10
46.4882
 20
91.688
 11
46.5
 21
91.5
  0
LINE
  8
0
 10
46.5
 20
91.5
 11
46.4882
 21
91.312
  0
LINE
  8
0
 10
46.4882
 20
91.312
 11
46.4529
 21
91.127
  0
LINE
  8
0
 10
46.4529
 20
91.127
 11
46.3947
 21
90.9478
  0
LINE
  8
0
 10
46.3947
 20
90.9478
 11
46.3145
 21
90.7774
  0
LINE
  8
0
 10
46.3145
 20
90.7774
 11
46.2135
 21
90.6183
  0
LINE
  8
0
 10
46.2135
 20
90.6183
 11
46.0934
 21
90.4732
  0
LINE
  8
0
 10
46.0934
 20
90.4732
 11
45.9561
 21
90.3442
  0
LINE
  8
0
 10
45.9561
 20
90.3442
 11
45.8037
 21
90.2335
  0
LINE
  8
0
 10
45.8037
 20
90.2335
 11
45.6387
 21
90.1427
  0
LINE
  8
0
 10
45.6387
 20
90.1427
 11
45.4635
 21
90.0734
  0
LINE
  8
0
 10
45.4635
 20
90.0734
 11
45.2811
 21
90.0266
  0
LINE
  8
0
 10
45.2811
 20
90.0266
 11
45.0942
 21
90.003
  0
LINE
  8
0
 10
45.0942
 20
90.003
 11
44.9058
 21
90.003
  0
LINE
  8
0
 10
-0.0941772
 20
90.003
 11
-0.281067
 21
90.0266
  0
LINE
  8
0
 10
-0.281067
 20
90.0266
 11
-0.463516
 21
90.0734
  0
LINE
  8
0
 10
-0.463516
 20
90.0734
 11
-0.638657
 21
90.1427
  0
LINE
  8
0
 10
-0.638657
 20
90.1427
 11
-0.803726
 21
90.2335
  0
LINE
  8
0
 10
-0.803726
 20
90.2335
 11
-0.956131
 21
90.3442
  0
LINE
  8
0
 10
-0.956131
 20
90.3442
 11
-1.09344
 21
90.4732
  0
LINE
  8
0
 10
-1.09344
 20
90.4732
 11
-1.21352
 21
90.6183
  0
LINE
  8
0
 10
-1.21352
 20
90.6183
 11
-1.31445
 21
90.7774
  0
LINE
  8
0
 10
-1.31445
 20
90.7774
 11
-1.39465
 21
90.9478
  0
LINE
  8
0
 10
-1.39465
 20
90.9478
 11
-1.45287
 21
91.127
  0
LINE
  8
0
 10
-1.45287
 20
91.127
 11
-1.48816
 21
91.312
  0
LINE
  8
0
 10
-1.48816
 20
91.312
 11
-1.5
 21
91.5
  0
LINE
  8
0
 10
-1.5
 20
91.5
 11
-1.48816
 21
91.688
  0
LINE
  8
0
 10
-1.48816
 20
91.688
 11
-1.45287
 21
91.873
  0
LINE
  8
0
 10
-1.45287
 20
91.873
 11
-1.39465
 21
92.0522
  0
LINE
  8
0
 10
-1.39465
 20
92.0522
 11
-1.31445
 21
92.2226
  0
LINE
  8
0
 10
-1.31445
 20
92.2226
 11
-1.21352
 21
92.3817
  0
LINE
  8
0
 10
-1.21352
 20
92.3817
 11
-1.09344
 21
92.5268
  0
LINE
  8
0
 10
-1.09344
 20
92.5268
 11
-0.956131
 21
92.6558
  0
LINE
  8
0
 10
-0.956131
 20
92.6558
 11
-0.803726
 21
92.7665
  0
LINE
  8
0
 10
-0.803726
 20
92.7665
 11
-0.638657
 21
92.8572
  0
LINE
  8
0
 10
-0.638657
 20
92.8572
 11
-0.463516
 21
92.9266
  0
LINE
  8
0
 10
-0.463516
 20
92.9266
 11
-0.281067
 21
92.9734
  0
LINE
  8
0
 10
-0.281067
 20
92.9734
 11
-0.0941772
 21
92.997
  0
LINE
  8
0
 10
-0.0941772
 20
92.997
 11
0.0941772
 21
92.997
  0
LINE
  8
0
 10
0.0941772
 20
92.997
 11
0.281067
 21
92.9734
  0
LINE
  8
0
 10
0.281067
 20
92.9734
 11
0.463516
 21
92.9266
  0
LINE
  8
0
 10
0.463516
 20
92.9266
 11
0.638657
 21
92.8572
  0
LINE
  8
0
 10
0.638657
 20
92.8572
 11
0.803726
 21
92.7665
  0
LINE
  8
0
 10
0.803726
 20
92.7665
 11
0.956131
 21
92.6558
  0
LINE
  8
0
 10
0.956131
 20
92.6558
 11
1.09344
 21
92.5268
  0
LINE
  8
0
 10
1.09344
 20
92.5268
 11
1.21352
 21
92.3817
  0
LINE
  8
0
 10
1.21352
 20
92.3817
 11
1.31445
 21
92.2226
  0
LINE
  8
0
 10
1.31445
 20
92.2226
 11
1.39465
 21
92.0522
  0
LINE
  8
0
 10
1.39465
 20
92.0522
 11
1.45287
 21
91.873
  0
LINE
  8
0
 10
1.45287
 20
91.873
 11
1.48816
 21
91.688
  0
LINE
  8
0
 10
1.48816
 20
91.688
 11
1.5
 21
91.5
  0
LINE
  8
0
 10
1.5
 20
91.5
 11
1.48816
 21
91.312
  0
LINE
  8
0
 10
1.48816
 20
91.312
 11
1.45287
 21
91.127
  0
LINE
  8
0
 10
1.45287
 20
91.127
 11
1.39465
 21
90.9478
  0
LINE
  8
0
 10
1.39465
 20
90.9478
 11
1.31445
 21
90.7774
  0
LINE
  8
0
 10
1.31445
 20
90.7774
 11
1.21352
 21
90.6183
  0
LINE
  8
0
 10
1.21352
 20
90.6183
 11
1.09344
 21
90.4732
  0
LINE
  8
0
 10
1.09344
 20
90.4732
 11
0.956131
 21
90.3442
  0
LINE
  8
0
 10
0.956131
 20
90.3442
 11
0.803726
 21
90.2335
  0
LINE
  8
0
 10
0.803726
 20
90.2335
 11
0.638657
 21
90.1427
  0
LINE
  8
0
 10
0.638657
 20
90.1427
 11
0.463516
 21
90.0734
  0
LINE
  8
0
 10
0.463516
 20
90.0734
 11
0.281067
 21
90.0266
  0
LINE
  8
0
 10
0.281067
 20
90.0266
 11
0.0941772
 21
90.003
  0
LINE
  8
0
 10
0.0941772
 20
90.003
 11
-0.0941772
 21
90.003
  0
LINE
  8
0
 10
29.9058
 20
90.003
 11
29.7189
 21
90.0266
  0
LINE
  8
0
 10
29.7189
 20
90.0266
 11
29.5365
 21
90.0734
  0
LINE
  8
0
 10
29.5365
 20
90.0734
 11
29.3613
 21
90.1427
  0
LINE
  8
0
 10
29.3613
 20
90.1427
 11
29.1963
 21
90.2335
  0
LINE
  8
0
 10
29.1963
 20
90.2335
 11
29.0439
 21
90.3442
  0
LINE
  8
0
 10
29.0439
 20
90.3442
 11
28.9065
 21
90.4732
  0
LINE
  8
0
 10
28.9065
 20
90.4732
 11
28.7865
 21
90.6183
  0
LINE
  8
0
 10
28.7865
 20
90.6183
 11
28.6855
 21
90.7774
  0
LINE
  8
0
 10
28.6855
 20
90.7774
 11
28.6053
 21
90.9478
  0
LINE
  8
0
 10
28.6053
 20
90.9478
 11
28.5471
 21
91.127
  0
LINE
  8
0
 10
28.5471
 20
91.127
 11
28.5118
 21
91.312
  0
LINE
  8
0
 10
28.5118
 20
91.312
 11
28.5
 21
91.5
  0
LINE
  8
0
 10
28.5
 20
91.5
 11
28.5118
 21
91.688
  0
LINE
  8
0
 10
28.5118
 20
91.688
 11
28.5471
 21
91.873
  0
LINE
  8
0
 10
28.5471
 20
91.873
 11
28.6053
 21
92.0522
  0
LINE
  8
0
 10
28.6053
 20
92.0522
 11
28.6855
 21
92.2226
  0
LINE
  8
0
 10
28.6855
 20
92.2226
 11
28.7865
 21
92.3817
  0
LINE
  8
0
 10
28.7865
 20
92.3817
 11
28.9065
 21
92.5268
  0
LINE
  8
0
 10
28.9065
 20
92.5268
 11
29.0439
 21
92.6558
  0
LINE
  8
0
 10
29.0439
 20
92.6558
 11
29.1963
 21
92.7665
  0
LINE
  8
0
 10
29.1963
 20
92.7665
 11
29.3613
 21
92.8572
  0
LINE
  8
0
 10
29.3613
 20
92.8572
 11
29.5365
 21
92.9266
  0
LINE
  8
0
 10
29.5365
 20
92.9266
 11
29.7189
 21
92.9734
  0
LINE
  8
0
 10
29.7189
 20
92.9734
 11
29.9058
 21
92.997
  0
LINE
  8
0
 10
29.9058
 20
92.997
 11
30.0942
 21
92.997
  0
LINE
  8
0
 10
30.0942
 20
92.997
 11
30.2811
 21
92.9734
  0
LINE
  8
0
 10
30.2811
 20
92.9734
 11
30.4635
 21
92.9266
  0
LINE
  8
0
 10
30.4635
 20
92.9266
 11
30.6387
 21
92.8572
  0
LINE
  8
0
 10
30.6387
 20
92.8572
 11
30.8037
 21
92.7665
  0
LINE
  8
0
 10
30.8037
 20
92.7665
 11
30.9561
 21
92.6558
  0
LINE
  8
0
 10
30.9561
 20
92.6558
 11
31.0934
 21
92.5268
  0
LINE
  8
0
 10
31.0934
 20
92.5268
 11
31.2135
 21
92.3817
  0
LINE
  8
0
 10
31.2135
 20
92.3817
 11
31.3145
 21
92.2226
  0
LINE
  8
0
 10
31.3145
 20
92.2226
 11
31.3947
 21
92.0522
  0
LINE
  8
0
 10
31.3947
 20
92.0522
 11
31.4529
 21
91.873
  0
LINE
  8
0
 10
31.4529
 20
91.873
 11
31.4882
 21
91.688
  0
LINE
  8
0
 10
31.4882
 20
91.688
 11
31.5
 21
91.5
  0
LINE
  8
0
 10
31.5
 20
91.5
 11
31.4882
 21
91.312
  0
LINE
  8
0
 10
31.4882
 20
91.312
 11
31.4529
 21
91.127
  0
LINE
  8
0
 10
31.4529
 20
91.127
 11
31.3947
 21
90.9478
  0
LINE
  8
0
 10
31.3947
 20
90.9478
 11
31.3145
 21
90.7774
  0
LINE
  8
0
 10
31.3145
 20
90.7774
 11
31.2135
 21
90.6183
  0
LINE
  8
0
 10
31.2135
 20
90.6183
 11
31.0934
 21
90.4732
  0
LINE
  8
0
 10
31.0934
 20
90.4732
 11
30.9561
 21
90.3442
  0
LINE
  8
0
 10
30.9561
 20
90.3442
 11
30.8037
 21
90.2335
  0
LINE
  8
0
 10
30.8037
 20
90.2335
 11
30.6387
 21
90.1427
  0
LINE
  8
0
 10
30.6387
 20
90.1427
 11
30.4635
 21
90.0734
  0
LINE
  8
0
 10
30.4635
 20
90.0734
 11
30.2811
 21
90.0266
  0
LINE
  8
0
 10
30.2811
 20
90.0266
 11
30.0942
 21
90.003
  0
LINE
  8
0
 10
30.0942
 20
90.003
 11
29.9058
 21
90.003
  0
LINE
  8
0
 10
-15.0942
 20
90.003
 11
-15.2811
 21
90.0266
  0
LINE
  8
0
 10
-15.2811
 20
90.0266
 11
-15.4635
 21
90.0734
  0
LINE
  8
0
 10
-15.4635
 20
90.0734
 11
-15.6387
 21
90.1427
  0
LINE
  8
0
 10
-15.6387
 20
90.1427
 11
-15.8037
 21
90.2335
  0
LINE
  8
0
 10
-15.8037
 20
90.2335
 11
-15.9561
 21
90.3442
  0
LINE
  8
0
 10
-15.9561
 20
90.3442
 11
-16.0934
 21
90.4732
  0
LINE
  8
0
 10
-16.0934
 20
90.4732
 11
-16.2135
 21
90.6183
  0
LINE
  8
0
 10
-16.2135
 20
90.6183
 11
-16.3145
 21
90.7774
  0
LINE
  8
0
 10
-16.3145
 20
90.7774
 11
-16.3947
 21
90.9478
  0
LINE
  8
0
 10
-16.3947
 20
90.9478
 11
-16.4529
 21
91.127
  0
LINE
  8
0
 10
-16.4529
 20
91.127
 11
-16.4882
 21
91.312
  0
LINE
  8
0
 10
-16.4882
 20
91.312
 11
-16.5
 21
91.5
  0
LINE
  8
0
 10
-16.5
 20
91.5
 11
-16.4882
 21
91.688
  0
LINE
  8
0
 10
-16.4882
 20
91.688
 11
-16.4529
 21
91.873
  0
LINE
  8
0
 10
-16.4529
 20
91.873
 11
-16.3947
 21
92.0522
  0
LINE
  8
0
 10
-16.3947
 20
92.0522
 11
-16.3145
 21
92.2226
  0
LINE
  8
0
 10
-16.3145
 20
92.2226
 11
-16.2135
 21
92.3817
  0
LINE
  8
0
 10
-16.2135
 20
92.3817
 11
-16.0934
 21
92.5268
  0
LINE
  8
0
 10
-16.0934
 20
92.5268
 11
-15.9561
 21
92.6558
  0
LINE
  8
0
 10
-15.9561
 20
92.6558
 11
-15.8037
 21
92.7665
  0
LINE
  8
0
 10
-15.8037
 20
92.7665
 11
-15.6387
 21
92.8572
  0
LINE
  8
0
 10
-15.6387
 20
92.8572
 11
-15.4635
 21
92.9266
  0
LINE
  8
0
 10
-15.4635
 20
92.9266
 11
-15.2811
 21
92.9734
  0
LINE
  8
0
 10
-15.2811
 20
92.9734
 11
-15.0942
 21
92.997
  0
LINE
  8
0
 10
-15.0942
 20
92.997
 11
-14.9058
 21
92.997
  0
LINE
  8
0
 10
-14.9058
 20
92.997
 11
-14.7189
 21
92.9734
  0
LINE
  8
0
 10
-14.7189
 20
92.9734
 11
-14.5365
 21
92.9266
  0
LINE
  8
0
 10
-14.5365
 20
92.9266
 11
-14.3613
 21
92.8572
  0
LINE
  8
0
 10
-14.3613
 20
92.8572
 11
-14.1963
 21
92.7665
  0
LINE
  8
0
 10
-14.1963
 20
92.7665
 11
-14.0439
 21
92.6558
  0
LINE
  8
0
 10
-14.0439
 20
92.6558
 11
-13.9065
 21
92.5268
  0
LINE
  8
0
 10
-13.9065
 20
92.5268
 11
-13.7865
 21
92.3817
  0
LINE
  8
0
 10
-13.7865
 20
92.3817
 11
-13.6855
 21
92.2226
  0
LINE
  8
0
 10
-13.6855
 20
92.2226
 11
-13.6053
 21
92.0522
  0
LINE
  8
0
 10
-13.6053
 20
92.0522
 11
-13.5471
 21
91.873
  0
LINE
  8
0
 10
-13.5471
 20
91.873
 11
-13.5118
 21
91.688
  0
LINE
  8
0
 10
-13.5118
 20
91.688
 11
-13.5
 21
91.5
  0
LINE
  8
0
 10
-13.5
 20
91.5
 11
-13.5118
 21
91.312
  0
LINE
  8
0
 10
-13.5118
 20
91.312
 11
-13.5471
 21
91.127
  0
LINE
  8
0
 10
-13.5471
 20
91.127
 11
-13.6053
 21
90.9478
  0
LINE
  8
0
 10
-13.6053
 20
90.9478
 11
-13.6855
 21
90.7774
  0
LINE
  8
0
 10
-13.6855
 20
90.7774
 11
-13.7865
 21
90.6183
  0
LINE
  8
0
 10
-13.7865
 20
90.6183
 11
-13.9065
 21
90.4732
  0
LINE
  8
0
 10
-13.9065
 20
90.4732
 11
-14.0439
 21
90.3442
  0
LINE
  8
0
 10
-14.0439
 20
90.3442
 11
-14.1963
 21
90.2335
  0
LINE
  8
0
 10
-14.1963
 20
90.2335
 11
-14.3613
 21
90.1427
  0
LINE
  8
0
 10
-14.3613
 20
90.1427
 11
-14.5365
 21
90.0734
  0
LINE
  8
0
 10
-14.5365
 20
90.0734
 11
-14.7189
 21
90.0266
  0
LINE
  8
0
 10
-14.7189
 20
90.0266
 11
-14.9058
 21
90.003
  0
LINE
  8
0
 10
-14.9058
 20
90.003
 11
-15.0942
 21
90.003
  0
LINE
  8
0
 10
-45.0942
 20
90.003
 11
-45.2811
 21
90.0266
  0
LINE
  8
0
 10
-45.2811
 20
90.0266
 11
-45.4635
 21
90.0734
  0
LINE
  8
0
 10
-45.4635
 20
90.0734
 11
-45.6387
 21
90.1427
  0
LINE
  8
0
 10
-45.6387
 20
90.1427
 11
-45.8037
 21
90.2335
  0
LINE
  8
0
 10
-45.8037
 20
90.2335
 11
-45.9561
 21
90.3442
  0
LINE
  8
0
 10
-45.9561
 20
90.3442
 11
-46.0934
 21
90.4732
  0
LINE
  8
0
 10
-46.0934
 20
90.4732
 11
-46.2135
 21
90.6183
  0
LINE
  8
0
 10
-46.2135
 20
90.6183
 11
-46.3145
 21
90.7774
  0
LINE
  8
0
 10
-46.3145
 20
90.7774
 11
-46.3947
 21
90.9478
  0
LINE
  8
0
 10
-46.3947
 20
90.9478
 11
-46.4529
 21
91.127
  0
LINE
  8
0
 10
-46.4529
 20
91.127
 11
-46.4882
 21
91.312
  0
LINE
  8
0
 10
-46.4882
 20
91.312
 11
-46.5
 21
91.5
  0
LINE
  8
0
 10
-46.5
 20
91.5
 11
-46.4882
 21
91.688
  0
LINE
  8
0
 10
-46.4882
 20
91.688
 11
-46.4529
 21
91.873
  0
LINE
  8
0
 10
-46.4529
 20
91.873
 11
-46.3947
 21
92.0522
  0
LINE
  8
0
 10
-46.3947
 20
92.0522
 11
-46.3145
 21
92.2226
  0
LINE
  8
0
 10
-46.3145
 20
92.2226
 11
-46.2135
 21
92.3817
  0
LINE
  8
0
 10
-46.2135
 20
92.3817
 11
-46.0934
 21
92.5268
  0
LINE
  8
0
 10
-46.0934
 20
92.5268
 11
-45.9561
 21
92.6558
  0
LINE
  8
0
 10
-45.9561
 20
92.6558
 11
-45.8037
 21
92.7665
  0
LINE
  8
0
 10
-45.8037
 20
92.7665
 11
-45.6387
 21
92.8572
  0
LINE
  8
0
 10
-45.6387
 20
92.8572
 11
-45.4635
 21
92.9266
  0
LINE
  8
0
 10
-45.4635
 20
92.9266
 11
-45.2811
 21
92.9734
  0
LINE
  8
0
 10
-45.2811
 20
92.9734
 11
-45.0942
 21
92.997
  0
LINE
  8
0
 10
-45.0942
 20
92.997
 11
-44.9058
 21
92.997
  0
LINE
  8
0
 10
-44.9058
 20
92.997
 11
-44.7189
 21
92.9734
  0
LINE
  8
0
 10
-44.7189
 20
92.9734
 11
-44.5365
 21
92.9266
  0
LINE
  8
0
 10
-44.5365
 20
92.9266
 11
-44.3613
 21
92.8572
  0
LINE
  8
0
 10
-44.3613
 20
92.8572
 11
-44.1963
 21
92.7665
  0
LINE
  8
0
 10
-44.1963
 20
92.7665
 11
-44.0439
 21
92.6558
  0
LINE
  8
0
 10
-44.0439
 20
92.6558
 11
-43.9065
 21
92.5268
  0
LINE
  8
0
 10
-43.9065
 20
92.5268
 11
-43.7865
 21
92.3817
  0
LINE
  8
0
 10
-43.7865
 20
92.3817
 11
-43.6855
 21
92.2226
  0
LINE
  8
0
 10
-43.6855
 20
92.2226
 11
-43.6053
 21
92.0522
  0
LINE
  8
0
 10
-43.6053
 20
92.0522
 11
-43.5471
 21
91.873
  0
LINE
  8
0
 10
-43.5471
 20
91.873
 11
-43.5118
 21
91.688
  0
LINE
  8
0
 10
-43.5118
 20
91.688
 11
-43.5
 21
91.5
  0
LINE
  8
0
 10
-43.5
 20
91.5
 11
-43.5118
 21
91.312
  0
LINE
  8
0
 10
-43.5118
 20
91.312
 11
-43.5471
 21
91.127
  0
LINE
  8
0
 10
-43.5471
 20
91.127
 11
-43.6053
 21
90.9478
  0
LINE
  8
0
 10
-43.6053
 20
90.9478
 11
-43.6855
 21
90.7774
  0
LINE
  8
0
 10
-43.6855
 20
90.7774
 11
-43.7865
 21
90.6183
  0
LINE
  8
0
 10
-43.7865
 20
90.6183
 11
-43.9065
 21
90.4732
  0
LINE
  8
0
 10
-43.9065
 20
90.4732
 11
-44.0439
 21
90.3442
  0
LINE
  8
0
 10
-44.0439
 20
90.3442
 11
-44.1963
 21
90.2335
  0
LINE
  8
0
 10
-44.1963
 20
90.2335
 11
-44.3613
 21
90.1427
  0
LINE
  8
0
 10
-44.3613
 20
90.1427
 11
-44.5365
 21
90.0734
  0
LINE
  8
0
 10
-44.5365
 20
90.0734
 11
-44.7189
 21
90.0266
  0
LINE
  8
0
 10
-44.7189
 20
90.0266
 11
-44.9058
 21
90.003
  0
LINE
  8
0
 10
-44.9058
 20
90.003
 11
-45.0942
 21
90.003
  0
LINE
  8
0
 10
14.9058
 20
90.003
 11
14.7189
 21
90.0266
  0
LINE
  8
0
 10
14.7189
 20
90.0266
 11
14.5365
 21
90.0734
  0
LINE
  8
0
 10
14.5365
 20
90.0734
 11
14.3613
 21
90.1427
  0
LINE
  8
0
 10
14.3613
 20
90.1427
 11
14.1963
 21
90.2335
  0
LINE
  8
0
 10
14.1963
 20
90.2335
 11
14.0439
 21
90.3442
  0
LINE
  8
0
 10
14.0439
 20
90.3442
 11
13.9065
 21
90.4732
  0
LINE
  8
0
 10
13.9065
 20
90.4732
 11
13.7865
 21
90.6183
  0
LINE
  8
0
 10
13.7865
 20
90.6183
 11
13.6855
 21
90.7774
  0
LINE
  8
0
 10
13.6855
 20
90.7774
 11
13.6053
 21
90.9478
  0
LINE
  8
0
 10
13.6053
 20
90.9478
 11
13.5471
 21
91.127
  0
LINE
  8
0
 10
13.5471
 20
91.127
 11
13.5118
 21
91.312
  0
LINE
  8
0
 10
13.5118
 20
91.312
 11
13.5
 21
91.5
  0
LINE
  8
0
 10
13.5
 20
91.5
 11
13.5118
 21
91.688
  0
LINE
  8
0
 10
13.5118
 20
91.688
 11
13.5471
 21
91.873
  0
LINE
  8
0
 10
13.5471
 20
91.873
 11
13.6053
 21
92.0522
  0
LINE
  8
0
 10
13.6053
 20
92.0522
 11
13.6855
 21
92.2226
  0
LINE
  8
0
 10
13.6855
 20
92.2226
 11
13.7865
 21
92.3817
  0
LINE
  8
0
 10
13.7865
 20
92.3817
 11
13.9065
 21
92.5268
  0
LINE
  8
0
 10
13.9065
 20
92.5268
 11
14.0439
 21
92.6558
  0
LINE
  8
0
 10
14.0439
 20
92.6558
 11
14.1963
 21
92.7665
  0
LINE
  8
0
 10
14.1963
 20
92.7665
 11
14.3613
 21
92.8572
  0
LINE
  8
0
 10
14.3613
 20
92.8572
 11
14.5365
 21
92.9266
  0
LINE
  8
0
 10
14.5365
 20
92.9266
 11
14.7189
 21
92.9734
  0
LINE
  8
0
 10
14.7189
 20
92.9734
 11
14.9058
 21
92.997
  0
LINE
  8
0
 10
14.9058
 20
92.997
 11
15.0942
 21
92.997
  0
LINE
  8
0
 10
15.0942
 20
92.997
 11
15.2811
 21
92.9734
  0
LINE
  8
0
 10
15.2811
 20
92.9734
 11
15.4635
 21
92.9266
  0
LINE
  8
0
 10
15.4635
 20
92.9266
 11
15.6387
 21
92.8572
  0
LINE
  8
0
 10
15.6387
 20
92.8572
 11
15.8037
 21
92.7665
  0
LINE
  8
0
 10
15.8037
 20
92.7665
 11
15.9561
 21
92.6558
  0
LINE
  8
0
 10
15.9561
 20
92.6558
 11
16.0934
 21
92.5268
  0
LINE
  8
0
 10
16.0934
 20
92.5268
 11
16.2135
 21
92.3817
  0
LINE
  8
0
 10
16.2135
 20
92.3817
 11
16.3145
 21
92.2226
  0
LINE
  8
0
 10
16.3145
 20
92.2226
 11
16.3947
 21
92.0522
  0
LINE
  8
0
 10
16.3947
 20
92.0522
 11
16.4529
 21
91.873
  0
LINE
  8
0
 10
16.4529
 20
91.873
 11
16.4882
 21
91.688
  0
LINE
  8
0
 10
16.4882
 20
91.688
 11
16.5
 21
91.5
  0
LINE
  8
0
 10
16.5
 20
91.5
 11
16.4882
 21
91.312
  0
LINE
  8
0
 10
16.4882
 20
91.312
 11
16.4529
 21
91.127
  0
LINE
  8
0
 10
16.4529
 20
91.127
 11
16.3947
 21
90.9478
  0
LINE
  8
0
 10
16.3947
 20
90.9478
 11
16.3145
 21
90.7774
  0
LINE
  8
0
 10
16.3145
 20
90.7774
 11
16.2135
 21
90.6183
  0
LINE
  8
0
 10
16.2135
 20
90.6183
 11
16.0934
 21
90.4732
  0
LINE
  8
0
 10
16.0934
 20
90.4732
 11
15.9561
 21
90.3442
  0
LINE
  8
0
 10
15.9561
 20
90.3442
 11
15.8037
 21
90.2335
  0
LINE
  8
0
 10
15.8037
 20
90.2335
 11
15.6387
 21
90.1427
  0
LINE
  8
0
 10
15.6387
 20
90.1427
 11
15.4635
 21
90.0734
  0
LINE
  8
0
 10
15.4635
 20
90.0734
 11
15.2811
 21
90.0266
  0
LINE
  8
0
 10
15.2811
 20
90.0266
 11
15.0942
 21
90.003
  0
LINE
  8
0
 10
15.0942
 20
90.003
 11
14.9058
 21
90.003
  0
LINE
  8
0
 10
52.4058
 20
82.5029
 11
52.2189
 21
82.5266
  0
LINE
  8
0
 10
52.2189
 20
82.5266
 11
52.0365
 21
82.5734
  0
LINE
  8
0
 10
52.0365
 20
82.5734
 11
51.8613
 21
82.6427
  0
LINE
  8
0
 10
51.8613
 20
82.6427
 11
51.6963
 21
82.7335
  0
LINE
  8
0
 10
51.6963
 20
82.7335
 11
51.5439
 21
82.8442
  0
LINE
  8
0
 10
51.5439
 20
82.8442
 11
51.4065
 21
82.9732
  0
LINE
  8
0
 10
51.4065
 20
82.9732
 11
51.2865
 21
83.1183
  0
LINE
  8
0
 10
51.2865
 20
83.1183
 11
51.1855
 21
83.2774
  0
LINE
  8
0
 10
51.1855
 20
83.2774
 11
51.1053
 21
83.4478
  0
LINE
  8
0
 10
51.1053
 20
83.4478
 11
51.0471
 21
83.627
  0
LINE
  8
0
 10
51.0471
 20
83.627
 11
51.0118
 21
83.812
  0
LINE
  8
0
 10
51.0118
 20
83.812
 11
51
 21
84
  0
LINE
  8
0
 10
51
 20
84
 11
51.0118
 21
84.188
  0
LINE
  8
0
 10
51.0118
 20
84.188
 11
51.0471
 21
84.373
  0
LINE
  8
0
 10
51.0471
 20
84.373
 11
51.1053
 21
84.5522
  0
LINE
  8
0
 10
51.1053
 20
84.5522
 11
51.1855
 21
84.7226
  0
LINE
  8
0
 10
51.1855
 20
84.7226
 11
51.2865
 21
84.8817
  0
LINE
  8
0
 10
51.2865
 20
84.8817
 11
51.4065
 21
85.0268
  0
LINE
  8
0
 10
51.4065
 20
85.0268
 11
51.5439
 21
85.1558
  0
LINE
  8
0
 10
51.5439
 20
85.1558
 11
51.6963
 21
85.2665
  0
LINE
  8
0
 10
51.6963
 20
85.2665
 11
51.8613
 21
85.3572
  0
LINE
  8
0
 10
51.8613
 20
85.3572
 11
52.0365
 21
85.4266
  0
LINE
  8
0
 10
52.0365
 20
85.4266
 11
52.2189
 21
85.4734
  0
LINE
  8
0
 10
52.2189
 20
85.4734
 11
52.4058
 21
85.497
  0
LINE
  8
0
 10
52.4058
 20
85.497
 11
52.5942
 21
85.497
  0
LINE
  8
0
 10
52.5942
 20
85.497
 11
52.7811
 21
85.4734
  0
LINE
  8
0
 10
52.7811
 20
85.4734
 11
52.9635
 21
85.4266
  0
LINE
  8
0
 10
52.9635
 20
85.4266
 11
53.1387
 21
85.3572
  0
LINE
  8
0
 10
53.1387
 20
85.3572
 11
53.3037
 21
85.2665
  0
LINE
  8
0
 10
53.3037
 20
85.2665
 11
53.4561
 21
85.1558
  0
LINE
  8
0
 10
53.4561
 20
85.1558
 11
53.5934
 21
85.0268
  0
LINE
  8
0
 10
53.5934
 20
85.0268
 11
53.7135
 21
84.8817
  0
LINE
  8
0
 10
53.7135
 20
84.8817
 11
53.8145
 21
84.7226
  0
LINE
  8
0
 10
53.8145
 20
84.7226
 11
53.8947
 21
84.5522
  0
LINE
  8
0
 10
53.8947
 20
84.5522
 11
53.9529
 21
84.373
  0
LINE
  8
0
 10
53.9529
 20
84.373
 11
53.9882
 21
84.188
  0
LINE
  8
0
 10
53.9882
 20
84.188
 11
54
 21
84
  0
LINE
  8
0
 10
54
 20
84
 11
53.9882
 21
83.812
  0
LINE
  8
0
 10
53.9882
 20
83.812
 11
53.9529
 21
83.627
  0
LINE
  8
0
 10
53.9529
 20
83.627
 11
53.8947
 21
83.4478
  0
LINE
  8
0
 10
53.8947
 20
83.4478
 11
53.8145
 21
83.2774
  0
LINE
  8
0
 10
53.8145
 20
83.2774
 11
53.7135
 21
83.1183
  0
LINE
  8
0
 10
53.7135
 20
83.1183
 11
53.5934
 21
82.9732
  0
LINE
  8
0
 10
53.5934
 20
82.9732
 11
53.4561
 21
82.8442
  0
LINE
  8
0
 10
53.4561
 20
82.8442
 11
53.3037
 21
82.7335
  0
LINE
  8
0
 10
53.3037
 20
82.7335
 11
53.1387
 21
82.6427
  0
LINE
  8
0
 10
53.1387
 20
82.6427
 11
52.9635
 21
82.5734
  0
LINE
  8
0
 10
52.9635
 20
82.5734
 11
52.7811
 21
82.5266
  0
LINE
  8
0
 10
52.7811
 20
82.5266
 11
52.5942
 21
82.5029
  0
LINE
  8
0
 10
52.5942
 20
82.5029
 11
52.4058
 21
82.5029
  0
LINE
  8
0
 10
-52.5942
 20
82.5029
 11
-52.7811
 21
82.5266
  0
LINE
  8
0
 10
-52.7811
 20
82.5266
 11
-52.9635
 21
82.5734
  0
LINE
  8
0
 10
-52.9635
 20
82.5734
 11
-53.1387
 21
82.6427
  0
LINE
  8
0
 10
-53.1387
 20
82.6427
 11
-53.3037
 21
82.7335
  0
LINE
  8
0
 10
-53.3037
 20
82.7335
 11
-53.4561
 21
82.8442
  0
LINE
  8
0
 10
-53.4561
 20
82.8442
 11
-53.5934
 21
82.9732
  0
LINE
  8
0
 10
-53.5934
 20
82.9732
 11
-53.7135
 21
83.1183
  0
LINE
  8
0
 10
-53.7135
 20
83.1183
 11
-53.8145
 21
83.2774
  0
LINE
  8
0
 10
-53.8145
 20
83.2774
 11
-53.8947
 21
83.4478
  0
LINE
  8
0
 10
-53.8947
 20
83.4478
 11
-53.9529
 21
83.627
  0
LINE
  8
0
 10
-53.9529
 20
83.627
 11
-53.9882
 21
83.812
  0
LINE
  8
0
 10
-53.9882
 20
83.812
 11
-54
 21
84
  0
LINE
  8
0
 10
-54
 20
84
 11
-53.9882
 21
84.188
  0
LINE
  8
0
 10
-53.9882
 20
84.188
 11
-53.9529
 21
84.373
  0
LINE
  8
0
 10
-53.9529
 20
84.373
 11
-53.8947
 21
84.5522
  0
LINE
  8
0
 10
-53.8947
 20
84.5522
 11
-53.8145
 21
84.7226
  0
LINE
  8
0
 10
-53.8145
 20
84.7226
 11
-53.7135
 21
84.8817
  0
LINE
  8
0
 10
-53.7135
 20
84.8817
 11
-53.5934
 21
85.0268
  0
LINE
  8
0
 10
-53.5934
 20
85.0268
 11
-53.4561
 21
85.1558
  0
LINE
  8
0
 10
-53.4561
 20
85.1558
 11
-53.3037
 21
85.2665
  0
LINE
  8
0
 10
-53.3037
 20
85.2665
 11
-53.1387
 21
85.3572
  0
LINE
  8
0
 10
-53.1387
 20
85.3572
 11
-52.9635
 21
85.4266
  0
LINE
  8
0
 10
-52.9635
 20
85.4266
 11
-52.7811
 21
85.4734
  0
LINE
  8
0
 10
-52.7811
 20
85.4734
 11
-52.5942
 21
85.497
  0
LINE
  8
0
 10
-52.5942
 20
85.497
 11
-52.4058
 21
85.497
  0
LINE
  8
0
 10
-52.4058
 20
85.497
 11
-52.2189
 21
85.4734
  0
LINE
  8
0
 10
-52.2189
 20
85.4734
 11
-52.0365
 21
85.4266
  0
LINE
  8
0
 10
-52.0365
 20
85.4266
 11
-51.8613
 21
85.3572
  0
LINE
  8
0
 10
-51.8613
 20
85.3572
 11
-51.6963
 21
85.2665
  0
LINE
  8
0
 10
-51.6963
 20
85.2665
 11
-51.5439
 21
85.1558
  0
LINE
  8
0
 10
-51.5439
 20
85.1558
 11
-51.4065
 21
85.0268
  0
LINE
  8
0
 10
-51.4065
 20
85.0268
 11
-51.2865
 21
84.8817
  0
LINE
  8
0
 10
-51.2865
 20
84.8817
 11
-51.1855
 21
84.7226
  0
LINE
  8
0
 10
-51.1855
 20
84.7226
 11
-51.1053
 21
84.5522
  0
LINE
  8
0
 10
-51.1053
 20
84.5522
 11
-51.0471
 21
84.373
  0
LINE
  8
0
 10
-51.0471
 20
84.373
 11
-51.0118
 21
84.188
  0
LINE
  8
0
 10
-51.0118
 20
84.188
 11
-51
 21
84
  0
LINE
  8
0
 10
-51
 20
84
 11
-51.0118
 21
83.812
  0
LINE
  8
0
 10
-51.0118
 20
83.812
 11
-51.0471
 21
83.627
  0
LINE
  8
0
 10
-51.0471
 20
83.627
 11
-51.1053
 21
83.4478
  0
LINE
  8
0
 10
-51.1053
 20
83.4478
 11
-51.1855
 21
83.2774
  0
LINE
  8
0
 10
-51.1855
 20
83.2774
 11
-51.2865
 21
83.1183
  0
LINE
  8
0
 10
-51.2865
 20
83.1183
 11
-51.4065
 21
82.9732
  0
LINE
  8
0
 10
-51.4065
 20
82.9732
 11
-51.5439
 21
82.8442
  0
LINE
  8
0
 10
-51.5439
 20
82.8442
 11
-51.6963
 21
82.7335
  0
LINE
  8
0
 10
-51.6963
 20
82.7335
 11
-51.8613
 21
82.6427
  0
LINE
  8
0
 10
-51.8613
 20
82.6427
 11
-52.0365
 21
82.5734
  0
LINE
  8
0
 10
-52.0365
 20
82.5734
 11
-52.2189
 21
82.5266
  0
LINE
  8
0
 10
-52.2189
 20
82.5266
 11
-52.4058
 21
82.5029
  0
LINE
  8
0
 10
-52.4058
 20
82.5029
 11
-52.5942
 21
82.5029
  0
LINE
  8
0
 10
-0.879059
 20
55.0276
 11
-2.62334
 21
55.248
  0
LINE
  8
0
 10
-2.62334
 20
55.248
 11
-4.32623
 21
55.6852
  0
LINE
  8
0
 10
-4.32623
 20
55.6852
 11
-5.96091
 21
56.3324
  0
LINE
  8
0
 10
-5.96091
 20
56.3324
 11
-7.50157
 21
57.1794
  0
LINE
  8
0
 10
-7.50157
 20
57.1794
 11
-8.92393
 21
58.2128
  0
LINE
  8
0
 10
-8.92393
 20
58.2128
 11
-10.2056
 21
59.4164
  0
LINE
  8
0
 10
-10.2056
 20
59.4164
 11
-11.3262
 21
60.771
  0
LINE
  8
0
 10
-11.3262
 20
60.771
 11
-12.2683
 21
62.2555
  0
LINE
  8
0
 10
-12.2683
 20
62.2555
 11
-13.0169
 21
63.8463
  0
LINE
  8
0
 10
-13.0169
 20
63.8463
 11
-13.5602
 21
65.5184
  0
LINE
  8
0
 10
-13.5602
 20
65.5184
 11
-13.8896
 21
67.2453
  0
LINE
  8
0
 10
-13.8896
 20
67.2453
 11
-14
 21
69
  0
LINE
  8
0
 10
-14
 20
69
 11
-13.8896
 21
70.7547
  0
LINE
  8
0
 10
-13.8896
 20
70.7547
 11
-13.5602
 21
72.4816
  0
LINE
  8
0
 10
-13.5602
 20
72.4816
 11
-13.0169
 21
74.1537
  0
LINE
  8
0
 10
-13.0169
 20
74.1537
 11
-12.2683
 21
75.7445
  0
LINE
  8
0
 10
-12.2683
 20
75.7445
 11
-11.3262
 21
77.229
  0
LINE
  8
0
 10
-11.3262
 20
77.229
 11
-10.2056
 21
78.5836
  0
LINE
  8
0
 10
-10.2056
 20
78.5836
 11
-8.92393
 21
79.7872
  0
LINE
  8
0
 10
-8.92393
 20
79.7872
 11
-7.50157
 21
80.8206
  0
LINE
  8
0
 10
-7.50157
 20
80.8206
 11
-5.96091
 21
81.6676
  0
LINE
  8
0
 10
-5.96091
 20
81.6676
 11
-4.32623
 21
82.3148
  0
LINE
  8
0
 10
-4.32623
 20
82.3148
 11
-2.62334
 21
82.752
  0
LINE
  8
0
 10
-2.62334
 20
82.752
 11
-0.879059
 21
82.9724
  0
LINE
  8
0
 10
-0.879059
 20
82.9724
 11
0.879059
 21
82.9724
  0
LINE
  8
0
 10
0.879059
 20
82.9724
 11
2.62334
 21
82.752
  0
LINE
  8
0
 10
2.62334
 20
82.752
 11
4.32623
 21
82.3148
  0
LINE
  8
0
 10
4.32623
 20
82.3148
 11
5.96091
 21
81.6676
  0
LINE
  8
0
 10
5.96091
 20
81.6676
 11
7.50157
 21
80.8206
  0
LINE
  8
0
 10
7.50157
 20
80.8206
 11
8.92393
 21
79.7872
  0
LINE
  8
0
 10
8.92393
 20
79.7872
 11
10.2056
 21
78.5836
  0
LINE
  8
0
 10
10.2056
 20
78.5836
 11
11.3262
 21
77.229
  0
LINE
  8
0
 10
11.3262
 20
77.229
 11
12.2683
 21
75.7445
  0
LINE
  8
0
 10
12.2683
 20
75.7445
 11
13.0169
 21
74.1537
  0
LINE
  8
0
 10
13.0169
 20
74.1537
 11
13.5602
 21
72.4816
  0
LINE
  8
0
 10
13.5602
 20
72.4816
 11
13.8896
 21
70.7547
  0
LINE
  8
0
 10
13.8896
 20
70.7547
 11
14
 21
69
  0
LINE
  8
0
 10
14
 20
69
 11
13.8896
 21
67.2453
  0
LINE
  8
0
 10
13.8896
 20
67.2453
 11
13.5602
 21
65.5184
  0
LINE
  8
0
 10
13.5602
 20
65.5184
 11
13.0169
 21
63.8463
  0
LINE
  8
0
 10
13.0169
 20
63.8463
 11
12.2683
 21
62.2555
  0
LINE
  8
0
 10
12.2683
 20
62.2555
 11
11.3262
 21
60.771
  0
LINE
  8
0
 10
11.3262
 20
60.771
 11
10.2056
 21
59.4164
  0
LINE
  8
0
 10
10.2056
 20
59.4164
 11
8.92393
 21
58.2128
  0
LINE
  8
0
 10
8.92393
 20
58.2128
 11
7.50157
 21
57.1794
  0
LINE
  8
0
 10
7.50157
 20
57.1794
 11
5.96091
 21
56.3324
  0
LINE
  8
0
 10
5.96091
 20
56.3324
 11
4.32623
 21
55.6852
  0
LINE
  8
0
 10
4.32623
 20
55.6852
 11
2.62334
 21
55.248
  0
LINE
  8
0
 10
2.62334
 20
55.248
 11
0.879059
 21
55.0276
  0
LINE
  8
0
 10
0.879059
 20
55.0276
 11
-0.879059
 21
55.0276
  0
LINE
  8
0
 10
32.1209
 20
55.0276
 11
30.3766
 21
55.248
  0
LINE
  8
0
 10
30.3766
 20
55.248
 11
28.6738
 21
55.6852
  0
LINE
  8
0
 10
28.6738
 20
55.6852
 11
27.0391
 21
56.3324
  0
LINE
  8
0
 10
27.0391
 20
56.3324
 11
25.4984
 21
57.1794
  0
LINE
  8
0
 10
25.4984
 20
57.1794
 11
24.0761
 21
58.2128
  0
LINE
  8
0
 10
24.0761
 20
58.2128
 11
22.7944
 21
59.4164
  0
LINE
  8
0
 10
22.7944
 20
59.4164
 11
21.6738
 21
60.771
  0
LINE
  8
0
 10
21.6738
 20
60.771
 11
20.7317
 21
62.2555
  0
LINE
  8
0
 10
20.7317
 20
62.2555
 11
19.9831
 21
63.8463
  0
LINE
  8
0
 10
19.9831
 20
63.8463
 11
19.4398
 21
65.5184
  0
LINE
  8
0
 10
19.4398
 20
65.5184
 11
19.1104
 21
67.2453
  0
LINE
  8
0
 10
19.1104
 20
67.2453
 11
19
 21
69
  0
LINE
  8
0
 10
19
 20
69
 11
19.1104
 21
70.7547
  0
LINE
  8
0
 10
19.1104
 20
70.7547
 11
19.4398
 21
72.4816
  0
LINE
  8
0
 10
19.4398
 20
72.4816
 11
19.9831
 21
74.1537
  0
LINE
  8
0
 10
19.9831
 20
74.1537
 11
20.7317
 21
75.7445
  0
LINE
  8
0
 10
20.7317
 20
75.7445
 11
21.6738
 21
77.229
  0
LINE
  8
0
 10
21.6738
 20
77.229
 11
22.7944
 21
78.5836
  0
LINE
  8
0
 10
22.7944
 20
78.5836
 11
24.0761
 21
79.7872
  0
LINE
  8
0
 10
24.0761
 20
79.7872
 11
25.4984
 21
80.8206
  0
LINE
  8
0
 10
25.4984
 20
80.8206
 11
27.0391
 21
81.6676
  0
LINE
  8
0
 10
27.0391
 20
81.6676
 11
28.6738
 21
82.3148
  0
LINE
  8
0
 10
28.6738
 20
82.3148
 11
30.3766
 21
82.752
  0
LINE
  8
0
 10
30.3766
 20
82.752
 11
32.1209
 21
82.9724
  0
LINE
  8
0
 10
32.1209
 20
82.9724
 11
33.8791
 21
82.9724
  0
LINE
  8
0
 10
33.8791
 20
82.9724
 11
35.6233
 21
82.752
  0
LINE
  8
0
 10
35.6233
 20
82.752
 11
37.3262
 21
82.3148
  0
LINE
  8
0
 10
37.3262
 20
82.3148
 11
38.9609
 21
81.6676
  0
LINE
  8
0
 10
38.9609
 20
81.6676
 11
40.5016
 21
80.8206
  0
LINE
  8
0
 10
40.5016
 20
80.8206
 11
41.9239
 21
79.7872
  0
LINE
  8
0
 10
41.9239
 20
79.7872
 11
43.2056
 21
78.5836
  0
LINE
  8
0
 10
43.2056
 20
78.5836
 11
44.3262
 21
77.229
  0
LINE
  8
0
 10
44.3262
 20
77.229
 11
45.2683
 21
75.7445
  0
LINE
  8
0
 10
45.2683
 20
75.7445
 11
46.0169
 21
74.1537
  0
LINE
  8
0
 10
46.0169
 20
74.1537
 11
46.5602
 21
72.4816
  0
LINE
  8
0
 10
46.5602
 20
72.4816
 11
46.8896
 21
70.7547
  0
LINE
  8
0
 10
46.8896
 20
70.7547
 11
47
 21
69
  0
LINE
  8
0
 10
47
 20
69
 11
46.8896
 21
67.2453
  0
LINE
  8
0
 10
46.8896
 20
67.2453
 11
46.5602
 21
65.5184
  0
LINE
  8
0
 10
46.5602
 20
65.5184
 11
46.0169
 21
63.8463
  0
LINE
  8
0
 10
46.0169
 20
63.8463
 11
45.2683
 21
62.2555
  0
LINE
  8
0
 10
45.2683
 20
62.2555
 11
44.3262
 21
60.771
  0
LINE
  8
0
 10
44.3262
 20
60.771
 11
43.2056
 21
59.4164
  0
LINE
  8
0
 10
43.2056
 20
59.4164
 11
41.9239
 21
58.2128
  0
LINE
  8
0
 10
41.9239
 20
58.2128
 11
40.5016
 21
57.1794
  0
LINE
  8
0
 10
40.5016
 20
57.1794
 11
38.9609
 21
56.3324
  0
LINE
  8
0
 10
38.9609
 20
56.3324
 11
37.3262
 21
55.6852
  0
LINE
  8
0
 10
37.3262
 20
55.6852
 11
35.6233
 21
55.248
  0
LINE
  8
0
 10
35.6233
 20
55.248
 11
33.8791
 21
55.0276
  0
LINE
  8
0
 10
33.8791
 20
55.0276
 11
32.1209
 21
55.0276
  0
LINE
  8
0
 10
-33.8791
 20
55.0276
 11
-35.6233
 21
55.248
  0
LINE
  8
0
 10
-35.6233
 20
55.248
 11
-37.3262
 21
55.6852
  0
LINE
  8
0
 10
-37.3262
 20
55.6852
 11
-38.9609
 21
56.3324
  0
LINE
  8
0
 10
-38.9609
 20
56.3324
 11
-40.5016
 21
57.1794
  0
LINE
  8
0
 10
-40.5016
 20
57.1794
 11
-41.9239
 21
58.2128
  0
LINE
  8
0
 10
-41.9239
 20
58.2128
 11
-43.2056
 21
59.4164
  0
LINE
  8
0
 10
-43.2056
 20
59.4164
 11
-44.3262
 21
60.771
  0
LINE
  8
0
 10
-44.3262
 20
60.771
 11
-45.2683
 21
62.2555
  0
LINE
  8
0
 10
-45.2683
 20
62.2555
 11
-46.0169
 21
63.8463
  0
LINE
  8
0
 10
-46.0169
 20
63.8463
 11
-46.5602
 21
65.5184
  0
LINE
  8
0
 10
-46.5602
 20
65.5184
 11
-46.8896
 21
67.2453
  0
LINE
  8
0
 10
-46.8896
 20
67.2453
 11
-47
 21
69
  0
LINE
  8
0
 10
-47
 20
69
 11
-46.8896
 21
70.7547
  0
LINE
  8
0
 10
-46.8896
 20
70.7547
 11
-46.5602
 21
72.4816
  0
LINE
  8
0
 10
-46.5602
 20
72.4816
 11
-46.0169
 21
74.1537
  0
LINE
  8
0
 10
-46.0169
 20
74.1537
 11
-45.2683
 21
75.7445
  0
LINE
  8
0
 10
-45.2683
 20
75.7445
 11
-44.3262
 21
77.229
  0
LINE
  8
0
 10
-44.3262
 20
77.229
 11
-43.2056
 21
78.5836
  0
LINE
  8
0
 10
-43.2056
 20
78.5836
 11
-41.9239
 21
79.7872
  0
LINE
  8
0
 10
-41.9239
 20
79.7872
 11
-40.5016
 21
80.8206
  0
LINE
  8
0
 10
-40.5016
 20
80.8206
 11
-38.9609
 21
81.6676
  0
LINE
  8
0
 10
-38.9609
 20
81.6676
 11
-37.3262
 21
82.3148
  0
LINE
  8
0
 10
-37.3262
 20
82.3148
 11
-35.6233
 21
82.752
  0
LINE
  8
0
 10
-35.6233
 20
82.752
 11
-33.8791
 21
82.9724
  0
LINE
  8
0
 10
-33.8791
 20
82.9724
 11
-32.1209
 21
82.9724
  0
LINE
  8
0
 10
-32.1209
 20
82.9724
 11
-30.3766
 21
82.752
  0
LINE
  8
0
 10
-30.3766
 20
82.752
 11
-28.6738
 21
82.3148
  0
LINE
  8
0
 10
-28.6738
 20
82.3148
 11
-27.0391
 21
81.6676
  0
LINE
  8
0
 10
-27.0391
 20
81.6676
 11
-25.4984
 21
80.8206
  0
LINE
  8
0
 10
-25.4984
 20
80.8206
 11
-24.0761
 21
79.7872
  0
LINE
  8
0
 10
-24.0761
 20
79.7872
 11
-22.7944
 21
78.5836
  0
LINE
  8
0
 10
-22.7944
 20
78.5836
 11
-21.6738
 21
77.229
  0
LINE
  8
0
 10
-21.6738
 20
77.229
 11
-20.7317
 21
75.7445
  0
LINE
  8
0
 10
-20.7317
 20
75.7445
 11
-19.9831
 21
74.1537
  0
LINE
  8
0
 10
-19.9831
 20
74.1537
 11
-19.4398
 21
72.4816
  0
LINE
  8
0
 10
-19.4398
 20
72.4816
 11
-19.1104
 21
70.7547
  0
LINE
  8
0
 10
-19.1104
 20
70.7547
 11
-19
 21
69
  0
LINE
  8
0
 10
-19
 20
69
 11
-19.1104
 21
67.2453
  0
LINE
  8
0
 10
-19.1104
 20
67.2453
 11
-19.4398
 21
65.5184
  0
LINE
  8
0
 10
-19.4398
 20
65.5184
 11
-19.9831
 21
63.8463
  0
LINE
  8
0
 10
-19.9831
 20
63.8463
 11
-20.7317
 21
62.2555
  0
LINE
  8
0
 10
-20.7317
 20
62.2555
 11
-21.6738
 21
60.771
  0
LINE
  8
0
 10
-21.6738
 20
60.771
 11
-22.7944
 21
59.4164
  0
LINE
  8
0
 10
-22.7944
 20
59.4164
 11
-24.0761
 21
58.2128
  0
LINE
  8
0
 10
-24.0761
 20
58.2128
 11
-25.4984
 21
57.1794
  0
LINE
  8
0
 10
-25.4984
 20
57.1794
 11
-27.0391
 21
56.3324
  0
LINE
  8
0
 10
-27.0391
 20
56.3324
 11
-28.6738
 21
55.6852
  0
LINE
  8
0
 10
-28.6738
 20
55.6852
 11
-30.3766
 21
55.248
  0
LINE
  8
0
 10
-30.3766
 20
55.248
 11
-32.1209
 21
55.0276
  0
LINE
  8
0
 10
-32.1209
 20
55.0276
 11
-33.8791
 21
55.0276
  0
LINE
  8
0
 10
-52.6884
 20
73.5059
 11
-53.0621
 21
73.5531
  0
LINE
  8
0
 10
-53.0621
 20
73.5531
 11
-53.427
 21
73.6468
  0
LINE
  8
0
 10
-53.427
 20
73.6468
 11
-53.7773
 21
73.7855
  0
LINE
  8
0
 10
-53.7773
 20
73.7855
 11
-54.1075
 21
73.967
  0
LINE
  8
0
 10
-54.1075
 20
73.967
 11
-54.4123
 21
74.1884
  0
LINE
  8
0
 10
-54.4123
 20
74.1884
 11
-54.6869
 21
74.4464
  0
LINE
  8
0
 10
-54.6869
 20
74.4464
 11
-54.927
 21
74.7366
  0
LINE
  8
0
 10
-54.927
 20
74.7366
 11
-55.1289
 21
75.0547
  0
LINE
  8
0
 10
-55.1289
 20
75.0547
 11
-55.2893
 21
75.3956
  0
LINE
  8
0
 10
-55.2893
 20
75.3956
 11
-55.4057
 21
75.7539
  0
LINE
  8
0
 10
-55.4057
 20
75.7539
 11
-55.4763
 21
76.124
  0
LINE
  8
0
 10
-55.4763
 20
76.124
 11
-55.5
 21
76.5
  0
LINE
  8
0
 10
-55.5
 20
76.5
 11
-55.4763
 21
76.876
  0
LINE
  8
0
 10
-55.4763
 20
76.876
 11
-55.4057
 21
77.2461
  0
LINE
  8
0
 10
-55.4057
 20
77.2461
 11
-55.2893
 21
77.6044
  0
LINE
  8
0
 10
-55.2893
 20
77.6044
 11
-55.1289
 21
77.9453
  0
LINE
  8
0
 10
-55.1289
 20
77.9453
 11
-54.927
 21
78.2634
  0
LINE
  8
0
 10
-54.927
 20
78.2634
 11
-54.6869
 21
78.5536
  0
LINE
  8
0
 10
-54.6869
 20
78.5536
 11
-54.4123
 21
78.8115
  0
LINE
  8
0
 10
-54.4123
 20
78.8115
 11
-54.1075
 21
79.033
  0
LINE
  8
0
 10
-54.1075
 20
79.033
 11
-53.7773
 21
79.2145
  0
LINE
  8
0
 10
-53.7773
 20
79.2145
 11
-53.427
 21
79.3532
  0
LINE
  8
0
 10
-53.427
 20
79.3532
 11
-53.0621
 21
79.4469
  0
LINE
  8
0
 10
-53.0621
 20
79.4469
 11
-52.6884
 21
79.4941
  0
LINE
  8
0
 10
-52.6884
 20
79.4941
 11
-52.3116
 21
79.4941
  0
LINE
  8
0
 10
-52.3116
 20
79.4941
 11
-51.9379
 21
79.4469
  0
LINE
  8
0
 10
-51.9379
 20
79.4469
 11
-51.5729
 21
79.3532
  0
LINE
  8
0
 10
-51.5729
 20
79.3532
 11
-51.2227
 21
79.2145
  0
LINE
  8
0
 10
-51.2227
 20
79.2145
 11
-50.8925
 21
79.033
  0
LINE
  8
0
 10
-50.8925
 20
79.033
 11
-50.5877
 21
78.8115
  0
LINE
  8
0
 10
-50.5877
 20
78.8115
 11
-50.3131
 21
78.5536
  0
LINE
  8
0
 10
-50.3131
 20
78.5536
 11
-50.0729
 21
78.2634
  0
LINE
  8
0
 10
-50.0729
 20
78.2634
 11
-49.8711
 21
77.9453
  0
LINE
  8
0
 10
-49.8711
 20
77.9453
 11
-49.7107
 21
77.6044
  0
LINE
  8
0
 10
-49.7107
 20
77.6044
 11
-49.5942
 21
77.2461
  0
LINE
  8
0
 10
-49.5942
 20
77.2461
 11
-49.5237
 21
76.876
  0
LINE
  8
0
 10
-49.5237
 20
76.876
 11
-49.5
 21
76.5
  0
LINE
  8
0
 10
-49.5
 20
76.5
 11
-49.5237
 21
76.124
  0
LINE
  8
0
 10
-49.5237
 20
76.124
 11
-49.5942
 21
75.7539
  0
LINE
  8
0
 10
-49.5942
 20
75.7539
 11
-49.7107
 21
75.3956
  0
LINE
  8
0
 10
-49.7107
 20
75.3956
 11
-49.8711
 21
75.0547
  0
LINE
  8
0
 10
-49.8711
 20
75.0547
 11
-50.0729
 21
74.7366
  0
LINE
  8
0
 10
-50.0729
 20
74.7366
 11
-50.3131
 21
74.4464
  0
LINE
  8
0
 10
-50.3131
 20
74.4464
 11
-50.5877
 21
74.1884
  0
LINE
  8
0
 10
-50.5877
 20
74.1884
 11
-50.8925
 21
73.967
  0
LINE
  8
0
 10
-50.8925
 20
73.967
 11
-51.2227
 21
73.7855
  0
LINE
  8
0
 10
-51.2227
 20
73.7855
 11
-51.5729
 21
73.6468
  0
LINE
  8
0
 10
-51.5729
 20
73.6468
 11
-51.9379
 21
73.5531
  0
LINE
  8
0
 10
-51.9379
 20
73.5531
 11
-52.3116
 21
73.5059
  0
LINE
  8
0
 10
-52.3116
 20
73.5059
 11
-52.6884
 21
73.5059
  0
LINE
  8
0
 10
52.3116
 20
73.5059
 11
51.9379
 21
73.5531
  0
LINE
  8
0
 10
51.9379
 20
73.5531
 11
51.5729
 21
73.6468
  0
LINE
  8
0
 10
51.5729
 20
73.6468
 11
51.2227
 21
73.7855
  0
LINE
  8
0
 10
51.2227
 20
73.7855
 11
50.8925
 21
73.967
  0
LINE
  8
0
 10
50.8925
 20
73.967
 11
50.5877
 21
74.1884
  0
LINE
  8
0
 10
50.5877
 20
74.1884
 11
50.3131
 21
74.4464
  0
LINE
  8
0
 10
50.3131
 20
74.4464
 11
50.0729
 21
74.7366
  0
LINE
  8
0
 10
50.0729
 20
74.7366
 11
49.8711
 21
75.0547
  0
LINE
  8
0
 10
49.8711
 20
75.0547
 11
49.7107
 21
75.3956
  0
LINE
  8
0
 10
49.7107
 20
75.3956
 11
49.5942
 21
75.7539
  0
LINE
  8
0
 10
49.5942
 20
75.7539
 11
49.5237
 21
76.124
  0
LINE
  8
0
 10
49.5237
 20
76.124
 11
49.5
 21
76.5
  0
LINE
  8
0
 10
49.5
 20
76.5
 11
49.5237
 21
76.876
  0
LINE
  8
0
 10
49.5237
 20
76.876
 11
49.5942
 21
77.2461
  0
LINE
  8
0
 10
49.5942
 20
77.2461
 11
49.7107
 21
77.6044
  0
LINE
  8
0
 10
49.7107
 20
77.6044
 11
49.8711
 21
77.9453
  0
LINE
  8
0
 10
49.8711
 20
77.9453
 11
50.0729
 21
78.2634
  0
LINE
  8
0
 10
50.0729
 20
78.2634
 11
50.3131
 21
78.5536
  0
LINE
  8
0
 10
50.3131
 20
78.5536
 11
50.5877
 21
78.8115
  0
LINE
  8
0
 10
50.5877
 20
78.8115
 11
50.8925
 21
79.033
  0
LINE
  8
0
 10
50.8925
 20
79.033
 11
51.2227
 21
79.2145
  0
LINE
  8
0
 10
51.2227
 20
79.2145
 11
51.5729
 21
79.3532
  0
LINE
  8
0
 10
51.5729
 20
79.3532
 11
51.9379
 21
79.4469
  0
LINE
  8
0
 10
51.9379
 20
79.4469
 11
52.3116
 21
79.4941
  0
LINE
  8
0
 10
52.3116
 20
79.4941
 11
52.6884
 21
79.4941
  0
LINE
  8
0
 10
52.6884
 20
79.4941
 11
53.0621
 21
79.4469
  0
LINE
  8
0
 10
53.0621
 20
79.4469
 11
53.427
 21
79.3532
  0
LINE
  8
0
 10
53.427
 20
79.3532
 11
53.7773
 21
79.2145
  0
LINE
  8
0
 10
53.7773
 20
79.2145
 11
54.1075
 21
79.033
  0
LINE
  8
0
 10
54.1075
 20
79.033
 11
54.4123
 21
78.8115
  0
LINE
  8
0
 10
54.4123
 20
78.8115
 11
54.6869
 21
78.5536
  0
LINE
  8
0
 10
54.6869
 20
78.5536
 11
54.927
 21
78.2634
  0
LINE
  8
0
 10
54.927
 20
78.2634
 11
55.1289
 21
77.9453
  0
LINE
  8
0
 10
55.1289
 20
77.9453
 11
55.2893
 21
77.6044
  0
LINE
  8
0
 10
55.2893
 20
77.6044
 11
55.4057
 21
77.2461
  0
LINE
  8
0
 10
55.4057
 20
77.2461
 11
55.4763
 21
76.876
  0
LINE
  8
0
 10
55.4763
 20
76.876
 11
55.5
 21
76.5
  0
LINE
  8
0
 10
55.5
 20
76.5
 11
55.4763
 21
76.124
  0
LINE
  8
0
 10
55.4763
 20
76.124
 11
55.4057
 21
75.7539
  0
LINE
  8
0
 10
55.4057
 20
75.7539
 11
55.2893
 21
75.3956
  0
LINE
  8
0
 10
55.2893
 20
75.3956
 11
55.1289
 21
75.0547
  0
LINE
  8
0
 10
55.1289
 20
75.0547
 11
54.927
 21
74.7366
  0
LINE
  8
0
 10
54.927
 20
74.7366
 11
54.6869
 21
74.4464
  0
LINE
  8
0
 10
54.6869
 20
74.4464
 11
54.4123
 21
74.1884
  0
LINE
  8
0
 10
54.4123
 20
74.1884
 11
54.1075
 21
73.967
  0
LINE
  8
0
 10
54.1075
 20
73.967
 11
53.7773
 21
73.7855
  0
LINE
  8
0
 10
53.7773
 20
73.7855
 11
53.427
 21
73.6468
  0
LINE
  8
0
 10
53.427
 20
73.6468
 11
53.0621
 21
73.5531
  0
LINE
  8
0
 10
53.0621
 20
73.5531
 11
52.6884
 21
73.5059
  0
LINE
  8
0
 10
52.6884
 20
73.5059
 11
52.3116
 21
73.5059
  0
LINE
  8
0
 10
52.4058
 20
67.503
 11
52.2189
 21
67.5266
  0
LINE
  8
0
 10
52.2189
 20
67.5266
 11
52.0365
 21
67.5734
  0
LINE
  8
0
 10
52.0365
 20
67.5734
 11
51.8613
 21
67.6428
  0
LINE
  8
0
 10
51.8613
 20
67.6428
 11
51.6963
 21
67.7335
  0
LINE
  8
0
 10
51.6963
 20
67.7335
 11
51.5439
 21
67.8442
  0
LINE
  8
0
 10
51.5439
 20
67.8442
 11
51.4065
 21
67.9732
  0
LINE
  8
0
 10
51.4065
 20
67.9732
 11
51.2865
 21
68.1183
  0
LINE
  8
0
 10
51.2865
 20
68.1183
 11
51.1855
 21
68.2774
  0
LINE
  8
0
 10
51.1855
 20
68.2774
 11
51.1053
 21
68.4478
  0
LINE
  8
0
 10
51.1053
 20
68.4478
 11
51.0471
 21
68.627
  0
LINE
  8
0
 10
51.0471
 20
68.627
 11
51.0118
 21
68.812
  0
LINE
  8
0
 10
51.0118
 20
68.812
 11
51
 21
69
  0
LINE
  8
0
 10
51
 20
69
 11
51.0118
 21
69.188
  0
LINE
  8
0
 10
51.0118
 20
69.188
 11
51.0471
 21
69.373
  0
LINE
  8
0
 10
51.0471
 20
69.373
 11
51.1053
 21
69.5522
  0
LINE
  8
0
 10
51.1053
 20
69.5522
 11
51.1855
 21
69.7226
  0
LINE
  8
0
 10
51.1855
 20
69.7226
 11
51.2865
 21
69.8817
  0
LINE
  8
0
 10
51.2865
 20
69.8817
 11
51.4065
 21
70.0268
  0
LINE
  8
0
 10
51.4065
 20
70.0268
 11
51.5439
 21
70.1558
  0
LINE
  8
0
 10
51.5439
 20
70.1558
 11
51.6963
 21
70.2665
  0
LINE
  8
0
 10
51.6963
 20
70.2665
 11
51.8613
 21
70.3572
  0
LINE
  8
0
 10
51.8613
 20
70.3572
 11
52.0365
 21
70.4266
  0
LINE
  8
0
 10
52.0365
 20
70.4266
 11
52.2189
 21
70.4734
  0
LINE
  8
0
 10
52.2189
 20
70.4734
 11
52.4058
 21
70.497
  0
LINE
  8
0
 10
52.4058
 20
70.497
 11
52.5942
 21
70.497
  0
LINE
  8
0
 10
52.5942
 20
70.497
 11
52.7811
 21
70.4734
  0
LINE
  8
0
 10
52.7811
 20
70.4734
 11
52.9635
 21
70.4266
  0
LINE
  8
0
 10
52.9635
 20
70.4266
 11
53.1387
 21
70.3572
  0
LINE
  8
0
 10
53.1387
 20
70.3572
 11
53.3037
 21
70.2665
  0
LINE
  8
0
 10
53.3037
 20
70.2665
 11
53.4561
 21
70.1558
  0
LINE
  8
0
 10
53.4561
 20
70.1558
 11
53.5934
 21
70.0268
  0
LINE
  8
0
 10
53.5934
 20
70.0268
 11
53.7135
 21
69.8817
  0
LINE
  8
0
 10
53.7135
 20
69.8817
 11
53.8145
 21
69.7226
  0
LINE
  8
0
 10
53.8145
 20
69.7226
 11
53.8947
 21
69.5522
  0
LINE
  8
0
 10
53.8947
 20
69.5522
 11
53.9529
 21
69.373
  0
LINE
  8
0
 10
53.9529
 20
69.373
 11
53.9882
 21
69.188
  0
LINE
  8
0
 10
53.9882
 20
69.188
 11
54
 21
69
  0
LINE
  8
0
 10
54
 20
69
 11
53.9882
 21
68.812
  0
LINE
  8
0
 10
53.9882
 20
68.812
 11
53.9529
 21
68.627
  0
LINE
  8
0
 10
53.9529
 20
68.627
 11
53.8947
 21
68.4478
  0
LINE
  8
0
 10
53.8947
 20
68.4478
 11
53.8145
 21
68.2774
  0
LINE
  8
0
 10
53.8145
 20
68.2774
 11
53.7135
 21
68.1183
  0
LINE
  8
0
 10
53.7135
 20
68.1183
 11
53.5934
 21
67.9732
  0
LINE
  8
0
 10
53.5934
 20
67.9732
 11
53.4561
 21
67.8442
  0
LINE
  8
0
 10
53.4561
 20
67.8442
 11
53.3037
 21
67.7335
  0
LINE
  8
0
 10
53.3037
 20
67.7335
 11
53.1387
 21
67.6428
  0
LINE
  8
0
 10
53.1387
 20
67.6428
 11
52.9635
 21
67.5734
  0
LINE
  8
0
 10
52.9635
 20
67.5734
 11
52.7811
 21
67.5266
  0
LINE
  8
0
 10
52.7811
 20
67.5266
 11
52.5942
 21
67.503
  0
LINE
  8
0
 10
52.5942
 20
67.503
 11
52.4058
 21
67.503
  0
LINE
  8
0
 10
-52.5942
 20
67.503
 11
-52.7811
 21
67.5266
  0
LINE
  8
0
 10
-52.7811
 20
67.5266
 11
-52.9635
 21
67.5734
  0
LINE
  8
0
 10
-52.9635
 20
67.5734
 11
-53.1387
 21
67.6428
  0
LINE
  8
0
 10
-53.1387
 20
67.6428
 11
-53.3037
 21
67.7335
  0
LINE
  8
0
 10
-53.3037
 20
67.7335
 11
-53.4561
 21
67.8442
  0
LINE
  8
0
 10
-53.4561
 20
67.8442
 11
-53.5934
 21
67.9732
  0
LINE
  8
0
 10
-53.5934
 20
67.9732
 11
-53.7135
 21
68.1183
  0
LINE
  8
0
 10
-53.7135
 20
68.1183
 11
-53.8145
 21
68.2774
  0
LINE
  8
0
 10
-53.8145
 20
68.2774
 11
-53.8947
 21
68.4478
  0
LINE
  8
0
 10
-53.8947
 20
68.4478
 11
-53.9529
 21
68.627
  0
LINE
  8
0
 10
-53.9529
 20
68.627
 11
-53.9882
 21
68.812
  0
LINE
  8
0
 10
-53.9882
 20
68.812
 11
-54
 21
69
  0
LINE
  8
0
 10
-54
 20
69
 11
-53.9882
 21
69.188
  0
LINE
  8
0
 10
-53.9882
 20
69.188
 11
-53.9529
 21
69.373
  0
LINE
  8
0
 10
-53.9529
 20
69.373
 11
-53.8947
 21
69.5522
  0
LINE
  8
0
 10
-53.8947
 20
69.5522
 11
-53.8145
 21
69.7226
  0
LINE
  8
0
 10
-53.8145
 20
69.7226
 11
-53.7135
 21
69.8817
  0
LINE
  8
0
 10
-53.7135
 20
69.8817
 11
-53.5934
 21
70.0268
  0
LINE
  8
0
 10
-53.5934
 20
70.0268
 11
-53.4561
 21
70.1558
  0
LINE
  8
0
 10
-53.4561
 20
70.1558
 11
-53.3037
 21
70.2665
  0
LINE
  8
0
 10
-53.3037
 20
70.2665
 11
-53.1387
 21
70.3572
  0
LINE
  8
0
 10
-53.1387
 20
70.3572
 11
-52.9635
 21
70.4266
  0
LINE
  8
0
 10
-52.9635
 20
70.4266
 11
-52.7811
 21
70.4734
  0
LINE
  8
0
 10
-52.7811
 20
70.4734
 11
-52.5942
 21
70.497
  0
LINE
  8
0
 10
-52.5942
 20
70.497
 11
-52.4058
 21
70.497
  0
LINE
  8
0
 10
-52.4058
 20
70.497
 11
-52.2189
 21
70.4734
  0
LINE
  8
0
 10
-52.2189
 20
70.4734
 11
-52.0365
 21
70.4266
  0
LINE
  8
0
 10
-52.0365
 20
70.4266
 11
-51.8613
 21
70.3572
  0
LINE
  8
0
 10
-51.8613
 20
70.3572
 11
-51.6963
 21
70.2665
  0
LINE
  8
0
 10
-51.6963
 20
70.2665
 11
-51.5439
 21
70.1558
  0
LINE
  8
0
 10
-51.5439
 20
70.1558
 11
-51.4065
 21
70.0268
  0
LINE
  8
0
 10
-51.4065
 20
70.0268
 11
-51.2865
 21
69.8817
  0
LINE
  8
0
 10
-51.2865
 20
69.8817
 11
-51.1855
 21
69.7226
  0
LINE
  8
0
 10
-51.1855
 20
69.7226
 11
-51.1053
 21
69.5522
  0
LINE
  8
0
 10
-51.1053
 20
69.5522
 11
-51.0471
 21
69.373
  0
LINE
  8
0
 10
-51.0471
 20
69.373
 11
-51.0118
 21
69.188
  0
LINE
  8
0
 10
-51.0118
 20
69.188
 11
-51
 21
69
  0
LINE
  8
0
 10
-51
 20
69
 11
-51.0118
 21
68.812
  0
LINE
  8
0
 10
-51.0118
 20
68.812
 11
-51.0471
 21
68.627
  0
LINE
  8
0
 10
-51.0471
 20
68.627
 11
-51.1053
 21
68.4478
  0
LINE
  8
0
 10
-51.1053
 20
68.4478
 11
-51.1855
 21
68.2774
  0
LINE
  8
0
 10
-51.1855
 20
68.2774
 11
-51.2865
 21
68.1183
  0
LINE
  8
0
 10
-51.2865
 20
68.1183
 11
-51.4065
 21
67.9732
  0
LINE
  8
0
 10
-51.4065
 20
67.9732
 11
-51.5439
 21
67.8442
  0
LINE
  8
0
 10
-51.5439
 20
67.8442
 11
-51.6963
 21
67.7335
  0
LINE
  8
0
 10
-51.6963
 20
67.7335
 11
-51.8613
 21
67.6428
  0
LINE
  8
0
 10
-51.8613
 20
67.6428
 11
-52.0365
 21
67.5734
  0
LINE
  8
0
 10
-52.0365
 20
67.5734
 11
-52.2189
 21
67.5266
  0
LINE
  8
0
 10
-52.2189
 20
67.5266
 11
-52.4058
 21
67.503
  0
LINE
  8
0
 10
-52.4058
 20
67.503
 11
-52.5942
 21
67.503
  0
LINE
  8
0
 10
-52.6884
 20
58.5059
 11
-53.0621
 21
58.5531
  0
LINE
  8
0
 10
-53.0621
 20
58.5531
 11
-53.427
 21
58.6468
  0
LINE
  8
0
 10
-53.427
 20
58.6468
 11
-53.7773
 21
58.7855
  0
LINE
  8
0
 10
-53.7773
 20
58.7855
 11
-54.1075
 21
58.967
  0
LINE
  8
0
 10
-54.1075
 20
58.967
 11
-54.4123
 21
59.1885
  0
LINE
  8
0
 10
-54.4123
 20
59.1885
 11
-54.6869
 21
59.4464
  0
LINE
  8
0
 10
-54.6869
 20
59.4464
 11
-54.927
 21
59.7366
  0
LINE
  8
0
 10
-54.927
 20
59.7366
 11
-55.1289
 21
60.0547
  0
LINE
  8
0
 10
-55.1289
 20
60.0547
 11
-55.2893
 21
60.3956
  0
LINE
  8
0
 10
-55.2893
 20
60.3956
 11
-55.4057
 21
60.7539
  0
LINE
  8
0
 10
-55.4057
 20
60.7539
 11
-55.4763
 21
61.124
  0
LINE
  8
0
 10
-55.4763
 20
61.124
 11
-55.5
 21
61.5
  0
LINE
  8
0
 10
-55.5
 20
61.5
 11
-55.4763
 21
61.876
  0
LINE
  8
0
 10
-55.4763
 20
61.876
 11
-55.4057
 21
62.2461
  0
LINE
  8
0
 10
-55.4057
 20
62.2461
 11
-55.2893
 21
62.6044
  0
LINE
  8
0
 10
-55.2893
 20
62.6044
 11
-55.1289
 21
62.9453
  0
LINE
  8
0
 10
-55.1289
 20
62.9453
 11
-54.927
 21
63.2634
  0
LINE
  8
0
 10
-54.927
 20
63.2634
 11
-54.6869
 21
63.5536
  0
LINE
  8
0
 10
-54.6869
 20
63.5536
 11
-54.4123
 21
63.8116
  0
LINE
  8
0
 10
-54.4123
 20
63.8116
 11
-54.1075
 21
64.033
  0
LINE
  8
0
 10
-54.1075
 20
64.033
 11
-53.7773
 21
64.2145
  0
LINE
  8
0
 10
-53.7773
 20
64.2145
 11
-53.427
 21
64.3532
  0
LINE
  8
0
 10
-53.427
 20
64.3532
 11
-53.0621
 21
64.4469
  0
LINE
  8
0
 10
-53.0621
 20
64.4469
 11
-52.6884
 21
64.4941
  0
LINE
  8
0
 10
-52.6884
 20
64.4941
 11
-52.3116
 21
64.4941
  0
LINE
  8
0
 10
-52.3116
 20
64.4941
 11
-51.9379
 21
64.4469
  0
LINE
  8
0
 10
-51.9379
 20
64.4469
 11
-51.5729
 21
64.3532
  0
LINE
  8
0
 10
-51.5729
 20
64.3532
 11
-51.2227
 21
64.2145
  0
LINE
  8
0
 10
-51.2227
 20
64.2145
 11
-50.8925
 21
64.033
  0
LINE
  8
0
 10
-50.8925
 20
64.033
 11
-50.5877
 21
63.8116
  0
LINE
  8
0
 10
-50.5877
 20
63.8116
 11
-50.3131
 21
63.5536
  0
LINE
  8
0
 10
-50.3131
 20
63.5536
 11
-50.0729
 21
63.2634
  0
LINE
  8
0
 10
-50.0729
 20
63.2634
 11
-49.8711
 21
62.9453
  0
LINE
  8
0
 10
-49.8711
 20
62.9453
 11
-49.7107
 21
62.6044
  0
LINE
  8
0
 10
-49.7107
 20
62.6044
 11
-49.5942
 21
62.2461
  0
LINE
  8
0
 10
-49.5942
 20
62.2461
 11
-49.5237
 21
61.876
  0
LINE
  8
0
 10
-49.5237
 20
61.876
 11
-49.5
 21
61.5
  0
LINE
  8
0
 10
-49.5
 20
61.5
 11
-49.5237
 21
61.124
  0
LINE
  8
0
 10
-49.5237
 20
61.124
 11
-49.5942
 21
60.7539
  0
LINE
  8
0
 10
-49.5942
 20
60.7539
 11
-49.7107
 21
60.3956
  0
LINE
  8
0
 10
-49.7107
 20
60.3956
 11
-49.8711
 21
60.0547
  0
LINE
  8
0
 10
-49.8711
 20
60.0547
 11
-50.0729
 21
59.7366
  0
LINE
  8
0
 10
-50.0729
 20
59.7366
 11
-50.3131
 21
59.4464
  0
LINE
  8
0
 10
-50.3131
 20
59.4464
 11
-50.5877
 21
59.1885
  0
LINE
  8
0
 10
-50.5877
 20
59.1885
 11
-50.8925
 21
58.967
  0
LINE
  8
0
 10
-50.8925
 20
58.967
 11
-51.2227
 21
58.7855
  0
LINE
  8
0
 10
-51.2227
 20
58.7855
 11
-51.5729
 21
58.6468
  0
LINE
  8
0
 10
-51.5729
 20
58.6468
 11
-51.9379
 21
58.5531
  0
LINE
  8
0
 10
-51.9379
 20
58.5531
 11
-52.3116
 21
58.5059
  0
LINE
  8
0
 10
-52.3116
 20
58.5059
 11
-52.6884
 21
58.5059
  0
LINE
  8
0
 10
52.3116
 20
58.5059
 11
51.9379
 21
58.5531
  0
LINE
  8
0
 10
51.9379
 20
58.5531
 11
51.5729
 21
58.6468
  0
LINE
  8
0
 10
51.5729
 20
58.6468
 11
51.2227
 21
58.7855
  0
LINE
  8
0
 10
51.2227
 20
58.7855
 11
50.8925
 21
58.967
  0
LINE
  8
0
 10
50.8925
 20
58.967
 11
50.5877
 21
59.1885
  0
LINE
  8
0
 10
50.5877
 20
59.1885
 11
50.3131
 21
59.4464
  0
LINE
  8
0
 10
50.3131
 20
59.4464
 11
50.0729
 21
59.7366
  0
LINE
  8
0
 10
50.0729
 20
59.7366
 11
49.8711
 21
60.0547
  0
LINE
  8
0
 10
49.8711
 20
60.0547
 11
49.7107
 21
60.3956
  0
LINE
  8
0
 10
49.7107
 20
60.3956
 11
49.5942
 21
60.7539
  0
LINE
  8
0
 10
49.5942
 20
60.7539
 11
49.5237
 21
61.124
  0
LINE
  8
0
 10
49.5237
 20
61.124
 11
49.5
 21
61.5
  0
LINE
  8
0
 10
49.5
 20
61.5
 11
49.5237
 21
61.876
  0
LINE
  8
0
 10
49.5237
 20
61.876
 11
49.5942
 21
62.2461
  0
LINE
  8
0
 10
49.5942
 20
62.2461
 11
49.7107
 21
62.6044
  0
LINE
  8
0
 10
49.7107
 20
62.6044
 11
49.8711
 21
62.9453
  0
LINE
  8
0
 10
49.8711
 20
62.9453
 11
50.0729
 21
63.2634
  0
LINE
  8
0
 10
50.0729
 20
63.2634
 11
50.3131
 21
63.5536
  0
LINE
  8
0
 10
50.3131
 20
63.5536
 11
50.5877
 21
63.8116
  0
LINE
  8
0
 10
50.5877
 20
63.8116
 11
50.8925
 21
64.033
  0
LINE
  8
0
 10
50.8925
 20
64.033
 11
51.2227
 21
64.2145
  0
LINE
  8
0
 10
51.2227
 20
64.2145
 11
51.5729
 21
64.3532
  0
LINE
  8
0
 10
51.5729
 20
64.3532
 11
51.9379
 21
64.4469
  0
LINE
  8
0
 10
51.9379
 20
64.4469
 11
52.3116
 21
64.4941
  0
LINE
  8
0
 10
52.3116
 20
64.4941
 11
52.6884
 21
64.4941
  0
LINE
  8
0
 10
52.6884
 20
64.4941
 11
53.0621
 21
64.4469
  0
LINE
  8
0
 10
53.0621
 20
64.4469
 11
53.427
 21
64.3532
  0
LINE
  8
0
 10
53.427
 20
64.3532
 11
53.7773
 21
64.2145
  0
LINE
  8
0
 10
53.7773
 20
64.2145
 11
54.1075
 21
64.033
  0
LINE
  8
0
 10
54.1075
 20
64.033
 11
54.4123
 21
63.8116
  0
LINE
  8
0
 10
54.4123
 20
63.8116
 11
54.6869
 21
63.5536
  0
LINE
  8
0
 10
54.6869
 20
63.5536
 11
54.927
 21
63.2634
  0
LINE
  8
0
 10
54.927
 20
63.2634
 11
55.1289
 21
62.9453
  0
LINE
  8
0
 10
55.1289
 20
62.9453
 11
55.2893
 21
62.6044
  0
LINE
  8
0
 10
55.2893
 20
62.6044
 11
55.4057
 21
62.2461
  0
LINE
  8
0
 10
55.4057
 20
62.2461
 11
55.4763
 21
61.876
  0
LINE
  8
0
 10
55.4763
 20
61.876
 11
55.5
 21
61.5
  0
LINE
  8
0
 10
55.5
 20
61.5
 11
55.4763
 21
61.124
  0
LINE
  8
0
 10
55.4763
 20
61.124
 11
55.4057
 21
60.7539
  0
LINE
  8
0
 10
55.4057
 20
60.7539
 11
55.2893
 21
60.3956
  0
LINE
  8
0
 10
55.2893
 20
60.3956
 11
55.1289
 21
60.0547
  0
LINE
  8
0
 10
55.1289
 20
60.0547
 11
54.927
 21
59.7366
  0
LINE
  8
0
 10
54.927
 20
59.7366
 11
54.6869
 21
59.4464
  0
LINE
  8
0
 10
54.6869
 20
59.4464
 11
54.4123
 21
59.1885
  0
LINE
  8
0
 10
54.4123
 20
59.1885
 11
54.1075
 21
58.967
  0
LINE
  8
0
 10
54.1075
 20
58.967
 11
53.7773
 21
58.7855
  0
LINE
  8
0
 10
53.7773
 20
58.7855
 11
53.427
 21
58.6468
  0
LINE
  8
0
 10
53.427
 20
58.6468
 11
53.0621
 21
58.5531
  0
LINE
  8
0
 10
53.0621
 20
58.5531
 11
52.6884
 21
58.5059
  0
LINE
  8
0
 10
52.6884
 20
58.5059
 11
52.3116
 21
58.5059
  0
LINE
  8
0
 10
52.4058
 20
52.503
 11
52.2189
 21
52.5266
  0
LINE
  8
0
 10
52.2189
 20
52.5266
 11
52.0365
 21
52.5734
  0
LINE
  8
0
 10
52.0365
 20
52.5734
 11
51.8613
 21
52.6428
  0
LINE
  8
0
 10
51.8613
 20
52.6428
 11
51.6963
 21
52.7335
  0
LINE
  8
0
 10
51.6963
 20
52.7335
 11
51.5439
 21
52.8442
  0
LINE
  8
0
 10
51.5439
 20
52.8442
 11
51.4065
 21
52.9732
  0
LINE
  8
0
 10
51.4065
 20
52.9732
 11
51.2865
 21
53.1183
  0
LINE
  8
0
 10
51.2865
 20
53.1183
 11
51.1855
 21
53.2774
  0
LINE
  8
0
 10
51.1855
 20
53.2774
 11
51.1053
 21
53.4478
  0
LINE
  8
0
 10
51.1053
 20
53.4478
 11
51.0471
 21
53.627
  0
LINE
  8
0
 10
51.0471
 20
53.627
 11
51.0118
 21
53.812
  0
LINE
  8
0
 10
51.0118
 20
53.812
 11
51
 21
54
  0
LINE
  8
0
 10
51
 20
54
 11
51.0118
 21
54.188
  0
LINE
  8
0
 10
51.0118
 20
54.188
 11
51.0471
 21
54.373
  0
LINE
  8
0
 10
51.0471
 20
54.373
 11
51.1053
 21
54.5522
  0
LINE
  8
0
 10
51.1053
 20
54.5522
 11
51.1855
 21
54.7226
  0
LINE
  8
0
 10
51.1855
 20
54.7226
 11
51.2865
 21
54.8817
  0
LINE
  8
0
 10
51.2865
 20
54.8817
 11
51.4065
 21
55.0268
  0
LINE
  8
0
 10
51.4065
 20
55.0268
 11
51.5439
 21
55.1558
  0
LINE
  8
0
 10
51.5439
 20
55.1558
 11
51.6963
 21
55.2665
  0
LINE
  8
0
 10
51.6963
 20
55.2665
 11
51.8613
 21
55.3573
  0
LINE
  8
0
 10
51.8613
 20
55.3573
 11
52.0365
 21
55.4266
  0
LINE
  8
0
 10
52.0365
 20
55.4266
 11
52.2189
 21
55.4734
  0
LINE
  8
0
 10
52.2189
 20
55.4734
 11
52.4058
 21
55.4971
  0
LINE
  8
0
 10
52.4058
 20
55.4971
 11
52.5942
 21
55.4971
  0
LINE
  8
0
 10
52.5942
 20
55.4971
 11
52.7811
 21
55.4734
  0
LINE
  8
0
 10
52.7811
 20
55.4734
 11
52.9635
 21
55.4266
  0
LINE
  8
0
 10
52.9635
 20
55.4266
 11
53.1387
 21
55.3573
  0
LINE
  8
0
 10
53.1387
 20
55.3573
 11
53.3037
 21
55.2665
  0
LINE
  8
0
 10
53.3037
 20
55.2665
 11
53.4561
 21
55.1558
  0
LINE
  8
0
 10
53.4561
 20
55.1558
 11
53.5934
 21
55.0268
  0
LINE
  8
0
 10
53.5934
 20
55.0268
 11
53.7135
 21
54.8817
  0
LINE
  8
0
 10
53.7135
 20
54.8817
 11
53.8145
 21
54.7226
  0
LINE
  8
0
 10
53.8145
 20
54.7226
 11
53.8947
 21
54.5522
  0
LINE
  8
0
 10
53.8947
 20
54.5522
 11
53.9529
 21
54.373
  0
LINE
  8
0
 10
53.9529
 20
54.373
 11
53.9882
 21
54.188
  0
LINE
  8
0
 10
53.9882
 20
54.188
 11
54
 21
54
  0
LINE
  8
0
 10
54
 20
54
 11
53.9882
 21
53.812
  0
LINE
  8
0
 10
53.9882
 20
53.812
 11
53.9529
 21
53.627
  0
LINE
  8
0
 10
53.9529
 20
53.627
 11
53.8947
 21
53.4478
  0
LINE
  8
0
 10
53.8947
 20
53.4478
 11
53.8145
 21
53.2774
  0
LINE
  8
0
 10
53.8145
 20
53.2774
 11
53.7135
 21
53.1183
  0
LINE
  8
0
 10
53.7135
 20
53.1183
 11
53.5934
 21
52.9732
  0
LINE
  8
0
 10
53.5934
 20
52.9732
 11
53.4561
 21
52.8442
  0
LINE
  8
0
 10
53.4561
 20
52.8442
 11
53.3037
 21
52.7335
  0
LINE
  8
0
 10
53.3037
 20
52.7335
 11
53.1387
 21
52.6428
  0
LINE
  8
0
 10
53.1387
 20
52.6428
 11
52.9635
 21
52.5734
  0
LINE
  8
0
 10
52.9635
 20
52.5734
 11
52.7811
 21
52.5266
  0
LINE
  8
0
 10
52.7811
 20
52.5266
 11
52.5942
 21
52.503
  0
LINE
  8
0
 10
52.5942
 20
52.503
 11
52.4058
 21
52.503
  0
LINE
  8
0
 10
-52.5942
 20
52.503
 11
-52.7811
 21
52.5266
  0
LINE
  8
0
 10
-52.7811
 20
52.5266
 11
-52.9635
 21
52.5734
  0
LINE
  8
0
 10
-52.9635
 20
52.5734
 11
-53.1387
 21
52.6428
  0
LINE
  8
0
 10
-53.1387
 20
52.6428
 11
-53.3037
 21
52.7335
  0
LINE
  8
0
 10
-53.3037
 20
52.7335
 11
-53.4561
 21
52.8442
  0
LINE
  8
0
 10
-53.4561
 20
52.8442
 11
-53.5934
 21
52.9732
  0
LINE
  8
0
 10
-53.5934
 20
52.9732
 11
-53.7135
 21
53.1183
  0
LINE
  8
0
 10
-53.7135
 20
53.1183
 11
-53.8145
 21
53.2774
  0
LINE
  8
0
 10
-53.8145
 20
53.2774
 11
-53.8947
 21
53.4478
  0
LINE
  8
0
 10
-53.8947
 20
53.4478
 11
-53.9529
 21
53.627
  0
LINE
  8
0
 10
-53.9529
 20
53.627
 11
-53.9882
 21
53.812
  0
LINE
  8
0
 10
-53.9882
 20
53.812
 11
-54
 21
54
  0
LINE
  8
0
 10
-54
 20
54
 11
-53.9882
 21
54.188
  0
LINE
  8
0
 10
-53.9882
 20
54.188
 11
-53.9529
 21
54.373
  0
LINE
  8
0
 10
-53.9529
 20
54.373
 11
-53.8947
 21
54.5522
  0
LINE
  8
0
 10
-53.8947
 20
54.5522
 11
-53.8145
 21
54.7226
  0
LINE
  8
0
 10
-53.8145
 20
54.7226
 11
-53.7135
 21
54.8817
  0
LINE
  8
0
 10
-53.7135
 20
54.8817
 11
-53.5934
 21
55.0268
  0
LINE
  8
0
 10
-53.5934
 20
55.0268
 11
-53.4561
 21
55.1558
  0
LINE
  8
0
 10
-53.4561
 20
55.1558
 11
-53.3037
 21
55.2665
  0
LINE
  8
0
 10
-53.3037
 20
55.2665
 11
-53.1387
 21
55.3573
  0
LINE
  8
0
 10
-53.1387
 20
55.3573
 11
-52.9635
 21
55.4266
  0
LINE
  8
0
 10
-52.9635
 20
55.4266
 11
-52.7811
 21
55.4734
  0
LINE
  8
0
 10
-52.7811
 20
55.4734
 11
-52.5942
 21
55.4971
  0
LINE
  8
0
 10
-52.5942
 20
55.4971
 11
-52.4058
 21
55.4971
  0
LINE
  8
0
 10
-52.4058
 20
55.4971
 11
-52.2189
 21
55.4734
  0
LINE
  8
0
 10
-52.2189
 20
55.4734
 11
-52.0365
 21
55.4266
  0
LINE
  8
0
 10
-52.0365
 20
55.4266
 11
-51.8613
 21
55.3573
  0
LINE
  8
0
 10
-51.8613
 20
55.3573
 11
-51.6963
 21
55.2665
  0
LINE
  8
0
 10
-51.6963
 20
55.2665
 11
-51.5439
 21
55.1558
  0
LINE
  8
0
 10
-51.5439
 20
55.1558
 11
-51.4065
 21
55.0268
  0
LINE
  8
0
 10
-51.4065
 20
55.0268
 11
-51.2865
 21
54.8817
  0
LINE
  8
0
 10
-51.2865
 20
54.8817
 11
-51.1855
 21
54.7226
  0
LINE
  8
0
 10
-51.1855
 20
54.7226
 11
-51.1053
 21
54.5522
  0
LINE
  8
0
 10
-51.1053
 20
54.5522
 11
-51.0471
 21
54.373
  0
LINE
  8
0
 10
-51.0471
 20
54.373
 11
-51.0118
 21
54.188
  0
LINE
  8
0
 10
-51.0118
 20
54.188
 11
-51
 21
54
  0
LINE
  8
0
 10
-51
 20
54
 11
-51.0118
 21
53.812
  0
LINE
  8
0
 10
-51.0118
 20
53.812
 11
-51.0471
 21
53.627
  0
LINE
  8
0
 10
-51.0471
 20
53.627
 11
-51.1053
 21
53.4478
  0
LINE
  8
0
 10
-51.1053
 20
53.4478
 11
-51.1855
 21
53.2774
  0
LINE
  8
0
 10
-51.1855
 20
53.2774
 11
-51.2865
 21
53.1183
  0
LINE
  8
0
 10
-51.2865
 20
53.1183
 11
-51.4065
 21
52.9732
  0
LINE
  8
0
 10
-51.4065
 20
52.9732
 11
-51.5439
 21
52.8442
  0
LINE
  8
0
 10
-51.5439
 20
52.8442
 11
-51.6963
 21
52.7335
  0
LINE
  8
0
 10
-51.6963
 20
52.7335
 11
-51.8613
 21
52.6428
  0
LINE
  8
0
 10
-51.8613
 20
52.6428
 11
-52.0365
 21
52.5734
  0
LINE
  8
0
 10
-52.0365
 20
52.5734
 11
-52.2189
 21
52.5266
  0
LINE
  8
0
 10
-52.2189
 20
52.5266
 11
-52.4058
 21
52.503
  0
LINE
  8
0
 10
-52.4058
 20
52.503
 11
-52.5942
 21
52.503
  0
LINE
  8
0
 10
-7.68837
 20
43.5059
 11
-8.06213
 21
43.5531
  0
LINE
  8
0
 10
-8.06213
 20
43.5531
 11
-8.42705
 21
43.6468
  0
LINE
  8
0
 10
-8.42705
 20
43.6468
 11
-8.77733
 21
43.7855
  0
LINE
  8
0
 10
-8.77733
 20
43.7855
 11
-9.10747
 21
43.967
  0
LINE
  8
0
 10
-9.10747
 20
43.967
 11
-9.41226
 21
44.1885
  0
LINE
  8
0
 10
-9.41226
 20
44.1885
 11
-9.6869
 21
44.4464
  0
LINE
  8
0
 10
-9.6869
 20
44.4464
 11
-9.92705
 21
44.7366
  0
LINE
  8
0
 10
-9.92705
 20
44.7366
 11
-10.1289
 21
45.0547
  0
LINE
  8
0
 10
-10.1289
 20
45.0547
 11
-10.2893
 21
45.3956
  0
LINE
  8
0
 10
-10.2893
 20
45.3956
 11
-10.4057
 21
45.7539
  0
LINE
  8
0
 10
-10.4057
 20
45.7539
 11
-10.4763
 21
46.124
  0
LINE
  8
0
 10
-10.4763
 20
46.124
 11
-10.5
 21
46.5
  0
LINE
  8
0
 10
-10.5
 20
46.5
 11
-10.4763
 21
46.876
  0
LINE
  8
0
 10
-10.4763
 20
46.876
 11
-10.4057
 21
47.2461
  0
LINE
  8
0
 10
-10.4057
 20
47.2461
 11
-10.2893
 21
47.6044
  0
LINE
  8
0
 10
-10.2893
 20
47.6044
 11
-10.1289
 21
47.9453
  0
LINE
  8
0
 10
-10.1289
 20
47.9453
 11
-9.92705
 21
48.2634
  0
LINE
  8
0
 10
-9.92705
 20
48.2634
 11
-9.6869
 21
48.5536
  0
LINE
  8
0
 10
-9.6869
 20
48.5536
 11
-9.41226
 21
48.8116
  0
LINE
  8
0
 10
-9.41226
 20
48.8116
 11
-9.10747
 21
49.033
  0
LINE
  8
0
 10
-9.10747
 20
49.033
 11
-8.77733
 21
49.2145
  0
LINE
  8
0
 10
-8.77733
 20
49.2145
 11
-8.42705
 21
49.3532
  0
LINE
  8
0
 10
-8.42705
 20
49.3532
 11
-8.06213
 21
49.4469
  0
LINE
  8
0
 10
-8.06213
 20
49.4469
 11
-7.68837
 21
49.4941
  0
LINE
  8
0
 10
-7.68837
 20
49.4941
 11
-7.31161
 21
49.4941
  0
LINE
  8
0
 10
-7.31161
 20
49.4941
 11
-6.93785
 21
49.4469
  0
LINE
  8
0
 10
-6.93785
 20
49.4469
 11
-6.57294
 21
49.3532
  0
LINE
  8
0
 10
-6.57294
 20
49.3532
 11
-6.22266
 21
49.2145
  0
LINE
  8
0
 10
-6.22266
 20
49.2145
 11
-5.89252
 21
49.033
  0
LINE
  8
0
 10
-5.89252
 20
49.033
 11
-5.58772
 21
48.8116
  0
LINE
  8
0
 10
-5.58772
 20
48.8116
 11
-5.31308
 21
48.5536
  0
LINE
  8
0
 10
-5.31308
 20
48.5536
 11
-5.07294
 21
48.2634
  0
LINE
  8
0
 10
-5.07294
 20
48.2634
 11
-4.87108
 21
47.9453
  0
LINE
  8
0
 10
-4.87108
 20
47.9453
 11
-4.71066
 21
47.6044
  0
LINE
  8
0
 10
-4.71066
 20
47.6044
 11
-4.59424
 21
47.2461
  0
LINE
  8
0
 10
-4.59424
 20
47.2461
 11
-4.52365
 21
46.876
  0
LINE
  8
0
 10
-4.52365
 20
46.876
 11
-4.5
 21
46.5
  0
LINE
  8
0
 10
-4.5
 20
46.5
 11
-4.52365
 21
46.124
  0
LINE
  8
0
 10
-4.52365
 20
46.124
 11
-4.59424
 21
45.7539
  0
LINE
  8
0
 10
-4.59424
 20
45.7539
 11
-4.71066
 21
45.3956
  0
LINE
  8
0
 10
-4.71066
 20
45.3956
 11
-4.87108
 21
45.0547
  0
LINE
  8
0
 10
-4.87108
 20
45.0547
 11
-5.07294
 21
44.7366
  0
LINE
  8
0
 10
-5.07294
 20
44.7366
 11
-5.31308
 21
44.4464
  0
LINE
  8
0
 10
-5.31308
 20
44.4464
 11
-5.58772
 21
44.1885
  0
LINE
  8
0
 10
-5.58772
 20
44.1885
 11
-5.89252
 21
43.967
  0
LINE
  8
0
 10
-5.89252
 20
43.967
 11
-6.22266
 21
43.7855
  0
LINE
  8
0
 10
-6.22266
 20
43.7855
 11
-6.57294
 21
43.6468
  0
LINE
  8
0
 10
-6.57294
 20
43.6468
 11
-6.93785
 21
43.5531
  0
LINE
  8
0
 10
-6.93785
 20
43.5531
 11
-7.31161
 21
43.5059
  0
LINE
  8
0
 10
-7.31161
 20
43.5059
 11
-7.68837
 21
43.5059
  0
LINE
  8
0
 10
52.3116
 20
43.5059
 11
51.9379
 21
43.5531
  0
LINE
  8
0
 10
51.9379
 20
43.5531
 11
51.5729
 21
43.6468
  0
LINE
  8
0
 10
51.5729
 20
43.6468
 11
51.2227
 21
43.7855
  0
LINE
  8
0
 10
51.2227
 20
43.7855
 11
50.8925
 21
43.967
  0
LINE
  8
0
 10
50.8925
 20
43.967
 11
50.5877
 21
44.1885
  0
LINE
  8
0
 10
50.5877
 20
44.1885
 11
50.3131
 21
44.4464
  0
LINE
  8
0
 10
50.3131
 20
44.4464
 11
50.0729
 21
44.7366
  0
LINE
  8
0
 10
50.0729
 20
44.7366
 11
49.8711
 21
45.0547
  0
LINE
  8
0
 10
49.8711
 20
45.0547
 11
49.7107
 21
45.3956
  0
LINE
  8
0
 10
49.7107
 20
45.3956
 11
49.5942
 21
45.7539
  0
LINE
  8
0
 10
49.5942
 20
45.7539
 11
49.5237
 21
46.124
  0
LINE
  8
0
 10
49.5237
 20
46.124
 11
49.5
 21
46.5
  0
LINE
  8
0
 10
49.5
 20
46.5
 11
49.5237
 21
46.876
  0
LINE
  8
0
 10
49.5237
 20
46.876
 11
49.5942
 21
47.2461
  0
LINE
  8
0
 10
49.5942
 20
47.2461
 11
49.7107
 21
47.6044
  0
LINE
  8
0
 10
49.7107
 20
47.6044
 11
49.8711
 21
47.9453
  0
LINE
  8
0
 10
49.8711
 20
47.9453
 11
50.0729
 21
48.2634
  0
LINE
  8
0
 10
50.0729
 20
48.2634
 11
50.3131
 21
48.5536
  0
LINE
  8
0
 10
50.3131
 20
48.5536
 11
50.5877
 21
48.8116
  0
LINE
  8
0
 10
50.5877
 20
48.8116
 11
50.8925
 21
49.033
  0
LINE
  8
0
 10
50.8925
 20
49.033
 11
51.2227
 21
49.2145
  0
LINE
  8
0
 10
51.2227
 20
49.2145
 11
51.5729
 21
49.3532
  0
LINE
  8
0
 10
51.5729
 20
49.3532
 11
51.9379
 21
49.4469
  0
LINE
  8
0
 10
51.9379
 20
49.4469
 11
52.3116
 21
49.4941
  0
LINE
  8
0
 10
52.3116
 20
49.4941
 11
52.6884
 21
49.4941
  0
LINE
  8
0
 10
52.6884
 20
49.4941
 11
53.0621
 21
49.4469
  0
LINE
  8
0
 10
53.0621
 20
49.4469
 11
53.427
 21
49.3532
  0
LINE
  8
0
 10
53.427
 20
49.3532
 11
53.7773
 21
49.2145
  0
LINE
  8
0
 10
53.7773
 20
49.2145
 11
54.1075
 21
49.033
  0
LINE
  8
0
 10
54.1075
 20
49.033
 11
54.4123
 21
48.8116
  0
LINE
  8
0
 10
54.4123
 20
48.8116
 11
54.6869
 21
48.5536
  0
LINE
  8
0
 10
54.6869
 20
48.5536
 11
54.927
 21
48.2634
  0
LINE
  8
0
 10
54.927
 20
48.2634
 11
55.1289
 21
47.9453
  0
LINE
  8
0
 10
55.1289
 20
47.9453
 11
55.2893
 21
47.6044
  0
LINE
  8
0
 10
55.2893
 20
47.6044
 11
55.4057
 21
47.2461
  0
LINE
  8
0
 10
55.4057
 20
47.2461
 11
55.4763
 21
46.876
  0
LINE
  8
0
 10
55.4763
 20
46.876
 11
55.5
 21
46.5
  0
LINE
  8
0
 10
55.5
 20
46.5
 11
55.4763
 21
46.124
  0
LINE
  8
0
 10
55.4763
 20
46.124
 11
55.4057
 21
45.7539
  0
LINE
  8
0
 10
55.4057
 20
45.7539
 11
55.2893
 21
45.3956
  0
LINE
  8
0
 10
55.2893
 20
45.3956
 11
55.1289
 21
45.0547
  0
LINE
  8
0
 10
55.1289
 20
45.0547
 11
54.927
 21
44.7366
  0
LINE
  8
0
 10
54.927
 20
44.7366
 11
54.6869
 21
44.4464
  0
LINE
  8
0
 10
54.6869
 20
44.4464
 11
54.4123
 21
44.1885
  0
LINE
  8
0
 10
54.4123
 20
44.1885
 11
54.1075
 21
43.967
  0
LINE
  8
0
 10
54.1075
 20
43.967
 11
53.7773
 21
43.7855
  0
LINE
  8
0
 10
53.7773
 20
43.7855
 11
53.427
 21
43.6468
  0
LINE
  8
0
 10
53.427
 20
43.6468
 11
53.0621
 21
43.5531
  0
LINE
  8
0
 10
53.0621
 20
43.5531
 11
52.6884
 21
43.5059
  0
LINE
  8
0
 10
52.6884
 20
43.5059
 11
52.3116
 21
43.5059
  0
LINE
  8
0
 10
-37.6884
 20
43.5059
 11
-38.0621
 21
43.5531
  0
LINE
  8
0
 10
-38.0621
 20
43.5531
 11
-38.427
 21
43.6468
  0
LINE
  8
0
 10
-38.427
 20
43.6468
 11
-38.7773
 21
43.7855
  0
LINE
  8
0
 10
-38.7773
 20
43.7855
 11
-39.1075
 21
43.967
  0
LINE
  8
0
 10
-39.1075
 20
43.967
 11
-39.4123
 21
44.1885
  0
LINE
  8
0
 10
-39.4123
 20
44.1885
 11
-39.6869
 21
44.4464
  0
LINE
  8
0
 10
-39.6869
 20
44.4464
 11
-39.927
 21
44.7366
  0
LINE
  8
0
 10
-39.927
 20
44.7366
 11
-40.1289
 21
45.0547
  0
LINE
  8
0
 10
-40.1289
 20
45.0547
 11
-40.2893
 21
45.3956
  0
LINE
  8
0
 10
-40.2893
 20
45.3956
 11
-40.4057
 21
45.7539
  0
LINE
  8
0
 10
-40.4057
 20
45.7539
 11
-40.4763
 21
46.124
  0
LINE
  8
0
 10
-40.4763
 20
46.124
 11
-40.5
 21
46.5
  0
LINE
  8
0
 10
-40.5
 20
46.5
 11
-40.4763
 21
46.876
  0
LINE
  8
0
 10
-40.4763
 20
46.876
 11
-40.4057
 21
47.2461
  0
LINE
  8
0
 10
-40.4057
 20
47.2461
 11
-40.2893
 21
47.6044
  0
LINE
  8
0
 10
-40.2893
 20
47.6044
 11
-40.1289
 21
47.9453
  0
LINE
  8
0
 10
-40.1289
 20
47.9453
 11
-39.927
 21
48.2634
  0
LINE
  8
0
 10
-39.927
 20
48.2634
 11
-39.6869
 21
48.5536
  0
LINE
  8
0
 10
-39.6869
 20
48.5536
 11
-39.4123
 21
48.8116
  0
LINE
  8
0
 10
-39.4123
 20
48.8116
 11
-39.1075
 21
49.033
  0
LINE
  8
0
 10
-39.1075
 20
49.033
 11
-38.7773
 21
49.2145
  0
LINE
  8
0
 10
-38.7773
 20
49.2145
 11
-38.427
 21
49.3532
  0
LINE
  8
0
 10
-38.427
 20
49.3532
 11
-38.0621
 21
49.4469
  0
LINE
  8
0
 10
-38.0621
 20
49.4469
 11
-37.6884
 21
49.4941
  0
LINE
  8
0
 10
-37.6884
 20
49.4941
 11
-37.3116
 21
49.4941
  0
LINE
  8
0
 10
-37.3116
 20
49.4941
 11
-36.9379
 21
49.4469
  0
LINE
  8
0
 10
-36.9379
 20
49.4469
 11
-36.5729
 21
49.3532
  0
LINE
  8
0
 10
-36.5729
 20
49.3532
 11
-36.2227
 21
49.2145
  0
LINE
  8
0
 10
-36.2227
 20
49.2145
 11
-35.8925
 21
49.033
  0
LINE
  8
0
 10
-35.8925
 20
49.033
 11
-35.5877
 21
48.8116
  0
LINE
  8
0
 10
-35.5877
 20
48.8116
 11
-35.3131
 21
48.5536
  0
LINE
  8
0
 10
-35.3131
 20
48.5536
 11
-35.0729
 21
48.2634
  0
LINE
  8
0
 10
-35.0729
 20
48.2634
 11
-34.8711
 21
47.9453
  0
LINE
  8
0
 10
-34.8711
 20
47.9453
 11
-34.7107
 21
47.6044
  0
LINE
  8
0
 10
-34.7107
 20
47.6044
 11
-34.5942
 21
47.2461
  0
LINE
  8
0
 10
-34.5942
 20
47.2461
 11
-34.5237
 21
46.876
  0
LINE
  8
0
 10
-34.5237
 20
46.876
 11
-34.5
 21
46.5
  0
LINE
  8
0
 10
-34.5
 20
46.5
 11
-34.5237
 21
46.124
  0
LINE
  8
0
 10
-34.5237
 20
46.124
 11
-34.5942
 21
45.7539
  0
LINE
  8
0
 10
-34.5942
 20
45.7539
 11
-34.7107
 21
45.3956
  0
LINE
  8
0
 10
-34.7107
 20
45.3956
 11
-34.8711
 21
45.0547
  0
LINE
  8
0
 10
-34.8711
 20
45.0547
 11
-35.0729
 21
44.7366
  0
LINE
  8
0
 10
-35.0729
 20
44.7366
 11
-35.3131
 21
44.4464
  0
LINE
  8
0
 10
-35.3131
 20
44.4464
 11
-35.5877
 21
44.1885
  0
LINE
  8
0
 10
-35.5877
 20
44.1885
 11
-35.8925
 21
43.967
  0
LINE
  8
0
 10
-35.8925
 20
43.967
 11
-36.2227
 21
43.7855
  0
LINE
  8
0
 10
-36.2227
 20
43.7855
 11
-36.5729
 21
43.6468
  0
LINE
  8
0
 10
-36.5729
 20
43.6468
 11
-36.9379
 21
43.5531
  0
LINE
  8
0
 10
-36.9379
 20
43.5531
 11
-37.3116
 21
43.5059
  0
LINE
  8
0
 10
-37.3116
 20
43.5059
 11
-37.6884
 21
43.5059
  0
LINE
  8
0
 10
-52.6884
 20
43.5059
 11
-53.0621
 21
43.5531
  0
LINE
  8
0
 10
-53.0621
 20
43.5531
 11
-53.427
 21
43.6468
  0
LINE
  8
0
 10
-53.427
 20
43.6468
 11
-53.7773
 21
43.7855
  0
LINE
  8
0
 10
-53.7773
 20
43.7855
 11
-54.1075
 21
43.967
  0
LINE
  8
0
 10
-54.1075
 20
43.967
 11
-54.4123
 21
44.1885
  0
LINE
  8
0
 10
-54.4123
 20
44.1885
 11
-54.6869
 21
44.4464
  0
LINE
  8
0
 10
-54.6869
 20
44.4464
 11
-54.927
 21
44.7366
  0
LINE
  8
0
 10
-54.927
 20
44.7366
 11
-55.1289
 21
45.0547
  0
LINE
  8
0
 10
-55.1289
 20
45.0547
 11
-55.2893
 21
45.3956
  0
LINE
  8
0
 10
-55.2893
 20
45.3956
 11
-55.4057
 21
45.7539
  0
LINE
  8
0
 10
-55.4057
 20
45.7539
 11
-55.4763
 21
46.124
  0
LINE
  8
0
 10
-55.4763
 20
46.124
 11
-55.5
 21
46.5
  0
LINE
  8
0
 10
-55.5
 20
46.5
 11
-55.4763
 21
46.876
  0
LINE
  8
0
 10
-55.4763
 20
46.876
 11
-55.4057
 21
47.2461
  0
LINE
  8
0
 10
-55.4057
 20
47.2461
 11
-55.2893
 21
47.6044
  0
LINE
  8
0
 10
-55.2893
 20
47.6044
 11
-55.1289
 21
47.9453
  0
LINE
  8
0
 10
-55.1289
 20
47.9453
 11
-54.927
 21
48.2634
  0
LINE
  8
0
 10
-54.927
 20
48.2634
 11
-54.6869
 21
48.5536
  0
LINE
  8
0
 10
-54.6869
 20
48.5536
 11
-54.4123
 21
48.8116
  0
LINE
  8
0
 10
-54.4123
 20
48.8116
 11
-54.1075
 21
49.033
  0
LINE
  8
0
 10
-54.1075
 20
49.033
 11
-53.7773
 21
49.2145
  0
LINE
  8
0
 10
-53.7773
 20
49.2145
 11
-53.427
 21
49.3532
  0
LINE
  8
0
 10
-53.427
 20
49.3532
 11
-53.0621
 21
49.4469
  0
LINE
  8
0
 10
-53.0621
 20
49.4469
 11
-52.6884
 21
49.4941
  0
LINE
  8
0
 10
-52.6884
 20
49.4941
 11
-52.3116
 21
49.4941
  0
LINE
  8
0
 10
-52.3116
 20
49.4941
 11
-51.9379
 21
49.4469
  0
LINE
  8
0
 10
-51.9379
 20
49.4469
 11
-51.5729
 21
49.3532
  0
LINE
  8
0
 10
-51.5729
 20
49.3532
 11
-51.2227
 21
49.2145
  0
LINE
  8
0
 10
-51.2227
 20
49.2145
 11
-50.8925
 21
49.033
  0
LINE
  8
0
 10
-50.8925
 20
49.033
 11
-50.5877
 21
48.8116
  0
LINE
  8
0
 10
-50.5877
 20
48.8116
 11
-50.3131
 21
48.5536
  0
LINE
  8
0
 10
-50.3131
 20
48.5536
 11
-50.0729
 21
48.2634
  0
LINE
  8
0
 10
-50.0729
 20
48.2634
 11
-49.8711
 21
47.9453
  0
LINE
  8
0
 10
-49.8711
 20
47.9453
 11
-49.7107
 21
47.6044
  0
LINE
  8
0
 10
-49.7107
 20
47.6044
 11
-49.5942
 21
47.2461
  0
LINE
  8
0
 10
-49.5942
 20
47.2461
 11
-49.5237
 21
46.876
  0
LINE
  8
0
 10
-49.5237
 20
46.876
 11
-49.5
 21
46.5
  0
LINE
  8
0
 10
-49.5
 20
46.5
 11
-49.5237
 21
46.124
  0
LINE
  8
0
 10
-49.5237
 20
46.124
 11
-49.5942
 21
45.7539
  0
LINE
  8
0
 10
-49.5942
 20
45.7539
 11
-49.7107
 21
45.3956
  0
LINE
  8
0
 10
-49.7107
 20
45.3956
 11
-49.8711
 21
45.0547
  0
LINE
  8
0
 10
-49.8711
 20
45.0547
 11
-50.0729
 21
44.7366
  0
LINE
  8
0
 10
-50.0729
 20
44.7366
 11
-50.3131
 21
44.4464
  0
LINE
  8
0
 10
-50.3131
 20
44.4464
 11
-50.5877
 21
44.1885
  0
LINE
  8
0
 10
-50.5877
 20
44.1885
 11
-50.8925
 21
43.967
  0
LINE
  8
0
 10
-50.8925
 20
43.967
 11
-51.2227
 21
43.7855
  0
LINE
  8
0
 10
-51.2227
 20
43.7855
 11
-51.5729
 21
43.6468
  0
LINE
  8
0
 10
-51.5729
 20
43.6468
 11
-51.9379
 21
43.5531
  0
LINE
  8
0
 10
-51.9379
 20
43.5531
 11
-52.3116
 21
43.5059
  0
LINE
  8
0
 10
-52.3116
 20
43.5059
 11
-52.6884
 21
43.5059
  0
LINE
  8
0
 10
7.31161
 20
43.5059
 11
6.93785
 21
43.5531
  0
LINE
  8
0
 10
6.93785
 20
43.5531
 11
6.57294
 21
43.6468
  0
LINE
  8
0
 10
6.57294
 20
43.6468
 11
6.22266
 21
43.7855
  0
LINE
  8
0
 10
6.22266
 20
43.7855
 11
5.89252
 21
43.967
  0
LINE
  8
0
 10
5.89252
 20
43.967
 11
5.58772
 21
44.1885
  0
LINE
  8
0
 10
5.58772
 20
44.1885
 11
5.31308
 21
44.4464
  0
LINE
  8
0
 10
5.31308
 20
44.4464
 11
5.07294
 21
44.7366
  0
LINE
  8
0
 10
5.07294
 20
44.7366
 11
4.87108
 21
45.0547
  0
LINE
  8
0
 10
4.87108
 20
45.0547
 11
4.71066
 21
45.3956
  0
LINE
  8
0
 10
4.71066
 20
45.3956
 11
4.59424
 21
45.7539
  0
LINE
  8
0
 10
4.59424
 20
45.7539
 11
4.52365
 21
46.124
  0
LINE
  8
0
 10
4.52365
 20
46.124
 11
4.5
 21
46.5
  0
LINE
  8
0
 10
4.5
 20
46.5
 11
4.52365
 21
46.876
  0
LINE
  8
0
 10
4.52365
 20
46.876
 11
4.59424
 21
47.2461
  0
LINE
  8
0
 10
4.59424
 20
47.2461
 11
4.71066
 21
47.6044
  0
LINE
  8
0
 10
4.71066
 20
47.6044
 11
4.87108
 21
47.9453
  0
LINE
  8
0
 10
4.87108
 20
47.9453
 11
5.07294
 21
48.2634
  0
LINE
  8
0
 10
5.07294
 20
48.2634
 11
5.31308
 21
48.5536
  0
LINE
  8
0
 10
5.31308
 20
48.5536
 11
5.58772
 21
48.8116
  0
LINE
  8
0
 10
5.58772
 20
48.8116
 11
5.89252
 21
49.033
  0
LINE
  8
0
 10
5.89252
 20
49.033
 11
6.22266
 21
49.2145
  0
LINE
  8
0
 10
6.22266
 20
49.2145
 11
6.57294
 21
49.3532
  0
LINE
  8
0
 10
6.57294
 20
49.3532
 11
6.93785
 21
49.4469
  0
LINE
  8
0
 10
6.93785
 20
49.4469
 11
7.31161
 21
49.4941
  0
LINE
  8
0
 10
7.31161
 20
49.4941
 11
7.68837
 21
49.4941
  0
LINE
  8
0
 10
7.68837
 20
49.4941
 11
8.06213
 21
49.4469
  0
LINE
  8
0
 10
8.06213
 20
49.4469
 11
8.42705
 21
49.3532
  0
LINE
  8
0
 10
8.42705
 20
49.3532
 11
8.77733
 21
49.2145
  0
LINE
  8
0
 10
8.77733
 20
49.2145
 11
9.10747
 21
49.033
  0
LINE
  8
0
 10
9.10747
 20
49.033
 11
9.41226
 21
48.8116
  0
LINE
  8
0
 10
9.41226
 20
48.8116
 11
9.6869
 21
48.5536
  0
LINE
  8
0
 10
9.6869
 20
48.5536
 11
9.92705
 21
48.2634
  0
LINE
  8
0
 10
9.92705
 20
48.2634
 11
10.1289
 21
47.9453
  0
LINE
  8
0
 10
10.1289
 20
47.9453
 11
10.2893
 21
47.6044
  0
LINE
  8
0
 10
10.2893
 20
47.6044
 11
10.4057
 21
47.2461
  0
LINE
  8
0
 10
10.4057
 20
47.2461
 11
10.4763
 21
46.876
  0
LINE
  8
0
 10
10.4763
 20
46.876
 11
10.5
 21
46.5
  0
LINE
  8
0
 10
10.5
 20
46.5
 11
10.4763
 21
46.124
  0
LINE
  8
0
 10
10.4763
 20
46.124
 11
10.4057
 21
45.7539
  0
LINE
  8
0
 10
10.4057
 20
45.7539
 11
10.2893
 21
45.3956
  0
LINE
  8
0
 10
10.2893
 20
45.3956
 11
10.1289
 21
45.0547
  0
LINE
  8
0
 10
10.1289
 20
45.0547
 11
9.92705
 21
44.7366
  0
LINE
  8
0
 10
9.92705
 20
44.7366
 11
9.6869
 21
44.4464
  0
LINE
  8
0
 10
9.6869
 20
44.4464
 11
9.41226
 21
44.1885
  0
LINE
  8
0
 10
9.41226
 20
44.1885
 11
9.10747
 21
43.967
  0
LINE
  8
0
 10
9.10747
 20
43.967
 11
8.77733
 21
43.7855
  0
LINE
  8
0
 10
8.77733
 20
43.7855
 11
8.42705
 21
43.6468
  0
LINE
  8
0
 10
8.42705
 20
43.6468
 11
8.06213
 21
43.5531
  0
LINE
  8
0
 10
8.06213
 20
43.5531
 11
7.68837
 21
43.5059
  0
LINE
  8
0
 10
7.68837
 20
43.5059
 11
7.31161
 21
43.5059
  0
LINE
  8
0
 10
22.3116
 20
43.5059
 11
21.9379
 21
43.5531
  0
LINE
  8
0
 10
21.9379
 20
43.5531
 11
21.5729
 21
43.6468
  0
LINE
  8
0
 10
21.5729
 20
43.6468
 11
21.2227
 21
43.7855
  0
LINE
  8
0
 10
21.2227
 20
43.7855
 11
20.8925
 21
43.967
  0
LINE
  8
0
 10
20.8925
 20
43.967
 11
20.5877
 21
44.1885
  0
LINE
  8
0
 10
20.5877
 20
44.1885
 11
20.3131
 21
44.4464
  0
LINE
  8
0
 10
20.3131
 20
44.4464
 11
20.0729
 21
44.7366
  0
LINE
  8
0
 10
20.0729
 20
44.7366
 11
19.8711
 21
45.0547
  0
LINE
  8
0
 10
19.8711
 20
45.0547
 11
19.7107
 21
45.3956
  0
LINE
  8
0
 10
19.7107
 20
45.3956
 11
19.5942
 21
45.7539
  0
LINE
  8
0
 10
19.5942
 20
45.7539
 11
19.5237
 21
46.124
  0
LINE
  8
0
 10
19.5237
 20
46.124
 11
19.5
 21
46.5
  0
LINE
  8
0
 10
19.5
 20
46.5
 11
19.5237
 21
46.876
  0
LINE
  8
0
 10
19.5237
 20
46.876
 11
19.5942
 21
47.2461
  0
LINE
  8
0
 10
19.5942
 20
47.2461
 11
19.7107
 21
47.6044
  0
LINE
  8
0
 10
19.7107
 20
47.6044
 11
19.8711
 21
47.9453
  0
LINE
  8
0
 10
19.8711
 20
47.9453
 11
20.0729
 21
48.2634
  0
LINE
  8
0
 10
20.0729
 20
48.2634
 11
20.3131
 21
48.5536
  0
LINE
  8
0
 10
20.3131
 20
48.5536
 11
20.5877
 21
48.8116
  0
LINE
  8
0
 10
20.5877
 20
48.8116
 11
20.8925
 21
49.033
  0
LINE
  8
0
 10
20.8925
 20
49.033
 11
21.2227
 21
49.2145
  0
LINE
  8
0
 10
21.2227
 20
49.2145
 11
21.5729
 21
49.3532
  0
LINE
  8
0
 10
21.5729
 20
49.3532
 11
21.9379
 21
49.4469
  0
LINE
  8
0
 10
21.9379
 20
49.4469
 11
22.3116
 21
49.4941
  0
LINE
  8
0
 10
22.3116
 20
49.4941
 11
22.6884
 21
49.4941
  0
LINE
  8
0
 10
22.6884
 20
49.4941
 11
23.0621
 21
49.4469
  0
LINE
  8
0
 10
23.0621
 20
49.4469
 11
23.427
 21
49.3532
  0
LINE
  8
0
 10
23.427
 20
49.3532
 11
23.7773
 21
49.2145
  0
LINE
  8
0
 10
23.7773
 20
49.2145
 11
24.1075
 21
49.033
  0
LINE
  8
0
 10
24.1075
 20
49.033
 11
24.4123
 21
48.8116
  0
LINE
  8
0
 10
24.4123
 20
48.8116
 11
24.6869
 21
48.5536
  0
LINE
  8
0
 10
24.6869
 20
48.5536
 11
24.927
 21
48.2634
  0
LINE
  8
0
 10
24.927
 20
48.2634
 11
25.1289
 21
47.9453
  0
LINE
  8
0
 10
25.1289
 20
47.9453
 11
25.2893
 21
47.6044
  0
LINE
  8
0
 10
25.2893
 20
47.6044
 11
25.4057
 21
47.2461
  0
LINE
  8
0
 10
25.4057
 20
47.2461
 11
25.4763
 21
46.876
  0
LINE
  8
0
 10
25.4763
 20
46.876
 11
25.5
 21
46.5
  0
LINE
  8
0
 10
25.5
 20
46.5
 11
25.4763
 21
46.124
  0
LINE
  8
0
 10
25.4763
 20
46.124
 11
25.4057
 21
45.7539
  0
LINE
  8
0
 10
25.4057
 20
45.7539
 11
25.2893
 21
45.3956
  0
LINE
  8
0
 10
25.2893
 20
45.3956
 11
25.1289
 21
45.0547
  0
LINE
  8
0
 10
25.1289
 20
45.0547
 11
24.927
 21
44.7366
  0
LINE
  8
0
 10
24.927
 20
44.7366
 11
24.6869
 21
44.4464
  0
LINE
  8
0
 10
24.6869
 20
44.4464
 11
24.4123
 21
44.1885
  0
LINE
  8
0
 10
24.4123
 20
44.1885
 11
24.1075
 21
43.967
  0
LINE
  8
0
 10
24.1075
 20
43.967
 11
23.7773
 21
43.7855
  0
LINE
  8
0
 10
23.7773
 20
43.7855
 11
23.427
 21
43.6468
  0
LINE
  8
0
 10
23.427
 20
43.6468
 11
23.0621
 21
43.5531
  0
LINE
  8
0
 10
23.0621
 20
43.5531
 11
22.6884
 21
43.5059
  0
LINE
  8
0
 10
22.6884
 20
43.5059
 11
22.3116
 21
43.5059
  0
LINE
  8
0
 10
-22.6884
 20
43.5059
 11
-23.0621
 21
43.5531
  0
LINE
  8
0
 10
-23.0621
 20
43.5531
 11
-23.427
 21
43.6468
  0
LINE
  8
0
 10
-23.427
 20
43.6468
 11
-23.7773
 21
43.7855
  0
LINE
  8
0
 10
-23.7773
 20
43.7855
 11
-24.1075
 21
43.967
  0
LINE
  8
0
 10
-24.1075
 20
43.967
 11
-24.4123
 21
44.1885
  0
LINE
  8
0
 10
-24.4123
 20
44.1885
 11
-24.6869
 21
44.4464
  0
LINE
  8
0
 10
-24.6869
 20
44.4464
 11
-24.927
 21
44.7366
  0
LINE
  8
0
 10
-24.927
 20
44.7366
 11
-25.1289
 21
45.0547
  0
LINE
  8
0
 10
-25.1289
 20
45.0547
 11
-25.2893
 21
45.3956
  0
LINE
  8
0
 10
-25.2893
 20
45.3956
 11
-25.4057
 21
45.7539
  0
LINE
  8
0
 10
-25.4057
 20
45.7539
 11
-25.4763
 21
46.124
  0
LINE
  8
0
 10
-25.4763
 20
46.124
 11
-25.5
 21
46.5
  0
LINE
  8
0
 10
-25.5
 20
46.5
 11
-25.4763
 21
46.876
  0
LINE
  8
0
 10
-25.4763
 20
46.876
 11
-25.4057
 21
47.2461
  0
LINE
  8
0
 10
-25.4057
 20
47.2461
 11
-25.2893
 21
47.6044
  0
LINE
  8
0
 10
-25.2893
 20
47.6044
 11
-25.1289
 21
47.9453
  0
LINE
  8
0
 10
-25.1289
 20
47.9453
 11
-24.927
 21
48.2634
  0
LINE
  8
0
 10
-24.927
 20
48.2634
 11
-24.6869
 21
48.5536
  0
LINE
  8
0
 10
-24.6869
 20
48.5536
 11
-24.4123
 21
48.8116
  0
LINE
  8
0
 10
-24.4123
 20
48.8116
 11
-24.1075
 21
49.033
  0
LINE
  8
0
 10
-24.1075
 20
49.033
 11
-23.7773
 21
49.2145
  0
LINE
  8
0
 10
-23.7773
 20
49.2145
 11
-23.427
 21
49.3532
  0
LINE
  8
0
 10
-23.427
 20
49.3532
 11
-23.0621
 21
49.4469
  0
LINE
  8
0
 10
-23.0621
 20
49.4469
 11
-22.6884
 21
49.4941
  0
LINE
  8
0
 10
-22.6884
 20
49.4941
 11
-22.3116
 21
49.4941
  0
LINE
  8
0
 10
-22.3116
 20
49.4941
 11
-21.9379
 21
49.4469
  0
LINE
  8
0
 10
-21.9379
 20
49.4469
 11
-21.5729
 21
49.3532
  0
LINE
  8
0
 10
-21.5729
 20
49.3532
 11
-21.2227
 21
49.2145
  0
LINE
  8
0
 10
-21.2227
 20
49.2145
 11
-20.8925
 21
49.033
  0
LINE
  8
0
 10
-20.8925
 20
49.033
 11
-20.5877
 21
48.8116
  0
LINE
  8
0
 10
-20.5877
 20
48.8116
 11
-20.3131
 21
48.5536
  0
LINE
  8
0
 10
-20.3131
 20
48.5536
 11
-20.0729
 21
48.2634
  0
LINE
  8
0
 10
-20.0729
 20
48.2634
 11
-19.8711
 21
47.9453
  0
LINE
  8
0
 10
-19.8711
 20
47.9453
 11
-19.7107
 21
47.6044
  0
LINE
  8
0
 10
-19.7107
 20
47.6044
 11
-19.5942
 21
47.2461
  0
LINE
  8
0
 10
-19.5942
 20
47.2461
 11
-19.5237
 21
46.876
  0
LINE
  8
0
 10
-19.5237
 20
46.876
 11
-19.5
 21
46.5
  0
LINE
  8
0
 10
-19.5
 20
46.5
 11
-19.5237
 21
46.124
  0
LINE
  8
0
 10
-19.5237
 20
46.124
 11
-19.5942
 21
45.7539
  0
LINE
  8
0
 10
-19.5942
 20
45.7539
 11
-19.7107
 21
45.3956
  0
LINE
  8
0
 10
-19.7107
 20
45.3956
 11
-19.8711
 21
45.0547
  0
LINE
  8
0
 10
-19.8711
 20
45.0547
 11
-20.0729
 21
44.7366
  0
LINE
  8
0
 10
-20.0729
 20
44.7366
 11
-20.3131
 21
44.4464
  0
LINE
  8
0
 10
-20.3131
 20
44.4464
 11
-20.5877
 21
44.1885
  0
LINE
  8
0
 10
-20.5877
 20
44.1885
 11
-20.8925
 21
43.967
  0
LINE
  8
0
 10
-20.8925
 20
43.967
 11
-21.2227
 21
43.7855
  0
LINE
  8
0
 10
-21.2227
 20
43.7855
 11
-21.5729
 21
43.6468
  0
LINE
  8
0
 10
-21.5729
 20
43.6468
 11
-21.9379
 21
43.5531
  0
LINE
  8
0
 10
-21.9379
 20
43.5531
 11
-22.3116
 21
43.5059
  0
LINE
  8
0
 10
-22.3116
 20
43.5059
 11
-22.6884
 21
43.5059
  0
LINE
  8
0
 10
37.3116
 20
43.5059
 11
36.9379
 21
43.5531
  0
LINE
  8
0
 10
36.9379
 20
43.5531
 11
36.5729
 21
43.6468
  0
LINE
  8
0
 10
36.5729
 20
43.6468
 11
36.2227
 21
43.7855
  0
LINE
  8
0
 10
36.2227
 20
43.7855
 11
35.8925
 21
43.967
  0
LINE
  8
0
 10
35.8925
 20
43.967
 11
35.5877
 21
44.1885
  0
LINE
  8
0
 10
35.5877
 20
44.1885
 11
35.3131
 21
44.4464
  0
LINE
  8
0
 10
35.3131
 20
44.4464
 11
35.0729
 21
44.7366
  0
LINE
  8
0
 10
35.0729
 20
44.7366
 11
34.8711
 21
45.0547
  0
LINE
  8
0
 10
34.8711
 20
45.0547
 11
34.7107
 21
45.3956
  0
LINE
  8
0
 10
34.7107
 20
45.3956
 11
34.5942
 21
45.7539
  0
LINE
  8
0
 10
34.5942
 20
45.7539
 11
34.5237
 21
46.124
  0
LINE
  8
0
 10
34.5237
 20
46.124
 11
34.5
 21
46.5
  0
LINE
  8
0
 10
34.5
 20
46.5
 11
34.5237
 21
46.876
  0
LINE
  8
0
 10
34.5237
 20
46.876
 11
34.5942
 21
47.2461
  0
LINE
  8
0
 10
34.5942
 20
47.2461
 11
34.7107
 21
47.6044
  0
LINE
  8
0
 10
34.7107
 20
47.6044
 11
34.8711
 21
47.9453
  0
LINE
  8
0
 10
34.8711
 20
47.9453
 11
35.0729
 21
48.2634
  0
LINE
  8
0
 10
35.0729
 20
48.2634
 11
35.3131
 21
48.5536
  0
LINE
  8
0
 10
35.3131
 20
48.5536
 11
35.5877
 21
48.8116
  0
LINE
  8
0
 10
35.5877
 20
48.8116
 11
35.8925
 21
49.033
  0
LINE
  8
0
 10
35.8925
 20
49.033
 11
36.2227
 21
49.2145
  0
LINE
  8
0
 10
36.2227
 20
49.2145
 11
36.5729
 21
49.3532
  0
LINE
  8
0
 10
36.5729
 20
49.3532
 11
36.9379
 21
49.4469
  0
LINE
  8
0
 10
36.9379
 20
49.4469
 11
37.3116
 21
49.4941
  0
LINE
  8
0
 10
37.3116
 20
49.4941
 11
37.6884
 21
49.4941
  0
LINE
  8
0
 10
37.6884
 20
49.4941
 11
38.0621
 21
49.4469
  0
LINE
  8
0
 10
38.0621
 20
49.4469
 11
38.427
 21
49.3532
  0
LINE
  8
0
 10
38.427
 20
49.3532
 11
38.7773
 21
49.2145
  0
LINE
  8
0
 10
38.7773
 20
49.2145
 11
39.1075
 21
49.033
  0
LINE
  8
0
 10
39.1075
 20
49.033
 11
39.4123
 21
48.8116
  0
LINE
  8
0
 10
39.4123
 20
48.8116
 11
39.6869
 21
48.5536
  0
LINE
  8
0
 10
39.6869
 20
48.5536
 11
39.927
 21
48.2634
  0
LINE
  8
0
 10
39.927
 20
48.2634
 11
40.1289
 21
47.9453
  0
LINE
  8
0
 10
40.1289
 20
47.9453
 11
40.2893
 21
47.6044
  0
LINE
  8
0
 10
40.2893
 20
47.6044
 11
40.4057
 21
47.2461
  0
LINE
  8
0
 10
40.4057
 20
47.2461
 11
40.4763
 21
46.876
  0
LINE
  8
0
 10
40.4763
 20
46.876
 11
40.5
 21
46.5
  0
LINE
  8
0
 10
40.5
 20
46.5
 11
40.4763
 21
46.124
  0
LINE
  8
0
 10
40.4763
 20
46.124
 11
40.4057
 21
45.7539
  0
LINE
  8
0
 10
40.4057
 20
45.7539
 11
40.2893
 21
45.3956
  0
LINE
  8
0
 10
40.2893
 20
45.3956
 11
40.1289
 21
45.0547
  0
LINE
  8
0
 10
40.1289
 20
45.0547
 11
39.927
 21
44.7366
  0
LINE
  8
0
 10
39.927
 20
44.7366
 11
39.6869
 21
44.4464
  0
LINE
  8
0
 10
39.6869
 20
44.4464
 11
39.4123
 21
44.1885
  0
LINE
  8
0
 10
39.4123
 20
44.1885
 11
39.1075
 21
43.967
  0
LINE
  8
0
 10
39.1075
 20
43.967
 11
38.7773
 21
43.7855
  0
LINE
  8
0
 10
38.7773
 20
43.7855
 11
38.427
 21
43.6468
  0
LINE
  8
0
 10
38.427
 20
43.6468
 11
38.0621
 21
43.5531
  0
LINE
  8
0
 10
38.0621
 20
43.5531
 11
37.6884
 21
43.5059
  0
LINE
  8
0
 10
37.6884
 20
43.5059
 11
37.3116
 21
43.5059
  0
LINE
  8
0
 10
29.9058
 20
45.003
 11
29.7189
 21
45.0266
  0
LINE
  8
0
 10
29.7189
 20
45.0266
 11
29.5365
 21
45.0734
  0
LINE
  8
0
 10
29.5365
 20
45.0734
 11
29.3613
 21
45.1428
  0
LINE
  8
0
 10
29.3613
 20
45.1428
 11
29.1963
 21
45.2335
  0
LINE
  8
0
 10
29.1963
 20
45.2335
 11
29.0439
 21
45.3442
  0
LINE
  8
0
 10
29.0439
 20
45.3442
 11
28.9065
 21
45.4732
  0
LINE
  8
0
 10
28.9065
 20
45.4732
 11
28.7865
 21
45.6183
  0
LINE
  8
0
 10
28.7865
 20
45.6183
 11
28.6855
 21
45.7774
  0
LINE
  8
0
 10
28.6855
 20
45.7774
 11
28.6053
 21
45.9478
  0
LINE
  8
0
 10
28.6053
 20
45.9478
 11
28.5471
 21
46.127
  0
LINE
  8
0
 10
28.5471
 20
46.127
 11
28.5118
 21
46.312
  0
LINE
  8
0
 10
28.5118
 20
46.312
 11
28.5
 21
46.5
  0
LINE
  8
0
 10
28.5
 20
46.5
 11
28.5118
 21
46.688
  0
LINE
  8
0
 10
28.5118
 20
46.688
 11
28.5471
 21
46.873
  0
LINE
  8
0
 10
28.5471
 20
46.873
 11
28.6053
 21
47.0522
  0
LINE
  8
0
 10
28.6053
 20
47.0522
 11
28.6855
 21
47.2226
  0
LINE
  8
0
 10
28.6855
 20
47.2226
 11
28.7865
 21
47.3817
  0
LINE
  8
0
 10
28.7865
 20
47.3817
 11
28.9065
 21
47.5268
  0
LINE
  8
0
 10
28.9065
 20
47.5268
 11
29.0439
 21
47.6558
  0
LINE
  8
0
 10
29.0439
 20
47.6558
 11
29.1963
 21
47.7665
  0
LINE
  8
0
 10
29.1963
 20
47.7665
 11
29.3613
 21
47.8573
  0
LINE
  8
0
 10
29.3613
 20
47.8573
 11
29.5365
 21
47.9266
  0
LINE
  8
0
 10
29.5365
 20
47.9266
 11
29.7189
 21
47.9734
  0
LINE
  8
0
 10
29.7189
 20
47.9734
 11
29.9058
 21
47.997
  0
LINE
  8
0
 10
29.9058
 20
47.997
 11
30.0942
 21
47.997
  0
LINE
  8
0
 10
30.0942
 20
47.997
 11
30.2811
 21
47.9734
  0
LINE
  8
0
 10
30.2811
 20
47.9734
 11
30.4635
 21
47.9266
  0
LINE
  8
0
 10
30.4635
 20
47.9266
 11
30.6387
 21
47.8573
  0
LINE
  8
0
 10
30.6387
 20
47.8573
 11
30.8037
 21
47.7665
  0
LINE
  8
0
 10
30.8037
 20
47.7665
 11
30.9561
 21
47.6558
  0
LINE
  8
0
 10
30.9561
 20
47.6558
 11
31.0934
 21
47.5268
  0
LINE
  8
0
 10
31.0934
 20
47.5268
 11
31.2135
 21
47.3817
  0
LINE
  8
0
 10
31.2135
 20
47.3817
 11
31.3145
 21
47.2226
  0
LINE
  8
0
 10
31.3145
 20
47.2226
 11
31.3947
 21
47.0522
  0
LINE
  8
0
 10
31.3947
 20
47.0522
 11
31.4529
 21
46.873
  0
LINE
  8
0
 10
31.4529
 20
46.873
 11
31.4882
 21
46.688
  0
LINE
  8
0
 10
31.4882
 20
46.688
 11
31.5
 21
46.5
  0
LINE
  8
0
 10
31.5
 20
46.5
 11
31.4882
 21
46.312
  0
LINE
  8
0
 10
31.4882
 20
46.312
 11
31.4529
 21
46.127
  0
LINE
  8
0
 10
31.4529
 20
46.127
 11
31.3947
 21
45.9478
  0
LINE
  8
0
 10
31.3947
 20
45.9478
 11
31.3145
 21
45.7774
  0
LINE
  8
0
 10
31.3145
 20
45.7774
 11
31.2135
 21
45.6183
  0
LINE
  8
0
 10
31.2135
 20
45.6183
 11
31.0934
 21
45.4732
  0
LINE
  8
0
 10
31.0934
 20
45.4732
 11
30.9561
 21
45.3442
  0
LINE
  8
0
 10
30.9561
 20
45.3442
 11
30.8037
 21
45.2335
  0
LINE
  8
0
 10
30.8037
 20
45.2335
 11
30.6387
 21
45.1428
  0
LINE
  8
0
 10
30.6387
 20
45.1428
 11
30.4635
 21
45.0734
  0
LINE
  8
0
 10
30.4635
 20
45.0734
 11
30.2811
 21
45.0266
  0
LINE
  8
0
 10
30.2811
 20
45.0266
 11
30.0942
 21
45.003
  0
LINE
  8
0
 10
30.0942
 20
45.003
 11
29.9058
 21
45.003
  0
LINE
  8
0
 10
14.9058
 20
45.003
 11
14.7189
 21
45.0266
  0
LINE
  8
0
 10
14.7189
 20
45.0266
 11
14.5365
 21
45.0734
  0
LINE
  8
0
 10
14.5365
 20
45.0734
 11
14.3613
 21
45.1428
  0
LINE
  8
0
 10
14.3613
 20
45.1428
 11
14.1963
 21
45.2335
  0
LINE
  8
0
 10
14.1963
 20
45.2335
 11
14.0439
 21
45.3442
  0
LINE
  8
0
 10
14.0439
 20
45.3442
 11
13.9065
 21
45.4732
  0
LINE
  8
0
 10
13.9065
 20
45.4732
 11
13.7865
 21
45.6183
  0
LINE
  8
0
 10
13.7865
 20
45.6183
 11
13.6855
 21
45.7774
  0
LINE
  8
0
 10
13.6855
 20
45.7774
 11
13.6053
 21
45.9478
  0
LINE
  8
0
 10
13.6053
 20
45.9478
 11
13.5471
 21
46.127
  0
LINE
  8
0
 10
13.5471
 20
46.127
 11
13.5118
 21
46.312
  0
LINE
  8
0
 10
13.5118
 20
46.312
 11
13.5
 21
46.5
  0
LINE
  8
0
 10
13.5
 20
46.5
 11
13.5118
 21
46.688
  0
LINE
  8
0
 10
13.5118
 20
46.688
 11
13.5471
 21
46.873
  0
LINE
  8
0
 10
13.5471
 20
46.873
 11
13.6053
 21
47.0522
  0
LINE
  8
0
 10
13.6053
 20
47.0522
 11
13.6855
 21
47.2226
  0
LINE
  8
0
 10
13.6855
 20
47.2226
 11
13.7865
 21
47.3817
  0
LINE
  8
0
 10
13.7865
 20
47.3817
 11
13.9065
 21
47.5268
  0
LINE
  8
0
 10
13.9065
 20
47.5268
 11
14.0439
 21
47.6558
  0
LINE
  8
0
 10
14.0439
 20
47.6558
 11
14.1963
 21
47.7665
  0
LINE
  8
0
 10
14.1963
 20
47.7665
 11
14.3613
 21
47.8573
  0
LINE
  8
0
 10
14.3613
 20
47.8573
 11
14.5365
 21
47.9266
  0
LINE
  8
0
 10
14.5365
 20
47.9266
 11
14.7189
 21
47.9734
  0
LINE
  8
0
 10
14.7189
 20
47.9734
 11
14.9058
 21
47.997
  0
LINE
  8
0
 10
14.9058
 20
47.997
 11
15.0942
 21
47.997
  0
LINE
  8
0
 10
15.0942
 20
47.997
 11
15.2811
 21
47.9734
  0
LINE
  8
0
 10
15.2811
 20
47.9734
 11
15.4635
 21
47.9266
  0
LINE
  8
0
 10
15.4635
 20
47.9266
 11
15.6387
 21
47.8573
  0
LINE
  8
0
 10
15.6387
 20
47.8573
 11
15.8037
 21
47.7665
  0
LINE
  8
0
 10
15.8037
 20
47.7665
 11
15.9561
 21
47.6558
  0
LINE
  8
0
 10
15.9561
 20
47.6558
 11
16.0934
 21
47.5268
  0
LINE
  8
0
 10
16.0934
 20
47.5268
 11
16.2135
 21
47.3817
  0
LINE
  8
0
 10
16.2135
 20
47.3817
 11
16.3145
 21
47.2226
  0
LINE
  8
0
 10
16.3145
 20
47.2226
 11
16.3947
 21
47.0522
  0
LINE
  8
0
 10
16.3947
 20
47.0522
 11
16.4529
 21
46.873
  0
LINE
  8
0
 10
16.4529
 20
46.873
 11
16.4882
 21
46.688
  0
LINE
  8
0
 10
16.4882
 20
46.688
 11
16.5
 21
46.5
  0
LINE
  8
0
 10
16.5
 20
46.5
 11
16.4882
 21
46.312
  0
LINE
  8
0
 10
16.4882
 20
46.312
 11
16.4529
 21
46.127
  0
LINE
  8
0
 10
16.4529
 20
46.127
 11
16.3947
 21
45.9478
  0
LINE
  8
0
 10
16.3947
 20
45.9478
 11
16.3145
 21
45.7774
  0
LINE
  8
0
 10
16.3145
 20
45.7774
 11
16.2135
 21
45.6183
  0
LINE
  8
0
 10
16.2135
 20
45.6183
 11
16.0934
 21
45.4732
  0
LINE
  8
0
 10
16.0934
 20
45.4732
 11
15.9561
 21
45.3442
  0
LINE
  8
0
 10
15.9561
 20
45.3442
 11
15.8037
 21
45.2335
  0
LINE
  8
0
 10
15.8037
 20
45.2335
 11
15.6387
 21
45.1428
  0
LINE
  8
0
 10
15.6387
 20
45.1428
 11
15.4635
 21
45.0734
  0
LINE
  8
0
 10
15.4635
 20
45.0734
 11
15.2811
 21
45.0266
  0
LINE
  8
0
 10
15.2811
 20
45.0266
 11
15.0942
 21
45.003
  0
LINE
  8
0
 10
15.0942
 20
45.003
 11
14.9058
 21
45.003
  0
LINE
  8
0
 10
44.9058
 20
45.003
 11
44.7189
 21
45.0266
  0
LINE
  8
0
 10
44.7189
 20
45.0266
 11
44.5365
 21
45.0734
  0
LINE
  8
0
 10
44.5365
 20
45.0734
 11
44.3613
 21
45.1428
  0
LINE
  8
0
 10
44.3613
 20
45.1428
 11
44.1963
 21
45.2335
  0
LINE
  8
0
 10
44.1963
 20
45.2335
 11
44.0439
 21
45.3442
  0
LINE
  8
0
 10
44.0439
 20
45.3442
 11
43.9065
 21
45.4732
  0
LINE
  8
0
 10
43.9065
 20
45.4732
 11
43.7865
 21
45.6183
  0
LINE
  8
0
 10
43.7865
 20
45.6183
 11
43.6855
 21
45.7774
  0
LINE
  8
0
 10
43.6855
 20
45.7774
 11
43.6053
 21
45.9478
  0
LINE
  8
0
 10
43.6053
 20
45.9478
 11
43.5471
 21
46.127
  0
LINE
  8
0
 10
43.5471
 20
46.127
 11
43.5118
 21
46.312
  0
LINE
  8
0
 10
43.5118
 20
46.312
 11
43.5
 21
46.5
  0
LINE
  8
0
 10
43.5
 20
46.5
 11
43.5118
 21
46.688
  0
LINE
  8
0
 10
43.5118
 20
46.688
 11
43.5471
 21
46.873
  0
LINE
  8
0
 10
43.5471
 20
46.873
 11
43.6053
 21
47.0522
  0
LINE
  8
0
 10
43.6053
 20
47.0522
 11
43.6855
 21
47.2226
  0
LINE
  8
0
 10
43.6855
 20
47.2226
 11
43.7865
 21
47.3817
  0
LINE
  8
0
 10
43.7865
 20
47.3817
 11
43.9065
 21
47.5268
  0
LINE
  8
0
 10
43.9065
 20
47.5268
 11
44.0439
 21
47.6558
  0
LINE
  8
0
 10
44.0439
 20
47.6558
 11
44.1963
 21
47.7665
  0
LINE
  8
0
 10
44.1963
 20
47.7665
 11
44.3613
 21
47.8573
  0
LINE
  8
0
 10
44.3613
 20
47.8573
 11
44.5365
 21
47.9266
  0
LINE
  8
0
 10
44.5365
 20
47.9266
 11
44.7189
 21
47.9734
  0
LINE
  8
0
 10
44.7189
 20
47.9734
 11
44.9058
 21
47.997
  0
LINE
  8
0
 10
44.9058
 20
47.997
 11
45.0942
 21
47.997
  0
LINE
  8
0
 10
45.0942
 20
47.997
 11
45.2811
 21
47.9734
  0
LINE
  8
0
 10
45.2811
 20
47.9734
 11
45.4635
 21
47.9266
  0
LINE
  8
0
 10
45.4635
 20
47.9266
 11
45.6387
 21
47.8573
  0
LINE
  8
0
 10
45.6387
 20
47.8573
 11
45.8037
 21
47.7665
  0
LINE
  8
0
 10
45.8037
 20
47.7665
 11
45.9561
 21
47.6558
  0
LINE
  8
0
 10
45.9561
 20
47.6558
 11
46.0934
 21
47.5268
  0
LINE
  8
0
 10
46.0934
 20
47.5268
 11
46.2135
 21
47.3817
  0
LINE
  8
0
 10
46.2135
 20
47.3817
 11
46.3145
 21
47.2226
  0
LINE
  8
0
 10
46.3145
 20
47.2226
 11
46.3947
 21
47.0522
  0
LINE
  8
0
 10
46.3947
 20
47.0522
 11
46.4529
 21
46.873
  0
LINE
  8
0
 10
46.4529
 20
46.873
 11
46.4882
 21
46.688
  0
LINE
  8
0
 10
46.4882
 20
46.688
 11
46.5
 21
46.5
  0
LINE
  8
0
 10
46.5
 20
46.5
 11
46.4882
 21
46.312
  0
LINE
  8
0
 10
46.4882
 20
46.312
 11
46.4529
 21
46.127
  0
LINE
  8
0
 10
46.4529
 20
46.127
 11
46.3947
 21
45.9478
  0
LINE
  8
0
 10
46.3947
 20
45.9478
 11
46.3145
 21
45.7774
  0
LINE
  8
0
 10
46.3145
 20
45.7774
 11
46.2135
 21
45.6183
  0
LINE
  8
0
 10
46.2135
 20
45.6183
 11
46.0934
 21
45.4732
  0
LINE
  8
0
 10
46.0934
 20
45.4732
 11
45.9561
 21
45.3442
  0
LINE
  8
0
 10
45.9561
 20
45.3442
 11
45.8037
 21
45.2335
  0
LINE
  8
0
 10
45.8037
 20
45.2335
 11
45.6387
 21
45.1428
  0
LINE
  8
0
 10
45.6387
 20
45.1428
 11
45.4635
 21
45.0734
  0
LINE
  8
0
 10
45.4635
 20
45.0734
 11
45.2811
 21
45.0266
  0
LINE
  8
0
 10
45.2811
 20
45.0266
 11
45.0942
 21
45.003
  0
LINE
  8
0
 10
45.0942
 20
45.003
 11
44.9058
 21
45.003
  0
LINE
  8
0
 10
-0.0941772
 20
45.003
 11
-0.281067
 21
45.0266
  0
LINE
  8
0
 10
-0.281067
 20
45.0266
 11
-0.463516
 21
45.0734
  0
LINE
  8
0
 10
-0.463516
 20
45.0734
 11
-0.638657
 21
45.1428
  0
LINE
  8
0
 10
-0.638657
 20
45.1428
 11
-0.803726
 21
45.2335
  0
LINE
  8
0
 10
-0.803726
 20
45.2335
 11
-0.956131
 21
45.3442
  0
LINE
  8
0
 10
-0.956131
 20
45.3442
 11
-1.09344
 21
45.4732
  0
LINE
  8
0
 10
-1.09344
 20
45.4732
 11
-1.21352
 21
45.6183
  0
LINE
  8
0
 10
-1.21352
 20
45.6183
 11
-1.31445
 21
45.7774
  0
LINE
  8
0
 10
-1.31445
 20
45.7774
 11
-1.39465
 21
45.9478
  0
LINE
  8
0
 10
-1.39465
 20
45.9478
 11
-1.45287
 21
46.127
  0
LINE
  8
0
 10
-1.45287
 20
46.127
 11
-1.48816
 21
46.312
  0
LINE
  8
0
 10
-1.48816
 20
46.312
 11
-1.5
 21
46.5
  0
LINE
  8
0
 10
-1.5
 20
46.5
 11
-1.48816
 21
46.688
  0
LINE
  8
0
 10
-1.48816
 20
46.688
 11
-1.45287
 21
46.873
  0
LINE
  8
0
 10
-1.45287
 20
46.873
 11
-1.39465
 21
47.0522
  0
LINE
  8
0
 10
-1.39465
 20
47.0522
 11
-1.31445
 21
47.2226
  0
LINE
  8
0
 10
-1.31445
 20
47.2226
 11
-1.21352
 21
47.3817
  0
LINE
  8
0
 10
-1.21352
 20
47.3817
 11
-1.09344
 21
47.5268
  0
LINE
  8
0
 10
-1.09344
 20
47.5268
 11
-0.956131
 21
47.6558
  0
LINE
  8
0
 10
-0.956131
 20
47.6558
 11
-0.803726
 21
47.7665
  0
LINE
  8
0
 10
-0.803726
 20
47.7665
 11
-0.638657
 21
47.8573
  0
LINE
  8
0
 10
-0.638657
 20
47.8573
 11
-0.463516
 21
47.9266
  0
LINE
  8
0
 10
-0.463516
 20
47.9266
 11
-0.281067
 21
47.9734
  0
LINE
  8
0
 10
-0.281067
 20
47.9734
 11
-0.0941772
 21
47.997
  0
LINE
  8
0
 10
-0.0941772
 20
47.997
 11
0.0941772
 21
47.997
  0
LINE
  8
0
 10
0.0941772
 20
47.997
 11
0.281067
 21
47.9734
  0
LINE
  8
0
 10
0.281067
 20
47.9734
 11
0.463516
 21
47.9266
  0
LINE
  8
0
 10
0.463516
 20
47.9266
 11
0.638657
 21
47.8573
  0
LINE
  8
0
 10
0.638657
 20
47.8573
 11
0.803726
 21
47.7665
  0
LINE
  8
0
 10
0.803726
 20
47.7665
 11
0.956131
 21
47.6558
  0
LINE
  8
0
 10
0.956131
 20
47.6558
 11
1.09344
 21
47.5268
  0
LINE
  8
0
 10
1.09344
 20
47.5268
 11
1.21352
 21
47.3817
  0
LINE
  8
0
 10
1.21352
 20
47.3817
 11
1.31445
 21
47.2226
  0
LINE
  8
0
 10
1.31445
 20
47.2226
 11
1.39465
 21
47.0522
  0
LINE
  8
0
 10
1.39465
 20
47.0522
 11
1.45287
 21
46.873
  0
LINE
  8
0
 10
1.45287
 20
46.873
 11
1.48816
 21
46.688
  0
LINE
  8
0
 10
1.48816
 20
46.688
 11
1.5
 21
46.5
  0
LINE
  8
0
 10
1.5
 20
46.5
 11
1.48816
 21
46.312
  0
LINE
  8
0
 10
1.48816
 20
46.312
 11
1.45287
 21
46.127
  0
LINE
  8
0
 10
1.45287
 20
46.127
 11
1.39465
 21
45.9478
  0
LINE
  8
0
 10
1.39465
 20
45.9478
 11
1.31445
 21
45.7774
  0
LINE
  8
0
 10
1.31445
 20
45.7774
 11
1.21352
 21
45.6183
  0
LINE
  8
0
 10
1.21352
 20
45.6183
 11
1.09344
 21
45.4732
  0
LINE
  8
0
 10
1.09344
 20
45.4732
 11
0.956131
 21
45.3442
  0
LINE
  8
0
 10
0.956131
 20
45.3442
 11
0.803726
 21
45.2335
  0
LINE
  8
0
 10
0.803726
 20
45.2335
 11
0.638657
 21
45.1428
  0
LINE
  8
0
 10
0.638657
 20
45.1428
 11
0.463516
 21
45.0734
  0
LINE
  8
0
 10
0.463516
 20
45.0734
 11
0.281067
 21
45.0266
  0
LINE
  8
0
 10
0.281067
 20
45.0266
 11
0.0941772
 21
45.003
  0
LINE
  8
0
 10
0.0941772
 20
45.003
 11
-0.0941772
 21
45.003
  0
LINE
  8
0
 10
-30.0942
 20
45.003
 11
-30.2811
 21
45.0266
  0
LINE
  8
0
 10
-30.2811
 20
45.0266
 11
-30.4635
 21
45.0734
  0
LINE
  8
0
 10
-30.4635
 20
45.0734
 11
-30.6387
 21
45.1428
  0
LINE
  8
0
 10
-30.6387
 20
45.1428
 11
-30.8037
 21
45.2335
  0
LINE
  8
0
 10
-30.8037
 20
45.2335
 11
-30.9561
 21
45.3442
  0
LINE
  8
0
 10
-30.9561
 20
45.3442
 11
-31.0934
 21
45.4732
  0
LINE
  8
0
 10
-31.0934
 20
45.4732
 11
-31.2135
 21
45.6183
  0
LINE
  8
0
 10
-31.2135
 20
45.6183
 11
-31.3145
 21
45.7774
  0
LINE
  8
0
 10
-31.3145
 20
45.7774
 11
-31.3947
 21
45.9478
  0
LINE
  8
0
 10
-31.3947
 20
45.9478
 11
-31.4529
 21
46.127
  0
LINE
  8
0
 10
-31.4529
 20
46.127
 11
-31.4882
 21
46.312
  0
LINE
  8
0
 10
-31.4882
 20
46.312
 11
-31.5
 21
46.5
  0
LINE
  8
0
 10
-31.5
 20
46.5
 11
-31.4882
 21
46.688
  0
LINE
  8
0
 10
-31.4882
 20
46.688
 11
-31.4529
 21
46.873
  0
LINE
  8
0
 10
-31.4529
 20
46.873
 11
-31.3947
 21
47.0522
  0
LINE
  8
0
 10
-31.3947
 20
47.0522
 11
-31.3145
 21
47.2226
  0
LINE
  8
0
 10
-31.3145
 20
47.2226
 11
-31.2135
 21
47.3817
  0
LINE
  8
0
 10
-31.2135
 20
47.3817
 11
-31.0934
 21
47.5268
  0
LINE
  8
0
 10
-31.0934
 20
47.5268
 11
-30.9561
 21
47.6558
  0
LINE
  8
0
 10
-30.9561
 20
47.6558
 11
-30.8037
 21
47.7665
  0
LINE
  8
0
 10
-30.8037
 20
47.7665
 11
-30.6387
 21
47.8573
  0
LINE
  8
0
 10
-30.6387
 20
47.8573
 11
-30.4635
 21
47.9266
  0
LINE
  8
0
 10
-30.4635
 20
47.9266
 11
-30.2811
 21
47.9734
  0
LINE
  8
0
 10
-30.2811
 20
47.9734
 11
-30.0942
 21
47.997
  0
LINE
  8
0
 10
-30.0942
 20
47.997
 11
-29.9058
 21
47.997
  0
LINE
  8
0
 10
-29.9058
 20
47.997
 11
-29.7189
 21
47.9734
  0
LINE
  8
0
 10
-29.7189
 20
47.9734
 11
-29.5365
 21
47.9266
  0
LINE
  8
0
 10
-29.5365
 20
47.9266
 11
-29.3613
 21
47.8573
  0
LINE
  8
0
 10
-29.3613
 20
47.8573
 11
-29.1963
 21
47.7665
  0
LINE
  8
0
 10
-29.1963
 20
47.7665
 11
-29.0439
 21
47.6558
  0
LINE
  8
0
 10
-29.0439
 20
47.6558
 11
-28.9065
 21
47.5268
  0
LINE
  8
0
 10
-28.9065
 20
47.5268
 11
-28.7865
 21
47.3817
  0
LINE
  8
0
 10
-28.7865
 20
47.3817
 11
-28.6855
 21
47.2226
  0
LINE
  8
0
 10
-28.6855
 20
47.2226
 11
-28.6053
 21
47.0522
  0
LINE
  8
0
 10
-28.6053
 20
47.0522
 11
-28.5471
 21
46.873
  0
LINE
  8
0
 10
-28.5471
 20
46.873
 11
-28.5118
 21
46.688
  0
LINE
  8
0
 10
-28.5118
 20
46.688
 11
-28.5
 21
46.5
  0
LINE
  8
0
 10
-28.5
 20
46.5
 11
-28.5118
 21
46.312
  0
LINE
  8
0
 10
-28.5118
 20
46.312
 11
-28.5471
 21
46.127
  0
LINE
  8
0
 10
-28.5471
 20
46.127
 11
-28.6053
 21
45.9478
  0
LINE
  8
0
 10
-28.6053
 20
45.9478
 11
-28.6855
 21
45.7774
  0
LINE
  8
0
 10
-28.6855
 20
45.7774
 11
-28.7865
 21
45.6183
  0
LINE
  8
0
 10
-28.7865
 20
45.6183
 11
-28.9065
 21
45.4732
  0
LINE
  8
0
 10
-28.9065
 20
45.4732
 11
-29.0439
 21
45.3442
  0
LINE
  8
0
 10
-29.0439
 20
45.3442
 11
-29.1963
 21
45.2335
  0
LINE
  8
0
 10
-29.1963
 20
45.2335
 11
-29.3613
 21
45.1428
  0
LINE
  8
0
 10
-29.3613
 20
45.1428
 11
-29.5365
 21
45.0734
  0
LINE
  8
0
 10
-29.5365
 20
45.0734
 11
-29.7189
 21
45.0266
  0
LINE
  8
0
 10
-29.7189
 20
45.0266
 11
-29.9058
 21
45.003
  0
LINE
  8
0
 10
-29.9058
 20
45.003
 11
-30.0942
 21
45.003
  0
LINE
  8
0
 10
-45.0942
 20
45.003
 11
-45.2811
 21
45.0266
  0
LINE
  8
0
 10
-45.2811
 20
45.0266
 11
-45.4635
 21
45.0734
  0
LINE
  8
0
 10
-45.4635
 20
45.0734
 11
-45.6387
 21
45.1428
  0
LINE
  8
0
 10
-45.6387
 20
45.1428
 11
-45.8037
 21
45.2335
  0
LINE
  8
0
 10
-45.8037
 20
45.2335
 11
-45.9561
 21
45.3442
  0
LINE
  8
0
 10
-45.9561
 20
45.3442
 11
-46.0934
 21
45.4732
  0
LINE
  8
0
 10
-46.0934
 20
45.4732
 11
-46.2135
 21
45.6183
  0
LINE
  8
0
 10
-46.2135
 20
45.6183
 11
-46.3145
 21
45.7774
  0
LINE
  8
0
 10
-46.3145
 20
45.7774
 11
-46.3947
 21
45.9478
  0
LINE
  8
0
 10
-46.3947
 20
45.9478
 11
-46.4529
 21
46.127
  0
LINE
  8
0
 10
-46.4529
 20
46.127
 11
-46.4882
 21
46.312
  0
LINE
  8
0
 10
-46.4882
 20
46.312
 11
-46.5
 21
46.5
  0
LINE
  8
0
 10
-46.5
 20
46.5
 11
-46.4882
 21
46.688
  0
LINE
  8
0
 10
-46.4882
 20
46.688
 11
-46.4529
 21
46.873
  0
LINE
  8
0
 10
-46.4529
 20
46.873
 11
-46.3947
 21
47.0522
  0
LINE
  8
0
 10
-46.3947
 20
47.0522
 11
-46.3145
 21
47.2226
  0
LINE
  8
0
 10
-46.3145
 20
47.2226
 11
-46.2135
 21
47.3817
  0
LINE
  8
0
 10
-46.2135
 20
47.3817
 11
-46.0934
 21
47.5268
  0
LINE
  8
0
 10
-46.0934
 20
47.5268
 11
-45.9561
 21
47.6558
  0
LINE
  8
0
 10
-45.9561
 20
47.6558
 11
-45.8037
 21
47.7665
  0
LINE
  8
0
 10
-45.8037
 20
47.7665
 11
-45.6387
 21
47.8573
  0
LINE
  8
0
 10
-45.6387
 20
47.8573
 11
-45.4635
 21
47.9266
  0
LINE
  8
0
 10
-45.4635
 20
47.9266
 11
-45.2811
 21
47.9734
  0
LINE
  8
0
 10
-45.2811
 20
47.9734
 11
-45.0942
 21
47.997
  0
LINE
  8
0
 10
-45.0942
 20
47.997
 11
-44.9058
 21
47.997
  0
LINE
  8
0
 10
-44.9058
 20
47.997
 11
-44.7189
 21
47.9734
  0
LINE
  8
0
 10
-44.7189
 20
47.9734
 11
-44.5365
 21
47.9266
  0
LINE
  8
0
 10
-44.5365
 20
47.9266
 11
-44.3613
 21
47.8573
  0
LINE
  8
0
 10
-44.3613
 20
47.8573
 11
-44.1963
 21
47.7665
  0
LINE
  8
0
 10
-44.1963
 20
47.7665
 11
-44.0439
 21
47.6558
  0
LINE
  8
0
 10
-44.0439
 20
47.6558
 11
-43.9065
 21
47.5268
  0
LINE
  8
0
 10
-43.9065
 20
47.5268
 11
-43.7865
 21
47.3817
  0
LINE
  8
0
 10
-43.7865
 20
47.3817
 11
-43.6855
 21
47.2226
  0
LINE
  8
0
 10
-43.6855
 20
47.2226
 11
-43.6053
 21
47.0522
  0
LINE
  8
0
 10
-43.6053
 20
47.0522
 11
-43.5471
 21
46.873
  0
LINE
  8
0
 10
-43.5471
 20
46.873
 11
-43.5118
 21
46.688
  0
LINE
  8
0
 10
-43.5118
 20
46.688
 11
-43.5
 21
46.5
  0
LINE
  8
0
 10
-43.5
 20
46.5
 11
-43.5118
 21
46.312
  0
LINE
  8
0
 10
-43.5118
 20
46.312
 11
-43.5471
 21
46.127
  0
LINE
  8
0
 10
-43.5471
 20
46.127
 11
-43.6053
 21
45.9478
  0
LINE
  8
0
 10
-43.6053
 20
45.9478
 11
-43.6855
 21
45.7774
  0
LINE
  8
0
 10
-43.6855
 20
45.7774
 11
-43.7865
 21
45.6183
  0
LINE
  8
0
 10
-43.7865
 20
45.6183
 11
-43.9065
 21
45.4732
  0
LINE
  8
0
 10
-43.9065
 20
45.4732
 11
-44.0439
 21
45.3442
  0
LINE
  8
0
 10
-44.0439
 20
45.3442
 11
-44.1963
 21
45.2335
  0
LINE
  8
0
 10
-44.1963
 20
45.2335
 11
-44.3613
 21
45.1428
  0
LINE
  8
0
 10
-44.3613
 20
45.1428
 11
-44.5365
 21
45.0734
  0
LINE
  8
0
 10
-44.5365
 20
45.0734
 11
-44.7189
 21
45.0266
  0
LINE
  8
0
 10
-44.7189
 20
45.0266
 11
-44.9058
 21
45.003
  0
LINE
  8
0
 10
-44.9058
 20
45.003
 11
-45.0942
 21
45.003
  0
LINE
  8
0
 10
-15.0942
 20
45.003
 11
-15.2811
 21
45.0266
  0
LINE
  8
0
 10
-15.2811
 20
45.0266
 11
-15.4635
 21
45.0734
  0
LINE
  8
0
 10
-15.4635
 20
45.0734
 11
-15.6387
 21
45.1428
  0
LINE
  8
0
 10
-15.6387
 20
45.1428
 11
-15.8037
 21
45.2335
  0
LINE
  8
0
 10
-15.8037
 20
45.2335
 11
-15.9561
 21
45.3442
  0
LINE
  8
0
 10
-15.9561
 20
45.3442
 11
-16.0934
 21
45.4732
  0
LINE
  8
0
 10
-16.0934
 20
45.4732
 11
-16.2135
 21
45.6183
  0
LINE
  8
0
 10
-16.2135
 20
45.6183
 11
-16.3145
 21
45.7774
  0
LINE
  8
0
 10
-16.3145
 20
45.7774
 11
-16.3947
 21
45.9478
  0
LINE
  8
0
 10
-16.3947
 20
45.9478
 11
-16.4529
 21
46.127
  0
LINE
  8
0
 10
-16.4529
 20
46.127
 11
-16.4882
 21
46.312
  0
LINE
  8
0
 10
-16.4882
 20
46.312
 11
-16.5
 21
46.5
  0
LINE
  8
0
 10
-16.5
 20
46.5
 11
-16.4882
 21
46.688
  0
LINE
  8
0
 10
-16.4882
 20
46.688
 11
-16.4529
 21
46.873
  0
LINE
  8
0
 10
-16.4529
 20
46.873
 11
-16.3947
 21
47.0522
  0
LINE
  8
0
 10
-16.3947
 20
47.0522
 11
-16.3145
 21
47.2226
  0
LINE
  8
0
 10
-16.3145
 20
47.2226
 11
-16.2135
 21
47.3817
  0
LINE
  8
0
 10
-16.2135
 20
47.3817
 11
-16.0934
 21
47.5268
  0
LINE
  8
0
 10
-16.0934
 20
47.5268
 11
-15.9561
 21
47.6558
  0
LINE
  8
0
 10
-15.9561
 20
47.6558
 11
-15.8037
 21
47.7665
  0
LINE
  8
0
 10
-15.8037
 20
47.7665
 11
-15.6387
 21
47.8573
  0
LINE
  8
0
 10
-15.6387
 20
47.8573
 11
-15.4635
 21
47.9266
  0
LINE
  8
0
 10
-15.4635
 20
47.9266
 11
-15.2811
 21
47.9734
  0
LINE
  8
0
 10
-15.2811
 20
47.9734
 11
-15.0942
 21
47.997
  0
LINE
  8
0
 10
-15.0942
 20
47.997
 11
-14.9058
 21
47.997
  0
LINE
  8
0
 10
-14.9058
 20
47.997
 11
-14.7189
 21
47.9734
  0
LINE
  8
0
 10
-14.7189
 20
47.9734
 11
-14.5365
 21
47.9266
  0
LINE
  8
0
 10
-14.5365
 20
47.9266
 11
-14.3613
 21
47.8573
  0
LINE
  8
0
 10
-14.3613
 20
47.8573
 11
-14.1963
 21
47.7665
  0
LINE
  8
0
 10
-14.1963
 20
47.7665
 11
-14.0439
 21
47.6558
  0
LINE
  8
0
 10
-14.0439
 20
47.6558
 11
-13.9065
 21
47.5268
  0
LINE
  8
0
 10
-13.9065
 20
47.5268
 11
-13.7865
 21
47.3817
  0
LINE
  8
0
 10
-13.7865
 20
47.3817
 11
-13.6855
 21
47.2226
  0
LINE
  8
0
 10
-13.6855
 20
47.2226
 11
-13.6053
 21
47.0522
  0
LINE
  8
0
 10
-13.6053
 20
47.0522
 11
-13.5471
 21
46.873
  0
LINE
  8
0
 10
-13.5471
 20
46.873
 11
-13.5118
 21
46.688
  0
LINE
  8
0
 10
-13.5118
 20
46.688
 11
-13.5
 21
46.5
  0
LINE
  8
0
 10
-13.5
 20
46.5
 11
-13.5118
 21
46.312
  0
LINE
  8
0
 10
-13.5118
 20
46.312
 11
-13.5471
 21
46.127
  0
LINE
  8
0
 10
-13.5471
 20
46.127
 11
-13.6053
 21
45.9478
  0
LINE
  8
0
 10
-13.6053
 20
45.9478
 11
-13.6855
 21
45.7774
  0
LINE
  8
0
 10
-13.6855
 20
45.7774
 11
-13.7865
 21
45.6183
  0
LINE
  8
0
 10
-13.7865
 20
45.6183
 11
-13.9065
 21
45.4732
  0
LINE
  8
0
 10
-13.9065
 20
45.4732
 11
-14.0439
 21
45.3442
  0
LINE
  8
0
 10
-14.0439
 20
45.3442
 11
-14.1963
 21
45.2335
  0
LINE
  8
0
 10
-14.1963
 20
45.2335
 11
-14.3613
 21
45.1428
  0
LINE
  8
0
 10
-14.3613
 20
45.1428
 11
-14.5365
 21
45.0734
  0
LINE
  8
0
 10
-14.5365
 20
45.0734
 11
-14.7189
 21
45.0266
  0
LINE
  8
0
 10
-14.7189
 20
45.0266
 11
-14.9058
 21
45.003
  0
LINE
  8
0
 10
-14.9058
 20
45.003
 11
-15.0942
 21
45.003
  0
ENDSEC
  0
SECTION
  2
OBJECTS
  0
DICTIONARY
  0
ENDSEC
  0
EOF
