<?xml version="1.0" standalone="no"?>
<!DOCTYPE svg PUBLIC "-//W3C//DTD SVG 1.1//EN" "http://www.w3.org/Graphics/SVG/1.1/DTD/svg11.dtd">
<svg width="420mm" height="90mm" viewBox="-210 -45 420 90" xmlns="http://www.w3.org/2000/svg" version="1.1">
<title>OpenSCAD Model</title>
<path d="
M 205.437,44.4114 L 206.045,44.2553 L 206.629,44.0241 L 207.179,43.7216 L 207.687,43.3526 L 208.145,42.9227
 L 208.545,42.4389 L 208.882,41.9088 L 209.149,41.3406 L 209.343,40.7434 L 209.461,40.1267 L 209.5,39.5
 L 209.5,-39.5 L 209.461,-40.1267 L 209.343,-40.7434 L 209.149,-41.3406 L 208.882,-41.9088 L 208.545,-42.4389
 L 208.145,-42.9227 L 207.687,-43.3526 L 207.179,-43.7216 L 206.629,-44.0241 L 206.045,-44.2553 L 205.437,-44.4114
 L 204.814,-44.4901 L -204.814,-44.4901 L -205.437,-44.4114 L -206.045,-44.2553 L -206.629,-44.0241 L -207.179,-43.7216
 L -207.687,-43.3526 L -208.145,-42.9227 L -208.545,-42.4389 L -208.882,-41.9088 L -209.149,-41.3406 L -209.343,-40.7434
 L -209.461,-40.1267 L -209.5,-39.5 L -209.5,39.5 L -209.461,40.1267 L -209.343,40.7434 L -209.149,41.3406
 L -208.882,41.9088 L -208.545,42.4389 L -208.145,42.9227 L -207.687,43.3526 L -207.179,43.7216 L -206.629,44.0241
 L -206.045,44.2553 L -205.437,44.4114 L -204.814,44.4901 L 204.814,44.4901 z
M -202.688,-34.5059 L -203.062,-34.5531 L -203.427,-34.6468 L -203.777,-34.7855 L -204.107,-34.967 L -204.412,-35.1885
 L -204.687,-35.4464 L -204.927,-35.7366 L -205.129,-36.0547 L -205.289,-36.3956 L -205.406,-36.7539 L -205.476,-37.124
 L -205.5,-37.5 L -205.476,-37.876 L -205.406,-38.2461 L -205.289,-38.6044 L -205.129,-38.9453 L -204.927,-39.2634
 L -204.687,-39.5536 L -204.412,-39.8115 L -204.107,-40.033 L -203.777,-40.2145 L -203.427,-40.3532 L -203.062,-40.4469
 L -202.688,-40.4941 L -202.312,-40.4941 L -201.938,-40.4469 L -201.573,-40.3532 L -201.223,-40.2145 L -200.893,-40.033
 L -200.588,-39.8115 L -200.313,-39.5536 L -200.073,-39.2634 L -199.871,-38.9453 L -199.711,-38.6044 L -199.594,-38.2461
 L -199.524,-37.876 L -199.5,-37.5 L -199.524,-37.124 L -199.594,-36.7539 L -199.711,-36.3956 L -199.871,-36.0547
 L -200.073,-35.7366 L -200.313,-35.4464 L -200.588,-35.1885 L -200.893,-34.967 L -201.223,-34.7855 L -201.573,-34.6468
 L -201.938,-34.5531 L -202.312,-34.5059 z
M 202.312,-34.5059 L 201.938,-34.5531 L 201.573,-34.6468 L 201.223,-34.7855 L 200.893,-34.967 L 200.588,-35.1885
 L 200.313,-35.4464 L 200.073,-35.7366 L 199.871,-36.0547 L 199.711,-36.3956 L 199.594,-36.7539 L 199.524,-37.124
 L 199.5,-37.5 L 199.524,-37.876 L 199.594,-38.2461 L 199.711,-38.6044 L 199.871,-38.9453 L 200.073,-39.2634
 L 200.313,-39.5536 L 200.588,-39.8115 L 200.893,-40.033 L 201.223,-40.2145 L 201.573,-40.3532 L 201.938,-40.4469
 L 202.312,-40.4941 L 202.688,-40.4941 L 203.062,-40.4469 L 203.427,-40.3532 L 203.777,-40.2145 L 204.107,-40.033
 L 204.412,-39.8115 L 204.687,-39.5536 L 204.927,-39.2634 L 205.129,-38.9453 L 205.289,-38.6044 L 205.406,-38.2461
 L 205.476,-37.876 L 205.5,-37.5 L 205.476,-37.124 L 205.406,-36.7539 L 205.289,-36.3956 L 205.129,-36.0547
 L 204.927,-35.7366 L 204.687,-35.4464 L 204.412,-35.1885 L 204.107,-34.967 L 203.777,-34.7855 L 203.427,-34.6468
 L 203.062,-34.5531 L 202.688,-34.5059 z
M 159.614,37.925 L 154.88,37.3269 L 150.257,36.1401 L 145.82,34.3834 L 141.639,32.0845 L 137.778,29.2795
 L 134.299,26.0128 L 131.257,22.3358 L 128.7,18.3066 L 126.668,13.9887 L 125.194,9.45021 L 124.3,4.76265
 L 124,-0 L 124.3,-4.76265 L 125.194,-9.45021 L 126.668,-13.9887 L 128.7,-18.3066 L 131.257,-22.3358
 L 134.299,-26.0128 L 137.778,-29.2795 L 141.639,-32.0845 L 145.82,-34.3834 L 150.257,-36.1401 L 154.88,-37.3269
 L 159.614,-37.925 L 164.386,-37.925 L 169.12,-37.3269 L 173.743,-36.1401 L 178.18,-34.3834 L 182.361,-32.0845
 L 186.222,-29.2795 L 189.701,-26.0128 L 192.743,-22.3358 L 195.3,-18.3066 L 197.332,-13.9887 L 198.806,-9.45021
 L 199.7,-4.76265 L 200,-0 L 199.7,4.76265 L 198.806,9.45021 L 197.332,13.9887 L 195.3,18.3066
 L 192.743,22.3358 L 189.701,26.0128 L 186.222,29.2795 L 182.361,32.0845 L 178.18,34.3834 L 173.743,36.1401
 L 169.12,37.3269 L 164.386,37.925 z
M -83.386,37.925 L -88.1205,37.3269 L -92.7426,36.1401 L -97.1796,34.3834 L -101.361,32.0845 L -105.222,29.2795
 L -108.701,26.0128 L -111.743,22.3358 L -114.3,18.3066 L -116.331,13.9887 L -117.806,9.45021 L -118.7,4.76265
 L -119,-0 L -118.7,-4.76265 L -117.806,-9.45021 L -116.331,-13.9887 L -114.3,-18.3066 L -111.743,-22.3358
 L -108.701,-26.0128 L -105.222,-29.2795 L -101.361,-32.0845 L -97.1796,-34.3834 L -92.7426,-36.1401 L -88.1205,-37.3269
 L -83.386,-37.925 L -78.614,-37.925 L -73.8795,-37.3269 L -69.2574,-36.1401 L -64.8204,-34.3834 L -60.6386,-32.0845
 L -56.7779,-29.2795 L -53.2992,-26.0128 L -50.2574,-22.3358 L -47.7003,-18.3066 L -45.6685,-13.9887 L -44.1938,-9.45021
 L -43.2996,-4.76265 L -43,-0 L -43.2996,4.76265 L -44.1938,9.45021 L -45.6685,13.9887 L -47.7003,18.3066
 L -50.2574,22.3358 L -53.2992,26.0128 L -56.7779,29.2795 L -60.6386,32.0845 L -64.8204,34.3834 L -69.2574,36.1401
 L -73.8795,37.3269 L -78.614,37.925 z
M 78.614,37.925 L 73.8795,37.3269 L 69.2574,36.1401 L 64.8204,34.3834 L 60.6386,32.0845 L 56.7779,29.2795
 L 53.2992,26.0128 L 50.2574,22.3358 L 47.7003,18.3066 L 45.6685,13.9887 L 44.1938,9.45021 L 43.2996,4.76265
 L 43,-0 L 43.2996,-4.76265 L 44.1938,-9.45021 L 45.6685,-13.9887 L 47.7003,-18.3066 L 50.2574,-22.3358
 L 53.2992,-26.0128 L 56.7779,-29.2795 L 60.6386,-32.0845 L 64.8204,-34.3834 L 69.2574,-36.1401 L 73.8795,-37.3269
 L 78.614,-37.925 L 83.386,-37.925 L 88.1205,-37.3269 L 92.7426,-36.1401 L 97.1796,-34.3834 L 101.361,-32.0845
 L 105.222,-29.2795 L 108.701,-26.0128 L 111.743,-22.3358 L 114.3,-18.3066 L 116.331,-13.9887 L 117.806,-9.45021
 L 118.7,-4.76265 L 119,-0 L 118.7,4.76265 L 117.806,9.45021 L 116.331,13.9887 L 114.3,18.3066
 L 111.743,22.3358 L 108.701,26.0128 L 105.222,29.2795 L 101.361,32.0845 L 97.1796,34.3834 L 92.7426,36.1401
 L 88.1205,37.3269 L 83.386,37.925 z
M -2.38603,37.925 L -7.12048,37.3269 L -11.7426,36.1401 L -16.1796,34.3834 L -20.3614,32.0845 L -24.2221,29.2795
 L -27.7008,26.0128 L -30.7426,22.3358 L -33.2997,18.3066 L -35.3315,13.9887 L -36.8062,9.45021 L -37.7003,4.76265
 L -38,-0 L -37.7003,-4.76265 L -36.8062,-9.45021 L -35.3315,-13.9887 L -33.2997,-18.3066 L -30.7426,-22.3358
 L -27.7008,-26.0128 L -24.2221,-29.2795 L -20.3614,-32.0845 L -16.1796,-34.3834 L -11.7426,-36.1401 L -7.12048,-37.3269
 L -2.38603,-37.925 L 2.38603,-37.925 L 7.12048,-37.3269 L 11.7426,-36.1401 L 16.1796,-34.3834 L 20.3614,-32.0845
 L 24.2221,-29.2795 L 27.7008,-26.0128 L 30.7426,-22.3358 L 33.2997,-18.3066 L 35.3315,-13.9887 L 36.8062,-9.45021
 L 37.7003,-4.76265 L 38,-0 L 37.7003,4.76265 L 36.8062,9.45021 L 35.3315,13.9887 L 33.2997,18.3066
 L 30.7426,22.3358 L 27.7008,26.0128 L 24.2221,29.2795 L 20.3614,32.0845 L 16.1796,34.3834 L 11.7426,36.1401
 L 7.12048,37.3269 L 2.38603,37.925 z
M -164.386,37.925 L -169.12,37.3269 L -173.743,36.1401 L -178.18,34.3834 L -182.361,32.0845 L -186.222,29.2795
 L -189.701,26.0128 L -192.743,22.3358 L -195.3,18.3066 L -197.332,13.9887 L -198.806,9.45021 L -199.7,4.76265
 L -200,-0 L -199.7,-4.76265 L -198.806,-9.45021 L -197.332,-13.9887 L -195.3,-18.3066 L -192.743,-22.3358
 L -189.701,-26.0128 L -186.222,-29.2795 L -182.361,-32.0845 L -178.18,-34.3834 L -173.743,-36.1401 L -169.12,-37.3269
 L -164.386,-37.925 L -159.614,-37.925 L -154.88,-37.3269 L -150.257,-36.1401 L -145.82,-34.3834 L -141.639,-32.0845
 L -137.778,-29.2795 L -134.299,-26.0128 L -131.257,-22.3358 L -128.7,-18.3066 L -126.668,-13.9887 L -125.194,-9.45021
 L -124.3,-4.76265 L -124,-0 L -124.3,4.76265 L -125.194,9.45021 L -126.668,13.9887 L -128.7,18.3066
 L -131.257,22.3358 L -134.299,26.0128 L -137.778,29.2795 L -141.639,32.0845 L -145.82,34.3834 L -150.257,36.1401
 L -154.88,37.3269 L -159.614,37.925 z
M 202.312,40.4941 L 201.938,40.4469 L 201.573,40.3532 L 201.223,40.2145 L 200.893,40.033 L 200.588,39.8115
 L 200.313,39.5536 L 200.073,39.2634 L 199.871,38.9453 L 199.711,38.6044 L 199.594,38.2461 L 199.524,37.876
 L 199.5,37.5 L 199.524,37.124 L 199.594,36.7539 L 199.711,36.3956 L 199.871,36.0547 L 200.073,35.7366
 L 200.313,35.4464 L 200.588,35.1885 L 200.893,34.967 L 201.223,34.7855 L 201.573,34.6468 L 201.938,34.5531
 L 202.312,34.5059 L 202.688,34.5059 L 203.062,34.5531 L 203.427,34.6468 L 203.777,34.7855 L 204.107,34.967
 L 204.412,35.1885 L 204.687,35.4464 L 204.927,35.7366 L 205.129,36.0547 L 205.289,36.3956 L 205.406,36.7539
 L 205.476,37.124 L 205.5,37.5 L 205.476,37.876 L 205.406,38.2461 L 205.289,38.6044 L 205.129,38.9453
 L 204.927,39.2634 L 204.687,39.5536 L 204.412,39.8115 L 204.107,40.033 L 203.777,40.2145 L 203.427,40.3532
 L 203.062,40.4469 L 202.688,40.4941 z
M -202.688,40.4941 L -203.062,40.4469 L -203.427,40.3532 L -203.777,40.2145 L -204.107,40.033 L -204.412,39.8115
 L -204.687,39.5536 L -204.927,39.2634 L -205.129,38.9453 L -205.289,38.6044 L -205.406,38.2461 L -205.476,37.876
 L -205.5,37.5 L -205.476,37.124 L -205.406,36.7539 L -205.289,36.3956 L -205.129,36.0547 L -204.927,35.7366
 L -204.687,35.4464 L -204.412,35.1885 L -204.107,34.967 L -203.777,34.7855 L -203.427,34.6468 L -203.062,34.5531
 L -202.688,34.5059 L -202.312,34.5059 L -201.938,34.5531 L -201.573,34.6468 L -201.223,34.7855 L -200.893,34.967
 L -200.588,35.1885 L -200.313,35.4464 L -200.073,35.7366 L -199.871,36.0547 L -199.711,36.3956 L -199.594,36.7539
 L -199.524,37.124 L -199.5,37.5 L -199.524,37.876 L -199.594,38.2461 L -199.711,38.6044 L -199.871,38.9453
 L -200.073,39.2634 L -200.313,39.5536 L -200.588,39.8115 L -200.893,40.033 L -201.223,40.2145 L -201.573,40.3532
 L -201.938,40.4469 L -202.312,40.4941 z
" stroke="black" fill="lightgray" stroke-width="0.5"/>
</svg>
