<?xml version="1.0" standalone="no"?>
<!DOCTYPE svg PUBLIC "-//W3C//DTD SVG 1.1//EN" "http://www.w3.org/Graphics/SVG/1.1/DTD/svg11.dtd">
<svg width="74mm" height="14mm" viewBox="-37 -7 74 14" xmlns="http://www.w3.org/2000/svg" version="1.1">
<title>OpenSCAD Model</title>
<path d="
M 32.9369,6.91142 L 33.5451,6.75528 L 34.1289,6.52412 L 34.6791,6.22163 L 35.1871,5.85255 L 35.6448,5.42273
 L 36.0451,4.93892 L 36.3815,4.40877 L 36.6489,3.84062 L 36.8429,3.24344 L 36.9606,2.62666 L 37,2
 L 37,-2 L 36.9606,-2.62666 L 36.8429,-3.24344 L 36.6489,-3.84062 L 36.3815,-4.40877 L 36.0451,-4.93892
 L 35.6448,-5.42273 L 35.1871,-5.85255 L 34.6791,-6.22163 L 34.1289,-6.52412 L 33.5451,-6.75528 L 32.9369,-6.91142
 L 32.3139,-6.99013 L -32.3139,-6.99013 L -32.9369,-6.91142 L -33.5451,-6.75528 L -34.1289,-6.52412 L -34.6791,-6.22163
 L -35.1871,-5.85255 L -35.6448,-5.42273 L -36.0451,-4.93892 L -36.3815,-4.40877 L -36.6489,-3.84062 L -36.8429,-3.24344
 L -36.9606,-2.62666 L -37,-2 L -37,2 L -36.9606,2.62666 L -36.8429,3.24344 L -36.6489,3.84062
 L -36.3815,4.40877 L -36.0451,4.93892 L -35.6448,5.42273 L -35.1871,5.85255 L -34.6791,6.22163 L -34.1289,6.52412
 L -33.5451,6.75528 L -32.9369,6.91142 L -32.3139,6.99013 L 32.3139,6.99013 z
M 12.7488,3.9921 L 12.2505,3.92914 L 11.7639,3.80421 L 11.2969,3.61929 L 10.8567,3.3773 L 10.4503,3.08205
 L 10.0841,2.73817 L 9.76393,2.35114 L 9.49477,1.927 L 9.28088,1.47249 L 9.12566,0.994751 L 9.03154,0.501328
 L 9,-0 L 9.03154,-0.501328 L 9.12566,-0.994751 L 9.28088,-1.47249 L 9.49477,-1.927 L 9.76393,-2.35114
 L 10.0841,-2.73817 L 10.4503,-3.08205 L 10.8567,-3.3773 L 11.2969,-3.61929 L 11.7639,-3.80421 L 12.2505,-3.92914
 L 12.7488,-3.9921 L 13.2512,-3.9921 L 13.7495,-3.92914 L 14.2361,-3.80421 L 14.7031,-3.61929 L 15.1433,-3.3773
 L 15.5497,-3.08205 L 15.9159,-2.73817 L 16.2361,-2.35114 L 16.5052,-1.927 L 16.7191,-1.47249 L 16.8743,-0.994751
 L 16.9684,-0.501328 L 17,-0 L 16.9684,0.501328 L 16.8743,0.994751 L 16.7191,1.47249 L 16.5052,1.927
 L 16.2361,2.35114 L 15.9159,2.73817 L 15.5497,3.08205 L 15.1433,3.3773 L 14.7031,3.61929 L 14.2361,3.80421
 L 13.7495,3.92914 L 13.2512,3.9921 z
M 25.7488,3.9921 L 25.2505,3.92914 L 24.7639,3.80421 L 24.2969,3.61929 L 23.8567,3.3773 L 23.4503,3.08205
 L 23.0841,2.73817 L 22.7639,2.35114 L 22.4948,1.927 L 22.2809,1.47249 L 22.1257,0.994751 L 22.0315,0.501328
 L 22,-0 L 22.0315,-0.501328 L 22.1257,-0.994751 L 22.2809,-1.47249 L 22.4948,-1.927 L 22.7639,-2.35114
 L 23.0841,-2.73817 L 23.4503,-3.08205 L 23.8567,-3.3773 L 24.2969,-3.61929 L 24.7639,-3.80421 L 25.2505,-3.92914
 L 25.7488,-3.9921 L 26.2512,-3.9921 L 26.7495,-3.92914 L 27.2361,-3.80421 L 27.7031,-3.61929 L 28.1433,-3.3773
 L 28.5497,-3.08205 L 28.8763,-2.77531 L 29.0729,-2.85316 L 29.4379,-2.94685 L 29.8116,-2.99408 L 30.1884,-2.99408
 L 30.5621,-2.94685 L 30.927,-2.85316 L 31.2773,-2.71448 L 31.6075,-2.53297 L 31.9123,-2.31154 L 32.1869,-2.05363
 L 32.427,-1.76335 L 32.6289,-1.44525 L 32.7893,-1.10437 L 32.9057,-0.746063 L 32.9763,-0.375992 L 33,-0
 L 32.9763,0.375992 L 32.9057,0.746063 L 32.7893,1.10437 L 32.6289,1.44525 L 32.427,1.76335 L 32.1869,2.05363
 L 31.9123,2.31154 L 31.6075,2.53297 L 31.2773,2.71448 L 30.927,2.85316 L 30.5621,2.94685 L 30.1884,2.99408
 L 29.8116,2.99408 L 29.4379,2.94685 L 29.0729,2.85316 L 28.8763,2.77531 L 28.5497,3.08205 L 28.1433,3.3773
 L 27.7031,3.61929 L 27.2361,3.80421 L 26.7495,3.92914 L 26.2512,3.9921 z
M -13.2512,3.9921 L -13.7495,3.92914 L -14.2361,3.80421 L -14.7031,3.61929 L -15.1433,3.3773 L -15.5497,3.08205
 L -15.9159,2.73817 L -16.2361,2.35114 L -16.5052,1.927 L -16.7191,1.47249 L -16.8743,0.994751 L -16.9684,0.501328
 L -17,-0 L -16.9684,-0.501328 L -16.8743,-0.994751 L -16.7191,-1.47249 L -16.5052,-1.927 L -16.2361,-2.35114
 L -15.9159,-2.73817 L -15.5497,-3.08205 L -15.1433,-3.3773 L -14.7031,-3.61929 L -14.2361,-3.80421 L -13.7495,-3.92914
 L -13.2512,-3.9921 L -12.7488,-3.9921 L -12.2505,-3.92914 L -11.7639,-3.80421 L -11.2969,-3.61929 L -10.8567,-3.3773
 L -10.4503,-3.08205 L -10.0841,-2.73817 L -9.76393,-2.35114 L -9.49477,-1.927 L -9.28088,-1.47249 L -9.12566,-0.994751
 L -9.03154,-0.501328 L -9,-0 L -9.03154,0.501328 L -9.12566,0.994751 L -9.28088,1.47249 L -9.49477,1.927
 L -9.76393,2.35114 L -10.0841,2.73817 L -10.4503,3.08205 L -10.8567,3.3773 L -11.2969,3.61929 L -11.7639,3.80421
 L -12.2505,3.92914 L -12.7488,3.9921 z
M -0.25116,3.9921 L -0.749512,3.92914 L -1.23605,3.80421 L -1.70311,3.61929 L -2.1433,3.3773 L -2.54968,3.08205
 L -2.91586,2.73817 L -3.23605,2.35114 L -3.50522,1.927 L -3.7191,1.47249 L -3.87433,0.994751 L -3.96844,0.501328
 L -4,-0 L -3.96844,-0.501328 L -3.87433,-0.994751 L -3.7191,-1.47249 L -3.50522,-1.927 L -3.23605,-2.35114
 L -2.91586,-2.73817 L -2.54968,-3.08205 L -2.1433,-3.3773 L -1.70311,-3.61929 L -1.23605,-3.80421 L -0.749512,-3.92914
 L -0.25116,-3.9921 L 0.25116,-3.9921 L 0.749512,-3.92914 L 1.23605,-3.80421 L 1.70311,-3.61929 L 2.1433,-3.3773
 L 2.54968,-3.08205 L 2.91586,-2.73817 L 3.23605,-2.35114 L 3.50522,-1.927 L 3.7191,-1.47249 L 3.87433,-0.994751
 L 3.96844,-0.501328 L 4,-0 L 3.96844,0.501328 L 3.87433,0.994751 L 3.7191,1.47249 L 3.50522,1.927
 L 3.23605,2.35114 L 2.91586,2.73817 L 2.54968,3.08205 L 2.1433,3.3773 L 1.70311,3.61929 L 1.23605,3.80421
 L 0.749512,3.92914 L 0.25116,3.9921 z
M -26.2512,3.9921 L -26.7495,3.92914 L -27.2361,3.80421 L -27.7031,3.61929 L -28.1433,3.3773 L -28.5497,3.08205
 L -28.8763,2.77531 L -29.0729,2.85316 L -29.4379,2.94685 L -29.8116,2.99408 L -30.1884,2.99408 L -30.5621,2.94685
 L -30.927,2.85316 L -31.2773,2.71448 L -31.6075,2.53297 L -31.9123,2.31154 L -32.1869,2.05363 L -32.427,1.76335
 L -32.6289,1.44525 L -32.7893,1.10437 L -32.9057,0.746063 L -32.9763,0.375992 L -33,-0 L -32.9763,-0.375992
 L -32.9057,-0.746063 L -32.7893,-1.10437 L -32.6289,-1.44525 L -32.427,-1.76335 L -32.1869,-2.05363 L -31.9123,-2.31154
 L -31.6075,-2.53297 L -31.2773,-2.71448 L -30.927,-2.85316 L -30.5621,-2.94685 L -30.1884,-2.99408 L -29.8116,-2.99408
 L -29.4379,-2.94685 L -29.0729,-2.85316 L -28.8763,-2.77531 L -28.5497,-3.08205 L -28.1433,-3.3773 L -27.7031,-3.61929
 L -27.2361,-3.80421 L -26.7495,-3.92914 L -26.2512,-3.9921 L -25.7488,-3.9921 L -25.2505,-3.92914 L -24.7639,-3.80421
 L -24.2969,-3.61929 L -23.8567,-3.3773 L -23.4503,-3.08205 L -23.0841,-2.73817 L -22.7639,-2.35114 L -22.4948,-1.927
 L -22.2809,-1.47249 L -22.1257,-0.994751 L -22.0315,-0.501328 L -22,-0 L -22.0315,0.501328 L -22.1257,0.994751
 L -22.2809,1.47249 L -22.4948,1.927 L -22.7639,2.35114 L -23.0841,2.73817 L -23.4503,3.08205 L -23.8567,3.3773
 L -24.2969,3.61929 L -24.7639,3.80421 L -25.2505,3.92914 L -25.7488,3.9921 z
" stroke="black" fill="lightgray" stroke-width="0.5"/>
</svg>
