  0
SECTION
  2
BLOCKS
  0
ENDSEC
  0
SECTION
  2
ENTITIES
  0
LINE
  8
0
 10
25.4369
 20
-14.4114
 11
26.0451
 21
-14.2553
  0
LINE
  8
0
 10
26.0451
 20
-14.2553
 11
26.6289
 21
-14.0241
  0
LINE
  8
0
 10
26.6289
 20
-14.0241
 11
27.1791
 21
-13.7216
  0
LINE
  8
0
 10
27.1791
 20
-13.7216
 11
27.6871
 21
-13.3526
  0
LINE
  8
0
 10
27.6871
 20
-13.3526
 11
28.1448
 21
-12.9227
  0
LINE
  8
0
 10
28.1448
 20
-12.9227
 11
28.5451
 21
-12.4389
  0
LINE
  8
0
 10
28.5451
 20
-12.4389
 11
28.8815
 21
-11.9088
  0
LINE
  8
0
 10
28.8815
 20
-11.9088
 11
29.1489
 21
-11.3406
  0
LINE
  8
0
 10
29.1489
 20
-11.3406
 11
29.3429
 21
-10.7434
  0
LINE
  8
0
 10
29.3429
 20
-10.7434
 11
29.4606
 21
-10.1267
  0
LINE
  8
0
 10
29.4606
 20
-10.1267
 11
29.5
 21
-9.5
  0
LINE
  8
0
 10
29.5
 20
-9.5
 11
29.5
 21
9.5
  0
LINE
  8
0
 10
29.5
 20
9.5
 11
29.4606
 21
10.1267
  0
LINE
  8
0
 10
29.4606
 20
10.1267
 11
29.3429
 21
10.7434
  0
LINE
  8
0
 10
29.3429
 20
10.7434
 11
29.1489
 21
11.3406
  0
LINE
  8
0
 10
29.1489
 20
11.3406
 11
28.8815
 21
11.9088
  0
LINE
  8
0
 10
28.8815
 20
11.9088
 11
28.5451
 21
12.4389
  0
LINE
  8
0
 10
28.5451
 20
12.4389
 11
28.1448
 21
12.9227
  0
LINE
  8
0
 10
28.1448
 20
12.9227
 11
27.6871
 21
13.3526
  0
LINE
  8
0
 10
27.6871
 20
13.3526
 11
27.1791
 21
13.7216
  0
LINE
  8
0
 10
27.1791
 20
13.7216
 11
26.6289
 21
14.0241
  0
LINE
  8
0
 10
26.6289
 20
14.0241
 11
26.0451
 21
14.2553
  0
LINE
  8
0
 10
26.0451
 20
14.2553
 11
25.4369
 21
14.4114
  0
LINE
  8
0
 10
25.4369
 20
14.4114
 11
24.8139
 21
14.4901
  0
LINE
  8
0
 10
24.8139
 20
14.4901
 11
-24.8139
 21
14.4901
  0
LINE
  8
0
 10
-24.8139
 20
14.4901
 11
-25.4369
 21
14.4114
  0
LINE
  8
0
 10
-25.4369
 20
14.4114
 11
-26.0451
 21
14.2553
  0
LINE
  8
0
 10
-26.0451
 20
14.2553
 11
-26.6289
 21
14.0241
  0
LINE
  8
0
 10
-26.6289
 20
14.0241
 11
-27.1791
 21
13.7216
  0
LINE
  8
0
 10
-27.1791
 20
13.7216
 11
-27.6871
 21
13.3526
  0
LINE
  8
0
 10
-27.6871
 20
13.3526
 11
-28.1448
 21
12.9227
  0
LINE
  8
0
 10
-28.1448
 20
12.9227
 11
-28.5451
 21
12.4389
  0
LINE
  8
0
 10
-28.5451
 20
12.4389
 11
-28.8815
 21
11.9088
  0
LINE
  8
0
 10
-28.8815
 20
11.9088
 11
-29.1489
 21
11.3406
  0
LINE
  8
0
 10
-29.1489
 20
11.3406
 11
-29.3429
 21
10.7434
  0
LINE
  8
0
 10
-29.3429
 20
10.7434
 11
-29.4606
 21
10.1267
  0
LINE
  8
0
 10
-29.4606
 20
10.1267
 11
-29.5
 21
9.5
  0
LINE
  8
0
 10
-29.5
 20
9.5
 11
-29.5
 21
-9.5
  0
LINE
  8
0
 10
-29.5
 20
-9.5
 11
-29.4606
 21
-10.1267
  0
LINE
  8
0
 10
-29.4606
 20
-10.1267
 11
-29.3429
 21
-10.7434
  0
LINE
  8
0
 10
-29.3429
 20
-10.7434
 11
-29.1489
 21
-11.3406
  0
LINE
  8
0
 10
-29.1489
 20
-11.3406
 11
-28.8815
 21
-11.9088
  0
LINE
  8
0
 10
-28.8815
 20
-11.9088
 11
-28.5451
 21
-12.4389
  0
LINE
  8
0
 10
-28.5451
 20
-12.4389
 11
-28.1448
 21
-12.9227
  0
LINE
  8
0
 10
-28.1448
 20
-12.9227
 11
-27.6871
 21
-13.3526
  0
LINE
  8
0
 10
-27.6871
 20
-13.3526
 11
-27.1791
 21
-13.7216
  0
LINE
  8
0
 10
-27.1791
 20
-13.7216
 11
-26.6289
 21
-14.0241
  0
LINE
  8
0
 10
-26.6289
 20
-14.0241
 11
-26.0451
 21
-14.2553
  0
LINE
  8
0
 10
-26.0451
 20
-14.2553
 11
-25.4369
 21
-14.4114
  0
LINE
  8
0
 10
-25.4369
 20
-14.4114
 11
-24.8139
 21
-14.4901
  0
LINE
  8
0
 10
-24.8139
 20
-14.4901
 11
24.8139
 21
-14.4901
  0
LINE
  8
0
 10
24.8139
 20
-14.4901
 11
25.4369
 21
-14.4114
  0
LINE
  8
0
 10
22.3116
 20
4.50591
 11
21.9379
 21
4.55313
  0
LINE
  8
0
 10
21.9379
 20
4.55313
 11
21.5729
 21
4.64682
  0
LINE
  8
0
 10
21.5729
 20
4.64682
 11
21.2227
 21
4.78551
  0
LINE
  8
0
 10
21.2227
 20
4.78551
 11
20.8925
 21
4.96701
  0
LINE
  8
0
 10
20.8925
 20
4.96701
 11
20.5877
 21
5.18845
  0
LINE
  8
0
 10
20.5877
 20
5.18845
 11
20.3131
 21
5.44635
  0
LINE
  8
0
 10
20.3131
 20
5.44635
 11
20.0729
 21
5.73663
  0
LINE
  8
0
 10
20.0729
 20
5.73663
 11
19.8711
 21
6.05473
  0
LINE
  8
0
 10
19.8711
 20
6.05473
 11
19.7107
 21
6.39561
  0
LINE
  8
0
 10
19.7107
 20
6.39561
 11
19.5942
 21
6.75392
  0
LINE
  8
0
 10
19.5942
 20
6.75392
 11
19.5237
 21
7.12399
  0
LINE
  8
0
 10
19.5237
 20
7.12399
 11
19.5
 21
7.5
  0
LINE
  8
0
 10
19.5
 20
7.5
 11
19.5237
 21
7.87599
  0
LINE
  8
0
 10
19.5237
 20
7.87599
 11
19.5942
 21
8.24606
  0
LINE
  8
0
 10
19.5942
 20
8.24606
 11
19.7107
 21
8.60437
  0
LINE
  8
0
 10
19.7107
 20
8.60437
 11
19.8711
 21
8.94525
  0
LINE
  8
0
 10
19.8711
 20
8.94525
 11
20.0729
 21
9.26335
  0
LINE
  8
0
 10
20.0729
 20
9.26335
 11
20.3131
 21
9.55363
  0
LINE
  8
0
 10
20.3131
 20
9.55363
 11
20.5877
 21
9.81154
  0
LINE
  8
0
 10
20.5877
 20
9.81154
 11
20.8925
 21
10.033
  0
LINE
  8
0
 10
20.8925
 20
10.033
 11
21.2227
 21
10.2145
  0
LINE
  8
0
 10
21.2227
 20
10.2145
 11
21.5729
 21
10.3532
  0
LINE
  8
0
 10
21.5729
 20
10.3532
 11
21.9379
 21
10.4469
  0
LINE
  8
0
 10
21.9379
 20
10.4469
 11
22.3116
 21
10.4941
  0
LINE
  8
0
 10
22.3116
 20
10.4941
 11
22.6884
 21
10.4941
  0
LINE
  8
0
 10
22.6884
 20
10.4941
 11
23.0621
 21
10.4469
  0
LINE
  8
0
 10
23.0621
 20
10.4469
 11
23.427
 21
10.3532
  0
LINE
  8
0
 10
23.427
 20
10.3532
 11
23.7773
 21
10.2145
  0
LINE
  8
0
 10
23.7773
 20
10.2145
 11
24.1075
 21
10.033
  0
LINE
  8
0
 10
24.1075
 20
10.033
 11
24.4123
 21
9.81154
  0
LINE
  8
0
 10
24.4123
 20
9.81154
 11
24.6869
 21
9.55363
  0
LINE
  8
0
 10
24.6869
 20
9.55363
 11
24.927
 21
9.26335
  0
LINE
  8
0
 10
24.927
 20
9.26335
 11
25.1289
 21
8.94525
  0
LINE
  8
0
 10
25.1289
 20
8.94525
 11
25.2893
 21
8.60437
  0
LINE
  8
0
 10
25.2893
 20
8.60437
 11
25.4057
 21
8.24606
  0
LINE
  8
0
 10
25.4057
 20
8.24606
 11
25.4763
 21
7.87599
  0
LINE
  8
0
 10
25.4763
 20
7.87599
 11
25.5
 21
7.5
  0
LINE
  8
0
 10
25.5
 20
7.5
 11
25.4763
 21
7.12399
  0
LINE
  8
0
 10
25.4763
 20
7.12399
 11
25.4057
 21
6.75392
  0
LINE
  8
0
 10
25.4057
 20
6.75392
 11
25.2893
 21
6.39561
  0
LINE
  8
0
 10
25.2893
 20
6.39561
 11
25.1289
 21
6.05473
  0
LINE
  8
0
 10
25.1289
 20
6.05473
 11
24.927
 21
5.73663
  0
LINE
  8
0
 10
24.927
 20
5.73663
 11
24.6869
 21
5.44635
  0
LINE
  8
0
 10
24.6869
 20
5.44635
 11
24.4123
 21
5.18845
  0
LINE
  8
0
 10
24.4123
 20
5.18845
 11
24.1075
 21
4.96701
  0
LINE
  8
0
 10
24.1075
 20
4.96701
 11
23.7773
 21
4.78551
  0
LINE
  8
0
 10
23.7773
 20
4.78551
 11
23.427
 21
4.64682
  0
LINE
  8
0
 10
23.427
 20
4.64682
 11
23.0621
 21
4.55313
  0
LINE
  8
0
 10
23.0621
 20
4.55313
 11
22.6884
 21
4.50591
  0
LINE
  8
0
 10
22.6884
 20
4.50591
 11
22.3116
 21
4.50591
  0
LINE
  8
0
 10
-22.6884
 20
4.50591
 11
-23.0621
 21
4.55313
  0
LINE
  8
0
 10
-23.0621
 20
4.55313
 11
-23.427
 21
4.64682
  0
LINE
  8
0
 10
-23.427
 20
4.64682
 11
-23.7773
 21
4.78551
  0
LINE
  8
0
 10
-23.7773
 20
4.78551
 11
-24.1075
 21
4.96701
  0
LINE
  8
0
 10
-24.1075
 20
4.96701
 11
-24.4123
 21
5.18845
  0
LINE
  8
0
 10
-24.4123
 20
5.18845
 11
-24.6869
 21
5.44635
  0
LINE
  8
0
 10
-24.6869
 20
5.44635
 11
-24.927
 21
5.73663
  0
LINE
  8
0
 10
-24.927
 20
5.73663
 11
-25.1289
 21
6.05473
  0
LINE
  8
0
 10
-25.1289
 20
6.05473
 11
-25.2893
 21
6.39561
  0
LINE
  8
0
 10
-25.2893
 20
6.39561
 11
-25.4057
 21
6.75392
  0
LINE
  8
0
 10
-25.4057
 20
6.75392
 11
-25.4763
 21
7.12399
  0
LINE
  8
0
 10
-25.4763
 20
7.12399
 11
-25.5
 21
7.5
  0
LINE
  8
0
 10
-25.5
 20
7.5
 11
-25.4763
 21
7.87599
  0
LINE
  8
0
 10
-25.4763
 20
7.87599
 11
-25.4057
 21
8.24606
  0
LINE
  8
0
 10
-25.4057
 20
8.24606
 11
-25.2893
 21
8.60437
  0
LINE
  8
0
 10
-25.2893
 20
8.60437
 11
-25.1289
 21
8.94525
  0
LINE
  8
0
 10
-25.1289
 20
8.94525
 11
-24.927
 21
9.26335
  0
LINE
  8
0
 10
-24.927
 20
9.26335
 11
-24.6869
 21
9.55363
  0
LINE
  8
0
 10
-24.6869
 20
9.55363
 11
-24.4123
 21
9.81154
  0
LINE
  8
0
 10
-24.4123
 20
9.81154
 11
-24.1075
 21
10.033
  0
LINE
  8
0
 10
-24.1075
 20
10.033
 11
-23.7773
 21
10.2145
  0
LINE
  8
0
 10
-23.7773
 20
10.2145
 11
-23.427
 21
10.3532
  0
LINE
  8
0
 10
-23.427
 20
10.3532
 11
-23.0621
 21
10.4469
  0
LINE
  8
0
 10
-23.0621
 20
10.4469
 11
-22.6884
 21
10.4941
  0
LINE
  8
0
 10
-22.6884
 20
10.4941
 11
-22.3116
 21
10.4941
  0
LINE
  8
0
 10
-22.3116
 20
10.4941
 11
-21.9379
 21
10.4469
  0
LINE
  8
0
 10
-21.9379
 20
10.4469
 11
-21.5729
 21
10.3532
  0
LINE
  8
0
 10
-21.5729
 20
10.3532
 11
-21.2227
 21
10.2145
  0
LINE
  8
0
 10
-21.2227
 20
10.2145
 11
-20.8925
 21
10.033
  0
LINE
  8
0
 10
-20.8925
 20
10.033
 11
-20.5877
 21
9.81154
  0
LINE
  8
0
 10
-20.5877
 20
9.81154
 11
-20.3131
 21
9.55363
  0
LINE
  8
0
 10
-20.3131
 20
9.55363
 11
-20.0729
 21
9.26335
  0
LINE
  8
0
 10
-20.0729
 20
9.26335
 11
-19.8711
 21
8.94525
  0
LINE
  8
0
 10
-19.8711
 20
8.94525
 11
-19.7107
 21
8.60437
  0
LINE
  8
0
 10
-19.7107
 20
8.60437
 11
-19.5942
 21
8.24606
  0
LINE
  8
0
 10
-19.5942
 20
8.24606
 11
-19.5237
 21
7.87599
  0
LINE
  8
0
 10
-19.5237
 20
7.87599
 11
-19.5
 21
7.5
  0
LINE
  8
0
 10
-19.5
 20
7.5
 11
-19.5237
 21
7.12399
  0
LINE
  8
0
 10
-19.5237
 20
7.12399
 11
-19.5942
 21
6.75392
  0
LINE
  8
0
 10
-19.5942
 20
6.75392
 11
-19.7107
 21
6.39561
  0
LINE
  8
0
 10
-19.7107
 20
6.39561
 11
-19.8711
 21
6.05473
  0
LINE
  8
0
 10
-19.8711
 20
6.05473
 11
-20.0729
 21
5.73663
  0
LINE
  8
0
 10
-20.0729
 20
5.73663
 11
-20.3131
 21
5.44635
  0
LINE
  8
0
 10
-20.3131
 20
5.44635
 11
-20.5877
 21
5.18845
  0
LINE
  8
0
 10
-20.5877
 20
5.18845
 11
-20.8925
 21
4.96701
  0
LINE
  8
0
 10
-20.8925
 20
4.96701
 11
-21.2227
 21
4.78551
  0
LINE
  8
0
 10
-21.2227
 20
4.78551
 11
-21.5729
 21
4.64682
  0
LINE
  8
0
 10
-21.5729
 20
4.64682
 11
-21.9379
 21
4.55313
  0
LINE
  8
0
 10
-21.9379
 20
4.55313
 11
-22.3116
 21
4.50591
  0
LINE
  8
0
 10
-22.3116
 20
4.50591
 11
-22.6884
 21
4.50591
  0
LINE
  8
0
 10
-14.2825
 20
-4.49112
 11
-14.8432
 21
-4.42029
  0
LINE
  8
0
 10
-14.8432
 20
-4.42029
 11
-15.3906
 21
-4.27974
  0
LINE
  8
0
 10
-15.3906
 20
-4.27974
 11
-15.916
 21
-4.07172
  0
LINE
  8
0
 10
-15.916
 20
-4.07172
 11
-16.4112
 21
-3.79947
  0
LINE
  8
0
 10
-16.4112
 20
-3.79947
 11
-16.8684
 21
-3.4673
  0
LINE
  8
0
 10
-16.8684
 20
-3.4673
 11
-17.2803
 21
-3.08046
  0
LINE
  8
0
 10
-17.2803
 20
-3.08046
 11
-17.6406
 21
-2.64502
  0
LINE
  8
0
 10
-17.6406
 20
-2.64502
 11
-17.9434
 21
-2.16788
  0
LINE
  8
0
 10
-17.9434
 20
-2.16788
 11
-18.184
 21
-1.65656
  0
LINE
  8
0
 10
-18.184
 20
-1.65656
 11
-18.3586
 21
-1.11909
  0
LINE
  8
0
 10
-18.3586
 20
-1.11909
 11
-18.4645
 21
-0.563995
  0
LINE
  8
0
 10
-18.4645
 20
-0.563995
 11
-18.5
 21
0
  0
LINE
  8
0
 10
-18.5
 20
0
 11
-18.4645
 21
0.563995
  0
LINE
  8
0
 10
-18.4645
 20
0.563995
 11
-18.3586
 21
1.11909
  0
LINE
  8
0
 10
-18.3586
 20
1.11909
 11
-18.184
 21
1.65656
  0
LINE
  8
0
 10
-18.184
 20
1.65656
 11
-17.9434
 21
2.16788
  0
LINE
  8
0
 10
-17.9434
 20
2.16788
 11
-17.6406
 21
2.64502
  0
LINE
  8
0
 10
-17.6406
 20
2.64502
 11
-17.2803
 21
3.08046
  0
LINE
  8
0
 10
-17.2803
 20
3.08046
 11
-16.8684
 21
3.4673
  0
LINE
  8
0
 10
-16.8684
 20
3.4673
 11
-16.4112
 21
3.79947
  0
LINE
  8
0
 10
-16.4112
 20
3.79947
 11
-15.916
 21
4.07172
  0
LINE
  8
0
 10
-15.916
 20
4.07172
 11
-15.3906
 21
4.27974
  0
LINE
  8
0
 10
-15.3906
 20
4.27974
 11
-14.8432
 21
4.42029
  0
LINE
  8
0
 10
-14.8432
 20
4.42029
 11
-14.2825
 21
4.49112
  0
LINE
  8
0
 10
-14.2825
 20
4.49112
 11
-13.7174
 21
4.49112
  0
LINE
  8
0
 10
-13.7174
 20
4.49112
 11
-13.1568
 21
4.42029
  0
LINE
  8
0
 10
-13.1568
 20
4.42029
 11
-12.6094
 21
4.27974
  0
LINE
  8
0
 10
-12.6094
 20
4.27974
 11
-12.084
 21
4.07172
  0
LINE
  8
0
 10
-12.084
 20
4.07172
 11
-11.5888
 21
3.79947
  0
LINE
  8
0
 10
-11.5888
 20
3.79947
 11
-11.1316
 21
3.4673
  0
LINE
  8
0
 10
-11.1316
 20
3.4673
 11
-10.7196
 21
3.08046
  0
LINE
  8
0
 10
-10.7196
 20
3.08046
 11
-10.3594
 21
2.64502
  0
LINE
  8
0
 10
-10.3594
 20
2.64502
 11
-10.0566
 21
2.16788
  0
LINE
  8
0
 10
-10.0566
 20
2.16788
 11
-9.81599
 21
1.65656
  0
LINE
  8
0
 10
-9.81599
 20
1.65656
 11
-9.64137
 21
1.11909
  0
LINE
  8
0
 10
-9.64137
 20
1.11909
 11
-9.53548
 21
0.563995
  0
LINE
  8
0
 10
-9.53548
 20
0.563995
 11
-9.5
 21
0
  0
LINE
  8
0
 10
-9.5
 20
0
 11
-9.53548
 21
-0.563995
  0
LINE
  8
0
 10
-9.53548
 20
-0.563995
 11
-9.64137
 21
-1.11909
  0
LINE
  8
0
 10
-9.64137
 20
-1.11909
 11
-9.81599
 21
-1.65656
  0
LINE
  8
0
 10
-9.81599
 20
-1.65656
 11
-10.0566
 21
-2.16788
  0
LINE
  8
0
 10
-10.0566
 20
-2.16788
 11
-10.3594
 21
-2.64502
  0
LINE
  8
0
 10
-10.3594
 20
-2.64502
 11
-10.7196
 21
-3.08046
  0
LINE
  8
0
 10
-10.7196
 20
-3.08046
 11
-11.1316
 21
-3.4673
  0
LINE
  8
0
 10
-11.1316
 20
-3.4673
 11
-11.5888
 21
-3.79947
  0
LINE
  8
0
 10
-11.5888
 20
-3.79947
 11
-12.084
 21
-4.07172
  0
LINE
  8
0
 10
-12.084
 20
-4.07172
 11
-12.6094
 21
-4.27974
  0
LINE
  8
0
 10
-12.6094
 20
-4.27974
 11
-13.1568
 21
-4.42029
  0
LINE
  8
0
 10
-13.1568
 20
-4.42029
 11
-13.7174
 21
-4.49112
  0
LINE
  8
0
 10
-13.7174
 20
-4.49112
 11
-14.2825
 21
-4.49112
  0
LINE
  8
0
 10
13.7174
 20
-4.49112
 11
13.1568
 21
-4.42029
  0
LINE
  8
0
 10
13.1568
 20
-4.42029
 11
12.6094
 21
-4.27974
  0
LINE
  8
0
 10
12.6094
 20
-4.27974
 11
12.084
 21
-4.07172
  0
LINE
  8
0
 10
12.084
 20
-4.07172
 11
11.5888
 21
-3.79947
  0
LINE
  8
0
 10
11.5888
 20
-3.79947
 11
11.1316
 21
-3.4673
  0
LINE
  8
0
 10
11.1316
 20
-3.4673
 11
10.7196
 21
-3.08046
  0
LINE
  8
0
 10
10.7196
 20
-3.08046
 11
10.3594
 21
-2.64502
  0
LINE
  8
0
 10
10.3594
 20
-2.64502
 11
10.0566
 21
-2.16788
  0
LINE
  8
0
 10
10.0566
 20
-2.16788
 11
9.81599
 21
-1.65656
  0
LINE
  8
0
 10
9.81599
 20
-1.65656
 11
9.64137
 21
-1.11909
  0
LINE
  8
0
 10
9.64137
 20
-1.11909
 11
9.53548
 21
-0.563995
  0
LINE
  8
0
 10
9.53548
 20
-0.563995
 11
9.5
 21
0
  0
LINE
  8
0
 10
9.5
 20
0
 11
9.53548
 21
0.563995
  0
LINE
  8
0
 10
9.53548
 20
0.563995
 11
9.64137
 21
1.11909
  0
LINE
  8
0
 10
9.64137
 20
1.11909
 11
9.81599
 21
1.65656
  0
LINE
  8
0
 10
9.81599
 20
1.65656
 11
10.0566
 21
2.16788
  0
LINE
  8
0
 10
10.0566
 20
2.16788
 11
10.3594
 21
2.64502
  0
LINE
  8
0
 10
10.3594
 20
2.64502
 11
10.7196
 21
3.08046
  0
LINE
  8
0
 10
10.7196
 20
3.08046
 11
11.1316
 21
3.4673
  0
LINE
  8
0
 10
11.1316
 20
3.4673
 11
11.5888
 21
3.79947
  0
LINE
  8
0
 10
11.5888
 20
3.79947
 11
12.084
 21
4.07172
  0
LINE
  8
0
 10
12.084
 20
4.07172
 11
12.6094
 21
4.27974
  0
LINE
  8
0
 10
12.6094
 20
4.27974
 11
13.1568
 21
4.42029
  0
LINE
  8
0
 10
13.1568
 20
4.42029
 11
13.7174
 21
4.49112
  0
LINE
  8
0
 10
13.7174
 20
4.49112
 11
14.2825
 21
4.49112
  0
LINE
  8
0
 10
14.2825
 20
4.49112
 11
14.8432
 21
4.42029
  0
LINE
  8
0
 10
14.8432
 20
4.42029
 11
15.3906
 21
4.27974
  0
LINE
  8
0
 10
15.3906
 20
4.27974
 11
15.916
 21
4.07172
  0
LINE
  8
0
 10
15.916
 20
4.07172
 11
16.4112
 21
3.79947
  0
LINE
  8
0
 10
16.4112
 20
3.79947
 11
16.8684
 21
3.4673
  0
LINE
  8
0
 10
16.8684
 20
3.4673
 11
17.2803
 21
3.08046
  0
LINE
  8
0
 10
17.2803
 20
3.08046
 11
17.6406
 21
2.64502
  0
LINE
  8
0
 10
17.6406
 20
2.64502
 11
17.9434
 21
2.16788
  0
LINE
  8
0
 10
17.9434
 20
2.16788
 11
18.184
 21
1.65656
  0
LINE
  8
0
 10
18.184
 20
1.65656
 11
18.3586
 21
1.11909
  0
LINE
  8
0
 10
18.3586
 20
1.11909
 11
18.4645
 21
0.563995
  0
LINE
  8
0
 10
18.4645
 20
0.563995
 11
18.5
 21
0
  0
LINE
  8
0
 10
18.5
 20
0
 11
18.4645
 21
-0.563995
  0
LINE
  8
0
 10
18.4645
 20
-0.563995
 11
18.3586
 21
-1.11909
  0
LINE
  8
0
 10
18.3586
 20
-1.11909
 11
18.184
 21
-1.65656
  0
LINE
  8
0
 10
18.184
 20
-1.65656
 11
17.9434
 21
-2.16788
  0
LINE
  8
0
 10
17.9434
 20
-2.16788
 11
17.6406
 21
-2.64502
  0
LINE
  8
0
 10
17.6406
 20
-2.64502
 11
17.2803
 21
-3.08046
  0
LINE
  8
0
 10
17.2803
 20
-3.08046
 11
16.8684
 21
-3.4673
  0
LINE
  8
0
 10
16.8684
 20
-3.4673
 11
16.4112
 21
-3.79947
  0
LINE
  8
0
 10
16.4112
 20
-3.79947
 11
15.916
 21
-4.07172
  0
LINE
  8
0
 10
15.916
 20
-4.07172
 11
15.3906
 21
-4.27974
  0
LINE
  8
0
 10
15.3906
 20
-4.27974
 11
14.8432
 21
-4.42029
  0
LINE
  8
0
 10
14.8432
 20
-4.42029
 11
14.2825
 21
-4.49112
  0
LINE
  8
0
 10
14.2825
 20
-4.49112
 11
13.7174
 21
-4.49112
  0
LINE
  8
0
 10
-0.282547
 20
-4.49112
 11
-0.843201
 21
-4.42029
  0
LINE
  8
0
 10
-0.843201
 20
-4.42029
 11
-1.39056
 21
-4.27974
  0
LINE
  8
0
 10
-1.39056
 20
-4.27974
 11
-1.916
 21
-4.07172
  0
LINE
  8
0
 10
-1.916
 20
-4.07172
 11
-2.41121
 21
-3.79947
  0
LINE
  8
0
 10
-2.41121
 20
-3.79947
 11
-2.86839
 21
-3.4673
  0
LINE
  8
0
 10
-2.86839
 20
-3.4673
 11
-3.28035
 21
-3.08046
  0
LINE
  8
0
 10
-3.28035
 20
-3.08046
 11
-3.64056
 21
-2.64502
  0
LINE
  8
0
 10
-3.64056
 20
-2.64502
 11
-3.94337
 21
-2.16788
  0
LINE
  8
0
 10
-3.94337
 20
-2.16788
 11
-4.18399
 21
-1.65656
  0
LINE
  8
0
 10
-4.18399
 20
-1.65656
 11
-4.35861
 21
-1.11909
  0
LINE
  8
0
 10
-4.35861
 20
-1.11909
 11
-4.46451
 21
-0.563995
  0
LINE
  8
0
 10
-4.46451
 20
-0.563995
 11
-4.5
 21
0
  0
LINE
  8
0
 10
-4.5
 20
0
 11
-4.46451
 21
0.563995
  0
LINE
  8
0
 10
-4.46451
 20
0.563995
 11
-4.35861
 21
1.11909
  0
LINE
  8
0
 10
-4.35861
 20
1.11909
 11
-4.18399
 21
1.65656
  0
LINE
  8
0
 10
-4.18399
 20
1.65656
 11
-3.94337
 21
2.16788
  0
LINE
  8
0
 10
-3.94337
 20
2.16788
 11
-3.64056
 21
2.64502
  0
LINE
  8
0
 10
-3.64056
 20
2.64502
 11
-3.28035
 21
3.08046
  0
LINE
  8
0
 10
-3.28035
 20
3.08046
 11
-2.86839
 21
3.4673
  0
LINE
  8
0
 10
-2.86839
 20
3.4673
 11
-2.41121
 21
3.79947
  0
LINE
  8
0
 10
-2.41121
 20
3.79947
 11
-1.916
 21
4.07172
  0
LINE
  8
0
 10
-1.916
 20
4.07172
 11
-1.39056
 21
4.27974
  0
LINE
  8
0
 10
-1.39056
 20
4.27974
 11
-0.843201
 21
4.42029
  0
LINE
  8
0
 10
-0.843201
 20
4.42029
 11
-0.282547
 21
4.49112
  0
LINE
  8
0
 10
-0.282547
 20
4.49112
 11
0.282547
 21
4.49112
  0
LINE
  8
0
 10
0.282547
 20
4.49112
 11
0.843201
 21
4.42029
  0
LINE
  8
0
 10
0.843201
 20
4.42029
 11
1.39056
 21
4.27974
  0
LINE
  8
0
 10
1.39056
 20
4.27974
 11
1.916
 21
4.07172
  0
LINE
  8
0
 10
1.916
 20
4.07172
 11
2.41121
 21
3.79947
  0
LINE
  8
0
 10
2.41121
 20
3.79947
 11
2.86839
 21
3.4673
  0
LINE
  8
0
 10
2.86839
 20
3.4673
 11
3.28035
 21
3.08046
  0
LINE
  8
0
 10
3.28035
 20
3.08046
 11
3.64056
 21
2.64502
  0
LINE
  8
0
 10
3.64056
 20
2.64502
 11
3.94337
 21
2.16788
  0
LINE
  8
0
 10
3.94337
 20
2.16788
 11
4.18399
 21
1.65656
  0
LINE
  8
0
 10
4.18399
 20
1.65656
 11
4.35861
 21
1.11909
  0
LINE
  8
0
 10
4.35861
 20
1.11909
 11
4.46451
 21
0.563995
  0
LINE
  8
0
 10
4.46451
 20
0.563995
 11
4.5
 21
0
  0
LINE
  8
0
 10
4.5
 20
0
 11
4.46451
 21
-0.563995
  0
LINE
  8
0
 10
4.46451
 20
-0.563995
 11
4.35861
 21
-1.11909
  0
LINE
  8
0
 10
4.35861
 20
-1.11909
 11
4.18399
 21
-1.65656
  0
LINE
  8
0
 10
4.18399
 20
-1.65656
 11
3.94337
 21
-2.16788
  0
LINE
  8
0
 10
3.94337
 20
-2.16788
 11
3.64056
 21
-2.64502
  0
LINE
  8
0
 10
3.64056
 20
-2.64502
 11
3.28035
 21
-3.08046
  0
LINE
  8
0
 10
3.28035
 20
-3.08046
 11
2.86839
 21
-3.4673
  0
LINE
  8
0
 10
2.86839
 20
-3.4673
 11
2.41121
 21
-3.79947
  0
LINE
  8
0
 10
2.41121
 20
-3.79947
 11
1.916
 21
-4.07172
  0
LINE
  8
0
 10
1.916
 20
-4.07172
 11
1.39056
 21
-4.27974
  0
LINE
  8
0
 10
1.39056
 20
-4.27974
 11
0.843201
 21
-4.42029
  0
LINE
  8
0
 10
0.843201
 20
-4.42029
 11
0.282547
 21
-4.49112
  0
LINE
  8
0
 10
0.282547
 20
-4.49112
 11
-0.282547
 21
-4.49112
  0
LINE
  8
0
 10
22.4058
 20
-1.49704
 11
22.2189
 21
-1.47342
  0
LINE
  8
0
 10
22.2189
 20
-1.47342
 11
22.0365
 21
-1.42657
  0
LINE
  8
0
 10
22.0365
 20
-1.42657
 11
21.8613
 21
-1.35724
  0
LINE
  8
0
 10
21.8613
 20
-1.35724
 11
21.6963
 21
-1.26648
  0
LINE
  8
0
 10
21.6963
 20
-1.26648
 11
21.5439
 21
-1.15576
  0
LINE
  8
0
 10
21.5439
 20
-1.15576
 11
21.4065
 21
-1.02681
  0
LINE
  8
0
 10
21.4065
 20
-1.02681
 11
21.2865
 21
-0.881668
  0
LINE
  8
0
 10
21.2865
 20
-0.881668
 11
21.1855
 21
-0.722626
  0
LINE
  8
0
 10
21.1855
 20
-0.722626
 11
21.1053
 21
-0.552185
  0
LINE
  8
0
 10
21.1053
 20
-0.552185
 11
21.0471
 21
-0.373032
  0
LINE
  8
0
 10
21.0471
 20
-0.373032
 11
21.0118
 21
-0.187988
  0
LINE
  8
0
 10
21.0118
 20
-0.187988
 11
21
 21
0
  0
LINE
  8
0
 10
21
 20
0
 11
21.0118
 21
0.187988
  0
LINE
  8
0
 10
21.0118
 20
0.187988
 11
21.0471
 21
0.373032
  0
LINE
  8
0
 10
21.0471
 20
0.373032
 11
21.1053
 21
0.552185
  0
LINE
  8
0
 10
21.1053
 20
0.552185
 11
21.1855
 21
0.722626
  0
LINE
  8
0
 10
21.1855
 20
0.722626
 11
21.2865
 21
0.881668
  0
LINE
  8
0
 10
21.2865
 20
0.881668
 11
21.4065
 21
1.02681
  0
LINE
  8
0
 10
21.4065
 20
1.02681
 11
21.5439
 21
1.15576
  0
LINE
  8
0
 10
21.5439
 20
1.15576
 11
21.6963
 21
1.26648
  0
LINE
  8
0
 10
21.6963
 20
1.26648
 11
21.8613
 21
1.35724
  0
LINE
  8
0
 10
21.8613
 20
1.35724
 11
22.0365
 21
1.42657
  0
LINE
  8
0
 10
22.0365
 20
1.42657
 11
22.2189
 21
1.47342
  0
LINE
  8
0
 10
22.2189
 20
1.47342
 11
22.4058
 21
1.49704
  0
LINE
  8
0
 10
22.4058
 20
1.49704
 11
22.5942
 21
1.49704
  0
LINE
  8
0
 10
22.5942
 20
1.49704
 11
22.7811
 21
1.47342
  0
LINE
  8
0
 10
22.7811
 20
1.47342
 11
22.9635
 21
1.42657
  0
LINE
  8
0
 10
22.9635
 20
1.42657
 11
23.1387
 21
1.35724
  0
LINE
  8
0
 10
23.1387
 20
1.35724
 11
23.3037
 21
1.26648
  0
LINE
  8
0
 10
23.3037
 20
1.26648
 11
23.4561
 21
1.15576
  0
LINE
  8
0
 10
23.4561
 20
1.15576
 11
23.5934
 21
1.02681
  0
LINE
  8
0
 10
23.5934
 20
1.02681
 11
23.7135
 21
0.881668
  0
LINE
  8
0
 10
23.7135
 20
0.881668
 11
23.8145
 21
0.722626
  0
LINE
  8
0
 10
23.8145
 20
0.722626
 11
23.8947
 21
0.552185
  0
LINE
  8
0
 10
23.8947
 20
0.552185
 11
23.9529
 21
0.373032
  0
LINE
  8
0
 10
23.9529
 20
0.373032
 11
23.9882
 21
0.187988
  0
LINE
  8
0
 10
23.9882
 20
0.187988
 11
24
 21
0
  0
LINE
  8
0
 10
24
 20
0
 11
23.9882
 21
-0.187988
  0
LINE
  8
0
 10
23.9882
 20
-0.187988
 11
23.9529
 21
-0.373032
  0
LINE
  8
0
 10
23.9529
 20
-0.373032
 11
23.8947
 21
-0.552185
  0
LINE
  8
0
 10
23.8947
 20
-0.552185
 11
23.8145
 21
-0.722626
  0
LINE
  8
0
 10
23.8145
 20
-0.722626
 11
23.7135
 21
-0.881668
  0
LINE
  8
0
 10
23.7135
 20
-0.881668
 11
23.5934
 21
-1.02681
  0
LINE
  8
0
 10
23.5934
 20
-1.02681
 11
23.4561
 21
-1.15576
  0
LINE
  8
0
 10
23.4561
 20
-1.15576
 11
23.3037
 21
-1.26648
  0
LINE
  8
0
 10
23.3037
 20
-1.26648
 11
23.1387
 21
-1.35724
  0
LINE
  8
0
 10
23.1387
 20
-1.35724
 11
22.9635
 21
-1.42657
  0
LINE
  8
0
 10
22.9635
 20
-1.42657
 11
22.7811
 21
-1.47342
  0
LINE
  8
0
 10
22.7811
 20
-1.47342
 11
22.5942
 21
-1.49704
  0
LINE
  8
0
 10
22.5942
 20
-1.49704
 11
22.4058
 21
-1.49704
  0
LINE
  8
0
 10
-22.5942
 20
-1.49704
 11
-22.7811
 21
-1.47342
  0
LINE
  8
0
 10
-22.7811
 20
-1.47342
 11
-22.9635
 21
-1.42657
  0
LINE
  8
0
 10
-22.9635
 20
-1.42657
 11
-23.1387
 21
-1.35724
  0
LINE
  8
0
 10
-23.1387
 20
-1.35724
 11
-23.3037
 21
-1.26648
  0
LINE
  8
0
 10
-23.3037
 20
-1.26648
 11
-23.4561
 21
-1.15576
  0
LINE
  8
0
 10
-23.4561
 20
-1.15576
 11
-23.5934
 21
-1.02681
  0
LINE
  8
0
 10
-23.5934
 20
-1.02681
 11
-23.7135
 21
-0.881668
  0
LINE
  8
0
 10
-23.7135
 20
-0.881668
 11
-23.8145
 21
-0.722626
  0
LINE
  8
0
 10
-23.8145
 20
-0.722626
 11
-23.8947
 21
-0.552185
  0
LINE
  8
0
 10
-23.8947
 20
-0.552185
 11
-23.9529
 21
-0.373032
  0
LINE
  8
0
 10
-23.9529
 20
-0.373032
 11
-23.9882
 21
-0.187988
  0
LINE
  8
0
 10
-23.9882
 20
-0.187988
 11
-24
 21
0
  0
LINE
  8
0
 10
-24
 20
0
 11
-23.9882
 21
0.187988
  0
LINE
  8
0
 10
-23.9882
 20
0.187988
 11
-23.9529
 21
0.373032
  0
LINE
  8
0
 10
-23.9529
 20
0.373032
 11
-23.8947
 21
0.552185
  0
LINE
  8
0
 10
-23.8947
 20
0.552185
 11
-23.8145
 21
0.722626
  0
LINE
  8
0
 10
-23.8145
 20
0.722626
 11
-23.7135
 21
0.881668
  0
LINE
  8
0
 10
-23.7135
 20
0.881668
 11
-23.5934
 21
1.02681
  0
LINE
  8
0
 10
-23.5934
 20
1.02681
 11
-23.4561
 21
1.15576
  0
LINE
  8
0
 10
-23.4561
 20
1.15576
 11
-23.3037
 21
1.26648
  0
LINE
  8
0
 10
-23.3037
 20
1.26648
 11
-23.1387
 21
1.35724
  0
LINE
  8
0
 10
-23.1387
 20
1.35724
 11
-22.9635
 21
1.42657
  0
LINE
  8
0
 10
-22.9635
 20
1.42657
 11
-22.7811
 21
1.47342
  0
LINE
  8
0
 10
-22.7811
 20
1.47342
 11
-22.5942
 21
1.49704
  0
LINE
  8
0
 10
-22.5942
 20
1.49704
 11
-22.4058
 21
1.49704
  0
LINE
  8
0
 10
-22.4058
 20
1.49704
 11
-22.2189
 21
1.47342
  0
LINE
  8
0
 10
-22.2189
 20
1.47342
 11
-22.0365
 21
1.42657
  0
LINE
  8
0
 10
-22.0365
 20
1.42657
 11
-21.8613
 21
1.35724
  0
LINE
  8
0
 10
-21.8613
 20
1.35724
 11
-21.6963
 21
1.26648
  0
LINE
  8
0
 10
-21.6963
 20
1.26648
 11
-21.5439
 21
1.15576
  0
LINE
  8
0
 10
-21.5439
 20
1.15576
 11
-21.4065
 21
1.02681
  0
LINE
  8
0
 10
-21.4065
 20
1.02681
 11
-21.2865
 21
0.881668
  0
LINE
  8
0
 10
-21.2865
 20
0.881668
 11
-21.1855
 21
0.722626
  0
LINE
  8
0
 10
-21.1855
 20
0.722626
 11
-21.1053
 21
0.552185
  0
LINE
  8
0
 10
-21.1053
 20
0.552185
 11
-21.0471
 21
0.373032
  0
LINE
  8
0
 10
-21.0471
 20
0.373032
 11
-21.0118
 21
0.187988
  0
LINE
  8
0
 10
-21.0118
 20
0.187988
 11
-21
 21
0
  0
LINE
  8
0
 10
-21
 20
0
 11
-21.0118
 21
-0.187988
  0
LINE
  8
0
 10
-21.0118
 20
-0.187988
 11
-21.0471
 21
-0.373032
  0
LINE
  8
0
 10
-21.0471
 20
-0.373032
 11
-21.1053
 21
-0.552185
  0
LINE
  8
0
 10
-21.1053
 20
-0.552185
 11
-21.1855
 21
-0.722626
  0
LINE
  8
0
 10
-21.1855
 20
-0.722626
 11
-21.2865
 21
-0.881668
  0
LINE
  8
0
 10
-21.2865
 20
-0.881668
 11
-21.4065
 21
-1.02681
  0
LINE
  8
0
 10
-21.4065
 20
-1.02681
 11
-21.5439
 21
-1.15576
  0
LINE
  8
0
 10
-21.5439
 20
-1.15576
 11
-21.6963
 21
-1.26648
  0
LINE
  8
0
 10
-21.6963
 20
-1.26648
 11
-21.8613
 21
-1.35724
  0
LINE
  8
0
 10
-21.8613
 20
-1.35724
 11
-22.0365
 21
-1.42657
  0
LINE
  8
0
 10
-22.0365
 20
-1.42657
 11
-22.2189
 21
-1.47342
  0
LINE
  8
0
 10
-22.2189
 20
-1.47342
 11
-22.4058
 21
-1.49704
  0
LINE
  8
0
 10
-22.4058
 20
-1.49704
 11
-22.5942
 21
-1.49704
  0
LINE
  8
0
 10
22.3116
 20
-10.4941
 11
21.9379
 21
-10.4469
  0
LINE
  8
0
 10
21.9379
 20
-10.4469
 11
21.5729
 21
-10.3532
  0
LINE
  8
0
 10
21.5729
 20
-10.3532
 11
21.2227
 21
-10.2145
  0
LINE
  8
0
 10
21.2227
 20
-10.2145
 11
20.8925
 21
-10.033
  0
LINE
  8
0
 10
20.8925
 20
-10.033
 11
20.5877
 21
-9.81154
  0
LINE
  8
0
 10
20.5877
 20
-9.81154
 11
20.3131
 21
-9.55363
  0
LINE
  8
0
 10
20.3131
 20
-9.55363
 11
20.0729
 21
-9.26335
  0
LINE
  8
0
 10
20.0729
 20
-9.26335
 11
19.8711
 21
-8.94525
  0
LINE
  8
0
 10
19.8711
 20
-8.94525
 11
19.7107
 21
-8.60437
  0
LINE
  8
0
 10
19.7107
 20
-8.60437
 11
19.5942
 21
-8.24606
  0
LINE
  8
0
 10
19.5942
 20
-8.24606
 11
19.5237
 21
-7.87599
  0
LINE
  8
0
 10
19.5237
 20
-7.87599
 11
19.5
 21
-7.5
  0
LINE
  8
0
 10
19.5
 20
-7.5
 11
19.5237
 21
-7.12399
  0
LINE
  8
0
 10
19.5237
 20
-7.12399
 11
19.5942
 21
-6.75392
  0
LINE
  8
0
 10
19.5942
 20
-6.75392
 11
19.7107
 21
-6.39561
  0
LINE
  8
0
 10
19.7107
 20
-6.39561
 11
19.8711
 21
-6.05473
  0
LINE
  8
0
 10
19.8711
 20
-6.05473
 11
20.0729
 21
-5.73663
  0
LINE
  8
0
 10
20.0729
 20
-5.73663
 11
20.3131
 21
-5.44635
  0
LINE
  8
0
 10
20.3131
 20
-5.44635
 11
20.5877
 21
-5.18845
  0
LINE
  8
0
 10
20.5877
 20
-5.18845
 11
20.8925
 21
-4.96701
  0
LINE
  8
0
 10
20.8925
 20
-4.96701
 11
21.2227
 21
-4.78551
  0
LINE
  8
0
 10
21.2227
 20
-4.78551
 11
21.5729
 21
-4.64682
  0
LINE
  8
0
 10
21.5729
 20
-4.64682
 11
21.9379
 21
-4.55313
  0
LINE
  8
0
 10
21.9379
 20
-4.55313
 11
22.3116
 21
-4.50591
  0
LINE
  8
0
 10
22.3116
 20
-4.50591
 11
22.6884
 21
-4.50591
  0
LINE
  8
0
 10
22.6884
 20
-4.50591
 11
23.0621
 21
-4.55313
  0
LINE
  8
0
 10
23.0621
 20
-4.55313
 11
23.427
 21
-4.64682
  0
LINE
  8
0
 10
23.427
 20
-4.64682
 11
23.7773
 21
-4.78551
  0
LINE
  8
0
 10
23.7773
 20
-4.78551
 11
24.1075
 21
-4.96701
  0
LINE
  8
0
 10
24.1075
 20
-4.96701
 11
24.4123
 21
-5.18845
  0
LINE
  8
0
 10
24.4123
 20
-5.18845
 11
24.6869
 21
-5.44635
  0
LINE
  8
0
 10
24.6869
 20
-5.44635
 11
24.927
 21
-5.73663
  0
LINE
  8
0
 10
24.927
 20
-5.73663
 11
25.1289
 21
-6.05473
  0
LINE
  8
0
 10
25.1289
 20
-6.05473
 11
25.2893
 21
-6.39561
  0
LINE
  8
0
 10
25.2893
 20
-6.39561
 11
25.4057
 21
-6.75392
  0
LINE
  8
0
 10
25.4057
 20
-6.75392
 11
25.4763
 21
-7.12399
  0
LINE
  8
0
 10
25.4763
 20
-7.12399
 11
25.5
 21
-7.5
  0
LINE
  8
0
 10
25.5
 20
-7.5
 11
25.4763
 21
-7.87599
  0
LINE
  8
0
 10
25.4763
 20
-7.87599
 11
25.4057
 21
-8.24606
  0
LINE
  8
0
 10
25.4057
 20
-8.24606
 11
25.2893
 21
-8.60437
  0
LINE
  8
0
 10
25.2893
 20
-8.60437
 11
25.1289
 21
-8.94525
  0
LINE
  8
0
 10
25.1289
 20
-8.94525
 11
24.927
 21
-9.26335
  0
LINE
  8
0
 10
24.927
 20
-9.26335
 11
24.6869
 21
-9.55363
  0
LINE
  8
0
 10
24.6869
 20
-9.55363
 11
24.4123
 21
-9.81154
  0
LINE
  8
0
 10
24.4123
 20
-9.81154
 11
24.1075
 21
-10.033
  0
LINE
  8
0
 10
24.1075
 20
-10.033
 11
23.7773
 21
-10.2145
  0
LINE
  8
0
 10
23.7773
 20
-10.2145
 11
23.427
 21
-10.3532
  0
LINE
  8
0
 10
23.427
 20
-10.3532
 11
23.0621
 21
-10.4469
  0
LINE
  8
0
 10
23.0621
 20
-10.4469
 11
22.6884
 21
-10.4941
  0
LINE
  8
0
 10
22.6884
 20
-10.4941
 11
22.3116
 21
-10.4941
  0
LINE
  8
0
 10
-22.6884
 20
-10.4941
 11
-23.0621
 21
-10.4469
  0
LINE
  8
0
 10
-23.0621
 20
-10.4469
 11
-23.427
 21
-10.3532
  0
LINE
  8
0
 10
-23.427
 20
-10.3532
 11
-23.7773
 21
-10.2145
  0
LINE
  8
0
 10
-23.7773
 20
-10.2145
 11
-24.1075
 21
-10.033
  0
LINE
  8
0
 10
-24.1075
 20
-10.033
 11
-24.4123
 21
-9.81154
  0
LINE
  8
0
 10
-24.4123
 20
-9.81154
 11
-24.6869
 21
-9.55363
  0
LINE
  8
0
 10
-24.6869
 20
-9.55363
 11
-24.927
 21
-9.26335
  0
LINE
  8
0
 10
-24.927
 20
-9.26335
 11
-25.1289
 21
-8.94525
  0
LINE
  8
0
 10
-25.1289
 20
-8.94525
 11
-25.2893
 21
-8.60437
  0
LINE
  8
0
 10
-25.2893
 20
-8.60437
 11
-25.4057
 21
-8.24606
  0
LINE
  8
0
 10
-25.4057
 20
-8.24606
 11
-25.4763
 21
-7.87599
  0
LINE
  8
0
 10
-25.4763
 20
-7.87599
 11
-25.5
 21
-7.5
  0
LINE
  8
0
 10
-25.5
 20
-7.5
 11
-25.4763
 21
-7.12399
  0
LINE
  8
0
 10
-25.4763
 20
-7.12399
 11
-25.4057
 21
-6.75392
  0
LINE
  8
0
 10
-25.4057
 20
-6.75392
 11
-25.2893
 21
-6.39561
  0
LINE
  8
0
 10
-25.2893
 20
-6.39561
 11
-25.1289
 21
-6.05473
  0
LINE
  8
0
 10
-25.1289
 20
-6.05473
 11
-24.927
 21
-5.73663
  0
LINE
  8
0
 10
-24.927
 20
-5.73663
 11
-24.6869
 21
-5.44635
  0
LINE
  8
0
 10
-24.6869
 20
-5.44635
 11
-24.4123
 21
-5.18845
  0
LINE
  8
0
 10
-24.4123
 20
-5.18845
 11
-24.1075
 21
-4.96701
  0
LINE
  8
0
 10
-24.1075
 20
-4.96701
 11
-23.7773
 21
-4.78551
  0
LINE
  8
0
 10
-23.7773
 20
-4.78551
 11
-23.427
 21
-4.64682
  0
LINE
  8
0
 10
-23.427
 20
-4.64682
 11
-23.0621
 21
-4.55313
  0
LINE
  8
0
 10
-23.0621
 20
-4.55313
 11
-22.6884
 21
-4.50591
  0
LINE
  8
0
 10
-22.6884
 20
-4.50591
 11
-22.3116
 21
-4.50591
  0
LINE
  8
0
 10
-22.3116
 20
-4.50591
 11
-21.9379
 21
-4.55313
  0
LINE
  8
0
 10
-21.9379
 20
-4.55313
 11
-21.5729
 21
-4.64682
  0
LINE
  8
0
 10
-21.5729
 20
-4.64682
 11
-21.2227
 21
-4.78551
  0
LINE
  8
0
 10
-21.2227
 20
-4.78551
 11
-20.8925
 21
-4.96701
  0
LINE
  8
0
 10
-20.8925
 20
-4.96701
 11
-20.5877
 21
-5.18845
  0
LINE
  8
0
 10
-20.5877
 20
-5.18845
 11
-20.3131
 21
-5.44635
  0
LINE
  8
0
 10
-20.3131
 20
-5.44635
 11
-20.0729
 21
-5.73663
  0
LINE
  8
0
 10
-20.0729
 20
-5.73663
 11
-19.8711
 21
-6.05473
  0
LINE
  8
0
 10
-19.8711
 20
-6.05473
 11
-19.7107
 21
-6.39561
  0
LINE
  8
0
 10
-19.7107
 20
-6.39561
 11
-19.5942
 21
-6.75392
  0
LINE
  8
0
 10
-19.5942
 20
-6.75392
 11
-19.5237
 21
-7.12399
  0
LINE
  8
0
 10
-19.5237
 20
-7.12399
 11
-19.5
 21
-7.5
  0
LINE
  8
0
 10
-19.5
 20
-7.5
 11
-19.5237
 21
-7.87599
  0
LINE
  8
0
 10
-19.5237
 20
-7.87599
 11
-19.5942
 21
-8.24606
  0
LINE
  8
0
 10
-19.5942
 20
-8.24606
 11
-19.7107
 21
-8.60437
  0
LINE
  8
0
 10
-19.7107
 20
-8.60437
 11
-19.8711
 21
-8.94525
  0
LINE
  8
0
 10
-19.8711
 20
-8.94525
 11
-20.0729
 21
-9.26335
  0
LINE
  8
0
 10
-20.0729
 20
-9.26335
 11
-20.3131
 21
-9.55363
  0
LINE
  8
0
 10
-20.3131
 20
-9.55363
 11
-20.5877
 21
-9.81154
  0
LINE
  8
0
 10
-20.5877
 20
-9.81154
 11
-20.8925
 21
-10.033
  0
LINE
  8
0
 10
-20.8925
 20
-10.033
 11
-21.2227
 21
-10.2145
  0
LINE
  8
0
 10
-21.2227
 20
-10.2145
 11
-21.5729
 21
-10.3532
  0
LINE
  8
0
 10
-21.5729
 20
-10.3532
 11
-21.9379
 21
-10.4469
  0
LINE
  8
0
 10
-21.9379
 20
-10.4469
 11
-22.3116
 21
-10.4941
  0
LINE
  8
0
 10
-22.3116
 20
-10.4941
 11
-22.6884
 21
-10.4941
  0
ENDSEC
  0
SECTION
  2
OBJECTS
  0
DICTIONARY
  0
ENDSEC
  0
EOF
