  0
SECTION
  2
BLOCKS
  0
ENDSEC
  0
SECTION
  2
ENTITIES
  0
LINE
  8
0
 10
40.4369
 20
24.5886
 11
41.0451
 21
24.7447
  0
LINE
  8
0
 10
41.0451
 20
24.7447
 11
41.6289
 21
24.9759
  0
LINE
  8
0
 10
41.6289
 20
24.9759
 11
42.1791
 21
25.2784
  0
LINE
  8
0
 10
42.1791
 20
25.2784
 11
42.6871
 21
25.6474
  0
LINE
  8
0
 10
42.6871
 20
25.6474
 11
43.1448
 21
26.0773
  0
LINE
  8
0
 10
43.1448
 20
26.0773
 11
43.5451
 21
26.5611
  0
LINE
  8
0
 10
43.5451
 20
26.5611
 11
43.8815
 21
27.0912
  0
LINE
  8
0
 10
43.8815
 20
27.0912
 11
44.1489
 21
27.6594
  0
LINE
  8
0
 10
44.1489
 20
27.6594
 11
44.3429
 21
28.2566
  0
LINE
  8
0
 10
44.3429
 20
28.2566
 11
44.4606
 21
28.8733
  0
LINE
  8
0
 10
44.4606
 20
28.8733
 11
44.5
 21
29.5
  0
LINE
  8
0
 10
44.5
 20
29.5
 11
44.5
 21
48.5
  0
LINE
  8
0
 10
44.5
 20
48.5
 11
44.4606
 21
49.1267
  0
LINE
  8
0
 10
44.4606
 20
49.1267
 11
44.3429
 21
49.7434
  0
LINE
  8
0
 10
44.3429
 20
49.7434
 11
44.1489
 21
50.3406
  0
LINE
  8
0
 10
44.1489
 20
50.3406
 11
43.8815
 21
50.9088
  0
LINE
  8
0
 10
43.8815
 20
50.9088
 11
43.5451
 21
51.4389
  0
LINE
  8
0
 10
43.5451
 20
51.4389
 11
43.1448
 21
51.9227
  0
LINE
  8
0
 10
43.1448
 20
51.9227
 11
42.6871
 21
52.3526
  0
LINE
  8
0
 10
42.6871
 20
52.3526
 11
42.1791
 21
52.7216
  0
LINE
  8
0
 10
42.1791
 20
52.7216
 11
41.6289
 21
53.0241
  0
LINE
  8
0
 10
41.6289
 20
53.0241
 11
41.0451
 21
53.2553
  0
LINE
  8
0
 10
41.0451
 20
53.2553
 11
40.4369
 21
53.4114
  0
LINE
  8
0
 10
40.4369
 20
53.4114
 11
39.8139
 21
53.4901
  0
LINE
  8
0
 10
39.8139
 20
53.4901
 11
-39.8139
 21
53.4901
  0
LINE
  8
0
 10
-39.8139
 20
53.4901
 11
-40.4369
 21
53.4114
  0
LINE
  8
0
 10
-40.4369
 20
53.4114
 11
-41.0451
 21
53.2553
  0
LINE
  8
0
 10
-41.0451
 20
53.2553
 11
-41.6289
 21
53.0241
  0
LINE
  8
0
 10
-41.6289
 20
53.0241
 11
-42.1791
 21
52.7216
  0
LINE
  8
0
 10
-42.1791
 20
52.7216
 11
-42.6871
 21
52.3526
  0
LINE
  8
0
 10
-42.6871
 20
52.3526
 11
-43.1448
 21
51.9227
  0
LINE
  8
0
 10
-43.1448
 20
51.9227
 11
-43.5451
 21
51.4389
  0
LINE
  8
0
 10
-43.5451
 20
51.4389
 11
-43.8815
 21
50.9088
  0
LINE
  8
0
 10
-43.8815
 20
50.9088
 11
-44.1489
 21
50.3406
  0
LINE
  8
0
 10
-44.1489
 20
50.3406
 11
-44.3429
 21
49.7434
  0
LINE
  8
0
 10
-44.3429
 20
49.7434
 11
-44.4606
 21
49.1267
  0
LINE
  8
0
 10
-44.4606
 20
49.1267
 11
-44.5
 21
48.5
  0
LINE
  8
0
 10
-44.5
 20
48.5
 11
-44.5
 21
29.5
  0
LINE
  8
0
 10
-44.5
 20
29.5
 11
-44.4606
 21
28.8733
  0
LINE
  8
0
 10
-44.4606
 20
28.8733
 11
-44.3429
 21
28.2566
  0
LINE
  8
0
 10
-44.3429
 20
28.2566
 11
-44.1489
 21
27.6594
  0
LINE
  8
0
 10
-44.1489
 20
27.6594
 11
-43.8815
 21
27.0912
  0
LINE
  8
0
 10
-43.8815
 20
27.0912
 11
-43.5451
 21
26.5611
  0
LINE
  8
0
 10
-43.5451
 20
26.5611
 11
-43.1448
 21
26.0773
  0
LINE
  8
0
 10
-43.1448
 20
26.0773
 11
-42.6871
 21
25.6474
  0
LINE
  8
0
 10
-42.6871
 20
25.6474
 11
-42.1791
 21
25.2784
  0
LINE
  8
0
 10
-42.1791
 20
25.2784
 11
-41.6289
 21
24.9759
  0
LINE
  8
0
 10
-41.6289
 20
24.9759
 11
-41.0451
 21
24.7447
  0
LINE
  8
0
 10
-41.0451
 20
24.7447
 11
-40.4369
 21
24.5886
  0
LINE
  8
0
 10
-40.4369
 20
24.5886
 11
-39.8139
 21
24.5099
  0
LINE
  8
0
 10
-39.8139
 20
24.5099
 11
39.8139
 21
24.5099
  0
LINE
  8
0
 10
39.8139
 20
24.5099
 11
40.4369
 21
24.5886
  0
LINE
  8
0
 10
-37.6884
 20
28.5059
 11
-38.0621
 21
28.5531
  0
LINE
  8
0
 10
-38.0621
 20
28.5531
 11
-38.427
 21
28.6468
  0
LINE
  8
0
 10
-38.427
 20
28.6468
 11
-38.7773
 21
28.7855
  0
LINE
  8
0
 10
-38.7773
 20
28.7855
 11
-39.1075
 21
28.967
  0
LINE
  8
0
 10
-39.1075
 20
28.967
 11
-39.4123
 21
29.1885
  0
LINE
  8
0
 10
-39.4123
 20
29.1885
 11
-39.6869
 21
29.4464
  0
LINE
  8
0
 10
-39.6869
 20
29.4464
 11
-39.927
 21
29.7366
  0
LINE
  8
0
 10
-39.927
 20
29.7366
 11
-40.1289
 21
30.0547
  0
LINE
  8
0
 10
-40.1289
 20
30.0547
 11
-40.2893
 21
30.3956
  0
LINE
  8
0
 10
-40.2893
 20
30.3956
 11
-40.4057
 21
30.7539
  0
LINE
  8
0
 10
-40.4057
 20
30.7539
 11
-40.4763
 21
31.124
  0
LINE
  8
0
 10
-40.4763
 20
31.124
 11
-40.5
 21
31.5
  0
LINE
  8
0
 10
-40.5
 20
31.5
 11
-40.4763
 21
31.876
  0
LINE
  8
0
 10
-40.4763
 20
31.876
 11
-40.4057
 21
32.2461
  0
LINE
  8
0
 10
-40.4057
 20
32.2461
 11
-40.2893
 21
32.6044
  0
LINE
  8
0
 10
-40.2893
 20
32.6044
 11
-40.1289
 21
32.9453
  0
LINE
  8
0
 10
-40.1289
 20
32.9453
 11
-39.927
 21
33.2634
  0
LINE
  8
0
 10
-39.927
 20
33.2634
 11
-39.6869
 21
33.5536
  0
LINE
  8
0
 10
-39.6869
 20
33.5536
 11
-39.5841
 21
33.6502
  0
LINE
  8
0
 10
-39.5841
 20
33.6502
 11
-39.8766
 21
34.0038
  0
LINE
  8
0
 10
-39.8766
 20
34.0038
 11
-40.4486
 21
34.9051
  0
LINE
  8
0
 10
-40.4486
 20
34.9051
 11
-40.9031
 21
35.871
  0
LINE
  8
0
 10
-40.9031
 20
35.871
 11
-41.233
 21
36.8861
  0
LINE
  8
0
 10
-41.233
 20
36.8861
 11
-41.433
 21
37.9347
  0
LINE
  8
0
 10
-41.433
 20
37.9347
 11
-41.5
 21
39
  0
LINE
  8
0
 10
-41.5
 20
39
 11
-41.433
 21
40.0653
  0
LINE
  8
0
 10
-41.433
 20
40.0653
 11
-41.233
 21
41.1139
  0
LINE
  8
0
 10
-41.233
 20
41.1139
 11
-40.9031
 21
42.129
  0
LINE
  8
0
 10
-40.9031
 20
42.129
 11
-40.4486
 21
43.0949
  0
LINE
  8
0
 10
-40.4486
 20
43.0949
 11
-39.8766
 21
43.9962
  0
LINE
  8
0
 10
-39.8766
 20
43.9962
 11
-39.5841
 21
44.3498
  0
LINE
  8
0
 10
-39.5841
 20
44.3498
 11
-39.6869
 21
44.4464
  0
LINE
  8
0
 10
-39.6869
 20
44.4464
 11
-39.927
 21
44.7366
  0
LINE
  8
0
 10
-39.927
 20
44.7366
 11
-40.1289
 21
45.0547
  0
LINE
  8
0
 10
-40.1289
 20
45.0547
 11
-40.2893
 21
45.3956
  0
LINE
  8
0
 10
-40.2893
 20
45.3956
 11
-40.4057
 21
45.7539
  0
LINE
  8
0
 10
-40.4057
 20
45.7539
 11
-40.4763
 21
46.124
  0
LINE
  8
0
 10
-40.4763
 20
46.124
 11
-40.5
 21
46.5
  0
LINE
  8
0
 10
-40.5
 20
46.5
 11
-40.4763
 21
46.876
  0
LINE
  8
0
 10
-40.4763
 20
46.876
 11
-40.4057
 21
47.2461
  0
LINE
  8
0
 10
-40.4057
 20
47.2461
 11
-40.2893
 21
47.6044
  0
LINE
  8
0
 10
-40.2893
 20
47.6044
 11
-40.1289
 21
47.9453
  0
LINE
  8
0
 10
-40.1289
 20
47.9453
 11
-39.927
 21
48.2634
  0
LINE
  8
0
 10
-39.927
 20
48.2634
 11
-39.6869
 21
48.5536
  0
LINE
  8
0
 10
-39.6869
 20
48.5536
 11
-39.4123
 21
48.8115
  0
LINE
  8
0
 10
-39.4123
 20
48.8115
 11
-39.1075
 21
49.033
  0
LINE
  8
0
 10
-39.1075
 20
49.033
 11
-38.7773
 21
49.2145
  0
LINE
  8
0
 10
-38.7773
 20
49.2145
 11
-38.427
 21
49.3532
  0
LINE
  8
0
 10
-38.427
 20
49.3532
 11
-38.0621
 21
49.4469
  0
LINE
  8
0
 10
-38.0621
 20
49.4469
 11
-37.6884
 21
49.4941
  0
LINE
  8
0
 10
-37.6884
 20
49.4941
 11
-37.3116
 21
49.4941
  0
LINE
  8
0
 10
-37.3116
 20
49.4941
 11
-36.9379
 21
49.4469
  0
LINE
  8
0
 10
-36.9379
 20
49.4469
 11
-36.5729
 21
49.3532
  0
LINE
  8
0
 10
-36.5729
 20
49.3532
 11
-36.2227
 21
49.2145
  0
LINE
  8
0
 10
-36.2227
 20
49.2145
 11
-35.8925
 21
49.033
  0
LINE
  8
0
 10
-35.8925
 20
49.033
 11
-35.5877
 21
48.8115
  0
LINE
  8
0
 10
-35.5877
 20
48.8115
 11
-35.3131
 21
48.5536
  0
LINE
  8
0
 10
-35.3131
 20
48.5536
 11
-35.0729
 21
48.2634
  0
LINE
  8
0
 10
-35.0729
 20
48.2634
 11
-34.8711
 21
47.9453
  0
LINE
  8
0
 10
-34.8711
 20
47.9453
 11
-34.7107
 21
47.6044
  0
LINE
  8
0
 10
-34.7107
 20
47.6044
 11
-34.6251
 21
47.3411
  0
LINE
  8
0
 10
-34.6251
 20
47.3411
 11
-34.5927
 21
47.3494
  0
LINE
  8
0
 10
-34.5927
 20
47.3494
 11
-33.5337
 21
47.4832
  0
LINE
  8
0
 10
-33.5337
 20
47.4832
 11
-32.4663
 21
47.4832
  0
LINE
  8
0
 10
-32.4663
 20
47.4832
 11
-31.4073
 21
47.3494
  0
LINE
  8
0
 10
-31.4073
 20
47.3494
 11
-30.3734
 21
47.084
  0
LINE
  8
0
 10
-30.3734
 20
47.084
 11
-29.3809
 21
46.691
  0
LINE
  8
0
 10
-29.3809
 20
46.691
 11
-28.4455
 21
46.1768
  0
LINE
  8
0
 10
-28.4455
 20
46.1768
 11
-27.5819
 21
45.5494
  0
LINE
  8
0
 10
-27.5819
 20
45.5494
 11
-26.8038
 21
44.8186
  0
LINE
  8
0
 10
-26.8038
 20
44.8186
 11
-26.1234
 21
43.9962
  0
LINE
  8
0
 10
-26.1234
 20
43.9962
 11
-25.5514
 21
43.0949
  0
LINE
  8
0
 10
-25.5514
 20
43.0949
 11
-25.0969
 21
42.129
  0
LINE
  8
0
 10
-25.0969
 20
42.129
 11
-24.767
 21
41.1139
  0
LINE
  8
0
 10
-24.767
 20
41.1139
 11
-24.567
 21
40.0653
  0
LINE
  8
0
 10
-24.567
 20
40.0653
 11
-24.5
 21
39
  0
LINE
  8
0
 10
-24.5
 20
39
 11
-24.567
 21
37.9347
  0
LINE
  8
0
 10
-24.567
 20
37.9347
 11
-24.767
 21
36.8861
  0
LINE
  8
0
 10
-24.767
 20
36.8861
 11
-25.0969
 21
35.871
  0
LINE
  8
0
 10
-25.0969
 20
35.871
 11
-25.5514
 21
34.9051
  0
LINE
  8
0
 10
-25.5514
 20
34.9051
 11
-26.1234
 21
34.0038
  0
LINE
  8
0
 10
-26.1234
 20
34.0038
 11
-26.8038
 21
33.1814
  0
LINE
  8
0
 10
-26.8038
 20
33.1814
 11
-27.5819
 21
32.4506
  0
LINE
  8
0
 10
-27.5819
 20
32.4506
 11
-28.4455
 21
31.8232
  0
LINE
  8
0
 10
-28.4455
 20
31.8232
 11
-29.3809
 21
31.309
  0
LINE
  8
0
 10
-29.3809
 20
31.309
 11
-30.3734
 21
30.916
  0
LINE
  8
0
 10
-30.3734
 20
30.916
 11
-31.4073
 21
30.6506
  0
LINE
  8
0
 10
-31.4073
 20
30.6506
 11
-32.4663
 21
30.5168
  0
LINE
  8
0
 10
-32.4663
 20
30.5168
 11
-33.5337
 21
30.5168
  0
LINE
  8
0
 10
-33.5337
 20
30.5168
 11
-34.5927
 21
30.6506
  0
LINE
  8
0
 10
-34.5927
 20
30.6506
 11
-34.6251
 21
30.6589
  0
LINE
  8
0
 10
-34.6251
 20
30.6589
 11
-34.7107
 21
30.3956
  0
LINE
  8
0
 10
-34.7107
 20
30.3956
 11
-34.8711
 21
30.0547
  0
LINE
  8
0
 10
-34.8711
 20
30.0547
 11
-35.0729
 21
29.7366
  0
LINE
  8
0
 10
-35.0729
 20
29.7366
 11
-35.3131
 21
29.4464
  0
LINE
  8
0
 10
-35.3131
 20
29.4464
 11
-35.5877
 21
29.1885
  0
LINE
  8
0
 10
-35.5877
 20
29.1885
 11
-35.8925
 21
28.967
  0
LINE
  8
0
 10
-35.8925
 20
28.967
 11
-36.2227
 21
28.7855
  0
LINE
  8
0
 10
-36.2227
 20
28.7855
 11
-36.5729
 21
28.6468
  0
LINE
  8
0
 10
-36.5729
 20
28.6468
 11
-36.9379
 21
28.5531
  0
LINE
  8
0
 10
-36.9379
 20
28.5531
 11
-37.3116
 21
28.5059
  0
LINE
  8
0
 10
-37.3116
 20
28.5059
 11
-37.6884
 21
28.5059
  0
LINE
  8
0
 10
37.3116
 20
28.5059
 11
36.9379
 21
28.5531
  0
LINE
  8
0
 10
36.9379
 20
28.5531
 11
36.5729
 21
28.6468
  0
LINE
  8
0
 10
36.5729
 20
28.6468
 11
36.2227
 21
28.7855
  0
LINE
  8
0
 10
36.2227
 20
28.7855
 11
35.8925
 21
28.967
  0
LINE
  8
0
 10
35.8925
 20
28.967
 11
35.5877
 21
29.1885
  0
LINE
  8
0
 10
35.5877
 20
29.1885
 11
35.3131
 21
29.4464
  0
LINE
  8
0
 10
35.3131
 20
29.4464
 11
35.0729
 21
29.7366
  0
LINE
  8
0
 10
35.0729
 20
29.7366
 11
34.8711
 21
30.0547
  0
LINE
  8
0
 10
34.8711
 20
30.0547
 11
34.7107
 21
30.3956
  0
LINE
  8
0
 10
34.7107
 20
30.3956
 11
34.6251
 21
30.6589
  0
LINE
  8
0
 10
34.6251
 20
30.6589
 11
34.5927
 21
30.6506
  0
LINE
  8
0
 10
34.5927
 20
30.6506
 11
33.5337
 21
30.5168
  0
LINE
  8
0
 10
33.5337
 20
30.5168
 11
32.4663
 21
30.5168
  0
LINE
  8
0
 10
32.4663
 20
30.5168
 11
31.4073
 21
30.6506
  0
LINE
  8
0
 10
31.4073
 20
30.6506
 11
30.3734
 21
30.916
  0
LINE
  8
0
 10
30.3734
 20
30.916
 11
29.3809
 21
31.309
  0
LINE
  8
0
 10
29.3809
 20
31.309
 11
28.4455
 21
31.8232
  0
LINE
  8
0
 10
28.4455
 20
31.8232
 11
27.5819
 21
32.4506
  0
LINE
  8
0
 10
27.5819
 20
32.4506
 11
26.8038
 21
33.1814
  0
LINE
  8
0
 10
26.8038
 20
33.1814
 11
26.1234
 21
34.0038
  0
LINE
  8
0
 10
26.1234
 20
34.0038
 11
25.5514
 21
34.9051
  0
LINE
  8
0
 10
25.5514
 20
34.9051
 11
25.0969
 21
35.871
  0
LINE
  8
0
 10
25.0969
 20
35.871
 11
24.767
 21
36.8861
  0
LINE
  8
0
 10
24.767
 20
36.8861
 11
24.567
 21
37.9347
  0
LINE
  8
0
 10
24.567
 20
37.9347
 11
24.5
 21
39
  0
LINE
  8
0
 10
24.5
 20
39
 11
24.567
 21
40.0653
  0
LINE
  8
0
 10
24.567
 20
40.0653
 11
24.767
 21
41.1139
  0
LINE
  8
0
 10
24.767
 20
41.1139
 11
25.0969
 21
42.129
  0
LINE
  8
0
 10
25.0969
 20
42.129
 11
25.5514
 21
43.0949
  0
LINE
  8
0
 10
25.5514
 20
43.0949
 11
26.1234
 21
43.9962
  0
LINE
  8
0
 10
26.1234
 20
43.9962
 11
26.8038
 21
44.8186
  0
LINE
  8
0
 10
26.8038
 20
44.8186
 11
27.5819
 21
45.5494
  0
LINE
  8
0
 10
27.5819
 20
45.5494
 11
28.4455
 21
46.1768
  0
LINE
  8
0
 10
28.4455
 20
46.1768
 11
29.3809
 21
46.691
  0
LINE
  8
0
 10
29.3809
 20
46.691
 11
30.3734
 21
47.084
  0
LINE
  8
0
 10
30.3734
 20
47.084
 11
31.4073
 21
47.3494
  0
LINE
  8
0
 10
31.4073
 20
47.3494
 11
32.4663
 21
47.4832
  0
LINE
  8
0
 10
32.4663
 20
47.4832
 11
33.5337
 21
47.4832
  0
LINE
  8
0
 10
33.5337
 20
47.4832
 11
34.5927
 21
47.3494
  0
LINE
  8
0
 10
34.5927
 20
47.3494
 11
34.6251
 21
47.3411
  0
LINE
  8
0
 10
34.6251
 20
47.3411
 11
34.7107
 21
47.6044
  0
LINE
  8
0
 10
34.7107
 20
47.6044
 11
34.8711
 21
47.9453
  0
LINE
  8
0
 10
34.8711
 20
47.9453
 11
35.0729
 21
48.2634
  0
LINE
  8
0
 10
35.0729
 20
48.2634
 11
35.3131
 21
48.5536
  0
LINE
  8
0
 10
35.3131
 20
48.5536
 11
35.5877
 21
48.8115
  0
LINE
  8
0
 10
35.5877
 20
48.8115
 11
35.8925
 21
49.033
  0
LINE
  8
0
 10
35.8925
 20
49.033
 11
36.2227
 21
49.2145
  0
LINE
  8
0
 10
36.2227
 20
49.2145
 11
36.5729
 21
49.3532
  0
LINE
  8
0
 10
36.5729
 20
49.3532
 11
36.9379
 21
49.4469
  0
LINE
  8
0
 10
36.9379
 20
49.4469
 11
37.3116
 21
49.4941
  0
LINE
  8
0
 10
37.3116
 20
49.4941
 11
37.6884
 21
49.4941
  0
LINE
  8
0
 10
37.6884
 20
49.4941
 11
38.0621
 21
49.4469
  0
LINE
  8
0
 10
38.0621
 20
49.4469
 11
38.427
 21
49.3532
  0
LINE
  8
0
 10
38.427
 20
49.3532
 11
38.7773
 21
49.2145
  0
LINE
  8
0
 10
38.7773
 20
49.2145
 11
39.1075
 21
49.033
  0
LINE
  8
0
 10
39.1075
 20
49.033
 11
39.4123
 21
48.8115
  0
LINE
  8
0
 10
39.4123
 20
48.8115
 11
39.6869
 21
48.5536
  0
LINE
  8
0
 10
39.6869
 20
48.5536
 11
39.927
 21
48.2634
  0
LINE
  8
0
 10
39.927
 20
48.2634
 11
40.1289
 21
47.9453
  0
LINE
  8
0
 10
40.1289
 20
47.9453
 11
40.2893
 21
47.6044
  0
LINE
  8
0
 10
40.2893
 20
47.6044
 11
40.4057
 21
47.2461
  0
LINE
  8
0
 10
40.4057
 20
47.2461
 11
40.4763
 21
46.876
  0
LINE
  8
0
 10
40.4763
 20
46.876
 11
40.5
 21
46.5
  0
LINE
  8
0
 10
40.5
 20
46.5
 11
40.4763
 21
46.124
  0
LINE
  8
0
 10
40.4763
 20
46.124
 11
40.4057
 21
45.7539
  0
LINE
  8
0
 10
40.4057
 20
45.7539
 11
40.2893
 21
45.3956
  0
LINE
  8
0
 10
40.2893
 20
45.3956
 11
40.1289
 21
45.0547
  0
LINE
  8
0
 10
40.1289
 20
45.0547
 11
39.927
 21
44.7366
  0
LINE
  8
0
 10
39.927
 20
44.7366
 11
39.6869
 21
44.4464
  0
LINE
  8
0
 10
39.6869
 20
44.4464
 11
39.5841
 21
44.3498
  0
LINE
  8
0
 10
39.5841
 20
44.3498
 11
39.8766
 21
43.9962
  0
LINE
  8
0
 10
39.8766
 20
43.9962
 11
40.4486
 21
43.0949
  0
LINE
  8
0
 10
40.4486
 20
43.0949
 11
40.9031
 21
42.129
  0
LINE
  8
0
 10
40.9031
 20
42.129
 11
41.233
 21
41.1139
  0
LINE
  8
0
 10
41.233
 20
41.1139
 11
41.433
 21
40.0653
  0
LINE
  8
0
 10
41.433
 20
40.0653
 11
41.5
 21
39
  0
LINE
  8
0
 10
41.5
 20
39
 11
41.433
 21
37.9347
  0
LINE
  8
0
 10
41.433
 20
37.9347
 11
41.233
 21
36.8861
  0
LINE
  8
0
 10
41.233
 20
36.8861
 11
40.9031
 21
35.871
  0
LINE
  8
0
 10
40.9031
 20
35.871
 11
40.4486
 21
34.9051
  0
LINE
  8
0
 10
40.4486
 20
34.9051
 11
39.8766
 21
34.0038
  0
LINE
  8
0
 10
39.8766
 20
34.0038
 11
39.5841
 21
33.6502
  0
LINE
  8
0
 10
39.5841
 20
33.6502
 11
39.6869
 21
33.5536
  0
LINE
  8
0
 10
39.6869
 20
33.5536
 11
39.927
 21
33.2634
  0
LINE
  8
0
 10
39.927
 20
33.2634
 11
40.1289
 21
32.9453
  0
LINE
  8
0
 10
40.1289
 20
32.9453
 11
40.2893
 21
32.6044
  0
LINE
  8
0
 10
40.2893
 20
32.6044
 11
40.4057
 21
32.2461
  0
LINE
  8
0
 10
40.4057
 20
32.2461
 11
40.4763
 21
31.876
  0
LINE
  8
0
 10
40.4763
 20
31.876
 11
40.5
 21
31.5
  0
LINE
  8
0
 10
40.5
 20
31.5
 11
40.4763
 21
31.124
  0
LINE
  8
0
 10
40.4763
 20
31.124
 11
40.4057
 21
30.7539
  0
LINE
  8
0
 10
40.4057
 20
30.7539
 11
40.2893
 21
30.3956
  0
LINE
  8
0
 10
40.2893
 20
30.3956
 11
40.1289
 21
30.0547
  0
LINE
  8
0
 10
40.1289
 20
30.0547
 11
39.927
 21
29.7366
  0
LINE
  8
0
 10
39.927
 20
29.7366
 11
39.6869
 21
29.4464
  0
LINE
  8
0
 10
39.6869
 20
29.4464
 11
39.4123
 21
29.1885
  0
LINE
  8
0
 10
39.4123
 20
29.1885
 11
39.1075
 21
28.967
  0
LINE
  8
0
 10
39.1075
 20
28.967
 11
38.7773
 21
28.7855
  0
LINE
  8
0
 10
38.7773
 20
28.7855
 11
38.427
 21
28.6468
  0
LINE
  8
0
 10
38.427
 20
28.6468
 11
38.0621
 21
28.5531
  0
LINE
  8
0
 10
38.0621
 20
28.5531
 11
37.6884
 21
28.5059
  0
LINE
  8
0
 10
37.6884
 20
28.5059
 11
37.3116
 21
28.5059
  0
LINE
  8
0
 10
10.4663
 20
30.5168
 11
9.40726
 21
30.6506
  0
LINE
  8
0
 10
9.40726
 20
30.6506
 11
8.37335
 21
30.916
  0
LINE
  8
0
 10
8.37335
 20
30.916
 11
7.38087
 21
31.309
  0
LINE
  8
0
 10
7.38087
 20
31.309
 11
6.44547
 21
31.8232
  0
LINE
  8
0
 10
6.44547
 20
31.8232
 11
5.58189
 21
32.4506
  0
LINE
  8
0
 10
5.58189
 20
32.4506
 11
4.80376
 21
33.1814
  0
LINE
  8
0
 10
4.80376
 20
33.1814
 11
4.12335
 21
34.0038
  0
LINE
  8
0
 10
4.12335
 20
34.0038
 11
3.55139
 21
34.9051
  0
LINE
  8
0
 10
3.55139
 20
34.9051
 11
3.09689
 21
35.871
  0
LINE
  8
0
 10
3.09689
 20
35.871
 11
2.76703
 21
36.8861
  0
LINE
  8
0
 10
2.76703
 20
36.8861
 11
2.56702
 21
37.9347
  0
LINE
  8
0
 10
2.56702
 20
37.9347
 11
2.5
 21
39
  0
LINE
  8
0
 10
2.5
 20
39
 11
2.56702
 21
40.0653
  0
LINE
  8
0
 10
2.56702
 20
40.0653
 11
2.76703
 21
41.1139
  0
LINE
  8
0
 10
2.76703
 20
41.1139
 11
3.09689
 21
42.129
  0
LINE
  8
0
 10
3.09689
 20
42.129
 11
3.55139
 21
43.0949
  0
LINE
  8
0
 10
3.55139
 20
43.0949
 11
4.12335
 21
43.9962
  0
LINE
  8
0
 10
4.12335
 20
43.9962
 11
4.80376
 21
44.8186
  0
LINE
  8
0
 10
4.80376
 20
44.8186
 11
5.58189
 21
45.5494
  0
LINE
  8
0
 10
5.58189
 20
45.5494
 11
6.44547
 21
46.1768
  0
LINE
  8
0
 10
6.44547
 20
46.1768
 11
7.38087
 21
46.691
  0
LINE
  8
0
 10
7.38087
 20
46.691
 11
8.37335
 21
47.084
  0
LINE
  8
0
 10
8.37335
 20
47.084
 11
9.40726
 21
47.3494
  0
LINE
  8
0
 10
9.40726
 20
47.3494
 11
10.4663
 21
47.4832
  0
LINE
  8
0
 10
10.4663
 20
47.4832
 11
11.5337
 21
47.4832
  0
LINE
  8
0
 10
11.5337
 20
47.4832
 11
12.5927
 21
47.3494
  0
LINE
  8
0
 10
12.5927
 20
47.3494
 11
13.6266
 21
47.084
  0
LINE
  8
0
 10
13.6266
 20
47.084
 11
14.6191
 21
46.691
  0
LINE
  8
0
 10
14.6191
 20
46.691
 11
15.5545
 21
46.1768
  0
LINE
  8
0
 10
15.5545
 20
46.1768
 11
16.4181
 21
45.5494
  0
LINE
  8
0
 10
16.4181
 20
45.5494
 11
17.1962
 21
44.8186
  0
LINE
  8
0
 10
17.1962
 20
44.8186
 11
17.8766
 21
43.9962
  0
LINE
  8
0
 10
17.8766
 20
43.9962
 11
18.4486
 21
43.0949
  0
LINE
  8
0
 10
18.4486
 20
43.0949
 11
18.9031
 21
42.129
  0
LINE
  8
0
 10
18.9031
 20
42.129
 11
19.233
 21
41.1139
  0
LINE
  8
0
 10
19.233
 20
41.1139
 11
19.433
 21
40.0653
  0
LINE
  8
0
 10
19.433
 20
40.0653
 11
19.5
 21
39
  0
LINE
  8
0
 10
19.5
 20
39
 11
19.433
 21
37.9347
  0
LINE
  8
0
 10
19.433
 20
37.9347
 11
19.233
 21
36.8861
  0
LINE
  8
0
 10
19.233
 20
36.8861
 11
18.9031
 21
35.871
  0
LINE
  8
0
 10
18.9031
 20
35.871
 11
18.4486
 21
34.9051
  0
LINE
  8
0
 10
18.4486
 20
34.9051
 11
17.8766
 21
34.0038
  0
LINE
  8
0
 10
17.8766
 20
34.0038
 11
17.1962
 21
33.1814
  0
LINE
  8
0
 10
17.1962
 20
33.1814
 11
16.4181
 21
32.4506
  0
LINE
  8
0
 10
16.4181
 20
32.4506
 11
15.5545
 21
31.8232
  0
LINE
  8
0
 10
15.5545
 20
31.8232
 11
14.6191
 21
31.309
  0
LINE
  8
0
 10
14.6191
 20
31.309
 11
13.6266
 21
30.916
  0
LINE
  8
0
 10
13.6266
 20
30.916
 11
12.5927
 21
30.6506
  0
LINE
  8
0
 10
12.5927
 20
30.6506
 11
11.5337
 21
30.5168
  0
LINE
  8
0
 10
11.5337
 20
30.5168
 11
10.4663
 21
30.5168
  0
LINE
  8
0
 10
-11.5337
 20
30.5168
 11
-12.5927
 21
30.6506
  0
LINE
  8
0
 10
-12.5927
 20
30.6506
 11
-13.6266
 21
30.916
  0
LINE
  8
0
 10
-13.6266
 20
30.916
 11
-14.6191
 21
31.309
  0
LINE
  8
0
 10
-14.6191
 20
31.309
 11
-15.5545
 21
31.8232
  0
LINE
  8
0
 10
-15.5545
 20
31.8232
 11
-16.4181
 21
32.4506
  0
LINE
  8
0
 10
-16.4181
 20
32.4506
 11
-17.1962
 21
33.1814
  0
LINE
  8
0
 10
-17.1962
 20
33.1814
 11
-17.8766
 21
34.0038
  0
LINE
  8
0
 10
-17.8766
 20
34.0038
 11
-18.4486
 21
34.9051
  0
LINE
  8
0
 10
-18.4486
 20
34.9051
 11
-18.9031
 21
35.871
  0
LINE
  8
0
 10
-18.9031
 20
35.871
 11
-19.233
 21
36.8861
  0
LINE
  8
0
 10
-19.233
 20
36.8861
 11
-19.433
 21
37.9347
  0
LINE
  8
0
 10
-19.433
 20
37.9347
 11
-19.5
 21
39
  0
LINE
  8
0
 10
-19.5
 20
39
 11
-19.433
 21
40.0653
  0
LINE
  8
0
 10
-19.433
 20
40.0653
 11
-19.233
 21
41.1139
  0
LINE
  8
0
 10
-19.233
 20
41.1139
 11
-18.9031
 21
42.129
  0
LINE
  8
0
 10
-18.9031
 20
42.129
 11
-18.4486
 21
43.0949
  0
LINE
  8
0
 10
-18.4486
 20
43.0949
 11
-17.8766
 21
43.9962
  0
LINE
  8
0
 10
-17.8766
 20
43.9962
 11
-17.1962
 21
44.8186
  0
LINE
  8
0
 10
-17.1962
 20
44.8186
 11
-16.4181
 21
45.5494
  0
LINE
  8
0
 10
-16.4181
 20
45.5494
 11
-15.5545
 21
46.1768
  0
LINE
  8
0
 10
-15.5545
 20
46.1768
 11
-14.6191
 21
46.691
  0
LINE
  8
0
 10
-14.6191
 20
46.691
 11
-13.6266
 21
47.084
  0
LINE
  8
0
 10
-13.6266
 20
47.084
 11
-12.5927
 21
47.3494
  0
LINE
  8
0
 10
-12.5927
 20
47.3494
 11
-11.5337
 21
47.4832
  0
LINE
  8
0
 10
-11.5337
 20
47.4832
 11
-10.4663
 21
47.4832
  0
LINE
  8
0
 10
-10.4663
 20
47.4832
 11
-9.40726
 21
47.3494
  0
LINE
  8
0
 10
-9.40726
 20
47.3494
 11
-8.37335
 21
47.084
  0
LINE
  8
0
 10
-8.37335
 20
47.084
 11
-7.38087
 21
46.691
  0
LINE
  8
0
 10
-7.38087
 20
46.691
 11
-6.44547
 21
46.1768
  0
LINE
  8
0
 10
-6.44547
 20
46.1768
 11
-5.58189
 21
45.5494
  0
LINE
  8
0
 10
-5.58189
 20
45.5494
 11
-4.80376
 21
44.8186
  0
LINE
  8
0
 10
-4.80376
 20
44.8186
 11
-4.12335
 21
43.9962
  0
LINE
  8
0
 10
-4.12335
 20
43.9962
 11
-3.55139
 21
43.0949
  0
LINE
  8
0
 10
-3.55139
 20
43.0949
 11
-3.09689
 21
42.129
  0
LINE
  8
0
 10
-3.09689
 20
42.129
 11
-2.76703
 21
41.1139
  0
LINE
  8
0
 10
-2.76703
 20
41.1139
 11
-2.56702
 21
40.0653
  0
LINE
  8
0
 10
-2.56702
 20
40.0653
 11
-2.5
 21
39
  0
LINE
  8
0
 10
-2.5
 20
39
 11
-2.56702
 21
37.9347
  0
LINE
  8
0
 10
-2.56702
 20
37.9347
 11
-2.76703
 21
36.8861
  0
LINE
  8
0
 10
-2.76703
 20
36.8861
 11
-3.09689
 21
35.871
  0
LINE
  8
0
 10
-3.09689
 20
35.871
 11
-3.55139
 21
34.9051
  0
LINE
  8
0
 10
-3.55139
 20
34.9051
 11
-4.12335
 21
34.0038
  0
LINE
  8
0
 10
-4.12335
 20
34.0038
 11
-4.80376
 21
33.1814
  0
LINE
  8
0
 10
-4.80376
 20
33.1814
 11
-5.58189
 21
32.4506
  0
LINE
  8
0
 10
-5.58189
 20
32.4506
 11
-6.44547
 21
31.8232
  0
LINE
  8
0
 10
-6.44547
 20
31.8232
 11
-7.38087
 21
31.309
  0
LINE
  8
0
 10
-7.38087
 20
31.309
 11
-8.37335
 21
30.916
  0
LINE
  8
0
 10
-8.37335
 20
30.916
 11
-9.40726
 21
30.6506
  0
LINE
  8
0
 10
-9.40726
 20
30.6506
 11
-10.4663
 21
30.5168
  0
LINE
  8
0
 10
-10.4663
 20
30.5168
 11
-11.5337
 21
30.5168
  0
ENDSEC
  0
SECTION
  2
OBJECTS
  0
DICTIONARY
  0
ENDSEC
  0
EOF
