<?xml version="1.0" standalone="no"?>
<!DOCTYPE svg PUBLIC "-//W3C//DTD SVG 1.1//EN" "http://www.w3.org/Graphics/SVG/1.1/DTD/svg11.dtd">
<svg width="660mm" height="134mm" viewBox="-330 -67 660 134" xmlns="http://www.w3.org/2000/svg" version="1.1">
<title>OpenSCAD Model</title>
<path d="
M 325.437,66.9114 L 326.045,66.7553 L 326.629,66.5241 L 327.179,66.2216 L 327.687,65.8526 L 328.145,65.4227
 L 328.545,64.9389 L 328.882,64.4088 L 329.149,63.8406 L 329.343,63.2434 L 329.461,62.6267 L 329.5,62
 L 329.5,-62 L 329.461,-62.6267 L 329.343,-63.2434 L 329.149,-63.8406 L 328.882,-64.4088 L 328.545,-64.9389
 L 328.145,-65.4227 L 327.687,-65.8526 L 327.179,-66.2216 L 326.629,-66.5241 L 326.045,-66.7553 L 325.437,-66.9114
 L 324.814,-66.9901 L -324.814,-66.9901 L -325.437,-66.9114 L -326.045,-66.7553 L -326.629,-66.5241 L -327.179,-66.2216
 L -327.687,-65.8526 L -328.145,-65.4227 L -328.545,-64.9389 L -328.882,-64.4088 L -329.149,-63.8406 L -329.343,-63.2434
 L -329.461,-62.6267 L -329.5,-62 L -329.5,62 L -329.461,62.6267 L -329.343,63.2434 L -329.149,63.8406
 L -328.882,64.4088 L -328.545,64.9389 L -328.145,65.4227 L -327.687,65.8526 L -327.179,66.2216 L -326.629,66.5241
 L -326.045,66.7553 L -325.437,66.9114 L -324.814,66.9901 L 324.814,66.9901 z
M -322.688,-57.0059 L -323.062,-57.0531 L -323.427,-57.1468 L -323.777,-57.2855 L -324.107,-57.467 L -324.412,-57.6885
 L -324.687,-57.9464 L -324.927,-58.2366 L -325.129,-58.5547 L -325.289,-58.8956 L -325.406,-59.2539 L -325.476,-59.624
 L -325.5,-60 L -325.476,-60.376 L -325.406,-60.7461 L -325.289,-61.1044 L -325.129,-61.4453 L -324.927,-61.7634
 L -324.687,-62.0536 L -324.412,-62.3115 L -324.107,-62.533 L -323.777,-62.7145 L -323.427,-62.8532 L -323.062,-62.9469
 L -322.688,-62.9941 L -322.312,-62.9941 L -321.938,-62.9469 L -321.573,-62.8532 L -321.223,-62.7145 L -320.893,-62.533
 L -320.588,-62.3115 L -320.313,-62.0536 L -320.073,-61.7634 L -319.871,-61.4453 L -319.711,-61.1044 L -319.594,-60.7461
 L -319.524,-60.376 L -319.5,-60 L -319.524,-59.624 L -319.594,-59.2539 L -319.711,-58.8956 L -319.871,-58.5547
 L -320.073,-58.2366 L -320.313,-57.9464 L -320.588,-57.6885 L -320.893,-57.467 L -321.223,-57.2855 L -321.573,-57.1468
 L -321.938,-57.0531 L -322.312,-57.0059 z
M 322.312,-57.0059 L 321.938,-57.0531 L 321.573,-57.1468 L 321.223,-57.2855 L 320.893,-57.467 L 320.588,-57.6885
 L 320.313,-57.9464 L 320.073,-58.2366 L 319.871,-58.5547 L 319.711,-58.8956 L 319.594,-59.2539 L 319.524,-59.624
 L 319.5,-60 L 319.524,-60.376 L 319.594,-60.7461 L 319.711,-61.1044 L 319.871,-61.4453 L 320.073,-61.7634
 L 320.313,-62.0536 L 320.588,-62.3115 L 320.893,-62.533 L 321.223,-62.7145 L 321.573,-62.8532 L 321.938,-62.9469
 L 322.312,-62.9941 L 322.688,-62.9941 L 323.062,-62.9469 L 323.427,-62.8532 L 323.777,-62.7145 L 324.107,-62.533
 L 324.412,-62.3115 L 324.687,-62.0536 L 324.927,-61.7634 L 325.129,-61.4453 L 325.289,-61.1044 L 325.406,-60.7461
 L 325.476,-60.376 L 325.5,-60 L 325.476,-59.624 L 325.406,-59.2539 L 325.289,-58.8956 L 325.129,-58.5547
 L 324.927,-58.2366 L 324.687,-57.9464 L 324.412,-57.6885 L 324.107,-57.467 L 323.777,-57.2855 L 323.427,-57.1468
 L 323.062,-57.0531 L 322.688,-57.0059 z
M 256.076,62.3767 L 248.289,61.3929 L 240.686,59.441 L 233.389,56.5517 L 226.511,52.7705 L 220.161,48.1571
 L 214.439,42.7842 L 209.436,36.7366 L 205.231,30.1096 L 201.889,23.0078 L 199.464,15.5431 L 197.993,7.83331
 L 197.5,-0 L 197.993,-7.83331 L 199.464,-15.5431 L 201.889,-23.0078 L 205.231,-30.1096 L 209.436,-36.7366
 L 214.439,-42.7842 L 220.161,-48.1571 L 226.511,-52.7705 L 233.389,-56.5517 L 240.686,-59.441 L 248.289,-61.3929
 L 256.076,-62.3767 L 263.924,-62.3767 L 271.711,-61.3929 L 279.314,-59.441 L 286.611,-56.5517 L 293.489,-52.7705
 L 299.839,-48.1571 L 305.561,-42.7842 L 310.564,-36.7366 L 314.769,-30.1096 L 318.111,-23.0078 L 320.536,-15.5431
 L 322.007,-7.83331 L 322.5,-0 L 322.007,7.83331 L 320.536,15.5431 L 318.111,23.0078 L 314.769,30.1096
 L 310.564,36.7366 L 305.561,42.7842 L 299.839,48.1571 L 293.489,52.7705 L 286.611,56.5517 L 279.314,59.441
 L 271.711,61.3929 L 263.924,62.3767 z
M -133.924,62.3767 L -141.711,61.3929 L -149.314,59.441 L -156.611,56.5517 L -163.489,52.7705 L -169.839,48.1571
 L -175.561,42.7842 L -180.564,36.7366 L -184.769,30.1096 L -188.111,23.0078 L -190.536,15.5431 L -192.007,7.83331
 L -192.5,-0 L -192.007,-7.83331 L -190.536,-15.5431 L -188.111,-23.0078 L -184.769,-30.1096 L -180.564,-36.7366
 L -175.561,-42.7842 L -169.839,-48.1571 L -163.489,-52.7705 L -156.611,-56.5517 L -149.314,-59.441 L -141.711,-61.3929
 L -133.924,-62.3767 L -126.076,-62.3767 L -118.289,-61.3929 L -110.686,-59.441 L -103.389,-56.5517 L -96.5108,-52.7705
 L -90.161,-48.1571 L -84.4395,-42.7842 L -79.4364,-36.7366 L -75.2308,-30.1096 L -71.889,-23.0078 L -69.4635,-15.5431
 L -67.9928,-7.83331 L -67.5,-0 L -67.9928,7.83331 L -69.4635,15.5431 L -71.889,23.0078 L -75.2308,30.1096
 L -79.4364,36.7366 L -84.4395,42.7842 L -90.161,48.1571 L -96.5108,52.7705 L -103.389,56.5517 L -110.686,59.441
 L -118.289,61.3929 L -126.076,62.3767 z
M -263.924,62.3767 L -271.711,61.3929 L -279.314,59.441 L -286.611,56.5517 L -293.489,52.7705 L -299.839,48.1571
 L -305.561,42.7842 L -310.564,36.7366 L -314.769,30.1096 L -318.111,23.0078 L -320.536,15.5431 L -322.007,7.83331
 L -322.5,-0 L -322.007,-7.83331 L -320.536,-15.5431 L -318.111,-23.0078 L -314.769,-30.1096 L -310.564,-36.7366
 L -305.561,-42.7842 L -299.839,-48.1571 L -293.489,-52.7705 L -286.611,-56.5517 L -279.314,-59.441 L -271.711,-61.3929
 L -263.924,-62.3767 L -256.076,-62.3767 L -248.289,-61.3929 L -240.686,-59.441 L -233.389,-56.5517 L -226.511,-52.7705
 L -220.161,-48.1571 L -214.439,-42.7842 L -209.436,-36.7366 L -205.231,-30.1096 L -201.889,-23.0078 L -199.464,-15.5431
 L -197.993,-7.83331 L -197.5,-0 L -197.993,7.83331 L -199.464,15.5431 L -201.889,23.0078 L -205.231,30.1096
 L -209.436,36.7366 L -214.439,42.7842 L -220.161,48.1571 L -226.511,52.7705 L -233.389,56.5517 L -240.686,59.441
 L -248.289,61.3929 L -256.076,62.3767 z
M -3.92439,62.3767 L -11.7113,61.3929 L -19.3136,59.441 L -26.6112,56.5517 L -33.4892,52.7705 L -39.839,48.1571
 L -45.5605,42.7842 L -50.5636,36.7366 L -54.7692,30.1096 L -58.111,23.0078 L -60.5364,15.5431 L -62.0072,7.83331
 L -62.5,-0 L -62.0072,-7.83331 L -60.5364,-15.5431 L -58.111,-23.0078 L -54.7692,-30.1096 L -50.5636,-36.7366
 L -45.5605,-42.7842 L -39.839,-48.1571 L -33.4892,-52.7705 L -26.6112,-56.5517 L -19.3136,-59.441 L -11.7113,-61.3929
 L -3.92439,-62.3767 L 3.92439,-62.3767 L 11.7113,-61.3929 L 19.3136,-59.441 L 26.6112,-56.5517 L 33.4892,-52.7705
 L 39.839,-48.1571 L 45.5605,-42.7842 L 50.5636,-36.7366 L 54.7692,-30.1096 L 58.111,-23.0078 L 60.5364,-15.5431
 L 62.0072,-7.83331 L 62.5,-0 L 62.0072,7.83331 L 60.5364,15.5431 L 58.111,23.0078 L 54.7692,30.1096
 L 50.5636,36.7366 L 45.5605,42.7842 L 39.839,48.1571 L 33.4892,52.7705 L 26.6112,56.5517 L 19.3136,59.441
 L 11.7113,61.3929 L 3.92439,62.3767 z
M 126.076,62.3767 L 118.289,61.3929 L 110.686,59.441 L 103.389,56.5517 L 96.5108,52.7705 L 90.161,48.1571
 L 84.4395,42.7842 L 79.4364,36.7366 L 75.2308,30.1096 L 71.889,23.0078 L 69.4635,15.5431 L 67.9928,7.83331
 L 67.5,-0 L 67.9928,-7.83331 L 69.4635,-15.5431 L 71.889,-23.0078 L 75.2308,-30.1096 L 79.4364,-36.7366
 L 84.4395,-42.7842 L 90.161,-48.1571 L 96.5108,-52.7705 L 103.389,-56.5517 L 110.686,-59.441 L 118.289,-61.3929
 L 126.076,-62.3767 L 133.924,-62.3767 L 141.711,-61.3929 L 149.314,-59.441 L 156.611,-56.5517 L 163.489,-52.7705
 L 169.839,-48.1571 L 175.561,-42.7842 L 180.564,-36.7366 L 184.769,-30.1096 L 188.111,-23.0078 L 190.536,-15.5431
 L 192.007,-7.83331 L 192.5,-0 L 192.007,7.83331 L 190.536,15.5431 L 188.111,23.0078 L 184.769,30.1096
 L 180.564,36.7366 L 175.561,42.7842 L 169.839,48.1571 L 163.489,52.7705 L 156.611,56.5517 L 149.314,59.441
 L 141.711,61.3929 L 133.924,62.3767 z
M 322.312,62.9941 L 321.938,62.9469 L 321.573,62.8532 L 321.223,62.7145 L 320.893,62.533 L 320.588,62.3115
 L 320.313,62.0536 L 320.073,61.7634 L 319.871,61.4453 L 319.711,61.1044 L 319.594,60.7461 L 319.524,60.376
 L 319.5,60 L 319.524,59.624 L 319.594,59.2539 L 319.711,58.8956 L 319.871,58.5547 L 320.073,58.2366
 L 320.313,57.9464 L 320.588,57.6885 L 320.893,57.467 L 321.223,57.2855 L 321.573,57.1468 L 321.938,57.0531
 L 322.312,57.0059 L 322.688,57.0059 L 323.062,57.0531 L 323.427,57.1468 L 323.777,57.2855 L 324.107,57.467
 L 324.412,57.6885 L 324.687,57.9464 L 324.927,58.2366 L 325.129,58.5547 L 325.289,58.8956 L 325.406,59.2539
 L 325.476,59.624 L 325.5,60 L 325.476,60.376 L 325.406,60.7461 L 325.289,61.1044 L 325.129,61.4453
 L 324.927,61.7634 L 324.687,62.0536 L 324.412,62.3115 L 324.107,62.533 L 323.777,62.7145 L 323.427,62.8532
 L 323.062,62.9469 L 322.688,62.9941 z
M -322.688,62.9941 L -323.062,62.9469 L -323.427,62.8532 L -323.777,62.7145 L -324.107,62.533 L -324.412,62.3115
 L -324.687,62.0536 L -324.927,61.7634 L -325.129,61.4453 L -325.289,61.1044 L -325.406,60.7461 L -325.476,60.376
 L -325.5,60 L -325.476,59.624 L -325.406,59.2539 L -325.289,58.8956 L -325.129,58.5547 L -324.927,58.2366
 L -324.687,57.9464 L -324.412,57.6885 L -324.107,57.467 L -323.777,57.2855 L -323.427,57.1468 L -323.062,57.0531
 L -322.688,57.0059 L -322.312,57.0059 L -321.938,57.0531 L -321.573,57.1468 L -321.223,57.2855 L -320.893,57.467
 L -320.588,57.6885 L -320.313,57.9464 L -320.073,58.2366 L -319.871,58.5547 L -319.711,58.8956 L -319.594,59.2539
 L -319.524,59.624 L -319.5,60 L -319.524,60.376 L -319.594,60.7461 L -319.711,61.1044 L -319.871,61.4453
 L -320.073,61.7634 L -320.313,62.0536 L -320.588,62.3115 L -320.893,62.533 L -321.223,62.7145 L -321.573,62.8532
 L -321.938,62.9469 L -322.312,62.9941 z
" stroke="black" fill="lightgray" stroke-width="0.5"/>
</svg>
