<?xml version="1.0" standalone="no"?>
<!DOCTYPE svg PUBLIC "-//W3C//DTD SVG 1.1//EN" "http://www.w3.org/Graphics/SVG/1.1/DTD/svg11.dtd">
<svg width="584mm" height="150mm" viewBox="-292 -75 584 150" xmlns="http://www.w3.org/2000/svg" version="1.1">
<title>OpenSCAD Model</title>
<path d="
M 287.937,74.4114 L 288.545,74.2553 L 289.129,74.0241 L 289.679,73.7216 L 290.187,73.3526 L 290.645,72.9227
 L 291.045,72.4389 L 291.382,71.9088 L 291.649,71.3406 L 291.843,70.7434 L 291.961,70.1267 L 292,69.5
 L 292,-69.5 L 291.961,-70.1267 L 291.843,-70.7434 L 291.649,-71.3406 L 291.382,-71.9088 L 291.045,-72.4389
 L 290.645,-72.9227 L 290.187,-73.3526 L 289.679,-73.7216 L 289.129,-74.0241 L 288.545,-74.2553 L 287.937,-74.4114
 L 287.314,-74.4901 L -287.314,-74.4901 L -287.937,-74.4114 L -288.545,-74.2553 L -289.129,-74.0241 L -289.679,-73.7216
 L -290.187,-73.3526 L -290.645,-72.9227 L -291.045,-72.4389 L -291.382,-71.9088 L -291.649,-71.3406 L -291.843,-70.7434
 L -291.961,-70.1267 L -292,-69.5 L -292,69.5 L -291.961,70.1267 L -291.843,70.7434 L -291.649,71.3406
 L -291.382,71.9088 L -291.045,72.4389 L -290.645,72.9227 L -290.187,73.3526 L -289.679,73.7216 L -289.129,74.0241
 L -288.545,74.2553 L -287.937,74.4114 L -287.314,74.4901 L 287.314,74.4901 z
M 284.812,-64.5059 L 284.438,-64.5531 L 284.073,-64.6468 L 283.723,-64.7855 L 283.393,-64.967 L 283.088,-65.1885
 L 282.813,-65.4464 L 282.573,-65.7366 L 282.371,-66.0547 L 282.211,-66.3956 L 282.094,-66.7539 L 282.024,-67.124
 L 282,-67.5 L 282.024,-67.876 L 282.094,-68.2461 L 282.211,-68.6044 L 282.371,-68.9453 L 282.573,-69.2634
 L 282.813,-69.5536 L 283.088,-69.8115 L 283.393,-70.033 L 283.723,-70.2145 L 284.073,-70.3532 L 284.438,-70.4469
 L 284.812,-70.4941 L 285.188,-70.4941 L 285.562,-70.4469 L 285.927,-70.3532 L 286.277,-70.2145 L 286.607,-70.033
 L 286.912,-69.8115 L 287.187,-69.5536 L 287.427,-69.2634 L 287.629,-68.9453 L 287.789,-68.6044 L 287.906,-68.2461
 L 287.976,-67.876 L 288,-67.5 L 287.976,-67.124 L 287.906,-66.7539 L 287.789,-66.3956 L 287.629,-66.0547
 L 287.427,-65.7366 L 287.187,-65.4464 L 286.912,-65.1885 L 286.607,-64.967 L 286.277,-64.7855 L 285.927,-64.6468
 L 285.562,-64.5531 L 285.188,-64.5059 z
M -285.188,-64.5059 L -285.562,-64.5531 L -285.927,-64.6468 L -286.277,-64.7855 L -286.607,-64.967 L -286.912,-65.1885
 L -287.187,-65.4464 L -287.427,-65.7366 L -287.629,-66.0547 L -287.789,-66.3956 L -287.906,-66.7539 L -287.976,-67.124
 L -288,-67.5 L -287.976,-67.876 L -287.906,-68.2461 L -287.789,-68.6044 L -287.629,-68.9453 L -287.427,-69.2634
 L -287.187,-69.5536 L -286.912,-69.8115 L -286.607,-70.033 L -286.277,-70.2145 L -285.927,-70.3532 L -285.562,-70.4469
 L -285.188,-70.4941 L -284.812,-70.4941 L -284.438,-70.4469 L -284.073,-70.3532 L -283.723,-70.2145 L -283.393,-70.033
 L -283.088,-69.8115 L -282.813,-69.5536 L -282.573,-69.2634 L -282.371,-68.9453 L -282.211,-68.6044 L -282.094,-68.2461
 L -282.024,-67.876 L -282,-67.5 L -282.024,-67.124 L -282.094,-66.7539 L -282.211,-66.3956 L -282.371,-66.0547
 L -282.573,-65.7366 L -282.813,-65.4464 L -283.088,-65.1885 L -283.393,-64.967 L -283.723,-64.7855 L -284.073,-64.6468
 L -284.438,-64.5531 L -284.812,-64.5059 z
M 213.105,69.8619 L 204.383,68.7601 L 195.869,66.574 L 187.695,63.3379 L 179.992,59.103 L 172.88,53.9359
 L 166.472,47.9183 L 160.869,41.145 L 156.159,33.7227 L 152.416,25.7687 L 149.699,17.4083 L 148.052,8.77332
 L 147.5,-0 L 148.052,-8.77332 L 149.699,-17.4083 L 152.416,-25.7687 L 156.159,-33.7227 L 160.869,-41.145
 L 166.472,-47.9183 L 172.88,-53.9359 L 179.992,-59.103 L 187.695,-63.3379 L 195.869,-66.574 L 204.383,-68.7601
 L 213.105,-69.8619 L 221.895,-69.8619 L 230.617,-68.7601 L 239.131,-66.574 L 247.305,-63.3379 L 255.008,-59.103
 L 262.12,-53.9359 L 268.528,-47.9183 L 274.131,-41.145 L 278.841,-33.7227 L 282.584,-25.7687 L 285.301,-17.4083
 L 286.948,-8.77332 L 287.5,-0 L 286.948,8.77332 L 285.301,17.4083 L 282.584,25.7687 L 278.841,33.7227
 L 274.131,41.145 L 268.528,47.9183 L 262.12,53.9359 L 255.008,59.103 L 247.305,63.3379 L 239.131,66.574
 L 230.617,68.7601 L 221.895,69.8619 z
M -221.895,69.8619 L -230.617,68.7601 L -239.131,66.574 L -247.305,63.3379 L -255.008,59.103 L -262.12,53.9359
 L -268.528,47.9183 L -274.131,41.145 L -278.841,33.7227 L -282.584,25.7687 L -285.301,17.4083 L -286.948,8.77332
 L -287.5,-0 L -286.948,-8.77332 L -285.301,-17.4083 L -282.584,-25.7687 L -278.841,-33.7227 L -274.131,-41.145
 L -268.528,-47.9183 L -262.12,-53.9359 L -255.008,-59.103 L -247.305,-63.3379 L -239.131,-66.574 L -230.617,-68.7601
 L -221.895,-69.8619 L -213.105,-69.8619 L -204.383,-68.7601 L -195.869,-66.574 L -187.695,-63.3379 L -179.992,-59.103
 L -172.88,-53.9359 L -166.472,-47.9183 L -160.869,-41.145 L -156.159,-33.7227 L -152.416,-25.7687 L -149.699,-17.4083
 L -148.052,-8.77332 L -147.5,-0 L -148.052,8.77332 L -149.699,17.4083 L -152.416,25.7687 L -156.159,33.7227
 L -160.869,41.145 L -166.472,47.9183 L -172.88,53.9359 L -179.992,59.103 L -187.695,63.3379 L -195.869,66.574
 L -204.383,68.7601 L -213.105,69.8619 z
M -76.8953,69.8619 L -85.6167,68.7601 L -94.1312,66.574 L -102.305,63.3379 L -110.008,59.103 L -117.12,53.9359
 L -123.528,47.9183 L -129.131,41.145 L -133.841,33.7227 L -137.584,25.7687 L -140.301,17.4083 L -141.948,8.77332
 L -142.5,-0 L -141.948,-8.77332 L -140.301,-17.4083 L -137.584,-25.7687 L -133.841,-33.7227 L -129.131,-41.145
 L -123.528,-47.9183 L -117.12,-53.9359 L -110.008,-59.103 L -102.305,-63.3379 L -94.1312,-66.574 L -85.6167,-68.7601
 L -76.8953,-69.8619 L -68.1047,-69.8619 L -59.3833,-68.7601 L -50.8688,-66.574 L -42.6954,-63.3379 L -34.9921,-59.103
 L -27.8803,-53.9359 L -21.4722,-47.9183 L -15.8688,-41.145 L -11.1585,-33.7227 L -7.41563,-25.7687 L -4.69917,-17.4083
 L -3.05196,-8.77332 L -2.5,-0 L -3.05196,8.77332 L -4.69917,17.4083 L -7.41563,25.7687 L -11.1585,33.7227
 L -15.8688,41.145 L -21.4722,47.9183 L -27.8803,53.9359 L -34.9921,59.103 L -42.6954,63.3379 L -50.8688,66.574
 L -59.3833,68.7601 L -68.1047,69.8619 z
M 68.1047,69.8619 L 59.3833,68.7601 L 50.8688,66.574 L 42.6954,63.3379 L 34.9921,59.103 L 27.8803,53.9359
 L 21.4722,47.9183 L 15.8688,41.145 L 11.1585,33.7227 L 7.41563,25.7687 L 4.69917,17.4083 L 3.05196,8.77332
 L 2.5,-0 L 3.05196,-8.77332 L 4.69917,-17.4083 L 7.41563,-25.7687 L 11.1585,-33.7227 L 15.8688,-41.145
 L 21.4722,-47.9183 L 27.8803,-53.9359 L 34.9921,-59.103 L 42.6954,-63.3379 L 50.8688,-66.574 L 59.3833,-68.7601
 L 68.1047,-69.8619 L 76.8953,-69.8619 L 85.6167,-68.7601 L 94.1312,-66.574 L 102.305,-63.3379 L 110.008,-59.103
 L 117.12,-53.9359 L 123.528,-47.9183 L 129.131,-41.145 L 133.841,-33.7227 L 137.584,-25.7687 L 140.301,-17.4083
 L 141.948,-8.77332 L 142.5,-0 L 141.948,8.77332 L 140.301,17.4083 L 137.584,25.7687 L 133.841,33.7227
 L 129.131,41.145 L 123.528,47.9183 L 117.12,53.9359 L 110.008,59.103 L 102.305,63.3379 L 94.1312,66.574
 L 85.6167,68.7601 L 76.8953,69.8619 z
M -285.188,70.4941 L -285.562,70.4469 L -285.927,70.3532 L -286.277,70.2145 L -286.607,70.033 L -286.912,69.8115
 L -287.187,69.5536 L -287.427,69.2634 L -287.629,68.9453 L -287.789,68.6044 L -287.906,68.2461 L -287.976,67.876
 L -288,67.5 L -287.976,67.124 L -287.906,66.7539 L -287.789,66.3956 L -287.629,66.0547 L -287.427,65.7366
 L -287.187,65.4464 L -286.912,65.1885 L -286.607,64.967 L -286.277,64.7855 L -285.927,64.6468 L -285.562,64.5531
 L -285.188,64.5059 L -284.812,64.5059 L -284.438,64.5531 L -284.073,64.6468 L -283.723,64.7855 L -283.393,64.967
 L -283.088,65.1885 L -282.813,65.4464 L -282.573,65.7366 L -282.371,66.0547 L -282.211,66.3956 L -282.094,66.7539
 L -282.024,67.124 L -282,67.5 L -282.024,67.876 L -282.094,68.2461 L -282.211,68.6044 L -282.371,68.9453
 L -282.573,69.2634 L -282.813,69.5536 L -283.088,69.8115 L -283.393,70.033 L -283.723,70.2145 L -284.073,70.3532
 L -284.438,70.4469 L -284.812,70.4941 z
M 284.812,70.4941 L 284.438,70.4469 L 284.073,70.3532 L 283.723,70.2145 L 283.393,70.033 L 283.088,69.8115
 L 282.813,69.5536 L 282.573,69.2634 L 282.371,68.9453 L 282.211,68.6044 L 282.094,68.2461 L 282.024,67.876
 L 282,67.5 L 282.024,67.124 L 282.094,66.7539 L 282.211,66.3956 L 282.371,66.0547 L 282.573,65.7366
 L 282.813,65.4464 L 283.088,65.1885 L 283.393,64.967 L 283.723,64.7855 L 284.073,64.6468 L 284.438,64.5531
 L 284.812,64.5059 L 285.188,64.5059 L 285.562,64.5531 L 285.927,64.6468 L 286.277,64.7855 L 286.607,64.967
 L 286.912,65.1885 L 287.187,65.4464 L 287.427,65.7366 L 287.629,66.0547 L 287.789,66.3956 L 287.906,66.7539
 L 287.976,67.124 L 288,67.5 L 287.976,67.876 L 287.906,68.2461 L 287.789,68.6044 L 287.629,68.9453
 L 287.427,69.2634 L 287.187,69.5536 L 286.912,69.8115 L 286.607,70.033 L 286.277,70.2145 L 285.927,70.3532
 L 285.562,70.4469 L 285.188,70.4941 z
" stroke="black" fill="lightgray" stroke-width="0.5"/>
</svg>
