<?xml version="1.0" standalone="no"?>
<!DOCTYPE svg PUBLIC "-//W3C//DTD SVG 1.1//EN" "http://www.w3.org/Graphics/SVG/1.1/DTD/svg11.dtd">
<svg width="134mm" height="30mm" viewBox="-67 -15 134 30" xmlns="http://www.w3.org/2000/svg" version="1.1">
<title>OpenSCAD Model</title>
<path d="
M 62.9369,14.4114 L 63.5451,14.2553 L 64.1289,14.0241 L 64.6791,13.7216 L 65.1871,13.3526 L 65.6448,12.9227
 L 66.0451,12.4389 L 66.3815,11.9088 L 66.6489,11.3406 L 66.8429,10.7434 L 66.9606,10.1267 L 67,9.5
 L 67,-9.5 L 66.9606,-10.1267 L 66.8429,-10.7434 L 66.6489,-11.3406 L 66.3815,-11.9088 L 66.0451,-12.4389
 L 65.6448,-12.9227 L 65.1871,-13.3526 L 64.6791,-13.7216 L 64.1289,-14.0241 L 63.5451,-14.2553 L 62.9369,-14.4114
 L 62.3139,-14.4901 L -62.3139,-14.4901 L -62.9369,-14.4114 L -63.5451,-14.2553 L -64.1289,-14.0241 L -64.6791,-13.7216
 L -65.1871,-13.3526 L -65.6448,-12.9227 L -66.0451,-12.4389 L -66.3815,-11.9088 L -66.6489,-11.3406 L -66.8429,-10.7434
 L -66.9606,-10.1267 L -67,-9.5 L -67,9.5 L -66.9606,10.1267 L -66.8429,10.7434 L -66.6489,11.3406
 L -66.3815,11.9088 L -66.0451,12.4389 L -65.6448,12.9227 L -65.1871,13.3526 L -64.6791,13.7216 L -64.1289,14.0241
 L -63.5451,14.2553 L -62.9369,14.4114 L -62.3139,14.4901 L 62.3139,14.4901 z
M 39.8093,10.9783 L 38.4388,10.8051 L 37.1008,10.4616 L 35.8164,9.95309 L 34.6059,9.2876 L 33.4883,8.47563
 L 32.4813,7.53001 L 31.6008,6.46564 L 30.8606,5.29929 L 30.2724,4.04936 L 29.8456,2.73558 L 29.5867,1.37866
 L 29.5,-0 L 29.5867,-1.37866 L 29.8456,-2.73558 L 30.2724,-4.04936 L 30.8606,-5.29929 L 31.6008,-6.46564
 L 32.4813,-7.53001 L 33.4883,-8.47563 L 34.6059,-9.2876 L 35.8164,-9.95309 L 37.1008,-10.4616 L 38.4388,-10.8051
 L 39.8093,-10.9783 L 41.1907,-10.9783 L 42.5612,-10.8051 L 43.8992,-10.4616 L 45.1836,-9.95309 L 46.3941,-9.2876
 L 47.5117,-8.47563 L 48.5186,-7.53001 L 49.3992,-6.46564 L 50.1394,-5.29929 L 50.7275,-4.04936 L 51.1544,-2.73558
 L 51.4133,-1.37866 L 51.5,-0 L 51.4133,1.37866 L 51.1544,2.73558 L 50.7275,4.04936 L 50.1394,5.29929
 L 49.3992,6.46564 L 48.5186,7.53001 L 47.5117,8.47563 L 46.3941,9.2876 L 45.1836,9.95309 L 43.8992,10.4616
 L 42.5612,10.8051 L 41.1907,10.9783 z
M -14.1907,10.9783 L -15.5612,10.8051 L -16.8992,10.4616 L -18.1836,9.95309 L -19.3941,9.2876 L -20.5117,8.47563
 L -21.5186,7.53001 L -22.3992,6.46564 L -23.1394,5.29929 L -23.7275,4.04936 L -24.1544,2.73558 L -24.4133,1.37866
 L -24.5,-0 L -24.4133,-1.37866 L -24.1544,-2.73558 L -23.7275,-4.04936 L -23.1394,-5.29929 L -22.3992,-6.46564
 L -21.5186,-7.53001 L -20.5117,-8.47563 L -19.3941,-9.2876 L -18.1836,-9.95309 L -16.8992,-10.4616 L -15.5612,-10.8051
 L -14.1907,-10.9783 L -12.8093,-10.9783 L -11.4388,-10.8051 L -10.1008,-10.4616 L -8.81642,-9.95309 L -7.6059,-9.2876
 L -6.48833,-8.47563 L -5.48134,-7.53001 L -4.6008,-6.46564 L -3.86063,-5.29929 L -3.27245,-4.04936 L -2.84558,-2.73558
 L -2.58673,-1.37866 L -2.5,-0 L -2.58673,1.37866 L -2.84558,2.73558 L -3.27245,4.04936 L -3.86063,5.29929
 L -4.6008,6.46564 L -5.48134,7.53001 L -6.48833,8.47563 L -7.6059,9.2876 L -8.81642,9.95309 L -10.1008,10.4616
 L -11.4388,10.8051 L -12.8093,10.9783 z
M -41.1907,10.9783 L -42.5612,10.8051 L -43.8992,10.4616 L -45.1836,9.95309 L -46.3941,9.2876 L -47.5117,8.47563
 L -48.5186,7.53001 L -49.3992,6.46564 L -50.1394,5.29929 L -50.7275,4.04936 L -51.1544,2.73558 L -51.4133,1.37866
 L -51.5,-0 L -51.4133,-1.37866 L -51.1544,-2.73558 L -50.7275,-4.04936 L -50.1394,-5.29929 L -49.3992,-6.46564
 L -48.5186,-7.53001 L -47.5117,-8.47563 L -46.3941,-9.2876 L -45.1836,-9.95309 L -43.8992,-10.4616 L -42.5612,-10.8051
 L -41.1907,-10.9783 L -39.8093,-10.9783 L -38.4388,-10.8051 L -37.1008,-10.4616 L -35.8164,-9.95309 L -34.6059,-9.2876
 L -33.4883,-8.47563 L -32.4813,-7.53001 L -31.6008,-6.46564 L -30.8606,-5.29929 L -30.2724,-4.04936 L -29.8456,-2.73558
 L -29.5867,-1.37866 L -29.5,-0 L -29.5867,1.37866 L -29.8456,2.73558 L -30.2724,4.04936 L -30.8606,5.29929
 L -31.6008,6.46564 L -32.4813,7.53001 L -33.4883,8.47563 L -34.6059,9.2876 L -35.8164,9.95309 L -37.1008,10.4616
 L -38.4388,10.8051 L -39.8093,10.9783 z
M 12.8093,10.9783 L 11.4388,10.8051 L 10.1008,10.4616 L 8.81642,9.95309 L 7.6059,9.2876 L 6.48833,8.47563
 L 5.48134,7.53001 L 4.6008,6.46564 L 3.86063,5.29929 L 3.27245,4.04936 L 2.84558,2.73558 L 2.58673,1.37866
 L 2.5,-0 L 2.58673,-1.37866 L 2.84558,-2.73558 L 3.27245,-4.04936 L 3.86063,-5.29929 L 4.6008,-6.46564
 L 5.48134,-7.53001 L 6.48833,-8.47563 L 7.6059,-9.2876 L 8.81642,-9.95309 L 10.1008,-10.4616 L 11.4388,-10.8051
 L 12.8093,-10.9783 L 14.1907,-10.9783 L 15.5612,-10.8051 L 16.8992,-10.4616 L 18.1836,-9.95309 L 19.3941,-9.2876
 L 20.5117,-8.47563 L 21.5186,-7.53001 L 22.3992,-6.46564 L 23.1394,-5.29929 L 23.7275,-4.04936 L 24.1544,-2.73558
 L 24.4133,-1.37866 L 24.5,-0 L 24.4133,1.37866 L 24.1544,2.73558 L 23.7275,4.04936 L 23.1394,5.29929
 L 22.3992,6.46564 L 21.5186,7.53001 L 20.5117,8.47563 L 19.3941,9.2876 L 18.1836,9.95309 L 16.8992,10.4616
 L 15.5612,10.8051 L 14.1907,10.9783 z
M -60.1884,-4.50591 L -60.5621,-4.55313 L -60.927,-4.64682 L -61.2773,-4.78551 L -61.6075,-4.96701 L -61.9123,-5.18845
 L -62.1869,-5.44635 L -62.427,-5.73663 L -62.6289,-6.05473 L -62.7893,-6.39561 L -62.9057,-6.75392 L -62.9763,-7.12399
 L -63,-7.5 L -62.9763,-7.87599 L -62.9057,-8.24606 L -62.7893,-8.60437 L -62.6289,-8.94525 L -62.427,-9.26335
 L -62.1869,-9.55363 L -61.9123,-9.81154 L -61.6075,-10.033 L -61.2773,-10.2145 L -60.927,-10.3532 L -60.5621,-10.4469
 L -60.1884,-10.4941 L -59.8116,-10.4941 L -59.4379,-10.4469 L -59.0729,-10.3532 L -58.7227,-10.2145 L -58.3925,-10.033
 L -58.0877,-9.81154 L -57.8131,-9.55363 L -57.5729,-9.26335 L -57.3711,-8.94525 L -57.2107,-8.60437 L -57.0942,-8.24606
 L -57.0237,-7.87599 L -57,-7.5 L -57.0237,-7.12399 L -57.0942,-6.75392 L -57.2107,-6.39561 L -57.3711,-6.05473
 L -57.5729,-5.73663 L -57.8131,-5.44635 L -58.0877,-5.18845 L -58.3925,-4.96701 L -58.7227,-4.78551 L -59.0729,-4.64682
 L -59.4379,-4.55313 L -59.8116,-4.50591 z
M 59.8116,-4.50591 L 59.4379,-4.55313 L 59.0729,-4.64682 L 58.7227,-4.78551 L 58.3925,-4.96701 L 58.0877,-5.18845
 L 57.8131,-5.44635 L 57.5729,-5.73663 L 57.3711,-6.05473 L 57.2107,-6.39561 L 57.0942,-6.75392 L 57.0237,-7.12399
 L 57,-7.5 L 57.0237,-7.87599 L 57.0942,-8.24606 L 57.2107,-8.60437 L 57.3711,-8.94525 L 57.5729,-9.26335
 L 57.8131,-9.55363 L 58.0877,-9.81154 L 58.3925,-10.033 L 58.7227,-10.2145 L 59.0729,-10.3532 L 59.4379,-10.4469
 L 59.8116,-10.4941 L 60.1884,-10.4941 L 60.5621,-10.4469 L 60.927,-10.3532 L 61.2773,-10.2145 L 61.6075,-10.033
 L 61.9123,-9.81154 L 62.1869,-9.55363 L 62.427,-9.26335 L 62.6289,-8.94525 L 62.7893,-8.60437 L 62.9057,-8.24606
 L 62.9763,-7.87599 L 63,-7.5 L 62.9763,-7.12399 L 62.9057,-6.75392 L 62.7893,-6.39561 L 62.6289,-6.05473
 L 62.427,-5.73663 L 62.1869,-5.44635 L 61.9123,-5.18845 L 61.6075,-4.96701 L 61.2773,-4.78551 L 60.927,-4.64682
 L 60.5621,-4.55313 L 60.1884,-4.50591 z
M -60.0942,1.49704 L -60.2811,1.47342 L -60.4635,1.42657 L -60.6387,1.35724 L -60.8037,1.26648 L -60.9561,1.15576
 L -61.0934,1.02681 L -61.2135,0.881668 L -61.3145,0.722626 L -61.3947,0.552185 L -61.4529,0.373032 L -61.4882,0.187988
 L -61.5,-0 L -61.4882,-0.187988 L -61.4529,-0.373032 L -61.3947,-0.552185 L -61.3145,-0.722626 L -61.2135,-0.881668
 L -61.0934,-1.02681 L -60.9561,-1.15576 L -60.8037,-1.26648 L -60.6387,-1.35724 L -60.4635,-1.42657 L -60.2811,-1.47342
 L -60.0942,-1.49704 L -59.9058,-1.49704 L -59.7189,-1.47342 L -59.5365,-1.42657 L -59.3613,-1.35724 L -59.1963,-1.26648
 L -59.0439,-1.15576 L -58.9065,-1.02681 L -58.7865,-0.881668 L -58.6855,-0.722626 L -58.6053,-0.552185 L -58.5471,-0.373032
 L -58.5118,-0.187988 L -58.5,-0 L -58.5118,0.187988 L -58.5471,0.373032 L -58.6053,0.552185 L -58.6855,0.722626
 L -58.7865,0.881668 L -58.9065,1.02681 L -59.0439,1.15576 L -59.1963,1.26648 L -59.3613,1.35724 L -59.5365,1.42657
 L -59.7189,1.47342 L -59.9058,1.49704 z
M 59.9058,1.49704 L 59.7189,1.47342 L 59.5365,1.42657 L 59.3613,1.35724 L 59.1963,1.26648 L 59.0439,1.15576
 L 58.9065,1.02681 L 58.7865,0.881668 L 58.6855,0.722626 L 58.6053,0.552185 L 58.5471,0.373032 L 58.5118,0.187988
 L 58.5,-0 L 58.5118,-0.187988 L 58.5471,-0.373032 L 58.6053,-0.552185 L 58.6855,-0.722626 L 58.7865,-0.881668
 L 58.9065,-1.02681 L 59.0439,-1.15576 L 59.1963,-1.26648 L 59.3613,-1.35724 L 59.5365,-1.42657 L 59.7189,-1.47342
 L 59.9058,-1.49704 L 60.0942,-1.49704 L 60.2811,-1.47342 L 60.4635,-1.42657 L 60.6387,-1.35724 L 60.8037,-1.26648
 L 60.9561,-1.15576 L 61.0934,-1.02681 L 61.2135,-0.881668 L 61.3145,-0.722626 L 61.3947,-0.552185 L 61.4529,-0.373032
 L 61.4882,-0.187988 L 61.5,-0 L 61.4882,0.187988 L 61.4529,0.373032 L 61.3947,0.552185 L 61.3145,0.722626
 L 61.2135,0.881668 L 61.0934,1.02681 L 60.9561,1.15576 L 60.8037,1.26648 L 60.6387,1.35724 L 60.4635,1.42657
 L 60.2811,1.47342 L 60.0942,1.49704 z
M 59.8116,10.4941 L 59.4379,10.4469 L 59.0729,10.3532 L 58.7227,10.2145 L 58.3925,10.033 L 58.0877,9.81154
 L 57.8131,9.55363 L 57.5729,9.26335 L 57.3711,8.94525 L 57.2107,8.60437 L 57.0942,8.24606 L 57.0237,7.87599
 L 57,7.5 L 57.0237,7.12399 L 57.0942,6.75392 L 57.2107,6.39561 L 57.3711,6.05473 L 57.5729,5.73663
 L 57.8131,5.44635 L 58.0877,5.18845 L 58.3925,4.96701 L 58.7227,4.78551 L 59.0729,4.64682 L 59.4379,4.55313
 L 59.8116,4.50591 L 60.1884,4.50591 L 60.5621,4.55313 L 60.927,4.64682 L 61.2773,4.78551 L 61.6075,4.96701
 L 61.9123,5.18845 L 62.1869,5.44635 L 62.427,5.73663 L 62.6289,6.05473 L 62.7893,6.39561 L 62.9057,6.75392
 L 62.9763,7.12399 L 63,7.5 L 62.9763,7.87599 L 62.9057,8.24606 L 62.7893,8.60437 L 62.6289,8.94525
 L 62.427,9.26335 L 62.1869,9.55363 L 61.9123,9.81154 L 61.6075,10.033 L 61.2773,10.2145 L 60.927,10.3532
 L 60.5621,10.4469 L 60.1884,10.4941 z
M -60.1884,10.4941 L -60.5621,10.4469 L -60.927,10.3532 L -61.2773,10.2145 L -61.6075,10.033 L -61.9123,9.81154
 L -62.1869,9.55363 L -62.427,9.26335 L -62.6289,8.94525 L -62.7893,8.60437 L -62.9057,8.24606 L -62.9763,7.87599
 L -63,7.5 L -62.9763,7.12399 L -62.9057,6.75392 L -62.7893,6.39561 L -62.6289,6.05473 L -62.427,5.73663
 L -62.1869,5.44635 L -61.9123,5.18845 L -61.6075,4.96701 L -61.2773,4.78551 L -60.927,4.64682 L -60.5621,4.55313
 L -60.1884,4.50591 L -59.8116,4.50591 L -59.4379,4.55313 L -59.0729,4.64682 L -58.7227,4.78551 L -58.3925,4.96701
 L -58.0877,5.18845 L -57.8131,5.44635 L -57.5729,5.73663 L -57.3711,6.05473 L -57.2107,6.39561 L -57.0942,6.75392
 L -57.0237,7.12399 L -57,7.5 L -57.0237,7.87599 L -57.0942,8.24606 L -57.2107,8.60437 L -57.3711,8.94525
 L -57.5729,9.26335 L -57.8131,9.55363 L -58.0877,9.81154 L -58.3925,10.033 L -58.7227,10.2145 L -59.0729,10.3532
 L -59.4379,10.4469 L -59.8116,10.4941 z
" stroke="black" fill="lightgray" stroke-width="0.5"/>
</svg>
