  0
SECTION
  2
BLOCKS
  0
ENDSEC
  0
SECTION
  2
ENTITIES
  0
LINE
  8
0
 10
40.4369
 20
-21.9114
 11
41.0451
 21
-21.7553
  0
LINE
  8
0
 10
41.0451
 20
-21.7553
 11
41.6289
 21
-21.5241
  0
LINE
  8
0
 10
41.6289
 20
-21.5241
 11
42.1791
 21
-21.2216
  0
LINE
  8
0
 10
42.1791
 20
-21.2216
 11
42.6871
 21
-20.8526
  0
LINE
  8
0
 10
42.6871
 20
-20.8526
 11
43.1448
 21
-20.4227
  0
LINE
  8
0
 10
43.1448
 20
-20.4227
 11
43.5451
 21
-19.9389
  0
LINE
  8
0
 10
43.5451
 20
-19.9389
 11
43.8815
 21
-19.4088
  0
LINE
  8
0
 10
43.8815
 20
-19.4088
 11
44.1489
 21
-18.8406
  0
LINE
  8
0
 10
44.1489
 20
-18.8406
 11
44.3429
 21
-18.2434
  0
LINE
  8
0
 10
44.3429
 20
-18.2434
 11
44.4606
 21
-17.6267
  0
LINE
  8
0
 10
44.4606
 20
-17.6267
 11
44.5
 21
-17
  0
LINE
  8
0
 10
44.5
 20
-17
 11
44.5
 21
17
  0
LINE
  8
0
 10
44.5
 20
17
 11
44.4606
 21
17.6267
  0
LINE
  8
0
 10
44.4606
 20
17.6267
 11
44.3429
 21
18.2434
  0
LINE
  8
0
 10
44.3429
 20
18.2434
 11
44.1489
 21
18.8406
  0
LINE
  8
0
 10
44.1489
 20
18.8406
 11
43.8815
 21
19.4088
  0
LINE
  8
0
 10
43.8815
 20
19.4088
 11
43.5451
 21
19.9389
  0
LINE
  8
0
 10
43.5451
 20
19.9389
 11
43.1448
 21
20.4227
  0
LINE
  8
0
 10
43.1448
 20
20.4227
 11
42.6871
 21
20.8526
  0
LINE
  8
0
 10
42.6871
 20
20.8526
 11
42.1791
 21
21.2216
  0
LINE
  8
0
 10
42.1791
 20
21.2216
 11
41.6289
 21
21.5241
  0
LINE
  8
0
 10
41.6289
 20
21.5241
 11
41.0451
 21
21.7553
  0
LINE
  8
0
 10
41.0451
 20
21.7553
 11
40.4369
 21
21.9114
  0
LINE
  8
0
 10
40.4369
 20
21.9114
 11
39.8139
 21
21.9901
  0
LINE
  8
0
 10
39.8139
 20
21.9901
 11
-39.8139
 21
21.9901
  0
LINE
  8
0
 10
-39.8139
 20
21.9901
 11
-40.4369
 21
21.9114
  0
LINE
  8
0
 10
-40.4369
 20
21.9114
 11
-41.0451
 21
21.7553
  0
LINE
  8
0
 10
-41.0451
 20
21.7553
 11
-41.6289
 21
21.5241
  0
LINE
  8
0
 10
-41.6289
 20
21.5241
 11
-42.1791
 21
21.2216
  0
LINE
  8
0
 10
-42.1791
 20
21.2216
 11
-42.6871
 21
20.8526
  0
LINE
  8
0
 10
-42.6871
 20
20.8526
 11
-43.1448
 21
20.4227
  0
LINE
  8
0
 10
-43.1448
 20
20.4227
 11
-43.5451
 21
19.9389
  0
LINE
  8
0
 10
-43.5451
 20
19.9389
 11
-43.8815
 21
19.4088
  0
LINE
  8
0
 10
-43.8815
 20
19.4088
 11
-44.1489
 21
18.8406
  0
LINE
  8
0
 10
-44.1489
 20
18.8406
 11
-44.3429
 21
18.2434
  0
LINE
  8
0
 10
-44.3429
 20
18.2434
 11
-44.4606
 21
17.6267
  0
LINE
  8
0
 10
-44.4606
 20
17.6267
 11
-44.5
 21
17
  0
LINE
  8
0
 10
-44.5
 20
17
 11
-44.5
 21
-17
  0
LINE
  8
0
 10
-44.5
 20
-17
 11
-44.4606
 21
-17.6267
  0
LINE
  8
0
 10
-44.4606
 20
-17.6267
 11
-44.3429
 21
-18.2434
  0
LINE
  8
0
 10
-44.3429
 20
-18.2434
 11
-44.1489
 21
-18.8406
  0
LINE
  8
0
 10
-44.1489
 20
-18.8406
 11
-43.8815
 21
-19.4088
  0
LINE
  8
0
 10
-43.8815
 20
-19.4088
 11
-43.5451
 21
-19.9389
  0
LINE
  8
0
 10
-43.5451
 20
-19.9389
 11
-43.1448
 21
-20.4227
  0
LINE
  8
0
 10
-43.1448
 20
-20.4227
 11
-42.6871
 21
-20.8526
  0
LINE
  8
0
 10
-42.6871
 20
-20.8526
 11
-42.1791
 21
-21.2216
  0
LINE
  8
0
 10
-42.1791
 20
-21.2216
 11
-41.6289
 21
-21.5241
  0
LINE
  8
0
 10
-41.6289
 20
-21.5241
 11
-41.0451
 21
-21.7553
  0
LINE
  8
0
 10
-41.0451
 20
-21.7553
 11
-40.4369
 21
-21.9114
  0
LINE
  8
0
 10
-40.4369
 20
-21.9114
 11
-39.8139
 21
-21.9901
  0
LINE
  8
0
 10
-39.8139
 20
-21.9901
 11
39.8139
 21
-21.9901
  0
LINE
  8
0
 10
39.8139
 20
-21.9901
 11
40.4369
 21
-21.9114
  0
LINE
  8
0
 10
37.3116
 20
12.0059
 11
36.9379
 21
12.0531
  0
LINE
  8
0
 10
36.9379
 20
12.0531
 11
36.5729
 21
12.1468
  0
LINE
  8
0
 10
36.5729
 20
12.1468
 11
36.2227
 21
12.2855
  0
LINE
  8
0
 10
36.2227
 20
12.2855
 11
35.8925
 21
12.467
  0
LINE
  8
0
 10
35.8925
 20
12.467
 11
35.5877
 21
12.6884
  0
LINE
  8
0
 10
35.5877
 20
12.6884
 11
35.3131
 21
12.9464
  0
LINE
  8
0
 10
35.3131
 20
12.9464
 11
35.0729
 21
13.2366
  0
LINE
  8
0
 10
35.0729
 20
13.2366
 11
34.8711
 21
13.5547
  0
LINE
  8
0
 10
34.8711
 20
13.5547
 11
34.7107
 21
13.8956
  0
LINE
  8
0
 10
34.7107
 20
13.8956
 11
34.5942
 21
14.2539
  0
LINE
  8
0
 10
34.5942
 20
14.2539
 11
34.5237
 21
14.624
  0
LINE
  8
0
 10
34.5237
 20
14.624
 11
34.5
 21
15
  0
LINE
  8
0
 10
34.5
 20
15
 11
34.5237
 21
15.376
  0
LINE
  8
0
 10
34.5237
 20
15.376
 11
34.5942
 21
15.7461
  0
LINE
  8
0
 10
34.5942
 20
15.7461
 11
34.7107
 21
16.1044
  0
LINE
  8
0
 10
34.7107
 20
16.1044
 11
34.8711
 21
16.4453
  0
LINE
  8
0
 10
34.8711
 20
16.4453
 11
35.0729
 21
16.7634
  0
LINE
  8
0
 10
35.0729
 20
16.7634
 11
35.3131
 21
17.0536
  0
LINE
  8
0
 10
35.3131
 20
17.0536
 11
35.5877
 21
17.3115
  0
LINE
  8
0
 10
35.5877
 20
17.3115
 11
35.8925
 21
17.533
  0
LINE
  8
0
 10
35.8925
 20
17.533
 11
36.2227
 21
17.7145
  0
LINE
  8
0
 10
36.2227
 20
17.7145
 11
36.5729
 21
17.8532
  0
LINE
  8
0
 10
36.5729
 20
17.8532
 11
36.9379
 21
17.9469
  0
LINE
  8
0
 10
36.9379
 20
17.9469
 11
37.3116
 21
17.9941
  0
LINE
  8
0
 10
37.3116
 20
17.9941
 11
37.6884
 21
17.9941
  0
LINE
  8
0
 10
37.6884
 20
17.9941
 11
38.0621
 21
17.9469
  0
LINE
  8
0
 10
38.0621
 20
17.9469
 11
38.427
 21
17.8532
  0
LINE
  8
0
 10
38.427
 20
17.8532
 11
38.7773
 21
17.7145
  0
LINE
  8
0
 10
38.7773
 20
17.7145
 11
39.1075
 21
17.533
  0
LINE
  8
0
 10
39.1075
 20
17.533
 11
39.4123
 21
17.3115
  0
LINE
  8
0
 10
39.4123
 20
17.3115
 11
39.6869
 21
17.0536
  0
LINE
  8
0
 10
39.6869
 20
17.0536
 11
39.927
 21
16.7634
  0
LINE
  8
0
 10
39.927
 20
16.7634
 11
40.1289
 21
16.4453
  0
LINE
  8
0
 10
40.1289
 20
16.4453
 11
40.2893
 21
16.1044
  0
LINE
  8
0
 10
40.2893
 20
16.1044
 11
40.4057
 21
15.7461
  0
LINE
  8
0
 10
40.4057
 20
15.7461
 11
40.4763
 21
15.376
  0
LINE
  8
0
 10
40.4763
 20
15.376
 11
40.5
 21
15
  0
LINE
  8
0
 10
40.5
 20
15
 11
40.4763
 21
14.624
  0
LINE
  8
0
 10
40.4763
 20
14.624
 11
40.4057
 21
14.2539
  0
LINE
  8
0
 10
40.4057
 20
14.2539
 11
40.2893
 21
13.8956
  0
LINE
  8
0
 10
40.2893
 20
13.8956
 11
40.1289
 21
13.5547
  0
LINE
  8
0
 10
40.1289
 20
13.5547
 11
39.927
 21
13.2366
  0
LINE
  8
0
 10
39.927
 20
13.2366
 11
39.6869
 21
12.9464
  0
LINE
  8
0
 10
39.6869
 20
12.9464
 11
39.4123
 21
12.6884
  0
LINE
  8
0
 10
39.4123
 20
12.6884
 11
39.1075
 21
12.467
  0
LINE
  8
0
 10
39.1075
 20
12.467
 11
38.7773
 21
12.2855
  0
LINE
  8
0
 10
38.7773
 20
12.2855
 11
38.427
 21
12.1468
  0
LINE
  8
0
 10
38.427
 20
12.1468
 11
38.0621
 21
12.0531
  0
LINE
  8
0
 10
38.0621
 20
12.0531
 11
37.6884
 21
12.0059
  0
LINE
  8
0
 10
37.6884
 20
12.0059
 11
37.3116
 21
12.0059
  0
LINE
  8
0
 10
-37.6884
 20
12.0059
 11
-38.0621
 21
12.0531
  0
LINE
  8
0
 10
-38.0621
 20
12.0531
 11
-38.427
 21
12.1468
  0
LINE
  8
0
 10
-38.427
 20
12.1468
 11
-38.7773
 21
12.2855
  0
LINE
  8
0
 10
-38.7773
 20
12.2855
 11
-39.1075
 21
12.467
  0
LINE
  8
0
 10
-39.1075
 20
12.467
 11
-39.4123
 21
12.6884
  0
LINE
  8
0
 10
-39.4123
 20
12.6884
 11
-39.6869
 21
12.9464
  0
LINE
  8
0
 10
-39.6869
 20
12.9464
 11
-39.927
 21
13.2366
  0
LINE
  8
0
 10
-39.927
 20
13.2366
 11
-40.1289
 21
13.5547
  0
LINE
  8
0
 10
-40.1289
 20
13.5547
 11
-40.2893
 21
13.8956
  0
LINE
  8
0
 10
-40.2893
 20
13.8956
 11
-40.4057
 21
14.2539
  0
LINE
  8
0
 10
-40.4057
 20
14.2539
 11
-40.4763
 21
14.624
  0
LINE
  8
0
 10
-40.4763
 20
14.624
 11
-40.5
 21
15
  0
LINE
  8
0
 10
-40.5
 20
15
 11
-40.4763
 21
15.376
  0
LINE
  8
0
 10
-40.4763
 20
15.376
 11
-40.4057
 21
15.7461
  0
LINE
  8
0
 10
-40.4057
 20
15.7461
 11
-40.2893
 21
16.1044
  0
LINE
  8
0
 10
-40.2893
 20
16.1044
 11
-40.1289
 21
16.4453
  0
LINE
  8
0
 10
-40.1289
 20
16.4453
 11
-39.927
 21
16.7634
  0
LINE
  8
0
 10
-39.927
 20
16.7634
 11
-39.6869
 21
17.0536
  0
LINE
  8
0
 10
-39.6869
 20
17.0536
 11
-39.4123
 21
17.3115
  0
LINE
  8
0
 10
-39.4123
 20
17.3115
 11
-39.1075
 21
17.533
  0
LINE
  8
0
 10
-39.1075
 20
17.533
 11
-38.7773
 21
17.7145
  0
LINE
  8
0
 10
-38.7773
 20
17.7145
 11
-38.427
 21
17.8532
  0
LINE
  8
0
 10
-38.427
 20
17.8532
 11
-38.0621
 21
17.9469
  0
LINE
  8
0
 10
-38.0621
 20
17.9469
 11
-37.6884
 21
17.9941
  0
LINE
  8
0
 10
-37.6884
 20
17.9941
 11
-37.3116
 21
17.9941
  0
LINE
  8
0
 10
-37.3116
 20
17.9941
 11
-36.9379
 21
17.9469
  0
LINE
  8
0
 10
-36.9379
 20
17.9469
 11
-36.5729
 21
17.8532
  0
LINE
  8
0
 10
-36.5729
 20
17.8532
 11
-36.2227
 21
17.7145
  0
LINE
  8
0
 10
-36.2227
 20
17.7145
 11
-35.8925
 21
17.533
  0
LINE
  8
0
 10
-35.8925
 20
17.533
 11
-35.5877
 21
17.3115
  0
LINE
  8
0
 10
-35.5877
 20
17.3115
 11
-35.3131
 21
17.0536
  0
LINE
  8
0
 10
-35.3131
 20
17.0536
 11
-35.0729
 21
16.7634
  0
LINE
  8
0
 10
-35.0729
 20
16.7634
 11
-34.8711
 21
16.4453
  0
LINE
  8
0
 10
-34.8711
 20
16.4453
 11
-34.7107
 21
16.1044
  0
LINE
  8
0
 10
-34.7107
 20
16.1044
 11
-34.5942
 21
15.7461
  0
LINE
  8
0
 10
-34.5942
 20
15.7461
 11
-34.5237
 21
15.376
  0
LINE
  8
0
 10
-34.5237
 20
15.376
 11
-34.5
 21
15
  0
LINE
  8
0
 10
-34.5
 20
15
 11
-34.5237
 21
14.624
  0
LINE
  8
0
 10
-34.5237
 20
14.624
 11
-34.5942
 21
14.2539
  0
LINE
  8
0
 10
-34.5942
 20
14.2539
 11
-34.7107
 21
13.8956
  0
LINE
  8
0
 10
-34.7107
 20
13.8956
 11
-34.8711
 21
13.5547
  0
LINE
  8
0
 10
-34.8711
 20
13.5547
 11
-35.0729
 21
13.2366
  0
LINE
  8
0
 10
-35.0729
 20
13.2366
 11
-35.3131
 21
12.9464
  0
LINE
  8
0
 10
-35.3131
 20
12.9464
 11
-35.5877
 21
12.6884
  0
LINE
  8
0
 10
-35.5877
 20
12.6884
 11
-35.8925
 21
12.467
  0
LINE
  8
0
 10
-35.8925
 20
12.467
 11
-36.2227
 21
12.2855
  0
LINE
  8
0
 10
-36.2227
 20
12.2855
 11
-36.5729
 21
12.1468
  0
LINE
  8
0
 10
-36.5729
 20
12.1468
 11
-36.9379
 21
12.0531
  0
LINE
  8
0
 10
-36.9379
 20
12.0531
 11
-37.3116
 21
12.0059
  0
LINE
  8
0
 10
-37.3116
 20
12.0059
 11
-37.6884
 21
12.0059
  0
LINE
  8
0
 10
16.5581
 20
-14.9704
 11
14.6893
 21
-14.7343
  0
LINE
  8
0
 10
14.6893
 20
-14.7343
 11
12.8647
 21
-14.2658
  0
LINE
  8
0
 10
12.8647
 20
-14.2658
 11
11.1133
 21
-13.5724
  0
LINE
  8
0
 10
11.1133
 20
-13.5724
 11
9.46259
 21
-12.6649
  0
LINE
  8
0
 10
9.46259
 20
-12.6649
 11
7.93863
 21
-11.5577
  0
LINE
  8
0
 10
7.93863
 20
-11.5577
 11
6.56546
 21
-10.2682
  0
LINE
  8
0
 10
6.56546
 20
-10.2682
 11
5.36473
 21
-8.81677
  0
LINE
  8
0
 10
5.36473
 20
-8.81677
 11
4.35539
 21
-7.2263
  0
LINE
  8
0
 10
4.35539
 20
-7.2263
 11
3.55334
 21
-5.52187
  0
LINE
  8
0
 10
3.55334
 20
-5.52187
 11
2.97125
 21
-3.73035
  0
LINE
  8
0
 10
2.97125
 20
-3.73035
 11
2.61827
 21
-1.87999
  0
LINE
  8
0
 10
2.61827
 20
-1.87999
 11
2.5
 21
0
  0
LINE
  8
0
 10
2.5
 20
0
 11
2.61827
 21
1.87999
  0
LINE
  8
0
 10
2.61827
 20
1.87999
 11
2.97125
 21
3.73035
  0
LINE
  8
0
 10
2.97125
 20
3.73035
 11
3.55334
 21
5.52187
  0
LINE
  8
0
 10
3.55334
 20
5.52187
 11
4.35539
 21
7.2263
  0
LINE
  8
0
 10
4.35539
 20
7.2263
 11
5.36473
 21
8.81677
  0
LINE
  8
0
 10
5.36473
 20
8.81677
 11
6.56546
 21
10.2682
  0
LINE
  8
0
 10
6.56546
 20
10.2682
 11
7.93863
 21
11.5577
  0
LINE
  8
0
 10
7.93863
 20
11.5577
 11
9.46259
 21
12.6649
  0
LINE
  8
0
 10
9.46259
 20
12.6649
 11
11.1133
 21
13.5724
  0
LINE
  8
0
 10
11.1133
 20
13.5724
 11
12.8647
 21
14.2658
  0
LINE
  8
0
 10
12.8647
 20
14.2658
 11
14.6893
 21
14.7343
  0
LINE
  8
0
 10
14.6893
 20
14.7343
 11
16.5581
 21
14.9704
  0
LINE
  8
0
 10
16.5581
 20
14.9704
 11
18.4418
 21
14.9704
  0
LINE
  8
0
 10
18.4418
 20
14.9704
 11
20.3107
 21
14.7343
  0
LINE
  8
0
 10
20.3107
 20
14.7343
 11
22.1353
 21
14.2658
  0
LINE
  8
0
 10
22.1353
 20
14.2658
 11
23.8867
 21
13.5724
  0
LINE
  8
0
 10
23.8867
 20
13.5724
 11
25.5374
 21
12.6649
  0
LINE
  8
0
 10
25.5374
 20
12.6649
 11
27.0614
 21
11.5577
  0
LINE
  8
0
 10
27.0614
 20
11.5577
 11
28.4345
 21
10.2682
  0
LINE
  8
0
 10
28.4345
 20
10.2682
 11
29.6353
 21
8.81677
  0
LINE
  8
0
 10
29.6353
 20
8.81677
 11
30.6446
 21
7.2263
  0
LINE
  8
0
 10
30.6446
 20
7.2263
 11
31.4466
 21
5.52187
  0
LINE
  8
0
 10
31.4466
 20
5.52187
 11
32.0287
 21
3.73035
  0
LINE
  8
0
 10
32.0287
 20
3.73035
 11
32.3817
 21
1.87999
  0
LINE
  8
0
 10
32.3817
 20
1.87999
 11
32.5
 21
0
  0
LINE
  8
0
 10
32.5
 20
0
 11
32.3817
 21
-1.87999
  0
LINE
  8
0
 10
32.3817
 20
-1.87999
 11
32.0287
 21
-3.73035
  0
LINE
  8
0
 10
32.0287
 20
-3.73035
 11
31.4466
 21
-5.52187
  0
LINE
  8
0
 10
31.4466
 20
-5.52187
 11
30.6446
 21
-7.2263
  0
LINE
  8
0
 10
30.6446
 20
-7.2263
 11
29.6353
 21
-8.81677
  0
LINE
  8
0
 10
29.6353
 20
-8.81677
 11
28.4345
 21
-10.2682
  0
LINE
  8
0
 10
28.4345
 20
-10.2682
 11
27.0614
 21
-11.5577
  0
LINE
  8
0
 10
27.0614
 20
-11.5577
 11
25.5374
 21
-12.6649
  0
LINE
  8
0
 10
25.5374
 20
-12.6649
 11
23.8867
 21
-13.5724
  0
LINE
  8
0
 10
23.8867
 20
-13.5724
 11
22.1353
 21
-14.2658
  0
LINE
  8
0
 10
22.1353
 20
-14.2658
 11
20.3107
 21
-14.7343
  0
LINE
  8
0
 10
20.3107
 20
-14.7343
 11
18.4418
 21
-14.9704
  0
LINE
  8
0
 10
18.4418
 20
-14.9704
 11
16.5581
 21
-14.9704
  0
LINE
  8
0
 10
-18.4418
 20
-14.9704
 11
-20.3107
 21
-14.7343
  0
LINE
  8
0
 10
-20.3107
 20
-14.7343
 11
-22.1353
 21
-14.2658
  0
LINE
  8
0
 10
-22.1353
 20
-14.2658
 11
-23.8867
 21
-13.5724
  0
LINE
  8
0
 10
-23.8867
 20
-13.5724
 11
-25.5374
 21
-12.6649
  0
LINE
  8
0
 10
-25.5374
 20
-12.6649
 11
-27.0614
 21
-11.5577
  0
LINE
  8
0
 10
-27.0614
 20
-11.5577
 11
-28.4345
 21
-10.2682
  0
LINE
  8
0
 10
-28.4345
 20
-10.2682
 11
-29.6353
 21
-8.81677
  0
LINE
  8
0
 10
-29.6353
 20
-8.81677
 11
-30.6446
 21
-7.2263
  0
LINE
  8
0
 10
-30.6446
 20
-7.2263
 11
-31.4466
 21
-5.52187
  0
LINE
  8
0
 10
-31.4466
 20
-5.52187
 11
-32.0287
 21
-3.73035
  0
LINE
  8
0
 10
-32.0287
 20
-3.73035
 11
-32.3817
 21
-1.87999
  0
LINE
  8
0
 10
-32.3817
 20
-1.87999
 11
-32.5
 21
0
  0
LINE
  8
0
 10
-32.5
 20
0
 11
-32.3817
 21
1.87999
  0
LINE
  8
0
 10
-32.3817
 20
1.87999
 11
-32.0287
 21
3.73035
  0
LINE
  8
0
 10
-32.0287
 20
3.73035
 11
-31.4466
 21
5.52187
  0
LINE
  8
0
 10
-31.4466
 20
5.52187
 11
-30.6446
 21
7.2263
  0
LINE
  8
0
 10
-30.6446
 20
7.2263
 11
-29.6353
 21
8.81677
  0
LINE
  8
0
 10
-29.6353
 20
8.81677
 11
-28.4345
 21
10.2682
  0
LINE
  8
0
 10
-28.4345
 20
10.2682
 11
-27.0614
 21
11.5577
  0
LINE
  8
0
 10
-27.0614
 20
11.5577
 11
-25.5374
 21
12.6649
  0
LINE
  8
0
 10
-25.5374
 20
12.6649
 11
-23.8867
 21
13.5724
  0
LINE
  8
0
 10
-23.8867
 20
13.5724
 11
-22.1353
 21
14.2658
  0
LINE
  8
0
 10
-22.1353
 20
14.2658
 11
-20.3107
 21
14.7343
  0
LINE
  8
0
 10
-20.3107
 20
14.7343
 11
-18.4418
 21
14.9704
  0
LINE
  8
0
 10
-18.4418
 20
14.9704
 11
-16.5581
 21
14.9704
  0
LINE
  8
0
 10
-16.5581
 20
14.9704
 11
-14.6893
 21
14.7343
  0
LINE
  8
0
 10
-14.6893
 20
14.7343
 11
-12.8647
 21
14.2658
  0
LINE
  8
0
 10
-12.8647
 20
14.2658
 11
-11.1133
 21
13.5724
  0
LINE
  8
0
 10
-11.1133
 20
13.5724
 11
-9.46259
 21
12.6649
  0
LINE
  8
0
 10
-9.46259
 20
12.6649
 11
-7.93863
 21
11.5577
  0
LINE
  8
0
 10
-7.93863
 20
11.5577
 11
-6.56546
 21
10.2682
  0
LINE
  8
0
 10
-6.56546
 20
10.2682
 11
-5.36473
 21
8.81677
  0
LINE
  8
0
 10
-5.36473
 20
8.81677
 11
-4.35539
 21
7.2263
  0
LINE
  8
0
 10
-4.35539
 20
7.2263
 11
-3.55334
 21
5.52187
  0
LINE
  8
0
 10
-3.55334
 20
5.52187
 11
-2.97125
 21
3.73035
  0
LINE
  8
0
 10
-2.97125
 20
3.73035
 11
-2.61827
 21
1.87999
  0
LINE
  8
0
 10
-2.61827
 20
1.87999
 11
-2.5
 21
0
  0
LINE
  8
0
 10
-2.5
 20
0
 11
-2.61827
 21
-1.87999
  0
LINE
  8
0
 10
-2.61827
 20
-1.87999
 11
-2.97125
 21
-3.73035
  0
LINE
  8
0
 10
-2.97125
 20
-3.73035
 11
-3.55334
 21
-5.52187
  0
LINE
  8
0
 10
-3.55334
 20
-5.52187
 11
-4.35539
 21
-7.2263
  0
LINE
  8
0
 10
-4.35539
 20
-7.2263
 11
-5.36473
 21
-8.81677
  0
LINE
  8
0
 10
-5.36473
 20
-8.81677
 11
-6.56546
 21
-10.2682
  0
LINE
  8
0
 10
-6.56546
 20
-10.2682
 11
-7.93863
 21
-11.5577
  0
LINE
  8
0
 10
-7.93863
 20
-11.5577
 11
-9.46259
 21
-12.6649
  0
LINE
  8
0
 10
-9.46259
 20
-12.6649
 11
-11.1133
 21
-13.5724
  0
LINE
  8
0
 10
-11.1133
 20
-13.5724
 11
-12.8647
 21
-14.2658
  0
LINE
  8
0
 10
-12.8647
 20
-14.2658
 11
-14.6893
 21
-14.7343
  0
LINE
  8
0
 10
-14.6893
 20
-14.7343
 11
-16.5581
 21
-14.9704
  0
LINE
  8
0
 10
-16.5581
 20
-14.9704
 11
-18.4418
 21
-14.9704
  0
LINE
  8
0
 10
-37.5942
 20
6.00294
 11
-37.7811
 21
6.02657
  0
LINE
  8
0
 10
-37.7811
 20
6.02657
 11
-37.9635
 21
6.07341
  0
LINE
  8
0
 10
-37.9635
 20
6.07341
 11
-38.1387
 21
6.14275
  0
LINE
  8
0
 10
-38.1387
 20
6.14275
 11
-38.3037
 21
6.23351
  0
LINE
  8
0
 10
-38.3037
 20
6.23351
 11
-38.4561
 21
6.34422
  0
LINE
  8
0
 10
-38.4561
 20
6.34422
 11
-38.5934
 21
6.47318
  0
LINE
  8
0
 10
-38.5934
 20
6.47318
 11
-38.7135
 21
6.61832
  0
LINE
  8
0
 10
-38.7135
 20
6.61832
 11
-38.8145
 21
6.77736
  0
LINE
  8
0
 10
-38.8145
 20
6.77736
 11
-38.8947
 21
6.9478
  0
LINE
  8
0
 10
-38.8947
 20
6.9478
 11
-38.9529
 21
7.12695
  0
LINE
  8
0
 10
-38.9529
 20
7.12695
 11
-38.9882
 21
7.312
  0
LINE
  8
0
 10
-38.9882
 20
7.312
 11
-39
 21
7.5
  0
LINE
  8
0
 10
-39
 20
7.5
 11
-38.9882
 21
7.68799
  0
LINE
  8
0
 10
-38.9882
 20
7.68799
 11
-38.9529
 21
7.87303
  0
LINE
  8
0
 10
-38.9529
 20
7.87303
 11
-38.8947
 21
8.05219
  0
LINE
  8
0
 10
-38.8947
 20
8.05219
 11
-38.8145
 21
8.22263
  0
LINE
  8
0
 10
-38.8145
 20
8.22263
 11
-38.7135
 21
8.38167
  0
LINE
  8
0
 10
-38.7135
 20
8.38167
 11
-38.5934
 21
8.52681
  0
LINE
  8
0
 10
-38.5934
 20
8.52681
 11
-38.4561
 21
8.65576
  0
LINE
  8
0
 10
-38.4561
 20
8.65576
 11
-38.3037
 21
8.76648
  0
LINE
  8
0
 10
-38.3037
 20
8.76648
 11
-38.1387
 21
8.85724
  0
LINE
  8
0
 10
-38.1387
 20
8.85724
 11
-37.9635
 21
8.92657
  0
LINE
  8
0
 10
-37.9635
 20
8.92657
 11
-37.7811
 21
8.97342
  0
LINE
  8
0
 10
-37.7811
 20
8.97342
 11
-37.5942
 21
8.99704
  0
LINE
  8
0
 10
-37.5942
 20
8.99704
 11
-37.4058
 21
8.99704
  0
LINE
  8
0
 10
-37.4058
 20
8.99704
 11
-37.2189
 21
8.97342
  0
LINE
  8
0
 10
-37.2189
 20
8.97342
 11
-37.0365
 21
8.92657
  0
LINE
  8
0
 10
-37.0365
 20
8.92657
 11
-36.8613
 21
8.85724
  0
LINE
  8
0
 10
-36.8613
 20
8.85724
 11
-36.6963
 21
8.76648
  0
LINE
  8
0
 10
-36.6963
 20
8.76648
 11
-36.5439
 21
8.65576
  0
LINE
  8
0
 10
-36.5439
 20
8.65576
 11
-36.4065
 21
8.52681
  0
LINE
  8
0
 10
-36.4065
 20
8.52681
 11
-36.2865
 21
8.38167
  0
LINE
  8
0
 10
-36.2865
 20
8.38167
 11
-36.1855
 21
8.22263
  0
LINE
  8
0
 10
-36.1855
 20
8.22263
 11
-36.1053
 21
8.05219
  0
LINE
  8
0
 10
-36.1053
 20
8.05219
 11
-36.0471
 21
7.87303
  0
LINE
  8
0
 10
-36.0471
 20
7.87303
 11
-36.0118
 21
7.68799
  0
LINE
  8
0
 10
-36.0118
 20
7.68799
 11
-36
 21
7.5
  0
LINE
  8
0
 10
-36
 20
7.5
 11
-36.0118
 21
7.312
  0
LINE
  8
0
 10
-36.0118
 20
7.312
 11
-36.0471
 21
7.12695
  0
LINE
  8
0
 10
-36.0471
 20
7.12695
 11
-36.1053
 21
6.9478
  0
LINE
  8
0
 10
-36.1053
 20
6.9478
 11
-36.1855
 21
6.77736
  0
LINE
  8
0
 10
-36.1855
 20
6.77736
 11
-36.2865
 21
6.61832
  0
LINE
  8
0
 10
-36.2865
 20
6.61832
 11
-36.4065
 21
6.47318
  0
LINE
  8
0
 10
-36.4065
 20
6.47318
 11
-36.5439
 21
6.34422
  0
LINE
  8
0
 10
-36.5439
 20
6.34422
 11
-36.6963
 21
6.23351
  0
LINE
  8
0
 10
-36.6963
 20
6.23351
 11
-36.8613
 21
6.14275
  0
LINE
  8
0
 10
-36.8613
 20
6.14275
 11
-37.0365
 21
6.07341
  0
LINE
  8
0
 10
-37.0365
 20
6.07341
 11
-37.2189
 21
6.02657
  0
LINE
  8
0
 10
-37.2189
 20
6.02657
 11
-37.4058
 21
6.00294
  0
LINE
  8
0
 10
-37.4058
 20
6.00294
 11
-37.5942
 21
6.00294
  0
LINE
  8
0
 10
37.4058
 20
6.00294
 11
37.2189
 21
6.02657
  0
LINE
  8
0
 10
37.2189
 20
6.02657
 11
37.0365
 21
6.07341
  0
LINE
  8
0
 10
37.0365
 20
6.07341
 11
36.8613
 21
6.14275
  0
LINE
  8
0
 10
36.8613
 20
6.14275
 11
36.6963
 21
6.23351
  0
LINE
  8
0
 10
36.6963
 20
6.23351
 11
36.5439
 21
6.34422
  0
LINE
  8
0
 10
36.5439
 20
6.34422
 11
36.4065
 21
6.47318
  0
LINE
  8
0
 10
36.4065
 20
6.47318
 11
36.2865
 21
6.61832
  0
LINE
  8
0
 10
36.2865
 20
6.61832
 11
36.1855
 21
6.77736
  0
LINE
  8
0
 10
36.1855
 20
6.77736
 11
36.1053
 21
6.9478
  0
LINE
  8
0
 10
36.1053
 20
6.9478
 11
36.0471
 21
7.12695
  0
LINE
  8
0
 10
36.0471
 20
7.12695
 11
36.0118
 21
7.312
  0
LINE
  8
0
 10
36.0118
 20
7.312
 11
36
 21
7.5
  0
LINE
  8
0
 10
36
 20
7.5
 11
36.0118
 21
7.68799
  0
LINE
  8
0
 10
36.0118
 20
7.68799
 11
36.0471
 21
7.87303
  0
LINE
  8
0
 10
36.0471
 20
7.87303
 11
36.1053
 21
8.05219
  0
LINE
  8
0
 10
36.1053
 20
8.05219
 11
36.1855
 21
8.22263
  0
LINE
  8
0
 10
36.1855
 20
8.22263
 11
36.2865
 21
8.38167
  0
LINE
  8
0
 10
36.2865
 20
8.38167
 11
36.4065
 21
8.52681
  0
LINE
  8
0
 10
36.4065
 20
8.52681
 11
36.5439
 21
8.65576
  0
LINE
  8
0
 10
36.5439
 20
8.65576
 11
36.6963
 21
8.76648
  0
LINE
  8
0
 10
36.6963
 20
8.76648
 11
36.8613
 21
8.85724
  0
LINE
  8
0
 10
36.8613
 20
8.85724
 11
37.0365
 21
8.92657
  0
LINE
  8
0
 10
37.0365
 20
8.92657
 11
37.2189
 21
8.97342
  0
LINE
  8
0
 10
37.2189
 20
8.97342
 11
37.4058
 21
8.99704
  0
LINE
  8
0
 10
37.4058
 20
8.99704
 11
37.5942
 21
8.99704
  0
LINE
  8
0
 10
37.5942
 20
8.99704
 11
37.7811
 21
8.97342
  0
LINE
  8
0
 10
37.7811
 20
8.97342
 11
37.9635
 21
8.92657
  0
LINE
  8
0
 10
37.9635
 20
8.92657
 11
38.1387
 21
8.85724
  0
LINE
  8
0
 10
38.1387
 20
8.85724
 11
38.3037
 21
8.76648
  0
LINE
  8
0
 10
38.3037
 20
8.76648
 11
38.4561
 21
8.65576
  0
LINE
  8
0
 10
38.4561
 20
8.65576
 11
38.5934
 21
8.52681
  0
LINE
  8
0
 10
38.5934
 20
8.52681
 11
38.7135
 21
8.38167
  0
LINE
  8
0
 10
38.7135
 20
8.38167
 11
38.8145
 21
8.22263
  0
LINE
  8
0
 10
38.8145
 20
8.22263
 11
38.8947
 21
8.05219
  0
LINE
  8
0
 10
38.8947
 20
8.05219
 11
38.9529
 21
7.87303
  0
LINE
  8
0
 10
38.9529
 20
7.87303
 11
38.9882
 21
7.68799
  0
LINE
  8
0
 10
38.9882
 20
7.68799
 11
39
 21
7.5
  0
LINE
  8
0
 10
39
 20
7.5
 11
38.9882
 21
7.312
  0
LINE
  8
0
 10
38.9882
 20
7.312
 11
38.9529
 21
7.12695
  0
LINE
  8
0
 10
38.9529
 20
7.12695
 11
38.8947
 21
6.9478
  0
LINE
  8
0
 10
38.8947
 20
6.9478
 11
38.8145
 21
6.77736
  0
LINE
  8
0
 10
38.8145
 20
6.77736
 11
38.7135
 21
6.61832
  0
LINE
  8
0
 10
38.7135
 20
6.61832
 11
38.5934
 21
6.47318
  0
LINE
  8
0
 10
38.5934
 20
6.47318
 11
38.4561
 21
6.34422
  0
LINE
  8
0
 10
38.4561
 20
6.34422
 11
38.3037
 21
6.23351
  0
LINE
  8
0
 10
38.3037
 20
6.23351
 11
38.1387
 21
6.14275
  0
LINE
  8
0
 10
38.1387
 20
6.14275
 11
37.9635
 21
6.07341
  0
LINE
  8
0
 10
37.9635
 20
6.07341
 11
37.7811
 21
6.02657
  0
LINE
  8
0
 10
37.7811
 20
6.02657
 11
37.5942
 21
6.00294
  0
LINE
  8
0
 10
37.5942
 20
6.00294
 11
37.4058
 21
6.00294
  0
LINE
  8
0
 10
-37.6884
 20
-2.99408
 11
-38.0621
 21
-2.94685
  0
LINE
  8
0
 10
-38.0621
 20
-2.94685
 11
-38.427
 21
-2.85316
  0
LINE
  8
0
 10
-38.427
 20
-2.85316
 11
-38.7773
 21
-2.71448
  0
LINE
  8
0
 10
-38.7773
 20
-2.71448
 11
-39.1075
 21
-2.53297
  0
LINE
  8
0
 10
-39.1075
 20
-2.53297
 11
-39.4123
 21
-2.31154
  0
LINE
  8
0
 10
-39.4123
 20
-2.31154
 11
-39.6869
 21
-2.05363
  0
LINE
  8
0
 10
-39.6869
 20
-2.05363
 11
-39.927
 21
-1.76335
  0
LINE
  8
0
 10
-39.927
 20
-1.76335
 11
-40.1289
 21
-1.44525
  0
LINE
  8
0
 10
-40.1289
 20
-1.44525
 11
-40.2893
 21
-1.10437
  0
LINE
  8
0
 10
-40.2893
 20
-1.10437
 11
-40.4057
 21
-0.746063
  0
LINE
  8
0
 10
-40.4057
 20
-0.746063
 11
-40.4763
 21
-0.375992
  0
LINE
  8
0
 10
-40.4763
 20
-0.375992
 11
-40.5
 21
0
  0
LINE
  8
0
 10
-40.5
 20
0
 11
-40.4763
 21
0.375992
  0
LINE
  8
0
 10
-40.4763
 20
0.375992
 11
-40.4057
 21
0.746063
  0
LINE
  8
0
 10
-40.4057
 20
0.746063
 11
-40.2893
 21
1.10437
  0
LINE
  8
0
 10
-40.2893
 20
1.10437
 11
-40.1289
 21
1.44525
  0
LINE
  8
0
 10
-40.1289
 20
1.44525
 11
-39.927
 21
1.76335
  0
LINE
  8
0
 10
-39.927
 20
1.76335
 11
-39.6869
 21
2.05363
  0
LINE
  8
0
 10
-39.6869
 20
2.05363
 11
-39.4123
 21
2.31154
  0
LINE
  8
0
 10
-39.4123
 20
2.31154
 11
-39.1075
 21
2.53297
  0
LINE
  8
0
 10
-39.1075
 20
2.53297
 11
-38.7773
 21
2.71448
  0
LINE
  8
0
 10
-38.7773
 20
2.71448
 11
-38.427
 21
2.85316
  0
LINE
  8
0
 10
-38.427
 20
2.85316
 11
-38.0621
 21
2.94685
  0
LINE
  8
0
 10
-38.0621
 20
2.94685
 11
-37.6884
 21
2.99408
  0
LINE
  8
0
 10
-37.6884
 20
2.99408
 11
-37.3116
 21
2.99408
  0
LINE
  8
0
 10
-37.3116
 20
2.99408
 11
-36.9379
 21
2.94685
  0
LINE
  8
0
 10
-36.9379
 20
2.94685
 11
-36.5729
 21
2.85316
  0
LINE
  8
0
 10
-36.5729
 20
2.85316
 11
-36.2227
 21
2.71448
  0
LINE
  8
0
 10
-36.2227
 20
2.71448
 11
-35.8925
 21
2.53297
  0
LINE
  8
0
 10
-35.8925
 20
2.53297
 11
-35.5877
 21
2.31154
  0
LINE
  8
0
 10
-35.5877
 20
2.31154
 11
-35.3131
 21
2.05363
  0
LINE
  8
0
 10
-35.3131
 20
2.05363
 11
-35.0729
 21
1.76335
  0
LINE
  8
0
 10
-35.0729
 20
1.76335
 11
-34.8711
 21
1.44525
  0
LINE
  8
0
 10
-34.8711
 20
1.44525
 11
-34.7107
 21
1.10437
  0
LINE
  8
0
 10
-34.7107
 20
1.10437
 11
-34.5942
 21
0.746063
  0
LINE
  8
0
 10
-34.5942
 20
0.746063
 11
-34.5237
 21
0.375992
  0
LINE
  8
0
 10
-34.5237
 20
0.375992
 11
-34.5
 21
0
  0
LINE
  8
0
 10
-34.5
 20
0
 11
-34.5237
 21
-0.375992
  0
LINE
  8
0
 10
-34.5237
 20
-0.375992
 11
-34.5942
 21
-0.746063
  0
LINE
  8
0
 10
-34.5942
 20
-0.746063
 11
-34.7107
 21
-1.10437
  0
LINE
  8
0
 10
-34.7107
 20
-1.10437
 11
-34.8711
 21
-1.44525
  0
LINE
  8
0
 10
-34.8711
 20
-1.44525
 11
-35.0729
 21
-1.76335
  0
LINE
  8
0
 10
-35.0729
 20
-1.76335
 11
-35.3131
 21
-2.05363
  0
LINE
  8
0
 10
-35.3131
 20
-2.05363
 11
-35.5877
 21
-2.31154
  0
LINE
  8
0
 10
-35.5877
 20
-2.31154
 11
-35.8925
 21
-2.53297
  0
LINE
  8
0
 10
-35.8925
 20
-2.53297
 11
-36.2227
 21
-2.71448
  0
LINE
  8
0
 10
-36.2227
 20
-2.71448
 11
-36.5729
 21
-2.85316
  0
LINE
  8
0
 10
-36.5729
 20
-2.85316
 11
-36.9379
 21
-2.94685
  0
LINE
  8
0
 10
-36.9379
 20
-2.94685
 11
-37.3116
 21
-2.99408
  0
LINE
  8
0
 10
-37.3116
 20
-2.99408
 11
-37.6884
 21
-2.99408
  0
LINE
  8
0
 10
37.3116
 20
-2.99408
 11
36.9379
 21
-2.94685
  0
LINE
  8
0
 10
36.9379
 20
-2.94685
 11
36.5729
 21
-2.85316
  0
LINE
  8
0
 10
36.5729
 20
-2.85316
 11
36.2227
 21
-2.71448
  0
LINE
  8
0
 10
36.2227
 20
-2.71448
 11
35.8925
 21
-2.53297
  0
LINE
  8
0
 10
35.8925
 20
-2.53297
 11
35.5877
 21
-2.31154
  0
LINE
  8
0
 10
35.5877
 20
-2.31154
 11
35.3131
 21
-2.05363
  0
LINE
  8
0
 10
35.3131
 20
-2.05363
 11
35.0729
 21
-1.76335
  0
LINE
  8
0
 10
35.0729
 20
-1.76335
 11
34.8711
 21
-1.44525
  0
LINE
  8
0
 10
34.8711
 20
-1.44525
 11
34.7107
 21
-1.10437
  0
LINE
  8
0
 10
34.7107
 20
-1.10437
 11
34.5942
 21
-0.746063
  0
LINE
  8
0
 10
34.5942
 20
-0.746063
 11
34.5237
 21
-0.375992
  0
LINE
  8
0
 10
34.5237
 20
-0.375992
 11
34.5
 21
0
  0
LINE
  8
0
 10
34.5
 20
0
 11
34.5237
 21
0.375992
  0
LINE
  8
0
 10
34.5237
 20
0.375992
 11
34.5942
 21
0.746063
  0
LINE
  8
0
 10
34.5942
 20
0.746063
 11
34.7107
 21
1.10437
  0
LINE
  8
0
 10
34.7107
 20
1.10437
 11
34.8711
 21
1.44525
  0
LINE
  8
0
 10
34.8711
 20
1.44525
 11
35.0729
 21
1.76335
  0
LINE
  8
0
 10
35.0729
 20
1.76335
 11
35.3131
 21
2.05363
  0
LINE
  8
0
 10
35.3131
 20
2.05363
 11
35.5877
 21
2.31154
  0
LINE
  8
0
 10
35.5877
 20
2.31154
 11
35.8925
 21
2.53297
  0
LINE
  8
0
 10
35.8925
 20
2.53297
 11
36.2227
 21
2.71448
  0
LINE
  8
0
 10
36.2227
 20
2.71448
 11
36.5729
 21
2.85316
  0
LINE
  8
0
 10
36.5729
 20
2.85316
 11
36.9379
 21
2.94685
  0
LINE
  8
0
 10
36.9379
 20
2.94685
 11
37.3116
 21
2.99408
  0
LINE
  8
0
 10
37.3116
 20
2.99408
 11
37.6884
 21
2.99408
  0
LINE
  8
0
 10
37.6884
 20
2.99408
 11
38.0621
 21
2.94685
  0
LINE
  8
0
 10
38.0621
 20
2.94685
 11
38.427
 21
2.85316
  0
LINE
  8
0
 10
38.427
 20
2.85316
 11
38.7773
 21
2.71448
  0
LINE
  8
0
 10
38.7773
 20
2.71448
 11
39.1075
 21
2.53297
  0
LINE
  8
0
 10
39.1075
 20
2.53297
 11
39.4123
 21
2.31154
  0
LINE
  8
0
 10
39.4123
 20
2.31154
 11
39.6869
 21
2.05363
  0
LINE
  8
0
 10
39.6869
 20
2.05363
 11
39.927
 21
1.76335
  0
LINE
  8
0
 10
39.927
 20
1.76335
 11
40.1289
 21
1.44525
  0
LINE
  8
0
 10
40.1289
 20
1.44525
 11
40.2893
 21
1.10437
  0
LINE
  8
0
 10
40.2893
 20
1.10437
 11
40.4057
 21
0.746063
  0
LINE
  8
0
 10
40.4057
 20
0.746063
 11
40.4763
 21
0.375992
  0
LINE
  8
0
 10
40.4763
 20
0.375992
 11
40.5
 21
0
  0
LINE
  8
0
 10
40.5
 20
0
 11
40.4763
 21
-0.375992
  0
LINE
  8
0
 10
40.4763
 20
-0.375992
 11
40.4057
 21
-0.746063
  0
LINE
  8
0
 10
40.4057
 20
-0.746063
 11
40.2893
 21
-1.10437
  0
LINE
  8
0
 10
40.2893
 20
-1.10437
 11
40.1289
 21
-1.44525
  0
LINE
  8
0
 10
40.1289
 20
-1.44525
 11
39.927
 21
-1.76335
  0
LINE
  8
0
 10
39.927
 20
-1.76335
 11
39.6869
 21
-2.05363
  0
LINE
  8
0
 10
39.6869
 20
-2.05363
 11
39.4123
 21
-2.31154
  0
LINE
  8
0
 10
39.4123
 20
-2.31154
 11
39.1075
 21
-2.53297
  0
LINE
  8
0
 10
39.1075
 20
-2.53297
 11
38.7773
 21
-2.71448
  0
LINE
  8
0
 10
38.7773
 20
-2.71448
 11
38.427
 21
-2.85316
  0
LINE
  8
0
 10
38.427
 20
-2.85316
 11
38.0621
 21
-2.94685
  0
LINE
  8
0
 10
38.0621
 20
-2.94685
 11
37.6884
 21
-2.99408
  0
LINE
  8
0
 10
37.6884
 20
-2.99408
 11
37.3116
 21
-2.99408
  0
LINE
  8
0
 10
37.4058
 20
-8.99704
 11
37.2189
 21
-8.97342
  0
LINE
  8
0
 10
37.2189
 20
-8.97342
 11
37.0365
 21
-8.92657
  0
LINE
  8
0
 10
37.0365
 20
-8.92657
 11
36.8613
 21
-8.85724
  0
LINE
  8
0
 10
36.8613
 20
-8.85724
 11
36.6963
 21
-8.76648
  0
LINE
  8
0
 10
36.6963
 20
-8.76648
 11
36.5439
 21
-8.65576
  0
LINE
  8
0
 10
36.5439
 20
-8.65576
 11
36.4065
 21
-8.52681
  0
LINE
  8
0
 10
36.4065
 20
-8.52681
 11
36.2865
 21
-8.38167
  0
LINE
  8
0
 10
36.2865
 20
-8.38167
 11
36.1855
 21
-8.22263
  0
LINE
  8
0
 10
36.1855
 20
-8.22263
 11
36.1053
 21
-8.05219
  0
LINE
  8
0
 10
36.1053
 20
-8.05219
 11
36.0471
 21
-7.87303
  0
LINE
  8
0
 10
36.0471
 20
-7.87303
 11
36.0118
 21
-7.68799
  0
LINE
  8
0
 10
36.0118
 20
-7.68799
 11
36
 21
-7.5
  0
LINE
  8
0
 10
36
 20
-7.5
 11
36.0118
 21
-7.312
  0
LINE
  8
0
 10
36.0118
 20
-7.312
 11
36.0471
 21
-7.12695
  0
LINE
  8
0
 10
36.0471
 20
-7.12695
 11
36.1053
 21
-6.9478
  0
LINE
  8
0
 10
36.1053
 20
-6.9478
 11
36.1855
 21
-6.77736
  0
LINE
  8
0
 10
36.1855
 20
-6.77736
 11
36.2865
 21
-6.61832
  0
LINE
  8
0
 10
36.2865
 20
-6.61832
 11
36.4065
 21
-6.47318
  0
LINE
  8
0
 10
36.4065
 20
-6.47318
 11
36.5439
 21
-6.34422
  0
LINE
  8
0
 10
36.5439
 20
-6.34422
 11
36.6963
 21
-6.23351
  0
LINE
  8
0
 10
36.6963
 20
-6.23351
 11
36.8613
 21
-6.14275
  0
LINE
  8
0
 10
36.8613
 20
-6.14275
 11
37.0365
 21
-6.07341
  0
LINE
  8
0
 10
37.0365
 20
-6.07341
 11
37.2189
 21
-6.02657
  0
LINE
  8
0
 10
37.2189
 20
-6.02657
 11
37.4058
 21
-6.00294
  0
LINE
  8
0
 10
37.4058
 20
-6.00294
 11
37.5942
 21
-6.00294
  0
LINE
  8
0
 10
37.5942
 20
-6.00294
 11
37.7811
 21
-6.02657
  0
LINE
  8
0
 10
37.7811
 20
-6.02657
 11
37.9635
 21
-6.07341
  0
LINE
  8
0
 10
37.9635
 20
-6.07341
 11
38.1387
 21
-6.14275
  0
LINE
  8
0
 10
38.1387
 20
-6.14275
 11
38.3037
 21
-6.23351
  0
LINE
  8
0
 10
38.3037
 20
-6.23351
 11
38.4561
 21
-6.34422
  0
LINE
  8
0
 10
38.4561
 20
-6.34422
 11
38.5934
 21
-6.47318
  0
LINE
  8
0
 10
38.5934
 20
-6.47318
 11
38.7135
 21
-6.61832
  0
LINE
  8
0
 10
38.7135
 20
-6.61832
 11
38.8145
 21
-6.77736
  0
LINE
  8
0
 10
38.8145
 20
-6.77736
 11
38.8947
 21
-6.9478
  0
LINE
  8
0
 10
38.8947
 20
-6.9478
 11
38.9529
 21
-7.12695
  0
LINE
  8
0
 10
38.9529
 20
-7.12695
 11
38.9882
 21
-7.312
  0
LINE
  8
0
 10
38.9882
 20
-7.312
 11
39
 21
-7.5
  0
LINE
  8
0
 10
39
 20
-7.5
 11
38.9882
 21
-7.68799
  0
LINE
  8
0
 10
38.9882
 20
-7.68799
 11
38.9529
 21
-7.87303
  0
LINE
  8
0
 10
38.9529
 20
-7.87303
 11
38.8947
 21
-8.05219
  0
LINE
  8
0
 10
38.8947
 20
-8.05219
 11
38.8145
 21
-8.22263
  0
LINE
  8
0
 10
38.8145
 20
-8.22263
 11
38.7135
 21
-8.38167
  0
LINE
  8
0
 10
38.7135
 20
-8.38167
 11
38.5934
 21
-8.52681
  0
LINE
  8
0
 10
38.5934
 20
-8.52681
 11
38.4561
 21
-8.65576
  0
LINE
  8
0
 10
38.4561
 20
-8.65576
 11
38.3037
 21
-8.76648
  0
LINE
  8
0
 10
38.3037
 20
-8.76648
 11
38.1387
 21
-8.85724
  0
LINE
  8
0
 10
38.1387
 20
-8.85724
 11
37.9635
 21
-8.92657
  0
LINE
  8
0
 10
37.9635
 20
-8.92657
 11
37.7811
 21
-8.97342
  0
LINE
  8
0
 10
37.7811
 20
-8.97342
 11
37.5942
 21
-8.99704
  0
LINE
  8
0
 10
37.5942
 20
-8.99704
 11
37.4058
 21
-8.99704
  0
LINE
  8
0
 10
-37.5942
 20
-8.99704
 11
-37.7811
 21
-8.97342
  0
LINE
  8
0
 10
-37.7811
 20
-8.97342
 11
-37.9635
 21
-8.92657
  0
LINE
  8
0
 10
-37.9635
 20
-8.92657
 11
-38.1387
 21
-8.85724
  0
LINE
  8
0
 10
-38.1387
 20
-8.85724
 11
-38.3037
 21
-8.76648
  0
LINE
  8
0
 10
-38.3037
 20
-8.76648
 11
-38.4561
 21
-8.65576
  0
LINE
  8
0
 10
-38.4561
 20
-8.65576
 11
-38.5934
 21
-8.52681
  0
LINE
  8
0
 10
-38.5934
 20
-8.52681
 11
-38.7135
 21
-8.38167
  0
LINE
  8
0
 10
-38.7135
 20
-8.38167
 11
-38.8145
 21
-8.22263
  0
LINE
  8
0
 10
-38.8145
 20
-8.22263
 11
-38.8947
 21
-8.05219
  0
LINE
  8
0
 10
-38.8947
 20
-8.05219
 11
-38.9529
 21
-7.87303
  0
LINE
  8
0
 10
-38.9529
 20
-7.87303
 11
-38.9882
 21
-7.68799
  0
LINE
  8
0
 10
-38.9882
 20
-7.68799
 11
-39
 21
-7.5
  0
LINE
  8
0
 10
-39
 20
-7.5
 11
-38.9882
 21
-7.312
  0
LINE
  8
0
 10
-38.9882
 20
-7.312
 11
-38.9529
 21
-7.12695
  0
LINE
  8
0
 10
-38.9529
 20
-7.12695
 11
-38.8947
 21
-6.9478
  0
LINE
  8
0
 10
-38.8947
 20
-6.9478
 11
-38.8145
 21
-6.77736
  0
LINE
  8
0
 10
-38.8145
 20
-6.77736
 11
-38.7135
 21
-6.61832
  0
LINE
  8
0
 10
-38.7135
 20
-6.61832
 11
-38.5934
 21
-6.47318
  0
LINE
  8
0
 10
-38.5934
 20
-6.47318
 11
-38.4561
 21
-6.34422
  0
LINE
  8
0
 10
-38.4561
 20
-6.34422
 11
-38.3037
 21
-6.23351
  0
LINE
  8
0
 10
-38.3037
 20
-6.23351
 11
-38.1387
 21
-6.14275
  0
LINE
  8
0
 10
-38.1387
 20
-6.14275
 11
-37.9635
 21
-6.07341
  0
LINE
  8
0
 10
-37.9635
 20
-6.07341
 11
-37.7811
 21
-6.02657
  0
LINE
  8
0
 10
-37.7811
 20
-6.02657
 11
-37.5942
 21
-6.00294
  0
LINE
  8
0
 10
-37.5942
 20
-6.00294
 11
-37.4058
 21
-6.00294
  0
LINE
  8
0
 10
-37.4058
 20
-6.00294
 11
-37.2189
 21
-6.02657
  0
LINE
  8
0
 10
-37.2189
 20
-6.02657
 11
-37.0365
 21
-6.07341
  0
LINE
  8
0
 10
-37.0365
 20
-6.07341
 11
-36.8613
 21
-6.14275
  0
LINE
  8
0
 10
-36.8613
 20
-6.14275
 11
-36.6963
 21
-6.23351
  0
LINE
  8
0
 10
-36.6963
 20
-6.23351
 11
-36.5439
 21
-6.34422
  0
LINE
  8
0
 10
-36.5439
 20
-6.34422
 11
-36.4065
 21
-6.47318
  0
LINE
  8
0
 10
-36.4065
 20
-6.47318
 11
-36.2865
 21
-6.61832
  0
LINE
  8
0
 10
-36.2865
 20
-6.61832
 11
-36.1855
 21
-6.77736
  0
LINE
  8
0
 10
-36.1855
 20
-6.77736
 11
-36.1053
 21
-6.9478
  0
LINE
  8
0
 10
-36.1053
 20
-6.9478
 11
-36.0471
 21
-7.12695
  0
LINE
  8
0
 10
-36.0471
 20
-7.12695
 11
-36.0118
 21
-7.312
  0
LINE
  8
0
 10
-36.0118
 20
-7.312
 11
-36
 21
-7.5
  0
LINE
  8
0
 10
-36
 20
-7.5
 11
-36.0118
 21
-7.68799
  0
LINE
  8
0
 10
-36.0118
 20
-7.68799
 11
-36.0471
 21
-7.87303
  0
LINE
  8
0
 10
-36.0471
 20
-7.87303
 11
-36.1053
 21
-8.05219
  0
LINE
  8
0
 10
-36.1053
 20
-8.05219
 11
-36.1855
 21
-8.22263
  0
LINE
  8
0
 10
-36.1855
 20
-8.22263
 11
-36.2865
 21
-8.38167
  0
LINE
  8
0
 10
-36.2865
 20
-8.38167
 11
-36.4065
 21
-8.52681
  0
LINE
  8
0
 10
-36.4065
 20
-8.52681
 11
-36.5439
 21
-8.65576
  0
LINE
  8
0
 10
-36.5439
 20
-8.65576
 11
-36.6963
 21
-8.76648
  0
LINE
  8
0
 10
-36.6963
 20
-8.76648
 11
-36.8613
 21
-8.85724
  0
LINE
  8
0
 10
-36.8613
 20
-8.85724
 11
-37.0365
 21
-8.92657
  0
LINE
  8
0
 10
-37.0365
 20
-8.92657
 11
-37.2189
 21
-8.97342
  0
LINE
  8
0
 10
-37.2189
 20
-8.97342
 11
-37.4058
 21
-8.99704
  0
LINE
  8
0
 10
-37.4058
 20
-8.99704
 11
-37.5942
 21
-8.99704
  0
LINE
  8
0
 10
37.3116
 20
-17.9941
 11
36.9379
 21
-17.9469
  0
LINE
  8
0
 10
36.9379
 20
-17.9469
 11
36.5729
 21
-17.8532
  0
LINE
  8
0
 10
36.5729
 20
-17.8532
 11
36.2227
 21
-17.7145
  0
LINE
  8
0
 10
36.2227
 20
-17.7145
 11
35.8925
 21
-17.533
  0
LINE
  8
0
 10
35.8925
 20
-17.533
 11
35.5877
 21
-17.3115
  0
LINE
  8
0
 10
35.5877
 20
-17.3115
 11
35.3131
 21
-17.0536
  0
LINE
  8
0
 10
35.3131
 20
-17.0536
 11
35.0729
 21
-16.7634
  0
LINE
  8
0
 10
35.0729
 20
-16.7634
 11
34.8711
 21
-16.4453
  0
LINE
  8
0
 10
34.8711
 20
-16.4453
 11
34.7107
 21
-16.1044
  0
LINE
  8
0
 10
34.7107
 20
-16.1044
 11
34.5942
 21
-15.7461
  0
LINE
  8
0
 10
34.5942
 20
-15.7461
 11
34.5237
 21
-15.376
  0
LINE
  8
0
 10
34.5237
 20
-15.376
 11
34.5
 21
-15
  0
LINE
  8
0
 10
34.5
 20
-15
 11
34.5237
 21
-14.624
  0
LINE
  8
0
 10
34.5237
 20
-14.624
 11
34.5942
 21
-14.2539
  0
LINE
  8
0
 10
34.5942
 20
-14.2539
 11
34.7107
 21
-13.8956
  0
LINE
  8
0
 10
34.7107
 20
-13.8956
 11
34.8711
 21
-13.5547
  0
LINE
  8
0
 10
34.8711
 20
-13.5547
 11
35.0729
 21
-13.2366
  0
LINE
  8
0
 10
35.0729
 20
-13.2366
 11
35.3131
 21
-12.9464
  0
LINE
  8
0
 10
35.3131
 20
-12.9464
 11
35.5877
 21
-12.6884
  0
LINE
  8
0
 10
35.5877
 20
-12.6884
 11
35.8925
 21
-12.467
  0
LINE
  8
0
 10
35.8925
 20
-12.467
 11
36.2227
 21
-12.2855
  0
LINE
  8
0
 10
36.2227
 20
-12.2855
 11
36.5729
 21
-12.1468
  0
LINE
  8
0
 10
36.5729
 20
-12.1468
 11
36.9379
 21
-12.0531
  0
LINE
  8
0
 10
36.9379
 20
-12.0531
 11
37.3116
 21
-12.0059
  0
LINE
  8
0
 10
37.3116
 20
-12.0059
 11
37.6884
 21
-12.0059
  0
LINE
  8
0
 10
37.6884
 20
-12.0059
 11
38.0621
 21
-12.0531
  0
LINE
  8
0
 10
38.0621
 20
-12.0531
 11
38.427
 21
-12.1468
  0
LINE
  8
0
 10
38.427
 20
-12.1468
 11
38.7773
 21
-12.2855
  0
LINE
  8
0
 10
38.7773
 20
-12.2855
 11
39.1075
 21
-12.467
  0
LINE
  8
0
 10
39.1075
 20
-12.467
 11
39.4123
 21
-12.6884
  0
LINE
  8
0
 10
39.4123
 20
-12.6884
 11
39.6869
 21
-12.9464
  0
LINE
  8
0
 10
39.6869
 20
-12.9464
 11
39.927
 21
-13.2366
  0
LINE
  8
0
 10
39.927
 20
-13.2366
 11
40.1289
 21
-13.5547
  0
LINE
  8
0
 10
40.1289
 20
-13.5547
 11
40.2893
 21
-13.8956
  0
LINE
  8
0
 10
40.2893
 20
-13.8956
 11
40.4057
 21
-14.2539
  0
LINE
  8
0
 10
40.4057
 20
-14.2539
 11
40.4763
 21
-14.624
  0
LINE
  8
0
 10
40.4763
 20
-14.624
 11
40.5
 21
-15
  0
LINE
  8
0
 10
40.5
 20
-15
 11
40.4763
 21
-15.376
  0
LINE
  8
0
 10
40.4763
 20
-15.376
 11
40.4057
 21
-15.7461
  0
LINE
  8
0
 10
40.4057
 20
-15.7461
 11
40.2893
 21
-16.1044
  0
LINE
  8
0
 10
40.2893
 20
-16.1044
 11
40.1289
 21
-16.4453
  0
LINE
  8
0
 10
40.1289
 20
-16.4453
 11
39.927
 21
-16.7634
  0
LINE
  8
0
 10
39.927
 20
-16.7634
 11
39.6869
 21
-17.0536
  0
LINE
  8
0
 10
39.6869
 20
-17.0536
 11
39.4123
 21
-17.3115
  0
LINE
  8
0
 10
39.4123
 20
-17.3115
 11
39.1075
 21
-17.533
  0
LINE
  8
0
 10
39.1075
 20
-17.533
 11
38.7773
 21
-17.7145
  0
LINE
  8
0
 10
38.7773
 20
-17.7145
 11
38.427
 21
-17.8532
  0
LINE
  8
0
 10
38.427
 20
-17.8532
 11
38.0621
 21
-17.9469
  0
LINE
  8
0
 10
38.0621
 20
-17.9469
 11
37.6884
 21
-17.9941
  0
LINE
  8
0
 10
37.6884
 20
-17.9941
 11
37.3116
 21
-17.9941
  0
LINE
  8
0
 10
-37.6884
 20
-17.9941
 11
-38.0621
 21
-17.9469
  0
LINE
  8
0
 10
-38.0621
 20
-17.9469
 11
-38.427
 21
-17.8532
  0
LINE
  8
0
 10
-38.427
 20
-17.8532
 11
-38.7773
 21
-17.7145
  0
LINE
  8
0
 10
-38.7773
 20
-17.7145
 11
-39.1075
 21
-17.533
  0
LINE
  8
0
 10
-39.1075
 20
-17.533
 11
-39.4123
 21
-17.3115
  0
LINE
  8
0
 10
-39.4123
 20
-17.3115
 11
-39.6869
 21
-17.0536
  0
LINE
  8
0
 10
-39.6869
 20
-17.0536
 11
-39.927
 21
-16.7634
  0
LINE
  8
0
 10
-39.927
 20
-16.7634
 11
-40.1289
 21
-16.4453
  0
LINE
  8
0
 10
-40.1289
 20
-16.4453
 11
-40.2893
 21
-16.1044
  0
LINE
  8
0
 10
-40.2893
 20
-16.1044
 11
-40.4057
 21
-15.7461
  0
LINE
  8
0
 10
-40.4057
 20
-15.7461
 11
-40.4763
 21
-15.376
  0
LINE
  8
0
 10
-40.4763
 20
-15.376
 11
-40.5
 21
-15
  0
LINE
  8
0
 10
-40.5
 20
-15
 11
-40.4763
 21
-14.624
  0
LINE
  8
0
 10
-40.4763
 20
-14.624
 11
-40.4057
 21
-14.2539
  0
LINE
  8
0
 10
-40.4057
 20
-14.2539
 11
-40.2893
 21
-13.8956
  0
LINE
  8
0
 10
-40.2893
 20
-13.8956
 11
-40.1289
 21
-13.5547
  0
LINE
  8
0
 10
-40.1289
 20
-13.5547
 11
-39.927
 21
-13.2366
  0
LINE
  8
0
 10
-39.927
 20
-13.2366
 11
-39.6869
 21
-12.9464
  0
LINE
  8
0
 10
-39.6869
 20
-12.9464
 11
-39.4123
 21
-12.6884
  0
LINE
  8
0
 10
-39.4123
 20
-12.6884
 11
-39.1075
 21
-12.467
  0
LINE
  8
0
 10
-39.1075
 20
-12.467
 11
-38.7773
 21
-12.2855
  0
LINE
  8
0
 10
-38.7773
 20
-12.2855
 11
-38.427
 21
-12.1468
  0
LINE
  8
0
 10
-38.427
 20
-12.1468
 11
-38.0621
 21
-12.0531
  0
LINE
  8
0
 10
-38.0621
 20
-12.0531
 11
-37.6884
 21
-12.0059
  0
LINE
  8
0
 10
-37.6884
 20
-12.0059
 11
-37.3116
 21
-12.0059
  0
LINE
  8
0
 10
-37.3116
 20
-12.0059
 11
-36.9379
 21
-12.0531
  0
LINE
  8
0
 10
-36.9379
 20
-12.0531
 11
-36.5729
 21
-12.1468
  0
LINE
  8
0
 10
-36.5729
 20
-12.1468
 11
-36.2227
 21
-12.2855
  0
LINE
  8
0
 10
-36.2227
 20
-12.2855
 11
-35.8925
 21
-12.467
  0
LINE
  8
0
 10
-35.8925
 20
-12.467
 11
-35.5877
 21
-12.6884
  0
LINE
  8
0
 10
-35.5877
 20
-12.6884
 11
-35.3131
 21
-12.9464
  0
LINE
  8
0
 10
-35.3131
 20
-12.9464
 11
-35.0729
 21
-13.2366
  0
LINE
  8
0
 10
-35.0729
 20
-13.2366
 11
-34.8711
 21
-13.5547
  0
LINE
  8
0
 10
-34.8711
 20
-13.5547
 11
-34.7107
 21
-13.8956
  0
LINE
  8
0
 10
-34.7107
 20
-13.8956
 11
-34.5942
 21
-14.2539
  0
LINE
  8
0
 10
-34.5942
 20
-14.2539
 11
-34.5237
 21
-14.624
  0
LINE
  8
0
 10
-34.5237
 20
-14.624
 11
-34.5
 21
-15
  0
LINE
  8
0
 10
-34.5
 20
-15
 11
-34.5237
 21
-15.376
  0
LINE
  8
0
 10
-34.5237
 20
-15.376
 11
-34.5942
 21
-15.7461
  0
LINE
  8
0
 10
-34.5942
 20
-15.7461
 11
-34.7107
 21
-16.1044
  0
LINE
  8
0
 10
-34.7107
 20
-16.1044
 11
-34.8711
 21
-16.4453
  0
LINE
  8
0
 10
-34.8711
 20
-16.4453
 11
-35.0729
 21
-16.7634
  0
LINE
  8
0
 10
-35.0729
 20
-16.7634
 11
-35.3131
 21
-17.0536
  0
LINE
  8
0
 10
-35.3131
 20
-17.0536
 11
-35.5877
 21
-17.3115
  0
LINE
  8
0
 10
-35.5877
 20
-17.3115
 11
-35.8925
 21
-17.533
  0
LINE
  8
0
 10
-35.8925
 20
-17.533
 11
-36.2227
 21
-17.7145
  0
LINE
  8
0
 10
-36.2227
 20
-17.7145
 11
-36.5729
 21
-17.8532
  0
LINE
  8
0
 10
-36.5729
 20
-17.8532
 11
-36.9379
 21
-17.9469
  0
LINE
  8
0
 10
-36.9379
 20
-17.9469
 11
-37.3116
 21
-17.9941
  0
LINE
  8
0
 10
-37.3116
 20
-17.9941
 11
-37.6884
 21
-17.9941
  0
ENDSEC
  0
SECTION
  2
OBJECTS
  0
DICTIONARY
  0
ENDSEC
  0
EOF
