<?xml version="1.0" standalone="no"?>
<!DOCTYPE svg PUBLIC "-//W3C//DTD SVG 1.1//EN" "http://www.w3.org/Graphics/SVG/1.1/DTD/svg11.dtd">
<svg width="314mm" height="104mm" viewBox="-157 -52 314 104" xmlns="http://www.w3.org/2000/svg" version="1.1">
<title>OpenSCAD Model</title>
<path d="
M 152.937,51.9114 L 153.545,51.7553 L 154.129,51.5241 L 154.679,51.2216 L 155.187,50.8526 L 155.645,50.4227
 L 156.045,49.9389 L 156.382,49.4088 L 156.649,48.8406 L 156.843,48.2434 L 156.961,47.6267 L 157,47
 L 157,-47 L 156.961,-47.6267 L 156.843,-48.2434 L 156.649,-48.8406 L 156.382,-49.4088 L 156.045,-49.9389
 L 155.645,-50.4227 L 155.187,-50.8526 L 154.679,-51.2216 L 154.129,-51.5241 L 153.545,-51.7553 L 152.937,-51.9114
 L 152.314,-51.9901 L -152.314,-51.9901 L -152.937,-51.9114 L -153.545,-51.7553 L -154.129,-51.5241 L -154.679,-51.2216
 L -155.187,-50.8526 L -155.645,-50.4227 L -156.045,-49.9389 L -156.382,-49.4088 L -156.649,-48.8406 L -156.843,-48.2434
 L -156.961,-47.6267 L -157,-47 L -157,47 L -156.961,47.6267 L -156.843,48.2434 L -156.649,48.8406
 L -156.382,49.4088 L -156.045,49.9389 L -155.645,50.4227 L -155.187,50.8526 L -154.679,51.2216 L -154.129,51.5241
 L -153.545,51.7553 L -152.937,51.9114 L -152.314,51.9901 L 152.314,51.9901 z
M 149.812,-42.0059 L 149.438,-42.0531 L 149.073,-42.1468 L 148.723,-42.2855 L 148.393,-42.467 L 148.088,-42.6885
 L 147.813,-42.9464 L 147.573,-43.2366 L 147.371,-43.5547 L 147.211,-43.8956 L 147.094,-44.2539 L 147.024,-44.624
 L 147,-45 L 147.024,-45.376 L 147.094,-45.7461 L 147.211,-46.1044 L 147.371,-46.4453 L 147.573,-46.7634
 L 147.813,-47.0536 L 148.088,-47.3115 L 148.393,-47.533 L 148.723,-47.7145 L 149.073,-47.8532 L 149.438,-47.9469
 L 149.812,-47.9941 L 150.188,-47.9941 L 150.562,-47.9469 L 150.927,-47.8532 L 151.277,-47.7145 L 151.607,-47.533
 L 151.912,-47.3115 L 152.187,-47.0536 L 152.427,-46.7634 L 152.629,-46.4453 L 152.789,-46.1044 L 152.906,-45.7461
 L 152.976,-45.376 L 153,-45 L 152.976,-44.624 L 152.906,-44.2539 L 152.789,-43.8956 L 152.629,-43.5547
 L 152.427,-43.2366 L 152.187,-42.9464 L 151.912,-42.6885 L 151.607,-42.467 L 151.277,-42.2855 L 150.927,-42.1468
 L 150.562,-42.0531 L 150.188,-42.0059 z
M -135.188,-42.0059 L -135.562,-42.0531 L -135.927,-42.1468 L -136.277,-42.2855 L -136.607,-42.467 L -136.912,-42.6885
 L -137.187,-42.9464 L -137.427,-43.2366 L -137.629,-43.5547 L -137.789,-43.8956 L -137.906,-44.2539 L -137.976,-44.624
 L -138,-45 L -137.976,-45.376 L -137.906,-45.7461 L -137.789,-46.1044 L -137.629,-46.4453 L -137.427,-46.7634
 L -137.187,-47.0536 L -136.912,-47.3115 L -136.607,-47.533 L -136.277,-47.7145 L -135.927,-47.8532 L -135.562,-47.9469
 L -135.188,-47.9941 L -134.812,-47.9941 L -134.438,-47.9469 L -134.073,-47.8532 L -133.723,-47.7145 L -133.393,-47.533
 L -133.088,-47.3115 L -132.813,-47.0536 L -132.573,-46.7634 L -132.371,-46.4453 L -132.211,-46.1044 L -132.094,-45.7461
 L -132.024,-45.376 L -132,-45 L -132.024,-44.624 L -132.094,-44.2539 L -132.211,-43.8956 L -132.371,-43.5547
 L -132.573,-43.2366 L -132.813,-42.9464 L -133.088,-42.6885 L -133.393,-42.467 L -133.723,-42.2855 L -134.073,-42.1468
 L -134.438,-42.0531 L -134.812,-42.0059 z
M 44.8116,-42.0059 L 44.4379,-42.0531 L 44.0729,-42.1468 L 43.7227,-42.2855 L 43.3925,-42.467 L 43.0877,-42.6885
 L 42.8131,-42.9464 L 42.5729,-43.2366 L 42.3711,-43.5547 L 42.2107,-43.8956 L 42.0942,-44.2539 L 42.0237,-44.624
 L 42,-45 L 42.0237,-45.376 L 42.0942,-45.7461 L 42.2107,-46.1044 L 42.3711,-46.4453 L 42.5729,-46.7634
 L 42.8131,-47.0536 L 43.0877,-47.3115 L 43.3925,-47.533 L 43.7227,-47.7145 L 44.0729,-47.8532 L 44.4379,-47.9469
 L 44.8116,-47.9941 L 45.1884,-47.9941 L 45.5621,-47.9469 L 45.927,-47.8532 L 46.2773,-47.7145 L 46.6075,-47.533
 L 46.9123,-47.3115 L 47.1869,-47.0536 L 47.427,-46.7634 L 47.6289,-46.4453 L 47.7893,-46.1044 L 47.9057,-45.7461
 L 47.9763,-45.376 L 48,-45 L 47.9763,-44.624 L 47.9057,-44.2539 L 47.7893,-43.8956 L 47.6289,-43.5547
 L 47.427,-43.2366 L 47.1869,-42.9464 L 46.9123,-42.6885 L 46.6075,-42.467 L 46.2773,-42.2855 L 45.927,-42.1468
 L 45.5621,-42.0531 L 45.1884,-42.0059 z
M -120.188,-42.0059 L -120.562,-42.0531 L -120.927,-42.1468 L -121.277,-42.2855 L -121.607,-42.467 L -121.912,-42.6885
 L -122.187,-42.9464 L -122.427,-43.2366 L -122.629,-43.5547 L -122.789,-43.8956 L -122.906,-44.2539 L -122.976,-44.624
 L -123,-45 L -122.976,-45.376 L -122.906,-45.7461 L -122.789,-46.1044 L -122.629,-46.4453 L -122.427,-46.7634
 L -122.187,-47.0536 L -121.912,-47.3115 L -121.607,-47.533 L -121.277,-47.7145 L -120.927,-47.8532 L -120.562,-47.9469
 L -120.188,-47.9941 L -119.812,-47.9941 L -119.438,-47.9469 L -119.073,-47.8532 L -118.723,-47.7145 L -118.393,-47.533
 L -118.088,-47.3115 L -117.813,-47.0536 L -117.573,-46.7634 L -117.371,-46.4453 L -117.211,-46.1044 L -117.094,-45.7461
 L -117.024,-45.376 L -117,-45 L -117.024,-44.624 L -117.094,-44.2539 L -117.211,-43.8956 L -117.371,-43.5547
 L -117.573,-43.2366 L -117.813,-42.9464 L -118.088,-42.6885 L -118.393,-42.467 L -118.723,-42.2855 L -119.073,-42.1468
 L -119.438,-42.0531 L -119.812,-42.0059 z
M 89.8116,-42.0059 L 89.4379,-42.0531 L 89.073,-42.1468 L 88.7227,-42.2855 L 88.3925,-42.467 L 88.0877,-42.6885
 L 87.8131,-42.9464 L 87.573,-43.2366 L 87.3711,-43.5547 L 87.2107,-43.8956 L 87.0943,-44.2539 L 87.0237,-44.624
 L 87,-45 L 87.0237,-45.376 L 87.0943,-45.7461 L 87.2107,-46.1044 L 87.3711,-46.4453 L 87.573,-46.7634
 L 87.8131,-47.0536 L 88.0877,-47.3115 L 88.3925,-47.533 L 88.7227,-47.7145 L 89.073,-47.8532 L 89.4379,-47.9469
 L 89.8116,-47.9941 L 90.1884,-47.9941 L 90.5621,-47.9469 L 90.927,-47.8532 L 91.2773,-47.7145 L 91.6075,-47.533
 L 91.9123,-47.3115 L 92.1869,-47.0536 L 92.427,-46.7634 L 92.6289,-46.4453 L 92.7893,-46.1044 L 92.9057,-45.7461
 L 92.9763,-45.376 L 93,-45 L 92.9763,-44.624 L 92.9057,-44.2539 L 92.7893,-43.8956 L 92.6289,-43.5547
 L 92.427,-43.2366 L 92.1869,-42.9464 L 91.9123,-42.6885 L 91.6075,-42.467 L 91.2773,-42.2855 L 90.927,-42.1468
 L 90.5621,-42.0531 L 90.1884,-42.0059 z
M -75.1884,-42.0059 L -75.5621,-42.0531 L -75.927,-42.1468 L -76.2773,-42.2855 L -76.6075,-42.467 L -76.9123,-42.6885
 L -77.1869,-42.9464 L -77.427,-43.2366 L -77.6289,-43.5547 L -77.7893,-43.8956 L -77.9057,-44.2539 L -77.9763,-44.624
 L -78,-45 L -77.9763,-45.376 L -77.9057,-45.7461 L -77.7893,-46.1044 L -77.6289,-46.4453 L -77.427,-46.7634
 L -77.1869,-47.0536 L -76.9123,-47.3115 L -76.6075,-47.533 L -76.2773,-47.7145 L -75.927,-47.8532 L -75.5621,-47.9469
 L -75.1884,-47.9941 L -74.8116,-47.9941 L -74.4379,-47.9469 L -74.073,-47.8532 L -73.7227,-47.7145 L -73.3925,-47.533
 L -73.0877,-47.3115 L -72.8131,-47.0536 L -72.573,-46.7634 L -72.3711,-46.4453 L -72.2107,-46.1044 L -72.0943,-45.7461
 L -72.0237,-45.376 L -72,-45 L -72.0237,-44.624 L -72.0943,-44.2539 L -72.2107,-43.8956 L -72.3711,-43.5547
 L -72.573,-43.2366 L -72.8131,-42.9464 L -73.0877,-42.6885 L -73.3925,-42.467 L -73.7227,-42.2855 L -74.073,-42.1468
 L -74.4379,-42.0531 L -74.8116,-42.0059 z
M -0.18837,-42.0059 L -0.562134,-42.0531 L -0.927048,-42.1468 L -1.27733,-42.2855 L -1.60747,-42.467 L -1.91226,-42.6885
 L -2.1869,-42.9464 L -2.42705,-43.2366 L -2.62891,-43.5547 L -2.78932,-43.8956 L -2.90575,-44.2539 L -2.97633,-44.624
 L -3,-45 L -2.97633,-45.376 L -2.90575,-45.7461 L -2.78932,-46.1044 L -2.62891,-46.4453 L -2.42705,-46.7634
 L -2.1869,-47.0536 L -1.91226,-47.3115 L -1.60747,-47.533 L -1.27733,-47.7145 L -0.927048,-47.8532 L -0.562134,-47.9469
 L -0.18837,-47.9941 L 0.18837,-47.9941 L 0.562134,-47.9469 L 0.927048,-47.8532 L 1.27733,-47.7145 L 1.60747,-47.533
 L 1.91226,-47.3115 L 2.1869,-47.0536 L 2.42705,-46.7634 L 2.62891,-46.4453 L 2.78932,-46.1044 L 2.90575,-45.7461
 L 2.97633,-45.376 L 3,-45 L 2.97633,-44.624 L 2.90575,-44.2539 L 2.78932,-43.8956 L 2.62891,-43.5547
 L 2.42705,-43.2366 L 2.1869,-42.9464 L 1.91226,-42.6885 L 1.60747,-42.467 L 1.27733,-42.2855 L 0.927048,-42.1468
 L 0.562134,-42.0531 L 0.18837,-42.0059 z
M 74.8116,-42.0059 L 74.4379,-42.0531 L 74.073,-42.1468 L 73.7227,-42.2855 L 73.3925,-42.467 L 73.0877,-42.6885
 L 72.8131,-42.9464 L 72.573,-43.2366 L 72.3711,-43.5547 L 72.2107,-43.8956 L 72.0943,-44.2539 L 72.0237,-44.624
 L 72,-45 L 72.0237,-45.376 L 72.0943,-45.7461 L 72.2107,-46.1044 L 72.3711,-46.4453 L 72.573,-46.7634
 L 72.8131,-47.0536 L 73.0877,-47.3115 L 73.3925,-47.533 L 73.7227,-47.7145 L 74.073,-47.8532 L 74.4379,-47.9469
 L 74.8116,-47.9941 L 75.1884,-47.9941 L 75.5621,-47.9469 L 75.927,-47.8532 L 76.2773,-47.7145 L 76.6075,-47.533
 L 76.9123,-47.3115 L 77.1869,-47.0536 L 77.427,-46.7634 L 77.6289,-46.4453 L 77.7893,-46.1044 L 77.9057,-45.7461
 L 77.9763,-45.376 L 78,-45 L 77.9763,-44.624 L 77.9057,-44.2539 L 77.7893,-43.8956 L 77.6289,-43.5547
 L 77.427,-43.2366 L 77.1869,-42.9464 L 76.9123,-42.6885 L 76.6075,-42.467 L 76.2773,-42.2855 L 75.927,-42.1468
 L 75.5621,-42.0531 L 75.1884,-42.0059 z
M 29.8116,-42.0059 L 29.4379,-42.0531 L 29.0729,-42.1468 L 28.7227,-42.2855 L 28.3925,-42.467 L 28.0877,-42.6885
 L 27.8131,-42.9464 L 27.5729,-43.2366 L 27.3711,-43.5547 L 27.2107,-43.8956 L 27.0942,-44.2539 L 27.0237,-44.624
 L 27,-45 L 27.0237,-45.376 L 27.0942,-45.7461 L 27.2107,-46.1044 L 27.3711,-46.4453 L 27.5729,-46.7634
 L 27.8131,-47.0536 L 28.0877,-47.3115 L 28.3925,-47.533 L 28.7227,-47.7145 L 29.0729,-47.8532 L 29.4379,-47.9469
 L 29.8116,-47.9941 L 30.1884,-47.9941 L 30.5621,-47.9469 L 30.927,-47.8532 L 31.2773,-47.7145 L 31.6075,-47.533
 L 31.9123,-47.3115 L 32.1869,-47.0536 L 32.427,-46.7634 L 32.6289,-46.4453 L 32.7893,-46.1044 L 32.9057,-45.7461
 L 32.9763,-45.376 L 33,-45 L 32.9763,-44.624 L 32.9057,-44.2539 L 32.7893,-43.8956 L 32.6289,-43.5547
 L 32.427,-43.2366 L 32.1869,-42.9464 L 31.9123,-42.6885 L 31.6075,-42.467 L 31.2773,-42.2855 L 30.927,-42.1468
 L 30.5621,-42.0531 L 30.1884,-42.0059 z
M -60.1884,-42.0059 L -60.5621,-42.0531 L -60.927,-42.1468 L -61.2773,-42.2855 L -61.6075,-42.467 L -61.9123,-42.6885
 L -62.1869,-42.9464 L -62.427,-43.2366 L -62.6289,-43.5547 L -62.7893,-43.8956 L -62.9057,-44.2539 L -62.9763,-44.624
 L -63,-45 L -62.9763,-45.376 L -62.9057,-45.7461 L -62.7893,-46.1044 L -62.6289,-46.4453 L -62.427,-46.7634
 L -62.1869,-47.0536 L -61.9123,-47.3115 L -61.6075,-47.533 L -61.2773,-47.7145 L -60.927,-47.8532 L -60.5621,-47.9469
 L -60.1884,-47.9941 L -59.8116,-47.9941 L -59.4379,-47.9469 L -59.0729,-47.8532 L -58.7227,-47.7145 L -58.3925,-47.533
 L -58.0877,-47.3115 L -57.8131,-47.0536 L -57.5729,-46.7634 L -57.3711,-46.4453 L -57.2107,-46.1044 L -57.0942,-45.7461
 L -57.0237,-45.376 L -57,-45 L -57.0237,-44.624 L -57.0942,-44.2539 L -57.2107,-43.8956 L -57.3711,-43.5547
 L -57.5729,-43.2366 L -57.8131,-42.9464 L -58.0877,-42.6885 L -58.3925,-42.467 L -58.7227,-42.2855 L -59.0729,-42.1468
 L -59.4379,-42.0531 L -59.8116,-42.0059 z
M -105.188,-42.0059 L -105.562,-42.0531 L -105.927,-42.1468 L -106.277,-42.2855 L -106.607,-42.467 L -106.912,-42.6885
 L -107.187,-42.9464 L -107.427,-43.2366 L -107.629,-43.5547 L -107.789,-43.8956 L -107.906,-44.2539 L -107.976,-44.624
 L -108,-45 L -107.976,-45.376 L -107.906,-45.7461 L -107.789,-46.1044 L -107.629,-46.4453 L -107.427,-46.7634
 L -107.187,-47.0536 L -106.912,-47.3115 L -106.607,-47.533 L -106.277,-47.7145 L -105.927,-47.8532 L -105.562,-47.9469
 L -105.188,-47.9941 L -104.812,-47.9941 L -104.438,-47.9469 L -104.073,-47.8532 L -103.723,-47.7145 L -103.393,-47.533
 L -103.088,-47.3115 L -102.813,-47.0536 L -102.573,-46.7634 L -102.371,-46.4453 L -102.211,-46.1044 L -102.094,-45.7461
 L -102.024,-45.376 L -102,-45 L -102.024,-44.624 L -102.094,-44.2539 L -102.211,-43.8956 L -102.371,-43.5547
 L -102.573,-43.2366 L -102.813,-42.9464 L -103.088,-42.6885 L -103.393,-42.467 L -103.723,-42.2855 L -104.073,-42.1468
 L -104.438,-42.0531 L -104.812,-42.0059 z
M -45.1884,-42.0059 L -45.5621,-42.0531 L -45.927,-42.1468 L -46.2773,-42.2855 L -46.6075,-42.467 L -46.9123,-42.6885
 L -47.1869,-42.9464 L -47.427,-43.2366 L -47.6289,-43.5547 L -47.7893,-43.8956 L -47.9057,-44.2539 L -47.9763,-44.624
 L -48,-45 L -47.9763,-45.376 L -47.9057,-45.7461 L -47.7893,-46.1044 L -47.6289,-46.4453 L -47.427,-46.7634
 L -47.1869,-47.0536 L -46.9123,-47.3115 L -46.6075,-47.533 L -46.2773,-47.7145 L -45.927,-47.8532 L -45.5621,-47.9469
 L -45.1884,-47.9941 L -44.8116,-47.9941 L -44.4379,-47.9469 L -44.0729,-47.8532 L -43.7227,-47.7145 L -43.3925,-47.533
 L -43.0877,-47.3115 L -42.8131,-47.0536 L -42.5729,-46.7634 L -42.3711,-46.4453 L -42.2107,-46.1044 L -42.0942,-45.7461
 L -42.0237,-45.376 L -42,-45 L -42.0237,-44.624 L -42.0942,-44.2539 L -42.2107,-43.8956 L -42.3711,-43.5547
 L -42.5729,-43.2366 L -42.8131,-42.9464 L -43.0877,-42.6885 L -43.3925,-42.467 L -43.7227,-42.2855 L -44.0729,-42.1468
 L -44.4379,-42.0531 L -44.8116,-42.0059 z
M 14.8116,-42.0059 L 14.4379,-42.0531 L 14.0729,-42.1468 L 13.7227,-42.2855 L 13.3925,-42.467 L 13.0877,-42.6885
 L 12.8131,-42.9464 L 12.5729,-43.2366 L 12.3711,-43.5547 L 12.2107,-43.8956 L 12.0942,-44.2539 L 12.0237,-44.624
 L 12,-45 L 12.0237,-45.376 L 12.0942,-45.7461 L 12.2107,-46.1044 L 12.3711,-46.4453 L 12.5729,-46.7634
 L 12.8131,-47.0536 L 13.0877,-47.3115 L 13.3925,-47.533 L 13.7227,-47.7145 L 14.0729,-47.8532 L 14.4379,-47.9469
 L 14.8116,-47.9941 L 15.1884,-47.9941 L 15.5621,-47.9469 L 15.927,-47.8532 L 16.2773,-47.7145 L 16.6075,-47.533
 L 16.9123,-47.3115 L 17.1869,-47.0536 L 17.427,-46.7634 L 17.6289,-46.4453 L 17.7893,-46.1044 L 17.9057,-45.7461
 L 17.9763,-45.376 L 18,-45 L 17.9763,-44.624 L 17.9057,-44.2539 L 17.7893,-43.8956 L 17.6289,-43.5547
 L 17.427,-43.2366 L 17.1869,-42.9464 L 16.9123,-42.6885 L 16.6075,-42.467 L 16.2773,-42.2855 L 15.927,-42.1468
 L 15.5621,-42.0531 L 15.1884,-42.0059 z
M -150.188,-42.0059 L -150.562,-42.0531 L -150.927,-42.1468 L -151.277,-42.2855 L -151.607,-42.467 L -151.912,-42.6885
 L -152.187,-42.9464 L -152.427,-43.2366 L -152.629,-43.5547 L -152.789,-43.8956 L -152.906,-44.2539 L -152.976,-44.624
 L -153,-45 L -152.976,-45.376 L -152.906,-45.7461 L -152.789,-46.1044 L -152.629,-46.4453 L -152.427,-46.7634
 L -152.187,-47.0536 L -151.912,-47.3115 L -151.607,-47.533 L -151.277,-47.7145 L -150.927,-47.8532 L -150.562,-47.9469
 L -150.188,-47.9941 L -149.812,-47.9941 L -149.438,-47.9469 L -149.073,-47.8532 L -148.723,-47.7145 L -148.393,-47.533
 L -148.088,-47.3115 L -147.813,-47.0536 L -147.573,-46.7634 L -147.371,-46.4453 L -147.211,-46.1044 L -147.094,-45.7461
 L -147.024,-45.376 L -147,-45 L -147.024,-44.624 L -147.094,-44.2539 L -147.211,-43.8956 L -147.371,-43.5547
 L -147.573,-43.2366 L -147.813,-42.9464 L -148.088,-42.6885 L -148.393,-42.467 L -148.723,-42.2855 L -149.073,-42.1468
 L -149.438,-42.0531 L -149.812,-42.0059 z
M -90.1884,-42.0059 L -90.5621,-42.0531 L -90.927,-42.1468 L -91.2773,-42.2855 L -91.6075,-42.467 L -91.9123,-42.6885
 L -92.1869,-42.9464 L -92.427,-43.2366 L -92.6289,-43.5547 L -92.7893,-43.8956 L -92.9057,-44.2539 L -92.9763,-44.624
 L -93,-45 L -92.9763,-45.376 L -92.9057,-45.7461 L -92.7893,-46.1044 L -92.6289,-46.4453 L -92.427,-46.7634
 L -92.1869,-47.0536 L -91.9123,-47.3115 L -91.6075,-47.533 L -91.2773,-47.7145 L -90.927,-47.8532 L -90.5621,-47.9469
 L -90.1884,-47.9941 L -89.8116,-47.9941 L -89.4379,-47.9469 L -89.073,-47.8532 L -88.7227,-47.7145 L -88.3925,-47.533
 L -88.0877,-47.3115 L -87.8131,-47.0536 L -87.573,-46.7634 L -87.3711,-46.4453 L -87.2107,-46.1044 L -87.0943,-45.7461
 L -87.0237,-45.376 L -87,-45 L -87.0237,-44.624 L -87.0943,-44.2539 L -87.2107,-43.8956 L -87.3711,-43.5547
 L -87.573,-43.2366 L -87.8131,-42.9464 L -88.0877,-42.6885 L -88.3925,-42.467 L -88.7227,-42.2855 L -89.073,-42.1468
 L -89.4379,-42.0531 L -89.8116,-42.0059 z
M 104.812,-42.0059 L 104.438,-42.0531 L 104.073,-42.1468 L 103.723,-42.2855 L 103.393,-42.467 L 103.088,-42.6885
 L 102.813,-42.9464 L 102.573,-43.2366 L 102.371,-43.5547 L 102.211,-43.8956 L 102.094,-44.2539 L 102.024,-44.624
 L 102,-45 L 102.024,-45.376 L 102.094,-45.7461 L 102.211,-46.1044 L 102.371,-46.4453 L 102.573,-46.7634
 L 102.813,-47.0536 L 103.088,-47.3115 L 103.393,-47.533 L 103.723,-47.7145 L 104.073,-47.8532 L 104.438,-47.9469
 L 104.812,-47.9941 L 105.188,-47.9941 L 105.562,-47.9469 L 105.927,-47.8532 L 106.277,-47.7145 L 106.607,-47.533
 L 106.912,-47.3115 L 107.187,-47.0536 L 107.427,-46.7634 L 107.629,-46.4453 L 107.789,-46.1044 L 107.906,-45.7461
 L 107.976,-45.376 L 108,-45 L 107.976,-44.624 L 107.906,-44.2539 L 107.789,-43.8956 L 107.629,-43.5547
 L 107.427,-43.2366 L 107.187,-42.9464 L 106.912,-42.6885 L 106.607,-42.467 L 106.277,-42.2855 L 105.927,-42.1468
 L 105.562,-42.0531 L 105.188,-42.0059 z
M -30.1884,-42.0059 L -30.5621,-42.0531 L -30.927,-42.1468 L -31.2773,-42.2855 L -31.6075,-42.467 L -31.9123,-42.6885
 L -32.1869,-42.9464 L -32.427,-43.2366 L -32.6289,-43.5547 L -32.7893,-43.8956 L -32.9057,-44.2539 L -32.9763,-44.624
 L -33,-45 L -32.9763,-45.376 L -32.9057,-45.7461 L -32.7893,-46.1044 L -32.6289,-46.4453 L -32.427,-46.7634
 L -32.1869,-47.0536 L -31.9123,-47.3115 L -31.6075,-47.533 L -31.2773,-47.7145 L -30.927,-47.8532 L -30.5621,-47.9469
 L -30.1884,-47.9941 L -29.8116,-47.9941 L -29.4379,-47.9469 L -29.0729,-47.8532 L -28.7227,-47.7145 L -28.3925,-47.533
 L -28.0877,-47.3115 L -27.8131,-47.0536 L -27.5729,-46.7634 L -27.3711,-46.4453 L -27.2107,-46.1044 L -27.0942,-45.7461
 L -27.0237,-45.376 L -27,-45 L -27.0237,-44.624 L -27.0942,-44.2539 L -27.2107,-43.8956 L -27.3711,-43.5547
 L -27.5729,-43.2366 L -27.8131,-42.9464 L -28.0877,-42.6885 L -28.3925,-42.467 L -28.7227,-42.2855 L -29.0729,-42.1468
 L -29.4379,-42.0531 L -29.8116,-42.0059 z
M 59.8116,-42.0059 L 59.4379,-42.0531 L 59.0729,-42.1468 L 58.7227,-42.2855 L 58.3925,-42.467 L 58.0877,-42.6885
 L 57.8131,-42.9464 L 57.5729,-43.2366 L 57.3711,-43.5547 L 57.2107,-43.8956 L 57.0942,-44.2539 L 57.0237,-44.624
 L 57,-45 L 57.0237,-45.376 L 57.0942,-45.7461 L 57.2107,-46.1044 L 57.3711,-46.4453 L 57.5729,-46.7634
 L 57.8131,-47.0536 L 58.0877,-47.3115 L 58.3925,-47.533 L 58.7227,-47.7145 L 59.0729,-47.8532 L 59.4379,-47.9469
 L 59.8116,-47.9941 L 60.1884,-47.9941 L 60.5621,-47.9469 L 60.927,-47.8532 L 61.2773,-47.7145 L 61.6075,-47.533
 L 61.9123,-47.3115 L 62.1869,-47.0536 L 62.427,-46.7634 L 62.6289,-46.4453 L 62.7893,-46.1044 L 62.9057,-45.7461
 L 62.9763,-45.376 L 63,-45 L 62.9763,-44.624 L 62.9057,-44.2539 L 62.7893,-43.8956 L 62.6289,-43.5547
 L 62.427,-43.2366 L 62.1869,-42.9464 L 61.9123,-42.6885 L 61.6075,-42.467 L 61.2773,-42.2855 L 60.927,-42.1468
 L 60.5621,-42.0531 L 60.1884,-42.0059 z
M 119.812,-42.0059 L 119.438,-42.0531 L 119.073,-42.1468 L 118.723,-42.2855 L 118.393,-42.467 L 118.088,-42.6885
 L 117.813,-42.9464 L 117.573,-43.2366 L 117.371,-43.5547 L 117.211,-43.8956 L 117.094,-44.2539 L 117.024,-44.624
 L 117,-45 L 117.024,-45.376 L 117.094,-45.7461 L 117.211,-46.1044 L 117.371,-46.4453 L 117.573,-46.7634
 L 117.813,-47.0536 L 118.088,-47.3115 L 118.393,-47.533 L 118.723,-47.7145 L 119.073,-47.8532 L 119.438,-47.9469
 L 119.812,-47.9941 L 120.188,-47.9941 L 120.562,-47.9469 L 120.927,-47.8532 L 121.277,-47.7145 L 121.607,-47.533
 L 121.912,-47.3115 L 122.187,-47.0536 L 122.427,-46.7634 L 122.629,-46.4453 L 122.789,-46.1044 L 122.906,-45.7461
 L 122.976,-45.376 L 123,-45 L 122.976,-44.624 L 122.906,-44.2539 L 122.789,-43.8956 L 122.629,-43.5547
 L 122.427,-43.2366 L 122.187,-42.9464 L 121.912,-42.6885 L 121.607,-42.467 L 121.277,-42.2855 L 120.927,-42.1468
 L 120.562,-42.0531 L 120.188,-42.0059 z
M -15.1884,-42.0059 L -15.5621,-42.0531 L -15.927,-42.1468 L -16.2773,-42.2855 L -16.6075,-42.467 L -16.9123,-42.6885
 L -17.1869,-42.9464 L -17.427,-43.2366 L -17.6289,-43.5547 L -17.7893,-43.8956 L -17.9057,-44.2539 L -17.9763,-44.624
 L -18,-45 L -17.9763,-45.376 L -17.9057,-45.7461 L -17.7893,-46.1044 L -17.6289,-46.4453 L -17.427,-46.7634
 L -17.1869,-47.0536 L -16.9123,-47.3115 L -16.6075,-47.533 L -16.2773,-47.7145 L -15.927,-47.8532 L -15.5621,-47.9469
 L -15.1884,-47.9941 L -14.8116,-47.9941 L -14.4379,-47.9469 L -14.0729,-47.8532 L -13.7227,-47.7145 L -13.3925,-47.533
 L -13.0877,-47.3115 L -12.8131,-47.0536 L -12.5729,-46.7634 L -12.3711,-46.4453 L -12.2107,-46.1044 L -12.0942,-45.7461
 L -12.0237,-45.376 L -12,-45 L -12.0237,-44.624 L -12.0942,-44.2539 L -12.2107,-43.8956 L -12.3711,-43.5547
 L -12.5729,-43.2366 L -12.8131,-42.9464 L -13.0877,-42.6885 L -13.3925,-42.467 L -13.7227,-42.2855 L -14.0729,-42.1468
 L -14.4379,-42.0531 L -14.8116,-42.0059 z
M 134.812,-42.0059 L 134.438,-42.0531 L 134.073,-42.1468 L 133.723,-42.2855 L 133.393,-42.467 L 133.088,-42.6885
 L 132.813,-42.9464 L 132.573,-43.2366 L 132.371,-43.5547 L 132.211,-43.8956 L 132.094,-44.2539 L 132.024,-44.624
 L 132,-45 L 132.024,-45.376 L 132.094,-45.7461 L 132.211,-46.1044 L 132.371,-46.4453 L 132.573,-46.7634
 L 132.813,-47.0536 L 133.088,-47.3115 L 133.393,-47.533 L 133.723,-47.7145 L 134.073,-47.8532 L 134.438,-47.9469
 L 134.812,-47.9941 L 135.188,-47.9941 L 135.562,-47.9469 L 135.927,-47.8532 L 136.277,-47.7145 L 136.607,-47.533
 L 136.912,-47.3115 L 137.187,-47.0536 L 137.427,-46.7634 L 137.629,-46.4453 L 137.789,-46.1044 L 137.906,-45.7461
 L 137.976,-45.376 L 138,-45 L 137.976,-44.624 L 137.906,-44.2539 L 137.789,-43.8956 L 137.629,-43.5547
 L 137.427,-43.2366 L 137.187,-42.9464 L 136.912,-42.6885 L 136.607,-42.467 L 136.277,-42.2855 L 135.927,-42.1468
 L 135.562,-42.0531 L 135.188,-42.0059 z
M 7.40581,-43.503 L 7.21892,-43.5266 L 7.03647,-43.5734 L 6.86133,-43.6428 L 6.69626,-43.7335 L 6.54385,-43.8442
 L 6.40654,-43.9732 L 6.28647,-44.1183 L 6.18553,-44.2774 L 6.10533,-44.4478 L 6.04712,-44.627 L 6.01183,-44.812
 L 6,-45 L 6.01183,-45.188 L 6.04712,-45.373 L 6.10533,-45.5522 L 6.18553,-45.7226 L 6.28647,-45.8817
 L 6.40654,-46.0268 L 6.54385,-46.1558 L 6.69626,-46.2665 L 6.86133,-46.3572 L 7.03647,-46.4266 L 7.21892,-46.4734
 L 7.40581,-46.497 L 7.59418,-46.497 L 7.78107,-46.4734 L 7.96352,-46.4266 L 8.13866,-46.3572 L 8.30373,-46.2665
 L 8.45613,-46.1558 L 8.59344,-46.0268 L 8.71352,-45.8817 L 8.81445,-45.7226 L 8.89465,-45.5522 L 8.95287,-45.373
 L 8.98816,-45.188 L 9,-45 L 8.98816,-44.812 L 8.95287,-44.627 L 8.89465,-44.4478 L 8.81445,-44.2774
 L 8.71352,-44.1183 L 8.59344,-43.9732 L 8.45613,-43.8442 L 8.30373,-43.7335 L 8.13866,-43.6428 L 7.96352,-43.5734
 L 7.78107,-43.5266 L 7.59418,-43.503 z
M 112.406,-43.503 L 112.219,-43.5266 L 112.036,-43.5734 L 111.861,-43.6428 L 111.696,-43.7335 L 111.544,-43.8442
 L 111.407,-43.9732 L 111.286,-44.1183 L 111.186,-44.2774 L 111.105,-44.4478 L 111.047,-44.627 L 111.012,-44.812
 L 111,-45 L 111.012,-45.188 L 111.047,-45.373 L 111.105,-45.5522 L 111.186,-45.7226 L 111.286,-45.8817
 L 111.407,-46.0268 L 111.544,-46.1558 L 111.696,-46.2665 L 111.861,-46.3572 L 112.036,-46.4266 L 112.219,-46.4734
 L 112.406,-46.497 L 112.594,-46.497 L 112.781,-46.4734 L 112.964,-46.4266 L 113.139,-46.3572 L 113.304,-46.2665
 L 113.456,-46.1558 L 113.593,-46.0268 L 113.714,-45.8817 L 113.814,-45.7226 L 113.895,-45.5522 L 113.953,-45.373
 L 113.988,-45.188 L 114,-45 L 113.988,-44.812 L 113.953,-44.627 L 113.895,-44.4478 L 113.814,-44.2774
 L 113.714,-44.1183 L 113.593,-43.9732 L 113.456,-43.8442 L 113.304,-43.7335 L 113.139,-43.6428 L 112.964,-43.5734
 L 112.781,-43.5266 L 112.594,-43.503 z
M -22.5942,-43.503 L -22.7811,-43.5266 L -22.9635,-43.5734 L -23.1387,-43.6428 L -23.3037,-43.7335 L -23.4561,-43.8442
 L -23.5934,-43.9732 L -23.7135,-44.1183 L -23.8145,-44.2774 L -23.8947,-44.4478 L -23.9529,-44.627 L -23.9882,-44.812
 L -24,-45 L -23.9882,-45.188 L -23.9529,-45.373 L -23.8947,-45.5522 L -23.8145,-45.7226 L -23.7135,-45.8817
 L -23.5934,-46.0268 L -23.4561,-46.1558 L -23.3037,-46.2665 L -23.1387,-46.3572 L -22.9635,-46.4266 L -22.7811,-46.4734
 L -22.5942,-46.497 L -22.4058,-46.497 L -22.2189,-46.4734 L -22.0365,-46.4266 L -21.8613,-46.3572 L -21.6963,-46.2665
 L -21.5439,-46.1558 L -21.4065,-46.0268 L -21.2865,-45.8817 L -21.1855,-45.7226 L -21.1053,-45.5522 L -21.0471,-45.373
 L -21.0118,-45.188 L -21,-45 L -21.0118,-44.812 L -21.0471,-44.627 L -21.1053,-44.4478 L -21.1855,-44.2774
 L -21.2865,-44.1183 L -21.4065,-43.9732 L -21.5439,-43.8442 L -21.6963,-43.7335 L -21.8613,-43.6428 L -22.0365,-43.5734
 L -22.2189,-43.5266 L -22.4058,-43.503 z
M -52.5942,-43.503 L -52.7811,-43.5266 L -52.9635,-43.5734 L -53.1387,-43.6428 L -53.3037,-43.7335 L -53.4561,-43.8442
 L -53.5934,-43.9732 L -53.7135,-44.1183 L -53.8145,-44.2774 L -53.8947,-44.4478 L -53.9529,-44.627 L -53.9882,-44.812
 L -54,-45 L -53.9882,-45.188 L -53.9529,-45.373 L -53.8947,-45.5522 L -53.8145,-45.7226 L -53.7135,-45.8817
 L -53.5934,-46.0268 L -53.4561,-46.1558 L -53.3037,-46.2665 L -53.1387,-46.3572 L -52.9635,-46.4266 L -52.7811,-46.4734
 L -52.5942,-46.497 L -52.4058,-46.497 L -52.2189,-46.4734 L -52.0365,-46.4266 L -51.8613,-46.3572 L -51.6963,-46.2665
 L -51.5439,-46.1558 L -51.4065,-46.0268 L -51.2865,-45.8817 L -51.1855,-45.7226 L -51.1053,-45.5522 L -51.0471,-45.373
 L -51.0118,-45.188 L -51,-45 L -51.0118,-44.812 L -51.0471,-44.627 L -51.1053,-44.4478 L -51.1855,-44.2774
 L -51.2865,-44.1183 L -51.4065,-43.9732 L -51.5439,-43.8442 L -51.6963,-43.7335 L -51.8613,-43.6428 L -52.0365,-43.5734
 L -52.2189,-43.5266 L -52.4058,-43.503 z
M 37.4058,-43.503 L 37.2189,-43.5266 L 37.0365,-43.5734 L 36.8613,-43.6428 L 36.6963,-43.7335 L 36.5439,-43.8442
 L 36.4065,-43.9732 L 36.2865,-44.1183 L 36.1855,-44.2774 L 36.1053,-44.4478 L 36.0471,-44.627 L 36.0118,-44.812
 L 36,-45 L 36.0118,-45.188 L 36.0471,-45.373 L 36.1053,-45.5522 L 36.1855,-45.7226 L 36.2865,-45.8817
 L 36.4065,-46.0268 L 36.5439,-46.1558 L 36.6963,-46.2665 L 36.8613,-46.3572 L 37.0365,-46.4266 L 37.2189,-46.4734
 L 37.4058,-46.497 L 37.5942,-46.497 L 37.7811,-46.4734 L 37.9635,-46.4266 L 38.1387,-46.3572 L 38.3037,-46.2665
 L 38.4561,-46.1558 L 38.5934,-46.0268 L 38.7135,-45.8817 L 38.8145,-45.7226 L 38.8947,-45.5522 L 38.9529,-45.373
 L 38.9882,-45.188 L 39,-45 L 38.9882,-44.812 L 38.9529,-44.627 L 38.8947,-44.4478 L 38.8145,-44.2774
 L 38.7135,-44.1183 L 38.5934,-43.9732 L 38.4561,-43.8442 L 38.3037,-43.7335 L 38.1387,-43.6428 L 37.9635,-43.5734
 L 37.7811,-43.5266 L 37.5942,-43.503 z
M -112.594,-43.503 L -112.781,-43.5266 L -112.964,-43.5734 L -113.139,-43.6428 L -113.304,-43.7335 L -113.456,-43.8442
 L -113.593,-43.9732 L -113.714,-44.1183 L -113.814,-44.2774 L -113.895,-44.4478 L -113.953,-44.627 L -113.988,-44.812
 L -114,-45 L -113.988,-45.188 L -113.953,-45.373 L -113.895,-45.5522 L -113.814,-45.7226 L -113.714,-45.8817
 L -113.593,-46.0268 L -113.456,-46.1558 L -113.304,-46.2665 L -113.139,-46.3572 L -112.964,-46.4266 L -112.781,-46.4734
 L -112.594,-46.497 L -112.406,-46.497 L -112.219,-46.4734 L -112.036,-46.4266 L -111.861,-46.3572 L -111.696,-46.2665
 L -111.544,-46.1558 L -111.407,-46.0268 L -111.286,-45.8817 L -111.186,-45.7226 L -111.105,-45.5522 L -111.047,-45.373
 L -111.012,-45.188 L -111,-45 L -111.012,-44.812 L -111.047,-44.627 L -111.105,-44.4478 L -111.186,-44.2774
 L -111.286,-44.1183 L -111.407,-43.9732 L -111.544,-43.8442 L -111.696,-43.7335 L -111.861,-43.6428 L -112.036,-43.5734
 L -112.219,-43.5266 L -112.406,-43.503 z
M 52.4058,-43.503 L 52.2189,-43.5266 L 52.0365,-43.5734 L 51.8613,-43.6428 L 51.6963,-43.7335 L 51.5439,-43.8442
 L 51.4065,-43.9732 L 51.2865,-44.1183 L 51.1855,-44.2774 L 51.1053,-44.4478 L 51.0471,-44.627 L 51.0118,-44.812
 L 51,-45 L 51.0118,-45.188 L 51.0471,-45.373 L 51.1053,-45.5522 L 51.1855,-45.7226 L 51.2865,-45.8817
 L 51.4065,-46.0268 L 51.5439,-46.1558 L 51.6963,-46.2665 L 51.8613,-46.3572 L 52.0365,-46.4266 L 52.2189,-46.4734
 L 52.4058,-46.497 L 52.5942,-46.497 L 52.7811,-46.4734 L 52.9635,-46.4266 L 53.1387,-46.3572 L 53.3037,-46.2665
 L 53.4561,-46.1558 L 53.5934,-46.0268 L 53.7135,-45.8817 L 53.8145,-45.7226 L 53.8947,-45.5522 L 53.9529,-45.373
 L 53.9882,-45.188 L 54,-45 L 53.9882,-44.812 L 53.9529,-44.627 L 53.8947,-44.4478 L 53.8145,-44.2774
 L 53.7135,-44.1183 L 53.5934,-43.9732 L 53.4561,-43.8442 L 53.3037,-43.7335 L 53.1387,-43.6428 L 52.9635,-43.5734
 L 52.7811,-43.5266 L 52.5942,-43.503 z
M -82.5942,-43.503 L -82.7811,-43.5266 L -82.9635,-43.5734 L -83.1387,-43.6428 L -83.3037,-43.7335 L -83.4561,-43.8442
 L -83.5934,-43.9732 L -83.7135,-44.1183 L -83.8145,-44.2774 L -83.8947,-44.4478 L -83.9529,-44.627 L -83.9882,-44.812
 L -84,-45 L -83.9882,-45.188 L -83.9529,-45.373 L -83.8947,-45.5522 L -83.8145,-45.7226 L -83.7135,-45.8817
 L -83.5934,-46.0268 L -83.4561,-46.1558 L -83.3037,-46.2665 L -83.1387,-46.3572 L -82.9635,-46.4266 L -82.7811,-46.4734
 L -82.5942,-46.497 L -82.4058,-46.497 L -82.2189,-46.4734 L -82.0365,-46.4266 L -81.8613,-46.3572 L -81.6963,-46.2665
 L -81.5439,-46.1558 L -81.4065,-46.0268 L -81.2865,-45.8817 L -81.1855,-45.7226 L -81.1053,-45.5522 L -81.0471,-45.373
 L -81.0118,-45.188 L -81,-45 L -81.0118,-44.812 L -81.0471,-44.627 L -81.1053,-44.4478 L -81.1855,-44.2774
 L -81.2865,-44.1183 L -81.4065,-43.9732 L -81.5439,-43.8442 L -81.6963,-43.7335 L -81.8613,-43.6428 L -82.0365,-43.5734
 L -82.2189,-43.5266 L -82.4058,-43.503 z
M -7.59418,-43.503 L -7.78107,-43.5266 L -7.96352,-43.5734 L -8.13866,-43.6428 L -8.30373,-43.7335 L -8.45613,-43.8442
 L -8.59344,-43.9732 L -8.71352,-44.1183 L -8.81445,-44.2774 L -8.89465,-44.4478 L -8.95287,-44.627 L -8.98816,-44.812
 L -9,-45 L -8.98816,-45.188 L -8.95287,-45.373 L -8.89465,-45.5522 L -8.81445,-45.7226 L -8.71352,-45.8817
 L -8.59344,-46.0268 L -8.45613,-46.1558 L -8.30373,-46.2665 L -8.13866,-46.3572 L -7.96352,-46.4266 L -7.78107,-46.4734
 L -7.59418,-46.497 L -7.40581,-46.497 L -7.21892,-46.4734 L -7.03647,-46.4266 L -6.86133,-46.3572 L -6.69626,-46.2665
 L -6.54385,-46.1558 L -6.40654,-46.0268 L -6.28647,-45.8817 L -6.18553,-45.7226 L -6.10533,-45.5522 L -6.04712,-45.373
 L -6.01183,-45.188 L -6,-45 L -6.01183,-44.812 L -6.04712,-44.627 L -6.10533,-44.4478 L -6.18553,-44.2774
 L -6.28647,-44.1183 L -6.40654,-43.9732 L -6.54385,-43.8442 L -6.69626,-43.7335 L -6.86133,-43.6428 L -7.03647,-43.5734
 L -7.21892,-43.5266 L -7.40581,-43.503 z
M -37.5942,-43.503 L -37.7811,-43.5266 L -37.9635,-43.5734 L -38.1387,-43.6428 L -38.3037,-43.7335 L -38.4561,-43.8442
 L -38.5934,-43.9732 L -38.7135,-44.1183 L -38.8145,-44.2774 L -38.8947,-44.4478 L -38.9529,-44.627 L -38.9882,-44.812
 L -39,-45 L -38.9882,-45.188 L -38.9529,-45.373 L -38.8947,-45.5522 L -38.8145,-45.7226 L -38.7135,-45.8817
 L -38.5934,-46.0268 L -38.4561,-46.1558 L -38.3037,-46.2665 L -38.1387,-46.3572 L -37.9635,-46.4266 L -37.7811,-46.4734
 L -37.5942,-46.497 L -37.4058,-46.497 L -37.2189,-46.4734 L -37.0365,-46.4266 L -36.8613,-46.3572 L -36.6963,-46.2665
 L -36.5439,-46.1558 L -36.4065,-46.0268 L -36.2865,-45.8817 L -36.1855,-45.7226 L -36.1053,-45.5522 L -36.0471,-45.373
 L -36.0118,-45.188 L -36,-45 L -36.0118,-44.812 L -36.0471,-44.627 L -36.1053,-44.4478 L -36.1855,-44.2774
 L -36.2865,-44.1183 L -36.4065,-43.9732 L -36.5439,-43.8442 L -36.6963,-43.7335 L -36.8613,-43.6428 L -37.0365,-43.5734
 L -37.2189,-43.5266 L -37.4058,-43.503 z
M 67.4058,-43.503 L 67.2189,-43.5266 L 67.0365,-43.5734 L 66.8613,-43.6428 L 66.6963,-43.7335 L 66.5439,-43.8442
 L 66.4065,-43.9732 L 66.2865,-44.1183 L 66.1855,-44.2774 L 66.1053,-44.4478 L 66.0471,-44.627 L 66.0118,-44.812
 L 66,-45 L 66.0118,-45.188 L 66.0471,-45.373 L 66.1053,-45.5522 L 66.1855,-45.7226 L 66.2865,-45.8817
 L 66.4065,-46.0268 L 66.5439,-46.1558 L 66.6963,-46.2665 L 66.8613,-46.3572 L 67.0365,-46.4266 L 67.2189,-46.4734
 L 67.4058,-46.497 L 67.5942,-46.497 L 67.7811,-46.4734 L 67.9635,-46.4266 L 68.1387,-46.3572 L 68.3037,-46.2665
 L 68.4561,-46.1558 L 68.5934,-46.0268 L 68.7135,-45.8817 L 68.8145,-45.7226 L 68.8947,-45.5522 L 68.9529,-45.373
 L 68.9882,-45.188 L 69,-45 L 68.9882,-44.812 L 68.9529,-44.627 L 68.8947,-44.4478 L 68.8145,-44.2774
 L 68.7135,-44.1183 L 68.5934,-43.9732 L 68.4561,-43.8442 L 68.3037,-43.7335 L 68.1387,-43.6428 L 67.9635,-43.5734
 L 67.7811,-43.5266 L 67.5942,-43.503 z
M 142.406,-43.503 L 142.219,-43.5266 L 142.036,-43.5734 L 141.861,-43.6428 L 141.696,-43.7335 L 141.544,-43.8442
 L 141.407,-43.9732 L 141.286,-44.1183 L 141.186,-44.2774 L 141.105,-44.4478 L 141.047,-44.627 L 141.012,-44.812
 L 141,-45 L 141.012,-45.188 L 141.047,-45.373 L 141.105,-45.5522 L 141.186,-45.7226 L 141.286,-45.8817
 L 141.407,-46.0268 L 141.544,-46.1558 L 141.696,-46.2665 L 141.861,-46.3572 L 142.036,-46.4266 L 142.219,-46.4734
 L 142.406,-46.497 L 142.594,-46.497 L 142.781,-46.4734 L 142.964,-46.4266 L 143.139,-46.3572 L 143.304,-46.2665
 L 143.456,-46.1558 L 143.593,-46.0268 L 143.714,-45.8817 L 143.814,-45.7226 L 143.895,-45.5522 L 143.953,-45.373
 L 143.988,-45.188 L 144,-45 L 143.988,-44.812 L 143.953,-44.627 L 143.895,-44.4478 L 143.814,-44.2774
 L 143.714,-44.1183 L 143.593,-43.9732 L 143.456,-43.8442 L 143.304,-43.7335 L 143.139,-43.6428 L 142.964,-43.5734
 L 142.781,-43.5266 L 142.594,-43.503 z
M 82.4058,-43.503 L 82.2189,-43.5266 L 82.0365,-43.5734 L 81.8613,-43.6428 L 81.6963,-43.7335 L 81.5439,-43.8442
 L 81.4065,-43.9732 L 81.2865,-44.1183 L 81.1855,-44.2774 L 81.1053,-44.4478 L 81.0471,-44.627 L 81.0118,-44.812
 L 81,-45 L 81.0118,-45.188 L 81.0471,-45.373 L 81.1053,-45.5522 L 81.1855,-45.7226 L 81.2865,-45.8817
 L 81.4065,-46.0268 L 81.5439,-46.1558 L 81.6963,-46.2665 L 81.8613,-46.3572 L 82.0365,-46.4266 L 82.2189,-46.4734
 L 82.4058,-46.497 L 82.5942,-46.497 L 82.7811,-46.4734 L 82.9635,-46.4266 L 83.1387,-46.3572 L 83.3037,-46.2665
 L 83.4561,-46.1558 L 83.5934,-46.0268 L 83.7135,-45.8817 L 83.8145,-45.7226 L 83.8947,-45.5522 L 83.9529,-45.373
 L 83.9882,-45.188 L 84,-45 L 83.9882,-44.812 L 83.9529,-44.627 L 83.8947,-44.4478 L 83.8145,-44.2774
 L 83.7135,-44.1183 L 83.5934,-43.9732 L 83.4561,-43.8442 L 83.3037,-43.7335 L 83.1387,-43.6428 L 82.9635,-43.5734
 L 82.7811,-43.5266 L 82.5942,-43.503 z
M 127.406,-43.503 L 127.219,-43.5266 L 127.036,-43.5734 L 126.861,-43.6428 L 126.696,-43.7335 L 126.544,-43.8442
 L 126.407,-43.9732 L 126.286,-44.1183 L 126.186,-44.2774 L 126.105,-44.4478 L 126.047,-44.627 L 126.012,-44.812
 L 126,-45 L 126.012,-45.188 L 126.047,-45.373 L 126.105,-45.5522 L 126.186,-45.7226 L 126.286,-45.8817
 L 126.407,-46.0268 L 126.544,-46.1558 L 126.696,-46.2665 L 126.861,-46.3572 L 127.036,-46.4266 L 127.219,-46.4734
 L 127.406,-46.497 L 127.594,-46.497 L 127.781,-46.4734 L 127.964,-46.4266 L 128.139,-46.3572 L 128.304,-46.2665
 L 128.456,-46.1558 L 128.593,-46.0268 L 128.714,-45.8817 L 128.814,-45.7226 L 128.895,-45.5522 L 128.953,-45.373
 L 128.988,-45.188 L 129,-45 L 128.988,-44.812 L 128.953,-44.627 L 128.895,-44.4478 L 128.814,-44.2774
 L 128.714,-44.1183 L 128.593,-43.9732 L 128.456,-43.8442 L 128.304,-43.7335 L 128.139,-43.6428 L 127.964,-43.5734
 L 127.781,-43.5266 L 127.594,-43.503 z
M -142.594,-43.503 L -142.781,-43.5266 L -142.964,-43.5734 L -143.139,-43.6428 L -143.304,-43.7335 L -143.456,-43.8442
 L -143.593,-43.9732 L -143.714,-44.1183 L -143.814,-44.2774 L -143.895,-44.4478 L -143.953,-44.627 L -143.988,-44.812
 L -144,-45 L -143.988,-45.188 L -143.953,-45.373 L -143.895,-45.5522 L -143.814,-45.7226 L -143.714,-45.8817
 L -143.593,-46.0268 L -143.456,-46.1558 L -143.304,-46.2665 L -143.139,-46.3572 L -142.964,-46.4266 L -142.781,-46.4734
 L -142.594,-46.497 L -142.406,-46.497 L -142.219,-46.4734 L -142.036,-46.4266 L -141.861,-46.3572 L -141.696,-46.2665
 L -141.544,-46.1558 L -141.407,-46.0268 L -141.286,-45.8817 L -141.186,-45.7226 L -141.105,-45.5522 L -141.047,-45.373
 L -141.012,-45.188 L -141,-45 L -141.012,-44.812 L -141.047,-44.627 L -141.105,-44.4478 L -141.186,-44.2774
 L -141.286,-44.1183 L -141.407,-43.9732 L -141.544,-43.8442 L -141.696,-43.7335 L -141.861,-43.6428 L -142.036,-43.5734
 L -142.219,-43.5266 L -142.406,-43.503 z
M -67.5942,-43.503 L -67.7811,-43.5266 L -67.9635,-43.5734 L -68.1387,-43.6428 L -68.3037,-43.7335 L -68.4561,-43.8442
 L -68.5934,-43.9732 L -68.7135,-44.1183 L -68.8145,-44.2774 L -68.8947,-44.4478 L -68.9529,-44.627 L -68.9882,-44.812
 L -69,-45 L -68.9882,-45.188 L -68.9529,-45.373 L -68.8947,-45.5522 L -68.8145,-45.7226 L -68.7135,-45.8817
 L -68.5934,-46.0268 L -68.4561,-46.1558 L -68.3037,-46.2665 L -68.1387,-46.3572 L -67.9635,-46.4266 L -67.7811,-46.4734
 L -67.5942,-46.497 L -67.4058,-46.497 L -67.2189,-46.4734 L -67.0365,-46.4266 L -66.8613,-46.3572 L -66.6963,-46.2665
 L -66.5439,-46.1558 L -66.4065,-46.0268 L -66.2865,-45.8817 L -66.1855,-45.7226 L -66.1053,-45.5522 L -66.0471,-45.373
 L -66.0118,-45.188 L -66,-45 L -66.0118,-44.812 L -66.0471,-44.627 L -66.1053,-44.4478 L -66.1855,-44.2774
 L -66.2865,-44.1183 L -66.4065,-43.9732 L -66.5439,-43.8442 L -66.6963,-43.7335 L -66.8613,-43.6428 L -67.0365,-43.5734
 L -67.2189,-43.5266 L -67.4058,-43.503 z
M 97.4058,-43.503 L 97.2189,-43.5266 L 97.0365,-43.5734 L 96.8613,-43.6428 L 96.6963,-43.7335 L 96.5439,-43.8442
 L 96.4065,-43.9732 L 96.2865,-44.1183 L 96.1855,-44.2774 L 96.1053,-44.4478 L 96.0471,-44.627 L 96.0118,-44.812
 L 96,-45 L 96.0118,-45.188 L 96.0471,-45.373 L 96.1053,-45.5522 L 96.1855,-45.7226 L 96.2865,-45.8817
 L 96.4065,-46.0268 L 96.5439,-46.1558 L 96.6963,-46.2665 L 96.8613,-46.3572 L 97.0365,-46.4266 L 97.2189,-46.4734
 L 97.4058,-46.497 L 97.5942,-46.497 L 97.7811,-46.4734 L 97.9635,-46.4266 L 98.1387,-46.3572 L 98.3037,-46.2665
 L 98.4561,-46.1558 L 98.5934,-46.0268 L 98.7135,-45.8817 L 98.8145,-45.7226 L 98.8947,-45.5522 L 98.9529,-45.373
 L 98.9882,-45.188 L 99,-45 L 98.9882,-44.812 L 98.9529,-44.627 L 98.8947,-44.4478 L 98.8145,-44.2774
 L 98.7135,-44.1183 L 98.5934,-43.9732 L 98.4561,-43.8442 L 98.3037,-43.7335 L 98.1387,-43.6428 L 97.9635,-43.5734
 L 97.7811,-43.5266 L 97.5942,-43.503 z
M -97.5942,-43.503 L -97.7811,-43.5266 L -97.9635,-43.5734 L -98.1387,-43.6428 L -98.3037,-43.7335 L -98.4561,-43.8442
 L -98.5934,-43.9732 L -98.7135,-44.1183 L -98.8145,-44.2774 L -98.8947,-44.4478 L -98.9529,-44.627 L -98.9882,-44.812
 L -99,-45 L -98.9882,-45.188 L -98.9529,-45.373 L -98.8947,-45.5522 L -98.8145,-45.7226 L -98.7135,-45.8817
 L -98.5934,-46.0268 L -98.4561,-46.1558 L -98.3037,-46.2665 L -98.1387,-46.3572 L -97.9635,-46.4266 L -97.7811,-46.4734
 L -97.5942,-46.497 L -97.4058,-46.497 L -97.2189,-46.4734 L -97.0365,-46.4266 L -96.8613,-46.3572 L -96.6963,-46.2665
 L -96.5439,-46.1558 L -96.4065,-46.0268 L -96.2865,-45.8817 L -96.1855,-45.7226 L -96.1053,-45.5522 L -96.0471,-45.373
 L -96.0118,-45.188 L -96,-45 L -96.0118,-44.812 L -96.0471,-44.627 L -96.1053,-44.4478 L -96.1855,-44.2774
 L -96.2865,-44.1183 L -96.4065,-43.9732 L -96.5439,-43.8442 L -96.6963,-43.7335 L -96.8613,-43.6428 L -97.0365,-43.5734
 L -97.2189,-43.5266 L -97.4058,-43.503 z
M 22.4058,-43.503 L 22.2189,-43.5266 L 22.0365,-43.5734 L 21.8613,-43.6428 L 21.6963,-43.7335 L 21.5439,-43.8442
 L 21.4065,-43.9732 L 21.2865,-44.1183 L 21.1855,-44.2774 L 21.1053,-44.4478 L 21.0471,-44.627 L 21.0118,-44.812
 L 21,-45 L 21.0118,-45.188 L 21.0471,-45.373 L 21.1053,-45.5522 L 21.1855,-45.7226 L 21.2865,-45.8817
 L 21.4065,-46.0268 L 21.5439,-46.1558 L 21.6963,-46.2665 L 21.8613,-46.3572 L 22.0365,-46.4266 L 22.2189,-46.4734
 L 22.4058,-46.497 L 22.5942,-46.497 L 22.7811,-46.4734 L 22.9635,-46.4266 L 23.1387,-46.3572 L 23.3037,-46.2665
 L 23.4561,-46.1558 L 23.5934,-46.0268 L 23.7135,-45.8817 L 23.8145,-45.7226 L 23.8947,-45.5522 L 23.9529,-45.373
 L 23.9882,-45.188 L 24,-45 L 23.9882,-44.812 L 23.9529,-44.627 L 23.8947,-44.4478 L 23.8145,-44.2774
 L 23.7135,-44.1183 L 23.5934,-43.9732 L 23.4561,-43.8442 L 23.3037,-43.7335 L 23.1387,-43.6428 L 22.9635,-43.5734
 L 22.7811,-43.5266 L 22.5942,-43.503 z
M -127.594,-43.503 L -127.781,-43.5266 L -127.964,-43.5734 L -128.139,-43.6428 L -128.304,-43.7335 L -128.456,-43.8442
 L -128.593,-43.9732 L -128.714,-44.1183 L -128.814,-44.2774 L -128.895,-44.4478 L -128.953,-44.627 L -128.988,-44.812
 L -129,-45 L -128.988,-45.188 L -128.953,-45.373 L -128.895,-45.5522 L -128.814,-45.7226 L -128.714,-45.8817
 L -128.593,-46.0268 L -128.456,-46.1558 L -128.304,-46.2665 L -128.139,-46.3572 L -127.964,-46.4266 L -127.781,-46.4734
 L -127.594,-46.497 L -127.406,-46.497 L -127.219,-46.4734 L -127.036,-46.4266 L -126.861,-46.3572 L -126.696,-46.2665
 L -126.544,-46.1558 L -126.407,-46.0268 L -126.286,-45.8817 L -126.186,-45.7226 L -126.105,-45.5522 L -126.047,-45.373
 L -126.012,-45.188 L -126,-45 L -126.012,-44.812 L -126.047,-44.627 L -126.105,-44.4478 L -126.186,-44.2774
 L -126.286,-44.1183 L -126.407,-43.9732 L -126.544,-43.8442 L -126.696,-43.7335 L -126.861,-43.6428 L -127.036,-43.5734
 L -127.219,-43.5266 L -127.406,-43.503 z
M -117.76,35.929 L -122.246,35.3623 L -126.625,34.238 L -130.828,32.5738 L -134.79,30.3958 L -138.447,27.7385
 L -141.743,24.6437 L -144.625,21.1603 L -147.047,17.3431 L -148.972,13.2525 L -150.369,8.95284 L -151.216,4.51199
 L -151.5,-0 L -151.216,-4.51199 L -150.369,-8.95284 L -148.972,-13.2525 L -147.047,-17.3431 L -144.625,-21.1603
 L -141.743,-24.6437 L -138.447,-27.7385 L -134.79,-30.3958 L -130.828,-32.5738 L -126.625,-34.238 L -122.246,-35.3623
 L -117.76,-35.929 L -113.24,-35.929 L -108.754,-35.3623 L -104.375,-34.238 L -100.172,-32.5738 L -96.2102,-30.3958
 L -92.5527,-27.7385 L -89.2571,-24.6437 L -86.3754,-21.1603 L -83.953,-17.3431 L -82.028,-13.2525 L -80.631,-8.95284
 L -79.7839,-4.51199 L -79.5,-0 L -79.7839,4.51199 L -80.631,8.95284 L -82.028,13.2525 L -83.953,17.3431
 L -86.3754,21.1603 L -89.2571,24.6437 L -92.5527,27.7385 L -96.2102,30.3958 L -100.172,32.5738 L -104.375,34.238
 L -108.754,35.3623 L -113.24,35.929 z
M 113.24,35.929 L 108.754,35.3623 L 104.375,34.238 L 100.172,32.5738 L 96.2102,30.3958 L 92.5527,27.7385
 L 89.2571,24.6437 L 86.3754,21.1603 L 83.953,17.3431 L 82.028,13.2525 L 80.631,8.95284 L 79.7839,4.51199
 L 79.5,-0 L 79.7839,-4.51199 L 80.631,-8.95284 L 82.028,-13.2525 L 83.953,-17.3431 L 86.3754,-21.1603
 L 89.2571,-24.6437 L 92.5527,-27.7385 L 96.2102,-30.3958 L 100.172,-32.5738 L 104.375,-34.238 L 108.754,-35.3623
 L 113.24,-35.929 L 117.76,-35.929 L 122.246,-35.3623 L 126.625,-34.238 L 130.828,-32.5738 L 134.79,-30.3958
 L 138.447,-27.7385 L 141.743,-24.6437 L 144.625,-21.1603 L 147.047,-17.3431 L 148.972,-13.2525 L 150.369,-8.95284
 L 151.216,-4.51199 L 151.5,-0 L 151.216,4.51199 L 150.369,8.95284 L 148.972,13.2525 L 147.047,17.3431
 L 144.625,21.1603 L 141.743,24.6437 L 138.447,27.7385 L 134.79,30.3958 L 130.828,32.5738 L 126.625,34.238
 L 122.246,35.3623 L 117.76,35.929 z
M 36.2395,35.929 L 31.7543,35.3623 L 27.3754,34.238 L 23.1719,32.5738 L 19.2102,30.3958 L 15.5527,27.7385
 L 12.2571,24.6437 L 9.37538,21.1603 L 6.95296,17.3431 L 5.02805,13.2525 L 3.631,8.95284 L 2.78386,4.51199
 L 2.5,-0 L 2.78386,-4.51199 L 3.631,-8.95284 L 5.02805,-13.2525 L 6.95296,-17.3431 L 9.37538,-21.1603
 L 12.2571,-24.6437 L 15.5527,-27.7385 L 19.2102,-30.3958 L 23.1719,-32.5738 L 27.3754,-34.238 L 31.7543,-35.3623
 L 36.2395,-35.929 L 40.7605,-35.929 L 45.2457,-35.3623 L 49.6246,-34.238 L 53.828,-32.5738 L 57.7898,-30.3958
 L 61.4473,-27.7385 L 64.7429,-24.6437 L 67.6246,-21.1603 L 70.047,-17.3431 L 71.972,-13.2525 L 73.369,-8.95284
 L 74.2161,-4.51199 L 74.5,-0 L 74.2161,4.51199 L 73.369,8.95284 L 71.972,13.2525 L 70.047,17.3431
 L 67.6246,21.1603 L 64.7429,24.6437 L 61.4473,27.7385 L 57.7898,30.3958 L 53.828,32.5738 L 49.6246,34.238
 L 45.2457,35.3623 L 40.7605,35.929 z
M -40.7605,35.929 L -45.2457,35.3623 L -49.6246,34.238 L -53.828,32.5738 L -57.7898,30.3958 L -61.4473,27.7385
 L -64.7429,24.6437 L -67.6246,21.1603 L -70.047,17.3431 L -71.972,13.2525 L -73.369,8.95284 L -74.2161,4.51199
 L -74.5,-0 L -74.2161,-4.51199 L -73.369,-8.95284 L -71.972,-13.2525 L -70.047,-17.3431 L -67.6246,-21.1603
 L -64.7429,-24.6437 L -61.4473,-27.7385 L -57.7898,-30.3958 L -53.828,-32.5738 L -49.6246,-34.238 L -45.2457,-35.3623
 L -40.7605,-35.929 L -36.2395,-35.929 L -31.7543,-35.3623 L -27.3754,-34.238 L -23.1719,-32.5738 L -19.2102,-30.3958
 L -15.5527,-27.7385 L -12.2571,-24.6437 L -9.37538,-21.1603 L -6.95296,-17.3431 L -5.02805,-13.2525 L -3.631,-8.95284
 L -2.78386,-4.51199 L -2.5,-0 L -2.78386,4.51199 L -3.631,8.95284 L -5.02805,13.2525 L -6.95296,17.3431
 L -9.37538,21.1603 L -12.2571,24.6437 L -15.5527,27.7385 L -19.2102,30.3958 L -23.1719,32.5738 L -27.3754,34.238
 L -31.7543,35.3623 L -36.2395,35.929 z
M 29.8116,47.9941 L 29.4379,47.9469 L 29.0729,47.8532 L 28.7227,47.7145 L 28.3925,47.533 L 28.0877,47.3115
 L 27.8131,47.0536 L 27.5729,46.7634 L 27.3711,46.4453 L 27.2107,46.1044 L 27.0942,45.7461 L 27.0237,45.376
 L 27,45 L 27.0237,44.624 L 27.0942,44.2539 L 27.2107,43.8956 L 27.3711,43.5547 L 27.5729,43.2366
 L 27.8131,42.9464 L 28.0877,42.6885 L 28.3925,42.467 L 28.7227,42.2855 L 29.0729,42.1468 L 29.4379,42.0531
 L 29.8116,42.0059 L 30.1884,42.0059 L 30.5621,42.0531 L 30.927,42.1468 L 31.2773,42.2855 L 31.6075,42.467
 L 31.9123,42.6885 L 32.1869,42.9464 L 32.427,43.2366 L 32.6289,43.5547 L 32.7893,43.8956 L 32.9057,44.2539
 L 32.9763,44.624 L 33,45 L 32.9763,45.376 L 32.9057,45.7461 L 32.7893,46.1044 L 32.6289,46.4453
 L 32.427,46.7634 L 32.1869,47.0536 L 31.9123,47.3115 L 31.6075,47.533 L 31.2773,47.7145 L 30.927,47.8532
 L 30.5621,47.9469 L 30.1884,47.9941 z
M -120.188,47.9941 L -120.562,47.9469 L -120.927,47.8532 L -121.277,47.7145 L -121.607,47.533 L -121.912,47.3115
 L -122.187,47.0536 L -122.427,46.7634 L -122.629,46.4453 L -122.789,46.1044 L -122.906,45.7461 L -122.976,45.376
 L -123,45 L -122.976,44.624 L -122.906,44.2539 L -122.789,43.8956 L -122.629,43.5547 L -122.427,43.2366
 L -122.187,42.9464 L -121.912,42.6885 L -121.607,42.467 L -121.277,42.2855 L -120.927,42.1468 L -120.562,42.0531
 L -120.188,42.0059 L -119.812,42.0059 L -119.438,42.0531 L -119.073,42.1468 L -118.723,42.2855 L -118.393,42.467
 L -118.088,42.6885 L -117.813,42.9464 L -117.573,43.2366 L -117.371,43.5547 L -117.211,43.8956 L -117.094,44.2539
 L -117.024,44.624 L -117,45 L -117.024,45.376 L -117.094,45.7461 L -117.211,46.1044 L -117.371,46.4453
 L -117.573,46.7634 L -117.813,47.0536 L -118.088,47.3115 L -118.393,47.533 L -118.723,47.7145 L -119.073,47.8532
 L -119.438,47.9469 L -119.812,47.9941 z
M 74.8116,47.9941 L 74.4379,47.9469 L 74.073,47.8532 L 73.7227,47.7145 L 73.3925,47.533 L 73.0877,47.3115
 L 72.8131,47.0536 L 72.573,46.7634 L 72.3711,46.4453 L 72.2107,46.1044 L 72.0943,45.7461 L 72.0237,45.376
 L 72,45 L 72.0237,44.624 L 72.0943,44.2539 L 72.2107,43.8956 L 72.3711,43.5547 L 72.573,43.2366
 L 72.8131,42.9464 L 73.0877,42.6885 L 73.3925,42.467 L 73.7227,42.2855 L 74.073,42.1468 L 74.4379,42.0531
 L 74.8116,42.0059 L 75.1884,42.0059 L 75.5621,42.0531 L 75.927,42.1468 L 76.2773,42.2855 L 76.6075,42.467
 L 76.9123,42.6885 L 77.1869,42.9464 L 77.427,43.2366 L 77.6289,43.5547 L 77.7893,43.8956 L 77.9057,44.2539
 L 77.9763,44.624 L 78,45 L 77.9763,45.376 L 77.9057,45.7461 L 77.7893,46.1044 L 77.6289,46.4453
 L 77.427,46.7634 L 77.1869,47.0536 L 76.9123,47.3115 L 76.6075,47.533 L 76.2773,47.7145 L 75.927,47.8532
 L 75.5621,47.9469 L 75.1884,47.9941 z
M 44.8116,47.9941 L 44.4379,47.9469 L 44.0729,47.8532 L 43.7227,47.7145 L 43.3925,47.533 L 43.0877,47.3115
 L 42.8131,47.0536 L 42.5729,46.7634 L 42.3711,46.4453 L 42.2107,46.1044 L 42.0942,45.7461 L 42.0237,45.376
 L 42,45 L 42.0237,44.624 L 42.0942,44.2539 L 42.2107,43.8956 L 42.3711,43.5547 L 42.5729,43.2366
 L 42.8131,42.9464 L 43.0877,42.6885 L 43.3925,42.467 L 43.7227,42.2855 L 44.0729,42.1468 L 44.4379,42.0531
 L 44.8116,42.0059 L 45.1884,42.0059 L 45.5621,42.0531 L 45.927,42.1468 L 46.2773,42.2855 L 46.6075,42.467
 L 46.9123,42.6885 L 47.1869,42.9464 L 47.427,43.2366 L 47.6289,43.5547 L 47.7893,43.8956 L 47.9057,44.2539
 L 47.9763,44.624 L 48,45 L 47.9763,45.376 L 47.9057,45.7461 L 47.7893,46.1044 L 47.6289,46.4453
 L 47.427,46.7634 L 47.1869,47.0536 L 46.9123,47.3115 L 46.6075,47.533 L 46.2773,47.7145 L 45.927,47.8532
 L 45.5621,47.9469 L 45.1884,47.9941 z
M 89.8116,47.9941 L 89.4379,47.9469 L 89.073,47.8532 L 88.7227,47.7145 L 88.3925,47.533 L 88.0877,47.3115
 L 87.8131,47.0536 L 87.573,46.7634 L 87.3711,46.4453 L 87.2107,46.1044 L 87.0943,45.7461 L 87.0237,45.376
 L 87,45 L 87.0237,44.624 L 87.0943,44.2539 L 87.2107,43.8956 L 87.3711,43.5547 L 87.573,43.2366
 L 87.8131,42.9464 L 88.0877,42.6885 L 88.3925,42.467 L 88.7227,42.2855 L 89.073,42.1468 L 89.4379,42.0531
 L 89.8116,42.0059 L 90.1884,42.0059 L 90.5621,42.0531 L 90.927,42.1468 L 91.2773,42.2855 L 91.6075,42.467
 L 91.9123,42.6885 L 92.1869,42.9464 L 92.427,43.2366 L 92.6289,43.5547 L 92.7893,43.8956 L 92.9057,44.2539
 L 92.9763,44.624 L 93,45 L 92.9763,45.376 L 92.9057,45.7461 L 92.7893,46.1044 L 92.6289,46.4453
 L 92.427,46.7634 L 92.1869,47.0536 L 91.9123,47.3115 L 91.6075,47.533 L 91.2773,47.7145 L 90.927,47.8532
 L 90.5621,47.9469 L 90.1884,47.9941 z
M -60.1884,47.9941 L -60.5621,47.9469 L -60.927,47.8532 L -61.2773,47.7145 L -61.6075,47.533 L -61.9123,47.3115
 L -62.1869,47.0536 L -62.427,46.7634 L -62.6289,46.4453 L -62.7893,46.1044 L -62.9057,45.7461 L -62.9763,45.376
 L -63,45 L -62.9763,44.624 L -62.9057,44.2539 L -62.7893,43.8956 L -62.6289,43.5547 L -62.427,43.2366
 L -62.1869,42.9464 L -61.9123,42.6885 L -61.6075,42.467 L -61.2773,42.2855 L -60.927,42.1468 L -60.5621,42.0531
 L -60.1884,42.0059 L -59.8116,42.0059 L -59.4379,42.0531 L -59.0729,42.1468 L -58.7227,42.2855 L -58.3925,42.467
 L -58.0877,42.6885 L -57.8131,42.9464 L -57.5729,43.2366 L -57.3711,43.5547 L -57.2107,43.8956 L -57.0942,44.2539
 L -57.0237,44.624 L -57,45 L -57.0237,45.376 L -57.0942,45.7461 L -57.2107,46.1044 L -57.3711,46.4453
 L -57.5729,46.7634 L -57.8131,47.0536 L -58.0877,47.3115 L -58.3925,47.533 L -58.7227,47.7145 L -59.0729,47.8532
 L -59.4379,47.9469 L -59.8116,47.9941 z
M 104.812,47.9941 L 104.438,47.9469 L 104.073,47.8532 L 103.723,47.7145 L 103.393,47.533 L 103.088,47.3115
 L 102.813,47.0536 L 102.573,46.7634 L 102.371,46.4453 L 102.211,46.1044 L 102.094,45.7461 L 102.024,45.376
 L 102,45 L 102.024,44.624 L 102.094,44.2539 L 102.211,43.8956 L 102.371,43.5547 L 102.573,43.2366
 L 102.813,42.9464 L 103.088,42.6885 L 103.393,42.467 L 103.723,42.2855 L 104.073,42.1468 L 104.438,42.0531
 L 104.812,42.0059 L 105.188,42.0059 L 105.562,42.0531 L 105.927,42.1468 L 106.277,42.2855 L 106.607,42.467
 L 106.912,42.6885 L 107.187,42.9464 L 107.427,43.2366 L 107.629,43.5547 L 107.789,43.8956 L 107.906,44.2539
 L 107.976,44.624 L 108,45 L 107.976,45.376 L 107.906,45.7461 L 107.789,46.1044 L 107.629,46.4453
 L 107.427,46.7634 L 107.187,47.0536 L 106.912,47.3115 L 106.607,47.533 L 106.277,47.7145 L 105.927,47.8532
 L 105.562,47.9469 L 105.188,47.9941 z
M -45.1884,47.9941 L -45.5621,47.9469 L -45.927,47.8532 L -46.2773,47.7145 L -46.6075,47.533 L -46.9123,47.3115
 L -47.1869,47.0536 L -47.427,46.7634 L -47.6289,46.4453 L -47.7893,46.1044 L -47.9057,45.7461 L -47.9763,45.376
 L -48,45 L -47.9763,44.624 L -47.9057,44.2539 L -47.7893,43.8956 L -47.6289,43.5547 L -47.427,43.2366
 L -47.1869,42.9464 L -46.9123,42.6885 L -46.6075,42.467 L -46.2773,42.2855 L -45.927,42.1468 L -45.5621,42.0531
 L -45.1884,42.0059 L -44.8116,42.0059 L -44.4379,42.0531 L -44.0729,42.1468 L -43.7227,42.2855 L -43.3925,42.467
 L -43.0877,42.6885 L -42.8131,42.9464 L -42.5729,43.2366 L -42.3711,43.5547 L -42.2107,43.8956 L -42.0942,44.2539
 L -42.0237,44.624 L -42,45 L -42.0237,45.376 L -42.0942,45.7461 L -42.2107,46.1044 L -42.3711,46.4453
 L -42.5729,46.7634 L -42.8131,47.0536 L -43.0877,47.3115 L -43.3925,47.533 L -43.7227,47.7145 L -44.0729,47.8532
 L -44.4379,47.9469 L -44.8116,47.9941 z
M -30.1884,47.9941 L -30.5621,47.9469 L -30.927,47.8532 L -31.2773,47.7145 L -31.6075,47.533 L -31.9123,47.3115
 L -32.1869,47.0536 L -32.427,46.7634 L -32.6289,46.4453 L -32.7893,46.1044 L -32.9057,45.7461 L -32.9763,45.376
 L -33,45 L -32.9763,44.624 L -32.9057,44.2539 L -32.7893,43.8956 L -32.6289,43.5547 L -32.427,43.2366
 L -32.1869,42.9464 L -31.9123,42.6885 L -31.6075,42.467 L -31.2773,42.2855 L -30.927,42.1468 L -30.5621,42.0531
 L -30.1884,42.0059 L -29.8116,42.0059 L -29.4379,42.0531 L -29.0729,42.1468 L -28.7227,42.2855 L -28.3925,42.467
 L -28.0877,42.6885 L -27.8131,42.9464 L -27.5729,43.2366 L -27.3711,43.5547 L -27.2107,43.8956 L -27.0942,44.2539
 L -27.0237,44.624 L -27,45 L -27.0237,45.376 L -27.0942,45.7461 L -27.2107,46.1044 L -27.3711,46.4453
 L -27.5729,46.7634 L -27.8131,47.0536 L -28.0877,47.3115 L -28.3925,47.533 L -28.7227,47.7145 L -29.0729,47.8532
 L -29.4379,47.9469 L -29.8116,47.9941 z
M -105.188,47.9941 L -105.562,47.9469 L -105.927,47.8532 L -106.277,47.7145 L -106.607,47.533 L -106.912,47.3115
 L -107.187,47.0536 L -107.427,46.7634 L -107.629,46.4453 L -107.789,46.1044 L -107.906,45.7461 L -107.976,45.376
 L -108,45 L -107.976,44.624 L -107.906,44.2539 L -107.789,43.8956 L -107.629,43.5547 L -107.427,43.2366
 L -107.187,42.9464 L -106.912,42.6885 L -106.607,42.467 L -106.277,42.2855 L -105.927,42.1468 L -105.562,42.0531
 L -105.188,42.0059 L -104.812,42.0059 L -104.438,42.0531 L -104.073,42.1468 L -103.723,42.2855 L -103.393,42.467
 L -103.088,42.6885 L -102.813,42.9464 L -102.573,43.2366 L -102.371,43.5547 L -102.211,43.8956 L -102.094,44.2539
 L -102.024,44.624 L -102,45 L -102.024,45.376 L -102.094,45.7461 L -102.211,46.1044 L -102.371,46.4453
 L -102.573,46.7634 L -102.813,47.0536 L -103.088,47.3115 L -103.393,47.533 L -103.723,47.7145 L -104.073,47.8532
 L -104.438,47.9469 L -104.812,47.9941 z
M 59.8116,47.9941 L 59.4379,47.9469 L 59.0729,47.8532 L 58.7227,47.7145 L 58.3925,47.533 L 58.0877,47.3115
 L 57.8131,47.0536 L 57.5729,46.7634 L 57.3711,46.4453 L 57.2107,46.1044 L 57.0942,45.7461 L 57.0237,45.376
 L 57,45 L 57.0237,44.624 L 57.0942,44.2539 L 57.2107,43.8956 L 57.3711,43.5547 L 57.5729,43.2366
 L 57.8131,42.9464 L 58.0877,42.6885 L 58.3925,42.467 L 58.7227,42.2855 L 59.0729,42.1468 L 59.4379,42.0531
 L 59.8116,42.0059 L 60.1884,42.0059 L 60.5621,42.0531 L 60.927,42.1468 L 61.2773,42.2855 L 61.6075,42.467
 L 61.9123,42.6885 L 62.1869,42.9464 L 62.427,43.2366 L 62.6289,43.5547 L 62.7893,43.8956 L 62.9057,44.2539
 L 62.9763,44.624 L 63,45 L 62.9763,45.376 L 62.9057,45.7461 L 62.7893,46.1044 L 62.6289,46.4453
 L 62.427,46.7634 L 62.1869,47.0536 L 61.9123,47.3115 L 61.6075,47.533 L 61.2773,47.7145 L 60.927,47.8532
 L 60.5621,47.9469 L 60.1884,47.9941 z
M -15.1884,47.9941 L -15.5621,47.9469 L -15.927,47.8532 L -16.2773,47.7145 L -16.6075,47.533 L -16.9123,47.3115
 L -17.1869,47.0536 L -17.427,46.7634 L -17.6289,46.4453 L -17.7893,46.1044 L -17.9057,45.7461 L -17.9763,45.376
 L -18,45 L -17.9763,44.624 L -17.9057,44.2539 L -17.7893,43.8956 L -17.6289,43.5547 L -17.427,43.2366
 L -17.1869,42.9464 L -16.9123,42.6885 L -16.6075,42.467 L -16.2773,42.2855 L -15.927,42.1468 L -15.5621,42.0531
 L -15.1884,42.0059 L -14.8116,42.0059 L -14.4379,42.0531 L -14.0729,42.1468 L -13.7227,42.2855 L -13.3925,42.467
 L -13.0877,42.6885 L -12.8131,42.9464 L -12.5729,43.2366 L -12.3711,43.5547 L -12.2107,43.8956 L -12.0942,44.2539
 L -12.0237,44.624 L -12,45 L -12.0237,45.376 L -12.0942,45.7461 L -12.2107,46.1044 L -12.3711,46.4453
 L -12.5729,46.7634 L -12.8131,47.0536 L -13.0877,47.3115 L -13.3925,47.533 L -13.7227,47.7145 L -14.0729,47.8532
 L -14.4379,47.9469 L -14.8116,47.9941 z
M -75.1884,47.9941 L -75.5621,47.9469 L -75.927,47.8532 L -76.2773,47.7145 L -76.6075,47.533 L -76.9123,47.3115
 L -77.1869,47.0536 L -77.427,46.7634 L -77.6289,46.4453 L -77.7893,46.1044 L -77.9057,45.7461 L -77.9763,45.376
 L -78,45 L -77.9763,44.624 L -77.9057,44.2539 L -77.7893,43.8956 L -77.6289,43.5547 L -77.427,43.2366
 L -77.1869,42.9464 L -76.9123,42.6885 L -76.6075,42.467 L -76.2773,42.2855 L -75.927,42.1468 L -75.5621,42.0531
 L -75.1884,42.0059 L -74.8116,42.0059 L -74.4379,42.0531 L -74.073,42.1468 L -73.7227,42.2855 L -73.3925,42.467
 L -73.0877,42.6885 L -72.8131,42.9464 L -72.573,43.2366 L -72.3711,43.5547 L -72.2107,43.8956 L -72.0943,44.2539
 L -72.0237,44.624 L -72,45 L -72.0237,45.376 L -72.0943,45.7461 L -72.2107,46.1044 L -72.3711,46.4453
 L -72.573,46.7634 L -72.8131,47.0536 L -73.0877,47.3115 L -73.3925,47.533 L -73.7227,47.7145 L -74.073,47.8532
 L -74.4379,47.9469 L -74.8116,47.9941 z
M -150.188,47.9941 L -150.562,47.9469 L -150.927,47.8532 L -151.277,47.7145 L -151.607,47.533 L -151.912,47.3115
 L -152.187,47.0536 L -152.427,46.7634 L -152.629,46.4453 L -152.789,46.1044 L -152.906,45.7461 L -152.976,45.376
 L -153,45 L -152.976,44.624 L -152.906,44.2539 L -152.789,43.8956 L -152.629,43.5547 L -152.427,43.2366
 L -152.187,42.9464 L -151.912,42.6885 L -151.607,42.467 L -151.277,42.2855 L -150.927,42.1468 L -150.562,42.0531
 L -150.188,42.0059 L -149.812,42.0059 L -149.438,42.0531 L -149.073,42.1468 L -148.723,42.2855 L -148.393,42.467
 L -148.088,42.6885 L -147.813,42.9464 L -147.573,43.2366 L -147.371,43.5547 L -147.211,43.8956 L -147.094,44.2539
 L -147.024,44.624 L -147,45 L -147.024,45.376 L -147.094,45.7461 L -147.211,46.1044 L -147.371,46.4453
 L -147.573,46.7634 L -147.813,47.0536 L -148.088,47.3115 L -148.393,47.533 L -148.723,47.7145 L -149.073,47.8532
 L -149.438,47.9469 L -149.812,47.9941 z
M 119.812,47.9941 L 119.438,47.9469 L 119.073,47.8532 L 118.723,47.7145 L 118.393,47.533 L 118.088,47.3115
 L 117.813,47.0536 L 117.573,46.7634 L 117.371,46.4453 L 117.211,46.1044 L 117.094,45.7461 L 117.024,45.376
 L 117,45 L 117.024,44.624 L 117.094,44.2539 L 117.211,43.8956 L 117.371,43.5547 L 117.573,43.2366
 L 117.813,42.9464 L 118.088,42.6885 L 118.393,42.467 L 118.723,42.2855 L 119.073,42.1468 L 119.438,42.0531
 L 119.812,42.0059 L 120.188,42.0059 L 120.562,42.0531 L 120.927,42.1468 L 121.277,42.2855 L 121.607,42.467
 L 121.912,42.6885 L 122.187,42.9464 L 122.427,43.2366 L 122.629,43.5547 L 122.789,43.8956 L 122.906,44.2539
 L 122.976,44.624 L 123,45 L 122.976,45.376 L 122.906,45.7461 L 122.789,46.1044 L 122.629,46.4453
 L 122.427,46.7634 L 122.187,47.0536 L 121.912,47.3115 L 121.607,47.533 L 121.277,47.7145 L 120.927,47.8532
 L 120.562,47.9469 L 120.188,47.9941 z
M -135.188,47.9941 L -135.562,47.9469 L -135.927,47.8532 L -136.277,47.7145 L -136.607,47.533 L -136.912,47.3115
 L -137.187,47.0536 L -137.427,46.7634 L -137.629,46.4453 L -137.789,46.1044 L -137.906,45.7461 L -137.976,45.376
 L -138,45 L -137.976,44.624 L -137.906,44.2539 L -137.789,43.8956 L -137.629,43.5547 L -137.427,43.2366
 L -137.187,42.9464 L -136.912,42.6885 L -136.607,42.467 L -136.277,42.2855 L -135.927,42.1468 L -135.562,42.0531
 L -135.188,42.0059 L -134.812,42.0059 L -134.438,42.0531 L -134.073,42.1468 L -133.723,42.2855 L -133.393,42.467
 L -133.088,42.6885 L -132.813,42.9464 L -132.573,43.2366 L -132.371,43.5547 L -132.211,43.8956 L -132.094,44.2539
 L -132.024,44.624 L -132,45 L -132.024,45.376 L -132.094,45.7461 L -132.211,46.1044 L -132.371,46.4453
 L -132.573,46.7634 L -132.813,47.0536 L -133.088,47.3115 L -133.393,47.533 L -133.723,47.7145 L -134.073,47.8532
 L -134.438,47.9469 L -134.812,47.9941 z
M 14.8116,47.9941 L 14.4379,47.9469 L 14.0729,47.8532 L 13.7227,47.7145 L 13.3925,47.533 L 13.0877,47.3115
 L 12.8131,47.0536 L 12.5729,46.7634 L 12.3711,46.4453 L 12.2107,46.1044 L 12.0942,45.7461 L 12.0237,45.376
 L 12,45 L 12.0237,44.624 L 12.0942,44.2539 L 12.2107,43.8956 L 12.3711,43.5547 L 12.5729,43.2366
 L 12.8131,42.9464 L 13.0877,42.6885 L 13.3925,42.467 L 13.7227,42.2855 L 14.0729,42.1468 L 14.4379,42.0531
 L 14.8116,42.0059 L 15.1884,42.0059 L 15.5621,42.0531 L 15.927,42.1468 L 16.2773,42.2855 L 16.6075,42.467
 L 16.9123,42.6885 L 17.1869,42.9464 L 17.427,43.2366 L 17.6289,43.5547 L 17.7893,43.8956 L 17.9057,44.2539
 L 17.9763,44.624 L 18,45 L 17.9763,45.376 L 17.9057,45.7461 L 17.7893,46.1044 L 17.6289,46.4453
 L 17.427,46.7634 L 17.1869,47.0536 L 16.9123,47.3115 L 16.6075,47.533 L 16.2773,47.7145 L 15.927,47.8532
 L 15.5621,47.9469 L 15.1884,47.9941 z
M 149.812,47.9941 L 149.438,47.9469 L 149.073,47.8532 L 148.723,47.7145 L 148.393,47.533 L 148.088,47.3115
 L 147.813,47.0536 L 147.573,46.7634 L 147.371,46.4453 L 147.211,46.1044 L 147.094,45.7461 L 147.024,45.376
 L 147,45 L 147.024,44.624 L 147.094,44.2539 L 147.211,43.8956 L 147.371,43.5547 L 147.573,43.2366
 L 147.813,42.9464 L 148.088,42.6885 L 148.393,42.467 L 148.723,42.2855 L 149.073,42.1468 L 149.438,42.0531
 L 149.812,42.0059 L 150.188,42.0059 L 150.562,42.0531 L 150.927,42.1468 L 151.277,42.2855 L 151.607,42.467
 L 151.912,42.6885 L 152.187,42.9464 L 152.427,43.2366 L 152.629,43.5547 L 152.789,43.8956 L 152.906,44.2539
 L 152.976,44.624 L 153,45 L 152.976,45.376 L 152.906,45.7461 L 152.789,46.1044 L 152.629,46.4453
 L 152.427,46.7634 L 152.187,47.0536 L 151.912,47.3115 L 151.607,47.533 L 151.277,47.7145 L 150.927,47.8532
 L 150.562,47.9469 L 150.188,47.9941 z
M -0.18837,47.9941 L -0.562134,47.9469 L -0.927048,47.8532 L -1.27733,47.7145 L -1.60747,47.533 L -1.91226,47.3115
 L -2.1869,47.0536 L -2.42705,46.7634 L -2.62891,46.4453 L -2.78932,46.1044 L -2.90575,45.7461 L -2.97633,45.376
 L -3,45 L -2.97633,44.624 L -2.90575,44.2539 L -2.78932,43.8956 L -2.62891,43.5547 L -2.42705,43.2366
 L -2.1869,42.9464 L -1.91226,42.6885 L -1.60747,42.467 L -1.27733,42.2855 L -0.927048,42.1468 L -0.562134,42.0531
 L -0.18837,42.0059 L 0.18837,42.0059 L 0.562134,42.0531 L 0.927048,42.1468 L 1.27733,42.2855 L 1.60747,42.467
 L 1.91226,42.6885 L 2.1869,42.9464 L 2.42705,43.2366 L 2.62891,43.5547 L 2.78932,43.8956 L 2.90575,44.2539
 L 2.97633,44.624 L 3,45 L 2.97633,45.376 L 2.90575,45.7461 L 2.78932,46.1044 L 2.62891,46.4453
 L 2.42705,46.7634 L 2.1869,47.0536 L 1.91226,47.3115 L 1.60747,47.533 L 1.27733,47.7145 L 0.927048,47.8532
 L 0.562134,47.9469 L 0.18837,47.9941 z
M -90.1884,47.9941 L -90.5621,47.9469 L -90.927,47.8532 L -91.2773,47.7145 L -91.6075,47.533 L -91.9123,47.3115
 L -92.1869,47.0536 L -92.427,46.7634 L -92.6289,46.4453 L -92.7893,46.1044 L -92.9057,45.7461 L -92.9763,45.376
 L -93,45 L -92.9763,44.624 L -92.9057,44.2539 L -92.7893,43.8956 L -92.6289,43.5547 L -92.427,43.2366
 L -92.1869,42.9464 L -91.9123,42.6885 L -91.6075,42.467 L -91.2773,42.2855 L -90.927,42.1468 L -90.5621,42.0531
 L -90.1884,42.0059 L -89.8116,42.0059 L -89.4379,42.0531 L -89.073,42.1468 L -88.7227,42.2855 L -88.3925,42.467
 L -88.0877,42.6885 L -87.8131,42.9464 L -87.573,43.2366 L -87.3711,43.5547 L -87.2107,43.8956 L -87.0943,44.2539
 L -87.0237,44.624 L -87,45 L -87.0237,45.376 L -87.0943,45.7461 L -87.2107,46.1044 L -87.3711,46.4453
 L -87.573,46.7634 L -87.8131,47.0536 L -88.0877,47.3115 L -88.3925,47.533 L -88.7227,47.7145 L -89.073,47.8532
 L -89.4379,47.9469 L -89.8116,47.9941 z
M 134.812,47.9941 L 134.438,47.9469 L 134.073,47.8532 L 133.723,47.7145 L 133.393,47.533 L 133.088,47.3115
 L 132.813,47.0536 L 132.573,46.7634 L 132.371,46.4453 L 132.211,46.1044 L 132.094,45.7461 L 132.024,45.376
 L 132,45 L 132.024,44.624 L 132.094,44.2539 L 132.211,43.8956 L 132.371,43.5547 L 132.573,43.2366
 L 132.813,42.9464 L 133.088,42.6885 L 133.393,42.467 L 133.723,42.2855 L 134.073,42.1468 L 134.438,42.0531
 L 134.812,42.0059 L 135.188,42.0059 L 135.562,42.0531 L 135.927,42.1468 L 136.277,42.2855 L 136.607,42.467
 L 136.912,42.6885 L 137.187,42.9464 L 137.427,43.2366 L 137.629,43.5547 L 137.789,43.8956 L 137.906,44.2539
 L 137.976,44.624 L 138,45 L 137.976,45.376 L 137.906,45.7461 L 137.789,46.1044 L 137.629,46.4453
 L 137.427,46.7634 L 137.187,47.0536 L 136.912,47.3115 L 136.607,47.533 L 136.277,47.7145 L 135.927,47.8532
 L 135.562,47.9469 L 135.188,47.9941 z
M 7.40581,46.497 L 7.21892,46.4734 L 7.03647,46.4266 L 6.86133,46.3572 L 6.69626,46.2665 L 6.54385,46.1558
 L 6.40654,46.0268 L 6.28647,45.8817 L 6.18553,45.7226 L 6.10533,45.5522 L 6.04712,45.373 L 6.01183,45.188
 L 6,45 L 6.01183,44.812 L 6.04712,44.627 L 6.10533,44.4478 L 6.18553,44.2774 L 6.28647,44.1183
 L 6.40654,43.9732 L 6.54385,43.8442 L 6.69626,43.7335 L 6.86133,43.6428 L 7.03647,43.5734 L 7.21892,43.5266
 L 7.40581,43.503 L 7.59418,43.503 L 7.78107,43.5266 L 7.96352,43.5734 L 8.13866,43.6428 L 8.30373,43.7335
 L 8.45613,43.8442 L 8.59344,43.9732 L 8.71352,44.1183 L 8.81445,44.2774 L 8.89465,44.4478 L 8.95287,44.627
 L 8.98816,44.812 L 9,45 L 8.98816,45.188 L 8.95287,45.373 L 8.89465,45.5522 L 8.81445,45.7226
 L 8.71352,45.8817 L 8.59344,46.0268 L 8.45613,46.1558 L 8.30373,46.2665 L 8.13866,46.3572 L 7.96352,46.4266
 L 7.78107,46.4734 L 7.59418,46.497 z
M -127.594,46.497 L -127.781,46.4734 L -127.964,46.4266 L -128.139,46.3572 L -128.304,46.2665 L -128.456,46.1558
 L -128.593,46.0268 L -128.714,45.8817 L -128.814,45.7226 L -128.895,45.5522 L -128.953,45.373 L -128.988,45.188
 L -129,45 L -128.988,44.812 L -128.953,44.627 L -128.895,44.4478 L -128.814,44.2774 L -128.714,44.1183
 L -128.593,43.9732 L -128.456,43.8442 L -128.304,43.7335 L -128.139,43.6428 L -127.964,43.5734 L -127.781,43.5266
 L -127.594,43.503 L -127.406,43.503 L -127.219,43.5266 L -127.036,43.5734 L -126.861,43.6428 L -126.696,43.7335
 L -126.544,43.8442 L -126.407,43.9732 L -126.286,44.1183 L -126.186,44.2774 L -126.105,44.4478 L -126.047,44.627
 L -126.012,44.812 L -126,45 L -126.012,45.188 L -126.047,45.373 L -126.105,45.5522 L -126.186,45.7226
 L -126.286,45.8817 L -126.407,46.0268 L -126.544,46.1558 L -126.696,46.2665 L -126.861,46.3572 L -127.036,46.4266
 L -127.219,46.4734 L -127.406,46.497 z
M 97.4058,46.497 L 97.2189,46.4734 L 97.0365,46.4266 L 96.8613,46.3572 L 96.6963,46.2665 L 96.5439,46.1558
 L 96.4065,46.0268 L 96.2865,45.8817 L 96.1855,45.7226 L 96.1053,45.5522 L 96.0471,45.373 L 96.0118,45.188
 L 96,45 L 96.0118,44.812 L 96.0471,44.627 L 96.1053,44.4478 L 96.1855,44.2774 L 96.2865,44.1183
 L 96.4065,43.9732 L 96.5439,43.8442 L 96.6963,43.7335 L 96.8613,43.6428 L 97.0365,43.5734 L 97.2189,43.5266
 L 97.4058,43.503 L 97.5942,43.503 L 97.7811,43.5266 L 97.9635,43.5734 L 98.1387,43.6428 L 98.3037,43.7335
 L 98.4561,43.8442 L 98.5934,43.9732 L 98.7135,44.1183 L 98.8145,44.2774 L 98.8947,44.4478 L 98.9529,44.627
 L 98.9882,44.812 L 99,45 L 98.9882,45.188 L 98.9529,45.373 L 98.8947,45.5522 L 98.8145,45.7226
 L 98.7135,45.8817 L 98.5934,46.0268 L 98.4561,46.1558 L 98.3037,46.2665 L 98.1387,46.3572 L 97.9635,46.4266
 L 97.7811,46.4734 L 97.5942,46.497 z
M 142.406,46.497 L 142.219,46.4734 L 142.036,46.4266 L 141.861,46.3572 L 141.696,46.2665 L 141.544,46.1558
 L 141.407,46.0268 L 141.286,45.8817 L 141.186,45.7226 L 141.105,45.5522 L 141.047,45.373 L 141.012,45.188
 L 141,45 L 141.012,44.812 L 141.047,44.627 L 141.105,44.4478 L 141.186,44.2774 L 141.286,44.1183
 L 141.407,43.9732 L 141.544,43.8442 L 141.696,43.7335 L 141.861,43.6428 L 142.036,43.5734 L 142.219,43.5266
 L 142.406,43.503 L 142.594,43.503 L 142.781,43.5266 L 142.964,43.5734 L 143.139,43.6428 L 143.304,43.7335
 L 143.456,43.8442 L 143.593,43.9732 L 143.714,44.1183 L 143.814,44.2774 L 143.895,44.4478 L 143.953,44.627
 L 143.988,44.812 L 144,45 L 143.988,45.188 L 143.953,45.373 L 143.895,45.5522 L 143.814,45.7226
 L 143.714,45.8817 L 143.593,46.0268 L 143.456,46.1558 L 143.304,46.2665 L 143.139,46.3572 L 142.964,46.4266
 L 142.781,46.4734 L 142.594,46.497 z
M -52.5942,46.497 L -52.7811,46.4734 L -52.9635,46.4266 L -53.1387,46.3572 L -53.3037,46.2665 L -53.4561,46.1558
 L -53.5934,46.0268 L -53.7135,45.8817 L -53.8145,45.7226 L -53.8947,45.5522 L -53.9529,45.373 L -53.9882,45.188
 L -54,45 L -53.9882,44.812 L -53.9529,44.627 L -53.8947,44.4478 L -53.8145,44.2774 L -53.7135,44.1183
 L -53.5934,43.9732 L -53.4561,43.8442 L -53.3037,43.7335 L -53.1387,43.6428 L -52.9635,43.5734 L -52.7811,43.5266
 L -52.5942,43.503 L -52.4058,43.503 L -52.2189,43.5266 L -52.0365,43.5734 L -51.8613,43.6428 L -51.6963,43.7335
 L -51.5439,43.8442 L -51.4065,43.9732 L -51.2865,44.1183 L -51.1855,44.2774 L -51.1053,44.4478 L -51.0471,44.627
 L -51.0118,44.812 L -51,45 L -51.0118,45.188 L -51.0471,45.373 L -51.1053,45.5522 L -51.1855,45.7226
 L -51.2865,45.8817 L -51.4065,46.0268 L -51.5439,46.1558 L -51.6963,46.2665 L -51.8613,46.3572 L -52.0365,46.4266
 L -52.2189,46.4734 L -52.4058,46.497 z
M -142.594,46.497 L -142.781,46.4734 L -142.964,46.4266 L -143.139,46.3572 L -143.304,46.2665 L -143.456,46.1558
 L -143.593,46.0268 L -143.714,45.8817 L -143.814,45.7226 L -143.895,45.5522 L -143.953,45.373 L -143.988,45.188
 L -144,45 L -143.988,44.812 L -143.953,44.627 L -143.895,44.4478 L -143.814,44.2774 L -143.714,44.1183
 L -143.593,43.9732 L -143.456,43.8442 L -143.304,43.7335 L -143.139,43.6428 L -142.964,43.5734 L -142.781,43.5266
 L -142.594,43.503 L -142.406,43.503 L -142.219,43.5266 L -142.036,43.5734 L -141.861,43.6428 L -141.696,43.7335
 L -141.544,43.8442 L -141.407,43.9732 L -141.286,44.1183 L -141.186,44.2774 L -141.105,44.4478 L -141.047,44.627
 L -141.012,44.812 L -141,45 L -141.012,45.188 L -141.047,45.373 L -141.105,45.5522 L -141.186,45.7226
 L -141.286,45.8817 L -141.407,46.0268 L -141.544,46.1558 L -141.696,46.2665 L -141.861,46.3572 L -142.036,46.4266
 L -142.219,46.4734 L -142.406,46.497 z
M 22.4058,46.497 L 22.2189,46.4734 L 22.0365,46.4266 L 21.8613,46.3572 L 21.6963,46.2665 L 21.5439,46.1558
 L 21.4065,46.0268 L 21.2865,45.8817 L 21.1855,45.7226 L 21.1053,45.5522 L 21.0471,45.373 L 21.0118,45.188
 L 21,45 L 21.0118,44.812 L 21.0471,44.627 L 21.1053,44.4478 L 21.1855,44.2774 L 21.2865,44.1183
 L 21.4065,43.9732 L 21.5439,43.8442 L 21.6963,43.7335 L 21.8613,43.6428 L 22.0365,43.5734 L 22.2189,43.5266
 L 22.4058,43.503 L 22.5942,43.503 L 22.7811,43.5266 L 22.9635,43.5734 L 23.1387,43.6428 L 23.3037,43.7335
 L 23.4561,43.8442 L 23.5934,43.9732 L 23.7135,44.1183 L 23.8145,44.2774 L 23.8947,44.4478 L 23.9529,44.627
 L 23.9882,44.812 L 24,45 L 23.9882,45.188 L 23.9529,45.373 L 23.8947,45.5522 L 23.8145,45.7226
 L 23.7135,45.8817 L 23.5934,46.0268 L 23.4561,46.1558 L 23.3037,46.2665 L 23.1387,46.3572 L 22.9635,46.4266
 L 22.7811,46.4734 L 22.5942,46.497 z
M -97.5942,46.497 L -97.7811,46.4734 L -97.9635,46.4266 L -98.1387,46.3572 L -98.3037,46.2665 L -98.4561,46.1558
 L -98.5934,46.0268 L -98.7135,45.8817 L -98.8145,45.7226 L -98.8947,45.5522 L -98.9529,45.373 L -98.9882,45.188
 L -99,45 L -98.9882,44.812 L -98.9529,44.627 L -98.8947,44.4478 L -98.8145,44.2774 L -98.7135,44.1183
 L -98.5934,43.9732 L -98.4561,43.8442 L -98.3037,43.7335 L -98.1387,43.6428 L -97.9635,43.5734 L -97.7811,43.5266
 L -97.5942,43.503 L -97.4058,43.503 L -97.2189,43.5266 L -97.0365,43.5734 L -96.8613,43.6428 L -96.6963,43.7335
 L -96.5439,43.8442 L -96.4065,43.9732 L -96.2865,44.1183 L -96.1855,44.2774 L -96.1053,44.4478 L -96.0471,44.627
 L -96.0118,44.812 L -96,45 L -96.0118,45.188 L -96.0471,45.373 L -96.1053,45.5522 L -96.1855,45.7226
 L -96.2865,45.8817 L -96.4065,46.0268 L -96.5439,46.1558 L -96.6963,46.2665 L -96.8613,46.3572 L -97.0365,46.4266
 L -97.2189,46.4734 L -97.4058,46.497 z
M -82.5942,46.497 L -82.7811,46.4734 L -82.9635,46.4266 L -83.1387,46.3572 L -83.3037,46.2665 L -83.4561,46.1558
 L -83.5934,46.0268 L -83.7135,45.8817 L -83.8145,45.7226 L -83.8947,45.5522 L -83.9529,45.373 L -83.9882,45.188
 L -84,45 L -83.9882,44.812 L -83.9529,44.627 L -83.8947,44.4478 L -83.8145,44.2774 L -83.7135,44.1183
 L -83.5934,43.9732 L -83.4561,43.8442 L -83.3037,43.7335 L -83.1387,43.6428 L -82.9635,43.5734 L -82.7811,43.5266
 L -82.5942,43.503 L -82.4058,43.503 L -82.2189,43.5266 L -82.0365,43.5734 L -81.8613,43.6428 L -81.6963,43.7335
 L -81.5439,43.8442 L -81.4065,43.9732 L -81.2865,44.1183 L -81.1855,44.2774 L -81.1053,44.4478 L -81.0471,44.627
 L -81.0118,44.812 L -81,45 L -81.0118,45.188 L -81.0471,45.373 L -81.1053,45.5522 L -81.1855,45.7226
 L -81.2865,45.8817 L -81.4065,46.0268 L -81.5439,46.1558 L -81.6963,46.2665 L -81.8613,46.3572 L -82.0365,46.4266
 L -82.2189,46.4734 L -82.4058,46.497 z
M 82.4058,46.497 L 82.2189,46.4734 L 82.0365,46.4266 L 81.8613,46.3572 L 81.6963,46.2665 L 81.5439,46.1558
 L 81.4065,46.0268 L 81.2865,45.8817 L 81.1855,45.7226 L 81.1053,45.5522 L 81.0471,45.373 L 81.0118,45.188
 L 81,45 L 81.0118,44.812 L 81.0471,44.627 L 81.1053,44.4478 L 81.1855,44.2774 L 81.2865,44.1183
 L 81.4065,43.9732 L 81.5439,43.8442 L 81.6963,43.7335 L 81.8613,43.6428 L 82.0365,43.5734 L 82.2189,43.5266
 L 82.4058,43.503 L 82.5942,43.503 L 82.7811,43.5266 L 82.9635,43.5734 L 83.1387,43.6428 L 83.3037,43.7335
 L 83.4561,43.8442 L 83.5934,43.9732 L 83.7135,44.1183 L 83.8145,44.2774 L 83.8947,44.4478 L 83.9529,44.627
 L 83.9882,44.812 L 84,45 L 83.9882,45.188 L 83.9529,45.373 L 83.8947,45.5522 L 83.8145,45.7226
 L 83.7135,45.8817 L 83.5934,46.0268 L 83.4561,46.1558 L 83.3037,46.2665 L 83.1387,46.3572 L 82.9635,46.4266
 L 82.7811,46.4734 L 82.5942,46.497 z
M -22.5942,46.497 L -22.7811,46.4734 L -22.9635,46.4266 L -23.1387,46.3572 L -23.3037,46.2665 L -23.4561,46.1558
 L -23.5934,46.0268 L -23.7135,45.8817 L -23.8145,45.7226 L -23.8947,45.5522 L -23.9529,45.373 L -23.9882,45.188
 L -24,45 L -23.9882,44.812 L -23.9529,44.627 L -23.8947,44.4478 L -23.8145,44.2774 L -23.7135,44.1183
 L -23.5934,43.9732 L -23.4561,43.8442 L -23.3037,43.7335 L -23.1387,43.6428 L -22.9635,43.5734 L -22.7811,43.5266
 L -22.5942,43.503 L -22.4058,43.503 L -22.2189,43.5266 L -22.0365,43.5734 L -21.8613,43.6428 L -21.6963,43.7335
 L -21.5439,43.8442 L -21.4065,43.9732 L -21.2865,44.1183 L -21.1855,44.2774 L -21.1053,44.4478 L -21.0471,44.627
 L -21.0118,44.812 L -21,45 L -21.0118,45.188 L -21.0471,45.373 L -21.1053,45.5522 L -21.1855,45.7226
 L -21.2865,45.8817 L -21.4065,46.0268 L -21.5439,46.1558 L -21.6963,46.2665 L -21.8613,46.3572 L -22.0365,46.4266
 L -22.2189,46.4734 L -22.4058,46.497 z
M 52.4058,46.497 L 52.2189,46.4734 L 52.0365,46.4266 L 51.8613,46.3572 L 51.6963,46.2665 L 51.5439,46.1558
 L 51.4065,46.0268 L 51.2865,45.8817 L 51.1855,45.7226 L 51.1053,45.5522 L 51.0471,45.373 L 51.0118,45.188
 L 51,45 L 51.0118,44.812 L 51.0471,44.627 L 51.1053,44.4478 L 51.1855,44.2774 L 51.2865,44.1183
 L 51.4065,43.9732 L 51.5439,43.8442 L 51.6963,43.7335 L 51.8613,43.6428 L 52.0365,43.5734 L 52.2189,43.5266
 L 52.4058,43.503 L 52.5942,43.503 L 52.7811,43.5266 L 52.9635,43.5734 L 53.1387,43.6428 L 53.3037,43.7335
 L 53.4561,43.8442 L 53.5934,43.9732 L 53.7135,44.1183 L 53.8145,44.2774 L 53.8947,44.4478 L 53.9529,44.627
 L 53.9882,44.812 L 54,45 L 53.9882,45.188 L 53.9529,45.373 L 53.8947,45.5522 L 53.8145,45.7226
 L 53.7135,45.8817 L 53.5934,46.0268 L 53.4561,46.1558 L 53.3037,46.2665 L 53.1387,46.3572 L 52.9635,46.4266
 L 52.7811,46.4734 L 52.5942,46.497 z
M -67.5942,46.497 L -67.7811,46.4734 L -67.9635,46.4266 L -68.1387,46.3572 L -68.3037,46.2665 L -68.4561,46.1558
 L -68.5934,46.0268 L -68.7135,45.8817 L -68.8145,45.7226 L -68.8947,45.5522 L -68.9529,45.373 L -68.9882,45.188
 L -69,45 L -68.9882,44.812 L -68.9529,44.627 L -68.8947,44.4478 L -68.8145,44.2774 L -68.7135,44.1183
 L -68.5934,43.9732 L -68.4561,43.8442 L -68.3037,43.7335 L -68.1387,43.6428 L -67.9635,43.5734 L -67.7811,43.5266
 L -67.5942,43.503 L -67.4058,43.503 L -67.2189,43.5266 L -67.0365,43.5734 L -66.8613,43.6428 L -66.6963,43.7335
 L -66.5439,43.8442 L -66.4065,43.9732 L -66.2865,44.1183 L -66.1855,44.2774 L -66.1053,44.4478 L -66.0471,44.627
 L -66.0118,44.812 L -66,45 L -66.0118,45.188 L -66.0471,45.373 L -66.1053,45.5522 L -66.1855,45.7226
 L -66.2865,45.8817 L -66.4065,46.0268 L -66.5439,46.1558 L -66.6963,46.2665 L -66.8613,46.3572 L -67.0365,46.4266
 L -67.2189,46.4734 L -67.4058,46.497 z
M 112.406,46.497 L 112.219,46.4734 L 112.036,46.4266 L 111.861,46.3572 L 111.696,46.2665 L 111.544,46.1558
 L 111.407,46.0268 L 111.286,45.8817 L 111.186,45.7226 L 111.105,45.5522 L 111.047,45.373 L 111.012,45.188
 L 111,45 L 111.012,44.812 L 111.047,44.627 L 111.105,44.4478 L 111.186,44.2774 L 111.286,44.1183
 L 111.407,43.9732 L 111.544,43.8442 L 111.696,43.7335 L 111.861,43.6428 L 112.036,43.5734 L 112.219,43.5266
 L 112.406,43.503 L 112.594,43.503 L 112.781,43.5266 L 112.964,43.5734 L 113.139,43.6428 L 113.304,43.7335
 L 113.456,43.8442 L 113.593,43.9732 L 113.714,44.1183 L 113.814,44.2774 L 113.895,44.4478 L 113.953,44.627
 L 113.988,44.812 L 114,45 L 113.988,45.188 L 113.953,45.373 L 113.895,45.5522 L 113.814,45.7226
 L 113.714,45.8817 L 113.593,46.0268 L 113.456,46.1558 L 113.304,46.2665 L 113.139,46.3572 L 112.964,46.4266
 L 112.781,46.4734 L 112.594,46.497 z
M -7.59418,46.497 L -7.78107,46.4734 L -7.96352,46.4266 L -8.13866,46.3572 L -8.30373,46.2665 L -8.45613,46.1558
 L -8.59344,46.0268 L -8.71352,45.8817 L -8.81445,45.7226 L -8.89465,45.5522 L -8.95287,45.373 L -8.98816,45.188
 L -9,45 L -8.98816,44.812 L -8.95287,44.627 L -8.89465,44.4478 L -8.81445,44.2774 L -8.71352,44.1183
 L -8.59344,43.9732 L -8.45613,43.8442 L -8.30373,43.7335 L -8.13866,43.6428 L -7.96352,43.5734 L -7.78107,43.5266
 L -7.59418,43.503 L -7.40581,43.503 L -7.21892,43.5266 L -7.03647,43.5734 L -6.86133,43.6428 L -6.69626,43.7335
 L -6.54385,43.8442 L -6.40654,43.9732 L -6.28647,44.1183 L -6.18553,44.2774 L -6.10533,44.4478 L -6.04712,44.627
 L -6.01183,44.812 L -6,45 L -6.01183,45.188 L -6.04712,45.373 L -6.10533,45.5522 L -6.18553,45.7226
 L -6.28647,45.8817 L -6.40654,46.0268 L -6.54385,46.1558 L -6.69626,46.2665 L -6.86133,46.3572 L -7.03647,46.4266
 L -7.21892,46.4734 L -7.40581,46.497 z
M 37.4058,46.497 L 37.2189,46.4734 L 37.0365,46.4266 L 36.8613,46.3572 L 36.6963,46.2665 L 36.5439,46.1558
 L 36.4065,46.0268 L 36.2865,45.8817 L 36.1855,45.7226 L 36.1053,45.5522 L 36.0471,45.373 L 36.0118,45.188
 L 36,45 L 36.0118,44.812 L 36.0471,44.627 L 36.1053,44.4478 L 36.1855,44.2774 L 36.2865,44.1183
 L 36.4065,43.9732 L 36.5439,43.8442 L 36.6963,43.7335 L 36.8613,43.6428 L 37.0365,43.5734 L 37.2189,43.5266
 L 37.4058,43.503 L 37.5942,43.503 L 37.7811,43.5266 L 37.9635,43.5734 L 38.1387,43.6428 L 38.3037,43.7335
 L 38.4561,43.8442 L 38.5934,43.9732 L 38.7135,44.1183 L 38.8145,44.2774 L 38.8947,44.4478 L 38.9529,44.627
 L 38.9882,44.812 L 39,45 L 38.9882,45.188 L 38.9529,45.373 L 38.8947,45.5522 L 38.8145,45.7226
 L 38.7135,45.8817 L 38.5934,46.0268 L 38.4561,46.1558 L 38.3037,46.2665 L 38.1387,46.3572 L 37.9635,46.4266
 L 37.7811,46.4734 L 37.5942,46.497 z
M -112.594,46.497 L -112.781,46.4734 L -112.964,46.4266 L -113.139,46.3572 L -113.304,46.2665 L -113.456,46.1558
 L -113.593,46.0268 L -113.714,45.8817 L -113.814,45.7226 L -113.895,45.5522 L -113.953,45.373 L -113.988,45.188
 L -114,45 L -113.988,44.812 L -113.953,44.627 L -113.895,44.4478 L -113.814,44.2774 L -113.714,44.1183
 L -113.593,43.9732 L -113.456,43.8442 L -113.304,43.7335 L -113.139,43.6428 L -112.964,43.5734 L -112.781,43.5266
 L -112.594,43.503 L -112.406,43.503 L -112.219,43.5266 L -112.036,43.5734 L -111.861,43.6428 L -111.696,43.7335
 L -111.544,43.8442 L -111.407,43.9732 L -111.286,44.1183 L -111.186,44.2774 L -111.105,44.4478 L -111.047,44.627
 L -111.012,44.812 L -111,45 L -111.012,45.188 L -111.047,45.373 L -111.105,45.5522 L -111.186,45.7226
 L -111.286,45.8817 L -111.407,46.0268 L -111.544,46.1558 L -111.696,46.2665 L -111.861,46.3572 L -112.036,46.4266
 L -112.219,46.4734 L -112.406,46.497 z
M 67.4058,46.497 L 67.2189,46.4734 L 67.0365,46.4266 L 66.8613,46.3572 L 66.6963,46.2665 L 66.5439,46.1558
 L 66.4065,46.0268 L 66.2865,45.8817 L 66.1855,45.7226 L 66.1053,45.5522 L 66.0471,45.373 L 66.0118,45.188
 L 66,45 L 66.0118,44.812 L 66.0471,44.627 L 66.1053,44.4478 L 66.1855,44.2774 L 66.2865,44.1183
 L 66.4065,43.9732 L 66.5439,43.8442 L 66.6963,43.7335 L 66.8613,43.6428 L 67.0365,43.5734 L 67.2189,43.5266
 L 67.4058,43.503 L 67.5942,43.503 L 67.7811,43.5266 L 67.9635,43.5734 L 68.1387,43.6428 L 68.3037,43.7335
 L 68.4561,43.8442 L 68.5934,43.9732 L 68.7135,44.1183 L 68.8145,44.2774 L 68.8947,44.4478 L 68.9529,44.627
 L 68.9882,44.812 L 69,45 L 68.9882,45.188 L 68.9529,45.373 L 68.8947,45.5522 L 68.8145,45.7226
 L 68.7135,45.8817 L 68.5934,46.0268 L 68.4561,46.1558 L 68.3037,46.2665 L 68.1387,46.3572 L 67.9635,46.4266
 L 67.7811,46.4734 L 67.5942,46.497 z
M 127.406,46.497 L 127.219,46.4734 L 127.036,46.4266 L 126.861,46.3572 L 126.696,46.2665 L 126.544,46.1558
 L 126.407,46.0268 L 126.286,45.8817 L 126.186,45.7226 L 126.105,45.5522 L 126.047,45.373 L 126.012,45.188
 L 126,45 L 126.012,44.812 L 126.047,44.627 L 126.105,44.4478 L 126.186,44.2774 L 126.286,44.1183
 L 126.407,43.9732 L 126.544,43.8442 L 126.696,43.7335 L 126.861,43.6428 L 127.036,43.5734 L 127.219,43.5266
 L 127.406,43.503 L 127.594,43.503 L 127.781,43.5266 L 127.964,43.5734 L 128.139,43.6428 L 128.304,43.7335
 L 128.456,43.8442 L 128.593,43.9732 L 128.714,44.1183 L 128.814,44.2774 L 128.895,44.4478 L 128.953,44.627
 L 128.988,44.812 L 129,45 L 128.988,45.188 L 128.953,45.373 L 128.895,45.5522 L 128.814,45.7226
 L 128.714,45.8817 L 128.593,46.0268 L 128.456,46.1558 L 128.304,46.2665 L 128.139,46.3572 L 127.964,46.4266
 L 127.781,46.4734 L 127.594,46.497 z
M -37.5942,46.497 L -37.7811,46.4734 L -37.9635,46.4266 L -38.1387,46.3572 L -38.3037,46.2665 L -38.4561,46.1558
 L -38.5934,46.0268 L -38.7135,45.8817 L -38.8145,45.7226 L -38.8947,45.5522 L -38.9529,45.373 L -38.9882,45.188
 L -39,45 L -38.9882,44.812 L -38.9529,44.627 L -38.8947,44.4478 L -38.8145,44.2774 L -38.7135,44.1183
 L -38.5934,43.9732 L -38.4561,43.8442 L -38.3037,43.7335 L -38.1387,43.6428 L -37.9635,43.5734 L -37.7811,43.5266
 L -37.5942,43.503 L -37.4058,43.503 L -37.2189,43.5266 L -37.0365,43.5734 L -36.8613,43.6428 L -36.6963,43.7335
 L -36.5439,43.8442 L -36.4065,43.9732 L -36.2865,44.1183 L -36.1855,44.2774 L -36.1053,44.4478 L -36.0471,44.627
 L -36.0118,44.812 L -36,45 L -36.0118,45.188 L -36.0471,45.373 L -36.1053,45.5522 L -36.1855,45.7226
 L -36.2865,45.8817 L -36.4065,46.0268 L -36.5439,46.1558 L -36.6963,46.2665 L -36.8613,46.3572 L -37.0365,46.4266
 L -37.2189,46.4734 L -37.4058,46.497 z
" stroke="black" fill="lightgray" stroke-width="0.5"/>
</svg>
