<?xml version="1.0" standalone="no"?>
<!DOCTYPE svg PUBLIC "-//W3C//DTD SVG 1.1//EN" "http://www.w3.org/Graphics/SVG/1.1/DTD/svg11.dtd">
<svg width="90mm" height="44mm" viewBox="-45 -22 90 44" xmlns="http://www.w3.org/2000/svg" version="1.1">
<title>OpenSCAD Model</title>
<path d="
M 40.4369,21.9114 L 41.0451,21.7553 L 41.6289,21.5241 L 42.1791,21.2216 L 42.6871,20.8526 L 43.1448,20.4227
 L 43.5451,19.9389 L 43.8815,19.4088 L 44.1489,18.8406 L 44.3429,18.2434 L 44.4606,17.6267 L 44.5,17
 L 44.5,-17 L 44.4606,-17.6267 L 44.3429,-18.2434 L 44.1489,-18.8406 L 43.8815,-19.4088 L 43.5451,-19.9389
 L 43.1448,-20.4227 L 42.6871,-20.8526 L 42.1791,-21.2216 L 41.6289,-21.5241 L 41.0451,-21.7553 L 40.4369,-21.9114
 L 39.8139,-21.9901 L -39.8139,-21.9901 L -40.4369,-21.9114 L -41.0451,-21.7553 L -41.6289,-21.5241 L -42.1791,-21.2216
 L -42.6871,-20.8526 L -43.1448,-20.4227 L -43.5451,-19.9389 L -43.8815,-19.4088 L -44.1489,-18.8406 L -44.3429,-18.2434
 L -44.4606,-17.6267 L -44.5,-17 L -44.5,17 L -44.4606,17.6267 L -44.3429,18.2434 L -44.1489,18.8406
 L -43.8815,19.4088 L -43.5451,19.9389 L -43.1448,20.4227 L -42.6871,20.8526 L -42.1791,21.2216 L -41.6289,21.5241
 L -41.0451,21.7553 L -40.4369,21.9114 L -39.8139,21.9901 L 39.8139,21.9901 z
M -37.6884,-12.0059 L -38.0621,-12.0531 L -38.427,-12.1468 L -38.7773,-12.2855 L -39.1075,-12.467 L -39.4123,-12.6884
 L -39.6869,-12.9464 L -39.927,-13.2366 L -40.1289,-13.5547 L -40.2893,-13.8956 L -40.4057,-14.2539 L -40.4763,-14.624
 L -40.5,-15 L -40.4763,-15.376 L -40.4057,-15.7461 L -40.2893,-16.1044 L -40.1289,-16.4453 L -39.927,-16.7634
 L -39.6869,-17.0536 L -39.4123,-17.3115 L -39.1075,-17.533 L -38.7773,-17.7145 L -38.427,-17.8532 L -38.0621,-17.9469
 L -37.6884,-17.9941 L -37.3116,-17.9941 L -36.9379,-17.9469 L -36.5729,-17.8532 L -36.2227,-17.7145 L -35.8925,-17.533
 L -35.5877,-17.3115 L -35.3131,-17.0536 L -35.0729,-16.7634 L -34.8711,-16.4453 L -34.7107,-16.1044 L -34.5942,-15.7461
 L -34.5237,-15.376 L -34.5,-15 L -34.5237,-14.624 L -34.5942,-14.2539 L -34.7107,-13.8956 L -34.8711,-13.5547
 L -35.0729,-13.2366 L -35.3131,-12.9464 L -35.5877,-12.6884 L -35.8925,-12.467 L -36.2227,-12.2855 L -36.5729,-12.1468
 L -36.9379,-12.0531 L -37.3116,-12.0059 z
M 37.3116,-12.0059 L 36.9379,-12.0531 L 36.5729,-12.1468 L 36.2227,-12.2855 L 35.8925,-12.467 L 35.5877,-12.6884
 L 35.3131,-12.9464 L 35.0729,-13.2366 L 34.8711,-13.5547 L 34.7107,-13.8956 L 34.5942,-14.2539 L 34.5237,-14.624
 L 34.5,-15 L 34.5237,-15.376 L 34.5942,-15.7461 L 34.7107,-16.1044 L 34.8711,-16.4453 L 35.0729,-16.7634
 L 35.3131,-17.0536 L 35.5877,-17.3115 L 35.8925,-17.533 L 36.2227,-17.7145 L 36.5729,-17.8532 L 36.9379,-17.9469
 L 37.3116,-17.9941 L 37.6884,-17.9941 L 38.0621,-17.9469 L 38.427,-17.8532 L 38.7773,-17.7145 L 39.1075,-17.533
 L 39.4123,-17.3115 L 39.6869,-17.0536 L 39.927,-16.7634 L 40.1289,-16.4453 L 40.2893,-16.1044 L 40.4057,-15.7461
 L 40.4763,-15.376 L 40.5,-15 L 40.4763,-14.624 L 40.4057,-14.2539 L 40.2893,-13.8956 L 40.1289,-13.5547
 L 39.927,-13.2366 L 39.6869,-12.9464 L 39.4123,-12.6884 L 39.1075,-12.467 L 38.7773,-12.2855 L 38.427,-12.1468
 L 38.0621,-12.0531 L 37.6884,-12.0059 z
M 14.6837,12.9743 L 13.064,12.7697 L 11.4828,12.3637 L 9.96486,11.7627 L 8.53424,10.9763 L 7.21349,10.0167
 L 6.02341,8.89911 L 4.98277,7.6412 L 4.108,6.26279 L 3.4129,4.78561 L 2.90842,3.23296 L 2.60251,1.62932
 L 2.5,-0 L 2.60251,-1.62932 L 2.90842,-3.23296 L 3.4129,-4.78561 L 4.108,-6.26279 L 4.98277,-7.6412
 L 6.02341,-8.89911 L 7.21349,-10.0167 L 8.53424,-10.9763 L 9.96486,-11.7627 L 11.4828,-12.3637 L 13.064,-12.7697
 L 14.6837,-12.9743 L 16.3163,-12.9743 L 17.9359,-12.7697 L 19.5172,-12.3637 L 21.0351,-11.7627 L 22.4657,-10.9763
 L 23.7865,-10.0167 L 24.9766,-8.89911 L 26.0172,-7.6412 L 26.892,-6.26279 L 27.5871,-4.78561 L 28.0916,-3.23296
 L 28.3975,-1.62932 L 28.5,-0 L 28.3975,1.62932 L 28.0916,3.23296 L 27.5871,4.78561 L 26.892,6.26279
 L 26.0172,7.6412 L 24.9766,8.89911 L 23.7865,10.0167 L 22.4657,10.9763 L 21.0351,11.7627 L 19.5172,12.3637
 L 17.9359,12.7697 L 16.3163,12.9743 z
M -16.3163,12.9743 L -17.9359,12.7697 L -19.5172,12.3637 L -21.0351,11.7627 L -22.4657,10.9763 L -23.7865,10.0167
 L -24.9766,8.89911 L -26.0172,7.6412 L -26.892,6.26279 L -27.5871,4.78561 L -28.0916,3.23296 L -28.3975,1.62932
 L -28.5,-0 L -28.3975,-1.62932 L -28.0916,-3.23296 L -27.5871,-4.78561 L -26.892,-6.26279 L -26.0172,-7.6412
 L -24.9766,-8.89911 L -23.7865,-10.0167 L -22.4657,-10.9763 L -21.0351,-11.7627 L -19.5172,-12.3637 L -17.9359,-12.7697
 L -16.3163,-12.9743 L -14.6837,-12.9743 L -13.064,-12.7697 L -11.4828,-12.3637 L -9.96486,-11.7627 L -8.53424,-10.9763
 L -7.21349,-10.0167 L -6.02341,-8.89911 L -4.98277,-7.6412 L -4.108,-6.26279 L -3.4129,-4.78561 L -2.90842,-3.23296
 L -2.60251,-1.62932 L -2.5,-0 L -2.60251,1.62932 L -2.90842,3.23296 L -3.4129,4.78561 L -4.108,6.26279
 L -4.98277,7.6412 L -6.02341,8.89911 L -7.21349,10.0167 L -8.53424,10.9763 L -9.96486,11.7627 L -11.4828,12.3637
 L -13.064,12.7697 L -14.6837,12.9743 z
M 37.4058,-6.00294 L 37.2189,-6.02657 L 37.0365,-6.07341 L 36.8613,-6.14275 L 36.6963,-6.23351 L 36.5439,-6.34422
 L 36.4065,-6.47318 L 36.2865,-6.61832 L 36.1855,-6.77736 L 36.1053,-6.9478 L 36.0471,-7.12695 L 36.0118,-7.312
 L 36,-7.5 L 36.0118,-7.68799 L 36.0471,-7.87303 L 36.1053,-8.05219 L 36.1855,-8.22263 L 36.2865,-8.38167
 L 36.4065,-8.52681 L 36.5439,-8.65576 L 36.6963,-8.76648 L 36.8613,-8.85724 L 37.0365,-8.92657 L 37.2189,-8.97342
 L 37.4058,-8.99704 L 37.5942,-8.99704 L 37.7811,-8.97342 L 37.9635,-8.92657 L 38.1387,-8.85724 L 38.3037,-8.76648
 L 38.4561,-8.65576 L 38.5934,-8.52681 L 38.7135,-8.38167 L 38.8145,-8.22263 L 38.8947,-8.05219 L 38.9529,-7.87303
 L 38.9882,-7.68799 L 39,-7.5 L 38.9882,-7.312 L 38.9529,-7.12695 L 38.8947,-6.9478 L 38.8145,-6.77736
 L 38.7135,-6.61832 L 38.5934,-6.47318 L 38.4561,-6.34422 L 38.3037,-6.23351 L 38.1387,-6.14275 L 37.9635,-6.07341
 L 37.7811,-6.02657 L 37.5942,-6.00294 z
M -37.5942,-6.00294 L -37.7811,-6.02657 L -37.9635,-6.07341 L -38.1387,-6.14275 L -38.3037,-6.23351 L -38.4561,-6.34422
 L -38.5934,-6.47318 L -38.7135,-6.61832 L -38.8145,-6.77736 L -38.8947,-6.9478 L -38.9529,-7.12695 L -38.9882,-7.312
 L -39,-7.5 L -38.9882,-7.68799 L -38.9529,-7.87303 L -38.8947,-8.05219 L -38.8145,-8.22263 L -38.7135,-8.38167
 L -38.5934,-8.52681 L -38.4561,-8.65576 L -38.3037,-8.76648 L -38.1387,-8.85724 L -37.9635,-8.92657 L -37.7811,-8.97342
 L -37.5942,-8.99704 L -37.4058,-8.99704 L -37.2189,-8.97342 L -37.0365,-8.92657 L -36.8613,-8.85724 L -36.6963,-8.76648
 L -36.5439,-8.65576 L -36.4065,-8.52681 L -36.2865,-8.38167 L -36.1855,-8.22263 L -36.1053,-8.05219 L -36.0471,-7.87303
 L -36.0118,-7.68799 L -36,-7.5 L -36.0118,-7.312 L -36.0471,-7.12695 L -36.1053,-6.9478 L -36.1855,-6.77736
 L -36.2865,-6.61832 L -36.4065,-6.47318 L -36.5439,-6.34422 L -36.6963,-6.23351 L -36.8613,-6.14275 L -37.0365,-6.07341
 L -37.2189,-6.02657 L -37.4058,-6.00294 z
M 37.3116,2.99408 L 36.9379,2.94685 L 36.5729,2.85316 L 36.2227,2.71448 L 35.8925,2.53297 L 35.5877,2.31154
 L 35.3131,2.05363 L 35.0729,1.76335 L 34.8711,1.44525 L 34.7107,1.10437 L 34.5942,0.746063 L 34.5237,0.375992
 L 34.5,-0 L 34.5237,-0.375992 L 34.5942,-0.746063 L 34.7107,-1.10437 L 34.8711,-1.44525 L 35.0729,-1.76335
 L 35.3131,-2.05363 L 35.5877,-2.31154 L 35.8925,-2.53297 L 36.2227,-2.71448 L 36.5729,-2.85316 L 36.9379,-2.94685
 L 37.3116,-2.99408 L 37.6884,-2.99408 L 38.0621,-2.94685 L 38.427,-2.85316 L 38.7773,-2.71448 L 39.1075,-2.53297
 L 39.4123,-2.31154 L 39.6869,-2.05363 L 39.927,-1.76335 L 40.1289,-1.44525 L 40.2893,-1.10437 L 40.4057,-0.746063
 L 40.4763,-0.375992 L 40.5,-0 L 40.4763,0.375992 L 40.4057,0.746063 L 40.2893,1.10437 L 40.1289,1.44525
 L 39.927,1.76335 L 39.6869,2.05363 L 39.4123,2.31154 L 39.1075,2.53297 L 38.7773,2.71448 L 38.427,2.85316
 L 38.0621,2.94685 L 37.6884,2.99408 z
M -37.6884,2.99408 L -38.0621,2.94685 L -38.427,2.85316 L -38.7773,2.71448 L -39.1075,2.53297 L -39.4123,2.31154
 L -39.6869,2.05363 L -39.927,1.76335 L -40.1289,1.44525 L -40.2893,1.10437 L -40.4057,0.746063 L -40.4763,0.375992
 L -40.5,-0 L -40.4763,-0.375992 L -40.4057,-0.746063 L -40.2893,-1.10437 L -40.1289,-1.44525 L -39.927,-1.76335
 L -39.6869,-2.05363 L -39.4123,-2.31154 L -39.1075,-2.53297 L -38.7773,-2.71448 L -38.427,-2.85316 L -38.0621,-2.94685
 L -37.6884,-2.99408 L -37.3116,-2.99408 L -36.9379,-2.94685 L -36.5729,-2.85316 L -36.2227,-2.71448 L -35.8925,-2.53297
 L -35.5877,-2.31154 L -35.3131,-2.05363 L -35.0729,-1.76335 L -34.8711,-1.44525 L -34.7107,-1.10437 L -34.5942,-0.746063
 L -34.5237,-0.375992 L -34.5,-0 L -34.5237,0.375992 L -34.5942,0.746063 L -34.7107,1.10437 L -34.8711,1.44525
 L -35.0729,1.76335 L -35.3131,2.05363 L -35.5877,2.31154 L -35.8925,2.53297 L -36.2227,2.71448 L -36.5729,2.85316
 L -36.9379,2.94685 L -37.3116,2.99408 z
M 37.4058,8.99704 L 37.2189,8.97342 L 37.0365,8.92657 L 36.8613,8.85724 L 36.6963,8.76648 L 36.5439,8.65576
 L 36.4065,8.52681 L 36.2865,8.38167 L 36.1855,8.22263 L 36.1053,8.05219 L 36.0471,7.87303 L 36.0118,7.68799
 L 36,7.5 L 36.0118,7.312 L 36.0471,7.12695 L 36.1053,6.9478 L 36.1855,6.77736 L 36.2865,6.61832
 L 36.4065,6.47318 L 36.5439,6.34422 L 36.6963,6.23351 L 36.8613,6.14275 L 37.0365,6.07341 L 37.2189,6.02657
 L 37.4058,6.00294 L 37.5942,6.00294 L 37.7811,6.02657 L 37.9635,6.07341 L 38.1387,6.14275 L 38.3037,6.23351
 L 38.4561,6.34422 L 38.5934,6.47318 L 38.7135,6.61832 L 38.8145,6.77736 L 38.8947,6.9478 L 38.9529,7.12695
 L 38.9882,7.312 L 39,7.5 L 38.9882,7.68799 L 38.9529,7.87303 L 38.8947,8.05219 L 38.8145,8.22263
 L 38.7135,8.38167 L 38.5934,8.52681 L 38.4561,8.65576 L 38.3037,8.76648 L 38.1387,8.85724 L 37.9635,8.92657
 L 37.7811,8.97342 L 37.5942,8.99704 z
M -37.5942,8.99704 L -37.7811,8.97342 L -37.9635,8.92657 L -38.1387,8.85724 L -38.3037,8.76648 L -38.4561,8.65576
 L -38.5934,8.52681 L -38.7135,8.38167 L -38.8145,8.22263 L -38.8947,8.05219 L -38.9529,7.87303 L -38.9882,7.68799
 L -39,7.5 L -38.9882,7.312 L -38.9529,7.12695 L -38.8947,6.9478 L -38.8145,6.77736 L -38.7135,6.61832
 L -38.5934,6.47318 L -38.4561,6.34422 L -38.3037,6.23351 L -38.1387,6.14275 L -37.9635,6.07341 L -37.7811,6.02657
 L -37.5942,6.00294 L -37.4058,6.00294 L -37.2189,6.02657 L -37.0365,6.07341 L -36.8613,6.14275 L -36.6963,6.23351
 L -36.5439,6.34422 L -36.4065,6.47318 L -36.2865,6.61832 L -36.1855,6.77736 L -36.1053,6.9478 L -36.0471,7.12695
 L -36.0118,7.312 L -36,7.5 L -36.0118,7.68799 L -36.0471,7.87303 L -36.1053,8.05219 L -36.1855,8.22263
 L -36.2865,8.38167 L -36.4065,8.52681 L -36.5439,8.65576 L -36.6963,8.76648 L -36.8613,8.85724 L -37.0365,8.92657
 L -37.2189,8.97342 L -37.4058,8.99704 z
M -37.6884,17.9941 L -38.0621,17.9469 L -38.427,17.8532 L -38.7773,17.7145 L -39.1075,17.533 L -39.4123,17.3115
 L -39.6869,17.0536 L -39.927,16.7634 L -40.1289,16.4453 L -40.2893,16.1044 L -40.4057,15.7461 L -40.4763,15.376
 L -40.5,15 L -40.4763,14.624 L -40.4057,14.2539 L -40.2893,13.8956 L -40.1289,13.5547 L -39.927,13.2366
 L -39.6869,12.9464 L -39.4123,12.6884 L -39.1075,12.467 L -38.7773,12.2855 L -38.427,12.1468 L -38.0621,12.0531
 L -37.6884,12.0059 L -37.3116,12.0059 L -36.9379,12.0531 L -36.5729,12.1468 L -36.2227,12.2855 L -35.8925,12.467
 L -35.5877,12.6884 L -35.3131,12.9464 L -35.0729,13.2366 L -34.8711,13.5547 L -34.7107,13.8956 L -34.5942,14.2539
 L -34.5237,14.624 L -34.5,15 L -34.5237,15.376 L -34.5942,15.7461 L -34.7107,16.1044 L -34.8711,16.4453
 L -35.0729,16.7634 L -35.3131,17.0536 L -35.5877,17.3115 L -35.8925,17.533 L -36.2227,17.7145 L -36.5729,17.8532
 L -36.9379,17.9469 L -37.3116,17.9941 z
M 37.3116,17.9941 L 36.9379,17.9469 L 36.5729,17.8532 L 36.2227,17.7145 L 35.8925,17.533 L 35.5877,17.3115
 L 35.3131,17.0536 L 35.0729,16.7634 L 34.8711,16.4453 L 34.7107,16.1044 L 34.5942,15.7461 L 34.5237,15.376
 L 34.5,15 L 34.5237,14.624 L 34.5942,14.2539 L 34.7107,13.8956 L 34.8711,13.5547 L 35.0729,13.2366
 L 35.3131,12.9464 L 35.5877,12.6884 L 35.8925,12.467 L 36.2227,12.2855 L 36.5729,12.1468 L 36.9379,12.0531
 L 37.3116,12.0059 L 37.6884,12.0059 L 38.0621,12.0531 L 38.427,12.1468 L 38.7773,12.2855 L 39.1075,12.467
 L 39.4123,12.6884 L 39.6869,12.9464 L 39.927,13.2366 L 40.1289,13.5547 L 40.2893,13.8956 L 40.4057,14.2539
 L 40.4763,14.624 L 40.5,15 L 40.4763,15.376 L 40.4057,15.7461 L 40.2893,16.1044 L 40.1289,16.4453
 L 39.927,16.7634 L 39.6869,17.0536 L 39.4123,17.3115 L 39.1075,17.533 L 38.7773,17.7145 L 38.427,17.8532
 L 38.0621,17.9469 L 37.6884,17.9941 z
" stroke="black" fill="lightgray" stroke-width="0.5"/>
</svg>
