<?xml version="1.0" standalone="no"?>
<!DOCTYPE svg PUBLIC "-//W3C//DTD SVG 1.1//EN" "http://www.w3.org/Graphics/SVG/1.1/DTD/svg11.dtd">
<svg width="74mm" height="74mm" viewBox="-37 -37 74 74" xmlns="http://www.w3.org/2000/svg" version="1.1">
<title>OpenSCAD Model</title>
<path d="
M 32.9369,36.9114 L 33.5451,36.7553 L 34.1289,36.5241 L 34.6791,36.2216 L 35.1871,35.8526 L 35.6448,35.4227
 L 36.0451,34.9389 L 36.3815,34.4088 L 36.6489,33.8406 L 36.8429,33.2434 L 36.9606,32.6267 L 37,32
 L 37,-32 L 36.9606,-32.6267 L 36.8429,-33.2434 L 36.6489,-33.8406 L 36.3815,-34.4088 L 36.0451,-34.9389
 L 35.6448,-35.4227 L 35.1871,-35.8526 L 34.6791,-36.2216 L 34.1289,-36.5241 L 33.5451,-36.7553 L 32.9369,-36.9114
 L 32.3139,-36.9901 L -32.3139,-36.9901 L -32.9369,-36.9114 L -33.5451,-36.7553 L -34.1289,-36.5241 L -34.6791,-36.2216
 L -35.1871,-35.8526 L -35.6448,-35.4227 L -36.0451,-34.9389 L -36.3815,-34.4088 L -36.6489,-33.8406 L -36.8429,-33.2434
 L -36.9606,-32.6267 L -37,-32 L -37,32 L -36.9606,32.6267 L -36.8429,33.2434 L -36.6489,33.8406
 L -36.3815,34.4088 L -36.0451,34.9389 L -35.6448,35.4227 L -35.1871,35.8526 L -34.6791,36.2216 L -34.1289,36.5241
 L -33.5451,36.7553 L -32.9369,36.9114 L -32.3139,36.9901 L 32.3139,36.9901 z
M -30.1884,-27.0059 L -30.5621,-27.0531 L -30.927,-27.1468 L -31.2773,-27.2855 L -31.6075,-27.467 L -31.9123,-27.6884
 L -32.1869,-27.9464 L -32.427,-28.2366 L -32.6289,-28.5547 L -32.7893,-28.8956 L -32.9057,-29.2539 L -32.9763,-29.624
 L -33,-30 L -32.9763,-30.376 L -32.9057,-30.7461 L -32.7893,-31.1044 L -32.6289,-31.4453 L -32.427,-31.7634
 L -32.1869,-32.0536 L -31.9123,-32.3115 L -31.6075,-32.533 L -31.2773,-32.7145 L -30.927,-32.8532 L -30.5621,-32.9469
 L -30.1884,-32.9941 L -29.8116,-32.9941 L -29.4379,-32.9469 L -29.0729,-32.8532 L -28.7227,-32.7145 L -28.3925,-32.533
 L -28.0877,-32.3115 L -27.8131,-32.0536 L -27.5729,-31.7634 L -27.3711,-31.4453 L -27.2107,-31.1044 L -27.0942,-30.7461
 L -27.0237,-30.376 L -27,-30 L -27.0237,-29.624 L -27.0942,-29.2539 L -27.2107,-28.8956 L -27.3711,-28.5547
 L -27.5729,-28.2366 L -27.8131,-27.9464 L -28.0877,-27.6884 L -28.3925,-27.467 L -28.7227,-27.2855 L -29.0729,-27.1468
 L -29.4379,-27.0531 L -29.8116,-27.0059 z
M 29.8116,-27.0059 L 29.4379,-27.0531 L 29.0729,-27.1468 L 28.7227,-27.2855 L 28.3925,-27.467 L 28.0877,-27.6884
 L 27.8131,-27.9464 L 27.5729,-28.2366 L 27.3711,-28.5547 L 27.2107,-28.8956 L 27.0942,-29.2539 L 27.0237,-29.624
 L 27,-30 L 27.0237,-30.376 L 27.0942,-30.7461 L 27.2107,-31.1044 L 27.3711,-31.4453 L 27.5729,-31.7634
 L 27.8131,-32.0536 L 28.0877,-32.3115 L 28.3925,-32.533 L 28.7227,-32.7145 L 29.0729,-32.8532 L 29.4379,-32.9469
 L 29.8116,-32.9941 L 30.1884,-32.9941 L 30.5621,-32.9469 L 30.927,-32.8532 L 31.2773,-32.7145 L 31.6075,-32.533
 L 31.9123,-32.3115 L 32.1869,-32.0536 L 32.427,-31.7634 L 32.6289,-31.4453 L 32.7893,-31.1044 L 32.9057,-30.7461
 L 32.9763,-30.376 L 33,-30 L 32.9763,-29.624 L 32.9057,-29.2539 L 32.7893,-28.8956 L 32.6289,-28.5547
 L 32.427,-28.2366 L 32.1869,-27.9464 L 31.9123,-27.6884 L 31.6075,-27.467 L 31.2773,-27.2855 L 30.927,-27.1468
 L 30.5621,-27.0531 L 30.1884,-27.0059 z
M -1.75813,27.9447 L -5.24667,27.504 L -8.65247,26.6296 L -11.9218,25.3351 L -15.0031,23.6412 L -17.8479,21.5744
 L -20.4111,19.1673 L -22.6525,16.458 L -24.5366,13.4891 L -26.0337,10.3075 L -27.1203,6.9633 L -27.7792,3.50932
 L -28,-0 L -27.7792,-3.50932 L -27.1203,-6.9633 L -26.0337,-10.3075 L -24.5366,-13.4891 L -22.6525,-16.458
 L -20.4111,-19.1673 L -17.8479,-21.5744 L -15.0031,-23.6412 L -11.9218,-25.3351 L -8.65247,-26.6296 L -5.24667,-27.504
 L -1.75813,-27.9447 L 1.75813,-27.9447 L 5.24667,-27.504 L 8.65247,-26.6296 L 11.9218,-25.3351 L 15.0031,-23.6412
 L 17.8479,-21.5744 L 20.4111,-19.1673 L 22.6525,-16.458 L 24.5366,-13.4891 L 26.0337,-10.3075 L 27.1203,-6.9633
 L 27.7792,-3.50932 L 28,-0 L 27.7792,3.50932 L 27.1203,6.9633 L 26.0337,10.3075 L 24.5366,13.4891
 L 22.6525,16.458 L 20.4111,19.1673 L 17.8479,21.5744 L 15.0031,23.6412 L 11.9218,25.3351 L 8.65247,26.6296
 L 5.24667,27.504 L 1.75813,27.9447 z
M 29.8116,32.9941 L 29.4379,32.9469 L 29.0729,32.8532 L 28.7227,32.7145 L 28.3925,32.533 L 28.0877,32.3115
 L 27.8131,32.0536 L 27.5729,31.7634 L 27.3711,31.4453 L 27.2107,31.1044 L 27.0942,30.7461 L 27.0237,30.376
 L 27,30 L 27.0237,29.624 L 27.0942,29.2539 L 27.2107,28.8956 L 27.3711,28.5547 L 27.5729,28.2366
 L 27.8131,27.9464 L 28.0877,27.6884 L 28.3925,27.467 L 28.7227,27.2855 L 29.0729,27.1468 L 29.4379,27.0531
 L 29.8116,27.0059 L 30.1884,27.0059 L 30.5621,27.0531 L 30.927,27.1468 L 31.2773,27.2855 L 31.6075,27.467
 L 31.9123,27.6884 L 32.1869,27.9464 L 32.427,28.2366 L 32.6289,28.5547 L 32.7893,28.8956 L 32.9057,29.2539
 L 32.9763,29.624 L 33,30 L 32.9763,30.376 L 32.9057,30.7461 L 32.7893,31.1044 L 32.6289,31.4453
 L 32.427,31.7634 L 32.1869,32.0536 L 31.9123,32.3115 L 31.6075,32.533 L 31.2773,32.7145 L 30.927,32.8532
 L 30.5621,32.9469 L 30.1884,32.9941 z
M -30.1884,32.9941 L -30.5621,32.9469 L -30.927,32.8532 L -31.2773,32.7145 L -31.6075,32.533 L -31.9123,32.3115
 L -32.1869,32.0536 L -32.427,31.7634 L -32.6289,31.4453 L -32.7893,31.1044 L -32.9057,30.7461 L -32.9763,30.376
 L -33,30 L -32.9763,29.624 L -32.9057,29.2539 L -32.7893,28.8956 L -32.6289,28.5547 L -32.427,28.2366
 L -32.1869,27.9464 L -31.9123,27.6884 L -31.6075,27.467 L -31.2773,27.2855 L -30.927,27.1468 L -30.5621,27.0531
 L -30.1884,27.0059 L -29.8116,27.0059 L -29.4379,27.0531 L -29.0729,27.1468 L -28.7227,27.2855 L -28.3925,27.467
 L -28.0877,27.6884 L -27.8131,27.9464 L -27.5729,28.2366 L -27.3711,28.5547 L -27.2107,28.8956 L -27.0942,29.2539
 L -27.0237,29.624 L -27,30 L -27.0237,30.376 L -27.0942,30.7461 L -27.2107,31.1044 L -27.3711,31.4453
 L -27.5729,31.7634 L -27.8131,32.0536 L -28.0877,32.3115 L -28.3925,32.533 L -28.7227,32.7145 L -29.0729,32.8532
 L -29.4379,32.9469 L -29.8116,32.9941 z
" stroke="black" fill="lightgray" stroke-width="0.5"/>
</svg>
