<?xml version="1.0" standalone="no"?>
<!DOCTYPE svg PUBLIC "-//W3C//DTD SVG 1.1//EN" "http://www.w3.org/Graphics/SVG/1.1/DTD/svg11.dtd">
<svg width="30mm" height="14mm" viewBox="-15 -7 30 14" xmlns="http://www.w3.org/2000/svg" version="1.1">
<title>OpenSCAD Model</title>
<path d="
M 10.4369,6.91142 L 11.0451,6.75528 L 11.6289,6.52412 L 12.1791,6.22163 L 12.6871,5.85255 L 13.1448,5.42273
 L 13.5451,4.93892 L 13.8815,4.40877 L 14.1489,3.84062 L 14.3429,3.24344 L 14.4606,2.62666 L 14.5,2
 L 14.5,-2 L 14.4606,-2.62666 L 14.3429,-3.24344 L 14.1489,-3.84062 L 13.8815,-4.40877 L 13.5451,-4.93892
 L 13.1448,-5.42273 L 12.6871,-5.85255 L 12.1791,-6.22163 L 11.6289,-6.52412 L 11.0451,-6.75528 L 10.4369,-6.91142
 L 9.81395,-6.99013 L -9.81395,-6.99013 L -10.4369,-6.91142 L -11.0451,-6.75528 L -11.6289,-6.52412 L -12.1791,-6.22163
 L -12.6871,-5.85255 L -13.1448,-5.42273 L -13.5451,-4.93892 L -13.8815,-4.40877 L -14.1489,-3.84062 L -14.3429,-3.24344
 L -14.4606,-2.62666 L -14.5,-2 L -14.5,2 L -14.4606,2.62666 L -14.3429,3.24344 L -14.1489,3.84062
 L -13.8815,4.40877 L -13.5451,4.93892 L -13.1448,5.42273 L -12.6871,5.85255 L -12.1791,6.22163 L -11.6289,6.52412
 L -11.0451,6.75528 L -10.4369,6.91142 L -9.81395,6.99013 L 9.81395,6.99013 z
M -6.75116,3.9921 L -7.24951,3.92914 L -7.73605,3.80421 L -8.20311,3.61929 L -8.6433,3.3773 L -9.04968,3.08205
 L -9.41586,2.73817 L -9.73605,2.35114 L -10.0052,1.927 L -10.2191,1.47249 L -10.3743,0.994751 L -10.4684,0.501328
 L -10.5,-0 L -10.4684,-0.501328 L -10.3743,-0.994751 L -10.2191,-1.47249 L -10.0052,-1.927 L -9.73605,-2.35114
 L -9.41586,-2.73817 L -9.04968,-3.08205 L -8.6433,-3.3773 L -8.20311,-3.61929 L -7.73605,-3.80421 L -7.24951,-3.92914
 L -6.75116,-3.9921 L -6.24883,-3.9921 L -5.75047,-3.92914 L -5.26393,-3.80421 L -4.79688,-3.61929 L -4.35669,-3.3773
 L -3.9503,-3.08205 L -3.58412,-2.73817 L -3.26393,-2.35114 L -2.99477,-1.927 L -2.78088,-1.47249 L -2.62566,-0.994751
 L -2.53154,-0.501328 L -2.5,-0 L -2.53154,0.501328 L -2.62566,0.994751 L -2.78088,1.47249 L -2.99477,1.927
 L -3.26393,2.35114 L -3.58412,2.73817 L -3.9503,3.08205 L -4.35669,3.3773 L -4.79688,3.61929 L -5.26393,3.80421
 L -5.75047,3.92914 L -6.24883,3.9921 z
M 6.24883,3.9921 L 5.75047,3.92914 L 5.26393,3.80421 L 4.79688,3.61929 L 4.35669,3.3773 L 3.9503,3.08205
 L 3.58412,2.73817 L 3.26393,2.35114 L 2.99477,1.927 L 2.78088,1.47249 L 2.62566,0.994751 L 2.53154,0.501328
 L 2.5,-0 L 2.53154,-0.501328 L 2.62566,-0.994751 L 2.78088,-1.47249 L 2.99477,-1.927 L 3.26393,-2.35114
 L 3.58412,-2.73817 L 3.9503,-3.08205 L 4.35669,-3.3773 L 4.79688,-3.61929 L 5.26393,-3.80421 L 5.75047,-3.92914
 L 6.24883,-3.9921 L 6.75116,-3.9921 L 7.24951,-3.92914 L 7.73605,-3.80421 L 8.20311,-3.61929 L 8.6433,-3.3773
 L 9.04968,-3.08205 L 9.41586,-2.73817 L 9.73605,-2.35114 L 10.0052,-1.927 L 10.2191,-1.47249 L 10.3743,-0.994751
 L 10.4684,-0.501328 L 10.5,-0 L 10.4684,0.501328 L 10.3743,0.994751 L 10.2191,1.47249 L 10.0052,1.927
 L 9.73605,2.35114 L 9.41586,2.73817 L 9.04968,3.08205 L 8.6433,3.3773 L 8.20311,3.61929 L 7.73605,3.80421
 L 7.24951,3.92914 L 6.75116,3.9921 z
" stroke="black" fill="lightgray" stroke-width="0.5"/>
</svg>
