  0
SECTION
  2
BLOCKS
  0
ENDSEC
  0
SECTION
  2
ENTITIES
  0
LINE
  8
0
 10
17.9369
 20
24.5886
 11
18.5451
 21
24.7447
  0
LINE
  8
0
 10
18.5451
 20
24.7447
 11
19.1289
 21
24.9759
  0
LINE
  8
0
 10
19.1289
 20
24.9759
 11
19.6791
 21
25.2784
  0
LINE
  8
0
 10
19.6791
 20
25.2784
 11
20.1871
 21
25.6474
  0
LINE
  8
0
 10
20.1871
 20
25.6474
 11
20.6448
 21
26.0773
  0
LINE
  8
0
 10
20.6448
 20
26.0773
 11
21.0451
 21
26.5611
  0
LINE
  8
0
 10
21.0451
 20
26.5611
 11
21.3815
 21
27.0912
  0
LINE
  8
0
 10
21.3815
 20
27.0912
 11
21.6489
 21
27.6594
  0
LINE
  8
0
 10
21.6489
 20
27.6594
 11
21.8429
 21
28.2566
  0
LINE
  8
0
 10
21.8429
 20
28.2566
 11
21.9606
 21
28.8733
  0
LINE
  8
0
 10
21.9606
 20
28.8733
 11
22
 21
29.5
  0
LINE
  8
0
 10
22
 20
29.5
 11
22
 21
48.5
  0
LINE
  8
0
 10
22
 20
48.5
 11
21.9606
 21
49.1267
  0
LINE
  8
0
 10
21.9606
 20
49.1267
 11
21.8429
 21
49.7434
  0
LINE
  8
0
 10
21.8429
 20
49.7434
 11
21.6489
 21
50.3406
  0
LINE
  8
0
 10
21.6489
 20
50.3406
 11
21.3815
 21
50.9088
  0
LINE
  8
0
 10
21.3815
 20
50.9088
 11
21.0451
 21
51.4389
  0
LINE
  8
0
 10
21.0451
 20
51.4389
 11
20.6448
 21
51.9227
  0
LINE
  8
0
 10
20.6448
 20
51.9227
 11
20.1871
 21
52.3526
  0
LINE
  8
0
 10
20.1871
 20
52.3526
 11
19.6791
 21
52.7216
  0
LINE
  8
0
 10
19.6791
 20
52.7216
 11
19.1289
 21
53.0241
  0
LINE
  8
0
 10
19.1289
 20
53.0241
 11
18.5451
 21
53.2553
  0
LINE
  8
0
 10
18.5451
 20
53.2553
 11
17.9369
 21
53.4114
  0
LINE
  8
0
 10
17.9369
 20
53.4114
 11
17.3139
 21
53.4901
  0
LINE
  8
0
 10
17.3139
 20
53.4901
 11
-17.3139
 21
53.4901
  0
LINE
  8
0
 10
-17.3139
 20
53.4901
 11
-17.9369
 21
53.4114
  0
LINE
  8
0
 10
-17.9369
 20
53.4114
 11
-18.5451
 21
53.2553
  0
LINE
  8
0
 10
-18.5451
 20
53.2553
 11
-19.1289
 21
53.0241
  0
LINE
  8
0
 10
-19.1289
 20
53.0241
 11
-19.6791
 21
52.7216
  0
LINE
  8
0
 10
-19.6791
 20
52.7216
 11
-20.1871
 21
52.3526
  0
LINE
  8
0
 10
-20.1871
 20
52.3526
 11
-20.6448
 21
51.9227
  0
LINE
  8
0
 10
-20.6448
 20
51.9227
 11
-21.0451
 21
51.4389
  0
LINE
  8
0
 10
-21.0451
 20
51.4389
 11
-21.3815
 21
50.9088
  0
LINE
  8
0
 10
-21.3815
 20
50.9088
 11
-21.6489
 21
50.3406
  0
LINE
  8
0
 10
-21.6489
 20
50.3406
 11
-21.8429
 21
49.7434
  0
LINE
  8
0
 10
-21.8429
 20
49.7434
 11
-21.9606
 21
49.1267
  0
LINE
  8
0
 10
-21.9606
 20
49.1267
 11
-22
 21
48.5
  0
LINE
  8
0
 10
-22
 20
48.5
 11
-22
 21
29.5
  0
LINE
  8
0
 10
-22
 20
29.5
 11
-21.9606
 21
28.8733
  0
LINE
  8
0
 10
-21.9606
 20
28.8733
 11
-21.8429
 21
28.2566
  0
LINE
  8
0
 10
-21.8429
 20
28.2566
 11
-21.6489
 21
27.6594
  0
LINE
  8
0
 10
-21.6489
 20
27.6594
 11
-21.3815
 21
27.0912
  0
LINE
  8
0
 10
-21.3815
 20
27.0912
 11
-21.0451
 21
26.5611
  0
LINE
  8
0
 10
-21.0451
 20
26.5611
 11
-20.6448
 21
26.0773
  0
LINE
  8
0
 10
-20.6448
 20
26.0773
 11
-20.1871
 21
25.6474
  0
LINE
  8
0
 10
-20.1871
 20
25.6474
 11
-19.6791
 21
25.2784
  0
LINE
  8
0
 10
-19.6791
 20
25.2784
 11
-19.1289
 21
24.9759
  0
LINE
  8
0
 10
-19.1289
 20
24.9759
 11
-18.5451
 21
24.7447
  0
LINE
  8
0
 10
-18.5451
 20
24.7447
 11
-17.9369
 21
24.5886
  0
LINE
  8
0
 10
-17.9369
 20
24.5886
 11
-17.3139
 21
24.5099
  0
LINE
  8
0
 10
-17.3139
 20
24.5099
 11
17.3139
 21
24.5099
  0
LINE
  8
0
 10
17.3139
 20
24.5099
 11
17.9369
 21
24.5886
  0
LINE
  8
0
 10
-15.1884
 20
43.5059
 11
-15.5621
 21
43.5531
  0
LINE
  8
0
 10
-15.5621
 20
43.5531
 11
-15.927
 21
43.6468
  0
LINE
  8
0
 10
-15.927
 20
43.6468
 11
-16.2773
 21
43.7855
  0
LINE
  8
0
 10
-16.2773
 20
43.7855
 11
-16.6075
 21
43.967
  0
LINE
  8
0
 10
-16.6075
 20
43.967
 11
-16.9123
 21
44.1884
  0
LINE
  8
0
 10
-16.9123
 20
44.1884
 11
-17.1869
 21
44.4464
  0
LINE
  8
0
 10
-17.1869
 20
44.4464
 11
-17.427
 21
44.7366
  0
LINE
  8
0
 10
-17.427
 20
44.7366
 11
-17.6289
 21
45.0547
  0
LINE
  8
0
 10
-17.6289
 20
45.0547
 11
-17.7893
 21
45.3956
  0
LINE
  8
0
 10
-17.7893
 20
45.3956
 11
-17.9057
 21
45.7539
  0
LINE
  8
0
 10
-17.9057
 20
45.7539
 11
-17.9763
 21
46.124
  0
LINE
  8
0
 10
-17.9763
 20
46.124
 11
-18
 21
46.5
  0
LINE
  8
0
 10
-18
 20
46.5
 11
-17.9763
 21
46.876
  0
LINE
  8
0
 10
-17.9763
 20
46.876
 11
-17.9057
 21
47.2461
  0
LINE
  8
0
 10
-17.9057
 20
47.2461
 11
-17.7893
 21
47.6044
  0
LINE
  8
0
 10
-17.7893
 20
47.6044
 11
-17.6289
 21
47.9453
  0
LINE
  8
0
 10
-17.6289
 20
47.9453
 11
-17.427
 21
48.2634
  0
LINE
  8
0
 10
-17.427
 20
48.2634
 11
-17.1869
 21
48.5536
  0
LINE
  8
0
 10
-17.1869
 20
48.5536
 11
-16.9123
 21
48.8115
  0
LINE
  8
0
 10
-16.9123
 20
48.8115
 11
-16.6075
 21
49.033
  0
LINE
  8
0
 10
-16.6075
 20
49.033
 11
-16.2773
 21
49.2145
  0
LINE
  8
0
 10
-16.2773
 20
49.2145
 11
-15.927
 21
49.3532
  0
LINE
  8
0
 10
-15.927
 20
49.3532
 11
-15.5621
 21
49.4469
  0
LINE
  8
0
 10
-15.5621
 20
49.4469
 11
-15.1884
 21
49.4941
  0
LINE
  8
0
 10
-15.1884
 20
49.4941
 11
-14.8116
 21
49.4941
  0
LINE
  8
0
 10
-14.8116
 20
49.4941
 11
-14.4379
 21
49.4469
  0
LINE
  8
0
 10
-14.4379
 20
49.4469
 11
-14.0729
 21
49.3532
  0
LINE
  8
0
 10
-14.0729
 20
49.3532
 11
-13.7227
 21
49.2145
  0
LINE
  8
0
 10
-13.7227
 20
49.2145
 11
-13.3925
 21
49.033
  0
LINE
  8
0
 10
-13.3925
 20
49.033
 11
-13.0877
 21
48.8115
  0
LINE
  8
0
 10
-13.0877
 20
48.8115
 11
-12.8131
 21
48.5536
  0
LINE
  8
0
 10
-12.8131
 20
48.5536
 11
-12.5729
 21
48.2634
  0
LINE
  8
0
 10
-12.5729
 20
48.2634
 11
-12.3711
 21
47.9453
  0
LINE
  8
0
 10
-12.3711
 20
47.9453
 11
-12.2107
 21
47.6044
  0
LINE
  8
0
 10
-12.2107
 20
47.6044
 11
-12.0942
 21
47.2461
  0
LINE
  8
0
 10
-12.0942
 20
47.2461
 11
-12.0237
 21
46.876
  0
LINE
  8
0
 10
-12.0237
 20
46.876
 11
-12
 21
46.5
  0
LINE
  8
0
 10
-12
 20
46.5
 11
-12.0237
 21
46.124
  0
LINE
  8
0
 10
-12.0237
 20
46.124
 11
-12.0942
 21
45.7539
  0
LINE
  8
0
 10
-12.0942
 20
45.7539
 11
-12.2107
 21
45.3956
  0
LINE
  8
0
 10
-12.2107
 20
45.3956
 11
-12.3711
 21
45.0547
  0
LINE
  8
0
 10
-12.3711
 20
45.0547
 11
-12.5729
 21
44.7366
  0
LINE
  8
0
 10
-12.5729
 20
44.7366
 11
-12.8131
 21
44.4464
  0
LINE
  8
0
 10
-12.8131
 20
44.4464
 11
-13.0877
 21
44.1884
  0
LINE
  8
0
 10
-13.0877
 20
44.1884
 11
-13.3925
 21
43.967
  0
LINE
  8
0
 10
-13.3925
 20
43.967
 11
-13.7227
 21
43.7855
  0
LINE
  8
0
 10
-13.7227
 20
43.7855
 11
-14.0729
 21
43.6468
  0
LINE
  8
0
 10
-14.0729
 20
43.6468
 11
-14.4379
 21
43.5531
  0
LINE
  8
0
 10
-14.4379
 20
43.5531
 11
-14.8116
 21
43.5059
  0
LINE
  8
0
 10
-14.8116
 20
43.5059
 11
-15.1884
 21
43.5059
  0
LINE
  8
0
 10
-0.18837
 20
43.5059
 11
-0.562134
 21
43.5531
  0
LINE
  8
0
 10
-0.562134
 20
43.5531
 11
-0.927048
 21
43.6468
  0
LINE
  8
0
 10
-0.927048
 20
43.6468
 11
-1.27733
 21
43.7855
  0
LINE
  8
0
 10
-1.27733
 20
43.7855
 11
-1.60747
 21
43.967
  0
LINE
  8
0
 10
-1.60747
 20
43.967
 11
-1.91226
 21
44.1884
  0
LINE
  8
0
 10
-1.91226
 20
44.1884
 11
-2.1869
 21
44.4464
  0
LINE
  8
0
 10
-2.1869
 20
44.4464
 11
-2.42705
 21
44.7366
  0
LINE
  8
0
 10
-2.42705
 20
44.7366
 11
-2.62891
 21
45.0547
  0
LINE
  8
0
 10
-2.62891
 20
45.0547
 11
-2.78932
 21
45.3956
  0
LINE
  8
0
 10
-2.78932
 20
45.3956
 11
-2.90575
 21
45.7539
  0
LINE
  8
0
 10
-2.90575
 20
45.7539
 11
-2.97633
 21
46.124
  0
LINE
  8
0
 10
-2.97633
 20
46.124
 11
-3
 21
46.5
  0
LINE
  8
0
 10
-3
 20
46.5
 11
-2.97633
 21
46.876
  0
LINE
  8
0
 10
-2.97633
 20
46.876
 11
-2.90575
 21
47.2461
  0
LINE
  8
0
 10
-2.90575
 20
47.2461
 11
-2.78932
 21
47.6044
  0
LINE
  8
0
 10
-2.78932
 20
47.6044
 11
-2.62891
 21
47.9453
  0
LINE
  8
0
 10
-2.62891
 20
47.9453
 11
-2.42705
 21
48.2634
  0
LINE
  8
0
 10
-2.42705
 20
48.2634
 11
-2.1869
 21
48.5536
  0
LINE
  8
0
 10
-2.1869
 20
48.5536
 11
-1.91226
 21
48.8115
  0
LINE
  8
0
 10
-1.91226
 20
48.8115
 11
-1.60747
 21
49.033
  0
LINE
  8
0
 10
-1.60747
 20
49.033
 11
-1.27733
 21
49.2145
  0
LINE
  8
0
 10
-1.27733
 20
49.2145
 11
-0.927048
 21
49.3532
  0
LINE
  8
0
 10
-0.927048
 20
49.3532
 11
-0.562134
 21
49.4469
  0
LINE
  8
0
 10
-0.562134
 20
49.4469
 11
-0.18837
 21
49.4941
  0
LINE
  8
0
 10
-0.18837
 20
49.4941
 11
0.18837
 21
49.4941
  0
LINE
  8
0
 10
0.18837
 20
49.4941
 11
0.562134
 21
49.4469
  0
LINE
  8
0
 10
0.562134
 20
49.4469
 11
0.927048
 21
49.3532
  0
LINE
  8
0
 10
0.927048
 20
49.3532
 11
1.27733
 21
49.2145
  0
LINE
  8
0
 10
1.27733
 20
49.2145
 11
1.60747
 21
49.033
  0
LINE
  8
0
 10
1.60747
 20
49.033
 11
1.91226
 21
48.8115
  0
LINE
  8
0
 10
1.91226
 20
48.8115
 11
2.1869
 21
48.5536
  0
LINE
  8
0
 10
2.1869
 20
48.5536
 11
2.42705
 21
48.2634
  0
LINE
  8
0
 10
2.42705
 20
48.2634
 11
2.62891
 21
47.9453
  0
LINE
  8
0
 10
2.62891
 20
47.9453
 11
2.78932
 21
47.6044
  0
LINE
  8
0
 10
2.78932
 20
47.6044
 11
2.90575
 21
47.2461
  0
LINE
  8
0
 10
2.90575
 20
47.2461
 11
2.97633
 21
46.876
  0
LINE
  8
0
 10
2.97633
 20
46.876
 11
3
 21
46.5
  0
LINE
  8
0
 10
3
 20
46.5
 11
2.97633
 21
46.124
  0
LINE
  8
0
 10
2.97633
 20
46.124
 11
2.90575
 21
45.7539
  0
LINE
  8
0
 10
2.90575
 20
45.7539
 11
2.78932
 21
45.3956
  0
LINE
  8
0
 10
2.78932
 20
45.3956
 11
2.62891
 21
45.0547
  0
LINE
  8
0
 10
2.62891
 20
45.0547
 11
2.42705
 21
44.7366
  0
LINE
  8
0
 10
2.42705
 20
44.7366
 11
2.1869
 21
44.4464
  0
LINE
  8
0
 10
2.1869
 20
44.4464
 11
1.91226
 21
44.1884
  0
LINE
  8
0
 10
1.91226
 20
44.1884
 11
1.60747
 21
43.967
  0
LINE
  8
0
 10
1.60747
 20
43.967
 11
1.27733
 21
43.7855
  0
LINE
  8
0
 10
1.27733
 20
43.7855
 11
0.927048
 21
43.6468
  0
LINE
  8
0
 10
0.927048
 20
43.6468
 11
0.562134
 21
43.5531
  0
LINE
  8
0
 10
0.562134
 20
43.5531
 11
0.18837
 21
43.5059
  0
LINE
  8
0
 10
0.18837
 20
43.5059
 11
-0.18837
 21
43.5059
  0
LINE
  8
0
 10
14.8116
 20
43.5059
 11
14.4379
 21
43.5531
  0
LINE
  8
0
 10
14.4379
 20
43.5531
 11
14.0729
 21
43.6468
  0
LINE
  8
0
 10
14.0729
 20
43.6468
 11
13.7227
 21
43.7855
  0
LINE
  8
0
 10
13.7227
 20
43.7855
 11
13.3925
 21
43.967
  0
LINE
  8
0
 10
13.3925
 20
43.967
 11
13.0877
 21
44.1884
  0
LINE
  8
0
 10
13.0877
 20
44.1884
 11
12.8131
 21
44.4464
  0
LINE
  8
0
 10
12.8131
 20
44.4464
 11
12.5729
 21
44.7366
  0
LINE
  8
0
 10
12.5729
 20
44.7366
 11
12.3711
 21
45.0547
  0
LINE
  8
0
 10
12.3711
 20
45.0547
 11
12.2107
 21
45.3956
  0
LINE
  8
0
 10
12.2107
 20
45.3956
 11
12.0942
 21
45.7539
  0
LINE
  8
0
 10
12.0942
 20
45.7539
 11
12.0237
 21
46.124
  0
LINE
  8
0
 10
12.0237
 20
46.124
 11
12
 21
46.5
  0
LINE
  8
0
 10
12
 20
46.5
 11
12.0237
 21
46.876
  0
LINE
  8
0
 10
12.0237
 20
46.876
 11
12.0942
 21
47.2461
  0
LINE
  8
0
 10
12.0942
 20
47.2461
 11
12.2107
 21
47.6044
  0
LINE
  8
0
 10
12.2107
 20
47.6044
 11
12.3711
 21
47.9453
  0
LINE
  8
0
 10
12.3711
 20
47.9453
 11
12.5729
 21
48.2634
  0
LINE
  8
0
 10
12.5729
 20
48.2634
 11
12.8131
 21
48.5536
  0
LINE
  8
0
 10
12.8131
 20
48.5536
 11
13.0877
 21
48.8115
  0
LINE
  8
0
 10
13.0877
 20
48.8115
 11
13.3925
 21
49.033
  0
LINE
  8
0
 10
13.3925
 20
49.033
 11
13.7227
 21
49.2145
  0
LINE
  8
0
 10
13.7227
 20
49.2145
 11
14.0729
 21
49.3532
  0
LINE
  8
0
 10
14.0729
 20
49.3532
 11
14.4379
 21
49.4469
  0
LINE
  8
0
 10
14.4379
 20
49.4469
 11
14.8116
 21
49.4941
  0
LINE
  8
0
 10
14.8116
 20
49.4941
 11
15.1884
 21
49.4941
  0
LINE
  8
0
 10
15.1884
 20
49.4941
 11
15.5621
 21
49.4469
  0
LINE
  8
0
 10
15.5621
 20
49.4469
 11
15.927
 21
49.3532
  0
LINE
  8
0
 10
15.927
 20
49.3532
 11
16.2773
 21
49.2145
  0
LINE
  8
0
 10
16.2773
 20
49.2145
 11
16.6075
 21
49.033
  0
LINE
  8
0
 10
16.6075
 20
49.033
 11
16.9123
 21
48.8115
  0
LINE
  8
0
 10
16.9123
 20
48.8115
 11
17.1869
 21
48.5536
  0
LINE
  8
0
 10
17.1869
 20
48.5536
 11
17.427
 21
48.2634
  0
LINE
  8
0
 10
17.427
 20
48.2634
 11
17.6289
 21
47.9453
  0
LINE
  8
0
 10
17.6289
 20
47.9453
 11
17.7893
 21
47.6044
  0
LINE
  8
0
 10
17.7893
 20
47.6044
 11
17.9057
 21
47.2461
  0
LINE
  8
0
 10
17.9057
 20
47.2461
 11
17.9763
 21
46.876
  0
LINE
  8
0
 10
17.9763
 20
46.876
 11
18
 21
46.5
  0
LINE
  8
0
 10
18
 20
46.5
 11
17.9763
 21
46.124
  0
LINE
  8
0
 10
17.9763
 20
46.124
 11
17.9057
 21
45.7539
  0
LINE
  8
0
 10
17.9057
 20
45.7539
 11
17.7893
 21
45.3956
  0
LINE
  8
0
 10
17.7893
 20
45.3956
 11
17.6289
 21
45.0547
  0
LINE
  8
0
 10
17.6289
 20
45.0547
 11
17.427
 21
44.7366
  0
LINE
  8
0
 10
17.427
 20
44.7366
 11
17.1869
 21
44.4464
  0
LINE
  8
0
 10
17.1869
 20
44.4464
 11
16.9123
 21
44.1884
  0
LINE
  8
0
 10
16.9123
 20
44.1884
 11
16.6075
 21
43.967
  0
LINE
  8
0
 10
16.6075
 20
43.967
 11
16.2773
 21
43.7855
  0
LINE
  8
0
 10
16.2773
 20
43.7855
 11
15.927
 21
43.6468
  0
LINE
  8
0
 10
15.927
 20
43.6468
 11
15.5621
 21
43.5531
  0
LINE
  8
0
 10
15.5621
 20
43.5531
 11
15.1884
 21
43.5059
  0
LINE
  8
0
 10
15.1884
 20
43.5059
 11
14.8116
 21
43.5059
  0
LINE
  8
0
 10
-7.59418
 20
45.0029
 11
-7.78107
 21
45.0266
  0
LINE
  8
0
 10
-7.78107
 20
45.0266
 11
-7.96352
 21
45.0734
  0
LINE
  8
0
 10
-7.96352
 20
45.0734
 11
-8.13866
 21
45.1427
  0
LINE
  8
0
 10
-8.13866
 20
45.1427
 11
-8.30373
 21
45.2335
  0
LINE
  8
0
 10
-8.30373
 20
45.2335
 11
-8.45613
 21
45.3442
  0
LINE
  8
0
 10
-8.45613
 20
45.3442
 11
-8.59344
 21
45.4732
  0
LINE
  8
0
 10
-8.59344
 20
45.4732
 11
-8.71352
 21
45.6183
  0
LINE
  8
0
 10
-8.71352
 20
45.6183
 11
-8.81445
 21
45.7774
  0
LINE
  8
0
 10
-8.81445
 20
45.7774
 11
-8.89465
 21
45.9478
  0
LINE
  8
0
 10
-8.89465
 20
45.9478
 11
-8.95287
 21
46.127
  0
LINE
  8
0
 10
-8.95287
 20
46.127
 11
-8.98816
 21
46.312
  0
LINE
  8
0
 10
-8.98816
 20
46.312
 11
-9
 21
46.5
  0
LINE
  8
0
 10
-9
 20
46.5
 11
-8.98816
 21
46.688
  0
LINE
  8
0
 10
-8.98816
 20
46.688
 11
-8.95287
 21
46.873
  0
LINE
  8
0
 10
-8.95287
 20
46.873
 11
-8.89465
 21
47.0522
  0
LINE
  8
0
 10
-8.89465
 20
47.0522
 11
-8.81445
 21
47.2226
  0
LINE
  8
0
 10
-8.81445
 20
47.2226
 11
-8.71352
 21
47.3817
  0
LINE
  8
0
 10
-8.71352
 20
47.3817
 11
-8.59344
 21
47.5268
  0
LINE
  8
0
 10
-8.59344
 20
47.5268
 11
-8.45613
 21
47.6558
  0
LINE
  8
0
 10
-8.45613
 20
47.6558
 11
-8.30373
 21
47.7665
  0
LINE
  8
0
 10
-8.30373
 20
47.7665
 11
-8.13866
 21
47.8572
  0
LINE
  8
0
 10
-8.13866
 20
47.8572
 11
-7.96352
 21
47.9266
  0
LINE
  8
0
 10
-7.96352
 20
47.9266
 11
-7.78107
 21
47.9734
  0
LINE
  8
0
 10
-7.78107
 20
47.9734
 11
-7.59418
 21
47.997
  0
LINE
  8
0
 10
-7.59418
 20
47.997
 11
-7.40581
 21
47.997
  0
LINE
  8
0
 10
-7.40581
 20
47.997
 11
-7.21892
 21
47.9734
  0
LINE
  8
0
 10
-7.21892
 20
47.9734
 11
-7.03647
 21
47.9266
  0
LINE
  8
0
 10
-7.03647
 20
47.9266
 11
-6.86133
 21
47.8572
  0
LINE
  8
0
 10
-6.86133
 20
47.8572
 11
-6.69626
 21
47.7665
  0
LINE
  8
0
 10
-6.69626
 20
47.7665
 11
-6.54385
 21
47.6558
  0
LINE
  8
0
 10
-6.54385
 20
47.6558
 11
-6.40654
 21
47.5268
  0
LINE
  8
0
 10
-6.40654
 20
47.5268
 11
-6.28647
 21
47.3817
  0
LINE
  8
0
 10
-6.28647
 20
47.3817
 11
-6.18553
 21
47.2226
  0
LINE
  8
0
 10
-6.18553
 20
47.2226
 11
-6.10533
 21
47.0522
  0
LINE
  8
0
 10
-6.10533
 20
47.0522
 11
-6.04712
 21
46.873
  0
LINE
  8
0
 10
-6.04712
 20
46.873
 11
-6.01183
 21
46.688
  0
LINE
  8
0
 10
-6.01183
 20
46.688
 11
-6
 21
46.5
  0
LINE
  8
0
 10
-6
 20
46.5
 11
-6.01183
 21
46.312
  0
LINE
  8
0
 10
-6.01183
 20
46.312
 11
-6.04712
 21
46.127
  0
LINE
  8
0
 10
-6.04712
 20
46.127
 11
-6.10533
 21
45.9478
  0
LINE
  8
0
 10
-6.10533
 20
45.9478
 11
-6.18553
 21
45.7774
  0
LINE
  8
0
 10
-6.18553
 20
45.7774
 11
-6.28647
 21
45.6183
  0
LINE
  8
0
 10
-6.28647
 20
45.6183
 11
-6.40654
 21
45.4732
  0
LINE
  8
0
 10
-6.40654
 20
45.4732
 11
-6.54385
 21
45.3442
  0
LINE
  8
0
 10
-6.54385
 20
45.3442
 11
-6.69626
 21
45.2335
  0
LINE
  8
0
 10
-6.69626
 20
45.2335
 11
-6.86133
 21
45.1427
  0
LINE
  8
0
 10
-6.86133
 20
45.1427
 11
-7.03647
 21
45.0734
  0
LINE
  8
0
 10
-7.03647
 20
45.0734
 11
-7.21892
 21
45.0266
  0
LINE
  8
0
 10
-7.21892
 20
45.0266
 11
-7.40581
 21
45.0029
  0
LINE
  8
0
 10
-7.40581
 20
45.0029
 11
-7.59418
 21
45.0029
  0
LINE
  8
0
 10
7.40581
 20
45.0029
 11
7.21892
 21
45.0266
  0
LINE
  8
0
 10
7.21892
 20
45.0266
 11
7.03647
 21
45.0734
  0
LINE
  8
0
 10
7.03647
 20
45.0734
 11
6.86133
 21
45.1427
  0
LINE
  8
0
 10
6.86133
 20
45.1427
 11
6.69626
 21
45.2335
  0
LINE
  8
0
 10
6.69626
 20
45.2335
 11
6.54385
 21
45.3442
  0
LINE
  8
0
 10
6.54385
 20
45.3442
 11
6.40654
 21
45.4732
  0
LINE
  8
0
 10
6.40654
 20
45.4732
 11
6.28647
 21
45.6183
  0
LINE
  8
0
 10
6.28647
 20
45.6183
 11
6.18553
 21
45.7774
  0
LINE
  8
0
 10
6.18553
 20
45.7774
 11
6.10533
 21
45.9478
  0
LINE
  8
0
 10
6.10533
 20
45.9478
 11
6.04712
 21
46.127
  0
LINE
  8
0
 10
6.04712
 20
46.127
 11
6.01183
 21
46.312
  0
LINE
  8
0
 10
6.01183
 20
46.312
 11
6
 21
46.5
  0
LINE
  8
0
 10
6
 20
46.5
 11
6.01183
 21
46.688
  0
LINE
  8
0
 10
6.01183
 20
46.688
 11
6.04712
 21
46.873
  0
LINE
  8
0
 10
6.04712
 20
46.873
 11
6.10533
 21
47.0522
  0
LINE
  8
0
 10
6.10533
 20
47.0522
 11
6.18553
 21
47.2226
  0
LINE
  8
0
 10
6.18553
 20
47.2226
 11
6.28647
 21
47.3817
  0
LINE
  8
0
 10
6.28647
 20
47.3817
 11
6.40654
 21
47.5268
  0
LINE
  8
0
 10
6.40654
 20
47.5268
 11
6.54385
 21
47.6558
  0
LINE
  8
0
 10
6.54385
 20
47.6558
 11
6.69626
 21
47.7665
  0
LINE
  8
0
 10
6.69626
 20
47.7665
 11
6.86133
 21
47.8572
  0
LINE
  8
0
 10
6.86133
 20
47.8572
 11
7.03647
 21
47.9266
  0
LINE
  8
0
 10
7.03647
 20
47.9266
 11
7.21892
 21
47.9734
  0
LINE
  8
0
 10
7.21892
 20
47.9734
 11
7.40581
 21
47.997
  0
LINE
  8
0
 10
7.40581
 20
47.997
 11
7.59418
 21
47.997
  0
LINE
  8
0
 10
7.59418
 20
47.997
 11
7.78107
 21
47.9734
  0
LINE
  8
0
 10
7.78107
 20
47.9734
 11
7.96352
 21
47.9266
  0
LINE
  8
0
 10
7.96352
 20
47.9266
 11
8.13866
 21
47.8572
  0
LINE
  8
0
 10
8.13866
 20
47.8572
 11
8.30373
 21
47.7665
  0
LINE
  8
0
 10
8.30373
 20
47.7665
 11
8.45613
 21
47.6558
  0
LINE
  8
0
 10
8.45613
 20
47.6558
 11
8.59344
 21
47.5268
  0
LINE
  8
0
 10
8.59344
 20
47.5268
 11
8.71352
 21
47.3817
  0
LINE
  8
0
 10
8.71352
 20
47.3817
 11
8.81445
 21
47.2226
  0
LINE
  8
0
 10
8.81445
 20
47.2226
 11
8.89465
 21
47.0522
  0
LINE
  8
0
 10
8.89465
 20
47.0522
 11
8.95287
 21
46.873
  0
LINE
  8
0
 10
8.95287
 20
46.873
 11
8.98816
 21
46.688
  0
LINE
  8
0
 10
8.98816
 20
46.688
 11
9
 21
46.5
  0
LINE
  8
0
 10
9
 20
46.5
 11
8.98816
 21
46.312
  0
LINE
  8
0
 10
8.98816
 20
46.312
 11
8.95287
 21
46.127
  0
LINE
  8
0
 10
8.95287
 20
46.127
 11
8.89465
 21
45.9478
  0
LINE
  8
0
 10
8.89465
 20
45.9478
 11
8.81445
 21
45.7774
  0
LINE
  8
0
 10
8.81445
 20
45.7774
 11
8.71352
 21
45.6183
  0
LINE
  8
0
 10
8.71352
 20
45.6183
 11
8.59344
 21
45.4732
  0
LINE
  8
0
 10
8.59344
 20
45.4732
 11
8.45613
 21
45.3442
  0
LINE
  8
0
 10
8.45613
 20
45.3442
 11
8.30373
 21
45.2335
  0
LINE
  8
0
 10
8.30373
 20
45.2335
 11
8.13866
 21
45.1427
  0
LINE
  8
0
 10
8.13866
 20
45.1427
 11
7.96352
 21
45.0734
  0
LINE
  8
0
 10
7.96352
 20
45.0734
 11
7.78107
 21
45.0266
  0
LINE
  8
0
 10
7.78107
 20
45.0266
 11
7.59418
 21
45.0029
  0
LINE
  8
0
 10
7.59418
 20
45.0029
 11
7.40581
 21
45.0029
  0
LINE
  8
0
 10
-0.219757
 20
35.5069
 11
-0.655823
 21
35.562
  0
LINE
  8
0
 10
-0.655823
 20
35.562
 11
-1.08156
 21
35.6713
  0
LINE
  8
0
 10
-1.08156
 20
35.6713
 11
-1.49022
 21
35.8331
  0
LINE
  8
0
 10
-1.49022
 20
35.8331
 11
-1.87538
 21
36.0449
  0
LINE
  8
0
 10
-1.87538
 20
36.0449
 11
-2.23097
 21
36.3032
  0
LINE
  8
0
 10
-2.23097
 20
36.3032
 11
-2.55138
 21
36.6041
  0
LINE
  8
0
 10
-2.55138
 20
36.6041
 11
-2.83156
 21
36.9428
  0
LINE
  8
0
 10
-2.83156
 20
36.9428
 11
-3.06706
 21
37.3139
  0
LINE
  8
0
 10
-3.06706
 20
37.3139
 11
-3.25421
 21
37.7116
  0
LINE
  8
0
 10
-3.25421
 20
37.7116
 11
-3.39003
 21
38.1296
  0
LINE
  8
0
 10
-3.39003
 20
38.1296
 11
-3.4724
 21
38.5613
  0
LINE
  8
0
 10
-3.4724
 20
38.5613
 11
-3.5
 21
39
  0
LINE
  8
0
 10
-3.5
 20
39
 11
-3.4724
 21
39.4387
  0
LINE
  8
0
 10
-3.4724
 20
39.4387
 11
-3.39003
 21
39.8704
  0
LINE
  8
0
 10
-3.39003
 20
39.8704
 11
-3.25421
 21
40.2884
  0
LINE
  8
0
 10
-3.25421
 20
40.2884
 11
-3.06706
 21
40.6861
  0
LINE
  8
0
 10
-3.06706
 20
40.6861
 11
-2.83156
 21
41.0572
  0
LINE
  8
0
 10
-2.83156
 20
41.0572
 11
-2.55138
 21
41.3959
  0
LINE
  8
0
 10
-2.55138
 20
41.3959
 11
-2.23097
 21
41.6968
  0
LINE
  8
0
 10
-2.23097
 20
41.6968
 11
-1.87538
 21
41.9551
  0
LINE
  8
0
 10
-1.87538
 20
41.9551
 11
-1.49022
 21
42.1669
  0
LINE
  8
0
 10
-1.49022
 20
42.1669
 11
-1.08156
 21
42.3287
  0
LINE
  8
0
 10
-1.08156
 20
42.3287
 11
-0.655823
 21
42.438
  0
LINE
  8
0
 10
-0.655823
 20
42.438
 11
-0.219757
 21
42.4931
  0
LINE
  8
0
 10
-0.219757
 20
42.4931
 11
0.219757
 21
42.4931
  0
LINE
  8
0
 10
0.219757
 20
42.4931
 11
0.655823
 21
42.438
  0
LINE
  8
0
 10
0.655823
 20
42.438
 11
1.08156
 21
42.3287
  0
LINE
  8
0
 10
1.08156
 20
42.3287
 11
1.49022
 21
42.1669
  0
LINE
  8
0
 10
1.49022
 20
42.1669
 11
1.87538
 21
41.9551
  0
LINE
  8
0
 10
1.87538
 20
41.9551
 11
2.23097
 21
41.6968
  0
LINE
  8
0
 10
2.23097
 20
41.6968
 11
2.55138
 21
41.3959
  0
LINE
  8
0
 10
2.55138
 20
41.3959
 11
2.83156
 21
41.0572
  0
LINE
  8
0
 10
2.83156
 20
41.0572
 11
3.06706
 21
40.6861
  0
LINE
  8
0
 10
3.06706
 20
40.6861
 11
3.25421
 21
40.2884
  0
LINE
  8
0
 10
3.25421
 20
40.2884
 11
3.39003
 21
39.8704
  0
LINE
  8
0
 10
3.39003
 20
39.8704
 11
3.4724
 21
39.4387
  0
LINE
  8
0
 10
3.4724
 20
39.4387
 11
3.5
 21
39
  0
LINE
  8
0
 10
3.5
 20
39
 11
3.4724
 21
38.5613
  0
LINE
  8
0
 10
3.4724
 20
38.5613
 11
3.39003
 21
38.1296
  0
LINE
  8
0
 10
3.39003
 20
38.1296
 11
3.25421
 21
37.7116
  0
LINE
  8
0
 10
3.25421
 20
37.7116
 11
3.06706
 21
37.3139
  0
LINE
  8
0
 10
3.06706
 20
37.3139
 11
2.83156
 21
36.9428
  0
LINE
  8
0
 10
2.83156
 20
36.9428
 11
2.55138
 21
36.6041
  0
LINE
  8
0
 10
2.55138
 20
36.6041
 11
2.23097
 21
36.3032
  0
LINE
  8
0
 10
2.23097
 20
36.3032
 11
1.87538
 21
36.0449
  0
LINE
  8
0
 10
1.87538
 20
36.0449
 11
1.49022
 21
35.8331
  0
LINE
  8
0
 10
1.49022
 20
35.8331
 11
1.08156
 21
35.6713
  0
LINE
  8
0
 10
1.08156
 20
35.6713
 11
0.655823
 21
35.562
  0
LINE
  8
0
 10
0.655823
 20
35.562
 11
0.219757
 21
35.5069
  0
LINE
  8
0
 10
0.219757
 20
35.5069
 11
-0.219757
 21
35.5069
  0
LINE
  8
0
 10
-12.2198
 20
35.5069
 11
-12.6558
 21
35.562
  0
LINE
  8
0
 10
-12.6558
 20
35.562
 11
-13.0816
 21
35.6713
  0
LINE
  8
0
 10
-13.0816
 20
35.6713
 11
-13.4902
 21
35.8331
  0
LINE
  8
0
 10
-13.4902
 20
35.8331
 11
-13.8754
 21
36.0449
  0
LINE
  8
0
 10
-13.8754
 20
36.0449
 11
-14.231
 21
36.3032
  0
LINE
  8
0
 10
-14.231
 20
36.3032
 11
-14.5514
 21
36.6041
  0
LINE
  8
0
 10
-14.5514
 20
36.6041
 11
-14.8316
 21
36.9428
  0
LINE
  8
0
 10
-14.8316
 20
36.9428
 11
-15.0671
 21
37.3139
  0
LINE
  8
0
 10
-15.0671
 20
37.3139
 11
-15.2542
 21
37.7116
  0
LINE
  8
0
 10
-15.2542
 20
37.7116
 11
-15.39
 21
38.1296
  0
LINE
  8
0
 10
-15.39
 20
38.1296
 11
-15.4724
 21
38.5613
  0
LINE
  8
0
 10
-15.4724
 20
38.5613
 11
-15.5
 21
39
  0
LINE
  8
0
 10
-15.5
 20
39
 11
-15.4724
 21
39.4387
  0
LINE
  8
0
 10
-15.4724
 20
39.4387
 11
-15.39
 21
39.8704
  0
LINE
  8
0
 10
-15.39
 20
39.8704
 11
-15.2542
 21
40.2884
  0
LINE
  8
0
 10
-15.2542
 20
40.2884
 11
-15.0671
 21
40.6861
  0
LINE
  8
0
 10
-15.0671
 20
40.6861
 11
-14.8316
 21
41.0572
  0
LINE
  8
0
 10
-14.8316
 20
41.0572
 11
-14.5514
 21
41.3959
  0
LINE
  8
0
 10
-14.5514
 20
41.3959
 11
-14.231
 21
41.6968
  0
LINE
  8
0
 10
-14.231
 20
41.6968
 11
-13.8754
 21
41.9551
  0
LINE
  8
0
 10
-13.8754
 20
41.9551
 11
-13.4902
 21
42.1669
  0
LINE
  8
0
 10
-13.4902
 20
42.1669
 11
-13.0816
 21
42.3287
  0
LINE
  8
0
 10
-13.0816
 20
42.3287
 11
-12.6558
 21
42.438
  0
LINE
  8
0
 10
-12.6558
 20
42.438
 11
-12.2198
 21
42.4931
  0
LINE
  8
0
 10
-12.2198
 20
42.4931
 11
-11.7802
 21
42.4931
  0
LINE
  8
0
 10
-11.7802
 20
42.4931
 11
-11.3442
 21
42.438
  0
LINE
  8
0
 10
-11.3442
 20
42.438
 11
-10.9184
 21
42.3287
  0
LINE
  8
0
 10
-10.9184
 20
42.3287
 11
-10.5098
 21
42.1669
  0
LINE
  8
0
 10
-10.5098
 20
42.1669
 11
-10.1246
 21
41.9551
  0
LINE
  8
0
 10
-10.1246
 20
41.9551
 11
-9.76901
 21
41.6968
  0
LINE
  8
0
 10
-9.76901
 20
41.6968
 11
-9.44861
 21
41.3959
  0
LINE
  8
0
 10
-9.44861
 20
41.3959
 11
-9.16843
 21
41.0572
  0
LINE
  8
0
 10
-9.16843
 20
41.0572
 11
-8.93292
 21
40.6861
  0
LINE
  8
0
 10
-8.93292
 20
40.6861
 11
-8.74577
 21
40.2884
  0
LINE
  8
0
 10
-8.74577
 20
40.2884
 11
-8.60995
 21
39.8704
  0
LINE
  8
0
 10
-8.60995
 20
39.8704
 11
-8.52759
 21
39.4387
  0
LINE
  8
0
 10
-8.52759
 20
39.4387
 11
-8.5
 21
39
  0
LINE
  8
0
 10
-8.5
 20
39
 11
-8.52759
 21
38.5613
  0
LINE
  8
0
 10
-8.52759
 20
38.5613
 11
-8.60995
 21
38.1296
  0
LINE
  8
0
 10
-8.60995
 20
38.1296
 11
-8.74577
 21
37.7116
  0
LINE
  8
0
 10
-8.74577
 20
37.7116
 11
-8.93292
 21
37.3139
  0
LINE
  8
0
 10
-8.93292
 20
37.3139
 11
-9.16843
 21
36.9428
  0
LINE
  8
0
 10
-9.16843
 20
36.9428
 11
-9.44861
 21
36.6041
  0
LINE
  8
0
 10
-9.44861
 20
36.6041
 11
-9.76901
 21
36.3032
  0
LINE
  8
0
 10
-9.76901
 20
36.3032
 11
-10.1246
 21
36.0449
  0
LINE
  8
0
 10
-10.1246
 20
36.0449
 11
-10.5098
 21
35.8331
  0
LINE
  8
0
 10
-10.5098
 20
35.8331
 11
-10.9184
 21
35.6713
  0
LINE
  8
0
 10
-10.9184
 20
35.6713
 11
-11.3442
 21
35.562
  0
LINE
  8
0
 10
-11.3442
 20
35.562
 11
-11.7802
 21
35.5069
  0
LINE
  8
0
 10
-11.7802
 20
35.5069
 11
-12.2198
 21
35.5069
  0
LINE
  8
0
 10
11.7802
 20
35.5069
 11
11.3442
 21
35.562
  0
LINE
  8
0
 10
11.3442
 20
35.562
 11
10.9184
 21
35.6713
  0
LINE
  8
0
 10
10.9184
 20
35.6713
 11
10.5098
 21
35.8331
  0
LINE
  8
0
 10
10.5098
 20
35.8331
 11
10.1246
 21
36.0449
  0
LINE
  8
0
 10
10.1246
 20
36.0449
 11
9.76901
 21
36.3032
  0
LINE
  8
0
 10
9.76901
 20
36.3032
 11
9.44861
 21
36.6041
  0
LINE
  8
0
 10
9.44861
 20
36.6041
 11
9.16843
 21
36.9428
  0
LINE
  8
0
 10
9.16843
 20
36.9428
 11
8.93292
 21
37.3139
  0
LINE
  8
0
 10
8.93292
 20
37.3139
 11
8.74577
 21
37.7116
  0
LINE
  8
0
 10
8.74577
 20
37.7116
 11
8.60995
 21
38.1296
  0
LINE
  8
0
 10
8.60995
 20
38.1296
 11
8.52759
 21
38.5613
  0
LINE
  8
0
 10
8.52759
 20
38.5613
 11
8.5
 21
39
  0
LINE
  8
0
 10
8.5
 20
39
 11
8.52759
 21
39.4387
  0
LINE
  8
0
 10
8.52759
 20
39.4387
 11
8.60995
 21
39.8704
  0
LINE
  8
0
 10
8.60995
 20
39.8704
 11
8.74577
 21
40.2884
  0
LINE
  8
0
 10
8.74577
 20
40.2884
 11
8.93292
 21
40.6861
  0
LINE
  8
0
 10
8.93292
 20
40.6861
 11
9.16843
 21
41.0572
  0
LINE
  8
0
 10
9.16843
 20
41.0572
 11
9.44861
 21
41.3959
  0
LINE
  8
0
 10
9.44861
 20
41.3959
 11
9.76901
 21
41.6968
  0
LINE
  8
0
 10
9.76901
 20
41.6968
 11
10.1246
 21
41.9551
  0
LINE
  8
0
 10
10.1246
 20
41.9551
 11
10.5098
 21
42.1669
  0
LINE
  8
0
 10
10.5098
 20
42.1669
 11
10.9184
 21
42.3287
  0
LINE
  8
0
 10
10.9184
 20
42.3287
 11
11.3442
 21
42.438
  0
LINE
  8
0
 10
11.3442
 20
42.438
 11
11.7802
 21
42.4931
  0
LINE
  8
0
 10
11.7802
 20
42.4931
 11
12.2198
 21
42.4931
  0
LINE
  8
0
 10
12.2198
 20
42.4931
 11
12.6558
 21
42.438
  0
LINE
  8
0
 10
12.6558
 20
42.438
 11
13.0816
 21
42.3287
  0
LINE
  8
0
 10
13.0816
 20
42.3287
 11
13.4902
 21
42.1669
  0
LINE
  8
0
 10
13.4902
 20
42.1669
 11
13.8754
 21
41.9551
  0
LINE
  8
0
 10
13.8754
 20
41.9551
 11
14.231
 21
41.6968
  0
LINE
  8
0
 10
14.231
 20
41.6968
 11
14.5514
 21
41.3959
  0
LINE
  8
0
 10
14.5514
 20
41.3959
 11
14.8316
 21
41.0572
  0
LINE
  8
0
 10
14.8316
 20
41.0572
 11
15.0671
 21
40.6861
  0
LINE
  8
0
 10
15.0671
 20
40.6861
 11
15.2542
 21
40.2884
  0
LINE
  8
0
 10
15.2542
 20
40.2884
 11
15.39
 21
39.8704
  0
LINE
  8
0
 10
15.39
 20
39.8704
 11
15.4724
 21
39.4387
  0
LINE
  8
0
 10
15.4724
 20
39.4387
 11
15.5
 21
39
  0
LINE
  8
0
 10
15.5
 20
39
 11
15.4724
 21
38.5613
  0
LINE
  8
0
 10
15.4724
 20
38.5613
 11
15.39
 21
38.1296
  0
LINE
  8
0
 10
15.39
 20
38.1296
 11
15.2542
 21
37.7116
  0
LINE
  8
0
 10
15.2542
 20
37.7116
 11
15.0671
 21
37.3139
  0
LINE
  8
0
 10
15.0671
 20
37.3139
 11
14.8316
 21
36.9428
  0
LINE
  8
0
 10
14.8316
 20
36.9428
 11
14.5514
 21
36.6041
  0
LINE
  8
0
 10
14.5514
 20
36.6041
 11
14.231
 21
36.3032
  0
LINE
  8
0
 10
14.231
 20
36.3032
 11
13.8754
 21
36.0449
  0
LINE
  8
0
 10
13.8754
 20
36.0449
 11
13.4902
 21
35.8331
  0
LINE
  8
0
 10
13.4902
 20
35.8331
 11
13.0816
 21
35.6713
  0
LINE
  8
0
 10
13.0816
 20
35.6713
 11
12.6558
 21
35.562
  0
LINE
  8
0
 10
12.6558
 20
35.562
 11
12.2198
 21
35.5069
  0
LINE
  8
0
 10
12.2198
 20
35.5069
 11
11.7802
 21
35.5069
  0
LINE
  8
0
 10
14.8116
 20
28.5059
 11
14.4379
 21
28.5531
  0
LINE
  8
0
 10
14.4379
 20
28.5531
 11
14.0729
 21
28.6468
  0
LINE
  8
0
 10
14.0729
 20
28.6468
 11
13.7227
 21
28.7855
  0
LINE
  8
0
 10
13.7227
 20
28.7855
 11
13.3925
 21
28.967
  0
LINE
  8
0
 10
13.3925
 20
28.967
 11
13.0877
 21
29.1885
  0
LINE
  8
0
 10
13.0877
 20
29.1885
 11
12.8131
 21
29.4464
  0
LINE
  8
0
 10
12.8131
 20
29.4464
 11
12.5729
 21
29.7366
  0
LINE
  8
0
 10
12.5729
 20
29.7366
 11
12.3711
 21
30.0547
  0
LINE
  8
0
 10
12.3711
 20
30.0547
 11
12.2107
 21
30.3956
  0
LINE
  8
0
 10
12.2107
 20
30.3956
 11
12.0942
 21
30.7539
  0
LINE
  8
0
 10
12.0942
 20
30.7539
 11
12.0237
 21
31.124
  0
LINE
  8
0
 10
12.0237
 20
31.124
 11
12
 21
31.5
  0
LINE
  8
0
 10
12
 20
31.5
 11
12.0237
 21
31.876
  0
LINE
  8
0
 10
12.0237
 20
31.876
 11
12.0942
 21
32.2461
  0
LINE
  8
0
 10
12.0942
 20
32.2461
 11
12.2107
 21
32.6044
  0
LINE
  8
0
 10
12.2107
 20
32.6044
 11
12.3711
 21
32.9453
  0
LINE
  8
0
 10
12.3711
 20
32.9453
 11
12.5729
 21
33.2634
  0
LINE
  8
0
 10
12.5729
 20
33.2634
 11
12.8131
 21
33.5536
  0
LINE
  8
0
 10
12.8131
 20
33.5536
 11
13.0877
 21
33.8116
  0
LINE
  8
0
 10
13.0877
 20
33.8116
 11
13.3925
 21
34.033
  0
LINE
  8
0
 10
13.3925
 20
34.033
 11
13.7227
 21
34.2145
  0
LINE
  8
0
 10
13.7227
 20
34.2145
 11
14.0729
 21
34.3532
  0
LINE
  8
0
 10
14.0729
 20
34.3532
 11
14.4379
 21
34.4469
  0
LINE
  8
0
 10
14.4379
 20
34.4469
 11
14.8116
 21
34.4941
  0
LINE
  8
0
 10
14.8116
 20
34.4941
 11
15.1884
 21
34.4941
  0
LINE
  8
0
 10
15.1884
 20
34.4941
 11
15.5621
 21
34.4469
  0
LINE
  8
0
 10
15.5621
 20
34.4469
 11
15.927
 21
34.3532
  0
LINE
  8
0
 10
15.927
 20
34.3532
 11
16.2773
 21
34.2145
  0
LINE
  8
0
 10
16.2773
 20
34.2145
 11
16.6075
 21
34.033
  0
LINE
  8
0
 10
16.6075
 20
34.033
 11
16.9123
 21
33.8116
  0
LINE
  8
0
 10
16.9123
 20
33.8116
 11
17.1869
 21
33.5536
  0
LINE
  8
0
 10
17.1869
 20
33.5536
 11
17.427
 21
33.2634
  0
LINE
  8
0
 10
17.427
 20
33.2634
 11
17.6289
 21
32.9453
  0
LINE
  8
0
 10
17.6289
 20
32.9453
 11
17.7893
 21
32.6044
  0
LINE
  8
0
 10
17.7893
 20
32.6044
 11
17.9057
 21
32.2461
  0
LINE
  8
0
 10
17.9057
 20
32.2461
 11
17.9763
 21
31.876
  0
LINE
  8
0
 10
17.9763
 20
31.876
 11
18
 21
31.5
  0
LINE
  8
0
 10
18
 20
31.5
 11
17.9763
 21
31.124
  0
LINE
  8
0
 10
17.9763
 20
31.124
 11
17.9057
 21
30.7539
  0
LINE
  8
0
 10
17.9057
 20
30.7539
 11
17.7893
 21
30.3956
  0
LINE
  8
0
 10
17.7893
 20
30.3956
 11
17.6289
 21
30.0547
  0
LINE
  8
0
 10
17.6289
 20
30.0547
 11
17.427
 21
29.7366
  0
LINE
  8
0
 10
17.427
 20
29.7366
 11
17.1869
 21
29.4464
  0
LINE
  8
0
 10
17.1869
 20
29.4464
 11
16.9123
 21
29.1885
  0
LINE
  8
0
 10
16.9123
 20
29.1885
 11
16.6075
 21
28.967
  0
LINE
  8
0
 10
16.6075
 20
28.967
 11
16.2773
 21
28.7855
  0
LINE
  8
0
 10
16.2773
 20
28.7855
 11
15.927
 21
28.6468
  0
LINE
  8
0
 10
15.927
 20
28.6468
 11
15.5621
 21
28.5531
  0
LINE
  8
0
 10
15.5621
 20
28.5531
 11
15.1884
 21
28.5059
  0
LINE
  8
0
 10
15.1884
 20
28.5059
 11
14.8116
 21
28.5059
  0
LINE
  8
0
 10
-15.1884
 20
28.5059
 11
-15.5621
 21
28.5531
  0
LINE
  8
0
 10
-15.5621
 20
28.5531
 11
-15.927
 21
28.6468
  0
LINE
  8
0
 10
-15.927
 20
28.6468
 11
-16.2773
 21
28.7855
  0
LINE
  8
0
 10
-16.2773
 20
28.7855
 11
-16.6075
 21
28.967
  0
LINE
  8
0
 10
-16.6075
 20
28.967
 11
-16.9123
 21
29.1885
  0
LINE
  8
0
 10
-16.9123
 20
29.1885
 11
-17.1869
 21
29.4464
  0
LINE
  8
0
 10
-17.1869
 20
29.4464
 11
-17.427
 21
29.7366
  0
LINE
  8
0
 10
-17.427
 20
29.7366
 11
-17.6289
 21
30.0547
  0
LINE
  8
0
 10
-17.6289
 20
30.0547
 11
-17.7893
 21
30.3956
  0
LINE
  8
0
 10
-17.7893
 20
30.3956
 11
-17.9057
 21
30.7539
  0
LINE
  8
0
 10
-17.9057
 20
30.7539
 11
-17.9763
 21
31.124
  0
LINE
  8
0
 10
-17.9763
 20
31.124
 11
-18
 21
31.5
  0
LINE
  8
0
 10
-18
 20
31.5
 11
-17.9763
 21
31.876
  0
LINE
  8
0
 10
-17.9763
 20
31.876
 11
-17.9057
 21
32.2461
  0
LINE
  8
0
 10
-17.9057
 20
32.2461
 11
-17.7893
 21
32.6044
  0
LINE
  8
0
 10
-17.7893
 20
32.6044
 11
-17.6289
 21
32.9453
  0
LINE
  8
0
 10
-17.6289
 20
32.9453
 11
-17.427
 21
33.2634
  0
LINE
  8
0
 10
-17.427
 20
33.2634
 11
-17.1869
 21
33.5536
  0
LINE
  8
0
 10
-17.1869
 20
33.5536
 11
-16.9123
 21
33.8116
  0
LINE
  8
0
 10
-16.9123
 20
33.8116
 11
-16.6075
 21
34.033
  0
LINE
  8
0
 10
-16.6075
 20
34.033
 11
-16.2773
 21
34.2145
  0
LINE
  8
0
 10
-16.2773
 20
34.2145
 11
-15.927
 21
34.3532
  0
LINE
  8
0
 10
-15.927
 20
34.3532
 11
-15.5621
 21
34.4469
  0
LINE
  8
0
 10
-15.5621
 20
34.4469
 11
-15.1884
 21
34.4941
  0
LINE
  8
0
 10
-15.1884
 20
34.4941
 11
-14.8116
 21
34.4941
  0
LINE
  8
0
 10
-14.8116
 20
34.4941
 11
-14.4379
 21
34.4469
  0
LINE
  8
0
 10
-14.4379
 20
34.4469
 11
-14.0729
 21
34.3532
  0
LINE
  8
0
 10
-14.0729
 20
34.3532
 11
-13.7227
 21
34.2145
  0
LINE
  8
0
 10
-13.7227
 20
34.2145
 11
-13.3925
 21
34.033
  0
LINE
  8
0
 10
-13.3925
 20
34.033
 11
-13.0877
 21
33.8116
  0
LINE
  8
0
 10
-13.0877
 20
33.8116
 11
-12.8131
 21
33.5536
  0
LINE
  8
0
 10
-12.8131
 20
33.5536
 11
-12.5729
 21
33.2634
  0
LINE
  8
0
 10
-12.5729
 20
33.2634
 11
-12.3711
 21
32.9453
  0
LINE
  8
0
 10
-12.3711
 20
32.9453
 11
-12.2107
 21
32.6044
  0
LINE
  8
0
 10
-12.2107
 20
32.6044
 11
-12.0942
 21
32.2461
  0
LINE
  8
0
 10
-12.0942
 20
32.2461
 11
-12.0237
 21
31.876
  0
LINE
  8
0
 10
-12.0237
 20
31.876
 11
-12
 21
31.5
  0
LINE
  8
0
 10
-12
 20
31.5
 11
-12.0237
 21
31.124
  0
LINE
  8
0
 10
-12.0237
 20
31.124
 11
-12.0942
 21
30.7539
  0
LINE
  8
0
 10
-12.0942
 20
30.7539
 11
-12.2107
 21
30.3956
  0
LINE
  8
0
 10
-12.2107
 20
30.3956
 11
-12.3711
 21
30.0547
  0
LINE
  8
0
 10
-12.3711
 20
30.0547
 11
-12.5729
 21
29.7366
  0
LINE
  8
0
 10
-12.5729
 20
29.7366
 11
-12.8131
 21
29.4464
  0
LINE
  8
0
 10
-12.8131
 20
29.4464
 11
-13.0877
 21
29.1885
  0
LINE
  8
0
 10
-13.0877
 20
29.1885
 11
-13.3925
 21
28.967
  0
LINE
  8
0
 10
-13.3925
 20
28.967
 11
-13.7227
 21
28.7855
  0
LINE
  8
0
 10
-13.7227
 20
28.7855
 11
-14.0729
 21
28.6468
  0
LINE
  8
0
 10
-14.0729
 20
28.6468
 11
-14.4379
 21
28.5531
  0
LINE
  8
0
 10
-14.4379
 20
28.5531
 11
-14.8116
 21
28.5059
  0
LINE
  8
0
 10
-14.8116
 20
28.5059
 11
-15.1884
 21
28.5059
  0
LINE
  8
0
 10
-0.18837
 20
28.5059
 11
-0.562134
 21
28.5531
  0
LINE
  8
0
 10
-0.562134
 20
28.5531
 11
-0.927048
 21
28.6468
  0
LINE
  8
0
 10
-0.927048
 20
28.6468
 11
-1.27733
 21
28.7855
  0
LINE
  8
0
 10
-1.27733
 20
28.7855
 11
-1.60747
 21
28.967
  0
LINE
  8
0
 10
-1.60747
 20
28.967
 11
-1.91226
 21
29.1885
  0
LINE
  8
0
 10
-1.91226
 20
29.1885
 11
-2.1869
 21
29.4464
  0
LINE
  8
0
 10
-2.1869
 20
29.4464
 11
-2.42705
 21
29.7366
  0
LINE
  8
0
 10
-2.42705
 20
29.7366
 11
-2.62891
 21
30.0547
  0
LINE
  8
0
 10
-2.62891
 20
30.0547
 11
-2.78932
 21
30.3956
  0
LINE
  8
0
 10
-2.78932
 20
30.3956
 11
-2.90575
 21
30.7539
  0
LINE
  8
0
 10
-2.90575
 20
30.7539
 11
-2.97633
 21
31.124
  0
LINE
  8
0
 10
-2.97633
 20
31.124
 11
-3
 21
31.5
  0
LINE
  8
0
 10
-3
 20
31.5
 11
-2.97633
 21
31.876
  0
LINE
  8
0
 10
-2.97633
 20
31.876
 11
-2.90575
 21
32.2461
  0
LINE
  8
0
 10
-2.90575
 20
32.2461
 11
-2.78932
 21
32.6044
  0
LINE
  8
0
 10
-2.78932
 20
32.6044
 11
-2.62891
 21
32.9453
  0
LINE
  8
0
 10
-2.62891
 20
32.9453
 11
-2.42705
 21
33.2634
  0
LINE
  8
0
 10
-2.42705
 20
33.2634
 11
-2.1869
 21
33.5536
  0
LINE
  8
0
 10
-2.1869
 20
33.5536
 11
-1.91226
 21
33.8116
  0
LINE
  8
0
 10
-1.91226
 20
33.8116
 11
-1.60747
 21
34.033
  0
LINE
  8
0
 10
-1.60747
 20
34.033
 11
-1.27733
 21
34.2145
  0
LINE
  8
0
 10
-1.27733
 20
34.2145
 11
-0.927048
 21
34.3532
  0
LINE
  8
0
 10
-0.927048
 20
34.3532
 11
-0.562134
 21
34.4469
  0
LINE
  8
0
 10
-0.562134
 20
34.4469
 11
-0.18837
 21
34.4941
  0
LINE
  8
0
 10
-0.18837
 20
34.4941
 11
0.18837
 21
34.4941
  0
LINE
  8
0
 10
0.18837
 20
34.4941
 11
0.562134
 21
34.4469
  0
LINE
  8
0
 10
0.562134
 20
34.4469
 11
0.927048
 21
34.3532
  0
LINE
  8
0
 10
0.927048
 20
34.3532
 11
1.27733
 21
34.2145
  0
LINE
  8
0
 10
1.27733
 20
34.2145
 11
1.60747
 21
34.033
  0
LINE
  8
0
 10
1.60747
 20
34.033
 11
1.91226
 21
33.8116
  0
LINE
  8
0
 10
1.91226
 20
33.8116
 11
2.1869
 21
33.5536
  0
LINE
  8
0
 10
2.1869
 20
33.5536
 11
2.42705
 21
33.2634
  0
LINE
  8
0
 10
2.42705
 20
33.2634
 11
2.62891
 21
32.9453
  0
LINE
  8
0
 10
2.62891
 20
32.9453
 11
2.78932
 21
32.6044
  0
LINE
  8
0
 10
2.78932
 20
32.6044
 11
2.90575
 21
32.2461
  0
LINE
  8
0
 10
2.90575
 20
32.2461
 11
2.97633
 21
31.876
  0
LINE
  8
0
 10
2.97633
 20
31.876
 11
3
 21
31.5
  0
LINE
  8
0
 10
3
 20
31.5
 11
2.97633
 21
31.124
  0
LINE
  8
0
 10
2.97633
 20
31.124
 11
2.90575
 21
30.7539
  0
LINE
  8
0
 10
2.90575
 20
30.7539
 11
2.78932
 21
30.3956
  0
LINE
  8
0
 10
2.78932
 20
30.3956
 11
2.62891
 21
30.0547
  0
LINE
  8
0
 10
2.62891
 20
30.0547
 11
2.42705
 21
29.7366
  0
LINE
  8
0
 10
2.42705
 20
29.7366
 11
2.1869
 21
29.4464
  0
LINE
  8
0
 10
2.1869
 20
29.4464
 11
1.91226
 21
29.1885
  0
LINE
  8
0
 10
1.91226
 20
29.1885
 11
1.60747
 21
28.967
  0
LINE
  8
0
 10
1.60747
 20
28.967
 11
1.27733
 21
28.7855
  0
LINE
  8
0
 10
1.27733
 20
28.7855
 11
0.927048
 21
28.6468
  0
LINE
  8
0
 10
0.927048
 20
28.6468
 11
0.562134
 21
28.5531
  0
LINE
  8
0
 10
0.562134
 20
28.5531
 11
0.18837
 21
28.5059
  0
LINE
  8
0
 10
0.18837
 20
28.5059
 11
-0.18837
 21
28.5059
  0
LINE
  8
0
 10
7.40581
 20
30.003
 11
7.21892
 21
30.0266
  0
LINE
  8
0
 10
7.21892
 20
30.0266
 11
7.03647
 21
30.0734
  0
LINE
  8
0
 10
7.03647
 20
30.0734
 11
6.86133
 21
30.1428
  0
LINE
  8
0
 10
6.86133
 20
30.1428
 11
6.69626
 21
30.2335
  0
LINE
  8
0
 10
6.69626
 20
30.2335
 11
6.54385
 21
30.3442
  0
LINE
  8
0
 10
6.54385
 20
30.3442
 11
6.40654
 21
30.4732
  0
LINE
  8
0
 10
6.40654
 20
30.4732
 11
6.28647
 21
30.6183
  0
LINE
  8
0
 10
6.28647
 20
30.6183
 11
6.18553
 21
30.7774
  0
LINE
  8
0
 10
6.18553
 20
30.7774
 11
6.10533
 21
30.9478
  0
LINE
  8
0
 10
6.10533
 20
30.9478
 11
6.04712
 21
31.127
  0
LINE
  8
0
 10
6.04712
 20
31.127
 11
6.01183
 21
31.312
  0
LINE
  8
0
 10
6.01183
 20
31.312
 11
6
 21
31.5
  0
LINE
  8
0
 10
6
 20
31.5
 11
6.01183
 21
31.688
  0
LINE
  8
0
 10
6.01183
 20
31.688
 11
6.04712
 21
31.873
  0
LINE
  8
0
 10
6.04712
 20
31.873
 11
6.10533
 21
32.0522
  0
LINE
  8
0
 10
6.10533
 20
32.0522
 11
6.18553
 21
32.2226
  0
LINE
  8
0
 10
6.18553
 20
32.2226
 11
6.28647
 21
32.3817
  0
LINE
  8
0
 10
6.28647
 20
32.3817
 11
6.40654
 21
32.5268
  0
LINE
  8
0
 10
6.40654
 20
32.5268
 11
6.54385
 21
32.6558
  0
LINE
  8
0
 10
6.54385
 20
32.6558
 11
6.69626
 21
32.7665
  0
LINE
  8
0
 10
6.69626
 20
32.7665
 11
6.86133
 21
32.8573
  0
LINE
  8
0
 10
6.86133
 20
32.8573
 11
7.03647
 21
32.9266
  0
LINE
  8
0
 10
7.03647
 20
32.9266
 11
7.21892
 21
32.9734
  0
LINE
  8
0
 10
7.21892
 20
32.9734
 11
7.40581
 21
32.9971
  0
LINE
  8
0
 10
7.40581
 20
32.9971
 11
7.59418
 21
32.9971
  0
LINE
  8
0
 10
7.59418
 20
32.9971
 11
7.78107
 21
32.9734
  0
LINE
  8
0
 10
7.78107
 20
32.9734
 11
7.96352
 21
32.9266
  0
LINE
  8
0
 10
7.96352
 20
32.9266
 11
8.13866
 21
32.8573
  0
LINE
  8
0
 10
8.13866
 20
32.8573
 11
8.30373
 21
32.7665
  0
LINE
  8
0
 10
8.30373
 20
32.7665
 11
8.45613
 21
32.6558
  0
LINE
  8
0
 10
8.45613
 20
32.6558
 11
8.59344
 21
32.5268
  0
LINE
  8
0
 10
8.59344
 20
32.5268
 11
8.71352
 21
32.3817
  0
LINE
  8
0
 10
8.71352
 20
32.3817
 11
8.81445
 21
32.2226
  0
LINE
  8
0
 10
8.81445
 20
32.2226
 11
8.89465
 21
32.0522
  0
LINE
  8
0
 10
8.89465
 20
32.0522
 11
8.95287
 21
31.873
  0
LINE
  8
0
 10
8.95287
 20
31.873
 11
8.98816
 21
31.688
  0
LINE
  8
0
 10
8.98816
 20
31.688
 11
9
 21
31.5
  0
LINE
  8
0
 10
9
 20
31.5
 11
8.98816
 21
31.312
  0
LINE
  8
0
 10
8.98816
 20
31.312
 11
8.95287
 21
31.127
  0
LINE
  8
0
 10
8.95287
 20
31.127
 11
8.89465
 21
30.9478
  0
LINE
  8
0
 10
8.89465
 20
30.9478
 11
8.81445
 21
30.7774
  0
LINE
  8
0
 10
8.81445
 20
30.7774
 11
8.71352
 21
30.6183
  0
LINE
  8
0
 10
8.71352
 20
30.6183
 11
8.59344
 21
30.4732
  0
LINE
  8
0
 10
8.59344
 20
30.4732
 11
8.45613
 21
30.3442
  0
LINE
  8
0
 10
8.45613
 20
30.3442
 11
8.30373
 21
30.2335
  0
LINE
  8
0
 10
8.30373
 20
30.2335
 11
8.13866
 21
30.1428
  0
LINE
  8
0
 10
8.13866
 20
30.1428
 11
7.96352
 21
30.0734
  0
LINE
  8
0
 10
7.96352
 20
30.0734
 11
7.78107
 21
30.0266
  0
LINE
  8
0
 10
7.78107
 20
30.0266
 11
7.59418
 21
30.003
  0
LINE
  8
0
 10
7.59418
 20
30.003
 11
7.40581
 21
30.003
  0
LINE
  8
0
 10
-7.59418
 20
30.003
 11
-7.78107
 21
30.0266
  0
LINE
  8
0
 10
-7.78107
 20
30.0266
 11
-7.96352
 21
30.0734
  0
LINE
  8
0
 10
-7.96352
 20
30.0734
 11
-8.13866
 21
30.1428
  0
LINE
  8
0
 10
-8.13866
 20
30.1428
 11
-8.30373
 21
30.2335
  0
LINE
  8
0
 10
-8.30373
 20
30.2335
 11
-8.45613
 21
30.3442
  0
LINE
  8
0
 10
-8.45613
 20
30.3442
 11
-8.59344
 21
30.4732
  0
LINE
  8
0
 10
-8.59344
 20
30.4732
 11
-8.71352
 21
30.6183
  0
LINE
  8
0
 10
-8.71352
 20
30.6183
 11
-8.81445
 21
30.7774
  0
LINE
  8
0
 10
-8.81445
 20
30.7774
 11
-8.89465
 21
30.9478
  0
LINE
  8
0
 10
-8.89465
 20
30.9478
 11
-8.95287
 21
31.127
  0
LINE
  8
0
 10
-8.95287
 20
31.127
 11
-8.98816
 21
31.312
  0
LINE
  8
0
 10
-8.98816
 20
31.312
 11
-9
 21
31.5
  0
LINE
  8
0
 10
-9
 20
31.5
 11
-8.98816
 21
31.688
  0
LINE
  8
0
 10
-8.98816
 20
31.688
 11
-8.95287
 21
31.873
  0
LINE
  8
0
 10
-8.95287
 20
31.873
 11
-8.89465
 21
32.0522
  0
LINE
  8
0
 10
-8.89465
 20
32.0522
 11
-8.81445
 21
32.2226
  0
LINE
  8
0
 10
-8.81445
 20
32.2226
 11
-8.71352
 21
32.3817
  0
LINE
  8
0
 10
-8.71352
 20
32.3817
 11
-8.59344
 21
32.5268
  0
LINE
  8
0
 10
-8.59344
 20
32.5268
 11
-8.45613
 21
32.6558
  0
LINE
  8
0
 10
-8.45613
 20
32.6558
 11
-8.30373
 21
32.7665
  0
LINE
  8
0
 10
-8.30373
 20
32.7665
 11
-8.13866
 21
32.8573
  0
LINE
  8
0
 10
-8.13866
 20
32.8573
 11
-7.96352
 21
32.9266
  0
LINE
  8
0
 10
-7.96352
 20
32.9266
 11
-7.78107
 21
32.9734
  0
LINE
  8
0
 10
-7.78107
 20
32.9734
 11
-7.59418
 21
32.9971
  0
LINE
  8
0
 10
-7.59418
 20
32.9971
 11
-7.40581
 21
32.9971
  0
LINE
  8
0
 10
-7.40581
 20
32.9971
 11
-7.21892
 21
32.9734
  0
LINE
  8
0
 10
-7.21892
 20
32.9734
 11
-7.03647
 21
32.9266
  0
LINE
  8
0
 10
-7.03647
 20
32.9266
 11
-6.86133
 21
32.8573
  0
LINE
  8
0
 10
-6.86133
 20
32.8573
 11
-6.69626
 21
32.7665
  0
LINE
  8
0
 10
-6.69626
 20
32.7665
 11
-6.54385
 21
32.6558
  0
LINE
  8
0
 10
-6.54385
 20
32.6558
 11
-6.40654
 21
32.5268
  0
LINE
  8
0
 10
-6.40654
 20
32.5268
 11
-6.28647
 21
32.3817
  0
LINE
  8
0
 10
-6.28647
 20
32.3817
 11
-6.18553
 21
32.2226
  0
LINE
  8
0
 10
-6.18553
 20
32.2226
 11
-6.10533
 21
32.0522
  0
LINE
  8
0
 10
-6.10533
 20
32.0522
 11
-6.04712
 21
31.873
  0
LINE
  8
0
 10
-6.04712
 20
31.873
 11
-6.01183
 21
31.688
  0
LINE
  8
0
 10
-6.01183
 20
31.688
 11
-6
 21
31.5
  0
LINE
  8
0
 10
-6
 20
31.5
 11
-6.01183
 21
31.312
  0
LINE
  8
0
 10
-6.01183
 20
31.312
 11
-6.04712
 21
31.127
  0
LINE
  8
0
 10
-6.04712
 20
31.127
 11
-6.10533
 21
30.9478
  0
LINE
  8
0
 10
-6.10533
 20
30.9478
 11
-6.18553
 21
30.7774
  0
LINE
  8
0
 10
-6.18553
 20
30.7774
 11
-6.28647
 21
30.6183
  0
LINE
  8
0
 10
-6.28647
 20
30.6183
 11
-6.40654
 21
30.4732
  0
LINE
  8
0
 10
-6.40654
 20
30.4732
 11
-6.54385
 21
30.3442
  0
LINE
  8
0
 10
-6.54385
 20
30.3442
 11
-6.69626
 21
30.2335
  0
LINE
  8
0
 10
-6.69626
 20
30.2335
 11
-6.86133
 21
30.1428
  0
LINE
  8
0
 10
-6.86133
 20
30.1428
 11
-7.03647
 21
30.0734
  0
LINE
  8
0
 10
-7.03647
 20
30.0734
 11
-7.21892
 21
30.0266
  0
LINE
  8
0
 10
-7.21892
 20
30.0266
 11
-7.40581
 21
30.003
  0
LINE
  8
0
 10
-7.40581
 20
30.003
 11
-7.59418
 21
30.003
  0
ENDSEC
  0
SECTION
  2
OBJECTS
  0
DICTIONARY
  0
ENDSEC
  0
EOF
