<?xml version="1.0" standalone="no"?>
<!DOCTYPE svg PUBLIC "-//W3C//DTD SVG 1.1//EN" "http://www.w3.org/Graphics/SVG/1.1/DTD/svg11.dtd">
<svg width="300mm" height="74mm" viewBox="-150 -37 300 74" xmlns="http://www.w3.org/2000/svg" version="1.1">
<title>OpenSCAD Model</title>
<path d="
M 145.437,36.9114 L 146.045,36.7553 L 146.629,36.5241 L 147.179,36.2216 L 147.687,35.8526 L 148.145,35.4227
 L 148.545,34.9389 L 148.882,34.4088 L 149.149,33.8406 L 149.343,33.2434 L 149.461,32.6267 L 149.5,32
 L 149.5,-32 L 149.461,-32.6267 L 149.343,-33.2434 L 149.149,-33.8406 L 148.882,-34.4088 L 148.545,-34.9389
 L 148.145,-35.4227 L 147.687,-35.8526 L 147.179,-36.2216 L 146.629,-36.5241 L 146.045,-36.7553 L 145.437,-36.9114
 L 144.814,-36.9901 L -144.814,-36.9901 L -145.437,-36.9114 L -146.045,-36.7553 L -146.629,-36.5241 L -147.179,-36.2216
 L -147.687,-35.8526 L -148.145,-35.4227 L -148.545,-34.9389 L -148.882,-34.4088 L -149.149,-33.8406 L -149.343,-33.2434
 L -149.461,-32.6267 L -149.5,-32 L -149.5,32 L -149.461,32.6267 L -149.343,33.2434 L -149.149,33.8406
 L -148.882,34.4088 L -148.545,34.9389 L -148.145,35.4227 L -147.687,35.8526 L -147.179,36.2216 L -146.629,36.5241
 L -146.045,36.7553 L -145.437,36.9114 L -144.814,36.9901 L 144.814,36.9901 z
M -52.6884,-27.0059 L -53.0621,-27.0531 L -53.427,-27.1468 L -53.7773,-27.2855 L -54.1075,-27.467 L -54.4123,-27.6884
 L -54.6869,-27.9464 L -54.927,-28.2366 L -55.1289,-28.5547 L -55.2893,-28.8956 L -55.4057,-29.2539 L -55.4763,-29.624
 L -55.5,-30 L -55.4763,-30.376 L -55.4057,-30.7461 L -55.2893,-31.1044 L -55.1289,-31.4453 L -54.927,-31.7634
 L -54.6869,-32.0536 L -54.4123,-32.3115 L -54.1075,-32.533 L -53.7773,-32.7145 L -53.427,-32.8532 L -53.0621,-32.9469
 L -52.6884,-32.9941 L -52.3116,-32.9941 L -51.9379,-32.9469 L -51.5729,-32.8532 L -51.2227,-32.7145 L -50.8925,-32.533
 L -50.5877,-32.3115 L -50.3131,-32.0536 L -50.0729,-31.7634 L -49.8711,-31.4453 L -49.7107,-31.1044 L -49.5942,-30.7461
 L -49.5237,-30.376 L -49.5,-30 L -49.5237,-29.624 L -49.5942,-29.2539 L -49.7107,-28.8956 L -49.8711,-28.5547
 L -50.0729,-28.2366 L -50.3131,-27.9464 L -50.5877,-27.6884 L -50.8925,-27.467 L -51.2227,-27.2855 L -51.5729,-27.1468
 L -51.9379,-27.0531 L -52.3116,-27.0059 z
M -82.6884,-27.0059 L -83.0621,-27.0531 L -83.427,-27.1468 L -83.7773,-27.2855 L -84.1075,-27.467 L -84.4123,-27.6884
 L -84.6869,-27.9464 L -84.927,-28.2366 L -85.1289,-28.5547 L -85.2893,-28.8956 L -85.4057,-29.2539 L -85.4763,-29.624
 L -85.5,-30 L -85.4763,-30.376 L -85.4057,-30.7461 L -85.2893,-31.1044 L -85.1289,-31.4453 L -84.927,-31.7634
 L -84.6869,-32.0536 L -84.4123,-32.3115 L -84.1075,-32.533 L -83.7773,-32.7145 L -83.427,-32.8532 L -83.0621,-32.9469
 L -82.6884,-32.9941 L -82.3116,-32.9941 L -81.9379,-32.9469 L -81.573,-32.8532 L -81.2227,-32.7145 L -80.8925,-32.533
 L -80.5877,-32.3115 L -80.3131,-32.0536 L -80.073,-31.7634 L -79.8711,-31.4453 L -79.7107,-31.1044 L -79.5943,-30.7461
 L -79.5237,-30.376 L -79.5,-30 L -79.5237,-29.624 L -79.5943,-29.2539 L -79.7107,-28.8956 L -79.8711,-28.5547
 L -80.073,-28.2366 L -80.3131,-27.9464 L -80.5877,-27.6884 L -80.8925,-27.467 L -81.2227,-27.2855 L -81.573,-27.1468
 L -81.9379,-27.0531 L -82.3116,-27.0059 z
M 82.3116,-27.0059 L 81.9379,-27.0531 L 81.573,-27.1468 L 81.2227,-27.2855 L 80.8925,-27.467 L 80.5877,-27.6884
 L 80.3131,-27.9464 L 80.073,-28.2366 L 79.8711,-28.5547 L 79.7107,-28.8956 L 79.5943,-29.2539 L 79.5237,-29.624
 L 79.5,-30 L 79.5237,-30.376 L 79.5943,-30.7461 L 79.7107,-31.1044 L 79.8711,-31.4453 L 80.073,-31.7634
 L 80.3131,-32.0536 L 80.5877,-32.3115 L 80.8925,-32.533 L 81.2227,-32.7145 L 81.573,-32.8532 L 81.9379,-32.9469
 L 82.3116,-32.9941 L 82.6884,-32.9941 L 83.0621,-32.9469 L 83.427,-32.8532 L 83.7773,-32.7145 L 84.1075,-32.533
 L 84.4123,-32.3115 L 84.6869,-32.0536 L 84.927,-31.7634 L 85.1289,-31.4453 L 85.2893,-31.1044 L 85.4057,-30.7461
 L 85.4763,-30.376 L 85.5,-30 L 85.4763,-29.624 L 85.4057,-29.2539 L 85.2893,-28.8956 L 85.1289,-28.5547
 L 84.927,-28.2366 L 84.6869,-27.9464 L 84.4123,-27.6884 L 84.1075,-27.467 L 83.7773,-27.2855 L 83.427,-27.1468
 L 83.0621,-27.0531 L 82.6884,-27.0059 z
M 97.3116,-27.0059 L 96.9379,-27.0531 L 96.573,-27.1468 L 96.2227,-27.2855 L 95.8925,-27.467 L 95.5877,-27.6884
 L 95.3131,-27.9464 L 95.073,-28.2366 L 94.8711,-28.5547 L 94.7107,-28.8956 L 94.5943,-29.2539 L 94.5237,-29.624
 L 94.5,-30 L 94.5237,-30.376 L 94.5943,-30.7461 L 94.7107,-31.1044 L 94.8711,-31.4453 L 95.073,-31.7634
 L 95.3131,-32.0536 L 95.5877,-32.3115 L 95.8925,-32.533 L 96.2227,-32.7145 L 96.573,-32.8532 L 96.9379,-32.9469
 L 97.3116,-32.9941 L 97.6884,-32.9941 L 98.0621,-32.9469 L 98.427,-32.8532 L 98.7773,-32.7145 L 99.1075,-32.533
 L 99.4123,-32.3115 L 99.6869,-32.0536 L 99.927,-31.7634 L 100.129,-31.4453 L 100.289,-31.1044 L 100.406,-30.7461
 L 100.476,-30.376 L 100.5,-30 L 100.476,-29.624 L 100.406,-29.2539 L 100.289,-28.8956 L 100.129,-28.5547
 L 99.927,-28.2366 L 99.6869,-27.9464 L 99.4123,-27.6884 L 99.1075,-27.467 L 98.7773,-27.2855 L 98.427,-27.1468
 L 98.0621,-27.0531 L 97.6884,-27.0059 z
M 127.312,-27.0059 L 126.938,-27.0531 L 126.573,-27.1468 L 126.223,-27.2855 L 125.893,-27.467 L 125.588,-27.6884
 L 125.313,-27.9464 L 125.073,-28.2366 L 124.871,-28.5547 L 124.711,-28.8956 L 124.594,-29.2539 L 124.524,-29.624
 L 124.5,-30 L 124.524,-30.376 L 124.594,-30.7461 L 124.711,-31.1044 L 124.871,-31.4453 L 125.073,-31.7634
 L 125.313,-32.0536 L 125.588,-32.3115 L 125.893,-32.533 L 126.223,-32.7145 L 126.573,-32.8532 L 126.938,-32.9469
 L 127.312,-32.9941 L 127.688,-32.9941 L 128.062,-32.9469 L 128.427,-32.8532 L 128.777,-32.7145 L 129.107,-32.533
 L 129.412,-32.3115 L 129.687,-32.0536 L 129.927,-31.7634 L 130.129,-31.4453 L 130.289,-31.1044 L 130.406,-30.7461
 L 130.476,-30.376 L 130.5,-30 L 130.476,-29.624 L 130.406,-29.2539 L 130.289,-28.8956 L 130.129,-28.5547
 L 129.927,-28.2366 L 129.687,-27.9464 L 129.412,-27.6884 L 129.107,-27.467 L 128.777,-27.2855 L 128.427,-27.1468
 L 128.062,-27.0531 L 127.688,-27.0059 z
M -22.6884,-27.0059 L -23.0621,-27.0531 L -23.427,-27.1468 L -23.7773,-27.2855 L -24.1075,-27.467 L -24.4123,-27.6884
 L -24.6869,-27.9464 L -24.927,-28.2366 L -25.1289,-28.5547 L -25.2893,-28.8956 L -25.4057,-29.2539 L -25.4763,-29.624
 L -25.5,-30 L -25.4763,-30.376 L -25.4057,-30.7461 L -25.2893,-31.1044 L -25.1289,-31.4453 L -24.927,-31.7634
 L -24.6869,-32.0536 L -24.4123,-32.3115 L -24.1075,-32.533 L -23.7773,-32.7145 L -23.427,-32.8532 L -23.0621,-32.9469
 L -22.6884,-32.9941 L -22.3116,-32.9941 L -21.9379,-32.9469 L -21.5729,-32.8532 L -21.2227,-32.7145 L -20.8925,-32.533
 L -20.5877,-32.3115 L -20.3131,-32.0536 L -20.0729,-31.7634 L -19.8711,-31.4453 L -19.7107,-31.1044 L -19.5942,-30.7461
 L -19.5237,-30.376 L -19.5,-30 L -19.5237,-29.624 L -19.5942,-29.2539 L -19.7107,-28.8956 L -19.8711,-28.5547
 L -20.0729,-28.2366 L -20.3131,-27.9464 L -20.5877,-27.6884 L -20.8925,-27.467 L -21.2227,-27.2855 L -21.5729,-27.1468
 L -21.9379,-27.0531 L -22.3116,-27.0059 z
M 52.3116,-27.0059 L 51.9379,-27.0531 L 51.5729,-27.1468 L 51.2227,-27.2855 L 50.8925,-27.467 L 50.5877,-27.6884
 L 50.3131,-27.9464 L 50.0729,-28.2366 L 49.8711,-28.5547 L 49.7107,-28.8956 L 49.5942,-29.2539 L 49.5237,-29.624
 L 49.5,-30 L 49.5237,-30.376 L 49.5942,-30.7461 L 49.7107,-31.1044 L 49.8711,-31.4453 L 50.0729,-31.7634
 L 50.3131,-32.0536 L 50.5877,-32.3115 L 50.8925,-32.533 L 51.2227,-32.7145 L 51.5729,-32.8532 L 51.9379,-32.9469
 L 52.3116,-32.9941 L 52.6884,-32.9941 L 53.0621,-32.9469 L 53.427,-32.8532 L 53.7773,-32.7145 L 54.1075,-32.533
 L 54.4123,-32.3115 L 54.6869,-32.0536 L 54.927,-31.7634 L 55.1289,-31.4453 L 55.2893,-31.1044 L 55.4057,-30.7461
 L 55.4763,-30.376 L 55.5,-30 L 55.4763,-29.624 L 55.4057,-29.2539 L 55.2893,-28.8956 L 55.1289,-28.5547
 L 54.927,-28.2366 L 54.6869,-27.9464 L 54.4123,-27.6884 L 54.1075,-27.467 L 53.7773,-27.2855 L 53.427,-27.1468
 L 53.0621,-27.0531 L 52.6884,-27.0059 z
M 7.31161,-27.0059 L 6.93785,-27.0531 L 6.57294,-27.1468 L 6.22266,-27.2855 L 5.89252,-27.467 L 5.58772,-27.6884
 L 5.31308,-27.9464 L 5.07294,-28.2366 L 4.87108,-28.5547 L 4.71066,-28.8956 L 4.59424,-29.2539 L 4.52365,-29.624
 L 4.5,-30 L 4.52365,-30.376 L 4.59424,-30.7461 L 4.71066,-31.1044 L 4.87108,-31.4453 L 5.07294,-31.7634
 L 5.31308,-32.0536 L 5.58772,-32.3115 L 5.89252,-32.533 L 6.22266,-32.7145 L 6.57294,-32.8532 L 6.93785,-32.9469
 L 7.31161,-32.9941 L 7.68837,-32.9941 L 8.06213,-32.9469 L 8.42705,-32.8532 L 8.77733,-32.7145 L 9.10747,-32.533
 L 9.41226,-32.3115 L 9.6869,-32.0536 L 9.92705,-31.7634 L 10.1289,-31.4453 L 10.2893,-31.1044 L 10.4057,-30.7461
 L 10.4763,-30.376 L 10.5,-30 L 10.4763,-29.624 L 10.4057,-29.2539 L 10.2893,-28.8956 L 10.1289,-28.5547
 L 9.92705,-28.2366 L 9.6869,-27.9464 L 9.41226,-27.6884 L 9.10747,-27.467 L 8.77733,-27.2855 L 8.42705,-27.1468
 L 8.06213,-27.0531 L 7.68837,-27.0059 z
M -127.688,-27.0059 L -128.062,-27.0531 L -128.427,-27.1468 L -128.777,-27.2855 L -129.107,-27.467 L -129.412,-27.6884
 L -129.687,-27.9464 L -129.927,-28.2366 L -130.129,-28.5547 L -130.289,-28.8956 L -130.406,-29.2539 L -130.476,-29.624
 L -130.5,-30 L -130.476,-30.376 L -130.406,-30.7461 L -130.289,-31.1044 L -130.129,-31.4453 L -129.927,-31.7634
 L -129.687,-32.0536 L -129.412,-32.3115 L -129.107,-32.533 L -128.777,-32.7145 L -128.427,-32.8532 L -128.062,-32.9469
 L -127.688,-32.9941 L -127.312,-32.9941 L -126.938,-32.9469 L -126.573,-32.8532 L -126.223,-32.7145 L -125.893,-32.533
 L -125.588,-32.3115 L -125.313,-32.0536 L -125.073,-31.7634 L -124.871,-31.4453 L -124.711,-31.1044 L -124.594,-30.7461
 L -124.524,-30.376 L -124.5,-30 L -124.524,-29.624 L -124.594,-29.2539 L -124.711,-28.8956 L -124.871,-28.5547
 L -125.073,-28.2366 L -125.313,-27.9464 L -125.588,-27.6884 L -125.893,-27.467 L -126.223,-27.2855 L -126.573,-27.1468
 L -126.938,-27.0531 L -127.312,-27.0059 z
M -97.6884,-27.0059 L -98.0621,-27.0531 L -98.427,-27.1468 L -98.7773,-27.2855 L -99.1075,-27.467 L -99.4123,-27.6884
 L -99.6869,-27.9464 L -99.927,-28.2366 L -100.129,-28.5547 L -100.289,-28.8956 L -100.406,-29.2539 L -100.476,-29.624
 L -100.5,-30 L -100.476,-30.376 L -100.406,-30.7461 L -100.289,-31.1044 L -100.129,-31.4453 L -99.927,-31.7634
 L -99.6869,-32.0536 L -99.4123,-32.3115 L -99.1075,-32.533 L -98.7773,-32.7145 L -98.427,-32.8532 L -98.0621,-32.9469
 L -97.6884,-32.9941 L -97.3116,-32.9941 L -96.9379,-32.9469 L -96.573,-32.8532 L -96.2227,-32.7145 L -95.8925,-32.533
 L -95.5877,-32.3115 L -95.3131,-32.0536 L -95.073,-31.7634 L -94.8711,-31.4453 L -94.7107,-31.1044 L -94.5943,-30.7461
 L -94.5237,-30.376 L -94.5,-30 L -94.5237,-29.624 L -94.5943,-29.2539 L -94.7107,-28.8956 L -94.8711,-28.5547
 L -95.073,-28.2366 L -95.3131,-27.9464 L -95.5877,-27.6884 L -95.8925,-27.467 L -96.2227,-27.2855 L -96.573,-27.1468
 L -96.9379,-27.0531 L -97.3116,-27.0059 z
M -142.688,-27.0059 L -143.062,-27.0531 L -143.427,-27.1468 L -143.777,-27.2855 L -144.107,-27.467 L -144.412,-27.6884
 L -144.687,-27.9464 L -144.927,-28.2366 L -145.129,-28.5547 L -145.289,-28.8956 L -145.406,-29.2539 L -145.476,-29.624
 L -145.5,-30 L -145.476,-30.376 L -145.406,-30.7461 L -145.289,-31.1044 L -145.129,-31.4453 L -144.927,-31.7634
 L -144.687,-32.0536 L -144.412,-32.3115 L -144.107,-32.533 L -143.777,-32.7145 L -143.427,-32.8532 L -143.062,-32.9469
 L -142.688,-32.9941 L -142.312,-32.9941 L -141.938,-32.9469 L -141.573,-32.8532 L -141.223,-32.7145 L -140.893,-32.533
 L -140.588,-32.3115 L -140.313,-32.0536 L -140.073,-31.7634 L -139.871,-31.4453 L -139.711,-31.1044 L -139.594,-30.7461
 L -139.524,-30.376 L -139.5,-30 L -139.524,-29.624 L -139.594,-29.2539 L -139.711,-28.8956 L -139.871,-28.5547
 L -140.073,-28.2366 L -140.313,-27.9464 L -140.588,-27.6884 L -140.893,-27.467 L -141.223,-27.2855 L -141.573,-27.1468
 L -141.938,-27.0531 L -142.312,-27.0059 z
M 67.3116,-27.0059 L 66.9379,-27.0531 L 66.573,-27.1468 L 66.2227,-27.2855 L 65.8925,-27.467 L 65.5877,-27.6884
 L 65.3131,-27.9464 L 65.073,-28.2366 L 64.8711,-28.5547 L 64.7107,-28.8956 L 64.5943,-29.2539 L 64.5237,-29.624
 L 64.5,-30 L 64.5237,-30.376 L 64.5943,-30.7461 L 64.7107,-31.1044 L 64.8711,-31.4453 L 65.073,-31.7634
 L 65.3131,-32.0536 L 65.5877,-32.3115 L 65.8925,-32.533 L 66.2227,-32.7145 L 66.573,-32.8532 L 66.9379,-32.9469
 L 67.3116,-32.9941 L 67.6884,-32.9941 L 68.0621,-32.9469 L 68.427,-32.8532 L 68.7773,-32.7145 L 69.1075,-32.533
 L 69.4123,-32.3115 L 69.6869,-32.0536 L 69.927,-31.7634 L 70.1289,-31.4453 L 70.2893,-31.1044 L 70.4057,-30.7461
 L 70.4763,-30.376 L 70.5,-30 L 70.4763,-29.624 L 70.4057,-29.2539 L 70.2893,-28.8956 L 70.1289,-28.5547
 L 69.927,-28.2366 L 69.6869,-27.9464 L 69.4123,-27.6884 L 69.1075,-27.467 L 68.7773,-27.2855 L 68.427,-27.1468
 L 68.0621,-27.0531 L 67.6884,-27.0059 z
M -112.688,-27.0059 L -113.062,-27.0531 L -113.427,-27.1468 L -113.777,-27.2855 L -114.107,-27.467 L -114.412,-27.6884
 L -114.687,-27.9464 L -114.927,-28.2366 L -115.129,-28.5547 L -115.289,-28.8956 L -115.406,-29.2539 L -115.476,-29.624
 L -115.5,-30 L -115.476,-30.376 L -115.406,-30.7461 L -115.289,-31.1044 L -115.129,-31.4453 L -114.927,-31.7634
 L -114.687,-32.0536 L -114.412,-32.3115 L -114.107,-32.533 L -113.777,-32.7145 L -113.427,-32.8532 L -113.062,-32.9469
 L -112.688,-32.9941 L -112.312,-32.9941 L -111.938,-32.9469 L -111.573,-32.8532 L -111.223,-32.7145 L -110.893,-32.533
 L -110.588,-32.3115 L -110.313,-32.0536 L -110.073,-31.7634 L -109.871,-31.4453 L -109.711,-31.1044 L -109.594,-30.7461
 L -109.524,-30.376 L -109.5,-30 L -109.524,-29.624 L -109.594,-29.2539 L -109.711,-28.8956 L -109.871,-28.5547
 L -110.073,-28.2366 L -110.313,-27.9464 L -110.588,-27.6884 L -110.893,-27.467 L -111.223,-27.2855 L -111.573,-27.1468
 L -111.938,-27.0531 L -112.312,-27.0059 z
M 142.312,-27.0059 L 141.938,-27.0531 L 141.573,-27.1468 L 141.223,-27.2855 L 140.893,-27.467 L 140.588,-27.6884
 L 140.313,-27.9464 L 140.073,-28.2366 L 139.871,-28.5547 L 139.711,-28.8956 L 139.594,-29.2539 L 139.524,-29.624
 L 139.5,-30 L 139.524,-30.376 L 139.594,-30.7461 L 139.711,-31.1044 L 139.871,-31.4453 L 140.073,-31.7634
 L 140.313,-32.0536 L 140.588,-32.3115 L 140.893,-32.533 L 141.223,-32.7145 L 141.573,-32.8532 L 141.938,-32.9469
 L 142.312,-32.9941 L 142.688,-32.9941 L 143.062,-32.9469 L 143.427,-32.8532 L 143.777,-32.7145 L 144.107,-32.533
 L 144.412,-32.3115 L 144.687,-32.0536 L 144.927,-31.7634 L 145.129,-31.4453 L 145.289,-31.1044 L 145.406,-30.7461
 L 145.476,-30.376 L 145.5,-30 L 145.476,-29.624 L 145.406,-29.2539 L 145.289,-28.8956 L 145.129,-28.5547
 L 144.927,-28.2366 L 144.687,-27.9464 L 144.412,-27.6884 L 144.107,-27.467 L 143.777,-27.2855 L 143.427,-27.1468
 L 143.062,-27.0531 L 142.688,-27.0059 z
M -67.6884,-27.0059 L -68.0621,-27.0531 L -68.427,-27.1468 L -68.7773,-27.2855 L -69.1075,-27.467 L -69.4123,-27.6884
 L -69.6869,-27.9464 L -69.927,-28.2366 L -70.1289,-28.5547 L -70.2893,-28.8956 L -70.4057,-29.2539 L -70.4763,-29.624
 L -70.5,-30 L -70.4763,-30.376 L -70.4057,-30.7461 L -70.2893,-31.1044 L -70.1289,-31.4453 L -69.927,-31.7634
 L -69.6869,-32.0536 L -69.4123,-32.3115 L -69.1075,-32.533 L -68.7773,-32.7145 L -68.427,-32.8532 L -68.0621,-32.9469
 L -67.6884,-32.9941 L -67.3116,-32.9941 L -66.9379,-32.9469 L -66.573,-32.8532 L -66.2227,-32.7145 L -65.8925,-32.533
 L -65.5877,-32.3115 L -65.3131,-32.0536 L -65.073,-31.7634 L -64.8711,-31.4453 L -64.7107,-31.1044 L -64.5943,-30.7461
 L -64.5237,-30.376 L -64.5,-30 L -64.5237,-29.624 L -64.5943,-29.2539 L -64.7107,-28.8956 L -64.8711,-28.5547
 L -65.073,-28.2366 L -65.3131,-27.9464 L -65.5877,-27.6884 L -65.8925,-27.467 L -66.2227,-27.2855 L -66.573,-27.1468
 L -66.9379,-27.0531 L -67.3116,-27.0059 z
M -37.6884,-27.0059 L -38.0621,-27.0531 L -38.427,-27.1468 L -38.7773,-27.2855 L -39.1075,-27.467 L -39.4123,-27.6884
 L -39.6869,-27.9464 L -39.927,-28.2366 L -40.1289,-28.5547 L -40.2893,-28.8956 L -40.4057,-29.2539 L -40.4763,-29.624
 L -40.5,-30 L -40.4763,-30.376 L -40.4057,-30.7461 L -40.2893,-31.1044 L -40.1289,-31.4453 L -39.927,-31.7634
 L -39.6869,-32.0536 L -39.4123,-32.3115 L -39.1075,-32.533 L -38.7773,-32.7145 L -38.427,-32.8532 L -38.0621,-32.9469
 L -37.6884,-32.9941 L -37.3116,-32.9941 L -36.9379,-32.9469 L -36.5729,-32.8532 L -36.2227,-32.7145 L -35.8925,-32.533
 L -35.5877,-32.3115 L -35.3131,-32.0536 L -35.0729,-31.7634 L -34.8711,-31.4453 L -34.7107,-31.1044 L -34.5942,-30.7461
 L -34.5237,-30.376 L -34.5,-30 L -34.5237,-29.624 L -34.5942,-29.2539 L -34.7107,-28.8956 L -34.8711,-28.5547
 L -35.0729,-28.2366 L -35.3131,-27.9464 L -35.5877,-27.6884 L -35.8925,-27.467 L -36.2227,-27.2855 L -36.5729,-27.1468
 L -36.9379,-27.0531 L -37.3116,-27.0059 z
M 37.3116,-27.0059 L 36.9379,-27.0531 L 36.5729,-27.1468 L 36.2227,-27.2855 L 35.8925,-27.467 L 35.5877,-27.6884
 L 35.3131,-27.9464 L 35.0729,-28.2366 L 34.8711,-28.5547 L 34.7107,-28.8956 L 34.5942,-29.2539 L 34.5237,-29.624
 L 34.5,-30 L 34.5237,-30.376 L 34.5942,-30.7461 L 34.7107,-31.1044 L 34.8711,-31.4453 L 35.0729,-31.7634
 L 35.3131,-32.0536 L 35.5877,-32.3115 L 35.8925,-32.533 L 36.2227,-32.7145 L 36.5729,-32.8532 L 36.9379,-32.9469
 L 37.3116,-32.9941 L 37.6884,-32.9941 L 38.0621,-32.9469 L 38.427,-32.8532 L 38.7773,-32.7145 L 39.1075,-32.533
 L 39.4123,-32.3115 L 39.6869,-32.0536 L 39.927,-31.7634 L 40.1289,-31.4453 L 40.2893,-31.1044 L 40.4057,-30.7461
 L 40.4763,-30.376 L 40.5,-30 L 40.4763,-29.624 L 40.4057,-29.2539 L 40.2893,-28.8956 L 40.1289,-28.5547
 L 39.927,-28.2366 L 39.6869,-27.9464 L 39.4123,-27.6884 L 39.1075,-27.467 L 38.7773,-27.2855 L 38.427,-27.1468
 L 38.0621,-27.0531 L 37.6884,-27.0059 z
M 112.312,-27.0059 L 111.938,-27.0531 L 111.573,-27.1468 L 111.223,-27.2855 L 110.893,-27.467 L 110.588,-27.6884
 L 110.313,-27.9464 L 110.073,-28.2366 L 109.871,-28.5547 L 109.711,-28.8956 L 109.594,-29.2539 L 109.524,-29.624
 L 109.5,-30 L 109.524,-30.376 L 109.594,-30.7461 L 109.711,-31.1044 L 109.871,-31.4453 L 110.073,-31.7634
 L 110.313,-32.0536 L 110.588,-32.3115 L 110.893,-32.533 L 111.223,-32.7145 L 111.573,-32.8532 L 111.938,-32.9469
 L 112.312,-32.9941 L 112.688,-32.9941 L 113.062,-32.9469 L 113.427,-32.8532 L 113.777,-32.7145 L 114.107,-32.533
 L 114.412,-32.3115 L 114.687,-32.0536 L 114.927,-31.7634 L 115.129,-31.4453 L 115.289,-31.1044 L 115.406,-30.7461
 L 115.476,-30.376 L 115.5,-30 L 115.476,-29.624 L 115.406,-29.2539 L 115.289,-28.8956 L 115.129,-28.5547
 L 114.927,-28.2366 L 114.687,-27.9464 L 114.412,-27.6884 L 114.107,-27.467 L 113.777,-27.2855 L 113.427,-27.1468
 L 113.062,-27.0531 L 112.688,-27.0059 z
M -7.68837,-27.0059 L -8.06213,-27.0531 L -8.42705,-27.1468 L -8.77733,-27.2855 L -9.10747,-27.467 L -9.41226,-27.6884
 L -9.6869,-27.9464 L -9.92705,-28.2366 L -10.1289,-28.5547 L -10.2893,-28.8956 L -10.4057,-29.2539 L -10.4763,-29.624
 L -10.5,-30 L -10.4763,-30.376 L -10.4057,-30.7461 L -10.2893,-31.1044 L -10.1289,-31.4453 L -9.92705,-31.7634
 L -9.6869,-32.0536 L -9.41226,-32.3115 L -9.10747,-32.533 L -8.77733,-32.7145 L -8.42705,-32.8532 L -8.06213,-32.9469
 L -7.68837,-32.9941 L -7.31161,-32.9941 L -6.93785,-32.9469 L -6.57294,-32.8532 L -6.22266,-32.7145 L -5.89252,-32.533
 L -5.58772,-32.3115 L -5.31308,-32.0536 L -5.07294,-31.7634 L -4.87108,-31.4453 L -4.71066,-31.1044 L -4.59424,-30.7461
 L -4.52365,-30.376 L -4.5,-30 L -4.52365,-29.624 L -4.59424,-29.2539 L -4.71066,-28.8956 L -4.87108,-28.5547
 L -5.07294,-28.2366 L -5.31308,-27.9464 L -5.58772,-27.6884 L -5.89252,-27.467 L -6.22266,-27.2855 L -6.57294,-27.1468
 L -6.93785,-27.0531 L -7.31161,-27.0059 z
M 22.3116,-27.0059 L 21.9379,-27.0531 L 21.5729,-27.1468 L 21.2227,-27.2855 L 20.8925,-27.467 L 20.5877,-27.6884
 L 20.3131,-27.9464 L 20.0729,-28.2366 L 19.8711,-28.5547 L 19.7107,-28.8956 L 19.5942,-29.2539 L 19.5237,-29.624
 L 19.5,-30 L 19.5237,-30.376 L 19.5942,-30.7461 L 19.7107,-31.1044 L 19.8711,-31.4453 L 20.0729,-31.7634
 L 20.3131,-32.0536 L 20.5877,-32.3115 L 20.8925,-32.533 L 21.2227,-32.7145 L 21.5729,-32.8532 L 21.9379,-32.9469
 L 22.3116,-32.9941 L 22.6884,-32.9941 L 23.0621,-32.9469 L 23.427,-32.8532 L 23.7773,-32.7145 L 24.1075,-32.533
 L 24.4123,-32.3115 L 24.6869,-32.0536 L 24.927,-31.7634 L 25.1289,-31.4453 L 25.2893,-31.1044 L 25.4057,-30.7461
 L 25.4763,-30.376 L 25.5,-30 L 25.4763,-29.624 L 25.4057,-29.2539 L 25.2893,-28.8956 L 25.1289,-28.5547
 L 24.927,-28.2366 L 24.6869,-27.9464 L 24.4123,-27.6884 L 24.1075,-27.467 L 23.7773,-27.2855 L 23.427,-27.1468
 L 23.0621,-27.0531 L 22.6884,-27.0059 z
M -0.0941772,-28.503 L -0.281067,-28.5266 L -0.463516,-28.5734 L -0.638657,-28.6427 L -0.803726,-28.7335 L -0.956131,-28.8442
 L -1.09344,-28.9732 L -1.21352,-29.1183 L -1.31445,-29.2774 L -1.39465,-29.4478 L -1.45287,-29.627 L -1.48816,-29.812
 L -1.5,-30 L -1.48816,-30.188 L -1.45287,-30.373 L -1.39465,-30.5522 L -1.31445,-30.7226 L -1.21352,-30.8817
 L -1.09344,-31.0268 L -0.956131,-31.1558 L -0.803726,-31.2665 L -0.638657,-31.3572 L -0.463516,-31.4266 L -0.281067,-31.4734
 L -0.0941772,-31.497 L 0.0941772,-31.497 L 0.281067,-31.4734 L 0.463516,-31.4266 L 0.638657,-31.3572 L 0.803726,-31.2665
 L 0.956131,-31.1558 L 1.09344,-31.0268 L 1.21352,-30.8817 L 1.31445,-30.7226 L 1.39465,-30.5522 L 1.45287,-30.373
 L 1.48816,-30.188 L 1.5,-30 L 1.48816,-29.812 L 1.45287,-29.627 L 1.39465,-29.4478 L 1.31445,-29.2774
 L 1.21352,-29.1183 L 1.09344,-28.9732 L 0.956131,-28.8442 L 0.803726,-28.7335 L 0.638657,-28.6427 L 0.463516,-28.5734
 L 0.281067,-28.5266 L 0.0941772,-28.503 z
M 59.9058,-28.503 L 59.7189,-28.5266 L 59.5365,-28.5734 L 59.3613,-28.6427 L 59.1963,-28.7335 L 59.0439,-28.8442
 L 58.9065,-28.9732 L 58.7865,-29.1183 L 58.6855,-29.2774 L 58.6053,-29.4478 L 58.5471,-29.627 L 58.5118,-29.812
 L 58.5,-30 L 58.5118,-30.188 L 58.5471,-30.373 L 58.6053,-30.5522 L 58.6855,-30.7226 L 58.7865,-30.8817
 L 58.9065,-31.0268 L 59.0439,-31.1558 L 59.1963,-31.2665 L 59.3613,-31.3572 L 59.5365,-31.4266 L 59.7189,-31.4734
 L 59.9058,-31.497 L 60.0942,-31.497 L 60.2811,-31.4734 L 60.4635,-31.4266 L 60.6387,-31.3572 L 60.8037,-31.2665
 L 60.9561,-31.1558 L 61.0934,-31.0268 L 61.2135,-30.8817 L 61.3145,-30.7226 L 61.3947,-30.5522 L 61.4529,-30.373
 L 61.4882,-30.188 L 61.5,-30 L 61.4882,-29.812 L 61.4529,-29.627 L 61.3947,-29.4478 L 61.3145,-29.2774
 L 61.2135,-29.1183 L 61.0934,-28.9732 L 60.9561,-28.8442 L 60.8037,-28.7335 L 60.6387,-28.6427 L 60.4635,-28.5734
 L 60.2811,-28.5266 L 60.0942,-28.503 z
M -60.0942,-28.503 L -60.2811,-28.5266 L -60.4635,-28.5734 L -60.6387,-28.6427 L -60.8037,-28.7335 L -60.9561,-28.8442
 L -61.0934,-28.9732 L -61.2135,-29.1183 L -61.3145,-29.2774 L -61.3947,-29.4478 L -61.4529,-29.627 L -61.4882,-29.812
 L -61.5,-30 L -61.4882,-30.188 L -61.4529,-30.373 L -61.3947,-30.5522 L -61.3145,-30.7226 L -61.2135,-30.8817
 L -61.0934,-31.0268 L -60.9561,-31.1558 L -60.8037,-31.2665 L -60.6387,-31.3572 L -60.4635,-31.4266 L -60.2811,-31.4734
 L -60.0942,-31.497 L -59.9058,-31.497 L -59.7189,-31.4734 L -59.5365,-31.4266 L -59.3613,-31.3572 L -59.1963,-31.2665
 L -59.0439,-31.1558 L -58.9065,-31.0268 L -58.7865,-30.8817 L -58.6855,-30.7226 L -58.6053,-30.5522 L -58.5471,-30.373
 L -58.5118,-30.188 L -58.5,-30 L -58.5118,-29.812 L -58.5471,-29.627 L -58.6053,-29.4478 L -58.6855,-29.2774
 L -58.7865,-29.1183 L -58.9065,-28.9732 L -59.0439,-28.8442 L -59.1963,-28.7335 L -59.3613,-28.6427 L -59.5365,-28.5734
 L -59.7189,-28.5266 L -59.9058,-28.503 z
M 74.9058,-28.503 L 74.7189,-28.5266 L 74.5365,-28.5734 L 74.3613,-28.6427 L 74.1963,-28.7335 L 74.0439,-28.8442
 L 73.9065,-28.9732 L 73.7865,-29.1183 L 73.6855,-29.2774 L 73.6053,-29.4478 L 73.5471,-29.627 L 73.5118,-29.812
 L 73.5,-30 L 73.5118,-30.188 L 73.5471,-30.373 L 73.6053,-30.5522 L 73.6855,-30.7226 L 73.7865,-30.8817
 L 73.9065,-31.0268 L 74.0439,-31.1558 L 74.1963,-31.2665 L 74.3613,-31.3572 L 74.5365,-31.4266 L 74.7189,-31.4734
 L 74.9058,-31.497 L 75.0942,-31.497 L 75.2811,-31.4734 L 75.4635,-31.4266 L 75.6387,-31.3572 L 75.8037,-31.2665
 L 75.9561,-31.1558 L 76.0934,-31.0268 L 76.2135,-30.8817 L 76.3145,-30.7226 L 76.3947,-30.5522 L 76.4529,-30.373
 L 76.4882,-30.188 L 76.5,-30 L 76.4882,-29.812 L 76.4529,-29.627 L 76.3947,-29.4478 L 76.3145,-29.2774
 L 76.2135,-29.1183 L 76.0934,-28.9732 L 75.9561,-28.8442 L 75.8037,-28.7335 L 75.6387,-28.6427 L 75.4635,-28.5734
 L 75.2811,-28.5266 L 75.0942,-28.503 z
M 89.9058,-28.503 L 89.7189,-28.5266 L 89.5365,-28.5734 L 89.3613,-28.6427 L 89.1963,-28.7335 L 89.0439,-28.8442
 L 88.9065,-28.9732 L 88.7865,-29.1183 L 88.6855,-29.2774 L 88.6053,-29.4478 L 88.5471,-29.627 L 88.5118,-29.812
 L 88.5,-30 L 88.5118,-30.188 L 88.5471,-30.373 L 88.6053,-30.5522 L 88.6855,-30.7226 L 88.7865,-30.8817
 L 88.9065,-31.0268 L 89.0439,-31.1558 L 89.1963,-31.2665 L 89.3613,-31.3572 L 89.5365,-31.4266 L 89.7189,-31.4734
 L 89.9058,-31.497 L 90.0942,-31.497 L 90.2811,-31.4734 L 90.4635,-31.4266 L 90.6387,-31.3572 L 90.8037,-31.2665
 L 90.9561,-31.1558 L 91.0934,-31.0268 L 91.2135,-30.8817 L 91.3145,-30.7226 L 91.3947,-30.5522 L 91.4529,-30.373
 L 91.4882,-30.188 L 91.5,-30 L 91.4882,-29.812 L 91.4529,-29.627 L 91.3947,-29.4478 L 91.3145,-29.2774
 L 91.2135,-29.1183 L 91.0934,-28.9732 L 90.9561,-28.8442 L 90.8037,-28.7335 L 90.6387,-28.6427 L 90.4635,-28.5734
 L 90.2811,-28.5266 L 90.0942,-28.503 z
M -90.0942,-28.503 L -90.2811,-28.5266 L -90.4635,-28.5734 L -90.6387,-28.6427 L -90.8037,-28.7335 L -90.9561,-28.8442
 L -91.0934,-28.9732 L -91.2135,-29.1183 L -91.3145,-29.2774 L -91.3947,-29.4478 L -91.4529,-29.627 L -91.4882,-29.812
 L -91.5,-30 L -91.4882,-30.188 L -91.4529,-30.373 L -91.3947,-30.5522 L -91.3145,-30.7226 L -91.2135,-30.8817
 L -91.0934,-31.0268 L -90.9561,-31.1558 L -90.8037,-31.2665 L -90.6387,-31.3572 L -90.4635,-31.4266 L -90.2811,-31.4734
 L -90.0942,-31.497 L -89.9058,-31.497 L -89.7189,-31.4734 L -89.5365,-31.4266 L -89.3613,-31.3572 L -89.1963,-31.2665
 L -89.0439,-31.1558 L -88.9065,-31.0268 L -88.7865,-30.8817 L -88.6855,-30.7226 L -88.6053,-30.5522 L -88.5471,-30.373
 L -88.5118,-30.188 L -88.5,-30 L -88.5118,-29.812 L -88.5471,-29.627 L -88.6053,-29.4478 L -88.6855,-29.2774
 L -88.7865,-29.1183 L -88.9065,-28.9732 L -89.0439,-28.8442 L -89.1963,-28.7335 L -89.3613,-28.6427 L -89.5365,-28.5734
 L -89.7189,-28.5266 L -89.9058,-28.503 z
M 104.906,-28.503 L 104.719,-28.5266 L 104.536,-28.5734 L 104.361,-28.6427 L 104.196,-28.7335 L 104.044,-28.8442
 L 103.907,-28.9732 L 103.786,-29.1183 L 103.686,-29.2774 L 103.605,-29.4478 L 103.547,-29.627 L 103.512,-29.812
 L 103.5,-30 L 103.512,-30.188 L 103.547,-30.373 L 103.605,-30.5522 L 103.686,-30.7226 L 103.786,-30.8817
 L 103.907,-31.0268 L 104.044,-31.1558 L 104.196,-31.2665 L 104.361,-31.3572 L 104.536,-31.4266 L 104.719,-31.4734
 L 104.906,-31.497 L 105.094,-31.497 L 105.281,-31.4734 L 105.464,-31.4266 L 105.639,-31.3572 L 105.804,-31.2665
 L 105.956,-31.1558 L 106.093,-31.0268 L 106.214,-30.8817 L 106.314,-30.7226 L 106.395,-30.5522 L 106.453,-30.373
 L 106.488,-30.188 L 106.5,-30 L 106.488,-29.812 L 106.453,-29.627 L 106.395,-29.4478 L 106.314,-29.2774
 L 106.214,-29.1183 L 106.093,-28.9732 L 105.956,-28.8442 L 105.804,-28.7335 L 105.639,-28.6427 L 105.464,-28.5734
 L 105.281,-28.5266 L 105.094,-28.503 z
M 134.906,-28.503 L 134.719,-28.5266 L 134.536,-28.5734 L 134.361,-28.6427 L 134.196,-28.7335 L 134.044,-28.8442
 L 133.907,-28.9732 L 133.786,-29.1183 L 133.686,-29.2774 L 133.605,-29.4478 L 133.547,-29.627 L 133.512,-29.812
 L 133.5,-30 L 133.512,-30.188 L 133.547,-30.373 L 133.605,-30.5522 L 133.686,-30.7226 L 133.786,-30.8817
 L 133.907,-31.0268 L 134.044,-31.1558 L 134.196,-31.2665 L 134.361,-31.3572 L 134.536,-31.4266 L 134.719,-31.4734
 L 134.906,-31.497 L 135.094,-31.497 L 135.281,-31.4734 L 135.464,-31.4266 L 135.639,-31.3572 L 135.804,-31.2665
 L 135.956,-31.1558 L 136.093,-31.0268 L 136.214,-30.8817 L 136.314,-30.7226 L 136.395,-30.5522 L 136.453,-30.373
 L 136.488,-30.188 L 136.5,-30 L 136.488,-29.812 L 136.453,-29.627 L 136.395,-29.4478 L 136.314,-29.2774
 L 136.214,-29.1183 L 136.093,-28.9732 L 135.956,-28.8442 L 135.804,-28.7335 L 135.639,-28.6427 L 135.464,-28.5734
 L 135.281,-28.5266 L 135.094,-28.503 z
M 14.9058,-28.503 L 14.7189,-28.5266 L 14.5365,-28.5734 L 14.3613,-28.6427 L 14.1963,-28.7335 L 14.0439,-28.8442
 L 13.9065,-28.9732 L 13.7865,-29.1183 L 13.6855,-29.2774 L 13.6053,-29.4478 L 13.5471,-29.627 L 13.5118,-29.812
 L 13.5,-30 L 13.5118,-30.188 L 13.5471,-30.373 L 13.6053,-30.5522 L 13.6855,-30.7226 L 13.7865,-30.8817
 L 13.9065,-31.0268 L 14.0439,-31.1558 L 14.1963,-31.2665 L 14.3613,-31.3572 L 14.5365,-31.4266 L 14.7189,-31.4734
 L 14.9058,-31.497 L 15.0942,-31.497 L 15.2811,-31.4734 L 15.4635,-31.4266 L 15.6387,-31.3572 L 15.8037,-31.2665
 L 15.9561,-31.1558 L 16.0934,-31.0268 L 16.2135,-30.8817 L 16.3145,-30.7226 L 16.3947,-30.5522 L 16.4529,-30.373
 L 16.4882,-30.188 L 16.5,-30 L 16.4882,-29.812 L 16.4529,-29.627 L 16.3947,-29.4478 L 16.3145,-29.2774
 L 16.2135,-29.1183 L 16.0934,-28.9732 L 15.9561,-28.8442 L 15.8037,-28.7335 L 15.6387,-28.6427 L 15.4635,-28.5734
 L 15.2811,-28.5266 L 15.0942,-28.503 z
M -15.0942,-28.503 L -15.2811,-28.5266 L -15.4635,-28.5734 L -15.6387,-28.6427 L -15.8037,-28.7335 L -15.9561,-28.8442
 L -16.0934,-28.9732 L -16.2135,-29.1183 L -16.3145,-29.2774 L -16.3947,-29.4478 L -16.4529,-29.627 L -16.4882,-29.812
 L -16.5,-30 L -16.4882,-30.188 L -16.4529,-30.373 L -16.3947,-30.5522 L -16.3145,-30.7226 L -16.2135,-30.8817
 L -16.0934,-31.0268 L -15.9561,-31.1558 L -15.8037,-31.2665 L -15.6387,-31.3572 L -15.4635,-31.4266 L -15.2811,-31.4734
 L -15.0942,-31.497 L -14.9058,-31.497 L -14.7189,-31.4734 L -14.5365,-31.4266 L -14.3613,-31.3572 L -14.1963,-31.2665
 L -14.0439,-31.1558 L -13.9065,-31.0268 L -13.7865,-30.8817 L -13.6855,-30.7226 L -13.6053,-30.5522 L -13.5471,-30.373
 L -13.5118,-30.188 L -13.5,-30 L -13.5118,-29.812 L -13.5471,-29.627 L -13.6053,-29.4478 L -13.6855,-29.2774
 L -13.7865,-29.1183 L -13.9065,-28.9732 L -14.0439,-28.8442 L -14.1963,-28.7335 L -14.3613,-28.6427 L -14.5365,-28.5734
 L -14.7189,-28.5266 L -14.9058,-28.503 z
M -105.094,-28.503 L -105.281,-28.5266 L -105.464,-28.5734 L -105.639,-28.6427 L -105.804,-28.7335 L -105.956,-28.8442
 L -106.093,-28.9732 L -106.214,-29.1183 L -106.314,-29.2774 L -106.395,-29.4478 L -106.453,-29.627 L -106.488,-29.812
 L -106.5,-30 L -106.488,-30.188 L -106.453,-30.373 L -106.395,-30.5522 L -106.314,-30.7226 L -106.214,-30.8817
 L -106.093,-31.0268 L -105.956,-31.1558 L -105.804,-31.2665 L -105.639,-31.3572 L -105.464,-31.4266 L -105.281,-31.4734
 L -105.094,-31.497 L -104.906,-31.497 L -104.719,-31.4734 L -104.536,-31.4266 L -104.361,-31.3572 L -104.196,-31.2665
 L -104.044,-31.1558 L -103.907,-31.0268 L -103.786,-30.8817 L -103.686,-30.7226 L -103.605,-30.5522 L -103.547,-30.373
 L -103.512,-30.188 L -103.5,-30 L -103.512,-29.812 L -103.547,-29.627 L -103.605,-29.4478 L -103.686,-29.2774
 L -103.786,-29.1183 L -103.907,-28.9732 L -104.044,-28.8442 L -104.196,-28.7335 L -104.361,-28.6427 L -104.536,-28.5734
 L -104.719,-28.5266 L -104.906,-28.503 z
M -45.0942,-28.503 L -45.2811,-28.5266 L -45.4635,-28.5734 L -45.6387,-28.6427 L -45.8037,-28.7335 L -45.9561,-28.8442
 L -46.0934,-28.9732 L -46.2135,-29.1183 L -46.3145,-29.2774 L -46.3947,-29.4478 L -46.4529,-29.627 L -46.4882,-29.812
 L -46.5,-30 L -46.4882,-30.188 L -46.4529,-30.373 L -46.3947,-30.5522 L -46.3145,-30.7226 L -46.2135,-30.8817
 L -46.0934,-31.0268 L -45.9561,-31.1558 L -45.8037,-31.2665 L -45.6387,-31.3572 L -45.4635,-31.4266 L -45.2811,-31.4734
 L -45.0942,-31.497 L -44.9058,-31.497 L -44.7189,-31.4734 L -44.5365,-31.4266 L -44.3613,-31.3572 L -44.1963,-31.2665
 L -44.0439,-31.1558 L -43.9065,-31.0268 L -43.7865,-30.8817 L -43.6855,-30.7226 L -43.6053,-30.5522 L -43.5471,-30.373
 L -43.5118,-30.188 L -43.5,-30 L -43.5118,-29.812 L -43.5471,-29.627 L -43.6053,-29.4478 L -43.6855,-29.2774
 L -43.7865,-29.1183 L -43.9065,-28.9732 L -44.0439,-28.8442 L -44.1963,-28.7335 L -44.3613,-28.6427 L -44.5365,-28.5734
 L -44.7189,-28.5266 L -44.9058,-28.503 z
M -75.0942,-28.503 L -75.2811,-28.5266 L -75.4635,-28.5734 L -75.6387,-28.6427 L -75.8037,-28.7335 L -75.9561,-28.8442
 L -76.0934,-28.9732 L -76.2135,-29.1183 L -76.3145,-29.2774 L -76.3947,-29.4478 L -76.4529,-29.627 L -76.4882,-29.812
 L -76.5,-30 L -76.4882,-30.188 L -76.4529,-30.373 L -76.3947,-30.5522 L -76.3145,-30.7226 L -76.2135,-30.8817
 L -76.0934,-31.0268 L -75.9561,-31.1558 L -75.8037,-31.2665 L -75.6387,-31.3572 L -75.4635,-31.4266 L -75.2811,-31.4734
 L -75.0942,-31.497 L -74.9058,-31.497 L -74.7189,-31.4734 L -74.5365,-31.4266 L -74.3613,-31.3572 L -74.1963,-31.2665
 L -74.0439,-31.1558 L -73.9065,-31.0268 L -73.7865,-30.8817 L -73.6855,-30.7226 L -73.6053,-30.5522 L -73.5471,-30.373
 L -73.5118,-30.188 L -73.5,-30 L -73.5118,-29.812 L -73.5471,-29.627 L -73.6053,-29.4478 L -73.6855,-29.2774
 L -73.7865,-29.1183 L -73.9065,-28.9732 L -74.0439,-28.8442 L -74.1963,-28.7335 L -74.3613,-28.6427 L -74.5365,-28.5734
 L -74.7189,-28.5266 L -74.9058,-28.503 z
M -120.094,-28.503 L -120.281,-28.5266 L -120.464,-28.5734 L -120.639,-28.6427 L -120.804,-28.7335 L -120.956,-28.8442
 L -121.093,-28.9732 L -121.214,-29.1183 L -121.314,-29.2774 L -121.395,-29.4478 L -121.453,-29.627 L -121.488,-29.812
 L -121.5,-30 L -121.488,-30.188 L -121.453,-30.373 L -121.395,-30.5522 L -121.314,-30.7226 L -121.214,-30.8817
 L -121.093,-31.0268 L -120.956,-31.1558 L -120.804,-31.2665 L -120.639,-31.3572 L -120.464,-31.4266 L -120.281,-31.4734
 L -120.094,-31.497 L -119.906,-31.497 L -119.719,-31.4734 L -119.536,-31.4266 L -119.361,-31.3572 L -119.196,-31.2665
 L -119.044,-31.1558 L -118.907,-31.0268 L -118.786,-30.8817 L -118.686,-30.7226 L -118.605,-30.5522 L -118.547,-30.373
 L -118.512,-30.188 L -118.5,-30 L -118.512,-29.812 L -118.547,-29.627 L -118.605,-29.4478 L -118.686,-29.2774
 L -118.786,-29.1183 L -118.907,-28.9732 L -119.044,-28.8442 L -119.196,-28.7335 L -119.361,-28.6427 L -119.536,-28.5734
 L -119.719,-28.5266 L -119.906,-28.503 z
M 29.9058,-28.503 L 29.7189,-28.5266 L 29.5365,-28.5734 L 29.3613,-28.6427 L 29.1963,-28.7335 L 29.0439,-28.8442
 L 28.9065,-28.9732 L 28.7865,-29.1183 L 28.6855,-29.2774 L 28.6053,-29.4478 L 28.5471,-29.627 L 28.5118,-29.812
 L 28.5,-30 L 28.5118,-30.188 L 28.5471,-30.373 L 28.6053,-30.5522 L 28.6855,-30.7226 L 28.7865,-30.8817
 L 28.9065,-31.0268 L 29.0439,-31.1558 L 29.1963,-31.2665 L 29.3613,-31.3572 L 29.5365,-31.4266 L 29.7189,-31.4734
 L 29.9058,-31.497 L 30.0942,-31.497 L 30.2811,-31.4734 L 30.4635,-31.4266 L 30.6387,-31.3572 L 30.8037,-31.2665
 L 30.9561,-31.1558 L 31.0934,-31.0268 L 31.2135,-30.8817 L 31.3145,-30.7226 L 31.3947,-30.5522 L 31.4529,-30.373
 L 31.4882,-30.188 L 31.5,-30 L 31.4882,-29.812 L 31.4529,-29.627 L 31.3947,-29.4478 L 31.3145,-29.2774
 L 31.2135,-29.1183 L 31.0934,-28.9732 L 30.9561,-28.8442 L 30.8037,-28.7335 L 30.6387,-28.6427 L 30.4635,-28.5734
 L 30.2811,-28.5266 L 30.0942,-28.503 z
M 44.9058,-28.503 L 44.7189,-28.5266 L 44.5365,-28.5734 L 44.3613,-28.6427 L 44.1963,-28.7335 L 44.0439,-28.8442
 L 43.9065,-28.9732 L 43.7865,-29.1183 L 43.6855,-29.2774 L 43.6053,-29.4478 L 43.5471,-29.627 L 43.5118,-29.812
 L 43.5,-30 L 43.5118,-30.188 L 43.5471,-30.373 L 43.6053,-30.5522 L 43.6855,-30.7226 L 43.7865,-30.8817
 L 43.9065,-31.0268 L 44.0439,-31.1558 L 44.1963,-31.2665 L 44.3613,-31.3572 L 44.5365,-31.4266 L 44.7189,-31.4734
 L 44.9058,-31.497 L 45.0942,-31.497 L 45.2811,-31.4734 L 45.4635,-31.4266 L 45.6387,-31.3572 L 45.8037,-31.2665
 L 45.9561,-31.1558 L 46.0934,-31.0268 L 46.2135,-30.8817 L 46.3145,-30.7226 L 46.3947,-30.5522 L 46.4529,-30.373
 L 46.4882,-30.188 L 46.5,-30 L 46.4882,-29.812 L 46.4529,-29.627 L 46.3947,-29.4478 L 46.3145,-29.2774
 L 46.2135,-29.1183 L 46.0934,-28.9732 L 45.9561,-28.8442 L 45.8037,-28.7335 L 45.6387,-28.6427 L 45.4635,-28.5734
 L 45.2811,-28.5266 L 45.0942,-28.503 z
M -135.094,-28.503 L -135.281,-28.5266 L -135.464,-28.5734 L -135.639,-28.6427 L -135.804,-28.7335 L -135.956,-28.8442
 L -136.093,-28.9732 L -136.214,-29.1183 L -136.314,-29.2774 L -136.395,-29.4478 L -136.453,-29.627 L -136.488,-29.812
 L -136.5,-30 L -136.488,-30.188 L -136.453,-30.373 L -136.395,-30.5522 L -136.314,-30.7226 L -136.214,-30.8817
 L -136.093,-31.0268 L -135.956,-31.1558 L -135.804,-31.2665 L -135.639,-31.3572 L -135.464,-31.4266 L -135.281,-31.4734
 L -135.094,-31.497 L -134.906,-31.497 L -134.719,-31.4734 L -134.536,-31.4266 L -134.361,-31.3572 L -134.196,-31.2665
 L -134.044,-31.1558 L -133.907,-31.0268 L -133.786,-30.8817 L -133.686,-30.7226 L -133.605,-30.5522 L -133.547,-30.373
 L -133.512,-30.188 L -133.5,-30 L -133.512,-29.812 L -133.547,-29.627 L -133.605,-29.4478 L -133.686,-29.2774
 L -133.786,-29.1183 L -133.907,-28.9732 L -134.044,-28.8442 L -134.196,-28.7335 L -134.361,-28.6427 L -134.536,-28.5734
 L -134.719,-28.5266 L -134.906,-28.503 z
M 119.906,-28.503 L 119.719,-28.5266 L 119.536,-28.5734 L 119.361,-28.6427 L 119.196,-28.7335 L 119.044,-28.8442
 L 118.907,-28.9732 L 118.786,-29.1183 L 118.686,-29.2774 L 118.605,-29.4478 L 118.547,-29.627 L 118.512,-29.812
 L 118.5,-30 L 118.512,-30.188 L 118.547,-30.373 L 118.605,-30.5522 L 118.686,-30.7226 L 118.786,-30.8817
 L 118.907,-31.0268 L 119.044,-31.1558 L 119.196,-31.2665 L 119.361,-31.3572 L 119.536,-31.4266 L 119.719,-31.4734
 L 119.906,-31.497 L 120.094,-31.497 L 120.281,-31.4734 L 120.464,-31.4266 L 120.639,-31.3572 L 120.804,-31.2665
 L 120.956,-31.1558 L 121.093,-31.0268 L 121.214,-30.8817 L 121.314,-30.7226 L 121.395,-30.5522 L 121.453,-30.373
 L 121.488,-30.188 L 121.5,-30 L 121.488,-29.812 L 121.453,-29.627 L 121.395,-29.4478 L 121.314,-29.2774
 L 121.214,-29.1183 L 121.093,-28.9732 L 120.956,-28.8442 L 120.804,-28.7335 L 120.639,-28.6427 L 120.464,-28.5734
 L 120.281,-28.5266 L 120.094,-28.503 z
M -30.0942,-28.503 L -30.2811,-28.5266 L -30.4635,-28.5734 L -30.6387,-28.6427 L -30.8037,-28.7335 L -30.9561,-28.8442
 L -31.0934,-28.9732 L -31.2135,-29.1183 L -31.3145,-29.2774 L -31.3947,-29.4478 L -31.4529,-29.627 L -31.4882,-29.812
 L -31.5,-30 L -31.4882,-30.188 L -31.4529,-30.373 L -31.3947,-30.5522 L -31.3145,-30.7226 L -31.2135,-30.8817
 L -31.0934,-31.0268 L -30.9561,-31.1558 L -30.8037,-31.2665 L -30.6387,-31.3572 L -30.4635,-31.4266 L -30.2811,-31.4734
 L -30.0942,-31.497 L -29.9058,-31.497 L -29.7189,-31.4734 L -29.5365,-31.4266 L -29.3613,-31.3572 L -29.1963,-31.2665
 L -29.0439,-31.1558 L -28.9065,-31.0268 L -28.7865,-30.8817 L -28.6855,-30.7226 L -28.6053,-30.5522 L -28.5471,-30.373
 L -28.5118,-30.188 L -28.5,-30 L -28.5118,-29.812 L -28.5471,-29.627 L -28.6053,-29.4478 L -28.6855,-29.2774
 L -28.7865,-29.1183 L -28.9065,-28.9732 L -29.0439,-28.8442 L -29.1963,-28.7335 L -29.3613,-28.6427 L -29.5365,-28.5734
 L -29.7189,-28.5266 L -29.9058,-28.503 z
M -1.56975,24.9507 L -4.68452,24.5572 L -7.72542,23.7764 L -10.6445,22.6207 L -13.3957,21.1082 L -15.9356,19.2628
 L -18.2242,17.1137 L -20.2254,14.6946 L -21.9077,12.0438 L -23.2444,9.20311 L -24.2146,6.21724 L -24.8029,3.13332
 L -25,-0 L -24.8029,-3.13332 L -24.2146,-6.21724 L -23.2444,-9.20311 L -21.9077,-12.0438 L -20.2254,-14.6946
 L -18.2242,-17.1137 L -15.9356,-19.2628 L -13.3957,-21.1082 L -10.6445,-22.6207 L -7.72542,-23.7764 L -4.68452,-24.5572
 L -1.56975,-24.9507 L 1.56975,-24.9507 L 4.68452,-24.5572 L 7.72542,-23.7764 L 10.6445,-22.6207 L 13.3957,-21.1082
 L 15.9356,-19.2628 L 18.2242,-17.1137 L 20.2254,-14.6946 L 21.9077,-12.0438 L 23.2444,-9.20311 L 24.2146,-6.21724
 L 24.8029,-3.13332 L 25,-0 L 24.8029,3.13332 L 24.2146,6.21724 L 23.2444,9.20311 L 21.9077,12.0438
 L 20.2254,14.6946 L 18.2242,17.1137 L 15.9356,19.2628 L 13.3957,21.1082 L 10.6445,22.6207 L 7.72542,23.7764
 L 4.68452,24.5572 L 1.56975,24.9507 z
M -76.9077,-12.0438 L -75.2254,-14.6946 L -73.2242,-17.1137 L -70.9356,-19.2628 L -68.3957,-21.1082 L -65.6445,-22.6207
 L -62.7254,-23.7764 L -59.6845,-24.5572 L -56.5698,-24.9507 L -53.4302,-24.9507 L -50.3155,-24.5572 L -47.2746,-23.7764
 L -44.3555,-22.6207 L -41.6043,-21.1082 L -39.0644,-19.2628 L -36.7758,-17.1137 L -34.7746,-14.6946 L -33.0923,-12.0438
 L -31.7556,-9.20311 L -30.7854,-6.21724 L -30.1971,-3.13332 L -30,-0 L -30.1971,3.13332 L -30.7854,6.21724
 L -31.7556,9.20311 L -33.0923,12.0438 L -34.7746,14.6946 L -36.7758,17.1137 L -39.0644,19.2628 L -41.6043,21.1082
 L -44.3555,22.6207 L -47.2746,23.7764 L -50.3155,24.5572 L -53.4302,24.9507 L -56.5698,24.9507 L -59.6845,24.5572
 L -62.7254,23.7764 L -65.6445,22.6207 L -68.3957,21.1082 L -70.9356,19.2628 L -73.2242,17.1137 L -75.2254,14.6946
 L -76.9077,12.0438 L -78.2444,9.20311 L -79.2146,6.21724 L -79.8029,3.13332 L -80,-0 L -79.8029,-3.13332
 L -79.2146,-6.21724 L -78.2444,-9.20311 z
M 108.43,24.9507 L 105.315,24.5572 L 102.275,23.7764 L 99.3555,22.6207 L 96.6043,21.1082 L 94.0644,19.2628
 L 91.7758,17.1137 L 89.7746,14.6946 L 88.0923,12.0438 L 86.7556,9.20311 L 85.7854,6.21724 L 85.1971,3.13332
 L 85,-0 L 85.1971,-3.13332 L 85.7854,-6.21724 L 86.7556,-9.20311 L 88.0923,-12.0438 L 89.7746,-14.6946
 L 91.7758,-17.1137 L 94.0644,-19.2628 L 96.6043,-21.1082 L 99.3555,-22.6207 L 102.275,-23.7764 L 105.315,-24.5572
 L 108.43,-24.9507 L 111.57,-24.9507 L 114.685,-24.5572 L 117.725,-23.7764 L 120.644,-22.6207 L 123.396,-21.1082
 L 125.936,-19.2628 L 128.224,-17.1137 L 130.225,-14.6946 L 131.908,-12.0438 L 133.244,-9.20311 L 134.215,-6.21724
 L 134.803,-3.13332 L 135,-0 L 134.803,3.13332 L 134.215,6.21724 L 133.244,9.20311 L 131.908,12.0438
 L 130.225,14.6946 L 128.224,17.1137 L 125.936,19.2628 L 123.396,21.1082 L 120.644,22.6207 L 117.725,23.7764
 L 114.685,24.5572 L 111.57,24.9507 z
M 53.4302,24.9507 L 50.3155,24.5572 L 47.2746,23.7764 L 44.3555,22.6207 L 41.6043,21.1082 L 39.0644,19.2628
 L 36.7758,17.1137 L 34.7746,14.6946 L 33.0923,12.0438 L 31.7556,9.20311 L 30.7854,6.21724 L 30.1971,3.13332
 L 30,-0 L 30.1971,-3.13332 L 30.7854,-6.21724 L 31.7556,-9.20311 L 33.0923,-12.0438 L 34.7746,-14.6946
 L 36.7758,-17.1137 L 39.0644,-19.2628 L 41.6043,-21.1082 L 44.3555,-22.6207 L 47.2746,-23.7764 L 50.3155,-24.5572
 L 53.4302,-24.9507 L 56.5698,-24.9507 L 59.6845,-24.5572 L 62.7254,-23.7764 L 65.6445,-22.6207 L 68.3957,-21.1082
 L 70.9356,-19.2628 L 73.2242,-17.1137 L 75.2254,-14.6946 L 76.9077,-12.0438 L 78.2444,-9.20311 L 79.2146,-6.21724
 L 79.8029,-3.13332 L 80,-0 L 79.8029,3.13332 L 79.2146,6.21724 L 78.2444,9.20311 L 76.9077,12.0438
 L 75.2254,14.6946 L 73.2242,17.1137 L 70.9356,19.2628 L 68.3957,21.1082 L 65.6445,22.6207 L 62.7254,23.7764
 L 59.6845,24.5572 L 56.5698,24.9507 z
M -142.594,-21.003 L -142.781,-21.0266 L -142.964,-21.0734 L -143.139,-21.1427 L -143.304,-21.2335 L -143.456,-21.3442
 L -143.593,-21.4732 L -143.714,-21.6183 L -143.814,-21.7774 L -143.895,-21.9478 L -143.953,-22.127 L -143.988,-22.312
 L -144,-22.5 L -143.988,-22.688 L -143.953,-22.873 L -143.895,-23.0522 L -143.814,-23.2226 L -143.714,-23.3817
 L -143.593,-23.5268 L -143.456,-23.6558 L -143.304,-23.7665 L -143.139,-23.8572 L -142.964,-23.9266 L -142.781,-23.9734
 L -142.594,-23.997 L -142.406,-23.997 L -142.219,-23.9734 L -142.036,-23.9266 L -141.861,-23.8572 L -141.696,-23.7665
 L -141.544,-23.6558 L -141.407,-23.5268 L -141.286,-23.3817 L -141.186,-23.2226 L -141.105,-23.0522 L -141.047,-22.873
 L -141.012,-22.688 L -141,-22.5 L -141.012,-22.312 L -141.047,-22.127 L -141.105,-21.9478 L -141.186,-21.7774
 L -141.286,-21.6183 L -141.407,-21.4732 L -141.544,-21.3442 L -141.696,-21.2335 L -141.861,-21.1427 L -142.036,-21.0734
 L -142.219,-21.0266 L -142.406,-21.003 z
M 142.406,-21.003 L 142.219,-21.0266 L 142.036,-21.0734 L 141.861,-21.1427 L 141.696,-21.2335 L 141.544,-21.3442
 L 141.407,-21.4732 L 141.286,-21.6183 L 141.186,-21.7774 L 141.105,-21.9478 L 141.047,-22.127 L 141.012,-22.312
 L 141,-22.5 L 141.012,-22.688 L 141.047,-22.873 L 141.105,-23.0522 L 141.186,-23.2226 L 141.286,-23.3817
 L 141.407,-23.5268 L 141.544,-23.6558 L 141.696,-23.7665 L 141.861,-23.8572 L 142.036,-23.9266 L 142.219,-23.9734
 L 142.406,-23.997 L 142.594,-23.997 L 142.781,-23.9734 L 142.964,-23.9266 L 143.139,-23.8572 L 143.304,-23.7665
 L 143.456,-23.6558 L 143.593,-23.5268 L 143.714,-23.3817 L 143.814,-23.2226 L 143.895,-23.0522 L 143.953,-22.873
 L 143.988,-22.688 L 144,-22.5 L 143.988,-22.312 L 143.953,-22.127 L 143.895,-21.9478 L 143.814,-21.7774
 L 143.714,-21.6183 L 143.593,-21.4732 L 143.456,-21.3442 L 143.304,-21.2335 L 143.139,-21.1427 L 142.964,-21.0734
 L 142.781,-21.0266 L 142.594,-21.003 z
M 142.312,-12.0059 L 141.938,-12.0531 L 141.573,-12.1468 L 141.223,-12.2855 L 140.893,-12.467 L 140.588,-12.6884
 L 140.313,-12.9464 L 140.073,-13.2366 L 139.871,-13.5547 L 139.711,-13.8956 L 139.594,-14.2539 L 139.524,-14.624
 L 139.5,-15 L 139.524,-15.376 L 139.594,-15.7461 L 139.711,-16.1044 L 139.871,-16.4453 L 140.073,-16.7634
 L 140.313,-17.0536 L 140.588,-17.3115 L 140.893,-17.533 L 141.223,-17.7145 L 141.573,-17.8532 L 141.938,-17.9469
 L 142.312,-17.9941 L 142.688,-17.9941 L 143.062,-17.9469 L 143.427,-17.8532 L 143.777,-17.7145 L 144.107,-17.533
 L 144.412,-17.3115 L 144.687,-17.0536 L 144.927,-16.7634 L 145.129,-16.4453 L 145.289,-16.1044 L 145.406,-15.7461
 L 145.476,-15.376 L 145.5,-15 L 145.476,-14.624 L 145.406,-14.2539 L 145.289,-13.8956 L 145.129,-13.5547
 L 144.927,-13.2366 L 144.687,-12.9464 L 144.412,-12.6884 L 144.107,-12.467 L 143.777,-12.2855 L 143.427,-12.1468
 L 143.062,-12.0531 L 142.688,-12.0059 z
M -142.688,-12.0059 L -143.062,-12.0531 L -143.427,-12.1468 L -143.777,-12.2855 L -144.107,-12.467 L -144.412,-12.6884
 L -144.687,-12.9464 L -144.927,-13.2366 L -145.129,-13.5547 L -145.289,-13.8956 L -145.406,-14.2539 L -145.476,-14.624
 L -145.5,-15 L -145.476,-15.376 L -145.406,-15.7461 L -145.289,-16.1044 L -145.129,-16.4453 L -144.927,-16.7634
 L -144.687,-17.0536 L -144.412,-17.3115 L -144.107,-17.533 L -143.777,-17.7145 L -143.427,-17.8532 L -143.062,-17.9469
 L -142.688,-17.9941 L -142.312,-17.9941 L -141.938,-17.9469 L -141.573,-17.8532 L -141.223,-17.7145 L -140.893,-17.533
 L -140.588,-17.3115 L -140.313,-17.0536 L -140.073,-16.7634 L -139.871,-16.4453 L -139.711,-16.1044 L -139.594,-15.7461
 L -139.524,-15.376 L -139.5,-15 L -139.524,-14.624 L -139.594,-14.2539 L -139.711,-13.8956 L -139.871,-13.5547
 L -140.073,-13.2366 L -140.313,-12.9464 L -140.588,-12.6884 L -140.893,-12.467 L -141.223,-12.2855 L -141.573,-12.1468
 L -141.938,-12.0531 L -142.312,-12.0059 z
M 142.406,-6.00294 L 142.219,-6.02657 L 142.036,-6.07341 L 141.861,-6.14275 L 141.696,-6.23351 L 141.544,-6.34422
 L 141.407,-6.47318 L 141.286,-6.61832 L 141.186,-6.77736 L 141.105,-6.9478 L 141.047,-7.12695 L 141.012,-7.312
 L 141,-7.5 L 141.012,-7.68799 L 141.047,-7.87303 L 141.105,-8.05219 L 141.186,-8.22263 L 141.286,-8.38167
 L 141.407,-8.52681 L 141.544,-8.65576 L 141.696,-8.76648 L 141.861,-8.85724 L 142.036,-8.92657 L 142.219,-8.97342
 L 142.406,-8.99704 L 142.594,-8.99704 L 142.781,-8.97342 L 142.964,-8.92657 L 143.139,-8.85724 L 143.304,-8.76648
 L 143.456,-8.65576 L 143.593,-8.52681 L 143.714,-8.38167 L 143.814,-8.22263 L 143.895,-8.05219 L 143.953,-7.87303
 L 143.988,-7.68799 L 144,-7.5 L 143.988,-7.312 L 143.953,-7.12695 L 143.895,-6.9478 L 143.814,-6.77736
 L 143.714,-6.61832 L 143.593,-6.47318 L 143.456,-6.34422 L 143.304,-6.23351 L 143.139,-6.14275 L 142.964,-6.07341
 L 142.781,-6.02657 L 142.594,-6.00294 z
M -142.594,-6.00294 L -142.781,-6.02657 L -142.964,-6.07341 L -143.139,-6.14275 L -143.304,-6.23351 L -143.456,-6.34422
 L -143.593,-6.47318 L -143.714,-6.61832 L -143.814,-6.77736 L -143.895,-6.9478 L -143.953,-7.12695 L -143.988,-7.312
 L -144,-7.5 L -143.988,-7.68799 L -143.953,-7.87303 L -143.895,-8.05219 L -143.814,-8.22263 L -143.714,-8.38167
 L -143.593,-8.52681 L -143.456,-8.65576 L -143.304,-8.76648 L -143.139,-8.85724 L -142.964,-8.92657 L -142.781,-8.97342
 L -142.594,-8.99704 L -142.406,-8.99704 L -142.219,-8.97342 L -142.036,-8.92657 L -141.861,-8.85724 L -141.696,-8.76648
 L -141.544,-8.65576 L -141.407,-8.52681 L -141.286,-8.38167 L -141.186,-8.22263 L -141.105,-8.05219 L -141.047,-7.87303
 L -141.012,-7.68799 L -141,-7.5 L -141.012,-7.312 L -141.047,-7.12695 L -141.105,-6.9478 L -141.186,-6.77736
 L -141.286,-6.61832 L -141.407,-6.47318 L -141.544,-6.34422 L -141.696,-6.23351 L -141.861,-6.14275 L -142.036,-6.07341
 L -142.219,-6.02657 L -142.406,-6.00294 z
M 142.312,2.99408 L 141.938,2.94685 L 141.573,2.85316 L 141.223,2.71448 L 140.893,2.53297 L 140.588,2.31154
 L 140.313,2.05363 L 140.073,1.76335 L 139.871,1.44525 L 139.711,1.10437 L 139.594,0.746063 L 139.524,0.375992
 L 139.5,-0 L 139.524,-0.375992 L 139.594,-0.746063 L 139.711,-1.10437 L 139.871,-1.44525 L 140.073,-1.76335
 L 140.313,-2.05363 L 140.588,-2.31154 L 140.893,-2.53297 L 141.223,-2.71448 L 141.573,-2.85316 L 141.938,-2.94685
 L 142.312,-2.99408 L 142.688,-2.99408 L 143.062,-2.94685 L 143.427,-2.85316 L 143.777,-2.71448 L 144.107,-2.53297
 L 144.412,-2.31154 L 144.687,-2.05363 L 144.927,-1.76335 L 145.129,-1.44525 L 145.289,-1.10437 L 145.406,-0.746063
 L 145.476,-0.375992 L 145.5,-0 L 145.476,0.375992 L 145.406,0.746063 L 145.289,1.10437 L 145.129,1.44525
 L 144.927,1.76335 L 144.687,2.05363 L 144.412,2.31154 L 144.107,2.53297 L 143.777,2.71448 L 143.427,2.85316
 L 143.062,2.94685 L 142.688,2.99408 z
M -142.688,2.99408 L -143.062,2.94685 L -143.427,2.85316 L -143.777,2.71448 L -144.107,2.53297 L -144.412,2.31154
 L -144.687,2.05363 L -144.927,1.76335 L -145.129,1.44525 L -145.289,1.10437 L -145.406,0.746063 L -145.476,0.375992
 L -145.5,-0 L -145.476,-0.375992 L -145.406,-0.746063 L -145.289,-1.10437 L -145.129,-1.44525 L -144.927,-1.76335
 L -144.687,-2.05363 L -144.412,-2.31154 L -144.107,-2.53297 L -143.777,-2.71448 L -143.427,-2.85316 L -143.062,-2.94685
 L -142.688,-2.99408 L -142.312,-2.99408 L -141.938,-2.94685 L -141.573,-2.85316 L -141.223,-2.71448 L -140.893,-2.53297
 L -140.588,-2.31154 L -140.313,-2.05363 L -140.073,-1.76335 L -139.871,-1.44525 L -139.711,-1.10437 L -139.594,-0.746063
 L -139.524,-0.375992 L -139.5,-0 L -139.524,0.375992 L -139.594,0.746063 L -139.711,1.10437 L -139.871,1.44525
 L -140.073,1.76335 L -140.313,2.05363 L -140.588,2.31154 L -140.893,2.53297 L -141.223,2.71448 L -141.573,2.85316
 L -141.938,2.94685 L -142.312,2.99408 z
M -142.594,8.99704 L -142.781,8.97342 L -142.964,8.92657 L -143.139,8.85724 L -143.304,8.76648 L -143.456,8.65576
 L -143.593,8.52681 L -143.714,8.38167 L -143.814,8.22263 L -143.895,8.05219 L -143.953,7.87303 L -143.988,7.68799
 L -144,7.5 L -143.988,7.312 L -143.953,7.12695 L -143.895,6.9478 L -143.814,6.77736 L -143.714,6.61832
 L -143.593,6.47318 L -143.456,6.34422 L -143.304,6.23351 L -143.139,6.14275 L -142.964,6.07341 L -142.781,6.02657
 L -142.594,6.00294 L -142.406,6.00294 L -142.219,6.02657 L -142.036,6.07341 L -141.861,6.14275 L -141.696,6.23351
 L -141.544,6.34422 L -141.407,6.47318 L -141.286,6.61832 L -141.186,6.77736 L -141.105,6.9478 L -141.047,7.12695
 L -141.012,7.312 L -141,7.5 L -141.012,7.68799 L -141.047,7.87303 L -141.105,8.05219 L -141.186,8.22263
 L -141.286,8.38167 L -141.407,8.52681 L -141.544,8.65576 L -141.696,8.76648 L -141.861,8.85724 L -142.036,8.92657
 L -142.219,8.97342 L -142.406,8.99704 z
M 142.406,8.99704 L 142.219,8.97342 L 142.036,8.92657 L 141.861,8.85724 L 141.696,8.76648 L 141.544,8.65576
 L 141.407,8.52681 L 141.286,8.38167 L 141.186,8.22263 L 141.105,8.05219 L 141.047,7.87303 L 141.012,7.68799
 L 141,7.5 L 141.012,7.312 L 141.047,7.12695 L 141.105,6.9478 L 141.186,6.77736 L 141.286,6.61832
 L 141.407,6.47318 L 141.544,6.34422 L 141.696,6.23351 L 141.861,6.14275 L 142.036,6.07341 L 142.219,6.02657
 L 142.406,6.00294 L 142.594,6.00294 L 142.781,6.02657 L 142.964,6.07341 L 143.139,6.14275 L 143.304,6.23351
 L 143.456,6.34422 L 143.593,6.47318 L 143.714,6.61832 L 143.814,6.77736 L 143.895,6.9478 L 143.953,7.12695
 L 143.988,7.312 L 144,7.5 L 143.988,7.68799 L 143.953,7.87303 L 143.895,8.05219 L 143.814,8.22263
 L 143.714,8.38167 L 143.593,8.52681 L 143.456,8.65576 L 143.304,8.76648 L 143.139,8.85724 L 142.964,8.92657
 L 142.781,8.97342 L 142.594,8.99704 z
M 142.312,17.9941 L 141.938,17.9469 L 141.573,17.8532 L 141.223,17.7145 L 140.893,17.533 L 140.588,17.3115
 L 140.313,17.0536 L 140.073,16.7634 L 139.871,16.4453 L 139.711,16.1044 L 139.594,15.7461 L 139.524,15.376
 L 139.5,15 L 139.524,14.624 L 139.594,14.2539 L 139.711,13.8956 L 139.871,13.5547 L 140.073,13.2366
 L 140.313,12.9464 L 140.588,12.6884 L 140.893,12.467 L 141.223,12.2855 L 141.573,12.1468 L 141.938,12.0531
 L 142.312,12.0059 L 142.688,12.0059 L 143.062,12.0531 L 143.427,12.1468 L 143.777,12.2855 L 144.107,12.467
 L 144.412,12.6884 L 144.687,12.9464 L 144.927,13.2366 L 145.129,13.5547 L 145.289,13.8956 L 145.406,14.2539
 L 145.476,14.624 L 145.5,15 L 145.476,15.376 L 145.406,15.7461 L 145.289,16.1044 L 145.129,16.4453
 L 144.927,16.7634 L 144.687,17.0536 L 144.412,17.3115 L 144.107,17.533 L 143.777,17.7145 L 143.427,17.8532
 L 143.062,17.9469 L 142.688,17.9941 z
M -142.688,17.9941 L -143.062,17.9469 L -143.427,17.8532 L -143.777,17.7145 L -144.107,17.533 L -144.412,17.3115
 L -144.687,17.0536 L -144.927,16.7634 L -145.129,16.4453 L -145.289,16.1044 L -145.406,15.7461 L -145.476,15.376
 L -145.5,15 L -145.476,14.624 L -145.406,14.2539 L -145.289,13.8956 L -145.129,13.5547 L -144.927,13.2366
 L -144.687,12.9464 L -144.412,12.6884 L -144.107,12.467 L -143.777,12.2855 L -143.427,12.1468 L -143.062,12.0531
 L -142.688,12.0059 L -142.312,12.0059 L -141.938,12.0531 L -141.573,12.1468 L -141.223,12.2855 L -140.893,12.467
 L -140.588,12.6884 L -140.313,12.9464 L -140.073,13.2366 L -139.871,13.5547 L -139.711,13.8956 L -139.594,14.2539
 L -139.524,14.624 L -139.5,15 L -139.524,15.376 L -139.594,15.7461 L -139.711,16.1044 L -139.871,16.4453
 L -140.073,16.7634 L -140.313,17.0536 L -140.588,17.3115 L -140.893,17.533 L -141.223,17.7145 L -141.573,17.8532
 L -141.938,17.9469 L -142.312,17.9941 z
M 142.406,23.997 L 142.219,23.9734 L 142.036,23.9266 L 141.861,23.8572 L 141.696,23.7665 L 141.544,23.6558
 L 141.407,23.5268 L 141.286,23.3817 L 141.186,23.2226 L 141.105,23.0522 L 141.047,22.873 L 141.012,22.688
 L 141,22.5 L 141.012,22.312 L 141.047,22.127 L 141.105,21.9478 L 141.186,21.7774 L 141.286,21.6183
 L 141.407,21.4732 L 141.544,21.3442 L 141.696,21.2335 L 141.861,21.1427 L 142.036,21.0734 L 142.219,21.0266
 L 142.406,21.003 L 142.594,21.003 L 142.781,21.0266 L 142.964,21.0734 L 143.139,21.1427 L 143.304,21.2335
 L 143.456,21.3442 L 143.593,21.4732 L 143.714,21.6183 L 143.814,21.7774 L 143.895,21.9478 L 143.953,22.127
 L 143.988,22.312 L 144,22.5 L 143.988,22.688 L 143.953,22.873 L 143.895,23.0522 L 143.814,23.2226
 L 143.714,23.3817 L 143.593,23.5268 L 143.456,23.6558 L 143.304,23.7665 L 143.139,23.8572 L 142.964,23.9266
 L 142.781,23.9734 L 142.594,23.997 z
M -142.594,23.997 L -142.781,23.9734 L -142.964,23.9266 L -143.139,23.8572 L -143.304,23.7665 L -143.456,23.6558
 L -143.593,23.5268 L -143.714,23.3817 L -143.814,23.2226 L -143.895,23.0522 L -143.953,22.873 L -143.988,22.688
 L -144,22.5 L -143.988,22.312 L -143.953,22.127 L -143.895,21.9478 L -143.814,21.7774 L -143.714,21.6183
 L -143.593,21.4732 L -143.456,21.3442 L -143.304,21.2335 L -143.139,21.1427 L -142.964,21.0734 L -142.781,21.0266
 L -142.594,21.003 L -142.406,21.003 L -142.219,21.0266 L -142.036,21.0734 L -141.861,21.1427 L -141.696,21.2335
 L -141.544,21.3442 L -141.407,21.4732 L -141.286,21.6183 L -141.186,21.7774 L -141.105,21.9478 L -141.047,22.127
 L -141.012,22.312 L -141,22.5 L -141.012,22.688 L -141.047,22.873 L -141.105,23.0522 L -141.186,23.2226
 L -141.286,23.3817 L -141.407,23.5268 L -141.544,23.6558 L -141.696,23.7665 L -141.861,23.8572 L -142.036,23.9266
 L -142.219,23.9734 L -142.406,23.997 z
M -112.688,32.9941 L -113.062,32.9469 L -113.427,32.8532 L -113.777,32.7145 L -114.107,32.533 L -114.412,32.3115
 L -114.687,32.0536 L -114.927,31.7634 L -115.129,31.4453 L -115.289,31.1044 L -115.406,30.7461 L -115.476,30.376
 L -115.5,30 L -115.476,29.624 L -115.406,29.2539 L -115.289,28.8956 L -115.129,28.5547 L -114.927,28.2366
 L -114.687,27.9464 L -114.412,27.6884 L -114.107,27.467 L -113.777,27.2855 L -113.427,27.1468 L -113.062,27.0531
 L -112.688,27.0059 L -112.312,27.0059 L -111.938,27.0531 L -111.573,27.1468 L -111.223,27.2855 L -110.893,27.467
 L -110.588,27.6884 L -110.313,27.9464 L -110.073,28.2366 L -109.871,28.5547 L -109.711,28.8956 L -109.594,29.2539
 L -109.524,29.624 L -109.5,30 L -109.524,30.376 L -109.594,30.7461 L -109.711,31.1044 L -109.871,31.4453
 L -110.073,31.7634 L -110.313,32.0536 L -110.588,32.3115 L -110.893,32.533 L -111.223,32.7145 L -111.573,32.8532
 L -111.938,32.9469 L -112.312,32.9941 z
M 142.312,32.9941 L 141.938,32.9469 L 141.573,32.8532 L 141.223,32.7145 L 140.893,32.533 L 140.588,32.3115
 L 140.313,32.0536 L 140.073,31.7634 L 139.871,31.4453 L 139.711,31.1044 L 139.594,30.7461 L 139.524,30.376
 L 139.5,30 L 139.524,29.624 L 139.594,29.2539 L 139.711,28.8956 L 139.871,28.5547 L 140.073,28.2366
 L 140.313,27.9464 L 140.588,27.6884 L 140.893,27.467 L 141.223,27.2855 L 141.573,27.1468 L 141.938,27.0531
 L 142.312,27.0059 L 142.688,27.0059 L 143.062,27.0531 L 143.427,27.1468 L 143.777,27.2855 L 144.107,27.467
 L 144.412,27.6884 L 144.687,27.9464 L 144.927,28.2366 L 145.129,28.5547 L 145.289,28.8956 L 145.406,29.2539
 L 145.476,29.624 L 145.5,30 L 145.476,30.376 L 145.406,30.7461 L 145.289,31.1044 L 145.129,31.4453
 L 144.927,31.7634 L 144.687,32.0536 L 144.412,32.3115 L 144.107,32.533 L 143.777,32.7145 L 143.427,32.8532
 L 143.062,32.9469 L 142.688,32.9941 z
M -37.6884,32.9941 L -38.0621,32.9469 L -38.427,32.8532 L -38.7773,32.7145 L -39.1075,32.533 L -39.4123,32.3115
 L -39.6869,32.0536 L -39.927,31.7634 L -40.1289,31.4453 L -40.2893,31.1044 L -40.4057,30.7461 L -40.4763,30.376
 L -40.5,30 L -40.4763,29.624 L -40.4057,29.2539 L -40.2893,28.8956 L -40.1289,28.5547 L -39.927,28.2366
 L -39.6869,27.9464 L -39.4123,27.6884 L -39.1075,27.467 L -38.7773,27.2855 L -38.427,27.1468 L -38.0621,27.0531
 L -37.6884,27.0059 L -37.3116,27.0059 L -36.9379,27.0531 L -36.5729,27.1468 L -36.2227,27.2855 L -35.8925,27.467
 L -35.5877,27.6884 L -35.3131,27.9464 L -35.0729,28.2366 L -34.8711,28.5547 L -34.7107,28.8956 L -34.5942,29.2539
 L -34.5237,29.624 L -34.5,30 L -34.5237,30.376 L -34.5942,30.7461 L -34.7107,31.1044 L -34.8711,31.4453
 L -35.0729,31.7634 L -35.3131,32.0536 L -35.5877,32.3115 L -35.8925,32.533 L -36.2227,32.7145 L -36.5729,32.8532
 L -36.9379,32.9469 L -37.3116,32.9941 z
M -97.6884,32.9941 L -98.0621,32.9469 L -98.427,32.8532 L -98.7773,32.7145 L -99.1075,32.533 L -99.4123,32.3115
 L -99.6869,32.0536 L -99.927,31.7634 L -100.129,31.4453 L -100.289,31.1044 L -100.406,30.7461 L -100.476,30.376
 L -100.5,30 L -100.476,29.624 L -100.406,29.2539 L -100.289,28.8956 L -100.129,28.5547 L -99.927,28.2366
 L -99.6869,27.9464 L -99.4123,27.6884 L -99.1075,27.467 L -98.7773,27.2855 L -98.427,27.1468 L -98.0621,27.0531
 L -97.6884,27.0059 L -97.3116,27.0059 L -96.9379,27.0531 L -96.573,27.1468 L -96.2227,27.2855 L -95.8925,27.467
 L -95.5877,27.6884 L -95.3131,27.9464 L -95.073,28.2366 L -94.8711,28.5547 L -94.7107,28.8956 L -94.5943,29.2539
 L -94.5237,29.624 L -94.5,30 L -94.5237,30.376 L -94.5943,30.7461 L -94.7107,31.1044 L -94.8711,31.4453
 L -95.073,31.7634 L -95.3131,32.0536 L -95.5877,32.3115 L -95.8925,32.533 L -96.2227,32.7145 L -96.573,32.8532
 L -96.9379,32.9469 L -97.3116,32.9941 z
M -127.688,32.9941 L -128.062,32.9469 L -128.427,32.8532 L -128.777,32.7145 L -129.107,32.533 L -129.412,32.3115
 L -129.687,32.0536 L -129.927,31.7634 L -130.129,31.4453 L -130.289,31.1044 L -130.406,30.7461 L -130.476,30.376
 L -130.5,30 L -130.476,29.624 L -130.406,29.2539 L -130.289,28.8956 L -130.129,28.5547 L -129.927,28.2366
 L -129.687,27.9464 L -129.412,27.6884 L -129.107,27.467 L -128.777,27.2855 L -128.427,27.1468 L -128.062,27.0531
 L -127.688,27.0059 L -127.312,27.0059 L -126.938,27.0531 L -126.573,27.1468 L -126.223,27.2855 L -125.893,27.467
 L -125.588,27.6884 L -125.313,27.9464 L -125.073,28.2366 L -124.871,28.5547 L -124.711,28.8956 L -124.594,29.2539
 L -124.524,29.624 L -124.5,30 L -124.524,30.376 L -124.594,30.7461 L -124.711,31.1044 L -124.871,31.4453
 L -125.073,31.7634 L -125.313,32.0536 L -125.588,32.3115 L -125.893,32.533 L -126.223,32.7145 L -126.573,32.8532
 L -126.938,32.9469 L -127.312,32.9941 z
M 22.3116,32.9941 L 21.9379,32.9469 L 21.5729,32.8532 L 21.2227,32.7145 L 20.8925,32.533 L 20.5877,32.3115
 L 20.3131,32.0536 L 20.0729,31.7634 L 19.8711,31.4453 L 19.7107,31.1044 L 19.5942,30.7461 L 19.5237,30.376
 L 19.5,30 L 19.5237,29.624 L 19.5942,29.2539 L 19.7107,28.8956 L 19.8711,28.5547 L 20.0729,28.2366
 L 20.3131,27.9464 L 20.5877,27.6884 L 20.8925,27.467 L 21.2227,27.2855 L 21.5729,27.1468 L 21.9379,27.0531
 L 22.3116,27.0059 L 22.6884,27.0059 L 23.0621,27.0531 L 23.427,27.1468 L 23.7773,27.2855 L 24.1075,27.467
 L 24.4123,27.6884 L 24.6869,27.9464 L 24.927,28.2366 L 25.1289,28.5547 L 25.2893,28.8956 L 25.4057,29.2539
 L 25.4763,29.624 L 25.5,30 L 25.4763,30.376 L 25.4057,30.7461 L 25.2893,31.1044 L 25.1289,31.4453
 L 24.927,31.7634 L 24.6869,32.0536 L 24.4123,32.3115 L 24.1075,32.533 L 23.7773,32.7145 L 23.427,32.8532
 L 23.0621,32.9469 L 22.6884,32.9941 z
M -142.688,32.9941 L -143.062,32.9469 L -143.427,32.8532 L -143.777,32.7145 L -144.107,32.533 L -144.412,32.3115
 L -144.687,32.0536 L -144.927,31.7634 L -145.129,31.4453 L -145.289,31.1044 L -145.406,30.7461 L -145.476,30.376
 L -145.5,30 L -145.476,29.624 L -145.406,29.2539 L -145.289,28.8956 L -145.129,28.5547 L -144.927,28.2366
 L -144.687,27.9464 L -144.412,27.6884 L -144.107,27.467 L -143.777,27.2855 L -143.427,27.1468 L -143.062,27.0531
 L -142.688,27.0059 L -142.312,27.0059 L -141.938,27.0531 L -141.573,27.1468 L -141.223,27.2855 L -140.893,27.467
 L -140.588,27.6884 L -140.313,27.9464 L -140.073,28.2366 L -139.871,28.5547 L -139.711,28.8956 L -139.594,29.2539
 L -139.524,29.624 L -139.5,30 L -139.524,30.376 L -139.594,30.7461 L -139.711,31.1044 L -139.871,31.4453
 L -140.073,31.7634 L -140.313,32.0536 L -140.588,32.3115 L -140.893,32.533 L -141.223,32.7145 L -141.573,32.8532
 L -141.938,32.9469 L -142.312,32.9941 z
M 7.31161,32.9941 L 6.93785,32.9469 L 6.57294,32.8532 L 6.22266,32.7145 L 5.89252,32.533 L 5.58772,32.3115
 L 5.31308,32.0536 L 5.07294,31.7634 L 4.87108,31.4453 L 4.71066,31.1044 L 4.59424,30.7461 L 4.52365,30.376
 L 4.5,30 L 4.52365,29.624 L 4.59424,29.2539 L 4.71066,28.8956 L 4.87108,28.5547 L 5.07294,28.2366
 L 5.31308,27.9464 L 5.58772,27.6884 L 5.89252,27.467 L 6.22266,27.2855 L 6.57294,27.1468 L 6.93785,27.0531
 L 7.31161,27.0059 L 7.68837,27.0059 L 8.06213,27.0531 L 8.42705,27.1468 L 8.77733,27.2855 L 9.10747,27.467
 L 9.41226,27.6884 L 9.6869,27.9464 L 9.92705,28.2366 L 10.1289,28.5547 L 10.2893,28.8956 L 10.4057,29.2539
 L 10.4763,29.624 L 10.5,30 L 10.4763,30.376 L 10.4057,30.7461 L 10.2893,31.1044 L 10.1289,31.4453
 L 9.92705,31.7634 L 9.6869,32.0536 L 9.41226,32.3115 L 9.10747,32.533 L 8.77733,32.7145 L 8.42705,32.8532
 L 8.06213,32.9469 L 7.68837,32.9941 z
M 97.3116,32.9941 L 96.9379,32.9469 L 96.573,32.8532 L 96.2227,32.7145 L 95.8925,32.533 L 95.5877,32.3115
 L 95.3131,32.0536 L 95.073,31.7634 L 94.8711,31.4453 L 94.7107,31.1044 L 94.5943,30.7461 L 94.5237,30.376
 L 94.5,30 L 94.5237,29.624 L 94.5943,29.2539 L 94.7107,28.8956 L 94.8711,28.5547 L 95.073,28.2366
 L 95.3131,27.9464 L 95.5877,27.6884 L 95.8925,27.467 L 96.2227,27.2855 L 96.573,27.1468 L 96.9379,27.0531
 L 97.3116,27.0059 L 97.6884,27.0059 L 98.0621,27.0531 L 98.427,27.1468 L 98.7773,27.2855 L 99.1075,27.467
 L 99.4123,27.6884 L 99.6869,27.9464 L 99.927,28.2366 L 100.129,28.5547 L 100.289,28.8956 L 100.406,29.2539
 L 100.476,29.624 L 100.5,30 L 100.476,30.376 L 100.406,30.7461 L 100.289,31.1044 L 100.129,31.4453
 L 99.927,31.7634 L 99.6869,32.0536 L 99.4123,32.3115 L 99.1075,32.533 L 98.7773,32.7145 L 98.427,32.8532
 L 98.0621,32.9469 L 97.6884,32.9941 z
M 52.3116,32.9941 L 51.9379,32.9469 L 51.5729,32.8532 L 51.2227,32.7145 L 50.8925,32.533 L 50.5877,32.3115
 L 50.3131,32.0536 L 50.0729,31.7634 L 49.8711,31.4453 L 49.7107,31.1044 L 49.5942,30.7461 L 49.5237,30.376
 L 49.5,30 L 49.5237,29.624 L 49.5942,29.2539 L 49.7107,28.8956 L 49.8711,28.5547 L 50.0729,28.2366
 L 50.3131,27.9464 L 50.5877,27.6884 L 50.8925,27.467 L 51.2227,27.2855 L 51.5729,27.1468 L 51.9379,27.0531
 L 52.3116,27.0059 L 52.6884,27.0059 L 53.0621,27.0531 L 53.427,27.1468 L 53.7773,27.2855 L 54.1075,27.467
 L 54.4123,27.6884 L 54.6869,27.9464 L 54.927,28.2366 L 55.1289,28.5547 L 55.2893,28.8956 L 55.4057,29.2539
 L 55.4763,29.624 L 55.5,30 L 55.4763,30.376 L 55.4057,30.7461 L 55.2893,31.1044 L 55.1289,31.4453
 L 54.927,31.7634 L 54.6869,32.0536 L 54.4123,32.3115 L 54.1075,32.533 L 53.7773,32.7145 L 53.427,32.8532
 L 53.0621,32.9469 L 52.6884,32.9941 z
M -7.68837,32.9941 L -8.06213,32.9469 L -8.42705,32.8532 L -8.77733,32.7145 L -9.10747,32.533 L -9.41226,32.3115
 L -9.6869,32.0536 L -9.92705,31.7634 L -10.1289,31.4453 L -10.2893,31.1044 L -10.4057,30.7461 L -10.4763,30.376
 L -10.5,30 L -10.4763,29.624 L -10.4057,29.2539 L -10.2893,28.8956 L -10.1289,28.5547 L -9.92705,28.2366
 L -9.6869,27.9464 L -9.41226,27.6884 L -9.10747,27.467 L -8.77733,27.2855 L -8.42705,27.1468 L -8.06213,27.0531
 L -7.68837,27.0059 L -7.31161,27.0059 L -6.93785,27.0531 L -6.57294,27.1468 L -6.22266,27.2855 L -5.89252,27.467
 L -5.58772,27.6884 L -5.31308,27.9464 L -5.07294,28.2366 L -4.87108,28.5547 L -4.71066,28.8956 L -4.59424,29.2539
 L -4.52365,29.624 L -4.5,30 L -4.52365,30.376 L -4.59424,30.7461 L -4.71066,31.1044 L -4.87108,31.4453
 L -5.07294,31.7634 L -5.31308,32.0536 L -5.58772,32.3115 L -5.89252,32.533 L -6.22266,32.7145 L -6.57294,32.8532
 L -6.93785,32.9469 L -7.31161,32.9941 z
M -67.6884,32.9941 L -68.0621,32.9469 L -68.427,32.8532 L -68.7773,32.7145 L -69.1075,32.533 L -69.4123,32.3115
 L -69.6869,32.0536 L -69.927,31.7634 L -70.1289,31.4453 L -70.2893,31.1044 L -70.4057,30.7461 L -70.4763,30.376
 L -70.5,30 L -70.4763,29.624 L -70.4057,29.2539 L -70.2893,28.8956 L -70.1289,28.5547 L -69.927,28.2366
 L -69.6869,27.9464 L -69.4123,27.6884 L -69.1075,27.467 L -68.7773,27.2855 L -68.427,27.1468 L -68.0621,27.0531
 L -67.6884,27.0059 L -67.3116,27.0059 L -66.9379,27.0531 L -66.573,27.1468 L -66.2227,27.2855 L -65.8925,27.467
 L -65.5877,27.6884 L -65.3131,27.9464 L -65.073,28.2366 L -64.8711,28.5547 L -64.7107,28.8956 L -64.5943,29.2539
 L -64.5237,29.624 L -64.5,30 L -64.5237,30.376 L -64.5943,30.7461 L -64.7107,31.1044 L -64.8711,31.4453
 L -65.073,31.7634 L -65.3131,32.0536 L -65.5877,32.3115 L -65.8925,32.533 L -66.2227,32.7145 L -66.573,32.8532
 L -66.9379,32.9469 L -67.3116,32.9941 z
M 82.3116,32.9941 L 81.9379,32.9469 L 81.573,32.8532 L 81.2227,32.7145 L 80.8925,32.533 L 80.5877,32.3115
 L 80.3131,32.0536 L 80.073,31.7634 L 79.8711,31.4453 L 79.7107,31.1044 L 79.5943,30.7461 L 79.5237,30.376
 L 79.5,30 L 79.5237,29.624 L 79.5943,29.2539 L 79.7107,28.8956 L 79.8711,28.5547 L 80.073,28.2366
 L 80.3131,27.9464 L 80.5877,27.6884 L 80.8925,27.467 L 81.2227,27.2855 L 81.573,27.1468 L 81.9379,27.0531
 L 82.3116,27.0059 L 82.6884,27.0059 L 83.0621,27.0531 L 83.427,27.1468 L 83.7773,27.2855 L 84.1075,27.467
 L 84.4123,27.6884 L 84.6869,27.9464 L 84.927,28.2366 L 85.1289,28.5547 L 85.2893,28.8956 L 85.4057,29.2539
 L 85.4763,29.624 L 85.5,30 L 85.4763,30.376 L 85.4057,30.7461 L 85.2893,31.1044 L 85.1289,31.4453
 L 84.927,31.7634 L 84.6869,32.0536 L 84.4123,32.3115 L 84.1075,32.533 L 83.7773,32.7145 L 83.427,32.8532
 L 83.0621,32.9469 L 82.6884,32.9941 z
M -82.6884,32.9941 L -83.0621,32.9469 L -83.427,32.8532 L -83.7773,32.7145 L -84.1075,32.533 L -84.4123,32.3115
 L -84.6869,32.0536 L -84.927,31.7634 L -85.1289,31.4453 L -85.2893,31.1044 L -85.4057,30.7461 L -85.4763,30.376
 L -85.5,30 L -85.4763,29.624 L -85.4057,29.2539 L -85.2893,28.8956 L -85.1289,28.5547 L -84.927,28.2366
 L -84.6869,27.9464 L -84.4123,27.6884 L -84.1075,27.467 L -83.7773,27.2855 L -83.427,27.1468 L -83.0621,27.0531
 L -82.6884,27.0059 L -82.3116,27.0059 L -81.9379,27.0531 L -81.573,27.1468 L -81.2227,27.2855 L -80.8925,27.467
 L -80.5877,27.6884 L -80.3131,27.9464 L -80.073,28.2366 L -79.8711,28.5547 L -79.7107,28.8956 L -79.5943,29.2539
 L -79.5237,29.624 L -79.5,30 L -79.5237,30.376 L -79.5943,30.7461 L -79.7107,31.1044 L -79.8711,31.4453
 L -80.073,31.7634 L -80.3131,32.0536 L -80.5877,32.3115 L -80.8925,32.533 L -81.2227,32.7145 L -81.573,32.8532
 L -81.9379,32.9469 L -82.3116,32.9941 z
M -52.6884,32.9941 L -53.0621,32.9469 L -53.427,32.8532 L -53.7773,32.7145 L -54.1075,32.533 L -54.4123,32.3115
 L -54.6869,32.0536 L -54.927,31.7634 L -55.1289,31.4453 L -55.2893,31.1044 L -55.4057,30.7461 L -55.4763,30.376
 L -55.5,30 L -55.4763,29.624 L -55.4057,29.2539 L -55.2893,28.8956 L -55.1289,28.5547 L -54.927,28.2366
 L -54.6869,27.9464 L -54.4123,27.6884 L -54.1075,27.467 L -53.7773,27.2855 L -53.427,27.1468 L -53.0621,27.0531
 L -52.6884,27.0059 L -52.3116,27.0059 L -51.9379,27.0531 L -51.5729,27.1468 L -51.2227,27.2855 L -50.8925,27.467
 L -50.5877,27.6884 L -50.3131,27.9464 L -50.0729,28.2366 L -49.8711,28.5547 L -49.7107,28.8956 L -49.5942,29.2539
 L -49.5237,29.624 L -49.5,30 L -49.5237,30.376 L -49.5942,30.7461 L -49.7107,31.1044 L -49.8711,31.4453
 L -50.0729,31.7634 L -50.3131,32.0536 L -50.5877,32.3115 L -50.8925,32.533 L -51.2227,32.7145 L -51.5729,32.8532
 L -51.9379,32.9469 L -52.3116,32.9941 z
M -22.6884,32.9941 L -23.0621,32.9469 L -23.427,32.8532 L -23.7773,32.7145 L -24.1075,32.533 L -24.4123,32.3115
 L -24.6869,32.0536 L -24.927,31.7634 L -25.1289,31.4453 L -25.2893,31.1044 L -25.4057,30.7461 L -25.4763,30.376
 L -25.5,30 L -25.4763,29.624 L -25.4057,29.2539 L -25.2893,28.8956 L -25.1289,28.5547 L -24.927,28.2366
 L -24.6869,27.9464 L -24.4123,27.6884 L -24.1075,27.467 L -23.7773,27.2855 L -23.427,27.1468 L -23.0621,27.0531
 L -22.6884,27.0059 L -22.3116,27.0059 L -21.9379,27.0531 L -21.5729,27.1468 L -21.2227,27.2855 L -20.8925,27.467
 L -20.5877,27.6884 L -20.3131,27.9464 L -20.0729,28.2366 L -19.8711,28.5547 L -19.7107,28.8956 L -19.5942,29.2539
 L -19.5237,29.624 L -19.5,30 L -19.5237,30.376 L -19.5942,30.7461 L -19.7107,31.1044 L -19.8711,31.4453
 L -20.0729,31.7634 L -20.3131,32.0536 L -20.5877,32.3115 L -20.8925,32.533 L -21.2227,32.7145 L -21.5729,32.8532
 L -21.9379,32.9469 L -22.3116,32.9941 z
M 67.3116,32.9941 L 66.9379,32.9469 L 66.573,32.8532 L 66.2227,32.7145 L 65.8925,32.533 L 65.5877,32.3115
 L 65.3131,32.0536 L 65.073,31.7634 L 64.8711,31.4453 L 64.7107,31.1044 L 64.5943,30.7461 L 64.5237,30.376
 L 64.5,30 L 64.5237,29.624 L 64.5943,29.2539 L 64.7107,28.8956 L 64.8711,28.5547 L 65.073,28.2366
 L 65.3131,27.9464 L 65.5877,27.6884 L 65.8925,27.467 L 66.2227,27.2855 L 66.573,27.1468 L 66.9379,27.0531
 L 67.3116,27.0059 L 67.6884,27.0059 L 68.0621,27.0531 L 68.427,27.1468 L 68.7773,27.2855 L 69.1075,27.467
 L 69.4123,27.6884 L 69.6869,27.9464 L 69.927,28.2366 L 70.1289,28.5547 L 70.2893,28.8956 L 70.4057,29.2539
 L 70.4763,29.624 L 70.5,30 L 70.4763,30.376 L 70.4057,30.7461 L 70.2893,31.1044 L 70.1289,31.4453
 L 69.927,31.7634 L 69.6869,32.0536 L 69.4123,32.3115 L 69.1075,32.533 L 68.7773,32.7145 L 68.427,32.8532
 L 68.0621,32.9469 L 67.6884,32.9941 z
M 37.3116,32.9941 L 36.9379,32.9469 L 36.5729,32.8532 L 36.2227,32.7145 L 35.8925,32.533 L 35.5877,32.3115
 L 35.3131,32.0536 L 35.0729,31.7634 L 34.8711,31.4453 L 34.7107,31.1044 L 34.5942,30.7461 L 34.5237,30.376
 L 34.5,30 L 34.5237,29.624 L 34.5942,29.2539 L 34.7107,28.8956 L 34.8711,28.5547 L 35.0729,28.2366
 L 35.3131,27.9464 L 35.5877,27.6884 L 35.8925,27.467 L 36.2227,27.2855 L 36.5729,27.1468 L 36.9379,27.0531
 L 37.3116,27.0059 L 37.6884,27.0059 L 38.0621,27.0531 L 38.427,27.1468 L 38.7773,27.2855 L 39.1075,27.467
 L 39.4123,27.6884 L 39.6869,27.9464 L 39.927,28.2366 L 40.1289,28.5547 L 40.2893,28.8956 L 40.4057,29.2539
 L 40.4763,29.624 L 40.5,30 L 40.4763,30.376 L 40.4057,30.7461 L 40.2893,31.1044 L 40.1289,31.4453
 L 39.927,31.7634 L 39.6869,32.0536 L 39.4123,32.3115 L 39.1075,32.533 L 38.7773,32.7145 L 38.427,32.8532
 L 38.0621,32.9469 L 37.6884,32.9941 z
M 112.312,32.9941 L 111.938,32.9469 L 111.573,32.8532 L 111.223,32.7145 L 110.893,32.533 L 110.588,32.3115
 L 110.313,32.0536 L 110.073,31.7634 L 109.871,31.4453 L 109.711,31.1044 L 109.594,30.7461 L 109.524,30.376
 L 109.5,30 L 109.524,29.624 L 109.594,29.2539 L 109.711,28.8956 L 109.871,28.5547 L 110.073,28.2366
 L 110.313,27.9464 L 110.588,27.6884 L 110.893,27.467 L 111.223,27.2855 L 111.573,27.1468 L 111.938,27.0531
 L 112.312,27.0059 L 112.688,27.0059 L 113.062,27.0531 L 113.427,27.1468 L 113.777,27.2855 L 114.107,27.467
 L 114.412,27.6884 L 114.687,27.9464 L 114.927,28.2366 L 115.129,28.5547 L 115.289,28.8956 L 115.406,29.2539
 L 115.476,29.624 L 115.5,30 L 115.476,30.376 L 115.406,30.7461 L 115.289,31.1044 L 115.129,31.4453
 L 114.927,31.7634 L 114.687,32.0536 L 114.412,32.3115 L 114.107,32.533 L 113.777,32.7145 L 113.427,32.8532
 L 113.062,32.9469 L 112.688,32.9941 z
M 127.312,32.9941 L 126.938,32.9469 L 126.573,32.8532 L 126.223,32.7145 L 125.893,32.533 L 125.588,32.3115
 L 125.313,32.0536 L 125.073,31.7634 L 124.871,31.4453 L 124.711,31.1044 L 124.594,30.7461 L 124.524,30.376
 L 124.5,30 L 124.524,29.624 L 124.594,29.2539 L 124.711,28.8956 L 124.871,28.5547 L 125.073,28.2366
 L 125.313,27.9464 L 125.588,27.6884 L 125.893,27.467 L 126.223,27.2855 L 126.573,27.1468 L 126.938,27.0531
 L 127.312,27.0059 L 127.688,27.0059 L 128.062,27.0531 L 128.427,27.1468 L 128.777,27.2855 L 129.107,27.467
 L 129.412,27.6884 L 129.687,27.9464 L 129.927,28.2366 L 130.129,28.5547 L 130.289,28.8956 L 130.406,29.2539
 L 130.476,29.624 L 130.5,30 L 130.476,30.376 L 130.406,30.7461 L 130.289,31.1044 L 130.129,31.4453
 L 129.927,31.7634 L 129.687,32.0536 L 129.412,32.3115 L 129.107,32.533 L 128.777,32.7145 L 128.427,32.8532
 L 128.062,32.9469 L 127.688,32.9941 z
M -15.0942,31.497 L -15.2811,31.4734 L -15.4635,31.4266 L -15.6387,31.3572 L -15.8037,31.2665 L -15.9561,31.1558
 L -16.0934,31.0268 L -16.2135,30.8817 L -16.3145,30.7226 L -16.3947,30.5522 L -16.4529,30.373 L -16.4882,30.188
 L -16.5,30 L -16.4882,29.812 L -16.4529,29.627 L -16.3947,29.4478 L -16.3145,29.2774 L -16.2135,29.1183
 L -16.0934,28.9732 L -15.9561,28.8442 L -15.8037,28.7335 L -15.6387,28.6427 L -15.4635,28.5734 L -15.2811,28.5266
 L -15.0942,28.503 L -14.9058,28.503 L -14.7189,28.5266 L -14.5365,28.5734 L -14.3613,28.6427 L -14.1963,28.7335
 L -14.0439,28.8442 L -13.9065,28.9732 L -13.7865,29.1183 L -13.6855,29.2774 L -13.6053,29.4478 L -13.5471,29.627
 L -13.5118,29.812 L -13.5,30 L -13.5118,30.188 L -13.5471,30.373 L -13.6053,30.5522 L -13.6855,30.7226
 L -13.7865,30.8817 L -13.9065,31.0268 L -14.0439,31.1558 L -14.1963,31.2665 L -14.3613,31.3572 L -14.5365,31.4266
 L -14.7189,31.4734 L -14.9058,31.497 z
M 119.906,31.497 L 119.719,31.4734 L 119.536,31.4266 L 119.361,31.3572 L 119.196,31.2665 L 119.044,31.1558
 L 118.907,31.0268 L 118.786,30.8817 L 118.686,30.7226 L 118.605,30.5522 L 118.547,30.373 L 118.512,30.188
 L 118.5,30 L 118.512,29.812 L 118.547,29.627 L 118.605,29.4478 L 118.686,29.2774 L 118.786,29.1183
 L 118.907,28.9732 L 119.044,28.8442 L 119.196,28.7335 L 119.361,28.6427 L 119.536,28.5734 L 119.719,28.5266
 L 119.906,28.503 L 120.094,28.503 L 120.281,28.5266 L 120.464,28.5734 L 120.639,28.6427 L 120.804,28.7335
 L 120.956,28.8442 L 121.093,28.9732 L 121.214,29.1183 L 121.314,29.2774 L 121.395,29.4478 L 121.453,29.627
 L 121.488,29.812 L 121.5,30 L 121.488,30.188 L 121.453,30.373 L 121.395,30.5522 L 121.314,30.7226
 L 121.214,30.8817 L 121.093,31.0268 L 120.956,31.1558 L 120.804,31.2665 L 120.639,31.3572 L 120.464,31.4266
 L 120.281,31.4734 L 120.094,31.497 z
M 104.906,31.497 L 104.719,31.4734 L 104.536,31.4266 L 104.361,31.3572 L 104.196,31.2665 L 104.044,31.1558
 L 103.907,31.0268 L 103.786,30.8817 L 103.686,30.7226 L 103.605,30.5522 L 103.547,30.373 L 103.512,30.188
 L 103.5,30 L 103.512,29.812 L 103.547,29.627 L 103.605,29.4478 L 103.686,29.2774 L 103.786,29.1183
 L 103.907,28.9732 L 104.044,28.8442 L 104.196,28.7335 L 104.361,28.6427 L 104.536,28.5734 L 104.719,28.5266
 L 104.906,28.503 L 105.094,28.503 L 105.281,28.5266 L 105.464,28.5734 L 105.639,28.6427 L 105.804,28.7335
 L 105.956,28.8442 L 106.093,28.9732 L 106.214,29.1183 L 106.314,29.2774 L 106.395,29.4478 L 106.453,29.627
 L 106.488,29.812 L 106.5,30 L 106.488,30.188 L 106.453,30.373 L 106.395,30.5522 L 106.314,30.7226
 L 106.214,30.8817 L 106.093,31.0268 L 105.956,31.1558 L 105.804,31.2665 L 105.639,31.3572 L 105.464,31.4266
 L 105.281,31.4734 L 105.094,31.497 z
M -45.0942,31.497 L -45.2811,31.4734 L -45.4635,31.4266 L -45.6387,31.3572 L -45.8037,31.2665 L -45.9561,31.1558
 L -46.0934,31.0268 L -46.2135,30.8817 L -46.3145,30.7226 L -46.3947,30.5522 L -46.4529,30.373 L -46.4882,30.188
 L -46.5,30 L -46.4882,29.812 L -46.4529,29.627 L -46.3947,29.4478 L -46.3145,29.2774 L -46.2135,29.1183
 L -46.0934,28.9732 L -45.9561,28.8442 L -45.8037,28.7335 L -45.6387,28.6427 L -45.4635,28.5734 L -45.2811,28.5266
 L -45.0942,28.503 L -44.9058,28.503 L -44.7189,28.5266 L -44.5365,28.5734 L -44.3613,28.6427 L -44.1963,28.7335
 L -44.0439,28.8442 L -43.9065,28.9732 L -43.7865,29.1183 L -43.6855,29.2774 L -43.6053,29.4478 L -43.5471,29.627
 L -43.5118,29.812 L -43.5,30 L -43.5118,30.188 L -43.5471,30.373 L -43.6053,30.5522 L -43.6855,30.7226
 L -43.7865,30.8817 L -43.9065,31.0268 L -44.0439,31.1558 L -44.1963,31.2665 L -44.3613,31.3572 L -44.5365,31.4266
 L -44.7189,31.4734 L -44.9058,31.497 z
M 89.9058,31.497 L 89.7189,31.4734 L 89.5365,31.4266 L 89.3613,31.3572 L 89.1963,31.2665 L 89.0439,31.1558
 L 88.9065,31.0268 L 88.7865,30.8817 L 88.6855,30.7226 L 88.6053,30.5522 L 88.5471,30.373 L 88.5118,30.188
 L 88.5,30 L 88.5118,29.812 L 88.5471,29.627 L 88.6053,29.4478 L 88.6855,29.2774 L 88.7865,29.1183
 L 88.9065,28.9732 L 89.0439,28.8442 L 89.1963,28.7335 L 89.3613,28.6427 L 89.5365,28.5734 L 89.7189,28.5266
 L 89.9058,28.503 L 90.0942,28.503 L 90.2811,28.5266 L 90.4635,28.5734 L 90.6387,28.6427 L 90.8037,28.7335
 L 90.9561,28.8442 L 91.0934,28.9732 L 91.2135,29.1183 L 91.3145,29.2774 L 91.3947,29.4478 L 91.4529,29.627
 L 91.4882,29.812 L 91.5,30 L 91.4882,30.188 L 91.4529,30.373 L 91.3947,30.5522 L 91.3145,30.7226
 L 91.2135,30.8817 L 91.0934,31.0268 L 90.9561,31.1558 L 90.8037,31.2665 L 90.6387,31.3572 L 90.4635,31.4266
 L 90.2811,31.4734 L 90.0942,31.497 z
M -105.094,31.497 L -105.281,31.4734 L -105.464,31.4266 L -105.639,31.3572 L -105.804,31.2665 L -105.956,31.1558
 L -106.093,31.0268 L -106.214,30.8817 L -106.314,30.7226 L -106.395,30.5522 L -106.453,30.373 L -106.488,30.188
 L -106.5,30 L -106.488,29.812 L -106.453,29.627 L -106.395,29.4478 L -106.314,29.2774 L -106.214,29.1183
 L -106.093,28.9732 L -105.956,28.8442 L -105.804,28.7335 L -105.639,28.6427 L -105.464,28.5734 L -105.281,28.5266
 L -105.094,28.503 L -104.906,28.503 L -104.719,28.5266 L -104.536,28.5734 L -104.361,28.6427 L -104.196,28.7335
 L -104.044,28.8442 L -103.907,28.9732 L -103.786,29.1183 L -103.686,29.2774 L -103.605,29.4478 L -103.547,29.627
 L -103.512,29.812 L -103.5,30 L -103.512,30.188 L -103.547,30.373 L -103.605,30.5522 L -103.686,30.7226
 L -103.786,30.8817 L -103.907,31.0268 L -104.044,31.1558 L -104.196,31.2665 L -104.361,31.3572 L -104.536,31.4266
 L -104.719,31.4734 L -104.906,31.497 z
M 29.9058,31.497 L 29.7189,31.4734 L 29.5365,31.4266 L 29.3613,31.3572 L 29.1963,31.2665 L 29.0439,31.1558
 L 28.9065,31.0268 L 28.7865,30.8817 L 28.6855,30.7226 L 28.6053,30.5522 L 28.5471,30.373 L 28.5118,30.188
 L 28.5,30 L 28.5118,29.812 L 28.5471,29.627 L 28.6053,29.4478 L 28.6855,29.2774 L 28.7865,29.1183
 L 28.9065,28.9732 L 29.0439,28.8442 L 29.1963,28.7335 L 29.3613,28.6427 L 29.5365,28.5734 L 29.7189,28.5266
 L 29.9058,28.503 L 30.0942,28.503 L 30.2811,28.5266 L 30.4635,28.5734 L 30.6387,28.6427 L 30.8037,28.7335
 L 30.9561,28.8442 L 31.0934,28.9732 L 31.2135,29.1183 L 31.3145,29.2774 L 31.3947,29.4478 L 31.4529,29.627
 L 31.4882,29.812 L 31.5,30 L 31.4882,30.188 L 31.4529,30.373 L 31.3947,30.5522 L 31.3145,30.7226
 L 31.2135,30.8817 L 31.0934,31.0268 L 30.9561,31.1558 L 30.8037,31.2665 L 30.6387,31.3572 L 30.4635,31.4266
 L 30.2811,31.4734 L 30.0942,31.497 z
M 74.9058,31.497 L 74.7189,31.4734 L 74.5365,31.4266 L 74.3613,31.3572 L 74.1963,31.2665 L 74.0439,31.1558
 L 73.9065,31.0268 L 73.7865,30.8817 L 73.6855,30.7226 L 73.6053,30.5522 L 73.5471,30.373 L 73.5118,30.188
 L 73.5,30 L 73.5118,29.812 L 73.5471,29.627 L 73.6053,29.4478 L 73.6855,29.2774 L 73.7865,29.1183
 L 73.9065,28.9732 L 74.0439,28.8442 L 74.1963,28.7335 L 74.3613,28.6427 L 74.5365,28.5734 L 74.7189,28.5266
 L 74.9058,28.503 L 75.0942,28.503 L 75.2811,28.5266 L 75.4635,28.5734 L 75.6387,28.6427 L 75.8037,28.7335
 L 75.9561,28.8442 L 76.0934,28.9732 L 76.2135,29.1183 L 76.3145,29.2774 L 76.3947,29.4478 L 76.4529,29.627
 L 76.4882,29.812 L 76.5,30 L 76.4882,30.188 L 76.4529,30.373 L 76.3947,30.5522 L 76.3145,30.7226
 L 76.2135,30.8817 L 76.0934,31.0268 L 75.9561,31.1558 L 75.8037,31.2665 L 75.6387,31.3572 L 75.4635,31.4266
 L 75.2811,31.4734 L 75.0942,31.497 z
M -135.094,31.497 L -135.281,31.4734 L -135.464,31.4266 L -135.639,31.3572 L -135.804,31.2665 L -135.956,31.1558
 L -136.093,31.0268 L -136.214,30.8817 L -136.314,30.7226 L -136.395,30.5522 L -136.453,30.373 L -136.488,30.188
 L -136.5,30 L -136.488,29.812 L -136.453,29.627 L -136.395,29.4478 L -136.314,29.2774 L -136.214,29.1183
 L -136.093,28.9732 L -135.956,28.8442 L -135.804,28.7335 L -135.639,28.6427 L -135.464,28.5734 L -135.281,28.5266
 L -135.094,28.503 L -134.906,28.503 L -134.719,28.5266 L -134.536,28.5734 L -134.361,28.6427 L -134.196,28.7335
 L -134.044,28.8442 L -133.907,28.9732 L -133.786,29.1183 L -133.686,29.2774 L -133.605,29.4478 L -133.547,29.627
 L -133.512,29.812 L -133.5,30 L -133.512,30.188 L -133.547,30.373 L -133.605,30.5522 L -133.686,30.7226
 L -133.786,30.8817 L -133.907,31.0268 L -134.044,31.1558 L -134.196,31.2665 L -134.361,31.3572 L -134.536,31.4266
 L -134.719,31.4734 L -134.906,31.497 z
M -75.0942,31.497 L -75.2811,31.4734 L -75.4635,31.4266 L -75.6387,31.3572 L -75.8037,31.2665 L -75.9561,31.1558
 L -76.0934,31.0268 L -76.2135,30.8817 L -76.3145,30.7226 L -76.3947,30.5522 L -76.4529,30.373 L -76.4882,30.188
 L -76.5,30 L -76.4882,29.812 L -76.4529,29.627 L -76.3947,29.4478 L -76.3145,29.2774 L -76.2135,29.1183
 L -76.0934,28.9732 L -75.9561,28.8442 L -75.8037,28.7335 L -75.6387,28.6427 L -75.4635,28.5734 L -75.2811,28.5266
 L -75.0942,28.503 L -74.9058,28.503 L -74.7189,28.5266 L -74.5365,28.5734 L -74.3613,28.6427 L -74.1963,28.7335
 L -74.0439,28.8442 L -73.9065,28.9732 L -73.7865,29.1183 L -73.6855,29.2774 L -73.6053,29.4478 L -73.5471,29.627
 L -73.5118,29.812 L -73.5,30 L -73.5118,30.188 L -73.5471,30.373 L -73.6053,30.5522 L -73.6855,30.7226
 L -73.7865,30.8817 L -73.9065,31.0268 L -74.0439,31.1558 L -74.1963,31.2665 L -74.3613,31.3572 L -74.5365,31.4266
 L -74.7189,31.4734 L -74.9058,31.497 z
M -30.0942,31.497 L -30.2811,31.4734 L -30.4635,31.4266 L -30.6387,31.3572 L -30.8037,31.2665 L -30.9561,31.1558
 L -31.0934,31.0268 L -31.2135,30.8817 L -31.3145,30.7226 L -31.3947,30.5522 L -31.4529,30.373 L -31.4882,30.188
 L -31.5,30 L -31.4882,29.812 L -31.4529,29.627 L -31.3947,29.4478 L -31.3145,29.2774 L -31.2135,29.1183
 L -31.0934,28.9732 L -30.9561,28.8442 L -30.8037,28.7335 L -30.6387,28.6427 L -30.4635,28.5734 L -30.2811,28.5266
 L -30.0942,28.503 L -29.9058,28.503 L -29.7189,28.5266 L -29.5365,28.5734 L -29.3613,28.6427 L -29.1963,28.7335
 L -29.0439,28.8442 L -28.9065,28.9732 L -28.7865,29.1183 L -28.6855,29.2774 L -28.6053,29.4478 L -28.5471,29.627
 L -28.5118,29.812 L -28.5,30 L -28.5118,30.188 L -28.5471,30.373 L -28.6053,30.5522 L -28.6855,30.7226
 L -28.7865,30.8817 L -28.9065,31.0268 L -29.0439,31.1558 L -29.1963,31.2665 L -29.3613,31.3572 L -29.5365,31.4266
 L -29.7189,31.4734 L -29.9058,31.497 z
M -0.0941772,31.497 L -0.281067,31.4734 L -0.463516,31.4266 L -0.638657,31.3572 L -0.803726,31.2665 L -0.956131,31.1558
 L -1.09344,31.0268 L -1.21352,30.8817 L -1.31445,30.7226 L -1.39465,30.5522 L -1.45287,30.373 L -1.48816,30.188
 L -1.5,30 L -1.48816,29.812 L -1.45287,29.627 L -1.39465,29.4478 L -1.31445,29.2774 L -1.21352,29.1183
 L -1.09344,28.9732 L -0.956131,28.8442 L -0.803726,28.7335 L -0.638657,28.6427 L -0.463516,28.5734 L -0.281067,28.5266
 L -0.0941772,28.503 L 0.0941772,28.503 L 0.281067,28.5266 L 0.463516,28.5734 L 0.638657,28.6427 L 0.803726,28.7335
 L 0.956131,28.8442 L 1.09344,28.9732 L 1.21352,29.1183 L 1.31445,29.2774 L 1.39465,29.4478 L 1.45287,29.627
 L 1.48816,29.812 L 1.5,30 L 1.48816,30.188 L 1.45287,30.373 L 1.39465,30.5522 L 1.31445,30.7226
 L 1.21352,30.8817 L 1.09344,31.0268 L 0.956131,31.1558 L 0.803726,31.2665 L 0.638657,31.3572 L 0.463516,31.4266
 L 0.281067,31.4734 L 0.0941772,31.497 z
M -120.094,31.497 L -120.281,31.4734 L -120.464,31.4266 L -120.639,31.3572 L -120.804,31.2665 L -120.956,31.1558
 L -121.093,31.0268 L -121.214,30.8817 L -121.314,30.7226 L -121.395,30.5522 L -121.453,30.373 L -121.488,30.188
 L -121.5,30 L -121.488,29.812 L -121.453,29.627 L -121.395,29.4478 L -121.314,29.2774 L -121.214,29.1183
 L -121.093,28.9732 L -120.956,28.8442 L -120.804,28.7335 L -120.639,28.6427 L -120.464,28.5734 L -120.281,28.5266
 L -120.094,28.503 L -119.906,28.503 L -119.719,28.5266 L -119.536,28.5734 L -119.361,28.6427 L -119.196,28.7335
 L -119.044,28.8442 L -118.907,28.9732 L -118.786,29.1183 L -118.686,29.2774 L -118.605,29.4478 L -118.547,29.627
 L -118.512,29.812 L -118.5,30 L -118.512,30.188 L -118.547,30.373 L -118.605,30.5522 L -118.686,30.7226
 L -118.786,30.8817 L -118.907,31.0268 L -119.044,31.1558 L -119.196,31.2665 L -119.361,31.3572 L -119.536,31.4266
 L -119.719,31.4734 L -119.906,31.497 z
M 59.9058,31.497 L 59.7189,31.4734 L 59.5365,31.4266 L 59.3613,31.3572 L 59.1963,31.2665 L 59.0439,31.1558
 L 58.9065,31.0268 L 58.7865,30.8817 L 58.6855,30.7226 L 58.6053,30.5522 L 58.5471,30.373 L 58.5118,30.188
 L 58.5,30 L 58.5118,29.812 L 58.5471,29.627 L 58.6053,29.4478 L 58.6855,29.2774 L 58.7865,29.1183
 L 58.9065,28.9732 L 59.0439,28.8442 L 59.1963,28.7335 L 59.3613,28.6427 L 59.5365,28.5734 L 59.7189,28.5266
 L 59.9058,28.503 L 60.0942,28.503 L 60.2811,28.5266 L 60.4635,28.5734 L 60.6387,28.6427 L 60.8037,28.7335
 L 60.9561,28.8442 L 61.0934,28.9732 L 61.2135,29.1183 L 61.3145,29.2774 L 61.3947,29.4478 L 61.4529,29.627
 L 61.4882,29.812 L 61.5,30 L 61.4882,30.188 L 61.4529,30.373 L 61.3947,30.5522 L 61.3145,30.7226
 L 61.2135,30.8817 L 61.0934,31.0268 L 60.9561,31.1558 L 60.8037,31.2665 L 60.6387,31.3572 L 60.4635,31.4266
 L 60.2811,31.4734 L 60.0942,31.497 z
M 14.9058,31.497 L 14.7189,31.4734 L 14.5365,31.4266 L 14.3613,31.3572 L 14.1963,31.2665 L 14.0439,31.1558
 L 13.9065,31.0268 L 13.7865,30.8817 L 13.6855,30.7226 L 13.6053,30.5522 L 13.5471,30.373 L 13.5118,30.188
 L 13.5,30 L 13.5118,29.812 L 13.5471,29.627 L 13.6053,29.4478 L 13.6855,29.2774 L 13.7865,29.1183
 L 13.9065,28.9732 L 14.0439,28.8442 L 14.1963,28.7335 L 14.3613,28.6427 L 14.5365,28.5734 L 14.7189,28.5266
 L 14.9058,28.503 L 15.0942,28.503 L 15.2811,28.5266 L 15.4635,28.5734 L 15.6387,28.6427 L 15.8037,28.7335
 L 15.9561,28.8442 L 16.0934,28.9732 L 16.2135,29.1183 L 16.3145,29.2774 L 16.3947,29.4478 L 16.4529,29.627
 L 16.4882,29.812 L 16.5,30 L 16.4882,30.188 L 16.4529,30.373 L 16.3947,30.5522 L 16.3145,30.7226
 L 16.2135,30.8817 L 16.0934,31.0268 L 15.9561,31.1558 L 15.8037,31.2665 L 15.6387,31.3572 L 15.4635,31.4266
 L 15.2811,31.4734 L 15.0942,31.497 z
M -90.0942,31.497 L -90.2811,31.4734 L -90.4635,31.4266 L -90.6387,31.3572 L -90.8037,31.2665 L -90.9561,31.1558
 L -91.0934,31.0268 L -91.2135,30.8817 L -91.3145,30.7226 L -91.3947,30.5522 L -91.4529,30.373 L -91.4882,30.188
 L -91.5,30 L -91.4882,29.812 L -91.4529,29.627 L -91.3947,29.4478 L -91.3145,29.2774 L -91.2135,29.1183
 L -91.0934,28.9732 L -90.9561,28.8442 L -90.8037,28.7335 L -90.6387,28.6427 L -90.4635,28.5734 L -90.2811,28.5266
 L -90.0942,28.503 L -89.9058,28.503 L -89.7189,28.5266 L -89.5365,28.5734 L -89.3613,28.6427 L -89.1963,28.7335
 L -89.0439,28.8442 L -88.9065,28.9732 L -88.7865,29.1183 L -88.6855,29.2774 L -88.6053,29.4478 L -88.5471,29.627
 L -88.5118,29.812 L -88.5,30 L -88.5118,30.188 L -88.5471,30.373 L -88.6053,30.5522 L -88.6855,30.7226
 L -88.7865,30.8817 L -88.9065,31.0268 L -89.0439,31.1558 L -89.1963,31.2665 L -89.3613,31.3572 L -89.5365,31.4266
 L -89.7189,31.4734 L -89.9058,31.497 z
M 134.906,31.497 L 134.719,31.4734 L 134.536,31.4266 L 134.361,31.3572 L 134.196,31.2665 L 134.044,31.1558
 L 133.907,31.0268 L 133.786,30.8817 L 133.686,30.7226 L 133.605,30.5522 L 133.547,30.373 L 133.512,30.188
 L 133.5,30 L 133.512,29.812 L 133.547,29.627 L 133.605,29.4478 L 133.686,29.2774 L 133.786,29.1183
 L 133.907,28.9732 L 134.044,28.8442 L 134.196,28.7335 L 134.361,28.6427 L 134.536,28.5734 L 134.719,28.5266
 L 134.906,28.503 L 135.094,28.503 L 135.281,28.5266 L 135.464,28.5734 L 135.639,28.6427 L 135.804,28.7335
 L 135.956,28.8442 L 136.093,28.9732 L 136.214,29.1183 L 136.314,29.2774 L 136.395,29.4478 L 136.453,29.627
 L 136.488,29.812 L 136.5,30 L 136.488,30.188 L 136.453,30.373 L 136.395,30.5522 L 136.314,30.7226
 L 136.214,30.8817 L 136.093,31.0268 L 135.956,31.1558 L 135.804,31.2665 L 135.639,31.3572 L 135.464,31.4266
 L 135.281,31.4734 L 135.094,31.497 z
M 44.9058,31.497 L 44.7189,31.4734 L 44.5365,31.4266 L 44.3613,31.3572 L 44.1963,31.2665 L 44.0439,31.1558
 L 43.9065,31.0268 L 43.7865,30.8817 L 43.6855,30.7226 L 43.6053,30.5522 L 43.5471,30.373 L 43.5118,30.188
 L 43.5,30 L 43.5118,29.812 L 43.5471,29.627 L 43.6053,29.4478 L 43.6855,29.2774 L 43.7865,29.1183
 L 43.9065,28.9732 L 44.0439,28.8442 L 44.1963,28.7335 L 44.3613,28.6427 L 44.5365,28.5734 L 44.7189,28.5266
 L 44.9058,28.503 L 45.0942,28.503 L 45.2811,28.5266 L 45.4635,28.5734 L 45.6387,28.6427 L 45.8037,28.7335
 L 45.9561,28.8442 L 46.0934,28.9732 L 46.2135,29.1183 L 46.3145,29.2774 L 46.3947,29.4478 L 46.4529,29.627
 L 46.4882,29.812 L 46.5,30 L 46.4882,30.188 L 46.4529,30.373 L 46.3947,30.5522 L 46.3145,30.7226
 L 46.2135,30.8817 L 46.0934,31.0268 L 45.9561,31.1558 L 45.8037,31.2665 L 45.6387,31.3572 L 45.4635,31.4266
 L 45.2811,31.4734 L 45.0942,31.497 z
M -60.0942,31.497 L -60.2811,31.4734 L -60.4635,31.4266 L -60.6387,31.3572 L -60.8037,31.2665 L -60.9561,31.1558
 L -61.0934,31.0268 L -61.2135,30.8817 L -61.3145,30.7226 L -61.3947,30.5522 L -61.4529,30.373 L -61.4882,30.188
 L -61.5,30 L -61.4882,29.812 L -61.4529,29.627 L -61.3947,29.4478 L -61.3145,29.2774 L -61.2135,29.1183
 L -61.0934,28.9732 L -60.9561,28.8442 L -60.8037,28.7335 L -60.6387,28.6427 L -60.4635,28.5734 L -60.2811,28.5266
 L -60.0942,28.503 L -59.9058,28.503 L -59.7189,28.5266 L -59.5365,28.5734 L -59.3613,28.6427 L -59.1963,28.7335
 L -59.0439,28.8442 L -58.9065,28.9732 L -58.7865,29.1183 L -58.6855,29.2774 L -58.6053,29.4478 L -58.5471,29.627
 L -58.5118,29.812 L -58.5,30 L -58.5118,30.188 L -58.5471,30.373 L -58.6053,30.5522 L -58.6855,30.7226
 L -58.7865,30.8817 L -58.9065,31.0268 L -59.0439,31.1558 L -59.1963,31.2665 L -59.3613,31.3572 L -59.5365,31.4266
 L -59.7189,31.4734 L -59.9058,31.497 z
M -85,-0 L -85.1971,3.13332 L -85.7854,6.21724 L -86.7556,9.20311 L -88.0923,12.0438 L -89.7746,14.6946
 L -91.7758,17.1137 L -94.0644,19.2628 L -96.6043,21.1082 L -99.3555,22.6207 L -102.275,23.7764 L -105.315,24.5572
 L -108.43,24.9507 L -111.57,24.9507 L -114.685,24.5572 L -117.725,23.7764 L -120.644,22.6207 L -123.396,21.1082
 L -125.936,19.2628 L -128.224,17.1137 L -130.225,14.6946 L -131.908,12.0438 L -133.244,9.20311 L -134.215,6.21724
 L -134.803,3.13332 L -135,-0 L -134.803,-3.13332 L -134.215,-6.21724 L -133.244,-9.20311 L -131.908,-12.0438
 L -130.225,-14.6946 L -128.224,-17.1137 L -125.936,-19.2628 L -123.396,-21.1082 L -120.644,-22.6207 L -117.725,-23.7764
 L -114.685,-24.5572 L -111.57,-24.9507 L -108.43,-24.9507 L -105.315,-24.5572 L -102.275,-23.7764 L -99.3555,-22.6207
 L -96.6043,-21.1082 L -94.0644,-19.2628 L -91.7758,-17.1137 L -89.7746,-14.6946 L -88.0923,-12.0438 L -86.7556,-9.20311
 L -85.7854,-6.21724 L -85.1971,-3.13332 z
" stroke="black" fill="lightgray" stroke-width="0.5"/>
</svg>
