<?xml version="1.0" standalone="no"?>
<!DOCTYPE svg PUBLIC "-//W3C//DTD SVG 1.1//EN" "http://www.w3.org/Graphics/SVG/1.1/DTD/svg11.dtd">
<svg width="74mm" height="14mm" viewBox="-37 -7 74 14" xmlns="http://www.w3.org/2000/svg" version="1.1">
<title>OpenSCAD Model</title>
<path d="
M 32.9369,6.91142 L 33.5451,6.75528 L 34.1289,6.52412 L 34.6791,6.22163 L 35.1871,5.85255 L 35.6448,5.42273
 L 36.0451,4.93892 L 36.3815,4.40877 L 36.6489,3.84062 L 36.8429,3.24344 L 36.9606,2.62666 L 37,2
 L 37,-2 L 36.9606,-2.62666 L 36.8429,-3.24344 L 36.6489,-3.84062 L 36.3815,-4.40877 L 36.0451,-4.93892
 L 35.6448,-5.42273 L 35.1871,-5.85255 L 34.6791,-6.22163 L 34.1289,-6.52412 L 33.5451,-6.75528 L 32.9369,-6.91142
 L 32.3139,-6.99013 L -32.3139,-6.99013 L -32.9369,-6.91142 L -33.5451,-6.75528 L -34.1289,-6.52412 L -34.6791,-6.22163
 L -35.1871,-5.85255 L -35.6448,-5.42273 L -36.0451,-4.93892 L -36.3815,-4.40877 L -36.6489,-3.84062 L -36.8429,-3.24344
 L -36.9606,-2.62666 L -37,-2 L -37,2 L -36.9606,2.62666 L -36.8429,3.24344 L -36.6489,3.84062
 L -36.3815,4.40877 L -36.0451,4.93892 L -35.6448,5.42273 L -35.1871,5.85255 L -34.6791,6.22163 L -34.1289,6.52412
 L -33.5451,6.75528 L -32.9369,6.91142 L -32.3139,6.99013 L 32.3139,6.99013 z
M 17.7802,3.49309 L 17.3442,3.438 L 16.9184,3.32869 L 16.5098,3.16689 L 16.1246,2.95514 L 15.769,2.69679
 L 15.4486,2.3959 L 15.1684,2.05724 L 14.9329,1.68613 L 14.7458,1.28842 L 14.61,0.870407 L 14.5276,0.43866
 L 14.5,-0 L 14.5276,-0.43866 L 14.61,-0.870407 L 14.7458,-1.28842 L 14.9329,-1.68613 L 15.1684,-2.05724
 L 15.4486,-2.3959 L 15.769,-2.69679 L 16.1246,-2.95514 L 16.5098,-3.16689 L 16.9184,-3.32869 L 17.3442,-3.438
 L 17.7802,-3.49309 L 18.2198,-3.49309 L 18.6558,-3.438 L 19.0816,-3.32869 L 19.4902,-3.16689 L 19.8754,-2.95514
 L 20.231,-2.69679 L 20.5514,-2.3959 L 20.8316,-2.05724 L 21.0671,-1.68613 L 21.2542,-1.28842 L 21.39,-0.870407
 L 21.4724,-0.43866 L 21.5,-0 L 21.4724,0.43866 L 21.39,0.870407 L 21.2542,1.28842 L 21.0671,1.68613
 L 20.8316,2.05724 L 20.5514,2.3959 L 20.231,2.69679 L 19.8754,2.95514 L 19.4902,3.16689 L 19.0816,3.32869
 L 18.6558,3.438 L 18.2198,3.49309 z
M -6.21976,3.49309 L -6.65582,3.438 L -7.08156,3.32869 L -7.49022,3.16689 L -7.87538,2.95514 L -8.23097,2.69679
 L -8.55138,2.3959 L -8.83156,2.05724 L -9.06706,1.68613 L -9.25421,1.28842 L -9.39003,0.870407 L -9.4724,0.43866
 L -9.5,-0 L -9.4724,-0.43866 L -9.39003,-0.870407 L -9.25421,-1.28842 L -9.06706,-1.68613 L -8.83156,-2.05724
 L -8.55138,-2.3959 L -8.23097,-2.69679 L -7.87538,-2.95514 L -7.49022,-3.16689 L -7.08156,-3.32869 L -6.65582,-3.438
 L -6.21976,-3.49309 L -5.78023,-3.49309 L -5.34416,-3.438 L -4.91843,-3.32869 L -4.50977,-3.16689 L -4.1246,-2.95514
 L -3.76901,-2.69679 L -3.44861,-2.3959 L -3.16843,-2.05724 L -2.93292,-1.68613 L -2.74577,-1.28842 L -2.60995,-0.870407
 L -2.52759,-0.43866 L -2.5,-0 L -2.52759,0.43866 L -2.60995,0.870407 L -2.74577,1.28842 L -2.93292,1.68613
 L -3.16843,2.05724 L -3.44861,2.3959 L -3.76901,2.69679 L -4.1246,2.95514 L -4.50977,3.16689 L -4.91843,3.32869
 L -5.34416,3.438 L -5.78023,3.49309 z
M 5.78023,3.49309 L 5.34416,3.438 L 4.91843,3.32869 L 4.50977,3.16689 L 4.1246,2.95514 L 3.76901,2.69679
 L 3.44861,2.3959 L 3.16843,2.05724 L 2.93292,1.68613 L 2.74577,1.28842 L 2.60995,0.870407 L 2.52759,0.43866
 L 2.5,-0 L 2.52759,-0.43866 L 2.60995,-0.870407 L 2.74577,-1.28842 L 2.93292,-1.68613 L 3.16843,-2.05724
 L 3.44861,-2.3959 L 3.76901,-2.69679 L 4.1246,-2.95514 L 4.50977,-3.16689 L 4.91843,-3.32869 L 5.34416,-3.438
 L 5.78023,-3.49309 L 6.21976,-3.49309 L 6.65582,-3.438 L 7.08156,-3.32869 L 7.49022,-3.16689 L 7.87538,-2.95514
 L 8.23097,-2.69679 L 8.55138,-2.3959 L 8.83156,-2.05724 L 9.06706,-1.68613 L 9.25421,-1.28842 L 9.39003,-0.870407
 L 9.4724,-0.43866 L 9.5,-0 L 9.4724,0.43866 L 9.39003,0.870407 L 9.25421,1.28842 L 9.06706,1.68613
 L 8.83156,2.05724 L 8.55138,2.3959 L 8.23097,2.69679 L 7.87538,2.95514 L 7.49022,3.16689 L 7.08156,3.32869
 L 6.65582,3.438 L 6.21976,3.49309 z
M -18.2198,3.49309 L -18.6558,3.438 L -19.0816,3.32869 L -19.4902,3.16689 L -19.8754,2.95514 L -20.231,2.69679
 L -20.5514,2.3959 L -20.8316,2.05724 L -21.0671,1.68613 L -21.2542,1.28842 L -21.39,0.870407 L -21.4724,0.43866
 L -21.5,-0 L -21.4724,-0.43866 L -21.39,-0.870407 L -21.2542,-1.28842 L -21.0671,-1.68613 L -20.8316,-2.05724
 L -20.5514,-2.3959 L -20.231,-2.69679 L -19.8754,-2.95514 L -19.4902,-3.16689 L -19.0816,-3.32869 L -18.6558,-3.438
 L -18.2198,-3.49309 L -17.7802,-3.49309 L -17.3442,-3.438 L -16.9184,-3.32869 L -16.5098,-3.16689 L -16.1246,-2.95514
 L -15.769,-2.69679 L -15.4486,-2.3959 L -15.1684,-2.05724 L -14.9329,-1.68613 L -14.7458,-1.28842 L -14.61,-0.870407
 L -14.5276,-0.43866 L -14.5,-0 L -14.5276,0.43866 L -14.61,0.870407 L -14.7458,1.28842 L -14.9329,1.68613
 L -15.1684,2.05724 L -15.4486,2.3959 L -15.769,2.69679 L -16.1246,2.95514 L -16.5098,3.16689 L -16.9184,3.32869
 L -17.3442,3.438 L -17.7802,3.49309 z
M -30.1884,2.99408 L -30.5621,2.94685 L -30.927,2.85316 L -31.2773,2.71448 L -31.6075,2.53297 L -31.9123,2.31154
 L -32.1869,2.05363 L -32.427,1.76335 L -32.6289,1.44525 L -32.7893,1.10437 L -32.9057,0.746063 L -32.9763,0.375992
 L -33,-0 L -32.9763,-0.375992 L -32.9057,-0.746063 L -32.7893,-1.10437 L -32.6289,-1.44525 L -32.427,-1.76335
 L -32.1869,-2.05363 L -31.9123,-2.31154 L -31.6075,-2.53297 L -31.2773,-2.71448 L -30.927,-2.85316 L -30.5621,-2.94685
 L -30.1884,-2.99408 L -29.8116,-2.99408 L -29.4379,-2.94685 L -29.0729,-2.85316 L -28.7227,-2.71448 L -28.3925,-2.53297
 L -28.0877,-2.31154 L -27.8131,-2.05363 L -27.5729,-1.76335 L -27.3711,-1.44525 L -27.2107,-1.10437 L -27.0942,-0.746063
 L -27.0237,-0.375992 L -27,-0 L -27.0237,0.375992 L -27.0942,0.746063 L -27.2107,1.10437 L -27.3711,1.44525
 L -27.5729,1.76335 L -27.8131,2.05363 L -28.0877,2.31154 L -28.3925,2.53297 L -28.7227,2.71448 L -29.0729,2.85316
 L -29.4379,2.94685 L -29.8116,2.99408 z
M 29.8116,2.99408 L 29.4379,2.94685 L 29.0729,2.85316 L 28.7227,2.71448 L 28.3925,2.53297 L 28.0877,2.31154
 L 27.8131,2.05363 L 27.5729,1.76335 L 27.3711,1.44525 L 27.2107,1.10437 L 27.0942,0.746063 L 27.0237,0.375992
 L 27,-0 L 27.0237,-0.375992 L 27.0942,-0.746063 L 27.2107,-1.10437 L 27.3711,-1.44525 L 27.5729,-1.76335
 L 27.8131,-2.05363 L 28.0877,-2.31154 L 28.3925,-2.53297 L 28.7227,-2.71448 L 29.0729,-2.85316 L 29.4379,-2.94685
 L 29.8116,-2.99408 L 30.1884,-2.99408 L 30.5621,-2.94685 L 30.927,-2.85316 L 31.2773,-2.71448 L 31.6075,-2.53297
 L 31.9123,-2.31154 L 32.1869,-2.05363 L 32.427,-1.76335 L 32.6289,-1.44525 L 32.7893,-1.10437 L 32.9057,-0.746063
 L 32.9763,-0.375992 L 33,-0 L 32.9763,0.375992 L 32.9057,0.746063 L 32.7893,1.10437 L 32.6289,1.44525
 L 32.427,1.76335 L 32.1869,2.05363 L 31.9123,2.31154 L 31.6075,2.53297 L 31.2773,2.71448 L 30.927,2.85316
 L 30.5621,2.94685 L 30.1884,2.99408 z
" stroke="black" fill="lightgray" stroke-width="0.5"/>
</svg>
