<?xml version="1.0" standalone="no"?>
<!DOCTYPE svg PUBLIC "-//W3C//DTD SVG 1.1//EN" "http://www.w3.org/Graphics/SVG/1.1/DTD/svg11.dtd">
<svg width="194mm" height="90mm" viewBox="-97 -45 194 90" xmlns="http://www.w3.org/2000/svg" version="1.1">
<title>OpenSCAD Model</title>
<path d="
M 92.9369,44.4114 L 93.5451,44.2553 L 94.1289,44.0241 L 94.6791,43.7216 L 95.1871,43.3526 L 95.6448,42.9227
 L 96.0451,42.4389 L 96.3815,41.9088 L 96.6489,41.3406 L 96.8429,40.7434 L 96.9606,40.1267 L 97,39.5
 L 97,-39.5 L 96.9606,-40.1267 L 96.8429,-40.7434 L 96.6489,-41.3406 L 96.3815,-41.9088 L 96.0451,-42.4389
 L 95.6448,-42.9227 L 95.1871,-43.3526 L 94.6791,-43.7216 L 94.1289,-44.0241 L 93.5451,-44.2553 L 92.9369,-44.4114
 L 92.3139,-44.4901 L -92.3139,-44.4901 L -92.9369,-44.4114 L -93.5451,-44.2553 L -94.1289,-44.0241 L -94.6791,-43.7216
 L -95.1871,-43.3526 L -95.6448,-42.9227 L -96.0451,-42.4389 L -96.3815,-41.9088 L -96.6489,-41.3406 L -96.8429,-40.7434
 L -96.9606,-40.1267 L -97,-39.5 L -97,39.5 L -96.9606,40.1267 L -96.8429,40.7434 L -96.6489,41.3406
 L -96.3815,41.9088 L -96.0451,42.4389 L -95.6448,42.9227 L -95.1871,43.3526 L -94.6791,43.7216 L -94.1289,44.0241
 L -93.5451,44.2553 L -92.9369,44.4114 L -92.3139,44.4901 L 92.3139,44.4901 z
M -30.1884,-34.5059 L -30.5621,-34.5531 L -30.927,-34.6468 L -31.2773,-34.7855 L -31.6075,-34.967 L -31.9123,-35.1885
 L -32.1869,-35.4464 L -32.427,-35.7366 L -32.6289,-36.0547 L -32.7893,-36.3956 L -32.9057,-36.7539 L -32.9763,-37.124
 L -33,-37.5 L -32.9763,-37.876 L -32.9057,-38.2461 L -32.7893,-38.6044 L -32.6289,-38.9453 L -32.427,-39.2634
 L -32.1869,-39.5536 L -31.9123,-39.8115 L -31.6075,-40.033 L -31.2773,-40.2145 L -30.927,-40.3532 L -30.5621,-40.4469
 L -30.1884,-40.4941 L -29.8116,-40.4941 L -29.4379,-40.4469 L -29.0729,-40.3532 L -28.7227,-40.2145 L -28.3925,-40.033
 L -28.0877,-39.8115 L -27.8131,-39.5536 L -27.5729,-39.2634 L -27.3711,-38.9453 L -27.2107,-38.6044 L -27.0942,-38.2461
 L -27.0237,-37.876 L -27,-37.5 L -27.0237,-37.124 L -27.0942,-36.7539 L -27.2107,-36.3956 L -27.3711,-36.0547
 L -27.5729,-35.7366 L -27.8131,-35.4464 L -28.0877,-35.1885 L -28.3925,-34.967 L -28.7227,-34.7855 L -29.0729,-34.6468
 L -29.4379,-34.5531 L -29.8116,-34.5059 z
M -45.1884,-34.5059 L -45.5621,-34.5531 L -45.927,-34.6468 L -46.2773,-34.7855 L -46.6075,-34.967 L -46.9123,-35.1885
 L -47.1869,-35.4464 L -47.427,-35.7366 L -47.6289,-36.0547 L -47.7893,-36.3956 L -47.9057,-36.7539 L -47.9763,-37.124
 L -48,-37.5 L -47.9763,-37.876 L -47.9057,-38.2461 L -47.7893,-38.6044 L -47.6289,-38.9453 L -47.427,-39.2634
 L -47.1869,-39.5536 L -46.9123,-39.8115 L -46.6075,-40.033 L -46.2773,-40.2145 L -45.927,-40.3532 L -45.5621,-40.4469
 L -45.1884,-40.4941 L -44.8116,-40.4941 L -44.4379,-40.4469 L -44.0729,-40.3532 L -43.7227,-40.2145 L -43.3925,-40.033
 L -43.0877,-39.8115 L -42.8131,-39.5536 L -42.5729,-39.2634 L -42.3711,-38.9453 L -42.2107,-38.6044 L -42.0942,-38.2461
 L -42.0237,-37.876 L -42,-37.5 L -42.0237,-37.124 L -42.0942,-36.7539 L -42.2107,-36.3956 L -42.3711,-36.0547
 L -42.5729,-35.7366 L -42.8131,-35.4464 L -43.0877,-35.1885 L -43.3925,-34.967 L -43.7227,-34.7855 L -44.0729,-34.6468
 L -44.4379,-34.5531 L -44.8116,-34.5059 z
M 89.8116,-34.5059 L 89.4379,-34.5531 L 89.073,-34.6468 L 88.7227,-34.7855 L 88.3925,-34.967 L 88.0877,-35.1885
 L 87.8131,-35.4464 L 87.573,-35.7366 L 87.3711,-36.0547 L 87.2107,-36.3956 L 87.0943,-36.7539 L 87.0237,-37.124
 L 87,-37.5 L 87.0237,-37.876 L 87.0943,-38.2461 L 87.2107,-38.6044 L 87.3711,-38.9453 L 87.573,-39.2634
 L 87.8131,-39.5536 L 88.0877,-39.8115 L 88.3925,-40.033 L 88.7227,-40.2145 L 89.073,-40.3532 L 89.4379,-40.4469
 L 89.8116,-40.4941 L 90.1884,-40.4941 L 90.5621,-40.4469 L 90.927,-40.3532 L 91.2773,-40.2145 L 91.6075,-40.033
 L 91.9123,-39.8115 L 92.1869,-39.5536 L 92.427,-39.2634 L 92.6289,-38.9453 L 92.7893,-38.6044 L 92.9057,-38.2461
 L 92.9763,-37.876 L 93,-37.5 L 92.9763,-37.124 L 92.9057,-36.7539 L 92.7893,-36.3956 L 92.6289,-36.0547
 L 92.427,-35.7366 L 92.1869,-35.4464 L 91.9123,-35.1885 L 91.6075,-34.967 L 91.2773,-34.7855 L 90.927,-34.6468
 L 90.5621,-34.5531 L 90.1884,-34.5059 z
M 44.8116,-34.5059 L 44.4379,-34.5531 L 44.0729,-34.6468 L 43.7227,-34.7855 L 43.3925,-34.967 L 43.0877,-35.1885
 L 42.8131,-35.4464 L 42.5729,-35.7366 L 42.3711,-36.0547 L 42.2107,-36.3956 L 42.0942,-36.7539 L 42.0237,-37.124
 L 42,-37.5 L 42.0237,-37.876 L 42.0942,-38.2461 L 42.2107,-38.6044 L 42.3711,-38.9453 L 42.5729,-39.2634
 L 42.8131,-39.5536 L 43.0877,-39.8115 L 43.3925,-40.033 L 43.7227,-40.2145 L 44.0729,-40.3532 L 44.4379,-40.4469
 L 44.8116,-40.4941 L 45.1884,-40.4941 L 45.5621,-40.4469 L 45.927,-40.3532 L 46.2773,-40.2145 L 46.6075,-40.033
 L 46.9123,-39.8115 L 47.1869,-39.5536 L 47.427,-39.2634 L 47.6289,-38.9453 L 47.7893,-38.6044 L 47.9057,-38.2461
 L 47.9763,-37.876 L 48,-37.5 L 47.9763,-37.124 L 47.9057,-36.7539 L 47.7893,-36.3956 L 47.6289,-36.0547
 L 47.427,-35.7366 L 47.1869,-35.4464 L 46.9123,-35.1885 L 46.6075,-34.967 L 46.2773,-34.7855 L 45.927,-34.6468
 L 45.5621,-34.5531 L 45.1884,-34.5059 z
M -60.1884,-34.5059 L -60.5621,-34.5531 L -60.927,-34.6468 L -61.2773,-34.7855 L -61.6075,-34.967 L -61.9123,-35.1885
 L -62.1869,-35.4464 L -62.427,-35.7366 L -62.6289,-36.0547 L -62.7893,-36.3956 L -62.9057,-36.7539 L -62.9763,-37.124
 L -63,-37.5 L -62.9763,-37.876 L -62.9057,-38.2461 L -62.7893,-38.6044 L -62.6289,-38.9453 L -62.427,-39.2634
 L -62.1869,-39.5536 L -61.9123,-39.8115 L -61.6075,-40.033 L -61.2773,-40.2145 L -60.927,-40.3532 L -60.5621,-40.4469
 L -60.1884,-40.4941 L -59.8116,-40.4941 L -59.4379,-40.4469 L -59.0729,-40.3532 L -58.7227,-40.2145 L -58.3925,-40.033
 L -58.0877,-39.8115 L -57.8131,-39.5536 L -57.5729,-39.2634 L -57.3711,-38.9453 L -57.2107,-38.6044 L -57.0942,-38.2461
 L -57.0237,-37.876 L -57,-37.5 L -57.0237,-37.124 L -57.0942,-36.7539 L -57.2107,-36.3956 L -57.3711,-36.0547
 L -57.5729,-35.7366 L -57.8131,-35.4464 L -58.0877,-35.1885 L -58.3925,-34.967 L -58.7227,-34.7855 L -59.0729,-34.6468
 L -59.4379,-34.5531 L -59.8116,-34.5059 z
M -75.1884,-34.5059 L -75.5621,-34.5531 L -75.927,-34.6468 L -76.2773,-34.7855 L -76.6075,-34.967 L -76.9123,-35.1885
 L -77.1869,-35.4464 L -77.427,-35.7366 L -77.6289,-36.0547 L -77.7893,-36.3956 L -77.9057,-36.7539 L -77.9763,-37.124
 L -78,-37.5 L -77.9763,-37.876 L -77.9057,-38.2461 L -77.7893,-38.6044 L -77.6289,-38.9453 L -77.427,-39.2634
 L -77.1869,-39.5536 L -76.9123,-39.8115 L -76.6075,-40.033 L -76.2773,-40.2145 L -75.927,-40.3532 L -75.5621,-40.4469
 L -75.1884,-40.4941 L -74.8116,-40.4941 L -74.4379,-40.4469 L -74.073,-40.3532 L -73.7227,-40.2145 L -73.3925,-40.033
 L -73.0877,-39.8115 L -72.8131,-39.5536 L -72.573,-39.2634 L -72.3711,-38.9453 L -72.2107,-38.6044 L -72.0943,-38.2461
 L -72.0237,-37.876 L -72,-37.5 L -72.0237,-37.124 L -72.0943,-36.7539 L -72.2107,-36.3956 L -72.3711,-36.0547
 L -72.573,-35.7366 L -72.8131,-35.4464 L -73.0877,-35.1885 L -73.3925,-34.967 L -73.7227,-34.7855 L -74.073,-34.6468
 L -74.4379,-34.5531 L -74.8116,-34.5059 z
M 29.8116,-34.5059 L 29.4379,-34.5531 L 29.0729,-34.6468 L 28.7227,-34.7855 L 28.3925,-34.967 L 28.0877,-35.1885
 L 27.8131,-35.4464 L 27.5729,-35.7366 L 27.3711,-36.0547 L 27.2107,-36.3956 L 27.0942,-36.7539 L 27.0237,-37.124
 L 27,-37.5 L 27.0237,-37.876 L 27.0942,-38.2461 L 27.2107,-38.6044 L 27.3711,-38.9453 L 27.5729,-39.2634
 L 27.8131,-39.5536 L 28.0877,-39.8115 L 28.3925,-40.033 L 28.7227,-40.2145 L 29.0729,-40.3532 L 29.4379,-40.4469
 L 29.8116,-40.4941 L 30.1884,-40.4941 L 30.5621,-40.4469 L 30.927,-40.3532 L 31.2773,-40.2145 L 31.6075,-40.033
 L 31.9123,-39.8115 L 32.1869,-39.5536 L 32.427,-39.2634 L 32.6289,-38.9453 L 32.7893,-38.6044 L 32.9057,-38.2461
 L 32.9763,-37.876 L 33,-37.5 L 32.9763,-37.124 L 32.9057,-36.7539 L 32.7893,-36.3956 L 32.6289,-36.0547
 L 32.427,-35.7366 L 32.1869,-35.4464 L 31.9123,-35.1885 L 31.6075,-34.967 L 31.2773,-34.7855 L 30.927,-34.6468
 L 30.5621,-34.5531 L 30.1884,-34.5059 z
M -90.1884,-34.5059 L -90.5621,-34.5531 L -90.927,-34.6468 L -91.2773,-34.7855 L -91.6075,-34.967 L -91.9123,-35.1885
 L -92.1869,-35.4464 L -92.427,-35.7366 L -92.6289,-36.0547 L -92.7893,-36.3956 L -92.9057,-36.7539 L -92.9763,-37.124
 L -93,-37.5 L -92.9763,-37.876 L -92.9057,-38.2461 L -92.7893,-38.6044 L -92.6289,-38.9453 L -92.427,-39.2634
 L -92.1869,-39.5536 L -91.9123,-39.8115 L -91.6075,-40.033 L -91.2773,-40.2145 L -90.927,-40.3532 L -90.5621,-40.4469
 L -90.1884,-40.4941 L -89.8116,-40.4941 L -89.4379,-40.4469 L -89.073,-40.3532 L -88.7227,-40.2145 L -88.3925,-40.033
 L -88.0877,-39.8115 L -87.8131,-39.5536 L -87.573,-39.2634 L -87.3711,-38.9453 L -87.2107,-38.6044 L -87.0943,-38.2461
 L -87.0237,-37.876 L -87,-37.5 L -87.0237,-37.124 L -87.0943,-36.7539 L -87.2107,-36.3956 L -87.3711,-36.0547
 L -87.573,-35.7366 L -87.8131,-35.4464 L -88.0877,-35.1885 L -88.3925,-34.967 L -88.7227,-34.7855 L -89.073,-34.6468
 L -89.4379,-34.5531 L -89.8116,-34.5059 z
M -0.18837,-34.5059 L -0.562134,-34.5531 L -0.927048,-34.6468 L -1.27733,-34.7855 L -1.60747,-34.967 L -1.91226,-35.1885
 L -2.1869,-35.4464 L -2.42705,-35.7366 L -2.62891,-36.0547 L -2.78932,-36.3956 L -2.90575,-36.7539 L -2.97633,-37.124
 L -3,-37.5 L -2.97633,-37.876 L -2.90575,-38.2461 L -2.78932,-38.6044 L -2.62891,-38.9453 L -2.42705,-39.2634
 L -2.1869,-39.5536 L -1.91226,-39.8115 L -1.60747,-40.033 L -1.27733,-40.2145 L -0.927048,-40.3532 L -0.562134,-40.4469
 L -0.18837,-40.4941 L 0.18837,-40.4941 L 0.562134,-40.4469 L 0.927048,-40.3532 L 1.27733,-40.2145 L 1.60747,-40.033
 L 1.91226,-39.8115 L 2.1869,-39.5536 L 2.42705,-39.2634 L 2.62891,-38.9453 L 2.78932,-38.6044 L 2.90575,-38.2461
 L 2.97633,-37.876 L 3,-37.5 L 2.97633,-37.124 L 2.90575,-36.7539 L 2.78932,-36.3956 L 2.62891,-36.0547
 L 2.42705,-35.7366 L 2.1869,-35.4464 L 1.91226,-35.1885 L 1.60747,-34.967 L 1.27733,-34.7855 L 0.927048,-34.6468
 L 0.562134,-34.5531 L 0.18837,-34.5059 z
M 74.8116,-34.5059 L 74.4379,-34.5531 L 74.073,-34.6468 L 73.7227,-34.7855 L 73.3925,-34.967 L 73.0877,-35.1885
 L 72.8131,-35.4464 L 72.573,-35.7366 L 72.3711,-36.0547 L 72.2107,-36.3956 L 72.0943,-36.7539 L 72.0237,-37.124
 L 72,-37.5 L 72.0237,-37.876 L 72.0943,-38.2461 L 72.2107,-38.6044 L 72.3711,-38.9453 L 72.573,-39.2634
 L 72.8131,-39.5536 L 73.0877,-39.8115 L 73.3925,-40.033 L 73.7227,-40.2145 L 74.073,-40.3532 L 74.4379,-40.4469
 L 74.8116,-40.4941 L 75.1884,-40.4941 L 75.5621,-40.4469 L 75.927,-40.3532 L 76.2773,-40.2145 L 76.6075,-40.033
 L 76.9123,-39.8115 L 77.1869,-39.5536 L 77.427,-39.2634 L 77.6289,-38.9453 L 77.7893,-38.6044 L 77.9057,-38.2461
 L 77.9763,-37.876 L 78,-37.5 L 77.9763,-37.124 L 77.9057,-36.7539 L 77.7893,-36.3956 L 77.6289,-36.0547
 L 77.427,-35.7366 L 77.1869,-35.4464 L 76.9123,-35.1885 L 76.6075,-34.967 L 76.2773,-34.7855 L 75.927,-34.6468
 L 75.5621,-34.5531 L 75.1884,-34.5059 z
M 14.8116,-34.5059 L 14.4379,-34.5531 L 14.0729,-34.6468 L 13.7227,-34.7855 L 13.3925,-34.967 L 13.0877,-35.1885
 L 12.8131,-35.4464 L 12.5729,-35.7366 L 12.3711,-36.0547 L 12.2107,-36.3956 L 12.0942,-36.7539 L 12.0237,-37.124
 L 12,-37.5 L 12.0237,-37.876 L 12.0942,-38.2461 L 12.2107,-38.6044 L 12.3711,-38.9453 L 12.5729,-39.2634
 L 12.8131,-39.5536 L 13.0877,-39.8115 L 13.3925,-40.033 L 13.7227,-40.2145 L 14.0729,-40.3532 L 14.4379,-40.4469
 L 14.8116,-40.4941 L 15.1884,-40.4941 L 15.5621,-40.4469 L 15.927,-40.3532 L 16.2773,-40.2145 L 16.6075,-40.033
 L 16.9123,-39.8115 L 17.1869,-39.5536 L 17.427,-39.2634 L 17.6289,-38.9453 L 17.7893,-38.6044 L 17.9057,-38.2461
 L 17.9763,-37.876 L 18,-37.5 L 17.9763,-37.124 L 17.9057,-36.7539 L 17.7893,-36.3956 L 17.6289,-36.0547
 L 17.427,-35.7366 L 17.1869,-35.4464 L 16.9123,-35.1885 L 16.6075,-34.967 L 16.2773,-34.7855 L 15.927,-34.6468
 L 15.5621,-34.5531 L 15.1884,-34.5059 z
M 59.8116,-34.5059 L 59.4379,-34.5531 L 59.0729,-34.6468 L 58.7227,-34.7855 L 58.3925,-34.967 L 58.0877,-35.1885
 L 57.8131,-35.4464 L 57.5729,-35.7366 L 57.3711,-36.0547 L 57.2107,-36.3956 L 57.0942,-36.7539 L 57.0237,-37.124
 L 57,-37.5 L 57.0237,-37.876 L 57.0942,-38.2461 L 57.2107,-38.6044 L 57.3711,-38.9453 L 57.5729,-39.2634
 L 57.8131,-39.5536 L 58.0877,-39.8115 L 58.3925,-40.033 L 58.7227,-40.2145 L 59.0729,-40.3532 L 59.4379,-40.4469
 L 59.8116,-40.4941 L 60.1884,-40.4941 L 60.5621,-40.4469 L 60.927,-40.3532 L 61.2773,-40.2145 L 61.6075,-40.033
 L 61.9123,-39.8115 L 62.1869,-39.5536 L 62.427,-39.2634 L 62.6289,-38.9453 L 62.7893,-38.6044 L 62.9057,-38.2461
 L 62.9763,-37.876 L 63,-37.5 L 62.9763,-37.124 L 62.9057,-36.7539 L 62.7893,-36.3956 L 62.6289,-36.0547
 L 62.427,-35.7366 L 62.1869,-35.4464 L 61.9123,-35.1885 L 61.6075,-34.967 L 61.2773,-34.7855 L 60.927,-34.6468
 L 60.5621,-34.5531 L 60.1884,-34.5059 z
M -15.1884,-34.5059 L -15.5621,-34.5531 L -15.927,-34.6468 L -16.2773,-34.7855 L -16.6075,-34.967 L -16.9123,-35.1885
 L -17.1869,-35.4464 L -17.427,-35.7366 L -17.6289,-36.0547 L -17.7893,-36.3956 L -17.9057,-36.7539 L -17.9763,-37.124
 L -18,-37.5 L -17.9763,-37.876 L -17.9057,-38.2461 L -17.7893,-38.6044 L -17.6289,-38.9453 L -17.427,-39.2634
 L -17.1869,-39.5536 L -16.9123,-39.8115 L -16.6075,-40.033 L -16.2773,-40.2145 L -15.927,-40.3532 L -15.5621,-40.4469
 L -15.1884,-40.4941 L -14.8116,-40.4941 L -14.4379,-40.4469 L -14.0729,-40.3532 L -13.7227,-40.2145 L -13.3925,-40.033
 L -13.0877,-39.8115 L -12.8131,-39.5536 L -12.5729,-39.2634 L -12.3711,-38.9453 L -12.2107,-38.6044 L -12.0942,-38.2461
 L -12.0237,-37.876 L -12,-37.5 L -12.0237,-37.124 L -12.0942,-36.7539 L -12.2107,-36.3956 L -12.3711,-36.0547
 L -12.5729,-35.7366 L -12.8131,-35.4464 L -13.0877,-35.1885 L -13.3925,-34.967 L -13.7227,-34.7855 L -14.0729,-34.6468
 L -14.4379,-34.5531 L -14.8116,-34.5059 z
M -67.5942,-36.003 L -67.7811,-36.0266 L -67.9635,-36.0734 L -68.1387,-36.1428 L -68.3037,-36.2335 L -68.4561,-36.3442
 L -68.5934,-36.4732 L -68.7135,-36.6183 L -68.8145,-36.7774 L -68.8947,-36.9478 L -68.9529,-37.127 L -68.9882,-37.312
 L -69,-37.5 L -68.9882,-37.688 L -68.9529,-37.873 L -68.8947,-38.0522 L -68.8145,-38.2226 L -68.7135,-38.3817
 L -68.5934,-38.5268 L -68.4561,-38.6558 L -68.3037,-38.7665 L -68.1387,-38.8572 L -67.9635,-38.9266 L -67.7811,-38.9734
 L -67.5942,-38.997 L -67.4058,-38.997 L -67.2189,-38.9734 L -67.0365,-38.9266 L -66.8613,-38.8572 L -66.6963,-38.7665
 L -66.5439,-38.6558 L -66.4065,-38.5268 L -66.2865,-38.3817 L -66.1855,-38.2226 L -66.1053,-38.0522 L -66.0471,-37.873
 L -66.0118,-37.688 L -66,-37.5 L -66.0118,-37.312 L -66.0471,-37.127 L -66.1053,-36.9478 L -66.1855,-36.7774
 L -66.2865,-36.6183 L -66.4065,-36.4732 L -66.5439,-36.3442 L -66.6963,-36.2335 L -66.8613,-36.1428 L -67.0365,-36.0734
 L -67.2189,-36.0266 L -67.4058,-36.003 z
M -7.59418,-36.003 L -7.78107,-36.0266 L -7.96352,-36.0734 L -8.13866,-36.1428 L -8.30373,-36.2335 L -8.45613,-36.3442
 L -8.59344,-36.4732 L -8.71352,-36.6183 L -8.81445,-36.7774 L -8.89465,-36.9478 L -8.95287,-37.127 L -8.98816,-37.312
 L -9,-37.5 L -8.98816,-37.688 L -8.95287,-37.873 L -8.89465,-38.0522 L -8.81445,-38.2226 L -8.71352,-38.3817
 L -8.59344,-38.5268 L -8.45613,-38.6558 L -8.30373,-38.7665 L -8.13866,-38.8572 L -7.96352,-38.9266 L -7.78107,-38.9734
 L -7.59418,-38.997 L -7.40581,-38.997 L -7.21892,-38.9734 L -7.03647,-38.9266 L -6.86133,-38.8572 L -6.69626,-38.7665
 L -6.54385,-38.6558 L -6.40654,-38.5268 L -6.28647,-38.3817 L -6.18553,-38.2226 L -6.10533,-38.0522 L -6.04712,-37.873
 L -6.01183,-37.688 L -6,-37.5 L -6.01183,-37.312 L -6.04712,-37.127 L -6.10533,-36.9478 L -6.18553,-36.7774
 L -6.28647,-36.6183 L -6.40654,-36.4732 L -6.54385,-36.3442 L -6.69626,-36.2335 L -6.86133,-36.1428 L -7.03647,-36.0734
 L -7.21892,-36.0266 L -7.40581,-36.003 z
M 22.4058,-36.003 L 22.2189,-36.0266 L 22.0365,-36.0734 L 21.8613,-36.1428 L 21.6963,-36.2335 L 21.5439,-36.3442
 L 21.4065,-36.4732 L 21.2865,-36.6183 L 21.1855,-36.7774 L 21.1053,-36.9478 L 21.0471,-37.127 L 21.0118,-37.312
 L 21,-37.5 L 21.0118,-37.688 L 21.0471,-37.873 L 21.1053,-38.0522 L 21.1855,-38.2226 L 21.2865,-38.3817
 L 21.4065,-38.5268 L 21.5439,-38.6558 L 21.6963,-38.7665 L 21.8613,-38.8572 L 22.0365,-38.9266 L 22.2189,-38.9734
 L 22.4058,-38.997 L 22.5942,-38.997 L 22.7811,-38.9734 L 22.9635,-38.9266 L 23.1387,-38.8572 L 23.3037,-38.7665
 L 23.4561,-38.6558 L 23.5934,-38.5268 L 23.7135,-38.3817 L 23.8145,-38.2226 L 23.8947,-38.0522 L 23.9529,-37.873
 L 23.9882,-37.688 L 24,-37.5 L 23.9882,-37.312 L 23.9529,-37.127 L 23.8947,-36.9478 L 23.8145,-36.7774
 L 23.7135,-36.6183 L 23.5934,-36.4732 L 23.4561,-36.3442 L 23.3037,-36.2335 L 23.1387,-36.1428 L 22.9635,-36.0734
 L 22.7811,-36.0266 L 22.5942,-36.003 z
M 52.4058,-36.003 L 52.2189,-36.0266 L 52.0365,-36.0734 L 51.8613,-36.1428 L 51.6963,-36.2335 L 51.5439,-36.3442
 L 51.4065,-36.4732 L 51.2865,-36.6183 L 51.1855,-36.7774 L 51.1053,-36.9478 L 51.0471,-37.127 L 51.0118,-37.312
 L 51,-37.5 L 51.0118,-37.688 L 51.0471,-37.873 L 51.1053,-38.0522 L 51.1855,-38.2226 L 51.2865,-38.3817
 L 51.4065,-38.5268 L 51.5439,-38.6558 L 51.6963,-38.7665 L 51.8613,-38.8572 L 52.0365,-38.9266 L 52.2189,-38.9734
 L 52.4058,-38.997 L 52.5942,-38.997 L 52.7811,-38.9734 L 52.9635,-38.9266 L 53.1387,-38.8572 L 53.3037,-38.7665
 L 53.4561,-38.6558 L 53.5934,-38.5268 L 53.7135,-38.3817 L 53.8145,-38.2226 L 53.8947,-38.0522 L 53.9529,-37.873
 L 53.9882,-37.688 L 54,-37.5 L 53.9882,-37.312 L 53.9529,-37.127 L 53.8947,-36.9478 L 53.8145,-36.7774
 L 53.7135,-36.6183 L 53.5934,-36.4732 L 53.4561,-36.3442 L 53.3037,-36.2335 L 53.1387,-36.1428 L 52.9635,-36.0734
 L 52.7811,-36.0266 L 52.5942,-36.003 z
M -22.5942,-36.003 L -22.7811,-36.0266 L -22.9635,-36.0734 L -23.1387,-36.1428 L -23.3037,-36.2335 L -23.4561,-36.3442
 L -23.5934,-36.4732 L -23.7135,-36.6183 L -23.8145,-36.7774 L -23.8947,-36.9478 L -23.9529,-37.127 L -23.9882,-37.312
 L -24,-37.5 L -23.9882,-37.688 L -23.9529,-37.873 L -23.8947,-38.0522 L -23.8145,-38.2226 L -23.7135,-38.3817
 L -23.5934,-38.5268 L -23.4561,-38.6558 L -23.3037,-38.7665 L -23.1387,-38.8572 L -22.9635,-38.9266 L -22.7811,-38.9734
 L -22.5942,-38.997 L -22.4058,-38.997 L -22.2189,-38.9734 L -22.0365,-38.9266 L -21.8613,-38.8572 L -21.6963,-38.7665
 L -21.5439,-38.6558 L -21.4065,-38.5268 L -21.2865,-38.3817 L -21.1855,-38.2226 L -21.1053,-38.0522 L -21.0471,-37.873
 L -21.0118,-37.688 L -21,-37.5 L -21.0118,-37.312 L -21.0471,-37.127 L -21.1053,-36.9478 L -21.1855,-36.7774
 L -21.2865,-36.6183 L -21.4065,-36.4732 L -21.5439,-36.3442 L -21.6963,-36.2335 L -21.8613,-36.1428 L -22.0365,-36.0734
 L -22.2189,-36.0266 L -22.4058,-36.003 z
M 7.40581,-36.003 L 7.21892,-36.0266 L 7.03647,-36.0734 L 6.86133,-36.1428 L 6.69626,-36.2335 L 6.54385,-36.3442
 L 6.40654,-36.4732 L 6.28647,-36.6183 L 6.18553,-36.7774 L 6.10533,-36.9478 L 6.04712,-37.127 L 6.01183,-37.312
 L 6,-37.5 L 6.01183,-37.688 L 6.04712,-37.873 L 6.10533,-38.0522 L 6.18553,-38.2226 L 6.28647,-38.3817
 L 6.40654,-38.5268 L 6.54385,-38.6558 L 6.69626,-38.7665 L 6.86133,-38.8572 L 7.03647,-38.9266 L 7.21892,-38.9734
 L 7.40581,-38.997 L 7.59418,-38.997 L 7.78107,-38.9734 L 7.96352,-38.9266 L 8.13866,-38.8572 L 8.30373,-38.7665
 L 8.45613,-38.6558 L 8.59344,-38.5268 L 8.71352,-38.3817 L 8.81445,-38.2226 L 8.89465,-38.0522 L 8.95287,-37.873
 L 8.98816,-37.688 L 9,-37.5 L 8.98816,-37.312 L 8.95287,-37.127 L 8.89465,-36.9478 L 8.81445,-36.7774
 L 8.71352,-36.6183 L 8.59344,-36.4732 L 8.45613,-36.3442 L 8.30373,-36.2335 L 8.13866,-36.1428 L 7.96352,-36.0734
 L 7.78107,-36.0266 L 7.59418,-36.003 z
M 67.4058,-36.003 L 67.2189,-36.0266 L 67.0365,-36.0734 L 66.8613,-36.1428 L 66.6963,-36.2335 L 66.5439,-36.3442
 L 66.4065,-36.4732 L 66.2865,-36.6183 L 66.1855,-36.7774 L 66.1053,-36.9478 L 66.0471,-37.127 L 66.0118,-37.312
 L 66,-37.5 L 66.0118,-37.688 L 66.0471,-37.873 L 66.1053,-38.0522 L 66.1855,-38.2226 L 66.2865,-38.3817
 L 66.4065,-38.5268 L 66.5439,-38.6558 L 66.6963,-38.7665 L 66.8613,-38.8572 L 67.0365,-38.9266 L 67.2189,-38.9734
 L 67.4058,-38.997 L 67.5942,-38.997 L 67.7811,-38.9734 L 67.9635,-38.9266 L 68.1387,-38.8572 L 68.3037,-38.7665
 L 68.4561,-38.6558 L 68.5934,-38.5268 L 68.7135,-38.3817 L 68.8145,-38.2226 L 68.8947,-38.0522 L 68.9529,-37.873
 L 68.9882,-37.688 L 69,-37.5 L 68.9882,-37.312 L 68.9529,-37.127 L 68.8947,-36.9478 L 68.8145,-36.7774
 L 68.7135,-36.6183 L 68.5934,-36.4732 L 68.4561,-36.3442 L 68.3037,-36.2335 L 68.1387,-36.1428 L 67.9635,-36.0734
 L 67.7811,-36.0266 L 67.5942,-36.003 z
M 82.4058,-36.003 L 82.2189,-36.0266 L 82.0365,-36.0734 L 81.8613,-36.1428 L 81.6963,-36.2335 L 81.5439,-36.3442
 L 81.4065,-36.4732 L 81.2865,-36.6183 L 81.1855,-36.7774 L 81.1053,-36.9478 L 81.0471,-37.127 L 81.0118,-37.312
 L 81,-37.5 L 81.0118,-37.688 L 81.0471,-37.873 L 81.1053,-38.0522 L 81.1855,-38.2226 L 81.2865,-38.3817
 L 81.4065,-38.5268 L 81.5439,-38.6558 L 81.6963,-38.7665 L 81.8613,-38.8572 L 82.0365,-38.9266 L 82.2189,-38.9734
 L 82.4058,-38.997 L 82.5942,-38.997 L 82.7811,-38.9734 L 82.9635,-38.9266 L 83.1387,-38.8572 L 83.3037,-38.7665
 L 83.4561,-38.6558 L 83.5934,-38.5268 L 83.7135,-38.3817 L 83.8145,-38.2226 L 83.8947,-38.0522 L 83.9529,-37.873
 L 83.9882,-37.688 L 84,-37.5 L 83.9882,-37.312 L 83.9529,-37.127 L 83.8947,-36.9478 L 83.8145,-36.7774
 L 83.7135,-36.6183 L 83.5934,-36.4732 L 83.4561,-36.3442 L 83.3037,-36.2335 L 83.1387,-36.1428 L 82.9635,-36.0734
 L 82.7811,-36.0266 L 82.5942,-36.003 z
M -82.5942,-36.003 L -82.7811,-36.0266 L -82.9635,-36.0734 L -83.1387,-36.1428 L -83.3037,-36.2335 L -83.4561,-36.3442
 L -83.5934,-36.4732 L -83.7135,-36.6183 L -83.8145,-36.7774 L -83.8947,-36.9478 L -83.9529,-37.127 L -83.9882,-37.312
 L -84,-37.5 L -83.9882,-37.688 L -83.9529,-37.873 L -83.8947,-38.0522 L -83.8145,-38.2226 L -83.7135,-38.3817
 L -83.5934,-38.5268 L -83.4561,-38.6558 L -83.3037,-38.7665 L -83.1387,-38.8572 L -82.9635,-38.9266 L -82.7811,-38.9734
 L -82.5942,-38.997 L -82.4058,-38.997 L -82.2189,-38.9734 L -82.0365,-38.9266 L -81.8613,-38.8572 L -81.6963,-38.7665
 L -81.5439,-38.6558 L -81.4065,-38.5268 L -81.2865,-38.3817 L -81.1855,-38.2226 L -81.1053,-38.0522 L -81.0471,-37.873
 L -81.0118,-37.688 L -81,-37.5 L -81.0118,-37.312 L -81.0471,-37.127 L -81.1053,-36.9478 L -81.1855,-36.7774
 L -81.2865,-36.6183 L -81.4065,-36.4732 L -81.5439,-36.3442 L -81.6963,-36.2335 L -81.8613,-36.1428 L -82.0365,-36.0734
 L -82.2189,-36.0266 L -82.4058,-36.003 z
M 37.4058,-36.003 L 37.2189,-36.0266 L 37.0365,-36.0734 L 36.8613,-36.1428 L 36.6963,-36.2335 L 36.5439,-36.3442
 L 36.4065,-36.4732 L 36.2865,-36.6183 L 36.1855,-36.7774 L 36.1053,-36.9478 L 36.0471,-37.127 L 36.0118,-37.312
 L 36,-37.5 L 36.0118,-37.688 L 36.0471,-37.873 L 36.1053,-38.0522 L 36.1855,-38.2226 L 36.2865,-38.3817
 L 36.4065,-38.5268 L 36.5439,-38.6558 L 36.6963,-38.7665 L 36.8613,-38.8572 L 37.0365,-38.9266 L 37.2189,-38.9734
 L 37.4058,-38.997 L 37.5942,-38.997 L 37.7811,-38.9734 L 37.9635,-38.9266 L 38.1387,-38.8572 L 38.3037,-38.7665
 L 38.4561,-38.6558 L 38.5934,-38.5268 L 38.7135,-38.3817 L 38.8145,-38.2226 L 38.8947,-38.0522 L 38.9529,-37.873
 L 38.9882,-37.688 L 39,-37.5 L 38.9882,-37.312 L 38.9529,-37.127 L 38.8947,-36.9478 L 38.8145,-36.7774
 L 38.7135,-36.6183 L 38.5934,-36.4732 L 38.4561,-36.3442 L 38.3037,-36.2335 L 38.1387,-36.1428 L 37.9635,-36.0734
 L 37.7811,-36.0266 L 37.5942,-36.003 z
M -52.5942,-36.003 L -52.7811,-36.0266 L -52.9635,-36.0734 L -53.1387,-36.1428 L -53.3037,-36.2335 L -53.4561,-36.3442
 L -53.5934,-36.4732 L -53.7135,-36.6183 L -53.8145,-36.7774 L -53.8947,-36.9478 L -53.9529,-37.127 L -53.9882,-37.312
 L -54,-37.5 L -53.9882,-37.688 L -53.9529,-37.873 L -53.8947,-38.0522 L -53.8145,-38.2226 L -53.7135,-38.3817
 L -53.5934,-38.5268 L -53.4561,-38.6558 L -53.3037,-38.7665 L -53.1387,-38.8572 L -52.9635,-38.9266 L -52.7811,-38.9734
 L -52.5942,-38.997 L -52.4058,-38.997 L -52.2189,-38.9734 L -52.0365,-38.9266 L -51.8613,-38.8572 L -51.6963,-38.7665
 L -51.5439,-38.6558 L -51.4065,-38.5268 L -51.2865,-38.3817 L -51.1855,-38.2226 L -51.1053,-38.0522 L -51.0471,-37.873
 L -51.0118,-37.688 L -51,-37.5 L -51.0118,-37.312 L -51.0471,-37.127 L -51.1053,-36.9478 L -51.1855,-36.7774
 L -51.2865,-36.6183 L -51.4065,-36.4732 L -51.5439,-36.3442 L -51.6963,-36.2335 L -51.8613,-36.1428 L -52.0365,-36.0734
 L -52.2189,-36.0266 L -52.4058,-36.003 z
M -37.5942,-36.003 L -37.7811,-36.0266 L -37.9635,-36.0734 L -38.1387,-36.1428 L -38.3037,-36.2335 L -38.4561,-36.3442
 L -38.5934,-36.4732 L -38.7135,-36.6183 L -38.8145,-36.7774 L -38.8947,-36.9478 L -38.9529,-37.127 L -38.9882,-37.312
 L -39,-37.5 L -38.9882,-37.688 L -38.9529,-37.873 L -38.8947,-38.0522 L -38.8145,-38.2226 L -38.7135,-38.3817
 L -38.5934,-38.5268 L -38.4561,-38.6558 L -38.3037,-38.7665 L -38.1387,-38.8572 L -37.9635,-38.9266 L -37.7811,-38.9734
 L -37.5942,-38.997 L -37.4058,-38.997 L -37.2189,-38.9734 L -37.0365,-38.9266 L -36.8613,-38.8572 L -36.6963,-38.7665
 L -36.5439,-38.6558 L -36.4065,-38.5268 L -36.2865,-38.3817 L -36.1855,-38.2226 L -36.1053,-38.0522 L -36.0471,-37.873
 L -36.0118,-37.688 L -36,-37.5 L -36.0118,-37.312 L -36.0471,-37.127 L -36.1053,-36.9478 L -36.1855,-36.7774
 L -36.2865,-36.6183 L -36.4065,-36.4732 L -36.5439,-36.3442 L -36.6963,-36.2335 L -36.8613,-36.1428 L -37.0365,-36.0734
 L -37.2189,-36.0266 L -37.4058,-36.003 z
M -1.82092,28.9428 L -5.43405,28.4863 L -8.96149,27.5806 L -12.3476,26.24 L -15.539,24.4855 L -18.4853,22.3449
 L -21.1401,19.8519 L -23.4615,17.0458 L -25.4129,13.9709 L -26.9635,10.6756 L -28.0889,7.21201 L -28.7713,3.63466
 L -29,-0 L -28.7713,-3.63466 L -28.0889,-7.21201 L -26.9635,-10.6756 L -25.4129,-13.9709 L -23.4615,-17.0458
 L -21.1401,-19.8519 L -18.4853,-22.3449 L -15.539,-24.4855 L -12.3476,-26.24 L -8.96149,-27.5806 L -5.43405,-28.4863
 L -1.82092,-28.9428 L 1.82092,-28.9428 L 5.43405,-28.4863 L 8.96149,-27.5806 L 12.3476,-26.24 L 15.539,-24.4855
 L 18.4853,-22.3449 L 21.1401,-19.8519 L 23.4615,-17.0458 L 25.4129,-13.9709 L 26.9635,-10.6756 L 28.0889,-7.21201
 L 28.7713,-3.63466 L 29,-0 L 28.7713,3.63466 L 28.0889,7.21201 L 26.9635,10.6756 L 25.4129,13.9709
 L 23.4615,17.0458 L 21.1401,19.8519 L 18.4853,22.3449 L 15.539,24.4855 L 12.3476,26.24 L 8.96149,27.5806
 L 5.43405,28.4863 L 1.82092,28.9428 z
M -64.8209,28.9428 L -68.4341,28.4863 L -71.9615,27.5806 L -75.3476,26.24 L -78.539,24.4855 L -81.4853,22.3449
 L -84.1401,19.8519 L -86.4615,17.0458 L -88.4129,13.9709 L -89.9635,10.6756 L -91.0889,7.21201 L -91.7713,3.63466
 L -92,-0 L -91.7713,-3.63466 L -91.0889,-7.21201 L -89.9635,-10.6756 L -88.4129,-13.9709 L -86.4615,-17.0458
 L -84.1401,-19.8519 L -81.4853,-22.3449 L -78.539,-24.4855 L -75.3476,-26.24 L -71.9615,-27.5806 L -68.4341,-28.4863
 L -64.8209,-28.9428 L -61.1791,-28.9428 L -57.5659,-28.4863 L -54.0385,-27.5806 L -50.6524,-26.24 L -47.461,-24.4855
 L -44.5147,-22.3449 L -41.8599,-19.8519 L -39.5385,-17.0458 L -37.5871,-13.9709 L -36.0365,-10.6756 L -34.9111,-7.21201
 L -34.2287,-3.63466 L -34,-0 L -34.2287,3.63466 L -34.9111,7.21201 L -36.0365,10.6756 L -37.5871,13.9709
 L -39.5385,17.0458 L -41.8599,19.8519 L -44.5147,22.3449 L -47.461,24.4855 L -50.6524,26.24 L -54.0385,27.5806
 L -57.5659,28.4863 L -61.1791,28.9428 z
M 61.1791,28.9428 L 57.5659,28.4863 L 54.0385,27.5806 L 50.6524,26.24 L 47.461,24.4855 L 44.5147,22.3449
 L 41.8599,19.8519 L 39.5385,17.0458 L 37.5871,13.9709 L 36.0365,10.6756 L 34.9111,7.21201 L 34.2287,3.63466
 L 34,-0 L 34.2287,-3.63466 L 34.9111,-7.21201 L 36.0365,-10.6756 L 37.5871,-13.9709 L 39.5385,-17.0458
 L 41.8599,-19.8519 L 44.5147,-22.3449 L 47.461,-24.4855 L 50.6524,-26.24 L 54.0385,-27.5806 L 57.5659,-28.4863
 L 61.1791,-28.9428 L 64.8209,-28.9428 L 68.4341,-28.4863 L 71.9615,-27.5806 L 75.3476,-26.24 L 78.539,-24.4855
 L 81.4853,-22.3449 L 84.1401,-19.8519 L 86.4615,-17.0458 L 88.4129,-13.9709 L 89.9635,-10.6756 L 91.0889,-7.21201
 L 91.7713,-3.63466 L 92,-0 L 91.7713,3.63466 L 91.0889,7.21201 L 89.9635,10.6756 L 88.4129,13.9709
 L 86.4615,17.0458 L 84.1401,19.8519 L 81.4853,22.3449 L 78.539,24.4855 L 75.3476,26.24 L 71.9615,27.5806
 L 68.4341,28.4863 L 64.8209,28.9428 z
M -60.1884,40.4941 L -60.5621,40.4469 L -60.927,40.3532 L -61.2773,40.2145 L -61.6075,40.033 L -61.9123,39.8115
 L -62.1869,39.5536 L -62.427,39.2634 L -62.6289,38.9453 L -62.7893,38.6044 L -62.9057,38.2461 L -62.9763,37.876
 L -63,37.5 L -62.9763,37.124 L -62.9057,36.7539 L -62.7893,36.3956 L -62.6289,36.0547 L -62.427,35.7366
 L -62.1869,35.4464 L -61.9123,35.1885 L -61.6075,34.967 L -61.2773,34.7855 L -60.927,34.6468 L -60.5621,34.5531
 L -60.1884,34.5059 L -59.8116,34.5059 L -59.4379,34.5531 L -59.0729,34.6468 L -58.7227,34.7855 L -58.3925,34.967
 L -58.0877,35.1885 L -57.8131,35.4464 L -57.5729,35.7366 L -57.3711,36.0547 L -57.2107,36.3956 L -57.0942,36.7539
 L -57.0237,37.124 L -57,37.5 L -57.0237,37.876 L -57.0942,38.2461 L -57.2107,38.6044 L -57.3711,38.9453
 L -57.5729,39.2634 L -57.8131,39.5536 L -58.0877,39.8115 L -58.3925,40.033 L -58.7227,40.2145 L -59.0729,40.3532
 L -59.4379,40.4469 L -59.8116,40.4941 z
M -75.1884,40.4941 L -75.5621,40.4469 L -75.927,40.3532 L -76.2773,40.2145 L -76.6075,40.033 L -76.9123,39.8115
 L -77.1869,39.5536 L -77.427,39.2634 L -77.6289,38.9453 L -77.7893,38.6044 L -77.9057,38.2461 L -77.9763,37.876
 L -78,37.5 L -77.9763,37.124 L -77.9057,36.7539 L -77.7893,36.3956 L -77.6289,36.0547 L -77.427,35.7366
 L -77.1869,35.4464 L -76.9123,35.1885 L -76.6075,34.967 L -76.2773,34.7855 L -75.927,34.6468 L -75.5621,34.5531
 L -75.1884,34.5059 L -74.8116,34.5059 L -74.4379,34.5531 L -74.073,34.6468 L -73.7227,34.7855 L -73.3925,34.967
 L -73.0877,35.1885 L -72.8131,35.4464 L -72.573,35.7366 L -72.3711,36.0547 L -72.2107,36.3956 L -72.0943,36.7539
 L -72.0237,37.124 L -72,37.5 L -72.0237,37.876 L -72.0943,38.2461 L -72.2107,38.6044 L -72.3711,38.9453
 L -72.573,39.2634 L -72.8131,39.5536 L -73.0877,39.8115 L -73.3925,40.033 L -73.7227,40.2145 L -74.073,40.3532
 L -74.4379,40.4469 L -74.8116,40.4941 z
M -0.18837,40.4941 L -0.562134,40.4469 L -0.927048,40.3532 L -1.27733,40.2145 L -1.60747,40.033 L -1.91226,39.8115
 L -2.1869,39.5536 L -2.42705,39.2634 L -2.62891,38.9453 L -2.78932,38.6044 L -2.90575,38.2461 L -2.97633,37.876
 L -3,37.5 L -2.97633,37.124 L -2.90575,36.7539 L -2.78932,36.3956 L -2.62891,36.0547 L -2.42705,35.7366
 L -2.1869,35.4464 L -1.91226,35.1885 L -1.60747,34.967 L -1.27733,34.7855 L -0.927048,34.6468 L -0.562134,34.5531
 L -0.18837,34.5059 L 0.18837,34.5059 L 0.562134,34.5531 L 0.927048,34.6468 L 1.27733,34.7855 L 1.60747,34.967
 L 1.91226,35.1885 L 2.1869,35.4464 L 2.42705,35.7366 L 2.62891,36.0547 L 2.78932,36.3956 L 2.90575,36.7539
 L 2.97633,37.124 L 3,37.5 L 2.97633,37.876 L 2.90575,38.2461 L 2.78932,38.6044 L 2.62891,38.9453
 L 2.42705,39.2634 L 2.1869,39.5536 L 1.91226,39.8115 L 1.60747,40.033 L 1.27733,40.2145 L 0.927048,40.3532
 L 0.562134,40.4469 L 0.18837,40.4941 z
M 59.8116,40.4941 L 59.4379,40.4469 L 59.0729,40.3532 L 58.7227,40.2145 L 58.3925,40.033 L 58.0877,39.8115
 L 57.8131,39.5536 L 57.5729,39.2634 L 57.3711,38.9453 L 57.2107,38.6044 L 57.0942,38.2461 L 57.0237,37.876
 L 57,37.5 L 57.0237,37.124 L 57.0942,36.7539 L 57.2107,36.3956 L 57.3711,36.0547 L 57.5729,35.7366
 L 57.8131,35.4464 L 58.0877,35.1885 L 58.3925,34.967 L 58.7227,34.7855 L 59.0729,34.6468 L 59.4379,34.5531
 L 59.8116,34.5059 L 60.1884,34.5059 L 60.5621,34.5531 L 60.927,34.6468 L 61.2773,34.7855 L 61.6075,34.967
 L 61.9123,35.1885 L 62.1869,35.4464 L 62.427,35.7366 L 62.6289,36.0547 L 62.7893,36.3956 L 62.9057,36.7539
 L 62.9763,37.124 L 63,37.5 L 62.9763,37.876 L 62.9057,38.2461 L 62.7893,38.6044 L 62.6289,38.9453
 L 62.427,39.2634 L 62.1869,39.5536 L 61.9123,39.8115 L 61.6075,40.033 L 61.2773,40.2145 L 60.927,40.3532
 L 60.5621,40.4469 L 60.1884,40.4941 z
M -45.1884,40.4941 L -45.5621,40.4469 L -45.927,40.3532 L -46.2773,40.2145 L -46.6075,40.033 L -46.9123,39.8115
 L -47.1869,39.5536 L -47.427,39.2634 L -47.6289,38.9453 L -47.7893,38.6044 L -47.9057,38.2461 L -47.9763,37.876
 L -48,37.5 L -47.9763,37.124 L -47.9057,36.7539 L -47.7893,36.3956 L -47.6289,36.0547 L -47.427,35.7366
 L -47.1869,35.4464 L -46.9123,35.1885 L -46.6075,34.967 L -46.2773,34.7855 L -45.927,34.6468 L -45.5621,34.5531
 L -45.1884,34.5059 L -44.8116,34.5059 L -44.4379,34.5531 L -44.0729,34.6468 L -43.7227,34.7855 L -43.3925,34.967
 L -43.0877,35.1885 L -42.8131,35.4464 L -42.5729,35.7366 L -42.3711,36.0547 L -42.2107,36.3956 L -42.0942,36.7539
 L -42.0237,37.124 L -42,37.5 L -42.0237,37.876 L -42.0942,38.2461 L -42.2107,38.6044 L -42.3711,38.9453
 L -42.5729,39.2634 L -42.8131,39.5536 L -43.0877,39.8115 L -43.3925,40.033 L -43.7227,40.2145 L -44.0729,40.3532
 L -44.4379,40.4469 L -44.8116,40.4941 z
M 14.8116,40.4941 L 14.4379,40.4469 L 14.0729,40.3532 L 13.7227,40.2145 L 13.3925,40.033 L 13.0877,39.8115
 L 12.8131,39.5536 L 12.5729,39.2634 L 12.3711,38.9453 L 12.2107,38.6044 L 12.0942,38.2461 L 12.0237,37.876
 L 12,37.5 L 12.0237,37.124 L 12.0942,36.7539 L 12.2107,36.3956 L 12.3711,36.0547 L 12.5729,35.7366
 L 12.8131,35.4464 L 13.0877,35.1885 L 13.3925,34.967 L 13.7227,34.7855 L 14.0729,34.6468 L 14.4379,34.5531
 L 14.8116,34.5059 L 15.1884,34.5059 L 15.5621,34.5531 L 15.927,34.6468 L 16.2773,34.7855 L 16.6075,34.967
 L 16.9123,35.1885 L 17.1869,35.4464 L 17.427,35.7366 L 17.6289,36.0547 L 17.7893,36.3956 L 17.9057,36.7539
 L 17.9763,37.124 L 18,37.5 L 17.9763,37.876 L 17.9057,38.2461 L 17.7893,38.6044 L 17.6289,38.9453
 L 17.427,39.2634 L 17.1869,39.5536 L 16.9123,39.8115 L 16.6075,40.033 L 16.2773,40.2145 L 15.927,40.3532
 L 15.5621,40.4469 L 15.1884,40.4941 z
M 29.8116,40.4941 L 29.4379,40.4469 L 29.0729,40.3532 L 28.7227,40.2145 L 28.3925,40.033 L 28.0877,39.8115
 L 27.8131,39.5536 L 27.5729,39.2634 L 27.3711,38.9453 L 27.2107,38.6044 L 27.0942,38.2461 L 27.0237,37.876
 L 27,37.5 L 27.0237,37.124 L 27.0942,36.7539 L 27.2107,36.3956 L 27.3711,36.0547 L 27.5729,35.7366
 L 27.8131,35.4464 L 28.0877,35.1885 L 28.3925,34.967 L 28.7227,34.7855 L 29.0729,34.6468 L 29.4379,34.5531
 L 29.8116,34.5059 L 30.1884,34.5059 L 30.5621,34.5531 L 30.927,34.6468 L 31.2773,34.7855 L 31.6075,34.967
 L 31.9123,35.1885 L 32.1869,35.4464 L 32.427,35.7366 L 32.6289,36.0547 L 32.7893,36.3956 L 32.9057,36.7539
 L 32.9763,37.124 L 33,37.5 L 32.9763,37.876 L 32.9057,38.2461 L 32.7893,38.6044 L 32.6289,38.9453
 L 32.427,39.2634 L 32.1869,39.5536 L 31.9123,39.8115 L 31.6075,40.033 L 31.2773,40.2145 L 30.927,40.3532
 L 30.5621,40.4469 L 30.1884,40.4941 z
M -90.1884,40.4941 L -90.5621,40.4469 L -90.927,40.3532 L -91.2773,40.2145 L -91.6075,40.033 L -91.9123,39.8115
 L -92.1869,39.5536 L -92.427,39.2634 L -92.6289,38.9453 L -92.7893,38.6044 L -92.9057,38.2461 L -92.9763,37.876
 L -93,37.5 L -92.9763,37.124 L -92.9057,36.7539 L -92.7893,36.3956 L -92.6289,36.0547 L -92.427,35.7366
 L -92.1869,35.4464 L -91.9123,35.1885 L -91.6075,34.967 L -91.2773,34.7855 L -90.927,34.6468 L -90.5621,34.5531
 L -90.1884,34.5059 L -89.8116,34.5059 L -89.4379,34.5531 L -89.073,34.6468 L -88.7227,34.7855 L -88.3925,34.967
 L -88.0877,35.1885 L -87.8131,35.4464 L -87.573,35.7366 L -87.3711,36.0547 L -87.2107,36.3956 L -87.0943,36.7539
 L -87.0237,37.124 L -87,37.5 L -87.0237,37.876 L -87.0943,38.2461 L -87.2107,38.6044 L -87.3711,38.9453
 L -87.573,39.2634 L -87.8131,39.5536 L -88.0877,39.8115 L -88.3925,40.033 L -88.7227,40.2145 L -89.073,40.3532
 L -89.4379,40.4469 L -89.8116,40.4941 z
M 89.8116,40.4941 L 89.4379,40.4469 L 89.073,40.3532 L 88.7227,40.2145 L 88.3925,40.033 L 88.0877,39.8115
 L 87.8131,39.5536 L 87.573,39.2634 L 87.3711,38.9453 L 87.2107,38.6044 L 87.0943,38.2461 L 87.0237,37.876
 L 87,37.5 L 87.0237,37.124 L 87.0943,36.7539 L 87.2107,36.3956 L 87.3711,36.0547 L 87.573,35.7366
 L 87.8131,35.4464 L 88.0877,35.1885 L 88.3925,34.967 L 88.7227,34.7855 L 89.073,34.6468 L 89.4379,34.5531
 L 89.8116,34.5059 L 90.1884,34.5059 L 90.5621,34.5531 L 90.927,34.6468 L 91.2773,34.7855 L 91.6075,34.967
 L 91.9123,35.1885 L 92.1869,35.4464 L 92.427,35.7366 L 92.6289,36.0547 L 92.7893,36.3956 L 92.9057,36.7539
 L 92.9763,37.124 L 93,37.5 L 92.9763,37.876 L 92.9057,38.2461 L 92.7893,38.6044 L 92.6289,38.9453
 L 92.427,39.2634 L 92.1869,39.5536 L 91.9123,39.8115 L 91.6075,40.033 L 91.2773,40.2145 L 90.927,40.3532
 L 90.5621,40.4469 L 90.1884,40.4941 z
M -30.1884,40.4941 L -30.5621,40.4469 L -30.927,40.3532 L -31.2773,40.2145 L -31.6075,40.033 L -31.9123,39.8115
 L -32.1869,39.5536 L -32.427,39.2634 L -32.6289,38.9453 L -32.7893,38.6044 L -32.9057,38.2461 L -32.9763,37.876
 L -33,37.5 L -32.9763,37.124 L -32.9057,36.7539 L -32.7893,36.3956 L -32.6289,36.0547 L -32.427,35.7366
 L -32.1869,35.4464 L -31.9123,35.1885 L -31.6075,34.967 L -31.2773,34.7855 L -30.927,34.6468 L -30.5621,34.5531
 L -30.1884,34.5059 L -29.8116,34.5059 L -29.4379,34.5531 L -29.0729,34.6468 L -28.7227,34.7855 L -28.3925,34.967
 L -28.0877,35.1885 L -27.8131,35.4464 L -27.5729,35.7366 L -27.3711,36.0547 L -27.2107,36.3956 L -27.0942,36.7539
 L -27.0237,37.124 L -27,37.5 L -27.0237,37.876 L -27.0942,38.2461 L -27.2107,38.6044 L -27.3711,38.9453
 L -27.5729,39.2634 L -27.8131,39.5536 L -28.0877,39.8115 L -28.3925,40.033 L -28.7227,40.2145 L -29.0729,40.3532
 L -29.4379,40.4469 L -29.8116,40.4941 z
M -15.1884,40.4941 L -15.5621,40.4469 L -15.927,40.3532 L -16.2773,40.2145 L -16.6075,40.033 L -16.9123,39.8115
 L -17.1869,39.5536 L -17.427,39.2634 L -17.6289,38.9453 L -17.7893,38.6044 L -17.9057,38.2461 L -17.9763,37.876
 L -18,37.5 L -17.9763,37.124 L -17.9057,36.7539 L -17.7893,36.3956 L -17.6289,36.0547 L -17.427,35.7366
 L -17.1869,35.4464 L -16.9123,35.1885 L -16.6075,34.967 L -16.2773,34.7855 L -15.927,34.6468 L -15.5621,34.5531
 L -15.1884,34.5059 L -14.8116,34.5059 L -14.4379,34.5531 L -14.0729,34.6468 L -13.7227,34.7855 L -13.3925,34.967
 L -13.0877,35.1885 L -12.8131,35.4464 L -12.5729,35.7366 L -12.3711,36.0547 L -12.2107,36.3956 L -12.0942,36.7539
 L -12.0237,37.124 L -12,37.5 L -12.0237,37.876 L -12.0942,38.2461 L -12.2107,38.6044 L -12.3711,38.9453
 L -12.5729,39.2634 L -12.8131,39.5536 L -13.0877,39.8115 L -13.3925,40.033 L -13.7227,40.2145 L -14.0729,40.3532
 L -14.4379,40.4469 L -14.8116,40.4941 z
M 44.8116,40.4941 L 44.4379,40.4469 L 44.0729,40.3532 L 43.7227,40.2145 L 43.3925,40.033 L 43.0877,39.8115
 L 42.8131,39.5536 L 42.5729,39.2634 L 42.3711,38.9453 L 42.2107,38.6044 L 42.0942,38.2461 L 42.0237,37.876
 L 42,37.5 L 42.0237,37.124 L 42.0942,36.7539 L 42.2107,36.3956 L 42.3711,36.0547 L 42.5729,35.7366
 L 42.8131,35.4464 L 43.0877,35.1885 L 43.3925,34.967 L 43.7227,34.7855 L 44.0729,34.6468 L 44.4379,34.5531
 L 44.8116,34.5059 L 45.1884,34.5059 L 45.5621,34.5531 L 45.927,34.6468 L 46.2773,34.7855 L 46.6075,34.967
 L 46.9123,35.1885 L 47.1869,35.4464 L 47.427,35.7366 L 47.6289,36.0547 L 47.7893,36.3956 L 47.9057,36.7539
 L 47.9763,37.124 L 48,37.5 L 47.9763,37.876 L 47.9057,38.2461 L 47.7893,38.6044 L 47.6289,38.9453
 L 47.427,39.2634 L 47.1869,39.5536 L 46.9123,39.8115 L 46.6075,40.033 L 46.2773,40.2145 L 45.927,40.3532
 L 45.5621,40.4469 L 45.1884,40.4941 z
M 74.8116,40.4941 L 74.4379,40.4469 L 74.073,40.3532 L 73.7227,40.2145 L 73.3925,40.033 L 73.0877,39.8115
 L 72.8131,39.5536 L 72.573,39.2634 L 72.3711,38.9453 L 72.2107,38.6044 L 72.0943,38.2461 L 72.0237,37.876
 L 72,37.5 L 72.0237,37.124 L 72.0943,36.7539 L 72.2107,36.3956 L 72.3711,36.0547 L 72.573,35.7366
 L 72.8131,35.4464 L 73.0877,35.1885 L 73.3925,34.967 L 73.7227,34.7855 L 74.073,34.6468 L 74.4379,34.5531
 L 74.8116,34.5059 L 75.1884,34.5059 L 75.5621,34.5531 L 75.927,34.6468 L 76.2773,34.7855 L 76.6075,34.967
 L 76.9123,35.1885 L 77.1869,35.4464 L 77.427,35.7366 L 77.6289,36.0547 L 77.7893,36.3956 L 77.9057,36.7539
 L 77.9763,37.124 L 78,37.5 L 77.9763,37.876 L 77.9057,38.2461 L 77.7893,38.6044 L 77.6289,38.9453
 L 77.427,39.2634 L 77.1869,39.5536 L 76.9123,39.8115 L 76.6075,40.033 L 76.2773,40.2145 L 75.927,40.3532
 L 75.5621,40.4469 L 75.1884,40.4941 z
M -22.5942,38.997 L -22.7811,38.9734 L -22.9635,38.9266 L -23.1387,38.8572 L -23.3037,38.7665 L -23.4561,38.6558
 L -23.5934,38.5268 L -23.7135,38.3817 L -23.8145,38.2226 L -23.8947,38.0522 L -23.9529,37.873 L -23.9882,37.688
 L -24,37.5 L -23.9882,37.312 L -23.9529,37.127 L -23.8947,36.9478 L -23.8145,36.7774 L -23.7135,36.6183
 L -23.5934,36.4732 L -23.4561,36.3442 L -23.3037,36.2335 L -23.1387,36.1428 L -22.9635,36.0734 L -22.7811,36.0266
 L -22.5942,36.003 L -22.4058,36.003 L -22.2189,36.0266 L -22.0365,36.0734 L -21.8613,36.1428 L -21.6963,36.2335
 L -21.5439,36.3442 L -21.4065,36.4732 L -21.2865,36.6183 L -21.1855,36.7774 L -21.1053,36.9478 L -21.0471,37.127
 L -21.0118,37.312 L -21,37.5 L -21.0118,37.688 L -21.0471,37.873 L -21.1053,38.0522 L -21.1855,38.2226
 L -21.2865,38.3817 L -21.4065,38.5268 L -21.5439,38.6558 L -21.6963,38.7665 L -21.8613,38.8572 L -22.0365,38.9266
 L -22.2189,38.9734 L -22.4058,38.997 z
M 52.4058,38.997 L 52.2189,38.9734 L 52.0365,38.9266 L 51.8613,38.8572 L 51.6963,38.7665 L 51.5439,38.6558
 L 51.4065,38.5268 L 51.2865,38.3817 L 51.1855,38.2226 L 51.1053,38.0522 L 51.0471,37.873 L 51.0118,37.688
 L 51,37.5 L 51.0118,37.312 L 51.0471,37.127 L 51.1053,36.9478 L 51.1855,36.7774 L 51.2865,36.6183
 L 51.4065,36.4732 L 51.5439,36.3442 L 51.6963,36.2335 L 51.8613,36.1428 L 52.0365,36.0734 L 52.2189,36.0266
 L 52.4058,36.003 L 52.5942,36.003 L 52.7811,36.0266 L 52.9635,36.0734 L 53.1387,36.1428 L 53.3037,36.2335
 L 53.4561,36.3442 L 53.5934,36.4732 L 53.7135,36.6183 L 53.8145,36.7774 L 53.8947,36.9478 L 53.9529,37.127
 L 53.9882,37.312 L 54,37.5 L 53.9882,37.688 L 53.9529,37.873 L 53.8947,38.0522 L 53.8145,38.2226
 L 53.7135,38.3817 L 53.5934,38.5268 L 53.4561,38.6558 L 53.3037,38.7665 L 53.1387,38.8572 L 52.9635,38.9266
 L 52.7811,38.9734 L 52.5942,38.997 z
M 7.40581,38.997 L 7.21892,38.9734 L 7.03647,38.9266 L 6.86133,38.8572 L 6.69626,38.7665 L 6.54385,38.6558
 L 6.40654,38.5268 L 6.28647,38.3817 L 6.18553,38.2226 L 6.10533,38.0522 L 6.04712,37.873 L 6.01183,37.688
 L 6,37.5 L 6.01183,37.312 L 6.04712,37.127 L 6.10533,36.9478 L 6.18553,36.7774 L 6.28647,36.6183
 L 6.40654,36.4732 L 6.54385,36.3442 L 6.69626,36.2335 L 6.86133,36.1428 L 7.03647,36.0734 L 7.21892,36.0266
 L 7.40581,36.003 L 7.59418,36.003 L 7.78107,36.0266 L 7.96352,36.0734 L 8.13866,36.1428 L 8.30373,36.2335
 L 8.45613,36.3442 L 8.59344,36.4732 L 8.71352,36.6183 L 8.81445,36.7774 L 8.89465,36.9478 L 8.95287,37.127
 L 8.98816,37.312 L 9,37.5 L 8.98816,37.688 L 8.95287,37.873 L 8.89465,38.0522 L 8.81445,38.2226
 L 8.71352,38.3817 L 8.59344,38.5268 L 8.45613,38.6558 L 8.30373,38.7665 L 8.13866,38.8572 L 7.96352,38.9266
 L 7.78107,38.9734 L 7.59418,38.997 z
M -52.5942,38.997 L -52.7811,38.9734 L -52.9635,38.9266 L -53.1387,38.8572 L -53.3037,38.7665 L -53.4561,38.6558
 L -53.5934,38.5268 L -53.7135,38.3817 L -53.8145,38.2226 L -53.8947,38.0522 L -53.9529,37.873 L -53.9882,37.688
 L -54,37.5 L -53.9882,37.312 L -53.9529,37.127 L -53.8947,36.9478 L -53.8145,36.7774 L -53.7135,36.6183
 L -53.5934,36.4732 L -53.4561,36.3442 L -53.3037,36.2335 L -53.1387,36.1428 L -52.9635,36.0734 L -52.7811,36.0266
 L -52.5942,36.003 L -52.4058,36.003 L -52.2189,36.0266 L -52.0365,36.0734 L -51.8613,36.1428 L -51.6963,36.2335
 L -51.5439,36.3442 L -51.4065,36.4732 L -51.2865,36.6183 L -51.1855,36.7774 L -51.1053,36.9478 L -51.0471,37.127
 L -51.0118,37.312 L -51,37.5 L -51.0118,37.688 L -51.0471,37.873 L -51.1053,38.0522 L -51.1855,38.2226
 L -51.2865,38.3817 L -51.4065,38.5268 L -51.5439,38.6558 L -51.6963,38.7665 L -51.8613,38.8572 L -52.0365,38.9266
 L -52.2189,38.9734 L -52.4058,38.997 z
M -67.5942,38.997 L -67.7811,38.9734 L -67.9635,38.9266 L -68.1387,38.8572 L -68.3037,38.7665 L -68.4561,38.6558
 L -68.5934,38.5268 L -68.7135,38.3817 L -68.8145,38.2226 L -68.8947,38.0522 L -68.9529,37.873 L -68.9882,37.688
 L -69,37.5 L -68.9882,37.312 L -68.9529,37.127 L -68.8947,36.9478 L -68.8145,36.7774 L -68.7135,36.6183
 L -68.5934,36.4732 L -68.4561,36.3442 L -68.3037,36.2335 L -68.1387,36.1428 L -67.9635,36.0734 L -67.7811,36.0266
 L -67.5942,36.003 L -67.4058,36.003 L -67.2189,36.0266 L -67.0365,36.0734 L -66.8613,36.1428 L -66.6963,36.2335
 L -66.5439,36.3442 L -66.4065,36.4732 L -66.2865,36.6183 L -66.1855,36.7774 L -66.1053,36.9478 L -66.0471,37.127
 L -66.0118,37.312 L -66,37.5 L -66.0118,37.688 L -66.0471,37.873 L -66.1053,38.0522 L -66.1855,38.2226
 L -66.2865,38.3817 L -66.4065,38.5268 L -66.5439,38.6558 L -66.6963,38.7665 L -66.8613,38.8572 L -67.0365,38.9266
 L -67.2189,38.9734 L -67.4058,38.997 z
M 82.4058,38.997 L 82.2189,38.9734 L 82.0365,38.9266 L 81.8613,38.8572 L 81.6963,38.7665 L 81.5439,38.6558
 L 81.4065,38.5268 L 81.2865,38.3817 L 81.1855,38.2226 L 81.1053,38.0522 L 81.0471,37.873 L 81.0118,37.688
 L 81,37.5 L 81.0118,37.312 L 81.0471,37.127 L 81.1053,36.9478 L 81.1855,36.7774 L 81.2865,36.6183
 L 81.4065,36.4732 L 81.5439,36.3442 L 81.6963,36.2335 L 81.8613,36.1428 L 82.0365,36.0734 L 82.2189,36.0266
 L 82.4058,36.003 L 82.5942,36.003 L 82.7811,36.0266 L 82.9635,36.0734 L 83.1387,36.1428 L 83.3037,36.2335
 L 83.4561,36.3442 L 83.5934,36.4732 L 83.7135,36.6183 L 83.8145,36.7774 L 83.8947,36.9478 L 83.9529,37.127
 L 83.9882,37.312 L 84,37.5 L 83.9882,37.688 L 83.9529,37.873 L 83.8947,38.0522 L 83.8145,38.2226
 L 83.7135,38.3817 L 83.5934,38.5268 L 83.4561,38.6558 L 83.3037,38.7665 L 83.1387,38.8572 L 82.9635,38.9266
 L 82.7811,38.9734 L 82.5942,38.997 z
M 67.4058,38.997 L 67.2189,38.9734 L 67.0365,38.9266 L 66.8613,38.8572 L 66.6963,38.7665 L 66.5439,38.6558
 L 66.4065,38.5268 L 66.2865,38.3817 L 66.1855,38.2226 L 66.1053,38.0522 L 66.0471,37.873 L 66.0118,37.688
 L 66,37.5 L 66.0118,37.312 L 66.0471,37.127 L 66.1053,36.9478 L 66.1855,36.7774 L 66.2865,36.6183
 L 66.4065,36.4732 L 66.5439,36.3442 L 66.6963,36.2335 L 66.8613,36.1428 L 67.0365,36.0734 L 67.2189,36.0266
 L 67.4058,36.003 L 67.5942,36.003 L 67.7811,36.0266 L 67.9635,36.0734 L 68.1387,36.1428 L 68.3037,36.2335
 L 68.4561,36.3442 L 68.5934,36.4732 L 68.7135,36.6183 L 68.8145,36.7774 L 68.8947,36.9478 L 68.9529,37.127
 L 68.9882,37.312 L 69,37.5 L 68.9882,37.688 L 68.9529,37.873 L 68.8947,38.0522 L 68.8145,38.2226
 L 68.7135,38.3817 L 68.5934,38.5268 L 68.4561,38.6558 L 68.3037,38.7665 L 68.1387,38.8572 L 67.9635,38.9266
 L 67.7811,38.9734 L 67.5942,38.997 z
M 37.4058,38.997 L 37.2189,38.9734 L 37.0365,38.9266 L 36.8613,38.8572 L 36.6963,38.7665 L 36.5439,38.6558
 L 36.4065,38.5268 L 36.2865,38.3817 L 36.1855,38.2226 L 36.1053,38.0522 L 36.0471,37.873 L 36.0118,37.688
 L 36,37.5 L 36.0118,37.312 L 36.0471,37.127 L 36.1053,36.9478 L 36.1855,36.7774 L 36.2865,36.6183
 L 36.4065,36.4732 L 36.5439,36.3442 L 36.6963,36.2335 L 36.8613,36.1428 L 37.0365,36.0734 L 37.2189,36.0266
 L 37.4058,36.003 L 37.5942,36.003 L 37.7811,36.0266 L 37.9635,36.0734 L 38.1387,36.1428 L 38.3037,36.2335
 L 38.4561,36.3442 L 38.5934,36.4732 L 38.7135,36.6183 L 38.8145,36.7774 L 38.8947,36.9478 L 38.9529,37.127
 L 38.9882,37.312 L 39,37.5 L 38.9882,37.688 L 38.9529,37.873 L 38.8947,38.0522 L 38.8145,38.2226
 L 38.7135,38.3817 L 38.5934,38.5268 L 38.4561,38.6558 L 38.3037,38.7665 L 38.1387,38.8572 L 37.9635,38.9266
 L 37.7811,38.9734 L 37.5942,38.997 z
M -82.5942,38.997 L -82.7811,38.9734 L -82.9635,38.9266 L -83.1387,38.8572 L -83.3037,38.7665 L -83.4561,38.6558
 L -83.5934,38.5268 L -83.7135,38.3817 L -83.8145,38.2226 L -83.8947,38.0522 L -83.9529,37.873 L -83.9882,37.688
 L -84,37.5 L -83.9882,37.312 L -83.9529,37.127 L -83.8947,36.9478 L -83.8145,36.7774 L -83.7135,36.6183
 L -83.5934,36.4732 L -83.4561,36.3442 L -83.3037,36.2335 L -83.1387,36.1428 L -82.9635,36.0734 L -82.7811,36.0266
 L -82.5942,36.003 L -82.4058,36.003 L -82.2189,36.0266 L -82.0365,36.0734 L -81.8613,36.1428 L -81.6963,36.2335
 L -81.5439,36.3442 L -81.4065,36.4732 L -81.2865,36.6183 L -81.1855,36.7774 L -81.1053,36.9478 L -81.0471,37.127
 L -81.0118,37.312 L -81,37.5 L -81.0118,37.688 L -81.0471,37.873 L -81.1053,38.0522 L -81.1855,38.2226
 L -81.2865,38.3817 L -81.4065,38.5268 L -81.5439,38.6558 L -81.6963,38.7665 L -81.8613,38.8572 L -82.0365,38.9266
 L -82.2189,38.9734 L -82.4058,38.997 z
M 22.4058,38.997 L 22.2189,38.9734 L 22.0365,38.9266 L 21.8613,38.8572 L 21.6963,38.7665 L 21.5439,38.6558
 L 21.4065,38.5268 L 21.2865,38.3817 L 21.1855,38.2226 L 21.1053,38.0522 L 21.0471,37.873 L 21.0118,37.688
 L 21,37.5 L 21.0118,37.312 L 21.0471,37.127 L 21.1053,36.9478 L 21.1855,36.7774 L 21.2865,36.6183
 L 21.4065,36.4732 L 21.5439,36.3442 L 21.6963,36.2335 L 21.8613,36.1428 L 22.0365,36.0734 L 22.2189,36.0266
 L 22.4058,36.003 L 22.5942,36.003 L 22.7811,36.0266 L 22.9635,36.0734 L 23.1387,36.1428 L 23.3037,36.2335
 L 23.4561,36.3442 L 23.5934,36.4732 L 23.7135,36.6183 L 23.8145,36.7774 L 23.8947,36.9478 L 23.9529,37.127
 L 23.9882,37.312 L 24,37.5 L 23.9882,37.688 L 23.9529,37.873 L 23.8947,38.0522 L 23.8145,38.2226
 L 23.7135,38.3817 L 23.5934,38.5268 L 23.4561,38.6558 L 23.3037,38.7665 L 23.1387,38.8572 L 22.9635,38.9266
 L 22.7811,38.9734 L 22.5942,38.997 z
M -7.59418,38.997 L -7.78107,38.9734 L -7.96352,38.9266 L -8.13866,38.8572 L -8.30373,38.7665 L -8.45613,38.6558
 L -8.59344,38.5268 L -8.71352,38.3817 L -8.81445,38.2226 L -8.89465,38.0522 L -8.95287,37.873 L -8.98816,37.688
 L -9,37.5 L -8.98816,37.312 L -8.95287,37.127 L -8.89465,36.9478 L -8.81445,36.7774 L -8.71352,36.6183
 L -8.59344,36.4732 L -8.45613,36.3442 L -8.30373,36.2335 L -8.13866,36.1428 L -7.96352,36.0734 L -7.78107,36.0266
 L -7.59418,36.003 L -7.40581,36.003 L -7.21892,36.0266 L -7.03647,36.0734 L -6.86133,36.1428 L -6.69626,36.2335
 L -6.54385,36.3442 L -6.40654,36.4732 L -6.28647,36.6183 L -6.18553,36.7774 L -6.10533,36.9478 L -6.04712,37.127
 L -6.01183,37.312 L -6,37.5 L -6.01183,37.688 L -6.04712,37.873 L -6.10533,38.0522 L -6.18553,38.2226
 L -6.28647,38.3817 L -6.40654,38.5268 L -6.54385,38.6558 L -6.69626,38.7665 L -6.86133,38.8572 L -7.03647,38.9266
 L -7.21892,38.9734 L -7.40581,38.997 z
M -37.5942,38.997 L -37.7811,38.9734 L -37.9635,38.9266 L -38.1387,38.8572 L -38.3037,38.7665 L -38.4561,38.6558
 L -38.5934,38.5268 L -38.7135,38.3817 L -38.8145,38.2226 L -38.8947,38.0522 L -38.9529,37.873 L -38.9882,37.688
 L -39,37.5 L -38.9882,37.312 L -38.9529,37.127 L -38.8947,36.9478 L -38.8145,36.7774 L -38.7135,36.6183
 L -38.5934,36.4732 L -38.4561,36.3442 L -38.3037,36.2335 L -38.1387,36.1428 L -37.9635,36.0734 L -37.7811,36.0266
 L -37.5942,36.003 L -37.4058,36.003 L -37.2189,36.0266 L -37.0365,36.0734 L -36.8613,36.1428 L -36.6963,36.2335
 L -36.5439,36.3442 L -36.4065,36.4732 L -36.2865,36.6183 L -36.1855,36.7774 L -36.1053,36.9478 L -36.0471,37.127
 L -36.0118,37.312 L -36,37.5 L -36.0118,37.688 L -36.0471,37.873 L -36.1053,38.0522 L -36.1855,38.2226
 L -36.2865,38.3817 L -36.4065,38.5268 L -36.5439,38.6558 L -36.6963,38.7665 L -36.8613,38.8572 L -37.0365,38.9266
 L -37.2189,38.9734 L -37.4058,38.997 z
" stroke="black" fill="lightgray" stroke-width="0.5"/>
</svg>
